<?xml version="1.0" encoding="UTF-8" standalone="no"?>
<!DOCTYPE svg PUBLIC "-//W3C//DTD SVG 1.1//EN"
"http://www.w3.org/Graphics/SVG/1.1/DTD/svg11.dtd">
<svg width="128" height="128" xmlns="http://www.w3.org/2000/svg" version="1.1">
<path d="M 26.5 128.0 L 27.0 128.0 L 28.0 128.0 L 29.0 128.0 L 30.0 128.0 L 31.0 128.0 L 32.0 128.0 L 33.0 128.0 L 34.0 128.0 L 35.0 128.0 L 36.0 128.0 L 37.0 128.0 L 38.0 128.0 L 39.0 128.0 L 40.0 128.0 L 41.0 128.0 L 42.0 128.0 L 43.0 128.0 L 44.0 128.0 L 45.0 128.0 L 46.0 128.0 L 47.0 128.0 L 48.0 128.0 L 49.0 128.0 L 50.0 128.0 L 51.0 128.0 L 52.0 128.0 L 53.0 128.0 L 54.0 128.0 L 55.0 128.0 L 56.0 128.0 L 57.0 128.0 L 58.0 128.0 L 59.0 128.0 L 60.0 128.0 L 61.0 128.0 L 62.0 128.0 L 63.0 128.0 L 64.0 128.0 L 65.0 128.0 L 66.0 128.0 L 67.0 128.0 L 68.0 128.0 L 69.0 128.0 L 70.0 128.0 L 71.0 128.0 L 72.0 128.0 L 73.0 128.0 L 74.0 128.0 L 75.0 128.0 L 76.0 128.0 L 77.0 128.0 L 78.0 128.0 L 79.0 128.0 L 80.0 128.0 L 81.0 128.0 L 82.0 128.0 L 83.0 128.0 L 84.0 128.0 L 85.0 128.0 L 86.0 128.0 L 87.0 128.0 L 88.0 128.0 L 89.0 128.0 L 90.0 128.0 L 91.0 128.0 L 92.0 128.0 L 93.0 128.0 L 94.0 128.0 L 95.0 128.0 L 96.0 128.0 L 97.0 128.0 L 98.0 128.0 L 99.0 128.0 L 100.0 128.0 L 101.0 128.0 L 102.0 128.0 L 103.0 128.0 L 104.0 128.0 L 105.0 128.0 L 106.0 128.0 L 107.0 128.0 L 108.0 128.0 L 109.0 128.0 L 110.0 128.0 L 111.0 128.0 L 112.0 128.0 L 113.0 128.0 L 114.0 128.0 L 115.0 128.0 L 116.0 128.0 L 117.0 128.0 L 118.0 128.0 L 119.0 128.0 L 120.0 128.0 L 121.0 128.0 L 122.0 128.0 L 123.0 128.0 L 124.0 128.0 L 125.0 128.0 L 126.0 128.0 L 127.0 128.0 L 127.66666666666667 127.66666666666667 L 128.0 127.0 L 128.0 126.0 L 128.0 125.0 L 128.0 124.0 L 128.0 123.0 L 128.0 122.0 L 128.0 121.0 L 128.0 120.0 L 128.0 119.0 L 128.0 118.0 L 128.0 117.0 L 128.0 116.0 L 128.0 115.0 L 128.0 114.0 L 128.0 113.0 L 128.0 112.0 L 128.0 111.0 L 128.0 110.0 L 128.0 109.0 L 128.0 108.0 L 128.0 107.0 L 128.0 106.0 L 128.0 105.0 L 128.0 104.0 L 128.0 103.0 L 128.0 102.0 L 128.0 101.0 L 128.0 100.0 L 128.0 99.0 L 128.0 98.0 L 128.0 97.0 L 128.0 96.0 L 128.0 95.0 L 128.0 94.0 L 128.0 93.0 L 128.0 92.0 L 128.0 91.0 L 128.0 90.0 L 128.0 89.0 L 128.0 88.0 L 128.0 87.0 L 128.0 86.0 L 128.0 85.0 L 128.0 84.0 L 128.0 83.0 L 128.0 82.0 L 128.0 81.0 L 128.0 80.0 L 128.0 79.0 L 128.0 78.0 L 128.0 77.0 L 128.0 76.0 L 128.0 75.0 L 128.0 74.0 L 128.0 73.0 L 128.0 72.0 L 128.0 71.0 L 128.0 70.0 L 128.0 69.0 L 128.0 68.0 L 128.0 67.0 L 128.0 66.0 L 128.0 65.0 L 128.0 64.0 L 128.0 63.0 L 128.0 62.0 L 128.0 61.0 L 128.0 60.0 L 128.0 59.0 L 128.0 58.0 L 128.0 57.0 L 128.0 56.0 L 128.0 55.0 L 128.0 54.0 L 128.0 53.0 L 128.0 52.0 L 128.0 51.0 L 128.0 50.0 L 128.0 49.0 L 128.0 48.0 L 128.0 47.0 L 128.0 46.0 L 128.0 45.0 L 128.0 44.0 L 128.0 43.0 L 128.0 42.0 L 128.0 41.0 L 128.0 40.0 L 128.0 39.0 L 128.0 38.0 L 128.0 37.0 L 128.0 36.0 L 128.0 35.0 L 128.0 34.0 L 128.0 33.0 L 128.0 32.0 L 128.0 31.0 L 128.0 30.0 L 128.0 29.0 L 128.0 28.0 L 128.0 27.0 L 128.0 26.0 L 128.0 25.0 L 128.0 24.0 L 128.0 23.0 L 128.0 22.0 L 128.0 21.0 L 128.0 20.0 L 128.0 19.0 L 128.0 18.0 L 128.0 17.0 L 128.0 16.0 L 128.0 15.0 L 128.0 14.0 L 128.0 13.0 L 128.0 12.0 L 128.0 11.0 L 128.0 10.0 L 128.0 9.0 L 128.0 8.0 L 128.0 7.0 L 128.0 6.0 L 128.0 5.0 L 128.0 4.0 L 128.0 3.0 L 128.0 2.0 L 128.0 1.0 L 127.66666666666667 0.3333333333333333 L 127.0 0.0 L 126.0 0.0 L 125.0 0.0 L 124.0 0.0 L 123.0 0.0 L 122.0 0.0 L 121.0 0.0 L 120.0 0.0 L 119.0 0.0 L 118.0 0.0 L 117.0 0.0 L 116.0 0.0 L 115.0 0.0 L 114.0 0.0 L 113.0 0.0 L 112.0 0.0 L 111.0 0.0 L 110.0 0.0 L 109.0 0.0 L 108.0 0.0 L 107.0 0.0 L 106.0 0.0 L 105.0 0.0 L 104.0 0.0 L 103.0 0.0 L 102.0 0.0 L 101.0 0.0 L 100.0 0.0 L 99.0 0.0 L 98.0 0.0 L 97.0 0.0 L 96.0 0.0 L 95.0 0.0 L 94.0 0.0 L 93.0 0.0 L 92.0 0.0 L 91.0 0.0 L 90.0 0.0 L 89.0 0.0 L 88.0 0.0 L 87.0 0.0 L 86.0 0.0 L 85.0 0.0 L 84.0 0.0 L 83.0 0.0 L 82.0 0.0 L 81.0 0.0 L 80.0 0.0 L 79.0 0.0 L 78.0 0.0 L 77.0 0.0 L 76.0 0.0 L 75.0 0.0 L 74.0 0.0 L 73.0 0.0 L 72.0 0.0 L 71.0 0.0 L 70.0 0.0 L 69.0 0.0 L 68.0 0.0 L 67.0 0.0 L 66.0 0.0 L 65.0 0.0 L 64.0 0.0 L 63.0 0.0 L 62.0 0.0 L 61.0 0.0 L 60.0 0.0 L 59.0 0.0 L 58.0 0.0 L 57.0 0.0 L 56.0 0.0 L 55.0 0.0 L 54.0 0.0 L 53.0 0.0 L 52.0 0.0 L 51.0 0.0 L 50.0 0.0 L 49.0 0.0 L 48.0 0.0 L 47.0 0.0 L 46.0 0.0 L 45.0 0.0 L 44.0 0.0 L 43.0 0.0 L 42.0 0.0 L 41.0 0.0 L 40.0 0.0 L 39.0 0.0 L 38.0 0.0 L 37.0 0.0 L 36.0 0.0 L 35.0 0.0 L 34.0 0.0 L 33.0 0.0 L 32.0 0.0 L 31.0 0.0 L 30.0 0.0 L 29.0 0.0 L 28.0 0.0 L 27.0 0.0 L 26.0 0.0 L 25.0 0.0 L 24.0 0.0 L 23.0 0.0 L 22.0 0.0 L 21.0 0.0 L 20.0 0.0 L 19.0 0.0 L 18.0 0.0 L 17.0 0.0 L 16.0 0.0 L 15.0 0.0 L 14.0 0.0 L 13.0 0.0 L 12.0 0.0 L 11.0 0.0 L 10.0 0.0 L 9.0 0.0 L 8.0 0.0 L 7.0 0.0 L 6.0 0.0 L 5.0 0.0 L 4.0 0.0 L 3.0 0.0 L 2.0 0.0 L 1.0 0.0 L 0.3333333333333333 0.3333333333333333 L 0.0 1.0 L 0.0 2.0 L 0.0 3.0 L 0.0 4.0 L 0.0 5.0 L 0.0 6.0 L 0.0 7.0 L 0.0 8.0 L 0.0 9.0 L 0.0 10.0 L 0.0 11.0 L 0.0 12.0 L 0.0 13.0 L 0.0 14.0 L 0.0 15.0 L 0.0 16.0 L 0.0 17.0 L 0.0 18.0 L 0.0 19.0 L 0.0 20.0 L 0.0 21.0 L 0.0 22.0 L 0.0 23.0 L 0.0 24.0 L 0.0 25.0 L 0.0 26.0 L 0.0 27.0 L 0.0 28.0 L 0.0 29.0 L 0.0 30.0 L 0.0 31.0 L 0.0 32.0 L 0.0 33.0 L 0.0 34.0 L 0.0 35.0 L 0.0 36.0 L 0.0 37.0 L 0.0 38.0 L 0.0 39.0 L 0.0 40.0 L 0.0 41.0 L 0.0 42.0 L 0.0 43.0 L 0.0 44.0 L 0.0 45.0 L 0.0 46.0 L 0.0 47.0 L 0.0 48.0 L 0.0 49.0 L 0.0 50.0 L 0.0 51.0 L 0.0 52.0 L 0.0 53.0 L 0.0 54.0 L 0.0 55.0 L 0.0 56.0 L 0.0 57.0 L 0.0 58.0 L 0.0 59.0 L 0.0 60.0 L 0.0 61.0 L 0.0 62.0 L 0.0 63.0 L 0.0 64.0 L 0.0 65.0 L 0.0 66.0 L 0.0 67.0 L 0.0 68.0 L 0.0 69.0 L 0.0 70.0 L 0.0 71.0 L 0.0 72.0 L 0.0 73.0 L 0.0 74.0 L 0.0 75.0 L 0.0 76.0 L 0.0 77.0 L 0.0 78.0 L 0.0 79.0 L 0.0 80.0 L 0.0 81.0 L 0.0 82.0 L 0.0 83.0 L 0.0 84.0 L 0.0 85.0 L 0.0 86.0 L 0.0 87.0 L 0.0 88.0 L 0.0 89.0 L 0.0 90.0 L 0.0 91.0 L 0.0 92.0 L 0.0 93.0 L 0.0 94.0 L 0.0 95.0 L 0.0 96.0 L 0.0 97.0 L 0.0 98.0 L 0.0 99.0 L 0.0 100.0 L 0.0 101.0 L 0.0 102.0 L 0.0 103.0 L 0.0 104.0 L 0.0 105.0 L 0.0 106.0 L 0.0 107.0 L 0.0 108.0 L 0.0 109.0 L 0.0 110.0 L 0.0 111.0 L 0.0 112.0 L 0.0 113.0 L 0.0 114.0 L 0.0 115.0 L 0.0 116.0 L 0.0 117.0 L 0.0 118.0 L 0.0 119.0 L 0.0 120.0 L 0.0 121.0 L 0.0 122.0 L 0.0 123.0 L 0.0 124.0 L 0.0 125.0 L 0.0 126.0 L 0.0 127.0 L 0.3333333333333333 127.66666666666667 L 1.0 128.0 L 2.0 128.0 L 3.0 128.0 L 4.0 128.0 L 5.0 128.0 L 6.0 128.0 L 7.0 128.0 L 8.0 128.0 L 9.0 128.0 L 10.0 128.0 L 11.0 128.0 L 12.0 128.0 L 13.0 128.0 L 14.0 128.0 L 15.0 128.0 L 16.0 128.0 L 17.0 128.0 L 18.0 128.0 L 19.0 128.0 L 20.0 128.0 L 21.0 128.0 L 22.0 128.0 L 23.0 128.0 L 24.0 128.0 L 25.0 128.0 L 25.5 128.0 Z" stroke="none" fill="rgb(255,255,255)" />
<path d="M 21.5 19.0 L 22.0 18.666666666666668 L 23.0 18.333333333333332 L 24.0 18.0 L 25.0 18.0 L 26.0 18.0 L 27.0 18.0 L 28.0 18.0 L 29.0 18.0 L 30.0 18.0 L 31.0 18.0 L 32.0 18.0 L 33.0 18.0 L 34.0 18.0 L 35.0 18.0 L 36.0 18.0 L 37.0 18.0 L 38.0 18.0 L 39.0 18.0 L 40.0 18.0 L 41.0 18.333333333333332 L 42.0 18.666666666666668 L 43.0 19.0 L 44.0 19.0 L 45.0 19.333333333333332 L 46.0 19.666666666666668 L 47.0 20.0 L 48.0 20.0 L 49.0 20.333333333333332 L 50.0 20.666666666666668 L 51.0 21.0 L 52.0 21.0 L 53.0 21.333333333333332 L 54.0 21.666666666666668 L 55.0 22.0 L 56.0 22.0 L 57.0 22.333333333333332 L 58.0 22.666666666666668 L 59.0 23.0 L 60.0 23.333333333333332 L 61.0 23.666666666666668 L 62.0 24.0 L 63.0 24.333333333333332 L 64.0 24.666666666666668 L 65.0 25.0 L 66.0 25.0 L 67.0 25.333333333333332 L 68.0 25.666666666666668 L 69.0 26.0 L 70.0 26.333333333333332 L 71.0 26.666666666666668 L 72.0 27.0 L 73.0 27.333333333333332 L 74.0 27.666666666666668 L 75.0 28.0 L 76.0 28.0 L 77.0 28.333333333333332 L 78.0 28.666666666666668 L 79.0 29.0 L 80.0 29.0 L 81.0 29.0 L 82.0 29.333333333333332 L 83.0 29.666666666666668 L 84.0 30.0 L 85.0 30.0 L 86.0 30.0 L 87.0 30.333333333333332 L 88.0 30.666666666666668 L 89.0 31.0 L 90.0 31.0 L 91.0 31.0 L 92.0 31.0 L 93.0 31.0 L 94.0 31.0 L 95.0 31.0 L 96.0 31.0 L 97.0 31.0 L 98.0 31.0 L 99.0 31.0 L 100.0 31.0 L 101.0 31.0 L 102.0 31.0 L 103.0 31.0 L 104.0 31.0 L 105.0 31.0 L 106.0 31.0 L 107.0 31.0 L 108.0 31.0 L 109.0 31.0 L 110.0 31.0 L 111.0 30.666666666666668 L 112.0 30.333333333333332 L 113.0 30.0 L 114.0 29.666666666666668 L 115.0 29.333333333333332 L 116.0 29.0 L 117.0 28.666666666666668 L 118.0 28.333333333333332 L 119.0 28.333333333333332 L 119.66666666666667 29.0 L 120.0 30.0 L 120.0 31.0 L 120.0 32.0 L 120.0 33.0 L 120.0 34.0 L 120.0 35.0 L 120.0 36.0 L 120.0 37.0 L 120.0 38.0 L 120.33333333333333 38.666666666666664 L 121.0 39.0 L 122.0 39.0 L 123.0 39.0 L 123.66666666666667 38.666666666666664 L 124.0 38.0 L 124.0 37.0 L 124.0 36.0 L 124.0 35.0 L 124.0 34.0 L 124.0 33.0 L 124.0 32.0 L 124.0 31.0 L 124.0 30.0 L 124.0 29.0 L 124.0 28.0 L 124.0 27.0 L 124.0 26.0 L 124.0 25.0 L 124.0 24.0 L 124.0 23.0 L 124.0 22.0 L 123.66666666666667 21.333333333333332 L 123.0 21.0 L 122.0 21.333333333333332 L 121.0 22.0 L 120.0 22.666666666666668 L 119.0 23.0 L 118.0 23.0 L 117.0 23.0 L 116.0 23.333333333333332 L 115.0 24.0 L 114.0 24.666666666666668 L 113.0 25.333333333333332 L 112.0 25.666666666666668 L 111.0 26.0 L 110.0 26.333333333333332 L 109.0 26.666666666666668 L 108.0 27.0 L 107.0 27.0 L 106.0 27.0 L 105.0 27.0 L 104.0 27.0 L 103.0 27.0 L 102.0 27.0 L 101.0 27.0 L 100.0 27.0 L 99.0 27.0 L 98.0 27.0 L 97.0 27.0 L 96.0 27.0 L 95.0 27.0 L 94.0 27.0 L 93.0 27.0 L 92.0 26.666666666666668 L 91.0 26.333333333333332 L 90.0 26.0 L 89.0 26.0 L 88.0 26.0 L 87.0 26.0 L 86.0 25.666666666666668 L 85.0 25.333333333333332 L 84.0 25.0 L 83.0 25.0 L 82.0 25.0 L 81.0 24.666666666666668 L 80.0 24.333333333333332 L 79.0 24.0 L 78.0 24.0 L 77.0 24.0 L 76.0 23.666666666666668 L 75.0 23.333333333333332 L 74.0 22.666666666666668 L 73.0 22.333333333333332 L 72.0 22.0 L 71.0 22.0 L 70.0 21.666666666666668 L 69.0 21.333333333333332 L 68.0 21.0 L 67.0 20.666666666666668 L 66.0 20.333333333333332 L 65.0 20.0 L 64.0 20.0 L 63.0 19.666666666666668 L 62.0 19.333333333333332 L 61.0 19.0 L 60.0 18.666666666666668 L 59.0 18.333333333333332 L 58.0 18.0 L 57.0 18.0 L 56.0 17.666666666666668 L 55.0 17.333333333333332 L 54.0 17.0 L 53.0 17.0 L 52.0 16.666666666666668 L 51.0 16.333333333333332 L 50.0 16.0 L 49.0 16.0 L 48.0 15.666666666666666 L 47.0 15.333333333333334 L 46.0 15.0 L 45.0 15.0 L 44.0 15.0 L 43.0 14.666666666666666 L 42.0 14.333333333333334 L 41.0 14.0 L 40.0 14.0 L 39.0 14.0 L 38.0 14.0 L 37.0 14.0 L 36.0 14.0 L 35.0 14.0 L 34.0 14.0 L 33.0 13.666666666666666 L 32.0 13.333333333333334 L 31.0 13.0 L 30.0 13.0 L 29.0 13.0 L 28.0 13.333333333333334 L 27.0 13.666666666666666 L 26.0 14.0 L 25.0 14.0 L 24.0 14.0 L 23.0 14.0 L 22.0 14.333333333333334 L 21.0 14.666666666666666 L 20.0 15.0 L 19.0 15.0 L 18.0 15.0 L 17.0 15.0 L 16.0 15.0 L 15.0 15.333333333333334 L 14.0 15.666666666666666 L 13.0 16.0 L 12.0 16.333333333333332 L 11.0 17.0 L 10.0 17.666666666666668 L 9.0 18.0 L 8.0 18.0 L 7.0 18.333333333333332 L 6.0 19.0 L 5.0 19.666666666666668 L 4.333333333333333 20.333333333333332 L 4.0 21.0 L 4.0 22.0 L 4.0 23.0 L 4.0 24.0 L 4.0 25.0 L 4.0 26.0 L 4.0 27.0 L 4.0 28.0 L 4.0 29.0 L 4.0 30.0 L 4.0 31.0 L 4.0 32.0 L 4.0 33.0 L 4.0 34.0 L 4.0 35.0 L 4.0 36.0 L 4.333333333333333 36.666666666666664 L 5.0 37.0 L 6.0 37.0 L 7.0 37.0 L 8.0 36.666666666666664 L 8.666666666666666 36.0 L 8.666666666666666 35.0 L 8.333333333333334 34.0 L 8.0 33.0 L 8.0 32.0 L 8.0 31.0 L 8.0 30.0 L 8.0 29.0 L 8.0 28.0 L 8.0 27.0 L 8.0 26.0 L 8.0 25.0 L 8.333333333333334 24.0 L 9.0 23.0 L 10.0 22.333333333333332 L 11.0 21.666666666666668 L 12.0 21.333333333333332 L 13.0 21.0 L 14.0 20.666666666666668 L 15.0 20.333333333333332 L 16.0 20.0 L 17.0 19.666666666666668 L 18.0 19.333333333333332 L 19.0 19.0 L 20.0 19.0 L 20.5 19.0 Z" stroke="none" fill="rgb(86,178,213)" />
<path d="M 24.5 102.0 L 25.0 102.0 L 26.0 101.66666666666667 L 27.0 101.33333333333333 L 28.0 101.0 L 29.0 101.0 L 30.0 101.0 L 31.0 101.0 L 32.0 101.33333333333333 L 33.0 101.66666666666667 L 34.0 102.0 L 35.0 102.0 L 36.0 102.0 L 37.0 102.0 L 38.0 102.0 L 39.0 102.0 L 40.0 102.0 L 41.0 102.33333333333333 L 42.0 102.66666666666667 L 43.0 103.0 L 44.0 103.0 L 45.0 103.33333333333333 L 46.0 103.66666666666667 L 47.0 104.0 L 48.0 104.0 L 49.0 104.33333333333333 L 50.0 104.66666666666667 L 51.0 105.0 L 52.0 105.0 L 53.0 105.33333333333333 L 54.0 105.66666666666667 L 55.0 106.0 L 56.0 106.33333333333333 L 57.0 106.66666666666667 L 58.0 107.0 L 59.0 107.0 L 60.0 107.33333333333333 L 61.0 107.66666666666667 L 62.0 108.0 L 63.0 108.33333333333333 L 64.0 108.66666666666667 L 65.0 109.0 L 66.0 109.0 L 67.0 109.33333333333333 L 68.0 109.66666666666667 L 69.0 110.0 L 70.0 110.33333333333333 L 71.0 110.66666666666667 L 72.0 111.0 L 73.0 111.0 L 74.0 111.33333333333333 L 75.0 111.66666666666667 L 76.0 112.0 L 77.0 112.0 L 78.0 112.33333333333333 L 79.0 112.66666666666667 L 80.0 113.0 L 81.0 113.0 L 82.0 113.33333333333333 L 83.0 113.66666666666667 L 84.0 114.0 L 85.0 114.0 L 86.0 114.0 L 87.0 114.33333333333333 L 88.0 114.66666666666667 L 89.0 115.0 L 90.0 115.0 L 91.0 115.0 L 92.0 115.0 L 93.0 115.0 L 94.0 115.0 L 95.0 115.0 L 96.0 115.0 L 97.0 115.0 L 98.0 115.0 L 99.0 115.0 L 100.0 115.0 L 101.0 115.0 L 102.0 115.0 L 103.0 115.0 L 104.0 115.0 L 105.0 115.0 L 106.0 115.0 L 107.0 115.0 L 108.0 114.66666666666667 L 109.0 114.33333333333333 L 110.0 114.0 L 111.0 114.0 L 112.0 114.0 L 113.0 113.66666666666667 L 114.0 113.33333333333333 L 115.0 113.0 L 116.0 112.66666666666667 L 117.0 112.33333333333333 L 118.0 111.66666666666667 L 119.0 111.33333333333333 L 120.0 110.66666666666667 L 121.0 110.33333333333333 L 122.0 109.66666666666667 L 123.0 109.33333333333333 L 123.66666666666667 108.66666666666667 L 124.0 108.0 L 124.0 107.0 L 124.0 106.0 L 124.0 105.0 L 124.0 104.0 L 124.0 103.0 L 124.0 102.0 L 124.0 101.0 L 124.0 100.0 L 124.0 99.0 L 124.0 98.0 L 124.0 97.0 L 124.0 96.0 L 124.0 95.0 L 124.0 94.0 L 124.0 93.0 L 123.66666666666667 92.33333333333333 L 123.0 92.0 L 122.0 92.0 L 121.0 92.0 L 120.33333333333333 92.33333333333333 L 120.0 93.0 L 120.0 94.0 L 120.0 95.0 L 120.0 96.0 L 120.0 97.0 L 120.0 98.0 L 120.0 99.0 L 120.0 100.0 L 120.0 101.0 L 120.0 102.0 L 120.0 103.0 L 120.0 104.0 L 119.66666666666667 105.0 L 119.0 106.0 L 118.0 106.66666666666667 L 117.0 107.33333333333333 L 116.0 107.66666666666667 L 115.0 108.0 L 114.0 108.33333333333333 L 113.0 108.66666666666667 L 112.0 109.0 L 111.0 109.33333333333333 L 110.0 109.66666666666667 L 109.0 110.0 L 108.0 110.0 L 107.0 110.0 L 106.0 110.0 L 105.0 110.0 L 104.0 110.0 L 103.0 110.0 L 102.0 110.0 L 101.0 110.0 L 100.0 110.0 L 99.0 110.0 L 98.0 110.0 L 97.0 110.0 L 96.0 110.0 L 95.0 110.0 L 94.0 110.0 L 93.0 110.0 L 92.0 110.0 L 91.0 110.0 L 90.0 109.66666666666667 L 89.0 109.33333333333333 L 88.0 109.0 L 87.0 109.0 L 86.0 109.0 L 85.0 109.0 L 84.0 108.66666666666667 L 83.0 108.33333333333333 L 82.0 108.0 L 81.0 108.0 L 80.0 108.0 L 79.0 107.66666666666667 L 78.0 107.33333333333333 L 77.0 107.0 L 76.0 107.0 L 75.0 106.66666666666667 L 74.0 106.33333333333333 L 73.0 106.0 L 72.0 106.0 L 71.0 105.66666666666667 L 70.0 105.33333333333333 L 69.0 105.0 L 68.0 104.66666666666667 L 67.0 104.33333333333333 L 66.0 104.0 L 65.0 103.66666666666667 L 64.0 103.33333333333333 L 63.0 103.0 L 62.0 103.0 L 61.0 102.66666666666667 L 60.0 102.33333333333333 L 59.0 102.0 L 58.0 101.66666666666667 L 57.0 101.33333333333333 L 56.0 101.0 L 55.0 100.66666666666667 L 54.0 100.33333333333333 L 53.0 100.0 L 52.0 100.0 L 51.0 99.66666666666667 L 50.0 99.33333333333333 L 49.0 99.0 L 48.0 99.0 L 47.0 98.66666666666667 L 46.0 98.33333333333333 L 45.0 98.0 L 44.0 98.0 L 43.0 97.66666666666667 L 42.0 97.33333333333333 L 41.0 97.0 L 40.0 97.0 L 39.0 97.0 L 38.0 97.0 L 37.0 97.0 L 36.0 97.0 L 35.0 97.0 L 34.0 97.0 L 33.0 97.0 L 32.0 97.0 L 31.0 97.0 L 30.0 97.0 L 29.0 97.0 L 28.0 97.0 L 27.0 97.0 L 26.0 97.0 L 25.0 97.0 L 24.0 97.0 L 23.0 97.33333333333333 L 22.0 97.66666666666667 L 21.0 98.0 L 20.0 98.0 L 19.0 98.0 L 18.0 98.0 L 17.0 98.33333333333333 L 16.0 98.66666666666667 L 15.0 99.0 L 14.0 99.33333333333333 L 13.0 99.66666666666667 L 12.0 100.0 L 11.0 100.33333333333333 L 10.0 100.33333333333333 L 9.0 100.0 L 8.333333333333334 99.0 L 8.0 98.0 L 8.0 97.0 L 8.0 96.0 L 8.0 95.0 L 8.0 94.0 L 8.0 93.0 L 8.0 92.0 L 8.0 91.0 L 8.0 90.0 L 7.666666666666667 89.33333333333333 L 7.0 89.0 L 6.0 89.0 L 5.0 89.33333333333333 L 4.333333333333333 90.0 L 4.0 91.0 L 4.0 92.0 L 4.0 93.0 L 4.0 94.0 L 4.0 95.0 L 4.0 96.0 L 4.0 97.0 L 4.0 98.0 L 4.0 99.0 L 4.0 100.0 L 4.0 101.0 L 4.0 102.0 L 4.0 103.0 L 4.0 104.0 L 4.0 105.0 L 4.0 106.0 L 4.0 107.0 L 4.333333333333333 107.66666666666667 L 5.0 108.0 L 6.0 107.66666666666667 L 7.0 107.33333333333333 L 8.0 106.66666666666667 L 9.0 106.33333333333333 L 10.0 105.66666666666667 L 11.0 105.33333333333333 L 12.0 104.66666666666667 L 13.0 104.33333333333333 L 14.0 104.0 L 15.0 103.66666666666667 L 16.0 103.33333333333333 L 17.0 103.0 L 18.0 103.0 L 19.0 102.66666666666667 L 20.0 102.33333333333333 L 21.0 102.0 L 22.0 102.0 L 23.0 102.0 L 23.5 102.0 Z" stroke="none" fill="rgb(86,178,213)" />
<path d="M 84.5 60.5 L 85.0 60.666666666666664 L 86.0 61.0 L 87.0 61.0 L 88.0 61.0 L 89.0 61.0 L 90.0 61.333333333333336 L 91.0 61.666666666666664 L 92.0 62.0 L 93.0 62.0 L 94.0 62.0 L 95.0 62.0 L 96.0 62.0 L 97.0 62.0 L 98.0 62.0 L 99.0 62.0 L 100.0 62.0 L 101.0 62.0 L 102.0 62.0 L 103.0 62.0 L 104.0 62.0 L 105.0 62.0 L 106.0 62.0 L 107.0 62.0 L 108.0 62.0 L 109.0 61.666666666666664 L 110.0 61.333333333333336 L 111.0 61.0 L 112.0 61.0 L 113.0 60.666666666666664 L 114.0 60.333333333333336 L 115.0 60.0 L 116.0 59.666666666666664 L 117.0 59.333333333333336 L 118.0 59.0 L 119.0 59.0 L 119.66666666666667 58.666666666666664 L 120.0 58.0 L 120.0 57.0 L 120.0 56.0 L 120.0 55.0 L 120.0 54.0 L 120.0 53.0 L 120.0 52.0 L 120.0 51.0 L 120.0 50.0 L 120.0 49.0 L 120.0 48.0 L 120.0 47.0 L 120.0 46.0 L 120.0 45.0 L 120.0 44.0 L 120.0 43.0 L 120.0 42.0 L 119.66666666666667 41.333333333333336 L 119.0 41.0 L 118.0 41.333333333333336 L 117.0 41.666666666666664 L 116.0 42.0 L 115.0 42.333333333333336 L 114.0 42.666666666666664 L 113.0 43.0 L 112.0 43.333333333333336 L 111.0 43.666666666666664 L 110.0 44.0 L 109.0 44.0 L 108.0 44.0 L 107.0 44.0 L 106.0 44.0 L 105.0 44.0 L 104.0 44.0 L 103.0 44.0 L 102.0 44.0 L 101.0 44.0 L 100.0 44.0 L 99.0 44.0 L 98.0 44.0 L 97.0 44.0 L 96.0 44.0 L 95.0 44.0 L 94.0 44.0 L 93.0 44.0 L 92.0 44.0 L 91.0 44.0 L 90.0 44.0 L 89.0 44.0 L 88.0 43.666666666666664 L 87.0 43.333333333333336 L 86.0 43.0 L 85.0 43.0 L 84.0 43.0 L 83.0 42.666666666666664 L 82.0 42.333333333333336 L 81.0 42.0 L 80.0 42.0 L 79.0 41.666666666666664 L 78.0 41.333333333333336 L 77.0 41.0 L 76.0 41.0 L 75.0 40.666666666666664 L 74.0 40.333333333333336 L 73.0 40.0 L 72.0 40.0 L 71.0 39.666666666666664 L 70.0 39.333333333333336 L 69.0 39.0 L 68.0 38.666666666666664 L 67.0 38.333333333333336 L 66.0 38.0 L 65.0 38.0 L 64.0 37.666666666666664 L 63.0 37.333333333333336 L 62.0 37.0 L 61.0 36.666666666666664 L 60.0 36.333333333333336 L 59.0 36.0 L 58.0 36.0 L 57.0 35.666666666666664 L 56.0 35.333333333333336 L 55.0 35.0 L 54.0 34.666666666666664 L 53.0 34.333333333333336 L 52.0 34.0 L 51.0 34.0 L 50.0 33.666666666666664 L 49.0 33.333333333333336 L 48.0 33.0 L 47.0 33.0 L 46.0 33.0 L 45.0 32.666666666666664 L 44.0 32.333333333333336 L 43.0 32.0 L 42.0 32.0 L 41.0 32.0 L 40.0 31.666666666666668 L 39.0 31.333333333333332 L 38.0 31.0 L 37.0 31.0 L 36.0 31.0 L 35.0 31.0 L 34.0 31.0 L 33.0 31.0 L 32.0 31.0 L 31.0 31.0 L 30.0 31.0 L 29.0 31.0 L 28.0 31.0 L 27.0 31.333333333333332 L 26.0 31.666666666666668 L 25.0 32.0 L 24.0 32.0 L 23.0 32.0 L 22.0 32.0 L 21.0 32.0 L 20.0 32.0 L 19.0 32.333333333333336 L 18.0 32.666666666666664 L 17.0 33.0 L 16.0 33.0 L 15.0 33.333333333333336 L 14.0 33.666666666666664 L 13.0 34.0 L 12.0 34.333333333333336 L 11.0 34.666666666666664 L 10.0 35.0 L 9.0 35.333333333333336 L 8.333333333333334 36.0 L 8.0 37.0 L 8.0 38.0 L 8.0 39.0 L 8.0 40.0 L 8.0 41.0 L 8.0 42.0 L 8.0 43.0 L 8.0 44.0 L 8.0 45.0 L 8.0 46.0 L 8.0 47.0 L 8.0 48.0 L 8.0 49.0 L 8.0 50.0 L 8.0 51.0 L 8.0 52.0 L 8.333333333333334 52.666666666666664 L 9.0 53.0 L 10.0 53.0 L 11.0 52.666666666666664 L 12.0 52.333333333333336 L 13.0 51.666666666666664 L 14.0 51.333333333333336 L 15.0 51.0 L 16.0 50.666666666666664 L 17.0 50.333333333333336 L 18.0 50.0 L 19.0 50.0 L 20.0 50.0 L 21.0 49.666666666666664 L 22.0 49.333333333333336 L 23.0 49.0 L 24.0 49.0 L 25.0 49.0 L 26.0 49.0 L 27.0 49.0 L 28.0 49.0 L 29.0 49.0 L 30.0 49.0 L 31.0 49.0 L 32.0 49.0 L 33.0 49.0 L 34.0 49.0 L 35.0 49.0 L 36.0 49.0 L 37.0 49.0 L 38.0 49.0 L 39.0 49.0 L 40.0 49.0 L 41.0 49.333333333333336 L 42.0 49.666666666666664 L 43.0 50.0 L 44.0 50.0 L 45.0 50.0 L 46.0 50.333333333333336 L 47.0 50.666666666666664 L 48.0 51.0 L 49.0 51.0 L 50.0 51.333333333333336 L 51.0 51.666666666666664 L 52.0 52.0 L 53.0 52.333333333333336 L 54.0 52.666666666666664 L 55.0 53.0 L 56.0 53.0 L 57.0 53.333333333333336 L 58.0 53.666666666666664 L 59.0 54.0 L 60.0 54.333333333333336 L 61.0 54.666666666666664 L 62.0 55.0 L 63.0 55.0 L 64.0 55.333333333333336 L 65.0 55.666666666666664 L 66.0 56.0 L 67.0 56.333333333333336 L 68.0 56.666666666666664 L 69.0 57.0 L 70.0 57.0 L 71.0 57.333333333333336 L 72.0 57.666666666666664 L 73.0 58.0 L 74.0 58.0 L 75.0 58.333333333333336 L 76.0 58.666666666666664 L 77.0 59.0 L 78.0 59.0 L 79.0 59.333333333333336 L 80.0 59.666666666666664 L 81.0 60.0 L 82.0 60.0 L 83.0 60.0 L 83.5 60.0 Z" stroke="none" fill="rgb(245,169,184)" />
<path d="M 72.5 92.5 L 73.0 92.66666666666667 L 74.0 93.0 L 75.0 93.33333333333333 L 76.0 93.66666666666667 L 77.0 94.0 L 78.0 94.0 L 79.0 94.33333333333333 L 80.0 94.66666666666667 L 81.0 95.0 L 82.0 95.0 L 83.0 95.0 L 84.0 95.33333333333333 L 85.0 95.66666666666667 L 86.0 96.0 L 87.0 96.0 L 88.0 96.0 L 89.0 96.0 L 90.0 96.33333333333333 L 91.0 96.66666666666667 L 92.0 97.0 L 93.0 97.0 L 94.0 97.0 L 95.0 97.0 L 96.0 97.0 L 97.0 97.0 L 98.0 97.0 L 99.0 97.0 L 100.0 97.0 L 101.0 97.0 L 102.0 97.0 L 103.0 97.0 L 104.0 97.0 L 105.0 97.0 L 106.0 97.0 L 107.0 97.0 L 108.0 97.0 L 109.0 97.0 L 110.0 96.66666666666667 L 111.0 96.33333333333333 L 112.0 96.0 L 113.0 95.66666666666667 L 114.0 95.33333333333333 L 115.0 95.0 L 116.0 94.66666666666667 L 117.0 94.33333333333333 L 118.0 94.0 L 119.0 94.0 L 119.66666666666667 93.66666666666667 L 120.0 93.0 L 120.0 92.0 L 120.0 91.0 L 120.0 90.0 L 120.0 89.0 L 120.0 88.0 L 120.0 87.0 L 120.0 86.0 L 120.0 85.0 L 120.0 84.0 L 120.0 83.0 L 120.0 82.0 L 120.0 81.0 L 120.0 80.0 L 120.0 79.0 L 120.0 78.0 L 120.0 77.0 L 119.66666666666667 76.33333333333333 L 119.0 76.0 L 118.0 76.0 L 117.0 76.33333333333333 L 116.0 76.66666666666667 L 115.0 77.33333333333333 L 114.0 77.66666666666667 L 113.0 78.0 L 112.0 78.0 L 111.0 78.33333333333333 L 110.0 78.66666666666667 L 109.0 79.0 L 108.0 79.0 L 107.0 79.0 L 106.0 79.0 L 105.0 79.0 L 104.0 79.0 L 103.0 79.0 L 102.0 79.0 L 101.0 79.0 L 100.0 79.0 L 99.0 79.0 L 98.0 79.0 L 97.0 79.0 L 96.0 79.0 L 95.0 79.0 L 94.0 79.0 L 93.0 79.0 L 92.0 79.0 L 91.0 79.0 L 90.0 79.0 L 89.0 79.0 L 88.0 78.66666666666667 L 87.0 78.33333333333333 L 86.0 78.0 L 85.0 78.0 L 84.0 78.0 L 83.0 77.66666666666667 L 82.0 77.33333333333333 L 81.0 77.0 L 80.0 77.0 L 79.0 76.66666666666667 L 78.0 76.33333333333333 L 77.0 76.0 L 76.0 76.0 L 75.0 75.66666666666667 L 74.0 75.33333333333333 L 73.0 75.0 L 72.0 74.66666666666667 L 71.0 74.33333333333333 L 70.0 74.0 L 69.0 74.0 L 68.0 73.66666666666667 L 67.0 73.33333333333333 L 66.0 73.0 L 65.0 72.66666666666667 L 64.0 72.33333333333333 L 63.0 72.0 L 62.0 72.0 L 61.0 71.66666666666667 L 60.0 71.33333333333333 L 59.0 71.0 L 58.0 70.66666666666667 L 57.0 70.33333333333333 L 56.0 70.0 L 55.0 70.0 L 54.0 69.66666666666667 L 53.0 69.33333333333333 L 52.0 69.0 L 51.0 69.0 L 50.0 68.66666666666667 L 49.0 68.33333333333333 L 48.0 68.0 L 47.0 68.0 L 46.0 67.66666666666667 L 45.0 67.33333333333333 L 44.0 67.0 L 43.0 67.0 L 42.0 67.0 L 41.0 66.66666666666667 L 40.0 66.33333333333333 L 39.0 66.0 L 38.0 66.0 L 37.0 66.0 L 36.0 66.0 L 35.0 66.0 L 34.0 66.0 L 33.0 66.0 L 32.0 66.0 L 31.0 66.0 L 30.0 66.0 L 29.0 66.0 L 28.0 66.0 L 27.0 66.0 L 26.0 66.0 L 25.0 66.0 L 24.0 66.33333333333333 L 23.0 66.66666666666667 L 22.0 67.0 L 21.0 67.0 L 20.0 67.0 L 19.0 67.0 L 18.0 67.33333333333333 L 17.0 67.66666666666667 L 16.0 68.0 L 15.0 68.33333333333333 L 14.0 68.66666666666667 L 13.0 69.0 L 12.0 69.33333333333333 L 11.0 69.66666666666667 L 10.0 70.0 L 9.0 70.0 L 8.333333333333334 70.33333333333333 L 8.0 71.0 L 8.0 72.0 L 8.0 73.0 L 8.0 74.0 L 8.0 75.0 L 8.0 76.0 L 8.0 77.0 L 8.0 78.0 L 8.0 79.0 L 8.0 80.0 L 8.0 81.0 L 8.0 82.0 L 8.0 83.0 L 8.0 84.0 L 8.0 85.0 L 8.0 86.0 L 8.333333333333334 86.66666666666667 L 9.0 87.0 L 10.0 87.0 L 11.0 87.0 L 12.0 87.0 L 13.0 86.66666666666667 L 14.0 86.33333333333333 L 15.0 86.0 L 16.0 85.66666666666667 L 17.0 85.33333333333333 L 18.0 85.0 L 19.0 85.0 L 20.0 84.66666666666667 L 21.0 84.33333333333333 L 22.0 84.0 L 23.0 84.0 L 24.0 84.0 L 25.0 84.0 L 26.0 84.0 L 27.0 84.0 L 28.0 84.0 L 29.0 84.0 L 30.0 84.0 L 31.0 84.0 L 32.0 84.0 L 33.0 84.0 L 34.0 84.0 L 35.0 84.0 L 36.0 84.0 L 37.0 84.0 L 38.0 84.0 L 39.0 84.0 L 40.0 84.0 L 41.0 84.0 L 42.0 84.33333333333333 L 43.0 84.66666666666667 L 44.0 85.0 L 45.0 85.0 L 46.0 85.0 L 47.0 85.33333333333333 L 48.0 85.66666666666667 L 49.0 86.0 L 50.0 86.0 L 51.0 86.33333333333333 L 52.0 86.66666666666667 L 53.0 87.0 L 54.0 87.33333333333333 L 55.0 87.66666666666667 L 56.0 88.0 L 57.0 88.0 L 58.0 88.33333333333333 L 59.0 88.66666666666667 L 60.0 89.0 L 61.0 89.33333333333333 L 62.0 89.66666666666667 L 63.0 90.0 L 64.0 90.0 L 65.0 90.33333333333333 L 66.0 90.66666666666667 L 67.0 91.0 L 68.0 91.33333333333333 L 69.0 91.66666666666667 L 70.0 92.0 L 71.0 92.0 L 71.5 92.0 Z" stroke="none" fill="rgb(245,169,184)" />
<path d="M 59.5 71.5 L 60.0 71.66666666666667 L 61.0 72.0 L 62.0 72.0 L 63.0 72.33333333333333 L 64.0 72.66666666666667 L 65.0 73.0 L 66.0 73.33333333333333 L 67.0 73.66666666666667 L 68.0 74.0 L 69.0 74.0 L 70.0 74.33333333333333 L 71.0 74.66666666666667 L 72.0 75.0 L 73.0 75.33333333333333 L 74.0 75.66666666666667 L 75.0 76.0 L 76.0 76.0 L 77.0 76.33333333333333 L 78.0 76.66666666666667 L 79.0 77.0 L 80.0 77.0 L 81.0 77.33333333333333 L 82.0 77.66666666666667 L 83.0 78.0 L 84.0 78.0 L 85.0 78.0 L 86.0 78.33333333333333 L 87.0 78.66666666666667 L 88.0 79.0 L 89.0 79.0 L 90.0 79.0 L 91.0 79.0 L 92.0 79.0 L 93.0 79.0 L 94.0 79.0 L 95.0 79.0 L 96.0 79.0 L 97.0 79.0 L 98.0 79.0 L 99.0 79.0 L 100.0 79.0 L 101.0 79.0 L 102.0 79.0 L 103.0 79.0 L 104.0 79.0 L 105.0 79.0 L 106.0 79.0 L 107.0 79.0 L 108.0 79.0 L 109.0 79.0 L 110.0 79.0 L 111.0 78.66666666666667 L 112.0 78.33333333333333 L 113.0 78.0 L 114.0 78.0 L 115.0 77.66666666666667 L 116.0 77.33333333333333 L 117.0 76.66666666666667 L 118.0 76.33333333333333 L 119.0 76.0 L 119.66666666666667 75.66666666666667 L 120.0 75.0 L 120.0 74.0 L 120.0 73.0 L 120.0 72.0 L 120.0 71.0 L 120.0 70.0 L 120.0 69.0 L 120.0 68.0 L 120.0 67.0 L 120.0 66.0 L 120.0 65.0 L 120.0 64.0 L 120.0 63.0 L 120.0 62.0 L 120.0 61.0 L 120.0 60.0 L 119.66666666666667 59.333333333333336 L 119.0 59.0 L 118.0 59.0 L 117.0 59.0 L 116.0 59.333333333333336 L 115.0 59.666666666666664 L 114.0 60.0 L 113.0 60.333333333333336 L 112.0 60.666666666666664 L 111.0 61.0 L 110.0 61.0 L 109.0 61.333333333333336 L 108.0 61.666666666666664 L 107.0 62.0 L 106.0 62.0 L 105.0 62.0 L 104.0 62.0 L 103.0 62.0 L 102.0 62.0 L 101.0 62.0 L 100.0 62.0 L 99.0 62.0 L 98.0 62.0 L 97.0 62.0 L 96.0 62.0 L 95.0 62.0 L 94.0 62.0 L 93.0 62.0 L 92.0 61.666666666666664 L 91.0 61.333333333333336 L 90.0 61.0 L 89.0 61.0 L 88.0 61.0 L 87.0 61.0 L 86.0 60.666666666666664 L 85.0 60.333333333333336 L 84.0 60.0 L 83.0 60.0 L 82.0 60.0 L 81.0 59.666666666666664 L 80.0 59.333333333333336 L 79.0 59.0 L 78.0 59.0 L 77.0 58.666666666666664 L 76.0 58.333333333333336 L 75.0 58.0 L 74.0 58.0 L 73.0 57.666666666666664 L 72.0 57.333333333333336 L 71.0 57.0 L 70.0 57.0 L 69.0 56.666666666666664 L 68.0 56.333333333333336 L 67.0 56.0 L 66.0 55.666666666666664 L 65.0 55.333333333333336 L 64.0 55.0 L 63.0 55.0 L 62.0 54.666666666666664 L 61.0 54.333333333333336 L 60.0 54.0 L 59.0 53.666666666666664 L 58.0 53.333333333333336 L 57.0 53.0 L 56.0 53.0 L 55.0 52.666666666666664 L 54.0 52.333333333333336 L 53.0 52.0 L 52.0 51.666666666666664 L 51.0 51.333333333333336 L 50.0 51.0 L 49.0 51.0 L 48.0 50.666666666666664 L 47.0 50.333333333333336 L 46.0 50.0 L 45.0 50.0 L 44.0 50.0 L 43.0 49.666666666666664 L 42.0 49.333333333333336 L 41.0 49.0 L 40.0 49.0 L 39.0 49.0 L 38.0 49.0 L 37.0 49.0 L 36.0 49.0 L 35.0 49.0 L 34.0 49.0 L 33.0 49.0 L 32.0 49.0 L 31.0 49.0 L 30.0 49.0 L 29.0 49.0 L 28.0 49.0 L 27.0 49.0 L 26.0 49.0 L 25.0 49.0 L 24.0 49.0 L 23.0 49.0 L 22.0 49.0 L 21.0 49.333333333333336 L 20.0 49.666666666666664 L 19.0 50.0 L 18.0 50.0 L 17.0 50.0 L 16.0 50.333333333333336 L 15.0 50.666666666666664 L 14.0 51.0 L 13.0 51.333333333333336 L 12.0 51.666666666666664 L 11.0 52.333333333333336 L 10.0 52.666666666666664 L 9.0 53.0 L 8.333333333333334 53.333333333333336 L 8.0 54.0 L 8.0 55.0 L 8.0 56.0 L 8.0 57.0 L 8.0 58.0 L 8.0 59.0 L 8.0 60.0 L 8.0 61.0 L 8.0 62.0 L 8.0 63.0 L 8.0 64.0 L 8.0 65.0 L 8.0 66.0 L 8.0 67.0 L 8.0 68.0 L 8.0 69.0 L 8.333333333333334 69.66666666666667 L 9.0 70.0 L 10.0 70.0 L 11.0 70.0 L 12.0 69.66666666666667 L 13.0 69.33333333333333 L 14.0 69.0 L 15.0 68.66666666666667 L 16.0 68.33333333333333 L 17.0 68.0 L 18.0 67.66666666666667 L 19.0 67.33333333333333 L 20.0 67.0 L 21.0 67.0 L 22.0 67.0 L 23.0 67.0 L 24.0 66.66666666666667 L 25.0 66.33333333333333 L 26.0 66.0 L 27.0 66.0 L 28.0 66.0 L 29.0 66.0 L 30.0 66.0 L 31.0 66.0 L 32.0 66.0 L 33.0 66.0 L 34.0 66.0 L 35.0 66.0 L 36.0 66.0 L 37.0 66.0 L 38.0 66.0 L 39.0 66.33333333333333 L 40.0 66.66666666666667 L 41.0 67.0 L 42.0 67.0 L 43.0 67.0 L 44.0 67.33333333333333 L 45.0 67.66666666666667 L 46.0 68.0 L 47.0 68.0 L 48.0 68.33333333333333 L 49.0 68.66666666666667 L 50.0 69.0 L 51.0 69.0 L 52.0 69.33333333333333 L 53.0 69.66666666666667 L 54.0 70.0 L 55.0 70.0 L 56.0 70.33333333333333 L 57.0 70.66666666666667 L 58.0 71.0 L 58.5 71.0 Z" stroke="none" fill="rgb(255,255,255)" />
<path d="M 95.5 110.0 L 96.0 110.0 L 97.0 110.0 L 98.0 110.0 L 99.0 110.0 L 100.0 110.0 L 101.0 110.0 L 102.0 110.0 L 103.0 110.0 L 104.0 110.0 L 105.0 110.0 L 106.0 110.0 L 107.0 110.0 L 108.0 110.0 L 109.0 110.0 L 110.0 110.0 L 111.0 109.66666666666667 L 112.0 109.33333333333333 L 113.0 109.0 L 114.0 108.66666666666667 L 115.0 108.33333333333333 L 116.0 108.0 L 117.0 107.66666666666667 L 118.0 107.33333333333333 L 119.0 106.66666666666667 L 119.66666666666667 106.0 L 120.0 105.0 L 120.0 104.0 L 120.0 103.0 L 120.0 102.0 L 120.0 101.0 L 120.0 100.0 L 120.0 99.0 L 120.0 98.0 L 120.0 97.0 L 120.0 96.0 L 120.0 95.0 L 119.66666666666667 94.33333333333333 L 119.0 94.0 L 118.0 94.0 L 117.0 94.0 L 116.0 94.33333333333333 L 115.0 94.66666666666667 L 114.0 95.0 L 113.0 95.33333333333333 L 112.0 95.66666666666667 L 111.0 96.0 L 110.0 96.33333333333333 L 109.0 96.66666666666667 L 108.0 97.0 L 107.0 97.0 L 106.0 97.0 L 105.0 97.0 L 104.0 97.0 L 103.0 97.0 L 102.0 97.0 L 101.0 97.0 L 100.0 97.0 L 99.0 97.0 L 98.0 97.0 L 97.0 97.0 L 96.0 97.0 L 95.0 97.0 L 94.0 97.0 L 93.0 97.0 L 92.0 96.66666666666667 L 91.0 96.33333333333333 L 90.0 96.0 L 89.0 96.0 L 88.0 96.0 L 87.0 96.0 L 86.0 95.66666666666667 L 85.0 95.33333333333333 L 84.0 95.0 L 83.0 95.0 L 82.0 95.0 L 81.0 94.66666666666667 L 80.0 94.33333333333333 L 79.0 94.0 L 78.0 94.0 L 77.0 93.66666666666667 L 76.0 93.33333333333333 L 75.0 93.0 L 74.0 92.66666666666667 L 73.0 92.33333333333333 L 72.0 92.0 L 71.0 92.0 L 70.0 91.66666666666667 L 69.0 91.33333333333333 L 68.0 91.0 L 67.0 90.66666666666667 L 66.0 90.33333333333333 L 65.0 90.0 L 64.0 90.0 L 63.0 89.66666666666667 L 62.0 89.33333333333333 L 61.0 89.0 L 60.0 88.66666666666667 L 59.0 88.33333333333333 L 58.0 88.0 L 57.0 88.0 L 56.0 87.66666666666667 L 55.0 87.33333333333333 L 54.0 87.0 L 53.0 86.66666666666667 L 52.0 86.33333333333333 L 51.0 86.0 L 50.0 86.0 L 49.0 85.66666666666667 L 48.0 85.33333333333333 L 47.0 85.0 L 46.0 85.0 L 45.0 85.0 L 44.0 84.66666666666667 L 43.0 84.33333333333333 L 42.0 84.0 L 41.0 84.0 L 40.0 84.0 L 39.0 84.0 L 38.0 84.0 L 37.0 84.0 L 36.0 84.0 L 35.0 84.0 L 34.0 84.0 L 33.0 84.0 L 32.0 84.0 L 31.0 84.0 L 30.0 84.0 L 29.0 84.0 L 28.0 84.0 L 27.0 84.0 L 26.0 84.0 L 25.0 84.0 L 24.0 84.0 L 23.0 84.0 L 22.0 84.0 L 21.0 84.0 L 20.0 84.33333333333333 L 19.0 84.66666666666667 L 18.0 85.0 L 17.0 85.0 L 16.0 85.33333333333333 L 15.0 85.66666666666667 L 14.0 86.0 L 13.0 86.33333333333333 L 12.0 86.66666666666667 L 11.0 87.0 L 10.0 87.0 L 9.0 87.33333333333333 L 8.333333333333334 88.0 L 8.0 89.0 L 8.0 90.0 L 8.0 91.0 L 8.0 92.0 L 8.0 93.0 L 8.0 94.0 L 8.0 95.0 L 8.0 96.0 L 8.0 97.0 L 8.0 98.0 L 8.0 99.0 L 8.333333333333334 100.0 L 9.0 100.66666666666667 L 10.0 101.0 L 11.0 100.66666666666667 L 12.0 100.33333333333333 L 13.0 100.0 L 14.0 99.66666666666667 L 15.0 99.33333333333333 L 16.0 99.0 L 17.0 98.66666666666667 L 18.0 98.33333333333333 L 19.0 98.0 L 20.0 98.0 L 21.0 98.0 L 22.0 98.0 L 23.0 97.66666666666667 L 24.0 97.33333333333333 L 25.0 97.0 L 26.0 97.0 L 27.0 97.0 L 28.0 97.0 L 29.0 97.0 L 30.0 97.0 L 31.0 97.0 L 32.0 97.0 L 33.0 97.0 L 34.0 97.0 L 35.0 97.0 L 36.0 97.0 L 37.0 97.0 L 38.0 97.0 L 39.0 97.0 L 40.0 97.0 L 41.0 97.33333333333333 L 42.0 97.66666666666667 L 43.0 98.0 L 44.0 98.0 L 45.0 98.33333333333333 L 46.0 98.66666666666667 L 47.0 99.0 L 48.0 99.0 L 49.0 99.33333333333333 L 50.0 99.66666666666667 L 51.0 100.0 L 52.0 100.0 L 53.0 100.33333333333333 L 54.0 100.66666666666667 L 55.0 101.0 L 56.0 101.33333333333333 L 57.0 101.66666666666667 L 58.0 102.0 L 59.0 102.33333333333333 L 60.0 102.66666666666667 L 61.0 103.0 L 62.0 103.0 L 63.0 103.33333333333333 L 64.0 103.66666666666667 L 65.0 104.0 L 66.0 104.33333333333333 L 67.0 104.66666666666667 L 68.0 105.0 L 69.0 105.33333333333333 L 70.0 105.66666666666667 L 71.0 106.0 L 72.0 106.0 L 73.0 106.33333333333333 L 74.0 106.66666666666667 L 75.0 107.0 L 76.0 107.0 L 77.0 107.33333333333333 L 78.0 107.66666666666667 L 79.0 108.0 L 80.0 108.0 L 81.0 108.0 L 82.0 108.33333333333333 L 83.0 108.66666666666667 L 84.0 109.0 L 85.0 109.0 L 86.0 109.0 L 87.0 109.0 L 88.0 109.33333333333333 L 89.0 109.66666666666667 L 90.0 110.0 L 91.0 110.0 L 92.0 110.0 L 93.0 110.0 L 94.0 110.0 L 94.5 110.0 Z" stroke="none" fill="rgb(91,206,250)" />
<path d="M 21.5 32.0 L 22.0 32.0 L 23.0 32.0 L 24.0 32.0 L 25.0 32.0 L 26.0 32.0 L 27.0 31.666666666666668 L 28.0 31.333333333333332 L 29.0 31.0 L 30.0 31.0 L 31.0 31.0 L 32.0 31.0 L 33.0 31.0 L 34.0 31.0 L 35.0 31.0 L 36.0 31.0 L 37.0 31.0 L 38.0 31.333333333333332 L 39.0 31.666666666666668 L 40.0 32.0 L 41.0 32.0 L 42.0 32.0 L 43.0 32.333333333333336 L 44.0 32.666666666666664 L 45.0 33.0 L 46.0 33.0 L 47.0 33.0 L 48.0 33.333333333333336 L 49.0 33.666666666666664 L 50.0 34.0 L 51.0 34.0 L 52.0 34.333333333333336 L 53.0 34.666666666666664 L 54.0 35.0 L 55.0 35.333333333333336 L 56.0 35.666666666666664 L 57.0 36.0 L 58.0 36.0 L 59.0 36.333333333333336 L 60.0 36.666666666666664 L 61.0 37.0 L 62.0 37.333333333333336 L 63.0 37.666666666666664 L 64.0 38.0 L 65.0 38.0 L 66.0 38.333333333333336 L 67.0 38.666666666666664 L 68.0 39.0 L 69.0 39.333333333333336 L 70.0 39.666666666666664 L 71.0 40.0 L 72.0 40.0 L 73.0 40.333333333333336 L 74.0 40.666666666666664 L 75.0 41.0 L 76.0 41.0 L 77.0 41.333333333333336 L 78.0 41.666666666666664 L 79.0 42.0 L 80.0 42.0 L 81.0 42.333333333333336 L 82.0 42.666666666666664 L 83.0 43.0 L 84.0 43.0 L 85.0 43.0 L 86.0 43.333333333333336 L 87.0 43.666666666666664 L 88.0 44.0 L 89.0 44.0 L 90.0 44.0 L 91.0 44.0 L 92.0 44.0 L 93.0 44.0 L 94.0 44.0 L 95.0 44.0 L 96.0 44.0 L 97.0 44.0 L 98.0 44.0 L 99.0 44.0 L 100.0 44.0 L 101.0 44.0 L 102.0 44.0 L 103.0 44.0 L 104.0 44.0 L 105.0 44.0 L 106.0 44.0 L 107.0 44.0 L 108.0 44.0 L 109.0 44.0 L 110.0 44.0 L 111.0 44.0 L 112.0 43.666666666666664 L 113.0 43.333333333333336 L 114.0 43.0 L 115.0 42.666666666666664 L 116.0 42.333333333333336 L 117.0 42.0 L 118.0 41.666666666666664 L 119.0 41.333333333333336 L 120.0 40.666666666666664 L 120.66666666666667 40.0 L 120.66666666666667 39.0 L 120.33333333333333 38.0 L 120.0 37.0 L 120.0 36.0 L 120.0 35.0 L 120.0 34.0 L 120.0 33.0 L 120.0 32.0 L 120.0 31.0 L 120.0 30.0 L 120.0 29.0 L 119.66666666666667 28.333333333333332 L 119.0 28.0 L 118.0 28.0 L 117.0 28.333333333333332 L 116.0 28.666666666666668 L 115.0 29.0 L 114.0 29.333333333333332 L 113.0 29.666666666666668 L 112.0 30.0 L 111.0 30.333333333333332 L 110.0 30.666666666666668 L 109.0 31.0 L 108.0 31.0 L 107.0 31.0 L 106.0 31.0 L 105.0 31.0 L 104.0 31.0 L 103.0 31.0 L 102.0 31.0 L 101.0 31.0 L 100.0 31.0 L 99.0 31.0 L 98.0 31.0 L 97.0 31.0 L 96.0 31.0 L 95.0 31.0 L 94.0 31.0 L 93.0 31.0 L 92.0 31.0 L 91.0 31.0 L 90.0 31.0 L 89.0 30.666666666666668 L 88.0 30.333333333333332 L 87.0 30.0 L 86.0 30.0 L 85.0 30.0 L 84.0 29.666666666666668 L 83.0 29.333333333333332 L 82.0 29.0 L 81.0 29.0 L 80.0 29.0 L 79.0 28.666666666666668 L 78.0 28.333333333333332 L 77.0 28.0 L 76.0 28.0 L 75.0 27.666666666666668 L 74.0 27.333333333333332 L 73.0 27.0 L 72.0 26.666666666666668 L 71.0 26.333333333333332 L 70.0 26.0 L 69.0 25.666666666666668 L 68.0 25.333333333333332 L 67.0 25.0 L 66.0 25.0 L 65.0 24.666666666666668 L 64.0 24.333333333333332 L 63.0 24.0 L 62.0 23.666666666666668 L 61.0 23.333333333333332 L 60.0 23.0 L 59.0 22.666666666666668 L 58.0 22.333333333333332 L 57.0 22.0 L 56.0 22.0 L 55.0 21.666666666666668 L 54.0 21.333333333333332 L 53.0 21.0 L 52.0 21.0 L 51.0 20.666666666666668 L 50.0 20.333333333333332 L 49.0 20.0 L 48.0 20.0 L 47.0 19.666666666666668 L 46.0 19.333333333333332 L 45.0 19.0 L 44.0 19.0 L 43.0 18.666666666666668 L 42.0 18.333333333333332 L 41.0 18.0 L 40.0 18.0 L 39.0 18.0 L 38.0 18.0 L 37.0 18.0 L 36.0 18.0 L 35.0 18.0 L 34.0 18.0 L 33.0 18.0 L 32.0 18.0 L 31.0 18.0 L 30.0 18.0 L 29.0 18.0 L 28.0 18.0 L 27.0 18.0 L 26.0 18.0 L 25.0 18.0 L 24.0 18.0 L 23.0 18.0 L 22.0 18.333333333333332 L 21.0 18.666666666666668 L 20.0 19.0 L 19.0 19.0 L 18.0 19.0 L 17.0 19.333333333333332 L 16.0 19.666666666666668 L 15.0 20.0 L 14.0 20.333333333333332 L 13.0 20.666666666666668 L 12.0 21.0 L 11.0 21.333333333333332 L 10.0 21.666666666666668 L 9.0 22.333333333333332 L 8.333333333333334 23.0 L 8.0 24.0 L 8.0 25.0 L 8.0 26.0 L 8.0 27.0 L 8.0 28.0 L 8.0 29.0 L 8.0 30.0 L 8.0 31.0 L 8.0 32.0 L 8.0 33.0 L 8.0 34.0 L 8.333333333333334 34.666666666666664 L 9.0 35.0 L 10.0 35.0 L 11.0 35.0 L 12.0 34.666666666666664 L 13.0 34.333333333333336 L 14.0 34.0 L 15.0 33.666666666666664 L 16.0 33.333333333333336 L 17.0 33.0 L 18.0 33.0 L 19.0 32.666666666666664 L 20.0 32.333333333333336 L 20.5 32.0 Z" stroke="none" fill="rgb(91,206,250)" />
<path d="M 124.0 91.5 L 124.0 91.0 L 124.0 90.0 L 124.0 89.0 L 124.0 88.0 L 124.0 87.0 L 124.0 86.0 L 124.0 85.0 L 124.0 84.0 L 124.0 83.0 L 124.0 82.0 L 124.0 81.0 L 124.0 80.0 L 124.0 79.0 L 124.0 78.0 L 124.0 77.0 L 124.0 76.0 L 124.0 75.0 L 123.66666666666667 74.33333333333333 L 123.0 74.0 L 122.0 74.0 L 121.0 74.0 L 120.33333333333333 74.33333333333333 L 120.0 75.0 L 120.0 76.0 L 120.0 77.0 L 120.0 78.0 L 120.0 79.0 L 120.0 80.0 L 120.0 81.0 L 120.0 82.0 L 120.0 83.0 L 120.0 84.0 L 120.0 85.0 L 120.0 86.0 L 120.0 87.0 L 120.0 88.0 L 120.0 89.0 L 120.0 90.0 L 120.0 91.0 L 120.33333333333333 91.66666666666667 L 121.0 92.0 L 122.0 92.0 L 123.0 92.0 L 123.5 92.0 Z" stroke="none" fill="rgb(209,148,160)" />
<path d="M 8.0 71.5 L 8.0 71.0 L 8.0 70.0 L 8.0 69.0 L 8.0 68.0 L 8.0 67.0 L 8.0 66.0 L 8.0 65.0 L 8.0 64.0 L 8.0 63.0 L 8.0 62.0 L 8.0 61.0 L 8.0 60.0 L 8.0 59.0 L 8.0 58.0 L 8.0 57.0 L 8.0 56.0 L 8.0 55.0 L 7.666666666666667 54.333333333333336 L 7.0 54.0 L 6.0 54.0 L 5.0 54.333333333333336 L 4.333333333333333 55.0 L 4.0 56.0 L 4.0 57.0 L 4.0 58.0 L 4.0 59.0 L 4.0 60.0 L 4.0 61.0 L 4.0 62.0 L 4.0 63.0 L 4.0 64.0 L 4.0 65.0 L 4.0 66.0 L 4.0 67.0 L 4.0 68.0 L 4.0 69.0 L 4.0 70.0 L 4.0 71.0 L 4.333333333333333 71.66666666666667 L 5.0 72.0 L 6.0 72.0 L 7.0 72.0 L 7.5 72.0 Z" stroke="none" fill="rgb(217,217,217)" />
<path d="M 123.5 74.0 L 123.66666666666667 73.66666666666667 L 124.0 73.0 L 124.0 72.0 L 124.0 71.0 L 124.0 70.0 L 124.0 69.0 L 124.0 68.0 L 124.0 67.0 L 124.0 66.0 L 124.0 65.0 L 124.0 64.0 L 124.0 63.0 L 124.0 62.0 L 124.0 61.0 L 124.0 60.0 L 124.0 59.0 L 124.0 58.0 L 124.0 57.0 L 123.66666666666667 56.333333333333336 L 123.0 56.0 L 122.0 56.333333333333336 L 121.0 56.666666666666664 L 120.33333333333333 57.333333333333336 L 120.0 58.0 L 120.0 59.0 L 120.0 60.0 L 120.0 61.0 L 120.0 62.0 L 120.0 63.0 L 120.0 64.0 L 120.0 65.0 L 120.0 66.0 L 120.0 67.0 L 120.0 68.0 L 120.0 69.0 L 120.0 70.0 L 120.0 71.0 L 120.0 72.0 L 120.0 73.0 L 120.33333333333333 73.66666666666667 L 121.0 74.0 L 122.0 74.0 L 122.5 74.0 Z" stroke="none" fill="rgb(217,217,217)" />
<path d="M 121.5 57.0 L 122.0 56.666666666666664 L 123.0 56.333333333333336 L 123.66666666666667 55.666666666666664 L 124.0 55.0 L 124.0 54.0 L 124.0 53.0 L 124.0 52.0 L 124.0 51.0 L 124.0 50.0 L 124.0 49.0 L 124.0 48.0 L 124.0 47.0 L 124.0 46.0 L 124.0 45.0 L 124.0 44.0 L 124.0 43.0 L 124.0 42.0 L 124.0 41.0 L 124.0 40.0 L 123.66666666666667 39.333333333333336 L 123.0 39.0 L 122.0 39.0 L 121.0 39.333333333333336 L 120.33333333333333 40.0 L 120.0 41.0 L 120.0 42.0 L 120.0 43.0 L 120.0 44.0 L 120.0 45.0 L 120.0 46.0 L 120.0 47.0 L 120.0 48.0 L 120.0 49.0 L 120.0 50.0 L 120.0 51.0 L 120.0 52.0 L 120.0 53.0 L 120.0 54.0 L 120.0 55.0 L 120.0 56.0 L 120.33333333333333 56.666666666666664 L 120.5 57.0 Z" stroke="none" fill="rgb(209,148,160)" />
<path d="M 7.5 89.0 L 8.0 88.66666666666667 L 8.666666666666666 88.0 L 8.666666666666666 87.0 L 8.333333333333334 86.0 L 8.0 85.0 L 8.0 84.0 L 8.0 83.0 L 8.0 82.0 L 8.0 81.0 L 8.0 80.0 L 8.0 79.0 L 8.0 78.0 L 8.0 77.0 L 8.0 76.0 L 8.0 75.0 L 8.0 74.0 L 8.0 73.0 L 7.666666666666667 72.33333333333333 L 7.0 72.0 L 6.0 72.0 L 5.0 72.33333333333333 L 4.333333333333333 73.0 L 4.0 74.0 L 4.0 75.0 L 4.0 76.0 L 4.0 77.0 L 4.0 78.0 L 4.0 79.0 L 4.0 80.0 L 4.0 81.0 L 4.0 82.0 L 4.0 83.0 L 4.0 84.0 L 4.0 85.0 L 4.0 86.0 L 4.0 87.0 L 4.0 88.0 L 4.333333333333333 88.66666666666667 L 5.0 89.0 L 6.0 89.0 L 6.5 89.0 Z" stroke="none" fill="rgb(209,148,160)" />
<path d="M 5.5 54.0 L 6.0 54.0 L 7.0 54.0 L 7.666666666666667 53.666666666666664 L 8.0 53.0 L 8.0 52.0 L 8.0 51.0 L 8.0 50.0 L 8.0 49.0 L 8.0 48.0 L 8.0 47.0 L 8.0 46.0 L 8.0 45.0 L 8.0 44.0 L 8.0 43.0 L 8.0 42.0 L 8.0 41.0 L 8.0 40.0 L 8.0 39.0 L 8.0 38.0 L 7.666666666666667 37.333333333333336 L 7.0 37.0 L 6.0 37.0 L 5.0 37.333333333333336 L 4.333333333333333 38.0 L 4.0 39.0 L 4.0 40.0 L 4.0 41.0 L 4.0 42.0 L 4.0 43.0 L 4.0 44.0 L 4.0 45.0 L 4.0 46.0 L 4.0 47.0 L 4.0 48.0 L 4.0 49.0 L 4.0 50.0 L 4.0 51.0 L 4.0 52.0 L 4.0 53.0 L 4.333333333333333 53.666666666666664 L 4.5 54.0 Z" stroke="none" fill="rgb(209,148,160)" />
<path d="M 105.5 27.0 L 106.0 27.0 L 107.0 27.0 L 108.0 27.0 L 109.0 27.0 L 109.66666666666667 26.666666666666668 L 109.66666666666667 26.333333333333332 L 109.0 26.0 L 108.0 26.0 L 107.0 26.0 L 106.0 26.0 L 105.33333333333333 26.333333333333332 L 105.0 26.5 Z" stroke="none" fill="rgb(0,0,0)" />
<path d="M 21.5 15.0 L 21.666666666666668 14.666666666666666 L 21.666666666666668 14.333333333333334 L 21.0 14.0 L 20.0 14.0 L 19.0 14.0 L 18.333333333333332 14.333333333333334 L 18.333333333333332 14.666666666666666 L 19.0 15.0 L 20.0 15.0 L 20.5 15.0 Z" stroke="none" fill="rgb(0,0,0)" />
<path d="M 111.5 26.0 L 112.0 26.0 L 112.66666666666667 25.666666666666668 L 112.66666666666667 25.333333333333332 L 112.0 25.0 L 111.0 25.0 L 110.33333333333333 25.333333333333332 L 110.33333333333333 25.666666666666668 L 110.5 26.0 Z" stroke="none" fill="rgb(0,0,0)" />
<path d="M 27.5 14.0 L 27.666666666666668 13.666666666666666 L 27.666666666666668 13.333333333333334 L 27.0 13.0 L 26.333333333333332 13.333333333333334 L 26.333333333333332 13.666666666666666 L 26.5 14.0 Z" stroke="none" fill="rgb(0,0,0)" />
<path d="M 10.5 18.0 L 10.666666666666666 17.666666666666668 L 10.666666666666666 17.333333333333332 L 10.0 17.0 L 9.333333333333334 17.333333333333332 L 9.333333333333334 17.666666666666668 L 9.5 18.0 Z" stroke="none" fill="rgb(0,0,0)" />
<path d="M 124.0 20.5 L 123.66666666666667 20.333333333333332 L 123.0 20.0 L 122.33333333333333 20.333333333333332 L 122.33333333333333 20.666666666666668 L 123.0 21.0 L 123.5 21.0 Z" stroke="none" fill="rgb(0,0,0)" />
<path d="M 121.0 22.5 L 120.66666666666667 22.333333333333332 L 120.0 22.0 L 119.33333333333333 22.333333333333332 L 119.33333333333333 22.666666666666668 L 120.0 23.0 L 120.5 23.0 Z" stroke="none" fill="rgb(0,0,0)" />
<path d="M 4.5 73.0 L 4.666666666666667 72.66666666666667 L 4.666666666666667 72.33333333333333 L 4.0 72.0 L 3.3333333333333335 72.33333333333333 L 3.3333333333333335 72.66666666666667 L 3.5 73.0 Z" stroke="none" fill="rgb(0,0,0)" />
<path d="M 32.5 14.0 L 32.666666666666664 13.666666666666666 L 32.666666666666664 13.333333333333334 L 32.333333333333336 13.333333333333334 L 32.0 13.5 Z" stroke="none" fill="rgb(0,0,0)" />
<path d="M 14.5 16.0 L 14.666666666666666 15.666666666666666 L 14.666666666666666 15.333333333333334 L 14.333333333333334 15.333333333333334 L 14.0 15.5 Z" stroke="none" fill="rgb(0,0,0)" />
<path d="M 11.5 17.0 L 11.666666666666666 16.666666666666668 L 11.666666666666666 16.333333333333332 L 11.333333333333334 16.333333333333332 L 11.0 16.5 Z" stroke="none" fill="rgb(0,0,0)" />
<path d="M 5.5 20.0 L 5.666666666666667 19.666666666666668 L 5.666666666666667 19.333333333333332 L 5.333333333333333 19.333333333333332 L 5.0 19.5 Z" stroke="none" fill="rgb(0,0,0)" />
<path d="M 121.5 22.0 L 121.66666666666667 21.666666666666668 L 121.66666666666667 21.333333333333332 L 121.33333333333333 21.333333333333332 L 121.0 21.5 Z" stroke="none" fill="rgb(0,0,0)" />
<path d="M 75.5 24.0 L 75.66666666666667 23.666666666666668 L 75.66666666666667 23.333333333333332 L 75.33333333333333 23.333333333333332 L 75.0 23.5 Z" stroke="none" fill="rgb(0,0,0)" />
<path d="M 115.0 24.5 L 114.66666666666667 24.333333333333332 L 114.33333333333333 24.333333333333332 L 114.33333333333333 24.666666666666668 L 114.5 25.0 Z" stroke="none" fill="rgb(0,0,0)" />
<path d="M 92.0 26.5 L 91.66666666666667 26.333333333333332 L 91.33333333333333 26.333333333333332 L 91.33333333333333 26.666666666666668 L 91.5 27.0 Z" stroke="none" fill="rgb(0,0,0)" />
<path d="M 4.5 38.0 L 4.666666666666667 37.666666666666664 L 4.666666666666667 37.333333333333336 L 4.333333333333333 37.333333333333336 L 4.0 37.5 Z" stroke="none" fill="rgb(0,0,0)" />
<path d="M 4.5 55.0 L 4.666666666666667 54.666666666666664 L 4.666666666666667 54.333333333333336 L 4.333333333333333 54.333333333333336 L 4.0 54.5 Z" stroke="none" fill="rgb(0,0,0)" />
<path d="M 4.5 90.0 L 4.666666666666667 89.66666666666667 L 4.666666666666667 89.33333333333333 L 4.333333333333333 89.33333333333333 L 4.0 89.5 Z" stroke="none" fill="rgb(0,0,0)" />
<path d="M 41.5 103.0 L 41.666666666666664 102.66666666666667 L 41.666666666666664 102.33333333333333 L 41.333333333333336 102.33333333333333 L 41.0 102.5 Z" stroke="none" fill="rgb(0,0,0)" />
<path d="M 79.0 112.5 L 78.66666666666667 112.33333333333333 L 78.33333333333333 112.33333333333333 L 78.33333333333333 112.66666666666667 L 78.5 113.0 Z" stroke="none" fill="rgb(0,0,0)" />
</svg>
