<?xml version="1.0" encoding="UTF-8" standalone="no"?>
<!DOCTYPE svg PUBLIC "-//W3C//DTD SVG 1.1//EN"
"http://www.w3.org/Graphics/SVG/1.1/DTD/svg11.dtd">
<svg width="128" height="128" xmlns="http://www.w3.org/2000/svg" version="1.1">
<path d="M 26.5 128.0 L 27.0 128.0 L 28.0 128.0 L 29.0 128.0 L 30.0 128.0 L 31.0 128.0 L 32.0 128.0 L 33.0 128.0 L 34.0 128.0 L 35.0 128.0 L 36.0 128.0 L 37.0 128.0 L 38.0 128.0 L 39.0 128.0 L 40.0 128.0 L 41.0 128.0 L 42.0 128.0 L 43.0 128.0 L 44.0 128.0 L 45.0 128.0 L 46.0 128.0 L 47.0 128.0 L 48.0 128.0 L 49.0 128.0 L 50.0 128.0 L 51.0 128.0 L 52.0 128.0 L 53.0 128.0 L 54.0 128.0 L 55.0 128.0 L 56.0 128.0 L 57.0 128.0 L 58.0 128.0 L 59.0 128.0 L 60.0 128.0 L 61.0 128.0 L 62.0 128.0 L 63.0 128.0 L 64.0 128.0 L 65.0 128.0 L 66.0 128.0 L 67.0 128.0 L 68.0 128.0 L 69.0 128.0 L 70.0 128.0 L 71.0 128.0 L 72.0 128.0 L 73.0 128.0 L 74.0 128.0 L 75.0 128.0 L 76.0 128.0 L 77.0 128.0 L 78.0 128.0 L 79.0 128.0 L 80.0 128.0 L 81.0 128.0 L 82.0 128.0 L 83.0 128.0 L 84.0 128.0 L 85.0 128.0 L 86.0 128.0 L 87.0 128.0 L 88.0 128.0 L 89.0 128.0 L 90.0 128.0 L 91.0 128.0 L 92.0 128.0 L 93.0 128.0 L 94.0 128.0 L 95.0 128.0 L 96.0 128.0 L 97.0 128.0 L 98.0 128.0 L 99.0 128.0 L 100.0 128.0 L 101.0 128.0 L 102.0 128.0 L 103.0 128.0 L 104.0 128.0 L 105.0 128.0 L 106.0 128.0 L 107.0 128.0 L 108.0 128.0 L 109.0 128.0 L 110.0 128.0 L 111.0 128.0 L 112.0 128.0 L 113.0 128.0 L 114.0 128.0 L 115.0 128.0 L 116.0 128.0 L 117.0 128.0 L 118.0 128.0 L 119.0 128.0 L 120.0 128.0 L 121.0 128.0 L 122.0 128.0 L 123.0 128.0 L 124.0 128.0 L 125.0 128.0 L 126.0 128.0 L 127.0 128.0 L 127.66666666666667 127.66666666666667 L 128.0 127.0 L 128.0 126.0 L 128.0 125.0 L 128.0 124.0 L 128.0 123.0 L 128.0 122.0 L 128.0 121.0 L 128.0 120.0 L 128.0 119.0 L 128.0 118.0 L 128.0 117.0 L 128.0 116.0 L 128.0 115.0 L 128.0 114.0 L 128.0 113.0 L 128.0 112.0 L 128.0 111.0 L 128.0 110.0 L 128.0 109.0 L 128.0 108.0 L 128.0 107.0 L 128.0 106.0 L 128.0 105.0 L 128.0 104.0 L 128.0 103.0 L 128.0 102.0 L 128.0 101.0 L 128.0 100.0 L 128.0 99.0 L 128.0 98.0 L 128.0 97.0 L 128.0 96.0 L 128.0 95.0 L 128.0 94.0 L 128.0 93.0 L 128.0 92.0 L 128.0 91.0 L 128.0 90.0 L 128.0 89.0 L 128.0 88.0 L 128.0 87.0 L 128.0 86.0 L 128.0 85.0 L 128.0 84.0 L 128.0 83.0 L 128.0 82.0 L 128.0 81.0 L 128.0 80.0 L 128.0 79.0 L 128.0 78.0 L 128.0 77.0 L 128.0 76.0 L 128.0 75.0 L 128.0 74.0 L 128.0 73.0 L 128.0 72.0 L 128.0 71.0 L 128.0 70.0 L 128.0 69.0 L 128.0 68.0 L 128.0 67.0 L 128.0 66.0 L 128.0 65.0 L 128.0 64.0 L 128.0 63.0 L 128.0 62.0 L 128.0 61.0 L 128.0 60.0 L 128.0 59.0 L 128.0 58.0 L 128.0 57.0 L 128.0 56.0 L 128.0 55.0 L 128.0 54.0 L 128.0 53.0 L 128.0 52.0 L 128.0 51.0 L 128.0 50.0 L 128.0 49.0 L 128.0 48.0 L 128.0 47.0 L 128.0 46.0 L 128.0 45.0 L 128.0 44.0 L 128.0 43.0 L 128.0 42.0 L 128.0 41.0 L 128.0 40.0 L 128.0 39.0 L 128.0 38.0 L 128.0 37.0 L 128.0 36.0 L 128.0 35.0 L 128.0 34.0 L 128.0 33.0 L 128.0 32.0 L 128.0 31.0 L 128.0 30.0 L 128.0 29.0 L 128.0 28.0 L 128.0 27.0 L 128.0 26.0 L 128.0 25.0 L 128.0 24.0 L 128.0 23.0 L 128.0 22.0 L 128.0 21.0 L 128.0 20.0 L 128.0 19.0 L 128.0 18.0 L 128.0 17.0 L 128.0 16.0 L 128.0 15.0 L 128.0 14.0 L 128.0 13.0 L 128.0 12.0 L 128.0 11.0 L 128.0 10.0 L 128.0 9.0 L 128.0 8.0 L 128.0 7.0 L 128.0 6.0 L 128.0 5.0 L 128.0 4.0 L 128.0 3.0 L 128.0 2.0 L 128.0 1.0 L 127.66666666666667 0.3333333333333333 L 127.0 0.0 L 126.0 0.0 L 125.0 0.0 L 124.0 0.0 L 123.0 0.0 L 122.0 0.0 L 121.0 0.0 L 120.0 0.0 L 119.0 0.0 L 118.0 0.0 L 117.0 0.0 L 116.0 0.0 L 115.0 0.0 L 114.0 0.0 L 113.0 0.0 L 112.0 0.0 L 111.0 0.0 L 110.0 0.0 L 109.0 0.0 L 108.0 0.0 L 107.0 0.0 L 106.0 0.0 L 105.0 0.0 L 104.0 0.0 L 103.0 0.0 L 102.0 0.0 L 101.0 0.0 L 100.0 0.0 L 99.0 0.0 L 98.0 0.0 L 97.0 0.0 L 96.0 0.0 L 95.0 0.0 L 94.0 0.0 L 93.0 0.0 L 92.0 0.0 L 91.0 0.0 L 90.0 0.0 L 89.0 0.0 L 88.0 0.0 L 87.0 0.0 L 86.0 0.0 L 85.0 0.0 L 84.0 0.0 L 83.0 0.0 L 82.0 0.0 L 81.0 0.0 L 80.0 0.0 L 79.0 0.0 L 78.0 0.0 L 77.0 0.0 L 76.0 0.0 L 75.0 0.0 L 74.0 0.0 L 73.0 0.0 L 72.0 0.0 L 71.0 0.0 L 70.0 0.0 L 69.0 0.0 L 68.0 0.0 L 67.0 0.0 L 66.0 0.0 L 65.0 0.0 L 64.0 0.0 L 63.0 0.0 L 62.0 0.0 L 61.0 0.0 L 60.0 0.0 L 59.0 0.0 L 58.0 0.0 L 57.0 0.0 L 56.0 0.0 L 55.0 0.0 L 54.0 0.0 L 53.0 0.0 L 52.0 0.0 L 51.0 0.0 L 50.0 0.0 L 49.0 0.0 L 48.0 0.0 L 47.0 0.0 L 46.0 0.0 L 45.0 0.0 L 44.0 0.0 L 43.0 0.0 L 42.0 0.0 L 41.0 0.0 L 40.0 0.0 L 39.0 0.0 L 38.0 0.0 L 37.0 0.0 L 36.0 0.0 L 35.0 0.0 L 34.0 0.0 L 33.0 0.0 L 32.0 0.0 L 31.0 0.0 L 30.0 0.0 L 29.0 0.0 L 28.0 0.0 L 27.0 0.0 L 26.0 0.0 L 25.0 0.0 L 24.0 0.0 L 23.0 0.0 L 22.0 0.0 L 21.0 0.0 L 20.0 0.0 L 19.0 0.0 L 18.0 0.0 L 17.0 0.0 L 16.0 0.0 L 15.0 0.0 L 14.0 0.0 L 13.0 0.0 L 12.0 0.0 L 11.0 0.0 L 10.0 0.0 L 9.0 0.0 L 8.0 0.0 L 7.0 0.0 L 6.0 0.0 L 5.0 0.0 L 4.0 0.0 L 3.0 0.0 L 2.0 0.0 L 1.0 0.0 L 0.3333333333333333 0.3333333333333333 L 0.0 1.0 L 0.0 2.0 L 0.0 3.0 L 0.0 4.0 L 0.0 5.0 L 0.0 6.0 L 0.0 7.0 L 0.0 8.0 L 0.0 9.0 L 0.0 10.0 L 0.0 11.0 L 0.0 12.0 L 0.0 13.0 L 0.0 14.0 L 0.0 15.0 L 0.0 16.0 L 0.0 17.0 L 0.0 18.0 L 0.0 19.0 L 0.0 20.0 L 0.0 21.0 L 0.0 22.0 L 0.0 23.0 L 0.0 24.0 L 0.0 25.0 L 0.0 26.0 L 0.0 27.0 L 0.0 28.0 L 0.0 29.0 L 0.0 30.0 L 0.0 31.0 L 0.0 32.0 L 0.0 33.0 L 0.0 34.0 L 0.0 35.0 L 0.0 36.0 L 0.0 37.0 L 0.0 38.0 L 0.0 39.0 L 0.0 40.0 L 0.0 41.0 L 0.0 42.0 L 0.0 43.0 L 0.0 44.0 L 0.0 45.0 L 0.0 46.0 L 0.0 47.0 L 0.0 48.0 L 0.0 49.0 L 0.0 50.0 L 0.0 51.0 L 0.0 52.0 L 0.0 53.0 L 0.0 54.0 L 0.0 55.0 L 0.0 56.0 L 0.0 57.0 L 0.0 58.0 L 0.0 59.0 L 0.0 60.0 L 0.0 61.0 L 0.0 62.0 L 0.0 63.0 L 0.0 64.0 L 0.0 65.0 L 0.0 66.0 L 0.0 67.0 L 0.0 68.0 L 0.0 69.0 L 0.0 70.0 L 0.0 71.0 L 0.0 72.0 L 0.0 73.0 L 0.0 74.0 L 0.0 75.0 L 0.0 76.0 L 0.0 77.0 L 0.0 78.0 L 0.0 79.0 L 0.0 80.0 L 0.0 81.0 L 0.0 82.0 L 0.0 83.0 L 0.0 84.0 L 0.0 85.0 L 0.0 86.0 L 0.0 87.0 L 0.0 88.0 L 0.0 89.0 L 0.0 90.0 L 0.0 91.0 L 0.0 92.0 L 0.0 93.0 L 0.0 94.0 L 0.0 95.0 L 0.0 96.0 L 0.0 97.0 L 0.0 98.0 L 0.0 99.0 L 0.0 100.0 L 0.0 101.0 L 0.0 102.0 L 0.0 103.0 L 0.0 104.0 L 0.0 105.0 L 0.0 106.0 L 0.0 107.0 L 0.0 108.0 L 0.0 109.0 L 0.0 110.0 L 0.0 111.0 L 0.0 112.0 L 0.0 113.0 L 0.0 114.0 L 0.0 115.0 L 0.0 116.0 L 0.0 117.0 L 0.0 118.0 L 0.0 119.0 L 0.0 120.0 L 0.0 121.0 L 0.0 122.0 L 0.0 123.0 L 0.0 124.0 L 0.0 125.0 L 0.0 126.0 L 0.0 127.0 L 0.3333333333333333 127.66666666666667 L 1.0 128.0 L 2.0 128.0 L 3.0 128.0 L 4.0 128.0 L 5.0 128.0 L 6.0 128.0 L 7.0 128.0 L 8.0 128.0 L 9.0 128.0 L 10.0 128.0 L 11.0 128.0 L 12.0 128.0 L 13.0 128.0 L 14.0 128.0 L 15.0 128.0 L 16.0 128.0 L 17.0 128.0 L 18.0 128.0 L 19.0 128.0 L 20.0 128.0 L 21.0 128.0 L 22.0 128.0 L 23.0 128.0 L 24.0 128.0 L 25.0 128.0 L 25.5 128.0 Z" stroke="none" fill="rgb(0,0,0)" />
<path d="M 29.5 100.0 L 30.0 100.0 L 31.0 100.0 L 32.0 100.0 L 33.0 100.0 L 34.0 100.0 L 35.0 100.0 L 36.0 100.0 L 37.0 100.0 L 38.0 100.0 L 39.0 100.0 L 40.0 100.0 L 41.0 100.0 L 42.0 100.0 L 43.0 100.0 L 44.0 100.0 L 45.0 100.0 L 46.0 100.0 L 47.0 100.0 L 48.0 100.0 L 49.0 100.0 L 50.0 100.0 L 51.0 100.0 L 52.0 100.0 L 53.0 100.0 L 54.0 100.0 L 55.0 100.0 L 56.0 100.0 L 57.0 100.0 L 58.0 100.0 L 59.0 100.0 L 60.0 100.0 L 61.0 100.0 L 62.0 100.0 L 63.0 100.0 L 64.0 100.0 L 65.0 100.0 L 66.0 100.0 L 67.0 100.0 L 68.0 100.0 L 69.0 100.0 L 70.0 100.0 L 71.0 100.0 L 72.0 100.0 L 73.0 100.0 L 74.0 100.0 L 75.0 100.0 L 76.0 100.0 L 77.0 100.0 L 78.0 100.0 L 79.0 100.0 L 80.0 100.0 L 81.0 100.0 L 82.0 100.0 L 83.0 100.0 L 84.0 100.0 L 85.0 100.0 L 86.0 100.0 L 87.0 100.0 L 88.0 100.0 L 89.0 100.0 L 90.0 100.0 L 91.0 100.0 L 92.0 100.0 L 93.0 100.0 L 94.0 100.0 L 95.0 100.0 L 96.0 100.0 L 97.0 100.0 L 98.0 100.0 L 99.0 100.0 L 99.66666666666667 99.66666666666667 L 100.0 99.0 L 100.0 98.0 L 100.0 97.0 L 100.0 96.0 L 100.0 95.0 L 100.0 94.0 L 100.0 93.0 L 100.0 92.0 L 100.0 91.0 L 100.0 90.0 L 100.0 89.0 L 100.0 88.0 L 100.0 87.0 L 100.0 86.0 L 100.0 85.0 L 100.0 84.0 L 100.0 83.0 L 100.0 82.0 L 100.0 81.0 L 100.0 80.0 L 100.0 79.0 L 100.0 78.0 L 100.0 77.0 L 100.0 76.0 L 100.0 75.0 L 100.0 74.0 L 100.0 73.0 L 100.0 72.0 L 100.0 71.0 L 100.0 70.0 L 100.0 69.0 L 100.0 68.0 L 100.0 67.0 L 100.0 66.0 L 100.0 65.0 L 100.0 64.0 L 100.0 63.0 L 100.0 62.0 L 100.0 61.0 L 100.0 60.0 L 100.0 59.0 L 100.0 58.0 L 100.0 57.0 L 100.0 56.0 L 100.0 55.0 L 100.0 54.0 L 100.0 53.0 L 100.0 52.0 L 100.0 51.0 L 100.0 50.0 L 100.0 49.0 L 100.0 48.0 L 100.0 47.0 L 100.0 46.0 L 100.0 45.0 L 100.0 44.0 L 100.0 43.0 L 100.0 42.0 L 100.0 41.0 L 100.0 40.0 L 100.0 39.0 L 100.0 38.0 L 100.0 37.0 L 100.0 36.0 L 100.0 35.0 L 100.0 34.0 L 100.0 33.0 L 100.0 32.0 L 100.0 31.0 L 100.0 30.0 L 100.0 29.0 L 100.0 28.0 L 100.0 27.0 L 100.0 26.0 L 100.0 25.0 L 100.0 24.0 L 100.0 23.0 L 100.0 22.0 L 99.66666666666667 21.0 L 99.0 20.333333333333332 L 98.0 20.0 L 97.0 20.0 L 96.0 20.0 L 95.0 20.0 L 94.0 20.0 L 93.0 20.0 L 92.0 20.0 L 91.0 20.0 L 90.0 20.0 L 89.0 20.0 L 88.0 20.0 L 87.0 20.0 L 86.0 20.0 L 85.0 20.0 L 84.0 20.0 L 83.0 20.0 L 82.0 20.0 L 81.0 20.0 L 80.0 20.0 L 79.0 20.0 L 78.0 20.0 L 77.0 20.0 L 76.0 20.0 L 75.0 20.0 L 74.0 20.0 L 73.0 20.0 L 72.0 20.0 L 71.0 20.0 L 70.0 20.0 L 69.0 20.0 L 68.0 20.0 L 67.0 20.0 L 66.0 20.0 L 65.0 20.0 L 64.0 20.0 L 63.0 20.0 L 62.0 20.0 L 61.0 20.0 L 60.0 20.0 L 59.0 20.0 L 58.0 20.0 L 57.0 20.0 L 56.0 20.0 L 55.0 20.0 L 54.0 20.0 L 53.0 20.0 L 52.0 20.0 L 51.0 20.0 L 50.0 20.0 L 49.0 20.0 L 48.0 20.0 L 47.0 20.0 L 46.0 20.0 L 45.0 20.0 L 44.0 20.0 L 43.0 20.0 L 42.0 20.0 L 41.0 20.0 L 40.0 20.0 L 39.0 20.0 L 38.0 20.0 L 37.0 20.0 L 36.0 20.0 L 35.0 20.0 L 34.0 20.0 L 33.0 20.0 L 32.0 20.0 L 31.0 20.0 L 30.0 20.0 L 29.0 20.0 L 28.0 20.0 L 27.0 20.0 L 26.0 20.0 L 25.0 20.0 L 24.0 20.0 L 23.0 20.0 L 22.0 20.0 L 21.0 20.0 L 20.0 20.333333333333332 L 19.333333333333332 21.0 L 19.0 22.0 L 19.0 23.0 L 19.0 24.0 L 19.0 25.0 L 19.0 26.0 L 19.0 27.0 L 19.0 28.0 L 19.0 29.0 L 19.0 30.0 L 19.0 31.0 L 19.0 32.0 L 19.0 33.0 L 19.0 34.0 L 19.0 35.0 L 19.0 36.0 L 19.0 37.0 L 19.0 38.0 L 19.0 39.0 L 19.0 40.0 L 19.0 41.0 L 19.0 42.0 L 19.0 43.0 L 19.0 44.0 L 19.0 45.0 L 19.0 46.0 L 19.0 47.0 L 19.0 48.0 L 19.0 49.0 L 19.0 50.0 L 19.0 51.0 L 19.0 52.0 L 19.0 53.0 L 19.0 54.0 L 19.0 55.0 L 19.0 56.0 L 19.0 57.0 L 19.0 58.0 L 19.0 59.0 L 19.0 60.0 L 19.0 61.0 L 19.0 62.0 L 19.0 63.0 L 19.0 64.0 L 19.0 65.0 L 19.0 66.0 L 19.0 67.0 L 19.0 68.0 L 19.0 69.0 L 19.0 70.0 L 19.0 71.0 L 19.0 72.0 L 19.0 73.0 L 19.0 74.0 L 19.0 75.0 L 19.0 76.0 L 19.0 77.0 L 19.0 78.0 L 19.0 79.0 L 19.0 80.0 L 19.0 81.0 L 19.0 82.0 L 19.0 83.0 L 19.0 84.0 L 19.0 85.0 L 19.0 86.0 L 19.0 87.0 L 19.0 88.0 L 19.0 89.0 L 19.0 90.0 L 19.0 91.0 L 19.0 92.0 L 19.0 93.0 L 19.0 94.0 L 19.0 95.0 L 19.0 96.0 L 19.0 97.0 L 19.333333333333332 98.0 L 19.666666666666668 99.0 L 20.333333333333332 99.66666666666667 L 21.0 100.0 L 22.0 100.0 L 23.0 100.0 L 24.0 100.0 L 25.0 100.0 L 26.0 100.0 L 27.0 100.0 L 28.0 100.0 L 28.5 100.0 Z" stroke="none" fill="rgb(224,224,224)" />
<path d="M 95.5 109.0 L 96.0 109.0 L 97.0 109.0 L 98.0 109.0 L 99.0 109.0 L 100.0 109.0 L 101.0 109.0 L 102.0 109.0 L 103.0 109.0 L 104.0 109.0 L 105.0 109.0 L 106.0 108.66666666666667 L 107.0 108.33333333333333 L 107.66666666666667 107.66666666666667 L 108.0 107.0 L 108.0 106.0 L 108.0 105.0 L 108.0 104.0 L 108.0 103.0 L 108.0 102.0 L 108.0 101.0 L 108.0 100.0 L 108.0 99.0 L 108.0 98.0 L 108.0 97.0 L 108.0 96.0 L 108.0 95.0 L 108.0 94.0 L 108.0 93.0 L 108.0 92.0 L 108.0 91.0 L 108.0 90.0 L 108.0 89.0 L 108.0 88.0 L 108.0 87.0 L 108.0 86.0 L 108.0 85.0 L 108.0 84.0 L 108.0 83.0 L 108.0 82.0 L 108.0 81.0 L 108.0 80.0 L 108.0 79.0 L 108.0 78.0 L 108.0 77.0 L 108.0 76.0 L 108.0 75.0 L 108.0 74.0 L 108.0 73.0 L 108.0 72.0 L 108.0 71.0 L 108.0 70.0 L 108.0 69.0 L 108.0 68.0 L 108.0 67.0 L 108.0 66.0 L 108.0 65.0 L 108.0 64.0 L 108.0 63.0 L 108.0 62.0 L 108.0 61.0 L 108.0 60.0 L 108.0 59.0 L 108.0 58.0 L 108.0 57.0 L 108.0 56.0 L 108.0 55.0 L 108.0 54.0 L 108.0 53.0 L 108.0 52.0 L 108.0 51.0 L 108.0 50.0 L 108.0 49.0 L 108.0 48.0 L 108.0 47.0 L 108.0 46.0 L 108.0 45.0 L 108.0 44.0 L 108.0 43.0 L 108.0 42.0 L 108.0 41.0 L 108.0 40.0 L 108.0 39.0 L 108.0 38.0 L 108.0 37.0 L 108.0 36.0 L 108.0 35.0 L 108.0 34.0 L 108.0 33.0 L 108.0 32.0 L 108.0 31.0 L 108.0 30.0 L 108.0 29.0 L 108.0 28.0 L 108.0 27.0 L 108.0 26.0 L 108.0 25.0 L 108.0 24.0 L 108.0 23.0 L 108.0 22.0 L 108.0 21.0 L 107.66666666666667 20.333333333333332 L 107.0 20.0 L 106.0 20.0 L 105.0 20.0 L 104.0 20.0 L 103.0 20.0 L 102.0 20.0 L 101.0 20.333333333333332 L 100.33333333333333 21.0 L 100.0 22.0 L 100.0 23.0 L 100.0 24.0 L 100.0 25.0 L 100.0 26.0 L 100.0 27.0 L 100.0 28.0 L 100.0 29.0 L 100.0 30.0 L 100.0 31.0 L 100.0 32.0 L 100.0 33.0 L 100.0 34.0 L 100.0 35.0 L 100.0 36.0 L 100.0 37.0 L 100.0 38.0 L 100.0 39.0 L 100.0 40.0 L 100.0 41.0 L 100.0 42.0 L 100.0 43.0 L 100.0 44.0 L 100.0 45.0 L 100.0 46.0 L 100.0 47.0 L 100.0 48.0 L 100.0 49.0 L 100.0 50.0 L 100.0 51.0 L 100.0 52.0 L 100.0 53.0 L 100.0 54.0 L 100.0 55.0 L 100.0 56.0 L 100.0 57.0 L 100.0 58.0 L 100.0 59.0 L 100.0 60.0 L 100.0 61.0 L 100.0 62.0 L 100.0 63.0 L 100.0 64.0 L 100.0 65.0 L 100.0 66.0 L 100.0 67.0 L 100.0 68.0 L 100.0 69.0 L 100.0 70.0 L 100.0 71.0 L 100.0 72.0 L 100.0 73.0 L 100.0 74.0 L 100.0 75.0 L 100.0 76.0 L 100.0 77.0 L 100.0 78.0 L 100.0 79.0 L 100.0 80.0 L 100.0 81.0 L 100.0 82.0 L 100.0 83.0 L 100.0 84.0 L 100.0 85.0 L 100.0 86.0 L 100.0 87.0 L 100.0 88.0 L 100.0 89.0 L 100.0 90.0 L 100.0 91.0 L 100.0 92.0 L 100.0 93.0 L 100.0 94.0 L 100.0 95.0 L 100.0 96.0 L 100.0 97.0 L 100.0 98.0 L 99.66666666666667 99.0 L 99.0 99.66666666666667 L 98.0 100.0 L 97.0 100.0 L 96.0 100.0 L 95.0 100.0 L 94.0 100.0 L 93.0 100.0 L 92.0 100.0 L 91.0 100.0 L 90.0 100.0 L 89.0 100.0 L 88.0 100.0 L 87.0 100.0 L 86.0 100.0 L 85.0 100.0 L 84.0 100.0 L 83.0 100.0 L 82.0 100.0 L 81.0 100.0 L 80.0 100.0 L 79.0 100.0 L 78.0 100.0 L 77.0 100.0 L 76.0 100.0 L 75.0 100.0 L 74.0 100.0 L 73.0 100.0 L 72.0 100.0 L 71.0 100.0 L 70.0 100.0 L 69.0 100.0 L 68.0 100.0 L 67.0 100.0 L 66.0 100.0 L 65.0 100.0 L 64.0 100.0 L 63.0 100.0 L 62.0 100.0 L 61.0 100.0 L 60.0 100.0 L 59.0 100.0 L 58.0 100.0 L 57.0 100.0 L 56.0 100.0 L 55.0 100.0 L 54.0 100.0 L 53.0 100.0 L 52.0 100.0 L 51.0 100.0 L 50.0 100.0 L 49.0 100.0 L 48.0 100.0 L 47.0 100.0 L 46.0 100.0 L 45.0 100.0 L 44.0 100.0 L 43.0 100.0 L 42.0 100.0 L 41.0 100.0 L 40.0 100.0 L 39.0 100.0 L 38.0 100.0 L 37.0 100.0 L 36.0 100.0 L 35.0 100.0 L 34.0 100.0 L 33.0 100.0 L 32.0 100.0 L 31.0 100.0 L 30.0 100.0 L 29.0 100.0 L 28.0 100.0 L 27.0 100.0 L 26.0 100.0 L 25.0 100.0 L 24.0 100.0 L 23.0 100.0 L 22.0 100.0 L 21.0 100.0 L 20.0 100.0 L 19.333333333333332 100.33333333333333 L 19.0 101.0 L 19.0 102.0 L 19.0 103.0 L 19.0 104.0 L 19.0 105.0 L 19.0 106.0 L 19.333333333333332 107.0 L 20.0 107.66666666666667 L 21.0 108.33333333333333 L 22.0 108.66666666666667 L 23.0 109.0 L 24.0 109.0 L 25.0 109.0 L 26.0 109.0 L 27.0 109.0 L 28.0 109.0 L 29.0 109.0 L 30.0 109.0 L 31.0 109.0 L 32.0 109.0 L 33.0 109.0 L 34.0 109.0 L 35.0 109.0 L 36.0 109.0 L 37.0 109.0 L 38.0 109.0 L 39.0 109.0 L 40.0 109.0 L 41.0 109.0 L 42.0 109.0 L 43.0 109.0 L 44.0 109.0 L 45.0 109.0 L 46.0 109.0 L 47.0 109.0 L 48.0 109.0 L 49.0 109.0 L 50.0 109.0 L 51.0 109.0 L 52.0 109.0 L 53.0 109.0 L 54.0 109.0 L 55.0 109.0 L 56.0 109.0 L 57.0 109.0 L 58.0 109.0 L 59.0 109.0 L 60.0 109.0 L 61.0 109.0 L 62.0 109.0 L 63.0 109.0 L 64.0 109.0 L 65.0 109.0 L 66.0 109.0 L 67.0 109.0 L 68.0 109.0 L 69.0 109.0 L 70.0 109.0 L 71.0 109.0 L 72.0 109.0 L 73.0 109.0 L 74.0 109.0 L 75.0 109.0 L 76.0 109.0 L 77.0 109.0 L 78.0 109.0 L 79.0 109.0 L 80.0 109.0 L 81.0 109.0 L 82.0 109.0 L 83.0 109.0 L 84.0 109.0 L 85.0 109.0 L 86.0 109.0 L 87.0 109.0 L 88.0 109.0 L 89.0 109.0 L 90.0 109.0 L 91.0 109.0 L 92.0 109.0 L 93.0 109.0 L 94.0 109.0 L 94.5 109.0 Z" stroke="none" fill="rgb(189,189,189)" />
<path d="M 37.5 32.5 L 38.0 32.333333333333336 L 39.0 31.666666666666668 L 40.0 31.333333333333332 L 41.0 30.666666666666668 L 42.0 30.0 L 43.0 29.0 L 43.666666666666664 28.0 L 44.0 27.0 L 43.666666666666664 26.333333333333332 L 43.0 26.0 L 42.0 26.0 L 41.0 26.0 L 40.0 26.0 L 39.0 26.0 L 38.0 26.0 L 37.0 26.0 L 36.0 26.0 L 35.0 26.0 L 34.0 26.0 L 33.0 26.0 L 32.0 26.333333333333332 L 31.0 26.666666666666668 L 30.0 27.333333333333332 L 29.0 28.0 L 28.333333333333332 29.0 L 27.666666666666668 30.0 L 27.333333333333332 31.0 L 27.0 32.0 L 27.0 33.0 L 27.0 34.0 L 27.0 35.0 L 27.0 36.0 L 27.0 37.0 L 27.0 38.0 L 27.0 39.0 L 27.0 40.0 L 27.0 41.0 L 27.0 42.0 L 27.333333333333332 43.0 L 28.0 43.666666666666664 L 29.0 43.666666666666664 L 30.0 43.0 L 30.666666666666668 42.0 L 31.0 41.0 L 31.333333333333332 40.0 L 31.666666666666668 39.0 L 32.0 38.0 L 32.333333333333336 37.0 L 33.0 36.0 L 34.0 35.0 L 35.0 34.333333333333336 L 36.0 33.666666666666664 L 36.5 33.5 Z" stroke="none" fill="rgb(255,255,255)" />
</svg>
