<?xml version="1.0" encoding="UTF-8" standalone="no"?>
<!DOCTYPE svg PUBLIC "-//W3C//DTD SVG 1.1//EN"
"http://www.w3.org/Graphics/SVG/1.1/DTD/svg11.dtd">
<svg width="128" height="128" xmlns="http://www.w3.org/2000/svg" version="1.1">
<path d="M 26.5 128.0 L 27.0 128.0 L 28.0 128.0 L 29.0 128.0 L 30.0 128.0 L 31.0 128.0 L 32.0 128.0 L 33.0 128.0 L 34.0 128.0 L 35.0 128.0 L 36.0 128.0 L 37.0 128.0 L 38.0 128.0 L 39.0 128.0 L 40.0 128.0 L 41.0 128.0 L 42.0 128.0 L 43.0 128.0 L 44.0 128.0 L 45.0 128.0 L 46.0 128.0 L 47.0 128.0 L 48.0 128.0 L 49.0 128.0 L 50.0 128.0 L 51.0 128.0 L 52.0 128.0 L 53.0 128.0 L 54.0 128.0 L 55.0 128.0 L 56.0 128.0 L 57.0 128.0 L 58.0 128.0 L 59.0 128.0 L 60.0 128.0 L 61.0 128.0 L 62.0 128.0 L 63.0 128.0 L 64.0 128.0 L 65.0 128.0 L 66.0 128.0 L 67.0 128.0 L 68.0 128.0 L 69.0 128.0 L 70.0 128.0 L 71.0 128.0 L 72.0 128.0 L 73.0 128.0 L 74.0 128.0 L 75.0 128.0 L 76.0 128.0 L 77.0 128.0 L 78.0 128.0 L 79.0 128.0 L 80.0 128.0 L 81.0 128.0 L 82.0 128.0 L 83.0 128.0 L 84.0 128.0 L 85.0 128.0 L 86.0 128.0 L 87.0 128.0 L 88.0 128.0 L 89.0 128.0 L 90.0 128.0 L 91.0 128.0 L 92.0 128.0 L 93.0 128.0 L 94.0 128.0 L 95.0 128.0 L 96.0 128.0 L 97.0 128.0 L 98.0 128.0 L 99.0 128.0 L 100.0 128.0 L 101.0 128.0 L 102.0 128.0 L 103.0 128.0 L 104.0 128.0 L 105.0 128.0 L 106.0 128.0 L 107.0 128.0 L 108.0 128.0 L 109.0 128.0 L 110.0 128.0 L 111.0 128.0 L 112.0 128.0 L 113.0 128.0 L 114.0 128.0 L 115.0 128.0 L 116.0 128.0 L 117.0 128.0 L 118.0 128.0 L 119.0 128.0 L 120.0 128.0 L 121.0 128.0 L 122.0 128.0 L 123.0 128.0 L 124.0 128.0 L 125.0 128.0 L 126.0 128.0 L 127.0 128.0 L 127.66666666666667 127.66666666666667 L 128.0 127.0 L 128.0 126.0 L 128.0 125.0 L 128.0 124.0 L 128.0 123.0 L 128.0 122.0 L 128.0 121.0 L 128.0 120.0 L 128.0 119.0 L 128.0 118.0 L 128.0 117.0 L 128.0 116.0 L 128.0 115.0 L 128.0 114.0 L 128.0 113.0 L 128.0 112.0 L 128.0 111.0 L 128.0 110.0 L 128.0 109.0 L 128.0 108.0 L 128.0 107.0 L 128.0 106.0 L 128.0 105.0 L 128.0 104.0 L 128.0 103.0 L 128.0 102.0 L 128.0 101.0 L 128.0 100.0 L 128.0 99.0 L 128.0 98.0 L 128.0 97.0 L 128.0 96.0 L 128.0 95.0 L 128.0 94.0 L 128.0 93.0 L 128.0 92.0 L 128.0 91.0 L 128.0 90.0 L 128.0 89.0 L 128.0 88.0 L 128.0 87.0 L 128.0 86.0 L 128.0 85.0 L 128.0 84.0 L 128.0 83.0 L 128.0 82.0 L 128.0 81.0 L 128.0 80.0 L 128.0 79.0 L 128.0 78.0 L 128.0 77.0 L 128.0 76.0 L 128.0 75.0 L 128.0 74.0 L 128.0 73.0 L 128.0 72.0 L 128.0 71.0 L 128.0 70.0 L 128.0 69.0 L 128.0 68.0 L 128.0 67.0 L 128.0 66.0 L 128.0 65.0 L 128.0 64.0 L 128.0 63.0 L 128.0 62.0 L 128.0 61.0 L 128.0 60.0 L 128.0 59.0 L 128.0 58.0 L 128.0 57.0 L 128.0 56.0 L 128.0 55.0 L 128.0 54.0 L 128.0 53.0 L 128.0 52.0 L 128.0 51.0 L 128.0 50.0 L 128.0 49.0 L 128.0 48.0 L 128.0 47.0 L 128.0 46.0 L 128.0 45.0 L 128.0 44.0 L 128.0 43.0 L 128.0 42.0 L 128.0 41.0 L 128.0 40.0 L 128.0 39.0 L 128.0 38.0 L 128.0 37.0 L 128.0 36.0 L 128.0 35.0 L 128.0 34.0 L 128.0 33.0 L 128.0 32.0 L 128.0 31.0 L 128.0 30.0 L 128.0 29.0 L 128.0 28.0 L 128.0 27.0 L 128.0 26.0 L 128.0 25.0 L 128.0 24.0 L 128.0 23.0 L 128.0 22.0 L 128.0 21.0 L 128.0 20.0 L 128.0 19.0 L 128.0 18.0 L 128.0 17.0 L 128.0 16.0 L 128.0 15.0 L 128.0 14.0 L 128.0 13.0 L 128.0 12.0 L 128.0 11.0 L 128.0 10.0 L 128.0 9.0 L 128.0 8.0 L 128.0 7.0 L 128.0 6.0 L 128.0 5.0 L 128.0 4.0 L 128.0 3.0 L 128.0 2.0 L 128.0 1.0 L 127.66666666666667 0.3333333333333333 L 127.0 0.0 L 126.0 0.0 L 125.0 0.0 L 124.0 0.0 L 123.0 0.0 L 122.0 0.0 L 121.0 0.0 L 120.0 0.0 L 119.0 0.0 L 118.0 0.0 L 117.0 0.0 L 116.0 0.0 L 115.0 0.0 L 114.0 0.0 L 113.0 0.0 L 112.0 0.0 L 111.0 0.0 L 110.0 0.0 L 109.0 0.0 L 108.0 0.0 L 107.0 0.0 L 106.0 0.0 L 105.0 0.0 L 104.0 0.0 L 103.0 0.0 L 102.0 0.0 L 101.0 0.0 L 100.0 0.0 L 99.0 0.0 L 98.0 0.0 L 97.0 0.0 L 96.0 0.0 L 95.0 0.0 L 94.0 0.0 L 93.0 0.0 L 92.0 0.0 L 91.0 0.0 L 90.0 0.0 L 89.0 0.0 L 88.0 0.0 L 87.0 0.0 L 86.0 0.0 L 85.0 0.0 L 84.0 0.0 L 83.0 0.0 L 82.0 0.0 L 81.0 0.0 L 80.0 0.0 L 79.0 0.0 L 78.0 0.0 L 77.0 0.0 L 76.0 0.0 L 75.0 0.0 L 74.0 0.0 L 73.0 0.0 L 72.0 0.0 L 71.0 0.0 L 70.0 0.0 L 69.0 0.0 L 68.0 0.0 L 67.0 0.0 L 66.0 0.0 L 65.0 0.0 L 64.0 0.0 L 63.0 0.0 L 62.0 0.0 L 61.0 0.0 L 60.0 0.0 L 59.0 0.0 L 58.0 0.0 L 57.0 0.0 L 56.0 0.0 L 55.0 0.0 L 54.0 0.0 L 53.0 0.0 L 52.0 0.0 L 51.0 0.0 L 50.0 0.0 L 49.0 0.0 L 48.0 0.0 L 47.0 0.0 L 46.0 0.0 L 45.0 0.0 L 44.0 0.0 L 43.0 0.0 L 42.0 0.0 L 41.0 0.0 L 40.0 0.0 L 39.0 0.0 L 38.0 0.0 L 37.0 0.0 L 36.0 0.0 L 35.0 0.0 L 34.0 0.0 L 33.0 0.0 L 32.0 0.0 L 31.0 0.0 L 30.0 0.0 L 29.0 0.0 L 28.0 0.0 L 27.0 0.0 L 26.0 0.0 L 25.0 0.0 L 24.0 0.0 L 23.0 0.0 L 22.0 0.0 L 21.0 0.0 L 20.0 0.0 L 19.0 0.0 L 18.0 0.0 L 17.0 0.0 L 16.0 0.0 L 15.0 0.0 L 14.0 0.0 L 13.0 0.0 L 12.0 0.0 L 11.0 0.0 L 10.0 0.0 L 9.0 0.0 L 8.0 0.0 L 7.0 0.0 L 6.0 0.0 L 5.0 0.0 L 4.0 0.0 L 3.0 0.0 L 2.0 0.0 L 1.0 0.0 L 0.3333333333333333 0.3333333333333333 L 0.0 1.0 L 0.0 2.0 L 0.0 3.0 L 0.0 4.0 L 0.0 5.0 L 0.0 6.0 L 0.0 7.0 L 0.0 8.0 L 0.0 9.0 L 0.0 10.0 L 0.0 11.0 L 0.0 12.0 L 0.0 13.0 L 0.0 14.0 L 0.0 15.0 L 0.0 16.0 L 0.0 17.0 L 0.0 18.0 L 0.0 19.0 L 0.0 20.0 L 0.0 21.0 L 0.0 22.0 L 0.0 23.0 L 0.0 24.0 L 0.0 25.0 L 0.0 26.0 L 0.0 27.0 L 0.0 28.0 L 0.0 29.0 L 0.0 30.0 L 0.0 31.0 L 0.0 32.0 L 0.0 33.0 L 0.0 34.0 L 0.0 35.0 L 0.0 36.0 L 0.0 37.0 L 0.0 38.0 L 0.0 39.0 L 0.0 40.0 L 0.0 41.0 L 0.0 42.0 L 0.0 43.0 L 0.0 44.0 L 0.0 45.0 L 0.0 46.0 L 0.0 47.0 L 0.0 48.0 L 0.0 49.0 L 0.0 50.0 L 0.0 51.0 L 0.0 52.0 L 0.0 53.0 L 0.0 54.0 L 0.0 55.0 L 0.0 56.0 L 0.0 57.0 L 0.0 58.0 L 0.0 59.0 L 0.0 60.0 L 0.0 61.0 L 0.0 62.0 L 0.0 63.0 L 0.0 64.0 L 0.0 65.0 L 0.0 66.0 L 0.0 67.0 L 0.0 68.0 L 0.0 69.0 L 0.0 70.0 L 0.0 71.0 L 0.0 72.0 L 0.0 73.0 L 0.0 74.0 L 0.0 75.0 L 0.0 76.0 L 0.0 77.0 L 0.0 78.0 L 0.0 79.0 L 0.0 80.0 L 0.0 81.0 L 0.0 82.0 L 0.0 83.0 L 0.0 84.0 L 0.0 85.0 L 0.0 86.0 L 0.0 87.0 L 0.0 88.0 L 0.0 89.0 L 0.0 90.0 L 0.0 91.0 L 0.0 92.0 L 0.0 93.0 L 0.0 94.0 L 0.0 95.0 L 0.0 96.0 L 0.0 97.0 L 0.0 98.0 L 0.0 99.0 L 0.0 100.0 L 0.0 101.0 L 0.0 102.0 L 0.0 103.0 L 0.0 104.0 L 0.0 105.0 L 0.0 106.0 L 0.0 107.0 L 0.0 108.0 L 0.0 109.0 L 0.0 110.0 L 0.0 111.0 L 0.0 112.0 L 0.0 113.0 L 0.0 114.0 L 0.0 115.0 L 0.0 116.0 L 0.0 117.0 L 0.0 118.0 L 0.0 119.0 L 0.0 120.0 L 0.0 121.0 L 0.0 122.0 L 0.0 123.0 L 0.0 124.0 L 0.0 125.0 L 0.0 126.0 L 0.0 127.0 L 0.3333333333333333 127.66666666666667 L 1.0 128.0 L 2.0 128.0 L 3.0 128.0 L 4.0 128.0 L 5.0 128.0 L 6.0 128.0 L 7.0 128.0 L 8.0 128.0 L 9.0 128.0 L 10.0 128.0 L 11.0 128.0 L 12.0 128.0 L 13.0 128.0 L 14.0 128.0 L 15.0 128.0 L 16.0 128.0 L 17.0 128.0 L 18.0 128.0 L 19.0 128.0 L 20.0 128.0 L 21.0 128.0 L 22.0 128.0 L 23.0 128.0 L 24.0 128.0 L 25.0 128.0 L 25.5 128.0 Z" stroke="none" fill="rgb(255,255,255)" />
<path d="M 59.5 116.0 L 60.0 116.0 L 61.0 116.0 L 62.0 116.0 L 63.0 116.0 L 64.0 116.0 L 65.0 116.0 L 66.0 116.33333333333333 L 66.66666666666667 117.0 L 67.0 118.0 L 67.33333333333333 119.0 L 67.66666666666667 120.0 L 68.0 121.0 L 68.0 122.0 L 68.0 123.0 L 68.33333333333333 123.66666666666667 L 69.0 124.0 L 70.0 124.0 L 71.0 124.0 L 72.0 124.0 L 73.0 124.0 L 74.0 124.0 L 75.0 124.0 L 76.0 124.0 L 77.0 124.0 L 78.0 124.0 L 79.0 124.0 L 80.0 124.0 L 81.0 124.0 L 82.0 124.0 L 83.0 124.0 L 84.0 124.0 L 85.0 124.0 L 85.66666666666667 123.66666666666667 L 86.0 123.0 L 86.0 122.0 L 86.0 121.0 L 85.66666666666667 120.0 L 85.33333333333333 119.0 L 85.0 118.0 L 85.0 117.0 L 84.66666666666667 116.0 L 84.33333333333333 115.0 L 84.0 114.0 L 84.33333333333333 113.0 L 84.66666666666667 112.0 L 85.0 111.0 L 85.0 110.0 L 85.0 109.0 L 85.0 108.0 L 85.0 107.0 L 85.0 106.0 L 85.0 105.0 L 84.66666666666667 104.0 L 84.0 103.33333333333333 L 83.0 103.33333333333333 L 82.0 103.66666666666667 L 81.0 104.0 L 80.0 104.0 L 79.0 104.0 L 78.0 104.0 L 77.33333333333333 104.33333333333333 L 77.0 105.0 L 77.0 106.0 L 77.0 107.0 L 77.0 108.0 L 77.0 109.0 L 77.0 110.0 L 76.66666666666667 111.0 L 76.33333333333333 112.0 L 75.66666666666667 113.0 L 75.0 114.0 L 74.0 114.66666666666667 L 73.0 115.0 L 72.0 115.0 L 71.0 115.0 L 70.0 115.0 L 69.0 114.66666666666667 L 68.66666666666667 114.0 L 69.0 113.0 L 69.66666666666667 112.0 L 70.0 111.0 L 70.0 110.0 L 70.0 109.0 L 70.0 108.0 L 69.66666666666667 107.0 L 69.33333333333333 106.0 L 69.0 105.0 L 69.0 104.0 L 68.66666666666667 103.0 L 68.33333333333333 102.0 L 68.0 101.0 L 68.0 100.0 L 68.0 99.0 L 68.33333333333333 98.0 L 69.0 97.33333333333333 L 69.66666666666667 96.66666666666667 L 70.0 96.0 L 70.33333333333333 95.0 L 71.0 94.0 L 72.0 93.0 L 72.66666666666667 92.0 L 73.33333333333333 91.0 L 74.0 90.0 L 74.66666666666667 89.0 L 75.33333333333333 88.0 L 75.66666666666667 87.0 L 76.0 86.0 L 76.0 85.0 L 75.66666666666667 84.0 L 75.0 83.0 L 74.0 82.0 L 73.0 81.0 L 72.0 80.0 L 71.33333333333333 79.0 L 71.0 78.0 L 71.0 77.0 L 71.0 76.0 L 71.0 75.0 L 71.0 74.0 L 71.0 73.0 L 71.0 72.0 L 71.0 71.0 L 71.0 70.0 L 70.66666666666667 69.33333333333333 L 70.0 69.0 L 69.0 69.0 L 68.0 69.0 L 67.0 69.33333333333333 L 66.0 69.66666666666667 L 65.0 70.33333333333333 L 64.0 70.66666666666667 L 63.0 71.33333333333333 L 62.0 71.66666666666667 L 61.0 72.33333333333333 L 60.0 72.66666666666667 L 59.0 73.0 L 58.0 73.0 L 57.0 73.0 L 56.0 72.66666666666667 L 55.333333333333336 72.0 L 55.333333333333336 71.0 L 56.0 70.0 L 57.0 69.33333333333333 L 58.0 68.66666666666667 L 59.0 68.33333333333333 L 60.0 67.66666666666667 L 61.0 67.33333333333333 L 62.0 66.66666666666667 L 63.0 66.33333333333333 L 64.0 66.0 L 65.0 65.66666666666667 L 66.0 65.33333333333333 L 67.0 64.66666666666667 L 68.0 64.33333333333333 L 69.0 64.0 L 70.0 64.0 L 70.66666666666667 63.666666666666664 L 71.0 63.0 L 70.66666666666667 62.0 L 70.0 61.0 L 69.33333333333333 60.0 L 68.66666666666667 59.0 L 68.0 58.333333333333336 L 67.0 58.0 L 66.0 58.0 L 65.0 58.0 L 64.0 58.333333333333336 L 63.0 58.666666666666664 L 62.0 59.333333333333336 L 61.0 59.666666666666664 L 60.0 60.333333333333336 L 59.0 60.666666666666664 L 58.0 61.333333333333336 L 57.0 61.666666666666664 L 56.0 62.333333333333336 L 55.0 62.666666666666664 L 54.0 62.666666666666664 L 53.0 62.0 L 52.333333333333336 61.0 L 52.333333333333336 60.0 L 53.0 59.333333333333336 L 54.0 58.666666666666664 L 55.0 58.333333333333336 L 56.0 57.666666666666664 L 57.0 57.333333333333336 L 58.0 56.666666666666664 L 59.0 56.333333333333336 L 60.0 55.666666666666664 L 61.0 55.333333333333336 L 62.0 54.666666666666664 L 63.0 54.333333333333336 L 64.0 53.666666666666664 L 65.0 53.333333333333336 L 66.0 53.0 L 67.0 53.0 L 67.66666666666667 52.666666666666664 L 68.0 52.0 L 67.66666666666667 51.0 L 67.0 50.0 L 66.33333333333333 49.0 L 66.0 48.0 L 66.0 47.0 L 65.66666666666667 46.333333333333336 L 65.0 46.0 L 64.0 46.333333333333336 L 63.0 46.666666666666664 L 62.0 47.0 L 61.0 47.333333333333336 L 60.0 47.666666666666664 L 59.0 48.333333333333336 L 58.0 48.666666666666664 L 57.0 49.333333333333336 L 56.0 49.666666666666664 L 55.0 50.333333333333336 L 54.0 51.0 L 53.0 51.666666666666664 L 52.0 52.0 L 51.0 51.666666666666664 L 50.0 51.0 L 49.666666666666664 50.0 L 50.0 49.0 L 51.0 48.0 L 52.0 47.333333333333336 L 53.0 46.666666666666664 L 54.0 46.333333333333336 L 55.0 45.666666666666664 L 56.0 45.333333333333336 L 57.0 44.666666666666664 L 58.0 44.333333333333336 L 59.0 43.666666666666664 L 60.0 43.333333333333336 L 61.0 42.666666666666664 L 62.0 42.333333333333336 L 63.0 42.0 L 64.0 42.0 L 65.0 41.666666666666664 L 65.66666666666667 41.0 L 65.66666666666667 40.0 L 65.0 39.0 L 64.0 38.0 L 63.0 37.0 L 62.0 36.333333333333336 L 61.0 36.0 L 60.0 36.0 L 59.0 36.0 L 58.0 36.333333333333336 L 57.0 36.666666666666664 L 56.0 37.333333333333336 L 55.0 37.666666666666664 L 54.0 38.333333333333336 L 53.0 39.0 L 52.0 39.666666666666664 L 51.0 40.333333333333336 L 50.0 40.666666666666664 L 49.0 41.0 L 48.0 41.0 L 47.0 40.666666666666664 L 46.333333333333336 40.0 L 46.333333333333336 39.0 L 47.0 38.0 L 48.0 37.333333333333336 L 49.0 36.666666666666664 L 50.0 36.0 L 51.0 35.333333333333336 L 52.0 34.666666666666664 L 53.0 34.333333333333336 L 54.0 33.666666666666664 L 55.0 33.333333333333336 L 56.0 32.666666666666664 L 57.0 32.333333333333336 L 58.0 31.666666666666668 L 59.0 31.333333333333332 L 60.0 31.0 L 61.0 31.0 L 61.666666666666664 30.666666666666668 L 62.0 30.0 L 61.666666666666664 29.0 L 61.0 28.0 L 60.0 27.0 L 59.333333333333336 26.0 L 59.0 25.0 L 58.666666666666664 24.333333333333332 L 58.0 24.0 L 57.0 24.333333333333332 L 56.0 24.666666666666668 L 55.0 25.333333333333332 L 54.0 25.666666666666668 L 53.0 26.333333333333332 L 52.0 27.0 L 51.0 27.666666666666668 L 50.0 28.333333333333332 L 49.0 28.666666666666668 L 48.0 29.333333333333332 L 47.0 29.666666666666668 L 46.0 30.0 L 45.0 30.0 L 44.0 29.666666666666668 L 43.333333333333336 29.0 L 43.333333333333336 28.0 L 44.0 27.0 L 45.0 26.333333333333332 L 46.0 25.666666666666668 L 47.0 25.0 L 48.0 24.333333333333332 L 49.0 23.666666666666668 L 50.0 23.333333333333332 L 51.0 22.666666666666668 L 52.0 22.333333333333332 L 53.0 21.666666666666668 L 54.0 21.333333333333332 L 55.0 20.666666666666668 L 55.666666666666664 20.0 L 55.666666666666664 19.0 L 55.0 18.0 L 54.0 17.0 L 53.0 16.0 L 52.0 15.0 L 51.0 14.333333333333334 L 50.0 14.0 L 49.0 13.666666666666666 L 48.0 13.333333333333334 L 47.0 13.0 L 46.0 13.0 L 45.0 13.0 L 44.0 13.0 L 43.0 13.0 L 42.0 13.0 L 41.0 13.333333333333334 L 40.0 13.666666666666666 L 39.0 14.0 L 38.0 14.333333333333334 L 37.0 14.666666666666666 L 36.0 15.0 L 35.0 15.333333333333334 L 34.0 16.0 L 33.0 16.666666666666668 L 32.0 17.333333333333332 L 31.0 17.666666666666668 L 30.0 18.333333333333332 L 29.0 19.0 L 28.0 20.0 L 27.0 21.0 L 26.333333333333332 22.0 L 25.666666666666668 23.0 L 25.333333333333332 24.0 L 25.0 25.0 L 25.0 26.0 L 24.666666666666668 27.0 L 24.333333333333332 28.0 L 24.0 29.0 L 24.0 30.0 L 24.0 31.0 L 24.0 32.0 L 24.0 33.0 L 24.0 34.0 L 24.333333333333332 35.0 L 25.0 35.666666666666664 L 26.0 36.0 L 27.0 36.0 L 28.0 35.666666666666664 L 29.0 35.0 L 30.0 34.333333333333336 L 31.0 33.666666666666664 L 32.0 33.333333333333336 L 33.0 32.666666666666664 L 34.0 32.333333333333336 L 35.0 32.333333333333336 L 35.666666666666664 33.0 L 36.0 34.0 L 35.666666666666664 35.0 L 35.0 36.0 L 34.0 37.0 L 33.0 37.666666666666664 L 32.0 38.333333333333336 L 31.0 38.666666666666664 L 30.0 39.333333333333336 L 29.0 39.666666666666664 L 28.0 40.0 L 27.0 40.333333333333336 L 26.333333333333332 41.0 L 26.0 42.0 L 26.333333333333332 43.0 L 26.666666666666668 44.0 L 27.0 45.0 L 27.333333333333332 46.0 L 28.0 46.666666666666664 L 29.0 47.0 L 30.0 46.666666666666664 L 31.0 46.333333333333336 L 32.0 45.666666666666664 L 33.0 45.0 L 34.0 44.333333333333336 L 35.0 43.666666666666664 L 36.0 43.333333333333336 L 37.0 43.0 L 38.0 43.333333333333336 L 38.666666666666664 44.0 L 38.666666666666664 45.0 L 38.0 46.0 L 37.0 47.0 L 36.0 48.0 L 35.0 48.666666666666664 L 34.0 49.333333333333336 L 33.0 49.666666666666664 L 32.0 50.333333333333336 L 31.0 50.666666666666664 L 30.0 51.333333333333336 L 29.333333333333332 52.0 L 29.0 53.0 L 29.0 54.0 L 29.333333333333332 55.0 L 29.666666666666668 56.0 L 30.0 57.0 L 30.333333333333332 57.666666666666664 L 31.0 58.0 L 32.0 57.666666666666664 L 33.0 57.333333333333336 L 34.0 56.666666666666664 L 35.0 56.0 L 36.0 55.333333333333336 L 37.0 54.666666666666664 L 38.0 54.333333333333336 L 39.0 53.666666666666664 L 40.0 53.666666666666664 L 41.0 54.0 L 41.333333333333336 55.0 L 41.0 56.0 L 40.0 57.0 L 39.0 58.0 L 38.0 59.0 L 37.0 59.666666666666664 L 36.0 60.333333333333336 L 35.0 60.666666666666664 L 34.0 61.333333333333336 L 33.0 62.0 L 32.333333333333336 63.0 L 32.0 64.0 L 32.0 65.0 L 32.333333333333336 66.0 L 33.0 67.0 L 34.0 67.66666666666667 L 35.0 68.0 L 36.0 67.66666666666667 L 37.0 67.0 L 38.0 66.33333333333333 L 39.0 65.66666666666667 L 40.0 65.33333333333333 L 41.0 64.66666666666667 L 42.0 64.33333333333333 L 43.0 64.33333333333333 L 44.0 65.0 L 44.333333333333336 66.0 L 44.0 67.0 L 43.0 68.0 L 42.0 68.66666666666667 L 41.0 69.33333333333333 L 40.0 70.0 L 39.0 70.66666666666667 L 38.0 71.33333333333333 L 37.0 71.66666666666667 L 36.0 72.0 L 35.0 72.33333333333333 L 34.333333333333336 73.0 L 34.333333333333336 74.0 L 34.666666666666664 75.0 L 35.0 76.0 L 35.0 77.0 L 35.333333333333336 78.0 L 36.0 78.66666666666667 L 37.0 79.0 L 38.0 78.66666666666667 L 39.0 78.0 L 40.0 77.33333333333333 L 41.0 76.66666666666667 L 42.0 76.33333333333333 L 43.0 75.66666666666667 L 44.0 75.0 L 45.0 74.66666666666667 L 46.0 75.0 L 46.666666666666664 76.0 L 46.666666666666664 77.0 L 46.0 78.0 L 45.0 79.0 L 44.0 80.0 L 43.0 80.66666666666667 L 42.0 81.33333333333333 L 41.0 81.66666666666667 L 40.0 82.33333333333333 L 39.0 82.66666666666667 L 38.0 83.33333333333333 L 37.333333333333336 84.0 L 37.333333333333336 85.0 L 37.666666666666664 86.0 L 38.0 87.0 L 38.333333333333336 88.0 L 38.666666666666664 89.0 L 39.333333333333336 90.0 L 39.666666666666664 91.0 L 40.333333333333336 92.0 L 41.0 93.0 L 42.0 94.0 L 43.0 94.66666666666667 L 44.0 95.33333333333333 L 45.0 95.66666666666667 L 46.0 96.33333333333333 L 47.0 96.66666666666667 L 48.0 97.0 L 49.0 97.33333333333333 L 49.666666666666664 98.0 L 50.0 99.0 L 50.333333333333336 100.0 L 50.666666666666664 101.0 L 51.333333333333336 102.0 L 51.666666666666664 103.0 L 52.0 104.0 L 52.333333333333336 105.0 L 52.666666666666664 106.0 L 53.0 107.0 L 53.333333333333336 108.0 L 53.666666666666664 109.0 L 54.333333333333336 110.0 L 54.666666666666664 111.0 L 55.333333333333336 112.0 L 55.666666666666664 113.0 L 56.333333333333336 114.0 L 57.0 114.66666666666667 L 58.0 115.33333333333333 L 58.5 115.5 Z" stroke="none" fill="rgb(130,174,192)" />
<path d="M 58.5 19.0 L 59.0 19.0 L 60.0 19.0 L 61.0 19.0 L 62.0 19.0 L 63.0 19.0 L 64.0 19.0 L 65.0 19.0 L 66.0 18.666666666666668 L 67.0 18.333333333333332 L 68.0 18.0 L 69.0 18.333333333333332 L 69.66666666666667 19.0 L 70.33333333333333 20.0 L 70.33333333333333 21.0 L 70.0 22.0 L 69.0 22.666666666666668 L 68.0 23.0 L 67.0 23.0 L 66.0 23.0 L 65.0 23.0 L 64.33333333333333 23.333333333333332 L 64.0 24.0 L 64.0 25.0 L 64.0 26.0 L 64.0 27.0 L 64.0 28.0 L 64.33333333333333 28.666666666666668 L 65.0 29.0 L 66.0 29.0 L 67.0 29.0 L 68.0 29.0 L 69.0 29.0 L 70.0 29.0 L 71.0 29.0 L 72.0 29.333333333333332 L 72.66666666666667 30.0 L 73.33333333333333 31.0 L 73.33333333333333 32.0 L 73.0 33.0 L 72.0 33.666666666666664 L 71.0 34.0 L 70.0 34.0 L 69.0 34.0 L 68.0 34.0 L 67.33333333333333 34.333333333333336 L 67.0 35.0 L 67.0 36.0 L 66.66666666666667 37.0 L 66.33333333333333 38.0 L 66.0 39.0 L 66.33333333333333 39.666666666666664 L 67.0 40.0 L 68.0 40.0 L 69.0 40.0 L 70.0 40.0 L 71.0 40.0 L 72.0 40.0 L 73.0 40.0 L 74.0 40.0 L 75.0 40.333333333333336 L 76.0 41.0 L 76.66666666666667 42.0 L 76.66666666666667 43.0 L 76.0 44.0 L 75.0 44.666666666666664 L 74.0 45.0 L 73.0 45.0 L 72.0 45.0 L 71.0 45.0 L 70.0 45.0 L 69.0 45.333333333333336 L 68.0 45.666666666666664 L 67.0 46.0 L 66.33333333333333 46.333333333333336 L 66.0 47.0 L 66.0 48.0 L 66.0 49.0 L 66.33333333333333 50.0 L 67.0 51.0 L 68.0 51.666666666666664 L 69.0 52.0 L 70.0 52.0 L 71.0 52.0 L 72.0 52.0 L 73.0 52.0 L 74.0 52.0 L 75.0 52.0 L 76.0 52.0 L 77.0 52.0 L 78.0 52.0 L 79.0 52.333333333333336 L 79.66666666666667 53.0 L 79.66666666666667 54.0 L 79.0 55.0 L 78.0 55.666666666666664 L 77.0 56.0 L 76.0 56.0 L 75.0 56.0 L 74.0 56.0 L 73.0 56.333333333333336 L 72.0 56.666666666666664 L 71.0 57.0 L 70.0 57.0 L 69.0 57.333333333333336 L 68.33333333333333 58.0 L 68.33333333333333 59.0 L 68.66666666666667 60.0 L 69.33333333333333 61.0 L 70.0 62.0 L 71.0 62.666666666666664 L 72.0 63.0 L 73.0 63.0 L 74.0 63.0 L 75.0 63.0 L 76.0 63.0 L 77.0 63.0 L 78.0 63.0 L 79.0 63.0 L 80.0 63.0 L 81.0 63.0 L 82.0 63.333333333333336 L 82.66666666666667 64.0 L 82.66666666666667 65.0 L 82.0 66.0 L 81.0 66.66666666666667 L 80.0 67.0 L 79.0 67.0 L 78.0 67.0 L 77.0 67.33333333333333 L 76.0 67.66666666666667 L 75.0 68.0 L 74.0 68.0 L 73.0 68.0 L 72.0 68.33333333333333 L 71.33333333333333 69.0 L 71.0 70.0 L 71.0 71.0 L 71.0 72.0 L 71.0 73.0 L 71.0 74.0 L 71.0 75.0 L 71.0 76.0 L 71.0 77.0 L 71.0 78.0 L 71.0 79.0 L 71.33333333333333 80.0 L 72.0 81.0 L 73.0 82.0 L 74.0 83.0 L 75.0 84.0 L 76.0 84.66666666666667 L 77.0 85.0 L 77.66666666666667 84.66666666666667 L 77.66666666666667 84.0 L 77.66666666666667 83.0 L 77.66666666666667 82.0 L 78.0 81.0 L 78.0 80.0 L 78.0 79.0 L 78.0 78.0 L 78.0 77.0 L 78.0 76.0 L 78.0 75.0 L 78.33333333333333 74.0 L 79.0 73.33333333333333 L 80.0 73.33333333333333 L 81.0 74.0 L 81.66666666666667 75.0 L 82.0 76.0 L 82.0 77.0 L 82.0 78.0 L 82.0 79.0 L 82.0 80.0 L 82.0 81.0 L 82.0 82.0 L 82.0 83.0 L 82.33333333333333 84.0 L 83.0 84.66666666666667 L 84.0 85.0 L 85.0 85.33333333333333 L 86.0 85.66666666666667 L 87.0 85.66666666666667 L 87.66666666666667 85.0 L 88.0 84.0 L 88.0 83.0 L 88.0 82.0 L 88.0 81.0 L 88.0 80.0 L 88.0 79.0 L 88.0 78.0 L 88.0 77.0 L 88.0 76.0 L 88.0 75.0 L 88.0 74.0 L 88.33333333333333 73.0 L 89.0 72.33333333333333 L 90.0 72.33333333333333 L 91.0 73.0 L 91.66666666666667 74.0 L 92.0 75.0 L 92.0 76.0 L 92.0 77.0 L 92.0 78.0 L 92.0 79.0 L 92.0 80.0 L 92.0 81.0 L 92.33333333333333 82.0 L 93.0 83.0 L 94.0 83.66666666666667 L 95.0 84.0 L 96.0 83.66666666666667 L 96.66666666666667 83.0 L 97.0 82.0 L 97.0 81.0 L 97.0 80.0 L 97.0 79.0 L 97.0 78.0 L 97.0 77.0 L 97.0 76.0 L 97.0 75.0 L 97.0 74.0 L 97.33333333333333 73.0 L 98.0 72.66666666666667 L 99.0 73.0 L 100.0 74.0 L 100.66666666666667 75.0 L 101.0 76.0 L 101.0 77.0 L 101.33333333333333 78.0 L 102.0 78.66666666666667 L 103.0 79.0 L 103.66666666666667 78.66666666666667 L 104.0 78.0 L 104.0 77.0 L 104.0 76.0 L 104.0 75.0 L 104.0 74.0 L 104.0 73.0 L 103.66666666666667 72.0 L 103.33333333333333 71.0 L 103.0 70.0 L 103.0 69.0 L 103.0 68.0 L 102.66666666666667 67.0 L 102.0 66.33333333333333 L 101.0 66.0 L 100.0 66.0 L 99.0 66.0 L 98.0 66.0 L 97.0 66.0 L 96.0 65.66666666666667 L 95.0 65.0 L 94.33333333333333 64.0 L 94.33333333333333 63.0 L 95.0 62.333333333333336 L 96.0 62.0 L 97.0 62.0 L 98.0 62.0 L 99.0 62.0 L 100.0 62.0 L 100.66666666666667 61.666666666666664 L 101.0 61.0 L 101.0 60.0 L 100.66666666666667 59.0 L 100.33333333333333 58.0 L 100.0 57.0 L 100.0 56.0 L 99.66666666666667 55.333333333333336 L 99.0 55.0 L 98.0 55.0 L 97.0 55.0 L 96.0 55.0 L 95.0 55.0 L 94.0 55.0 L 93.0 55.0 L 92.0 54.666666666666664 L 91.33333333333333 54.0 L 91.0 53.0 L 91.33333333333333 52.0 L 92.0 51.333333333333336 L 93.0 51.0 L 94.0 51.0 L 95.0 51.0 L 96.0 51.0 L 97.0 51.0 L 97.66666666666667 50.666666666666664 L 98.0 50.0 L 98.0 49.0 L 97.66666666666667 48.0 L 97.33333333333333 47.0 L 97.0 46.0 L 97.0 45.0 L 96.66666666666667 44.333333333333336 L 96.0 44.0 L 95.0 44.0 L 94.0 44.0 L 93.0 44.0 L 92.0 44.0 L 91.0 44.0 L 90.0 44.0 L 89.0 43.666666666666664 L 88.33333333333333 43.0 L 88.0 42.0 L 88.33333333333333 41.0 L 89.0 40.333333333333336 L 90.0 40.0 L 91.0 40.0 L 92.0 40.0 L 93.0 40.0 L 94.0 40.0 L 94.66666666666667 39.666666666666664 L 95.0 39.0 L 95.0 38.0 L 94.66666666666667 37.0 L 94.33333333333333 36.0 L 94.0 35.0 L 93.66666666666667 34.0 L 93.0 33.333333333333336 L 92.0 33.0 L 91.0 33.0 L 90.0 33.0 L 89.0 33.0 L 88.0 33.0 L 87.0 33.0 L 86.0 32.666666666666664 L 85.33333333333333 32.0 L 85.0 31.0 L 85.33333333333333 30.0 L 86.0 29.333333333333332 L 87.0 29.0 L 88.0 29.0 L 89.0 29.0 L 90.0 29.0 L 91.0 29.0 L 91.66666666666667 28.666666666666668 L 92.0 28.0 L 91.66666666666667 27.0 L 91.33333333333333 26.0 L 91.0 25.0 L 90.66666666666667 24.0 L 90.0 23.0 L 89.0 22.333333333333332 L 88.0 22.0 L 87.0 22.0 L 86.0 22.0 L 85.0 22.0 L 84.0 22.0 L 83.0 21.666666666666668 L 82.0 21.0 L 81.33333333333333 20.0 L 81.33333333333333 19.0 L 82.0 18.333333333333332 L 83.0 18.0 L 84.0 18.0 L 85.0 18.0 L 86.0 18.0 L 87.0 18.0 L 87.66666666666667 17.666666666666668 L 88.0 17.0 L 87.66666666666667 16.0 L 87.33333333333333 15.0 L 86.66666666666667 14.0 L 86.33333333333333 13.0 L 85.66666666666667 12.0 L 85.0 11.0 L 84.33333333333333 10.0 L 83.66666666666667 9.0 L 83.0 8.333333333333334 L 82.0 8.0 L 81.0 8.333333333333334 L 80.33333333333333 9.0 L 80.0 10.0 L 79.66666666666667 11.0 L 79.0 11.333333333333334 L 78.0 11.0 L 77.0 10.0 L 76.0 9.0 L 75.0 8.333333333333334 L 74.0 8.0 L 73.33333333333333 8.333333333333334 L 73.0 9.0 L 73.0 10.0 L 72.66666666666667 11.0 L 72.0 12.0 L 71.0 12.333333333333334 L 70.0 12.0 L 69.0 11.0 L 68.33333333333333 10.0 L 67.66666666666667 9.0 L 67.0 8.0 L 66.0 7.0 L 65.0 6.333333333333333 L 64.0 6.0 L 63.333333333333336 6.333333333333333 L 63.0 7.0 L 63.0 8.0 L 63.333333333333336 9.0 L 63.666666666666664 10.0 L 64.0 11.0 L 64.0 12.0 L 63.666666666666664 13.0 L 63.0 13.666666666666666 L 62.0 13.666666666666666 L 61.0 13.0 L 60.0 12.0 L 59.0 11.0 L 58.0 10.0 L 57.0 9.0 L 56.0 8.333333333333334 L 55.0 7.666666666666667 L 54.0 7.333333333333333 L 53.0 7.0 L 52.0 7.0 L 51.0 7.0 L 50.0 7.0 L 49.0 7.0 L 48.0 7.0 L 47.0 7.0 L 46.0 7.0 L 45.0 7.0 L 44.0 7.0 L 43.0 7.0 L 42.0 7.333333333333333 L 41.0 7.666666666666667 L 40.0 8.333333333333334 L 39.0 8.666666666666666 L 38.0 9.333333333333334 L 37.0 10.0 L 36.0 11.0 L 35.0 11.666666666666666 L 34.0 12.333333333333334 L 33.0 13.0 L 32.0 14.0 L 31.0 15.0 L 30.333333333333332 16.0 L 30.0 17.0 L 30.333333333333332 17.666666666666668 L 31.0 18.0 L 32.0 17.666666666666668 L 33.0 17.333333333333332 L 34.0 16.666666666666668 L 35.0 16.0 L 36.0 15.333333333333334 L 37.0 15.0 L 38.0 14.666666666666666 L 39.0 14.333333333333334 L 40.0 14.0 L 41.0 13.666666666666666 L 42.0 13.333333333333334 L 43.0 13.0 L 44.0 13.0 L 45.0 13.0 L 46.0 13.0 L 47.0 13.0 L 47.666666666666664 12.666666666666666 L 48.333333333333336 12.0 L 49.0 11.333333333333334 L 50.0 11.0 L 51.0 11.0 L 52.0 11.0 L 53.0 11.0 L 54.0 11.333333333333334 L 55.0 12.0 L 56.0 13.0 L 57.0 14.0 L 57.666666666666664 15.0 L 58.0 16.0 L 58.0 17.0 L 58.0 18.0 L 58.0 18.5 Z" stroke="none" fill="rgb(185,228,234)" />
<path d="M 72.5 115.0 L 73.0 115.0 L 74.0 115.0 L 75.0 114.66666666666667 L 75.66666666666667 114.0 L 76.33333333333333 113.0 L 76.66666666666667 112.0 L 77.0 111.0 L 77.0 110.0 L 77.0 109.0 L 77.0 108.0 L 77.0 107.0 L 77.0 106.0 L 77.33333333333333 105.0 L 78.0 104.33333333333333 L 79.0 104.0 L 80.0 104.0 L 81.0 104.0 L 82.0 104.0 L 83.0 104.0 L 84.0 104.33333333333333 L 84.66666666666667 105.0 L 85.0 106.0 L 85.0 107.0 L 85.0 108.0 L 85.0 109.0 L 85.0 110.0 L 84.66666666666667 111.0 L 84.33333333333333 112.0 L 84.0 113.0 L 84.33333333333333 113.66666666666667 L 85.0 114.0 L 86.0 114.0 L 87.0 113.66666666666667 L 88.0 113.33333333333333 L 89.0 112.66666666666667 L 90.0 112.0 L 90.66666666666667 111.0 L 91.0 110.0 L 91.33333333333333 109.0 L 91.66666666666667 108.0 L 92.0 107.0 L 92.0 106.0 L 92.0 105.0 L 92.0 104.0 L 91.66666666666667 103.0 L 91.33333333333333 102.0 L 91.0 101.0 L 91.0 100.0 L 90.66666666666667 99.0 L 90.33333333333333 98.0 L 90.0 97.0 L 89.66666666666667 96.0 L 89.0 95.33333333333333 L 88.0 95.0 L 87.0 95.0 L 86.0 95.33333333333333 L 85.0 95.66666666666667 L 84.0 96.0 L 83.0 96.0 L 82.0 96.0 L 81.0 96.0 L 80.0 96.0 L 79.0 96.0 L 78.0 96.0 L 77.0 96.0 L 76.0 96.0 L 75.0 96.0 L 74.0 96.0 L 73.0 96.0 L 72.0 96.0 L 71.0 96.0 L 70.0 96.33333333333333 L 69.0 96.66666666666667 L 68.33333333333333 97.33333333333333 L 68.0 98.0 L 68.0 99.0 L 68.0 100.0 L 68.0 101.0 L 68.0 102.0 L 68.33333333333333 103.0 L 68.66666666666667 104.0 L 69.0 105.0 L 69.0 106.0 L 69.33333333333333 107.0 L 69.66666666666667 108.0 L 70.0 109.0 L 70.0 110.0 L 69.66666666666667 111.0 L 69.0 112.0 L 68.33333333333333 113.0 L 68.0 114.0 L 68.33333333333333 114.66666666666667 L 69.0 115.0 L 70.0 115.0 L 71.0 115.0 L 71.5 115.0 Z" stroke="none" fill="rgb(185,228,234)" />
<path d="M 53.5 39.5 L 54.0 39.0 L 55.0 38.333333333333336 L 56.0 37.666666666666664 L 57.0 37.333333333333336 L 58.0 36.666666666666664 L 59.0 36.333333333333336 L 60.0 36.0 L 61.0 36.0 L 62.0 36.0 L 62.666666666666664 35.666666666666664 L 63.0 35.0 L 62.666666666666664 34.0 L 62.333333333333336 33.0 L 61.666666666666664 32.0 L 61.0 31.333333333333332 L 60.0 31.0 L 59.0 31.0 L 58.0 31.333333333333332 L 57.0 31.666666666666668 L 56.0 32.333333333333336 L 55.0 32.666666666666664 L 54.0 33.333333333333336 L 53.0 33.666666666666664 L 52.0 34.333333333333336 L 51.0 34.666666666666664 L 50.0 35.333333333333336 L 49.0 36.0 L 48.0 36.666666666666664 L 47.0 37.333333333333336 L 46.333333333333336 38.0 L 46.0 39.0 L 46.0 40.0 L 46.333333333333336 40.666666666666664 L 47.0 41.0 L 48.0 41.0 L 49.0 41.0 L 50.0 41.0 L 51.0 40.666666666666664 L 52.0 40.333333333333336 L 52.5 40.0 Z" stroke="none" fill="rgb(66,66,66)" />
<path d="M 56.5 62.5 L 57.0 62.333333333333336 L 58.0 61.666666666666664 L 59.0 61.333333333333336 L 60.0 60.666666666666664 L 61.0 60.333333333333336 L 62.0 59.666666666666664 L 63.0 59.333333333333336 L 64.0 58.666666666666664 L 65.0 58.333333333333336 L 66.0 58.0 L 67.0 58.0 L 68.0 58.0 L 68.66666666666667 57.666666666666664 L 69.0 57.0 L 68.66666666666667 56.0 L 68.33333333333333 55.0 L 67.66666666666667 54.0 L 67.0 53.333333333333336 L 66.0 53.0 L 65.0 53.0 L 64.0 53.333333333333336 L 63.0 53.666666666666664 L 62.0 54.333333333333336 L 61.0 54.666666666666664 L 60.0 55.333333333333336 L 59.0 55.666666666666664 L 58.0 56.333333333333336 L 57.0 56.666666666666664 L 56.0 57.333333333333336 L 55.0 57.666666666666664 L 54.0 58.333333333333336 L 53.0 58.666666666666664 L 52.333333333333336 59.333333333333336 L 52.0 60.0 L 52.0 61.0 L 52.333333333333336 62.0 L 53.0 62.666666666666664 L 54.0 63.0 L 55.0 63.0 L 55.5 63.0 Z" stroke="none" fill="rgb(66,66,66)" />
<path d="M 56.5 73.0 L 57.0 73.0 L 58.0 73.0 L 59.0 73.0 L 60.0 73.0 L 61.0 72.66666666666667 L 62.0 72.33333333333333 L 63.0 71.66666666666667 L 64.0 71.33333333333333 L 65.0 70.66666666666667 L 66.0 70.33333333333333 L 67.0 69.66666666666667 L 68.0 69.33333333333333 L 69.0 69.0 L 70.0 69.0 L 71.0 69.0 L 71.66666666666667 68.66666666666667 L 72.0 68.0 L 71.66666666666667 67.0 L 71.0 66.0 L 70.33333333333333 65.0 L 69.66666666666667 64.33333333333333 L 69.0 64.0 L 68.0 64.0 L 67.0 64.33333333333333 L 66.0 64.66666666666667 L 65.0 65.33333333333333 L 64.0 65.66666666666667 L 63.0 66.0 L 62.0 66.33333333333333 L 61.0 66.66666666666667 L 60.0 67.33333333333333 L 59.0 67.66666666666667 L 58.0 68.33333333333333 L 57.0 68.66666666666667 L 56.0 69.33333333333333 L 55.333333333333336 70.0 L 55.0 71.0 L 55.0 72.0 L 55.333333333333336 72.66666666666667 L 55.5 73.0 Z" stroke="none" fill="rgb(66,66,66)" />
<path d="M 53.5 52.0 L 54.0 51.666666666666664 L 55.0 51.0 L 56.0 50.333333333333336 L 57.0 49.666666666666664 L 58.0 49.333333333333336 L 59.0 48.666666666666664 L 60.0 48.333333333333336 L 61.0 47.666666666666664 L 62.0 47.333333333333336 L 63.0 47.0 L 64.0 46.666666666666664 L 65.0 46.333333333333336 L 65.66666666666667 45.666666666666664 L 65.66666666666667 45.0 L 65.33333333333333 44.0 L 64.66666666666667 43.0 L 64.0 42.333333333333336 L 63.0 42.0 L 62.0 42.0 L 61.0 42.333333333333336 L 60.0 42.666666666666664 L 59.0 43.333333333333336 L 58.0 43.666666666666664 L 57.0 44.333333333333336 L 56.0 44.666666666666664 L 55.0 45.333333333333336 L 54.0 45.666666666666664 L 53.0 46.333333333333336 L 52.0 46.666666666666664 L 51.0 47.333333333333336 L 50.0 48.0 L 49.333333333333336 49.0 L 49.0 50.0 L 49.333333333333336 51.0 L 50.0 51.666666666666664 L 51.0 52.0 L 52.0 52.0 L 52.5 52.0 Z" stroke="none" fill="rgb(66,66,66)" />
<path d="M 50.5 28.5 L 51.0 28.333333333333332 L 52.0 27.666666666666668 L 53.0 27.0 L 54.0 26.333333333333332 L 55.0 25.666666666666668 L 56.0 25.333333333333332 L 57.0 24.666666666666668 L 58.0 24.333333333333332 L 58.666666666666664 23.666666666666668 L 59.0 23.0 L 59.0 22.0 L 58.666666666666664 21.0 L 58.0 20.333333333333332 L 57.0 20.0 L 56.0 20.0 L 55.0 20.333333333333332 L 54.0 20.666666666666668 L 53.0 21.333333333333332 L 52.0 21.666666666666668 L 51.0 22.333333333333332 L 50.0 22.666666666666668 L 49.0 23.333333333333332 L 48.0 23.666666666666668 L 47.0 24.333333333333332 L 46.0 25.0 L 45.0 25.666666666666668 L 44.0 26.333333333333332 L 43.333333333333336 27.0 L 43.0 28.0 L 43.0 29.0 L 43.333333333333336 29.666666666666668 L 44.0 30.0 L 45.0 30.0 L 46.0 30.0 L 47.0 30.0 L 48.0 29.666666666666668 L 49.0 29.333333333333332 L 49.5 29.0 Z" stroke="none" fill="rgb(66,66,66)" />
<path d="M 66.0 109.5 L 66.0 109.0 L 66.0 108.0 L 66.0 107.0 L 66.0 106.0 L 65.66666666666667 105.0 L 65.33333333333333 104.0 L 64.66666666666667 103.0 L 64.0 102.0 L 63.0 101.33333333333333 L 62.0 101.0 L 61.0 101.0 L 60.0 101.33333333333333 L 59.0 102.0 L 58.333333333333336 103.0 L 58.0 104.0 L 58.0 105.0 L 58.0 106.0 L 58.0 107.0 L 58.0 108.0 L 58.0 109.0 L 58.333333333333336 110.0 L 59.0 111.0 L 60.0 111.66666666666667 L 61.0 112.0 L 62.0 112.0 L 63.0 112.0 L 64.0 111.66666666666667 L 65.0 111.0 L 65.5 110.5 Z" stroke="none" fill="rgb(47,120,137)" />
<path d="M 75.5 96.0 L 76.0 96.0 L 77.0 96.0 L 78.0 96.0 L 79.0 96.0 L 80.0 96.0 L 81.0 96.0 L 81.66666666666667 95.66666666666667 L 81.66666666666667 95.0 L 81.66666666666667 94.0 L 82.0 93.0 L 83.0 92.0 L 84.0 91.0 L 85.0 90.0 L 85.66666666666667 89.0 L 86.33333333333333 88.0 L 86.66666666666667 87.0 L 86.66666666666667 86.0 L 86.0 85.33333333333333 L 85.0 85.0 L 84.0 85.0 L 83.0 85.0 L 82.0 85.33333333333333 L 81.33333333333333 86.0 L 80.66666666666667 87.0 L 80.0 88.0 L 79.33333333333333 89.0 L 78.66666666666667 90.0 L 78.0 91.0 L 77.0 92.0 L 76.0 93.0 L 75.33333333333333 94.0 L 75.0 95.0 L 75.0 95.5 Z" stroke="none" fill="rgb(130,174,192)" />
<path d="M 55.5 8.5 L 56.0 9.0 L 57.0 10.0 L 58.0 11.0 L 59.0 12.0 L 60.0 13.0 L 61.0 13.666666666666666 L 62.0 14.0 L 63.0 14.0 L 63.666666666666664 13.666666666666666 L 64.0 13.0 L 64.0 12.0 L 64.0 11.0 L 64.0 10.0 L 63.666666666666664 9.0 L 63.0 8.333333333333334 L 62.0 7.666666666666667 L 61.0 7.0 L 60.0 6.0 L 59.0 5.333333333333333 L 58.0 4.666666666666667 L 57.0 4.333333333333333 L 56.0 4.0 L 55.0 4.0 L 54.0 4.0 L 53.0 4.0 L 52.333333333333336 4.333333333333333 L 52.0 5.0 L 52.0 6.0 L 52.333333333333336 6.666666666666667 L 53.0 7.333333333333333 L 54.0 7.666666666666667 L 54.5 8.0 Z" stroke="none" fill="rgb(47,120,137)" />
<path d="M 65.5 45.5 L 66.0 45.666666666666664 L 67.0 46.0 L 68.0 46.0 L 69.0 45.666666666666664 L 70.0 45.333333333333336 L 71.0 45.0 L 72.0 45.0 L 73.0 45.0 L 74.0 45.0 L 75.0 45.0 L 76.0 44.666666666666664 L 76.66666666666667 44.0 L 77.0 43.0 L 77.0 42.0 L 76.66666666666667 41.0 L 76.0 40.333333333333336 L 75.0 40.0 L 74.0 40.0 L 73.0 40.0 L 72.0 40.0 L 71.0 40.0 L 70.0 40.0 L 69.0 40.0 L 68.0 40.0 L 67.0 40.0 L 66.0 40.333333333333336 L 65.0 41.0 L 64.33333333333333 42.0 L 64.33333333333333 43.0 L 64.66666666666667 44.0 L 65.0 44.5 Z" stroke="none" fill="rgb(47,120,137)" />
<path d="M 89.5 95.0 L 90.0 95.0 L 91.0 94.66666666666667 L 92.0 94.33333333333333 L 93.0 94.0 L 94.0 93.66666666666667 L 94.66666666666667 93.0 L 95.0 92.0 L 94.66666666666667 91.0 L 94.33333333333333 90.0 L 94.33333333333333 89.0 L 94.66666666666667 88.0 L 95.0 87.0 L 95.0 86.0 L 95.0 85.0 L 94.66666666666667 84.0 L 94.0 83.33333333333333 L 93.0 83.33333333333333 L 92.0 84.0 L 91.33333333333333 85.0 L 91.0 86.0 L 90.66666666666667 87.0 L 90.33333333333333 88.0 L 89.66666666666667 89.0 L 89.0 90.0 L 88.0 91.0 L 87.0 92.0 L 86.33333333333333 93.0 L 86.0 94.0 L 86.33333333333333 94.66666666666667 L 87.0 95.0 L 88.0 95.0 L 88.5 95.0 Z" stroke="none" fill="rgb(130,174,192)" />
<path d="M 75.0 95.5 L 75.33333333333333 95.0 L 76.0 94.0 L 77.0 93.0 L 78.0 92.0 L 78.66666666666667 91.0 L 79.33333333333333 90.0 L 80.0 89.0 L 80.66666666666667 88.0 L 81.0 87.0 L 81.0 86.0 L 80.66666666666667 85.33333333333333 L 80.0 85.0 L 79.0 85.0 L 78.0 85.0 L 77.0 85.0 L 76.33333333333333 85.33333333333333 L 75.66666666666667 86.0 L 75.33333333333333 87.0 L 74.66666666666667 88.0 L 74.0 89.0 L 73.33333333333333 90.0 L 72.66666666666667 91.0 L 72.0 92.0 L 71.0 93.0 L 70.33333333333333 94.0 L 70.0 95.0 L 70.33333333333333 95.66666666666667 L 71.0 96.0 L 72.0 96.0 L 73.0 96.0 L 74.0 96.0 L 74.5 96.0 Z" stroke="none" fill="rgb(66,66,66)" />
<path d="M 65.5 34.5 L 66.0 34.666666666666664 L 67.0 34.666666666666664 L 68.0 34.333333333333336 L 69.0 34.0 L 70.0 34.0 L 71.0 34.0 L 72.0 34.0 L 73.0 33.666666666666664 L 73.66666666666667 33.0 L 74.0 32.0 L 73.66666666666667 31.0 L 73.33333333333333 30.0 L 72.66666666666667 29.333333333333332 L 72.0 29.0 L 71.0 29.0 L 70.0 29.0 L 69.0 29.0 L 68.0 29.0 L 67.0 29.0 L 66.0 29.0 L 65.0 29.0 L 64.0 29.333333333333332 L 63.0 29.666666666666668 L 62.0 30.333333333333332 L 61.333333333333336 31.0 L 61.333333333333336 32.0 L 61.666666666666664 33.0 L 62.333333333333336 33.666666666666664 L 63.0 34.0 L 64.0 34.0 L 64.5 34.0 Z" stroke="none" fill="rgb(47,120,137)" />
<path d="M 85.5 96.0 L 85.66666666666667 95.66666666666667 L 86.0 95.0 L 86.33333333333333 94.0 L 87.0 93.0 L 88.0 92.0 L 89.0 91.0 L 89.66666666666667 90.0 L 90.33333333333333 89.0 L 90.66666666666667 88.0 L 91.0 87.0 L 91.0 86.0 L 90.66666666666667 85.0 L 90.0 84.33333333333333 L 89.0 84.0 L 88.0 84.33333333333333 L 87.33333333333333 85.0 L 86.66666666666667 86.0 L 86.33333333333333 87.0 L 85.66666666666667 88.0 L 85.0 89.0 L 84.0 90.0 L 83.0 91.0 L 82.0 92.0 L 81.33333333333333 93.0 L 81.0 94.0 L 81.33333333333333 95.0 L 82.0 95.66666666666667 L 83.0 96.0 L 84.0 96.0 L 84.5 96.0 Z" stroke="none" fill="rgb(66,66,66)" />
<path d="M 63.5 24.0 L 64.0 23.666666666666668 L 65.0 23.333333333333332 L 66.0 23.0 L 67.0 23.0 L 68.0 23.0 L 69.0 23.0 L 70.0 22.666666666666668 L 70.66666666666667 22.0 L 71.0 21.0 L 70.66666666666667 20.0 L 70.33333333333333 19.0 L 69.66666666666667 18.333333333333332 L 69.0 18.0 L 68.0 18.0 L 67.0 18.0 L 66.0 18.333333333333332 L 65.0 18.666666666666668 L 64.0 19.0 L 63.0 19.0 L 62.0 19.0 L 61.0 19.0 L 60.0 19.0 L 59.0 19.0 L 58.333333333333336 19.333333333333332 L 58.0 20.0 L 58.333333333333336 21.0 L 58.666666666666664 22.0 L 59.333333333333336 22.666666666666668 L 60.0 23.0 L 61.0 23.0 L 62.0 23.333333333333332 L 62.5 23.5 Z" stroke="none" fill="rgb(47,120,137)" />
<path d="M 72.5 57.0 L 73.0 56.666666666666664 L 74.0 56.333333333333336 L 75.0 56.0 L 76.0 56.0 L 77.0 56.0 L 78.0 56.0 L 79.0 55.666666666666664 L 79.66666666666667 55.0 L 80.0 54.0 L 80.0 53.0 L 79.66666666666667 52.0 L 79.0 51.333333333333336 L 78.0 51.333333333333336 L 77.0 51.666666666666664 L 76.0 52.0 L 75.0 52.0 L 74.0 52.0 L 73.0 52.0 L 72.0 52.0 L 71.0 52.0 L 70.0 52.0 L 69.0 52.0 L 68.0 52.333333333333336 L 67.33333333333333 53.0 L 67.33333333333333 54.0 L 67.66666666666667 55.0 L 68.33333333333333 56.0 L 69.0 56.666666666666664 L 70.0 57.0 L 71.0 57.0 L 71.5 57.0 Z" stroke="none" fill="rgb(47,120,137)" />
<path d="M 72.5 68.0 L 73.0 68.0 L 74.0 68.0 L 75.0 68.0 L 76.0 68.0 L 77.0 67.66666666666667 L 78.0 67.33333333333333 L 79.0 67.0 L 80.0 67.0 L 81.0 67.0 L 82.0 66.66666666666667 L 82.66666666666667 66.0 L 83.0 65.0 L 83.0 64.0 L 82.66666666666667 63.333333333333336 L 82.0 63.0 L 81.0 63.0 L 80.0 63.0 L 79.0 63.0 L 78.0 63.0 L 77.0 63.0 L 76.0 63.0 L 75.0 63.0 L 74.0 63.0 L 73.0 63.0 L 72.0 63.0 L 71.0 63.333333333333336 L 70.33333333333333 64.0 L 70.0 65.0 L 70.33333333333333 66.0 L 71.0 67.0 L 71.5 67.5 Z" stroke="none" fill="rgb(47,120,137)" />
<path d="M 82.5 85.5 L 82.66666666666667 85.0 L 82.66666666666667 84.0 L 82.33333333333333 83.0 L 82.0 82.0 L 82.0 81.0 L 82.0 80.0 L 82.0 79.0 L 82.0 78.0 L 82.0 77.0 L 82.0 76.0 L 82.0 75.0 L 81.66666666666667 74.0 L 81.0 73.0 L 80.0 72.33333333333333 L 79.0 72.33333333333333 L 78.33333333333333 73.0 L 78.0 74.0 L 78.0 75.0 L 78.0 76.0 L 78.0 77.0 L 78.0 78.0 L 78.0 79.0 L 78.0 80.0 L 77.66666666666667 81.0 L 77.33333333333333 82.0 L 77.0 83.0 L 77.33333333333333 84.0 L 78.0 84.66666666666667 L 79.0 85.0 L 80.0 85.33333333333333 L 81.0 85.66666666666667 L 81.5 86.0 Z" stroke="none" fill="rgb(47,120,137)" />
<path d="M 92.5 84.5 L 92.66666666666667 84.0 L 93.0 83.0 L 92.66666666666667 82.0 L 92.33333333333333 81.0 L 92.0 80.0 L 92.0 79.0 L 92.0 78.0 L 92.0 77.0 L 92.0 76.0 L 92.0 75.0 L 92.0 74.0 L 91.66666666666667 73.0 L 91.0 72.0 L 90.0 71.33333333333333 L 89.0 71.33333333333333 L 88.33333333333333 72.0 L 88.0 73.0 L 88.0 74.0 L 88.0 75.0 L 88.0 76.0 L 88.0 77.0 L 88.0 78.0 L 88.0 79.0 L 88.0 80.0 L 88.0 81.0 L 88.0 82.0 L 88.0 83.0 L 88.33333333333333 83.66666666666667 L 89.0 84.33333333333333 L 90.0 84.66666666666667 L 91.0 85.0 L 91.5 85.0 Z" stroke="none" fill="rgb(47,120,137)" />
<path d="M 53.5 17.5 L 54.0 18.0 L 55.0 19.0 L 56.0 19.666666666666668 L 57.0 20.0 L 57.666666666666664 19.666666666666668 L 58.0 19.0 L 58.0 18.0 L 58.0 17.0 L 58.0 16.0 L 58.0 15.0 L 57.666666666666664 14.0 L 57.0 13.0 L 56.0 12.0 L 55.0 11.333333333333334 L 54.0 11.0 L 53.0 11.0 L 52.0 11.0 L 51.0 11.0 L 50.0 11.0 L 49.0 11.0 L 48.333333333333336 11.333333333333334 L 48.0 12.0 L 48.0 13.0 L 48.333333333333336 13.666666666666666 L 49.0 14.0 L 50.0 14.333333333333334 L 51.0 15.0 L 52.0 16.0 L 52.5 16.5 Z" stroke="none" fill="rgb(254,255,255)" />
<path d="M 32.5 61.5 L 33.0 61.666666666666664 L 34.0 61.666666666666664 L 35.0 61.333333333333336 L 36.0 60.666666666666664 L 37.0 60.333333333333336 L 38.0 59.666666666666664 L 39.0 59.0 L 40.0 58.0 L 41.0 57.0 L 41.666666666666664 56.0 L 42.0 55.0 L 41.666666666666664 54.0 L 41.0 53.333333333333336 L 40.0 53.0 L 39.0 53.333333333333336 L 38.0 53.666666666666664 L 37.0 54.333333333333336 L 36.0 54.666666666666664 L 35.0 55.333333333333336 L 34.0 56.0 L 33.0 56.666666666666664 L 32.0 57.333333333333336 L 31.333333333333332 58.0 L 31.0 59.0 L 31.333333333333332 60.0 L 31.5 60.5 Z" stroke="none" fill="rgb(66,66,66)" />
<path d="M 39.5 71.0 L 40.0 70.66666666666667 L 41.0 70.0 L 42.0 69.33333333333333 L 43.0 68.66666666666667 L 44.0 68.0 L 44.666666666666664 67.0 L 45.0 66.0 L 44.666666666666664 65.0 L 44.0 64.33333333333333 L 43.0 64.0 L 42.0 64.0 L 41.0 64.33333333333333 L 40.0 64.66666666666667 L 39.0 65.33333333333333 L 38.0 65.66666666666667 L 37.0 66.33333333333333 L 36.0 67.0 L 35.0 67.66666666666667 L 34.333333333333336 68.33333333333333 L 34.0 69.0 L 34.0 70.0 L 34.333333333333336 71.0 L 35.0 71.66666666666667 L 36.0 72.0 L 37.0 72.0 L 38.0 71.66666666666667 L 38.5 71.5 Z" stroke="none" fill="rgb(66,66,66)" />
<path d="M 46.5 78.5 L 46.666666666666664 78.0 L 47.0 77.0 L 47.0 76.0 L 46.666666666666664 75.0 L 46.0 74.33333333333333 L 45.0 74.0 L 44.0 74.33333333333333 L 43.0 75.0 L 42.0 75.66666666666667 L 41.0 76.33333333333333 L 40.0 76.66666666666667 L 39.0 77.33333333333333 L 38.0 78.0 L 37.333333333333336 79.0 L 37.0 80.0 L 37.0 81.0 L 37.333333333333336 82.0 L 38.0 82.66666666666667 L 39.0 83.0 L 40.0 82.66666666666667 L 41.0 82.33333333333333 L 42.0 81.66666666666667 L 43.0 81.33333333333333 L 44.0 80.66666666666667 L 45.0 80.0 L 45.5 79.5 Z" stroke="none" fill="rgb(66,66,66)" />
<path d="M 30.5 39.5 L 31.0 39.333333333333336 L 32.0 38.666666666666664 L 33.0 38.333333333333336 L 34.0 37.666666666666664 L 35.0 37.0 L 35.666666666666664 36.0 L 36.0 35.0 L 36.0 34.0 L 36.0 33.0 L 35.666666666666664 32.333333333333336 L 35.0 32.0 L 34.0 32.0 L 33.0 32.333333333333336 L 32.0 32.666666666666664 L 31.0 33.333333333333336 L 30.0 33.666666666666664 L 29.0 34.333333333333336 L 28.0 35.0 L 27.0 35.666666666666664 L 26.333333333333332 36.333333333333336 L 26.0 37.0 L 26.0 38.0 L 26.333333333333332 39.0 L 27.0 39.666666666666664 L 28.0 40.0 L 29.0 40.0 L 29.5 40.0 Z" stroke="none" fill="rgb(66,66,66)" />
<path d="M 37.5 47.5 L 38.0 47.0 L 38.666666666666664 46.0 L 39.0 45.0 L 39.0 44.0 L 38.666666666666664 43.0 L 38.0 42.333333333333336 L 37.0 42.333333333333336 L 36.0 42.666666666666664 L 35.0 43.333333333333336 L 34.0 43.666666666666664 L 33.0 44.333333333333336 L 32.0 45.0 L 31.0 45.666666666666664 L 30.0 46.333333333333336 L 29.333333333333332 47.0 L 29.0 48.0 L 29.0 49.0 L 29.333333333333332 50.0 L 30.0 50.666666666666664 L 31.0 51.0 L 32.0 50.666666666666664 L 33.0 50.333333333333336 L 34.0 49.666666666666664 L 35.0 49.333333333333336 L 36.0 48.666666666666664 L 36.5 48.5 Z" stroke="none" fill="rgb(66,66,66)" />
<path d="M 72.5 9.0 L 73.0 8.666666666666666 L 74.0 8.333333333333334 L 74.66666666666667 7.666666666666667 L 75.33333333333333 7.0 L 76.0 6.666666666666667 L 77.0 7.0 L 78.0 8.0 L 79.0 8.666666666666666 L 80.0 9.0 L 80.66666666666667 8.666666666666666 L 81.0 8.0 L 80.66666666666667 7.0 L 80.0 6.333333333333333 L 79.0 5.666666666666667 L 78.0 5.333333333333333 L 77.0 5.0 L 76.0 4.666666666666667 L 75.0 4.333333333333333 L 74.0 4.0 L 73.0 4.0 L 72.0 4.0 L 71.0 4.0 L 70.0 4.0 L 69.0 4.0 L 68.33333333333333 4.333333333333333 L 68.33333333333333 5.0 L 69.0 6.0 L 70.0 7.0 L 71.0 8.0 L 71.5 8.5 Z" stroke="none" fill="rgb(0,0,0)" />
<path d="M 101.5 81.5 L 102.0 81.33333333333333 L 102.66666666666667 80.66666666666667 L 103.0 80.0 L 102.66666666666667 79.0 L 102.0 78.0 L 101.33333333333333 77.0 L 101.0 76.0 L 101.0 75.0 L 100.66666666666667 74.0 L 100.0 73.0 L 99.0 72.33333333333333 L 98.0 72.0 L 97.33333333333333 72.33333333333333 L 97.0 73.0 L 97.0 74.0 L 97.0 75.0 L 97.0 76.0 L 97.0 77.0 L 97.0 78.0 L 97.0 79.0 L 97.0 80.0 L 97.0 81.0 L 97.33333333333333 81.66666666666667 L 98.0 82.0 L 99.0 82.0 L 100.0 82.0 L 100.5 82.0 Z" stroke="none" fill="rgb(47,120,137)" />
<path d="M 71.5 13.0 L 72.0 12.666666666666666 L 72.66666666666667 12.0 L 73.0 11.0 L 73.0 10.0 L 72.66666666666667 9.0 L 72.0 8.0 L 71.0 7.0 L 70.0 6.0 L 69.0 5.0 L 68.0 4.333333333333333 L 67.0 4.0 L 66.0 4.0 L 65.33333333333333 4.333333333333333 L 65.0 5.0 L 65.0 6.0 L 65.33333333333333 7.0 L 66.0 8.0 L 67.0 9.0 L 67.66666666666667 10.0 L 68.33333333333333 11.0 L 69.0 12.0 L 70.0 12.666666666666666 L 70.5 13.0 Z" stroke="none" fill="rgb(47,120,137)" />
<path d="M 94.5 91.5 L 95.0 91.66666666666667 L 96.0 92.0 L 97.0 91.66666666666667 L 97.66666666666667 91.0 L 98.0 90.0 L 98.0 89.0 L 98.33333333333333 88.0 L 98.66666666666667 87.0 L 99.33333333333333 86.0 L 99.66666666666667 85.0 L 100.0 84.0 L 100.0 83.0 L 99.66666666666667 82.33333333333333 L 99.0 82.0 L 98.0 82.0 L 97.0 82.33333333333333 L 96.0 83.0 L 95.33333333333333 84.0 L 95.0 85.0 L 95.0 86.0 L 94.66666666666667 87.0 L 94.33333333333333 88.0 L 94.0 89.0 L 94.0 90.0 L 94.0 90.5 Z" stroke="none" fill="rgb(66,66,66)" />
<path d="M 91.5 44.0 L 92.0 44.0 L 93.0 44.0 L 94.0 44.0 L 95.0 44.0 L 95.66666666666667 43.666666666666664 L 96.0 43.0 L 96.0 42.0 L 95.66666666666667 41.0 L 95.0 40.333333333333336 L 94.0 40.0 L 93.0 40.0 L 92.0 40.0 L 91.0 40.0 L 90.0 40.0 L 89.0 40.0 L 88.33333333333333 40.333333333333336 L 88.0 41.0 L 88.0 42.0 L 88.0 43.0 L 88.33333333333333 43.666666666666664 L 89.0 44.0 L 90.0 44.0 L 90.5 44.0 Z" stroke="none" fill="rgb(47,120,137)" />
<path d="M 98.5 55.0 L 98.66666666666667 54.666666666666664 L 99.0 54.0 L 99.0 53.0 L 98.66666666666667 52.0 L 98.0 51.333333333333336 L 97.0 51.0 L 96.0 51.0 L 95.0 51.0 L 94.0 51.0 L 93.0 51.0 L 92.0 51.0 L 91.33333333333333 51.333333333333336 L 91.0 52.0 L 91.0 53.0 L 91.0 54.0 L 91.33333333333333 54.666666666666664 L 92.0 55.0 L 93.0 55.0 L 94.0 55.0 L 95.0 55.0 L 96.0 55.0 L 97.0 55.0 L 97.5 55.0 Z" stroke="none" fill="rgb(47,120,137)" />
<path d="M 81.5 21.5 L 82.0 21.666666666666668 L 83.0 22.0 L 84.0 22.0 L 85.0 22.0 L 86.0 22.0 L 87.0 22.0 L 88.0 22.0 L 88.66666666666667 21.666666666666668 L 89.0 21.0 L 89.0 20.0 L 88.66666666666667 19.0 L 88.0 18.333333333333332 L 87.0 18.0 L 86.0 18.0 L 85.0 18.0 L 84.0 18.0 L 83.0 18.0 L 82.0 18.0 L 81.33333333333333 18.333333333333332 L 81.0 19.0 L 81.0 20.0 L 81.0 20.5 Z" stroke="none" fill="rgb(47,120,137)" />
<path d="M 98.5 66.0 L 99.0 66.0 L 100.0 66.0 L 101.0 66.0 L 101.66666666666667 65.66666666666667 L 102.0 65.0 L 102.0 64.0 L 101.66666666666667 63.0 L 101.0 62.333333333333336 L 100.0 62.0 L 99.0 62.0 L 98.0 62.0 L 97.0 62.0 L 96.0 62.0 L 95.0 62.0 L 94.33333333333333 62.333333333333336 L 94.0 63.0 L 94.0 64.0 L 94.33333333333333 65.0 L 95.0 65.66666666666667 L 96.0 66.0 L 97.0 66.0 L 97.5 66.0 Z" stroke="none" fill="rgb(47,120,137)" />
<path d="M 91.5 33.0 L 92.0 33.0 L 92.66666666666667 32.666666666666664 L 93.0 32.0 L 92.66666666666667 31.0 L 92.0 30.0 L 91.0 29.333333333333332 L 90.0 29.0 L 89.0 29.0 L 88.0 29.0 L 87.0 29.0 L 86.0 29.0 L 85.33333333333333 29.333333333333332 L 85.0 30.0 L 85.0 31.0 L 85.0 32.0 L 85.33333333333333 32.666666666666664 L 86.0 33.0 L 87.0 33.0 L 88.0 33.0 L 89.0 33.0 L 90.0 33.0 L 90.5 33.0 Z" stroke="none" fill="rgb(47,120,137)" />
<path d="M 62.5 30.0 L 63.0 30.0 L 63.666666666666664 29.666666666666668 L 64.0 29.0 L 64.0 28.0 L 64.0 27.0 L 64.0 26.0 L 64.0 25.0 L 63.666666666666664 24.0 L 63.0 23.333333333333332 L 62.0 23.0 L 61.0 23.0 L 60.0 23.0 L 59.333333333333336 23.333333333333332 L 59.0 24.0 L 59.0 25.0 L 59.0 26.0 L 59.333333333333336 27.0 L 60.0 28.0 L 61.0 29.0 L 61.5 29.5 Z" stroke="none" fill="rgb(254,255,255)" />
<path d="M 101.5 87.5 L 101.66666666666667 87.0 L 102.0 86.0 L 102.33333333333333 85.0 L 102.66666666666667 84.0 L 103.0 83.0 L 103.0 82.0 L 102.66666666666667 81.33333333333333 L 102.0 81.0 L 101.0 81.33333333333333 L 100.33333333333333 82.0 L 100.0 83.0 L 99.66666666666667 84.0 L 99.33333333333333 85.0 L 98.66666666666667 86.0 L 98.33333333333333 87.0 L 98.0 88.0 L 98.0 89.0 L 98.33333333333333 89.66666666666667 L 99.0 89.66666666666667 L 100.0 89.0 L 100.5 88.5 Z" stroke="none" fill="rgb(130,174,192)" />
<path d="M 61.5 8.0 L 62.0 8.0 L 62.666666666666664 7.666666666666667 L 63.333333333333336 7.0 L 64.0 6.333333333333333 L 64.66666666666667 5.666666666666667 L 65.0 5.0 L 64.66666666666667 4.333333333333333 L 64.0 4.0 L 63.0 4.0 L 62.0 4.0 L 61.0 4.0 L 60.0 4.0 L 59.0 4.0 L 58.0 4.0 L 57.333333333333336 4.333333333333333 L 57.333333333333336 4.666666666666667 L 58.0 5.333333333333333 L 59.0 6.0 L 60.0 7.0 L 60.5 7.5 Z" stroke="none" fill="rgb(0,0,0)" />
<path d="M 65.5 40.0 L 65.66666666666667 39.666666666666664 L 66.33333333333333 39.0 L 66.66666666666667 38.0 L 67.0 37.0 L 67.0 36.0 L 66.66666666666667 35.0 L 66.0 34.333333333333336 L 65.0 34.0 L 64.0 34.0 L 63.333333333333336 34.333333333333336 L 62.666666666666664 35.0 L 62.333333333333336 36.0 L 62.333333333333336 37.0 L 63.0 38.0 L 64.0 39.0 L 64.5 39.5 Z" stroke="none" fill="rgb(254,255,255)" />
<path d="M 78.5 12.0 L 79.0 12.0 L 79.66666666666667 11.666666666666666 L 80.0 11.0 L 80.0 10.0 L 79.66666666666667 9.0 L 79.0 8.0 L 78.0 7.0 L 77.0 6.333333333333333 L 76.0 6.0 L 75.33333333333333 6.333333333333333 L 75.0 7.0 L 75.0 8.0 L 75.33333333333333 9.0 L 76.0 10.0 L 77.0 11.0 L 77.5 11.5 Z" stroke="none" fill="rgb(47,120,137)" />
<path d="M 50.5 7.0 L 51.0 7.0 L 51.666666666666664 6.666666666666667 L 52.0 6.0 L 51.666666666666664 5.333333333333333 L 51.0 5.0 L 50.0 5.0 L 49.0 5.0 L 48.0 5.333333333333333 L 47.0 5.666666666666667 L 46.0 6.0 L 45.333333333333336 6.333333333333333 L 45.333333333333336 6.666666666666667 L 46.0 7.0 L 47.0 7.0 L 48.0 7.0 L 49.0 7.0 L 49.5 7.0 Z" stroke="none" fill="rgb(0,0,0)" />
<path d="M 30.0 51.5 L 30.0 51.0 L 29.666666666666668 50.0 L 29.333333333333332 49.0 L 29.0 48.0 L 28.666666666666668 47.333333333333336 L 28.333333333333332 47.333333333333336 L 28.0 48.0 L 28.0 49.0 L 28.0 50.0 L 28.333333333333332 51.0 L 29.0 51.666666666666664 L 29.5 52.0 Z" stroke="none" fill="rgb(0,0,0)" />
<path d="M 33.0 62.5 L 33.0 62.0 L 32.666666666666664 61.0 L 32.0 60.333333333333336 L 31.333333333333332 60.333333333333336 L 31.0 61.0 L 31.333333333333332 62.0 L 32.0 62.666666666666664 L 32.5 63.0 Z" stroke="none" fill="rgb(0,0,0)" />
<path d="M 26.0 38.5 L 26.0 38.0 L 26.0 37.0 L 25.666666666666668 36.333333333333336 L 25.333333333333332 36.333333333333336 L 25.0 37.0 L 25.0 38.0 L 25.333333333333332 38.666666666666664 L 25.5 39.0 Z" stroke="none" fill="rgb(0,0,0)" />
<path d="M 33.5 70.0 L 33.666666666666664 69.66666666666667 L 34.0 69.0 L 34.0 68.0 L 33.666666666666664 67.33333333333333 L 33.333333333333336 67.33333333333333 L 33.0 68.0 L 33.0 69.0 L 33.0 69.5 Z" stroke="none" fill="rgb(0,0,0)" />
<path d="M 90.0 22.5 L 90.0 22.0 L 89.66666666666667 21.333333333333332 L 89.33333333333333 21.333333333333332 L 89.0 22.0 L 89.33333333333333 22.666666666666668 L 89.5 23.0 Z" stroke="none" fill="rgb(0,0,0)" />
<path d="M 27.0 40.5 L 27.0 40.0 L 26.666666666666668 39.333333333333336 L 26.333333333333332 39.333333333333336 L 26.0 40.0 L 26.333333333333332 40.666666666666664 L 26.5 41.0 Z" stroke="none" fill="rgb(0,0,0)" />
<path d="M 34.5 73.0 L 34.666666666666664 72.66666666666667 L 35.0 72.0 L 34.666666666666664 71.33333333333333 L 34.333333333333336 71.33333333333333 L 34.0 72.0 L 34.0 72.5 Z" stroke="none" fill="rgb(0,0,0)" />
<path d="M 37.0 80.5 L 37.0 80.0 L 36.666666666666664 79.33333333333333 L 36.333333333333336 79.33333333333333 L 36.0 80.0 L 36.333333333333336 80.66666666666667 L 36.5 81.0 Z" stroke="none" fill="rgb(0,0,0)" />
<path d="M 38.0 83.5 L 38.0 83.0 L 37.666666666666664 82.33333333333333 L 37.333333333333336 82.33333333333333 L 37.0 83.0 L 37.333333333333336 83.66666666666667 L 37.5 84.0 Z" stroke="none" fill="rgb(0,0,0)" />
<path d="M 30.0 18.5 L 29.666666666666668 18.333333333333332 L 29.333333333333332 18.333333333333332 L 29.333333333333332 18.666666666666668 L 29.5 19.0 Z" stroke="none" fill="rgb(0,0,0)" />
<path d="M 88.5 19.0 L 88.66666666666667 18.666666666666668 L 88.66666666666667 18.333333333333332 L 88.33333333333333 18.333333333333332 L 88.0 18.5 Z" stroke="none" fill="rgb(0,0,0)" />
<path d="M 28.5 20.0 L 28.666666666666668 19.666666666666668 L 28.666666666666668 19.333333333333332 L 28.333333333333332 19.333333333333332 L 28.0 19.5 Z" stroke="none" fill="rgb(0,0,0)" />
<path d="M 91.5 30.0 L 91.66666666666667 29.666666666666668 L 91.66666666666667 29.333333333333332 L 91.33333333333333 29.333333333333332 L 91.0 29.5 Z" stroke="none" fill="rgb(0,0,0)" />
<path d="M 28.0 46.5 L 27.666666666666668 46.333333333333336 L 27.333333333333332 46.333333333333336 L 27.333333333333332 46.666666666666664 L 27.5 47.0 Z" stroke="none" fill="rgb(0,0,0)" />
<path d="M 30.5 59.0 L 30.666666666666668 58.666666666666664 L 30.666666666666668 58.333333333333336 L 30.333333333333332 58.333333333333336 L 30.0 58.5 Z" stroke="none" fill="rgb(0,0,0)" />
<path d="M 103.5 80.0 L 103.66666666666667 79.66666666666667 L 103.66666666666667 79.33333333333333 L 103.33333333333333 79.33333333333333 L 103.0 79.5 Z" stroke="none" fill="rgb(0,0,0)" />
<path d="M 96.0 92.5 L 95.66666666666667 92.33333333333333 L 95.33333333333333 92.33333333333333 L 95.33333333333333 92.66666666666667 L 95.5 93.0 Z" stroke="none" fill="rgb(0,0,0)" />
</svg>
