<?xml version="1.0" encoding="UTF-8" standalone="no"?>
<!DOCTYPE svg PUBLIC "-//W3C//DTD SVG 1.1//EN"
"http://www.w3.org/Graphics/SVG/1.1/DTD/svg11.dtd">
<svg width="128" height="128" xmlns="http://www.w3.org/2000/svg" version="1.1">
<path d="M 88.5 128.0 L 89.0 128.0 L 90.0 128.0 L 91.0 128.0 L 92.0 128.0 L 93.0 128.0 L 94.0 128.0 L 95.0 128.0 L 96.0 128.0 L 97.0 128.0 L 98.0 128.0 L 99.0 128.0 L 100.0 128.0 L 101.0 128.0 L 102.0 128.0 L 103.0 128.0 L 104.0 128.0 L 105.0 128.0 L 106.0 128.0 L 107.0 128.0 L 108.0 128.0 L 109.0 128.0 L 110.0 128.0 L 111.0 128.0 L 112.0 128.0 L 113.0 128.0 L 114.0 128.0 L 115.0 128.0 L 116.0 128.0 L 117.0 128.0 L 118.0 128.0 L 119.0 128.0 L 120.0 128.0 L 121.0 128.0 L 122.0 128.0 L 123.0 128.0 L 124.0 128.0 L 125.0 128.0 L 126.0 128.0 L 127.0 128.0 L 127.66666666666667 127.66666666666667 L 128.0 127.0 L 128.0 126.0 L 128.0 125.0 L 128.0 124.0 L 128.0 123.0 L 128.0 122.0 L 128.0 121.0 L 128.0 120.0 L 128.0 119.0 L 128.0 118.0 L 128.0 117.0 L 128.0 116.0 L 128.0 115.0 L 128.0 114.0 L 128.0 113.0 L 128.0 112.0 L 128.0 111.0 L 128.0 110.0 L 128.0 109.0 L 128.0 108.0 L 128.0 107.0 L 128.0 106.0 L 128.0 105.0 L 128.0 104.0 L 128.0 103.0 L 128.0 102.0 L 128.0 101.0 L 128.0 100.0 L 128.0 99.0 L 128.0 98.0 L 128.0 97.0 L 128.0 96.0 L 128.0 95.0 L 128.0 94.0 L 128.0 93.0 L 128.0 92.0 L 128.0 91.0 L 128.0 90.0 L 128.0 89.0 L 128.0 88.0 L 128.0 87.0 L 128.0 86.0 L 128.0 85.0 L 128.0 84.0 L 128.0 83.0 L 128.0 82.0 L 128.0 81.0 L 128.0 80.0 L 128.0 79.0 L 128.0 78.0 L 128.0 77.0 L 128.0 76.0 L 128.0 75.0 L 128.0 74.0 L 128.0 73.0 L 128.0 72.0 L 128.0 71.0 L 128.0 70.0 L 128.0 69.0 L 128.0 68.0 L 128.0 67.0 L 128.0 66.0 L 128.0 65.0 L 128.0 64.0 L 128.0 63.0 L 128.0 62.0 L 128.0 61.0 L 128.0 60.0 L 128.0 59.0 L 128.0 58.0 L 128.0 57.0 L 128.0 56.0 L 128.0 55.0 L 128.0 54.0 L 128.0 53.0 L 128.0 52.0 L 128.0 51.0 L 128.0 50.0 L 128.0 49.0 L 128.0 48.0 L 128.0 47.0 L 128.0 46.0 L 128.0 45.0 L 128.0 44.0 L 128.0 43.0 L 128.0 42.0 L 128.0 41.0 L 128.0 40.0 L 128.0 39.0 L 128.0 38.0 L 128.0 37.0 L 128.0 36.0 L 128.0 35.0 L 128.0 34.0 L 128.0 33.0 L 128.0 32.0 L 128.0 31.0 L 128.0 30.0 L 128.0 29.0 L 128.0 28.0 L 128.0 27.0 L 128.0 26.0 L 128.0 25.0 L 128.0 24.0 L 128.0 23.0 L 128.0 22.0 L 128.0 21.0 L 128.0 20.0 L 128.0 19.0 L 128.0 18.0 L 128.0 17.0 L 128.0 16.0 L 128.0 15.0 L 128.0 14.0 L 128.0 13.0 L 128.0 12.0 L 128.0 11.0 L 128.0 10.0 L 128.0 9.0 L 128.0 8.0 L 128.0 7.0 L 128.0 6.0 L 128.0 5.0 L 128.0 4.0 L 128.0 3.0 L 128.0 2.0 L 128.0 1.0 L 127.66666666666667 0.3333333333333333 L 127.0 0.0 L 126.0 0.0 L 125.0 0.0 L 124.0 0.0 L 123.0 0.0 L 122.0 0.0 L 121.0 0.0 L 120.0 0.0 L 119.0 0.0 L 118.0 0.0 L 117.0 0.0 L 116.0 0.0 L 115.0 0.0 L 114.0 0.0 L 113.0 0.0 L 112.0 0.0 L 111.0 0.0 L 110.0 0.0 L 109.0 0.0 L 108.0 0.0 L 107.0 0.0 L 106.0 0.0 L 105.0 0.0 L 104.0 0.0 L 103.0 0.0 L 102.0 0.0 L 101.0 0.0 L 100.0 0.0 L 99.0 0.0 L 98.0 0.0 L 97.0 0.0 L 96.0 0.0 L 95.0 0.0 L 94.0 0.0 L 93.0 0.0 L 92.0 0.0 L 91.0 0.0 L 90.0 0.0 L 89.0 0.0 L 88.0 0.0 L 87.0 0.0 L 86.0 0.0 L 85.0 0.0 L 84.0 0.0 L 83.0 0.0 L 82.0 0.0 L 81.0 0.0 L 80.0 0.0 L 79.0 0.0 L 78.0 0.0 L 77.0 0.0 L 76.0 0.0 L 75.0 0.0 L 74.0 0.0 L 73.0 0.0 L 72.0 0.0 L 71.0 0.0 L 70.0 0.0 L 69.0 0.0 L 68.0 0.0 L 67.0 0.0 L 66.0 0.0 L 65.0 0.0 L 64.0 0.0 L 63.0 0.0 L 62.0 0.0 L 61.0 0.0 L 60.0 0.0 L 59.0 0.0 L 58.0 0.0 L 57.0 0.0 L 56.0 0.0 L 55.0 0.0 L 54.0 0.0 L 53.0 0.0 L 52.0 0.0 L 51.0 0.0 L 50.0 0.0 L 49.0 0.0 L 48.0 0.0 L 47.0 0.0 L 46.0 0.0 L 45.0 0.0 L 44.0 0.0 L 43.0 0.0 L 42.0 0.0 L 41.0 0.0 L 40.0 0.0 L 39.0 0.0 L 38.0 0.0 L 37.0 0.0 L 36.0 0.0 L 35.0 0.0 L 34.0 0.0 L 33.0 0.0 L 32.0 0.0 L 31.0 0.0 L 30.0 0.0 L 29.0 0.0 L 28.0 0.0 L 27.0 0.0 L 26.0 0.0 L 25.0 0.0 L 24.0 0.0 L 23.0 0.0 L 22.0 0.0 L 21.0 0.0 L 20.0 0.0 L 19.0 0.0 L 18.0 0.0 L 17.0 0.0 L 16.0 0.0 L 15.0 0.0 L 14.0 0.0 L 13.0 0.0 L 12.0 0.0 L 11.0 0.0 L 10.0 0.0 L 9.0 0.0 L 8.0 0.0 L 7.0 0.0 L 6.0 0.0 L 5.0 0.0 L 4.0 0.0 L 3.0 0.0 L 2.0 0.0 L 1.0 0.0 L 0.3333333333333333 0.3333333333333333 L 0.0 1.0 L 0.0 2.0 L 0.0 3.0 L 0.0 4.0 L 0.0 5.0 L 0.0 6.0 L 0.0 7.0 L 0.0 8.0 L 0.0 9.0 L 0.0 10.0 L 0.0 11.0 L 0.0 12.0 L 0.0 13.0 L 0.0 14.0 L 0.0 15.0 L 0.0 16.0 L 0.0 17.0 L 0.0 18.0 L 0.0 19.0 L 0.0 20.0 L 0.0 21.0 L 0.0 22.0 L 0.0 23.0 L 0.0 24.0 L 0.0 25.0 L 0.0 26.0 L 0.0 27.0 L 0.0 28.0 L 0.0 29.0 L 0.0 30.0 L 0.0 31.0 L 0.0 32.0 L 0.0 33.0 L 0.0 34.0 L 0.0 35.0 L 0.0 36.0 L 0.0 37.0 L 0.0 38.0 L 0.0 39.0 L 0.0 40.0 L 0.0 41.0 L 0.0 42.0 L 0.0 43.0 L 0.0 44.0 L 0.0 45.0 L 0.0 46.0 L 0.0 47.0 L 0.0 48.0 L 0.0 49.0 L 0.0 50.0 L 0.0 51.0 L 0.0 52.0 L 0.0 53.0 L 0.0 54.0 L 0.0 55.0 L 0.0 56.0 L 0.0 57.0 L 0.0 58.0 L 0.0 59.0 L 0.0 60.0 L 0.0 61.0 L 0.0 62.0 L 0.0 63.0 L 0.0 64.0 L 0.0 65.0 L 0.0 66.0 L 0.0 67.0 L 0.0 68.0 L 0.0 69.0 L 0.0 70.0 L 0.0 71.0 L 0.0 72.0 L 0.0 73.0 L 0.0 74.0 L 0.0 75.0 L 0.0 76.0 L 0.0 77.0 L 0.0 78.0 L 0.0 79.0 L 0.0 80.0 L 0.0 81.0 L 0.0 82.0 L 0.0 83.0 L 0.0 84.0 L 0.0 85.0 L 0.0 86.0 L 0.0 87.0 L 0.0 88.0 L 0.0 89.0 L 0.0 90.0 L 0.0 91.0 L 0.0 92.0 L 0.0 93.0 L 0.0 94.0 L 0.0 95.0 L 0.0 96.0 L 0.0 97.0 L 0.0 98.0 L 0.0 99.0 L 0.0 100.0 L 0.0 101.0 L 0.0 102.0 L 0.0 103.0 L 0.0 104.0 L 0.0 105.0 L 0.0 106.0 L 0.0 107.0 L 0.0 108.0 L 0.0 109.0 L 0.0 110.0 L 0.0 111.0 L 0.0 112.0 L 0.0 113.0 L 0.0 114.0 L 0.0 115.0 L 0.0 116.0 L 0.0 117.0 L 0.0 118.0 L 0.0 119.0 L 0.0 120.0 L 0.0 121.0 L 0.0 122.0 L 0.0 123.0 L 0.0 124.0 L 0.0 125.0 L 0.0 126.0 L 0.0 127.0 L 0.3333333333333333 127.66666666666667 L 1.0 128.0 L 2.0 128.0 L 3.0 128.0 L 4.0 128.0 L 5.0 128.0 L 6.0 128.0 L 7.0 128.0 L 8.0 128.0 L 9.0 128.0 L 10.0 128.0 L 11.0 128.0 L 12.0 128.0 L 13.0 128.0 L 14.0 128.0 L 15.0 128.0 L 16.0 128.0 L 17.0 128.0 L 18.0 128.0 L 19.0 128.0 L 20.0 128.0 L 21.0 128.0 L 22.0 128.0 L 23.0 128.0 L 24.0 128.0 L 25.0 128.0 L 26.0 128.0 L 27.0 128.0 L 28.0 128.0 L 29.0 128.0 L 30.0 128.0 L 31.0 128.0 L 32.0 128.0 L 33.0 128.0 L 34.0 128.0 L 35.0 128.0 L 36.0 128.0 L 37.0 128.0 L 38.0 128.0 L 39.0 128.0 L 40.0 128.0 L 41.0 128.0 L 42.0 128.0 L 43.0 128.0 L 44.0 128.0 L 45.0 128.0 L 46.0 128.0 L 47.0 128.0 L 48.0 128.0 L 49.0 128.0 L 50.0 128.0 L 51.0 128.0 L 52.0 128.0 L 53.0 128.0 L 54.0 128.0 L 55.0 128.0 L 56.0 128.0 L 57.0 128.0 L 58.0 128.0 L 59.0 128.0 L 60.0 128.0 L 61.0 128.0 L 62.0 128.0 L 63.0 128.0 L 64.0 128.0 L 65.0 128.0 L 66.0 128.0 L 67.0 128.0 L 68.0 128.0 L 69.0 128.0 L 70.0 128.0 L 71.0 128.0 L 72.0 128.0 L 73.0 128.0 L 74.0 128.0 L 75.0 128.0 L 76.0 128.0 L 77.0 128.0 L 78.0 128.0 L 79.0 128.0 L 80.0 128.0 L 81.0 128.0 L 82.0 128.0 L 83.0 128.0 L 84.0 128.0 L 85.0 128.0 L 86.0 128.0 L 87.0 128.0 L 87.5 128.0 Z" stroke="none" fill="rgb(255,255,255)" />
<path d="M 59.5 96.0 L 60.0 96.0 L 60.666666666666664 95.66666666666667 L 61.333333333333336 95.0 L 62.0 94.33333333333333 L 63.0 93.66666666666667 L 64.0 93.0 L 65.0 92.33333333333333 L 66.0 91.66666666666667 L 67.0 91.0 L 68.0 90.0 L 69.0 89.0 L 70.0 88.0 L 71.0 87.0 L 72.0 86.0 L 73.0 85.0 L 74.0 84.0 L 75.0 83.0 L 75.66666666666667 82.0 L 76.33333333333333 81.0 L 77.0 80.0 L 77.66666666666667 79.0 L 78.0 78.0 L 78.0 77.0 L 78.0 76.0 L 78.0 75.0 L 78.0 74.0 L 78.0 73.0 L 78.0 72.0 L 78.0 71.0 L 78.0 70.0 L 78.0 69.0 L 78.0 68.0 L 78.0 67.0 L 78.0 66.0 L 78.0 65.0 L 78.0 64.0 L 78.0 63.0 L 78.0 62.0 L 78.0 61.0 L 78.0 60.0 L 78.0 59.0 L 78.0 58.0 L 78.0 57.0 L 78.0 56.0 L 78.0 55.0 L 78.0 54.0 L 78.0 53.0 L 78.0 52.0 L 78.0 51.0 L 78.0 50.0 L 78.0 49.0 L 77.66666666666667 48.0 L 77.0 47.333333333333336 L 76.0 47.0 L 75.0 47.0 L 74.0 47.0 L 73.33333333333333 47.333333333333336 L 73.0 48.0 L 73.33333333333333 49.0 L 73.33333333333333 50.0 L 73.0 51.0 L 72.0 51.333333333333336 L 71.0 51.333333333333336 L 70.0 51.0 L 69.0 51.0 L 68.0 51.0 L 67.0 51.0 L 66.0 51.0 L 65.0 51.0 L 64.0 51.333333333333336 L 63.0 51.666666666666664 L 62.0 52.0 L 61.0 51.666666666666664 L 60.333333333333336 51.0 L 60.333333333333336 50.0 L 61.0 49.0 L 62.0 48.333333333333336 L 63.0 47.666666666666664 L 63.666666666666664 47.0 L 64.0 46.0 L 63.666666666666664 45.0 L 63.0 44.333333333333336 L 62.0 44.0 L 61.0 43.666666666666664 L 60.0 43.333333333333336 L 59.0 43.0 L 58.0 43.0 L 57.0 43.0 L 56.0 43.0 L 55.0 43.0 L 54.0 43.0 L 53.0 43.0 L 52.0 43.0 L 51.0 43.0 L 50.0 43.0 L 49.0 43.0 L 48.0 43.0 L 47.0 43.0 L 46.0 43.0 L 45.0 43.0 L 44.0 43.0 L 43.0 43.0 L 42.0 43.333333333333336 L 41.0 43.666666666666664 L 40.0 44.0 L 39.0 44.0 L 38.0 44.333333333333336 L 37.333333333333336 45.0 L 37.0 46.0 L 37.333333333333336 46.666666666666664 L 38.0 47.333333333333336 L 39.0 48.0 L 40.0 49.0 L 40.666666666666664 50.0 L 40.666666666666664 51.0 L 40.0 51.666666666666664 L 39.0 51.666666666666664 L 38.0 51.333333333333336 L 37.0 51.0 L 36.0 51.0 L 35.0 51.0 L 34.0 51.0 L 33.0 51.0 L 32.0 51.0 L 31.0 51.333333333333336 L 30.0 51.666666666666664 L 29.0 52.0 L 28.0 51.666666666666664 L 27.333333333333332 51.0 L 27.333333333333332 50.0 L 27.666666666666668 49.0 L 28.0 48.0 L 27.666666666666668 47.333333333333336 L 27.0 47.0 L 26.0 47.0 L 25.0 47.0 L 24.0 47.0 L 23.333333333333332 47.333333333333336 L 23.0 48.0 L 23.0 49.0 L 23.0 50.0 L 22.666666666666668 51.0 L 22.333333333333332 52.0 L 22.0 53.0 L 22.0 54.0 L 22.0 55.0 L 22.0 56.0 L 22.0 57.0 L 22.0 58.0 L 22.0 59.0 L 22.0 60.0 L 22.0 61.0 L 22.0 62.0 L 22.0 63.0 L 22.0 64.0 L 22.0 65.0 L 22.0 66.0 L 22.0 67.0 L 22.0 68.0 L 22.0 69.0 L 22.0 70.0 L 22.0 71.0 L 22.0 72.0 L 22.0 73.0 L 22.0 74.0 L 22.0 75.0 L 22.0 76.0 L 22.333333333333332 77.0 L 22.666666666666668 78.0 L 23.333333333333332 79.0 L 23.666666666666668 80.0 L 24.333333333333332 81.0 L 25.0 82.0 L 26.0 83.0 L 27.0 84.0 L 28.0 85.0 L 29.0 86.0 L 30.0 87.0 L 31.0 88.0 L 32.0 89.0 L 33.0 90.0 L 34.0 91.0 L 35.0 91.66666666666667 L 36.0 92.33333333333333 L 37.0 92.66666666666667 L 38.0 93.33333333333333 L 39.0 94.0 L 40.0 94.66666666666667 L 41.0 95.0 L 42.0 95.0 L 43.0 95.0 L 44.0 95.33333333333333 L 45.0 95.66666666666667 L 46.0 96.0 L 47.0 96.0 L 48.0 96.0 L 49.0 96.0 L 50.0 96.0 L 51.0 96.0 L 52.0 96.0 L 53.0 96.0 L 54.0 96.0 L 55.0 96.0 L 56.0 96.0 L 57.0 95.66666666666667 L 58.0 95.66666666666667 L 58.5 95.5 Z" stroke="none" fill="rgb(224,187,149)" />
<path d="M 23.5 47.0 L 24.0 47.0 L 25.0 47.0 L 26.0 47.0 L 27.0 47.333333333333336 L 28.0 47.666666666666664 L 29.0 48.0 L 30.0 48.0 L 31.0 47.666666666666664 L 32.0 47.333333333333336 L 33.0 47.0 L 34.0 47.0 L 35.0 47.0 L 36.0 47.0 L 36.666666666666664 46.666666666666664 L 37.333333333333336 46.0 L 38.0 45.0 L 39.0 44.333333333333336 L 40.0 44.0 L 41.0 44.0 L 42.0 43.666666666666664 L 43.0 43.333333333333336 L 44.0 43.0 L 45.0 43.0 L 46.0 43.0 L 47.0 43.0 L 48.0 43.0 L 49.0 43.0 L 50.0 43.0 L 51.0 43.0 L 52.0 43.0 L 53.0 43.0 L 54.0 43.0 L 55.0 43.0 L 56.0 43.0 L 57.0 43.0 L 58.0 43.0 L 59.0 43.333333333333336 L 60.0 43.666666666666664 L 61.0 44.0 L 62.0 44.333333333333336 L 63.0 45.0 L 64.0 45.666666666666664 L 65.0 46.0 L 66.0 46.0 L 67.0 46.0 L 68.0 46.333333333333336 L 69.0 46.666666666666664 L 70.0 47.333333333333336 L 71.0 47.666666666666664 L 72.0 48.0 L 73.0 47.666666666666664 L 74.0 47.333333333333336 L 75.0 47.0 L 76.0 47.0 L 77.0 47.0 L 78.0 46.666666666666664 L 79.0 46.333333333333336 L 80.0 45.666666666666664 L 81.0 45.0 L 81.66666666666667 44.0 L 82.0 43.0 L 82.0 42.0 L 81.66666666666667 41.0 L 81.0 40.0 L 80.0 39.0 L 79.0 38.0 L 78.0 37.0 L 77.0 36.333333333333336 L 76.0 35.666666666666664 L 75.0 35.0 L 74.0 34.0 L 73.0 33.333333333333336 L 72.0 32.666666666666664 L 71.0 32.333333333333336 L 70.0 32.0 L 69.0 32.0 L 68.0 31.666666666666668 L 67.0 31.333333333333332 L 66.0 31.0 L 65.0 30.666666666666668 L 64.0 30.333333333333332 L 63.0 30.0 L 62.0 29.666666666666668 L 61.0 29.333333333333332 L 60.0 29.0 L 59.0 29.0 L 58.0 29.0 L 57.0 29.0 L 56.0 28.666666666666668 L 55.0 28.333333333333332 L 54.0 28.0 L 53.0 28.0 L 52.0 28.0 L 51.0 28.0 L 50.0 28.0 L 49.0 28.333333333333332 L 48.0 28.666666666666668 L 47.0 29.0 L 46.0 29.0 L 45.0 29.0 L 44.0 29.0 L 43.0 29.0 L 42.0 29.0 L 41.0 29.0 L 40.0 29.333333333333332 L 39.0 29.666666666666668 L 38.0 30.0 L 37.0 30.0 L 36.0 30.333333333333332 L 35.0 30.666666666666668 L 34.0 31.0 L 33.0 31.0 L 32.0 31.333333333333332 L 31.0 31.666666666666668 L 30.0 32.333333333333336 L 29.0 32.666666666666664 L 28.0 33.0 L 27.0 33.333333333333336 L 26.0 34.0 L 25.0 34.666666666666664 L 24.0 35.0 L 23.0 35.333333333333336 L 22.0 36.0 L 21.0 37.0 L 20.0 38.0 L 19.0 39.0 L 18.333333333333332 40.0 L 18.0 41.0 L 18.0 42.0 L 18.0 43.0 L 18.333333333333332 44.0 L 19.0 44.666666666666664 L 20.0 45.333333333333336 L 21.0 46.0 L 22.0 46.666666666666664 L 22.5 47.0 Z" stroke="none" fill="rgb(94,151,246)" />
<path d="M 103.5 73.0 L 104.0 73.33333333333333 L 105.0 73.66666666666667 L 106.0 74.0 L 107.0 74.0 L 108.0 74.0 L 109.0 74.0 L 110.0 74.0 L 111.0 74.33333333333333 L 112.0 74.66666666666667 L 113.0 75.0 L 114.0 75.0 L 115.0 75.0 L 116.0 75.0 L 117.0 75.33333333333333 L 118.0 75.66666666666667 L 119.0 76.0 L 120.0 76.0 L 121.0 75.66666666666667 L 122.0 75.0 L 122.66666666666667 74.0 L 123.0 73.0 L 123.33333333333333 72.0 L 123.66666666666667 71.0 L 124.0 70.0 L 124.0 69.0 L 124.0 68.0 L 124.0 67.0 L 124.0 66.0 L 124.0 65.0 L 124.0 64.0 L 124.0 63.0 L 124.0 62.0 L 124.0 61.0 L 124.0 60.0 L 123.66666666666667 59.0 L 123.33333333333333 58.0 L 122.66666666666667 57.0 L 122.0 56.0 L 121.0 55.333333333333336 L 120.0 55.0 L 119.0 55.333333333333336 L 118.33333333333333 56.0 L 118.0 57.0 L 118.0 58.0 L 117.66666666666667 59.0 L 117.33333333333333 60.0 L 117.0 61.0 L 117.0 62.0 L 117.0 63.0 L 116.66666666666667 64.0 L 116.0 65.0 L 115.0 65.66666666666667 L 114.0 66.33333333333333 L 113.0 66.66666666666667 L 112.0 67.33333333333333 L 111.0 67.66666666666667 L 110.0 68.33333333333333 L 109.0 68.66666666666667 L 108.0 69.0 L 107.0 68.66666666666667 L 106.0 68.0 L 105.0 67.0 L 104.0 66.0 L 103.0 65.0 L 102.0 64.0 L 101.0 63.0 L 100.33333333333333 62.0 L 100.33333333333333 61.0 L 100.66666666666667 60.0 L 101.0 59.0 L 101.0 58.0 L 101.0 57.0 L 101.33333333333333 56.0 L 101.66666666666667 55.0 L 102.0 54.0 L 101.66666666666667 53.0 L 101.0 52.333333333333336 L 100.0 52.0 L 99.0 52.0 L 98.0 52.0 L 97.0 52.333333333333336 L 96.0 53.0 L 95.33333333333333 54.0 L 94.66666666666667 55.0 L 94.0 56.0 L 93.33333333333333 57.0 L 93.0 58.0 L 92.66666666666667 59.0 L 92.33333333333333 60.0 L 92.0 61.0 L 92.0 62.0 L 92.0 63.0 L 92.0 64.0 L 92.0 65.0 L 92.0 66.0 L 92.0 67.0 L 92.0 68.0 L 92.0 69.0 L 92.0 70.0 L 92.0 71.0 L 92.33333333333333 71.66666666666667 L 93.0 72.0 L 94.0 72.0 L 95.0 72.0 L 96.0 72.0 L 97.0 72.0 L 98.0 72.33333333333333 L 99.0 72.66666666666667 L 100.0 73.0 L 101.0 73.0 L 102.0 73.0 L 102.5 73.0 Z" stroke="none" fill="rgb(139,159,170)" />
<path d="M 23.5 100.0 L 24.0 99.66666666666667 L 25.0 99.33333333333333 L 26.0 99.0 L 27.0 99.0 L 28.0 98.66666666666667 L 29.0 98.33333333333333 L 30.0 98.33333333333333 L 31.0 98.66666666666667 L 32.0 98.66666666666667 L 33.0 98.0 L 34.0 97.33333333333333 L 35.0 97.0 L 36.0 97.0 L 37.0 97.0 L 38.0 96.66666666666667 L 39.0 96.33333333333333 L 40.0 96.0 L 40.666666666666664 95.66666666666667 L 40.666666666666664 95.0 L 40.0 94.0 L 39.0 93.33333333333333 L 38.0 92.66666666666667 L 37.0 92.33333333333333 L 36.0 91.66666666666667 L 35.0 91.0 L 34.0 90.0 L 33.0 89.0 L 32.0 88.0 L 31.0 87.0 L 30.0 86.0 L 29.0 85.0 L 28.0 84.0 L 27.0 83.0 L 26.0 82.0 L 25.0 81.0 L 24.333333333333332 80.0 L 23.666666666666668 79.0 L 23.333333333333332 78.0 L 22.666666666666668 77.0 L 22.333333333333332 76.0 L 22.0 75.0 L 22.0 74.0 L 22.0 73.0 L 22.0 72.0 L 22.0 71.0 L 22.0 70.0 L 22.0 69.0 L 22.0 68.0 L 22.0 67.0 L 22.0 66.0 L 22.0 65.0 L 22.0 64.0 L 22.0 63.0 L 22.0 62.0 L 22.0 61.0 L 22.0 60.0 L 22.0 59.0 L 22.0 58.0 L 22.0 57.0 L 22.0 56.0 L 22.0 55.0 L 22.0 54.0 L 22.333333333333332 53.0 L 22.666666666666668 52.0 L 23.0 51.0 L 23.0 50.0 L 23.0 49.0 L 23.0 48.0 L 22.666666666666668 47.0 L 22.0 46.0 L 21.0 45.333333333333336 L 20.0 44.666666666666664 L 19.0 44.0 L 18.0 43.333333333333336 L 17.0 43.333333333333336 L 16.333333333333332 44.0 L 16.0 45.0 L 16.0 46.0 L 16.0 47.0 L 15.666666666666666 48.0 L 15.333333333333334 49.0 L 15.0 50.0 L 15.0 51.0 L 15.0 52.0 L 15.0 53.0 L 15.0 54.0 L 15.0 55.0 L 14.666666666666666 56.0 L 14.333333333333334 57.0 L 14.0 58.0 L 14.0 59.0 L 14.0 60.0 L 14.0 61.0 L 14.0 62.0 L 14.0 63.0 L 14.0 64.0 L 14.0 65.0 L 14.0 66.0 L 14.0 67.0 L 14.0 68.0 L 14.0 69.0 L 14.0 70.0 L 14.0 71.0 L 14.333333333333334 72.0 L 14.666666666666666 73.0 L 15.0 74.0 L 15.0 75.0 L 15.0 76.0 L 15.0 77.0 L 15.0 78.0 L 15.0 79.0 L 15.333333333333334 80.0 L 15.666666666666666 81.0 L 16.0 82.0 L 16.0 83.0 L 16.0 84.0 L 16.333333333333332 85.0 L 16.666666666666668 86.0 L 17.0 87.0 L 17.333333333333332 88.0 L 17.666666666666668 89.0 L 18.0 90.0 L 18.0 91.0 L 18.333333333333332 92.0 L 18.666666666666668 93.0 L 19.333333333333332 94.0 L 19.666666666666668 95.0 L 20.0 96.0 L 20.333333333333332 97.0 L 20.666666666666668 98.0 L 21.333333333333332 99.0 L 22.0 99.66666666666667 L 22.5 100.0 Z" stroke="none" fill="rgb(171,135,48)" />
<path d="M 72.5 98.5 L 73.0 98.66666666666667 L 74.0 99.0 L 75.0 99.33333333333333 L 76.0 99.66666666666667 L 77.0 100.0 L 78.0 99.66666666666667 L 78.66666666666667 99.0 L 79.33333333333333 98.0 L 79.66666666666667 97.0 L 80.33333333333333 96.0 L 80.66666666666667 95.0 L 81.0 94.0 L 81.33333333333333 93.0 L 81.66666666666667 92.0 L 82.0 91.0 L 82.33333333333333 90.0 L 82.66666666666667 89.0 L 83.0 88.0 L 83.33333333333333 87.0 L 83.66666666666667 86.0 L 84.0 85.0 L 84.0 84.0 L 84.0 83.0 L 84.33333333333333 82.0 L 84.66666666666667 81.0 L 85.0 80.0 L 85.0 79.0 L 85.0 78.0 L 85.0 77.0 L 85.33333333333333 76.0 L 85.66666666666667 75.0 L 86.0 74.0 L 86.0 73.0 L 86.0 72.0 L 86.0 71.0 L 86.0 70.0 L 86.0 69.0 L 86.0 68.0 L 86.0 67.0 L 86.0 66.0 L 86.0 65.0 L 86.0 64.0 L 86.0 63.0 L 86.0 62.0 L 86.0 61.0 L 86.0 60.0 L 86.0 59.0 L 86.0 58.0 L 86.0 57.0 L 86.0 56.0 L 86.0 55.0 L 85.66666666666667 54.0 L 85.33333333333333 53.0 L 85.0 52.0 L 85.0 51.0 L 85.0 50.0 L 85.0 49.0 L 84.66666666666667 48.0 L 84.33333333333333 47.0 L 84.0 46.0 L 84.0 45.0 L 84.0 44.0 L 83.66666666666667 43.333333333333336 L 83.0 43.0 L 82.0 43.333333333333336 L 81.0 44.0 L 80.0 45.0 L 79.0 45.666666666666664 L 78.0 46.333333333333336 L 77.33333333333333 47.0 L 77.33333333333333 48.0 L 77.66666666666667 49.0 L 78.0 50.0 L 78.0 51.0 L 78.0 52.0 L 78.0 53.0 L 78.0 54.0 L 78.0 55.0 L 78.0 56.0 L 78.0 57.0 L 78.0 58.0 L 78.0 59.0 L 78.0 60.0 L 78.0 61.0 L 78.0 62.0 L 78.0 63.0 L 78.0 64.0 L 78.0 65.0 L 78.0 66.0 L 78.0 67.0 L 78.0 68.0 L 78.0 69.0 L 78.0 70.0 L 78.0 71.0 L 78.0 72.0 L 78.0 73.0 L 78.0 74.0 L 78.0 75.0 L 78.0 76.0 L 78.0 77.0 L 77.66666666666667 78.0 L 77.0 79.0 L 76.33333333333333 80.0 L 75.66666666666667 81.0 L 75.0 82.0 L 74.0 83.0 L 73.0 84.0 L 72.0 85.0 L 71.0 86.0 L 70.0 87.0 L 69.0 88.0 L 68.0 89.0 L 67.0 90.0 L 66.0 91.0 L 65.0 91.66666666666667 L 64.0 92.33333333333333 L 63.0 93.0 L 62.0 93.66666666666667 L 61.333333333333336 94.33333333333333 L 61.0 95.0 L 61.333333333333336 95.66666666666667 L 62.0 96.0 L 63.0 96.0 L 64.0 96.0 L 65.0 96.33333333333333 L 66.0 97.0 L 67.0 98.0 L 68.0 98.66666666666667 L 69.0 98.66666666666667 L 70.0 98.33333333333333 L 71.0 98.0 L 71.5 98.0 Z" stroke="none" fill="rgb(171,135,48)" />
<path d="M 39.5 22.0 L 40.0 22.0 L 41.0 22.0 L 42.0 22.0 L 43.0 22.0 L 44.0 22.0 L 45.0 22.0 L 46.0 22.0 L 47.0 22.0 L 48.0 22.0 L 49.0 22.0 L 50.0 22.0 L 51.0 22.0 L 52.0 22.0 L 53.0 22.0 L 54.0 22.0 L 55.0 22.0 L 56.0 22.0 L 57.0 22.0 L 58.0 22.0 L 59.0 22.0 L 60.0 22.0 L 61.0 22.0 L 62.0 22.0 L 63.0 22.0 L 64.0 22.0 L 65.0 22.0 L 66.0 22.0 L 67.0 22.0 L 68.0 22.0 L 69.0 22.0 L 69.66666666666667 21.666666666666668 L 70.0 21.0 L 70.0 20.0 L 70.0 19.0 L 70.0 18.0 L 69.66666666666667 17.0 L 69.0 16.0 L 68.33333333333333 15.0 L 67.66666666666667 14.0 L 67.0 13.0 L 66.0 12.0 L 65.0 11.0 L 64.0 10.0 L 63.0 9.333333333333334 L 62.0 8.666666666666666 L 61.0 8.333333333333334 L 60.0 7.666666666666667 L 59.0 7.333333333333333 L 58.0 6.666666666666667 L 57.0 6.333333333333333 L 56.0 6.0 L 55.0 6.0 L 54.0 6.0 L 53.0 5.666666666666667 L 52.0 5.333333333333333 L 51.0 5.0 L 50.0 5.0 L 49.0 5.0 L 48.0 5.333333333333333 L 47.0 5.666666666666667 L 46.0 6.0 L 45.0 6.0 L 44.0 6.0 L 43.0 6.333333333333333 L 42.0 6.666666666666667 L 41.0 7.0 L 40.0 7.333333333333333 L 39.0 7.666666666666667 L 38.0 8.333333333333334 L 37.0 9.0 L 36.0 10.0 L 35.0 11.0 L 34.0 12.0 L 33.0 13.0 L 32.0 14.0 L 31.333333333333332 15.0 L 30.666666666666668 16.0 L 30.333333333333332 17.0 L 30.0 18.0 L 29.666666666666668 19.0 L 29.333333333333332 20.0 L 29.0 21.0 L 29.333333333333332 21.666666666666668 L 30.0 22.0 L 31.0 22.0 L 32.0 22.0 L 33.0 22.0 L 34.0 22.0 L 35.0 22.0 L 36.0 22.0 L 37.0 22.0 L 38.0 22.0 L 38.5 22.0 Z" stroke="none" fill="rgb(94,151,246)" />
<path d="M 39.5 124.0 L 40.0 124.0 L 41.0 124.0 L 42.0 124.0 L 43.0 124.0 L 44.0 124.0 L 44.666666666666664 123.66666666666667 L 45.0 123.0 L 44.666666666666664 122.0 L 44.0 121.0 L 43.0 120.0 L 42.333333333333336 119.0 L 41.666666666666664 118.0 L 41.0 117.0 L 40.0 116.0 L 39.0 115.33333333333333 L 38.0 115.0 L 37.0 115.0 L 36.0 115.0 L 35.0 115.0 L 34.0 115.0 L 33.0 115.0 L 32.0 115.0 L 31.0 115.0 L 30.0 115.0 L 29.0 115.0 L 28.0 115.0 L 27.0 115.0 L 26.0 115.0 L 25.0 115.0 L 24.0 115.0 L 23.0 115.0 L 22.0 115.0 L 21.0 115.0 L 20.0 115.0 L 19.0 115.0 L 18.0 115.0 L 17.0 115.0 L 16.0 115.0 L 15.0 115.0 L 14.0 115.0 L 13.0 115.0 L 12.0 115.0 L 11.0 115.0 L 10.0 115.0 L 9.0 115.0 L 8.0 115.0 L 7.0 115.0 L 6.0 115.0 L 5.0 115.0 L 4.333333333333333 115.33333333333333 L 4.0 116.0 L 4.0 117.0 L 4.0 118.0 L 4.0 119.0 L 4.0 120.0 L 4.0 121.0 L 4.0 122.0 L 4.0 123.0 L 4.333333333333333 123.66666666666667 L 5.0 124.0 L 6.0 124.0 L 7.0 124.0 L 8.0 124.0 L 9.0 124.0 L 10.0 124.0 L 11.0 124.0 L 12.0 124.0 L 13.0 124.0 L 14.0 124.0 L 15.0 124.0 L 16.0 124.0 L 17.0 124.0 L 18.0 124.0 L 19.0 124.0 L 20.0 124.0 L 21.0 124.0 L 22.0 124.0 L 23.0 124.0 L 24.0 124.0 L 25.0 124.0 L 26.0 124.0 L 27.0 124.0 L 28.0 124.0 L 29.0 124.0 L 30.0 124.0 L 31.0 124.0 L 32.0 124.0 L 33.0 124.0 L 34.0 124.0 L 35.0 124.0 L 36.0 124.0 L 37.0 124.0 L 38.0 124.0 L 38.5 124.0 Z" stroke="none" fill="rgb(33,45,139)" />
<path d="M 24.5 115.0 L 25.0 115.0 L 26.0 115.0 L 27.0 115.0 L 28.0 115.0 L 29.0 115.0 L 30.0 115.0 L 31.0 115.0 L 32.0 115.0 L 33.0 115.0 L 34.0 115.0 L 35.0 115.0 L 36.0 115.0 L 37.0 115.0 L 38.0 115.0 L 38.666666666666664 114.66666666666667 L 39.0 114.0 L 38.666666666666664 113.0 L 38.0 112.0 L 37.0 111.0 L 36.0 110.33333333333333 L 35.0 110.33333333333333 L 34.0 110.66666666666667 L 33.0 111.33333333333333 L 32.0 111.66666666666667 L 31.0 112.0 L 30.0 112.33333333333333 L 29.0 112.66666666666667 L 28.0 113.0 L 27.0 112.66666666666667 L 26.666666666666668 112.0 L 27.0 111.0 L 27.666666666666668 110.0 L 28.0 109.0 L 28.333333333333332 108.0 L 28.666666666666668 107.0 L 29.333333333333332 106.0 L 29.666666666666668 105.0 L 30.333333333333332 104.0 L 30.666666666666668 103.0 L 31.0 102.0 L 31.333333333333332 101.0 L 31.666666666666668 100.0 L 31.666666666666668 99.0 L 31.0 98.33333333333333 L 30.0 98.0 L 29.0 98.0 L 28.0 98.33333333333333 L 27.0 98.66666666666667 L 26.0 99.0 L 25.0 99.0 L 24.0 99.33333333333333 L 23.0 99.66666666666667 L 22.0 100.0 L 21.0 100.33333333333333 L 20.0 100.66666666666667 L 19.0 101.33333333333333 L 18.0 102.0 L 17.0 102.66666666666667 L 16.0 103.0 L 15.0 103.0 L 14.0 103.33333333333333 L 13.0 103.66666666666667 L 12.0 104.33333333333333 L 11.0 105.0 L 10.0 106.0 L 9.0 107.0 L 8.0 108.0 L 7.0 109.0 L 6.333333333333333 110.0 L 5.666666666666667 111.0 L 5.333333333333333 112.0 L 5.0 113.0 L 5.0 114.0 L 5.333333333333333 114.66666666666667 L 6.0 115.0 L 7.0 115.0 L 8.0 115.0 L 9.0 115.0 L 10.0 115.0 L 11.0 115.0 L 12.0 115.0 L 13.0 115.0 L 14.0 115.0 L 15.0 115.0 L 16.0 115.0 L 17.0 115.0 L 18.0 115.0 L 19.0 115.0 L 20.0 115.0 L 21.0 115.0 L 22.0 115.0 L 23.0 115.0 L 23.5 115.0 Z" stroke="none" fill="rgb(42,55,149)" />
<path d="M 104.5 120.5 L 105.0 120.33333333333333 L 106.0 120.0 L 107.0 119.66666666666667 L 108.0 119.0 L 109.0 118.0 L 110.0 117.0 L 110.66666666666667 116.0 L 111.33333333333333 115.0 L 111.66666666666667 114.0 L 112.0 113.0 L 112.0 112.0 L 112.0 111.0 L 112.0 110.0 L 112.0 109.0 L 112.0 108.0 L 112.0 107.0 L 112.0 106.0 L 111.66666666666667 105.0 L 111.33333333333333 104.0 L 110.66666666666667 103.0 L 110.0 102.0 L 109.0 101.0 L 108.0 100.33333333333333 L 107.0 99.66666666666667 L 106.0 99.0 L 105.0 98.33333333333333 L 104.0 97.66666666666667 L 103.0 97.0 L 102.0 96.33333333333333 L 101.0 95.66666666666667 L 100.0 95.33333333333333 L 99.0 95.0 L 98.0 95.0 L 97.0 95.0 L 96.33333333333333 95.33333333333333 L 96.0 96.0 L 96.0 97.0 L 96.0 98.0 L 96.0 99.0 L 96.0 100.0 L 96.0 101.0 L 96.0 102.0 L 96.0 103.0 L 96.0 104.0 L 96.0 105.0 L 96.0 106.0 L 96.0 107.0 L 96.0 108.0 L 96.0 109.0 L 96.0 110.0 L 96.0 111.0 L 96.0 112.0 L 96.0 113.0 L 96.0 114.0 L 96.0 115.0 L 96.0 116.0 L 96.0 117.0 L 96.33333333333333 117.66666666666667 L 97.0 118.33333333333333 L 98.0 118.66666666666667 L 99.0 119.0 L 100.0 119.0 L 101.0 119.33333333333333 L 102.0 120.0 L 103.0 120.66666666666667 L 103.5 121.0 Z" stroke="none" fill="rgb(224,187,149)" />
<path d="M 78.5 124.0 L 79.0 124.0 L 80.0 124.0 L 81.0 124.0 L 82.0 124.0 L 83.0 124.0 L 84.0 124.0 L 85.0 124.0 L 86.0 124.0 L 87.0 124.0 L 88.0 124.0 L 89.0 124.0 L 90.0 124.0 L 91.0 124.0 L 91.66666666666667 123.66666666666667 L 92.0 123.0 L 92.0 122.0 L 92.0 121.0 L 91.66666666666667 120.0 L 91.0 119.0 L 90.0 118.0 L 89.0 117.0 L 88.0 116.0 L 87.0 115.33333333333333 L 86.0 115.0 L 85.0 115.0 L 84.0 115.0 L 83.0 115.0 L 82.0 115.0 L 81.0 115.0 L 80.0 115.0 L 79.0 115.0 L 78.0 115.0 L 77.0 115.0 L 76.0 115.0 L 75.0 115.0 L 74.0 115.0 L 73.0 115.0 L 72.0 115.0 L 71.0 115.0 L 70.0 115.0 L 69.0 115.0 L 68.0 115.0 L 67.0 115.0 L 66.0 115.0 L 65.0 115.0 L 64.0 115.0 L 63.0 115.0 L 62.0 115.33333333333333 L 61.0 116.0 L 60.0 117.0 L 59.0 118.0 L 58.333333333333336 119.0 L 57.666666666666664 120.0 L 57.0 121.0 L 56.333333333333336 122.0 L 56.0 123.0 L 56.333333333333336 123.66666666666667 L 57.0 124.0 L 58.0 124.0 L 59.0 124.0 L 60.0 124.0 L 61.0 124.0 L 62.0 124.0 L 63.0 124.0 L 64.0 124.0 L 65.0 124.0 L 66.0 124.0 L 67.0 124.0 L 68.0 124.0 L 69.0 124.0 L 70.0 124.0 L 71.0 124.0 L 72.0 124.0 L 73.0 124.0 L 74.0 124.0 L 75.0 124.0 L 76.0 124.0 L 77.0 124.0 L 77.5 124.0 Z" stroke="none" fill="rgb(33,45,139)" />
<path d="M 50.5 28.0 L 51.0 28.0 L 52.0 28.0 L 53.0 28.0 L 54.0 28.333333333333332 L 55.0 28.666666666666668 L 56.0 29.0 L 57.0 29.0 L 58.0 29.0 L 59.0 29.0 L 60.0 29.333333333333332 L 61.0 29.666666666666668 L 62.0 30.0 L 63.0 30.333333333333332 L 64.0 30.666666666666668 L 65.0 31.0 L 66.0 31.333333333333332 L 67.0 31.666666666666668 L 68.0 32.0 L 69.0 32.0 L 70.0 32.0 L 71.0 31.666666666666668 L 72.0 31.333333333333332 L 72.66666666666667 30.666666666666668 L 73.0 30.0 L 73.0 29.0 L 73.0 28.0 L 72.66666666666667 27.0 L 72.0 26.333333333333332 L 71.0 26.0 L 70.0 26.0 L 69.0 26.0 L 68.0 26.0 L 67.0 26.0 L 66.0 26.0 L 65.0 26.0 L 64.0 26.0 L 63.0 26.0 L 62.0 26.0 L 61.0 26.0 L 60.0 26.0 L 59.0 26.0 L 58.0 26.0 L 57.0 26.0 L 56.0 26.0 L 55.0 26.0 L 54.0 26.0 L 53.0 26.0 L 52.0 26.0 L 51.0 26.0 L 50.0 26.0 L 49.0 26.0 L 48.0 26.0 L 47.0 26.0 L 46.0 26.0 L 45.0 26.0 L 44.0 26.0 L 43.0 26.0 L 42.0 26.0 L 41.0 26.0 L 40.0 26.0 L 39.0 26.0 L 38.0 26.0 L 37.0 26.0 L 36.0 26.0 L 35.0 26.0 L 34.0 26.0 L 33.0 26.0 L 32.0 26.0 L 31.0 26.0 L 30.0 26.0 L 29.0 26.0 L 28.0 26.0 L 27.333333333333332 26.333333333333332 L 27.0 27.0 L 27.0 28.0 L 27.0 29.0 L 27.0 30.0 L 27.333333333333332 31.0 L 27.666666666666668 32.0 L 28.333333333333332 32.666666666666664 L 29.0 33.0 L 30.0 32.666666666666664 L 31.0 32.333333333333336 L 32.0 31.666666666666668 L 33.0 31.333333333333332 L 34.0 31.0 L 35.0 31.0 L 36.0 30.666666666666668 L 37.0 30.333333333333332 L 38.0 30.0 L 39.0 30.0 L 40.0 29.666666666666668 L 41.0 29.333333333333332 L 42.0 29.0 L 43.0 29.0 L 44.0 29.0 L 45.0 29.0 L 46.0 29.0 L 47.0 29.0 L 48.0 29.0 L 49.0 28.666666666666668 L 49.5 28.5 Z" stroke="none" fill="rgb(63,136,225)" />
<path d="M 74.5 115.0 L 75.0 115.0 L 76.0 115.0 L 77.0 115.0 L 78.0 115.0 L 79.0 115.0 L 80.0 115.0 L 81.0 115.0 L 82.0 115.0 L 83.0 115.0 L 84.0 115.0 L 85.0 115.0 L 86.0 115.33333333333333 L 87.0 115.66666666666667 L 88.0 116.0 L 88.66666666666667 115.66666666666667 L 89.0 115.0 L 89.0 114.0 L 89.0 113.0 L 88.66666666666667 112.0 L 88.0 111.0 L 87.33333333333333 110.0 L 87.33333333333333 109.0 L 87.66666666666667 108.0 L 88.0 107.0 L 88.0 106.0 L 87.66666666666667 105.0 L 87.0 104.0 L 86.0 103.33333333333333 L 85.0 103.0 L 84.0 103.0 L 83.0 102.66666666666667 L 82.0 102.0 L 81.0 101.33333333333333 L 80.0 101.0 L 79.0 100.66666666666667 L 78.0 100.33333333333333 L 77.0 99.66666666666667 L 76.0 99.33333333333333 L 75.0 99.0 L 74.0 98.66666666666667 L 73.0 98.33333333333333 L 72.0 98.0 L 71.0 98.0 L 70.0 98.0 L 69.33333333333333 98.33333333333333 L 69.0 99.0 L 69.0 100.0 L 69.0 101.0 L 69.33333333333333 102.0 L 69.66666666666667 103.0 L 70.33333333333333 104.0 L 70.66666666666667 105.0 L 71.0 106.0 L 71.33333333333333 107.0 L 71.66666666666667 108.0 L 72.33333333333333 109.0 L 73.0 110.0 L 73.66666666666667 111.0 L 73.66666666666667 112.0 L 73.0 112.66666666666667 L 72.0 113.0 L 71.0 112.66666666666667 L 70.0 112.33333333333333 L 69.0 111.66666666666667 L 68.0 111.33333333333333 L 67.0 111.0 L 66.0 111.0 L 65.0 111.0 L 64.0 111.33333333333333 L 63.0 112.0 L 62.333333333333336 113.0 L 62.0 114.0 L 62.333333333333336 114.66666666666667 L 63.0 115.0 L 64.0 115.0 L 65.0 115.0 L 66.0 115.0 L 67.0 115.0 L 68.0 115.0 L 69.0 115.0 L 70.0 115.0 L 71.0 115.0 L 72.0 115.0 L 73.0 115.0 L 73.5 115.0 Z" stroke="none" fill="rgb(42,55,149)" />
<path d="M 110.5 85.5 L 110.66666666666667 85.0 L 111.33333333333333 84.0 L 112.0 83.0 L 113.0 82.33333333333333 L 114.0 81.66666666666667 L 115.0 81.33333333333333 L 116.0 80.66666666666667 L 117.0 80.33333333333333 L 118.0 79.66666666666667 L 119.0 79.0 L 119.66666666666667 78.0 L 120.0 77.0 L 119.66666666666667 76.33333333333333 L 119.0 75.66666666666667 L 118.0 75.33333333333333 L 117.0 75.0 L 116.0 75.0 L 115.0 75.0 L 114.0 75.0 L 113.0 74.66666666666667 L 112.0 74.33333333333333 L 111.0 74.0 L 110.0 74.0 L 109.0 74.0 L 108.0 74.0 L 107.0 74.0 L 106.0 73.66666666666667 L 105.0 73.33333333333333 L 104.0 73.0 L 103.0 73.0 L 102.0 73.0 L 101.0 73.0 L 100.0 72.66666666666667 L 99.0 72.33333333333333 L 98.0 72.0 L 97.0 72.0 L 96.0 72.0 L 95.0 72.0 L 94.0 72.0 L 93.33333333333333 72.33333333333333 L 93.0 73.0 L 93.33333333333333 74.0 L 93.66666666666667 75.0 L 94.33333333333333 76.0 L 95.0 77.0 L 96.0 78.0 L 97.0 79.0 L 97.66666666666667 80.0 L 98.33333333333333 81.0 L 98.66666666666667 82.0 L 99.0 83.0 L 99.33333333333333 83.66666666666667 L 100.0 84.0 L 101.0 84.0 L 102.0 84.33333333333333 L 103.0 84.66666666666667 L 104.0 85.0 L 105.0 85.0 L 106.0 85.0 L 107.0 85.0 L 108.0 85.33333333333333 L 109.0 85.66666666666667 L 109.5 86.0 Z" stroke="none" fill="rgb(131,153,165)" />
<path d="M 87.0 82.5 L 87.0 82.0 L 87.0 81.0 L 87.0 80.0 L 87.0 79.0 L 87.33333333333333 78.0 L 88.0 77.33333333333333 L 88.66666666666667 76.66666666666667 L 89.0 76.0 L 89.0 75.0 L 89.0 74.0 L 89.0 73.0 L 89.0 72.0 L 89.0 71.0 L 89.0 70.0 L 89.0 69.0 L 89.0 68.0 L 89.0 67.0 L 89.0 66.0 L 89.0 65.0 L 89.0 64.0 L 89.0 63.0 L 89.0 62.0 L 89.0 61.0 L 88.66666666666667 60.0 L 88.33333333333333 59.0 L 88.0 58.0 L 88.0 57.0 L 88.0 56.0 L 88.0 55.0 L 88.0 54.0 L 88.0 53.0 L 88.0 52.0 L 88.0 51.0 L 88.0 50.0 L 88.0 49.0 L 88.0 48.0 L 87.66666666666667 47.0 L 87.0 46.0 L 86.33333333333333 45.0 L 85.66666666666667 44.333333333333336 L 85.0 44.0 L 84.33333333333333 44.333333333333336 L 84.0 45.0 L 84.0 46.0 L 84.0 47.0 L 84.33333333333333 48.0 L 84.66666666666667 49.0 L 85.0 50.0 L 85.0 51.0 L 85.0 52.0 L 85.0 53.0 L 85.33333333333333 54.0 L 85.66666666666667 55.0 L 86.0 56.0 L 86.0 57.0 L 86.0 58.0 L 86.0 59.0 L 86.0 60.0 L 86.0 61.0 L 86.0 62.0 L 86.0 63.0 L 86.0 64.0 L 86.0 65.0 L 86.0 66.0 L 86.0 67.0 L 86.0 68.0 L 86.0 69.0 L 86.0 70.0 L 86.0 71.0 L 86.0 72.0 L 86.0 73.0 L 85.66666666666667 74.0 L 85.33333333333333 75.0 L 85.0 76.0 L 85.0 77.0 L 85.0 78.0 L 85.0 79.0 L 84.66666666666667 80.0 L 84.33333333333333 81.0 L 84.0 82.0 L 84.0 83.0 L 84.0 84.0 L 83.66666666666667 85.0 L 83.33333333333333 86.0 L 83.0 87.0 L 82.66666666666667 88.0 L 82.33333333333333 89.0 L 82.0 90.0 L 81.66666666666667 91.0 L 81.33333333333333 92.0 L 81.0 93.0 L 80.66666666666667 94.0 L 80.33333333333333 95.0 L 79.66666666666667 96.0 L 79.33333333333333 97.0 L 78.66666666666667 98.0 L 78.33333333333333 99.0 L 78.0 100.0 L 78.33333333333333 100.66666666666667 L 79.0 101.0 L 80.0 101.0 L 80.66666666666667 100.66666666666667 L 81.33333333333333 100.0 L 81.66666666666667 99.0 L 82.33333333333333 98.0 L 82.66666666666667 97.0 L 83.0 96.0 L 83.33333333333333 95.0 L 83.66666666666667 94.0 L 84.0 93.0 L 84.33333333333333 92.0 L 84.66666666666667 91.0 L 85.0 90.0 L 85.0 89.0 L 85.33333333333333 88.0 L 85.66666666666667 87.0 L 86.0 86.0 L 86.0 85.0 L 86.33333333333333 84.0 L 86.5 83.5 Z" stroke="none" fill="rgb(178,144,62)" />
<path d="M 68.5 26.0 L 69.0 26.0 L 70.0 26.0 L 70.66666666666667 25.666666666666668 L 71.0 25.0 L 71.0 24.0 L 71.0 23.0 L 70.66666666666667 22.333333333333332 L 70.0 22.0 L 69.0 22.0 L 68.0 22.0 L 67.0 22.0 L 66.0 22.0 L 65.0 22.0 L 64.0 22.0 L 63.0 22.0 L 62.0 22.0 L 61.0 22.0 L 60.0 22.0 L 59.0 22.0 L 58.0 22.0 L 57.0 22.0 L 56.0 22.0 L 55.0 22.0 L 54.0 22.0 L 53.0 22.0 L 52.0 22.0 L 51.0 22.0 L 50.0 22.0 L 49.0 22.0 L 48.0 22.0 L 47.0 22.0 L 46.0 22.0 L 45.0 22.0 L 44.0 22.0 L 43.0 22.0 L 42.0 22.0 L 41.0 22.0 L 40.0 22.0 L 39.0 22.0 L 38.0 22.0 L 37.0 22.0 L 36.0 22.0 L 35.0 22.0 L 34.0 22.0 L 33.0 22.0 L 32.0 22.0 L 31.0 22.0 L 30.0 22.0 L 29.0 22.0 L 28.333333333333332 22.333333333333332 L 28.0 23.0 L 28.0 24.0 L 28.0 25.0 L 28.333333333333332 25.666666666666668 L 29.0 26.0 L 30.0 26.0 L 31.0 26.0 L 32.0 26.0 L 33.0 26.0 L 34.0 26.0 L 35.0 26.0 L 36.0 26.0 L 37.0 26.0 L 38.0 26.0 L 39.0 26.0 L 40.0 26.0 L 41.0 26.0 L 42.0 26.0 L 43.0 26.0 L 44.0 26.0 L 45.0 26.0 L 46.0 26.0 L 47.0 26.0 L 48.0 26.0 L 49.0 26.0 L 50.0 26.0 L 51.0 26.0 L 52.0 26.0 L 53.0 26.0 L 54.0 26.0 L 55.0 26.0 L 56.0 26.0 L 57.0 26.0 L 58.0 26.0 L 59.0 26.0 L 60.0 26.0 L 61.0 26.0 L 62.0 26.0 L 63.0 26.0 L 64.0 26.0 L 65.0 26.0 L 66.0 26.0 L 67.0 26.0 L 67.5 26.0 Z" stroke="none" fill="rgb(79,143,235)" />
<path d="M 20.5 101.0 L 21.0 100.66666666666667 L 21.666666666666668 100.0 L 21.666666666666668 99.0 L 21.333333333333332 98.0 L 20.666666666666668 97.0 L 20.333333333333332 96.0 L 20.0 95.0 L 19.666666666666668 94.0 L 19.333333333333332 93.0 L 18.666666666666668 92.0 L 18.333333333333332 91.0 L 18.0 90.0 L 18.0 89.0 L 17.666666666666668 88.0 L 17.333333333333332 87.0 L 17.0 86.0 L 16.666666666666668 85.0 L 16.333333333333332 84.0 L 16.0 83.0 L 16.0 82.0 L 16.0 81.0 L 15.666666666666666 80.0 L 15.333333333333334 79.0 L 15.0 78.0 L 15.0 77.0 L 15.0 76.0 L 15.0 75.0 L 15.0 74.0 L 15.0 73.0 L 14.666666666666666 72.0 L 14.333333333333334 71.0 L 14.0 70.0 L 14.0 69.0 L 14.0 68.0 L 14.0 67.0 L 14.0 66.0 L 14.0 65.0 L 14.0 64.0 L 14.0 63.0 L 14.0 62.0 L 14.0 61.0 L 14.0 60.0 L 14.0 59.0 L 14.333333333333334 58.0 L 14.666666666666666 57.0 L 15.0 56.0 L 15.0 55.0 L 15.0 54.0 L 15.0 53.0 L 15.0 52.0 L 15.0 51.0 L 15.333333333333334 50.0 L 15.666666666666666 49.0 L 16.0 48.0 L 16.0 47.0 L 16.0 46.0 L 16.0 45.0 L 15.666666666666666 44.333333333333336 L 15.0 44.0 L 14.333333333333334 44.333333333333336 L 14.0 45.0 L 13.666666666666666 46.0 L 13.333333333333334 47.0 L 13.0 48.0 L 13.0 49.0 L 13.0 50.0 L 13.0 51.0 L 12.666666666666666 52.0 L 12.333333333333334 53.0 L 12.0 54.0 L 12.0 55.0 L 12.0 56.0 L 12.0 57.0 L 12.0 58.0 L 12.0 59.0 L 12.0 60.0 L 12.0 61.0 L 12.0 62.0 L 12.0 63.0 L 12.0 64.0 L 12.0 65.0 L 12.0 66.0 L 12.0 67.0 L 12.0 68.0 L 12.0 69.0 L 12.0 70.0 L 12.0 71.0 L 12.0 72.0 L 12.0 73.0 L 12.0 74.0 L 12.333333333333334 75.0 L 12.666666666666666 76.0 L 13.0 77.0 L 13.0 78.0 L 13.0 79.0 L 13.0 80.0 L 13.0 81.0 L 13.333333333333334 82.0 L 13.666666666666666 83.0 L 14.0 84.0 L 14.0 85.0 L 14.333333333333334 86.0 L 14.666666666666666 87.0 L 15.0 88.0 L 15.0 89.0 L 15.333333333333334 90.0 L 15.666666666666666 91.0 L 16.0 92.0 L 16.333333333333332 93.0 L 16.666666666666668 94.0 L 17.0 95.0 L 17.333333333333332 96.0 L 17.666666666666668 97.0 L 18.333333333333332 98.0 L 18.666666666666668 99.0 L 19.0 100.0 L 19.333333333333332 100.66666666666667 L 19.5 101.0 Z" stroke="none" fill="rgb(178,144,62)" />
<path d="M 52.0 123.5 L 52.333333333333336 123.0 L 52.666666666666664 122.0 L 53.0 121.0 L 53.0 120.0 L 53.333333333333336 119.0 L 53.666666666666664 118.0 L 54.0 117.0 L 54.333333333333336 116.0 L 54.666666666666664 115.0 L 55.0 114.0 L 55.0 113.0 L 55.333333333333336 112.0 L 55.666666666666664 111.0 L 56.0 110.0 L 56.0 109.0 L 56.0 108.0 L 56.0 107.0 L 56.0 106.0 L 55.666666666666664 105.33333333333333 L 55.0 105.0 L 54.0 105.0 L 53.0 105.0 L 52.0 105.0 L 51.0 105.0 L 50.0 105.0 L 49.0 105.0 L 48.0 105.0 L 47.0 105.0 L 46.0 105.0 L 45.0 105.0 L 44.333333333333336 105.33333333333333 L 44.0 106.0 L 44.0 107.0 L 44.0 108.0 L 44.0 109.0 L 44.333333333333336 110.0 L 44.666666666666664 111.0 L 45.0 112.0 L 45.333333333333336 113.0 L 45.666666666666664 114.0 L 46.0 115.0 L 46.0 116.0 L 46.0 117.0 L 46.333333333333336 118.0 L 46.666666666666664 119.0 L 47.0 120.0 L 47.333333333333336 121.0 L 47.666666666666664 122.0 L 48.0 123.0 L 48.333333333333336 123.66666666666667 L 49.0 124.0 L 50.0 124.0 L 51.0 124.0 L 51.5 124.0 Z" stroke="none" fill="rgb(245,245,245)" />
<path d="M 95.5 118.0 L 95.66666666666667 117.66666666666667 L 96.0 117.0 L 96.0 116.0 L 96.0 115.0 L 96.0 114.0 L 96.0 113.0 L 96.0 112.0 L 96.0 111.0 L 96.0 110.0 L 96.0 109.0 L 96.0 108.0 L 96.0 107.0 L 96.0 106.0 L 96.0 105.0 L 96.0 104.0 L 96.0 103.0 L 96.0 102.0 L 96.0 101.0 L 96.0 100.0 L 96.0 99.0 L 96.0 98.0 L 96.0 97.0 L 96.0 96.0 L 95.66666666666667 95.33333333333333 L 95.0 95.0 L 94.0 95.0 L 93.0 95.0 L 92.0 95.33333333333333 L 91.33333333333333 96.0 L 91.0 97.0 L 91.0 98.0 L 90.66666666666667 99.0 L 90.0 99.66666666666667 L 89.33333333333333 100.33333333333333 L 89.0 101.0 L 89.0 102.0 L 89.0 103.0 L 88.66666666666667 104.0 L 88.33333333333333 105.0 L 88.0 106.0 L 88.0 107.0 L 88.33333333333333 108.0 L 88.66666666666667 109.0 L 89.0 110.0 L 89.0 111.0 L 89.0 112.0 L 89.0 113.0 L 89.0 114.0 L 88.66666666666667 115.0 L 88.33333333333333 116.0 L 88.33333333333333 117.0 L 89.0 118.0 L 90.0 119.0 L 91.0 119.66666666666667 L 92.0 120.0 L 93.0 119.66666666666667 L 94.0 119.0 L 94.5 118.5 Z" stroke="none" fill="rgb(213,175,134)" />
<path d="M 52.5 105.0 L 53.0 105.0 L 54.0 105.0 L 55.0 105.33333333333333 L 56.0 105.66666666666667 L 56.666666666666664 105.66666666666667 L 57.0 105.0 L 57.333333333333336 104.0 L 57.666666666666664 103.0 L 58.0 102.0 L 58.0 101.0 L 58.333333333333336 100.0 L 58.666666666666664 99.0 L 59.0 98.0 L 59.0 97.0 L 59.0 96.0 L 58.666666666666664 95.33333333333333 L 58.0 95.0 L 57.0 95.33333333333333 L 56.0 95.66666666666667 L 55.0 96.0 L 54.0 96.0 L 53.0 96.0 L 52.0 96.0 L 51.0 96.0 L 50.0 96.0 L 49.0 96.0 L 48.0 96.0 L 47.0 96.0 L 46.0 95.66666666666667 L 45.0 95.33333333333333 L 44.0 95.0 L 43.0 95.0 L 42.0 95.0 L 41.333333333333336 95.33333333333333 L 41.0 96.0 L 41.0 97.0 L 41.333333333333336 98.0 L 41.666666666666664 99.0 L 42.0 100.0 L 42.0 101.0 L 42.333333333333336 102.0 L 42.666666666666664 103.0 L 43.333333333333336 104.0 L 44.0 104.66666666666667 L 45.0 105.0 L 46.0 105.0 L 47.0 105.0 L 48.0 105.0 L 49.0 105.0 L 50.0 105.0 L 51.0 105.0 L 51.5 105.0 Z" stroke="none" fill="rgb(195,144,106)" />
<path d="M 104.5 98.5 L 105.0 99.0 L 106.0 99.66666666666667 L 107.0 100.0 L 107.66666666666667 99.66666666666667 L 108.0 99.0 L 108.0 98.0 L 108.0 97.0 L 108.0 96.0 L 108.33333333333333 95.0 L 108.66666666666667 94.0 L 109.0 93.0 L 109.0 92.0 L 109.0 91.0 L 109.33333333333333 90.0 L 109.66666666666667 89.0 L 110.0 88.0 L 110.0 87.0 L 109.66666666666667 86.0 L 109.0 85.33333333333333 L 108.0 85.0 L 107.0 85.0 L 106.0 85.0 L 105.0 85.0 L 104.0 84.66666666666667 L 103.0 84.33333333333333 L 102.0 84.0 L 101.0 84.0 L 100.0 84.0 L 99.33333333333333 84.33333333333333 L 98.66666666666667 85.0 L 98.33333333333333 86.0 L 98.0 87.0 L 98.0 88.0 L 98.0 89.0 L 98.0 90.0 L 97.66666666666667 91.0 L 97.33333333333333 92.0 L 97.0 93.0 L 97.0 94.0 L 97.33333333333333 94.66666666666667 L 98.0 95.0 L 99.0 95.33333333333333 L 100.0 95.66666666666667 L 101.0 96.33333333333333 L 102.0 97.0 L 103.0 97.66666666666667 L 103.5 98.0 Z" stroke="none" fill="rgb(124,144,157)" />
<path d="M 66.5 111.0 L 67.0 111.33333333333333 L 68.0 111.66666666666667 L 69.0 112.33333333333333 L 70.0 112.66666666666667 L 71.0 113.0 L 72.0 113.0 L 73.0 113.0 L 73.66666666666667 112.66666666666667 L 74.0 112.0 L 74.0 111.0 L 73.66666666666667 110.0 L 73.0 109.0 L 72.0 108.33333333333333 L 71.0 108.0 L 70.0 108.0 L 69.0 107.66666666666667 L 68.0 107.33333333333333 L 67.0 107.0 L 66.0 107.0 L 65.0 106.66666666666667 L 64.0 106.33333333333333 L 63.0 106.0 L 62.0 105.66666666666667 L 61.0 105.33333333333333 L 60.0 105.0 L 59.0 105.0 L 58.0 105.0 L 57.0 105.33333333333333 L 56.333333333333336 106.0 L 56.0 107.0 L 56.0 108.0 L 56.0 109.0 L 55.666666666666664 110.0 L 55.333333333333336 111.0 L 55.0 112.0 L 55.0 113.0 L 55.0 114.0 L 55.333333333333336 114.66666666666667 L 56.0 115.0 L 57.0 115.33333333333333 L 58.0 115.66666666666667 L 59.0 116.33333333333333 L 60.0 116.66666666666667 L 61.0 116.66666666666667 L 61.666666666666664 116.0 L 62.0 115.0 L 62.333333333333336 114.0 L 63.0 113.0 L 64.0 112.0 L 65.0 111.33333333333333 L 65.5 111.0 Z" stroke="none" fill="rgb(76,91,182)" />
<path d="M 59.5 80.5 L 60.0 80.0 L 60.666666666666664 79.0 L 61.0 78.0 L 61.0 77.0 L 60.666666666666664 76.33333333333333 L 60.0 76.0 L 59.0 76.0 L 58.0 76.33333333333333 L 57.0 76.66666666666667 L 56.0 77.0 L 55.0 77.0 L 54.0 77.0 L 53.0 77.0 L 52.0 77.0 L 51.0 77.0 L 50.0 77.0 L 49.0 77.0 L 48.0 77.0 L 47.0 77.0 L 46.0 77.0 L 45.0 76.66666666666667 L 44.0 76.33333333333333 L 43.0 76.0 L 42.0 76.0 L 41.0 76.0 L 40.0 76.0 L 39.333333333333336 76.33333333333333 L 39.0 77.0 L 39.0 78.0 L 39.333333333333336 79.0 L 40.0 80.0 L 41.0 81.0 L 42.0 81.66666666666667 L 43.0 82.33333333333333 L 44.0 82.66666666666667 L 45.0 83.0 L 46.0 83.0 L 47.0 83.0 L 48.0 83.0 L 49.0 83.0 L 50.0 83.0 L 51.0 83.0 L 52.0 83.0 L 53.0 83.0 L 54.0 83.0 L 55.0 83.0 L 56.0 83.0 L 57.0 82.66666666666667 L 58.0 82.0 L 58.5 81.5 Z" stroke="none" fill="rgb(109,77,65)" />
<path d="M 43.5 106.0 L 43.666666666666664 105.66666666666667 L 44.0 105.0 L 43.666666666666664 104.0 L 43.333333333333336 103.0 L 42.666666666666664 102.0 L 42.333333333333336 101.0 L 42.0 100.0 L 42.0 99.0 L 41.666666666666664 98.0 L 41.333333333333336 97.0 L 40.666666666666664 96.33333333333333 L 40.0 96.0 L 39.0 96.0 L 38.0 96.33333333333333 L 37.0 96.66666666666667 L 36.0 97.0 L 35.0 97.0 L 34.0 97.0 L 33.0 97.33333333333333 L 32.333333333333336 98.0 L 31.666666666666668 99.0 L 31.333333333333332 100.0 L 31.0 101.0 L 30.666666666666668 102.0 L 30.333333333333332 103.0 L 29.666666666666668 104.0 L 29.333333333333332 105.0 L 28.666666666666668 106.0 L 28.333333333333332 107.0 L 28.0 108.0 L 28.0 109.0 L 28.333333333333332 109.66666666666667 L 29.0 110.0 L 30.0 109.66666666666667 L 31.0 109.33333333333333 L 32.0 109.0 L 33.0 108.66666666666667 L 34.0 108.33333333333333 L 35.0 107.66666666666667 L 36.0 107.33333333333333 L 37.0 107.0 L 38.0 106.66666666666667 L 39.0 106.33333333333333 L 40.0 105.66666666666667 L 41.0 105.33333333333333 L 42.0 105.33333333333333 L 42.5 105.5 Z" stroke="none" fill="rgb(86,101,188)" />
<path d="M 43.5 115.5 L 44.0 115.33333333333333 L 45.0 115.0 L 45.666666666666664 114.66666666666667 L 46.0 114.0 L 45.666666666666664 113.0 L 45.333333333333336 112.0 L 45.0 111.0 L 44.666666666666664 110.0 L 44.333333333333336 109.0 L 44.0 108.0 L 44.0 107.0 L 43.666666666666664 106.0 L 43.0 105.33333333333333 L 42.0 105.0 L 41.0 105.0 L 40.0 105.33333333333333 L 39.0 105.66666666666667 L 38.0 106.33333333333333 L 37.0 106.66666666666667 L 36.0 107.0 L 35.0 107.33333333333333 L 34.0 107.66666666666667 L 33.0 108.33333333333333 L 32.0 108.66666666666667 L 31.0 109.0 L 30.0 109.33333333333333 L 29.0 109.66666666666667 L 28.0 110.0 L 27.0 110.33333333333333 L 26.333333333333332 111.0 L 26.0 112.0 L 26.333333333333332 112.66666666666667 L 27.0 113.0 L 28.0 113.0 L 29.0 113.0 L 30.0 112.66666666666667 L 31.0 112.33333333333333 L 32.0 112.0 L 33.0 111.66666666666667 L 34.0 111.33333333333333 L 35.0 111.0 L 36.0 111.33333333333333 L 37.0 112.0 L 38.0 113.0 L 38.666666666666664 114.0 L 39.0 115.0 L 39.333333333333336 116.0 L 40.0 116.66666666666667 L 41.0 116.66666666666667 L 42.0 116.33333333333333 L 42.5 116.0 Z" stroke="none" fill="rgb(76,91,182)" />
<path d="M 62.5 106.0 L 63.0 106.33333333333333 L 64.0 106.66666666666667 L 65.0 107.0 L 66.0 107.0 L 67.0 107.33333333333333 L 68.0 107.66666666666667 L 69.0 108.0 L 70.0 108.0 L 71.0 108.0 L 71.66666666666667 107.66666666666667 L 71.66666666666667 107.0 L 71.33333333333333 106.0 L 71.0 105.0 L 70.66666666666667 104.0 L 70.33333333333333 103.0 L 69.66666666666667 102.0 L 69.33333333333333 101.0 L 69.0 100.0 L 68.66666666666667 99.0 L 68.0 98.0 L 67.0 97.0 L 66.0 96.33333333333333 L 65.0 96.0 L 64.0 96.0 L 63.0 96.0 L 62.0 96.0 L 61.0 96.0 L 60.0 96.0 L 59.333333333333336 96.33333333333333 L 59.0 97.0 L 58.666666666666664 98.0 L 58.333333333333336 99.0 L 58.0 100.0 L 58.0 101.0 L 57.666666666666664 102.0 L 57.333333333333336 103.0 L 57.0 104.0 L 57.333333333333336 104.66666666666667 L 58.0 105.0 L 59.0 105.0 L 60.0 105.33333333333333 L 61.0 105.66666666666667 L 61.5 106.0 Z" stroke="none" fill="rgb(86,101,188)" />
<path d="M 17.5 103.0 L 18.0 102.66666666666667 L 18.666666666666668 102.0 L 19.0 101.0 L 19.0 100.0 L 19.0 99.0 L 18.666666666666668 98.0 L 18.333333333333332 97.0 L 17.666666666666668 96.0 L 17.333333333333332 95.0 L 17.0 94.0 L 16.666666666666668 93.0 L 16.333333333333332 92.0 L 16.0 91.0 L 15.666666666666666 90.0 L 15.333333333333334 89.0 L 15.0 88.0 L 15.0 87.0 L 14.666666666666666 86.0 L 14.333333333333334 85.0 L 14.0 84.0 L 14.0 83.0 L 13.666666666666666 82.0 L 13.333333333333334 81.0 L 13.0 80.0 L 13.0 79.0 L 13.0 78.0 L 13.0 77.0 L 13.0 76.0 L 12.666666666666666 75.33333333333333 L 12.0 75.0 L 11.333333333333334 75.33333333333333 L 11.0 76.0 L 11.0 77.0 L 11.0 78.0 L 11.0 79.0 L 11.0 80.0 L 11.333333333333334 81.0 L 11.666666666666666 82.0 L 12.0 83.0 L 12.0 84.0 L 12.0 85.0 L 12.0 86.0 L 12.0 87.0 L 12.0 88.0 L 12.0 89.0 L 12.333333333333334 90.0 L 12.666666666666666 91.0 L 13.0 92.0 L 13.0 93.0 L 13.0 94.0 L 13.0 95.0 L 13.333333333333334 96.0 L 13.666666666666666 97.0 L 14.0 98.0 L 14.0 99.0 L 14.333333333333334 100.0 L 14.666666666666666 101.0 L 15.0 102.0 L 15.333333333333334 102.66666666666667 L 16.0 103.0 L 16.5 103.0 Z" stroke="none" fill="rgb(186,153,75)" />
<path d="M 21.5 34.0 L 22.0 34.333333333333336 L 23.0 34.666666666666664 L 24.0 35.0 L 25.0 35.0 L 26.0 34.666666666666664 L 27.0 34.0 L 27.666666666666668 33.0 L 28.0 32.0 L 27.666666666666668 31.0 L 27.333333333333332 30.0 L 27.0 29.0 L 27.0 28.0 L 27.0 27.0 L 26.666666666666668 26.333333333333332 L 26.0 26.0 L 25.0 26.0 L 24.0 26.0 L 23.0 26.0 L 22.0 26.0 L 21.0 26.0 L 20.0 26.0 L 19.0 26.0 L 18.0 26.0 L 17.0 26.333333333333332 L 16.333333333333332 27.0 L 16.0 28.0 L 15.666666666666666 29.0 L 15.333333333333334 30.0 L 15.0 31.0 L 15.0 32.0 L 15.0 33.0 L 15.333333333333334 33.666666666666664 L 16.0 34.0 L 17.0 34.0 L 18.0 34.0 L 19.0 34.0 L 20.0 34.0 L 20.5 34.0 Z" stroke="none" fill="rgb(21,115,196)" />
<path d="M 74.5 35.5 L 75.0 35.666666666666664 L 76.0 36.0 L 76.66666666666667 35.666666666666664 L 77.33333333333333 35.0 L 78.0 34.333333333333336 L 79.0 34.0 L 80.0 34.0 L 81.0 34.0 L 82.0 34.0 L 83.0 34.0 L 84.0 34.0 L 84.66666666666667 33.666666666666664 L 85.0 33.0 L 85.0 32.0 L 85.0 31.0 L 84.66666666666667 30.0 L 84.33333333333333 29.0 L 84.0 28.0 L 83.66666666666667 27.0 L 83.0 26.333333333333332 L 82.0 26.0 L 81.0 26.0 L 80.0 26.0 L 79.0 26.0 L 78.0 26.0 L 77.0 26.0 L 76.0 26.0 L 75.0 26.0 L 74.0 26.0 L 73.33333333333333 26.333333333333332 L 73.0 27.0 L 73.0 28.0 L 73.0 29.0 L 73.0 30.0 L 73.0 31.0 L 73.0 32.0 L 73.0 33.0 L 73.33333333333333 34.0 L 73.5 34.5 Z" stroke="none" fill="rgb(21,115,196)" />
<path d="M 111.5 124.0 L 112.0 124.0 L 113.0 124.0 L 114.0 124.0 L 115.0 124.0 L 115.66666666666667 123.66666666666667 L 116.0 123.0 L 116.0 122.0 L 116.0 121.0 L 116.0 120.0 L 116.0 119.0 L 115.66666666666667 118.0 L 115.33333333333333 117.0 L 115.0 116.0 L 115.0 115.0 L 114.66666666666667 114.0 L 114.33333333333333 113.0 L 113.66666666666667 112.33333333333333 L 113.0 112.0 L 112.33333333333333 112.33333333333333 L 111.66666666666667 113.0 L 111.33333333333333 114.0 L 110.66666666666667 115.0 L 110.0 116.0 L 109.0 117.0 L 108.0 118.0 L 107.0 119.0 L 106.0 119.66666666666667 L 105.0 120.0 L 104.0 120.33333333333333 L 103.33333333333333 121.0 L 103.0 122.0 L 103.0 123.0 L 103.33333333333333 123.66666666666667 L 104.0 124.0 L 105.0 124.0 L 106.0 124.0 L 107.0 124.0 L 108.0 124.0 L 109.0 124.0 L 110.0 124.0 L 110.5 124.0 Z" stroke="none" fill="rgb(33,45,139)" />
<path d="M 72.5 27.0 L 73.0 26.666666666666668 L 74.0 26.333333333333332 L 75.0 26.0 L 76.0 26.0 L 77.0 26.0 L 78.0 26.0 L 79.0 26.0 L 80.0 26.0 L 81.0 26.0 L 81.66666666666667 25.666666666666668 L 82.0 25.0 L 82.0 24.0 L 81.66666666666667 23.0 L 81.33333333333333 22.0 L 80.66666666666667 21.0 L 80.0 20.0 L 79.33333333333333 19.0 L 78.66666666666667 18.0 L 78.0 17.333333333333332 L 77.0 17.0 L 76.0 17.0 L 75.0 17.0 L 74.0 17.0 L 73.0 17.0 L 72.0 17.0 L 71.0 17.0 L 70.33333333333333 17.333333333333332 L 70.0 18.0 L 70.0 19.0 L 70.0 20.0 L 70.0 21.0 L 70.33333333333333 22.0 L 70.66666666666667 23.0 L 71.0 24.0 L 71.0 25.0 L 71.33333333333333 26.0 L 71.5 26.5 Z" stroke="none" fill="rgb(41,125,210)" />
<path d="M 88.0 89.5 L 88.0 89.0 L 88.0 88.0 L 88.0 87.0 L 88.0 86.0 L 88.0 85.0 L 88.0 84.0 L 88.0 83.0 L 88.33333333333333 82.0 L 88.66666666666667 81.0 L 89.0 80.0 L 89.0 79.0 L 89.0 78.0 L 88.66666666666667 77.33333333333333 L 88.0 77.0 L 87.33333333333333 77.33333333333333 L 87.0 78.0 L 87.0 79.0 L 87.0 80.0 L 87.0 81.0 L 86.66666666666667 82.0 L 86.33333333333333 83.0 L 86.0 84.0 L 86.0 85.0 L 85.66666666666667 86.0 L 85.33333333333333 87.0 L 85.0 88.0 L 85.0 89.0 L 84.66666666666667 90.0 L 84.33333333333333 91.0 L 84.0 92.0 L 83.66666666666667 93.0 L 83.33333333333333 94.0 L 83.0 95.0 L 82.66666666666667 96.0 L 82.33333333333333 97.0 L 81.66666666666667 98.0 L 81.33333333333333 99.0 L 81.0 100.0 L 81.0 101.0 L 81.33333333333333 102.0 L 82.0 102.66666666666667 L 83.0 103.0 L 84.0 103.0 L 84.66666666666667 102.66666666666667 L 85.0 102.0 L 85.33333333333333 101.0 L 85.66666666666667 100.0 L 86.0 99.0 L 86.0 98.0 L 86.33333333333333 97.0 L 86.66666666666667 96.0 L 87.0 95.0 L 87.0 94.0 L 87.0 93.0 L 87.0 92.0 L 87.33333333333333 91.0 L 87.5 90.5 Z" stroke="none" fill="rgb(186,153,75)" />
<path d="M 21.5 26.0 L 22.0 26.0 L 23.0 26.0 L 24.0 26.0 L 25.0 26.0 L 26.0 26.0 L 27.0 26.0 L 27.666666666666668 25.666666666666668 L 28.0 25.0 L 28.0 24.0 L 28.333333333333332 23.0 L 28.666666666666668 22.0 L 29.333333333333332 21.0 L 29.666666666666668 20.0 L 30.0 19.0 L 29.666666666666668 18.0 L 29.0 17.333333333333332 L 28.0 17.0 L 27.0 17.0 L 26.0 17.0 L 25.0 17.0 L 24.0 17.0 L 23.0 17.0 L 22.0 17.333333333333332 L 21.0 18.0 L 20.333333333333332 19.0 L 19.666666666666668 20.0 L 19.333333333333332 21.0 L 18.666666666666668 22.0 L 18.333333333333332 23.0 L 18.0 24.0 L 18.0 25.0 L 18.333333333333332 25.666666666666668 L 19.0 26.0 L 20.0 26.0 L 20.5 26.0 Z" stroke="none" fill="rgb(41,125,210)" />
<path d="M 35.5 64.0 L 36.0 64.0 L 37.0 63.666666666666664 L 38.0 63.0 L 39.0 62.0 L 39.666666666666664 61.0 L 40.0 60.0 L 40.0 59.0 L 40.0 58.0 L 39.666666666666664 57.0 L 39.0 56.0 L 38.0 55.0 L 37.0 54.333333333333336 L 36.0 54.0 L 35.0 54.0 L 34.0 54.0 L 33.0 54.333333333333336 L 32.0 55.0 L 31.333333333333332 56.0 L 31.0 57.0 L 31.0 58.0 L 31.0 59.0 L 31.0 60.0 L 31.0 61.0 L 31.333333333333332 62.0 L 32.0 63.0 L 33.0 63.666666666666664 L 34.0 64.0 L 34.5 64.0 Z" stroke="none" fill="rgb(93,64,55)" />
<path d="M 66.5 64.0 L 67.0 64.0 L 68.0 63.666666666666664 L 69.0 63.0 L 69.66666666666667 62.0 L 70.0 61.0 L 70.0 60.0 L 70.0 59.0 L 70.0 58.0 L 70.0 57.0 L 69.66666666666667 56.0 L 69.0 55.0 L 68.0 54.333333333333336 L 67.0 54.0 L 66.0 54.0 L 65.0 54.0 L 64.0 54.333333333333336 L 63.0 55.0 L 62.0 56.0 L 61.333333333333336 57.0 L 61.0 58.0 L 61.0 59.0 L 61.0 60.0 L 61.333333333333336 61.0 L 62.0 62.0 L 63.0 63.0 L 64.0 63.666666666666664 L 65.0 64.0 L 65.5 64.0 Z" stroke="none" fill="rgb(93,64,55)" />
<path d="M 87.0 43.5 L 87.0 43.0 L 87.0 42.0 L 87.0 41.0 L 87.0 40.0 L 87.0 39.0 L 86.66666666666667 38.0 L 86.33333333333333 37.0 L 86.0 36.0 L 86.0 35.0 L 85.66666666666667 34.333333333333336 L 85.0 34.0 L 84.0 34.0 L 83.0 34.0 L 82.0 34.0 L 81.0 34.0 L 80.0 34.0 L 79.0 34.0 L 78.0 34.0 L 77.33333333333333 34.333333333333336 L 77.0 35.0 L 77.0 36.0 L 77.33333333333333 37.0 L 78.0 38.0 L 79.0 39.0 L 80.0 40.0 L 81.0 41.0 L 81.66666666666667 42.0 L 82.33333333333333 42.666666666666664 L 83.0 43.333333333333336 L 84.0 43.666666666666664 L 85.0 44.0 L 86.0 44.0 L 86.5 44.0 Z" stroke="none" fill="rgb(5,106,184)" />
<path d="M 61.5 52.0 L 62.0 52.0 L 63.0 52.0 L 64.0 51.666666666666664 L 65.0 51.333333333333336 L 66.0 51.0 L 67.0 51.0 L 68.0 51.0 L 69.0 51.0 L 70.0 51.333333333333336 L 71.0 51.666666666666664 L 72.0 52.0 L 73.0 51.666666666666664 L 73.66666666666667 51.0 L 74.0 50.0 L 73.66666666666667 49.0 L 73.0 48.333333333333336 L 72.0 47.666666666666664 L 71.0 47.333333333333336 L 70.0 46.666666666666664 L 69.0 46.333333333333336 L 68.0 46.0 L 67.0 46.0 L 66.0 46.0 L 65.0 46.0 L 64.0 46.333333333333336 L 63.0 47.0 L 62.0 47.666666666666664 L 61.0 48.333333333333336 L 60.0 49.0 L 59.333333333333336 50.0 L 59.333333333333336 51.0 L 60.0 51.666666666666664 L 60.5 52.0 Z" stroke="none" fill="rgb(171,135,48)" />
<path d="M 19.5 39.5 L 20.0 39.0 L 21.0 38.0 L 22.0 37.0 L 22.666666666666668 36.0 L 23.0 35.0 L 22.666666666666668 34.333333333333336 L 22.0 34.0 L 21.0 34.0 L 20.0 34.0 L 19.0 34.0 L 18.0 34.0 L 17.0 34.0 L 16.0 34.0 L 15.0 34.0 L 14.333333333333334 34.333333333333336 L 14.0 35.0 L 13.666666666666666 36.0 L 13.333333333333334 37.0 L 13.0 38.0 L 13.0 39.0 L 13.0 40.0 L 13.0 41.0 L 13.0 42.0 L 13.0 43.0 L 13.333333333333334 43.666666666666664 L 14.0 44.0 L 15.0 44.0 L 16.0 44.0 L 17.0 43.666666666666664 L 17.666666666666668 43.0 L 18.0 42.0 L 18.333333333333332 41.0 L 18.5 40.5 Z" stroke="none" fill="rgb(5,106,184)" />
<path d="M 40.5 52.0 L 40.666666666666664 51.666666666666664 L 41.0 51.0 L 41.0 50.0 L 40.666666666666664 49.0 L 40.0 48.0 L 39.0 47.333333333333336 L 38.0 47.0 L 37.0 47.0 L 36.0 47.0 L 35.0 47.0 L 34.0 47.0 L 33.0 47.0 L 32.0 47.0 L 31.0 47.333333333333336 L 30.0 47.666666666666664 L 29.0 48.0 L 28.0 48.333333333333336 L 27.333333333333332 49.0 L 27.0 50.0 L 27.0 51.0 L 27.333333333333332 51.666666666666664 L 28.0 52.0 L 29.0 52.0 L 30.0 52.0 L 31.0 51.666666666666664 L 32.0 51.333333333333336 L 33.0 51.0 L 34.0 51.0 L 35.0 51.0 L 36.0 51.0 L 37.0 51.333333333333336 L 38.0 51.666666666666664 L 39.0 52.0 L 39.5 52.0 Z" stroke="none" fill="rgb(171,135,48)" />
<path d="M 34.5 12.5 L 34.666666666666664 12.0 L 35.0 11.0 L 35.0 10.0 L 34.666666666666664 9.0 L 34.0 8.333333333333334 L 33.0 8.0 L 32.0 8.333333333333334 L 31.0 8.666666666666666 L 30.0 9.333333333333334 L 29.0 10.0 L 28.0 11.0 L 27.0 12.0 L 26.0 12.666666666666666 L 25.0 13.333333333333334 L 24.333333333333332 14.0 L 24.0 15.0 L 24.0 16.0 L 24.333333333333332 16.666666666666668 L 25.0 17.0 L 26.0 17.0 L 27.0 17.0 L 28.0 17.333333333333332 L 29.0 17.666666666666668 L 30.0 17.666666666666668 L 30.666666666666668 17.0 L 31.333333333333332 16.0 L 32.0 15.0 L 33.0 14.0 L 33.5 13.5 Z" stroke="none" fill="rgb(63,136,225)" />
<path d="M 68.5 16.5 L 69.0 16.666666666666668 L 70.0 17.0 L 71.0 17.0 L 72.0 17.0 L 73.0 17.0 L 74.0 17.0 L 75.0 17.0 L 76.0 17.0 L 76.66666666666667 16.666666666666668 L 76.66666666666667 16.0 L 76.33333333333333 15.0 L 75.66666666666667 14.0 L 75.0 13.333333333333334 L 74.0 12.666666666666666 L 73.0 12.0 L 72.0 11.0 L 71.0 10.333333333333334 L 70.0 9.666666666666666 L 69.0 9.0 L 68.0 8.333333333333334 L 67.0 8.0 L 66.0 8.333333333333334 L 65.33333333333333 9.0 L 65.0 10.0 L 65.0 11.0 L 65.33333333333333 12.0 L 66.0 13.0 L 67.0 14.0 L 67.66666666666667 15.0 L 68.0 15.5 Z" stroke="none" fill="rgb(63,136,225)" />
<path d="M 95.5 124.0 L 96.0 124.0 L 97.0 124.0 L 98.0 124.0 L 99.0 124.0 L 100.0 124.0 L 101.0 124.0 L 102.0 124.0 L 102.66666666666667 123.66666666666667 L 103.0 123.0 L 103.0 122.0 L 103.0 121.0 L 102.66666666666667 120.0 L 102.0 119.33333333333333 L 101.0 119.0 L 100.0 119.0 L 99.0 118.66666666666667 L 98.0 118.33333333333333 L 97.0 118.0 L 96.0 118.0 L 95.0 118.0 L 94.0 118.33333333333333 L 93.0 119.0 L 92.33333333333333 120.0 L 92.0 121.0 L 92.0 122.0 L 92.0 123.0 L 92.33333333333333 123.66666666666667 L 93.0 124.0 L 94.0 124.0 L 94.5 124.0 Z" stroke="none" fill="rgb(101,123,140)" />
<path d="M 56.0 123.5 L 56.333333333333336 123.0 L 57.0 122.0 L 57.666666666666664 121.0 L 58.333333333333336 120.0 L 59.0 119.0 L 59.666666666666664 118.0 L 60.0 117.0 L 59.666666666666664 116.33333333333333 L 59.0 115.66666666666667 L 58.0 115.33333333333333 L 57.0 115.0 L 56.0 115.0 L 55.0 115.0 L 54.333333333333336 115.33333333333333 L 54.0 116.0 L 53.666666666666664 117.0 L 53.333333333333336 118.0 L 53.0 119.0 L 53.0 120.0 L 52.666666666666664 121.0 L 52.333333333333336 122.0 L 52.0 123.0 L 52.333333333333336 123.66666666666667 L 53.0 124.0 L 54.0 124.0 L 55.0 124.0 L 55.5 124.0 Z" stroke="none" fill="rgb(62,77,172)" />
<path d="M 49.0 4.5 L 48.666666666666664 4.333333333333333 L 48.0 4.0 L 47.0 4.0 L 46.0 4.0 L 45.0 4.0 L 44.0 4.333333333333333 L 43.0 4.666666666666667 L 42.0 5.0 L 41.0 5.0 L 40.0 5.0 L 39.0 5.333333333333333 L 38.0 5.666666666666667 L 37.0 6.0 L 36.0 6.333333333333333 L 35.0 6.666666666666667 L 34.333333333333336 7.333333333333333 L 34.0 8.0 L 34.333333333333336 9.0 L 34.666666666666664 10.0 L 35.333333333333336 10.666666666666666 L 36.0 10.666666666666666 L 37.0 10.0 L 38.0 9.0 L 39.0 8.333333333333334 L 40.0 7.666666666666667 L 41.0 7.333333333333333 L 42.0 7.0 L 43.0 6.666666666666667 L 44.0 6.333333333333333 L 45.0 6.0 L 46.0 6.0 L 47.0 6.0 L 48.0 5.666666666666667 L 48.5 5.5 Z" stroke="none" fill="rgb(79,143,235)" />
<path d="M 55.5 6.0 L 56.0 6.333333333333333 L 57.0 6.666666666666667 L 58.0 7.333333333333333 L 59.0 7.666666666666667 L 60.0 8.333333333333334 L 61.0 8.666666666666666 L 62.0 9.333333333333334 L 63.0 10.0 L 64.0 10.666666666666666 L 64.66666666666667 10.666666666666666 L 65.33333333333333 10.0 L 65.66666666666667 9.0 L 66.0 8.0 L 65.66666666666667 7.333333333333333 L 65.0 6.666666666666667 L 64.0 6.333333333333333 L 63.0 6.0 L 62.0 5.666666666666667 L 61.0 5.333333333333333 L 60.0 5.0 L 59.0 5.0 L 58.0 5.0 L 57.0 4.666666666666667 L 56.0 4.333333333333333 L 55.0 4.0 L 54.0 4.0 L 53.0 4.0 L 52.333333333333336 4.333333333333333 L 52.0 5.0 L 52.333333333333336 5.666666666666667 L 53.0 6.0 L 54.0 6.0 L 54.5 6.0 Z" stroke="none" fill="rgb(79,143,235)" />
<path d="M 43.5 121.5 L 44.0 122.0 L 44.666666666666664 123.0 L 45.333333333333336 123.66666666666667 L 46.0 124.0 L 47.0 124.0 L 47.666666666666664 123.66666666666667 L 48.0 123.0 L 48.0 122.0 L 47.666666666666664 121.0 L 47.333333333333336 120.0 L 47.0 119.0 L 46.666666666666664 118.0 L 46.333333333333336 117.0 L 46.0 116.0 L 45.666666666666664 115.33333333333333 L 45.0 115.0 L 44.0 115.0 L 43.0 115.33333333333333 L 42.0 115.66666666666667 L 41.333333333333336 116.33333333333333 L 41.0 117.0 L 41.333333333333336 118.0 L 41.666666666666664 119.0 L 42.333333333333336 120.0 L 42.5 120.5 Z" stroke="none" fill="rgb(62,77,172)" />
<path d="M 11.5 75.0 L 11.666666666666666 74.66666666666667 L 12.0 74.0 L 12.0 73.0 L 12.0 72.0 L 12.0 71.0 L 12.0 70.0 L 12.0 69.0 L 12.0 68.0 L 12.0 67.0 L 12.0 66.0 L 12.0 65.0 L 12.0 64.0 L 12.0 63.0 L 12.0 62.0 L 12.0 61.0 L 12.0 60.0 L 12.0 59.0 L 12.0 58.0 L 12.0 57.0 L 12.0 56.0 L 12.0 55.0 L 12.0 54.0 L 11.666666666666666 53.333333333333336 L 11.333333333333334 53.333333333333336 L 11.0 54.0 L 11.0 55.0 L 11.0 56.0 L 11.0 57.0 L 11.0 58.0 L 11.0 59.0 L 11.0 60.0 L 11.0 61.0 L 11.0 62.0 L 11.0 63.0 L 11.0 64.0 L 11.0 65.0 L 11.0 66.0 L 11.0 67.0 L 11.0 68.0 L 11.0 69.0 L 11.0 70.0 L 11.0 71.0 L 11.0 72.0 L 11.0 73.0 L 11.0 74.0 L 11.0 74.5 Z" stroke="none" fill="rgb(0,0,0)" />
<path d="M 50.5 72.0 L 51.0 72.0 L 52.0 72.0 L 53.0 71.66666666666667 L 54.0 71.0 L 54.666666666666664 70.0 L 55.0 69.0 L 54.666666666666664 68.33333333333333 L 54.0 68.0 L 53.0 68.0 L 52.0 68.0 L 51.0 68.0 L 50.0 68.0 L 49.0 68.0 L 48.0 68.0 L 47.0 68.0 L 46.333333333333336 68.33333333333333 L 46.0 69.0 L 46.0 70.0 L 46.333333333333336 71.0 L 47.0 71.66666666666667 L 48.0 72.0 L 49.0 72.0 L 49.5 72.0 Z" stroke="none" fill="rgb(195,144,106)" />
<path d="M 88.5 60.0 L 88.66666666666667 59.666666666666664 L 89.0 59.0 L 89.0 58.0 L 89.0 57.0 L 89.0 56.0 L 89.0 55.0 L 89.0 54.0 L 88.66666666666667 53.333333333333336 L 88.33333333333333 53.333333333333336 L 88.0 54.0 L 88.0 55.0 L 88.0 56.0 L 88.0 57.0 L 88.0 58.0 L 88.0 59.0 L 88.0 59.5 Z" stroke="none" fill="rgb(0,0,0)" />
<path d="M 89.0 111.5 L 89.0 111.0 L 89.0 110.0 L 89.0 109.0 L 88.66666666666667 108.33333333333333 L 88.0 108.0 L 87.33333333333333 108.33333333333333 L 87.0 109.0 L 87.0 110.0 L 87.33333333333333 111.0 L 88.0 111.66666666666667 L 88.5 112.0 Z" stroke="none" fill="rgb(201,163,122)" />
<path d="M 12.5 53.0 L 12.666666666666666 52.666666666666664 L 13.0 52.0 L 13.0 51.0 L 13.0 50.0 L 13.0 49.0 L 12.666666666666666 48.333333333333336 L 12.333333333333334 48.333333333333336 L 12.0 49.0 L 12.0 50.0 L 12.0 51.0 L 12.0 52.0 L 12.0 52.5 Z" stroke="none" fill="rgb(0,0,0)" />
<path d="M 88.0 46.5 L 88.0 46.0 L 88.0 45.0 L 87.66666666666667 44.333333333333336 L 87.0 44.0 L 86.33333333333333 44.333333333333336 L 86.0 45.0 L 86.33333333333333 46.0 L 87.0 46.666666666666664 L 87.5 47.0 Z" stroke="none" fill="rgb(186,153,75)" />
<path d="M 14.0 46.5 L 14.0 46.0 L 13.666666666666666 45.333333333333336 L 13.0 45.0 L 12.333333333333334 45.333333333333336 L 12.0 46.0 L 12.0 47.0 L 12.333333333333334 47.666666666666664 L 13.0 47.666666666666664 L 13.5 47.5 Z" stroke="none" fill="rgb(186,153,75)" />
<path d="M 88.5 105.0 L 88.66666666666667 104.66666666666667 L 89.0 104.0 L 89.0 103.0 L 89.0 102.0 L 88.66666666666667 101.33333333333333 L 88.33333333333333 101.33333333333333 L 88.0 102.0 L 88.0 103.0 L 88.0 104.0 L 88.0 104.5 Z" stroke="none" fill="rgb(0,0,0)" />
<path d="M 72.5 33.0 L 72.66666666666667 32.666666666666664 L 73.0 32.0 L 72.66666666666667 31.333333333333332 L 72.0 31.0 L 71.33333333333333 31.333333333333332 L 71.0 32.0 L 71.33333333333333 32.666666666666664 L 71.5 33.0 Z" stroke="none" fill="rgb(41,125,210)" />
<path d="M 49.5 5.0 L 50.0 5.0 L 51.0 5.0 L 51.666666666666664 4.666666666666667 L 51.666666666666664 4.333333333333333 L 51.0 4.0 L 50.0 4.0 L 49.333333333333336 4.333333333333333 L 49.0 4.5 Z" stroke="none" fill="rgb(0,0,0)" />
<path d="M 13.5 45.0 L 13.666666666666666 44.666666666666664 L 13.666666666666666 44.333333333333336 L 13.0 44.0 L 12.333333333333334 44.333333333333336 L 12.333333333333334 44.666666666666664 L 12.5 45.0 Z" stroke="none" fill="rgb(0,0,0)" />
<path d="M 24.0 16.5 L 23.666666666666668 16.333333333333332 L 23.333333333333332 16.333333333333332 L 23.333333333333332 16.666666666666668 L 23.5 17.0 Z" stroke="none" fill="rgb(0,0,0)" />
<path d="M 17.5 26.0 L 17.666666666666668 25.666666666666668 L 17.666666666666668 25.333333333333332 L 17.333333333333332 25.333333333333332 L 17.0 25.5 Z" stroke="none" fill="rgb(0,0,0)" />
<path d="M 82.5 26.0 L 82.66666666666667 25.666666666666668 L 82.66666666666667 25.333333333333332 L 82.33333333333333 25.333333333333332 L 82.0 25.5 Z" stroke="none" fill="rgb(0,0,0)" />
<path d="M 15.0 33.5 L 14.666666666666666 33.333333333333336 L 14.333333333333334 33.333333333333336 L 14.333333333333334 33.666666666666664 L 14.5 34.0 Z" stroke="none" fill="rgb(0,0,0)" />
<path d="M 85.5 34.0 L 85.66666666666667 33.666666666666664 L 85.66666666666667 33.333333333333336 L 85.33333333333333 33.333333333333336 L 85.0 33.5 Z" stroke="none" fill="rgb(0,0,0)" />
<path d="M 120.5 77.0 L 120.66666666666667 76.66666666666667 L 120.66666666666667 76.33333333333333 L 120.33333333333333 76.33333333333333 L 120.0 76.5 Z" stroke="none" fill="rgb(0,0,0)" />
<path d="M 112.5 112.0 L 112.66666666666667 111.66666666666667 L 112.66666666666667 111.33333333333333 L 112.33333333333333 111.33333333333333 L 112.0 111.5 Z" stroke="none" fill="rgb(0,0,0)" />
<path d="M 5.0 114.5 L 4.666666666666667 114.33333333333333 L 4.333333333333333 114.33333333333333 L 4.333333333333333 114.66666666666667 L 4.5 115.0 Z" stroke="none" fill="rgb(0,0,0)" />
</svg>
