<?xml version="1.0" encoding="UTF-8" standalone="no"?>
<!DOCTYPE svg PUBLIC "-//W3C//DTD SVG 1.1//EN"
"http://www.w3.org/Graphics/SVG/1.1/DTD/svg11.dtd">
<svg width="128" height="128" xmlns="http://www.w3.org/2000/svg" version="1.1">
<path d="M 88.5 128.0 L 89.0 128.0 L 90.0 128.0 L 91.0 128.0 L 92.0 128.0 L 93.0 128.0 L 94.0 128.0 L 95.0 128.0 L 96.0 128.0 L 97.0 128.0 L 98.0 128.0 L 99.0 128.0 L 100.0 128.0 L 101.0 128.0 L 102.0 128.0 L 103.0 128.0 L 104.0 128.0 L 105.0 128.0 L 106.0 128.0 L 107.0 128.0 L 108.0 128.0 L 109.0 128.0 L 110.0 128.0 L 111.0 128.0 L 112.0 128.0 L 113.0 128.0 L 114.0 128.0 L 115.0 128.0 L 116.0 128.0 L 117.0 128.0 L 118.0 128.0 L 119.0 128.0 L 120.0 128.0 L 121.0 128.0 L 122.0 128.0 L 123.0 128.0 L 124.0 128.0 L 125.0 128.0 L 126.0 128.0 L 127.0 128.0 L 127.66666666666667 127.66666666666667 L 128.0 127.0 L 128.0 126.0 L 128.0 125.0 L 128.0 124.0 L 128.0 123.0 L 128.0 122.0 L 128.0 121.0 L 128.0 120.0 L 128.0 119.0 L 128.0 118.0 L 128.0 117.0 L 128.0 116.0 L 128.0 115.0 L 128.0 114.0 L 128.0 113.0 L 128.0 112.0 L 128.0 111.0 L 128.0 110.0 L 128.0 109.0 L 128.0 108.0 L 128.0 107.0 L 128.0 106.0 L 128.0 105.0 L 128.0 104.0 L 128.0 103.0 L 128.0 102.0 L 128.0 101.0 L 128.0 100.0 L 128.0 99.0 L 128.0 98.0 L 128.0 97.0 L 128.0 96.0 L 128.0 95.0 L 128.0 94.0 L 128.0 93.0 L 128.0 92.0 L 128.0 91.0 L 128.0 90.0 L 128.0 89.0 L 128.0 88.0 L 128.0 87.0 L 128.0 86.0 L 128.0 85.0 L 128.0 84.0 L 128.0 83.0 L 128.0 82.0 L 128.0 81.0 L 128.0 80.0 L 128.0 79.0 L 128.0 78.0 L 128.0 77.0 L 128.0 76.0 L 128.0 75.0 L 128.0 74.0 L 128.0 73.0 L 128.0 72.0 L 128.0 71.0 L 128.0 70.0 L 128.0 69.0 L 128.0 68.0 L 128.0 67.0 L 128.0 66.0 L 128.0 65.0 L 128.0 64.0 L 128.0 63.0 L 128.0 62.0 L 128.0 61.0 L 128.0 60.0 L 128.0 59.0 L 128.0 58.0 L 128.0 57.0 L 128.0 56.0 L 128.0 55.0 L 128.0 54.0 L 128.0 53.0 L 128.0 52.0 L 128.0 51.0 L 128.0 50.0 L 128.0 49.0 L 128.0 48.0 L 128.0 47.0 L 128.0 46.0 L 128.0 45.0 L 128.0 44.0 L 128.0 43.0 L 128.0 42.0 L 128.0 41.0 L 128.0 40.0 L 128.0 39.0 L 128.0 38.0 L 128.0 37.0 L 128.0 36.0 L 128.0 35.0 L 128.0 34.0 L 128.0 33.0 L 128.0 32.0 L 128.0 31.0 L 128.0 30.0 L 128.0 29.0 L 128.0 28.0 L 128.0 27.0 L 128.0 26.0 L 128.0 25.0 L 128.0 24.0 L 128.0 23.0 L 128.0 22.0 L 128.0 21.0 L 128.0 20.0 L 128.0 19.0 L 128.0 18.0 L 128.0 17.0 L 128.0 16.0 L 128.0 15.0 L 128.0 14.0 L 128.0 13.0 L 128.0 12.0 L 128.0 11.0 L 128.0 10.0 L 128.0 9.0 L 128.0 8.0 L 128.0 7.0 L 128.0 6.0 L 128.0 5.0 L 128.0 4.0 L 128.0 3.0 L 128.0 2.0 L 128.0 1.0 L 127.66666666666667 0.3333333333333333 L 127.0 0.0 L 126.0 0.0 L 125.0 0.0 L 124.0 0.0 L 123.0 0.0 L 122.0 0.0 L 121.0 0.0 L 120.0 0.0 L 119.0 0.0 L 118.0 0.0 L 117.0 0.0 L 116.0 0.0 L 115.0 0.0 L 114.0 0.0 L 113.0 0.0 L 112.0 0.0 L 111.0 0.0 L 110.0 0.0 L 109.0 0.0 L 108.0 0.0 L 107.0 0.0 L 106.0 0.0 L 105.0 0.0 L 104.0 0.0 L 103.0 0.0 L 102.0 0.0 L 101.0 0.0 L 100.0 0.0 L 99.0 0.0 L 98.0 0.0 L 97.0 0.0 L 96.0 0.0 L 95.0 0.0 L 94.0 0.0 L 93.0 0.0 L 92.0 0.0 L 91.0 0.0 L 90.0 0.0 L 89.0 0.0 L 88.0 0.0 L 87.0 0.0 L 86.0 0.0 L 85.0 0.0 L 84.0 0.0 L 83.0 0.0 L 82.0 0.0 L 81.0 0.0 L 80.0 0.0 L 79.0 0.0 L 78.0 0.0 L 77.0 0.0 L 76.0 0.0 L 75.0 0.0 L 74.0 0.0 L 73.0 0.0 L 72.0 0.0 L 71.0 0.0 L 70.0 0.0 L 69.0 0.0 L 68.0 0.0 L 67.0 0.0 L 66.0 0.0 L 65.0 0.0 L 64.0 0.0 L 63.0 0.0 L 62.0 0.0 L 61.0 0.0 L 60.0 0.0 L 59.0 0.0 L 58.0 0.0 L 57.0 0.0 L 56.0 0.0 L 55.0 0.0 L 54.0 0.0 L 53.0 0.0 L 52.0 0.0 L 51.0 0.0 L 50.0 0.0 L 49.0 0.0 L 48.0 0.0 L 47.0 0.0 L 46.0 0.0 L 45.0 0.0 L 44.0 0.0 L 43.0 0.0 L 42.0 0.0 L 41.0 0.0 L 40.0 0.0 L 39.0 0.0 L 38.0 0.0 L 37.0 0.0 L 36.0 0.0 L 35.0 0.0 L 34.0 0.0 L 33.0 0.0 L 32.0 0.0 L 31.0 0.0 L 30.0 0.0 L 29.0 0.0 L 28.0 0.0 L 27.0 0.0 L 26.0 0.0 L 25.0 0.0 L 24.0 0.0 L 23.0 0.0 L 22.0 0.0 L 21.0 0.0 L 20.0 0.0 L 19.0 0.0 L 18.0 0.0 L 17.0 0.0 L 16.0 0.0 L 15.0 0.0 L 14.0 0.0 L 13.0 0.0 L 12.0 0.0 L 11.0 0.0 L 10.0 0.0 L 9.0 0.0 L 8.0 0.0 L 7.0 0.0 L 6.0 0.0 L 5.0 0.0 L 4.0 0.0 L 3.0 0.0 L 2.0 0.0 L 1.0 0.0 L 0.3333333333333333 0.3333333333333333 L 0.0 1.0 L 0.0 2.0 L 0.0 3.0 L 0.0 4.0 L 0.0 5.0 L 0.0 6.0 L 0.0 7.0 L 0.0 8.0 L 0.0 9.0 L 0.0 10.0 L 0.0 11.0 L 0.0 12.0 L 0.0 13.0 L 0.0 14.0 L 0.0 15.0 L 0.0 16.0 L 0.0 17.0 L 0.0 18.0 L 0.0 19.0 L 0.0 20.0 L 0.0 21.0 L 0.0 22.0 L 0.0 23.0 L 0.0 24.0 L 0.0 25.0 L 0.0 26.0 L 0.0 27.0 L 0.0 28.0 L 0.0 29.0 L 0.0 30.0 L 0.0 31.0 L 0.0 32.0 L 0.0 33.0 L 0.0 34.0 L 0.0 35.0 L 0.0 36.0 L 0.0 37.0 L 0.0 38.0 L 0.0 39.0 L 0.0 40.0 L 0.0 41.0 L 0.0 42.0 L 0.0 43.0 L 0.0 44.0 L 0.0 45.0 L 0.0 46.0 L 0.0 47.0 L 0.0 48.0 L 0.0 49.0 L 0.0 50.0 L 0.0 51.0 L 0.0 52.0 L 0.0 53.0 L 0.0 54.0 L 0.0 55.0 L 0.0 56.0 L 0.0 57.0 L 0.0 58.0 L 0.0 59.0 L 0.0 60.0 L 0.0 61.0 L 0.0 62.0 L 0.0 63.0 L 0.0 64.0 L 0.0 65.0 L 0.0 66.0 L 0.0 67.0 L 0.0 68.0 L 0.0 69.0 L 0.0 70.0 L 0.0 71.0 L 0.0 72.0 L 0.0 73.0 L 0.0 74.0 L 0.0 75.0 L 0.0 76.0 L 0.0 77.0 L 0.0 78.0 L 0.0 79.0 L 0.0 80.0 L 0.0 81.0 L 0.0 82.0 L 0.0 83.0 L 0.0 84.0 L 0.0 85.0 L 0.0 86.0 L 0.0 87.0 L 0.0 88.0 L 0.0 89.0 L 0.0 90.0 L 0.0 91.0 L 0.0 92.0 L 0.0 93.0 L 0.0 94.0 L 0.0 95.0 L 0.0 96.0 L 0.0 97.0 L 0.0 98.0 L 0.0 99.0 L 0.0 100.0 L 0.0 101.0 L 0.0 102.0 L 0.0 103.0 L 0.0 104.0 L 0.0 105.0 L 0.0 106.0 L 0.0 107.0 L 0.0 108.0 L 0.0 109.0 L 0.0 110.0 L 0.0 111.0 L 0.0 112.0 L 0.0 113.0 L 0.0 114.0 L 0.0 115.0 L 0.0 116.0 L 0.0 117.0 L 0.0 118.0 L 0.0 119.0 L 0.0 120.0 L 0.0 121.0 L 0.0 122.0 L 0.0 123.0 L 0.0 124.0 L 0.0 125.0 L 0.0 126.0 L 0.0 127.0 L 0.3333333333333333 127.66666666666667 L 1.0 128.0 L 2.0 128.0 L 3.0 128.0 L 4.0 128.0 L 5.0 128.0 L 6.0 128.0 L 7.0 128.0 L 8.0 128.0 L 9.0 128.0 L 10.0 128.0 L 11.0 128.0 L 12.0 128.0 L 13.0 128.0 L 14.0 128.0 L 15.0 128.0 L 16.0 128.0 L 17.0 128.0 L 18.0 128.0 L 19.0 128.0 L 20.0 128.0 L 21.0 128.0 L 22.0 128.0 L 23.0 128.0 L 24.0 128.0 L 25.0 128.0 L 26.0 128.0 L 27.0 128.0 L 28.0 128.0 L 29.0 128.0 L 30.0 128.0 L 31.0 128.0 L 32.0 128.0 L 33.0 128.0 L 34.0 128.0 L 35.0 128.0 L 36.0 128.0 L 37.0 128.0 L 38.0 128.0 L 39.0 128.0 L 40.0 128.0 L 41.0 128.0 L 42.0 128.0 L 43.0 128.0 L 44.0 128.0 L 45.0 128.0 L 46.0 128.0 L 47.0 128.0 L 48.0 128.0 L 49.0 128.0 L 50.0 128.0 L 51.0 128.0 L 52.0 128.0 L 53.0 128.0 L 54.0 128.0 L 55.0 128.0 L 56.0 128.0 L 57.0 128.0 L 58.0 128.0 L 59.0 128.0 L 60.0 128.0 L 61.0 128.0 L 62.0 128.0 L 63.0 128.0 L 64.0 128.0 L 65.0 128.0 L 66.0 128.0 L 67.0 128.0 L 68.0 128.0 L 69.0 128.0 L 70.0 128.0 L 71.0 128.0 L 72.0 128.0 L 73.0 128.0 L 74.0 128.0 L 75.0 128.0 L 76.0 128.0 L 77.0 128.0 L 78.0 128.0 L 79.0 128.0 L 80.0 128.0 L 81.0 128.0 L 82.0 128.0 L 83.0 128.0 L 84.0 128.0 L 85.0 128.0 L 86.0 128.0 L 87.0 128.0 L 87.5 128.0 Z" stroke="none" fill="rgb(0,0,0)" />
<path d="M 123.0 19.5 L 123.33333333333333 19.0 L 124.0 18.0 L 124.66666666666667 17.0 L 125.0 16.0 L 125.0 15.0 L 125.0 14.0 L 124.66666666666667 13.0 L 124.0 12.0 L 123.0 11.0 L 122.0 10.333333333333334 L 121.0 9.666666666666666 L 120.0 9.333333333333334 L 119.0 8.666666666666666 L 118.0 8.333333333333334 L 117.0 7.666666666666667 L 116.0 7.333333333333333 L 115.0 7.0 L 114.0 7.0 L 113.0 7.333333333333333 L 112.33333333333333 8.0 L 111.66666666666667 9.0 L 111.0 10.0 L 110.33333333333333 11.0 L 110.0 12.0 L 110.0 13.0 L 110.0 14.0 L 110.0 15.0 L 109.66666666666667 16.0 L 109.33333333333333 17.0 L 108.66666666666667 18.0 L 108.0 19.0 L 107.33333333333333 20.0 L 107.0 21.0 L 107.33333333333333 22.0 L 108.0 23.0 L 109.0 23.666666666666668 L 110.0 24.333333333333332 L 111.0 25.0 L 112.0 26.0 L 113.0 26.666666666666668 L 114.0 27.0 L 115.0 26.666666666666668 L 115.66666666666667 26.0 L 116.33333333333333 25.0 L 117.0 24.0 L 118.0 23.0 L 119.0 22.0 L 120.0 21.333333333333332 L 121.0 21.0 L 122.0 20.666666666666668 L 122.5 20.5 Z" stroke="none" fill="rgb(94,99,103)" />
<path d="M 101.5 47.5 L 101.66666666666667 47.0 L 102.33333333333333 46.0 L 103.0 45.0 L 103.66666666666667 44.0 L 104.33333333333333 43.0 L 105.0 42.0 L 105.66666666666667 41.0 L 106.33333333333333 40.0 L 107.0 39.0 L 107.66666666666667 38.0 L 108.33333333333333 37.0 L 109.0 36.0 L 109.66666666666667 35.0 L 110.33333333333333 34.0 L 111.0 33.0 L 111.66666666666667 32.0 L 112.33333333333333 31.0 L 113.0 30.0 L 113.66666666666667 29.0 L 114.0 28.0 L 113.66666666666667 27.0 L 113.0 26.0 L 112.0 25.0 L 111.0 24.333333333333332 L 110.0 23.666666666666668 L 109.0 23.0 L 108.0 22.333333333333332 L 107.0 22.0 L 106.0 22.333333333333332 L 105.33333333333333 23.0 L 104.66666666666667 24.0 L 104.0 25.0 L 103.0 26.0 L 102.33333333333333 27.0 L 101.66666666666667 28.0 L 101.0 29.0 L 100.33333333333333 30.0 L 99.66666666666667 31.0 L 99.0 32.0 L 98.33333333333333 33.0 L 97.66666666666667 34.0 L 97.0 35.0 L 96.0 36.0 L 95.33333333333333 37.0 L 94.66666666666667 38.0 L 94.0 39.0 L 93.33333333333333 40.0 L 92.66666666666667 41.0 L 92.0 42.0 L 91.0 43.0 L 90.33333333333333 44.0 L 89.66666666666667 45.0 L 89.0 46.0 L 88.33333333333333 47.0 L 87.66666666666667 48.0 L 87.0 49.0 L 86.33333333333333 50.0 L 85.66666666666667 51.0 L 85.0 52.0 L 84.0 53.0 L 83.33333333333333 54.0 L 82.66666666666667 55.0 L 82.0 56.0 L 81.33333333333333 57.0 L 80.66666666666667 58.0 L 80.0 59.0 L 79.0 60.0 L 78.33333333333333 61.0 L 77.66666666666667 62.0 L 77.0 63.0 L 76.33333333333333 64.0 L 75.66666666666667 65.0 L 75.33333333333333 66.0 L 75.0 67.0 L 75.33333333333333 68.0 L 76.0 69.0 L 77.0 70.0 L 78.0 71.0 L 79.0 72.0 L 80.0 72.66666666666667 L 81.0 73.33333333333333 L 82.0 73.66666666666667 L 83.0 74.0 L 84.0 73.66666666666667 L 84.66666666666667 73.0 L 85.33333333333333 72.0 L 86.0 71.0 L 86.66666666666667 70.0 L 87.33333333333333 69.0 L 88.0 68.0 L 88.66666666666667 67.0 L 89.33333333333333 66.0 L 90.0 65.0 L 90.66666666666667 64.0 L 91.33333333333333 63.0 L 92.0 62.0 L 92.66666666666667 61.0 L 93.33333333333333 60.0 L 94.0 59.0 L 94.66666666666667 58.0 L 95.33333333333333 57.0 L 96.0 56.0 L 96.66666666666667 55.0 L 97.33333333333333 54.0 L 97.66666666666667 53.0 L 98.33333333333333 52.0 L 99.0 51.0 L 99.66666666666667 50.0 L 100.33333333333333 49.0 L 100.5 48.5 Z" stroke="none" fill="rgb(252,41,41)" />
<path d="M 75.5 74.5 L 76.0 75.0 L 77.0 76.0 L 78.0 76.66666666666667 L 79.0 77.33333333333333 L 80.0 77.66666666666667 L 81.0 77.66666666666667 L 82.0 77.0 L 82.66666666666667 76.0 L 83.0 75.0 L 82.66666666666667 74.0 L 82.0 73.33333333333333 L 81.0 72.66666666666667 L 80.0 72.0 L 79.0 71.0 L 78.0 70.0 L 77.0 69.0 L 76.0 68.33333333333333 L 75.0 68.0 L 74.0 68.33333333333333 L 73.0 69.0 L 72.33333333333333 70.0 L 72.0 71.0 L 72.33333333333333 72.0 L 73.0 73.0 L 74.0 73.66666666666667 L 74.5 74.0 Z" stroke="none" fill="rgb(93,99,101)" />
<path d="M 76.5 84.0 L 77.0 83.66666666666667 L 78.0 83.0 L 78.66666666666667 82.0 L 79.33333333333333 81.0 L 80.0 80.0 L 80.66666666666667 79.0 L 80.66666666666667 78.0 L 80.0 77.33333333333333 L 79.0 76.66666666666667 L 78.0 76.0 L 77.0 75.0 L 76.0 74.33333333333333 L 75.0 73.66666666666667 L 74.0 73.0 L 73.0 72.33333333333333 L 72.0 72.0 L 71.0 72.33333333333333 L 70.0 73.0 L 69.33333333333333 74.0 L 69.0 75.0 L 69.0 76.0 L 69.0 77.0 L 69.33333333333333 78.0 L 70.0 79.0 L 71.0 80.0 L 72.0 80.66666666666667 L 73.0 81.33333333333333 L 74.0 82.0 L 75.0 83.0 L 75.5 83.5 Z" stroke="none" fill="rgb(223,224,224)" />
<path d="M 75.0 87.5 L 75.33333333333333 87.0 L 76.0 86.0 L 76.66666666666667 85.0 L 76.66666666666667 84.0 L 76.0 83.0 L 75.0 82.0 L 74.0 81.33333333333333 L 73.0 80.66666666666667 L 72.0 80.0 L 71.0 79.0 L 70.0 78.0 L 69.0 77.33333333333333 L 68.0 77.0 L 67.0 77.33333333333333 L 66.33333333333333 78.0 L 66.0 79.0 L 66.0 80.0 L 66.0 81.0 L 66.33333333333333 82.0 L 67.0 83.0 L 68.0 83.66666666666667 L 69.0 84.33333333333333 L 70.0 85.0 L 71.0 86.0 L 72.0 87.0 L 73.0 87.66666666666667 L 74.0 88.0 L 74.5 88.0 Z" stroke="none" fill="rgb(93,99,101)" />
<path d="M 26.5 119.0 L 27.0 119.0 L 28.0 119.0 L 29.0 119.0 L 30.0 119.0 L 31.0 119.0 L 32.0 119.0 L 33.0 118.66666666666667 L 34.0 118.33333333333333 L 35.0 118.0 L 36.0 118.0 L 37.0 118.0 L 38.0 118.0 L 39.0 117.66666666666667 L 40.0 117.33333333333333 L 41.0 117.0 L 42.0 117.0 L 43.0 117.0 L 44.0 117.0 L 45.0 116.66666666666667 L 46.0 116.33333333333333 L 47.0 116.0 L 48.0 116.0 L 49.0 115.66666666666667 L 50.0 115.33333333333333 L 51.0 115.0 L 52.0 115.0 L 53.0 114.66666666666667 L 54.0 114.33333333333333 L 55.0 113.66666666666667 L 56.0 113.33333333333333 L 57.0 112.66666666666667 L 58.0 112.33333333333333 L 59.0 111.66666666666667 L 59.666666666666664 111.0 L 60.333333333333336 110.0 L 61.0 109.0 L 62.0 108.0 L 62.666666666666664 107.0 L 63.333333333333336 106.0 L 63.666666666666664 105.0 L 64.33333333333333 104.0 L 65.0 103.0 L 65.66666666666667 102.0 L 66.33333333333333 101.0 L 67.0 100.0 L 67.66666666666667 99.0 L 68.33333333333333 98.0 L 69.0 97.0 L 69.66666666666667 96.0 L 70.33333333333333 95.0 L 70.66666666666667 94.0 L 71.33333333333333 93.0 L 72.0 92.0 L 72.66666666666667 91.0 L 73.33333333333333 90.0 L 73.66666666666667 89.0 L 73.66666666666667 88.0 L 73.0 87.33333333333333 L 72.0 87.33333333333333 L 71.0 88.0 L 70.0 89.0 L 69.33333333333333 90.0 L 68.66666666666667 91.0 L 68.0 92.0 L 67.0 93.0 L 66.33333333333333 94.0 L 65.66666666666667 95.0 L 65.0 96.0 L 64.33333333333333 97.0 L 63.666666666666664 98.0 L 63.0 99.0 L 62.333333333333336 100.0 L 61.666666666666664 101.0 L 61.0 102.0 L 60.0 103.0 L 59.0 104.0 L 58.0 105.0 L 57.0 105.66666666666667 L 56.0 106.0 L 55.0 105.66666666666667 L 54.0 105.0 L 53.333333333333336 104.0 L 53.0 103.0 L 53.0 102.0 L 53.333333333333336 101.0 L 53.666666666666664 100.0 L 54.333333333333336 99.0 L 55.0 98.0 L 56.0 97.0 L 57.0 96.0 L 58.0 95.0 L 58.666666666666664 94.0 L 59.333333333333336 93.0 L 60.0 92.0 L 61.0 91.0 L 61.666666666666664 90.0 L 62.333333333333336 89.0 L 63.0 88.0 L 64.0 87.0 L 65.0 86.0 L 66.0 85.0 L 66.66666666666667 84.0 L 67.0 83.0 L 66.66666666666667 82.0 L 66.0 81.33333333333333 L 65.0 81.0 L 64.0 81.33333333333333 L 63.333333333333336 82.0 L 62.666666666666664 83.0 L 62.0 84.0 L 61.0 85.0 L 60.333333333333336 86.0 L 59.666666666666664 87.0 L 59.0 88.0 L 58.0 89.0 L 57.0 90.0 L 56.333333333333336 91.0 L 55.666666666666664 92.0 L 55.0 93.0 L 54.0 94.0 L 53.0 95.0 L 52.0 95.66666666666667 L 51.0 96.33333333333333 L 50.0 97.0 L 49.0 97.66666666666667 L 48.0 98.0 L 47.0 98.33333333333333 L 46.0 98.66666666666667 L 45.0 99.0 L 44.0 99.0 L 43.0 99.0 L 42.0 99.0 L 41.0 99.0 L 40.0 99.0 L 39.0 99.0 L 38.0 99.0 L 37.0 99.33333333333333 L 36.0 99.66666666666667 L 35.0 100.0 L 34.0 100.0 L 33.0 100.0 L 32.0 100.0 L 31.0 100.0 L 30.0 100.0 L 29.0 99.66666666666667 L 28.0 99.33333333333333 L 27.0 99.0 L 26.0 99.0 L 25.0 99.0 L 24.0 99.0 L 23.0 99.0 L 22.0 99.0 L 21.0 99.0 L 20.0 99.0 L 19.0 99.0 L 18.0 99.0 L 17.0 99.0 L 16.0 99.0 L 15.0 98.66666666666667 L 14.0 98.33333333333333 L 13.0 98.0 L 12.0 98.0 L 11.0 98.0 L 10.0 98.0 L 9.0 98.0 L 8.0 98.0 L 7.0 98.0 L 6.0 98.0 L 5.0 98.33333333333333 L 4.333333333333333 99.0 L 4.0 100.0 L 3.6666666666666665 101.0 L 3.3333333333333335 102.0 L 3.0 103.0 L 3.0 104.0 L 3.0 105.0 L 3.0 106.0 L 3.3333333333333335 107.0 L 3.6666666666666665 108.0 L 4.0 109.0 L 4.0 110.0 L 4.333333333333333 111.0 L 5.0 112.0 L 5.666666666666667 113.0 L 6.333333333333333 114.0 L 7.0 115.0 L 8.0 115.66666666666667 L 9.0 116.33333333333333 L 10.0 117.0 L 11.0 117.66666666666667 L 12.0 118.0 L 13.0 118.33333333333333 L 14.0 118.66666666666667 L 15.0 119.0 L 16.0 119.0 L 17.0 119.0 L 18.0 119.0 L 19.0 119.0 L 20.0 119.0 L 21.0 119.0 L 22.0 119.0 L 23.0 119.0 L 24.0 119.0 L 25.0 119.0 L 25.5 119.0 Z" stroke="none" fill="rgb(255,168,40)" />
<path d="M 72.0 87.5 L 72.0 87.0 L 71.66666666666667 86.0 L 71.0 85.0 L 70.0 84.33333333333333 L 69.0 83.66666666666667 L 68.0 83.33333333333333 L 67.0 83.33333333333333 L 66.0 84.0 L 65.0 85.0 L 64.0 86.0 L 63.0 87.0 L 62.333333333333336 88.0 L 61.666666666666664 89.0 L 61.0 90.0 L 60.0 91.0 L 59.333333333333336 92.0 L 58.666666666666664 93.0 L 58.0 94.0 L 57.0 95.0 L 56.0 96.0 L 55.0 97.0 L 54.333333333333336 98.0 L 53.666666666666664 99.0 L 53.333333333333336 100.0 L 53.0 101.0 L 53.0 102.0 L 53.0 103.0 L 53.0 104.0 L 53.333333333333336 105.0 L 54.0 105.66666666666667 L 55.0 106.0 L 56.0 106.0 L 57.0 106.0 L 58.0 105.66666666666667 L 59.0 105.0 L 60.0 104.0 L 61.0 103.0 L 61.666666666666664 102.0 L 62.333333333333336 101.0 L 63.0 100.0 L 63.666666666666664 99.0 L 64.33333333333333 98.0 L 65.0 97.0 L 65.66666666666667 96.0 L 66.33333333333333 95.0 L 67.0 94.0 L 68.0 93.0 L 68.66666666666667 92.0 L 69.33333333333333 91.0 L 70.0 90.0 L 71.0 89.0 L 71.5 88.5 Z" stroke="none" fill="rgb(240,138,52)" />
<path d="M 95.5 114.0 L 96.0 114.0 L 97.0 114.0 L 98.0 114.0 L 99.0 114.0 L 100.0 114.0 L 101.0 114.0 L 102.0 114.0 L 103.0 114.0 L 104.0 114.0 L 105.0 114.0 L 106.0 114.0 L 107.0 114.0 L 108.0 114.0 L 109.0 113.66666666666667 L 110.0 113.33333333333333 L 111.0 112.66666666666667 L 112.0 112.0 L 113.0 111.0 L 114.0 110.0 L 115.0 109.0 L 115.66666666666667 108.0 L 116.0 107.0 L 116.0 106.0 L 116.0 105.0 L 116.0 104.0 L 115.66666666666667 103.0 L 115.0 102.0 L 114.0 101.33333333333333 L 113.0 100.66666666666667 L 112.0 100.0 L 111.0 99.33333333333333 L 110.0 99.0 L 109.0 98.66666666666667 L 108.0 98.33333333333333 L 107.0 98.0 L 106.0 98.0 L 105.0 98.0 L 104.0 98.0 L 103.0 97.66666666666667 L 102.0 97.33333333333333 L 101.0 97.0 L 100.0 97.0 L 99.0 97.0 L 98.0 97.0 L 97.0 97.0 L 96.0 97.0 L 95.0 97.0 L 94.0 97.33333333333333 L 93.0 97.66666666666667 L 92.0 98.0 L 91.0 98.0 L 90.0 98.0 L 89.0 98.0 L 88.0 98.33333333333333 L 87.0 98.66666666666667 L 86.0 99.33333333333333 L 85.0 99.66666666666667 L 84.0 100.33333333333333 L 83.0 101.0 L 82.0 102.0 L 81.33333333333333 103.0 L 81.0 104.0 L 81.0 105.0 L 81.0 106.0 L 81.0 107.0 L 81.33333333333333 108.0 L 82.0 109.0 L 83.0 110.0 L 84.0 111.0 L 85.0 111.66666666666667 L 86.0 112.0 L 87.0 112.33333333333333 L 88.0 112.66666666666667 L 89.0 113.0 L 90.0 113.33333333333333 L 91.0 113.66666666666667 L 92.0 114.0 L 93.0 114.0 L 94.0 114.0 L 94.5 114.0 Z" stroke="none" fill="rgb(94,99,103)" />
<path d="M 95.5 124.0 L 96.0 124.0 L 97.0 124.0 L 98.0 124.0 L 99.0 124.0 L 100.0 124.0 L 101.0 124.0 L 102.0 124.0 L 103.0 124.0 L 104.0 123.66666666666667 L 105.0 123.33333333333333 L 106.0 123.0 L 107.0 123.0 L 108.0 123.0 L 109.0 122.66666666666667 L 110.0 122.33333333333333 L 111.0 121.66666666666667 L 112.0 121.33333333333333 L 113.0 120.66666666666667 L 114.0 120.33333333333333 L 115.0 119.66666666666667 L 115.66666666666667 119.0 L 116.0 118.0 L 116.33333333333333 117.0 L 116.66666666666667 116.0 L 117.0 115.0 L 117.0 114.0 L 117.0 113.0 L 117.0 112.0 L 117.0 111.0 L 117.0 110.0 L 117.0 109.0 L 116.66666666666667 108.33333333333333 L 116.0 108.0 L 115.0 108.33333333333333 L 114.0 109.0 L 113.0 110.0 L 112.0 111.0 L 111.0 112.0 L 110.0 112.66666666666667 L 109.0 113.33333333333333 L 108.0 113.66666666666667 L 107.0 114.0 L 106.0 114.0 L 105.0 114.0 L 104.0 114.0 L 103.0 114.0 L 102.0 114.0 L 101.0 114.0 L 100.0 114.0 L 99.0 114.0 L 98.0 114.0 L 97.0 114.0 L 96.0 114.0 L 95.0 114.0 L 94.0 114.0 L 93.0 114.0 L 92.0 113.66666666666667 L 91.0 113.33333333333333 L 90.0 113.0 L 89.0 112.66666666666667 L 88.0 112.33333333333333 L 87.0 112.0 L 86.0 111.66666666666667 L 85.0 111.0 L 84.0 110.0 L 83.0 109.0 L 82.0 108.33333333333333 L 81.0 108.0 L 80.33333333333333 108.33333333333333 L 80.0 109.0 L 80.0 110.0 L 80.0 111.0 L 80.0 112.0 L 80.0 113.0 L 80.0 114.0 L 80.33333333333333 115.0 L 80.66666666666667 116.0 L 81.0 117.0 L 81.33333333333333 118.0 L 82.0 119.0 L 83.0 120.0 L 84.0 120.66666666666667 L 85.0 121.33333333333333 L 86.0 121.66666666666667 L 87.0 122.33333333333333 L 88.0 122.66666666666667 L 89.0 123.0 L 90.0 123.0 L 91.0 123.0 L 92.0 123.33333333333333 L 93.0 123.66666666666667 L 94.0 124.0 L 94.5 124.0 Z" stroke="none" fill="rgb(154,154,154)" />
</svg>
