<?xml version="1.0" encoding="UTF-8" standalone="no"?>
<!DOCTYPE svg PUBLIC "-//W3C//DTD SVG 1.1//EN"
"http://www.w3.org/Graphics/SVG/1.1/DTD/svg11.dtd">
<svg width="128" height="128" xmlns="http://www.w3.org/2000/svg" version="1.1">
<path d="M 26.5 128.0 L 27.0 128.0 L 28.0 128.0 L 29.0 128.0 L 30.0 128.0 L 31.0 128.0 L 32.0 128.0 L 33.0 128.0 L 34.0 128.0 L 35.0 128.0 L 36.0 128.0 L 37.0 128.0 L 38.0 128.0 L 39.0 128.0 L 40.0 128.0 L 41.0 128.0 L 42.0 128.0 L 43.0 128.0 L 44.0 128.0 L 45.0 128.0 L 46.0 128.0 L 47.0 128.0 L 48.0 128.0 L 49.0 128.0 L 50.0 128.0 L 51.0 128.0 L 52.0 128.0 L 53.0 128.0 L 54.0 128.0 L 55.0 128.0 L 56.0 128.0 L 57.0 128.0 L 58.0 128.0 L 59.0 128.0 L 60.0 128.0 L 61.0 128.0 L 62.0 128.0 L 63.0 128.0 L 64.0 128.0 L 65.0 128.0 L 66.0 128.0 L 67.0 128.0 L 68.0 128.0 L 69.0 128.0 L 70.0 128.0 L 71.0 128.0 L 72.0 128.0 L 73.0 128.0 L 74.0 128.0 L 75.0 128.0 L 76.0 128.0 L 77.0 128.0 L 78.0 128.0 L 79.0 128.0 L 80.0 128.0 L 81.0 128.0 L 82.0 128.0 L 83.0 128.0 L 84.0 128.0 L 85.0 128.0 L 86.0 128.0 L 87.0 128.0 L 88.0 128.0 L 89.0 128.0 L 90.0 128.0 L 91.0 128.0 L 92.0 128.0 L 93.0 128.0 L 94.0 128.0 L 95.0 128.0 L 96.0 128.0 L 97.0 128.0 L 98.0 128.0 L 99.0 128.0 L 100.0 128.0 L 101.0 128.0 L 102.0 128.0 L 103.0 128.0 L 104.0 128.0 L 105.0 128.0 L 106.0 128.0 L 107.0 128.0 L 108.0 128.0 L 109.0 128.0 L 110.0 128.0 L 111.0 128.0 L 112.0 128.0 L 113.0 128.0 L 114.0 128.0 L 115.0 128.0 L 116.0 128.0 L 117.0 128.0 L 118.0 128.0 L 119.0 128.0 L 120.0 128.0 L 121.0 128.0 L 122.0 128.0 L 123.0 128.0 L 124.0 128.0 L 125.0 128.0 L 126.0 128.0 L 127.0 128.0 L 127.66666666666667 127.66666666666667 L 128.0 127.0 L 128.0 126.0 L 128.0 125.0 L 128.0 124.0 L 128.0 123.0 L 128.0 122.0 L 128.0 121.0 L 128.0 120.0 L 128.0 119.0 L 128.0 118.0 L 128.0 117.0 L 128.0 116.0 L 128.0 115.0 L 128.0 114.0 L 128.0 113.0 L 128.0 112.0 L 128.0 111.0 L 128.0 110.0 L 128.0 109.0 L 128.0 108.0 L 128.0 107.0 L 128.0 106.0 L 128.0 105.0 L 128.0 104.0 L 128.0 103.0 L 128.0 102.0 L 128.0 101.0 L 128.0 100.0 L 128.0 99.0 L 128.0 98.0 L 128.0 97.0 L 128.0 96.0 L 128.0 95.0 L 128.0 94.0 L 128.0 93.0 L 128.0 92.0 L 128.0 91.0 L 128.0 90.0 L 128.0 89.0 L 128.0 88.0 L 128.0 87.0 L 128.0 86.0 L 128.0 85.0 L 128.0 84.0 L 128.0 83.0 L 128.0 82.0 L 128.0 81.0 L 128.0 80.0 L 128.0 79.0 L 128.0 78.0 L 128.0 77.0 L 128.0 76.0 L 128.0 75.0 L 128.0 74.0 L 128.0 73.0 L 128.0 72.0 L 128.0 71.0 L 128.0 70.0 L 128.0 69.0 L 128.0 68.0 L 128.0 67.0 L 128.0 66.0 L 128.0 65.0 L 128.0 64.0 L 128.0 63.0 L 128.0 62.0 L 128.0 61.0 L 128.0 60.0 L 128.0 59.0 L 128.0 58.0 L 128.0 57.0 L 128.0 56.0 L 128.0 55.0 L 128.0 54.0 L 128.0 53.0 L 128.0 52.0 L 128.0 51.0 L 128.0 50.0 L 128.0 49.0 L 128.0 48.0 L 128.0 47.0 L 128.0 46.0 L 128.0 45.0 L 128.0 44.0 L 128.0 43.0 L 128.0 42.0 L 128.0 41.0 L 128.0 40.0 L 128.0 39.0 L 128.0 38.0 L 128.0 37.0 L 128.0 36.0 L 128.0 35.0 L 128.0 34.0 L 128.0 33.0 L 128.0 32.0 L 128.0 31.0 L 128.0 30.0 L 128.0 29.0 L 128.0 28.0 L 128.0 27.0 L 128.0 26.0 L 128.0 25.0 L 128.0 24.0 L 128.0 23.0 L 128.0 22.0 L 128.0 21.0 L 128.0 20.0 L 128.0 19.0 L 128.0 18.0 L 128.0 17.0 L 128.0 16.0 L 128.0 15.0 L 128.0 14.0 L 128.0 13.0 L 128.0 12.0 L 128.0 11.0 L 128.0 10.0 L 128.0 9.0 L 128.0 8.0 L 128.0 7.0 L 128.0 6.0 L 128.0 5.0 L 128.0 4.0 L 128.0 3.0 L 128.0 2.0 L 128.0 1.0 L 127.66666666666667 0.3333333333333333 L 127.0 0.0 L 126.0 0.0 L 125.0 0.0 L 124.0 0.0 L 123.0 0.0 L 122.0 0.0 L 121.0 0.0 L 120.0 0.0 L 119.0 0.0 L 118.0 0.0 L 117.0 0.0 L 116.0 0.0 L 115.0 0.0 L 114.0 0.0 L 113.0 0.0 L 112.0 0.0 L 111.0 0.0 L 110.0 0.0 L 109.0 0.0 L 108.0 0.0 L 107.0 0.0 L 106.0 0.0 L 105.0 0.0 L 104.0 0.0 L 103.0 0.0 L 102.0 0.0 L 101.0 0.0 L 100.0 0.0 L 99.0 0.0 L 98.0 0.0 L 97.0 0.0 L 96.0 0.0 L 95.0 0.0 L 94.0 0.0 L 93.0 0.0 L 92.0 0.0 L 91.0 0.0 L 90.0 0.0 L 89.0 0.0 L 88.0 0.0 L 87.0 0.0 L 86.0 0.0 L 85.0 0.0 L 84.0 0.0 L 83.0 0.0 L 82.0 0.0 L 81.0 0.0 L 80.0 0.0 L 79.0 0.0 L 78.0 0.0 L 77.0 0.0 L 76.0 0.0 L 75.0 0.0 L 74.0 0.0 L 73.0 0.0 L 72.0 0.0 L 71.0 0.0 L 70.0 0.0 L 69.0 0.0 L 68.0 0.0 L 67.0 0.0 L 66.0 0.0 L 65.0 0.0 L 64.0 0.0 L 63.0 0.0 L 62.0 0.0 L 61.0 0.0 L 60.0 0.0 L 59.0 0.0 L 58.0 0.0 L 57.0 0.0 L 56.0 0.0 L 55.0 0.0 L 54.0 0.0 L 53.0 0.0 L 52.0 0.0 L 51.0 0.0 L 50.0 0.0 L 49.0 0.0 L 48.0 0.0 L 47.0 0.0 L 46.0 0.0 L 45.0 0.0 L 44.0 0.0 L 43.0 0.0 L 42.0 0.0 L 41.0 0.0 L 40.0 0.0 L 39.0 0.0 L 38.0 0.0 L 37.0 0.0 L 36.0 0.0 L 35.0 0.0 L 34.0 0.0 L 33.0 0.0 L 32.0 0.0 L 31.0 0.0 L 30.0 0.0 L 29.0 0.0 L 28.0 0.0 L 27.0 0.0 L 26.0 0.0 L 25.0 0.0 L 24.0 0.0 L 23.0 0.0 L 22.0 0.0 L 21.0 0.0 L 20.0 0.0 L 19.0 0.0 L 18.0 0.0 L 17.0 0.0 L 16.0 0.0 L 15.0 0.0 L 14.0 0.0 L 13.0 0.0 L 12.0 0.0 L 11.0 0.0 L 10.0 0.0 L 9.0 0.0 L 8.0 0.0 L 7.0 0.0 L 6.0 0.0 L 5.0 0.0 L 4.0 0.0 L 3.0 0.0 L 2.0 0.0 L 1.0 0.0 L 0.3333333333333333 0.3333333333333333 L 0.0 1.0 L 0.0 2.0 L 0.0 3.0 L 0.0 4.0 L 0.0 5.0 L 0.0 6.0 L 0.0 7.0 L 0.0 8.0 L 0.0 9.0 L 0.0 10.0 L 0.0 11.0 L 0.0 12.0 L 0.0 13.0 L 0.0 14.0 L 0.0 15.0 L 0.0 16.0 L 0.0 17.0 L 0.0 18.0 L 0.0 19.0 L 0.0 20.0 L 0.0 21.0 L 0.0 22.0 L 0.0 23.0 L 0.0 24.0 L 0.0 25.0 L 0.0 26.0 L 0.0 27.0 L 0.0 28.0 L 0.0 29.0 L 0.0 30.0 L 0.0 31.0 L 0.0 32.0 L 0.0 33.0 L 0.0 34.0 L 0.0 35.0 L 0.0 36.0 L 0.0 37.0 L 0.0 38.0 L 0.0 39.0 L 0.0 40.0 L 0.0 41.0 L 0.0 42.0 L 0.0 43.0 L 0.0 44.0 L 0.0 45.0 L 0.0 46.0 L 0.0 47.0 L 0.0 48.0 L 0.0 49.0 L 0.0 50.0 L 0.0 51.0 L 0.0 52.0 L 0.0 53.0 L 0.0 54.0 L 0.0 55.0 L 0.0 56.0 L 0.0 57.0 L 0.0 58.0 L 0.0 59.0 L 0.0 60.0 L 0.0 61.0 L 0.0 62.0 L 0.0 63.0 L 0.0 64.0 L 0.0 65.0 L 0.0 66.0 L 0.0 67.0 L 0.0 68.0 L 0.0 69.0 L 0.0 70.0 L 0.0 71.0 L 0.0 72.0 L 0.0 73.0 L 0.0 74.0 L 0.0 75.0 L 0.0 76.0 L 0.0 77.0 L 0.0 78.0 L 0.0 79.0 L 0.0 80.0 L 0.0 81.0 L 0.0 82.0 L 0.0 83.0 L 0.0 84.0 L 0.0 85.0 L 0.0 86.0 L 0.0 87.0 L 0.0 88.0 L 0.0 89.0 L 0.0 90.0 L 0.0 91.0 L 0.0 92.0 L 0.0 93.0 L 0.0 94.0 L 0.0 95.0 L 0.0 96.0 L 0.0 97.0 L 0.0 98.0 L 0.0 99.0 L 0.0 100.0 L 0.0 101.0 L 0.0 102.0 L 0.0 103.0 L 0.0 104.0 L 0.0 105.0 L 0.0 106.0 L 0.0 107.0 L 0.0 108.0 L 0.0 109.0 L 0.0 110.0 L 0.0 111.0 L 0.0 112.0 L 0.0 113.0 L 0.0 114.0 L 0.0 115.0 L 0.0 116.0 L 0.0 117.0 L 0.0 118.0 L 0.0 119.0 L 0.0 120.0 L 0.0 121.0 L 0.0 122.0 L 0.0 123.0 L 0.0 124.0 L 0.0 125.0 L 0.0 126.0 L 0.0 127.0 L 0.3333333333333333 127.66666666666667 L 1.0 128.0 L 2.0 128.0 L 3.0 128.0 L 4.0 128.0 L 5.0 128.0 L 6.0 128.0 L 7.0 128.0 L 8.0 128.0 L 9.0 128.0 L 10.0 128.0 L 11.0 128.0 L 12.0 128.0 L 13.0 128.0 L 14.0 128.0 L 15.0 128.0 L 16.0 128.0 L 17.0 128.0 L 18.0 128.0 L 19.0 128.0 L 20.0 128.0 L 21.0 128.0 L 22.0 128.0 L 23.0 128.0 L 24.0 128.0 L 25.0 128.0 L 25.5 128.0 Z" stroke="none" fill="rgb(0,0,0)" />
<path d="M 88.5 35.0 L 89.0 35.333333333333336 L 90.0 35.666666666666664 L 91.0 36.333333333333336 L 92.0 36.666666666666664 L 93.0 37.333333333333336 L 94.0 37.666666666666664 L 95.0 38.333333333333336 L 96.0 39.0 L 97.0 39.666666666666664 L 98.0 40.333333333333336 L 99.0 41.0 L 100.0 42.0 L 101.0 43.0 L 102.0 43.666666666666664 L 103.0 43.666666666666664 L 103.66666666666667 43.0 L 104.0 42.0 L 104.33333333333333 41.0 L 105.0 40.333333333333336 L 106.0 39.666666666666664 L 107.0 39.333333333333336 L 108.0 38.666666666666664 L 109.0 38.333333333333336 L 110.0 37.666666666666664 L 111.0 37.333333333333336 L 112.0 36.666666666666664 L 113.0 36.333333333333336 L 114.0 35.666666666666664 L 115.0 35.333333333333336 L 116.0 34.666666666666664 L 117.0 34.333333333333336 L 118.0 34.0 L 118.66666666666667 33.666666666666664 L 118.66666666666667 33.0 L 118.0 32.0 L 117.0 31.0 L 116.0 30.0 L 115.0 29.333333333333332 L 114.0 28.666666666666668 L 113.0 28.333333333333332 L 112.0 27.666666666666668 L 111.0 27.333333333333332 L 110.0 26.666666666666668 L 109.0 26.0 L 108.0 25.333333333333332 L 107.0 24.666666666666668 L 106.0 24.333333333333332 L 105.0 23.666666666666668 L 104.0 23.333333333333332 L 103.0 22.666666666666668 L 102.0 22.333333333333332 L 101.0 21.666666666666668 L 100.0 21.333333333333332 L 99.0 20.666666666666668 L 98.0 20.333333333333332 L 97.0 19.666666666666668 L 96.0 19.0 L 95.0 18.333333333333332 L 94.0 17.666666666666668 L 93.0 17.333333333333332 L 92.0 16.666666666666668 L 91.0 16.333333333333332 L 90.0 15.666666666666666 L 89.0 15.333333333333334 L 88.0 14.666666666666666 L 87.0 14.333333333333334 L 86.0 13.666666666666666 L 85.0 13.333333333333334 L 84.0 12.666666666666666 L 83.0 12.333333333333334 L 82.0 11.666666666666666 L 81.0 11.333333333333334 L 80.0 10.666666666666666 L 79.0 10.333333333333334 L 78.0 9.666666666666666 L 77.0 9.333333333333334 L 76.0 8.666666666666666 L 75.0 8.333333333333334 L 74.0 7.666666666666667 L 73.0 7.333333333333333 L 72.0 6.666666666666667 L 71.0 6.333333333333333 L 70.0 5.666666666666667 L 69.0 5.333333333333333 L 68.0 5.0 L 67.0 4.666666666666667 L 66.0 4.333333333333333 L 65.0 4.0 L 64.0 4.0 L 63.0 4.0 L 62.0 4.333333333333333 L 61.0 4.666666666666667 L 60.0 5.333333333333333 L 59.0 5.666666666666667 L 58.0 6.333333333333333 L 57.0 6.666666666666667 L 56.0 7.333333333333333 L 55.0 7.666666666666667 L 54.0 8.333333333333334 L 53.0 8.666666666666666 L 52.0 9.333333333333334 L 51.0 9.666666666666666 L 50.0 10.333333333333334 L 49.0 10.666666666666666 L 48.333333333333336 11.333333333333334 L 48.0 12.0 L 48.0 13.0 L 48.333333333333336 13.666666666666666 L 49.0 14.333333333333334 L 50.0 14.666666666666666 L 51.0 15.333333333333334 L 52.0 15.666666666666666 L 53.0 16.333333333333332 L 54.0 17.0 L 55.0 17.666666666666668 L 56.0 18.333333333333332 L 57.0 18.666666666666668 L 58.0 19.333333333333332 L 59.0 19.666666666666668 L 60.0 20.333333333333332 L 61.0 20.666666666666668 L 62.0 21.333333333333332 L 63.0 21.666666666666668 L 64.0 22.333333333333332 L 65.0 22.666666666666668 L 66.0 23.333333333333332 L 67.0 23.666666666666668 L 68.0 24.333333333333332 L 69.0 24.666666666666668 L 70.0 25.333333333333332 L 71.0 25.666666666666668 L 72.0 26.333333333333332 L 73.0 26.666666666666668 L 74.0 27.333333333333332 L 75.0 28.0 L 76.0 28.666666666666668 L 77.0 29.333333333333332 L 78.0 29.666666666666668 L 79.0 30.333333333333332 L 80.0 30.666666666666668 L 81.0 31.333333333333332 L 82.0 31.666666666666668 L 83.0 32.333333333333336 L 84.0 32.666666666666664 L 85.0 33.333333333333336 L 86.0 33.666666666666664 L 87.0 34.333333333333336 L 87.5 34.5 Z" stroke="none" fill="rgb(222,166,108)" />
<path d="M 88.5 48.5 L 89.0 48.333333333333336 L 90.0 47.666666666666664 L 91.0 47.333333333333336 L 92.0 46.666666666666664 L 93.0 46.333333333333336 L 94.0 45.666666666666664 L 95.0 45.333333333333336 L 96.0 44.666666666666664 L 97.0 44.333333333333336 L 98.0 43.666666666666664 L 99.0 43.0 L 99.66666666666667 42.0 L 99.66666666666667 41.0 L 99.0 40.333333333333336 L 98.0 39.666666666666664 L 97.0 39.0 L 96.0 38.333333333333336 L 95.0 37.666666666666664 L 94.0 37.333333333333336 L 93.0 36.666666666666664 L 92.0 36.333333333333336 L 91.0 35.666666666666664 L 90.0 35.333333333333336 L 89.0 34.666666666666664 L 88.0 34.333333333333336 L 87.0 33.666666666666664 L 86.0 33.333333333333336 L 85.0 32.666666666666664 L 84.0 32.333333333333336 L 83.0 31.666666666666668 L 82.0 31.333333333333332 L 81.0 30.666666666666668 L 80.0 30.333333333333332 L 79.0 29.666666666666668 L 78.0 29.333333333333332 L 77.0 28.666666666666668 L 76.0 28.0 L 75.0 27.333333333333332 L 74.0 26.666666666666668 L 73.0 26.333333333333332 L 72.0 25.666666666666668 L 71.0 25.333333333333332 L 70.0 24.666666666666668 L 69.0 24.333333333333332 L 68.0 23.666666666666668 L 67.0 23.333333333333332 L 66.0 22.666666666666668 L 65.0 22.333333333333332 L 64.0 21.666666666666668 L 63.0 21.333333333333332 L 62.0 20.666666666666668 L 61.0 20.333333333333332 L 60.0 19.666666666666668 L 59.0 19.333333333333332 L 58.0 18.666666666666668 L 57.0 18.333333333333332 L 56.0 17.666666666666668 L 55.0 17.0 L 54.0 16.333333333333332 L 53.0 15.666666666666666 L 52.0 15.333333333333334 L 51.0 14.666666666666666 L 50.0 14.333333333333334 L 49.0 13.666666666666666 L 48.0 13.333333333333334 L 47.0 13.0 L 46.0 13.0 L 45.0 13.0 L 44.0 13.333333333333334 L 43.0 13.666666666666666 L 42.0 14.333333333333334 L 41.0 14.666666666666666 L 40.0 15.333333333333334 L 39.0 15.666666666666666 L 38.0 16.333333333333332 L 37.0 17.0 L 36.0 17.666666666666668 L 35.0 18.333333333333332 L 34.0 18.666666666666668 L 33.0 19.333333333333332 L 32.0 19.666666666666668 L 31.333333333333332 20.333333333333332 L 31.0 21.0 L 31.0 22.0 L 31.333333333333332 22.666666666666668 L 32.0 23.333333333333332 L 33.0 23.666666666666668 L 34.0 24.333333333333332 L 35.0 24.666666666666668 L 36.0 25.333333333333332 L 37.0 25.666666666666668 L 38.0 26.333333333333332 L 39.0 26.666666666666668 L 40.0 27.333333333333332 L 41.0 27.666666666666668 L 42.0 28.333333333333332 L 43.0 28.666666666666668 L 44.0 29.333333333333332 L 45.0 30.0 L 46.0 30.666666666666668 L 47.0 31.333333333333332 L 48.0 31.666666666666668 L 49.0 32.333333333333336 L 50.0 32.666666666666664 L 51.0 33.333333333333336 L 52.0 33.666666666666664 L 53.0 34.333333333333336 L 54.0 34.666666666666664 L 55.0 35.333333333333336 L 56.0 35.666666666666664 L 57.0 36.333333333333336 L 58.0 36.666666666666664 L 59.0 37.333333333333336 L 60.0 37.666666666666664 L 61.0 38.333333333333336 L 62.0 38.666666666666664 L 63.0 39.333333333333336 L 64.0 39.666666666666664 L 65.0 40.333333333333336 L 66.0 40.666666666666664 L 67.0 41.333333333333336 L 68.0 41.666666666666664 L 69.0 42.333333333333336 L 70.0 42.666666666666664 L 71.0 43.333333333333336 L 72.0 43.666666666666664 L 73.0 44.333333333333336 L 74.0 44.666666666666664 L 75.0 45.333333333333336 L 76.0 46.0 L 77.0 46.666666666666664 L 78.0 47.333333333333336 L 79.0 47.666666666666664 L 80.0 48.333333333333336 L 81.0 49.0 L 82.0 50.0 L 83.0 50.666666666666664 L 84.0 51.0 L 85.0 50.666666666666664 L 86.0 50.0 L 87.0 49.333333333333336 L 87.5 49.0 Z" stroke="none" fill="rgb(255,224,178)" />
<path d="M 21.5 39.5 L 22.0 39.666666666666664 L 23.0 40.333333333333336 L 24.0 41.0 L 25.0 41.666666666666664 L 26.0 42.333333333333336 L 27.0 42.666666666666664 L 28.0 43.333333333333336 L 29.0 43.666666666666664 L 30.0 44.333333333333336 L 31.0 44.666666666666664 L 32.0 45.333333333333336 L 33.0 45.666666666666664 L 34.0 46.333333333333336 L 35.0 46.666666666666664 L 36.0 47.333333333333336 L 37.0 47.666666666666664 L 38.0 48.333333333333336 L 39.0 48.666666666666664 L 40.0 49.333333333333336 L 41.0 49.666666666666664 L 42.0 50.333333333333336 L 43.0 50.666666666666664 L 44.0 51.333333333333336 L 45.0 51.666666666666664 L 46.0 52.333333333333336 L 47.0 52.666666666666664 L 48.0 53.333333333333336 L 49.0 53.666666666666664 L 50.0 54.333333333333336 L 51.0 54.666666666666664 L 52.0 55.333333333333336 L 53.0 55.666666666666664 L 54.0 56.333333333333336 L 55.0 56.666666666666664 L 56.0 57.333333333333336 L 57.0 57.666666666666664 L 58.0 58.333333333333336 L 59.0 58.666666666666664 L 60.0 59.333333333333336 L 61.0 60.0 L 62.0 61.0 L 63.0 61.666666666666664 L 64.0 61.666666666666664 L 65.0 61.0 L 66.0 60.333333333333336 L 67.0 59.666666666666664 L 68.0 59.333333333333336 L 69.0 58.666666666666664 L 70.0 58.333333333333336 L 71.0 57.666666666666664 L 72.0 57.333333333333336 L 73.0 56.666666666666664 L 74.0 56.333333333333336 L 75.0 55.666666666666664 L 76.0 55.333333333333336 L 77.0 54.666666666666664 L 78.0 54.333333333333336 L 79.0 53.666666666666664 L 80.0 53.333333333333336 L 81.0 52.666666666666664 L 82.0 52.0 L 82.66666666666667 51.0 L 82.66666666666667 50.0 L 82.0 49.0 L 81.0 48.333333333333336 L 80.0 47.666666666666664 L 79.0 47.333333333333336 L 78.0 46.666666666666664 L 77.0 46.0 L 76.0 45.333333333333336 L 75.0 44.666666666666664 L 74.0 44.333333333333336 L 73.0 43.666666666666664 L 72.0 43.333333333333336 L 71.0 42.666666666666664 L 70.0 42.333333333333336 L 69.0 41.666666666666664 L 68.0 41.333333333333336 L 67.0 40.666666666666664 L 66.0 40.333333333333336 L 65.0 39.666666666666664 L 64.0 39.333333333333336 L 63.0 38.666666666666664 L 62.0 38.333333333333336 L 61.0 37.666666666666664 L 60.0 37.333333333333336 L 59.0 36.666666666666664 L 58.0 36.333333333333336 L 57.0 35.666666666666664 L 56.0 35.333333333333336 L 55.0 34.666666666666664 L 54.0 34.333333333333336 L 53.0 33.666666666666664 L 52.0 33.333333333333336 L 51.0 32.666666666666664 L 50.0 32.333333333333336 L 49.0 31.666666666666668 L 48.0 31.333333333333332 L 47.0 30.666666666666668 L 46.0 30.0 L 45.0 29.333333333333332 L 44.0 28.666666666666668 L 43.0 28.333333333333332 L 42.0 27.666666666666668 L 41.0 27.333333333333332 L 40.0 26.666666666666668 L 39.0 26.333333333333332 L 38.0 25.666666666666668 L 37.0 25.333333333333332 L 36.0 24.666666666666668 L 35.0 24.333333333333332 L 34.0 23.666666666666668 L 33.0 23.333333333333332 L 32.0 22.666666666666668 L 31.0 22.333333333333332 L 30.0 22.0 L 29.0 22.0 L 28.0 22.0 L 27.0 22.333333333333332 L 26.0 22.666666666666668 L 25.0 23.333333333333332 L 24.0 23.666666666666668 L 23.0 24.333333333333332 L 22.0 24.666666666666668 L 21.0 25.333333333333332 L 20.0 25.666666666666668 L 19.0 26.333333333333332 L 18.0 26.666666666666668 L 17.0 27.333333333333332 L 16.0 27.666666666666668 L 15.0 28.333333333333332 L 14.0 28.666666666666668 L 13.0 29.333333333333332 L 12.0 29.666666666666668 L 11.0 30.333333333333332 L 10.0 30.666666666666668 L 9.333333333333334 31.333333333333332 L 9.0 32.0 L 9.333333333333334 33.0 L 10.0 33.666666666666664 L 11.0 34.0 L 12.0 34.333333333333336 L 13.0 34.666666666666664 L 14.0 35.333333333333336 L 15.0 35.666666666666664 L 16.0 36.333333333333336 L 17.0 37.0 L 18.0 37.666666666666664 L 19.0 38.333333333333336 L 20.0 38.666666666666664 L 20.5 39.0 Z" stroke="none" fill="rgb(222,166,108)" />
<path d="M 59.5 123.0 L 60.0 123.33333333333333 L 61.0 123.66666666666667 L 62.0 124.0 L 63.0 124.0 L 63.666666666666664 123.66666666666667 L 64.0 123.0 L 64.0 122.0 L 64.0 121.0 L 64.0 120.0 L 64.0 119.0 L 64.0 118.0 L 64.0 117.0 L 64.0 116.0 L 64.0 115.0 L 64.0 114.0 L 64.0 113.0 L 64.0 112.0 L 64.0 111.0 L 64.0 110.0 L 64.0 109.0 L 64.0 108.0 L 64.0 107.0 L 64.0 106.0 L 64.0 105.0 L 64.0 104.0 L 64.0 103.0 L 64.0 102.0 L 64.0 101.0 L 64.0 100.0 L 64.0 99.0 L 64.0 98.0 L 64.0 97.0 L 64.0 96.0 L 64.0 95.0 L 64.0 94.0 L 64.0 93.0 L 64.0 92.0 L 64.0 91.0 L 64.0 90.0 L 64.0 89.0 L 64.0 88.0 L 64.0 87.0 L 64.0 86.0 L 64.0 85.0 L 64.0 84.0 L 64.0 83.0 L 64.0 82.0 L 64.0 81.0 L 64.0 80.0 L 64.0 79.0 L 64.0 78.0 L 64.0 77.0 L 64.0 76.0 L 64.0 75.0 L 64.0 74.0 L 64.0 73.0 L 64.0 72.0 L 64.0 71.0 L 64.0 70.0 L 64.0 69.0 L 64.0 68.0 L 64.0 67.0 L 64.0 66.0 L 64.0 65.0 L 64.0 64.0 L 64.0 63.0 L 63.666666666666664 62.0 L 63.0 61.0 L 62.0 60.0 L 61.0 59.333333333333336 L 60.0 58.666666666666664 L 59.0 58.333333333333336 L 58.0 57.666666666666664 L 57.0 57.333333333333336 L 56.0 56.666666666666664 L 55.0 56.333333333333336 L 54.0 55.666666666666664 L 53.0 55.333333333333336 L 52.0 54.666666666666664 L 51.0 54.333333333333336 L 50.0 53.666666666666664 L 49.0 53.333333333333336 L 48.0 52.666666666666664 L 47.0 52.333333333333336 L 46.0 51.666666666666664 L 45.0 51.333333333333336 L 44.0 50.666666666666664 L 43.0 50.333333333333336 L 42.0 49.666666666666664 L 41.0 49.333333333333336 L 40.0 48.666666666666664 L 39.0 48.333333333333336 L 38.0 47.666666666666664 L 37.0 47.333333333333336 L 36.0 46.666666666666664 L 35.0 46.333333333333336 L 34.0 45.666666666666664 L 33.0 45.333333333333336 L 32.0 44.666666666666664 L 31.0 44.333333333333336 L 30.0 43.666666666666664 L 29.0 43.333333333333336 L 28.0 42.666666666666664 L 27.0 42.333333333333336 L 26.0 41.666666666666664 L 25.0 41.0 L 24.0 40.333333333333336 L 23.0 39.666666666666664 L 22.0 39.333333333333336 L 21.0 38.666666666666664 L 20.0 38.333333333333336 L 19.0 37.666666666666664 L 18.0 37.0 L 17.0 36.333333333333336 L 16.0 35.666666666666664 L 15.0 35.333333333333336 L 14.0 34.666666666666664 L 13.0 34.333333333333336 L 12.0 34.0 L 11.0 34.0 L 10.0 34.0 L 9.0 34.333333333333336 L 8.333333333333334 35.0 L 8.0 36.0 L 8.0 37.0 L 8.0 38.0 L 8.0 39.0 L 8.0 40.0 L 8.0 41.0 L 8.0 42.0 L 8.0 43.0 L 8.0 44.0 L 8.0 45.0 L 8.0 46.0 L 8.0 47.0 L 8.0 48.0 L 8.0 49.0 L 8.0 50.0 L 8.0 51.0 L 8.0 52.0 L 8.0 53.0 L 8.0 54.0 L 8.0 55.0 L 8.0 56.0 L 8.0 57.0 L 8.0 58.0 L 8.0 59.0 L 8.0 60.0 L 8.0 61.0 L 8.0 62.0 L 8.0 63.0 L 8.0 64.0 L 8.0 65.0 L 8.0 66.0 L 8.0 67.0 L 8.0 68.0 L 8.0 69.0 L 8.0 70.0 L 8.0 71.0 L 8.0 72.0 L 8.0 73.0 L 8.0 74.0 L 8.0 75.0 L 8.0 76.0 L 8.0 77.0 L 8.0 78.0 L 8.0 79.0 L 8.0 80.0 L 8.0 81.0 L 8.0 82.0 L 8.0 83.0 L 8.0 84.0 L 8.0 85.0 L 8.0 86.0 L 8.0 87.0 L 8.0 88.0 L 8.0 89.0 L 8.0 90.0 L 8.0 91.0 L 8.0 92.0 L 8.0 93.0 L 8.0 94.0 L 8.0 95.0 L 8.333333333333334 96.0 L 9.0 96.66666666666667 L 10.0 97.33333333333333 L 11.0 98.0 L 12.0 98.66666666666667 L 13.0 99.33333333333333 L 14.0 99.66666666666667 L 15.0 100.33333333333333 L 16.0 100.66666666666667 L 17.0 101.33333333333333 L 18.0 101.66666666666667 L 19.0 102.33333333333333 L 20.0 102.66666666666667 L 21.0 103.33333333333333 L 22.0 103.66666666666667 L 23.0 104.33333333333333 L 24.0 104.66666666666667 L 25.0 105.33333333333333 L 26.0 106.0 L 27.0 106.66666666666667 L 28.0 107.33333333333333 L 29.0 107.66666666666667 L 30.0 108.33333333333333 L 31.0 108.66666666666667 L 32.0 109.33333333333333 L 33.0 109.66666666666667 L 34.0 110.33333333333333 L 35.0 110.66666666666667 L 36.0 111.33333333333333 L 37.0 111.66666666666667 L 38.0 112.33333333333333 L 39.0 112.66666666666667 L 40.0 113.33333333333333 L 41.0 113.66666666666667 L 42.0 114.33333333333333 L 43.0 114.66666666666667 L 44.0 115.33333333333333 L 45.0 115.66666666666667 L 46.0 116.33333333333333 L 47.0 116.66666666666667 L 48.0 117.33333333333333 L 49.0 117.66666666666667 L 50.0 118.33333333333333 L 51.0 118.66666666666667 L 52.0 119.33333333333333 L 53.0 119.66666666666667 L 54.0 120.33333333333333 L 55.0 120.66666666666667 L 56.0 121.33333333333333 L 57.0 121.66666666666667 L 58.0 122.33333333333333 L 58.5 122.5 Z" stroke="none" fill="rgb(179,130,81)" />
<path d="M 95.5 109.0 L 96.0 108.66666666666667 L 97.0 108.33333333333333 L 98.0 107.66666666666667 L 99.0 107.33333333333333 L 100.0 106.66666666666667 L 101.0 106.33333333333333 L 102.0 105.66666666666667 L 103.0 105.33333333333333 L 104.0 104.66666666666667 L 105.0 104.0 L 106.0 103.33333333333333 L 107.0 102.66666666666667 L 108.0 102.33333333333333 L 109.0 101.66666666666667 L 110.0 101.33333333333333 L 111.0 100.66666666666667 L 112.0 100.33333333333333 L 113.0 99.66666666666667 L 114.0 99.33333333333333 L 115.0 98.66666666666667 L 116.0 98.33333333333333 L 117.0 97.66666666666667 L 118.0 97.33333333333333 L 118.66666666666667 96.66666666666667 L 119.33333333333333 96.0 L 119.66666666666667 95.0 L 120.0 94.0 L 120.0 93.0 L 120.0 92.0 L 120.0 91.0 L 120.0 90.0 L 120.0 89.0 L 120.0 88.0 L 120.0 87.0 L 120.0 86.0 L 120.0 85.0 L 120.0 84.0 L 120.0 83.0 L 120.0 82.0 L 120.0 81.0 L 120.0 80.0 L 120.0 79.0 L 120.0 78.0 L 120.0 77.0 L 120.0 76.0 L 120.0 75.0 L 120.0 74.0 L 120.0 73.0 L 120.0 72.0 L 120.0 71.0 L 120.0 70.0 L 120.0 69.0 L 120.0 68.0 L 120.0 67.0 L 120.0 66.0 L 120.0 65.0 L 120.0 64.0 L 120.0 63.0 L 120.0 62.0 L 120.0 61.0 L 120.0 60.0 L 120.0 59.0 L 120.0 58.0 L 120.0 57.0 L 120.0 56.0 L 120.0 55.0 L 120.0 54.0 L 120.0 53.0 L 120.0 52.0 L 120.0 51.0 L 120.0 50.0 L 120.0 49.0 L 120.0 48.0 L 120.0 47.0 L 120.0 46.0 L 120.0 45.0 L 120.0 44.0 L 120.0 43.0 L 120.0 42.0 L 120.0 41.0 L 120.0 40.0 L 120.0 39.0 L 120.0 38.0 L 120.0 37.0 L 120.0 36.0 L 119.66666666666667 35.0 L 119.0 34.333333333333336 L 118.0 34.0 L 117.0 34.0 L 116.0 34.333333333333336 L 115.0 34.666666666666664 L 114.0 35.333333333333336 L 113.0 35.666666666666664 L 112.0 36.333333333333336 L 111.0 36.666666666666664 L 110.0 37.333333333333336 L 109.0 37.666666666666664 L 108.0 38.333333333333336 L 107.0 38.666666666666664 L 106.0 39.333333333333336 L 105.0 39.666666666666664 L 104.0 40.333333333333336 L 103.33333333333333 41.0 L 103.33333333333333 41.666666666666664 L 104.0 42.0 L 105.0 42.0 L 106.0 41.666666666666664 L 107.0 41.333333333333336 L 108.0 41.333333333333336 L 108.33333333333333 42.0 L 108.0 43.0 L 107.0 43.666666666666664 L 106.0 44.333333333333336 L 105.0 44.666666666666664 L 104.0 45.333333333333336 L 103.0 45.666666666666664 L 102.33333333333333 46.333333333333336 L 102.0 47.0 L 102.0 48.0 L 102.0 49.0 L 102.0 50.0 L 102.0 51.0 L 102.0 52.0 L 102.0 53.0 L 102.0 54.0 L 102.0 55.0 L 102.0 56.0 L 102.0 57.0 L 102.0 58.0 L 102.0 59.0 L 102.0 60.0 L 102.0 61.0 L 101.66666666666667 62.0 L 101.0 63.0 L 100.0 63.666666666666664 L 99.0 64.0 L 98.0 64.33333333333333 L 97.0 64.66666666666667 L 96.0 65.33333333333333 L 95.0 66.0 L 94.0 66.66666666666667 L 93.0 67.33333333333333 L 92.0 67.66666666666667 L 91.0 68.0 L 90.0 68.33333333333333 L 89.0 69.0 L 88.0 70.0 L 87.0 71.0 L 86.0 71.33333333333333 L 85.33333333333333 71.0 L 85.0 70.0 L 85.0 69.0 L 85.0 68.0 L 85.0 67.0 L 85.0 66.0 L 85.0 65.0 L 85.0 64.0 L 85.0 63.0 L 85.0 62.0 L 85.0 61.0 L 85.0 60.0 L 85.0 59.0 L 85.0 58.0 L 85.0 57.0 L 84.66666666666667 56.333333333333336 L 84.0 56.0 L 83.0 56.333333333333336 L 82.0 56.666666666666664 L 81.0 56.666666666666664 L 80.66666666666667 56.0 L 81.0 55.0 L 82.0 54.333333333333336 L 83.0 53.666666666666664 L 83.66666666666667 53.0 L 84.0 52.0 L 83.66666666666667 51.333333333333336 L 83.0 51.0 L 82.0 51.333333333333336 L 81.0 52.0 L 80.0 52.666666666666664 L 79.0 53.333333333333336 L 78.0 53.666666666666664 L 77.0 54.333333333333336 L 76.0 54.666666666666664 L 75.0 55.333333333333336 L 74.0 55.666666666666664 L 73.0 56.333333333333336 L 72.0 56.666666666666664 L 71.0 57.333333333333336 L 70.0 57.666666666666664 L 69.0 58.333333333333336 L 68.0 58.666666666666664 L 67.0 59.333333333333336 L 66.0 59.666666666666664 L 65.0 60.333333333333336 L 64.33333333333333 61.0 L 64.0 62.0 L 64.0 63.0 L 64.0 64.0 L 64.0 65.0 L 64.0 66.0 L 64.0 67.0 L 64.0 68.0 L 64.0 69.0 L 64.0 70.0 L 64.0 71.0 L 64.0 72.0 L 64.0 73.0 L 64.0 74.0 L 64.0 75.0 L 64.0 76.0 L 64.0 77.0 L 64.0 78.0 L 64.0 79.0 L 64.0 80.0 L 64.0 81.0 L 64.0 82.0 L 64.0 83.0 L 64.0 84.0 L 64.0 85.0 L 64.0 86.0 L 64.0 87.0 L 64.0 88.0 L 64.0 89.0 L 64.0 90.0 L 64.0 91.0 L 64.0 92.0 L 64.0 93.0 L 64.0 94.0 L 64.0 95.0 L 64.0 96.0 L 64.0 97.0 L 64.0 98.0 L 64.0 99.0 L 64.0 100.0 L 64.0 101.0 L 64.0 102.0 L 64.0 103.0 L 64.0 104.0 L 64.0 105.0 L 64.0 106.0 L 64.0 107.0 L 64.0 108.0 L 64.0 109.0 L 64.0 110.0 L 64.0 111.0 L 64.0 112.0 L 64.0 113.0 L 64.0 114.0 L 64.0 115.0 L 64.0 116.0 L 64.0 117.0 L 64.0 118.0 L 64.0 119.0 L 64.0 120.0 L 64.0 121.0 L 64.0 122.0 L 64.0 123.0 L 64.33333333333333 123.66666666666667 L 65.0 124.0 L 66.0 124.0 L 67.0 123.66666666666667 L 68.0 123.33333333333333 L 69.0 122.66666666666667 L 70.0 122.33333333333333 L 71.0 121.66666666666667 L 72.0 121.33333333333333 L 73.0 120.66666666666667 L 74.0 120.0 L 75.0 119.33333333333333 L 76.0 118.66666666666667 L 77.0 118.33333333333333 L 78.0 117.66666666666667 L 79.0 117.33333333333333 L 80.0 116.66666666666667 L 81.0 116.33333333333333 L 82.0 115.66666666666667 L 83.0 115.33333333333333 L 84.0 114.66666666666667 L 85.0 114.33333333333333 L 86.0 113.66666666666667 L 87.0 113.33333333333333 L 88.0 112.66666666666667 L 89.0 112.33333333333333 L 90.0 111.66666666666667 L 91.0 111.33333333333333 L 92.0 110.66666666666667 L 93.0 110.33333333333333 L 94.0 109.66666666666667 L 94.5 109.5 Z" stroke="none" fill="rgb(150,98,57)" />
<path d="M 112.0 39.5 L 111.66666666666667 39.333333333333336 L 111.33333333333333 39.333333333333336 L 111.33333333333333 39.666666666666664 L 111.5 40.0 Z" stroke="none" fill="rgb(93,66,45)" />
<path d="M 106.5 44.5 L 107.0 44.333333333333336 L 108.0 43.666666666666664 L 109.0 43.0 L 110.0 42.0 L 110.66666666666667 41.0 L 110.66666666666667 40.333333333333336 L 110.0 40.0 L 109.0 40.333333333333336 L 108.0 40.666666666666664 L 107.0 41.0 L 106.0 41.333333333333336 L 105.0 41.666666666666664 L 104.0 42.333333333333336 L 103.0 43.0 L 102.33333333333333 44.0 L 102.0 45.0 L 102.33333333333333 45.666666666666664 L 103.0 46.0 L 104.0 45.666666666666664 L 105.0 45.333333333333336 L 105.5 45.0 Z" stroke="none" fill="rgb(93,66,45)" />
<path d="M 101.5 63.5 L 101.66666666666667 63.0 L 102.0 62.0 L 102.0 61.0 L 102.0 60.0 L 102.0 59.0 L 102.0 58.0 L 102.0 57.0 L 102.0 56.0 L 102.0 55.0 L 102.0 54.0 L 102.0 53.0 L 102.0 52.0 L 102.0 51.0 L 102.0 50.0 L 102.0 49.0 L 102.0 48.0 L 102.0 47.0 L 102.0 46.0 L 102.0 45.0 L 102.0 44.0 L 101.66666666666667 43.0 L 101.0 42.333333333333336 L 100.0 42.0 L 99.0 42.333333333333336 L 98.0 43.0 L 97.0 43.666666666666664 L 96.0 44.333333333333336 L 95.0 44.666666666666664 L 94.0 45.333333333333336 L 93.0 45.666666666666664 L 92.0 46.333333333333336 L 91.0 46.666666666666664 L 90.0 47.333333333333336 L 89.0 47.666666666666664 L 88.0 48.333333333333336 L 87.0 48.666666666666664 L 86.0 49.333333333333336 L 85.0 50.0 L 84.33333333333333 51.0 L 84.0 52.0 L 84.33333333333333 53.0 L 84.66666666666667 54.0 L 85.0 55.0 L 85.0 56.0 L 85.0 57.0 L 85.0 58.0 L 85.0 59.0 L 85.0 60.0 L 85.0 61.0 L 85.0 62.0 L 85.0 63.0 L 85.0 64.0 L 85.0 65.0 L 85.0 66.0 L 85.0 67.0 L 85.0 68.0 L 85.0 69.0 L 85.0 70.0 L 85.0 71.0 L 85.33333333333333 71.66666666666667 L 86.0 72.0 L 87.0 71.66666666666667 L 88.0 71.0 L 89.0 70.0 L 90.0 69.0 L 91.0 68.33333333333333 L 92.0 68.0 L 93.0 67.66666666666667 L 94.0 67.33333333333333 L 95.0 66.66666666666667 L 96.0 66.0 L 97.0 65.33333333333333 L 98.0 64.66666666666667 L 99.0 64.33333333333333 L 100.0 64.0 L 100.5 64.0 Z" stroke="none" fill="rgb(191,159,133)" />
<path d="M 84.5 56.0 L 84.66666666666667 55.666666666666664 L 85.0 55.0 L 85.0 54.0 L 84.66666666666667 53.333333333333336 L 84.0 53.0 L 83.0 53.333333333333336 L 82.0 53.666666666666664 L 81.0 54.333333333333336 L 80.0 55.0 L 79.0 55.666666666666664 L 78.0 56.333333333333336 L 77.0 56.666666666666664 L 76.0 57.333333333333336 L 75.0 57.666666666666664 L 74.0 58.333333333333336 L 73.0 58.666666666666664 L 72.0 59.333333333333336 L 71.0 59.666666666666664 L 70.33333333333333 60.333333333333336 L 70.33333333333333 60.666666666666664 L 71.0 61.0 L 72.0 61.0 L 73.0 61.0 L 74.0 61.0 L 75.0 60.666666666666664 L 76.0 60.333333333333336 L 77.0 59.666666666666664 L 78.0 59.333333333333336 L 79.0 58.666666666666664 L 80.0 58.333333333333336 L 81.0 57.666666666666664 L 82.0 57.333333333333336 L 83.0 56.666666666666664 L 83.5 56.5 Z" stroke="none" fill="rgb(93,66,45)" />
<path d="M 24.0 97.5 L 24.0 97.0 L 23.666666666666668 96.0 L 23.666666666666668 95.0 L 23.666666666666668 94.0 L 24.0 93.0 L 24.0 92.0 L 24.0 91.0 L 24.0 90.0 L 24.0 89.0 L 24.0 88.0 L 23.666666666666668 87.0 L 23.0 86.33333333333333 L 22.0 86.0 L 21.333333333333332 86.33333333333333 L 21.0 87.0 L 21.0 88.0 L 21.0 89.0 L 21.0 90.0 L 21.0 91.0 L 21.0 92.0 L 21.0 93.0 L 20.666666666666668 94.0 L 20.0 94.33333333333333 L 19.0 94.0 L 18.0 93.0 L 17.333333333333332 92.0 L 17.0 91.0 L 17.0 90.0 L 17.0 89.0 L 17.0 88.0 L 17.0 87.0 L 17.0 86.0 L 17.0 85.0 L 17.0 84.0 L 16.666666666666668 83.0 L 16.0 82.33333333333333 L 15.0 82.0 L 14.333333333333334 82.33333333333333 L 14.0 83.0 L 14.0 84.0 L 14.0 85.0 L 14.0 86.0 L 14.0 87.0 L 14.0 88.0 L 14.0 89.0 L 14.0 90.0 L 14.0 91.0 L 14.0 92.0 L 14.333333333333334 93.0 L 15.0 94.0 L 16.0 95.0 L 17.0 95.66666666666667 L 18.0 96.33333333333333 L 19.0 96.66666666666667 L 20.0 97.33333333333333 L 21.0 97.66666666666667 L 22.0 98.0 L 23.0 98.0 L 23.5 98.0 Z" stroke="none" fill="rgb(106,81,57)" />
<path d="M 33.5 104.0 L 34.0 104.0 L 35.0 104.0 L 35.666666666666664 103.66666666666667 L 36.0 103.0 L 35.666666666666664 102.0 L 35.0 101.0 L 34.333333333333336 100.0 L 34.0 99.0 L 34.333333333333336 98.0 L 35.0 97.33333333333333 L 36.0 97.0 L 37.0 96.66666666666667 L 37.666666666666664 96.0 L 38.0 95.0 L 37.666666666666664 94.0 L 37.0 93.0 L 36.0 92.0 L 35.0 91.0 L 34.0 90.0 L 33.0 89.33333333333333 L 32.0 88.66666666666667 L 31.0 88.33333333333333 L 30.0 88.0 L 29.0 88.0 L 28.333333333333332 88.33333333333333 L 28.0 89.0 L 28.0 90.0 L 28.0 91.0 L 28.333333333333332 92.0 L 29.0 93.0 L 30.0 94.0 L 30.666666666666668 95.0 L 31.0 96.0 L 31.0 97.0 L 31.0 98.0 L 31.0 99.0 L 31.0 100.0 L 31.0 101.0 L 31.333333333333332 102.0 L 32.0 103.0 L 32.5 103.5 Z" stroke="none" fill="rgb(106,81,57)" />
</svg>
