<?xml version="1.0" encoding="UTF-8" standalone="no"?>
<!DOCTYPE svg PUBLIC "-//W3C//DTD SVG 1.1//EN"
"http://www.w3.org/Graphics/SVG/1.1/DTD/svg11.dtd">
<svg width="128" height="128" xmlns="http://www.w3.org/2000/svg" version="1.1">
<path d="M 26.5 128.0 L 27.0 128.0 L 28.0 128.0 L 29.0 128.0 L 30.0 128.0 L 31.0 128.0 L 32.0 128.0 L 33.0 128.0 L 34.0 128.0 L 35.0 128.0 L 36.0 128.0 L 37.0 128.0 L 38.0 128.0 L 39.0 128.0 L 40.0 128.0 L 41.0 128.0 L 42.0 128.0 L 43.0 128.0 L 44.0 128.0 L 45.0 128.0 L 46.0 128.0 L 47.0 128.0 L 48.0 128.0 L 49.0 128.0 L 50.0 128.0 L 51.0 128.0 L 52.0 128.0 L 53.0 128.0 L 54.0 128.0 L 55.0 128.0 L 56.0 128.0 L 57.0 128.0 L 58.0 128.0 L 59.0 128.0 L 60.0 128.0 L 61.0 128.0 L 62.0 128.0 L 63.0 128.0 L 64.0 128.0 L 65.0 128.0 L 66.0 128.0 L 67.0 128.0 L 68.0 128.0 L 69.0 128.0 L 70.0 128.0 L 71.0 128.0 L 72.0 128.0 L 73.0 128.0 L 74.0 128.0 L 75.0 128.0 L 76.0 128.0 L 77.0 128.0 L 78.0 128.0 L 79.0 128.0 L 80.0 128.0 L 81.0 128.0 L 82.0 128.0 L 83.0 128.0 L 84.0 128.0 L 85.0 128.0 L 86.0 128.0 L 87.0 128.0 L 88.0 128.0 L 89.0 128.0 L 90.0 128.0 L 91.0 128.0 L 92.0 128.0 L 93.0 128.0 L 94.0 128.0 L 95.0 128.0 L 96.0 128.0 L 97.0 128.0 L 98.0 128.0 L 99.0 128.0 L 100.0 128.0 L 101.0 128.0 L 102.0 128.0 L 103.0 128.0 L 104.0 128.0 L 105.0 128.0 L 106.0 128.0 L 107.0 128.0 L 108.0 128.0 L 109.0 128.0 L 110.0 128.0 L 111.0 128.0 L 112.0 128.0 L 113.0 128.0 L 114.0 128.0 L 115.0 128.0 L 116.0 128.0 L 117.0 128.0 L 118.0 128.0 L 119.0 128.0 L 120.0 128.0 L 121.0 128.0 L 122.0 128.0 L 123.0 128.0 L 124.0 128.0 L 125.0 128.0 L 126.0 128.0 L 127.0 128.0 L 127.66666666666667 127.66666666666667 L 128.0 127.0 L 128.0 126.0 L 128.0 125.0 L 128.0 124.0 L 128.0 123.0 L 128.0 122.0 L 128.0 121.0 L 128.0 120.0 L 128.0 119.0 L 128.0 118.0 L 128.0 117.0 L 128.0 116.0 L 128.0 115.0 L 128.0 114.0 L 128.0 113.0 L 128.0 112.0 L 128.0 111.0 L 128.0 110.0 L 128.0 109.0 L 128.0 108.0 L 128.0 107.0 L 128.0 106.0 L 128.0 105.0 L 128.0 104.0 L 128.0 103.0 L 128.0 102.0 L 128.0 101.0 L 128.0 100.0 L 128.0 99.0 L 128.0 98.0 L 128.0 97.0 L 128.0 96.0 L 128.0 95.0 L 128.0 94.0 L 128.0 93.0 L 128.0 92.0 L 128.0 91.0 L 128.0 90.0 L 128.0 89.0 L 128.0 88.0 L 128.0 87.0 L 128.0 86.0 L 128.0 85.0 L 128.0 84.0 L 128.0 83.0 L 128.0 82.0 L 128.0 81.0 L 128.0 80.0 L 128.0 79.0 L 128.0 78.0 L 128.0 77.0 L 128.0 76.0 L 128.0 75.0 L 128.0 74.0 L 128.0 73.0 L 128.0 72.0 L 128.0 71.0 L 128.0 70.0 L 128.0 69.0 L 128.0 68.0 L 128.0 67.0 L 128.0 66.0 L 128.0 65.0 L 128.0 64.0 L 128.0 63.0 L 128.0 62.0 L 128.0 61.0 L 128.0 60.0 L 128.0 59.0 L 128.0 58.0 L 128.0 57.0 L 128.0 56.0 L 128.0 55.0 L 128.0 54.0 L 128.0 53.0 L 128.0 52.0 L 128.0 51.0 L 128.0 50.0 L 128.0 49.0 L 128.0 48.0 L 128.0 47.0 L 128.0 46.0 L 128.0 45.0 L 128.0 44.0 L 128.0 43.0 L 128.0 42.0 L 128.0 41.0 L 128.0 40.0 L 128.0 39.0 L 128.0 38.0 L 128.0 37.0 L 128.0 36.0 L 128.0 35.0 L 128.0 34.0 L 128.0 33.0 L 128.0 32.0 L 128.0 31.0 L 128.0 30.0 L 128.0 29.0 L 128.0 28.0 L 128.0 27.0 L 128.0 26.0 L 128.0 25.0 L 128.0 24.0 L 128.0 23.0 L 128.0 22.0 L 128.0 21.0 L 128.0 20.0 L 128.0 19.0 L 128.0 18.0 L 128.0 17.0 L 128.0 16.0 L 128.0 15.0 L 128.0 14.0 L 128.0 13.0 L 128.0 12.0 L 128.0 11.0 L 128.0 10.0 L 128.0 9.0 L 128.0 8.0 L 128.0 7.0 L 128.0 6.0 L 128.0 5.0 L 128.0 4.0 L 128.0 3.0 L 128.0 2.0 L 128.0 1.0 L 127.66666666666667 0.3333333333333333 L 127.0 0.0 L 126.0 0.0 L 125.0 0.0 L 124.0 0.0 L 123.0 0.0 L 122.0 0.0 L 121.0 0.0 L 120.0 0.0 L 119.0 0.0 L 118.0 0.0 L 117.0 0.0 L 116.0 0.0 L 115.0 0.0 L 114.0 0.0 L 113.0 0.0 L 112.0 0.0 L 111.0 0.0 L 110.0 0.0 L 109.0 0.0 L 108.0 0.0 L 107.0 0.0 L 106.0 0.0 L 105.0 0.0 L 104.0 0.0 L 103.0 0.0 L 102.0 0.0 L 101.0 0.0 L 100.0 0.0 L 99.0 0.0 L 98.0 0.0 L 97.0 0.0 L 96.0 0.0 L 95.0 0.0 L 94.0 0.0 L 93.0 0.0 L 92.0 0.0 L 91.0 0.0 L 90.0 0.0 L 89.0 0.0 L 88.0 0.0 L 87.0 0.0 L 86.0 0.0 L 85.0 0.0 L 84.0 0.0 L 83.0 0.0 L 82.0 0.0 L 81.0 0.0 L 80.0 0.0 L 79.0 0.0 L 78.0 0.0 L 77.0 0.0 L 76.0 0.0 L 75.0 0.0 L 74.0 0.0 L 73.0 0.0 L 72.0 0.0 L 71.0 0.0 L 70.0 0.0 L 69.0 0.0 L 68.0 0.0 L 67.0 0.0 L 66.0 0.0 L 65.0 0.0 L 64.0 0.0 L 63.0 0.0 L 62.0 0.0 L 61.0 0.0 L 60.0 0.0 L 59.0 0.0 L 58.0 0.0 L 57.0 0.0 L 56.0 0.0 L 55.0 0.0 L 54.0 0.0 L 53.0 0.0 L 52.0 0.0 L 51.0 0.0 L 50.0 0.0 L 49.0 0.0 L 48.0 0.0 L 47.0 0.0 L 46.0 0.0 L 45.0 0.0 L 44.0 0.0 L 43.0 0.0 L 42.0 0.0 L 41.0 0.0 L 40.0 0.0 L 39.0 0.0 L 38.0 0.0 L 37.0 0.0 L 36.0 0.0 L 35.0 0.0 L 34.0 0.0 L 33.0 0.0 L 32.0 0.0 L 31.0 0.0 L 30.0 0.0 L 29.0 0.0 L 28.0 0.0 L 27.0 0.0 L 26.0 0.0 L 25.0 0.0 L 24.0 0.0 L 23.0 0.0 L 22.0 0.0 L 21.0 0.0 L 20.0 0.0 L 19.0 0.0 L 18.0 0.0 L 17.0 0.0 L 16.0 0.0 L 15.0 0.0 L 14.0 0.0 L 13.0 0.0 L 12.0 0.0 L 11.0 0.0 L 10.0 0.0 L 9.0 0.0 L 8.0 0.0 L 7.0 0.0 L 6.0 0.0 L 5.0 0.0 L 4.0 0.0 L 3.0 0.0 L 2.0 0.0 L 1.0 0.0 L 0.3333333333333333 0.3333333333333333 L 0.0 1.0 L 0.0 2.0 L 0.0 3.0 L 0.0 4.0 L 0.0 5.0 L 0.0 6.0 L 0.0 7.0 L 0.0 8.0 L 0.0 9.0 L 0.0 10.0 L 0.0 11.0 L 0.0 12.0 L 0.0 13.0 L 0.0 14.0 L 0.0 15.0 L 0.0 16.0 L 0.0 17.0 L 0.0 18.0 L 0.0 19.0 L 0.0 20.0 L 0.0 21.0 L 0.0 22.0 L 0.0 23.0 L 0.0 24.0 L 0.0 25.0 L 0.0 26.0 L 0.0 27.0 L 0.0 28.0 L 0.0 29.0 L 0.0 30.0 L 0.0 31.0 L 0.0 32.0 L 0.0 33.0 L 0.0 34.0 L 0.0 35.0 L 0.0 36.0 L 0.0 37.0 L 0.0 38.0 L 0.0 39.0 L 0.0 40.0 L 0.0 41.0 L 0.0 42.0 L 0.0 43.0 L 0.0 44.0 L 0.0 45.0 L 0.0 46.0 L 0.0 47.0 L 0.0 48.0 L 0.0 49.0 L 0.0 50.0 L 0.0 51.0 L 0.0 52.0 L 0.0 53.0 L 0.0 54.0 L 0.0 55.0 L 0.0 56.0 L 0.0 57.0 L 0.0 58.0 L 0.0 59.0 L 0.0 60.0 L 0.0 61.0 L 0.0 62.0 L 0.0 63.0 L 0.0 64.0 L 0.0 65.0 L 0.0 66.0 L 0.0 67.0 L 0.0 68.0 L 0.0 69.0 L 0.0 70.0 L 0.0 71.0 L 0.0 72.0 L 0.0 73.0 L 0.0 74.0 L 0.0 75.0 L 0.0 76.0 L 0.0 77.0 L 0.0 78.0 L 0.0 79.0 L 0.0 80.0 L 0.0 81.0 L 0.0 82.0 L 0.0 83.0 L 0.0 84.0 L 0.0 85.0 L 0.0 86.0 L 0.0 87.0 L 0.0 88.0 L 0.0 89.0 L 0.0 90.0 L 0.0 91.0 L 0.0 92.0 L 0.0 93.0 L 0.0 94.0 L 0.0 95.0 L 0.0 96.0 L 0.0 97.0 L 0.0 98.0 L 0.0 99.0 L 0.0 100.0 L 0.0 101.0 L 0.0 102.0 L 0.0 103.0 L 0.0 104.0 L 0.0 105.0 L 0.0 106.0 L 0.0 107.0 L 0.0 108.0 L 0.0 109.0 L 0.0 110.0 L 0.0 111.0 L 0.0 112.0 L 0.0 113.0 L 0.0 114.0 L 0.0 115.0 L 0.0 116.0 L 0.0 117.0 L 0.0 118.0 L 0.0 119.0 L 0.0 120.0 L 0.0 121.0 L 0.0 122.0 L 0.0 123.0 L 0.0 124.0 L 0.0 125.0 L 0.0 126.0 L 0.0 127.0 L 0.3333333333333333 127.66666666666667 L 1.0 128.0 L 2.0 128.0 L 3.0 128.0 L 4.0 128.0 L 5.0 128.0 L 6.0 128.0 L 7.0 128.0 L 8.0 128.0 L 9.0 128.0 L 10.0 128.0 L 11.0 128.0 L 12.0 128.0 L 13.0 128.0 L 14.0 128.0 L 15.0 128.0 L 16.0 128.0 L 17.0 128.0 L 18.0 128.0 L 19.0 128.0 L 20.0 128.0 L 21.0 128.0 L 22.0 128.0 L 23.0 128.0 L 24.0 128.0 L 25.0 128.0 L 25.5 128.0 Z" stroke="none" fill="rgb(0,0,0)" />
<path d="M 72.5 7.5 L 73.0 7.666666666666667 L 74.0 8.0 L 75.0 8.333333333333334 L 76.0 8.666666666666666 L 77.0 9.333333333333334 L 78.0 9.666666666666666 L 79.0 10.333333333333334 L 80.0 10.666666666666666 L 81.0 11.333333333333334 L 82.0 12.0 L 83.0 13.0 L 84.0 14.0 L 85.0 15.0 L 86.0 16.0 L 87.0 17.0 L 87.66666666666667 18.0 L 88.33333333333333 19.0 L 88.66666666666667 20.0 L 89.33333333333333 21.0 L 89.66666666666667 22.0 L 90.33333333333333 23.0 L 90.66666666666667 24.0 L 91.0 25.0 L 91.33333333333333 26.0 L 92.0 26.666666666666668 L 92.66666666666667 26.666666666666668 L 93.0 26.0 L 93.0 25.0 L 92.66666666666667 24.0 L 92.33333333333333 23.0 L 92.0 22.0 L 92.0 21.0 L 92.0 20.0 L 91.66666666666667 19.0 L 91.33333333333333 18.0 L 90.66666666666667 17.0 L 90.33333333333333 16.0 L 89.66666666666667 15.0 L 89.0 14.0 L 88.0 13.0 L 87.0 12.0 L 86.0 11.0 L 85.0 10.0 L 84.0 9.333333333333334 L 83.0 8.666666666666666 L 82.0 8.333333333333334 L 81.0 7.666666666666667 L 80.0 7.333333333333333 L 79.0 7.0 L 78.0 6.666666666666667 L 77.0 6.333333333333333 L 76.0 6.0 L 75.0 6.0 L 74.0 6.0 L 73.0 5.666666666666667 L 72.0 5.333333333333333 L 71.0 5.0 L 70.0 5.0 L 69.0 5.0 L 68.0 5.0 L 67.0 5.0 L 66.0 5.0 L 65.33333333333333 5.333333333333333 L 65.0 6.0 L 65.33333333333333 6.666666666666667 L 66.0 7.0 L 67.0 7.0 L 68.0 7.0 L 69.0 7.0 L 70.0 7.0 L 71.0 7.0 L 71.5 7.0 Z" stroke="none" fill="rgb(82,63,54)" />
<path d="M 62.0 6.5 L 61.666666666666664 6.333333333333333 L 61.0 6.0 L 60.333333333333336 6.333333333333333 L 60.333333333333336 6.666666666666667 L 61.0 7.0 L 61.5 7.0 Z" stroke="none" fill="rgb(82,63,54)" />
<path d="M 72.5 9.5 L 73.0 9.666666666666666 L 74.0 10.0 L 75.0 10.333333333333334 L 76.0 10.666666666666666 L 77.0 11.333333333333334 L 78.0 11.666666666666666 L 79.0 12.333333333333334 L 80.0 13.0 L 81.0 14.0 L 82.0 15.0 L 83.0 16.0 L 84.0 17.0 L 85.0 18.0 L 86.0 19.0 L 86.66666666666667 20.0 L 87.33333333333333 21.0 L 87.66666666666667 22.0 L 88.33333333333333 23.0 L 88.66666666666667 24.0 L 89.0 25.0 L 89.33333333333333 26.0 L 89.66666666666667 27.0 L 90.0 28.0 L 90.0 29.0 L 90.0 30.0 L 90.0 31.0 L 90.0 32.0 L 90.0 33.0 L 90.0 34.0 L 90.0 35.0 L 90.33333333333333 35.666666666666664 L 91.0 35.666666666666664 L 91.66666666666667 35.0 L 92.0 34.0 L 92.0 33.0 L 92.0 32.0 L 92.0 31.0 L 92.33333333333333 30.0 L 92.66666666666667 29.0 L 93.0 28.0 L 92.66666666666667 27.0 L 92.0 26.0 L 91.33333333333333 25.0 L 91.0 24.0 L 90.66666666666667 23.0 L 90.33333333333333 22.0 L 89.66666666666667 21.0 L 89.33333333333333 20.0 L 88.66666666666667 19.0 L 88.33333333333333 18.0 L 87.66666666666667 17.0 L 87.0 16.0 L 86.0 15.0 L 85.0 14.0 L 84.0 13.0 L 83.0 12.0 L 82.0 11.333333333333334 L 81.0 10.666666666666666 L 80.0 10.333333333333334 L 79.0 9.666666666666666 L 78.0 9.333333333333334 L 77.0 8.666666666666666 L 76.0 8.333333333333334 L 75.0 8.0 L 74.0 7.666666666666667 L 73.0 7.333333333333333 L 72.0 7.0 L 71.0 7.0 L 70.0 7.0 L 69.0 7.0 L 68.0 7.0 L 67.0 7.0 L 66.0 7.0 L 65.0 7.0 L 64.0 7.0 L 63.0 7.0 L 62.0 7.0 L 61.0 7.0 L 60.0 7.333333333333333 L 59.0 7.666666666666667 L 58.0 8.0 L 57.0 8.333333333333334 L 56.0 8.666666666666666 L 55.0 9.333333333333334 L 54.0 9.666666666666666 L 53.0 10.333333333333334 L 52.0 11.0 L 51.0 12.0 L 50.0 12.666666666666666 L 49.0 13.333333333333334 L 48.0 14.0 L 47.0 15.0 L 46.0 16.0 L 45.333333333333336 17.0 L 44.666666666666664 18.0 L 44.333333333333336 19.0 L 44.0 20.0 L 43.666666666666664 21.0 L 43.333333333333336 22.0 L 43.0 23.0 L 43.333333333333336 23.666666666666668 L 44.0 24.0 L 44.666666666666664 23.666666666666668 L 45.333333333333336 23.0 L 45.666666666666664 22.0 L 46.333333333333336 21.0 L 46.666666666666664 20.0 L 47.333333333333336 19.0 L 48.0 18.0 L 49.0 17.0 L 50.0 16.0 L 51.0 15.0 L 52.0 14.0 L 53.0 13.333333333333334 L 54.0 12.666666666666666 L 55.0 12.0 L 56.0 11.333333333333334 L 57.0 10.666666666666666 L 58.0 10.333333333333334 L 59.0 10.0 L 60.0 9.666666666666666 L 61.0 9.333333333333334 L 62.0 9.0 L 63.0 9.333333333333334 L 64.0 9.666666666666666 L 65.0 10.0 L 66.0 10.0 L 67.0 10.0 L 68.0 10.0 L 69.0 10.0 L 70.0 9.666666666666666 L 71.0 9.333333333333334 L 71.5 9.0 Z" stroke="none" fill="rgb(77,58,49)" />
<path d="M 61.5 11.0 L 62.0 11.0 L 63.0 10.666666666666666 L 63.666666666666664 10.0 L 63.666666666666664 9.333333333333334 L 63.0 9.0 L 62.0 9.0 L 61.0 9.0 L 60.0 9.333333333333334 L 59.0 9.666666666666666 L 58.0 10.0 L 57.0 10.333333333333334 L 56.0 10.666666666666666 L 55.0 11.333333333333334 L 54.0 12.0 L 53.0 12.666666666666666 L 52.0 13.333333333333334 L 51.0 14.0 L 50.0 15.0 L 49.0 16.0 L 48.0 17.0 L 47.333333333333336 18.0 L 46.666666666666664 19.0 L 46.333333333333336 20.0 L 45.666666666666664 21.0 L 45.333333333333336 22.0 L 44.666666666666664 23.0 L 44.333333333333336 24.0 L 44.0 25.0 L 44.333333333333336 25.666666666666668 L 45.0 26.0 L 45.666666666666664 25.666666666666668 L 46.0 25.0 L 46.333333333333336 24.0 L 46.666666666666664 23.0 L 47.333333333333336 22.0 L 48.0 21.0 L 48.666666666666664 20.0 L 49.333333333333336 19.0 L 50.0 18.0 L 51.0 17.0 L 52.0 16.0 L 53.0 15.333333333333334 L 54.0 14.666666666666666 L 55.0 14.0 L 56.0 13.333333333333334 L 57.0 12.666666666666666 L 58.0 12.333333333333334 L 59.0 11.666666666666666 L 60.0 11.333333333333334 L 60.5 11.0 Z" stroke="none" fill="rgb(73,55,46)" />
<path d="M 88.5 29.5 L 89.0 29.666666666666668 L 89.66666666666667 29.666666666666668 L 90.0 29.0 L 90.0 28.0 L 90.0 27.0 L 89.66666666666667 26.0 L 89.33333333333333 25.0 L 89.0 24.0 L 88.66666666666667 23.0 L 88.33333333333333 22.0 L 87.66666666666667 21.0 L 87.33333333333333 20.0 L 86.66666666666667 19.0 L 86.0 18.0 L 85.0 17.0 L 84.0 16.0 L 83.0 15.0 L 82.0 14.0 L 81.0 13.0 L 80.0 12.333333333333334 L 79.0 11.666666666666666 L 78.0 11.333333333333334 L 77.0 10.666666666666666 L 76.0 10.333333333333334 L 75.0 10.0 L 74.0 9.666666666666666 L 73.0 9.333333333333334 L 72.0 9.0 L 71.0 9.0 L 70.33333333333333 9.333333333333334 L 70.0 10.0 L 70.33333333333333 10.666666666666666 L 71.0 11.0 L 72.0 11.0 L 73.0 11.333333333333334 L 74.0 11.666666666666666 L 75.0 12.333333333333334 L 76.0 12.666666666666666 L 77.0 13.333333333333334 L 78.0 13.666666666666666 L 79.0 14.333333333333334 L 80.0 15.0 L 81.0 16.0 L 82.0 17.0 L 83.0 18.0 L 84.0 19.0 L 84.66666666666667 20.0 L 85.33333333333333 21.0 L 85.66666666666667 22.0 L 86.33333333333333 23.0 L 86.66666666666667 24.0 L 87.33333333333333 25.0 L 87.66666666666667 26.0 L 88.0 27.0 L 88.0 28.0 L 88.0 28.5 Z" stroke="none" fill="rgb(73,55,46)" />
<path d="M 49.5 13.0 L 50.0 13.0 L 51.0 12.666666666666666 L 51.666666666666664 12.0 L 52.0 11.0 L 51.666666666666664 10.333333333333334 L 51.0 10.333333333333334 L 50.0 11.0 L 49.333333333333336 12.0 L 49.0 12.5 Z" stroke="none" fill="rgb(82,63,54)" />
<path d="M 88.0 38.5 L 88.0 38.0 L 88.0 37.0 L 88.33333333333333 36.0 L 89.0 35.333333333333336 L 89.66666666666667 34.666666666666664 L 90.0 34.0 L 90.0 33.0 L 90.0 32.0 L 90.0 31.0 L 89.66666666666667 30.0 L 89.0 29.0 L 88.33333333333333 28.0 L 88.0 27.0 L 88.0 26.0 L 87.66666666666667 25.0 L 87.33333333333333 24.0 L 86.66666666666667 23.0 L 86.33333333333333 22.0 L 85.66666666666667 21.0 L 85.33333333333333 20.0 L 84.66666666666667 19.0 L 84.0 18.0 L 83.0 17.0 L 82.0 16.0 L 81.0 15.0 L 80.0 14.333333333333334 L 79.0 13.666666666666666 L 78.0 13.333333333333334 L 77.0 12.666666666666666 L 76.0 12.333333333333334 L 75.0 11.666666666666666 L 74.0 11.333333333333334 L 73.0 11.0 L 72.0 11.0 L 71.0 10.666666666666666 L 70.0 10.333333333333334 L 69.0 10.0 L 68.0 10.0 L 67.0 10.0 L 66.0 10.0 L 65.0 10.0 L 64.0 10.0 L 63.0 10.333333333333334 L 62.0 10.666666666666666 L 61.0 11.0 L 60.0 11.0 L 59.0 11.333333333333334 L 58.0 11.666666666666666 L 57.0 12.333333333333334 L 56.0 12.666666666666666 L 55.0 13.333333333333334 L 54.0 14.0 L 53.0 14.666666666666666 L 52.0 15.333333333333334 L 51.0 16.0 L 50.0 17.0 L 49.333333333333336 18.0 L 48.666666666666664 19.0 L 48.0 20.0 L 47.333333333333336 21.0 L 46.666666666666664 22.0 L 46.333333333333336 23.0 L 46.0 24.0 L 45.666666666666664 25.0 L 45.333333333333336 26.0 L 45.333333333333336 27.0 L 46.0 27.666666666666668 L 46.666666666666664 27.666666666666668 L 47.0 27.0 L 47.333333333333336 26.0 L 47.666666666666664 25.0 L 48.333333333333336 24.0 L 48.666666666666664 23.0 L 49.333333333333336 22.0 L 50.0 21.0 L 50.666666666666664 20.0 L 51.333333333333336 19.0 L 52.0 18.0 L 53.0 17.0 L 54.0 16.333333333333332 L 55.0 15.666666666666666 L 56.0 15.0 L 57.0 14.333333333333334 L 58.0 13.666666666666666 L 59.0 13.333333333333334 L 60.0 13.0 L 61.0 12.666666666666666 L 62.0 12.333333333333334 L 63.0 12.0 L 64.0 12.333333333333334 L 65.0 12.666666666666666 L 66.0 13.0 L 67.0 13.0 L 68.0 13.0 L 69.0 13.0 L 70.0 12.666666666666666 L 71.0 12.666666666666666 L 72.0 12.666666666666666 L 73.0 13.0 L 74.0 13.333333333333334 L 75.0 13.666666666666666 L 76.0 14.333333333333334 L 77.0 14.666666666666666 L 78.0 15.333333333333334 L 79.0 16.0 L 80.0 17.0 L 81.0 18.0 L 82.0 19.0 L 83.0 20.0 L 83.66666666666667 21.0 L 84.33333333333333 22.0 L 84.66666666666667 23.0 L 85.33333333333333 24.0 L 85.66666666666667 25.0 L 86.0 26.0 L 86.33333333333333 27.0 L 86.66666666666667 28.0 L 87.0 29.0 L 87.0 30.0 L 87.0 31.0 L 87.0 32.0 L 87.0 33.0 L 87.0 34.0 L 87.0 35.0 L 86.66666666666667 36.0 L 86.33333333333333 37.0 L 86.0 38.0 L 85.66666666666667 39.0 L 85.33333333333333 40.0 L 84.66666666666667 41.0 L 84.0 42.0 L 83.33333333333333 43.0 L 82.66666666666667 44.0 L 82.33333333333333 45.0 L 82.0 46.0 L 82.33333333333333 46.666666666666664 L 83.0 47.0 L 83.66666666666667 46.666666666666664 L 84.33333333333333 46.0 L 84.66666666666667 45.0 L 85.33333333333333 44.0 L 85.66666666666667 43.0 L 86.33333333333333 42.0 L 86.66666666666667 41.0 L 87.33333333333333 40.0 L 87.5 39.5 Z" stroke="none" fill="rgb(68,51,43)" />
<path d="M 47.5 27.0 L 48.0 27.0 L 48.666666666666664 26.666666666666668 L 49.0 26.0 L 49.333333333333336 25.0 L 49.666666666666664 24.0 L 50.333333333333336 23.0 L 51.0 22.0 L 52.0 21.0 L 52.666666666666664 20.0 L 53.333333333333336 19.0 L 54.0 18.333333333333332 L 55.0 17.666666666666668 L 56.0 17.0 L 57.0 16.333333333333332 L 58.0 15.666666666666666 L 59.0 15.333333333333334 L 60.0 14.666666666666666 L 61.0 14.333333333333334 L 62.0 14.0 L 63.0 14.0 L 64.0 13.666666666666666 L 64.66666666666667 13.0 L 64.66666666666667 12.333333333333334 L 64.0 12.0 L 63.0 12.0 L 62.0 12.0 L 61.0 12.333333333333334 L 60.0 12.666666666666666 L 59.0 13.0 L 58.0 13.333333333333334 L 57.0 13.666666666666666 L 56.0 14.333333333333334 L 55.0 15.0 L 54.0 15.666666666666666 L 53.0 16.333333333333332 L 52.0 17.0 L 51.333333333333336 18.0 L 50.666666666666664 19.0 L 50.0 20.0 L 49.333333333333336 21.0 L 48.666666666666664 22.0 L 48.333333333333336 23.0 L 47.666666666666664 24.0 L 47.333333333333336 25.0 L 47.0 26.0 L 47.0 26.5 Z" stroke="none" fill="rgb(65,48,39)" />
<path d="M 85.5 30.5 L 86.0 30.666666666666668 L 86.66666666666667 30.666666666666668 L 87.0 30.0 L 87.0 29.0 L 87.0 28.0 L 86.66666666666667 27.0 L 86.33333333333333 26.0 L 86.0 25.0 L 85.66666666666667 24.0 L 85.33333333333333 23.0 L 84.66666666666667 22.0 L 84.33333333333333 21.0 L 83.66666666666667 20.0 L 83.0 19.0 L 82.0 18.0 L 81.0 17.0 L 80.0 16.0 L 79.0 15.333333333333334 L 78.0 14.666666666666666 L 77.0 14.333333333333334 L 76.0 13.666666666666666 L 75.0 13.333333333333334 L 74.0 13.0 L 73.0 12.666666666666666 L 72.0 12.333333333333334 L 71.0 12.0 L 70.33333333333333 12.333333333333334 L 70.0 13.0 L 70.33333333333333 13.666666666666666 L 71.0 14.0 L 72.0 14.0 L 73.0 14.333333333333334 L 74.0 14.666666666666666 L 75.0 15.333333333333334 L 76.0 16.0 L 77.0 16.666666666666668 L 78.0 17.333333333333332 L 79.0 18.0 L 80.0 19.0 L 81.0 20.0 L 81.66666666666667 21.0 L 82.33333333333333 22.0 L 83.0 23.0 L 83.66666666666667 24.0 L 84.0 25.0 L 84.33333333333333 26.0 L 84.66666666666667 27.0 L 85.0 28.0 L 85.0 29.0 L 85.0 29.5 Z" stroke="none" fill="rgb(65,48,39)" />
<path d="M 58.5 26.0 L 59.0 26.0 L 60.0 26.0 L 61.0 26.0 L 62.0 26.0 L 63.0 26.333333333333332 L 64.0 27.0 L 65.0 28.0 L 65.66666666666667 29.0 L 66.0 30.0 L 66.0 31.0 L 66.0 32.0 L 66.33333333333333 33.0 L 66.66666666666667 34.0 L 67.33333333333333 35.0 L 68.0 35.666666666666664 L 69.0 36.0 L 70.0 35.666666666666664 L 70.66666666666667 35.0 L 71.33333333333333 34.0 L 72.0 33.0 L 73.0 32.333333333333336 L 74.0 32.333333333333336 L 75.0 33.0 L 76.0 34.0 L 76.66666666666667 35.0 L 77.0 36.0 L 76.66666666666667 37.0 L 76.33333333333333 38.0 L 75.66666666666667 39.0 L 75.0 40.0 L 74.33333333333333 41.0 L 74.0 42.0 L 74.33333333333333 43.0 L 75.0 44.0 L 76.0 45.0 L 77.0 46.0 L 78.0 46.666666666666664 L 79.0 47.0 L 79.66666666666667 46.666666666666664 L 80.33333333333333 46.0 L 81.0 45.0 L 81.66666666666667 44.0 L 82.33333333333333 43.0 L 82.66666666666667 42.0 L 83.33333333333333 41.0 L 83.66666666666667 40.0 L 84.33333333333333 39.0 L 84.66666666666667 38.0 L 85.0 37.0 L 85.0 36.0 L 85.33333333333333 35.0 L 86.0 34.333333333333336 L 86.66666666666667 33.666666666666664 L 87.0 33.0 L 87.0 32.0 L 86.66666666666667 31.0 L 86.0 30.0 L 85.33333333333333 29.0 L 85.0 28.0 L 85.0 27.0 L 84.66666666666667 26.0 L 84.33333333333333 25.0 L 84.0 24.0 L 83.66666666666667 23.0 L 83.0 22.0 L 82.33333333333333 21.0 L 81.66666666666667 20.0 L 81.0 19.0 L 80.0 18.0 L 79.0 17.333333333333332 L 78.0 16.666666666666668 L 77.0 16.0 L 76.0 15.333333333333334 L 75.0 14.666666666666666 L 74.0 14.333333333333334 L 73.0 14.0 L 72.0 14.0 L 71.0 13.666666666666666 L 70.0 13.333333333333334 L 69.0 13.0 L 68.0 13.0 L 67.0 13.0 L 66.0 13.0 L 65.0 13.0 L 64.0 13.333333333333334 L 63.0 13.666666666666666 L 62.0 14.0 L 61.0 14.0 L 60.0 14.333333333333334 L 59.0 14.666666666666666 L 58.0 15.333333333333334 L 57.0 15.666666666666666 L 56.0 16.333333333333332 L 55.0 17.0 L 54.0 17.666666666666668 L 53.333333333333336 18.333333333333332 L 52.666666666666664 19.0 L 52.0 20.0 L 51.0 21.0 L 50.333333333333336 22.0 L 49.666666666666664 23.0 L 49.333333333333336 24.0 L 49.0 25.0 L 49.0 26.0 L 49.333333333333336 26.666666666666668 L 50.0 27.0 L 51.0 27.0 L 52.0 27.0 L 53.0 27.0 L 54.0 27.0 L 55.0 27.0 L 56.0 27.0 L 57.0 26.666666666666668 L 57.5 26.5 Z" stroke="none" fill="rgb(60,44,35)" />
<path d="M 57.5 60.0 L 58.0 60.0 L 59.0 60.0 L 60.0 60.0 L 61.0 60.0 L 62.0 60.0 L 63.0 60.0 L 64.0 60.0 L 65.0 60.0 L 66.0 60.0 L 67.0 60.0 L 68.0 59.666666666666664 L 69.0 59.666666666666664 L 70.0 59.666666666666664 L 71.0 60.0 L 72.0 60.0 L 73.0 60.0 L 74.0 60.0 L 75.0 59.666666666666664 L 76.0 59.333333333333336 L 77.0 59.0 L 78.0 59.0 L 79.0 59.0 L 80.0 59.0 L 81.0 58.666666666666664 L 82.0 58.333333333333336 L 83.0 58.0 L 84.0 58.333333333333336 L 85.0 58.666666666666664 L 86.0 59.333333333333336 L 87.0 59.666666666666664 L 88.0 60.0 L 88.66666666666667 59.666666666666664 L 88.66666666666667 59.0 L 88.33333333333333 58.0 L 88.0 57.0 L 87.66666666666667 56.0 L 87.33333333333333 55.0 L 87.0 54.0 L 87.0 53.0 L 87.0 52.0 L 87.0 51.0 L 87.0 50.0 L 87.0 49.0 L 87.0 48.0 L 86.66666666666667 47.333333333333336 L 86.0 47.0 L 85.0 47.0 L 84.0 47.0 L 83.0 47.0 L 82.0 47.0 L 81.0 47.0 L 80.0 47.0 L 79.0 46.666666666666664 L 78.0 46.0 L 77.0 45.0 L 76.0 44.0 L 75.0 43.0 L 74.66666666666667 42.0 L 75.0 41.0 L 75.66666666666667 40.0 L 76.33333333333333 39.0 L 76.66666666666667 38.0 L 77.0 37.0 L 77.0 36.0 L 77.0 35.0 L 76.66666666666667 34.0 L 76.0 33.0 L 75.0 32.333333333333336 L 74.0 32.0 L 73.0 32.0 L 72.0 32.333333333333336 L 71.33333333333333 33.0 L 70.66666666666667 34.0 L 70.0 35.0 L 69.0 35.333333333333336 L 68.0 35.0 L 67.33333333333333 34.0 L 66.66666666666667 33.0 L 66.33333333333333 32.0 L 66.0 31.0 L 66.0 30.0 L 66.0 29.0 L 65.66666666666667 28.0 L 65.0 27.0 L 64.0 26.333333333333332 L 63.0 26.0 L 62.0 26.0 L 61.0 26.0 L 60.0 26.0 L 59.0 26.0 L 58.0 26.0 L 57.0 26.333333333333332 L 56.0 26.666666666666668 L 55.0 27.0 L 54.0 27.0 L 53.0 27.0 L 52.0 27.0 L 51.0 27.0 L 50.0 27.0 L 49.0 27.0 L 48.0 27.0 L 47.0 27.333333333333332 L 46.333333333333336 28.0 L 46.0 29.0 L 46.0 30.0 L 46.0 31.0 L 46.0 32.0 L 46.333333333333336 33.0 L 46.666666666666664 34.0 L 47.0 35.0 L 47.333333333333336 36.0 L 47.666666666666664 37.0 L 48.0 38.0 L 48.333333333333336 39.0 L 48.666666666666664 40.0 L 49.0 41.0 L 49.0 42.0 L 48.666666666666664 43.0 L 48.0 44.0 L 47.333333333333336 45.0 L 47.0 46.0 L 47.0 47.0 L 47.0 48.0 L 47.0 49.0 L 47.0 50.0 L 47.333333333333336 50.666666666666664 L 48.0 51.0 L 49.0 51.333333333333336 L 50.0 51.666666666666664 L 51.0 52.333333333333336 L 52.0 52.666666666666664 L 53.0 53.0 L 54.0 53.0 L 55.0 53.0 L 56.0 53.333333333333336 L 56.333333333333336 54.0 L 56.0 55.0 L 55.0 55.666666666666664 L 54.333333333333336 56.333333333333336 L 54.0 57.0 L 54.333333333333336 58.0 L 55.0 58.666666666666664 L 56.0 59.333333333333336 L 56.5 59.5 Z" stroke="none" fill="rgb(165,108,67)" />
<path d="M 84.5 42.5 L 84.66666666666667 42.0 L 85.33333333333333 41.0 L 85.66666666666667 40.0 L 86.0 39.0 L 86.33333333333333 38.0 L 86.66666666666667 37.0 L 87.0 36.0 L 87.0 35.0 L 86.66666666666667 34.333333333333336 L 86.0 34.0 L 85.33333333333333 34.333333333333336 L 85.0 35.0 L 85.0 36.0 L 84.66666666666667 37.0 L 84.33333333333333 38.0 L 83.66666666666667 39.0 L 83.33333333333333 40.0 L 82.66666666666667 41.0 L 82.33333333333333 42.0 L 81.66666666666667 43.0 L 81.0 44.0 L 80.33333333333333 45.0 L 80.0 46.0 L 80.33333333333333 46.666666666666664 L 81.0 47.0 L 81.66666666666667 46.666666666666664 L 82.33333333333333 46.0 L 82.66666666666667 45.0 L 83.33333333333333 44.0 L 83.5 43.5 Z" stroke="none" fill="rgb(65,48,39)" />
<path d="M 56.5 37.5 L 57.0 37.666666666666664 L 58.0 38.0 L 59.0 38.0 L 59.666666666666664 37.666666666666664 L 59.666666666666664 37.0 L 59.0 36.0 L 58.0 35.333333333333336 L 57.0 35.0 L 56.0 35.0 L 55.0 35.0 L 54.0 35.0 L 53.0 35.0 L 52.333333333333336 35.333333333333336 L 52.0 36.0 L 52.333333333333336 36.666666666666664 L 53.0 37.0 L 54.0 37.0 L 55.0 37.0 L 55.5 37.0 Z" stroke="none" fill="rgb(68,51,43)" />
<path d="M 88.0 44.5 L 88.0 44.0 L 88.33333333333333 43.0 L 88.66666666666667 42.0 L 89.0 41.0 L 89.33333333333333 40.0 L 89.66666666666667 39.0 L 90.0 38.0 L 90.0 37.0 L 90.0 36.0 L 89.66666666666667 35.333333333333336 L 89.0 35.0 L 88.33333333333333 35.333333333333336 L 88.0 36.0 L 88.0 37.0 L 87.66666666666667 38.0 L 87.33333333333333 39.0 L 86.66666666666667 40.0 L 86.33333333333333 41.0 L 85.66666666666667 42.0 L 85.33333333333333 43.0 L 84.66666666666667 44.0 L 84.33333333333333 45.0 L 84.0 46.0 L 84.33333333333333 46.666666666666664 L 85.0 47.0 L 85.66666666666667 46.666666666666664 L 86.33333333333333 46.0 L 87.0 45.333333333333336 L 87.5 45.0 Z" stroke="none" fill="rgb(73,55,46)" />
<path d="M 56.5 45.0 L 57.0 45.0 L 57.666666666666664 44.666666666666664 L 58.0 44.0 L 57.666666666666664 43.333333333333336 L 57.0 43.0 L 56.0 43.0 L 55.0 43.0 L 54.333333333333336 43.333333333333336 L 54.0 44.0 L 54.333333333333336 44.666666666666664 L 55.0 45.0 L 55.5 45.0 Z" stroke="none" fill="rgb(68,51,43)" />
<path d="M 88.0 46.5 L 88.0 46.0 L 87.66666666666667 45.333333333333336 L 87.0 45.0 L 86.33333333333333 45.333333333333336 L 86.0 46.0 L 86.33333333333333 46.666666666666664 L 87.0 47.0 L 87.5 47.0 Z" stroke="none" fill="rgb(77,58,49)" />
<path d="M 57.0 54.5 L 57.0 54.0 L 57.0 53.0 L 56.666666666666664 52.333333333333336 L 56.0 52.333333333333336 L 55.0 52.666666666666664 L 54.0 53.0 L 53.333333333333336 53.333333333333336 L 53.0 54.0 L 53.333333333333336 55.0 L 54.0 55.666666666666664 L 55.0 56.0 L 56.0 55.666666666666664 L 56.5 55.5 Z" stroke="none" fill="rgb(73,55,46)" />
<path d="M 95.0 98.5 L 95.0 98.0 L 95.0 97.0 L 95.33333333333333 96.0 L 95.66666666666667 95.0 L 96.0 94.0 L 96.0 93.0 L 96.0 92.0 L 96.0 91.0 L 96.0 90.0 L 96.33333333333333 89.0 L 96.66666666666667 88.0 L 97.0 87.0 L 97.0 86.0 L 97.0 85.0 L 97.0 84.0 L 97.0 83.0 L 97.0 82.0 L 97.0 81.0 L 97.0 80.0 L 97.0 79.0 L 97.0 78.0 L 97.0 77.0 L 97.0 76.0 L 96.66666666666667 75.0 L 96.33333333333333 74.0 L 96.0 73.0 L 96.0 72.0 L 96.0 71.0 L 95.66666666666667 70.0 L 95.33333333333333 69.0 L 94.66666666666667 68.0 L 94.33333333333333 67.0 L 94.0 66.0 L 93.66666666666667 65.0 L 93.0 64.0 L 92.33333333333333 63.0 L 91.66666666666667 62.0 L 91.0 61.0 L 90.0 60.333333333333336 L 89.0 60.0 L 88.0 59.666666666666664 L 87.0 59.333333333333336 L 86.0 58.666666666666664 L 85.0 58.333333333333336 L 84.0 58.0 L 83.0 58.0 L 82.0 58.0 L 81.0 58.333333333333336 L 80.0 58.666666666666664 L 79.0 59.0 L 78.0 59.0 L 77.0 59.0 L 76.0 59.0 L 75.0 59.333333333333336 L 74.0 59.666666666666664 L 73.0 60.0 L 72.0 60.0 L 71.0 60.0 L 70.33333333333333 60.333333333333336 L 70.0 61.0 L 70.33333333333333 62.0 L 71.0 63.0 L 72.0 63.666666666666664 L 73.0 64.33333333333333 L 74.0 65.0 L 74.66666666666667 66.0 L 75.33333333333333 66.66666666666667 L 76.0 66.66666666666667 L 77.0 66.0 L 78.0 65.33333333333333 L 79.0 64.66666666666667 L 80.0 64.33333333333333 L 81.0 64.0 L 82.0 64.0 L 83.0 64.0 L 84.0 64.0 L 85.0 64.33333333333333 L 86.0 64.66666666666667 L 87.0 65.0 L 88.0 65.33333333333333 L 89.0 66.0 L 90.0 67.0 L 91.0 68.0 L 91.66666666666667 69.0 L 92.0 70.0 L 92.33333333333333 71.0 L 92.66666666666667 72.0 L 93.0 73.0 L 93.0 74.0 L 93.0 75.0 L 93.0 76.0 L 93.0 77.0 L 93.0 78.0 L 93.33333333333333 79.0 L 93.66666666666667 80.0 L 94.0 81.0 L 94.0 82.0 L 94.0 83.0 L 94.0 84.0 L 94.0 85.0 L 94.0 86.0 L 94.0 87.0 L 93.66666666666667 88.0 L 93.0 89.0 L 92.0 89.66666666666667 L 91.33333333333333 90.33333333333333 L 91.0 91.0 L 91.0 92.0 L 91.0 93.0 L 91.0 94.0 L 91.0 95.0 L 91.0 96.0 L 91.0 97.0 L 91.0 98.0 L 91.0 99.0 L 91.0 100.0 L 91.0 101.0 L 91.0 102.0 L 91.0 103.0 L 91.0 104.0 L 91.0 105.0 L 91.0 106.0 L 91.0 107.0 L 91.0 108.0 L 90.66666666666667 109.0 L 90.33333333333333 110.0 L 89.66666666666667 111.0 L 89.0 112.0 L 88.0 113.0 L 87.0 114.0 L 86.0 115.0 L 85.33333333333333 116.0 L 85.0 117.0 L 84.66666666666667 118.0 L 84.33333333333333 119.0 L 83.66666666666667 120.0 L 83.0 121.0 L 82.33333333333333 122.0 L 82.0 123.0 L 82.33333333333333 123.66666666666667 L 83.0 124.0 L 84.0 124.0 L 85.0 124.0 L 86.0 124.0 L 87.0 124.0 L 88.0 124.0 L 89.0 124.0 L 90.0 124.0 L 91.0 124.0 L 92.0 124.0 L 93.0 124.0 L 93.66666666666667 123.66666666666667 L 94.0 123.0 L 94.0 122.0 L 93.66666666666667 121.0 L 93.33333333333333 120.0 L 93.0 119.0 L 93.0 118.0 L 93.0 117.0 L 93.0 116.0 L 93.0 115.0 L 92.66666666666667 114.0 L 92.33333333333333 113.0 L 92.0 112.0 L 92.33333333333333 111.0 L 92.66666666666667 110.0 L 93.0 109.0 L 93.0 108.0 L 93.0 107.0 L 93.0 106.0 L 93.33333333333333 105.0 L 93.66666666666667 104.0 L 94.0 103.0 L 94.0 102.0 L 94.0 101.0 L 94.33333333333333 100.0 L 94.5 99.5 Z" stroke="none" fill="rgb(0,159,138)" />
<path d="M 69.5 69.5 L 70.0 69.66666666666667 L 71.0 70.33333333333333 L 72.0 70.66666666666667 L 72.66666666666667 70.66666666666667 L 73.33333333333333 70.0 L 74.0 69.0 L 74.66666666666667 68.0 L 75.0 67.0 L 75.0 66.0 L 74.66666666666667 65.0 L 74.0 64.33333333333333 L 73.0 63.666666666666664 L 72.0 63.0 L 71.0 62.333333333333336 L 70.0 62.0 L 69.0 62.0 L 68.0 62.0 L 67.0 62.333333333333336 L 66.0 63.0 L 65.0 63.666666666666664 L 64.33333333333333 64.33333333333333 L 64.0 65.0 L 64.33333333333333 65.66666666666667 L 65.0 66.33333333333333 L 66.0 66.66666666666667 L 67.0 67.33333333333333 L 68.0 68.0 L 68.5 68.5 Z" stroke="none" fill="rgb(0,165,143)" />
<path d="M 72.5 89.5 L 73.0 90.0 L 74.0 91.0 L 75.0 91.66666666666667 L 76.0 92.0 L 77.0 92.0 L 78.0 92.0 L 79.0 92.0 L 80.0 92.0 L 81.0 92.0 L 82.0 91.66666666666667 L 83.0 91.33333333333333 L 84.0 91.0 L 85.0 91.0 L 86.0 91.0 L 87.0 91.0 L 88.0 91.0 L 89.0 91.0 L 90.0 91.0 L 91.0 90.66666666666667 L 92.0 90.33333333333333 L 93.0 89.66666666666667 L 93.66666666666667 89.0 L 94.0 88.0 L 94.0 87.0 L 94.0 86.0 L 94.0 85.0 L 94.0 84.0 L 94.0 83.0 L 94.0 82.0 L 94.0 81.0 L 94.0 80.0 L 93.66666666666667 79.0 L 93.33333333333333 78.0 L 93.0 77.0 L 93.0 76.0 L 93.0 75.0 L 93.0 74.0 L 93.0 73.0 L 93.0 72.0 L 92.66666666666667 71.0 L 92.33333333333333 70.0 L 92.0 69.0 L 91.66666666666667 68.0 L 91.0 67.0 L 90.0 66.0 L 89.0 65.33333333333333 L 88.0 65.0 L 87.0 64.66666666666667 L 86.0 64.33333333333333 L 85.0 64.0 L 84.0 64.0 L 83.0 64.0 L 82.0 64.0 L 81.0 64.0 L 80.0 64.0 L 79.0 64.33333333333333 L 78.0 64.66666666666667 L 77.0 65.33333333333333 L 76.0 66.0 L 75.0 67.0 L 74.0 68.0 L 73.33333333333333 69.0 L 72.66666666666667 70.0 L 72.33333333333333 71.0 L 72.0 72.0 L 72.0 73.0 L 72.0 74.0 L 72.0 75.0 L 72.0 76.0 L 72.0 77.0 L 72.0 78.0 L 72.0 79.0 L 72.0 80.0 L 72.0 81.0 L 72.0 82.0 L 72.0 83.0 L 72.0 84.0 L 72.0 85.0 L 72.0 86.0 L 72.0 87.0 L 72.0 88.0 L 72.0 88.5 Z" stroke="none" fill="rgb(0,150,136)" />
<path d="M 68.5 75.5 L 69.0 76.0 L 70.0 77.0 L 71.0 77.66666666666667 L 71.66666666666667 77.66666666666667 L 72.0 77.0 L 72.0 76.0 L 72.0 75.0 L 72.0 74.0 L 72.0 73.0 L 72.0 72.0 L 72.0 71.0 L 71.66666666666667 70.33333333333333 L 71.0 69.66666666666667 L 70.0 69.0 L 69.0 68.0 L 68.0 67.33333333333333 L 67.0 66.66666666666667 L 66.0 66.33333333333333 L 65.0 65.66666666666667 L 64.0 65.33333333333333 L 63.0 65.33333333333333 L 62.0 66.0 L 61.0 66.66666666666667 L 60.0 67.33333333333333 L 59.333333333333336 68.0 L 59.0 69.0 L 59.333333333333336 69.66666666666667 L 60.0 70.33333333333333 L 61.0 70.66666666666667 L 62.0 71.33333333333333 L 63.0 71.66666666666667 L 64.0 72.33333333333333 L 65.0 73.0 L 66.0 73.66666666666667 L 67.0 74.33333333333333 L 67.5 74.5 Z" stroke="none" fill="rgb(0,172,149)" />
<path d="M 72.0 85.5 L 72.0 85.0 L 72.0 84.0 L 72.0 83.0 L 72.0 82.0 L 72.0 81.0 L 72.0 80.0 L 72.0 79.0 L 71.66666666666667 78.0 L 71.0 77.0 L 70.0 76.0 L 69.0 75.0 L 68.0 74.33333333333333 L 67.0 73.66666666666667 L 66.0 73.0 L 65.0 72.33333333333333 L 64.0 71.66666666666667 L 63.0 71.33333333333333 L 62.0 70.66666666666667 L 61.0 70.33333333333333 L 60.0 69.66666666666667 L 59.0 69.33333333333333 L 58.0 69.0 L 57.0 69.33333333333333 L 56.0 70.0 L 55.0 70.66666666666667 L 54.333333333333336 71.33333333333333 L 54.0 72.0 L 54.333333333333336 73.0 L 55.0 73.66666666666667 L 56.0 74.0 L 57.0 74.33333333333333 L 58.0 74.66666666666667 L 59.0 75.0 L 60.0 75.33333333333333 L 61.0 76.0 L 62.0 76.66666666666667 L 63.0 77.33333333333333 L 64.0 78.0 L 65.0 79.0 L 66.0 80.0 L 67.0 81.0 L 68.0 82.0 L 69.0 83.0 L 69.66666666666667 84.0 L 70.33333333333333 85.0 L 71.0 85.66666666666667 L 71.5 86.0 Z" stroke="none" fill="rgb(0,177,154)" />
<path d="M 59.5 80.5 L 60.0 81.0 L 61.0 81.66666666666667 L 62.0 82.33333333333333 L 63.0 83.0 L 63.666666666666664 84.0 L 64.33333333333333 85.0 L 65.0 86.0 L 66.0 87.0 L 66.66666666666667 88.0 L 67.33333333333333 89.0 L 67.66666666666667 90.0 L 68.0 91.0 L 68.33333333333333 92.0 L 68.66666666666667 93.0 L 69.0 94.0 L 69.0 95.0 L 69.0 96.0 L 69.0 97.0 L 69.0 98.0 L 69.0 99.0 L 69.0 100.0 L 69.0 101.0 L 69.0 102.0 L 68.66666666666667 103.0 L 68.33333333333333 104.0 L 68.0 105.0 L 68.0 106.0 L 68.33333333333333 106.66666666666667 L 69.0 107.0 L 70.0 107.0 L 71.0 107.0 L 72.0 106.66666666666667 L 72.66666666666667 106.0 L 73.0 105.0 L 73.33333333333333 104.0 L 73.66666666666667 103.0 L 74.0 102.0 L 74.0 101.0 L 74.0 100.0 L 74.33333333333333 99.0 L 75.0 98.33333333333333 L 75.66666666666667 97.66666666666667 L 76.0 97.0 L 76.0 96.0 L 76.0 95.0 L 76.0 94.0 L 76.0 93.0 L 75.66666666666667 92.0 L 75.0 91.0 L 74.0 90.0 L 73.0 89.0 L 72.33333333333333 88.0 L 72.0 87.0 L 71.66666666666667 86.0 L 71.0 85.0 L 70.33333333333333 84.0 L 69.66666666666667 83.0 L 69.0 82.0 L 68.0 81.0 L 67.0 80.0 L 66.0 79.0 L 65.0 78.0 L 64.0 77.33333333333333 L 63.0 76.66666666666667 L 62.0 76.0 L 61.0 75.33333333333333 L 60.0 75.0 L 59.0 74.66666666666667 L 58.0 74.33333333333333 L 57.0 74.0 L 56.0 73.66666666666667 L 55.0 73.33333333333333 L 54.0 73.0 L 53.0 73.0 L 52.0 73.33333333333333 L 51.333333333333336 74.0 L 51.0 75.0 L 51.0 76.0 L 51.333333333333336 77.0 L 52.0 77.66666666666667 L 53.0 78.0 L 54.0 78.0 L 55.0 78.33333333333333 L 56.0 78.66666666666667 L 57.0 79.33333333333333 L 58.0 79.66666666666667 L 58.5 80.0 Z" stroke="none" fill="rgb(0,182,157)" />
<path d="M 56.5 84.0 L 57.0 84.33333333333333 L 58.0 85.0 L 59.0 86.0 L 60.0 87.0 L 61.0 88.0 L 62.0 89.0 L 62.666666666666664 90.0 L 63.333333333333336 91.0 L 63.666666666666664 92.0 L 64.0 93.0 L 64.33333333333333 94.0 L 64.66666666666667 95.0 L 65.0 96.0 L 65.0 97.0 L 65.0 98.0 L 65.0 99.0 L 64.66666666666667 100.0 L 64.33333333333333 101.0 L 64.0 102.0 L 63.666666666666664 103.0 L 63.333333333333336 104.0 L 62.666666666666664 105.0 L 62.333333333333336 106.0 L 62.0 107.0 L 62.333333333333336 107.66666666666667 L 63.0 108.0 L 64.0 108.0 L 65.0 108.0 L 66.0 108.0 L 67.0 108.0 L 67.66666666666667 107.66666666666667 L 68.0 107.0 L 68.0 106.0 L 68.33333333333333 105.0 L 68.66666666666667 104.0 L 69.0 103.0 L 69.0 102.0 L 69.0 101.0 L 69.0 100.0 L 69.0 99.0 L 69.0 98.0 L 69.0 97.0 L 69.0 96.0 L 69.0 95.0 L 69.0 94.0 L 69.0 93.0 L 68.66666666666667 92.0 L 68.33333333333333 91.0 L 68.0 90.0 L 67.66666666666667 89.0 L 67.33333333333333 88.0 L 66.66666666666667 87.0 L 66.0 86.0 L 65.0 85.0 L 64.33333333333333 84.0 L 63.666666666666664 83.0 L 63.0 82.33333333333333 L 62.0 81.66666666666667 L 61.0 81.0 L 60.0 80.33333333333333 L 59.0 79.66666666666667 L 58.0 79.33333333333333 L 57.0 78.66666666666667 L 56.0 78.33333333333333 L 55.0 78.0 L 54.0 78.0 L 53.0 77.66666666666667 L 52.0 77.33333333333333 L 51.0 77.0 L 50.0 77.0 L 49.333333333333336 77.33333333333333 L 49.0 78.0 L 49.0 79.0 L 49.0 80.0 L 49.0 81.0 L 49.333333333333336 81.66666666666667 L 50.0 82.0 L 51.0 82.0 L 52.0 82.33333333333333 L 53.0 82.66666666666667 L 54.0 83.0 L 55.0 83.33333333333333 L 55.5 83.5 Z" stroke="none" fill="rgb(0,187,161)" />
<path d="M 59.5 109.0 L 60.0 109.0 L 61.0 109.0 L 61.666666666666664 108.66666666666667 L 62.0 108.0 L 62.333333333333336 107.0 L 62.666666666666664 106.0 L 63.333333333333336 105.0 L 63.666666666666664 104.0 L 64.0 103.0 L 64.33333333333333 102.0 L 64.66666666666667 101.0 L 65.0 100.0 L 65.0 99.0 L 65.0 98.0 L 65.0 97.0 L 65.0 96.0 L 65.0 95.0 L 64.66666666666667 94.0 L 64.33333333333333 93.0 L 64.0 92.0 L 63.666666666666664 91.0 L 63.333333333333336 90.0 L 62.666666666666664 89.0 L 62.0 88.0 L 61.0 87.0 L 60.0 86.0 L 59.0 85.0 L 58.0 84.33333333333333 L 57.0 83.66666666666667 L 56.0 83.33333333333333 L 55.0 83.0 L 54.0 82.66666666666667 L 53.0 82.33333333333333 L 52.0 82.0 L 51.0 82.0 L 50.0 82.0 L 49.0 82.0 L 48.333333333333336 82.33333333333333 L 48.0 83.0 L 48.0 84.0 L 48.0 85.0 L 47.666666666666664 86.0 L 47.0 87.0 L 46.0 88.0 L 45.0 88.66666666666667 L 44.0 89.33333333333333 L 43.0 90.0 L 42.0 90.66666666666667 L 41.0 91.33333333333333 L 40.0 92.0 L 39.0 93.0 L 38.0 94.0 L 37.0 95.0 L 36.0 96.0 L 35.333333333333336 97.0 L 34.666666666666664 98.0 L 34.0 99.0 L 33.333333333333336 100.0 L 33.0 101.0 L 33.0 102.0 L 33.333333333333336 103.0 L 34.0 104.0 L 34.666666666666664 105.0 L 35.333333333333336 106.0 L 36.0 107.0 L 37.0 107.66666666666667 L 38.0 108.0 L 39.0 107.66666666666667 L 40.0 107.33333333333333 L 41.0 107.0 L 42.0 107.0 L 43.0 107.0 L 44.0 107.0 L 45.0 107.0 L 46.0 107.0 L 46.666666666666664 106.66666666666667 L 47.0 106.0 L 46.666666666666664 105.0 L 46.666666666666664 104.0 L 47.0 103.33333333333333 L 48.0 103.33333333333333 L 49.0 104.0 L 50.0 105.0 L 51.0 106.0 L 52.0 107.0 L 53.0 108.0 L 54.0 108.66666666666667 L 55.0 109.0 L 56.0 109.0 L 57.0 109.0 L 58.0 109.0 L 58.5 109.0 Z" stroke="none" fill="rgb(0,191,165)" />
<path d="M 78.5 95.0 L 79.0 95.0 L 80.0 95.0 L 81.0 95.0 L 82.0 95.0 L 83.0 95.0 L 84.0 95.0 L 85.0 95.0 L 86.0 95.0 L 87.0 95.0 L 88.0 95.0 L 89.0 95.0 L 90.0 95.0 L 90.66666666666667 94.66666666666667 L 91.0 94.0 L 91.0 93.0 L 91.0 92.0 L 90.66666666666667 91.33333333333333 L 90.0 91.0 L 89.0 91.0 L 88.0 91.0 L 87.0 91.0 L 86.0 91.0 L 85.0 91.0 L 84.0 91.0 L 83.0 91.0 L 82.0 91.33333333333333 L 81.0 91.66666666666667 L 80.0 92.0 L 79.0 92.0 L 78.0 92.0 L 77.0 92.0 L 76.33333333333333 92.33333333333333 L 76.0 93.0 L 76.0 94.0 L 76.33333333333333 94.66666666666667 L 77.0 95.0 L 77.5 95.0 Z" stroke="none" fill="rgb(154,99,62)" />
<path d="M 84.5 100.0 L 85.0 100.0 L 86.0 100.0 L 87.0 100.0 L 88.0 100.0 L 89.0 100.0 L 90.0 100.0 L 90.66666666666667 99.66666666666667 L 91.0 99.0 L 91.0 98.0 L 91.0 97.0 L 91.0 96.0 L 90.66666666666667 95.33333333333333 L 90.0 95.0 L 89.0 95.0 L 88.0 95.0 L 87.0 95.0 L 86.0 95.0 L 85.0 95.0 L 84.0 95.0 L 83.0 95.0 L 82.0 95.0 L 81.0 95.0 L 80.0 95.0 L 79.0 95.0 L 78.0 95.0 L 77.0 95.0 L 76.33333333333333 95.33333333333333 L 76.0 96.0 L 76.0 97.0 L 76.0 98.0 L 76.0 99.0 L 76.33333333333333 99.66666666666667 L 77.0 100.0 L 78.0 100.0 L 79.0 100.0 L 80.0 100.0 L 81.0 100.0 L 82.0 100.0 L 83.0 100.0 L 83.5 100.0 Z" stroke="none" fill="rgb(159,103,64)" />
<path d="M 76.5 103.5 L 76.66666666666667 103.0 L 77.0 102.0 L 77.0 101.0 L 76.66666666666667 100.0 L 76.33333333333333 99.0 L 75.66666666666667 98.33333333333333 L 75.0 98.0 L 74.33333333333333 98.33333333333333 L 74.0 99.0 L 74.0 100.0 L 74.0 101.0 L 73.66666666666667 102.0 L 73.33333333333333 103.0 L 73.0 104.0 L 73.33333333333333 104.66666666666667 L 74.0 105.0 L 75.0 104.66666666666667 L 75.5 104.5 Z" stroke="none" fill="rgb(0,177,154)" />
<path d="M 35.5 113.5 L 35.666666666666664 114.0 L 36.0 115.0 L 36.333333333333336 116.0 L 37.0 117.0 L 38.0 117.66666666666667 L 39.0 118.33333333333333 L 40.0 118.66666666666667 L 41.0 119.0 L 42.0 119.0 L 43.0 119.0 L 44.0 119.0 L 45.0 119.0 L 46.0 119.0 L 47.0 119.0 L 48.0 119.0 L 49.0 119.0 L 50.0 119.0 L 51.0 119.0 L 52.0 119.0 L 53.0 119.0 L 54.0 119.0 L 55.0 119.0 L 56.0 119.0 L 57.0 119.0 L 58.0 119.0 L 59.0 119.0 L 60.0 119.0 L 61.0 119.0 L 62.0 119.0 L 63.0 119.0 L 64.0 119.0 L 65.0 118.66666666666667 L 66.0 118.33333333333333 L 67.0 118.0 L 68.0 118.33333333333333 L 69.0 118.66666666666667 L 70.0 118.66666666666667 L 71.0 118.33333333333333 L 72.0 118.0 L 73.0 118.0 L 74.0 117.66666666666667 L 75.0 117.33333333333333 L 76.0 117.0 L 77.0 117.0 L 78.0 117.0 L 79.0 117.0 L 80.0 117.0 L 81.0 116.66666666666667 L 82.0 116.33333333333333 L 83.0 116.0 L 84.0 116.0 L 85.0 116.0 L 86.0 115.66666666666667 L 87.0 115.0 L 88.0 114.0 L 89.0 113.0 L 89.66666666666667 112.0 L 90.33333333333333 111.0 L 90.66666666666667 110.0 L 91.0 109.0 L 91.0 108.0 L 91.0 107.0 L 91.0 106.0 L 91.0 105.0 L 91.0 104.0 L 91.0 103.0 L 91.0 102.0 L 91.0 101.0 L 90.66666666666667 100.33333333333333 L 90.0 100.0 L 89.0 100.0 L 88.0 100.0 L 87.0 100.0 L 86.0 100.0 L 85.0 100.0 L 84.0 100.0 L 83.0 100.0 L 82.0 100.0 L 81.0 100.0 L 80.0 100.0 L 79.0 100.0 L 78.0 100.0 L 77.33333333333333 100.33333333333333 L 77.0 101.0 L 76.66666666666667 102.0 L 76.0 103.0 L 75.0 104.0 L 74.0 104.66666666666667 L 73.0 105.33333333333333 L 72.0 106.0 L 71.0 106.66666666666667 L 70.0 107.0 L 69.0 107.0 L 68.0 107.33333333333333 L 67.0 107.66666666666667 L 66.0 108.0 L 65.0 108.0 L 64.0 108.0 L 63.0 108.0 L 62.0 108.33333333333333 L 61.0 108.66666666666667 L 60.0 109.0 L 59.0 109.0 L 58.0 109.0 L 57.0 109.0 L 56.0 109.0 L 55.0 108.66666666666667 L 54.0 108.0 L 53.0 107.0 L 52.0 106.0 L 51.0 105.0 L 50.0 104.0 L 49.0 103.33333333333333 L 48.0 103.0 L 47.0 103.0 L 46.333333333333336 103.33333333333333 L 46.0 104.0 L 46.333333333333336 105.0 L 46.333333333333336 106.0 L 46.0 106.66666666666667 L 45.0 107.0 L 44.0 107.0 L 43.0 107.0 L 42.0 107.0 L 41.0 107.0 L 40.0 107.0 L 39.0 107.33333333333333 L 38.0 107.33333333333333 L 37.0 107.33333333333333 L 36.0 107.33333333333333 L 35.333333333333336 108.0 L 35.0 109.0 L 35.0 110.0 L 35.0 111.0 L 35.0 112.0 L 35.0 112.5 Z" stroke="none" fill="rgb(165,108,67)" />
<path d="M 36.0 107.5 L 36.0 107.0 L 35.666666666666664 106.0 L 35.333333333333336 105.0 L 34.666666666666664 104.0 L 34.0 103.33333333333333 L 33.0 103.0 L 32.333333333333336 103.33333333333333 L 32.0 104.0 L 32.0 105.0 L 31.666666666666668 106.0 L 31.333333333333332 107.0 L 31.0 108.0 L 31.333333333333332 108.66666666666667 L 32.0 109.33333333333333 L 33.0 110.0 L 34.0 110.66666666666667 L 34.666666666666664 110.66666666666667 L 35.0 110.0 L 35.333333333333336 109.0 L 35.5 108.5 Z" stroke="none" fill="rgb(0,187,161)" />
<path d="M 40.5 121.5 L 41.0 121.66666666666667 L 42.0 122.0 L 43.0 122.0 L 44.0 122.33333333333333 L 45.0 123.0 L 46.0 123.66666666666667 L 47.0 124.0 L 48.0 124.0 L 49.0 124.0 L 50.0 124.0 L 51.0 124.0 L 52.0 124.0 L 52.666666666666664 123.66666666666667 L 53.333333333333336 123.0 L 54.0 122.33333333333333 L 55.0 122.0 L 56.0 122.0 L 57.0 121.66666666666667 L 58.0 121.33333333333333 L 59.0 120.66666666666667 L 59.666666666666664 120.0 L 59.666666666666664 119.33333333333333 L 59.0 119.0 L 58.0 119.0 L 57.0 119.0 L 56.0 119.0 L 55.0 119.0 L 54.0 119.0 L 53.0 119.0 L 52.0 119.0 L 51.0 119.0 L 50.0 119.0 L 49.0 119.0 L 48.0 119.0 L 47.0 119.0 L 46.0 119.0 L 45.0 119.0 L 44.0 119.0 L 43.0 119.0 L 42.0 119.0 L 41.0 118.66666666666667 L 40.0 118.33333333333333 L 39.0 117.66666666666667 L 38.0 117.0 L 37.0 116.0 L 36.333333333333336 115.0 L 36.0 114.0 L 35.666666666666664 113.0 L 35.333333333333336 112.0 L 34.666666666666664 111.0 L 34.0 110.0 L 33.0 109.33333333333333 L 32.0 109.0 L 31.333333333333332 109.33333333333333 L 31.0 110.0 L 31.0 111.0 L 31.0 112.0 L 31.0 113.0 L 31.0 114.0 L 31.0 115.0 L 31.333333333333332 116.0 L 32.0 116.66666666666667 L 33.0 117.33333333333333 L 34.0 118.0 L 35.0 118.66666666666667 L 36.0 119.33333333333333 L 37.0 119.66666666666667 L 38.0 120.33333333333333 L 39.0 120.66666666666667 L 39.5 121.0 Z" stroke="none" fill="rgb(0,182,157)" />
<path d="M 81.5 124.0 L 81.66666666666667 123.66666666666667 L 82.33333333333333 123.0 L 83.0 122.0 L 83.66666666666667 121.0 L 84.33333333333333 120.0 L 84.66666666666667 119.0 L 85.0 118.0 L 85.0 117.0 L 84.66666666666667 116.33333333333333 L 84.0 116.0 L 83.0 116.0 L 82.0 116.0 L 81.0 116.33333333333333 L 80.0 116.66666666666667 L 79.0 117.0 L 78.33333333333333 117.33333333333333 L 77.66666666666667 118.0 L 77.0 119.0 L 76.0 120.0 L 75.0 121.0 L 74.33333333333333 122.0 L 74.0 123.0 L 74.33333333333333 123.66666666666667 L 75.0 124.0 L 76.0 124.0 L 77.0 124.0 L 78.0 124.0 L 79.0 124.0 L 80.0 124.0 L 80.5 124.0 Z" stroke="none" fill="rgb(0,165,143)" />
<path d="M 33.5 121.5 L 33.666666666666664 122.0 L 34.333333333333336 123.0 L 35.0 123.66666666666667 L 36.0 124.0 L 37.0 124.0 L 38.0 124.0 L 39.0 124.0 L 40.0 124.0 L 41.0 124.0 L 42.0 124.0 L 43.0 124.0 L 44.0 124.0 L 45.0 124.0 L 45.666666666666664 123.66666666666667 L 45.666666666666664 123.0 L 45.0 122.33333333333333 L 44.0 122.0 L 43.0 122.0 L 42.0 121.66666666666667 L 41.0 121.33333333333333 L 40.0 120.66666666666667 L 39.0 120.33333333333333 L 38.0 119.66666666666667 L 37.0 119.33333333333333 L 36.0 118.66666666666667 L 35.0 118.0 L 34.0 117.33333333333333 L 33.0 117.0 L 32.333333333333336 117.33333333333333 L 32.0 118.0 L 32.333333333333336 119.0 L 32.666666666666664 120.0 L 33.0 120.5 Z" stroke="none" fill="rgb(0,177,154)" />
<path d="M 68.5 124.0 L 69.0 124.0 L 70.0 124.0 L 71.0 124.0 L 72.0 124.0 L 73.0 124.0 L 73.66666666666667 123.66666666666667 L 74.33333333333333 123.0 L 75.0 122.0 L 76.0 121.0 L 77.0 120.0 L 77.66666666666667 119.0 L 78.0 118.0 L 77.66666666666667 117.33333333333333 L 77.0 117.0 L 76.0 117.0 L 75.0 117.0 L 74.0 117.33333333333333 L 73.0 117.66666666666667 L 72.0 118.0 L 71.0 118.0 L 70.0 118.33333333333333 L 69.0 119.0 L 68.0 120.0 L 67.0 121.0 L 66.0 121.66666666666667 L 65.33333333333333 122.33333333333333 L 65.0 123.0 L 65.33333333333333 123.66666666666667 L 66.0 124.0 L 67.0 124.0 L 67.5 124.0 Z" stroke="none" fill="rgb(0,172,149)" />
<path d="M 56.5 124.0 L 57.0 124.0 L 58.0 124.0 L 59.0 124.0 L 60.0 124.0 L 61.0 124.0 L 62.0 124.0 L 63.0 124.0 L 64.0 124.0 L 64.66666666666667 123.66666666666667 L 65.33333333333333 123.0 L 66.0 122.33333333333333 L 67.0 121.66666666666667 L 68.0 121.0 L 68.66666666666667 120.0 L 69.0 119.0 L 68.66666666666667 118.33333333333333 L 68.0 118.0 L 67.0 118.0 L 66.0 118.0 L 65.0 118.33333333333333 L 64.0 118.66666666666667 L 63.0 119.0 L 62.0 119.0 L 61.0 119.0 L 60.0 119.33333333333333 L 59.0 120.0 L 58.0 120.66666666666667 L 57.0 121.33333333333333 L 56.0 121.66666666666667 L 55.0 122.0 L 54.0 122.0 L 53.333333333333336 122.33333333333333 L 53.0 123.0 L 53.333333333333336 123.66666666666667 L 54.0 124.0 L 55.0 124.0 L 55.5 124.0 Z" stroke="none" fill="rgb(0,177,154)" />
</svg>
