<?xml version="1.0" encoding="UTF-8" standalone="no"?>
<!DOCTYPE svg PUBLIC "-//W3C//DTD SVG 1.1//EN"
"http://www.w3.org/Graphics/SVG/1.1/DTD/svg11.dtd">
<svg width="128" height="128" xmlns="http://www.w3.org/2000/svg" version="1.1">
<path d="M 108.5 128.0 L 109.0 128.0 L 110.0 128.0 L 111.0 128.0 L 112.0 128.0 L 113.0 128.0 L 114.0 128.0 L 115.0 128.0 L 116.0 128.0 L 117.0 128.0 L 118.0 128.0 L 119.0 128.0 L 120.0 128.0 L 121.0 128.0 L 122.0 128.0 L 123.0 128.0 L 124.0 128.0 L 125.0 128.0 L 126.0 128.0 L 127.0 128.0 L 127.66666666666667 127.66666666666667 L 128.0 127.0 L 128.0 126.0 L 128.0 125.0 L 128.0 124.0 L 128.0 123.0 L 128.0 122.0 L 128.0 121.0 L 128.0 120.0 L 128.0 119.0 L 128.0 118.0 L 128.0 117.0 L 128.0 116.0 L 128.0 115.0 L 128.0 114.0 L 128.0 113.0 L 128.0 112.0 L 128.0 111.0 L 128.0 110.0 L 128.0 109.0 L 128.0 108.0 L 128.0 107.0 L 128.0 106.0 L 128.0 105.0 L 128.0 104.0 L 128.0 103.0 L 128.0 102.0 L 128.0 101.0 L 128.0 100.0 L 128.0 99.0 L 128.0 98.0 L 128.0 97.0 L 128.0 96.0 L 128.0 95.0 L 128.0 94.0 L 128.0 93.0 L 128.0 92.0 L 128.0 91.0 L 128.0 90.0 L 128.0 89.0 L 128.0 88.0 L 128.0 87.0 L 128.0 86.0 L 128.0 85.0 L 128.0 84.0 L 128.0 83.0 L 128.0 82.0 L 128.0 81.0 L 128.0 80.0 L 128.0 79.0 L 128.0 78.0 L 128.0 77.0 L 128.0 76.0 L 128.0 75.0 L 128.0 74.0 L 128.0 73.0 L 128.0 72.0 L 128.0 71.0 L 128.0 70.0 L 128.0 69.0 L 128.0 68.0 L 128.0 67.0 L 128.0 66.0 L 128.0 65.0 L 128.0 64.0 L 128.0 63.0 L 128.0 62.0 L 128.0 61.0 L 128.0 60.0 L 128.0 59.0 L 128.0 58.0 L 128.0 57.0 L 128.0 56.0 L 128.0 55.0 L 128.0 54.0 L 128.0 53.0 L 128.0 52.0 L 128.0 51.0 L 128.0 50.0 L 128.0 49.0 L 128.0 48.0 L 128.0 47.0 L 128.0 46.0 L 128.0 45.0 L 128.0 44.0 L 128.0 43.0 L 128.0 42.0 L 128.0 41.0 L 128.0 40.0 L 128.0 39.0 L 128.0 38.0 L 128.0 37.0 L 128.0 36.0 L 128.0 35.0 L 128.0 34.0 L 128.0 33.0 L 128.0 32.0 L 128.0 31.0 L 128.0 30.0 L 128.0 29.0 L 128.0 28.0 L 128.0 27.0 L 128.0 26.0 L 128.0 25.0 L 128.0 24.0 L 128.0 23.0 L 128.0 22.0 L 128.0 21.0 L 128.0 20.0 L 128.0 19.0 L 128.0 18.0 L 128.0 17.0 L 128.0 16.0 L 128.0 15.0 L 128.0 14.0 L 128.0 13.0 L 128.0 12.0 L 128.0 11.0 L 128.0 10.0 L 128.0 9.0 L 128.0 8.0 L 128.0 7.0 L 128.0 6.0 L 128.0 5.0 L 128.0 4.0 L 128.0 3.0 L 128.0 2.0 L 128.0 1.0 L 127.66666666666667 0.3333333333333333 L 127.0 0.0 L 126.0 0.0 L 125.0 0.0 L 124.0 0.0 L 123.0 0.0 L 122.0 0.0 L 121.0 0.0 L 120.0 0.0 L 119.0 0.0 L 118.0 0.0 L 117.0 0.0 L 116.0 0.0 L 115.0 0.0 L 114.0 0.0 L 113.0 0.0 L 112.0 0.0 L 111.0 0.0 L 110.0 0.0 L 109.0 0.0 L 108.0 0.0 L 107.0 0.0 L 106.0 0.0 L 105.0 0.0 L 104.0 0.0 L 103.0 0.0 L 102.0 0.0 L 101.0 0.0 L 100.0 0.0 L 99.0 0.0 L 98.0 0.0 L 97.0 0.0 L 96.0 0.0 L 95.0 0.0 L 94.0 0.0 L 93.0 0.0 L 92.0 0.0 L 91.0 0.0 L 90.0 0.0 L 89.0 0.0 L 88.0 0.0 L 87.0 0.0 L 86.0 0.0 L 85.0 0.0 L 84.0 0.0 L 83.0 0.0 L 82.0 0.0 L 81.0 0.0 L 80.0 0.0 L 79.0 0.0 L 78.0 0.0 L 77.0 0.0 L 76.0 0.0 L 75.0 0.0 L 74.0 0.0 L 73.0 0.0 L 72.0 0.0 L 71.0 0.0 L 70.0 0.0 L 69.0 0.0 L 68.0 0.0 L 67.0 0.0 L 66.0 0.0 L 65.0 0.0 L 64.0 0.0 L 63.0 0.0 L 62.0 0.0 L 61.0 0.0 L 60.0 0.0 L 59.0 0.0 L 58.0 0.0 L 57.0 0.0 L 56.0 0.0 L 55.0 0.0 L 54.0 0.0 L 53.0 0.0 L 52.0 0.0 L 51.0 0.0 L 50.0 0.0 L 49.0 0.0 L 48.0 0.0 L 47.0 0.0 L 46.0 0.0 L 45.0 0.0 L 44.0 0.0 L 43.0 0.0 L 42.0 0.0 L 41.0 0.0 L 40.0 0.0 L 39.0 0.0 L 38.0 0.0 L 37.0 0.0 L 36.0 0.0 L 35.0 0.0 L 34.0 0.0 L 33.0 0.0 L 32.0 0.0 L 31.0 0.0 L 30.0 0.0 L 29.0 0.0 L 28.0 0.0 L 27.0 0.0 L 26.0 0.0 L 25.0 0.0 L 24.0 0.0 L 23.0 0.0 L 22.0 0.0 L 21.0 0.0 L 20.0 0.0 L 19.0 0.0 L 18.0 0.0 L 17.0 0.0 L 16.0 0.0 L 15.0 0.0 L 14.0 0.0 L 13.0 0.0 L 12.0 0.0 L 11.0 0.0 L 10.0 0.0 L 9.0 0.0 L 8.0 0.0 L 7.0 0.0 L 6.0 0.0 L 5.0 0.0 L 4.0 0.0 L 3.0 0.0 L 2.0 0.0 L 1.0 0.0 L 0.3333333333333333 0.3333333333333333 L 0.0 1.0 L 0.0 2.0 L 0.0 3.0 L 0.0 4.0 L 0.0 5.0 L 0.0 6.0 L 0.0 7.0 L 0.0 8.0 L 0.0 9.0 L 0.0 10.0 L 0.0 11.0 L 0.0 12.0 L 0.0 13.0 L 0.0 14.0 L 0.0 15.0 L 0.0 16.0 L 0.0 17.0 L 0.0 18.0 L 0.0 19.0 L 0.0 20.0 L 0.0 21.0 L 0.0 22.0 L 0.0 23.0 L 0.0 24.0 L 0.0 25.0 L 0.0 26.0 L 0.0 27.0 L 0.0 28.0 L 0.0 29.0 L 0.0 30.0 L 0.0 31.0 L 0.0 32.0 L 0.0 33.0 L 0.0 34.0 L 0.0 35.0 L 0.0 36.0 L 0.0 37.0 L 0.0 38.0 L 0.0 39.0 L 0.0 40.0 L 0.0 41.0 L 0.0 42.0 L 0.0 43.0 L 0.0 44.0 L 0.0 45.0 L 0.0 46.0 L 0.0 47.0 L 0.0 48.0 L 0.0 49.0 L 0.0 50.0 L 0.0 51.0 L 0.0 52.0 L 0.0 53.0 L 0.0 54.0 L 0.0 55.0 L 0.0 56.0 L 0.0 57.0 L 0.0 58.0 L 0.0 59.0 L 0.0 60.0 L 0.0 61.0 L 0.0 62.0 L 0.0 63.0 L 0.0 64.0 L 0.0 65.0 L 0.0 66.0 L 0.0 67.0 L 0.0 68.0 L 0.0 69.0 L 0.0 70.0 L 0.0 71.0 L 0.0 72.0 L 0.0 73.0 L 0.0 74.0 L 0.0 75.0 L 0.0 76.0 L 0.0 77.0 L 0.0 78.0 L 0.0 79.0 L 0.0 80.0 L 0.0 81.0 L 0.0 82.0 L 0.0 83.0 L 0.0 84.0 L 0.0 85.0 L 0.0 86.0 L 0.0 87.0 L 0.0 88.0 L 0.0 89.0 L 0.0 90.0 L 0.0 91.0 L 0.0 92.0 L 0.0 93.0 L 0.0 94.0 L 0.0 95.0 L 0.0 96.0 L 0.0 97.0 L 0.0 98.0 L 0.0 99.0 L 0.0 100.0 L 0.0 101.0 L 0.0 102.0 L 0.0 103.0 L 0.0 104.0 L 0.0 105.0 L 0.0 106.0 L 0.0 107.0 L 0.0 108.0 L 0.0 109.0 L 0.0 110.0 L 0.0 111.0 L 0.0 112.0 L 0.0 113.0 L 0.0 114.0 L 0.0 115.0 L 0.0 116.0 L 0.0 117.0 L 0.0 118.0 L 0.0 119.0 L 0.0 120.0 L 0.0 121.0 L 0.0 122.0 L 0.0 123.0 L 0.0 124.0 L 0.0 125.0 L 0.0 126.0 L 0.0 127.0 L 0.3333333333333333 127.66666666666667 L 1.0 128.0 L 2.0 128.0 L 3.0 128.0 L 4.0 128.0 L 5.0 128.0 L 6.0 128.0 L 7.0 128.0 L 8.0 128.0 L 9.0 128.0 L 10.0 128.0 L 11.0 128.0 L 12.0 128.0 L 13.0 128.0 L 14.0 128.0 L 15.0 128.0 L 16.0 128.0 L 17.0 128.0 L 18.0 128.0 L 19.0 128.0 L 20.0 128.0 L 21.0 128.0 L 22.0 128.0 L 23.0 128.0 L 24.0 128.0 L 25.0 128.0 L 26.0 128.0 L 27.0 128.0 L 28.0 128.0 L 29.0 128.0 L 30.0 128.0 L 31.0 128.0 L 32.0 128.0 L 33.0 128.0 L 34.0 128.0 L 35.0 128.0 L 36.0 128.0 L 37.0 128.0 L 38.0 128.0 L 39.0 128.0 L 40.0 128.0 L 41.0 128.0 L 42.0 128.0 L 43.0 128.0 L 44.0 128.0 L 45.0 128.0 L 46.0 128.0 L 47.0 128.0 L 48.0 128.0 L 49.0 128.0 L 50.0 128.0 L 51.0 128.0 L 52.0 128.0 L 53.0 128.0 L 54.0 128.0 L 55.0 128.0 L 56.0 128.0 L 57.0 128.0 L 58.0 128.0 L 59.0 128.0 L 60.0 128.0 L 61.0 128.0 L 62.0 128.0 L 63.0 128.0 L 64.0 128.0 L 65.0 128.0 L 66.0 128.0 L 67.0 128.0 L 68.0 128.0 L 69.0 128.0 L 70.0 128.0 L 71.0 128.0 L 72.0 128.0 L 73.0 128.0 L 74.0 128.0 L 75.0 128.0 L 76.0 128.0 L 77.0 128.0 L 78.0 128.0 L 79.0 128.0 L 80.0 128.0 L 81.0 128.0 L 82.0 128.0 L 83.0 128.0 L 84.0 128.0 L 85.0 128.0 L 86.0 128.0 L 87.0 128.0 L 88.0 128.0 L 89.0 128.0 L 90.0 128.0 L 91.0 128.0 L 92.0 128.0 L 93.0 128.0 L 94.0 128.0 L 95.0 128.0 L 96.0 128.0 L 97.0 128.0 L 98.0 128.0 L 99.0 128.0 L 100.0 128.0 L 101.0 128.0 L 102.0 128.0 L 103.0 128.0 L 104.0 128.0 L 105.0 128.0 L 106.0 128.0 L 107.0 128.0 L 107.5 128.0 Z" stroke="none" fill="rgb(0,0,0)" />
<path d="M 88.5 18.5 L 89.0 19.0 L 90.0 20.0 L 91.0 21.0 L 91.66666666666667 22.0 L 92.33333333333333 23.0 L 93.0 24.0 L 93.66666666666667 25.0 L 94.33333333333333 26.0 L 94.66666666666667 27.0 L 95.33333333333333 28.0 L 95.66666666666667 29.0 L 96.33333333333333 30.0 L 96.66666666666667 31.0 L 97.0 32.0 L 97.33333333333333 33.0 L 97.66666666666667 34.0 L 98.0 35.0 L 98.33333333333333 36.0 L 98.66666666666667 37.0 L 99.0 38.0 L 99.0 39.0 L 99.0 40.0 L 99.0 41.0 L 99.33333333333333 42.0 L 100.0 42.666666666666664 L 100.66666666666667 42.666666666666664 L 101.0 42.0 L 101.0 41.0 L 101.0 40.0 L 101.0 39.0 L 101.0 38.0 L 101.0 37.0 L 101.0 36.0 L 101.0 35.0 L 101.0 34.0 L 101.0 33.0 L 100.66666666666667 32.0 L 100.33333333333333 31.0 L 100.0 30.0 L 100.0 29.0 L 99.66666666666667 28.0 L 99.0 27.0 L 98.33333333333333 26.0 L 98.0 25.0 L 97.66666666666667 24.0 L 97.33333333333333 23.0 L 97.0 22.0 L 96.66666666666667 21.0 L 96.0 20.0 L 95.0 19.0 L 94.33333333333333 18.0 L 93.66666666666667 17.0 L 93.0 16.0 L 92.0 15.0 L 91.0 14.0 L 90.0 13.0 L 89.0 12.0 L 88.0 11.0 L 87.0 10.0 L 86.0 9.333333333333334 L 85.0 8.666666666666666 L 84.0 8.0 L 83.0 7.333333333333333 L 82.0 6.666666666666667 L 81.0 6.333333333333333 L 80.0 6.0 L 79.0 5.666666666666667 L 78.0 5.333333333333333 L 77.0 5.0 L 76.0 5.0 L 75.0 4.666666666666667 L 74.0 4.333333333333333 L 73.0 4.0 L 72.0 4.0 L 71.0 4.0 L 70.0 4.0 L 69.0 4.0 L 68.0 4.0 L 67.0 4.0 L 66.0 4.0 L 65.0 4.0 L 64.0 4.0 L 63.0 4.0 L 62.0 4.0 L 61.0 4.0 L 60.0 4.0 L 59.0 4.0 L 58.0 4.0 L 57.0 4.0 L 56.0 4.0 L 55.0 4.0 L 54.0 4.333333333333333 L 53.0 4.666666666666667 L 52.0 5.0 L 51.0 5.0 L 50.0 5.333333333333333 L 49.0 5.666666666666667 L 48.0 6.0 L 47.0 6.333333333333333 L 46.0 6.666666666666667 L 45.0 7.333333333333333 L 44.0 8.0 L 43.0 8.666666666666666 L 42.0 9.333333333333334 L 41.0 10.0 L 40.0 11.0 L 39.0 12.0 L 38.0 13.0 L 37.0 14.0 L 36.0 15.0 L 35.0 16.0 L 34.333333333333336 17.0 L 33.666666666666664 18.0 L 33.0 19.0 L 32.0 20.0 L 31.333333333333332 21.0 L 31.0 22.0 L 31.0 23.0 L 30.666666666666668 24.0 L 30.333333333333332 25.0 L 30.0 26.0 L 29.666666666666668 27.0 L 29.333333333333332 28.0 L 29.0 29.0 L 29.0 30.0 L 28.666666666666668 31.0 L 28.333333333333332 32.0 L 28.0 33.0 L 28.0 34.0 L 28.0 35.0 L 28.0 36.0 L 28.0 37.0 L 28.333333333333332 37.666666666666664 L 29.0 37.666666666666664 L 29.666666666666668 37.0 L 30.0 36.0 L 30.0 35.0 L 30.333333333333332 34.0 L 30.666666666666668 33.0 L 31.333333333333332 32.0 L 31.666666666666668 31.0 L 32.0 30.0 L 32.333333333333336 29.0 L 32.666666666666664 28.0 L 33.333333333333336 27.0 L 34.0 26.0 L 34.666666666666664 25.0 L 35.333333333333336 24.0 L 36.0 23.0 L 36.666666666666664 22.0 L 37.333333333333336 21.0 L 38.0 20.0 L 39.0 19.0 L 40.0 18.0 L 41.0 17.0 L 42.0 16.0 L 43.0 15.0 L 44.0 14.333333333333334 L 45.0 13.666666666666666 L 46.0 13.0 L 47.0 12.333333333333334 L 48.0 11.666666666666666 L 49.0 11.0 L 50.0 10.333333333333334 L 51.0 10.0 L 52.0 9.666666666666666 L 53.0 9.333333333333334 L 54.0 8.666666666666666 L 55.0 8.333333333333334 L 56.0 8.0 L 57.0 8.0 L 58.0 7.666666666666667 L 59.0 7.333333333333333 L 60.0 7.0 L 61.0 7.0 L 62.0 7.0 L 63.0 7.0 L 64.0 7.0 L 65.0 7.0 L 66.0 7.0 L 67.0 7.0 L 68.0 7.0 L 69.0 7.333333333333333 L 70.0 7.666666666666667 L 71.0 8.0 L 72.0 8.0 L 73.0 8.333333333333334 L 74.0 8.666666666666666 L 75.0 9.0 L 76.0 9.333333333333334 L 77.0 9.666666666666666 L 78.0 10.333333333333334 L 79.0 10.666666666666666 L 80.0 11.333333333333334 L 81.0 12.0 L 82.0 12.666666666666666 L 83.0 13.333333333333334 L 84.0 14.0 L 85.0 15.0 L 86.0 16.0 L 87.0 17.0 L 87.5 17.5 Z" stroke="none" fill="rgb(107,75,63)" />
<path d="M 101.5 58.0 L 101.66666666666667 57.666666666666664 L 102.0 57.0 L 101.66666666666667 56.0 L 101.33333333333333 55.0 L 101.0 54.0 L 101.0 53.0 L 101.0 52.0 L 101.0 51.0 L 101.0 50.0 L 101.0 49.0 L 101.0 48.0 L 101.0 47.0 L 101.0 46.0 L 101.0 45.0 L 101.0 44.0 L 100.66666666666667 43.0 L 100.0 42.0 L 99.33333333333333 41.0 L 99.0 40.0 L 99.0 39.0 L 99.0 38.0 L 99.0 37.0 L 98.66666666666667 36.0 L 98.33333333333333 35.0 L 98.0 34.0 L 97.66666666666667 33.0 L 97.33333333333333 32.0 L 97.0 31.0 L 96.66666666666667 30.0 L 96.33333333333333 29.0 L 95.66666666666667 28.0 L 95.33333333333333 27.0 L 94.66666666666667 26.0 L 94.33333333333333 25.0 L 93.66666666666667 24.0 L 93.0 23.0 L 92.33333333333333 22.0 L 91.66666666666667 21.0 L 91.0 20.0 L 90.0 19.0 L 89.0 18.0 L 88.0 17.0 L 87.0 16.0 L 86.0 15.0 L 85.0 14.0 L 84.0 13.333333333333334 L 83.0 12.666666666666666 L 82.0 12.0 L 81.0 11.333333333333334 L 80.0 10.666666666666666 L 79.0 10.333333333333334 L 78.0 9.666666666666666 L 77.0 9.333333333333334 L 76.0 9.0 L 75.0 8.666666666666666 L 74.0 8.333333333333334 L 73.0 8.0 L 72.0 8.0 L 71.0 7.666666666666667 L 70.0 7.333333333333333 L 69.0 7.0 L 68.0 7.0 L 67.0 7.0 L 66.0 7.0 L 65.0 7.0 L 64.0 7.0 L 63.0 7.0 L 62.0 7.0 L 61.0 7.0 L 60.0 7.0 L 59.0 7.0 L 58.0 7.333333333333333 L 57.0 7.666666666666667 L 56.0 8.0 L 55.0 8.0 L 54.0 8.333333333333334 L 53.0 8.666666666666666 L 52.0 9.333333333333334 L 51.0 9.666666666666666 L 50.0 10.0 L 49.0 10.333333333333334 L 48.0 11.0 L 47.0 11.666666666666666 L 46.0 12.333333333333334 L 45.0 13.0 L 44.0 13.666666666666666 L 43.0 14.333333333333334 L 42.0 15.0 L 41.0 16.0 L 40.0 17.0 L 39.0 18.0 L 38.0 19.0 L 37.333333333333336 20.0 L 36.666666666666664 21.0 L 36.0 22.0 L 35.333333333333336 23.0 L 34.666666666666664 24.0 L 34.0 25.0 L 33.333333333333336 26.0 L 32.666666666666664 27.0 L 32.333333333333336 28.0 L 32.0 29.0 L 31.666666666666668 30.0 L 31.333333333333332 31.0 L 30.666666666666668 32.0 L 30.333333333333332 33.0 L 30.0 34.0 L 30.0 35.0 L 29.666666666666668 36.0 L 29.0 37.0 L 28.333333333333332 38.0 L 28.0 39.0 L 28.333333333333332 40.0 L 28.666666666666668 41.0 L 29.0 42.0 L 28.666666666666668 43.0 L 28.333333333333332 44.0 L 28.0 45.0 L 28.0 46.0 L 28.0 47.0 L 28.0 48.0 L 28.0 49.0 L 28.0 50.0 L 28.0 51.0 L 28.0 52.0 L 28.0 53.0 L 28.0 54.0 L 28.0 55.0 L 28.0 56.0 L 28.333333333333332 57.0 L 29.0 58.0 L 29.666666666666668 59.0 L 30.0 60.0 L 30.0 61.0 L 30.333333333333332 62.0 L 31.0 62.666666666666664 L 32.0 62.666666666666664 L 32.666666666666664 62.0 L 33.0 61.0 L 33.0 60.0 L 33.0 59.0 L 33.0 58.0 L 33.0 57.0 L 33.0 56.0 L 33.0 55.0 L 32.666666666666664 54.0 L 32.333333333333336 53.0 L 32.0 52.0 L 32.0 51.0 L 32.0 50.0 L 32.0 49.0 L 32.0 48.0 L 32.0 47.0 L 32.0 46.0 L 32.0 45.0 L 32.0 44.0 L 32.0 43.0 L 32.0 42.0 L 32.333333333333336 41.0 L 32.666666666666664 40.0 L 33.0 39.0 L 33.0 38.0 L 33.333333333333336 37.0 L 33.666666666666664 36.0 L 34.0 35.0 L 34.333333333333336 34.0 L 34.666666666666664 33.0 L 35.0 32.0 L 35.333333333333336 31.0 L 35.666666666666664 30.0 L 36.333333333333336 29.0 L 37.0 28.0 L 37.666666666666664 27.0 L 38.333333333333336 26.0 L 39.0 25.0 L 39.666666666666664 24.0 L 40.333333333333336 23.0 L 41.0 22.0 L 42.0 21.0 L 43.0 20.0 L 44.0 19.0 L 45.0 18.0 L 46.0 17.333333333333332 L 47.0 16.666666666666668 L 48.0 16.0 L 49.0 15.333333333333334 L 50.0 14.666666666666666 L 51.0 14.333333333333334 L 52.0 13.666666666666666 L 53.0 13.333333333333334 L 54.0 12.666666666666666 L 55.0 12.333333333333334 L 56.0 12.0 L 57.0 12.0 L 58.0 11.666666666666666 L 59.0 11.333333333333334 L 60.0 11.0 L 61.0 11.0 L 62.0 11.0 L 63.0 11.0 L 64.0 11.0 L 65.0 11.0 L 66.0 11.0 L 67.0 11.0 L 68.0 11.0 L 69.0 11.0 L 70.0 11.333333333333334 L 71.0 11.666666666666666 L 72.0 12.0 L 73.0 12.333333333333334 L 74.0 12.666666666666666 L 75.0 13.333333333333334 L 76.0 13.666666666666666 L 77.0 14.333333333333334 L 78.0 14.666666666666666 L 79.0 15.333333333333334 L 80.0 16.0 L 81.0 16.666666666666668 L 82.0 17.333333333333332 L 83.0 18.0 L 84.0 19.0 L 85.0 20.0 L 86.0 21.0 L 87.0 22.0 L 88.0 23.0 L 88.66666666666667 24.0 L 89.33333333333333 25.0 L 90.0 26.0 L 90.66666666666667 27.0 L 91.33333333333333 28.0 L 91.66666666666667 29.0 L 92.33333333333333 30.0 L 92.66666666666667 31.0 L 93.33333333333333 32.0 L 93.66666666666667 33.0 L 94.0 34.0 L 94.33333333333333 35.0 L 94.66666666666667 36.0 L 95.0 37.0 L 95.0 38.0 L 95.33333333333333 39.0 L 95.66666666666667 40.0 L 96.0 41.0 L 96.0 42.0 L 96.0 43.0 L 96.0 44.0 L 96.0 45.0 L 96.0 46.0 L 96.0 47.0 L 96.0 48.0 L 96.0 49.0 L 96.0 50.0 L 96.0 51.0 L 96.0 52.0 L 96.0 53.0 L 95.66666666666667 54.0 L 95.33333333333333 55.0 L 95.0 56.0 L 95.0 57.0 L 95.0 58.0 L 95.0 59.0 L 95.0 60.0 L 95.33333333333333 61.0 L 96.0 61.666666666666664 L 97.0 62.0 L 98.0 61.666666666666664 L 98.66666666666667 61.0 L 99.33333333333333 60.0 L 100.0 59.0 L 100.5 58.5 Z" stroke="none" fill="rgb(96,66,56)" />
<path d="M 4.5 28.0 L 4.666666666666667 27.666666666666668 L 5.0 27.0 L 5.0 26.0 L 5.0 25.0 L 5.0 24.0 L 5.333333333333333 23.0 L 5.666666666666667 22.0 L 6.0 21.0 L 6.0 20.0 L 6.0 19.0 L 6.0 18.0 L 6.333333333333333 17.0 L 6.666666666666667 16.0 L 7.0 15.0 L 7.333333333333333 14.0 L 8.0 13.0 L 9.0 12.0 L 10.0 11.333333333333334 L 11.0 10.666666666666666 L 12.0 10.333333333333334 L 13.0 10.0 L 14.0 10.0 L 15.0 10.0 L 16.0 10.0 L 17.0 10.0 L 18.0 10.0 L 19.0 10.0 L 20.0 10.0 L 21.0 10.0 L 22.0 10.0 L 23.0 10.0 L 24.0 10.0 L 25.0 10.0 L 26.0 10.0 L 27.0 10.0 L 28.0 10.0 L 29.0 10.0 L 30.0 10.0 L 31.0 10.0 L 32.0 10.0 L 33.0 10.0 L 34.0 10.0 L 35.0 10.0 L 36.0 10.0 L 37.0 10.0 L 38.0 10.0 L 39.0 10.333333333333334 L 40.0 10.666666666666666 L 41.0 10.666666666666666 L 42.0 10.0 L 42.666666666666664 9.0 L 42.666666666666664 8.333333333333334 L 42.0 8.0 L 41.0 8.0 L 40.0 8.0 L 39.0 8.0 L 38.0 8.0 L 37.0 8.0 L 36.0 8.0 L 35.0 8.0 L 34.0 8.0 L 33.0 8.0 L 32.0 8.0 L 31.0 8.0 L 30.0 8.0 L 29.0 8.0 L 28.0 8.0 L 27.0 8.0 L 26.0 8.0 L 25.0 8.0 L 24.0 8.0 L 23.0 8.0 L 22.0 8.0 L 21.0 8.0 L 20.0 8.0 L 19.0 8.0 L 18.0 8.0 L 17.0 8.0 L 16.0 8.0 L 15.0 8.0 L 14.0 8.0 L 13.0 8.0 L 12.0 8.0 L 11.0 8.0 L 10.0 8.0 L 9.0 8.0 L 8.0 8.0 L 7.0 8.0 L 6.0 8.0 L 5.0 8.333333333333334 L 4.333333333333333 9.0 L 4.0 10.0 L 4.0 11.0 L 4.0 12.0 L 4.0 13.0 L 4.0 14.0 L 4.0 15.0 L 4.0 16.0 L 4.0 17.0 L 4.0 18.0 L 4.0 19.0 L 4.0 20.0 L 4.0 21.0 L 4.0 22.0 L 4.0 23.0 L 4.0 24.0 L 4.0 25.0 L 4.0 26.0 L 4.0 27.0 L 4.0 27.5 Z" stroke="none" fill="rgb(103,103,102)" />
<path d="M 123.5 16.0 L 123.66666666666667 15.666666666666666 L 124.0 15.0 L 124.0 14.0 L 124.0 13.0 L 124.0 12.0 L 124.0 11.0 L 124.0 10.0 L 123.66666666666667 9.0 L 123.0 8.333333333333334 L 122.0 8.0 L 121.0 8.0 L 120.0 8.0 L 119.0 8.0 L 118.0 8.0 L 117.0 8.0 L 116.0 8.0 L 115.0 8.0 L 114.0 8.0 L 113.0 8.0 L 112.0 8.0 L 111.0 8.0 L 110.0 8.0 L 109.0 8.0 L 108.0 8.0 L 107.0 8.0 L 106.0 8.0 L 105.0 8.0 L 104.0 8.0 L 103.0 8.0 L 102.0 8.0 L 101.0 8.0 L 100.0 8.0 L 99.0 8.0 L 98.0 8.0 L 97.0 8.0 L 96.0 8.0 L 95.0 8.0 L 94.0 8.0 L 93.0 8.0 L 92.0 8.0 L 91.0 8.0 L 90.0 8.0 L 89.0 8.0 L 88.0 8.0 L 87.0 8.0 L 86.33333333333333 8.333333333333334 L 86.0 9.0 L 86.33333333333333 10.0 L 87.0 10.666666666666666 L 88.0 10.666666666666666 L 89.0 10.333333333333334 L 90.0 10.0 L 91.0 10.0 L 92.0 10.0 L 93.0 10.0 L 94.0 10.0 L 95.0 10.0 L 96.0 10.0 L 97.0 10.0 L 98.0 10.0 L 99.0 10.0 L 100.0 10.0 L 101.0 10.0 L 102.0 10.0 L 103.0 10.0 L 104.0 10.0 L 105.0 10.0 L 106.0 10.0 L 107.0 10.0 L 108.0 10.0 L 109.0 10.0 L 110.0 10.0 L 111.0 10.0 L 112.0 10.0 L 113.0 10.0 L 114.0 10.0 L 115.0 10.0 L 116.0 10.0 L 117.0 10.333333333333334 L 118.0 10.666666666666666 L 119.0 11.333333333333334 L 120.0 12.0 L 121.0 13.0 L 121.66666666666667 14.0 L 122.33333333333333 15.0 L 122.5 15.5 Z" stroke="none" fill="rgb(103,103,102)" />
<path d="M 34.5 12.0 L 35.0 12.0 L 36.0 12.0 L 37.0 12.333333333333334 L 38.0 12.666666666666666 L 39.0 12.666666666666666 L 39.666666666666664 12.0 L 40.0 11.0 L 39.666666666666664 10.333333333333334 L 39.0 10.0 L 38.0 10.0 L 37.0 10.0 L 36.0 10.0 L 35.0 10.0 L 34.0 10.0 L 33.0 10.0 L 32.0 10.0 L 31.0 10.0 L 30.0 10.0 L 29.0 10.0 L 28.0 10.0 L 27.0 10.0 L 26.0 10.0 L 25.0 10.0 L 24.0 10.0 L 23.0 10.0 L 22.0 10.0 L 21.0 10.0 L 20.0 10.0 L 19.0 10.0 L 18.0 10.0 L 17.0 10.0 L 16.0 10.0 L 15.0 10.0 L 14.0 10.0 L 13.0 10.0 L 12.0 10.0 L 11.0 10.333333333333334 L 10.0 10.666666666666666 L 9.0 11.333333333333334 L 8.0 12.0 L 7.333333333333333 13.0 L 7.0 14.0 L 6.666666666666667 15.0 L 6.333333333333333 16.0 L 6.0 17.0 L 6.0 18.0 L 6.0 19.0 L 6.0 20.0 L 5.666666666666667 21.0 L 5.333333333333333 22.0 L 5.0 23.0 L 5.0 24.0 L 5.0 25.0 L 5.0 26.0 L 4.666666666666667 27.0 L 4.333333333333333 28.0 L 4.0 29.0 L 4.0 30.0 L 4.0 31.0 L 4.0 32.0 L 4.0 33.0 L 4.0 34.0 L 4.0 35.0 L 4.0 36.0 L 4.0 37.0 L 4.0 38.0 L 4.0 39.0 L 4.0 40.0 L 4.0 41.0 L 4.0 42.0 L 4.0 43.0 L 4.0 44.0 L 4.0 45.0 L 4.0 46.0 L 4.0 47.0 L 4.0 48.0 L 4.0 49.0 L 4.0 50.0 L 4.333333333333333 50.666666666666664 L 4.666666666666667 50.666666666666664 L 5.0 50.0 L 5.0 49.0 L 5.333333333333333 48.0 L 6.0 47.333333333333336 L 6.666666666666667 46.666666666666664 L 7.0 46.0 L 7.0 45.0 L 6.666666666666667 44.0 L 6.333333333333333 43.0 L 6.0 42.0 L 6.0 41.0 L 6.0 40.0 L 6.0 39.0 L 6.0 38.0 L 6.0 37.0 L 6.333333333333333 36.0 L 6.666666666666667 35.0 L 7.0 34.0 L 7.0 33.0 L 7.0 32.0 L 7.0 31.0 L 7.0 30.0 L 7.0 29.0 L 7.0 28.0 L 7.0 27.0 L 7.0 26.0 L 7.0 25.0 L 7.333333333333333 24.0 L 7.666666666666667 23.0 L 8.0 22.0 L 8.0 21.0 L 8.0 20.0 L 8.0 19.0 L 8.0 18.0 L 8.333333333333334 17.0 L 9.0 16.0 L 10.0 15.0 L 11.0 14.0 L 12.0 13.0 L 13.0 12.333333333333334 L 14.0 12.0 L 15.0 12.0 L 16.0 12.0 L 17.0 12.0 L 18.0 12.0 L 19.0 12.0 L 20.0 12.0 L 21.0 12.0 L 22.0 12.0 L 23.0 12.0 L 24.0 12.0 L 25.0 12.0 L 26.0 12.0 L 27.0 12.0 L 28.0 12.0 L 29.0 12.0 L 30.0 12.0 L 31.0 12.0 L 32.0 12.0 L 33.0 12.0 L 33.5 12.0 Z" stroke="none" fill="rgb(88,87,87)" />
<path d="M 123.5 33.0 L 123.66666666666667 32.666666666666664 L 124.0 32.0 L 124.0 31.0 L 124.0 30.0 L 124.0 29.0 L 124.0 28.0 L 124.0 27.0 L 124.0 26.0 L 124.0 25.0 L 124.0 24.0 L 124.0 23.0 L 124.0 22.0 L 124.0 21.0 L 124.0 20.0 L 124.0 19.0 L 124.0 18.0 L 124.0 17.0 L 123.66666666666667 16.0 L 123.0 15.0 L 122.33333333333333 14.0 L 121.66666666666667 13.0 L 121.0 12.0 L 120.0 11.333333333333334 L 119.0 10.666666666666666 L 118.0 10.333333333333334 L 117.0 10.0 L 116.0 10.0 L 115.0 10.0 L 114.0 10.0 L 113.0 10.0 L 112.0 10.0 L 111.0 10.0 L 110.0 10.0 L 109.0 10.0 L 108.0 10.0 L 107.0 10.0 L 106.0 10.0 L 105.0 10.0 L 104.0 10.0 L 103.0 10.0 L 102.0 10.0 L 101.0 10.0 L 100.0 10.0 L 99.0 10.0 L 98.0 10.0 L 97.0 10.0 L 96.0 10.0 L 95.0 10.0 L 94.0 10.0 L 93.0 10.0 L 92.0 10.0 L 91.0 10.0 L 90.0 10.0 L 89.0 10.0 L 88.33333333333333 10.333333333333334 L 88.0 11.0 L 88.33333333333333 12.0 L 89.0 12.666666666666666 L 90.0 12.666666666666666 L 91.0 12.333333333333334 L 92.0 12.0 L 93.0 12.0 L 94.0 12.0 L 95.0 12.0 L 96.0 12.0 L 97.0 12.0 L 98.0 12.0 L 99.0 12.0 L 100.0 12.0 L 101.0 12.0 L 102.0 12.0 L 103.0 12.0 L 104.0 12.0 L 105.0 12.0 L 106.0 12.0 L 107.0 12.0 L 108.0 12.0 L 109.0 12.0 L 110.0 12.0 L 111.0 12.0 L 112.0 12.0 L 113.0 12.0 L 114.0 12.0 L 115.0 12.0 L 116.0 12.333333333333334 L 117.0 12.666666666666666 L 118.0 13.333333333333334 L 119.0 14.0 L 119.66666666666667 15.0 L 120.33333333333333 16.0 L 120.66666666666667 17.0 L 121.0 18.0 L 121.0 19.0 L 121.0 20.0 L 121.33333333333333 21.0 L 121.66666666666667 22.0 L 122.0 23.0 L 122.0 24.0 L 122.0 25.0 L 122.0 26.0 L 122.0 27.0 L 122.0 28.0 L 122.0 29.0 L 122.0 30.0 L 122.0 31.0 L 122.33333333333333 32.0 L 122.5 32.5 Z" stroke="none" fill="rgb(88,87,87)" />
<path d="M 58.5 37.0 L 59.0 37.0 L 60.0 37.0 L 61.0 37.0 L 62.0 37.0 L 63.0 37.0 L 64.0 37.0 L 65.0 37.0 L 66.0 37.0 L 67.0 37.0 L 68.0 37.0 L 69.0 37.0 L 70.0 37.0 L 71.0 37.0 L 72.0 37.0 L 73.0 37.0 L 74.0 37.0 L 75.0 37.0 L 76.0 37.0 L 77.0 37.0 L 78.0 37.0 L 79.0 37.0 L 80.0 37.0 L 81.0 36.666666666666664 L 82.0 36.333333333333336 L 83.0 36.0 L 84.0 36.0 L 85.0 36.0 L 86.0 36.333333333333336 L 87.0 37.0 L 88.0 38.0 L 89.0 39.0 L 89.66666666666667 40.0 L 90.33333333333333 41.0 L 90.66666666666667 42.0 L 91.0 43.0 L 91.0 44.0 L 91.33333333333333 45.0 L 91.66666666666667 46.0 L 92.0 47.0 L 92.33333333333333 48.0 L 92.66666666666667 49.0 L 93.0 50.0 L 93.0 51.0 L 93.0 52.0 L 93.33333333333333 53.0 L 93.66666666666667 54.0 L 94.33333333333333 54.666666666666664 L 95.0 55.0 L 95.66666666666667 54.666666666666664 L 96.0 54.0 L 96.0 53.0 L 96.0 52.0 L 96.0 51.0 L 96.0 50.0 L 96.0 49.0 L 96.0 48.0 L 96.0 47.0 L 96.0 46.0 L 96.0 45.0 L 96.0 44.0 L 96.0 43.0 L 96.0 42.0 L 96.0 41.0 L 96.0 40.0 L 95.66666666666667 39.0 L 95.33333333333333 38.0 L 95.0 37.0 L 95.0 36.0 L 94.66666666666667 35.0 L 94.33333333333333 34.0 L 94.0 33.0 L 93.66666666666667 32.0 L 93.33333333333333 31.0 L 92.66666666666667 30.0 L 92.33333333333333 29.0 L 91.66666666666667 28.0 L 91.33333333333333 27.0 L 90.66666666666667 26.0 L 90.0 25.0 L 89.33333333333333 24.0 L 88.66666666666667 23.0 L 88.0 22.0 L 87.0 21.0 L 86.0 20.0 L 85.0 19.0 L 84.0 18.0 L 83.0 17.333333333333332 L 82.0 16.666666666666668 L 81.0 16.0 L 80.0 15.333333333333334 L 79.0 14.666666666666666 L 78.0 14.333333333333334 L 77.0 13.666666666666666 L 76.0 13.333333333333334 L 75.0 12.666666666666666 L 74.0 12.333333333333334 L 73.0 12.0 L 72.0 11.666666666666666 L 71.0 11.333333333333334 L 70.0 11.0 L 69.0 11.0 L 68.0 11.0 L 67.0 11.0 L 66.0 11.0 L 65.0 11.0 L 64.0 11.0 L 63.0 11.0 L 62.0 11.0 L 61.0 11.0 L 60.0 11.0 L 59.0 11.0 L 58.0 11.333333333333334 L 57.0 11.666666666666666 L 56.0 12.0 L 55.0 12.0 L 54.0 12.333333333333334 L 53.0 12.666666666666666 L 52.0 13.333333333333334 L 51.0 13.666666666666666 L 50.0 14.333333333333334 L 49.0 14.666666666666666 L 48.0 15.333333333333334 L 47.0 16.0 L 46.0 16.666666666666668 L 45.0 17.333333333333332 L 44.0 18.0 L 43.0 19.0 L 42.0 20.0 L 41.0 21.0 L 40.333333333333336 22.0 L 39.666666666666664 23.0 L 39.0 24.0 L 38.333333333333336 25.0 L 37.666666666666664 26.0 L 37.0 27.0 L 36.333333333333336 28.0 L 35.666666666666664 29.0 L 35.333333333333336 30.0 L 35.0 31.0 L 34.666666666666664 32.0 L 34.333333333333336 33.0 L 34.0 34.0 L 33.666666666666664 35.0 L 33.333333333333336 36.0 L 33.0 37.0 L 33.0 38.0 L 32.666666666666664 39.0 L 32.333333333333336 40.0 L 32.0 41.0 L 32.0 42.0 L 32.0 43.0 L 32.0 44.0 L 32.0 45.0 L 32.0 46.0 L 32.0 47.0 L 32.0 48.0 L 32.0 49.0 L 32.0 50.0 L 32.0 51.0 L 32.0 52.0 L 32.0 53.0 L 32.333333333333336 53.666666666666664 L 33.0 54.0 L 34.0 53.666666666666664 L 34.666666666666664 53.0 L 35.0 52.0 L 35.0 51.0 L 35.333333333333336 50.0 L 35.666666666666664 49.0 L 36.0 48.0 L 36.0 47.0 L 36.333333333333336 46.0 L 36.666666666666664 45.0 L 37.0 44.0 L 37.0 43.0 L 37.333333333333336 42.0 L 37.666666666666664 41.0 L 38.333333333333336 40.0 L 39.0 39.0 L 40.0 38.0 L 41.0 37.0 L 42.0 36.333333333333336 L 43.0 36.0 L 44.0 36.0 L 45.0 36.0 L 46.0 36.0 L 47.0 36.0 L 48.0 36.0 L 49.0 36.0 L 50.0 36.0 L 51.0 36.333333333333336 L 52.0 36.666666666666664 L 53.0 37.0 L 54.0 37.0 L 55.0 37.0 L 56.0 37.0 L 57.0 37.0 L 57.5 37.0 Z" stroke="none" fill="rgb(85,58,48)" />
<path d="M 21.5 16.0 L 22.0 16.0 L 23.0 16.0 L 24.0 16.0 L 25.0 16.0 L 26.0 16.0 L 27.0 16.0 L 28.0 16.0 L 29.0 16.0 L 30.0 16.0 L 31.0 16.0 L 32.0 16.0 L 33.0 16.333333333333332 L 34.0 16.666666666666668 L 35.0 16.666666666666668 L 36.0 16.0 L 37.0 15.0 L 37.666666666666664 14.0 L 38.0 13.0 L 37.666666666666664 12.333333333333334 L 37.0 12.0 L 36.0 12.0 L 35.0 12.0 L 34.0 12.0 L 33.0 12.0 L 32.0 12.0 L 31.0 12.0 L 30.0 12.0 L 29.0 12.0 L 28.0 12.0 L 27.0 12.0 L 26.0 12.0 L 25.0 12.0 L 24.0 12.0 L 23.0 12.0 L 22.0 12.0 L 21.0 12.0 L 20.0 12.0 L 19.0 12.0 L 18.0 12.0 L 17.0 12.0 L 16.0 12.0 L 15.0 12.0 L 14.0 12.0 L 13.0 12.0 L 12.0 12.333333333333334 L 11.0 13.0 L 10.0 14.0 L 9.0 15.0 L 8.333333333333334 16.0 L 8.0 17.0 L 8.0 18.0 L 8.0 19.0 L 8.0 20.0 L 8.0 21.0 L 7.666666666666667 22.0 L 7.333333333333333 23.0 L 7.0 24.0 L 7.0 25.0 L 7.0 26.0 L 7.0 27.0 L 7.0 28.0 L 7.0 29.0 L 7.0 30.0 L 7.0 31.0 L 7.0 32.0 L 7.0 33.0 L 6.666666666666667 34.0 L 6.333333333333333 35.0 L 6.0 36.0 L 6.0 37.0 L 6.0 38.0 L 6.0 39.0 L 6.0 40.0 L 6.0 41.0 L 6.0 42.0 L 6.0 43.0 L 6.333333333333333 43.666666666666664 L 7.0 43.666666666666664 L 8.0 43.333333333333336 L 8.666666666666666 42.666666666666664 L 9.0 42.0 L 8.666666666666666 41.0 L 8.333333333333334 40.0 L 8.0 39.0 L 8.0 38.0 L 8.0 37.0 L 8.0 36.0 L 8.333333333333334 35.0 L 8.666666666666666 34.0 L 9.0 33.0 L 9.0 32.0 L 9.0 31.0 L 9.0 30.0 L 9.0 29.0 L 9.333333333333334 28.0 L 9.666666666666666 27.0 L 10.0 26.0 L 10.0 25.0 L 10.0 24.0 L 10.0 23.0 L 10.0 22.0 L 10.333333333333334 21.0 L 11.0 20.333333333333332 L 11.666666666666666 19.666666666666668 L 12.0 19.0 L 12.0 18.0 L 12.333333333333334 17.0 L 13.0 16.333333333333332 L 14.0 16.0 L 15.0 16.0 L 16.0 16.0 L 17.0 16.0 L 18.0 16.0 L 19.0 16.0 L 20.0 16.0 L 20.5 16.0 Z" stroke="none" fill="rgb(75,75,75)" />
<path d="M 120.5 33.5 L 120.66666666666667 34.0 L 121.0 35.0 L 121.0 36.0 L 121.0 37.0 L 121.0 38.0 L 121.0 39.0 L 121.0 40.0 L 121.33333333333333 41.0 L 121.66666666666667 42.0 L 122.0 43.0 L 122.0 44.0 L 122.0 45.0 L 122.0 46.0 L 122.0 47.0 L 122.0 48.0 L 122.0 49.0 L 122.33333333333333 50.0 L 123.0 50.666666666666664 L 123.66666666666667 50.666666666666664 L 124.0 50.0 L 124.0 49.0 L 124.0 48.0 L 124.0 47.0 L 124.0 46.0 L 124.0 45.0 L 124.0 44.0 L 124.0 43.0 L 124.0 42.0 L 124.0 41.0 L 124.0 40.0 L 124.0 39.0 L 124.0 38.0 L 124.0 37.0 L 124.0 36.0 L 124.0 35.0 L 124.0 34.0 L 123.66666666666667 33.0 L 123.0 32.0 L 122.33333333333333 31.0 L 122.0 30.0 L 122.0 29.0 L 122.0 28.0 L 122.0 27.0 L 122.0 26.0 L 122.0 25.0 L 122.0 24.0 L 122.0 23.0 L 122.0 22.0 L 121.66666666666667 21.0 L 121.33333333333333 20.0 L 121.0 19.0 L 121.0 18.0 L 121.0 17.0 L 120.66666666666667 16.0 L 120.33333333333333 15.0 L 119.66666666666667 14.0 L 119.0 13.333333333333334 L 118.0 12.666666666666666 L 117.0 12.333333333333334 L 116.0 12.0 L 115.0 12.0 L 114.0 12.0 L 113.0 12.0 L 112.0 12.0 L 111.0 12.0 L 110.0 12.0 L 109.0 12.0 L 108.0 12.0 L 107.0 12.0 L 106.0 12.0 L 105.0 12.0 L 104.0 12.0 L 103.0 12.0 L 102.0 12.0 L 101.0 12.0 L 100.0 12.0 L 99.0 12.0 L 98.0 12.0 L 97.0 12.0 L 96.0 12.0 L 95.0 12.0 L 94.0 12.0 L 93.0 12.0 L 92.0 12.0 L 91.0 12.0 L 90.33333333333333 12.333333333333334 L 90.0 13.0 L 90.33333333333333 14.0 L 91.0 15.0 L 92.0 16.0 L 93.0 16.666666666666668 L 94.0 16.666666666666668 L 95.0 16.333333333333332 L 96.0 16.0 L 97.0 16.0 L 98.0 16.0 L 99.0 16.0 L 100.0 16.0 L 101.0 16.0 L 102.0 15.666666666666666 L 103.0 15.333333333333334 L 104.0 15.0 L 105.0 15.0 L 106.0 15.0 L 107.0 15.333333333333334 L 108.0 15.666666666666666 L 109.0 16.0 L 110.0 16.0 L 111.0 16.0 L 112.0 16.0 L 113.0 16.0 L 114.0 16.0 L 115.0 16.0 L 116.0 16.0 L 117.0 16.333333333333332 L 117.66666666666667 17.0 L 118.33333333333333 18.0 L 118.66666666666667 19.0 L 119.0 20.0 L 119.0 21.0 L 119.0 22.0 L 119.0 23.0 L 119.33333333333333 24.0 L 119.66666666666667 25.0 L 120.0 26.0 L 120.0 27.0 L 120.0 28.0 L 120.0 29.0 L 120.0 30.0 L 120.0 31.0 L 120.0 32.0 L 120.0 32.5 Z" stroke="none" fill="rgb(75,75,75)" />
<path d="M 107.5 18.0 L 107.66666666666667 17.666666666666668 L 108.0 17.0 L 108.0 16.0 L 107.66666666666667 15.333333333333334 L 107.0 15.0 L 106.0 15.0 L 105.0 15.0 L 104.0 15.0 L 103.0 15.0 L 102.33333333333333 15.333333333333334 L 102.0 16.0 L 102.0 17.0 L 102.33333333333333 17.666666666666668 L 103.0 18.0 L 104.0 18.0 L 105.0 18.0 L 106.0 18.0 L 106.5 18.0 Z" stroke="none" fill="rgb(65,65,65)" />
<path d="M 20.5 21.0 L 21.0 21.0 L 22.0 21.0 L 23.0 21.0 L 24.0 21.0 L 25.0 21.0 L 26.0 21.0 L 27.0 21.0 L 28.0 21.0 L 29.0 21.0 L 30.0 21.0 L 31.0 21.0 L 32.0 20.666666666666668 L 33.0 20.0 L 33.666666666666664 19.0 L 34.0 18.0 L 34.0 17.0 L 33.666666666666664 16.333333333333332 L 33.0 16.0 L 32.0 16.0 L 31.0 16.0 L 30.0 16.0 L 29.0 16.0 L 28.0 16.0 L 27.0 16.0 L 26.0 16.0 L 25.0 16.0 L 24.0 16.0 L 23.0 16.0 L 22.0 16.0 L 21.0 16.0 L 20.0 16.0 L 19.0 16.0 L 18.0 16.0 L 17.0 16.0 L 16.0 16.0 L 15.0 16.0 L 14.0 16.0 L 13.0 16.0 L 12.333333333333334 16.333333333333332 L 12.0 17.0 L 12.0 18.0 L 12.0 19.0 L 12.333333333333334 20.0 L 13.0 20.666666666666668 L 14.0 21.0 L 15.0 21.0 L 16.0 21.0 L 17.0 21.0 L 18.0 21.0 L 19.0 21.0 L 19.5 21.0 Z" stroke="none" fill="rgb(118,255,3)" />
<path d="M 98.5 21.0 L 99.0 21.0 L 100.0 21.0 L 101.0 20.666666666666668 L 101.66666666666667 20.0 L 102.0 19.0 L 102.0 18.0 L 102.0 17.0 L 101.66666666666667 16.333333333333332 L 101.0 16.0 L 100.0 16.0 L 99.0 16.0 L 98.0 16.0 L 97.0 16.0 L 96.0 16.0 L 95.0 16.0 L 94.33333333333333 16.333333333333332 L 94.0 17.0 L 94.0 18.0 L 94.33333333333333 19.0 L 95.0 20.0 L 96.0 20.666666666666668 L 97.0 21.0 L 97.5 21.0 Z" stroke="none" fill="rgb(118,255,3)" />
<path d="M 113.5 20.0 L 114.0 20.0 L 115.0 20.0 L 115.66666666666667 19.666666666666668 L 116.0 19.0 L 116.0 18.0 L 116.0 17.0 L 115.66666666666667 16.333333333333332 L 115.0 16.0 L 114.0 16.0 L 113.0 16.0 L 112.0 16.0 L 111.0 16.0 L 110.0 16.0 L 109.0 16.0 L 108.33333333333333 16.333333333333332 L 107.66666666666667 17.0 L 107.33333333333333 18.0 L 107.33333333333333 19.0 L 108.0 19.666666666666668 L 109.0 20.0 L 110.0 20.0 L 111.0 20.0 L 112.0 20.0 L 112.5 20.0 Z" stroke="none" fill="rgb(118,255,3)" />
<path d="M 122.0 46.5 L 122.0 46.0 L 122.0 45.0 L 122.0 44.0 L 122.0 43.0 L 122.0 42.0 L 121.66666666666667 41.0 L 121.33333333333333 40.0 L 121.0 39.0 L 121.0 38.0 L 121.0 37.0 L 121.0 36.0 L 121.0 35.0 L 121.0 34.0 L 120.66666666666667 33.0 L 120.33333333333333 32.0 L 120.0 31.0 L 120.0 30.0 L 120.0 29.0 L 120.0 28.0 L 120.0 27.0 L 120.0 26.0 L 120.0 25.0 L 119.66666666666667 24.0 L 119.33333333333333 23.0 L 119.0 22.0 L 119.0 21.0 L 119.0 20.0 L 119.0 19.0 L 118.66666666666667 18.0 L 118.33333333333333 17.0 L 117.66666666666667 16.333333333333332 L 117.0 16.0 L 116.33333333333333 16.333333333333332 L 116.0 17.0 L 116.0 18.0 L 115.66666666666667 19.0 L 115.33333333333333 20.0 L 115.33333333333333 21.0 L 115.66666666666667 22.0 L 116.0 23.0 L 116.33333333333333 24.0 L 116.66666666666667 25.0 L 117.0 26.0 L 117.0 27.0 L 117.33333333333333 28.0 L 117.66666666666667 29.0 L 118.0 30.0 L 118.0 31.0 L 118.0 32.0 L 118.33333333333333 33.0 L 118.66666666666667 34.0 L 119.0 35.0 L 119.0 36.0 L 119.0 37.0 L 119.0 38.0 L 119.33333333333333 39.0 L 119.66666666666667 40.0 L 120.0 41.0 L 120.0 42.0 L 120.0 43.0 L 120.0 44.0 L 120.0 45.0 L 120.33333333333333 46.0 L 121.0 46.666666666666664 L 121.5 47.0 Z" stroke="none" fill="rgb(65,65,65)" />
<path d="M 105.5 28.0 L 106.0 28.0 L 107.0 28.0 L 108.0 28.0 L 109.0 28.0 L 110.0 28.0 L 111.0 28.333333333333332 L 111.66666666666667 29.0 L 112.0 30.0 L 112.0 31.0 L 112.33333333333333 31.666666666666668 L 113.0 32.333333333333336 L 114.0 33.0 L 115.0 34.0 L 115.66666666666667 35.0 L 116.0 36.0 L 116.33333333333333 37.0 L 116.66666666666667 38.0 L 117.0 39.0 L 117.0 40.0 L 117.33333333333333 41.0 L 117.66666666666667 42.0 L 118.0 43.0 L 118.0 44.0 L 118.33333333333333 45.0 L 118.66666666666667 46.0 L 119.0 47.0 L 119.0 48.0 L 119.0 49.0 L 119.0 50.0 L 119.0 51.0 L 119.33333333333333 52.0 L 120.0 52.666666666666664 L 120.66666666666667 52.666666666666664 L 121.0 52.0 L 121.33333333333333 51.0 L 121.66666666666667 50.0 L 122.0 49.0 L 122.0 48.0 L 121.66666666666667 47.0 L 121.0 46.0 L 120.33333333333333 45.0 L 120.0 44.0 L 120.0 43.0 L 120.0 42.0 L 120.0 41.0 L 120.0 40.0 L 119.66666666666667 39.0 L 119.33333333333333 38.0 L 119.0 37.0 L 119.0 36.0 L 119.0 35.0 L 119.0 34.0 L 118.66666666666667 33.0 L 118.33333333333333 32.0 L 118.0 31.0 L 118.0 30.0 L 118.0 29.0 L 117.66666666666667 28.0 L 117.33333333333333 27.0 L 117.0 26.0 L 117.0 25.0 L 116.66666666666667 24.0 L 116.33333333333333 23.0 L 116.0 22.0 L 115.66666666666667 21.0 L 115.0 20.333333333333332 L 114.0 20.0 L 113.0 20.0 L 112.0 20.0 L 111.0 20.0 L 110.0 20.0 L 109.0 19.666666666666668 L 108.0 19.0 L 107.0 18.333333333333332 L 106.0 18.0 L 105.0 18.0 L 104.0 18.0 L 103.0 18.0 L 102.33333333333333 18.333333333333332 L 101.66666666666667 19.0 L 101.0 20.0 L 100.0 20.666666666666668 L 99.0 21.0 L 98.0 21.0 L 97.33333333333333 21.333333333333332 L 97.0 22.0 L 97.0 23.0 L 97.33333333333333 24.0 L 97.66666666666667 25.0 L 98.0 26.0 L 98.33333333333333 27.0 L 99.0 27.666666666666668 L 100.0 28.0 L 101.0 28.0 L 102.0 28.0 L 103.0 28.0 L 104.0 28.0 L 104.5 28.0 Z" stroke="none" fill="rgb(56,56,56)" />
<path d="M 11.0 33.5 L 11.0 33.0 L 11.0 32.0 L 11.0 31.0 L 11.333333333333334 30.0 L 11.666666666666666 29.0 L 12.0 28.0 L 12.0 27.0 L 12.0 26.0 L 12.333333333333334 25.0 L 12.666666666666666 24.0 L 13.0 23.0 L 13.0 22.0 L 13.0 21.0 L 12.666666666666666 20.333333333333332 L 12.0 20.0 L 11.0 20.0 L 10.333333333333334 20.333333333333332 L 10.0 21.0 L 10.0 22.0 L 10.0 23.0 L 10.0 24.0 L 10.0 25.0 L 9.666666666666666 26.0 L 9.333333333333334 27.0 L 9.0 28.0 L 9.0 29.0 L 9.0 30.0 L 9.0 31.0 L 9.0 32.0 L 8.666666666666666 33.0 L 8.333333333333334 34.0 L 8.0 35.0 L 8.0 36.0 L 8.0 37.0 L 8.0 38.0 L 8.0 39.0 L 8.0 40.0 L 8.333333333333334 40.666666666666664 L 9.0 40.666666666666664 L 9.666666666666666 40.0 L 10.0 39.0 L 10.0 38.0 L 10.0 37.0 L 10.0 36.0 L 10.333333333333334 35.0 L 10.5 34.5 Z" stroke="none" fill="rgb(65,65,65)" />
<path d="M 21.5 28.0 L 22.0 28.0 L 23.0 28.0 L 24.0 28.0 L 25.0 28.0 L 26.0 28.0 L 27.0 28.333333333333332 L 28.0 28.666666666666668 L 29.0 28.666666666666668 L 29.666666666666668 28.0 L 30.0 27.0 L 30.333333333333332 26.0 L 30.666666666666668 25.0 L 31.0 24.0 L 31.0 23.0 L 31.0 22.0 L 30.666666666666668 21.333333333333332 L 30.0 21.0 L 29.0 21.0 L 28.0 21.0 L 27.0 21.0 L 26.0 21.0 L 25.0 21.0 L 24.0 21.0 L 23.0 21.0 L 22.0 21.0 L 21.0 21.0 L 20.0 21.0 L 19.0 21.0 L 18.0 21.0 L 17.0 21.0 L 16.0 21.0 L 15.0 21.0 L 14.0 21.0 L 13.333333333333334 21.333333333333332 L 13.0 22.0 L 12.666666666666666 23.0 L 12.333333333333334 24.0 L 12.0 25.0 L 12.0 26.0 L 12.0 27.0 L 11.666666666666666 28.0 L 11.333333333333334 29.0 L 11.0 30.0 L 11.0 31.0 L 11.0 32.0 L 10.666666666666666 33.0 L 10.333333333333334 34.0 L 10.0 35.0 L 10.0 36.0 L 10.0 37.0 L 10.0 38.0 L 9.666666666666666 39.0 L 9.333333333333334 40.0 L 9.0 41.0 L 9.0 42.0 L 9.0 43.0 L 9.0 44.0 L 9.0 45.0 L 9.0 46.0 L 8.666666666666666 47.0 L 8.333333333333334 48.0 L 8.0 49.0 L 8.0 50.0 L 8.0 51.0 L 8.0 52.0 L 8.0 53.0 L 8.333333333333334 53.666666666666664 L 9.0 53.666666666666664 L 9.666666666666666 53.0 L 10.0 52.0 L 10.0 51.0 L 10.0 50.0 L 10.0 49.0 L 10.333333333333334 48.0 L 10.666666666666666 47.0 L 11.333333333333334 46.0 L 11.666666666666666 45.0 L 12.0 44.0 L 12.0 43.0 L 12.0 42.0 L 12.0 41.0 L 12.0 40.0 L 12.333333333333334 39.0 L 12.666666666666666 38.0 L 13.0 37.0 L 13.333333333333334 36.0 L 13.666666666666666 35.0 L 14.333333333333334 34.0 L 15.0 33.0 L 16.0 32.333333333333336 L 17.0 32.0 L 18.0 32.0 L 19.0 32.0 L 19.666666666666668 31.666666666666668 L 20.0 31.0 L 20.0 30.0 L 20.333333333333332 29.0 L 20.5 28.5 Z" stroke="none" fill="rgb(56,56,56)" />
<path d="M 23.5 32.0 L 24.0 32.0 L 25.0 32.0 L 26.0 32.333333333333336 L 27.0 32.666666666666664 L 28.0 32.666666666666664 L 28.666666666666668 32.0 L 29.0 31.0 L 29.0 30.0 L 28.666666666666668 29.0 L 28.0 28.333333333333332 L 27.0 28.0 L 26.0 28.0 L 25.0 28.0 L 24.0 28.0 L 23.0 28.0 L 22.0 28.0 L 21.0 28.0 L 20.333333333333332 28.333333333333332 L 20.0 29.0 L 20.0 30.0 L 20.0 31.0 L 20.333333333333332 31.666666666666668 L 21.0 32.0 L 22.0 32.0 L 22.5 32.0 Z" stroke="none" fill="rgb(118,255,3)" />
<path d="M 107.5 33.0 L 108.0 33.0 L 109.0 33.0 L 110.0 33.0 L 111.0 32.666666666666664 L 111.66666666666667 32.0 L 112.0 31.0 L 112.0 30.0 L 112.0 29.0 L 111.66666666666667 28.333333333333332 L 111.0 28.0 L 110.0 28.0 L 109.0 28.0 L 108.0 28.0 L 107.0 28.0 L 106.0 28.0 L 105.0 28.0 L 104.0 28.0 L 103.0 28.0 L 102.0 28.0 L 101.0 28.0 L 100.33333333333333 28.333333333333332 L 100.0 29.0 L 100.0 30.0 L 100.0 31.0 L 100.33333333333333 32.0 L 101.0 32.666666666666664 L 102.0 33.0 L 103.0 33.0 L 104.0 33.0 L 105.0 33.0 L 106.0 33.0 L 106.5 33.0 Z" stroke="none" fill="rgb(118,255,3)" />
<path d="M 23.5 40.0 L 24.0 40.0 L 25.0 40.0 L 26.0 40.0 L 27.0 40.0 L 27.666666666666668 39.666666666666664 L 28.0 39.0 L 28.0 38.0 L 28.0 37.0 L 28.0 36.0 L 28.0 35.0 L 28.0 34.0 L 27.666666666666668 33.0 L 27.0 32.333333333333336 L 26.0 32.0 L 25.0 32.0 L 24.0 32.0 L 23.0 32.0 L 22.0 32.0 L 21.0 32.0 L 20.0 32.0 L 19.0 32.0 L 18.0 32.0 L 17.0 32.0 L 16.0 32.0 L 15.0 32.333333333333336 L 14.333333333333334 33.0 L 13.666666666666666 34.0 L 13.333333333333334 35.0 L 13.0 36.0 L 12.666666666666666 37.0 L 12.333333333333334 38.0 L 12.0 39.0 L 12.333333333333334 39.666666666666664 L 13.0 40.0 L 14.0 40.0 L 15.0 40.0 L 16.0 40.0 L 17.0 40.0 L 18.0 40.0 L 19.0 40.0 L 20.0 40.0 L 21.0 40.0 L 22.0 40.0 L 22.5 40.0 Z" stroke="none" fill="rgb(47,47,47)" />
<path d="M 101.5 44.0 L 102.0 44.0 L 103.0 44.0 L 103.66666666666667 43.666666666666664 L 104.0 43.0 L 104.0 42.0 L 104.33333333333333 41.0 L 105.0 40.333333333333336 L 106.0 40.0 L 107.0 40.0 L 108.0 40.0 L 109.0 40.0 L 110.0 40.0 L 111.0 40.0 L 112.0 40.0 L 113.0 40.0 L 114.0 40.0 L 115.0 40.333333333333336 L 115.66666666666667 41.0 L 116.0 42.0 L 115.66666666666667 43.0 L 115.33333333333333 44.0 L 115.0 45.0 L 115.0 46.0 L 115.33333333333333 47.0 L 115.66666666666667 48.0 L 116.0 49.0 L 116.33333333333333 50.0 L 116.66666666666667 51.0 L 117.0 52.0 L 117.0 53.0 L 117.33333333333333 54.0 L 117.66666666666667 55.0 L 118.0 56.0 L 118.0 57.0 L 118.0 58.0 L 118.33333333333333 59.0 L 118.66666666666667 60.0 L 119.0 61.0 L 119.0 62.0 L 119.0 63.0 L 119.0 64.0 L 119.0 65.0 L 119.33333333333333 66.0 L 119.66666666666667 67.0 L 120.0 68.0 L 120.0 69.0 L 120.0 70.0 L 120.0 71.0 L 120.0 72.0 L 120.0 73.0 L 120.0 74.0 L 120.0 75.0 L 120.0 76.0 L 119.66666666666667 77.0 L 119.33333333333333 78.0 L 119.0 79.0 L 118.66666666666667 80.0 L 118.0 81.0 L 117.0 82.0 L 116.0 83.0 L 115.0 83.66666666666667 L 114.0 84.33333333333333 L 113.0 84.66666666666667 L 112.0 85.0 L 111.0 85.0 L 110.33333333333333 85.33333333333333 L 110.0 86.0 L 110.33333333333333 86.66666666666667 L 111.0 87.0 L 112.0 87.0 L 113.0 87.0 L 114.0 87.0 L 115.0 87.0 L 116.0 86.66666666666667 L 117.0 86.0 L 118.0 85.0 L 119.0 84.0 L 119.66666666666667 83.0 L 120.33333333333333 82.0 L 120.66666666666667 81.0 L 121.0 80.0 L 121.0 79.0 L 121.33333333333333 78.0 L 121.66666666666667 77.0 L 122.0 76.0 L 122.0 75.0 L 122.0 74.0 L 122.0 73.0 L 122.0 72.0 L 122.0 71.0 L 122.0 70.0 L 122.0 69.0 L 121.66666666666667 68.0 L 121.33333333333333 67.0 L 121.0 66.0 L 121.33333333333333 65.0 L 121.66666666666667 64.0 L 122.0 63.0 L 122.0 62.0 L 122.0 61.0 L 121.66666666666667 60.0 L 121.0 59.0 L 120.33333333333333 58.0 L 120.0 57.0 L 120.33333333333333 56.0 L 120.66666666666667 55.0 L 121.0 54.0 L 120.66666666666667 53.0 L 120.0 52.0 L 119.33333333333333 51.0 L 119.0 50.0 L 119.0 49.0 L 119.0 48.0 L 119.0 47.0 L 119.0 46.0 L 118.66666666666667 45.0 L 118.33333333333333 44.0 L 118.0 43.0 L 118.0 42.0 L 117.66666666666667 41.0 L 117.33333333333333 40.0 L 117.0 39.0 L 117.0 38.0 L 116.66666666666667 37.0 L 116.33333333333333 36.0 L 116.0 35.0 L 115.66666666666667 34.0 L 115.0 33.0 L 114.0 32.333333333333336 L 113.0 32.0 L 112.0 32.0 L 111.0 32.333333333333336 L 110.0 32.666666666666664 L 109.0 33.0 L 108.0 33.0 L 107.0 33.0 L 106.0 33.0 L 105.0 33.0 L 104.0 33.0 L 103.0 33.0 L 102.0 33.0 L 101.33333333333333 33.333333333333336 L 101.0 34.0 L 101.0 35.0 L 101.0 36.0 L 101.0 37.0 L 101.0 38.0 L 101.0 39.0 L 101.0 40.0 L 101.0 41.0 L 101.0 42.0 L 101.0 43.0 L 101.0 43.5 Z" stroke="none" fill="rgb(47,47,47)" />
<path d="M 59.5 74.0 L 60.0 74.0 L 61.0 74.0 L 62.0 74.0 L 63.0 74.0 L 64.0 74.0 L 65.0 74.0 L 66.0 74.0 L 67.0 74.0 L 68.0 74.0 L 69.0 74.0 L 70.0 74.0 L 71.0 74.0 L 72.0 74.0 L 73.0 74.0 L 74.0 74.0 L 75.0 74.0 L 76.0 74.0 L 77.0 74.0 L 78.0 74.0 L 79.0 74.0 L 80.0 74.0 L 81.0 74.0 L 82.0 74.0 L 83.0 74.0 L 84.0 74.0 L 85.0 74.0 L 86.0 74.0 L 87.0 74.0 L 88.0 74.0 L 89.0 74.0 L 90.0 74.0 L 91.0 74.0 L 92.0 74.0 L 93.0 74.0 L 94.0 74.0 L 95.0 74.0 L 95.66666666666667 73.66666666666667 L 96.0 73.0 L 96.0 72.0 L 96.0 71.0 L 96.33333333333333 70.0 L 96.66666666666667 69.0 L 97.0 68.0 L 97.0 67.0 L 97.0 66.0 L 97.0 65.0 L 97.0 64.0 L 97.0 63.0 L 96.66666666666667 62.0 L 96.0 61.0 L 95.33333333333333 60.0 L 95.0 59.0 L 95.0 58.0 L 95.0 57.0 L 95.0 56.0 L 94.66666666666667 55.0 L 94.33333333333333 54.0 L 93.66666666666667 53.0 L 93.33333333333333 52.0 L 93.0 51.0 L 93.0 50.0 L 93.0 49.0 L 92.66666666666667 48.0 L 92.33333333333333 47.0 L 92.0 46.0 L 91.66666666666667 45.0 L 91.33333333333333 44.0 L 91.0 43.0 L 91.0 42.0 L 90.66666666666667 41.0 L 90.33333333333333 40.0 L 89.66666666666667 39.0 L 89.0 38.0 L 88.0 37.0 L 87.0 36.333333333333336 L 86.0 36.0 L 85.0 36.0 L 84.0 36.0 L 83.0 36.0 L 82.0 36.0 L 81.0 36.333333333333336 L 80.0 36.666666666666664 L 79.0 37.0 L 78.0 37.0 L 77.0 37.0 L 76.0 37.0 L 75.0 37.0 L 74.0 37.0 L 73.0 37.0 L 72.0 37.0 L 71.0 37.0 L 70.0 37.0 L 69.0 37.0 L 68.0 37.0 L 67.0 37.0 L 66.0 37.0 L 65.0 37.0 L 64.0 37.0 L 63.0 37.0 L 62.0 37.0 L 61.0 37.0 L 60.0 37.0 L 59.0 37.0 L 58.0 37.0 L 57.0 37.0 L 56.0 37.0 L 55.0 37.0 L 54.0 37.0 L 53.0 36.666666666666664 L 52.0 36.333333333333336 L 51.0 36.0 L 50.0 36.0 L 49.0 36.0 L 48.0 36.0 L 47.0 36.0 L 46.0 36.0 L 45.0 36.0 L 44.0 36.0 L 43.0 36.0 L 42.0 36.0 L 41.0 36.333333333333336 L 40.0 37.0 L 39.0 38.0 L 38.333333333333336 39.0 L 37.666666666666664 40.0 L 37.333333333333336 41.0 L 37.0 42.0 L 37.0 43.0 L 36.666666666666664 44.0 L 36.333333333333336 45.0 L 36.0 46.0 L 36.0 47.0 L 35.666666666666664 48.0 L 35.333333333333336 49.0 L 35.0 50.0 L 35.0 51.0 L 34.666666666666664 52.0 L 34.0 53.0 L 33.333333333333336 54.0 L 33.0 55.0 L 33.0 56.0 L 33.0 57.0 L 33.0 58.0 L 33.0 59.0 L 33.0 60.0 L 32.666666666666664 61.0 L 32.0 62.0 L 31.333333333333332 63.0 L 31.0 64.0 L 31.0 65.0 L 31.0 66.0 L 31.0 67.0 L 31.333333333333332 68.0 L 31.666666666666668 69.0 L 32.0 70.0 L 32.0 71.0 L 32.0 72.0 L 32.333333333333336 73.0 L 33.0 73.66666666666667 L 34.0 74.0 L 35.0 74.0 L 36.0 74.0 L 37.0 74.0 L 38.0 74.0 L 39.0 74.0 L 40.0 74.0 L 41.0 74.0 L 42.0 74.0 L 43.0 74.0 L 44.0 74.0 L 45.0 74.0 L 46.0 74.0 L 47.0 74.0 L 48.0 74.0 L 49.0 74.0 L 50.0 74.0 L 51.0 74.0 L 52.0 74.0 L 53.0 74.0 L 54.0 74.0 L 55.0 74.0 L 56.0 74.0 L 57.0 74.0 L 58.0 74.0 L 58.5 74.0 Z" stroke="none" fill="rgb(255,202,40)" />
<path d="M 19.5 45.0 L 20.0 45.0 L 21.0 45.0 L 22.0 45.0 L 23.0 45.0 L 24.0 45.0 L 25.0 45.0 L 26.0 45.0 L 26.666666666666668 44.666666666666664 L 27.0 44.0 L 27.0 43.0 L 27.0 42.0 L 27.0 41.0 L 26.666666666666668 40.333333333333336 L 26.0 40.0 L 25.0 40.0 L 24.0 40.0 L 23.0 40.0 L 22.0 40.0 L 21.0 40.0 L 20.0 40.0 L 19.0 40.0 L 18.0 40.0 L 17.0 40.0 L 16.0 40.0 L 15.0 40.0 L 14.0 40.0 L 13.0 40.0 L 12.333333333333334 40.333333333333336 L 12.0 41.0 L 12.0 42.0 L 12.0 43.0 L 12.333333333333334 44.0 L 13.0 44.666666666666664 L 14.0 45.0 L 15.0 45.0 L 16.0 45.0 L 17.0 45.0 L 18.0 45.0 L 18.5 45.0 Z" stroke="none" fill="rgb(118,255,3)" />
<path d="M 27.5 46.0 L 27.666666666666668 45.666666666666664 L 28.333333333333332 45.0 L 28.666666666666668 44.0 L 29.0 43.0 L 29.0 42.0 L 29.0 41.0 L 28.666666666666668 40.333333333333336 L 28.0 40.0 L 27.333333333333332 40.333333333333336 L 27.0 41.0 L 27.0 42.0 L 27.0 43.0 L 27.0 44.0 L 27.0 45.0 L 27.0 45.5 Z" stroke="none" fill="rgb(107,75,63)" />
<path d="M 106.5 44.0 L 107.0 44.0 L 108.0 44.0 L 109.0 44.0 L 110.0 44.0 L 111.0 44.0 L 112.0 44.0 L 113.0 44.333333333333336 L 114.0 44.666666666666664 L 115.0 44.666666666666664 L 115.66666666666667 44.0 L 116.0 43.0 L 116.0 42.0 L 116.0 41.0 L 115.66666666666667 40.333333333333336 L 115.0 40.0 L 114.0 40.0 L 113.0 40.0 L 112.0 40.0 L 111.0 40.0 L 110.0 40.0 L 109.0 40.0 L 108.0 40.0 L 107.0 40.0 L 106.0 40.0 L 105.0 40.0 L 104.33333333333333 40.333333333333336 L 104.0 41.0 L 104.0 42.0 L 104.0 43.0 L 104.33333333333333 43.666666666666664 L 105.0 44.0 L 105.5 44.0 Z" stroke="none" fill="rgb(118,255,3)" />
<path d="M 7.5 49.0 L 8.0 48.666666666666664 L 8.666666666666666 48.0 L 9.0 47.0 L 9.0 46.0 L 9.0 45.0 L 9.0 44.0 L 8.666666666666666 43.333333333333336 L 8.0 43.0 L 7.333333333333333 43.333333333333336 L 7.0 44.0 L 7.0 45.0 L 7.0 46.0 L 7.0 47.0 L 7.0 48.0 L 7.0 48.5 Z" stroke="none" fill="rgb(65,65,65)" />
<path d="M 8.5 80.5 L 8.666666666666666 81.0 L 9.333333333333334 82.0 L 9.666666666666666 83.0 L 10.333333333333334 84.0 L 11.0 85.0 L 12.0 85.66666666666667 L 13.0 86.33333333333333 L 14.0 86.66666666666667 L 15.0 87.0 L 16.0 87.0 L 16.666666666666668 86.66666666666667 L 17.0 86.0 L 16.666666666666668 85.33333333333333 L 16.0 84.66666666666667 L 15.0 84.33333333333333 L 14.0 83.66666666666667 L 13.0 83.0 L 12.0 82.0 L 11.333333333333334 81.0 L 10.666666666666666 80.0 L 10.333333333333334 79.0 L 10.0 78.0 L 9.666666666666666 77.0 L 9.333333333333334 76.0 L 9.0 75.0 L 9.0 74.0 L 9.0 73.0 L 9.0 72.0 L 9.0 71.0 L 9.0 70.0 L 9.333333333333334 69.0 L 9.666666666666666 68.0 L 10.0 67.0 L 10.0 66.0 L 10.0 65.0 L 10.0 64.0 L 10.0 63.0 L 10.0 62.0 L 10.333333333333334 61.0 L 10.666666666666666 60.0 L 11.0 59.0 L 11.333333333333334 58.0 L 11.666666666666666 57.0 L 12.0 56.0 L 12.0 55.0 L 12.0 54.0 L 12.0 53.0 L 12.0 52.0 L 12.333333333333334 51.0 L 12.666666666666666 50.0 L 13.333333333333334 49.0 L 13.666666666666666 48.0 L 14.0 47.0 L 14.0 46.0 L 13.666666666666666 45.0 L 13.0 44.333333333333336 L 12.0 44.333333333333336 L 11.333333333333334 45.0 L 10.666666666666666 46.0 L 10.333333333333334 47.0 L 10.0 48.0 L 10.0 49.0 L 10.0 50.0 L 10.0 51.0 L 9.666666666666666 52.0 L 9.333333333333334 53.0 L 9.0 54.0 L 9.0 55.0 L 9.0 56.0 L 9.0 57.0 L 9.0 58.0 L 9.0 59.0 L 8.666666666666666 60.0 L 8.333333333333334 61.0 L 8.0 62.0 L 8.0 63.0 L 8.0 64.0 L 8.0 65.0 L 8.0 66.0 L 8.0 67.0 L 8.0 68.0 L 7.666666666666667 69.0 L 7.333333333333333 70.0 L 7.0 71.0 L 7.0 72.0 L 7.0 73.0 L 7.0 74.0 L 7.333333333333333 75.0 L 7.666666666666667 76.0 L 8.0 77.0 L 8.0 78.0 L 8.0 79.0 L 8.0 79.5 Z" stroke="none" fill="rgb(47,47,47)" />
<path d="M 105.5 52.0 L 106.0 52.0 L 107.0 52.0 L 108.0 52.0 L 109.0 52.333333333333336 L 109.66666666666667 53.0 L 110.0 54.0 L 110.0 55.0 L 110.0 56.0 L 110.33333333333333 56.666666666666664 L 111.0 57.0 L 112.0 57.333333333333336 L 113.0 58.0 L 113.66666666666667 59.0 L 114.33333333333333 60.0 L 114.66666666666667 61.0 L 115.33333333333333 62.0 L 115.66666666666667 63.0 L 116.0 64.0 L 116.0 65.0 L 116.0 66.0 L 116.0 67.0 L 116.33333333333333 68.0 L 116.66666666666667 69.0 L 117.33333333333333 70.0 L 117.66666666666667 71.0 L 118.0 72.0 L 118.0 73.0 L 118.0 74.0 L 117.66666666666667 75.0 L 117.33333333333333 76.0 L 116.66666666666667 77.0 L 116.33333333333333 78.0 L 115.66666666666667 79.0 L 115.0 80.0 L 114.0 80.66666666666667 L 113.0 81.0 L 112.0 81.0 L 111.0 81.0 L 110.33333333333333 81.33333333333333 L 110.0 82.0 L 110.0 83.0 L 110.0 84.0 L 110.33333333333333 84.66666666666667 L 111.0 85.0 L 112.0 85.0 L 113.0 85.0 L 114.0 84.66666666666667 L 115.0 84.33333333333333 L 116.0 83.66666666666667 L 117.0 83.0 L 118.0 82.0 L 118.66666666666667 81.0 L 119.0 80.0 L 119.33333333333333 79.0 L 119.66666666666667 78.0 L 120.0 77.0 L 120.0 76.0 L 120.0 75.0 L 120.0 74.0 L 120.0 73.0 L 120.0 72.0 L 120.0 71.0 L 120.0 70.0 L 120.0 69.0 L 120.0 68.0 L 120.0 67.0 L 119.66666666666667 66.0 L 119.33333333333333 65.0 L 119.0 64.0 L 119.0 63.0 L 119.0 62.0 L 119.0 61.0 L 119.0 60.0 L 118.66666666666667 59.0 L 118.33333333333333 58.0 L 118.0 57.0 L 118.0 56.0 L 118.0 55.0 L 117.66666666666667 54.0 L 117.33333333333333 53.0 L 117.0 52.0 L 117.0 51.0 L 116.66666666666667 50.0 L 116.33333333333333 49.0 L 116.0 48.0 L 115.66666666666667 47.0 L 115.33333333333333 46.0 L 114.66666666666667 45.0 L 114.0 44.333333333333336 L 113.0 44.0 L 112.0 44.0 L 111.0 44.0 L 110.0 44.0 L 109.0 44.0 L 108.0 44.0 L 107.0 44.0 L 106.0 44.0 L 105.0 44.0 L 104.0 44.0 L 103.0 44.0 L 102.0 44.0 L 101.33333333333333 44.333333333333336 L 101.0 45.0 L 101.0 46.0 L 101.0 47.0 L 101.0 48.0 L 101.0 49.0 L 101.0 50.0 L 101.0 51.0 L 101.33333333333333 51.666666666666664 L 102.0 52.0 L 103.0 52.0 L 104.0 52.0 L 104.5 52.0 Z" stroke="none" fill="rgb(36,36,36)" />
<path d="M 23.5 57.0 L 24.0 57.0 L 25.0 57.333333333333336 L 26.0 57.666666666666664 L 27.0 58.0 L 27.666666666666668 57.666666666666664 L 28.0 57.0 L 28.0 56.0 L 28.0 55.0 L 28.0 54.0 L 28.0 53.0 L 28.0 52.0 L 28.0 51.0 L 28.0 50.0 L 28.0 49.0 L 28.0 48.0 L 28.0 47.0 L 27.666666666666668 46.0 L 27.0 45.333333333333336 L 26.0 45.0 L 25.0 45.0 L 24.0 45.0 L 23.0 45.0 L 22.0 45.0 L 21.0 45.0 L 20.0 45.0 L 19.0 45.0 L 18.0 45.0 L 17.0 45.0 L 16.0 45.0 L 15.0 45.0 L 14.333333333333334 45.333333333333336 L 14.0 46.0 L 13.666666666666666 47.0 L 13.333333333333334 48.0 L 12.666666666666666 49.0 L 12.333333333333334 50.0 L 12.0 51.0 L 12.333333333333334 51.666666666666664 L 13.0 52.0 L 14.0 52.0 L 15.0 52.0 L 16.0 52.0 L 17.0 52.0 L 18.0 52.0 L 19.0 52.333333333333336 L 19.666666666666668 53.0 L 20.0 54.0 L 20.0 55.0 L 20.0 56.0 L 20.333333333333332 56.666666666666664 L 21.0 57.0 L 22.0 57.0 L 22.5 57.0 Z" stroke="none" fill="rgb(36,36,36)" />
<path d="M 5.5 84.5 L 5.666666666666667 85.0 L 6.333333333333333 86.0 L 6.666666666666667 87.0 L 7.0 88.0 L 7.333333333333333 88.66666666666667 L 8.0 89.0 L 9.0 89.0 L 9.666666666666666 88.66666666666667 L 9.666666666666666 88.0 L 9.0 87.0 L 8.666666666666666 86.0 L 8.666666666666666 85.0 L 8.666666666666666 84.0 L 8.0 83.0 L 7.333333333333333 82.0 L 7.0 81.0 L 6.666666666666667 80.0 L 6.333333333333333 79.0 L 6.0 78.0 L 6.0 77.0 L 6.0 76.0 L 6.0 75.0 L 6.0 74.0 L 6.0 73.0 L 6.0 72.0 L 6.0 71.0 L 6.0 70.0 L 5.666666666666667 69.0 L 5.333333333333333 68.0 L 5.0 67.0 L 5.333333333333333 66.0 L 6.0 65.33333333333333 L 6.666666666666667 64.66666666666667 L 7.0 64.0 L 7.0 63.0 L 7.0 62.0 L 7.0 61.0 L 7.0 60.0 L 7.0 59.0 L 7.0 58.0 L 6.666666666666667 57.0 L 6.333333333333333 56.0 L 6.0 55.0 L 6.333333333333333 54.0 L 7.0 53.333333333333336 L 7.666666666666667 52.666666666666664 L 8.0 52.0 L 8.0 51.0 L 8.0 50.0 L 7.666666666666667 49.0 L 7.333333333333333 48.0 L 6.666666666666667 47.333333333333336 L 6.0 47.0 L 5.333333333333333 47.333333333333336 L 5.0 48.0 L 5.0 49.0 L 4.666666666666667 50.0 L 4.333333333333333 51.0 L 4.0 52.0 L 4.0 53.0 L 4.0 54.0 L 4.0 55.0 L 4.0 56.0 L 4.0 57.0 L 4.0 58.0 L 4.0 59.0 L 4.0 60.0 L 4.0 61.0 L 4.0 62.0 L 4.0 63.0 L 4.0 64.0 L 4.0 65.0 L 4.0 66.0 L 4.0 67.0 L 4.0 68.0 L 4.0 69.0 L 4.0 70.0 L 4.0 71.0 L 4.0 72.0 L 4.0 73.0 L 4.0 74.0 L 4.0 75.0 L 4.0 76.0 L 4.0 77.0 L 4.0 78.0 L 4.0 79.0 L 4.0 80.0 L 4.0 81.0 L 4.0 82.0 L 4.0 83.0 L 4.333333333333333 83.66666666666667 L 4.5 84.0 Z" stroke="none" fill="rgb(75,75,75)" />
<path d="M 40.5 53.0 L 41.0 53.0 L 42.0 53.0 L 43.0 53.0 L 44.0 53.0 L 45.0 52.666666666666664 L 46.0 52.666666666666664 L 47.0 52.666666666666664 L 48.0 53.333333333333336 L 49.0 53.666666666666664 L 50.0 54.0 L 51.0 53.666666666666664 L 52.0 53.333333333333336 L 53.0 53.0 L 54.0 53.0 L 54.666666666666664 52.666666666666664 L 55.0 52.0 L 55.0 51.0 L 54.666666666666664 50.0 L 54.0 49.0 L 53.0 48.333333333333336 L 52.0 47.666666666666664 L 51.0 47.333333333333336 L 50.0 47.0 L 49.0 47.0 L 48.0 47.0 L 47.0 47.0 L 46.0 47.333333333333336 L 45.0 47.666666666666664 L 44.0 48.0 L 43.0 48.333333333333336 L 42.0 48.666666666666664 L 41.0 49.333333333333336 L 40.333333333333336 50.0 L 40.0 51.0 L 40.0 52.0 L 40.0 52.5 Z" stroke="none" fill="rgb(107,75,63)" />
<path d="M 87.5 53.0 L 87.66666666666667 52.666666666666664 L 88.0 52.0 L 88.0 51.0 L 87.66666666666667 50.0 L 87.0 49.333333333333336 L 86.0 48.666666666666664 L 85.0 48.0 L 84.0 47.333333333333336 L 83.0 47.0 L 82.0 47.0 L 81.0 47.0 L 80.0 47.0 L 79.0 47.333333333333336 L 78.0 47.666666666666664 L 77.0 48.0 L 76.0 48.333333333333336 L 75.0 48.666666666666664 L 74.0 49.333333333333336 L 73.33333333333333 50.0 L 73.0 51.0 L 73.0 52.0 L 73.33333333333333 52.666666666666664 L 74.0 53.0 L 75.0 53.0 L 76.0 53.0 L 77.0 53.0 L 78.0 52.666666666666664 L 79.0 52.666666666666664 L 80.0 53.0 L 81.0 53.666666666666664 L 82.0 54.0 L 83.0 54.0 L 84.0 53.666666666666664 L 85.0 53.333333333333336 L 86.0 53.0 L 86.5 53.0 Z" stroke="none" fill="rgb(107,75,63)" />
<path d="M 124.0 64.5 L 124.0 64.0 L 124.0 63.0 L 124.0 62.0 L 124.0 61.0 L 124.0 60.0 L 124.0 59.0 L 124.0 58.0 L 124.0 57.0 L 124.0 56.0 L 124.0 55.0 L 124.0 54.0 L 124.0 53.0 L 124.0 52.0 L 123.66666666666667 51.0 L 123.0 50.333333333333336 L 122.0 50.0 L 121.33333333333333 50.333333333333336 L 121.0 51.0 L 121.0 52.0 L 121.0 53.0 L 121.0 54.0 L 121.33333333333333 55.0 L 121.66666666666667 56.0 L 122.0 57.0 L 122.0 58.0 L 122.0 59.0 L 122.0 60.0 L 122.0 61.0 L 122.0 62.0 L 122.0 63.0 L 122.33333333333333 64.0 L 123.0 64.66666666666667 L 123.5 65.0 Z" stroke="none" fill="rgb(65,65,65)" />
<path d="M 16.5 57.0 L 17.0 57.0 L 18.0 57.0 L 19.0 57.0 L 19.666666666666668 56.666666666666664 L 20.0 56.0 L 20.0 55.0 L 20.0 54.0 L 20.0 53.0 L 19.666666666666668 52.333333333333336 L 19.0 52.0 L 18.0 52.0 L 17.0 52.0 L 16.0 52.0 L 15.0 52.0 L 14.0 52.0 L 13.0 52.0 L 12.333333333333334 52.333333333333336 L 12.0 53.0 L 12.0 54.0 L 12.0 55.0 L 12.333333333333334 55.666666666666664 L 13.0 56.0 L 14.0 56.333333333333336 L 15.0 56.666666666666664 L 15.5 57.0 Z" stroke="none" fill="rgb(118,255,3)" />
<path d="M 104.5 57.0 L 105.0 57.0 L 106.0 57.0 L 107.0 57.0 L 108.0 57.0 L 109.0 57.0 L 109.66666666666667 56.666666666666664 L 110.0 56.0 L 110.0 55.0 L 110.0 54.0 L 110.0 53.0 L 109.66666666666667 52.333333333333336 L 109.0 52.0 L 108.0 52.0 L 107.0 52.0 L 106.0 52.0 L 105.0 52.0 L 104.0 52.0 L 103.0 52.0 L 102.0 52.0 L 101.33333333333333 52.333333333333336 L 101.0 53.0 L 101.0 54.0 L 101.0 55.0 L 101.33333333333333 56.0 L 102.0 56.666666666666664 L 103.0 57.0 L 103.5 57.0 Z" stroke="none" fill="rgb(118,255,3)" />
<path d="M 7.5 56.5 L 8.0 56.333333333333336 L 8.666666666666666 55.666666666666664 L 9.0 55.0 L 8.666666666666666 54.0 L 8.0 53.333333333333336 L 7.0 53.0 L 6.333333333333333 53.333333333333336 L 6.0 54.0 L 6.0 55.0 L 6.0 56.0 L 6.333333333333333 56.666666666666664 L 6.5 57.0 Z" stroke="none" fill="rgb(65,65,65)" />
<path d="M 52.0 61.5 L 52.0 61.0 L 52.0 60.0 L 52.0 59.0 L 52.0 58.0 L 52.0 57.0 L 52.0 56.0 L 51.666666666666664 55.0 L 51.0 54.333333333333336 L 50.0 53.666666666666664 L 49.0 53.333333333333336 L 48.0 53.0 L 47.0 53.333333333333336 L 46.0 54.0 L 45.0 54.666666666666664 L 44.0 55.333333333333336 L 43.333333333333336 56.0 L 43.0 57.0 L 43.0 58.0 L 43.0 59.0 L 43.0 60.0 L 43.333333333333336 61.0 L 44.0 62.0 L 45.0 63.0 L 46.0 63.666666666666664 L 47.0 64.0 L 48.0 64.0 L 49.0 64.0 L 50.0 63.666666666666664 L 51.0 63.0 L 51.5 62.5 Z" stroke="none" fill="rgb(65,65,65)" />
<path d="M 81.5 64.0 L 82.0 64.0 L 83.0 63.666666666666664 L 84.0 63.0 L 84.66666666666667 62.0 L 85.0 61.0 L 85.0 60.0 L 85.0 59.0 L 85.0 58.0 L 85.0 57.0 L 84.66666666666667 56.0 L 84.33333333333333 55.0 L 83.66666666666667 54.333333333333336 L 83.0 54.0 L 82.0 53.666666666666664 L 81.0 53.333333333333336 L 80.0 53.333333333333336 L 79.0 53.666666666666664 L 78.0 54.333333333333336 L 77.0 55.0 L 76.33333333333333 56.0 L 76.0 57.0 L 76.0 58.0 L 76.0 59.0 L 76.0 60.0 L 76.33333333333333 61.0 L 77.0 62.0 L 78.0 63.0 L 79.0 63.666666666666664 L 80.0 64.0 L 80.5 64.0 Z" stroke="none" fill="rgb(65,65,65)" />
<path d="M 120.5 59.5 L 121.0 59.666666666666664 L 121.66666666666667 59.666666666666664 L 122.0 59.0 L 122.0 58.0 L 122.0 57.0 L 122.0 56.0 L 121.66666666666667 55.333333333333336 L 121.0 55.0 L 120.33333333333333 55.333333333333336 L 120.0 56.0 L 120.0 57.0 L 120.0 58.0 L 120.0 58.5 Z" stroke="none" fill="rgb(56,56,56)" />
<path d="M 8.0 65.5 L 8.0 65.0 L 8.0 64.0 L 8.0 63.0 L 8.333333333333334 62.0 L 8.666666666666666 61.0 L 9.0 60.0 L 9.0 59.0 L 9.0 58.0 L 9.0 57.0 L 8.666666666666666 56.333333333333336 L 8.0 56.0 L 7.333333333333333 56.333333333333336 L 7.0 57.0 L 7.0 58.0 L 7.0 59.0 L 7.0 60.0 L 7.0 61.0 L 7.0 62.0 L 7.0 63.0 L 7.0 64.0 L 7.0 65.0 L 7.333333333333333 65.66666666666667 L 7.5 66.0 Z" stroke="none" fill="rgb(56,56,56)" />
<path d="M 14.5 84.5 L 15.0 84.66666666666667 L 16.0 85.0 L 16.666666666666668 84.66666666666667 L 17.0 84.0 L 17.0 83.0 L 17.0 82.0 L 16.666666666666668 81.33333333333333 L 16.0 80.66666666666667 L 15.0 80.33333333333333 L 14.0 79.66666666666667 L 13.333333333333334 79.0 L 12.666666666666666 78.0 L 12.333333333333334 77.0 L 12.0 76.0 L 11.666666666666666 75.0 L 11.333333333333334 74.0 L 11.0 73.0 L 11.333333333333334 72.0 L 11.666666666666666 71.0 L 12.333333333333334 70.0 L 12.666666666666666 69.0 L 12.666666666666666 68.0 L 12.333333333333334 67.0 L 12.0 66.0 L 12.333333333333334 65.0 L 13.0 64.33333333333333 L 13.666666666666666 63.666666666666664 L 14.0 63.0 L 14.0 62.0 L 14.333333333333334 61.0 L 14.666666666666666 60.0 L 15.333333333333334 59.0 L 15.666666666666666 58.0 L 15.666666666666666 57.0 L 15.0 56.333333333333336 L 14.0 56.0 L 13.0 56.0 L 12.0 56.333333333333336 L 11.333333333333334 57.0 L 11.0 58.0 L 10.666666666666666 59.0 L 10.333333333333334 60.0 L 10.0 61.0 L 10.0 62.0 L 10.0 63.0 L 10.0 64.0 L 10.0 65.0 L 10.0 66.0 L 9.666666666666666 67.0 L 9.333333333333334 68.0 L 9.0 69.0 L 9.0 70.0 L 9.0 71.0 L 9.0 72.0 L 9.0 73.0 L 9.0 74.0 L 9.0 75.0 L 9.0 76.0 L 9.333333333333334 77.0 L 9.666666666666666 78.0 L 10.0 79.0 L 10.333333333333334 80.0 L 10.666666666666666 81.0 L 11.333333333333334 82.0 L 12.0 83.0 L 13.0 83.66666666666667 L 13.5 84.0 Z" stroke="none" fill="rgb(36,36,36)" />
<path d="M 17.5 64.0 L 18.0 64.0 L 19.0 64.0 L 20.0 64.0 L 21.0 64.0 L 22.0 64.0 L 23.0 64.0 L 24.0 64.0 L 25.0 64.0 L 25.666666666666668 63.666666666666664 L 26.0 63.0 L 26.0 62.0 L 26.0 61.0 L 26.333333333333332 60.0 L 26.666666666666668 59.0 L 26.666666666666668 58.0 L 26.0 57.333333333333336 L 25.0 57.0 L 24.0 57.0 L 23.0 57.0 L 22.0 57.0 L 21.0 57.0 L 20.0 57.0 L 19.0 57.0 L 18.0 57.0 L 17.0 57.0 L 16.0 57.333333333333336 L 15.333333333333334 58.0 L 14.666666666666666 59.0 L 14.333333333333334 60.0 L 14.0 61.0 L 14.0 62.0 L 14.0 63.0 L 14.333333333333334 63.666666666666664 L 15.0 64.0 L 16.0 64.0 L 16.5 64.0 Z" stroke="none" fill="rgb(23,23,23)" />
<path d="M 30.0 59.5 L 30.0 59.0 L 29.666666666666668 58.0 L 29.0 57.333333333333336 L 28.333333333333332 57.333333333333336 L 28.0 58.0 L 28.333333333333332 59.0 L 29.0 59.666666666666664 L 29.5 60.0 Z" stroke="none" fill="rgb(107,75,63)" />
<path d="M 108.5 64.0 L 109.0 64.0 L 110.0 64.0 L 111.0 64.0 L 112.0 64.0 L 113.0 64.0 L 114.0 64.0 L 115.0 64.0 L 115.66666666666667 63.666666666666664 L 116.0 63.0 L 115.66666666666667 62.0 L 115.33333333333333 61.0 L 114.66666666666667 60.0 L 114.33333333333333 59.0 L 113.66666666666667 58.0 L 113.0 57.333333333333336 L 112.0 57.0 L 111.0 57.0 L 110.0 57.0 L 109.0 57.0 L 108.0 57.0 L 107.0 57.0 L 106.0 57.0 L 105.0 57.0 L 104.0 57.0 L 103.0 57.0 L 102.0 57.333333333333336 L 101.33333333333333 58.0 L 101.33333333333333 59.0 L 101.66666666666667 60.0 L 102.0 61.0 L 102.0 62.0 L 102.0 63.0 L 102.33333333333333 63.666666666666664 L 103.0 64.0 L 104.0 64.0 L 105.0 64.0 L 106.0 64.0 L 107.0 64.0 L 107.5 64.0 Z" stroke="none" fill="rgb(23,23,23)" />
<path d="M 31.5 72.0 L 31.666666666666668 71.66666666666667 L 32.0 71.0 L 32.0 70.0 L 32.0 69.0 L 31.666666666666668 68.0 L 31.333333333333332 67.0 L 31.0 66.0 L 31.0 65.0 L 31.0 64.0 L 31.0 63.0 L 30.666666666666668 62.0 L 30.333333333333332 61.0 L 29.666666666666668 60.0 L 29.0 59.0 L 28.0 58.333333333333336 L 27.0 58.333333333333336 L 26.333333333333332 59.0 L 26.0 60.0 L 26.0 61.0 L 26.0 62.0 L 26.0 63.0 L 26.0 64.0 L 26.0 65.0 L 26.333333333333332 66.0 L 26.666666666666668 67.0 L 27.0 68.0 L 27.333333333333332 69.0 L 28.0 70.0 L 29.0 71.0 L 30.0 71.66666666666667 L 30.5 72.0 Z" stroke="none" fill="rgb(231,157,1)" />
<path d="M 98.5 71.5 L 99.0 71.0 L 100.0 70.0 L 100.66666666666667 69.0 L 101.0 68.0 L 101.33333333333333 67.0 L 101.66666666666667 66.0 L 102.0 65.0 L 102.0 64.0 L 102.0 63.0 L 102.0 62.0 L 102.0 61.0 L 102.0 60.0 L 101.66666666666667 59.0 L 101.0 58.333333333333336 L 100.0 58.333333333333336 L 99.33333333333333 59.0 L 98.66666666666667 60.0 L 98.0 61.0 L 97.33333333333333 62.0 L 97.0 63.0 L 97.0 64.0 L 97.0 65.0 L 97.0 66.0 L 97.0 67.0 L 96.66666666666667 68.0 L 96.33333333333333 69.0 L 96.0 70.0 L 96.0 71.0 L 96.33333333333333 71.66666666666667 L 97.0 72.0 L 97.5 72.0 Z" stroke="none" fill="rgb(231,157,1)" />
<path d="M 14.5 69.0 L 15.0 69.0 L 16.0 69.0 L 17.0 69.0 L 18.0 69.0 L 19.0 69.0 L 20.0 69.0 L 21.0 69.0 L 22.0 69.0 L 23.0 69.0 L 24.0 69.0 L 25.0 69.0 L 26.0 69.0 L 26.666666666666668 68.66666666666667 L 27.0 68.0 L 27.0 67.0 L 26.666666666666668 66.0 L 26.333333333333332 65.0 L 25.666666666666668 64.33333333333333 L 25.0 64.0 L 24.0 64.0 L 23.0 64.0 L 22.0 64.0 L 21.0 64.0 L 20.0 64.0 L 19.0 64.0 L 18.0 64.0 L 17.0 64.0 L 16.0 64.0 L 15.0 64.0 L 14.0 64.0 L 13.0 64.0 L 12.333333333333334 64.33333333333333 L 12.0 65.0 L 12.0 66.0 L 12.0 67.0 L 12.333333333333334 68.0 L 13.0 68.66666666666667 L 13.5 69.0 Z" stroke="none" fill="rgb(118,255,3)" />
<path d="M 103.5 68.0 L 104.0 68.0 L 105.0 68.0 L 106.0 68.0 L 107.0 68.0 L 108.0 68.0 L 109.0 68.0 L 110.0 68.0 L 111.0 68.0 L 112.0 68.0 L 113.0 68.0 L 114.0 68.0 L 115.0 68.0 L 115.66666666666667 67.66666666666667 L 116.0 67.0 L 116.0 66.0 L 116.0 65.0 L 115.66666666666667 64.33333333333333 L 115.0 64.0 L 114.0 64.0 L 113.0 64.0 L 112.0 64.0 L 111.0 64.0 L 110.0 64.0 L 109.0 64.0 L 108.0 64.0 L 107.0 64.0 L 106.0 64.0 L 105.0 64.0 L 104.0 64.0 L 103.0 64.0 L 102.33333333333333 64.33333333333333 L 101.66666666666667 65.0 L 101.33333333333333 66.0 L 101.0 67.0 L 101.33333333333333 67.66666666666667 L 102.0 68.0 L 102.5 68.0 Z" stroke="none" fill="rgb(118,255,3)" />
<path d="M 124.0 82.5 L 124.0 82.0 L 124.0 81.0 L 124.0 80.0 L 124.0 79.0 L 124.0 78.0 L 124.0 77.0 L 124.0 76.0 L 124.0 75.0 L 124.0 74.0 L 124.0 73.0 L 124.0 72.0 L 124.0 71.0 L 124.0 70.0 L 124.0 69.0 L 124.0 68.0 L 124.0 67.0 L 124.0 66.0 L 123.66666666666667 65.0 L 123.0 64.33333333333333 L 122.0 64.0 L 121.33333333333333 64.33333333333333 L 121.0 65.0 L 121.0 66.0 L 121.0 67.0 L 121.33333333333333 68.0 L 121.66666666666667 69.0 L 122.0 70.0 L 122.0 71.0 L 122.0 72.0 L 122.0 73.0 L 122.0 74.0 L 122.0 75.0 L 121.66666666666667 76.0 L 121.33333333333333 77.0 L 121.0 78.0 L 121.0 79.0 L 120.66666666666667 80.0 L 120.33333333333333 81.0 L 119.66666666666667 82.0 L 119.0 83.0 L 118.0 84.0 L 117.0 85.0 L 116.0 86.0 L 115.0 86.66666666666667 L 114.0 87.0 L 113.0 87.0 L 112.0 87.0 L 111.0 87.0 L 110.33333333333333 87.33333333333333 L 110.0 88.0 L 110.33333333333333 88.66666666666667 L 111.0 89.0 L 112.0 89.0 L 113.0 89.0 L 114.0 89.0 L 115.0 89.0 L 116.0 89.0 L 117.0 89.0 L 117.66666666666667 88.66666666666667 L 118.33333333333333 88.0 L 119.0 87.0 L 120.0 86.33333333333333 L 120.66666666666667 85.66666666666667 L 121.33333333333333 85.0 L 122.0 84.0 L 123.0 83.33333333333333 L 123.5 83.0 Z" stroke="none" fill="rgb(56,56,56)" />
<path d="M 5.5 69.0 L 6.0 68.66666666666667 L 7.0 68.33333333333333 L 7.666666666666667 67.66666666666667 L 8.0 67.0 L 7.666666666666667 66.0 L 7.0 65.33333333333333 L 6.0 65.0 L 5.333333333333333 65.33333333333333 L 5.0 66.0 L 5.0 67.0 L 5.0 68.0 L 5.0 68.5 Z" stroke="none" fill="rgb(65,65,65)" />
<path d="M 16.5 89.0 L 16.666666666666668 88.66666666666667 L 17.0 88.0 L 16.666666666666668 87.33333333333333 L 16.0 87.0 L 15.0 86.66666666666667 L 14.0 86.33333333333333 L 13.0 85.66666666666667 L 12.0 85.0 L 11.0 84.0 L 10.333333333333334 83.0 L 9.666666666666666 82.0 L 9.333333333333334 81.0 L 8.666666666666666 80.0 L 8.333333333333334 79.0 L 8.0 78.0 L 8.0 77.0 L 8.0 76.0 L 7.666666666666667 75.0 L 7.333333333333333 74.0 L 7.0 73.0 L 7.0 72.0 L 7.333333333333333 71.0 L 7.666666666666667 70.0 L 8.0 69.0 L 7.666666666666667 68.33333333333333 L 7.0 68.0 L 6.333333333333333 68.33333333333333 L 6.0 69.0 L 6.0 70.0 L 6.0 71.0 L 6.0 72.0 L 6.0 73.0 L 6.0 74.0 L 6.0 75.0 L 6.0 76.0 L 6.0 77.0 L 6.0 78.0 L 6.0 79.0 L 6.333333333333333 80.0 L 6.666666666666667 81.0 L 7.0 82.0 L 7.333333333333333 83.0 L 8.0 84.0 L 9.0 85.0 L 9.666666666666666 86.0 L 10.333333333333334 86.66666666666667 L 11.0 87.33333333333333 L 12.0 88.0 L 13.0 88.66666666666667 L 14.0 89.0 L 15.0 89.0 L 15.5 89.0 Z" stroke="none" fill="rgb(56,56,56)" />
<path d="M 61.5 72.0 L 62.0 72.0 L 63.0 72.0 L 64.0 72.0 L 65.0 72.0 L 66.0 72.0 L 67.0 71.66666666666667 L 68.0 71.0 L 68.66666666666667 70.0 L 68.66666666666667 69.0 L 68.0 68.33333333333333 L 67.0 68.0 L 66.0 68.0 L 65.0 68.0 L 64.0 68.0 L 63.0 68.0 L 62.0 68.0 L 61.0 68.0 L 60.0 68.33333333333333 L 59.333333333333336 69.0 L 59.333333333333336 70.0 L 60.0 71.0 L 60.5 71.5 Z" stroke="none" fill="rgb(231,157,1)" />
<path d="M 110.5 81.0 L 111.0 81.0 L 112.0 81.0 L 113.0 81.0 L 114.0 81.0 L 115.0 80.66666666666667 L 115.66666666666667 80.0 L 116.33333333333333 79.0 L 116.66666666666667 78.0 L 117.33333333333333 77.0 L 117.66666666666667 76.0 L 118.0 75.0 L 118.0 74.0 L 118.0 73.0 L 118.0 72.0 L 118.0 71.0 L 117.66666666666667 70.0 L 117.33333333333333 69.0 L 116.66666666666667 68.33333333333333 L 116.0 68.0 L 115.0 68.0 L 114.0 68.0 L 113.0 68.0 L 112.0 68.0 L 111.0 68.0 L 110.0 68.0 L 109.0 68.0 L 108.0 68.0 L 107.0 68.0 L 106.0 68.0 L 105.0 68.0 L 104.0 68.0 L 103.0 68.0 L 102.0 68.0 L 101.0 68.33333333333333 L 100.0 69.0 L 99.0 70.0 L 98.0 71.0 L 97.0 71.66666666666667 L 96.33333333333333 72.33333333333333 L 96.0 73.0 L 96.33333333333333 73.66666666666667 L 97.0 74.0 L 98.0 74.0 L 99.0 74.0 L 100.0 74.0 L 101.0 74.0 L 102.0 74.0 L 103.0 74.0 L 104.0 74.33333333333333 L 105.0 74.66666666666667 L 106.0 75.33333333333333 L 107.0 76.0 L 108.0 77.0 L 109.0 78.0 L 109.66666666666667 79.0 L 110.0 80.0 L 110.0 80.5 Z" stroke="none" fill="rgb(23,23,23)" />
<path d="M 18.0 80.5 L 18.333333333333332 80.0 L 18.666666666666668 79.0 L 19.333333333333332 78.0 L 20.0 77.0 L 21.0 76.33333333333333 L 22.0 75.66666666666667 L 23.0 75.33333333333333 L 24.0 75.0 L 25.0 75.0 L 26.0 75.0 L 27.0 75.0 L 28.0 75.0 L 29.0 75.0 L 30.0 75.0 L 31.0 75.0 L 32.0 75.0 L 32.666666666666664 74.66666666666667 L 33.0 74.0 L 32.666666666666664 73.0 L 32.0 72.33333333333333 L 31.0 71.66666666666667 L 30.0 71.0 L 29.0 70.0 L 28.0 69.33333333333333 L 27.0 69.0 L 26.0 69.0 L 25.0 69.0 L 24.0 69.0 L 23.0 69.0 L 22.0 69.0 L 21.0 69.0 L 20.0 69.0 L 19.0 69.0 L 18.0 69.0 L 17.0 69.0 L 16.0 69.0 L 15.0 69.0 L 14.0 69.0 L 13.0 69.0 L 12.333333333333334 69.33333333333333 L 11.666666666666666 70.0 L 11.333333333333334 71.0 L 11.0 72.0 L 11.0 73.0 L 11.0 74.0 L 11.333333333333334 75.0 L 11.666666666666666 76.0 L 12.0 77.0 L 12.333333333333334 78.0 L 12.666666666666666 79.0 L 13.333333333333334 79.66666666666667 L 14.0 80.33333333333333 L 15.0 80.66666666666667 L 16.0 81.0 L 17.0 81.0 L 17.5 81.0 Z" stroke="none" fill="rgb(23,23,23)" />
<path d="M 72.5 89.0 L 73.0 89.0 L 74.0 89.0 L 75.0 89.0 L 76.0 89.0 L 77.0 89.0 L 78.0 89.0 L 79.0 89.0 L 80.0 89.0 L 81.0 89.0 L 82.0 89.0 L 83.0 89.0 L 84.0 89.0 L 85.0 89.0 L 86.0 89.0 L 87.0 89.0 L 88.0 89.0 L 89.0 89.0 L 90.0 89.0 L 91.0 89.0 L 92.0 89.0 L 93.0 89.0 L 94.0 89.0 L 95.0 89.0 L 96.0 89.0 L 97.0 89.0 L 98.0 89.0 L 99.0 89.0 L 100.0 89.0 L 101.0 89.0 L 102.0 89.0 L 103.0 89.0 L 104.0 89.0 L 105.0 89.0 L 106.0 89.0 L 107.0 89.0 L 108.0 89.0 L 109.0 89.0 L 109.66666666666667 88.66666666666667 L 110.0 88.0 L 110.0 87.0 L 110.0 86.0 L 110.0 85.0 L 110.0 84.0 L 110.0 83.0 L 110.0 82.0 L 110.0 81.0 L 110.0 80.0 L 110.0 79.0 L 109.66666666666667 78.0 L 109.0 77.0 L 108.0 76.0 L 107.0 75.33333333333333 L 106.0 74.66666666666667 L 105.0 74.33333333333333 L 104.0 74.0 L 103.0 74.0 L 102.0 74.0 L 101.0 74.0 L 100.0 74.0 L 99.0 74.0 L 98.0 74.0 L 97.0 74.0 L 96.0 74.0 L 95.0 74.0 L 94.0 74.0 L 93.0 74.0 L 92.0 74.0 L 91.0 74.0 L 90.0 74.0 L 89.0 74.0 L 88.0 74.0 L 87.0 74.0 L 86.0 74.0 L 85.0 74.0 L 84.0 74.0 L 83.0 74.0 L 82.0 74.0 L 81.0 74.0 L 80.0 74.0 L 79.0 74.0 L 78.0 74.0 L 77.0 74.0 L 76.0 74.0 L 75.0 74.0 L 74.0 74.0 L 73.0 74.0 L 72.0 74.0 L 71.0 74.0 L 70.0 74.0 L 69.0 74.0 L 68.0 74.0 L 67.0 74.0 L 66.0 74.0 L 65.0 74.0 L 64.0 74.0 L 63.0 74.0 L 62.0 74.0 L 61.0 74.0 L 60.0 74.0 L 59.0 74.0 L 58.0 74.0 L 57.0 74.0 L 56.0 74.0 L 55.0 74.0 L 54.0 74.0 L 53.0 74.0 L 52.0 74.0 L 51.0 74.0 L 50.0 74.0 L 49.0 74.0 L 48.0 74.0 L 47.0 74.0 L 46.0 74.0 L 45.0 74.0 L 44.0 74.0 L 43.0 74.0 L 42.0 74.0 L 41.0 74.0 L 40.0 74.0 L 39.0 74.0 L 38.0 74.0 L 37.0 74.0 L 36.0 74.0 L 35.0 74.0 L 34.0 74.0 L 33.0 74.33333333333333 L 32.0 74.66666666666667 L 31.0 75.0 L 30.0 75.0 L 29.0 75.0 L 28.0 75.0 L 27.0 75.0 L 26.0 75.0 L 25.0 75.0 L 24.0 75.0 L 23.0 75.0 L 22.0 75.33333333333333 L 21.0 75.66666666666667 L 20.0 76.33333333333333 L 19.333333333333332 77.0 L 18.666666666666668 78.0 L 18.333333333333332 79.0 L 17.666666666666668 80.0 L 17.333333333333332 81.0 L 17.0 82.0 L 17.0 83.0 L 17.0 84.0 L 17.0 85.0 L 17.0 86.0 L 17.0 87.0 L 17.0 88.0 L 17.333333333333332 88.66666666666667 L 18.0 89.0 L 19.0 89.0 L 20.0 89.0 L 21.0 89.0 L 22.0 89.0 L 23.0 89.0 L 24.0 89.0 L 25.0 89.0 L 26.0 89.0 L 27.0 89.0 L 28.0 89.0 L 29.0 89.0 L 30.0 89.0 L 31.0 89.0 L 32.0 89.0 L 33.0 89.0 L 34.0 89.0 L 35.0 89.0 L 36.0 89.0 L 37.0 89.0 L 38.0 89.0 L 39.0 89.0 L 40.0 89.0 L 41.0 89.0 L 42.0 89.0 L 43.0 89.0 L 44.0 89.0 L 45.0 89.0 L 46.0 89.0 L 47.0 89.0 L 48.0 89.0 L 49.0 89.0 L 50.0 89.0 L 51.0 89.0 L 52.0 89.0 L 53.0 89.0 L 54.0 89.0 L 55.0 89.0 L 56.0 89.0 L 57.0 89.0 L 58.0 89.0 L 59.0 89.0 L 60.0 89.0 L 61.0 89.0 L 62.0 89.0 L 63.0 89.0 L 64.0 89.0 L 65.0 89.0 L 66.0 89.0 L 67.0 89.0 L 68.0 89.0 L 69.0 89.0 L 70.0 89.0 L 71.0 89.0 L 71.5 89.0 Z" stroke="none" fill="rgb(69,206,224)" />
<path d="M 122.5 88.0 L 123.0 87.66666666666667 L 123.66666666666667 87.0 L 124.0 86.0 L 124.0 85.0 L 124.0 84.0 L 123.66666666666667 83.33333333333333 L 123.0 83.0 L 122.0 83.33333333333333 L 121.33333333333333 84.0 L 120.66666666666667 85.0 L 120.33333333333333 86.0 L 120.0 87.0 L 120.33333333333333 87.66666666666667 L 121.0 88.0 L 121.5 88.0 Z" stroke="none" fill="rgb(75,75,75)" />
<path d="M 7.0 87.5 L 7.0 87.0 L 6.666666666666667 86.0 L 6.333333333333333 85.0 L 5.666666666666667 84.33333333333333 L 5.0 84.0 L 4.333333333333333 84.33333333333333 L 4.0 85.0 L 4.0 86.0 L 4.333333333333333 87.0 L 5.0 87.66666666666667 L 6.0 88.0 L 6.5 88.0 Z" stroke="none" fill="rgb(88,87,87)" />
<path d="M 10.5 89.0 L 11.0 89.0 L 12.0 89.0 L 12.666666666666666 88.66666666666667 L 12.666666666666666 88.0 L 12.0 87.33333333333333 L 11.0 86.66666666666667 L 10.333333333333334 86.0 L 9.666666666666666 85.33333333333333 L 9.0 85.0 L 8.333333333333334 85.33333333333333 L 8.0 86.0 L 8.333333333333334 87.0 L 9.0 88.0 L 9.5 88.5 Z" stroke="none" fill="rgb(65,65,65)" />
<path d="M 120.0 88.5 L 120.0 88.0 L 120.0 87.0 L 119.66666666666667 86.33333333333333 L 119.0 86.33333333333333 L 118.33333333333333 87.0 L 118.0 88.0 L 118.33333333333333 88.66666666666667 L 119.0 89.0 L 119.5 89.0 Z" stroke="none" fill="rgb(65,65,65)" />
<path d="M 59.5 94.0 L 60.0 94.0 L 61.0 94.0 L 62.0 94.0 L 63.0 94.0 L 64.0 94.0 L 65.0 94.0 L 66.0 94.0 L 67.0 94.0 L 68.0 94.0 L 69.0 94.0 L 70.0 94.0 L 71.0 94.33333333333333 L 72.0 95.0 L 73.0 96.0 L 73.66666666666667 97.0 L 74.33333333333333 98.0 L 74.66666666666667 99.0 L 75.0 100.0 L 75.0 101.0 L 75.33333333333333 101.66666666666667 L 76.0 102.0 L 77.0 102.0 L 78.0 102.0 L 79.0 102.0 L 80.0 102.0 L 81.0 102.0 L 82.0 102.0 L 83.0 102.0 L 84.0 102.0 L 85.0 102.0 L 86.0 102.0 L 87.0 102.0 L 88.0 102.0 L 89.0 102.0 L 90.0 102.0 L 91.0 102.0 L 92.0 102.0 L 93.0 102.0 L 94.0 102.0 L 95.0 102.0 L 96.0 102.0 L 97.0 102.0 L 98.0 102.0 L 99.0 102.0 L 100.0 102.0 L 101.0 102.0 L 102.0 102.0 L 103.0 102.0 L 104.0 102.0 L 105.0 102.0 L 106.0 102.0 L 107.0 102.0 L 108.0 102.0 L 109.0 102.0 L 109.66666666666667 101.66666666666667 L 110.0 101.0 L 110.0 100.0 L 110.0 99.0 L 110.0 98.0 L 110.0 97.0 L 110.0 96.0 L 110.0 95.0 L 110.0 94.0 L 110.0 93.0 L 110.0 92.0 L 110.0 91.0 L 110.0 90.0 L 109.66666666666667 89.33333333333333 L 109.0 89.0 L 108.0 89.0 L 107.0 89.0 L 106.0 89.0 L 105.0 89.0 L 104.0 89.0 L 103.0 89.0 L 102.0 89.0 L 101.0 89.0 L 100.0 89.0 L 99.0 89.0 L 98.0 89.0 L 97.0 89.0 L 96.0 89.0 L 95.0 89.0 L 94.0 89.0 L 93.0 89.0 L 92.0 89.0 L 91.0 89.0 L 90.0 89.0 L 89.0 89.0 L 88.0 89.0 L 87.0 89.0 L 86.0 89.0 L 85.0 89.0 L 84.0 89.0 L 83.0 89.0 L 82.0 89.0 L 81.0 89.0 L 80.0 89.0 L 79.0 89.0 L 78.0 89.0 L 77.0 89.0 L 76.0 89.0 L 75.0 89.0 L 74.0 89.0 L 73.0 89.0 L 72.0 89.0 L 71.0 89.0 L 70.0 89.0 L 69.0 89.0 L 68.0 89.0 L 67.0 89.0 L 66.0 89.0 L 65.0 89.0 L 64.0 89.0 L 63.0 89.0 L 62.0 89.0 L 61.0 89.0 L 60.0 89.0 L 59.0 89.0 L 58.0 89.0 L 57.0 89.0 L 56.0 89.0 L 55.0 89.0 L 54.0 89.0 L 53.0 89.0 L 52.0 89.0 L 51.0 89.0 L 50.0 89.0 L 49.0 89.0 L 48.0 89.0 L 47.0 89.0 L 46.0 89.0 L 45.0 89.0 L 44.0 89.0 L 43.0 89.0 L 42.0 89.0 L 41.0 89.0 L 40.0 89.0 L 39.0 89.0 L 38.0 89.0 L 37.0 89.0 L 36.0 89.0 L 35.0 89.0 L 34.0 89.0 L 33.0 89.0 L 32.0 89.0 L 31.0 89.0 L 30.0 89.0 L 29.0 89.0 L 28.0 89.0 L 27.0 89.0 L 26.0 89.0 L 25.0 89.0 L 24.0 89.0 L 23.0 89.0 L 22.0 89.0 L 21.0 89.0 L 20.0 89.0 L 19.0 89.0 L 18.0 89.0 L 17.333333333333332 89.33333333333333 L 17.0 90.0 L 17.0 91.0 L 17.0 92.0 L 17.0 93.0 L 17.0 94.0 L 17.0 95.0 L 17.0 96.0 L 17.0 97.0 L 17.0 98.0 L 17.0 99.0 L 17.0 100.0 L 17.333333333333332 101.0 L 18.0 101.66666666666667 L 19.0 102.0 L 20.0 102.0 L 21.0 102.0 L 22.0 102.0 L 23.0 102.0 L 24.0 102.0 L 25.0 102.0 L 26.0 102.0 L 27.0 102.0 L 28.0 102.0 L 29.0 102.0 L 30.0 102.0 L 31.0 102.0 L 32.0 102.0 L 33.0 102.0 L 34.0 102.0 L 35.0 102.0 L 36.0 102.0 L 37.0 102.0 L 38.0 102.0 L 39.0 102.0 L 40.0 102.0 L 41.0 102.0 L 42.0 102.0 L 43.0 102.0 L 44.0 102.0 L 45.0 102.0 L 46.0 102.0 L 47.0 102.0 L 48.0 102.0 L 49.0 102.0 L 50.0 102.0 L 51.0 102.0 L 52.0 102.0 L 52.666666666666664 101.66666666666667 L 53.0 101.0 L 53.0 100.0 L 53.333333333333336 99.0 L 53.666666666666664 98.0 L 54.333333333333336 97.0 L 55.0 96.0 L 56.0 95.33333333333333 L 57.0 94.66666666666667 L 58.0 94.33333333333333 L 58.5 94.0 Z" stroke="none" fill="rgb(54,202,221)" />
<path d="M 72.5 109.0 L 73.0 109.0 L 74.0 109.0 L 74.66666666666667 108.66666666666667 L 75.0 108.0 L 75.0 107.0 L 75.0 106.0 L 75.0 105.0 L 75.0 104.0 L 75.0 103.0 L 75.0 102.0 L 75.0 101.0 L 75.0 100.0 L 75.0 99.0 L 74.66666666666667 98.0 L 74.33333333333333 97.0 L 73.66666666666667 96.0 L 73.0 95.0 L 72.0 94.33333333333333 L 71.0 94.0 L 70.0 94.0 L 69.0 94.0 L 68.0 94.0 L 67.0 94.0 L 66.0 94.0 L 65.0 94.0 L 64.0 94.0 L 63.0 94.0 L 62.0 94.0 L 61.0 94.0 L 60.0 94.0 L 59.0 94.0 L 58.0 94.0 L 57.0 94.33333333333333 L 56.0 94.66666666666667 L 55.0 95.33333333333333 L 54.333333333333336 96.0 L 53.666666666666664 97.0 L 53.333333333333336 98.0 L 53.0 99.0 L 53.0 100.0 L 53.0 101.0 L 53.0 102.0 L 53.0 103.0 L 53.0 104.0 L 53.0 105.0 L 53.0 106.0 L 53.0 107.0 L 53.0 108.0 L 53.333333333333336 108.66666666666667 L 54.0 109.0 L 55.0 109.0 L 56.0 109.0 L 57.0 109.0 L 58.0 109.0 L 59.0 109.0 L 60.0 109.0 L 61.0 109.0 L 62.0 109.0 L 63.0 109.0 L 64.0 109.0 L 65.0 109.0 L 66.0 109.0 L 67.0 109.0 L 68.0 109.0 L 69.0 109.0 L 70.0 109.0 L 71.0 109.0 L 71.5 109.0 Z" stroke="none" fill="rgb(1,180,202)" />
<path d="M 17.5 111.0 L 17.666666666666668 110.66666666666667 L 18.0 110.0 L 18.0 109.0 L 18.0 108.0 L 18.0 107.0 L 18.0 106.0 L 18.0 105.0 L 18.0 104.0 L 18.0 103.0 L 18.0 102.0 L 17.666666666666668 101.0 L 17.333333333333332 100.0 L 17.0 99.0 L 17.0 98.0 L 16.666666666666668 97.33333333333333 L 16.0 97.0 L 15.0 97.0 L 14.0 97.0 L 13.0 97.0 L 12.0 97.33333333333333 L 11.333333333333334 98.0 L 11.0 99.0 L 10.666666666666666 100.0 L 10.0 100.66666666666667 L 9.0 101.0 L 8.0 101.33333333333333 L 7.0 102.0 L 6.333333333333333 103.0 L 6.0 104.0 L 5.666666666666667 105.0 L 5.0 106.0 L 4.333333333333333 107.0 L 4.0 108.0 L 4.0 109.0 L 4.0 110.0 L 4.333333333333333 111.0 L 5.0 112.0 L 6.0 113.0 L 7.0 114.0 L 8.0 114.66666666666667 L 9.0 114.66666666666667 L 10.0 114.0 L 11.0 113.0 L 12.0 112.0 L 13.0 111.33333333333333 L 14.0 110.66666666666667 L 15.0 110.66666666666667 L 16.0 110.66666666666667 L 16.5 111.0 Z" stroke="none" fill="rgb(255,202,40)" />
<path d="M 26.5 114.0 L 27.0 114.0 L 28.0 114.0 L 29.0 114.0 L 30.0 114.0 L 31.0 114.0 L 32.0 114.0 L 33.0 114.0 L 34.0 114.0 L 35.0 114.0 L 36.0 114.0 L 37.0 114.0 L 38.0 114.0 L 39.0 114.0 L 40.0 114.0 L 41.0 114.0 L 42.0 114.0 L 43.0 114.0 L 44.0 114.0 L 45.0 114.0 L 46.0 114.0 L 47.0 114.0 L 48.0 114.0 L 49.0 114.0 L 50.0 114.0 L 51.0 114.0 L 51.666666666666664 113.66666666666667 L 52.333333333333336 113.0 L 52.666666666666664 112.0 L 53.0 111.0 L 53.0 110.0 L 53.0 109.0 L 53.0 108.0 L 53.0 107.0 L 53.0 106.0 L 53.0 105.0 L 53.0 104.0 L 53.0 103.0 L 52.666666666666664 102.33333333333333 L 52.0 102.0 L 51.0 102.0 L 50.0 102.0 L 49.0 102.0 L 48.0 102.0 L 47.0 102.0 L 46.0 102.0 L 45.0 102.0 L 44.0 102.0 L 43.0 102.0 L 42.0 102.0 L 41.0 102.0 L 40.0 102.0 L 39.0 102.0 L 38.0 102.0 L 37.0 102.0 L 36.0 102.0 L 35.0 102.0 L 34.0 102.0 L 33.0 102.0 L 32.0 102.0 L 31.0 102.0 L 30.0 102.0 L 29.0 102.0 L 28.0 102.0 L 27.0 102.0 L 26.0 102.0 L 25.0 102.0 L 24.0 102.0 L 23.0 102.0 L 22.0 102.0 L 21.0 102.0 L 20.0 102.0 L 19.0 102.0 L 18.333333333333332 102.33333333333333 L 18.0 103.0 L 18.0 104.0 L 18.0 105.0 L 18.0 106.0 L 18.0 107.0 L 18.0 108.0 L 18.0 109.0 L 17.666666666666668 110.0 L 17.333333333333332 111.0 L 17.0 112.0 L 17.0 113.0 L 17.0 114.0 L 17.333333333333332 114.66666666666667 L 18.0 114.66666666666667 L 19.0 114.33333333333333 L 20.0 114.0 L 21.0 114.0 L 22.0 114.0 L 23.0 114.0 L 24.0 114.0 L 25.0 114.0 L 25.5 114.0 Z" stroke="none" fill="rgb(40,198,219)" />
<path d="M 95.5 114.0 L 96.0 114.0 L 97.0 114.0 L 98.0 114.0 L 99.0 114.0 L 100.0 114.0 L 101.0 114.0 L 102.0 114.0 L 103.0 114.0 L 104.0 114.0 L 105.0 114.0 L 106.0 114.0 L 107.0 114.0 L 108.0 114.0 L 109.0 114.0 L 109.66666666666667 113.66666666666667 L 110.0 113.0 L 110.0 112.0 L 110.0 111.0 L 110.0 110.0 L 110.0 109.0 L 110.0 108.0 L 110.0 107.0 L 110.0 106.0 L 110.0 105.0 L 110.0 104.0 L 110.0 103.0 L 109.66666666666667 102.33333333333333 L 109.0 102.0 L 108.0 102.0 L 107.0 102.0 L 106.0 102.0 L 105.0 102.0 L 104.0 102.0 L 103.0 102.0 L 102.0 102.0 L 101.0 102.0 L 100.0 102.0 L 99.0 102.0 L 98.0 102.0 L 97.0 102.0 L 96.0 102.0 L 95.0 102.0 L 94.0 102.0 L 93.0 102.0 L 92.0 102.0 L 91.0 102.0 L 90.0 102.0 L 89.0 102.0 L 88.0 102.0 L 87.0 102.0 L 86.0 102.0 L 85.0 102.0 L 84.0 102.0 L 83.0 102.0 L 82.0 102.0 L 81.0 102.0 L 80.0 102.0 L 79.0 102.0 L 78.0 102.0 L 77.0 102.0 L 76.0 102.0 L 75.33333333333333 102.33333333333333 L 75.0 103.0 L 75.0 104.0 L 75.0 105.0 L 75.0 106.0 L 75.0 107.0 L 75.0 108.0 L 75.0 109.0 L 75.0 110.0 L 75.33333333333333 111.0 L 75.66666666666667 112.0 L 76.33333333333333 113.0 L 77.0 113.66666666666667 L 78.0 114.0 L 79.0 114.0 L 80.0 114.0 L 81.0 114.0 L 82.0 114.0 L 83.0 114.0 L 84.0 114.0 L 85.0 114.0 L 86.0 114.0 L 87.0 114.0 L 88.0 114.0 L 89.0 114.0 L 90.0 114.0 L 91.0 114.0 L 92.0 114.0 L 93.0 114.0 L 94.0 114.0 L 94.5 114.0 Z" stroke="none" fill="rgb(40,198,219)" />
<path d="M 116.5 116.5 L 117.0 117.0 L 117.66666666666667 118.0 L 118.33333333333333 119.0 L 119.0 119.66666666666667 L 120.0 120.0 L 121.0 119.66666666666667 L 121.66666666666667 119.0 L 122.33333333333333 118.0 L 122.66666666666667 117.0 L 123.0 116.0 L 123.0 115.0 L 123.0 114.0 L 123.0 113.0 L 122.66666666666667 112.0 L 122.0 111.0 L 121.33333333333333 110.0 L 121.0 109.0 L 121.0 108.0 L 120.66666666666667 107.0 L 120.0 106.33333333333333 L 119.0 106.0 L 118.0 105.66666666666667 L 117.33333333333333 105.0 L 117.0 104.0 L 116.66666666666667 103.0 L 116.0 102.33333333333333 L 115.0 102.0 L 114.0 102.0 L 113.0 102.0 L 112.0 102.0 L 111.0 102.0 L 110.33333333333333 102.33333333333333 L 110.0 103.0 L 110.0 104.0 L 110.0 105.0 L 110.0 106.0 L 110.0 107.0 L 110.0 108.0 L 110.0 109.0 L 110.0 110.0 L 110.0 111.0 L 110.0 112.0 L 110.0 113.0 L 110.33333333333333 113.66666666666667 L 111.0 114.0 L 112.0 114.0 L 113.0 114.33333333333333 L 113.66666666666667 115.0 L 114.33333333333333 115.66666666666667 L 115.0 116.0 L 115.5 116.0 Z" stroke="none" fill="rgb(255,202,40)" />
<path d="M 78.5 124.0 L 78.66666666666667 123.66666666666667 L 79.0 123.0 L 79.0 122.0 L 78.66666666666667 121.0 L 78.33333333333333 120.0 L 77.66666666666667 119.0 L 77.33333333333333 118.0 L 77.0 117.0 L 77.0 116.0 L 77.0 115.0 L 77.0 114.0 L 76.66666666666667 113.0 L 76.33333333333333 112.0 L 75.66666666666667 111.0 L 75.33333333333333 110.0 L 74.66666666666667 109.33333333333333 L 74.0 109.0 L 73.0 109.0 L 72.0 109.0 L 71.0 109.0 L 70.0 109.0 L 69.0 109.0 L 68.0 109.0 L 67.0 109.0 L 66.0 109.0 L 65.0 109.0 L 64.0 109.0 L 63.0 109.0 L 62.0 109.0 L 61.0 109.0 L 60.0 109.0 L 59.0 109.0 L 58.0 109.0 L 57.0 109.0 L 56.0 109.0 L 55.0 109.0 L 54.0 109.0 L 53.333333333333336 109.33333333333333 L 53.0 110.0 L 52.666666666666664 111.0 L 52.333333333333336 112.0 L 51.666666666666664 113.0 L 51.333333333333336 114.0 L 51.0 115.0 L 51.0 116.0 L 51.0 117.0 L 50.666666666666664 118.0 L 50.333333333333336 119.0 L 50.0 120.0 L 49.666666666666664 121.0 L 49.333333333333336 122.0 L 49.0 123.0 L 49.333333333333336 123.66666666666667 L 50.0 124.0 L 51.0 124.0 L 52.0 124.0 L 53.0 124.0 L 54.0 124.0 L 55.0 124.0 L 56.0 124.0 L 57.0 124.0 L 58.0 124.0 L 59.0 124.0 L 60.0 124.0 L 61.0 124.0 L 62.0 124.0 L 63.0 124.0 L 64.0 124.0 L 65.0 124.0 L 66.0 124.0 L 67.0 124.0 L 68.0 124.0 L 69.0 124.0 L 70.0 124.0 L 71.0 124.0 L 72.0 124.0 L 73.0 124.0 L 74.0 124.0 L 75.0 124.0 L 76.0 124.0 L 77.0 124.0 L 77.5 124.0 Z" stroke="none" fill="rgb(0,165,184)" />
<path d="M 13.5 114.0 L 14.0 114.0 L 15.0 114.0 L 16.0 114.0 L 16.666666666666668 113.66666666666667 L 17.0 113.0 L 17.0 112.0 L 16.666666666666668 111.0 L 16.0 110.33333333333333 L 15.0 110.0 L 14.0 110.33333333333333 L 13.0 110.66666666666667 L 12.0 111.33333333333333 L 11.0 112.0 L 10.0 113.0 L 9.333333333333334 114.0 L 9.0 115.0 L 9.333333333333334 116.0 L 10.0 116.66666666666667 L 11.0 117.0 L 11.666666666666666 116.66666666666667 L 12.0 116.0 L 12.333333333333334 115.0 L 12.5 114.5 Z" stroke="none" fill="rgb(249,185,21)" />
<path d="M 113.5 112.0 L 113.66666666666667 111.66666666666667 L 113.66666666666667 111.33333333333333 L 113.33333333333333 111.33333333333333 L 113.0 111.5 Z" stroke="none" fill="rgb(249,185,21)" />
<path d="M 17.0 114.5 L 16.666666666666668 114.33333333333333 L 16.0 114.0 L 15.0 114.0 L 14.0 114.0 L 13.0 114.0 L 12.333333333333334 114.33333333333333 L 12.0 115.0 L 12.0 116.0 L 12.333333333333334 116.66666666666667 L 13.0 117.0 L 14.0 117.0 L 15.0 116.66666666666667 L 16.0 116.0 L 16.5 115.5 Z" stroke="none" fill="rgb(231,157,1)" />
<path d="M 39.5 124.0 L 40.0 124.0 L 41.0 124.0 L 42.0 124.0 L 43.0 124.0 L 44.0 124.0 L 45.0 124.0 L 46.0 124.0 L 47.0 124.0 L 48.0 124.0 L 48.666666666666664 123.66666666666667 L 49.333333333333336 123.0 L 49.666666666666664 122.0 L 50.0 121.0 L 50.333333333333336 120.0 L 50.666666666666664 119.0 L 51.0 118.0 L 51.0 117.0 L 51.0 116.0 L 51.0 115.0 L 50.666666666666664 114.33333333333333 L 50.0 114.0 L 49.0 114.0 L 48.0 114.0 L 47.0 114.0 L 46.0 114.0 L 45.0 114.0 L 44.0 114.0 L 43.0 114.0 L 42.0 114.0 L 41.0 114.0 L 40.0 114.0 L 39.0 114.0 L 38.0 114.0 L 37.0 114.0 L 36.0 114.0 L 35.0 114.0 L 34.0 114.0 L 33.0 114.0 L 32.0 114.0 L 31.0 114.0 L 30.0 114.0 L 29.0 114.0 L 28.0 114.0 L 27.0 114.0 L 26.0 114.0 L 25.0 114.0 L 24.0 114.0 L 23.0 114.0 L 22.0 114.0 L 21.0 114.0 L 20.0 114.0 L 19.0 114.0 L 18.333333333333332 114.33333333333333 L 18.0 115.0 L 18.0 116.0 L 18.0 117.0 L 18.0 118.0 L 18.0 119.0 L 18.0 120.0 L 18.0 121.0 L 18.0 122.0 L 18.0 123.0 L 18.333333333333332 123.66666666666667 L 19.0 124.0 L 20.0 124.0 L 21.0 124.0 L 22.0 124.0 L 23.0 124.0 L 24.0 124.0 L 25.0 124.0 L 26.0 124.0 L 27.0 124.0 L 28.0 124.0 L 29.0 124.0 L 30.0 124.0 L 31.0 124.0 L 32.0 124.0 L 33.0 124.0 L 34.0 124.0 L 35.0 124.0 L 36.0 124.0 L 37.0 124.0 L 38.0 124.0 L 38.5 124.0 Z" stroke="none" fill="rgb(27,195,216)" />
<path d="M 95.5 124.0 L 96.0 124.0 L 97.0 124.0 L 98.0 124.0 L 99.0 124.0 L 100.0 124.0 L 101.0 124.0 L 102.0 124.0 L 103.0 124.0 L 104.0 124.0 L 105.0 124.0 L 106.0 124.0 L 107.0 124.0 L 108.0 124.0 L 109.0 124.0 L 109.66666666666667 123.66666666666667 L 110.0 123.0 L 110.33333333333333 122.0 L 110.66666666666667 121.0 L 110.66666666666667 120.0 L 110.66666666666667 119.0 L 110.66666666666667 118.0 L 111.0 117.0 L 111.0 116.0 L 110.66666666666667 115.0 L 110.0 114.33333333333333 L 109.0 114.0 L 108.0 114.0 L 107.0 114.0 L 106.0 114.0 L 105.0 114.0 L 104.0 114.0 L 103.0 114.0 L 102.0 114.0 L 101.0 114.0 L 100.0 114.0 L 99.0 114.0 L 98.0 114.0 L 97.0 114.0 L 96.0 114.0 L 95.0 114.0 L 94.0 114.0 L 93.0 114.0 L 92.0 114.0 L 91.0 114.0 L 90.0 114.0 L 89.0 114.0 L 88.0 114.0 L 87.0 114.0 L 86.0 114.0 L 85.0 114.0 L 84.0 114.0 L 83.0 114.0 L 82.0 114.0 L 81.0 114.0 L 80.0 114.0 L 79.0 114.0 L 78.0 114.0 L 77.33333333333333 114.33333333333333 L 77.0 115.0 L 77.0 116.0 L 77.0 117.0 L 77.0 118.0 L 77.33333333333333 119.0 L 77.66666666666667 120.0 L 78.33333333333333 121.0 L 78.66666666666667 122.0 L 79.0 123.0 L 79.33333333333333 123.66666666666667 L 80.0 124.0 L 81.0 124.0 L 82.0 124.0 L 83.0 124.0 L 84.0 124.0 L 85.0 124.0 L 86.0 124.0 L 87.0 124.0 L 88.0 124.0 L 89.0 124.0 L 90.0 124.0 L 91.0 124.0 L 92.0 124.0 L 93.0 124.0 L 94.0 124.0 L 94.5 124.0 Z" stroke="none" fill="rgb(27,195,216)" />
<path d="M 113.5 120.0 L 114.0 119.66666666666667 L 115.0 119.66666666666667 L 115.66666666666667 120.0 L 116.33333333333333 120.66666666666667 L 117.0 121.33333333333333 L 118.0 121.66666666666667 L 119.0 122.0 L 119.66666666666667 121.66666666666667 L 120.0 121.0 L 119.66666666666667 120.0 L 119.0 119.0 L 118.33333333333333 118.0 L 117.66666666666667 117.0 L 117.0 116.33333333333333 L 116.0 116.0 L 115.0 115.66666666666667 L 114.33333333333333 115.0 L 113.66666666666667 114.33333333333333 L 113.0 114.0 L 112.0 114.0 L 111.0 114.0 L 110.33333333333333 114.33333333333333 L 110.33333333333333 115.0 L 110.66666666666667 116.0 L 111.0 117.0 L 111.33333333333333 118.0 L 112.0 119.0 L 112.5 119.5 Z" stroke="none" fill="rgb(249,185,21)" />
<path d="M 8.5 119.5 L 9.0 119.66666666666667 L 10.0 120.0 L 11.0 120.0 L 12.0 120.0 L 13.0 120.0 L 14.0 120.0 L 15.0 120.0 L 16.0 120.0 L 17.0 120.0 L 17.666666666666668 119.66666666666667 L 18.0 119.0 L 18.0 118.0 L 18.0 117.0 L 18.0 116.0 L 17.666666666666668 115.33333333333333 L 17.0 115.0 L 16.0 115.33333333333333 L 15.0 116.0 L 14.0 116.66666666666667 L 13.0 117.0 L 12.0 117.0 L 11.0 117.0 L 10.0 117.0 L 9.0 117.33333333333333 L 8.333333333333334 118.0 L 8.0 118.5 Z" stroke="none" fill="rgb(2,126,113)" />
<path d="M 10.5 124.0 L 11.0 124.0 L 12.0 124.0 L 13.0 124.0 L 14.0 124.0 L 15.0 124.0 L 16.0 124.0 L 17.0 124.0 L 17.666666666666668 123.66666666666667 L 18.0 123.0 L 18.0 122.0 L 18.0 121.0 L 17.666666666666668 120.33333333333333 L 17.0 120.0 L 16.0 120.0 L 15.0 120.0 L 14.0 120.0 L 13.0 120.0 L 12.0 120.0 L 11.0 120.0 L 10.0 119.66666666666667 L 9.333333333333334 119.0 L 9.0 118.0 L 8.666666666666666 117.0 L 8.0 116.33333333333333 L 7.0 116.0 L 6.0 116.33333333333333 L 5.333333333333333 117.0 L 5.0 118.0 L 5.0 119.0 L 5.0 120.0 L 5.0 121.0 L 5.0 122.0 L 5.333333333333333 123.0 L 6.0 123.66666666666667 L 7.0 124.0 L 8.0 124.0 L 9.0 124.0 L 9.5 124.0 Z" stroke="none" fill="rgb(39,164,153)" />
<path d="M 117.5 124.0 L 117.66666666666667 123.66666666666667 L 118.0 123.0 L 118.0 122.0 L 117.66666666666667 121.33333333333333 L 117.0 120.66666666666667 L 116.33333333333333 120.0 L 116.0 119.0 L 115.66666666666667 118.33333333333333 L 115.0 118.33333333333333 L 114.0 118.66666666666667 L 113.0 118.66666666666667 L 112.0 118.33333333333333 L 111.0 118.0 L 110.33333333333333 118.33333333333333 L 110.0 119.0 L 110.33333333333333 120.0 L 111.0 120.66666666666667 L 112.0 121.33333333333333 L 113.0 122.0 L 114.0 123.0 L 115.0 123.66666666666667 L 116.0 124.0 L 116.5 124.0 Z" stroke="none" fill="rgb(231,157,1)" />
<path d="M 111.5 124.0 L 112.0 124.0 L 113.0 124.0 L 114.0 124.0 L 114.66666666666667 123.66666666666667 L 114.66666666666667 123.0 L 114.0 122.0 L 113.0 121.33333333333333 L 112.0 121.0 L 111.0 121.0 L 110.33333333333333 121.33333333333333 L 110.0 122.0 L 110.0 123.0 L 110.33333333333333 123.66666666666667 L 110.5 124.0 Z" stroke="none" fill="rgb(39,164,153)" />
<path d="M 121.0 123.5 L 121.0 123.0 L 120.66666666666667 122.33333333333333 L 120.0 122.0 L 119.0 122.0 L 118.33333333333333 122.33333333333333 L 118.0 123.0 L 118.33333333333333 123.66666666666667 L 119.0 124.0 L 120.0 124.0 L 120.5 124.0 Z" stroke="none" fill="rgb(39,164,153)" />
</svg>
