<?xml version="1.0" encoding="UTF-8" standalone="no"?>
<!DOCTYPE svg PUBLIC "-//W3C//DTD SVG 1.1//EN"
"http://www.w3.org/Graphics/SVG/1.1/DTD/svg11.dtd">
<svg width="128" height="128" xmlns="http://www.w3.org/2000/svg" version="1.1">
<path d="M 70.5 128.0 L 71.0 128.0 L 72.0 128.0 L 73.0 128.0 L 74.0 128.0 L 75.0 128.0 L 76.0 128.0 L 77.0 128.0 L 78.0 128.0 L 79.0 128.0 L 80.0 128.0 L 81.0 128.0 L 82.0 128.0 L 83.0 128.0 L 84.0 128.0 L 85.0 128.0 L 86.0 128.0 L 87.0 128.0 L 88.0 128.0 L 89.0 128.0 L 90.0 128.0 L 91.0 128.0 L 92.0 128.0 L 93.0 128.0 L 94.0 128.0 L 95.0 128.0 L 96.0 128.0 L 97.0 128.0 L 98.0 128.0 L 99.0 128.0 L 100.0 128.0 L 101.0 128.0 L 102.0 128.0 L 103.0 128.0 L 104.0 128.0 L 105.0 128.0 L 106.0 128.0 L 107.0 128.0 L 108.0 128.0 L 109.0 128.0 L 110.0 128.0 L 111.0 128.0 L 112.0 128.0 L 113.0 128.0 L 114.0 128.0 L 115.0 128.0 L 116.0 128.0 L 117.0 128.0 L 118.0 128.0 L 119.0 128.0 L 120.0 128.0 L 121.0 128.0 L 122.0 128.0 L 123.0 128.0 L 124.0 128.0 L 125.0 128.0 L 126.0 128.0 L 127.0 128.0 L 127.66666666666667 127.66666666666667 L 128.0 127.0 L 128.0 126.0 L 128.0 125.0 L 128.0 124.0 L 128.0 123.0 L 128.0 122.0 L 128.0 121.0 L 128.0 120.0 L 128.0 119.0 L 128.0 118.0 L 128.0 117.0 L 128.0 116.0 L 128.0 115.0 L 128.0 114.0 L 128.0 113.0 L 128.0 112.0 L 128.0 111.0 L 128.0 110.0 L 128.0 109.0 L 128.0 108.0 L 128.0 107.0 L 128.0 106.0 L 128.0 105.0 L 128.0 104.0 L 128.0 103.0 L 128.0 102.0 L 128.0 101.0 L 128.0 100.0 L 128.0 99.0 L 128.0 98.0 L 128.0 97.0 L 128.0 96.0 L 128.0 95.0 L 128.0 94.0 L 128.0 93.0 L 128.0 92.0 L 128.0 91.0 L 128.0 90.0 L 128.0 89.0 L 128.0 88.0 L 128.0 87.0 L 128.0 86.0 L 128.0 85.0 L 128.0 84.0 L 128.0 83.0 L 128.0 82.0 L 128.0 81.0 L 128.0 80.0 L 128.0 79.0 L 128.0 78.0 L 128.0 77.0 L 128.0 76.0 L 128.0 75.0 L 128.0 74.0 L 128.0 73.0 L 128.0 72.0 L 128.0 71.0 L 128.0 70.0 L 128.0 69.0 L 128.0 68.0 L 128.0 67.0 L 128.0 66.0 L 128.0 65.0 L 128.0 64.0 L 128.0 63.0 L 128.0 62.0 L 128.0 61.0 L 128.0 60.0 L 128.0 59.0 L 128.0 58.0 L 128.0 57.0 L 128.0 56.0 L 128.0 55.0 L 128.0 54.0 L 128.0 53.0 L 128.0 52.0 L 128.0 51.0 L 128.0 50.0 L 128.0 49.0 L 128.0 48.0 L 128.0 47.0 L 128.0 46.0 L 128.0 45.0 L 128.0 44.0 L 128.0 43.0 L 128.0 42.0 L 128.0 41.0 L 128.0 40.0 L 128.0 39.0 L 128.0 38.0 L 128.0 37.0 L 128.0 36.0 L 128.0 35.0 L 128.0 34.0 L 128.0 33.0 L 128.0 32.0 L 128.0 31.0 L 128.0 30.0 L 128.0 29.0 L 128.0 28.0 L 128.0 27.0 L 128.0 26.0 L 128.0 25.0 L 128.0 24.0 L 128.0 23.0 L 128.0 22.0 L 128.0 21.0 L 128.0 20.0 L 128.0 19.0 L 128.0 18.0 L 128.0 17.0 L 128.0 16.0 L 128.0 15.0 L 128.0 14.0 L 128.0 13.0 L 128.0 12.0 L 128.0 11.0 L 128.0 10.0 L 128.0 9.0 L 128.0 8.0 L 128.0 7.0 L 128.0 6.0 L 128.0 5.0 L 128.0 4.0 L 128.0 3.0 L 128.0 2.0 L 128.0 1.0 L 127.66666666666667 0.3333333333333333 L 127.0 0.0 L 126.0 0.0 L 125.0 0.0 L 124.0 0.0 L 123.0 0.0 L 122.0 0.0 L 121.0 0.0 L 120.0 0.0 L 119.0 0.0 L 118.0 0.0 L 117.0 0.0 L 116.0 0.0 L 115.0 0.0 L 114.0 0.0 L 113.0 0.0 L 112.0 0.0 L 111.0 0.0 L 110.0 0.0 L 109.0 0.0 L 108.0 0.0 L 107.0 0.0 L 106.0 0.0 L 105.0 0.0 L 104.0 0.0 L 103.0 0.0 L 102.0 0.0 L 101.0 0.0 L 100.0 0.0 L 99.0 0.0 L 98.0 0.0 L 97.0 0.0 L 96.0 0.0 L 95.0 0.0 L 94.0 0.0 L 93.0 0.0 L 92.0 0.0 L 91.0 0.0 L 90.0 0.0 L 89.0 0.0 L 88.0 0.0 L 87.0 0.0 L 86.0 0.0 L 85.0 0.0 L 84.0 0.0 L 83.0 0.0 L 82.0 0.0 L 81.0 0.0 L 80.0 0.0 L 79.0 0.0 L 78.0 0.0 L 77.0 0.0 L 76.0 0.0 L 75.0 0.0 L 74.0 0.0 L 73.0 0.0 L 72.0 0.0 L 71.0 0.0 L 70.0 0.0 L 69.0 0.0 L 68.0 0.0 L 67.0 0.0 L 66.0 0.0 L 65.0 0.0 L 64.0 0.0 L 63.0 0.0 L 62.0 0.0 L 61.0 0.0 L 60.0 0.0 L 59.0 0.0 L 58.0 0.0 L 57.0 0.0 L 56.0 0.0 L 55.0 0.0 L 54.0 0.0 L 53.0 0.0 L 52.0 0.0 L 51.0 0.0 L 50.0 0.0 L 49.0 0.0 L 48.0 0.0 L 47.0 0.0 L 46.0 0.0 L 45.0 0.0 L 44.0 0.0 L 43.0 0.0 L 42.0 0.0 L 41.0 0.0 L 40.0 0.0 L 39.0 0.0 L 38.0 0.0 L 37.0 0.0 L 36.0 0.0 L 35.0 0.0 L 34.0 0.0 L 33.0 0.0 L 32.0 0.0 L 31.0 0.0 L 30.0 0.0 L 29.0 0.0 L 28.0 0.0 L 27.0 0.0 L 26.0 0.0 L 25.0 0.0 L 24.0 0.0 L 23.0 0.0 L 22.0 0.0 L 21.0 0.0 L 20.0 0.0 L 19.0 0.0 L 18.0 0.0 L 17.0 0.0 L 16.0 0.0 L 15.0 0.0 L 14.0 0.0 L 13.0 0.0 L 12.0 0.0 L 11.0 0.0 L 10.0 0.0 L 9.0 0.0 L 8.0 0.0 L 7.0 0.0 L 6.0 0.0 L 5.0 0.0 L 4.0 0.0 L 3.0 0.0 L 2.0 0.0 L 1.0 0.0 L 0.3333333333333333 0.3333333333333333 L 0.0 1.0 L 0.0 2.0 L 0.0 3.0 L 0.0 4.0 L 0.0 5.0 L 0.0 6.0 L 0.0 7.0 L 0.0 8.0 L 0.0 9.0 L 0.0 10.0 L 0.0 11.0 L 0.0 12.0 L 0.0 13.0 L 0.0 14.0 L 0.0 15.0 L 0.0 16.0 L 0.0 17.0 L 0.0 18.0 L 0.0 19.0 L 0.0 20.0 L 0.0 21.0 L 0.0 22.0 L 0.0 23.0 L 0.0 24.0 L 0.0 25.0 L 0.0 26.0 L 0.0 27.0 L 0.0 28.0 L 0.0 29.0 L 0.0 30.0 L 0.0 31.0 L 0.0 32.0 L 0.0 33.0 L 0.0 34.0 L 0.0 35.0 L 0.0 36.0 L 0.0 37.0 L 0.0 38.0 L 0.0 39.0 L 0.0 40.0 L 0.0 41.0 L 0.0 42.0 L 0.0 43.0 L 0.0 44.0 L 0.0 45.0 L 0.0 46.0 L 0.0 47.0 L 0.0 48.0 L 0.0 49.0 L 0.0 50.0 L 0.0 51.0 L 0.0 52.0 L 0.0 53.0 L 0.0 54.0 L 0.0 55.0 L 0.0 56.0 L 0.0 57.0 L 0.0 58.0 L 0.0 59.0 L 0.0 60.0 L 0.0 61.0 L 0.0 62.0 L 0.0 63.0 L 0.0 64.0 L 0.0 65.0 L 0.0 66.0 L 0.0 67.0 L 0.0 68.0 L 0.0 69.0 L 0.0 70.0 L 0.0 71.0 L 0.0 72.0 L 0.0 73.0 L 0.0 74.0 L 0.0 75.0 L 0.0 76.0 L 0.0 77.0 L 0.0 78.0 L 0.0 79.0 L 0.0 80.0 L 0.0 81.0 L 0.0 82.0 L 0.0 83.0 L 0.0 84.0 L 0.0 85.0 L 0.0 86.0 L 0.0 87.0 L 0.0 88.0 L 0.0 89.0 L 0.0 90.0 L 0.0 91.0 L 0.0 92.0 L 0.0 93.0 L 0.0 94.0 L 0.0 95.0 L 0.0 96.0 L 0.0 97.0 L 0.0 98.0 L 0.0 99.0 L 0.0 100.0 L 0.0 101.0 L 0.0 102.0 L 0.0 103.0 L 0.0 104.0 L 0.0 105.0 L 0.0 106.0 L 0.0 107.0 L 0.0 108.0 L 0.0 109.0 L 0.0 110.0 L 0.0 111.0 L 0.0 112.0 L 0.0 113.0 L 0.0 114.0 L 0.0 115.0 L 0.0 116.0 L 0.0 117.0 L 0.0 118.0 L 0.0 119.0 L 0.0 120.0 L 0.0 121.0 L 0.0 122.0 L 0.0 123.0 L 0.0 124.0 L 0.0 125.0 L 0.0 126.0 L 0.0 127.0 L 0.3333333333333333 127.66666666666667 L 1.0 128.0 L 2.0 128.0 L 3.0 128.0 L 4.0 128.0 L 5.0 128.0 L 6.0 128.0 L 7.0 128.0 L 8.0 128.0 L 9.0 128.0 L 10.0 128.0 L 11.0 128.0 L 12.0 128.0 L 13.0 128.0 L 14.0 128.0 L 15.0 128.0 L 16.0 128.0 L 17.0 128.0 L 18.0 128.0 L 19.0 128.0 L 20.0 128.0 L 21.0 128.0 L 22.0 128.0 L 23.0 128.0 L 24.0 128.0 L 25.0 128.0 L 26.0 128.0 L 27.0 128.0 L 28.0 128.0 L 29.0 128.0 L 30.0 128.0 L 31.0 128.0 L 32.0 128.0 L 33.0 128.0 L 34.0 128.0 L 35.0 128.0 L 36.0 128.0 L 37.0 128.0 L 38.0 128.0 L 39.0 128.0 L 40.0 128.0 L 41.0 128.0 L 42.0 128.0 L 43.0 128.0 L 44.0 128.0 L 45.0 128.0 L 46.0 128.0 L 47.0 128.0 L 48.0 128.0 L 49.0 128.0 L 50.0 128.0 L 51.0 128.0 L 52.0 128.0 L 53.0 128.0 L 54.0 128.0 L 55.0 128.0 L 56.0 128.0 L 57.0 128.0 L 58.0 128.0 L 59.0 128.0 L 60.0 128.0 L 61.0 128.0 L 62.0 128.0 L 63.0 128.0 L 64.0 128.0 L 65.0 128.0 L 66.0 128.0 L 67.0 128.0 L 68.0 128.0 L 69.0 128.0 L 69.5 128.0 Z" stroke="none" fill="rgb(0,0,0)" />
<path d="M 54.5 113.5 L 55.0 113.66666666666667 L 56.0 114.33333333333333 L 57.0 114.66666666666667 L 58.0 115.0 L 59.0 115.33333333333333 L 60.0 115.66666666666667 L 61.0 116.33333333333333 L 62.0 116.66666666666667 L 63.0 117.0 L 64.0 117.0 L 65.0 117.33333333333333 L 66.0 117.66666666666667 L 67.0 118.0 L 68.0 118.0 L 69.0 118.33333333333333 L 70.0 118.66666666666667 L 71.0 119.0 L 72.0 119.0 L 73.0 119.0 L 74.0 119.0 L 75.0 119.0 L 76.0 119.33333333333333 L 77.0 119.66666666666667 L 78.0 120.0 L 79.0 120.0 L 80.0 120.0 L 81.0 120.0 L 82.0 120.0 L 83.0 120.0 L 84.0 120.0 L 85.0 120.0 L 86.0 120.0 L 87.0 120.0 L 88.0 120.0 L 89.0 120.0 L 90.0 120.0 L 91.0 120.0 L 92.0 120.0 L 93.0 120.0 L 94.0 120.0 L 95.0 120.0 L 96.0 120.0 L 97.0 120.0 L 98.0 120.0 L 99.0 120.0 L 100.0 120.0 L 101.0 120.0 L 102.0 120.0 L 103.0 120.0 L 104.0 120.0 L 105.0 120.0 L 106.0 120.0 L 107.0 120.0 L 108.0 120.0 L 109.0 120.0 L 110.0 120.0 L 111.0 119.66666666666667 L 112.0 119.33333333333333 L 113.0 119.0 L 114.0 118.66666666666667 L 115.0 118.33333333333333 L 116.0 118.0 L 117.0 117.66666666666667 L 118.0 117.33333333333333 L 119.0 117.0 L 119.66666666666667 116.66666666666667 L 120.0 116.0 L 120.0 115.0 L 120.0 114.0 L 120.0 113.0 L 120.0 112.0 L 120.0 111.0 L 120.0 110.0 L 119.66666666666667 109.0 L 119.33333333333333 108.0 L 118.66666666666667 107.0 L 118.0 106.0 L 117.33333333333333 105.0 L 116.66666666666667 104.0 L 116.0 103.0 L 115.0 102.0 L 114.0 101.0 L 113.0 100.33333333333333 L 112.0 99.66666666666667 L 111.0 99.0 L 110.0 98.0 L 109.0 97.33333333333333 L 108.0 96.66666666666667 L 107.0 96.0 L 106.0 95.33333333333333 L 105.0 94.66666666666667 L 104.0 94.0 L 103.0 93.0 L 102.0 92.33333333333333 L 101.0 91.66666666666667 L 100.0 91.0 L 99.0 90.0 L 98.0 89.0 L 97.0 88.0 L 96.0 87.0 L 95.0 86.0 L 94.0 85.33333333333333 L 93.0 84.66666666666667 L 92.0 84.0 L 91.0 83.0 L 90.0 82.0 L 89.33333333333333 81.0 L 88.66666666666667 80.0 L 88.0 79.0 L 87.0 78.0 L 86.0 77.0 L 85.0 76.0 L 84.0 75.0 L 83.33333333333333 74.0 L 82.66666666666667 73.0 L 82.0 72.0 L 81.0 71.0 L 80.33333333333333 70.0 L 79.66666666666667 69.0 L 79.0 68.0 L 78.33333333333333 67.0 L 77.66666666666667 66.0 L 77.0 65.0 L 76.33333333333333 64.0 L 75.66666666666667 63.0 L 75.0 62.0 L 74.33333333333333 61.0 L 73.66666666666667 60.0 L 73.33333333333333 59.0 L 72.66666666666667 58.0 L 72.33333333333333 57.0 L 71.66666666666667 56.0 L 71.33333333333333 55.0 L 70.66666666666667 54.0 L 70.33333333333333 53.0 L 69.66666666666667 52.0 L 69.33333333333333 51.0 L 68.66666666666667 50.0 L 68.33333333333333 49.0 L 67.66666666666667 48.0 L 67.33333333333333 47.0 L 66.66666666666667 46.0 L 66.33333333333333 45.0 L 65.66666666666667 44.0 L 65.33333333333333 43.0 L 64.66666666666667 42.0 L 64.0 41.0 L 63.333333333333336 40.0 L 62.666666666666664 39.0 L 62.333333333333336 38.0 L 61.666666666666664 37.0 L 61.333333333333336 36.0 L 60.666666666666664 35.0 L 60.0 34.0 L 59.333333333333336 33.0 L 58.666666666666664 32.0 L 58.0 31.0 L 57.333333333333336 30.0 L 56.666666666666664 29.0 L 56.0 28.0 L 55.333333333333336 27.0 L 54.666666666666664 26.0 L 54.0 25.0 L 53.333333333333336 24.0 L 52.666666666666664 23.0 L 52.0 22.0 L 51.0 21.0 L 50.333333333333336 20.0 L 49.666666666666664 19.0 L 49.0 18.0 L 48.0 17.0 L 47.0 16.0 L 46.0 15.0 L 45.0 14.0 L 44.0 13.0 L 43.0 12.0 L 42.0 11.0 L 41.0 10.0 L 40.0 9.0 L 39.0 8.0 L 38.0 7.333333333333333 L 37.0 6.666666666666667 L 36.0 6.0 L 35.0 5.333333333333333 L 34.0 4.666666666666667 L 33.0 4.333333333333333 L 32.0 4.0 L 31.0 3.6666666666666665 L 30.0 3.3333333333333335 L 29.0 3.0 L 28.0 3.0 L 27.0 3.3333333333333335 L 26.0 3.6666666666666665 L 25.0 4.333333333333333 L 24.0 5.0 L 23.0 6.0 L 22.0 7.0 L 21.0 8.0 L 20.0 9.0 L 19.333333333333332 10.0 L 18.666666666666668 11.0 L 18.0 12.0 L 17.0 13.0 L 16.333333333333332 14.0 L 15.666666666666666 15.0 L 15.0 16.0 L 14.333333333333334 17.0 L 13.666666666666666 18.0 L 13.0 19.0 L 12.333333333333334 20.0 L 11.666666666666666 21.0 L 11.333333333333334 22.0 L 10.666666666666666 23.0 L 10.333333333333334 24.0 L 10.0 25.0 L 9.666666666666666 26.0 L 9.333333333333334 27.0 L 9.0 28.0 L 9.0 29.0 L 8.666666666666666 30.0 L 8.333333333333334 31.0 L 8.0 32.0 L 8.0 33.0 L 8.0 34.0 L 8.0 35.0 L 8.0 36.0 L 8.0 37.0 L 8.0 38.0 L 8.0 39.0 L 8.0 40.0 L 8.0 41.0 L 8.0 42.0 L 8.0 43.0 L 8.333333333333334 44.0 L 8.666666666666666 45.0 L 9.0 46.0 L 9.333333333333334 47.0 L 9.666666666666666 48.0 L 10.333333333333334 49.0 L 10.666666666666666 50.0 L 11.333333333333334 51.0 L 11.666666666666666 52.0 L 12.0 53.0 L 12.333333333333334 54.0 L 12.666666666666666 55.0 L 13.0 56.0 L 13.333333333333334 57.0 L 13.666666666666666 58.0 L 14.0 59.0 L 14.0 60.0 L 14.333333333333334 61.0 L 14.666666666666666 62.0 L 15.0 63.0 L 15.0 64.0 L 15.0 65.0 L 15.0 66.0 L 15.333333333333334 67.0 L 15.666666666666666 68.0 L 16.0 69.0 L 16.0 70.0 L 16.0 71.0 L 16.0 72.0 L 16.0 73.0 L 16.0 74.0 L 16.333333333333332 75.0 L 16.666666666666668 76.0 L 17.0 77.0 L 17.0 78.0 L 17.0 79.0 L 17.0 80.0 L 17.0 81.0 L 17.0 82.0 L 17.0 83.0 L 17.0 84.0 L 17.0 85.0 L 17.0 86.0 L 17.0 87.0 L 17.0 88.0 L 17.0 89.0 L 17.333333333333332 90.0 L 17.666666666666668 91.0 L 18.0 92.0 L 18.0 93.0 L 18.0 94.0 L 18.0 95.0 L 18.0 96.0 L 18.0 97.0 L 18.0 98.0 L 18.0 99.0 L 18.0 100.0 L 18.0 101.0 L 18.0 102.0 L 18.0 103.0 L 18.333333333333332 104.0 L 19.0 104.66666666666667 L 20.0 105.0 L 21.0 105.0 L 22.0 105.0 L 23.0 105.0 L 24.0 105.0 L 25.0 105.0 L 25.666666666666668 104.66666666666667 L 26.0 104.0 L 26.0 103.0 L 26.0 102.0 L 26.0 101.0 L 26.0 100.0 L 26.0 99.0 L 26.0 98.0 L 26.0 97.0 L 26.0 96.0 L 26.0 95.0 L 26.0 94.0 L 26.0 93.0 L 26.0 92.0 L 26.333333333333332 91.0 L 26.666666666666668 90.0 L 27.0 89.0 L 27.0 88.0 L 27.0 87.0 L 27.0 86.0 L 27.0 85.0 L 27.0 84.0 L 27.0 83.0 L 27.0 82.0 L 27.0 81.0 L 27.0 80.0 L 27.0 79.0 L 27.333333333333332 78.0 L 27.666666666666668 77.0 L 28.0 76.0 L 28.0 75.0 L 28.0 74.0 L 28.0 73.0 L 28.333333333333332 72.0 L 29.0 71.0 L 29.666666666666668 70.0 L 30.0 69.0 L 30.0 68.0 L 29.666666666666668 67.0 L 29.333333333333332 66.0 L 28.666666666666668 65.0 L 28.0 64.0 L 27.0 63.0 L 26.666666666666668 62.0 L 27.0 61.333333333333336 L 28.0 61.333333333333336 L 29.0 62.0 L 30.0 63.0 L 31.0 64.0 L 32.0 65.0 L 33.0 66.0 L 33.666666666666664 67.0 L 34.333333333333336 68.0 L 35.0 69.0 L 35.666666666666664 70.0 L 36.333333333333336 71.0 L 36.666666666666664 72.0 L 37.0 73.0 L 37.333333333333336 74.0 L 37.666666666666664 75.0 L 38.333333333333336 76.0 L 38.666666666666664 77.0 L 39.0 78.0 L 39.333333333333336 79.0 L 39.666666666666664 80.0 L 40.0 81.0 L 40.333333333333336 82.0 L 40.666666666666664 83.0 L 41.0 84.0 L 41.0 85.0 L 41.333333333333336 86.0 L 41.666666666666664 87.0 L 42.0 88.0 L 42.333333333333336 89.0 L 42.666666666666664 90.0 L 43.0 91.0 L 43.0 92.0 L 43.333333333333336 93.0 L 43.666666666666664 94.0 L 44.0 95.0 L 44.333333333333336 96.0 L 44.666666666666664 97.0 L 45.0 98.0 L 45.333333333333336 99.0 L 45.666666666666664 100.0 L 46.333333333333336 101.0 L 46.666666666666664 102.0 L 47.0 103.0 L 47.333333333333336 104.0 L 48.0 105.0 L 48.666666666666664 106.0 L 49.333333333333336 107.0 L 50.0 108.0 L 50.666666666666664 109.0 L 51.333333333333336 110.0 L 52.0 111.0 L 53.0 112.0 L 53.5 112.5 Z" stroke="none" fill="rgb(244,67,54)" />
<path d="M 78.5 94.5 L 79.0 94.33333333333333 L 80.0 94.0 L 81.0 93.66666666666667 L 82.0 93.33333333333333 L 83.0 93.0 L 84.0 93.0 L 85.0 92.66666666666667 L 86.0 92.33333333333333 L 87.0 92.0 L 88.0 92.0 L 89.0 91.66666666666667 L 89.66666666666667 91.0 L 90.0 90.0 L 90.0 89.0 L 89.66666666666667 88.0 L 89.0 87.0 L 88.0 86.0 L 87.0 85.0 L 86.0 84.0 L 85.0 83.0 L 84.0 82.0 L 83.0 81.0 L 82.0 80.0 L 81.33333333333333 79.0 L 80.66666666666667 78.0 L 80.0 77.0 L 79.0 76.0 L 78.33333333333333 75.0 L 77.66666666666667 74.0 L 77.0 73.0 L 76.33333333333333 72.0 L 75.66666666666667 71.0 L 75.0 70.0 L 74.33333333333333 69.0 L 73.66666666666667 68.0 L 73.0 67.0 L 72.33333333333333 66.0 L 71.66666666666667 65.0 L 71.0 64.0 L 70.33333333333333 63.0 L 69.66666666666667 62.0 L 69.33333333333333 61.0 L 68.66666666666667 60.0 L 68.33333333333333 59.0 L 67.66666666666667 58.0 L 67.33333333333333 57.0 L 66.66666666666667 56.0 L 66.0 55.0 L 65.33333333333333 54.0 L 64.66666666666667 53.0 L 64.33333333333333 52.0 L 63.666666666666664 51.0 L 63.333333333333336 50.0 L 63.0 49.0 L 62.666666666666664 48.0 L 62.333333333333336 47.0 L 61.666666666666664 46.0 L 61.333333333333336 45.0 L 60.666666666666664 44.0 L 60.333333333333336 43.0 L 59.666666666666664 42.0 L 59.333333333333336 41.0 L 58.666666666666664 40.0 L 58.0 39.0 L 57.333333333333336 38.0 L 56.666666666666664 37.0 L 56.333333333333336 36.0 L 55.666666666666664 35.0 L 55.0 34.0 L 54.333333333333336 33.0 L 53.666666666666664 32.0 L 53.0 31.0 L 52.333333333333336 30.0 L 51.666666666666664 29.0 L 51.0 28.0 L 50.333333333333336 27.0 L 49.666666666666664 26.0 L 49.0 25.0 L 48.0 24.0 L 47.0 23.0 L 46.0 22.0 L 45.0 21.0 L 44.0 20.0 L 43.0 19.0 L 42.0 18.0 L 41.0 17.0 L 40.0 16.0 L 39.0 15.0 L 38.0 14.0 L 37.0 13.0 L 36.0 12.0 L 35.0 11.0 L 34.0 10.333333333333334 L 33.0 9.666666666666666 L 32.0 9.333333333333334 L 31.0 9.0 L 30.333333333333332 9.333333333333334 L 30.0 10.0 L 30.0 11.0 L 30.0 12.0 L 30.333333333333332 13.0 L 30.666666666666668 14.0 L 31.333333333333332 15.0 L 31.666666666666668 16.0 L 32.333333333333336 17.0 L 32.666666666666664 18.0 L 33.333333333333336 19.0 L 33.666666666666664 20.0 L 34.333333333333336 21.0 L 34.666666666666664 22.0 L 35.333333333333336 23.0 L 35.666666666666664 24.0 L 36.0 25.0 L 36.333333333333336 26.0 L 36.666666666666664 27.0 L 37.333333333333336 28.0 L 37.666666666666664 29.0 L 38.333333333333336 30.0 L 38.666666666666664 31.0 L 39.333333333333336 32.0 L 39.666666666666664 33.0 L 40.0 34.0 L 40.333333333333336 35.0 L 40.666666666666664 36.0 L 41.333333333333336 37.0 L 41.666666666666664 38.0 L 42.0 39.0 L 42.333333333333336 40.0 L 42.666666666666664 41.0 L 43.0 42.0 L 43.0 43.0 L 43.333333333333336 44.0 L 43.666666666666664 45.0 L 44.0 46.0 L 44.333333333333336 47.0 L 44.666666666666664 48.0 L 45.0 49.0 L 45.0 50.0 L 45.0 51.0 L 45.333333333333336 52.0 L 46.0 53.0 L 46.666666666666664 54.0 L 47.0 55.0 L 47.333333333333336 56.0 L 48.0 57.0 L 49.0 58.0 L 49.666666666666664 59.0 L 50.333333333333336 60.0 L 50.666666666666664 61.0 L 51.333333333333336 62.0 L 51.666666666666664 63.0 L 52.333333333333336 64.0 L 52.666666666666664 65.0 L 53.0 66.0 L 53.333333333333336 67.0 L 53.666666666666664 68.0 L 54.333333333333336 69.0 L 54.666666666666664 70.0 L 55.333333333333336 71.0 L 55.666666666666664 72.0 L 56.333333333333336 73.0 L 56.666666666666664 74.0 L 57.333333333333336 75.0 L 57.666666666666664 76.0 L 58.333333333333336 77.0 L 58.666666666666664 78.0 L 59.333333333333336 79.0 L 59.666666666666664 80.0 L 60.333333333333336 81.0 L 61.0 82.0 L 61.666666666666664 83.0 L 62.333333333333336 84.0 L 63.0 85.0 L 63.666666666666664 86.0 L 64.33333333333333 87.0 L 65.0 88.0 L 66.0 89.0 L 67.0 90.0 L 68.0 91.0 L 69.0 92.0 L 70.0 93.0 L 70.66666666666667 94.0 L 71.33333333333333 94.66666666666667 L 72.0 95.0 L 73.0 95.0 L 74.0 95.0 L 75.0 95.0 L 76.0 95.0 L 77.0 95.0 L 77.5 95.0 Z" stroke="none" fill="rgb(38,50,56)" />
<path d="M 31.5 71.5 L 31.666666666666668 72.0 L 32.333333333333336 73.0 L 32.666666666666664 74.0 L 33.333333333333336 75.0 L 33.666666666666664 76.0 L 34.333333333333336 77.0 L 34.666666666666664 78.0 L 35.0 79.0 L 35.333333333333336 80.0 L 35.666666666666664 81.0 L 36.0 82.0 L 36.333333333333336 83.0 L 36.666666666666664 84.0 L 37.0 85.0 L 37.333333333333336 86.0 L 37.666666666666664 87.0 L 38.0 88.0 L 38.333333333333336 89.0 L 38.666666666666664 90.0 L 39.0 91.0 L 39.0 92.0 L 39.333333333333336 93.0 L 39.666666666666664 94.0 L 40.0 95.0 L 40.333333333333336 96.0 L 40.666666666666664 97.0 L 41.0 98.0 L 41.333333333333336 99.0 L 41.666666666666664 100.0 L 42.0 101.0 L 42.333333333333336 102.0 L 42.666666666666664 103.0 L 43.0 104.0 L 43.333333333333336 105.0 L 43.666666666666664 106.0 L 44.333333333333336 107.0 L 44.666666666666664 108.0 L 45.333333333333336 109.0 L 45.666666666666664 110.0 L 46.333333333333336 111.0 L 47.0 112.0 L 48.0 113.0 L 49.0 114.0 L 50.0 115.0 L 51.0 116.0 L 52.0 116.66666666666667 L 53.0 117.0 L 54.0 117.33333333333333 L 55.0 117.66666666666667 L 56.0 118.33333333333333 L 57.0 118.66666666666667 L 58.0 119.33333333333333 L 59.0 119.66666666666667 L 60.0 120.33333333333333 L 61.0 120.66666666666667 L 62.0 121.0 L 63.0 121.33333333333333 L 64.0 121.66666666666667 L 65.0 122.0 L 66.0 122.0 L 67.0 122.0 L 68.0 122.33333333333333 L 69.0 122.66666666666667 L 70.0 123.0 L 71.0 123.0 L 72.0 123.0 L 73.0 123.0 L 74.0 123.33333333333333 L 75.0 123.66666666666667 L 76.0 124.0 L 77.0 124.0 L 78.0 124.0 L 79.0 124.0 L 80.0 124.0 L 81.0 124.0 L 82.0 124.0 L 83.0 124.0 L 84.0 124.0 L 85.0 124.0 L 86.0 124.0 L 87.0 124.0 L 88.0 124.0 L 89.0 124.0 L 90.0 124.0 L 91.0 124.0 L 92.0 124.0 L 93.0 124.0 L 94.0 124.0 L 95.0 124.0 L 96.0 124.0 L 97.0 124.0 L 98.0 124.0 L 99.0 124.0 L 100.0 124.0 L 101.0 124.0 L 102.0 124.0 L 103.0 124.0 L 104.0 124.0 L 105.0 124.0 L 106.0 124.0 L 107.0 123.66666666666667 L 108.0 123.33333333333333 L 109.0 123.0 L 110.0 123.0 L 111.0 123.0 L 112.0 122.66666666666667 L 113.0 122.33333333333333 L 114.0 122.0 L 115.0 121.66666666666667 L 116.0 121.33333333333333 L 117.0 120.66666666666667 L 118.0 120.0 L 118.66666666666667 119.0 L 119.0 118.0 L 118.66666666666667 117.33333333333333 L 118.0 117.0 L 117.0 117.33333333333333 L 116.0 117.66666666666667 L 115.0 118.0 L 114.0 118.33333333333333 L 113.0 118.66666666666667 L 112.0 119.0 L 111.0 119.33333333333333 L 110.0 119.66666666666667 L 109.0 120.0 L 108.0 120.0 L 107.0 120.0 L 106.0 120.0 L 105.0 120.0 L 104.0 120.0 L 103.0 120.0 L 102.0 120.0 L 101.0 120.0 L 100.0 120.0 L 99.0 120.0 L 98.0 120.0 L 97.0 120.0 L 96.0 120.0 L 95.0 120.0 L 94.0 120.0 L 93.0 120.0 L 92.0 120.0 L 91.0 120.0 L 90.0 120.0 L 89.0 120.0 L 88.0 120.0 L 87.0 120.0 L 86.0 120.0 L 85.0 120.0 L 84.0 120.0 L 83.0 120.0 L 82.0 120.0 L 81.0 120.0 L 80.0 120.0 L 79.0 120.0 L 78.0 119.66666666666667 L 77.0 119.33333333333333 L 76.0 119.0 L 75.0 119.0 L 74.0 119.0 L 73.0 119.0 L 72.0 119.0 L 71.0 118.66666666666667 L 70.0 118.33333333333333 L 69.0 118.0 L 68.0 118.0 L 67.0 117.66666666666667 L 66.0 117.33333333333333 L 65.0 117.0 L 64.0 117.0 L 63.0 116.66666666666667 L 62.0 116.33333333333333 L 61.0 115.66666666666667 L 60.0 115.33333333333333 L 59.0 115.0 L 58.0 114.66666666666667 L 57.0 114.33333333333333 L 56.0 113.66666666666667 L 55.0 113.0 L 54.0 112.0 L 53.0 111.0 L 52.0 110.0 L 51.333333333333336 109.0 L 50.666666666666664 108.0 L 50.0 107.0 L 49.333333333333336 106.0 L 48.666666666666664 105.0 L 48.0 104.0 L 47.333333333333336 103.0 L 47.0 102.0 L 46.666666666666664 101.0 L 46.333333333333336 100.0 L 45.666666666666664 99.0 L 45.333333333333336 98.0 L 45.0 97.0 L 44.666666666666664 96.0 L 44.333333333333336 95.0 L 44.0 94.0 L 43.666666666666664 93.0 L 43.333333333333336 92.0 L 43.0 91.0 L 43.0 90.0 L 42.666666666666664 89.0 L 42.333333333333336 88.0 L 42.0 87.0 L 41.666666666666664 86.0 L 41.333333333333336 85.0 L 41.0 84.0 L 41.0 83.0 L 40.666666666666664 82.0 L 40.333333333333336 81.0 L 40.0 80.0 L 39.666666666666664 79.0 L 39.333333333333336 78.0 L 39.0 77.0 L 38.666666666666664 76.0 L 38.333333333333336 75.0 L 37.666666666666664 74.0 L 37.333333333333336 73.0 L 37.0 72.0 L 36.666666666666664 71.0 L 36.333333333333336 70.0 L 35.666666666666664 69.0 L 35.0 68.0 L 34.333333333333336 67.0 L 33.666666666666664 66.0 L 33.0 65.0 L 32.0 64.0 L 31.0 63.0 L 30.0 62.0 L 29.0 61.333333333333336 L 28.0 61.0 L 27.0 61.0 L 26.333333333333332 61.333333333333336 L 26.0 62.0 L 26.333333333333332 63.0 L 27.0 64.0 L 28.0 65.0 L 28.666666666666668 66.0 L 29.333333333333332 67.0 L 29.666666666666668 68.0 L 30.0 69.0 L 30.333333333333332 70.0 L 30.5 70.5 Z" stroke="none" fill="rgb(161,37,36)" />
<path d="M 56.5 87.5 L 57.0 88.0 L 58.0 89.0 L 59.0 90.0 L 60.0 91.0 L 61.0 92.0 L 62.0 92.66666666666667 L 63.0 93.33333333333333 L 64.0 93.66666666666667 L 65.0 94.0 L 66.0 94.33333333333333 L 67.0 94.66666666666667 L 68.0 95.0 L 69.0 95.0 L 70.0 95.0 L 70.66666666666667 94.66666666666667 L 71.0 94.0 L 70.66666666666667 93.0 L 70.0 92.0 L 69.0 91.0 L 68.0 90.0 L 67.0 89.0 L 66.0 88.0 L 65.0 87.0 L 64.33333333333333 86.0 L 63.666666666666664 85.0 L 63.0 84.0 L 62.333333333333336 83.0 L 61.666666666666664 82.0 L 61.0 81.0 L 60.333333333333336 80.0 L 59.666666666666664 79.0 L 59.333333333333336 78.0 L 58.666666666666664 77.0 L 58.333333333333336 76.0 L 57.666666666666664 75.0 L 57.333333333333336 74.0 L 56.666666666666664 73.0 L 56.333333333333336 72.0 L 55.666666666666664 71.0 L 55.333333333333336 70.0 L 54.666666666666664 69.0 L 54.333333333333336 68.0 L 53.666666666666664 67.0 L 53.333333333333336 66.0 L 53.0 65.0 L 52.666666666666664 64.0 L 52.333333333333336 63.0 L 51.666666666666664 62.0 L 51.333333333333336 61.0 L 50.666666666666664 60.0 L 50.333333333333336 59.0 L 49.666666666666664 58.0 L 49.0 57.0 L 48.0 56.333333333333336 L 47.333333333333336 56.333333333333336 L 47.0 57.0 L 47.0 58.0 L 47.0 59.0 L 47.0 60.0 L 47.0 61.0 L 47.0 62.0 L 47.333333333333336 63.0 L 47.666666666666664 64.0 L 48.0 65.0 L 48.0 66.0 L 48.333333333333336 67.0 L 48.666666666666664 68.0 L 49.0 69.0 L 49.0 70.0 L 49.333333333333336 71.0 L 49.666666666666664 72.0 L 50.0 73.0 L 50.0 74.0 L 50.333333333333336 75.0 L 50.666666666666664 76.0 L 51.0 77.0 L 51.333333333333336 78.0 L 51.666666666666664 79.0 L 52.333333333333336 80.0 L 52.666666666666664 81.0 L 53.0 82.0 L 53.333333333333336 83.0 L 54.0 84.0 L 54.666666666666664 85.0 L 55.333333333333336 86.0 L 55.5 86.5 Z" stroke="none" fill="rgb(47,120,137)" />
<path d="M 75.5 114.0 L 76.0 114.33333333333333 L 77.0 114.66666666666667 L 78.0 115.0 L 79.0 115.0 L 80.0 115.0 L 81.0 115.0 L 82.0 115.0 L 83.0 115.0 L 84.0 115.0 L 85.0 115.0 L 86.0 115.0 L 87.0 115.0 L 88.0 115.0 L 89.0 115.0 L 90.0 115.0 L 91.0 115.0 L 92.0 115.0 L 93.0 115.0 L 94.0 115.0 L 95.0 115.0 L 96.0 114.66666666666667 L 96.66666666666667 114.0 L 97.0 113.0 L 96.66666666666667 112.0 L 96.0 111.0 L 95.0 110.0 L 94.0 109.33333333333333 L 93.0 109.0 L 92.0 109.0 L 91.0 108.66666666666667 L 90.0 108.33333333333333 L 89.0 108.0 L 88.0 108.0 L 87.0 108.0 L 86.0 108.0 L 85.0 108.0 L 84.0 108.0 L 83.0 108.0 L 82.0 108.0 L 81.0 108.0 L 80.0 108.0 L 79.0 108.33333333333333 L 78.0 108.66666666666667 L 77.0 109.0 L 76.0 109.0 L 75.0 109.33333333333333 L 74.0 109.66666666666667 L 73.33333333333333 110.33333333333333 L 73.0 111.0 L 73.0 112.0 L 73.33333333333333 113.0 L 74.0 113.66666666666667 L 74.5 114.0 Z" stroke="none" fill="rgb(254,154,153)" />
<path d="M 17.5 41.5 L 18.0 41.0 L 18.666666666666668 40.0 L 19.0 39.0 L 19.0 38.0 L 19.0 37.0 L 19.333333333333332 36.0 L 19.666666666666668 35.0 L 20.0 34.0 L 20.333333333333332 33.0 L 20.666666666666668 32.0 L 21.333333333333332 31.0 L 21.666666666666668 30.0 L 22.0 29.0 L 22.0 28.0 L 22.0 27.0 L 22.0 26.0 L 22.0 25.0 L 21.666666666666668 24.0 L 21.0 23.333333333333332 L 20.0 23.0 L 19.0 23.0 L 18.0 23.0 L 17.0 23.333333333333332 L 16.0 24.0 L 15.0 25.0 L 14.333333333333334 26.0 L 13.666666666666666 27.0 L 13.333333333333334 28.0 L 13.0 29.0 L 13.0 30.0 L 13.0 31.0 L 13.0 32.0 L 13.0 33.0 L 13.0 34.0 L 13.0 35.0 L 13.0 36.0 L 13.0 37.0 L 13.0 38.0 L 13.333333333333334 39.0 L 14.0 40.0 L 15.0 41.0 L 16.0 41.666666666666664 L 16.5 42.0 Z" stroke="none" fill="rgb(255,151,151)" />
<path d="M 20.5 109.0 L 21.0 109.0 L 22.0 109.0 L 23.0 109.0 L 24.0 108.66666666666667 L 25.0 108.33333333333333 L 25.666666666666668 107.66666666666667 L 26.0 107.0 L 26.0 106.0 L 25.666666666666668 105.33333333333333 L 25.0 105.0 L 24.0 105.0 L 23.0 105.0 L 22.0 105.0 L 21.0 105.0 L 20.0 105.0 L 19.0 105.0 L 18.333333333333332 105.33333333333333 L 18.0 106.0 L 18.0 107.0 L 18.333333333333332 107.66666666666667 L 19.0 108.33333333333333 L 19.5 108.5 Z" stroke="none" fill="rgb(161,37,36)" />
</svg>
