<?xml version="1.0" encoding="UTF-8" standalone="no"?>
<!DOCTYPE svg PUBLIC "-//W3C//DTD SVG 1.1//EN"
"http://www.w3.org/Graphics/SVG/1.1/DTD/svg11.dtd">
<svg width="128" height="128" xmlns="http://www.w3.org/2000/svg" version="1.1">
<path d="M 101.5 128.0 L 102.0 128.0 L 103.0 128.0 L 104.0 128.0 L 105.0 128.0 L 106.0 128.0 L 107.0 128.0 L 108.0 128.0 L 109.0 128.0 L 110.0 128.0 L 111.0 128.0 L 112.0 128.0 L 113.0 128.0 L 114.0 128.0 L 115.0 128.0 L 116.0 128.0 L 117.0 128.0 L 118.0 128.0 L 119.0 128.0 L 120.0 128.0 L 121.0 128.0 L 122.0 128.0 L 123.0 128.0 L 124.0 128.0 L 125.0 128.0 L 126.0 128.0 L 127.0 128.0 L 127.66666666666667 127.66666666666667 L 128.0 127.0 L 128.0 126.0 L 128.0 125.0 L 128.0 124.0 L 128.0 123.0 L 128.0 122.0 L 128.0 121.0 L 128.0 120.0 L 128.0 119.0 L 128.0 118.0 L 128.0 117.0 L 128.0 116.0 L 128.0 115.0 L 128.0 114.0 L 128.0 113.0 L 128.0 112.0 L 128.0 111.0 L 128.0 110.0 L 128.0 109.0 L 128.0 108.0 L 128.0 107.0 L 128.0 106.0 L 128.0 105.0 L 128.0 104.0 L 128.0 103.0 L 128.0 102.0 L 128.0 101.0 L 128.0 100.0 L 128.0 99.0 L 128.0 98.0 L 128.0 97.0 L 128.0 96.0 L 128.0 95.0 L 128.0 94.0 L 128.0 93.0 L 128.0 92.0 L 128.0 91.0 L 128.0 90.0 L 128.0 89.0 L 128.0 88.0 L 128.0 87.0 L 128.0 86.0 L 128.0 85.0 L 128.0 84.0 L 128.0 83.0 L 128.0 82.0 L 128.0 81.0 L 128.0 80.0 L 128.0 79.0 L 128.0 78.0 L 128.0 77.0 L 128.0 76.0 L 128.0 75.0 L 128.0 74.0 L 128.0 73.0 L 128.0 72.0 L 128.0 71.0 L 128.0 70.0 L 128.0 69.0 L 128.0 68.0 L 128.0 67.0 L 128.0 66.0 L 128.0 65.0 L 128.0 64.0 L 128.0 63.0 L 128.0 62.0 L 128.0 61.0 L 128.0 60.0 L 128.0 59.0 L 128.0 58.0 L 128.0 57.0 L 128.0 56.0 L 128.0 55.0 L 128.0 54.0 L 128.0 53.0 L 128.0 52.0 L 128.0 51.0 L 128.0 50.0 L 128.0 49.0 L 128.0 48.0 L 128.0 47.0 L 128.0 46.0 L 128.0 45.0 L 128.0 44.0 L 128.0 43.0 L 128.0 42.0 L 128.0 41.0 L 128.0 40.0 L 128.0 39.0 L 128.0 38.0 L 128.0 37.0 L 128.0 36.0 L 128.0 35.0 L 128.0 34.0 L 128.0 33.0 L 128.0 32.0 L 128.0 31.0 L 128.0 30.0 L 128.0 29.0 L 128.0 28.0 L 128.0 27.0 L 128.0 26.0 L 128.0 25.0 L 128.0 24.0 L 128.0 23.0 L 128.0 22.0 L 128.0 21.0 L 128.0 20.0 L 128.0 19.0 L 128.0 18.0 L 128.0 17.0 L 128.0 16.0 L 128.0 15.0 L 128.0 14.0 L 128.0 13.0 L 128.0 12.0 L 128.0 11.0 L 128.0 10.0 L 128.0 9.0 L 128.0 8.0 L 128.0 7.0 L 128.0 6.0 L 128.0 5.0 L 128.0 4.0 L 128.0 3.0 L 128.0 2.0 L 128.0 1.0 L 127.66666666666667 0.3333333333333333 L 127.0 0.0 L 126.0 0.0 L 125.0 0.0 L 124.0 0.0 L 123.0 0.0 L 122.0 0.0 L 121.0 0.0 L 120.0 0.0 L 119.0 0.0 L 118.0 0.0 L 117.0 0.0 L 116.0 0.0 L 115.0 0.0 L 114.0 0.0 L 113.0 0.0 L 112.0 0.0 L 111.0 0.0 L 110.0 0.0 L 109.0 0.0 L 108.0 0.0 L 107.0 0.0 L 106.0 0.0 L 105.0 0.0 L 104.0 0.0 L 103.0 0.0 L 102.0 0.0 L 101.0 0.0 L 100.0 0.0 L 99.0 0.0 L 98.0 0.0 L 97.0 0.0 L 96.0 0.0 L 95.0 0.0 L 94.0 0.0 L 93.0 0.0 L 92.0 0.0 L 91.0 0.0 L 90.0 0.0 L 89.0 0.0 L 88.0 0.0 L 87.0 0.0 L 86.0 0.0 L 85.0 0.0 L 84.0 0.0 L 83.0 0.0 L 82.0 0.0 L 81.0 0.0 L 80.0 0.0 L 79.0 0.0 L 78.0 0.0 L 77.0 0.0 L 76.0 0.0 L 75.0 0.0 L 74.0 0.0 L 73.0 0.0 L 72.0 0.0 L 71.0 0.0 L 70.0 0.0 L 69.0 0.0 L 68.0 0.0 L 67.0 0.0 L 66.0 0.0 L 65.0 0.0 L 64.0 0.0 L 63.0 0.0 L 62.0 0.0 L 61.0 0.0 L 60.0 0.0 L 59.0 0.0 L 58.0 0.0 L 57.0 0.0 L 56.0 0.0 L 55.0 0.0 L 54.0 0.0 L 53.0 0.0 L 52.0 0.0 L 51.0 0.0 L 50.0 0.0 L 49.0 0.0 L 48.0 0.0 L 47.0 0.0 L 46.0 0.0 L 45.0 0.0 L 44.0 0.0 L 43.0 0.0 L 42.0 0.0 L 41.0 0.0 L 40.0 0.0 L 39.0 0.0 L 38.0 0.0 L 37.0 0.0 L 36.0 0.0 L 35.0 0.0 L 34.0 0.0 L 33.0 0.0 L 32.0 0.0 L 31.0 0.0 L 30.0 0.0 L 29.0 0.0 L 28.0 0.0 L 27.0 0.0 L 26.0 0.0 L 25.0 0.0 L 24.0 0.0 L 23.0 0.0 L 22.0 0.0 L 21.0 0.0 L 20.0 0.0 L 19.0 0.0 L 18.0 0.0 L 17.0 0.0 L 16.0 0.0 L 15.0 0.0 L 14.0 0.0 L 13.0 0.0 L 12.0 0.0 L 11.0 0.0 L 10.0 0.0 L 9.0 0.0 L 8.0 0.0 L 7.0 0.0 L 6.0 0.0 L 5.0 0.0 L 4.0 0.0 L 3.0 0.0 L 2.0 0.0 L 1.0 0.0 L 0.3333333333333333 0.3333333333333333 L 0.0 1.0 L 0.0 2.0 L 0.0 3.0 L 0.0 4.0 L 0.0 5.0 L 0.0 6.0 L 0.0 7.0 L 0.0 8.0 L 0.0 9.0 L 0.0 10.0 L 0.0 11.0 L 0.0 12.0 L 0.0 13.0 L 0.0 14.0 L 0.0 15.0 L 0.0 16.0 L 0.0 17.0 L 0.0 18.0 L 0.0 19.0 L 0.0 20.0 L 0.0 21.0 L 0.0 22.0 L 0.0 23.0 L 0.0 24.0 L 0.0 25.0 L 0.0 26.0 L 0.0 27.0 L 0.0 28.0 L 0.0 29.0 L 0.0 30.0 L 0.0 31.0 L 0.0 32.0 L 0.0 33.0 L 0.0 34.0 L 0.0 35.0 L 0.0 36.0 L 0.0 37.0 L 0.0 38.0 L 0.0 39.0 L 0.0 40.0 L 0.0 41.0 L 0.0 42.0 L 0.0 43.0 L 0.0 44.0 L 0.0 45.0 L 0.0 46.0 L 0.0 47.0 L 0.0 48.0 L 0.0 49.0 L 0.0 50.0 L 0.0 51.0 L 0.0 52.0 L 0.0 53.0 L 0.0 54.0 L 0.0 55.0 L 0.0 56.0 L 0.0 57.0 L 0.0 58.0 L 0.0 59.0 L 0.0 60.0 L 0.0 61.0 L 0.0 62.0 L 0.0 63.0 L 0.0 64.0 L 0.0 65.0 L 0.0 66.0 L 0.0 67.0 L 0.0 68.0 L 0.0 69.0 L 0.0 70.0 L 0.0 71.0 L 0.0 72.0 L 0.0 73.0 L 0.0 74.0 L 0.0 75.0 L 0.0 76.0 L 0.0 77.0 L 0.0 78.0 L 0.0 79.0 L 0.0 80.0 L 0.0 81.0 L 0.0 82.0 L 0.0 83.0 L 0.0 84.0 L 0.0 85.0 L 0.0 86.0 L 0.0 87.0 L 0.0 88.0 L 0.0 89.0 L 0.0 90.0 L 0.0 91.0 L 0.0 92.0 L 0.0 93.0 L 0.0 94.0 L 0.0 95.0 L 0.0 96.0 L 0.0 97.0 L 0.0 98.0 L 0.0 99.0 L 0.0 100.0 L 0.0 101.0 L 0.0 102.0 L 0.0 103.0 L 0.0 104.0 L 0.0 105.0 L 0.0 106.0 L 0.0 107.0 L 0.0 108.0 L 0.0 109.0 L 0.0 110.0 L 0.0 111.0 L 0.0 112.0 L 0.0 113.0 L 0.0 114.0 L 0.0 115.0 L 0.0 116.0 L 0.0 117.0 L 0.0 118.0 L 0.0 119.0 L 0.0 120.0 L 0.0 121.0 L 0.0 122.0 L 0.0 123.0 L 0.0 124.0 L 0.0 125.0 L 0.0 126.0 L 0.0 127.0 L 0.3333333333333333 127.66666666666667 L 1.0 128.0 L 2.0 128.0 L 3.0 128.0 L 4.0 128.0 L 5.0 128.0 L 6.0 128.0 L 7.0 128.0 L 8.0 128.0 L 9.0 128.0 L 10.0 128.0 L 11.0 128.0 L 12.0 128.0 L 13.0 128.0 L 14.0 128.0 L 15.0 128.0 L 16.0 128.0 L 17.0 128.0 L 18.0 128.0 L 19.0 128.0 L 20.0 128.0 L 21.0 128.0 L 22.0 128.0 L 23.0 128.0 L 24.0 128.0 L 25.0 128.0 L 26.0 128.0 L 27.0 128.0 L 28.0 128.0 L 29.0 128.0 L 30.0 128.0 L 31.0 128.0 L 32.0 128.0 L 33.0 128.0 L 34.0 128.0 L 35.0 128.0 L 36.0 128.0 L 37.0 128.0 L 38.0 128.0 L 39.0 128.0 L 40.0 128.0 L 41.0 128.0 L 42.0 128.0 L 43.0 128.0 L 44.0 128.0 L 45.0 128.0 L 46.0 128.0 L 47.0 128.0 L 48.0 128.0 L 49.0 128.0 L 50.0 128.0 L 51.0 128.0 L 52.0 128.0 L 53.0 128.0 L 54.0 128.0 L 55.0 128.0 L 56.0 128.0 L 57.0 128.0 L 58.0 128.0 L 59.0 128.0 L 60.0 128.0 L 61.0 128.0 L 62.0 128.0 L 63.0 128.0 L 64.0 128.0 L 65.0 128.0 L 66.0 128.0 L 67.0 128.0 L 68.0 128.0 L 69.0 128.0 L 70.0 128.0 L 71.0 128.0 L 72.0 128.0 L 73.0 128.0 L 74.0 128.0 L 75.0 128.0 L 76.0 128.0 L 77.0 128.0 L 78.0 128.0 L 79.0 128.0 L 80.0 128.0 L 81.0 128.0 L 82.0 128.0 L 83.0 128.0 L 84.0 128.0 L 85.0 128.0 L 86.0 128.0 L 87.0 128.0 L 88.0 128.0 L 89.0 128.0 L 90.0 128.0 L 91.0 128.0 L 92.0 128.0 L 93.0 128.0 L 94.0 128.0 L 95.0 128.0 L 96.0 128.0 L 97.0 128.0 L 98.0 128.0 L 99.0 128.0 L 100.0 128.0 L 100.5 128.0 Z" stroke="none" fill="rgb(0,0,0)" />
<path d="M 55.5 8.5 L 56.0 9.0 L 57.0 10.0 L 58.0 11.0 L 58.666666666666664 12.0 L 59.333333333333336 13.0 L 60.0 14.0 L 60.666666666666664 15.0 L 61.0 16.0 L 61.333333333333336 16.666666666666668 L 62.0 17.0 L 63.0 16.666666666666668 L 63.666666666666664 16.0 L 64.0 15.0 L 64.0 14.0 L 64.0 13.0 L 63.666666666666664 12.0 L 63.333333333333336 11.0 L 62.666666666666664 10.0 L 62.333333333333336 9.0 L 61.666666666666664 8.0 L 61.0 7.0 L 60.0 6.333333333333333 L 59.0 5.666666666666667 L 58.0 5.333333333333333 L 57.0 4.666666666666667 L 56.0 4.333333333333333 L 55.0 4.0 L 54.0 3.6666666666666665 L 53.0 3.3333333333333335 L 52.0 3.0 L 51.0 3.0 L 50.0 3.0 L 49.0 3.0 L 48.0 3.0 L 47.0 3.0 L 46.333333333333336 3.3333333333333335 L 46.0 4.0 L 46.333333333333336 4.666666666666667 L 47.0 5.0 L 48.0 5.0 L 49.0 5.0 L 50.0 5.333333333333333 L 51.0 5.666666666666667 L 52.0 6.333333333333333 L 53.0 6.666666666666667 L 54.0 7.333333333333333 L 54.5 7.5 Z" stroke="none" fill="rgb(218,47,117)" />
<path d="M 88.5 34.5 L 88.66666666666667 34.0 L 89.33333333333333 33.0 L 89.66666666666667 32.0 L 90.33333333333333 31.0 L 90.66666666666667 30.0 L 91.33333333333333 29.0 L 91.66666666666667 28.0 L 92.0 27.0 L 92.33333333333333 26.0 L 92.66666666666667 25.0 L 93.0 24.0 L 93.0 23.0 L 93.0 22.0 L 93.0 21.0 L 93.0 20.0 L 93.0 19.0 L 93.0 18.0 L 93.0 17.0 L 93.0 16.0 L 93.0 15.0 L 93.0 14.0 L 92.66666666666667 13.0 L 92.33333333333333 12.0 L 91.66666666666667 11.0 L 91.0 10.0 L 90.0 9.0 L 89.0 8.0 L 88.0 7.0 L 87.0 6.0 L 86.0 5.333333333333333 L 85.0 4.666666666666667 L 84.0 4.333333333333333 L 83.0 4.0 L 82.0 3.6666666666666665 L 81.0 3.3333333333333335 L 80.0 3.0 L 79.0 3.0 L 78.0 3.0 L 77.0 3.0 L 76.33333333333333 3.3333333333333335 L 76.0 4.0 L 76.33333333333333 4.666666666666667 L 77.0 5.0 L 78.0 5.0 L 79.0 5.333333333333333 L 80.0 5.666666666666667 L 81.0 6.333333333333333 L 82.0 6.666666666666667 L 83.0 7.333333333333333 L 84.0 8.0 L 85.0 9.0 L 86.0 10.0 L 86.66666666666667 11.0 L 87.33333333333333 12.0 L 87.66666666666667 13.0 L 88.0 14.0 L 88.0 15.0 L 88.0 16.0 L 88.0 17.0 L 88.0 18.0 L 88.0 19.0 L 88.0 20.0 L 88.0 21.0 L 88.0 22.0 L 88.0 23.0 L 88.0 24.0 L 87.66666666666667 25.0 L 87.33333333333333 26.0 L 86.66666666666667 27.0 L 86.33333333333333 28.0 L 85.66666666666667 29.0 L 85.33333333333333 30.0 L 84.66666666666667 31.0 L 84.33333333333333 32.0 L 83.66666666666667 33.0 L 83.0 34.0 L 82.0 35.0 L 81.33333333333333 36.0 L 80.66666666666667 37.0 L 80.0 38.0 L 79.0 39.0 L 78.0 40.0 L 77.33333333333333 41.0 L 76.66666666666667 42.0 L 76.0 43.0 L 75.0 44.0 L 74.0 45.0 L 73.0 46.0 L 72.0 47.0 L 71.0 48.0 L 70.0 49.0 L 69.0 50.0 L 68.0 51.0 L 67.0 52.0 L 66.0 53.0 L 65.33333333333333 54.0 L 65.0 55.0 L 65.33333333333333 55.666666666666664 L 66.0 56.0 L 67.0 55.666666666666664 L 68.0 55.0 L 69.0 54.0 L 70.0 53.0 L 71.0 52.333333333333336 L 72.0 51.666666666666664 L 73.0 51.0 L 74.0 50.0 L 75.0 49.0 L 76.0 48.0 L 77.0 47.0 L 78.0 46.0 L 79.0 45.0 L 80.0 44.0 L 81.0 43.0 L 82.0 42.0 L 83.0 41.0 L 84.0 40.0 L 85.0 39.0 L 85.66666666666667 38.0 L 86.33333333333333 37.0 L 87.0 36.0 L 87.5 35.5 Z" stroke="none" fill="rgb(218,47,117)" />
<path d="M 88.0 25.5 L 88.0 25.0 L 88.0 24.0 L 88.0 23.0 L 88.0 22.0 L 88.0 21.0 L 88.0 20.0 L 88.0 19.0 L 88.0 18.0 L 88.0 17.0 L 88.0 16.0 L 88.0 15.0 L 88.0 14.0 L 88.0 13.0 L 87.66666666666667 12.0 L 87.33333333333333 11.0 L 86.66666666666667 10.0 L 86.0 9.0 L 85.0 8.0 L 84.0 7.333333333333333 L 83.0 6.666666666666667 L 82.0 6.333333333333333 L 81.0 5.666666666666667 L 80.0 5.333333333333333 L 79.0 5.0 L 78.0 5.0 L 77.0 5.0 L 76.0 5.0 L 75.0 5.0 L 74.0 5.0 L 73.0 5.0 L 72.0 5.0 L 71.0 5.0 L 70.0 5.333333333333333 L 69.0 6.0 L 68.0 7.0 L 67.0 8.0 L 66.0 9.0 L 65.33333333333333 10.0 L 64.66666666666667 11.0 L 64.33333333333333 12.0 L 64.0 13.0 L 64.0 14.0 L 63.666666666666664 15.0 L 63.0 16.0 L 62.0 16.333333333333332 L 61.333333333333336 16.0 L 61.0 15.0 L 60.666666666666664 14.0 L 60.0 13.0 L 59.333333333333336 12.0 L 58.666666666666664 11.0 L 58.0 10.0 L 57.0 9.0 L 56.0 8.0 L 55.0 7.333333333333333 L 54.0 6.666666666666667 L 53.0 6.333333333333333 L 52.0 5.666666666666667 L 51.0 5.333333333333333 L 50.0 5.0 L 49.0 5.0 L 48.0 5.0 L 47.0 5.0 L 46.0 5.0 L 45.0 5.333333333333333 L 44.0 5.666666666666667 L 43.0 6.0 L 42.0 6.333333333333333 L 41.0 6.666666666666667 L 40.0 7.0 L 39.0 7.333333333333333 L 38.0 8.0 L 37.0 9.0 L 36.333333333333336 10.0 L 36.0 11.0 L 35.666666666666664 12.0 L 35.333333333333336 13.0 L 35.0 14.0 L 35.0 15.0 L 35.0 16.0 L 35.0 17.0 L 35.0 18.0 L 35.0 19.0 L 35.0 20.0 L 35.0 21.0 L 35.0 22.0 L 35.0 23.0 L 35.0 24.0 L 35.333333333333336 25.0 L 35.666666666666664 26.0 L 36.0 27.0 L 36.333333333333336 28.0 L 36.666666666666664 29.0 L 37.333333333333336 30.0 L 37.666666666666664 31.0 L 38.333333333333336 32.0 L 38.666666666666664 33.0 L 39.333333333333336 34.0 L 40.0 35.0 L 41.0 36.0 L 41.666666666666664 37.0 L 42.333333333333336 38.0 L 43.0 39.0 L 44.0 40.0 L 45.0 41.0 L 46.0 42.0 L 47.0 43.0 L 48.0 44.0 L 49.0 45.0 L 50.0 46.0 L 51.0 47.0 L 52.0 48.0 L 53.0 49.0 L 54.0 50.0 L 55.0 51.0 L 56.0 51.666666666666664 L 57.0 52.333333333333336 L 58.0 53.0 L 59.0 54.0 L 60.0 55.0 L 61.0 55.666666666666664 L 62.0 56.333333333333336 L 63.0 56.666666666666664 L 64.0 56.666666666666664 L 64.66666666666667 56.0 L 65.33333333333333 55.0 L 66.0 54.0 L 67.0 53.0 L 68.0 52.0 L 69.0 51.0 L 70.0 50.0 L 71.0 49.0 L 72.0 48.0 L 73.0 47.0 L 74.0 46.0 L 75.0 45.0 L 76.0 44.0 L 76.66666666666667 43.0 L 77.33333333333333 42.0 L 78.0 41.0 L 79.0 40.0 L 80.0 39.0 L 80.66666666666667 38.0 L 81.33333333333333 37.0 L 82.0 36.0 L 83.0 35.0 L 83.66666666666667 34.0 L 84.33333333333333 33.0 L 84.66666666666667 32.0 L 85.33333333333333 31.0 L 85.66666666666667 30.0 L 86.33333333333333 29.0 L 86.66666666666667 28.0 L 87.33333333333333 27.0 L 87.5 26.5 Z" stroke="none" fill="rgb(239,85,146)" />
<path d="M 46.5 16.5 L 47.0 16.0 L 48.0 15.0 L 49.0 14.0 L 49.666666666666664 13.0 L 50.0 12.0 L 50.0 11.0 L 49.666666666666664 10.0 L 49.0 9.0 L 48.0 8.333333333333334 L 47.0 8.0 L 46.0 8.333333333333334 L 45.0 8.666666666666666 L 44.0 9.0 L 43.0 9.333333333333334 L 42.0 10.0 L 41.333333333333336 11.0 L 40.666666666666664 12.0 L 40.333333333333336 13.0 L 40.0 14.0 L 40.0 15.0 L 40.0 16.0 L 40.0 17.0 L 40.0 18.0 L 40.0 19.0 L 40.0 20.0 L 40.333333333333336 21.0 L 40.666666666666664 22.0 L 41.333333333333336 22.666666666666668 L 42.0 23.0 L 42.666666666666664 22.666666666666668 L 43.333333333333336 22.0 L 43.666666666666664 21.0 L 44.0 20.0 L 44.333333333333336 19.0 L 45.0 18.0 L 45.5 17.5 Z" stroke="none" fill="rgb(243,133,170)" />
<path d="M 71.5 16.0 L 72.0 16.0 L 73.0 16.0 L 74.0 15.666666666666666 L 75.0 15.333333333333334 L 76.0 14.666666666666666 L 77.0 14.0 L 77.66666666666667 13.0 L 78.0 12.0 L 78.0 11.0 L 78.0 10.0 L 77.66666666666667 9.0 L 77.0 8.333333333333334 L 76.0 8.0 L 75.0 8.0 L 74.0 8.333333333333334 L 73.0 8.666666666666666 L 72.0 9.333333333333334 L 71.33333333333333 10.0 L 70.66666666666667 11.0 L 70.33333333333333 12.0 L 69.66666666666667 13.0 L 69.33333333333333 14.0 L 69.0 15.0 L 69.33333333333333 15.666666666666666 L 70.0 16.0 L 70.5 16.0 Z" stroke="none" fill="rgb(243,133,170)" />
<path d="M 23.5 53.5 L 24.0 53.0 L 25.0 52.333333333333336 L 26.0 52.0 L 27.0 51.666666666666664 L 28.0 51.333333333333336 L 29.0 51.0 L 30.0 50.666666666666664 L 31.0 50.333333333333336 L 32.0 50.0 L 33.0 50.0 L 34.0 50.0 L 35.0 50.0 L 36.0 50.0 L 37.0 50.0 L 38.0 50.333333333333336 L 39.0 50.666666666666664 L 40.0 51.0 L 41.0 51.0 L 42.0 51.333333333333336 L 43.0 51.666666666666664 L 44.0 52.333333333333336 L 45.0 52.666666666666664 L 46.0 53.333333333333336 L 47.0 54.0 L 48.0 55.0 L 49.0 55.666666666666664 L 50.0 56.333333333333336 L 51.0 57.0 L 52.0 58.0 L 52.666666666666664 59.0 L 53.333333333333336 60.0 L 54.0 61.0 L 55.0 62.0 L 55.666666666666664 63.0 L 56.333333333333336 64.0 L 56.666666666666664 65.0 L 57.333333333333336 66.0 L 57.666666666666664 67.0 L 58.333333333333336 68.0 L 58.666666666666664 69.0 L 59.333333333333336 70.0 L 59.666666666666664 71.0 L 60.0 72.0 L 60.333333333333336 73.0 L 61.0 73.66666666666667 L 61.666666666666664 73.66666666666667 L 62.0 73.0 L 62.0 72.0 L 62.0 71.0 L 62.0 70.0 L 62.0 69.0 L 62.0 68.0 L 61.666666666666664 67.0 L 61.333333333333336 66.0 L 61.0 65.0 L 60.666666666666664 64.0 L 60.333333333333336 63.0 L 60.0 62.0 L 59.666666666666664 61.0 L 59.0 60.0 L 58.333333333333336 59.0 L 57.666666666666664 58.0 L 57.0 57.0 L 56.0 56.0 L 55.0 55.0 L 54.0 54.0 L 53.0 53.0 L 52.0 52.0 L 51.0 51.333333333333336 L 50.0 50.666666666666664 L 49.0 50.333333333333336 L 48.0 49.666666666666664 L 47.0 49.333333333333336 L 46.0 49.0 L 45.0 48.666666666666664 L 44.0 48.333333333333336 L 43.0 48.0 L 42.0 48.0 L 41.0 47.666666666666664 L 40.0 47.333333333333336 L 39.0 47.0 L 38.0 47.0 L 37.0 47.0 L 36.0 47.0 L 35.0 47.0 L 34.0 47.0 L 33.0 47.0 L 32.0 47.0 L 31.0 47.0 L 30.0 47.0 L 29.0 47.0 L 28.0 47.0 L 27.0 47.333333333333336 L 26.0 47.666666666666664 L 25.0 48.0 L 24.0 48.333333333333336 L 23.0 48.666666666666664 L 22.0 49.0 L 21.0 49.333333333333336 L 20.0 50.0 L 19.0 50.666666666666664 L 18.0 51.333333333333336 L 17.0 52.0 L 16.0 53.0 L 15.0 54.0 L 14.0 55.0 L 13.0 56.0 L 12.0 57.0 L 11.333333333333334 58.0 L 10.666666666666666 59.0 L 10.333333333333334 60.0 L 9.666666666666666 61.0 L 9.333333333333334 62.0 L 8.666666666666666 63.0 L 8.333333333333334 64.0 L 7.666666666666667 65.0 L 7.333333333333333 66.0 L 6.666666666666667 67.0 L 6.333333333333333 68.0 L 6.0 69.0 L 6.0 70.0 L 5.666666666666667 71.0 L 5.333333333333333 72.0 L 5.0 73.0 L 5.0 74.0 L 5.0 75.0 L 4.666666666666667 76.0 L 4.333333333333333 77.0 L 4.0 78.0 L 4.0 79.0 L 4.0 80.0 L 4.0 81.0 L 4.0 82.0 L 4.333333333333333 82.66666666666667 L 5.0 82.66666666666667 L 6.0 82.33333333333333 L 6.666666666666667 81.66666666666667 L 7.0 81.0 L 6.666666666666667 80.0 L 6.333333333333333 79.0 L 6.333333333333333 78.0 L 6.666666666666667 77.0 L 7.0 76.0 L 7.333333333333333 75.0 L 7.666666666666667 74.0 L 8.0 73.0 L 8.333333333333334 72.0 L 8.666666666666666 71.0 L 9.333333333333334 70.0 L 9.666666666666666 69.0 L 10.333333333333334 68.0 L 10.666666666666666 67.0 L 11.333333333333334 66.0 L 11.666666666666666 65.0 L 12.333333333333334 64.0 L 13.0 63.0 L 14.0 62.0 L 14.666666666666666 61.0 L 15.333333333333334 60.0 L 16.0 59.0 L 17.0 58.0 L 18.0 57.0 L 19.0 56.333333333333336 L 20.0 55.666666666666664 L 21.0 55.0 L 22.0 54.333333333333336 L 22.5 54.0 Z" stroke="none" fill="rgb(109,76,64)" />
<path d="M 105.5 53.5 L 106.0 54.0 L 107.0 54.666666666666664 L 108.0 55.333333333333336 L 109.0 56.0 L 110.0 57.0 L 111.0 58.0 L 112.0 59.0 L 113.0 60.0 L 113.66666666666667 61.0 L 114.33333333333333 62.0 L 115.0 63.0 L 115.66666666666667 64.0 L 116.33333333333333 65.0 L 117.0 66.0 L 117.66666666666667 67.0 L 118.33333333333333 68.0 L 118.66666666666667 69.0 L 119.33333333333333 70.0 L 119.66666666666667 71.0 L 120.0 72.0 L 120.33333333333333 73.0 L 120.66666666666667 74.0 L 121.0 75.0 L 121.33333333333333 76.0 L 121.66666666666667 77.0 L 122.0 78.0 L 122.0 79.0 L 122.33333333333333 80.0 L 123.0 80.66666666666667 L 123.66666666666667 80.66666666666667 L 124.0 80.0 L 124.0 79.0 L 124.0 78.0 L 123.66666666666667 77.0 L 123.33333333333333 76.0 L 123.0 75.0 L 123.0 74.0 L 123.0 73.0 L 122.66666666666667 72.0 L 122.33333333333333 71.0 L 122.0 70.0 L 122.0 69.0 L 121.66666666666667 68.0 L 121.33333333333333 67.0 L 120.66666666666667 66.0 L 120.33333333333333 65.0 L 120.0 64.0 L 119.66666666666667 63.0 L 119.0 62.0 L 118.33333333333333 61.0 L 117.66666666666667 60.0 L 117.33333333333333 59.0 L 116.66666666666667 58.0 L 116.0 57.0 L 115.0 56.0 L 114.0 55.0 L 113.0 54.0 L 112.0 53.0 L 111.0 52.0 L 110.0 51.333333333333336 L 109.0 50.666666666666664 L 108.0 50.0 L 107.0 49.333333333333336 L 106.0 49.0 L 105.0 48.666666666666664 L 104.0 48.333333333333336 L 103.0 48.0 L 102.0 47.666666666666664 L 101.0 47.333333333333336 L 100.0 47.0 L 99.0 47.0 L 98.0 47.0 L 97.0 47.0 L 96.0 47.0 L 95.0 47.0 L 94.0 47.0 L 93.0 47.0 L 92.0 47.0 L 91.0 47.0 L 90.0 47.0 L 89.0 47.0 L 88.0 47.333333333333336 L 87.0 47.666666666666664 L 86.0 48.0 L 85.0 48.0 L 84.0 48.333333333333336 L 83.0 48.666666666666664 L 82.0 49.0 L 81.0 49.333333333333336 L 80.0 49.666666666666664 L 79.0 50.333333333333336 L 78.0 50.666666666666664 L 77.0 51.333333333333336 L 76.0 52.0 L 75.0 53.0 L 74.0 54.0 L 73.0 55.0 L 72.0 56.0 L 71.0 57.0 L 70.33333333333333 58.0 L 69.66666666666667 59.0 L 69.0 60.0 L 68.33333333333333 61.0 L 68.0 62.0 L 67.66666666666667 63.0 L 67.33333333333333 64.0 L 67.0 65.0 L 66.66666666666667 66.0 L 66.33333333333333 67.0 L 66.0 68.0 L 66.0 69.0 L 66.0 70.0 L 66.0 71.0 L 66.0 72.0 L 66.0 73.0 L 66.0 74.0 L 66.33333333333333 74.66666666666667 L 67.0 74.66666666666667 L 67.66666666666667 74.0 L 68.0 73.0 L 68.33333333333333 72.0 L 68.66666666666667 71.0 L 69.0 70.0 L 69.33333333333333 69.0 L 69.66666666666667 68.0 L 70.33333333333333 67.0 L 70.66666666666667 66.0 L 71.33333333333333 65.0 L 72.0 64.0 L 72.66666666666667 63.0 L 73.33333333333333 62.0 L 74.0 61.0 L 75.0 60.0 L 76.0 59.0 L 77.0 58.0 L 78.0 57.0 L 79.0 56.0 L 80.0 55.0 L 81.0 54.333333333333336 L 82.0 53.666666666666664 L 83.0 53.0 L 84.0 52.333333333333336 L 85.0 52.0 L 86.0 51.666666666666664 L 87.0 51.333333333333336 L 88.0 51.0 L 89.0 50.666666666666664 L 90.0 50.333333333333336 L 91.0 50.0 L 92.0 50.0 L 93.0 50.0 L 94.0 50.0 L 95.0 50.0 L 96.0 50.0 L 97.0 50.333333333333336 L 98.0 50.666666666666664 L 99.0 51.0 L 100.0 51.0 L 101.0 51.333333333333336 L 102.0 51.666666666666664 L 103.0 52.333333333333336 L 104.0 52.666666666666664 L 104.5 53.0 Z" stroke="none" fill="rgb(109,76,64)" />
<path d="M 40.5 53.0 L 41.0 53.0 L 42.0 53.333333333333336 L 43.0 53.666666666666664 L 44.0 54.333333333333336 L 45.0 54.666666666666664 L 46.0 55.333333333333336 L 47.0 56.0 L 48.0 57.0 L 49.0 58.0 L 50.0 59.0 L 51.0 60.0 L 52.0 61.0 L 53.0 62.0 L 54.0 63.0 L 54.666666666666664 64.0 L 55.333333333333336 65.0 L 55.666666666666664 66.0 L 56.333333333333336 67.0 L 56.666666666666664 68.0 L 57.333333333333336 69.0 L 57.666666666666664 70.0 L 58.333333333333336 71.0 L 58.666666666666664 72.0 L 59.0 73.0 L 59.333333333333336 74.0 L 59.666666666666664 75.0 L 60.0 76.0 L 60.0 77.0 L 60.0 78.0 L 60.333333333333336 79.0 L 61.0 79.66666666666667 L 61.666666666666664 79.66666666666667 L 62.0 79.0 L 62.0 78.0 L 62.0 77.0 L 62.0 76.0 L 62.0 75.0 L 61.666666666666664 74.0 L 61.0 73.0 L 60.333333333333336 72.0 L 60.0 71.0 L 59.666666666666664 70.0 L 59.333333333333336 69.0 L 58.666666666666664 68.0 L 58.333333333333336 67.0 L 57.666666666666664 66.0 L 57.333333333333336 65.0 L 56.666666666666664 64.0 L 56.333333333333336 63.0 L 55.666666666666664 62.0 L 55.0 61.0 L 54.0 60.0 L 53.333333333333336 59.0 L 52.666666666666664 58.0 L 52.0 57.0 L 51.0 56.333333333333336 L 50.0 55.666666666666664 L 49.0 55.0 L 48.0 54.0 L 47.0 53.333333333333336 L 46.0 52.666666666666664 L 45.0 52.333333333333336 L 44.0 51.666666666666664 L 43.0 51.333333333333336 L 42.0 51.0 L 41.0 51.0 L 40.0 50.666666666666664 L 39.0 50.333333333333336 L 38.0 50.0 L 37.0 50.0 L 36.0 50.0 L 35.0 50.0 L 34.0 50.0 L 33.0 50.0 L 32.0 50.0 L 31.0 50.0 L 30.0 50.333333333333336 L 29.0 50.666666666666664 L 28.0 51.0 L 27.0 51.333333333333336 L 26.0 51.666666666666664 L 25.0 52.0 L 24.0 52.333333333333336 L 23.0 53.0 L 22.0 53.666666666666664 L 21.0 54.333333333333336 L 20.0 55.0 L 19.0 55.666666666666664 L 18.0 56.333333333333336 L 17.0 57.0 L 16.0 58.0 L 15.333333333333334 59.0 L 14.666666666666666 60.0 L 14.0 61.0 L 13.0 62.0 L 12.333333333333334 63.0 L 11.666666666666666 64.0 L 11.333333333333334 65.0 L 10.666666666666666 66.0 L 10.333333333333334 67.0 L 9.666666666666666 68.0 L 9.333333333333334 69.0 L 8.666666666666666 70.0 L 8.333333333333334 71.0 L 8.0 72.0 L 7.666666666666667 73.0 L 7.333333333333333 74.0 L 7.0 75.0 L 6.666666666666667 76.0 L 6.333333333333333 77.0 L 6.0 78.0 L 6.0 79.0 L 6.333333333333333 79.66666666666667 L 7.0 79.66666666666667 L 7.666666666666667 79.0 L 8.0 78.0 L 8.0 77.0 L 8.333333333333334 76.0 L 8.666666666666666 75.0 L 9.0 74.0 L 9.333333333333334 73.0 L 9.666666666666666 72.0 L 10.333333333333334 71.0 L 10.666666666666666 70.0 L 11.333333333333334 69.0 L 11.666666666666666 68.0 L 12.333333333333334 67.0 L 12.666666666666666 66.0 L 13.333333333333334 65.0 L 14.0 64.0 L 15.0 63.0 L 16.0 62.0 L 17.0 61.0 L 18.0 60.0 L 19.0 59.0 L 20.0 58.0 L 21.0 57.0 L 22.0 56.0 L 23.0 55.333333333333336 L 24.0 54.666666666666664 L 25.0 54.333333333333336 L 26.0 53.666666666666664 L 27.0 53.333333333333336 L 28.0 53.0 L 29.0 52.666666666666664 L 30.0 52.333333333333336 L 31.0 52.0 L 32.0 52.0 L 33.0 52.0 L 34.0 52.0 L 35.0 52.0 L 36.0 52.0 L 37.0 52.0 L 38.0 52.0 L 39.0 52.333333333333336 L 39.5 52.5 Z" stroke="none" fill="rgb(103,72,61)" />
<path d="M 110.5 59.5 L 111.0 60.0 L 112.0 61.0 L 112.66666666666667 62.0 L 113.33333333333333 63.0 L 114.0 64.0 L 114.66666666666667 65.0 L 115.33333333333333 66.0 L 116.0 67.0 L 116.66666666666667 68.0 L 117.33333333333333 69.0 L 117.66666666666667 70.0 L 118.0 71.0 L 118.33333333333333 72.0 L 118.66666666666667 73.0 L 119.33333333333333 74.0 L 119.66666666666667 75.0 L 120.0 76.0 L 120.33333333333333 77.0 L 121.0 77.66666666666667 L 121.66666666666667 77.66666666666667 L 122.0 77.0 L 121.66666666666667 76.0 L 121.33333333333333 75.0 L 121.0 74.0 L 120.66666666666667 73.0 L 120.33333333333333 72.0 L 120.0 71.0 L 119.66666666666667 70.0 L 119.33333333333333 69.0 L 118.66666666666667 68.0 L 118.33333333333333 67.0 L 117.66666666666667 66.0 L 117.0 65.0 L 116.33333333333333 64.0 L 115.66666666666667 63.0 L 115.0 62.0 L 114.33333333333333 61.0 L 113.66666666666667 60.0 L 113.0 59.0 L 112.0 58.0 L 111.0 57.0 L 110.0 56.0 L 109.0 55.333333333333336 L 108.0 54.666666666666664 L 107.0 54.0 L 106.0 53.333333333333336 L 105.0 52.666666666666664 L 104.0 52.333333333333336 L 103.0 51.666666666666664 L 102.0 51.333333333333336 L 101.0 51.0 L 100.0 51.0 L 99.0 50.666666666666664 L 98.0 50.333333333333336 L 97.0 50.0 L 96.0 50.0 L 95.0 50.0 L 94.0 50.0 L 93.0 50.0 L 92.0 50.0 L 91.0 50.0 L 90.0 50.0 L 89.0 50.333333333333336 L 88.0 50.666666666666664 L 87.0 51.0 L 86.0 51.333333333333336 L 85.0 51.666666666666664 L 84.0 52.0 L 83.0 52.333333333333336 L 82.0 53.0 L 81.0 53.666666666666664 L 80.0 54.333333333333336 L 79.0 55.0 L 78.0 56.0 L 77.0 57.0 L 76.0 58.0 L 75.0 59.0 L 74.0 60.0 L 73.33333333333333 61.0 L 72.66666666666667 62.0 L 72.0 63.0 L 71.33333333333333 64.0 L 70.66666666666667 65.0 L 70.33333333333333 66.0 L 69.66666666666667 67.0 L 69.33333333333333 68.0 L 69.0 69.0 L 68.66666666666667 70.0 L 68.33333333333333 71.0 L 68.0 72.0 L 67.66666666666667 73.0 L 67.33333333333333 74.0 L 67.0 75.0 L 67.0 76.0 L 66.66666666666667 77.0 L 66.33333333333333 78.0 L 66.0 79.0 L 66.0 80.0 L 66.33333333333333 80.66666666666667 L 67.0 80.66666666666667 L 68.0 80.33333333333333 L 68.66666666666667 79.66666666666667 L 69.0 79.0 L 68.66666666666667 78.0 L 68.33333333333333 77.0 L 68.33333333333333 76.0 L 68.66666666666667 75.0 L 69.0 74.0 L 69.33333333333333 73.0 L 69.66666666666667 72.0 L 70.0 71.0 L 70.33333333333333 70.0 L 70.66666666666667 69.0 L 71.33333333333333 68.0 L 71.66666666666667 67.0 L 72.33333333333333 66.0 L 73.0 65.0 L 73.66666666666667 64.0 L 74.33333333333333 63.0 L 75.0 62.0 L 76.0 61.0 L 77.0 60.0 L 78.0 59.0 L 79.0 58.0 L 80.0 57.0 L 81.0 56.333333333333336 L 82.0 55.666666666666664 L 83.0 55.0 L 84.0 54.333333333333336 L 85.0 53.666666666666664 L 86.0 53.333333333333336 L 87.0 53.0 L 88.0 52.666666666666664 L 89.0 52.333333333333336 L 90.0 52.0 L 91.0 52.0 L 92.0 52.0 L 93.0 52.0 L 94.0 52.0 L 95.0 52.0 L 96.0 52.0 L 97.0 52.0 L 98.0 52.333333333333336 L 99.0 52.666666666666664 L 100.0 53.0 L 101.0 53.333333333333336 L 102.0 53.666666666666664 L 103.0 54.333333333333336 L 104.0 54.666666666666664 L 105.0 55.333333333333336 L 106.0 56.0 L 107.0 56.666666666666664 L 108.0 57.333333333333336 L 109.0 58.0 L 109.5 58.5 Z" stroke="none" fill="rgb(103,72,61)" />
<path d="M 40.5 55.0 L 41.0 55.0 L 42.0 55.333333333333336 L 43.0 55.666666666666664 L 44.0 56.333333333333336 L 45.0 57.0 L 46.0 57.666666666666664 L 47.0 58.333333333333336 L 48.0 59.0 L 49.0 60.0 L 50.0 61.0 L 51.0 62.0 L 51.666666666666664 63.0 L 52.333333333333336 64.0 L 53.0 65.0 L 53.666666666666664 66.0 L 54.333333333333336 67.0 L 55.0 68.0 L 55.666666666666664 69.0 L 56.0 70.0 L 56.333333333333336 71.0 L 56.666666666666664 72.0 L 57.333333333333336 73.0 L 57.666666666666664 74.0 L 58.0 75.0 L 58.333333333333336 76.0 L 59.0 76.66666666666667 L 59.666666666666664 76.66666666666667 L 60.0 76.0 L 60.0 75.0 L 59.666666666666664 74.0 L 59.333333333333336 73.0 L 59.0 72.0 L 58.666666666666664 71.0 L 58.333333333333336 70.0 L 57.666666666666664 69.0 L 57.333333333333336 68.0 L 56.666666666666664 67.0 L 56.333333333333336 66.0 L 55.666666666666664 65.0 L 55.333333333333336 64.0 L 54.666666666666664 63.0 L 54.0 62.0 L 53.0 61.0 L 52.0 60.0 L 51.0 59.0 L 50.0 58.0 L 49.0 57.0 L 48.0 56.0 L 47.0 55.333333333333336 L 46.0 54.666666666666664 L 45.0 54.333333333333336 L 44.0 53.666666666666664 L 43.0 53.333333333333336 L 42.0 53.0 L 41.0 52.666666666666664 L 40.0 52.333333333333336 L 39.0 52.0 L 38.0 52.0 L 37.0 52.0 L 36.0 52.0 L 35.0 52.0 L 34.0 52.0 L 33.0 52.0 L 32.0 52.0 L 31.0 52.0 L 30.0 52.0 L 29.0 52.333333333333336 L 28.0 52.666666666666664 L 27.0 53.0 L 26.0 53.333333333333336 L 25.0 53.666666666666664 L 24.0 54.333333333333336 L 23.0 54.666666666666664 L 22.0 55.333333333333336 L 21.0 56.0 L 20.0 57.0 L 19.0 58.0 L 18.0 59.0 L 17.0 60.0 L 16.0 61.0 L 15.0 62.0 L 14.0 63.0 L 13.333333333333334 64.0 L 12.666666666666666 65.0 L 12.333333333333334 66.0 L 11.666666666666666 67.0 L 11.333333333333334 68.0 L 10.666666666666666 69.0 L 10.333333333333334 70.0 L 9.666666666666666 71.0 L 9.333333333333334 72.0 L 9.0 73.0 L 8.666666666666666 74.0 L 8.333333333333334 75.0 L 8.0 76.0 L 8.0 77.0 L 7.666666666666667 78.0 L 7.333333333333333 79.0 L 7.0 80.0 L 7.0 81.0 L 7.0 82.0 L 7.333333333333333 82.66666666666667 L 7.666666666666667 82.66666666666667 L 8.333333333333334 82.0 L 8.666666666666666 81.0 L 9.0 80.0 L 9.0 79.0 L 9.333333333333334 78.0 L 9.666666666666666 77.0 L 10.0 76.0 L 10.333333333333334 75.0 L 10.666666666666666 74.0 L 11.0 73.0 L 11.333333333333334 72.0 L 11.666666666666666 71.0 L 12.333333333333334 70.0 L 12.666666666666666 69.0 L 13.333333333333334 68.0 L 14.0 67.0 L 14.666666666666666 66.0 L 15.333333333333334 65.0 L 16.0 64.0 L 17.0 63.0 L 18.0 62.0 L 19.0 61.0 L 20.0 60.0 L 21.0 59.0 L 22.0 58.333333333333336 L 23.0 57.666666666666664 L 24.0 57.0 L 25.0 56.333333333333336 L 26.0 55.666666666666664 L 27.0 55.333333333333336 L 28.0 55.0 L 29.0 54.666666666666664 L 30.0 54.333333333333336 L 31.0 54.0 L 32.0 54.0 L 33.0 54.0 L 34.0 54.0 L 35.0 54.0 L 36.0 54.0 L 37.0 54.0 L 38.0 54.0 L 39.0 54.333333333333336 L 39.5 54.5 Z" stroke="none" fill="rgb(97,67,57)" />
<path d="M 108.5 60.5 L 109.0 61.0 L 110.0 62.0 L 111.0 63.0 L 112.0 64.0 L 112.66666666666667 65.0 L 113.33333333333333 66.0 L 114.0 67.0 L 114.66666666666667 68.0 L 115.33333333333333 69.0 L 115.66666666666667 70.0 L 116.33333333333333 71.0 L 116.66666666666667 72.0 L 117.33333333333333 73.0 L 117.66666666666667 74.0 L 118.0 75.0 L 118.33333333333333 76.0 L 118.66666666666667 77.0 L 119.0 78.0 L 119.0 79.0 L 119.33333333333333 80.0 L 120.0 80.66666666666667 L 121.0 80.66666666666667 L 121.66666666666667 80.0 L 122.0 79.0 L 121.66666666666667 78.0 L 121.0 77.0 L 120.33333333333333 76.0 L 120.0 75.0 L 119.66666666666667 74.0 L 119.33333333333333 73.0 L 118.66666666666667 72.0 L 118.33333333333333 71.0 L 118.0 70.0 L 117.66666666666667 69.0 L 117.33333333333333 68.0 L 116.66666666666667 67.0 L 116.0 66.0 L 115.33333333333333 65.0 L 114.66666666666667 64.0 L 114.0 63.0 L 113.33333333333333 62.0 L 112.66666666666667 61.0 L 112.0 60.0 L 111.0 59.0 L 110.0 58.0 L 109.0 57.333333333333336 L 108.0 56.666666666666664 L 107.0 56.0 L 106.0 55.333333333333336 L 105.0 54.666666666666664 L 104.0 54.333333333333336 L 103.0 53.666666666666664 L 102.0 53.333333333333336 L 101.0 53.0 L 100.0 52.666666666666664 L 99.0 52.333333333333336 L 98.0 52.0 L 97.0 52.0 L 96.0 52.0 L 95.0 52.0 L 94.0 52.0 L 93.0 52.0 L 92.0 52.0 L 91.0 52.0 L 90.0 52.0 L 89.0 52.0 L 88.0 52.333333333333336 L 87.0 52.666666666666664 L 86.0 53.0 L 85.0 53.333333333333336 L 84.0 53.666666666666664 L 83.0 54.333333333333336 L 82.0 55.0 L 81.0 55.666666666666664 L 80.0 56.333333333333336 L 79.0 57.0 L 78.0 58.0 L 77.0 59.0 L 76.0 60.0 L 75.0 61.0 L 74.33333333333333 62.0 L 73.66666666666667 63.0 L 73.0 64.0 L 72.33333333333333 65.0 L 71.66666666666667 66.0 L 71.33333333333333 67.0 L 70.66666666666667 68.0 L 70.33333333333333 69.0 L 70.0 70.0 L 69.66666666666667 71.0 L 69.33333333333333 72.0 L 69.0 73.0 L 68.66666666666667 74.0 L 68.33333333333333 75.0 L 68.0 76.0 L 68.0 77.0 L 68.33333333333333 77.66666666666667 L 69.0 77.66666666666667 L 69.66666666666667 77.0 L 70.0 76.0 L 70.33333333333333 75.0 L 70.66666666666667 74.0 L 71.0 73.0 L 71.33333333333333 72.0 L 71.66666666666667 71.0 L 72.33333333333333 70.0 L 72.66666666666667 69.0 L 73.33333333333333 68.0 L 73.66666666666667 67.0 L 74.33333333333333 66.0 L 75.0 65.0 L 76.0 64.0 L 76.66666666666667 63.0 L 77.33333333333333 62.0 L 78.0 61.0 L 79.0 60.0 L 80.0 59.333333333333336 L 81.0 58.666666666666664 L 82.0 58.0 L 83.0 57.333333333333336 L 84.0 56.666666666666664 L 85.0 56.333333333333336 L 86.0 55.666666666666664 L 87.0 55.333333333333336 L 88.0 54.666666666666664 L 89.0 54.333333333333336 L 90.0 54.0 L 91.0 54.0 L 92.0 54.0 L 93.0 54.0 L 94.0 54.0 L 95.0 54.0 L 96.0 54.0 L 97.0 54.0 L 98.0 54.333333333333336 L 99.0 54.666666666666664 L 100.0 55.0 L 101.0 55.333333333333336 L 102.0 55.666666666666664 L 103.0 56.333333333333336 L 104.0 56.666666666666664 L 105.0 57.333333333333336 L 106.0 58.0 L 107.0 59.0 L 107.5 59.5 Z" stroke="none" fill="rgb(97,67,57)" />
<path d="M 59.5 93.5 L 59.666666666666664 93.0 L 60.0 92.0 L 60.0 91.0 L 60.0 90.0 L 60.0 89.0 L 60.0 88.0 L 60.0 87.0 L 60.0 86.0 L 60.0 85.0 L 60.0 84.0 L 60.0 83.0 L 59.666666666666664 82.0 L 59.333333333333336 81.0 L 59.333333333333336 80.0 L 59.666666666666664 79.0 L 60.0 78.0 L 59.666666666666664 77.0 L 59.0 76.0 L 58.333333333333336 75.0 L 58.0 74.0 L 57.666666666666664 73.0 L 57.333333333333336 72.0 L 56.666666666666664 71.0 L 56.333333333333336 70.0 L 56.0 69.0 L 55.666666666666664 68.0 L 55.0 67.0 L 54.333333333333336 66.0 L 53.666666666666664 65.0 L 53.0 64.0 L 52.333333333333336 63.0 L 51.666666666666664 62.0 L 51.0 61.0 L 50.0 60.0 L 49.0 59.0 L 48.0 58.333333333333336 L 47.0 57.666666666666664 L 46.0 57.0 L 45.0 56.333333333333336 L 44.0 55.666666666666664 L 43.0 55.333333333333336 L 42.0 55.0 L 41.0 54.666666666666664 L 40.0 54.333333333333336 L 39.0 54.0 L 38.0 54.0 L 37.0 54.0 L 36.0 54.0 L 35.0 54.0 L 34.0 54.0 L 33.0 54.0 L 32.0 54.0 L 31.0 54.0 L 30.0 54.0 L 29.0 54.333333333333336 L 28.0 54.666666666666664 L 27.0 55.0 L 26.0 55.333333333333336 L 25.0 55.666666666666664 L 24.0 56.333333333333336 L 23.0 57.0 L 22.0 57.666666666666664 L 21.0 58.333333333333336 L 20.0 59.0 L 19.0 60.0 L 18.0 61.0 L 17.0 62.0 L 16.0 63.0 L 15.333333333333334 64.0 L 14.666666666666666 65.0 L 14.0 66.0 L 13.333333333333334 67.0 L 12.666666666666666 68.0 L 12.333333333333334 69.0 L 11.666666666666666 70.0 L 11.333333333333334 71.0 L 11.0 72.0 L 10.666666666666666 73.0 L 10.333333333333334 74.0 L 10.0 75.0 L 9.666666666666666 76.0 L 9.333333333333334 77.0 L 9.0 78.0 L 9.0 79.0 L 8.666666666666666 80.0 L 8.333333333333334 81.0 L 8.0 82.0 L 8.0 83.0 L 8.0 84.0 L 8.0 85.0 L 8.0 86.0 L 8.333333333333334 86.66666666666667 L 9.0 86.66666666666667 L 9.666666666666666 86.0 L 10.0 85.0 L 10.0 84.0 L 10.0 83.0 L 10.0 82.0 L 10.333333333333334 81.0 L 10.666666666666666 80.0 L 11.0 79.0 L 11.0 78.0 L 11.333333333333334 77.0 L 11.666666666666666 76.0 L 12.0 75.0 L 12.333333333333334 74.0 L 12.666666666666666 73.0 L 13.333333333333334 72.0 L 13.666666666666666 71.0 L 14.333333333333334 70.0 L 15.0 69.0 L 15.666666666666666 68.0 L 16.333333333333332 67.0 L 17.0 66.0 L 18.0 65.0 L 19.0 64.0 L 20.0 63.0 L 21.0 62.0 L 22.0 61.0 L 23.0 60.0 L 24.0 59.333333333333336 L 25.0 58.666666666666664 L 26.0 58.333333333333336 L 27.0 57.666666666666664 L 28.0 57.333333333333336 L 29.0 57.0 L 30.0 56.666666666666664 L 31.0 56.333333333333336 L 32.0 56.0 L 33.0 56.0 L 34.0 56.0 L 35.0 56.0 L 36.0 56.0 L 37.0 56.0 L 38.0 56.333333333333336 L 39.0 56.666666666666664 L 40.0 57.0 L 41.0 57.333333333333336 L 42.0 57.666666666666664 L 43.0 58.333333333333336 L 44.0 59.0 L 45.0 59.666666666666664 L 46.0 60.333333333333336 L 47.0 61.0 L 48.0 62.0 L 49.0 63.0 L 50.0 64.0 L 50.666666666666664 65.0 L 51.333333333333336 66.0 L 52.0 67.0 L 52.666666666666664 68.0 L 53.333333333333336 69.0 L 53.666666666666664 70.0 L 54.333333333333336 71.0 L 54.666666666666664 72.0 L 55.333333333333336 73.0 L 55.666666666666664 74.0 L 56.0 75.0 L 56.333333333333336 76.0 L 56.666666666666664 77.0 L 57.0 78.0 L 57.0 79.0 L 57.333333333333336 80.0 L 57.666666666666664 81.0 L 58.0 82.0 L 58.0 83.0 L 58.0 84.0 L 58.0 85.0 L 58.0 86.0 L 58.0 87.0 L 58.0 88.0 L 58.0 89.0 L 58.0 90.0 L 58.0 91.0 L 58.0 92.0 L 58.0 93.0 L 58.333333333333336 93.66666666666667 L 58.5 94.0 Z" stroke="none" fill="rgb(92,63,53)" />
<path d="M 108.5 62.5 L 109.0 63.0 L 109.66666666666667 64.0 L 110.33333333333333 65.0 L 111.0 66.0 L 112.0 67.0 L 112.66666666666667 68.0 L 113.33333333333333 69.0 L 113.66666666666667 70.0 L 114.33333333333333 71.0 L 114.66666666666667 72.0 L 115.33333333333333 73.0 L 115.66666666666667 74.0 L 116.33333333333333 75.0 L 116.66666666666667 76.0 L 117.0 77.0 L 117.0 78.0 L 117.33333333333333 79.0 L 117.66666666666667 80.0 L 118.0 81.0 L 118.0 82.0 L 118.0 83.0 L 118.33333333333333 84.0 L 119.0 84.66666666666667 L 119.66666666666667 84.66666666666667 L 120.33333333333333 84.0 L 120.66666666666667 83.0 L 121.0 82.0 L 120.66666666666667 81.0 L 120.0 80.0 L 119.33333333333333 79.0 L 119.0 78.0 L 119.0 77.0 L 118.66666666666667 76.0 L 118.33333333333333 75.0 L 118.0 74.0 L 117.66666666666667 73.0 L 117.33333333333333 72.0 L 116.66666666666667 71.0 L 116.33333333333333 70.0 L 115.66666666666667 69.0 L 115.33333333333333 68.0 L 114.66666666666667 67.0 L 114.0 66.0 L 113.33333333333333 65.0 L 112.66666666666667 64.0 L 112.0 63.0 L 111.0 62.0 L 110.0 61.0 L 109.0 60.0 L 108.0 59.0 L 107.0 58.0 L 106.0 57.333333333333336 L 105.0 56.666666666666664 L 104.0 56.333333333333336 L 103.0 55.666666666666664 L 102.0 55.333333333333336 L 101.0 55.0 L 100.0 54.666666666666664 L 99.0 54.333333333333336 L 98.0 54.0 L 97.0 54.0 L 96.0 54.0 L 95.0 54.0 L 94.0 54.0 L 93.0 54.0 L 92.0 54.0 L 91.0 54.0 L 90.0 54.0 L 89.0 54.0 L 88.0 54.333333333333336 L 87.0 54.666666666666664 L 86.0 55.333333333333336 L 85.0 55.666666666666664 L 84.0 56.333333333333336 L 83.0 56.666666666666664 L 82.0 57.333333333333336 L 81.0 58.0 L 80.0 58.666666666666664 L 79.0 59.333333333333336 L 78.0 60.0 L 77.33333333333333 61.0 L 76.66666666666667 62.0 L 76.0 63.0 L 75.0 64.0 L 74.33333333333333 65.0 L 73.66666666666667 66.0 L 73.33333333333333 67.0 L 72.66666666666667 68.0 L 72.33333333333333 69.0 L 71.66666666666667 70.0 L 71.33333333333333 71.0 L 71.0 72.0 L 70.66666666666667 73.0 L 70.33333333333333 74.0 L 70.0 75.0 L 69.66666666666667 76.0 L 69.33333333333333 77.0 L 69.0 78.0 L 69.0 79.0 L 69.0 80.0 L 69.0 81.0 L 69.33333333333333 81.66666666666667 L 70.0 81.66666666666667 L 70.66666666666667 81.0 L 71.0 80.0 L 71.0 79.0 L 71.33333333333333 78.0 L 71.66666666666667 77.0 L 72.0 76.0 L 72.0 75.0 L 72.33333333333333 74.0 L 72.66666666666667 73.0 L 73.33333333333333 72.0 L 73.66666666666667 71.0 L 74.33333333333333 70.0 L 74.66666666666667 69.0 L 75.33333333333333 68.0 L 76.0 67.0 L 76.66666666666667 66.0 L 77.33333333333333 65.0 L 78.0 64.0 L 79.0 63.0 L 80.0 62.0 L 81.0 61.0 L 82.0 60.333333333333336 L 83.0 59.666666666666664 L 84.0 59.0 L 85.0 58.333333333333336 L 86.0 57.666666666666664 L 87.0 57.333333333333336 L 88.0 57.0 L 89.0 56.666666666666664 L 90.0 56.333333333333336 L 91.0 56.0 L 92.0 56.0 L 93.0 56.0 L 94.0 56.0 L 95.0 56.0 L 96.0 56.0 L 97.0 56.333333333333336 L 98.0 56.666666666666664 L 99.0 57.0 L 100.0 57.333333333333336 L 101.0 57.666666666666664 L 102.0 58.333333333333336 L 103.0 58.666666666666664 L 104.0 59.333333333333336 L 105.0 60.0 L 106.0 61.0 L 107.0 61.666666666666664 L 107.5 62.0 Z" stroke="none" fill="rgb(92,63,53)" />
<path d="M 20.5 112.0 L 21.0 112.0 L 22.0 112.0 L 23.0 112.0 L 23.666666666666668 111.66666666666667 L 24.0 111.0 L 23.666666666666668 110.0 L 23.0 109.0 L 22.0 108.0 L 21.0 107.0 L 20.0 106.0 L 19.0 105.0 L 18.0 104.0 L 17.0 103.0 L 16.0 102.0 L 15.0 101.0 L 14.333333333333334 100.0 L 13.666666666666666 99.0 L 13.333333333333334 98.0 L 12.666666666666666 97.0 L 12.333333333333334 96.0 L 12.0 95.0 L 12.0 94.0 L 12.0 93.0 L 12.0 92.0 L 12.333333333333334 91.0 L 12.666666666666666 90.0 L 13.0 89.0 L 13.0 88.0 L 13.0 87.0 L 13.333333333333334 86.0 L 13.666666666666666 85.0 L 14.0 84.0 L 14.333333333333334 83.0 L 14.666666666666666 82.0 L 15.333333333333334 81.0 L 16.0 80.0 L 17.0 79.0 L 18.0 78.0 L 19.0 77.0 L 20.0 76.0 L 21.0 75.33333333333333 L 22.0 75.0 L 23.0 75.0 L 24.0 75.0 L 25.0 75.0 L 26.0 75.0 L 27.0 74.66666666666667 L 28.0 74.33333333333333 L 29.0 74.0 L 30.0 74.0 L 31.0 74.0 L 32.0 73.66666666666667 L 33.0 73.33333333333333 L 34.0 73.0 L 35.0 72.66666666666667 L 36.0 72.33333333333333 L 37.0 71.66666666666667 L 38.0 71.33333333333333 L 39.0 70.66666666666667 L 40.0 70.33333333333333 L 41.0 69.66666666666667 L 42.0 69.33333333333333 L 43.0 68.66666666666667 L 44.0 68.66666666666667 L 45.0 69.0 L 46.0 70.0 L 47.0 71.0 L 48.0 72.0 L 49.0 73.0 L 50.0 74.0 L 51.0 75.0 L 52.0 76.0 L 53.0 77.0 L 54.0 78.0 L 54.666666666666664 79.0 L 55.333333333333336 80.0 L 55.666666666666664 81.0 L 56.0 82.0 L 56.0 83.0 L 56.0 84.0 L 56.0 85.0 L 56.0 86.0 L 56.0 87.0 L 56.0 88.0 L 56.0 89.0 L 56.0 90.0 L 56.0 91.0 L 56.0 92.0 L 56.0 93.0 L 55.666666666666664 94.0 L 55.333333333333336 95.0 L 54.666666666666664 96.0 L 54.333333333333336 97.0 L 53.666666666666664 98.0 L 53.333333333333336 99.0 L 52.666666666666664 100.0 L 52.0 101.0 L 51.0 102.0 L 50.0 103.0 L 49.0 104.0 L 48.0 105.0 L 47.0 106.0 L 46.0 107.0 L 45.0 108.0 L 44.0 109.0 L 43.333333333333336 110.0 L 43.333333333333336 111.0 L 44.0 111.66666666666667 L 45.0 112.0 L 46.0 112.33333333333333 L 47.0 112.66666666666667 L 48.0 113.0 L 49.0 113.0 L 50.0 112.66666666666667 L 51.0 112.0 L 51.666666666666664 111.0 L 52.333333333333336 110.0 L 52.666666666666664 109.0 L 53.333333333333336 108.0 L 53.666666666666664 107.0 L 54.333333333333336 106.0 L 54.666666666666664 105.0 L 55.333333333333336 104.0 L 55.666666666666664 103.0 L 56.0 102.0 L 56.333333333333336 101.0 L 56.666666666666664 100.0 L 57.0 99.0 L 57.0 98.0 L 57.333333333333336 97.0 L 58.0 96.33333333333333 L 58.666666666666664 95.66666666666667 L 59.0 95.0 L 58.666666666666664 94.0 L 58.333333333333336 93.0 L 58.0 92.0 L 58.0 91.0 L 58.0 90.0 L 58.0 89.0 L 58.0 88.0 L 58.0 87.0 L 58.0 86.0 L 58.0 85.0 L 58.0 84.0 L 58.0 83.0 L 58.0 82.0 L 58.0 81.0 L 57.666666666666664 80.0 L 57.333333333333336 79.0 L 57.0 78.0 L 57.0 77.0 L 56.666666666666664 76.0 L 56.333333333333336 75.0 L 56.0 74.0 L 55.666666666666664 73.0 L 55.333333333333336 72.0 L 54.666666666666664 71.0 L 54.333333333333336 70.0 L 53.666666666666664 69.0 L 53.333333333333336 68.0 L 52.666666666666664 67.0 L 52.0 66.0 L 51.333333333333336 65.0 L 50.666666666666664 64.0 L 50.0 63.0 L 49.0 62.0 L 48.0 61.0 L 47.0 60.333333333333336 L 46.0 59.666666666666664 L 45.0 59.0 L 44.0 58.333333333333336 L 43.0 57.666666666666664 L 42.0 57.333333333333336 L 41.0 57.0 L 40.0 56.666666666666664 L 39.0 56.333333333333336 L 38.0 56.0 L 37.0 56.0 L 36.0 56.0 L 35.0 56.0 L 34.0 56.0 L 33.0 56.0 L 32.0 56.0 L 31.0 56.0 L 30.0 56.333333333333336 L 29.0 56.666666666666664 L 28.0 57.0 L 27.0 57.333333333333336 L 26.0 57.666666666666664 L 25.0 58.333333333333336 L 24.0 58.666666666666664 L 23.0 59.333333333333336 L 22.0 60.0 L 21.0 61.0 L 20.0 62.0 L 19.0 63.0 L 18.0 64.0 L 17.0 65.0 L 16.333333333333332 66.0 L 15.666666666666666 67.0 L 15.0 68.0 L 14.333333333333334 69.0 L 13.666666666666666 70.0 L 13.333333333333334 71.0 L 12.666666666666666 72.0 L 12.333333333333334 73.0 L 12.0 74.0 L 11.666666666666666 75.0 L 11.333333333333334 76.0 L 11.0 77.0 L 11.0 78.0 L 10.666666666666666 79.0 L 10.333333333333334 80.0 L 10.0 81.0 L 10.0 82.0 L 10.0 83.0 L 10.0 84.0 L 9.666666666666666 85.0 L 9.333333333333334 86.0 L 9.0 87.0 L 9.0 88.0 L 9.0 89.0 L 9.0 90.0 L 9.0 91.0 L 9.0 92.0 L 9.333333333333334 93.0 L 9.666666666666666 94.0 L 10.0 95.0 L 10.0 96.0 L 10.0 97.0 L 10.0 98.0 L 10.0 99.0 L 10.333333333333334 100.0 L 10.666666666666666 101.0 L 11.0 102.0 L 11.333333333333334 103.0 L 11.666666666666666 104.0 L 12.0 105.0 L 12.333333333333334 106.0 L 12.666666666666666 107.0 L 13.333333333333334 108.0 L 13.666666666666666 109.0 L 14.333333333333334 110.0 L 15.0 111.0 L 16.0 111.66666666666667 L 17.0 112.0 L 18.0 112.0 L 19.0 112.0 L 19.5 112.0 Z" stroke="none" fill="rgb(84,57,48)" />
<path d="M 72.5 102.5 L 72.66666666666667 103.0 L 73.0 104.0 L 73.33333333333333 105.0 L 73.66666666666667 106.0 L 74.33333333333333 107.0 L 74.66666666666667 108.0 L 75.33333333333333 109.0 L 76.0 110.0 L 76.66666666666667 111.0 L 77.33333333333333 112.0 L 78.0 112.66666666666667 L 79.0 113.0 L 80.0 113.0 L 81.0 113.0 L 82.0 113.0 L 83.0 112.66666666666667 L 84.0 112.33333333333333 L 85.0 112.0 L 85.66666666666667 111.66666666666667 L 86.0 111.0 L 85.66666666666667 110.0 L 85.0 109.33333333333333 L 84.0 108.66666666666667 L 83.0 108.0 L 82.0 107.0 L 81.0 106.0 L 80.0 105.0 L 79.0 104.0 L 78.0 103.0 L 77.0 102.0 L 76.33333333333333 101.0 L 75.66666666666667 100.0 L 75.0 99.0 L 74.33333333333333 98.0 L 73.66666666666667 97.0 L 73.33333333333333 96.0 L 72.66666666666667 95.0 L 72.33333333333333 94.0 L 72.0 93.0 L 72.0 92.0 L 72.0 91.0 L 72.0 90.0 L 72.0 89.0 L 72.0 88.0 L 72.33333333333333 87.0 L 72.66666666666667 86.0 L 73.0 85.0 L 73.33333333333333 84.0 L 74.0 83.66666666666667 L 75.0 83.66666666666667 L 76.0 84.0 L 76.66666666666667 83.66666666666667 L 77.33333333333333 83.0 L 78.0 82.0 L 79.0 81.33333333333333 L 79.66666666666667 80.66666666666667 L 80.0 80.0 L 80.33333333333333 79.0 L 81.0 78.33333333333333 L 82.0 77.66666666666667 L 83.0 77.33333333333333 L 84.0 76.66666666666667 L 85.0 76.33333333333333 L 86.0 76.0 L 87.0 75.66666666666667 L 88.0 75.33333333333333 L 89.0 74.66666666666667 L 90.0 74.33333333333333 L 91.0 73.66666666666667 L 92.0 73.0 L 93.0 72.33333333333333 L 94.0 71.66666666666667 L 95.0 71.0 L 96.0 70.0 L 97.0 69.0 L 98.0 68.33333333333333 L 99.0 68.33333333333333 L 100.0 69.0 L 101.0 70.0 L 102.0 71.0 L 103.0 72.0 L 104.0 72.66666666666667 L 105.0 73.33333333333333 L 106.0 74.0 L 107.0 75.0 L 108.0 75.66666666666667 L 109.0 76.33333333333333 L 110.0 77.0 L 111.0 78.0 L 112.0 79.0 L 113.0 80.0 L 114.0 81.0 L 114.66666666666667 82.0 L 115.0 83.0 L 115.33333333333333 84.0 L 115.66666666666667 85.0 L 116.0 86.0 L 116.0 87.0 L 116.0 88.0 L 116.0 89.0 L 116.0 90.0 L 116.0 91.0 L 116.0 92.0 L 116.0 93.0 L 116.0 94.0 L 116.0 95.0 L 115.66666666666667 96.0 L 115.33333333333333 97.0 L 114.66666666666667 98.0 L 114.33333333333333 99.0 L 113.66666666666667 100.0 L 113.0 101.0 L 112.33333333333333 102.0 L 111.66666666666667 103.0 L 111.0 104.0 L 110.0 105.0 L 109.0 106.0 L 108.0 107.0 L 107.0 108.0 L 106.33333333333333 109.0 L 106.0 110.0 L 106.33333333333333 110.66666666666667 L 107.0 111.0 L 108.0 111.0 L 109.0 111.33333333333333 L 110.0 111.66666666666667 L 111.0 112.0 L 112.0 112.0 L 112.66666666666667 111.66666666666667 L 113.33333333333333 111.0 L 113.66666666666667 110.0 L 114.33333333333333 109.0 L 114.66666666666667 108.0 L 115.33333333333333 107.0 L 115.66666666666667 106.0 L 116.33333333333333 105.0 L 116.66666666666667 104.0 L 117.0 103.0 L 117.0 102.0 L 117.33333333333333 101.0 L 117.66666666666667 100.0 L 118.0 99.0 L 118.0 98.0 L 118.33333333333333 97.0 L 119.0 96.33333333333333 L 119.66666666666667 95.66666666666667 L 120.0 95.0 L 120.0 94.0 L 120.0 93.0 L 120.0 92.0 L 120.0 91.0 L 120.0 90.0 L 120.0 89.0 L 120.0 88.0 L 120.0 87.0 L 120.0 86.0 L 119.66666666666667 85.0 L 119.0 84.0 L 118.33333333333333 83.0 L 118.0 82.0 L 118.0 81.0 L 118.0 80.0 L 117.66666666666667 79.0 L 117.33333333333333 78.0 L 117.0 77.0 L 117.0 76.0 L 116.66666666666667 75.0 L 116.33333333333333 74.0 L 115.66666666666667 73.0 L 115.33333333333333 72.0 L 114.66666666666667 71.0 L 114.33333333333333 70.0 L 113.66666666666667 69.0 L 113.33333333333333 68.0 L 112.66666666666667 67.0 L 112.0 66.0 L 111.0 65.0 L 110.33333333333333 64.0 L 109.66666666666667 63.0 L 109.0 62.333333333333336 L 108.0 61.666666666666664 L 107.0 61.0 L 106.0 60.0 L 105.0 59.333333333333336 L 104.0 58.666666666666664 L 103.0 58.333333333333336 L 102.0 57.666666666666664 L 101.0 57.333333333333336 L 100.0 57.0 L 99.0 56.666666666666664 L 98.0 56.333333333333336 L 97.0 56.0 L 96.0 56.0 L 95.0 56.0 L 94.0 56.0 L 93.0 56.0 L 92.0 56.0 L 91.0 56.0 L 90.0 56.0 L 89.0 56.333333333333336 L 88.0 56.666666666666664 L 87.0 57.0 L 86.0 57.333333333333336 L 85.0 57.666666666666664 L 84.0 58.333333333333336 L 83.0 59.0 L 82.0 59.666666666666664 L 81.0 60.333333333333336 L 80.0 61.0 L 79.0 62.0 L 78.0 63.0 L 77.33333333333333 64.0 L 76.66666666666667 65.0 L 76.0 66.0 L 75.33333333333333 67.0 L 74.66666666666667 68.0 L 74.33333333333333 69.0 L 73.66666666666667 70.0 L 73.33333333333333 71.0 L 72.66666666666667 72.0 L 72.33333333333333 73.0 L 72.0 74.0 L 72.0 75.0 L 71.66666666666667 76.0 L 71.33333333333333 77.0 L 71.0 78.0 L 71.0 79.0 L 70.66666666666667 80.0 L 70.33333333333333 81.0 L 70.0 82.0 L 70.0 83.0 L 70.0 84.0 L 70.0 85.0 L 70.0 86.0 L 70.0 87.0 L 70.0 88.0 L 70.0 89.0 L 70.0 90.0 L 70.0 91.0 L 70.0 92.0 L 70.0 93.0 L 70.33333333333333 94.0 L 70.66666666666667 95.0 L 71.0 96.0 L 71.0 97.0 L 71.0 98.0 L 71.33333333333333 99.0 L 71.66666666666667 100.0 L 72.0 101.0 L 72.0 101.5 Z" stroke="none" fill="rgb(84,57,48)" />
<path d="M 95.5 113.0 L 96.0 113.0 L 97.0 113.0 L 98.0 113.0 L 99.0 112.66666666666667 L 100.0 112.33333333333333 L 101.0 112.0 L 102.0 112.0 L 103.0 112.0 L 104.0 111.66666666666667 L 105.0 111.33333333333333 L 105.66666666666667 110.66666666666667 L 106.33333333333333 110.0 L 107.0 109.0 L 108.0 108.0 L 109.0 107.0 L 110.0 106.0 L 111.0 105.0 L 111.66666666666667 104.0 L 112.33333333333333 103.0 L 113.0 102.0 L 113.66666666666667 101.0 L 114.33333333333333 100.0 L 114.66666666666667 99.0 L 115.33333333333333 98.0 L 115.66666666666667 97.0 L 116.0 96.0 L 116.0 95.0 L 116.0 94.0 L 116.0 93.0 L 116.0 92.0 L 116.0 91.0 L 116.0 90.0 L 116.0 89.0 L 116.0 88.0 L 116.0 87.0 L 116.0 86.0 L 116.0 85.0 L 115.66666666666667 84.0 L 115.33333333333333 83.0 L 115.0 82.0 L 114.66666666666667 81.0 L 114.0 80.0 L 113.0 79.0 L 112.0 78.0 L 111.0 77.0 L 110.0 76.33333333333333 L 109.0 75.66666666666667 L 108.0 75.0 L 107.0 74.0 L 106.0 73.33333333333333 L 105.0 72.66666666666667 L 104.0 72.0 L 103.0 71.0 L 102.0 70.0 L 101.0 69.0 L 100.0 68.0 L 99.0 67.33333333333333 L 98.0 67.33333333333333 L 97.0 68.0 L 96.0 69.0 L 95.0 70.0 L 94.0 71.0 L 93.0 71.66666666666667 L 92.0 72.33333333333333 L 91.0 73.0 L 90.0 73.66666666666667 L 89.0 74.33333333333333 L 88.0 74.66666666666667 L 87.0 75.33333333333333 L 86.0 75.66666666666667 L 85.0 76.0 L 84.0 76.33333333333333 L 83.0 76.66666666666667 L 82.0 77.33333333333333 L 81.0 77.66666666666667 L 80.33333333333333 78.33333333333333 L 80.0 79.0 L 80.33333333333333 79.66666666666667 L 81.0 80.0 L 82.0 80.0 L 83.0 80.33333333333333 L 84.0 81.0 L 84.33333333333333 82.0 L 84.0 82.66666666666667 L 83.0 83.0 L 82.0 83.0 L 81.0 83.33333333333333 L 80.0 83.66666666666667 L 79.0 84.0 L 78.0 84.0 L 77.0 84.0 L 76.0 83.66666666666667 L 75.0 83.33333333333333 L 74.0 83.0 L 73.33333333333333 83.33333333333333 L 73.0 84.0 L 72.66666666666667 85.0 L 72.33333333333333 86.0 L 72.0 87.0 L 72.0 88.0 L 72.0 89.0 L 72.0 90.0 L 72.0 91.0 L 72.0 92.0 L 72.0 93.0 L 72.0 94.0 L 72.33333333333333 95.0 L 72.66666666666667 96.0 L 73.33333333333333 97.0 L 73.66666666666667 98.0 L 74.33333333333333 99.0 L 75.0 100.0 L 75.66666666666667 101.0 L 76.33333333333333 102.0 L 77.0 103.0 L 78.0 104.0 L 79.0 105.0 L 80.0 106.0 L 81.0 107.0 L 82.0 108.0 L 83.0 108.66666666666667 L 84.0 109.33333333333333 L 85.0 110.0 L 86.0 110.66666666666667 L 87.0 111.0 L 88.0 111.33333333333333 L 89.0 112.0 L 90.0 112.66666666666667 L 91.0 113.0 L 92.0 113.0 L 93.0 113.0 L 94.0 113.0 L 94.5 113.0 Z" stroke="none" fill="rgb(186,141,104)" />
<path d="M 33.5 112.0 L 34.0 112.0 L 35.0 112.0 L 36.0 112.33333333333333 L 37.0 112.66666666666667 L 38.0 112.66666666666667 L 39.0 112.0 L 40.0 111.33333333333333 L 41.0 111.0 L 42.0 111.0 L 43.0 110.66666666666667 L 44.0 110.0 L 45.0 109.0 L 46.0 108.0 L 47.0 107.0 L 48.0 106.0 L 49.0 105.0 L 50.0 104.0 L 51.0 103.0 L 52.0 102.0 L 52.666666666666664 101.0 L 53.333333333333336 100.0 L 53.666666666666664 99.0 L 54.333333333333336 98.0 L 54.666666666666664 97.0 L 55.333333333333336 96.0 L 55.666666666666664 95.0 L 56.0 94.0 L 56.0 93.0 L 56.0 92.0 L 56.0 91.0 L 56.0 90.0 L 56.0 89.0 L 56.0 88.0 L 56.0 87.0 L 56.0 86.0 L 56.0 85.0 L 56.0 84.0 L 56.0 83.0 L 56.0 82.0 L 56.0 81.0 L 55.666666666666664 80.0 L 55.333333333333336 79.0 L 54.666666666666664 78.0 L 54.0 77.0 L 53.0 76.0 L 52.0 75.0 L 51.0 74.0 L 50.0 73.0 L 49.0 72.0 L 48.0 71.0 L 47.0 70.0 L 46.0 69.0 L 45.0 68.33333333333333 L 44.0 68.0 L 43.0 68.33333333333333 L 42.0 68.66666666666667 L 41.0 69.33333333333333 L 40.0 69.66666666666667 L 39.0 70.33333333333333 L 38.0 70.66666666666667 L 37.0 71.33333333333333 L 36.0 71.66666666666667 L 35.0 72.33333333333333 L 34.0 72.66666666666667 L 33.0 73.0 L 32.0 73.33333333333333 L 31.0 73.66666666666667 L 30.0 74.0 L 29.0 74.0 L 28.0 74.0 L 27.0 74.33333333333333 L 26.0 74.66666666666667 L 25.0 75.0 L 24.0 75.0 L 23.0 75.0 L 22.0 75.0 L 21.0 75.0 L 20.0 75.33333333333333 L 19.0 76.0 L 18.0 77.0 L 17.0 78.0 L 16.0 79.0 L 15.333333333333334 80.0 L 14.666666666666666 81.0 L 14.333333333333334 82.0 L 14.0 83.0 L 13.666666666666666 84.0 L 13.333333333333334 85.0 L 13.0 86.0 L 13.0 87.0 L 13.0 88.0 L 12.666666666666666 89.0 L 12.333333333333334 90.0 L 12.0 91.0 L 12.0 92.0 L 12.0 93.0 L 12.0 94.0 L 12.0 95.0 L 12.0 96.0 L 12.333333333333334 97.0 L 12.666666666666666 98.0 L 13.333333333333334 99.0 L 13.666666666666666 100.0 L 14.333333333333334 101.0 L 15.0 102.0 L 16.0 103.0 L 17.0 104.0 L 18.0 105.0 L 19.0 106.0 L 20.0 107.0 L 21.0 108.0 L 22.0 109.0 L 23.0 110.0 L 24.0 110.66666666666667 L 25.0 111.0 L 26.0 111.33333333333333 L 27.0 111.66666666666667 L 28.0 112.0 L 29.0 112.0 L 30.0 112.0 L 31.0 112.0 L 32.0 112.0 L 32.5 112.0 Z" stroke="none" fill="rgb(186,141,104)" />
<path d="M 24.5 80.5 L 25.0 81.0 L 26.0 81.66666666666667 L 27.0 82.0 L 28.0 81.66666666666667 L 28.666666666666668 81.0 L 28.666666666666668 80.0 L 28.0 79.0 L 27.0 78.33333333333333 L 26.0 78.0 L 25.0 78.0 L 24.0 78.0 L 23.0 78.0 L 22.0 78.0 L 21.0 78.0 L 20.333333333333332 78.33333333333333 L 20.0 79.0 L 20.333333333333332 79.66666666666667 L 21.0 80.0 L 22.0 80.0 L 23.0 80.0 L 23.5 80.0 Z" stroke="none" fill="rgb(92,63,53)" />
<path d="M 107.0 82.5 L 107.33333333333333 82.0 L 108.0 81.0 L 108.66666666666667 80.0 L 108.66666666666667 79.0 L 108.0 78.33333333333333 L 107.0 78.0 L 106.0 78.0 L 105.0 78.0 L 104.0 78.0 L 103.0 78.0 L 102.0 78.0 L 101.0 78.33333333333333 L 100.33333333333333 79.0 L 100.0 80.0 L 100.33333333333333 80.66666666666667 L 101.0 81.0 L 102.0 81.33333333333333 L 103.0 82.0 L 104.0 82.66666666666667 L 105.0 83.0 L 106.0 83.0 L 106.5 83.0 Z" stroke="none" fill="rgb(92,63,53)" />
<path d="M 62.0 96.5 L 62.0 96.0 L 62.0 95.0 L 62.0 94.0 L 62.0 93.0 L 62.0 92.0 L 62.0 91.0 L 62.0 90.0 L 62.0 89.0 L 62.0 88.0 L 62.0 87.0 L 62.0 86.0 L 62.0 85.0 L 62.0 84.0 L 62.0 83.0 L 62.0 82.0 L 62.0 81.0 L 61.666666666666664 80.0 L 61.0 79.33333333333333 L 60.0 79.0 L 59.333333333333336 79.33333333333333 L 59.0 80.0 L 59.0 81.0 L 59.333333333333336 82.0 L 59.666666666666664 83.0 L 60.0 84.0 L 60.0 85.0 L 60.0 86.0 L 60.0 87.0 L 60.0 88.0 L 60.0 89.0 L 60.0 90.0 L 60.0 91.0 L 59.666666666666664 92.0 L 59.333333333333336 93.0 L 59.0 94.0 L 59.0 95.0 L 59.0 96.0 L 59.0 97.0 L 58.666666666666664 98.0 L 58.333333333333336 99.0 L 58.0 100.0 L 57.666666666666664 101.0 L 57.333333333333336 102.0 L 57.0 103.0 L 56.666666666666664 104.0 L 56.333333333333336 105.0 L 55.666666666666664 106.0 L 55.333333333333336 107.0 L 54.666666666666664 108.0 L 54.333333333333336 109.0 L 53.666666666666664 110.0 L 53.0 111.0 L 52.333333333333336 112.0 L 52.0 113.0 L 52.0 114.0 L 52.333333333333336 114.66666666666667 L 53.0 114.66666666666667 L 53.666666666666664 114.0 L 54.333333333333336 113.0 L 55.0 112.0 L 55.666666666666664 111.0 L 56.333333333333336 110.0 L 56.666666666666664 109.0 L 57.333333333333336 108.0 L 57.666666666666664 107.0 L 58.0 106.0 L 58.333333333333336 105.0 L 58.666666666666664 104.0 L 59.0 103.0 L 59.333333333333336 102.0 L 60.0 101.33333333333333 L 60.666666666666664 100.66666666666667 L 61.0 100.0 L 61.0 99.0 L 61.333333333333336 98.0 L 61.5 97.5 Z" stroke="none" fill="rgb(97,67,57)" />
<path d="M 43.5 83.0 L 44.0 83.0 L 45.0 83.0 L 46.0 83.0 L 47.0 83.0 L 48.0 83.33333333333333 L 49.0 83.66666666666667 L 50.0 84.0 L 51.0 84.0 L 51.666666666666664 83.66666666666667 L 51.666666666666664 83.0 L 51.0 82.0 L 50.0 81.0 L 49.0 80.33333333333333 L 48.0 80.0 L 47.0 80.0 L 46.0 80.33333333333333 L 45.0 80.66666666666667 L 44.0 81.0 L 43.333333333333336 81.33333333333333 L 43.0 82.0 L 43.0 82.5 Z" stroke="none" fill="rgb(92,63,53)" />
<path d="M 69.0 95.5 L 69.33333333333333 95.0 L 69.66666666666667 94.0 L 70.0 93.0 L 70.0 92.0 L 69.66666666666667 91.0 L 69.0 90.0 L 68.33333333333333 89.0 L 68.0 88.0 L 68.0 87.0 L 68.33333333333333 86.0 L 69.0 85.33333333333333 L 69.66666666666667 84.66666666666667 L 70.0 84.0 L 70.0 83.0 L 69.66666666666667 82.0 L 69.33333333333333 81.0 L 68.66666666666667 80.33333333333333 L 68.0 80.0 L 67.33333333333333 80.33333333333333 L 67.0 81.0 L 67.0 82.0 L 67.0 83.0 L 67.0 84.0 L 67.0 85.0 L 67.0 86.0 L 67.0 87.0 L 67.0 88.0 L 67.0 89.0 L 67.0 90.0 L 67.0 91.0 L 67.0 92.0 L 67.0 93.0 L 67.0 94.0 L 67.33333333333333 95.0 L 68.0 95.66666666666667 L 68.5 96.0 Z" stroke="none" fill="rgb(97,67,57)" />
<path d="M 84.5 83.0 L 85.0 83.0 L 85.66666666666667 82.66666666666667 L 85.66666666666667 82.0 L 85.0 81.0 L 84.0 80.33333333333333 L 83.0 80.0 L 82.0 80.0 L 81.0 80.0 L 80.0 80.33333333333333 L 79.0 80.66666666666667 L 78.0 81.33333333333333 L 77.33333333333333 82.0 L 77.0 83.0 L 77.33333333333333 83.66666666666667 L 78.0 84.0 L 79.0 84.0 L 80.0 84.0 L 81.0 83.66666666666667 L 82.0 83.33333333333333 L 83.0 83.0 L 83.5 83.0 Z" stroke="none" fill="rgb(92,63,53)" />
<path d="M 123.5 99.0 L 123.66666666666667 98.66666666666667 L 124.0 98.0 L 124.0 97.0 L 124.0 96.0 L 124.0 95.0 L 124.0 94.0 L 124.0 93.0 L 124.0 92.0 L 124.0 91.0 L 124.0 90.0 L 124.0 89.0 L 124.0 88.0 L 124.0 87.0 L 124.0 86.0 L 124.0 85.0 L 124.0 84.0 L 124.0 83.0 L 124.0 82.0 L 123.66666666666667 81.0 L 123.0 80.33333333333333 L 122.0 80.0 L 121.33333333333333 80.33333333333333 L 121.0 81.0 L 121.0 82.0 L 121.33333333333333 83.0 L 121.66666666666667 84.0 L 122.0 85.0 L 122.0 86.0 L 122.0 87.0 L 122.0 88.0 L 122.0 89.0 L 122.0 90.0 L 122.0 91.0 L 122.0 92.0 L 122.0 93.0 L 122.0 94.0 L 122.0 95.0 L 121.66666666666667 96.0 L 121.33333333333333 97.0 L 121.0 98.0 L 121.0 99.0 L 121.0 100.0 L 120.66666666666667 101.0 L 120.33333333333333 102.0 L 120.0 103.0 L 119.66666666666667 104.0 L 119.33333333333333 105.0 L 119.0 106.0 L 118.66666666666667 107.0 L 118.33333333333333 108.0 L 117.66666666666667 109.0 L 117.33333333333333 110.0 L 116.66666666666667 111.0 L 116.33333333333333 112.0 L 116.0 113.0 L 116.33333333333333 113.66666666666667 L 117.0 113.66666666666667 L 117.66666666666667 113.0 L 118.33333333333333 112.0 L 118.66666666666667 111.0 L 119.33333333333333 110.0 L 119.66666666666667 109.0 L 120.0 108.0 L 120.33333333333333 107.0 L 120.66666666666667 106.0 L 121.0 105.0 L 121.33333333333333 104.0 L 121.66666666666667 103.0 L 122.0 102.0 L 122.0 101.0 L 122.33333333333333 100.0 L 122.5 99.5 Z" stroke="none" fill="rgb(103,72,61)" />
<path d="M 5.5 98.5 L 6.0 98.66666666666667 L 7.0 98.66666666666667 L 7.666666666666667 98.0 L 8.0 97.0 L 7.666666666666667 96.0 L 7.0 95.0 L 6.333333333333333 94.0 L 6.0 93.0 L 6.0 92.0 L 6.0 91.0 L 6.0 90.0 L 6.0 89.0 L 6.0 88.0 L 6.0 87.0 L 6.333333333333333 86.0 L 7.0 85.33333333333333 L 7.666666666666667 84.66666666666667 L 8.0 84.0 L 7.666666666666667 83.0 L 7.0 82.33333333333333 L 6.0 82.0 L 5.333333333333333 82.33333333333333 L 5.0 83.0 L 5.0 84.0 L 5.0 85.0 L 5.0 86.0 L 5.0 87.0 L 5.0 88.0 L 5.0 89.0 L 5.0 90.0 L 5.0 91.0 L 5.0 92.0 L 5.0 93.0 L 5.0 94.0 L 5.0 95.0 L 5.0 96.0 L 5.0 97.0 L 5.0 97.5 Z" stroke="none" fill="rgb(103,72,61)" />
<path d="M 20.5 88.5 L 21.0 88.66666666666667 L 22.0 89.0 L 23.0 89.0 L 24.0 89.0 L 25.0 88.66666666666667 L 25.666666666666668 88.0 L 26.0 87.0 L 26.0 86.0 L 26.0 85.0 L 25.666666666666668 84.0 L 25.0 83.33333333333333 L 24.0 83.0 L 23.0 83.0 L 22.0 83.0 L 21.0 83.33333333333333 L 20.333333333333332 84.0 L 20.0 85.0 L 20.0 86.0 L 20.0 87.0 L 20.0 87.5 Z" stroke="none" fill="rgb(73,54,46)" />
<path d="M 107.5 88.5 L 107.66666666666667 88.0 L 108.0 87.0 L 108.0 86.0 L 108.0 85.0 L 107.66666666666667 84.0 L 107.0 83.33333333333333 L 106.0 83.0 L 105.0 83.0 L 104.0 83.0 L 103.0 83.33333333333333 L 102.33333333333333 84.0 L 102.0 85.0 L 102.0 86.0 L 102.0 87.0 L 102.33333333333333 88.0 L 103.0 88.66666666666667 L 104.0 89.0 L 105.0 89.0 L 106.0 89.0 L 106.5 89.0 Z" stroke="none" fill="rgb(73,54,46)" />
<path d="M 122.0 96.5 L 122.0 96.0 L 122.0 95.0 L 122.0 94.0 L 122.0 93.0 L 122.0 92.0 L 122.0 91.0 L 122.0 90.0 L 122.0 89.0 L 122.0 88.0 L 122.0 87.0 L 122.0 86.0 L 122.0 85.0 L 122.0 84.0 L 121.66666666666667 83.33333333333333 L 121.0 83.0 L 120.33333333333333 83.33333333333333 L 120.0 84.0 L 120.0 85.0 L 120.0 86.0 L 120.0 87.0 L 120.0 88.0 L 120.0 89.0 L 120.0 90.0 L 120.0 91.0 L 120.0 92.0 L 120.0 93.0 L 120.0 94.0 L 120.0 95.0 L 120.0 96.0 L 120.0 97.0 L 120.33333333333333 97.66666666666667 L 121.0 97.66666666666667 L 121.5 97.5 Z" stroke="none" fill="rgb(97,67,57)" />
<path d="M 7.5 96.0 L 7.666666666666667 95.66666666666667 L 8.0 95.0 L 8.333333333333334 94.0 L 8.666666666666666 93.0 L 9.0 92.0 L 9.0 91.0 L 9.0 90.0 L 9.0 89.0 L 9.0 88.0 L 8.666666666666666 87.0 L 8.333333333333334 86.0 L 7.666666666666667 85.33333333333333 L 7.0 85.0 L 6.333333333333333 85.33333333333333 L 6.0 86.0 L 6.0 87.0 L 6.0 88.0 L 6.0 89.0 L 6.0 90.0 L 6.0 91.0 L 6.0 92.0 L 6.0 93.0 L 6.0 94.0 L 6.333333333333333 95.0 L 6.5 95.5 Z" stroke="none" fill="rgb(97,67,57)" />
<path d="M 68.5 90.5 L 69.0 90.66666666666667 L 69.66666666666667 90.66666666666667 L 70.0 90.0 L 70.0 89.0 L 70.0 88.0 L 70.0 87.0 L 70.0 86.0 L 69.66666666666667 85.33333333333333 L 69.0 85.0 L 68.33333333333333 85.33333333333333 L 68.0 86.0 L 68.0 87.0 L 68.0 88.0 L 68.0 89.0 L 68.0 89.5 Z" stroke="none" fill="rgb(92,63,53)" />
<path d="M 50.0 90.5 L 50.0 90.0 L 50.0 89.0 L 50.0 88.0 L 49.666666666666664 87.0 L 49.0 86.33333333333333 L 48.0 86.0 L 47.0 86.0 L 46.0 86.0 L 45.0 86.0 L 44.0 86.33333333333333 L 43.333333333333336 87.0 L 43.0 88.0 L 43.0 89.0 L 43.333333333333336 90.0 L 44.0 91.0 L 45.0 91.66666666666667 L 46.0 92.0 L 47.0 92.0 L 48.0 92.0 L 49.0 91.66666666666667 L 49.5 91.5 Z" stroke="none" fill="rgb(73,54,46)" />
<path d="M 85.0 90.5 L 85.0 90.0 L 85.0 89.0 L 85.0 88.0 L 84.66666666666667 87.0 L 84.0 86.33333333333333 L 83.0 86.0 L 82.0 86.0 L 81.0 86.0 L 80.0 86.0 L 79.33333333333333 86.33333333333333 L 78.66666666666667 87.0 L 78.33333333333333 88.0 L 78.0 89.0 L 78.33333333333333 90.0 L 79.0 91.0 L 80.0 91.66666666666667 L 81.0 92.0 L 82.0 92.0 L 83.0 92.0 L 84.0 91.66666666666667 L 84.5 91.5 Z" stroke="none" fill="rgb(73,54,46)" />
<path d="M 13.5 112.5 L 14.0 112.66666666666667 L 15.0 113.0 L 15.666666666666666 112.66666666666667 L 16.0 112.0 L 15.666666666666666 111.0 L 15.0 110.0 L 14.333333333333334 109.0 L 13.666666666666666 108.0 L 13.333333333333334 107.0 L 12.666666666666666 106.0 L 12.333333333333334 105.0 L 12.0 104.0 L 11.666666666666666 103.0 L 11.333333333333334 102.0 L 11.0 101.0 L 10.666666666666666 100.0 L 10.333333333333334 99.0 L 10.0 98.0 L 10.0 97.0 L 10.0 96.0 L 10.0 95.0 L 10.0 94.0 L 9.666666666666666 93.33333333333333 L 9.0 93.0 L 8.333333333333334 93.33333333333333 L 8.0 94.0 L 8.0 95.0 L 8.0 96.0 L 8.0 97.0 L 8.333333333333334 98.0 L 8.666666666666666 99.0 L 9.0 100.0 L 9.0 101.0 L 9.0 102.0 L 9.333333333333334 103.0 L 9.666666666666666 104.0 L 10.333333333333334 105.0 L 10.666666666666666 106.0 L 11.0 107.0 L 11.333333333333334 108.0 L 11.666666666666666 109.0 L 12.333333333333334 110.0 L 12.666666666666666 111.0 L 13.0 111.5 Z" stroke="none" fill="rgb(92,63,53)" />
<path d="M 32.5 97.0 L 33.0 97.0 L 34.0 97.0 L 35.0 97.0 L 36.0 96.66666666666667 L 36.666666666666664 96.0 L 37.0 95.0 L 36.666666666666664 94.33333333333333 L 36.0 94.0 L 35.0 94.0 L 34.0 94.0 L 33.0 94.0 L 32.0 94.0 L 31.333333333333332 94.33333333333333 L 31.0 95.0 L 31.333333333333332 96.0 L 31.5 96.5 Z" stroke="none" fill="rgb(153,103,80)" />
<path d="M 69.5 98.5 L 69.66666666666667 99.0 L 70.0 100.0 L 70.0 101.0 L 70.33333333333333 102.0 L 70.66666666666667 103.0 L 71.33333333333333 104.0 L 71.66666666666667 105.0 L 72.0 106.0 L 72.33333333333333 107.0 L 72.66666666666667 108.0 L 73.33333333333333 109.0 L 74.0 110.0 L 74.66666666666667 111.0 L 75.33333333333333 112.0 L 76.0 113.0 L 77.0 113.66666666666667 L 78.0 114.0 L 78.66666666666667 113.66666666666667 L 78.66666666666667 113.0 L 78.0 112.0 L 77.33333333333333 111.0 L 76.66666666666667 110.0 L 76.0 109.0 L 75.33333333333333 108.0 L 74.66666666666667 107.0 L 74.33333333333333 106.0 L 73.66666666666667 105.0 L 73.33333333333333 104.0 L 73.0 103.0 L 72.66666666666667 102.0 L 72.33333333333333 101.0 L 72.0 100.0 L 71.66666666666667 99.0 L 71.33333333333333 98.0 L 71.0 97.0 L 71.0 96.0 L 71.0 95.0 L 70.66666666666667 94.33333333333333 L 70.0 94.0 L 69.33333333333333 94.33333333333333 L 69.0 95.0 L 69.0 96.0 L 69.0 97.0 L 69.0 97.5 Z" stroke="none" fill="rgb(92,63,53)" />
<path d="M 95.5 97.0 L 96.0 96.66666666666667 L 96.66666666666667 96.0 L 97.0 95.0 L 96.66666666666667 94.33333333333333 L 96.0 94.0 L 95.0 94.0 L 94.0 94.0 L 93.0 94.0 L 92.0 94.0 L 91.33333333333333 94.33333333333333 L 91.0 95.0 L 91.33333333333333 96.0 L 92.0 96.66666666666667 L 93.0 97.0 L 94.0 97.0 L 94.5 97.0 Z" stroke="none" fill="rgb(153,103,80)" />
<path d="M 69.5 109.5 L 70.0 110.0 L 71.0 111.0 L 71.66666666666667 112.0 L 72.33333333333333 113.0 L 73.0 114.0 L 74.0 115.0 L 75.0 115.66666666666667 L 75.66666666666667 115.66666666666667 L 76.0 115.0 L 75.66666666666667 114.0 L 75.0 113.0 L 74.0 112.0 L 73.33333333333333 111.0 L 72.66666666666667 110.0 L 72.33333333333333 109.0 L 71.66666666666667 108.0 L 71.33333333333333 107.0 L 70.66666666666667 106.0 L 70.33333333333333 105.0 L 70.0 104.0 L 69.66666666666667 103.0 L 69.33333333333333 102.0 L 69.0 101.0 L 68.66666666666667 100.0 L 68.66666666666667 99.0 L 68.66666666666667 98.0 L 69.0 97.0 L 68.66666666666667 96.0 L 68.0 95.33333333333333 L 67.0 95.0 L 66.33333333333333 95.33333333333333 L 66.0 96.0 L 66.0 97.0 L 66.33333333333333 98.0 L 66.66666666666667 99.0 L 67.0 100.0 L 67.0 101.0 L 67.0 102.0 L 67.33333333333333 103.0 L 67.66666666666667 104.0 L 68.0 105.0 L 68.33333333333333 106.0 L 68.66666666666667 107.0 L 69.0 108.0 L 69.0 108.5 Z" stroke="none" fill="rgb(103,72,61)" />
<path d="M 56.0 106.5 L 56.333333333333336 106.0 L 56.666666666666664 105.0 L 57.0 104.0 L 57.333333333333336 103.0 L 57.666666666666664 102.0 L 58.0 101.0 L 58.333333333333336 100.0 L 58.666666666666664 99.0 L 59.0 98.0 L 59.0 97.0 L 58.666666666666664 96.33333333333333 L 58.0 96.0 L 57.333333333333336 96.33333333333333 L 57.0 97.0 L 57.0 98.0 L 56.666666666666664 99.0 L 56.333333333333336 100.0 L 56.0 101.0 L 55.666666666666664 102.0 L 55.333333333333336 103.0 L 54.666666666666664 104.0 L 54.333333333333336 105.0 L 53.666666666666664 106.0 L 53.333333333333336 107.0 L 52.666666666666664 108.0 L 52.333333333333336 109.0 L 51.666666666666664 110.0 L 51.0 111.0 L 50.333333333333336 112.0 L 50.0 113.0 L 50.333333333333336 114.0 L 51.0 114.66666666666667 L 51.666666666666664 114.66666666666667 L 52.0 114.0 L 52.333333333333336 113.0 L 53.0 112.0 L 53.666666666666664 111.0 L 54.333333333333336 110.0 L 54.666666666666664 109.0 L 55.333333333333336 108.0 L 55.5 107.5 Z" stroke="none" fill="rgb(92,63,53)" />
<path d="M 120.5 100.0 L 120.66666666666667 99.66666666666667 L 121.0 99.0 L 120.66666666666667 98.0 L 120.33333333333333 97.0 L 119.66666666666667 96.33333333333333 L 119.0 96.0 L 118.33333333333333 96.33333333333333 L 118.0 97.0 L 118.0 98.0 L 117.66666666666667 99.0 L 117.33333333333333 100.0 L 117.0 101.0 L 117.0 102.0 L 116.66666666666667 103.0 L 116.33333333333333 104.0 L 115.66666666666667 105.0 L 115.33333333333333 106.0 L 114.66666666666667 107.0 L 114.33333333333333 108.0 L 113.66666666666667 109.0 L 113.33333333333333 110.0 L 113.0 111.0 L 113.33333333333333 111.66666666666667 L 114.0 112.0 L 114.66666666666667 111.66666666666667 L 115.33333333333333 111.0 L 115.66666666666667 110.0 L 116.33333333333333 109.0 L 116.66666666666667 108.0 L 117.33333333333333 107.0 L 117.66666666666667 106.0 L 118.0 105.0 L 118.33333333333333 104.0 L 118.66666666666667 103.0 L 119.0 102.0 L 119.33333333333333 101.0 L 119.5 100.5 Z" stroke="none" fill="rgb(92,63,53)" />
<path d="M 10.5 115.5 L 11.0 115.33333333333333 L 11.666666666666666 114.66666666666667 L 12.0 114.0 L 11.666666666666666 113.0 L 11.0 112.0 L 10.0 111.0 L 9.333333333333334 110.0 L 9.0 109.0 L 8.666666666666666 108.0 L 8.333333333333334 107.0 L 7.666666666666667 106.0 L 7.333333333333333 105.0 L 7.0 104.0 L 6.666666666666667 103.0 L 6.666666666666667 102.0 L 6.666666666666667 101.0 L 7.0 100.0 L 6.666666666666667 99.0 L 6.0 98.33333333333333 L 5.0 98.0 L 4.333333333333333 98.33333333333333 L 4.0 99.0 L 4.0 100.0 L 4.0 101.0 L 4.0 102.0 L 4.0 103.0 L 4.0 104.0 L 4.333333333333333 105.0 L 4.666666666666667 106.0 L 5.0 107.0 L 5.0 108.0 L 5.0 109.0 L 5.0 110.0 L 5.333333333333333 111.0 L 5.666666666666667 112.0 L 6.0 113.0 L 6.0 114.0 L 6.333333333333333 115.0 L 7.0 115.66666666666667 L 8.0 116.0 L 9.0 116.0 L 9.5 116.0 Z" stroke="none" fill="rgb(109,76,64)" />
<path d="M 10.5 109.5 L 10.666666666666666 110.0 L 11.333333333333334 111.0 L 12.0 111.66666666666667 L 12.666666666666666 111.66666666666667 L 13.0 111.0 L 12.666666666666666 110.0 L 12.333333333333334 109.0 L 11.666666666666666 108.0 L 11.333333333333334 107.0 L 11.0 106.0 L 10.666666666666666 105.0 L 10.333333333333334 104.0 L 9.666666666666666 103.0 L 9.333333333333334 102.0 L 9.0 101.0 L 9.0 100.0 L 9.0 99.0 L 8.666666666666666 98.33333333333333 L 8.0 98.0 L 7.333333333333333 98.33333333333333 L 7.0 99.0 L 7.0 100.0 L 7.333333333333333 101.0 L 7.666666666666667 102.0 L 8.0 103.0 L 8.333333333333334 104.0 L 8.666666666666666 105.0 L 9.0 106.0 L 9.333333333333334 107.0 L 9.666666666666666 108.0 L 10.0 108.5 Z" stroke="none" fill="rgb(97,67,57)" />
<path d="M 76.5 115.0 L 76.66666666666667 114.66666666666667 L 77.0 114.0 L 76.66666666666667 113.0 L 76.0 112.0 L 75.33333333333333 111.0 L 74.66666666666667 110.0 L 74.0 109.0 L 73.33333333333333 108.0 L 72.66666666666667 107.0 L 72.33333333333333 106.0 L 72.0 105.0 L 71.66666666666667 104.0 L 71.33333333333333 103.0 L 70.66666666666667 102.0 L 70.33333333333333 101.0 L 70.0 100.0 L 70.0 99.0 L 69.66666666666667 98.33333333333333 L 69.0 98.0 L 68.33333333333333 98.33333333333333 L 68.0 99.0 L 68.33333333333333 100.0 L 68.66666666666667 101.0 L 69.0 102.0 L 69.33333333333333 103.0 L 69.66666666666667 104.0 L 70.0 105.0 L 70.33333333333333 106.0 L 70.66666666666667 107.0 L 71.33333333333333 108.0 L 71.66666666666667 109.0 L 72.33333333333333 110.0 L 72.66666666666667 111.0 L 73.33333333333333 112.0 L 74.0 113.0 L 75.0 114.0 L 75.5 114.5 Z" stroke="none" fill="rgb(97,67,57)" />
<path d="M 33.5 105.0 L 34.0 105.0 L 35.0 105.0 L 36.0 105.0 L 37.0 105.0 L 38.0 105.0 L 39.0 104.66666666666667 L 40.0 104.0 L 40.666666666666664 103.0 L 41.0 102.0 L 40.666666666666664 101.0 L 40.0 100.33333333333333 L 39.0 100.0 L 38.0 100.0 L 37.0 100.0 L 36.0 100.0 L 35.0 100.0 L 34.0 100.0 L 33.0 100.0 L 32.0 100.0 L 31.0 99.66666666666667 L 30.0 99.33333333333333 L 29.0 99.0 L 28.0 99.0 L 27.0 99.0 L 26.333333333333332 99.33333333333333 L 26.0 100.0 L 26.333333333333332 101.0 L 27.0 102.0 L 28.0 103.0 L 29.0 103.66666666666667 L 30.0 104.33333333333333 L 31.0 104.66666666666667 L 32.0 105.0 L 32.5 105.0 Z" stroke="none" fill="rgb(92,63,53)" />
<path d="M 88.5 103.5 L 89.0 103.66666666666667 L 90.0 104.0 L 91.0 104.33333333333333 L 92.0 104.66666666666667 L 93.0 105.0 L 94.0 105.0 L 95.0 105.0 L 96.0 105.0 L 97.0 105.0 L 98.0 105.0 L 99.0 104.66666666666667 L 100.0 104.0 L 101.0 103.0 L 101.66666666666667 102.0 L 102.0 101.0 L 102.0 100.0 L 101.66666666666667 99.33333333333333 L 101.0 99.0 L 100.0 99.33333333333333 L 99.0 99.66666666666667 L 98.0 100.0 L 97.0 100.0 L 96.0 100.0 L 95.0 100.0 L 94.0 100.0 L 93.0 100.0 L 92.0 100.0 L 91.0 100.0 L 90.0 100.0 L 89.0 100.0 L 88.0 100.33333333333333 L 87.33333333333333 101.0 L 87.33333333333333 102.0 L 87.5 102.5 Z" stroke="none" fill="rgb(92,63,53)" />
<path d="M 122.0 114.5 L 122.0 114.0 L 122.0 113.0 L 122.33333333333333 112.0 L 122.66666666666667 111.0 L 123.0 110.0 L 123.0 109.0 L 123.0 108.0 L 123.0 107.0 L 123.33333333333333 106.0 L 123.66666666666667 105.0 L 124.0 104.0 L 124.0 103.0 L 124.0 102.0 L 124.0 101.0 L 124.0 100.0 L 123.66666666666667 99.33333333333333 L 123.0 99.0 L 122.33333333333333 99.33333333333333 L 122.0 100.0 L 122.0 101.0 L 121.66666666666667 102.0 L 121.33333333333333 103.0 L 121.0 104.0 L 120.66666666666667 105.0 L 120.33333333333333 106.0 L 120.0 107.0 L 119.66666666666667 108.0 L 119.33333333333333 109.0 L 118.66666666666667 110.0 L 118.33333333333333 111.0 L 117.66666666666667 112.0 L 117.33333333333333 113.0 L 117.0 114.0 L 117.33333333333333 115.0 L 118.0 115.66666666666667 L 119.0 116.0 L 120.0 116.0 L 121.0 115.66666666666667 L 121.5 115.5 Z" stroke="none" fill="rgb(109,76,64)" />
<path d="M 120.0 104.5 L 120.0 104.0 L 120.33333333333333 103.0 L 120.66666666666667 102.0 L 121.0 101.0 L 120.66666666666667 100.33333333333333 L 120.0 100.0 L 119.33333333333333 100.33333333333333 L 119.0 101.0 L 118.66666666666667 102.0 L 118.33333333333333 103.0 L 118.0 104.0 L 117.66666666666667 105.0 L 117.33333333333333 106.0 L 116.66666666666667 107.0 L 116.33333333333333 108.0 L 115.66666666666667 109.0 L 115.33333333333333 110.0 L 114.66666666666667 111.0 L 114.33333333333333 112.0 L 114.33333333333333 112.66666666666667 L 115.0 113.0 L 116.0 112.66666666666667 L 116.66666666666667 112.0 L 117.33333333333333 111.0 L 117.66666666666667 110.0 L 118.33333333333333 109.0 L 118.66666666666667 108.0 L 119.0 107.0 L 119.33333333333333 106.0 L 119.5 105.5 Z" stroke="none" fill="rgb(97,67,57)" />
<path d="M 10.5 112.5 L 11.0 113.0 L 12.0 113.66666666666667 L 12.666666666666666 113.66666666666667 L 13.0 113.0 L 12.666666666666666 112.0 L 12.0 111.0 L 11.333333333333334 110.0 L 10.666666666666666 109.0 L 10.333333333333334 108.0 L 9.666666666666666 107.0 L 9.333333333333334 106.0 L 9.0 105.0 L 8.666666666666666 104.0 L 8.333333333333334 103.0 L 8.0 102.0 L 7.666666666666667 101.33333333333333 L 7.0 101.0 L 6.333333333333333 101.33333333333333 L 6.0 102.0 L 6.333333333333333 103.0 L 6.666666666666667 104.0 L 7.0 105.0 L 7.333333333333333 106.0 L 7.666666666666667 107.0 L 8.333333333333334 108.0 L 8.666666666666666 109.0 L 9.0 110.0 L 9.333333333333334 111.0 L 9.5 111.5 Z" stroke="none" fill="rgb(103,72,61)" />
<path d="M 59.0 109.5 L 59.0 109.0 L 59.333333333333336 108.0 L 59.666666666666664 107.0 L 60.0 106.0 L 60.0 105.0 L 60.333333333333336 104.0 L 60.666666666666664 103.0 L 61.0 102.0 L 60.666666666666664 101.33333333333333 L 60.0 101.0 L 59.333333333333336 101.33333333333333 L 59.0 102.0 L 58.666666666666664 103.0 L 58.333333333333336 104.0 L 58.0 105.0 L 57.666666666666664 106.0 L 57.333333333333336 107.0 L 56.666666666666664 108.0 L 56.333333333333336 109.0 L 55.666666666666664 110.0 L 55.0 111.0 L 54.333333333333336 112.0 L 53.666666666666664 113.0 L 53.333333333333336 114.0 L 53.0 115.0 L 53.333333333333336 115.66666666666667 L 54.0 115.66666666666667 L 54.666666666666664 115.0 L 55.333333333333336 114.0 L 56.0 113.0 L 57.0 112.33333333333333 L 57.666666666666664 111.66666666666667 L 58.333333333333336 111.0 L 58.5 110.5 Z" stroke="none" fill="rgb(103,72,61)" />
<path d="M 24.5 114.5 L 24.666666666666668 115.0 L 25.333333333333332 116.0 L 26.0 116.66666666666667 L 27.0 117.0 L 28.0 117.33333333333333 L 29.0 117.66666666666667 L 30.0 118.0 L 31.0 118.0 L 32.0 118.0 L 33.0 118.0 L 34.0 117.66666666666667 L 35.0 117.0 L 36.0 116.0 L 36.666666666666664 115.0 L 37.0 114.0 L 37.0 113.0 L 36.666666666666664 112.33333333333333 L 36.0 112.0 L 35.0 112.0 L 34.0 112.0 L 33.0 112.0 L 32.0 112.0 L 31.0 112.0 L 30.0 112.0 L 29.0 112.0 L 28.0 111.66666666666667 L 27.0 111.33333333333333 L 26.0 111.0 L 25.0 111.0 L 24.333333333333332 111.33333333333333 L 24.0 112.0 L 24.0 113.0 L 24.0 113.5 Z" stroke="none" fill="rgb(153,103,80)" />
<path d="M 43.5 116.0 L 44.0 116.0 L 45.0 116.0 L 46.0 116.0 L 47.0 116.0 L 48.0 116.0 L 49.0 116.0 L 50.0 116.0 L 50.666666666666664 115.66666666666667 L 51.0 115.0 L 50.666666666666664 114.0 L 50.0 113.33333333333333 L 49.0 113.0 L 48.0 112.66666666666667 L 47.0 112.33333333333333 L 46.0 112.0 L 45.0 111.66666666666667 L 44.0 111.33333333333333 L 43.0 111.0 L 42.0 111.0 L 41.0 111.0 L 40.0 111.0 L 39.0 111.33333333333333 L 38.0 112.0 L 37.333333333333336 113.0 L 37.0 114.0 L 37.0 115.0 L 37.333333333333336 115.66666666666667 L 38.0 116.0 L 39.0 116.0 L 40.0 116.0 L 41.0 116.0 L 42.0 116.0 L 42.5 116.0 Z" stroke="none" fill="rgb(97,27,249)" />
<path d="M 75.0 117.5 L 75.0 117.0 L 75.0 116.0 L 74.66666666666667 115.0 L 74.0 114.0 L 73.0 113.0 L 72.33333333333333 112.0 L 71.66666666666667 111.33333333333333 L 71.0 111.0 L 70.33333333333333 111.33333333333333 L 70.0 112.0 L 70.0 113.0 L 70.33333333333333 114.0 L 70.66666666666667 115.0 L 71.0 116.0 L 71.33333333333333 117.0 L 72.0 117.66666666666667 L 73.0 118.0 L 74.0 118.0 L 74.5 118.0 Z" stroke="none" fill="rgb(109,76,64)" />
<path d="M 78.5 118.0 L 79.0 118.0 L 80.0 118.0 L 81.0 118.0 L 82.0 118.0 L 83.0 118.0 L 84.0 118.0 L 85.0 118.0 L 86.0 118.0 L 87.0 118.0 L 88.0 118.0 L 89.0 118.0 L 90.0 118.0 L 91.0 118.0 L 92.0 118.0 L 92.66666666666667 117.66666666666667 L 93.0 117.0 L 92.66666666666667 116.0 L 92.0 115.0 L 91.33333333333333 114.0 L 90.66666666666667 113.0 L 90.0 112.0 L 89.0 111.33333333333333 L 88.0 111.0 L 87.0 111.0 L 86.0 111.33333333333333 L 85.0 111.66666666666667 L 84.0 112.0 L 83.0 112.33333333333333 L 82.0 112.66666666666667 L 81.0 113.0 L 80.0 113.0 L 79.0 113.33333333333333 L 78.0 113.66666666666667 L 77.0 114.33333333333333 L 76.0 115.0 L 75.33333333333333 116.0 L 75.0 117.0 L 75.33333333333333 117.66666666666667 L 76.0 118.0 L 77.0 118.0 L 77.5 118.0 Z" stroke="none" fill="rgb(164,0,246)" />
<path d="M 95.5 118.0 L 96.0 118.0 L 97.0 118.0 L 98.0 118.0 L 99.0 118.0 L 100.0 117.66666666666667 L 101.0 117.0 L 102.0 116.0 L 103.0 115.0 L 103.66666666666667 114.0 L 104.0 113.0 L 103.66666666666667 112.0 L 103.0 111.33333333333333 L 102.0 111.33333333333333 L 101.0 111.66666666666667 L 100.0 112.0 L 99.0 112.33333333333333 L 98.0 112.66666666666667 L 97.0 113.0 L 96.0 113.0 L 95.0 113.0 L 94.0 113.0 L 93.0 113.0 L 92.0 113.0 L 91.33333333333333 113.33333333333333 L 91.0 114.0 L 91.33333333333333 115.0 L 92.0 116.0 L 93.0 116.66666666666667 L 94.0 117.33333333333333 L 94.5 117.5 Z" stroke="none" fill="rgb(153,103,80)" />
<path d="M 107.5 118.0 L 108.0 118.0 L 109.0 118.0 L 110.0 118.0 L 111.0 118.0 L 112.0 118.0 L 113.0 118.0 L 114.0 118.0 L 115.0 118.0 L 116.0 118.0 L 117.0 118.0 L 118.0 118.0 L 119.0 118.0 L 120.0 118.0 L 121.0 118.0 L 121.66666666666667 117.66666666666667 L 121.66666666666667 117.0 L 121.0 116.33333333333333 L 120.0 116.0 L 119.0 115.66666666666667 L 118.0 115.0 L 117.0 114.0 L 116.0 113.33333333333333 L 115.0 112.66666666666667 L 114.0 112.33333333333333 L 113.0 112.0 L 112.0 112.0 L 111.0 111.66666666666667 L 110.0 111.33333333333333 L 109.0 111.0 L 108.0 111.0 L 107.0 111.0 L 106.0 111.0 L 105.0 111.0 L 104.33333333333333 111.33333333333333 L 104.0 112.0 L 103.66666666666667 113.0 L 103.0 114.0 L 102.0 115.0 L 101.33333333333333 116.0 L 101.0 117.0 L 101.33333333333333 117.66666666666667 L 102.0 118.0 L 103.0 118.0 L 104.0 118.0 L 105.0 118.0 L 106.0 118.0 L 106.5 118.0 Z" stroke="none" fill="rgb(164,0,246)" />
<path d="M 14.0 112.5 L 13.666666666666666 112.33333333333333 L 13.333333333333334 112.33333333333333 L 13.333333333333334 112.66666666666667 L 13.5 113.0 Z" stroke="none" fill="rgb(97,67,57)" />
<path d="M 24.5 116.0 L 24.666666666666668 115.66666666666667 L 25.0 115.0 L 24.666666666666668 114.0 L 24.333333333333332 113.0 L 23.666666666666668 112.33333333333333 L 23.0 112.0 L 22.0 112.0 L 21.0 112.0 L 20.0 112.0 L 19.0 112.0 L 18.0 112.0 L 17.0 112.0 L 16.0 112.33333333333333 L 15.0 112.66666666666667 L 14.0 113.0 L 13.0 113.33333333333333 L 12.333333333333334 114.0 L 12.0 115.0 L 12.333333333333334 115.66666666666667 L 13.0 116.0 L 14.0 116.0 L 15.0 116.0 L 16.0 116.0 L 17.0 116.0 L 18.0 116.0 L 19.0 116.0 L 20.0 116.0 L 21.0 116.0 L 22.0 116.0 L 23.0 116.0 L 23.5 116.0 Z" stroke="none" fill="rgb(97,27,249)" />
<path d="M 55.5 118.0 L 56.0 117.66666666666667 L 56.666666666666664 117.0 L 57.0 116.0 L 57.333333333333336 115.0 L 57.666666666666664 114.0 L 58.0 113.0 L 57.666666666666664 112.33333333333333 L 57.0 112.0 L 56.0 112.33333333333333 L 55.333333333333336 113.0 L 54.666666666666664 114.0 L 54.333333333333336 115.0 L 54.0 116.0 L 54.333333333333336 117.0 L 54.5 117.5 Z" stroke="none" fill="rgb(109,76,64)" />
<path d="M 43.5 120.0 L 44.0 120.0 L 45.0 120.0 L 46.0 120.0 L 47.0 120.0 L 48.0 120.0 L 49.0 120.0 L 50.0 120.0 L 51.0 120.0 L 52.0 120.0 L 53.0 120.0 L 54.0 120.0 L 55.0 120.0 L 56.0 120.0 L 56.666666666666664 119.66666666666667 L 57.0 119.0 L 56.666666666666664 118.33333333333333 L 56.0 117.66666666666667 L 55.0 117.0 L 54.0 116.0 L 53.0 115.33333333333333 L 52.0 115.0 L 51.0 115.33333333333333 L 50.0 115.66666666666667 L 49.0 116.0 L 48.0 116.0 L 47.0 116.0 L 46.0 116.0 L 45.0 116.0 L 44.0 116.0 L 43.0 116.0 L 42.0 116.0 L 41.0 116.0 L 40.0 116.0 L 39.0 116.0 L 38.0 115.66666666666667 L 37.0 115.33333333333333 L 36.0 115.33333333333333 L 35.0 116.0 L 34.0 117.0 L 33.0 117.66666666666667 L 32.0 118.0 L 31.0 118.0 L 30.0 117.66666666666667 L 29.0 117.33333333333333 L 28.0 117.0 L 27.0 116.66666666666667 L 26.0 116.33333333333333 L 25.0 116.0 L 24.0 116.0 L 23.0 116.0 L 22.0 116.0 L 21.0 116.0 L 20.0 116.0 L 19.0 116.0 L 18.0 116.0 L 17.0 116.0 L 16.0 116.0 L 15.0 116.0 L 14.0 116.0 L 13.0 115.66666666666667 L 12.0 115.33333333333333 L 11.0 115.0 L 10.0 115.33333333333333 L 9.0 115.66666666666667 L 8.0 116.0 L 7.0 116.33333333333333 L 6.0 117.0 L 5.333333333333333 118.0 L 5.0 119.0 L 5.333333333333333 119.66666666666667 L 6.0 120.0 L 7.0 120.0 L 8.0 120.0 L 9.0 120.0 L 10.0 120.0 L 11.0 120.0 L 12.0 120.0 L 13.0 120.0 L 14.0 120.0 L 15.0 120.0 L 16.0 120.0 L 17.0 120.0 L 18.0 120.0 L 19.0 120.0 L 20.0 120.0 L 21.0 120.0 L 22.0 120.0 L 23.0 120.0 L 24.0 120.0 L 25.0 120.0 L 26.0 120.0 L 27.0 120.0 L 28.0 120.0 L 29.0 120.0 L 30.0 120.0 L 31.0 120.0 L 32.0 120.0 L 33.0 120.0 L 34.0 120.0 L 35.0 120.0 L 36.0 120.0 L 37.0 120.0 L 38.0 120.0 L 39.0 120.0 L 40.0 120.0 L 41.0 120.0 L 42.0 120.0 L 42.5 120.0 Z" stroke="none" fill="rgb(91,22,243)" />
<path d="M 95.5 124.0 L 96.0 124.0 L 97.0 124.0 L 98.0 124.0 L 99.0 124.0 L 100.0 124.0 L 101.0 124.0 L 102.0 124.0 L 103.0 124.0 L 104.0 124.0 L 105.0 124.0 L 106.0 124.0 L 107.0 124.0 L 108.0 124.0 L 109.0 124.0 L 110.0 124.0 L 111.0 124.0 L 112.0 124.0 L 113.0 124.0 L 114.0 124.0 L 115.0 124.0 L 116.0 124.0 L 117.0 124.0 L 118.0 124.0 L 119.0 124.0 L 120.0 124.0 L 121.0 124.0 L 122.0 124.0 L 123.0 124.0 L 124.0 124.0 L 125.0 124.0 L 125.66666666666667 123.66666666666667 L 126.0 123.0 L 125.66666666666667 122.0 L 125.33333333333333 121.0 L 124.66666666666667 120.0 L 124.0 119.0 L 123.0 118.33333333333333 L 122.0 118.0 L 121.0 118.0 L 120.0 118.0 L 119.0 118.0 L 118.0 118.0 L 117.0 118.0 L 116.0 118.0 L 115.0 118.0 L 114.0 118.0 L 113.0 118.0 L 112.0 118.0 L 111.0 118.0 L 110.0 118.0 L 109.0 118.0 L 108.0 118.0 L 107.0 118.0 L 106.0 118.0 L 105.0 118.0 L 104.0 118.0 L 103.0 118.0 L 102.0 117.66666666666667 L 101.0 117.33333333333333 L 100.0 117.33333333333333 L 99.0 117.66666666666667 L 98.0 118.0 L 97.0 118.0 L 96.0 117.66666666666667 L 95.0 117.33333333333333 L 94.0 117.0 L 93.0 117.33333333333333 L 92.0 117.66666666666667 L 91.0 118.0 L 90.0 118.0 L 89.0 118.0 L 88.0 118.0 L 87.0 118.0 L 86.0 118.0 L 85.0 118.0 L 84.0 118.0 L 83.0 118.0 L 82.0 118.0 L 81.0 118.0 L 80.0 118.0 L 79.0 118.0 L 78.0 118.0 L 77.0 118.0 L 76.0 118.0 L 75.0 118.0 L 74.0 118.0 L 73.0 118.0 L 72.0 118.0 L 71.0 118.33333333333333 L 70.33333333333333 119.0 L 69.66666666666667 120.0 L 69.33333333333333 121.0 L 69.0 122.0 L 69.0 123.0 L 69.33333333333333 123.66666666666667 L 70.0 124.0 L 71.0 124.0 L 72.0 124.0 L 73.0 124.0 L 74.0 124.0 L 75.0 124.0 L 76.0 124.0 L 77.0 124.0 L 78.0 124.0 L 79.0 124.0 L 80.0 124.0 L 81.0 124.0 L 82.0 124.0 L 83.0 124.0 L 84.0 124.0 L 85.0 124.0 L 86.0 124.0 L 87.0 124.0 L 88.0 124.0 L 89.0 124.0 L 90.0 124.0 L 91.0 124.0 L 92.0 124.0 L 93.0 124.0 L 94.0 124.0 L 94.5 124.0 Z" stroke="none" fill="rgb(157,0,235)" />
<path d="M 39.5 124.0 L 40.0 124.0 L 41.0 124.0 L 42.0 124.0 L 43.0 124.0 L 44.0 124.0 L 45.0 124.0 L 46.0 124.0 L 47.0 124.0 L 48.0 124.0 L 49.0 124.0 L 50.0 124.0 L 51.0 124.0 L 52.0 124.0 L 53.0 124.0 L 54.0 124.0 L 55.0 124.0 L 56.0 124.0 L 57.0 124.0 L 58.0 124.0 L 58.666666666666664 123.66666666666667 L 59.0 123.0 L 59.0 122.0 L 58.666666666666664 121.0 L 58.0 120.33333333333333 L 57.0 120.0 L 56.0 120.0 L 55.0 120.0 L 54.0 120.0 L 53.0 120.0 L 52.0 120.0 L 51.0 120.0 L 50.0 120.0 L 49.0 120.0 L 48.0 120.0 L 47.0 120.0 L 46.0 120.0 L 45.0 120.0 L 44.0 120.0 L 43.0 120.0 L 42.0 120.0 L 41.0 120.0 L 40.0 120.0 L 39.0 120.0 L 38.0 120.0 L 37.0 120.0 L 36.0 120.0 L 35.0 120.0 L 34.0 120.0 L 33.0 120.0 L 32.0 120.0 L 31.0 120.0 L 30.0 120.0 L 29.0 120.0 L 28.0 120.0 L 27.0 120.0 L 26.0 120.0 L 25.0 120.0 L 24.0 120.0 L 23.0 120.0 L 22.0 120.0 L 21.0 120.0 L 20.0 120.0 L 19.0 120.0 L 18.0 120.0 L 17.0 120.0 L 16.0 120.0 L 15.0 120.0 L 14.0 120.0 L 13.0 120.0 L 12.0 120.0 L 11.0 120.0 L 10.0 120.0 L 9.0 120.0 L 8.0 120.0 L 7.0 120.0 L 6.0 120.0 L 5.0 120.0 L 4.0 120.0 L 3.3333333333333335 120.33333333333333 L 2.6666666666666665 121.0 L 2.3333333333333335 122.0 L 2.0 123.0 L 2.3333333333333335 123.66666666666667 L 3.0 124.0 L 4.0 124.0 L 5.0 124.0 L 6.0 124.0 L 7.0 124.0 L 8.0 124.0 L 9.0 124.0 L 10.0 124.0 L 11.0 124.0 L 12.0 124.0 L 13.0 124.0 L 14.0 124.0 L 15.0 124.0 L 16.0 124.0 L 17.0 124.0 L 18.0 124.0 L 19.0 124.0 L 20.0 124.0 L 21.0 124.0 L 22.0 124.0 L 23.0 124.0 L 24.0 124.0 L 25.0 124.0 L 26.0 124.0 L 27.0 124.0 L 28.0 124.0 L 29.0 124.0 L 30.0 124.0 L 31.0 124.0 L 32.0 124.0 L 33.0 124.0 L 34.0 124.0 L 35.0 124.0 L 36.0 124.0 L 37.0 124.0 L 38.0 124.0 L 38.5 124.0 Z" stroke="none" fill="rgb(85,16,238)" />
</svg>
