<?xml version="1.0" encoding="UTF-8" standalone="no"?>
<!DOCTYPE svg PUBLIC "-//W3C//DTD SVG 1.1//EN"
"http://www.w3.org/Graphics/SVG/1.1/DTD/svg11.dtd">
<svg width="128" height="128" xmlns="http://www.w3.org/2000/svg" version="1.1">
<path d="M 26.5 128.0 L 27.0 128.0 L 28.0 128.0 L 29.0 128.0 L 30.0 128.0 L 31.0 128.0 L 32.0 128.0 L 33.0 128.0 L 34.0 128.0 L 35.0 128.0 L 36.0 128.0 L 37.0 128.0 L 38.0 128.0 L 39.0 128.0 L 40.0 128.0 L 41.0 128.0 L 42.0 128.0 L 43.0 128.0 L 44.0 128.0 L 45.0 128.0 L 46.0 128.0 L 47.0 128.0 L 48.0 128.0 L 49.0 128.0 L 50.0 128.0 L 51.0 128.0 L 52.0 128.0 L 53.0 128.0 L 54.0 128.0 L 55.0 128.0 L 56.0 128.0 L 57.0 128.0 L 58.0 128.0 L 59.0 128.0 L 60.0 128.0 L 61.0 128.0 L 62.0 128.0 L 63.0 128.0 L 64.0 128.0 L 65.0 128.0 L 66.0 128.0 L 67.0 128.0 L 68.0 128.0 L 69.0 128.0 L 70.0 128.0 L 71.0 128.0 L 72.0 128.0 L 73.0 128.0 L 74.0 128.0 L 75.0 128.0 L 76.0 128.0 L 77.0 128.0 L 78.0 128.0 L 79.0 128.0 L 80.0 128.0 L 81.0 128.0 L 82.0 128.0 L 83.0 128.0 L 84.0 128.0 L 85.0 128.0 L 86.0 128.0 L 87.0 128.0 L 88.0 128.0 L 89.0 128.0 L 90.0 128.0 L 91.0 128.0 L 92.0 128.0 L 93.0 128.0 L 94.0 128.0 L 95.0 128.0 L 96.0 128.0 L 97.0 128.0 L 98.0 128.0 L 99.0 128.0 L 100.0 128.0 L 101.0 128.0 L 102.0 128.0 L 103.0 128.0 L 104.0 128.0 L 105.0 128.0 L 106.0 128.0 L 107.0 128.0 L 108.0 128.0 L 109.0 128.0 L 110.0 128.0 L 111.0 128.0 L 112.0 128.0 L 113.0 128.0 L 114.0 128.0 L 115.0 128.0 L 116.0 128.0 L 117.0 128.0 L 118.0 128.0 L 119.0 128.0 L 120.0 128.0 L 121.0 128.0 L 122.0 128.0 L 123.0 128.0 L 124.0 128.0 L 125.0 128.0 L 126.0 128.0 L 127.0 128.0 L 127.66666666666667 127.66666666666667 L 128.0 127.0 L 128.0 126.0 L 128.0 125.0 L 128.0 124.0 L 128.0 123.0 L 128.0 122.0 L 128.0 121.0 L 128.0 120.0 L 128.0 119.0 L 128.0 118.0 L 128.0 117.0 L 128.0 116.0 L 128.0 115.0 L 128.0 114.0 L 128.0 113.0 L 128.0 112.0 L 128.0 111.0 L 128.0 110.0 L 128.0 109.0 L 128.0 108.0 L 128.0 107.0 L 128.0 106.0 L 128.0 105.0 L 128.0 104.0 L 128.0 103.0 L 128.0 102.0 L 128.0 101.0 L 128.0 100.0 L 128.0 99.0 L 128.0 98.0 L 128.0 97.0 L 128.0 96.0 L 128.0 95.0 L 128.0 94.0 L 128.0 93.0 L 128.0 92.0 L 128.0 91.0 L 128.0 90.0 L 128.0 89.0 L 128.0 88.0 L 128.0 87.0 L 128.0 86.0 L 128.0 85.0 L 128.0 84.0 L 128.0 83.0 L 128.0 82.0 L 128.0 81.0 L 128.0 80.0 L 128.0 79.0 L 128.0 78.0 L 128.0 77.0 L 128.0 76.0 L 128.0 75.0 L 128.0 74.0 L 128.0 73.0 L 128.0 72.0 L 128.0 71.0 L 128.0 70.0 L 128.0 69.0 L 128.0 68.0 L 128.0 67.0 L 128.0 66.0 L 128.0 65.0 L 128.0 64.0 L 128.0 63.0 L 128.0 62.0 L 128.0 61.0 L 128.0 60.0 L 128.0 59.0 L 128.0 58.0 L 128.0 57.0 L 128.0 56.0 L 128.0 55.0 L 128.0 54.0 L 128.0 53.0 L 128.0 52.0 L 128.0 51.0 L 128.0 50.0 L 128.0 49.0 L 128.0 48.0 L 128.0 47.0 L 128.0 46.0 L 128.0 45.0 L 128.0 44.0 L 128.0 43.0 L 128.0 42.0 L 128.0 41.0 L 128.0 40.0 L 128.0 39.0 L 128.0 38.0 L 128.0 37.0 L 128.0 36.0 L 128.0 35.0 L 128.0 34.0 L 128.0 33.0 L 128.0 32.0 L 128.0 31.0 L 128.0 30.0 L 128.0 29.0 L 128.0 28.0 L 128.0 27.0 L 128.0 26.0 L 128.0 25.0 L 128.0 24.0 L 128.0 23.0 L 128.0 22.0 L 128.0 21.0 L 128.0 20.0 L 128.0 19.0 L 128.0 18.0 L 128.0 17.0 L 128.0 16.0 L 128.0 15.0 L 128.0 14.0 L 128.0 13.0 L 128.0 12.0 L 128.0 11.0 L 128.0 10.0 L 128.0 9.0 L 128.0 8.0 L 128.0 7.0 L 128.0 6.0 L 128.0 5.0 L 128.0 4.0 L 128.0 3.0 L 128.0 2.0 L 128.0 1.0 L 127.66666666666667 0.3333333333333333 L 127.0 0.0 L 126.0 0.0 L 125.0 0.0 L 124.0 0.0 L 123.0 0.0 L 122.0 0.0 L 121.0 0.0 L 120.0 0.0 L 119.0 0.0 L 118.0 0.0 L 117.0 0.0 L 116.0 0.0 L 115.0 0.0 L 114.0 0.0 L 113.0 0.0 L 112.0 0.0 L 111.0 0.0 L 110.0 0.0 L 109.0 0.0 L 108.0 0.0 L 107.0 0.0 L 106.0 0.0 L 105.0 0.0 L 104.0 0.0 L 103.0 0.0 L 102.0 0.0 L 101.0 0.0 L 100.0 0.0 L 99.0 0.0 L 98.0 0.0 L 97.0 0.0 L 96.0 0.0 L 95.0 0.0 L 94.0 0.0 L 93.0 0.0 L 92.0 0.0 L 91.0 0.0 L 90.0 0.0 L 89.0 0.0 L 88.0 0.0 L 87.0 0.0 L 86.0 0.0 L 85.0 0.0 L 84.0 0.0 L 83.0 0.0 L 82.0 0.0 L 81.0 0.0 L 80.0 0.0 L 79.0 0.0 L 78.0 0.0 L 77.0 0.0 L 76.0 0.0 L 75.0 0.0 L 74.0 0.0 L 73.0 0.0 L 72.0 0.0 L 71.0 0.0 L 70.0 0.0 L 69.0 0.0 L 68.0 0.0 L 67.0 0.0 L 66.0 0.0 L 65.0 0.0 L 64.0 0.0 L 63.0 0.0 L 62.0 0.0 L 61.0 0.0 L 60.0 0.0 L 59.0 0.0 L 58.0 0.0 L 57.0 0.0 L 56.0 0.0 L 55.0 0.0 L 54.0 0.0 L 53.0 0.0 L 52.0 0.0 L 51.0 0.0 L 50.0 0.0 L 49.0 0.0 L 48.0 0.0 L 47.0 0.0 L 46.0 0.0 L 45.0 0.0 L 44.0 0.0 L 43.0 0.0 L 42.0 0.0 L 41.0 0.0 L 40.0 0.0 L 39.0 0.0 L 38.0 0.0 L 37.0 0.0 L 36.0 0.0 L 35.0 0.0 L 34.0 0.0 L 33.0 0.0 L 32.0 0.0 L 31.0 0.0 L 30.0 0.0 L 29.0 0.0 L 28.0 0.0 L 27.0 0.0 L 26.0 0.0 L 25.0 0.0 L 24.0 0.0 L 23.0 0.0 L 22.0 0.0 L 21.0 0.0 L 20.0 0.0 L 19.0 0.0 L 18.0 0.0 L 17.0 0.0 L 16.0 0.0 L 15.0 0.0 L 14.0 0.0 L 13.0 0.0 L 12.0 0.0 L 11.0 0.0 L 10.0 0.0 L 9.0 0.0 L 8.0 0.0 L 7.0 0.0 L 6.0 0.0 L 5.0 0.0 L 4.0 0.0 L 3.0 0.0 L 2.0 0.0 L 1.0 0.0 L 0.3333333333333333 0.3333333333333333 L 0.0 1.0 L 0.0 2.0 L 0.0 3.0 L 0.0 4.0 L 0.0 5.0 L 0.0 6.0 L 0.0 7.0 L 0.0 8.0 L 0.0 9.0 L 0.0 10.0 L 0.0 11.0 L 0.0 12.0 L 0.0 13.0 L 0.0 14.0 L 0.0 15.0 L 0.0 16.0 L 0.0 17.0 L 0.0 18.0 L 0.0 19.0 L 0.0 20.0 L 0.0 21.0 L 0.0 22.0 L 0.0 23.0 L 0.0 24.0 L 0.0 25.0 L 0.0 26.0 L 0.0 27.0 L 0.0 28.0 L 0.0 29.0 L 0.0 30.0 L 0.0 31.0 L 0.0 32.0 L 0.0 33.0 L 0.0 34.0 L 0.0 35.0 L 0.0 36.0 L 0.0 37.0 L 0.0 38.0 L 0.0 39.0 L 0.0 40.0 L 0.0 41.0 L 0.0 42.0 L 0.0 43.0 L 0.0 44.0 L 0.0 45.0 L 0.0 46.0 L 0.0 47.0 L 0.0 48.0 L 0.0 49.0 L 0.0 50.0 L 0.0 51.0 L 0.0 52.0 L 0.0 53.0 L 0.0 54.0 L 0.0 55.0 L 0.0 56.0 L 0.0 57.0 L 0.0 58.0 L 0.0 59.0 L 0.0 60.0 L 0.0 61.0 L 0.0 62.0 L 0.0 63.0 L 0.0 64.0 L 0.0 65.0 L 0.0 66.0 L 0.0 67.0 L 0.0 68.0 L 0.0 69.0 L 0.0 70.0 L 0.0 71.0 L 0.0 72.0 L 0.0 73.0 L 0.0 74.0 L 0.0 75.0 L 0.0 76.0 L 0.0 77.0 L 0.0 78.0 L 0.0 79.0 L 0.0 80.0 L 0.0 81.0 L 0.0 82.0 L 0.0 83.0 L 0.0 84.0 L 0.0 85.0 L 0.0 86.0 L 0.0 87.0 L 0.0 88.0 L 0.0 89.0 L 0.0 90.0 L 0.0 91.0 L 0.0 92.0 L 0.0 93.0 L 0.0 94.0 L 0.0 95.0 L 0.0 96.0 L 0.0 97.0 L 0.0 98.0 L 0.0 99.0 L 0.0 100.0 L 0.0 101.0 L 0.0 102.0 L 0.0 103.0 L 0.0 104.0 L 0.0 105.0 L 0.0 106.0 L 0.0 107.0 L 0.0 108.0 L 0.0 109.0 L 0.0 110.0 L 0.0 111.0 L 0.0 112.0 L 0.0 113.0 L 0.0 114.0 L 0.0 115.0 L 0.0 116.0 L 0.0 117.0 L 0.0 118.0 L 0.0 119.0 L 0.0 120.0 L 0.0 121.0 L 0.0 122.0 L 0.0 123.0 L 0.0 124.0 L 0.0 125.0 L 0.0 126.0 L 0.0 127.0 L 0.3333333333333333 127.66666666666667 L 1.0 128.0 L 2.0 128.0 L 3.0 128.0 L 4.0 128.0 L 5.0 128.0 L 6.0 128.0 L 7.0 128.0 L 8.0 128.0 L 9.0 128.0 L 10.0 128.0 L 11.0 128.0 L 12.0 128.0 L 13.0 128.0 L 14.0 128.0 L 15.0 128.0 L 16.0 128.0 L 17.0 128.0 L 18.0 128.0 L 19.0 128.0 L 20.0 128.0 L 21.0 128.0 L 22.0 128.0 L 23.0 128.0 L 24.0 128.0 L 25.0 128.0 L 25.5 128.0 Z" stroke="none" fill="rgb(0,0,0)" />
<path d="M 72.5 8.5 L 73.0 8.333333333333334 L 74.0 8.0 L 75.0 7.666666666666667 L 76.0 7.333333333333333 L 77.0 7.333333333333333 L 78.0 7.666666666666667 L 79.0 8.0 L 80.0 8.333333333333334 L 81.0 8.666666666666666 L 82.0 9.333333333333334 L 83.0 10.0 L 84.0 11.0 L 85.0 12.0 L 85.66666666666667 13.0 L 86.0 14.0 L 86.33333333333333 15.0 L 86.66666666666667 16.0 L 87.0 17.0 L 87.0 18.0 L 87.0 19.0 L 86.66666666666667 20.0 L 86.33333333333333 21.0 L 85.66666666666667 22.0 L 85.0 23.0 L 84.0 24.0 L 83.0 25.0 L 82.0 26.0 L 81.33333333333333 27.0 L 81.33333333333333 28.0 L 82.0 29.0 L 83.0 29.666666666666668 L 84.0 30.0 L 85.0 29.666666666666668 L 85.66666666666667 29.0 L 86.0 28.0 L 86.33333333333333 27.0 L 87.0 26.0 L 88.0 25.666666666666668 L 89.0 25.666666666666668 L 89.66666666666667 25.666666666666668 L 90.0 25.0 L 90.0 24.0 L 89.66666666666667 23.0 L 89.66666666666667 22.0 L 89.66666666666667 21.0 L 90.0 20.0 L 90.0 19.0 L 90.0 18.0 L 90.0 17.0 L 90.0 16.0 L 90.0 15.0 L 90.0 14.0 L 89.66666666666667 13.0 L 89.0 12.0 L 88.33333333333333 11.0 L 88.33333333333333 10.0 L 89.0 9.333333333333334 L 90.0 9.0 L 91.0 9.0 L 92.0 9.0 L 93.0 9.333333333333334 L 94.0 10.0 L 95.0 10.666666666666666 L 96.0 11.333333333333334 L 97.0 12.0 L 97.66666666666667 13.0 L 98.33333333333333 14.0 L 99.0 14.666666666666666 L 99.66666666666667 14.666666666666666 L 100.0 14.0 L 99.66666666666667 13.0 L 99.33333333333333 12.0 L 98.66666666666667 11.0 L 98.33333333333333 10.0 L 97.66666666666667 9.0 L 97.0 8.333333333333334 L 96.0 7.666666666666667 L 95.0 7.333333333333333 L 94.0 7.0 L 93.0 7.0 L 92.0 7.0 L 91.0 7.0 L 90.0 7.0 L 89.0 7.0 L 88.0 7.333333333333333 L 87.0 7.666666666666667 L 86.0 7.666666666666667 L 85.0 7.333333333333333 L 84.0 6.666666666666667 L 83.0 6.333333333333333 L 82.0 6.0 L 81.0 5.666666666666667 L 80.0 5.333333333333333 L 79.0 5.0 L 78.0 5.0 L 77.0 5.0 L 76.0 5.0 L 75.0 5.0 L 74.0 5.0 L 73.0 5.0 L 72.0 5.333333333333333 L 71.0 5.666666666666667 L 70.0 6.0 L 69.0 6.333333333333333 L 68.0 6.666666666666667 L 67.0 7.333333333333333 L 66.0 8.0 L 65.0 9.0 L 64.0 10.0 L 63.333333333333336 11.0 L 63.0 12.0 L 63.0 13.0 L 63.0 14.0 L 63.0 15.0 L 63.0 16.0 L 63.0 17.0 L 63.333333333333336 18.0 L 64.0 18.666666666666668 L 65.0 18.666666666666668 L 66.0 18.0 L 67.0 17.0 L 67.66666666666667 16.0 L 67.66666666666667 15.0 L 67.66666666666667 14.0 L 67.66666666666667 13.0 L 68.33333333333333 12.0 L 69.0 11.0 L 70.0 10.0 L 71.0 9.333333333333334 L 71.5 9.0 Z" stroke="none" fill="rgb(105,73,62)" />
<path d="M 68.5 16.0 L 69.0 16.0 L 69.66666666666667 15.666666666666666 L 70.0 15.0 L 70.33333333333333 14.0 L 71.0 13.0 L 72.0 12.0 L 73.0 11.0 L 74.0 10.333333333333334 L 75.0 10.0 L 76.0 10.0 L 77.0 10.0 L 78.0 10.0 L 79.0 10.333333333333334 L 80.0 10.666666666666666 L 81.0 11.333333333333334 L 82.0 12.0 L 82.66666666666667 13.0 L 83.33333333333333 14.0 L 83.66666666666667 15.0 L 84.0 16.0 L 84.0 17.0 L 84.0 18.0 L 84.0 19.0 L 84.0 20.0 L 83.66666666666667 21.0 L 83.0 22.0 L 82.0 23.0 L 81.0 24.0 L 80.33333333333333 25.0 L 80.0 26.0 L 80.33333333333333 26.666666666666668 L 81.0 27.0 L 82.0 26.666666666666668 L 83.0 26.0 L 84.0 25.0 L 85.0 24.0 L 85.66666666666667 23.0 L 86.33333333333333 22.0 L 86.66666666666667 21.0 L 87.0 20.0 L 87.0 19.0 L 87.0 18.0 L 87.0 17.0 L 87.0 16.0 L 86.66666666666667 15.0 L 86.33333333333333 14.0 L 86.0 13.0 L 85.66666666666667 12.0 L 85.0 11.0 L 84.0 10.0 L 83.0 9.333333333333334 L 82.0 8.666666666666666 L 81.0 8.333333333333334 L 80.0 8.0 L 79.0 7.666666666666667 L 78.0 7.333333333333333 L 77.0 7.0 L 76.0 7.0 L 75.0 7.333333333333333 L 74.0 7.666666666666667 L 73.0 8.0 L 72.0 8.333333333333334 L 71.0 8.666666666666666 L 70.0 9.333333333333334 L 69.0 10.0 L 68.33333333333333 11.0 L 67.66666666666667 12.0 L 67.33333333333333 13.0 L 67.0 14.0 L 67.33333333333333 15.0 L 67.5 15.5 Z" stroke="none" fill="rgb(94,65,55)" />
<path d="M 91.5 12.0 L 92.0 12.333333333333334 L 93.0 12.666666666666666 L 94.0 13.333333333333334 L 95.0 14.0 L 96.0 15.0 L 96.66666666666667 16.0 L 97.33333333333333 17.0 L 97.66666666666667 18.0 L 98.33333333333333 18.666666666666668 L 99.0 18.666666666666668 L 99.66666666666667 18.0 L 100.0 17.0 L 100.0 16.0 L 99.66666666666667 15.0 L 99.0 14.0 L 98.33333333333333 13.0 L 97.66666666666667 12.0 L 97.0 11.333333333333334 L 96.0 10.666666666666666 L 95.0 10.0 L 94.0 9.333333333333334 L 93.0 9.0 L 92.0 9.0 L 91.0 9.0 L 90.0 9.0 L 89.0 9.0 L 88.33333333333333 9.333333333333334 L 88.0 10.0 L 88.0 11.0 L 88.33333333333333 12.0 L 89.0 12.666666666666666 L 90.0 12.666666666666666 L 90.5 12.5 Z" stroke="none" fill="rgb(94,65,55)" />
<path d="M 84.0 21.5 L 84.0 21.0 L 84.0 20.0 L 84.0 19.0 L 84.0 18.0 L 84.0 17.0 L 84.0 16.0 L 84.0 15.0 L 83.66666666666667 14.0 L 83.33333333333333 13.0 L 82.66666666666667 12.0 L 82.0 11.333333333333334 L 81.0 10.666666666666666 L 80.0 10.333333333333334 L 79.0 10.0 L 78.0 10.0 L 77.0 10.0 L 76.0 10.0 L 75.0 10.0 L 74.0 10.0 L 73.0 10.333333333333334 L 72.0 11.0 L 71.0 12.0 L 70.33333333333333 13.0 L 70.0 14.0 L 70.0 15.0 L 70.33333333333333 15.666666666666666 L 71.0 16.0 L 72.0 16.0 L 73.0 16.333333333333332 L 73.66666666666667 17.0 L 74.0 18.0 L 74.33333333333333 19.0 L 75.0 20.0 L 76.0 21.0 L 77.0 21.666666666666668 L 78.0 22.0 L 79.0 21.666666666666668 L 80.0 21.666666666666668 L 81.0 22.0 L 82.0 22.666666666666668 L 83.0 22.666666666666668 L 83.5 22.5 Z" stroke="none" fill="rgb(85,58,49)" />
<path d="M 97.5 39.0 L 98.0 39.0 L 98.66666666666667 38.666666666666664 L 98.66666666666667 38.0 L 98.33333333333333 37.0 L 97.66666666666667 36.0 L 97.33333333333333 35.0 L 97.0 34.0 L 96.66666666666667 33.0 L 96.66666666666667 32.0 L 97.0 31.333333333333332 L 97.66666666666667 30.666666666666668 L 98.0 30.0 L 98.0 29.0 L 98.0 28.0 L 98.0 27.0 L 98.0 26.0 L 98.0 25.0 L 98.0 24.0 L 98.33333333333333 23.0 L 98.66666666666667 22.0 L 99.0 21.0 L 99.0 20.0 L 98.66666666666667 19.0 L 98.33333333333333 18.0 L 97.66666666666667 17.0 L 97.33333333333333 16.0 L 96.66666666666667 15.0 L 96.0 14.0 L 95.0 13.333333333333334 L 94.0 12.666666666666666 L 93.0 12.333333333333334 L 92.0 12.0 L 91.0 12.0 L 90.33333333333333 12.333333333333334 L 90.0 13.0 L 90.0 14.0 L 90.0 15.0 L 90.0 16.0 L 90.0 17.0 L 90.0 18.0 L 90.0 19.0 L 90.0 20.0 L 90.33333333333333 21.0 L 90.66666666666667 22.0 L 91.0 23.0 L 91.0 24.0 L 91.33333333333333 25.0 L 91.66666666666667 26.0 L 92.0 27.0 L 92.0 28.0 L 92.0 29.0 L 92.33333333333333 30.0 L 92.66666666666667 31.0 L 93.0 32.0 L 93.33333333333333 33.0 L 93.66666666666667 34.0 L 94.33333333333333 35.0 L 94.66666666666667 36.0 L 95.0 37.0 L 95.33333333333333 37.666666666666664 L 96.0 38.333333333333336 L 96.5 38.5 Z" stroke="none" fill="rgb(85,58,49)" />
<path d="M 71.5 36.0 L 72.0 36.333333333333336 L 73.0 36.666666666666664 L 74.0 37.333333333333336 L 75.0 37.666666666666664 L 76.0 38.0 L 77.0 38.0 L 78.0 37.666666666666664 L 79.0 37.333333333333336 L 80.0 37.0 L 81.0 37.0 L 82.0 37.0 L 83.0 36.666666666666664 L 83.66666666666667 36.0 L 84.0 35.0 L 84.0 34.0 L 84.0 33.0 L 84.0 32.0 L 84.0 31.0 L 83.66666666666667 30.0 L 83.0 29.0 L 82.0 28.0 L 81.0 27.0 L 80.66666666666667 26.0 L 81.0 25.0 L 81.66666666666667 24.0 L 82.0 23.0 L 81.66666666666667 22.0 L 81.0 21.333333333333332 L 80.0 21.0 L 79.0 21.333333333333332 L 78.0 21.333333333333332 L 77.0 21.0 L 76.0 20.0 L 75.0 19.0 L 74.33333333333333 18.0 L 74.0 17.0 L 73.66666666666667 16.333333333333332 L 73.0 16.0 L 72.0 16.0 L 71.0 16.0 L 70.0 16.0 L 69.0 16.0 L 68.0 16.0 L 67.0 16.333333333333332 L 66.0 17.0 L 65.0 18.0 L 64.33333333333333 19.0 L 64.0 20.0 L 64.0 21.0 L 64.33333333333333 22.0 L 64.33333333333333 23.0 L 64.0 24.0 L 63.0 25.0 L 62.333333333333336 26.0 L 62.0 27.0 L 62.333333333333336 28.0 L 63.0 28.666666666666668 L 64.0 29.333333333333332 L 65.0 30.0 L 65.33333333333333 31.0 L 65.33333333333333 32.0 L 65.33333333333333 33.0 L 66.0 34.0 L 67.0 34.666666666666664 L 68.0 35.0 L 69.0 35.0 L 70.0 35.333333333333336 L 70.5 35.5 Z" stroke="none" fill="rgb(186,141,104)" />
<path d="M 90.5 31.5 L 91.0 32.0 L 91.66666666666667 33.0 L 92.0 34.0 L 92.33333333333333 35.0 L 93.0 36.0 L 94.0 36.666666666666664 L 94.66666666666667 36.666666666666664 L 95.0 36.0 L 94.66666666666667 35.0 L 94.33333333333333 34.0 L 93.66666666666667 33.0 L 93.33333333333333 32.0 L 93.0 31.0 L 92.66666666666667 30.0 L 92.33333333333333 29.0 L 92.0 28.0 L 92.0 27.0 L 92.0 26.0 L 91.66666666666667 25.0 L 91.33333333333333 24.0 L 91.0 23.0 L 91.0 22.0 L 90.66666666666667 21.333333333333332 L 90.0 21.0 L 89.33333333333333 21.333333333333332 L 89.0 22.0 L 89.33333333333333 23.0 L 89.66666666666667 24.0 L 90.0 25.0 L 90.0 26.0 L 90.0 27.0 L 90.0 28.0 L 90.0 29.0 L 90.0 30.0 L 90.0 30.5 Z" stroke="none" fill="rgb(94,65,55)" />
<path d="M 97.5 36.5 L 97.66666666666667 37.0 L 98.33333333333333 38.0 L 99.0 38.666666666666664 L 100.0 39.0 L 100.66666666666667 38.666666666666664 L 101.0 38.0 L 101.0 37.0 L 100.66666666666667 36.0 L 100.0 35.0 L 99.33333333333333 34.0 L 99.0 33.0 L 98.66666666666667 32.0 L 98.0 31.333333333333332 L 97.0 31.0 L 96.33333333333333 31.333333333333332 L 96.0 32.0 L 96.33333333333333 33.0 L 96.66666666666667 34.0 L 97.0 35.0 L 97.0 35.5 Z" stroke="none" fill="rgb(94,65,55)" />
<path d="M 84.5 40.0 L 85.0 40.0 L 85.66666666666667 39.666666666666664 L 86.0 39.0 L 86.0 38.0 L 85.66666666666667 37.0 L 85.0 36.333333333333336 L 84.0 36.0 L 83.0 36.333333333333336 L 82.33333333333333 37.0 L 82.33333333333333 38.0 L 83.0 39.0 L 83.5 39.5 Z" stroke="none" fill="rgb(85,17,236)" />
<path d="M 73.5 41.0 L 74.0 40.666666666666664 L 74.66666666666667 40.0 L 75.0 39.0 L 75.0 38.0 L 74.66666666666667 37.333333333333336 L 74.0 37.0 L 73.0 37.333333333333336 L 72.33333333333333 38.0 L 72.0 39.0 L 72.0 40.0 L 72.33333333333333 40.666666666666664 L 72.5 41.0 Z" stroke="none" fill="rgb(91,22,243)" />
<path d="M 78.5 53.5 L 79.0 53.333333333333336 L 80.0 53.0 L 81.0 53.0 L 82.0 53.0 L 83.0 52.666666666666664 L 84.0 52.333333333333336 L 85.0 52.0 L 85.66666666666667 51.666666666666664 L 86.0 51.0 L 86.0 50.0 L 86.0 49.0 L 86.0 48.0 L 86.0 47.0 L 85.66666666666667 46.0 L 85.33333333333333 45.0 L 85.0 44.0 L 85.0 43.0 L 85.0 42.0 L 85.0 41.0 L 84.66666666666667 40.0 L 84.0 39.0 L 83.0 38.0 L 82.0 37.333333333333336 L 81.0 37.0 L 80.0 37.0 L 79.0 37.0 L 78.0 37.333333333333336 L 77.0 37.666666666666664 L 76.0 38.0 L 75.33333333333333 38.333333333333336 L 74.66666666666667 39.0 L 74.0 40.0 L 73.33333333333333 41.0 L 73.0 42.0 L 73.0 43.0 L 73.33333333333333 44.0 L 73.66666666666667 45.0 L 74.0 46.0 L 74.0 47.0 L 74.0 48.0 L 74.33333333333333 49.0 L 74.66666666666667 50.0 L 75.0 51.0 L 75.33333333333333 52.0 L 76.0 53.0 L 77.0 53.666666666666664 L 77.5 54.0 Z" stroke="none" fill="rgb(54,21,175)" />
<path d="M 87.5 64.5 L 88.0 64.33333333333333 L 88.66666666666667 63.666666666666664 L 89.0 63.0 L 89.0 62.0 L 89.0 61.0 L 89.0 60.0 L 89.0 59.0 L 88.66666666666667 58.0 L 88.33333333333333 57.0 L 88.0 56.0 L 88.0 55.0 L 88.0 54.0 L 88.0 53.0 L 88.0 52.0 L 88.0 51.0 L 88.0 50.0 L 88.0 49.0 L 88.0 48.0 L 87.66666666666667 47.0 L 87.33333333333333 46.0 L 87.0 45.0 L 87.0 44.0 L 87.0 43.0 L 87.0 42.0 L 87.0 41.0 L 86.66666666666667 40.333333333333336 L 86.0 40.0 L 85.33333333333333 40.333333333333336 L 85.0 41.0 L 85.0 42.0 L 85.0 43.0 L 85.0 44.0 L 85.0 45.0 L 85.33333333333333 46.0 L 85.66666666666667 47.0 L 86.0 48.0 L 86.0 49.0 L 86.0 50.0 L 85.66666666666667 51.0 L 85.33333333333333 52.0 L 85.0 53.0 L 85.0 54.0 L 85.33333333333333 55.0 L 85.66666666666667 56.0 L 86.0 57.0 L 86.0 58.0 L 86.0 59.0 L 85.66666666666667 60.0 L 85.0 61.0 L 84.0 62.0 L 83.0 63.0 L 82.0 64.0 L 81.0 65.0 L 80.0 66.0 L 79.33333333333333 67.0 L 79.0 68.0 L 79.33333333333333 68.66666666666667 L 80.0 69.0 L 81.0 69.0 L 82.0 68.66666666666667 L 83.0 68.33333333333333 L 84.0 67.66666666666667 L 85.0 67.0 L 86.0 66.0 L 86.5 65.5 Z" stroke="none" fill="rgb(91,22,243)" />
<path d="M 72.5 64.5 L 73.0 64.0 L 74.0 63.0 L 75.0 62.0 L 76.0 61.0 L 77.0 60.0 L 78.0 59.0 L 78.66666666666667 58.0 L 79.0 57.0 L 79.0 56.0 L 78.66666666666667 55.0 L 78.0 54.0 L 77.0 53.0 L 76.0 52.0 L 75.33333333333333 51.0 L 75.0 50.0 L 74.66666666666667 49.0 L 74.33333333333333 48.0 L 74.0 47.0 L 74.0 46.0 L 74.0 45.0 L 73.66666666666667 44.0 L 73.33333333333333 43.0 L 73.0 42.0 L 72.66666666666667 41.333333333333336 L 72.0 41.0 L 71.0 41.333333333333336 L 70.33333333333333 42.0 L 70.0 43.0 L 70.0 44.0 L 70.0 45.0 L 70.0 46.0 L 70.0 47.0 L 69.66666666666667 48.0 L 69.33333333333333 49.0 L 69.0 50.0 L 69.0 51.0 L 69.0 52.0 L 69.0 53.0 L 69.0 54.0 L 69.0 55.0 L 69.0 56.0 L 69.0 57.0 L 69.0 58.0 L 68.66666666666667 59.0 L 68.33333333333333 60.0 L 68.0 61.0 L 68.0 62.0 L 68.0 63.0 L 68.33333333333333 63.666666666666664 L 69.0 64.0 L 70.0 64.33333333333333 L 71.0 64.66666666666667 L 71.5 65.0 Z" stroke="none" fill="rgb(100,31,254)" />
<path d="M 80.5 55.0 L 81.0 54.666666666666664 L 82.0 54.333333333333336 L 83.0 54.0 L 84.0 54.0 L 84.66666666666667 53.666666666666664 L 85.0 53.0 L 84.66666666666667 52.333333333333336 L 84.0 52.0 L 83.0 52.333333333333336 L 82.0 52.666666666666664 L 81.0 53.0 L 80.0 53.0 L 79.0 53.0 L 78.33333333333333 53.333333333333336 L 78.0 54.0 L 78.33333333333333 54.666666666666664 L 79.0 55.0 L 79.5 55.0 Z" stroke="none" fill="rgb(166,126,98)" />
<path d="M 83.5 56.5 L 84.0 56.333333333333336 L 85.0 56.0 L 85.66666666666667 55.666666666666664 L 85.66666666666667 55.0 L 85.0 54.333333333333336 L 84.0 54.0 L 83.0 54.0 L 82.0 54.0 L 81.0 54.333333333333336 L 80.0 54.666666666666664 L 79.33333333333333 55.333333333333336 L 79.0 56.0 L 79.33333333333333 56.666666666666664 L 80.0 57.0 L 81.0 57.0 L 82.0 57.0 L 82.5 57.0 Z" stroke="none" fill="rgb(178,134,103)" />
<path d="M 81.5 65.5 L 82.0 65.0 L 83.0 64.0 L 84.0 63.0 L 85.0 62.0 L 85.66666666666667 61.0 L 86.0 60.0 L 86.0 59.0 L 86.0 58.0 L 86.0 57.0 L 85.66666666666667 56.333333333333336 L 85.0 56.0 L 84.0 56.0 L 83.0 56.333333333333336 L 82.0 56.666666666666664 L 81.0 57.0 L 80.0 57.0 L 79.0 57.333333333333336 L 78.0 58.0 L 77.0 59.0 L 76.0 60.0 L 75.0 61.0 L 74.0 62.0 L 73.0 63.0 L 72.0 64.0 L 71.33333333333333 65.0 L 71.0 66.0 L 71.33333333333333 67.0 L 72.0 67.66666666666667 L 73.0 68.33333333333333 L 74.0 69.0 L 75.0 70.0 L 76.0 70.66666666666667 L 77.0 70.66666666666667 L 78.0 70.0 L 78.66666666666667 69.0 L 79.33333333333333 68.0 L 80.0 67.0 L 80.5 66.5 Z" stroke="none" fill="rgb(186,141,104)" />
<path d="M 68.5 66.0 L 69.0 66.0 L 70.0 66.0 L 70.66666666666667 65.66666666666667 L 71.0 65.0 L 70.66666666666667 64.33333333333333 L 70.0 64.0 L 69.0 64.0 L 68.33333333333333 64.33333333333333 L 68.0 65.0 L 68.0 65.5 Z" stroke="none" fill="rgb(91,22,243)" />
<path d="M 82.5 74.0 L 83.0 74.0 L 84.0 74.0 L 85.0 74.0 L 86.0 74.33333333333333 L 87.0 74.66666666666667 L 88.0 75.0 L 88.66666666666667 74.66666666666667 L 89.0 74.0 L 89.0 73.0 L 89.0 72.0 L 89.33333333333333 71.0 L 89.66666666666667 70.0 L 90.0 69.0 L 89.66666666666667 68.0 L 89.33333333333333 67.0 L 89.0 66.0 L 89.0 65.0 L 88.66666666666667 64.33333333333333 L 88.0 64.0 L 87.0 64.33333333333333 L 86.0 65.0 L 85.0 66.0 L 84.0 67.0 L 83.0 67.66666666666667 L 82.0 68.33333333333333 L 81.0 68.66666666666667 L 80.0 69.0 L 79.0 69.0 L 78.0 69.33333333333333 L 77.33333333333333 70.0 L 77.0 71.0 L 77.0 72.0 L 77.33333333333333 73.0 L 78.0 73.66666666666667 L 79.0 74.0 L 80.0 74.0 L 81.0 74.0 L 81.5 74.0 Z" stroke="none" fill="rgb(85,17,236)" />
<path d="M 69.5 68.0 L 70.0 68.0 L 71.0 68.0 L 71.66666666666667 67.66666666666667 L 71.66666666666667 67.0 L 71.0 66.33333333333333 L 70.0 66.0 L 69.0 66.0 L 68.33333333333333 66.33333333333333 L 68.0 67.0 L 68.33333333333333 67.66666666666667 L 68.5 68.0 Z" stroke="none" fill="rgb(86,83,84)" />
<path d="M 73.5 77.0 L 74.0 77.0 L 74.66666666666667 76.66666666666667 L 74.66666666666667 76.0 L 74.33333333333333 75.0 L 74.0 74.0 L 74.0 73.0 L 74.0 72.0 L 74.0 71.0 L 73.66666666666667 70.0 L 73.0 69.0 L 72.0 68.33333333333333 L 71.0 68.0 L 70.0 68.0 L 69.0 68.0 L 68.0 68.0 L 67.0 68.0 L 66.0 68.0 L 65.0 68.33333333333333 L 64.33333333333333 69.0 L 64.0 70.0 L 64.33333333333333 71.0 L 65.0 72.0 L 66.0 73.0 L 67.0 74.0 L 67.66666666666667 75.0 L 68.33333333333333 76.0 L 69.0 76.66666666666667 L 70.0 77.0 L 71.0 77.0 L 72.0 77.0 L 72.5 77.0 Z" stroke="none" fill="rgb(186,141,104)" />
<path d="M 75.5 77.0 L 76.0 77.0 L 77.0 76.66666666666667 L 77.66666666666667 76.0 L 78.0 75.0 L 78.0 74.0 L 77.66666666666667 73.0 L 77.33333333333333 72.0 L 76.66666666666667 71.0 L 76.0 70.0 L 75.0 69.0 L 74.0 68.33333333333333 L 73.0 68.0 L 72.33333333333333 68.33333333333333 L 72.33333333333333 69.0 L 73.0 70.0 L 73.66666666666667 71.0 L 74.33333333333333 72.0 L 75.0 73.0 L 75.66666666666667 74.0 L 75.66666666666667 75.0 L 75.33333333333333 76.0 L 75.0 76.5 Z" stroke="none" fill="rgb(86,83,84)" />
<path d="M 68.5 77.5 L 68.66666666666667 77.0 L 68.66666666666667 76.0 L 68.33333333333333 75.0 L 67.66666666666667 74.0 L 67.0 73.0 L 66.0 72.0 L 65.0 71.33333333333333 L 64.0 71.0 L 63.333333333333336 71.33333333333333 L 63.0 72.0 L 63.333333333333336 73.0 L 64.0 74.0 L 64.66666666666667 75.0 L 65.33333333333333 76.0 L 66.0 77.0 L 67.0 77.66666666666667 L 67.5 78.0 Z" stroke="none" fill="rgb(178,134,103)" />
<path d="M 75.5 74.0 L 75.66666666666667 73.66666666666667 L 75.66666666666667 73.0 L 75.0 72.33333333333333 L 74.33333333333333 72.33333333333333 L 74.0 73.0 L 74.33333333333333 73.66666666666667 L 74.5 74.0 Z" stroke="none" fill="rgb(85,17,236)" />
<path d="M 76.0 75.5 L 76.0 75.0 L 75.66666666666667 74.33333333333333 L 75.0 74.0 L 74.33333333333333 74.33333333333333 L 74.0 75.0 L 74.33333333333333 75.66666666666667 L 75.0 76.0 L 75.5 76.0 Z" stroke="none" fill="rgb(124,124,124)" />
<path d="M 72.5 116.0 L 73.0 116.0 L 73.66666666666667 115.66666666666667 L 74.0 115.0 L 74.0 114.0 L 74.0 113.0 L 74.0 112.0 L 74.33333333333333 111.0 L 74.66666666666667 110.0 L 75.0 109.0 L 75.0 108.0 L 75.0 107.0 L 75.0 106.0 L 75.0 105.0 L 75.0 104.0 L 75.0 103.0 L 75.33333333333333 102.0 L 75.66666666666667 101.0 L 76.0 100.0 L 76.0 99.0 L 76.0 98.0 L 76.0 97.0 L 76.33333333333333 96.0 L 76.66666666666667 95.0 L 77.0 94.0 L 77.0 93.0 L 77.33333333333333 92.0 L 77.66666666666667 91.0 L 78.33333333333333 90.0 L 78.66666666666667 89.0 L 79.0 88.0 L 79.33333333333333 87.0 L 79.66666666666667 86.0 L 80.0 85.0 L 80.33333333333333 84.0 L 81.0 83.0 L 82.0 82.0 L 83.0 81.0 L 84.0 80.0 L 85.0 79.0 L 86.0 78.0 L 87.0 77.0 L 87.66666666666667 76.0 L 87.66666666666667 75.0 L 87.0 74.33333333333333 L 86.0 74.0 L 85.0 74.0 L 84.0 74.0 L 83.0 74.0 L 82.0 74.0 L 81.0 74.0 L 80.0 74.0 L 79.0 74.0 L 78.33333333333333 74.33333333333333 L 77.66666666666667 75.0 L 77.0 76.0 L 76.0 76.66666666666667 L 75.0 77.0 L 74.0 77.0 L 73.0 76.66666666666667 L 72.0 76.33333333333333 L 71.0 76.33333333333333 L 70.0 76.66666666666667 L 69.0 77.0 L 68.0 77.33333333333333 L 67.0 77.66666666666667 L 66.33333333333333 78.33333333333333 L 66.0 79.0 L 66.0 80.0 L 65.66666666666667 81.0 L 65.33333333333333 82.0 L 65.0 83.0 L 65.0 84.0 L 64.66666666666667 85.0 L 64.33333333333333 86.0 L 64.0 87.0 L 64.0 88.0 L 64.0 89.0 L 64.0 90.0 L 64.0 91.0 L 64.0 92.0 L 64.0 93.0 L 64.0 94.0 L 64.0 95.0 L 64.0 96.0 L 64.0 97.0 L 64.0 98.0 L 64.0 99.0 L 64.0 100.0 L 64.0 101.0 L 64.0 102.0 L 64.0 103.0 L 64.33333333333333 104.0 L 64.66666666666667 105.0 L 65.0 106.0 L 65.0 107.0 L 65.0 108.0 L 65.0 109.0 L 65.0 110.0 L 65.0 111.0 L 65.0 112.0 L 65.0 113.0 L 65.0 114.0 L 65.0 115.0 L 65.33333333333333 115.66666666666667 L 66.0 116.0 L 67.0 116.0 L 68.0 116.0 L 69.0 116.0 L 70.0 116.0 L 71.0 116.0 L 71.5 116.0 Z" stroke="none" fill="rgb(124,124,124)" />
<path d="M 59.5 84.0 L 60.0 84.0 L 61.0 83.66666666666667 L 62.0 83.0 L 63.0 82.0 L 64.0 81.0 L 65.0 80.33333333333333 L 65.66666666666667 79.66666666666667 L 66.33333333333333 79.0 L 66.66666666666667 78.0 L 66.66666666666667 77.0 L 66.0 76.0 L 65.0 75.33333333333333 L 64.0 75.0 L 63.0 75.0 L 62.0 75.33333333333333 L 61.0 76.0 L 60.0 77.0 L 59.0 78.0 L 58.0 79.0 L 57.333333333333336 80.0 L 57.0 81.0 L 57.333333333333336 82.0 L 58.0 83.0 L 58.5 83.5 Z" stroke="none" fill="rgb(100,100,100)" />
<path d="M 95.5 112.0 L 96.0 112.0 L 97.0 111.66666666666667 L 98.0 111.0 L 99.0 110.0 L 100.0 109.0 L 101.0 108.0 L 101.66666666666667 107.0 L 102.0 106.0 L 102.0 105.0 L 101.66666666666667 104.0 L 101.0 103.0 L 100.0 102.0 L 99.0 101.0 L 98.0 100.0 L 97.0 99.0 L 96.0 98.0 L 95.33333333333333 97.0 L 94.66666666666667 96.0 L 94.0 95.0 L 93.0 94.0 L 92.0 93.0 L 91.0 92.0 L 90.33333333333333 91.0 L 89.66666666666667 90.0 L 89.33333333333333 89.0 L 89.0 88.0 L 89.0 87.0 L 89.0 86.0 L 89.0 85.0 L 89.0 84.0 L 89.0 83.0 L 89.0 82.0 L 89.0 81.0 L 89.0 80.0 L 89.0 79.0 L 89.0 78.0 L 89.0 77.0 L 88.66666666666667 76.33333333333333 L 88.0 76.0 L 87.0 76.33333333333333 L 86.0 77.0 L 85.0 78.0 L 84.0 79.0 L 83.0 80.0 L 82.0 81.0 L 81.0 82.0 L 80.33333333333333 83.0 L 80.0 84.0 L 79.66666666666667 85.0 L 79.33333333333333 86.0 L 79.0 87.0 L 78.66666666666667 88.0 L 78.33333333333333 89.0 L 77.66666666666667 90.0 L 77.33333333333333 91.0 L 77.0 92.0 L 77.0 93.0 L 77.0 94.0 L 77.33333333333333 95.0 L 77.66666666666667 96.0 L 78.33333333333333 97.0 L 78.66666666666667 98.0 L 79.33333333333333 99.0 L 80.0 100.0 L 81.0 101.0 L 82.0 101.66666666666667 L 83.0 102.33333333333333 L 84.0 103.0 L 85.0 104.0 L 86.0 104.66666666666667 L 87.0 105.33333333333333 L 88.0 106.0 L 89.0 107.0 L 90.0 107.66666666666667 L 91.0 108.33333333333333 L 92.0 109.0 L 93.0 110.0 L 94.0 111.0 L 94.5 111.5 Z" stroke="none" fill="rgb(100,100,100)" />
<path d="M 50.5 94.5 L 51.0 94.0 L 52.0 93.0 L 53.0 92.0 L 54.0 91.0 L 55.0 90.0 L 56.0 89.0 L 57.0 88.0 L 58.0 87.0 L 59.0 86.0 L 59.666666666666664 85.0 L 59.666666666666664 84.0 L 59.0 83.0 L 58.0 82.33333333333333 L 57.0 82.0 L 56.0 82.33333333333333 L 55.0 83.0 L 54.0 84.0 L 53.0 85.0 L 52.0 86.0 L 51.0 87.0 L 50.0 88.0 L 49.0 89.0 L 48.0 90.0 L 47.0 91.0 L 46.0 92.0 L 45.0 93.0 L 44.0 94.0 L 43.333333333333336 95.0 L 43.333333333333336 96.0 L 44.0 97.0 L 45.0 97.66666666666667 L 46.0 98.0 L 47.0 97.66666666666667 L 48.0 97.0 L 49.0 96.0 L 49.5 95.5 Z" stroke="none" fill="rgb(223,223,223)" />
<path d="M 39.5 101.5 L 40.0 102.0 L 41.0 102.66666666666667 L 42.0 103.0 L 42.666666666666664 102.66666666666667 L 43.333333333333336 102.0 L 44.0 101.0 L 45.0 100.0 L 45.666666666666664 99.0 L 45.666666666666664 98.0 L 45.0 97.0 L 44.0 96.33333333333333 L 43.0 96.0 L 42.0 96.33333333333333 L 41.0 97.0 L 40.0 98.0 L 39.333333333333336 99.0 L 39.0 100.0 L 39.0 100.5 Z" stroke="none" fill="rgb(210,209,209)" />
<path d="M 36.5 108.0 L 37.0 108.0 L 38.0 107.66666666666667 L 39.0 107.0 L 40.0 106.0 L 41.0 105.0 L 41.666666666666664 104.0 L 41.666666666666664 103.0 L 41.0 102.0 L 40.0 101.0 L 39.0 100.33333333333333 L 38.0 100.33333333333333 L 37.0 101.0 L 36.333333333333336 102.0 L 35.666666666666664 103.0 L 35.333333333333336 104.0 L 35.0 105.0 L 35.0 106.0 L 35.333333333333336 107.0 L 35.5 107.5 Z" stroke="none" fill="rgb(196,196,196)" />
<path d="M 26.5 119.5 L 27.0 119.0 L 28.0 118.0 L 29.0 117.0 L 30.0 116.0 L 31.0 115.0 L 32.0 114.0 L 33.0 113.0 L 34.0 112.0 L 35.0 111.0 L 36.0 110.0 L 36.666666666666664 109.0 L 36.666666666666664 108.0 L 36.0 107.0 L 35.0 106.33333333333333 L 34.0 106.0 L 33.0 106.33333333333333 L 32.0 107.0 L 31.0 108.0 L 30.0 109.0 L 29.0 110.0 L 28.0 111.0 L 27.0 112.0 L 26.0 113.0 L 25.0 114.0 L 24.0 115.0 L 23.333333333333332 116.0 L 23.0 117.0 L 23.0 118.0 L 23.333333333333332 119.0 L 24.0 119.66666666666667 L 25.0 120.0 L 25.5 120.0 Z" stroke="none" fill="rgb(255,61,1)" />
<path d="M 95.5 123.5 L 96.0 123.66666666666667 L 97.0 124.0 L 98.0 123.66666666666667 L 99.0 123.0 L 100.0 122.0 L 101.0 121.0 L 102.0 120.0 L 103.0 119.0 L 104.0 118.0 L 105.0 117.0 L 106.0 116.0 L 107.0 115.0 L 108.0 114.0 L 109.0 113.0 L 109.66666666666667 112.0 L 110.0 111.0 L 109.66666666666667 110.0 L 109.0 109.0 L 108.0 108.0 L 107.0 107.33333333333333 L 106.0 107.0 L 105.0 106.66666666666667 L 104.0 106.33333333333333 L 103.0 106.0 L 102.0 106.33333333333333 L 101.0 107.0 L 100.0 108.0 L 99.0 109.0 L 98.0 110.0 L 97.0 111.0 L 96.33333333333333 112.0 L 95.66666666666667 113.0 L 95.33333333333333 114.0 L 94.66666666666667 115.0 L 94.33333333333333 116.0 L 94.0 117.0 L 94.0 118.0 L 94.0 119.0 L 94.0 120.0 L 94.0 121.0 L 94.33333333333333 122.0 L 94.5 122.5 Z" stroke="none" fill="rgb(50,85,153)" />
<path d="M 65.5 124.0 L 66.0 124.0 L 67.0 124.0 L 68.0 124.0 L 69.0 124.0 L 70.0 124.0 L 71.0 124.0 L 72.0 124.0 L 73.0 124.0 L 74.0 124.0 L 74.66666666666667 123.66666666666667 L 75.0 123.0 L 75.0 122.0 L 75.0 121.0 L 75.0 120.0 L 75.0 119.0 L 75.0 118.0 L 74.66666666666667 117.0 L 74.0 116.33333333333333 L 73.0 116.0 L 72.0 116.0 L 71.0 116.0 L 70.0 116.0 L 69.0 116.0 L 68.0 116.0 L 67.0 116.0 L 66.0 116.0 L 65.0 116.0 L 64.0 116.0 L 63.0 116.33333333333333 L 62.0 116.66666666666667 L 61.0 117.0 L 60.0 117.33333333333333 L 59.0 117.66666666666667 L 58.0 118.33333333333333 L 57.333333333333336 119.0 L 57.0 120.0 L 57.0 121.0 L 57.0 122.0 L 57.0 123.0 L 57.333333333333336 123.66666666666667 L 58.0 124.0 L 59.0 124.0 L 60.0 124.0 L 61.0 124.0 L 62.0 124.0 L 63.0 124.0 L 64.0 124.0 L 64.5 124.0 Z" stroke="none" fill="rgb(69,104,173)" />
<path d="M 25.0 122.5 L 25.0 122.0 L 25.0 121.0 L 24.666666666666668 120.0 L 24.0 119.33333333333333 L 23.0 119.0 L 22.0 119.0 L 21.333333333333332 119.33333333333333 L 21.0 120.0 L 21.333333333333332 121.0 L 22.0 122.0 L 23.0 122.66666666666667 L 24.0 123.0 L 24.5 123.0 Z" stroke="none" fill="rgb(223,223,223)" />
<path d="M 19.5 124.0 L 20.0 124.0 L 21.0 124.0 L 22.0 124.0 L 22.666666666666668 123.66666666666667 L 23.0 123.0 L 22.666666666666668 122.0 L 22.0 121.0 L 21.0 120.33333333333333 L 20.0 120.0 L 19.0 120.0 L 18.333333333333332 120.33333333333333 L 18.0 121.0 L 18.333333333333332 122.0 L 18.666666666666668 123.0 L 19.0 123.5 Z" stroke="none" fill="rgb(196,196,196)" />
</svg>
