<?xml version="1.0" encoding="UTF-8" standalone="no"?>
<!DOCTYPE svg PUBLIC "-//W3C//DTD SVG 1.1//EN"
"http://www.w3.org/Graphics/SVG/1.1/DTD/svg11.dtd">
<svg width="128" height="128" xmlns="http://www.w3.org/2000/svg" version="1.1">
<path d="M 5.5 128.0 L 6.0 128.0 L 7.0 128.0 L 8.0 128.0 L 9.0 128.0 L 10.0 128.0 L 11.0 128.0 L 12.0 128.0 L 13.0 128.0 L 14.0 128.0 L 15.0 128.0 L 16.0 128.0 L 17.0 128.0 L 18.0 128.0 L 19.0 128.0 L 20.0 128.0 L 21.0 128.0 L 22.0 128.0 L 23.0 128.0 L 24.0 128.0 L 25.0 128.0 L 26.0 128.0 L 27.0 128.0 L 28.0 128.0 L 29.0 128.0 L 30.0 128.0 L 31.0 128.0 L 32.0 128.0 L 33.0 128.0 L 34.0 128.0 L 35.0 128.0 L 36.0 128.0 L 37.0 128.0 L 38.0 128.0 L 39.0 128.0 L 40.0 128.0 L 41.0 128.0 L 42.0 128.0 L 43.0 128.0 L 44.0 128.0 L 45.0 128.0 L 46.0 128.0 L 47.0 128.0 L 48.0 128.0 L 49.0 128.0 L 50.0 128.0 L 51.0 128.0 L 52.0 128.0 L 53.0 128.0 L 54.0 128.0 L 55.0 128.0 L 56.0 128.0 L 57.0 128.0 L 58.0 128.0 L 59.0 128.0 L 60.0 128.0 L 61.0 128.0 L 62.0 128.0 L 63.0 128.0 L 64.0 128.0 L 65.0 128.0 L 66.0 128.0 L 67.0 128.0 L 68.0 128.0 L 69.0 128.0 L 70.0 128.0 L 71.0 128.0 L 72.0 128.0 L 73.0 128.0 L 74.0 128.0 L 75.0 128.0 L 76.0 128.0 L 77.0 128.0 L 78.0 128.0 L 79.0 128.0 L 80.0 128.0 L 81.0 128.0 L 82.0 128.0 L 83.0 128.0 L 84.0 128.0 L 85.0 128.0 L 86.0 128.0 L 87.0 128.0 L 88.0 128.0 L 89.0 128.0 L 90.0 128.0 L 91.0 128.0 L 92.0 128.0 L 93.0 128.0 L 94.0 128.0 L 95.0 128.0 L 96.0 128.0 L 97.0 128.0 L 98.0 128.0 L 99.0 128.0 L 100.0 128.0 L 101.0 128.0 L 102.0 128.0 L 103.0 128.0 L 104.0 128.0 L 105.0 128.0 L 106.0 128.0 L 107.0 128.0 L 108.0 128.0 L 109.0 128.0 L 110.0 128.0 L 111.0 128.0 L 112.0 128.0 L 113.0 128.0 L 114.0 128.0 L 115.0 128.0 L 116.0 128.0 L 117.0 128.0 L 118.0 128.0 L 119.0 128.0 L 120.0 128.0 L 121.0 128.0 L 122.0 128.0 L 123.0 128.0 L 124.0 128.0 L 125.0 128.0 L 126.0 128.0 L 127.0 128.0 L 127.66666666666667 127.66666666666667 L 128.0 127.0 L 128.0 126.0 L 128.0 125.0 L 128.0 124.0 L 128.0 123.0 L 128.0 122.0 L 128.0 121.0 L 128.0 120.0 L 128.0 119.0 L 128.0 118.0 L 128.0 117.0 L 128.0 116.0 L 128.0 115.0 L 128.0 114.0 L 128.0 113.0 L 128.0 112.0 L 128.0 111.0 L 128.0 110.0 L 128.0 109.0 L 128.0 108.0 L 128.0 107.0 L 128.0 106.0 L 128.0 105.0 L 128.0 104.0 L 128.0 103.0 L 128.0 102.0 L 128.0 101.0 L 128.0 100.0 L 128.0 99.0 L 128.0 98.0 L 128.0 97.0 L 128.0 96.0 L 128.0 95.0 L 128.0 94.0 L 128.0 93.0 L 128.0 92.0 L 128.0 91.0 L 128.0 90.0 L 128.0 89.0 L 128.0 88.0 L 128.0 87.0 L 128.0 86.0 L 128.0 85.0 L 128.0 84.0 L 128.0 83.0 L 128.0 82.0 L 128.0 81.0 L 128.0 80.0 L 128.0 79.0 L 128.0 78.0 L 128.0 77.0 L 128.0 76.0 L 128.0 75.0 L 128.0 74.0 L 128.0 73.0 L 128.0 72.0 L 128.0 71.0 L 128.0 70.0 L 128.0 69.0 L 128.0 68.0 L 128.0 67.0 L 128.0 66.0 L 128.0 65.0 L 128.0 64.0 L 128.0 63.0 L 128.0 62.0 L 128.0 61.0 L 128.0 60.0 L 128.0 59.0 L 128.0 58.0 L 128.0 57.0 L 128.0 56.0 L 128.0 55.0 L 128.0 54.0 L 128.0 53.0 L 128.0 52.0 L 128.0 51.0 L 128.0 50.0 L 128.0 49.0 L 128.0 48.0 L 128.0 47.0 L 128.0 46.0 L 128.0 45.0 L 128.0 44.0 L 128.0 43.0 L 128.0 42.0 L 128.0 41.0 L 128.0 40.0 L 128.0 39.0 L 128.0 38.0 L 128.0 37.0 L 128.0 36.0 L 128.0 35.0 L 128.0 34.0 L 128.0 33.0 L 128.0 32.0 L 128.0 31.0 L 128.0 30.0 L 128.0 29.0 L 128.0 28.0 L 128.0 27.0 L 128.0 26.0 L 128.0 25.0 L 128.0 24.0 L 128.0 23.0 L 128.0 22.0 L 128.0 21.0 L 128.0 20.0 L 128.0 19.0 L 128.0 18.0 L 128.0 17.0 L 128.0 16.0 L 128.0 15.0 L 128.0 14.0 L 128.0 13.0 L 128.0 12.0 L 128.0 11.0 L 128.0 10.0 L 128.0 9.0 L 128.0 8.0 L 128.0 7.0 L 128.0 6.0 L 128.0 5.0 L 128.0 4.0 L 128.0 3.0 L 128.0 2.0 L 128.0 1.0 L 127.66666666666667 0.3333333333333333 L 127.0 0.0 L 126.0 0.0 L 125.0 0.0 L 124.0 0.0 L 123.0 0.0 L 122.0 0.0 L 121.0 0.0 L 120.0 0.0 L 119.0 0.0 L 118.0 0.0 L 117.0 0.0 L 116.0 0.0 L 115.0 0.0 L 114.0 0.0 L 113.0 0.0 L 112.0 0.0 L 111.0 0.0 L 110.0 0.0 L 109.0 0.0 L 108.0 0.0 L 107.0 0.0 L 106.0 0.0 L 105.0 0.0 L 104.0 0.0 L 103.0 0.0 L 102.0 0.0 L 101.0 0.0 L 100.0 0.0 L 99.0 0.0 L 98.0 0.0 L 97.0 0.0 L 96.0 0.0 L 95.0 0.0 L 94.0 0.0 L 93.0 0.0 L 92.0 0.0 L 91.0 0.0 L 90.0 0.0 L 89.0 0.0 L 88.0 0.0 L 87.0 0.0 L 86.0 0.0 L 85.0 0.0 L 84.0 0.0 L 83.0 0.0 L 82.0 0.0 L 81.0 0.0 L 80.0 0.0 L 79.0 0.0 L 78.0 0.0 L 77.0 0.0 L 76.0 0.0 L 75.0 0.0 L 74.0 0.0 L 73.0 0.0 L 72.0 0.0 L 71.0 0.0 L 70.0 0.0 L 69.0 0.0 L 68.0 0.0 L 67.0 0.0 L 66.0 0.0 L 65.0 0.0 L 64.0 0.0 L 63.0 0.0 L 62.0 0.0 L 61.0 0.0 L 60.0 0.0 L 59.0 0.0 L 58.0 0.0 L 57.0 0.0 L 56.0 0.0 L 55.0 0.0 L 54.0 0.0 L 53.0 0.0 L 52.0 0.0 L 51.0 0.0 L 50.0 0.0 L 49.0 0.0 L 48.0 0.0 L 47.0 0.0 L 46.0 0.0 L 45.0 0.0 L 44.0 0.0 L 43.0 0.0 L 42.0 0.0 L 41.0 0.0 L 40.0 0.0 L 39.0 0.0 L 38.0 0.0 L 37.0 0.0 L 36.0 0.0 L 35.0 0.0 L 34.0 0.0 L 33.0 0.0 L 32.0 0.0 L 31.0 0.0 L 30.0 0.0 L 29.0 0.0 L 28.0 0.0 L 27.0 0.0 L 26.0 0.0 L 25.0 0.0 L 24.0 0.0 L 23.0 0.0 L 22.0 0.0 L 21.0 0.0 L 20.0 0.0 L 19.0 0.0 L 18.0 0.0 L 17.0 0.0 L 16.0 0.0 L 15.0 0.0 L 14.0 0.0 L 13.0 0.0 L 12.0 0.0 L 11.0 0.0 L 10.0 0.0 L 9.0 0.0 L 8.0 0.0 L 7.0 0.0 L 6.0 0.0 L 5.0 0.0 L 4.0 0.0 L 3.0 0.0 L 2.0 0.0 L 1.0 0.0 L 0.3333333333333333 0.3333333333333333 L 0.0 1.0 L 0.0 2.0 L 0.0 3.0 L 0.0 4.0 L 0.0 5.0 L 0.0 6.0 L 0.0 7.0 L 0.0 8.0 L 0.0 9.0 L 0.0 10.0 L 0.0 11.0 L 0.0 12.0 L 0.0 13.0 L 0.0 14.0 L 0.0 15.0 L 0.0 16.0 L 0.0 17.0 L 0.0 18.0 L 0.0 19.0 L 0.0 20.0 L 0.0 21.0 L 0.0 22.0 L 0.0 23.0 L 0.0 24.0 L 0.0 25.0 L 0.0 26.0 L 0.0 27.0 L 0.0 28.0 L 0.0 29.0 L 0.0 30.0 L 0.0 31.0 L 0.0 32.0 L 0.0 33.0 L 0.0 34.0 L 0.0 35.0 L 0.0 36.0 L 0.0 37.0 L 0.0 38.0 L 0.0 39.0 L 0.0 40.0 L 0.0 41.0 L 0.0 42.0 L 0.0 43.0 L 0.0 44.0 L 0.0 45.0 L 0.0 46.0 L 0.0 47.0 L 0.0 48.0 L 0.0 49.0 L 0.0 50.0 L 0.0 51.0 L 0.0 52.0 L 0.0 53.0 L 0.0 54.0 L 0.0 55.0 L 0.0 56.0 L 0.0 57.0 L 0.0 58.0 L 0.0 59.0 L 0.0 60.0 L 0.0 61.0 L 0.0 62.0 L 0.0 63.0 L 0.0 64.0 L 0.0 65.0 L 0.0 66.0 L 0.0 67.0 L 0.0 68.0 L 0.0 69.0 L 0.0 70.0 L 0.0 71.0 L 0.0 72.0 L 0.0 73.0 L 0.0 74.0 L 0.0 75.0 L 0.0 76.0 L 0.0 77.0 L 0.0 78.0 L 0.0 79.0 L 0.0 80.0 L 0.0 81.0 L 0.0 82.0 L 0.0 83.0 L 0.0 84.0 L 0.0 85.0 L 0.0 86.0 L 0.0 87.0 L 0.0 88.0 L 0.0 89.0 L 0.0 90.0 L 0.0 91.0 L 0.0 92.0 L 0.0 93.0 L 0.0 94.0 L 0.0 95.0 L 0.0 96.0 L 0.0 97.0 L 0.0 98.0 L 0.0 99.0 L 0.0 100.0 L 0.0 101.0 L 0.0 102.0 L 0.0 103.0 L 0.0 104.0 L 0.0 105.0 L 0.0 106.0 L 0.0 107.0 L 0.0 108.0 L 0.0 109.0 L 0.0 110.0 L 0.0 111.0 L 0.0 112.0 L 0.0 113.0 L 0.0 114.0 L 0.0 115.0 L 0.0 116.0 L 0.0 117.0 L 0.0 118.0 L 0.0 119.0 L 0.0 120.0 L 0.0 121.0 L 0.0 122.0 L 0.0 123.0 L 0.0 124.0 L 0.0 125.0 L 0.0 126.0 L 0.0 127.0 L 0.3333333333333333 127.66666666666667 L 1.0 128.0 L 2.0 128.0 L 3.0 128.0 L 4.0 128.0 L 4.5 128.0 Z" stroke="none" fill="rgb(0,0,0)" />
<path d="M 78.0 89.5 L 78.33333333333333 89.0 L 79.0 88.0 L 80.0 87.0 L 81.0 86.0 L 82.0 85.33333333333333 L 82.66666666666667 84.66666666666667 L 83.33333333333333 84.0 L 83.66666666666667 83.0 L 84.0 82.0 L 83.66666666666667 81.0 L 83.0 80.0 L 82.0 79.0 L 81.0 78.0 L 80.0 77.0 L 79.0 76.0 L 78.0 75.0 L 77.0 74.0 L 76.33333333333333 73.0 L 75.66666666666667 72.33333333333333 L 75.0 72.0 L 74.0 72.0 L 73.0 72.0 L 72.0 72.0 L 71.0 72.0 L 70.0 72.0 L 69.0 72.0 L 68.0 72.0 L 67.0 72.0 L 66.0 72.0 L 65.0 72.0 L 64.0 72.0 L 63.0 72.0 L 62.0 72.0 L 61.0 72.0 L 60.0 72.0 L 59.0 72.0 L 58.0 72.0 L 57.0 72.0 L 56.0 72.0 L 55.0 72.0 L 54.0 72.0 L 53.333333333333336 72.33333333333333 L 52.666666666666664 73.0 L 52.0 74.0 L 51.0 75.0 L 50.0 76.0 L 49.0 77.0 L 48.0 77.66666666666667 L 47.0 78.33333333333333 L 46.0 79.0 L 45.0 80.0 L 44.333333333333336 81.0 L 44.0 82.0 L 44.333333333333336 83.0 L 45.0 84.0 L 46.0 85.0 L 47.0 86.0 L 48.0 87.0 L 49.0 88.0 L 50.0 89.0 L 51.0 90.0 L 52.0 91.0 L 53.0 92.0 L 54.0 92.66666666666667 L 55.0 93.0 L 56.0 92.66666666666667 L 57.0 92.0 L 58.0 91.0 L 59.0 90.0 L 60.0 89.0 L 61.0 88.33333333333333 L 62.0 87.66666666666667 L 63.0 87.0 L 64.0 86.66666666666667 L 65.0 87.0 L 66.0 88.0 L 67.0 89.0 L 68.0 89.66666666666667 L 69.0 90.33333333333333 L 70.0 91.0 L 71.0 92.0 L 72.0 92.66666666666667 L 73.0 93.0 L 74.0 92.66666666666667 L 75.0 92.0 L 76.0 91.0 L 77.0 90.33333333333333 L 77.5 90.0 Z" stroke="none" fill="rgb(124,124,124)" />
<path d="M 53.5 54.0 L 54.0 54.0 L 55.0 54.0 L 56.0 54.0 L 57.0 54.0 L 58.0 54.0 L 59.0 54.0 L 60.0 54.0 L 61.0 54.0 L 62.0 54.0 L 63.0 54.0 L 64.0 54.0 L 65.0 54.0 L 66.0 54.0 L 67.0 54.0 L 68.0 54.0 L 69.0 54.0 L 70.0 54.0 L 71.0 54.0 L 72.0 54.0 L 73.0 54.0 L 74.0 54.0 L 75.0 54.0 L 76.0 54.0 L 77.0 54.0 L 78.0 54.0 L 79.0 54.0 L 80.0 53.666666666666664 L 81.0 53.0 L 82.0 52.0 L 83.0 51.0 L 84.0 50.0 L 85.0 49.0 L 85.66666666666667 48.0 L 85.66666666666667 47.0 L 85.0 46.333333333333336 L 84.0 45.666666666666664 L 83.0 45.0 L 82.0 44.0 L 81.0 43.333333333333336 L 80.0 42.666666666666664 L 79.0 42.0 L 78.0 41.333333333333336 L 77.0 41.0 L 76.0 41.0 L 75.0 41.333333333333336 L 74.0 42.0 L 73.33333333333333 43.0 L 72.66666666666667 44.0 L 72.0 44.666666666666664 L 71.0 45.333333333333336 L 70.0 45.666666666666664 L 69.0 46.0 L 68.0 46.333333333333336 L 67.33333333333333 47.0 L 66.66666666666667 48.0 L 66.0 49.0 L 65.0 49.666666666666664 L 64.0 50.0 L 63.0 49.666666666666664 L 62.0 49.0 L 61.333333333333336 48.0 L 60.666666666666664 47.0 L 60.0 46.333333333333336 L 59.0 46.0 L 58.0 46.0 L 57.0 45.666666666666664 L 56.0 45.0 L 55.333333333333336 44.0 L 54.666666666666664 43.0 L 54.0 42.0 L 53.0 41.333333333333336 L 52.0 41.0 L 51.0 41.0 L 50.0 41.333333333333336 L 49.0 42.0 L 48.0 43.0 L 47.0 43.666666666666664 L 46.0 44.333333333333336 L 45.0 45.0 L 44.0 46.0 L 43.333333333333336 47.0 L 43.333333333333336 48.0 L 43.666666666666664 49.0 L 44.333333333333336 50.0 L 45.0 51.0 L 46.0 52.0 L 47.0 53.0 L 48.0 53.666666666666664 L 49.0 54.0 L 50.0 54.0 L 51.0 54.0 L 52.0 54.0 L 52.5 54.0 Z" stroke="none" fill="rgb(0,189,163)" />
<path d="M 51.5 65.0 L 52.0 65.0 L 53.0 65.0 L 54.0 65.0 L 55.0 65.0 L 56.0 65.0 L 57.0 65.0 L 58.0 65.0 L 59.0 65.0 L 60.0 65.0 L 61.0 65.0 L 62.0 65.0 L 63.0 65.0 L 64.0 65.0 L 65.0 65.0 L 66.0 65.0 L 67.0 65.0 L 68.0 65.0 L 69.0 65.0 L 70.0 65.0 L 71.0 65.0 L 72.0 65.0 L 73.0 65.0 L 74.0 65.0 L 75.0 65.0 L 76.0 65.0 L 77.0 64.66666666666667 L 77.66666666666667 64.0 L 78.0 63.0 L 78.0 62.0 L 78.33333333333333 61.0 L 78.66666666666667 60.0 L 79.0 59.0 L 79.0 58.0 L 79.33333333333333 57.0 L 79.66666666666667 56.0 L 80.0 55.0 L 79.66666666666667 54.333333333333336 L 79.0 54.0 L 78.0 54.0 L 77.0 54.0 L 76.0 54.0 L 75.0 54.0 L 74.0 54.0 L 73.0 54.0 L 72.0 54.0 L 71.0 54.0 L 70.0 54.0 L 69.0 54.0 L 68.0 54.0 L 67.0 54.0 L 66.0 54.0 L 65.0 54.0 L 64.0 54.0 L 63.0 54.0 L 62.0 54.0 L 61.0 54.0 L 60.0 54.0 L 59.0 54.0 L 58.0 54.0 L 57.0 54.0 L 56.0 54.0 L 55.0 54.0 L 54.0 54.0 L 53.0 54.0 L 52.0 54.0 L 51.0 54.0 L 50.0 54.0 L 49.0 54.0 L 48.333333333333336 54.333333333333336 L 48.0 55.0 L 48.333333333333336 56.0 L 48.666666666666664 57.0 L 49.0 58.0 L 49.0 59.0 L 49.333333333333336 60.0 L 49.666666666666664 61.0 L 50.0 62.0 L 50.333333333333336 63.0 L 50.666666666666664 64.0 L 51.0 64.5 Z" stroke="none" fill="rgb(0,182,157)" />
<path d="M 55.5 43.5 L 56.0 44.0 L 57.0 45.0 L 58.0 45.666666666666664 L 59.0 46.333333333333336 L 60.0 46.666666666666664 L 61.0 47.0 L 62.0 47.0 L 63.0 47.0 L 64.0 47.0 L 65.0 47.0 L 66.0 47.0 L 67.0 47.0 L 68.0 46.666666666666664 L 69.0 46.333333333333336 L 70.0 46.0 L 70.66666666666667 45.666666666666664 L 71.33333333333333 45.0 L 72.0 44.0 L 72.66666666666667 43.0 L 73.33333333333333 42.0 L 73.66666666666667 41.0 L 74.0 40.0 L 74.0 39.0 L 74.0 38.0 L 74.0 37.0 L 74.0 36.0 L 74.0 35.0 L 74.0 34.0 L 73.66666666666667 33.0 L 73.0 32.0 L 72.33333333333333 31.0 L 72.0 30.0 L 71.66666666666667 29.0 L 71.0 28.333333333333332 L 70.0 28.0 L 69.0 28.0 L 68.0 28.0 L 67.0 28.0 L 66.0 28.0 L 65.0 28.0 L 64.0 28.0 L 63.0 28.0 L 62.0 28.0 L 61.0 28.0 L 60.0 28.0 L 59.0 28.0 L 58.0 28.0 L 57.0 28.333333333333332 L 56.333333333333336 29.0 L 56.0 30.0 L 56.333333333333336 31.0 L 56.333333333333336 32.0 L 56.0 32.666666666666664 L 55.333333333333336 33.333333333333336 L 54.666666666666664 34.0 L 54.333333333333336 35.0 L 54.0 36.0 L 54.0 37.0 L 54.0 38.0 L 54.0 39.0 L 54.0 40.0 L 54.333333333333336 41.0 L 54.666666666666664 42.0 L 55.0 42.5 Z" stroke="none" fill="rgb(255,202,40)" />
<path d="M 38.5 96.5 L 38.666666666666664 97.0 L 39.0 98.0 L 39.0 99.0 L 39.0 100.0 L 39.333333333333336 101.0 L 39.666666666666664 102.0 L 40.0 103.0 L 40.0 104.0 L 40.333333333333336 105.0 L 40.666666666666664 106.0 L 41.0 107.0 L 41.0 108.0 L 41.0 109.0 L 41.333333333333336 110.0 L 42.0 110.66666666666667 L 43.0 111.0 L 44.0 111.0 L 45.0 111.0 L 46.0 111.0 L 47.0 111.0 L 48.0 111.0 L 49.0 111.0 L 50.0 111.0 L 50.666666666666664 110.66666666666667 L 51.0 110.0 L 51.0 109.0 L 51.0 108.0 L 51.0 107.0 L 51.0 106.0 L 51.0 105.0 L 51.0 104.0 L 51.0 103.0 L 51.0 102.0 L 51.0 101.0 L 51.0 100.0 L 51.0 99.0 L 51.0 98.0 L 51.0 97.0 L 51.333333333333336 96.0 L 52.0 95.33333333333333 L 53.0 94.66666666666667 L 53.666666666666664 94.0 L 54.0 93.0 L 53.666666666666664 92.0 L 53.0 91.0 L 52.0 90.33333333333333 L 51.0 90.0 L 50.0 90.0 L 49.0 90.0 L 48.0 90.0 L 47.0 90.0 L 46.0 90.0 L 45.0 90.0 L 44.0 90.0 L 43.0 90.0 L 42.0 90.0 L 41.0 90.0 L 40.0 90.0 L 39.0 90.0 L 38.333333333333336 90.33333333333333 L 38.0 91.0 L 38.0 92.0 L 38.0 93.0 L 38.0 94.0 L 38.0 95.0 L 38.0 95.5 Z" stroke="none" fill="rgb(255,202,40)" />
<path d="M 83.5 111.0 L 84.0 111.0 L 85.0 111.0 L 86.0 110.66666666666667 L 86.66666666666667 110.0 L 87.0 109.0 L 87.0 108.0 L 87.0 107.0 L 87.33333333333333 106.0 L 87.66666666666667 105.0 L 88.0 104.0 L 88.0 103.0 L 88.33333333333333 102.0 L 88.66666666666667 101.0 L 89.0 100.0 L 89.0 99.0 L 89.0 98.0 L 89.33333333333333 97.0 L 89.66666666666667 96.0 L 90.0 95.0 L 90.0 94.0 L 90.0 93.0 L 90.0 92.0 L 90.0 91.0 L 89.66666666666667 90.33333333333333 L 89.0 90.0 L 88.0 90.0 L 87.0 90.0 L 86.0 90.0 L 85.0 90.0 L 84.0 90.0 L 83.0 90.0 L 82.0 90.0 L 81.0 90.0 L 80.0 90.0 L 79.0 90.0 L 78.0 90.0 L 77.0 90.0 L 76.0 90.33333333333333 L 75.0 91.0 L 74.33333333333333 92.0 L 74.0 93.0 L 74.33333333333333 94.0 L 75.0 94.66666666666667 L 76.0 95.33333333333333 L 76.66666666666667 96.0 L 77.0 97.0 L 77.0 98.0 L 77.0 99.0 L 77.0 100.0 L 77.0 101.0 L 77.0 102.0 L 77.0 103.0 L 77.0 104.0 L 77.0 105.0 L 77.0 106.0 L 77.0 107.0 L 77.0 108.0 L 77.0 109.0 L 77.0 110.0 L 77.33333333333333 110.66666666666667 L 78.0 111.0 L 79.0 111.0 L 80.0 111.0 L 81.0 111.0 L 82.0 111.0 L 82.5 111.0 Z" stroke="none" fill="rgb(255,202,40)" />
<path d="M 88.5 36.5 L 89.0 36.666666666666664 L 90.0 37.0 L 91.0 37.0 L 91.66666666666667 36.666666666666664 L 92.33333333333333 36.0 L 93.0 35.0 L 93.66666666666667 34.0 L 94.33333333333333 33.0 L 94.66666666666667 32.0 L 95.33333333333333 31.0 L 95.66666666666667 30.0 L 96.0 29.0 L 96.33333333333333 28.0 L 96.66666666666667 27.0 L 97.33333333333333 26.0 L 98.0 25.0 L 98.66666666666667 24.0 L 99.0 23.0 L 99.0 22.0 L 98.66666666666667 21.333333333333332 L 98.0 21.0 L 97.0 21.0 L 96.0 21.0 L 95.0 21.0 L 94.0 20.666666666666668 L 93.66666666666667 20.0 L 93.66666666666667 19.0 L 94.33333333333333 18.0 L 95.0 17.333333333333332 L 96.0 17.0 L 97.0 16.666666666666668 L 98.0 16.333333333333332 L 98.66666666666667 15.666666666666666 L 99.0 15.0 L 99.0 14.0 L 98.66666666666667 13.333333333333334 L 98.0 13.0 L 97.0 12.666666666666666 L 96.0 12.333333333333334 L 95.0 12.0 L 94.0 12.0 L 93.0 12.0 L 92.0 12.0 L 91.0 12.0 L 90.0 12.0 L 89.0 12.0 L 88.0 12.0 L 87.33333333333333 12.333333333333334 L 86.66666666666667 13.0 L 86.33333333333333 14.0 L 86.0 15.0 L 86.33333333333333 16.0 L 86.66666666666667 17.0 L 87.0 18.0 L 86.66666666666667 19.0 L 86.33333333333333 20.0 L 86.0 21.0 L 86.0 22.0 L 86.33333333333333 23.0 L 86.66666666666667 24.0 L 87.0 25.0 L 86.66666666666667 26.0 L 86.33333333333333 27.0 L 85.66666666666667 28.0 L 85.33333333333333 29.0 L 84.66666666666667 30.0 L 84.33333333333333 31.0 L 84.0 32.0 L 84.0 33.0 L 84.33333333333333 33.666666666666664 L 85.0 34.333333333333336 L 86.0 34.666666666666664 L 87.0 35.333333333333336 L 87.5 35.5 Z" stroke="none" fill="rgb(255,202,40)" />
<path d="M 30.5 25.5 L 30.666666666666668 26.0 L 31.333333333333332 27.0 L 31.666666666666668 28.0 L 32.0 29.0 L 32.333333333333336 30.0 L 32.666666666666664 31.0 L 33.333333333333336 32.0 L 33.666666666666664 33.0 L 34.333333333333336 34.0 L 35.0 35.0 L 35.666666666666664 36.0 L 36.333333333333336 36.666666666666664 L 37.0 37.0 L 38.0 37.0 L 39.0 36.666666666666664 L 40.0 36.0 L 41.0 35.333333333333336 L 42.0 34.666666666666664 L 43.0 34.333333333333336 L 43.666666666666664 33.666666666666664 L 44.0 33.0 L 44.0 32.0 L 43.666666666666664 31.0 L 43.333333333333336 30.0 L 42.666666666666664 29.0 L 42.333333333333336 28.0 L 41.666666666666664 27.0 L 41.333333333333336 26.0 L 41.0 25.0 L 41.333333333333336 24.0 L 41.666666666666664 23.0 L 42.333333333333336 22.0 L 42.666666666666664 21.0 L 43.0 20.0 L 43.0 19.0 L 42.666666666666664 18.0 L 42.333333333333336 17.0 L 42.0 16.0 L 42.0 15.0 L 42.0 14.0 L 41.666666666666664 13.0 L 41.0 12.333333333333334 L 40.0 12.0 L 39.0 12.0 L 38.0 12.0 L 37.0 12.0 L 36.0 12.0 L 35.0 12.0 L 34.0 12.0 L 33.0 12.0 L 32.0 12.333333333333334 L 31.0 12.666666666666666 L 30.0 13.0 L 29.333333333333332 13.333333333333334 L 29.0 14.0 L 29.333333333333332 15.0 L 30.0 15.666666666666666 L 31.0 16.0 L 32.0 16.0 L 33.0 15.666666666666666 L 34.0 15.666666666666666 L 34.666666666666664 16.0 L 35.333333333333336 17.0 L 35.666666666666664 18.0 L 36.333333333333336 19.0 L 36.666666666666664 20.0 L 37.0 21.0 L 36.666666666666664 22.0 L 36.0 22.666666666666668 L 35.0 22.666666666666668 L 34.0 22.0 L 33.0 21.333333333333332 L 32.0 21.0 L 31.0 21.0 L 30.0 21.0 L 29.333333333333332 21.333333333333332 L 29.0 22.0 L 29.0 23.0 L 29.333333333333332 24.0 L 29.5 24.5 Z" stroke="none" fill="rgb(255,202,40)" />
<path d="M 110.5 17.5 L 110.66666666666667 17.0 L 111.33333333333333 16.0 L 111.66666666666667 15.0 L 112.0 14.0 L 112.33333333333333 13.0 L 113.0 12.666666666666666 L 114.0 13.0 L 115.0 14.0 L 115.66666666666667 15.0 L 116.0 16.0 L 116.33333333333333 17.0 L 117.0 18.0 L 118.0 18.666666666666668 L 119.0 19.0 L 120.0 19.0 L 121.0 19.333333333333332 L 122.0 19.666666666666668 L 122.66666666666667 19.666666666666668 L 123.0 19.0 L 123.0 18.0 L 122.66666666666667 17.0 L 122.0 16.0 L 121.33333333333333 15.0 L 121.0 14.0 L 121.0 13.0 L 121.0 12.0 L 120.66666666666667 11.0 L 120.0 10.0 L 119.0 9.333333333333334 L 118.0 9.0 L 117.0 9.333333333333334 L 116.0 10.0 L 115.0 10.333333333333334 L 114.0 10.0 L 113.33333333333333 9.0 L 113.0 8.0 L 113.0 7.0 L 112.66666666666667 6.0 L 112.0 5.0 L 111.0 4.333333333333333 L 110.0 4.0 L 109.0 4.0 L 108.0 4.0 L 107.0 4.0 L 106.0 4.0 L 105.0 4.0 L 104.0 4.0 L 103.0 4.333333333333333 L 102.0 5.0 L 101.33333333333333 6.0 L 101.0 7.0 L 101.0 8.0 L 101.0 9.0 L 101.0 10.0 L 101.0 11.0 L 101.0 12.0 L 101.33333333333333 13.0 L 101.66666666666667 14.0 L 102.0 15.0 L 102.33333333333333 16.0 L 103.0 17.0 L 104.0 17.666666666666668 L 105.0 18.333333333333332 L 106.0 18.666666666666668 L 107.0 19.0 L 108.0 19.0 L 109.0 18.666666666666668 L 109.5 18.5 Z" stroke="none" fill="rgb(157,157,157)" />
<path d="M 116.5 28.0 L 117.0 28.0 L 118.0 28.0 L 119.0 28.0 L 120.0 27.666666666666668 L 121.0 27.0 L 121.66666666666667 26.0 L 122.0 25.0 L 122.0 24.0 L 122.0 23.0 L 122.33333333333333 22.0 L 122.66666666666667 21.0 L 122.66666666666667 20.0 L 122.0 19.333333333333332 L 121.0 19.0 L 120.0 19.0 L 119.0 19.0 L 118.0 19.0 L 117.0 19.0 L 116.0 19.0 L 115.0 19.0 L 114.33333333333333 19.333333333333332 L 113.66666666666667 20.0 L 113.0 21.0 L 112.0 22.0 L 111.0 23.0 L 110.0 24.0 L 109.0 24.666666666666668 L 108.0 25.0 L 107.0 25.0 L 106.0 25.0 L 105.0 24.666666666666668 L 104.0 24.0 L 103.0 23.333333333333332 L 102.0 23.0 L 101.33333333333333 23.333333333333332 L 101.0 24.0 L 101.0 25.0 L 101.0 26.0 L 101.0 27.0 L 101.0 28.0 L 101.0 29.0 L 101.0 30.0 L 101.33333333333333 31.0 L 102.0 32.0 L 103.0 32.666666666666664 L 104.0 33.0 L 105.0 33.0 L 106.0 33.0 L 107.0 33.0 L 108.0 33.0 L 109.0 33.0 L 110.0 33.0 L 111.0 32.666666666666664 L 112.0 32.0 L 112.66666666666667 31.0 L 113.0 30.0 L 113.33333333333333 29.0 L 114.0 28.0 L 115.0 27.666666666666668 L 115.5 27.5 Z" stroke="none" fill="rgb(101,100,100)" />
<path d="M 26.5 31.5 L 26.666666666666668 31.0 L 27.0 30.0 L 27.0 29.0 L 27.0 28.0 L 27.0 27.0 L 27.0 26.0 L 27.0 25.0 L 27.0 24.0 L 26.666666666666668 23.333333333333332 L 26.0 23.0 L 25.0 23.333333333333332 L 24.0 24.0 L 23.0 24.666666666666668 L 22.0 25.0 L 21.0 25.0 L 20.0 25.0 L 19.0 24.666666666666668 L 18.333333333333332 24.0 L 17.666666666666668 23.0 L 17.0 22.0 L 16.0 21.0 L 15.0 20.333333333333332 L 14.0 20.0 L 13.0 20.0 L 12.0 19.666666666666668 L 11.0 19.333333333333332 L 10.0 19.0 L 9.0 19.0 L 8.0 19.0 L 7.0 19.0 L 6.333333333333333 19.333333333333332 L 6.0 20.0 L 6.0 21.0 L 6.0 22.0 L 6.0 23.0 L 6.0 24.0 L 6.0 25.0 L 6.333333333333333 26.0 L 7.0 27.0 L 8.0 27.666666666666668 L 9.0 28.0 L 10.0 28.0 L 11.0 28.0 L 12.0 27.666666666666668 L 13.0 27.666666666666668 L 14.0 28.0 L 14.666666666666666 29.0 L 15.0 30.0 L 15.333333333333334 31.0 L 16.0 32.0 L 17.0 32.666666666666664 L 18.0 33.0 L 19.0 33.0 L 20.0 33.0 L 21.0 33.0 L 22.0 33.0 L 23.0 33.0 L 24.0 33.0 L 25.0 32.666666666666664 L 25.5 32.5 Z" stroke="none" fill="rgb(101,100,100)" />
<path d="M 61.5 72.0 L 62.0 72.0 L 63.0 72.0 L 64.0 72.0 L 65.0 72.0 L 66.0 72.0 L 67.0 72.0 L 68.0 72.0 L 69.0 72.0 L 70.0 72.0 L 71.0 72.0 L 72.0 72.0 L 73.0 72.0 L 74.0 72.0 L 75.0 72.0 L 75.66666666666667 71.66666666666667 L 76.0 71.0 L 76.0 70.0 L 76.33333333333333 69.0 L 76.66666666666667 68.0 L 77.0 67.0 L 77.0 66.0 L 76.66666666666667 65.33333333333333 L 76.0 65.0 L 75.0 65.0 L 74.0 65.0 L 73.0 65.0 L 72.0 65.0 L 71.0 65.0 L 70.0 65.0 L 69.0 65.0 L 68.0 65.0 L 67.0 65.0 L 66.0 65.0 L 65.0 65.0 L 64.0 65.0 L 63.0 65.0 L 62.0 65.0 L 61.0 65.0 L 60.0 65.0 L 59.0 65.0 L 58.0 65.0 L 57.0 65.0 L 56.0 65.0 L 55.0 65.0 L 54.0 65.0 L 53.0 65.0 L 52.0 65.0 L 51.333333333333336 65.33333333333333 L 51.0 66.0 L 51.333333333333336 67.0 L 51.666666666666664 68.0 L 52.0 69.0 L 52.333333333333336 70.0 L 52.666666666666664 71.0 L 53.333333333333336 71.66666666666667 L 54.0 72.0 L 55.0 72.0 L 56.0 72.0 L 57.0 72.0 L 58.0 72.0 L 59.0 72.0 L 60.0 72.0 L 60.5 72.0 Z" stroke="none" fill="rgb(0,174,151)" />
<path d="M 47.5 35.5 L 48.0 36.0 L 49.0 37.0 L 50.0 38.0 L 50.666666666666664 39.0 L 51.0 40.0 L 51.333333333333336 40.666666666666664 L 52.0 41.333333333333336 L 53.0 42.0 L 54.0 42.666666666666664 L 54.666666666666664 42.666666666666664 L 55.0 42.0 L 54.666666666666664 41.0 L 54.333333333333336 40.0 L 54.0 39.0 L 54.0 38.0 L 54.0 37.0 L 54.0 36.0 L 53.666666666666664 35.0 L 53.0 34.0 L 52.333333333333336 33.0 L 52.0 32.0 L 52.0 31.0 L 52.0 30.0 L 52.0 29.0 L 52.333333333333336 28.0 L 52.666666666666664 27.0 L 53.0 26.0 L 53.0 25.0 L 53.333333333333336 24.0 L 53.666666666666664 23.0 L 54.0 22.0 L 53.666666666666664 21.333333333333332 L 53.0 21.0 L 52.0 21.0 L 51.0 21.0 L 50.0 21.0 L 49.0 21.0 L 48.0 21.0 L 47.0 21.0 L 46.0 21.0 L 45.0 21.0 L 44.0 21.0 L 43.0 21.0 L 42.333333333333336 21.333333333333332 L 41.666666666666664 22.0 L 41.333333333333336 23.0 L 41.0 24.0 L 41.0 25.0 L 41.0 26.0 L 41.333333333333336 27.0 L 41.666666666666664 28.0 L 42.333333333333336 29.0 L 42.666666666666664 30.0 L 43.333333333333336 31.0 L 43.666666666666664 32.0 L 44.333333333333336 32.666666666666664 L 45.0 33.333333333333336 L 46.0 34.0 L 46.5 34.5 Z" stroke="none" fill="rgb(0,0,0)" />
<path d="M 82.5 33.5 L 83.0 33.333333333333336 L 83.66666666666667 32.666666666666664 L 84.33333333333333 32.0 L 84.66666666666667 31.0 L 85.33333333333333 30.0 L 85.66666666666667 29.0 L 86.33333333333333 28.0 L 86.66666666666667 27.0 L 87.0 26.0 L 87.0 25.0 L 87.0 24.0 L 86.66666666666667 23.0 L 86.33333333333333 22.0 L 85.66666666666667 21.333333333333332 L 85.0 21.0 L 84.0 21.0 L 83.0 21.0 L 82.0 21.0 L 81.0 21.0 L 80.0 21.0 L 79.0 21.0 L 78.0 21.0 L 77.0 21.0 L 76.0 21.0 L 75.0 21.0 L 74.33333333333333 21.333333333333332 L 74.0 22.0 L 74.33333333333333 23.0 L 74.66666666666667 24.0 L 75.0 25.0 L 75.0 26.0 L 75.33333333333333 27.0 L 75.66666666666667 28.0 L 76.0 29.0 L 76.0 30.0 L 76.0 31.0 L 76.0 32.0 L 76.0 33.0 L 76.0 34.0 L 76.0 35.0 L 75.66666666666667 36.0 L 75.0 37.0 L 74.33333333333333 38.0 L 74.0 39.0 L 73.66666666666667 40.0 L 73.33333333333333 41.0 L 73.0 42.0 L 73.33333333333333 42.666666666666664 L 74.0 42.666666666666664 L 75.0 42.0 L 76.0 41.333333333333336 L 76.66666666666667 40.666666666666664 L 77.0 40.0 L 77.33333333333333 39.0 L 78.0 38.333333333333336 L 78.66666666666667 37.666666666666664 L 79.33333333333333 37.0 L 80.0 36.0 L 81.0 35.0 L 81.5 34.5 Z" stroke="none" fill="rgb(0,0,0)" />
<path d="M 26.5 18.5 L 27.0 18.666666666666668 L 28.0 19.0 L 28.666666666666668 18.666666666666668 L 29.0 18.0 L 28.666666666666668 17.0 L 28.0 16.0 L 27.333333333333332 15.0 L 27.0 14.0 L 27.0 13.0 L 27.0 12.0 L 27.0 11.0 L 27.0 10.0 L 27.0 9.0 L 27.0 8.0 L 27.0 7.0 L 26.666666666666668 6.0 L 26.0 5.0 L 25.0 4.333333333333333 L 24.0 4.0 L 23.0 4.0 L 22.0 4.0 L 21.0 4.0 L 20.0 4.0 L 19.0 4.0 L 18.0 4.0 L 17.0 4.333333333333333 L 16.0 5.0 L 15.333333333333334 6.0 L 15.0 7.0 L 15.0 8.0 L 15.0 9.0 L 15.0 10.0 L 15.333333333333334 11.0 L 15.666666666666666 12.0 L 16.0 13.0 L 16.0 14.0 L 16.333333333333332 15.0 L 16.666666666666668 16.0 L 17.333333333333332 17.0 L 18.0 17.666666666666668 L 19.0 18.333333333333332 L 20.0 18.666666666666668 L 21.0 19.0 L 22.0 18.666666666666668 L 23.0 18.333333333333332 L 24.0 18.0 L 25.0 18.0 L 25.5 18.0 Z" stroke="none" fill="rgb(157,157,157)" />
<path d="M 55.5 19.0 L 56.0 19.0 L 57.0 19.0 L 58.0 19.0 L 59.0 19.0 L 60.0 19.0 L 61.0 19.0 L 62.0 19.0 L 63.0 19.0 L 64.0 19.0 L 65.0 19.0 L 66.0 19.0 L 67.0 19.0 L 68.0 19.0 L 69.0 19.0 L 70.0 19.0 L 71.0 19.0 L 72.0 19.0 L 73.0 19.0 L 74.0 19.0 L 75.0 19.0 L 76.0 19.0 L 77.0 19.0 L 78.0 19.0 L 79.0 19.0 L 80.0 19.0 L 81.0 19.0 L 82.0 19.0 L 83.0 19.0 L 84.0 19.333333333333332 L 85.0 19.666666666666668 L 86.0 20.0 L 86.66666666666667 19.666666666666668 L 87.0 19.0 L 87.0 18.0 L 87.0 17.0 L 86.66666666666667 16.333333333333332 L 86.0 16.0 L 85.0 16.0 L 84.0 16.0 L 83.0 16.0 L 82.0 16.0 L 81.0 16.0 L 80.0 16.0 L 79.0 16.0 L 78.0 16.0 L 77.0 16.0 L 76.0 16.0 L 75.0 16.0 L 74.0 16.0 L 73.0 16.0 L 72.0 16.0 L 71.0 16.0 L 70.0 16.0 L 69.0 16.0 L 68.0 16.0 L 67.0 16.0 L 66.0 16.0 L 65.0 16.0 L 64.0 16.0 L 63.0 16.0 L 62.0 16.0 L 61.0 16.0 L 60.0 16.0 L 59.0 16.0 L 58.0 16.0 L 57.0 16.0 L 56.0 16.0 L 55.0 16.0 L 54.0 16.0 L 53.0 16.0 L 52.0 16.0 L 51.0 16.0 L 50.0 16.0 L 49.0 16.0 L 48.0 16.0 L 47.0 16.0 L 46.0 16.0 L 45.0 16.0 L 44.0 16.0 L 43.0 16.0 L 42.333333333333336 16.333333333333332 L 42.0 17.0 L 42.333333333333336 18.0 L 43.0 18.666666666666668 L 44.0 19.0 L 45.0 19.0 L 46.0 19.0 L 47.0 19.0 L 48.0 19.0 L 49.0 19.0 L 50.0 19.0 L 51.0 19.0 L 52.0 19.0 L 53.0 19.0 L 54.0 19.0 L 54.5 19.0 Z" stroke="none" fill="rgb(166,166,166)" />
<path d="M 57.5 28.5 L 58.0 28.333333333333332 L 59.0 28.0 L 60.0 28.0 L 61.0 28.0 L 62.0 28.0 L 63.0 28.0 L 64.0 28.0 L 65.0 28.0 L 66.0 28.0 L 67.0 28.0 L 68.0 28.0 L 69.0 28.0 L 70.0 28.333333333333332 L 71.0 29.0 L 71.66666666666667 30.0 L 72.0 31.0 L 72.33333333333333 32.0 L 73.0 32.666666666666664 L 73.66666666666667 32.666666666666664 L 74.0 32.0 L 74.0 31.0 L 74.0 30.0 L 74.0 29.0 L 74.0 28.0 L 73.66666666666667 27.0 L 73.33333333333333 26.0 L 73.0 25.0 L 72.66666666666667 24.0 L 72.0 23.333333333333332 L 71.0 22.666666666666668 L 70.0 22.0 L 69.0 21.333333333333332 L 68.0 21.0 L 67.0 21.0 L 66.0 21.0 L 65.0 21.0 L 64.0 21.0 L 63.0 21.0 L 62.0 21.0 L 61.0 21.0 L 60.0 21.333333333333332 L 59.0 21.666666666666668 L 58.0 22.0 L 57.0 22.333333333333332 L 56.333333333333336 23.0 L 55.666666666666664 24.0 L 55.333333333333336 25.0 L 55.0 26.0 L 55.0 27.0 L 55.0 28.0 L 55.0 29.0 L 55.333333333333336 29.666666666666668 L 56.0 29.666666666666668 L 56.5 29.5 Z" stroke="none" fill="rgb(83,58,50)" />
<path d="M 35.5 124.0 L 36.0 124.0 L 37.0 124.0 L 38.0 124.0 L 39.0 124.0 L 40.0 124.0 L 41.0 124.0 L 42.0 124.0 L 43.0 124.0 L 44.0 124.0 L 45.0 124.0 L 46.0 124.0 L 47.0 124.0 L 48.0 124.0 L 49.0 124.0 L 50.0 124.0 L 51.0 124.0 L 52.0 124.0 L 52.666666666666664 123.66666666666667 L 53.0 123.0 L 53.0 122.0 L 53.0 121.0 L 53.0 120.0 L 53.0 119.0 L 52.666666666666664 118.0 L 52.333333333333336 117.0 L 51.666666666666664 116.0 L 51.0 115.33333333333333 L 50.0 115.0 L 49.0 115.0 L 48.0 115.0 L 47.0 115.0 L 46.0 115.0 L 45.0 115.0 L 44.0 115.0 L 43.0 115.0 L 42.0 115.33333333333333 L 41.0 115.66666666666667 L 40.0 116.0 L 39.0 116.33333333333333 L 38.0 116.66666666666667 L 37.0 117.0 L 36.0 117.33333333333333 L 35.0 118.0 L 34.333333333333336 119.0 L 34.0 120.0 L 34.0 121.0 L 34.0 122.0 L 34.0 123.0 L 34.333333333333336 123.66666666666667 L 34.5 124.0 Z" stroke="none" fill="rgb(69,104,173)" />
<path d="M 89.5 124.0 L 90.0 124.0 L 91.0 124.0 L 92.0 124.0 L 93.0 124.0 L 93.66666666666667 123.66666666666667 L 94.0 123.0 L 94.0 122.0 L 94.0 121.0 L 94.0 120.0 L 93.66666666666667 119.0 L 93.0 118.0 L 92.0 117.33333333333333 L 91.0 117.0 L 90.0 116.66666666666667 L 89.0 116.33333333333333 L 88.0 116.0 L 87.0 115.66666666666667 L 86.0 115.33333333333333 L 85.0 115.0 L 84.0 115.0 L 83.0 115.0 L 82.0 115.0 L 81.0 115.0 L 80.0 115.0 L 79.0 115.0 L 78.0 115.0 L 77.0 115.33333333333333 L 76.33333333333333 116.0 L 75.66666666666667 117.0 L 75.33333333333333 118.0 L 75.0 119.0 L 75.0 120.0 L 75.0 121.0 L 75.0 122.0 L 75.0 123.0 L 75.33333333333333 123.66666666666667 L 76.0 124.0 L 77.0 124.0 L 78.0 124.0 L 79.0 124.0 L 80.0 124.0 L 81.0 124.0 L 82.0 124.0 L 83.0 124.0 L 84.0 124.0 L 85.0 124.0 L 86.0 124.0 L 87.0 124.0 L 88.0 124.0 L 88.5 124.0 Z" stroke="none" fill="rgb(69,104,173)" />
<path d="M 57.5 22.0 L 58.0 22.0 L 59.0 22.0 L 60.0 21.666666666666668 L 61.0 21.333333333333332 L 62.0 21.0 L 63.0 21.0 L 64.0 21.0 L 65.0 21.0 L 66.0 21.0 L 67.0 21.0 L 68.0 21.333333333333332 L 69.0 22.0 L 70.0 22.666666666666668 L 71.0 23.0 L 72.0 22.666666666666668 L 73.0 22.333333333333332 L 74.0 21.666666666666668 L 75.0 21.333333333333332 L 76.0 21.0 L 77.0 21.0 L 78.0 21.0 L 79.0 21.0 L 80.0 21.0 L 81.0 21.0 L 82.0 21.0 L 83.0 21.0 L 84.0 21.0 L 85.0 21.0 L 85.66666666666667 20.666666666666668 L 85.66666666666667 20.0 L 85.0 19.333333333333332 L 84.0 19.0 L 83.0 19.0 L 82.0 19.0 L 81.0 19.0 L 80.0 19.0 L 79.0 19.0 L 78.0 19.0 L 77.0 19.0 L 76.0 19.0 L 75.0 19.0 L 74.0 19.0 L 73.0 19.0 L 72.0 19.0 L 71.0 19.0 L 70.0 19.0 L 69.0 19.0 L 68.0 19.0 L 67.0 19.0 L 66.0 19.0 L 65.0 19.0 L 64.0 19.0 L 63.0 19.0 L 62.0 19.0 L 61.0 19.0 L 60.0 19.0 L 59.0 19.0 L 58.0 19.0 L 57.0 19.0 L 56.0 19.0 L 55.0 19.0 L 54.0 19.0 L 53.0 19.0 L 52.0 19.0 L 51.0 19.0 L 50.0 19.0 L 49.0 19.0 L 48.0 19.0 L 47.0 19.0 L 46.0 19.0 L 45.0 19.0 L 44.0 19.0 L 43.333333333333336 19.333333333333332 L 43.0 20.0 L 43.333333333333336 20.666666666666668 L 44.0 21.0 L 45.0 21.0 L 46.0 21.0 L 47.0 21.0 L 48.0 21.0 L 49.0 21.0 L 50.0 21.0 L 51.0 21.0 L 52.0 21.0 L 53.0 21.333333333333332 L 54.0 21.666666666666668 L 55.0 21.666666666666668 L 56.0 21.666666666666668 L 56.5 21.5 Z" stroke="none" fill="rgb(132,131,131)" />
<path d="M 114.0 20.5 L 114.33333333333333 20.0 L 115.0 19.333333333333332 L 116.0 19.0 L 117.0 19.0 L 117.66666666666667 18.666666666666668 L 117.66666666666667 18.0 L 117.0 17.0 L 116.33333333333333 16.0 L 116.0 15.0 L 115.66666666666667 14.0 L 115.0 13.0 L 114.0 12.333333333333334 L 113.0 12.0 L 112.33333333333333 12.333333333333334 L 112.0 13.0 L 111.66666666666667 14.0 L 111.33333333333333 15.0 L 110.66666666666667 16.0 L 110.0 17.0 L 109.0 18.0 L 108.0 18.666666666666668 L 107.0 18.666666666666668 L 106.0 18.333333333333332 L 105.0 17.666666666666668 L 104.0 17.0 L 103.0 16.333333333333332 L 102.33333333333333 16.333333333333332 L 102.0 17.0 L 102.0 18.0 L 102.33333333333333 19.0 L 103.0 20.0 L 104.0 20.666666666666668 L 105.0 21.0 L 106.0 21.0 L 107.0 21.0 L 108.0 21.0 L 109.0 20.666666666666668 L 110.0 20.333333333333332 L 111.0 20.333333333333332 L 112.0 20.666666666666668 L 113.0 21.0 L 113.5 21.0 Z" stroke="none" fill="rgb(143,143,142)" />
<path d="M 8.5 17.5 L 9.0 18.0 L 10.0 19.0 L 11.0 19.666666666666668 L 12.0 20.0 L 13.0 20.0 L 14.0 20.0 L 14.666666666666666 19.666666666666668 L 15.0 19.0 L 15.0 18.0 L 15.0 17.0 L 14.666666666666666 16.0 L 14.333333333333334 15.0 L 14.0 14.0 L 13.666666666666666 13.0 L 13.333333333333334 12.0 L 13.0 11.0 L 12.666666666666666 10.333333333333334 L 12.0 9.666666666666666 L 11.0 9.333333333333334 L 10.0 9.0 L 9.0 9.333333333333334 L 8.333333333333334 10.0 L 8.0 11.0 L 8.0 12.0 L 8.0 13.0 L 8.0 14.0 L 8.0 15.0 L 8.0 16.0 L 8.0 16.5 Z" stroke="none" fill="rgb(157,157,157)" />
<path d="M 23.5 23.0 L 24.0 22.666666666666668 L 25.0 22.0 L 26.0 21.333333333333332 L 26.666666666666668 20.666666666666668 L 27.0 20.0 L 27.0 19.0 L 26.666666666666668 18.333333333333332 L 26.0 18.0 L 25.0 18.333333333333332 L 24.0 19.0 L 23.0 20.0 L 22.0 20.666666666666668 L 21.0 21.0 L 20.0 21.0 L 19.0 20.666666666666668 L 18.0 20.0 L 17.0 19.0 L 16.0 18.333333333333332 L 15.333333333333334 18.333333333333332 L 15.0 19.0 L 15.0 20.0 L 15.333333333333334 21.0 L 16.0 22.0 L 17.0 22.666666666666668 L 18.0 23.0 L 19.0 23.333333333333332 L 20.0 23.666666666666668 L 21.0 24.0 L 22.0 23.666666666666668 L 22.5 23.5 Z" stroke="none" fill="rgb(124,124,124)" />
<path d="M 16.5 19.5 L 17.0 20.0 L 18.0 20.666666666666668 L 19.0 21.0 L 20.0 21.0 L 21.0 21.0 L 22.0 20.666666666666668 L 23.0 20.333333333333332 L 24.0 19.666666666666668 L 24.666666666666668 19.0 L 25.0 18.0 L 24.666666666666668 17.333333333333332 L 24.0 17.333333333333332 L 23.0 17.666666666666668 L 22.0 18.333333333333332 L 21.0 18.333333333333332 L 20.0 18.333333333333332 L 19.0 17.666666666666668 L 18.0 17.0 L 17.333333333333332 16.0 L 16.666666666666668 15.0 L 16.333333333333332 14.0 L 16.0 13.0 L 16.0 12.0 L 15.666666666666666 11.0 L 15.0 10.333333333333334 L 14.0 10.333333333333334 L 13.333333333333334 11.0 L 13.0 12.0 L 13.333333333333334 13.0 L 13.666666666666666 14.0 L 14.0 15.0 L 14.333333333333334 16.0 L 14.666666666666666 17.0 L 15.333333333333334 18.0 L 15.5 18.5 Z" stroke="none" fill="rgb(143,143,142)" />
<path d="M 48.5 43.5 L 49.0 43.0 L 50.0 42.0 L 50.666666666666664 41.0 L 51.0 40.0 L 51.0 39.0 L 50.666666666666664 38.333333333333336 L 50.0 38.0 L 49.0 38.0 L 48.0 38.333333333333336 L 47.0 39.0 L 46.0 39.666666666666664 L 45.0 40.333333333333336 L 44.0 40.666666666666664 L 43.0 41.333333333333336 L 42.0 42.0 L 41.0 42.666666666666664 L 40.333333333333336 43.333333333333336 L 40.0 44.0 L 40.333333333333336 45.0 L 41.0 46.0 L 42.0 46.666666666666664 L 43.0 47.0 L 44.0 46.666666666666664 L 45.0 46.0 L 46.0 45.0 L 47.0 44.333333333333336 L 47.5 44.0 Z" stroke="none" fill="rgb(255,183,7)" />
<path d="M 57.0 32.5 L 57.0 32.0 L 56.666666666666664 31.0 L 56.0 30.0 L 55.333333333333336 29.0 L 55.0 28.0 L 55.0 27.0 L 55.333333333333336 26.0 L 55.666666666666664 25.0 L 56.333333333333336 24.0 L 56.666666666666664 23.0 L 57.0 22.0 L 56.666666666666664 21.333333333333332 L 56.0 21.0 L 55.0 21.333333333333332 L 54.0 22.0 L 53.333333333333336 23.0 L 53.0 24.0 L 53.0 25.0 L 52.666666666666664 26.0 L 52.333333333333336 27.0 L 52.0 28.0 L 52.0 29.0 L 52.0 30.0 L 52.0 31.0 L 52.0 32.0 L 52.0 33.0 L 52.333333333333336 34.0 L 53.0 34.666666666666664 L 54.0 35.0 L 54.666666666666664 34.666666666666664 L 55.333333333333336 34.0 L 56.0 33.333333333333336 L 56.5 33.0 Z" stroke="none" fill="rgb(107,75,61)" />
<path d="M 78.5 42.5 L 79.0 42.666666666666664 L 80.0 43.333333333333336 L 81.0 44.0 L 82.0 45.0 L 83.0 45.666666666666664 L 84.0 46.333333333333336 L 85.0 46.666666666666664 L 86.0 46.666666666666664 L 87.0 46.0 L 87.66666666666667 45.0 L 88.0 44.0 L 87.66666666666667 43.333333333333336 L 87.0 42.666666666666664 L 86.0 42.333333333333336 L 85.0 41.666666666666664 L 84.0 41.0 L 83.0 40.333333333333336 L 82.0 39.666666666666664 L 81.0 39.0 L 80.0 38.333333333333336 L 79.0 38.0 L 78.0 38.0 L 77.33333333333333 38.333333333333336 L 77.0 39.0 L 77.0 40.0 L 77.33333333333333 41.0 L 77.5 41.5 Z" stroke="none" fill="rgb(255,183,7)" />
<path d="M 42.5 90.0 L 43.0 90.0 L 44.0 90.0 L 45.0 90.0 L 46.0 90.0 L 47.0 90.0 L 48.0 90.0 L 49.0 90.0 L 50.0 90.0 L 50.666666666666664 89.66666666666667 L 50.666666666666664 89.0 L 50.0 88.0 L 49.0 87.0 L 48.0 86.0 L 47.0 85.33333333333333 L 46.0 85.0 L 45.0 85.0 L 44.0 85.0 L 43.0 85.0 L 42.0 85.0 L 41.0 85.33333333333333 L 40.0 86.0 L 39.333333333333336 87.0 L 39.0 88.0 L 39.0 89.0 L 39.333333333333336 89.66666666666667 L 40.0 90.0 L 41.0 90.0 L 41.5 90.0 Z" stroke="none" fill="rgb(255,196,30)" />
<path d="M 88.5 90.0 L 88.66666666666667 89.66666666666667 L 89.0 89.0 L 89.0 88.0 L 88.66666666666667 87.0 L 88.0 86.0 L 87.0 85.33333333333333 L 86.0 85.0 L 85.0 85.0 L 84.0 85.0 L 83.0 85.0 L 82.0 85.0 L 81.0 85.33333333333333 L 80.0 86.0 L 79.0 87.0 L 78.33333333333333 88.0 L 78.0 89.0 L 78.33333333333333 89.66666666666667 L 79.0 90.0 L 80.0 90.0 L 81.0 90.0 L 82.0 90.0 L 83.0 90.0 L 84.0 90.0 L 85.0 90.0 L 86.0 90.0 L 87.0 90.0 L 87.5 90.0 Z" stroke="none" fill="rgb(255,196,30)" />
<path d="M 46.5 40.0 L 47.0 39.666666666666664 L 48.0 39.0 L 49.0 38.333333333333336 L 49.666666666666664 37.666666666666664 L 49.666666666666664 37.0 L 49.0 36.0 L 48.0 35.333333333333336 L 47.0 35.333333333333336 L 46.0 35.666666666666664 L 45.0 36.333333333333336 L 44.0 37.0 L 43.0 37.666666666666664 L 42.0 38.333333333333336 L 41.0 38.666666666666664 L 40.0 39.333333333333336 L 39.333333333333336 40.0 L 39.0 41.0 L 39.0 42.0 L 39.333333333333336 42.666666666666664 L 40.0 43.0 L 41.0 43.0 L 42.0 42.666666666666664 L 43.0 42.0 L 44.0 41.333333333333336 L 45.0 40.666666666666664 L 45.5 40.5 Z" stroke="none" fill="rgb(254,189,19)" />
<path d="M 84.5 42.0 L 85.0 42.333333333333336 L 86.0 42.666666666666664 L 87.0 43.0 L 88.0 43.0 L 88.66666666666667 42.666666666666664 L 89.0 42.0 L 89.0 41.0 L 88.66666666666667 40.0 L 88.0 39.333333333333336 L 87.0 38.666666666666664 L 86.0 38.333333333333336 L 85.0 37.666666666666664 L 84.0 37.0 L 83.0 36.333333333333336 L 82.0 35.666666666666664 L 81.0 35.333333333333336 L 80.0 35.333333333333336 L 79.33333333333333 36.0 L 79.0 37.0 L 79.33333333333333 38.0 L 80.0 39.0 L 81.0 39.666666666666664 L 82.0 40.333333333333336 L 83.0 41.0 L 83.5 41.5 Z" stroke="none" fill="rgb(254,189,19)" />
<path d="M 42.5 38.5 L 43.0 38.333333333333336 L 44.0 37.666666666666664 L 45.0 37.0 L 46.0 36.333333333333336 L 46.666666666666664 35.666666666666664 L 47.0 35.0 L 46.666666666666664 34.0 L 46.0 33.333333333333336 L 45.0 33.0 L 44.0 33.333333333333336 L 43.0 33.666666666666664 L 42.0 34.333333333333336 L 41.0 34.666666666666664 L 40.0 35.333333333333336 L 39.0 36.0 L 38.0 36.666666666666664 L 37.333333333333336 37.333333333333336 L 37.0 38.0 L 37.333333333333336 39.0 L 38.0 39.666666666666664 L 39.0 40.0 L 40.0 39.666666666666664 L 41.0 39.333333333333336 L 41.5 39.0 Z" stroke="none" fill="rgb(255,196,30)" />
<path d="M 88.5 40.0 L 89.0 40.0 L 90.0 39.666666666666664 L 90.66666666666667 39.0 L 91.0 38.0 L 90.66666666666667 37.333333333333336 L 90.0 36.666666666666664 L 89.0 36.0 L 88.0 35.333333333333336 L 87.0 34.666666666666664 L 86.0 34.333333333333336 L 85.0 33.666666666666664 L 84.0 33.333333333333336 L 83.0 33.0 L 82.0 33.333333333333336 L 81.33333333333333 34.0 L 81.0 35.0 L 81.33333333333333 35.666666666666664 L 82.0 36.333333333333336 L 83.0 37.0 L 84.0 37.666666666666664 L 85.0 38.333333333333336 L 86.0 38.666666666666664 L 87.0 39.333333333333336 L 87.5 39.5 Z" stroke="none" fill="rgb(255,196,30)" />
<path d="M 45.5 115.0 L 46.0 115.0 L 47.0 115.0 L 48.0 115.0 L 49.0 115.0 L 50.0 115.0 L 50.666666666666664 114.66666666666667 L 51.0 114.0 L 51.0 113.0 L 51.0 112.0 L 50.666666666666664 111.33333333333333 L 50.0 111.0 L 49.0 111.0 L 48.0 111.0 L 47.0 111.0 L 46.0 111.0 L 45.0 111.0 L 44.0 111.0 L 43.0 111.0 L 42.333333333333336 111.33333333333333 L 42.0 112.0 L 42.0 113.0 L 42.333333333333336 114.0 L 43.0 114.66666666666667 L 44.0 115.0 L 44.5 115.0 Z" stroke="none" fill="rgb(224,224,224)" />
<path d="M 82.5 115.0 L 83.0 115.0 L 84.0 115.0 L 85.0 114.66666666666667 L 85.66666666666667 114.0 L 86.0 113.0 L 86.0 112.0 L 85.66666666666667 111.33333333333333 L 85.0 111.0 L 84.0 111.0 L 83.0 111.0 L 82.0 111.0 L 81.0 111.0 L 80.0 111.0 L 79.0 111.0 L 78.0 111.0 L 77.33333333333333 111.33333333333333 L 77.0 112.0 L 77.0 113.0 L 77.0 114.0 L 77.33333333333333 114.66666666666667 L 78.0 115.0 L 79.0 115.0 L 80.0 115.0 L 81.0 115.0 L 81.5 115.0 Z" stroke="none" fill="rgb(224,224,224)" />
<path d="M 75.5 35.0 L 75.66666666666667 34.666666666666664 L 76.0 34.0 L 76.0 33.0 L 76.0 32.0 L 76.0 31.0 L 76.0 30.0 L 76.0 29.0 L 76.0 28.0 L 75.66666666666667 27.0 L 75.33333333333333 26.0 L 75.0 25.0 L 75.0 24.0 L 74.66666666666667 23.0 L 74.0 22.333333333333332 L 73.0 22.0 L 72.33333333333333 22.333333333333332 L 72.0 23.0 L 72.33333333333333 24.0 L 72.66666666666667 25.0 L 73.0 26.0 L 73.33333333333333 27.0 L 73.66666666666667 28.0 L 74.0 29.0 L 74.0 30.0 L 74.0 31.0 L 74.0 32.0 L 74.0 33.0 L 74.0 34.0 L 74.33333333333333 34.666666666666664 L 74.5 35.0 Z" stroke="none" fill="rgb(107,75,61)" />
<path d="M 108.5 23.5 L 109.0 23.333333333333332 L 110.0 22.666666666666668 L 111.0 22.333333333333332 L 111.66666666666667 21.666666666666668 L 112.0 21.0 L 111.66666666666667 20.333333333333332 L 111.0 20.333333333333332 L 110.0 20.666666666666668 L 109.0 21.0 L 108.0 21.0 L 107.0 21.0 L 106.0 21.0 L 105.0 20.666666666666668 L 104.0 20.0 L 103.0 19.333333333333332 L 102.33333333333333 19.333333333333332 L 102.0 20.0 L 102.33333333333333 21.0 L 103.0 22.0 L 104.0 22.666666666666668 L 105.0 23.333333333333332 L 106.0 23.666666666666668 L 107.0 24.0 L 107.5 24.0 Z" stroke="none" fill="rgb(124,124,124)" />
<path d="M 106.5 25.0 L 107.0 25.0 L 108.0 25.0 L 109.0 25.0 L 110.0 24.666666666666668 L 111.0 24.0 L 111.66666666666667 23.0 L 111.66666666666667 22.333333333333332 L 111.0 22.0 L 110.0 22.333333333333332 L 109.0 22.666666666666668 L 108.0 23.333333333333332 L 107.0 23.333333333333332 L 106.0 23.333333333333332 L 105.0 22.666666666666668 L 104.0 22.0 L 103.0 21.333333333333332 L 102.0 21.0 L 101.33333333333333 21.333333333333332 L 101.33333333333333 22.0 L 102.0 23.0 L 103.0 24.0 L 104.0 24.666666666666668 L 105.0 25.0 L 105.5 25.0 Z" stroke="none" fill="rgb(112,112,112)" />
<path d="M 37.0 22.5 L 37.0 22.0 L 37.0 21.0 L 37.0 20.0 L 36.666666666666664 19.333333333333332 L 36.0 19.0 L 35.0 19.0 L 34.0 19.0 L 33.0 19.0 L 32.0 19.0 L 31.0 19.333333333333332 L 30.333333333333332 20.0 L 30.333333333333332 20.666666666666668 L 31.0 21.0 L 32.0 21.333333333333332 L 33.0 22.0 L 34.0 22.666666666666668 L 35.0 23.0 L 36.0 23.0 L 36.5 23.0 Z" stroke="none" fill="rgb(101,100,100)" />
<path d="M 22.5 25.0 L 23.0 25.0 L 24.0 24.666666666666668 L 25.0 24.0 L 26.0 23.333333333333332 L 26.666666666666668 22.666666666666668 L 27.0 22.0 L 26.666666666666668 21.333333333333332 L 26.0 21.0 L 25.0 21.333333333333332 L 24.0 22.0 L 23.0 22.666666666666668 L 22.0 23.333333333333332 L 21.0 23.333333333333332 L 20.0 23.333333333333332 L 19.0 23.0 L 18.333333333333332 23.333333333333332 L 18.0 24.0 L 18.333333333333332 24.666666666666668 L 19.0 25.0 L 20.0 25.0 L 21.0 25.0 L 21.5 25.0 Z" stroke="none" fill="rgb(112,112,112)" />
<path d="M 62.5 50.0 L 63.0 50.0 L 64.0 50.0 L 65.0 50.0 L 66.0 49.666666666666664 L 66.66666666666667 49.0 L 67.0 48.0 L 66.66666666666667 47.333333333333336 L 66.0 47.0 L 65.0 47.0 L 64.0 47.0 L 63.0 47.0 L 62.0 47.0 L 61.333333333333336 47.333333333333336 L 61.0 48.0 L 61.333333333333336 49.0 L 61.5 49.5 Z" stroke="none" fill="rgb(228,151,2)" />
<path d="M 97.5 21.0 L 98.0 21.0 L 99.0 21.0 L 99.66666666666667 20.666666666666668 L 99.66666666666667 20.0 L 99.0 19.333333333333332 L 98.0 19.0 L 97.0 19.0 L 96.0 19.0 L 95.0 19.0 L 94.0 19.0 L 93.33333333333333 19.333333333333332 L 93.0 20.0 L 93.33333333333333 21.0 L 94.0 21.666666666666668 L 95.0 21.666666666666668 L 96.0 21.333333333333332 L 96.5 21.0 Z" stroke="none" fill="rgb(101,100,100)" />
<path d="M 99.5 20.5 L 100.0 20.666666666666668 L 101.0 21.0 L 101.66666666666667 20.666666666666668 L 102.0 20.0 L 101.66666666666667 19.0 L 101.0 18.0 L 100.0 17.0 L 99.0 16.333333333333332 L 98.0 16.0 L 97.33333333333333 16.333333333333332 L 97.0 17.0 L 97.33333333333333 18.0 L 98.0 19.0 L 98.5 19.5 Z" stroke="none" fill="rgb(255,183,7)" />
<path d="M 29.5 20.0 L 30.0 20.0 L 31.0 19.666666666666668 L 31.666666666666668 19.0 L 32.333333333333336 18.0 L 32.666666666666664 17.0 L 32.666666666666664 16.333333333333332 L 32.0 16.0 L 31.0 16.0 L 30.0 16.0 L 29.333333333333332 16.333333333333332 L 29.0 17.0 L 29.0 18.0 L 29.0 19.0 L 29.0 19.5 Z" stroke="none" fill="rgb(255,183,7)" />
<path d="M 35.5 19.0 L 35.666666666666664 18.666666666666668 L 36.0 18.0 L 35.666666666666664 17.0 L 35.333333333333336 16.0 L 35.0 15.0 L 34.666666666666664 14.333333333333334 L 34.0 14.333333333333334 L 33.333333333333336 15.0 L 33.0 16.0 L 33.333333333333336 17.0 L 34.0 18.0 L 34.5 18.5 Z" stroke="none" fill="rgb(254,189,19)" />
<path d="M 95.5 19.0 L 96.0 19.0 L 97.0 19.0 L 97.66666666666667 18.666666666666668 L 97.66666666666667 18.0 L 97.0 17.333333333333332 L 96.0 17.0 L 95.0 17.0 L 94.33333333333333 17.333333333333332 L 94.0 18.0 L 94.33333333333333 18.666666666666668 L 94.5 19.0 Z" stroke="none" fill="rgb(241,172,7)" />
<path d="M 55.5 45.5 L 56.0 45.666666666666664 L 57.0 46.0 L 57.666666666666664 45.666666666666664 L 57.666666666666664 45.0 L 57.0 44.0 L 56.0 43.333333333333336 L 55.333333333333336 43.333333333333336 L 55.0 44.0 L 55.0 44.5 Z" stroke="none" fill="rgb(0,0,0)" />
<path d="M 32.5 19.0 L 33.0 19.0 L 34.0 19.0 L 34.666666666666664 18.666666666666668 L 34.666666666666664 18.0 L 34.0 17.333333333333332 L 33.0 17.0 L 32.333333333333336 17.333333333333332 L 32.0 18.0 L 32.0 18.5 Z" stroke="none" fill="rgb(241,172,7)" />
<path d="M 28.5 21.0 L 29.0 21.0 L 29.666666666666668 20.666666666666668 L 29.666666666666668 20.0 L 29.0 19.333333333333332 L 28.0 19.0 L 27.333333333333332 19.333333333333332 L 27.0 20.0 L 27.333333333333332 20.666666666666668 L 27.5 21.0 Z" stroke="none" fill="rgb(132,131,131)" />
<path d="M 74.5 38.0 L 75.0 37.666666666666664 L 75.66666666666667 37.0 L 76.0 36.0 L 75.66666666666667 35.333333333333336 L 75.0 35.0 L 74.33333333333333 35.333333333333336 L 74.0 36.0 L 74.0 37.0 L 74.0 37.5 Z" stroke="none" fill="rgb(228,151,2)" />
<path d="M 45.5 85.0 L 45.666666666666664 84.66666666666667 L 45.666666666666664 84.0 L 45.0 83.33333333333333 L 44.0 83.0 L 43.333333333333336 83.33333333333333 L 43.0 84.0 L 43.333333333333336 84.66666666666667 L 44.0 85.0 L 44.5 85.0 Z" stroke="none" fill="rgb(254,189,19)" />
<path d="M 84.5 85.0 L 85.0 85.0 L 85.66666666666667 84.66666666666667 L 85.66666666666667 84.0 L 85.0 83.33333333333333 L 84.0 83.0 L 83.33333333333333 83.33333333333333 L 83.0 84.0 L 83.33333333333333 84.66666666666667 L 83.5 85.0 Z" stroke="none" fill="rgb(254,189,19)" />
<path d="M 60.0 35.5 L 60.0 35.0 L 59.666666666666664 34.333333333333336 L 59.0 34.0 L 58.333333333333336 34.333333333333336 L 58.0 35.0 L 58.333333333333336 35.666666666666664 L 59.0 36.0 L 59.5 36.0 Z" stroke="none" fill="rgb(83,58,50)" />
<path d="M 70.0 35.5 L 70.0 35.0 L 69.66666666666667 34.333333333333336 L 69.0 34.0 L 68.33333333333333 34.333333333333336 L 68.0 35.0 L 68.33333333333333 35.666666666666664 L 69.0 36.0 L 69.5 36.0 Z" stroke="none" fill="rgb(83,58,50)" />
<path d="M 110.5 21.0 L 110.66666666666667 20.666666666666668 L 111.0 20.0 L 110.66666666666667 19.333333333333332 L 110.0 19.333333333333332 L 109.33333333333333 20.0 L 109.33333333333333 20.666666666666668 L 109.5 21.0 Z" stroke="none" fill="rgb(132,131,131)" />
<path d="M 72.5 45.0 L 72.66666666666667 44.666666666666664 L 73.0 44.0 L 72.66666666666667 43.333333333333336 L 72.0 43.333333333333336 L 71.33333333333333 44.0 L 71.33333333333333 44.666666666666664 L 71.5 45.0 Z" stroke="none" fill="rgb(0,0,0)" />
<path d="M 22.5 21.0 L 22.666666666666668 20.666666666666668 L 22.666666666666668 20.333333333333332 L 22.333333333333332 20.333333333333332 L 22.0 20.5 Z" stroke="none" fill="rgb(132,131,131)" />
<path d="M 113.0 21.5 L 112.66666666666667 21.333333333333332 L 112.33333333333333 21.333333333333332 L 112.33333333333333 21.666666666666668 L 112.5 22.0 Z" stroke="none" fill="rgb(112,112,112)" />
</svg>
