<?xml version="1.0" encoding="UTF-8" standalone="no"?>
<!DOCTYPE svg PUBLIC "-//W3C//DTD SVG 1.1//EN"
"http://www.w3.org/Graphics/SVG/1.1/DTD/svg11.dtd">
<svg width="128" height="128" xmlns="http://www.w3.org/2000/svg" version="1.1">
<path d="M 21.5 77.5 L 21.666666666666668 77.0 L 22.333333333333332 76.0 L 23.0 75.0 L 24.0 74.0 L 25.0 73.0 L 25.666666666666668 72.0 L 26.333333333333332 71.0 L 27.0 70.0 L 28.0 69.0 L 29.0 68.0 L 29.666666666666668 67.0 L 30.333333333333332 66.0 L 31.0 65.0 L 32.0 64.0 L 33.0 63.0 L 33.666666666666664 62.0 L 34.333333333333336 61.0 L 35.0 60.0 L 36.0 59.0 L 37.0 58.0 L 38.0 57.0 L 38.666666666666664 56.0 L 39.333333333333336 55.0 L 40.0 54.0 L 41.0 53.0 L 42.0 52.0 L 42.666666666666664 51.0 L 43.333333333333336 50.0 L 44.0 49.0 L 45.0 48.0 L 46.0 47.0 L 46.666666666666664 46.0 L 47.333333333333336 45.0 L 48.0 44.0 L 49.0 43.0 L 50.0 42.0 L 51.0 41.0 L 51.666666666666664 40.0 L 52.333333333333336 39.0 L 53.0 38.0 L 54.0 37.0 L 55.0 36.0 L 55.666666666666664 35.0 L 56.333333333333336 34.0 L 57.0 33.0 L 58.0 32.0 L 59.0 31.0 L 60.0 30.0 L 60.666666666666664 29.0 L 61.333333333333336 28.0 L 62.0 27.0 L 63.0 26.0 L 64.0 25.0 L 64.66666666666667 24.0 L 65.33333333333333 23.0 L 66.0 22.0 L 67.0 21.0 L 68.0 20.0 L 69.0 19.0 L 69.66666666666667 18.0 L 70.33333333333333 17.0 L 71.0 16.0 L 72.0 15.0 L 73.0 14.0 L 73.66666666666667 13.0 L 74.33333333333333 12.0 L 75.0 11.0 L 76.0 10.0 L 77.0 9.0 L 78.0 8.0 L 78.66666666666667 7.0 L 79.33333333333333 6.0 L 80.0 5.0 L 81.0 4.0 L 82.0 3.0 L 83.0 2.0 L 84.0 1.3333333333333333 L 85.0 1.0 L 85.66666666666667 0.6666666666666666 L 85.66666666666667 0.3333333333333333 L 85.0 0.0 L 84.0 0.0 L 83.0 0.0 L 82.0 0.0 L 81.0 0.0 L 80.0 0.0 L 79.0 0.0 L 78.0 0.0 L 77.0 0.0 L 76.0 0.0 L 75.0 0.0 L 74.0 0.0 L 73.0 0.0 L 72.0 0.0 L 71.0 0.0 L 70.0 0.0 L 69.0 0.0 L 68.0 0.0 L 67.0 0.0 L 66.0 0.0 L 65.0 0.0 L 64.0 0.0 L 63.0 0.0 L 62.0 0.0 L 61.0 0.0 L 60.0 0.0 L 59.0 0.0 L 58.0 0.0 L 57.0 0.0 L 56.0 0.0 L 55.0 0.0 L 54.0 0.0 L 53.0 0.0 L 52.0 0.0 L 51.0 0.0 L 50.0 0.0 L 49.0 0.0 L 48.0 0.0 L 47.0 0.0 L 46.0 0.0 L 45.0 0.0 L 44.0 0.0 L 43.0 0.0 L 42.0 0.0 L 41.0 0.0 L 40.0 0.0 L 39.0 0.0 L 38.0 0.0 L 37.0 0.0 L 36.0 0.0 L 35.0 0.0 L 34.0 0.0 L 33.0 0.0 L 32.0 0.0 L 31.0 0.0 L 30.0 0.0 L 29.0 0.0 L 28.0 0.0 L 27.0 0.0 L 26.0 0.0 L 25.0 0.0 L 24.0 0.0 L 23.0 0.0 L 22.0 0.0 L 21.0 0.0 L 20.0 0.0 L 19.0 0.0 L 18.0 0.0 L 17.0 0.0 L 16.0 0.0 L 15.0 0.0 L 14.0 0.0 L 13.0 0.0 L 12.0 0.0 L 11.0 0.0 L 10.0 0.0 L 9.0 0.0 L 8.0 0.0 L 7.0 0.0 L 6.0 0.0 L 5.0 0.0 L 4.0 0.0 L 3.0 0.0 L 2.0 0.0 L 1.0 0.0 L 0.3333333333333333 0.3333333333333333 L 0.0 1.0 L 0.0 2.0 L 0.0 3.0 L 0.0 4.0 L 0.0 5.0 L 0.0 6.0 L 0.0 7.0 L 0.0 8.0 L 0.0 9.0 L 0.0 10.0 L 0.0 11.0 L 0.0 12.0 L 0.0 13.0 L 0.0 14.0 L 0.0 15.0 L 0.0 16.0 L 0.0 17.0 L 0.0 18.0 L 0.0 19.0 L 0.0 20.0 L 0.0 21.0 L 0.0 22.0 L 0.0 23.0 L 0.0 24.0 L 0.0 25.0 L 0.0 26.0 L 0.0 27.0 L 0.0 28.0 L 0.0 29.0 L 0.0 30.0 L 0.0 31.0 L 0.0 32.0 L 0.0 33.0 L 0.0 34.0 L 0.0 35.0 L 0.0 36.0 L 0.0 37.0 L 0.0 38.0 L 0.0 39.0 L 0.0 40.0 L 0.0 41.0 L 0.0 42.0 L 0.0 43.0 L 0.0 44.0 L 0.0 45.0 L 0.0 46.0 L 0.0 47.0 L 0.0 48.0 L 0.0 49.0 L 0.0 50.0 L 0.0 51.0 L 0.0 52.0 L 0.0 53.0 L 0.0 54.0 L 0.0 55.0 L 0.0 56.0 L 0.0 57.0 L 0.0 58.0 L 0.0 59.0 L 0.0 60.0 L 0.0 61.0 L 0.0 62.0 L 0.0 63.0 L 0.0 64.0 L 0.0 65.0 L 0.0 66.0 L 0.0 67.0 L 0.0 68.0 L 0.0 69.0 L 0.0 70.0 L 0.0 71.0 L 0.0 72.0 L 0.0 73.0 L 0.0 74.0 L 0.0 75.0 L 0.0 76.0 L 0.0 77.0 L 0.0 78.0 L 0.0 79.0 L 0.0 80.0 L 0.0 81.0 L 0.0 82.0 L 0.0 83.0 L 0.0 84.0 L 0.0 85.0 L 0.0 86.0 L 0.0 87.0 L 0.0 88.0 L 0.0 89.0 L 0.0 90.0 L 0.0 91.0 L 0.0 92.0 L 0.0 93.0 L 0.0 94.0 L 0.0 95.0 L 0.0 96.0 L 0.0 97.0 L 0.0 98.0 L 0.0 99.0 L 0.0 100.0 L 0.0 101.0 L 0.0 102.0 L 0.0 103.0 L 0.0 104.0 L 0.0 105.0 L 0.0 106.0 L 0.0 107.0 L 0.0 108.0 L 0.0 109.0 L 0.0 110.0 L 0.0 111.0 L 0.0 112.0 L 0.0 113.0 L 0.0 114.0 L 0.0 115.0 L 0.0 116.0 L 0.0 117.0 L 0.0 118.0 L 0.0 119.0 L 0.0 120.0 L 0.0 121.0 L 0.0 122.0 L 0.0 123.0 L 0.0 124.0 L 0.0 125.0 L 0.0 126.0 L 0.0 127.0 L 0.3333333333333333 127.66666666666667 L 1.0 128.0 L 2.0 128.0 L 3.0 128.0 L 4.0 128.0 L 5.0 128.0 L 6.0 128.0 L 7.0 128.0 L 8.0 128.0 L 9.0 128.0 L 10.0 128.0 L 11.0 128.0 L 12.0 128.0 L 12.666666666666666 127.66666666666667 L 12.666666666666666 127.33333333333333 L 12.0 127.0 L 11.0 126.66666666666667 L 10.0 126.33333333333333 L 9.0 125.66666666666667 L 8.0 125.0 L 7.0 124.33333333333333 L 6.0 123.66666666666667 L 5.333333333333333 123.0 L 4.666666666666667 122.0 L 4.0 121.0 L 3.0 120.0 L 2.3333333333333335 119.0 L 2.0 118.0 L 1.6666666666666667 117.0 L 1.3333333333333333 116.0 L 1.0 115.0 L 1.0 114.0 L 1.0 113.0 L 1.0 112.0 L 1.0 111.0 L 1.0 110.0 L 1.0 109.0 L 1.0 108.0 L 1.0 107.0 L 1.3333333333333333 106.0 L 1.6666666666666667 105.0 L 2.3333333333333335 104.0 L 2.6666666666666665 103.0 L 3.0 102.0 L 3.3333333333333335 101.0 L 4.0 100.0 L 4.666666666666667 99.0 L 5.333333333333333 98.0 L 6.0 97.0 L 7.0 96.0 L 7.666666666666667 95.0 L 8.333333333333334 94.0 L 9.0 93.0 L 10.0 92.0 L 10.666666666666666 91.0 L 11.333333333333334 90.0 L 12.0 89.0 L 13.0 88.0 L 13.666666666666666 87.0 L 14.333333333333334 86.0 L 15.0 85.0 L 16.0 84.0 L 17.0 83.0 L 17.666666666666668 82.0 L 18.333333333333332 81.0 L 19.0 80.0 L 20.0 79.0 L 20.5 78.5 Z" stroke="none" fill="rgb(255,255,255)" />
<path d="M 95.5 128.0 L 96.0 128.0 L 97.0 128.0 L 98.0 128.0 L 99.0 128.0 L 100.0 128.0 L 101.0 128.0 L 102.0 128.0 L 103.0 128.0 L 104.0 128.0 L 105.0 128.0 L 106.0 128.0 L 107.0 128.0 L 108.0 128.0 L 109.0 128.0 L 110.0 128.0 L 111.0 128.0 L 112.0 128.0 L 113.0 128.0 L 114.0 128.0 L 115.0 128.0 L 116.0 128.0 L 117.0 128.0 L 118.0 128.0 L 119.0 128.0 L 120.0 128.0 L 121.0 128.0 L 122.0 128.0 L 123.0 128.0 L 124.0 128.0 L 125.0 128.0 L 126.0 128.0 L 127.0 128.0 L 127.66666666666667 127.66666666666667 L 128.0 127.0 L 128.0 126.0 L 128.0 125.0 L 128.0 124.0 L 128.0 123.0 L 128.0 122.0 L 128.0 121.0 L 128.0 120.0 L 128.0 119.0 L 128.0 118.0 L 128.0 117.0 L 128.0 116.0 L 128.0 115.0 L 128.0 114.0 L 128.0 113.0 L 128.0 112.0 L 128.0 111.0 L 128.0 110.0 L 128.0 109.0 L 128.0 108.0 L 128.0 107.0 L 128.0 106.0 L 128.0 105.0 L 128.0 104.0 L 128.0 103.0 L 128.0 102.0 L 128.0 101.0 L 128.0 100.0 L 128.0 99.0 L 128.0 98.0 L 128.0 97.0 L 128.0 96.0 L 128.0 95.0 L 128.0 94.0 L 128.0 93.0 L 128.0 92.0 L 128.0 91.0 L 128.0 90.0 L 128.0 89.0 L 128.0 88.0 L 128.0 87.0 L 128.0 86.0 L 128.0 85.0 L 128.0 84.0 L 128.0 83.0 L 128.0 82.0 L 128.0 81.0 L 128.0 80.0 L 128.0 79.0 L 128.0 78.0 L 128.0 77.0 L 128.0 76.0 L 128.0 75.0 L 128.0 74.0 L 128.0 73.0 L 128.0 72.0 L 128.0 71.0 L 128.0 70.0 L 128.0 69.0 L 128.0 68.0 L 128.0 67.0 L 128.0 66.0 L 128.0 65.0 L 128.0 64.0 L 128.0 63.0 L 128.0 62.0 L 128.0 61.0 L 128.0 60.0 L 128.0 59.0 L 128.0 58.0 L 128.0 57.0 L 128.0 56.0 L 128.0 55.0 L 128.0 54.0 L 128.0 53.0 L 128.0 52.0 L 128.0 51.0 L 128.0 50.0 L 128.0 49.0 L 128.0 48.0 L 127.66666666666667 47.333333333333336 L 127.33333333333333 47.333333333333336 L 126.66666666666667 48.0 L 126.0 49.0 L 125.0 49.666666666666664 L 124.0 50.333333333333336 L 123.0 51.0 L 122.0 52.0 L 121.0 53.0 L 120.0 53.666666666666664 L 119.0 54.333333333333336 L 118.0 55.0 L 117.0 56.0 L 116.0 56.666666666666664 L 115.0 57.333333333333336 L 114.0 58.0 L 113.0 59.0 L 112.0 60.0 L 111.0 60.666666666666664 L 110.0 61.333333333333336 L 109.0 62.0 L 108.0 63.0 L 107.0 63.666666666666664 L 106.0 64.33333333333333 L 105.0 65.0 L 104.0 66.0 L 103.0 67.0 L 102.0 67.66666666666667 L 101.0 68.33333333333333 L 100.0 69.0 L 99.0 70.0 L 98.0 70.66666666666667 L 97.0 71.33333333333333 L 96.0 72.0 L 95.0 73.0 L 94.0 74.0 L 93.0 74.66666666666667 L 92.0 75.33333333333333 L 91.0 76.0 L 90.0 77.0 L 89.0 77.66666666666667 L 88.0 78.33333333333333 L 87.0 79.0 L 86.0 80.0 L 85.0 81.0 L 84.0 81.66666666666667 L 83.0 82.33333333333333 L 82.0 83.0 L 81.0 84.0 L 80.0 84.66666666666667 L 79.0 85.33333333333333 L 78.0 86.0 L 77.0 87.0 L 76.0 88.0 L 75.0 88.66666666666667 L 74.0 89.33333333333333 L 73.0 90.0 L 72.0 91.0 L 71.0 91.66666666666667 L 70.0 92.33333333333333 L 69.0 93.0 L 68.0 94.0 L 67.0 94.66666666666667 L 66.0 95.33333333333333 L 65.0 96.0 L 64.0 97.0 L 63.0 98.0 L 62.0 98.66666666666667 L 61.0 99.33333333333333 L 60.0 100.0 L 59.0 101.0 L 58.0 101.66666666666667 L 57.0 102.33333333333333 L 56.0 103.0 L 55.0 104.0 L 54.0 104.66666666666667 L 53.0 105.33333333333333 L 52.0 106.0 L 51.0 107.0 L 50.0 108.0 L 49.0 108.66666666666667 L 48.0 109.33333333333333 L 47.0 110.0 L 46.0 111.0 L 45.0 111.66666666666667 L 44.0 112.33333333333333 L 43.0 113.0 L 42.0 114.0 L 41.0 114.66666666666667 L 40.0 115.33333333333333 L 39.0 116.0 L 38.0 117.0 L 37.0 117.66666666666667 L 36.0 118.33333333333333 L 35.0 119.0 L 34.0 120.0 L 33.0 120.66666666666667 L 32.0 121.33333333333333 L 31.0 122.0 L 30.0 122.66666666666667 L 29.0 123.33333333333333 L 28.0 124.0 L 27.0 124.66666666666667 L 26.0 125.33333333333333 L 25.0 125.66666666666667 L 24.0 126.33333333333333 L 23.0 126.66666666666667 L 22.0 127.0 L 21.0 127.0 L 20.333333333333332 127.33333333333333 L 20.333333333333332 127.66666666666667 L 21.0 128.0 L 22.0 128.0 L 23.0 128.0 L 24.0 128.0 L 25.0 128.0 L 26.0 128.0 L 27.0 128.0 L 28.0 128.0 L 29.0 128.0 L 30.0 128.0 L 31.0 128.0 L 32.0 128.0 L 33.0 128.0 L 34.0 128.0 L 35.0 128.0 L 36.0 128.0 L 37.0 128.0 L 38.0 128.0 L 39.0 128.0 L 40.0 128.0 L 41.0 128.0 L 42.0 128.0 L 43.0 128.0 L 44.0 128.0 L 45.0 128.0 L 46.0 128.0 L 47.0 128.0 L 48.0 128.0 L 49.0 128.0 L 50.0 128.0 L 51.0 128.0 L 52.0 128.0 L 53.0 128.0 L 54.0 128.0 L 55.0 128.0 L 56.0 128.0 L 57.0 128.0 L 58.0 128.0 L 59.0 128.0 L 60.0 128.0 L 61.0 128.0 L 62.0 128.0 L 63.0 128.0 L 64.0 128.0 L 65.0 128.0 L 66.0 128.0 L 67.0 128.0 L 68.0 128.0 L 69.0 128.0 L 70.0 128.0 L 71.0 128.0 L 72.0 128.0 L 73.0 128.0 L 74.0 128.0 L 75.0 128.0 L 76.0 128.0 L 77.0 128.0 L 78.0 128.0 L 79.0 128.0 L 80.0 128.0 L 81.0 128.0 L 82.0 128.0 L 83.0 128.0 L 84.0 128.0 L 85.0 128.0 L 86.0 128.0 L 87.0 128.0 L 88.0 128.0 L 89.0 128.0 L 90.0 128.0 L 91.0 128.0 L 92.0 128.0 L 93.0 128.0 L 94.0 128.0 L 94.5 128.0 Z" stroke="none" fill="rgb(255,255,255)" />
<path d="M 88.5 27.5 L 89.0 28.0 L 90.0 29.0 L 91.0 30.0 L 92.0 31.0 L 93.0 32.0 L 94.0 33.0 L 95.0 34.0 L 96.0 35.0 L 97.0 36.0 L 98.0 37.0 L 99.0 38.0 L 100.0 38.666666666666664 L 101.0 39.333333333333336 L 101.66666666666667 40.0 L 102.33333333333333 41.0 L 103.0 42.0 L 104.0 43.0 L 105.0 44.0 L 106.0 44.666666666666664 L 107.0 45.0 L 107.66666666666667 44.666666666666664 L 108.33333333333333 44.0 L 108.66666666666667 43.0 L 109.33333333333333 42.0 L 110.0 41.0 L 111.0 40.333333333333336 L 112.0 40.333333333333336 L 113.0 41.0 L 114.0 42.0 L 115.0 43.0 L 116.0 44.0 L 116.66666666666667 45.0 L 117.33333333333333 46.0 L 118.0 47.0 L 119.0 48.0 L 120.0 49.0 L 121.0 50.0 L 122.0 50.666666666666664 L 123.0 51.0 L 124.0 50.666666666666664 L 125.0 50.333333333333336 L 125.66666666666667 49.666666666666664 L 126.0 49.0 L 125.66666666666667 48.0 L 125.0 47.0 L 124.0 46.0 L 123.0 45.0 L 122.0 44.0 L 121.0 43.0 L 120.0 42.0 L 119.0 41.0 L 118.0 40.0 L 117.0 39.0 L 116.0 38.0 L 115.0 37.0 L 114.0 36.0 L 113.0 35.333333333333336 L 112.0 35.0 L 111.33333333333333 35.333333333333336 L 110.66666666666667 36.0 L 110.33333333333333 37.0 L 109.66666666666667 38.0 L 109.0 38.333333333333336 L 108.0 38.0 L 107.0 37.0 L 106.0 36.0 L 105.0 35.0 L 104.0 34.0 L 103.0 33.0 L 102.0 32.0 L 101.0 31.0 L 100.0 30.0 L 99.0 29.0 L 98.0 28.0 L 97.0 27.0 L 96.0 26.0 L 95.0 25.0 L 94.0 24.0 L 93.0 23.0 L 92.33333333333333 22.0 L 92.33333333333333 21.0 L 93.0 20.333333333333332 L 94.0 20.0 L 95.0 20.0 L 95.66666666666667 19.666666666666668 L 96.0 19.0 L 95.66666666666667 18.0 L 95.0 17.0 L 94.0 16.0 L 93.0 15.0 L 92.0 14.0 L 91.0 13.0 L 90.0 12.0 L 89.0 11.0 L 88.0 10.0 L 87.0 9.0 L 86.0 8.0 L 85.0 7.0 L 84.0 6.0 L 83.0 5.0 L 82.0 4.333333333333333 L 81.0 4.0 L 80.0 4.333333333333333 L 79.33333333333333 5.0 L 79.0 6.0 L 79.33333333333333 7.0 L 80.0 8.0 L 81.0 9.0 L 82.0 10.0 L 83.0 11.0 L 84.0 12.0 L 85.0 13.0 L 86.0 14.0 L 87.0 15.0 L 88.0 16.0 L 89.0 17.0 L 90.0 18.0 L 90.33333333333333 19.0 L 90.0 20.0 L 89.0 21.0 L 88.0 22.0 L 87.0 23.0 L 86.33333333333333 24.0 L 86.33333333333333 25.0 L 87.0 26.0 L 87.5 26.5 Z" stroke="none" fill="rgb(213,238,250)" />
<path d="M 86.5 4.5 L 87.0 5.0 L 88.0 6.0 L 89.0 7.0 L 90.0 8.0 L 90.66666666666667 9.0 L 91.33333333333333 10.0 L 92.0 11.0 L 93.0 12.0 L 94.0 13.0 L 95.0 14.0 L 96.0 15.0 L 97.0 16.0 L 98.0 17.0 L 99.0 18.0 L 99.33333333333333 19.0 L 99.0 19.666666666666668 L 98.33333333333333 20.333333333333332 L 98.0 21.0 L 98.33333333333333 22.0 L 99.0 23.0 L 100.0 24.0 L 101.0 25.0 L 102.0 26.0 L 103.0 27.0 L 104.0 28.0 L 105.0 29.0 L 106.0 30.0 L 107.0 31.0 L 108.0 32.0 L 109.0 32.666666666666664 L 110.0 32.666666666666664 L 111.0 32.0 L 112.0 31.666666666666668 L 113.0 32.0 L 114.0 33.0 L 115.0 34.0 L 116.0 35.0 L 117.0 36.0 L 118.0 37.0 L 119.0 38.0 L 120.0 39.0 L 121.0 40.0 L 122.0 41.0 L 123.0 42.0 L 124.0 43.0 L 125.0 44.0 L 126.0 44.666666666666664 L 127.0 45.0 L 127.66666666666667 44.666666666666664 L 128.0 44.0 L 128.0 43.0 L 128.0 42.0 L 128.0 41.0 L 127.66666666666667 40.0 L 127.0 39.0 L 126.0 38.0 L 125.0 37.0 L 124.0 36.0 L 123.0 35.0 L 122.0 34.0 L 121.0 33.0 L 120.0 32.0 L 119.0 31.0 L 118.0 30.0 L 117.0 29.0 L 116.0 28.0 L 115.0 27.0 L 114.0 26.0 L 113.0 25.0 L 112.0 24.0 L 111.0 23.0 L 110.0 22.0 L 109.0 21.0 L 108.0 20.0 L 107.0 19.0 L 106.0 18.0 L 105.0 17.0 L 104.0 16.0 L 103.0 15.0 L 102.0 14.0 L 101.0 13.0 L 100.0 12.0 L 99.0 11.0 L 98.0 10.0 L 97.0 9.0 L 96.0 8.0 L 95.0 7.0 L 94.0 6.0 L 93.0 5.0 L 92.0 4.0 L 91.0 3.0 L 90.0 2.0 L 89.33333333333333 1.0 L 88.66666666666667 0.3333333333333333 L 88.0 0.0 L 87.0 0.0 L 86.0 0.3333333333333333 L 85.33333333333333 1.0 L 85.0 2.0 L 85.33333333333333 3.0 L 85.5 3.5 Z" stroke="none" fill="rgb(225,245,251)" />
<path d="M 101.5 32.5 L 102.0 33.0 L 103.0 34.0 L 104.0 35.0 L 105.0 35.666666666666664 L 106.0 36.333333333333336 L 106.66666666666667 37.0 L 107.33333333333333 38.0 L 108.0 38.666666666666664 L 109.0 39.0 L 109.66666666666667 38.666666666666664 L 110.33333333333333 38.0 L 110.66666666666667 37.0 L 111.33333333333333 36.0 L 112.0 35.666666666666664 L 113.0 36.0 L 114.0 37.0 L 115.0 38.0 L 116.0 39.0 L 117.0 40.0 L 118.0 41.0 L 119.0 42.0 L 120.0 43.0 L 121.0 44.0 L 122.0 45.0 L 123.0 46.0 L 124.0 47.0 L 125.0 47.666666666666664 L 126.0 48.0 L 127.0 47.666666666666664 L 127.66666666666667 47.0 L 128.0 46.0 L 127.66666666666667 45.333333333333336 L 127.0 44.666666666666664 L 126.0 44.0 L 125.0 43.0 L 124.0 42.0 L 123.0 41.0 L 122.0 40.0 L 121.0 39.0 L 120.0 38.0 L 119.0 37.0 L 118.0 36.0 L 117.0 35.0 L 116.0 34.0 L 115.0 33.0 L 114.0 32.0 L 113.0 31.333333333333332 L 112.0 31.0 L 111.0 31.333333333333332 L 110.0 31.666666666666668 L 109.0 31.666666666666668 L 108.0 31.0 L 107.0 30.0 L 106.0 29.0 L 105.0 28.0 L 104.0 27.0 L 103.0 26.0 L 102.0 25.0 L 101.0 24.0 L 100.0 23.0 L 99.0 22.0 L 98.66666666666667 21.0 L 99.0 20.333333333333332 L 99.66666666666667 19.666666666666668 L 100.0 19.0 L 99.66666666666667 18.0 L 99.0 17.0 L 98.0 16.0 L 97.0 15.0 L 96.0 14.0 L 95.0 13.0 L 94.0 12.0 L 93.0 11.0 L 92.0 10.0 L 91.33333333333333 9.0 L 90.66666666666667 8.0 L 90.0 7.0 L 89.0 6.0 L 88.0 5.0 L 87.0 4.0 L 86.0 3.0 L 85.0 2.0 L 84.0 1.3333333333333333 L 83.0 1.3333333333333333 L 82.0 2.0 L 81.33333333333333 3.0 L 81.33333333333333 4.0 L 82.0 5.0 L 83.0 6.0 L 84.0 7.0 L 85.0 8.0 L 86.0 9.0 L 87.0 10.0 L 88.0 11.0 L 89.0 12.0 L 90.0 13.0 L 91.0 14.0 L 92.0 15.0 L 93.0 16.0 L 94.0 17.0 L 95.0 18.0 L 95.33333333333333 19.0 L 95.0 19.666666666666668 L 94.0 20.0 L 93.0 20.0 L 92.0 20.333333333333332 L 91.33333333333333 21.0 L 91.33333333333333 22.0 L 92.0 23.0 L 93.0 24.0 L 94.0 25.0 L 95.0 26.0 L 96.0 27.0 L 97.0 28.0 L 98.0 29.0 L 99.0 30.0 L 100.0 31.0 L 100.5 31.5 Z" stroke="none" fill="rgb(219,241,250)" />
<path d="M 123.5 20.5 L 123.66666666666667 21.0 L 124.0 22.0 L 124.33333333333333 23.0 L 124.66666666666667 24.0 L 125.33333333333333 25.0 L 125.66666666666667 26.0 L 126.0 27.0 L 126.0 28.0 L 126.33333333333333 29.0 L 126.66666666666667 30.0 L 127.0 31.0 L 127.0 32.0 L 127.0 33.0 L 127.33333333333333 33.666666666666664 L 127.66666666666667 33.666666666666664 L 128.0 33.0 L 128.0 32.0 L 128.0 31.0 L 128.0 30.0 L 128.0 29.0 L 128.0 28.0 L 128.0 27.0 L 128.0 26.0 L 128.0 25.0 L 128.0 24.0 L 128.0 23.0 L 128.0 22.0 L 128.0 21.0 L 128.0 20.0 L 128.0 19.0 L 128.0 18.0 L 128.0 17.0 L 128.0 16.0 L 128.0 15.0 L 128.0 14.0 L 128.0 13.0 L 128.0 12.0 L 128.0 11.0 L 128.0 10.0 L 128.0 9.0 L 128.0 8.0 L 128.0 7.0 L 128.0 6.0 L 128.0 5.0 L 128.0 4.0 L 128.0 3.0 L 128.0 2.0 L 128.0 1.0 L 127.66666666666667 0.3333333333333333 L 127.0 0.0 L 126.0 0.0 L 125.0 0.0 L 124.0 0.0 L 123.0 0.0 L 122.0 0.0 L 121.0 0.0 L 120.0 0.0 L 119.0 0.0 L 118.0 0.0 L 117.0 0.0 L 116.0 0.0 L 115.0 0.0 L 114.0 0.0 L 113.0 0.0 L 112.0 0.0 L 111.0 0.0 L 110.0 0.0 L 109.0 0.0 L 108.0 0.0 L 107.0 0.0 L 106.0 0.0 L 105.0 0.0 L 104.0 0.0 L 103.0 0.0 L 102.0 0.0 L 101.0 0.0 L 100.0 0.0 L 99.0 0.0 L 98.0 0.0 L 97.0 0.0 L 96.0 0.0 L 95.0 0.0 L 94.33333333333333 0.3333333333333333 L 94.33333333333333 0.6666666666666666 L 95.0 1.0 L 96.0 1.0 L 97.0 1.0 L 98.0 1.0 L 99.0 1.0 L 100.0 1.3333333333333333 L 101.0 1.6666666666666667 L 102.0 2.0 L 103.0 2.3333333333333335 L 104.0 2.6666666666666665 L 105.0 3.3333333333333335 L 106.0 3.6666666666666665 L 107.0 4.333333333333333 L 108.0 4.666666666666667 L 109.0 5.333333333333333 L 110.0 5.666666666666667 L 111.0 6.333333333333333 L 112.0 7.0 L 113.0 8.0 L 114.0 9.0 L 115.0 10.0 L 116.0 11.0 L 117.0 12.0 L 118.0 13.0 L 119.0 14.0 L 119.66666666666667 15.0 L 120.33333333333333 16.0 L 121.0 17.0 L 121.66666666666667 18.0 L 122.33333333333333 19.0 L 122.5 19.5 Z" stroke="none" fill="rgb(255,255,255)" />
<path d="M 11.5 124.0 L 12.0 124.0 L 13.0 124.0 L 14.0 124.0 L 15.0 124.0 L 16.0 124.0 L 17.0 123.66666666666667 L 18.0 123.0 L 19.0 122.0 L 20.0 121.0 L 21.0 120.0 L 22.0 119.0 L 23.0 118.0 L 24.0 117.0 L 25.0 116.0 L 25.666666666666668 115.0 L 25.666666666666668 114.0 L 25.0 113.0 L 24.0 112.0 L 23.0 111.0 L 22.0 110.0 L 21.333333333333332 109.0 L 20.666666666666668 108.0 L 20.0 107.0 L 19.0 106.0 L 18.0 105.0 L 17.0 104.0 L 16.0 103.0 L 15.0 102.33333333333333 L 14.0 102.0 L 13.0 102.33333333333333 L 12.0 103.0 L 11.0 104.0 L 10.0 105.0 L 9.0 105.66666666666667 L 8.0 106.33333333333333 L 7.0 107.0 L 6.0 108.0 L 5.333333333333333 109.0 L 4.666666666666667 110.0 L 4.333333333333333 111.0 L 4.0 112.0 L 4.0 113.0 L 3.6666666666666665 114.0 L 3.3333333333333335 115.0 L 3.0 116.0 L 3.3333333333333335 117.0 L 3.6666666666666665 118.0 L 4.0 119.0 L 4.333333333333333 120.0 L 5.0 121.0 L 6.0 122.0 L 7.0 123.0 L 8.0 124.0 L 9.0 124.66666666666667 L 10.0 124.66666666666667 L 10.5 124.5 Z" stroke="none" fill="rgb(225,245,251)" />
<path d="M 59.5 78.5 L 59.666666666666664 78.0 L 60.0 77.0 L 60.333333333333336 76.0 L 61.0 75.0 L 62.0 74.0 L 63.0 73.0 L 64.0 72.0 L 65.0 71.0 L 65.66666666666667 70.0 L 66.33333333333333 69.0 L 67.0 68.0 L 68.0 67.0 L 69.0 66.0 L 70.0 65.33333333333333 L 70.66666666666667 64.66666666666667 L 70.66666666666667 64.0 L 70.66666666666667 63.0 L 71.0 62.333333333333336 L 71.66666666666667 61.666666666666664 L 72.0 61.0 L 72.33333333333333 60.0 L 72.66666666666667 59.0 L 73.0 58.0 L 73.0 57.0 L 72.66666666666667 56.0 L 72.0 55.333333333333336 L 71.0 55.333333333333336 L 70.0 56.0 L 69.0 56.666666666666664 L 68.0 57.333333333333336 L 67.0 58.0 L 66.0 58.666666666666664 L 65.0 59.0 L 64.0 59.333333333333336 L 63.0 60.0 L 62.0 61.0 L 61.0 62.0 L 60.0 62.666666666666664 L 59.0 63.333333333333336 L 58.0 64.0 L 57.0 65.0 L 56.0 65.66666666666667 L 55.0 66.33333333333333 L 54.0 67.0 L 53.0 68.0 L 52.0 68.66666666666667 L 51.0 69.33333333333333 L 50.0 70.0 L 49.0 71.0 L 48.0 72.0 L 47.0 73.0 L 46.333333333333336 74.0 L 46.333333333333336 75.0 L 46.666666666666664 76.0 L 47.333333333333336 77.0 L 48.0 78.0 L 49.0 79.0 L 50.0 80.0 L 51.0 81.0 L 52.0 82.0 L 53.0 82.66666666666667 L 54.0 83.0 L 55.0 82.66666666666667 L 56.0 82.0 L 57.0 81.0 L 58.0 80.0 L 58.5 79.5 Z" stroke="none" fill="rgb(194,225,248)" />
<path d="M 71.5 45.5 L 72.0 46.0 L 73.0 47.0 L 74.0 48.0 L 75.0 49.0 L 76.0 50.0 L 77.0 51.0 L 78.0 52.0 L 79.0 53.0 L 80.0 54.0 L 81.0 55.0 L 82.0 56.0 L 83.0 57.0 L 84.0 58.0 L 85.0 59.0 L 86.0 60.0 L 87.0 61.0 L 88.0 62.0 L 89.0 63.0 L 90.0 63.666666666666664 L 91.0 63.666666666666664 L 92.0 63.0 L 93.0 62.0 L 94.0 61.0 L 94.66666666666667 60.0 L 95.0 59.0 L 95.0 58.0 L 94.66666666666667 57.0 L 94.0 56.0 L 93.0 55.0 L 92.0 54.0 L 91.0 53.0 L 90.0 52.0 L 89.0 51.0 L 88.0 50.0 L 87.0 49.0 L 86.0 48.0 L 85.0 47.0 L 84.0 46.0 L 83.0 45.0 L 82.0 44.0 L 81.0 43.0 L 80.0 42.0 L 79.0 41.0 L 78.0 40.0 L 77.0 39.0 L 76.0 38.0 L 75.0 37.0 L 74.0 36.0 L 73.0 35.333333333333336 L 72.0 35.0 L 71.0 35.333333333333336 L 70.0 36.0 L 69.0 37.0 L 68.0 38.0 L 67.33333333333333 39.0 L 67.0 40.0 L 67.33333333333333 41.0 L 68.0 42.0 L 69.0 43.0 L 70.0 44.0 L 70.5 44.5 Z" stroke="none" fill="rgb(185,220,247)" />
<path d="M 98.5 11.5 L 99.0 12.0 L 100.0 13.0 L 101.0 14.0 L 102.0 15.0 L 103.0 16.0 L 104.0 17.0 L 105.0 18.0 L 106.0 19.0 L 107.0 20.0 L 108.0 21.0 L 109.0 22.0 L 110.0 23.0 L 111.0 24.0 L 112.0 25.0 L 113.0 26.0 L 114.0 27.0 L 115.0 28.0 L 116.0 29.0 L 117.0 30.0 L 118.0 31.0 L 119.0 32.0 L 120.0 33.0 L 121.0 34.0 L 122.0 35.0 L 123.0 36.0 L 124.0 37.0 L 125.0 38.0 L 126.0 39.0 L 127.0 39.666666666666664 L 127.66666666666667 39.666666666666664 L 128.0 39.0 L 128.0 38.0 L 128.0 37.0 L 128.0 36.0 L 128.0 35.0 L 127.66666666666667 34.0 L 127.0 33.0 L 126.0 32.0 L 125.0 31.0 L 124.0 30.0 L 123.0 29.0 L 122.0 28.0 L 121.0 27.0 L 120.0 26.0 L 119.0 25.0 L 118.0 24.0 L 117.0 23.0 L 116.0 22.0 L 115.0 21.0 L 114.0 20.0 L 113.0 19.0 L 112.0 18.0 L 111.0 17.0 L 110.0 16.0 L 109.0 15.0 L 108.0 14.0 L 107.0 13.0 L 106.0 12.0 L 105.0 11.0 L 104.0 10.0 L 103.0 9.0 L 102.0 8.0 L 101.0 7.0 L 100.0 6.0 L 99.0 5.0 L 98.0 4.0 L 97.0 3.0 L 96.0 2.0 L 95.0 1.0 L 94.0 0.3333333333333333 L 93.0 0.0 L 92.0 0.0 L 91.0 0.0 L 90.0 0.0 L 89.33333333333333 0.3333333333333333 L 89.0 1.0 L 89.33333333333333 2.0 L 90.0 3.0 L 91.0 4.0 L 92.0 5.0 L 93.0 6.0 L 94.0 7.0 L 95.0 8.0 L 96.0 9.0 L 97.0 10.0 L 97.5 10.5 Z" stroke="none" fill="rgb(233,247,252)" />
<path d="M 65.5 48.5 L 66.0 49.0 L 67.0 50.0 L 68.0 51.0 L 69.0 52.0 L 70.0 53.0 L 70.66666666666667 54.0 L 71.33333333333333 55.0 L 72.0 56.0 L 72.66666666666667 57.0 L 73.33333333333333 57.666666666666664 L 74.0 58.0 L 75.0 58.333333333333336 L 76.0 59.0 L 77.0 60.0 L 78.0 61.0 L 79.0 62.0 L 80.0 63.0 L 80.66666666666667 64.0 L 81.33333333333333 65.0 L 82.0 66.0 L 83.0 67.0 L 84.0 68.0 L 85.0 68.66666666666667 L 86.0 68.66666666666667 L 87.0 68.0 L 88.0 67.0 L 89.0 66.0 L 89.66666666666667 65.0 L 90.0 64.0 L 89.66666666666667 63.0 L 89.0 62.0 L 88.0 61.0 L 87.0 60.0 L 86.0 59.0 L 85.0 58.0 L 84.0 57.0 L 83.0 56.0 L 82.0 55.0 L 81.0 54.0 L 80.0 53.0 L 79.0 52.0 L 78.0 51.0 L 77.0 50.0 L 76.0 49.0 L 75.0 48.0 L 74.0 47.0 L 73.0 46.0 L 72.0 45.0 L 71.0 44.0 L 70.0 43.0 L 69.0 42.0 L 68.0 41.0 L 67.0 40.333333333333336 L 66.0 40.0 L 65.0 40.333333333333336 L 64.0 41.0 L 63.0 42.0 L 62.333333333333336 43.0 L 62.0 44.0 L 62.333333333333336 45.0 L 63.0 46.0 L 64.0 47.0 L 64.5 47.5 Z" stroke="none" fill="rgb(177,216,247)" />
<path d="M 91.5 54.5 L 92.0 55.0 L 93.0 56.0 L 94.0 57.0 L 95.0 57.666666666666664 L 96.0 58.0 L 97.0 57.666666666666664 L 98.0 57.0 L 98.66666666666667 56.0 L 99.33333333333333 55.0 L 99.66666666666667 54.0 L 99.66666666666667 53.0 L 99.0 52.0 L 98.0 51.0 L 97.33333333333333 50.0 L 96.66666666666667 49.0 L 96.0 48.0 L 95.0 47.0 L 94.0 46.0 L 93.0 45.0 L 92.0 44.0 L 91.0 43.0 L 90.0 42.0 L 89.0 41.0 L 88.0 40.0 L 87.0 39.0 L 86.0 38.0 L 85.0 37.0 L 84.0 36.0 L 83.0 35.0 L 82.0 34.0 L 81.0 33.0 L 80.0 32.0 L 79.0 31.0 L 78.0 30.333333333333332 L 77.0 30.333333333333332 L 76.0 31.0 L 75.0 32.0 L 74.0 33.0 L 73.33333333333333 34.0 L 73.0 35.0 L 73.33333333333333 36.0 L 74.0 37.0 L 75.0 38.0 L 76.0 39.0 L 77.0 40.0 L 78.0 41.0 L 79.0 42.0 L 80.0 43.0 L 81.0 44.0 L 82.0 45.0 L 83.0 46.0 L 84.0 47.0 L 85.0 48.0 L 86.0 49.0 L 87.0 50.0 L 88.0 51.0 L 89.0 52.0 L 90.0 53.0 L 90.5 53.5 Z" stroke="none" fill="rgb(194,225,248)" />
<path d="M 36.5 89.5 L 37.0 90.0 L 37.666666666666664 91.0 L 38.0 92.0 L 38.333333333333336 93.0 L 39.0 94.0 L 40.0 95.0 L 41.0 96.0 L 42.0 96.66666666666667 L 43.0 96.66666666666667 L 43.666666666666664 96.0 L 44.333333333333336 95.0 L 45.0 94.0 L 46.0 93.0 L 47.0 92.0 L 48.0 91.0 L 49.0 90.0 L 50.0 89.0 L 51.0 88.0 L 51.666666666666664 87.0 L 52.0 86.0 L 52.333333333333336 85.0 L 52.666666666666664 84.0 L 53.0 83.0 L 52.666666666666664 82.0 L 52.0 81.0 L 51.0 80.0 L 50.0 79.0 L 49.0 78.0 L 48.0 77.0 L 47.333333333333336 76.0 L 46.666666666666664 75.33333333333333 L 46.0 75.0 L 45.0 75.33333333333333 L 44.0 75.66666666666667 L 43.0 76.0 L 42.0 76.33333333333333 L 41.0 77.0 L 40.0 78.0 L 39.0 79.0 L 38.0 80.0 L 37.0 81.0 L 36.0 82.0 L 35.0 83.0 L 34.333333333333336 84.0 L 34.0 85.0 L 34.0 86.0 L 34.333333333333336 86.66666666666667 L 35.0 87.33333333333333 L 35.666666666666664 88.0 L 36.0 88.5 Z" stroke="none" fill="rgb(201,229,249)" />
<path d="M 123.5 30.5 L 124.0 31.0 L 125.0 32.0 L 126.0 32.666666666666664 L 126.66666666666667 32.666666666666664 L 127.0 32.0 L 127.0 31.0 L 127.0 30.0 L 126.66666666666667 29.0 L 126.33333333333333 28.0 L 126.0 27.0 L 126.0 26.0 L 125.66666666666667 25.0 L 125.0 24.333333333333332 L 124.0 23.666666666666668 L 123.0 23.0 L 122.0 22.0 L 121.0 21.0 L 120.0 20.0 L 119.0 19.0 L 118.0 18.0 L 117.0 17.0 L 116.0 16.0 L 115.0 15.0 L 114.0 14.0 L 113.0 13.0 L 112.0 12.0 L 111.0 11.0 L 110.33333333333333 10.0 L 109.66666666666667 9.0 L 109.0 8.0 L 108.0 7.0 L 107.0 6.0 L 106.0 5.0 L 105.0 4.0 L 104.0 3.0 L 103.0 2.3333333333333335 L 102.0 1.6666666666666667 L 101.0 1.3333333333333333 L 100.0 1.0 L 99.0 1.0 L 98.0 1.0 L 97.0 1.0 L 96.33333333333333 1.3333333333333333 L 96.0 2.0 L 96.33333333333333 3.0 L 97.0 4.0 L 98.0 5.0 L 99.0 6.0 L 100.0 7.0 L 101.0 8.0 L 102.0 9.0 L 103.0 10.0 L 104.0 11.0 L 105.0 12.0 L 106.0 13.0 L 107.0 14.0 L 108.0 15.0 L 109.0 16.0 L 110.0 17.0 L 111.0 18.0 L 112.0 19.0 L 113.0 20.0 L 114.0 21.0 L 115.0 22.0 L 116.0 23.0 L 117.0 24.0 L 118.0 25.0 L 119.0 26.0 L 120.0 27.0 L 121.0 28.0 L 122.0 29.0 L 122.5 29.5 Z" stroke="none" fill="rgb(242,251,253)" />
<path d="M 91.5 44.5 L 92.0 45.0 L 93.0 46.0 L 94.0 47.0 L 95.0 48.0 L 96.0 49.0 L 96.66666666666667 50.0 L 97.33333333333333 51.0 L 98.0 52.0 L 99.0 52.666666666666664 L 100.0 53.0 L 101.0 52.666666666666664 L 102.0 52.0 L 102.66666666666667 51.0 L 103.33333333333333 50.0 L 103.66666666666667 49.0 L 103.66666666666667 48.0 L 103.0 47.0 L 102.0 46.0 L 101.0 45.0 L 100.0 44.0 L 99.0 43.0 L 98.0 42.0 L 97.0 41.0 L 96.0 40.0 L 95.0 39.0 L 94.0 38.0 L 93.0 37.333333333333336 L 92.0 37.0 L 91.0 36.666666666666664 L 90.33333333333333 36.0 L 90.0 35.0 L 89.66666666666667 34.0 L 89.0 33.0 L 88.0 32.0 L 87.0 31.0 L 86.0 30.0 L 85.0 29.0 L 84.0 28.0 L 83.0 27.333333333333332 L 82.0 27.0 L 81.0 27.333333333333332 L 80.0 28.0 L 79.0 29.0 L 78.33333333333333 30.0 L 78.33333333333333 31.0 L 79.0 32.0 L 80.0 33.0 L 81.0 34.0 L 82.0 35.0 L 83.0 36.0 L 84.0 37.0 L 85.0 38.0 L 86.0 39.0 L 87.0 40.0 L 88.0 41.0 L 89.0 42.0 L 90.0 43.0 L 90.5 43.5 Z" stroke="none" fill="rgb(201,229,249)" />
<path d="M 24.5 113.5 L 25.0 113.66666666666667 L 26.0 114.0 L 27.0 113.66666666666667 L 28.0 113.0 L 29.0 112.33333333333333 L 30.0 112.0 L 31.0 112.0 L 32.0 112.0 L 32.666666666666664 111.66666666666667 L 33.0 111.0 L 32.666666666666664 110.0 L 32.0 109.0 L 31.0 108.0 L 30.0 107.0 L 29.0 106.0 L 28.0 105.0 L 27.0 104.0 L 26.333333333333332 103.0 L 25.666666666666668 102.0 L 25.0 101.0 L 24.0 100.0 L 23.0 99.0 L 22.0 98.0 L 21.0 97.33333333333333 L 20.0 97.0 L 19.0 97.33333333333333 L 18.0 98.0 L 17.0 98.66666666666667 L 16.0 99.33333333333333 L 15.0 100.0 L 14.333333333333334 101.0 L 14.333333333333334 102.0 L 15.0 103.0 L 16.0 104.0 L 17.0 105.0 L 18.0 106.0 L 19.0 107.0 L 20.0 108.0 L 20.666666666666668 109.0 L 21.333333333333332 110.0 L 22.0 111.0 L 23.0 112.0 L 23.5 112.5 Z" stroke="none" fill="rgb(219,241,250)" />
<path d="M 91.5 35.5 L 91.66666666666667 36.0 L 92.33333333333333 37.0 L 93.0 38.0 L 94.0 39.0 L 95.0 40.0 L 96.0 41.0 L 97.0 42.0 L 98.0 43.0 L 99.0 44.0 L 100.0 45.0 L 101.0 46.0 L 102.0 47.0 L 103.0 47.666666666666664 L 104.0 48.0 L 105.0 47.666666666666664 L 106.0 47.0 L 106.66666666666667 46.0 L 106.66666666666667 45.0 L 106.0 44.0 L 105.0 43.0 L 104.0 42.0 L 103.0 41.0 L 102.33333333333333 40.0 L 101.66666666666667 39.333333333333336 L 101.0 38.666666666666664 L 100.0 38.0 L 99.0 37.0 L 98.0 36.0 L 97.0 35.0 L 96.0 34.0 L 95.0 33.0 L 94.0 32.0 L 93.0 31.0 L 92.0 30.0 L 91.0 29.0 L 90.0 28.0 L 89.0 27.0 L 88.0 26.0 L 87.0 25.0 L 86.0 24.333333333333332 L 85.0 24.333333333333332 L 84.0 25.0 L 83.33333333333333 26.0 L 83.0 27.0 L 83.33333333333333 28.0 L 84.0 29.0 L 85.0 30.0 L 86.0 31.0 L 87.0 32.0 L 88.0 33.0 L 89.0 34.0 L 90.0 34.666666666666664 L 90.5 35.0 Z" stroke="none" fill="rgb(207,235,249)" />
<path d="M 43.5 107.5 L 44.0 107.0 L 45.0 106.33333333333333 L 46.0 105.66666666666667 L 47.0 105.0 L 48.0 104.0 L 49.0 103.0 L 49.666666666666664 102.0 L 49.666666666666664 101.0 L 49.0 100.0 L 48.0 99.33333333333333 L 47.0 98.66666666666667 L 46.0 98.0 L 45.0 97.0 L 44.0 96.33333333333333 L 43.0 96.33333333333333 L 42.0 97.0 L 41.0 98.0 L 40.0 99.0 L 39.0 100.0 L 38.0 101.0 L 37.0 101.66666666666667 L 36.333333333333336 102.33333333333333 L 35.666666666666664 103.0 L 35.0 104.0 L 34.0 105.0 L 33.0 106.0 L 32.333333333333336 107.0 L 32.0 108.0 L 32.0 109.0 L 32.333333333333336 110.0 L 33.0 110.66666666666667 L 34.0 111.33333333333333 L 35.0 112.0 L 36.0 112.66666666666667 L 37.0 113.0 L 38.0 112.66666666666667 L 39.0 112.0 L 40.0 111.0 L 41.0 110.0 L 42.0 109.0 L 42.5 108.5 Z" stroke="none" fill="rgb(129,180,243)" />
<path d="M 36.0 113.5 L 36.0 113.0 L 35.666666666666664 112.0 L 35.0 111.33333333333333 L 34.0 111.0 L 33.0 111.33333333333333 L 32.0 111.66666666666667 L 31.0 112.0 L 30.0 112.0 L 29.0 112.0 L 28.0 112.33333333333333 L 27.0 113.0 L 26.0 114.0 L 25.0 115.0 L 24.0 116.0 L 23.0 117.0 L 22.0 118.0 L 21.0 119.0 L 20.0 120.0 L 19.0 121.0 L 18.0 122.0 L 17.0 123.0 L 16.0 123.66666666666667 L 15.0 124.0 L 14.0 124.0 L 13.0 124.0 L 12.0 124.0 L 11.0 124.0 L 10.333333333333334 124.33333333333333 L 10.0 125.0 L 10.333333333333334 125.66666666666667 L 11.0 126.33333333333333 L 12.0 126.66666666666667 L 13.0 127.0 L 14.0 127.0 L 15.0 127.0 L 16.0 127.0 L 17.0 127.0 L 18.0 127.0 L 19.0 126.66666666666667 L 20.0 126.33333333333333 L 21.0 125.66666666666667 L 22.0 125.0 L 23.0 124.33333333333333 L 24.0 123.66666666666667 L 25.0 123.0 L 26.0 122.0 L 27.0 121.33333333333333 L 28.0 120.66666666666667 L 29.0 120.0 L 30.0 119.0 L 31.0 118.0 L 32.0 117.33333333333333 L 33.0 116.66666666666667 L 34.0 116.0 L 35.0 115.0 L 35.5 114.5 Z" stroke="none" fill="rgb(122,169,243)" />
<path d="M 24.5 101.5 L 25.0 102.0 L 25.666666666666668 103.0 L 26.333333333333332 104.0 L 27.0 105.0 L 28.0 106.0 L 29.0 107.0 L 30.0 108.0 L 31.0 108.66666666666667 L 31.666666666666668 108.66666666666667 L 32.333333333333336 108.0 L 33.0 107.0 L 34.0 106.0 L 35.0 105.0 L 35.666666666666664 104.0 L 36.0 103.0 L 36.0 102.0 L 36.0 101.0 L 35.666666666666664 100.0 L 35.0 99.0 L 34.0 98.33333333333333 L 33.0 98.0 L 32.0 98.33333333333333 L 31.0 98.66666666666667 L 30.0 98.66666666666667 L 29.333333333333332 98.0 L 29.333333333333332 97.0 L 30.0 96.33333333333333 L 30.666666666666668 95.66666666666667 L 30.666666666666668 95.0 L 30.0 94.0 L 29.0 93.0 L 28.0 92.0 L 27.0 91.33333333333333 L 26.0 91.33333333333333 L 25.0 91.66666666666667 L 24.0 92.33333333333333 L 23.0 93.0 L 22.0 94.0 L 21.0 95.0 L 20.333333333333332 96.0 L 20.333333333333332 97.0 L 21.0 98.0 L 22.0 99.0 L 23.0 100.0 L 23.5 100.5 Z" stroke="none" fill="rgb(213,238,250)" />
<path d="M 68.5 84.0 L 69.0 84.0 L 70.0 84.0 L 71.0 83.66666666666667 L 72.0 83.0 L 73.0 82.0 L 74.0 81.0 L 75.0 80.0 L 75.66666666666667 79.0 L 75.66666666666667 78.0 L 75.0 77.0 L 74.0 76.0 L 73.0 75.0 L 72.0 74.0 L 71.0 73.0 L 70.0 72.0 L 69.0 71.0 L 68.0 70.0 L 67.0 69.33333333333333 L 66.0 69.33333333333333 L 65.0 70.0 L 64.0 71.0 L 63.0 72.0 L 62.0 73.0 L 61.0 74.0 L 60.333333333333336 75.0 L 60.0 76.0 L 60.0 77.0 L 60.333333333333336 78.0 L 61.0 79.0 L 62.0 80.0 L 63.0 81.0 L 64.0 82.0 L 65.0 82.66666666666667 L 66.0 83.0 L 67.0 83.33333333333333 L 67.5 83.5 Z" stroke="none" fill="rgb(155,202,245)" />
<path d="M 33.5 85.0 L 34.0 84.66666666666667 L 35.0 84.0 L 36.0 83.0 L 37.0 82.0 L 38.0 81.0 L 39.0 80.0 L 40.0 79.0 L 40.666666666666664 78.0 L 41.0 77.0 L 40.666666666666664 76.0 L 40.333333333333336 75.0 L 40.0 74.0 L 40.0 73.0 L 39.666666666666664 72.0 L 39.0 71.0 L 38.0 70.0 L 37.0 69.33333333333333 L 36.0 69.0 L 35.0 69.33333333333333 L 34.0 70.0 L 33.0 71.0 L 32.0 72.0 L 31.0 73.0 L 30.0 74.0 L 29.0 75.0 L 28.0 76.0 L 27.0 77.0 L 26.333333333333332 78.0 L 26.333333333333332 79.0 L 27.0 80.0 L 28.0 81.0 L 29.0 82.0 L 30.0 83.0 L 31.0 84.0 L 32.0 84.66666666666667 L 32.5 85.0 Z" stroke="none" fill="rgb(138,188,243)" />
<path d="M 24.5 92.5 L 25.0 92.33333333333333 L 26.0 91.66666666666667 L 27.0 91.0 L 28.0 90.0 L 28.666666666666668 89.0 L 29.0 88.0 L 29.333333333333332 87.0 L 30.0 86.33333333333333 L 31.0 86.0 L 31.666666666666668 85.66666666666667 L 32.0 85.0 L 31.666666666666668 84.0 L 31.0 83.0 L 30.0 82.0 L 29.0 81.0 L 28.0 80.0 L 27.0 79.33333333333333 L 26.0 79.33333333333333 L 25.0 80.0 L 24.0 81.0 L 23.0 82.0 L 22.0 83.0 L 21.0 84.0 L 20.0 85.0 L 19.333333333333332 86.0 L 18.666666666666668 87.0 L 18.0 88.0 L 17.0 89.0 L 16.333333333333332 90.0 L 16.0 91.0 L 16.0 92.0 L 16.333333333333332 93.0 L 17.0 94.0 L 18.0 95.0 L 19.0 95.66666666666667 L 20.0 96.0 L 21.0 95.66666666666667 L 22.0 95.0 L 23.0 94.0 L 23.5 93.5 Z" stroke="none" fill="rgb(129,180,243)" />
<path d="M 72.5 18.5 L 73.0 19.0 L 74.0 20.0 L 75.0 21.0 L 76.0 22.0 L 77.0 23.0 L 78.0 24.0 L 79.0 25.0 L 80.0 26.0 L 81.0 26.666666666666668 L 82.0 27.0 L 83.0 26.666666666666668 L 84.0 26.0 L 85.0 25.0 L 86.0 24.333333333333332 L 86.66666666666667 23.666666666666668 L 87.0 23.0 L 87.0 22.0 L 86.66666666666667 21.0 L 86.0 20.0 L 85.0 19.0 L 84.0 18.0 L 83.0 17.0 L 82.0 16.0 L 81.0 15.0 L 80.0 14.0 L 79.0 13.0 L 78.0 12.0 L 77.0 11.0 L 76.0 10.333333333333334 L 75.0 10.333333333333334 L 74.33333333333333 11.0 L 73.66666666666667 12.0 L 73.0 13.0 L 72.0 14.0 L 71.33333333333333 15.0 L 71.0 16.0 L 71.33333333333333 17.0 L 71.5 17.5 Z" stroke="none" fill="rgb(193,234,247)" />
<path d="M 40.5 99.5 L 41.0 99.0 L 41.666666666666664 98.0 L 42.0 97.0 L 41.666666666666664 96.0 L 41.0 95.0 L 40.0 94.0 L 39.333333333333336 93.0 L 39.0 92.0 L 38.666666666666664 91.0 L 38.0 90.0 L 37.0 89.0 L 36.333333333333336 88.0 L 35.666666666666664 87.33333333333333 L 35.0 86.66666666666667 L 34.333333333333336 86.0 L 33.666666666666664 85.33333333333333 L 33.0 85.0 L 32.0 85.33333333333333 L 31.333333333333332 86.0 L 30.666666666666668 87.0 L 30.0 87.66666666666667 L 29.0 88.33333333333333 L 28.0 89.0 L 27.333333333333332 90.0 L 27.0 91.0 L 27.333333333333332 92.0 L 28.0 93.0 L 29.0 94.0 L 30.0 95.0 L 30.666666666666668 96.0 L 31.333333333333332 97.0 L 32.0 97.66666666666667 L 33.0 98.33333333333333 L 34.0 99.0 L 35.0 100.0 L 35.666666666666664 101.0 L 36.333333333333336 101.66666666666667 L 37.0 102.0 L 38.0 101.66666666666667 L 39.0 101.0 L 39.5 100.5 Z" stroke="none" fill="rgb(207,235,249)" />
<path d="M 42.5 75.5 L 43.0 75.66666666666667 L 44.0 76.0 L 45.0 75.66666666666667 L 46.0 75.0 L 47.0 74.0 L 48.0 73.0 L 49.0 72.0 L 50.0 71.0 L 51.0 70.0 L 51.666666666666664 69.0 L 51.666666666666664 68.0 L 51.0 67.0 L 50.0 66.0 L 49.0 65.0 L 48.0 64.33333333333333 L 47.0 63.666666666666664 L 46.333333333333336 63.0 L 45.666666666666664 62.0 L 45.0 61.0 L 44.0 60.333333333333336 L 43.0 60.333333333333336 L 42.0 61.0 L 41.0 62.0 L 40.0 63.0 L 39.333333333333336 64.0 L 39.0 65.0 L 39.0 66.0 L 38.666666666666664 67.0 L 38.0 67.66666666666667 L 37.333333333333336 68.33333333333333 L 37.0 69.0 L 37.333333333333336 70.0 L 38.0 71.0 L 39.0 72.0 L 40.0 73.0 L 41.0 74.0 L 41.5 74.5 Z" stroke="none" fill="rgb(147,196,244)" />
<path d="M 59.5 93.0 L 60.0 92.66666666666667 L 61.0 92.0 L 62.0 91.33333333333333 L 63.0 90.66666666666667 L 64.0 90.0 L 65.0 89.0 L 66.0 88.0 L 66.66666666666667 87.0 L 67.0 86.0 L 66.66666666666667 85.0 L 66.33333333333333 84.0 L 65.66666666666667 83.0 L 65.0 82.0 L 64.0 81.0 L 63.0 80.0 L 62.0 79.0 L 61.0 78.33333333333333 L 60.0 78.0 L 59.0 78.33333333333333 L 58.0 79.0 L 57.0 80.0 L 56.0 81.0 L 55.0 82.0 L 54.0 82.66666666666667 L 53.0 83.33333333333333 L 52.333333333333336 84.0 L 52.0 85.0 L 52.333333333333336 86.0 L 53.0 87.0 L 54.0 88.0 L 55.0 89.0 L 56.0 90.0 L 57.0 91.0 L 58.0 92.0 L 58.5 92.5 Z" stroke="none" fill="rgb(147,196,244)" />
<path d="M 58.5 94.5 L 58.666666666666664 94.0 L 59.0 93.0 L 58.666666666666664 92.0 L 58.0 91.0 L 57.0 90.0 L 56.0 89.0 L 55.0 88.0 L 54.0 87.0 L 53.0 86.33333333333333 L 52.0 86.33333333333333 L 51.0 87.0 L 50.0 88.0 L 49.0 89.0 L 48.0 90.0 L 47.0 91.0 L 46.0 92.0 L 45.0 93.0 L 44.333333333333336 94.0 L 44.0 95.0 L 44.0 96.0 L 44.333333333333336 97.0 L 45.0 98.0 L 46.0 98.66666666666667 L 47.0 99.33333333333333 L 48.0 100.0 L 49.0 100.66666666666667 L 50.0 101.0 L 51.0 100.66666666666667 L 52.0 100.0 L 53.0 99.33333333333333 L 54.0 98.66666666666667 L 55.0 98.0 L 56.0 97.0 L 57.0 96.0 L 57.5 95.5 Z" stroke="none" fill="rgb(138,188,243)" />
<path d="M 56.5 66.0 L 57.0 65.66666666666667 L 58.0 65.0 L 58.666666666666664 64.0 L 59.0 63.0 L 59.0 62.0 L 58.666666666666664 61.0 L 58.0 60.0 L 57.0 59.0 L 56.0 58.0 L 55.0 57.333333333333336 L 54.0 57.0 L 53.0 56.666666666666664 L 52.333333333333336 56.0 L 52.0 55.0 L 51.666666666666664 54.333333333333336 L 51.0 54.0 L 50.0 54.0 L 49.0 54.333333333333336 L 48.0 55.0 L 47.0 56.0 L 46.0 57.0 L 45.0 58.0 L 44.333333333333336 59.0 L 44.0 60.0 L 44.333333333333336 61.0 L 45.0 62.0 L 46.0 63.0 L 47.0 64.0 L 48.0 65.0 L 49.0 66.0 L 50.0 67.0 L 51.0 68.0 L 52.0 68.66666666666667 L 53.0 68.66666666666667 L 54.0 68.0 L 55.0 67.0 L 55.5 66.5 Z" stroke="none" fill="rgb(155,202,245)" />
<path d="M 17.5 99.0 L 18.0 98.66666666666667 L 19.0 98.0 L 19.666666666666668 97.0 L 19.666666666666668 96.0 L 19.0 95.0 L 18.0 94.0 L 17.0 93.0 L 16.0 92.33333333333333 L 15.0 92.33333333333333 L 14.0 93.0 L 13.0 94.0 L 12.0 95.0 L 11.0 96.0 L 10.0 97.0 L 9.333333333333334 98.0 L 8.666666666666666 99.0 L 8.0 100.0 L 7.0 101.0 L 6.333333333333333 102.0 L 5.666666666666667 103.0 L 5.0 104.0 L 4.333333333333333 105.0 L 3.6666666666666665 106.0 L 3.3333333333333335 107.0 L 3.0 108.0 L 3.0 109.0 L 2.6666666666666665 110.0 L 2.3333333333333335 111.0 L 2.0 112.0 L 2.0 113.0 L 2.0 114.0 L 2.3333333333333335 114.66666666666667 L 3.0 115.0 L 3.6666666666666665 114.66666666666667 L 4.0 114.0 L 4.0 113.0 L 4.333333333333333 112.0 L 4.666666666666667 111.0 L 5.333333333333333 110.0 L 6.0 109.0 L 7.0 108.0 L 8.0 107.0 L 9.0 106.33333333333333 L 10.0 105.66666666666667 L 11.0 105.0 L 12.0 104.0 L 13.0 103.0 L 14.0 102.0 L 15.0 101.0 L 16.0 100.0 L 16.5 99.5 Z" stroke="none" fill="rgb(122,169,243)" />
<path d="M 2.5 111.5 L 2.6666666666666665 111.0 L 3.0 110.0 L 3.0 109.0 L 3.3333333333333335 108.0 L 3.6666666666666665 107.0 L 4.333333333333333 106.0 L 5.0 105.0 L 5.666666666666667 104.0 L 6.333333333333333 103.0 L 7.0 102.0 L 8.0 101.0 L 8.666666666666666 100.0 L 9.333333333333334 99.0 L 10.0 98.0 L 11.0 97.0 L 12.0 96.0 L 13.0 95.0 L 14.0 94.0 L 15.0 93.0 L 15.666666666666666 92.0 L 16.333333333333332 91.0 L 16.666666666666668 90.0 L 17.0 89.0 L 17.0 88.0 L 16.666666666666668 87.0 L 16.0 86.33333333333333 L 15.0 86.0 L 14.0 86.33333333333333 L 13.0 87.0 L 12.0 88.0 L 11.333333333333334 89.0 L 10.666666666666666 90.0 L 10.0 91.0 L 9.0 92.0 L 8.333333333333334 93.0 L 7.666666666666667 94.0 L 7.0 95.0 L 6.0 96.0 L 5.333333333333333 97.0 L 4.666666666666667 98.0 L 4.0 99.0 L 3.3333333333333335 100.0 L 3.0 101.0 L 2.6666666666666665 102.0 L 2.3333333333333335 103.0 L 1.6666666666666667 104.0 L 1.3333333333333333 105.0 L 1.0 106.0 L 1.0 107.0 L 1.0 108.0 L 1.0 109.0 L 1.0 110.0 L 1.0 111.0 L 1.3333333333333333 111.66666666666667 L 1.5 112.0 Z" stroke="none" fill="rgb(67,193,231)" />
<path d="M 105.5 52.5 L 106.0 53.0 L 107.0 54.0 L 108.0 55.0 L 109.0 56.0 L 110.0 57.0 L 111.0 58.0 L 112.0 58.666666666666664 L 113.0 59.0 L 114.0 58.666666666666664 L 115.0 58.0 L 116.0 57.333333333333336 L 117.0 56.666666666666664 L 118.0 56.0 L 118.66666666666667 55.0 L 118.66666666666667 54.0 L 118.0 53.0 L 117.0 52.0 L 116.0 51.0 L 115.0 50.0 L 114.0 49.0 L 113.0 48.0 L 112.0 47.0 L 111.0 46.0 L 110.0 45.0 L 109.0 44.333333333333336 L 108.0 44.333333333333336 L 107.0 45.0 L 106.0 46.0 L 105.0 47.0 L 104.0 48.0 L 103.33333333333333 49.0 L 103.33333333333333 50.0 L 104.0 51.0 L 104.5 51.5 Z" stroke="none" fill="rgb(193,234,247)" />
<path d="M 41.5 115.0 L 42.0 114.66666666666667 L 42.666666666666664 114.0 L 42.666666666666664 113.0 L 42.0 112.0 L 41.0 111.33333333333333 L 40.0 111.0 L 39.0 111.33333333333333 L 38.0 112.0 L 37.0 112.66666666666667 L 36.0 113.33333333333333 L 35.0 114.0 L 34.0 115.0 L 33.0 116.0 L 32.0 116.66666666666667 L 31.0 117.33333333333333 L 30.0 118.0 L 29.0 119.0 L 28.0 120.0 L 27.0 120.66666666666667 L 26.0 121.33333333333333 L 25.0 122.0 L 24.0 123.0 L 23.0 123.66666666666667 L 22.0 124.33333333333333 L 21.0 125.0 L 20.0 125.66666666666667 L 19.0 126.33333333333333 L 18.0 126.66666666666667 L 17.0 127.0 L 16.0 127.0 L 15.0 127.0 L 14.0 127.0 L 13.333333333333334 127.33333333333333 L 13.333333333333334 127.66666666666667 L 14.0 128.0 L 15.0 128.0 L 16.0 128.0 L 17.0 128.0 L 18.0 128.0 L 19.0 128.0 L 20.0 127.66666666666667 L 21.0 127.33333333333333 L 22.0 127.0 L 23.0 127.0 L 24.0 126.66666666666667 L 25.0 126.33333333333333 L 26.0 125.66666666666667 L 27.0 125.33333333333333 L 28.0 124.66666666666667 L 29.0 124.0 L 30.0 123.33333333333333 L 31.0 122.66666666666667 L 32.0 122.0 L 33.0 121.33333333333333 L 34.0 120.66666666666667 L 35.0 120.0 L 36.0 119.0 L 37.0 118.33333333333333 L 38.0 117.66666666666667 L 39.0 117.0 L 40.0 116.0 L 40.5 115.5 Z" stroke="none" fill="rgb(67,193,231)" />
<path d="M 69.5 57.0 L 70.0 56.666666666666664 L 70.66666666666667 56.0 L 71.0 55.0 L 71.0 54.0 L 70.66666666666667 53.0 L 70.0 52.0 L 69.0 51.0 L 68.0 50.0 L 67.0 49.0 L 66.0 48.0 L 65.0 47.0 L 64.0 46.0 L 63.0 45.0 L 62.0 44.333333333333336 L 61.0 44.0 L 60.0 44.333333333333336 L 59.0 45.0 L 58.0 46.0 L 57.333333333333336 47.0 L 57.0 48.0 L 57.0 49.0 L 57.333333333333336 50.0 L 58.0 51.0 L 59.0 52.0 L 60.0 53.0 L 61.0 54.0 L 62.0 55.0 L 63.0 56.0 L 63.666666666666664 57.0 L 64.0 58.0 L 64.33333333333333 58.666666666666664 L 65.0 59.0 L 66.0 59.0 L 67.0 58.666666666666664 L 68.0 58.0 L 68.5 57.5 Z" stroke="none" fill="rgb(171,212,246)" />
<path d="M 72.5 65.5 L 73.0 66.0 L 74.0 67.0 L 75.0 68.0 L 76.0 69.0 L 77.0 70.0 L 78.0 71.0 L 79.0 72.0 L 80.0 72.66666666666667 L 81.0 73.0 L 82.0 72.66666666666667 L 83.0 72.33333333333333 L 84.0 71.66666666666667 L 84.66666666666667 71.0 L 85.0 70.0 L 85.0 69.0 L 84.66666666666667 68.0 L 84.0 67.0 L 83.0 66.0 L 82.0 65.0 L 81.33333333333333 64.0 L 80.66666666666667 63.0 L 80.0 62.0 L 79.0 61.0 L 78.0 60.0 L 77.0 59.0 L 76.0 58.0 L 75.0 57.333333333333336 L 74.0 57.333333333333336 L 73.0 58.0 L 72.33333333333333 59.0 L 72.0 60.0 L 72.0 61.0 L 72.0 62.0 L 72.0 63.0 L 72.0 64.0 L 72.0 64.5 Z" stroke="none" fill="rgb(171,212,246)" />
<path d="M 72.5 28.5 L 73.0 29.0 L 74.0 30.0 L 74.66666666666667 31.0 L 75.33333333333333 31.666666666666668 L 76.0 31.666666666666668 L 77.0 31.0 L 78.0 30.333333333333332 L 79.0 29.666666666666668 L 80.0 29.0 L 80.66666666666667 28.0 L 81.0 27.0 L 80.66666666666667 26.0 L 80.0 25.0 L 79.0 24.0 L 78.0 23.0 L 77.0 22.0 L 76.0 21.0 L 75.0 20.0 L 74.0 19.0 L 73.0 18.0 L 72.0 17.333333333333332 L 71.0 17.0 L 70.0 17.333333333333332 L 69.0 18.0 L 68.0 19.0 L 67.0 20.0 L 66.33333333333333 21.0 L 66.33333333333333 22.0 L 67.0 23.0 L 68.0 24.0 L 69.0 25.0 L 70.0 26.0 L 71.0 27.0 L 71.5 27.5 Z" stroke="none" fill="rgb(181,230,245)" />
<path d="M 123.5 24.0 L 124.0 24.0 L 124.66666666666667 23.666666666666668 L 124.66666666666667 23.0 L 124.33333333333333 22.0 L 124.0 21.0 L 123.66666666666667 20.0 L 123.0 19.0 L 122.33333333333333 18.0 L 121.66666666666667 17.0 L 121.0 16.0 L 120.33333333333333 15.0 L 119.66666666666667 14.0 L 119.0 13.0 L 118.0 12.0 L 117.0 11.0 L 116.0 10.0 L 115.0 9.0 L 114.0 8.0 L 113.0 7.0 L 112.0 6.333333333333333 L 111.0 5.666666666666667 L 110.0 5.333333333333333 L 109.0 4.666666666666667 L 108.0 4.333333333333333 L 107.0 3.6666666666666665 L 106.0 3.3333333333333335 L 105.33333333333333 3.3333333333333335 L 105.0 4.0 L 105.33333333333333 5.0 L 106.0 6.0 L 107.0 7.0 L 108.0 8.0 L 109.0 9.0 L 109.66666666666667 10.0 L 110.33333333333333 11.0 L 111.0 12.0 L 112.0 13.0 L 113.0 14.0 L 114.0 15.0 L 115.0 16.0 L 116.0 17.0 L 117.0 18.0 L 118.0 19.0 L 119.0 20.0 L 120.0 21.0 L 121.0 22.0 L 122.0 23.0 L 122.5 23.5 Z" stroke="none" fill="rgb(251,254,255)" />
<path d="M 73.5 76.5 L 74.0 77.0 L 75.0 77.66666666666667 L 76.0 78.0 L 77.0 77.66666666666667 L 78.0 77.0 L 79.0 76.0 L 80.0 75.0 L 80.66666666666667 74.0 L 80.66666666666667 73.0 L 80.0 72.0 L 79.0 71.0 L 78.0 70.0 L 77.0 69.0 L 76.0 68.0 L 75.0 67.0 L 74.0 66.0 L 73.0 65.0 L 72.0 64.33333333333333 L 71.0 64.33333333333333 L 70.0 64.66666666666667 L 69.0 65.33333333333333 L 68.0 66.0 L 67.0 67.0 L 66.33333333333333 68.0 L 66.33333333333333 69.0 L 67.0 70.0 L 68.0 71.0 L 69.0 72.0 L 70.0 73.0 L 71.0 74.0 L 72.0 75.0 L 72.5 75.5 Z" stroke="none" fill="rgb(164,207,245)" />
<path d="M 85.5 20.5 L 86.0 21.0 L 86.66666666666667 22.0 L 87.33333333333333 22.666666666666668 L 88.0 22.666666666666668 L 89.0 22.0 L 90.0 21.0 L 90.66666666666667 20.0 L 91.0 19.0 L 90.66666666666667 18.0 L 90.0 17.0 L 89.0 16.0 L 88.0 15.0 L 87.0 14.0 L 86.0 13.0 L 85.0 12.0 L 84.0 11.0 L 83.0 10.0 L 82.0 9.0 L 81.0 8.0 L 80.0 7.333333333333333 L 79.0 7.0 L 78.0 7.333333333333333 L 77.0 8.0 L 76.33333333333333 9.0 L 76.0 10.0 L 76.33333333333333 11.0 L 77.0 12.0 L 78.0 13.0 L 79.0 14.0 L 80.0 15.0 L 81.0 16.0 L 82.0 17.0 L 83.0 18.0 L 84.0 19.0 L 84.5 19.5 Z" stroke="none" fill="rgb(207,235,249)" />
<path d="M 116.5 52.5 L 117.0 53.0 L 118.0 53.666666666666664 L 119.0 54.0 L 120.0 54.0 L 121.0 53.666666666666664 L 122.0 53.0 L 122.66666666666667 52.0 L 122.66666666666667 51.0 L 122.0 50.0 L 121.0 49.0 L 120.0 48.0 L 119.0 47.0 L 118.0 46.0 L 117.33333333333333 45.0 L 116.66666666666667 44.0 L 116.0 43.0 L 115.0 42.0 L 114.0 41.0 L 113.0 40.0 L 112.0 39.333333333333336 L 111.0 39.333333333333336 L 110.0 40.0 L 109.33333333333333 41.0 L 108.66666666666667 42.0 L 108.33333333333333 43.0 L 108.33333333333333 44.0 L 109.0 45.0 L 110.0 46.0 L 111.0 47.0 L 112.0 48.0 L 113.0 49.0 L 114.0 50.0 L 115.0 51.0 L 115.5 51.5 Z" stroke="none" fill="rgb(207,235,249)" />
<path d="M 57.5 60.5 L 58.0 61.0 L 58.666666666666664 62.0 L 59.333333333333336 62.666666666666664 L 60.0 63.0 L 61.0 62.666666666666664 L 62.0 62.0 L 63.0 61.0 L 63.666666666666664 60.0 L 64.0 59.0 L 63.666666666666664 58.333333333333336 L 63.0 57.666666666666664 L 62.666666666666664 57.0 L 62.666666666666664 56.0 L 62.666666666666664 55.0 L 62.0 54.0 L 61.0 53.0 L 60.0 52.0 L 59.0 51.0 L 58.0 50.0 L 57.0 49.333333333333336 L 56.0 49.0 L 55.0 49.333333333333336 L 54.0 50.0 L 53.0 51.0 L 52.0 52.0 L 51.333333333333336 53.0 L 51.333333333333336 54.0 L 52.0 54.666666666666664 L 53.0 55.333333333333336 L 53.666666666666664 56.0 L 54.333333333333336 57.0 L 55.0 58.0 L 56.0 59.0 L 56.5 59.5 Z" stroke="none" fill="rgb(164,207,245)" />
<path d="M 68.5 33.5 L 69.0 34.0 L 69.66666666666667 35.0 L 70.33333333333333 35.666666666666664 L 71.0 35.666666666666664 L 72.0 35.333333333333336 L 73.0 34.666666666666664 L 74.0 34.0 L 74.66666666666667 33.0 L 75.0 32.0 L 75.0 31.0 L 74.66666666666667 30.0 L 74.0 29.0 L 73.0 28.0 L 72.0 27.0 L 71.0 26.0 L 70.0 25.0 L 69.0 24.0 L 68.0 23.0 L 67.0 22.333333333333332 L 66.0 22.0 L 65.33333333333333 22.333333333333332 L 64.66666666666667 23.0 L 64.0 24.0 L 63.0 25.0 L 62.333333333333336 26.0 L 62.333333333333336 27.0 L 63.0 28.0 L 64.0 29.0 L 65.0 30.0 L 66.0 31.0 L 67.0 32.0 L 67.5 32.5 Z" stroke="none" fill="rgb(169,226,244)" />
<path d="M 108.5 63.0 L 109.0 62.666666666666664 L 110.0 62.0 L 111.0 61.333333333333336 L 112.0 60.666666666666664 L 112.66666666666667 60.0 L 112.66666666666667 59.0 L 112.0 58.0 L 111.0 57.0 L 110.0 56.0 L 109.0 55.0 L 108.0 54.0 L 107.0 53.0 L 106.0 52.0 L 105.0 51.0 L 104.0 50.333333333333336 L 103.0 50.333333333333336 L 102.0 51.0 L 101.0 52.0 L 100.0 53.0 L 99.33333333333333 54.0 L 99.33333333333333 55.0 L 100.0 56.0 L 101.0 57.0 L 102.0 58.0 L 103.0 59.0 L 104.0 60.0 L 105.0 61.0 L 106.0 62.0 L 107.0 62.666666666666664 L 107.5 63.0 Z" stroke="none" fill="rgb(181,230,245)" />
<path d="M 65.5 40.0 L 66.0 40.0 L 67.0 39.666666666666664 L 68.0 39.0 L 69.0 38.0 L 69.66666666666667 37.0 L 70.0 36.0 L 70.0 35.0 L 69.66666666666667 34.0 L 69.0 33.0 L 68.0 32.0 L 67.0 31.0 L 66.0 30.0 L 65.0 29.0 L 64.0 28.0 L 63.0 27.333333333333332 L 62.0 27.0 L 61.333333333333336 27.333333333333332 L 60.666666666666664 28.0 L 60.0 29.0 L 59.0 30.0 L 58.333333333333336 31.0 L 58.333333333333336 32.0 L 59.0 33.0 L 60.0 34.0 L 61.0 35.0 L 62.0 36.0 L 63.0 37.0 L 64.0 38.0 L 64.66666666666667 39.0 L 65.0 39.5 Z" stroke="none" fill="rgb(158,223,243)" />
<path d="M 62.5 43.5 L 63.0 43.0 L 64.0 42.0 L 64.66666666666667 41.0 L 65.0 40.0 L 65.0 39.0 L 64.66666666666667 38.0 L 64.0 37.0 L 63.0 36.0 L 62.0 35.0 L 61.0 34.0 L 60.0 33.0 L 59.0 32.333333333333336 L 58.0 32.0 L 57.0 32.333333333333336 L 56.333333333333336 33.0 L 55.666666666666664 34.0 L 55.0 35.0 L 54.333333333333336 36.0 L 54.0 37.0 L 54.333333333333336 38.0 L 55.0 39.0 L 56.0 40.0 L 57.0 41.0 L 58.0 42.0 L 59.0 43.0 L 60.0 43.666666666666664 L 61.0 44.0 L 61.5 44.0 Z" stroke="none" fill="rgb(149,220,242)" />
<path d="M 68.5 94.5 L 69.0 94.0 L 70.0 93.0 L 71.0 92.33333333333333 L 71.66666666666667 91.66666666666667 L 72.0 91.0 L 71.66666666666667 90.0 L 71.0 89.0 L 70.0 88.0 L 69.0 87.0 L 68.0 86.33333333333333 L 67.0 86.33333333333333 L 66.0 87.0 L 65.0 88.0 L 64.0 89.0 L 63.0 90.0 L 62.0 90.66666666666667 L 61.0 91.33333333333333 L 60.0 92.0 L 59.333333333333336 93.0 L 59.333333333333336 94.0 L 60.0 95.0 L 61.0 96.0 L 62.0 97.0 L 63.0 97.66666666666667 L 64.0 97.66666666666667 L 65.0 97.0 L 66.0 96.0 L 67.0 95.33333333333333 L 67.5 95.0 Z" stroke="none" fill="rgb(103,204,236)" />
<path d="M 103.5 67.0 L 104.0 66.66666666666667 L 105.0 66.0 L 106.0 65.0 L 106.66666666666667 64.0 L 107.0 63.0 L 106.66666666666667 62.0 L 106.0 61.0 L 105.0 60.0 L 104.0 59.0 L 103.0 58.0 L 102.0 57.0 L 101.0 56.0 L 100.0 55.333333333333336 L 99.0 55.333333333333336 L 98.0 56.0 L 97.0 57.0 L 96.0 57.666666666666664 L 95.33333333333333 58.333333333333336 L 95.0 59.0 L 95.33333333333333 60.0 L 96.0 61.0 L 97.0 62.0 L 98.0 63.0 L 99.0 64.0 L 100.0 65.0 L 101.0 66.0 L 102.0 66.66666666666667 L 102.5 67.0 Z" stroke="none" fill="rgb(169,226,244)" />
<path d="M 76.5 88.5 L 77.0 88.0 L 78.0 87.0 L 79.0 86.0 L 79.66666666666667 85.0 L 79.66666666666667 84.0 L 79.0 83.0 L 78.0 82.0 L 77.0 81.0 L 76.0 80.33333333333333 L 75.0 80.0 L 74.0 80.33333333333333 L 73.0 81.0 L 72.0 82.0 L 71.0 83.0 L 70.0 83.66666666666667 L 69.0 84.0 L 68.0 84.33333333333333 L 67.33333333333333 85.0 L 67.33333333333333 86.0 L 68.0 87.0 L 69.0 88.0 L 70.0 89.0 L 71.0 90.0 L 72.0 90.66666666666667 L 73.0 90.66666666666667 L 74.0 90.0 L 75.0 89.33333333333333 L 75.5 89.0 Z" stroke="none" fill="rgb(116,208,238)" />
<path d="M 27.5 77.5 L 28.0 77.0 L 29.0 76.0 L 30.0 75.0 L 31.0 74.0 L 32.0 73.0 L 33.0 72.0 L 34.0 71.0 L 34.666666666666664 70.0 L 35.0 69.0 L 34.666666666666664 68.0 L 34.0 67.0 L 33.0 66.0 L 32.0 65.33333333333333 L 31.0 65.0 L 30.333333333333332 65.33333333333333 L 29.666666666666668 66.0 L 29.0 67.0 L 28.0 68.0 L 27.0 69.0 L 26.333333333333332 70.0 L 25.666666666666668 71.0 L 25.0 72.0 L 24.0 73.0 L 23.333333333333332 74.0 L 23.333333333333332 75.0 L 24.0 76.0 L 25.0 77.0 L 26.0 77.66666666666667 L 26.5 78.0 Z" stroke="none" fill="rgb(90,200,234)" />
<path d="M 52.5 105.0 L 53.0 105.0 L 54.0 105.0 L 55.0 104.66666666666667 L 56.0 104.0 L 57.0 103.0 L 58.0 102.33333333333333 L 59.0 101.66666666666667 L 60.0 101.0 L 61.0 100.0 L 62.0 99.33333333333333 L 62.666666666666664 98.66666666666667 L 63.0 98.0 L 62.666666666666664 97.0 L 62.0 96.0 L 61.0 95.0 L 60.0 94.33333333333333 L 59.0 94.0 L 58.0 94.33333333333333 L 57.0 95.0 L 56.0 96.0 L 55.0 97.0 L 54.0 98.0 L 53.0 98.66666666666667 L 52.0 99.33333333333333 L 51.0 100.0 L 50.333333333333336 101.0 L 50.0 102.0 L 50.333333333333336 103.0 L 51.0 104.0 L 51.5 104.5 Z" stroke="none" fill="rgb(90,200,234)" />
<path d="M 40.5 59.5 L 41.0 60.0 L 42.0 60.666666666666664 L 43.0 60.666666666666664 L 44.0 60.0 L 45.0 59.0 L 46.0 58.0 L 47.0 57.0 L 48.0 56.0 L 48.666666666666664 55.0 L 49.0 54.0 L 48.666666666666664 53.0 L 48.0 52.0 L 47.0 51.0 L 46.0 50.0 L 45.0 49.333333333333336 L 44.0 49.0 L 43.333333333333336 49.333333333333336 L 42.666666666666664 50.0 L 42.0 51.0 L 41.0 52.0 L 40.0 53.0 L 39.333333333333336 54.0 L 38.666666666666664 55.0 L 38.333333333333336 56.0 L 38.333333333333336 57.0 L 39.0 58.0 L 39.5 58.5 Z" stroke="none" fill="rgb(116,208,238)" />
<path d="M 53.5 47.5 L 54.0 48.0 L 55.0 48.666666666666664 L 56.0 49.0 L 56.666666666666664 48.666666666666664 L 57.333333333333336 48.0 L 58.0 47.0 L 59.0 46.0 L 59.666666666666664 45.0 L 60.0 44.0 L 59.666666666666664 43.0 L 59.0 42.0 L 58.0 41.0 L 57.0 40.0 L 56.0 39.0 L 55.0 38.0 L 54.0 37.333333333333336 L 53.0 37.333333333333336 L 52.333333333333336 38.0 L 51.666666666666664 39.0 L 51.0 40.0 L 50.0 41.0 L 49.333333333333336 42.0 L 49.333333333333336 43.0 L 50.0 44.0 L 51.0 45.0 L 52.0 46.0 L 52.5 46.5 Z" stroke="none" fill="rgb(138,216,241)" />
<path d="M 39.0 65.5 L 39.333333333333336 65.0 L 40.0 64.0 L 41.0 63.0 L 41.666666666666664 62.0 L 42.0 61.0 L 41.666666666666664 60.0 L 41.0 59.0 L 40.0 58.0 L 39.0 57.333333333333336 L 38.0 57.0 L 37.0 57.333333333333336 L 36.0 58.0 L 35.0 59.0 L 34.333333333333336 60.0 L 33.666666666666664 61.0 L 33.0 62.0 L 32.0 63.0 L 31.333333333333332 64.0 L 31.333333333333332 65.0 L 32.0 66.0 L 33.0 67.0 L 34.0 68.0 L 35.0 68.66666666666667 L 36.0 69.0 L 36.666666666666664 68.66666666666667 L 37.0 68.0 L 37.333333333333336 67.0 L 38.0 66.33333333333333 L 38.5 66.0 Z" stroke="none" fill="rgb(103,204,236)" />
<path d="M 96.5 70.5 L 97.0 70.66666666666667 L 98.0 71.0 L 99.0 70.66666666666667 L 100.0 70.0 L 101.0 69.0 L 101.66666666666667 68.0 L 102.0 67.0 L 101.66666666666667 66.0 L 101.0 65.0 L 100.0 64.0 L 99.0 63.0 L 98.0 62.0 L 97.0 61.0 L 96.0 60.333333333333336 L 95.0 60.0 L 94.0 60.333333333333336 L 93.0 61.0 L 92.0 62.0 L 91.0 63.0 L 90.33333333333333 64.0 L 90.33333333333333 64.66666666666667 L 91.0 65.33333333333333 L 92.0 66.0 L 93.0 67.0 L 94.0 68.0 L 95.0 69.0 L 95.5 69.5 Z" stroke="none" fill="rgb(158,223,243)" />
<path d="M 91.5 75.0 L 92.0 75.0 L 93.0 75.0 L 94.0 74.66666666666667 L 95.0 74.0 L 96.0 73.0 L 96.66666666666667 72.0 L 97.0 71.0 L 96.66666666666667 70.0 L 96.0 69.0 L 95.0 68.0 L 94.0 67.0 L 93.0 66.0 L 92.0 65.33333333333333 L 91.0 65.0 L 90.0 65.0 L 89.0 65.33333333333333 L 88.0 66.0 L 87.0 67.0 L 86.0 68.0 L 85.33333333333333 69.0 L 85.33333333333333 69.66666666666667 L 86.0 70.33333333333333 L 87.0 71.0 L 88.0 72.0 L 89.0 73.0 L 90.0 74.0 L 90.5 74.5 Z" stroke="none" fill="rgb(149,220,242)" />
<path d="M 53.5 51.5 L 54.0 51.0 L 54.666666666666664 50.0 L 55.0 49.0 L 54.666666666666664 48.0 L 54.0 47.0 L 53.0 46.0 L 52.0 45.0 L 51.0 44.0 L 50.0 43.333333333333336 L 49.0 43.0 L 48.0 43.333333333333336 L 47.333333333333336 44.0 L 46.666666666666664 45.0 L 46.0 46.0 L 45.0 47.0 L 44.333333333333336 48.0 L 44.333333333333336 49.0 L 45.0 50.0 L 46.0 51.0 L 47.0 52.0 L 48.0 53.0 L 49.0 53.666666666666664 L 50.0 54.0 L 51.0 53.666666666666664 L 52.0 53.0 L 52.5 52.5 Z" stroke="none" fill="rgb(127,213,239)" />
<path d="M 24.5 81.5 L 25.0 81.0 L 25.666666666666668 80.0 L 26.0 79.0 L 26.0 78.0 L 25.666666666666668 77.0 L 25.0 76.0 L 24.0 75.33333333333333 L 23.0 75.0 L 22.333333333333332 75.33333333333333 L 21.666666666666668 76.0 L 21.0 77.0 L 20.0 78.0 L 19.0 79.0 L 18.333333333333332 80.0 L 17.666666666666668 81.0 L 17.0 82.0 L 16.0 83.0 L 15.333333333333334 84.0 L 15.0 85.0 L 15.333333333333334 86.0 L 16.0 87.0 L 16.666666666666668 88.0 L 17.333333333333332 88.66666666666667 L 18.0 88.66666666666667 L 18.666666666666668 88.0 L 19.333333333333332 87.0 L 20.0 86.0 L 21.0 85.0 L 22.0 84.0 L 23.0 83.0 L 23.5 82.5 Z" stroke="none" fill="rgb(79,195,233)" />
<path d="M 88.5 78.5 L 89.0 78.33333333333333 L 90.0 77.66666666666667 L 91.0 77.0 L 91.66666666666667 76.0 L 91.66666666666667 75.0 L 91.0 74.0 L 90.0 73.0 L 89.0 72.0 L 88.0 71.0 L 87.0 70.33333333333333 L 86.0 70.0 L 85.0 70.33333333333333 L 84.0 71.0 L 83.0 71.66666666666667 L 82.0 72.33333333333333 L 81.0 73.0 L 80.33333333333333 74.0 L 80.33333333333333 75.0 L 81.0 76.0 L 82.0 77.0 L 83.0 78.0 L 84.0 79.0 L 85.0 79.66666666666667 L 86.0 80.0 L 87.0 79.66666666666667 L 87.5 79.5 Z" stroke="none" fill="rgb(138,216,241)" />
<path d="M 52.5 106.5 L 52.666666666666664 106.0 L 52.666666666666664 105.0 L 52.0 104.0 L 51.0 103.0 L 50.0 102.33333333333333 L 49.0 102.33333333333333 L 48.0 103.0 L 47.0 104.0 L 46.0 105.0 L 45.0 105.66666666666667 L 44.0 106.33333333333333 L 43.0 107.0 L 42.0 108.0 L 41.0 109.0 L 40.333333333333336 110.0 L 40.333333333333336 111.0 L 41.0 112.0 L 42.0 112.66666666666667 L 43.0 113.0 L 44.0 112.66666666666667 L 45.0 112.33333333333333 L 46.0 111.66666666666667 L 47.0 111.0 L 48.0 110.0 L 49.0 109.33333333333333 L 50.0 108.66666666666667 L 51.0 108.0 L 51.5 107.5 Z" stroke="none" fill="rgb(79,195,233)" />
<path d="M 76.5 81.5 L 77.0 82.0 L 78.0 83.0 L 79.0 84.0 L 80.0 84.66666666666667 L 81.0 84.66666666666667 L 82.0 84.0 L 83.0 83.0 L 84.0 82.33333333333333 L 85.0 81.66666666666667 L 85.66666666666667 81.0 L 85.66666666666667 80.0 L 85.0 79.0 L 84.0 78.0 L 83.0 77.0 L 82.0 76.0 L 81.0 75.33333333333333 L 80.0 75.0 L 79.0 75.33333333333333 L 78.0 76.0 L 77.0 77.0 L 76.0 78.0 L 75.33333333333333 79.0 L 75.33333333333333 80.0 L 75.5 80.5 Z" stroke="none" fill="rgb(127,213,239)" />
<path d="M 3.5 121.5 L 4.0 122.0 L 4.666666666666667 123.0 L 5.333333333333333 123.66666666666667 L 6.0 124.33333333333333 L 7.0 125.0 L 8.0 125.66666666666667 L 9.0 126.0 L 9.666666666666666 125.66666666666667 L 9.666666666666666 125.0 L 9.0 124.0 L 8.0 123.0 L 7.0 122.0 L 6.0 121.0 L 5.0 120.0 L 4.333333333333333 119.0 L 4.0 118.0 L 3.6666666666666665 117.0 L 3.3333333333333335 116.0 L 2.6666666666666665 115.0 L 2.3333333333333335 114.0 L 2.0 113.0 L 1.6666666666666667 112.33333333333333 L 1.3333333333333333 112.33333333333333 L 1.0 113.0 L 1.0 114.0 L 1.0 115.0 L 1.0 116.0 L 1.3333333333333333 117.0 L 1.6666666666666667 118.0 L 2.0 119.0 L 2.3333333333333335 120.0 L 2.5 120.5 Z" stroke="none" fill="rgb(0,0,0)" />
<path d="M 9.5 117.5 L 10.0 117.66666666666667 L 11.0 118.0 L 12.0 117.66666666666667 L 12.666666666666666 117.0 L 13.0 116.0 L 12.666666666666666 115.0 L 12.0 114.33333333333333 L 11.0 114.0 L 10.0 114.33333333333333 L 9.333333333333334 115.0 L 9.0 116.0 L 9.0 116.5 Z" stroke="none" fill="rgb(251,254,255)" />
<path d="M 31.5 99.0 L 31.666666666666668 98.66666666666667 L 32.0 98.0 L 31.666666666666668 97.0 L 31.0 96.33333333333333 L 30.0 96.0 L 29.333333333333332 96.33333333333333 L 29.0 97.0 L 29.0 98.0 L 29.333333333333332 98.66666666666667 L 30.0 99.0 L 30.5 99.0 Z" stroke="none" fill="rgb(251,254,255)" />
<path d="M 13.5 110.0 L 13.666666666666666 109.66666666666667 L 14.0 109.0 L 14.0 108.0 L 13.666666666666666 107.33333333333333 L 13.0 107.0 L 12.0 107.33333333333333 L 11.333333333333334 108.0 L 11.0 109.0 L 11.333333333333334 109.66666666666667 L 12.0 110.0 L 12.5 110.0 Z" stroke="none" fill="rgb(251,254,255)" />
<path d="M 42.0 76.5 L 42.0 76.0 L 42.0 75.0 L 41.666666666666664 74.33333333333333 L 41.0 74.0 L 40.333333333333336 74.33333333333333 L 40.0 75.0 L 40.333333333333336 76.0 L 41.0 76.66666666666667 L 41.5 77.0 Z" stroke="none" fill="rgb(251,254,255)" />
<path d="M 90.5 37.0 L 91.0 37.0 L 91.66666666666667 36.666666666666664 L 92.0 36.0 L 91.66666666666667 35.333333333333336 L 91.0 35.0 L 90.33333333333333 35.333333333333336 L 90.0 36.0 L 90.0 36.5 Z" stroke="none" fill="rgb(251,254,255)" />
<path d="M 106.5 37.0 L 107.0 37.0 L 107.66666666666667 36.666666666666664 L 108.0 36.0 L 107.66666666666667 35.333333333333336 L 107.0 35.0 L 106.33333333333333 35.333333333333336 L 106.0 36.0 L 106.0 36.5 Z" stroke="none" fill="rgb(251,254,255)" />
<path d="M 71.5 43.0 L 72.0 43.0 L 72.66666666666667 42.666666666666664 L 73.0 42.0 L 72.66666666666667 41.333333333333336 L 72.0 41.0 L 71.33333333333333 41.333333333333336 L 71.0 42.0 L 71.0 42.5 Z" stroke="none" fill="rgb(251,254,255)" />
<path d="M 91.5 49.0 L 91.66666666666667 48.666666666666664 L 92.0 48.0 L 91.66666666666667 47.333333333333336 L 91.0 47.0 L 90.33333333333333 47.333333333333336 L 90.0 48.0 L 90.33333333333333 48.666666666666664 L 90.5 49.0 Z" stroke="none" fill="rgb(251,254,255)" />
<path d="M 53.5 57.0 L 53.666666666666664 56.666666666666664 L 54.0 56.0 L 53.666666666666664 55.333333333333336 L 53.0 55.0 L 52.333333333333336 55.333333333333336 L 52.0 56.0 L 52.333333333333336 56.666666666666664 L 52.5 57.0 Z" stroke="none" fill="rgb(251,254,255)" />
<path d="M 62.5 58.0 L 63.0 58.0 L 63.666666666666664 57.666666666666664 L 64.0 57.0 L 63.666666666666664 56.333333333333336 L 63.0 56.0 L 62.333333333333336 56.333333333333336 L 62.0 57.0 L 62.0 57.5 Z" stroke="none" fill="rgb(251,254,255)" />
<path d="M 72.0 63.5 L 72.0 63.0 L 71.66666666666667 62.333333333333336 L 71.0 62.0 L 70.33333333333333 62.333333333333336 L 70.0 63.0 L 70.33333333333333 63.666666666666664 L 71.0 64.0 L 71.5 64.0 Z" stroke="none" fill="rgb(251,254,255)" />
<path d="M 47.0 64.5 L 47.0 64.0 L 46.666666666666664 63.333333333333336 L 46.0 63.0 L 45.333333333333336 63.333333333333336 L 45.0 64.0 L 45.333333333333336 64.66666666666667 L 46.0 65.0 L 46.5 65.0 Z" stroke="none" fill="rgb(251,254,255)" />
<path d="M 39.0 67.5 L 39.0 67.0 L 38.666666666666664 66.33333333333333 L 38.0 66.0 L 37.333333333333336 66.33333333333333 L 37.0 67.0 L 37.333333333333336 67.66666666666667 L 38.0 68.0 L 38.5 68.0 Z" stroke="none" fill="rgb(251,254,255)" />
<path d="M 68.0 72.5 L 68.0 72.0 L 67.66666666666667 71.33333333333333 L 67.0 71.0 L 66.33333333333333 71.33333333333333 L 66.0 72.0 L 66.33333333333333 72.66666666666667 L 67.0 73.0 L 67.5 73.0 Z" stroke="none" fill="rgb(251,254,255)" />
<path d="M 53.0 75.5 L 53.0 75.0 L 52.666666666666664 74.33333333333333 L 52.0 74.0 L 51.333333333333336 74.33333333333333 L 51.0 75.0 L 51.333333333333336 75.66666666666667 L 52.0 76.0 L 52.5 76.0 Z" stroke="none" fill="rgb(251,254,255)" />
<path d="M 34.0 78.5 L 34.0 78.0 L 33.666666666666664 77.33333333333333 L 33.0 77.0 L 32.333333333333336 77.33333333333333 L 32.0 78.0 L 32.333333333333336 78.66666666666667 L 33.0 79.0 L 33.5 79.0 Z" stroke="none" fill="rgb(251,254,255)" />
<path d="M 68.0 84.5 L 68.0 84.0 L 67.66666666666667 83.33333333333333 L 67.0 83.0 L 66.33333333333333 83.33333333333333 L 66.0 84.0 L 66.33333333333333 84.66666666666667 L 67.0 85.0 L 67.5 85.0 Z" stroke="none" fill="rgb(251,254,255)" />
<path d="M 30.5 88.0 L 30.666666666666668 87.66666666666667 L 31.0 87.0 L 30.666666666666668 86.33333333333333 L 30.0 86.0 L 29.333333333333332 86.33333333333333 L 29.0 87.0 L 29.333333333333332 87.66666666666667 L 29.5 88.0 Z" stroke="none" fill="rgb(251,254,255)" />
<path d="M 42.5 92.0 L 43.0 92.0 L 43.666666666666664 91.66666666666667 L 44.0 91.0 L 43.666666666666664 90.33333333333333 L 43.0 90.0 L 42.333333333333336 90.33333333333333 L 42.0 91.0 L 42.0 91.5 Z" stroke="none" fill="rgb(251,254,255)" />
<path d="M 20.0 102.5 L 20.0 102.0 L 19.666666666666668 101.33333333333333 L 19.0 101.0 L 18.333333333333332 101.33333333333333 L 18.0 102.0 L 18.333333333333332 102.66666666666667 L 19.0 103.0 L 19.5 103.0 Z" stroke="none" fill="rgb(251,254,255)" />
<path d="M 24.5 108.0 L 24.666666666666668 107.66666666666667 L 25.0 107.0 L 24.666666666666668 106.33333333333333 L 24.0 106.0 L 23.333333333333332 106.33333333333333 L 23.0 107.0 L 23.333333333333332 107.66666666666667 L 23.5 108.0 Z" stroke="none" fill="rgb(251,254,255)" />
<path d="M 20.5 117.0 L 21.0 117.0 L 21.666666666666668 116.66666666666667 L 22.0 116.0 L 21.666666666666668 115.33333333333333 L 21.0 115.0 L 20.333333333333332 115.33333333333333 L 20.0 116.0 L 20.0 116.5 Z" stroke="none" fill="rgb(251,254,255)" />
<path d="M 10.5 127.0 L 11.0 127.0 L 11.666666666666666 126.66666666666667 L 11.666666666666666 126.33333333333333 L 11.0 126.0 L 10.333333333333334 126.33333333333333 L 10.0 126.5 Z" stroke="none" fill="rgb(0,0,0)" />
<path d="M 84.5 2.0 L 84.66666666666667 1.6666666666666667 L 84.66666666666667 1.3333333333333333 L 84.33333333333333 1.3333333333333333 L 84.0 1.5 Z" stroke="none" fill="rgb(0,0,0)" />
<path d="M 96.0 1.5 L 95.66666666666667 1.3333333333333333 L 95.33333333333333 1.3333333333333333 L 95.33333333333333 1.6666666666666667 L 95.5 2.0 Z" stroke="none" fill="rgb(0,0,0)" />
<path d="M 104.0 2.5 L 103.66666666666667 2.3333333333333335 L 103.33333333333333 2.3333333333333335 L 103.33333333333333 2.6666666666666665 L 103.5 3.0 Z" stroke="none" fill="rgb(0,0,0)" />
<path d="M 105.0 3.5 L 104.66666666666667 3.3333333333333335 L 104.33333333333333 3.3333333333333335 L 104.33333333333333 3.6666666666666665 L 104.5 4.0 Z" stroke="none" fill="rgb(0,0,0)" />
<path d="M 70.5 17.0 L 70.66666666666667 16.666666666666668 L 70.66666666666667 16.333333333333332 L 70.33333333333333 16.333333333333332 L 70.0 16.5 Z" stroke="none" fill="rgb(0,0,0)" />
<path d="M 127.0 48.5 L 126.66666666666667 48.333333333333336 L 126.33333333333333 48.333333333333336 L 126.33333333333333 48.666666666666664 L 126.5 49.0 Z" stroke="none" fill="rgb(0,0,0)" />
<path d="M 107.5 64.0 L 107.66666666666667 63.666666666666664 L 107.66666666666667 63.333333333333336 L 107.33333333333333 63.333333333333336 L 107.0 63.5 Z" stroke="none" fill="rgb(0,0,0)" />
<path d="M 102.5 68.0 L 102.66666666666667 67.66666666666667 L 102.66666666666667 67.33333333333333 L 102.33333333333333 67.33333333333333 L 102.0 67.5 Z" stroke="none" fill="rgb(0,0,0)" />
<path d="M 40.5 74.0 L 40.666666666666664 73.66666666666667 L 40.666666666666664 73.33333333333333 L 40.333333333333336 73.33333333333333 L 40.0 73.5 Z" stroke="none" fill="rgb(164,207,245)" />
<path d="M 42.5 76.0 L 42.666666666666664 75.66666666666667 L 42.666666666666664 75.33333333333333 L 42.333333333333336 75.33333333333333 L 42.0 75.5 Z" stroke="none" fill="rgb(164,207,245)" />
<path d="M 15.0 85.5 L 14.666666666666666 85.33333333333333 L 14.333333333333334 85.33333333333333 L 14.333333333333334 85.66666666666667 L 14.5 86.0 Z" stroke="none" fill="rgb(0,0,0)" />
</svg>
