<?xml version="1.0" encoding="UTF-8" standalone="no"?>
<!DOCTYPE svg PUBLIC "-//W3C//DTD SVG 1.1//EN"
"http://www.w3.org/Graphics/SVG/1.1/DTD/svg11.dtd">
<svg width="128" height="128" xmlns="http://www.w3.org/2000/svg" version="1.1">
<path d="M 26.5 128.0 L 27.0 128.0 L 28.0 128.0 L 29.0 128.0 L 30.0 128.0 L 31.0 128.0 L 32.0 128.0 L 33.0 128.0 L 34.0 128.0 L 35.0 128.0 L 36.0 128.0 L 37.0 128.0 L 38.0 128.0 L 39.0 128.0 L 40.0 128.0 L 41.0 128.0 L 42.0 128.0 L 43.0 128.0 L 44.0 128.0 L 45.0 128.0 L 46.0 128.0 L 47.0 128.0 L 48.0 128.0 L 49.0 128.0 L 50.0 128.0 L 51.0 128.0 L 52.0 128.0 L 53.0 128.0 L 54.0 128.0 L 55.0 128.0 L 56.0 128.0 L 57.0 128.0 L 58.0 128.0 L 59.0 128.0 L 60.0 128.0 L 61.0 128.0 L 62.0 128.0 L 63.0 128.0 L 64.0 128.0 L 65.0 128.0 L 66.0 128.0 L 67.0 128.0 L 68.0 128.0 L 69.0 128.0 L 70.0 128.0 L 71.0 128.0 L 72.0 128.0 L 73.0 128.0 L 74.0 128.0 L 75.0 128.0 L 76.0 128.0 L 77.0 128.0 L 78.0 128.0 L 79.0 128.0 L 80.0 128.0 L 81.0 128.0 L 82.0 128.0 L 83.0 128.0 L 84.0 128.0 L 85.0 128.0 L 86.0 128.0 L 87.0 128.0 L 88.0 128.0 L 89.0 128.0 L 90.0 128.0 L 91.0 128.0 L 92.0 128.0 L 93.0 128.0 L 94.0 128.0 L 95.0 128.0 L 96.0 128.0 L 97.0 128.0 L 98.0 128.0 L 99.0 128.0 L 100.0 128.0 L 101.0 128.0 L 102.0 128.0 L 103.0 128.0 L 104.0 128.0 L 105.0 128.0 L 106.0 128.0 L 107.0 128.0 L 108.0 128.0 L 109.0 128.0 L 110.0 128.0 L 111.0 128.0 L 112.0 128.0 L 113.0 128.0 L 114.0 128.0 L 115.0 128.0 L 116.0 128.0 L 117.0 128.0 L 118.0 128.0 L 119.0 128.0 L 120.0 128.0 L 121.0 128.0 L 122.0 128.0 L 123.0 128.0 L 124.0 128.0 L 125.0 128.0 L 126.0 128.0 L 127.0 128.0 L 127.66666666666667 127.66666666666667 L 128.0 127.0 L 128.0 126.0 L 128.0 125.0 L 128.0 124.0 L 128.0 123.0 L 128.0 122.0 L 128.0 121.0 L 128.0 120.0 L 128.0 119.0 L 128.0 118.0 L 128.0 117.0 L 128.0 116.0 L 128.0 115.0 L 128.0 114.0 L 128.0 113.0 L 128.0 112.0 L 128.0 111.0 L 128.0 110.0 L 128.0 109.0 L 128.0 108.0 L 128.0 107.0 L 128.0 106.0 L 128.0 105.0 L 128.0 104.0 L 128.0 103.0 L 128.0 102.0 L 128.0 101.0 L 128.0 100.0 L 128.0 99.0 L 128.0 98.0 L 128.0 97.0 L 128.0 96.0 L 128.0 95.0 L 128.0 94.0 L 128.0 93.0 L 128.0 92.0 L 128.0 91.0 L 128.0 90.0 L 128.0 89.0 L 128.0 88.0 L 128.0 87.0 L 128.0 86.0 L 128.0 85.0 L 128.0 84.0 L 128.0 83.0 L 128.0 82.0 L 128.0 81.0 L 128.0 80.0 L 128.0 79.0 L 128.0 78.0 L 128.0 77.0 L 128.0 76.0 L 128.0 75.0 L 128.0 74.0 L 128.0 73.0 L 128.0 72.0 L 128.0 71.0 L 128.0 70.0 L 128.0 69.0 L 128.0 68.0 L 128.0 67.0 L 128.0 66.0 L 128.0 65.0 L 128.0 64.0 L 128.0 63.0 L 128.0 62.0 L 128.0 61.0 L 128.0 60.0 L 128.0 59.0 L 128.0 58.0 L 128.0 57.0 L 128.0 56.0 L 128.0 55.0 L 128.0 54.0 L 128.0 53.0 L 128.0 52.0 L 128.0 51.0 L 128.0 50.0 L 128.0 49.0 L 128.0 48.0 L 128.0 47.0 L 128.0 46.0 L 128.0 45.0 L 128.0 44.0 L 128.0 43.0 L 128.0 42.0 L 128.0 41.0 L 128.0 40.0 L 128.0 39.0 L 128.0 38.0 L 128.0 37.0 L 128.0 36.0 L 128.0 35.0 L 128.0 34.0 L 128.0 33.0 L 128.0 32.0 L 128.0 31.0 L 128.0 30.0 L 128.0 29.0 L 128.0 28.0 L 128.0 27.0 L 128.0 26.0 L 128.0 25.0 L 128.0 24.0 L 128.0 23.0 L 128.0 22.0 L 128.0 21.0 L 128.0 20.0 L 128.0 19.0 L 128.0 18.0 L 128.0 17.0 L 128.0 16.0 L 128.0 15.0 L 128.0 14.0 L 128.0 13.0 L 128.0 12.0 L 128.0 11.0 L 128.0 10.0 L 128.0 9.0 L 128.0 8.0 L 128.0 7.0 L 128.0 6.0 L 128.0 5.0 L 128.0 4.0 L 128.0 3.0 L 128.0 2.0 L 128.0 1.0 L 127.66666666666667 0.3333333333333333 L 127.0 0.0 L 126.0 0.0 L 125.0 0.0 L 124.0 0.0 L 123.0 0.0 L 122.0 0.0 L 121.0 0.0 L 120.0 0.0 L 119.0 0.0 L 118.0 0.0 L 117.0 0.0 L 116.0 0.0 L 115.0 0.0 L 114.0 0.0 L 113.0 0.0 L 112.0 0.0 L 111.0 0.0 L 110.0 0.0 L 109.0 0.0 L 108.0 0.0 L 107.0 0.0 L 106.0 0.0 L 105.0 0.0 L 104.0 0.0 L 103.0 0.0 L 102.0 0.0 L 101.0 0.0 L 100.0 0.0 L 99.0 0.0 L 98.0 0.0 L 97.0 0.0 L 96.0 0.0 L 95.0 0.0 L 94.0 0.0 L 93.0 0.0 L 92.0 0.0 L 91.0 0.0 L 90.0 0.0 L 89.0 0.0 L 88.0 0.0 L 87.0 0.0 L 86.0 0.0 L 85.0 0.0 L 84.0 0.0 L 83.0 0.0 L 82.0 0.0 L 81.0 0.0 L 80.0 0.0 L 79.0 0.0 L 78.0 0.0 L 77.0 0.0 L 76.0 0.0 L 75.0 0.0 L 74.0 0.0 L 73.0 0.0 L 72.0 0.0 L 71.0 0.0 L 70.0 0.0 L 69.0 0.0 L 68.0 0.0 L 67.0 0.0 L 66.0 0.0 L 65.0 0.0 L 64.0 0.0 L 63.0 0.0 L 62.0 0.0 L 61.0 0.0 L 60.0 0.0 L 59.0 0.0 L 58.0 0.0 L 57.0 0.0 L 56.0 0.0 L 55.0 0.0 L 54.0 0.0 L 53.0 0.0 L 52.0 0.0 L 51.0 0.0 L 50.0 0.0 L 49.0 0.0 L 48.0 0.0 L 47.0 0.0 L 46.0 0.0 L 45.0 0.0 L 44.0 0.0 L 43.0 0.0 L 42.0 0.0 L 41.0 0.0 L 40.0 0.0 L 39.0 0.0 L 38.0 0.0 L 37.0 0.0 L 36.0 0.0 L 35.0 0.0 L 34.0 0.0 L 33.0 0.0 L 32.0 0.0 L 31.0 0.0 L 30.0 0.0 L 29.0 0.0 L 28.0 0.0 L 27.0 0.0 L 26.0 0.0 L 25.0 0.0 L 24.0 0.0 L 23.0 0.0 L 22.0 0.0 L 21.0 0.0 L 20.0 0.0 L 19.0 0.0 L 18.0 0.0 L 17.0 0.0 L 16.0 0.0 L 15.0 0.0 L 14.0 0.0 L 13.0 0.0 L 12.0 0.0 L 11.0 0.0 L 10.0 0.0 L 9.0 0.0 L 8.0 0.0 L 7.0 0.0 L 6.0 0.0 L 5.0 0.0 L 4.0 0.0 L 3.0 0.0 L 2.0 0.0 L 1.0 0.0 L 0.3333333333333333 0.3333333333333333 L 0.0 1.0 L 0.0 2.0 L 0.0 3.0 L 0.0 4.0 L 0.0 5.0 L 0.0 6.0 L 0.0 7.0 L 0.0 8.0 L 0.0 9.0 L 0.0 10.0 L 0.0 11.0 L 0.0 12.0 L 0.0 13.0 L 0.0 14.0 L 0.0 15.0 L 0.0 16.0 L 0.0 17.0 L 0.0 18.0 L 0.0 19.0 L 0.0 20.0 L 0.0 21.0 L 0.0 22.0 L 0.0 23.0 L 0.0 24.0 L 0.0 25.0 L 0.0 26.0 L 0.0 27.0 L 0.0 28.0 L 0.0 29.0 L 0.0 30.0 L 0.0 31.0 L 0.0 32.0 L 0.0 33.0 L 0.0 34.0 L 0.0 35.0 L 0.0 36.0 L 0.0 37.0 L 0.0 38.0 L 0.0 39.0 L 0.0 40.0 L 0.0 41.0 L 0.0 42.0 L 0.0 43.0 L 0.0 44.0 L 0.0 45.0 L 0.0 46.0 L 0.0 47.0 L 0.0 48.0 L 0.0 49.0 L 0.0 50.0 L 0.0 51.0 L 0.0 52.0 L 0.0 53.0 L 0.0 54.0 L 0.0 55.0 L 0.0 56.0 L 0.0 57.0 L 0.0 58.0 L 0.0 59.0 L 0.0 60.0 L 0.0 61.0 L 0.0 62.0 L 0.0 63.0 L 0.0 64.0 L 0.0 65.0 L 0.0 66.0 L 0.0 67.0 L 0.0 68.0 L 0.0 69.0 L 0.0 70.0 L 0.0 71.0 L 0.0 72.0 L 0.0 73.0 L 0.0 74.0 L 0.0 75.0 L 0.0 76.0 L 0.0 77.0 L 0.0 78.0 L 0.0 79.0 L 0.0 80.0 L 0.0 81.0 L 0.0 82.0 L 0.0 83.0 L 0.0 84.0 L 0.0 85.0 L 0.0 86.0 L 0.0 87.0 L 0.0 88.0 L 0.0 89.0 L 0.0 90.0 L 0.0 91.0 L 0.0 92.0 L 0.0 93.0 L 0.0 94.0 L 0.0 95.0 L 0.0 96.0 L 0.0 97.0 L 0.0 98.0 L 0.0 99.0 L 0.0 100.0 L 0.0 101.0 L 0.0 102.0 L 0.0 103.0 L 0.0 104.0 L 0.0 105.0 L 0.0 106.0 L 0.0 107.0 L 0.0 108.0 L 0.0 109.0 L 0.0 110.0 L 0.0 111.0 L 0.0 112.0 L 0.0 113.0 L 0.0 114.0 L 0.0 115.0 L 0.0 116.0 L 0.0 117.0 L 0.0 118.0 L 0.0 119.0 L 0.0 120.0 L 0.0 121.0 L 0.0 122.0 L 0.0 123.0 L 0.0 124.0 L 0.0 125.0 L 0.0 126.0 L 0.0 127.0 L 0.3333333333333333 127.66666666666667 L 1.0 128.0 L 2.0 128.0 L 3.0 128.0 L 4.0 128.0 L 5.0 128.0 L 6.0 128.0 L 7.0 128.0 L 8.0 128.0 L 9.0 128.0 L 10.0 128.0 L 11.0 128.0 L 12.0 128.0 L 13.0 128.0 L 14.0 128.0 L 15.0 128.0 L 16.0 128.0 L 17.0 128.0 L 18.0 128.0 L 19.0 128.0 L 20.0 128.0 L 21.0 128.0 L 22.0 128.0 L 23.0 128.0 L 24.0 128.0 L 25.0 128.0 L 25.5 128.0 Z" stroke="none" fill="rgb(0,0,0)" />
<path d="M 101.5 100.5 L 102.0 100.0 L 103.0 99.0 L 103.66666666666667 98.0 L 104.33333333333333 97.0 L 105.0 96.0 L 105.66666666666667 95.0 L 106.33333333333333 94.0 L 107.0 93.0 L 107.66666666666667 92.0 L 108.33333333333333 91.0 L 108.66666666666667 90.0 L 109.0 89.0 L 109.33333333333333 88.0 L 109.66666666666667 87.0 L 110.33333333333333 86.0 L 111.0 85.33333333333333 L 112.0 85.0 L 113.0 85.0 L 114.0 84.66666666666667 L 115.0 84.33333333333333 L 116.0 83.66666666666667 L 117.0 83.33333333333333 L 118.0 82.66666666666667 L 119.0 82.0 L 120.0 81.0 L 121.0 80.0 L 121.66666666666667 79.0 L 122.33333333333333 78.0 L 122.66666666666667 77.0 L 123.33333333333333 76.0 L 123.66666666666667 75.0 L 124.0 74.0 L 124.0 73.0 L 124.0 72.0 L 124.0 71.0 L 124.0 70.0 L 124.0 69.0 L 124.0 68.0 L 124.0 67.0 L 124.0 66.0 L 124.0 65.0 L 124.0 64.0 L 124.0 63.0 L 124.0 62.0 L 123.66666666666667 61.0 L 123.33333333333333 60.0 L 122.66666666666667 59.0 L 122.0 58.0 L 121.0 57.0 L 120.0 56.0 L 119.0 55.333333333333336 L 118.0 54.666666666666664 L 117.0 54.333333333333336 L 116.0 54.0 L 115.0 53.666666666666664 L 114.0 53.333333333333336 L 113.0 53.0 L 112.0 52.666666666666664 L 111.33333333333333 52.0 L 110.66666666666667 51.0 L 110.33333333333333 50.0 L 110.0 49.0 L 110.0 48.0 L 109.66666666666667 47.0 L 109.33333333333333 46.0 L 108.66666666666667 45.0 L 108.33333333333333 44.0 L 107.66666666666667 43.0 L 107.33333333333333 42.0 L 106.66666666666667 41.0 L 106.33333333333333 40.0 L 105.66666666666667 39.0 L 105.33333333333333 38.0 L 104.66666666666667 37.0 L 104.0 36.0 L 103.33333333333333 35.0 L 102.66666666666667 34.0 L 102.0 33.0 L 101.0 32.0 L 100.0 31.0 L 99.0 30.0 L 98.0 29.0 L 97.0 28.0 L 96.0 27.0 L 95.0 26.0 L 94.0 25.333333333333332 L 93.0 24.666666666666668 L 92.0 24.0 L 91.0 23.333333333333332 L 90.0 22.666666666666668 L 89.0 22.333333333333332 L 88.0 21.666666666666668 L 87.0 21.333333333333332 L 86.0 20.666666666666668 L 85.0 20.333333333333332 L 84.0 19.666666666666668 L 83.0 19.333333333333332 L 82.0 19.0 L 81.0 18.666666666666668 L 80.0 18.333333333333332 L 79.0 18.0 L 78.0 18.0 L 77.0 17.666666666666668 L 76.0 17.333333333333332 L 75.0 17.0 L 74.0 17.0 L 73.0 17.0 L 72.0 17.0 L 71.0 17.0 L 70.0 16.666666666666668 L 69.0 16.333333333333332 L 68.0 16.0 L 67.0 16.0 L 66.0 16.0 L 65.0 16.0 L 64.0 16.0 L 63.0 16.0 L 62.0 16.0 L 61.0 16.0 L 60.0 16.0 L 59.0 16.333333333333332 L 58.0 16.666666666666668 L 57.0 17.0 L 56.0 17.0 L 55.0 17.0 L 54.0 17.0 L 53.0 17.0 L 52.0 17.333333333333332 L 51.0 17.666666666666668 L 50.0 18.0 L 49.0 18.0 L 48.0 18.333333333333332 L 47.0 18.666666666666668 L 46.0 19.0 L 45.0 19.333333333333332 L 44.0 19.666666666666668 L 43.0 20.0 L 42.0 20.333333333333332 L 41.0 20.666666666666668 L 40.0 21.333333333333332 L 39.0 22.0 L 38.0 22.666666666666668 L 37.0 23.333333333333332 L 36.0 24.0 L 35.0 24.666666666666668 L 34.0 25.333333333333332 L 33.0 26.0 L 32.0 27.0 L 31.0 28.0 L 30.0 29.0 L 29.0 30.0 L 28.0 31.0 L 27.333333333333332 32.0 L 26.666666666666668 33.0 L 26.0 34.0 L 25.333333333333332 35.0 L 24.666666666666668 36.0 L 24.333333333333332 37.0 L 23.666666666666668 38.0 L 23.0 39.0 L 22.333333333333332 40.0 L 22.0 41.0 L 21.666666666666668 42.0 L 21.333333333333332 43.0 L 20.666666666666668 44.0 L 20.333333333333332 45.0 L 20.0 46.0 L 19.666666666666668 47.0 L 19.333333333333332 48.0 L 19.0 49.0 L 18.666666666666668 50.0 L 18.0 51.0 L 17.0 51.666666666666664 L 16.0 52.333333333333336 L 15.0 52.666666666666664 L 14.0 53.0 L 13.0 53.0 L 12.0 53.333333333333336 L 11.0 53.666666666666664 L 10.0 54.333333333333336 L 9.0 55.0 L 8.0 56.0 L 7.0 57.0 L 6.0 58.0 L 5.333333333333333 59.0 L 4.666666666666667 60.0 L 4.333333333333333 61.0 L 4.0 62.0 L 4.0 63.0 L 3.6666666666666665 64.0 L 3.3333333333333335 65.0 L 3.0 66.0 L 3.0 67.0 L 3.0 68.0 L 3.0 69.0 L 3.0 70.0 L 3.3333333333333335 71.0 L 3.6666666666666665 72.0 L 4.0 73.0 L 4.0 74.0 L 4.333333333333333 75.0 L 4.666666666666667 76.0 L 5.333333333333333 77.0 L 5.666666666666667 78.0 L 6.333333333333333 79.0 L 7.0 80.0 L 8.0 81.0 L 9.0 82.0 L 10.0 82.66666666666667 L 11.0 83.33333333333333 L 12.0 83.66666666666667 L 13.0 84.0 L 14.0 84.33333333333333 L 15.0 84.66666666666667 L 16.0 85.0 L 17.0 85.33333333333333 L 17.666666666666668 86.0 L 18.333333333333332 87.0 L 18.666666666666668 88.0 L 19.333333333333332 89.0 L 19.666666666666668 90.0 L 20.0 91.0 L 20.333333333333332 92.0 L 21.0 93.0 L 21.666666666666668 94.0 L 22.333333333333332 95.0 L 23.0 96.0 L 23.666666666666668 97.0 L 24.333333333333332 98.0 L 25.0 99.0 L 26.0 100.0 L 27.0 101.0 L 28.0 102.0 L 29.0 102.66666666666667 L 30.0 103.33333333333333 L 31.0 104.0 L 32.0 104.66666666666667 L 33.0 105.33333333333333 L 34.0 105.66666666666667 L 35.0 106.33333333333333 L 36.0 106.66666666666667 L 37.0 107.33333333333333 L 38.0 107.66666666666667 L 39.0 108.0 L 40.0 108.33333333333333 L 41.0 108.66666666666667 L 42.0 109.0 L 43.0 109.33333333333333 L 44.0 109.66666666666667 L 45.0 110.0 L 46.0 110.0 L 47.0 110.33333333333333 L 48.0 110.66666666666667 L 49.0 111.0 L 50.0 111.0 L 51.0 111.0 L 52.0 111.0 L 53.0 111.0 L 54.0 111.33333333333333 L 55.0 111.66666666666667 L 56.0 112.0 L 57.0 112.0 L 58.0 112.0 L 59.0 112.0 L 60.0 112.0 L 61.0 112.0 L 62.0 112.0 L 63.0 112.0 L 64.0 112.0 L 65.0 112.0 L 66.0 112.0 L 67.0 112.0 L 68.0 112.0 L 69.0 112.0 L 70.0 112.0 L 71.0 112.0 L 72.0 112.0 L 73.0 112.0 L 74.0 112.0 L 75.0 111.66666666666667 L 76.0 111.33333333333333 L 77.0 111.0 L 78.0 111.0 L 79.0 111.0 L 80.0 111.0 L 81.0 110.66666666666667 L 82.0 110.33333333333333 L 83.0 110.0 L 84.0 110.0 L 85.0 109.66666666666667 L 86.0 109.33333333333333 L 87.0 109.0 L 88.0 108.66666666666667 L 89.0 108.33333333333333 L 90.0 107.66666666666667 L 91.0 107.33333333333333 L 92.0 106.66666666666667 L 93.0 106.33333333333333 L 94.0 105.66666666666667 L 95.0 105.33333333333333 L 96.0 104.66666666666667 L 97.0 104.0 L 98.0 103.0 L 99.0 102.33333333333333 L 100.0 101.66666666666667 L 100.5 101.5 Z" stroke="none" fill="rgb(182,136,90)" />
<path d="M 59.5 100.0 L 60.0 100.0 L 61.0 100.0 L 62.0 100.0 L 63.0 100.0 L 64.0 100.0 L 65.0 100.0 L 66.0 100.0 L 67.0 100.0 L 68.0 100.0 L 69.0 100.0 L 70.0 100.0 L 71.0 100.0 L 72.0 100.0 L 73.0 100.0 L 74.0 100.0 L 75.0 100.0 L 76.0 99.66666666666667 L 77.0 99.33333333333333 L 78.0 99.0 L 79.0 99.0 L 80.0 98.66666666666667 L 81.0 98.33333333333333 L 82.0 97.66666666666667 L 83.0 97.33333333333333 L 84.0 97.0 L 85.0 96.66666666666667 L 86.0 96.0 L 87.0 95.0 L 88.0 94.0 L 89.0 93.0 L 90.0 92.0 L 91.0 91.0 L 92.0 90.0 L 93.0 89.0 L 93.66666666666667 88.0 L 94.33333333333333 87.0 L 94.66666666666667 86.0 L 95.33333333333333 85.0 L 95.66666666666667 84.0 L 96.0 83.0 L 96.0 82.0 L 96.0 81.0 L 96.0 80.0 L 96.0 79.0 L 96.0 78.0 L 95.66666666666667 77.0 L 95.33333333333333 76.0 L 95.0 75.0 L 95.0 74.0 L 94.66666666666667 73.0 L 94.33333333333333 72.0 L 93.66666666666667 71.0 L 93.33333333333333 70.0 L 93.0 69.0 L 93.0 68.0 L 93.0 67.0 L 93.0 66.0 L 93.0 65.0 L 93.0 64.0 L 93.33333333333333 63.0 L 93.66666666666667 62.0 L 94.0 61.0 L 94.0 60.0 L 94.33333333333333 59.0 L 94.66666666666667 58.0 L 95.0 57.0 L 95.0 56.0 L 95.0 55.0 L 95.0 54.0 L 95.0 53.0 L 95.0 52.0 L 95.0 51.0 L 95.0 50.0 L 94.66666666666667 49.0 L 94.33333333333333 48.0 L 94.0 47.0 L 93.66666666666667 46.0 L 93.0 45.0 L 92.0 44.0 L 91.0 43.0 L 90.0 42.0 L 89.0 41.333333333333336 L 88.0 40.666666666666664 L 87.0 40.333333333333336 L 86.0 40.0 L 85.0 40.0 L 84.0 40.0 L 83.0 40.0 L 82.0 40.0 L 81.0 40.0 L 80.0 40.0 L 79.0 40.0 L 78.0 40.0 L 77.0 40.333333333333336 L 76.0 40.666666666666664 L 75.0 41.333333333333336 L 74.0 41.666666666666664 L 73.0 42.333333333333336 L 72.0 42.666666666666664 L 71.0 43.333333333333336 L 70.0 43.666666666666664 L 69.0 44.0 L 68.0 44.333333333333336 L 67.0 44.666666666666664 L 66.0 45.0 L 65.0 45.0 L 64.0 45.0 L 63.0 45.0 L 62.0 44.666666666666664 L 61.0 44.333333333333336 L 60.0 44.0 L 59.0 43.666666666666664 L 58.0 43.333333333333336 L 57.0 42.666666666666664 L 56.0 42.333333333333336 L 55.0 41.666666666666664 L 54.0 41.333333333333336 L 53.0 40.666666666666664 L 52.0 40.333333333333336 L 51.0 39.666666666666664 L 50.0 39.333333333333336 L 49.0 39.0 L 48.0 39.0 L 47.0 39.0 L 46.0 39.0 L 45.0 39.0 L 44.0 39.0 L 43.0 39.333333333333336 L 42.0 39.666666666666664 L 41.0 40.333333333333336 L 40.0 40.666666666666664 L 39.0 41.333333333333336 L 38.0 42.0 L 37.0 42.666666666666664 L 36.0 43.333333333333336 L 35.0 44.0 L 34.333333333333336 45.0 L 34.0 46.0 L 33.666666666666664 47.0 L 33.333333333333336 48.0 L 33.0 49.0 L 33.0 50.0 L 33.0 51.0 L 33.0 52.0 L 33.0 53.0 L 33.0 54.0 L 33.0 55.0 L 33.0 56.0 L 33.0 57.0 L 33.333333333333336 58.0 L 33.666666666666664 59.0 L 34.0 60.0 L 34.0 61.0 L 34.333333333333336 62.0 L 34.666666666666664 63.0 L 35.0 64.0 L 35.0 65.0 L 35.0 66.0 L 35.0 67.0 L 35.0 68.0 L 35.0 69.0 L 34.666666666666664 70.0 L 34.333333333333336 71.0 L 34.0 72.0 L 33.666666666666664 73.0 L 33.333333333333336 74.0 L 33.0 75.0 L 32.666666666666664 76.0 L 32.333333333333336 77.0 L 32.0 78.0 L 32.0 79.0 L 32.0 80.0 L 32.0 81.0 L 32.0 82.0 L 32.0 83.0 L 32.0 84.0 L 32.0 85.0 L 32.333333333333336 86.0 L 32.666666666666664 87.0 L 33.333333333333336 88.0 L 34.0 89.0 L 35.0 90.0 L 36.0 91.0 L 37.0 92.0 L 38.0 93.0 L 39.0 94.0 L 40.0 95.0 L 41.0 95.66666666666667 L 42.0 96.33333333333333 L 43.0 96.66666666666667 L 44.0 97.0 L 45.0 97.33333333333333 L 46.0 97.66666666666667 L 47.0 98.0 L 48.0 98.0 L 49.0 98.33333333333333 L 50.0 98.66666666666667 L 51.0 99.0 L 52.0 99.0 L 53.0 99.0 L 54.0 99.0 L 55.0 99.0 L 56.0 99.33333333333333 L 57.0 99.66666666666667 L 58.0 100.0 L 58.5 100.0 Z" stroke="none" fill="rgb(255,205,136)" />
<path d="M 81.5 66.5 L 82.0 66.0 L 83.0 65.0 L 83.66666666666667 64.0 L 84.0 63.0 L 84.0 62.0 L 84.0 61.0 L 84.0 60.0 L 84.0 59.0 L 84.0 58.0 L 83.66666666666667 57.0 L 83.33333333333333 56.0 L 82.66666666666667 55.0 L 82.0 54.0 L 81.0 53.333333333333336 L 80.0 53.0 L 79.0 53.0 L 78.0 53.0 L 77.0 53.333333333333336 L 76.0 53.666666666666664 L 75.0 54.333333333333336 L 74.0 55.0 L 73.33333333333333 56.0 L 73.0 57.0 L 73.0 58.0 L 73.0 59.0 L 73.0 60.0 L 73.0 61.0 L 73.0 62.0 L 73.0 63.0 L 73.0 64.0 L 73.33333333333333 65.0 L 74.0 66.0 L 75.0 66.66666666666667 L 76.0 67.0 L 77.0 67.0 L 78.0 67.0 L 79.0 67.0 L 80.0 67.0 L 80.5 67.0 Z" stroke="none" fill="rgb(57,53,49)" />
<path d="M 53.5 66.5 L 54.0 66.0 L 54.666666666666664 65.0 L 55.0 64.0 L 55.0 63.0 L 55.0 62.0 L 55.0 61.0 L 55.0 60.0 L 55.0 59.0 L 55.0 58.0 L 54.666666666666664 57.0 L 54.0 56.0 L 53.0 55.0 L 52.0 54.333333333333336 L 51.0 54.0 L 50.0 54.0 L 49.0 54.0 L 48.0 54.0 L 47.0 54.0 L 46.0 54.333333333333336 L 45.0 55.0 L 44.333333333333336 56.0 L 43.666666666666664 57.0 L 43.333333333333336 58.0 L 43.0 59.0 L 43.0 60.0 L 43.0 61.0 L 43.0 62.0 L 43.0 63.0 L 43.333333333333336 64.0 L 44.0 65.0 L 45.0 66.0 L 46.0 67.0 L 47.0 67.66666666666667 L 48.0 68.0 L 49.0 68.0 L 50.0 68.0 L 51.0 68.0 L 52.0 67.66666666666667 L 52.5 67.5 Z" stroke="none" fill="rgb(57,53,49)" />
<path d="M 18.0 77.5 L 18.0 77.0 L 18.0 76.0 L 18.0 75.0 L 18.0 74.0 L 18.0 73.0 L 18.0 72.0 L 18.0 71.0 L 18.0 70.0 L 18.0 69.0 L 18.0 68.0 L 18.0 67.0 L 18.0 66.0 L 18.0 65.0 L 18.0 64.0 L 18.0 63.0 L 18.0 62.0 L 18.0 61.0 L 17.666666666666668 60.0 L 17.0 59.333333333333336 L 16.0 59.333333333333336 L 15.0 59.666666666666664 L 14.0 60.0 L 13.0 60.333333333333336 L 12.0 61.0 L 11.0 62.0 L 10.333333333333334 63.0 L 9.666666666666666 64.0 L 9.333333333333334 65.0 L 9.0 66.0 L 9.0 67.0 L 9.0 68.0 L 9.0 69.0 L 9.0 70.0 L 9.0 71.0 L 9.333333333333334 72.0 L 10.0 73.0 L 11.0 74.0 L 12.0 75.0 L 13.0 76.0 L 14.0 77.0 L 15.0 77.66666666666667 L 16.0 78.0 L 17.0 78.0 L 17.5 78.0 Z" stroke="none" fill="rgb(255,205,136)" />
<path d="M 110.5 78.0 L 111.0 78.0 L 112.0 78.0 L 113.0 78.0 L 114.0 77.66666666666667 L 115.0 77.0 L 116.0 76.0 L 117.0 75.0 L 117.66666666666667 74.0 L 118.33333333333333 73.0 L 118.66666666666667 72.0 L 119.0 71.0 L 119.0 70.0 L 119.0 69.0 L 119.0 68.0 L 118.66666666666667 67.0 L 118.33333333333333 66.0 L 118.0 65.0 L 117.66666666666667 64.0 L 117.0 63.0 L 116.0 62.0 L 115.0 61.0 L 114.0 60.333333333333336 L 113.0 60.0 L 112.0 60.0 L 111.0 60.0 L 110.33333333333333 60.333333333333336 L 110.0 61.0 L 110.0 62.0 L 110.0 63.0 L 110.0 64.0 L 110.0 65.0 L 110.0 66.0 L 110.0 67.0 L 110.0 68.0 L 110.0 69.0 L 110.0 70.0 L 110.0 71.0 L 110.0 72.0 L 110.0 73.0 L 110.0 74.0 L 110.0 75.0 L 110.0 76.0 L 110.0 77.0 L 110.0 77.5 Z" stroke="none" fill="rgb(255,205,136)" />
<path d="M 65.5 73.0 L 66.0 73.0 L 67.0 72.66666666666667 L 68.0 72.0 L 68.66666666666667 71.0 L 69.0 70.0 L 69.0 69.0 L 68.66666666666667 68.0 L 68.0 67.33333333333333 L 67.0 67.0 L 66.0 67.0 L 65.0 67.0 L 64.0 67.0 L 63.0 67.0 L 62.0 67.0 L 61.0 67.0 L 60.0 67.33333333333333 L 59.333333333333336 68.0 L 59.0 69.0 L 59.333333333333336 70.0 L 60.0 71.0 L 61.0 72.0 L 62.0 72.66666666666667 L 63.0 73.0 L 64.0 73.0 L 64.5 73.0 Z" stroke="none" fill="rgb(57,53,49)" />
<path d="M 59.5 91.0 L 60.0 91.0 L 61.0 91.0 L 62.0 91.0 L 63.0 91.0 L 64.0 91.0 L 65.0 91.0 L 66.0 91.0 L 67.0 91.0 L 68.0 91.0 L 69.0 91.0 L 70.0 91.0 L 71.0 91.0 L 72.0 91.0 L 73.0 91.0 L 74.0 91.0 L 75.0 91.0 L 76.0 90.66666666666667 L 77.0 90.33333333333333 L 78.0 90.0 L 79.0 89.66666666666667 L 80.0 89.0 L 81.0 88.0 L 82.0 87.0 L 83.0 86.0 L 83.66666666666667 85.0 L 84.0 84.0 L 84.0 83.0 L 84.0 82.0 L 84.0 81.0 L 83.66666666666667 80.0 L 83.0 79.0 L 82.0 78.33333333333333 L 81.0 78.0 L 80.0 77.66666666666667 L 79.0 77.33333333333333 L 78.0 77.0 L 77.0 77.0 L 76.0 77.0 L 75.0 77.0 L 74.0 77.0 L 73.0 77.0 L 72.0 77.0 L 71.0 77.0 L 70.0 77.0 L 69.0 77.0 L 68.0 77.0 L 67.0 77.0 L 66.0 77.0 L 65.0 77.0 L 64.0 77.0 L 63.0 77.0 L 62.0 77.0 L 61.0 77.0 L 60.0 77.0 L 59.0 77.0 L 58.0 77.0 L 57.0 77.0 L 56.0 77.0 L 55.0 77.0 L 54.0 77.0 L 53.0 77.0 L 52.0 77.33333333333333 L 51.0 77.66666666666667 L 50.0 78.0 L 49.0 78.0 L 48.0 78.33333333333333 L 47.0 78.66666666666667 L 46.0 79.33333333333333 L 45.0 79.66666666666667 L 44.333333333333336 80.33333333333333 L 44.0 81.0 L 44.0 82.0 L 44.0 83.0 L 44.0 84.0 L 44.333333333333336 85.0 L 45.0 86.0 L 46.0 87.0 L 47.0 88.0 L 48.0 88.66666666666667 L 49.0 89.0 L 50.0 89.33333333333333 L 51.0 89.66666666666667 L 52.0 90.0 L 53.0 90.0 L 54.0 90.33333333333333 L 55.0 90.66666666666667 L 56.0 91.0 L 57.0 91.0 L 58.0 91.0 L 58.5 91.0 Z" stroke="none" fill="rgb(255,107,23)" />
</svg>
