<?xml version="1.0" encoding="UTF-8" standalone="no"?>
<!DOCTYPE svg PUBLIC "-//W3C//DTD SVG 1.1//EN"
"http://www.w3.org/Graphics/SVG/1.1/DTD/svg11.dtd">
<svg width="128" height="128" xmlns="http://www.w3.org/2000/svg" version="1.1">
<path d="M 88.5 128.0 L 89.0 128.0 L 90.0 128.0 L 91.0 128.0 L 92.0 128.0 L 93.0 128.0 L 94.0 128.0 L 95.0 128.0 L 96.0 128.0 L 97.0 128.0 L 98.0 128.0 L 99.0 128.0 L 100.0 128.0 L 101.0 128.0 L 102.0 128.0 L 103.0 128.0 L 104.0 128.0 L 105.0 128.0 L 106.0 128.0 L 107.0 128.0 L 108.0 128.0 L 109.0 128.0 L 110.0 128.0 L 111.0 128.0 L 112.0 128.0 L 113.0 128.0 L 114.0 128.0 L 115.0 128.0 L 116.0 128.0 L 117.0 128.0 L 118.0 128.0 L 119.0 128.0 L 120.0 128.0 L 121.0 128.0 L 122.0 128.0 L 123.0 128.0 L 124.0 128.0 L 125.0 128.0 L 126.0 128.0 L 127.0 128.0 L 127.66666666666667 127.66666666666667 L 128.0 127.0 L 128.0 126.0 L 128.0 125.0 L 128.0 124.0 L 128.0 123.0 L 128.0 122.0 L 128.0 121.0 L 128.0 120.0 L 128.0 119.0 L 128.0 118.0 L 128.0 117.0 L 128.0 116.0 L 128.0 115.0 L 128.0 114.0 L 128.0 113.0 L 128.0 112.0 L 128.0 111.0 L 128.0 110.0 L 128.0 109.0 L 128.0 108.0 L 128.0 107.0 L 128.0 106.0 L 128.0 105.0 L 128.0 104.0 L 128.0 103.0 L 128.0 102.0 L 128.0 101.0 L 128.0 100.0 L 128.0 99.0 L 128.0 98.0 L 128.0 97.0 L 128.0 96.0 L 128.0 95.0 L 128.0 94.0 L 128.0 93.0 L 128.0 92.0 L 128.0 91.0 L 128.0 90.0 L 128.0 89.0 L 128.0 88.0 L 128.0 87.0 L 128.0 86.0 L 128.0 85.0 L 128.0 84.0 L 128.0 83.0 L 128.0 82.0 L 128.0 81.0 L 128.0 80.0 L 128.0 79.0 L 128.0 78.0 L 128.0 77.0 L 128.0 76.0 L 128.0 75.0 L 128.0 74.0 L 128.0 73.0 L 128.0 72.0 L 128.0 71.0 L 128.0 70.0 L 128.0 69.0 L 128.0 68.0 L 128.0 67.0 L 128.0 66.0 L 128.0 65.0 L 128.0 64.0 L 128.0 63.0 L 128.0 62.0 L 128.0 61.0 L 128.0 60.0 L 128.0 59.0 L 128.0 58.0 L 128.0 57.0 L 128.0 56.0 L 128.0 55.0 L 128.0 54.0 L 128.0 53.0 L 128.0 52.0 L 128.0 51.0 L 128.0 50.0 L 128.0 49.0 L 128.0 48.0 L 128.0 47.0 L 128.0 46.0 L 128.0 45.0 L 128.0 44.0 L 128.0 43.0 L 128.0 42.0 L 128.0 41.0 L 128.0 40.0 L 128.0 39.0 L 128.0 38.0 L 128.0 37.0 L 128.0 36.0 L 128.0 35.0 L 128.0 34.0 L 128.0 33.0 L 128.0 32.0 L 128.0 31.0 L 128.0 30.0 L 128.0 29.0 L 128.0 28.0 L 128.0 27.0 L 128.0 26.0 L 128.0 25.0 L 128.0 24.0 L 128.0 23.0 L 128.0 22.0 L 128.0 21.0 L 128.0 20.0 L 128.0 19.0 L 128.0 18.0 L 128.0 17.0 L 128.0 16.0 L 128.0 15.0 L 128.0 14.0 L 128.0 13.0 L 128.0 12.0 L 128.0 11.0 L 128.0 10.0 L 128.0 9.0 L 128.0 8.0 L 128.0 7.0 L 128.0 6.0 L 128.0 5.0 L 128.0 4.0 L 128.0 3.0 L 128.0 2.0 L 128.0 1.0 L 127.66666666666667 0.3333333333333333 L 127.0 0.0 L 126.0 0.0 L 125.0 0.0 L 124.0 0.0 L 123.0 0.0 L 122.0 0.0 L 121.0 0.0 L 120.0 0.0 L 119.0 0.0 L 118.0 0.0 L 117.0 0.0 L 116.0 0.0 L 115.0 0.0 L 114.0 0.0 L 113.0 0.0 L 112.0 0.0 L 111.0 0.0 L 110.0 0.0 L 109.0 0.0 L 108.0 0.0 L 107.0 0.0 L 106.0 0.0 L 105.0 0.0 L 104.0 0.0 L 103.0 0.0 L 102.0 0.0 L 101.0 0.0 L 100.0 0.0 L 99.0 0.0 L 98.0 0.0 L 97.0 0.0 L 96.0 0.0 L 95.0 0.0 L 94.0 0.0 L 93.0 0.0 L 92.0 0.0 L 91.0 0.0 L 90.0 0.0 L 89.0 0.0 L 88.0 0.0 L 87.0 0.0 L 86.0 0.0 L 85.0 0.0 L 84.0 0.0 L 83.0 0.0 L 82.0 0.0 L 81.0 0.0 L 80.0 0.0 L 79.0 0.0 L 78.0 0.0 L 77.0 0.0 L 76.0 0.0 L 75.0 0.0 L 74.0 0.0 L 73.0 0.0 L 72.0 0.0 L 71.0 0.0 L 70.0 0.0 L 69.0 0.0 L 68.0 0.0 L 67.0 0.0 L 66.0 0.0 L 65.0 0.0 L 64.0 0.0 L 63.0 0.0 L 62.0 0.0 L 61.0 0.0 L 60.0 0.0 L 59.0 0.0 L 58.0 0.0 L 57.0 0.0 L 56.0 0.0 L 55.0 0.0 L 54.0 0.0 L 53.0 0.0 L 52.0 0.0 L 51.0 0.0 L 50.0 0.0 L 49.0 0.0 L 48.0 0.0 L 47.0 0.0 L 46.0 0.0 L 45.0 0.0 L 44.0 0.0 L 43.0 0.0 L 42.0 0.0 L 41.0 0.0 L 40.0 0.0 L 39.0 0.0 L 38.0 0.0 L 37.0 0.0 L 36.0 0.0 L 35.0 0.0 L 34.0 0.0 L 33.0 0.0 L 32.0 0.0 L 31.0 0.0 L 30.0 0.0 L 29.0 0.0 L 28.0 0.0 L 27.0 0.0 L 26.0 0.0 L 25.0 0.0 L 24.0 0.0 L 23.0 0.0 L 22.0 0.0 L 21.0 0.0 L 20.0 0.0 L 19.0 0.0 L 18.0 0.0 L 17.0 0.0 L 16.0 0.0 L 15.0 0.0 L 14.0 0.0 L 13.0 0.0 L 12.0 0.0 L 11.0 0.0 L 10.0 0.0 L 9.0 0.0 L 8.0 0.0 L 7.0 0.0 L 6.0 0.0 L 5.0 0.0 L 4.0 0.0 L 3.0 0.0 L 2.0 0.0 L 1.0 0.0 L 0.3333333333333333 0.3333333333333333 L 0.0 1.0 L 0.0 2.0 L 0.0 3.0 L 0.0 4.0 L 0.0 5.0 L 0.0 6.0 L 0.0 7.0 L 0.0 8.0 L 0.0 9.0 L 0.0 10.0 L 0.0 11.0 L 0.0 12.0 L 0.0 13.0 L 0.0 14.0 L 0.0 15.0 L 0.0 16.0 L 0.0 17.0 L 0.0 18.0 L 0.0 19.0 L 0.0 20.0 L 0.0 21.0 L 0.0 22.0 L 0.0 23.0 L 0.0 24.0 L 0.0 25.0 L 0.0 26.0 L 0.0 27.0 L 0.0 28.0 L 0.0 29.0 L 0.0 30.0 L 0.0 31.0 L 0.0 32.0 L 0.0 33.0 L 0.0 34.0 L 0.0 35.0 L 0.0 36.0 L 0.0 37.0 L 0.0 38.0 L 0.0 39.0 L 0.0 40.0 L 0.0 41.0 L 0.0 42.0 L 0.0 43.0 L 0.0 44.0 L 0.0 45.0 L 0.0 46.0 L 0.0 47.0 L 0.0 48.0 L 0.0 49.0 L 0.0 50.0 L 0.0 51.0 L 0.0 52.0 L 0.0 53.0 L 0.0 54.0 L 0.0 55.0 L 0.0 56.0 L 0.0 57.0 L 0.0 58.0 L 0.0 59.0 L 0.0 60.0 L 0.0 61.0 L 0.0 62.0 L 0.0 63.0 L 0.0 64.0 L 0.0 65.0 L 0.0 66.0 L 0.0 67.0 L 0.0 68.0 L 0.0 69.0 L 0.0 70.0 L 0.0 71.0 L 0.0 72.0 L 0.0 73.0 L 0.0 74.0 L 0.0 75.0 L 0.0 76.0 L 0.0 77.0 L 0.0 78.0 L 0.0 79.0 L 0.0 80.0 L 0.0 81.0 L 0.0 82.0 L 0.0 83.0 L 0.0 84.0 L 0.0 85.0 L 0.0 86.0 L 0.0 87.0 L 0.0 88.0 L 0.0 89.0 L 0.0 90.0 L 0.0 91.0 L 0.0 92.0 L 0.0 93.0 L 0.0 94.0 L 0.0 95.0 L 0.0 96.0 L 0.0 97.0 L 0.0 98.0 L 0.0 99.0 L 0.0 100.0 L 0.0 101.0 L 0.0 102.0 L 0.0 103.0 L 0.0 104.0 L 0.0 105.0 L 0.0 106.0 L 0.0 107.0 L 0.0 108.0 L 0.0 109.0 L 0.0 110.0 L 0.0 111.0 L 0.0 112.0 L 0.0 113.0 L 0.0 114.0 L 0.0 115.0 L 0.0 116.0 L 0.0 117.0 L 0.0 118.0 L 0.0 119.0 L 0.0 120.0 L 0.0 121.0 L 0.0 122.0 L 0.0 123.0 L 0.0 124.0 L 0.0 125.0 L 0.0 126.0 L 0.0 127.0 L 0.3333333333333333 127.66666666666667 L 1.0 128.0 L 2.0 128.0 L 3.0 128.0 L 4.0 128.0 L 5.0 128.0 L 6.0 128.0 L 7.0 128.0 L 8.0 128.0 L 9.0 128.0 L 10.0 128.0 L 11.0 128.0 L 12.0 128.0 L 13.0 128.0 L 14.0 128.0 L 15.0 128.0 L 16.0 128.0 L 17.0 128.0 L 18.0 128.0 L 19.0 128.0 L 20.0 128.0 L 21.0 128.0 L 22.0 128.0 L 23.0 128.0 L 24.0 128.0 L 25.0 128.0 L 26.0 128.0 L 27.0 128.0 L 28.0 128.0 L 29.0 128.0 L 30.0 128.0 L 31.0 128.0 L 32.0 128.0 L 33.0 128.0 L 34.0 128.0 L 35.0 128.0 L 36.0 128.0 L 37.0 128.0 L 38.0 128.0 L 39.0 128.0 L 40.0 128.0 L 41.0 128.0 L 42.0 128.0 L 43.0 128.0 L 44.0 128.0 L 45.0 128.0 L 46.0 128.0 L 47.0 128.0 L 48.0 128.0 L 49.0 128.0 L 50.0 128.0 L 51.0 128.0 L 52.0 128.0 L 53.0 128.0 L 54.0 128.0 L 55.0 128.0 L 56.0 128.0 L 57.0 128.0 L 58.0 128.0 L 59.0 128.0 L 60.0 128.0 L 61.0 128.0 L 62.0 128.0 L 63.0 128.0 L 64.0 128.0 L 65.0 128.0 L 66.0 128.0 L 67.0 128.0 L 68.0 128.0 L 69.0 128.0 L 70.0 128.0 L 71.0 128.0 L 72.0 128.0 L 73.0 128.0 L 74.0 128.0 L 75.0 128.0 L 76.0 128.0 L 77.0 128.0 L 78.0 128.0 L 79.0 128.0 L 80.0 128.0 L 81.0 128.0 L 82.0 128.0 L 83.0 128.0 L 84.0 128.0 L 85.0 128.0 L 86.0 128.0 L 87.0 128.0 L 87.5 128.0 Z" stroke="none" fill="rgb(255,255,255)" />
<path d="M 58.5 33.5 L 59.0 33.333333333333336 L 60.0 33.0 L 61.0 32.666666666666664 L 62.0 32.333333333333336 L 63.0 32.0 L 64.0 32.0 L 65.0 32.0 L 66.0 32.0 L 67.0 32.0 L 68.0 32.333333333333336 L 69.0 32.666666666666664 L 70.0 33.333333333333336 L 71.0 34.0 L 72.0 35.0 L 73.0 35.666666666666664 L 74.0 36.333333333333336 L 75.0 36.666666666666664 L 76.0 37.0 L 77.0 37.333333333333336 L 78.0 37.666666666666664 L 79.0 38.333333333333336 L 80.0 39.0 L 81.0 40.0 L 82.0 41.0 L 83.0 42.0 L 83.66666666666667 43.0 L 84.33333333333333 44.0 L 84.66666666666667 45.0 L 85.0 46.0 L 85.33333333333333 47.0 L 85.66666666666667 48.0 L 86.0 49.0 L 86.0 50.0 L 86.0 51.0 L 86.0 52.0 L 86.33333333333333 53.0 L 86.66666666666667 54.0 L 87.0 55.0 L 87.0 56.0 L 87.0 57.0 L 87.0 58.0 L 87.0 59.0 L 87.0 60.0 L 87.0 61.0 L 87.33333333333333 62.0 L 87.66666666666667 63.0 L 88.33333333333333 64.0 L 89.0 64.66666666666667 L 90.0 64.66666666666667 L 90.66666666666667 64.0 L 91.0 63.0 L 91.33333333333333 62.0 L 91.66666666666667 61.0 L 92.33333333333333 60.0 L 93.0 59.666666666666664 L 93.66666666666667 60.0 L 94.0 61.0 L 94.33333333333333 61.666666666666664 L 95.0 62.0 L 95.66666666666667 61.666666666666664 L 96.0 61.0 L 96.0 60.0 L 96.0 59.0 L 96.0 58.0 L 95.66666666666667 57.0 L 95.33333333333333 56.0 L 95.0 55.0 L 95.0 54.0 L 95.0 53.0 L 95.0 52.0 L 95.0 51.0 L 95.0 50.0 L 95.0 49.0 L 95.0 48.0 L 95.0 47.0 L 95.0 46.0 L 95.0 45.0 L 95.0 44.0 L 95.0 43.0 L 94.66666666666667 42.0 L 94.33333333333333 41.0 L 94.0 40.0 L 94.0 39.0 L 93.66666666666667 38.0 L 93.33333333333333 37.0 L 93.0 36.0 L 92.66666666666667 35.0 L 92.33333333333333 34.0 L 91.66666666666667 33.0 L 91.33333333333333 32.0 L 90.66666666666667 31.0 L 90.33333333333333 30.0 L 89.66666666666667 29.0 L 89.0 28.0 L 88.33333333333333 27.0 L 87.66666666666667 26.0 L 87.0 25.0 L 86.0 24.0 L 85.0 23.0 L 84.0 22.333333333333332 L 83.0 22.0 L 82.0 22.0 L 81.0 21.666666666666668 L 80.0 21.0 L 79.0 20.0 L 78.0 19.0 L 77.33333333333333 18.0 L 76.66666666666667 17.0 L 76.0 16.333333333333332 L 75.0 15.666666666666666 L 74.0 15.0 L 73.0 14.0 L 72.0 13.333333333333334 L 71.0 12.666666666666666 L 70.0 12.0 L 69.0 11.333333333333334 L 68.0 10.666666666666666 L 67.0 10.333333333333334 L 66.0 10.0 L 65.0 9.666666666666666 L 64.0 9.333333333333334 L 63.0 9.0 L 62.0 8.666666666666666 L 61.0 8.333333333333334 L 60.0 8.0 L 59.0 8.0 L 58.0 7.666666666666667 L 57.0 7.333333333333333 L 56.0 7.0 L 55.0 7.0 L 54.0 7.0 L 53.0 6.666666666666667 L 52.0 6.333333333333333 L 51.0 6.0 L 50.0 6.333333333333333 L 49.0 6.666666666666667 L 48.0 7.0 L 47.333333333333336 7.333333333333333 L 46.666666666666664 8.0 L 46.333333333333336 9.0 L 45.666666666666664 10.0 L 45.0 11.0 L 44.0 12.0 L 43.0 12.666666666666666 L 42.0 13.333333333333334 L 41.0 13.666666666666666 L 40.0 14.0 L 39.0 14.0 L 38.0 14.0 L 37.0 14.0 L 36.0 13.666666666666666 L 35.0 13.333333333333334 L 34.0 12.666666666666666 L 33.333333333333336 12.0 L 32.666666666666664 11.0 L 32.0 10.333333333333334 L 31.0 10.0 L 30.0 10.333333333333334 L 29.333333333333332 11.0 L 29.0 12.0 L 29.0 13.0 L 29.0 14.0 L 29.0 15.0 L 29.0 16.0 L 28.666666666666668 17.0 L 28.0 18.0 L 27.0 19.0 L 26.0 20.0 L 25.333333333333332 21.0 L 24.666666666666668 22.0 L 24.333333333333332 23.0 L 23.666666666666668 24.0 L 23.333333333333332 25.0 L 23.0 26.0 L 23.0 27.0 L 23.0 28.0 L 23.0 29.0 L 23.333333333333332 30.0 L 23.666666666666668 31.0 L 23.666666666666668 32.0 L 23.0 33.0 L 22.333333333333332 34.0 L 21.666666666666668 35.0 L 21.333333333333332 36.0 L 20.666666666666668 37.0 L 20.333333333333332 38.0 L 20.0 39.0 L 20.0 40.0 L 20.0 41.0 L 20.0 42.0 L 20.0 43.0 L 20.0 44.0 L 20.0 45.0 L 20.0 46.0 L 20.0 47.0 L 20.0 48.0 L 20.0 49.0 L 20.0 50.0 L 19.666666666666668 51.0 L 19.0 51.666666666666664 L 18.333333333333332 52.333333333333336 L 18.0 53.0 L 17.666666666666668 54.0 L 17.333333333333332 55.0 L 17.0 56.0 L 17.0 57.0 L 17.0 58.0 L 17.0 59.0 L 17.0 60.0 L 17.0 61.0 L 17.333333333333332 61.666666666666664 L 18.0 61.666666666666664 L 18.666666666666668 61.0 L 19.0 60.0 L 19.0 59.0 L 19.333333333333332 58.0 L 20.0 57.666666666666664 L 20.666666666666668 58.0 L 21.0 59.0 L 21.0 60.0 L 21.0 61.0 L 21.333333333333332 62.0 L 21.666666666666668 63.0 L 22.0 64.0 L 22.0 65.0 L 22.333333333333332 66.0 L 23.0 66.66666666666667 L 24.0 67.0 L 24.666666666666668 66.66666666666667 L 25.0 66.0 L 25.0 65.0 L 25.333333333333332 64.0 L 25.666666666666668 63.0 L 26.0 62.0 L 26.0 61.0 L 26.333333333333332 60.0 L 26.666666666666668 59.0 L 27.0 58.0 L 27.0 57.0 L 27.0 56.0 L 27.333333333333332 55.0 L 27.666666666666668 54.0 L 28.0 53.0 L 28.0 52.0 L 28.0 51.0 L 28.333333333333332 50.0 L 28.666666666666668 49.0 L 29.333333333333332 48.0 L 30.0 47.333333333333336 L 31.0 47.0 L 32.0 47.0 L 33.0 46.666666666666664 L 34.0 46.333333333333336 L 35.0 46.0 L 36.0 45.666666666666664 L 37.0 45.333333333333336 L 38.0 44.666666666666664 L 39.0 44.333333333333336 L 40.0 43.666666666666664 L 41.0 43.333333333333336 L 42.0 43.0 L 43.0 42.666666666666664 L 44.0 42.0 L 45.0 41.333333333333336 L 46.0 40.666666666666664 L 47.0 40.333333333333336 L 48.0 39.666666666666664 L 49.0 39.0 L 50.0 38.333333333333336 L 51.0 37.666666666666664 L 52.0 37.0 L 53.0 36.333333333333336 L 54.0 35.666666666666664 L 55.0 35.0 L 56.0 34.333333333333336 L 57.0 34.0 L 57.5 34.0 Z" stroke="none" fill="rgb(49,45,45)" />
<path d="M 59.5 96.0 L 60.0 96.0 L 61.0 96.0 L 62.0 96.0 L 63.0 96.33333333333333 L 64.0 96.66666666666667 L 65.0 96.66666666666667 L 66.0 96.0 L 67.0 95.33333333333333 L 68.0 95.0 L 69.0 94.66666666666667 L 70.0 94.33333333333333 L 71.0 93.66666666666667 L 72.0 93.0 L 73.0 92.33333333333333 L 74.0 92.0 L 75.0 92.0 L 75.66666666666667 91.66666666666667 L 76.0 91.0 L 76.33333333333333 90.0 L 77.0 89.0 L 78.0 88.0 L 79.0 87.0 L 80.0 86.0 L 81.0 85.0 L 82.0 84.0 L 82.66666666666667 83.0 L 83.33333333333333 82.0 L 84.0 81.0 L 84.66666666666667 80.0 L 85.33333333333333 79.0 L 85.66666666666667 78.0 L 86.33333333333333 77.0 L 86.66666666666667 76.0 L 87.0 75.0 L 87.33333333333333 74.0 L 87.66666666666667 73.0 L 88.0 72.0 L 88.33333333333333 71.0 L 88.66666666666667 70.0 L 89.0 69.0 L 89.0 68.0 L 89.0 67.0 L 89.0 66.0 L 89.0 65.0 L 88.66666666666667 64.0 L 88.33333333333333 63.0 L 87.66666666666667 62.0 L 87.33333333333333 61.0 L 87.0 60.0 L 87.0 59.0 L 87.0 58.0 L 87.0 57.0 L 87.0 56.0 L 87.0 55.0 L 87.0 54.0 L 86.66666666666667 53.0 L 86.33333333333333 52.0 L 86.0 51.0 L 86.0 50.0 L 86.0 49.0 L 86.0 48.0 L 85.66666666666667 47.0 L 85.33333333333333 46.0 L 85.0 45.0 L 84.66666666666667 44.0 L 84.33333333333333 43.0 L 83.66666666666667 42.0 L 83.0 41.0 L 82.0 40.0 L 81.0 39.0 L 80.0 38.333333333333336 L 79.0 37.666666666666664 L 78.0 37.333333333333336 L 77.0 37.0 L 76.0 36.666666666666664 L 75.0 36.333333333333336 L 74.0 35.666666666666664 L 73.0 35.0 L 72.0 34.0 L 71.0 33.333333333333336 L 70.0 32.666666666666664 L 69.0 32.333333333333336 L 68.0 32.0 L 67.0 32.0 L 66.0 32.0 L 65.0 32.0 L 64.0 32.0 L 63.0 32.0 L 62.0 32.0 L 61.0 32.333333333333336 L 60.0 32.666666666666664 L 59.0 33.0 L 58.0 33.333333333333336 L 57.0 33.666666666666664 L 56.0 34.0 L 55.0 34.333333333333336 L 54.0 35.0 L 53.0 35.666666666666664 L 52.0 36.333333333333336 L 51.0 37.0 L 50.0 37.666666666666664 L 49.0 38.333333333333336 L 48.0 39.0 L 47.0 39.666666666666664 L 46.0 40.333333333333336 L 45.0 40.666666666666664 L 44.0 41.333333333333336 L 43.0 42.0 L 42.0 42.666666666666664 L 41.0 43.0 L 40.0 43.333333333333336 L 39.0 43.666666666666664 L 38.0 44.333333333333336 L 37.0 44.666666666666664 L 36.0 45.333333333333336 L 35.0 45.666666666666664 L 34.0 46.0 L 33.0 46.333333333333336 L 32.0 46.666666666666664 L 31.0 47.0 L 30.0 47.0 L 29.333333333333332 47.333333333333336 L 28.666666666666668 48.0 L 28.333333333333332 49.0 L 28.0 50.0 L 28.0 51.0 L 28.0 52.0 L 27.666666666666668 53.0 L 27.333333333333332 54.0 L 27.0 55.0 L 27.0 56.0 L 27.0 57.0 L 26.666666666666668 58.0 L 26.333333333333332 59.0 L 26.0 60.0 L 26.0 61.0 L 25.666666666666668 62.0 L 25.333333333333332 63.0 L 25.0 64.0 L 25.0 65.0 L 24.666666666666668 66.0 L 24.333333333333332 67.0 L 24.0 68.0 L 24.0 69.0 L 24.0 70.0 L 24.0 71.0 L 24.333333333333332 72.0 L 24.666666666666668 73.0 L 25.333333333333332 74.0 L 25.666666666666668 75.0 L 26.0 76.0 L 26.333333333333332 77.0 L 27.0 78.0 L 27.666666666666668 79.0 L 28.333333333333332 80.0 L 28.666666666666668 81.0 L 29.333333333333332 82.0 L 30.0 83.0 L 31.0 84.0 L 32.0 85.0 L 33.0 86.0 L 34.0 87.0 L 35.0 88.0 L 36.0 89.0 L 37.0 90.0 L 38.0 91.0 L 39.0 91.66666666666667 L 40.0 92.33333333333333 L 41.0 93.0 L 42.0 93.66666666666667 L 43.0 94.0 L 44.0 94.33333333333333 L 45.0 94.66666666666667 L 46.0 95.33333333333333 L 47.0 96.0 L 48.0 96.66666666666667 L 49.0 96.66666666666667 L 50.0 96.33333333333333 L 51.0 96.0 L 52.0 96.0 L 53.0 96.0 L 54.0 96.0 L 55.0 96.0 L 56.0 96.0 L 57.0 96.0 L 58.0 96.0 L 58.5 96.0 Z" stroke="none" fill="rgb(249,221,189)" />
<path d="M 24.5 124.0 L 25.0 124.0 L 26.0 124.0 L 27.0 124.0 L 28.0 124.0 L 29.0 124.0 L 30.0 124.0 L 31.0 124.0 L 32.0 124.0 L 33.0 124.0 L 34.0 124.0 L 35.0 124.0 L 36.0 124.0 L 37.0 124.0 L 38.0 124.0 L 39.0 124.0 L 40.0 124.0 L 41.0 124.0 L 42.0 124.0 L 43.0 124.0 L 44.0 124.0 L 45.0 124.0 L 46.0 124.0 L 46.666666666666664 123.66666666666667 L 47.0 123.0 L 47.0 122.0 L 47.0 121.0 L 47.0 120.0 L 47.0 119.0 L 47.0 118.0 L 47.0 117.0 L 47.0 116.0 L 47.0 115.0 L 47.0 114.0 L 47.0 113.0 L 47.0 112.0 L 47.0 111.0 L 46.666666666666664 110.0 L 46.0 109.33333333333333 L 45.0 108.66666666666667 L 44.0 108.33333333333333 L 43.0 107.66666666666667 L 42.0 107.0 L 41.0 106.0 L 40.0 105.0 L 39.0 104.0 L 38.333333333333336 103.0 L 37.666666666666664 102.0 L 37.333333333333336 101.0 L 37.0 100.0 L 37.0 99.0 L 37.0 98.0 L 36.666666666666664 97.33333333333333 L 36.0 97.0 L 35.0 97.0 L 34.0 97.0 L 33.0 97.0 L 32.0 97.33333333333333 L 31.0 97.66666666666667 L 30.0 98.0 L 29.0 98.0 L 28.0 98.33333333333333 L 27.0 98.66666666666667 L 26.0 99.0 L 25.0 99.0 L 24.0 99.33333333333333 L 23.0 99.66666666666667 L 22.0 100.33333333333333 L 21.0 100.66666666666667 L 20.0 101.0 L 19.0 101.33333333333333 L 18.0 101.66666666666667 L 17.0 102.33333333333333 L 16.0 102.66666666666667 L 15.0 103.33333333333333 L 14.0 103.66666666666667 L 13.0 104.33333333333333 L 12.0 105.0 L 11.0 106.0 L 10.0 107.0 L 9.0 108.0 L 8.0 109.0 L 7.0 110.0 L 6.333333333333333 111.0 L 5.666666666666667 112.0 L 5.333333333333333 113.0 L 4.666666666666667 114.0 L 4.333333333333333 115.0 L 4.0 116.0 L 4.0 117.0 L 4.0 118.0 L 4.0 119.0 L 4.0 120.0 L 4.0 121.0 L 4.0 122.0 L 4.0 123.0 L 4.333333333333333 123.66666666666667 L 5.0 124.0 L 6.0 124.0 L 7.0 124.0 L 8.0 124.0 L 9.0 124.0 L 10.0 124.0 L 11.0 124.0 L 12.0 124.0 L 13.0 124.0 L 14.0 124.0 L 15.0 124.0 L 16.0 124.0 L 17.0 124.0 L 18.0 124.0 L 19.0 124.0 L 20.0 124.0 L 21.0 124.0 L 22.0 124.0 L 23.0 124.0 L 23.5 124.0 Z" stroke="none" fill="rgb(222,222,222)" />
<path d="M 48.5 124.0 L 49.0 124.0 L 50.0 124.0 L 51.0 124.0 L 52.0 124.0 L 53.0 124.0 L 54.0 124.0 L 55.0 124.0 L 56.0 124.0 L 57.0 124.0 L 58.0 124.0 L 59.0 124.0 L 60.0 124.0 L 61.0 124.0 L 62.0 124.0 L 63.0 124.0 L 64.0 124.0 L 65.0 124.0 L 66.0 124.0 L 67.0 124.0 L 68.0 124.0 L 69.0 124.0 L 70.0 124.0 L 71.0 124.0 L 72.0 124.0 L 73.0 124.0 L 74.0 124.0 L 75.0 124.0 L 76.0 124.0 L 76.66666666666667 123.66666666666667 L 77.0 123.0 L 77.0 122.0 L 77.0 121.0 L 77.0 120.0 L 77.0 119.0 L 77.0 118.0 L 77.0 117.0 L 77.33333333333333 116.0 L 77.66666666666667 115.0 L 78.0 114.0 L 78.0 113.0 L 78.33333333333333 112.0 L 78.66666666666667 111.0 L 79.33333333333333 110.0 L 79.66666666666667 109.0 L 80.33333333333333 108.0 L 80.66666666666667 107.0 L 81.0 106.0 L 81.33333333333333 105.0 L 82.0 104.0 L 82.66666666666667 103.0 L 83.33333333333333 102.0 L 83.66666666666667 101.0 L 84.0 100.0 L 84.0 99.0 L 83.66666666666667 98.33333333333333 L 83.0 98.0 L 82.0 98.0 L 81.0 97.66666666666667 L 80.0 97.33333333333333 L 79.0 97.0 L 78.0 97.0 L 77.0 97.0 L 76.0 97.0 L 75.0 96.66666666666667 L 74.0 96.33333333333333 L 73.33333333333333 96.33333333333333 L 73.0 97.0 L 72.66666666666667 98.0 L 72.33333333333333 99.0 L 72.0 100.0 L 72.0 101.0 L 71.66666666666667 102.0 L 71.33333333333333 103.0 L 70.66666666666667 104.0 L 70.33333333333333 105.0 L 70.0 106.0 L 70.0 107.0 L 70.33333333333333 108.0 L 71.0 109.0 L 72.0 110.0 L 73.0 111.0 L 73.66666666666667 112.0 L 74.33333333333333 113.0 L 74.66666666666667 114.0 L 75.0 115.0 L 74.66666666666667 116.0 L 74.0 116.33333333333333 L 73.0 116.33333333333333 L 72.0 115.66666666666667 L 71.0 115.33333333333333 L 70.0 115.0 L 69.0 114.66666666666667 L 68.0 114.33333333333333 L 67.0 114.0 L 66.0 114.0 L 65.0 114.0 L 64.0 114.0 L 63.0 114.33333333333333 L 62.333333333333336 115.0 L 62.0 116.0 L 62.0 117.0 L 61.666666666666664 118.0 L 61.333333333333336 119.0 L 60.666666666666664 120.0 L 60.0 120.33333333333333 L 59.333333333333336 120.0 L 58.666666666666664 119.0 L 58.333333333333336 118.0 L 58.0 117.0 L 58.0 116.0 L 57.666666666666664 115.0 L 57.333333333333336 114.0 L 57.0 113.0 L 57.0 112.0 L 56.666666666666664 111.33333333333333 L 56.0 111.0 L 55.0 111.0 L 54.0 111.0 L 53.0 111.0 L 52.0 110.66666666666667 L 51.0 110.33333333333333 L 50.0 110.0 L 49.0 110.33333333333333 L 48.0 110.66666666666667 L 47.333333333333336 111.33333333333333 L 47.0 112.0 L 47.0 113.0 L 47.0 114.0 L 47.0 115.0 L 47.0 116.0 L 47.0 117.0 L 47.0 118.0 L 47.0 119.0 L 47.0 120.0 L 47.0 121.0 L 47.0 122.0 L 47.0 123.0 L 47.333333333333336 123.66666666666667 L 47.5 124.0 Z" stroke="none" fill="rgb(211,211,211)" />
<path d="M 88.5 28.5 L 89.0 29.0 L 89.66666666666667 30.0 L 90.33333333333333 31.0 L 90.66666666666667 32.0 L 91.33333333333333 33.0 L 91.66666666666667 34.0 L 92.33333333333333 35.0 L 92.66666666666667 36.0 L 93.0 37.0 L 93.33333333333333 38.0 L 93.66666666666667 39.0 L 94.0 40.0 L 94.0 41.0 L 94.33333333333333 42.0 L 94.66666666666667 43.0 L 95.0 44.0 L 95.0 45.0 L 95.0 46.0 L 95.0 47.0 L 95.0 48.0 L 95.0 49.0 L 95.0 50.0 L 95.0 51.0 L 95.0 52.0 L 95.0 53.0 L 95.0 54.0 L 95.0 55.0 L 95.0 56.0 L 95.33333333333333 57.0 L 95.66666666666667 58.0 L 96.0 59.0 L 96.0 60.0 L 95.66666666666667 61.0 L 95.33333333333333 62.0 L 95.0 63.0 L 95.0 64.0 L 94.66666666666667 65.0 L 94.33333333333333 66.0 L 94.0 67.0 L 93.66666666666667 68.0 L 93.33333333333333 69.0 L 93.0 70.0 L 93.0 71.0 L 92.66666666666667 72.0 L 92.0 73.0 L 91.33333333333333 74.0 L 91.33333333333333 74.66666666666667 L 92.0 75.0 L 93.0 74.66666666666667 L 94.0 74.0 L 95.0 73.0 L 96.0 72.0 L 96.66666666666667 71.0 L 97.0 70.0 L 97.0 69.0 L 97.0 68.0 L 97.33333333333333 67.0 L 97.66666666666667 66.0 L 98.0 65.0 L 98.0 64.0 L 98.0 63.0 L 98.0 62.0 L 98.0 61.0 L 98.0 60.0 L 98.0 59.0 L 98.0 58.0 L 98.0 57.0 L 98.0 56.0 L 98.0 55.0 L 97.66666666666667 54.0 L 97.33333333333333 53.0 L 97.0 52.0 L 97.0 51.0 L 97.33333333333333 50.0 L 97.66666666666667 49.0 L 98.33333333333333 48.0 L 98.66666666666667 47.0 L 99.0 46.0 L 98.66666666666667 45.0 L 98.33333333333333 44.0 L 97.66666666666667 43.0 L 97.33333333333333 42.0 L 97.0 41.0 L 97.0 40.0 L 97.0 39.0 L 96.66666666666667 38.0 L 96.33333333333333 37.0 L 96.0 36.0 L 95.66666666666667 35.0 L 95.33333333333333 34.0 L 95.0 33.0 L 94.66666666666667 32.0 L 94.33333333333333 31.0 L 93.66666666666667 30.0 L 93.33333333333333 29.0 L 92.66666666666667 28.0 L 92.0 27.0 L 91.33333333333333 26.0 L 90.66666666666667 25.0 L 90.0 24.0 L 89.0 23.0 L 88.0 22.0 L 87.0 21.0 L 86.0 20.0 L 85.0 19.333333333333332 L 84.0 19.333333333333332 L 83.0 19.666666666666668 L 82.0 19.666666666666668 L 81.0 19.0 L 80.0 18.0 L 79.0 17.0 L 78.0 16.0 L 77.0 15.0 L 76.0 14.0 L 75.0 13.0 L 74.0 12.333333333333334 L 73.0 11.666666666666666 L 72.0 11.333333333333334 L 71.0 10.666666666666666 L 70.0 10.0 L 69.0 9.333333333333334 L 68.0 9.0 L 67.0 8.666666666666666 L 66.0 8.333333333333334 L 65.0 7.666666666666667 L 64.0 7.333333333333333 L 63.0 7.0 L 62.0 6.666666666666667 L 61.0 6.333333333333333 L 60.0 6.0 L 59.0 6.0 L 58.0 6.0 L 57.0 5.666666666666667 L 56.0 5.333333333333333 L 55.0 5.0 L 54.0 5.0 L 53.0 5.0 L 52.333333333333336 5.333333333333333 L 52.0 6.0 L 52.333333333333336 6.666666666666667 L 53.0 7.0 L 54.0 7.0 L 55.0 7.0 L 56.0 7.333333333333333 L 57.0 7.666666666666667 L 58.0 8.0 L 59.0 8.0 L 60.0 8.333333333333334 L 61.0 8.666666666666666 L 62.0 9.0 L 63.0 9.333333333333334 L 64.0 9.666666666666666 L 65.0 10.0 L 66.0 10.333333333333334 L 67.0 10.666666666666666 L 68.0 11.333333333333334 L 69.0 12.0 L 70.0 12.666666666666666 L 71.0 13.333333333333334 L 72.0 14.0 L 73.0 15.0 L 74.0 15.666666666666666 L 75.0 16.333333333333332 L 76.0 17.0 L 76.66666666666667 18.0 L 77.33333333333333 19.0 L 78.0 20.0 L 79.0 21.0 L 80.0 21.666666666666668 L 81.0 22.0 L 82.0 22.0 L 83.0 22.333333333333332 L 84.0 23.0 L 85.0 24.0 L 86.0 25.0 L 87.0 26.0 L 87.66666666666667 27.0 L 88.0 27.5 Z" stroke="none" fill="rgb(56,52,52)" />
<path d="M 94.5 124.0 L 95.0 124.0 L 96.0 124.0 L 97.0 124.0 L 98.0 124.0 L 99.0 124.0 L 100.0 124.0 L 101.0 124.0 L 102.0 124.0 L 103.0 124.0 L 104.0 124.0 L 105.0 124.0 L 106.0 124.0 L 107.0 124.0 L 108.0 124.0 L 109.0 124.0 L 110.0 124.0 L 111.0 124.0 L 112.0 124.0 L 113.0 124.0 L 114.0 124.0 L 115.0 124.0 L 116.0 124.0 L 117.0 124.0 L 118.0 124.0 L 119.0 124.0 L 120.0 123.66666666666667 L 120.66666666666667 123.0 L 121.33333333333333 122.0 L 121.66666666666667 121.0 L 122.0 120.0 L 121.66666666666667 119.33333333333333 L 121.0 119.0 L 120.0 119.0 L 119.0 119.0 L 118.0 119.0 L 117.0 119.0 L 116.0 119.0 L 115.0 119.0 L 114.0 119.0 L 113.0 119.0 L 112.0 119.33333333333333 L 111.0 120.0 L 110.0 120.66666666666667 L 109.0 121.33333333333333 L 108.0 121.66666666666667 L 107.0 121.66666666666667 L 106.0 121.33333333333333 L 105.0 120.66666666666667 L 104.0 120.0 L 103.0 119.33333333333333 L 102.0 119.0 L 101.0 119.0 L 100.0 119.0 L 99.0 119.0 L 98.0 119.0 L 97.0 119.0 L 96.0 119.0 L 95.0 119.0 L 94.0 119.0 L 93.0 119.0 L 92.0 119.0 L 91.0 119.0 L 90.0 119.0 L 89.0 119.0 L 88.0 119.0 L 87.0 119.0 L 86.0 119.0 L 85.0 119.0 L 84.0 119.0 L 83.0 119.0 L 82.0 118.66666666666667 L 81.0 118.33333333333333 L 80.0 118.0 L 79.0 118.0 L 78.0 118.0 L 77.33333333333333 118.33333333333333 L 77.0 119.0 L 77.0 120.0 L 77.0 121.0 L 77.0 122.0 L 77.0 123.0 L 77.33333333333333 123.66666666666667 L 78.0 124.0 L 79.0 124.0 L 80.0 124.0 L 81.0 124.0 L 82.0 124.0 L 83.0 124.0 L 84.0 124.0 L 85.0 124.0 L 86.0 124.0 L 87.0 124.0 L 88.0 124.0 L 89.0 124.0 L 90.0 124.0 L 91.0 124.0 L 92.0 124.0 L 93.0 124.0 L 93.5 124.0 Z" stroke="none" fill="rgb(195,150,108)" />
<path d="M 95.5 96.0 L 96.0 96.33333333333333 L 97.0 97.0 L 98.0 98.0 L 99.0 98.66666666666667 L 100.0 99.0 L 101.0 99.0 L 102.0 98.66666666666667 L 102.66666666666667 98.0 L 103.33333333333333 97.0 L 104.0 96.0 L 105.0 95.0 L 106.0 94.33333333333333 L 107.0 94.0 L 108.0 94.0 L 109.0 94.0 L 110.0 94.33333333333333 L 111.0 95.0 L 111.66666666666667 96.0 L 112.0 97.0 L 112.0 98.0 L 112.33333333333333 98.66666666666667 L 113.0 99.0 L 114.0 99.0 L 115.0 99.0 L 116.0 99.0 L 117.0 99.0 L 118.0 99.0 L 119.0 99.0 L 120.0 99.0 L 121.0 99.0 L 121.66666666666667 98.66666666666667 L 122.0 98.0 L 121.66666666666667 97.0 L 121.0 96.0 L 120.33333333333333 95.0 L 119.66666666666667 94.0 L 119.0 93.0 L 118.0 92.33333333333333 L 117.0 91.66666666666667 L 116.0 91.33333333333333 L 115.0 91.0 L 114.0 91.0 L 113.0 91.0 L 112.0 91.0 L 111.0 91.0 L 110.0 91.0 L 109.0 91.0 L 108.0 91.0 L 107.0 91.0 L 106.0 91.0 L 105.0 91.0 L 104.0 91.0 L 103.0 91.0 L 102.0 91.0 L 101.0 91.0 L 100.0 91.0 L 99.0 91.0 L 98.0 91.0 L 97.0 91.0 L 96.0 91.0 L 95.0 91.0 L 94.0 91.33333333333333 L 93.0 91.66666666666667 L 92.0 92.33333333333333 L 91.0 92.66666666666667 L 90.0 93.33333333333333 L 89.0 94.0 L 88.0 95.0 L 87.33333333333333 96.0 L 87.0 97.0 L 87.33333333333333 97.66666666666667 L 88.0 98.0 L 89.0 98.0 L 90.0 98.0 L 91.0 98.0 L 92.0 97.66666666666667 L 93.0 97.0 L 94.0 96.33333333333333 L 94.5 96.0 Z" stroke="none" fill="rgb(241,208,172)" />
<path d="M 95.5 113.0 L 96.0 113.0 L 97.0 113.0 L 98.0 113.0 L 99.0 113.0 L 100.0 113.0 L 101.0 113.0 L 102.0 113.0 L 103.0 113.0 L 104.0 113.33333333333333 L 105.0 113.66666666666667 L 106.0 114.0 L 107.0 114.0 L 108.0 114.0 L 109.0 114.0 L 110.0 113.66666666666667 L 111.0 113.33333333333333 L 111.66666666666667 112.66666666666667 L 111.66666666666667 112.0 L 111.0 111.0 L 110.0 110.0 L 109.33333333333333 109.0 L 109.0 108.0 L 109.0 107.0 L 108.66666666666667 106.33333333333333 L 108.0 106.0 L 107.0 106.0 L 106.0 106.0 L 105.0 106.0 L 104.0 106.0 L 103.0 106.0 L 102.0 106.0 L 101.0 106.0 L 100.0 106.0 L 99.0 106.0 L 98.0 105.66666666666667 L 97.0 105.33333333333333 L 96.0 105.0 L 95.0 105.0 L 94.0 105.0 L 93.0 105.33333333333333 L 92.0 105.66666666666667 L 91.0 106.0 L 90.0 106.0 L 89.0 106.0 L 88.0 106.0 L 87.0 106.0 L 86.0 106.0 L 85.0 106.0 L 84.0 106.0 L 83.0 106.0 L 82.0 106.0 L 81.0 106.33333333333333 L 80.33333333333333 107.0 L 79.66666666666667 108.0 L 79.33333333333333 109.0 L 78.66666666666667 110.0 L 78.33333333333333 111.0 L 78.0 112.0 L 78.33333333333333 112.66666666666667 L 79.0 113.0 L 80.0 113.0 L 81.0 113.0 L 82.0 113.0 L 83.0 113.0 L 84.0 113.0 L 85.0 113.0 L 86.0 113.0 L 87.0 113.0 L 88.0 113.0 L 89.0 113.0 L 90.0 113.0 L 91.0 113.0 L 92.0 113.0 L 93.0 113.0 L 94.0 113.0 L 94.5 113.0 Z" stroke="none" fill="rgb(217,176,135)" />
<path d="M 21.5 77.5 L 22.0 78.0 L 23.0 79.0 L 23.666666666666668 80.0 L 24.333333333333332 80.66666666666667 L 24.666666666666668 80.66666666666667 L 25.0 80.0 L 25.0 79.0 L 24.666666666666668 78.0 L 24.333333333333332 77.0 L 23.666666666666668 76.0 L 23.0 75.0 L 22.0 74.0 L 21.0 73.0 L 20.666666666666668 72.0 L 20.666666666666668 71.0 L 20.666666666666668 70.0 L 20.333333333333332 69.0 L 19.666666666666668 68.0 L 19.333333333333332 67.0 L 18.666666666666668 66.0 L 18.333333333333332 65.0 L 18.0 64.0 L 18.0 63.0 L 17.666666666666668 62.0 L 17.333333333333332 61.0 L 17.0 60.0 L 17.0 59.0 L 17.0 58.0 L 17.0 57.0 L 17.333333333333332 56.0 L 17.666666666666668 55.0 L 18.0 54.0 L 18.333333333333332 53.0 L 19.0 52.333333333333336 L 19.666666666666668 51.666666666666664 L 20.0 51.0 L 20.0 50.0 L 20.0 49.0 L 20.0 48.0 L 20.0 47.0 L 20.0 46.0 L 20.0 45.0 L 20.0 44.0 L 20.0 43.0 L 20.0 42.0 L 20.0 41.0 L 20.0 40.0 L 20.333333333333332 39.0 L 20.666666666666668 38.0 L 21.333333333333332 37.0 L 21.666666666666668 36.0 L 22.333333333333332 35.0 L 23.0 34.0 L 23.666666666666668 33.0 L 24.0 32.0 L 24.0 31.0 L 23.666666666666668 30.0 L 23.333333333333332 29.0 L 23.0 28.0 L 23.0 27.0 L 23.333333333333332 26.0 L 23.666666666666668 25.0 L 24.333333333333332 24.0 L 24.666666666666668 23.0 L 25.333333333333332 22.0 L 26.0 21.0 L 27.0 20.0 L 27.666666666666668 19.0 L 27.666666666666668 18.333333333333332 L 27.0 18.0 L 26.0 18.0 L 25.0 18.333333333333332 L 24.333333333333332 19.0 L 23.666666666666668 20.0 L 23.0 21.0 L 22.333333333333332 22.0 L 22.0 23.0 L 21.666666666666668 24.0 L 21.333333333333332 25.0 L 21.0 26.0 L 21.0 27.0 L 21.0 28.0 L 21.0 29.0 L 21.333333333333332 30.0 L 21.333333333333332 31.0 L 21.0 31.666666666666668 L 20.333333333333332 32.333333333333336 L 19.666666666666668 33.0 L 19.333333333333332 34.0 L 19.0 35.0 L 18.666666666666668 36.0 L 18.333333333333332 37.0 L 18.0 38.0 L 18.0 39.0 L 17.666666666666668 40.0 L 17.333333333333332 41.0 L 17.0 42.0 L 17.0 43.0 L 17.0 44.0 L 17.0 45.0 L 17.0 46.0 L 17.0 47.0 L 17.0 48.0 L 16.666666666666668 49.0 L 16.333333333333332 50.0 L 15.666666666666666 51.0 L 15.333333333333334 52.0 L 15.0 53.0 L 15.0 54.0 L 15.0 55.0 L 15.0 56.0 L 15.0 57.0 L 15.0 58.0 L 15.0 59.0 L 15.0 60.0 L 15.0 61.0 L 15.0 62.0 L 15.0 63.0 L 15.0 64.0 L 15.0 65.0 L 15.0 66.0 L 15.333333333333334 67.0 L 15.666666666666666 68.0 L 16.0 69.0 L 16.0 70.0 L 16.333333333333332 71.0 L 16.666666666666668 72.0 L 17.333333333333332 73.0 L 18.0 74.0 L 19.0 75.0 L 20.0 76.0 L 20.5 76.5 Z" stroke="none" fill="rgb(56,52,52)" />
<path d="M 84.5 20.0 L 85.0 20.333333333333332 L 86.0 21.0 L 87.0 22.0 L 88.0 23.0 L 89.0 24.0 L 90.0 25.0 L 90.66666666666667 26.0 L 91.33333333333333 27.0 L 92.0 28.0 L 92.66666666666667 29.0 L 93.33333333333333 30.0 L 93.66666666666667 31.0 L 94.33333333333333 32.0 L 94.66666666666667 33.0 L 95.0 34.0 L 95.33333333333333 35.0 L 95.66666666666667 36.0 L 96.0 37.0 L 96.33333333333333 38.0 L 96.66666666666667 39.0 L 97.0 40.0 L 97.0 41.0 L 97.0 42.0 L 97.33333333333333 43.0 L 97.66666666666667 44.0 L 98.33333333333333 44.666666666666664 L 99.0 44.666666666666664 L 99.66666666666667 44.0 L 100.0 43.0 L 100.0 42.0 L 100.0 41.0 L 100.0 40.0 L 100.0 39.0 L 100.0 38.0 L 99.66666666666667 37.0 L 99.0 36.0 L 98.33333333333333 35.0 L 98.0 34.0 L 97.66666666666667 33.0 L 97.33333333333333 32.0 L 96.66666666666667 31.0 L 96.33333333333333 30.0 L 95.66666666666667 29.0 L 95.33333333333333 28.0 L 94.66666666666667 27.0 L 94.33333333333333 26.0 L 93.66666666666667 25.0 L 93.0 24.0 L 92.0 23.0 L 91.33333333333333 22.0 L 90.66666666666667 21.0 L 90.0 20.0 L 89.0 19.0 L 88.0 18.0 L 87.0 17.0 L 86.0 16.333333333333332 L 85.0 16.0 L 84.33333333333333 16.333333333333332 L 83.66666666666667 17.0 L 83.0 17.333333333333332 L 82.0 17.0 L 81.0 16.0 L 80.0 15.0 L 79.0 14.0 L 78.0 13.333333333333334 L 77.0 12.666666666666666 L 76.0 12.0 L 75.0 11.333333333333334 L 74.0 10.666666666666666 L 73.0 10.0 L 72.0 9.333333333333334 L 71.0 8.666666666666666 L 70.0 8.333333333333334 L 69.0 7.666666666666667 L 68.0 7.333333333333333 L 67.0 7.0 L 66.0 6.666666666666667 L 65.0 6.333333333333333 L 64.0 5.666666666666667 L 63.0 5.0 L 62.0 4.333333333333333 L 61.0 4.0 L 60.0 4.0 L 59.0 4.0 L 58.0 4.0 L 57.0 4.0 L 56.333333333333336 4.333333333333333 L 56.0 5.0 L 56.333333333333336 5.666666666666667 L 57.0 6.0 L 58.0 6.0 L 59.0 6.0 L 60.0 6.333333333333333 L 61.0 6.666666666666667 L 62.0 7.0 L 63.0 7.333333333333333 L 64.0 7.666666666666667 L 65.0 8.333333333333334 L 66.0 8.666666666666666 L 67.0 9.0 L 68.0 9.333333333333334 L 69.0 10.0 L 70.0 10.666666666666666 L 71.0 11.333333333333334 L 72.0 11.666666666666666 L 73.0 12.333333333333334 L 74.0 13.0 L 75.0 14.0 L 76.0 15.0 L 77.0 16.0 L 78.0 17.0 L 79.0 18.0 L 80.0 19.0 L 81.0 20.0 L 82.0 20.666666666666668 L 83.0 20.666666666666668 L 83.5 20.5 Z" stroke="none" fill="rgb(62,58,58)" />
<path d="M 108.5 69.0 L 109.0 68.66666666666667 L 110.0 68.0 L 111.0 67.0 L 112.0 66.0 L 113.0 65.0 L 114.0 64.33333333333333 L 115.0 64.0 L 116.0 64.33333333333333 L 116.66666666666667 65.0 L 117.0 66.0 L 117.0 67.0 L 117.0 68.0 L 117.33333333333333 69.0 L 118.0 69.66666666666667 L 119.0 70.0 L 119.66666666666667 69.66666666666667 L 120.0 69.0 L 120.33333333333333 68.0 L 120.66666666666667 67.0 L 121.0 66.0 L 121.0 65.0 L 121.0 64.0 L 121.0 63.0 L 120.66666666666667 62.0 L 120.33333333333333 61.0 L 120.0 60.0 L 120.0 59.0 L 119.66666666666667 58.0 L 119.33333333333333 57.0 L 118.66666666666667 56.0 L 118.0 55.0 L 117.0 54.0 L 116.33333333333333 53.0 L 115.66666666666667 52.333333333333336 L 115.0 52.0 L 114.0 52.0 L 113.0 52.0 L 112.0 52.333333333333336 L 111.33333333333333 53.0 L 111.0 54.0 L 110.66666666666667 55.0 L 110.33333333333333 56.0 L 109.66666666666667 57.0 L 109.33333333333333 58.0 L 108.66666666666667 59.0 L 108.0 60.0 L 107.33333333333333 61.0 L 106.66666666666667 62.0 L 106.33333333333333 63.0 L 106.0 64.0 L 106.0 65.0 L 106.0 66.0 L 106.0 67.0 L 106.33333333333333 68.0 L 107.0 68.66666666666667 L 107.5 69.0 Z" stroke="none" fill="rgb(1,174,239)" />
<path d="M 107.5 106.0 L 108.0 106.0 L 109.0 106.0 L 110.0 105.66666666666667 L 111.0 105.0 L 112.0 104.33333333333333 L 113.0 103.66666666666667 L 114.0 103.33333333333333 L 115.0 103.0 L 116.0 103.33333333333333 L 117.0 104.0 L 118.0 105.0 L 119.0 105.66666666666667 L 120.0 106.0 L 121.0 106.0 L 122.0 106.0 L 123.0 106.0 L 123.66666666666667 105.66666666666667 L 124.0 105.0 L 124.0 104.0 L 124.0 103.0 L 124.0 102.0 L 123.66666666666667 101.0 L 123.33333333333333 100.0 L 122.66666666666667 99.33333333333333 L 122.0 99.0 L 121.0 99.0 L 120.0 99.0 L 119.0 99.0 L 118.0 99.0 L 117.0 99.0 L 116.0 99.0 L 115.0 99.0 L 114.0 99.0 L 113.0 99.0 L 112.0 99.33333333333333 L 111.0 100.0 L 110.0 101.0 L 109.0 101.66666666666667 L 108.0 102.0 L 107.0 102.0 L 106.0 102.0 L 105.0 102.0 L 104.0 101.66666666666667 L 103.33333333333333 101.0 L 102.66666666666667 100.0 L 102.0 99.33333333333333 L 101.0 99.0 L 100.33333333333333 99.33333333333333 L 99.66666666666667 100.0 L 99.33333333333333 101.0 L 98.66666666666667 102.0 L 98.0 103.0 L 97.33333333333333 104.0 L 97.0 105.0 L 97.33333333333333 105.66666666666667 L 98.0 106.0 L 99.0 106.0 L 100.0 106.0 L 101.0 106.0 L 102.0 106.0 L 103.0 106.0 L 104.0 106.0 L 105.0 106.0 L 106.0 106.0 L 106.5 106.0 Z" stroke="none" fill="rgb(233,193,148)" />
<path d="M 88.5 88.0 L 89.0 88.0 L 90.0 88.0 L 91.0 87.66666666666667 L 92.0 87.33333333333333 L 93.0 86.66666666666667 L 94.0 86.33333333333333 L 95.0 85.66666666666667 L 95.66666666666667 85.0 L 96.0 84.0 L 95.66666666666667 83.33333333333333 L 95.0 83.0 L 94.0 83.0 L 93.0 83.0 L 92.0 82.66666666666667 L 91.0 82.0 L 90.0 81.0 L 89.33333333333333 80.0 L 89.33333333333333 79.0 L 90.0 78.33333333333333 L 90.66666666666667 77.66666666666667 L 91.33333333333333 77.0 L 91.66666666666667 76.0 L 92.0 75.0 L 92.33333333333333 74.0 L 92.66666666666667 73.0 L 93.0 72.0 L 92.66666666666667 71.33333333333333 L 92.0 71.0 L 91.0 71.0 L 90.0 71.33333333333333 L 89.0 71.66666666666667 L 88.0 72.33333333333333 L 87.33333333333333 73.0 L 87.0 74.0 L 86.66666666666667 75.0 L 86.33333333333333 76.0 L 85.66666666666667 77.0 L 85.33333333333333 78.0 L 84.66666666666667 79.0 L 84.0 80.0 L 83.33333333333333 81.0 L 82.66666666666667 82.0 L 82.0 83.0 L 81.0 84.0 L 80.0 85.0 L 79.0 86.0 L 78.0 87.0 L 77.0 88.0 L 76.33333333333333 89.0 L 76.0 90.0 L 76.33333333333333 90.66666666666667 L 77.0 91.0 L 78.0 90.66666666666667 L 79.0 90.66666666666667 L 80.0 90.66666666666667 L 81.0 91.0 L 81.66666666666667 90.66666666666667 L 82.33333333333333 90.0 L 83.0 89.33333333333333 L 84.0 88.66666666666667 L 85.0 88.33333333333333 L 86.0 88.0 L 87.0 88.0 L 87.5 88.0 Z" stroke="none" fill="rgb(49,45,45)" />
<path d="M 20.5 87.0 L 21.0 87.33333333333333 L 22.0 87.66666666666667 L 23.0 88.0 L 24.0 88.0 L 25.0 87.66666666666667 L 26.0 87.66666666666667 L 27.0 87.66666666666667 L 28.0 88.33333333333333 L 29.0 88.66666666666667 L 30.0 89.33333333333333 L 31.0 90.0 L 32.0 91.0 L 33.0 91.66666666666667 L 34.0 92.0 L 35.0 92.0 L 36.0 92.0 L 37.0 92.0 L 37.666666666666664 91.66666666666667 L 38.0 91.0 L 37.666666666666664 90.0 L 37.0 89.0 L 36.0 88.0 L 35.0 87.0 L 34.0 86.0 L 33.0 85.0 L 32.0 84.0 L 31.0 83.0 L 30.0 82.0 L 29.333333333333332 81.0 L 28.666666666666668 80.0 L 28.333333333333332 79.0 L 27.666666666666668 78.0 L 27.0 77.0 L 26.333333333333332 76.0 L 26.0 75.0 L 25.666666666666668 74.0 L 25.333333333333332 73.0 L 24.666666666666668 72.0 L 24.0 71.33333333333333 L 23.0 71.0 L 22.0 71.0 L 21.0 71.0 L 20.333333333333332 71.33333333333333 L 20.0 72.0 L 20.333333333333332 73.0 L 21.0 74.0 L 22.0 75.0 L 23.0 76.0 L 23.666666666666668 77.0 L 24.333333333333332 78.0 L 24.666666666666668 79.0 L 24.666666666666668 80.0 L 24.0 81.0 L 23.0 82.0 L 22.0 82.66666666666667 L 21.0 83.0 L 20.0 83.0 L 19.0 83.0 L 18.0 83.33333333333333 L 17.333333333333332 84.0 L 17.333333333333332 85.0 L 18.0 86.0 L 19.0 86.66666666666667 L 19.5 87.0 Z" stroke="none" fill="rgb(49,45,45)" />
<path d="M 78.5 118.0 L 79.0 118.0 L 80.0 118.33333333333333 L 81.0 118.66666666666667 L 82.0 119.0 L 83.0 119.0 L 84.0 119.0 L 85.0 119.0 L 86.0 119.0 L 87.0 119.0 L 88.0 119.0 L 89.0 119.0 L 90.0 119.0 L 91.0 119.0 L 92.0 119.0 L 93.0 119.0 L 94.0 119.0 L 95.0 119.0 L 96.0 119.0 L 97.0 119.0 L 98.0 119.0 L 99.0 119.0 L 100.0 119.0 L 101.0 119.0 L 102.0 119.0 L 102.66666666666667 118.66666666666667 L 103.0 118.0 L 103.0 117.0 L 103.33333333333333 116.0 L 104.0 115.0 L 104.66666666666667 114.0 L 104.66666666666667 113.33333333333333 L 104.0 113.0 L 103.0 113.0 L 102.0 113.0 L 101.0 113.0 L 100.0 113.0 L 99.0 113.0 L 98.0 113.0 L 97.0 113.0 L 96.0 113.0 L 95.0 113.0 L 94.0 113.0 L 93.0 113.0 L 92.0 113.0 L 91.0 113.0 L 90.0 113.0 L 89.0 113.0 L 88.0 113.0 L 87.0 113.0 L 86.0 113.0 L 85.0 113.0 L 84.0 113.0 L 83.0 113.0 L 82.0 113.0 L 81.0 113.0 L 80.0 113.0 L 79.0 113.0 L 78.33333333333333 113.33333333333333 L 77.66666666666667 114.0 L 77.33333333333333 115.0 L 77.0 116.0 L 77.0 117.0 L 77.33333333333333 117.66666666666667 L 77.5 118.0 Z" stroke="none" fill="rgb(205,164,122)" />
<path d="M 21.0 29.5 L 21.0 29.0 L 21.0 28.0 L 21.0 27.0 L 20.666666666666668 26.0 L 20.333333333333332 25.0 L 20.333333333333332 24.0 L 20.666666666666668 23.0 L 21.333333333333332 22.0 L 21.666666666666668 21.0 L 22.333333333333332 20.0 L 22.666666666666668 19.0 L 23.0 18.0 L 22.666666666666668 17.333333333333332 L 22.0 17.333333333333332 L 21.0 17.666666666666668 L 20.0 18.333333333333332 L 19.0 19.0 L 18.0 20.0 L 17.333333333333332 21.0 L 17.0 22.0 L 16.666666666666668 23.0 L 16.333333333333332 24.0 L 16.0 25.0 L 16.0 26.0 L 16.0 27.0 L 16.0 28.0 L 16.0 29.0 L 16.0 30.0 L 16.0 31.0 L 16.0 32.0 L 15.666666666666666 33.0 L 15.0 34.0 L 14.0 35.0 L 13.333333333333334 36.0 L 13.0 37.0 L 12.666666666666666 38.0 L 12.333333333333334 39.0 L 12.0 40.0 L 12.0 41.0 L 12.0 42.0 L 12.0 43.0 L 12.0 44.0 L 12.0 45.0 L 12.333333333333334 46.0 L 12.333333333333334 47.0 L 12.333333333333334 48.0 L 12.0 49.0 L 12.0 50.0 L 12.0 51.0 L 12.0 52.0 L 11.666666666666666 53.0 L 11.333333333333334 54.0 L 11.0 55.0 L 11.0 56.0 L 11.333333333333334 57.0 L 12.0 57.666666666666664 L 12.666666666666666 57.666666666666664 L 13.0 57.0 L 13.0 56.0 L 13.0 55.0 L 13.0 54.0 L 13.333333333333334 53.0 L 13.666666666666666 52.0 L 14.0 51.0 L 14.333333333333334 50.0 L 14.666666666666666 49.0 L 15.0 48.0 L 15.0 47.0 L 15.0 46.0 L 15.0 45.0 L 15.0 44.0 L 15.0 43.0 L 15.0 42.0 L 15.333333333333334 41.0 L 15.666666666666666 40.0 L 16.0 39.0 L 16.0 38.0 L 16.333333333333332 37.0 L 16.666666666666668 36.0 L 17.333333333333332 35.0 L 18.0 34.0 L 19.0 33.0 L 19.666666666666668 32.0 L 20.333333333333332 31.0 L 20.5 30.5 Z" stroke="none" fill="rgb(69,65,64)" />
<path d="M 59.5 84.0 L 60.0 84.0 L 61.0 83.66666666666667 L 62.0 83.33333333333333 L 63.0 82.66666666666667 L 64.0 82.33333333333333 L 65.0 81.66666666666667 L 66.0 81.0 L 66.66666666666667 80.0 L 67.0 79.0 L 67.0 78.0 L 67.0 77.0 L 66.66666666666667 76.33333333333333 L 66.0 76.0 L 65.0 76.33333333333333 L 64.0 76.66666666666667 L 63.0 77.0 L 62.0 77.0 L 61.0 77.0 L 60.0 77.0 L 59.0 77.0 L 58.0 77.0 L 57.0 77.0 L 56.0 77.0 L 55.0 77.0 L 54.0 77.0 L 53.0 77.0 L 52.0 77.0 L 51.0 76.66666666666667 L 50.0 76.33333333333333 L 49.0 76.0 L 48.0 76.0 L 47.0 76.0 L 46.0 76.33333333333333 L 45.333333333333336 77.0 L 45.0 78.0 L 45.333333333333336 79.0 L 46.0 80.0 L 47.0 81.0 L 48.0 81.66666666666667 L 49.0 82.33333333333333 L 50.0 82.66666666666667 L 51.0 83.0 L 52.0 83.0 L 53.0 83.33333333333333 L 54.0 83.66666666666667 L 55.0 84.0 L 56.0 84.0 L 57.0 84.0 L 58.0 84.0 L 58.5 84.0 Z" stroke="none" fill="rgb(69,65,64)" />
<path d="M 49.5 101.5 L 50.0 102.0 L 51.0 103.0 L 52.0 103.66666666666667 L 53.0 104.33333333333333 L 54.0 104.66666666666667 L 55.0 105.0 L 56.0 105.0 L 57.0 105.0 L 58.0 104.66666666666667 L 59.0 104.33333333333333 L 60.0 104.0 L 61.0 104.0 L 62.0 104.0 L 62.666666666666664 103.66666666666667 L 63.333333333333336 103.0 L 63.666666666666664 102.0 L 64.0 101.0 L 64.33333333333333 100.0 L 64.66666666666667 99.0 L 65.0 98.0 L 64.66666666666667 97.0 L 64.0 96.33333333333333 L 63.0 96.0 L 62.0 96.0 L 61.0 96.0 L 60.0 96.0 L 59.0 96.0 L 58.0 96.0 L 57.0 96.0 L 56.0 96.0 L 55.0 96.0 L 54.0 96.0 L 53.0 96.0 L 52.0 96.0 L 51.0 96.0 L 50.0 96.0 L 49.0 96.33333333333333 L 48.333333333333336 97.0 L 48.0 98.0 L 48.0 99.0 L 48.333333333333336 100.0 L 48.5 100.5 Z" stroke="none" fill="rgb(233,193,148)" />
<path d="M 72.5 10.5 L 73.0 10.666666666666666 L 74.0 11.333333333333334 L 75.0 12.0 L 76.0 12.666666666666666 L 77.0 13.333333333333334 L 78.0 14.0 L 79.0 15.0 L 80.0 16.0 L 81.0 17.0 L 82.0 17.666666666666668 L 83.0 18.0 L 83.66666666666667 17.666666666666668 L 84.0 17.0 L 84.0 16.0 L 84.0 15.0 L 83.66666666666667 14.0 L 83.33333333333333 13.0 L 82.66666666666667 12.0 L 82.0 11.0 L 81.33333333333333 10.0 L 80.66666666666667 9.333333333333334 L 80.0 8.666666666666666 L 79.0 8.0 L 78.0 7.333333333333333 L 77.0 6.666666666666667 L 76.0 6.333333333333333 L 75.0 5.666666666666667 L 74.0 5.333333333333333 L 73.0 5.0 L 72.0 5.0 L 71.0 5.0 L 70.0 4.666666666666667 L 69.0 4.333333333333333 L 68.0 4.0 L 67.0 4.0 L 66.0 4.0 L 65.0 4.0 L 64.0 4.0 L 63.333333333333336 4.333333333333333 L 63.0 5.0 L 63.333333333333336 5.666666666666667 L 64.0 6.333333333333333 L 65.0 6.666666666666667 L 66.0 7.0 L 67.0 7.333333333333333 L 68.0 7.666666666666667 L 69.0 8.333333333333334 L 70.0 8.666666666666666 L 71.0 9.333333333333334 L 71.5 9.5 Z" stroke="none" fill="rgb(69,65,64)" />
<path d="M 14.5 68.5 L 15.0 68.66666666666667 L 15.666666666666666 68.66666666666667 L 16.0 68.0 L 15.666666666666666 67.0 L 15.333333333333334 66.0 L 15.0 65.0 L 15.0 64.0 L 15.0 63.0 L 15.0 62.0 L 15.0 61.0 L 15.0 60.0 L 15.0 59.0 L 15.0 58.0 L 15.0 57.0 L 15.0 56.0 L 15.0 55.0 L 15.0 54.0 L 15.333333333333334 53.0 L 15.666666666666666 52.0 L 16.333333333333332 51.0 L 16.666666666666668 50.0 L 17.0 49.0 L 17.0 48.0 L 17.0 47.0 L 17.0 46.0 L 17.0 45.0 L 17.0 44.0 L 17.0 43.0 L 17.333333333333332 42.0 L 17.666666666666668 41.0 L 18.0 40.0 L 18.0 39.0 L 18.333333333333332 38.0 L 18.666666666666668 37.0 L 19.0 36.0 L 19.333333333333332 35.0 L 19.666666666666668 34.0 L 20.0 33.0 L 19.666666666666668 32.333333333333336 L 19.0 32.333333333333336 L 18.0 33.0 L 17.333333333333332 34.0 L 16.666666666666668 35.0 L 16.333333333333332 36.0 L 16.0 37.0 L 16.0 38.0 L 15.666666666666666 39.0 L 15.333333333333334 40.0 L 15.0 41.0 L 15.0 42.0 L 15.0 43.0 L 15.0 44.0 L 15.0 45.0 L 15.0 46.0 L 15.0 47.0 L 14.666666666666666 48.0 L 14.333333333333334 49.0 L 14.0 50.0 L 13.666666666666666 51.0 L 13.333333333333334 52.0 L 13.0 53.0 L 13.0 54.0 L 13.0 55.0 L 13.0 56.0 L 12.666666666666666 57.0 L 12.333333333333334 58.0 L 12.0 59.0 L 12.0 60.0 L 12.0 61.0 L 12.0 62.0 L 12.333333333333334 63.0 L 12.666666666666666 64.0 L 13.0 65.0 L 13.333333333333334 66.0 L 13.666666666666666 67.0 L 14.0 67.5 Z" stroke="none" fill="rgb(62,58,58)" />
<path d="M 43.0 104.5 L 43.333333333333336 104.0 L 44.0 103.0 L 44.666666666666664 102.0 L 45.333333333333336 101.0 L 46.0 100.0 L 47.0 99.33333333333333 L 47.666666666666664 98.66666666666667 L 48.0 98.0 L 48.0 97.0 L 47.666666666666664 96.0 L 47.0 95.33333333333333 L 46.0 94.66666666666667 L 45.0 94.33333333333333 L 44.0 94.0 L 43.0 94.0 L 42.0 94.0 L 41.0 94.33333333333333 L 40.0 94.66666666666667 L 39.0 95.0 L 38.0 95.33333333333333 L 37.333333333333336 96.0 L 37.0 97.0 L 37.0 98.0 L 37.0 99.0 L 37.0 100.0 L 37.0 101.0 L 37.333333333333336 102.0 L 37.666666666666664 103.0 L 38.333333333333336 104.0 L 39.0 105.0 L 40.0 106.0 L 41.0 106.66666666666667 L 41.666666666666664 106.66666666666667 L 42.333333333333336 106.0 L 42.5 105.5 Z" stroke="none" fill="rgb(1,132,217)" />
<path d="M 110.5 89.0 L 110.66666666666667 88.66666666666667 L 111.0 88.0 L 111.0 87.0 L 111.33333333333333 86.0 L 111.66666666666667 85.0 L 112.0 84.0 L 112.33333333333333 83.0 L 112.66666666666667 82.0 L 113.0 81.0 L 112.66666666666667 80.0 L 112.0 79.33333333333333 L 111.0 78.66666666666667 L 110.0 78.33333333333333 L 109.0 77.66666666666667 L 108.0 77.33333333333333 L 107.0 77.0 L 106.0 77.33333333333333 L 105.33333333333333 78.0 L 105.0 79.0 L 105.0 80.0 L 104.66666666666667 81.0 L 104.33333333333333 82.0 L 104.0 83.0 L 103.66666666666667 84.0 L 103.33333333333333 85.0 L 103.0 86.0 L 103.0 87.0 L 103.0 88.0 L 103.33333333333333 88.66666666666667 L 104.0 89.0 L 105.0 89.0 L 106.0 89.0 L 107.0 89.0 L 108.0 89.0 L 109.0 89.0 L 109.5 89.0 Z" stroke="none" fill="rgb(96,57,19)" />
<path d="M 110.5 73.5 L 111.0 73.66666666666667 L 112.0 74.0 L 113.0 74.0 L 114.0 74.0 L 115.0 74.0 L 116.0 73.66666666666667 L 117.0 73.33333333333333 L 118.0 72.66666666666667 L 118.66666666666667 72.0 L 119.0 71.0 L 118.66666666666667 70.0 L 118.0 69.0 L 117.33333333333333 68.0 L 117.0 67.0 L 117.0 66.0 L 117.0 65.0 L 116.66666666666667 64.33333333333333 L 116.0 64.0 L 115.0 64.0 L 114.0 64.0 L 113.0 64.33333333333333 L 112.0 65.0 L 111.0 66.0 L 110.0 67.0 L 109.0 68.0 L 108.0 68.66666666666667 L 107.0 69.0 L 106.33333333333333 69.33333333333333 L 106.0 70.0 L 106.33333333333333 71.0 L 107.0 71.66666666666667 L 108.0 72.33333333333333 L 109.0 72.66666666666667 L 109.5 73.0 Z" stroke="none" fill="rgb(211,211,211)" />
<path d="M 116.0 112.5 L 116.33333333333333 112.0 L 117.0 111.0 L 117.66666666666667 110.0 L 118.33333333333333 109.0 L 118.66666666666667 108.0 L 119.0 107.0 L 119.0 106.0 L 118.66666666666667 105.0 L 118.0 104.0 L 117.0 103.33333333333333 L 116.0 103.0 L 115.0 103.0 L 114.0 103.0 L 113.0 103.33333333333333 L 112.0 103.66666666666667 L 111.0 104.33333333333333 L 110.0 105.0 L 109.33333333333333 106.0 L 109.0 107.0 L 109.0 108.0 L 109.0 109.0 L 109.33333333333333 110.0 L 110.0 111.0 L 111.0 112.0 L 112.0 112.66666666666667 L 113.0 113.0 L 114.0 113.0 L 115.0 113.0 L 115.5 113.0 Z" stroke="none" fill="rgb(253,239,8)" />
<path d="M 72.5 64.0 L 73.0 64.0 L 74.0 64.0 L 75.0 63.666666666666664 L 76.0 63.0 L 76.66666666666667 62.0 L 77.0 61.0 L 77.0 60.0 L 77.0 59.0 L 77.0 58.0 L 77.0 57.0 L 76.66666666666667 56.0 L 76.0 55.0 L 75.0 54.333333333333336 L 74.0 54.0 L 73.0 54.0 L 72.0 54.0 L 71.0 54.333333333333336 L 70.0 54.666666666666664 L 69.0 55.333333333333336 L 68.33333333333333 56.0 L 68.0 57.0 L 68.0 58.0 L 68.0 59.0 L 68.0 60.0 L 68.33333333333333 61.0 L 69.0 62.0 L 70.0 63.0 L 71.0 63.666666666666664 L 71.5 64.0 Z" stroke="none" fill="rgb(49,45,45)" />
<path d="M 116.5 119.0 L 117.0 119.0 L 118.0 119.0 L 119.0 119.0 L 120.0 119.0 L 121.0 119.0 L 122.0 119.0 L 122.66666666666667 118.66666666666667 L 123.0 118.0 L 123.33333333333333 117.0 L 123.66666666666667 116.0 L 124.0 115.0 L 124.0 114.0 L 123.66666666666667 113.33333333333333 L 123.0 113.0 L 122.0 113.0 L 121.0 113.0 L 120.0 113.0 L 119.0 113.0 L 118.0 113.0 L 117.0 113.0 L 116.0 113.0 L 115.0 113.0 L 114.0 113.0 L 113.0 113.0 L 112.0 113.0 L 111.0 113.0 L 110.33333333333333 113.33333333333333 L 110.0 114.0 L 110.33333333333333 115.0 L 111.0 116.0 L 111.66666666666667 117.0 L 112.33333333333333 118.0 L 113.0 118.66666666666667 L 114.0 119.0 L 115.0 119.0 L 115.5 119.0 Z" stroke="none" fill="rgb(205,164,122)" />
<path d="M 44.0 61.5 L 44.0 61.0 L 44.0 60.0 L 44.0 59.0 L 44.0 58.0 L 44.0 57.0 L 43.666666666666664 56.0 L 43.0 55.0 L 42.0 54.333333333333336 L 41.0 54.0 L 40.0 54.0 L 39.0 54.0 L 38.0 54.333333333333336 L 37.0 55.0 L 36.0 56.0 L 35.333333333333336 57.0 L 35.0 58.0 L 35.0 59.0 L 35.0 60.0 L 35.333333333333336 61.0 L 36.0 62.0 L 37.0 63.0 L 38.0 63.666666666666664 L 39.0 64.0 L 40.0 64.0 L 41.0 64.0 L 42.0 63.666666666666664 L 43.0 63.0 L 43.5 62.5 Z" stroke="none" fill="rgb(49,45,45)" />
<path d="M 43.5 108.5 L 44.0 108.66666666666667 L 45.0 109.33333333333333 L 46.0 110.0 L 47.0 110.66666666666667 L 48.0 111.0 L 48.666666666666664 110.66666666666667 L 49.0 110.0 L 49.0 109.0 L 49.333333333333336 108.0 L 50.0 107.0 L 50.666666666666664 106.0 L 51.333333333333336 105.0 L 51.666666666666664 104.0 L 51.666666666666664 103.0 L 51.0 102.0 L 50.0 101.0 L 49.0 100.0 L 48.0 99.33333333333333 L 47.0 99.0 L 46.0 99.33333333333333 L 45.333333333333336 100.0 L 44.666666666666664 101.0 L 44.0 102.0 L 43.333333333333336 103.0 L 42.666666666666664 104.0 L 42.333333333333336 105.0 L 42.0 106.0 L 42.0 107.0 L 42.333333333333336 107.66666666666667 L 42.5 108.0 Z" stroke="none" fill="rgb(1,116,202)" />
<path d="M 88.5 106.0 L 89.0 106.0 L 90.0 106.0 L 91.0 106.0 L 92.0 106.0 L 92.66666666666667 105.66666666666667 L 93.0 105.0 L 92.66666666666667 104.0 L 92.0 103.0 L 91.33333333333333 102.0 L 91.0 101.0 L 91.0 100.0 L 91.0 99.0 L 90.66666666666667 98.33333333333333 L 90.0 98.0 L 89.0 98.0 L 88.0 98.0 L 87.0 98.0 L 86.0 98.0 L 85.0 98.33333333333333 L 84.33333333333333 99.0 L 83.66666666666667 100.0 L 83.33333333333333 101.0 L 82.66666666666667 102.0 L 82.0 103.0 L 81.33333333333333 104.0 L 81.0 105.0 L 81.33333333333333 105.66666666666667 L 82.0 106.0 L 83.0 106.0 L 84.0 106.0 L 85.0 106.0 L 86.0 106.0 L 87.0 106.0 L 87.5 106.0 Z" stroke="none" fill="rgb(233,193,148)" />
<path d="M 100.0 36.5 L 100.0 36.0 L 100.0 35.0 L 100.0 34.0 L 100.0 33.0 L 99.66666666666667 32.0 L 99.33333333333333 31.0 L 99.0 30.0 L 99.0 29.0 L 98.66666666666667 28.0 L 98.33333333333333 27.0 L 97.66666666666667 26.0 L 97.33333333333333 25.0 L 96.66666666666667 24.0 L 96.0 23.0 L 95.0 22.0 L 94.0 21.0 L 93.0 20.0 L 92.0 19.0 L 91.0 18.333333333333332 L 90.0 18.0 L 89.33333333333333 18.333333333333332 L 89.0 19.0 L 89.33333333333333 20.0 L 90.0 21.0 L 90.66666666666667 22.0 L 91.33333333333333 23.0 L 92.0 24.0 L 93.0 25.0 L 93.66666666666667 26.0 L 94.33333333333333 27.0 L 94.66666666666667 28.0 L 95.33333333333333 29.0 L 95.66666666666667 30.0 L 96.33333333333333 31.0 L 96.66666666666667 32.0 L 97.33333333333333 33.0 L 97.66666666666667 34.0 L 98.0 35.0 L 98.33333333333333 36.0 L 99.0 36.666666666666664 L 99.5 37.0 Z" stroke="none" fill="rgb(69,65,64)" />
<path d="M 110.5 101.5 L 111.0 101.0 L 111.66666666666667 100.0 L 112.0 99.0 L 112.0 98.0 L 112.0 97.0 L 112.0 96.0 L 111.66666666666667 95.0 L 111.0 94.33333333333333 L 110.0 94.0 L 109.0 94.0 L 108.0 94.0 L 107.0 94.0 L 106.0 94.0 L 105.0 94.33333333333333 L 104.0 95.0 L 103.33333333333333 96.0 L 102.66666666666667 97.0 L 102.33333333333333 98.0 L 102.0 99.0 L 102.33333333333333 100.0 L 102.66666666666667 101.0 L 103.33333333333333 101.66666666666667 L 104.0 102.0 L 105.0 102.0 L 106.0 102.0 L 107.0 102.0 L 108.0 102.0 L 109.0 102.0 L 109.5 102.0 Z" stroke="none" fill="rgb(2,200,84)" />
<path d="M 95.5 105.0 L 96.0 105.0 L 97.0 104.66666666666667 L 98.0 104.0 L 98.66666666666667 103.0 L 99.33333333333333 102.0 L 99.66666666666667 101.0 L 100.0 100.0 L 99.66666666666667 99.0 L 99.0 98.0 L 98.0 97.0 L 97.0 96.33333333333333 L 96.0 96.0 L 95.0 96.0 L 94.0 96.0 L 93.0 96.33333333333333 L 92.0 97.0 L 91.33333333333333 98.0 L 91.0 99.0 L 91.0 100.0 L 91.0 101.0 L 91.0 102.0 L 91.33333333333333 103.0 L 92.0 104.0 L 93.0 104.66666666666667 L 94.0 105.0 L 94.5 105.0 Z" stroke="none" fill="rgb(1,174,239)" />
<path d="M 107.5 122.0 L 108.0 122.0 L 109.0 121.66666666666667 L 110.0 121.33333333333333 L 111.0 120.66666666666667 L 112.0 120.0 L 112.66666666666667 119.0 L 112.66666666666667 118.0 L 112.33333333333333 117.0 L 111.66666666666667 116.0 L 111.0 115.0 L 110.0 114.33333333333333 L 109.0 114.0 L 108.0 114.0 L 107.0 114.0 L 106.0 114.0 L 105.0 114.0 L 104.0 114.33333333333333 L 103.33333333333333 115.0 L 103.0 116.0 L 103.0 117.0 L 103.0 118.0 L 103.0 119.0 L 103.33333333333333 120.0 L 104.0 120.66666666666667 L 105.0 121.33333333333333 L 106.0 121.66666666666667 L 106.5 122.0 Z" stroke="none" fill="rgb(237,70,57)" />
<path d="M 71.5 52.0 L 72.0 51.666666666666664 L 73.0 51.333333333333336 L 74.0 51.0 L 75.0 51.333333333333336 L 76.0 51.666666666666664 L 77.0 52.0 L 78.0 52.0 L 79.0 52.0 L 79.66666666666667 51.666666666666664 L 80.0 51.0 L 79.66666666666667 50.0 L 79.0 49.0 L 78.0 48.0 L 77.0 47.333333333333336 L 76.0 47.0 L 75.0 47.0 L 74.0 47.0 L 73.0 47.0 L 72.0 47.0 L 71.0 47.333333333333336 L 70.0 47.666666666666664 L 69.0 48.0 L 68.0 48.333333333333336 L 67.0 48.666666666666664 L 66.0 49.333333333333336 L 65.33333333333333 50.0 L 65.33333333333333 51.0 L 66.0 51.666666666666664 L 67.0 52.0 L 68.0 52.0 L 69.0 52.0 L 70.0 52.0 L 70.5 52.0 Z" stroke="none" fill="rgb(69,65,64)" />
<path d="M 61.5 110.5 L 62.0 110.33333333333333 L 63.0 109.66666666666667 L 64.0 109.0 L 64.66666666666667 108.0 L 65.0 107.0 L 65.0 106.0 L 64.66666666666667 105.0 L 64.0 104.33333333333333 L 63.0 104.0 L 62.0 104.0 L 61.0 104.0 L 60.0 104.0 L 59.0 104.0 L 58.0 104.33333333333333 L 57.0 104.66666666666667 L 56.0 105.0 L 55.333333333333336 105.33333333333333 L 54.666666666666664 106.0 L 54.333333333333336 107.0 L 54.0 108.0 L 54.333333333333336 109.0 L 55.0 110.0 L 56.0 110.66666666666667 L 57.0 111.0 L 58.0 111.0 L 59.0 111.0 L 60.0 111.0 L 60.5 111.0 Z" stroke="none" fill="rgb(23,104,190)" />
<path d="M 38.5 52.0 L 39.0 51.666666666666664 L 40.0 51.333333333333336 L 41.0 51.0 L 42.0 51.333333333333336 L 43.0 51.666666666666664 L 44.0 52.0 L 45.0 52.0 L 46.0 52.0 L 46.666666666666664 51.666666666666664 L 47.0 51.0 L 46.666666666666664 50.0 L 46.0 49.0 L 45.0 48.0 L 44.0 47.333333333333336 L 43.0 47.0 L 42.0 47.0 L 41.0 47.0 L 40.0 47.0 L 39.0 47.0 L 38.0 47.333333333333336 L 37.0 47.666666666666664 L 36.0 48.0 L 35.0 48.333333333333336 L 34.0 48.666666666666664 L 33.333333333333336 49.333333333333336 L 33.0 50.0 L 33.0 51.0 L 33.333333333333336 51.666666666666664 L 34.0 52.0 L 35.0 52.0 L 36.0 52.0 L 37.0 52.0 L 37.5 52.0 Z" stroke="none" fill="rgb(69,65,64)" />
<path d="M 68.5 108.5 L 68.66666666666667 108.0 L 68.66666666666667 107.0 L 68.0 106.33333333333333 L 67.0 106.0 L 66.0 106.0 L 65.33333333333333 106.33333333333333 L 64.66666666666667 107.0 L 64.0 108.0 L 63.0 109.0 L 62.0 109.66666666666667 L 61.0 110.33333333333333 L 60.0 110.66666666666667 L 59.0 111.0 L 58.0 111.0 L 57.333333333333336 111.33333333333333 L 57.0 112.0 L 57.0 113.0 L 57.0 114.0 L 57.333333333333336 114.66666666666667 L 58.0 115.0 L 59.0 115.0 L 60.0 115.0 L 61.0 115.0 L 62.0 115.0 L 63.0 114.66666666666667 L 64.0 114.33333333333333 L 64.66666666666667 113.66666666666667 L 65.33333333333333 113.0 L 66.0 112.0 L 66.66666666666667 111.0 L 67.33333333333333 110.0 L 67.5 109.5 Z" stroke="none" fill="rgb(1,99,186)" />
<path d="M 92.5 71.0 L 92.66666666666667 70.66666666666667 L 93.33333333333333 70.0 L 93.66666666666667 69.0 L 94.0 68.0 L 94.33333333333333 67.0 L 94.66666666666667 66.0 L 95.0 65.0 L 95.0 64.0 L 95.0 63.0 L 94.66666666666667 62.0 L 94.33333333333333 61.0 L 94.0 60.0 L 93.66666666666667 59.333333333333336 L 93.0 59.0 L 92.33333333333333 59.333333333333336 L 91.66666666666667 60.0 L 91.33333333333333 61.0 L 91.0 62.0 L 90.66666666666667 63.0 L 90.0 64.0 L 89.33333333333333 65.0 L 89.0 66.0 L 89.0 67.0 L 89.0 68.0 L 88.66666666666667 69.0 L 88.33333333333333 70.0 L 88.0 71.0 L 88.33333333333333 71.66666666666667 L 89.0 72.0 L 90.0 71.66666666666667 L 91.0 71.33333333333333 L 91.5 71.0 Z" stroke="none" fill="rgb(233,193,148)" />
<path d="M 99.0 66.5 L 99.33333333333333 66.0 L 99.66666666666667 65.0 L 100.0 64.0 L 100.0 63.0 L 100.33333333333333 62.0 L 100.66666666666667 61.0 L 101.0 60.0 L 101.0 59.0 L 101.0 58.0 L 101.0 57.0 L 101.0 56.0 L 101.0 55.0 L 100.66666666666667 54.0 L 100.0 53.0 L 99.33333333333333 52.0 L 99.0 51.0 L 99.0 50.0 L 98.66666666666667 49.333333333333336 L 98.0 49.0 L 97.33333333333333 49.333333333333336 L 97.0 50.0 L 97.0 51.0 L 97.0 52.0 L 97.0 53.0 L 97.33333333333333 54.0 L 97.66666666666667 55.0 L 98.0 56.0 L 98.0 57.0 L 98.0 58.0 L 98.0 59.0 L 98.0 60.0 L 98.0 61.0 L 98.0 62.0 L 98.0 63.0 L 98.0 64.0 L 97.66666666666667 65.0 L 97.33333333333333 66.0 L 97.0 67.0 L 97.33333333333333 67.66666666666667 L 98.0 67.66666666666667 L 98.5 67.5 Z" stroke="none" fill="rgb(62,58,58)" />
<path d="M 24.0 70.5 L 24.0 70.0 L 24.0 69.0 L 24.0 68.0 L 23.666666666666668 67.0 L 23.0 66.0 L 22.333333333333332 65.0 L 22.0 64.0 L 22.0 63.0 L 21.666666666666668 62.0 L 21.333333333333332 61.0 L 21.0 60.0 L 21.0 59.0 L 21.0 58.0 L 20.666666666666668 57.333333333333336 L 20.0 57.0 L 19.333333333333332 57.333333333333336 L 19.0 58.0 L 19.0 59.0 L 18.666666666666668 60.0 L 18.333333333333332 61.0 L 18.0 62.0 L 18.0 63.0 L 18.0 64.0 L 18.0 65.0 L 18.333333333333332 66.0 L 18.666666666666668 67.0 L 19.333333333333332 68.0 L 19.666666666666668 69.0 L 20.333333333333332 70.0 L 21.0 70.66666666666667 L 22.0 71.0 L 23.0 71.0 L 23.5 71.0 Z" stroke="none" fill="rgb(233,193,148)" />
<path d="M 120.5 113.0 L 121.0 113.0 L 122.0 113.0 L 123.0 113.0 L 123.66666666666667 112.66666666666667 L 124.0 112.0 L 124.0 111.0 L 124.0 110.0 L 124.0 109.0 L 124.0 108.0 L 124.0 107.0 L 123.66666666666667 106.33333333333333 L 123.0 106.0 L 122.0 106.0 L 121.0 106.0 L 120.0 106.0 L 119.33333333333333 106.33333333333333 L 118.66666666666667 107.0 L 118.33333333333333 108.0 L 117.66666666666667 109.0 L 117.0 110.0 L 116.33333333333333 111.0 L 116.0 112.0 L 116.33333333333333 112.66666666666667 L 117.0 113.0 L 118.0 113.0 L 119.0 113.0 L 119.5 113.0 Z" stroke="none" fill="rgb(217,176,135)" />
<path d="M 106.5 77.0 L 107.0 77.33333333333333 L 108.0 77.66666666666667 L 109.0 78.33333333333333 L 110.0 78.66666666666667 L 111.0 79.33333333333333 L 112.0 79.66666666666667 L 113.0 79.66666666666667 L 113.66666666666667 79.0 L 114.0 78.0 L 114.33333333333333 77.0 L 114.66666666666667 76.0 L 115.0 75.0 L 114.66666666666667 74.33333333333333 L 114.0 74.0 L 113.0 74.0 L 112.0 73.66666666666667 L 111.0 73.33333333333333 L 110.0 72.66666666666667 L 109.0 72.33333333333333 L 108.0 72.0 L 107.33333333333333 72.33333333333333 L 107.0 73.0 L 106.66666666666667 74.0 L 106.33333333333333 75.0 L 106.0 76.0 L 106.0 76.5 Z" stroke="none" fill="rgb(165,172,172)" />
<path d="M 27.5 18.0 L 28.0 18.0 L 28.666666666666668 17.666666666666668 L 29.0 17.0 L 29.0 16.0 L 29.0 15.0 L 29.0 14.0 L 29.0 13.0 L 29.0 12.0 L 29.0 11.0 L 29.0 10.0 L 29.333333333333332 9.0 L 29.666666666666668 8.0 L 29.666666666666668 7.0 L 29.0 6.333333333333333 L 28.0 6.333333333333333 L 27.333333333333332 7.0 L 26.666666666666668 8.0 L 26.333333333333332 9.0 L 25.666666666666668 10.0 L 25.333333333333332 11.0 L 25.0 12.0 L 25.0 13.0 L 25.0 14.0 L 25.333333333333332 15.0 L 25.666666666666668 16.0 L 26.333333333333332 17.0 L 26.5 17.5 Z" stroke="none" fill="rgb(69,65,64)" />
<path d="M 65.5 102.0 L 66.0 102.0 L 67.0 102.33333333333333 L 68.0 102.66666666666667 L 69.0 103.33333333333333 L 70.0 103.66666666666667 L 71.0 103.66666666666667 L 71.66666666666667 103.0 L 72.0 102.0 L 72.0 101.0 L 72.0 100.0 L 71.66666666666667 99.33333333333333 L 71.0 98.66666666666667 L 70.0 98.33333333333333 L 69.0 98.0 L 68.0 98.0 L 67.0 98.0 L 66.0 98.0 L 65.0 98.33333333333333 L 64.33333333333333 99.0 L 64.0 100.0 L 64.0 101.0 L 64.33333333333333 101.66666666666667 L 64.5 102.0 Z" stroke="none" fill="rgb(1,116,202)" />
<path d="M 52.5 111.0 L 53.0 111.0 L 54.0 111.0 L 55.0 111.0 L 55.666666666666664 110.66666666666667 L 55.666666666666664 110.0 L 55.0 109.0 L 54.666666666666664 108.0 L 54.666666666666664 107.0 L 55.0 106.0 L 54.666666666666664 105.0 L 54.0 104.33333333333333 L 53.0 104.0 L 52.0 104.0 L 51.333333333333336 104.33333333333333 L 50.666666666666664 105.0 L 50.0 106.0 L 49.333333333333336 107.0 L 49.0 108.0 L 49.0 109.0 L 49.333333333333336 109.66666666666667 L 50.0 110.33333333333333 L 51.0 110.66666666666667 L 51.5 111.0 Z" stroke="none" fill="rgb(1,99,186)" />
<path d="M 75.0 116.5 L 75.0 116.0 L 75.0 115.0 L 75.0 114.0 L 74.66666666666667 113.0 L 74.33333333333333 112.0 L 73.66666666666667 111.0 L 73.0 110.0 L 72.0 109.33333333333333 L 71.0 109.33333333333333 L 70.33333333333333 110.0 L 69.66666666666667 111.0 L 69.0 112.0 L 68.33333333333333 113.0 L 68.0 114.0 L 68.33333333333333 114.66666666666667 L 69.0 115.0 L 70.0 115.33333333333333 L 71.0 115.66666666666667 L 72.0 116.33333333333333 L 73.0 116.66666666666667 L 74.0 117.0 L 74.5 117.0 Z" stroke="none" fill="rgb(1,132,217)" />
<path d="M 56.5 72.0 L 57.0 72.0 L 58.0 72.0 L 59.0 71.66666666666667 L 60.0 71.0 L 60.666666666666664 70.0 L 61.0 69.0 L 60.666666666666664 68.33333333333333 L 60.0 68.0 L 59.0 68.0 L 58.0 68.0 L 57.0 68.0 L 56.0 68.0 L 55.0 68.0 L 54.0 68.0 L 53.0 68.0 L 52.333333333333336 68.33333333333333 L 52.0 69.0 L 52.0 70.0 L 52.333333333333336 71.0 L 53.0 71.66666666666667 L 54.0 72.0 L 55.0 72.0 L 55.5 72.0 Z" stroke="none" fill="rgb(217,176,135)" />
<path d="M 111.5 91.0 L 112.0 91.0 L 112.66666666666667 90.66666666666667 L 112.66666666666667 90.0 L 112.0 89.33333333333333 L 111.0 89.0 L 110.0 89.0 L 109.0 89.0 L 108.0 89.0 L 107.0 89.0 L 106.0 89.0 L 105.0 89.0 L 104.0 89.0 L 103.0 89.0 L 102.0 89.0 L 101.0 89.0 L 100.0 89.0 L 99.33333333333333 89.33333333333333 L 99.0 90.0 L 99.33333333333333 90.66666666666667 L 100.0 91.0 L 101.0 91.0 L 102.0 91.0 L 103.0 91.0 L 104.0 91.0 L 105.0 91.0 L 106.0 91.0 L 107.0 91.0 L 108.0 91.0 L 109.0 91.0 L 110.0 91.0 L 110.5 91.0 Z" stroke="none" fill="rgb(249,221,189)" />
<path d="M 35.5 95.0 L 36.0 95.0 L 37.0 95.0 L 38.0 95.0 L 39.0 95.0 L 40.0 95.0 L 41.0 94.66666666666667 L 41.666666666666664 94.0 L 41.666666666666664 93.0 L 41.0 92.33333333333333 L 40.0 92.0 L 39.0 92.0 L 38.0 92.0 L 37.0 92.0 L 36.0 92.0 L 35.0 92.0 L 34.0 91.66666666666667 L 33.0 91.33333333333333 L 32.0 91.33333333333333 L 31.333333333333332 92.0 L 31.333333333333332 93.0 L 32.0 93.66666666666667 L 33.0 94.0 L 34.0 94.33333333333333 L 34.5 94.5 Z" stroke="none" fill="rgb(69,65,64)" />
<path d="M 37.5 13.5 L 38.0 13.666666666666666 L 39.0 14.0 L 39.666666666666664 13.666666666666666 L 40.333333333333336 13.0 L 41.0 12.333333333333334 L 42.0 12.0 L 42.666666666666664 11.666666666666666 L 43.0 11.0 L 42.666666666666664 10.333333333333334 L 42.0 10.0 L 41.0 10.333333333333334 L 40.0 10.666666666666666 L 39.0 11.0 L 38.0 10.666666666666666 L 37.0 10.333333333333334 L 36.0 9.666666666666666 L 35.0 9.0 L 34.0 8.333333333333334 L 33.333333333333336 8.333333333333334 L 33.0 9.0 L 33.333333333333336 10.0 L 34.0 11.0 L 35.0 11.666666666666666 L 36.0 12.333333333333334 L 36.5 12.5 Z" stroke="none" fill="rgb(62,58,58)" />
<path d="M 34.5 13.5 L 35.0 13.666666666666666 L 36.0 14.0 L 37.0 14.0 L 37.666666666666664 13.666666666666666 L 37.666666666666664 13.0 L 37.0 12.333333333333334 L 36.0 11.666666666666666 L 35.0 11.0 L 34.0 10.0 L 33.333333333333336 9.0 L 32.666666666666664 8.0 L 32.0 7.333333333333333 L 31.0 7.0 L 30.0 7.333333333333333 L 29.333333333333332 8.0 L 29.0 9.0 L 29.0 10.0 L 29.333333333333332 10.666666666666666 L 30.0 10.666666666666666 L 31.0 10.666666666666666 L 32.0 11.0 L 32.666666666666664 12.0 L 33.333333333333336 12.666666666666666 L 33.5 13.0 Z" stroke="none" fill="rgb(56,52,52)" />
<path d="M 69.5 98.5 L 70.0 98.66666666666667 L 71.0 99.0 L 72.0 99.0 L 72.66666666666667 98.66666666666667 L 73.0 98.0 L 73.0 97.0 L 72.66666666666667 96.0 L 72.0 95.0 L 71.0 94.33333333333333 L 70.0 94.0 L 69.0 94.33333333333333 L 68.0 94.66666666666667 L 67.0 95.0 L 66.0 95.33333333333333 L 65.33333333333333 96.0 L 65.0 97.0 L 65.33333333333333 97.66666666666667 L 66.0 98.0 L 67.0 98.0 L 68.0 98.0 L 68.5 98.0 Z" stroke="none" fill="rgb(1,99,186)" />
<path d="M 69.5 107.0 L 69.66666666666667 106.66666666666667 L 70.33333333333333 106.0 L 70.66666666666667 105.0 L 70.66666666666667 104.0 L 70.0 103.33333333333333 L 69.0 102.66666666666667 L 68.0 102.33333333333333 L 67.0 102.0 L 66.0 102.0 L 65.0 102.0 L 64.0 102.0 L 63.333333333333336 102.33333333333333 L 63.0 103.0 L 63.333333333333336 104.0 L 64.0 105.0 L 65.0 105.66666666666667 L 66.0 106.0 L 67.0 106.33333333333333 L 68.0 106.66666666666667 L 68.5 107.0 Z" stroke="none" fill="rgb(1,132,217)" />
<path d="M 21.5 25.5 L 21.666666666666668 25.0 L 22.0 24.0 L 22.333333333333332 23.0 L 23.0 22.0 L 23.666666666666668 21.0 L 24.333333333333332 20.0 L 25.0 19.0 L 26.0 18.333333333333332 L 26.666666666666668 17.666666666666668 L 26.666666666666668 17.0 L 26.0 16.333333333333332 L 25.0 16.333333333333332 L 24.0 17.0 L 23.0 18.0 L 22.333333333333332 19.0 L 21.666666666666668 20.0 L 21.333333333333332 21.0 L 20.666666666666668 22.0 L 20.333333333333332 23.0 L 20.0 24.0 L 20.0 25.0 L 20.333333333333332 25.666666666666668 L 20.5 26.0 Z" stroke="none" fill="rgb(62,58,58)" />
<path d="M 68.5 113.5 L 69.0 113.0 L 69.66666666666667 112.0 L 70.33333333333333 111.0 L 70.66666666666667 110.0 L 71.0 109.0 L 70.66666666666667 108.0 L 70.0 107.33333333333333 L 69.0 107.33333333333333 L 68.0 108.0 L 67.33333333333333 109.0 L 66.66666666666667 110.0 L 66.0 111.0 L 65.33333333333333 112.0 L 65.0 113.0 L 65.33333333333333 113.66666666666667 L 66.0 114.0 L 67.0 114.0 L 67.5 114.0 Z" stroke="none" fill="rgb(1,116,202)" />
<path d="M 75.5 95.0 L 76.0 95.0 L 77.0 94.66666666666667 L 78.0 94.33333333333333 L 78.66666666666667 93.66666666666667 L 78.66666666666667 93.33333333333333 L 78.0 93.0 L 77.0 92.66666666666667 L 76.0 92.33333333333333 L 75.0 92.0 L 74.0 92.0 L 73.0 92.0 L 72.0 92.33333333333333 L 71.33333333333333 93.0 L 71.0 94.0 L 71.33333333333333 95.0 L 72.0 95.66666666666667 L 73.0 96.0 L 74.0 95.66666666666667 L 74.5 95.5 Z" stroke="none" fill="rgb(69,65,64)" />
<path d="M 24.0 81.5 L 24.0 81.0 L 24.0 80.0 L 23.666666666666668 79.0 L 23.0 78.33333333333333 L 22.0 78.33333333333333 L 21.0 79.0 L 20.0 80.0 L 19.0 80.66666666666667 L 18.333333333333332 81.33333333333333 L 18.0 82.0 L 18.333333333333332 82.66666666666667 L 19.0 83.0 L 20.0 83.0 L 21.0 83.0 L 22.0 83.0 L 23.0 82.66666666666667 L 23.5 82.5 Z" stroke="none" fill="rgb(69,65,64)" />
<path d="M 30.5 92.0 L 31.0 92.0 L 31.666666666666668 91.66666666666667 L 32.0 91.0 L 31.666666666666668 90.0 L 31.0 89.33333333333333 L 30.0 88.66666666666667 L 29.0 88.33333333333333 L 28.0 87.66666666666667 L 27.0 87.33333333333333 L 26.0 87.0 L 25.333333333333332 87.33333333333333 L 25.0 88.0 L 25.333333333333332 89.0 L 26.0 89.66666666666667 L 27.0 90.33333333333333 L 28.0 91.0 L 29.0 91.66666666666667 L 29.5 92.0 Z" stroke="none" fill="rgb(56,52,52)" />
<path d="M 91.5 83.0 L 92.0 83.0 L 93.0 83.0 L 94.0 83.0 L 94.66666666666667 82.66666666666667 L 95.0 82.0 L 94.66666666666667 81.33333333333333 L 94.0 80.66666666666667 L 93.0 80.0 L 92.0 79.0 L 91.0 78.33333333333333 L 90.0 78.0 L 89.33333333333333 78.33333333333333 L 89.0 79.0 L 89.0 80.0 L 89.33333333333333 81.0 L 90.0 82.0 L 90.5 82.5 Z" stroke="none" fill="rgb(69,65,64)" />
<path d="M 77.5 93.0 L 78.0 93.0 L 79.0 93.0 L 80.0 93.0 L 81.0 93.0 L 82.0 92.66666666666667 L 83.0 92.33333333333333 L 83.66666666666667 91.66666666666667 L 84.0 91.0 L 83.66666666666667 90.33333333333333 L 83.0 90.0 L 82.0 90.33333333333333 L 81.0 90.66666666666667 L 80.0 91.0 L 79.0 91.0 L 78.0 91.0 L 77.0 91.0 L 76.33333333333333 91.33333333333333 L 76.0 92.0 L 76.33333333333333 92.66666666666667 L 76.5 93.0 Z" stroke="none" fill="rgb(62,58,58)" />
<path d="M 58.5 119.0 L 59.0 119.0 L 60.0 119.0 L 61.0 119.0 L 61.666666666666664 118.66666666666667 L 62.0 118.0 L 62.0 117.0 L 62.0 116.0 L 61.666666666666664 115.33333333333333 L 61.0 115.0 L 60.0 115.0 L 59.0 115.0 L 58.333333333333336 115.33333333333333 L 58.0 116.0 L 58.0 117.0 L 58.0 118.0 L 58.0 118.5 Z" stroke="none" fill="rgb(1,116,202)" />
<path d="M 45.5 11.5 L 45.666666666666664 11.0 L 46.0 10.0 L 45.666666666666664 9.333333333333334 L 45.0 9.333333333333334 L 44.0 10.0 L 43.0 11.0 L 42.0 11.666666666666666 L 41.0 12.0 L 40.333333333333336 12.333333333333334 L 40.0 13.0 L 40.333333333333336 13.666666666666666 L 41.0 14.0 L 42.0 13.666666666666666 L 43.0 13.333333333333334 L 44.0 12.666666666666666 L 44.5 12.5 Z" stroke="none" fill="rgb(56,52,52)" />
<path d="M 99.5 53.5 L 100.0 53.666666666666664 L 100.66666666666667 53.666666666666664 L 101.0 53.0 L 101.0 52.0 L 101.0 51.0 L 100.66666666666667 50.0 L 100.33333333333333 49.0 L 100.0 48.0 L 99.66666666666667 47.333333333333336 L 99.0 47.0 L 98.33333333333333 47.333333333333336 L 98.0 48.0 L 98.33333333333333 49.0 L 98.66666666666667 50.0 L 99.0 51.0 L 99.0 52.0 L 99.0 52.5 Z" stroke="none" fill="rgb(69,65,64)" />
<path d="M 85.5 90.5 L 86.0 90.0 L 86.66666666666667 89.0 L 87.0 88.0 L 86.66666666666667 87.33333333333333 L 86.0 87.33333333333333 L 85.0 87.66666666666667 L 84.0 88.33333333333333 L 83.0 88.66666666666667 L 82.33333333333333 89.33333333333333 L 82.33333333333333 89.66666666666667 L 83.0 90.33333333333333 L 84.0 90.66666666666667 L 84.5 91.0 Z" stroke="none" fill="rgb(56,52,52)" />
<path d="M 31.5 7.5 L 32.0 7.666666666666667 L 32.666666666666664 7.666666666666667 L 33.0 7.0 L 33.0 6.0 L 32.666666666666664 5.0 L 32.0 4.333333333333333 L 31.0 4.333333333333333 L 30.0 5.0 L 29.333333333333332 6.0 L 29.333333333333332 6.666666666666667 L 30.0 7.0 L 30.5 7.0 Z" stroke="none" fill="rgb(62,58,58)" />
<path d="M 21.5 32.0 L 21.666666666666668 31.666666666666668 L 22.0 31.0 L 21.666666666666668 30.333333333333332 L 21.0 30.0 L 20.333333333333332 30.333333333333332 L 20.0 31.0 L 20.333333333333332 31.666666666666668 L 20.5 32.0 Z" stroke="none" fill="rgb(62,58,58)" />
<path d="M 17.5 84.0 L 17.666666666666668 83.66666666666667 L 18.0 83.0 L 17.666666666666668 82.33333333333333 L 17.0 82.0 L 16.333333333333332 82.33333333333333 L 16.0 83.0 L 16.333333333333332 83.66666666666667 L 16.5 84.0 Z" stroke="none" fill="rgb(0,0,0)" />
<path d="M 61.0 120.5 L 61.0 120.0 L 60.666666666666664 119.33333333333333 L 60.0 119.0 L 59.333333333333336 119.33333333333333 L 59.0 120.0 L 59.333333333333336 120.66666666666667 L 60.0 121.0 L 60.5 121.0 Z" stroke="none" fill="rgb(1,132,217)" />
<path d="M 88.5 19.0 L 88.66666666666667 18.666666666666668 L 89.0 18.0 L 88.66666666666667 17.333333333333332 L 88.0 17.0 L 87.33333333333333 17.333333333333332 L 87.33333333333333 18.0 L 87.5 18.5 Z" stroke="none" fill="rgb(0,0,0)" />
<path d="M 97.5 91.0 L 98.0 91.0 L 98.66666666666667 90.66666666666667 L 98.66666666666667 90.33333333333333 L 98.0 90.0 L 97.0 90.0 L 96.33333333333333 90.33333333333333 L 96.33333333333333 90.66666666666667 L 96.5 91.0 Z" stroke="none" fill="rgb(0,0,0)" />
<path d="M 21.5 79.0 L 21.666666666666668 78.66666666666667 L 22.0 78.0 L 21.666666666666668 77.33333333333333 L 21.333333333333332 77.33333333333333 L 21.0 78.0 L 21.0 78.5 Z" stroke="none" fill="rgb(0,0,0)" />
<path d="M 78.5 91.0 L 79.0 91.0 L 79.66666666666667 90.66666666666667 L 79.66666666666667 90.33333333333333 L 79.0 90.0 L 78.33333333333333 90.33333333333333 L 78.0 90.5 Z" stroke="none" fill="rgb(56,52,52)" />
<path d="M 32.5 5.0 L 32.666666666666664 4.666666666666667 L 32.666666666666664 4.333333333333333 L 32.333333333333336 4.333333333333333 L 32.0 4.5 Z" stroke="none" fill="rgb(0,0,0)" />
<path d="M 55.5 5.0 L 55.666666666666664 4.666666666666667 L 55.666666666666664 4.333333333333333 L 55.333333333333336 4.333333333333333 L 55.0 4.5 Z" stroke="none" fill="rgb(0,0,0)" />
<path d="M 62.5 5.0 L 62.666666666666664 4.666666666666667 L 62.666666666666664 4.333333333333333 L 62.333333333333336 4.333333333333333 L 62.0 4.5 Z" stroke="none" fill="rgb(0,0,0)" />
<path d="M 70.0 4.5 L 69.66666666666667 4.333333333333333 L 69.33333333333333 4.333333333333333 L 69.33333333333333 4.666666666666667 L 69.5 5.0 Z" stroke="none" fill="rgb(0,0,0)" />
<path d="M 29.5 6.0 L 29.666666666666668 5.666666666666667 L 29.666666666666668 5.333333333333333 L 29.333333333333332 5.333333333333333 L 29.0 5.5 Z" stroke="none" fill="rgb(0,0,0)" />
<path d="M 47.0 8.5 L 46.666666666666664 8.333333333333334 L 46.333333333333336 8.333333333333334 L 46.333333333333336 8.666666666666666 L 46.5 9.0 Z" stroke="none" fill="rgb(0,0,0)" />
<path d="M 44.5 10.0 L 44.666666666666664 9.666666666666666 L 44.666666666666664 9.333333333333334 L 44.333333333333336 9.333333333333334 L 44.0 9.5 Z" stroke="none" fill="rgb(0,0,0)" />
<path d="M 40.5 11.0 L 40.666666666666664 10.666666666666666 L 40.666666666666664 10.333333333333334 L 40.333333333333336 10.333333333333334 L 40.0 10.5 Z" stroke="none" fill="rgb(0,0,0)" />
<path d="M 43.5 11.0 L 43.666666666666664 10.666666666666666 L 43.666666666666664 10.333333333333334 L 43.333333333333336 10.333333333333334 L 43.0 10.5 Z" stroke="none" fill="rgb(0,0,0)" />
<path d="M 86.5 17.0 L 86.66666666666667 16.666666666666668 L 86.66666666666667 16.333333333333332 L 86.33333333333333 16.333333333333332 L 86.0 16.5 Z" stroke="none" fill="rgb(0,0,0)" />
<path d="M 23.5 18.0 L 23.666666666666668 17.666666666666668 L 23.666666666666668 17.333333333333332 L 23.333333333333332 17.333333333333332 L 23.0 17.5 Z" stroke="none" fill="rgb(0,0,0)" />
<path d="M 11.5 54.0 L 11.666666666666666 53.666666666666664 L 11.666666666666666 53.333333333333336 L 11.333333333333334 53.333333333333336 L 11.0 53.5 Z" stroke="none" fill="rgb(0,0,0)" />
<path d="M 11.5 58.0 L 11.666666666666666 57.666666666666664 L 11.666666666666666 57.333333333333336 L 11.333333333333334 57.333333333333336 L 11.0 57.5 Z" stroke="none" fill="rgb(0,0,0)" />
<path d="M 97.5 69.0 L 97.66666666666667 68.66666666666667 L 97.66666666666667 68.33333333333333 L 97.33333333333333 68.33333333333333 L 97.0 68.5 Z" stroke="none" fill="rgb(0,0,0)" />
<path d="M 106.5 69.0 L 106.66666666666667 68.66666666666667 L 106.66666666666667 68.33333333333333 L 106.33333333333333 68.33333333333333 L 106.0 68.5 Z" stroke="none" fill="rgb(0,0,0)" />
<path d="M 16.0 69.5 L 15.666666666666666 69.33333333333333 L 15.333333333333334 69.33333333333333 L 15.333333333333334 69.66666666666667 L 15.5 70.0 Z" stroke="none" fill="rgb(0,0,0)" />
<path d="M 92.0 76.5 L 91.66666666666667 76.33333333333333 L 91.33333333333333 76.33333333333333 L 91.33333333333333 76.66666666666667 L 91.5 77.0 Z" stroke="none" fill="rgb(0,0,0)" />
<path d="M 96.0 82.5 L 95.66666666666667 82.33333333333333 L 95.33333333333333 82.33333333333333 L 95.33333333333333 82.66666666666667 L 95.5 83.0 Z" stroke="none" fill="rgb(0,0,0)" />
<path d="M 27.5 91.0 L 27.666666666666668 90.66666666666667 L 27.666666666666668 90.33333333333333 L 27.333333333333332 90.33333333333333 L 27.0 90.5 Z" stroke="none" fill="rgb(0,0,0)" />
<path d="M 113.5 91.0 L 113.66666666666667 90.66666666666667 L 113.66666666666667 90.33333333333333 L 113.33333333333333 90.33333333333333 L 113.0 90.5 Z" stroke="none" fill="rgb(0,0,0)" />
<path d="M 38.5 92.0 L 38.666666666666664 91.66666666666667 L 38.666666666666664 91.33333333333333 L 38.333333333333336 91.33333333333333 L 38.0 91.5 Z" stroke="none" fill="rgb(62,58,58)" />
<path d="M 30.5 93.0 L 30.666666666666668 92.66666666666667 L 30.666666666666668 92.33333333333333 L 30.333333333333332 92.33333333333333 L 30.0 92.5 Z" stroke="none" fill="rgb(0,0,0)" />
<path d="M 80.0 92.5 L 79.66666666666667 92.33333333333333 L 79.33333333333333 92.33333333333333 L 79.33333333333333 92.66666666666667 L 79.5 93.0 Z" stroke="none" fill="rgb(69,65,64)" />
<path d="M 79.5 94.0 L 79.66666666666667 93.66666666666667 L 79.66666666666667 93.33333333333333 L 79.33333333333333 93.33333333333333 L 79.0 93.5 Z" stroke="none" fill="rgb(0,0,0)" />
<path d="M 86.5 98.0 L 86.66666666666667 97.66666666666667 L 86.66666666666667 97.33333333333333 L 86.33333333333333 97.33333333333333 L 86.0 97.5 Z" stroke="none" fill="rgb(0,0,0)" />
</svg>
