<?xml version="1.0" encoding="UTF-8" standalone="no"?>
<!DOCTYPE svg PUBLIC "-//W3C//DTD SVG 1.1//EN"
"http://www.w3.org/Graphics/SVG/1.1/DTD/svg11.dtd">
<svg width="128" height="128" xmlns="http://www.w3.org/2000/svg" version="1.1">
<path d="M 88.5 128.0 L 89.0 128.0 L 90.0 128.0 L 91.0 128.0 L 92.0 128.0 L 93.0 128.0 L 94.0 128.0 L 95.0 128.0 L 96.0 128.0 L 97.0 128.0 L 98.0 128.0 L 99.0 128.0 L 100.0 128.0 L 101.0 128.0 L 102.0 128.0 L 103.0 128.0 L 104.0 128.0 L 105.0 128.0 L 106.0 128.0 L 107.0 128.0 L 108.0 128.0 L 109.0 128.0 L 110.0 128.0 L 111.0 128.0 L 112.0 128.0 L 113.0 128.0 L 114.0 128.0 L 115.0 128.0 L 116.0 128.0 L 117.0 128.0 L 118.0 128.0 L 119.0 128.0 L 120.0 128.0 L 121.0 128.0 L 122.0 128.0 L 123.0 128.0 L 124.0 128.0 L 125.0 128.0 L 126.0 128.0 L 127.0 128.0 L 127.66666666666667 127.66666666666667 L 128.0 127.0 L 128.0 126.0 L 128.0 125.0 L 128.0 124.0 L 128.0 123.0 L 128.0 122.0 L 128.0 121.0 L 128.0 120.0 L 128.0 119.0 L 128.0 118.0 L 128.0 117.0 L 128.0 116.0 L 128.0 115.0 L 128.0 114.0 L 128.0 113.0 L 128.0 112.0 L 128.0 111.0 L 128.0 110.0 L 128.0 109.0 L 128.0 108.0 L 128.0 107.0 L 128.0 106.0 L 128.0 105.0 L 128.0 104.0 L 128.0 103.0 L 128.0 102.0 L 128.0 101.0 L 128.0 100.0 L 128.0 99.0 L 128.0 98.0 L 128.0 97.0 L 128.0 96.0 L 128.0 95.0 L 128.0 94.0 L 128.0 93.0 L 128.0 92.0 L 128.0 91.0 L 128.0 90.0 L 128.0 89.0 L 128.0 88.0 L 128.0 87.0 L 128.0 86.0 L 128.0 85.0 L 128.0 84.0 L 128.0 83.0 L 128.0 82.0 L 128.0 81.0 L 128.0 80.0 L 128.0 79.0 L 128.0 78.0 L 128.0 77.0 L 128.0 76.0 L 128.0 75.0 L 128.0 74.0 L 128.0 73.0 L 128.0 72.0 L 128.0 71.0 L 128.0 70.0 L 128.0 69.0 L 128.0 68.0 L 128.0 67.0 L 128.0 66.0 L 128.0 65.0 L 128.0 64.0 L 128.0 63.0 L 128.0 62.0 L 128.0 61.0 L 128.0 60.0 L 128.0 59.0 L 128.0 58.0 L 128.0 57.0 L 128.0 56.0 L 128.0 55.0 L 128.0 54.0 L 128.0 53.0 L 128.0 52.0 L 128.0 51.0 L 128.0 50.0 L 128.0 49.0 L 128.0 48.0 L 128.0 47.0 L 128.0 46.0 L 128.0 45.0 L 128.0 44.0 L 128.0 43.0 L 128.0 42.0 L 128.0 41.0 L 128.0 40.0 L 128.0 39.0 L 128.0 38.0 L 128.0 37.0 L 128.0 36.0 L 128.0 35.0 L 128.0 34.0 L 128.0 33.0 L 128.0 32.0 L 128.0 31.0 L 128.0 30.0 L 128.0 29.0 L 128.0 28.0 L 128.0 27.0 L 128.0 26.0 L 128.0 25.0 L 128.0 24.0 L 128.0 23.0 L 128.0 22.0 L 128.0 21.0 L 128.0 20.0 L 128.0 19.0 L 128.0 18.0 L 128.0 17.0 L 128.0 16.0 L 128.0 15.0 L 128.0 14.0 L 128.0 13.0 L 128.0 12.0 L 128.0 11.0 L 128.0 10.0 L 128.0 9.0 L 128.0 8.0 L 128.0 7.0 L 128.0 6.0 L 128.0 5.0 L 128.0 4.0 L 128.0 3.0 L 128.0 2.0 L 128.0 1.0 L 127.66666666666667 0.3333333333333333 L 127.0 0.0 L 126.0 0.0 L 125.0 0.0 L 124.0 0.0 L 123.0 0.0 L 122.0 0.0 L 121.0 0.0 L 120.0 0.0 L 119.0 0.0 L 118.0 0.0 L 117.0 0.0 L 116.0 0.0 L 115.0 0.0 L 114.0 0.0 L 113.0 0.0 L 112.0 0.0 L 111.0 0.0 L 110.0 0.0 L 109.0 0.0 L 108.0 0.0 L 107.0 0.0 L 106.0 0.0 L 105.0 0.0 L 104.0 0.0 L 103.0 0.0 L 102.0 0.0 L 101.0 0.0 L 100.0 0.0 L 99.0 0.0 L 98.0 0.0 L 97.0 0.0 L 96.0 0.0 L 95.0 0.0 L 94.0 0.0 L 93.0 0.0 L 92.0 0.0 L 91.0 0.0 L 90.0 0.0 L 89.0 0.0 L 88.0 0.0 L 87.0 0.0 L 86.0 0.0 L 85.0 0.0 L 84.0 0.0 L 83.0 0.0 L 82.0 0.0 L 81.0 0.0 L 80.0 0.0 L 79.0 0.0 L 78.0 0.0 L 77.0 0.0 L 76.0 0.0 L 75.0 0.0 L 74.0 0.0 L 73.0 0.0 L 72.0 0.0 L 71.0 0.0 L 70.0 0.0 L 69.0 0.0 L 68.0 0.0 L 67.0 0.0 L 66.0 0.0 L 65.0 0.0 L 64.0 0.0 L 63.0 0.0 L 62.0 0.0 L 61.0 0.0 L 60.0 0.0 L 59.0 0.0 L 58.0 0.0 L 57.0 0.0 L 56.0 0.0 L 55.0 0.0 L 54.0 0.0 L 53.0 0.0 L 52.0 0.0 L 51.0 0.0 L 50.0 0.0 L 49.0 0.0 L 48.0 0.0 L 47.0 0.0 L 46.0 0.0 L 45.0 0.0 L 44.0 0.0 L 43.0 0.0 L 42.0 0.0 L 41.0 0.0 L 40.0 0.0 L 39.0 0.0 L 38.0 0.0 L 37.0 0.0 L 36.0 0.0 L 35.0 0.0 L 34.0 0.0 L 33.0 0.0 L 32.0 0.0 L 31.0 0.0 L 30.0 0.0 L 29.0 0.0 L 28.0 0.0 L 27.0 0.0 L 26.0 0.0 L 25.0 0.0 L 24.0 0.0 L 23.0 0.0 L 22.0 0.0 L 21.0 0.0 L 20.0 0.0 L 19.0 0.0 L 18.0 0.0 L 17.0 0.0 L 16.0 0.0 L 15.0 0.0 L 14.0 0.0 L 13.0 0.0 L 12.0 0.0 L 11.0 0.0 L 10.0 0.0 L 9.0 0.0 L 8.0 0.0 L 7.0 0.0 L 6.0 0.0 L 5.0 0.0 L 4.0 0.0 L 3.0 0.0 L 2.0 0.0 L 1.0 0.0 L 0.3333333333333333 0.3333333333333333 L 0.0 1.0 L 0.0 2.0 L 0.0 3.0 L 0.0 4.0 L 0.0 5.0 L 0.0 6.0 L 0.0 7.0 L 0.0 8.0 L 0.0 9.0 L 0.0 10.0 L 0.0 11.0 L 0.0 12.0 L 0.0 13.0 L 0.0 14.0 L 0.0 15.0 L 0.0 16.0 L 0.0 17.0 L 0.0 18.0 L 0.0 19.0 L 0.0 20.0 L 0.0 21.0 L 0.0 22.0 L 0.0 23.0 L 0.0 24.0 L 0.0 25.0 L 0.0 26.0 L 0.0 27.0 L 0.0 28.0 L 0.0 29.0 L 0.0 30.0 L 0.0 31.0 L 0.0 32.0 L 0.0 33.0 L 0.0 34.0 L 0.0 35.0 L 0.0 36.0 L 0.0 37.0 L 0.0 38.0 L 0.0 39.0 L 0.0 40.0 L 0.0 41.0 L 0.0 42.0 L 0.0 43.0 L 0.0 44.0 L 0.0 45.0 L 0.0 46.0 L 0.0 47.0 L 0.0 48.0 L 0.0 49.0 L 0.0 50.0 L 0.0 51.0 L 0.0 52.0 L 0.0 53.0 L 0.0 54.0 L 0.0 55.0 L 0.0 56.0 L 0.0 57.0 L 0.0 58.0 L 0.0 59.0 L 0.0 60.0 L 0.0 61.0 L 0.0 62.0 L 0.0 63.0 L 0.0 64.0 L 0.0 65.0 L 0.0 66.0 L 0.0 67.0 L 0.0 68.0 L 0.0 69.0 L 0.0 70.0 L 0.0 71.0 L 0.0 72.0 L 0.0 73.0 L 0.0 74.0 L 0.0 75.0 L 0.0 76.0 L 0.0 77.0 L 0.0 78.0 L 0.0 79.0 L 0.0 80.0 L 0.0 81.0 L 0.0 82.0 L 0.0 83.0 L 0.0 84.0 L 0.0 85.0 L 0.0 86.0 L 0.0 87.0 L 0.0 88.0 L 0.0 89.0 L 0.0 90.0 L 0.0 91.0 L 0.0 92.0 L 0.0 93.0 L 0.0 94.0 L 0.0 95.0 L 0.0 96.0 L 0.0 97.0 L 0.0 98.0 L 0.0 99.0 L 0.0 100.0 L 0.0 101.0 L 0.0 102.0 L 0.0 103.0 L 0.0 104.0 L 0.0 105.0 L 0.0 106.0 L 0.0 107.0 L 0.0 108.0 L 0.0 109.0 L 0.0 110.0 L 0.0 111.0 L 0.0 112.0 L 0.0 113.0 L 0.0 114.0 L 0.0 115.0 L 0.0 116.0 L 0.0 117.0 L 0.0 118.0 L 0.0 119.0 L 0.0 120.0 L 0.0 121.0 L 0.0 122.0 L 0.0 123.0 L 0.0 124.0 L 0.0 125.0 L 0.0 126.0 L 0.0 127.0 L 0.3333333333333333 127.66666666666667 L 1.0 128.0 L 2.0 128.0 L 3.0 128.0 L 4.0 128.0 L 5.0 128.0 L 6.0 128.0 L 7.0 128.0 L 8.0 128.0 L 9.0 128.0 L 10.0 128.0 L 11.0 128.0 L 12.0 128.0 L 13.0 128.0 L 14.0 128.0 L 15.0 128.0 L 16.0 128.0 L 17.0 128.0 L 18.0 128.0 L 19.0 128.0 L 20.0 128.0 L 21.0 128.0 L 22.0 128.0 L 23.0 128.0 L 24.0 128.0 L 25.0 128.0 L 26.0 128.0 L 27.0 128.0 L 28.0 128.0 L 29.0 128.0 L 30.0 128.0 L 31.0 128.0 L 32.0 128.0 L 33.0 128.0 L 34.0 128.0 L 35.0 128.0 L 36.0 128.0 L 37.0 128.0 L 38.0 128.0 L 39.0 128.0 L 40.0 128.0 L 41.0 128.0 L 42.0 128.0 L 43.0 128.0 L 44.0 128.0 L 45.0 128.0 L 46.0 128.0 L 47.0 128.0 L 48.0 128.0 L 49.0 128.0 L 50.0 128.0 L 51.0 128.0 L 52.0 128.0 L 53.0 128.0 L 54.0 128.0 L 55.0 128.0 L 56.0 128.0 L 57.0 128.0 L 58.0 128.0 L 59.0 128.0 L 60.0 128.0 L 61.0 128.0 L 62.0 128.0 L 63.0 128.0 L 64.0 128.0 L 65.0 128.0 L 66.0 128.0 L 67.0 128.0 L 68.0 128.0 L 69.0 128.0 L 70.0 128.0 L 71.0 128.0 L 72.0 128.0 L 73.0 128.0 L 74.0 128.0 L 75.0 128.0 L 76.0 128.0 L 77.0 128.0 L 78.0 128.0 L 79.0 128.0 L 80.0 128.0 L 81.0 128.0 L 82.0 128.0 L 83.0 128.0 L 84.0 128.0 L 85.0 128.0 L 86.0 128.0 L 87.0 128.0 L 87.5 128.0 Z" stroke="none" fill="rgb(255,255,255)" />
<path d="M 33.5 80.5 L 33.666666666666664 81.0 L 34.333333333333336 82.0 L 35.0 83.0 L 36.0 83.66666666666667 L 37.0 84.0 L 38.0 84.0 L 39.0 84.0 L 40.0 84.0 L 41.0 83.66666666666667 L 42.0 83.33333333333333 L 43.0 83.0 L 44.0 83.0 L 44.666666666666664 82.66666666666667 L 45.0 82.0 L 45.0 81.0 L 44.666666666666664 80.0 L 44.0 79.0 L 43.0 78.0 L 42.0 77.0 L 41.0 76.0 L 40.0 75.0 L 39.0 74.0 L 38.333333333333336 73.0 L 37.666666666666664 72.0 L 37.0 71.0 L 36.333333333333336 70.0 L 35.666666666666664 69.0 L 35.333333333333336 68.0 L 34.666666666666664 67.0 L 34.333333333333336 66.0 L 34.0 65.0 L 34.0 64.0 L 34.0 63.0 L 34.0 62.0 L 34.0 61.0 L 34.0 60.0 L 34.0 59.0 L 34.0 58.0 L 34.0 57.0 L 34.0 56.0 L 34.333333333333336 55.0 L 34.666666666666664 54.0 L 35.0 53.0 L 35.0 52.0 L 35.333333333333336 51.0 L 36.0 50.0 L 37.0 49.0 L 38.0 48.333333333333336 L 39.0 48.333333333333336 L 40.0 48.666666666666664 L 41.0 48.666666666666664 L 42.0 48.0 L 43.0 47.0 L 44.0 46.333333333333336 L 45.0 46.0 L 45.666666666666664 45.666666666666664 L 46.0 45.0 L 46.333333333333336 44.0 L 47.0 43.333333333333336 L 48.0 42.666666666666664 L 49.0 42.0 L 50.0 41.333333333333336 L 51.0 40.666666666666664 L 52.0 40.0 L 53.0 39.333333333333336 L 54.0 38.666666666666664 L 55.0 38.0 L 56.0 37.0 L 57.0 36.333333333333336 L 58.0 35.666666666666664 L 59.0 35.0 L 60.0 34.0 L 61.0 33.0 L 62.0 32.0 L 63.0 31.0 L 64.0 30.0 L 65.0 29.0 L 66.0 28.333333333333332 L 67.0 28.333333333333332 L 68.0 29.0 L 69.0 29.666666666666668 L 70.0 30.333333333333332 L 71.0 31.0 L 72.0 31.666666666666668 L 73.0 32.333333333333336 L 74.0 32.666666666666664 L 75.0 33.333333333333336 L 76.0 34.0 L 77.0 34.666666666666664 L 78.0 35.333333333333336 L 79.0 35.666666666666664 L 80.0 36.0 L 81.0 36.333333333333336 L 82.0 36.666666666666664 L 83.0 37.333333333333336 L 84.0 38.0 L 85.0 39.0 L 86.0 40.0 L 86.66666666666667 41.0 L 87.33333333333333 42.0 L 87.66666666666667 43.0 L 88.33333333333333 44.0 L 88.66666666666667 45.0 L 89.0 46.0 L 89.33333333333333 47.0 L 89.66666666666667 48.0 L 90.0 49.0 L 90.33333333333333 50.0 L 90.66666666666667 51.0 L 91.0 52.0 L 91.0 53.0 L 91.33333333333333 54.0 L 91.66666666666667 55.0 L 92.0 56.0 L 92.0 57.0 L 92.0 58.0 L 92.0 59.0 L 92.0 60.0 L 92.0 61.0 L 92.0 62.0 L 92.0 63.0 L 92.0 64.0 L 91.66666666666667 65.0 L 91.33333333333333 66.0 L 91.0 67.0 L 90.66666666666667 68.0 L 90.33333333333333 69.0 L 89.66666666666667 70.0 L 89.33333333333333 71.0 L 88.66666666666667 72.0 L 88.0 73.0 L 87.33333333333333 74.0 L 86.66666666666667 75.0 L 86.0 76.0 L 85.0 77.0 L 84.0 78.0 L 83.0 79.0 L 82.33333333333333 80.0 L 82.0 81.0 L 82.33333333333333 81.66666666666667 L 83.0 82.0 L 84.0 82.33333333333333 L 85.0 82.66666666666667 L 86.0 83.0 L 87.0 83.33333333333333 L 88.0 83.66666666666667 L 89.0 84.0 L 90.0 84.0 L 91.0 84.0 L 91.66666666666667 83.66666666666667 L 92.33333333333333 83.0 L 93.0 82.0 L 93.66666666666667 81.0 L 94.33333333333333 80.0 L 94.66666666666667 79.0 L 95.0 78.0 L 95.33333333333333 77.0 L 95.66666666666667 76.0 L 96.33333333333333 75.0 L 96.66666666666667 74.0 L 97.0 73.0 L 97.0 72.0 L 97.33333333333333 71.0 L 98.0 70.33333333333333 L 99.0 70.0 L 100.0 69.66666666666667 L 100.66666666666667 69.0 L 100.66666666666667 68.0 L 100.33333333333333 67.0 L 100.0 66.0 L 100.0 65.0 L 100.33333333333333 64.0 L 100.66666666666667 63.0 L 100.66666666666667 62.0 L 100.33333333333333 61.0 L 100.0 60.0 L 100.0 59.0 L 100.0 58.0 L 100.0 57.0 L 100.0 56.0 L 100.0 55.0 L 100.0 54.0 L 99.66666666666667 53.0 L 99.33333333333333 52.0 L 99.0 51.0 L 99.0 50.0 L 99.0 49.0 L 99.0 48.0 L 99.0 47.0 L 98.66666666666667 46.0 L 98.33333333333333 45.0 L 98.0 44.0 L 98.0 43.0 L 98.0 42.0 L 98.0 41.0 L 97.66666666666667 40.0 L 97.33333333333333 39.0 L 96.66666666666667 38.0 L 96.0 37.0 L 95.33333333333333 36.0 L 94.66666666666667 35.0 L 94.33333333333333 34.0 L 93.66666666666667 33.0 L 93.0 32.0 L 92.33333333333333 31.0 L 91.66666666666667 30.0 L 91.0 29.0 L 90.0 28.0 L 89.33333333333333 27.0 L 88.66666666666667 26.0 L 88.0 25.0 L 87.0 24.0 L 86.0 23.333333333333332 L 85.0 22.666666666666668 L 84.0 22.0 L 83.0 21.0 L 82.0 20.0 L 81.0 19.333333333333332 L 80.0 18.666666666666668 L 79.0 18.333333333333332 L 78.0 17.666666666666668 L 77.0 17.333333333333332 L 76.0 16.666666666666668 L 75.0 16.333333333333332 L 74.0 15.666666666666666 L 73.0 15.333333333333334 L 72.0 15.0 L 71.0 14.666666666666666 L 70.0 14.333333333333334 L 69.0 14.0 L 68.0 14.0 L 67.0 13.666666666666666 L 66.0 13.333333333333334 L 65.0 13.0 L 64.0 13.0 L 63.0 13.0 L 62.0 13.0 L 61.0 13.0 L 60.0 13.0 L 59.0 13.0 L 58.0 13.0 L 57.0 13.0 L 56.0 13.0 L 55.0 13.333333333333334 L 54.0 13.666666666666666 L 53.0 14.0 L 52.0 14.0 L 51.0 14.333333333333334 L 50.0 14.666666666666666 L 49.0 15.0 L 48.0 15.333333333333334 L 47.0 15.666666666666666 L 46.0 16.333333333333332 L 45.0 16.666666666666668 L 44.0 17.333333333333332 L 43.0 18.0 L 42.0 18.666666666666668 L 41.0 19.333333333333332 L 40.0 20.0 L 39.0 21.0 L 38.0 22.0 L 37.0 23.0 L 36.0 24.0 L 35.0 25.0 L 34.333333333333336 26.0 L 33.666666666666664 27.0 L 33.0 28.0 L 32.333333333333336 29.0 L 31.666666666666668 30.0 L 31.0 31.0 L 30.333333333333332 32.0 L 29.666666666666668 33.0 L 29.333333333333332 34.0 L 29.0 35.0 L 28.666666666666668 36.0 L 28.333333333333332 37.0 L 27.666666666666668 38.0 L 27.333333333333332 39.0 L 27.0 40.0 L 27.0 41.0 L 26.666666666666668 42.0 L 26.333333333333332 43.0 L 26.0 44.0 L 26.0 45.0 L 26.0 46.0 L 25.666666666666668 47.0 L 25.333333333333332 48.0 L 25.0 49.0 L 25.0 50.0 L 25.0 51.0 L 25.0 52.0 L 25.0 53.0 L 25.0 54.0 L 24.666666666666668 55.0 L 24.333333333333332 56.0 L 24.333333333333332 57.0 L 24.666666666666668 58.0 L 25.0 59.0 L 25.0 60.0 L 25.333333333333332 61.0 L 25.666666666666668 62.0 L 26.0 63.0 L 26.0 64.0 L 26.333333333333332 65.0 L 26.666666666666668 66.0 L 27.0 67.0 L 27.0 68.0 L 27.333333333333332 69.0 L 27.666666666666668 70.0 L 28.333333333333332 71.0 L 28.666666666666668 72.0 L 29.0 73.0 L 29.333333333333332 74.0 L 29.666666666666668 75.0 L 30.0 76.0 L 30.333333333333332 76.66666666666667 L 31.0 77.33333333333333 L 32.0 78.0 L 32.666666666666664 79.0 L 33.0 79.5 Z" stroke="none" fill="rgb(84,57,48)" />
<path d="M 59.5 88.0 L 60.0 88.0 L 61.0 88.33333333333333 L 62.0 88.66666666666667 L 63.0 89.0 L 64.0 89.0 L 65.0 89.0 L 66.0 89.0 L 67.0 89.0 L 68.0 89.0 L 69.0 89.0 L 70.0 88.66666666666667 L 71.0 88.33333333333333 L 72.0 88.0 L 73.0 88.0 L 74.0 87.66666666666667 L 75.0 87.33333333333333 L 76.0 87.0 L 76.66666666666667 86.66666666666667 L 77.33333333333333 86.0 L 78.0 85.33333333333333 L 79.0 84.66666666666667 L 80.0 84.0 L 81.0 83.33333333333333 L 81.66666666666667 82.66666666666667 L 82.0 82.0 L 82.33333333333333 81.0 L 83.0 80.0 L 84.0 79.0 L 85.0 78.0 L 86.0 77.0 L 86.66666666666667 76.0 L 87.33333333333333 75.0 L 88.0 74.0 L 88.66666666666667 73.0 L 89.33333333333333 72.0 L 89.66666666666667 71.0 L 90.33333333333333 70.0 L 90.66666666666667 69.0 L 91.0 68.0 L 91.33333333333333 67.0 L 91.66666666666667 66.0 L 92.0 65.0 L 92.0 64.0 L 92.0 63.0 L 92.0 62.0 L 92.0 61.0 L 92.0 60.0 L 92.0 59.0 L 92.0 58.0 L 92.0 57.0 L 92.0 56.0 L 92.0 55.0 L 91.66666666666667 54.0 L 91.33333333333333 53.0 L 91.0 52.0 L 91.0 51.0 L 90.66666666666667 50.0 L 90.33333333333333 49.0 L 90.0 48.0 L 89.66666666666667 47.0 L 89.33333333333333 46.0 L 89.0 45.0 L 88.66666666666667 44.0 L 88.33333333333333 43.0 L 87.66666666666667 42.0 L 87.33333333333333 41.0 L 86.66666666666667 40.0 L 86.0 39.0 L 85.0 38.0 L 84.0 37.333333333333336 L 83.0 36.666666666666664 L 82.0 36.333333333333336 L 81.0 36.0 L 80.0 35.666666666666664 L 79.0 35.333333333333336 L 78.0 34.666666666666664 L 77.0 34.0 L 76.0 33.333333333333336 L 75.0 32.666666666666664 L 74.0 32.333333333333336 L 73.0 31.666666666666668 L 72.0 31.0 L 71.0 30.333333333333332 L 70.0 29.666666666666668 L 69.0 29.0 L 68.0 28.0 L 67.0 27.333333333333332 L 66.0 27.333333333333332 L 65.0 28.0 L 64.0 29.0 L 63.0 30.0 L 62.0 31.0 L 61.0 32.0 L 60.0 33.0 L 59.0 34.0 L 58.0 35.0 L 57.0 35.666666666666664 L 56.0 36.333333333333336 L 55.0 37.0 L 54.0 38.0 L 53.0 38.666666666666664 L 52.0 39.333333333333336 L 51.0 40.0 L 50.0 40.666666666666664 L 49.0 41.333333333333336 L 48.0 42.0 L 47.0 42.666666666666664 L 46.333333333333336 43.333333333333336 L 46.0 44.0 L 46.333333333333336 44.666666666666664 L 47.0 45.0 L 48.0 45.0 L 49.0 45.333333333333336 L 50.0 45.666666666666664 L 51.0 46.333333333333336 L 52.0 47.0 L 52.333333333333336 48.0 L 52.0 48.666666666666664 L 51.0 49.0 L 50.0 49.0 L 49.0 49.0 L 48.0 49.0 L 47.0 49.0 L 46.0 49.333333333333336 L 45.0 49.666666666666664 L 44.0 50.0 L 43.0 50.0 L 42.0 50.0 L 41.0 49.666666666666664 L 40.333333333333336 49.0 L 39.666666666666664 48.0 L 39.0 47.333333333333336 L 38.0 47.333333333333336 L 37.0 48.0 L 36.0 49.0 L 35.333333333333336 50.0 L 35.0 51.0 L 35.0 52.0 L 34.666666666666664 53.0 L 34.333333333333336 54.0 L 34.0 55.0 L 34.0 56.0 L 34.0 57.0 L 34.0 58.0 L 34.0 59.0 L 34.0 60.0 L 34.0 61.0 L 34.0 62.0 L 34.0 63.0 L 34.0 64.0 L 34.0 65.0 L 34.0 66.0 L 34.333333333333336 67.0 L 34.666666666666664 68.0 L 35.333333333333336 69.0 L 35.666666666666664 70.0 L 36.333333333333336 71.0 L 37.0 72.0 L 37.666666666666664 73.0 L 38.333333333333336 74.0 L 39.0 75.0 L 40.0 76.0 L 41.0 77.0 L 42.0 78.0 L 43.0 79.0 L 44.0 80.0 L 44.666666666666664 81.0 L 45.333333333333336 82.0 L 46.0 82.66666666666667 L 47.0 83.33333333333333 L 48.0 83.66666666666667 L 49.0 84.33333333333333 L 50.0 84.66666666666667 L 51.0 85.33333333333333 L 52.0 86.0 L 53.0 87.0 L 54.0 87.66666666666667 L 55.0 88.0 L 56.0 88.0 L 57.0 88.0 L 58.0 88.0 L 58.5 88.0 Z" stroke="none" fill="rgb(255,202,40)" />
<path d="M 23.5 53.5 L 24.0 53.666666666666664 L 24.666666666666668 53.666666666666664 L 25.0 53.0 L 25.0 52.0 L 25.0 51.0 L 25.0 50.0 L 25.333333333333332 49.0 L 25.666666666666668 48.0 L 26.0 47.0 L 26.0 46.0 L 26.0 45.0 L 26.333333333333332 44.0 L 26.666666666666668 43.0 L 27.0 42.0 L 27.0 41.0 L 27.333333333333332 40.0 L 27.666666666666668 39.0 L 28.333333333333332 38.0 L 28.666666666666668 37.0 L 29.0 36.0 L 29.333333333333332 35.0 L 29.666666666666668 34.0 L 30.333333333333332 33.0 L 31.0 32.0 L 31.666666666666668 31.0 L 32.333333333333336 30.0 L 33.0 29.0 L 33.666666666666664 28.0 L 34.333333333333336 27.0 L 35.0 26.0 L 36.0 25.0 L 37.0 24.0 L 38.0 23.0 L 39.0 22.0 L 40.0 21.0 L 41.0 20.0 L 42.0 19.333333333333332 L 43.0 18.666666666666668 L 44.0 18.0 L 45.0 17.333333333333332 L 46.0 16.666666666666668 L 47.0 16.333333333333332 L 48.0 15.666666666666666 L 49.0 15.333333333333334 L 50.0 15.0 L 51.0 14.666666666666666 L 52.0 14.333333333333334 L 53.0 14.0 L 54.0 14.0 L 55.0 13.666666666666666 L 56.0 13.333333333333334 L 57.0 13.0 L 58.0 13.0 L 59.0 13.0 L 60.0 13.0 L 61.0 13.0 L 62.0 13.0 L 63.0 13.0 L 64.0 13.0 L 65.0 13.333333333333334 L 66.0 13.666666666666666 L 67.0 14.0 L 68.0 14.0 L 69.0 14.333333333333334 L 70.0 14.666666666666666 L 71.0 15.0 L 72.0 15.333333333333334 L 73.0 15.666666666666666 L 74.0 16.333333333333332 L 75.0 16.666666666666668 L 76.0 17.333333333333332 L 77.0 17.666666666666668 L 78.0 18.333333333333332 L 79.0 18.666666666666668 L 80.0 19.333333333333332 L 81.0 20.0 L 82.0 21.0 L 83.0 22.0 L 84.0 22.666666666666668 L 85.0 23.333333333333332 L 86.0 24.0 L 87.0 25.0 L 88.0 26.0 L 88.66666666666667 27.0 L 89.33333333333333 28.0 L 90.0 29.0 L 91.0 30.0 L 91.66666666666667 31.0 L 92.33333333333333 32.0 L 93.0 33.0 L 93.66666666666667 34.0 L 94.33333333333333 35.0 L 94.66666666666667 36.0 L 95.33333333333333 37.0 L 96.0 37.666666666666664 L 96.66666666666667 37.666666666666664 L 97.0 37.0 L 97.0 36.0 L 97.0 35.0 L 96.66666666666667 34.0 L 96.33333333333333 33.0 L 96.0 32.0 L 96.0 31.0 L 95.66666666666667 30.0 L 95.0 29.0 L 94.0 28.0 L 93.33333333333333 27.0 L 92.66666666666667 26.0 L 92.0 25.0 L 91.0 24.0 L 90.0 23.0 L 89.0 22.0 L 88.0 21.0 L 87.0 20.0 L 86.0 19.0 L 85.0 18.0 L 84.0 17.333333333333332 L 83.0 16.666666666666668 L 82.0 16.0 L 81.0 15.333333333333334 L 80.0 14.666666666666666 L 79.0 14.333333333333334 L 78.0 13.666666666666666 L 77.0 13.333333333333334 L 76.0 12.666666666666666 L 75.0 12.333333333333334 L 74.0 11.666666666666666 L 73.0 11.333333333333334 L 72.0 11.0 L 71.0 11.0 L 70.0 10.666666666666666 L 69.0 10.333333333333334 L 68.0 10.0 L 67.0 10.0 L 66.0 10.0 L 65.0 10.0 L 64.0 10.0 L 63.0 9.666666666666666 L 62.0 9.333333333333334 L 61.0 9.0 L 60.0 9.0 L 59.0 9.333333333333334 L 58.0 9.666666666666666 L 57.0 10.0 L 56.0 10.0 L 55.0 10.0 L 54.0 10.0 L 53.0 10.0 L 52.0 10.333333333333334 L 51.0 10.666666666666666 L 50.0 11.0 L 49.0 11.333333333333334 L 48.0 11.666666666666666 L 47.0 12.0 L 46.0 12.333333333333334 L 45.0 12.666666666666666 L 44.0 13.333333333333334 L 43.0 13.666666666666666 L 42.0 14.333333333333334 L 41.0 15.0 L 40.0 15.666666666666666 L 39.0 16.333333333333332 L 38.0 17.0 L 37.0 18.0 L 36.0 19.0 L 35.0 20.0 L 34.0 21.0 L 33.0 22.0 L 32.333333333333336 23.0 L 31.666666666666668 24.0 L 31.0 25.0 L 30.333333333333332 26.0 L 29.666666666666668 27.0 L 29.0 28.0 L 28.333333333333332 29.0 L 27.666666666666668 30.0 L 27.333333333333332 31.0 L 26.666666666666668 32.0 L 26.333333333333332 33.0 L 25.666666666666668 34.0 L 25.333333333333332 35.0 L 25.0 36.0 L 24.666666666666668 37.0 L 24.333333333333332 38.0 L 24.0 39.0 L 24.0 40.0 L 23.666666666666668 41.0 L 23.333333333333332 42.0 L 23.0 43.0 L 22.666666666666668 44.0 L 22.333333333333332 45.0 L 22.0 46.0 L 22.333333333333332 47.0 L 22.666666666666668 48.0 L 23.0 49.0 L 23.0 50.0 L 23.0 51.0 L 23.0 52.0 L 23.0 52.5 Z" stroke="none" fill="rgb(92,63,53)" />
<path d="M 23.5 42.5 L 23.666666666666668 42.0 L 24.0 41.0 L 24.0 40.0 L 24.333333333333332 39.0 L 24.666666666666668 38.0 L 25.0 37.0 L 25.333333333333332 36.0 L 25.666666666666668 35.0 L 26.333333333333332 34.0 L 26.666666666666668 33.0 L 27.333333333333332 32.0 L 27.666666666666668 31.0 L 28.333333333333332 30.0 L 29.0 29.0 L 29.666666666666668 28.0 L 30.333333333333332 27.0 L 31.0 26.0 L 31.666666666666668 25.0 L 32.333333333333336 24.0 L 33.0 23.0 L 34.0 22.0 L 35.0 21.0 L 36.0 20.0 L 37.0 19.0 L 38.0 18.0 L 39.0 17.0 L 40.0 16.333333333333332 L 41.0 15.666666666666666 L 42.0 15.0 L 43.0 14.333333333333334 L 44.0 13.666666666666666 L 45.0 13.333333333333334 L 46.0 12.666666666666666 L 47.0 12.333333333333334 L 48.0 12.0 L 49.0 11.666666666666666 L 50.0 11.333333333333334 L 51.0 11.0 L 52.0 10.666666666666666 L 53.0 10.333333333333334 L 54.0 10.0 L 55.0 10.0 L 56.0 10.0 L 57.0 10.0 L 58.0 10.0 L 59.0 9.666666666666666 L 60.0 9.333333333333334 L 61.0 9.333333333333334 L 62.0 9.666666666666666 L 63.0 10.0 L 64.0 10.0 L 65.0 10.0 L 66.0 10.0 L 67.0 10.0 L 68.0 10.333333333333334 L 69.0 10.666666666666666 L 70.0 11.0 L 71.0 11.0 L 72.0 11.333333333333334 L 73.0 11.666666666666666 L 74.0 12.333333333333334 L 75.0 12.666666666666666 L 76.0 13.333333333333334 L 77.0 13.666666666666666 L 78.0 14.333333333333334 L 79.0 14.666666666666666 L 80.0 15.333333333333334 L 81.0 16.0 L 82.0 16.666666666666668 L 83.0 17.333333333333332 L 84.0 18.0 L 85.0 19.0 L 86.0 20.0 L 87.0 21.0 L 88.0 22.0 L 89.0 23.0 L 90.0 24.0 L 91.0 25.0 L 92.0 26.0 L 92.66666666666667 27.0 L 93.33333333333333 28.0 L 94.0 28.666666666666668 L 94.66666666666667 28.666666666666668 L 95.0 28.0 L 95.0 27.0 L 94.66666666666667 26.0 L 94.33333333333333 25.0 L 93.66666666666667 24.0 L 93.33333333333333 23.0 L 93.0 22.0 L 92.66666666666667 21.0 L 92.0 20.0 L 91.0 19.333333333333332 L 90.0 18.666666666666668 L 89.0 18.0 L 88.0 17.0 L 87.0 16.0 L 86.0 15.333333333333334 L 85.0 14.666666666666666 L 84.0 14.0 L 83.0 13.333333333333334 L 82.0 12.666666666666666 L 81.0 12.0 L 80.0 11.333333333333334 L 79.0 10.666666666666666 L 78.0 10.333333333333334 L 77.0 9.666666666666666 L 76.0 9.333333333333334 L 75.0 9.0 L 74.0 8.666666666666666 L 73.0 8.333333333333334 L 72.0 8.0 L 71.0 7.666666666666667 L 70.0 7.333333333333333 L 69.0 7.0 L 68.0 7.0 L 67.0 7.0 L 66.0 6.666666666666667 L 65.0 6.333333333333333 L 64.0 6.0 L 63.0 6.0 L 62.0 6.0 L 61.0 6.0 L 60.0 6.0 L 59.0 6.0 L 58.0 6.0 L 57.0 6.0 L 56.0 6.333333333333333 L 55.0 6.666666666666667 L 54.0 7.0 L 53.0 7.0 L 52.0 7.0 L 51.0 7.333333333333333 L 50.0 7.666666666666667 L 49.0 8.0 L 48.0 8.0 L 47.0 8.333333333333334 L 46.0 8.666666666666666 L 45.0 9.333333333333334 L 44.0 9.666666666666666 L 43.0 10.333333333333334 L 42.0 10.666666666666666 L 41.0 11.333333333333334 L 40.0 12.0 L 39.0 12.666666666666666 L 38.0 13.333333333333334 L 37.0 14.0 L 36.0 15.0 L 35.0 16.0 L 34.0 17.0 L 33.0 18.0 L 32.0 19.0 L 31.0 20.0 L 30.0 21.0 L 29.333333333333332 22.0 L 28.666666666666668 23.0 L 28.0 24.0 L 27.333333333333332 25.0 L 26.666666666666668 26.0 L 26.333333333333332 27.0 L 25.666666666666668 28.0 L 25.333333333333332 29.0 L 24.666666666666668 30.0 L 24.0 31.0 L 23.333333333333332 32.0 L 23.0 33.0 L 22.666666666666668 34.0 L 22.333333333333332 35.0 L 22.0 36.0 L 22.0 37.0 L 22.0 38.0 L 22.0 39.0 L 22.0 40.0 L 22.0 41.0 L 22.0 42.0 L 22.333333333333332 42.666666666666664 L 22.5 43.0 Z" stroke="none" fill="rgb(100,69,58)" />
<path d="M 95.5 114.5 L 96.0 114.66666666666667 L 97.0 115.0 L 98.0 115.0 L 99.0 115.0 L 100.0 115.0 L 101.0 115.0 L 102.0 115.0 L 103.0 115.0 L 104.0 115.0 L 105.0 115.0 L 106.0 115.0 L 107.0 115.0 L 108.0 115.0 L 109.0 115.0 L 110.0 115.0 L 111.0 115.0 L 112.0 115.0 L 113.0 115.0 L 114.0 115.0 L 115.0 115.0 L 115.66666666666667 114.66666666666667 L 116.0 114.0 L 116.0 113.0 L 116.0 112.0 L 116.0 111.0 L 116.0 110.0 L 116.0 109.0 L 116.0 108.0 L 116.0 107.0 L 116.0 106.0 L 115.66666666666667 105.33333333333333 L 115.0 105.0 L 114.0 105.0 L 113.0 105.0 L 112.0 105.0 L 111.0 105.0 L 110.0 105.0 L 109.0 105.0 L 108.0 105.0 L 107.0 105.0 L 106.0 105.0 L 105.0 105.0 L 104.0 105.0 L 103.0 105.0 L 102.0 105.0 L 101.0 105.0 L 100.0 105.0 L 99.0 105.0 L 98.0 105.0 L 97.0 105.0 L 96.0 105.0 L 95.0 105.0 L 94.0 105.0 L 93.0 105.0 L 92.0 105.0 L 91.0 105.0 L 90.0 105.0 L 89.0 105.0 L 88.0 105.0 L 87.0 105.0 L 86.0 105.0 L 85.0 105.0 L 84.0 105.0 L 83.0 105.0 L 82.0 105.0 L 81.0 105.0 L 80.0 105.0 L 79.0 105.0 L 78.0 105.0 L 77.0 105.0 L 76.0 105.0 L 75.0 105.0 L 74.0 105.0 L 73.0 105.0 L 72.0 105.0 L 71.0 105.0 L 70.0 105.0 L 69.0 105.0 L 68.0 105.0 L 67.0 105.0 L 66.0 105.0 L 65.0 105.0 L 64.0 105.0 L 63.0 105.0 L 62.0 105.0 L 61.0 105.0 L 60.0 105.0 L 59.0 105.0 L 58.0 105.0 L 57.0 105.0 L 56.0 105.0 L 55.0 105.0 L 54.0 105.0 L 53.0 105.0 L 52.0 105.0 L 51.0 105.0 L 50.0 105.0 L 49.0 105.0 L 48.0 105.0 L 47.0 105.0 L 46.0 105.0 L 45.0 105.0 L 44.0 105.0 L 43.0 105.0 L 42.0 105.0 L 41.0 105.0 L 40.0 105.0 L 39.0 105.0 L 38.0 105.0 L 37.0 105.0 L 36.0 105.0 L 35.0 105.0 L 34.0 105.0 L 33.0 105.0 L 32.0 105.0 L 31.0 105.0 L 30.0 105.0 L 29.0 105.0 L 28.0 105.0 L 27.0 105.0 L 26.0 105.0 L 25.0 105.0 L 24.0 105.0 L 23.0 105.0 L 22.0 105.0 L 21.0 105.0 L 20.0 105.0 L 19.0 105.0 L 18.0 105.0 L 17.0 105.0 L 16.0 105.0 L 15.0 105.0 L 14.0 105.0 L 13.0 105.0 L 12.333333333333334 105.33333333333333 L 12.0 106.0 L 12.0 107.0 L 12.0 108.0 L 12.0 109.0 L 12.0 110.0 L 12.0 111.0 L 12.0 112.0 L 12.0 113.0 L 12.0 114.0 L 12.333333333333334 114.66666666666667 L 13.0 115.0 L 14.0 115.0 L 15.0 115.0 L 16.0 115.0 L 17.0 115.0 L 18.0 115.0 L 19.0 115.0 L 20.0 115.0 L 21.0 115.0 L 22.0 115.0 L 23.0 115.0 L 24.0 115.0 L 25.0 115.0 L 26.0 115.0 L 27.0 115.0 L 28.0 115.0 L 29.0 115.0 L 30.0 115.0 L 31.0 115.0 L 32.0 114.66666666666667 L 32.666666666666664 114.0 L 33.333333333333336 113.0 L 34.0 112.66666666666667 L 34.666666666666664 113.0 L 35.0 114.0 L 35.333333333333336 114.66666666666667 L 36.0 115.0 L 37.0 115.0 L 38.0 115.0 L 39.0 115.0 L 40.0 115.0 L 41.0 115.0 L 42.0 115.0 L 43.0 115.0 L 44.0 115.0 L 45.0 115.0 L 46.0 115.0 L 47.0 115.0 L 48.0 115.0 L 49.0 115.0 L 50.0 115.0 L 51.0 115.0 L 52.0 115.0 L 53.0 115.0 L 54.0 115.0 L 55.0 115.0 L 56.0 115.0 L 57.0 115.0 L 58.0 115.0 L 59.0 115.0 L 60.0 115.0 L 61.0 115.0 L 62.0 115.0 L 63.0 115.0 L 64.0 115.0 L 65.0 115.0 L 66.0 115.0 L 67.0 115.0 L 68.0 115.0 L 69.0 115.0 L 70.0 115.0 L 71.0 115.0 L 72.0 115.0 L 73.0 115.0 L 74.0 115.0 L 75.0 115.0 L 76.0 115.0 L 77.0 115.0 L 78.0 115.0 L 79.0 115.0 L 80.0 115.0 L 81.0 115.0 L 82.0 115.0 L 83.0 115.0 L 84.0 115.0 L 85.0 115.0 L 86.0 115.0 L 87.0 115.0 L 88.0 115.0 L 89.0 115.0 L 90.0 115.0 L 91.0 115.0 L 92.0 115.0 L 92.66666666666667 114.66666666666667 L 93.0 114.0 L 93.33333333333333 113.0 L 94.0 112.66666666666667 L 94.66666666666667 113.0 L 95.0 113.5 Z" stroke="none" fill="rgb(91,22,244)" />
<path d="M 95.5 105.0 L 96.0 105.0 L 97.0 105.0 L 98.0 105.0 L 99.0 105.0 L 100.0 105.0 L 101.0 105.0 L 102.0 105.0 L 103.0 105.0 L 104.0 105.0 L 105.0 105.0 L 106.0 105.0 L 107.0 105.0 L 108.0 105.0 L 109.0 105.0 L 110.0 105.0 L 111.0 105.0 L 112.0 105.0 L 113.0 105.0 L 114.0 105.0 L 115.0 105.0 L 115.66666666666667 104.66666666666667 L 116.0 104.0 L 116.0 103.0 L 116.0 102.0 L 116.0 101.0 L 116.0 100.0 L 116.0 99.0 L 116.0 98.0 L 116.0 97.0 L 115.66666666666667 96.33333333333333 L 115.0 96.0 L 114.0 96.0 L 113.0 96.0 L 112.0 96.0 L 111.0 96.0 L 110.0 96.0 L 109.0 96.0 L 108.0 96.0 L 107.0 96.0 L 106.0 96.0 L 105.0 96.0 L 104.0 96.0 L 103.0 96.0 L 102.0 96.0 L 101.0 96.0 L 100.0 96.0 L 99.0 96.0 L 98.0 96.0 L 97.0 96.0 L 96.0 96.0 L 95.0 96.0 L 94.0 96.0 L 93.0 96.0 L 92.0 96.0 L 91.0 96.0 L 90.0 96.0 L 89.0 96.0 L 88.0 96.0 L 87.0 96.0 L 86.0 96.0 L 85.0 96.0 L 84.0 96.0 L 83.0 96.0 L 82.0 96.0 L 81.0 96.0 L 80.0 96.0 L 79.0 96.0 L 78.0 96.0 L 77.0 96.0 L 76.0 96.0 L 75.0 96.0 L 74.0 96.0 L 73.0 96.0 L 72.0 96.0 L 71.0 96.0 L 70.0 96.0 L 69.0 96.0 L 68.0 96.0 L 67.0 96.0 L 66.0 96.0 L 65.0 96.0 L 64.0 96.0 L 63.0 96.0 L 62.0 96.0 L 61.0 96.0 L 60.0 95.66666666666667 L 59.0 95.33333333333333 L 58.0 95.33333333333333 L 57.0 95.66666666666667 L 56.0 96.0 L 55.0 96.0 L 54.0 96.0 L 53.0 96.0 L 52.0 96.0 L 51.0 96.0 L 50.0 96.0 L 49.0 96.0 L 48.0 96.0 L 47.0 96.0 L 46.0 96.0 L 45.0 96.0 L 44.0 96.0 L 43.0 96.0 L 42.0 96.0 L 41.0 96.0 L 40.0 96.0 L 39.0 96.0 L 38.0 96.0 L 37.0 96.0 L 36.0 96.0 L 35.0 96.0 L 34.0 96.0 L 33.0 96.0 L 32.0 96.0 L 31.0 96.0 L 30.0 96.0 L 29.0 96.0 L 28.0 96.0 L 27.0 96.0 L 26.0 96.0 L 25.0 96.0 L 24.0 96.0 L 23.0 96.0 L 22.0 96.0 L 21.0 96.0 L 20.0 96.0 L 19.0 96.0 L 18.0 96.0 L 17.0 96.0 L 16.0 96.0 L 15.0 96.0 L 14.0 96.0 L 13.0 96.0 L 12.333333333333334 96.33333333333333 L 12.0 97.0 L 12.0 98.0 L 12.0 99.0 L 12.0 100.0 L 12.0 101.0 L 12.0 102.0 L 12.0 103.0 L 12.0 104.0 L 12.333333333333334 104.66666666666667 L 13.0 105.0 L 14.0 105.0 L 15.0 105.0 L 16.0 105.0 L 17.0 105.0 L 18.0 105.0 L 19.0 105.0 L 20.0 105.0 L 21.0 105.0 L 22.0 105.0 L 23.0 105.0 L 24.0 105.0 L 25.0 105.0 L 26.0 105.0 L 27.0 105.0 L 28.0 105.0 L 29.0 105.0 L 30.0 105.0 L 31.0 105.0 L 32.0 105.0 L 33.0 105.0 L 34.0 105.0 L 35.0 105.0 L 36.0 105.0 L 37.0 105.0 L 38.0 105.0 L 39.0 105.0 L 40.0 105.0 L 41.0 105.0 L 42.0 105.0 L 43.0 105.0 L 44.0 105.0 L 45.0 105.0 L 46.0 105.0 L 47.0 105.0 L 48.0 105.0 L 49.0 105.0 L 50.0 105.0 L 51.0 105.0 L 52.0 105.0 L 53.0 105.0 L 54.0 105.0 L 55.0 105.0 L 56.0 105.0 L 57.0 105.0 L 58.0 105.0 L 59.0 105.0 L 60.0 105.0 L 61.0 105.0 L 62.0 105.0 L 63.0 105.0 L 64.0 105.0 L 65.0 105.0 L 66.0 105.0 L 67.0 105.0 L 68.0 105.0 L 69.0 105.0 L 70.0 105.0 L 71.0 105.0 L 72.0 105.0 L 73.0 105.0 L 74.0 105.0 L 75.0 105.0 L 76.0 105.0 L 77.0 105.0 L 78.0 105.0 L 79.0 105.0 L 80.0 105.0 L 81.0 105.0 L 82.0 105.0 L 83.0 105.0 L 84.0 105.0 L 85.0 105.0 L 86.0 105.0 L 87.0 105.0 L 88.0 105.0 L 89.0 105.0 L 90.0 105.0 L 91.0 105.0 L 92.0 105.0 L 93.0 105.0 L 94.0 105.0 L 94.5 105.0 Z" stroke="none" fill="rgb(94,25,247)" />
<path d="M 65.5 7.0 L 66.0 7.0 L 67.0 7.0 L 68.0 7.0 L 69.0 7.333333333333333 L 70.0 7.666666666666667 L 71.0 8.0 L 72.0 8.333333333333334 L 73.0 8.666666666666666 L 74.0 9.0 L 75.0 9.333333333333334 L 76.0 9.666666666666666 L 77.0 10.333333333333334 L 78.0 10.666666666666666 L 79.0 11.333333333333334 L 80.0 12.0 L 81.0 12.666666666666666 L 82.0 13.333333333333334 L 83.0 14.0 L 84.0 14.666666666666666 L 85.0 15.333333333333334 L 86.0 16.0 L 87.0 17.0 L 88.0 18.0 L 89.0 18.666666666666668 L 90.0 19.0 L 90.66666666666667 18.666666666666668 L 90.66666666666667 18.0 L 90.33333333333333 17.0 L 89.66666666666667 16.0 L 89.0 15.0 L 88.0 14.0 L 87.0 13.0 L 86.0 12.0 L 85.0 11.0 L 84.0 10.0 L 83.0 9.333333333333334 L 82.0 8.666666666666666 L 81.0 8.0 L 80.0 7.333333333333333 L 79.0 6.666666666666667 L 78.0 6.333333333333333 L 77.0 6.0 L 76.0 5.666666666666667 L 75.0 5.333333333333333 L 74.0 5.0 L 73.0 4.666666666666667 L 72.0 4.333333333333333 L 71.0 4.0 L 70.0 4.0 L 69.0 4.0 L 68.0 4.0 L 67.0 4.0 L 66.0 3.6666666666666665 L 65.0 3.3333333333333335 L 64.0 3.0 L 63.0 3.0 L 62.0 3.0 L 61.0 3.3333333333333335 L 60.0 3.6666666666666665 L 59.0 4.0 L 58.0 4.0 L 57.0 4.0 L 56.0 4.0 L 55.0 4.0 L 54.0 4.0 L 53.0 4.0 L 52.0 4.333333333333333 L 51.0 4.666666666666667 L 50.0 5.0 L 49.0 5.0 L 48.0 5.333333333333333 L 47.0 5.666666666666667 L 46.0 6.0 L 45.0 6.333333333333333 L 44.0 6.666666666666667 L 43.0 7.0 L 42.0 7.333333333333333 L 41.0 7.666666666666667 L 40.0 8.333333333333334 L 39.0 8.666666666666666 L 38.0 9.333333333333334 L 37.0 10.0 L 36.0 10.666666666666666 L 35.0 11.333333333333334 L 34.0 12.0 L 33.0 13.0 L 32.0 14.0 L 31.0 15.0 L 30.0 16.0 L 29.0 17.0 L 28.333333333333332 18.0 L 27.666666666666668 19.0 L 27.0 20.0 L 26.333333333333332 21.0 L 25.666666666666668 22.0 L 25.333333333333332 23.0 L 24.666666666666668 24.0 L 24.333333333333332 25.0 L 24.0 26.0 L 23.666666666666668 27.0 L 23.333333333333332 28.0 L 23.0 29.0 L 23.0 30.0 L 23.0 31.0 L 23.333333333333332 31.666666666666668 L 24.0 31.666666666666668 L 24.666666666666668 31.0 L 25.333333333333332 30.0 L 25.666666666666668 29.0 L 26.333333333333332 28.0 L 26.666666666666668 27.0 L 27.333333333333332 26.0 L 28.0 25.0 L 28.666666666666668 24.0 L 29.333333333333332 23.0 L 30.0 22.0 L 31.0 21.0 L 32.0 20.0 L 33.0 19.0 L 34.0 18.0 L 35.0 17.0 L 36.0 16.0 L 37.0 15.0 L 38.0 14.0 L 39.0 13.333333333333334 L 40.0 12.666666666666666 L 41.0 12.0 L 42.0 11.333333333333334 L 43.0 10.666666666666666 L 44.0 10.333333333333334 L 45.0 9.666666666666666 L 46.0 9.333333333333334 L 47.0 8.666666666666666 L 48.0 8.333333333333334 L 49.0 8.0 L 50.0 8.0 L 51.0 7.666666666666667 L 52.0 7.333333333333333 L 53.0 7.0 L 54.0 7.0 L 55.0 7.0 L 56.0 6.666666666666667 L 57.0 6.333333333333333 L 58.0 6.0 L 59.0 6.0 L 60.0 6.0 L 61.0 6.0 L 62.0 6.0 L 63.0 6.0 L 64.0 6.333333333333333 L 64.5 6.5 Z" stroke="none" fill="rgb(107,75,64)" />
<path d="M 39.5 124.0 L 40.0 124.0 L 41.0 124.0 L 42.0 124.0 L 43.0 124.0 L 44.0 124.0 L 45.0 124.0 L 46.0 124.0 L 47.0 124.0 L 48.0 124.0 L 49.0 124.0 L 50.0 124.0 L 51.0 124.0 L 52.0 124.0 L 53.0 124.0 L 54.0 124.0 L 55.0 124.0 L 56.0 124.0 L 57.0 124.0 L 58.0 124.0 L 59.0 124.0 L 60.0 124.0 L 61.0 124.0 L 62.0 124.0 L 63.0 124.0 L 64.0 124.0 L 65.0 124.0 L 66.0 124.0 L 67.0 124.0 L 68.0 124.0 L 69.0 124.0 L 70.0 124.0 L 71.0 124.0 L 72.0 124.0 L 73.0 124.0 L 74.0 124.0 L 75.0 124.0 L 76.0 124.0 L 77.0 124.0 L 78.0 124.0 L 79.0 124.0 L 80.0 124.0 L 81.0 124.0 L 82.0 124.0 L 83.0 124.0 L 84.0 124.0 L 85.0 124.0 L 86.0 124.0 L 87.0 124.0 L 88.0 124.0 L 89.0 124.0 L 90.0 124.0 L 91.0 124.0 L 92.0 124.0 L 93.0 124.0 L 93.66666666666667 123.66666666666667 L 94.0 123.0 L 94.0 122.0 L 94.0 121.0 L 94.0 120.0 L 94.0 119.0 L 94.0 118.0 L 94.0 117.0 L 94.0 116.0 L 93.66666666666667 115.33333333333333 L 93.0 115.0 L 92.0 115.0 L 91.0 115.0 L 90.0 115.0 L 89.0 115.0 L 88.0 115.0 L 87.0 115.0 L 86.0 115.0 L 85.0 115.0 L 84.0 115.0 L 83.0 115.0 L 82.0 115.0 L 81.0 115.0 L 80.0 115.0 L 79.0 115.0 L 78.0 115.0 L 77.0 115.0 L 76.0 115.0 L 75.0 115.0 L 74.0 115.0 L 73.0 115.0 L 72.0 115.0 L 71.0 115.0 L 70.0 115.0 L 69.0 115.0 L 68.0 115.0 L 67.0 115.0 L 66.0 115.0 L 65.0 115.0 L 64.0 115.0 L 63.0 115.0 L 62.0 115.0 L 61.0 115.0 L 60.0 115.0 L 59.0 115.0 L 58.0 115.0 L 57.0 115.0 L 56.0 115.0 L 55.0 115.0 L 54.0 115.0 L 53.0 115.0 L 52.0 115.0 L 51.0 115.0 L 50.0 115.0 L 49.0 115.0 L 48.0 115.0 L 47.0 115.0 L 46.0 115.0 L 45.0 115.0 L 44.0 115.0 L 43.0 115.0 L 42.0 115.0 L 41.0 115.0 L 40.0 115.0 L 39.0 115.0 L 38.0 115.0 L 37.0 115.0 L 36.0 115.0 L 35.0 115.33333333333333 L 34.333333333333336 116.0 L 34.0 117.0 L 34.0 118.0 L 34.0 119.0 L 34.0 120.0 L 34.0 121.0 L 34.0 122.0 L 34.0 123.0 L 34.333333333333336 123.66666666666667 L 35.0 124.0 L 36.0 124.0 L 37.0 124.0 L 38.0 124.0 L 38.5 124.0 Z" stroke="none" fill="rgb(87,17,239)" />
<path d="M 24.5 96.0 L 25.0 96.0 L 26.0 96.0 L 27.0 96.0 L 28.0 96.0 L 29.0 96.0 L 30.0 96.0 L 31.0 96.0 L 32.0 96.0 L 33.0 96.0 L 34.0 96.0 L 35.0 96.0 L 36.0 96.0 L 37.0 96.0 L 38.0 96.0 L 39.0 96.0 L 40.0 96.0 L 41.0 96.0 L 42.0 96.0 L 43.0 96.0 L 44.0 96.0 L 45.0 96.0 L 46.0 96.0 L 47.0 96.0 L 48.0 96.0 L 49.0 96.0 L 50.0 96.0 L 51.0 96.0 L 52.0 96.0 L 53.0 96.0 L 54.0 96.0 L 55.0 96.0 L 56.0 96.0 L 57.0 96.0 L 57.666666666666664 95.66666666666667 L 58.0 95.0 L 57.666666666666664 94.0 L 57.0 93.0 L 56.0 92.0 L 55.333333333333336 91.0 L 55.0 90.0 L 55.0 89.0 L 54.666666666666664 88.0 L 54.0 87.33333333333333 L 53.0 87.0 L 52.0 87.0 L 51.0 87.0 L 50.0 87.0 L 49.0 87.0 L 48.0 87.0 L 47.0 87.0 L 46.0 87.0 L 45.0 87.0 L 44.0 87.0 L 43.0 87.0 L 42.0 87.0 L 41.0 87.0 L 40.0 87.0 L 39.0 87.0 L 38.0 87.0 L 37.0 87.0 L 36.0 87.0 L 35.0 87.0 L 34.0 87.0 L 33.0 87.0 L 32.0 87.0 L 31.0 87.0 L 30.0 87.0 L 29.0 87.0 L 28.0 87.0 L 27.0 87.0 L 26.0 87.0 L 25.0 87.0 L 24.0 87.0 L 23.0 87.0 L 22.0 87.0 L 21.0 87.0 L 20.0 87.0 L 19.0 87.0 L 18.0 87.0 L 17.0 87.0 L 16.0 87.0 L 15.0 87.0 L 14.0 87.0 L 13.0 87.0 L 12.333333333333334 87.33333333333333 L 12.0 88.0 L 12.0 89.0 L 12.0 90.0 L 12.0 91.0 L 12.0 92.0 L 12.0 93.0 L 12.0 94.0 L 12.0 95.0 L 12.333333333333334 95.66666666666667 L 13.0 96.0 L 14.0 96.0 L 15.0 96.0 L 16.0 96.0 L 17.0 96.0 L 18.0 96.0 L 19.0 96.0 L 20.0 96.0 L 21.0 96.0 L 22.0 96.0 L 23.0 96.0 L 23.5 96.0 Z" stroke="none" fill="rgb(98,28,251)" />
<path d="M 95.5 96.0 L 96.0 96.0 L 97.0 96.0 L 98.0 96.0 L 99.0 96.0 L 100.0 96.0 L 101.0 96.0 L 102.0 96.0 L 103.0 96.0 L 104.0 96.0 L 105.0 96.0 L 106.0 96.0 L 107.0 96.0 L 108.0 96.0 L 109.0 96.0 L 110.0 96.0 L 111.0 96.0 L 112.0 96.0 L 113.0 96.0 L 114.0 96.0 L 115.0 96.0 L 115.66666666666667 95.66666666666667 L 116.0 95.0 L 116.0 94.0 L 116.0 93.0 L 116.0 92.0 L 116.0 91.0 L 116.0 90.0 L 116.0 89.0 L 116.0 88.0 L 115.66666666666667 87.33333333333333 L 115.0 87.0 L 114.0 87.0 L 113.0 87.0 L 112.0 87.0 L 111.0 87.0 L 110.0 87.0 L 109.0 87.0 L 108.0 87.0 L 107.0 87.0 L 106.0 87.0 L 105.0 87.0 L 104.0 87.0 L 103.0 87.0 L 102.0 87.0 L 101.0 87.0 L 100.0 87.0 L 99.0 87.0 L 98.0 87.0 L 97.0 87.33333333333333 L 96.0 87.33333333333333 L 95.0 87.33333333333333 L 94.0 87.0 L 93.0 87.0 L 92.0 87.0 L 91.0 87.0 L 90.0 87.0 L 89.0 87.0 L 88.0 87.0 L 87.0 87.0 L 86.0 87.0 L 85.0 87.0 L 84.0 87.0 L 83.0 87.0 L 82.0 87.0 L 81.0 87.0 L 80.0 87.0 L 79.0 87.0 L 78.0 87.0 L 77.0 87.0 L 76.0 87.0 L 75.0 87.0 L 74.0 87.33333333333333 L 73.33333333333333 88.0 L 73.0 89.0 L 73.0 90.0 L 72.66666666666667 91.0 L 72.0 92.0 L 71.0 93.0 L 70.33333333333333 94.0 L 70.0 95.0 L 70.33333333333333 95.66666666666667 L 71.0 96.0 L 72.0 96.0 L 73.0 96.0 L 74.0 96.0 L 75.0 96.0 L 76.0 96.0 L 77.0 96.0 L 78.0 96.0 L 79.0 96.0 L 80.0 96.0 L 81.0 96.0 L 82.0 96.0 L 83.0 96.0 L 84.0 96.0 L 85.0 96.0 L 86.0 96.0 L 87.0 96.0 L 88.0 96.0 L 89.0 96.0 L 90.0 96.0 L 91.0 96.0 L 92.0 96.0 L 93.0 96.0 L 94.0 96.0 L 94.5 96.0 Z" stroke="none" fill="rgb(98,28,251)" />
<path d="M 24.5 87.0 L 25.0 87.0 L 26.0 87.0 L 27.0 87.0 L 28.0 87.0 L 29.0 87.0 L 30.0 87.0 L 30.666666666666668 86.66666666666667 L 31.0 86.0 L 31.333333333333332 85.0 L 31.666666666666668 84.0 L 31.666666666666668 83.0 L 31.333333333333332 82.0 L 31.0 81.0 L 30.666666666666668 80.0 L 30.333333333333332 79.0 L 30.0 78.0 L 30.0 77.0 L 30.0 76.0 L 30.0 75.0 L 29.666666666666668 74.0 L 29.333333333333332 73.0 L 29.0 72.0 L 28.666666666666668 71.0 L 28.333333333333332 70.0 L 27.666666666666668 69.0 L 27.0 68.33333333333333 L 26.0 68.0 L 25.0 68.0 L 24.0 68.0 L 23.0 68.0 L 22.0 68.0 L 21.0 68.0 L 20.0 68.0 L 19.0 68.0 L 18.0 68.0 L 17.0 68.0 L 16.0 68.0 L 15.0 68.0 L 14.0 68.0 L 13.0 68.33333333333333 L 12.333333333333334 69.0 L 12.0 70.0 L 12.0 71.0 L 12.0 72.0 L 12.0 73.0 L 12.0 74.0 L 12.0 75.0 L 12.0 76.0 L 12.0 77.0 L 12.0 78.0 L 12.0 79.0 L 12.0 80.0 L 12.0 81.0 L 12.0 82.0 L 12.0 83.0 L 12.0 84.0 L 12.0 85.0 L 12.0 86.0 L 12.333333333333334 86.66666666666667 L 13.0 87.0 L 14.0 87.0 L 15.0 87.0 L 16.0 87.0 L 17.0 87.0 L 18.0 87.0 L 19.0 87.0 L 20.0 87.0 L 21.0 87.0 L 22.0 87.0 L 23.0 87.0 L 23.5 87.0 Z" stroke="none" fill="rgb(101,31,255)" />
<path d="M 107.5 87.0 L 108.0 87.0 L 109.0 87.0 L 110.0 87.0 L 111.0 87.0 L 112.0 87.0 L 113.0 87.0 L 114.0 87.0 L 115.0 87.0 L 115.66666666666667 86.66666666666667 L 116.0 86.0 L 116.0 85.0 L 116.0 84.0 L 116.0 83.0 L 116.0 82.0 L 116.0 81.0 L 116.0 80.0 L 116.0 79.0 L 116.0 78.0 L 116.0 77.0 L 116.0 76.0 L 116.0 75.0 L 116.0 74.0 L 116.0 73.0 L 116.0 72.0 L 116.0 71.0 L 116.0 70.0 L 115.66666666666667 69.0 L 115.0 68.33333333333333 L 114.0 68.33333333333333 L 113.0 68.66666666666667 L 112.0 69.0 L 111.0 69.0 L 110.0 69.0 L 109.0 69.0 L 108.0 69.0 L 107.0 69.0 L 106.0 69.0 L 105.0 69.0 L 104.0 69.0 L 103.0 69.0 L 102.0 69.0 L 101.0 69.0 L 100.0 69.33333333333333 L 99.33333333333333 70.0 L 99.0 71.0 L 99.0 72.0 L 99.0 73.0 L 99.0 74.0 L 99.0 75.0 L 99.0 76.0 L 99.0 77.0 L 98.66666666666667 78.0 L 98.33333333333333 79.0 L 98.0 80.0 L 98.0 81.0 L 97.66666666666667 82.0 L 97.33333333333333 83.0 L 97.0 84.0 L 97.0 85.0 L 97.0 86.0 L 97.33333333333333 86.66666666666667 L 98.0 87.0 L 99.0 87.0 L 100.0 87.0 L 101.0 87.0 L 102.0 87.0 L 103.0 87.0 L 104.0 87.0 L 105.0 87.0 L 106.0 87.0 L 106.5 87.0 Z" stroke="none" fill="rgb(101,31,255)" />
<path d="M 108.5 69.0 L 109.0 69.0 L 110.0 69.0 L 111.0 69.0 L 112.0 69.0 L 113.0 69.0 L 114.0 68.66666666666667 L 114.66666666666667 68.0 L 115.0 67.0 L 115.33333333333333 66.0 L 116.0 65.0 L 116.66666666666667 64.0 L 117.33333333333333 63.0 L 118.0 62.0 L 119.0 61.0 L 119.66666666666667 60.0 L 120.33333333333333 59.0 L 120.66666666666667 58.0 L 121.0 57.0 L 121.0 56.0 L 120.66666666666667 55.333333333333336 L 120.0 55.0 L 119.0 55.0 L 118.0 55.0 L 117.0 55.0 L 116.0 55.0 L 115.0 55.0 L 114.0 55.0 L 113.0 55.0 L 112.0 55.0 L 111.0 55.0 L 110.0 55.0 L 109.0 55.0 L 108.0 55.333333333333336 L 107.0 56.0 L 106.0 57.0 L 105.0 58.0 L 104.0 59.0 L 103.0 60.0 L 102.0 61.0 L 101.0 62.0 L 100.33333333333333 63.0 L 100.0 64.0 L 100.0 65.0 L 100.0 66.0 L 100.0 67.0 L 100.33333333333333 68.0 L 101.0 68.66666666666667 L 102.0 69.0 L 103.0 69.0 L 104.0 69.0 L 105.0 69.0 L 106.0 69.0 L 107.0 69.0 L 107.5 69.0 Z" stroke="none" fill="rgb(255,202,40)" />
<path d="M 17.5 68.0 L 18.0 68.0 L 19.0 68.0 L 20.0 68.0 L 21.0 68.0 L 22.0 68.0 L 23.0 68.0 L 24.0 68.0 L 25.0 68.0 L 26.0 68.0 L 26.666666666666668 67.66666666666667 L 27.0 67.0 L 27.0 66.0 L 26.666666666666668 65.0 L 26.333333333333332 64.0 L 26.0 63.0 L 26.0 62.0 L 25.666666666666668 61.0 L 25.0 60.0 L 24.0 59.0 L 23.0 58.0 L 22.0 57.0 L 21.0 56.0 L 20.0 55.333333333333336 L 19.0 55.0 L 18.0 55.0 L 17.0 55.0 L 16.0 55.0 L 15.0 55.0 L 14.0 55.0 L 13.0 55.0 L 12.0 55.0 L 11.0 55.0 L 10.0 55.0 L 9.0 55.0 L 8.0 55.0 L 7.333333333333333 55.333333333333336 L 7.0 56.0 L 7.0 57.0 L 7.333333333333333 58.0 L 8.0 59.0 L 8.666666666666666 60.0 L 9.333333333333334 61.0 L 10.0 62.0 L 10.666666666666666 63.0 L 11.333333333333334 64.0 L 12.0 65.0 L 12.666666666666666 66.0 L 13.0 67.0 L 13.333333333333334 67.66666666666667 L 14.0 68.0 L 15.0 68.0 L 16.0 68.0 L 16.5 68.0 Z" stroke="none" fill="rgb(255,202,40)" />
<path d="M 23.5 124.0 L 24.0 124.0 L 25.0 124.0 L 26.0 124.0 L 27.0 124.0 L 28.0 124.0 L 29.0 124.0 L 30.0 123.66666666666667 L 30.666666666666668 123.0 L 30.666666666666668 122.0 L 30.666666666666668 121.0 L 30.666666666666668 120.0 L 31.333333333333332 119.0 L 31.666666666666668 118.0 L 32.0 117.0 L 32.0 116.0 L 31.666666666666668 115.33333333333333 L 31.0 115.0 L 30.0 115.0 L 29.0 115.0 L 28.0 115.0 L 27.0 115.0 L 26.0 115.0 L 25.0 115.0 L 24.0 115.0 L 23.0 115.0 L 22.0 115.0 L 21.0 115.0 L 20.0 115.0 L 19.0 115.0 L 18.0 115.0 L 17.0 115.0 L 16.0 115.0 L 15.0 115.0 L 14.0 115.0 L 13.333333333333334 115.33333333333333 L 13.0 116.0 L 13.0 117.0 L 13.333333333333334 118.0 L 14.0 119.0 L 14.666666666666666 120.0 L 15.333333333333334 120.66666666666667 L 16.0 121.33333333333333 L 17.0 122.0 L 18.0 122.66666666666667 L 19.0 123.33333333333333 L 20.0 123.66666666666667 L 21.0 124.0 L 22.0 124.0 L 22.5 124.0 Z" stroke="none" fill="rgb(87,17,239)" />
<path d="M 107.5 124.0 L 108.0 123.66666666666667 L 109.0 123.33333333333333 L 110.0 122.66666666666667 L 111.0 122.33333333333333 L 112.0 121.66666666666667 L 113.0 121.0 L 113.66666666666667 120.0 L 114.33333333333333 119.0 L 114.66666666666667 118.0 L 115.0 117.0 L 115.0 116.0 L 114.66666666666667 115.33333333333333 L 114.0 115.0 L 113.0 115.0 L 112.0 115.0 L 111.0 115.0 L 110.0 115.0 L 109.0 115.0 L 108.0 115.0 L 107.0 115.0 L 106.0 115.0 L 105.0 115.0 L 104.0 115.0 L 103.0 115.0 L 102.0 115.0 L 101.0 115.0 L 100.0 115.0 L 99.0 115.0 L 98.0 115.0 L 97.0 115.0 L 96.33333333333333 115.33333333333333 L 96.0 116.0 L 96.0 117.0 L 96.33333333333333 118.0 L 96.66666666666667 119.0 L 97.33333333333333 120.0 L 97.66666666666667 121.0 L 98.33333333333333 122.0 L 98.66666666666667 123.0 L 99.33333333333333 123.66666666666667 L 100.0 124.0 L 101.0 124.0 L 102.0 124.0 L 103.0 124.0 L 104.0 124.0 L 105.0 124.0 L 106.0 124.0 L 106.5 124.0 Z" stroke="none" fill="rgb(87,17,239)" />
<path d="M 59.5 96.0 L 60.0 96.0 L 61.0 96.0 L 62.0 96.0 L 63.0 96.0 L 64.0 96.0 L 65.0 96.0 L 66.0 96.0 L 67.0 96.0 L 68.0 96.0 L 69.0 96.0 L 69.66666666666667 95.66666666666667 L 70.33333333333333 95.0 L 71.0 94.0 L 72.0 93.0 L 72.66666666666667 92.0 L 73.0 91.0 L 73.0 90.0 L 73.0 89.0 L 72.66666666666667 88.33333333333333 L 72.0 88.0 L 71.0 88.0 L 70.0 88.33333333333333 L 69.0 88.66666666666667 L 68.0 89.0 L 67.0 89.0 L 66.0 89.0 L 65.0 89.0 L 64.0 89.0 L 63.0 88.66666666666667 L 62.0 88.33333333333333 L 61.0 88.0 L 60.0 88.0 L 59.0 88.0 L 58.0 88.0 L 57.0 88.0 L 56.0 88.0 L 55.333333333333336 88.33333333333333 L 55.0 89.0 L 55.0 90.0 L 55.0 91.0 L 55.333333333333336 92.0 L 56.0 93.0 L 57.0 94.0 L 58.0 95.0 L 58.5 95.5 Z" stroke="none" fill="rgb(229,151,1)" />
<path d="M 68.5 79.0 L 69.0 79.0 L 70.0 78.66666666666667 L 70.66666666666667 78.0 L 71.0 77.0 L 71.0 76.0 L 71.0 75.0 L 70.66666666666667 74.0 L 70.0 73.0 L 69.0 72.33333333333333 L 68.0 72.0 L 67.0 72.0 L 66.0 72.0 L 65.0 72.0 L 64.0 72.0 L 63.0 72.33333333333333 L 62.0 72.66666666666667 L 61.0 73.33333333333333 L 60.333333333333336 74.0 L 60.0 75.0 L 60.0 76.0 L 60.0 77.0 L 60.333333333333336 78.0 L 61.0 78.66666666666667 L 62.0 79.0 L 63.0 79.0 L 64.0 79.0 L 65.0 79.0 L 66.0 79.0 L 67.0 79.0 L 67.5 79.0 Z" stroke="none" fill="rgb(121,85,71)" />
<path d="M 49.5 61.0 L 50.0 60.666666666666664 L 51.0 60.0 L 51.666666666666664 59.0 L 52.0 58.0 L 52.0 57.0 L 52.0 56.0 L 52.0 55.0 L 51.666666666666664 54.0 L 51.0 53.0 L 50.0 52.333333333333336 L 49.0 52.0 L 48.0 52.0 L 47.0 52.0 L 46.0 52.333333333333336 L 45.0 52.666666666666664 L 44.333333333333336 53.333333333333336 L 43.666666666666664 54.0 L 43.333333333333336 55.0 L 43.0 56.0 L 43.0 57.0 L 43.0 58.0 L 43.333333333333336 59.0 L 44.0 60.0 L 45.0 60.666666666666664 L 46.0 61.0 L 47.0 61.0 L 48.0 61.0 L 48.5 61.0 Z" stroke="none" fill="rgb(64,64,64)" />
<path d="M 78.5 57.0 L 79.0 57.0 L 80.0 56.666666666666664 L 81.0 56.0 L 81.66666666666667 55.0 L 82.0 54.0 L 82.0 53.0 L 82.0 52.0 L 81.66666666666667 51.0 L 81.0 50.0 L 80.0 49.0 L 79.0 48.333333333333336 L 78.0 48.0 L 77.0 48.333333333333336 L 76.0 48.666666666666664 L 75.0 49.0 L 74.0 49.333333333333336 L 73.33333333333333 50.0 L 73.0 51.0 L 73.0 52.0 L 73.0 53.0 L 73.0 54.0 L 73.33333333333333 55.0 L 74.0 56.0 L 75.0 56.666666666666664 L 76.0 57.0 L 77.0 57.0 L 77.5 57.0 Z" stroke="none" fill="rgb(64,64,64)" />
<path d="M 84.5 87.0 L 85.0 87.0 L 86.0 87.0 L 87.0 87.0 L 88.0 87.0 L 89.0 87.0 L 90.0 87.0 L 91.0 87.0 L 92.0 87.0 L 93.0 87.0 L 93.66666666666667 86.66666666666667 L 93.66666666666667 86.0 L 93.0 85.0 L 92.0 84.33333333333333 L 91.0 84.0 L 90.0 84.0 L 89.0 83.66666666666667 L 88.0 83.33333333333333 L 87.0 83.0 L 86.0 82.66666666666667 L 85.0 82.33333333333333 L 84.0 82.0 L 83.0 82.0 L 82.0 82.33333333333333 L 81.0 82.66666666666667 L 80.0 83.33333333333333 L 79.0 84.0 L 78.0 84.66666666666667 L 77.33333333333333 85.33333333333333 L 77.0 86.0 L 77.33333333333333 86.66666666666667 L 78.0 87.0 L 79.0 87.0 L 80.0 87.0 L 81.0 87.0 L 82.0 87.0 L 83.0 87.0 L 83.5 87.0 Z" stroke="none" fill="rgb(101,31,255)" />
<path d="M 41.5 87.0 L 42.0 87.0 L 43.0 87.0 L 44.0 87.0 L 45.0 87.0 L 46.0 87.0 L 47.0 87.0 L 48.0 87.0 L 49.0 87.0 L 50.0 87.0 L 51.0 87.0 L 52.0 87.0 L 52.666666666666664 86.66666666666667 L 52.666666666666664 86.0 L 52.0 85.33333333333333 L 51.0 84.66666666666667 L 50.0 84.33333333333333 L 49.0 83.66666666666667 L 48.0 83.33333333333333 L 47.0 82.66666666666667 L 46.0 82.33333333333333 L 45.0 82.33333333333333 L 44.0 82.66666666666667 L 43.0 83.0 L 42.0 83.0 L 41.0 83.33333333333333 L 40.0 83.66666666666667 L 39.0 84.0 L 38.0 84.0 L 37.0 84.33333333333333 L 36.333333333333336 85.0 L 36.0 86.0 L 36.333333333333336 86.66666666666667 L 37.0 87.0 L 38.0 87.0 L 39.0 87.0 L 40.0 87.0 L 40.5 87.0 Z" stroke="none" fill="rgb(101,31,255)" />
<path d="M 98.0 82.5 L 98.0 82.0 L 98.0 81.0 L 98.33333333333333 80.0 L 98.66666666666667 79.0 L 99.0 78.0 L 99.0 77.0 L 99.0 76.0 L 99.0 75.0 L 99.0 74.0 L 99.0 73.0 L 99.0 72.0 L 99.0 71.0 L 98.66666666666667 70.33333333333333 L 98.0 70.0 L 97.33333333333333 70.33333333333333 L 97.0 71.0 L 97.0 72.0 L 96.66666666666667 73.0 L 96.33333333333333 74.0 L 95.66666666666667 75.0 L 95.33333333333333 76.0 L 95.0 77.0 L 94.66666666666667 78.0 L 94.33333333333333 79.0 L 93.66666666666667 80.0 L 93.0 81.0 L 92.33333333333333 82.0 L 92.0 83.0 L 92.0 84.0 L 92.33333333333333 85.0 L 93.0 85.66666666666667 L 94.0 85.66666666666667 L 94.66666666666667 85.0 L 95.33333333333333 84.0 L 96.0 83.33333333333333 L 97.0 83.0 L 97.5 83.0 Z" stroke="none" fill="rgb(92,63,53)" />
<path d="M 71.5 47.0 L 72.0 47.0 L 73.0 47.0 L 74.0 46.666666666666664 L 75.0 46.333333333333336 L 76.0 46.0 L 77.0 46.0 L 78.0 46.0 L 79.0 46.0 L 80.0 46.0 L 81.0 46.0 L 82.0 45.666666666666664 L 82.66666666666667 45.0 L 82.66666666666667 44.0 L 82.0 43.0 L 81.0 42.333333333333336 L 80.0 42.0 L 79.0 42.0 L 78.0 42.0 L 77.0 42.0 L 76.0 42.0 L 75.0 42.0 L 74.0 42.333333333333336 L 73.0 42.666666666666664 L 72.0 43.333333333333336 L 71.0 44.0 L 70.33333333333333 45.0 L 70.0 46.0 L 70.33333333333333 46.666666666666664 L 70.5 47.0 Z" stroke="none" fill="rgb(107,75,64)" />
<path d="M 46.5 49.5 L 47.0 49.333333333333336 L 48.0 49.0 L 49.0 49.0 L 50.0 49.0 L 51.0 49.0 L 52.0 49.0 L 52.666666666666664 48.666666666666664 L 53.0 48.0 L 52.666666666666664 47.0 L 52.0 46.333333333333336 L 51.0 45.666666666666664 L 50.0 45.333333333333336 L 49.0 45.0 L 48.0 45.0 L 47.0 45.0 L 46.0 45.333333333333336 L 45.0 45.666666666666664 L 44.0 46.0 L 43.0 46.333333333333336 L 42.0 47.0 L 41.0 48.0 L 40.333333333333336 49.0 L 40.333333333333336 49.666666666666664 L 41.0 50.0 L 42.0 50.0 L 43.0 50.0 L 44.0 50.0 L 45.0 50.0 L 45.5 50.0 Z" stroke="none" fill="rgb(107,75,64)" />
<path d="M 7.5 55.0 L 8.0 55.0 L 9.0 55.0 L 10.0 55.0 L 11.0 55.0 L 12.0 55.0 L 13.0 55.0 L 14.0 55.0 L 14.666666666666666 54.666666666666664 L 14.666666666666666 54.0 L 14.333333333333334 53.0 L 13.666666666666666 52.0 L 13.0 51.0 L 12.0 50.333333333333336 L 11.0 50.0 L 10.0 50.0 L 9.0 50.0 L 8.0 50.0 L 7.0 50.0 L 6.0 50.0 L 5.333333333333333 50.333333333333336 L 5.0 51.0 L 5.0 52.0 L 5.0 53.0 L 5.333333333333333 54.0 L 6.0 54.666666666666664 L 6.5 55.0 Z" stroke="none" fill="rgb(254,193,25)" />
<path d="M 4.5 50.0 L 5.0 50.0 L 6.0 50.0 L 7.0 50.0 L 8.0 50.0 L 9.0 50.0 L 10.0 50.0 L 10.666666666666666 49.666666666666664 L 11.0 49.0 L 11.0 48.0 L 10.666666666666666 47.0 L 10.333333333333334 46.0 L 9.666666666666666 45.0 L 9.333333333333334 44.0 L 8.666666666666666 43.333333333333336 L 8.0 43.0 L 7.0 43.0 L 6.0 43.0 L 5.0 43.333333333333336 L 4.333333333333333 44.0 L 4.0 45.0 L 4.0 46.0 L 4.0 47.0 L 4.0 48.0 L 4.0 49.0 L 4.0 49.5 Z" stroke="none" fill="rgb(254,182,6)" />
<path d="M 121.5 55.0 L 122.0 54.666666666666664 L 122.66666666666667 54.0 L 123.0 53.0 L 123.0 52.0 L 123.0 51.0 L 122.66666666666667 50.333333333333336 L 122.0 50.0 L 121.0 50.0 L 120.0 50.0 L 119.0 50.0 L 118.0 50.0 L 117.0 50.0 L 116.0 50.333333333333336 L 115.33333333333333 51.0 L 114.66666666666667 52.0 L 114.33333333333333 53.0 L 114.0 54.0 L 114.33333333333333 54.666666666666664 L 115.0 55.0 L 116.0 55.0 L 117.0 55.0 L 118.0 55.0 L 119.0 55.0 L 120.0 55.0 L 120.5 55.0 Z" stroke="none" fill="rgb(254,193,25)" />
<path d="M 123.5 50.0 L 123.66666666666667 49.666666666666664 L 124.0 49.0 L 124.0 48.0 L 124.0 47.0 L 124.0 46.0 L 124.0 45.0 L 123.66666666666667 44.0 L 123.0 43.333333333333336 L 122.0 43.0 L 121.0 43.0 L 120.0 43.333333333333336 L 119.33333333333333 44.0 L 118.66666666666667 45.0 L 118.33333333333333 46.0 L 117.66666666666667 47.0 L 117.33333333333333 48.0 L 117.0 49.0 L 117.33333333333333 49.666666666666664 L 118.0 50.0 L 119.0 50.0 L 120.0 50.0 L 121.0 50.0 L 122.0 50.0 L 122.5 50.0 Z" stroke="none" fill="rgb(254,182,6)" />
<path d="M 30.5 80.5 L 30.666666666666668 81.0 L 31.0 82.0 L 31.333333333333332 83.0 L 31.666666666666668 84.0 L 32.333333333333336 85.0 L 33.0 86.0 L 34.0 86.66666666666667 L 35.0 87.0 L 35.666666666666664 86.66666666666667 L 36.333333333333336 86.0 L 36.666666666666664 85.0 L 36.666666666666664 84.0 L 36.0 83.0 L 35.0 82.0 L 34.333333333333336 81.0 L 33.666666666666664 80.0 L 33.333333333333336 79.0 L 32.666666666666664 78.0 L 32.0 77.33333333333333 L 31.0 77.0 L 30.333333333333332 77.33333333333333 L 30.0 78.0 L 30.0 79.0 L 30.0 79.5 Z" stroke="none" fill="rgb(92,63,53)" />
<path d="M 66.5 66.5 L 67.0 66.0 L 67.66666666666667 65.0 L 68.0 64.0 L 67.66666666666667 63.0 L 67.0 62.333333333333336 L 66.0 62.333333333333336 L 65.0 62.666666666666664 L 64.0 63.0 L 63.0 63.0 L 62.0 63.0 L 61.0 63.0 L 60.0 63.333333333333336 L 59.333333333333336 64.0 L 59.333333333333336 65.0 L 60.0 66.0 L 61.0 66.66666666666667 L 62.0 67.0 L 63.0 67.0 L 64.0 67.0 L 65.0 67.0 L 65.5 67.0 Z" stroke="none" fill="rgb(229,151,1)" />
<path d="M 95.5 121.5 L 96.0 122.0 L 97.0 122.66666666666667 L 98.0 123.0 L 98.66666666666667 122.66666666666667 L 98.66666666666667 122.0 L 98.33333333333333 121.0 L 97.66666666666667 120.0 L 97.33333333333333 119.0 L 96.66666666666667 118.0 L 96.33333333333333 117.0 L 96.0 116.0 L 96.0 115.0 L 95.66666666666667 114.0 L 95.33333333333333 113.0 L 94.66666666666667 112.33333333333333 L 94.0 112.0 L 93.33333333333333 112.33333333333333 L 93.0 113.0 L 93.0 114.0 L 93.33333333333333 115.0 L 93.66666666666667 116.0 L 94.0 117.0 L 94.0 118.0 L 94.0 119.0 L 94.33333333333333 120.0 L 94.5 120.5 Z" stroke="none" fill="rgb(76,2,237)" />
<path d="M 31.5 122.0 L 32.0 121.66666666666667 L 33.0 121.0 L 33.666666666666664 120.0 L 34.0 119.0 L 34.0 118.0 L 34.333333333333336 117.0 L 34.666666666666664 116.0 L 35.0 115.0 L 35.0 114.0 L 35.0 113.0 L 34.666666666666664 112.33333333333333 L 34.0 112.0 L 33.333333333333336 112.33333333333333 L 32.666666666666664 113.0 L 32.333333333333336 114.0 L 32.0 115.0 L 32.0 116.0 L 31.666666666666668 117.0 L 31.333333333333332 118.0 L 30.666666666666668 119.0 L 30.333333333333332 120.0 L 30.0 121.0 L 30.333333333333332 121.66666666666667 L 30.5 122.0 Z" stroke="none" fill="rgb(76,2,237)" />
<path d="M 97.0 87.5 L 97.0 87.0 L 97.0 86.0 L 97.0 85.0 L 97.0 84.0 L 96.66666666666667 83.33333333333333 L 96.0 83.0 L 95.33333333333333 83.33333333333333 L 94.66666666666667 84.0 L 94.33333333333333 85.0 L 94.0 86.0 L 94.33333333333333 87.0 L 95.0 87.66666666666667 L 96.0 88.0 L 96.5 88.0 Z" stroke="none" fill="rgb(100,69,58)" />
<path d="M 110.5 55.0 L 111.0 55.0 L 112.0 55.0 L 113.0 55.0 L 113.66666666666667 54.666666666666664 L 113.66666666666667 54.333333333333336 L 113.0 54.0 L 112.0 54.0 L 111.0 54.0 L 110.0 54.0 L 109.33333333333333 54.333333333333336 L 109.33333333333333 54.666666666666664 L 109.5 55.0 Z" stroke="none" fill="rgb(0,0,0)" />
<path d="M 18.5 55.0 L 18.666666666666668 54.666666666666664 L 18.666666666666668 54.333333333333336 L 18.0 54.0 L 17.0 54.0 L 16.0 54.0 L 15.333333333333334 54.333333333333336 L 15.333333333333334 54.666666666666664 L 16.0 55.0 L 17.0 55.0 L 17.5 55.0 Z" stroke="none" fill="rgb(0,0,0)" />
<path d="M 32.0 86.5 L 32.0 86.0 L 32.0 85.0 L 31.666666666666668 84.33333333333333 L 31.333333333333332 84.33333333333333 L 31.0 85.0 L 31.0 86.0 L 31.333333333333332 86.66666666666667 L 31.5 87.0 Z" stroke="none" fill="rgb(255,255,255)" />
<path d="M 32.5 87.0 L 33.0 87.0 L 33.666666666666664 86.66666666666667 L 33.666666666666664 86.0 L 33.0 85.33333333333333 L 32.333333333333336 85.33333333333333 L 32.0 86.0 L 32.0 86.5 Z" stroke="none" fill="rgb(101,31,255)" />
<path d="M 23.0 34.5 L 23.0 34.0 L 22.666666666666668 33.333333333333336 L 22.333333333333332 33.333333333333336 L 22.0 34.0 L 22.333333333333332 34.666666666666664 L 22.5 35.0 Z" stroke="none" fill="rgb(0,0,0)" />
<path d="M 23.0 44.5 L 23.0 44.0 L 22.666666666666668 43.333333333333336 L 22.333333333333332 43.333333333333336 L 22.0 44.0 L 22.333333333333332 44.666666666666664 L 22.5 45.0 Z" stroke="none" fill="rgb(0,0,0)" />
<path d="M 24.5 56.0 L 24.666666666666668 55.666666666666664 L 25.0 55.0 L 24.666666666666668 54.333333333333336 L 24.333333333333332 54.333333333333336 L 24.0 55.0 L 24.0 55.5 Z" stroke="none" fill="rgb(0,0,0)" />
<path d="M 95.5 30.0 L 95.66666666666667 29.666666666666668 L 95.66666666666667 29.333333333333332 L 95.33333333333333 29.333333333333332 L 95.0 29.5 Z" stroke="none" fill="rgb(0,0,0)" />
<path d="M 12.0 49.5 L 11.666666666666666 49.333333333333336 L 11.333333333333334 49.333333333333336 L 11.333333333333334 49.666666666666664 L 11.5 50.0 Z" stroke="none" fill="rgb(0,0,0)" />
<path d="M 4.5 51.0 L 4.666666666666667 50.666666666666664 L 4.666666666666667 50.333333333333336 L 4.333333333333333 50.333333333333336 L 4.0 50.5 Z" stroke="none" fill="rgb(0,0,0)" />
<path d="M 123.5 51.0 L 123.66666666666667 50.666666666666664 L 123.66666666666667 50.333333333333336 L 123.33333333333333 50.333333333333336 L 123.0 50.5 Z" stroke="none" fill="rgb(0,0,0)" />
<path d="M 6.5 56.0 L 6.666666666666667 55.666666666666664 L 6.666666666666667 55.333333333333336 L 6.333333333333333 55.333333333333336 L 6.0 55.5 Z" stroke="none" fill="rgb(0,0,0)" />
<path d="M 122.0 55.5 L 121.66666666666667 55.333333333333336 L 121.33333333333333 55.333333333333336 L 121.33333333333333 55.666666666666664 L 121.5 56.0 Z" stroke="none" fill="rgb(0,0,0)" />
<path d="M 12.5 116.0 L 12.666666666666666 115.66666666666667 L 12.666666666666666 115.33333333333333 L 12.333333333333334 115.33333333333333 L 12.0 115.5 Z" stroke="none" fill="rgb(0,0,0)" />
<path d="M 115.5 116.0 L 115.66666666666667 115.66666666666667 L 115.66666666666667 115.33333333333333 L 115.33333333333333 115.33333333333333 L 115.0 115.5 Z" stroke="none" fill="rgb(0,0,0)" />
<path d="M 99.0 123.5 L 98.66666666666667 123.33333333333333 L 98.33333333333333 123.33333333333333 L 98.33333333333333 123.66666666666667 L 98.5 124.0 Z" stroke="none" fill="rgb(0,0,0)" />
</svg>
