<?xml version="1.0" encoding="UTF-8" standalone="no"?>
<!DOCTYPE svg PUBLIC "-//W3C//DTD SVG 1.1//EN"
"http://www.w3.org/Graphics/SVG/1.1/DTD/svg11.dtd">
<svg width="128" height="128" xmlns="http://www.w3.org/2000/svg" version="1.1">
<path d="M 26.5 128.0 L 27.0 128.0 L 28.0 128.0 L 29.0 128.0 L 30.0 128.0 L 31.0 128.0 L 32.0 128.0 L 33.0 128.0 L 34.0 128.0 L 35.0 128.0 L 36.0 128.0 L 37.0 128.0 L 38.0 128.0 L 39.0 128.0 L 40.0 128.0 L 41.0 128.0 L 42.0 128.0 L 43.0 128.0 L 44.0 128.0 L 45.0 128.0 L 46.0 128.0 L 47.0 128.0 L 48.0 128.0 L 49.0 128.0 L 50.0 128.0 L 51.0 128.0 L 52.0 128.0 L 53.0 128.0 L 54.0 128.0 L 55.0 128.0 L 56.0 128.0 L 57.0 128.0 L 58.0 128.0 L 59.0 128.0 L 60.0 128.0 L 61.0 128.0 L 62.0 128.0 L 63.0 128.0 L 64.0 128.0 L 65.0 128.0 L 66.0 128.0 L 67.0 128.0 L 68.0 128.0 L 69.0 128.0 L 70.0 128.0 L 71.0 128.0 L 72.0 128.0 L 73.0 128.0 L 74.0 128.0 L 75.0 128.0 L 76.0 128.0 L 77.0 128.0 L 78.0 128.0 L 79.0 128.0 L 80.0 128.0 L 81.0 128.0 L 82.0 128.0 L 83.0 128.0 L 84.0 128.0 L 85.0 128.0 L 86.0 128.0 L 87.0 128.0 L 88.0 128.0 L 89.0 128.0 L 90.0 128.0 L 91.0 128.0 L 92.0 128.0 L 93.0 128.0 L 94.0 128.0 L 95.0 128.0 L 96.0 128.0 L 97.0 128.0 L 98.0 128.0 L 99.0 128.0 L 100.0 128.0 L 101.0 128.0 L 102.0 128.0 L 103.0 128.0 L 104.0 128.0 L 105.0 128.0 L 106.0 128.0 L 107.0 128.0 L 108.0 128.0 L 109.0 128.0 L 110.0 128.0 L 111.0 128.0 L 112.0 128.0 L 113.0 128.0 L 114.0 128.0 L 115.0 128.0 L 116.0 128.0 L 117.0 128.0 L 118.0 128.0 L 119.0 128.0 L 120.0 128.0 L 121.0 128.0 L 122.0 128.0 L 123.0 128.0 L 124.0 128.0 L 125.0 128.0 L 126.0 128.0 L 127.0 128.0 L 127.66666666666667 127.66666666666667 L 128.0 127.0 L 128.0 126.0 L 128.0 125.0 L 128.0 124.0 L 128.0 123.0 L 128.0 122.0 L 128.0 121.0 L 128.0 120.0 L 128.0 119.0 L 128.0 118.0 L 128.0 117.0 L 128.0 116.0 L 128.0 115.0 L 128.0 114.0 L 128.0 113.0 L 128.0 112.0 L 128.0 111.0 L 128.0 110.0 L 128.0 109.0 L 128.0 108.0 L 128.0 107.0 L 128.0 106.0 L 128.0 105.0 L 128.0 104.0 L 128.0 103.0 L 128.0 102.0 L 128.0 101.0 L 128.0 100.0 L 128.0 99.0 L 128.0 98.0 L 128.0 97.0 L 128.0 96.0 L 128.0 95.0 L 128.0 94.0 L 128.0 93.0 L 128.0 92.0 L 128.0 91.0 L 128.0 90.0 L 128.0 89.0 L 128.0 88.0 L 128.0 87.0 L 128.0 86.0 L 128.0 85.0 L 128.0 84.0 L 128.0 83.0 L 128.0 82.0 L 128.0 81.0 L 128.0 80.0 L 128.0 79.0 L 128.0 78.0 L 128.0 77.0 L 128.0 76.0 L 128.0 75.0 L 128.0 74.0 L 128.0 73.0 L 128.0 72.0 L 128.0 71.0 L 128.0 70.0 L 128.0 69.0 L 128.0 68.0 L 128.0 67.0 L 128.0 66.0 L 128.0 65.0 L 128.0 64.0 L 128.0 63.0 L 128.0 62.0 L 128.0 61.0 L 128.0 60.0 L 128.0 59.0 L 128.0 58.0 L 128.0 57.0 L 128.0 56.0 L 128.0 55.0 L 128.0 54.0 L 128.0 53.0 L 128.0 52.0 L 128.0 51.0 L 128.0 50.0 L 128.0 49.0 L 128.0 48.0 L 128.0 47.0 L 128.0 46.0 L 128.0 45.0 L 128.0 44.0 L 128.0 43.0 L 128.0 42.0 L 128.0 41.0 L 128.0 40.0 L 128.0 39.0 L 128.0 38.0 L 128.0 37.0 L 128.0 36.0 L 128.0 35.0 L 128.0 34.0 L 128.0 33.0 L 128.0 32.0 L 128.0 31.0 L 128.0 30.0 L 128.0 29.0 L 128.0 28.0 L 128.0 27.0 L 128.0 26.0 L 128.0 25.0 L 128.0 24.0 L 128.0 23.0 L 128.0 22.0 L 128.0 21.0 L 128.0 20.0 L 128.0 19.0 L 128.0 18.0 L 128.0 17.0 L 128.0 16.0 L 128.0 15.0 L 128.0 14.0 L 128.0 13.0 L 128.0 12.0 L 128.0 11.0 L 128.0 10.0 L 128.0 9.0 L 128.0 8.0 L 128.0 7.0 L 128.0 6.0 L 128.0 5.0 L 128.0 4.0 L 128.0 3.0 L 128.0 2.0 L 128.0 1.0 L 127.66666666666667 0.3333333333333333 L 127.0 0.0 L 126.0 0.0 L 125.0 0.0 L 124.0 0.0 L 123.0 0.0 L 122.0 0.0 L 121.0 0.0 L 120.0 0.0 L 119.0 0.0 L 118.0 0.0 L 117.0 0.0 L 116.0 0.0 L 115.0 0.0 L 114.0 0.0 L 113.0 0.0 L 112.0 0.0 L 111.0 0.0 L 110.0 0.0 L 109.0 0.0 L 108.0 0.0 L 107.0 0.0 L 106.0 0.0 L 105.0 0.0 L 104.0 0.0 L 103.0 0.0 L 102.0 0.0 L 101.0 0.0 L 100.0 0.0 L 99.0 0.0 L 98.0 0.0 L 97.0 0.0 L 96.0 0.0 L 95.0 0.0 L 94.0 0.0 L 93.0 0.0 L 92.0 0.0 L 91.0 0.0 L 90.0 0.0 L 89.0 0.0 L 88.0 0.0 L 87.0 0.0 L 86.0 0.0 L 85.0 0.0 L 84.0 0.0 L 83.0 0.0 L 82.0 0.0 L 81.0 0.0 L 80.0 0.0 L 79.0 0.0 L 78.0 0.0 L 77.0 0.0 L 76.0 0.0 L 75.0 0.0 L 74.0 0.0 L 73.0 0.0 L 72.0 0.0 L 71.0 0.0 L 70.0 0.0 L 69.0 0.0 L 68.0 0.0 L 67.0 0.0 L 66.0 0.0 L 65.0 0.0 L 64.0 0.0 L 63.0 0.0 L 62.0 0.0 L 61.0 0.0 L 60.0 0.0 L 59.0 0.0 L 58.0 0.0 L 57.0 0.0 L 56.0 0.0 L 55.0 0.0 L 54.0 0.0 L 53.0 0.0 L 52.0 0.0 L 51.0 0.0 L 50.0 0.0 L 49.0 0.0 L 48.0 0.0 L 47.0 0.0 L 46.0 0.0 L 45.0 0.0 L 44.0 0.0 L 43.0 0.0 L 42.0 0.0 L 41.0 0.0 L 40.0 0.0 L 39.0 0.0 L 38.0 0.0 L 37.0 0.0 L 36.0 0.0 L 35.0 0.0 L 34.0 0.0 L 33.0 0.0 L 32.0 0.0 L 31.0 0.0 L 30.0 0.0 L 29.0 0.0 L 28.0 0.0 L 27.0 0.0 L 26.0 0.0 L 25.0 0.0 L 24.0 0.0 L 23.0 0.0 L 22.0 0.0 L 21.0 0.0 L 20.0 0.0 L 19.0 0.0 L 18.0 0.0 L 17.0 0.0 L 16.0 0.0 L 15.0 0.0 L 14.0 0.0 L 13.0 0.0 L 12.0 0.0 L 11.0 0.0 L 10.0 0.0 L 9.0 0.0 L 8.0 0.0 L 7.0 0.0 L 6.0 0.0 L 5.0 0.0 L 4.0 0.0 L 3.0 0.0 L 2.0 0.0 L 1.0 0.0 L 0.3333333333333333 0.3333333333333333 L 0.0 1.0 L 0.0 2.0 L 0.0 3.0 L 0.0 4.0 L 0.0 5.0 L 0.0 6.0 L 0.0 7.0 L 0.0 8.0 L 0.0 9.0 L 0.0 10.0 L 0.0 11.0 L 0.0 12.0 L 0.0 13.0 L 0.0 14.0 L 0.0 15.0 L 0.0 16.0 L 0.0 17.0 L 0.0 18.0 L 0.0 19.0 L 0.0 20.0 L 0.0 21.0 L 0.0 22.0 L 0.0 23.0 L 0.0 24.0 L 0.0 25.0 L 0.0 26.0 L 0.0 27.0 L 0.0 28.0 L 0.0 29.0 L 0.0 30.0 L 0.0 31.0 L 0.0 32.0 L 0.0 33.0 L 0.0 34.0 L 0.0 35.0 L 0.0 36.0 L 0.0 37.0 L 0.0 38.0 L 0.0 39.0 L 0.0 40.0 L 0.0 41.0 L 0.0 42.0 L 0.0 43.0 L 0.0 44.0 L 0.0 45.0 L 0.0 46.0 L 0.0 47.0 L 0.0 48.0 L 0.0 49.0 L 0.0 50.0 L 0.0 51.0 L 0.0 52.0 L 0.0 53.0 L 0.0 54.0 L 0.0 55.0 L 0.0 56.0 L 0.0 57.0 L 0.0 58.0 L 0.0 59.0 L 0.0 60.0 L 0.0 61.0 L 0.0 62.0 L 0.0 63.0 L 0.0 64.0 L 0.0 65.0 L 0.0 66.0 L 0.0 67.0 L 0.0 68.0 L 0.0 69.0 L 0.0 70.0 L 0.0 71.0 L 0.0 72.0 L 0.0 73.0 L 0.0 74.0 L 0.0 75.0 L 0.0 76.0 L 0.0 77.0 L 0.0 78.0 L 0.0 79.0 L 0.0 80.0 L 0.0 81.0 L 0.0 82.0 L 0.0 83.0 L 0.0 84.0 L 0.0 85.0 L 0.0 86.0 L 0.0 87.0 L 0.0 88.0 L 0.0 89.0 L 0.0 90.0 L 0.0 91.0 L 0.0 92.0 L 0.0 93.0 L 0.0 94.0 L 0.0 95.0 L 0.0 96.0 L 0.0 97.0 L 0.0 98.0 L 0.0 99.0 L 0.0 100.0 L 0.0 101.0 L 0.0 102.0 L 0.0 103.0 L 0.0 104.0 L 0.0 105.0 L 0.0 106.0 L 0.0 107.0 L 0.0 108.0 L 0.0 109.0 L 0.0 110.0 L 0.0 111.0 L 0.0 112.0 L 0.0 113.0 L 0.0 114.0 L 0.0 115.0 L 0.0 116.0 L 0.0 117.0 L 0.0 118.0 L 0.0 119.0 L 0.0 120.0 L 0.0 121.0 L 0.0 122.0 L 0.0 123.0 L 0.0 124.0 L 0.0 125.0 L 0.0 126.0 L 0.0 127.0 L 0.3333333333333333 127.66666666666667 L 1.0 128.0 L 2.0 128.0 L 3.0 128.0 L 4.0 128.0 L 5.0 128.0 L 6.0 128.0 L 7.0 128.0 L 8.0 128.0 L 9.0 128.0 L 10.0 128.0 L 11.0 128.0 L 12.0 128.0 L 13.0 128.0 L 14.0 128.0 L 15.0 128.0 L 16.0 128.0 L 17.0 128.0 L 18.0 128.0 L 19.0 128.0 L 20.0 128.0 L 21.0 128.0 L 22.0 128.0 L 23.0 128.0 L 24.0 128.0 L 25.0 128.0 L 25.5 128.0 Z" stroke="none" fill="rgb(0,0,0)" />
<path d="M 55.5 13.5 L 55.666666666666664 14.0 L 56.333333333333336 14.666666666666666 L 57.0 15.0 L 58.0 15.0 L 59.0 14.666666666666666 L 60.0 14.333333333333334 L 61.0 14.0 L 62.0 14.0 L 63.0 14.0 L 64.0 14.0 L 65.0 14.0 L 66.0 14.333333333333334 L 67.0 14.666666666666666 L 68.0 15.0 L 69.0 15.0 L 70.0 15.0 L 71.0 15.0 L 72.0 15.333333333333334 L 73.0 15.666666666666666 L 74.0 16.0 L 75.0 16.333333333333332 L 76.0 16.666666666666668 L 77.0 17.0 L 78.0 17.333333333333332 L 79.0 17.666666666666668 L 80.0 18.333333333333332 L 81.0 18.666666666666668 L 82.0 19.0 L 82.66666666666667 18.666666666666668 L 83.0 18.0 L 82.66666666666667 17.0 L 82.0 16.0 L 81.33333333333333 15.0 L 80.66666666666667 14.0 L 80.0 13.0 L 79.0 12.333333333333334 L 78.0 11.666666666666666 L 77.0 11.0 L 76.0 10.0 L 75.0 9.333333333333334 L 74.0 8.666666666666666 L 73.0 8.333333333333334 L 72.0 7.666666666666667 L 71.0 7.333333333333333 L 70.0 6.666666666666667 L 69.0 6.333333333333333 L 68.0 6.0 L 67.0 5.666666666666667 L 66.0 5.333333333333333 L 65.0 5.0 L 64.0 5.0 L 63.0 4.666666666666667 L 62.0 4.333333333333333 L 61.0 4.0 L 60.0 4.0 L 59.0 4.0 L 58.0 4.0 L 57.0 4.0 L 56.0 4.0 L 55.0 3.6666666666666665 L 54.0 3.3333333333333335 L 53.0 3.0 L 52.0 3.3333333333333335 L 51.333333333333336 4.0 L 51.0 5.0 L 51.0 6.0 L 51.0 7.0 L 51.333333333333336 8.0 L 52.0 9.0 L 53.0 10.0 L 53.666666666666664 11.0 L 54.333333333333336 12.0 L 54.5 12.5 Z" stroke="none" fill="rgb(244,67,54)" />
<path d="M 72.5 20.5 L 73.0 20.666666666666668 L 74.0 21.0 L 75.0 21.333333333333332 L 76.0 21.666666666666668 L 77.0 22.0 L 78.0 22.333333333333332 L 79.0 22.666666666666668 L 80.0 23.333333333333332 L 81.0 23.666666666666668 L 82.0 24.333333333333332 L 83.0 24.666666666666668 L 84.0 25.333333333333332 L 85.0 26.0 L 86.0 26.666666666666668 L 86.66666666666667 26.666666666666668 L 87.0 26.0 L 86.66666666666667 25.0 L 86.33333333333333 24.0 L 86.0 23.0 L 85.66666666666667 22.0 L 85.33333333333333 21.0 L 84.66666666666667 20.0 L 84.0 19.333333333333332 L 83.0 19.0 L 82.0 18.666666666666668 L 81.0 18.333333333333332 L 80.0 17.666666666666668 L 79.0 17.333333333333332 L 78.0 17.0 L 77.0 16.666666666666668 L 76.0 16.333333333333332 L 75.0 16.0 L 74.0 15.666666666666666 L 73.0 15.333333333333334 L 72.0 15.0 L 71.0 15.0 L 70.0 15.0 L 69.0 15.0 L 68.0 14.666666666666666 L 67.0 14.333333333333334 L 66.0 14.0 L 65.0 14.0 L 64.0 14.0 L 63.0 14.0 L 62.0 14.0 L 61.0 14.0 L 60.0 14.0 L 59.0 14.333333333333334 L 58.0 14.666666666666666 L 57.333333333333336 15.333333333333334 L 57.0 16.0 L 57.0 17.0 L 57.0 18.0 L 57.333333333333336 18.666666666666668 L 58.0 19.0 L 59.0 19.0 L 60.0 19.0 L 61.0 19.0 L 62.0 19.0 L 63.0 19.0 L 64.0 19.0 L 65.0 19.0 L 66.0 19.0 L 67.0 19.333333333333332 L 68.0 19.666666666666668 L 69.0 20.0 L 70.0 20.0 L 71.0 20.0 L 71.5 20.0 Z" stroke="none" fill="rgb(245,73,47)" />
<path d="M 71.5 26.0 L 72.0 26.0 L 73.0 26.333333333333332 L 74.0 26.666666666666668 L 75.0 27.333333333333332 L 76.0 27.666666666666668 L 77.0 28.0 L 78.0 28.333333333333332 L 79.0 28.666666666666668 L 80.0 29.333333333333332 L 81.0 29.666666666666668 L 82.0 30.333333333333332 L 83.0 31.0 L 84.0 31.666666666666668 L 85.0 32.333333333333336 L 86.0 33.0 L 87.0 33.666666666666664 L 87.66666666666667 33.666666666666664 L 88.0 33.0 L 88.0 32.0 L 88.0 31.0 L 88.0 30.0 L 88.0 29.0 L 87.66666666666667 28.0 L 87.0 27.0 L 86.0 26.0 L 85.0 25.333333333333332 L 84.0 24.666666666666668 L 83.0 24.333333333333332 L 82.0 23.666666666666668 L 81.0 23.333333333333332 L 80.0 22.666666666666668 L 79.0 22.333333333333332 L 78.0 22.0 L 77.0 21.666666666666668 L 76.0 21.333333333333332 L 75.0 21.0 L 74.0 20.666666666666668 L 73.0 20.333333333333332 L 72.0 20.0 L 71.0 20.0 L 70.0 20.0 L 69.0 19.666666666666668 L 68.0 19.333333333333332 L 67.0 19.0 L 66.0 19.0 L 65.0 19.0 L 64.0 19.0 L 63.0 19.0 L 62.0 19.0 L 61.0 19.0 L 60.0 19.0 L 59.0 19.0 L 58.0 19.0 L 57.333333333333336 19.333333333333332 L 57.0 20.0 L 57.0 21.0 L 57.0 22.0 L 57.0 23.0 L 57.0 24.0 L 57.333333333333336 24.666666666666668 L 58.0 25.0 L 59.0 25.0 L 60.0 25.0 L 61.0 25.0 L 62.0 25.0 L 63.0 25.0 L 64.0 25.0 L 65.0 25.0 L 66.0 25.0 L 67.0 25.0 L 68.0 25.333333333333332 L 69.0 25.666666666666668 L 70.0 26.0 L 70.5 26.0 Z" stroke="none" fill="rgb(247,79,39)" />
<path d="M 88.5 39.0 L 88.66666666666667 38.666666666666664 L 89.0 38.0 L 89.0 37.0 L 89.0 36.0 L 89.0 35.0 L 88.66666666666667 34.333333333333336 L 88.0 33.666666666666664 L 87.0 33.0 L 86.0 32.333333333333336 L 85.0 31.666666666666668 L 84.0 31.0 L 83.0 30.333333333333332 L 82.0 29.666666666666668 L 81.0 29.333333333333332 L 80.0 28.666666666666668 L 79.0 28.333333333333332 L 78.0 28.0 L 77.0 27.666666666666668 L 76.0 27.333333333333332 L 75.0 26.666666666666668 L 74.0 26.333333333333332 L 73.0 26.0 L 72.0 26.0 L 71.0 26.0 L 70.0 25.666666666666668 L 69.0 25.333333333333332 L 68.0 25.0 L 67.0 25.0 L 66.0 25.0 L 65.0 25.0 L 64.0 25.0 L 63.0 25.0 L 62.0 25.0 L 61.0 25.0 L 60.0 25.0 L 59.0 25.0 L 58.0 25.0 L 57.0 25.333333333333332 L 56.333333333333336 26.0 L 56.0 27.0 L 56.0 28.0 L 56.0 29.0 L 56.333333333333336 29.666666666666668 L 57.0 30.0 L 58.0 30.0 L 59.0 30.0 L 60.0 30.0 L 61.0 30.0 L 62.0 30.0 L 63.0 30.0 L 64.0 30.0 L 65.0 30.0 L 66.0 30.0 L 67.0 30.0 L 68.0 30.0 L 69.0 30.0 L 70.0 30.333333333333332 L 71.0 30.666666666666668 L 72.0 31.0 L 73.0 31.333333333333332 L 74.0 31.666666666666668 L 75.0 32.0 L 76.0 32.333333333333336 L 77.0 32.666666666666664 L 78.0 33.333333333333336 L 79.0 33.666666666666664 L 80.0 34.333333333333336 L 81.0 34.666666666666664 L 82.0 35.333333333333336 L 83.0 36.0 L 84.0 36.666666666666664 L 85.0 37.333333333333336 L 86.0 38.0 L 87.0 38.666666666666664 L 87.5 39.0 Z" stroke="none" fill="rgb(249,85,31)" />
<path d="M 87.5 43.0 L 88.0 43.0 L 88.66666666666667 42.666666666666664 L 89.0 42.0 L 89.0 41.0 L 89.0 40.0 L 88.66666666666667 39.333333333333336 L 88.0 38.666666666666664 L 87.0 38.0 L 86.0 37.333333333333336 L 85.0 36.666666666666664 L 84.0 36.0 L 83.0 35.333333333333336 L 82.0 34.666666666666664 L 81.0 34.333333333333336 L 80.0 33.666666666666664 L 79.0 33.333333333333336 L 78.0 32.666666666666664 L 77.0 32.333333333333336 L 76.0 32.0 L 75.0 31.666666666666668 L 74.0 31.333333333333332 L 73.0 31.0 L 72.0 30.666666666666668 L 71.0 30.333333333333332 L 70.0 30.0 L 69.0 30.0 L 68.0 30.0 L 67.0 30.0 L 66.0 30.0 L 65.0 30.0 L 64.0 30.0 L 63.0 30.0 L 62.0 30.0 L 61.0 30.0 L 60.0 30.0 L 59.0 30.0 L 58.0 30.0 L 57.0 30.0 L 56.0 30.0 L 55.0 30.333333333333332 L 54.0 31.0 L 53.333333333333336 32.0 L 53.0 33.0 L 53.0 34.0 L 53.333333333333336 34.666666666666664 L 54.0 35.0 L 55.0 34.666666666666664 L 56.0 34.333333333333336 L 57.0 34.0 L 58.0 34.0 L 59.0 34.0 L 60.0 34.0 L 61.0 34.0 L 62.0 34.0 L 63.0 34.0 L 64.0 34.0 L 65.0 34.0 L 66.0 34.0 L 67.0 34.0 L 68.0 34.0 L 69.0 34.333333333333336 L 70.0 34.666666666666664 L 71.0 35.0 L 72.0 35.0 L 73.0 35.333333333333336 L 74.0 35.666666666666664 L 75.0 36.333333333333336 L 76.0 36.666666666666664 L 77.0 37.0 L 78.0 37.333333333333336 L 79.0 38.0 L 80.0 38.666666666666664 L 81.0 39.333333333333336 L 82.0 39.666666666666664 L 83.0 40.333333333333336 L 84.0 41.0 L 85.0 42.0 L 86.0 42.666666666666664 L 86.5 43.0 Z" stroke="none" fill="rgb(250,90,24)" />
<path d="M 53.5 39.0 L 54.0 39.0 L 55.0 38.666666666666664 L 56.0 38.333333333333336 L 57.0 38.0 L 58.0 38.0 L 59.0 38.0 L 60.0 38.0 L 61.0 38.0 L 62.0 38.0 L 63.0 38.0 L 64.0 38.0 L 65.0 38.0 L 66.0 38.0 L 67.0 38.0 L 68.0 38.0 L 69.0 38.333333333333336 L 70.0 38.666666666666664 L 71.0 39.0 L 72.0 39.0 L 73.0 39.333333333333336 L 74.0 39.666666666666664 L 75.0 40.333333333333336 L 76.0 40.666666666666664 L 77.0 41.333333333333336 L 78.0 41.666666666666664 L 79.0 42.333333333333336 L 80.0 42.666666666666664 L 81.0 43.333333333333336 L 82.0 44.0 L 83.0 44.666666666666664 L 84.0 45.333333333333336 L 85.0 46.0 L 86.0 47.0 L 87.0 47.666666666666664 L 87.66666666666667 47.666666666666664 L 88.0 47.0 L 88.0 46.0 L 88.0 45.0 L 88.0 44.0 L 87.66666666666667 43.333333333333336 L 87.0 42.666666666666664 L 86.0 42.0 L 85.0 41.0 L 84.0 40.333333333333336 L 83.0 39.666666666666664 L 82.0 39.333333333333336 L 81.0 38.666666666666664 L 80.0 38.0 L 79.0 37.333333333333336 L 78.0 37.0 L 77.0 36.666666666666664 L 76.0 36.333333333333336 L 75.0 35.666666666666664 L 74.0 35.333333333333336 L 73.0 35.0 L 72.0 35.0 L 71.0 34.666666666666664 L 70.0 34.333333333333336 L 69.0 34.0 L 68.0 34.0 L 67.0 34.0 L 66.0 34.0 L 65.0 34.0 L 64.0 34.0 L 63.0 34.0 L 62.0 34.0 L 61.0 34.0 L 60.0 34.0 L 59.0 34.0 L 58.0 34.0 L 57.0 34.0 L 56.0 34.0 L 55.0 34.333333333333336 L 54.0 34.666666666666664 L 53.0 35.0 L 52.0 35.0 L 51.0 35.333333333333336 L 50.0 36.0 L 49.0 37.0 L 48.0 38.0 L 47.0 39.0 L 46.333333333333336 40.0 L 46.333333333333336 40.666666666666664 L 47.0 41.0 L 48.0 41.0 L 49.0 40.666666666666664 L 50.0 40.333333333333336 L 51.0 39.666666666666664 L 52.0 39.333333333333336 L 52.5 39.0 Z" stroke="none" fill="rgb(251,95,18)" />
<path d="M 23.0 55.5 L 23.333333333333332 55.0 L 24.0 54.0 L 25.0 53.0 L 25.666666666666668 52.0 L 26.333333333333332 51.0 L 27.0 50.0 L 28.0 49.0 L 29.0 48.0 L 29.666666666666668 47.0 L 30.333333333333332 46.0 L 31.0 45.0 L 32.0 44.0 L 33.0 43.0 L 34.0 42.0 L 35.0 41.333333333333336 L 35.666666666666664 40.666666666666664 L 36.0 40.0 L 35.666666666666664 39.0 L 35.0 38.333333333333336 L 34.0 38.0 L 33.0 38.0 L 32.0 38.333333333333336 L 31.0 39.0 L 30.0 40.0 L 29.0 41.0 L 28.333333333333332 42.0 L 27.666666666666668 43.0 L 27.0 44.0 L 26.0 45.0 L 25.333333333333332 46.0 L 24.666666666666668 47.0 L 24.0 48.0 L 23.333333333333332 49.0 L 22.666666666666668 50.0 L 22.333333333333332 51.0 L 21.666666666666668 52.0 L 21.333333333333332 53.0 L 20.666666666666668 54.0 L 20.333333333333332 55.0 L 20.0 56.0 L 19.666666666666668 57.0 L 19.333333333333332 58.0 L 19.0 59.0 L 19.333333333333332 59.666666666666664 L 20.0 59.666666666666664 L 21.0 59.0 L 21.666666666666668 58.0 L 22.333333333333332 57.0 L 22.5 56.5 Z" stroke="none" fill="rgb(249,85,31)" />
<path d="M 87.5 50.5 L 87.66666666666667 50.0 L 88.0 49.0 L 87.66666666666667 48.0 L 87.0 47.0 L 86.0 46.0 L 85.0 45.333333333333336 L 84.0 44.666666666666664 L 83.0 44.0 L 82.0 43.333333333333336 L 81.0 42.666666666666664 L 80.0 42.333333333333336 L 79.0 41.666666666666664 L 78.0 41.333333333333336 L 77.0 40.666666666666664 L 76.0 40.333333333333336 L 75.0 39.666666666666664 L 74.0 39.333333333333336 L 73.0 39.0 L 72.0 39.0 L 71.0 38.666666666666664 L 70.0 38.333333333333336 L 69.0 38.0 L 68.0 38.0 L 67.0 38.0 L 66.0 38.0 L 65.0 38.0 L 64.0 38.0 L 63.0 38.0 L 62.0 38.0 L 61.0 38.0 L 60.0 38.0 L 59.0 38.0 L 58.0 38.0 L 57.0 38.0 L 56.0 38.0 L 55.0 38.333333333333336 L 54.0 38.666666666666664 L 53.0 39.0 L 52.0 39.0 L 51.0 39.333333333333336 L 50.0 39.666666666666664 L 49.0 40.333333333333336 L 48.0 40.666666666666664 L 47.0 41.0 L 46.0 41.333333333333336 L 45.0 42.0 L 44.0 43.0 L 43.333333333333336 44.0 L 42.666666666666664 45.0 L 42.333333333333336 46.0 L 42.333333333333336 46.666666666666664 L 43.0 47.0 L 44.0 46.666666666666664 L 45.0 46.333333333333336 L 46.0 45.666666666666664 L 47.0 45.333333333333336 L 48.0 44.666666666666664 L 49.0 44.333333333333336 L 50.0 43.666666666666664 L 51.0 43.333333333333336 L 52.0 42.666666666666664 L 53.0 42.333333333333336 L 54.0 42.0 L 55.0 42.0 L 56.0 41.666666666666664 L 57.0 41.333333333333336 L 58.0 41.0 L 59.0 41.0 L 60.0 41.0 L 61.0 41.0 L 62.0 41.0 L 63.0 41.0 L 64.0 41.0 L 65.0 41.0 L 66.0 41.0 L 67.0 41.0 L 68.0 41.333333333333336 L 69.0 41.666666666666664 L 70.0 42.0 L 71.0 42.0 L 72.0 42.333333333333336 L 73.0 42.666666666666664 L 74.0 43.333333333333336 L 75.0 43.666666666666664 L 76.0 44.333333333333336 L 77.0 44.666666666666664 L 78.0 45.333333333333336 L 79.0 45.666666666666664 L 80.0 46.333333333333336 L 81.0 47.0 L 82.0 47.666666666666664 L 83.0 48.333333333333336 L 84.0 49.0 L 85.0 50.0 L 86.0 50.666666666666664 L 86.5 51.0 Z" stroke="none" fill="rgb(252,99,13)" />
<path d="M 36.0 45.5 L 36.0 45.0 L 36.0 44.0 L 36.0 43.0 L 36.0 42.0 L 35.666666666666664 41.333333333333336 L 35.0 41.0 L 34.0 41.333333333333336 L 33.0 42.0 L 32.0 43.0 L 31.0 44.0 L 30.333333333333332 45.0 L 29.666666666666668 46.0 L 29.0 47.0 L 28.0 48.0 L 27.0 49.0 L 26.333333333333332 50.0 L 25.666666666666668 51.0 L 25.0 52.0 L 24.0 53.0 L 23.333333333333332 54.0 L 22.666666666666668 55.0 L 22.333333333333332 56.0 L 21.666666666666668 57.0 L 21.0 58.0 L 20.0 59.0 L 19.333333333333332 60.0 L 18.666666666666668 61.0 L 18.333333333333332 62.0 L 18.0 63.0 L 17.666666666666668 64.0 L 17.333333333333332 65.0 L 17.0 66.0 L 17.0 67.0 L 17.0 68.0 L 17.0 69.0 L 17.333333333333332 69.66666666666667 L 18.0 69.66666666666667 L 18.666666666666668 69.0 L 19.333333333333332 68.0 L 19.666666666666668 67.0 L 20.333333333333332 66.0 L 20.666666666666668 65.0 L 21.333333333333332 64.0 L 22.0 63.0 L 22.666666666666668 62.0 L 23.333333333333332 61.0 L 23.666666666666668 60.0 L 24.333333333333332 59.0 L 25.0 58.0 L 26.0 57.0 L 26.666666666666668 56.0 L 27.333333333333332 55.0 L 28.0 54.0 L 29.0 53.0 L 29.666666666666668 52.0 L 30.333333333333332 51.0 L 31.0 50.0 L 32.0 49.0 L 33.0 48.0 L 34.0 47.0 L 35.0 46.333333333333336 L 35.5 46.0 Z" stroke="none" fill="rgb(250,90,24)" />
<path d="M 40.5 54.0 L 41.0 53.666666666666664 L 42.0 53.0 L 43.0 52.0 L 44.0 51.333333333333336 L 45.0 50.666666666666664 L 46.0 50.0 L 47.0 49.333333333333336 L 48.0 48.666666666666664 L 49.0 48.333333333333336 L 50.0 47.666666666666664 L 51.0 47.333333333333336 L 52.0 47.0 L 53.0 46.666666666666664 L 54.0 46.333333333333336 L 55.0 46.0 L 56.0 45.666666666666664 L 57.0 45.333333333333336 L 58.0 45.0 L 59.0 45.0 L 60.0 45.0 L 61.0 45.0 L 62.0 45.0 L 63.0 45.0 L 64.0 45.0 L 65.0 45.0 L 66.0 45.0 L 67.0 45.0 L 68.0 45.333333333333336 L 69.0 46.0 L 70.0 46.666666666666664 L 71.0 47.333333333333336 L 72.0 47.666666666666664 L 73.0 48.0 L 74.0 48.0 L 75.0 48.0 L 76.0 48.333333333333336 L 77.0 48.666666666666664 L 78.0 49.333333333333336 L 79.0 50.0 L 80.0 50.666666666666664 L 81.0 51.333333333333336 L 82.0 52.0 L 83.0 52.666666666666664 L 84.0 53.333333333333336 L 85.0 54.0 L 86.0 54.666666666666664 L 86.66666666666667 54.666666666666664 L 87.0 54.0 L 87.0 53.0 L 87.0 52.0 L 86.66666666666667 51.0 L 86.0 50.0 L 85.0 49.0 L 84.0 48.333333333333336 L 83.0 47.666666666666664 L 82.0 47.0 L 81.0 46.333333333333336 L 80.0 45.666666666666664 L 79.0 45.333333333333336 L 78.0 44.666666666666664 L 77.0 44.333333333333336 L 76.0 43.666666666666664 L 75.0 43.333333333333336 L 74.0 42.666666666666664 L 73.0 42.333333333333336 L 72.0 42.0 L 71.0 42.0 L 70.0 41.666666666666664 L 69.0 41.333333333333336 L 68.0 41.0 L 67.0 41.0 L 66.0 41.0 L 65.0 41.0 L 64.0 41.0 L 63.0 41.0 L 62.0 41.0 L 61.0 41.0 L 60.0 41.0 L 59.0 41.0 L 58.0 41.0 L 57.0 41.0 L 56.0 41.333333333333336 L 55.0 41.666666666666664 L 54.0 42.0 L 53.0 42.0 L 52.0 42.333333333333336 L 51.0 42.666666666666664 L 50.0 43.333333333333336 L 49.0 43.666666666666664 L 48.0 44.333333333333336 L 47.0 44.666666666666664 L 46.0 45.333333333333336 L 45.0 45.666666666666664 L 44.0 46.333333333333336 L 43.0 46.666666666666664 L 42.0 47.333333333333336 L 41.0 48.0 L 40.333333333333336 49.0 L 40.0 50.0 L 39.666666666666664 51.0 L 39.333333333333336 52.0 L 39.0 53.0 L 39.333333333333336 53.666666666666664 L 39.5 54.0 Z" stroke="none" fill="rgb(254,103,7)" />
<path d="M 24.0 84.5 L 24.0 84.0 L 24.333333333333332 83.0 L 24.666666666666668 82.0 L 25.333333333333332 81.0 L 25.666666666666668 80.0 L 26.333333333333332 79.0 L 26.666666666666668 78.0 L 27.333333333333332 77.0 L 27.666666666666668 76.0 L 28.333333333333332 75.0 L 28.666666666666668 74.0 L 29.333333333333332 73.0 L 29.666666666666668 72.0 L 30.333333333333332 71.0 L 31.0 70.0 L 31.666666666666668 69.0 L 32.333333333333336 68.0 L 33.0 67.0 L 34.0 66.0 L 35.0 65.0 L 35.666666666666664 64.0 L 36.333333333333336 63.0 L 37.0 62.0 L 38.0 61.0 L 39.0 60.0 L 40.0 59.0 L 41.0 58.333333333333336 L 42.0 57.666666666666664 L 43.0 57.0 L 44.0 56.0 L 45.0 55.333333333333336 L 46.0 54.666666666666664 L 47.0 54.0 L 48.0 53.333333333333336 L 49.0 52.666666666666664 L 50.0 52.333333333333336 L 51.0 51.666666666666664 L 52.0 51.333333333333336 L 53.0 51.0 L 54.0 50.666666666666664 L 55.0 50.333333333333336 L 56.0 50.0 L 57.0 50.0 L 58.0 49.666666666666664 L 59.0 49.333333333333336 L 60.0 49.0 L 61.0 49.0 L 62.0 49.0 L 63.0 49.0 L 64.0 49.0 L 65.0 49.333333333333336 L 66.0 49.666666666666664 L 67.0 50.0 L 68.0 49.666666666666664 L 69.0 49.0 L 69.66666666666667 48.0 L 70.0 47.0 L 69.66666666666667 46.0 L 69.0 45.333333333333336 L 68.0 45.0 L 67.0 45.0 L 66.0 45.0 L 65.0 45.0 L 64.0 45.0 L 63.0 45.0 L 62.0 45.0 L 61.0 45.0 L 60.0 45.0 L 59.0 45.0 L 58.0 45.0 L 57.0 45.0 L 56.0 45.333333333333336 L 55.0 45.666666666666664 L 54.0 46.0 L 53.0 46.333333333333336 L 52.0 46.666666666666664 L 51.0 47.0 L 50.0 47.333333333333336 L 49.0 47.666666666666664 L 48.0 48.333333333333336 L 47.0 48.666666666666664 L 46.0 49.333333333333336 L 45.0 50.0 L 44.0 50.666666666666664 L 43.0 51.333333333333336 L 42.0 52.0 L 41.0 53.0 L 40.0 53.666666666666664 L 39.0 54.333333333333336 L 38.333333333333336 55.0 L 37.666666666666664 56.0 L 37.0 57.0 L 36.0 57.666666666666664 L 35.0 58.333333333333336 L 34.333333333333336 59.0 L 33.666666666666664 60.0 L 33.0 61.0 L 32.0 62.0 L 31.333333333333332 63.0 L 30.666666666666668 64.0 L 30.0 65.0 L 29.333333333333332 66.0 L 28.666666666666668 67.0 L 28.0 68.0 L 27.333333333333332 69.0 L 26.666666666666668 70.0 L 26.333333333333332 71.0 L 25.666666666666668 72.0 L 25.333333333333332 73.0 L 24.666666666666668 74.0 L 24.333333333333332 75.0 L 23.666666666666668 76.0 L 23.333333333333332 77.0 L 22.666666666666668 78.0 L 22.333333333333332 79.0 L 22.0 80.0 L 21.666666666666668 81.0 L 21.333333333333332 82.0 L 20.666666666666668 83.0 L 20.333333333333332 84.0 L 20.0 85.0 L 19.666666666666668 86.0 L 19.333333333333332 87.0 L 19.0 88.0 L 19.0 89.0 L 19.0 90.0 L 19.0 91.0 L 19.0 92.0 L 19.333333333333332 92.66666666666667 L 20.0 93.0 L 20.666666666666668 92.66666666666667 L 21.333333333333332 92.0 L 21.666666666666668 91.0 L 22.0 90.0 L 22.0 89.0 L 22.333333333333332 88.0 L 22.666666666666668 87.0 L 23.333333333333332 86.0 L 23.5 85.5 Z" stroke="none" fill="rgb(255,108,2)" />
<path d="M 18.0 78.5 L 18.0 78.0 L 18.333333333333332 77.0 L 18.666666666666668 76.0 L 19.333333333333332 75.0 L 19.666666666666668 74.0 L 20.0 73.0 L 20.333333333333332 72.0 L 20.666666666666668 71.0 L 21.333333333333332 70.0 L 21.666666666666668 69.0 L 22.333333333333332 68.0 L 23.0 67.0 L 23.666666666666668 66.0 L 24.333333333333332 65.0 L 24.666666666666668 64.0 L 25.333333333333332 63.0 L 26.0 62.0 L 26.666666666666668 61.0 L 27.333333333333332 60.0 L 28.0 59.0 L 28.666666666666668 58.0 L 29.333333333333332 57.0 L 30.0 56.0 L 31.0 55.0 L 32.0 54.0 L 33.0 53.0 L 34.0 52.0 L 35.0 51.333333333333336 L 35.666666666666664 50.666666666666664 L 36.0 50.0 L 36.0 49.0 L 36.0 48.0 L 36.0 47.0 L 35.666666666666664 46.333333333333336 L 35.0 46.0 L 34.0 46.333333333333336 L 33.0 47.0 L 32.0 48.0 L 31.0 49.0 L 30.333333333333332 50.0 L 29.666666666666668 51.0 L 29.0 52.0 L 28.0 53.0 L 27.333333333333332 54.0 L 26.666666666666668 55.0 L 26.0 56.0 L 25.0 57.0 L 24.333333333333332 58.0 L 23.666666666666668 59.0 L 23.333333333333332 60.0 L 22.666666666666668 61.0 L 22.0 62.0 L 21.333333333333332 63.0 L 20.666666666666668 64.0 L 20.333333333333332 65.0 L 19.666666666666668 66.0 L 19.333333333333332 67.0 L 18.666666666666668 68.0 L 18.333333333333332 69.0 L 17.666666666666668 70.0 L 17.333333333333332 71.0 L 16.666666666666668 72.0 L 16.333333333333332 73.0 L 16.0 74.0 L 16.0 75.0 L 16.0 76.0 L 16.0 77.0 L 16.0 78.0 L 16.333333333333332 78.66666666666667 L 17.0 79.0 L 17.5 79.0 Z" stroke="none" fill="rgb(251,95,18)" />
<path d="M 59.5 75.0 L 60.0 75.33333333333333 L 61.0 75.66666666666667 L 62.0 76.0 L 63.0 76.0 L 64.0 76.0 L 65.0 76.0 L 66.0 76.0 L 67.0 76.0 L 68.0 76.0 L 69.0 76.0 L 70.0 76.0 L 71.0 75.66666666666667 L 72.0 75.33333333333333 L 73.0 75.33333333333333 L 74.0 75.66666666666667 L 74.66666666666667 75.66666666666667 L 75.0 75.0 L 74.66666666666667 74.0 L 74.0 73.0 L 73.33333333333333 72.0 L 73.0 71.0 L 73.0 70.0 L 73.0 69.0 L 72.66666666666667 68.0 L 72.0 67.0 L 71.33333333333333 66.0 L 71.0 65.0 L 71.0 64.0 L 71.0 63.0 L 71.0 62.0 L 71.0 61.0 L 71.0 60.0 L 71.0 59.0 L 71.0 58.0 L 71.0 57.0 L 71.33333333333333 56.0 L 71.66666666666667 55.0 L 72.0 54.0 L 72.0 53.0 L 72.33333333333333 52.0 L 72.66666666666667 51.0 L 73.0 50.0 L 73.0 49.0 L 72.66666666666667 48.0 L 72.0 47.333333333333336 L 71.0 47.0 L 70.0 47.333333333333336 L 69.0 48.0 L 68.0 49.0 L 67.0 49.666666666666664 L 66.0 50.333333333333336 L 65.0 51.0 L 64.0 52.0 L 63.0 53.0 L 62.0 54.0 L 61.0 55.0 L 60.333333333333336 56.0 L 59.666666666666664 57.0 L 59.0 58.0 L 58.333333333333336 59.0 L 57.666666666666664 60.0 L 57.333333333333336 61.0 L 57.0 62.0 L 56.666666666666664 63.0 L 56.333333333333336 64.0 L 55.666666666666664 65.0 L 55.333333333333336 66.0 L 54.666666666666664 67.0 L 54.333333333333336 68.0 L 54.0 69.0 L 54.0 70.0 L 54.333333333333336 70.66666666666667 L 55.0 71.33333333333333 L 56.0 72.0 L 57.0 73.0 L 58.0 74.0 L 58.5 74.5 Z" stroke="none" fill="rgb(255,241,118)" />
<path d="M 78.5 54.5 L 79.0 54.666666666666664 L 80.0 55.333333333333336 L 81.0 56.0 L 82.0 57.0 L 83.0 57.666666666666664 L 84.0 58.333333333333336 L 85.0 59.0 L 86.0 59.666666666666664 L 86.66666666666667 59.666666666666664 L 87.0 59.0 L 87.0 58.0 L 87.0 57.0 L 87.0 56.0 L 86.66666666666667 55.0 L 86.0 54.0 L 85.0 53.333333333333336 L 84.0 52.666666666666664 L 83.0 52.0 L 82.0 51.333333333333336 L 81.0 50.666666666666664 L 80.0 50.0 L 79.0 49.333333333333336 L 78.0 48.666666666666664 L 77.0 48.333333333333336 L 76.0 47.666666666666664 L 75.0 47.333333333333336 L 74.0 47.333333333333336 L 73.33333333333333 48.0 L 73.0 49.0 L 73.0 50.0 L 73.33333333333333 51.0 L 74.0 51.666666666666664 L 75.0 52.333333333333336 L 76.0 52.666666666666664 L 77.0 53.333333333333336 L 77.5 53.5 Z" stroke="none" fill="rgb(255,108,2)" />
<path d="M 57.5 55.0 L 58.0 55.0 L 59.0 55.333333333333336 L 60.0 55.666666666666664 L 61.0 55.666666666666664 L 62.0 55.0 L 63.0 54.0 L 64.0 53.0 L 65.0 52.0 L 65.66666666666667 51.0 L 66.0 50.0 L 65.66666666666667 49.333333333333336 L 65.0 49.0 L 64.0 49.0 L 63.0 49.0 L 62.0 49.0 L 61.0 49.0 L 60.0 49.0 L 59.0 49.0 L 58.0 49.333333333333336 L 57.0 49.666666666666664 L 56.0 50.0 L 55.0 50.0 L 54.0 50.333333333333336 L 53.0 50.666666666666664 L 52.0 51.0 L 51.0 51.333333333333336 L 50.0 51.666666666666664 L 49.0 52.333333333333336 L 48.0 52.666666666666664 L 47.0 53.333333333333336 L 46.0 54.0 L 45.0 54.666666666666664 L 44.0 55.333333333333336 L 43.0 56.0 L 42.0 57.0 L 41.0 57.666666666666664 L 40.0 58.333333333333336 L 39.0 59.0 L 38.0 60.0 L 37.0 61.0 L 36.333333333333336 62.0 L 35.666666666666664 63.0 L 35.0 64.0 L 34.0 65.0 L 33.0 66.0 L 32.333333333333336 67.0 L 31.666666666666668 68.0 L 31.0 69.0 L 30.333333333333332 70.0 L 29.666666666666668 71.0 L 29.333333333333332 72.0 L 28.666666666666668 73.0 L 28.333333333333332 74.0 L 27.666666666666668 75.0 L 27.333333333333332 76.0 L 26.666666666666668 77.0 L 26.333333333333332 78.0 L 25.666666666666668 79.0 L 25.333333333333332 80.0 L 24.666666666666668 81.0 L 24.333333333333332 82.0 L 24.0 83.0 L 23.666666666666668 84.0 L 23.333333333333332 85.0 L 22.666666666666668 86.0 L 22.333333333333332 87.0 L 22.0 88.0 L 22.0 89.0 L 21.666666666666668 90.0 L 21.333333333333332 91.0 L 20.666666666666668 92.0 L 20.333333333333332 93.0 L 20.0 94.0 L 20.0 95.0 L 20.333333333333332 96.0 L 20.666666666666668 97.0 L 21.333333333333332 97.66666666666667 L 22.0 98.0 L 23.0 97.66666666666667 L 23.666666666666668 97.0 L 24.0 96.0 L 24.0 95.0 L 24.333333333333332 94.0 L 24.666666666666668 93.0 L 25.0 92.0 L 25.333333333333332 91.0 L 25.666666666666668 90.0 L 26.0 89.0 L 26.333333333333332 88.0 L 26.666666666666668 87.0 L 27.333333333333332 86.0 L 27.666666666666668 85.0 L 28.333333333333332 84.0 L 28.666666666666668 83.0 L 29.0 82.0 L 29.333333333333332 81.0 L 30.0 80.0 L 30.666666666666668 79.0 L 31.333333333333332 78.0 L 31.666666666666668 77.0 L 32.333333333333336 76.0 L 33.0 75.0 L 33.666666666666664 74.0 L 34.333333333333336 73.0 L 35.0 72.0 L 35.666666666666664 71.0 L 36.333333333333336 70.0 L 37.0 69.0 L 38.0 68.0 L 39.0 67.0 L 40.0 66.0 L 41.0 65.0 L 42.0 64.0 L 43.0 63.0 L 44.0 62.0 L 45.0 61.333333333333336 L 46.0 60.666666666666664 L 47.0 60.0 L 48.0 59.333333333333336 L 49.0 58.666666666666664 L 50.0 58.333333333333336 L 51.0 57.666666666666664 L 52.0 57.333333333333336 L 53.0 56.666666666666664 L 54.0 56.333333333333336 L 55.0 56.0 L 56.0 55.666666666666664 L 56.5 55.5 Z" stroke="none" fill="rgb(255,113,0)" />
<path d="M 20.0 79.5 L 20.0 79.0 L 20.333333333333332 78.0 L 20.666666666666668 77.0 L 21.333333333333332 76.0 L 21.666666666666668 75.0 L 22.333333333333332 74.0 L 22.666666666666668 73.0 L 23.333333333333332 72.0 L 23.666666666666668 71.0 L 24.333333333333332 70.0 L 24.666666666666668 69.0 L 25.333333333333332 68.0 L 25.666666666666668 67.0 L 26.333333333333332 66.0 L 27.0 65.0 L 27.666666666666668 64.0 L 28.333333333333332 63.0 L 29.0 62.0 L 29.666666666666668 61.0 L 30.333333333333332 60.0 L 31.0 59.0 L 32.0 58.0 L 33.0 57.0 L 34.0 56.0 L 35.0 55.333333333333336 L 35.666666666666664 54.666666666666664 L 36.0 54.0 L 36.0 53.0 L 36.0 52.0 L 35.666666666666664 51.333333333333336 L 35.0 51.0 L 34.0 51.333333333333336 L 33.0 52.0 L 32.0 53.0 L 31.0 54.0 L 30.0 55.0 L 29.333333333333332 56.0 L 28.666666666666668 57.0 L 28.0 58.0 L 27.333333333333332 59.0 L 26.666666666666668 60.0 L 26.0 61.0 L 25.333333333333332 62.0 L 24.666666666666668 63.0 L 24.333333333333332 64.0 L 23.666666666666668 65.0 L 23.0 66.0 L 22.333333333333332 67.0 L 21.666666666666668 68.0 L 21.333333333333332 69.0 L 20.666666666666668 70.0 L 20.333333333333332 71.0 L 20.0 72.0 L 19.666666666666668 73.0 L 19.333333333333332 74.0 L 18.666666666666668 75.0 L 18.333333333333332 76.0 L 18.0 77.0 L 17.666666666666668 78.0 L 17.333333333333332 79.0 L 17.0 80.0 L 17.0 81.0 L 17.0 82.0 L 17.333333333333332 82.66666666666667 L 18.0 82.66666666666667 L 18.666666666666668 82.0 L 19.333333333333332 81.0 L 19.5 80.5 Z" stroke="none" fill="rgb(252,99,13)" />
<path d="M 104.5 105.0 L 105.0 104.66666666666667 L 105.66666666666667 104.0 L 106.0 103.0 L 106.0 102.0 L 106.0 101.0 L 106.0 100.0 L 105.66666666666667 99.0 L 105.33333333333333 98.0 L 105.0 97.0 L 105.0 96.0 L 105.0 95.0 L 104.66666666666667 94.0 L 104.33333333333333 93.0 L 104.0 92.0 L 103.66666666666667 91.0 L 103.33333333333333 90.0 L 103.0 89.0 L 102.66666666666667 88.0 L 102.33333333333333 87.0 L 102.0 86.0 L 101.66666666666667 85.0 L 101.33333333333333 84.0 L 101.0 83.0 L 100.66666666666667 82.0 L 100.33333333333333 81.0 L 99.66666666666667 80.0 L 99.33333333333333 79.0 L 98.66666666666667 78.0 L 98.33333333333333 77.0 L 97.66666666666667 76.0 L 97.33333333333333 75.0 L 96.66666666666667 74.0 L 96.33333333333333 73.0 L 95.66666666666667 72.0 L 95.0 71.0 L 94.33333333333333 70.0 L 93.66666666666667 69.0 L 93.33333333333333 68.0 L 92.66666666666667 67.0 L 92.0 66.0 L 91.33333333333333 65.0 L 90.66666666666667 64.33333333333333 L 90.0 63.666666666666664 L 89.0 63.0 L 88.0 62.0 L 87.33333333333333 61.0 L 86.66666666666667 60.0 L 86.0 59.0 L 85.0 58.333333333333336 L 84.0 57.666666666666664 L 83.0 57.0 L 82.0 56.0 L 81.0 55.333333333333336 L 80.0 54.666666666666664 L 79.0 54.0 L 78.0 53.333333333333336 L 77.0 52.666666666666664 L 76.0 52.333333333333336 L 75.0 51.666666666666664 L 74.0 51.333333333333336 L 73.0 51.0 L 72.33333333333333 51.333333333333336 L 72.0 52.0 L 72.0 53.0 L 71.66666666666667 54.0 L 71.33333333333333 55.0 L 71.0 56.0 L 71.33333333333333 56.666666666666664 L 72.0 57.0 L 73.0 57.333333333333336 L 74.0 57.666666666666664 L 75.0 58.333333333333336 L 76.0 58.666666666666664 L 77.0 59.333333333333336 L 78.0 60.0 L 79.0 60.666666666666664 L 80.0 61.333333333333336 L 81.0 62.0 L 82.0 63.0 L 83.0 64.0 L 84.0 65.0 L 85.0 66.0 L 86.0 67.0 L 87.0 68.0 L 88.0 69.0 L 88.66666666666667 70.0 L 89.33333333333333 71.0 L 90.0 72.0 L 90.66666666666667 73.0 L 91.33333333333333 74.0 L 92.0 75.0 L 92.66666666666667 76.0 L 93.33333333333333 77.0 L 93.66666666666667 78.0 L 94.33333333333333 79.0 L 94.66666666666667 80.0 L 95.33333333333333 81.0 L 95.66666666666667 82.0 L 96.33333333333333 83.0 L 96.66666666666667 84.0 L 97.33333333333333 85.0 L 97.66666666666667 86.0 L 98.0 87.0 L 98.33333333333333 88.0 L 98.66666666666667 89.0 L 99.0 90.0 L 99.33333333333333 91.0 L 99.66666666666667 92.0 L 100.0 93.0 L 100.33333333333333 94.0 L 100.66666666666667 95.0 L 101.0 96.0 L 101.33333333333333 97.0 L 101.66666666666667 98.0 L 102.0 99.0 L 102.0 100.0 L 102.33333333333333 101.0 L 102.66666666666667 102.0 L 103.0 103.0 L 103.0 104.0 L 103.33333333333333 104.66666666666667 L 103.5 105.0 Z" stroke="none" fill="rgb(255,113,0)" />
<path d="M 21.0 83.5 L 21.333333333333332 83.0 L 21.666666666666668 82.0 L 22.0 81.0 L 22.333333333333332 80.0 L 22.666666666666668 79.0 L 23.333333333333332 78.0 L 23.666666666666668 77.0 L 24.333333333333332 76.0 L 24.666666666666668 75.0 L 25.333333333333332 74.0 L 25.666666666666668 73.0 L 26.333333333333332 72.0 L 26.666666666666668 71.0 L 27.333333333333332 70.0 L 28.0 69.0 L 28.666666666666668 68.0 L 29.333333333333332 67.0 L 30.0 66.0 L 30.666666666666668 65.0 L 31.333333333333332 64.0 L 32.0 63.0 L 33.0 62.0 L 33.666666666666664 61.0 L 34.333333333333336 60.0 L 35.0 59.0 L 36.0 58.333333333333336 L 36.666666666666664 57.666666666666664 L 37.0 57.0 L 36.666666666666664 56.0 L 36.0 55.333333333333336 L 35.0 55.0 L 34.0 55.333333333333336 L 33.0 56.0 L 32.0 57.0 L 31.0 58.0 L 30.333333333333332 59.0 L 29.666666666666668 60.0 L 29.0 61.0 L 28.333333333333332 62.0 L 27.666666666666668 63.0 L 27.0 64.0 L 26.333333333333332 65.0 L 25.666666666666668 66.0 L 25.333333333333332 67.0 L 24.666666666666668 68.0 L 24.333333333333332 69.0 L 23.666666666666668 70.0 L 23.333333333333332 71.0 L 22.666666666666668 72.0 L 22.333333333333332 73.0 L 21.666666666666668 74.0 L 21.333333333333332 75.0 L 20.666666666666668 76.0 L 20.333333333333332 77.0 L 20.0 78.0 L 19.666666666666668 79.0 L 19.333333333333332 80.0 L 18.666666666666668 81.0 L 18.0 82.0 L 17.333333333333332 83.0 L 17.0 84.0 L 17.0 85.0 L 17.333333333333332 86.0 L 17.666666666666668 87.0 L 18.333333333333332 87.66666666666667 L 19.0 87.66666666666667 L 19.666666666666668 87.0 L 20.0 86.0 L 20.333333333333332 85.0 L 20.5 84.5 Z" stroke="none" fill="rgb(254,103,7)" />
<path d="M 57.5 61.5 L 57.666666666666664 61.0 L 58.333333333333336 60.0 L 59.0 59.0 L 59.666666666666664 58.0 L 60.0 57.0 L 60.0 56.0 L 59.666666666666664 55.333333333333336 L 59.0 55.0 L 58.0 55.0 L 57.0 55.0 L 56.0 55.333333333333336 L 55.0 55.666666666666664 L 54.0 56.0 L 53.0 56.333333333333336 L 52.0 56.666666666666664 L 51.0 57.333333333333336 L 50.0 57.666666666666664 L 49.0 58.333333333333336 L 48.0 58.666666666666664 L 47.0 59.333333333333336 L 46.0 60.0 L 45.0 60.666666666666664 L 44.0 61.333333333333336 L 43.0 62.0 L 42.0 63.0 L 41.0 64.0 L 40.0 65.0 L 39.0 66.0 L 38.0 67.0 L 37.0 68.0 L 36.333333333333336 69.0 L 35.666666666666664 70.0 L 35.0 71.0 L 34.333333333333336 72.0 L 33.666666666666664 73.0 L 33.0 74.0 L 32.333333333333336 75.0 L 31.666666666666668 76.0 L 31.333333333333332 77.0 L 30.666666666666668 78.0 L 30.0 79.0 L 29.333333333333332 80.0 L 29.0 81.0 L 28.666666666666668 82.0 L 28.333333333333332 83.0 L 27.666666666666668 84.0 L 27.333333333333332 85.0 L 26.666666666666668 86.0 L 26.333333333333332 87.0 L 26.0 88.0 L 25.666666666666668 89.0 L 25.333333333333332 90.0 L 25.0 91.0 L 24.666666666666668 92.0 L 24.333333333333332 93.0 L 24.0 94.0 L 24.0 95.0 L 23.666666666666668 96.0 L 23.0 97.0 L 22.333333333333332 98.0 L 22.0 99.0 L 22.333333333333332 100.0 L 22.666666666666668 101.0 L 23.333333333333332 102.0 L 24.0 102.66666666666667 L 25.0 103.0 L 25.666666666666668 102.66666666666667 L 26.0 102.0 L 26.0 101.0 L 26.333333333333332 100.0 L 26.666666666666668 99.0 L 27.0 98.0 L 27.333333333333332 97.0 L 27.666666666666668 96.0 L 28.0 95.0 L 28.333333333333332 94.0 L 28.666666666666668 93.0 L 29.0 92.0 L 29.333333333333332 91.0 L 29.666666666666668 90.0 L 30.333333333333332 89.0 L 30.666666666666668 88.0 L 31.0 87.0 L 31.333333333333332 86.0 L 31.666666666666668 85.0 L 32.333333333333336 84.0 L 32.666666666666664 83.0 L 33.333333333333336 82.0 L 34.0 81.0 L 34.666666666666664 80.0 L 35.333333333333336 79.0 L 36.0 78.0 L 36.666666666666664 77.0 L 37.333333333333336 76.0 L 38.0 75.0 L 39.0 74.0 L 40.0 73.0 L 40.666666666666664 72.0 L 41.333333333333336 71.0 L 42.0 70.0 L 43.0 69.33333333333333 L 44.0 68.66666666666667 L 45.0 68.0 L 46.0 67.0 L 47.0 66.0 L 48.0 65.33333333333333 L 49.0 64.66666666666667 L 50.0 64.0 L 51.0 63.333333333333336 L 52.0 63.0 L 53.0 62.666666666666664 L 54.0 62.333333333333336 L 55.0 62.0 L 56.0 62.0 L 56.5 62.0 Z" stroke="none" fill="rgb(255,119,0)" />
<path d="M 104.0 106.5 L 104.0 106.0 L 103.66666666666667 105.0 L 103.33333333333333 104.0 L 103.0 103.0 L 103.0 102.0 L 102.66666666666667 101.0 L 102.33333333333333 100.0 L 102.0 99.0 L 102.0 98.0 L 101.66666666666667 97.0 L 101.33333333333333 96.0 L 101.0 95.0 L 100.66666666666667 94.0 L 100.33333333333333 93.0 L 100.0 92.0 L 99.66666666666667 91.0 L 99.33333333333333 90.0 L 99.0 89.0 L 98.66666666666667 88.0 L 98.33333333333333 87.0 L 98.0 86.0 L 97.66666666666667 85.0 L 97.33333333333333 84.0 L 96.66666666666667 83.0 L 96.33333333333333 82.0 L 95.66666666666667 81.0 L 95.33333333333333 80.0 L 94.66666666666667 79.0 L 94.33333333333333 78.0 L 93.66666666666667 77.0 L 93.33333333333333 76.0 L 92.66666666666667 75.0 L 92.0 74.0 L 91.33333333333333 73.0 L 90.66666666666667 72.0 L 90.0 71.0 L 89.33333333333333 70.0 L 88.66666666666667 69.0 L 88.0 68.0 L 87.0 67.0 L 86.0 66.0 L 85.0 65.0 L 84.0 64.0 L 83.0 63.0 L 82.0 62.0 L 81.0 61.333333333333336 L 80.0 60.666666666666664 L 79.0 60.0 L 78.0 59.333333333333336 L 77.0 58.666666666666664 L 76.0 58.333333333333336 L 75.0 57.666666666666664 L 74.0 57.333333333333336 L 73.0 57.0 L 72.0 57.0 L 71.33333333333333 57.333333333333336 L 71.0 58.0 L 71.0 59.0 L 71.0 60.0 L 71.0 61.0 L 71.0 62.0 L 71.33333333333333 62.666666666666664 L 72.0 63.0 L 73.0 63.0 L 74.0 63.333333333333336 L 75.0 64.0 L 76.0 64.66666666666667 L 77.0 65.33333333333333 L 78.0 66.0 L 79.0 67.0 L 80.0 68.0 L 81.0 68.66666666666667 L 82.0 69.33333333333333 L 82.66666666666667 70.0 L 83.33333333333333 71.0 L 84.0 72.0 L 85.0 73.0 L 86.0 74.0 L 87.0 75.0 L 87.66666666666667 76.0 L 88.33333333333333 77.0 L 89.0 78.0 L 89.66666666666667 79.0 L 90.33333333333333 80.0 L 90.66666666666667 81.0 L 91.33333333333333 82.0 L 91.66666666666667 83.0 L 92.33333333333333 84.0 L 92.66666666666667 85.0 L 93.33333333333333 86.0 L 93.66666666666667 87.0 L 94.33333333333333 88.0 L 94.66666666666667 89.0 L 95.33333333333333 90.0 L 95.66666666666667 91.0 L 96.0 92.0 L 96.33333333333333 93.0 L 96.66666666666667 94.0 L 97.0 95.0 L 97.33333333333333 96.0 L 97.66666666666667 97.0 L 98.0 98.0 L 98.0 99.0 L 98.33333333333333 100.0 L 98.66666666666667 101.0 L 99.0 102.0 L 99.0 103.0 L 99.33333333333333 104.0 L 99.66666666666667 105.0 L 100.0 106.0 L 100.0 107.0 L 100.0 108.0 L 100.33333333333333 108.66666666666667 L 101.0 109.0 L 102.0 108.66666666666667 L 103.0 108.0 L 103.5 107.5 Z" stroke="none" fill="rgb(255,119,0)" />
<path d="M 110.5 78.0 L 110.66666666666667 77.66666666666667 L 111.0 77.0 L 111.0 76.0 L 111.0 75.0 L 111.0 74.0 L 111.0 73.0 L 110.66666666666667 72.0 L 110.33333333333333 71.0 L 110.0 70.0 L 109.66666666666667 69.0 L 109.33333333333333 68.0 L 109.0 67.0 L 108.66666666666667 66.0 L 108.33333333333333 65.0 L 107.66666666666667 64.0 L 107.33333333333333 63.0 L 106.66666666666667 62.0 L 106.0 61.0 L 105.33333333333333 60.0 L 104.66666666666667 59.0 L 104.0 58.0 L 103.0 57.333333333333336 L 102.0 57.0 L 101.33333333333333 57.333333333333336 L 101.0 58.0 L 101.0 59.0 L 101.33333333333333 60.0 L 101.66666666666667 61.0 L 102.33333333333333 62.0 L 103.0 63.0 L 103.66666666666667 64.0 L 104.33333333333333 65.0 L 104.66666666666667 66.0 L 105.33333333333333 67.0 L 105.66666666666667 68.0 L 106.33333333333333 69.0 L 106.66666666666667 70.0 L 107.0 71.0 L 107.33333333333333 72.0 L 107.66666666666667 73.0 L 108.33333333333333 74.0 L 108.66666666666667 75.0 L 109.0 76.0 L 109.33333333333333 77.0 L 109.5 77.5 Z" stroke="none" fill="rgb(250,90,24)" />
<path d="M 110.5 85.0 L 110.66666666666667 84.66666666666667 L 111.33333333333333 84.0 L 111.66666666666667 83.0 L 112.0 82.0 L 112.0 81.0 L 111.66666666666667 80.0 L 111.33333333333333 79.0 L 110.66666666666667 78.0 L 110.0 77.0 L 109.33333333333333 76.0 L 109.0 75.0 L 108.66666666666667 74.0 L 108.33333333333333 73.0 L 107.66666666666667 72.0 L 107.33333333333333 71.0 L 107.0 70.0 L 106.66666666666667 69.0 L 106.33333333333333 68.0 L 105.66666666666667 67.0 L 105.33333333333333 66.0 L 104.66666666666667 65.0 L 104.33333333333333 64.0 L 103.66666666666667 63.0 L 103.0 62.0 L 102.33333333333333 61.0 L 101.66666666666667 60.0 L 101.33333333333333 59.0 L 100.66666666666667 58.333333333333336 L 100.0 58.0 L 99.0 58.333333333333336 L 98.33333333333333 59.0 L 98.0 60.0 L 98.33333333333333 61.0 L 99.0 62.0 L 99.66666666666667 63.0 L 100.33333333333333 64.0 L 100.66666666666667 65.0 L 101.33333333333333 66.0 L 102.0 67.0 L 102.66666666666667 68.0 L 103.33333333333333 69.0 L 103.66666666666667 70.0 L 104.0 71.0 L 104.33333333333333 72.0 L 104.66666666666667 73.0 L 105.33333333333333 74.0 L 105.66666666666667 75.0 L 106.33333333333333 76.0 L 106.66666666666667 77.0 L 107.0 78.0 L 107.33333333333333 79.0 L 107.66666666666667 80.0 L 108.33333333333333 81.0 L 108.66666666666667 82.0 L 109.0 83.0 L 109.33333333333333 84.0 L 109.5 84.5 Z" stroke="none" fill="rgb(251,95,18)" />
<path d="M 33.0 92.5 L 33.0 92.0 L 33.333333333333336 91.0 L 33.666666666666664 90.0 L 34.333333333333336 89.0 L 34.666666666666664 88.0 L 35.333333333333336 87.0 L 35.666666666666664 86.0 L 36.333333333333336 85.0 L 37.0 84.0 L 37.666666666666664 83.0 L 38.333333333333336 82.0 L 39.0 81.0 L 39.666666666666664 80.0 L 40.333333333333336 79.0 L 41.0 78.0 L 42.0 77.0 L 43.0 76.0 L 44.0 75.0 L 45.0 74.0 L 46.0 73.0 L 47.0 72.0 L 48.0 71.33333333333333 L 49.0 70.66666666666667 L 50.0 70.0 L 51.0 69.33333333333333 L 52.0 68.66666666666667 L 53.0 68.33333333333333 L 54.0 68.0 L 54.666666666666664 67.66666666666667 L 55.333333333333336 67.0 L 55.666666666666664 66.0 L 56.333333333333336 65.0 L 56.666666666666664 64.0 L 57.0 63.0 L 56.666666666666664 62.0 L 56.0 61.333333333333336 L 55.0 61.333333333333336 L 54.0 61.666666666666664 L 53.0 62.333333333333336 L 52.0 62.666666666666664 L 51.0 63.0 L 50.0 63.333333333333336 L 49.0 64.0 L 48.0 64.66666666666667 L 47.0 65.33333333333333 L 46.0 66.0 L 45.0 67.0 L 44.0 68.0 L 43.0 68.66666666666667 L 42.0 69.33333333333333 L 41.333333333333336 70.0 L 40.666666666666664 71.0 L 40.0 72.0 L 39.0 73.0 L 38.0 74.0 L 37.333333333333336 75.0 L 36.666666666666664 76.0 L 36.0 77.0 L 35.333333333333336 78.0 L 34.666666666666664 79.0 L 34.0 80.0 L 33.333333333333336 81.0 L 32.666666666666664 82.0 L 32.333333333333336 83.0 L 31.666666666666668 84.0 L 31.333333333333332 85.0 L 31.0 86.0 L 30.666666666666668 87.0 L 30.333333333333332 88.0 L 29.666666666666668 89.0 L 29.333333333333332 90.0 L 29.0 91.0 L 28.666666666666668 92.0 L 28.333333333333332 93.0 L 28.0 94.0 L 27.666666666666668 95.0 L 27.333333333333332 96.0 L 27.0 97.0 L 26.666666666666668 98.0 L 26.333333333333332 99.0 L 26.0 100.0 L 26.0 101.0 L 25.666666666666668 102.0 L 25.333333333333332 103.0 L 25.0 104.0 L 25.333333333333332 105.0 L 26.0 106.0 L 27.0 106.66666666666667 L 28.0 106.66666666666667 L 28.666666666666668 106.0 L 29.0 105.0 L 29.0 104.0 L 29.333333333333332 103.0 L 29.666666666666668 102.0 L 30.0 101.0 L 30.333333333333332 100.0 L 30.666666666666668 99.0 L 31.0 98.0 L 31.333333333333332 97.0 L 31.666666666666668 96.0 L 32.0 95.0 L 32.333333333333336 94.0 L 32.5 93.5 Z" stroke="none" fill="rgb(255,125,0)" />
<path d="M 106.5 82.5 L 106.66666666666667 83.0 L 107.0 84.0 L 107.33333333333333 85.0 L 107.66666666666667 86.0 L 108.0 87.0 L 108.0 88.0 L 108.33333333333333 89.0 L 108.66666666666667 90.0 L 109.0 91.0 L 109.33333333333333 91.66666666666667 L 110.0 92.0 L 110.66666666666667 91.66666666666667 L 111.0 91.0 L 111.0 90.0 L 111.0 89.0 L 111.0 88.0 L 111.0 87.0 L 111.0 86.0 L 110.66666666666667 85.0 L 110.0 84.0 L 109.33333333333333 83.0 L 109.0 82.0 L 108.66666666666667 81.0 L 108.33333333333333 80.0 L 107.66666666666667 79.0 L 107.33333333333333 78.0 L 107.0 77.0 L 106.66666666666667 76.0 L 106.33333333333333 75.0 L 105.66666666666667 74.0 L 105.33333333333333 73.0 L 104.66666666666667 72.0 L 104.33333333333333 71.0 L 104.0 70.0 L 103.66666666666667 69.0 L 103.33333333333333 68.0 L 102.66666666666667 67.0 L 102.0 66.0 L 101.33333333333333 65.0 L 100.66666666666667 64.0 L 100.33333333333333 63.0 L 99.66666666666667 62.0 L 99.0 61.333333333333336 L 98.0 61.0 L 97.33333333333333 61.333333333333336 L 97.0 62.0 L 97.0 63.0 L 97.33333333333333 64.0 L 98.0 65.0 L 98.66666666666667 66.0 L 99.33333333333333 67.0 L 99.66666666666667 68.0 L 100.33333333333333 69.0 L 100.66666666666667 70.0 L 101.33333333333333 71.0 L 101.66666666666667 72.0 L 102.33333333333333 73.0 L 102.66666666666667 74.0 L 103.33333333333333 75.0 L 103.66666666666667 76.0 L 104.33333333333333 77.0 L 104.66666666666667 78.0 L 105.0 79.0 L 105.33333333333333 80.0 L 105.66666666666667 81.0 L 106.0 81.5 Z" stroke="none" fill="rgb(252,99,13)" />
<path d="M 95.5 103.5 L 95.66666666666667 104.0 L 96.0 105.0 L 96.0 106.0 L 96.33333333333333 107.0 L 96.66666666666667 108.0 L 97.0 109.0 L 97.0 110.0 L 97.0 111.0 L 97.33333333333333 111.66666666666667 L 98.0 112.0 L 99.0 111.66666666666667 L 100.0 111.0 L 100.66666666666667 110.0 L 100.66666666666667 109.0 L 100.33333333333333 108.0 L 100.0 107.0 L 100.0 106.0 L 100.0 105.0 L 99.66666666666667 104.0 L 99.33333333333333 103.0 L 99.0 102.0 L 99.0 101.0 L 98.66666666666667 100.0 L 98.33333333333333 99.0 L 98.0 98.0 L 98.0 97.0 L 97.66666666666667 96.0 L 97.33333333333333 95.0 L 97.0 94.0 L 96.66666666666667 93.0 L 96.33333333333333 92.0 L 96.0 91.0 L 95.66666666666667 90.0 L 95.33333333333333 89.0 L 94.66666666666667 88.0 L 94.33333333333333 87.0 L 93.66666666666667 86.0 L 93.33333333333333 85.0 L 92.66666666666667 84.0 L 92.33333333333333 83.0 L 91.66666666666667 82.0 L 91.33333333333333 81.0 L 90.66666666666667 80.0 L 90.33333333333333 79.0 L 89.66666666666667 78.0 L 89.0 77.0 L 88.33333333333333 76.0 L 87.66666666666667 75.0 L 87.0 74.0 L 86.0 73.0 L 85.0 72.0 L 84.0 71.0 L 83.33333333333333 70.0 L 82.66666666666667 69.33333333333333 L 82.0 68.66666666666667 L 81.0 68.0 L 80.0 67.0 L 79.0 66.0 L 78.0 65.33333333333333 L 77.0 64.66666666666667 L 76.0 64.0 L 75.0 63.333333333333336 L 74.0 63.0 L 73.0 63.0 L 72.0 63.0 L 71.33333333333333 63.333333333333336 L 71.0 64.0 L 71.0 65.0 L 71.0 66.0 L 71.33333333333333 67.0 L 72.0 68.0 L 73.0 68.66666666666667 L 74.0 69.33333333333333 L 75.0 70.0 L 76.0 70.66666666666667 L 77.0 71.33333333333333 L 78.0 72.0 L 79.0 73.0 L 80.0 74.0 L 81.0 75.0 L 82.0 76.0 L 83.0 77.0 L 83.66666666666667 78.0 L 84.33333333333333 79.0 L 85.0 80.0 L 86.0 81.0 L 86.66666666666667 82.0 L 87.33333333333333 83.0 L 87.66666666666667 84.0 L 88.33333333333333 85.0 L 89.0 86.0 L 89.66666666666667 87.0 L 90.33333333333333 88.0 L 90.66666666666667 89.0 L 91.0 90.0 L 91.33333333333333 91.0 L 91.66666666666667 92.0 L 92.33333333333333 93.0 L 92.66666666666667 94.0 L 93.0 95.0 L 93.33333333333333 96.0 L 93.66666666666667 97.0 L 94.0 98.0 L 94.33333333333333 99.0 L 94.66666666666667 100.0 L 95.0 101.0 L 95.0 102.0 L 95.0 102.5 Z" stroke="none" fill="rgb(255,125,0)" />
<path d="M 110.0 94.5 L 110.0 94.0 L 110.0 93.0 L 109.66666666666667 92.0 L 109.33333333333333 91.0 L 109.0 90.0 L 108.66666666666667 89.0 L 108.33333333333333 88.0 L 108.0 87.0 L 108.0 86.0 L 107.66666666666667 85.0 L 107.33333333333333 84.0 L 107.0 83.0 L 106.66666666666667 82.0 L 106.33333333333333 81.0 L 105.66666666666667 80.0 L 105.33333333333333 79.0 L 105.0 78.0 L 104.66666666666667 77.0 L 104.33333333333333 76.0 L 103.66666666666667 75.0 L 103.33333333333333 74.0 L 102.66666666666667 73.0 L 102.33333333333333 72.0 L 101.66666666666667 71.0 L 101.33333333333333 70.0 L 100.66666666666667 69.0 L 100.33333333333333 68.0 L 99.66666666666667 67.0 L 99.33333333333333 66.0 L 98.66666666666667 65.0 L 98.0 64.0 L 97.0 63.333333333333336 L 96.0 63.0 L 95.0 63.333333333333336 L 94.33333333333333 64.0 L 94.33333333333333 65.0 L 95.0 66.0 L 95.66666666666667 67.0 L 96.33333333333333 68.0 L 97.0 69.0 L 97.66666666666667 70.0 L 98.33333333333333 71.0 L 98.66666666666667 72.0 L 99.33333333333333 73.0 L 99.66666666666667 74.0 L 100.33333333333333 75.0 L 100.66666666666667 76.0 L 101.33333333333333 77.0 L 101.66666666666667 78.0 L 102.0 79.0 L 102.33333333333333 80.0 L 102.66666666666667 81.0 L 103.33333333333333 82.0 L 103.66666666666667 83.0 L 104.0 84.0 L 104.33333333333333 85.0 L 104.66666666666667 86.0 L 105.0 87.0 L 105.33333333333333 88.0 L 105.66666666666667 89.0 L 106.0 90.0 L 106.33333333333333 91.0 L 106.66666666666667 92.0 L 107.0 93.0 L 107.0 94.0 L 107.33333333333333 95.0 L 108.0 95.66666666666667 L 109.0 95.66666666666667 L 109.5 95.5 Z" stroke="none" fill="rgb(254,103,7)" />
<path d="M 106.5 101.0 L 107.0 100.66666666666667 L 107.66666666666667 100.0 L 108.33333333333333 99.0 L 108.66666666666667 98.0 L 109.0 97.0 L 108.66666666666667 96.0 L 108.0 95.0 L 107.33333333333333 94.0 L 107.0 93.0 L 107.0 92.0 L 106.66666666666667 91.0 L 106.33333333333333 90.0 L 106.0 89.0 L 105.66666666666667 88.0 L 105.33333333333333 87.0 L 105.0 86.0 L 104.66666666666667 85.0 L 104.33333333333333 84.0 L 104.0 83.0 L 103.66666666666667 82.0 L 103.33333333333333 81.0 L 102.66666666666667 80.0 L 102.33333333333333 79.0 L 102.0 78.0 L 101.66666666666667 77.0 L 101.33333333333333 76.0 L 100.66666666666667 75.0 L 100.33333333333333 74.0 L 99.66666666666667 73.0 L 99.33333333333333 72.0 L 98.66666666666667 71.0 L 98.33333333333333 70.0 L 97.66666666666667 69.0 L 97.0 68.0 L 96.33333333333333 67.0 L 95.66666666666667 66.0 L 95.0 65.0 L 94.0 64.33333333333333 L 93.0 64.0 L 92.0 64.0 L 91.33333333333333 64.33333333333333 L 91.0 65.0 L 91.33333333333333 66.0 L 92.0 67.0 L 92.66666666666667 68.0 L 93.33333333333333 69.0 L 93.66666666666667 70.0 L 94.33333333333333 71.0 L 95.0 72.0 L 95.66666666666667 73.0 L 96.33333333333333 74.0 L 96.66666666666667 75.0 L 97.33333333333333 76.0 L 97.66666666666667 77.0 L 98.33333333333333 78.0 L 98.66666666666667 79.0 L 99.33333333333333 80.0 L 99.66666666666667 81.0 L 100.33333333333333 82.0 L 100.66666666666667 83.0 L 101.0 84.0 L 101.33333333333333 85.0 L 101.66666666666667 86.0 L 102.0 87.0 L 102.33333333333333 88.0 L 102.66666666666667 89.0 L 103.0 90.0 L 103.33333333333333 91.0 L 103.66666666666667 92.0 L 104.0 93.0 L 104.33333333333333 94.0 L 104.66666666666667 95.0 L 105.0 96.0 L 105.0 97.0 L 105.0 98.0 L 105.33333333333333 99.0 L 105.66666666666667 100.0 L 106.0 100.5 Z" stroke="none" fill="rgb(255,108,2)" />
<path d="M 33.0 109.5 L 33.0 109.0 L 33.0 108.0 L 33.333333333333336 107.0 L 33.666666666666664 106.0 L 34.0 105.0 L 34.0 104.0 L 34.333333333333336 103.0 L 34.666666666666664 102.0 L 35.0 101.0 L 35.333333333333336 100.0 L 35.666666666666664 99.0 L 36.0 98.0 L 36.333333333333336 97.0 L 36.666666666666664 96.0 L 37.333333333333336 95.0 L 37.666666666666664 94.0 L 38.333333333333336 93.0 L 38.666666666666664 92.0 L 39.333333333333336 91.0 L 39.666666666666664 90.0 L 40.333333333333336 89.0 L 41.0 88.0 L 41.666666666666664 87.0 L 42.333333333333336 86.0 L 43.0 85.0 L 44.0 84.0 L 45.0 83.0 L 46.0 82.0 L 47.0 81.0 L 48.0 80.0 L 49.0 79.0 L 50.0 78.0 L 51.0 77.66666666666667 L 52.0 77.66666666666667 L 52.666666666666664 77.66666666666667 L 53.0 77.0 L 53.0 76.0 L 53.333333333333336 75.0 L 53.666666666666664 74.0 L 54.0 73.0 L 54.0 72.0 L 54.0 71.0 L 54.0 70.0 L 54.0 69.0 L 53.666666666666664 68.33333333333333 L 53.0 68.0 L 52.0 68.33333333333333 L 51.0 68.66666666666667 L 50.0 69.33333333333333 L 49.0 70.0 L 48.0 70.66666666666667 L 47.0 71.33333333333333 L 46.0 72.0 L 45.0 73.0 L 44.0 74.0 L 43.0 75.0 L 42.0 76.0 L 41.0 77.0 L 40.333333333333336 78.0 L 39.666666666666664 79.0 L 39.0 80.0 L 38.333333333333336 81.0 L 37.666666666666664 82.0 L 37.0 83.0 L 36.333333333333336 84.0 L 35.666666666666664 85.0 L 35.333333333333336 86.0 L 34.666666666666664 87.0 L 34.333333333333336 88.0 L 33.666666666666664 89.0 L 33.333333333333336 90.0 L 33.0 91.0 L 32.666666666666664 92.0 L 32.333333333333336 93.0 L 32.0 94.0 L 31.666666666666668 95.0 L 31.333333333333332 96.0 L 31.0 97.0 L 30.666666666666668 98.0 L 30.333333333333332 99.0 L 30.0 100.0 L 29.666666666666668 101.0 L 29.333333333333332 102.0 L 29.0 103.0 L 29.0 104.0 L 28.666666666666668 105.0 L 28.333333333333332 106.0 L 28.0 107.0 L 28.0 108.0 L 28.333333333333332 109.0 L 29.0 110.0 L 30.0 111.0 L 31.0 111.66666666666667 L 31.666666666666668 111.66666666666667 L 32.333333333333336 111.0 L 32.5 110.5 Z" stroke="none" fill="rgb(255,132,0)" />
<path d="M 95.5 115.0 L 96.0 114.66666666666667 L 97.0 114.0 L 97.66666666666667 113.0 L 97.66666666666667 112.0 L 97.33333333333333 111.0 L 97.0 110.0 L 97.0 109.0 L 97.0 108.0 L 96.66666666666667 107.0 L 96.33333333333333 106.0 L 96.0 105.0 L 96.0 104.0 L 95.66666666666667 103.0 L 95.33333333333333 102.0 L 95.0 101.0 L 95.0 100.0 L 94.66666666666667 99.0 L 94.33333333333333 98.0 L 94.0 97.0 L 93.66666666666667 96.0 L 93.33333333333333 95.0 L 93.0 94.0 L 92.66666666666667 93.0 L 92.33333333333333 92.0 L 91.66666666666667 91.0 L 91.33333333333333 90.0 L 91.0 89.0 L 90.66666666666667 88.0 L 90.33333333333333 87.0 L 89.66666666666667 86.0 L 89.0 85.0 L 88.33333333333333 84.0 L 87.66666666666667 83.0 L 87.33333333333333 82.0 L 86.66666666666667 81.0 L 86.0 80.0 L 85.0 79.0 L 84.33333333333333 78.0 L 83.66666666666667 77.0 L 83.0 76.0 L 82.0 75.0 L 81.0 74.0 L 80.0 73.0 L 79.0 72.0 L 78.0 71.33333333333333 L 77.0 70.66666666666667 L 76.0 70.0 L 75.0 69.33333333333333 L 74.0 69.0 L 73.33333333333333 69.33333333333333 L 73.0 70.0 L 73.0 71.0 L 73.0 72.0 L 73.33333333333333 73.0 L 74.0 74.0 L 74.66666666666667 75.0 L 75.0 76.0 L 75.33333333333333 77.0 L 76.0 78.0 L 77.0 79.0 L 77.66666666666667 80.0 L 78.33333333333333 81.0 L 79.0 82.0 L 80.0 83.0 L 81.0 84.0 L 82.0 85.0 L 83.0 86.0 L 83.66666666666667 87.0 L 84.0 88.0 L 84.33333333333333 89.0 L 85.0 90.0 L 85.66666666666667 91.0 L 86.0 92.0 L 86.33333333333333 93.0 L 86.66666666666667 94.0 L 87.33333333333333 95.0 L 87.66666666666667 96.0 L 88.0 97.0 L 88.0 98.0 L 88.33333333333333 99.0 L 88.66666666666667 100.0 L 89.0 101.0 L 89.0 102.0 L 89.33333333333333 102.66666666666667 L 90.0 103.33333333333333 L 90.66666666666667 104.0 L 91.0 105.0 L 91.0 106.0 L 91.33333333333333 107.0 L 91.66666666666667 108.0 L 92.0 109.0 L 92.0 110.0 L 92.0 111.0 L 92.33333333333333 112.0 L 92.66666666666667 113.0 L 93.0 114.0 L 93.33333333333333 114.66666666666667 L 94.0 115.0 L 94.5 115.0 Z" stroke="none" fill="rgb(255,132,0)" />
<path d="M 59.5 82.5 L 60.0 82.66666666666667 L 61.0 83.0 L 62.0 83.0 L 63.0 83.0 L 64.0 83.0 L 65.0 83.0 L 66.0 83.0 L 67.0 83.0 L 68.0 83.0 L 69.0 83.0 L 70.0 83.0 L 71.0 83.0 L 72.0 82.66666666666667 L 73.0 82.33333333333333 L 74.0 81.66666666666667 L 75.0 81.33333333333333 L 76.0 80.66666666666667 L 77.0 80.33333333333333 L 77.66666666666667 79.66666666666667 L 77.66666666666667 79.0 L 77.0 78.0 L 76.0 77.0 L 75.0 76.0 L 74.0 75.33333333333333 L 73.0 75.0 L 72.0 75.0 L 71.0 75.33333333333333 L 70.0 75.66666666666667 L 69.0 76.0 L 68.0 76.0 L 67.0 76.0 L 66.0 76.0 L 65.0 76.0 L 64.0 76.0 L 63.0 76.0 L 62.0 75.66666666666667 L 61.0 75.33333333333333 L 60.0 74.66666666666667 L 59.0 74.0 L 58.0 73.0 L 57.0 72.0 L 56.0 71.33333333333333 L 55.0 71.0 L 54.333333333333336 71.33333333333333 L 54.0 72.0 L 53.666666666666664 73.0 L 53.333333333333336 74.0 L 53.0 75.0 L 53.0 76.0 L 53.0 77.0 L 53.0 78.0 L 53.333333333333336 78.66666666666667 L 54.0 79.33333333333333 L 55.0 79.66666666666667 L 56.0 80.33333333333333 L 57.0 81.0 L 58.0 81.66666666666667 L 58.5 82.0 Z" stroke="none" fill="rgb(255,242,127)" />
<path d="M 40.5 105.0 L 40.666666666666664 104.66666666666667 L 41.0 104.0 L 41.0 103.0 L 41.0 102.0 L 41.0 101.0 L 41.0 100.0 L 41.0 99.0 L 41.0 98.0 L 41.0 97.0 L 41.333333333333336 96.0 L 41.666666666666664 95.0 L 42.0 94.0 L 42.0 93.0 L 42.333333333333336 92.0 L 42.666666666666664 91.0 L 43.0 90.0 L 43.0 89.0 L 43.333333333333336 88.0 L 44.0 87.0 L 45.0 86.66666666666667 L 46.0 87.0 L 47.0 88.0 L 48.0 88.66666666666667 L 49.0 88.66666666666667 L 50.0 88.0 L 51.0 87.0 L 52.0 86.33333333333333 L 52.666666666666664 85.66666666666667 L 53.0 85.0 L 53.0 84.0 L 53.0 83.0 L 53.0 82.0 L 53.0 81.0 L 53.0 80.0 L 53.0 79.0 L 52.666666666666664 78.0 L 52.0 77.33333333333333 L 51.0 77.0 L 50.0 77.33333333333333 L 49.0 78.0 L 48.0 79.0 L 47.0 80.0 L 46.0 81.0 L 45.0 82.0 L 44.0 83.0 L 43.0 84.0 L 42.333333333333336 85.0 L 41.666666666666664 86.0 L 41.0 87.0 L 40.333333333333336 88.0 L 39.666666666666664 89.0 L 39.333333333333336 90.0 L 38.666666666666664 91.0 L 38.333333333333336 92.0 L 37.666666666666664 93.0 L 37.333333333333336 94.0 L 36.666666666666664 95.0 L 36.333333333333336 96.0 L 36.0 97.0 L 35.666666666666664 98.0 L 35.333333333333336 99.0 L 35.0 100.0 L 34.666666666666664 101.0 L 34.333333333333336 102.0 L 34.0 103.0 L 34.0 104.0 L 33.666666666666664 105.0 L 33.333333333333336 106.0 L 33.0 107.0 L 33.0 108.0 L 32.666666666666664 109.0 L 32.333333333333336 110.0 L 32.0 111.0 L 32.0 112.0 L 32.333333333333336 112.66666666666667 L 33.0 113.33333333333333 L 34.0 114.0 L 35.0 114.66666666666667 L 36.0 115.0 L 36.666666666666664 114.66666666666667 L 37.0 114.0 L 37.333333333333336 113.0 L 37.666666666666664 112.0 L 38.0 111.0 L 38.0 110.0 L 38.333333333333336 109.0 L 38.666666666666664 108.0 L 39.0 107.0 L 39.333333333333336 106.0 L 39.5 105.5 Z" stroke="none" fill="rgb(255,140,0)" />
<path d="M 59.5 89.0 L 60.0 89.0 L 61.0 89.33333333333333 L 62.0 89.66666666666667 L 63.0 90.0 L 64.0 90.0 L 65.0 90.0 L 66.0 90.0 L 67.0 90.0 L 68.0 90.0 L 69.0 90.0 L 70.0 89.66666666666667 L 71.0 89.33333333333333 L 72.0 89.0 L 73.0 89.0 L 74.0 88.66666666666667 L 75.0 88.33333333333333 L 76.0 87.66666666666667 L 77.0 87.33333333333333 L 78.0 86.66666666666667 L 79.0 86.0 L 80.0 85.0 L 80.66666666666667 84.0 L 80.66666666666667 83.0 L 80.0 82.0 L 79.0 81.0 L 78.0 80.33333333333333 L 77.0 80.0 L 76.0 80.33333333333333 L 75.0 80.66666666666667 L 74.0 81.33333333333333 L 73.0 81.66666666666667 L 72.0 82.33333333333333 L 71.0 82.66666666666667 L 70.0 83.0 L 69.0 83.0 L 68.0 83.0 L 67.0 83.0 L 66.0 83.0 L 65.0 83.0 L 64.0 83.0 L 63.0 83.0 L 62.0 83.0 L 61.0 82.66666666666667 L 60.0 82.33333333333333 L 59.0 81.66666666666667 L 58.0 81.0 L 57.0 80.33333333333333 L 56.0 79.66666666666667 L 55.0 79.33333333333333 L 54.0 79.0 L 53.333333333333336 79.33333333333333 L 53.0 80.0 L 53.0 81.0 L 53.0 82.0 L 53.0 83.0 L 53.0 84.0 L 53.0 85.0 L 53.333333333333336 86.0 L 54.0 87.0 L 55.0 87.66666666666667 L 56.0 88.0 L 57.0 88.0 L 58.0 88.33333333333333 L 58.5 88.5 Z" stroke="none" fill="rgb(255,243,137)" />
<path d="M 59.5 95.0 L 60.0 95.0 L 61.0 95.0 L 62.0 95.0 L 63.0 95.0 L 64.0 95.0 L 65.0 95.0 L 66.0 95.0 L 67.0 95.0 L 68.0 95.0 L 69.0 95.0 L 70.0 95.0 L 71.0 95.0 L 72.0 95.0 L 73.0 94.66666666666667 L 74.0 94.33333333333333 L 75.0 94.0 L 76.0 93.66666666666667 L 77.0 93.33333333333333 L 78.0 92.66666666666667 L 79.0 92.0 L 80.0 91.33333333333333 L 81.0 90.66666666666667 L 82.0 90.0 L 83.0 89.0 L 83.66666666666667 88.0 L 84.0 87.0 L 83.66666666666667 86.0 L 83.0 85.0 L 82.0 84.33333333333333 L 81.0 84.0 L 80.0 84.33333333333333 L 79.0 85.0 L 78.0 86.0 L 77.0 86.66666666666667 L 76.0 87.33333333333333 L 75.0 87.66666666666667 L 74.0 88.33333333333333 L 73.0 88.66666666666667 L 72.0 89.0 L 71.0 89.0 L 70.0 89.33333333333333 L 69.0 89.66666666666667 L 68.0 90.0 L 67.0 90.0 L 66.0 90.0 L 65.0 90.0 L 64.0 90.0 L 63.0 89.66666666666667 L 62.0 89.33333333333333 L 61.0 89.0 L 60.0 88.66666666666667 L 59.0 88.33333333333333 L 58.0 88.0 L 57.0 88.0 L 56.0 88.0 L 55.333333333333336 88.33333333333333 L 55.0 89.0 L 55.0 90.0 L 55.0 91.0 L 55.0 92.0 L 55.333333333333336 92.66666666666667 L 56.0 93.33333333333333 L 57.0 93.66666666666667 L 58.0 94.33333333333333 L 58.5 94.5 Z" stroke="none" fill="rgb(255,244,148)" />
<path d="M 75.5 99.0 L 76.0 98.66666666666667 L 77.0 98.33333333333333 L 78.0 97.66666666666667 L 79.0 97.33333333333333 L 80.0 96.66666666666667 L 81.0 96.33333333333333 L 82.0 95.66666666666667 L 83.0 95.0 L 84.0 94.0 L 85.0 93.33333333333333 L 85.66666666666667 92.66666666666667 L 86.0 92.0 L 86.0 91.0 L 85.66666666666667 90.0 L 85.0 89.0 L 84.0 88.33333333333333 L 83.0 88.33333333333333 L 82.0 89.0 L 81.0 90.0 L 80.0 90.66666666666667 L 79.0 91.33333333333333 L 78.0 92.0 L 77.0 92.66666666666667 L 76.0 93.33333333333333 L 75.0 93.66666666666667 L 74.0 94.0 L 73.0 94.33333333333333 L 72.0 94.66666666666667 L 71.0 95.0 L 70.0 95.0 L 69.0 95.0 L 68.0 95.0 L 67.0 95.0 L 66.0 95.0 L 65.0 95.0 L 64.0 95.0 L 63.0 95.0 L 62.0 95.0 L 61.0 95.0 L 60.0 94.66666666666667 L 59.0 94.33333333333333 L 58.0 93.66666666666667 L 57.0 93.33333333333333 L 56.0 93.0 L 55.0 93.0 L 54.0 93.0 L 53.0 93.0 L 52.0 92.66666666666667 L 51.0 92.0 L 50.0 91.0 L 49.333333333333336 90.0 L 48.666666666666664 89.0 L 48.0 88.0 L 47.0 87.0 L 46.0 86.33333333333333 L 45.0 86.0 L 44.0 86.33333333333333 L 43.333333333333336 87.0 L 43.0 88.0 L 43.0 89.0 L 43.333333333333336 89.66666666666667 L 44.0 90.33333333333333 L 45.0 91.0 L 46.0 92.0 L 47.0 93.0 L 48.0 94.0 L 49.0 94.66666666666667 L 50.0 95.33333333333333 L 51.0 96.0 L 52.0 96.66666666666667 L 53.0 97.33333333333333 L 54.0 97.66666666666667 L 55.0 98.33333333333333 L 56.0 98.66666666666667 L 57.0 99.0 L 58.0 99.33333333333333 L 59.0 99.66666666666667 L 60.0 100.0 L 61.0 100.0 L 62.0 100.0 L 63.0 100.0 L 64.0 100.0 L 65.0 100.0 L 66.0 100.0 L 67.0 100.0 L 68.0 100.0 L 69.0 100.0 L 70.0 100.0 L 71.0 100.0 L 72.0 100.0 L 73.0 99.66666666666667 L 74.0 99.33333333333333 L 74.5 99.0 Z" stroke="none" fill="rgb(255,244,159)" />
<path d="M 52.5 93.0 L 53.0 93.0 L 54.0 93.0 L 54.666666666666664 92.66666666666667 L 55.0 92.0 L 55.0 91.0 L 55.0 90.0 L 55.0 89.0 L 55.0 88.0 L 54.666666666666664 87.0 L 54.0 86.33333333333333 L 53.0 86.0 L 52.0 86.0 L 51.0 86.33333333333333 L 50.0 87.0 L 49.333333333333336 88.0 L 49.0 89.0 L 49.0 90.0 L 49.333333333333336 91.0 L 50.0 92.0 L 51.0 92.66666666666667 L 51.5 93.0 Z" stroke="none" fill="rgb(255,151,1)" />
<path d="M 84.5 99.0 L 85.0 98.66666666666667 L 86.0 98.0 L 87.0 97.33333333333333 L 87.66666666666667 96.66666666666667 L 88.0 96.0 L 87.66666666666667 95.0 L 87.33333333333333 94.0 L 86.66666666666667 93.33333333333333 L 86.0 93.0 L 85.0 93.0 L 84.0 93.33333333333333 L 83.0 94.0 L 82.0 95.0 L 81.0 95.66666666666667 L 80.0 96.33333333333333 L 79.0 96.66666666666667 L 78.0 97.33333333333333 L 77.0 97.66666666666667 L 76.0 98.33333333333333 L 75.0 98.66666666666667 L 74.0 99.0 L 73.0 99.33333333333333 L 72.0 99.66666666666667 L 71.0 100.0 L 70.0 100.0 L 69.0 100.0 L 68.0 100.0 L 67.0 100.0 L 66.0 100.0 L 65.0 100.0 L 64.0 100.0 L 63.0 100.0 L 62.0 100.0 L 61.0 100.0 L 60.0 99.66666666666667 L 59.0 99.33333333333333 L 58.0 99.0 L 57.0 98.66666666666667 L 56.0 98.33333333333333 L 55.0 97.66666666666667 L 54.0 97.33333333333333 L 53.0 96.66666666666667 L 52.0 96.0 L 51.0 95.33333333333333 L 50.0 94.66666666666667 L 49.0 94.0 L 48.0 93.0 L 47.0 92.0 L 46.0 91.0 L 45.0 90.33333333333333 L 44.0 90.0 L 43.0 90.33333333333333 L 42.333333333333336 91.0 L 42.0 92.0 L 42.0 93.0 L 42.333333333333336 94.0 L 43.0 95.0 L 44.0 96.0 L 45.0 97.0 L 46.0 98.0 L 47.0 98.66666666666667 L 48.0 99.33333333333333 L 49.0 100.0 L 50.0 100.66666666666667 L 51.0 101.33333333333333 L 52.0 101.66666666666667 L 53.0 102.33333333333333 L 54.0 102.66666666666667 L 55.0 103.0 L 56.0 103.33333333333333 L 57.0 103.66666666666667 L 58.0 104.0 L 59.0 104.0 L 60.0 104.33333333333333 L 61.0 104.66666666666667 L 62.0 105.0 L 63.0 105.0 L 64.0 105.0 L 65.0 105.0 L 66.0 105.0 L 67.0 105.0 L 68.0 105.0 L 69.0 105.0 L 70.0 105.0 L 71.0 104.66666666666667 L 72.0 104.33333333333333 L 73.0 104.0 L 74.0 104.0 L 75.0 103.66666666666667 L 76.0 103.33333333333333 L 77.0 103.0 L 78.0 102.66666666666667 L 79.0 102.33333333333333 L 80.0 101.66666666666667 L 81.0 101.33333333333333 L 82.0 100.66666666666667 L 83.0 100.0 L 83.5 99.5 Z" stroke="none" fill="rgb(255,246,170)" />
<path d="M 78.5 107.0 L 79.0 106.66666666666667 L 80.0 106.33333333333333 L 81.0 105.66666666666667 L 82.0 105.33333333333333 L 83.0 104.66666666666667 L 84.0 104.0 L 85.0 103.33333333333333 L 86.0 102.66666666666667 L 87.0 102.66666666666667 L 88.0 102.66666666666667 L 88.66666666666667 102.66666666666667 L 89.0 102.0 L 89.0 101.0 L 89.0 100.0 L 88.66666666666667 99.0 L 88.33333333333333 98.0 L 87.66666666666667 97.33333333333333 L 87.0 97.0 L 86.0 97.33333333333333 L 85.0 98.0 L 84.0 98.66666666666667 L 83.0 99.33333333333333 L 82.0 100.0 L 81.0 100.66666666666667 L 80.0 101.33333333333333 L 79.0 101.66666666666667 L 78.0 102.33333333333333 L 77.0 102.66666666666667 L 76.0 103.0 L 75.0 103.33333333333333 L 74.0 103.66666666666667 L 73.0 104.0 L 72.0 104.0 L 71.0 104.33333333333333 L 70.0 104.66666666666667 L 69.0 105.0 L 68.0 105.0 L 67.0 105.0 L 66.0 105.0 L 65.0 105.0 L 64.0 105.0 L 63.0 105.0 L 62.0 104.66666666666667 L 61.0 104.33333333333333 L 60.0 104.0 L 59.0 104.0 L 58.0 103.66666666666667 L 57.0 103.33333333333333 L 56.0 103.0 L 55.0 102.66666666666667 L 54.0 102.33333333333333 L 53.0 101.66666666666667 L 52.0 101.33333333333333 L 51.0 100.66666666666667 L 50.0 100.0 L 49.0 99.33333333333333 L 48.0 98.66666666666667 L 47.0 98.0 L 46.0 97.0 L 45.0 96.0 L 44.0 95.0 L 43.0 94.33333333333333 L 42.0 94.33333333333333 L 41.333333333333336 95.0 L 41.0 96.0 L 41.0 97.0 L 41.0 98.0 L 41.333333333333336 98.66666666666667 L 42.0 99.33333333333333 L 43.0 100.0 L 44.0 101.0 L 45.0 102.0 L 46.0 102.66666666666667 L 47.0 103.33333333333333 L 48.0 104.0 L 49.0 104.66666666666667 L 50.0 105.33333333333333 L 51.0 105.66666666666667 L 52.0 106.33333333333333 L 53.0 106.66666666666667 L 54.0 107.0 L 55.0 107.33333333333333 L 56.0 107.66666666666667 L 57.0 108.0 L 58.0 108.33333333333333 L 59.0 108.66666666666667 L 60.0 109.0 L 61.0 109.0 L 62.0 109.0 L 63.0 109.0 L 64.0 109.0 L 65.0 109.0 L 66.0 109.0 L 67.0 109.0 L 68.0 109.0 L 69.0 109.0 L 70.0 109.0 L 71.0 109.0 L 72.0 109.0 L 73.0 108.66666666666667 L 74.0 108.33333333333333 L 75.0 108.0 L 76.0 107.66666666666667 L 77.0 107.33333333333333 L 77.5 107.0 Z" stroke="none" fill="rgb(255,247,181)" />
<path d="M 42.5 107.5 L 43.0 108.0 L 44.0 109.0 L 45.0 109.66666666666667 L 46.0 110.0 L 47.0 110.33333333333333 L 48.0 110.66666666666667 L 49.0 111.33333333333333 L 50.0 111.66666666666667 L 51.0 112.33333333333333 L 52.0 112.66666666666667 L 53.0 113.0 L 54.0 113.33333333333333 L 55.0 113.66666666666667 L 56.0 114.0 L 57.0 114.0 L 58.0 114.33333333333333 L 59.0 114.66666666666667 L 60.0 115.0 L 61.0 115.0 L 62.0 115.0 L 63.0 115.0 L 64.0 115.0 L 65.0 115.0 L 66.0 115.0 L 67.0 115.0 L 68.0 115.0 L 69.0 115.0 L 70.0 115.0 L 71.0 115.0 L 72.0 115.0 L 73.0 115.33333333333333 L 74.0 115.66666666666667 L 75.0 116.0 L 75.66666666666667 115.66666666666667 L 76.33333333333333 115.0 L 77.0 114.33333333333333 L 78.0 114.0 L 79.0 113.66666666666667 L 80.0 113.66666666666667 L 81.0 114.0 L 81.66666666666667 115.0 L 82.33333333333333 115.66666666666667 L 83.0 115.66666666666667 L 84.0 115.0 L 85.0 114.0 L 86.0 113.33333333333333 L 86.66666666666667 112.66666666666667 L 87.0 112.0 L 87.0 111.0 L 87.0 110.0 L 87.33333333333333 109.0 L 87.66666666666667 108.0 L 88.0 107.0 L 88.33333333333333 106.0 L 88.66666666666667 105.0 L 89.0 104.0 L 88.66666666666667 103.0 L 88.0 102.33333333333333 L 87.0 102.0 L 86.0 102.33333333333333 L 85.0 102.66666666666667 L 84.0 103.33333333333333 L 83.0 104.0 L 82.0 104.66666666666667 L 81.0 105.33333333333333 L 80.0 105.66666666666667 L 79.0 106.33333333333333 L 78.0 106.66666666666667 L 77.0 107.0 L 76.0 107.33333333333333 L 75.0 107.66666666666667 L 74.0 108.0 L 73.0 108.33333333333333 L 72.0 108.66666666666667 L 71.0 109.0 L 70.0 109.0 L 69.0 109.0 L 68.0 109.0 L 67.0 109.0 L 66.0 109.0 L 65.0 109.0 L 64.0 109.0 L 63.0 109.0 L 62.0 109.0 L 61.0 109.0 L 60.0 108.66666666666667 L 59.0 108.33333333333333 L 58.0 108.0 L 57.0 107.66666666666667 L 56.0 107.33333333333333 L 55.0 107.0 L 54.0 106.66666666666667 L 53.0 106.33333333333333 L 52.0 105.66666666666667 L 51.0 105.33333333333333 L 50.0 104.66666666666667 L 49.0 104.0 L 48.0 103.33333333333333 L 47.0 102.66666666666667 L 46.0 102.0 L 45.0 101.0 L 44.0 100.0 L 43.0 99.33333333333333 L 42.0 99.0 L 41.333333333333336 99.33333333333333 L 41.0 100.0 L 41.0 101.0 L 41.0 102.0 L 41.0 103.0 L 41.0 104.0 L 41.0 105.0 L 41.333333333333336 106.0 L 41.5 106.5 Z" stroke="none" fill="rgb(255,248,191)" />
<path d="M 91.5 117.5 L 92.0 117.33333333333333 L 93.0 116.66666666666667 L 93.66666666666667 116.0 L 93.66666666666667 115.0 L 93.33333333333333 114.0 L 93.0 113.0 L 92.66666666666667 112.0 L 92.33333333333333 111.0 L 92.0 110.0 L 92.0 109.0 L 92.0 108.0 L 91.66666666666667 107.0 L 91.33333333333333 106.0 L 91.0 105.0 L 91.0 104.0 L 90.66666666666667 103.33333333333333 L 90.0 103.0 L 89.33333333333333 103.33333333333333 L 88.66666666666667 104.0 L 88.33333333333333 105.0 L 88.0 106.0 L 87.66666666666667 107.0 L 87.33333333333333 108.0 L 87.0 109.0 L 87.0 110.0 L 87.0 111.0 L 87.0 112.0 L 87.0 113.0 L 87.33333333333333 114.0 L 87.66666666666667 115.0 L 88.0 116.0 L 88.0 117.0 L 88.0 118.0 L 88.33333333333333 118.66666666666667 L 89.0 119.0 L 90.0 118.66666666666667 L 90.5 118.5 Z" stroke="none" fill="rgb(255,140,0)" />
<path d="M 48.5 122.0 L 49.0 122.0 L 50.0 122.33333333333333 L 51.0 122.66666666666667 L 52.0 123.0 L 53.0 123.0 L 54.0 123.0 L 55.0 123.33333333333333 L 56.0 123.66666666666667 L 57.0 124.0 L 58.0 124.0 L 59.0 124.0 L 60.0 124.0 L 61.0 124.0 L 62.0 124.0 L 63.0 124.0 L 64.0 124.0 L 65.0 124.0 L 66.0 124.0 L 67.0 124.0 L 68.0 124.0 L 69.0 124.0 L 70.0 124.0 L 71.0 124.0 L 72.0 124.0 L 73.0 124.0 L 74.0 124.0 L 75.0 124.0 L 76.0 124.0 L 77.0 123.66666666666667 L 78.0 123.33333333333333 L 79.0 123.0 L 80.0 123.0 L 81.0 122.66666666666667 L 82.0 122.33333333333333 L 83.0 121.66666666666667 L 84.0 121.33333333333333 L 85.0 121.0 L 86.0 120.66666666666667 L 87.0 120.33333333333333 L 87.66666666666667 119.66666666666667 L 88.0 119.0 L 88.0 118.0 L 88.0 117.0 L 88.0 116.0 L 88.0 115.0 L 87.66666666666667 114.0 L 87.0 113.33333333333333 L 86.0 113.0 L 85.0 113.33333333333333 L 84.0 114.0 L 83.0 115.0 L 82.0 116.0 L 81.0 117.0 L 80.0 118.0 L 79.0 119.0 L 78.0 119.66666666666667 L 77.0 120.33333333333333 L 76.0 120.66666666666667 L 75.0 121.33333333333333 L 74.0 121.66666666666667 L 73.0 122.0 L 72.0 122.0 L 71.0 122.0 L 70.0 122.0 L 69.0 122.0 L 68.0 122.0 L 67.0 122.0 L 66.0 122.0 L 65.0 122.0 L 64.0 122.0 L 63.0 122.0 L 62.0 122.0 L 61.0 122.0 L 60.0 122.0 L 59.0 121.66666666666667 L 58.0 121.33333333333333 L 57.0 121.0 L 56.0 121.0 L 55.0 120.66666666666667 L 54.0 120.0 L 53.0 119.0 L 52.0 118.0 L 51.0 117.0 L 50.0 116.0 L 49.0 115.0 L 48.0 114.0 L 47.0 113.0 L 46.0 112.0 L 45.333333333333336 111.0 L 44.666666666666664 110.0 L 44.0 109.0 L 43.333333333333336 108.0 L 42.666666666666664 107.0 L 42.0 106.0 L 41.0 105.33333333333333 L 40.0 105.0 L 39.333333333333336 105.33333333333333 L 39.0 106.0 L 38.666666666666664 107.0 L 38.333333333333336 108.0 L 38.0 109.0 L 38.0 110.0 L 37.666666666666664 111.0 L 37.333333333333336 112.0 L 37.0 113.0 L 37.0 114.0 L 37.0 115.0 L 37.333333333333336 116.0 L 38.0 117.0 L 39.0 117.66666666666667 L 40.0 118.33333333333333 L 41.0 118.66666666666667 L 42.0 119.33333333333333 L 43.0 119.66666666666667 L 44.0 120.33333333333333 L 45.0 120.66666666666667 L 46.0 121.0 L 47.0 121.33333333333333 L 47.5 121.5 Z" stroke="none" fill="rgb(255,151,1)" />
<path d="M 43.5 109.0 L 43.666666666666664 108.66666666666667 L 43.666666666666664 108.33333333333333 L 43.333333333333336 108.33333333333333 L 43.0 108.5 Z" stroke="none" fill="rgb(255,228,143)" />
<path d="M 45.0 109.5 L 44.666666666666664 109.33333333333333 L 44.333333333333336 109.33333333333333 L 44.333333333333336 109.66666666666667 L 44.5 110.0 Z" stroke="none" fill="rgb(255,228,143)" />
<path d="M 52.5 119.5 L 53.0 120.0 L 54.0 120.66666666666667 L 55.0 121.0 L 56.0 121.0 L 57.0 121.33333333333333 L 58.0 121.66666666666667 L 59.0 122.0 L 60.0 122.0 L 61.0 122.0 L 62.0 122.0 L 63.0 122.0 L 64.0 122.0 L 65.0 122.0 L 66.0 122.0 L 67.0 122.0 L 68.0 122.0 L 69.0 122.0 L 70.0 122.0 L 71.0 122.0 L 72.0 122.0 L 73.0 122.0 L 74.0 122.0 L 74.66666666666667 121.66666666666667 L 75.0 121.0 L 75.0 120.0 L 75.0 119.0 L 74.66666666666667 118.0 L 74.33333333333333 117.0 L 74.0 116.0 L 73.66666666666667 115.33333333333333 L 73.0 115.0 L 72.0 115.0 L 71.0 115.0 L 70.0 115.0 L 69.0 115.0 L 68.0 115.0 L 67.0 115.0 L 66.0 115.0 L 65.0 115.0 L 64.0 115.0 L 63.0 115.0 L 62.0 115.0 L 61.0 115.0 L 60.0 114.66666666666667 L 59.0 114.33333333333333 L 58.0 114.0 L 57.0 114.0 L 56.0 113.66666666666667 L 55.0 113.33333333333333 L 54.0 113.0 L 53.0 112.66666666666667 L 52.0 112.33333333333333 L 51.0 111.66666666666667 L 50.0 111.33333333333333 L 49.0 110.66666666666667 L 48.0 110.33333333333333 L 47.0 110.0 L 46.0 110.0 L 45.333333333333336 110.33333333333333 L 45.0 111.0 L 45.333333333333336 112.0 L 46.0 113.0 L 47.0 114.0 L 48.0 115.0 L 49.0 116.0 L 50.0 117.0 L 51.0 118.0 L 51.5 118.5 Z" stroke="none" fill="rgb(255,228,143)" />
<path d="M 78.5 118.5 L 79.0 118.66666666666667 L 80.0 118.66666666666667 L 81.0 118.0 L 81.66666666666667 117.0 L 82.0 116.0 L 81.66666666666667 115.0 L 81.33333333333333 114.0 L 80.66666666666667 113.33333333333333 L 80.0 113.0 L 79.0 113.33333333333333 L 78.0 113.66666666666667 L 77.0 114.0 L 76.33333333333333 114.33333333333333 L 76.0 115.0 L 76.33333333333333 116.0 L 77.0 117.0 L 77.5 117.5 Z" stroke="none" fill="rgb(255,228,143)" />
<path d="M 81.5 115.0 L 81.66666666666667 114.66666666666667 L 81.66666666666667 114.33333333333333 L 81.33333333333333 114.33333333333333 L 81.0 114.5 Z" stroke="none" fill="rgb(255,212,102)" />
<path d="M 75.5 119.0 L 76.0 119.0 L 77.0 119.33333333333333 L 78.0 119.66666666666667 L 78.66666666666667 119.66666666666667 L 79.0 119.0 L 78.66666666666667 118.0 L 78.0 117.0 L 77.0 116.33333333333333 L 76.0 116.0 L 75.0 116.0 L 74.33333333333333 116.33333333333333 L 74.0 117.0 L 74.33333333333333 118.0 L 74.5 118.5 Z" stroke="none" fill="rgb(255,212,102)" />
<path d="M 76.5 121.0 L 77.0 120.66666666666667 L 77.66666666666667 120.0 L 77.66666666666667 119.33333333333333 L 77.0 119.0 L 76.0 119.0 L 75.33333333333333 119.33333333333333 L 75.0 120.0 L 75.33333333333333 120.66666666666667 L 75.5 121.0 Z" stroke="none" fill="rgb(255,172,39)" />
</svg>
