<?xml version="1.0" encoding="UTF-8" standalone="no"?>
<!DOCTYPE svg PUBLIC "-//W3C//DTD SVG 1.1//EN"
"http://www.w3.org/Graphics/SVG/1.1/DTD/svg11.dtd">
<svg width="128" height="128" xmlns="http://www.w3.org/2000/svg" version="1.1">
<path d="M 88.5 128.0 L 89.0 128.0 L 90.0 128.0 L 91.0 128.0 L 92.0 128.0 L 93.0 128.0 L 94.0 128.0 L 95.0 128.0 L 96.0 128.0 L 97.0 128.0 L 98.0 128.0 L 99.0 128.0 L 100.0 128.0 L 101.0 128.0 L 102.0 128.0 L 103.0 128.0 L 104.0 128.0 L 105.0 128.0 L 106.0 128.0 L 107.0 128.0 L 108.0 128.0 L 109.0 128.0 L 110.0 128.0 L 111.0 128.0 L 112.0 128.0 L 113.0 128.0 L 114.0 128.0 L 115.0 128.0 L 116.0 128.0 L 117.0 128.0 L 118.0 128.0 L 119.0 128.0 L 120.0 128.0 L 121.0 128.0 L 122.0 128.0 L 123.0 128.0 L 124.0 128.0 L 125.0 128.0 L 126.0 128.0 L 127.0 128.0 L 127.66666666666667 127.66666666666667 L 128.0 127.0 L 128.0 126.0 L 128.0 125.0 L 128.0 124.0 L 128.0 123.0 L 128.0 122.0 L 128.0 121.0 L 128.0 120.0 L 128.0 119.0 L 128.0 118.0 L 128.0 117.0 L 128.0 116.0 L 128.0 115.0 L 128.0 114.0 L 128.0 113.0 L 128.0 112.0 L 128.0 111.0 L 128.0 110.0 L 128.0 109.0 L 128.0 108.0 L 128.0 107.0 L 128.0 106.0 L 128.0 105.0 L 128.0 104.0 L 128.0 103.0 L 128.0 102.0 L 128.0 101.0 L 128.0 100.0 L 128.0 99.0 L 128.0 98.0 L 128.0 97.0 L 128.0 96.0 L 128.0 95.0 L 128.0 94.0 L 128.0 93.0 L 128.0 92.0 L 128.0 91.0 L 128.0 90.0 L 128.0 89.0 L 128.0 88.0 L 128.0 87.0 L 128.0 86.0 L 128.0 85.0 L 128.0 84.0 L 128.0 83.0 L 128.0 82.0 L 128.0 81.0 L 128.0 80.0 L 128.0 79.0 L 128.0 78.0 L 128.0 77.0 L 128.0 76.0 L 128.0 75.0 L 128.0 74.0 L 128.0 73.0 L 128.0 72.0 L 128.0 71.0 L 128.0 70.0 L 128.0 69.0 L 128.0 68.0 L 128.0 67.0 L 128.0 66.0 L 128.0 65.0 L 128.0 64.0 L 128.0 63.0 L 128.0 62.0 L 128.0 61.0 L 128.0 60.0 L 128.0 59.0 L 128.0 58.0 L 128.0 57.0 L 128.0 56.0 L 128.0 55.0 L 128.0 54.0 L 128.0 53.0 L 128.0 52.0 L 128.0 51.0 L 128.0 50.0 L 128.0 49.0 L 128.0 48.0 L 128.0 47.0 L 128.0 46.0 L 128.0 45.0 L 128.0 44.0 L 128.0 43.0 L 128.0 42.0 L 128.0 41.0 L 128.0 40.0 L 128.0 39.0 L 128.0 38.0 L 128.0 37.0 L 128.0 36.0 L 128.0 35.0 L 128.0 34.0 L 128.0 33.0 L 128.0 32.0 L 128.0 31.0 L 128.0 30.0 L 128.0 29.0 L 128.0 28.0 L 128.0 27.0 L 128.0 26.0 L 128.0 25.0 L 128.0 24.0 L 128.0 23.0 L 128.0 22.0 L 128.0 21.0 L 128.0 20.0 L 128.0 19.0 L 128.0 18.0 L 128.0 17.0 L 128.0 16.0 L 128.0 15.0 L 128.0 14.0 L 128.0 13.0 L 128.0 12.0 L 128.0 11.0 L 128.0 10.0 L 128.0 9.0 L 128.0 8.0 L 128.0 7.0 L 128.0 6.0 L 128.0 5.0 L 128.0 4.0 L 128.0 3.0 L 128.0 2.0 L 128.0 1.0 L 127.66666666666667 0.3333333333333333 L 127.0 0.0 L 126.0 0.0 L 125.0 0.0 L 124.0 0.0 L 123.0 0.0 L 122.0 0.0 L 121.0 0.0 L 120.0 0.0 L 119.0 0.0 L 118.0 0.0 L 117.0 0.0 L 116.0 0.0 L 115.0 0.0 L 114.0 0.0 L 113.0 0.0 L 112.0 0.0 L 111.0 0.0 L 110.0 0.0 L 109.0 0.0 L 108.0 0.0 L 107.0 0.0 L 106.0 0.0 L 105.0 0.0 L 104.0 0.0 L 103.0 0.0 L 102.0 0.0 L 101.0 0.0 L 100.0 0.0 L 99.0 0.0 L 98.0 0.0 L 97.0 0.0 L 96.0 0.0 L 95.0 0.0 L 94.0 0.0 L 93.0 0.0 L 92.0 0.0 L 91.0 0.0 L 90.0 0.0 L 89.0 0.0 L 88.0 0.0 L 87.0 0.0 L 86.0 0.0 L 85.0 0.0 L 84.0 0.0 L 83.0 0.0 L 82.0 0.0 L 81.0 0.0 L 80.0 0.0 L 79.0 0.0 L 78.0 0.0 L 77.0 0.0 L 76.0 0.0 L 75.0 0.0 L 74.0 0.0 L 73.0 0.0 L 72.0 0.0 L 71.0 0.0 L 70.0 0.0 L 69.0 0.0 L 68.0 0.0 L 67.0 0.0 L 66.0 0.0 L 65.0 0.0 L 64.0 0.0 L 63.0 0.0 L 62.0 0.0 L 61.0 0.0 L 60.0 0.0 L 59.0 0.0 L 58.0 0.0 L 57.0 0.0 L 56.0 0.0 L 55.0 0.0 L 54.0 0.0 L 53.0 0.0 L 52.0 0.0 L 51.0 0.0 L 50.0 0.0 L 49.0 0.0 L 48.0 0.0 L 47.0 0.0 L 46.0 0.0 L 45.0 0.0 L 44.0 0.0 L 43.0 0.0 L 42.0 0.0 L 41.0 0.0 L 40.0 0.0 L 39.0 0.0 L 38.0 0.0 L 37.0 0.0 L 36.0 0.0 L 35.0 0.0 L 34.0 0.0 L 33.0 0.0 L 32.0 0.0 L 31.0 0.0 L 30.0 0.0 L 29.0 0.0 L 28.0 0.0 L 27.0 0.0 L 26.0 0.0 L 25.0 0.0 L 24.0 0.0 L 23.0 0.0 L 22.0 0.0 L 21.0 0.0 L 20.0 0.0 L 19.0 0.0 L 18.0 0.0 L 17.0 0.0 L 16.0 0.0 L 15.0 0.0 L 14.0 0.0 L 13.0 0.0 L 12.0 0.0 L 11.0 0.0 L 10.0 0.0 L 9.0 0.0 L 8.0 0.0 L 7.0 0.0 L 6.0 0.0 L 5.0 0.0 L 4.0 0.0 L 3.0 0.0 L 2.0 0.0 L 1.0 0.0 L 0.3333333333333333 0.3333333333333333 L 0.0 1.0 L 0.0 2.0 L 0.0 3.0 L 0.0 4.0 L 0.0 5.0 L 0.0 6.0 L 0.0 7.0 L 0.0 8.0 L 0.0 9.0 L 0.0 10.0 L 0.0 11.0 L 0.0 12.0 L 0.0 13.0 L 0.0 14.0 L 0.0 15.0 L 0.0 16.0 L 0.0 17.0 L 0.0 18.0 L 0.0 19.0 L 0.0 20.0 L 0.0 21.0 L 0.0 22.0 L 0.0 23.0 L 0.0 24.0 L 0.0 25.0 L 0.0 26.0 L 0.0 27.0 L 0.0 28.0 L 0.0 29.0 L 0.0 30.0 L 0.0 31.0 L 0.0 32.0 L 0.0 33.0 L 0.0 34.0 L 0.0 35.0 L 0.0 36.0 L 0.0 37.0 L 0.0 38.0 L 0.0 39.0 L 0.0 40.0 L 0.0 41.0 L 0.0 42.0 L 0.0 43.0 L 0.0 44.0 L 0.0 45.0 L 0.0 46.0 L 0.0 47.0 L 0.0 48.0 L 0.0 49.0 L 0.0 50.0 L 0.0 51.0 L 0.0 52.0 L 0.0 53.0 L 0.0 54.0 L 0.0 55.0 L 0.0 56.0 L 0.0 57.0 L 0.0 58.0 L 0.0 59.0 L 0.0 60.0 L 0.0 61.0 L 0.0 62.0 L 0.0 63.0 L 0.0 64.0 L 0.0 65.0 L 0.0 66.0 L 0.0 67.0 L 0.0 68.0 L 0.0 69.0 L 0.0 70.0 L 0.0 71.0 L 0.0 72.0 L 0.0 73.0 L 0.0 74.0 L 0.0 75.0 L 0.0 76.0 L 0.0 77.0 L 0.0 78.0 L 0.0 79.0 L 0.0 80.0 L 0.0 81.0 L 0.0 82.0 L 0.0 83.0 L 0.0 84.0 L 0.0 85.0 L 0.0 86.0 L 0.0 87.0 L 0.0 88.0 L 0.0 89.0 L 0.0 90.0 L 0.0 91.0 L 0.0 92.0 L 0.0 93.0 L 0.0 94.0 L 0.0 95.0 L 0.0 96.0 L 0.0 97.0 L 0.0 98.0 L 0.0 99.0 L 0.0 100.0 L 0.0 101.0 L 0.0 102.0 L 0.0 103.0 L 0.0 104.0 L 0.0 105.0 L 0.0 106.0 L 0.0 107.0 L 0.0 108.0 L 0.0 109.0 L 0.0 110.0 L 0.0 111.0 L 0.0 112.0 L 0.0 113.0 L 0.0 114.0 L 0.0 115.0 L 0.0 116.0 L 0.0 117.0 L 0.0 118.0 L 0.0 119.0 L 0.0 120.0 L 0.0 121.0 L 0.0 122.0 L 0.0 123.0 L 0.0 124.0 L 0.0 125.0 L 0.0 126.0 L 0.0 127.0 L 0.3333333333333333 127.66666666666667 L 1.0 128.0 L 2.0 128.0 L 3.0 128.0 L 4.0 128.0 L 5.0 128.0 L 6.0 128.0 L 7.0 128.0 L 8.0 128.0 L 9.0 128.0 L 10.0 128.0 L 11.0 128.0 L 12.0 128.0 L 13.0 128.0 L 14.0 128.0 L 15.0 128.0 L 16.0 128.0 L 17.0 128.0 L 18.0 128.0 L 19.0 128.0 L 20.0 128.0 L 21.0 128.0 L 22.0 128.0 L 23.0 128.0 L 24.0 128.0 L 25.0 128.0 L 26.0 128.0 L 27.0 128.0 L 28.0 128.0 L 29.0 128.0 L 30.0 128.0 L 31.0 128.0 L 32.0 128.0 L 33.0 128.0 L 34.0 128.0 L 35.0 128.0 L 36.0 128.0 L 37.0 128.0 L 38.0 128.0 L 39.0 128.0 L 40.0 128.0 L 41.0 128.0 L 42.0 128.0 L 43.0 128.0 L 44.0 128.0 L 45.0 128.0 L 46.0 128.0 L 47.0 128.0 L 48.0 128.0 L 49.0 128.0 L 50.0 128.0 L 51.0 128.0 L 52.0 128.0 L 53.0 128.0 L 54.0 128.0 L 55.0 128.0 L 56.0 128.0 L 57.0 128.0 L 58.0 128.0 L 59.0 128.0 L 60.0 128.0 L 61.0 128.0 L 62.0 128.0 L 63.0 128.0 L 64.0 128.0 L 65.0 128.0 L 66.0 128.0 L 67.0 128.0 L 68.0 128.0 L 69.0 128.0 L 70.0 128.0 L 71.0 128.0 L 72.0 128.0 L 73.0 128.0 L 74.0 128.0 L 75.0 128.0 L 76.0 128.0 L 77.0 128.0 L 78.0 128.0 L 79.0 128.0 L 80.0 128.0 L 81.0 128.0 L 82.0 128.0 L 83.0 128.0 L 84.0 128.0 L 85.0 128.0 L 86.0 128.0 L 87.0 128.0 L 87.5 128.0 Z" stroke="none" fill="rgb(255,255,255)" />
<path d="M 55.5 77.0 L 56.0 77.0 L 57.0 77.0 L 58.0 77.0 L 59.0 77.0 L 60.0 77.0 L 61.0 77.0 L 62.0 76.66666666666667 L 63.0 76.33333333333333 L 64.0 76.0 L 65.0 76.0 L 66.0 76.0 L 67.0 76.0 L 68.0 76.0 L 68.66666666666667 75.66666666666667 L 69.0 75.0 L 69.0 74.0 L 69.0 73.0 L 69.0 72.0 L 69.0 71.0 L 69.33333333333333 70.0 L 70.0 69.33333333333333 L 70.66666666666667 68.66666666666667 L 71.0 68.0 L 71.0 67.0 L 71.0 66.0 L 71.0 65.0 L 71.0 64.0 L 71.0 63.0 L 71.0 62.0 L 71.0 61.0 L 71.0 60.0 L 71.0 59.0 L 71.0 58.0 L 71.0 57.0 L 71.0 56.0 L 71.0 55.0 L 71.0 54.0 L 71.0 53.0 L 71.0 52.0 L 71.0 51.0 L 71.0 50.0 L 71.0 49.0 L 71.0 48.0 L 71.0 47.0 L 71.0 46.0 L 71.0 45.0 L 71.0 44.0 L 71.0 43.0 L 71.0 42.0 L 70.66666666666667 41.0 L 70.0 40.333333333333336 L 69.0 40.0 L 68.0 40.0 L 67.0 40.0 L 66.0 40.0 L 65.0 40.0 L 64.0 40.0 L 63.0 40.0 L 62.0 40.0 L 61.0 40.0 L 60.0 40.0 L 59.0 40.0 L 58.0 40.0 L 57.0 40.0 L 56.0 40.0 L 55.0 40.0 L 54.0 40.0 L 53.0 40.0 L 52.0 40.0 L 51.0 40.0 L 50.0 40.0 L 49.0 40.0 L 48.0 40.0 L 47.0 40.0 L 46.0 40.0 L 45.0 40.333333333333336 L 44.0 40.666666666666664 L 43.0 41.333333333333336 L 42.0 41.666666666666664 L 41.0 42.333333333333336 L 40.0 43.0 L 39.0 44.0 L 38.0 45.0 L 37.0 46.0 L 36.0 47.0 L 35.333333333333336 48.0 L 34.666666666666664 49.0 L 34.333333333333336 50.0 L 33.666666666666664 51.0 L 33.333333333333336 52.0 L 32.666666666666664 53.0 L 32.333333333333336 54.0 L 31.666666666666668 55.0 L 31.0 56.0 L 30.333333333333332 57.0 L 29.666666666666668 58.0 L 29.333333333333332 59.0 L 28.666666666666668 60.0 L 28.333333333333332 61.0 L 27.666666666666668 62.0 L 27.333333333333332 63.0 L 26.666666666666668 64.0 L 26.333333333333332 65.0 L 25.666666666666668 66.0 L 25.0 67.0 L 24.0 67.66666666666667 L 23.0 68.0 L 22.0 68.0 L 21.0 68.0 L 20.0 68.0 L 19.0 68.0 L 18.0 68.0 L 17.0 68.0 L 16.0 68.0 L 15.0 68.0 L 14.0 68.0 L 13.0 68.0 L 12.0 68.0 L 11.0 68.0 L 10.0 68.0 L 9.0 68.0 L 8.0 68.0 L 7.0 68.0 L 6.0 68.33333333333333 L 5.0 69.0 L 4.0 70.0 L 3.3333333333333335 71.0 L 3.0 72.0 L 3.0 73.0 L 3.0 74.0 L 3.3333333333333335 75.0 L 4.0 76.0 L 4.666666666666667 77.0 L 5.333333333333333 77.66666666666667 L 6.0 78.0 L 7.0 78.0 L 7.666666666666667 77.66666666666667 L 8.333333333333334 77.0 L 9.0 76.33333333333333 L 10.0 76.0 L 11.0 76.0 L 12.0 76.0 L 13.0 76.0 L 14.0 76.0 L 15.0 76.0 L 16.0 76.0 L 17.0 76.0 L 18.0 76.0 L 19.0 76.0 L 20.0 76.0 L 21.0 76.0 L 22.0 76.0 L 23.0 76.0 L 24.0 76.0 L 25.0 76.0 L 26.0 76.0 L 27.0 76.0 L 28.0 76.0 L 29.0 76.0 L 30.0 76.0 L 31.0 76.0 L 32.0 76.0 L 33.0 76.0 L 34.0 76.0 L 35.0 76.0 L 36.0 76.0 L 37.0 76.0 L 38.0 76.0 L 39.0 76.0 L 40.0 76.0 L 41.0 76.0 L 42.0 76.0 L 43.0 76.0 L 44.0 76.0 L 45.0 76.0 L 46.0 76.0 L 47.0 76.0 L 48.0 76.0 L 49.0 76.0 L 50.0 76.33333333333333 L 51.0 76.66666666666667 L 52.0 77.0 L 53.0 77.0 L 54.0 77.0 L 54.5 77.0 Z" stroke="none" fill="rgb(255,81,23)" />
<path d="M 68.0 105.5 L 68.0 105.0 L 68.0 104.0 L 68.0 103.0 L 68.0 102.0 L 68.0 101.0 L 68.0 100.0 L 68.0 99.0 L 68.0 98.0 L 68.0 97.0 L 68.0 96.0 L 68.0 95.0 L 68.0 94.0 L 68.0 93.0 L 68.0 92.0 L 68.0 91.0 L 68.0 90.0 L 68.0 89.0 L 68.0 88.0 L 68.0 87.0 L 68.0 86.0 L 68.0 85.0 L 68.0 84.0 L 68.0 83.0 L 68.0 82.0 L 68.0 81.0 L 68.0 80.0 L 68.0 79.0 L 68.0 78.0 L 68.0 77.0 L 67.66666666666667 76.33333333333333 L 67.0 76.0 L 66.0 76.0 L 65.0 76.0 L 64.0 76.0 L 63.0 76.0 L 62.333333333333336 76.33333333333333 L 62.0 77.0 L 62.0 78.0 L 61.666666666666664 79.0 L 61.0 80.0 L 60.0 80.66666666666667 L 59.0 81.0 L 58.0 81.0 L 57.0 81.0 L 56.0 81.0 L 55.0 81.0 L 54.0 81.0 L 53.0 80.66666666666667 L 52.333333333333336 80.0 L 52.0 79.0 L 52.0 78.0 L 51.666666666666664 77.0 L 51.0 76.33333333333333 L 50.0 76.0 L 49.0 76.0 L 48.0 76.0 L 47.0 76.0 L 46.0 76.0 L 45.0 76.0 L 44.0 76.0 L 43.0 76.0 L 42.0 76.0 L 41.0 76.0 L 40.0 76.0 L 39.0 76.0 L 38.0 76.0 L 37.0 76.0 L 36.0 76.0 L 35.0 76.0 L 34.0 76.0 L 33.0 76.0 L 32.0 76.0 L 31.0 76.0 L 30.0 76.0 L 29.0 76.0 L 28.0 76.0 L 27.0 76.0 L 26.0 76.0 L 25.0 76.0 L 24.0 76.0 L 23.0 76.0 L 22.0 76.0 L 21.0 76.0 L 20.0 76.0 L 19.0 76.0 L 18.0 76.0 L 17.0 76.0 L 16.0 76.0 L 15.0 76.0 L 14.0 76.0 L 13.0 76.0 L 12.0 76.0 L 11.0 76.0 L 10.0 76.0 L 9.0 76.0 L 8.333333333333334 76.33333333333333 L 8.0 77.0 L 8.0 78.0 L 8.333333333333334 79.0 L 8.666666666666666 80.0 L 9.0 81.0 L 9.0 82.0 L 9.0 83.0 L 9.0 84.0 L 9.0 85.0 L 9.0 86.0 L 9.0 87.0 L 9.0 88.0 L 8.666666666666666 89.0 L 8.0 90.0 L 7.0 90.66666666666667 L 6.0 91.0 L 5.0 91.0 L 4.0 91.0 L 3.3333333333333335 91.33333333333333 L 3.0 92.0 L 3.0 93.0 L 3.0 94.0 L 3.0 95.0 L 3.0 96.0 L 3.0 97.0 L 3.3333333333333335 98.0 L 4.0 98.66666666666667 L 5.0 99.0 L 6.0 99.0 L 7.0 99.0 L 8.0 99.0 L 9.0 99.0 L 10.0 99.0 L 11.0 99.0 L 12.0 99.0 L 13.0 99.0 L 14.0 99.0 L 15.0 99.33333333333333 L 16.0 99.66666666666667 L 17.0 99.66666666666667 L 17.666666666666668 99.0 L 18.0 98.0 L 18.333333333333332 97.0 L 19.0 96.0 L 20.0 95.33333333333333 L 21.0 95.0 L 22.0 94.66666666666667 L 23.0 94.33333333333333 L 24.0 94.0 L 25.0 94.0 L 26.0 94.0 L 27.0 94.0 L 28.0 94.0 L 29.0 94.0 L 30.0 94.0 L 31.0 94.0 L 32.0 94.0 L 33.0 94.0 L 34.0 94.0 L 35.0 94.0 L 36.0 94.33333333333333 L 37.0 94.66666666666667 L 38.0 95.33333333333333 L 39.0 96.0 L 40.0 97.0 L 40.666666666666664 98.0 L 41.333333333333336 99.0 L 42.0 100.0 L 42.666666666666664 101.0 L 43.333333333333336 102.0 L 43.666666666666664 103.0 L 44.333333333333336 104.0 L 45.0 105.0 L 46.0 105.66666666666667 L 47.0 106.0 L 48.0 106.0 L 49.0 106.0 L 50.0 106.0 L 51.0 106.0 L 52.0 106.0 L 53.0 106.0 L 54.0 106.0 L 55.0 106.0 L 56.0 106.0 L 57.0 106.0 L 58.0 106.0 L 59.0 106.0 L 60.0 106.0 L 61.0 106.0 L 62.0 106.0 L 63.0 106.0 L 64.0 106.0 L 65.0 106.0 L 66.0 106.0 L 67.0 106.0 L 67.5 106.0 Z" stroke="none" fill="rgb(238,62,35)" />
<path d="M 72.5 106.0 L 73.0 106.0 L 74.0 106.0 L 75.0 106.0 L 76.0 106.0 L 77.0 106.0 L 78.0 106.0 L 79.0 106.0 L 80.0 106.0 L 81.0 106.0 L 82.0 106.0 L 83.0 106.0 L 84.0 106.0 L 85.0 106.0 L 86.0 106.0 L 87.0 106.0 L 87.66666666666667 105.66666666666667 L 88.0 105.0 L 88.33333333333333 104.0 L 88.66666666666667 103.0 L 89.0 102.0 L 89.33333333333333 101.0 L 89.66666666666667 100.0 L 90.33333333333333 99.0 L 90.66666666666667 98.0 L 91.33333333333333 97.0 L 92.0 96.0 L 93.0 95.33333333333333 L 94.0 95.0 L 95.0 95.0 L 96.0 95.0 L 97.0 95.0 L 98.0 95.33333333333333 L 99.0 95.66666666666667 L 100.0 96.0 L 101.0 96.0 L 102.0 96.0 L 103.0 96.0 L 104.0 96.0 L 105.0 96.0 L 106.0 96.0 L 107.0 95.66666666666667 L 108.0 95.33333333333333 L 109.0 95.0 L 110.0 95.0 L 111.0 95.0 L 112.0 95.33333333333333 L 113.0 96.0 L 114.0 97.0 L 114.66666666666667 98.0 L 115.0 99.0 L 115.33333333333333 100.0 L 115.66666666666667 101.0 L 116.0 102.0 L 116.0 103.0 L 116.33333333333333 104.0 L 117.0 105.0 L 118.0 105.66666666666667 L 119.0 106.0 L 119.66666666666667 105.66666666666667 L 120.33333333333333 105.0 L 120.66666666666667 104.0 L 121.0 103.0 L 121.0 102.0 L 121.0 101.0 L 121.33333333333333 100.0 L 122.0 99.0 L 122.66666666666667 98.0 L 123.0 97.0 L 123.0 96.0 L 123.0 95.0 L 123.0 94.0 L 123.0 93.0 L 122.66666666666667 92.0 L 122.0 91.33333333333333 L 121.0 91.0 L 120.0 90.66666666666667 L 119.33333333333333 90.0 L 119.0 89.0 L 119.0 88.0 L 119.0 87.0 L 119.0 86.0 L 119.0 85.0 L 119.0 84.0 L 119.0 83.0 L 119.0 82.0 L 119.0 81.0 L 119.0 80.0 L 119.0 79.0 L 119.0 78.0 L 118.66666666666667 77.0 L 118.0 76.33333333333333 L 117.0 76.0 L 116.0 76.0 L 115.0 76.0 L 114.0 76.0 L 113.0 76.0 L 112.0 76.0 L 111.0 76.0 L 110.0 76.0 L 109.0 76.0 L 108.0 76.0 L 107.0 76.0 L 106.0 76.0 L 105.0 76.0 L 104.0 76.0 L 103.0 76.0 L 102.0 76.0 L 101.0 76.0 L 100.0 76.0 L 99.0 76.0 L 98.0 76.0 L 97.0 76.0 L 96.0 76.0 L 95.0 76.0 L 94.0 76.0 L 93.0 76.0 L 92.0 76.0 L 91.0 76.0 L 90.0 76.0 L 89.0 76.0 L 88.0 76.0 L 87.0 76.0 L 86.0 76.0 L 85.0 76.0 L 84.0 76.0 L 83.0 76.0 L 82.0 76.0 L 81.0 76.0 L 80.0 76.0 L 79.0 76.0 L 78.0 76.0 L 77.0 76.0 L 76.0 76.0 L 75.0 76.0 L 74.0 76.0 L 73.0 76.0 L 72.33333333333333 76.33333333333333 L 72.0 77.0 L 72.0 78.0 L 72.0 79.0 L 72.0 80.0 L 72.0 81.0 L 72.0 82.0 L 72.0 83.0 L 72.0 84.0 L 72.0 85.0 L 72.0 86.0 L 72.0 87.0 L 72.0 88.0 L 72.0 89.0 L 72.0 90.0 L 72.0 91.0 L 72.0 92.0 L 72.0 93.0 L 72.0 94.0 L 72.0 95.0 L 72.0 96.0 L 72.0 97.0 L 72.0 98.0 L 72.0 99.0 L 72.0 100.0 L 72.0 101.0 L 72.0 102.0 L 72.0 103.0 L 72.0 104.0 L 72.0 105.0 L 72.0 105.5 Z" stroke="none" fill="rgb(238,62,35)" />
<path d="M 59.5 69.0 L 60.0 69.0 L 61.0 69.0 L 62.0 69.0 L 63.0 69.0 L 64.0 69.0 L 65.0 68.66666666666667 L 65.66666666666667 68.0 L 66.0 67.0 L 66.0 66.0 L 66.0 65.0 L 66.0 64.0 L 66.0 63.0 L 66.0 62.0 L 66.0 61.0 L 66.0 60.0 L 66.0 59.0 L 66.0 58.0 L 66.0 57.0 L 66.0 56.0 L 66.0 55.0 L 66.0 54.0 L 66.0 53.0 L 66.0 52.0 L 66.0 51.0 L 66.0 50.0 L 66.0 49.0 L 66.0 48.0 L 66.0 47.0 L 65.66666666666667 46.0 L 65.0 45.333333333333336 L 64.0 45.0 L 63.0 45.0 L 62.0 45.0 L 61.0 45.0 L 60.0 45.0 L 59.0 45.0 L 58.0 45.0 L 57.0 45.0 L 56.0 45.0 L 55.0 45.0 L 54.0 45.0 L 53.0 45.0 L 52.0 45.0 L 51.0 45.0 L 50.0 45.0 L 49.0 45.0 L 48.0 45.0 L 47.0 45.0 L 46.0 45.0 L 45.0 45.333333333333336 L 44.0 45.666666666666664 L 43.0 46.333333333333336 L 42.0 47.0 L 41.0 48.0 L 40.0 49.0 L 39.333333333333336 50.0 L 38.666666666666664 51.0 L 38.333333333333336 52.0 L 37.666666666666664 53.0 L 37.333333333333336 54.0 L 36.666666666666664 55.0 L 36.333333333333336 56.0 L 35.666666666666664 57.0 L 35.333333333333336 58.0 L 34.666666666666664 59.0 L 34.333333333333336 60.0 L 33.666666666666664 61.0 L 33.333333333333336 62.0 L 32.666666666666664 63.0 L 32.333333333333336 64.0 L 31.666666666666668 65.0 L 31.333333333333332 66.0 L 31.0 67.0 L 31.333333333333332 67.66666666666667 L 32.0 68.0 L 33.0 68.0 L 34.0 68.0 L 35.0 68.0 L 36.0 68.0 L 37.0 68.0 L 38.0 67.66666666666667 L 38.666666666666664 67.0 L 38.666666666666664 66.0 L 38.0 65.0 L 37.333333333333336 64.0 L 37.333333333333336 63.0 L 37.666666666666664 62.0 L 38.333333333333336 61.0 L 38.666666666666664 60.0 L 39.333333333333336 59.0 L 39.666666666666664 58.0 L 40.333333333333336 57.0 L 40.666666666666664 56.0 L 41.333333333333336 55.0 L 41.666666666666664 54.0 L 42.333333333333336 53.0 L 43.0 52.0 L 44.0 51.0 L 45.0 50.0 L 46.0 49.333333333333336 L 47.0 48.666666666666664 L 48.0 48.333333333333336 L 49.0 48.0 L 50.0 48.0 L 51.0 48.0 L 52.0 48.0 L 53.0 48.0 L 54.0 48.0 L 55.0 48.0 L 56.0 48.0 L 57.0 48.0 L 58.0 48.0 L 59.0 48.0 L 60.0 48.0 L 61.0 48.0 L 62.0 48.333333333333336 L 62.666666666666664 49.0 L 63.0 50.0 L 63.0 51.0 L 63.0 52.0 L 63.0 53.0 L 63.0 54.0 L 63.0 55.0 L 63.0 56.0 L 63.0 57.0 L 63.0 58.0 L 63.0 59.0 L 63.0 60.0 L 63.0 61.0 L 63.0 62.0 L 62.666666666666664 63.0 L 62.0 64.0 L 61.0 65.0 L 60.0 65.66666666666667 L 59.0 66.0 L 58.0 66.0 L 57.0 66.0 L 56.0 66.0 L 55.0 66.0 L 54.0 66.0 L 53.0 66.0 L 52.0 66.0 L 51.0 66.0 L 50.333333333333336 66.33333333333333 L 50.0 67.0 L 50.0 68.0 L 50.333333333333336 68.66666666666667 L 51.0 69.0 L 52.0 69.0 L 53.0 69.0 L 54.0 69.0 L 55.0 69.0 L 56.0 69.0 L 57.0 69.0 L 58.0 69.0 L 58.5 69.0 Z" stroke="none" fill="rgb(84,111,121)" />
<path d="M 95.5 123.0 L 96.0 123.33333333333333 L 97.0 123.66666666666667 L 98.0 124.0 L 99.0 124.0 L 100.0 124.0 L 101.0 124.0 L 102.0 124.0 L 103.0 124.0 L 104.0 124.0 L 105.0 124.0 L 106.0 124.0 L 107.0 124.0 L 108.0 123.66666666666667 L 109.0 123.33333333333333 L 110.0 122.66666666666667 L 111.0 122.33333333333333 L 112.0 121.66666666666667 L 113.0 121.0 L 113.66666666666667 120.0 L 114.33333333333333 119.0 L 114.66666666666667 118.0 L 115.33333333333333 117.0 L 115.66666666666667 116.0 L 116.0 115.0 L 116.33333333333333 114.0 L 116.66666666666667 113.0 L 117.0 112.0 L 117.0 111.0 L 116.66666666666667 110.0 L 116.33333333333333 109.0 L 116.0 108.0 L 116.0 107.0 L 116.0 106.0 L 116.0 105.0 L 115.66666666666667 104.0 L 115.0 103.0 L 114.0 102.0 L 113.0 101.0 L 112.0 100.0 L 111.0 99.0 L 110.0 98.33333333333333 L 109.0 97.66666666666667 L 108.0 97.0 L 107.0 96.33333333333333 L 106.0 96.0 L 105.0 96.0 L 104.0 96.0 L 103.0 96.0 L 102.0 96.0 L 101.0 96.0 L 100.0 96.0 L 99.0 96.33333333333333 L 98.0 96.66666666666667 L 97.0 97.33333333333333 L 96.0 97.66666666666667 L 95.0 98.33333333333333 L 94.0 99.0 L 93.0 99.66666666666667 L 92.0 100.33333333333333 L 91.33333333333333 101.0 L 90.66666666666667 102.0 L 90.33333333333333 103.0 L 89.66666666666667 104.0 L 89.33333333333333 105.0 L 89.0 106.0 L 89.0 107.0 L 89.0 108.0 L 88.66666666666667 109.0 L 88.33333333333333 110.0 L 88.0 111.0 L 88.0 112.0 L 88.0 113.0 L 88.33333333333333 114.0 L 88.66666666666667 115.0 L 89.0 116.0 L 89.33333333333333 117.0 L 89.66666666666667 118.0 L 90.33333333333333 119.0 L 91.0 120.0 L 92.0 121.0 L 93.0 121.66666666666667 L 94.0 122.33333333333333 L 94.5 122.5 Z" stroke="none" fill="rgb(78,67,61)" />
<path d="M 24.5 124.0 L 25.0 124.0 L 26.0 124.0 L 27.0 124.0 L 28.0 124.0 L 29.0 124.0 L 30.0 124.0 L 31.0 124.0 L 32.0 124.0 L 33.0 124.0 L 34.0 124.0 L 35.0 123.66666666666667 L 36.0 123.33333333333333 L 37.0 122.66666666666667 L 38.0 122.33333333333333 L 39.0 121.66666666666667 L 40.0 121.0 L 40.666666666666664 120.0 L 41.333333333333336 119.0 L 41.666666666666664 118.0 L 42.333333333333336 117.0 L 42.666666666666664 116.0 L 43.0 115.0 L 43.333333333333336 114.0 L 43.666666666666664 113.0 L 44.0 112.0 L 44.0 111.0 L 43.666666666666664 110.0 L 43.333333333333336 109.0 L 43.0 108.0 L 43.0 107.0 L 43.0 106.0 L 42.666666666666664 105.0 L 42.333333333333336 104.0 L 41.666666666666664 103.0 L 41.0 102.0 L 40.0 101.0 L 39.0 100.0 L 38.0 99.0 L 37.0 98.33333333333333 L 36.0 97.66666666666667 L 35.0 97.33333333333333 L 34.0 97.0 L 33.0 97.0 L 32.0 97.0 L 31.0 97.0 L 30.0 97.0 L 29.0 97.0 L 28.0 97.0 L 27.0 97.0 L 26.0 97.0 L 25.0 97.0 L 24.0 97.33333333333333 L 23.0 97.66666666666667 L 22.0 98.33333333333333 L 21.0 99.0 L 20.0 100.0 L 19.0 101.0 L 18.0 102.0 L 17.333333333333332 103.0 L 16.666666666666668 104.0 L 16.333333333333332 105.0 L 16.0 106.0 L 15.666666666666666 107.0 L 15.333333333333334 108.0 L 15.0 109.0 L 15.0 110.0 L 15.0 111.0 L 15.0 112.0 L 15.0 113.0 L 15.333333333333334 114.0 L 15.666666666666666 115.0 L 16.0 116.0 L 16.333333333333332 117.0 L 17.0 118.0 L 17.666666666666668 119.0 L 18.333333333333332 120.0 L 19.0 121.0 L 20.0 121.66666666666667 L 21.0 122.33333333333333 L 22.0 122.66666666666667 L 23.0 123.33333333333333 L 23.5 123.5 Z" stroke="none" fill="rgb(78,67,61)" />
<path d="M 57.5 66.0 L 58.0 66.0 L 59.0 66.0 L 60.0 66.0 L 61.0 65.66666666666667 L 62.0 65.0 L 62.666666666666664 64.0 L 63.0 63.0 L 63.0 62.0 L 63.0 61.0 L 63.0 60.0 L 63.0 59.0 L 63.0 58.0 L 63.0 57.0 L 63.0 56.0 L 63.0 55.0 L 63.0 54.0 L 63.0 53.0 L 63.0 52.0 L 63.0 51.0 L 63.0 50.0 L 63.0 49.0 L 62.666666666666664 48.333333333333336 L 62.0 48.0 L 61.0 48.0 L 60.0 48.0 L 59.0 48.0 L 58.0 48.0 L 57.0 48.0 L 56.0 48.0 L 55.0 48.0 L 54.0 48.0 L 53.0 48.0 L 52.0 48.0 L 51.0 48.0 L 50.0 48.0 L 49.0 48.0 L 48.0 48.0 L 47.0 48.333333333333336 L 46.0 48.666666666666664 L 45.0 49.333333333333336 L 44.0 50.0 L 43.0 51.0 L 42.333333333333336 52.0 L 41.666666666666664 53.0 L 41.333333333333336 54.0 L 40.666666666666664 55.0 L 40.333333333333336 56.0 L 39.666666666666664 57.0 L 39.333333333333336 58.0 L 38.666666666666664 59.0 L 38.333333333333336 60.0 L 37.666666666666664 61.0 L 37.333333333333336 62.0 L 37.0 63.0 L 37.0 64.0 L 37.333333333333336 65.0 L 38.0 65.66666666666667 L 39.0 65.66666666666667 L 40.0 65.0 L 41.0 64.0 L 42.0 63.333333333333336 L 43.0 63.0 L 44.0 62.666666666666664 L 45.0 62.666666666666664 L 46.0 63.0 L 47.0 64.0 L 48.0 65.0 L 49.0 65.66666666666667 L 50.0 66.0 L 51.0 66.0 L 52.0 66.0 L 53.0 66.0 L 54.0 66.0 L 55.0 66.0 L 56.0 66.0 L 56.5 66.0 Z" stroke="none" fill="rgb(175,227,250)" />
<path d="M 73.5 76.0 L 74.0 76.0 L 75.0 76.0 L 76.0 76.0 L 77.0 76.0 L 78.0 76.0 L 79.0 76.0 L 80.0 76.0 L 81.0 76.0 L 82.0 76.0 L 83.0 76.0 L 84.0 76.0 L 85.0 76.0 L 86.0 76.0 L 87.0 76.0 L 88.0 76.0 L 89.0 76.0 L 90.0 76.0 L 91.0 76.0 L 92.0 76.0 L 93.0 76.0 L 94.0 76.0 L 95.0 76.0 L 96.0 76.0 L 97.0 76.0 L 98.0 76.0 L 99.0 76.0 L 100.0 76.0 L 101.0 76.0 L 102.0 76.0 L 103.0 76.0 L 104.0 76.0 L 105.0 76.0 L 106.0 76.0 L 107.0 76.0 L 108.0 76.0 L 109.0 76.0 L 110.0 76.0 L 111.0 76.0 L 112.0 76.0 L 113.0 76.0 L 114.0 76.0 L 115.0 76.0 L 116.0 76.0 L 117.0 76.33333333333333 L 118.0 76.66666666666667 L 119.0 76.66666666666667 L 120.0 76.33333333333333 L 121.0 76.0 L 122.0 76.0 L 122.66666666666667 75.66666666666667 L 123.0 75.0 L 123.0 74.0 L 123.0 73.0 L 122.66666666666667 72.0 L 122.33333333333333 71.0 L 121.66666666666667 70.0 L 121.0 69.33333333333333 L 120.0 69.0 L 119.0 69.0 L 118.0 69.0 L 117.0 69.0 L 116.0 69.0 L 115.0 69.0 L 114.0 69.0 L 113.0 69.0 L 112.0 69.0 L 111.0 69.0 L 110.0 69.0 L 109.0 69.0 L 108.0 69.0 L 107.0 69.0 L 106.0 69.0 L 105.0 69.0 L 104.0 69.0 L 103.0 69.0 L 102.0 69.0 L 101.0 69.0 L 100.0 69.0 L 99.0 69.0 L 98.0 69.0 L 97.0 69.0 L 96.0 69.0 L 95.0 69.0 L 94.0 69.0 L 93.0 69.0 L 92.0 69.0 L 91.0 69.0 L 90.0 69.0 L 89.0 69.0 L 88.0 69.0 L 87.0 69.0 L 86.0 69.0 L 85.0 69.0 L 84.0 69.0 L 83.0 69.0 L 82.0 69.0 L 81.0 69.0 L 80.0 69.0 L 79.0 69.0 L 78.0 69.0 L 77.0 69.0 L 76.0 69.0 L 75.0 69.0 L 74.0 69.0 L 73.0 69.0 L 72.0 69.0 L 71.33333333333333 69.33333333333333 L 71.0 70.0 L 71.0 71.0 L 71.0 72.0 L 71.0 73.0 L 71.33333333333333 74.0 L 72.0 75.0 L 72.5 75.5 Z" stroke="none" fill="rgb(255,81,23)" />
<path d="M 37.5 99.5 L 38.0 100.0 L 39.0 101.0 L 40.0 102.0 L 41.0 103.0 L 41.666666666666664 104.0 L 42.333333333333336 105.0 L 42.666666666666664 106.0 L 43.0 107.0 L 43.0 108.0 L 43.0 109.0 L 43.333333333333336 110.0 L 44.0 110.66666666666667 L 45.0 111.0 L 46.0 111.0 L 47.0 111.0 L 48.0 111.0 L 49.0 111.0 L 50.0 111.0 L 51.0 111.0 L 52.0 111.0 L 53.0 111.0 L 54.0 111.0 L 55.0 111.0 L 56.0 111.0 L 57.0 111.0 L 58.0 111.0 L 59.0 111.0 L 60.0 111.0 L 61.0 111.0 L 62.0 111.0 L 63.0 111.0 L 64.0 111.0 L 65.0 111.0 L 66.0 111.0 L 67.0 111.0 L 68.0 111.0 L 68.66666666666667 110.66666666666667 L 69.0 110.0 L 69.0 109.0 L 69.0 108.0 L 68.66666666666667 107.0 L 68.0 106.33333333333333 L 67.0 106.0 L 66.0 106.0 L 65.0 106.0 L 64.0 106.0 L 63.0 106.0 L 62.0 106.0 L 61.0 106.0 L 60.0 106.0 L 59.0 106.0 L 58.0 106.0 L 57.0 106.0 L 56.0 106.0 L 55.0 106.0 L 54.0 106.0 L 53.0 106.0 L 52.0 106.0 L 51.0 106.0 L 50.0 106.0 L 49.0 106.0 L 48.0 106.0 L 47.0 105.66666666666667 L 46.0 105.0 L 45.0 104.0 L 44.333333333333336 103.0 L 43.666666666666664 102.0 L 43.333333333333336 101.0 L 42.666666666666664 100.0 L 42.0 99.0 L 41.333333333333336 98.0 L 40.666666666666664 97.0 L 40.0 96.0 L 39.0 95.33333333333333 L 38.0 94.66666666666667 L 37.0 94.33333333333333 L 36.0 94.0 L 35.0 94.0 L 34.0 94.0 L 33.0 94.0 L 32.0 94.0 L 31.0 94.0 L 30.0 94.0 L 29.0 94.0 L 28.0 94.0 L 27.0 94.0 L 26.0 94.0 L 25.0 94.0 L 24.0 94.0 L 23.0 94.0 L 22.0 94.33333333333333 L 21.0 94.66666666666667 L 20.0 95.0 L 19.0 95.33333333333333 L 18.333333333333332 96.0 L 18.0 97.0 L 17.666666666666668 98.0 L 17.333333333333332 99.0 L 17.0 100.0 L 17.0 101.0 L 17.0 102.0 L 17.333333333333332 102.66666666666667 L 18.0 102.66666666666667 L 19.0 102.0 L 20.0 101.0 L 21.0 100.0 L 22.0 99.0 L 23.0 98.33333333333333 L 24.0 97.66666666666667 L 25.0 97.33333333333333 L 26.0 97.0 L 27.0 97.0 L 28.0 97.0 L 29.0 97.0 L 30.0 97.0 L 31.0 97.0 L 32.0 97.0 L 33.0 97.0 L 34.0 97.33333333333333 L 35.0 97.66666666666667 L 36.0 98.33333333333333 L 36.5 98.5 Z" stroke="none" fill="rgb(178,37,24)" />
<path d="M 24.5 115.5 L 25.0 116.0 L 26.0 116.66666666666667 L 27.0 117.0 L 28.0 117.0 L 29.0 117.0 L 30.0 117.0 L 31.0 117.0 L 32.0 117.0 L 33.0 116.66666666666667 L 34.0 116.0 L 35.0 115.0 L 36.0 114.0 L 36.666666666666664 113.0 L 37.0 112.0 L 37.0 111.0 L 37.0 110.0 L 37.0 109.0 L 37.0 108.0 L 36.666666666666664 107.0 L 36.0 106.0 L 35.0 105.0 L 34.0 104.0 L 33.0 103.33333333333333 L 32.0 103.0 L 31.0 103.0 L 30.0 103.0 L 29.0 103.0 L 28.0 103.0 L 27.0 103.0 L 26.0 103.33333333333333 L 25.0 103.66666666666667 L 24.0 104.33333333333333 L 23.333333333333332 105.0 L 22.666666666666668 106.0 L 22.333333333333332 107.0 L 22.0 108.0 L 22.0 109.0 L 22.0 110.0 L 22.0 111.0 L 22.0 112.0 L 22.333333333333332 113.0 L 23.0 114.0 L 23.5 114.5 Z" stroke="none" fill="rgb(200,200,200)" />
<path d="M 95.5 113.5 L 96.0 114.0 L 97.0 115.0 L 98.0 116.0 L 99.0 116.66666666666667 L 100.0 117.0 L 101.0 117.0 L 102.0 117.0 L 103.0 117.0 L 104.0 117.0 L 105.0 117.0 L 106.0 116.66666666666667 L 107.0 116.0 L 108.0 115.0 L 109.0 114.0 L 109.66666666666667 113.0 L 110.0 112.0 L 110.0 111.0 L 110.0 110.0 L 110.0 109.0 L 110.0 108.0 L 109.66666666666667 107.0 L 109.0 106.0 L 108.0 105.0 L 107.0 104.0 L 106.0 103.33333333333333 L 105.0 103.0 L 104.0 103.0 L 103.0 103.0 L 102.0 103.0 L 101.0 103.0 L 100.0 103.0 L 99.0 103.33333333333333 L 98.0 103.66666666666667 L 97.0 104.33333333333333 L 96.33333333333333 105.0 L 95.66666666666667 106.0 L 95.33333333333333 107.0 L 95.0 108.0 L 95.0 109.0 L 95.0 110.0 L 95.0 111.0 L 95.0 112.0 L 95.0 112.5 Z" stroke="none" fill="rgb(200,200,200)" />
<path d="M 72.0 106.5 L 72.0 106.0 L 72.0 105.0 L 72.0 104.0 L 72.0 103.0 L 72.0 102.0 L 72.0 101.0 L 72.0 100.0 L 72.0 99.0 L 72.0 98.0 L 72.0 97.0 L 72.0 96.0 L 72.0 95.0 L 72.0 94.0 L 72.0 93.0 L 72.0 92.0 L 72.0 91.0 L 72.0 90.0 L 72.0 89.0 L 72.0 88.0 L 72.0 87.0 L 72.0 86.0 L 72.0 85.0 L 72.0 84.0 L 72.0 83.0 L 72.0 82.0 L 72.0 81.0 L 72.0 80.0 L 72.0 79.0 L 72.0 78.0 L 72.33333333333333 77.0 L 72.66666666666667 76.0 L 72.66666666666667 75.0 L 72.0 74.0 L 71.33333333333333 73.0 L 71.0 72.0 L 71.0 71.0 L 71.0 70.0 L 70.66666666666667 69.33333333333333 L 70.0 69.0 L 69.33333333333333 69.33333333333333 L 69.0 70.0 L 69.0 71.0 L 69.0 72.0 L 69.0 73.0 L 69.0 74.0 L 68.66666666666667 75.0 L 68.33333333333333 76.0 L 68.0 77.0 L 68.0 78.0 L 68.0 79.0 L 68.0 80.0 L 68.0 81.0 L 68.0 82.0 L 68.0 83.0 L 68.0 84.0 L 68.0 85.0 L 68.0 86.0 L 68.0 87.0 L 68.0 88.0 L 68.0 89.0 L 68.0 90.0 L 68.0 91.0 L 68.0 92.0 L 68.0 93.0 L 68.0 94.0 L 68.0 95.0 L 68.0 96.0 L 68.0 97.0 L 68.0 98.0 L 68.0 99.0 L 68.0 100.0 L 68.0 101.0 L 68.0 102.0 L 68.0 103.0 L 68.0 104.0 L 68.0 105.0 L 68.0 106.0 L 68.33333333333333 107.0 L 68.66666666666667 108.0 L 69.0 109.0 L 69.0 110.0 L 69.0 111.0 L 69.33333333333333 111.66666666666667 L 70.0 112.0 L 70.66666666666667 111.66666666666667 L 71.0 111.0 L 71.0 110.0 L 71.0 109.0 L 71.33333333333333 108.0 L 71.5 107.5 Z" stroke="none" fill="rgb(138,30,12)" />
<path d="M 11.5 111.0 L 12.0 111.0 L 12.666666666666666 110.66666666666667 L 13.0 110.0 L 13.333333333333334 109.0 L 14.0 108.33333333333333 L 15.0 108.0 L 15.666666666666666 107.66666666666667 L 16.0 107.0 L 16.333333333333332 106.0 L 16.666666666666668 105.0 L 17.0 104.0 L 17.0 103.0 L 17.0 102.0 L 17.0 101.0 L 16.666666666666668 100.0 L 16.0 99.33333333333333 L 15.0 99.0 L 14.0 99.0 L 13.0 99.0 L 12.0 99.0 L 11.0 99.0 L 10.0 99.0 L 9.0 99.0 L 8.0 99.0 L 7.0 99.0 L 6.0 99.0 L 5.0 99.0 L 4.0 99.0 L 3.3333333333333335 99.33333333333333 L 3.0 100.0 L 3.0 101.0 L 3.0 102.0 L 3.0 103.0 L 3.0 104.0 L 3.0 105.0 L 3.0 106.0 L 3.0 107.0 L 3.0 108.0 L 3.0 109.0 L 3.0 110.0 L 3.3333333333333335 110.66666666666667 L 4.0 111.0 L 5.0 111.0 L 6.0 111.0 L 7.0 111.0 L 8.0 111.0 L 9.0 111.0 L 10.0 111.0 L 10.5 111.0 Z" stroke="none" fill="rgb(176,176,177)" />
<path d="M 95.5 98.5 L 96.0 98.33333333333333 L 97.0 97.66666666666667 L 98.0 97.33333333333333 L 98.66666666666667 96.66666666666667 L 99.0 96.0 L 98.66666666666667 95.33333333333333 L 98.0 95.0 L 97.0 95.0 L 96.0 95.0 L 95.0 95.0 L 94.0 95.0 L 93.0 95.0 L 92.0 95.33333333333333 L 91.33333333333333 96.0 L 90.66666666666667 97.0 L 90.33333333333333 98.0 L 89.66666666666667 99.0 L 89.33333333333333 100.0 L 89.0 101.0 L 88.66666666666667 102.0 L 88.33333333333333 103.0 L 88.0 104.0 L 87.66666666666667 105.0 L 87.0 105.66666666666667 L 86.0 106.0 L 85.0 106.0 L 84.0 106.0 L 83.0 106.0 L 82.0 106.0 L 81.0 106.0 L 80.0 106.0 L 79.0 106.0 L 78.0 106.0 L 77.0 106.0 L 76.0 106.0 L 75.0 106.0 L 74.0 106.0 L 73.0 106.0 L 72.0 106.33333333333333 L 71.33333333333333 107.0 L 71.0 108.0 L 71.0 109.0 L 71.0 110.0 L 71.33333333333333 110.66666666666667 L 72.0 111.0 L 73.0 111.0 L 74.0 111.0 L 75.0 111.0 L 76.0 111.0 L 77.0 111.0 L 78.0 111.0 L 79.0 111.0 L 80.0 111.0 L 81.0 111.0 L 82.0 111.0 L 83.0 111.0 L 84.0 111.0 L 85.0 111.0 L 86.0 111.0 L 87.0 111.0 L 88.0 110.66666666666667 L 88.66666666666667 110.0 L 89.0 109.0 L 89.0 108.0 L 89.0 107.0 L 89.33333333333333 106.0 L 89.66666666666667 105.0 L 90.33333333333333 104.0 L 90.66666666666667 103.0 L 91.33333333333333 102.0 L 92.0 101.0 L 93.0 100.33333333333333 L 94.0 99.66666666666667 L 94.5 99.5 Z" stroke="none" fill="rgb(178,37,24)" />
<path d="M 125.5 111.0 L 126.0 111.0 L 126.66666666666667 110.66666666666667 L 127.0 110.0 L 127.0 109.0 L 127.0 108.0 L 127.0 107.0 L 127.0 106.0 L 127.0 105.0 L 127.0 104.0 L 127.0 103.0 L 127.0 102.0 L 127.0 101.0 L 127.0 100.0 L 127.0 99.0 L 126.66666666666667 98.33333333333333 L 126.0 98.0 L 125.0 98.0 L 124.0 98.0 L 123.0 98.0 L 122.0 98.33333333333333 L 121.33333333333333 99.0 L 121.0 100.0 L 121.0 101.0 L 121.0 102.0 L 120.66666666666667 103.0 L 120.33333333333333 104.0 L 119.66666666666667 105.0 L 119.33333333333333 106.0 L 119.33333333333333 107.0 L 119.66666666666667 108.0 L 120.0 109.0 L 120.0 110.0 L 120.33333333333333 110.66666666666667 L 121.0 111.0 L 122.0 111.0 L 123.0 111.0 L 124.0 111.0 L 124.5 111.0 Z" stroke="none" fill="rgb(176,176,177)" />
<path d="M 124.0 91.5 L 124.0 91.0 L 124.0 90.0 L 124.0 89.0 L 124.0 88.0 L 124.0 87.0 L 124.0 86.0 L 124.0 85.0 L 124.0 84.0 L 124.0 83.0 L 124.0 82.0 L 124.0 81.0 L 124.0 80.0 L 124.0 79.0 L 124.0 78.0 L 124.0 77.0 L 123.66666666666667 76.33333333333333 L 123.0 76.0 L 122.0 76.0 L 121.0 76.0 L 120.0 76.0 L 119.33333333333333 76.33333333333333 L 119.0 77.0 L 119.0 78.0 L 119.0 79.0 L 119.0 80.0 L 119.0 81.0 L 119.0 82.0 L 119.0 83.0 L 119.0 84.0 L 119.0 85.0 L 119.0 86.0 L 119.0 87.0 L 119.0 88.0 L 119.0 89.0 L 119.0 90.0 L 119.33333333333333 90.66666666666667 L 120.0 91.0 L 121.0 91.33333333333333 L 122.0 91.66666666666667 L 123.0 92.0 L 123.5 92.0 Z" stroke="none" fill="rgb(213,9,22)" />
<path d="M 50.0 68.5 L 50.0 68.0 L 50.0 67.0 L 49.666666666666664 66.0 L 49.0 65.0 L 48.0 64.33333333333333 L 47.333333333333336 64.33333333333333 L 46.666666666666664 65.0 L 46.0 66.0 L 45.0 67.0 L 44.0 67.66666666666667 L 43.0 68.0 L 42.0 68.0 L 41.0 67.66666666666667 L 40.0 67.33333333333333 L 39.0 67.0 L 38.333333333333336 67.33333333333333 L 38.0 68.0 L 38.333333333333336 69.0 L 39.0 70.0 L 40.0 71.0 L 41.0 71.66666666666667 L 42.0 72.0 L 43.0 72.0 L 44.0 72.0 L 45.0 72.0 L 46.0 72.0 L 47.0 71.66666666666667 L 48.0 71.0 L 49.0 70.0 L 49.5 69.5 Z" stroke="none" fill="rgb(178,37,24)" />
<path d="M 4.5 91.0 L 5.0 91.0 L 5.666666666666667 90.66666666666667 L 6.0 90.0 L 6.0 89.0 L 6.0 88.0 L 6.0 87.0 L 6.0 86.0 L 6.0 85.0 L 6.0 84.0 L 6.0 83.0 L 6.0 82.0 L 6.0 81.0 L 6.0 80.0 L 6.0 79.0 L 5.666666666666667 78.0 L 5.0 77.33333333333333 L 4.0 77.0 L 3.3333333333333335 77.33333333333333 L 3.0 78.0 L 3.0 79.0 L 3.0 80.0 L 3.0 81.0 L 3.0 82.0 L 3.0 83.0 L 3.0 84.0 L 3.0 85.0 L 3.0 86.0 L 3.0 87.0 L 3.0 88.0 L 3.0 89.0 L 3.0 90.0 L 3.3333333333333335 90.66666666666667 L 3.5 91.0 Z" stroke="none" fill="rgb(220,205,199)" />
<path d="M 114.5 103.5 L 115.0 103.66666666666667 L 115.66666666666667 103.66666666666667 L 116.0 103.0 L 116.0 102.0 L 116.0 101.0 L 115.66666666666667 100.0 L 115.33333333333333 99.0 L 115.0 98.0 L 114.66666666666667 97.0 L 114.0 96.0 L 113.0 95.33333333333333 L 112.0 95.0 L 111.0 95.0 L 110.0 95.0 L 109.0 95.0 L 108.0 95.0 L 107.33333333333333 95.33333333333333 L 107.0 96.0 L 107.33333333333333 97.0 L 108.0 97.66666666666667 L 109.0 98.33333333333333 L 110.0 99.0 L 111.0 100.0 L 112.0 101.0 L 113.0 102.0 L 113.5 102.5 Z" stroke="none" fill="rgb(178,37,24)" />
<path d="M 59.5 81.0 L 60.0 81.0 L 61.0 80.66666666666667 L 61.666666666666664 80.0 L 62.0 79.0 L 62.0 78.0 L 61.666666666666664 77.33333333333333 L 61.0 77.0 L 60.0 77.0 L 59.0 77.0 L 58.0 77.0 L 57.0 77.0 L 56.0 77.0 L 55.0 77.0 L 54.0 77.0 L 53.0 77.0 L 52.333333333333336 77.33333333333333 L 52.0 78.0 L 52.0 79.0 L 52.0 80.0 L 52.333333333333336 80.66666666666667 L 53.0 81.0 L 54.0 81.0 L 55.0 81.0 L 56.0 81.0 L 57.0 81.0 L 58.0 81.0 L 58.5 81.0 Z" stroke="none" fill="rgb(138,30,12)" />
<path d="M 7.5 91.0 L 8.0 90.66666666666667 L 8.666666666666666 90.0 L 9.0 89.0 L 9.0 88.0 L 9.0 87.0 L 9.0 86.0 L 9.0 85.0 L 9.0 84.0 L 9.0 83.0 L 9.0 82.0 L 9.0 81.0 L 9.0 80.0 L 8.666666666666666 79.0 L 8.0 78.33333333333333 L 7.0 78.0 L 6.333333333333333 78.33333333333333 L 6.0 79.0 L 6.0 80.0 L 6.0 81.0 L 6.0 82.0 L 6.0 83.0 L 6.0 84.0 L 6.0 85.0 L 6.0 86.0 L 6.0 87.0 L 6.0 88.0 L 6.0 89.0 L 6.0 90.0 L 6.333333333333333 90.66666666666667 L 6.5 91.0 Z" stroke="none" fill="rgb(253,254,254)" />
<path d="M 39.5 67.5 L 40.0 67.66666666666667 L 41.0 68.0 L 42.0 68.0 L 43.0 68.0 L 44.0 68.0 L 45.0 67.66666666666667 L 46.0 67.0 L 46.666666666666664 66.0 L 47.0 65.0 L 47.0 64.0 L 46.666666666666664 63.0 L 46.0 62.333333333333336 L 45.0 62.0 L 44.0 62.333333333333336 L 43.0 62.666666666666664 L 42.0 63.0 L 41.0 63.333333333333336 L 40.0 64.0 L 39.333333333333336 65.0 L 39.0 66.0 L 39.0 66.5 Z" stroke="none" fill="rgb(238,62,35)" />
<path d="M 120.0 110.5 L 120.0 110.0 L 120.0 109.0 L 120.0 108.0 L 119.66666666666667 107.0 L 119.0 106.0 L 118.0 105.0 L 117.0 104.33333333333333 L 116.33333333333333 104.33333333333333 L 116.0 105.0 L 116.0 106.0 L 116.0 107.0 L 116.0 108.0 L 116.0 109.0 L 116.33333333333333 110.0 L 117.0 110.66666666666667 L 118.0 111.0 L 119.0 111.0 L 119.5 111.0 Z" stroke="none" fill="rgb(178,37,24)" />
<path d="M 13.5 111.0 L 14.0 111.0 L 14.666666666666666 110.66666666666667 L 15.0 110.0 L 15.0 109.0 L 14.666666666666666 108.33333333333333 L 14.0 108.0 L 13.333333333333334 108.33333333333333 L 13.0 109.0 L 13.0 110.0 L 13.0 110.5 Z" stroke="none" fill="rgb(178,37,24)" />
<path d="M 5.0 76.5 L 4.666666666666667 76.0 L 4.0 75.33333333333333 L 3.3333333333333335 75.33333333333333 L 3.0 76.0 L 3.3333333333333335 76.66666666666667 L 4.0 77.0 L 4.5 77.0 Z" stroke="none" fill="rgb(0,0,0)" />
<path d="M 4.0 98.5 L 3.6666666666666665 98.33333333333333 L 3.3333333333333335 98.33333333333333 L 3.3333333333333335 98.66666666666667 L 3.5 99.0 Z" stroke="none" fill="rgb(0,0,0)" />
</svg>
