<?xml version="1.0" encoding="UTF-8" standalone="no"?>
<!DOCTYPE svg PUBLIC "-//W3C//DTD SVG 1.1//EN"
"http://www.w3.org/Graphics/SVG/1.1/DTD/svg11.dtd">
<svg width="128" height="128" xmlns="http://www.w3.org/2000/svg" version="1.1">
<path d="M 88.5 128.0 L 89.0 128.0 L 90.0 128.0 L 91.0 128.0 L 92.0 128.0 L 93.0 128.0 L 94.0 128.0 L 95.0 128.0 L 96.0 128.0 L 97.0 128.0 L 98.0 128.0 L 99.0 128.0 L 100.0 128.0 L 101.0 128.0 L 102.0 128.0 L 103.0 128.0 L 104.0 128.0 L 105.0 128.0 L 106.0 128.0 L 107.0 128.0 L 108.0 128.0 L 109.0 128.0 L 110.0 128.0 L 111.0 128.0 L 112.0 128.0 L 113.0 128.0 L 114.0 128.0 L 115.0 128.0 L 116.0 128.0 L 117.0 128.0 L 118.0 128.0 L 119.0 128.0 L 120.0 128.0 L 121.0 128.0 L 122.0 128.0 L 123.0 128.0 L 124.0 128.0 L 125.0 128.0 L 126.0 128.0 L 127.0 128.0 L 127.66666666666667 127.66666666666667 L 128.0 127.0 L 128.0 126.0 L 128.0 125.0 L 128.0 124.0 L 128.0 123.0 L 128.0 122.0 L 128.0 121.0 L 128.0 120.0 L 128.0 119.0 L 128.0 118.0 L 128.0 117.0 L 128.0 116.0 L 128.0 115.0 L 128.0 114.0 L 128.0 113.0 L 128.0 112.0 L 128.0 111.0 L 128.0 110.0 L 128.0 109.0 L 128.0 108.0 L 128.0 107.0 L 128.0 106.0 L 128.0 105.0 L 128.0 104.0 L 128.0 103.0 L 128.0 102.0 L 128.0 101.0 L 128.0 100.0 L 128.0 99.0 L 128.0 98.0 L 128.0 97.0 L 128.0 96.0 L 128.0 95.0 L 128.0 94.0 L 128.0 93.0 L 128.0 92.0 L 128.0 91.0 L 128.0 90.0 L 128.0 89.0 L 128.0 88.0 L 128.0 87.0 L 128.0 86.0 L 128.0 85.0 L 128.0 84.0 L 128.0 83.0 L 128.0 82.0 L 128.0 81.0 L 128.0 80.0 L 128.0 79.0 L 128.0 78.0 L 128.0 77.0 L 128.0 76.0 L 128.0 75.0 L 128.0 74.0 L 128.0 73.0 L 128.0 72.0 L 128.0 71.0 L 128.0 70.0 L 128.0 69.0 L 128.0 68.0 L 128.0 67.0 L 128.0 66.0 L 128.0 65.0 L 128.0 64.0 L 128.0 63.0 L 128.0 62.0 L 128.0 61.0 L 128.0 60.0 L 128.0 59.0 L 128.0 58.0 L 128.0 57.0 L 128.0 56.0 L 128.0 55.0 L 128.0 54.0 L 128.0 53.0 L 128.0 52.0 L 128.0 51.0 L 128.0 50.0 L 128.0 49.0 L 128.0 48.0 L 128.0 47.0 L 128.0 46.0 L 128.0 45.0 L 128.0 44.0 L 128.0 43.0 L 128.0 42.0 L 128.0 41.0 L 128.0 40.0 L 128.0 39.0 L 128.0 38.0 L 128.0 37.0 L 128.0 36.0 L 128.0 35.0 L 128.0 34.0 L 128.0 33.0 L 128.0 32.0 L 128.0 31.0 L 128.0 30.0 L 128.0 29.0 L 128.0 28.0 L 128.0 27.0 L 128.0 26.0 L 128.0 25.0 L 128.0 24.0 L 128.0 23.0 L 128.0 22.0 L 128.0 21.0 L 128.0 20.0 L 128.0 19.0 L 128.0 18.0 L 128.0 17.0 L 128.0 16.0 L 128.0 15.0 L 128.0 14.0 L 128.0 13.0 L 128.0 12.0 L 128.0 11.0 L 128.0 10.0 L 128.0 9.0 L 128.0 8.0 L 128.0 7.0 L 128.0 6.0 L 128.0 5.0 L 128.0 4.0 L 128.0 3.0 L 128.0 2.0 L 128.0 1.0 L 127.66666666666667 0.3333333333333333 L 127.0 0.0 L 126.0 0.0 L 125.0 0.0 L 124.0 0.0 L 123.0 0.0 L 122.0 0.0 L 121.0 0.0 L 120.0 0.0 L 119.0 0.0 L 118.0 0.0 L 117.0 0.0 L 116.0 0.0 L 115.0 0.0 L 114.0 0.0 L 113.0 0.0 L 112.0 0.0 L 111.0 0.0 L 110.0 0.0 L 109.0 0.0 L 108.0 0.0 L 107.0 0.0 L 106.0 0.0 L 105.0 0.0 L 104.0 0.0 L 103.0 0.0 L 102.0 0.0 L 101.0 0.0 L 100.0 0.0 L 99.0 0.0 L 98.0 0.0 L 97.0 0.0 L 96.0 0.0 L 95.0 0.0 L 94.0 0.0 L 93.0 0.0 L 92.0 0.0 L 91.0 0.0 L 90.0 0.0 L 89.0 0.0 L 88.0 0.0 L 87.0 0.0 L 86.0 0.0 L 85.0 0.0 L 84.0 0.0 L 83.0 0.0 L 82.0 0.0 L 81.0 0.0 L 80.0 0.0 L 79.0 0.0 L 78.0 0.0 L 77.0 0.0 L 76.0 0.0 L 75.0 0.0 L 74.0 0.0 L 73.0 0.0 L 72.0 0.0 L 71.0 0.0 L 70.0 0.0 L 69.0 0.0 L 68.0 0.0 L 67.0 0.0 L 66.0 0.0 L 65.0 0.0 L 64.0 0.0 L 63.0 0.0 L 62.0 0.0 L 61.0 0.0 L 60.0 0.0 L 59.0 0.0 L 58.0 0.0 L 57.0 0.0 L 56.0 0.0 L 55.0 0.0 L 54.0 0.0 L 53.0 0.0 L 52.0 0.0 L 51.0 0.0 L 50.0 0.0 L 49.0 0.0 L 48.0 0.0 L 47.0 0.0 L 46.0 0.0 L 45.0 0.0 L 44.0 0.0 L 43.0 0.0 L 42.0 0.0 L 41.0 0.0 L 40.0 0.0 L 39.0 0.0 L 38.0 0.0 L 37.0 0.0 L 36.0 0.0 L 35.0 0.0 L 34.0 0.0 L 33.0 0.0 L 32.0 0.0 L 31.0 0.0 L 30.0 0.0 L 29.0 0.0 L 28.0 0.0 L 27.0 0.0 L 26.0 0.0 L 25.0 0.0 L 24.0 0.0 L 23.0 0.0 L 22.0 0.0 L 21.0 0.0 L 20.0 0.0 L 19.0 0.0 L 18.0 0.0 L 17.0 0.0 L 16.0 0.0 L 15.0 0.0 L 14.0 0.0 L 13.0 0.0 L 12.0 0.0 L 11.0 0.0 L 10.0 0.0 L 9.0 0.0 L 8.0 0.0 L 7.0 0.0 L 6.0 0.0 L 5.0 0.0 L 4.0 0.0 L 3.0 0.0 L 2.0 0.0 L 1.0 0.0 L 0.3333333333333333 0.3333333333333333 L 0.0 1.0 L 0.0 2.0 L 0.0 3.0 L 0.0 4.0 L 0.0 5.0 L 0.0 6.0 L 0.0 7.0 L 0.0 8.0 L 0.0 9.0 L 0.0 10.0 L 0.0 11.0 L 0.0 12.0 L 0.0 13.0 L 0.0 14.0 L 0.0 15.0 L 0.0 16.0 L 0.0 17.0 L 0.0 18.0 L 0.0 19.0 L 0.0 20.0 L 0.0 21.0 L 0.0 22.0 L 0.0 23.0 L 0.0 24.0 L 0.0 25.0 L 0.0 26.0 L 0.0 27.0 L 0.0 28.0 L 0.0 29.0 L 0.0 30.0 L 0.0 31.0 L 0.0 32.0 L 0.0 33.0 L 0.0 34.0 L 0.0 35.0 L 0.0 36.0 L 0.0 37.0 L 0.0 38.0 L 0.0 39.0 L 0.0 40.0 L 0.0 41.0 L 0.0 42.0 L 0.0 43.0 L 0.0 44.0 L 0.0 45.0 L 0.0 46.0 L 0.0 47.0 L 0.0 48.0 L 0.0 49.0 L 0.0 50.0 L 0.0 51.0 L 0.0 52.0 L 0.0 53.0 L 0.0 54.0 L 0.0 55.0 L 0.0 56.0 L 0.0 57.0 L 0.0 58.0 L 0.0 59.0 L 0.0 60.0 L 0.0 61.0 L 0.0 62.0 L 0.0 63.0 L 0.0 64.0 L 0.0 65.0 L 0.0 66.0 L 0.0 67.0 L 0.0 68.0 L 0.0 69.0 L 0.0 70.0 L 0.0 71.0 L 0.0 72.0 L 0.0 73.0 L 0.0 74.0 L 0.0 75.0 L 0.0 76.0 L 0.0 77.0 L 0.0 78.0 L 0.0 79.0 L 0.0 80.0 L 0.0 81.0 L 0.0 82.0 L 0.0 83.0 L 0.0 84.0 L 0.0 85.0 L 0.0 86.0 L 0.0 87.0 L 0.0 88.0 L 0.0 89.0 L 0.0 90.0 L 0.0 91.0 L 0.0 92.0 L 0.0 93.0 L 0.0 94.0 L 0.0 95.0 L 0.0 96.0 L 0.0 97.0 L 0.0 98.0 L 0.0 99.0 L 0.0 100.0 L 0.0 101.0 L 0.0 102.0 L 0.0 103.0 L 0.0 104.0 L 0.0 105.0 L 0.0 106.0 L 0.0 107.0 L 0.0 108.0 L 0.0 109.0 L 0.0 110.0 L 0.0 111.0 L 0.0 112.0 L 0.0 113.0 L 0.0 114.0 L 0.0 115.0 L 0.0 116.0 L 0.0 117.0 L 0.0 118.0 L 0.0 119.0 L 0.0 120.0 L 0.0 121.0 L 0.0 122.0 L 0.0 123.0 L 0.0 124.0 L 0.0 125.0 L 0.0 126.0 L 0.0 127.0 L 0.3333333333333333 127.66666666666667 L 1.0 128.0 L 2.0 128.0 L 3.0 128.0 L 4.0 128.0 L 5.0 128.0 L 6.0 128.0 L 7.0 128.0 L 8.0 128.0 L 9.0 128.0 L 10.0 128.0 L 11.0 128.0 L 12.0 128.0 L 13.0 128.0 L 14.0 128.0 L 15.0 128.0 L 16.0 128.0 L 17.0 128.0 L 18.0 128.0 L 19.0 128.0 L 20.0 128.0 L 21.0 128.0 L 22.0 128.0 L 23.0 128.0 L 24.0 128.0 L 25.0 128.0 L 26.0 128.0 L 27.0 128.0 L 28.0 128.0 L 29.0 128.0 L 30.0 128.0 L 31.0 128.0 L 32.0 128.0 L 33.0 128.0 L 34.0 128.0 L 35.0 128.0 L 36.0 128.0 L 37.0 128.0 L 38.0 128.0 L 39.0 128.0 L 40.0 128.0 L 41.0 128.0 L 42.0 128.0 L 43.0 128.0 L 44.0 128.0 L 45.0 128.0 L 46.0 128.0 L 47.0 128.0 L 48.0 128.0 L 49.0 128.0 L 50.0 128.0 L 51.0 128.0 L 52.0 128.0 L 53.0 128.0 L 54.0 128.0 L 55.0 128.0 L 56.0 128.0 L 57.0 128.0 L 58.0 128.0 L 59.0 128.0 L 60.0 128.0 L 61.0 128.0 L 62.0 128.0 L 63.0 128.0 L 64.0 128.0 L 65.0 128.0 L 66.0 128.0 L 67.0 128.0 L 68.0 128.0 L 69.0 128.0 L 70.0 128.0 L 71.0 128.0 L 72.0 128.0 L 73.0 128.0 L 74.0 128.0 L 75.0 128.0 L 76.0 128.0 L 77.0 128.0 L 78.0 128.0 L 79.0 128.0 L 80.0 128.0 L 81.0 128.0 L 82.0 128.0 L 83.0 128.0 L 84.0 128.0 L 85.0 128.0 L 86.0 128.0 L 87.0 128.0 L 87.5 128.0 Z" stroke="none" fill="rgb(255,255,255)" />
<path d="M 20.0 73.5 L 20.333333333333332 73.0 L 21.0 72.0 L 22.0 71.0 L 23.0 70.0 L 24.0 69.0 L 25.0 68.0 L 26.0 67.0 L 27.0 66.0 L 28.0 65.0 L 29.0 64.0 L 30.0 63.333333333333336 L 31.0 62.666666666666664 L 32.0 62.0 L 33.0 61.333333333333336 L 34.0 60.666666666666664 L 35.0 60.333333333333336 L 36.0 59.666666666666664 L 37.0 59.333333333333336 L 38.0 58.666666666666664 L 39.0 58.333333333333336 L 40.0 57.666666666666664 L 41.0 57.333333333333336 L 42.0 57.0 L 43.0 56.666666666666664 L 44.0 56.333333333333336 L 45.0 56.0 L 46.0 55.666666666666664 L 47.0 55.333333333333336 L 48.0 55.0 L 49.0 55.0 L 50.0 54.666666666666664 L 51.0 54.333333333333336 L 52.0 54.0 L 53.0 54.0 L 54.0 54.0 L 55.0 54.0 L 56.0 54.0 L 57.0 53.666666666666664 L 58.0 53.333333333333336 L 59.0 53.0 L 60.0 53.0 L 61.0 53.0 L 62.0 53.0 L 63.0 53.0 L 64.0 53.0 L 65.0 53.0 L 66.0 53.0 L 67.0 53.0 L 68.0 53.0 L 69.0 53.0 L 70.0 53.0 L 71.0 53.0 L 72.0 53.0 L 73.0 53.0 L 74.0 53.0 L 75.0 53.0 L 76.0 53.0 L 77.0 53.0 L 78.0 53.0 L 79.0 53.0 L 80.0 53.0 L 81.0 53.333333333333336 L 82.0 53.666666666666664 L 83.0 54.0 L 84.0 54.0 L 85.0 54.0 L 86.0 54.333333333333336 L 87.0 54.666666666666664 L 88.0 55.0 L 89.0 55.333333333333336 L 90.0 55.666666666666664 L 91.0 56.0 L 92.0 56.333333333333336 L 93.0 56.666666666666664 L 94.0 57.0 L 95.0 57.333333333333336 L 96.0 57.666666666666664 L 97.0 58.333333333333336 L 98.0 59.0 L 99.0 59.666666666666664 L 100.0 60.333333333333336 L 101.0 60.666666666666664 L 102.0 61.333333333333336 L 103.0 62.0 L 104.0 63.0 L 105.0 63.666666666666664 L 106.0 64.33333333333333 L 107.0 65.0 L 108.0 66.0 L 109.0 67.0 L 110.0 68.0 L 111.0 69.0 L 112.0 70.0 L 113.0 71.0 L 114.0 72.0 L 114.66666666666667 73.0 L 115.33333333333333 74.0 L 116.0 75.0 L 116.66666666666667 76.0 L 117.33333333333333 77.0 L 117.66666666666667 78.0 L 118.0 79.0 L 118.33333333333333 80.0 L 118.66666666666667 81.0 L 119.0 82.0 L 119.33333333333333 83.0 L 119.66666666666667 84.0 L 120.0 85.0 L 120.0 86.0 L 120.33333333333333 87.0 L 120.66666666666667 88.0 L 121.0 89.0 L 121.0 90.0 L 121.0 91.0 L 121.0 92.0 L 121.0 93.0 L 121.0 94.0 L 121.0 95.0 L 121.0 96.0 L 121.0 97.0 L 121.33333333333333 98.0 L 122.0 98.66666666666667 L 123.0 98.66666666666667 L 123.66666666666667 98.0 L 124.0 97.0 L 124.0 96.0 L 124.0 95.0 L 124.0 94.0 L 124.0 93.0 L 124.0 92.0 L 124.0 91.0 L 124.0 90.0 L 124.0 89.0 L 124.0 88.0 L 123.66666666666667 87.0 L 123.33333333333333 86.0 L 123.0 85.0 L 123.0 84.0 L 122.66666666666667 83.0 L 122.33333333333333 82.0 L 122.0 81.0 L 121.66666666666667 80.0 L 121.33333333333333 79.0 L 121.0 78.0 L 120.66666666666667 77.0 L 120.33333333333333 76.0 L 119.66666666666667 75.0 L 119.33333333333333 74.0 L 118.66666666666667 73.0 L 118.0 72.0 L 117.33333333333333 71.0 L 116.66666666666667 70.0 L 116.0 69.0 L 115.0 68.0 L 114.33333333333333 67.0 L 113.66666666666667 66.0 L 113.0 65.0 L 112.0 64.33333333333333 L 111.0 63.666666666666664 L 110.0 63.0 L 109.0 62.0 L 108.0 61.0 L 107.0 60.333333333333336 L 106.0 59.666666666666664 L 105.0 59.0 L 104.0 58.333333333333336 L 103.0 57.666666666666664 L 102.0 57.333333333333336 L 101.0 56.666666666666664 L 100.0 56.333333333333336 L 99.0 55.666666666666664 L 98.0 55.333333333333336 L 97.0 55.0 L 96.0 54.666666666666664 L 95.0 54.333333333333336 L 94.0 53.666666666666664 L 93.0 53.333333333333336 L 92.0 53.0 L 91.0 53.0 L 90.0 52.666666666666664 L 89.0 52.333333333333336 L 88.0 52.0 L 87.0 52.0 L 86.0 51.666666666666664 L 85.0 51.333333333333336 L 84.0 51.0 L 83.0 51.0 L 82.0 51.0 L 81.0 51.0 L 80.0 51.0 L 79.0 50.666666666666664 L 78.0 50.333333333333336 L 77.0 50.0 L 76.0 50.0 L 75.0 50.0 L 74.0 50.0 L 73.0 50.0 L 72.0 50.0 L 71.0 50.0 L 70.0 50.0 L 69.0 50.0 L 68.0 50.0 L 67.0 50.0 L 66.0 50.0 L 65.0 50.0 L 64.0 50.0 L 63.0 50.0 L 62.0 50.0 L 61.0 50.0 L 60.0 50.0 L 59.0 50.0 L 58.0 50.0 L 57.0 50.0 L 56.0 50.333333333333336 L 55.0 50.666666666666664 L 54.0 51.0 L 53.0 51.0 L 52.0 51.0 L 51.0 51.0 L 50.0 51.0 L 49.0 51.333333333333336 L 48.0 51.666666666666664 L 47.0 52.0 L 46.0 52.0 L 45.0 52.333333333333336 L 44.0 52.666666666666664 L 43.0 53.0 L 42.0 53.333333333333336 L 41.0 53.666666666666664 L 40.0 54.0 L 39.0 54.333333333333336 L 38.0 54.666666666666664 L 37.0 55.0 L 36.0 55.333333333333336 L 35.0 55.666666666666664 L 34.0 56.333333333333336 L 33.0 56.666666666666664 L 32.0 57.333333333333336 L 31.0 58.0 L 30.0 58.666666666666664 L 29.0 59.333333333333336 L 28.0 60.0 L 27.0 60.666666666666664 L 26.0 61.333333333333336 L 25.0 62.0 L 24.0 63.0 L 23.0 64.0 L 22.0 65.0 L 21.0 66.0 L 20.333333333333332 67.0 L 19.666666666666668 68.0 L 19.0 69.0 L 18.333333333333332 70.0 L 17.666666666666668 71.0 L 17.0 72.0 L 16.333333333333332 73.0 L 15.666666666666666 74.0 L 15.333333333333334 75.0 L 14.666666666666666 76.0 L 14.333333333333334 77.0 L 14.0 78.0 L 13.666666666666666 79.0 L 13.333333333333334 80.0 L 13.0 81.0 L 12.666666666666666 82.0 L 12.333333333333334 83.0 L 12.0 84.0 L 12.0 85.0 L 12.0 86.0 L 11.666666666666666 87.0 L 11.333333333333334 88.0 L 11.0 89.0 L 11.0 90.0 L 11.0 91.0 L 11.0 92.0 L 11.0 93.0 L 11.0 94.0 L 11.0 95.0 L 11.0 96.0 L 11.0 97.0 L 11.0 98.0 L 10.666666666666666 99.0 L 10.0 99.66666666666667 L 9.333333333333334 100.33333333333333 L 8.666666666666666 101.0 L 8.333333333333334 102.0 L 8.0 103.0 L 8.0 104.0 L 8.0 105.0 L 8.0 106.0 L 8.0 107.0 L 7.666666666666667 108.0 L 7.333333333333333 109.0 L 6.666666666666667 110.0 L 6.0 111.0 L 5.333333333333333 112.0 L 4.666666666666667 113.0 L 4.0 114.0 L 3.3333333333333335 115.0 L 3.0 116.0 L 3.0 117.0 L 3.0 118.0 L 3.0 119.0 L 3.3333333333333335 120.0 L 4.0 121.0 L 5.0 121.66666666666667 L 6.0 122.0 L 7.0 122.33333333333333 L 8.0 122.66666666666667 L 9.0 123.0 L 10.0 123.0 L 11.0 123.0 L 12.0 123.0 L 13.0 122.66666666666667 L 13.666666666666666 122.0 L 14.0 121.0 L 14.0 120.0 L 14.0 119.0 L 14.333333333333334 118.0 L 14.666666666666666 117.0 L 15.0 116.0 L 15.0 115.0 L 15.0 114.0 L 15.0 113.0 L 15.0 112.0 L 15.333333333333334 111.0 L 16.0 110.0 L 16.666666666666668 109.0 L 17.0 108.0 L 16.666666666666668 107.0 L 16.0 106.33333333333333 L 15.0 106.0 L 14.0 106.0 L 13.0 105.66666666666667 L 12.666666666666666 105.0 L 13.0 104.0 L 13.666666666666666 103.0 L 14.0 102.0 L 13.666666666666666 101.0 L 13.666666666666666 100.0 L 14.0 99.0 L 14.666666666666666 98.0 L 15.0 97.0 L 14.666666666666666 96.0 L 14.333333333333334 95.0 L 14.0 94.0 L 14.0 93.0 L 14.0 92.0 L 14.0 91.0 L 14.333333333333334 90.0 L 14.666666666666666 89.0 L 15.0 88.0 L 15.0 87.0 L 15.0 86.0 L 15.333333333333334 85.0 L 15.666666666666666 84.0 L 16.0 83.0 L 16.0 82.0 L 16.333333333333332 81.0 L 16.666666666666668 80.0 L 17.333333333333332 79.0 L 17.666666666666668 78.0 L 18.333333333333332 77.0 L 18.666666666666668 76.0 L 19.333333333333332 75.0 L 19.5 74.5 Z" stroke="none" fill="rgb(130,174,192)" />
<path d="M 26.5 122.5 L 27.0 122.66666666666667 L 28.0 123.33333333333333 L 29.0 123.66666666666667 L 30.0 124.0 L 31.0 124.0 L 32.0 124.0 L 33.0 124.0 L 34.0 124.0 L 35.0 124.0 L 36.0 124.0 L 37.0 123.66666666666667 L 38.0 123.33333333333333 L 39.0 123.0 L 40.0 123.0 L 41.0 123.0 L 42.0 123.0 L 43.0 123.0 L 44.0 123.0 L 45.0 123.0 L 46.0 123.0 L 47.0 123.0 L 48.0 123.0 L 49.0 123.0 L 50.0 123.0 L 51.0 123.0 L 52.0 123.0 L 53.0 123.0 L 54.0 123.0 L 55.0 123.0 L 56.0 123.0 L 57.0 123.0 L 58.0 123.0 L 59.0 123.0 L 60.0 123.0 L 61.0 123.0 L 62.0 123.0 L 63.0 123.0 L 64.0 123.0 L 65.0 123.0 L 66.0 123.0 L 67.0 123.0 L 68.0 123.0 L 69.0 123.0 L 70.0 123.0 L 71.0 123.0 L 72.0 123.0 L 73.0 123.0 L 74.0 123.0 L 75.0 123.0 L 76.0 123.0 L 77.0 123.0 L 78.0 123.0 L 79.0 123.0 L 80.0 123.0 L 81.0 123.0 L 82.0 123.0 L 83.0 123.0 L 84.0 123.0 L 85.0 123.0 L 86.0 123.0 L 87.0 123.0 L 88.0 123.0 L 89.0 123.0 L 90.0 123.0 L 91.0 123.0 L 92.0 123.0 L 93.0 123.0 L 94.0 123.0 L 95.0 123.0 L 96.0 123.0 L 97.0 123.0 L 98.0 123.33333333333333 L 99.0 123.66666666666667 L 100.0 124.0 L 101.0 124.0 L 102.0 124.0 L 103.0 124.0 L 104.0 124.0 L 105.0 124.0 L 106.0 123.66666666666667 L 107.0 123.33333333333333 L 108.0 122.66666666666667 L 109.0 122.33333333333333 L 109.66666666666667 121.66666666666667 L 110.33333333333333 121.0 L 111.0 120.0 L 111.66666666666667 119.0 L 112.33333333333333 118.0 L 112.66666666666667 117.0 L 113.33333333333333 116.0 L 114.0 115.0 L 114.66666666666667 114.0 L 115.33333333333333 113.0 L 115.66666666666667 112.0 L 116.33333333333333 111.0 L 117.0 110.0 L 117.66666666666667 109.0 L 118.33333333333333 108.0 L 119.0 107.0 L 119.66666666666667 106.0 L 120.33333333333333 105.0 L 120.66666666666667 104.0 L 121.33333333333333 103.0 L 122.0 102.0 L 122.66666666666667 101.0 L 123.0 100.0 L 122.66666666666667 99.0 L 122.0 98.0 L 121.0 97.0 L 120.0 96.0 L 119.0 95.0 L 118.33333333333333 94.0 L 118.0 93.0 L 118.0 92.0 L 118.0 91.0 L 118.0 90.0 L 117.66666666666667 89.0 L 117.33333333333333 88.0 L 117.0 87.0 L 117.0 86.0 L 116.66666666666667 85.0 L 116.33333333333333 84.0 L 116.0 83.0 L 116.0 82.0 L 115.66666666666667 81.0 L 115.33333333333333 80.0 L 114.66666666666667 79.0 L 114.33333333333333 78.0 L 113.66666666666667 77.0 L 113.0 76.33333333333333 L 112.0 76.0 L 111.0 76.0 L 110.0 76.0 L 109.0 76.33333333333333 L 108.0 77.0 L 107.33333333333333 78.0 L 107.0 79.0 L 106.66666666666667 80.0 L 106.33333333333333 81.0 L 105.66666666666667 82.0 L 105.33333333333333 83.0 L 105.0 84.0 L 105.0 85.0 L 105.0 86.0 L 104.66666666666667 87.0 L 104.33333333333333 88.0 L 104.0 89.0 L 104.0 90.0 L 104.0 91.0 L 104.0 92.0 L 104.33333333333333 93.0 L 104.66666666666667 94.0 L 105.33333333333333 95.0 L 105.66666666666667 96.0 L 106.33333333333333 97.0 L 106.66666666666667 98.0 L 107.0 99.0 L 107.33333333333333 100.0 L 107.66666666666667 101.0 L 108.0 102.0 L 108.0 103.0 L 108.0 104.0 L 108.0 105.0 L 108.0 106.0 L 108.0 107.0 L 108.0 108.0 L 108.0 109.0 L 107.66666666666667 110.0 L 107.0 111.0 L 106.0 112.0 L 105.0 113.0 L 104.0 114.0 L 103.0 115.0 L 102.0 115.66666666666667 L 101.0 116.0 L 100.0 116.0 L 99.0 116.0 L 98.0 116.0 L 97.0 116.0 L 96.0 116.0 L 95.0 116.0 L 94.0 116.0 L 93.0 116.0 L 92.0 116.0 L 91.0 116.0 L 90.0 116.0 L 89.0 116.0 L 88.0 116.0 L 87.0 116.0 L 86.0 116.0 L 85.0 116.0 L 84.0 116.0 L 83.0 116.0 L 82.0 116.0 L 81.0 116.0 L 80.0 116.0 L 79.0 116.0 L 78.0 116.0 L 77.0 116.0 L 76.0 116.0 L 75.0 116.0 L 74.0 116.0 L 73.0 116.0 L 72.0 116.0 L 71.0 116.0 L 70.0 116.0 L 69.0 116.0 L 68.0 116.0 L 67.0 116.0 L 66.0 116.0 L 65.0 116.0 L 64.0 116.0 L 63.0 116.0 L 62.0 116.0 L 61.0 116.0 L 60.0 116.0 L 59.0 116.0 L 58.0 116.0 L 57.0 116.0 L 56.0 116.0 L 55.0 116.0 L 54.0 116.0 L 53.0 116.0 L 52.0 116.0 L 51.0 116.0 L 50.0 116.0 L 49.0 116.0 L 48.0 116.0 L 47.0 116.0 L 46.0 116.0 L 45.0 116.0 L 44.0 116.0 L 43.0 116.0 L 42.0 116.0 L 41.0 116.0 L 40.0 116.0 L 39.0 116.0 L 38.0 116.0 L 37.0 116.0 L 36.0 116.0 L 35.0 115.66666666666667 L 34.0 115.33333333333333 L 33.0 114.66666666666667 L 32.0 114.0 L 31.0 113.0 L 30.0 112.0 L 29.0 111.0 L 28.333333333333332 110.0 L 28.0 109.0 L 28.0 108.0 L 28.0 107.0 L 28.0 106.0 L 28.0 105.0 L 28.0 104.0 L 28.0 103.0 L 28.0 102.0 L 28.333333333333332 101.0 L 28.666666666666668 100.0 L 29.0 99.0 L 29.333333333333332 98.0 L 29.666666666666668 97.0 L 30.0 96.0 L 30.333333333333332 95.0 L 30.666666666666668 94.0 L 31.0 93.0 L 31.0 92.0 L 31.0 91.0 L 31.0 90.0 L 31.0 89.0 L 31.0 88.0 L 30.666666666666668 87.0 L 30.333333333333332 86.0 L 30.0 85.0 L 30.0 84.0 L 30.0 83.0 L 29.666666666666668 82.0 L 29.333333333333332 81.0 L 29.0 80.0 L 28.666666666666668 79.0 L 28.0 78.0 L 27.0 77.0 L 26.0 76.33333333333333 L 25.0 76.0 L 24.0 76.0 L 23.0 76.33333333333333 L 22.0 77.0 L 21.333333333333332 78.0 L 20.666666666666668 79.0 L 20.333333333333332 80.0 L 19.666666666666668 81.0 L 19.333333333333332 82.0 L 19.0 83.0 L 19.0 84.0 L 18.666666666666668 85.0 L 18.333333333333332 86.0 L 18.0 87.0 L 18.0 88.0 L 18.0 89.0 L 18.0 90.0 L 17.666666666666668 91.0 L 17.333333333333332 92.0 L 17.0 93.0 L 17.0 94.0 L 16.666666666666668 95.0 L 16.0 96.0 L 15.0 97.0 L 14.0 98.0 L 13.333333333333334 99.0 L 13.0 100.0 L 13.333333333333334 101.0 L 13.666666666666666 102.0 L 14.0 103.0 L 14.333333333333334 104.0 L 15.0 105.0 L 15.666666666666666 106.0 L 16.333333333333332 107.0 L 16.666666666666668 108.0 L 17.333333333333332 109.0 L 18.0 110.0 L 18.666666666666668 111.0 L 19.333333333333332 112.0 L 19.666666666666668 113.0 L 20.333333333333332 114.0 L 21.0 115.0 L 21.666666666666668 116.0 L 22.333333333333332 117.0 L 22.666666666666668 118.0 L 23.333333333333332 119.0 L 24.0 120.0 L 24.666666666666668 121.0 L 25.333333333333332 121.66666666666667 L 25.5 122.0 Z" stroke="none" fill="rgb(242,166,0)" />
<path d="M 59.5 116.0 L 60.0 116.0 L 61.0 116.0 L 62.0 116.0 L 63.0 116.0 L 64.0 116.0 L 65.0 116.0 L 66.0 116.0 L 67.0 116.0 L 68.0 116.0 L 69.0 116.0 L 70.0 116.0 L 71.0 116.0 L 72.0 116.0 L 73.0 116.0 L 74.0 116.0 L 75.0 116.0 L 76.0 116.0 L 77.0 116.0 L 78.0 116.0 L 79.0 116.0 L 80.0 116.0 L 81.0 116.0 L 82.0 116.0 L 83.0 116.0 L 84.0 116.0 L 85.0 116.0 L 86.0 116.0 L 87.0 116.0 L 88.0 116.0 L 89.0 116.0 L 90.0 116.0 L 91.0 116.0 L 92.0 116.0 L 93.0 116.0 L 94.0 116.0 L 95.0 116.0 L 96.0 116.0 L 97.0 116.0 L 98.0 116.0 L 99.0 116.0 L 100.0 116.0 L 101.0 116.0 L 102.0 116.0 L 103.0 115.66666666666667 L 104.0 115.0 L 105.0 114.0 L 106.0 113.0 L 107.0 112.0 L 107.66666666666667 111.0 L 108.0 110.0 L 108.0 109.0 L 108.0 108.0 L 108.0 107.0 L 108.0 106.0 L 108.0 105.0 L 108.0 104.0 L 108.0 103.0 L 108.0 102.0 L 108.0 101.0 L 107.66666666666667 100.0 L 107.33333333333333 99.0 L 107.0 98.0 L 106.66666666666667 97.0 L 106.33333333333333 96.0 L 105.66666666666667 95.0 L 105.33333333333333 94.0 L 104.66666666666667 93.0 L 104.33333333333333 92.0 L 104.0 91.0 L 104.0 90.0 L 104.33333333333333 89.0 L 104.66666666666667 88.0 L 105.0 87.0 L 105.0 86.0 L 105.0 85.0 L 105.33333333333333 84.0 L 105.66666666666667 83.0 L 106.33333333333333 82.0 L 106.66666666666667 81.0 L 107.0 80.0 L 107.33333333333333 79.0 L 108.0 78.0 L 109.0 77.0 L 110.0 76.33333333333333 L 111.0 76.0 L 111.66666666666667 75.66666666666667 L 112.0 75.0 L 111.66666666666667 74.0 L 111.0 73.0 L 110.0 72.0 L 109.0 71.0 L 108.0 70.0 L 107.0 69.0 L 106.0 68.0 L 105.0 67.0 L 104.0 66.0 L 103.0 65.33333333333333 L 102.0 64.66666666666667 L 101.0 64.33333333333333 L 100.0 63.666666666666664 L 99.0 63.333333333333336 L 98.0 62.666666666666664 L 97.0 62.333333333333336 L 96.0 61.666666666666664 L 95.0 61.333333333333336 L 94.0 60.666666666666664 L 93.0 60.333333333333336 L 92.0 60.0 L 91.0 59.666666666666664 L 90.0 59.333333333333336 L 89.0 59.0 L 88.0 59.0 L 87.0 58.666666666666664 L 86.0 58.333333333333336 L 85.0 58.0 L 84.0 58.0 L 83.0 58.0 L 82.0 57.666666666666664 L 81.0 57.333333333333336 L 80.0 57.0 L 79.0 57.0 L 78.0 57.0 L 77.0 57.0 L 76.0 57.0 L 75.0 57.0 L 74.0 57.0 L 73.0 57.0 L 72.0 57.0 L 71.0 57.0 L 70.0 57.0 L 69.0 57.0 L 68.0 57.0 L 67.0 57.0 L 66.0 57.0 L 65.0 57.0 L 64.0 57.0 L 63.0 57.0 L 62.0 57.0 L 61.0 57.333333333333336 L 60.0 57.666666666666664 L 59.0 58.0 L 58.0 58.0 L 57.0 58.0 L 56.0 58.0 L 55.0 58.0 L 54.0 58.0 L 53.0 58.0 L 52.0 58.333333333333336 L 51.0 58.666666666666664 L 50.0 59.0 L 49.0 59.0 L 48.0 59.0 L 47.0 59.333333333333336 L 46.0 59.666666666666664 L 45.0 60.0 L 44.0 60.333333333333336 L 43.0 60.666666666666664 L 42.0 61.0 L 41.0 61.333333333333336 L 40.0 61.666666666666664 L 39.0 62.333333333333336 L 38.0 62.666666666666664 L 37.0 63.0 L 36.0 63.333333333333336 L 35.0 64.0 L 34.0 64.66666666666667 L 33.0 65.33333333333333 L 32.0 66.0 L 31.0 66.66666666666667 L 30.0 67.33333333333333 L 29.0 68.0 L 28.0 69.0 L 27.0 70.0 L 26.0 71.0 L 25.0 72.0 L 24.0 73.0 L 23.333333333333332 74.0 L 23.0 75.0 L 23.333333333333332 75.66666666666667 L 24.0 76.0 L 25.0 76.33333333333333 L 26.0 77.0 L 27.0 78.0 L 28.0 79.0 L 28.666666666666668 80.0 L 29.0 81.0 L 29.333333333333332 82.0 L 29.666666666666668 83.0 L 30.0 84.0 L 30.0 85.0 L 30.0 86.0 L 30.333333333333332 87.0 L 30.666666666666668 88.0 L 31.0 89.0 L 31.0 90.0 L 31.0 91.0 L 31.0 92.0 L 30.666666666666668 93.0 L 30.333333333333332 94.0 L 30.0 95.0 L 29.666666666666668 96.0 L 29.333333333333332 97.0 L 29.0 98.0 L 28.666666666666668 99.0 L 28.333333333333332 100.0 L 28.0 101.0 L 28.0 102.0 L 28.0 103.0 L 28.0 104.0 L 28.0 105.0 L 28.0 106.0 L 28.0 107.0 L 28.0 108.0 L 28.0 109.0 L 28.0 110.0 L 28.333333333333332 111.0 L 29.0 112.0 L 30.0 113.0 L 31.0 114.0 L 32.0 114.66666666666667 L 33.0 115.33333333333333 L 34.0 115.66666666666667 L 35.0 116.0 L 36.0 116.0 L 37.0 116.0 L 38.0 116.0 L 39.0 116.0 L 40.0 116.0 L 41.0 116.0 L 42.0 116.0 L 43.0 116.0 L 44.0 116.0 L 45.0 116.0 L 46.0 116.0 L 47.0 116.0 L 48.0 116.0 L 49.0 116.0 L 50.0 116.0 L 51.0 116.0 L 52.0 116.0 L 53.0 116.0 L 54.0 116.0 L 55.0 116.0 L 56.0 116.0 L 57.0 116.0 L 58.0 116.0 L 58.5 116.0 Z" stroke="none" fill="rgb(255,193,7)" />
<path d="M 57.5 58.0 L 58.0 58.0 L 59.0 58.0 L 60.0 58.0 L 61.0 57.666666666666664 L 62.0 57.333333333333336 L 63.0 57.0 L 64.0 57.0 L 65.0 57.0 L 66.0 57.0 L 67.0 57.0 L 68.0 57.0 L 69.0 57.0 L 70.0 57.0 L 71.0 57.0 L 72.0 57.0 L 73.0 57.0 L 74.0 57.0 L 75.0 57.0 L 76.0 57.0 L 77.0 57.0 L 78.0 57.0 L 79.0 57.0 L 80.0 57.333333333333336 L 81.0 57.666666666666664 L 82.0 58.0 L 83.0 58.0 L 84.0 58.0 L 85.0 58.333333333333336 L 86.0 58.666666666666664 L 87.0 59.0 L 88.0 59.0 L 89.0 59.333333333333336 L 90.0 59.666666666666664 L 91.0 60.0 L 92.0 60.333333333333336 L 93.0 60.666666666666664 L 94.0 61.333333333333336 L 95.0 61.666666666666664 L 96.0 62.333333333333336 L 97.0 62.666666666666664 L 98.0 63.333333333333336 L 99.0 63.666666666666664 L 100.0 64.33333333333333 L 101.0 64.66666666666667 L 102.0 65.33333333333333 L 103.0 66.0 L 104.0 67.0 L 105.0 68.0 L 106.0 69.0 L 107.0 70.0 L 108.0 71.0 L 109.0 72.0 L 110.0 73.0 L 111.0 74.0 L 111.66666666666667 75.0 L 112.33333333333333 76.0 L 113.0 77.0 L 113.66666666666667 78.0 L 114.33333333333333 79.0 L 114.66666666666667 80.0 L 115.33333333333333 81.0 L 115.66666666666667 82.0 L 116.0 83.0 L 116.0 84.0 L 116.33333333333333 85.0 L 116.66666666666667 86.0 L 117.0 87.0 L 117.0 88.0 L 117.33333333333333 89.0 L 117.66666666666667 90.0 L 118.0 91.0 L 118.0 92.0 L 118.0 93.0 L 118.0 94.0 L 118.33333333333333 95.0 L 119.0 96.0 L 120.0 96.66666666666667 L 120.66666666666667 96.66666666666667 L 121.0 96.0 L 121.0 95.0 L 121.0 94.0 L 121.0 93.0 L 121.0 92.0 L 121.0 91.0 L 121.0 90.0 L 121.0 89.0 L 121.0 88.0 L 120.66666666666667 87.0 L 120.33333333333333 86.0 L 120.0 85.0 L 120.0 84.0 L 119.66666666666667 83.0 L 119.33333333333333 82.0 L 119.0 81.0 L 118.66666666666667 80.0 L 118.33333333333333 79.0 L 118.0 78.0 L 117.66666666666667 77.0 L 117.33333333333333 76.0 L 116.66666666666667 75.0 L 116.0 74.0 L 115.33333333333333 73.0 L 114.66666666666667 72.0 L 114.0 71.0 L 113.0 70.0 L 112.0 69.0 L 111.0 68.0 L 110.0 67.0 L 109.0 66.0 L 108.0 65.0 L 107.0 64.33333333333333 L 106.0 63.666666666666664 L 105.0 63.0 L 104.0 62.0 L 103.0 61.333333333333336 L 102.0 60.666666666666664 L 101.0 60.333333333333336 L 100.0 59.666666666666664 L 99.0 59.0 L 98.0 58.333333333333336 L 97.0 57.666666666666664 L 96.0 57.333333333333336 L 95.0 57.0 L 94.0 56.666666666666664 L 93.0 56.333333333333336 L 92.0 56.0 L 91.0 55.666666666666664 L 90.0 55.333333333333336 L 89.0 55.0 L 88.0 54.666666666666664 L 87.0 54.333333333333336 L 86.0 54.0 L 85.0 54.0 L 84.0 54.0 L 83.0 53.666666666666664 L 82.0 53.333333333333336 L 81.0 53.0 L 80.0 53.0 L 79.0 53.0 L 78.0 53.0 L 77.0 53.0 L 76.0 53.0 L 75.0 53.0 L 74.0 53.0 L 73.0 53.0 L 72.0 53.0 L 71.0 53.0 L 70.0 53.0 L 69.0 53.0 L 68.0 53.0 L 67.0 53.0 L 66.0 53.0 L 65.0 53.0 L 64.0 53.0 L 63.0 53.0 L 62.0 53.0 L 61.0 53.0 L 60.0 53.0 L 59.0 53.0 L 58.0 53.0 L 57.0 53.333333333333336 L 56.0 53.666666666666664 L 55.0 54.0 L 54.0 54.0 L 53.0 54.0 L 52.0 54.0 L 51.0 54.0 L 50.0 54.333333333333336 L 49.0 54.666666666666664 L 48.0 55.0 L 47.0 55.0 L 46.0 55.333333333333336 L 45.0 55.666666666666664 L 44.0 56.0 L 43.0 56.333333333333336 L 42.0 56.666666666666664 L 41.0 57.0 L 40.0 57.333333333333336 L 39.0 57.666666666666664 L 38.0 58.333333333333336 L 37.0 58.666666666666664 L 36.0 59.333333333333336 L 35.0 59.666666666666664 L 34.0 60.333333333333336 L 33.0 60.666666666666664 L 32.0 61.333333333333336 L 31.0 62.0 L 30.0 62.666666666666664 L 29.0 63.333333333333336 L 28.0 64.0 L 27.0 65.0 L 26.0 66.0 L 25.0 67.0 L 24.0 68.0 L 23.0 69.0 L 22.0 70.0 L 21.0 71.0 L 20.333333333333332 72.0 L 19.666666666666668 73.0 L 19.333333333333332 74.0 L 18.666666666666668 75.0 L 18.333333333333332 76.0 L 17.666666666666668 77.0 L 17.333333333333332 78.0 L 16.666666666666668 79.0 L 16.333333333333332 80.0 L 16.0 81.0 L 16.0 82.0 L 15.666666666666666 83.0 L 15.333333333333334 84.0 L 15.0 85.0 L 15.0 86.0 L 15.0 87.0 L 14.666666666666666 88.0 L 14.333333333333334 89.0 L 14.0 90.0 L 14.0 91.0 L 14.0 92.0 L 14.0 93.0 L 14.0 94.0 L 14.0 95.0 L 14.333333333333334 96.0 L 15.0 96.66666666666667 L 16.0 96.66666666666667 L 16.666666666666668 96.0 L 17.0 95.0 L 17.0 94.0 L 17.333333333333332 93.0 L 17.666666666666668 92.0 L 18.0 91.0 L 18.0 90.0 L 18.0 89.0 L 18.0 88.0 L 18.333333333333332 87.0 L 18.666666666666668 86.0 L 19.0 85.0 L 19.0 84.0 L 19.333333333333332 83.0 L 19.666666666666668 82.0 L 20.333333333333332 81.0 L 20.666666666666668 80.0 L 21.333333333333332 79.0 L 22.0 78.0 L 22.666666666666668 77.0 L 23.0 76.0 L 23.333333333333332 75.0 L 24.0 74.0 L 25.0 73.0 L 26.0 72.0 L 27.0 71.0 L 28.0 70.0 L 29.0 69.0 L 30.0 68.0 L 31.0 67.33333333333333 L 32.0 66.66666666666667 L 33.0 66.0 L 34.0 65.33333333333333 L 35.0 64.66666666666667 L 36.0 64.0 L 37.0 63.333333333333336 L 38.0 63.0 L 39.0 62.666666666666664 L 40.0 62.333333333333336 L 41.0 61.666666666666664 L 42.0 61.333333333333336 L 43.0 61.0 L 44.0 60.666666666666664 L 45.0 60.333333333333336 L 46.0 60.0 L 47.0 59.666666666666664 L 48.0 59.333333333333336 L 49.0 59.0 L 50.0 59.0 L 51.0 59.0 L 52.0 58.666666666666664 L 53.0 58.333333333333336 L 54.0 58.0 L 55.0 58.0 L 56.0 58.0 L 56.5 58.0 Z" stroke="none" fill="rgb(255,227,108)" />
<path d="M 8.5 119.5 L 9.0 119.0 L 9.666666666666666 118.0 L 10.0 117.0 L 10.0 116.0 L 10.333333333333334 115.0 L 10.666666666666666 114.0 L 11.0 113.0 L 11.0 112.0 L 11.0 111.0 L 10.666666666666666 110.33333333333333 L 10.0 110.0 L 9.0 110.33333333333333 L 8.333333333333334 111.0 L 7.666666666666667 112.0 L 7.333333333333333 113.0 L 6.666666666666667 114.0 L 6.333333333333333 115.0 L 5.666666666666667 116.0 L 5.333333333333333 117.0 L 5.0 118.0 L 5.333333333333333 119.0 L 6.0 119.66666666666667 L 7.0 120.0 L 7.5 120.0 Z" stroke="none" fill="rgb(148,208,223)" />
<path d="M 14.5 106.0 L 14.666666666666666 105.66666666666667 L 15.0 105.0 L 14.666666666666666 104.0 L 14.0 103.33333333333333 L 13.0 103.33333333333333 L 12.333333333333334 104.0 L 12.0 105.0 L 12.333333333333334 105.66666666666667 L 13.0 106.0 L 13.5 106.0 Z" stroke="none" fill="rgb(255,255,255)" />
<path d="M 15.5 106.0 L 15.666666666666666 105.66666666666667 L 15.666666666666666 105.33333333333333 L 15.333333333333334 105.33333333333333 L 15.0 105.5 Z" stroke="none" fill="rgb(0,0,0)" />
</svg>
