<?xml version="1.0" encoding="UTF-8" standalone="no"?>
<!DOCTYPE svg PUBLIC "-//W3C//DTD SVG 1.1//EN"
"http://www.w3.org/Graphics/SVG/1.1/DTD/svg11.dtd">
<svg width="128" height="128" xmlns="http://www.w3.org/2000/svg" version="1.1">
<path d="M 26.5 128.0 L 27.0 128.0 L 28.0 128.0 L 29.0 128.0 L 30.0 128.0 L 31.0 128.0 L 32.0 128.0 L 33.0 128.0 L 34.0 128.0 L 35.0 128.0 L 36.0 128.0 L 37.0 128.0 L 38.0 128.0 L 39.0 128.0 L 40.0 128.0 L 41.0 128.0 L 42.0 128.0 L 43.0 128.0 L 44.0 128.0 L 45.0 128.0 L 46.0 128.0 L 47.0 128.0 L 48.0 128.0 L 49.0 128.0 L 50.0 128.0 L 51.0 128.0 L 52.0 128.0 L 53.0 128.0 L 54.0 128.0 L 55.0 128.0 L 56.0 128.0 L 57.0 128.0 L 58.0 128.0 L 59.0 128.0 L 60.0 128.0 L 61.0 128.0 L 62.0 128.0 L 63.0 128.0 L 64.0 128.0 L 65.0 128.0 L 66.0 128.0 L 67.0 128.0 L 68.0 128.0 L 69.0 128.0 L 70.0 128.0 L 71.0 128.0 L 72.0 128.0 L 73.0 128.0 L 74.0 128.0 L 75.0 128.0 L 76.0 128.0 L 77.0 128.0 L 78.0 128.0 L 79.0 128.0 L 80.0 128.0 L 81.0 128.0 L 82.0 128.0 L 83.0 128.0 L 84.0 128.0 L 85.0 128.0 L 86.0 128.0 L 87.0 128.0 L 88.0 128.0 L 89.0 128.0 L 90.0 128.0 L 91.0 128.0 L 92.0 128.0 L 93.0 128.0 L 94.0 128.0 L 95.0 128.0 L 96.0 128.0 L 97.0 128.0 L 98.0 128.0 L 99.0 128.0 L 100.0 128.0 L 101.0 128.0 L 102.0 128.0 L 103.0 128.0 L 104.0 128.0 L 105.0 128.0 L 106.0 128.0 L 107.0 128.0 L 108.0 128.0 L 109.0 128.0 L 110.0 128.0 L 111.0 128.0 L 112.0 128.0 L 113.0 128.0 L 114.0 128.0 L 115.0 128.0 L 116.0 128.0 L 117.0 128.0 L 118.0 128.0 L 119.0 128.0 L 120.0 128.0 L 121.0 128.0 L 122.0 128.0 L 123.0 128.0 L 124.0 128.0 L 125.0 128.0 L 126.0 128.0 L 127.0 128.0 L 127.66666666666667 127.66666666666667 L 128.0 127.0 L 128.0 126.0 L 128.0 125.0 L 128.0 124.0 L 128.0 123.0 L 128.0 122.0 L 128.0 121.0 L 128.0 120.0 L 128.0 119.0 L 128.0 118.0 L 128.0 117.0 L 128.0 116.0 L 128.0 115.0 L 128.0 114.0 L 128.0 113.0 L 128.0 112.0 L 128.0 111.0 L 128.0 110.0 L 128.0 109.0 L 128.0 108.0 L 128.0 107.0 L 128.0 106.0 L 128.0 105.0 L 128.0 104.0 L 128.0 103.0 L 128.0 102.0 L 128.0 101.0 L 128.0 100.0 L 128.0 99.0 L 128.0 98.0 L 128.0 97.0 L 128.0 96.0 L 128.0 95.0 L 128.0 94.0 L 128.0 93.0 L 128.0 92.0 L 128.0 91.0 L 128.0 90.0 L 128.0 89.0 L 128.0 88.0 L 128.0 87.0 L 128.0 86.0 L 128.0 85.0 L 128.0 84.0 L 128.0 83.0 L 128.0 82.0 L 128.0 81.0 L 128.0 80.0 L 128.0 79.0 L 128.0 78.0 L 128.0 77.0 L 128.0 76.0 L 128.0 75.0 L 128.0 74.0 L 128.0 73.0 L 128.0 72.0 L 128.0 71.0 L 128.0 70.0 L 128.0 69.0 L 128.0 68.0 L 128.0 67.0 L 128.0 66.0 L 128.0 65.0 L 128.0 64.0 L 128.0 63.0 L 128.0 62.0 L 128.0 61.0 L 128.0 60.0 L 128.0 59.0 L 128.0 58.0 L 128.0 57.0 L 128.0 56.0 L 128.0 55.0 L 128.0 54.0 L 128.0 53.0 L 128.0 52.0 L 128.0 51.0 L 128.0 50.0 L 128.0 49.0 L 128.0 48.0 L 128.0 47.0 L 128.0 46.0 L 128.0 45.0 L 128.0 44.0 L 128.0 43.0 L 128.0 42.0 L 128.0 41.0 L 128.0 40.0 L 128.0 39.0 L 128.0 38.0 L 128.0 37.0 L 128.0 36.0 L 128.0 35.0 L 128.0 34.0 L 128.0 33.0 L 128.0 32.0 L 128.0 31.0 L 128.0 30.0 L 128.0 29.0 L 128.0 28.0 L 128.0 27.0 L 128.0 26.0 L 128.0 25.0 L 128.0 24.0 L 128.0 23.0 L 128.0 22.0 L 128.0 21.0 L 128.0 20.0 L 128.0 19.0 L 128.0 18.0 L 128.0 17.0 L 128.0 16.0 L 128.0 15.0 L 128.0 14.0 L 128.0 13.0 L 128.0 12.0 L 128.0 11.0 L 128.0 10.0 L 128.0 9.0 L 128.0 8.0 L 128.0 7.0 L 128.0 6.0 L 128.0 5.0 L 128.0 4.0 L 128.0 3.0 L 128.0 2.0 L 128.0 1.0 L 127.66666666666667 0.3333333333333333 L 127.0 0.0 L 126.0 0.0 L 125.0 0.0 L 124.0 0.0 L 123.0 0.0 L 122.0 0.0 L 121.0 0.0 L 120.0 0.0 L 119.0 0.0 L 118.0 0.0 L 117.0 0.0 L 116.0 0.0 L 115.0 0.0 L 114.0 0.0 L 113.0 0.0 L 112.0 0.0 L 111.0 0.0 L 110.0 0.0 L 109.0 0.0 L 108.0 0.0 L 107.0 0.0 L 106.0 0.0 L 105.0 0.0 L 104.0 0.0 L 103.0 0.0 L 102.0 0.0 L 101.0 0.0 L 100.0 0.0 L 99.0 0.0 L 98.0 0.0 L 97.0 0.0 L 96.0 0.0 L 95.0 0.0 L 94.0 0.0 L 93.0 0.0 L 92.0 0.0 L 91.0 0.0 L 90.0 0.0 L 89.0 0.0 L 88.0 0.0 L 87.0 0.0 L 86.0 0.0 L 85.0 0.0 L 84.0 0.0 L 83.0 0.0 L 82.0 0.0 L 81.0 0.0 L 80.0 0.0 L 79.0 0.0 L 78.0 0.0 L 77.0 0.0 L 76.0 0.0 L 75.0 0.0 L 74.0 0.0 L 73.0 0.0 L 72.0 0.0 L 71.0 0.0 L 70.0 0.0 L 69.0 0.0 L 68.0 0.0 L 67.0 0.0 L 66.0 0.0 L 65.0 0.0 L 64.0 0.0 L 63.0 0.0 L 62.0 0.0 L 61.0 0.0 L 60.0 0.0 L 59.0 0.0 L 58.0 0.0 L 57.0 0.0 L 56.0 0.0 L 55.0 0.0 L 54.0 0.0 L 53.0 0.0 L 52.0 0.0 L 51.0 0.0 L 50.0 0.0 L 49.0 0.0 L 48.0 0.0 L 47.0 0.0 L 46.0 0.0 L 45.0 0.0 L 44.0 0.0 L 43.0 0.0 L 42.0 0.0 L 41.0 0.0 L 40.0 0.0 L 39.0 0.0 L 38.0 0.0 L 37.0 0.0 L 36.0 0.0 L 35.0 0.0 L 34.0 0.0 L 33.0 0.0 L 32.0 0.0 L 31.0 0.0 L 30.0 0.0 L 29.0 0.0 L 28.0 0.0 L 27.0 0.0 L 26.0 0.0 L 25.0 0.0 L 24.0 0.0 L 23.0 0.0 L 22.0 0.0 L 21.0 0.0 L 20.0 0.0 L 19.0 0.0 L 18.0 0.0 L 17.0 0.0 L 16.0 0.0 L 15.0 0.0 L 14.0 0.0 L 13.0 0.0 L 12.0 0.0 L 11.0 0.0 L 10.0 0.0 L 9.0 0.0 L 8.0 0.0 L 7.0 0.0 L 6.0 0.0 L 5.0 0.0 L 4.0 0.0 L 3.0 0.0 L 2.0 0.0 L 1.0 0.0 L 0.3333333333333333 0.3333333333333333 L 0.0 1.0 L 0.0 2.0 L 0.0 3.0 L 0.0 4.0 L 0.0 5.0 L 0.0 6.0 L 0.0 7.0 L 0.0 8.0 L 0.0 9.0 L 0.0 10.0 L 0.0 11.0 L 0.0 12.0 L 0.0 13.0 L 0.0 14.0 L 0.0 15.0 L 0.0 16.0 L 0.0 17.0 L 0.0 18.0 L 0.0 19.0 L 0.0 20.0 L 0.0 21.0 L 0.0 22.0 L 0.0 23.0 L 0.0 24.0 L 0.0 25.0 L 0.0 26.0 L 0.0 27.0 L 0.0 28.0 L 0.0 29.0 L 0.0 30.0 L 0.0 31.0 L 0.0 32.0 L 0.0 33.0 L 0.0 34.0 L 0.0 35.0 L 0.0 36.0 L 0.0 37.0 L 0.0 38.0 L 0.0 39.0 L 0.0 40.0 L 0.0 41.0 L 0.0 42.0 L 0.0 43.0 L 0.0 44.0 L 0.0 45.0 L 0.0 46.0 L 0.0 47.0 L 0.0 48.0 L 0.0 49.0 L 0.0 50.0 L 0.0 51.0 L 0.0 52.0 L 0.0 53.0 L 0.0 54.0 L 0.0 55.0 L 0.0 56.0 L 0.0 57.0 L 0.0 58.0 L 0.0 59.0 L 0.0 60.0 L 0.0 61.0 L 0.0 62.0 L 0.0 63.0 L 0.0 64.0 L 0.0 65.0 L 0.0 66.0 L 0.0 67.0 L 0.0 68.0 L 0.0 69.0 L 0.0 70.0 L 0.0 71.0 L 0.0 72.0 L 0.0 73.0 L 0.0 74.0 L 0.0 75.0 L 0.0 76.0 L 0.0 77.0 L 0.0 78.0 L 0.0 79.0 L 0.0 80.0 L 0.0 81.0 L 0.0 82.0 L 0.0 83.0 L 0.0 84.0 L 0.0 85.0 L 0.0 86.0 L 0.0 87.0 L 0.0 88.0 L 0.0 89.0 L 0.0 90.0 L 0.0 91.0 L 0.0 92.0 L 0.0 93.0 L 0.0 94.0 L 0.0 95.0 L 0.0 96.0 L 0.0 97.0 L 0.0 98.0 L 0.0 99.0 L 0.0 100.0 L 0.0 101.0 L 0.0 102.0 L 0.0 103.0 L 0.0 104.0 L 0.0 105.0 L 0.0 106.0 L 0.0 107.0 L 0.0 108.0 L 0.0 109.0 L 0.0 110.0 L 0.0 111.0 L 0.0 112.0 L 0.0 113.0 L 0.0 114.0 L 0.0 115.0 L 0.0 116.0 L 0.0 117.0 L 0.0 118.0 L 0.0 119.0 L 0.0 120.0 L 0.0 121.0 L 0.0 122.0 L 0.0 123.0 L 0.0 124.0 L 0.0 125.0 L 0.0 126.0 L 0.0 127.0 L 0.3333333333333333 127.66666666666667 L 1.0 128.0 L 2.0 128.0 L 3.0 128.0 L 4.0 128.0 L 5.0 128.0 L 6.0 128.0 L 7.0 128.0 L 8.0 128.0 L 9.0 128.0 L 10.0 128.0 L 11.0 128.0 L 12.0 128.0 L 13.0 128.0 L 14.0 128.0 L 15.0 128.0 L 16.0 128.0 L 17.0 128.0 L 18.0 128.0 L 19.0 128.0 L 20.0 128.0 L 21.0 128.0 L 22.0 128.0 L 23.0 128.0 L 24.0 128.0 L 25.0 128.0 L 25.5 128.0 Z" stroke="none" fill="rgb(0,0,0)" />
<path d="M 88.5 29.5 L 89.0 30.0 L 90.0 30.666666666666668 L 91.0 30.666666666666668 L 92.0 30.333333333333332 L 93.0 30.0 L 94.0 30.0 L 95.0 30.333333333333332 L 96.0 31.0 L 97.0 32.0 L 97.66666666666667 33.0 L 98.33333333333333 34.0 L 98.66666666666667 35.0 L 99.33333333333333 36.0 L 100.0 37.0 L 101.0 38.0 L 102.0 39.0 L 103.0 40.0 L 104.0 41.0 L 105.0 42.0 L 106.0 43.0 L 107.0 43.666666666666664 L 108.0 44.0 L 109.0 44.0 L 110.0 44.333333333333336 L 111.0 44.666666666666664 L 112.0 45.0 L 113.0 45.333333333333336 L 114.0 45.666666666666664 L 115.0 45.666666666666664 L 116.0 45.333333333333336 L 117.0 44.666666666666664 L 118.0 44.333333333333336 L 119.0 44.0 L 120.0 43.666666666666664 L 121.0 43.333333333333336 L 122.0 43.0 L 122.66666666666667 42.666666666666664 L 123.0 42.0 L 122.66666666666667 41.333333333333336 L 122.0 41.0 L 121.0 41.0 L 120.0 40.666666666666664 L 119.0 40.333333333333336 L 118.0 40.0 L 117.0 40.0 L 116.0 40.0 L 115.0 39.666666666666664 L 114.0 39.333333333333336 L 113.0 38.666666666666664 L 112.0 38.333333333333336 L 111.0 37.666666666666664 L 110.0 37.0 L 109.0 36.0 L 108.0 35.0 L 107.0 34.0 L 106.33333333333333 33.0 L 105.66666666666667 32.0 L 105.0 31.0 L 104.33333333333333 30.0 L 103.66666666666667 29.0 L 103.66666666666667 28.0 L 104.0 27.0 L 105.0 26.0 L 105.66666666666667 25.0 L 106.33333333333333 24.0 L 107.0 23.0 L 107.66666666666667 22.0 L 108.33333333333333 21.0 L 108.66666666666667 20.0 L 109.0 19.0 L 109.33333333333333 18.0 L 109.66666666666667 17.0 L 110.0 16.0 L 110.0 15.0 L 110.0 14.0 L 110.0 13.0 L 110.0 12.0 L 109.66666666666667 11.333333333333334 L 109.0 11.0 L 108.0 11.0 L 107.0 11.333333333333334 L 106.0 12.0 L 105.0 13.0 L 104.0 14.0 L 103.0 15.0 L 102.0 16.0 L 101.0 16.666666666666668 L 100.0 17.333333333333332 L 99.0 17.666666666666668 L 98.0 18.0 L 97.0 18.333333333333332 L 96.0 18.666666666666668 L 95.0 19.0 L 94.0 19.0 L 93.0 19.0 L 92.0 19.0 L 91.0 19.0 L 90.0 19.0 L 89.0 19.0 L 88.0 18.666666666666668 L 87.0 18.333333333333332 L 86.0 18.0 L 85.0 18.0 L 84.0 17.666666666666668 L 83.0 17.333333333333332 L 82.0 17.0 L 81.0 16.666666666666668 L 80.0 16.333333333333332 L 79.0 15.666666666666666 L 78.0 15.0 L 77.0 14.0 L 76.0 13.0 L 75.0 12.0 L 74.0 11.0 L 73.0 10.0 L 72.0 9.0 L 71.33333333333333 8.0 L 70.66666666666667 7.0 L 70.33333333333333 6.0 L 69.66666666666667 5.0 L 69.33333333333333 4.0 L 68.66666666666667 3.3333333333333335 L 68.0 3.0 L 67.0 3.3333333333333335 L 66.33333333333333 4.0 L 66.0 5.0 L 66.0 6.0 L 66.0 7.0 L 66.0 8.0 L 66.0 9.0 L 66.33333333333333 10.0 L 67.0 11.0 L 67.66666666666667 12.0 L 68.33333333333333 13.0 L 68.66666666666667 14.0 L 69.0 15.0 L 69.0 16.0 L 69.33333333333333 17.0 L 70.0 18.0 L 71.0 19.0 L 71.66666666666667 20.0 L 72.0 21.0 L 72.33333333333333 22.0 L 73.0 23.0 L 74.0 24.0 L 75.0 25.0 L 76.0 25.666666666666668 L 77.0 26.333333333333332 L 78.0 26.666666666666668 L 79.0 27.333333333333332 L 80.0 28.0 L 81.0 29.0 L 82.0 29.666666666666668 L 83.0 29.666666666666668 L 84.0 29.333333333333332 L 85.0 29.0 L 86.0 29.0 L 87.0 29.0 L 87.5 29.0 Z" stroke="none" fill="rgb(213,235,245)" />
<path d="M 21.5 45.5 L 22.0 45.333333333333336 L 23.0 44.666666666666664 L 24.0 44.0 L 25.0 43.0 L 26.0 42.0 L 27.0 41.0 L 27.666666666666668 40.0 L 28.333333333333332 39.0 L 29.0 38.0 L 29.666666666666668 37.0 L 30.333333333333332 36.0 L 30.666666666666668 35.0 L 31.333333333333332 34.0 L 31.666666666666668 33.0 L 32.333333333333336 32.0 L 33.0 31.333333333333332 L 34.0 31.0 L 35.0 31.0 L 36.0 31.0 L 37.0 31.0 L 38.0 31.0 L 39.0 31.0 L 40.0 30.666666666666668 L 41.0 30.333333333333332 L 42.0 29.666666666666668 L 43.0 29.0 L 44.0 28.333333333333332 L 45.0 27.666666666666668 L 45.666666666666664 27.0 L 46.0 26.0 L 46.333333333333336 25.0 L 46.666666666666664 24.0 L 47.333333333333336 23.0 L 48.0 22.0 L 49.0 21.333333333333332 L 50.0 21.0 L 51.0 21.0 L 52.0 21.0 L 53.0 21.0 L 54.0 21.0 L 55.0 21.0 L 56.0 21.333333333333332 L 57.0 21.666666666666668 L 58.0 22.0 L 59.0 22.0 L 60.0 22.0 L 61.0 22.0 L 62.0 22.0 L 62.666666666666664 21.666666666666668 L 63.333333333333336 21.0 L 64.0 20.333333333333332 L 65.0 19.666666666666668 L 66.0 19.333333333333332 L 67.0 18.666666666666668 L 68.0 18.0 L 68.66666666666667 17.0 L 69.0 16.0 L 69.0 15.0 L 69.0 14.0 L 68.66666666666667 13.0 L 68.33333333333333 12.0 L 67.66666666666667 11.0 L 67.0 10.333333333333334 L 66.0 10.0 L 65.0 10.333333333333334 L 64.0 11.0 L 63.0 11.666666666666666 L 62.0 12.333333333333334 L 61.0 12.666666666666666 L 60.0 13.333333333333334 L 59.0 13.666666666666666 L 58.0 14.333333333333334 L 57.0 14.666666666666666 L 56.0 15.0 L 55.0 15.0 L 54.0 15.0 L 53.0 15.0 L 52.0 15.0 L 51.0 14.666666666666666 L 50.333333333333336 14.0 L 50.0 13.0 L 50.0 12.0 L 50.0 11.0 L 50.0 10.0 L 49.666666666666664 9.0 L 49.333333333333336 8.0 L 48.666666666666664 7.0 L 48.333333333333336 6.0 L 47.666666666666664 5.0 L 47.0 4.333333333333333 L 46.0 4.0 L 45.333333333333336 4.333333333333333 L 45.0 5.0 L 45.0 6.0 L 45.0 7.0 L 45.0 8.0 L 45.0 9.0 L 45.0 10.0 L 45.0 11.0 L 44.666666666666664 12.0 L 44.333333333333336 13.0 L 44.0 14.0 L 43.666666666666664 15.0 L 43.0 16.0 L 42.0 17.0 L 41.0 18.0 L 40.0 19.0 L 39.0 20.0 L 38.0 21.0 L 37.0 21.666666666666668 L 36.0 22.333333333333332 L 35.0 22.666666666666668 L 34.0 23.0 L 33.0 23.333333333333332 L 32.0 23.666666666666668 L 31.0 24.0 L 30.0 24.0 L 29.0 23.666666666666668 L 28.0 23.333333333333332 L 27.0 23.0 L 26.0 22.666666666666668 L 25.0 22.333333333333332 L 24.0 21.666666666666668 L 23.0 21.333333333333332 L 22.0 20.666666666666668 L 21.0 20.0 L 20.0 19.0 L 19.0 18.333333333333332 L 18.0 18.0 L 17.333333333333332 18.333333333333332 L 17.0 19.0 L 17.0 20.0 L 17.0 21.0 L 17.0 22.0 L 17.333333333333332 23.0 L 17.666666666666668 24.0 L 18.0 25.0 L 18.333333333333332 26.0 L 19.0 27.0 L 20.0 28.0 L 21.0 29.0 L 22.0 30.0 L 22.666666666666668 31.0 L 22.666666666666668 32.0 L 22.333333333333332 33.0 L 21.666666666666668 34.0 L 21.0 35.0 L 20.0 36.0 L 19.0 37.0 L 18.0 37.666666666666664 L 17.0 38.333333333333336 L 16.0 39.0 L 15.0 39.666666666666664 L 14.0 40.333333333333336 L 13.0 40.666666666666664 L 12.0 41.0 L 11.0 41.333333333333336 L 10.0 41.666666666666664 L 9.0 42.0 L 8.0 42.333333333333336 L 7.0 42.666666666666664 L 6.0 43.0 L 5.0 43.333333333333336 L 4.0 43.666666666666664 L 3.3333333333333335 44.333333333333336 L 3.0 45.0 L 3.3333333333333335 46.0 L 4.0 46.666666666666664 L 5.0 47.333333333333336 L 6.0 47.666666666666664 L 7.0 48.0 L 8.0 48.0 L 9.0 48.0 L 10.0 48.0 L 11.0 48.0 L 12.0 48.0 L 13.0 48.0 L 14.0 48.0 L 15.0 47.666666666666664 L 16.0 47.666666666666664 L 17.0 47.666666666666664 L 18.0 47.666666666666664 L 19.0 47.0 L 20.0 46.333333333333336 L 20.5 46.0 Z" stroke="none" fill="rgb(146,203,235)" />
<path d="M 63.5 22.0 L 64.0 22.0 L 65.0 22.0 L 66.0 22.0 L 67.0 22.0 L 68.0 22.0 L 69.0 22.0 L 70.0 22.0 L 71.0 22.0 L 71.66666666666667 21.666666666666668 L 72.0 21.0 L 72.0 20.0 L 71.66666666666667 19.0 L 71.0 18.0 L 70.0 17.333333333333332 L 69.0 17.0 L 68.0 17.333333333333332 L 67.0 18.0 L 66.0 18.666666666666668 L 65.0 19.333333333333332 L 64.0 19.666666666666668 L 63.333333333333336 20.333333333333332 L 63.0 21.0 L 63.0 21.5 Z" stroke="none" fill="rgb(248,202,45)" />
<path d="M 47.5 26.0 L 48.0 25.666666666666668 L 49.0 25.333333333333332 L 50.0 25.0 L 51.0 24.666666666666668 L 52.0 24.333333333333332 L 53.0 24.0 L 54.0 23.666666666666668 L 55.0 23.333333333333332 L 56.0 23.0 L 56.666666666666664 22.666666666666668 L 57.0 22.0 L 56.666666666666664 21.333333333333332 L 56.0 21.0 L 55.0 21.0 L 54.0 21.0 L 53.0 21.0 L 52.0 21.0 L 51.0 21.0 L 50.0 21.0 L 49.0 21.0 L 48.0 21.333333333333332 L 47.333333333333336 22.0 L 46.666666666666664 23.0 L 46.333333333333336 24.0 L 46.0 25.0 L 46.333333333333336 25.666666666666668 L 46.5 26.0 Z" stroke="none" fill="rgb(248,202,45)" />
<path d="M 33.5 82.0 L 33.666666666666664 81.66666666666667 L 34.0 81.0 L 34.0 80.0 L 33.666666666666664 79.0 L 33.333333333333336 78.0 L 32.666666666666664 77.0 L 32.333333333333336 76.0 L 31.666666666666668 75.0 L 31.333333333333332 74.0 L 31.0 73.0 L 30.666666666666668 72.0 L 30.333333333333332 71.0 L 30.0 70.0 L 30.0 69.0 L 30.0 68.0 L 29.666666666666668 67.0 L 29.333333333333332 66.0 L 29.0 65.0 L 29.0 64.0 L 29.0 63.0 L 29.0 62.0 L 29.0 61.0 L 29.0 60.0 L 29.0 59.0 L 29.333333333333332 58.0 L 29.666666666666668 57.0 L 30.0 56.0 L 30.0 55.0 L 30.0 54.0 L 30.333333333333332 53.0 L 30.666666666666668 52.0 L 31.0 51.0 L 31.333333333333332 50.0 L 31.666666666666668 49.0 L 32.333333333333336 48.0 L 32.666666666666664 47.0 L 33.333333333333336 46.0 L 33.666666666666664 45.0 L 34.333333333333336 44.0 L 35.0 43.0 L 35.666666666666664 42.0 L 36.333333333333336 41.0 L 37.0 40.0 L 38.0 39.0 L 39.0 38.0 L 40.0 37.0 L 41.0 36.0 L 42.0 35.0 L 43.0 34.0 L 44.0 33.333333333333336 L 45.0 32.666666666666664 L 46.0 32.0 L 47.0 31.333333333333332 L 48.0 30.666666666666668 L 49.0 30.333333333333332 L 50.0 29.666666666666668 L 51.0 29.333333333333332 L 52.0 28.666666666666668 L 53.0 28.333333333333332 L 54.0 28.0 L 55.0 27.666666666666668 L 56.0 27.333333333333332 L 57.0 27.0 L 58.0 27.0 L 59.0 26.666666666666668 L 60.0 26.333333333333332 L 61.0 26.0 L 62.0 26.0 L 63.0 26.0 L 64.0 26.0 L 65.0 26.0 L 66.0 26.0 L 67.0 26.0 L 68.0 26.0 L 69.0 26.0 L 70.0 26.0 L 71.0 26.333333333333332 L 72.0 26.666666666666668 L 73.0 27.0 L 74.0 27.0 L 75.0 27.333333333333332 L 76.0 27.666666666666668 L 77.0 28.333333333333332 L 78.0 28.666666666666668 L 79.0 29.0 L 80.0 29.0 L 80.66666666666667 28.666666666666668 L 80.66666666666667 28.0 L 80.0 27.333333333333332 L 79.0 26.666666666666668 L 78.0 26.333333333333332 L 77.0 25.666666666666668 L 76.0 25.0 L 75.0 24.0 L 74.0 23.0 L 73.0 22.333333333333332 L 72.0 22.0 L 71.0 22.0 L 70.0 22.0 L 69.0 22.0 L 68.0 22.0 L 67.0 22.0 L 66.0 22.0 L 65.0 22.0 L 64.0 22.0 L 63.0 22.0 L 62.0 22.0 L 61.0 22.0 L 60.0 22.0 L 59.0 22.0 L 58.0 22.0 L 57.0 22.333333333333332 L 56.0 22.666666666666668 L 55.0 23.0 L 54.0 23.333333333333332 L 53.0 23.666666666666668 L 52.0 24.0 L 51.0 24.333333333333332 L 50.0 24.666666666666668 L 49.0 25.0 L 48.0 25.333333333333332 L 47.0 25.666666666666668 L 46.0 26.333333333333332 L 45.0 27.0 L 44.0 27.666666666666668 L 43.0 28.333333333333332 L 42.0 29.0 L 41.0 29.666666666666668 L 40.0 30.333333333333332 L 39.0 31.0 L 38.0 32.0 L 37.0 33.0 L 36.0 34.0 L 35.0 35.0 L 34.0 36.0 L 33.333333333333336 37.0 L 32.666666666666664 38.0 L 32.0 39.0 L 31.333333333333332 40.0 L 30.666666666666668 41.0 L 30.333333333333332 42.0 L 29.666666666666668 43.0 L 29.333333333333332 44.0 L 28.666666666666668 45.0 L 28.333333333333332 46.0 L 27.666666666666668 47.0 L 27.333333333333332 48.0 L 27.0 49.0 L 26.666666666666668 50.0 L 26.333333333333332 51.0 L 26.0 52.0 L 26.0 53.0 L 26.0 54.0 L 25.666666666666668 55.0 L 25.333333333333332 56.0 L 25.0 57.0 L 25.0 58.0 L 25.0 59.0 L 25.0 60.0 L 25.0 61.0 L 25.0 62.0 L 25.0 63.0 L 25.0 64.0 L 25.0 65.0 L 25.0 66.0 L 25.0 67.0 L 25.333333333333332 68.0 L 25.666666666666668 69.0 L 26.0 70.0 L 26.0 71.0 L 26.0 72.0 L 26.333333333333332 73.0 L 26.666666666666668 74.0 L 27.0 75.0 L 27.333333333333332 76.0 L 27.666666666666668 77.0 L 28.333333333333332 78.0 L 28.666666666666668 79.0 L 29.0 80.0 L 29.333333333333332 81.0 L 30.0 81.66666666666667 L 31.0 82.0 L 32.0 82.0 L 32.5 82.0 Z" stroke="none" fill="rgb(250,208,45)" />
<path d="M 88.5 39.5 L 89.0 40.0 L 90.0 41.0 L 90.66666666666667 42.0 L 91.33333333333333 43.0 L 92.0 44.0 L 92.66666666666667 45.0 L 93.33333333333333 46.0 L 93.66666666666667 47.0 L 94.33333333333333 48.0 L 94.66666666666667 49.0 L 95.33333333333333 50.0 L 95.66666666666667 51.0 L 96.0 52.0 L 96.33333333333333 53.0 L 96.66666666666667 54.0 L 97.0 55.0 L 97.0 56.0 L 97.33333333333333 57.0 L 97.66666666666667 58.0 L 98.0 59.0 L 98.0 60.0 L 98.0 61.0 L 98.0 62.0 L 98.0 63.0 L 98.0 64.0 L 98.0 65.0 L 97.66666666666667 66.0 L 97.33333333333333 67.0 L 97.33333333333333 68.0 L 98.0 68.66666666666667 L 99.0 68.66666666666667 L 100.0 68.0 L 101.0 67.0 L 101.66666666666667 66.0 L 102.0 65.0 L 101.66666666666667 64.0 L 101.33333333333333 63.0 L 101.0 62.0 L 101.0 61.0 L 101.0 60.0 L 101.0 59.0 L 101.0 58.0 L 101.0 57.0 L 101.0 56.0 L 101.0 55.0 L 100.66666666666667 54.0 L 100.33333333333333 53.0 L 100.0 52.0 L 99.66666666666667 51.0 L 99.33333333333333 50.0 L 99.0 49.0 L 98.66666666666667 48.0 L 98.33333333333333 47.0 L 97.66666666666667 46.0 L 97.33333333333333 45.0 L 96.66666666666667 44.0 L 96.33333333333333 43.0 L 95.66666666666667 42.0 L 95.0 41.0 L 94.0 40.0 L 93.33333333333333 39.0 L 92.66666666666667 38.0 L 92.0 37.0 L 91.0 36.0 L 90.0 35.0 L 89.0 34.333333333333336 L 88.0 33.666666666666664 L 87.0 33.0 L 86.0 32.333333333333336 L 85.0 31.666666666666668 L 84.0 31.0 L 83.0 30.0 L 82.0 29.333333333333332 L 81.0 29.0 L 80.0 29.0 L 79.0 28.666666666666668 L 78.0 28.333333333333332 L 77.0 27.666666666666668 L 76.0 27.333333333333332 L 75.0 27.0 L 74.0 27.0 L 73.0 26.666666666666668 L 72.0 26.333333333333332 L 71.0 26.0 L 70.0 26.0 L 69.0 26.0 L 68.0 26.0 L 67.0 26.0 L 66.0 26.0 L 65.0 26.0 L 64.0 26.0 L 63.0 26.0 L 62.0 26.0 L 61.0 26.0 L 60.0 26.0 L 59.0 26.333333333333332 L 58.0 26.666666666666668 L 57.0 27.0 L 56.0 27.0 L 55.0 27.333333333333332 L 54.0 27.666666666666668 L 53.0 28.0 L 52.0 28.333333333333332 L 51.0 28.666666666666668 L 50.0 29.333333333333332 L 49.0 29.666666666666668 L 48.0 30.333333333333332 L 47.0 30.666666666666668 L 46.0 31.333333333333332 L 45.0 32.0 L 44.0 32.666666666666664 L 43.0 33.333333333333336 L 42.0 34.0 L 41.0 35.0 L 40.0 36.0 L 39.0 37.0 L 38.0 38.0 L 37.0 39.0 L 36.333333333333336 40.0 L 35.666666666666664 41.0 L 35.0 42.0 L 34.333333333333336 43.0 L 33.666666666666664 44.0 L 33.333333333333336 45.0 L 32.666666666666664 46.0 L 32.333333333333336 47.0 L 31.666666666666668 48.0 L 31.333333333333332 49.0 L 31.0 50.0 L 30.666666666666668 51.0 L 30.333333333333332 52.0 L 30.0 53.0 L 30.0 54.0 L 30.0 55.0 L 29.666666666666668 56.0 L 29.333333333333332 57.0 L 29.0 58.0 L 29.0 59.0 L 29.0 60.0 L 29.0 61.0 L 29.0 62.0 L 29.0 63.0 L 29.0 64.0 L 29.0 65.0 L 29.0 66.0 L 29.333333333333332 67.0 L 29.666666666666668 68.0 L 30.0 69.0 L 30.0 70.0 L 30.0 71.0 L 30.333333333333332 72.0 L 30.666666666666668 73.0 L 31.0 74.0 L 31.333333333333332 75.0 L 31.666666666666668 76.0 L 32.333333333333336 77.0 L 32.666666666666664 78.0 L 33.333333333333336 79.0 L 33.666666666666664 80.0 L 34.333333333333336 80.66666666666667 L 35.0 81.0 L 36.0 81.0 L 37.0 81.0 L 37.666666666666664 80.66666666666667 L 38.0 80.0 L 37.666666666666664 79.0 L 37.333333333333336 78.0 L 36.666666666666664 77.0 L 36.333333333333336 76.0 L 35.666666666666664 75.0 L 35.333333333333336 74.0 L 34.666666666666664 73.0 L 34.333333333333336 72.0 L 34.0 71.0 L 34.0 70.0 L 33.666666666666664 69.0 L 33.333333333333336 68.0 L 33.0 67.0 L 33.0 66.0 L 33.0 65.0 L 33.0 64.0 L 33.0 63.0 L 33.0 62.0 L 33.0 61.0 L 33.0 60.0 L 33.0 59.0 L 33.0 58.0 L 33.0 57.0 L 33.333333333333336 56.0 L 33.666666666666664 55.0 L 34.0 54.0 L 34.0 53.0 L 34.333333333333336 52.0 L 34.666666666666664 51.0 L 35.333333333333336 50.0 L 35.666666666666664 49.0 L 36.333333333333336 48.0 L 36.666666666666664 47.0 L 37.333333333333336 46.0 L 37.666666666666664 45.0 L 38.333333333333336 44.0 L 39.0 43.0 L 40.0 42.0 L 41.0 41.0 L 42.0 40.0 L 43.0 39.0 L 44.0 38.0 L 45.0 37.0 L 46.0 36.0 L 47.0 35.333333333333336 L 48.0 34.666666666666664 L 49.0 34.0 L 50.0 33.333333333333336 L 51.0 32.666666666666664 L 52.0 32.333333333333336 L 53.0 32.0 L 54.0 31.666666666666668 L 55.0 31.333333333333332 L 56.0 31.0 L 57.0 30.666666666666668 L 58.0 30.333333333333332 L 59.0 30.0 L 60.0 30.0 L 61.0 30.0 L 62.0 30.0 L 63.0 29.666666666666668 L 64.0 29.333333333333332 L 65.0 29.0 L 66.0 29.0 L 67.0 29.333333333333332 L 68.0 29.666666666666668 L 69.0 30.0 L 70.0 30.0 L 71.0 30.0 L 72.0 30.333333333333332 L 73.0 30.666666666666668 L 74.0 31.0 L 75.0 31.0 L 76.0 31.333333333333332 L 77.0 31.666666666666668 L 78.0 32.333333333333336 L 79.0 32.666666666666664 L 80.0 33.333333333333336 L 81.0 33.666666666666664 L 82.0 34.333333333333336 L 83.0 35.0 L 84.0 36.0 L 85.0 36.666666666666664 L 86.0 37.333333333333336 L 87.0 38.0 L 87.5 38.5 Z" stroke="none" fill="rgb(251,213,46)" />
<path d="M 53.5 36.5 L 54.0 36.333333333333336 L 55.0 35.666666666666664 L 56.0 35.333333333333336 L 57.0 35.0 L 58.0 34.666666666666664 L 59.0 34.333333333333336 L 60.0 34.0 L 61.0 34.0 L 62.0 34.0 L 63.0 34.0 L 64.0 33.666666666666664 L 65.0 33.333333333333336 L 66.0 33.333333333333336 L 67.0 33.666666666666664 L 68.0 34.0 L 69.0 34.0 L 70.0 34.0 L 71.0 34.0 L 72.0 34.333333333333336 L 73.0 34.666666666666664 L 74.0 35.0 L 75.0 35.333333333333336 L 76.0 35.666666666666664 L 77.0 36.333333333333336 L 78.0 36.666666666666664 L 79.0 37.333333333333336 L 80.0 38.0 L 81.0 38.666666666666664 L 82.0 39.333333333333336 L 83.0 40.0 L 84.0 41.0 L 85.0 42.0 L 86.0 43.0 L 87.0 44.0 L 87.66666666666667 45.0 L 88.33333333333333 46.0 L 89.0 47.0 L 89.66666666666667 48.0 L 90.33333333333333 49.0 L 90.66666666666667 50.0 L 91.33333333333333 51.0 L 91.66666666666667 52.0 L 92.0 53.0 L 92.33333333333333 54.0 L 92.66666666666667 55.0 L 93.0 56.0 L 93.0 57.0 L 93.33333333333333 58.0 L 93.66666666666667 59.0 L 94.0 60.0 L 94.0 61.0 L 94.0 62.0 L 94.0 63.0 L 94.0 64.0 L 93.66666666666667 65.0 L 93.33333333333333 66.0 L 93.0 67.0 L 93.0 68.0 L 92.66666666666667 69.0 L 92.33333333333333 70.0 L 92.0 71.0 L 91.66666666666667 72.0 L 91.33333333333333 73.0 L 90.66666666666667 74.0 L 90.33333333333333 75.0 L 89.66666666666667 76.0 L 89.33333333333333 77.0 L 89.0 78.0 L 89.33333333333333 79.0 L 90.0 79.66666666666667 L 91.0 80.0 L 91.66666666666667 79.66666666666667 L 92.33333333333333 79.0 L 92.66666666666667 78.0 L 93.33333333333333 77.0 L 93.66666666666667 76.0 L 94.33333333333333 75.0 L 95.0 74.0 L 95.66666666666667 73.0 L 96.33333333333333 72.0 L 97.0 71.0 L 97.66666666666667 70.0 L 98.0 69.0 L 98.0 68.0 L 98.0 67.0 L 98.0 66.0 L 98.0 65.0 L 98.0 64.0 L 98.0 63.0 L 98.0 62.0 L 98.0 61.0 L 98.0 60.0 L 98.0 59.0 L 98.0 58.0 L 97.66666666666667 57.0 L 97.33333333333333 56.0 L 97.0 55.0 L 97.0 54.0 L 96.66666666666667 53.0 L 96.33333333333333 52.0 L 96.0 51.0 L 95.66666666666667 50.0 L 95.33333333333333 49.0 L 94.66666666666667 48.0 L 94.33333333333333 47.0 L 93.66666666666667 46.0 L 93.33333333333333 45.0 L 92.66666666666667 44.0 L 92.0 43.0 L 91.33333333333333 42.0 L 90.66666666666667 41.0 L 90.0 40.0 L 89.0 39.0 L 88.0 38.0 L 87.0 37.333333333333336 L 86.0 36.666666666666664 L 85.0 36.0 L 84.0 35.0 L 83.0 34.333333333333336 L 82.0 33.666666666666664 L 81.0 33.333333333333336 L 80.0 32.666666666666664 L 79.0 32.333333333333336 L 78.0 31.666666666666668 L 77.0 31.333333333333332 L 76.0 31.0 L 75.0 31.0 L 74.0 30.666666666666668 L 73.0 30.333333333333332 L 72.0 30.0 L 71.0 30.0 L 70.0 30.0 L 69.0 29.666666666666668 L 68.0 29.333333333333332 L 67.0 29.0 L 66.0 29.0 L 65.0 29.0 L 64.0 29.0 L 63.0 29.333333333333332 L 62.0 29.666666666666668 L 61.0 30.0 L 60.0 30.0 L 59.0 30.0 L 58.0 30.0 L 57.0 30.333333333333332 L 56.0 30.666666666666668 L 55.0 31.0 L 54.0 31.333333333333332 L 53.0 31.666666666666668 L 52.0 32.0 L 51.0 32.333333333333336 L 50.0 32.666666666666664 L 49.0 33.333333333333336 L 48.0 34.0 L 47.0 34.666666666666664 L 46.0 35.333333333333336 L 45.0 36.0 L 44.0 37.0 L 43.0 38.0 L 42.0 39.0 L 41.0 40.0 L 40.0 41.0 L 39.0 42.0 L 38.333333333333336 43.0 L 37.666666666666664 44.0 L 37.333333333333336 45.0 L 36.666666666666664 46.0 L 36.333333333333336 47.0 L 35.666666666666664 48.0 L 35.333333333333336 49.0 L 34.666666666666664 50.0 L 34.333333333333336 51.0 L 34.0 52.0 L 34.0 53.0 L 33.666666666666664 54.0 L 33.333333333333336 55.0 L 33.0 56.0 L 33.0 57.0 L 33.0 58.0 L 33.0 59.0 L 33.0 60.0 L 33.0 61.0 L 33.0 62.0 L 33.0 63.0 L 33.0 64.0 L 33.0 65.0 L 33.0 66.0 L 33.0 67.0 L 33.0 68.0 L 33.333333333333336 69.0 L 33.666666666666664 70.0 L 34.0 71.0 L 34.0 72.0 L 34.333333333333336 73.0 L 34.666666666666664 74.0 L 35.333333333333336 75.0 L 35.666666666666664 76.0 L 36.333333333333336 77.0 L 36.666666666666664 78.0 L 37.333333333333336 79.0 L 38.0 79.66666666666667 L 39.0 80.0 L 40.0 80.0 L 41.0 80.0 L 41.666666666666664 79.66666666666667 L 42.0 79.0 L 41.666666666666664 78.0 L 41.333333333333336 77.0 L 40.666666666666664 76.0 L 40.333333333333336 75.0 L 39.666666666666664 74.0 L 39.333333333333336 73.0 L 38.666666666666664 72.0 L 38.333333333333336 71.0 L 38.333333333333336 70.0 L 38.666666666666664 69.0 L 38.666666666666664 68.0 L 38.333333333333336 67.0 L 38.0 66.0 L 37.666666666666664 65.0 L 37.333333333333336 64.0 L 37.0 63.0 L 37.0 62.0 L 37.0 61.0 L 37.0 60.0 L 37.333333333333336 59.0 L 37.666666666666664 58.0 L 38.0 57.0 L 38.0 56.0 L 38.0 55.0 L 38.0 54.0 L 38.333333333333336 53.0 L 38.666666666666664 52.0 L 39.333333333333336 51.0 L 40.0 50.0 L 40.666666666666664 49.0 L 41.0 48.0 L 41.333333333333336 47.0 L 42.0 46.0 L 43.0 45.0 L 44.0 44.0 L 45.0 43.0 L 46.0 42.0 L 47.0 41.0 L 48.0 40.0 L 49.0 39.0 L 50.0 38.333333333333336 L 51.0 37.666666666666664 L 52.0 37.333333333333336 L 52.5 37.0 Z" stroke="none" fill="rgb(252,218,47)" />
<path d="M 91.5 37.5 L 92.0 38.0 L 92.66666666666667 39.0 L 93.33333333333333 40.0 L 94.0 41.0 L 95.0 42.0 L 95.66666666666667 43.0 L 96.33333333333333 44.0 L 96.66666666666667 45.0 L 97.33333333333333 46.0 L 97.66666666666667 47.0 L 98.33333333333333 48.0 L 98.66666666666667 49.0 L 99.0 50.0 L 99.33333333333333 51.0 L 99.66666666666667 52.0 L 100.0 53.0 L 100.33333333333333 54.0 L 100.66666666666667 55.0 L 101.0 56.0 L 101.0 57.0 L 101.0 58.0 L 101.0 59.0 L 101.0 60.0 L 101.0 61.0 L 101.0 62.0 L 101.0 63.0 L 101.33333333333333 64.0 L 102.0 64.66666666666667 L 103.0 65.0 L 104.0 64.66666666666667 L 105.0 64.0 L 105.66666666666667 63.0 L 106.0 62.0 L 106.0 61.0 L 105.66666666666667 60.0 L 105.33333333333333 59.0 L 105.0 58.0 L 105.0 57.0 L 105.0 56.0 L 105.0 55.0 L 105.0 54.0 L 104.66666666666667 53.0 L 104.33333333333333 52.0 L 104.0 51.0 L 103.66666666666667 50.0 L 103.33333333333333 49.0 L 103.0 48.0 L 102.66666666666667 47.0 L 102.33333333333333 46.0 L 101.66666666666667 45.0 L 101.33333333333333 44.0 L 100.66666666666667 43.0 L 100.33333333333333 42.0 L 99.66666666666667 41.0 L 99.33333333333333 40.0 L 98.66666666666667 39.0 L 98.0 38.0 L 97.0 37.0 L 96.0 36.0 L 95.33333333333333 35.0 L 94.66666666666667 34.0 L 94.0 33.0 L 93.0 32.333333333333336 L 92.0 31.666666666666668 L 91.0 31.0 L 90.0 30.0 L 89.0 29.333333333333332 L 88.0 29.0 L 87.0 29.0 L 86.0 29.0 L 85.0 29.0 L 84.0 29.0 L 83.33333333333333 29.333333333333332 L 83.0 30.0 L 83.33333333333333 31.0 L 84.0 31.666666666666668 L 85.0 32.333333333333336 L 86.0 33.0 L 87.0 33.666666666666664 L 88.0 34.333333333333336 L 89.0 35.0 L 90.0 36.0 L 90.5 36.5 Z" stroke="none" fill="rgb(250,208,45)" />
<path d="M 23.5 77.5 L 24.0 78.0 L 25.0 79.0 L 26.0 80.0 L 27.0 80.66666666666667 L 28.0 81.0 L 28.666666666666668 80.66666666666667 L 29.0 80.0 L 29.0 79.0 L 28.666666666666668 78.0 L 28.333333333333332 77.0 L 27.666666666666668 76.0 L 27.333333333333332 75.0 L 27.0 74.0 L 26.666666666666668 73.0 L 26.333333333333332 72.0 L 26.0 71.0 L 26.0 70.0 L 26.0 69.0 L 25.666666666666668 68.0 L 25.333333333333332 67.0 L 25.0 66.0 L 25.0 65.0 L 25.0 64.0 L 25.0 63.0 L 25.0 62.0 L 25.0 61.0 L 25.0 60.0 L 25.0 59.0 L 25.0 58.0 L 25.333333333333332 57.0 L 25.666666666666668 56.0 L 26.0 55.0 L 26.0 54.0 L 26.0 53.0 L 26.333333333333332 52.0 L 26.666666666666668 51.0 L 27.0 50.0 L 27.333333333333332 49.0 L 27.666666666666668 48.0 L 28.333333333333332 47.0 L 28.666666666666668 46.0 L 29.333333333333332 45.0 L 29.666666666666668 44.0 L 30.333333333333332 43.0 L 30.666666666666668 42.0 L 31.333333333333332 41.0 L 32.0 40.0 L 32.666666666666664 39.0 L 33.333333333333336 38.0 L 34.0 37.0 L 35.0 36.0 L 36.0 35.0 L 37.0 34.0 L 38.0 33.0 L 38.666666666666664 32.0 L 39.0 31.0 L 38.666666666666664 30.333333333333332 L 38.0 30.333333333333332 L 37.0 30.666666666666668 L 36.0 31.0 L 35.0 31.0 L 34.0 31.0 L 33.0 31.0 L 32.333333333333336 31.333333333333332 L 31.666666666666668 32.0 L 31.333333333333332 33.0 L 30.666666666666668 34.0 L 30.333333333333332 35.0 L 29.666666666666668 36.0 L 29.0 37.0 L 28.333333333333332 38.0 L 27.666666666666668 39.0 L 27.0 40.0 L 26.0 41.0 L 25.0 42.0 L 24.0 43.0 L 23.333333333333332 44.0 L 23.0 45.0 L 23.0 46.0 L 22.666666666666668 47.0 L 22.333333333333332 48.0 L 22.0 49.0 L 21.666666666666668 50.0 L 21.333333333333332 51.0 L 21.0 52.0 L 21.0 53.0 L 21.0 54.0 L 20.666666666666668 55.0 L 20.333333333333332 56.0 L 20.0 57.0 L 20.0 58.0 L 20.0 59.0 L 20.0 60.0 L 20.0 61.0 L 20.0 62.0 L 20.0 63.0 L 20.0 64.0 L 20.0 65.0 L 20.0 66.0 L 20.0 67.0 L 20.333333333333332 68.0 L 20.666666666666668 69.0 L 21.0 70.0 L 21.0 71.0 L 21.0 72.0 L 21.0 73.0 L 21.333333333333332 74.0 L 22.0 75.0 L 22.666666666666668 76.0 L 23.0 76.5 Z" stroke="none" fill="rgb(248,202,45)" />
<path d="M 108.5 62.0 L 109.0 62.0 L 110.0 61.666666666666664 L 110.66666666666667 61.0 L 110.66666666666667 60.0 L 110.33333333333333 59.0 L 110.0 58.0 L 110.0 57.0 L 110.0 56.0 L 110.0 55.0 L 110.0 54.0 L 109.66666666666667 53.0 L 109.33333333333333 52.0 L 109.0 51.0 L 109.0 50.0 L 108.66666666666667 49.0 L 108.33333333333333 48.0 L 108.0 47.0 L 107.66666666666667 46.0 L 107.33333333333333 45.0 L 107.0 44.0 L 106.66666666666667 43.0 L 106.0 42.0 L 105.0 41.0 L 104.0 40.0 L 103.0 39.0 L 102.0 38.0 L 101.0 37.0 L 100.0 36.0 L 99.33333333333333 35.0 L 98.66666666666667 34.0 L 98.33333333333333 33.0 L 97.66666666666667 32.0 L 97.0 31.0 L 96.0 30.333333333333332 L 95.0 30.0 L 94.0 30.0 L 93.0 30.0 L 92.0 30.0 L 91.33333333333333 30.333333333333332 L 91.0 31.0 L 91.33333333333333 31.666666666666668 L 92.0 32.333333333333336 L 93.0 33.0 L 94.0 34.0 L 94.66666666666667 35.0 L 95.33333333333333 36.0 L 96.0 37.0 L 97.0 38.0 L 98.0 39.0 L 98.66666666666667 40.0 L 99.33333333333333 41.0 L 99.66666666666667 42.0 L 100.33333333333333 43.0 L 100.66666666666667 44.0 L 101.33333333333333 45.0 L 101.66666666666667 46.0 L 102.33333333333333 47.0 L 102.66666666666667 48.0 L 103.0 49.0 L 103.33333333333333 50.0 L 103.66666666666667 51.0 L 104.0 52.0 L 104.33333333333333 53.0 L 104.66666666666667 54.0 L 105.0 55.0 L 105.0 56.0 L 105.0 57.0 L 105.0 58.0 L 105.0 59.0 L 105.33333333333333 60.0 L 105.66666666666667 61.0 L 106.33333333333333 61.666666666666664 L 107.0 62.0 L 107.5 62.0 Z" stroke="none" fill="rgb(248,202,45)" />
<path d="M 59.5 83.5 L 60.0 84.0 L 61.0 84.66666666666667 L 62.0 85.33333333333333 L 63.0 85.66666666666667 L 64.0 86.0 L 65.0 85.66666666666667 L 66.0 85.0 L 67.0 84.0 L 68.0 83.33333333333333 L 69.0 82.66666666666667 L 70.0 82.0 L 71.0 81.33333333333333 L 72.0 80.66666666666667 L 73.0 80.33333333333333 L 74.0 80.0 L 75.0 79.66666666666667 L 76.0 79.33333333333333 L 77.0 79.0 L 78.0 79.0 L 79.0 79.0 L 80.0 78.66666666666667 L 81.0 78.33333333333333 L 82.0 78.0 L 83.0 78.0 L 84.0 78.0 L 85.0 78.0 L 86.0 78.33333333333333 L 87.0 78.66666666666667 L 88.0 79.0 L 88.66666666666667 78.66666666666667 L 89.33333333333333 78.0 L 89.66666666666667 77.0 L 90.33333333333333 76.0 L 90.66666666666667 75.0 L 91.33333333333333 74.0 L 91.66666666666667 73.0 L 92.0 72.0 L 92.33333333333333 71.0 L 92.66666666666667 70.0 L 93.0 69.0 L 93.0 68.0 L 93.33333333333333 67.0 L 93.66666666666667 66.0 L 94.0 65.0 L 94.0 64.0 L 94.0 63.0 L 94.0 62.0 L 94.0 61.0 L 94.0 60.0 L 94.0 59.0 L 93.66666666666667 58.0 L 93.33333333333333 57.0 L 93.0 56.0 L 93.0 55.0 L 92.66666666666667 54.0 L 92.33333333333333 53.0 L 92.0 52.0 L 91.66666666666667 51.0 L 91.33333333333333 50.0 L 90.66666666666667 49.0 L 90.33333333333333 48.0 L 89.66666666666667 47.0 L 89.0 46.0 L 88.33333333333333 45.0 L 87.66666666666667 44.0 L 87.0 43.0 L 86.0 42.0 L 85.0 41.0 L 84.0 40.0 L 83.0 39.333333333333336 L 82.0 38.666666666666664 L 81.0 38.0 L 80.0 37.333333333333336 L 79.0 36.666666666666664 L 78.0 36.333333333333336 L 77.0 35.666666666666664 L 76.0 35.333333333333336 L 75.0 35.0 L 74.0 34.666666666666664 L 73.0 34.333333333333336 L 72.0 34.0 L 71.0 34.0 L 70.0 34.0 L 69.0 34.0 L 68.0 33.666666666666664 L 67.0 33.333333333333336 L 66.0 33.0 L 65.0 33.0 L 64.0 33.333333333333336 L 63.0 33.666666666666664 L 62.0 34.0 L 61.0 34.0 L 60.0 34.0 L 59.0 34.0 L 58.0 34.333333333333336 L 57.0 34.666666666666664 L 56.0 35.0 L 55.0 35.333333333333336 L 54.0 35.666666666666664 L 53.0 36.333333333333336 L 52.0 36.666666666666664 L 51.0 37.333333333333336 L 50.0 37.666666666666664 L 49.0 38.333333333333336 L 48.0 39.0 L 47.0 40.0 L 46.0 41.0 L 45.0 42.0 L 44.0 43.0 L 43.0 44.0 L 42.0 45.0 L 41.333333333333336 46.0 L 41.0 47.0 L 41.333333333333336 47.666666666666664 L 42.0 48.0 L 43.0 48.0 L 44.0 48.0 L 45.0 48.0 L 46.0 48.333333333333336 L 47.0 49.0 L 48.0 50.0 L 49.0 51.0 L 49.666666666666664 52.0 L 50.0 53.0 L 50.333333333333336 54.0 L 50.666666666666664 55.0 L 51.0 56.0 L 51.0 57.0 L 51.0 58.0 L 51.0 59.0 L 51.0 60.0 L 51.0 61.0 L 51.0 62.0 L 51.0 63.0 L 51.0 64.0 L 50.666666666666664 65.0 L 50.0 66.0 L 49.333333333333336 67.0 L 48.666666666666664 68.0 L 48.0 69.0 L 47.0 70.0 L 46.0 70.66666666666667 L 45.0 71.0 L 44.0 71.0 L 43.0 70.66666666666667 L 42.0 70.33333333333333 L 41.0 69.66666666666667 L 40.0 69.33333333333333 L 39.0 69.0 L 38.333333333333336 69.33333333333333 L 38.0 70.0 L 38.0 71.0 L 38.333333333333336 72.0 L 38.666666666666664 73.0 L 39.333333333333336 74.0 L 39.666666666666664 75.0 L 40.333333333333336 76.0 L 40.666666666666664 77.0 L 41.333333333333336 78.0 L 42.0 78.66666666666667 L 43.0 79.0 L 44.0 79.0 L 45.0 79.0 L 46.0 79.0 L 47.0 79.33333333333333 L 48.0 79.66666666666667 L 49.0 80.0 L 50.0 80.0 L 51.0 80.0 L 52.0 80.33333333333333 L 53.0 80.66666666666667 L 54.0 81.0 L 55.0 81.33333333333333 L 56.0 81.66666666666667 L 57.0 82.33333333333333 L 58.0 82.66666666666667 L 58.5 83.0 Z" stroke="none" fill="rgb(253,224,48)" />
<path d="M 110.5 60.5 L 111.0 60.666666666666664 L 112.0 61.0 L 113.0 61.0 L 114.0 60.666666666666664 L 115.0 60.333333333333336 L 115.66666666666667 59.666666666666664 L 116.0 59.0 L 116.0 58.0 L 116.0 57.0 L 115.66666666666667 56.0 L 115.0 55.0 L 114.33333333333333 54.0 L 114.0 53.0 L 114.0 52.0 L 114.0 51.0 L 113.66666666666667 50.0 L 113.33333333333333 49.0 L 113.0 48.0 L 112.66666666666667 47.0 L 112.33333333333333 46.0 L 111.66666666666667 45.0 L 111.0 44.333333333333336 L 110.0 44.0 L 109.0 44.0 L 108.0 44.0 L 107.33333333333333 44.333333333333336 L 107.0 45.0 L 107.33333333333333 46.0 L 107.66666666666667 47.0 L 108.0 48.0 L 108.33333333333333 49.0 L 108.66666666666667 50.0 L 109.0 51.0 L 109.0 52.0 L 109.33333333333333 53.0 L 109.66666666666667 54.0 L 110.0 55.0 L 110.0 56.0 L 110.0 57.0 L 110.0 58.0 L 110.0 59.0 L 110.0 59.5 Z" stroke="none" fill="rgb(247,194,43)" />
<path d="M 20.5 73.0 L 20.666666666666668 72.66666666666667 L 21.0 72.0 L 21.0 71.0 L 21.0 70.0 L 21.0 69.0 L 20.666666666666668 68.0 L 20.333333333333332 67.0 L 20.0 66.0 L 20.0 65.0 L 20.0 64.0 L 20.0 63.0 L 20.0 62.0 L 20.0 61.0 L 20.0 60.0 L 20.0 59.0 L 20.0 58.0 L 20.333333333333332 57.0 L 20.666666666666668 56.0 L 21.0 55.0 L 21.0 54.0 L 21.0 53.0 L 21.333333333333332 52.0 L 21.666666666666668 51.0 L 22.0 50.0 L 22.333333333333332 49.0 L 22.666666666666668 48.0 L 23.0 47.0 L 23.0 46.0 L 22.666666666666668 45.333333333333336 L 22.0 45.0 L 21.0 45.333333333333336 L 20.0 45.666666666666664 L 19.0 46.333333333333336 L 18.0 47.0 L 17.333333333333332 48.0 L 17.0 49.0 L 17.0 50.0 L 16.666666666666668 51.0 L 16.333333333333332 52.0 L 16.0 53.0 L 16.0 54.0 L 16.0 55.0 L 16.0 56.0 L 16.0 57.0 L 16.0 58.0 L 16.0 59.0 L 16.0 60.0 L 16.0 61.0 L 16.0 62.0 L 16.0 63.0 L 16.0 64.0 L 16.0 65.0 L 16.0 66.0 L 16.0 67.0 L 16.0 68.0 L 16.333333333333332 69.0 L 17.0 70.0 L 18.0 71.0 L 19.0 72.0 L 19.5 72.5 Z" stroke="none" fill="rgb(247,194,43)" />
<path d="M 114.5 55.5 L 115.0 55.666666666666664 L 115.66666666666667 55.666666666666664 L 116.0 55.0 L 116.0 54.0 L 116.0 53.0 L 116.0 52.0 L 116.0 51.0 L 116.0 50.0 L 115.66666666666667 49.0 L 115.33333333333333 48.0 L 115.0 47.0 L 114.66666666666667 46.0 L 114.0 45.333333333333336 L 113.0 45.0 L 112.33333333333333 45.333333333333336 L 112.0 46.0 L 112.33333333333333 47.0 L 112.66666666666667 48.0 L 113.0 49.0 L 113.33333333333333 50.0 L 113.66666666666667 51.0 L 114.0 52.0 L 114.0 53.0 L 114.0 54.0 L 114.0 54.5 Z" stroke="none" fill="rgb(246,179,40)" />
<path d="M 117.5 59.0 L 118.0 59.0 L 118.66666666666667 58.666666666666664 L 119.0 58.0 L 119.0 57.0 L 119.0 56.0 L 119.0 55.0 L 118.66666666666667 54.0 L 118.33333333333333 53.0 L 118.0 52.0 L 118.0 51.0 L 118.0 50.0 L 118.0 49.0 L 118.0 48.0 L 117.66666666666667 47.0 L 117.33333333333333 46.0 L 116.66666666666667 45.333333333333336 L 116.0 45.0 L 115.33333333333333 45.333333333333336 L 115.0 46.0 L 115.0 47.0 L 115.0 48.0 L 115.33333333333333 49.0 L 115.66666666666667 50.0 L 116.0 51.0 L 116.0 52.0 L 116.0 53.0 L 116.0 54.0 L 116.0 55.0 L 116.0 56.0 L 116.0 57.0 L 116.0 58.0 L 116.33333333333333 58.666666666666664 L 116.5 59.0 Z" stroke="none" fill="rgb(235,144,2)" />
<path d="M 14.5 68.0 L 15.0 68.0 L 15.666666666666666 67.66666666666667 L 16.0 67.0 L 16.0 66.0 L 16.0 65.0 L 16.0 64.0 L 16.0 63.0 L 16.0 62.0 L 16.0 61.0 L 16.0 60.0 L 16.0 59.0 L 16.0 58.0 L 16.0 57.0 L 16.0 56.0 L 16.0 55.0 L 16.0 54.0 L 16.333333333333332 53.0 L 16.666666666666668 52.0 L 17.0 51.0 L 17.0 50.0 L 17.0 49.0 L 17.0 48.0 L 16.666666666666668 47.333333333333336 L 16.0 47.0 L 15.333333333333334 47.333333333333336 L 15.0 48.0 L 15.0 49.0 L 14.666666666666666 50.0 L 14.333333333333334 51.0 L 14.0 52.0 L 14.0 53.0 L 14.0 54.0 L 14.0 55.0 L 13.666666666666666 56.0 L 13.333333333333334 57.0 L 13.0 58.0 L 13.0 59.0 L 13.0 60.0 L 13.0 61.0 L 13.0 62.0 L 13.0 63.0 L 13.0 64.0 L 13.0 65.0 L 13.0 66.0 L 13.0 67.0 L 13.333333333333334 67.66666666666667 L 13.5 68.0 Z" stroke="none" fill="rgb(246,179,40)" />
<path d="M 14.0 56.5 L 14.0 56.0 L 14.0 55.0 L 14.0 54.0 L 14.0 53.0 L 14.333333333333334 52.0 L 14.666666666666666 51.0 L 15.0 50.0 L 15.0 49.0 L 14.666666666666666 48.333333333333336 L 14.0 48.0 L 13.0 48.0 L 12.0 48.0 L 11.0 48.0 L 10.333333333333334 48.333333333333336 L 10.0 49.0 L 10.0 50.0 L 10.0 51.0 L 9.666666666666666 52.0 L 9.333333333333334 53.0 L 9.0 54.0 L 9.0 55.0 L 9.0 56.0 L 9.0 57.0 L 9.0 58.0 L 9.0 59.0 L 9.0 60.0 L 9.0 61.0 L 9.0 62.0 L 9.0 63.0 L 9.0 64.0 L 9.0 65.0 L 9.333333333333334 66.0 L 10.0 66.66666666666667 L 11.0 67.0 L 12.0 67.0 L 12.666666666666666 66.66666666666667 L 13.0 66.0 L 13.0 65.0 L 13.0 64.0 L 13.0 63.0 L 13.0 62.0 L 13.0 61.0 L 13.0 60.0 L 13.0 59.0 L 13.333333333333334 58.0 L 13.5 57.5 Z" stroke="none" fill="rgb(244,163,35)" />
<path d="M 40.5 70.0 L 41.0 70.33333333333333 L 42.0 70.66666666666667 L 43.0 71.0 L 44.0 71.0 L 45.0 71.0 L 46.0 71.0 L 47.0 70.66666666666667 L 48.0 70.0 L 48.666666666666664 69.0 L 49.333333333333336 68.0 L 50.0 67.0 L 50.666666666666664 66.0 L 51.0 65.0 L 51.0 64.0 L 51.0 63.0 L 51.0 62.0 L 51.0 61.0 L 51.0 60.0 L 51.0 59.0 L 51.0 58.0 L 51.0 57.0 L 51.0 56.0 L 51.0 55.0 L 50.666666666666664 54.0 L 50.333333333333336 53.0 L 50.0 52.0 L 49.666666666666664 51.0 L 49.0 50.0 L 48.0 49.0 L 47.0 48.333333333333336 L 46.0 48.0 L 45.0 48.0 L 44.0 48.0 L 43.0 48.0 L 42.0 48.0 L 41.0 48.333333333333336 L 40.0 49.0 L 39.333333333333336 50.0 L 38.666666666666664 51.0 L 38.333333333333336 52.0 L 38.0 53.0 L 38.0 54.0 L 38.0 55.0 L 38.0 56.0 L 37.666666666666664 57.0 L 37.333333333333336 58.0 L 37.0 59.0 L 37.0 60.0 L 37.0 61.0 L 37.0 62.0 L 37.0 63.0 L 37.0 64.0 L 37.333333333333336 65.0 L 37.666666666666664 66.0 L 38.0 67.0 L 38.333333333333336 68.0 L 39.0 69.0 L 39.5 69.5 Z" stroke="none" fill="rgb(66,43,13)" />
<path d="M 91.0 64.5 L 91.0 64.0 L 91.0 63.0 L 91.0 62.0 L 91.0 61.0 L 91.0 60.0 L 91.0 59.0 L 91.0 58.0 L 90.66666666666667 57.0 L 90.33333333333333 56.0 L 90.0 55.0 L 90.0 54.0 L 90.0 53.0 L 89.66666666666667 52.0 L 89.0 51.0 L 88.0 50.0 L 87.0 49.0 L 86.0 48.333333333333336 L 85.0 48.0 L 84.0 48.0 L 83.0 48.0 L 82.0 48.333333333333336 L 81.0 48.666666666666664 L 80.0 49.333333333333336 L 79.0 50.0 L 78.33333333333333 51.0 L 78.0 52.0 L 77.66666666666667 53.0 L 77.33333333333333 54.0 L 77.0 55.0 L 77.0 56.0 L 77.0 57.0 L 77.0 58.0 L 77.0 59.0 L 77.0 60.0 L 77.0 61.0 L 77.0 62.0 L 77.0 63.0 L 77.0 64.0 L 77.0 65.0 L 77.33333333333333 66.0 L 78.0 67.0 L 79.0 68.0 L 80.0 69.0 L 81.0 70.0 L 82.0 70.66666666666667 L 83.0 71.0 L 84.0 71.0 L 85.0 71.0 L 86.0 70.66666666666667 L 87.0 70.0 L 88.0 69.0 L 89.0 68.0 L 89.66666666666667 67.0 L 90.33333333333333 66.0 L 90.5 65.5 Z" stroke="none" fill="rgb(66,43,13)" />
<path d="M 72.5 94.0 L 73.0 93.66666666666667 L 74.0 93.0 L 75.0 92.33333333333333 L 76.0 91.66666666666667 L 77.0 91.33333333333333 L 78.0 91.0 L 79.0 90.66666666666667 L 80.0 90.33333333333333 L 81.0 90.0 L 82.0 90.0 L 83.0 90.0 L 84.0 90.0 L 85.0 89.66666666666667 L 86.0 89.33333333333333 L 87.0 89.0 L 88.0 89.33333333333333 L 89.0 89.66666666666667 L 90.0 90.0 L 91.0 90.0 L 92.0 90.0 L 93.0 90.0 L 94.0 90.0 L 95.0 90.33333333333333 L 96.0 90.66666666666667 L 97.0 91.0 L 98.0 91.33333333333333 L 99.0 91.66666666666667 L 100.0 92.33333333333333 L 101.0 92.66666666666667 L 102.0 93.33333333333333 L 103.0 93.66666666666667 L 104.0 94.33333333333333 L 105.0 94.66666666666667 L 106.0 95.33333333333333 L 107.0 96.0 L 108.0 97.0 L 109.0 97.66666666666667 L 110.0 98.0 L 110.66666666666667 97.66666666666667 L 111.0 97.0 L 110.66666666666667 96.0 L 110.33333333333333 95.0 L 109.66666666666667 94.0 L 109.33333333333333 93.0 L 108.66666666666667 92.0 L 108.33333333333333 91.0 L 107.66666666666667 90.0 L 107.0 89.0 L 106.0 88.0 L 105.0 87.0 L 104.0 86.0 L 103.0 85.0 L 102.0 84.33333333333333 L 101.0 83.66666666666667 L 100.33333333333333 83.0 L 100.0 82.0 L 100.33333333333333 81.0 L 101.0 80.0 L 101.66666666666667 79.0 L 102.33333333333333 78.0 L 102.66666666666667 77.0 L 103.33333333333333 76.0 L 104.0 75.0 L 105.0 74.0 L 106.0 73.0 L 107.0 72.0 L 108.0 71.0 L 109.0 70.0 L 110.0 69.0 L 111.0 68.33333333333333 L 112.0 67.66666666666667 L 113.0 67.33333333333333 L 114.0 66.66666666666667 L 115.0 66.33333333333333 L 116.0 65.66666666666667 L 117.0 65.33333333333333 L 118.0 65.0 L 119.0 65.0 L 120.0 64.66666666666667 L 121.0 64.33333333333333 L 122.0 64.0 L 123.0 64.0 L 124.0 64.0 L 125.0 63.666666666666664 L 125.66666666666667 63.0 L 126.0 62.0 L 125.66666666666667 61.0 L 125.0 60.0 L 124.0 59.333333333333336 L 123.0 59.0 L 122.0 59.0 L 121.0 59.0 L 120.0 59.0 L 119.0 59.0 L 118.0 59.0 L 117.0 59.0 L 116.0 59.333333333333336 L 115.0 59.666666666666664 L 114.0 60.333333333333336 L 113.0 60.666666666666664 L 112.0 61.0 L 111.0 61.0 L 110.0 61.333333333333336 L 109.0 61.666666666666664 L 108.0 62.0 L 107.0 62.0 L 106.0 62.333333333333336 L 105.0 63.0 L 104.0 64.0 L 103.0 64.66666666666667 L 102.0 65.33333333333333 L 101.0 66.0 L 100.0 67.0 L 99.0 68.0 L 98.0 69.0 L 97.0 70.0 L 96.33333333333333 71.0 L 95.66666666666667 72.0 L 95.0 73.0 L 94.33333333333333 74.0 L 93.66666666666667 75.0 L 93.33333333333333 76.0 L 92.66666666666667 77.0 L 92.33333333333333 78.0 L 91.66666666666667 79.0 L 91.0 79.33333333333333 L 90.0 79.33333333333333 L 89.0 79.0 L 88.0 78.66666666666667 L 87.0 78.33333333333333 L 86.0 78.0 L 85.0 78.0 L 84.0 78.0 L 83.0 78.0 L 82.0 78.0 L 81.0 78.0 L 80.0 78.33333333333333 L 79.0 78.66666666666667 L 78.0 79.0 L 77.0 79.0 L 76.0 79.0 L 75.0 79.33333333333333 L 74.0 79.66666666666667 L 73.0 80.0 L 72.0 80.33333333333333 L 71.0 80.66666666666667 L 70.0 81.33333333333333 L 69.0 82.0 L 68.0 82.66666666666667 L 67.0 83.33333333333333 L 66.0 84.0 L 65.0 85.0 L 64.33333333333333 86.0 L 64.33333333333333 87.0 L 65.0 88.0 L 66.0 89.0 L 66.66666666666667 90.0 L 67.33333333333333 91.0 L 68.0 92.0 L 68.66666666666667 93.0 L 69.33333333333333 94.0 L 70.0 94.66666666666667 L 71.0 94.66666666666667 L 71.5 94.5 Z" stroke="none" fill="rgb(146,203,235)" />
<path d="M 42.5 91.0 L 43.0 91.33333333333333 L 44.0 91.66666666666667 L 45.0 92.0 L 46.0 92.33333333333333 L 47.0 92.66666666666667 L 48.0 93.33333333333333 L 49.0 94.0 L 50.0 94.66666666666667 L 51.0 95.33333333333333 L 52.0 96.0 L 53.0 97.0 L 54.0 98.0 L 55.0 99.0 L 56.0 100.0 L 56.666666666666664 101.0 L 57.333333333333336 102.0 L 58.0 103.0 L 58.666666666666664 104.0 L 59.333333333333336 105.0 L 59.666666666666664 106.0 L 60.0 107.0 L 60.333333333333336 108.0 L 60.666666666666664 109.0 L 61.0 110.0 L 61.0 111.0 L 61.333333333333336 112.0 L 61.666666666666664 113.0 L 62.0 114.0 L 62.0 115.0 L 62.333333333333336 116.0 L 63.0 116.66666666666667 L 64.0 117.0 L 65.0 117.0 L 66.0 117.0 L 67.0 116.66666666666667 L 68.0 116.33333333333333 L 69.0 116.0 L 70.0 116.0 L 71.0 116.0 L 72.0 116.0 L 73.0 116.0 L 74.0 116.0 L 75.0 116.0 L 76.0 116.0 L 77.0 116.0 L 78.0 116.0 L 79.0 116.33333333333333 L 80.0 116.66666666666667 L 81.0 117.0 L 82.0 117.33333333333333 L 83.0 117.66666666666667 L 84.0 118.33333333333333 L 85.0 118.66666666666667 L 86.0 119.33333333333333 L 87.0 120.0 L 88.0 120.66666666666667 L 89.0 121.33333333333333 L 90.0 122.0 L 91.0 123.0 L 92.0 124.0 L 93.0 124.66666666666667 L 94.0 125.0 L 94.66666666666667 124.66666666666667 L 95.0 124.0 L 94.66666666666667 123.0 L 94.33333333333333 122.0 L 94.0 121.0 L 94.0 120.0 L 94.0 119.0 L 94.0 118.0 L 93.66666666666667 117.0 L 93.33333333333333 116.0 L 92.66666666666667 115.0 L 92.33333333333333 114.0 L 91.66666666666667 113.0 L 91.0 112.0 L 90.0 111.0 L 89.0 110.0 L 88.0 109.33333333333333 L 87.0 108.66666666666667 L 86.0 108.33333333333333 L 85.0 107.66666666666667 L 84.0 107.33333333333333 L 83.0 107.0 L 82.0 106.66666666666667 L 81.0 106.33333333333333 L 80.0 106.0 L 79.0 106.0 L 78.0 106.0 L 77.0 106.0 L 76.0 105.66666666666667 L 75.0 105.0 L 74.0 104.0 L 73.0 103.0 L 72.33333333333333 102.0 L 72.0 101.0 L 72.0 100.0 L 72.0 99.0 L 71.66666666666667 98.0 L 71.33333333333333 97.0 L 71.0 96.0 L 70.66666666666667 95.0 L 70.0 94.0 L 69.33333333333333 93.0 L 68.66666666666667 92.0 L 68.0 91.0 L 67.33333333333333 90.0 L 66.66666666666667 89.0 L 66.0 88.0 L 65.0 87.0 L 64.0 86.0 L 63.0 85.33333333333333 L 62.0 84.66666666666667 L 61.0 84.0 L 60.0 83.33333333333333 L 59.0 82.66666666666667 L 58.0 82.33333333333333 L 57.0 81.66666666666667 L 56.0 81.33333333333333 L 55.0 81.0 L 54.0 80.66666666666667 L 53.0 80.33333333333333 L 52.0 80.0 L 51.0 80.0 L 50.0 80.0 L 49.0 79.66666666666667 L 48.0 79.33333333333333 L 47.0 79.0 L 46.0 79.0 L 45.0 79.0 L 44.0 79.0 L 43.0 79.0 L 42.0 79.33333333333333 L 41.0 79.66666666666667 L 40.0 80.0 L 39.0 80.0 L 38.0 80.33333333333333 L 37.0 80.66666666666667 L 36.0 81.0 L 35.0 81.0 L 34.0 81.33333333333333 L 33.0 81.66666666666667 L 32.0 82.0 L 31.0 81.66666666666667 L 30.0 81.33333333333333 L 29.0 81.0 L 28.0 80.66666666666667 L 27.0 80.0 L 26.0 79.0 L 25.0 78.0 L 24.0 77.0 L 23.333333333333332 76.0 L 22.666666666666668 75.0 L 22.0 74.0 L 21.0 73.0 L 20.0 72.0 L 19.0 71.0 L 18.0 70.0 L 17.0 69.0 L 16.0 68.33333333333333 L 15.0 68.0 L 14.0 67.66666666666667 L 13.0 67.33333333333333 L 12.0 67.0 L 11.0 66.66666666666667 L 10.0 66.33333333333333 L 9.0 66.0 L 8.0 66.0 L 7.0 66.0 L 6.0 66.0 L 5.0 66.0 L 4.333333333333333 66.33333333333333 L 4.0 67.0 L 4.0 68.0 L 4.333333333333333 69.0 L 5.0 70.0 L 6.0 70.66666666666667 L 7.0 71.33333333333333 L 8.0 72.0 L 9.0 73.0 L 10.0 74.0 L 11.0 75.0 L 11.666666666666666 76.0 L 12.333333333333334 77.0 L 13.0 78.0 L 13.666666666666666 79.0 L 14.333333333333334 80.0 L 14.666666666666666 81.0 L 15.333333333333334 82.0 L 15.666666666666666 83.0 L 16.333333333333332 84.0 L 16.666666666666668 85.0 L 17.0 86.0 L 17.0 87.0 L 16.666666666666668 88.0 L 16.0 89.0 L 15.0 90.0 L 14.333333333333334 91.0 L 13.666666666666666 92.0 L 13.333333333333334 93.0 L 12.666666666666666 94.0 L 12.333333333333334 95.0 L 12.0 96.0 L 11.666666666666666 97.0 L 11.333333333333334 98.0 L 11.0 99.0 L 11.0 100.0 L 11.0 101.0 L 11.333333333333334 101.66666666666667 L 12.0 102.0 L 13.0 102.0 L 14.0 101.66666666666667 L 15.0 101.0 L 16.0 100.33333333333333 L 17.0 99.66666666666667 L 18.0 99.0 L 19.0 98.33333333333333 L 20.0 97.66666666666667 L 21.0 97.0 L 22.0 96.33333333333333 L 23.0 95.66666666666667 L 24.0 95.33333333333333 L 25.0 94.66666666666667 L 26.0 94.33333333333333 L 27.0 93.66666666666667 L 28.0 93.33333333333333 L 29.0 93.0 L 30.0 92.66666666666667 L 31.0 92.33333333333333 L 32.0 92.0 L 33.0 91.66666666666667 L 34.0 91.33333333333333 L 35.0 91.0 L 36.0 91.0 L 37.0 91.0 L 38.0 91.0 L 39.0 91.0 L 40.0 91.0 L 41.0 91.0 L 41.5 91.0 Z" stroke="none" fill="rgb(213,235,245)" />
</svg>
