<?xml version="1.0" encoding="UTF-8" standalone="no"?>
<!DOCTYPE svg PUBLIC "-//W3C//DTD SVG 1.1//EN"
"http://www.w3.org/Graphics/SVG/1.1/DTD/svg11.dtd">
<svg width="128" height="128" xmlns="http://www.w3.org/2000/svg" version="1.1">
<path d="M 101.5 128.0 L 102.0 128.0 L 103.0 128.0 L 104.0 128.0 L 105.0 128.0 L 106.0 128.0 L 107.0 128.0 L 108.0 128.0 L 109.0 128.0 L 110.0 128.0 L 111.0 128.0 L 112.0 128.0 L 113.0 128.0 L 114.0 128.0 L 115.0 128.0 L 116.0 128.0 L 117.0 128.0 L 118.0 128.0 L 119.0 128.0 L 120.0 128.0 L 121.0 128.0 L 122.0 128.0 L 123.0 128.0 L 124.0 128.0 L 125.0 128.0 L 126.0 128.0 L 127.0 128.0 L 127.66666666666667 127.66666666666667 L 128.0 127.0 L 128.0 126.0 L 128.0 125.0 L 128.0 124.0 L 128.0 123.0 L 128.0 122.0 L 128.0 121.0 L 128.0 120.0 L 128.0 119.0 L 128.0 118.0 L 128.0 117.0 L 128.0 116.0 L 128.0 115.0 L 128.0 114.0 L 128.0 113.0 L 128.0 112.0 L 128.0 111.0 L 128.0 110.0 L 128.0 109.0 L 128.0 108.0 L 128.0 107.0 L 128.0 106.0 L 128.0 105.0 L 128.0 104.0 L 128.0 103.0 L 128.0 102.0 L 128.0 101.0 L 128.0 100.0 L 128.0 99.0 L 128.0 98.0 L 128.0 97.0 L 128.0 96.0 L 128.0 95.0 L 128.0 94.0 L 128.0 93.0 L 128.0 92.0 L 128.0 91.0 L 128.0 90.0 L 128.0 89.0 L 128.0 88.0 L 128.0 87.0 L 128.0 86.0 L 128.0 85.0 L 128.0 84.0 L 128.0 83.0 L 128.0 82.0 L 128.0 81.0 L 128.0 80.0 L 128.0 79.0 L 128.0 78.0 L 128.0 77.0 L 128.0 76.0 L 128.0 75.0 L 128.0 74.0 L 128.0 73.0 L 128.0 72.0 L 128.0 71.0 L 128.0 70.0 L 128.0 69.0 L 128.0 68.0 L 128.0 67.0 L 128.0 66.0 L 128.0 65.0 L 128.0 64.0 L 128.0 63.0 L 128.0 62.0 L 128.0 61.0 L 128.0 60.0 L 128.0 59.0 L 128.0 58.0 L 128.0 57.0 L 128.0 56.0 L 128.0 55.0 L 128.0 54.0 L 128.0 53.0 L 128.0 52.0 L 128.0 51.0 L 128.0 50.0 L 128.0 49.0 L 128.0 48.0 L 128.0 47.0 L 128.0 46.0 L 128.0 45.0 L 128.0 44.0 L 128.0 43.0 L 128.0 42.0 L 128.0 41.0 L 128.0 40.0 L 128.0 39.0 L 128.0 38.0 L 128.0 37.0 L 128.0 36.0 L 128.0 35.0 L 128.0 34.0 L 128.0 33.0 L 128.0 32.0 L 128.0 31.0 L 128.0 30.0 L 128.0 29.0 L 128.0 28.0 L 128.0 27.0 L 128.0 26.0 L 128.0 25.0 L 128.0 24.0 L 128.0 23.0 L 128.0 22.0 L 128.0 21.0 L 128.0 20.0 L 128.0 19.0 L 128.0 18.0 L 128.0 17.0 L 128.0 16.0 L 128.0 15.0 L 128.0 14.0 L 128.0 13.0 L 128.0 12.0 L 128.0 11.0 L 128.0 10.0 L 128.0 9.0 L 128.0 8.0 L 128.0 7.0 L 128.0 6.0 L 128.0 5.0 L 128.0 4.0 L 128.0 3.0 L 128.0 2.0 L 128.0 1.0 L 127.66666666666667 0.3333333333333333 L 127.0 0.0 L 126.0 0.0 L 125.0 0.0 L 124.0 0.0 L 123.0 0.0 L 122.0 0.0 L 121.0 0.0 L 120.0 0.0 L 119.0 0.0 L 118.0 0.0 L 117.0 0.0 L 116.0 0.0 L 115.0 0.0 L 114.0 0.0 L 113.0 0.0 L 112.0 0.0 L 111.0 0.0 L 110.0 0.0 L 109.0 0.0 L 108.0 0.0 L 107.0 0.0 L 106.0 0.0 L 105.0 0.0 L 104.0 0.0 L 103.0 0.0 L 102.0 0.0 L 101.0 0.0 L 100.0 0.0 L 99.0 0.0 L 98.0 0.0 L 97.0 0.0 L 96.0 0.0 L 95.0 0.0 L 94.0 0.0 L 93.0 0.0 L 92.0 0.0 L 91.0 0.0 L 90.0 0.0 L 89.0 0.0 L 88.0 0.0 L 87.0 0.0 L 86.0 0.0 L 85.0 0.0 L 84.0 0.0 L 83.0 0.0 L 82.0 0.0 L 81.0 0.0 L 80.0 0.0 L 79.0 0.0 L 78.0 0.0 L 77.0 0.0 L 76.0 0.0 L 75.0 0.0 L 74.0 0.0 L 73.0 0.0 L 72.0 0.0 L 71.0 0.0 L 70.0 0.0 L 69.0 0.0 L 68.0 0.0 L 67.0 0.0 L 66.0 0.0 L 65.0 0.0 L 64.0 0.0 L 63.0 0.0 L 62.0 0.0 L 61.0 0.0 L 60.0 0.0 L 59.0 0.0 L 58.0 0.0 L 57.0 0.0 L 56.0 0.0 L 55.0 0.0 L 54.0 0.0 L 53.0 0.0 L 52.0 0.0 L 51.0 0.0 L 50.0 0.0 L 49.0 0.0 L 48.0 0.0 L 47.0 0.0 L 46.0 0.0 L 45.0 0.0 L 44.0 0.0 L 43.0 0.0 L 42.0 0.0 L 41.0 0.0 L 40.0 0.0 L 39.0 0.0 L 38.0 0.0 L 37.0 0.0 L 36.0 0.0 L 35.0 0.0 L 34.0 0.0 L 33.0 0.0 L 32.0 0.0 L 31.0 0.0 L 30.0 0.0 L 29.0 0.0 L 28.0 0.0 L 27.0 0.0 L 26.0 0.0 L 25.0 0.0 L 24.0 0.0 L 23.0 0.0 L 22.0 0.0 L 21.0 0.0 L 20.0 0.0 L 19.0 0.0 L 18.0 0.0 L 17.0 0.0 L 16.0 0.0 L 15.0 0.0 L 14.0 0.0 L 13.0 0.0 L 12.0 0.0 L 11.0 0.0 L 10.0 0.0 L 9.0 0.0 L 8.0 0.0 L 7.0 0.0 L 6.0 0.0 L 5.0 0.0 L 4.0 0.0 L 3.0 0.0 L 2.0 0.0 L 1.0 0.0 L 0.3333333333333333 0.3333333333333333 L 0.0 1.0 L 0.0 2.0 L 0.0 3.0 L 0.0 4.0 L 0.0 5.0 L 0.0 6.0 L 0.0 7.0 L 0.0 8.0 L 0.0 9.0 L 0.0 10.0 L 0.0 11.0 L 0.0 12.0 L 0.0 13.0 L 0.0 14.0 L 0.0 15.0 L 0.0 16.0 L 0.0 17.0 L 0.0 18.0 L 0.0 19.0 L 0.0 20.0 L 0.0 21.0 L 0.0 22.0 L 0.0 23.0 L 0.0 24.0 L 0.0 25.0 L 0.0 26.0 L 0.0 27.0 L 0.0 28.0 L 0.0 29.0 L 0.0 30.0 L 0.0 31.0 L 0.0 32.0 L 0.0 33.0 L 0.0 34.0 L 0.0 35.0 L 0.0 36.0 L 0.0 37.0 L 0.0 38.0 L 0.0 39.0 L 0.0 40.0 L 0.0 41.0 L 0.0 42.0 L 0.0 43.0 L 0.0 44.0 L 0.0 45.0 L 0.0 46.0 L 0.0 47.0 L 0.0 48.0 L 0.0 49.0 L 0.0 50.0 L 0.0 51.0 L 0.0 52.0 L 0.0 53.0 L 0.0 54.0 L 0.0 55.0 L 0.0 56.0 L 0.0 57.0 L 0.0 58.0 L 0.0 59.0 L 0.0 60.0 L 0.0 61.0 L 0.0 62.0 L 0.0 63.0 L 0.0 64.0 L 0.0 65.0 L 0.0 66.0 L 0.0 67.0 L 0.0 68.0 L 0.0 69.0 L 0.0 70.0 L 0.0 71.0 L 0.0 72.0 L 0.0 73.0 L 0.0 74.0 L 0.0 75.0 L 0.0 76.0 L 0.0 77.0 L 0.0 78.0 L 0.0 79.0 L 0.0 80.0 L 0.0 81.0 L 0.0 82.0 L 0.0 83.0 L 0.0 84.0 L 0.0 85.0 L 0.0 86.0 L 0.0 87.0 L 0.0 88.0 L 0.0 89.0 L 0.0 90.0 L 0.0 91.0 L 0.0 92.0 L 0.0 93.0 L 0.0 94.0 L 0.0 95.0 L 0.0 96.0 L 0.0 97.0 L 0.0 98.0 L 0.0 99.0 L 0.0 100.0 L 0.0 101.0 L 0.0 102.0 L 0.0 103.0 L 0.0 104.0 L 0.0 105.0 L 0.0 106.0 L 0.0 107.0 L 0.0 108.0 L 0.0 109.0 L 0.0 110.0 L 0.0 111.0 L 0.0 112.0 L 0.0 113.0 L 0.0 114.0 L 0.0 115.0 L 0.0 116.0 L 0.0 117.0 L 0.0 118.0 L 0.0 119.0 L 0.0 120.0 L 0.0 121.0 L 0.0 122.0 L 0.0 123.0 L 0.0 124.0 L 0.0 125.0 L 0.0 126.0 L 0.0 127.0 L 0.3333333333333333 127.66666666666667 L 1.0 128.0 L 2.0 128.0 L 3.0 128.0 L 4.0 128.0 L 5.0 128.0 L 6.0 128.0 L 7.0 128.0 L 8.0 128.0 L 9.0 128.0 L 10.0 128.0 L 11.0 128.0 L 12.0 128.0 L 13.0 128.0 L 14.0 128.0 L 15.0 128.0 L 16.0 128.0 L 17.0 128.0 L 18.0 128.0 L 19.0 128.0 L 20.0 128.0 L 21.0 128.0 L 22.0 128.0 L 23.0 128.0 L 24.0 128.0 L 25.0 128.0 L 26.0 128.0 L 27.0 128.0 L 28.0 128.0 L 29.0 128.0 L 30.0 128.0 L 31.0 128.0 L 32.0 128.0 L 33.0 128.0 L 34.0 128.0 L 35.0 128.0 L 36.0 128.0 L 37.0 128.0 L 38.0 128.0 L 39.0 128.0 L 40.0 128.0 L 41.0 128.0 L 42.0 128.0 L 43.0 128.0 L 44.0 128.0 L 45.0 128.0 L 46.0 128.0 L 47.0 128.0 L 48.0 128.0 L 49.0 128.0 L 50.0 128.0 L 51.0 128.0 L 52.0 128.0 L 53.0 128.0 L 54.0 128.0 L 55.0 128.0 L 56.0 128.0 L 57.0 128.0 L 58.0 128.0 L 59.0 128.0 L 60.0 128.0 L 61.0 128.0 L 62.0 128.0 L 63.0 128.0 L 64.0 128.0 L 65.0 128.0 L 66.0 128.0 L 67.0 128.0 L 68.0 128.0 L 69.0 128.0 L 70.0 128.0 L 71.0 128.0 L 72.0 128.0 L 73.0 128.0 L 74.0 128.0 L 75.0 128.0 L 76.0 128.0 L 77.0 128.0 L 78.0 128.0 L 79.0 128.0 L 80.0 128.0 L 81.0 128.0 L 82.0 128.0 L 83.0 128.0 L 84.0 128.0 L 85.0 128.0 L 86.0 128.0 L 87.0 128.0 L 88.0 128.0 L 89.0 128.0 L 90.0 128.0 L 91.0 128.0 L 92.0 128.0 L 93.0 128.0 L 94.0 128.0 L 95.0 128.0 L 96.0 128.0 L 97.0 128.0 L 98.0 128.0 L 99.0 128.0 L 100.0 128.0 L 100.5 128.0 Z" stroke="none" fill="rgb(0,0,0)" />
<path d="M 88.5 16.5 L 89.0 17.0 L 90.0 18.0 L 91.0 19.0 L 92.0 20.0 L 92.66666666666667 21.0 L 93.33333333333333 22.0 L 94.0 23.0 L 94.66666666666667 24.0 L 95.33333333333333 25.0 L 95.66666666666667 26.0 L 96.33333333333333 27.0 L 96.66666666666667 28.0 L 97.33333333333333 29.0 L 97.66666666666667 30.0 L 98.0 31.0 L 98.33333333333333 32.0 L 98.66666666666667 33.0 L 99.0 34.0 L 99.33333333333333 35.0 L 100.0 35.666666666666664 L 100.66666666666667 35.666666666666664 L 101.0 35.0 L 100.66666666666667 34.0 L 100.33333333333333 33.0 L 100.0 32.0 L 100.0 31.0 L 100.0 30.0 L 99.66666666666667 29.0 L 99.33333333333333 28.0 L 99.0 27.0 L 98.66666666666667 26.0 L 98.33333333333333 25.0 L 98.0 24.0 L 97.66666666666667 23.0 L 97.33333333333333 22.0 L 96.66666666666667 21.0 L 96.33333333333333 20.0 L 95.66666666666667 19.0 L 95.0 18.0 L 94.33333333333333 17.0 L 93.66666666666667 16.0 L 93.0 15.0 L 92.0 14.0 L 91.0 13.0 L 90.0 12.0 L 89.0 11.0 L 88.0 10.333333333333334 L 87.0 9.666666666666666 L 86.0 9.0 L 85.0 8.333333333333334 L 84.0 7.666666666666667 L 83.0 7.333333333333333 L 82.0 6.666666666666667 L 81.0 6.333333333333333 L 80.0 6.0 L 79.0 5.666666666666667 L 78.0 5.333333333333333 L 77.0 5.0 L 76.0 5.0 L 75.0 4.666666666666667 L 74.0 4.333333333333333 L 73.0 4.0 L 72.0 4.0 L 71.0 4.0 L 70.0 4.0 L 69.0 4.0 L 68.0 4.0 L 67.0 4.0 L 66.0 4.0 L 65.0 4.0 L 64.0 4.0 L 63.0 4.0 L 62.0 4.0 L 61.0 4.0 L 60.0 4.0 L 59.0 4.0 L 58.0 4.0 L 57.0 4.0 L 56.0 4.0 L 55.0 4.333333333333333 L 54.0 4.666666666666667 L 53.0 5.0 L 52.0 5.0 L 51.0 5.0 L 50.0 5.333333333333333 L 49.0 5.666666666666667 L 48.0 6.0 L 47.0 6.333333333333333 L 46.0 7.0 L 45.0 7.666666666666667 L 44.0 8.0 L 43.0 8.333333333333334 L 42.0 9.0 L 41.0 9.666666666666666 L 40.0 10.333333333333334 L 39.0 11.0 L 38.0 12.0 L 37.0 13.0 L 36.0 14.0 L 35.0 15.0 L 34.333333333333336 16.0 L 33.666666666666664 17.0 L 33.0 18.0 L 32.333333333333336 19.0 L 31.666666666666668 20.0 L 31.333333333333332 21.0 L 30.666666666666668 22.0 L 30.333333333333332 23.0 L 30.0 24.0 L 30.0 25.0 L 29.666666666666668 26.0 L 29.333333333333332 27.0 L 28.666666666666668 28.0 L 28.333333333333332 29.0 L 28.0 30.0 L 28.0 31.0 L 28.0 32.0 L 27.666666666666668 33.0 L 27.333333333333332 34.0 L 27.0 35.0 L 27.0 36.0 L 27.333333333333332 36.666666666666664 L 28.0 36.666666666666664 L 28.666666666666668 36.0 L 29.0 35.0 L 29.333333333333332 34.0 L 29.666666666666668 33.0 L 30.0 32.0 L 30.333333333333332 31.0 L 30.666666666666668 30.0 L 31.333333333333332 29.0 L 31.666666666666668 28.0 L 32.333333333333336 27.0 L 32.666666666666664 26.0 L 33.333333333333336 25.0 L 33.666666666666664 24.0 L 34.333333333333336 23.0 L 35.0 22.0 L 35.666666666666664 21.0 L 36.333333333333336 20.0 L 37.0 19.0 L 38.0 18.0 L 39.0 17.0 L 40.0 16.0 L 41.0 15.0 L 42.0 14.0 L 43.0 13.333333333333334 L 44.0 12.666666666666666 L 45.0 12.0 L 46.0 11.333333333333334 L 47.0 10.666666666666666 L 48.0 10.0 L 49.0 9.333333333333334 L 50.0 8.666666666666666 L 51.0 8.333333333333334 L 52.0 8.0 L 53.0 7.666666666666667 L 54.0 7.333333333333333 L 55.0 7.0 L 56.0 6.666666666666667 L 57.0 6.333333333333333 L 58.0 6.0 L 59.0 6.0 L 60.0 6.0 L 61.0 6.0 L 62.0 6.0 L 63.0 6.0 L 64.0 6.0 L 65.0 6.0 L 66.0 6.0 L 67.0 6.0 L 68.0 6.0 L 69.0 6.0 L 70.0 6.0 L 71.0 6.333333333333333 L 72.0 6.666666666666667 L 73.0 7.0 L 74.0 7.333333333333333 L 75.0 7.666666666666667 L 76.0 8.0 L 77.0 8.333333333333334 L 78.0 8.666666666666666 L 79.0 9.333333333333334 L 80.0 9.666666666666666 L 81.0 10.333333333333334 L 82.0 11.0 L 83.0 11.666666666666666 L 84.0 12.333333333333334 L 85.0 13.0 L 86.0 14.0 L 87.0 15.0 L 87.5 15.5 Z" stroke="none" fill="rgb(109,76,64)" />
<path d="M 101.0 55.5 L 101.0 55.0 L 101.0 54.0 L 101.0 53.0 L 101.0 52.0 L 101.0 51.0 L 101.0 50.0 L 101.0 49.0 L 101.0 48.0 L 101.0 47.0 L 101.0 46.0 L 101.0 45.0 L 101.0 44.0 L 101.0 43.0 L 101.0 42.0 L 101.0 41.0 L 101.0 40.0 L 101.0 39.0 L 101.0 38.0 L 101.0 37.0 L 100.66666666666667 36.0 L 100.0 35.0 L 99.33333333333333 34.0 L 99.0 33.0 L 98.66666666666667 32.0 L 98.33333333333333 31.0 L 98.0 30.0 L 97.66666666666667 29.0 L 97.33333333333333 28.0 L 96.66666666666667 27.0 L 96.33333333333333 26.0 L 95.66666666666667 25.0 L 95.33333333333333 24.0 L 94.66666666666667 23.0 L 94.0 22.0 L 93.33333333333333 21.0 L 92.66666666666667 20.0 L 92.0 19.0 L 91.0 18.0 L 90.0 17.0 L 89.0 16.0 L 88.0 15.0 L 87.0 14.0 L 86.0 13.0 L 85.0 12.333333333333334 L 84.0 11.666666666666666 L 83.0 11.0 L 82.0 10.333333333333334 L 81.0 9.666666666666666 L 80.0 9.333333333333334 L 79.0 8.666666666666666 L 78.0 8.333333333333334 L 77.0 8.0 L 76.0 7.666666666666667 L 75.0 7.333333333333333 L 74.0 7.0 L 73.0 6.666666666666667 L 72.0 6.333333333333333 L 71.0 6.0 L 70.0 6.0 L 69.0 6.0 L 68.0 6.0 L 67.0 6.0 L 66.0 6.0 L 65.0 6.0 L 64.0 6.0 L 63.0 6.0 L 62.0 6.0 L 61.0 6.0 L 60.0 6.0 L 59.0 6.0 L 58.0 6.0 L 57.0 6.0 L 56.0 6.333333333333333 L 55.0 6.666666666666667 L 54.0 7.0 L 53.0 7.333333333333333 L 52.0 7.666666666666667 L 51.0 8.0 L 50.0 8.333333333333334 L 49.0 8.666666666666666 L 48.0 9.333333333333334 L 47.0 10.0 L 46.0 10.666666666666666 L 45.0 11.333333333333334 L 44.0 12.0 L 43.0 12.666666666666666 L 42.0 13.333333333333334 L 41.0 14.0 L 40.0 15.0 L 39.0 16.0 L 38.0 17.0 L 37.0 18.0 L 36.333333333333336 19.0 L 35.666666666666664 20.0 L 35.0 21.0 L 34.333333333333336 22.0 L 33.666666666666664 23.0 L 33.333333333333336 24.0 L 32.666666666666664 25.0 L 32.333333333333336 26.0 L 31.666666666666668 27.0 L 31.333333333333332 28.0 L 30.666666666666668 29.0 L 30.333333333333332 30.0 L 30.0 31.0 L 29.666666666666668 32.0 L 29.333333333333332 33.0 L 29.0 34.0 L 28.666666666666668 35.0 L 28.333333333333332 36.0 L 28.0 37.0 L 28.0 38.0 L 28.0 39.0 L 27.666666666666668 40.0 L 27.333333333333332 41.0 L 27.0 42.0 L 27.0 43.0 L 27.0 44.0 L 27.0 45.0 L 27.0 46.0 L 27.0 47.0 L 27.0 48.0 L 27.0 49.0 L 27.0 50.0 L 27.0 51.0 L 27.0 52.0 L 27.0 53.0 L 27.0 54.0 L 27.0 55.0 L 27.333333333333332 56.0 L 27.666666666666668 57.0 L 28.333333333333332 58.0 L 28.666666666666668 59.0 L 29.0 60.0 L 29.333333333333332 61.0 L 30.0 62.0 L 31.0 62.666666666666664 L 31.666666666666668 62.666666666666664 L 32.0 62.0 L 31.666666666666668 61.0 L 31.333333333333332 60.0 L 30.666666666666668 59.0 L 30.333333333333332 58.0 L 30.0 57.0 L 30.0 56.0 L 30.0 55.0 L 29.666666666666668 54.0 L 29.333333333333332 53.0 L 29.0 52.0 L 29.0 51.0 L 29.0 50.0 L 29.0 49.0 L 29.0 48.0 L 29.0 47.0 L 29.0 46.0 L 29.0 45.0 L 29.0 44.0 L 29.0 43.0 L 29.333333333333332 42.0 L 29.666666666666668 41.0 L 30.0 40.0 L 30.0 39.0 L 30.0 38.0 L 30.333333333333332 37.0 L 30.666666666666668 36.0 L 31.0 35.0 L 31.333333333333332 34.0 L 31.666666666666668 33.0 L 32.0 32.0 L 32.333333333333336 31.0 L 32.666666666666664 30.0 L 33.333333333333336 29.0 L 33.666666666666664 28.0 L 34.333333333333336 27.0 L 34.666666666666664 26.0 L 35.333333333333336 25.0 L 36.0 24.0 L 36.666666666666664 23.0 L 37.333333333333336 22.0 L 38.0 21.0 L 39.0 20.0 L 40.0 19.0 L 41.0 18.0 L 42.0 17.0 L 43.0 16.0 L 44.0 15.0 L 45.0 14.333333333333334 L 46.0 13.666666666666666 L 47.0 13.0 L 48.0 12.333333333333334 L 49.0 11.666666666666666 L 50.0 11.333333333333334 L 51.0 10.666666666666666 L 52.0 10.333333333333334 L 53.0 9.666666666666666 L 54.0 9.333333333333334 L 55.0 9.0 L 56.0 9.0 L 57.0 8.666666666666666 L 58.0 8.333333333333334 L 59.0 8.0 L 60.0 8.0 L 61.0 8.0 L 62.0 8.0 L 63.0 8.0 L 64.0 8.0 L 65.0 8.0 L 66.0 8.0 L 67.0 8.0 L 68.0 8.0 L 69.0 8.0 L 70.0 8.0 L 71.0 8.333333333333334 L 72.0 8.666666666666666 L 73.0 9.0 L 74.0 9.333333333333334 L 75.0 9.666666666666666 L 76.0 10.333333333333334 L 77.0 10.666666666666666 L 78.0 11.333333333333334 L 79.0 11.666666666666666 L 80.0 12.333333333333334 L 81.0 12.666666666666666 L 82.0 13.333333333333334 L 83.0 14.0 L 84.0 15.0 L 85.0 16.0 L 86.0 17.0 L 87.0 18.0 L 88.0 19.0 L 89.0 20.0 L 90.0 21.0 L 91.0 22.0 L 91.66666666666667 23.0 L 92.33333333333333 24.0 L 92.66666666666667 25.0 L 93.33333333333333 26.0 L 94.0 27.0 L 94.66666666666667 28.0 L 95.33333333333333 29.0 L 95.66666666666667 30.0 L 96.0 31.0 L 96.33333333333333 32.0 L 96.66666666666667 33.0 L 97.0 34.0 L 97.33333333333333 35.0 L 97.66666666666667 36.0 L 98.0 37.0 L 98.0 38.0 L 98.33333333333333 39.0 L 98.66666666666667 40.0 L 99.0 41.0 L 99.0 42.0 L 99.0 43.0 L 99.0 44.0 L 99.0 45.0 L 99.0 46.0 L 99.0 47.0 L 99.0 48.0 L 99.0 49.0 L 99.0 50.0 L 99.0 51.0 L 99.0 52.0 L 99.0 53.0 L 98.66666666666667 54.0 L 98.33333333333333 55.0 L 98.0 56.0 L 98.0 57.0 L 98.0 58.0 L 98.0 59.0 L 98.33333333333333 59.666666666666664 L 99.0 59.666666666666664 L 99.66666666666667 59.0 L 100.0 58.0 L 100.33333333333333 57.0 L 100.5 56.5 Z" stroke="none" fill="rgb(103,71,60)" />
<path d="M 84.5 18.0 L 85.0 18.333333333333332 L 86.0 19.0 L 86.66666666666667 20.0 L 87.33333333333333 21.0 L 88.0 22.0 L 89.0 23.0 L 90.0 24.0 L 90.66666666666667 25.0 L 91.33333333333333 26.0 L 91.66666666666667 27.0 L 92.33333333333333 28.0 L 92.66666666666667 29.0 L 93.33333333333333 30.0 L 93.66666666666667 31.0 L 94.33333333333333 32.0 L 94.66666666666667 33.0 L 95.0 34.0 L 95.33333333333333 35.0 L 95.66666666666667 36.0 L 96.0 37.0 L 96.0 38.0 L 96.33333333333333 39.0 L 96.66666666666667 40.0 L 97.0 41.0 L 97.0 42.0 L 97.0 43.0 L 97.0 44.0 L 97.0 45.0 L 97.0 46.0 L 97.0 47.0 L 97.0 48.0 L 97.0 49.0 L 97.0 50.0 L 97.0 51.0 L 97.0 52.0 L 97.0 53.0 L 97.0 54.0 L 96.66666666666667 55.0 L 96.33333333333333 56.0 L 96.0 57.0 L 96.0 58.0 L 96.0 59.0 L 96.0 60.0 L 96.0 61.0 L 96.33333333333333 61.666666666666664 L 97.0 62.0 L 97.66666666666667 61.666666666666664 L 98.0 61.0 L 98.0 60.0 L 98.0 59.0 L 98.0 58.0 L 98.0 57.0 L 98.33333333333333 56.0 L 98.66666666666667 55.0 L 99.0 54.0 L 99.0 53.0 L 99.0 52.0 L 99.0 51.0 L 99.0 50.0 L 99.0 49.0 L 99.0 48.0 L 99.0 47.0 L 99.0 46.0 L 99.0 45.0 L 99.0 44.0 L 99.0 43.0 L 99.0 42.0 L 99.0 41.0 L 99.0 40.0 L 98.66666666666667 39.0 L 98.33333333333333 38.0 L 98.0 37.0 L 98.0 36.0 L 97.66666666666667 35.0 L 97.33333333333333 34.0 L 97.0 33.0 L 96.66666666666667 32.0 L 96.33333333333333 31.0 L 96.0 30.0 L 95.66666666666667 29.0 L 95.33333333333333 28.0 L 94.66666666666667 27.0 L 94.0 26.0 L 93.33333333333333 25.0 L 92.66666666666667 24.0 L 92.33333333333333 23.0 L 91.66666666666667 22.0 L 91.0 21.0 L 90.0 20.0 L 89.0 19.0 L 88.0 18.0 L 87.0 17.0 L 86.0 16.0 L 85.0 15.0 L 84.0 14.0 L 83.0 13.333333333333334 L 82.0 12.666666666666666 L 81.0 12.333333333333334 L 80.0 11.666666666666666 L 79.0 11.333333333333334 L 78.0 10.666666666666666 L 77.0 10.333333333333334 L 76.0 9.666666666666666 L 75.0 9.333333333333334 L 74.0 9.0 L 73.0 8.666666666666666 L 72.0 8.333333333333334 L 71.0 8.0 L 70.0 8.0 L 69.0 8.0 L 68.0 8.0 L 67.0 8.0 L 66.0 8.0 L 65.0 8.0 L 64.0 8.0 L 63.0 8.0 L 62.0 8.0 L 61.0 8.0 L 60.0 8.0 L 59.0 8.0 L 58.0 8.0 L 57.0 8.333333333333334 L 56.0 8.666666666666666 L 55.0 9.0 L 54.0 9.0 L 53.0 9.333333333333334 L 52.0 9.666666666666666 L 51.0 10.333333333333334 L 50.0 10.666666666666666 L 49.0 11.333333333333334 L 48.0 11.666666666666666 L 47.0 12.333333333333334 L 46.0 13.0 L 45.0 13.666666666666666 L 44.0 14.333333333333334 L 43.0 15.0 L 42.0 16.0 L 41.0 17.0 L 40.0 18.0 L 39.0 19.0 L 38.0 20.0 L 37.333333333333336 21.0 L 36.666666666666664 22.0 L 36.0 23.0 L 35.333333333333336 24.0 L 34.666666666666664 25.0 L 34.333333333333336 26.0 L 33.666666666666664 27.0 L 33.333333333333336 28.0 L 32.666666666666664 29.0 L 32.333333333333336 30.0 L 32.0 31.0 L 31.666666666666668 32.0 L 31.333333333333332 33.0 L 31.0 34.0 L 30.666666666666668 35.0 L 30.333333333333332 36.0 L 30.0 37.0 L 30.0 38.0 L 30.0 39.0 L 29.666666666666668 40.0 L 29.333333333333332 41.0 L 29.0 42.0 L 29.0 43.0 L 29.0 44.0 L 29.0 45.0 L 29.0 46.0 L 29.0 47.0 L 29.0 48.0 L 29.0 49.0 L 29.0 50.0 L 29.0 51.0 L 29.0 52.0 L 29.0 53.0 L 29.333333333333332 54.0 L 29.666666666666668 55.0 L 30.0 56.0 L 30.0 57.0 L 30.0 58.0 L 30.333333333333332 59.0 L 30.666666666666668 60.0 L 31.333333333333332 60.666666666666664 L 32.0 61.0 L 32.666666666666664 60.666666666666664 L 33.0 60.0 L 33.0 59.0 L 33.0 58.0 L 32.666666666666664 57.0 L 32.333333333333336 56.0 L 32.0 55.0 L 31.666666666666668 54.0 L 31.333333333333332 53.0 L 31.0 52.0 L 31.0 51.0 L 31.0 50.0 L 31.0 49.0 L 31.0 48.0 L 31.0 47.0 L 31.0 46.0 L 31.0 45.0 L 31.0 44.0 L 31.0 43.0 L 31.0 42.0 L 31.333333333333332 41.0 L 31.666666666666668 40.0 L 32.0 39.0 L 32.0 38.0 L 32.333333333333336 37.0 L 32.666666666666664 36.0 L 33.0 35.0 L 33.333333333333336 34.0 L 33.666666666666664 33.0 L 34.0 32.0 L 34.333333333333336 31.0 L 34.666666666666664 30.0 L 35.333333333333336 29.0 L 35.666666666666664 28.0 L 36.333333333333336 27.0 L 37.0 26.0 L 37.666666666666664 25.0 L 38.333333333333336 24.0 L 39.0 23.0 L 40.0 22.0 L 41.0 21.0 L 42.0 20.0 L 43.0 19.0 L 44.0 18.0 L 45.0 17.0 L 46.0 16.0 L 47.0 15.333333333333334 L 48.0 14.666666666666666 L 49.0 14.333333333333334 L 50.0 13.666666666666666 L 51.0 13.333333333333334 L 52.0 12.666666666666666 L 53.0 12.333333333333334 L 54.0 11.666666666666666 L 55.0 11.333333333333334 L 56.0 11.0 L 57.0 10.666666666666666 L 58.0 10.333333333333334 L 59.0 10.0 L 60.0 10.0 L 61.0 10.0 L 62.0 10.0 L 63.0 10.0 L 64.0 10.0 L 65.0 10.0 L 66.0 10.0 L 67.0 10.0 L 68.0 10.0 L 69.0 10.0 L 70.0 10.333333333333334 L 71.0 10.666666666666666 L 72.0 11.0 L 73.0 11.333333333333334 L 74.0 11.666666666666666 L 75.0 12.0 L 76.0 12.333333333333334 L 77.0 12.666666666666666 L 78.0 13.333333333333334 L 79.0 14.0 L 80.0 14.666666666666666 L 81.0 15.333333333333334 L 82.0 16.0 L 83.0 17.0 L 83.5 17.5 Z" stroke="none" fill="rgb(96,67,57)" />
<path d="M 88.5 25.5 L 89.0 26.0 L 89.66666666666667 27.0 L 90.33333333333333 28.0 L 90.66666666666667 29.0 L 91.33333333333333 30.0 L 91.66666666666667 31.0 L 92.33333333333333 32.0 L 92.66666666666667 33.0 L 93.0 34.0 L 93.33333333333333 35.0 L 93.66666666666667 36.0 L 94.0 37.0 L 94.0 38.0 L 94.33333333333333 39.0 L 94.66666666666667 40.0 L 95.0 41.0 L 95.0 42.0 L 95.0 43.0 L 95.0 44.0 L 95.0 45.0 L 95.0 46.0 L 95.0 47.0 L 95.0 48.0 L 95.0 49.0 L 95.0 50.0 L 95.0 51.0 L 95.0 52.0 L 95.0 53.0 L 95.0 54.0 L 95.0 55.0 L 95.0 56.0 L 95.33333333333333 56.666666666666664 L 96.0 56.666666666666664 L 96.66666666666667 56.0 L 97.0 55.0 L 97.0 54.0 L 97.0 53.0 L 97.0 52.0 L 97.0 51.0 L 97.0 50.0 L 97.0 49.0 L 97.0 48.0 L 97.0 47.0 L 97.0 46.0 L 97.0 45.0 L 97.0 44.0 L 97.0 43.0 L 97.0 42.0 L 97.0 41.0 L 97.0 40.0 L 96.66666666666667 39.0 L 96.33333333333333 38.0 L 96.0 37.0 L 96.0 36.0 L 95.66666666666667 35.0 L 95.33333333333333 34.0 L 95.0 33.0 L 94.66666666666667 32.0 L 94.33333333333333 31.0 L 93.66666666666667 30.0 L 93.33333333333333 29.0 L 92.66666666666667 28.0 L 92.33333333333333 27.0 L 91.66666666666667 26.0 L 91.33333333333333 25.0 L 90.66666666666667 24.0 L 90.0 23.0 L 89.0 22.0 L 88.0 21.0 L 87.33333333333333 20.0 L 86.66666666666667 19.0 L 86.0 18.333333333333332 L 85.0 17.666666666666668 L 84.0 17.0 L 83.0 16.0 L 82.0 15.333333333333334 L 81.0 14.666666666666666 L 80.0 14.0 L 79.0 13.333333333333334 L 78.0 12.666666666666666 L 77.0 12.333333333333334 L 76.0 12.0 L 75.0 11.666666666666666 L 74.0 11.333333333333334 L 73.0 11.0 L 72.0 10.666666666666666 L 71.0 10.333333333333334 L 70.0 10.0 L 69.0 10.0 L 68.0 10.0 L 67.0 10.0 L 66.0 10.0 L 65.0 10.0 L 64.0 10.0 L 63.0 10.0 L 62.0 10.0 L 61.0 10.0 L 60.0 10.0 L 59.0 10.0 L 58.0 10.0 L 57.0 10.333333333333334 L 56.0 10.666666666666666 L 55.0 11.0 L 54.0 11.333333333333334 L 53.0 11.666666666666666 L 52.0 12.333333333333334 L 51.0 12.666666666666666 L 50.0 13.333333333333334 L 49.0 13.666666666666666 L 48.0 14.333333333333334 L 47.0 14.666666666666666 L 46.0 15.333333333333334 L 45.0 16.0 L 44.0 17.0 L 43.0 18.0 L 42.0 19.0 L 41.0 20.0 L 40.0 21.0 L 39.0 22.0 L 38.333333333333336 23.0 L 37.666666666666664 24.0 L 37.0 25.0 L 36.333333333333336 26.0 L 35.666666666666664 27.0 L 35.333333333333336 28.0 L 34.666666666666664 29.0 L 34.333333333333336 30.0 L 34.0 31.0 L 33.666666666666664 32.0 L 33.333333333333336 33.0 L 33.0 34.0 L 32.666666666666664 35.0 L 32.333333333333336 36.0 L 32.0 37.0 L 32.0 38.0 L 31.666666666666668 39.0 L 31.333333333333332 40.0 L 31.0 41.0 L 31.0 42.0 L 31.0 43.0 L 31.0 44.0 L 31.0 45.0 L 31.0 46.0 L 31.0 47.0 L 31.0 48.0 L 31.0 49.0 L 31.0 50.0 L 31.0 51.0 L 31.0 52.0 L 31.0 53.0 L 31.333333333333332 54.0 L 31.666666666666668 55.0 L 32.0 56.0 L 32.333333333333336 56.666666666666664 L 33.0 57.0 L 33.666666666666664 56.666666666666664 L 34.0 56.0 L 34.0 55.0 L 34.0 54.0 L 33.666666666666664 53.0 L 33.333333333333336 52.0 L 33.0 51.0 L 33.0 50.0 L 33.0 49.0 L 33.0 48.0 L 33.0 47.0 L 33.0 46.0 L 33.0 45.0 L 33.0 44.0 L 33.0 43.0 L 33.0 42.0 L 33.333333333333336 41.0 L 33.666666666666664 40.0 L 34.0 39.0 L 34.0 38.0 L 34.333333333333336 37.0 L 34.666666666666664 36.0 L 35.0 35.0 L 35.333333333333336 34.0 L 35.666666666666664 33.0 L 36.333333333333336 32.0 L 36.666666666666664 31.0 L 37.333333333333336 30.0 L 37.666666666666664 29.0 L 38.333333333333336 28.0 L 38.666666666666664 27.0 L 39.333333333333336 26.0 L 40.0 25.0 L 41.0 24.0 L 42.0 23.0 L 43.0 22.0 L 44.0 21.0 L 45.0 20.0 L 46.0 19.0 L 47.0 18.0 L 48.0 17.333333333333332 L 49.0 16.666666666666668 L 50.0 16.0 L 51.0 15.333333333333334 L 52.0 14.666666666666666 L 53.0 14.333333333333334 L 54.0 14.0 L 55.0 13.666666666666666 L 56.0 13.333333333333334 L 57.0 13.0 L 58.0 12.666666666666666 L 59.0 12.333333333333334 L 60.0 12.0 L 61.0 12.0 L 62.0 12.0 L 63.0 12.0 L 64.0 12.0 L 65.0 12.0 L 66.0 12.0 L 67.0 12.0 L 68.0 12.0 L 69.0 12.333333333333334 L 70.0 12.666666666666666 L 71.0 13.0 L 72.0 13.0 L 73.0 13.333333333333334 L 74.0 13.666666666666666 L 75.0 14.333333333333334 L 76.0 14.666666666666666 L 77.0 15.333333333333334 L 78.0 15.666666666666666 L 79.0 16.333333333333332 L 80.0 17.0 L 81.0 18.0 L 82.0 18.666666666666668 L 83.0 19.333333333333332 L 84.0 20.0 L 85.0 21.0 L 86.0 22.0 L 86.66666666666667 23.0 L 87.33333333333333 24.0 L 87.5 24.5 Z" stroke="none" fill="rgb(91,62,52)" />
<path d="M 58.5 37.0 L 59.0 37.0 L 60.0 37.0 L 61.0 37.0 L 62.0 37.0 L 63.0 37.0 L 64.0 37.0 L 65.0 37.0 L 66.0 37.0 L 67.0 37.0 L 68.0 37.0 L 69.0 37.0 L 70.0 37.0 L 71.0 37.0 L 72.0 37.0 L 73.0 37.0 L 74.0 37.0 L 75.0 37.0 L 76.0 37.0 L 77.0 37.0 L 78.0 37.0 L 79.0 37.0 L 80.0 37.0 L 81.0 37.0 L 82.0 36.666666666666664 L 83.0 36.333333333333336 L 84.0 36.0 L 85.0 36.0 L 86.0 36.333333333333336 L 87.0 37.0 L 88.0 38.0 L 89.0 39.0 L 89.66666666666667 40.0 L 90.33333333333333 41.0 L 90.66666666666667 42.0 L 91.0 43.0 L 91.0 44.0 L 91.33333333333333 45.0 L 91.66666666666667 46.0 L 92.0 47.0 L 92.0 48.0 L 92.33333333333333 49.0 L 92.66666666666667 50.0 L 93.0 51.0 L 93.0 52.0 L 93.33333333333333 53.0 L 94.0 53.666666666666664 L 94.66666666666667 53.666666666666664 L 95.0 53.0 L 95.0 52.0 L 95.0 51.0 L 95.0 50.0 L 95.0 49.0 L 95.0 48.0 L 95.0 47.0 L 95.0 46.0 L 95.0 45.0 L 95.0 44.0 L 95.0 43.0 L 95.0 42.0 L 95.0 41.0 L 95.0 40.0 L 94.66666666666667 39.0 L 94.33333333333333 38.0 L 94.0 37.0 L 94.0 36.0 L 93.66666666666667 35.0 L 93.33333333333333 34.0 L 93.0 33.0 L 92.66666666666667 32.0 L 92.33333333333333 31.0 L 91.66666666666667 30.0 L 91.33333333333333 29.0 L 90.66666666666667 28.0 L 90.33333333333333 27.0 L 89.66666666666667 26.0 L 89.0 25.0 L 88.0 24.0 L 87.33333333333333 23.0 L 86.66666666666667 22.0 L 86.0 21.0 L 85.0 20.0 L 84.0 19.333333333333332 L 83.0 18.666666666666668 L 82.0 18.0 L 81.0 17.0 L 80.0 16.333333333333332 L 79.0 15.666666666666666 L 78.0 15.333333333333334 L 77.0 14.666666666666666 L 76.0 14.333333333333334 L 75.0 13.666666666666666 L 74.0 13.333333333333334 L 73.0 13.0 L 72.0 13.0 L 71.0 12.666666666666666 L 70.0 12.333333333333334 L 69.0 12.0 L 68.0 12.0 L 67.0 12.0 L 66.0 12.0 L 65.0 12.0 L 64.0 12.0 L 63.0 12.0 L 62.0 12.0 L 61.0 12.0 L 60.0 12.0 L 59.0 12.0 L 58.0 12.333333333333334 L 57.0 12.666666666666666 L 56.0 13.0 L 55.0 13.333333333333334 L 54.0 13.666666666666666 L 53.0 14.0 L 52.0 14.333333333333334 L 51.0 14.666666666666666 L 50.0 15.333333333333334 L 49.0 16.0 L 48.0 16.666666666666668 L 47.0 17.333333333333332 L 46.0 18.0 L 45.0 19.0 L 44.0 20.0 L 43.0 21.0 L 42.0 22.0 L 41.0 23.0 L 40.0 24.0 L 39.333333333333336 25.0 L 38.666666666666664 26.0 L 38.333333333333336 27.0 L 37.666666666666664 28.0 L 37.333333333333336 29.0 L 36.666666666666664 30.0 L 36.333333333333336 31.0 L 35.666666666666664 32.0 L 35.333333333333336 33.0 L 35.0 34.0 L 34.666666666666664 35.0 L 34.333333333333336 36.0 L 34.0 37.0 L 34.0 38.0 L 33.666666666666664 39.0 L 33.333333333333336 40.0 L 33.0 41.0 L 33.0 42.0 L 33.0 43.0 L 33.0 44.0 L 33.0 45.0 L 33.0 46.0 L 33.0 47.0 L 33.0 48.0 L 33.0 49.0 L 33.0 50.0 L 33.0 51.0 L 33.0 52.0 L 33.333333333333336 52.666666666666664 L 34.0 53.0 L 34.666666666666664 52.666666666666664 L 35.0 52.0 L 35.0 51.0 L 35.333333333333336 50.0 L 35.666666666666664 49.0 L 36.0 48.0 L 36.0 47.0 L 36.333333333333336 46.0 L 36.666666666666664 45.0 L 37.0 44.0 L 37.0 43.0 L 37.333333333333336 42.0 L 37.666666666666664 41.0 L 38.333333333333336 40.0 L 39.0 39.0 L 40.0 38.0 L 41.0 37.333333333333336 L 42.0 36.666666666666664 L 43.0 36.333333333333336 L 44.0 36.0 L 45.0 36.0 L 46.0 36.0 L 47.0 36.0 L 48.0 36.0 L 49.0 36.0 L 50.0 36.0 L 51.0 36.333333333333336 L 52.0 36.666666666666664 L 53.0 37.0 L 54.0 37.0 L 55.0 37.0 L 56.0 37.0 L 57.0 37.0 L 57.5 37.0 Z" stroke="none" fill="rgb(84,57,48)" />
<path d="M 59.5 80.5 L 60.0 80.0 L 61.0 79.33333333333333 L 62.0 78.66666666666667 L 63.0 78.33333333333333 L 64.0 78.0 L 65.0 78.0 L 66.0 78.33333333333333 L 67.0 79.0 L 68.0 80.0 L 69.0 81.0 L 70.0 81.66666666666667 L 71.0 82.0 L 72.0 82.0 L 73.0 82.0 L 74.0 81.66666666666667 L 75.0 81.33333333333333 L 76.0 80.66666666666667 L 77.0 80.33333333333333 L 78.0 80.0 L 79.0 79.66666666666667 L 80.0 79.33333333333333 L 81.0 78.66666666666667 L 82.0 78.33333333333333 L 83.0 77.66666666666667 L 84.0 77.33333333333333 L 85.0 76.66666666666667 L 86.0 76.33333333333333 L 87.0 75.66666666666667 L 88.0 75.33333333333333 L 89.0 74.66666666666667 L 90.0 74.33333333333333 L 91.0 73.66666666666667 L 92.0 73.66666666666667 L 93.0 73.66666666666667 L 94.0 73.66666666666667 L 95.0 73.0 L 96.0 72.0 L 96.66666666666667 71.0 L 97.0 70.0 L 97.0 69.0 L 97.0 68.0 L 97.0 67.0 L 97.0 66.0 L 97.0 65.0 L 97.0 64.0 L 97.0 63.0 L 96.66666666666667 62.0 L 96.33333333333333 61.0 L 96.0 60.0 L 96.0 59.0 L 96.0 58.0 L 95.66666666666667 57.0 L 95.33333333333333 56.0 L 95.0 55.0 L 94.66666666666667 54.0 L 94.0 53.0 L 93.33333333333333 52.0 L 93.0 51.0 L 93.0 50.0 L 92.66666666666667 49.0 L 92.33333333333333 48.0 L 92.0 47.0 L 92.0 46.0 L 91.66666666666667 45.0 L 91.33333333333333 44.0 L 91.0 43.0 L 91.0 42.0 L 90.66666666666667 41.0 L 90.33333333333333 40.0 L 89.66666666666667 39.0 L 89.0 38.0 L 88.0 37.0 L 87.0 36.333333333333336 L 86.0 36.0 L 85.0 36.0 L 84.0 36.0 L 83.0 36.0 L 82.0 36.333333333333336 L 81.0 36.666666666666664 L 80.0 37.0 L 79.0 37.0 L 78.0 37.0 L 77.0 37.0 L 76.0 37.0 L 75.0 37.0 L 74.0 37.0 L 73.0 37.0 L 72.0 37.0 L 71.0 37.0 L 70.0 37.0 L 69.0 37.0 L 68.0 37.0 L 67.0 37.0 L 66.0 37.0 L 65.0 37.0 L 64.0 37.0 L 63.0 37.0 L 62.0 37.0 L 61.0 37.0 L 60.0 37.0 L 59.0 37.0 L 58.0 37.0 L 57.0 37.0 L 56.0 37.0 L 55.0 37.0 L 54.0 37.0 L 53.0 36.666666666666664 L 52.0 36.333333333333336 L 51.0 36.0 L 50.0 36.0 L 49.0 36.0 L 48.0 36.0 L 47.0 36.0 L 46.0 36.0 L 45.0 36.0 L 44.0 36.0 L 43.0 36.0 L 42.0 36.333333333333336 L 41.0 36.666666666666664 L 40.0 37.333333333333336 L 39.0 38.0 L 38.333333333333336 39.0 L 37.666666666666664 40.0 L 37.333333333333336 41.0 L 37.0 42.0 L 37.0 43.0 L 36.666666666666664 44.0 L 36.333333333333336 45.0 L 36.0 46.0 L 36.0 47.0 L 35.666666666666664 48.0 L 35.333333333333336 49.0 L 35.0 50.0 L 35.0 51.0 L 34.666666666666664 52.0 L 34.333333333333336 53.0 L 34.0 54.0 L 34.0 55.0 L 33.666666666666664 56.0 L 33.333333333333336 57.0 L 33.0 58.0 L 33.0 59.0 L 32.666666666666664 60.0 L 32.333333333333336 61.0 L 32.0 62.0 L 32.0 63.0 L 31.666666666666668 64.0 L 31.333333333333332 65.0 L 31.0 66.0 L 31.0 67.0 L 31.0 68.0 L 31.0 69.0 L 31.0 70.0 L 31.333333333333332 71.0 L 32.0 72.0 L 33.0 73.0 L 34.0 73.66666666666667 L 35.0 73.66666666666667 L 36.0 73.33333333333333 L 37.0 73.33333333333333 L 38.0 73.66666666666667 L 39.0 74.33333333333333 L 40.0 74.66666666666667 L 41.0 75.33333333333333 L 42.0 75.66666666666667 L 43.0 76.33333333333333 L 44.0 76.66666666666667 L 45.0 77.33333333333333 L 46.0 77.66666666666667 L 47.0 78.33333333333333 L 48.0 78.66666666666667 L 49.0 79.33333333333333 L 50.0 79.66666666666667 L 51.0 80.33333333333333 L 52.0 80.66666666666667 L 53.0 81.0 L 54.0 81.33333333333333 L 55.0 81.66666666666667 L 56.0 82.0 L 57.0 82.0 L 58.0 81.66666666666667 L 58.5 81.5 Z" stroke="none" fill="rgb(255,202,40)" />
<path d="M 53.5 51.0 L 54.0 51.0 L 54.666666666666664 50.666666666666664 L 55.0 50.0 L 54.666666666666664 49.0 L 54.0 48.0 L 53.0 47.0 L 52.0 46.0 L 51.0 45.333333333333336 L 50.0 45.0 L 49.0 45.0 L 48.0 45.0 L 47.0 45.333333333333336 L 46.0 45.666666666666664 L 45.0 46.0 L 44.0 46.0 L 43.0 46.333333333333336 L 42.0 47.0 L 41.0 48.0 L 40.333333333333336 49.0 L 40.0 50.0 L 40.333333333333336 50.666666666666664 L 41.0 51.0 L 42.0 51.0 L 43.0 51.0 L 44.0 51.0 L 45.0 51.0 L 46.0 50.666666666666664 L 47.0 50.333333333333336 L 48.0 50.0 L 49.0 50.0 L 50.0 50.333333333333336 L 51.0 50.666666666666664 L 52.0 51.0 L 52.5 51.0 Z" stroke="none" fill="rgb(109,76,64)" />
<path d="M 87.5 51.0 L 87.66666666666667 50.666666666666664 L 88.0 50.0 L 87.66666666666667 49.0 L 87.0 48.0 L 86.0 47.0 L 85.0 46.0 L 84.0 45.333333333333336 L 83.0 45.0 L 82.0 45.0 L 81.0 45.0 L 80.0 45.333333333333336 L 79.0 45.666666666666664 L 78.0 46.0 L 77.0 46.0 L 76.0 46.333333333333336 L 75.0 47.0 L 74.0 48.0 L 73.33333333333333 49.0 L 73.0 50.0 L 73.33333333333333 50.666666666666664 L 74.0 51.0 L 75.0 51.0 L 76.0 51.0 L 77.0 51.0 L 78.0 51.0 L 79.0 50.666666666666664 L 80.0 50.333333333333336 L 81.0 50.0 L 82.0 50.0 L 83.0 50.333333333333336 L 84.0 50.666666666666664 L 85.0 51.0 L 86.0 51.0 L 86.5 51.0 Z" stroke="none" fill="rgb(109,76,64)" />
<path d="M 20.5 82.0 L 21.0 82.0 L 21.666666666666668 81.66666666666667 L 22.0 81.0 L 22.0 80.0 L 22.0 79.0 L 22.0 78.0 L 22.0 77.0 L 22.0 76.0 L 22.0 75.0 L 22.0 74.0 L 22.0 73.0 L 22.0 72.0 L 22.0 71.0 L 22.0 70.0 L 22.0 69.0 L 22.0 68.0 L 22.0 67.0 L 22.0 66.0 L 22.0 65.0 L 21.666666666666668 64.0 L 21.0 63.0 L 20.0 62.333333333333336 L 19.0 61.666666666666664 L 18.0 61.0 L 17.0 60.0 L 16.0 59.0 L 15.0 58.0 L 14.0 57.0 L 13.0 56.0 L 12.333333333333334 55.0 L 11.666666666666666 54.0 L 11.0 53.0 L 10.0 52.333333333333336 L 9.0 52.0 L 8.0 52.0 L 7.0 52.0 L 6.0 52.333333333333336 L 5.0 52.666666666666664 L 4.333333333333333 53.333333333333336 L 4.0 54.0 L 4.0 55.0 L 4.0 56.0 L 4.0 57.0 L 4.0 58.0 L 4.0 59.0 L 4.333333333333333 60.0 L 4.666666666666667 61.0 L 5.333333333333333 62.0 L 5.666666666666667 63.0 L 6.333333333333333 64.0 L 6.666666666666667 65.0 L 7.333333333333333 66.0 L 7.666666666666667 67.0 L 8.333333333333334 68.0 L 8.666666666666666 69.0 L 9.333333333333334 70.0 L 10.0 71.0 L 11.0 72.0 L 12.0 73.0 L 13.0 74.0 L 13.666666666666666 75.0 L 14.333333333333334 76.0 L 15.0 77.0 L 16.0 78.0 L 17.0 79.0 L 17.666666666666668 80.0 L 18.333333333333332 81.0 L 19.0 81.66666666666667 L 19.5 82.0 Z" stroke="none" fill="rgb(255,202,40)" />
<path d="M 107.5 82.5 L 108.0 82.33333333333333 L 109.0 81.66666666666667 L 110.0 81.0 L 110.66666666666667 80.0 L 111.33333333333333 79.0 L 112.0 78.0 L 113.0 77.0 L 114.0 76.0 L 114.66666666666667 75.0 L 115.33333333333333 74.0 L 116.0 73.0 L 117.0 72.0 L 118.0 71.0 L 118.66666666666667 70.0 L 119.33333333333333 69.0 L 119.66666666666667 68.0 L 120.33333333333333 67.0 L 120.66666666666667 66.0 L 121.33333333333333 65.0 L 121.66666666666667 64.0 L 122.33333333333333 63.0 L 122.66666666666667 62.0 L 123.33333333333333 61.0 L 123.66666666666667 60.0 L 124.0 59.0 L 124.0 58.0 L 124.0 57.0 L 124.0 56.0 L 124.0 55.0 L 124.0 54.0 L 123.66666666666667 53.333333333333336 L 123.0 52.666666666666664 L 122.0 52.333333333333336 L 121.0 52.0 L 120.0 52.0 L 119.0 52.0 L 118.0 52.333333333333336 L 117.0 53.0 L 116.33333333333333 54.0 L 115.66666666666667 55.0 L 115.0 56.0 L 114.0 57.0 L 113.0 58.0 L 112.0 59.0 L 111.0 60.0 L 110.0 61.0 L 109.0 61.666666666666664 L 108.0 62.333333333333336 L 107.0 63.0 L 106.0 64.0 L 105.0 64.66666666666667 L 104.33333333333333 65.33333333333333 L 104.0 66.0 L 104.0 67.0 L 104.0 68.0 L 104.0 69.0 L 104.0 70.0 L 104.0 71.0 L 104.0 72.0 L 104.0 73.0 L 104.0 74.0 L 104.0 75.0 L 104.0 76.0 L 104.0 77.0 L 104.0 78.0 L 104.0 79.0 L 104.0 80.0 L 104.0 81.0 L 104.0 82.0 L 104.33333333333333 82.66666666666667 L 105.0 83.0 L 106.0 83.0 L 106.5 83.0 Z" stroke="none" fill="rgb(255,202,40)" />
<path d="M 52.0 61.5 L 52.0 61.0 L 52.0 60.0 L 52.0 59.0 L 52.0 58.0 L 52.0 57.0 L 51.666666666666664 56.0 L 51.0 55.0 L 50.0 54.333333333333336 L 49.0 54.0 L 48.0 54.0 L 47.0 54.0 L 46.0 54.0 L 45.0 54.333333333333336 L 44.0 55.0 L 43.333333333333336 56.0 L 43.0 57.0 L 43.0 58.0 L 43.0 59.0 L 43.0 60.0 L 43.0 61.0 L 43.333333333333336 62.0 L 44.0 63.0 L 45.0 63.666666666666664 L 46.0 64.0 L 47.0 64.0 L 48.0 64.0 L 49.0 64.0 L 50.0 63.666666666666664 L 51.0 63.0 L 51.5 62.5 Z" stroke="none" fill="rgb(65,65,64)" />
<path d="M 81.5 64.0 L 82.0 64.0 L 83.0 63.666666666666664 L 84.0 63.0 L 84.66666666666667 62.0 L 85.0 61.0 L 85.0 60.0 L 85.0 59.0 L 85.0 58.0 L 85.0 57.0 L 84.66666666666667 56.0 L 84.0 55.0 L 83.0 54.333333333333336 L 82.0 54.0 L 81.0 54.0 L 80.0 54.0 L 79.0 54.0 L 78.0 54.333333333333336 L 77.0 55.0 L 76.33333333333333 56.0 L 76.0 57.0 L 76.0 58.0 L 76.0 59.0 L 76.0 60.0 L 76.0 61.0 L 76.33333333333333 62.0 L 77.0 63.0 L 78.0 63.666666666666664 L 79.0 64.0 L 80.0 64.0 L 80.5 64.0 Z" stroke="none" fill="rgb(65,65,64)" />
<path d="M 26.5 68.0 L 27.0 68.33333333333333 L 28.0 69.0 L 29.0 69.66666666666667 L 30.0 70.0 L 30.666666666666668 69.66666666666667 L 31.0 69.0 L 31.0 68.0 L 31.0 67.0 L 31.333333333333332 66.0 L 31.666666666666668 65.0 L 32.0 64.0 L 31.666666666666668 63.0 L 31.0 62.0 L 30.0 61.0 L 29.333333333333332 60.0 L 29.0 59.0 L 28.666666666666668 58.0 L 28.333333333333332 57.0 L 27.666666666666668 56.333333333333336 L 27.0 56.0 L 26.333333333333332 56.333333333333336 L 26.0 57.0 L 26.0 58.0 L 25.666666666666668 59.0 L 25.333333333333332 60.0 L 25.0 61.0 L 25.0 62.0 L 25.333333333333332 63.0 L 25.666666666666668 64.0 L 26.0 65.0 L 26.0 66.0 L 26.0 67.0 L 26.0 67.5 Z" stroke="none" fill="rgb(229,150,0)" />
<path d="M 98.5 70.0 L 99.0 70.0 L 99.66666666666667 69.66666666666667 L 100.33333333333333 69.0 L 101.0 68.0 L 101.66666666666667 67.0 L 102.0 66.0 L 102.0 65.0 L 102.33333333333333 64.0 L 102.66666666666667 63.0 L 103.0 62.0 L 103.0 61.0 L 102.66666666666667 60.0 L 102.33333333333333 59.0 L 102.0 58.0 L 102.0 57.0 L 101.66666666666667 56.333333333333336 L 101.0 56.0 L 100.33333333333333 56.333333333333336 L 100.0 57.0 L 99.66666666666667 58.0 L 99.0 59.0 L 98.33333333333333 60.0 L 97.66666666666667 61.0 L 97.33333333333333 62.0 L 97.0 63.0 L 97.0 64.0 L 97.0 65.0 L 97.0 66.0 L 97.0 67.0 L 97.0 68.0 L 97.0 69.0 L 97.33333333333333 69.66666666666667 L 97.5 70.0 Z" stroke="none" fill="rgb(229,150,0)" />
<path d="M 24.5 84.0 L 25.0 84.0 L 25.666666666666668 83.66666666666667 L 26.0 83.0 L 26.0 82.0 L 26.0 81.0 L 26.0 80.0 L 26.0 79.0 L 26.0 78.0 L 26.0 77.0 L 26.0 76.0 L 26.0 75.0 L 26.0 74.0 L 26.0 73.0 L 26.0 72.0 L 26.0 71.0 L 26.0 70.0 L 26.0 69.0 L 26.0 68.0 L 25.666666666666668 67.0 L 25.0 66.0 L 24.0 65.33333333333333 L 23.0 65.0 L 22.333333333333332 65.33333333333333 L 22.0 66.0 L 22.0 67.0 L 22.0 68.0 L 22.0 69.0 L 22.0 70.0 L 22.0 71.0 L 22.0 72.0 L 22.0 73.0 L 22.0 74.0 L 22.0 75.0 L 22.0 76.0 L 22.0 77.0 L 22.0 78.0 L 22.0 79.0 L 22.0 80.0 L 22.0 81.0 L 22.0 82.0 L 22.333333333333332 83.0 L 23.0 83.66666666666667 L 23.5 84.0 Z" stroke="none" fill="rgb(254,192,25)" />
<path d="M 103.5 84.5 L 103.66666666666667 84.0 L 104.0 83.0 L 104.0 82.0 L 104.0 81.0 L 104.0 80.0 L 104.0 79.0 L 104.0 78.0 L 104.0 77.0 L 104.0 76.0 L 104.0 75.0 L 104.0 74.0 L 104.0 73.0 L 104.0 72.0 L 104.0 71.0 L 104.0 70.0 L 104.0 69.0 L 104.0 68.0 L 104.0 67.0 L 103.66666666666667 66.33333333333333 L 103.0 66.0 L 102.0 66.33333333333333 L 101.0 67.0 L 100.33333333333333 68.0 L 100.0 69.0 L 100.0 70.0 L 100.0 71.0 L 100.0 72.0 L 100.0 73.0 L 100.0 74.0 L 100.0 75.0 L 100.0 76.0 L 100.0 77.0 L 100.0 78.0 L 100.0 79.0 L 100.0 80.0 L 100.0 81.0 L 100.0 82.0 L 100.0 83.0 L 100.33333333333333 84.0 L 101.0 84.66666666666667 L 102.0 85.0 L 102.5 85.0 Z" stroke="none" fill="rgb(254,192,25)" />
<path d="M 30.0 80.5 L 30.333333333333332 80.0 L 31.0 79.0 L 31.666666666666668 78.0 L 32.333333333333336 77.0 L 33.0 76.0 L 33.666666666666664 75.0 L 34.0 74.0 L 33.666666666666664 73.0 L 33.0 72.0 L 32.0 71.0 L 31.0 70.33333333333333 L 30.0 69.66666666666667 L 29.0 69.0 L 28.0 68.33333333333333 L 27.0 68.0 L 26.333333333333332 68.33333333333333 L 26.0 69.0 L 26.0 70.0 L 26.0 71.0 L 26.0 72.0 L 26.0 73.0 L 26.0 74.0 L 26.0 75.0 L 26.0 76.0 L 26.0 77.0 L 26.0 78.0 L 26.0 79.0 L 26.0 80.0 L 26.0 81.0 L 26.0 82.0 L 26.0 83.0 L 26.0 84.0 L 26.333333333333332 84.66666666666667 L 27.0 84.66666666666667 L 28.0 84.0 L 28.666666666666668 83.0 L 29.333333333333332 82.0 L 29.5 81.5 Z" stroke="none" fill="rgb(254,183,8)" />
<path d="M 61.5 72.0 L 62.0 72.0 L 63.0 72.0 L 64.0 72.0 L 65.0 72.0 L 66.0 72.0 L 67.0 71.66666666666667 L 67.66666666666667 71.0 L 68.0 70.0 L 68.0 69.0 L 67.66666666666667 68.33333333333333 L 67.0 68.0 L 66.0 68.0 L 65.0 68.0 L 64.0 68.0 L 63.0 68.0 L 62.0 68.0 L 61.0 68.0 L 60.333333333333336 68.33333333333333 L 60.0 69.0 L 60.0 70.0 L 60.333333333333336 71.0 L 60.5 71.5 Z" stroke="none" fill="rgb(229,150,0)" />
<path d="M 12.5 79.0 L 13.0 79.33333333333333 L 14.0 79.66666666666667 L 15.0 80.0 L 16.0 80.0 L 17.0 80.0 L 17.666666666666668 79.66666666666667 L 17.666666666666668 79.0 L 17.0 78.0 L 16.0 77.0 L 15.0 76.0 L 14.333333333333334 75.0 L 13.666666666666666 74.0 L 13.0 73.0 L 12.0 72.0 L 11.0 71.0 L 10.0 70.33333333333333 L 9.0 70.33333333333333 L 8.0 71.0 L 7.333333333333333 72.0 L 7.0 73.0 L 7.0 74.0 L 7.333333333333333 75.0 L 7.666666666666667 76.0 L 8.333333333333334 76.66666666666667 L 9.0 77.33333333333333 L 10.0 77.66666666666667 L 11.0 78.33333333333333 L 11.5 78.5 Z" stroke="none" fill="rgb(237,166,1)" />
<path d="M 98.5 81.5 L 99.0 81.66666666666667 L 99.66666666666667 81.66666666666667 L 100.0 81.0 L 100.0 80.0 L 100.0 79.0 L 100.0 78.0 L 100.0 77.0 L 100.0 76.0 L 100.0 75.0 L 100.0 74.0 L 100.0 73.0 L 100.0 72.0 L 100.0 71.0 L 99.66666666666667 70.33333333333333 L 99.0 70.0 L 98.0 70.0 L 97.0 70.33333333333333 L 96.0 71.0 L 95.0 72.0 L 94.33333333333333 73.0 L 94.0 74.0 L 94.33333333333333 75.0 L 95.0 76.0 L 95.66666666666667 77.0 L 96.33333333333333 78.0 L 97.0 79.0 L 97.66666666666667 80.0 L 98.0 80.5 Z" stroke="none" fill="rgb(254,183,8)" />
<path d="M 118.5 77.5 L 119.0 77.33333333333333 L 119.66666666666667 76.66666666666667 L 120.33333333333333 76.0 L 120.66666666666667 75.0 L 121.0 74.0 L 120.66666666666667 73.0 L 120.33333333333333 72.0 L 119.66666666666667 71.0 L 119.0 70.33333333333333 L 118.0 70.33333333333333 L 117.0 71.0 L 116.0 72.0 L 115.33333333333333 73.0 L 114.66666666666667 74.0 L 114.0 75.0 L 113.0 76.0 L 112.0 77.0 L 111.33333333333333 78.0 L 111.0 79.0 L 111.33333333333333 79.66666666666667 L 112.0 80.0 L 113.0 80.0 L 114.0 79.66666666666667 L 115.0 79.33333333333333 L 116.0 78.66666666666667 L 117.0 78.33333333333333 L 117.5 78.0 Z" stroke="none" fill="rgb(237,166,1)" />
<path d="M 59.5 88.5 L 59.666666666666664 88.0 L 60.0 87.0 L 60.0 86.0 L 60.0 85.0 L 59.666666666666664 84.0 L 59.0 83.0 L 58.0 82.33333333333333 L 57.0 82.0 L 56.0 81.66666666666667 L 55.0 81.33333333333333 L 54.0 81.0 L 53.0 80.66666666666667 L 52.0 80.33333333333333 L 51.0 79.66666666666667 L 50.0 79.33333333333333 L 49.0 78.66666666666667 L 48.0 78.33333333333333 L 47.0 77.66666666666667 L 46.0 77.33333333333333 L 45.0 76.66666666666667 L 44.0 76.33333333333333 L 43.0 75.66666666666667 L 42.0 75.33333333333333 L 41.0 74.66666666666667 L 40.0 74.33333333333333 L 39.0 73.66666666666667 L 38.0 73.33333333333333 L 37.0 73.0 L 36.0 73.0 L 35.0 73.33333333333333 L 34.0 74.0 L 33.0 75.0 L 32.333333333333336 76.0 L 31.666666666666668 77.0 L 31.0 78.0 L 30.333333333333332 79.0 L 29.666666666666668 80.0 L 29.333333333333332 81.0 L 28.666666666666668 82.0 L 28.0 83.0 L 27.333333333333332 84.0 L 27.0 85.0 L 27.0 86.0 L 27.0 87.0 L 27.333333333333332 87.66666666666667 L 28.0 88.33333333333333 L 29.0 88.66666666666667 L 30.0 88.66666666666667 L 31.0 88.33333333333333 L 32.0 88.0 L 33.0 88.0 L 34.0 88.0 L 35.0 88.0 L 36.0 88.0 L 37.0 88.0 L 38.0 88.0 L 39.0 88.0 L 40.0 88.0 L 41.0 88.0 L 42.0 88.0 L 43.0 88.0 L 44.0 88.0 L 45.0 88.0 L 46.0 88.0 L 47.0 88.0 L 48.0 88.0 L 49.0 88.0 L 50.0 88.0 L 51.0 88.0 L 52.0 88.33333333333333 L 53.0 88.66666666666667 L 54.0 89.33333333333333 L 55.0 89.66666666666667 L 56.0 90.0 L 57.0 89.66666666666667 L 58.0 89.33333333333333 L 58.5 89.0 Z" stroke="none" fill="rgb(0,186,161)" />
<path d="M 72.5 88.0 L 73.0 88.0 L 74.0 88.0 L 75.0 88.0 L 76.0 88.0 L 77.0 88.0 L 78.0 88.0 L 79.0 88.0 L 80.0 88.0 L 81.0 88.0 L 82.0 88.0 L 83.0 88.0 L 84.0 88.0 L 85.0 88.0 L 86.0 88.0 L 87.0 88.0 L 88.0 88.0 L 89.0 88.0 L 90.0 88.0 L 91.0 88.0 L 92.0 88.0 L 93.0 88.0 L 94.0 88.0 L 95.0 88.0 L 96.0 88.0 L 97.0 88.0 L 98.0 88.0 L 99.0 88.0 L 100.0 88.0 L 100.66666666666667 87.66666666666667 L 101.0 87.0 L 101.0 86.0 L 101.0 85.0 L 100.66666666666667 84.0 L 100.33333333333333 83.0 L 99.66666666666667 82.0 L 99.0 81.0 L 98.33333333333333 80.0 L 97.66666666666667 79.0 L 97.0 78.0 L 96.33333333333333 77.0 L 95.66666666666667 76.0 L 95.0 75.0 L 94.0 74.0 L 93.0 73.33333333333333 L 92.0 73.0 L 91.0 73.33333333333333 L 90.0 73.66666666666667 L 89.0 74.33333333333333 L 88.0 74.66666666666667 L 87.0 75.33333333333333 L 86.0 75.66666666666667 L 85.0 76.33333333333333 L 84.0 76.66666666666667 L 83.0 77.33333333333333 L 82.0 77.66666666666667 L 81.0 78.33333333333333 L 80.0 78.66666666666667 L 79.0 79.33333333333333 L 78.0 79.66666666666667 L 77.0 80.0 L 76.0 80.33333333333333 L 75.0 80.66666666666667 L 74.0 81.33333333333333 L 73.0 81.66666666666667 L 72.0 82.0 L 71.0 82.33333333333333 L 70.0 83.0 L 69.0 83.66666666666667 L 68.0 84.33333333333333 L 67.0 84.66666666666667 L 66.0 85.33333333333333 L 65.0 85.66666666666667 L 64.33333333333333 86.33333333333333 L 64.0 87.0 L 64.33333333333333 87.66666666666667 L 65.0 88.0 L 66.0 88.0 L 67.0 88.0 L 68.0 88.0 L 69.0 88.0 L 70.0 88.0 L 71.0 88.0 L 71.5 88.0 Z" stroke="none" fill="rgb(0,186,161)" />
<path d="M 65.5 86.0 L 66.0 85.66666666666667 L 67.0 85.33333333333333 L 68.0 84.66666666666667 L 69.0 84.33333333333333 L 70.0 83.66666666666667 L 70.66666666666667 83.0 L 70.66666666666667 82.0 L 70.0 81.0 L 69.0 80.0 L 68.0 79.0 L 67.0 78.33333333333333 L 66.0 78.0 L 65.0 78.0 L 64.0 78.0 L 63.0 78.0 L 62.0 78.33333333333333 L 61.0 78.66666666666667 L 60.0 79.33333333333333 L 59.0 80.0 L 58.333333333333336 81.0 L 58.0 82.0 L 58.333333333333336 83.0 L 59.0 84.0 L 60.0 85.0 L 61.0 86.0 L 62.0 86.66666666666667 L 63.0 87.0 L 64.0 86.66666666666667 L 64.5 86.5 Z" stroke="none" fill="rgb(121,85,70)" />
<path d="M 60.5 86.0 L 60.666666666666664 85.66666666666667 L 60.666666666666664 85.33333333333333 L 60.333333333333336 85.33333333333333 L 60.0 85.5 Z" stroke="none" fill="rgb(0,167,145)" />
<path d="M 60.5 87.0 L 60.666666666666664 86.66666666666667 L 60.666666666666664 86.33333333333333 L 60.333333333333336 86.33333333333333 L 60.0 86.5 Z" stroke="none" fill="rgb(0,161,140)" />
<path d="M 61.5 87.0 L 61.666666666666664 86.66666666666667 L 61.666666666666664 86.33333333333333 L 61.333333333333336 86.33333333333333 L 61.0 86.5 Z" stroke="none" fill="rgb(0,167,145)" />
<path d="M 59.5 99.0 L 60.0 99.0 L 61.0 99.0 L 62.0 99.0 L 63.0 99.0 L 64.0 99.0 L 65.0 99.0 L 66.0 99.0 L 67.0 99.0 L 68.0 99.0 L 69.0 99.0 L 70.0 99.0 L 71.0 99.0 L 72.0 99.0 L 73.0 99.0 L 74.0 99.0 L 75.0 99.0 L 76.0 99.0 L 77.0 99.0 L 78.0 99.0 L 79.0 99.33333333333333 L 80.0 99.66666666666667 L 81.0 100.0 L 82.0 99.66666666666667 L 83.0 99.0 L 84.0 98.33333333333333 L 85.0 97.66666666666667 L 86.0 97.66666666666667 L 87.0 98.0 L 88.0 98.66666666666667 L 89.0 98.66666666666667 L 89.66666666666667 98.0 L 89.66666666666667 97.0 L 89.66666666666667 96.0 L 90.0 95.0 L 91.0 94.33333333333333 L 92.0 93.66666666666667 L 93.0 93.0 L 94.0 92.33333333333333 L 95.0 91.66666666666667 L 96.0 91.0 L 97.0 90.33333333333333 L 98.0 89.66666666666667 L 98.66666666666667 89.0 L 98.66666666666667 88.33333333333333 L 98.0 88.0 L 97.0 88.0 L 96.0 88.0 L 95.0 88.0 L 94.0 88.0 L 93.0 88.0 L 92.0 88.0 L 91.0 88.0 L 90.0 88.0 L 89.0 88.0 L 88.0 88.0 L 87.0 88.0 L 86.0 88.0 L 85.0 88.0 L 84.0 88.0 L 83.0 88.0 L 82.0 88.0 L 81.0 88.0 L 80.0 88.0 L 79.0 88.0 L 78.0 88.0 L 77.0 88.0 L 76.0 88.0 L 75.0 88.0 L 74.0 88.0 L 73.0 88.0 L 72.0 88.0 L 71.0 88.0 L 70.0 88.0 L 69.0 88.0 L 68.0 88.0 L 67.0 88.0 L 66.0 88.0 L 65.0 87.66666666666667 L 64.0 87.33333333333333 L 63.0 87.0 L 62.0 87.0 L 61.0 87.0 L 60.0 87.33333333333333 L 59.0 88.0 L 58.0 88.66666666666667 L 57.0 89.33333333333333 L 56.0 89.66666666666667 L 55.0 90.0 L 54.0 89.66666666666667 L 53.333333333333336 89.0 L 52.666666666666664 88.33333333333333 L 52.0 88.0 L 51.0 88.0 L 50.0 88.0 L 49.0 88.0 L 48.0 88.0 L 47.0 88.0 L 46.0 88.0 L 45.0 88.0 L 44.0 88.0 L 43.0 88.0 L 42.0 88.0 L 41.0 88.0 L 40.0 88.0 L 39.0 88.0 L 38.0 88.0 L 37.0 88.0 L 36.0 88.0 L 35.0 88.0 L 34.0 88.0 L 33.0 88.0 L 32.0 88.0 L 31.0 88.0 L 30.333333333333332 88.33333333333333 L 30.0 89.0 L 30.333333333333332 90.0 L 31.0 90.66666666666667 L 32.0 91.33333333333333 L 33.0 92.0 L 34.0 92.66666666666667 L 35.0 93.33333333333333 L 36.0 94.0 L 37.0 94.66666666666667 L 38.0 95.33333333333333 L 38.333333333333336 96.0 L 38.333333333333336 97.0 L 38.0 98.0 L 38.333333333333336 98.66666666666667 L 39.0 99.0 L 40.0 99.0 L 41.0 99.0 L 42.0 99.0 L 43.0 99.0 L 44.0 99.0 L 45.0 99.0 L 46.0 99.0 L 47.0 99.0 L 48.0 99.0 L 49.0 99.0 L 50.0 99.0 L 51.0 99.0 L 52.0 99.0 L 53.0 99.0 L 54.0 99.0 L 55.0 99.0 L 56.0 99.0 L 57.0 99.0 L 58.0 99.0 L 58.5 99.0 Z" stroke="none" fill="rgb(0,180,156)" />
<path d="M 55.0 89.5 L 54.666666666666664 89.33333333333333 L 54.0 89.0 L 53.333333333333336 89.33333333333333 L 53.333333333333336 89.66666666666667 L 54.0 90.0 L 54.5 90.0 Z" stroke="none" fill="rgb(0,161,140)" />
<path d="M 47.0 93.5 L 46.666666666666664 93.33333333333333 L 46.0 93.0 L 45.333333333333336 93.33333333333333 L 45.333333333333336 93.66666666666667 L 46.0 94.0 L 46.5 94.0 Z" stroke="none" fill="rgb(0,167,145)" />
<path d="M 40.5 97.0 L 41.0 97.0 L 41.666666666666664 96.66666666666667 L 42.0 96.0 L 41.666666666666664 95.33333333333333 L 41.0 95.0 L 40.333333333333336 95.33333333333333 L 40.0 96.0 L 40.0 96.5 Z" stroke="none" fill="rgb(0,173,150)" />
<path d="M 78.5 106.0 L 79.0 105.66666666666667 L 80.0 105.0 L 81.0 104.33333333333333 L 82.0 103.66666666666667 L 83.0 103.33333333333333 L 84.0 102.66666666666667 L 85.0 102.0 L 86.0 101.0 L 86.66666666666667 100.0 L 87.0 99.0 L 87.0 98.0 L 86.66666666666667 97.33333333333333 L 86.0 97.0 L 85.0 97.33333333333333 L 84.0 97.66666666666667 L 83.0 98.33333333333333 L 82.0 99.0 L 81.0 99.66666666666667 L 80.0 100.33333333333333 L 79.0 101.0 L 78.0 102.0 L 77.0 102.66666666666667 L 76.0 103.33333333333333 L 75.0 104.0 L 74.0 104.66666666666667 L 73.0 105.33333333333333 L 72.0 105.66666666666667 L 71.0 106.33333333333333 L 70.0 107.0 L 69.0 107.66666666666667 L 68.0 108.33333333333333 L 67.33333333333333 109.0 L 67.33333333333333 110.0 L 68.0 110.66666666666667 L 69.0 110.66666666666667 L 70.0 110.33333333333333 L 71.0 109.66666666666667 L 72.0 109.0 L 73.0 108.33333333333333 L 74.0 107.66666666666667 L 75.0 107.33333333333333 L 76.0 106.66666666666667 L 77.0 106.33333333333333 L 77.5 106.0 Z" stroke="none" fill="rgb(4,150,131)" />
<path d="M 87.5 99.0 L 87.66666666666667 98.66666666666667 L 87.66666666666667 98.33333333333333 L 87.33333333333333 98.33333333333333 L 87.0 98.5 Z" stroke="none" fill="rgb(0,161,140)" />
<path d="M 95.5 107.0 L 96.0 107.0 L 97.0 107.0 L 98.0 107.0 L 99.0 107.0 L 100.0 107.0 L 101.0 107.0 L 102.0 107.0 L 103.0 107.0 L 104.0 107.0 L 105.0 107.0 L 106.0 107.0 L 106.66666666666667 106.66666666666667 L 106.66666666666667 106.0 L 106.0 105.33333333333333 L 105.0 104.66666666666667 L 104.0 104.33333333333333 L 103.0 103.66666666666667 L 102.0 103.33333333333333 L 101.0 102.66666666666667 L 100.0 102.33333333333333 L 99.0 101.66666666666667 L 98.0 101.33333333333333 L 97.0 100.66666666666667 L 96.0 100.33333333333333 L 95.0 99.66666666666667 L 94.0 99.33333333333333 L 93.0 99.0 L 92.0 98.66666666666667 L 91.0 98.33333333333333 L 90.0 98.0 L 89.0 98.33333333333333 L 88.0 98.66666666666667 L 87.0 99.33333333333333 L 86.0 100.0 L 85.0 101.0 L 84.0 102.0 L 83.0 102.66666666666667 L 82.0 103.33333333333333 L 81.0 103.66666666666667 L 80.0 104.33333333333333 L 79.33333333333333 105.0 L 79.0 106.0 L 79.33333333333333 106.66666666666667 L 80.0 107.0 L 81.0 107.0 L 82.0 107.0 L 83.0 107.0 L 84.0 107.0 L 85.0 107.0 L 86.0 107.0 L 87.0 107.0 L 88.0 107.0 L 89.0 107.0 L 90.0 107.0 L 91.0 107.0 L 92.0 107.0 L 93.0 107.0 L 94.0 107.0 L 94.5 107.0 Z" stroke="none" fill="rgb(0,173,150)" />
<path d="M 33.5 107.0 L 34.0 107.0 L 35.0 107.0 L 36.0 107.0 L 37.0 107.0 L 38.0 107.0 L 39.0 107.0 L 40.0 107.0 L 41.0 107.0 L 42.0 107.0 L 43.0 107.0 L 44.0 107.0 L 45.0 107.0 L 46.0 107.0 L 47.0 107.0 L 48.0 107.0 L 49.0 107.0 L 50.0 107.0 L 51.0 107.0 L 52.0 107.0 L 53.0 107.0 L 54.0 107.0 L 55.0 107.0 L 56.0 107.0 L 57.0 107.0 L 58.0 107.0 L 59.0 107.0 L 60.0 107.0 L 61.0 107.0 L 62.0 107.0 L 63.0 107.0 L 64.0 107.0 L 65.0 107.0 L 66.0 107.0 L 67.0 107.33333333333333 L 68.0 107.66666666666667 L 69.0 108.0 L 70.0 107.66666666666667 L 71.0 107.0 L 72.0 106.33333333333333 L 73.0 105.66666666666667 L 74.0 105.33333333333333 L 75.0 104.66666666666667 L 76.0 104.0 L 77.0 103.33333333333333 L 78.0 102.66666666666667 L 79.0 102.0 L 79.66666666666667 101.0 L 80.0 100.0 L 79.66666666666667 99.33333333333333 L 79.0 99.0 L 78.0 99.0 L 77.0 99.0 L 76.0 99.0 L 75.0 99.0 L 74.0 99.0 L 73.0 99.0 L 72.0 99.0 L 71.0 99.0 L 70.0 99.0 L 69.0 99.0 L 68.0 99.0 L 67.0 99.0 L 66.0 99.0 L 65.0 99.0 L 64.0 99.0 L 63.0 99.0 L 62.0 99.0 L 61.0 99.0 L 60.0 99.0 L 59.0 99.0 L 58.0 99.0 L 57.0 99.0 L 56.0 99.0 L 55.0 99.0 L 54.0 99.0 L 53.0 99.0 L 52.0 99.0 L 51.0 99.0 L 50.0 99.0 L 49.0 99.0 L 48.0 99.0 L 47.0 99.0 L 46.0 99.0 L 45.0 99.0 L 44.0 99.0 L 43.0 99.0 L 42.0 99.0 L 41.0 99.0 L 40.0 99.0 L 39.0 99.0 L 38.0 99.0 L 37.0 99.0 L 36.0 99.0 L 35.0 99.0 L 34.0 99.33333333333333 L 33.0 99.66666666666667 L 32.0 100.33333333333333 L 31.0 100.66666666666667 L 30.0 101.33333333333333 L 29.0 101.66666666666667 L 28.0 102.33333333333333 L 27.0 102.66666666666667 L 26.0 103.33333333333333 L 25.0 103.66666666666667 L 24.0 104.33333333333333 L 23.0 104.66666666666667 L 22.333333333333332 105.33333333333333 L 22.0 106.0 L 22.333333333333332 106.66666666666667 L 23.0 107.0 L 24.0 107.0 L 25.0 107.0 L 26.0 107.0 L 27.0 107.0 L 28.0 107.0 L 29.0 107.0 L 30.0 107.0 L 31.0 107.0 L 32.0 107.0 L 32.5 107.0 Z" stroke="none" fill="rgb(0,173,150)" />
<path d="M 95.5 115.0 L 96.0 115.0 L 97.0 115.0 L 98.0 115.0 L 99.0 115.0 L 100.0 115.0 L 101.0 115.0 L 102.0 115.0 L 103.0 115.0 L 104.0 115.0 L 105.0 115.0 L 106.0 115.0 L 107.0 115.0 L 108.0 115.0 L 109.0 115.0 L 110.0 115.0 L 111.0 115.0 L 112.0 115.0 L 112.66666666666667 114.66666666666667 L 113.0 114.0 L 112.66666666666667 113.0 L 112.33333333333333 112.0 L 111.66666666666667 111.0 L 111.0 110.0 L 110.0 109.0 L 109.0 108.0 L 108.0 107.33333333333333 L 107.0 107.0 L 106.0 107.0 L 105.0 107.0 L 104.0 107.0 L 103.0 107.0 L 102.0 107.0 L 101.0 107.0 L 100.0 107.0 L 99.0 107.0 L 98.0 107.0 L 97.0 107.0 L 96.0 107.0 L 95.0 107.0 L 94.0 107.0 L 93.0 107.0 L 92.0 107.0 L 91.0 107.0 L 90.0 107.0 L 89.0 107.0 L 88.0 107.0 L 87.0 107.0 L 86.0 107.0 L 85.0 107.0 L 84.0 107.0 L 83.0 107.0 L 82.0 107.0 L 81.0 107.0 L 80.0 106.66666666666667 L 79.0 106.33333333333333 L 78.0 106.0 L 77.0 106.0 L 76.0 106.33333333333333 L 75.0 106.66666666666667 L 74.0 107.33333333333333 L 73.0 107.66666666666667 L 72.0 108.33333333333333 L 71.0 109.0 L 70.0 109.66666666666667 L 69.0 110.33333333333333 L 68.0 111.0 L 67.33333333333333 112.0 L 67.0 113.0 L 67.33333333333333 113.66666666666667 L 68.0 114.33333333333333 L 69.0 115.0 L 70.0 115.66666666666667 L 71.0 116.0 L 72.0 115.66666666666667 L 73.0 115.33333333333333 L 74.0 115.0 L 75.0 115.0 L 76.0 115.0 L 77.0 115.0 L 78.0 115.0 L 79.0 115.0 L 80.0 115.0 L 81.0 115.0 L 82.0 115.0 L 83.0 115.0 L 84.0 115.0 L 85.0 115.0 L 86.0 115.0 L 87.0 115.0 L 88.0 115.0 L 89.0 115.0 L 90.0 115.0 L 91.0 115.0 L 92.0 115.0 L 93.0 115.0 L 94.0 115.0 L 94.5 115.0 Z" stroke="none" fill="rgb(0,167,145)" />
<path d="M 26.5 115.0 L 27.0 115.0 L 28.0 115.0 L 29.0 115.0 L 30.0 115.0 L 31.0 115.0 L 32.0 115.0 L 33.0 115.0 L 34.0 115.0 L 35.0 115.0 L 36.0 115.0 L 37.0 115.0 L 38.0 115.0 L 39.0 115.0 L 40.0 115.0 L 41.0 115.0 L 42.0 115.0 L 43.0 115.0 L 44.0 115.0 L 45.0 115.0 L 46.0 115.0 L 47.0 115.0 L 48.0 115.0 L 49.0 115.0 L 50.0 115.0 L 51.0 115.0 L 52.0 115.0 L 53.0 115.0 L 54.0 115.0 L 55.0 115.33333333333333 L 56.0 115.66666666666667 L 57.0 116.0 L 58.0 115.66666666666667 L 59.0 115.0 L 60.0 114.33333333333333 L 61.0 113.66666666666667 L 62.0 113.33333333333333 L 63.0 112.66666666666667 L 64.0 112.33333333333333 L 65.0 112.0 L 66.0 111.66666666666667 L 66.66666666666667 111.0 L 67.33333333333333 110.0 L 67.66666666666667 109.0 L 68.0 108.0 L 67.66666666666667 107.33333333333333 L 67.0 107.0 L 66.0 107.0 L 65.0 107.0 L 64.0 107.0 L 63.0 107.0 L 62.0 107.0 L 61.0 107.0 L 60.0 107.0 L 59.0 107.0 L 58.0 107.0 L 57.0 107.0 L 56.0 107.0 L 55.0 107.0 L 54.0 107.0 L 53.0 107.0 L 52.0 107.0 L 51.0 107.0 L 50.0 107.0 L 49.0 107.0 L 48.0 107.0 L 47.0 107.0 L 46.0 107.0 L 45.0 107.0 L 44.0 107.0 L 43.0 107.0 L 42.0 107.0 L 41.0 107.0 L 40.0 107.0 L 39.0 107.0 L 38.0 107.0 L 37.0 107.0 L 36.0 107.0 L 35.0 107.0 L 34.0 107.0 L 33.0 107.0 L 32.0 107.0 L 31.0 107.0 L 30.0 107.0 L 29.0 107.0 L 28.0 107.0 L 27.0 107.0 L 26.0 107.0 L 25.0 107.0 L 24.0 107.0 L 23.0 107.0 L 22.0 107.0 L 21.0 107.0 L 20.0 107.33333333333333 L 19.0 108.0 L 18.0 109.0 L 17.0 110.0 L 16.333333333333332 111.0 L 15.666666666666666 112.0 L 15.333333333333334 113.0 L 15.0 114.0 L 15.333333333333334 114.66666666666667 L 16.0 115.0 L 17.0 115.0 L 18.0 115.0 L 19.0 115.0 L 20.0 115.0 L 21.0 115.0 L 22.0 115.0 L 23.0 115.0 L 24.0 115.0 L 25.0 115.0 L 25.5 115.0 Z" stroke="none" fill="rgb(0,167,145)" />
<path d="M 68.0 111.5 L 68.0 111.0 L 67.66666666666667 110.33333333333333 L 67.0 110.33333333333333 L 66.33333333333333 111.0 L 66.0 112.0 L 66.33333333333333 112.66666666666667 L 67.0 112.66666666666667 L 67.5 112.5 Z" stroke="none" fill="rgb(0,161,140)" />
<path d="M 61.5 118.0 L 62.0 118.0 L 63.0 118.0 L 64.0 118.0 L 65.0 118.0 L 66.0 118.0 L 67.0 118.0 L 68.0 118.0 L 69.0 118.0 L 70.0 118.0 L 71.0 118.0 L 71.66666666666667 117.66666666666667 L 72.0 117.0 L 71.66666666666667 116.33333333333333 L 71.0 115.66666666666667 L 70.0 115.0 L 69.0 114.33333333333333 L 68.0 113.66666666666667 L 67.0 113.0 L 66.0 112.33333333333333 L 65.0 112.0 L 64.0 112.0 L 63.0 112.33333333333333 L 62.0 112.66666666666667 L 61.0 113.33333333333333 L 60.0 113.66666666666667 L 59.0 114.33333333333333 L 58.0 115.0 L 57.0 115.66666666666667 L 56.333333333333336 116.33333333333333 L 56.0 117.0 L 56.333333333333336 117.66666666666667 L 57.0 118.0 L 58.0 118.0 L 59.0 118.0 L 60.0 118.0 L 60.5 118.0 Z" stroke="none" fill="rgb(12,118,104)" />
<path d="M 39.5 124.0 L 40.0 124.0 L 41.0 124.0 L 42.0 124.0 L 43.0 124.0 L 44.0 124.0 L 45.0 124.0 L 46.0 124.0 L 47.0 124.0 L 48.0 124.0 L 48.666666666666664 123.66666666666667 L 48.666666666666664 123.0 L 48.666666666666664 122.0 L 49.0 121.33333333333333 L 50.0 120.66666666666667 L 51.0 120.33333333333333 L 52.0 119.66666666666667 L 53.0 119.0 L 54.0 118.33333333333333 L 55.0 118.0 L 55.666666666666664 117.66666666666667 L 56.0 117.0 L 56.0 116.0 L 55.666666666666664 115.33333333333333 L 55.0 115.0 L 54.0 115.0 L 53.0 115.0 L 52.0 115.0 L 51.0 115.0 L 50.0 115.0 L 49.0 115.0 L 48.0 115.0 L 47.0 115.0 L 46.0 115.0 L 45.0 115.0 L 44.0 115.0 L 43.0 115.0 L 42.0 115.0 L 41.0 115.0 L 40.0 115.0 L 39.0 115.0 L 38.0 115.0 L 37.0 115.0 L 36.0 115.0 L 35.0 115.0 L 34.0 115.0 L 33.0 115.0 L 32.0 115.0 L 31.0 115.0 L 30.0 115.0 L 29.0 115.0 L 28.0 115.0 L 27.0 115.0 L 26.0 115.0 L 25.0 115.0 L 24.0 115.0 L 23.0 115.0 L 22.0 115.0 L 21.0 115.0 L 20.0 115.0 L 19.0 115.0 L 18.0 115.0 L 17.0 115.0 L 16.0 115.0 L 15.0 115.0 L 14.0 115.33333333333333 L 13.333333333333334 116.0 L 13.0 117.0 L 12.666666666666666 118.0 L 12.333333333333334 119.0 L 12.0 120.0 L 12.0 121.0 L 12.0 122.0 L 12.0 123.0 L 12.333333333333334 123.66666666666667 L 13.0 124.0 L 14.0 124.0 L 15.0 124.0 L 16.0 124.0 L 17.0 124.0 L 18.0 124.0 L 19.0 124.0 L 20.0 124.0 L 21.0 124.0 L 22.0 124.0 L 23.0 124.0 L 24.0 124.0 L 25.0 124.0 L 26.0 124.0 L 27.0 124.0 L 28.0 124.0 L 29.0 124.0 L 30.0 124.0 L 31.0 124.0 L 32.0 124.0 L 33.0 124.0 L 34.0 124.0 L 35.0 124.0 L 36.0 124.0 L 37.0 124.0 L 38.0 124.0 L 38.5 124.0 Z" stroke="none" fill="rgb(0,161,140)" />
<path d="M 95.5 124.0 L 96.0 124.0 L 97.0 124.0 L 98.0 124.0 L 99.0 124.0 L 100.0 124.0 L 101.0 124.0 L 102.0 124.0 L 103.0 124.0 L 104.0 124.0 L 105.0 124.0 L 106.0 124.0 L 107.0 124.0 L 108.0 124.0 L 109.0 124.0 L 110.0 124.0 L 111.0 124.0 L 112.0 124.0 L 113.0 124.0 L 114.0 124.0 L 115.0 124.0 L 115.66666666666667 123.66666666666667 L 116.0 123.0 L 116.0 122.0 L 116.0 121.0 L 115.66666666666667 120.0 L 115.33333333333333 119.0 L 115.0 118.0 L 114.66666666666667 117.0 L 114.33333333333333 116.0 L 113.66666666666667 115.33333333333333 L 113.0 115.0 L 112.0 115.0 L 111.0 115.0 L 110.0 115.0 L 109.0 115.0 L 108.0 115.0 L 107.0 115.0 L 106.0 115.0 L 105.0 115.0 L 104.0 115.0 L 103.0 115.0 L 102.0 115.0 L 101.0 115.0 L 100.0 115.0 L 99.0 115.0 L 98.0 115.0 L 97.0 115.0 L 96.0 115.0 L 95.0 115.0 L 94.0 115.0 L 93.0 115.0 L 92.0 115.0 L 91.0 115.0 L 90.0 115.0 L 89.0 115.0 L 88.0 115.0 L 87.0 115.0 L 86.0 115.0 L 85.0 115.0 L 84.0 115.0 L 83.0 115.0 L 82.0 115.0 L 81.0 115.0 L 80.0 115.0 L 79.0 115.0 L 78.0 115.0 L 77.0 115.0 L 76.0 115.0 L 75.0 115.0 L 74.0 115.0 L 73.0 115.0 L 72.33333333333333 115.33333333333333 L 72.0 116.0 L 72.33333333333333 117.0 L 73.0 117.66666666666667 L 74.0 118.33333333333333 L 75.0 119.0 L 76.0 119.66666666666667 L 77.0 120.33333333333333 L 78.0 121.0 L 79.0 122.0 L 79.66666666666667 123.0 L 80.33333333333333 123.66666666666667 L 81.0 124.0 L 82.0 124.0 L 83.0 124.0 L 84.0 124.0 L 85.0 124.0 L 86.0 124.0 L 87.0 124.0 L 88.0 124.0 L 89.0 124.0 L 90.0 124.0 L 91.0 124.0 L 92.0 124.0 L 93.0 124.0 L 94.0 124.0 L 94.5 124.0 Z" stroke="none" fill="rgb(0,161,140)" />
<path d="M 58.5 121.0 L 59.0 121.0 L 60.0 121.0 L 61.0 121.0 L 62.0 121.0 L 63.0 121.0 L 64.0 121.0 L 65.0 121.0 L 66.0 121.0 L 67.0 121.0 L 68.0 121.0 L 69.0 121.0 L 70.0 121.0 L 71.0 121.0 L 72.0 121.0 L 73.0 121.0 L 74.0 121.0 L 75.0 121.0 L 75.66666666666667 120.66666666666667 L 76.0 120.0 L 75.66666666666667 119.0 L 75.0 118.33333333333333 L 74.0 117.66666666666667 L 73.0 117.33333333333333 L 72.0 117.33333333333333 L 71.0 117.66666666666667 L 70.0 118.0 L 69.0 118.0 L 68.0 118.0 L 67.0 118.0 L 66.0 118.0 L 65.0 118.0 L 64.0 118.0 L 63.0 118.0 L 62.0 118.0 L 61.0 118.0 L 60.0 118.0 L 59.0 118.0 L 58.0 118.0 L 57.0 118.0 L 56.0 118.0 L 55.0 118.0 L 54.0 118.0 L 53.0 118.33333333333333 L 52.333333333333336 119.0 L 52.0 120.0 L 52.333333333333336 120.66666666666667 L 53.0 121.0 L 54.0 121.0 L 55.0 121.0 L 56.0 121.0 L 57.0 121.0 L 57.5 121.0 Z" stroke="none" fill="rgb(7,136,119)" />
<path d="M 56.5 124.0 L 57.0 124.0 L 58.0 124.0 L 59.0 124.0 L 60.0 124.0 L 61.0 124.0 L 62.0 124.0 L 63.0 124.0 L 64.0 124.0 L 65.0 124.0 L 66.0 124.0 L 67.0 124.0 L 68.0 124.0 L 69.0 124.0 L 70.0 124.0 L 71.0 124.0 L 72.0 124.0 L 73.0 124.0 L 74.0 124.0 L 75.0 124.0 L 76.0 124.0 L 77.0 124.0 L 78.0 124.0 L 79.0 124.0 L 79.66666666666667 123.66666666666667 L 80.0 123.0 L 79.66666666666667 122.0 L 79.0 121.0 L 78.0 120.33333333333333 L 77.0 120.0 L 76.0 120.33333333333333 L 75.0 120.66666666666667 L 74.0 121.0 L 73.0 121.0 L 72.0 121.0 L 71.0 121.0 L 70.0 121.0 L 69.0 121.0 L 68.0 121.0 L 67.0 121.0 L 66.0 121.0 L 65.0 121.0 L 64.0 121.0 L 63.0 121.0 L 62.0 121.0 L 61.0 121.0 L 60.0 121.0 L 59.0 121.0 L 58.0 121.0 L 57.0 121.0 L 56.0 121.0 L 55.0 121.0 L 54.0 121.0 L 53.0 120.66666666666667 L 52.0 120.33333333333333 L 51.0 120.0 L 50.0 120.33333333333333 L 49.0 120.66666666666667 L 48.333333333333336 121.33333333333333 L 48.0 122.0 L 48.333333333333336 123.0 L 49.0 123.66666666666667 L 50.0 124.0 L 51.0 124.0 L 52.0 124.0 L 53.0 124.0 L 54.0 124.0 L 55.0 124.0 L 55.5 124.0 Z" stroke="none" fill="rgb(4,150,131)" />
</svg>
