<?xml version="1.0" encoding="UTF-8" standalone="no"?>
<!DOCTYPE svg PUBLIC "-//W3C//DTD SVG 1.1//EN"
"http://www.w3.org/Graphics/SVG/1.1/DTD/svg11.dtd">
<svg width="128" height="128" xmlns="http://www.w3.org/2000/svg" version="1.1">
<path d="M 88.5 128.0 L 89.0 128.0 L 90.0 128.0 L 91.0 128.0 L 92.0 128.0 L 93.0 128.0 L 94.0 128.0 L 95.0 128.0 L 96.0 128.0 L 97.0 128.0 L 98.0 128.0 L 99.0 128.0 L 100.0 128.0 L 101.0 128.0 L 102.0 128.0 L 103.0 128.0 L 104.0 128.0 L 105.0 128.0 L 106.0 128.0 L 107.0 128.0 L 108.0 128.0 L 109.0 128.0 L 110.0 128.0 L 111.0 128.0 L 112.0 128.0 L 113.0 128.0 L 114.0 128.0 L 115.0 128.0 L 116.0 128.0 L 117.0 128.0 L 118.0 128.0 L 119.0 128.0 L 120.0 128.0 L 121.0 128.0 L 122.0 128.0 L 123.0 128.0 L 124.0 128.0 L 125.0 128.0 L 126.0 128.0 L 127.0 128.0 L 127.66666666666667 127.66666666666667 L 128.0 127.0 L 128.0 126.0 L 128.0 125.0 L 128.0 124.0 L 128.0 123.0 L 128.0 122.0 L 128.0 121.0 L 128.0 120.0 L 128.0 119.0 L 128.0 118.0 L 128.0 117.0 L 128.0 116.0 L 128.0 115.0 L 128.0 114.0 L 128.0 113.0 L 128.0 112.0 L 128.0 111.0 L 128.0 110.0 L 128.0 109.0 L 128.0 108.0 L 128.0 107.0 L 128.0 106.0 L 128.0 105.0 L 128.0 104.0 L 128.0 103.0 L 128.0 102.0 L 128.0 101.0 L 128.0 100.0 L 128.0 99.0 L 128.0 98.0 L 128.0 97.0 L 128.0 96.0 L 128.0 95.0 L 128.0 94.0 L 128.0 93.0 L 128.0 92.0 L 128.0 91.0 L 128.0 90.0 L 128.0 89.0 L 128.0 88.0 L 128.0 87.0 L 128.0 86.0 L 128.0 85.0 L 128.0 84.0 L 128.0 83.0 L 128.0 82.0 L 128.0 81.0 L 128.0 80.0 L 128.0 79.0 L 128.0 78.0 L 128.0 77.0 L 128.0 76.0 L 128.0 75.0 L 128.0 74.0 L 128.0 73.0 L 128.0 72.0 L 128.0 71.0 L 128.0 70.0 L 128.0 69.0 L 128.0 68.0 L 128.0 67.0 L 128.0 66.0 L 128.0 65.0 L 128.0 64.0 L 128.0 63.0 L 128.0 62.0 L 128.0 61.0 L 128.0 60.0 L 128.0 59.0 L 128.0 58.0 L 128.0 57.0 L 128.0 56.0 L 128.0 55.0 L 128.0 54.0 L 128.0 53.0 L 128.0 52.0 L 128.0 51.0 L 128.0 50.0 L 128.0 49.0 L 128.0 48.0 L 128.0 47.0 L 128.0 46.0 L 128.0 45.0 L 128.0 44.0 L 128.0 43.0 L 128.0 42.0 L 128.0 41.0 L 128.0 40.0 L 128.0 39.0 L 128.0 38.0 L 128.0 37.0 L 128.0 36.0 L 128.0 35.0 L 128.0 34.0 L 128.0 33.0 L 128.0 32.0 L 128.0 31.0 L 128.0 30.0 L 128.0 29.0 L 128.0 28.0 L 128.0 27.0 L 128.0 26.0 L 128.0 25.0 L 128.0 24.0 L 128.0 23.0 L 128.0 22.0 L 128.0 21.0 L 128.0 20.0 L 128.0 19.0 L 128.0 18.0 L 128.0 17.0 L 128.0 16.0 L 128.0 15.0 L 128.0 14.0 L 128.0 13.0 L 128.0 12.0 L 128.0 11.0 L 128.0 10.0 L 128.0 9.0 L 128.0 8.0 L 128.0 7.0 L 128.0 6.0 L 128.0 5.0 L 128.0 4.0 L 128.0 3.0 L 128.0 2.0 L 128.0 1.0 L 127.66666666666667 0.3333333333333333 L 127.0 0.0 L 126.0 0.0 L 125.0 0.0 L 124.0 0.0 L 123.0 0.0 L 122.0 0.0 L 121.0 0.0 L 120.0 0.0 L 119.0 0.0 L 118.0 0.0 L 117.0 0.0 L 116.0 0.0 L 115.0 0.0 L 114.0 0.0 L 113.0 0.0 L 112.0 0.0 L 111.0 0.0 L 110.0 0.0 L 109.0 0.0 L 108.0 0.0 L 107.0 0.0 L 106.0 0.0 L 105.0 0.0 L 104.0 0.0 L 103.0 0.0 L 102.0 0.0 L 101.0 0.0 L 100.0 0.0 L 99.0 0.0 L 98.0 0.0 L 97.0 0.0 L 96.0 0.0 L 95.0 0.0 L 94.0 0.0 L 93.0 0.0 L 92.0 0.0 L 91.0 0.0 L 90.0 0.0 L 89.0 0.0 L 88.0 0.0 L 87.0 0.0 L 86.0 0.0 L 85.0 0.0 L 84.0 0.0 L 83.0 0.0 L 82.0 0.0 L 81.0 0.0 L 80.0 0.0 L 79.0 0.0 L 78.0 0.0 L 77.0 0.0 L 76.0 0.0 L 75.0 0.0 L 74.0 0.0 L 73.0 0.0 L 72.0 0.0 L 71.0 0.0 L 70.0 0.0 L 69.0 0.0 L 68.0 0.0 L 67.0 0.0 L 66.0 0.0 L 65.0 0.0 L 64.0 0.0 L 63.0 0.0 L 62.0 0.0 L 61.0 0.0 L 60.0 0.0 L 59.0 0.0 L 58.0 0.0 L 57.0 0.0 L 56.0 0.0 L 55.0 0.0 L 54.0 0.0 L 53.0 0.0 L 52.0 0.0 L 51.0 0.0 L 50.0 0.0 L 49.0 0.0 L 48.0 0.0 L 47.0 0.0 L 46.0 0.0 L 45.0 0.0 L 44.0 0.0 L 43.0 0.0 L 42.0 0.0 L 41.0 0.0 L 40.0 0.0 L 39.0 0.0 L 38.0 0.0 L 37.0 0.0 L 36.0 0.0 L 35.0 0.0 L 34.0 0.0 L 33.0 0.0 L 32.0 0.0 L 31.0 0.0 L 30.0 0.0 L 29.0 0.0 L 28.0 0.0 L 27.0 0.0 L 26.0 0.0 L 25.0 0.0 L 24.0 0.0 L 23.0 0.0 L 22.0 0.0 L 21.0 0.0 L 20.0 0.0 L 19.0 0.0 L 18.0 0.0 L 17.0 0.0 L 16.0 0.0 L 15.0 0.0 L 14.0 0.0 L 13.0 0.0 L 12.0 0.0 L 11.0 0.0 L 10.0 0.0 L 9.0 0.0 L 8.0 0.0 L 7.0 0.0 L 6.0 0.0 L 5.0 0.0 L 4.0 0.0 L 3.0 0.0 L 2.0 0.0 L 1.0 0.0 L 0.3333333333333333 0.3333333333333333 L 0.0 1.0 L 0.0 2.0 L 0.0 3.0 L 0.0 4.0 L 0.0 5.0 L 0.0 6.0 L 0.0 7.0 L 0.0 8.0 L 0.0 9.0 L 0.0 10.0 L 0.0 11.0 L 0.0 12.0 L 0.0 13.0 L 0.0 14.0 L 0.0 15.0 L 0.0 16.0 L 0.0 17.0 L 0.0 18.0 L 0.0 19.0 L 0.0 20.0 L 0.0 21.0 L 0.0 22.0 L 0.0 23.0 L 0.0 24.0 L 0.0 25.0 L 0.0 26.0 L 0.0 27.0 L 0.0 28.0 L 0.0 29.0 L 0.0 30.0 L 0.0 31.0 L 0.0 32.0 L 0.0 33.0 L 0.0 34.0 L 0.0 35.0 L 0.0 36.0 L 0.0 37.0 L 0.0 38.0 L 0.0 39.0 L 0.0 40.0 L 0.0 41.0 L 0.0 42.0 L 0.0 43.0 L 0.0 44.0 L 0.0 45.0 L 0.0 46.0 L 0.0 47.0 L 0.0 48.0 L 0.0 49.0 L 0.0 50.0 L 0.0 51.0 L 0.0 52.0 L 0.0 53.0 L 0.0 54.0 L 0.0 55.0 L 0.0 56.0 L 0.0 57.0 L 0.0 58.0 L 0.0 59.0 L 0.0 60.0 L 0.0 61.0 L 0.0 62.0 L 0.0 63.0 L 0.0 64.0 L 0.0 65.0 L 0.0 66.0 L 0.0 67.0 L 0.0 68.0 L 0.0 69.0 L 0.0 70.0 L 0.0 71.0 L 0.0 72.0 L 0.0 73.0 L 0.0 74.0 L 0.0 75.0 L 0.0 76.0 L 0.0 77.0 L 0.0 78.0 L 0.0 79.0 L 0.0 80.0 L 0.0 81.0 L 0.0 82.0 L 0.0 83.0 L 0.0 84.0 L 0.0 85.0 L 0.0 86.0 L 0.0 87.0 L 0.0 88.0 L 0.0 89.0 L 0.0 90.0 L 0.0 91.0 L 0.0 92.0 L 0.0 93.0 L 0.0 94.0 L 0.0 95.0 L 0.0 96.0 L 0.0 97.0 L 0.0 98.0 L 0.0 99.0 L 0.0 100.0 L 0.0 101.0 L 0.0 102.0 L 0.0 103.0 L 0.0 104.0 L 0.0 105.0 L 0.0 106.0 L 0.0 107.0 L 0.0 108.0 L 0.0 109.0 L 0.0 110.0 L 0.0 111.0 L 0.0 112.0 L 0.0 113.0 L 0.0 114.0 L 0.0 115.0 L 0.0 116.0 L 0.0 117.0 L 0.0 118.0 L 0.0 119.0 L 0.0 120.0 L 0.0 121.0 L 0.0 122.0 L 0.0 123.0 L 0.0 124.0 L 0.0 125.0 L 0.0 126.0 L 0.0 127.0 L 0.3333333333333333 127.66666666666667 L 1.0 128.0 L 2.0 128.0 L 3.0 128.0 L 4.0 128.0 L 5.0 128.0 L 6.0 128.0 L 7.0 128.0 L 8.0 128.0 L 9.0 128.0 L 10.0 128.0 L 11.0 128.0 L 12.0 128.0 L 13.0 128.0 L 14.0 128.0 L 15.0 128.0 L 16.0 128.0 L 17.0 128.0 L 18.0 128.0 L 19.0 128.0 L 20.0 128.0 L 21.0 128.0 L 22.0 128.0 L 23.0 128.0 L 24.0 128.0 L 25.0 128.0 L 26.0 128.0 L 27.0 128.0 L 28.0 128.0 L 29.0 128.0 L 30.0 128.0 L 31.0 128.0 L 32.0 128.0 L 33.0 128.0 L 34.0 128.0 L 35.0 128.0 L 36.0 128.0 L 37.0 128.0 L 38.0 128.0 L 39.0 128.0 L 40.0 128.0 L 41.0 128.0 L 42.0 128.0 L 43.0 128.0 L 44.0 128.0 L 45.0 128.0 L 46.0 128.0 L 47.0 128.0 L 48.0 128.0 L 49.0 128.0 L 50.0 128.0 L 51.0 128.0 L 52.0 128.0 L 53.0 128.0 L 54.0 128.0 L 55.0 128.0 L 56.0 128.0 L 57.0 128.0 L 58.0 128.0 L 59.0 128.0 L 60.0 128.0 L 61.0 128.0 L 62.0 128.0 L 63.0 128.0 L 64.0 128.0 L 65.0 128.0 L 66.0 128.0 L 67.0 128.0 L 68.0 128.0 L 69.0 128.0 L 70.0 128.0 L 71.0 128.0 L 72.0 128.0 L 73.0 128.0 L 74.0 128.0 L 75.0 128.0 L 76.0 128.0 L 77.0 128.0 L 78.0 128.0 L 79.0 128.0 L 80.0 128.0 L 81.0 128.0 L 82.0 128.0 L 83.0 128.0 L 84.0 128.0 L 85.0 128.0 L 86.0 128.0 L 87.0 128.0 L 87.5 128.0 Z" stroke="none" fill="rgb(0,0,0)" />
<path d="M 55.5 12.0 L 56.0 12.0 L 57.0 11.666666666666666 L 58.0 11.666666666666666 L 58.666666666666664 12.0 L 59.333333333333336 12.666666666666666 L 60.0 13.0 L 61.0 12.666666666666666 L 61.666666666666664 12.0 L 62.333333333333336 11.0 L 62.666666666666664 10.0 L 63.0 9.0 L 63.0 8.0 L 63.0 7.0 L 63.0 6.0 L 63.0 5.0 L 62.666666666666664 4.333333333333333 L 62.0 3.6666666666666665 L 61.0 3.3333333333333335 L 60.0 3.0 L 59.0 3.3333333333333335 L 58.0 3.6666666666666665 L 57.0 4.0 L 56.0 4.0 L 55.0 4.0 L 54.333333333333336 4.333333333333333 L 54.0 5.0 L 54.333333333333336 6.0 L 54.666666666666664 7.0 L 54.666666666666664 8.0 L 54.0 9.0 L 53.0 9.666666666666666 L 52.0 10.333333333333334 L 51.0 10.666666666666666 L 50.0 11.0 L 49.0 11.0 L 48.0 10.666666666666666 L 47.0 10.333333333333334 L 46.0 9.666666666666666 L 45.0 9.0 L 44.333333333333336 8.0 L 44.0 7.0 L 44.0 6.0 L 44.0 5.0 L 43.666666666666664 4.333333333333333 L 43.0 4.0 L 42.0 4.0 L 41.0 4.0 L 40.0 4.0 L 39.0 4.0 L 38.0 4.0 L 37.0 4.0 L 36.333333333333336 4.333333333333333 L 36.0 5.0 L 35.666666666666664 6.0 L 35.333333333333336 7.0 L 35.333333333333336 8.0 L 35.666666666666664 9.0 L 36.0 10.0 L 36.333333333333336 11.0 L 37.0 12.0 L 38.0 12.666666666666666 L 39.0 13.0 L 40.0 12.666666666666666 L 41.0 12.333333333333334 L 42.0 12.0 L 43.0 12.333333333333334 L 44.0 12.666666666666666 L 45.0 13.0 L 46.0 13.0 L 47.0 13.0 L 48.0 13.0 L 49.0 13.0 L 50.0 13.0 L 51.0 13.0 L 52.0 13.0 L 53.0 13.0 L 54.0 12.666666666666666 L 54.5 12.5 Z" stroke="none" fill="rgb(110,109,109)" />
<path d="M 39.5 19.0 L 40.0 19.0 L 41.0 19.333333333333332 L 42.0 19.666666666666668 L 43.0 20.0 L 44.0 20.0 L 45.0 20.0 L 46.0 20.333333333333332 L 47.0 20.666666666666668 L 48.0 21.0 L 49.0 21.0 L 50.0 21.0 L 51.0 21.0 L 52.0 20.666666666666668 L 53.0 20.333333333333332 L 54.0 20.0 L 55.0 20.0 L 56.0 20.0 L 57.0 19.666666666666668 L 58.0 19.333333333333332 L 59.0 19.0 L 60.0 18.666666666666668 L 61.0 18.333333333333332 L 62.0 17.666666666666668 L 63.0 17.333333333333332 L 64.0 16.666666666666668 L 65.0 16.0 L 66.0 15.0 L 67.0 14.0 L 68.0 13.0 L 68.66666666666667 12.0 L 69.33333333333333 11.0 L 69.66666666666667 10.0 L 70.0 9.0 L 70.0 8.0 L 70.0 7.0 L 69.66666666666667 6.0 L 69.0 5.333333333333333 L 68.0 4.666666666666667 L 67.0 4.333333333333333 L 66.0 4.0 L 65.0 4.0 L 64.0 4.0 L 63.333333333333336 4.333333333333333 L 63.0 5.0 L 63.0 6.0 L 63.0 7.0 L 63.0 8.0 L 62.666666666666664 9.0 L 62.333333333333336 10.0 L 61.666666666666664 11.0 L 61.0 12.0 L 60.0 12.666666666666666 L 59.0 13.333333333333334 L 58.0 14.0 L 57.0 15.0 L 56.0 15.666666666666666 L 55.0 16.333333333333332 L 54.0 16.666666666666668 L 53.0 17.0 L 52.0 17.0 L 51.0 17.0 L 50.0 17.0 L 49.0 17.0 L 48.0 17.0 L 47.0 17.0 L 46.0 17.0 L 45.0 16.666666666666668 L 44.0 16.333333333333332 L 43.0 15.666666666666666 L 42.0 15.0 L 41.0 14.0 L 40.0 13.333333333333334 L 39.0 12.666666666666666 L 38.0 12.0 L 37.0 11.0 L 36.333333333333336 10.0 L 36.0 9.0 L 36.0 8.0 L 36.0 7.0 L 36.0 6.0 L 36.0 5.0 L 35.666666666666664 4.333333333333333 L 35.0 4.0 L 34.0 4.0 L 33.0 4.0 L 32.0 4.0 L 31.0 4.333333333333333 L 30.0 4.666666666666667 L 29.333333333333332 5.333333333333333 L 29.0 6.0 L 29.0 7.0 L 29.0 8.0 L 29.0 9.0 L 29.333333333333332 10.0 L 29.666666666666668 11.0 L 30.333333333333332 12.0 L 31.0 13.0 L 31.666666666666668 14.0 L 32.333333333333336 14.666666666666666 L 33.0 15.333333333333334 L 34.0 16.0 L 35.0 17.0 L 36.0 17.666666666666668 L 37.0 18.0 L 38.0 18.333333333333332 L 38.5 18.5 Z" stroke="none" fill="rgb(102,102,102)" />
<path d="M 46.5 10.5 L 47.0 10.666666666666666 L 48.0 11.0 L 49.0 11.0 L 50.0 11.0 L 51.0 11.0 L 52.0 10.666666666666666 L 53.0 10.333333333333334 L 54.0 9.666666666666666 L 54.666666666666664 9.0 L 55.0 8.0 L 55.0 7.0 L 54.666666666666664 6.0 L 54.333333333333336 5.0 L 53.666666666666664 4.333333333333333 L 53.0 4.0 L 52.0 4.0 L 51.0 4.0 L 50.0 4.333333333333333 L 49.0 4.666666666666667 L 48.0 4.666666666666667 L 47.0 4.333333333333333 L 46.0 4.0 L 45.0 4.333333333333333 L 44.333333333333336 5.0 L 44.0 6.0 L 44.0 7.0 L 44.0 8.0 L 44.333333333333336 9.0 L 45.0 9.666666666666666 L 45.5 10.0 Z" stroke="none" fill="rgb(116,116,116)" />
<path d="M 30.5 19.5 L 31.0 19.666666666666668 L 32.0 20.333333333333332 L 33.0 20.666666666666668 L 34.0 21.333333333333332 L 35.0 21.666666666666668 L 36.0 22.333333333333332 L 37.0 22.666666666666668 L 38.0 23.0 L 39.0 23.0 L 40.0 23.333333333333332 L 41.0 23.666666666666668 L 42.0 24.0 L 43.0 24.0 L 44.0 24.0 L 45.0 24.0 L 46.0 24.0 L 47.0 24.333333333333332 L 48.0 24.666666666666668 L 49.0 25.0 L 50.0 25.0 L 51.0 24.666666666666668 L 52.0 24.333333333333332 L 53.0 24.0 L 54.0 24.0 L 55.0 24.0 L 56.0 24.0 L 57.0 24.0 L 58.0 23.666666666666668 L 59.0 23.333333333333332 L 60.0 23.0 L 61.0 23.0 L 62.0 22.666666666666668 L 63.0 22.333333333333332 L 64.0 21.666666666666668 L 65.0 21.333333333333332 L 66.0 20.666666666666668 L 67.0 20.333333333333332 L 68.0 19.666666666666668 L 69.0 19.0 L 70.0 18.0 L 71.0 17.333333333333332 L 71.66666666666667 16.666666666666668 L 72.33333333333333 16.0 L 73.0 15.0 L 73.66666666666667 14.0 L 74.33333333333333 13.0 L 74.66666666666667 12.0 L 75.0 11.0 L 74.66666666666667 10.0 L 74.0 9.0 L 73.0 8.0 L 72.0 7.333333333333333 L 71.0 7.0 L 70.33333333333333 7.333333333333333 L 70.0 8.0 L 69.66666666666667 9.0 L 69.33333333333333 10.0 L 68.66666666666667 11.0 L 68.0 12.0 L 67.0 13.0 L 66.0 14.0 L 65.0 15.0 L 64.0 16.0 L 63.0 16.666666666666668 L 62.0 17.333333333333332 L 61.0 17.666666666666668 L 60.0 18.333333333333332 L 59.0 18.666666666666668 L 58.0 19.0 L 57.0 19.333333333333332 L 56.0 19.666666666666668 L 55.0 20.0 L 54.0 20.0 L 53.0 20.0 L 52.0 20.333333333333332 L 51.0 20.666666666666668 L 50.0 21.0 L 49.0 21.0 L 48.0 20.666666666666668 L 47.0 20.333333333333332 L 46.0 20.0 L 45.0 20.0 L 44.0 20.0 L 43.0 19.666666666666668 L 42.0 19.333333333333332 L 41.0 19.0 L 40.0 18.666666666666668 L 39.0 18.333333333333332 L 38.0 18.0 L 37.0 17.666666666666668 L 36.0 17.0 L 35.0 16.0 L 34.0 15.333333333333334 L 33.0 14.666666666666666 L 32.333333333333336 14.0 L 31.666666666666668 13.0 L 31.0 12.0 L 30.333333333333332 11.0 L 29.666666666666668 10.0 L 29.333333333333332 9.0 L 29.0 8.0 L 29.0 7.0 L 28.666666666666668 6.333333333333333 L 28.0 6.0 L 27.0 6.333333333333333 L 26.0 7.0 L 25.0 8.0 L 24.333333333333332 9.0 L 24.0 10.0 L 24.0 11.0 L 24.0 12.0 L 24.333333333333332 13.0 L 25.0 14.0 L 25.666666666666668 15.0 L 26.333333333333332 16.0 L 27.0 17.0 L 28.0 17.666666666666668 L 29.0 18.333333333333332 L 29.5 18.5 Z" stroke="none" fill="rgb(95,95,95)" />
<path d="M 42.5 16.0 L 43.0 16.333333333333332 L 44.0 16.666666666666668 L 45.0 17.0 L 46.0 17.0 L 47.0 17.0 L 48.0 17.0 L 49.0 17.0 L 50.0 17.0 L 51.0 17.0 L 52.0 17.0 L 53.0 17.0 L 54.0 17.0 L 55.0 16.666666666666668 L 56.0 16.333333333333332 L 57.0 15.666666666666666 L 58.0 15.0 L 58.666666666666664 14.0 L 59.0 13.0 L 59.0 12.0 L 58.666666666666664 11.333333333333334 L 58.0 11.0 L 57.0 11.333333333333334 L 56.0 11.666666666666666 L 55.0 12.0 L 54.0 12.333333333333334 L 53.0 12.666666666666666 L 52.0 13.0 L 51.0 13.0 L 50.0 13.0 L 49.0 13.0 L 48.0 13.0 L 47.0 13.0 L 46.0 13.0 L 45.0 12.666666666666666 L 44.0 12.333333333333334 L 43.0 12.0 L 42.0 12.0 L 41.0 12.0 L 40.333333333333336 12.333333333333334 L 40.0 13.0 L 40.333333333333336 14.0 L 41.0 15.0 L 41.5 15.5 Z" stroke="none" fill="rgb(135,135,135)" />
<path d="M 21.5 18.5 L 22.0 19.0 L 23.0 20.0 L 24.0 20.666666666666668 L 25.0 21.333333333333332 L 26.0 22.0 L 27.0 22.666666666666668 L 28.0 23.333333333333332 L 29.0 23.666666666666668 L 30.0 24.333333333333332 L 31.0 24.666666666666668 L 32.0 25.333333333333332 L 33.0 25.666666666666668 L 34.0 26.0 L 35.0 26.333333333333332 L 36.0 27.0 L 37.0 27.666666666666668 L 38.0 28.0 L 39.0 28.0 L 40.0 28.0 L 41.0 28.0 L 42.0 28.0 L 43.0 28.0 L 44.0 28.0 L 45.0 28.0 L 46.0 28.0 L 47.0 28.0 L 48.0 28.0 L 49.0 28.0 L 50.0 28.0 L 51.0 28.0 L 52.0 28.0 L 53.0 28.0 L 54.0 28.0 L 55.0 28.0 L 56.0 28.0 L 57.0 28.0 L 58.0 28.0 L 59.0 28.0 L 60.0 28.0 L 61.0 28.0 L 62.0 28.0 L 62.666666666666664 27.666666666666668 L 63.333333333333336 27.0 L 64.0 26.333333333333332 L 65.0 26.0 L 66.0 25.666666666666668 L 67.0 25.333333333333332 L 68.0 24.666666666666668 L 69.0 24.333333333333332 L 70.0 23.666666666666668 L 71.0 23.333333333333332 L 72.0 22.666666666666668 L 73.0 22.0 L 74.0 21.0 L 75.0 20.333333333333332 L 76.0 19.666666666666668 L 77.0 19.0 L 78.0 18.0 L 78.66666666666667 17.0 L 79.0 16.0 L 78.66666666666667 15.0 L 78.0 14.0 L 77.33333333333333 13.0 L 76.66666666666667 12.0 L 76.0 11.333333333333334 L 75.0 11.333333333333334 L 74.33333333333333 12.0 L 73.66666666666667 13.0 L 73.0 14.0 L 72.33333333333333 15.0 L 71.66666666666667 16.0 L 71.0 16.666666666666668 L 70.0 17.333333333333332 L 69.0 18.0 L 68.0 19.0 L 67.0 19.666666666666668 L 66.0 20.333333333333332 L 65.0 20.666666666666668 L 64.0 21.333333333333332 L 63.0 21.666666666666668 L 62.0 22.333333333333332 L 61.0 22.666666666666668 L 60.0 23.0 L 59.0 23.0 L 58.0 23.333333333333332 L 57.0 23.666666666666668 L 56.0 24.0 L 55.0 24.0 L 54.0 24.0 L 53.0 24.0 L 52.0 24.0 L 51.0 24.333333333333332 L 50.0 24.666666666666668 L 49.0 24.666666666666668 L 48.0 24.333333333333332 L 47.0 24.0 L 46.0 24.0 L 45.0 24.0 L 44.0 24.0 L 43.0 24.0 L 42.0 23.666666666666668 L 41.0 23.333333333333332 L 40.0 23.0 L 39.0 23.0 L 38.0 22.666666666666668 L 37.0 22.333333333333332 L 36.0 21.666666666666668 L 35.0 21.333333333333332 L 34.0 20.666666666666668 L 33.0 20.333333333333332 L 32.0 19.666666666666668 L 31.0 19.0 L 30.0 18.333333333333332 L 29.0 17.666666666666668 L 28.0 17.0 L 27.0 16.0 L 26.333333333333332 15.0 L 25.666666666666668 14.0 L 25.0 13.0 L 24.0 12.333333333333334 L 23.0 12.0 L 22.333333333333332 12.333333333333334 L 21.666666666666668 13.0 L 21.333333333333332 14.0 L 20.666666666666668 15.0 L 20.333333333333332 16.0 L 20.333333333333332 17.0 L 20.5 17.5 Z" stroke="none" fill="rgb(88,88,88)" />
<path d="M 23.5 25.5 L 24.0 25.666666666666668 L 25.0 26.0 L 26.0 26.0 L 27.0 26.333333333333332 L 28.0 26.666666666666668 L 29.0 27.0 L 30.0 27.0 L 31.0 27.0 L 32.0 27.0 L 33.0 27.333333333333332 L 34.0 27.666666666666668 L 35.0 28.0 L 36.0 28.0 L 36.666666666666664 27.666666666666668 L 36.666666666666664 27.0 L 36.0 26.333333333333332 L 35.0 26.0 L 34.0 25.666666666666668 L 33.0 25.333333333333332 L 32.0 24.666666666666668 L 31.0 24.333333333333332 L 30.0 23.666666666666668 L 29.0 23.333333333333332 L 28.0 22.666666666666668 L 27.0 22.0 L 26.0 21.333333333333332 L 25.0 20.666666666666668 L 24.0 20.0 L 23.0 19.0 L 22.0 18.0 L 21.0 17.333333333333332 L 20.0 17.333333333333332 L 19.333333333333332 18.0 L 19.0 19.0 L 18.666666666666668 20.0 L 18.333333333333332 21.0 L 18.0 22.0 L 18.333333333333332 23.0 L 19.0 23.666666666666668 L 20.0 24.333333333333332 L 21.0 24.666666666666668 L 22.0 25.0 L 22.5 25.0 Z" stroke="none" fill="rgb(81,81,81)" />
<path d="M 80.5 23.0 L 81.0 23.0 L 81.66666666666667 22.666666666666668 L 82.0 22.0 L 81.66666666666667 21.0 L 81.33333333333333 20.0 L 80.66666666666667 19.0 L 80.33333333333333 18.0 L 79.66666666666667 17.333333333333332 L 79.0 17.0 L 78.0 17.333333333333332 L 77.0 18.0 L 76.0 19.0 L 75.0 19.666666666666668 L 74.0 20.333333333333332 L 73.0 21.0 L 72.0 22.0 L 71.0 22.666666666666668 L 70.0 23.333333333333332 L 69.0 23.666666666666668 L 68.0 24.333333333333332 L 67.0 24.666666666666668 L 66.0 25.333333333333332 L 65.0 25.666666666666668 L 64.0 26.0 L 63.333333333333336 26.333333333333332 L 63.0 27.0 L 63.333333333333336 27.666666666666668 L 64.0 28.0 L 65.0 28.0 L 66.0 28.0 L 67.0 28.0 L 68.0 27.666666666666668 L 69.0 27.333333333333332 L 70.0 27.0 L 71.0 27.0 L 72.0 27.0 L 73.0 26.666666666666668 L 74.0 26.333333333333332 L 75.0 26.0 L 76.0 26.0 L 77.0 25.666666666666668 L 78.0 25.333333333333332 L 78.66666666666667 24.666666666666668 L 79.33333333333333 24.0 L 79.5 23.5 Z" stroke="none" fill="rgb(81,81,81)" />
<path d="M 21.5 36.0 L 22.0 36.0 L 23.0 36.333333333333336 L 24.0 36.666666666666664 L 25.0 37.333333333333336 L 26.0 37.666666666666664 L 27.0 38.0 L 28.0 38.0 L 29.0 38.0 L 30.0 38.0 L 31.0 38.0 L 32.0 38.333333333333336 L 33.0 39.0 L 34.0 39.666666666666664 L 35.0 39.666666666666664 L 36.0 39.333333333333336 L 37.0 39.0 L 38.0 39.0 L 39.0 39.0 L 40.0 39.0 L 41.0 39.0 L 42.0 39.0 L 43.0 39.0 L 44.0 39.0 L 45.0 39.0 L 46.0 39.333333333333336 L 47.0 39.666666666666664 L 48.0 40.0 L 49.0 40.0 L 50.0 40.0 L 51.0 40.0 L 52.0 40.333333333333336 L 53.0 40.666666666666664 L 54.0 41.0 L 55.0 40.666666666666664 L 56.0 40.0 L 57.0 39.0 L 58.0 38.333333333333336 L 59.0 37.666666666666664 L 60.0 37.0 L 61.0 36.333333333333336 L 62.0 35.666666666666664 L 63.0 35.333333333333336 L 64.0 34.666666666666664 L 65.0 34.333333333333336 L 66.0 33.666666666666664 L 67.0 33.333333333333336 L 68.0 33.0 L 69.0 33.0 L 70.0 33.0 L 71.0 32.666666666666664 L 72.0 32.333333333333336 L 73.0 32.0 L 74.0 32.0 L 75.0 32.0 L 76.0 32.0 L 77.0 32.0 L 78.0 32.0 L 79.0 32.333333333333336 L 80.0 32.666666666666664 L 81.0 33.333333333333336 L 82.0 33.666666666666664 L 83.0 34.0 L 83.66666666666667 33.666666666666664 L 84.33333333333333 33.0 L 84.66666666666667 32.0 L 85.0 31.0 L 85.0 30.0 L 85.0 29.0 L 85.0 28.0 L 85.0 27.0 L 84.66666666666667 26.0 L 84.0 25.0 L 83.33333333333333 24.0 L 82.66666666666667 23.333333333333332 L 82.0 23.0 L 81.0 23.333333333333332 L 80.0 23.666666666666668 L 79.0 24.333333333333332 L 78.0 24.666666666666668 L 77.0 25.333333333333332 L 76.0 25.666666666666668 L 75.0 26.0 L 74.0 26.0 L 73.0 26.333333333333332 L 72.0 26.666666666666668 L 71.0 27.0 L 70.0 27.0 L 69.0 27.0 L 68.0 27.333333333333332 L 67.0 27.666666666666668 L 66.0 28.0 L 65.0 28.0 L 64.0 28.0 L 63.0 28.0 L 62.0 28.0 L 61.0 28.0 L 60.0 28.0 L 59.0 28.0 L 58.0 28.0 L 57.0 28.0 L 56.0 28.0 L 55.0 28.0 L 54.0 28.0 L 53.0 28.0 L 52.0 28.0 L 51.0 28.0 L 50.0 28.0 L 49.0 28.0 L 48.0 28.0 L 47.0 28.0 L 46.0 28.0 L 45.0 28.0 L 44.0 28.0 L 43.0 28.0 L 42.0 28.0 L 41.0 28.0 L 40.0 28.0 L 39.0 28.0 L 38.0 28.0 L 37.0 28.0 L 36.0 28.0 L 35.0 27.666666666666668 L 34.0 27.333333333333332 L 33.0 27.0 L 32.0 27.0 L 31.0 27.0 L 30.0 27.0 L 29.0 26.666666666666668 L 28.0 26.333333333333332 L 27.0 26.0 L 26.0 26.0 L 25.0 25.666666666666668 L 24.0 25.333333333333332 L 23.0 25.0 L 22.0 24.666666666666668 L 21.0 24.333333333333332 L 20.0 23.666666666666668 L 19.0 23.333333333333332 L 18.0 23.333333333333332 L 17.333333333333332 24.0 L 16.666666666666668 25.0 L 16.0 26.0 L 15.333333333333334 27.0 L 15.0 28.0 L 15.0 29.0 L 15.0 30.0 L 15.333333333333334 31.0 L 15.666666666666666 32.0 L 16.333333333333332 33.0 L 17.0 34.0 L 18.0 35.0 L 19.0 35.666666666666664 L 20.0 36.0 L 20.5 36.0 Z" stroke="none" fill="rgb(64,64,66)" />
<path d="M 81.0 23.5 L 80.66666666666667 23.333333333333332 L 80.0 23.0 L 79.33333333333333 23.333333333333332 L 79.33333333333333 23.666666666666668 L 80.0 24.0 L 80.5 24.0 Z" stroke="none" fill="rgb(73,72,72)" />
<path d="M 16.5 42.0 L 17.0 42.0 L 18.0 42.0 L 18.666666666666668 41.666666666666664 L 19.0 41.0 L 19.0 40.0 L 19.0 39.0 L 19.0 38.0 L 19.0 37.0 L 19.0 36.0 L 18.666666666666668 35.0 L 18.0 34.0 L 17.0 33.0 L 16.333333333333332 32.0 L 15.666666666666666 31.0 L 15.333333333333334 30.0 L 15.0 29.0 L 15.0 28.0 L 14.666666666666666 27.333333333333332 L 14.0 27.333333333333332 L 13.0 27.666666666666668 L 12.333333333333334 28.333333333333332 L 12.0 29.0 L 12.0 30.0 L 11.666666666666666 31.0 L 11.333333333333334 32.0 L 11.0 33.0 L 11.0 34.0 L 11.0 35.0 L 11.0 36.0 L 11.0 37.0 L 11.333333333333334 38.0 L 11.666666666666666 39.0 L 12.0 40.0 L 12.333333333333334 40.666666666666664 L 13.0 41.333333333333336 L 14.0 41.666666666666664 L 15.0 42.0 L 15.5 42.0 Z" stroke="none" fill="rgb(88,88,88)" />
<path d="M 88.5 37.0 L 88.66666666666667 36.666666666666664 L 89.0 36.0 L 89.0 35.0 L 89.0 34.0 L 89.0 33.0 L 89.0 32.0 L 88.66666666666667 31.0 L 88.33333333333333 30.0 L 88.0 29.0 L 88.0 28.0 L 87.66666666666667 27.333333333333332 L 87.0 27.0 L 86.0 27.0 L 85.33333333333333 27.333333333333332 L 85.0 28.0 L 85.0 29.0 L 85.0 30.0 L 84.66666666666667 31.0 L 84.33333333333333 32.0 L 84.0 33.0 L 84.33333333333333 34.0 L 85.0 35.0 L 86.0 36.0 L 87.0 36.666666666666664 L 87.5 37.0 Z" stroke="none" fill="rgb(88,88,88)" />
<path d="M 91.5 40.0 L 92.0 40.0 L 93.0 39.666666666666664 L 94.0 39.0 L 95.0 38.0 L 95.66666666666667 37.0 L 96.0 36.0 L 96.0 35.0 L 96.0 34.0 L 96.0 33.0 L 95.66666666666667 32.0 L 95.0 31.0 L 94.0 30.0 L 93.0 29.333333333333332 L 92.0 28.666666666666668 L 91.0 28.333333333333332 L 90.0 28.0 L 89.0 28.0 L 88.33333333333333 28.333333333333332 L 88.0 29.0 L 88.0 30.0 L 88.33333333333333 31.0 L 88.66666666666667 32.0 L 89.0 33.0 L 89.0 34.0 L 89.0 35.0 L 89.0 36.0 L 89.0 37.0 L 89.33333333333333 38.0 L 90.0 39.0 L 90.5 39.5 Z" stroke="none" fill="rgb(81,81,81)" />
<path d="M 10.5 40.0 L 11.0 40.0 L 11.666666666666666 39.666666666666664 L 12.0 39.0 L 11.666666666666666 38.0 L 11.333333333333334 37.0 L 11.0 36.0 L 11.0 35.0 L 11.0 34.0 L 11.333333333333334 33.0 L 11.666666666666666 32.0 L 12.0 31.0 L 12.0 30.0 L 11.666666666666666 29.333333333333332 L 11.0 29.0 L 10.0 29.0 L 9.0 29.0 L 8.0 29.333333333333332 L 7.0 29.666666666666668 L 6.0 30.333333333333332 L 5.0 31.0 L 4.333333333333333 32.0 L 4.0 33.0 L 4.0 34.0 L 4.0 35.0 L 4.0 36.0 L 4.0 37.0 L 4.333333333333333 37.666666666666664 L 5.0 38.333333333333336 L 6.0 38.666666666666664 L 7.0 39.333333333333336 L 8.0 39.666666666666664 L 9.0 40.0 L 9.5 40.0 Z" stroke="none" fill="rgb(81,81,81)" />
<path d="M 65.5 40.5 L 66.0 40.333333333333336 L 67.0 39.666666666666664 L 68.0 39.333333333333336 L 69.0 39.0 L 70.0 38.666666666666664 L 71.0 38.333333333333336 L 72.0 38.0 L 73.0 38.0 L 74.0 38.333333333333336 L 75.0 38.666666666666664 L 76.0 39.0 L 77.0 39.0 L 78.0 39.0 L 79.0 39.0 L 80.0 39.333333333333336 L 81.0 39.666666666666664 L 82.0 40.333333333333336 L 83.0 40.666666666666664 L 84.0 40.666666666666664 L 84.66666666666667 40.0 L 85.33333333333333 39.0 L 86.0 38.0 L 86.66666666666667 37.0 L 86.66666666666667 36.0 L 86.0 35.0 L 85.0 34.333333333333336 L 84.0 34.0 L 83.0 33.666666666666664 L 82.0 33.333333333333336 L 81.0 32.666666666666664 L 80.0 32.333333333333336 L 79.0 32.0 L 78.0 32.0 L 77.0 32.0 L 76.0 32.0 L 75.0 32.0 L 74.0 32.0 L 73.0 32.0 L 72.0 32.0 L 71.0 32.333333333333336 L 70.0 32.666666666666664 L 69.0 33.0 L 68.0 33.0 L 67.0 33.0 L 66.0 33.333333333333336 L 65.0 33.666666666666664 L 64.0 34.333333333333336 L 63.0 34.666666666666664 L 62.0 35.333333333333336 L 61.0 35.666666666666664 L 60.0 36.333333333333336 L 59.333333333333336 37.0 L 59.0 38.0 L 59.333333333333336 39.0 L 59.666666666666664 40.0 L 60.333333333333336 41.0 L 61.0 41.666666666666664 L 62.0 42.0 L 63.0 41.666666666666664 L 64.0 41.333333333333336 L 64.5 41.0 Z" stroke="none" fill="rgb(220,220,220)" />
<path d="M 23.5 45.0 L 24.0 45.0 L 25.0 45.0 L 26.0 45.0 L 27.0 45.0 L 27.666666666666668 44.666666666666664 L 28.0 44.0 L 27.666666666666668 43.0 L 27.333333333333332 42.0 L 26.666666666666668 41.0 L 26.333333333333332 40.0 L 26.0 39.0 L 26.0 38.0 L 25.666666666666668 37.333333333333336 L 25.0 36.666666666666664 L 24.0 36.333333333333336 L 23.0 36.0 L 22.0 36.0 L 21.0 36.0 L 20.0 36.0 L 19.333333333333332 36.333333333333336 L 19.0 37.0 L 19.0 38.0 L 19.0 39.0 L 19.0 40.0 L 19.0 41.0 L 19.333333333333332 42.0 L 20.0 43.0 L 21.0 44.0 L 22.0 44.666666666666664 L 22.5 45.0 Z" stroke="none" fill="rgb(95,95,95)" />
<path d="M 91.5 47.5 L 92.0 47.0 L 93.0 46.0 L 93.66666666666667 45.0 L 94.0 44.0 L 94.0 43.0 L 94.0 42.0 L 93.66666666666667 41.0 L 93.0 40.333333333333336 L 92.0 39.666666666666664 L 91.0 39.0 L 90.0 38.0 L 89.0 37.333333333333336 L 88.0 37.0 L 87.0 37.0 L 86.0 37.333333333333336 L 85.33333333333333 38.0 L 84.66666666666667 39.0 L 84.33333333333333 40.0 L 84.0 41.0 L 84.33333333333333 42.0 L 85.0 43.0 L 86.0 44.0 L 87.0 45.0 L 88.0 46.0 L 89.0 47.0 L 90.0 47.666666666666664 L 90.5 48.0 Z" stroke="none" fill="rgb(210,210,210)" />
<path d="M 37.5 47.0 L 38.0 47.0 L 38.666666666666664 46.666666666666664 L 39.0 46.0 L 38.666666666666664 45.0 L 38.0 44.0 L 37.0 43.0 L 36.0 42.0 L 35.333333333333336 41.0 L 34.666666666666664 40.0 L 34.0 39.0 L 33.0 38.333333333333336 L 32.0 38.0 L 31.0 38.0 L 30.0 38.0 L 29.0 38.0 L 28.0 38.0 L 27.0 38.0 L 26.333333333333332 38.333333333333336 L 26.0 39.0 L 26.0 40.0 L 26.333333333333332 41.0 L 26.666666666666668 42.0 L 27.333333333333332 43.0 L 27.666666666666668 44.0 L 28.333333333333332 44.666666666666664 L 29.0 45.333333333333336 L 30.0 46.0 L 31.0 46.666666666666664 L 32.0 47.0 L 33.0 47.0 L 34.0 47.0 L 35.0 47.0 L 36.0 47.0 L 36.5 47.0 Z" stroke="none" fill="rgb(102,102,102)" />
<path d="M 53.5 48.5 L 54.0 49.0 L 55.0 49.666666666666664 L 56.0 49.666666666666664 L 56.666666666666664 49.0 L 57.333333333333336 48.0 L 58.0 47.0 L 58.666666666666664 46.0 L 59.333333333333336 45.0 L 60.0 44.0 L 60.666666666666664 43.0 L 61.0 42.0 L 60.666666666666664 41.0 L 60.333333333333336 40.0 L 59.666666666666664 39.0 L 59.0 38.333333333333336 L 58.0 38.0 L 57.0 38.333333333333336 L 56.0 39.0 L 55.0 40.0 L 54.0 41.0 L 53.333333333333336 42.0 L 52.666666666666664 43.0 L 52.0 44.0 L 51.333333333333336 45.0 L 51.0 46.0 L 51.333333333333336 46.666666666666664 L 52.0 47.333333333333336 L 52.5 47.5 Z" stroke="none" fill="rgb(210,210,210)" />
<path d="M 65.5 47.0 L 66.0 47.0 L 67.0 47.0 L 68.0 47.0 L 69.0 47.0 L 70.0 47.0 L 71.0 46.666666666666664 L 72.0 46.0 L 73.0 45.0 L 73.66666666666667 44.0 L 74.0 43.0 L 74.33333333333333 42.0 L 74.66666666666667 41.0 L 75.0 40.0 L 75.0 39.0 L 74.66666666666667 38.333333333333336 L 74.0 38.0 L 73.0 38.0 L 72.0 38.0 L 71.0 38.0 L 70.0 38.333333333333336 L 69.0 38.666666666666664 L 68.0 39.0 L 67.0 39.333333333333336 L 66.0 39.666666666666664 L 65.0 40.333333333333336 L 64.0 40.666666666666664 L 63.0 41.333333333333336 L 62.0 41.666666666666664 L 61.0 42.333333333333336 L 60.0 43.0 L 59.333333333333336 44.0 L 59.0 45.0 L 59.333333333333336 45.666666666666664 L 60.0 46.0 L 61.0 46.333333333333336 L 62.0 46.666666666666664 L 63.0 47.0 L 64.0 47.0 L 64.5 47.0 Z" stroke="none" fill="rgb(190,189,189)" />
<path d="M 40.5 46.0 L 41.0 46.0 L 42.0 45.666666666666664 L 43.0 45.333333333333336 L 44.0 45.0 L 45.0 45.0 L 46.0 45.0 L 47.0 45.0 L 48.0 45.0 L 49.0 45.0 L 50.0 45.0 L 51.0 45.0 L 52.0 44.666666666666664 L 52.666666666666664 44.0 L 53.333333333333336 43.0 L 53.666666666666664 42.0 L 53.666666666666664 41.0 L 53.0 40.333333333333336 L 52.0 40.0 L 51.0 40.0 L 50.0 40.0 L 49.0 40.0 L 48.0 39.666666666666664 L 47.0 39.333333333333336 L 46.0 39.0 L 45.0 39.0 L 44.0 39.0 L 43.0 39.0 L 42.0 39.0 L 41.0 39.0 L 40.0 39.0 L 39.0 39.0 L 38.0 39.0 L 37.0 39.0 L 36.0 39.0 L 35.333333333333336 39.333333333333336 L 35.0 40.0 L 35.0 41.0 L 35.333333333333336 42.0 L 36.0 43.0 L 37.0 44.0 L 38.0 45.0 L 39.0 45.666666666666664 L 39.5 46.0 Z" stroke="none" fill="rgb(110,109,109)" />
<path d="M 79.0 45.5 L 79.33333333333333 45.0 L 80.0 44.0 L 81.0 43.333333333333336 L 82.0 43.0 L 83.0 43.333333333333336 L 84.0 43.666666666666664 L 85.0 44.0 L 85.66666666666667 43.666666666666664 L 85.66666666666667 43.0 L 85.0 42.0 L 84.0 41.0 L 83.0 40.333333333333336 L 82.0 39.666666666666664 L 81.0 39.333333333333336 L 80.0 39.0 L 79.0 39.0 L 78.0 39.0 L 77.0 39.0 L 76.0 39.0 L 75.33333333333333 39.333333333333336 L 74.66666666666667 40.0 L 74.33333333333333 41.0 L 74.0 42.0 L 73.66666666666667 43.0 L 73.33333333333333 44.0 L 73.33333333333333 44.666666666666664 L 74.0 45.0 L 75.0 45.0 L 76.0 45.333333333333336 L 77.0 45.666666666666664 L 78.0 46.0 L 78.5 46.0 Z" stroke="none" fill="rgb(183,183,183)" />
<path d="M 17.5 63.0 L 18.0 62.666666666666664 L 18.666666666666668 62.0 L 19.0 61.0 L 19.0 60.0 L 19.0 59.0 L 19.0 58.0 L 19.0 57.0 L 19.0 56.0 L 18.666666666666668 55.0 L 18.333333333333332 54.0 L 18.0 53.0 L 18.0 52.0 L 18.0 51.0 L 18.0 50.0 L 18.0 49.0 L 18.0 48.0 L 18.0 47.0 L 18.0 46.0 L 18.0 45.0 L 18.333333333333332 44.0 L 18.666666666666668 43.0 L 18.666666666666668 42.333333333333336 L 18.0 42.0 L 17.0 42.0 L 16.0 42.0 L 15.333333333333334 42.333333333333336 L 15.0 43.0 L 15.0 44.0 L 14.666666666666666 45.0 L 14.333333333333334 46.0 L 14.0 47.0 L 14.0 48.0 L 14.0 49.0 L 14.0 50.0 L 14.0 51.0 L 14.0 52.0 L 14.0 53.0 L 14.0 54.0 L 14.0 55.0 L 14.0 56.0 L 14.333333333333334 57.0 L 14.666666666666666 58.0 L 15.0 59.0 L 15.333333333333334 60.0 L 15.666666666666666 61.0 L 16.0 62.0 L 16.333333333333332 62.666666666666664 L 16.5 63.0 Z" stroke="none" fill="rgb(58,53,52)" />
<path d="M 21.0 53.5 L 21.0 53.0 L 21.333333333333332 52.0 L 21.666666666666668 51.0 L 22.0 50.0 L 22.333333333333332 49.0 L 22.666666666666668 48.0 L 23.0 47.0 L 23.0 46.0 L 22.666666666666668 45.0 L 22.0 44.0 L 21.0 43.0 L 20.0 42.333333333333336 L 19.0 42.333333333333336 L 18.333333333333332 43.0 L 18.0 44.0 L 18.0 45.0 L 18.0 46.0 L 18.0 47.0 L 18.0 48.0 L 18.0 49.0 L 18.0 50.0 L 18.0 51.0 L 18.0 52.0 L 18.0 53.0 L 18.0 54.0 L 18.333333333333332 54.666666666666664 L 19.0 55.0 L 20.0 54.666666666666664 L 20.5 54.5 Z" stroke="none" fill="rgb(55,42,36)" />
<path d="M 82.5 72.0 L 83.0 72.0 L 84.0 72.0 L 85.0 71.66666666666667 L 86.0 71.0 L 87.0 70.0 L 87.66666666666667 69.0 L 88.0 68.0 L 88.0 67.0 L 88.0 66.0 L 88.0 65.0 L 88.0 64.0 L 88.0 63.0 L 88.0 62.0 L 88.0 61.0 L 88.0 60.0 L 88.0 59.0 L 87.66666666666667 58.0 L 87.33333333333333 57.0 L 86.66666666666667 56.333333333333336 L 86.0 56.0 L 85.0 55.666666666666664 L 84.33333333333333 55.0 L 84.0 54.0 L 84.0 53.0 L 84.0 52.0 L 84.0 51.0 L 84.0 50.0 L 84.0 49.0 L 84.0 48.0 L 84.0 47.0 L 84.0 46.0 L 84.0 45.0 L 84.0 44.0 L 83.66666666666667 43.333333333333336 L 83.0 43.0 L 82.0 43.0 L 81.0 43.0 L 80.0 43.333333333333336 L 79.33333333333333 44.0 L 79.0 45.0 L 79.0 46.0 L 79.33333333333333 47.0 L 79.66666666666667 48.0 L 79.66666666666667 49.0 L 79.33333333333333 50.0 L 79.0 51.0 L 79.0 52.0 L 79.33333333333333 53.0 L 79.66666666666667 54.0 L 80.0 55.0 L 80.33333333333333 56.0 L 80.66666666666667 57.0 L 81.0 58.0 L 81.0 59.0 L 81.33333333333333 60.0 L 81.66666666666667 61.0 L 82.0 62.0 L 82.33333333333333 63.0 L 82.66666666666667 64.0 L 83.0 65.0 L 83.0 66.0 L 82.66666666666667 67.0 L 82.33333333333333 68.0 L 82.0 69.0 L 82.0 70.0 L 82.0 71.0 L 82.0 71.5 Z" stroke="none" fill="rgb(167,164,163)" />
<path d="M 72.5 87.5 L 73.0 87.0 L 74.0 86.0 L 75.0 85.0 L 76.0 84.0 L 76.66666666666667 83.0 L 77.0 82.0 L 76.66666666666667 81.33333333333333 L 76.0 81.0 L 75.0 81.0 L 74.0 81.0 L 73.0 81.0 L 72.0 80.66666666666667 L 71.0 80.33333333333333 L 70.0 80.0 L 69.0 80.0 L 68.0 80.0 L 67.0 80.0 L 66.0 79.66666666666667 L 65.0 79.33333333333333 L 64.0 79.0 L 63.0 79.0 L 62.0 79.0 L 61.0 79.33333333333333 L 60.0 80.0 L 59.0 81.0 L 58.0 81.66666666666667 L 57.0 82.33333333333333 L 56.0 82.66666666666667 L 55.0 83.0 L 54.0 83.0 L 53.0 83.0 L 52.0 83.0 L 51.0 83.0 L 50.0 83.0 L 49.0 83.0 L 48.0 83.0 L 47.0 83.0 L 46.0 82.66666666666667 L 45.0 82.33333333333333 L 44.0 82.0 L 43.0 81.66666666666667 L 42.0 81.0 L 41.0 80.0 L 40.0 79.0 L 39.333333333333336 78.0 L 39.333333333333336 77.0 L 40.0 76.33333333333333 L 41.0 76.0 L 42.0 76.0 L 43.0 76.33333333333333 L 44.0 76.66666666666667 L 45.0 77.0 L 46.0 77.0 L 47.0 77.0 L 48.0 77.0 L 49.0 77.0 L 50.0 77.0 L 51.0 77.0 L 52.0 77.0 L 53.0 77.0 L 54.0 77.0 L 55.0 77.0 L 56.0 77.0 L 57.0 77.0 L 57.666666666666664 76.66666666666667 L 58.0 76.0 L 57.666666666666664 75.0 L 57.0 74.0 L 56.0 73.0 L 55.0 72.0 L 54.0 71.33333333333333 L 53.0 71.33333333333333 L 52.0 71.66666666666667 L 51.0 72.0 L 50.0 72.0 L 49.0 72.0 L 48.0 71.66666666666667 L 47.0 71.0 L 46.333333333333336 70.0 L 46.333333333333336 69.0 L 47.0 68.33333333333333 L 48.0 68.0 L 49.0 68.0 L 50.0 68.0 L 51.0 68.0 L 51.666666666666664 67.66666666666667 L 51.666666666666664 67.0 L 51.333333333333336 66.0 L 50.666666666666664 65.0 L 50.333333333333336 64.0 L 50.0 63.0 L 50.0 62.0 L 50.0 61.0 L 50.0 60.0 L 49.666666666666664 59.0 L 49.333333333333336 58.0 L 49.0 57.0 L 49.333333333333336 56.0 L 49.666666666666664 55.0 L 50.0 54.0 L 50.0 53.0 L 50.0 52.0 L 50.0 51.0 L 50.333333333333336 50.0 L 50.666666666666664 49.0 L 51.0 48.0 L 51.0 47.0 L 51.0 46.0 L 50.666666666666664 45.333333333333336 L 50.0 45.0 L 49.0 45.0 L 48.0 45.0 L 47.0 45.0 L 46.0 45.0 L 45.0 45.0 L 44.0 45.0 L 43.0 45.0 L 42.0 45.333333333333336 L 41.0 45.666666666666664 L 40.0 46.0 L 39.333333333333336 46.333333333333336 L 39.0 47.0 L 39.333333333333336 48.0 L 40.0 49.0 L 41.0 50.0 L 41.333333333333336 51.0 L 41.0 52.0 L 40.0 52.666666666666664 L 39.0 53.0 L 38.333333333333336 53.333333333333336 L 38.0 54.0 L 38.0 55.0 L 38.333333333333336 56.0 L 38.666666666666664 57.0 L 39.0 58.0 L 39.0 59.0 L 38.666666666666664 60.0 L 38.0 61.0 L 37.0 62.0 L 36.0 63.0 L 35.0 63.666666666666664 L 34.0 64.0 L 33.0 63.666666666666664 L 32.0 63.0 L 31.0 62.0 L 30.333333333333332 61.0 L 30.0 60.0 L 30.0 59.0 L 30.0 58.0 L 30.0 57.0 L 30.333333333333332 56.0 L 30.666666666666668 55.0 L 31.0 54.0 L 30.666666666666668 53.333333333333336 L 30.0 53.0 L 29.0 53.0 L 28.0 52.666666666666664 L 27.333333333333332 52.0 L 27.333333333333332 51.0 L 28.0 50.0 L 29.0 49.0 L 30.0 48.333333333333336 L 30.666666666666668 47.666666666666664 L 31.0 47.0 L 30.666666666666668 46.0 L 30.0 45.333333333333336 L 29.0 45.0 L 28.0 45.0 L 27.0 45.0 L 26.0 44.666666666666664 L 25.0 44.333333333333336 L 24.0 44.333333333333336 L 23.333333333333332 45.0 L 23.0 46.0 L 22.666666666666668 47.0 L 22.333333333333332 48.0 L 22.0 49.0 L 21.666666666666668 50.0 L 21.333333333333332 51.0 L 21.0 52.0 L 20.666666666666668 53.0 L 20.0 54.0 L 19.333333333333332 55.0 L 19.0 56.0 L 19.0 57.0 L 19.0 58.0 L 19.0 59.0 L 19.0 60.0 L 18.666666666666668 61.0 L 18.0 62.0 L 17.333333333333332 63.0 L 17.0 64.0 L 17.0 65.0 L 17.0 66.0 L 17.0 67.0 L 17.0 68.0 L 17.333333333333332 69.0 L 17.666666666666668 70.0 L 18.0 71.0 L 18.0 72.0 L 18.333333333333332 73.0 L 18.666666666666668 74.0 L 19.0 75.0 L 19.333333333333332 76.0 L 19.666666666666668 77.0 L 20.333333333333332 78.0 L 20.666666666666668 79.0 L 21.333333333333332 80.0 L 21.666666666666668 81.0 L 22.333333333333332 82.0 L 23.0 83.0 L 24.0 84.0 L 25.0 85.0 L 26.0 86.0 L 27.0 87.0 L 28.0 88.0 L 29.0 89.0 L 30.0 90.0 L 31.0 90.66666666666667 L 32.0 91.33333333333333 L 33.0 91.66666666666667 L 34.0 92.33333333333333 L 35.0 93.0 L 36.0 93.66666666666667 L 37.0 94.0 L 38.0 94.0 L 39.0 94.33333333333333 L 40.0 94.66666666666667 L 41.0 95.0 L 42.0 95.33333333333333 L 43.0 95.66666666666667 L 44.0 96.0 L 45.0 96.0 L 46.0 96.0 L 47.0 96.0 L 48.0 96.0 L 49.0 96.0 L 50.0 96.0 L 51.0 96.0 L 52.0 96.0 L 53.0 96.0 L 54.0 96.0 L 55.0 96.0 L 56.0 96.0 L 57.0 95.66666666666667 L 58.0 95.33333333333333 L 59.0 95.0 L 60.0 95.0 L 61.0 95.0 L 62.0 95.0 L 63.0 95.0 L 64.0 95.0 L 65.0 95.0 L 65.66666666666667 94.66666666666667 L 66.0 94.0 L 66.33333333333333 93.0 L 67.0 92.0 L 68.0 91.33333333333333 L 69.0 90.66666666666667 L 70.0 90.0 L 71.0 89.0 L 71.5 88.5 Z" stroke="none" fill="rgb(112,83,74)" />
<path d="M 85.5 56.5 L 85.66666666666667 56.0 L 86.0 55.0 L 86.0 54.0 L 86.0 53.0 L 86.0 52.0 L 86.0 51.0 L 86.0 50.0 L 86.0 49.0 L 86.0 48.0 L 86.0 47.0 L 86.0 46.0 L 86.0 45.0 L 85.66666666666667 44.333333333333336 L 85.0 44.0 L 84.33333333333333 44.333333333333336 L 84.0 45.0 L 84.0 46.0 L 84.0 47.0 L 84.0 48.0 L 84.0 49.0 L 84.0 50.0 L 84.0 51.0 L 84.0 52.0 L 84.0 53.0 L 84.0 54.0 L 84.0 55.0 L 84.0 56.0 L 84.33333333333333 56.666666666666664 L 84.5 57.0 Z" stroke="none" fill="rgb(173,172,171)" />
<path d="M 91.0 63.5 L 91.33333333333333 63.0 L 91.66666666666667 62.0 L 92.0 61.0 L 92.0 60.0 L 92.0 59.0 L 92.0 58.0 L 92.0 57.0 L 92.33333333333333 56.0 L 92.66666666666667 55.0 L 92.66666666666667 54.0 L 92.0 53.0 L 91.33333333333333 52.0 L 91.0 51.0 L 91.0 50.0 L 91.0 49.0 L 90.66666666666667 48.0 L 90.0 47.0 L 89.0 46.0 L 88.0 45.0 L 87.0 44.333333333333336 L 86.33333333333333 44.333333333333336 L 86.0 45.0 L 86.0 46.0 L 86.0 47.0 L 86.0 48.0 L 86.0 49.0 L 86.0 50.0 L 86.0 51.0 L 86.0 52.0 L 86.0 53.0 L 86.0 54.0 L 86.0 55.0 L 86.33333333333333 56.0 L 86.66666666666667 57.0 L 87.33333333333333 58.0 L 87.66666666666667 59.0 L 88.0 60.0 L 88.0 61.0 L 88.0 62.0 L 88.0 63.0 L 88.0 64.0 L 88.0 65.0 L 88.0 66.0 L 88.33333333333333 66.66666666666667 L 89.0 66.66666666666667 L 89.66666666666667 66.0 L 90.33333333333333 65.0 L 90.5 64.5 Z" stroke="none" fill="rgb(241,241,241)" />
<path d="M 94.5 53.5 L 95.0 53.0 L 96.0 52.0 L 96.66666666666667 51.0 L 97.0 50.0 L 97.0 49.0 L 97.0 48.0 L 96.66666666666667 47.0 L 96.33333333333333 46.0 L 95.66666666666667 45.0 L 95.0 44.333333333333336 L 94.0 44.333333333333336 L 93.0 45.0 L 92.0 46.0 L 91.33333333333333 47.0 L 91.0 48.0 L 91.0 49.0 L 91.0 50.0 L 91.0 51.0 L 91.0 52.0 L 91.33333333333333 53.0 L 92.0 53.666666666666664 L 93.0 54.0 L 93.5 54.0 Z" stroke="none" fill="rgb(199,199,199)" />
<path d="M 57.5 66.5 L 58.0 67.0 L 58.666666666666664 68.0 L 59.333333333333336 69.0 L 60.0 70.0 L 61.0 71.0 L 62.0 71.66666666666667 L 63.0 72.33333333333333 L 64.0 72.66666666666667 L 65.0 73.33333333333333 L 66.0 73.66666666666667 L 67.0 74.0 L 68.0 74.33333333333333 L 69.0 74.66666666666667 L 70.0 75.0 L 71.0 75.0 L 72.0 75.0 L 73.0 75.0 L 74.0 75.33333333333333 L 75.0 75.66666666666667 L 76.0 76.0 L 77.0 76.0 L 77.66666666666667 75.66666666666667 L 78.33333333333333 75.0 L 79.0 74.33333333333333 L 80.0 74.0 L 81.0 74.0 L 82.0 73.66666666666667 L 82.66666666666667 73.0 L 82.66666666666667 72.0 L 82.33333333333333 71.0 L 82.0 70.0 L 82.33333333333333 69.0 L 82.66666666666667 68.0 L 83.0 67.0 L 83.0 66.0 L 83.0 65.0 L 83.0 64.0 L 82.66666666666667 63.0 L 82.33333333333333 62.0 L 82.0 61.0 L 81.66666666666667 60.0 L 81.33333333333333 59.0 L 81.0 58.0 L 81.0 57.0 L 80.66666666666667 56.0 L 80.33333333333333 55.0 L 80.0 54.0 L 79.66666666666667 53.0 L 79.33333333333333 52.0 L 79.0 51.0 L 79.0 50.0 L 78.66666666666667 49.0 L 78.33333333333333 48.0 L 78.0 47.0 L 77.66666666666667 46.0 L 77.0 45.333333333333336 L 76.0 45.0 L 75.0 45.0 L 74.0 45.0 L 73.0 45.0 L 72.0 45.333333333333336 L 71.33333333333333 46.0 L 71.33333333333333 47.0 L 72.0 48.0 L 73.0 49.0 L 74.0 50.0 L 74.66666666666667 51.0 L 74.66666666666667 52.0 L 74.0 52.666666666666664 L 73.0 52.666666666666664 L 72.0 52.333333333333336 L 71.0 52.0 L 70.0 52.0 L 69.0 52.0 L 68.0 52.0 L 67.0 52.0 L 66.0 52.0 L 65.0 52.0 L 64.0 52.0 L 63.0 52.0 L 62.0 52.333333333333336 L 61.0 52.666666666666664 L 60.0 52.666666666666664 L 59.0 52.0 L 58.666666666666664 51.0 L 59.0 50.0 L 60.0 49.333333333333336 L 61.0 48.666666666666664 L 61.666666666666664 48.0 L 62.0 47.0 L 61.666666666666664 46.333333333333336 L 61.0 46.0 L 60.0 46.0 L 59.0 46.0 L 58.0 46.333333333333336 L 57.333333333333336 47.0 L 56.666666666666664 48.0 L 56.333333333333336 49.0 L 56.0 50.0 L 56.0 51.0 L 56.0 52.0 L 55.666666666666664 53.0 L 55.333333333333336 54.0 L 55.0 55.0 L 55.0 56.0 L 55.0 57.0 L 55.0 58.0 L 55.0 59.0 L 55.333333333333336 60.0 L 55.666666666666664 61.0 L 56.0 62.0 L 56.0 63.0 L 56.333333333333336 64.0 L 56.666666666666664 65.0 L 57.0 65.5 Z" stroke="none" fill="rgb(190,179,175)" />
<path d="M 79.5 50.0 L 79.66666666666667 49.666666666666664 L 80.0 49.0 L 80.0 48.0 L 79.66666666666667 47.0 L 79.0 46.333333333333336 L 78.33333333333333 46.333333333333336 L 78.0 47.0 L 78.0 48.0 L 78.33333333333333 49.0 L 78.5 49.5 Z" stroke="none" fill="rgb(157,156,156)" />
<path d="M 40.5 53.0 L 41.0 52.666666666666664 L 41.666666666666664 52.0 L 42.0 51.0 L 41.666666666666664 50.0 L 41.0 49.0 L 40.0 48.0 L 39.0 47.333333333333336 L 38.0 47.0 L 37.0 47.0 L 36.0 47.0 L 35.0 47.0 L 34.0 47.0 L 33.0 47.0 L 32.0 47.0 L 31.0 47.333333333333336 L 30.0 47.666666666666664 L 29.0 48.333333333333336 L 28.0 49.0 L 27.333333333333332 50.0 L 27.0 51.0 L 27.0 52.0 L 27.333333333333332 52.666666666666664 L 28.0 53.0 L 29.0 53.0 L 30.0 53.333333333333336 L 30.333333333333332 54.0 L 30.333333333333332 55.0 L 30.0 56.0 L 30.0 57.0 L 30.0 58.0 L 30.0 59.0 L 30.0 60.0 L 30.0 61.0 L 30.333333333333332 62.0 L 31.0 63.0 L 32.0 63.666666666666664 L 33.0 64.0 L 34.0 64.0 L 35.0 64.0 L 36.0 63.666666666666664 L 37.0 63.0 L 38.0 62.0 L 38.666666666666664 61.0 L 39.0 60.0 L 39.0 59.0 L 39.0 58.0 L 39.0 57.0 L 38.666666666666664 56.0 L 38.333333333333336 55.0 L 38.333333333333336 54.0 L 39.0 53.333333333333336 L 39.5 53.0 Z" stroke="none" fill="rgb(27,24,23)" />
<path d="M 53.5 56.5 L 54.0 56.666666666666664 L 54.666666666666664 56.666666666666664 L 55.0 56.0 L 55.333333333333336 55.0 L 55.666666666666664 54.0 L 56.0 53.0 L 56.0 52.0 L 56.0 51.0 L 55.666666666666664 50.0 L 55.0 49.0 L 54.0 48.0 L 53.0 47.333333333333336 L 52.0 47.0 L 51.333333333333336 47.333333333333336 L 50.666666666666664 48.0 L 50.333333333333336 49.0 L 50.0 50.0 L 50.0 51.0 L 50.0 52.0 L 50.0 53.0 L 50.333333333333336 54.0 L 51.0 55.0 L 52.0 55.666666666666664 L 52.5 56.0 Z" stroke="none" fill="rgb(199,199,199)" />
<path d="M 62.5 52.5 L 63.0 52.333333333333336 L 64.0 52.0 L 65.0 52.0 L 66.0 52.0 L 67.0 52.0 L 68.0 52.0 L 69.0 52.0 L 70.0 52.0 L 71.0 52.333333333333336 L 72.0 52.666666666666664 L 73.0 53.0 L 74.0 53.0 L 75.0 52.666666666666664 L 75.66666666666667 52.0 L 75.66666666666667 51.0 L 75.0 50.0 L 74.0 49.0 L 73.0 48.0 L 72.0 47.333333333333336 L 71.0 47.0 L 70.0 47.0 L 69.0 47.0 L 68.0 47.0 L 67.0 47.0 L 66.0 47.0 L 65.0 47.0 L 64.0 47.0 L 63.0 47.0 L 62.0 47.333333333333336 L 61.0 48.0 L 60.0 48.666666666666664 L 59.0 49.333333333333336 L 58.333333333333336 50.0 L 58.0 51.0 L 58.333333333333336 52.0 L 59.0 52.666666666666664 L 60.0 53.0 L 61.0 53.0 L 61.5 53.0 Z" stroke="none" fill="rgb(157,156,156)" />
<path d="M 98.0 57.5 L 98.0 57.0 L 98.0 56.0 L 98.0 55.0 L 98.0 54.0 L 98.0 53.0 L 98.0 52.0 L 97.66666666666667 51.333333333333336 L 97.0 51.0 L 96.0 51.333333333333336 L 95.0 52.0 L 94.0 53.0 L 93.0 54.0 L 92.33333333333333 55.0 L 92.0 56.0 L 92.0 57.0 L 92.0 58.0 L 92.0 59.0 L 92.0 60.0 L 92.33333333333333 60.666666666666664 L 93.0 60.666666666666664 L 94.0 60.0 L 95.0 59.0 L 96.0 58.333333333333336 L 97.0 58.0 L 97.5 58.0 Z" stroke="none" fill="rgb(190,189,189)" />
<path d="M 50.5 61.0 L 51.0 61.0 L 52.0 61.333333333333336 L 53.0 62.0 L 54.0 62.666666666666664 L 55.0 63.0 L 55.666666666666664 62.666666666666664 L 56.0 62.0 L 56.0 61.0 L 55.666666666666664 60.0 L 55.333333333333336 59.0 L 55.0 58.0 L 54.666666666666664 57.0 L 54.0 56.333333333333336 L 53.0 55.666666666666664 L 52.0 55.0 L 51.0 54.333333333333336 L 50.0 54.333333333333336 L 49.333333333333336 55.0 L 49.0 56.0 L 49.0 57.0 L 49.0 58.0 L 49.333333333333336 59.0 L 49.666666666666664 60.0 L 50.0 60.5 Z" stroke="none" fill="rgb(190,189,189)" />
<path d="M 72.0 62.5 L 72.0 62.0 L 72.0 61.0 L 72.0 60.0 L 72.0 59.0 L 71.66666666666667 58.0 L 71.33333333333333 57.0 L 70.66666666666667 56.0 L 70.0 55.333333333333336 L 69.0 54.666666666666664 L 68.0 54.333333333333336 L 67.0 54.0 L 66.0 54.0 L 65.0 54.0 L 64.0 54.333333333333336 L 63.0 54.666666666666664 L 62.0 55.333333333333336 L 61.0 56.0 L 60.333333333333336 57.0 L 60.0 58.0 L 60.0 59.0 L 60.0 60.0 L 60.0 61.0 L 60.0 62.0 L 60.333333333333336 63.0 L 61.0 64.0 L 62.0 65.0 L 63.0 65.66666666666667 L 64.0 66.0 L 65.0 66.0 L 66.0 66.0 L 67.0 66.0 L 68.0 66.0 L 69.0 65.66666666666667 L 70.0 65.0 L 71.0 64.0 L 71.5 63.5 Z" stroke="none" fill="rgb(157,156,156)" />
<path d="M 18.0 71.5 L 18.0 71.0 L 18.0 70.0 L 17.666666666666668 69.0 L 17.333333333333332 68.0 L 17.0 67.0 L 17.0 66.0 L 17.0 65.0 L 17.0 64.0 L 16.666666666666668 63.0 L 16.333333333333332 62.0 L 16.0 61.0 L 15.666666666666666 60.0 L 15.333333333333334 59.0 L 15.0 58.0 L 14.666666666666666 57.0 L 14.0 56.333333333333336 L 13.0 56.0 L 12.333333333333334 56.333333333333336 L 12.0 57.0 L 12.0 58.0 L 12.0 59.0 L 12.0 60.0 L 12.0 61.0 L 12.0 62.0 L 12.0 63.0 L 12.0 64.0 L 12.0 65.0 L 12.0 66.0 L 12.333333333333334 67.0 L 12.666666666666666 68.0 L 13.333333333333334 69.0 L 14.0 70.0 L 15.0 71.0 L 16.0 71.66666666666667 L 17.0 72.0 L 17.5 72.0 Z" stroke="none" fill="rgb(55,42,36)" />
<path d="M 92.5 67.0 L 93.0 66.66666666666667 L 94.0 66.0 L 95.0 65.33333333333333 L 96.0 65.0 L 96.66666666666667 64.66666666666667 L 97.33333333333333 64.0 L 97.66666666666667 63.0 L 98.0 62.0 L 98.0 61.0 L 98.0 60.0 L 98.0 59.0 L 97.66666666666667 58.333333333333336 L 97.0 58.0 L 96.0 58.0 L 95.0 58.333333333333336 L 94.0 59.0 L 93.0 60.0 L 92.0 61.0 L 91.33333333333333 62.0 L 90.66666666666667 63.0 L 90.33333333333333 64.0 L 89.66666666666667 65.0 L 89.0 66.0 L 88.33333333333333 67.0 L 88.33333333333333 67.66666666666667 L 89.0 68.0 L 90.0 68.0 L 91.0 67.66666666666667 L 91.5 67.5 Z" stroke="none" fill="rgb(183,183,183)" />
<path d="M 59.5 70.0 L 59.666666666666664 69.66666666666667 L 59.666666666666664 69.0 L 59.333333333333336 68.0 L 58.666666666666664 67.0 L 58.0 66.0 L 57.333333333333336 65.0 L 56.666666666666664 64.0 L 56.0 63.333333333333336 L 55.0 62.666666666666664 L 54.0 62.0 L 53.0 61.333333333333336 L 52.0 61.0 L 51.0 61.0 L 50.333333333333336 61.333333333333336 L 50.0 62.0 L 50.0 63.0 L 50.0 64.0 L 50.333333333333336 65.0 L 50.666666666666664 66.0 L 51.333333333333336 67.0 L 51.666666666666664 68.0 L 52.333333333333336 68.66666666666667 L 53.0 68.66666666666667 L 54.0 68.66666666666667 L 55.0 68.66666666666667 L 56.0 69.0 L 57.0 69.33333333333333 L 58.0 69.66666666666667 L 58.5 70.0 Z" stroke="none" fill="rgb(183,183,183)" />
<path d="M 91.5 74.0 L 92.0 73.66666666666667 L 93.0 73.0 L 93.66666666666667 72.0 L 94.33333333333333 71.0 L 95.0 70.0 L 95.66666666666667 69.0 L 96.0 68.0 L 96.0 67.0 L 96.0 66.0 L 95.66666666666667 65.33333333333333 L 95.0 65.0 L 94.0 65.33333333333333 L 93.0 66.0 L 92.0 66.66666666666667 L 91.0 67.33333333333333 L 90.0 67.66666666666667 L 89.0 68.0 L 88.0 68.33333333333333 L 87.0 69.0 L 86.0 70.0 L 85.0 71.0 L 84.0 71.66666666666667 L 83.0 72.33333333333333 L 82.0 73.0 L 81.0 73.66666666666667 L 80.0 74.0 L 79.0 74.0 L 78.33333333333333 74.33333333333333 L 78.0 75.0 L 78.33333333333333 75.66666666666667 L 79.0 76.0 L 80.0 76.0 L 81.0 75.66666666666667 L 82.0 75.33333333333333 L 83.0 75.0 L 84.0 75.0 L 85.0 74.66666666666667 L 86.0 74.33333333333333 L 87.0 74.0 L 88.0 73.66666666666667 L 89.0 73.66666666666667 L 90.0 73.66666666666667 L 90.5 74.0 Z" stroke="none" fill="rgb(173,172,171)" />
<path d="M 50.5 72.0 L 51.0 72.0 L 52.0 72.0 L 52.666666666666664 71.66666666666667 L 53.0 71.0 L 53.0 70.0 L 52.666666666666664 69.0 L 52.0 68.33333333333333 L 51.0 68.0 L 50.0 68.0 L 49.0 68.0 L 48.0 68.0 L 47.0 68.0 L 46.333333333333336 68.33333333333333 L 46.0 69.0 L 46.0 70.0 L 46.333333333333336 71.0 L 47.0 71.66666666666667 L 48.0 72.0 L 49.0 72.0 L 49.5 72.0 Z" stroke="none" fill="rgb(55,42,36)" />
<path d="M 56.5 74.5 L 57.0 75.0 L 58.0 75.66666666666667 L 59.0 76.0 L 60.0 75.66666666666667 L 61.0 75.33333333333333 L 62.0 75.33333333333333 L 63.0 75.66666666666667 L 64.0 76.0 L 65.0 76.0 L 66.0 76.0 L 67.0 76.0 L 68.0 76.0 L 69.0 76.33333333333333 L 70.0 76.66666666666667 L 71.0 77.0 L 72.0 77.0 L 73.0 77.0 L 74.0 76.66666666666667 L 74.66666666666667 76.0 L 74.66666666666667 75.33333333333333 L 74.0 75.0 L 73.0 75.0 L 72.0 75.0 L 71.0 75.0 L 70.0 74.66666666666667 L 69.0 74.33333333333333 L 68.0 74.0 L 67.0 73.66666666666667 L 66.0 73.33333333333333 L 65.0 72.66666666666667 L 64.0 72.33333333333333 L 63.0 71.66666666666667 L 62.0 71.0 L 61.0 70.33333333333333 L 60.0 70.0 L 59.0 69.66666666666667 L 58.0 69.33333333333333 L 57.0 69.0 L 56.0 68.66666666666667 L 55.0 68.33333333333333 L 54.0 68.0 L 53.333333333333336 68.33333333333333 L 53.0 69.0 L 53.0 70.0 L 53.333333333333336 71.0 L 54.0 72.0 L 55.0 73.0 L 55.5 73.5 Z" stroke="none" fill="rgb(173,172,171)" />
<path d="M 76.5 81.5 L 77.0 81.66666666666667 L 78.0 81.66666666666667 L 79.0 81.33333333333333 L 80.0 81.0 L 81.0 80.66666666666667 L 82.0 80.33333333333333 L 83.0 80.0 L 84.0 79.66666666666667 L 85.0 79.33333333333333 L 86.0 78.66666666666667 L 87.0 78.0 L 88.0 77.0 L 89.0 76.0 L 89.66666666666667 75.0 L 90.0 74.0 L 89.66666666666667 73.33333333333333 L 89.0 73.0 L 88.0 73.33333333333333 L 87.0 73.66666666666667 L 86.0 74.0 L 85.0 74.33333333333333 L 84.0 74.66666666666667 L 83.0 75.0 L 82.0 75.0 L 81.0 75.33333333333333 L 80.0 75.66666666666667 L 79.0 76.0 L 78.0 76.0 L 77.0 76.0 L 76.0 76.0 L 75.0 76.0 L 74.0 76.33333333333333 L 73.0 76.66666666666667 L 72.0 77.0 L 71.0 76.66666666666667 L 70.0 76.33333333333333 L 69.0 76.0 L 68.0 76.0 L 67.0 76.0 L 66.0 76.0 L 65.0 76.0 L 64.0 75.66666666666667 L 63.0 75.33333333333333 L 62.0 75.0 L 61.0 75.0 L 60.333333333333336 75.33333333333333 L 60.0 76.0 L 60.333333333333336 77.0 L 61.0 78.0 L 62.0 78.66666666666667 L 63.0 79.0 L 64.0 79.33333333333333 L 65.0 79.66666666666667 L 66.0 80.0 L 67.0 80.0 L 68.0 80.0 L 69.0 80.0 L 70.0 80.33333333333333 L 71.0 80.66666666666667 L 72.0 81.0 L 73.0 81.0 L 74.0 81.0 L 75.0 81.0 L 75.5 81.0 Z" stroke="none" fill="rgb(167,164,163)" />
<path d="M 92.5 79.5 L 93.0 79.0 L 94.0 78.0 L 94.66666666666667 77.0 L 94.66666666666667 76.0 L 94.0 75.0 L 93.0 74.33333333333333 L 92.0 74.0 L 91.0 74.0 L 90.0 74.33333333333333 L 89.0 75.0 L 88.0 76.0 L 87.0 77.0 L 86.33333333333333 78.0 L 86.0 79.0 L 86.33333333333333 80.0 L 87.0 80.66666666666667 L 88.0 81.0 L 89.0 81.0 L 90.0 81.0 L 91.0 80.66666666666667 L 91.5 80.5 Z" stroke="none" fill="rgb(199,199,199)" />
<path d="M 59.5 81.5 L 60.0 81.0 L 61.0 80.0 L 61.666666666666664 79.0 L 61.666666666666664 78.0 L 61.0 77.0 L 60.0 76.33333333333333 L 59.0 76.0 L 58.0 76.33333333333333 L 57.0 76.66666666666667 L 56.0 77.0 L 55.0 77.0 L 54.0 77.0 L 53.0 77.0 L 52.0 77.0 L 51.0 77.0 L 50.0 77.0 L 49.0 77.0 L 48.0 77.0 L 47.0 77.0 L 46.0 77.0 L 45.0 76.66666666666667 L 44.0 76.33333333333333 L 43.0 76.0 L 42.0 76.0 L 41.0 76.0 L 40.0 76.0 L 39.333333333333336 76.33333333333333 L 39.0 77.0 L 39.0 78.0 L 39.333333333333336 79.0 L 40.0 80.0 L 41.0 81.0 L 42.0 81.66666666666667 L 43.0 82.0 L 44.0 82.33333333333333 L 45.0 82.66666666666667 L 46.0 83.0 L 47.0 83.0 L 48.0 83.0 L 49.0 83.0 L 50.0 83.0 L 51.0 83.0 L 52.0 83.0 L 53.0 83.0 L 54.0 83.0 L 55.0 83.0 L 56.0 83.0 L 57.0 82.66666666666667 L 58.0 82.33333333333333 L 58.5 82.0 Z" stroke="none" fill="rgb(27,24,23)" />
<path d="M 87.5 84.5 L 87.66666666666667 85.0 L 88.33333333333333 85.66666666666667 L 89.0 86.0 L 90.0 86.0 L 91.0 85.66666666666667 L 92.0 85.0 L 93.0 84.0 L 94.0 83.33333333333333 L 95.0 82.66666666666667 L 96.0 82.0 L 97.0 81.0 L 97.66666666666667 80.0 L 98.0 79.0 L 97.66666666666667 78.0 L 97.0 77.33333333333333 L 96.0 77.0 L 95.0 77.0 L 94.0 77.33333333333333 L 93.0 78.0 L 92.0 79.0 L 91.0 80.0 L 90.0 80.66666666666667 L 89.0 81.0 L 88.0 81.33333333333333 L 87.33333333333333 82.0 L 87.0 83.0 L 87.0 83.5 Z" stroke="none" fill="rgb(173,172,171)" />
<path d="M 95.0 95.5 L 94.66666666666667 95.0 L 94.0 94.0 L 93.0 93.0 L 92.33333333333333 92.0 L 91.66666666666667 91.0 L 91.33333333333333 90.0 L 91.0 89.0 L 91.0 88.0 L 90.66666666666667 87.0 L 90.0 86.33333333333333 L 89.0 85.66666666666667 L 88.33333333333333 85.0 L 87.66666666666667 84.0 L 87.66666666666667 83.0 L 87.66666666666667 82.0 L 87.66666666666667 81.0 L 87.0 80.0 L 86.0 79.33333333333333 L 85.0 79.0 L 84.0 79.33333333333333 L 83.0 79.66666666666667 L 82.0 80.0 L 81.0 80.33333333333333 L 80.0 80.66666666666667 L 79.0 81.0 L 78.0 81.33333333333333 L 77.0 82.0 L 76.33333333333333 83.0 L 76.33333333333333 84.0 L 77.0 85.0 L 78.0 86.0 L 78.66666666666667 87.0 L 79.0 88.0 L 79.0 89.0 L 79.0 90.0 L 79.0 91.0 L 78.66666666666667 92.0 L 78.33333333333333 93.0 L 78.0 94.0 L 78.0 95.0 L 78.0 96.0 L 78.33333333333333 96.66666666666667 L 79.0 97.0 L 80.0 97.0 L 81.0 97.0 L 82.0 97.0 L 83.0 97.33333333333333 L 84.0 97.66666666666667 L 85.0 98.33333333333333 L 86.0 98.66666666666667 L 87.0 99.33333333333333 L 88.0 99.66666666666667 L 89.0 100.33333333333333 L 90.0 101.0 L 91.0 101.66666666666667 L 91.66666666666667 101.66666666666667 L 92.0 101.0 L 92.33333333333333 100.0 L 92.66666666666667 99.0 L 93.33333333333333 98.0 L 94.0 97.0 L 94.5 96.5 Z" stroke="none" fill="rgb(0,0,0)" />
<path d="M 96.5 86.5 L 97.0 86.0 L 97.66666666666667 85.0 L 98.33333333333333 84.0 L 98.66666666666667 83.0 L 99.0 82.0 L 99.0 81.0 L 98.66666666666667 80.33333333333333 L 98.0 80.0 L 97.0 80.33333333333333 L 96.0 81.0 L 95.0 82.0 L 94.0 82.66666666666667 L 93.0 83.33333333333333 L 92.0 84.0 L 91.0 85.0 L 90.33333333333333 86.0 L 90.33333333333333 86.66666666666667 L 91.0 87.0 L 92.0 87.0 L 93.0 87.0 L 94.0 87.0 L 95.0 87.0 L 95.5 87.0 Z" stroke="none" fill="rgb(254,159,17)" />
<path d="M 100.5 91.5 L 101.0 91.33333333333333 L 102.0 91.0 L 102.66666666666667 90.66666666666667 L 103.33333333333333 90.0 L 104.0 89.0 L 105.0 88.0 L 105.66666666666667 87.0 L 106.0 86.0 L 105.66666666666667 85.0 L 105.0 84.0 L 104.0 83.0 L 103.0 82.33333333333333 L 102.0 81.66666666666667 L 101.0 81.33333333333333 L 100.0 81.0 L 99.33333333333333 81.33333333333333 L 98.66666666666667 82.0 L 98.33333333333333 83.0 L 97.66666666666667 84.0 L 97.0 85.0 L 96.0 86.0 L 95.0 86.66666666666667 L 94.0 87.0 L 93.0 87.0 L 92.0 87.0 L 91.33333333333333 87.33333333333333 L 91.0 88.0 L 91.0 89.0 L 91.0 90.0 L 91.33333333333333 91.0 L 91.66666666666667 92.0 L 92.33333333333333 93.0 L 93.0 94.0 L 94.0 94.66666666666667 L 95.0 95.0 L 96.0 95.0 L 97.0 94.66666666666667 L 98.0 94.0 L 99.0 93.0 L 99.5 92.5 Z" stroke="none" fill="rgb(253,148,1)" />
<path d="M 24.5 91.5 L 25.0 91.66666666666667 L 26.0 92.33333333333333 L 27.0 92.66666666666667 L 28.0 93.0 L 29.0 93.33333333333333 L 30.0 93.66666666666667 L 31.0 94.0 L 32.0 94.0 L 33.0 94.0 L 34.0 94.0 L 35.0 94.0 L 35.666666666666664 93.66666666666667 L 35.666666666666664 93.0 L 35.0 92.33333333333333 L 34.0 91.66666666666667 L 33.0 91.33333333333333 L 32.0 90.66666666666667 L 31.0 90.0 L 30.0 89.0 L 29.0 88.0 L 28.0 87.0 L 27.0 86.0 L 26.0 85.0 L 25.0 84.33333333333333 L 24.0 84.33333333333333 L 23.0 84.66666666666667 L 22.0 85.33333333333333 L 21.333333333333332 86.0 L 21.0 87.0 L 21.0 88.0 L 21.0 89.0 L 21.333333333333332 90.0 L 22.0 90.66666666666667 L 23.0 91.0 L 23.5 91.0 Z" stroke="none" fill="rgb(64,64,66)" />
<path d="M 75.5 92.0 L 76.0 91.66666666666667 L 77.0 91.33333333333333 L 78.0 91.0 L 78.66666666666667 90.66666666666667 L 79.0 90.0 L 79.0 89.0 L 79.0 88.0 L 79.0 87.0 L 78.66666666666667 86.0 L 78.0 85.0 L 77.0 84.33333333333333 L 76.0 84.0 L 75.0 84.33333333333333 L 74.0 85.0 L 73.0 86.0 L 72.0 87.0 L 71.0 88.0 L 70.0 89.0 L 69.0 90.0 L 68.0 90.66666666666667 L 67.0 91.33333333333333 L 66.33333333333333 92.0 L 66.0 93.0 L 66.33333333333333 93.66666666666667 L 67.0 94.0 L 68.0 94.0 L 69.0 94.0 L 70.0 94.0 L 71.0 94.0 L 72.0 93.66666666666667 L 73.0 93.33333333333333 L 74.0 92.66666666666667 L 74.5 92.5 Z" stroke="none" fill="rgb(64,64,66)" />
<path d="M 104.5 96.0 L 105.0 96.0 L 106.0 95.66666666666667 L 107.0 95.0 L 108.0 94.0 L 109.0 93.0 L 110.0 92.33333333333333 L 111.0 91.66666666666667 L 112.0 91.33333333333333 L 112.66666666666667 90.66666666666667 L 113.0 90.0 L 113.0 89.0 L 113.0 88.0 L 113.0 87.0 L 112.66666666666667 86.0 L 112.0 85.33333333333333 L 111.0 85.0 L 110.0 85.0 L 109.0 85.0 L 108.0 85.33333333333333 L 107.0 85.66666666666667 L 106.0 86.33333333333333 L 105.0 87.0 L 104.0 88.0 L 103.33333333333333 89.0 L 103.0 90.0 L 103.0 91.0 L 103.0 92.0 L 103.0 93.0 L 103.0 94.0 L 103.33333333333333 95.0 L 103.5 95.5 Z" stroke="none" fill="rgb(96,69,61)" />
<path d="M 110.5 103.5 L 111.0 104.0 L 112.0 104.66666666666667 L 113.0 105.0 L 114.0 105.33333333333333 L 114.66666666666667 106.0 L 115.33333333333333 107.0 L 116.0 108.0 L 117.0 109.0 L 118.0 109.66666666666667 L 119.0 109.66666666666667 L 120.0 109.0 L 121.0 108.33333333333333 L 122.0 107.66666666666667 L 122.66666666666667 107.0 L 123.0 106.0 L 123.0 105.0 L 123.0 104.0 L 122.66666666666667 103.0 L 122.0 102.33333333333333 L 121.0 102.0 L 120.0 102.0 L 119.0 101.66666666666667 L 118.33333333333333 101.0 L 117.66666666666667 100.0 L 117.0 99.0 L 116.0 98.0 L 115.0 97.0 L 114.33333333333333 96.0 L 114.0 95.0 L 114.33333333333333 94.0 L 114.66666666666667 93.0 L 115.0 92.0 L 114.66666666666667 91.0 L 114.0 90.33333333333333 L 113.0 90.33333333333333 L 112.0 90.66666666666667 L 111.0 91.33333333333333 L 110.33333333333333 92.0 L 109.66666666666667 93.0 L 109.0 94.0 L 108.0 95.0 L 107.33333333333333 96.0 L 107.33333333333333 97.0 L 108.0 98.0 L 108.66666666666667 99.0 L 109.33333333333333 100.0 L 109.66666666666667 101.0 L 110.0 102.0 L 110.0 102.5 Z" stroke="none" fill="rgb(104,76,68)" />
<path d="M 37.5 107.0 L 38.0 107.0 L 39.0 107.0 L 40.0 107.0 L 41.0 107.0 L 42.0 107.0 L 43.0 107.0 L 44.0 107.0 L 44.666666666666664 106.66666666666667 L 45.0 106.0 L 45.0 105.0 L 44.666666666666664 104.0 L 44.333333333333336 103.0 L 44.0 102.0 L 44.0 101.0 L 44.0 100.0 L 44.0 99.0 L 44.0 98.0 L 44.0 97.0 L 43.666666666666664 96.0 L 43.0 95.33333333333333 L 42.0 95.0 L 41.0 94.66666666666667 L 40.0 94.33333333333333 L 39.0 94.0 L 38.0 94.0 L 37.0 94.0 L 36.0 94.0 L 35.0 94.0 L 34.0 94.0 L 33.0 94.0 L 32.0 94.0 L 31.0 93.66666666666667 L 30.0 93.33333333333333 L 29.0 93.0 L 28.0 92.66666666666667 L 27.0 92.33333333333333 L 26.0 91.66666666666667 L 25.0 91.33333333333333 L 24.0 91.0 L 23.0 91.0 L 22.0 91.0 L 21.333333333333332 91.33333333333333 L 21.0 92.0 L 21.333333333333332 93.0 L 21.666666666666668 94.0 L 22.0 95.0 L 22.333333333333332 96.0 L 23.0 97.0 L 23.666666666666668 98.0 L 24.0 99.0 L 24.333333333333332 100.0 L 24.666666666666668 101.0 L 25.0 102.0 L 25.333333333333332 103.0 L 25.666666666666668 104.0 L 26.0 105.0 L 26.0 106.0 L 26.333333333333332 107.0 L 27.0 107.66666666666667 L 28.0 107.66666666666667 L 29.0 107.33333333333333 L 30.0 107.0 L 31.0 107.0 L 32.0 107.0 L 33.0 107.0 L 34.0 107.0 L 35.0 107.0 L 36.0 107.0 L 36.5 107.0 Z" stroke="none" fill="rgb(116,116,116)" />
<path d="M 75.0 106.5 L 74.66666666666667 106.0 L 74.33333333333333 105.0 L 74.33333333333333 104.0 L 74.66666666666667 103.0 L 75.0 102.0 L 75.33333333333333 101.0 L 75.66666666666667 100.0 L 76.0 99.0 L 76.33333333333333 98.0 L 77.0 97.33333333333333 L 77.66666666666667 96.66666666666667 L 78.0 96.0 L 78.0 95.0 L 78.33333333333333 94.0 L 78.66666666666667 93.0 L 79.0 92.0 L 78.66666666666667 91.33333333333333 L 78.0 91.0 L 77.0 91.0 L 76.0 91.33333333333333 L 75.0 91.66666666666667 L 74.0 92.33333333333333 L 73.0 92.66666666666667 L 72.0 93.33333333333333 L 71.0 93.66666666666667 L 70.0 94.0 L 69.0 94.0 L 68.0 94.0 L 67.0 94.0 L 66.0 94.33333333333333 L 65.0 94.66666666666667 L 64.0 95.0 L 63.0 95.0 L 62.0 95.0 L 61.0 95.0 L 60.0 95.0 L 59.0 95.0 L 58.0 95.0 L 57.0 95.33333333333333 L 56.333333333333336 96.0 L 56.0 97.0 L 56.0 98.0 L 56.0 99.0 L 56.0 100.0 L 56.0 101.0 L 56.0 102.0 L 56.0 103.0 L 55.666666666666664 104.0 L 55.333333333333336 105.0 L 55.333333333333336 106.0 L 56.0 106.66666666666667 L 57.0 107.0 L 58.0 107.0 L 59.0 107.0 L 60.0 107.0 L 61.0 107.0 L 62.0 107.0 L 63.0 107.0 L 64.0 107.0 L 65.0 107.0 L 66.0 107.0 L 67.0 107.0 L 68.0 107.0 L 69.0 107.0 L 70.0 107.0 L 71.0 107.0 L 72.0 107.0 L 73.0 107.0 L 74.0 107.0 L 74.5 107.0 Z" stroke="none" fill="rgb(116,116,116)" />
<path d="M 102.5 102.0 L 102.66666666666667 101.66666666666667 L 103.0 101.0 L 103.0 100.0 L 103.33333333333333 99.0 L 104.0 98.0 L 104.66666666666667 97.0 L 104.66666666666667 96.0 L 104.0 95.0 L 103.33333333333333 94.0 L 103.0 93.0 L 103.0 92.0 L 102.66666666666667 91.33333333333333 L 102.0 91.0 L 101.0 91.0 L 100.0 91.33333333333333 L 99.0 92.0 L 98.0 93.0 L 97.33333333333333 94.0 L 97.0 95.0 L 97.33333333333333 96.0 L 97.66666666666667 97.0 L 98.33333333333333 98.0 L 98.66666666666667 99.0 L 99.33333333333333 100.0 L 100.0 101.0 L 101.0 101.66666666666667 L 101.5 102.0 Z" stroke="none" fill="rgb(104,76,68)" />
<path d="M 110.5 111.5 L 111.0 112.0 L 111.66666666666667 113.0 L 112.33333333333333 114.0 L 113.0 114.66666666666667 L 114.0 115.33333333333333 L 115.0 115.66666666666667 L 116.0 116.0 L 117.0 115.66666666666667 L 118.0 115.33333333333333 L 119.0 114.66666666666667 L 119.66666666666667 114.0 L 120.0 113.0 L 119.66666666666667 112.33333333333333 L 119.0 112.33333333333333 L 118.0 112.66666666666667 L 117.0 113.0 L 116.0 112.66666666666667 L 115.66666666666667 112.0 L 115.66666666666667 111.0 L 115.66666666666667 110.33333333333333 L 115.0 110.0 L 114.0 110.0 L 113.0 109.66666666666667 L 112.66666666666667 109.0 L 113.0 108.0 L 114.0 107.33333333333333 L 114.66666666666667 106.66666666666667 L 115.33333333333333 106.0 L 116.0 105.0 L 116.66666666666667 104.0 L 117.0 103.0 L 116.66666666666667 102.33333333333333 L 116.0 102.33333333333333 L 115.0 103.0 L 114.0 104.0 L 113.0 104.66666666666667 L 112.0 105.33333333333333 L 111.0 105.66666666666667 L 110.0 105.66666666666667 L 109.33333333333333 105.0 L 109.33333333333333 104.0 L 109.66666666666667 103.0 L 110.0 102.0 L 110.0 101.0 L 109.66666666666667 100.33333333333333 L 109.0 100.33333333333333 L 108.0 100.66666666666667 L 107.0 101.0 L 106.0 100.66666666666667 L 105.66666666666667 100.0 L 106.0 99.0 L 106.66666666666667 98.0 L 107.33333333333333 97.0 L 108.0 96.0 L 109.0 95.0 L 109.66666666666667 94.0 L 110.0 93.0 L 109.66666666666667 92.33333333333333 L 109.0 92.33333333333333 L 108.0 93.0 L 107.0 94.0 L 106.0 95.0 L 105.0 96.0 L 104.0 97.0 L 103.33333333333333 98.0 L 103.0 99.0 L 103.0 100.0 L 103.0 101.0 L 103.0 102.0 L 103.33333333333333 103.0 L 104.0 104.0 L 104.66666666666667 105.0 L 105.0 106.0 L 105.0 107.0 L 105.33333333333333 108.0 L 106.0 108.66666666666667 L 107.0 109.0 L 108.0 109.33333333333333 L 109.0 110.0 L 109.5 110.5 Z" stroke="none" fill="rgb(77,52,45)" />
<path d="M 120.5 102.0 L 120.66666666666667 101.66666666666667 L 121.0 101.0 L 121.0 100.0 L 121.0 99.0 L 120.66666666666667 98.0 L 120.33333333333333 97.0 L 119.66666666666667 96.33333333333333 L 119.0 95.66666666666667 L 118.0 95.0 L 117.33333333333333 94.0 L 116.66666666666667 93.0 L 116.0 92.33333333333333 L 115.0 92.33333333333333 L 114.33333333333333 93.0 L 114.0 94.0 L 114.0 95.0 L 114.33333333333333 96.0 L 114.66666666666667 97.0 L 115.33333333333333 98.0 L 116.0 99.0 L 117.0 100.0 L 117.66666666666667 101.0 L 118.0 102.0 L 118.33333333333333 102.66666666666667 L 119.0 102.66666666666667 L 119.5 102.5 Z" stroke="none" fill="rgb(96,69,61)" />
<path d="M 95.5 111.5 L 95.66666666666667 112.0 L 96.33333333333333 113.0 L 96.66666666666667 114.0 L 97.33333333333333 115.0 L 98.0 116.0 L 99.0 117.0 L 100.0 117.66666666666667 L 101.0 118.33333333333333 L 102.0 118.66666666666667 L 103.0 119.0 L 104.0 119.0 L 105.0 119.0 L 106.0 119.0 L 107.0 119.0 L 108.0 119.0 L 109.0 119.0 L 110.0 119.0 L 110.66666666666667 118.66666666666667 L 111.0 118.0 L 111.0 117.0 L 111.0 116.0 L 111.33333333333333 115.0 L 111.66666666666667 114.0 L 112.0 113.0 L 111.66666666666667 112.0 L 111.0 111.0 L 110.0 110.0 L 109.0 109.33333333333333 L 108.0 109.0 L 107.0 108.66666666666667 L 106.0 108.0 L 105.33333333333333 107.0 L 105.0 106.0 L 105.0 105.0 L 104.66666666666667 104.0 L 104.0 103.0 L 103.0 102.33333333333333 L 102.0 101.66666666666667 L 101.0 101.0 L 100.0 100.0 L 99.33333333333333 99.0 L 98.66666666666667 98.0 L 98.33333333333333 97.0 L 97.66666666666667 96.0 L 97.0 95.33333333333333 L 96.0 95.0 L 95.0 95.33333333333333 L 94.0 96.0 L 93.33333333333333 97.0 L 92.66666666666667 98.0 L 92.33333333333333 99.0 L 92.0 100.0 L 92.0 101.0 L 92.0 102.0 L 92.0 103.0 L 92.33333333333333 104.0 L 92.66666666666667 105.0 L 93.0 106.0 L 93.0 107.0 L 93.33333333333333 108.0 L 93.66666666666667 109.0 L 94.33333333333333 110.0 L 94.5 110.5 Z" stroke="none" fill="rgb(112,83,74)" />
<path d="M 52.5 105.0 L 53.0 105.0 L 54.0 105.0 L 55.0 105.0 L 55.666666666666664 104.66666666666667 L 56.0 104.0 L 56.0 103.0 L 56.0 102.0 L 56.0 101.0 L 56.0 100.0 L 56.0 99.0 L 56.0 98.0 L 56.0 97.0 L 55.666666666666664 96.33333333333333 L 55.0 96.0 L 54.0 96.0 L 53.0 96.0 L 52.0 96.0 L 51.0 96.0 L 50.0 96.0 L 49.0 96.0 L 48.0 96.0 L 47.0 96.0 L 46.0 96.0 L 45.0 96.0 L 44.333333333333336 96.33333333333333 L 44.0 97.0 L 44.0 98.0 L 44.0 99.0 L 44.0 100.0 L 44.0 101.0 L 44.0 102.0 L 44.0 103.0 L 44.333333333333336 104.0 L 45.0 104.66666666666667 L 46.0 105.0 L 47.0 105.0 L 48.0 105.0 L 49.0 105.0 L 50.0 105.0 L 51.0 105.0 L 51.5 105.0 Z" stroke="none" fill="rgb(55,42,36)" />
<path d="M 115.0 96.5 L 114.66666666666667 96.33333333333333 L 114.33333333333333 96.33333333333333 L 114.33333333333333 96.66666666666667 L 114.5 97.0 Z" stroke="none" fill="rgb(77,52,45)" />
<path d="M 24.5 107.0 L 25.0 107.0 L 25.666666666666668 106.66666666666667 L 26.0 106.0 L 26.0 105.0 L 26.0 104.0 L 25.666666666666668 103.0 L 25.333333333333332 102.0 L 25.0 101.0 L 24.666666666666668 100.0 L 24.333333333333332 99.0 L 24.0 98.0 L 23.666666666666668 97.33333333333333 L 23.0 97.0 L 22.0 97.0 L 21.0 97.0 L 20.0 97.0 L 19.0 97.0 L 18.0 97.0 L 17.0 97.0 L 16.0 97.0 L 15.0 97.33333333333333 L 14.0 97.66666666666667 L 13.0 98.0 L 12.0 98.33333333333333 L 11.0 98.66666666666667 L 10.0 99.33333333333333 L 9.0 99.66666666666667 L 8.0 100.33333333333333 L 7.0 101.0 L 6.0 102.0 L 5.0 103.0 L 4.333333333333333 104.0 L 4.0 105.0 L 4.0 106.0 L 4.333333333333333 107.0 L 5.0 108.0 L 6.0 109.0 L 6.666666666666667 110.0 L 7.333333333333333 111.0 L 8.0 111.66666666666667 L 9.0 112.0 L 10.0 112.0 L 11.0 112.0 L 12.0 112.0 L 13.0 112.0 L 14.0 111.66666666666667 L 15.0 111.33333333333333 L 16.0 111.0 L 16.666666666666668 110.66666666666667 L 17.333333333333332 110.0 L 18.0 109.33333333333333 L 19.0 108.66666666666667 L 20.0 108.33333333333333 L 21.0 108.0 L 22.0 107.66666666666667 L 23.0 107.33333333333333 L 23.5 107.0 Z" stroke="none" fill="rgb(128,128,128)" />
<path d="M 78.5 108.5 L 79.0 108.66666666666667 L 80.0 109.33333333333333 L 81.0 110.0 L 82.0 110.66666666666667 L 83.0 111.33333333333333 L 84.0 111.66666666666667 L 85.0 112.0 L 86.0 112.0 L 87.0 112.0 L 88.0 112.0 L 89.0 112.0 L 90.0 111.66666666666667 L 90.66666666666667 111.0 L 91.33333333333333 110.0 L 92.0 109.0 L 92.66666666666667 108.0 L 93.0 107.0 L 93.0 106.0 L 93.0 105.0 L 92.66666666666667 104.0 L 92.33333333333333 103.0 L 91.66666666666667 102.0 L 91.0 101.0 L 90.0 100.33333333333333 L 89.0 99.66666666666667 L 88.0 99.33333333333333 L 87.0 98.66666666666667 L 86.0 98.33333333333333 L 85.0 97.66666666666667 L 84.0 97.33333333333333 L 83.0 97.0 L 82.0 97.0 L 81.0 97.0 L 80.0 97.0 L 79.0 97.0 L 78.0 97.0 L 77.0 97.0 L 76.33333333333333 97.33333333333333 L 76.0 98.0 L 75.66666666666667 99.0 L 75.33333333333333 100.0 L 75.0 101.0 L 74.66666666666667 102.0 L 74.33333333333333 103.0 L 74.0 104.0 L 74.0 105.0 L 74.33333333333333 106.0 L 75.0 106.66666666666667 L 76.0 107.33333333333333 L 77.0 107.66666666666667 L 77.5 108.0 Z" stroke="none" fill="rgb(128,128,128)" />
<path d="M 107.5 101.0 L 108.0 101.0 L 108.66666666666667 100.66666666666667 L 109.0 100.0 L 109.0 99.0 L 108.66666666666667 98.0 L 108.0 97.33333333333333 L 107.0 97.33333333333333 L 106.0 98.0 L 105.33333333333333 99.0 L 105.0 100.0 L 105.33333333333333 100.66666666666667 L 106.0 101.0 L 106.5 101.0 Z" stroke="none" fill="rgb(112,83,74)" />
<path d="M 114.0 97.5 L 113.66666666666667 97.33333333333333 L 113.33333333333333 97.33333333333333 L 113.33333333333333 97.66666666666667 L 113.5 98.0 Z" stroke="none" fill="rgb(77,52,45)" />
<path d="M 110.5 106.0 L 111.0 106.0 L 111.66666666666667 105.66666666666667 L 112.0 105.0 L 111.66666666666667 104.0 L 111.0 103.33333333333333 L 110.0 103.0 L 109.33333333333333 103.33333333333333 L 109.0 104.0 L 109.0 105.0 L 109.33333333333333 105.66666666666667 L 109.5 106.0 Z" stroke="none" fill="rgb(112,83,74)" />
<path d="M 52.5 124.0 L 53.0 124.0 L 53.666666666666664 123.66666666666667 L 54.0 123.0 L 54.0 122.0 L 54.0 121.0 L 54.0 120.0 L 54.333333333333336 119.0 L 54.666666666666664 118.0 L 55.0 117.0 L 55.0 116.0 L 55.0 115.0 L 55.0 114.0 L 55.0 113.0 L 55.0 112.0 L 55.0 111.0 L 55.0 110.0 L 55.333333333333336 109.0 L 55.666666666666664 108.0 L 56.0 107.0 L 55.666666666666664 106.0 L 55.0 105.33333333333333 L 54.0 105.0 L 53.0 105.0 L 52.0 105.0 L 51.0 105.0 L 50.0 105.0 L 49.0 105.0 L 48.0 105.0 L 47.0 105.0 L 46.0 105.0 L 45.333333333333336 105.33333333333333 L 44.666666666666664 106.0 L 44.333333333333336 107.0 L 44.333333333333336 108.0 L 44.666666666666664 109.0 L 45.0 110.0 L 45.0 111.0 L 45.0 112.0 L 45.0 113.0 L 45.0 114.0 L 45.0 115.0 L 45.0 116.0 L 45.333333333333336 117.0 L 45.666666666666664 118.0 L 46.0 119.0 L 46.0 120.0 L 46.0 121.0 L 46.0 122.0 L 46.0 123.0 L 46.333333333333336 123.66666666666667 L 47.0 124.0 L 48.0 124.0 L 49.0 124.0 L 50.0 124.0 L 51.0 124.0 L 51.5 124.0 Z" stroke="none" fill="rgb(190,189,189)" />
<path d="M 17.5 111.0 L 18.0 111.0 L 19.0 111.0 L 20.0 111.0 L 21.0 111.0 L 22.0 111.0 L 23.0 111.0 L 24.0 111.0 L 25.0 111.0 L 26.0 111.0 L 27.0 111.0 L 27.666666666666668 110.66666666666667 L 28.0 110.0 L 28.0 109.0 L 27.666666666666668 108.0 L 27.0 107.33333333333333 L 26.0 107.0 L 25.0 107.0 L 24.0 107.0 L 23.0 107.0 L 22.0 107.33333333333333 L 21.0 107.66666666666667 L 20.0 108.0 L 19.0 108.33333333333333 L 18.0 108.66666666666667 L 17.333333333333332 109.33333333333333 L 17.0 110.0 L 17.0 110.5 Z" stroke="none" fill="rgb(95,95,95)" />
<path d="M 40.5 111.0 L 41.0 111.0 L 42.0 111.0 L 43.0 111.0 L 44.0 111.0 L 44.666666666666664 110.66666666666667 L 45.0 110.0 L 45.0 109.0 L 44.666666666666664 108.0 L 44.0 107.33333333333333 L 43.0 107.0 L 42.0 107.0 L 41.0 107.0 L 40.0 107.0 L 39.0 107.0 L 38.0 107.0 L 37.0 107.0 L 36.0 107.0 L 35.0 107.0 L 34.0 107.0 L 33.0 107.0 L 32.0 107.0 L 31.0 107.0 L 30.0 107.0 L 29.0 107.0 L 28.333333333333332 107.33333333333333 L 28.0 108.0 L 28.0 109.0 L 28.0 110.0 L 28.333333333333332 110.66666666666667 L 29.0 111.0 L 30.0 111.0 L 31.0 111.0 L 32.0 111.0 L 33.0 111.0 L 34.0 111.0 L 35.0 111.0 L 36.0 111.0 L 37.0 111.0 L 38.0 111.0 L 39.0 111.0 L 39.5 111.0 Z" stroke="none" fill="rgb(110,109,109)" />
<path d="M 66.5 111.0 L 67.0 111.0 L 68.0 111.0 L 69.0 111.0 L 70.0 111.33333333333333 L 71.0 111.66666666666667 L 72.0 111.66666666666667 L 72.66666666666667 111.0 L 73.0 110.0 L 73.0 109.0 L 73.0 108.0 L 72.66666666666667 107.33333333333333 L 72.0 107.0 L 71.0 107.0 L 70.0 107.0 L 69.0 107.0 L 68.0 107.0 L 67.0 107.0 L 66.0 107.0 L 65.0 107.0 L 64.0 107.0 L 63.0 107.0 L 62.0 107.0 L 61.0 107.0 L 60.0 107.0 L 59.0 107.0 L 58.0 107.0 L 57.0 107.0 L 56.0 107.33333333333333 L 55.333333333333336 108.0 L 55.0 109.0 L 55.0 110.0 L 55.333333333333336 110.66666666666667 L 56.0 111.0 L 57.0 111.0 L 58.0 111.0 L 59.0 111.0 L 60.0 111.0 L 61.0 111.0 L 62.0 111.0 L 63.0 111.0 L 64.0 111.0 L 65.0 111.0 L 65.5 111.0 Z" stroke="none" fill="rgb(110,109,109)" />
<path d="M 77.5 111.0 L 78.0 111.0 L 79.0 111.0 L 80.0 111.0 L 81.0 111.0 L 81.66666666666667 110.66666666666667 L 81.66666666666667 110.0 L 81.0 109.33333333333333 L 80.0 108.66666666666667 L 79.0 108.33333333333333 L 78.0 107.66666666666667 L 77.0 107.33333333333333 L 76.0 107.0 L 75.0 107.0 L 74.0 107.0 L 73.33333333333333 107.33333333333333 L 73.0 108.0 L 73.0 109.0 L 73.0 110.0 L 73.33333333333333 110.66666666666667 L 74.0 111.0 L 75.0 111.0 L 76.0 111.0 L 76.5 111.0 Z" stroke="none" fill="rgb(95,95,95)" />
<path d="M 115.5 110.0 L 116.0 109.66666666666667 L 116.66666666666667 109.0 L 116.66666666666667 108.0 L 116.0 107.33333333333333 L 115.0 107.0 L 114.0 107.0 L 113.0 107.33333333333333 L 112.33333333333333 108.0 L 112.0 109.0 L 112.33333333333333 109.66666666666667 L 113.0 110.0 L 114.0 110.0 L 114.5 110.0 Z" stroke="none" fill="rgb(112,83,74)" />
<path d="M 120.5 113.0 L 121.0 112.66666666666667 L 122.0 112.0 L 123.0 111.0 L 123.66666666666667 110.0 L 124.0 109.0 L 123.66666666666667 108.0 L 123.0 107.33333333333333 L 122.0 107.33333333333333 L 121.0 107.66666666666667 L 120.0 108.33333333333333 L 119.0 108.66666666666667 L 118.0 109.0 L 117.0 109.33333333333333 L 116.0 110.0 L 115.33333333333333 111.0 L 115.0 112.0 L 115.33333333333333 112.66666666666667 L 116.0 113.0 L 117.0 113.0 L 118.0 113.0 L 119.0 113.0 L 119.5 113.0 Z" stroke="none" fill="rgb(112,83,74)" />
<path d="M 5.5 111.0 L 6.0 111.0 L 6.666666666666667 110.66666666666667 L 7.0 110.0 L 6.666666666666667 109.0 L 6.0 108.33333333333333 L 5.0 108.0 L 4.333333333333333 108.33333333333333 L 4.0 109.0 L 4.0 110.0 L 4.333333333333333 110.66666666666667 L 4.5 111.0 Z" stroke="none" fill="rgb(95,95,95)" />
<path d="M 95.0 110.5 L 94.66666666666667 110.0 L 94.33333333333333 109.0 L 93.66666666666667 108.33333333333333 L 93.0 108.0 L 92.0 108.33333333333333 L 91.33333333333333 109.0 L 91.0 110.0 L 91.33333333333333 110.66666666666667 L 92.0 111.0 L 93.0 111.0 L 94.0 111.0 L 94.5 111.0 Z" stroke="none" fill="rgb(95,95,95)" />
<path d="M 117.0 109.5 L 116.66666666666667 109.33333333333333 L 116.33333333333333 109.33333333333333 L 116.33333333333333 109.66666666666667 L 116.5 110.0 Z" stroke="none" fill="rgb(77,52,45)" />
<path d="M 24.5 115.0 L 25.0 115.0 L 26.0 115.0 L 27.0 115.0 L 28.0 115.0 L 28.666666666666668 114.66666666666667 L 29.0 114.0 L 29.0 113.0 L 28.666666666666668 112.0 L 28.0 111.33333333333333 L 27.0 111.0 L 26.0 111.0 L 25.0 111.0 L 24.0 111.0 L 23.0 111.0 L 22.0 111.0 L 21.0 111.0 L 20.0 111.0 L 19.0 111.0 L 18.0 111.0 L 17.0 111.0 L 16.0 111.0 L 15.0 111.0 L 14.0 111.33333333333333 L 13.0 111.66666666666667 L 12.0 112.0 L 11.0 112.0 L 10.0 112.0 L 9.0 111.66666666666667 L 8.0 111.33333333333333 L 7.0 111.0 L 6.0 111.0 L 5.0 111.0 L 4.333333333333333 111.33333333333333 L 4.0 112.0 L 4.0 113.0 L 4.0 114.0 L 4.333333333333333 114.66666666666667 L 5.0 115.0 L 6.0 115.0 L 7.0 115.0 L 8.0 115.0 L 9.0 115.0 L 10.0 115.0 L 11.0 115.0 L 12.0 115.0 L 13.0 115.0 L 14.0 115.0 L 15.0 115.0 L 16.0 115.0 L 17.0 115.0 L 18.0 115.0 L 19.0 115.0 L 20.0 115.0 L 21.0 115.0 L 22.0 115.0 L 23.0 115.0 L 23.5 115.0 Z" stroke="none" fill="rgb(88,88,88)" />
<path d="M 43.5 116.0 L 44.0 116.0 L 44.666666666666664 115.66666666666667 L 45.0 115.0 L 45.0 114.0 L 45.0 113.0 L 45.0 112.0 L 44.666666666666664 111.33333333333333 L 44.0 111.0 L 43.0 111.0 L 42.0 111.0 L 41.0 111.0 L 40.0 111.0 L 39.0 111.0 L 38.0 111.0 L 37.0 111.0 L 36.0 111.0 L 35.0 111.0 L 34.0 111.0 L 33.0 111.0 L 32.0 111.0 L 31.0 111.0 L 30.0 111.0 L 29.0 111.0 L 28.333333333333332 111.33333333333333 L 28.333333333333332 112.0 L 28.666666666666668 113.0 L 29.0 114.0 L 29.0 115.0 L 29.333333333333332 116.0 L 30.0 116.66666666666667 L 31.0 116.66666666666667 L 32.0 116.33333333333333 L 33.0 116.0 L 34.0 116.0 L 35.0 116.0 L 36.0 116.0 L 37.0 116.0 L 38.0 116.0 L 39.0 116.0 L 40.0 116.0 L 41.0 116.0 L 42.0 116.0 L 42.5 116.0 Z" stroke="none" fill="rgb(102,102,102)" />
<path d="M 61.5 116.0 L 62.0 116.0 L 63.0 116.0 L 64.0 116.0 L 65.0 116.0 L 66.0 116.0 L 67.0 116.0 L 68.0 116.33333333333333 L 69.0 116.66666666666667 L 70.0 116.66666666666667 L 70.66666666666667 116.0 L 71.0 115.0 L 71.0 114.0 L 71.0 113.0 L 71.0 112.0 L 70.66666666666667 111.33333333333333 L 70.0 111.0 L 69.0 111.0 L 68.0 111.0 L 67.0 111.0 L 66.0 111.0 L 65.0 111.0 L 64.0 111.0 L 63.0 111.0 L 62.0 111.0 L 61.0 111.0 L 60.0 111.0 L 59.0 111.0 L 58.0 111.0 L 57.0 111.0 L 56.0 111.0 L 55.333333333333336 111.33333333333333 L 55.0 112.0 L 55.0 113.0 L 55.0 114.0 L 55.0 115.0 L 55.333333333333336 115.66666666666667 L 56.0 116.0 L 57.0 116.0 L 58.0 116.0 L 59.0 116.0 L 60.0 116.0 L 60.5 116.0 Z" stroke="none" fill="rgb(102,102,102)" />
<path d="M 78.5 115.0 L 79.0 115.0 L 80.0 115.0 L 81.0 115.0 L 82.0 115.0 L 83.0 115.0 L 84.0 115.0 L 85.0 115.0 L 86.0 115.0 L 87.0 115.0 L 88.0 115.0 L 89.0 115.0 L 90.0 115.0 L 91.0 115.0 L 92.0 115.0 L 93.0 115.0 L 94.0 115.0 L 95.0 115.0 L 96.0 115.0 L 96.66666666666667 114.66666666666667 L 97.0 114.0 L 96.66666666666667 113.0 L 96.33333333333333 112.0 L 95.66666666666667 111.33333333333333 L 95.0 111.0 L 94.0 111.0 L 93.0 111.0 L 92.0 111.0 L 91.0 111.0 L 90.0 111.33333333333333 L 89.0 111.66666666666667 L 88.0 112.0 L 87.0 112.0 L 86.0 112.0 L 85.0 111.66666666666667 L 84.0 111.33333333333333 L 83.0 111.0 L 82.0 111.0 L 81.0 111.0 L 80.0 111.0 L 79.0 111.0 L 78.0 111.0 L 77.0 111.0 L 76.0 111.0 L 75.0 111.0 L 74.0 111.0 L 73.0 111.0 L 72.0 111.33333333333333 L 71.33333333333333 112.0 L 71.0 113.0 L 71.0 114.0 L 71.33333333333333 114.66666666666667 L 72.0 115.0 L 73.0 115.0 L 74.0 115.0 L 75.0 115.0 L 76.0 115.0 L 77.0 115.0 L 77.5 115.0 Z" stroke="none" fill="rgb(88,88,88)" />
<path d="M 113.5 119.0 L 114.0 119.0 L 115.0 118.66666666666667 L 115.66666666666667 118.0 L 116.0 117.0 L 115.66666666666667 116.0 L 115.0 115.33333333333333 L 114.0 114.66666666666667 L 113.0 114.33333333333333 L 112.0 114.0 L 111.33333333333333 114.33333333333333 L 111.0 115.0 L 111.0 116.0 L 111.0 117.0 L 111.33333333333333 117.66666666666667 L 112.0 118.33333333333333 L 112.5 118.5 Z" stroke="none" fill="rgb(104,76,68)" />
<path d="M 23.5 119.0 L 24.0 119.0 L 25.0 119.0 L 26.0 119.0 L 27.0 119.0 L 28.0 119.0 L 29.0 119.0 L 30.0 119.0 L 30.666666666666668 118.66666666666667 L 31.0 118.0 L 30.666666666666668 117.0 L 30.0 116.0 L 29.0 115.33333333333333 L 28.0 115.0 L 27.0 115.0 L 26.0 115.0 L 25.0 115.0 L 24.0 115.0 L 23.0 115.0 L 22.0 115.0 L 21.0 115.0 L 20.0 115.0 L 19.0 115.0 L 18.0 115.0 L 17.0 115.0 L 16.0 115.0 L 15.0 115.0 L 14.0 115.0 L 13.0 115.0 L 12.0 115.0 L 11.0 115.0 L 10.0 115.0 L 9.0 115.0 L 8.0 115.0 L 7.0 115.0 L 6.0 115.0 L 5.0 115.0 L 4.333333333333333 115.33333333333333 L 4.0 116.0 L 4.0 117.0 L 4.0 118.0 L 4.333333333333333 118.66666666666667 L 5.0 119.0 L 6.0 119.0 L 7.0 119.0 L 8.0 119.0 L 9.0 119.0 L 10.0 119.0 L 11.0 119.0 L 12.0 119.0 L 13.0 119.0 L 14.0 119.0 L 15.0 119.0 L 16.0 119.0 L 17.0 119.0 L 18.0 119.0 L 19.0 119.0 L 20.0 119.0 L 21.0 119.0 L 22.0 119.0 L 22.5 119.0 Z" stroke="none" fill="rgb(81,81,81)" />
<path d="M 78.5 119.0 L 79.0 119.0 L 80.0 119.0 L 81.0 119.0 L 82.0 119.0 L 83.0 119.0 L 84.0 119.0 L 85.0 119.0 L 86.0 119.0 L 87.0 119.0 L 88.0 119.0 L 89.0 119.0 L 90.0 119.0 L 91.0 119.0 L 92.0 119.0 L 93.0 119.0 L 94.0 119.0 L 95.0 119.33333333333333 L 96.0 119.66666666666667 L 97.0 119.66666666666667 L 98.0 119.33333333333333 L 98.66666666666667 118.66666666666667 L 99.0 118.0 L 99.0 117.0 L 98.66666666666667 116.0 L 98.0 115.33333333333333 L 97.0 115.0 L 96.0 115.0 L 95.0 115.0 L 94.0 115.0 L 93.0 115.0 L 92.0 115.0 L 91.0 115.0 L 90.0 115.0 L 89.0 115.0 L 88.0 115.0 L 87.0 115.0 L 86.0 115.0 L 85.0 115.0 L 84.0 115.0 L 83.0 115.0 L 82.0 115.0 L 81.0 115.0 L 80.0 115.0 L 79.0 115.0 L 78.0 115.0 L 77.0 115.0 L 76.0 115.0 L 75.0 115.0 L 74.0 115.0 L 73.0 115.0 L 72.0 115.0 L 71.0 115.33333333333333 L 70.0 116.0 L 69.33333333333333 117.0 L 69.0 118.0 L 69.33333333333333 118.66666666666667 L 70.0 119.0 L 71.0 119.0 L 72.0 119.0 L 73.0 119.0 L 74.0 119.0 L 75.0 119.0 L 76.0 119.0 L 77.0 119.0 L 77.5 119.0 Z" stroke="none" fill="rgb(81,81,81)" />
<path d="M 43.5 118.0 L 44.0 118.0 L 45.0 118.0 L 45.666666666666664 117.66666666666667 L 45.666666666666664 117.0 L 45.0 116.33333333333333 L 44.0 116.0 L 43.0 116.0 L 42.0 116.0 L 41.0 116.0 L 40.0 116.0 L 39.0 116.0 L 38.0 116.0 L 37.0 116.0 L 36.0 116.0 L 35.0 116.0 L 34.0 116.0 L 33.0 116.0 L 32.0 116.0 L 31.333333333333332 116.33333333333333 L 31.0 117.0 L 31.333333333333332 117.66666666666667 L 32.0 118.0 L 33.0 118.0 L 34.0 118.0 L 35.0 118.0 L 36.0 118.0 L 37.0 118.0 L 38.0 118.0 L 39.0 118.0 L 40.0 118.0 L 41.0 118.0 L 42.0 118.0 L 42.5 118.0 Z" stroke="none" fill="rgb(95,95,95)" />
<path d="M 69.0 117.5 L 69.0 117.0 L 68.66666666666667 116.33333333333333 L 68.0 116.0 L 67.0 116.0 L 66.0 116.0 L 65.0 116.0 L 64.0 116.0 L 63.0 116.0 L 62.0 116.0 L 61.0 116.0 L 60.0 116.0 L 59.0 116.0 L 58.0 116.0 L 57.0 116.0 L 56.0 116.0 L 55.333333333333336 116.33333333333333 L 55.0 117.0 L 55.333333333333336 117.66666666666667 L 56.0 118.0 L 57.0 118.0 L 58.0 118.0 L 59.0 118.0 L 60.0 118.0 L 61.0 118.0 L 62.0 118.0 L 63.0 118.0 L 64.0 118.0 L 65.0 118.0 L 66.0 118.0 L 67.0 118.0 L 68.0 118.0 L 68.5 118.0 Z" stroke="none" fill="rgb(95,95,95)" />
<path d="M 101.5 121.5 L 102.0 121.66666666666667 L 103.0 122.0 L 104.0 122.0 L 105.0 122.0 L 106.0 122.0 L 107.0 122.0 L 108.0 122.0 L 109.0 122.0 L 110.0 122.0 L 111.0 121.66666666666667 L 112.0 121.0 L 112.66666666666667 120.0 L 113.0 119.0 L 112.66666666666667 118.33333333333333 L 112.0 118.0 L 111.0 118.33333333333333 L 110.0 118.66666666666667 L 109.0 119.0 L 108.0 119.0 L 107.0 119.0 L 106.0 119.0 L 105.0 119.0 L 104.0 119.0 L 103.0 118.66666666666667 L 102.0 118.33333333333333 L 101.0 117.66666666666667 L 100.0 117.33333333333333 L 99.33333333333333 117.33333333333333 L 99.0 118.0 L 99.0 119.0 L 99.33333333333333 120.0 L 100.0 120.66666666666667 L 100.5 121.0 Z" stroke="none" fill="rgb(64,64,66)" />
<path d="M 33.5 121.0 L 34.0 121.0 L 35.0 121.0 L 36.0 121.0 L 37.0 121.0 L 38.0 121.0 L 39.0 121.0 L 40.0 121.0 L 41.0 121.0 L 42.0 121.0 L 43.0 121.0 L 44.0 121.0 L 45.0 121.0 L 45.666666666666664 120.66666666666667 L 46.0 120.0 L 46.0 119.0 L 45.666666666666664 118.33333333333333 L 45.0 118.0 L 44.0 118.0 L 43.0 118.0 L 42.0 118.0 L 41.0 118.0 L 40.0 118.0 L 39.0 118.0 L 38.0 118.0 L 37.0 118.0 L 36.0 118.0 L 35.0 118.0 L 34.0 118.0 L 33.0 118.0 L 32.0 118.0 L 31.333333333333332 118.33333333333333 L 31.0 119.0 L 31.333333333333332 120.0 L 32.0 120.66666666666667 L 32.5 121.0 Z" stroke="none" fill="rgb(88,88,88)" />
<path d="M 62.5 121.0 L 63.0 121.0 L 64.0 121.0 L 65.0 121.0 L 66.0 121.0 L 67.0 121.0 L 68.0 120.66666666666667 L 68.66666666666667 120.0 L 69.0 119.0 L 68.66666666666667 118.33333333333333 L 68.0 118.0 L 67.0 118.0 L 66.0 118.0 L 65.0 118.0 L 64.0 118.0 L 63.0 118.0 L 62.0 118.0 L 61.0 118.0 L 60.0 118.0 L 59.0 118.0 L 58.0 118.0 L 57.0 118.0 L 56.0 118.0 L 55.0 118.0 L 54.333333333333336 118.33333333333333 L 54.0 119.0 L 54.0 120.0 L 54.333333333333336 120.66666666666667 L 55.0 121.0 L 56.0 121.0 L 57.0 121.0 L 58.0 121.0 L 59.0 121.0 L 60.0 121.0 L 61.0 121.0 L 61.5 121.0 Z" stroke="none" fill="rgb(88,88,88)" />
<path d="M 111.5 124.0 L 112.0 124.0 L 113.0 124.0 L 114.0 124.0 L 115.0 124.0 L 116.0 124.0 L 116.66666666666667 123.66666666666667 L 117.0 123.0 L 117.0 122.0 L 117.0 121.0 L 117.0 120.0 L 116.66666666666667 119.0 L 116.0 118.33333333333333 L 115.0 118.33333333333333 L 114.0 118.66666666666667 L 113.0 119.33333333333333 L 112.0 120.0 L 111.0 121.0 L 110.0 121.66666666666667 L 109.0 122.0 L 108.0 122.0 L 107.0 122.0 L 106.0 122.0 L 105.0 122.0 L 104.0 122.0 L 103.0 121.66666666666667 L 102.0 121.33333333333333 L 101.0 120.66666666666667 L 100.0 120.0 L 99.0 119.33333333333333 L 98.0 119.0 L 97.0 119.33333333333333 L 96.33333333333333 120.0 L 96.0 121.0 L 96.0 122.0 L 96.0 123.0 L 96.33333333333333 123.66666666666667 L 97.0 124.0 L 98.0 124.0 L 99.0 124.0 L 100.0 124.0 L 101.0 124.0 L 102.0 124.0 L 103.0 124.0 L 104.0 124.0 L 105.0 124.0 L 106.0 124.0 L 107.0 124.0 L 108.0 124.0 L 109.0 124.0 L 110.0 124.0 L 110.5 124.0 Z" stroke="none" fill="rgb(95,95,95)" />
<path d="M 14.5 123.0 L 15.0 123.0 L 16.0 123.0 L 17.0 123.0 L 18.0 123.0 L 19.0 123.0 L 20.0 123.0 L 21.0 123.0 L 22.0 123.0 L 23.0 123.0 L 24.0 123.0 L 25.0 123.0 L 26.0 123.0 L 27.0 123.0 L 28.0 123.0 L 29.0 123.0 L 30.0 123.0 L 31.0 123.0 L 31.666666666666668 122.66666666666667 L 32.0 122.0 L 32.0 121.0 L 31.666666666666668 120.0 L 31.0 119.33333333333333 L 30.0 119.0 L 29.0 119.0 L 28.0 119.0 L 27.0 119.0 L 26.0 119.0 L 25.0 119.0 L 24.0 119.0 L 23.0 119.0 L 22.0 119.0 L 21.0 119.0 L 20.0 119.0 L 19.0 119.0 L 18.0 119.0 L 17.0 119.0 L 16.0 119.0 L 15.0 119.0 L 14.0 119.0 L 13.0 119.0 L 12.0 119.0 L 11.0 119.0 L 10.0 119.0 L 9.0 119.0 L 8.0 119.0 L 7.0 119.0 L 6.0 119.0 L 5.0 119.0 L 4.333333333333333 119.33333333333333 L 4.0 120.0 L 4.0 121.0 L 4.0 122.0 L 4.333333333333333 122.66666666666667 L 5.0 123.0 L 6.0 123.0 L 7.0 123.0 L 8.0 123.0 L 9.0 123.0 L 10.0 123.0 L 11.0 123.0 L 12.0 123.0 L 13.0 123.0 L 13.5 123.0 Z" stroke="none" fill="rgb(73,72,72)" />
<path d="M 94.5 123.0 L 95.0 123.0 L 95.66666666666667 122.66666666666667 L 96.0 122.0 L 96.0 121.0 L 96.0 120.0 L 95.66666666666667 119.33333333333333 L 95.0 119.0 L 94.0 119.0 L 93.0 119.0 L 92.0 119.0 L 91.0 119.0 L 90.0 119.0 L 89.0 119.0 L 88.0 119.0 L 87.0 119.0 L 86.0 119.0 L 85.0 119.0 L 84.0 119.0 L 83.0 119.0 L 82.0 119.0 L 81.0 119.0 L 80.0 119.0 L 79.0 119.0 L 78.0 119.0 L 77.0 119.0 L 76.0 119.0 L 75.0 119.0 L 74.0 119.0 L 73.0 119.0 L 72.0 119.0 L 71.0 119.0 L 70.0 119.0 L 69.0 119.33333333333333 L 68.33333333333333 120.0 L 68.0 121.0 L 68.0 122.0 L 68.33333333333333 122.66666666666667 L 69.0 123.0 L 70.0 123.0 L 71.0 123.0 L 72.0 123.0 L 73.0 123.0 L 74.0 123.0 L 75.0 123.0 L 76.0 123.0 L 77.0 123.0 L 78.0 123.0 L 79.0 123.0 L 80.0 123.0 L 81.0 123.0 L 82.0 123.0 L 83.0 123.0 L 84.0 123.0 L 85.0 123.0 L 86.0 123.0 L 87.0 123.0 L 88.0 123.0 L 89.0 123.0 L 90.0 123.0 L 91.0 123.0 L 92.0 123.0 L 93.0 123.0 L 93.5 123.0 Z" stroke="none" fill="rgb(73,72,72)" />
<path d="M 33.5 124.0 L 34.0 124.0 L 35.0 124.0 L 36.0 124.0 L 37.0 124.0 L 38.0 124.0 L 39.0 124.0 L 40.0 124.0 L 41.0 124.0 L 42.0 124.0 L 43.0 124.0 L 44.0 124.0 L 45.0 124.0 L 45.666666666666664 123.66666666666667 L 46.0 123.0 L 46.0 122.0 L 45.666666666666664 121.33333333333333 L 45.0 121.0 L 44.0 121.0 L 43.0 121.0 L 42.0 121.0 L 41.0 121.0 L 40.0 121.0 L 39.0 121.0 L 38.0 121.0 L 37.0 121.0 L 36.0 121.0 L 35.0 121.0 L 34.0 121.0 L 33.0 121.0 L 32.333333333333336 121.33333333333333 L 32.0 122.0 L 32.333333333333336 123.0 L 32.5 123.5 Z" stroke="none" fill="rgb(81,81,81)" />
<path d="M 56.5 124.0 L 57.0 124.0 L 58.0 124.0 L 59.0 124.0 L 60.0 124.0 L 61.0 124.0 L 62.0 124.0 L 63.0 124.0 L 64.0 124.0 L 65.0 124.0 L 66.0 124.0 L 67.0 124.0 L 67.66666666666667 123.66666666666667 L 68.0 123.0 L 68.0 122.0 L 67.66666666666667 121.33333333333333 L 67.0 121.0 L 66.0 121.0 L 65.0 121.0 L 64.0 121.0 L 63.0 121.0 L 62.0 121.0 L 61.0 121.0 L 60.0 121.0 L 59.0 121.0 L 58.0 121.0 L 57.0 121.0 L 56.0 121.0 L 55.0 121.0 L 54.333333333333336 121.33333333333333 L 54.0 122.0 L 54.0 123.0 L 54.333333333333336 123.66666666666667 L 55.0 124.0 L 55.5 124.0 Z" stroke="none" fill="rgb(81,81,81)" />
</svg>
