<?xml version="1.0" encoding="UTF-8" standalone="no"?>
<!DOCTYPE svg PUBLIC "-//W3C//DTD SVG 1.1//EN"
"http://www.w3.org/Graphics/SVG/1.1/DTD/svg11.dtd">
<svg width="128" height="128" xmlns="http://www.w3.org/2000/svg" version="1.1">
<path d="M 26.5 128.0 L 27.0 128.0 L 28.0 128.0 L 29.0 128.0 L 30.0 128.0 L 31.0 128.0 L 32.0 128.0 L 33.0 128.0 L 34.0 128.0 L 35.0 128.0 L 36.0 128.0 L 37.0 128.0 L 38.0 128.0 L 39.0 128.0 L 40.0 128.0 L 41.0 128.0 L 42.0 128.0 L 43.0 128.0 L 44.0 128.0 L 45.0 128.0 L 46.0 128.0 L 47.0 128.0 L 48.0 128.0 L 49.0 128.0 L 50.0 128.0 L 51.0 128.0 L 52.0 128.0 L 53.0 128.0 L 54.0 128.0 L 55.0 128.0 L 56.0 128.0 L 57.0 128.0 L 58.0 128.0 L 59.0 128.0 L 60.0 128.0 L 61.0 128.0 L 62.0 128.0 L 63.0 128.0 L 64.0 128.0 L 65.0 128.0 L 66.0 128.0 L 67.0 128.0 L 68.0 128.0 L 69.0 128.0 L 70.0 128.0 L 71.0 128.0 L 72.0 128.0 L 73.0 128.0 L 74.0 128.0 L 75.0 128.0 L 76.0 128.0 L 77.0 128.0 L 78.0 128.0 L 79.0 128.0 L 80.0 128.0 L 81.0 128.0 L 82.0 128.0 L 83.0 128.0 L 84.0 128.0 L 85.0 128.0 L 86.0 128.0 L 87.0 128.0 L 88.0 128.0 L 89.0 128.0 L 90.0 128.0 L 91.0 128.0 L 92.0 128.0 L 93.0 128.0 L 94.0 128.0 L 95.0 128.0 L 96.0 128.0 L 97.0 128.0 L 98.0 128.0 L 99.0 128.0 L 100.0 128.0 L 101.0 128.0 L 102.0 128.0 L 103.0 128.0 L 104.0 128.0 L 105.0 128.0 L 106.0 128.0 L 107.0 128.0 L 108.0 128.0 L 109.0 128.0 L 110.0 128.0 L 111.0 128.0 L 112.0 128.0 L 113.0 128.0 L 114.0 128.0 L 115.0 128.0 L 116.0 128.0 L 117.0 128.0 L 118.0 128.0 L 119.0 128.0 L 120.0 128.0 L 121.0 128.0 L 122.0 128.0 L 123.0 128.0 L 124.0 128.0 L 125.0 128.0 L 126.0 128.0 L 127.0 128.0 L 127.66666666666667 127.66666666666667 L 128.0 127.0 L 128.0 126.0 L 128.0 125.0 L 128.0 124.0 L 128.0 123.0 L 128.0 122.0 L 128.0 121.0 L 128.0 120.0 L 128.0 119.0 L 128.0 118.0 L 128.0 117.0 L 128.0 116.0 L 128.0 115.0 L 128.0 114.0 L 128.0 113.0 L 128.0 112.0 L 128.0 111.0 L 128.0 110.0 L 128.0 109.0 L 128.0 108.0 L 128.0 107.0 L 128.0 106.0 L 128.0 105.0 L 128.0 104.0 L 128.0 103.0 L 128.0 102.0 L 128.0 101.0 L 128.0 100.0 L 128.0 99.0 L 128.0 98.0 L 128.0 97.0 L 128.0 96.0 L 128.0 95.0 L 128.0 94.0 L 128.0 93.0 L 128.0 92.0 L 128.0 91.0 L 128.0 90.0 L 128.0 89.0 L 128.0 88.0 L 128.0 87.0 L 128.0 86.0 L 128.0 85.0 L 128.0 84.0 L 128.0 83.0 L 128.0 82.0 L 128.0 81.0 L 128.0 80.0 L 128.0 79.0 L 128.0 78.0 L 128.0 77.0 L 128.0 76.0 L 128.0 75.0 L 128.0 74.0 L 128.0 73.0 L 128.0 72.0 L 128.0 71.0 L 128.0 70.0 L 128.0 69.0 L 128.0 68.0 L 128.0 67.0 L 128.0 66.0 L 128.0 65.0 L 128.0 64.0 L 128.0 63.0 L 128.0 62.0 L 128.0 61.0 L 128.0 60.0 L 128.0 59.0 L 128.0 58.0 L 128.0 57.0 L 128.0 56.0 L 128.0 55.0 L 128.0 54.0 L 128.0 53.0 L 128.0 52.0 L 128.0 51.0 L 128.0 50.0 L 128.0 49.0 L 128.0 48.0 L 128.0 47.0 L 128.0 46.0 L 128.0 45.0 L 128.0 44.0 L 128.0 43.0 L 128.0 42.0 L 128.0 41.0 L 128.0 40.0 L 128.0 39.0 L 128.0 38.0 L 128.0 37.0 L 128.0 36.0 L 128.0 35.0 L 128.0 34.0 L 128.0 33.0 L 128.0 32.0 L 128.0 31.0 L 128.0 30.0 L 128.0 29.0 L 128.0 28.0 L 128.0 27.0 L 128.0 26.0 L 128.0 25.0 L 128.0 24.0 L 128.0 23.0 L 128.0 22.0 L 128.0 21.0 L 128.0 20.0 L 128.0 19.0 L 128.0 18.0 L 128.0 17.0 L 128.0 16.0 L 128.0 15.0 L 128.0 14.0 L 128.0 13.0 L 128.0 12.0 L 128.0 11.0 L 128.0 10.0 L 128.0 9.0 L 128.0 8.0 L 128.0 7.0 L 128.0 6.0 L 128.0 5.0 L 128.0 4.0 L 128.0 3.0 L 128.0 2.0 L 128.0 1.0 L 127.66666666666667 0.3333333333333333 L 127.0 0.0 L 126.0 0.0 L 125.0 0.0 L 124.0 0.0 L 123.0 0.0 L 122.0 0.0 L 121.0 0.0 L 120.0 0.0 L 119.0 0.0 L 118.0 0.0 L 117.0 0.0 L 116.0 0.0 L 115.0 0.0 L 114.0 0.0 L 113.0 0.0 L 112.0 0.0 L 111.0 0.0 L 110.0 0.0 L 109.0 0.0 L 108.0 0.0 L 107.0 0.0 L 106.0 0.0 L 105.0 0.0 L 104.0 0.0 L 103.0 0.0 L 102.0 0.0 L 101.0 0.0 L 100.0 0.0 L 99.0 0.0 L 98.0 0.0 L 97.0 0.0 L 96.0 0.0 L 95.0 0.0 L 94.0 0.0 L 93.0 0.0 L 92.0 0.0 L 91.0 0.0 L 90.0 0.0 L 89.0 0.0 L 88.0 0.0 L 87.0 0.0 L 86.0 0.0 L 85.0 0.0 L 84.0 0.0 L 83.0 0.0 L 82.0 0.0 L 81.0 0.0 L 80.0 0.0 L 79.0 0.0 L 78.0 0.0 L 77.0 0.0 L 76.0 0.0 L 75.0 0.0 L 74.0 0.0 L 73.0 0.0 L 72.0 0.0 L 71.0 0.0 L 70.0 0.0 L 69.0 0.0 L 68.0 0.0 L 67.0 0.0 L 66.0 0.0 L 65.0 0.0 L 64.0 0.0 L 63.0 0.0 L 62.0 0.0 L 61.0 0.0 L 60.0 0.0 L 59.0 0.0 L 58.0 0.0 L 57.0 0.0 L 56.0 0.0 L 55.0 0.0 L 54.0 0.0 L 53.0 0.0 L 52.0 0.0 L 51.0 0.0 L 50.0 0.0 L 49.0 0.0 L 48.0 0.0 L 47.0 0.0 L 46.0 0.0 L 45.0 0.0 L 44.0 0.0 L 43.0 0.0 L 42.0 0.0 L 41.0 0.0 L 40.0 0.0 L 39.0 0.0 L 38.0 0.0 L 37.0 0.0 L 36.0 0.0 L 35.0 0.0 L 34.0 0.0 L 33.0 0.0 L 32.0 0.0 L 31.0 0.0 L 30.0 0.0 L 29.0 0.0 L 28.0 0.0 L 27.0 0.0 L 26.0 0.0 L 25.0 0.0 L 24.0 0.0 L 23.0 0.0 L 22.0 0.0 L 21.0 0.0 L 20.0 0.0 L 19.0 0.0 L 18.0 0.0 L 17.0 0.0 L 16.0 0.0 L 15.0 0.0 L 14.0 0.0 L 13.0 0.0 L 12.0 0.0 L 11.0 0.0 L 10.0 0.0 L 9.0 0.0 L 8.0 0.0 L 7.0 0.0 L 6.0 0.0 L 5.0 0.0 L 4.0 0.0 L 3.0 0.0 L 2.0 0.0 L 1.0 0.0 L 0.3333333333333333 0.3333333333333333 L 0.0 1.0 L 0.0 2.0 L 0.0 3.0 L 0.0 4.0 L 0.0 5.0 L 0.0 6.0 L 0.0 7.0 L 0.0 8.0 L 0.0 9.0 L 0.0 10.0 L 0.0 11.0 L 0.0 12.0 L 0.0 13.0 L 0.0 14.0 L 0.0 15.0 L 0.0 16.0 L 0.0 17.0 L 0.0 18.0 L 0.0 19.0 L 0.0 20.0 L 0.0 21.0 L 0.0 22.0 L 0.0 23.0 L 0.0 24.0 L 0.0 25.0 L 0.0 26.0 L 0.0 27.0 L 0.0 28.0 L 0.0 29.0 L 0.0 30.0 L 0.0 31.0 L 0.0 32.0 L 0.0 33.0 L 0.0 34.0 L 0.0 35.0 L 0.0 36.0 L 0.0 37.0 L 0.0 38.0 L 0.0 39.0 L 0.0 40.0 L 0.0 41.0 L 0.0 42.0 L 0.0 43.0 L 0.0 44.0 L 0.0 45.0 L 0.0 46.0 L 0.0 47.0 L 0.0 48.0 L 0.0 49.0 L 0.0 50.0 L 0.0 51.0 L 0.0 52.0 L 0.0 53.0 L 0.0 54.0 L 0.0 55.0 L 0.0 56.0 L 0.0 57.0 L 0.0 58.0 L 0.0 59.0 L 0.0 60.0 L 0.0 61.0 L 0.0 62.0 L 0.0 63.0 L 0.0 64.0 L 0.0 65.0 L 0.0 66.0 L 0.0 67.0 L 0.0 68.0 L 0.0 69.0 L 0.0 70.0 L 0.0 71.0 L 0.0 72.0 L 0.0 73.0 L 0.0 74.0 L 0.0 75.0 L 0.0 76.0 L 0.0 77.0 L 0.0 78.0 L 0.0 79.0 L 0.0 80.0 L 0.0 81.0 L 0.0 82.0 L 0.0 83.0 L 0.0 84.0 L 0.0 85.0 L 0.0 86.0 L 0.0 87.0 L 0.0 88.0 L 0.0 89.0 L 0.0 90.0 L 0.0 91.0 L 0.0 92.0 L 0.0 93.0 L 0.0 94.0 L 0.0 95.0 L 0.0 96.0 L 0.0 97.0 L 0.0 98.0 L 0.0 99.0 L 0.0 100.0 L 0.0 101.0 L 0.0 102.0 L 0.0 103.0 L 0.0 104.0 L 0.0 105.0 L 0.0 106.0 L 0.0 107.0 L 0.0 108.0 L 0.0 109.0 L 0.0 110.0 L 0.0 111.0 L 0.0 112.0 L 0.0 113.0 L 0.0 114.0 L 0.0 115.0 L 0.0 116.0 L 0.0 117.0 L 0.0 118.0 L 0.0 119.0 L 0.0 120.0 L 0.0 121.0 L 0.0 122.0 L 0.0 123.0 L 0.0 124.0 L 0.0 125.0 L 0.0 126.0 L 0.0 127.0 L 0.3333333333333333 127.66666666666667 L 1.0 128.0 L 2.0 128.0 L 3.0 128.0 L 4.0 128.0 L 5.0 128.0 L 6.0 128.0 L 7.0 128.0 L 8.0 128.0 L 9.0 128.0 L 10.0 128.0 L 11.0 128.0 L 12.0 128.0 L 13.0 128.0 L 14.0 128.0 L 15.0 128.0 L 16.0 128.0 L 17.0 128.0 L 18.0 128.0 L 19.0 128.0 L 20.0 128.0 L 21.0 128.0 L 22.0 128.0 L 23.0 128.0 L 24.0 128.0 L 25.0 128.0 L 25.5 128.0 Z" stroke="none" fill="rgb(255,255,255)" />
<path d="M 95.5 96.0 L 96.0 96.0 L 97.0 96.0 L 98.0 96.0 L 99.0 96.0 L 100.0 96.0 L 100.66666666666667 95.66666666666667 L 101.0 95.0 L 101.33333333333333 94.0 L 101.66666666666667 93.0 L 102.0 92.0 L 102.0 91.0 L 102.0 90.0 L 102.0 89.0 L 102.33333333333333 88.0 L 102.66666666666667 87.0 L 102.66666666666667 86.0 L 102.0 85.33333333333333 L 101.0 85.0 L 100.0 85.0 L 99.0 85.0 L 98.0 84.66666666666667 L 97.0 84.33333333333333 L 96.0 84.0 L 95.0 84.0 L 94.0 83.66666666666667 L 93.0 83.33333333333333 L 92.0 83.0 L 91.0 83.0 L 90.0 83.0 L 89.0 82.66666666666667 L 88.0 82.33333333333333 L 87.0 81.66666666666667 L 86.0 81.0 L 85.33333333333333 80.0 L 84.66666666666667 79.0 L 84.0 78.0 L 83.33333333333333 77.0 L 82.66666666666667 76.0 L 82.0 75.0 L 81.0 74.33333333333333 L 80.0 74.0 L 79.0 74.0 L 78.0 74.33333333333333 L 77.0 75.0 L 76.0 75.66666666666667 L 75.0 76.33333333333333 L 74.0 77.0 L 73.0 78.0 L 72.0 78.66666666666667 L 71.0 79.33333333333333 L 70.33333333333333 80.0 L 70.0 81.0 L 70.0 82.0 L 70.33333333333333 83.0 L 71.0 84.0 L 72.0 85.0 L 72.66666666666667 86.0 L 73.33333333333333 87.0 L 74.0 88.0 L 75.0 89.0 L 76.0 90.0 L 76.66666666666667 91.0 L 77.33333333333333 92.0 L 78.0 92.66666666666667 L 79.0 93.33333333333333 L 80.0 93.66666666666667 L 81.0 94.0 L 82.0 94.0 L 83.0 94.0 L 84.0 94.0 L 85.0 94.0 L 86.0 94.33333333333333 L 87.0 94.66666666666667 L 88.0 95.0 L 89.0 95.0 L 90.0 95.0 L 91.0 95.0 L 92.0 95.0 L 93.0 95.0 L 94.0 95.33333333333333 L 94.5 95.5 Z" stroke="none" fill="rgb(237,166,0)" />
<path d="M 39.5 30.5 L 39.666666666666664 31.0 L 40.0 32.0 L 40.333333333333336 33.0 L 41.0 33.666666666666664 L 42.0 34.333333333333336 L 43.0 34.666666666666664 L 44.0 35.0 L 45.0 35.0 L 46.0 35.0 L 47.0 35.333333333333336 L 48.0 36.0 L 49.0 36.666666666666664 L 50.0 37.0 L 51.0 36.666666666666664 L 52.0 36.0 L 53.0 35.333333333333336 L 54.0 34.666666666666664 L 55.0 34.333333333333336 L 56.0 34.0 L 57.0 34.0 L 58.0 33.666666666666664 L 58.666666666666664 33.0 L 59.0 32.0 L 59.0 31.0 L 59.0 30.0 L 58.666666666666664 29.0 L 58.0 28.333333333333332 L 57.0 27.666666666666668 L 56.0 27.0 L 55.333333333333336 26.0 L 55.0 25.0 L 55.0 24.0 L 55.0 23.0 L 55.0 22.0 L 55.0 21.0 L 54.666666666666664 20.333333333333332 L 54.0 20.0 L 53.0 20.333333333333332 L 52.0 20.333333333333332 L 51.0 20.0 L 50.333333333333336 19.0 L 49.666666666666664 18.0 L 49.333333333333336 17.0 L 49.0 16.0 L 48.666666666666664 15.0 L 48.0 14.333333333333334 L 47.0 14.0 L 46.0 14.0 L 45.0 14.0 L 44.0 14.0 L 43.0 14.0 L 42.0 14.333333333333334 L 41.0 14.666666666666666 L 40.0 15.0 L 39.0 15.333333333333334 L 38.333333333333336 16.0 L 38.0 17.0 L 38.0 18.0 L 38.0 19.0 L 38.0 20.0 L 38.333333333333336 21.0 L 38.666666666666664 22.0 L 38.666666666666664 23.0 L 38.0 24.0 L 37.333333333333336 25.0 L 37.0 26.0 L 37.0 27.0 L 37.333333333333336 28.0 L 38.0 29.0 L 38.5 29.5 Z" stroke="none" fill="rgb(255,201,39)" />
<path d="M 59.5 68.0 L 60.0 67.66666666666667 L 61.0 67.33333333333333 L 62.0 67.0 L 63.0 67.0 L 64.0 66.66666666666667 L 65.0 66.33333333333333 L 66.0 66.0 L 67.0 65.66666666666667 L 68.0 65.33333333333333 L 69.0 65.0 L 70.0 65.0 L 71.0 64.66666666666667 L 72.0 64.33333333333333 L 73.0 64.0 L 74.0 64.0 L 74.66666666666667 63.666666666666664 L 75.0 63.0 L 75.0 62.0 L 75.0 61.0 L 74.66666666666667 60.0 L 74.33333333333333 59.0 L 74.0 58.0 L 73.66666666666667 57.0 L 73.33333333333333 56.0 L 73.0 55.0 L 72.66666666666667 54.0 L 72.33333333333333 53.0 L 72.0 52.0 L 71.66666666666667 51.0 L 71.33333333333333 50.0 L 71.0 49.0 L 70.66666666666667 48.333333333333336 L 70.0 48.0 L 69.0 48.333333333333336 L 68.33333333333333 49.0 L 68.0 50.0 L 67.66666666666667 51.0 L 67.0 52.0 L 66.0 53.0 L 65.0 54.0 L 64.0 55.0 L 63.0 55.666666666666664 L 62.0 56.333333333333336 L 61.0 56.666666666666664 L 60.0 57.0 L 59.0 57.333333333333336 L 58.0 57.333333333333336 L 57.0 57.333333333333336 L 56.0 57.0 L 55.0 57.0 L 54.0 57.0 L 53.0 57.0 L 52.333333333333336 57.333333333333336 L 52.0 58.0 L 52.0 59.0 L 52.333333333333336 60.0 L 52.666666666666664 61.0 L 53.0 62.0 L 53.0 63.0 L 53.0 64.0 L 53.0 65.0 L 53.0 66.0 L 53.333333333333336 67.0 L 54.0 67.66666666666667 L 55.0 68.0 L 56.0 68.0 L 57.0 68.0 L 58.0 68.0 L 58.5 68.0 Z" stroke="none" fill="rgb(0,173,150)" />
<path d="M 57.5 58.0 L 58.0 58.0 L 59.0 57.666666666666664 L 60.0 57.333333333333336 L 61.0 57.0 L 62.0 56.666666666666664 L 63.0 56.333333333333336 L 64.0 55.666666666666664 L 65.0 55.0 L 66.0 54.0 L 67.0 53.0 L 67.66666666666667 52.0 L 68.0 51.0 L 68.33333333333333 50.0 L 68.66666666666667 49.0 L 68.66666666666667 48.0 L 68.0 47.333333333333336 L 67.0 46.666666666666664 L 66.0 46.333333333333336 L 65.0 46.0 L 64.0 46.0 L 63.0 45.666666666666664 L 62.0 45.333333333333336 L 61.0 45.0 L 60.0 44.666666666666664 L 59.0 44.333333333333336 L 58.0 43.666666666666664 L 57.0 43.0 L 56.333333333333336 42.0 L 55.666666666666664 41.0 L 55.333333333333336 40.0 L 55.0 39.0 L 55.0 38.0 L 55.0 37.0 L 54.666666666666664 36.333333333333336 L 54.0 36.0 L 53.0 36.333333333333336 L 52.0 36.666666666666664 L 51.0 37.333333333333336 L 50.0 38.0 L 49.333333333333336 39.0 L 49.0 40.0 L 49.0 41.0 L 49.0 42.0 L 49.0 43.0 L 49.0 44.0 L 49.0 45.0 L 49.333333333333336 46.0 L 49.666666666666664 47.0 L 50.0 48.0 L 50.333333333333336 49.0 L 50.666666666666664 50.0 L 51.0 51.0 L 51.0 52.0 L 51.0 53.0 L 51.333333333333336 54.0 L 51.666666666666664 55.0 L 52.0 56.0 L 52.333333333333336 56.666666666666664 L 53.0 57.0 L 54.0 57.0 L 55.0 57.0 L 56.0 57.333333333333336 L 56.5 57.5 Z" stroke="none" fill="rgb(0,187,162)" />
<path d="M 59.5 79.0 L 60.0 79.33333333333333 L 61.0 80.0 L 62.0 81.0 L 63.0 81.66666666666667 L 64.0 82.0 L 65.0 82.0 L 65.66666666666667 81.66666666666667 L 66.33333333333333 81.0 L 66.66666666666667 80.0 L 67.33333333333333 79.0 L 67.66666666666667 78.0 L 68.33333333333333 77.0 L 69.0 76.0 L 69.66666666666667 75.0 L 70.33333333333333 74.0 L 71.0 73.0 L 71.66666666666667 72.0 L 72.33333333333333 71.0 L 73.0 70.0 L 73.66666666666667 69.0 L 74.0 68.0 L 74.0 67.0 L 74.0 66.0 L 74.0 65.0 L 73.66666666666667 64.33333333333333 L 73.0 64.0 L 72.0 64.0 L 71.0 64.33333333333333 L 70.0 64.66666666666667 L 69.0 65.0 L 68.0 65.0 L 67.0 65.33333333333333 L 66.0 65.66666666666667 L 65.0 66.0 L 64.0 66.33333333333333 L 63.0 66.66666666666667 L 62.0 67.0 L 61.0 67.0 L 60.0 67.33333333333333 L 59.0 67.66666666666667 L 58.0 68.0 L 57.0 68.0 L 56.0 68.0 L 55.0 68.0 L 54.0 68.33333333333333 L 53.333333333333336 69.0 L 52.666666666666664 70.0 L 52.333333333333336 71.0 L 52.0 72.0 L 52.0 73.0 L 52.333333333333336 74.0 L 53.0 74.66666666666667 L 54.0 75.33333333333333 L 55.0 76.0 L 56.0 76.66666666666667 L 57.0 77.33333333333333 L 58.0 78.0 L 58.5 78.5 Z" stroke="none" fill="rgb(123,124,124)" />
<path d="M 46.5 7.5 L 47.0 7.333333333333333 L 48.0 7.0 L 49.0 7.0 L 50.0 7.0 L 51.0 7.0 L 52.0 7.0 L 53.0 7.0 L 54.0 7.333333333333333 L 55.0 7.666666666666667 L 56.0 8.333333333333334 L 57.0 9.0 L 58.0 9.666666666666666 L 59.0 10.333333333333334 L 60.0 11.0 L 60.666666666666664 12.0 L 61.333333333333336 13.0 L 61.666666666666664 14.0 L 62.333333333333336 15.0 L 63.0 15.666666666666666 L 63.666666666666664 15.666666666666666 L 64.0 15.0 L 64.0 14.0 L 64.0 13.0 L 63.666666666666664 12.0 L 63.333333333333336 11.0 L 62.666666666666664 10.0 L 62.0 9.0 L 61.0 8.0 L 60.0 7.0 L 59.0 6.333333333333333 L 58.0 5.666666666666667 L 57.0 5.333333333333333 L 56.0 5.0 L 55.0 5.0 L 54.0 4.666666666666667 L 53.0 4.333333333333333 L 52.0 4.0 L 51.0 4.0 L 50.0 4.0 L 49.0 4.0 L 48.0 4.0 L 47.0 4.333333333333333 L 46.0 4.666666666666667 L 45.0 5.0 L 44.0 5.333333333333333 L 43.0 5.666666666666667 L 42.0 6.333333333333333 L 41.0 6.666666666666667 L 40.0 7.333333333333333 L 39.0 8.0 L 38.0 9.0 L 37.333333333333336 10.0 L 37.0 11.0 L 37.0 12.0 L 37.0 13.0 L 37.333333333333336 13.666666666666666 L 38.0 14.0 L 38.666666666666664 13.666666666666666 L 39.333333333333336 13.0 L 40.0 12.0 L 41.0 11.0 L 42.0 10.0 L 43.0 9.333333333333334 L 44.0 8.666666666666666 L 45.0 8.333333333333334 L 45.5 8.0 Z" stroke="none" fill="rgb(104,72,61)" />
<path d="M 65.5 46.5 L 66.0 46.666666666666664 L 67.0 47.333333333333336 L 68.0 47.666666666666664 L 69.0 48.0 L 70.0 47.666666666666664 L 71.0 47.333333333333336 L 71.66666666666667 46.666666666666664 L 72.0 46.0 L 72.0 45.0 L 72.0 44.0 L 72.0 43.0 L 72.0 42.0 L 72.0 41.0 L 72.33333333333333 40.0 L 72.66666666666667 39.0 L 73.0 38.0 L 73.0 37.0 L 73.0 36.0 L 72.66666666666667 35.333333333333336 L 72.0 35.0 L 71.0 35.0 L 70.0 34.666666666666664 L 69.0 34.333333333333336 L 68.0 34.0 L 67.0 33.666666666666664 L 66.0 33.333333333333336 L 65.0 33.0 L 64.0 33.0 L 63.0 32.666666666666664 L 62.0 32.333333333333336 L 61.0 32.0 L 60.0 32.333333333333336 L 59.0 32.666666666666664 L 58.0 33.333333333333336 L 57.0 34.0 L 56.333333333333336 35.0 L 55.666666666666664 36.0 L 55.333333333333336 37.0 L 55.0 38.0 L 55.0 39.0 L 55.0 40.0 L 55.333333333333336 41.0 L 55.666666666666664 42.0 L 56.333333333333336 43.0 L 57.0 43.666666666666664 L 58.0 44.333333333333336 L 59.0 44.666666666666664 L 60.0 45.0 L 61.0 45.333333333333336 L 62.0 45.666666666666664 L 63.0 46.0 L 64.0 46.0 L 64.5 46.0 Z" stroke="none" fill="rgb(5,162,135)" />
<path d="M 46.5 10.5 L 47.0 10.333333333333334 L 48.0 10.0 L 49.0 10.0 L 50.0 10.0 L 51.0 10.0 L 52.0 10.0 L 53.0 10.0 L 54.0 10.333333333333334 L 55.0 11.0 L 56.0 11.666666666666666 L 57.0 12.333333333333334 L 58.0 13.0 L 58.666666666666664 14.0 L 59.333333333333336 15.0 L 59.666666666666664 16.0 L 60.333333333333336 17.0 L 60.666666666666664 18.0 L 61.0 19.0 L 61.0 20.0 L 61.0 21.0 L 60.666666666666664 22.0 L 60.333333333333336 23.0 L 59.666666666666664 24.0 L 59.333333333333336 25.0 L 58.666666666666664 26.0 L 58.333333333333336 27.0 L 58.0 28.0 L 58.333333333333336 28.666666666666668 L 59.0 29.0 L 60.0 28.666666666666668 L 60.666666666666664 28.0 L 61.0 27.0 L 61.333333333333336 26.0 L 61.666666666666664 25.0 L 62.333333333333336 24.0 L 62.666666666666664 23.0 L 63.333333333333336 22.0 L 63.666666666666664 21.0 L 64.0 20.0 L 64.0 19.0 L 64.0 18.0 L 64.0 17.0 L 63.666666666666664 16.0 L 63.0 15.0 L 62.333333333333336 14.0 L 61.666666666666664 13.0 L 61.333333333333336 12.0 L 60.666666666666664 11.0 L 60.0 10.333333333333334 L 59.0 9.666666666666666 L 58.0 9.0 L 57.0 8.333333333333334 L 56.0 7.666666666666667 L 55.0 7.333333333333333 L 54.0 7.0 L 53.0 7.0 L 52.0 7.0 L 51.0 7.0 L 50.0 7.0 L 49.0 7.0 L 48.0 7.0 L 47.0 7.0 L 46.0 7.333333333333333 L 45.0 7.666666666666667 L 44.0 8.333333333333334 L 43.0 8.666666666666666 L 42.0 9.333333333333334 L 41.0 10.0 L 40.0 11.0 L 39.333333333333336 12.0 L 38.666666666666664 13.0 L 38.333333333333336 14.0 L 38.333333333333336 14.666666666666666 L 39.0 15.0 L 40.0 15.0 L 41.0 15.0 L 41.666666666666664 14.666666666666666 L 42.333333333333336 14.0 L 43.0 13.0 L 44.0 12.0 L 45.0 11.333333333333334 L 45.5 11.0 Z" stroke="none" fill="rgb(95,65,55)" />
<path d="M 42.5 14.0 L 43.0 14.0 L 44.0 14.0 L 45.0 14.0 L 46.0 14.0 L 47.0 14.333333333333334 L 48.0 15.0 L 48.666666666666664 16.0 L 49.0 17.0 L 49.333333333333336 18.0 L 49.666666666666664 19.0 L 50.333333333333336 20.0 L 51.0 20.666666666666668 L 52.0 21.0 L 53.0 20.666666666666668 L 54.0 20.666666666666668 L 54.666666666666664 21.0 L 55.0 22.0 L 55.0 23.0 L 55.0 24.0 L 55.0 25.0 L 55.0 26.0 L 55.333333333333336 27.0 L 56.0 27.666666666666668 L 57.0 28.0 L 58.0 27.666666666666668 L 58.666666666666664 27.0 L 59.333333333333336 26.0 L 59.666666666666664 25.0 L 60.333333333333336 24.0 L 60.666666666666664 23.0 L 61.0 22.0 L 61.0 21.0 L 61.0 20.0 L 61.0 19.0 L 61.0 18.0 L 60.666666666666664 17.0 L 60.333333333333336 16.0 L 59.666666666666664 15.0 L 59.333333333333336 14.0 L 58.666666666666664 13.0 L 58.0 12.333333333333334 L 57.0 11.666666666666666 L 56.0 11.0 L 55.0 10.333333333333334 L 54.0 10.0 L 53.0 10.0 L 52.0 10.0 L 51.0 10.0 L 50.0 10.0 L 49.0 10.0 L 48.0 10.0 L 47.0 10.0 L 46.0 10.333333333333334 L 45.0 10.666666666666666 L 44.0 11.333333333333334 L 43.0 12.0 L 42.333333333333336 13.0 L 42.0 13.5 Z" stroke="none" fill="rgb(85,58,49)" />
<path d="M 110.5 105.0 L 111.0 105.33333333333333 L 112.0 105.66666666666667 L 113.0 106.0 L 114.0 105.66666666666667 L 114.66666666666667 105.0 L 115.0 104.0 L 115.0 103.0 L 115.33333333333333 102.0 L 115.66666666666667 101.0 L 116.0 100.0 L 116.0 99.0 L 116.0 98.0 L 116.33333333333333 97.0 L 116.66666666666667 96.0 L 117.0 95.0 L 117.0 94.0 L 117.0 93.0 L 117.0 92.0 L 117.33333333333333 91.0 L 117.66666666666667 90.0 L 118.0 89.0 L 118.0 88.0 L 117.66666666666667 87.33333333333333 L 117.0 87.0 L 116.0 86.66666666666667 L 115.0 86.33333333333333 L 114.0 86.0 L 113.0 86.0 L 112.0 86.0 L 111.0 86.33333333333333 L 110.0 87.0 L 109.33333333333333 88.0 L 109.0 89.0 L 109.0 90.0 L 109.0 91.0 L 108.66666666666667 92.0 L 108.33333333333333 93.0 L 108.0 94.0 L 107.66666666666667 95.0 L 107.33333333333333 96.0 L 107.0 97.0 L 107.33333333333333 98.0 L 107.66666666666667 99.0 L 108.0 100.0 L 108.0 101.0 L 108.0 102.0 L 108.33333333333333 103.0 L 109.0 104.0 L 109.5 104.5 Z" stroke="none" fill="rgb(50,85,153)" />
<path d="M 40.5 124.0 L 41.0 124.0 L 42.0 124.0 L 43.0 124.0 L 44.0 124.0 L 45.0 124.0 L 46.0 124.0 L 47.0 124.0 L 48.0 124.0 L 49.0 124.0 L 50.0 124.0 L 51.0 124.0 L 52.0 124.0 L 53.0 124.0 L 54.0 124.0 L 55.0 124.0 L 56.0 124.0 L 57.0 124.0 L 57.666666666666664 123.66666666666667 L 58.0 123.0 L 58.0 122.0 L 58.0 121.0 L 58.0 120.0 L 58.0 119.0 L 58.0 118.0 L 57.666666666666664 117.0 L 57.333333333333336 116.0 L 56.666666666666664 115.33333333333333 L 56.0 115.0 L 55.0 115.0 L 54.0 115.0 L 53.0 115.0 L 52.0 115.0 L 51.0 115.0 L 50.0 115.0 L 49.0 115.0 L 48.0 115.0 L 47.0 115.33333333333333 L 46.0 115.66666666666667 L 45.0 116.0 L 44.0 116.33333333333333 L 43.0 116.66666666666667 L 42.0 117.33333333333333 L 41.0 117.66666666666667 L 40.333333333333336 118.33333333333333 L 40.0 119.0 L 39.666666666666664 120.0 L 39.333333333333336 121.0 L 39.0 122.0 L 39.0 123.0 L 39.333333333333336 123.66666666666667 L 39.5 124.0 Z" stroke="none" fill="rgb(69,104,173)" />
<path d="M 91.5 67.0 L 91.66666666666667 66.66666666666667 L 92.0 66.0 L 92.0 65.0 L 92.0 64.0 L 92.0 63.0 L 92.0 62.0 L 92.0 61.0 L 92.0 60.0 L 92.0 59.0 L 92.0 58.0 L 92.0 57.0 L 92.33333333333333 56.0 L 92.66666666666667 55.0 L 93.0 54.0 L 92.66666666666667 53.0 L 92.0 52.0 L 91.0 51.0 L 90.0 50.0 L 89.0 49.0 L 88.0 48.0 L 87.0 47.333333333333336 L 86.0 47.0 L 85.33333333333333 47.333333333333336 L 85.0 48.0 L 85.0 49.0 L 85.0 50.0 L 85.0 51.0 L 85.0 52.0 L 85.0 53.0 L 85.0 54.0 L 85.0 55.0 L 85.0 56.0 L 85.0 57.0 L 85.0 58.0 L 85.0 59.0 L 85.0 60.0 L 85.0 61.0 L 85.0 62.0 L 85.0 63.0 L 85.33333333333333 63.666666666666664 L 86.0 64.0 L 87.0 64.33333333333333 L 87.66666666666667 65.0 L 88.33333333333333 66.0 L 89.0 66.66666666666667 L 90.0 67.0 L 90.5 67.0 Z" stroke="none" fill="rgb(255,196,30)" />
<path d="M 73.5 78.5 L 74.0 78.0 L 75.0 77.0 L 76.0 76.33333333333333 L 77.0 75.66666666666667 L 78.0 75.0 L 79.0 74.33333333333333 L 80.0 74.0 L 80.66666666666667 73.66666666666667 L 81.0 73.0 L 81.0 72.0 L 80.66666666666667 71.0 L 80.33333333333333 70.0 L 79.66666666666667 69.0 L 79.0 68.0 L 78.33333333333333 67.0 L 77.66666666666667 66.0 L 77.0 65.0 L 76.0 64.33333333333333 L 75.0 64.0 L 74.33333333333333 64.33333333333333 L 74.0 65.0 L 74.0 66.0 L 74.0 67.0 L 73.66666666666667 68.0 L 73.0 69.0 L 72.33333333333333 70.0 L 71.66666666666667 71.0 L 71.0 72.0 L 70.33333333333333 73.0 L 69.66666666666667 74.0 L 69.0 75.0 L 68.33333333333333 76.0 L 67.66666666666667 77.0 L 67.33333333333333 78.0 L 67.0 79.0 L 67.0 80.0 L 67.33333333333333 81.0 L 68.0 81.66666666666667 L 69.0 81.66666666666667 L 70.0 81.0 L 71.0 80.0 L 72.0 79.33333333333333 L 72.5 79.0 Z" stroke="none" fill="rgb(101,101,100)" />
<path d="M 59.5 85.5 L 60.0 85.66666666666667 L 61.0 85.66666666666667 L 62.0 85.0 L 62.666666666666664 84.0 L 63.0 83.0 L 63.0 82.0 L 62.666666666666664 81.0 L 62.0 80.0 L 61.0 79.33333333333333 L 60.0 78.66666666666667 L 59.0 78.0 L 58.0 77.33333333333333 L 57.0 76.66666666666667 L 56.0 76.0 L 55.0 75.33333333333333 L 54.0 74.66666666666667 L 53.0 74.33333333333333 L 52.0 74.33333333333333 L 51.333333333333336 75.0 L 50.666666666666664 76.0 L 50.333333333333336 77.0 L 49.666666666666664 78.0 L 49.0 79.0 L 48.333333333333336 80.0 L 48.0 81.0 L 48.0 82.0 L 48.333333333333336 82.66666666666667 L 49.0 83.0 L 50.0 83.33333333333333 L 51.0 83.66666666666667 L 52.0 84.0 L 53.0 84.0 L 54.0 84.0 L 55.0 84.0 L 56.0 84.33333333333333 L 57.0 84.66666666666667 L 58.0 85.0 L 58.5 85.0 Z" stroke="none" fill="rgb(255,182,6)" />
<path d="M 18.5 83.0 L 18.666666666666668 82.66666666666667 L 19.0 82.0 L 19.333333333333332 81.0 L 20.0 80.33333333333333 L 21.0 80.0 L 21.666666666666668 79.66666666666667 L 21.666666666666668 79.0 L 21.666666666666668 78.0 L 22.0 77.33333333333333 L 23.0 77.0 L 24.0 77.0 L 25.0 77.0 L 25.666666666666668 76.66666666666667 L 25.666666666666668 76.0 L 25.0 75.33333333333333 L 24.0 74.66666666666667 L 23.666666666666668 74.0 L 24.0 73.33333333333333 L 24.666666666666668 72.66666666666667 L 25.0 72.0 L 24.666666666666668 71.33333333333333 L 24.0 70.66666666666667 L 23.0 70.0 L 22.0 69.33333333333333 L 21.0 69.0 L 20.0 69.33333333333333 L 19.0 70.0 L 18.0 71.0 L 17.0 71.66666666666667 L 16.333333333333332 72.33333333333333 L 16.0 73.0 L 15.666666666666666 74.0 L 15.0 74.66666666666667 L 14.0 75.0 L 13.0 75.33333333333333 L 12.333333333333334 76.0 L 12.0 77.0 L 12.333333333333334 77.66666666666667 L 13.0 78.33333333333333 L 13.666666666666666 79.0 L 14.333333333333334 79.66666666666667 L 15.0 80.33333333333333 L 15.666666666666666 81.0 L 16.0 82.0 L 16.333333333333332 82.66666666666667 L 17.0 83.0 L 17.5 83.0 Z" stroke="none" fill="rgb(253,156,24)" />
<path d="M 59.5 88.5 L 59.666666666666664 88.0 L 60.0 87.0 L 60.0 86.0 L 59.666666666666664 85.33333333333333 L 59.0 85.0 L 58.0 84.66666666666667 L 57.0 84.33333333333333 L 56.0 84.0 L 55.0 84.0 L 54.0 84.0 L 53.0 84.0 L 52.0 83.66666666666667 L 51.0 83.33333333333333 L 50.0 83.0 L 49.0 83.0 L 48.0 83.0 L 47.0 83.33333333333333 L 46.333333333333336 84.0 L 46.0 85.0 L 45.666666666666664 86.0 L 45.333333333333336 87.0 L 45.0 88.0 L 45.333333333333336 88.66666666666667 L 46.0 89.33333333333333 L 47.0 89.66666666666667 L 48.0 90.0 L 49.0 90.0 L 50.0 90.0 L 51.0 90.0 L 52.0 90.33333333333333 L 53.0 90.66666666666667 L 54.0 91.0 L 55.0 91.0 L 56.0 91.0 L 57.0 91.0 L 57.666666666666664 90.66666666666667 L 58.333333333333336 90.0 L 58.5 89.5 Z" stroke="none" fill="rgb(255,187,15)" />
<path d="M 49.5 54.5 L 50.0 55.0 L 51.0 55.666666666666664 L 51.666666666666664 55.666666666666664 L 52.0 55.0 L 51.666666666666664 54.0 L 51.333333333333336 53.0 L 51.0 52.0 L 51.0 51.0 L 51.0 50.0 L 50.666666666666664 49.0 L 50.333333333333336 48.0 L 50.0 47.0 L 49.666666666666664 46.0 L 49.333333333333336 45.0 L 49.0 44.0 L 49.0 43.0 L 49.0 42.0 L 49.0 41.0 L 49.0 40.0 L 48.666666666666664 39.333333333333336 L 48.0 39.0 L 47.333333333333336 39.333333333333336 L 46.666666666666664 40.0 L 46.333333333333336 41.0 L 45.666666666666664 42.0 L 45.333333333333336 43.0 L 44.666666666666664 44.0 L 44.333333333333336 45.0 L 43.666666666666664 46.0 L 43.333333333333336 47.0 L 42.666666666666664 48.0 L 42.333333333333336 49.0 L 42.0 50.0 L 42.333333333333336 51.0 L 43.0 51.666666666666664 L 44.0 52.0 L 45.0 52.333333333333336 L 46.0 52.666666666666664 L 47.0 53.333333333333336 L 48.0 53.666666666666664 L 48.5 54.0 Z" stroke="none" fill="rgb(5,162,135)" />
<path d="M 84.5 57.0 L 84.66666666666667 56.666666666666664 L 85.0 56.0 L 85.0 55.0 L 85.0 54.0 L 85.0 53.0 L 85.0 52.0 L 85.0 51.0 L 85.0 50.0 L 85.0 49.0 L 85.33333333333333 48.0 L 85.66666666666667 47.0 L 86.0 46.0 L 85.66666666666667 45.0 L 85.0 44.0 L 84.0 43.0 L 83.33333333333333 42.0 L 82.66666666666667 41.0 L 82.0 40.333333333333336 L 81.0 40.0 L 80.0 40.0 L 79.33333333333333 40.333333333333336 L 79.0 41.0 L 79.0 42.0 L 79.0 43.0 L 79.0 44.0 L 79.0 45.0 L 79.0 46.0 L 79.0 47.0 L 79.0 48.0 L 78.66666666666667 49.0 L 78.33333333333333 50.0 L 78.33333333333333 51.0 L 79.0 52.0 L 80.0 53.0 L 81.0 54.0 L 82.0 55.0 L 83.0 56.0 L 83.5 56.5 Z" stroke="none" fill="rgb(255,192,23)" />
<path d="M 50.5 97.0 L 51.0 97.0 L 52.0 97.0 L 53.0 97.0 L 54.0 97.0 L 55.0 97.33333333333333 L 56.0 97.66666666666667 L 56.666666666666664 97.66666666666667 L 57.0 97.0 L 57.0 96.0 L 57.0 95.0 L 57.0 94.0 L 57.0 93.0 L 57.0 92.0 L 56.666666666666664 91.33333333333333 L 56.0 91.0 L 55.0 91.0 L 54.0 90.66666666666667 L 53.0 90.33333333333333 L 52.0 90.0 L 51.0 90.0 L 50.0 90.0 L 49.0 90.0 L 48.0 89.66666666666667 L 47.0 89.33333333333333 L 46.0 89.0 L 45.333333333333336 89.33333333333333 L 45.0 90.0 L 45.0 91.0 L 45.0 92.0 L 45.0 93.0 L 45.0 94.0 L 45.0 95.0 L 45.333333333333336 95.66666666666667 L 46.0 96.0 L 47.0 96.0 L 48.0 96.0 L 49.0 96.33333333333333 L 49.5 96.5 Z" stroke="none" fill="rgb(255,192,23)" />
<path d="M 49.5 103.0 L 50.0 103.0 L 51.0 103.33333333333333 L 52.0 103.66666666666667 L 53.0 104.0 L 54.0 104.0 L 55.0 104.0 L 56.0 104.0 L 56.666666666666664 103.66666666666667 L 57.0 103.0 L 57.0 102.0 L 57.0 101.0 L 57.0 100.0 L 57.0 99.0 L 56.666666666666664 98.0 L 56.0 97.33333333333333 L 55.0 97.0 L 54.0 97.0 L 53.0 97.0 L 52.0 97.0 L 51.0 96.66666666666667 L 50.0 96.33333333333333 L 49.0 96.0 L 48.0 96.0 L 47.0 96.0 L 46.0 96.0 L 45.333333333333336 96.33333333333333 L 45.0 97.0 L 45.333333333333336 98.0 L 45.666666666666664 99.0 L 46.0 100.0 L 46.0 101.0 L 46.0 102.0 L 46.333333333333336 102.66666666666667 L 47.0 103.0 L 48.0 103.0 L 48.5 103.0 Z" stroke="none" fill="rgb(255,196,30)" />
<path d="M 104.5 97.0 L 105.0 97.0 L 106.0 97.0 L 107.0 96.66666666666667 L 107.66666666666667 96.0 L 108.0 95.0 L 108.33333333333333 94.0 L 108.66666666666667 93.0 L 109.0 92.0 L 109.0 91.0 L 109.0 90.0 L 109.0 89.0 L 109.0 88.0 L 108.66666666666667 87.33333333333333 L 108.0 86.66666666666667 L 107.0 86.33333333333333 L 106.0 86.0 L 105.0 86.0 L 104.0 86.0 L 103.0 86.33333333333333 L 102.33333333333333 87.0 L 102.0 88.0 L 102.0 89.0 L 102.0 90.0 L 102.0 91.0 L 101.66666666666667 92.0 L 101.33333333333333 93.0 L 101.0 94.0 L 101.0 95.0 L 101.33333333333333 95.66666666666667 L 102.0 96.33333333333333 L 103.0 96.66666666666667 L 103.5 97.0 Z" stroke="none" fill="rgb(188,189,191)" />
<path d="M 74.5 48.0 L 75.0 48.333333333333336 L 76.0 49.0 L 77.0 49.666666666666664 L 78.0 50.0 L 78.66666666666667 49.666666666666664 L 79.0 49.0 L 79.0 48.0 L 79.0 47.0 L 79.0 46.0 L 79.0 45.0 L 79.0 44.0 L 79.0 43.0 L 79.0 42.0 L 79.0 41.0 L 79.0 40.0 L 78.66666666666667 39.333333333333336 L 78.0 39.0 L 77.0 38.666666666666664 L 76.0 38.333333333333336 L 75.0 38.0 L 74.0 38.0 L 73.0 38.333333333333336 L 72.33333333333333 39.0 L 72.0 40.0 L 72.0 41.0 L 72.0 42.0 L 72.0 43.0 L 72.0 44.0 L 72.0 45.0 L 72.0 46.0 L 72.33333333333333 47.0 L 73.0 47.666666666666664 L 73.5 48.0 Z" stroke="none" fill="rgb(255,187,15)" />
<path d="M 48.5 115.0 L 49.0 115.0 L 50.0 115.0 L 51.0 115.0 L 52.0 115.0 L 53.0 115.0 L 54.0 115.0 L 55.0 115.0 L 56.0 115.0 L 56.666666666666664 114.66666666666667 L 57.0 114.0 L 57.0 113.0 L 57.0 112.0 L 57.0 111.0 L 57.0 110.0 L 57.0 109.0 L 56.666666666666664 108.33333333333333 L 56.0 108.0 L 55.0 108.0 L 54.0 108.0 L 53.0 108.0 L 52.0 108.0 L 51.0 108.0 L 50.0 108.0 L 49.0 108.0 L 48.0 108.0 L 47.333333333333336 108.33333333333333 L 47.0 109.0 L 47.0 110.0 L 47.0 111.0 L 47.0 112.0 L 47.0 113.0 L 47.0 114.0 L 47.333333333333336 114.66666666666667 L 47.5 115.0 Z" stroke="none" fill="rgb(224,224,224)" />
<path d="M 24.5 83.0 L 25.0 83.33333333333333 L 26.0 84.0 L 27.0 85.0 L 27.666666666666668 86.0 L 28.333333333333332 87.0 L 29.0 88.0 L 30.0 89.0 L 31.0 89.66666666666667 L 32.0 89.66666666666667 L 32.666666666666664 89.0 L 33.0 88.0 L 32.666666666666664 87.0 L 32.0 86.0 L 31.0 85.0 L 30.0 84.0 L 29.0 83.0 L 28.0 82.0 L 27.0 81.0 L 26.0 80.33333333333333 L 25.0 79.66666666666667 L 24.0 79.0 L 23.333333333333332 78.0 L 22.666666666666668 77.0 L 22.0 76.33333333333333 L 21.0 76.0 L 20.0 76.0 L 19.0 76.0 L 18.333333333333332 76.33333333333333 L 18.0 77.0 L 18.333333333333332 77.66666666666667 L 19.0 78.0 L 20.0 78.33333333333333 L 21.0 79.0 L 21.666666666666668 80.0 L 22.333333333333332 81.0 L 23.0 82.0 L 23.5 82.5 Z" stroke="none" fill="rgb(250,141,7)" />
<path d="M 24.5 93.0 L 25.0 93.0 L 26.0 93.0 L 27.0 92.66666666666667 L 28.0 92.33333333333333 L 29.0 92.0 L 30.0 91.66666666666667 L 30.666666666666668 91.0 L 31.0 90.0 L 30.666666666666668 89.0 L 30.0 88.0 L 29.0 87.0 L 28.0 86.0 L 27.0 85.0 L 26.0 84.33333333333333 L 25.0 84.33333333333333 L 24.0 84.66666666666667 L 23.0 85.33333333333333 L 22.0 85.66666666666667 L 21.333333333333332 86.33333333333333 L 21.0 87.0 L 21.0 88.0 L 21.333333333333332 89.0 L 22.0 90.0 L 23.0 91.0 L 23.666666666666668 92.0 L 24.0 92.5 Z" stroke="none" fill="rgb(218,91,29)" />
<path d="M 92.5 67.0 L 93.0 67.0 L 93.66666666666667 66.66666666666667 L 94.33333333333333 66.0 L 95.0 65.33333333333333 L 96.0 64.66666666666667 L 96.66666666666667 64.0 L 97.0 63.0 L 97.0 62.0 L 97.0 61.0 L 97.0 60.0 L 97.0 59.0 L 96.66666666666667 58.0 L 96.0 57.0 L 95.33333333333333 56.0 L 94.66666666666667 55.0 L 94.0 54.333333333333336 L 93.0 54.333333333333336 L 92.33333333333333 55.0 L 92.0 56.0 L 92.0 57.0 L 92.0 58.0 L 92.0 59.0 L 92.0 60.0 L 92.0 61.0 L 92.0 62.0 L 92.0 63.0 L 92.0 64.0 L 92.0 65.0 L 92.0 66.0 L 92.0 66.5 Z" stroke="none" fill="rgb(255,201,39)" />
<path d="M 49.5 108.0 L 50.0 108.0 L 51.0 108.0 L 52.0 108.0 L 53.0 108.0 L 54.0 108.0 L 55.0 108.0 L 56.0 108.0 L 56.666666666666664 107.66666666666667 L 57.0 107.0 L 57.0 106.0 L 57.0 105.0 L 56.666666666666664 104.33333333333333 L 56.0 104.0 L 55.0 104.0 L 54.0 104.0 L 53.0 103.66666666666667 L 52.0 103.33333333333333 L 51.0 103.0 L 50.0 103.0 L 49.0 103.0 L 48.0 103.0 L 47.0 103.0 L 46.333333333333336 103.33333333333333 L 46.0 104.0 L 46.0 105.0 L 46.0 106.0 L 46.333333333333336 107.0 L 47.0 107.66666666666667 L 48.0 108.0 L 48.5 108.0 Z" stroke="none" fill="rgb(255,201,39)" />
<path d="M 31.5 78.5 L 32.0 79.0 L 33.0 79.66666666666667 L 34.0 80.0 L 35.0 80.0 L 35.666666666666664 79.66666666666667 L 36.0 79.0 L 35.666666666666664 78.0 L 35.333333333333336 77.0 L 35.0 76.0 L 34.666666666666664 75.0 L 34.0 74.0 L 33.333333333333336 73.0 L 32.666666666666664 72.33333333333333 L 32.0 71.66666666666667 L 31.0 71.33333333333333 L 30.0 71.0 L 29.0 71.33333333333333 L 28.333333333333332 72.0 L 28.0 73.0 L 28.0 74.0 L 28.0 75.0 L 28.333333333333332 76.0 L 29.0 77.0 L 30.0 77.66666666666667 L 30.5 78.0 Z" stroke="none" fill="rgb(218,91,29)" />
<path d="M 37.5 65.5 L 38.0 65.33333333333333 L 39.0 64.66666666666667 L 40.0 64.33333333333333 L 40.666666666666664 63.666666666666664 L 40.666666666666664 63.0 L 40.0 62.0 L 39.0 61.0 L 38.333333333333336 60.0 L 37.666666666666664 59.0 L 37.0 58.333333333333336 L 36.0 58.0 L 35.0 58.0 L 34.0 58.333333333333336 L 33.333333333333336 59.0 L 33.0 60.0 L 33.0 61.0 L 33.333333333333336 62.0 L 33.666666666666664 63.0 L 34.0 64.0 L 34.0 65.0 L 34.0 66.0 L 34.333333333333336 66.66666666666667 L 35.0 67.0 L 36.0 66.66666666666667 L 36.5 66.5 Z" stroke="none" fill="rgb(255,196,30)" />
<path d="M 50.5 57.5 L 50.666666666666664 57.0 L 51.0 56.0 L 50.666666666666664 55.0 L 50.0 54.333333333333336 L 49.0 53.666666666666664 L 48.0 53.333333333333336 L 47.0 52.666666666666664 L 46.0 52.333333333333336 L 45.0 52.0 L 44.0 52.0 L 43.0 52.333333333333336 L 42.333333333333336 53.0 L 42.333333333333336 54.0 L 43.0 55.0 L 44.0 56.0 L 45.0 57.0 L 45.666666666666664 58.0 L 46.333333333333336 59.0 L 47.0 59.666666666666664 L 48.0 60.0 L 48.666666666666664 59.666666666666664 L 49.333333333333336 59.0 L 49.5 58.5 Z" stroke="none" fill="rgb(255,182,6)" />
<path d="M 17.5 87.5 L 17.666666666666668 88.0 L 18.333333333333332 89.0 L 18.666666666666668 90.0 L 19.0 91.0 L 19.333333333333332 92.0 L 20.0 92.66666666666667 L 21.0 93.0 L 22.0 93.0 L 23.0 93.0 L 23.666666666666668 92.66666666666667 L 24.0 92.0 L 23.666666666666668 91.0 L 23.0 90.0 L 22.0 89.0 L 21.333333333333332 88.0 L 20.666666666666668 87.0 L 20.333333333333332 86.0 L 19.666666666666668 85.0 L 19.333333333333332 84.0 L 18.666666666666668 83.33333333333333 L 18.0 83.0 L 17.0 83.0 L 16.333333333333332 83.33333333333333 L 16.333333333333332 84.0 L 16.666666666666668 85.0 L 17.0 86.0 L 17.0 86.5 Z" stroke="none" fill="rgb(250,141,7)" />
<path d="M 47.5 61.5 L 47.666666666666664 61.0 L 47.666666666666664 60.0 L 47.0 59.0 L 46.333333333333336 58.0 L 45.666666666666664 57.0 L 45.0 56.0 L 44.0 55.0 L 43.0 54.333333333333336 L 42.0 54.0 L 41.0 54.333333333333336 L 40.333333333333336 55.0 L 40.0 56.0 L 40.333333333333336 57.0 L 41.0 58.0 L 41.666666666666664 59.0 L 42.333333333333336 60.0 L 43.0 61.0 L 44.0 61.666666666666664 L 45.0 62.0 L 46.0 62.0 L 46.5 62.0 Z" stroke="none" fill="rgb(255,187,15)" />
<path d="M 30.5 80.5 L 31.0 81.0 L 32.0 82.0 L 33.0 83.0 L 34.0 83.66666666666667 L 35.0 84.0 L 35.666666666666664 83.66666666666667 L 36.0 83.0 L 36.0 82.0 L 35.666666666666664 81.0 L 35.0 80.33333333333333 L 34.0 79.66666666666667 L 33.0 79.0 L 32.0 78.33333333333333 L 31.0 77.66666666666667 L 30.0 77.0 L 29.0 76.33333333333333 L 28.0 76.0 L 27.0 76.0 L 26.333333333333332 76.33333333333333 L 26.0 77.0 L 26.333333333333332 78.0 L 27.0 78.66666666666667 L 28.0 79.33333333333333 L 29.0 79.66666666666667 L 29.5 80.0 Z" stroke="none" fill="rgb(250,141,7)" />
<path d="M 39.5 62.5 L 40.0 63.0 L 41.0 63.666666666666664 L 42.0 63.666666666666664 L 43.0 63.333333333333336 L 43.666666666666664 62.666666666666664 L 44.0 62.0 L 43.666666666666664 61.0 L 43.0 60.0 L 42.333333333333336 59.0 L 41.666666666666664 58.0 L 41.0 57.0 L 40.0 56.333333333333336 L 39.0 56.0 L 38.0 56.333333333333336 L 37.333333333333336 57.0 L 37.0 58.0 L 37.333333333333336 59.0 L 37.666666666666664 60.0 L 38.333333333333336 61.0 L 38.5 61.5 Z" stroke="none" fill="rgb(255,192,23)" />
<path d="M 33.5 88.0 L 34.0 87.66666666666667 L 34.666666666666664 87.0 L 35.0 86.0 L 35.0 85.0 L 34.666666666666664 84.0 L 34.0 83.0 L 33.0 82.0 L 32.0 81.0 L 31.0 80.33333333333333 L 30.0 80.0 L 29.0 80.0 L 28.333333333333332 80.33333333333333 L 28.0 81.0 L 28.333333333333332 82.0 L 29.0 83.0 L 29.666666666666668 84.0 L 30.333333333333332 85.0 L 31.0 86.0 L 32.0 87.0 L 32.5 87.5 Z" stroke="none" fill="rgb(218,91,29)" />
<path d="M 23.5 65.0 L 24.0 64.66666666666667 L 25.0 64.33333333333333 L 26.0 64.0 L 27.0 64.0 L 27.666666666666668 63.666666666666664 L 28.0 63.0 L 28.0 62.0 L 28.0 61.0 L 27.666666666666668 60.333333333333336 L 27.0 60.0 L 26.0 60.0 L 25.0 60.0 L 24.0 60.0 L 23.0 60.0 L 22.0 60.0 L 21.333333333333332 60.333333333333336 L 21.0 61.0 L 21.0 62.0 L 21.0 63.0 L 21.333333333333332 63.666666666666664 L 22.0 64.33333333333333 L 22.5 64.5 Z" stroke="none" fill="rgb(255,182,6)" />
<path d="M 13.5 88.5 L 14.0 89.0 L 15.0 90.0 L 16.0 91.0 L 17.0 91.66666666666667 L 18.0 92.0 L 18.666666666666668 91.66666666666667 L 19.0 91.0 L 19.0 90.0 L 18.666666666666668 89.0 L 18.333333333333332 88.0 L 17.666666666666668 87.0 L 17.0 86.33333333333333 L 16.0 85.66666666666667 L 15.0 85.33333333333333 L 14.0 85.0 L 13.0 85.33333333333333 L 12.333333333333334 86.0 L 12.333333333333334 87.0 L 12.5 87.5 Z" stroke="none" fill="rgb(218,91,29)" />
<path d="M 31.0 68.5 L 31.0 68.0 L 31.0 67.0 L 31.0 66.0 L 31.0 65.0 L 31.0 64.0 L 31.0 63.0 L 31.0 62.0 L 31.0 61.0 L 30.666666666666668 60.333333333333336 L 30.0 60.0 L 29.0 60.0 L 28.333333333333332 60.333333333333336 L 28.0 61.0 L 28.0 62.0 L 28.0 63.0 L 28.333333333333332 64.0 L 28.333333333333332 65.0 L 28.333333333333332 66.0 L 28.0 67.0 L 28.0 68.0 L 28.333333333333332 68.66666666666667 L 29.0 69.0 L 30.0 69.0 L 30.5 69.0 Z" stroke="none" fill="rgb(255,187,15)" />
<path d="M 33.5 68.0 L 33.666666666666664 67.66666666666667 L 34.0 67.0 L 34.0 66.0 L 34.0 65.0 L 34.0 64.0 L 34.0 63.0 L 33.666666666666664 62.0 L 33.333333333333336 61.0 L 33.0 60.0 L 32.666666666666664 59.333333333333336 L 32.0 59.0 L 31.333333333333332 59.333333333333336 L 31.0 60.0 L 31.0 61.0 L 31.0 62.0 L 31.0 63.0 L 31.0 64.0 L 31.0 65.0 L 31.0 66.0 L 31.0 67.0 L 31.333333333333332 67.66666666666667 L 32.0 68.0 L 32.5 68.0 Z" stroke="none" fill="rgb(255,192,23)" />
<path d="M 13.5 82.5 L 14.0 82.66666666666667 L 15.0 83.0 L 15.666666666666666 82.66666666666667 L 16.0 82.0 L 16.0 81.0 L 15.666666666666666 80.33333333333333 L 15.0 79.66666666666667 L 14.666666666666666 79.0 L 14.666666666666666 78.0 L 14.666666666666666 77.33333333333333 L 14.0 77.0 L 13.0 77.33333333333333 L 12.333333333333334 78.0 L 12.0 79.0 L 12.0 80.0 L 12.333333333333334 81.0 L 12.5 81.5 Z" stroke="none" fill="rgb(242,122,5)" />
<path d="M 23.5 83.0 L 23.666666666666668 82.66666666666667 L 23.666666666666668 82.0 L 23.0 81.0 L 22.0 80.33333333333333 L 21.0 80.0 L 20.0 80.0 L 19.333333333333332 80.33333333333333 L 19.0 81.0 L 19.0 82.0 L 19.0 83.0 L 19.0 84.0 L 19.333333333333332 84.66666666666667 L 20.0 84.66666666666667 L 21.0 84.33333333333333 L 22.0 83.66666666666667 L 22.5 83.5 Z" stroke="none" fill="rgb(242,122,5)" />
<path d="M 56.0 36.5 L 56.333333333333336 36.0 L 56.666666666666664 35.0 L 57.0 34.0 L 56.666666666666664 33.333333333333336 L 56.0 33.333333333333336 L 55.0 33.666666666666664 L 54.0 34.333333333333336 L 53.0 34.666666666666664 L 52.0 35.333333333333336 L 51.333333333333336 36.0 L 51.333333333333336 36.666666666666664 L 52.0 37.0 L 53.0 36.666666666666664 L 54.0 36.666666666666664 L 55.0 36.666666666666664 L 55.5 37.0 Z" stroke="none" fill="rgb(0,173,150)" />
<path d="M 20.5 87.0 L 21.0 86.66666666666667 L 22.0 86.33333333333333 L 23.0 85.66666666666667 L 24.0 85.33333333333333 L 25.0 84.66666666666667 L 25.666666666666668 84.0 L 25.666666666666668 83.33333333333333 L 25.0 83.0 L 24.0 83.0 L 23.0 83.0 L 22.0 83.33333333333333 L 21.0 83.66666666666667 L 20.333333333333332 84.33333333333333 L 20.0 85.0 L 20.0 86.0 L 20.0 86.5 Z" stroke="none" fill="rgb(231,108,17)" />
<path d="M 26.5 67.0 L 27.0 67.0 L 28.0 66.66666666666667 L 28.666666666666668 66.0 L 29.0 65.0 L 28.666666666666668 64.33333333333333 L 28.0 64.0 L 27.0 64.0 L 26.0 64.0 L 25.0 64.0 L 24.333333333333332 64.33333333333333 L 24.0 65.0 L 24.333333333333332 65.66666666666667 L 25.0 66.33333333333333 L 25.5 66.5 Z" stroke="none" fill="rgb(237,166,0)" />
<path d="M 26.5 75.5 L 27.0 75.66666666666667 L 27.666666666666668 75.66666666666667 L 28.0 75.0 L 28.0 74.0 L 28.0 73.0 L 28.0 72.0 L 27.666666666666668 71.33333333333333 L 27.0 71.0 L 26.0 71.0 L 25.333333333333332 71.33333333333333 L 25.0 72.0 L 25.0 73.0 L 25.333333333333332 74.0 L 25.5 74.5 Z" stroke="none" fill="rgb(231,108,17)" />
<path d="M 27.5 71.5 L 28.0 71.66666666666667 L 29.0 71.66666666666667 L 29.666666666666668 71.0 L 29.666666666666668 70.33333333333333 L 29.0 69.66666666666667 L 28.0 69.33333333333333 L 27.0 69.0 L 26.0 69.0 L 25.333333333333332 69.33333333333333 L 25.333333333333332 70.0 L 26.0 70.66666666666667 L 26.5 71.0 Z" stroke="none" fill="rgb(0,0,0)" />
<path d="M 24.5 80.0 L 25.0 80.0 L 26.0 79.66666666666667 L 26.666666666666668 79.0 L 26.666666666666668 78.0 L 26.0 77.33333333333333 L 25.0 77.0 L 24.0 77.0 L 23.333333333333332 77.33333333333333 L 23.0 78.0 L 23.333333333333332 79.0 L 23.5 79.5 Z" stroke="none" fill="rgb(242,122,5)" />
<path d="M 14.0 84.5 L 14.0 84.0 L 14.0 83.0 L 13.666666666666666 82.0 L 13.0 81.33333333333333 L 12.0 81.33333333333333 L 11.333333333333334 82.0 L 11.0 83.0 L 11.333333333333334 84.0 L 12.0 84.66666666666667 L 13.0 85.0 L 13.5 85.0 Z" stroke="none" fill="rgb(250,141,7)" />
<path d="M 26.5 76.0 L 26.666666666666668 75.66666666666667 L 26.666666666666668 75.0 L 26.0 74.0 L 25.0 73.33333333333333 L 24.0 73.0 L 23.333333333333332 73.33333333333333 L 23.0 74.0 L 23.333333333333332 74.66666666666667 L 24.0 75.33333333333333 L 25.0 75.66666666666667 L 25.5 76.0 Z" stroke="none" fill="rgb(242,122,5)" />
<path d="M 84.5 63.0 L 84.66666666666667 62.666666666666664 L 85.0 62.0 L 85.0 61.0 L 85.0 60.0 L 85.0 59.0 L 85.0 58.0 L 84.66666666666667 57.333333333333336 L 84.33333333333333 57.333333333333336 L 84.0 58.0 L 84.0 59.0 L 84.0 60.0 L 84.0 61.0 L 84.0 62.0 L 84.0 62.5 Z" stroke="none" fill="rgb(0,0,0)" />
<path d="M 14.5 85.5 L 15.0 85.66666666666667 L 16.0 86.0 L 16.666666666666668 85.66666666666667 L 17.0 85.0 L 16.666666666666668 84.0 L 16.0 83.33333333333333 L 15.0 83.0 L 14.333333333333334 83.33333333333333 L 14.0 84.0 L 14.0 84.5 Z" stroke="none" fill="rgb(231,108,17)" />
<path d="M 27.5 82.0 L 27.666666666666668 81.66666666666667 L 28.333333333333332 81.0 L 28.666666666666668 80.0 L 28.666666666666668 79.33333333333333 L 28.0 79.0 L 27.0 79.0 L 26.333333333333332 79.33333333333333 L 26.0 80.0 L 26.333333333333332 81.0 L 26.5 81.5 Z" stroke="none" fill="rgb(231,108,17)" />
<path d="M 17.5 72.0 L 18.0 71.66666666666667 L 18.666666666666668 71.0 L 18.666666666666668 70.33333333333333 L 18.0 70.0 L 17.0 70.33333333333333 L 16.333333333333332 71.0 L 16.333333333333332 71.66666666666667 L 16.5 72.0 Z" stroke="none" fill="rgb(0,0,0)" />
<path d="M 11.5 82.0 L 11.666666666666666 81.66666666666667 L 12.0 81.0 L 12.0 80.0 L 12.0 79.0 L 11.666666666666666 78.33333333333333 L 11.333333333333334 78.33333333333333 L 11.0 79.0 L 11.0 80.0 L 11.0 81.0 L 11.0 81.5 Z" stroke="none" fill="rgb(0,0,0)" />
<path d="M 23.5 71.0 L 24.0 71.0 L 24.666666666666668 70.66666666666667 L 25.0 70.0 L 24.666666666666668 69.33333333333333 L 24.0 69.0 L 23.333333333333332 69.33333333333333 L 23.0 70.0 L 23.0 70.5 Z" stroke="none" fill="rgb(231,108,17)" />
<path d="M 14.5 75.0 L 15.0 75.0 L 15.666666666666666 74.66666666666667 L 16.0 74.0 L 15.666666666666666 73.33333333333333 L 15.0 73.0 L 14.333333333333334 73.33333333333333 L 14.0 74.0 L 14.0 74.5 Z" stroke="none" fill="rgb(242,122,5)" />
<path d="M 50.0 38.5 L 49.666666666666664 38.333333333333336 L 49.0 38.0 L 48.333333333333336 38.333333333333336 L 48.333333333333336 38.666666666666664 L 49.0 39.0 L 49.5 39.0 Z" stroke="none" fill="rgb(0,0,0)" />
<path d="M 14.5 73.0 L 15.0 73.0 L 15.666666666666666 72.66666666666667 L 15.666666666666666 72.33333333333333 L 15.0 72.0 L 14.333333333333334 72.33333333333333 L 14.0 72.5 Z" stroke="none" fill="rgb(0,0,0)" />
<path d="M 38.0 14.5 L 37.666666666666664 14.333333333333334 L 37.333333333333336 14.333333333333334 L 37.333333333333336 14.666666666666666 L 37.5 15.0 Z" stroke="none" fill="rgb(0,0,0)" />
<path d="M 38.5 16.0 L 38.666666666666664 15.666666666666666 L 38.666666666666664 15.333333333333334 L 38.333333333333336 15.333333333333334 L 38.0 15.5 Z" stroke="none" fill="rgb(0,0,0)" />
<path d="M 50.5 38.0 L 50.666666666666664 37.666666666666664 L 50.666666666666664 37.333333333333336 L 50.333333333333336 37.333333333333336 L 50.0 37.5 Z" stroke="none" fill="rgb(0,173,150)" />
<path d="M 79.5 40.0 L 79.66666666666667 39.666666666666664 L 79.66666666666667 39.333333333333336 L 79.33333333333333 39.333333333333336 L 79.0 39.5 Z" stroke="none" fill="rgb(0,0,0)" />
<path d="M 86.5 47.0 L 86.66666666666667 46.666666666666664 L 86.66666666666667 46.333333333333336 L 86.33333333333333 46.333333333333336 L 86.0 46.5 Z" stroke="none" fill="rgb(0,0,0)" />
<path d="M 40.0 55.5 L 39.666666666666664 55.333333333333336 L 39.333333333333336 55.333333333333336 L 39.333333333333336 55.666666666666664 L 39.5 56.0 Z" stroke="none" fill="rgb(0,0,0)" />
<path d="M 36.5 58.0 L 36.666666666666664 57.666666666666664 L 36.666666666666664 57.333333333333336 L 36.333333333333336 57.333333333333336 L 36.0 57.5 Z" stroke="none" fill="rgb(0,0,0)" />
<path d="M 30.5 60.0 L 30.666666666666668 59.666666666666664 L 30.666666666666668 59.333333333333336 L 30.333333333333332 59.333333333333336 L 30.0 59.5 Z" stroke="none" fill="rgb(0,0,0)" />
<path d="M 31.5 69.0 L 31.666666666666668 68.66666666666667 L 31.666666666666668 68.33333333333333 L 31.333333333333332 68.33333333333333 L 31.0 68.5 Z" stroke="none" fill="rgb(0,0,0)" />
<path d="M 19.5 70.0 L 19.666666666666668 69.66666666666667 L 19.666666666666668 69.33333333333333 L 19.333333333333332 69.33333333333333 L 19.0 69.5 Z" stroke="none" fill="rgb(0,0,0)" />
<path d="M 22.5 70.0 L 22.666666666666668 69.66666666666667 L 22.666666666666668 69.33333333333333 L 22.333333333333332 69.33333333333333 L 22.0 69.5 Z" stroke="none" fill="rgb(0,0,0)" />
<path d="M 25.5 71.0 L 25.666666666666668 70.66666666666667 L 25.666666666666668 70.33333333333333 L 25.333333333333332 70.33333333333333 L 25.0 70.5 Z" stroke="none" fill="rgb(253,156,24)" />
<path d="M 21.5 74.0 L 21.666666666666668 73.66666666666667 L 21.666666666666668 73.33333333333333 L 21.333333333333332 73.33333333333333 L 21.0 73.5 Z" stroke="none" fill="rgb(250,141,7)" />
<path d="M 51.5 74.0 L 51.666666666666664 73.66666666666667 L 51.666666666666664 73.33333333333333 L 51.333333333333336 73.33333333333333 L 51.0 73.5 Z" stroke="none" fill="rgb(0,0,0)" />
<path d="M 14.0 74.5 L 13.666666666666666 74.33333333333333 L 13.333333333333334 74.33333333333333 L 13.333333333333334 74.66666666666667 L 13.5 75.0 Z" stroke="none" fill="rgb(0,0,0)" />
<path d="M 13.0 75.5 L 12.666666666666666 75.33333333333333 L 12.333333333333334 75.33333333333333 L 12.333333333333334 75.66666666666667 L 12.5 76.0 Z" stroke="none" fill="rgb(0,0,0)" />
<path d="M 35.5 81.0 L 35.666666666666664 80.66666666666667 L 35.666666666666664 80.33333333333333 L 35.333333333333336 80.33333333333333 L 35.0 80.5 Z" stroke="none" fill="rgb(0,0,0)" />
<path d="M 28.5 83.0 L 28.666666666666668 82.66666666666667 L 28.666666666666668 82.33333333333333 L 28.333333333333332 82.33333333333333 L 28.0 82.5 Z" stroke="none" fill="rgb(231,108,17)" />
<path d="M 47.5 83.0 L 47.666666666666664 82.66666666666667 L 47.666666666666664 82.33333333333333 L 47.333333333333336 82.33333333333333 L 47.0 82.5 Z" stroke="none" fill="rgb(0,0,0)" />
<path d="M 30.0 83.5 L 29.666666666666668 83.33333333333333 L 29.333333333333332 83.33333333333333 L 29.333333333333332 83.66666666666667 L 29.5 84.0 Z" stroke="none" fill="rgb(231,108,17)" />
<path d="M 26.5 85.0 L 26.666666666666668 84.66666666666667 L 26.666666666666668 84.33333333333333 L 26.333333333333332 84.33333333333333 L 26.0 84.5 Z" stroke="none" fill="rgb(231,108,17)" />
<path d="M 12.5 86.0 L 12.666666666666666 85.66666666666667 L 12.666666666666666 85.33333333333333 L 12.333333333333334 85.33333333333333 L 12.0 85.5 Z" stroke="none" fill="rgb(0,0,0)" />
<path d="M 28.0 85.5 L 27.666666666666668 85.33333333333333 L 27.333333333333332 85.33333333333333 L 27.333333333333332 85.66666666666667 L 27.5 86.0 Z" stroke="none" fill="rgb(231,108,17)" />
<path d="M 109.5 88.0 L 109.66666666666667 87.66666666666667 L 109.66666666666667 87.33333333333333 L 109.33333333333333 87.33333333333333 L 109.0 87.5 Z" stroke="none" fill="rgb(0,0,0)" />
</svg>
