<?xml version="1.0" encoding="UTF-8" standalone="no"?>
<!DOCTYPE svg PUBLIC "-//W3C//DTD SVG 1.1//EN"
"http://www.w3.org/Graphics/SVG/1.1/DTD/svg11.dtd">
<svg width="128" height="128" xmlns="http://www.w3.org/2000/svg" version="1.1">
<path d="M 88.5 24.5 L 89.0 24.666666666666668 L 90.0 25.333333333333332 L 91.0 26.0 L 92.0 27.0 L 93.0 28.0 L 94.0 29.0 L 95.0 29.666666666666668 L 96.0 30.333333333333332 L 96.66666666666667 31.0 L 97.33333333333333 32.0 L 98.0 33.0 L 99.0 34.0 L 100.0 35.0 L 100.66666666666667 36.0 L 101.33333333333333 37.0 L 102.0 38.0 L 102.66666666666667 39.0 L 103.33333333333333 40.0 L 103.66666666666667 41.0 L 104.33333333333333 42.0 L 105.0 42.666666666666664 L 106.0 43.0 L 107.0 43.0 L 108.0 43.0 L 109.0 43.333333333333336 L 110.0 43.666666666666664 L 111.0 44.333333333333336 L 112.0 45.0 L 113.0 46.0 L 114.0 47.0 L 115.0 48.0 L 115.66666666666667 49.0 L 116.33333333333333 50.0 L 117.0 51.0 L 117.66666666666667 52.0 L 118.0 53.0 L 118.33333333333333 54.0 L 118.66666666666667 55.0 L 119.0 56.0 L 119.0 57.0 L 119.0 58.0 L 119.0 59.0 L 119.0 60.0 L 119.0 61.0 L 119.0 62.0 L 118.66666666666667 63.0 L 118.33333333333333 64.0 L 118.0 65.0 L 118.0 66.0 L 117.66666666666667 67.0 L 117.33333333333333 68.0 L 117.0 69.0 L 117.0 70.0 L 117.0 71.0 L 117.33333333333333 72.0 L 118.0 73.0 L 119.0 74.0 L 119.66666666666667 75.0 L 120.33333333333333 76.0 L 121.0 77.0 L 122.0 78.0 L 122.66666666666667 79.0 L 123.33333333333333 80.0 L 123.66666666666667 81.0 L 124.33333333333333 82.0 L 124.66666666666667 83.0 L 125.0 84.0 L 125.33333333333333 85.0 L 125.66666666666667 86.0 L 126.33333333333333 87.0 L 126.66666666666667 88.0 L 127.0 89.0 L 127.0 90.0 L 127.0 91.0 L 127.33333333333333 91.66666666666667 L 127.66666666666667 91.66666666666667 L 128.0 91.0 L 128.0 90.0 L 128.0 89.0 L 128.0 88.0 L 128.0 87.0 L 128.0 86.0 L 128.0 85.0 L 128.0 84.0 L 128.0 83.0 L 128.0 82.0 L 128.0 81.0 L 128.0 80.0 L 128.0 79.0 L 128.0 78.0 L 128.0 77.0 L 128.0 76.0 L 128.0 75.0 L 128.0 74.0 L 128.0 73.0 L 128.0 72.0 L 128.0 71.0 L 128.0 70.0 L 128.0 69.0 L 128.0 68.0 L 128.0 67.0 L 128.0 66.0 L 128.0 65.0 L 128.0 64.0 L 128.0 63.0 L 128.0 62.0 L 128.0 61.0 L 128.0 60.0 L 128.0 59.0 L 128.0 58.0 L 128.0 57.0 L 128.0 56.0 L 128.0 55.0 L 128.0 54.0 L 128.0 53.0 L 128.0 52.0 L 128.0 51.0 L 128.0 50.0 L 128.0 49.0 L 128.0 48.0 L 128.0 47.0 L 128.0 46.0 L 128.0 45.0 L 128.0 44.0 L 128.0 43.0 L 128.0 42.0 L 128.0 41.0 L 128.0 40.0 L 128.0 39.0 L 128.0 38.0 L 128.0 37.0 L 128.0 36.0 L 128.0 35.0 L 128.0 34.0 L 128.0 33.0 L 128.0 32.0 L 128.0 31.0 L 128.0 30.0 L 128.0 29.0 L 128.0 28.0 L 128.0 27.0 L 128.0 26.0 L 128.0 25.0 L 128.0 24.0 L 128.0 23.0 L 128.0 22.0 L 128.0 21.0 L 128.0 20.0 L 128.0 19.0 L 128.0 18.0 L 128.0 17.0 L 128.0 16.0 L 128.0 15.0 L 128.0 14.0 L 128.0 13.0 L 128.0 12.0 L 128.0 11.0 L 128.0 10.0 L 128.0 9.0 L 128.0 8.0 L 128.0 7.0 L 128.0 6.0 L 128.0 5.0 L 128.0 4.0 L 128.0 3.0 L 128.0 2.0 L 128.0 1.0 L 127.66666666666667 0.3333333333333333 L 127.0 0.0 L 126.0 0.0 L 125.0 0.0 L 124.0 0.0 L 123.0 0.0 L 122.0 0.0 L 121.0 0.0 L 120.0 0.0 L 119.0 0.0 L 118.0 0.0 L 117.0 0.0 L 116.0 0.0 L 115.0 0.0 L 114.0 0.0 L 113.0 0.0 L 112.0 0.0 L 111.0 0.0 L 110.0 0.0 L 109.0 0.0 L 108.0 0.0 L 107.0 0.0 L 106.0 0.0 L 105.0 0.0 L 104.0 0.0 L 103.0 0.0 L 102.0 0.0 L 101.0 0.0 L 100.0 0.0 L 99.0 0.0 L 98.0 0.0 L 97.0 0.0 L 96.0 0.0 L 95.0 0.0 L 94.0 0.0 L 93.0 0.0 L 92.0 0.0 L 91.0 0.0 L 90.0 0.0 L 89.0 0.0 L 88.0 0.0 L 87.0 0.0 L 86.0 0.0 L 85.0 0.0 L 84.0 0.0 L 83.0 0.0 L 82.0 0.0 L 81.0 0.0 L 80.0 0.0 L 79.0 0.0 L 78.0 0.0 L 77.0 0.0 L 76.0 0.0 L 75.0 0.0 L 74.0 0.0 L 73.0 0.0 L 72.0 0.0 L 71.0 0.0 L 70.0 0.0 L 69.0 0.0 L 68.0 0.0 L 67.0 0.0 L 66.0 0.0 L 65.0 0.0 L 64.0 0.0 L 63.0 0.0 L 62.0 0.0 L 61.0 0.0 L 60.0 0.0 L 59.0 0.0 L 58.0 0.0 L 57.0 0.0 L 56.0 0.0 L 55.0 0.0 L 54.0 0.0 L 53.0 0.0 L 52.0 0.0 L 51.0 0.0 L 50.0 0.0 L 49.0 0.0 L 48.0 0.0 L 47.0 0.0 L 46.0 0.0 L 45.0 0.0 L 44.0 0.0 L 43.0 0.0 L 42.0 0.0 L 41.0 0.0 L 40.0 0.0 L 39.0 0.0 L 38.0 0.0 L 37.0 0.0 L 36.0 0.0 L 35.0 0.0 L 34.0 0.0 L 33.0 0.0 L 32.0 0.0 L 31.0 0.0 L 30.0 0.0 L 29.0 0.0 L 28.0 0.0 L 27.0 0.0 L 26.0 0.0 L 25.0 0.0 L 24.0 0.0 L 23.0 0.0 L 22.0 0.0 L 21.0 0.0 L 20.0 0.0 L 19.0 0.0 L 18.0 0.0 L 17.0 0.0 L 16.0 0.0 L 15.0 0.0 L 14.0 0.0 L 13.0 0.0 L 12.0 0.0 L 11.0 0.0 L 10.0 0.0 L 9.0 0.0 L 8.0 0.0 L 7.0 0.0 L 6.0 0.0 L 5.0 0.0 L 4.0 0.0 L 3.0 0.0 L 2.0 0.0 L 1.0 0.0 L 0.3333333333333333 0.3333333333333333 L 0.0 1.0 L 0.0 2.0 L 0.0 3.0 L 0.0 4.0 L 0.0 5.0 L 0.0 6.0 L 0.0 7.0 L 0.0 8.0 L 0.0 9.0 L 0.0 10.0 L 0.0 11.0 L 0.0 12.0 L 0.0 13.0 L 0.0 14.0 L 0.0 15.0 L 0.0 16.0 L 0.0 17.0 L 0.0 18.0 L 0.0 19.0 L 0.0 20.0 L 0.0 21.0 L 0.0 22.0 L 0.0 23.0 L 0.0 24.0 L 0.0 25.0 L 0.0 26.0 L 0.0 27.0 L 0.0 28.0 L 0.0 29.0 L 0.0 30.0 L 0.0 31.0 L 0.0 32.0 L 0.0 33.0 L 0.0 34.0 L 0.0 35.0 L 0.0 36.0 L 0.0 37.0 L 0.0 38.0 L 0.0 39.0 L 0.0 40.0 L 0.0 41.0 L 0.0 42.0 L 0.0 43.0 L 0.0 44.0 L 0.0 45.0 L 0.0 46.0 L 0.0 47.0 L 0.0 48.0 L 0.0 49.0 L 0.0 50.0 L 0.0 51.0 L 0.0 52.0 L 0.0 53.0 L 0.0 54.0 L 0.0 55.0 L 0.0 56.0 L 0.0 57.0 L 0.0 58.0 L 0.0 59.0 L 0.0 60.0 L 0.0 61.0 L 0.0 62.0 L 0.0 63.0 L 0.0 64.0 L 0.0 65.0 L 0.0 66.0 L 0.0 67.0 L 0.0 68.0 L 0.0 69.0 L 0.0 70.0 L 0.0 71.0 L 0.0 72.0 L 0.0 73.0 L 0.0 74.0 L 0.0 75.0 L 0.0 76.0 L 0.0 77.0 L 0.0 78.0 L 0.0 79.0 L 0.0 80.0 L 0.0 81.0 L 0.0 82.0 L 0.0 83.0 L 0.0 84.0 L 0.0 85.0 L 0.0 86.0 L 0.0 87.0 L 0.0 88.0 L 0.0 89.0 L 0.0 90.0 L 0.0 91.0 L 0.0 92.0 L 0.0 93.0 L 0.3333333333333333 93.66666666666667 L 0.6666666666666666 93.66666666666667 L 1.0 93.0 L 1.0 92.0 L 1.0 91.0 L 1.0 90.0 L 1.3333333333333333 89.0 L 1.6666666666666667 88.0 L 2.0 87.0 L 2.3333333333333335 86.0 L 2.6666666666666665 85.0 L 3.0 84.0 L 3.3333333333333335 83.0 L 3.6666666666666665 82.0 L 4.333333333333333 81.0 L 4.666666666666667 80.0 L 5.333333333333333 79.0 L 5.666666666666667 78.0 L 6.333333333333333 77.0 L 6.666666666666667 76.0 L 7.333333333333333 75.0 L 7.666666666666667 74.0 L 8.333333333333334 73.0 L 8.666666666666666 72.0 L 9.333333333333334 71.0 L 9.666666666666666 70.0 L 10.0 69.0 L 10.0 68.0 L 10.0 67.0 L 10.0 66.0 L 9.666666666666666 65.0 L 9.333333333333334 64.0 L 9.0 63.0 L 8.666666666666666 62.0 L 8.333333333333334 61.0 L 8.0 60.0 L 8.0 59.0 L 8.0 58.0 L 8.0 57.0 L 8.0 56.0 L 8.333333333333334 55.0 L 8.666666666666666 54.0 L 9.0 53.0 L 9.333333333333334 52.0 L 9.666666666666666 51.0 L 10.333333333333334 50.0 L 11.0 49.0 L 12.0 48.0 L 13.0 47.0 L 14.0 46.0 L 15.0 45.333333333333336 L 16.0 44.666666666666664 L 17.0 44.333333333333336 L 18.0 44.0 L 19.0 44.0 L 20.0 43.666666666666664 L 21.0 43.333333333333336 L 22.0 43.333333333333336 L 23.0 43.666666666666664 L 23.666666666666668 43.666666666666664 L 24.0 43.0 L 24.333333333333332 42.0 L 24.666666666666668 41.0 L 25.333333333333332 40.0 L 25.666666666666668 39.0 L 26.333333333333332 38.0 L 27.0 37.0 L 27.666666666666668 36.0 L 28.333333333333332 35.0 L 29.0 34.0 L 30.0 33.0 L 31.0 32.0 L 31.666666666666668 31.0 L 32.333333333333336 30.0 L 33.0 29.0 L 34.0 28.333333333333332 L 35.0 27.666666666666668 L 36.0 27.0 L 37.0 26.0 L 38.0 25.333333333333332 L 39.0 24.666666666666668 L 40.0 24.0 L 41.0 23.333333333333332 L 42.0 22.666666666666668 L 43.0 22.333333333333332 L 44.0 21.666666666666668 L 45.0 21.333333333333332 L 46.0 21.0 L 47.0 20.666666666666668 L 48.0 20.333333333333332 L 49.0 20.0 L 50.0 19.666666666666668 L 51.0 19.333333333333332 L 52.0 19.0 L 53.0 19.0 L 54.0 18.666666666666668 L 55.0 18.333333333333332 L 56.0 18.0 L 57.0 18.0 L 58.0 18.0 L 59.0 18.0 L 60.0 18.0 L 61.0 18.0 L 62.0 18.0 L 63.0 18.0 L 64.0 18.0 L 65.0 18.0 L 66.0 18.0 L 67.0 18.0 L 68.0 18.0 L 69.0 18.0 L 70.0 18.0 L 71.0 18.0 L 72.0 18.333333333333332 L 73.0 18.666666666666668 L 74.0 19.0 L 75.0 19.0 L 76.0 19.0 L 77.0 19.333333333333332 L 78.0 19.666666666666668 L 79.0 20.0 L 80.0 20.333333333333332 L 81.0 20.666666666666668 L 82.0 21.333333333333332 L 83.0 21.666666666666668 L 84.0 22.333333333333332 L 85.0 22.666666666666668 L 86.0 23.333333333333332 L 87.0 23.666666666666668 L 87.5 24.0 Z" stroke="none" fill="rgb(255,255,255)" />
<path d="M 29.5 107.5 L 30.0 107.33333333333333 L 31.0 106.66666666666667 L 32.0 106.0 L 33.0 105.0 L 34.0 104.0 L 35.0 103.0 L 36.0 102.33333333333333 L 36.666666666666664 101.66666666666667 L 37.333333333333336 101.0 L 38.0 100.33333333333333 L 39.0 100.0 L 40.0 100.0 L 41.0 100.33333333333333 L 42.0 100.66666666666667 L 43.0 101.0 L 44.0 101.33333333333333 L 45.0 101.66666666666667 L 46.0 102.0 L 47.0 102.0 L 48.0 102.33333333333333 L 49.0 102.66666666666667 L 50.0 103.0 L 51.0 103.0 L 52.0 103.0 L 53.0 103.0 L 54.0 103.0 L 55.0 103.33333333333333 L 56.0 103.66666666666667 L 57.0 104.0 L 58.0 104.0 L 59.0 104.0 L 60.0 104.0 L 61.0 104.0 L 62.0 104.0 L 63.0 104.0 L 64.0 104.0 L 65.0 104.0 L 66.0 104.0 L 67.0 104.0 L 68.0 104.0 L 69.0 104.0 L 70.0 104.0 L 71.0 104.0 L 72.0 103.66666666666667 L 73.0 103.33333333333333 L 74.0 103.0 L 75.0 103.0 L 76.0 103.0 L 77.0 103.0 L 78.0 103.0 L 79.0 102.66666666666667 L 80.0 102.33333333333333 L 81.0 102.0 L 82.0 102.0 L 83.0 101.66666666666667 L 84.0 101.33333333333333 L 85.0 100.66666666666667 L 86.0 100.33333333333333 L 87.0 100.0 L 88.0 99.66666666666667 L 89.0 99.66666666666667 L 90.0 100.0 L 91.0 101.0 L 92.0 102.0 L 93.0 103.0 L 94.0 104.0 L 95.0 104.66666666666667 L 96.0 105.33333333333333 L 97.0 106.0 L 98.0 107.0 L 99.0 107.66666666666667 L 100.0 108.33333333333333 L 101.0 109.0 L 102.0 109.66666666666667 L 103.0 110.33333333333333 L 104.0 110.66666666666667 L 105.0 111.0 L 106.0 111.33333333333333 L 107.0 111.66666666666667 L 108.0 112.0 L 109.0 112.0 L 110.0 112.33333333333333 L 111.0 112.66666666666667 L 112.0 113.0 L 113.0 113.0 L 114.0 113.0 L 115.0 112.66666666666667 L 116.0 112.33333333333333 L 117.0 112.0 L 118.0 112.0 L 119.0 111.66666666666667 L 120.0 111.33333333333333 L 121.0 110.66666666666667 L 122.0 110.0 L 123.0 109.0 L 124.0 108.0 L 125.0 107.0 L 125.66666666666667 106.0 L 126.33333333333333 105.0 L 126.66666666666667 104.0 L 127.0 103.0 L 127.33333333333333 102.0 L 127.66666666666667 101.0 L 128.0 100.0 L 128.0 99.0 L 128.0 98.0 L 128.0 97.0 L 128.0 96.0 L 128.0 95.0 L 128.0 94.0 L 128.0 93.0 L 127.66666666666667 92.0 L 127.33333333333333 91.0 L 127.0 90.0 L 127.0 89.0 L 127.0 88.0 L 126.66666666666667 87.0 L 126.33333333333333 86.0 L 125.66666666666667 85.0 L 125.33333333333333 84.0 L 125.0 83.0 L 124.66666666666667 82.0 L 124.33333333333333 81.0 L 123.66666666666667 80.0 L 123.33333333333333 79.0 L 122.66666666666667 78.0 L 122.0 77.0 L 121.0 76.0 L 120.33333333333333 75.0 L 119.66666666666667 74.0 L 119.0 73.0 L 118.0 72.0 L 117.33333333333333 71.0 L 117.0 70.0 L 117.33333333333333 69.0 L 117.66666666666667 68.0 L 118.0 67.0 L 118.0 66.0 L 118.33333333333333 65.0 L 118.66666666666667 64.0 L 119.0 63.0 L 119.0 62.0 L 119.0 61.0 L 119.0 60.0 L 119.0 59.0 L 119.0 58.0 L 119.0 57.0 L 119.0 56.0 L 119.0 55.0 L 118.66666666666667 54.0 L 118.33333333333333 53.0 L 118.0 52.0 L 117.66666666666667 51.0 L 117.0 50.0 L 116.33333333333333 49.0 L 115.66666666666667 48.0 L 115.0 47.0 L 114.0 46.0 L 113.0 45.0 L 112.0 44.333333333333336 L 111.0 43.666666666666664 L 110.0 43.333333333333336 L 109.0 43.0 L 108.0 43.333333333333336 L 107.0 44.0 L 106.0 44.333333333333336 L 105.33333333333333 44.0 L 105.0 43.0 L 104.66666666666667 42.0 L 104.33333333333333 41.0 L 103.66666666666667 40.0 L 103.33333333333333 39.0 L 102.66666666666667 38.0 L 102.0 37.0 L 101.33333333333333 36.0 L 100.66666666666667 35.0 L 100.0 34.0 L 99.0 33.0 L 98.0 32.0 L 97.33333333333333 31.0 L 96.66666666666667 30.333333333333332 L 96.0 29.666666666666668 L 95.0 29.0 L 94.0 28.0 L 93.0 27.0 L 92.0 26.0 L 91.0 25.333333333333332 L 90.0 24.666666666666668 L 89.0 24.333333333333332 L 88.0 23.666666666666668 L 87.0 23.333333333333332 L 86.0 22.666666666666668 L 85.0 22.333333333333332 L 84.0 21.666666666666668 L 83.0 21.333333333333332 L 82.0 20.666666666666668 L 81.0 20.333333333333332 L 80.0 20.0 L 79.0 19.666666666666668 L 78.0 19.333333333333332 L 77.0 19.0 L 76.0 19.0 L 75.0 19.0 L 74.0 18.666666666666668 L 73.0 18.333333333333332 L 72.0 18.0 L 71.0 18.0 L 70.0 18.0 L 69.0 18.0 L 68.0 18.0 L 67.0 18.0 L 66.0 18.0 L 65.0 18.0 L 64.0 18.0 L 63.0 18.0 L 62.0 18.0 L 61.0 18.0 L 60.0 18.0 L 59.0 18.0 L 58.0 18.0 L 57.0 18.0 L 56.0 18.0 L 55.0 18.0 L 54.0 18.333333333333332 L 53.0 18.666666666666668 L 52.0 19.0 L 51.0 19.0 L 50.0 19.333333333333332 L 49.0 19.666666666666668 L 48.0 20.0 L 47.0 20.333333333333332 L 46.0 20.666666666666668 L 45.0 21.0 L 44.0 21.333333333333332 L 43.0 21.666666666666668 L 42.0 22.333333333333332 L 41.0 22.666666666666668 L 40.0 23.333333333333332 L 39.0 24.0 L 38.0 24.666666666666668 L 37.0 25.333333333333332 L 36.0 26.0 L 35.0 27.0 L 34.0 27.666666666666668 L 33.0 28.333333333333332 L 32.333333333333336 29.0 L 31.666666666666668 30.0 L 31.0 31.0 L 30.0 32.0 L 29.0 33.0 L 28.333333333333332 34.0 L 27.666666666666668 35.0 L 27.0 36.0 L 26.333333333333332 37.0 L 25.666666666666668 38.0 L 25.333333333333332 39.0 L 24.666666666666668 40.0 L 24.333333333333332 41.0 L 24.0 42.0 L 24.0 43.0 L 24.0 44.0 L 24.333333333333332 45.0 L 25.0 46.0 L 25.666666666666668 47.0 L 26.0 48.0 L 26.0 49.0 L 26.0 50.0 L 26.0 51.0 L 26.0 52.0 L 26.0 53.0 L 26.0 54.0 L 26.0 55.0 L 26.0 56.0 L 26.0 57.0 L 26.0 58.0 L 26.0 59.0 L 26.0 60.0 L 26.0 61.0 L 26.0 62.0 L 26.0 63.0 L 26.0 64.0 L 26.333333333333332 65.0 L 26.666666666666668 66.0 L 27.0 67.0 L 27.0 68.0 L 27.0 69.0 L 27.0 70.0 L 27.0 71.0 L 27.0 72.0 L 27.0 73.0 L 27.0 74.0 L 26.666666666666668 75.0 L 26.333333333333332 76.0 L 25.666666666666668 77.0 L 25.333333333333332 78.0 L 24.666666666666668 79.0 L 24.333333333333332 80.0 L 23.666666666666668 81.0 L 23.333333333333332 82.0 L 23.333333333333332 83.0 L 23.666666666666668 84.0 L 24.0 85.0 L 24.333333333333332 86.0 L 24.666666666666668 87.0 L 25.0 88.0 L 25.0 89.0 L 24.666666666666668 90.0 L 24.0 91.0 L 23.0 92.0 L 22.0 92.66666666666667 L 21.0 93.33333333333333 L 20.0 93.66666666666667 L 19.0 94.33333333333333 L 18.0 94.66666666666667 L 17.0 95.0 L 16.0 94.66666666666667 L 15.0 94.0 L 14.333333333333334 93.0 L 14.0 92.0 L 14.0 91.0 L 14.333333333333334 90.0 L 14.666666666666666 89.0 L 15.0 88.0 L 15.333333333333334 87.0 L 15.666666666666666 86.0 L 16.333333333333332 85.0 L 16.666666666666668 84.0 L 17.333333333333332 83.0 L 18.0 82.0 L 19.0 81.0 L 20.0 80.0 L 20.666666666666668 79.0 L 21.333333333333332 78.0 L 22.0 77.0 L 22.666666666666668 76.0 L 23.0 75.0 L 23.0 74.0 L 23.0 73.0 L 23.0 72.0 L 23.0 71.0 L 23.0 70.0 L 23.0 69.0 L 23.0 68.0 L 23.0 67.0 L 23.0 66.0 L 22.666666666666668 65.0 L 22.333333333333332 64.0 L 22.0 63.0 L 22.0 62.0 L 22.0 61.0 L 22.0 60.0 L 22.0 59.0 L 22.0 58.0 L 22.0 57.0 L 22.0 56.0 L 22.333333333333332 55.0 L 22.666666666666668 54.0 L 23.0 53.0 L 23.0 52.0 L 23.0 51.0 L 23.0 50.0 L 23.0 49.0 L 22.666666666666668 48.0 L 22.333333333333332 47.0 L 21.666666666666668 46.0 L 21.333333333333332 45.0 L 20.666666666666668 44.333333333333336 L 20.0 44.0 L 19.0 44.0 L 18.0 44.0 L 17.0 44.0 L 16.0 44.333333333333336 L 15.0 44.666666666666664 L 14.0 45.333333333333336 L 13.0 46.0 L 12.0 47.0 L 11.0 48.0 L 10.333333333333334 49.0 L 9.666666666666666 50.0 L 9.333333333333334 51.0 L 9.0 52.0 L 8.666666666666666 53.0 L 8.333333333333334 54.0 L 8.0 55.0 L 8.0 56.0 L 8.0 57.0 L 8.0 58.0 L 8.0 59.0 L 8.0 60.0 L 8.0 61.0 L 8.333333333333334 62.0 L 8.666666666666666 63.0 L 9.0 64.0 L 9.333333333333334 65.0 L 9.666666666666666 66.0 L 10.0 67.0 L 10.0 68.0 L 9.666666666666666 69.0 L 9.333333333333334 70.0 L 8.666666666666666 71.0 L 8.333333333333334 72.0 L 7.666666666666667 73.0 L 7.333333333333333 74.0 L 6.666666666666667 75.0 L 6.333333333333333 76.0 L 5.666666666666667 77.0 L 5.333333333333333 78.0 L 4.666666666666667 79.0 L 4.333333333333333 80.0 L 3.6666666666666665 81.0 L 3.3333333333333335 82.0 L 3.0 83.0 L 2.6666666666666665 84.0 L 2.3333333333333335 85.0 L 2.0 86.0 L 1.6666666666666667 87.0 L 1.3333333333333333 88.0 L 1.0 89.0 L 1.0 90.0 L 1.0 91.0 L 1.0 92.0 L 0.6666666666666666 93.0 L 0.3333333333333333 94.0 L 0.0 95.0 L 0.0 96.0 L 0.0 97.0 L 0.3333333333333333 98.0 L 0.6666666666666666 99.0 L 1.0 100.0 L 1.0 101.0 L 1.3333333333333333 102.0 L 1.6666666666666667 103.0 L 2.3333333333333335 104.0 L 2.6666666666666665 105.0 L 3.3333333333333335 106.0 L 4.0 107.0 L 5.0 108.0 L 6.0 109.0 L 7.0 109.66666666666667 L 8.0 110.33333333333333 L 9.0 110.66666666666667 L 10.0 111.33333333333333 L 11.0 111.66666666666667 L 12.0 112.0 L 13.0 112.0 L 14.0 112.0 L 15.0 112.0 L 16.0 112.0 L 17.0 112.0 L 18.0 112.0 L 19.0 112.0 L 20.0 112.0 L 21.0 112.0 L 22.0 111.66666666666667 L 23.0 111.33333333333333 L 24.0 110.66666666666667 L 25.0 110.33333333333333 L 26.0 109.66666666666667 L 27.0 109.33333333333333 L 28.0 108.66666666666667 L 28.5 108.5 Z" stroke="none" fill="rgb(182,136,90)" />
<path d="M 95.5 128.0 L 96.0 128.0 L 97.0 128.0 L 98.0 128.0 L 99.0 128.0 L 100.0 128.0 L 101.0 128.0 L 102.0 128.0 L 103.0 128.0 L 104.0 128.0 L 105.0 128.0 L 106.0 128.0 L 107.0 128.0 L 108.0 128.0 L 109.0 128.0 L 110.0 128.0 L 111.0 128.0 L 112.0 128.0 L 113.0 128.0 L 114.0 128.0 L 115.0 128.0 L 116.0 128.0 L 117.0 128.0 L 118.0 128.0 L 119.0 128.0 L 120.0 128.0 L 121.0 128.0 L 122.0 128.0 L 123.0 128.0 L 124.0 128.0 L 125.0 128.0 L 126.0 128.0 L 127.0 128.0 L 127.66666666666667 127.66666666666667 L 128.0 127.0 L 128.0 126.0 L 128.0 125.0 L 128.0 124.0 L 128.0 123.0 L 128.0 122.0 L 128.0 121.0 L 128.0 120.0 L 128.0 119.0 L 128.0 118.0 L 128.0 117.0 L 128.0 116.0 L 128.0 115.0 L 128.0 114.0 L 128.0 113.0 L 128.0 112.0 L 128.0 111.0 L 128.0 110.0 L 128.0 109.0 L 128.0 108.0 L 128.0 107.0 L 128.0 106.0 L 128.0 105.0 L 128.0 104.0 L 128.0 103.0 L 128.0 102.0 L 127.66666666666667 101.33333333333333 L 127.33333333333333 101.33333333333333 L 127.0 102.0 L 126.66666666666667 103.0 L 126.33333333333333 104.0 L 125.66666666666667 105.0 L 125.0 106.0 L 124.0 107.0 L 123.0 108.0 L 122.0 109.0 L 121.0 110.0 L 120.0 110.66666666666667 L 119.0 111.33333333333333 L 118.0 111.66666666666667 L 117.0 112.0 L 116.0 112.0 L 115.0 112.33333333333333 L 114.0 112.66666666666667 L 113.0 113.0 L 112.0 112.66666666666667 L 111.0 112.33333333333333 L 110.0 112.0 L 109.0 112.0 L 108.0 111.66666666666667 L 107.0 111.33333333333333 L 106.0 111.0 L 105.0 110.66666666666667 L 104.0 110.33333333333333 L 103.0 109.66666666666667 L 102.0 109.0 L 101.0 108.33333333333333 L 100.0 107.66666666666667 L 99.0 107.0 L 98.0 106.0 L 97.0 105.33333333333333 L 96.0 104.66666666666667 L 95.0 104.0 L 94.0 103.0 L 93.0 102.0 L 92.0 101.0 L 91.0 100.0 L 90.0 99.33333333333333 L 89.0 99.0 L 88.0 99.33333333333333 L 87.0 99.66666666666667 L 86.0 100.0 L 85.0 100.33333333333333 L 84.0 100.66666666666667 L 83.0 101.33333333333333 L 82.0 101.66666666666667 L 81.0 102.0 L 80.0 102.0 L 79.0 102.33333333333333 L 78.0 102.66666666666667 L 77.0 103.0 L 76.0 103.0 L 75.0 103.0 L 74.0 103.0 L 73.0 103.0 L 72.0 103.33333333333333 L 71.0 103.66666666666667 L 70.0 104.0 L 69.0 104.0 L 68.0 104.0 L 67.0 104.0 L 66.0 104.0 L 65.0 104.0 L 64.0 104.0 L 63.0 104.0 L 62.0 104.0 L 61.0 104.0 L 60.0 104.0 L 59.0 104.0 L 58.0 104.0 L 57.0 103.66666666666667 L 56.0 103.33333333333333 L 55.0 103.0 L 54.0 103.0 L 53.0 103.0 L 52.0 103.0 L 51.0 103.0 L 50.0 102.66666666666667 L 49.0 102.33333333333333 L 48.0 102.0 L 47.0 102.0 L 46.0 101.66666666666667 L 45.0 101.33333333333333 L 44.0 101.0 L 43.0 100.66666666666667 L 42.0 100.33333333333333 L 41.0 100.0 L 40.0 99.66666666666667 L 39.0 99.33333333333333 L 38.0 99.33333333333333 L 37.333333333333336 100.0 L 36.666666666666664 101.0 L 36.0 101.66666666666667 L 35.0 102.33333333333333 L 34.0 103.0 L 33.0 104.0 L 32.0 105.0 L 31.0 106.0 L 30.0 106.66666666666667 L 29.0 107.33333333333333 L 28.0 108.0 L 27.0 108.66666666666667 L 26.0 109.33333333333333 L 25.0 109.66666666666667 L 24.0 110.33333333333333 L 23.0 110.66666666666667 L 22.0 111.33333333333333 L 21.0 111.66666666666667 L 20.0 112.0 L 19.0 112.0 L 18.0 112.0 L 17.0 112.0 L 16.0 112.0 L 15.0 112.0 L 14.0 112.0 L 13.0 112.0 L 12.0 111.66666666666667 L 11.0 111.33333333333333 L 10.0 110.66666666666667 L 9.0 110.33333333333333 L 8.0 109.66666666666667 L 7.0 109.0 L 6.0 108.0 L 5.0 107.0 L 4.0 106.0 L 3.3333333333333335 105.0 L 2.6666666666666665 104.0 L 2.3333333333333335 103.0 L 1.6666666666666667 102.0 L 1.3333333333333333 101.0 L 1.0 100.0 L 1.0 99.0 L 0.6666666666666666 98.33333333333333 L 0.3333333333333333 98.33333333333333 L 0.0 99.0 L 0.0 100.0 L 0.0 101.0 L 0.0 102.0 L 0.0 103.0 L 0.0 104.0 L 0.0 105.0 L 0.0 106.0 L 0.0 107.0 L 0.0 108.0 L 0.0 109.0 L 0.0 110.0 L 0.0 111.0 L 0.0 112.0 L 0.0 113.0 L 0.0 114.0 L 0.0 115.0 L 0.0 116.0 L 0.0 117.0 L 0.0 118.0 L 0.0 119.0 L 0.0 120.0 L 0.0 121.0 L 0.0 122.0 L 0.0 123.0 L 0.0 124.0 L 0.0 125.0 L 0.0 126.0 L 0.0 127.0 L 0.3333333333333333 127.66666666666667 L 1.0 128.0 L 2.0 128.0 L 3.0 128.0 L 4.0 128.0 L 5.0 128.0 L 6.0 128.0 L 7.0 128.0 L 8.0 128.0 L 9.0 128.0 L 10.0 128.0 L 11.0 128.0 L 12.0 128.0 L 13.0 128.0 L 14.0 128.0 L 15.0 128.0 L 16.0 128.0 L 17.0 128.0 L 18.0 128.0 L 19.0 128.0 L 20.0 128.0 L 21.0 128.0 L 22.0 128.0 L 23.0 128.0 L 24.0 128.0 L 25.0 128.0 L 26.0 128.0 L 27.0 128.0 L 28.0 128.0 L 29.0 128.0 L 30.0 128.0 L 31.0 128.0 L 32.0 128.0 L 33.0 128.0 L 34.0 128.0 L 35.0 128.0 L 36.0 128.0 L 37.0 128.0 L 38.0 128.0 L 39.0 128.0 L 40.0 128.0 L 41.0 128.0 L 42.0 128.0 L 43.0 128.0 L 44.0 128.0 L 45.0 128.0 L 46.0 128.0 L 47.0 128.0 L 48.0 128.0 L 49.0 128.0 L 50.0 128.0 L 51.0 128.0 L 52.0 128.0 L 53.0 128.0 L 54.0 128.0 L 55.0 128.0 L 56.0 128.0 L 57.0 128.0 L 58.0 128.0 L 59.0 128.0 L 60.0 128.0 L 61.0 128.0 L 62.0 128.0 L 63.0 128.0 L 64.0 128.0 L 65.0 128.0 L 66.0 128.0 L 67.0 128.0 L 68.0 128.0 L 69.0 128.0 L 70.0 128.0 L 71.0 128.0 L 72.0 128.0 L 73.0 128.0 L 74.0 128.0 L 75.0 128.0 L 76.0 128.0 L 77.0 128.0 L 78.0 128.0 L 79.0 128.0 L 80.0 128.0 L 81.0 128.0 L 82.0 128.0 L 83.0 128.0 L 84.0 128.0 L 85.0 128.0 L 86.0 128.0 L 87.0 128.0 L 88.0 128.0 L 89.0 128.0 L 90.0 128.0 L 91.0 128.0 L 92.0 128.0 L 93.0 128.0 L 94.0 128.0 L 94.5 128.0 Z" stroke="none" fill="rgb(255,255,255)" />
<path d="M 59.5 94.0 L 60.0 94.0 L 61.0 94.0 L 62.0 94.0 L 63.0 94.0 L 64.0 94.0 L 65.0 94.0 L 66.0 94.0 L 67.0 94.0 L 68.0 94.0 L 69.0 94.0 L 70.0 94.0 L 71.0 94.0 L 72.0 94.0 L 73.0 94.0 L 74.0 94.0 L 75.0 94.0 L 76.0 94.0 L 77.0 94.0 L 78.0 93.66666666666667 L 79.0 93.33333333333333 L 80.0 93.0 L 81.0 92.66666666666667 L 82.0 92.33333333333333 L 83.0 91.66666666666667 L 84.0 91.33333333333333 L 85.0 90.66666666666667 L 86.0 90.0 L 87.0 89.0 L 88.0 88.0 L 89.0 87.0 L 89.66666666666667 86.0 L 90.33333333333333 85.0 L 91.0 84.0 L 91.66666666666667 83.0 L 92.33333333333333 82.0 L 92.66666666666667 81.0 L 93.0 80.0 L 93.0 79.0 L 93.0 78.0 L 93.0 77.0 L 93.0 76.0 L 93.0 75.0 L 93.0 74.0 L 93.0 73.0 L 92.66666666666667 72.0 L 92.33333333333333 71.0 L 92.0 70.0 L 91.66666666666667 69.0 L 91.33333333333333 68.0 L 91.0 67.0 L 91.0 66.0 L 91.0 65.0 L 91.0 64.0 L 91.0 63.0 L 91.0 62.0 L 91.0 61.0 L 91.0 60.0 L 91.33333333333333 59.0 L 91.66666666666667 58.0 L 92.0 57.0 L 92.0 56.0 L 92.0 55.0 L 92.0 54.0 L 92.0 53.0 L 92.0 52.0 L 92.0 51.0 L 92.0 50.0 L 92.0 49.0 L 92.0 48.0 L 92.0 47.0 L 91.66666666666667 46.0 L 91.0 45.0 L 90.0 44.0 L 89.0 43.0 L 88.0 42.0 L 87.0 41.0 L 86.0 40.0 L 85.0 39.333333333333336 L 84.0 39.0 L 83.0 39.0 L 82.0 39.0 L 81.0 39.0 L 80.0 39.0 L 79.0 39.0 L 78.0 39.333333333333336 L 77.0 39.666666666666664 L 76.0 40.0 L 75.0 40.333333333333336 L 74.0 40.666666666666664 L 73.0 41.333333333333336 L 72.0 41.666666666666664 L 71.0 42.333333333333336 L 70.0 42.666666666666664 L 69.0 43.0 L 68.0 43.333333333333336 L 67.0 43.666666666666664 L 66.0 44.0 L 65.0 44.0 L 64.0 44.0 L 63.0 44.0 L 62.0 43.666666666666664 L 61.0 43.333333333333336 L 60.0 43.0 L 59.0 42.666666666666664 L 58.0 42.333333333333336 L 57.0 41.666666666666664 L 56.0 41.333333333333336 L 55.0 40.666666666666664 L 54.0 40.333333333333336 L 53.0 39.666666666666664 L 52.0 39.333333333333336 L 51.0 39.0 L 50.0 39.0 L 49.0 39.0 L 48.0 39.0 L 47.0 39.0 L 46.0 39.0 L 45.0 39.0 L 44.0 39.333333333333336 L 43.0 39.666666666666664 L 42.0 40.333333333333336 L 41.0 40.666666666666664 L 40.0 41.333333333333336 L 39.0 42.0 L 38.0 43.0 L 37.0 44.0 L 36.333333333333336 45.0 L 36.0 46.0 L 35.666666666666664 47.0 L 35.333333333333336 48.0 L 35.0 49.0 L 35.0 50.0 L 35.0 51.0 L 35.0 52.0 L 35.0 53.0 L 35.0 54.0 L 35.333333333333336 55.0 L 35.666666666666664 56.0 L 36.0 57.0 L 36.0 58.0 L 36.333333333333336 59.0 L 36.666666666666664 60.0 L 37.0 61.0 L 37.0 62.0 L 37.0 63.0 L 37.0 64.0 L 37.0 65.0 L 37.0 66.0 L 37.0 67.0 L 36.666666666666664 68.0 L 36.333333333333336 69.0 L 35.666666666666664 70.0 L 35.333333333333336 71.0 L 35.0 72.0 L 35.0 73.0 L 35.0 74.0 L 35.0 75.0 L 35.0 76.0 L 35.0 77.0 L 35.0 78.0 L 35.0 79.0 L 35.0 80.0 L 35.0 81.0 L 35.0 82.0 L 35.333333333333336 83.0 L 36.0 84.0 L 37.0 85.0 L 38.0 86.0 L 39.0 87.0 L 40.0 88.0 L 41.0 89.0 L 42.0 90.0 L 43.0 90.66666666666667 L 44.0 91.33333333333333 L 45.0 91.66666666666667 L 46.0 92.0 L 47.0 92.33333333333333 L 48.0 92.66666666666667 L 49.0 93.0 L 50.0 93.0 L 51.0 93.0 L 52.0 93.33333333333333 L 53.0 93.66666666666667 L 54.0 94.0 L 55.0 94.0 L 56.0 94.0 L 57.0 94.0 L 58.0 94.0 L 58.5 94.0 Z" stroke="none" fill="rgb(255,205,136)" />
<path d="M 59.5 86.0 L 60.0 86.0 L 61.0 86.33333333333333 L 62.0 86.66666666666667 L 63.0 87.0 L 64.0 87.0 L 65.0 87.0 L 66.0 87.0 L 67.0 87.0 L 68.0 87.0 L 69.0 87.0 L 70.0 87.0 L 71.0 87.0 L 72.0 87.0 L 73.0 86.66666666666667 L 74.0 86.33333333333333 L 75.0 86.0 L 76.0 85.66666666666667 L 77.0 85.33333333333333 L 78.0 84.66666666666667 L 79.0 84.0 L 80.0 83.0 L 81.0 82.0 L 82.0 81.0 L 82.66666666666667 80.0 L 83.0 79.0 L 83.0 78.0 L 82.66666666666667 77.0 L 82.0 76.0 L 81.0 75.0 L 80.0 74.33333333333333 L 79.0 74.0 L 78.0 73.66666666666667 L 77.0 73.33333333333333 L 76.0 73.0 L 75.0 73.0 L 74.0 73.0 L 73.0 73.0 L 72.0 73.0 L 71.0 73.0 L 70.0 73.0 L 69.0 73.0 L 68.0 73.0 L 67.0 73.0 L 66.0 73.0 L 65.0 73.0 L 64.0 73.0 L 63.0 73.0 L 62.0 73.0 L 61.0 73.0 L 60.0 73.0 L 59.0 73.0 L 58.0 73.0 L 57.0 73.0 L 56.0 73.33333333333333 L 55.0 73.66666666666667 L 54.0 74.0 L 53.0 74.0 L 52.0 74.0 L 51.0 74.33333333333333 L 50.0 74.66666666666667 L 49.0 75.0 L 48.0 75.33333333333333 L 47.0 75.66666666666667 L 46.0 76.33333333333333 L 45.333333333333336 77.0 L 45.0 78.0 L 45.0 79.0 L 45.0 80.0 L 45.333333333333336 81.0 L 46.0 82.0 L 47.0 83.0 L 48.0 83.66666666666667 L 49.0 84.33333333333333 L 50.0 84.66666666666667 L 51.0 85.0 L 52.0 85.0 L 53.0 85.33333333333333 L 54.0 85.66666666666667 L 55.0 86.0 L 56.0 86.0 L 57.0 86.0 L 58.0 86.0 L 58.5 86.0 Z" stroke="none" fill="rgb(255,107,23)" />
<path d="M 110.5 92.5 L 110.66666666666667 93.0 L 111.0 94.0 L 111.0 95.0 L 111.33333333333333 95.66666666666667 L 112.0 96.0 L 113.0 95.66666666666667 L 113.66666666666667 95.0 L 114.0 94.0 L 114.0 93.0 L 114.0 92.0 L 114.0 91.0 L 114.0 90.0 L 113.66666666666667 89.0 L 113.33333333333333 88.0 L 113.0 87.0 L 112.66666666666667 86.0 L 112.33333333333333 85.0 L 111.66666666666667 84.0 L 111.0 83.0 L 110.33333333333333 82.0 L 109.66666666666667 81.0 L 109.0 80.0 L 108.0 79.0 L 107.33333333333333 78.0 L 106.66666666666667 77.0 L 106.0 76.0 L 105.33333333333333 75.0 L 105.0 74.0 L 105.0 73.0 L 105.0 72.0 L 105.33333333333333 71.0 L 105.66666666666667 70.0 L 106.0 69.0 L 106.0 68.0 L 106.0 67.0 L 106.0 66.0 L 106.0 65.0 L 106.0 64.0 L 106.0 63.0 L 106.0 62.0 L 106.0 61.0 L 106.0 60.0 L 106.0 59.0 L 106.0 58.0 L 106.0 57.0 L 105.66666666666667 56.0 L 105.33333333333333 55.0 L 105.0 54.0 L 105.0 53.0 L 105.0 52.0 L 105.0 51.0 L 105.0 50.0 L 105.0 49.0 L 105.0 48.0 L 105.33333333333333 47.0 L 106.0 46.0 L 106.66666666666667 45.0 L 107.0 44.0 L 106.66666666666667 43.333333333333336 L 106.0 43.0 L 105.0 43.333333333333336 L 104.0 44.0 L 103.0 45.0 L 102.33333333333333 46.0 L 102.0 47.0 L 101.66666666666667 48.0 L 101.33333333333333 49.0 L 101.0 50.0 L 101.0 51.0 L 101.0 52.0 L 101.0 53.0 L 101.33333333333333 54.0 L 101.66666666666667 55.0 L 102.0 56.0 L 102.0 57.0 L 102.0 58.0 L 102.0 59.0 L 102.0 60.0 L 102.0 61.0 L 102.0 62.0 L 102.0 63.0 L 102.0 64.0 L 102.0 65.0 L 102.0 66.0 L 101.66666666666667 67.0 L 101.33333333333333 68.0 L 101.0 69.0 L 101.0 70.0 L 101.0 71.0 L 101.0 72.0 L 101.0 73.0 L 101.0 74.0 L 101.0 75.0 L 101.0 76.0 L 101.33333333333333 77.0 L 101.66666666666667 78.0 L 102.33333333333333 79.0 L 103.0 80.0 L 104.0 81.0 L 104.66666666666667 82.0 L 105.33333333333333 83.0 L 105.66666666666667 84.0 L 106.33333333333333 85.0 L 107.0 86.0 L 107.66666666666667 87.0 L 108.33333333333333 88.0 L 108.66666666666667 89.0 L 109.33333333333333 90.0 L 109.66666666666667 91.0 L 110.0 91.5 Z" stroke="none" fill="rgb(134,91,84)" />
<path d="M 23.0 83.5 L 23.333333333333332 83.0 L 23.666666666666668 82.0 L 24.333333333333332 81.0 L 24.666666666666668 80.0 L 25.333333333333332 79.0 L 25.666666666666668 78.0 L 26.333333333333332 77.0 L 26.666666666666668 76.0 L 27.0 75.0 L 27.0 74.0 L 27.0 73.0 L 27.0 72.0 L 27.0 71.0 L 27.0 70.0 L 27.0 69.0 L 27.0 68.0 L 27.0 67.0 L 27.0 66.0 L 26.666666666666668 65.0 L 26.333333333333332 64.0 L 26.0 63.0 L 26.0 62.0 L 26.0 61.0 L 26.0 60.0 L 26.0 59.0 L 26.0 58.0 L 26.0 57.0 L 26.0 56.0 L 26.0 55.0 L 26.0 54.0 L 26.0 53.0 L 26.0 52.0 L 26.0 51.0 L 26.0 50.0 L 26.0 49.0 L 26.0 48.0 L 26.0 47.0 L 25.666666666666668 46.0 L 25.0 45.0 L 24.0 44.0 L 23.0 43.333333333333336 L 22.0 43.0 L 21.333333333333332 43.333333333333336 L 21.0 44.0 L 21.0 45.0 L 21.333333333333332 46.0 L 21.666666666666668 47.0 L 22.333333333333332 48.0 L 22.666666666666668 49.0 L 23.0 50.0 L 23.0 51.0 L 23.0 52.0 L 22.666666666666668 53.0 L 22.333333333333332 54.0 L 22.0 55.0 L 22.0 56.0 L 22.0 57.0 L 22.0 58.0 L 22.0 59.0 L 22.0 60.0 L 22.0 61.0 L 22.0 62.0 L 22.0 63.0 L 22.0 64.0 L 22.333333333333332 65.0 L 22.666666666666668 66.0 L 23.0 67.0 L 23.0 68.0 L 23.0 69.0 L 23.0 70.0 L 23.0 71.0 L 23.0 72.0 L 23.0 73.0 L 23.0 74.0 L 22.666666666666668 75.0 L 22.0 76.0 L 21.333333333333332 77.0 L 20.666666666666668 78.0 L 20.0 79.0 L 19.0 80.0 L 18.0 81.0 L 17.333333333333332 82.0 L 16.666666666666668 83.0 L 16.333333333333332 84.0 L 15.666666666666666 85.0 L 15.333333333333334 86.0 L 15.0 87.0 L 14.666666666666666 88.0 L 14.333333333333334 89.0 L 14.0 90.0 L 14.0 91.0 L 14.0 92.0 L 14.0 93.0 L 14.333333333333334 94.0 L 15.0 94.66666666666667 L 16.0 95.0 L 17.0 95.0 L 18.0 95.0 L 18.666666666666668 94.66666666666667 L 19.0 94.0 L 18.666666666666668 93.0 L 18.333333333333332 92.0 L 18.0 91.0 L 18.333333333333332 90.0 L 18.666666666666668 89.0 L 19.333333333333332 88.0 L 20.0 87.0 L 21.0 86.0 L 22.0 85.0 L 22.5 84.5 Z" stroke="none" fill="rgb(133,91,80)" />
<path d="M 56.0 61.5 L 56.0 61.0 L 56.0 60.0 L 56.0 59.0 L 56.0 58.0 L 55.666666666666664 57.0 L 55.333333333333336 56.0 L 55.0 55.0 L 54.666666666666664 54.0 L 54.0 53.0 L 53.0 52.333333333333336 L 52.0 52.0 L 51.0 52.0 L 50.0 52.0 L 49.0 52.0 L 48.0 52.333333333333336 L 47.0 53.0 L 46.0 54.0 L 45.333333333333336 55.0 L 45.0 56.0 L 45.0 57.0 L 45.0 58.0 L 45.0 59.0 L 45.0 60.0 L 45.0 61.0 L 45.333333333333336 62.0 L 46.0 63.0 L 47.0 64.0 L 48.0 64.66666666666667 L 49.0 65.0 L 50.0 65.0 L 51.0 65.0 L 52.0 65.0 L 53.0 64.66666666666667 L 54.0 64.0 L 55.0 63.0 L 55.5 62.5 Z" stroke="none" fill="rgb(57,53,49)" />
<path d="M 72.5 62.5 L 73.0 63.0 L 74.0 63.666666666666664 L 75.0 64.0 L 76.0 64.0 L 77.0 64.0 L 78.0 64.0 L 79.0 64.0 L 80.0 63.666666666666664 L 81.0 63.0 L 81.66666666666667 62.0 L 82.0 61.0 L 82.0 60.0 L 82.0 59.0 L 82.0 58.0 L 82.0 57.0 L 82.0 56.0 L 82.0 55.0 L 81.66666666666667 54.0 L 81.0 53.0 L 80.0 52.333333333333336 L 79.0 52.0 L 78.0 52.0 L 77.0 52.0 L 76.0 52.0 L 75.0 52.333333333333336 L 74.0 53.0 L 73.0 54.0 L 72.33333333333333 55.0 L 72.0 56.0 L 72.0 57.0 L 72.0 58.0 L 72.0 59.0 L 72.0 60.0 L 72.0 61.0 L 72.0 61.5 Z" stroke="none" fill="rgb(57,53,49)" />
<path d="M 24.5 91.5 L 24.666666666666668 91.0 L 25.333333333333332 90.0 L 25.666666666666668 89.0 L 25.666666666666668 88.0 L 25.333333333333332 87.0 L 24.666666666666668 86.0 L 24.333333333333332 85.0 L 24.0 84.0 L 23.666666666666668 83.33333333333333 L 23.0 83.33333333333333 L 22.0 84.0 L 21.0 85.0 L 20.0 86.0 L 19.333333333333332 87.0 L 18.666666666666668 88.0 L 18.333333333333332 89.0 L 18.0 90.0 L 18.0 91.0 L 18.0 92.0 L 18.333333333333332 93.0 L 19.0 93.66666666666667 L 20.0 94.0 L 21.0 93.66666666666667 L 22.0 93.33333333333333 L 23.0 92.66666666666667 L 23.5 92.5 Z" stroke="none" fill="rgb(255,255,255)" />
<path d="M 110.5 95.0 L 110.66666666666667 94.66666666666667 L 111.0 94.0 L 111.0 93.0 L 110.66666666666667 92.0 L 110.33333333333333 91.0 L 109.66666666666667 90.0 L 109.33333333333333 89.0 L 108.66666666666667 88.0 L 108.33333333333333 87.0 L 107.66666666666667 86.0 L 107.0 85.0 L 106.33333333333333 84.0 L 105.66666666666667 83.33333333333333 L 105.0 83.0 L 104.33333333333333 83.33333333333333 L 103.66666666666667 84.0 L 103.33333333333333 85.0 L 102.66666666666667 86.0 L 102.33333333333333 87.0 L 102.33333333333333 88.0 L 103.0 89.0 L 104.0 90.0 L 105.0 91.0 L 106.0 92.0 L 107.0 93.0 L 108.0 93.66666666666667 L 109.0 94.33333333333333 L 109.5 94.5 Z" stroke="none" fill="rgb(255,255,255)" />
<path d="M 59.5 67.5 L 60.0 68.0 L 61.0 69.0 L 62.0 69.66666666666667 L 63.0 70.0 L 64.0 70.0 L 65.0 70.0 L 66.0 70.0 L 67.0 69.66666666666667 L 68.0 69.0 L 68.66666666666667 68.0 L 69.0 67.0 L 69.0 66.0 L 68.66666666666667 65.33333333333333 L 68.0 65.0 L 67.0 65.0 L 66.0 65.0 L 65.0 65.0 L 64.0 65.0 L 63.0 65.0 L 62.0 65.0 L 61.0 65.0 L 60.0 65.0 L 59.333333333333336 65.33333333333333 L 59.0 66.0 L 59.0 66.5 Z" stroke="none" fill="rgb(57,53,49)" />
<path d="M 20.5 44.0 L 20.666666666666668 43.666666666666664 L 20.666666666666668 43.333333333333336 L 20.333333333333332 43.333333333333336 L 20.0 43.5 Z" stroke="none" fill="rgb(0,0,0)" />
<path d="M 107.5 44.0 L 107.66666666666667 43.666666666666664 L 107.66666666666667 43.333333333333336 L 107.33333333333333 43.333333333333336 L 107.0 43.5 Z" stroke="none" fill="rgb(0,0,0)" />
</svg>
