<?xml version="1.0" encoding="UTF-8" standalone="no"?>
<!DOCTYPE svg PUBLIC "-//W3C//DTD SVG 1.1//EN"
"http://www.w3.org/Graphics/SVG/1.1/DTD/svg11.dtd">
<svg width="128" height="128" xmlns="http://www.w3.org/2000/svg" version="1.1">
<path d="M 26.5 128.0 L 27.0 128.0 L 28.0 128.0 L 29.0 128.0 L 30.0 128.0 L 31.0 128.0 L 32.0 128.0 L 33.0 128.0 L 34.0 128.0 L 35.0 128.0 L 36.0 128.0 L 37.0 128.0 L 38.0 128.0 L 39.0 128.0 L 40.0 128.0 L 41.0 128.0 L 42.0 128.0 L 43.0 128.0 L 44.0 128.0 L 45.0 128.0 L 46.0 128.0 L 47.0 128.0 L 48.0 128.0 L 49.0 128.0 L 50.0 128.0 L 51.0 128.0 L 52.0 128.0 L 53.0 128.0 L 54.0 128.0 L 55.0 128.0 L 56.0 128.0 L 57.0 128.0 L 58.0 128.0 L 59.0 128.0 L 60.0 128.0 L 61.0 128.0 L 62.0 128.0 L 63.0 128.0 L 64.0 128.0 L 65.0 128.0 L 66.0 128.0 L 67.0 128.0 L 68.0 128.0 L 69.0 128.0 L 70.0 128.0 L 71.0 128.0 L 72.0 128.0 L 73.0 128.0 L 74.0 128.0 L 75.0 128.0 L 76.0 128.0 L 77.0 128.0 L 78.0 128.0 L 79.0 128.0 L 80.0 128.0 L 81.0 128.0 L 82.0 128.0 L 83.0 128.0 L 84.0 128.0 L 85.0 128.0 L 86.0 128.0 L 87.0 128.0 L 88.0 128.0 L 89.0 128.0 L 90.0 128.0 L 91.0 128.0 L 92.0 128.0 L 93.0 128.0 L 94.0 128.0 L 95.0 128.0 L 96.0 128.0 L 97.0 128.0 L 98.0 128.0 L 99.0 128.0 L 100.0 128.0 L 101.0 128.0 L 102.0 128.0 L 103.0 128.0 L 104.0 128.0 L 105.0 128.0 L 106.0 128.0 L 107.0 128.0 L 108.0 128.0 L 109.0 128.0 L 110.0 128.0 L 111.0 128.0 L 112.0 128.0 L 113.0 128.0 L 114.0 128.0 L 115.0 128.0 L 116.0 128.0 L 117.0 128.0 L 118.0 128.0 L 119.0 128.0 L 120.0 128.0 L 121.0 128.0 L 122.0 128.0 L 123.0 128.0 L 124.0 128.0 L 125.0 128.0 L 126.0 128.0 L 127.0 128.0 L 127.66666666666667 127.66666666666667 L 128.0 127.0 L 128.0 126.0 L 128.0 125.0 L 128.0 124.0 L 128.0 123.0 L 128.0 122.0 L 128.0 121.0 L 128.0 120.0 L 128.0 119.0 L 128.0 118.0 L 128.0 117.0 L 128.0 116.0 L 128.0 115.0 L 128.0 114.0 L 128.0 113.0 L 128.0 112.0 L 128.0 111.0 L 128.0 110.0 L 128.0 109.0 L 128.0 108.0 L 128.0 107.0 L 128.0 106.0 L 128.0 105.0 L 128.0 104.0 L 128.0 103.0 L 128.0 102.0 L 128.0 101.0 L 128.0 100.0 L 128.0 99.0 L 128.0 98.0 L 128.0 97.0 L 128.0 96.0 L 128.0 95.0 L 128.0 94.0 L 128.0 93.0 L 128.0 92.0 L 128.0 91.0 L 128.0 90.0 L 128.0 89.0 L 128.0 88.0 L 128.0 87.0 L 128.0 86.0 L 128.0 85.0 L 128.0 84.0 L 128.0 83.0 L 128.0 82.0 L 128.0 81.0 L 128.0 80.0 L 128.0 79.0 L 128.0 78.0 L 128.0 77.0 L 128.0 76.0 L 128.0 75.0 L 128.0 74.0 L 128.0 73.0 L 128.0 72.0 L 128.0 71.0 L 128.0 70.0 L 128.0 69.0 L 128.0 68.0 L 128.0 67.0 L 128.0 66.0 L 128.0 65.0 L 128.0 64.0 L 128.0 63.0 L 128.0 62.0 L 128.0 61.0 L 128.0 60.0 L 128.0 59.0 L 128.0 58.0 L 128.0 57.0 L 128.0 56.0 L 128.0 55.0 L 128.0 54.0 L 128.0 53.0 L 128.0 52.0 L 128.0 51.0 L 128.0 50.0 L 128.0 49.0 L 128.0 48.0 L 128.0 47.0 L 128.0 46.0 L 128.0 45.0 L 128.0 44.0 L 128.0 43.0 L 128.0 42.0 L 128.0 41.0 L 128.0 40.0 L 128.0 39.0 L 128.0 38.0 L 128.0 37.0 L 128.0 36.0 L 128.0 35.0 L 128.0 34.0 L 128.0 33.0 L 128.0 32.0 L 128.0 31.0 L 128.0 30.0 L 128.0 29.0 L 128.0 28.0 L 128.0 27.0 L 128.0 26.0 L 128.0 25.0 L 128.0 24.0 L 128.0 23.0 L 128.0 22.0 L 128.0 21.0 L 128.0 20.0 L 128.0 19.0 L 128.0 18.0 L 128.0 17.0 L 128.0 16.0 L 128.0 15.0 L 128.0 14.0 L 128.0 13.0 L 128.0 12.0 L 128.0 11.0 L 128.0 10.0 L 128.0 9.0 L 128.0 8.0 L 128.0 7.0 L 128.0 6.0 L 128.0 5.0 L 128.0 4.0 L 128.0 3.0 L 128.0 2.0 L 128.0 1.0 L 127.66666666666667 0.3333333333333333 L 127.0 0.0 L 126.0 0.0 L 125.0 0.0 L 124.0 0.0 L 123.0 0.0 L 122.0 0.0 L 121.0 0.0 L 120.0 0.0 L 119.0 0.0 L 118.0 0.0 L 117.0 0.0 L 116.0 0.0 L 115.0 0.0 L 114.0 0.0 L 113.0 0.0 L 112.0 0.0 L 111.0 0.0 L 110.0 0.0 L 109.0 0.0 L 108.0 0.0 L 107.0 0.0 L 106.0 0.0 L 105.0 0.0 L 104.0 0.0 L 103.0 0.0 L 102.0 0.0 L 101.0 0.0 L 100.0 0.0 L 99.0 0.0 L 98.0 0.0 L 97.0 0.0 L 96.0 0.0 L 95.0 0.0 L 94.0 0.0 L 93.0 0.0 L 92.0 0.0 L 91.0 0.0 L 90.0 0.0 L 89.0 0.0 L 88.0 0.0 L 87.0 0.0 L 86.0 0.0 L 85.0 0.0 L 84.0 0.0 L 83.0 0.0 L 82.0 0.0 L 81.0 0.0 L 80.0 0.0 L 79.0 0.0 L 78.0 0.0 L 77.0 0.0 L 76.0 0.0 L 75.0 0.0 L 74.0 0.0 L 73.0 0.0 L 72.0 0.0 L 71.0 0.0 L 70.0 0.0 L 69.0 0.0 L 68.0 0.0 L 67.0 0.0 L 66.0 0.0 L 65.0 0.0 L 64.0 0.0 L 63.0 0.0 L 62.0 0.0 L 61.0 0.0 L 60.0 0.0 L 59.0 0.0 L 58.0 0.0 L 57.0 0.0 L 56.0 0.0 L 55.0 0.0 L 54.0 0.0 L 53.0 0.0 L 52.0 0.0 L 51.0 0.0 L 50.0 0.0 L 49.0 0.0 L 48.0 0.0 L 47.0 0.0 L 46.0 0.0 L 45.0 0.0 L 44.0 0.0 L 43.0 0.0 L 42.0 0.0 L 41.0 0.0 L 40.0 0.0 L 39.0 0.0 L 38.0 0.0 L 37.0 0.0 L 36.0 0.0 L 35.0 0.0 L 34.0 0.0 L 33.0 0.0 L 32.0 0.0 L 31.0 0.0 L 30.0 0.0 L 29.0 0.0 L 28.0 0.0 L 27.0 0.0 L 26.0 0.0 L 25.0 0.0 L 24.0 0.0 L 23.0 0.0 L 22.0 0.0 L 21.0 0.0 L 20.0 0.0 L 19.0 0.0 L 18.0 0.0 L 17.0 0.0 L 16.0 0.0 L 15.0 0.0 L 14.0 0.0 L 13.0 0.0 L 12.0 0.0 L 11.0 0.0 L 10.0 0.0 L 9.0 0.0 L 8.0 0.0 L 7.0 0.0 L 6.0 0.0 L 5.0 0.0 L 4.0 0.0 L 3.0 0.0 L 2.0 0.0 L 1.0 0.0 L 0.3333333333333333 0.3333333333333333 L 0.0 1.0 L 0.0 2.0 L 0.0 3.0 L 0.0 4.0 L 0.0 5.0 L 0.0 6.0 L 0.0 7.0 L 0.0 8.0 L 0.0 9.0 L 0.0 10.0 L 0.0 11.0 L 0.0 12.0 L 0.0 13.0 L 0.0 14.0 L 0.0 15.0 L 0.0 16.0 L 0.0 17.0 L 0.0 18.0 L 0.0 19.0 L 0.0 20.0 L 0.0 21.0 L 0.0 22.0 L 0.0 23.0 L 0.0 24.0 L 0.0 25.0 L 0.0 26.0 L 0.0 27.0 L 0.0 28.0 L 0.0 29.0 L 0.0 30.0 L 0.0 31.0 L 0.0 32.0 L 0.0 33.0 L 0.0 34.0 L 0.0 35.0 L 0.0 36.0 L 0.0 37.0 L 0.0 38.0 L 0.0 39.0 L 0.0 40.0 L 0.0 41.0 L 0.0 42.0 L 0.0 43.0 L 0.0 44.0 L 0.0 45.0 L 0.0 46.0 L 0.0 47.0 L 0.0 48.0 L 0.0 49.0 L 0.0 50.0 L 0.0 51.0 L 0.0 52.0 L 0.0 53.0 L 0.0 54.0 L 0.0 55.0 L 0.0 56.0 L 0.0 57.0 L 0.0 58.0 L 0.0 59.0 L 0.0 60.0 L 0.0 61.0 L 0.0 62.0 L 0.0 63.0 L 0.0 64.0 L 0.0 65.0 L 0.0 66.0 L 0.0 67.0 L 0.0 68.0 L 0.0 69.0 L 0.0 70.0 L 0.0 71.0 L 0.0 72.0 L 0.0 73.0 L 0.0 74.0 L 0.0 75.0 L 0.0 76.0 L 0.0 77.0 L 0.0 78.0 L 0.0 79.0 L 0.0 80.0 L 0.0 81.0 L 0.0 82.0 L 0.0 83.0 L 0.0 84.0 L 0.0 85.0 L 0.0 86.0 L 0.0 87.0 L 0.0 88.0 L 0.0 89.0 L 0.0 90.0 L 0.0 91.0 L 0.0 92.0 L 0.0 93.0 L 0.0 94.0 L 0.0 95.0 L 0.0 96.0 L 0.0 97.0 L 0.0 98.0 L 0.0 99.0 L 0.0 100.0 L 0.0 101.0 L 0.0 102.0 L 0.0 103.0 L 0.0 104.0 L 0.0 105.0 L 0.0 106.0 L 0.0 107.0 L 0.0 108.0 L 0.0 109.0 L 0.0 110.0 L 0.0 111.0 L 0.0 112.0 L 0.0 113.0 L 0.0 114.0 L 0.0 115.0 L 0.0 116.0 L 0.0 117.0 L 0.0 118.0 L 0.0 119.0 L 0.0 120.0 L 0.0 121.0 L 0.0 122.0 L 0.0 123.0 L 0.0 124.0 L 0.0 125.0 L 0.0 126.0 L 0.0 127.0 L 0.3333333333333333 127.66666666666667 L 1.0 128.0 L 2.0 128.0 L 3.0 128.0 L 4.0 128.0 L 5.0 128.0 L 6.0 128.0 L 7.0 128.0 L 8.0 128.0 L 9.0 128.0 L 10.0 128.0 L 11.0 128.0 L 12.0 128.0 L 13.0 128.0 L 14.0 128.0 L 15.0 128.0 L 16.0 128.0 L 17.0 128.0 L 18.0 128.0 L 19.0 128.0 L 20.0 128.0 L 21.0 128.0 L 22.0 128.0 L 23.0 128.0 L 24.0 128.0 L 25.0 128.0 L 25.5 128.0 Z" stroke="none" fill="rgb(0,0,0)" />
<path d="M 21.5 104.0 L 22.0 103.66666666666667 L 23.0 103.0 L 23.666666666666668 102.0 L 24.333333333333332 101.0 L 24.666666666666668 100.0 L 25.333333333333332 99.0 L 26.0 98.0 L 26.666666666666668 97.0 L 27.333333333333332 96.0 L 27.666666666666668 95.0 L 28.333333333333332 94.0 L 29.0 93.0 L 29.666666666666668 92.0 L 30.333333333333332 91.0 L 31.0 90.0 L 31.666666666666668 89.0 L 32.333333333333336 88.0 L 32.666666666666664 87.0 L 33.0 86.0 L 33.0 85.0 L 33.0 84.0 L 32.666666666666664 83.0 L 32.333333333333336 82.0 L 31.666666666666668 81.0 L 31.333333333333332 80.0 L 30.666666666666668 79.0 L 30.333333333333332 78.0 L 30.0 77.0 L 29.666666666666668 76.0 L 29.333333333333332 75.0 L 29.0 74.0 L 29.0 73.0 L 28.666666666666668 72.0 L 28.333333333333332 71.0 L 28.0 70.0 L 28.0 69.0 L 28.333333333333332 68.0 L 28.666666666666668 67.0 L 29.0 66.0 L 28.666666666666668 65.0 L 28.333333333333332 64.0 L 28.0 63.0 L 28.0 62.0 L 27.666666666666668 61.0 L 27.333333333333332 60.0 L 27.0 59.0 L 27.0 58.0 L 27.0 57.0 L 27.0 56.0 L 27.0 55.0 L 27.0 54.0 L 27.0 53.0 L 27.0 52.0 L 26.666666666666668 51.0 L 26.333333333333332 50.0 L 26.0 49.0 L 26.0 48.0 L 25.666666666666668 47.0 L 25.333333333333332 46.0 L 25.0 45.0 L 25.0 44.0 L 25.0 43.0 L 25.0 42.0 L 25.0 41.0 L 25.0 40.0 L 25.333333333333332 39.0 L 26.0 38.0 L 27.0 37.333333333333336 L 28.0 37.0 L 29.0 37.0 L 30.0 37.0 L 31.0 37.0 L 32.0 37.0 L 33.0 36.666666666666664 L 34.0 36.0 L 34.666666666666664 35.0 L 35.0 34.0 L 35.0 33.0 L 34.666666666666664 32.0 L 34.333333333333336 31.0 L 33.666666666666664 30.0 L 33.0 29.0 L 32.0 28.0 L 31.0 27.0 L 30.0 26.0 L 29.0 25.0 L 28.0 24.0 L 27.0 23.0 L 26.0 22.0 L 25.0 21.0 L 24.0 20.0 L 23.0 19.0 L 22.0 18.0 L 21.333333333333332 17.0 L 21.0 16.0 L 20.666666666666668 15.0 L 20.333333333333332 14.0 L 19.666666666666668 13.333333333333334 L 19.0 13.0 L 18.0 13.0 L 17.0 13.0 L 16.0 13.333333333333334 L 15.0 14.0 L 14.0 15.0 L 13.333333333333334 16.0 L 13.0 17.0 L 13.0 18.0 L 13.0 19.0 L 13.0 20.0 L 13.333333333333334 21.0 L 13.666666666666666 22.0 L 14.333333333333334 23.0 L 15.0 24.0 L 15.666666666666666 25.0 L 16.333333333333332 26.0 L 17.0 27.0 L 18.0 28.0 L 19.0 29.0 L 20.0 30.0 L 21.0 31.0 L 22.0 32.0 L 23.0 33.0 L 23.666666666666668 34.0 L 23.666666666666668 35.0 L 23.333333333333332 36.0 L 22.666666666666668 37.0 L 22.333333333333332 38.0 L 21.666666666666668 39.0 L 21.333333333333332 40.0 L 21.0 41.0 L 20.666666666666668 42.0 L 20.333333333333332 43.0 L 20.0 44.0 L 19.666666666666668 45.0 L 19.333333333333332 46.0 L 19.0 47.0 L 19.0 48.0 L 18.666666666666668 49.0 L 18.333333333333332 50.0 L 18.0 51.0 L 18.0 52.0 L 18.0 53.0 L 18.0 54.0 L 18.0 55.0 L 17.666666666666668 56.0 L 17.333333333333332 57.0 L 17.0 58.0 L 17.0 59.0 L 17.0 60.0 L 17.0 61.0 L 17.0 62.0 L 17.0 63.0 L 17.0 64.0 L 17.0 65.0 L 17.0 66.0 L 17.0 67.0 L 17.0 68.0 L 17.0 69.0 L 17.0 70.0 L 17.0 71.0 L 17.0 72.0 L 17.0 73.0 L 17.0 74.0 L 17.0 75.0 L 17.0 76.0 L 17.0 77.0 L 17.0 78.0 L 17.0 79.0 L 17.0 80.0 L 17.0 81.0 L 17.0 82.0 L 17.0 83.0 L 17.0 84.0 L 17.0 85.0 L 17.333333333333332 86.0 L 17.666666666666668 87.0 L 18.0 88.0 L 18.0 89.0 L 18.0 90.0 L 18.0 91.0 L 18.333333333333332 92.0 L 18.666666666666668 93.0 L 19.0 94.0 L 19.0 95.0 L 19.333333333333332 96.0 L 19.666666666666668 97.0 L 20.0 98.0 L 20.0 99.0 L 20.0 100.0 L 20.0 101.0 L 20.0 102.0 L 20.333333333333332 103.0 L 20.5 103.5 Z" stroke="none" fill="rgb(117,127,62)" />
<path d="M 107.5 105.0 L 108.0 105.0 L 109.0 105.33333333333333 L 110.0 105.66666666666667 L 111.0 106.0 L 112.0 106.0 L 113.0 106.0 L 114.0 106.0 L 115.0 106.0 L 116.0 106.0 L 117.0 106.0 L 118.0 106.0 L 119.0 106.0 L 120.0 105.66666666666667 L 121.0 105.33333333333333 L 122.0 104.66666666666667 L 123.0 104.0 L 123.66666666666667 103.0 L 124.33333333333333 102.0 L 124.66666666666667 101.0 L 125.0 100.0 L 125.0 99.0 L 125.0 98.0 L 125.0 97.0 L 125.0 96.0 L 125.0 95.0 L 125.0 94.0 L 125.0 93.0 L 125.0 92.0 L 125.0 91.0 L 124.66666666666667 90.0 L 124.33333333333333 89.0 L 124.0 88.0 L 124.0 87.0 L 123.66666666666667 86.0 L 123.33333333333333 85.0 L 123.0 84.0 L 123.0 83.0 L 123.0 82.0 L 122.66666666666667 81.0 L 122.33333333333333 80.0 L 122.0 79.0 L 122.0 78.0 L 122.0 77.0 L 122.0 76.0 L 122.0 75.0 L 122.0 74.0 L 122.0 73.0 L 121.66666666666667 72.0 L 121.33333333333333 71.0 L 121.0 70.0 L 121.0 69.0 L 121.0 68.0 L 121.0 67.0 L 120.66666666666667 66.0 L 120.33333333333333 65.0 L 120.0 64.0 L 120.0 63.0 L 120.0 62.0 L 119.66666666666667 61.0 L 119.33333333333333 60.0 L 119.0 59.0 L 118.66666666666667 58.0 L 118.33333333333333 57.0 L 118.0 56.0 L 117.66666666666667 55.0 L 117.33333333333333 54.0 L 117.0 53.0 L 116.66666666666667 52.0 L 116.33333333333333 51.0 L 115.66666666666667 50.0 L 115.33333333333333 49.0 L 114.66666666666667 48.0 L 114.0 47.0 L 113.33333333333333 46.0 L 112.66666666666667 45.0 L 112.0 44.0 L 111.33333333333333 43.0 L 110.66666666666667 42.0 L 110.0 41.0 L 109.0 40.0 L 108.0 39.0 L 107.0 38.0 L 106.0 37.0 L 105.0 36.333333333333336 L 104.0 35.666666666666664 L 103.0 35.0 L 102.0 34.0 L 101.0 33.333333333333336 L 100.0 32.666666666666664 L 99.0 32.333333333333336 L 98.0 31.666666666666668 L 97.0 31.0 L 96.0 30.333333333333332 L 95.0 29.666666666666668 L 94.0 29.333333333333332 L 93.0 29.0 L 92.0 28.666666666666668 L 91.0 28.333333333333332 L 90.0 27.666666666666668 L 89.0 27.333333333333332 L 88.0 27.0 L 87.0 27.0 L 86.0 26.666666666666668 L 85.0 26.333333333333332 L 84.0 26.0 L 83.0 25.666666666666668 L 82.0 25.333333333333332 L 81.0 25.0 L 80.0 25.0 L 79.0 25.0 L 78.0 24.666666666666668 L 77.0 24.333333333333332 L 76.0 24.0 L 75.0 24.0 L 74.0 24.0 L 73.0 24.0 L 72.0 24.0 L 71.0 24.0 L 70.0 23.666666666666668 L 69.0 23.333333333333332 L 68.0 23.0 L 67.0 23.0 L 66.0 23.0 L 65.0 23.0 L 64.0 23.0 L 63.0 23.0 L 62.0 23.0 L 61.0 23.0 L 60.0 23.0 L 59.0 23.0 L 58.0 23.0 L 57.0 23.0 L 56.0 23.0 L 55.0 23.0 L 54.0 23.0 L 53.0 23.333333333333332 L 52.0 23.666666666666668 L 51.0 24.0 L 50.0 24.0 L 49.0 24.0 L 48.0 24.0 L 47.0 24.0 L 46.0 24.333333333333332 L 45.0 24.666666666666668 L 44.0 25.0 L 43.0 25.0 L 42.0 24.666666666666668 L 41.0 24.333333333333332 L 40.0 24.0 L 39.0 24.0 L 38.0 24.0 L 37.0 24.0 L 36.0 24.0 L 35.0 24.333333333333332 L 34.0 24.666666666666668 L 33.0 25.333333333333332 L 32.333333333333336 26.0 L 32.0 27.0 L 32.0 28.0 L 32.333333333333336 29.0 L 33.0 30.0 L 33.666666666666664 31.0 L 34.333333333333336 32.0 L 34.666666666666664 33.0 L 34.666666666666664 34.0 L 34.0 35.0 L 33.0 36.0 L 32.0 36.666666666666664 L 31.0 37.0 L 30.0 37.0 L 29.0 37.0 L 28.0 37.0 L 27.0 37.0 L 26.0 37.333333333333336 L 25.333333333333332 38.0 L 25.0 39.0 L 25.0 40.0 L 25.0 41.0 L 25.0 42.0 L 25.0 43.0 L 25.0 44.0 L 25.0 45.0 L 25.0 46.0 L 25.333333333333332 47.0 L 25.666666666666668 48.0 L 26.0 49.0 L 26.0 50.0 L 26.333333333333332 51.0 L 26.666666666666668 52.0 L 27.0 53.0 L 27.0 54.0 L 27.0 55.0 L 27.0 56.0 L 27.0 57.0 L 27.0 58.0 L 27.0 59.0 L 27.0 60.0 L 27.333333333333332 61.0 L 27.666666666666668 62.0 L 28.0 63.0 L 28.0 64.0 L 28.333333333333332 65.0 L 28.666666666666668 66.0 L 29.333333333333332 67.0 L 30.0 68.0 L 30.666666666666668 69.0 L 31.333333333333332 70.0 L 31.666666666666668 71.0 L 32.333333333333336 72.0 L 33.0 73.0 L 33.666666666666664 74.0 L 34.333333333333336 75.0 L 35.0 76.0 L 35.666666666666664 77.0 L 36.333333333333336 78.0 L 37.0 79.0 L 38.0 80.0 L 38.666666666666664 81.0 L 39.333333333333336 82.0 L 40.0 83.0 L 41.0 84.0 L 42.0 85.0 L 43.0 86.0 L 44.0 87.0 L 45.0 88.0 L 46.0 89.0 L 47.0 90.0 L 48.0 91.0 L 49.0 91.66666666666667 L 50.0 92.33333333333333 L 51.0 93.0 L 52.0 93.66666666666667 L 53.0 94.33333333333333 L 54.0 94.66666666666667 L 55.0 95.33333333333333 L 56.0 95.66666666666667 L 57.0 96.33333333333333 L 58.0 97.0 L 59.0 97.66666666666667 L 60.0 98.0 L 61.0 98.33333333333333 L 62.0 98.66666666666667 L 63.0 99.33333333333333 L 64.0 99.66666666666667 L 65.0 100.33333333333333 L 66.0 100.66666666666667 L 67.0 101.0 L 68.0 101.33333333333333 L 69.0 101.66666666666667 L 70.0 102.0 L 71.0 102.33333333333333 L 72.0 102.66666666666667 L 73.0 103.0 L 74.0 103.0 L 75.0 103.33333333333333 L 76.0 103.66666666666667 L 77.0 104.0 L 78.0 104.0 L 79.0 104.0 L 80.0 104.0 L 81.0 104.33333333333333 L 82.0 104.66666666666667 L 83.0 105.0 L 84.0 105.0 L 85.0 105.0 L 86.0 105.0 L 87.0 105.0 L 88.0 105.0 L 89.0 105.0 L 90.0 105.0 L 91.0 105.0 L 92.0 105.0 L 93.0 105.0 L 94.0 105.0 L 95.0 105.0 L 96.0 105.0 L 97.0 105.0 L 98.0 105.0 L 99.0 105.0 L 100.0 105.0 L 101.0 105.0 L 102.0 105.0 L 103.0 105.0 L 104.0 105.0 L 105.0 105.0 L 106.0 105.0 L 106.5 105.0 Z" stroke="none" fill="rgb(252,194,25)" />
<path d="M 53.5 38.5 L 54.0 39.0 L 55.0 40.0 L 56.0 40.666666666666664 L 57.0 41.0 L 58.0 41.0 L 59.0 41.0 L 60.0 41.0 L 61.0 41.333333333333336 L 62.0 41.666666666666664 L 63.0 42.0 L 64.0 42.333333333333336 L 65.0 42.666666666666664 L 66.0 43.333333333333336 L 67.0 43.666666666666664 L 68.0 44.333333333333336 L 69.0 45.0 L 70.0 45.666666666666664 L 71.0 46.333333333333336 L 72.0 47.0 L 73.0 47.666666666666664 L 74.0 48.333333333333336 L 75.0 49.0 L 76.0 49.666666666666664 L 77.0 50.333333333333336 L 78.0 50.666666666666664 L 79.0 51.0 L 80.0 51.333333333333336 L 81.0 51.666666666666664 L 82.0 52.0 L 83.0 52.0 L 84.0 52.0 L 85.0 52.0 L 86.0 51.666666666666664 L 87.0 51.0 L 87.66666666666667 50.0 L 88.0 49.0 L 88.0 48.0 L 88.0 47.0 L 88.0 46.0 L 87.66666666666667 45.0 L 87.33333333333333 44.0 L 86.66666666666667 43.0 L 86.0 42.0 L 85.0 41.0 L 84.0 40.0 L 83.0 39.0 L 82.0 38.0 L 81.0 37.0 L 80.0 36.0 L 79.0 35.333333333333336 L 78.0 34.666666666666664 L 77.0 34.0 L 76.0 33.333333333333336 L 75.0 32.666666666666664 L 74.0 32.333333333333336 L 73.0 31.666666666666668 L 72.0 31.333333333333332 L 71.0 31.0 L 70.0 30.666666666666668 L 69.0 30.333333333333332 L 68.0 30.0 L 67.0 30.0 L 66.0 30.0 L 65.0 30.0 L 64.0 30.0 L 63.0 30.0 L 62.0 30.0 L 61.0 30.0 L 60.0 30.0 L 59.0 30.333333333333332 L 58.0 30.666666666666668 L 57.0 31.0 L 56.0 31.333333333333332 L 55.0 32.0 L 54.0 33.0 L 53.333333333333336 34.0 L 53.0 35.0 L 53.0 36.0 L 53.0 37.0 L 53.0 37.5 Z" stroke="none" fill="rgb(255,235,201)" />
<path d="M 23.0 37.5 L 23.333333333333332 37.0 L 23.666666666666668 36.0 L 24.0 35.0 L 24.0 34.0 L 23.666666666666668 33.0 L 23.0 32.333333333333336 L 22.0 32.0 L 21.0 32.333333333333336 L 20.0 33.0 L 19.0 34.0 L 18.333333333333332 35.0 L 17.666666666666668 36.0 L 17.0 37.0 L 16.0 38.0 L 15.333333333333334 39.0 L 14.666666666666666 40.0 L 14.0 41.0 L 13.0 42.0 L 12.333333333333334 43.0 L 11.666666666666666 44.0 L 11.333333333333334 45.0 L 10.666666666666666 46.0 L 10.0 47.0 L 9.333333333333334 48.0 L 8.666666666666666 49.0 L 8.333333333333334 50.0 L 7.666666666666667 51.0 L 7.333333333333333 52.0 L 6.666666666666667 53.0 L 6.333333333333333 54.0 L 6.0 55.0 L 5.666666666666667 56.0 L 5.333333333333333 57.0 L 5.0 58.0 L 4.666666666666667 59.0 L 4.333333333333333 60.0 L 4.0 61.0 L 4.0 62.0 L 4.0 63.0 L 4.0 64.0 L 4.0 65.0 L 4.0 66.0 L 4.0 67.0 L 4.0 68.0 L 4.0 69.0 L 4.0 70.0 L 4.0 71.0 L 4.0 72.0 L 4.0 73.0 L 4.0 74.0 L 4.0 75.0 L 4.0 76.0 L 4.333333333333333 77.0 L 4.666666666666667 78.0 L 5.0 79.0 L 5.333333333333333 80.0 L 5.666666666666667 81.0 L 6.0 82.0 L 6.333333333333333 83.0 L 6.666666666666667 84.0 L 7.333333333333333 85.0 L 7.666666666666667 86.0 L 8.333333333333334 87.0 L 9.0 88.0 L 9.666666666666666 89.0 L 10.333333333333334 90.0 L 11.0 91.0 L 11.666666666666666 92.0 L 12.333333333333334 93.0 L 13.0 94.0 L 13.666666666666666 95.0 L 14.333333333333334 96.0 L 14.666666666666666 97.0 L 15.333333333333334 98.0 L 16.0 99.0 L 16.666666666666668 100.0 L 17.333333333333332 101.0 L 18.0 102.0 L 19.0 102.66666666666667 L 19.666666666666668 102.66666666666667 L 20.0 102.0 L 20.0 101.0 L 20.0 100.0 L 20.0 99.0 L 20.0 98.0 L 20.0 97.0 L 19.666666666666668 96.0 L 19.333333333333332 95.0 L 19.0 94.0 L 19.0 93.0 L 18.666666666666668 92.0 L 18.333333333333332 91.0 L 18.0 90.0 L 18.0 89.0 L 18.0 88.0 L 18.0 87.0 L 17.666666666666668 86.0 L 17.333333333333332 85.0 L 17.0 84.0 L 17.0 83.0 L 17.0 82.0 L 17.0 81.0 L 17.0 80.0 L 17.0 79.0 L 17.0 78.0 L 17.0 77.0 L 17.0 76.0 L 17.0 75.0 L 17.0 74.0 L 17.0 73.0 L 17.0 72.0 L 17.0 71.0 L 17.0 70.0 L 17.0 69.0 L 17.0 68.0 L 17.0 67.0 L 17.0 66.0 L 17.0 65.0 L 17.0 64.0 L 17.0 63.0 L 17.0 62.0 L 17.0 61.0 L 17.0 60.0 L 17.0 59.0 L 17.333333333333332 58.0 L 17.666666666666668 57.0 L 18.0 56.0 L 18.0 55.0 L 18.0 54.0 L 18.0 53.0 L 18.0 52.0 L 18.333333333333332 51.0 L 18.666666666666668 50.0 L 19.0 49.0 L 19.0 48.0 L 19.333333333333332 47.0 L 19.666666666666668 46.0 L 20.0 45.0 L 20.333333333333332 44.0 L 20.666666666666668 43.0 L 21.0 42.0 L 21.333333333333332 41.0 L 21.666666666666668 40.0 L 22.333333333333332 39.0 L 22.5 38.5 Z" stroke="none" fill="rgb(148,166,29)" />
<path d="M 95.5 114.0 L 96.0 114.0 L 97.0 114.0 L 98.0 113.66666666666667 L 99.0 113.33333333333333 L 100.0 113.0 L 101.0 113.0 L 102.0 113.0 L 103.0 112.66666666666667 L 104.0 112.66666666666667 L 105.0 112.66666666666667 L 106.0 113.0 L 107.0 113.0 L 108.0 113.0 L 109.0 113.0 L 110.0 113.0 L 111.0 113.0 L 112.0 113.0 L 113.0 113.0 L 114.0 112.66666666666667 L 115.0 112.33333333333333 L 116.0 112.0 L 117.0 111.66666666666667 L 118.0 111.0 L 119.0 110.0 L 120.0 109.0 L 120.66666666666667 108.0 L 121.0 107.0 L 121.0 106.0 L 120.66666666666667 105.33333333333333 L 120.0 105.33333333333333 L 119.0 105.66666666666667 L 118.0 106.0 L 117.0 106.0 L 116.0 106.0 L 115.0 106.0 L 114.0 106.0 L 113.0 106.0 L 112.0 106.0 L 111.0 105.66666666666667 L 110.0 105.33333333333333 L 109.0 105.0 L 108.0 105.0 L 107.0 105.0 L 106.0 105.0 L 105.0 105.0 L 104.0 105.0 L 103.0 105.0 L 102.0 105.0 L 101.0 105.0 L 100.0 105.0 L 99.0 105.0 L 98.0 105.0 L 97.0 105.0 L 96.0 105.0 L 95.0 105.0 L 94.0 105.0 L 93.0 105.0 L 92.0 105.0 L 91.0 105.0 L 90.0 105.0 L 89.0 105.0 L 88.0 105.0 L 87.0 105.0 L 86.0 105.0 L 85.0 105.0 L 84.0 105.0 L 83.0 104.66666666666667 L 82.0 104.33333333333333 L 81.0 104.0 L 80.0 104.0 L 79.0 104.0 L 78.0 104.0 L 77.0 103.66666666666667 L 76.0 103.33333333333333 L 75.0 103.0 L 74.0 103.0 L 73.0 102.66666666666667 L 72.0 102.33333333333333 L 71.0 102.0 L 70.0 101.66666666666667 L 69.0 101.33333333333333 L 68.0 101.0 L 67.0 100.66666666666667 L 66.0 100.33333333333333 L 65.0 99.66666666666667 L 64.0 99.33333333333333 L 63.0 98.66666666666667 L 62.0 98.33333333333333 L 61.0 98.0 L 60.0 97.66666666666667 L 59.0 97.0 L 58.0 96.33333333333333 L 57.0 95.66666666666667 L 56.0 95.33333333333333 L 55.0 94.66666666666667 L 54.0 94.33333333333333 L 53.0 93.66666666666667 L 52.0 93.0 L 51.0 92.33333333333333 L 50.0 91.66666666666667 L 49.0 91.0 L 48.0 90.0 L 47.0 89.0 L 46.0 88.0 L 45.0 87.0 L 44.0 86.0 L 43.0 85.0 L 42.0 84.0 L 41.0 83.0 L 40.0 82.0 L 39.333333333333336 81.0 L 38.666666666666664 80.0 L 38.0 79.0 L 37.0 78.0 L 36.333333333333336 77.0 L 35.666666666666664 76.0 L 35.0 75.0 L 34.333333333333336 74.0 L 33.666666666666664 73.0 L 33.0 72.0 L 32.333333333333336 71.0 L 31.666666666666668 70.0 L 31.333333333333332 69.0 L 30.666666666666668 68.0 L 30.0 67.33333333333333 L 29.0 67.0 L 28.333333333333332 67.33333333333333 L 28.0 68.0 L 28.0 69.0 L 28.0 70.0 L 28.0 71.0 L 28.333333333333332 72.0 L 28.666666666666668 73.0 L 29.0 74.0 L 29.0 75.0 L 29.333333333333332 76.0 L 29.666666666666668 77.0 L 30.0 78.0 L 30.333333333333332 79.0 L 30.666666666666668 80.0 L 31.333333333333332 81.0 L 31.666666666666668 82.0 L 32.333333333333336 83.0 L 32.666666666666664 84.0 L 33.0 85.0 L 33.0 86.0 L 33.333333333333336 87.0 L 34.0 88.0 L 34.666666666666664 89.0 L 35.333333333333336 90.0 L 36.0 91.0 L 36.666666666666664 92.0 L 37.333333333333336 93.0 L 38.0 94.0 L 39.0 95.0 L 40.0 96.0 L 41.0 97.0 L 42.0 98.0 L 42.666666666666664 99.0 L 43.333333333333336 100.0 L 44.0 101.0 L 45.0 101.66666666666667 L 46.0 102.33333333333333 L 47.0 103.0 L 48.0 104.0 L 49.0 105.0 L 50.0 105.66666666666667 L 51.0 106.33333333333333 L 52.0 107.0 L 53.0 107.66666666666667 L 54.0 108.33333333333333 L 55.0 108.66666666666667 L 56.0 109.33333333333333 L 57.0 109.66666666666667 L 58.0 110.33333333333333 L 59.0 110.66666666666667 L 60.0 111.33333333333333 L 61.0 111.66666666666667 L 62.0 112.0 L 63.0 112.33333333333333 L 64.0 112.66666666666667 L 65.0 113.0 L 66.0 113.0 L 67.0 113.33333333333333 L 68.0 113.66666666666667 L 69.0 114.0 L 70.0 114.0 L 71.0 114.0 L 72.0 114.0 L 73.0 114.0 L 74.0 114.33333333333333 L 75.0 114.66666666666667 L 76.0 115.0 L 77.0 115.0 L 78.0 115.0 L 79.0 115.0 L 80.0 115.0 L 81.0 115.0 L 82.0 115.0 L 83.0 115.0 L 84.0 115.0 L 85.0 115.0 L 86.0 115.0 L 87.0 115.0 L 88.0 115.0 L 89.0 115.0 L 90.0 115.0 L 91.0 115.0 L 92.0 114.66666666666667 L 93.0 114.33333333333333 L 94.0 114.0 L 94.5 114.0 Z" stroke="none" fill="rgb(247,147,42)" />
</svg>
