<?xml version="1.0" encoding="UTF-8" standalone="no"?>
<!DOCTYPE svg PUBLIC "-//W3C//DTD SVG 1.1//EN"
"http://www.w3.org/Graphics/SVG/1.1/DTD/svg11.dtd">
<svg width="128" height="128" xmlns="http://www.w3.org/2000/svg" version="1.1">
<path d="M 88.5 128.0 L 89.0 128.0 L 90.0 128.0 L 91.0 128.0 L 92.0 128.0 L 93.0 128.0 L 94.0 128.0 L 95.0 128.0 L 96.0 128.0 L 97.0 128.0 L 98.0 128.0 L 99.0 128.0 L 100.0 128.0 L 101.0 128.0 L 102.0 128.0 L 103.0 128.0 L 104.0 128.0 L 105.0 128.0 L 106.0 128.0 L 107.0 128.0 L 108.0 128.0 L 109.0 128.0 L 110.0 128.0 L 111.0 128.0 L 112.0 128.0 L 113.0 128.0 L 114.0 128.0 L 115.0 128.0 L 116.0 128.0 L 117.0 128.0 L 118.0 128.0 L 119.0 128.0 L 120.0 128.0 L 121.0 128.0 L 122.0 128.0 L 123.0 128.0 L 124.0 128.0 L 125.0 128.0 L 126.0 128.0 L 127.0 128.0 L 127.66666666666667 127.66666666666667 L 128.0 127.0 L 128.0 126.0 L 128.0 125.0 L 128.0 124.0 L 128.0 123.0 L 128.0 122.0 L 128.0 121.0 L 128.0 120.0 L 128.0 119.0 L 128.0 118.0 L 128.0 117.0 L 128.0 116.0 L 128.0 115.0 L 128.0 114.0 L 128.0 113.0 L 128.0 112.0 L 128.0 111.0 L 128.0 110.0 L 128.0 109.0 L 128.0 108.0 L 128.0 107.0 L 128.0 106.0 L 128.0 105.0 L 128.0 104.0 L 128.0 103.0 L 128.0 102.0 L 128.0 101.0 L 128.0 100.0 L 128.0 99.0 L 128.0 98.0 L 128.0 97.0 L 128.0 96.0 L 128.0 95.0 L 128.0 94.0 L 128.0 93.0 L 128.0 92.0 L 128.0 91.0 L 128.0 90.0 L 128.0 89.0 L 128.0 88.0 L 128.0 87.0 L 128.0 86.0 L 128.0 85.0 L 128.0 84.0 L 128.0 83.0 L 128.0 82.0 L 128.0 81.0 L 128.0 80.0 L 128.0 79.0 L 128.0 78.0 L 128.0 77.0 L 128.0 76.0 L 128.0 75.0 L 128.0 74.0 L 128.0 73.0 L 128.0 72.0 L 128.0 71.0 L 128.0 70.0 L 128.0 69.0 L 128.0 68.0 L 128.0 67.0 L 128.0 66.0 L 128.0 65.0 L 128.0 64.0 L 128.0 63.0 L 128.0 62.0 L 128.0 61.0 L 128.0 60.0 L 128.0 59.0 L 128.0 58.0 L 128.0 57.0 L 128.0 56.0 L 128.0 55.0 L 128.0 54.0 L 128.0 53.0 L 128.0 52.0 L 128.0 51.0 L 128.0 50.0 L 128.0 49.0 L 128.0 48.0 L 128.0 47.0 L 128.0 46.0 L 128.0 45.0 L 128.0 44.0 L 128.0 43.0 L 128.0 42.0 L 128.0 41.0 L 128.0 40.0 L 128.0 39.0 L 128.0 38.0 L 128.0 37.0 L 128.0 36.0 L 128.0 35.0 L 128.0 34.0 L 128.0 33.0 L 128.0 32.0 L 128.0 31.0 L 128.0 30.0 L 128.0 29.0 L 128.0 28.0 L 128.0 27.0 L 128.0 26.0 L 128.0 25.0 L 128.0 24.0 L 128.0 23.0 L 128.0 22.0 L 128.0 21.0 L 128.0 20.0 L 128.0 19.0 L 128.0 18.0 L 128.0 17.0 L 128.0 16.0 L 128.0 15.0 L 128.0 14.0 L 128.0 13.0 L 128.0 12.0 L 128.0 11.0 L 128.0 10.0 L 128.0 9.0 L 128.0 8.0 L 128.0 7.0 L 128.0 6.0 L 128.0 5.0 L 128.0 4.0 L 128.0 3.0 L 128.0 2.0 L 128.0 1.0 L 127.66666666666667 0.3333333333333333 L 127.0 0.0 L 126.0 0.0 L 125.0 0.0 L 124.0 0.0 L 123.0 0.0 L 122.0 0.0 L 121.0 0.0 L 120.0 0.0 L 119.0 0.0 L 118.0 0.0 L 117.0 0.0 L 116.0 0.0 L 115.0 0.0 L 114.0 0.0 L 113.0 0.0 L 112.0 0.0 L 111.0 0.0 L 110.0 0.0 L 109.0 0.0 L 108.0 0.0 L 107.0 0.0 L 106.0 0.0 L 105.0 0.0 L 104.0 0.0 L 103.0 0.0 L 102.0 0.0 L 101.0 0.0 L 100.0 0.0 L 99.0 0.0 L 98.0 0.0 L 97.0 0.0 L 96.0 0.0 L 95.0 0.0 L 94.0 0.0 L 93.0 0.0 L 92.0 0.0 L 91.0 0.0 L 90.0 0.0 L 89.0 0.0 L 88.0 0.0 L 87.0 0.0 L 86.0 0.0 L 85.0 0.0 L 84.0 0.0 L 83.0 0.0 L 82.0 0.0 L 81.0 0.0 L 80.0 0.0 L 79.0 0.0 L 78.0 0.0 L 77.0 0.0 L 76.0 0.0 L 75.0 0.0 L 74.0 0.0 L 73.0 0.0 L 72.0 0.0 L 71.0 0.0 L 70.0 0.0 L 69.0 0.0 L 68.0 0.0 L 67.0 0.0 L 66.0 0.0 L 65.0 0.0 L 64.0 0.0 L 63.0 0.0 L 62.0 0.0 L 61.0 0.0 L 60.0 0.0 L 59.0 0.0 L 58.0 0.0 L 57.0 0.0 L 56.0 0.0 L 55.0 0.0 L 54.0 0.0 L 53.0 0.0 L 52.0 0.0 L 51.0 0.0 L 50.0 0.0 L 49.0 0.0 L 48.0 0.0 L 47.0 0.0 L 46.0 0.0 L 45.0 0.0 L 44.0 0.0 L 43.0 0.0 L 42.0 0.0 L 41.0 0.0 L 40.0 0.0 L 39.0 0.0 L 38.0 0.0 L 37.0 0.0 L 36.0 0.0 L 35.0 0.0 L 34.0 0.0 L 33.0 0.0 L 32.0 0.0 L 31.0 0.0 L 30.0 0.0 L 29.0 0.0 L 28.0 0.0 L 27.0 0.0 L 26.0 0.0 L 25.0 0.0 L 24.0 0.0 L 23.0 0.0 L 22.0 0.0 L 21.0 0.0 L 20.0 0.0 L 19.0 0.0 L 18.0 0.0 L 17.0 0.0 L 16.0 0.0 L 15.0 0.0 L 14.0 0.0 L 13.0 0.0 L 12.0 0.0 L 11.0 0.0 L 10.0 0.0 L 9.0 0.0 L 8.0 0.0 L 7.0 0.0 L 6.0 0.0 L 5.0 0.0 L 4.0 0.0 L 3.0 0.0 L 2.0 0.0 L 1.0 0.0 L 0.3333333333333333 0.3333333333333333 L 0.0 1.0 L 0.0 2.0 L 0.0 3.0 L 0.0 4.0 L 0.0 5.0 L 0.0 6.0 L 0.0 7.0 L 0.0 8.0 L 0.0 9.0 L 0.0 10.0 L 0.0 11.0 L 0.0 12.0 L 0.0 13.0 L 0.0 14.0 L 0.0 15.0 L 0.0 16.0 L 0.0 17.0 L 0.0 18.0 L 0.0 19.0 L 0.0 20.0 L 0.0 21.0 L 0.0 22.0 L 0.0 23.0 L 0.0 24.0 L 0.0 25.0 L 0.0 26.0 L 0.0 27.0 L 0.0 28.0 L 0.0 29.0 L 0.0 30.0 L 0.0 31.0 L 0.0 32.0 L 0.0 33.0 L 0.0 34.0 L 0.0 35.0 L 0.0 36.0 L 0.0 37.0 L 0.0 38.0 L 0.0 39.0 L 0.0 40.0 L 0.0 41.0 L 0.0 42.0 L 0.0 43.0 L 0.0 44.0 L 0.0 45.0 L 0.0 46.0 L 0.0 47.0 L 0.0 48.0 L 0.0 49.0 L 0.0 50.0 L 0.0 51.0 L 0.0 52.0 L 0.0 53.0 L 0.0 54.0 L 0.0 55.0 L 0.0 56.0 L 0.0 57.0 L 0.0 58.0 L 0.0 59.0 L 0.0 60.0 L 0.0 61.0 L 0.0 62.0 L 0.0 63.0 L 0.0 64.0 L 0.0 65.0 L 0.0 66.0 L 0.0 67.0 L 0.0 68.0 L 0.0 69.0 L 0.0 70.0 L 0.0 71.0 L 0.0 72.0 L 0.0 73.0 L 0.0 74.0 L 0.0 75.0 L 0.0 76.0 L 0.0 77.0 L 0.0 78.0 L 0.0 79.0 L 0.0 80.0 L 0.0 81.0 L 0.0 82.0 L 0.0 83.0 L 0.0 84.0 L 0.0 85.0 L 0.0 86.0 L 0.0 87.0 L 0.0 88.0 L 0.0 89.0 L 0.0 90.0 L 0.0 91.0 L 0.0 92.0 L 0.0 93.0 L 0.0 94.0 L 0.0 95.0 L 0.0 96.0 L 0.0 97.0 L 0.0 98.0 L 0.0 99.0 L 0.0 100.0 L 0.0 101.0 L 0.0 102.0 L 0.0 103.0 L 0.0 104.0 L 0.0 105.0 L 0.0 106.0 L 0.0 107.0 L 0.0 108.0 L 0.0 109.0 L 0.0 110.0 L 0.0 111.0 L 0.0 112.0 L 0.0 113.0 L 0.0 114.0 L 0.0 115.0 L 0.0 116.0 L 0.0 117.0 L 0.0 118.0 L 0.0 119.0 L 0.0 120.0 L 0.0 121.0 L 0.0 122.0 L 0.0 123.0 L 0.0 124.0 L 0.0 125.0 L 0.0 126.0 L 0.0 127.0 L 0.3333333333333333 127.66666666666667 L 1.0 128.0 L 2.0 128.0 L 3.0 128.0 L 4.0 128.0 L 5.0 128.0 L 6.0 128.0 L 7.0 128.0 L 8.0 128.0 L 9.0 128.0 L 10.0 128.0 L 11.0 128.0 L 12.0 128.0 L 13.0 128.0 L 14.0 128.0 L 15.0 128.0 L 16.0 128.0 L 17.0 128.0 L 18.0 128.0 L 19.0 128.0 L 20.0 128.0 L 21.0 128.0 L 22.0 128.0 L 23.0 128.0 L 24.0 128.0 L 25.0 128.0 L 26.0 128.0 L 27.0 128.0 L 28.0 128.0 L 29.0 128.0 L 30.0 128.0 L 31.0 128.0 L 32.0 128.0 L 33.0 128.0 L 34.0 128.0 L 35.0 128.0 L 36.0 128.0 L 37.0 128.0 L 38.0 128.0 L 39.0 128.0 L 40.0 128.0 L 41.0 128.0 L 42.0 128.0 L 43.0 128.0 L 44.0 128.0 L 45.0 128.0 L 46.0 128.0 L 47.0 128.0 L 48.0 128.0 L 49.0 128.0 L 50.0 128.0 L 51.0 128.0 L 52.0 128.0 L 53.0 128.0 L 54.0 128.0 L 55.0 128.0 L 56.0 128.0 L 57.0 128.0 L 58.0 128.0 L 59.0 128.0 L 60.0 128.0 L 61.0 128.0 L 62.0 128.0 L 63.0 128.0 L 64.0 128.0 L 65.0 128.0 L 66.0 128.0 L 67.0 128.0 L 68.0 128.0 L 69.0 128.0 L 70.0 128.0 L 71.0 128.0 L 72.0 128.0 L 73.0 128.0 L 74.0 128.0 L 75.0 128.0 L 76.0 128.0 L 77.0 128.0 L 78.0 128.0 L 79.0 128.0 L 80.0 128.0 L 81.0 128.0 L 82.0 128.0 L 83.0 128.0 L 84.0 128.0 L 85.0 128.0 L 86.0 128.0 L 87.0 128.0 L 87.5 128.0 Z" stroke="none" fill="rgb(0,0,0)" />
<path d="M 34.5 14.5 L 35.0 15.0 L 36.0 16.0 L 37.0 16.666666666666668 L 38.0 17.333333333333332 L 39.0 17.666666666666668 L 40.0 18.0 L 41.0 18.333333333333332 L 42.0 18.666666666666668 L 43.0 19.0 L 44.0 19.0 L 45.0 19.0 L 46.0 19.0 L 47.0 19.333333333333332 L 48.0 19.666666666666668 L 49.0 20.0 L 50.0 20.0 L 51.0 19.666666666666668 L 52.0 19.333333333333332 L 53.0 19.0 L 54.0 19.0 L 55.0 19.0 L 56.0 19.0 L 57.0 18.666666666666668 L 58.0 18.333333333333332 L 59.0 18.0 L 60.0 17.666666666666668 L 61.0 17.333333333333332 L 62.0 16.666666666666668 L 63.0 16.0 L 64.0 15.0 L 65.0 14.0 L 66.0 13.0 L 66.66666666666667 12.0 L 67.33333333333333 11.0 L 67.66666666666667 10.0 L 68.0 9.0 L 68.0 8.0 L 68.0 7.0 L 68.0 6.0 L 67.66666666666667 5.0 L 67.0 4.333333333333333 L 66.0 4.0 L 65.0 4.0 L 64.0 4.0 L 63.0 4.0 L 62.0 4.0 L 61.333333333333336 4.333333333333333 L 61.0 5.0 L 61.0 6.0 L 61.0 7.0 L 61.0 8.0 L 61.0 9.0 L 60.666666666666664 10.0 L 60.0 11.0 L 59.0 12.0 L 58.0 13.0 L 57.0 14.0 L 56.0 15.0 L 55.0 16.0 L 54.0 16.666666666666668 L 53.0 17.0 L 52.0 17.0 L 51.0 17.0 L 50.0 17.0 L 49.0 17.0 L 48.0 17.0 L 47.0 17.0 L 46.0 17.0 L 45.0 16.666666666666668 L 44.0 16.333333333333332 L 43.0 15.666666666666666 L 42.0 15.0 L 41.0 14.0 L 40.333333333333336 13.0 L 39.666666666666664 12.0 L 39.333333333333336 11.0 L 38.666666666666664 10.0 L 38.333333333333336 9.0 L 38.0 8.0 L 38.0 7.0 L 38.0 6.0 L 38.0 5.0 L 37.666666666666664 4.333333333333333 L 37.0 4.0 L 36.0 4.0 L 35.0 4.0 L 34.0 4.0 L 33.0 4.0 L 32.0 4.0 L 31.333333333333332 4.333333333333333 L 31.0 5.0 L 31.0 6.0 L 31.0 7.0 L 31.0 8.0 L 31.0 9.0 L 31.0 10.0 L 31.333333333333332 11.0 L 32.0 12.0 L 33.0 13.0 L 33.5 13.5 Z" stroke="none" fill="rgb(104,104,104)" />
<path d="M 55.5 12.0 L 56.0 12.0 L 57.0 11.666666666666666 L 58.0 11.666666666666666 L 59.0 11.666666666666666 L 60.0 11.666666666666666 L 60.666666666666664 11.0 L 61.0 10.0 L 61.0 9.0 L 61.0 8.0 L 61.0 7.0 L 61.0 6.0 L 60.666666666666664 5.0 L 60.0 4.333333333333333 L 59.0 4.0 L 58.0 4.0 L 57.0 4.0 L 56.0 4.0 L 55.0 4.0 L 54.0 4.0 L 53.333333333333336 4.333333333333333 L 53.0 5.0 L 53.333333333333336 6.0 L 53.333333333333336 7.0 L 53.0 8.0 L 52.0 9.0 L 51.0 9.666666666666666 L 50.0 10.0 L 49.0 10.0 L 48.0 9.666666666666666 L 47.0 9.0 L 46.0 8.0 L 45.666666666666664 7.0 L 45.666666666666664 6.0 L 46.0 5.0 L 45.666666666666664 4.333333333333333 L 45.0 4.0 L 44.0 4.0 L 43.0 4.0 L 42.0 4.0 L 41.0 4.0 L 40.0 4.0 L 39.0 4.333333333333333 L 38.333333333333336 5.0 L 38.0 6.0 L 38.0 7.0 L 38.0 8.0 L 38.0 9.0 L 38.333333333333336 10.0 L 38.666666666666664 11.0 L 39.333333333333336 11.666666666666666 L 40.0 12.0 L 41.0 12.0 L 42.0 12.0 L 43.0 12.333333333333334 L 44.0 12.666666666666666 L 45.0 13.0 L 46.0 13.0 L 47.0 13.0 L 48.0 13.0 L 49.0 13.0 L 50.0 13.0 L 51.0 13.0 L 52.0 13.0 L 53.0 13.0 L 54.0 12.666666666666666 L 54.5 12.5 Z" stroke="none" fill="rgb(111,111,111)" />
<path d="M 50.5 10.0 L 51.0 10.0 L 52.0 9.666666666666666 L 53.0 9.0 L 53.666666666666664 8.0 L 54.0 7.0 L 53.666666666666664 6.0 L 53.0 5.0 L 52.0 4.333333333333333 L 51.0 4.0 L 50.0 4.333333333333333 L 49.0 4.666666666666667 L 48.0 5.0 L 47.0 5.0 L 46.0 5.333333333333333 L 45.333333333333336 6.0 L 45.0 7.0 L 45.333333333333336 8.0 L 46.0 9.0 L 47.0 9.666666666666666 L 48.0 10.0 L 49.0 10.0 L 49.5 10.0 Z" stroke="none" fill="rgb(117,116,116)" />
<path d="M 72.0 10.5 L 72.33333333333333 10.0 L 72.66666666666667 9.0 L 72.66666666666667 8.0 L 72.0 7.0 L 71.0 6.333333333333333 L 70.0 6.0 L 69.0 6.0 L 68.33333333333333 6.333333333333333 L 68.0 7.0 L 68.0 8.0 L 67.66666666666667 9.0 L 67.33333333333333 10.0 L 66.66666666666667 11.0 L 66.0 12.0 L 65.0 13.0 L 64.0 14.0 L 63.0 15.0 L 62.0 16.0 L 61.0 16.666666666666668 L 60.0 17.333333333333332 L 59.0 17.666666666666668 L 58.0 18.0 L 57.0 18.333333333333332 L 56.0 18.666666666666668 L 55.0 19.0 L 54.0 19.0 L 53.0 19.0 L 52.0 19.0 L 51.0 19.333333333333332 L 50.0 19.666666666666668 L 49.0 19.666666666666668 L 48.0 19.333333333333332 L 47.0 19.0 L 46.0 19.0 L 45.0 19.0 L 44.0 19.0 L 43.0 18.666666666666668 L 42.0 18.333333333333332 L 41.0 18.0 L 40.0 17.666666666666668 L 39.0 17.333333333333332 L 38.0 16.666666666666668 L 37.0 16.0 L 36.0 15.0 L 35.0 14.0 L 34.0 13.0 L 33.0 12.0 L 32.0 11.0 L 31.333333333333332 10.0 L 31.0 9.0 L 31.0 8.0 L 31.0 7.0 L 31.0 6.0 L 30.666666666666668 5.333333333333333 L 30.0 5.0 L 29.0 5.333333333333333 L 28.0 5.666666666666667 L 27.0 6.333333333333333 L 26.333333333333332 7.0 L 26.333333333333332 8.0 L 26.666666666666668 9.0 L 27.0 10.0 L 27.333333333333332 11.0 L 27.666666666666668 12.0 L 28.333333333333332 13.0 L 28.666666666666668 14.0 L 29.333333333333332 15.0 L 30.0 15.666666666666666 L 31.0 16.333333333333332 L 32.0 17.0 L 33.0 18.0 L 34.0 18.666666666666668 L 35.0 19.333333333333332 L 36.0 19.666666666666668 L 37.0 20.0 L 38.0 20.333333333333332 L 39.0 20.666666666666668 L 40.0 21.0 L 41.0 21.333333333333332 L 42.0 21.666666666666668 L 43.0 22.0 L 44.0 22.0 L 45.0 22.0 L 46.0 22.0 L 47.0 22.0 L 48.0 22.0 L 49.0 22.0 L 50.0 22.0 L 51.0 22.0 L 52.0 22.0 L 53.0 22.0 L 54.0 22.0 L 55.0 22.0 L 56.0 22.0 L 57.0 21.666666666666668 L 58.0 21.333333333333332 L 59.0 21.0 L 60.0 20.666666666666668 L 61.0 20.333333333333332 L 62.0 20.0 L 63.0 19.666666666666668 L 64.0 19.333333333333332 L 65.0 18.666666666666668 L 66.0 18.0 L 67.0 17.0 L 68.0 16.0 L 69.0 15.0 L 70.0 14.0 L 70.66666666666667 13.0 L 71.33333333333333 12.0 L 71.5 11.5 Z" stroke="none" fill="rgb(98,98,98)" />
<path d="M 72.5 17.5 L 72.66666666666667 17.0 L 73.33333333333333 16.0 L 74.0 15.0 L 74.66666666666667 14.0 L 75.33333333333333 13.0 L 75.66666666666667 12.0 L 75.66666666666667 11.0 L 75.0 10.0 L 74.0 9.333333333333334 L 73.0 9.0 L 72.33333333333333 9.333333333333334 L 71.66666666666667 10.0 L 71.33333333333333 11.0 L 70.66666666666667 12.0 L 70.0 13.0 L 69.0 14.0 L 68.0 15.0 L 67.0 16.0 L 66.0 17.0 L 65.0 18.0 L 64.0 18.666666666666668 L 63.0 19.333333333333332 L 62.0 19.666666666666668 L 61.0 20.0 L 60.0 20.333333333333332 L 59.0 20.666666666666668 L 58.0 21.0 L 57.0 21.333333333333332 L 56.0 21.666666666666668 L 55.0 22.0 L 54.0 22.0 L 53.0 22.0 L 52.0 22.0 L 51.0 22.0 L 50.0 22.0 L 49.0 22.0 L 48.0 22.0 L 47.0 22.0 L 46.0 22.0 L 45.0 22.0 L 44.0 22.0 L 43.0 21.666666666666668 L 42.0 21.333333333333332 L 41.0 21.0 L 40.0 20.666666666666668 L 39.0 20.333333333333332 L 38.0 20.0 L 37.0 19.666666666666668 L 36.0 19.333333333333332 L 35.0 18.666666666666668 L 34.0 18.0 L 33.0 17.0 L 32.0 16.333333333333332 L 31.0 15.666666666666666 L 30.0 15.0 L 29.333333333333332 14.0 L 28.666666666666668 13.0 L 28.333333333333332 12.0 L 27.666666666666668 11.0 L 27.333333333333332 10.0 L 27.0 9.0 L 26.666666666666668 8.333333333333334 L 26.0 8.0 L 25.0 8.333333333333334 L 24.333333333333332 9.0 L 23.666666666666668 10.0 L 23.333333333333332 11.0 L 23.333333333333332 12.0 L 23.666666666666668 13.0 L 24.333333333333332 14.0 L 24.666666666666668 15.0 L 25.333333333333332 16.0 L 26.0 17.0 L 27.0 17.666666666666668 L 28.0 18.333333333333332 L 29.0 19.0 L 30.0 20.0 L 31.0 20.666666666666668 L 32.0 21.333333333333332 L 33.0 21.666666666666668 L 34.0 22.0 L 35.0 22.333333333333332 L 36.0 22.666666666666668 L 37.0 23.0 L 38.0 23.333333333333332 L 39.0 23.666666666666668 L 40.0 24.0 L 41.0 24.0 L 42.0 24.333333333333332 L 43.0 24.666666666666668 L 44.0 25.0 L 45.0 25.0 L 46.0 25.0 L 47.0 25.0 L 48.0 25.0 L 49.0 25.0 L 50.0 25.0 L 51.0 25.0 L 52.0 25.0 L 53.0 25.0 L 54.0 25.0 L 55.0 25.0 L 56.0 24.666666666666668 L 57.0 24.333333333333332 L 58.0 24.0 L 59.0 24.0 L 60.0 23.666666666666668 L 61.0 23.333333333333332 L 62.0 23.0 L 63.0 22.666666666666668 L 64.0 22.333333333333332 L 65.0 22.0 L 66.0 21.666666666666668 L 67.0 21.333333333333332 L 68.0 20.666666666666668 L 69.0 20.0 L 70.0 19.0 L 71.0 18.333333333333332 L 71.5 18.0 Z" stroke="none" fill="rgb(93,93,93)" />
<path d="M 42.5 16.0 L 43.0 16.333333333333332 L 44.0 16.666666666666668 L 45.0 17.0 L 46.0 17.0 L 47.0 17.0 L 48.0 17.0 L 49.0 17.0 L 50.0 17.0 L 51.0 17.0 L 52.0 17.0 L 53.0 17.0 L 54.0 17.0 L 55.0 16.666666666666668 L 56.0 16.0 L 57.0 15.0 L 58.0 14.0 L 58.666666666666664 13.0 L 59.0 12.0 L 58.666666666666664 11.333333333333334 L 58.0 11.0 L 57.0 11.333333333333334 L 56.0 11.666666666666666 L 55.0 12.0 L 54.0 12.333333333333334 L 53.0 12.666666666666666 L 52.0 13.0 L 51.0 13.0 L 50.0 13.0 L 49.0 13.0 L 48.0 13.0 L 47.0 13.0 L 46.0 13.0 L 45.0 12.666666666666666 L 44.0 12.333333333333334 L 43.0 12.0 L 42.0 12.0 L 41.0 12.0 L 40.333333333333336 12.333333333333334 L 40.0 13.0 L 40.333333333333336 14.0 L 41.0 15.0 L 41.5 15.5 Z" stroke="none" fill="rgb(135,135,135)" />
<path d="M 21.5 16.5 L 21.666666666666668 17.0 L 22.333333333333332 18.0 L 23.0 19.0 L 24.0 19.666666666666668 L 25.0 20.333333333333332 L 26.0 21.0 L 27.0 22.0 L 28.0 22.666666666666668 L 29.0 23.333333333333332 L 30.0 23.666666666666668 L 31.0 24.333333333333332 L 32.0 24.666666666666668 L 33.0 25.0 L 34.0 25.333333333333332 L 35.0 25.666666666666668 L 36.0 26.0 L 37.0 26.333333333333332 L 38.0 27.0 L 39.0 27.666666666666668 L 40.0 28.0 L 41.0 28.0 L 42.0 28.0 L 43.0 28.0 L 44.0 28.0 L 45.0 28.0 L 46.0 28.0 L 47.0 28.0 L 48.0 28.0 L 49.0 28.0 L 50.0 28.0 L 51.0 28.0 L 52.0 28.0 L 53.0 28.0 L 54.0 28.0 L 55.0 28.0 L 56.0 28.0 L 57.0 28.0 L 58.0 28.0 L 59.0 28.0 L 59.666666666666664 27.666666666666668 L 60.333333333333336 27.0 L 61.0 26.333333333333332 L 62.0 26.0 L 63.0 26.0 L 64.0 25.666666666666668 L 65.0 25.333333333333332 L 66.0 24.666666666666668 L 67.0 24.333333333333332 L 68.0 24.0 L 69.0 23.666666666666668 L 70.0 23.0 L 71.0 22.333333333333332 L 72.0 21.666666666666668 L 73.0 21.0 L 74.0 20.333333333333332 L 75.0 19.666666666666668 L 76.0 19.0 L 76.66666666666667 18.0 L 77.33333333333333 17.0 L 77.66666666666667 16.0 L 78.0 15.0 L 77.66666666666667 14.0 L 77.33333333333333 13.0 L 76.66666666666667 12.333333333333334 L 76.0 12.0 L 75.33333333333333 12.333333333333334 L 74.66666666666667 13.0 L 74.0 14.0 L 73.33333333333333 15.0 L 72.66666666666667 16.0 L 72.0 17.0 L 71.0 17.666666666666668 L 70.0 18.333333333333332 L 69.0 19.0 L 68.0 20.0 L 67.0 20.666666666666668 L 66.0 21.333333333333332 L 65.0 21.666666666666668 L 64.0 22.0 L 63.0 22.333333333333332 L 62.0 22.666666666666668 L 61.0 23.0 L 60.0 23.333333333333332 L 59.0 23.666666666666668 L 58.0 24.0 L 57.0 24.0 L 56.0 24.333333333333332 L 55.0 24.666666666666668 L 54.0 25.0 L 53.0 25.0 L 52.0 25.0 L 51.0 25.0 L 50.0 25.0 L 49.0 25.0 L 48.0 25.0 L 47.0 25.0 L 46.0 25.0 L 45.0 25.0 L 44.0 24.666666666666668 L 43.0 24.333333333333332 L 42.0 24.0 L 41.0 24.0 L 40.0 23.666666666666668 L 39.0 23.333333333333332 L 38.0 23.0 L 37.0 22.666666666666668 L 36.0 22.333333333333332 L 35.0 22.0 L 34.0 21.666666666666668 L 33.0 21.333333333333332 L 32.0 20.666666666666668 L 31.0 20.0 L 30.0 19.0 L 29.0 18.333333333333332 L 28.0 17.666666666666668 L 27.0 17.0 L 26.0 16.0 L 25.333333333333332 15.0 L 24.666666666666668 14.0 L 24.333333333333332 13.0 L 23.666666666666668 12.333333333333334 L 23.0 12.0 L 22.333333333333332 12.333333333333334 L 21.666666666666668 13.0 L 21.333333333333332 14.0 L 21.0 15.0 L 21.0 15.5 Z" stroke="none" fill="rgb(88,88,88)" />
<path d="M 23.5 25.0 L 24.0 25.333333333333332 L 25.0 25.666666666666668 L 26.0 26.0 L 27.0 26.0 L 28.0 26.333333333333332 L 29.0 26.666666666666668 L 30.0 27.0 L 31.0 27.0 L 32.0 27.0 L 33.0 27.0 L 34.0 27.0 L 35.0 27.333333333333332 L 36.0 27.666666666666668 L 37.0 28.0 L 38.0 28.0 L 38.666666666666664 27.666666666666668 L 38.666666666666664 27.0 L 38.0 26.333333333333332 L 37.0 26.0 L 36.0 25.666666666666668 L 35.0 25.333333333333332 L 34.0 25.0 L 33.0 24.666666666666668 L 32.0 24.333333333333332 L 31.0 23.666666666666668 L 30.0 23.333333333333332 L 29.0 22.666666666666668 L 28.0 22.0 L 27.0 21.0 L 26.0 20.333333333333332 L 25.0 19.666666666666668 L 24.0 19.0 L 23.0 18.0 L 22.333333333333332 17.0 L 21.666666666666668 16.333333333333332 L 21.0 16.0 L 20.333333333333332 16.333333333333332 L 19.666666666666668 17.0 L 19.333333333333332 18.0 L 19.0 19.0 L 19.0 20.0 L 19.0 21.0 L 19.333333333333332 22.0 L 20.0 22.666666666666668 L 21.0 23.333333333333332 L 22.0 24.0 L 22.5 24.5 Z" stroke="none" fill="rgb(82,82,82)" />
<path d="M 80.5 21.5 L 80.66666666666667 21.0 L 81.0 20.0 L 80.66666666666667 19.0 L 80.33333333333333 18.0 L 79.66666666666667 17.0 L 79.0 16.333333333333332 L 78.0 16.0 L 77.33333333333333 16.333333333333332 L 76.66666666666667 17.0 L 76.0 18.0 L 75.0 19.0 L 74.0 19.666666666666668 L 73.0 20.333333333333332 L 72.0 21.0 L 71.0 21.666666666666668 L 70.0 22.333333333333332 L 69.0 23.0 L 68.0 23.666666666666668 L 67.0 24.0 L 66.0 24.333333333333332 L 65.0 24.666666666666668 L 64.0 25.333333333333332 L 63.0 25.666666666666668 L 62.0 26.0 L 61.0 26.0 L 60.333333333333336 26.333333333333332 L 60.0 27.0 L 60.333333333333336 27.666666666666668 L 61.0 28.0 L 62.0 28.0 L 63.0 28.0 L 64.0 28.0 L 65.0 28.0 L 66.0 28.0 L 67.0 27.666666666666668 L 68.0 27.333333333333332 L 69.0 27.0 L 70.0 27.0 L 71.0 27.0 L 72.0 27.0 L 73.0 26.666666666666668 L 74.0 26.333333333333332 L 75.0 26.0 L 75.66666666666667 25.666666666666668 L 76.33333333333333 25.0 L 77.0 24.0 L 78.0 23.333333333333332 L 79.0 22.666666666666668 L 79.5 22.5 Z" stroke="none" fill="rgb(82,82,82)" />
<path d="M 80.5 24.5 L 81.0 24.333333333333332 L 81.66666666666667 23.666666666666668 L 82.0 23.0 L 82.0 22.0 L 81.66666666666667 21.333333333333332 L 81.0 21.0 L 80.0 21.333333333333332 L 79.0 22.0 L 78.0 22.666666666666668 L 77.0 23.333333333333332 L 76.33333333333333 24.0 L 76.33333333333333 24.666666666666668 L 77.0 25.0 L 78.0 25.0 L 79.0 25.0 L 79.5 25.0 Z" stroke="none" fill="rgb(75,75,75)" />
<path d="M 18.5 23.5 L 19.0 23.666666666666668 L 20.0 24.333333333333332 L 21.0 24.666666666666668 L 22.0 25.0 L 22.666666666666668 24.666666666666668 L 22.666666666666668 24.0 L 22.0 23.333333333333332 L 21.0 22.666666666666668 L 20.0 22.333333333333332 L 19.0 22.0 L 18.333333333333332 22.333333333333332 L 18.0 22.5 Z" stroke="none" fill="rgb(75,75,75)" />
<path d="M 21.5 36.0 L 22.0 36.333333333333336 L 23.0 36.666666666666664 L 24.0 37.0 L 25.0 37.0 L 26.0 37.333333333333336 L 27.0 37.666666666666664 L 28.0 38.0 L 29.0 38.0 L 30.0 38.0 L 31.0 38.0 L 32.0 38.0 L 33.0 38.0 L 34.0 38.0 L 35.0 38.333333333333336 L 36.0 39.0 L 37.0 39.666666666666664 L 38.0 39.666666666666664 L 39.0 39.333333333333336 L 40.0 39.0 L 41.0 39.0 L 42.0 39.0 L 43.0 39.0 L 44.0 39.0 L 45.0 39.0 L 46.0 39.0 L 47.0 39.0 L 48.0 39.0 L 49.0 39.0 L 50.0 39.0 L 51.0 39.0 L 52.0 39.333333333333336 L 53.0 40.0 L 54.0 40.666666666666664 L 55.0 40.666666666666664 L 56.0 40.333333333333336 L 57.0 39.666666666666664 L 58.0 39.0 L 59.0 38.0 L 60.0 37.0 L 61.0 36.333333333333336 L 62.0 35.666666666666664 L 63.0 35.333333333333336 L 64.0 34.666666666666664 L 65.0 34.333333333333336 L 66.0 33.666666666666664 L 67.0 33.333333333333336 L 68.0 33.0 L 69.0 33.0 L 70.0 33.0 L 71.0 32.666666666666664 L 72.0 32.333333333333336 L 73.0 32.0 L 74.0 32.0 L 75.0 32.0 L 76.0 32.0 L 77.0 32.0 L 78.0 32.0 L 79.0 32.333333333333336 L 80.0 32.666666666666664 L 81.0 33.333333333333336 L 82.0 33.666666666666664 L 83.0 34.0 L 83.66666666666667 33.666666666666664 L 84.33333333333333 33.0 L 84.66666666666667 32.0 L 85.0 31.0 L 85.0 30.0 L 85.0 29.0 L 85.0 28.0 L 85.0 27.0 L 84.66666666666667 26.0 L 84.0 25.0 L 83.0 24.333333333333332 L 82.0 24.0 L 81.0 24.0 L 80.0 24.333333333333332 L 79.0 24.666666666666668 L 78.0 25.0 L 77.0 25.0 L 76.0 25.333333333333332 L 75.0 25.666666666666668 L 74.0 26.0 L 73.0 26.333333333333332 L 72.0 26.666666666666668 L 71.0 27.0 L 70.0 27.0 L 69.0 27.0 L 68.0 27.0 L 67.0 27.333333333333332 L 66.0 27.666666666666668 L 65.0 28.0 L 64.0 28.0 L 63.0 28.0 L 62.0 28.0 L 61.0 28.0 L 60.0 28.0 L 59.0 28.0 L 58.0 28.0 L 57.0 28.0 L 56.0 28.0 L 55.0 28.0 L 54.0 28.0 L 53.0 28.0 L 52.0 28.0 L 51.0 28.0 L 50.0 28.0 L 49.0 28.0 L 48.0 28.0 L 47.0 28.0 L 46.0 28.0 L 45.0 28.0 L 44.0 28.0 L 43.0 28.0 L 42.0 28.0 L 41.0 28.0 L 40.0 28.0 L 39.0 28.0 L 38.0 28.0 L 37.0 27.666666666666668 L 36.0 27.333333333333332 L 35.0 27.0 L 34.0 27.0 L 33.0 27.0 L 32.0 27.0 L 31.0 27.0 L 30.0 26.666666666666668 L 29.0 26.333333333333332 L 28.0 26.0 L 27.0 26.0 L 26.0 25.666666666666668 L 25.0 25.333333333333332 L 24.0 25.0 L 23.0 25.0 L 22.0 24.666666666666668 L 21.0 24.333333333333332 L 20.0 23.666666666666668 L 19.0 23.333333333333332 L 18.0 23.333333333333332 L 17.333333333333332 24.0 L 16.666666666666668 25.0 L 16.0 26.0 L 15.333333333333334 27.0 L 15.0 28.0 L 15.0 29.0 L 15.0 30.0 L 15.0 31.0 L 15.333333333333334 32.0 L 16.0 33.0 L 17.0 34.0 L 18.0 34.666666666666664 L 19.0 35.0 L 20.0 35.333333333333336 L 20.5 35.5 Z" stroke="none" fill="rgb(65,65,66)" />
<path d="M 16.5 42.0 L 17.0 42.0 L 17.666666666666668 41.666666666666664 L 18.0 41.0 L 18.0 40.0 L 18.0 39.0 L 18.0 38.0 L 17.666666666666668 37.0 L 17.666666666666668 36.0 L 17.666666666666668 35.0 L 17.666666666666668 34.0 L 17.0 33.0 L 16.0 32.0 L 15.333333333333334 31.0 L 15.0 30.0 L 15.0 29.0 L 15.0 28.0 L 14.666666666666666 27.333333333333332 L 14.0 27.333333333333332 L 13.333333333333334 28.0 L 13.0 29.0 L 13.0 30.0 L 12.666666666666666 31.0 L 12.333333333333334 32.0 L 12.0 33.0 L 12.0 34.0 L 12.0 35.0 L 12.0 36.0 L 12.0 37.0 L 12.333333333333334 38.0 L 12.666666666666666 39.0 L 13.333333333333334 40.0 L 14.0 40.666666666666664 L 15.0 41.333333333333336 L 15.5 41.5 Z" stroke="none" fill="rgb(88,88,88)" />
<path d="M 88.0 36.5 L 88.0 36.0 L 88.0 35.0 L 88.0 34.0 L 88.0 33.0 L 88.0 32.0 L 87.66666666666667 31.0 L 87.33333333333333 30.0 L 87.0 29.0 L 87.0 28.0 L 86.66666666666667 27.333333333333332 L 86.0 27.0 L 85.33333333333333 27.333333333333332 L 85.0 28.0 L 85.0 29.0 L 85.0 30.0 L 84.66666666666667 31.0 L 84.33333333333333 32.0 L 84.0 33.0 L 84.33333333333333 34.0 L 85.0 35.0 L 86.0 36.0 L 87.0 36.666666666666664 L 87.5 37.0 Z" stroke="none" fill="rgb(88,88,88)" />
<path d="M 10.5 40.5 L 11.0 40.666666666666664 L 12.0 41.0 L 13.0 41.0 L 13.666666666666666 40.666666666666664 L 13.666666666666666 40.0 L 13.333333333333334 39.0 L 12.666666666666666 38.0 L 12.333333333333334 37.0 L 12.0 36.0 L 12.0 35.0 L 12.0 34.0 L 12.333333333333334 33.0 L 12.666666666666666 32.0 L 13.0 31.0 L 13.0 30.0 L 13.0 29.0 L 12.666666666666666 28.333333333333332 L 12.0 28.0 L 11.0 28.333333333333332 L 10.0 28.666666666666668 L 9.0 29.0 L 8.0 29.333333333333332 L 7.0 29.666666666666668 L 6.0 30.333333333333332 L 5.333333333333333 31.0 L 5.0 32.0 L 5.0 33.0 L 5.0 34.0 L 5.0 35.0 L 5.0 36.0 L 5.0 37.0 L 5.333333333333333 38.0 L 6.0 38.666666666666664 L 7.0 39.333333333333336 L 8.0 39.666666666666664 L 9.0 40.0 L 9.5 40.0 Z" stroke="none" fill="rgb(82,82,82)" />
<path d="M 91.5 40.0 L 92.0 40.0 L 93.0 39.666666666666664 L 94.0 39.0 L 94.66666666666667 38.0 L 95.0 37.0 L 95.0 36.0 L 95.0 35.0 L 95.0 34.0 L 95.0 33.0 L 95.0 32.0 L 94.66666666666667 31.0 L 94.0 30.0 L 93.0 29.333333333333332 L 92.0 28.666666666666668 L 91.0 28.333333333333332 L 90.0 28.0 L 89.0 28.0 L 88.0 28.0 L 87.33333333333333 28.333333333333332 L 87.0 29.0 L 87.0 30.0 L 87.33333333333333 31.0 L 87.66666666666667 32.0 L 88.0 33.0 L 88.0 34.0 L 88.0 35.0 L 88.0 36.0 L 88.33333333333333 37.0 L 89.0 38.0 L 90.0 39.0 L 90.5 39.5 Z" stroke="none" fill="rgb(82,82,82)" />
<path d="M 87.0 37.5 L 87.0 37.0 L 86.66666666666667 36.0 L 86.0 35.0 L 85.0 34.333333333333336 L 84.0 34.0 L 83.0 33.666666666666664 L 82.0 33.333333333333336 L 81.0 32.666666666666664 L 80.0 32.333333333333336 L 79.0 32.0 L 78.0 32.0 L 77.0 32.0 L 76.0 32.0 L 75.0 32.0 L 74.0 32.0 L 73.0 32.0 L 72.0 32.0 L 71.0 32.333333333333336 L 70.0 32.666666666666664 L 69.0 33.0 L 68.0 33.0 L 67.0 33.0 L 66.0 33.333333333333336 L 65.0 33.666666666666664 L 64.0 34.333333333333336 L 63.0 34.666666666666664 L 62.0 35.333333333333336 L 61.0 35.666666666666664 L 60.0 36.333333333333336 L 59.0 37.0 L 58.333333333333336 38.0 L 58.333333333333336 39.0 L 58.666666666666664 40.0 L 59.333333333333336 41.0 L 60.0 42.0 L 61.0 42.666666666666664 L 62.0 42.666666666666664 L 63.0 42.0 L 64.0 41.333333333333336 L 65.0 40.666666666666664 L 66.0 40.333333333333336 L 67.0 39.666666666666664 L 68.0 39.333333333333336 L 69.0 39.0 L 70.0 38.666666666666664 L 71.0 38.333333333333336 L 72.0 38.0 L 73.0 38.0 L 74.0 38.0 L 75.0 38.0 L 76.0 38.333333333333336 L 77.0 38.666666666666664 L 78.0 39.0 L 79.0 39.0 L 80.0 39.333333333333336 L 81.0 39.666666666666664 L 82.0 40.333333333333336 L 83.0 41.0 L 84.0 41.666666666666664 L 84.66666666666667 41.666666666666664 L 85.33333333333333 41.0 L 85.66666666666667 40.0 L 86.33333333333333 39.0 L 86.5 38.5 Z" stroke="none" fill="rgb(220,220,220)" />
<path d="M 23.5 44.0 L 23.666666666666668 43.666666666666664 L 24.0 43.0 L 24.0 42.0 L 23.666666666666668 41.0 L 23.333333333333332 40.0 L 23.0 39.0 L 23.0 38.0 L 23.0 37.0 L 22.666666666666668 36.333333333333336 L 22.0 35.666666666666664 L 21.0 35.333333333333336 L 20.0 35.0 L 19.0 35.0 L 18.0 35.0 L 17.333333333333332 35.333333333333336 L 17.0 36.0 L 17.333333333333332 37.0 L 17.666666666666668 38.0 L 18.0 39.0 L 18.0 40.0 L 18.0 41.0 L 18.333333333333332 42.0 L 19.0 42.666666666666664 L 20.0 43.0 L 21.0 43.333333333333336 L 22.0 43.666666666666664 L 22.5 44.0 Z" stroke="none" fill="rgb(93,93,93)" />
<path d="M 23.5 41.5 L 23.666666666666668 42.0 L 24.0 43.0 L 24.0 44.0 L 24.333333333333332 44.666666666666664 L 25.0 45.0 L 26.0 45.0 L 27.0 45.0 L 28.0 45.0 L 29.0 45.0 L 30.0 45.0 L 30.666666666666668 44.666666666666664 L 30.666666666666668 44.0 L 30.0 43.0 L 29.333333333333332 42.0 L 29.0 41.0 L 28.666666666666668 40.0 L 28.333333333333332 39.0 L 27.666666666666668 38.0 L 27.0 37.333333333333336 L 26.0 37.0 L 25.0 37.0 L 24.0 37.0 L 23.333333333333332 37.333333333333336 L 23.0 38.0 L 23.0 39.0 L 23.0 40.0 L 23.0 40.5 Z" stroke="none" fill="rgb(98,98,98)" />
<path d="M 91.5 48.5 L 92.0 48.0 L 93.0 47.0 L 94.0 46.0 L 94.66666666666667 45.0 L 95.0 44.0 L 94.66666666666667 43.0 L 94.33333333333333 42.0 L 93.66666666666667 41.0 L 93.0 40.333333333333336 L 92.0 39.666666666666664 L 91.0 39.0 L 90.0 38.0 L 89.0 37.333333333333336 L 88.0 37.0 L 87.0 37.333333333333336 L 86.33333333333333 38.0 L 85.66666666666667 39.0 L 85.33333333333333 40.0 L 85.0 41.0 L 85.0 42.0 L 85.33333333333333 43.0 L 86.0 44.0 L 87.0 45.0 L 88.0 46.0 L 88.66666666666667 47.0 L 89.0 48.0 L 89.33333333333333 48.666666666666664 L 90.0 49.0 L 90.5 49.0 Z" stroke="none" fill="rgb(209,209,209)" />
<path d="M 37.5 46.5 L 38.0 46.333333333333336 L 39.0 46.0 L 40.0 46.0 L 40.666666666666664 45.666666666666664 L 41.0 45.0 L 40.666666666666664 44.0 L 40.0 43.0 L 39.0 42.0 L 38.333333333333336 41.0 L 37.666666666666664 40.0 L 37.0 39.0 L 36.0 38.333333333333336 L 35.0 38.0 L 34.0 38.0 L 33.0 38.0 L 32.0 38.0 L 31.0 38.0 L 30.0 38.0 L 29.0 38.0 L 28.333333333333332 38.333333333333336 L 28.0 39.0 L 28.333333333333332 40.0 L 28.666666666666668 41.0 L 29.0 42.0 L 29.333333333333332 43.0 L 30.0 44.0 L 31.0 45.0 L 32.0 46.0 L 33.0 46.666666666666664 L 34.0 47.0 L 35.0 47.0 L 36.0 47.0 L 36.5 47.0 Z" stroke="none" fill="rgb(104,104,104)" />
<path d="M 65.5 47.0 L 66.0 47.0 L 67.0 47.0 L 68.0 47.0 L 69.0 47.0 L 70.0 47.0 L 71.0 46.666666666666664 L 72.0 46.333333333333336 L 73.0 45.666666666666664 L 74.0 45.333333333333336 L 75.0 45.0 L 76.0 45.333333333333336 L 77.0 45.666666666666664 L 77.66666666666667 45.666666666666664 L 78.0 45.0 L 77.66666666666667 44.0 L 77.33333333333333 43.0 L 77.0 42.0 L 77.0 41.0 L 77.0 40.0 L 77.0 39.0 L 76.66666666666667 38.333333333333336 L 76.0 38.0 L 75.0 38.0 L 74.0 38.0 L 73.0 38.0 L 72.0 38.0 L 71.0 38.0 L 70.0 38.333333333333336 L 69.0 38.666666666666664 L 68.0 39.0 L 67.0 39.333333333333336 L 66.0 39.666666666666664 L 65.0 40.333333333333336 L 64.0 40.666666666666664 L 63.0 41.333333333333336 L 62.0 42.0 L 61.333333333333336 43.0 L 61.0 44.0 L 61.333333333333336 44.666666666666664 L 62.0 45.333333333333336 L 63.0 46.0 L 64.0 46.666666666666664 L 64.5 47.0 Z" stroke="none" fill="rgb(190,189,188)" />
<path d="M 40.5 44.5 L 41.0 44.666666666666664 L 42.0 45.0 L 43.0 45.0 L 44.0 45.0 L 45.0 45.0 L 46.0 45.0 L 47.0 45.0 L 48.0 45.0 L 49.0 45.0 L 50.0 45.0 L 51.0 45.0 L 52.0 44.666666666666664 L 52.666666666666664 44.0 L 53.333333333333336 43.0 L 53.666666666666664 42.0 L 54.0 41.0 L 53.666666666666664 40.0 L 53.0 39.333333333333336 L 52.0 39.0 L 51.0 39.0 L 50.0 39.0 L 49.0 39.0 L 48.0 39.0 L 47.0 39.0 L 46.0 39.0 L 45.0 39.0 L 44.0 39.0 L 43.0 39.0 L 42.0 39.0 L 41.0 39.0 L 40.0 39.0 L 39.0 39.0 L 38.333333333333336 39.333333333333336 L 38.0 40.0 L 38.0 41.0 L 38.333333333333336 42.0 L 39.0 43.0 L 39.5 43.5 Z" stroke="none" fill="rgb(111,111,111)" />
<path d="M 53.5 49.5 L 54.0 50.0 L 55.0 50.666666666666664 L 55.666666666666664 50.666666666666664 L 56.333333333333336 50.0 L 56.666666666666664 49.0 L 57.333333333333336 48.0 L 58.0 47.0 L 59.0 46.0 L 60.0 45.333333333333336 L 60.666666666666664 44.666666666666664 L 61.0 44.0 L 61.0 43.0 L 60.666666666666664 42.0 L 60.0 41.0 L 59.333333333333336 40.0 L 58.666666666666664 39.333333333333336 L 58.0 39.0 L 57.0 39.333333333333336 L 56.0 39.666666666666664 L 55.0 40.333333333333336 L 54.0 41.0 L 53.333333333333336 42.0 L 52.666666666666664 43.0 L 52.0 44.0 L 51.333333333333336 45.0 L 51.0 46.0 L 51.0 47.0 L 51.333333333333336 47.666666666666664 L 52.0 48.333333333333336 L 52.5 48.5 Z" stroke="none" fill="rgb(209,209,209)" />
<path d="M 79.5 43.5 L 80.0 43.333333333333336 L 81.0 43.0 L 82.0 42.666666666666664 L 83.0 42.333333333333336 L 83.66666666666667 41.666666666666664 L 83.66666666666667 41.0 L 83.0 40.333333333333336 L 82.0 39.666666666666664 L 81.0 39.333333333333336 L 80.0 39.0 L 79.0 39.0 L 78.0 39.0 L 77.33333333333333 39.333333333333336 L 77.0 40.0 L 77.0 41.0 L 77.0 42.0 L 77.0 43.0 L 77.33333333333333 43.666666666666664 L 78.0 44.0 L 78.5 44.0 Z" stroke="none" fill="rgb(183,181,180)" />
<path d="M 11.5 66.5 L 11.666666666666666 66.0 L 12.0 65.0 L 12.0 64.0 L 12.0 63.0 L 12.0 62.0 L 12.0 61.0 L 12.0 60.0 L 12.0 59.0 L 12.0 58.0 L 12.0 57.0 L 12.333333333333334 56.0 L 12.666666666666666 55.0 L 13.0 54.0 L 13.0 53.0 L 13.0 52.0 L 13.0 51.0 L 13.333333333333334 50.0 L 13.666666666666666 49.0 L 14.0 48.0 L 14.333333333333334 47.0 L 14.666666666666666 46.0 L 15.0 45.0 L 15.333333333333334 44.0 L 15.666666666666666 43.0 L 16.0 42.0 L 15.666666666666666 41.333333333333336 L 15.0 41.0 L 14.0 41.0 L 13.0 41.0 L 12.0 41.333333333333336 L 11.333333333333334 42.0 L 11.0 43.0 L 11.0 44.0 L 11.0 45.0 L 11.0 46.0 L 11.0 47.0 L 11.0 48.0 L 11.0 49.0 L 11.0 50.0 L 11.0 51.0 L 11.0 52.0 L 10.666666666666666 53.0 L 10.333333333333334 54.0 L 10.0 55.0 L 10.0 56.0 L 10.0 57.0 L 10.0 58.0 L 10.0 59.0 L 10.0 60.0 L 10.0 61.0 L 10.0 62.0 L 10.0 63.0 L 10.0 64.0 L 10.0 65.0 L 10.0 66.0 L 10.333333333333334 66.66666666666667 L 10.5 67.0 Z" stroke="none" fill="rgb(106,75,63)" />
<path d="M 20.5 96.5 L 21.0 96.66666666666667 L 22.0 97.0 L 22.666666666666668 96.66666666666667 L 23.0 96.0 L 23.0 95.0 L 22.666666666666668 94.0 L 22.333333333333332 93.0 L 22.0 92.0 L 22.0 91.0 L 21.666666666666668 90.0 L 21.333333333333332 89.0 L 21.0 88.0 L 20.666666666666668 87.0 L 20.333333333333332 86.0 L 19.666666666666668 85.0 L 19.333333333333332 84.0 L 18.666666666666668 83.0 L 18.333333333333332 82.0 L 18.0 81.0 L 17.666666666666668 80.0 L 17.333333333333332 79.0 L 17.0 78.0 L 17.0 77.0 L 16.666666666666668 76.0 L 16.333333333333332 75.0 L 16.0 74.0 L 16.0 73.0 L 16.0 72.0 L 16.0 71.0 L 15.666666666666666 70.0 L 15.333333333333334 69.0 L 15.0 68.0 L 15.333333333333334 67.0 L 15.666666666666666 66.0 L 16.0 65.0 L 16.0 64.0 L 16.0 63.0 L 16.0 62.0 L 16.0 61.0 L 16.0 60.0 L 16.0 59.0 L 16.0 58.0 L 16.333333333333332 57.0 L 16.666666666666668 56.0 L 17.0 55.0 L 17.0 54.0 L 17.0 53.0 L 17.0 52.0 L 17.333333333333332 51.0 L 17.666666666666668 50.0 L 18.0 49.0 L 18.333333333333332 48.0 L 18.666666666666668 47.0 L 19.0 46.0 L 19.333333333333332 45.0 L 19.666666666666668 44.0 L 19.666666666666668 43.0 L 19.0 42.333333333333336 L 18.0 42.0 L 17.0 42.0 L 16.0 42.333333333333336 L 15.333333333333334 43.0 L 15.0 44.0 L 14.666666666666666 45.0 L 14.333333333333334 46.0 L 14.0 47.0 L 13.666666666666666 48.0 L 13.333333333333334 49.0 L 13.0 50.0 L 13.0 51.0 L 13.0 52.0 L 13.0 53.0 L 12.666666666666666 54.0 L 12.333333333333334 55.0 L 12.0 56.0 L 12.0 57.0 L 12.0 58.0 L 12.0 59.0 L 12.0 60.0 L 12.0 61.0 L 12.0 62.0 L 12.0 63.0 L 12.0 64.0 L 11.666666666666666 65.0 L 11.333333333333334 66.0 L 11.0 67.0 L 11.0 68.0 L 11.0 69.0 L 11.0 70.0 L 11.0 71.0 L 11.333333333333334 72.0 L 11.666666666666666 73.0 L 12.0 74.0 L 12.0 75.0 L 12.0 76.0 L 12.0 77.0 L 12.333333333333334 78.0 L 12.666666666666666 79.0 L 13.0 80.0 L 13.0 81.0 L 13.333333333333334 82.0 L 13.666666666666666 83.0 L 14.0 84.0 L 14.333333333333334 85.0 L 14.666666666666666 86.0 L 15.333333333333334 87.0 L 15.666666666666666 88.0 L 16.333333333333332 89.0 L 16.666666666666668 90.0 L 17.333333333333332 91.0 L 17.666666666666668 92.0 L 18.333333333333332 93.0 L 18.666666666666668 94.0 L 19.333333333333332 95.0 L 19.5 95.5 Z" stroke="none" fill="rgb(95,65,55)" />
<path d="M 87.5 69.5 L 87.66666666666667 69.0 L 88.33333333333333 68.0 L 88.66666666666667 67.0 L 89.33333333333333 66.0 L 90.0 65.0 L 90.66666666666667 64.0 L 90.66666666666667 63.0 L 90.0 62.0 L 89.33333333333333 61.0 L 89.0 60.0 L 89.0 59.0 L 89.0 58.0 L 89.0 57.0 L 89.0 56.0 L 89.0 55.0 L 89.0 54.0 L 89.0 53.0 L 89.0 52.0 L 89.0 51.0 L 89.0 50.0 L 89.0 49.0 L 89.0 48.0 L 89.0 47.0 L 88.66666666666667 46.0 L 88.0 45.0 L 87.0 44.0 L 86.0 43.0 L 85.0 42.333333333333336 L 84.0 42.0 L 83.0 42.0 L 82.0 42.333333333333336 L 81.0 42.666666666666664 L 80.0 43.0 L 79.0 43.333333333333336 L 78.33333333333333 44.0 L 78.0 45.0 L 78.0 46.0 L 78.33333333333333 47.0 L 78.66666666666667 48.0 L 79.0 49.0 L 79.0 50.0 L 79.33333333333333 51.0 L 79.66666666666667 52.0 L 80.0 53.0 L 80.0 54.0 L 80.0 55.0 L 80.33333333333333 56.0 L 80.66666666666667 57.0 L 81.0 58.0 L 81.0 59.0 L 81.0 60.0 L 81.0 61.0 L 81.0 62.0 L 81.0 63.0 L 81.33333333333333 64.0 L 81.66666666666667 65.0 L 82.0 66.0 L 82.0 67.0 L 81.66666666666667 68.0 L 81.33333333333333 69.0 L 81.0 70.0 L 80.66666666666667 71.0 L 80.33333333333333 72.0 L 80.33333333333333 72.66666666666667 L 81.0 73.0 L 82.0 73.0 L 83.0 72.66666666666667 L 84.0 72.33333333333333 L 85.0 71.66666666666667 L 86.0 71.0 L 86.5 70.5 Z" stroke="none" fill="rgb(181,170,166)" />
<path d="M 24.5 85.0 L 25.0 84.66666666666667 L 25.666666666666668 84.0 L 26.0 83.0 L 25.666666666666668 82.0 L 25.333333333333332 81.0 L 24.666666666666668 80.0 L 24.0 79.0 L 23.333333333333332 78.0 L 22.666666666666668 77.0 L 22.0 76.0 L 21.333333333333332 75.0 L 20.666666666666668 74.0 L 20.333333333333332 73.0 L 20.0 72.0 L 19.666666666666668 71.0 L 19.333333333333332 70.0 L 18.666666666666668 69.0 L 18.333333333333332 68.0 L 18.0 67.0 L 18.0 66.0 L 18.0 65.0 L 18.0 64.0 L 18.0 63.0 L 18.333333333333332 62.0 L 18.666666666666668 61.0 L 19.0 60.0 L 19.0 59.0 L 19.0 58.0 L 19.333333333333332 57.0 L 19.666666666666668 56.0 L 20.0 55.0 L 20.333333333333332 54.0 L 20.666666666666668 53.0 L 21.0 52.0 L 21.333333333333332 51.0 L 21.666666666666668 50.0 L 22.333333333333332 49.0 L 22.666666666666668 48.0 L 23.333333333333332 47.0 L 23.666666666666668 46.0 L 24.0 45.0 L 23.666666666666668 44.333333333333336 L 23.0 43.666666666666664 L 22.0 43.333333333333336 L 21.0 43.0 L 20.0 43.333333333333336 L 19.333333333333332 44.0 L 19.0 45.0 L 18.666666666666668 46.0 L 18.333333333333332 47.0 L 18.0 48.0 L 17.666666666666668 49.0 L 17.333333333333332 50.0 L 17.0 51.0 L 17.0 52.0 L 17.0 53.0 L 17.0 54.0 L 16.666666666666668 55.0 L 16.333333333333332 56.0 L 16.0 57.0 L 16.0 58.0 L 16.0 59.0 L 16.0 60.0 L 16.0 61.0 L 16.0 62.0 L 16.0 63.0 L 16.0 64.0 L 15.666666666666666 65.0 L 15.333333333333334 66.0 L 15.0 67.0 L 15.0 68.0 L 15.0 69.0 L 15.333333333333334 70.0 L 15.666666666666666 71.0 L 16.0 72.0 L 16.0 73.0 L 16.0 74.0 L 16.0 75.0 L 16.333333333333332 76.0 L 16.666666666666668 77.0 L 17.0 78.0 L 17.0 79.0 L 17.333333333333332 80.0 L 17.666666666666668 81.0 L 18.0 82.0 L 18.333333333333332 83.0 L 18.666666666666668 84.0 L 19.333333333333332 85.0 L 19.666666666666668 86.0 L 20.333333333333332 86.66666666666667 L 21.0 87.0 L 22.0 86.66666666666667 L 23.0 86.0 L 23.5 85.5 Z" stroke="none" fill="rgb(82,57,48)" />
<path d="M 72.5 85.5 L 73.0 85.0 L 73.66666666666667 84.0 L 74.0 83.0 L 74.0 82.0 L 73.66666666666667 81.33333333333333 L 73.0 81.0 L 72.0 81.0 L 71.0 81.0 L 70.0 81.0 L 69.0 81.0 L 68.0 80.66666666666667 L 67.0 80.0 L 66.0 79.33333333333333 L 65.0 79.0 L 64.0 79.0 L 63.0 79.0 L 62.0 79.0 L 61.0 79.33333333333333 L 60.0 80.0 L 59.0 81.0 L 58.0 81.66666666666667 L 57.0 82.33333333333333 L 56.0 82.66666666666667 L 55.0 83.0 L 54.0 83.0 L 53.0 83.0 L 52.0 83.0 L 51.0 83.0 L 50.0 83.0 L 49.0 83.0 L 48.0 83.0 L 47.0 83.0 L 46.0 82.66666666666667 L 45.0 82.33333333333333 L 44.0 82.0 L 43.0 81.66666666666667 L 42.0 81.0 L 41.0 80.0 L 40.0 79.0 L 39.333333333333336 78.0 L 39.333333333333336 77.0 L 40.0 76.33333333333333 L 41.0 76.0 L 42.0 76.0 L 43.0 76.33333333333333 L 44.0 76.66666666666667 L 45.0 77.0 L 46.0 77.0 L 47.0 77.0 L 48.0 77.0 L 49.0 77.0 L 50.0 77.0 L 51.0 77.0 L 52.0 77.0 L 53.0 77.0 L 54.0 77.0 L 55.0 77.0 L 56.0 77.0 L 57.0 77.0 L 57.666666666666664 76.66666666666667 L 58.0 76.0 L 57.666666666666664 75.0 L 57.0 74.0 L 56.0 73.0 L 55.0 72.0 L 54.0 71.33333333333333 L 53.0 71.33333333333333 L 52.0 71.66666666666667 L 51.0 72.0 L 50.0 72.0 L 49.0 72.0 L 48.0 71.66666666666667 L 47.0 71.0 L 46.333333333333336 70.0 L 46.333333333333336 69.0 L 47.0 68.33333333333333 L 48.0 68.0 L 49.0 68.0 L 50.0 68.0 L 50.666666666666664 67.66666666666667 L 51.0 67.0 L 51.0 66.0 L 51.0 65.0 L 50.666666666666664 64.0 L 50.333333333333336 63.0 L 50.0 62.0 L 50.0 61.0 L 49.666666666666664 60.0 L 49.333333333333336 59.0 L 49.0 58.0 L 49.0 57.0 L 49.0 56.0 L 49.333333333333336 55.0 L 49.666666666666664 54.0 L 50.0 53.0 L 50.0 52.0 L 50.0 51.0 L 50.333333333333336 50.0 L 50.666666666666664 49.0 L 51.0 48.0 L 51.0 47.0 L 51.0 46.0 L 50.666666666666664 45.333333333333336 L 50.0 45.0 L 49.0 45.0 L 48.0 45.0 L 47.0 45.0 L 46.0 45.0 L 45.0 45.0 L 44.0 45.0 L 43.0 45.0 L 42.0 45.0 L 41.0 45.333333333333336 L 40.0 45.666666666666664 L 39.0 46.0 L 38.0 46.0 L 37.333333333333336 46.333333333333336 L 37.0 47.0 L 37.333333333333336 47.666666666666664 L 38.0 48.333333333333336 L 39.0 49.0 L 40.0 50.0 L 40.666666666666664 51.0 L 40.666666666666664 52.0 L 40.0 52.666666666666664 L 39.0 53.0 L 38.333333333333336 53.333333333333336 L 38.0 54.0 L 38.0 55.0 L 38.333333333333336 56.0 L 38.666666666666664 57.0 L 39.0 58.0 L 39.0 59.0 L 38.666666666666664 60.0 L 38.0 61.0 L 37.0 62.0 L 36.0 63.0 L 35.0 63.666666666666664 L 34.0 63.666666666666664 L 33.0 63.333333333333336 L 32.0 62.666666666666664 L 31.0 62.0 L 30.333333333333332 61.0 L 30.0 60.0 L 30.0 59.0 L 30.0 58.0 L 30.333333333333332 57.0 L 30.666666666666668 56.0 L 31.0 55.0 L 31.0 54.0 L 30.666666666666668 53.333333333333336 L 30.0 53.0 L 29.0 53.0 L 28.0 52.666666666666664 L 27.333333333333332 52.0 L 27.333333333333332 51.0 L 28.0 50.333333333333336 L 29.0 49.666666666666664 L 30.0 49.333333333333336 L 31.0 48.666666666666664 L 32.0 48.333333333333336 L 32.666666666666664 47.666666666666664 L 33.0 47.0 L 32.666666666666664 46.0 L 32.0 45.333333333333336 L 31.0 45.0 L 30.0 45.0 L 29.0 45.0 L 28.0 45.0 L 27.0 45.0 L 26.0 45.0 L 25.0 45.0 L 24.0 45.333333333333336 L 23.333333333333332 46.0 L 22.666666666666668 47.0 L 22.333333333333332 48.0 L 21.666666666666668 49.0 L 21.333333333333332 50.0 L 21.0 51.0 L 20.666666666666668 52.0 L 20.333333333333332 53.0 L 20.0 54.0 L 19.666666666666668 55.0 L 19.333333333333332 56.0 L 19.0 57.0 L 19.0 58.0 L 19.0 59.0 L 18.666666666666668 60.0 L 18.333333333333332 61.0 L 18.0 62.0 L 18.0 63.0 L 18.0 64.0 L 18.0 65.0 L 18.0 66.0 L 18.0 67.0 L 18.0 68.0 L 18.333333333333332 69.0 L 18.666666666666668 70.0 L 19.333333333333332 71.0 L 19.666666666666668 72.0 L 20.0 73.0 L 20.333333333333332 74.0 L 20.666666666666668 75.0 L 21.333333333333332 76.0 L 22.0 77.0 L 22.666666666666668 78.0 L 23.333333333333332 79.0 L 24.0 80.0 L 24.666666666666668 81.0 L 25.333333333333332 82.0 L 25.666666666666668 83.0 L 26.333333333333332 84.0 L 27.0 85.0 L 28.0 86.0 L 29.0 87.0 L 30.0 88.0 L 31.0 88.66666666666667 L 32.0 89.33333333333333 L 33.0 90.0 L 34.0 90.66666666666667 L 35.0 91.33333333333333 L 36.0 91.66666666666667 L 37.0 92.33333333333333 L 38.0 93.0 L 39.0 94.0 L 40.0 94.66666666666667 L 41.0 95.0 L 42.0 95.0 L 43.0 95.0 L 44.0 95.0 L 45.0 95.0 L 46.0 95.0 L 47.0 95.0 L 48.0 95.0 L 49.0 95.0 L 50.0 95.0 L 51.0 95.0 L 52.0 95.0 L 53.0 95.0 L 54.0 95.0 L 55.0 95.0 L 56.0 95.0 L 57.0 95.0 L 58.0 95.0 L 59.0 95.0 L 60.0 95.0 L 60.666666666666664 94.66666666666667 L 61.333333333333336 94.0 L 62.0 93.33333333333333 L 63.0 92.66666666666667 L 64.0 92.33333333333333 L 65.0 91.66666666666667 L 66.0 91.0 L 67.0 90.33333333333333 L 68.0 89.66666666666667 L 69.0 89.0 L 70.0 88.0 L 71.0 87.0 L 71.5 86.5 Z" stroke="none" fill="rgb(186,141,104)" />
<path d="M 57.5 66.5 L 58.0 67.0 L 59.0 68.0 L 60.0 69.0 L 61.0 70.0 L 61.666666666666664 71.0 L 62.333333333333336 72.0 L 63.0 72.66666666666667 L 64.0 73.33333333333333 L 65.0 73.66666666666667 L 66.0 74.0 L 67.0 74.0 L 68.0 74.33333333333333 L 69.0 74.66666666666667 L 70.0 75.0 L 71.0 75.0 L 72.0 75.0 L 73.0 75.0 L 74.0 75.0 L 75.0 75.0 L 76.0 75.0 L 77.0 75.0 L 78.0 75.0 L 79.0 74.66666666666667 L 79.66666666666667 74.0 L 80.33333333333333 73.0 L 80.66666666666667 72.0 L 81.0 71.0 L 81.33333333333333 70.0 L 81.66666666666667 69.0 L 82.0 68.0 L 82.0 67.0 L 82.0 66.0 L 82.0 65.0 L 81.66666666666667 64.0 L 81.33333333333333 63.0 L 81.0 62.0 L 81.0 61.0 L 81.0 60.0 L 81.0 59.0 L 81.0 58.0 L 81.0 57.0 L 80.66666666666667 56.0 L 80.33333333333333 55.0 L 80.0 54.0 L 80.0 53.0 L 80.0 52.0 L 79.66666666666667 51.0 L 79.33333333333333 50.0 L 79.0 49.0 L 79.0 48.0 L 78.66666666666667 47.0 L 78.0 46.0 L 77.0 45.333333333333336 L 76.0 45.0 L 75.0 45.0 L 74.0 45.0 L 73.0 45.333333333333336 L 72.0 45.666666666666664 L 71.33333333333333 46.333333333333336 L 71.0 47.0 L 71.33333333333333 47.666666666666664 L 72.0 48.333333333333336 L 73.0 49.0 L 74.0 50.0 L 74.66666666666667 51.0 L 74.66666666666667 52.0 L 74.0 52.666666666666664 L 73.0 52.666666666666664 L 72.0 52.333333333333336 L 71.0 52.0 L 70.0 52.0 L 69.0 52.0 L 68.0 52.0 L 67.0 52.0 L 66.0 52.0 L 65.0 52.0 L 64.0 52.0 L 63.0 52.0 L 62.0 52.333333333333336 L 61.0 52.666666666666664 L 60.0 53.0 L 59.0 52.666666666666664 L 58.333333333333336 52.0 L 58.333333333333336 51.0 L 59.0 50.0 L 60.0 49.333333333333336 L 61.0 48.666666666666664 L 62.0 48.333333333333336 L 63.0 47.666666666666664 L 63.666666666666664 47.0 L 63.666666666666664 46.0 L 63.0 45.333333333333336 L 62.0 45.0 L 61.0 45.0 L 60.0 45.0 L 59.0 45.333333333333336 L 58.0 46.0 L 57.333333333333336 47.0 L 56.666666666666664 48.0 L 56.333333333333336 49.0 L 55.666666666666664 50.0 L 55.333333333333336 51.0 L 55.0 52.0 L 55.0 53.0 L 55.0 54.0 L 55.0 55.0 L 55.0 56.0 L 55.0 57.0 L 55.0 58.0 L 55.0 59.0 L 55.333333333333336 60.0 L 55.666666666666664 61.0 L 56.0 62.0 L 56.0 63.0 L 56.0 64.0 L 56.333333333333336 65.0 L 56.5 65.5 Z" stroke="none" fill="rgb(219,202,187)" />
<path d="M 94.5 54.5 L 95.0 54.0 L 95.66666666666667 53.0 L 96.33333333333333 52.0 L 96.66666666666667 51.0 L 97.0 50.0 L 97.0 49.0 L 97.0 48.0 L 96.66666666666667 47.0 L 96.33333333333333 46.0 L 95.66666666666667 45.333333333333336 L 95.0 45.0 L 94.0 45.333333333333336 L 93.0 46.0 L 92.0 47.0 L 91.0 48.0 L 90.33333333333333 49.0 L 90.33333333333333 50.0 L 90.66666666666667 51.0 L 91.0 52.0 L 91.33333333333333 53.0 L 91.66666666666667 54.0 L 92.33333333333333 54.666666666666664 L 93.0 55.0 L 93.5 55.0 Z" stroke="none" fill="rgb(199,198,198)" />
<path d="M 40.5 53.0 L 40.666666666666664 52.666666666666664 L 41.0 52.0 L 41.0 51.0 L 40.666666666666664 50.0 L 40.0 49.0 L 39.0 48.333333333333336 L 38.0 47.666666666666664 L 37.0 47.333333333333336 L 36.0 47.0 L 35.0 47.0 L 34.0 47.0 L 33.0 47.333333333333336 L 32.0 47.666666666666664 L 31.0 48.333333333333336 L 30.0 48.666666666666664 L 29.0 49.333333333333336 L 28.0 49.666666666666664 L 27.333333333333332 50.333333333333336 L 27.0 51.0 L 27.0 52.0 L 27.333333333333332 52.666666666666664 L 28.0 53.0 L 29.0 53.0 L 30.0 53.333333333333336 L 30.666666666666668 54.0 L 31.333333333333332 54.666666666666664 L 32.0 54.666666666666664 L 33.0 54.333333333333336 L 34.0 54.0 L 35.0 54.0 L 36.0 54.0 L 37.0 54.0 L 38.0 53.666666666666664 L 39.0 53.333333333333336 L 39.5 53.0 Z" stroke="none" fill="rgb(95,65,55)" />
<path d="M 61.5 53.0 L 62.0 52.666666666666664 L 63.0 52.333333333333336 L 64.0 52.0 L 65.0 52.0 L 66.0 52.0 L 67.0 52.0 L 68.0 52.0 L 69.0 52.0 L 70.0 52.0 L 71.0 52.333333333333336 L 72.0 52.666666666666664 L 73.0 53.0 L 74.0 53.0 L 75.0 52.666666666666664 L 75.66666666666667 52.0 L 75.66666666666667 51.0 L 75.0 50.0 L 74.0 49.0 L 73.0 48.333333333333336 L 72.0 47.666666666666664 L 71.0 47.333333333333336 L 70.0 47.0 L 69.0 47.0 L 68.0 47.0 L 67.0 47.0 L 66.0 47.0 L 65.0 47.0 L 64.0 47.0 L 63.0 47.333333333333336 L 62.0 47.666666666666664 L 61.0 48.333333333333336 L 60.0 48.666666666666664 L 59.0 49.333333333333336 L 58.333333333333336 50.0 L 58.0 51.0 L 58.0 52.0 L 58.333333333333336 52.666666666666664 L 59.0 53.0 L 60.0 53.0 L 60.5 53.0 Z" stroke="none" fill="rgb(181,170,166)" />
<path d="M 52.5 56.5 L 53.0 57.0 L 54.0 57.666666666666664 L 54.666666666666664 57.666666666666664 L 55.0 57.0 L 55.0 56.0 L 55.0 55.0 L 55.0 54.0 L 55.0 53.0 L 55.0 52.0 L 55.0 51.0 L 54.666666666666664 50.0 L 54.0 49.0 L 53.0 48.333333333333336 L 52.0 48.0 L 51.0 48.333333333333336 L 50.333333333333336 49.0 L 50.0 50.0 L 50.0 51.0 L 50.0 52.0 L 50.0 53.0 L 50.333333333333336 54.0 L 51.0 55.0 L 51.5 55.5 Z" stroke="none" fill="rgb(199,198,198)" />
<path d="M 91.5 63.0 L 91.66666666666667 62.666666666666664 L 92.0 62.0 L 92.0 61.0 L 92.0 60.0 L 92.0 59.0 L 92.0 58.0 L 92.33333333333333 57.0 L 92.66666666666667 56.0 L 92.66666666666667 55.0 L 92.33333333333333 54.0 L 91.66666666666667 53.0 L 91.33333333333333 52.0 L 91.0 51.0 L 90.66666666666667 50.0 L 90.0 49.333333333333336 L 89.33333333333333 49.333333333333336 L 89.0 50.0 L 89.0 51.0 L 89.0 52.0 L 89.0 53.0 L 89.0 54.0 L 89.0 55.0 L 89.0 56.0 L 89.0 57.0 L 89.0 58.0 L 89.0 59.0 L 89.0 60.0 L 89.0 61.0 L 89.33333333333333 62.0 L 90.0 62.666666666666664 L 90.5 63.0 Z" stroke="none" fill="rgb(240,240,240)" />
<path d="M 98.0 57.5 L 98.0 57.0 L 98.0 56.0 L 98.0 55.0 L 98.0 54.0 L 98.0 53.0 L 98.0 52.0 L 97.66666666666667 51.333333333333336 L 97.0 51.0 L 96.33333333333333 51.333333333333336 L 95.66666666666667 52.0 L 95.0 53.0 L 94.0 54.0 L 93.0 55.0 L 92.33333333333333 56.0 L 92.0 57.0 L 92.0 58.0 L 92.0 59.0 L 92.0 60.0 L 92.0 61.0 L 92.33333333333333 61.666666666666664 L 93.0 61.666666666666664 L 94.0 61.0 L 95.0 60.0 L 96.0 59.0 L 97.0 58.333333333333336 L 97.5 58.0 Z" stroke="none" fill="rgb(190,189,188)" />
<path d="M 35.5 64.0 L 36.0 63.666666666666664 L 37.0 63.0 L 38.0 62.0 L 38.666666666666664 61.0 L 39.0 60.0 L 39.0 59.0 L 39.0 58.0 L 39.0 57.0 L 38.666666666666664 56.0 L 38.333333333333336 55.0 L 37.666666666666664 54.333333333333336 L 37.0 54.0 L 36.0 54.0 L 35.0 54.0 L 34.0 54.0 L 33.0 54.0 L 32.0 54.333333333333336 L 31.0 55.0 L 30.333333333333332 56.0 L 30.0 57.0 L 30.0 58.0 L 30.0 59.0 L 30.0 60.0 L 30.0 61.0 L 30.333333333333332 62.0 L 31.0 62.666666666666664 L 32.0 63.333333333333336 L 33.0 63.666666666666664 L 34.0 64.0 L 34.5 64.0 Z" stroke="none" fill="rgb(82,57,48)" />
<path d="M 50.5 61.0 L 51.0 61.333333333333336 L 52.0 62.0 L 53.0 62.666666666666664 L 54.0 63.333333333333336 L 55.0 63.666666666666664 L 55.666666666666664 63.666666666666664 L 56.0 63.0 L 56.0 62.0 L 56.0 61.0 L 55.666666666666664 60.0 L 55.333333333333336 59.0 L 54.666666666666664 58.0 L 54.0 57.0 L 53.0 56.0 L 52.0 55.0 L 51.0 54.333333333333336 L 50.0 54.0 L 49.333333333333336 54.333333333333336 L 49.0 55.0 L 49.0 56.0 L 49.0 57.0 L 49.0 58.0 L 49.0 59.0 L 49.333333333333336 60.0 L 49.5 60.5 Z" stroke="none" fill="rgb(190,189,188)" />
<path d="M 72.0 62.5 L 72.0 62.0 L 72.0 61.0 L 72.0 60.0 L 72.0 59.0 L 72.0 58.0 L 71.66666666666667 57.0 L 71.0 56.0 L 70.0 55.333333333333336 L 69.0 54.666666666666664 L 68.0 54.333333333333336 L 67.0 54.0 L 66.0 54.0 L 65.0 54.0 L 64.0 54.0 L 63.0 54.333333333333336 L 62.0 55.0 L 61.0 56.0 L 60.333333333333336 57.0 L 60.0 58.0 L 60.0 59.0 L 60.0 60.0 L 60.0 61.0 L 60.0 62.0 L 60.333333333333336 63.0 L 61.0 64.0 L 62.0 65.0 L 63.0 65.66666666666667 L 64.0 66.0 L 65.0 66.0 L 66.0 66.0 L 67.0 66.0 L 68.0 66.0 L 69.0 65.66666666666667 L 70.0 65.0 L 71.0 64.0 L 71.5 63.5 Z" stroke="none" fill="rgb(181,170,166)" />
<path d="M 91.5 68.5 L 92.0 68.33333333333333 L 93.0 67.66666666666667 L 94.0 67.33333333333333 L 95.0 67.0 L 96.0 66.66666666666667 L 96.66666666666667 66.0 L 97.0 65.0 L 97.33333333333333 64.0 L 97.66666666666667 63.0 L 98.0 62.0 L 98.0 61.0 L 98.0 60.0 L 98.0 59.0 L 97.66666666666667 58.333333333333336 L 97.0 58.0 L 96.0 58.333333333333336 L 95.0 59.0 L 94.0 60.0 L 93.0 61.0 L 92.0 62.0 L 91.0 63.0 L 90.0 64.0 L 89.33333333333333 65.0 L 88.66666666666667 66.0 L 88.33333333333333 67.0 L 87.66666666666667 68.0 L 87.33333333333333 69.0 L 87.33333333333333 69.66666666666667 L 88.0 70.0 L 89.0 69.66666666666667 L 90.0 69.33333333333333 L 90.5 69.0 Z" stroke="none" fill="rgb(183,181,180)" />
<path d="M 59.5 71.0 L 60.0 71.0 L 61.0 71.0 L 61.666666666666664 70.66666666666667 L 61.666666666666664 70.0 L 61.0 69.0 L 60.0 68.0 L 59.0 67.0 L 58.0 66.0 L 57.0 65.0 L 56.0 64.0 L 55.0 63.333333333333336 L 54.0 62.666666666666664 L 53.0 62.0 L 52.0 61.333333333333336 L 51.0 61.0 L 50.333333333333336 61.333333333333336 L 50.0 62.0 L 50.0 63.0 L 50.333333333333336 64.0 L 50.666666666666664 65.0 L 51.0 66.0 L 51.0 67.0 L 51.333333333333336 68.0 L 52.0 69.0 L 53.0 69.66666666666667 L 54.0 70.0 L 55.0 70.0 L 56.0 70.0 L 57.0 70.33333333333333 L 58.0 70.66666666666667 L 58.5 71.0 Z" stroke="none" fill="rgb(183,181,180)" />
<path d="M 91.5 74.5 L 92.0 74.0 L 93.0 73.0 L 93.66666666666667 72.0 L 94.33333333333333 71.0 L 95.0 70.0 L 95.66666666666667 69.0 L 96.0 68.0 L 95.66666666666667 67.33333333333333 L 95.0 67.0 L 94.0 67.0 L 93.0 67.33333333333333 L 92.0 67.66666666666667 L 91.0 68.33333333333333 L 90.0 68.66666666666667 L 89.0 69.33333333333333 L 88.0 69.66666666666667 L 87.0 70.0 L 86.0 70.33333333333333 L 85.0 71.0 L 84.0 71.66666666666667 L 83.0 72.33333333333333 L 82.0 72.66666666666667 L 81.0 73.0 L 80.0 73.33333333333333 L 79.0 74.0 L 78.0 74.66666666666667 L 77.0 75.0 L 76.0 75.0 L 75.0 75.0 L 74.0 75.0 L 73.0 75.0 L 72.0 75.0 L 71.0 75.0 L 70.0 74.66666666666667 L 69.0 74.33333333333333 L 68.0 74.0 L 67.0 74.0 L 66.0 73.66666666666667 L 65.0 73.33333333333333 L 64.0 72.66666666666667 L 63.0 72.0 L 62.0 71.33333333333333 L 61.0 71.0 L 60.0 71.0 L 59.0 70.66666666666667 L 58.0 70.33333333333333 L 57.0 70.0 L 56.0 70.0 L 55.0 70.0 L 54.333333333333336 70.33333333333333 L 54.0 71.0 L 54.333333333333336 72.0 L 55.0 73.0 L 56.0 74.0 L 57.0 75.0 L 58.0 76.0 L 59.0 77.0 L 60.0 78.0 L 61.0 78.66666666666667 L 62.0 79.0 L 63.0 79.0 L 64.0 79.0 L 65.0 79.33333333333333 L 66.0 79.66666666666667 L 67.0 79.66666666666667 L 68.0 79.33333333333333 L 69.0 79.0 L 70.0 79.0 L 71.0 79.0 L 72.0 79.0 L 73.0 79.0 L 74.0 79.0 L 75.0 79.0 L 76.0 79.0 L 77.0 79.0 L 78.0 79.33333333333333 L 79.0 79.66666666666667 L 80.0 80.0 L 80.66666666666667 79.66666666666667 L 81.33333333333333 79.0 L 82.0 78.66666666666667 L 83.0 78.66666666666667 L 84.0 79.0 L 85.0 79.0 L 86.0 78.66666666666667 L 87.0 78.0 L 88.0 77.0 L 89.0 76.33333333333333 L 90.0 75.66666666666667 L 90.5 75.5 Z" stroke="none" fill="rgb(169,169,169)" />
<path d="M 50.5 72.0 L 51.0 72.0 L 52.0 72.0 L 53.0 71.66666666666667 L 53.666666666666664 71.0 L 53.666666666666664 70.0 L 53.0 69.0 L 52.0 68.33333333333333 L 51.0 68.0 L 50.0 68.0 L 49.0 68.0 L 48.0 68.0 L 47.0 68.0 L 46.333333333333336 68.33333333333333 L 46.0 69.0 L 46.0 70.0 L 46.333333333333336 71.0 L 47.0 71.66666666666667 L 48.0 72.0 L 49.0 72.0 L 49.5 72.0 Z" stroke="none" fill="rgb(150,105,81)" />
<path d="M 20.5 97.0 L 20.666666666666668 96.66666666666667 L 20.666666666666668 96.0 L 20.0 95.0 L 19.333333333333332 94.0 L 18.666666666666668 93.0 L 18.333333333333332 92.0 L 17.666666666666668 91.0 L 17.333333333333332 90.0 L 16.666666666666668 89.0 L 16.333333333333332 88.0 L 15.666666666666666 87.0 L 15.333333333333334 86.0 L 14.666666666666666 85.0 L 14.333333333333334 84.0 L 14.0 83.0 L 13.666666666666666 82.0 L 13.333333333333334 81.0 L 13.0 80.0 L 13.0 79.0 L 12.666666666666666 78.0 L 12.333333333333334 77.0 L 12.0 76.0 L 12.0 75.0 L 12.0 74.0 L 12.0 73.0 L 11.666666666666666 72.33333333333333 L 11.0 72.0 L 10.333333333333334 72.33333333333333 L 10.0 73.0 L 10.0 74.0 L 10.0 75.0 L 10.0 76.0 L 10.0 77.0 L 10.0 78.0 L 10.0 79.0 L 10.0 80.0 L 10.0 81.0 L 10.0 82.0 L 10.0 83.0 L 10.0 84.0 L 10.0 85.0 L 10.0 86.0 L 10.0 87.0 L 10.0 88.0 L 10.0 89.0 L 10.0 90.0 L 10.0 91.0 L 10.0 92.0 L 10.0 93.0 L 10.0 94.0 L 10.0 95.0 L 10.0 96.0 L 10.0 97.0 L 10.333333333333334 98.0 L 11.0 98.66666666666667 L 12.0 99.0 L 13.0 99.0 L 14.0 98.66666666666667 L 15.0 98.33333333333333 L 16.0 98.0 L 17.0 98.0 L 18.0 98.0 L 19.0 97.66666666666667 L 19.5 97.5 Z" stroke="none" fill="rgb(106,75,63)" />
<path d="M 92.5 79.5 L 93.0 79.0 L 94.0 78.0 L 94.66666666666667 77.0 L 94.66666666666667 76.0 L 94.0 75.0 L 93.0 74.33333333333333 L 92.0 74.0 L 91.0 74.33333333333333 L 90.0 75.0 L 89.0 75.66666666666667 L 88.0 76.33333333333333 L 87.0 77.0 L 86.33333333333333 78.0 L 86.0 79.0 L 86.33333333333333 80.0 L 87.0 81.0 L 88.0 81.66666666666667 L 89.0 81.66666666666667 L 90.0 81.33333333333333 L 91.0 80.66666666666667 L 91.5 80.5 Z" stroke="none" fill="rgb(199,198,198)" />
<path d="M 59.5 81.5 L 60.0 81.0 L 60.666666666666664 80.0 L 61.0 79.0 L 60.666666666666664 78.0 L 60.0 77.0 L 59.0 76.33333333333333 L 58.0 76.33333333333333 L 57.0 76.66666666666667 L 56.0 77.0 L 55.0 77.0 L 54.0 77.0 L 53.0 77.0 L 52.0 77.0 L 51.0 77.0 L 50.0 77.0 L 49.0 77.0 L 48.0 77.0 L 47.0 77.0 L 46.0 77.0 L 45.0 76.66666666666667 L 44.0 76.33333333333333 L 43.0 76.0 L 42.0 76.0 L 41.0 76.0 L 40.0 76.0 L 39.333333333333336 76.33333333333333 L 39.0 77.0 L 39.0 78.0 L 39.333333333333336 79.0 L 40.0 80.0 L 41.0 81.0 L 42.0 81.66666666666667 L 43.0 82.0 L 44.0 82.33333333333333 L 45.0 82.66666666666667 L 46.0 83.0 L 47.0 83.0 L 48.0 83.0 L 49.0 83.0 L 50.0 83.0 L 51.0 83.0 L 52.0 83.0 L 53.0 83.0 L 54.0 83.0 L 55.0 83.0 L 56.0 83.0 L 57.0 82.66666666666667 L 58.0 82.33333333333333 L 58.5 82.0 Z" stroke="none" fill="rgb(95,65,55)" />
<path d="M 94.5 83.5 L 95.0 83.0 L 96.0 82.0 L 97.0 81.0 L 97.66666666666667 80.0 L 98.0 79.0 L 97.66666666666667 78.0 L 97.0 77.33333333333333 L 96.0 77.0 L 95.0 77.0 L 94.0 77.33333333333333 L 93.0 78.0 L 92.0 79.0 L 91.0 80.0 L 90.0 80.66666666666667 L 89.0 81.33333333333333 L 88.33333333333333 82.0 L 88.0 83.0 L 88.0 84.0 L 88.33333333333333 85.0 L 89.0 85.66666666666667 L 90.0 86.0 L 91.0 85.66666666666667 L 92.0 85.0 L 93.0 84.33333333333333 L 93.5 84.0 Z" stroke="none" fill="rgb(169,169,169)" />
<path d="M 81.5 80.0 L 82.0 80.0 L 82.66666666666667 79.66666666666667 L 83.0 79.0 L 82.66666666666667 78.33333333333333 L 82.0 78.0 L 81.33333333333333 78.33333333333333 L 81.0 79.0 L 81.0 79.5 Z" stroke="none" fill="rgb(157,155,154)" />
<path d="M 76.5 81.5 L 77.0 81.33333333333333 L 78.0 81.0 L 78.66666666666667 80.66666666666667 L 79.0 80.0 L 78.66666666666667 79.33333333333333 L 78.0 79.0 L 77.0 79.0 L 76.0 79.0 L 75.0 79.0 L 74.0 79.0 L 73.0 79.0 L 72.0 79.0 L 71.0 79.0 L 70.0 79.0 L 69.0 79.0 L 68.0 79.0 L 67.33333333333333 79.33333333333333 L 67.0 80.0 L 67.33333333333333 80.66666666666667 L 68.0 81.0 L 69.0 81.0 L 70.0 81.0 L 71.0 81.0 L 72.0 81.0 L 73.0 81.33333333333333 L 74.0 81.66666666666667 L 75.0 82.0 L 75.5 82.0 Z" stroke="none" fill="rgb(157,155,154)" />
<path d="M 85.0 88.5 L 85.33333333333333 88.0 L 85.66666666666667 87.0 L 86.33333333333333 86.0 L 87.0 85.0 L 87.66666666666667 84.0 L 88.0 83.0 L 88.0 82.0 L 87.66666666666667 81.0 L 87.0 80.0 L 86.0 79.33333333333333 L 85.0 79.0 L 84.0 79.0 L 83.33333333333333 79.33333333333333 L 83.0 80.0 L 83.0 81.0 L 82.66666666666667 82.0 L 82.33333333333333 83.0 L 82.0 84.0 L 81.66666666666667 85.0 L 81.33333333333333 86.0 L 80.66666666666667 87.0 L 80.0 88.0 L 79.33333333333333 89.0 L 78.66666666666667 90.0 L 78.33333333333333 91.0 L 78.0 92.0 L 78.0 93.0 L 77.66666666666667 94.0 L 77.33333333333333 95.0 L 77.0 96.0 L 77.33333333333333 96.66666666666667 L 78.0 97.0 L 79.0 97.0 L 80.0 97.0 L 80.66666666666667 96.66666666666667 L 81.33333333333333 96.0 L 81.66666666666667 95.0 L 82.33333333333333 94.0 L 82.66666666666667 93.0 L 83.33333333333333 92.0 L 83.66666666666667 91.0 L 84.33333333333333 90.0 L 84.5 89.5 Z" stroke="none" fill="rgb(95,65,55)" />
<path d="M 76.5 85.5 L 77.0 86.0 L 78.0 87.0 L 79.0 87.66666666666667 L 80.0 88.0 L 80.66666666666667 87.66666666666667 L 81.33333333333333 87.0 L 81.66666666666667 86.0 L 82.0 85.0 L 82.33333333333333 84.0 L 82.66666666666667 83.0 L 83.0 82.0 L 83.0 81.0 L 82.66666666666667 80.33333333333333 L 82.0 80.0 L 81.0 80.0 L 80.0 80.0 L 79.0 80.33333333333333 L 78.0 80.66666666666667 L 77.0 81.0 L 76.0 81.33333333333333 L 75.0 81.66666666666667 L 74.33333333333333 82.33333333333333 L 74.0 83.0 L 74.33333333333333 84.0 L 75.0 84.66666666666667 L 75.5 85.0 Z" stroke="none" fill="rgb(82,57,48)" />
<path d="M 100.5 91.5 L 101.0 91.0 L 102.0 90.33333333333333 L 103.0 89.66666666666667 L 104.0 89.0 L 105.0 88.0 L 105.66666666666667 87.0 L 106.0 86.0 L 105.66666666666667 85.0 L 105.0 84.0 L 104.0 83.0 L 103.0 82.33333333333333 L 102.0 81.66666666666667 L 101.0 81.0 L 100.0 80.33333333333333 L 99.0 80.0 L 98.0 80.0 L 97.0 80.33333333333333 L 96.0 81.0 L 95.0 82.0 L 94.0 83.0 L 93.0 83.66666666666667 L 92.0 84.33333333333333 L 91.0 85.0 L 90.33333333333333 86.0 L 90.0 87.0 L 90.0 88.0 L 90.0 89.0 L 90.33333333333333 90.0 L 91.0 91.0 L 91.66666666666667 92.0 L 92.33333333333333 93.0 L 93.0 94.0 L 94.0 94.66666666666667 L 95.0 95.0 L 96.0 94.66666666666667 L 97.0 94.33333333333333 L 98.0 93.66666666666667 L 99.0 93.0 L 99.5 92.5 Z" stroke="none" fill="rgb(253,151,5)" />
<path d="M 24.5 91.5 L 25.0 91.66666666666667 L 26.0 92.33333333333333 L 27.0 92.66666666666667 L 28.0 93.0 L 29.0 93.33333333333333 L 30.0 93.66666666666667 L 31.0 94.0 L 32.0 94.0 L 33.0 94.0 L 34.0 94.33333333333333 L 35.0 94.66666666666667 L 36.0 95.0 L 37.0 95.0 L 38.0 95.0 L 39.0 95.0 L 39.666666666666664 94.66666666666667 L 39.666666666666664 94.0 L 39.0 93.0 L 38.0 92.33333333333333 L 37.0 91.66666666666667 L 36.0 91.33333333333333 L 35.0 90.66666666666667 L 34.0 90.0 L 33.0 89.33333333333333 L 32.0 88.66666666666667 L 31.0 88.0 L 30.0 87.0 L 29.0 86.0 L 28.0 85.0 L 27.0 84.33333333333333 L 26.0 84.0 L 25.0 84.33333333333333 L 24.0 84.66666666666667 L 23.0 85.33333333333333 L 22.0 86.0 L 21.333333333333332 87.0 L 21.0 88.0 L 21.0 89.0 L 21.333333333333332 90.0 L 22.0 90.66666666666667 L 23.0 91.0 L 23.5 91.0 Z" stroke="none" fill="rgb(65,65,66)" />
<path d="M 75.5 92.0 L 76.0 91.66666666666667 L 77.0 91.33333333333333 L 78.0 91.0 L 78.66666666666667 90.66666666666667 L 79.33333333333333 90.0 L 79.66666666666667 89.0 L 79.66666666666667 88.0 L 79.0 87.0 L 78.0 86.0 L 77.0 85.33333333333333 L 76.0 84.66666666666667 L 75.0 84.33333333333333 L 74.0 84.0 L 73.0 84.33333333333333 L 72.0 85.0 L 71.0 86.0 L 70.0 87.0 L 69.0 88.0 L 68.0 89.0 L 67.0 89.66666666666667 L 66.0 90.33333333333333 L 65.0 91.0 L 64.0 91.66666666666667 L 63.0 92.33333333333333 L 62.0 92.66666666666667 L 61.333333333333336 93.33333333333333 L 61.0 94.0 L 61.333333333333336 94.66666666666667 L 62.0 95.0 L 63.0 95.0 L 64.0 95.0 L 65.0 95.0 L 66.0 95.0 L 67.0 95.0 L 68.0 94.66666666666667 L 69.0 94.33333333333333 L 70.0 94.0 L 71.0 94.0 L 72.0 93.66666666666667 L 73.0 93.33333333333333 L 74.0 92.66666666666667 L 74.5 92.5 Z" stroke="none" fill="rgb(65,65,66)" />
<path d="M 88.5 100.0 L 89.0 100.0 L 89.66666666666667 99.66666666666667 L 90.0 99.0 L 90.0 98.0 L 90.0 97.0 L 90.0 96.0 L 90.0 95.0 L 90.0 94.0 L 90.0 93.0 L 90.33333333333333 92.0 L 90.66666666666667 91.0 L 90.66666666666667 90.0 L 90.33333333333333 89.0 L 90.0 88.0 L 90.0 87.0 L 89.66666666666667 86.0 L 89.0 85.0 L 88.0 84.33333333333333 L 87.0 84.33333333333333 L 86.33333333333333 85.0 L 85.66666666666667 86.0 L 85.33333333333333 87.0 L 84.66666666666667 88.0 L 84.33333333333333 89.0 L 83.66666666666667 90.0 L 83.33333333333333 91.0 L 82.66666666666667 92.0 L 82.33333333333333 93.0 L 81.66666666666667 94.0 L 81.33333333333333 95.0 L 81.0 96.0 L 81.33333333333333 97.0 L 82.0 97.66666666666667 L 83.0 98.0 L 84.0 98.33333333333333 L 85.0 98.66666666666667 L 86.0 99.33333333333333 L 87.0 99.66666666666667 L 87.5 100.0 Z" stroke="none" fill="rgb(106,75,63)" />
<path d="M 104.0 98.5 L 104.33333333333333 98.0 L 105.0 97.0 L 106.0 96.0 L 107.0 95.0 L 107.66666666666667 94.0 L 107.66666666666667 93.0 L 107.33333333333333 92.0 L 107.0 91.0 L 107.33333333333333 90.0 L 108.0 89.0 L 109.0 88.33333333333333 L 110.0 88.0 L 111.0 88.33333333333333 L 112.0 88.66666666666667 L 112.66666666666667 88.66666666666667 L 113.0 88.0 L 113.0 87.0 L 112.66666666666667 86.0 L 112.0 85.33333333333333 L 111.0 85.0 L 110.0 85.0 L 109.0 85.0 L 108.0 85.33333333333333 L 107.0 85.66666666666667 L 106.0 86.33333333333333 L 105.0 87.0 L 104.0 88.0 L 103.0 89.0 L 102.0 89.66666666666667 L 101.0 90.33333333333333 L 100.0 91.0 L 99.0 92.0 L 98.33333333333333 93.0 L 98.0 94.0 L 98.0 95.0 L 98.33333333333333 96.0 L 98.66666666666667 97.0 L 99.33333333333333 98.0 L 100.0 99.0 L 101.0 100.0 L 102.0 100.66666666666667 L 102.66666666666667 100.66666666666667 L 103.33333333333333 100.0 L 103.5 99.5 Z" stroke="none" fill="rgb(175,132,100)" />
<path d="M 111.5 91.5 L 112.0 91.0 L 112.66666666666667 90.0 L 112.66666666666667 89.0 L 112.0 88.33333333333333 L 111.0 88.0 L 110.0 88.0 L 109.0 88.0 L 108.0 88.33333333333333 L 107.33333333333333 89.0 L 107.0 90.0 L 107.0 91.0 L 107.0 92.0 L 107.33333333333333 92.66666666666667 L 108.0 93.0 L 109.0 93.0 L 110.0 92.66666666666667 L 110.5 92.5 Z" stroke="none" fill="rgb(163,122,93)" />
<path d="M 110.5 99.5 L 110.66666666666667 100.0 L 111.0 101.0 L 111.33333333333333 102.0 L 112.0 103.0 L 112.66666666666667 104.0 L 113.33333333333333 104.66666666666667 L 114.0 104.66666666666667 L 115.0 104.66666666666667 L 115.66666666666667 105.0 L 116.33333333333333 106.0 L 117.0 107.0 L 118.0 108.0 L 119.0 108.66666666666667 L 120.0 108.66666666666667 L 121.0 108.0 L 122.0 107.33333333333333 L 122.66666666666667 106.66666666666667 L 123.0 106.0 L 123.0 105.0 L 123.0 104.0 L 122.66666666666667 103.0 L 122.33333333333333 102.0 L 121.66666666666667 101.0 L 121.33333333333333 100.0 L 121.0 99.0 L 120.66666666666667 98.0 L 120.33333333333333 97.0 L 119.66666666666667 96.33333333333333 L 119.0 95.66666666666667 L 118.0 95.0 L 117.33333333333333 94.0 L 116.66666666666667 93.0 L 116.33333333333333 92.0 L 115.66666666666667 91.33333333333333 L 115.0 90.66666666666667 L 114.0 90.33333333333333 L 113.0 90.0 L 112.0 90.33333333333333 L 111.0 91.0 L 110.0 92.0 L 109.33333333333333 93.0 L 108.66666666666667 94.0 L 108.33333333333333 95.0 L 108.33333333333333 96.0 L 108.66666666666667 97.0 L 109.33333333333333 98.0 L 109.5 98.5 Z" stroke="none" fill="rgb(175,132,100)" />
<path d="M 43.5 105.0 L 43.666666666666664 104.66666666666667 L 44.0 104.0 L 44.0 103.0 L 44.0 102.0 L 44.0 101.0 L 44.0 100.0 L 44.0 99.0 L 44.0 98.0 L 43.666666666666664 97.0 L 43.333333333333336 96.0 L 42.666666666666664 95.33333333333333 L 42.0 95.0 L 41.0 95.0 L 40.0 95.0 L 39.0 95.0 L 38.0 95.0 L 37.0 95.0 L 36.0 94.66666666666667 L 35.0 94.33333333333333 L 34.0 94.0 L 33.0 94.0 L 32.0 94.0 L 31.0 93.66666666666667 L 30.0 93.33333333333333 L 29.0 93.0 L 28.0 92.66666666666667 L 27.0 92.33333333333333 L 26.0 91.66666666666667 L 25.0 91.33333333333333 L 24.0 91.0 L 23.0 91.0 L 22.333333333333332 91.33333333333333 L 22.0 92.0 L 22.0 93.0 L 22.333333333333332 94.0 L 22.666666666666668 95.0 L 23.0 96.0 L 23.333333333333332 97.0 L 23.666666666666668 98.0 L 24.0 99.0 L 24.333333333333332 100.0 L 24.666666666666668 101.0 L 25.0 102.0 L 25.333333333333332 103.0 L 25.666666666666668 104.0 L 26.0 105.0 L 26.333333333333332 105.66666666666667 L 27.0 105.66666666666667 L 28.0 105.33333333333333 L 29.0 105.0 L 30.0 105.0 L 31.0 105.0 L 32.0 105.0 L 33.0 105.0 L 34.0 105.0 L 35.0 105.0 L 36.0 105.0 L 37.0 105.0 L 38.0 105.0 L 39.0 105.0 L 40.0 105.0 L 41.0 105.0 L 42.0 105.0 L 42.5 105.0 Z" stroke="none" fill="rgb(117,116,116)" />
<path d="M 75.0 103.5 L 75.0 103.0 L 75.0 102.0 L 75.33333333333333 101.0 L 75.66666666666667 100.0 L 76.0 99.0 L 76.33333333333333 98.0 L 76.66666666666667 97.0 L 77.33333333333333 96.0 L 77.66666666666667 95.0 L 78.0 94.0 L 78.0 93.0 L 78.0 92.0 L 77.66666666666667 91.33333333333333 L 77.0 91.0 L 76.0 91.33333333333333 L 75.0 91.66666666666667 L 74.0 92.33333333333333 L 73.0 92.66666666666667 L 72.0 93.33333333333333 L 71.0 93.66666666666667 L 70.0 94.0 L 69.0 94.0 L 68.0 94.33333333333333 L 67.0 94.66666666666667 L 66.0 95.0 L 65.0 95.0 L 64.0 95.0 L 63.0 95.0 L 62.0 95.0 L 61.0 95.0 L 60.0 95.0 L 59.0 95.0 L 58.0 95.0 L 57.333333333333336 95.33333333333333 L 57.0 96.0 L 56.666666666666664 97.0 L 56.333333333333336 98.0 L 56.0 99.0 L 56.0 100.0 L 56.0 101.0 L 56.0 102.0 L 56.0 103.0 L 56.0 104.0 L 56.333333333333336 104.66666666666667 L 57.0 105.0 L 58.0 105.0 L 59.0 105.0 L 60.0 105.0 L 61.0 105.0 L 62.0 105.0 L 63.0 105.0 L 64.0 105.0 L 65.0 105.0 L 66.0 105.0 L 67.0 105.0 L 68.0 105.0 L 69.0 105.0 L 70.0 105.0 L 71.0 105.0 L 72.0 105.33333333333333 L 73.0 105.66666666666667 L 73.66666666666667 105.66666666666667 L 74.33333333333333 105.0 L 74.5 104.5 Z" stroke="none" fill="rgb(117,116,116)" />
<path d="M 95.0 95.5 L 94.66666666666667 95.0 L 94.0 94.0 L 93.0 93.0 L 92.33333333333333 92.0 L 91.66666666666667 91.33333333333333 L 91.0 91.0 L 90.33333333333333 91.33333333333333 L 90.0 92.0 L 90.0 93.0 L 90.0 94.0 L 90.0 95.0 L 90.0 96.0 L 90.0 97.0 L 90.0 98.0 L 90.0 99.0 L 90.0 100.0 L 90.33333333333333 101.0 L 91.0 101.66666666666667 L 91.66666666666667 101.66666666666667 L 92.0 101.0 L 92.33333333333333 100.0 L 92.66666666666667 99.0 L 93.33333333333333 98.0 L 94.0 97.0 L 94.5 96.5 Z" stroke="none" fill="rgb(0,0,0)" />
<path d="M 107.5 109.0 L 108.0 109.33333333333333 L 109.0 110.0 L 110.0 111.0 L 111.0 112.0 L 112.0 113.0 L 112.66666666666667 114.0 L 113.33333333333333 114.66666666666667 L 114.0 115.33333333333333 L 115.0 115.66666666666667 L 116.0 116.0 L 116.66666666666667 115.66666666666667 L 117.0 115.0 L 116.66666666666667 114.0 L 116.0 113.0 L 115.33333333333333 112.0 L 115.0 111.0 L 114.66666666666667 110.33333333333333 L 114.0 110.0 L 113.0 109.66666666666667 L 112.66666666666667 109.0 L 112.66666666666667 108.0 L 113.0 107.0 L 112.66666666666667 106.33333333333333 L 112.0 106.0 L 111.0 106.0 L 110.0 105.66666666666667 L 109.33333333333333 105.0 L 109.0 104.0 L 109.0 103.0 L 109.0 102.0 L 108.66666666666667 101.33333333333333 L 108.0 101.0 L 107.0 101.0 L 106.0 100.66666666666667 L 105.66666666666667 100.0 L 105.66666666666667 99.0 L 106.33333333333333 98.0 L 107.0 97.0 L 108.0 96.0 L 108.66666666666667 95.0 L 109.0 94.0 L 108.66666666666667 93.33333333333333 L 108.0 93.33333333333333 L 107.0 94.0 L 106.0 95.0 L 105.0 96.0 L 104.33333333333333 97.0 L 103.66666666666667 98.0 L 103.33333333333333 99.0 L 103.0 100.0 L 103.0 101.0 L 103.0 102.0 L 103.33333333333333 103.0 L 104.0 104.0 L 104.66666666666667 105.0 L 105.0 106.0 L 105.0 107.0 L 105.33333333333333 108.0 L 106.0 108.66666666666667 L 106.5 109.0 Z" stroke="none" fill="rgb(150,105,81)" />
<path d="M 95.5 112.5 L 96.0 113.0 L 97.0 114.0 L 98.0 115.0 L 99.0 116.0 L 100.0 117.0 L 101.0 118.0 L 102.0 118.66666666666667 L 103.0 119.0 L 104.0 119.0 L 105.0 119.0 L 106.0 119.0 L 107.0 119.0 L 108.0 119.0 L 109.0 119.0 L 110.0 119.0 L 111.0 119.0 L 112.0 118.66666666666667 L 112.66666666666667 118.0 L 112.66666666666667 117.0 L 112.66666666666667 116.0 L 112.66666666666667 115.0 L 113.0 114.0 L 112.66666666666667 113.0 L 112.0 112.0 L 111.0 111.0 L 110.0 110.0 L 109.0 109.33333333333333 L 108.0 109.0 L 107.0 108.66666666666667 L 106.0 108.0 L 105.33333333333333 107.0 L 105.0 106.0 L 105.0 105.0 L 104.66666666666667 104.0 L 104.0 103.0 L 103.33333333333333 102.0 L 102.66666666666667 101.0 L 102.0 100.0 L 101.0 99.0 L 100.0 98.0 L 99.33333333333333 97.0 L 98.66666666666667 96.0 L 98.33333333333333 95.0 L 97.66666666666667 94.33333333333333 L 97.0 94.0 L 96.0 94.33333333333333 L 95.0 95.0 L 94.0 96.0 L 93.33333333333333 97.0 L 92.66666666666667 98.0 L 92.33333333333333 99.0 L 92.0 100.0 L 92.0 101.0 L 92.0 102.0 L 92.0 103.0 L 92.33333333333333 104.0 L 92.66666666666667 105.0 L 93.0 106.0 L 93.0 107.0 L 93.0 108.0 L 93.33333333333333 109.0 L 94.0 110.0 L 94.66666666666667 111.0 L 95.0 111.5 Z" stroke="none" fill="rgb(186,141,104)" />
<path d="M 52.5 105.0 L 53.0 105.0 L 54.0 105.33333333333333 L 55.0 105.66666666666667 L 55.666666666666664 105.66666666666667 L 56.0 105.0 L 56.0 104.0 L 56.0 103.0 L 56.0 102.0 L 56.0 101.0 L 56.0 100.0 L 56.333333333333336 99.0 L 56.666666666666664 98.0 L 57.0 97.0 L 57.0 96.0 L 56.666666666666664 95.33333333333333 L 56.0 95.0 L 55.0 95.0 L 54.0 95.0 L 53.0 95.0 L 52.0 95.0 L 51.0 95.0 L 50.0 95.0 L 49.0 95.0 L 48.0 95.0 L 47.0 95.0 L 46.0 95.0 L 45.0 95.0 L 44.0 95.0 L 43.333333333333336 95.33333333333333 L 43.0 96.0 L 43.333333333333336 97.0 L 43.666666666666664 98.0 L 44.0 99.0 L 44.0 100.0 L 44.0 101.0 L 44.0 102.0 L 44.0 103.0 L 44.0 104.0 L 44.0 105.0 L 44.333333333333336 105.66666666666667 L 45.0 105.66666666666667 L 46.0 105.33333333333333 L 47.0 105.0 L 48.0 105.0 L 49.0 105.0 L 50.0 105.0 L 51.0 105.0 L 51.5 105.0 Z" stroke="none" fill="rgb(150,105,81)" />
<path d="M 111.5 106.0 L 112.0 106.0 L 112.66666666666667 105.66666666666667 L 113.0 105.0 L 113.0 104.0 L 112.66666666666667 103.0 L 112.0 102.33333333333333 L 111.0 101.66666666666667 L 110.33333333333333 101.0 L 110.0 100.0 L 110.0 99.0 L 109.66666666666667 98.0 L 109.33333333333333 97.0 L 108.66666666666667 96.33333333333333 L 108.0 96.0 L 107.0 96.33333333333333 L 106.33333333333333 97.0 L 105.66666666666667 98.0 L 105.33333333333333 99.0 L 105.0 100.0 L 105.33333333333333 100.66666666666667 L 106.0 101.0 L 107.0 101.0 L 108.0 101.33333333333333 L 108.66666666666667 102.0 L 109.0 103.0 L 109.0 104.0 L 109.0 105.0 L 109.33333333333333 105.66666666666667 L 110.0 106.0 L 110.5 106.0 Z" stroke="none" fill="rgb(186,141,104)" />
<path d="M 24.5 107.0 L 25.0 107.0 L 25.666666666666668 106.66666666666667 L 26.0 106.0 L 26.0 105.0 L 26.0 104.0 L 25.666666666666668 103.0 L 25.333333333333332 102.0 L 25.0 101.0 L 24.666666666666668 100.0 L 24.333333333333332 99.0 L 24.0 98.0 L 23.666666666666668 97.33333333333333 L 23.0 97.0 L 22.0 97.0 L 21.0 97.0 L 20.0 97.0 L 19.0 97.33333333333333 L 18.0 97.66666666666667 L 17.0 98.0 L 16.0 98.0 L 15.0 98.0 L 14.0 98.33333333333333 L 13.0 98.66666666666667 L 12.0 99.0 L 11.0 99.0 L 10.0 99.33333333333333 L 9.0 99.66666666666667 L 8.0 100.33333333333333 L 7.0 101.0 L 6.0 102.0 L 5.0 103.0 L 4.333333333333333 104.0 L 4.0 105.0 L 4.0 106.0 L 4.333333333333333 107.0 L 4.666666666666667 108.0 L 5.333333333333333 109.0 L 6.0 110.0 L 7.0 111.0 L 8.0 111.66666666666667 L 9.0 112.0 L 10.0 112.0 L 11.0 112.0 L 12.0 112.0 L 13.0 112.0 L 14.0 112.0 L 14.666666666666666 111.66666666666667 L 15.333333333333334 111.0 L 16.0 110.33333333333333 L 17.0 109.66666666666667 L 18.0 109.33333333333333 L 19.0 109.0 L 20.0 108.66666666666667 L 21.0 108.33333333333333 L 22.0 107.66666666666667 L 23.0 107.33333333333333 L 23.5 107.0 Z" stroke="none" fill="rgb(128,128,128)" />
<path d="M 78.5 108.5 L 79.0 108.66666666666667 L 80.0 109.33333333333333 L 81.0 109.66666666666667 L 82.0 110.33333333333333 L 83.0 111.0 L 84.0 111.66666666666667 L 85.0 112.0 L 86.0 112.0 L 87.0 112.0 L 88.0 112.0 L 89.0 112.0 L 90.0 112.0 L 90.66666666666667 111.66666666666667 L 91.33333333333333 111.0 L 92.0 110.0 L 92.66666666666667 109.0 L 93.0 108.0 L 93.0 107.0 L 93.0 106.0 L 93.0 105.0 L 92.66666666666667 104.0 L 92.33333333333333 103.0 L 91.66666666666667 102.0 L 91.0 101.0 L 90.0 100.33333333333333 L 89.0 100.0 L 88.0 99.66666666666667 L 87.0 99.33333333333333 L 86.0 98.66666666666667 L 85.0 98.33333333333333 L 84.0 98.0 L 83.0 97.66666666666667 L 82.0 97.33333333333333 L 81.0 97.0 L 80.0 97.0 L 79.0 97.0 L 78.0 97.0 L 77.0 97.0 L 76.33333333333333 97.33333333333333 L 76.0 98.0 L 75.66666666666667 99.0 L 75.33333333333333 100.0 L 75.0 101.0 L 75.0 102.0 L 74.66666666666667 103.0 L 74.33333333333333 104.0 L 74.0 105.0 L 74.0 106.0 L 74.33333333333333 106.66666666666667 L 75.0 107.0 L 76.0 107.33333333333333 L 77.0 107.66666666666667 L 77.5 108.0 Z" stroke="none" fill="rgb(128,128,128)" />
<path d="M 111.5 101.5 L 111.66666666666667 101.0 L 111.66666666666667 100.0 L 111.0 99.33333333333333 L 110.33333333333333 99.33333333333333 L 110.0 100.0 L 110.0 101.0 L 110.33333333333333 101.66666666666667 L 110.5 102.0 Z" stroke="none" fill="rgb(163,122,93)" />
<path d="M 114.5 106.0 L 115.0 106.0 L 115.66666666666667 105.66666666666667 L 116.0 105.0 L 116.0 104.0 L 115.66666666666667 103.33333333333333 L 115.0 103.33333333333333 L 114.0 104.0 L 113.33333333333333 105.0 L 113.33333333333333 105.66666666666667 L 113.5 106.0 Z" stroke="none" fill="rgb(150,105,81)" />
<path d="M 43.5 110.0 L 44.0 110.0 L 44.666666666666664 109.66666666666667 L 45.0 109.0 L 45.0 108.0 L 45.0 107.0 L 44.666666666666664 106.0 L 44.0 105.33333333333333 L 43.0 105.0 L 42.0 105.0 L 41.0 105.0 L 40.0 105.0 L 39.0 105.0 L 38.0 105.0 L 37.0 105.0 L 36.0 105.0 L 35.0 105.0 L 34.0 105.0 L 33.0 105.0 L 32.0 105.0 L 31.0 105.0 L 30.0 105.0 L 29.0 105.0 L 28.0 105.0 L 27.0 105.33333333333333 L 26.333333333333332 106.0 L 26.333333333333332 107.0 L 26.666666666666668 108.0 L 27.333333333333332 109.0 L 28.0 109.66666666666667 L 29.0 110.0 L 30.0 110.0 L 31.0 110.0 L 32.0 110.0 L 33.0 110.0 L 34.0 110.0 L 35.0 110.0 L 36.0 110.0 L 37.0 110.0 L 38.0 110.0 L 39.0 110.0 L 40.0 110.0 L 41.0 110.0 L 42.0 110.0 L 42.5 110.0 Z" stroke="none" fill="rgb(111,111,111)" />
<path d="M 52.5 124.0 L 53.0 124.0 L 53.666666666666664 123.66666666666667 L 54.0 123.0 L 54.0 122.0 L 54.0 121.0 L 54.0 120.0 L 54.0 119.0 L 54.333333333333336 118.0 L 54.666666666666664 117.0 L 55.0 116.0 L 55.0 115.0 L 55.0 114.0 L 55.0 113.0 L 55.0 112.0 L 55.0 111.0 L 55.0 110.0 L 55.333333333333336 109.0 L 55.666666666666664 108.0 L 56.0 107.0 L 55.666666666666664 106.0 L 55.0 105.33333333333333 L 54.0 105.0 L 53.0 105.0 L 52.0 105.0 L 51.0 105.0 L 50.0 105.0 L 49.0 105.0 L 48.0 105.0 L 47.0 105.0 L 46.0 105.0 L 45.333333333333336 105.33333333333333 L 45.0 106.0 L 45.0 107.0 L 45.0 108.0 L 45.0 109.0 L 45.0 110.0 L 45.0 111.0 L 45.0 112.0 L 45.0 113.0 L 45.0 114.0 L 45.0 115.0 L 45.0 116.0 L 45.333333333333336 117.0 L 45.666666666666664 118.0 L 46.0 119.0 L 46.0 120.0 L 46.0 121.0 L 46.0 122.0 L 46.333333333333336 123.0 L 47.0 123.66666666666667 L 48.0 124.0 L 49.0 124.0 L 50.0 124.0 L 51.0 124.0 L 51.5 124.0 Z" stroke="none" fill="rgb(190,189,188)" />
<path d="M 66.5 110.0 L 67.0 110.0 L 68.0 110.0 L 69.0 110.0 L 70.0 110.0 L 71.0 110.0 L 72.0 109.66666666666667 L 73.0 109.0 L 73.66666666666667 108.0 L 74.0 107.0 L 73.66666666666667 106.0 L 73.0 105.33333333333333 L 72.0 105.0 L 71.0 105.0 L 70.0 105.0 L 69.0 105.0 L 68.0 105.0 L 67.0 105.0 L 66.0 105.0 L 65.0 105.0 L 64.0 105.0 L 63.0 105.0 L 62.0 105.0 L 61.0 105.0 L 60.0 105.0 L 59.0 105.0 L 58.0 105.0 L 57.0 105.0 L 56.333333333333336 105.33333333333333 L 56.0 106.0 L 55.666666666666664 107.0 L 55.333333333333336 108.0 L 55.0 109.0 L 55.333333333333336 109.66666666666667 L 56.0 110.0 L 57.0 110.0 L 58.0 110.0 L 59.0 110.0 L 60.0 110.0 L 61.0 110.0 L 62.0 110.0 L 63.0 110.0 L 64.0 110.0 L 65.0 110.0 L 65.5 110.0 Z" stroke="none" fill="rgb(111,111,111)" />
<path d="M 113.5 110.0 L 114.0 110.33333333333333 L 114.66666666666667 111.0 L 115.0 112.0 L 115.33333333333333 113.0 L 116.0 114.0 L 117.0 114.66666666666667 L 118.0 115.0 L 119.0 114.66666666666667 L 120.0 114.0 L 121.0 113.0 L 122.0 112.0 L 123.0 111.0 L 123.66666666666667 110.0 L 124.0 109.0 L 123.66666666666667 108.0 L 123.0 107.33333333333333 L 122.0 107.0 L 121.0 107.33333333333333 L 120.0 107.66666666666667 L 119.0 107.66666666666667 L 118.0 107.0 L 117.0 106.33333333333333 L 116.0 106.0 L 115.0 106.0 L 114.0 106.0 L 113.33333333333333 106.33333333333333 L 112.66666666666667 107.0 L 112.33333333333333 108.0 L 112.0 109.0 L 112.33333333333333 109.66666666666667 L 112.5 110.0 Z" stroke="none" fill="rgb(186,141,104)" />
<path d="M 24.5 112.0 L 25.0 112.0 L 26.0 112.0 L 27.0 112.33333333333333 L 28.0 112.66666666666667 L 28.666666666666668 112.66666666666667 L 29.0 112.0 L 29.0 111.0 L 28.666666666666668 110.0 L 28.0 109.0 L 27.333333333333332 108.0 L 26.666666666666668 107.33333333333333 L 26.0 107.0 L 25.0 107.0 L 24.0 107.0 L 23.0 107.0 L 22.0 107.33333333333333 L 21.0 107.66666666666667 L 20.0 108.33333333333333 L 19.0 108.66666666666667 L 18.0 109.0 L 17.0 109.33333333333333 L 16.0 109.66666666666667 L 15.333333333333334 110.33333333333333 L 15.0 111.0 L 15.333333333333334 111.66666666666667 L 16.0 112.0 L 17.0 112.0 L 18.0 112.0 L 19.0 112.0 L 20.0 112.0 L 21.0 112.0 L 22.0 112.0 L 23.0 112.0 L 23.5 112.0 Z" stroke="none" fill="rgb(93,93,93)" />
<path d="M 77.5 112.0 L 78.0 112.0 L 79.0 112.0 L 80.0 112.0 L 81.0 112.0 L 82.0 112.0 L 83.0 112.0 L 83.66666666666667 111.66666666666667 L 83.66666666666667 111.0 L 83.0 110.33333333333333 L 82.0 109.66666666666667 L 81.0 109.33333333333333 L 80.0 108.66666666666667 L 79.0 108.33333333333333 L 78.0 107.66666666666667 L 77.0 107.33333333333333 L 76.0 107.0 L 75.0 107.0 L 74.0 107.33333333333333 L 73.0 108.0 L 72.33333333333333 109.0 L 72.0 110.0 L 72.0 111.0 L 72.33333333333333 111.66666666666667 L 73.0 112.0 L 74.0 112.0 L 75.0 112.0 L 76.0 112.0 L 76.5 112.0 Z" stroke="none" fill="rgb(93,93,93)" />
<path d="M 5.5 112.0 L 6.0 112.0 L 7.0 112.0 L 7.666666666666667 111.66666666666667 L 7.666666666666667 111.0 L 7.0 110.0 L 6.0 109.33333333333333 L 5.0 109.0 L 4.333333333333333 109.33333333333333 L 4.0 110.0 L 4.0 111.0 L 4.333333333333333 111.66666666666667 L 4.5 112.0 Z" stroke="none" fill="rgb(93,93,93)" />
<path d="M 95.0 111.5 L 95.0 111.0 L 94.66666666666667 110.0 L 94.0 109.33333333333333 L 93.0 109.0 L 92.0 109.33333333333333 L 91.33333333333333 110.0 L 91.0 111.0 L 91.33333333333333 111.66666666666667 L 92.0 112.0 L 93.0 112.0 L 94.0 112.0 L 94.5 112.0 Z" stroke="none" fill="rgb(93,93,93)" />
<path d="M 36.5 114.0 L 37.0 114.0 L 38.0 114.0 L 39.0 114.0 L 40.0 114.0 L 41.0 114.0 L 42.0 114.0 L 43.0 114.0 L 44.0 114.0 L 44.666666666666664 113.66666666666667 L 45.0 113.0 L 45.0 112.0 L 45.0 111.0 L 44.666666666666664 110.33333333333333 L 44.0 110.0 L 43.0 110.0 L 42.0 110.0 L 41.0 110.0 L 40.0 110.0 L 39.0 110.0 L 38.0 110.0 L 37.0 110.0 L 36.0 110.0 L 35.0 110.0 L 34.0 110.0 L 33.0 110.0 L 32.0 110.0 L 31.0 110.0 L 30.0 110.0 L 29.333333333333332 110.33333333333333 L 29.0 111.0 L 29.0 112.0 L 29.0 113.0 L 29.333333333333332 113.66666666666667 L 30.0 114.0 L 31.0 114.0 L 32.0 114.0 L 33.0 114.0 L 34.0 114.0 L 35.0 114.0 L 35.5 114.0 Z" stroke="none" fill="rgb(104,104,104)" />
<path d="M 66.5 114.0 L 67.0 114.0 L 68.0 114.0 L 69.0 114.0 L 70.0 114.0 L 71.0 113.66666666666667 L 71.66666666666667 113.0 L 72.0 112.0 L 72.0 111.0 L 71.66666666666667 110.33333333333333 L 71.0 110.0 L 70.0 110.0 L 69.0 110.0 L 68.0 110.0 L 67.0 110.0 L 66.0 110.0 L 65.0 110.0 L 64.0 110.0 L 63.0 110.0 L 62.0 110.0 L 61.0 110.0 L 60.0 110.0 L 59.0 110.0 L 58.0 110.0 L 57.0 110.0 L 56.0 110.0 L 55.333333333333336 110.33333333333333 L 55.0 111.0 L 55.0 112.0 L 55.0 113.0 L 55.333333333333336 113.66666666666667 L 56.0 114.0 L 57.0 114.0 L 58.0 114.0 L 59.0 114.0 L 60.0 114.0 L 61.0 114.0 L 62.0 114.0 L 63.0 114.0 L 64.0 114.0 L 65.0 114.0 L 65.5 114.0 Z" stroke="none" fill="rgb(104,104,104)" />
<path d="M 24.5 115.0 L 25.0 115.0 L 26.0 115.0 L 27.0 115.0 L 28.0 115.33333333333333 L 29.0 115.66666666666667 L 29.666666666666668 115.66666666666667 L 30.0 115.0 L 29.666666666666668 114.0 L 29.0 113.0 L 28.0 112.33333333333333 L 27.0 112.0 L 26.0 112.0 L 25.0 112.0 L 24.0 112.0 L 23.0 112.0 L 22.0 112.0 L 21.0 112.0 L 20.0 112.0 L 19.0 112.0 L 18.0 112.0 L 17.0 112.0 L 16.0 112.0 L 15.0 112.0 L 14.0 112.0 L 13.0 112.0 L 12.0 112.0 L 11.0 112.0 L 10.0 112.0 L 9.0 112.0 L 8.0 112.0 L 7.0 112.0 L 6.0 112.0 L 5.0 112.0 L 4.333333333333333 112.33333333333333 L 4.0 113.0 L 4.0 114.0 L 4.333333333333333 114.66666666666667 L 5.0 115.0 L 6.0 115.0 L 7.0 115.0 L 8.0 115.0 L 9.0 115.0 L 10.0 115.0 L 11.0 115.0 L 12.0 115.0 L 13.0 115.0 L 14.0 115.0 L 15.0 115.0 L 16.0 115.0 L 17.0 115.0 L 18.0 115.0 L 19.0 115.0 L 20.0 115.0 L 21.0 115.0 L 22.0 115.0 L 23.0 115.0 L 23.5 115.0 Z" stroke="none" fill="rgb(88,88,88)" />
<path d="M 78.5 115.0 L 79.0 115.0 L 80.0 115.0 L 81.0 115.0 L 82.0 115.0 L 83.0 115.0 L 84.0 115.0 L 85.0 115.0 L 86.0 115.0 L 87.0 115.0 L 88.0 115.0 L 89.0 115.0 L 90.0 115.0 L 91.0 115.0 L 92.0 115.0 L 93.0 115.0 L 94.0 115.0 L 95.0 115.0 L 96.0 115.0 L 97.0 115.0 L 97.66666666666667 114.66666666666667 L 97.66666666666667 114.0 L 97.0 113.0 L 96.0 112.33333333333333 L 95.0 112.0 L 94.0 112.0 L 93.0 112.0 L 92.0 112.0 L 91.0 112.0 L 90.0 112.0 L 89.0 112.0 L 88.0 112.0 L 87.0 112.0 L 86.0 112.0 L 85.0 112.0 L 84.0 112.0 L 83.0 112.0 L 82.0 112.0 L 81.0 112.0 L 80.0 112.0 L 79.0 112.0 L 78.0 112.0 L 77.0 112.0 L 76.0 112.0 L 75.0 112.0 L 74.0 112.0 L 73.0 112.0 L 72.0 112.33333333333333 L 71.0 113.0 L 70.33333333333333 114.0 L 70.33333333333333 114.66666666666667 L 71.0 115.0 L 72.0 115.0 L 73.0 115.0 L 74.0 115.0 L 75.0 115.0 L 76.0 115.0 L 77.0 115.0 L 77.5 115.0 Z" stroke="none" fill="rgb(88,88,88)" />
<path d="M 43.5 117.0 L 44.0 117.0 L 44.666666666666664 116.66666666666667 L 45.0 116.0 L 45.0 115.0 L 44.666666666666664 114.33333333333333 L 44.0 114.0 L 43.0 114.0 L 42.0 114.0 L 41.0 114.0 L 40.0 114.0 L 39.0 114.0 L 38.0 114.0 L 37.0 114.0 L 36.0 114.0 L 35.0 114.0 L 34.0 114.0 L 33.0 114.0 L 32.0 114.0 L 31.0 114.0 L 30.333333333333332 114.33333333333333 L 30.0 115.0 L 30.0 116.0 L 30.333333333333332 116.66666666666667 L 31.0 117.0 L 32.0 117.0 L 33.0 117.0 L 34.0 117.0 L 35.0 117.0 L 36.0 117.0 L 37.0 117.0 L 38.0 117.0 L 39.0 117.0 L 40.0 117.0 L 41.0 117.0 L 42.0 117.0 L 42.5 117.0 Z" stroke="none" fill="rgb(98,98,98)" />
<path d="M 69.5 117.0 L 70.0 116.66666666666667 L 70.66666666666667 116.0 L 70.66666666666667 115.0 L 70.0 114.33333333333333 L 69.0 114.0 L 68.0 114.0 L 67.0 114.0 L 66.0 114.0 L 65.0 114.0 L 64.0 114.0 L 63.0 114.0 L 62.0 114.0 L 61.0 114.0 L 60.0 114.0 L 59.0 114.0 L 58.0 114.0 L 57.0 114.0 L 56.0 114.0 L 55.333333333333336 114.33333333333333 L 55.0 115.0 L 55.0 116.0 L 55.333333333333336 116.66666666666667 L 56.0 117.0 L 57.0 117.0 L 58.0 117.0 L 59.0 117.0 L 60.0 117.0 L 61.0 117.0 L 62.0 117.0 L 63.0 117.0 L 64.0 117.0 L 65.0 117.0 L 66.0 117.0 L 67.0 117.0 L 68.0 117.0 L 68.5 117.0 Z" stroke="none" fill="rgb(98,98,98)" />
<path d="M 23.5 118.0 L 24.0 118.0 L 25.0 118.0 L 26.0 118.0 L 27.0 118.0 L 28.0 118.0 L 29.0 118.33333333333333 L 30.0 118.66666666666667 L 30.666666666666668 118.66666666666667 L 31.0 118.0 L 30.666666666666668 117.0 L 30.0 116.0 L 29.0 115.33333333333333 L 28.0 115.0 L 27.0 115.0 L 26.0 115.0 L 25.0 115.0 L 24.0 115.0 L 23.0 115.0 L 22.0 115.0 L 21.0 115.0 L 20.0 115.0 L 19.0 115.0 L 18.0 115.0 L 17.0 115.0 L 16.0 115.0 L 15.0 115.0 L 14.0 115.0 L 13.0 115.0 L 12.0 115.0 L 11.0 115.0 L 10.0 115.0 L 9.0 115.0 L 8.0 115.0 L 7.0 115.0 L 6.0 115.0 L 5.0 115.0 L 4.333333333333333 115.33333333333333 L 4.0 116.0 L 4.0 117.0 L 4.333333333333333 117.66666666666667 L 5.0 118.0 L 6.0 118.0 L 7.0 118.0 L 8.0 118.0 L 9.0 118.0 L 10.0 118.0 L 11.0 118.0 L 12.0 118.0 L 13.0 118.0 L 14.0 118.0 L 15.0 118.0 L 16.0 118.0 L 17.0 118.0 L 18.0 118.0 L 19.0 118.0 L 20.0 118.0 L 21.0 118.0 L 22.0 118.0 L 22.5 118.0 Z" stroke="none" fill="rgb(82,82,82)" />
<path d="M 78.5 118.0 L 79.0 118.0 L 80.0 118.0 L 81.0 118.0 L 82.0 118.0 L 83.0 118.0 L 84.0 118.0 L 85.0 118.0 L 86.0 118.0 L 87.0 118.0 L 88.0 118.0 L 89.0 118.0 L 90.0 118.0 L 91.0 118.0 L 92.0 118.0 L 93.0 118.0 L 94.0 118.0 L 95.0 118.33333333333333 L 96.0 118.66666666666667 L 97.0 119.0 L 98.0 119.33333333333333 L 99.0 119.66666666666667 L 99.66666666666667 119.66666666666667 L 100.33333333333333 119.0 L 100.66666666666667 118.0 L 100.66666666666667 117.0 L 100.0 116.0 L 99.0 115.33333333333333 L 98.0 115.0 L 97.0 115.0 L 96.0 115.0 L 95.0 115.0 L 94.0 115.0 L 93.0 115.0 L 92.0 115.0 L 91.0 115.0 L 90.0 115.0 L 89.0 115.0 L 88.0 115.0 L 87.0 115.0 L 86.0 115.0 L 85.0 115.0 L 84.0 115.0 L 83.0 115.0 L 82.0 115.0 L 81.0 115.0 L 80.0 115.0 L 79.0 115.0 L 78.0 115.0 L 77.0 115.0 L 76.0 115.0 L 75.0 115.0 L 74.0 115.0 L 73.0 115.0 L 72.0 115.0 L 71.0 115.33333333333333 L 70.0 116.0 L 69.33333333333333 117.0 L 69.0 118.0 L 69.33333333333333 118.66666666666667 L 70.0 118.66666666666667 L 71.0 118.33333333333333 L 72.0 118.0 L 73.0 118.0 L 74.0 118.0 L 75.0 118.0 L 76.0 118.0 L 77.0 118.0 L 77.5 118.0 Z" stroke="none" fill="rgb(82,82,82)" />
<path d="M 113.5 118.5 L 114.0 118.66666666666667 L 115.0 118.66666666666667 L 115.66666666666667 118.0 L 116.0 117.0 L 115.66666666666667 116.0 L 115.0 115.33333333333333 L 114.0 115.0 L 113.0 115.0 L 112.33333333333333 115.33333333333333 L 112.0 116.0 L 112.33333333333333 117.0 L 112.5 117.5 Z" stroke="none" fill="rgb(175,132,100)" />
<path d="M 40.5 119.0 L 41.0 119.0 L 42.0 119.0 L 43.0 119.0 L 44.0 119.0 L 45.0 119.0 L 45.666666666666664 118.66666666666667 L 46.0 118.0 L 45.666666666666664 117.33333333333333 L 45.0 117.0 L 44.0 117.0 L 43.0 117.0 L 42.0 117.0 L 41.0 117.0 L 40.0 117.0 L 39.0 117.0 L 38.0 117.0 L 37.0 117.0 L 36.0 117.0 L 35.0 117.0 L 34.0 117.0 L 33.0 117.0 L 32.0 117.0 L 31.333333333333332 117.33333333333333 L 31.0 118.0 L 31.333333333333332 118.66666666666667 L 32.0 119.0 L 33.0 119.0 L 34.0 119.0 L 35.0 119.0 L 36.0 119.0 L 37.0 119.0 L 38.0 119.0 L 39.0 119.0 L 39.5 119.0 Z" stroke="none" fill="rgb(93,93,93)" />
<path d="M 69.0 118.5 L 69.0 118.0 L 68.66666666666667 117.33333333333333 L 68.0 117.0 L 67.0 117.0 L 66.0 117.0 L 65.0 117.0 L 64.0 117.0 L 63.0 117.0 L 62.0 117.0 L 61.0 117.0 L 60.0 117.0 L 59.0 117.0 L 58.0 117.0 L 57.0 117.0 L 56.0 117.0 L 55.0 117.0 L 54.333333333333336 117.33333333333333 L 54.0 118.0 L 54.333333333333336 118.66666666666667 L 55.0 119.0 L 56.0 119.0 L 57.0 119.0 L 58.0 119.0 L 59.0 119.0 L 60.0 119.0 L 61.0 119.0 L 62.0 119.0 L 63.0 119.0 L 64.0 119.0 L 65.0 119.0 L 66.0 119.0 L 67.0 119.0 L 68.0 119.0 L 68.5 119.0 Z" stroke="none" fill="rgb(93,93,93)" />
<path d="M 14.5 122.0 L 15.0 122.0 L 16.0 122.0 L 17.0 122.0 L 18.0 122.0 L 19.0 122.0 L 20.0 122.0 L 21.0 122.0 L 22.0 122.0 L 23.0 122.0 L 24.0 122.0 L 25.0 122.0 L 26.0 122.0 L 27.0 122.0 L 28.0 122.0 L 29.0 122.0 L 30.0 122.0 L 31.0 122.0 L 31.666666666666668 121.66666666666667 L 32.0 121.0 L 31.666666666666668 120.0 L 31.0 119.0 L 30.0 118.33333333333333 L 29.0 118.0 L 28.0 118.0 L 27.0 118.0 L 26.0 118.0 L 25.0 118.0 L 24.0 118.0 L 23.0 118.0 L 22.0 118.0 L 21.0 118.0 L 20.0 118.0 L 19.0 118.0 L 18.0 118.0 L 17.0 118.0 L 16.0 118.0 L 15.0 118.0 L 14.0 118.0 L 13.0 118.0 L 12.0 118.0 L 11.0 118.0 L 10.0 118.0 L 9.0 118.0 L 8.0 118.0 L 7.0 118.0 L 6.0 118.0 L 5.0 118.0 L 4.333333333333333 118.33333333333333 L 4.0 119.0 L 4.0 120.0 L 4.0 121.0 L 4.333333333333333 121.66666666666667 L 5.0 122.0 L 6.0 122.0 L 7.0 122.0 L 8.0 122.0 L 9.0 122.0 L 10.0 122.0 L 11.0 122.0 L 12.0 122.0 L 13.0 122.0 L 13.5 122.0 Z" stroke="none" fill="rgb(75,75,75)" />
<path d="M 95.5 123.0 L 95.66666666666667 122.66666666666667 L 96.33333333333333 122.0 L 96.66666666666667 121.0 L 97.0 120.0 L 96.66666666666667 119.0 L 96.0 118.33333333333333 L 95.0 118.0 L 94.0 118.0 L 93.0 118.0 L 92.0 118.0 L 91.0 118.0 L 90.0 118.0 L 89.0 118.0 L 88.0 118.0 L 87.0 118.0 L 86.0 118.0 L 85.0 118.0 L 84.0 118.0 L 83.0 118.0 L 82.0 118.0 L 81.0 118.0 L 80.0 118.0 L 79.0 118.0 L 78.0 118.0 L 77.0 118.0 L 76.0 118.0 L 75.0 118.0 L 74.0 118.0 L 73.0 118.0 L 72.0 118.0 L 71.0 118.0 L 70.0 118.33333333333333 L 69.0 119.0 L 68.33333333333333 120.0 L 68.0 121.0 L 68.33333333333333 121.66666666666667 L 69.0 122.0 L 70.0 122.0 L 71.0 122.0 L 72.0 122.0 L 73.0 122.0 L 74.0 122.0 L 75.0 122.0 L 76.0 122.0 L 77.0 122.0 L 78.0 122.0 L 79.0 122.0 L 80.0 122.0 L 81.0 122.0 L 82.0 122.0 L 83.0 122.0 L 84.0 122.0 L 85.0 122.0 L 86.0 122.0 L 87.0 122.0 L 88.0 122.0 L 89.0 122.0 L 90.0 122.0 L 91.0 122.0 L 92.0 122.0 L 93.0 122.0 L 94.0 122.33333333333333 L 94.5 122.5 Z" stroke="none" fill="rgb(75,75,75)" />
<path d="M 101.5 121.5 L 102.0 121.66666666666667 L 103.0 122.0 L 104.0 122.0 L 105.0 122.0 L 106.0 122.0 L 107.0 122.0 L 108.0 122.0 L 109.0 122.0 L 110.0 122.0 L 111.0 122.0 L 112.0 121.66666666666667 L 113.0 121.0 L 113.66666666666667 120.0 L 114.0 119.0 L 113.66666666666667 118.33333333333333 L 113.0 118.0 L 112.0 118.33333333333333 L 111.0 118.66666666666667 L 110.0 119.0 L 109.0 119.0 L 108.0 119.0 L 107.0 119.0 L 106.0 119.0 L 105.0 119.0 L 104.0 119.0 L 103.0 118.66666666666667 L 102.0 118.33333333333333 L 101.0 118.0 L 100.33333333333333 118.33333333333333 L 100.0 119.0 L 100.0 120.0 L 100.33333333333333 120.66666666666667 L 100.5 121.0 Z" stroke="none" fill="rgb(65,65,66)" />
<path d="M 111.5 124.0 L 112.0 124.0 L 113.0 124.0 L 114.0 124.0 L 115.0 124.0 L 116.0 124.0 L 116.66666666666667 123.66666666666667 L 117.0 123.0 L 117.0 122.0 L 117.0 121.0 L 117.0 120.0 L 116.66666666666667 119.0 L 116.0 118.33333333333333 L 115.0 118.33333333333333 L 114.0 119.0 L 113.0 120.0 L 112.0 121.0 L 111.0 121.66666666666667 L 110.0 122.0 L 109.0 122.0 L 108.0 122.0 L 107.0 122.0 L 106.0 122.0 L 105.0 122.0 L 104.0 122.0 L 103.0 121.66666666666667 L 102.0 121.33333333333333 L 101.0 120.66666666666667 L 100.0 120.0 L 99.0 119.33333333333333 L 98.0 119.0 L 97.33333333333333 119.33333333333333 L 96.66666666666667 120.0 L 96.33333333333333 121.0 L 96.0 122.0 L 96.0 123.0 L 96.33333333333333 123.66666666666667 L 97.0 124.0 L 98.0 124.0 L 99.0 124.0 L 100.0 124.0 L 101.0 124.0 L 102.0 124.0 L 103.0 124.0 L 104.0 124.0 L 105.0 124.0 L 106.0 124.0 L 107.0 124.0 L 108.0 124.0 L 109.0 124.0 L 110.0 124.0 L 110.5 124.0 Z" stroke="none" fill="rgb(98,98,98)" />
<path d="M 33.5 121.0 L 34.0 121.0 L 35.0 121.0 L 36.0 121.0 L 37.0 121.0 L 38.0 121.0 L 39.0 121.0 L 40.0 121.0 L 41.0 121.0 L 42.0 121.0 L 43.0 121.0 L 44.0 121.0 L 45.0 121.0 L 45.666666666666664 120.66666666666667 L 46.0 120.0 L 45.666666666666664 119.33333333333333 L 45.0 119.0 L 44.0 119.0 L 43.0 119.0 L 42.0 119.0 L 41.0 119.0 L 40.0 119.0 L 39.0 119.0 L 38.0 119.0 L 37.0 119.0 L 36.0 119.0 L 35.0 119.0 L 34.0 119.0 L 33.0 119.0 L 32.0 119.0 L 31.333333333333332 119.33333333333333 L 31.333333333333332 120.0 L 32.0 120.66666666666667 L 32.5 121.0 Z" stroke="none" fill="rgb(88,88,88)" />
<path d="M 62.5 121.0 L 63.0 121.0 L 64.0 121.0 L 65.0 121.0 L 66.0 121.0 L 67.0 121.0 L 68.0 120.66666666666667 L 68.66666666666667 120.0 L 68.66666666666667 119.33333333333333 L 68.0 119.0 L 67.0 119.0 L 66.0 119.0 L 65.0 119.0 L 64.0 119.0 L 63.0 119.0 L 62.0 119.0 L 61.0 119.0 L 60.0 119.0 L 59.0 119.0 L 58.0 119.0 L 57.0 119.0 L 56.0 119.0 L 55.0 119.0 L 54.333333333333336 119.33333333333333 L 54.0 120.0 L 54.333333333333336 120.66666666666667 L 55.0 121.0 L 56.0 121.0 L 57.0 121.0 L 58.0 121.0 L 59.0 121.0 L 60.0 121.0 L 61.0 121.0 L 61.5 121.0 Z" stroke="none" fill="rgb(88,88,88)" />
<path d="M 33.5 123.0 L 34.0 123.0 L 35.0 123.0 L 36.0 123.0 L 37.0 123.0 L 38.0 123.0 L 39.0 123.0 L 40.0 123.0 L 41.0 123.0 L 42.0 123.0 L 43.0 123.0 L 44.0 123.0 L 45.0 123.0 L 45.666666666666664 122.66666666666667 L 46.0 122.0 L 45.666666666666664 121.33333333333333 L 45.0 121.0 L 44.0 121.0 L 43.0 121.0 L 42.0 121.0 L 41.0 121.0 L 40.0 121.0 L 39.0 121.0 L 38.0 121.0 L 37.0 121.0 L 36.0 121.0 L 35.0 121.0 L 34.0 121.0 L 33.0 121.0 L 32.333333333333336 121.33333333333333 L 32.0 122.0 L 32.333333333333336 122.66666666666667 L 32.5 123.0 Z" stroke="none" fill="rgb(82,82,82)" />
<path d="M 54.5 123.0 L 55.0 123.0 L 56.0 123.0 L 57.0 123.0 L 58.0 123.0 L 59.0 123.0 L 60.0 123.0 L 61.0 123.0 L 62.0 123.0 L 63.0 123.0 L 64.0 123.0 L 65.0 123.0 L 66.0 123.0 L 67.0 123.0 L 67.66666666666667 122.66666666666667 L 68.0 122.0 L 67.66666666666667 121.33333333333333 L 67.0 121.0 L 66.0 121.0 L 65.0 121.0 L 64.0 121.0 L 63.0 121.0 L 62.0 121.0 L 61.0 121.0 L 60.0 121.0 L 59.0 121.0 L 58.0 121.0 L 57.0 121.0 L 56.0 121.0 L 55.0 121.0 L 54.333333333333336 121.33333333333333 L 54.0 122.0 L 54.0 122.5 Z" stroke="none" fill="rgb(82,82,82)" />
<path d="M 10.5 124.0 L 11.0 124.0 L 12.0 124.0 L 13.0 124.0 L 14.0 124.0 L 15.0 124.0 L 16.0 124.0 L 17.0 124.0 L 18.0 124.0 L 19.0 124.0 L 20.0 124.0 L 21.0 124.0 L 22.0 124.0 L 23.0 124.0 L 24.0 124.0 L 25.0 124.0 L 26.0 124.0 L 27.0 124.0 L 28.0 124.0 L 29.0 124.0 L 30.0 124.0 L 31.0 124.0 L 31.666666666666668 123.66666666666667 L 32.0 123.0 L 31.666666666666668 122.33333333333333 L 31.0 122.0 L 30.0 122.0 L 29.0 122.0 L 28.0 122.0 L 27.0 122.0 L 26.0 122.0 L 25.0 122.0 L 24.0 122.0 L 23.0 122.0 L 22.0 122.0 L 21.0 122.0 L 20.0 122.0 L 19.0 122.0 L 18.0 122.0 L 17.0 122.0 L 16.0 122.0 L 15.0 122.0 L 14.0 122.0 L 13.0 122.0 L 12.0 122.0 L 11.0 122.0 L 10.0 122.0 L 9.0 122.0 L 8.0 122.0 L 7.0 122.0 L 6.0 122.0 L 5.0 122.0 L 4.333333333333333 122.33333333333333 L 4.0 123.0 L 4.333333333333333 123.66666666666667 L 5.0 124.0 L 6.0 124.0 L 7.0 124.0 L 8.0 124.0 L 9.0 124.0 L 9.5 124.0 Z" stroke="none" fill="rgb(65,65,66)" />
<path d="M 91.5 124.0 L 92.0 124.0 L 93.0 124.0 L 94.0 124.0 L 94.66666666666667 123.66666666666667 L 95.0 123.0 L 94.66666666666667 122.33333333333333 L 94.0 122.0 L 93.0 122.0 L 92.0 122.0 L 91.0 122.0 L 90.0 122.0 L 89.0 122.0 L 88.0 122.0 L 87.0 122.0 L 86.0 122.0 L 85.0 122.0 L 84.0 122.0 L 83.0 122.0 L 82.0 122.0 L 81.0 122.0 L 80.0 122.0 L 79.0 122.0 L 78.0 122.0 L 77.0 122.0 L 76.0 122.0 L 75.0 122.0 L 74.0 122.0 L 73.0 122.0 L 72.0 122.0 L 71.0 122.0 L 70.0 122.0 L 69.0 122.0 L 68.33333333333333 122.33333333333333 L 68.0 123.0 L 68.33333333333333 123.66666666666667 L 69.0 124.0 L 70.0 124.0 L 71.0 124.0 L 72.0 124.0 L 73.0 124.0 L 74.0 124.0 L 75.0 124.0 L 76.0 124.0 L 77.0 124.0 L 78.0 124.0 L 79.0 124.0 L 80.0 124.0 L 81.0 124.0 L 82.0 124.0 L 83.0 124.0 L 84.0 124.0 L 85.0 124.0 L 86.0 124.0 L 87.0 124.0 L 88.0 124.0 L 89.0 124.0 L 90.0 124.0 L 90.5 124.0 Z" stroke="none" fill="rgb(65,65,66)" />
</svg>
