<?xml version="1.0" encoding="UTF-8" standalone="no"?>
<!DOCTYPE svg PUBLIC "-//W3C//DTD SVG 1.1//EN"
"http://www.w3.org/Graphics/SVG/1.1/DTD/svg11.dtd">
<svg width="128" height="128" xmlns="http://www.w3.org/2000/svg" version="1.1">
<path d="M 108.5 128.0 L 109.0 128.0 L 110.0 128.0 L 111.0 128.0 L 112.0 128.0 L 113.0 128.0 L 114.0 128.0 L 115.0 128.0 L 116.0 128.0 L 117.0 128.0 L 118.0 128.0 L 119.0 128.0 L 120.0 128.0 L 121.0 128.0 L 122.0 128.0 L 123.0 128.0 L 124.0 128.0 L 125.0 128.0 L 126.0 128.0 L 127.0 128.0 L 127.66666666666667 127.66666666666667 L 128.0 127.0 L 128.0 126.0 L 128.0 125.0 L 128.0 124.0 L 128.0 123.0 L 128.0 122.0 L 128.0 121.0 L 128.0 120.0 L 128.0 119.0 L 128.0 118.0 L 128.0 117.0 L 128.0 116.0 L 128.0 115.0 L 128.0 114.0 L 128.0 113.0 L 128.0 112.0 L 128.0 111.0 L 128.0 110.0 L 128.0 109.0 L 128.0 108.0 L 128.0 107.0 L 128.0 106.0 L 128.0 105.0 L 128.0 104.0 L 128.0 103.0 L 128.0 102.0 L 128.0 101.0 L 128.0 100.0 L 128.0 99.0 L 128.0 98.0 L 128.0 97.0 L 128.0 96.0 L 128.0 95.0 L 128.0 94.0 L 128.0 93.0 L 128.0 92.0 L 128.0 91.0 L 128.0 90.0 L 128.0 89.0 L 128.0 88.0 L 128.0 87.0 L 128.0 86.0 L 128.0 85.0 L 128.0 84.0 L 128.0 83.0 L 128.0 82.0 L 128.0 81.0 L 128.0 80.0 L 128.0 79.0 L 128.0 78.0 L 128.0 77.0 L 128.0 76.0 L 128.0 75.0 L 128.0 74.0 L 128.0 73.0 L 128.0 72.0 L 128.0 71.0 L 128.0 70.0 L 128.0 69.0 L 128.0 68.0 L 128.0 67.0 L 128.0 66.0 L 128.0 65.0 L 128.0 64.0 L 128.0 63.0 L 128.0 62.0 L 128.0 61.0 L 128.0 60.0 L 128.0 59.0 L 128.0 58.0 L 128.0 57.0 L 128.0 56.0 L 128.0 55.0 L 128.0 54.0 L 128.0 53.0 L 128.0 52.0 L 128.0 51.0 L 128.0 50.0 L 128.0 49.0 L 128.0 48.0 L 128.0 47.0 L 128.0 46.0 L 128.0 45.0 L 128.0 44.0 L 128.0 43.0 L 128.0 42.0 L 128.0 41.0 L 128.0 40.0 L 128.0 39.0 L 128.0 38.0 L 128.0 37.0 L 128.0 36.0 L 128.0 35.0 L 128.0 34.0 L 128.0 33.0 L 128.0 32.0 L 128.0 31.0 L 128.0 30.0 L 128.0 29.0 L 128.0 28.0 L 128.0 27.0 L 128.0 26.0 L 128.0 25.0 L 128.0 24.0 L 128.0 23.0 L 128.0 22.0 L 128.0 21.0 L 128.0 20.0 L 128.0 19.0 L 128.0 18.0 L 128.0 17.0 L 128.0 16.0 L 128.0 15.0 L 128.0 14.0 L 128.0 13.0 L 128.0 12.0 L 128.0 11.0 L 128.0 10.0 L 128.0 9.0 L 128.0 8.0 L 128.0 7.0 L 128.0 6.0 L 128.0 5.0 L 128.0 4.0 L 128.0 3.0 L 128.0 2.0 L 128.0 1.0 L 127.66666666666667 0.3333333333333333 L 127.0 0.0 L 126.0 0.0 L 125.0 0.0 L 124.0 0.0 L 123.0 0.0 L 122.0 0.0 L 121.0 0.0 L 120.0 0.0 L 119.0 0.0 L 118.0 0.0 L 117.0 0.0 L 116.0 0.0 L 115.0 0.0 L 114.0 0.0 L 113.0 0.0 L 112.0 0.0 L 111.0 0.0 L 110.0 0.0 L 109.0 0.0 L 108.0 0.0 L 107.0 0.0 L 106.0 0.0 L 105.0 0.0 L 104.0 0.0 L 103.0 0.0 L 102.0 0.0 L 101.0 0.0 L 100.0 0.0 L 99.0 0.0 L 98.0 0.0 L 97.0 0.0 L 96.0 0.0 L 95.0 0.0 L 94.0 0.0 L 93.0 0.0 L 92.0 0.0 L 91.0 0.0 L 90.0 0.0 L 89.0 0.0 L 88.0 0.0 L 87.0 0.0 L 86.0 0.0 L 85.0 0.0 L 84.0 0.0 L 83.0 0.0 L 82.0 0.0 L 81.0 0.0 L 80.0 0.0 L 79.0 0.0 L 78.0 0.0 L 77.0 0.0 L 76.0 0.0 L 75.0 0.0 L 74.0 0.0 L 73.0 0.0 L 72.0 0.0 L 71.0 0.0 L 70.0 0.0 L 69.0 0.0 L 68.0 0.0 L 67.0 0.0 L 66.0 0.0 L 65.0 0.0 L 64.0 0.0 L 63.0 0.0 L 62.0 0.0 L 61.0 0.0 L 60.0 0.0 L 59.0 0.0 L 58.0 0.0 L 57.0 0.0 L 56.0 0.0 L 55.0 0.0 L 54.0 0.0 L 53.0 0.0 L 52.0 0.0 L 51.0 0.0 L 50.0 0.0 L 49.0 0.0 L 48.0 0.0 L 47.0 0.0 L 46.0 0.0 L 45.0 0.0 L 44.0 0.0 L 43.0 0.0 L 42.0 0.0 L 41.0 0.0 L 40.0 0.0 L 39.0 0.0 L 38.0 0.0 L 37.0 0.0 L 36.0 0.0 L 35.0 0.0 L 34.0 0.0 L 33.0 0.0 L 32.0 0.0 L 31.0 0.0 L 30.0 0.0 L 29.0 0.0 L 28.0 0.0 L 27.0 0.0 L 26.0 0.0 L 25.0 0.0 L 24.0 0.0 L 23.0 0.0 L 22.0 0.0 L 21.0 0.0 L 20.0 0.0 L 19.0 0.0 L 18.0 0.0 L 17.0 0.0 L 16.0 0.0 L 15.0 0.0 L 14.0 0.0 L 13.0 0.0 L 12.0 0.0 L 11.0 0.0 L 10.0 0.0 L 9.0 0.0 L 8.0 0.0 L 7.0 0.0 L 6.0 0.0 L 5.0 0.0 L 4.0 0.0 L 3.0 0.0 L 2.0 0.0 L 1.0 0.0 L 0.3333333333333333 0.3333333333333333 L 0.0 1.0 L 0.0 2.0 L 0.0 3.0 L 0.0 4.0 L 0.0 5.0 L 0.0 6.0 L 0.0 7.0 L 0.0 8.0 L 0.0 9.0 L 0.0 10.0 L 0.0 11.0 L 0.0 12.0 L 0.0 13.0 L 0.0 14.0 L 0.0 15.0 L 0.0 16.0 L 0.0 17.0 L 0.0 18.0 L 0.0 19.0 L 0.0 20.0 L 0.0 21.0 L 0.0 22.0 L 0.0 23.0 L 0.0 24.0 L 0.0 25.0 L 0.0 26.0 L 0.0 27.0 L 0.0 28.0 L 0.0 29.0 L 0.0 30.0 L 0.0 31.0 L 0.0 32.0 L 0.0 33.0 L 0.0 34.0 L 0.0 35.0 L 0.0 36.0 L 0.0 37.0 L 0.0 38.0 L 0.0 39.0 L 0.0 40.0 L 0.0 41.0 L 0.0 42.0 L 0.0 43.0 L 0.0 44.0 L 0.0 45.0 L 0.0 46.0 L 0.0 47.0 L 0.0 48.0 L 0.0 49.0 L 0.0 50.0 L 0.0 51.0 L 0.0 52.0 L 0.0 53.0 L 0.0 54.0 L 0.0 55.0 L 0.0 56.0 L 0.0 57.0 L 0.0 58.0 L 0.0 59.0 L 0.0 60.0 L 0.0 61.0 L 0.0 62.0 L 0.0 63.0 L 0.0 64.0 L 0.0 65.0 L 0.0 66.0 L 0.0 67.0 L 0.0 68.0 L 0.0 69.0 L 0.0 70.0 L 0.0 71.0 L 0.0 72.0 L 0.0 73.0 L 0.0 74.0 L 0.0 75.0 L 0.0 76.0 L 0.0 77.0 L 0.0 78.0 L 0.0 79.0 L 0.0 80.0 L 0.0 81.0 L 0.0 82.0 L 0.0 83.0 L 0.0 84.0 L 0.0 85.0 L 0.0 86.0 L 0.0 87.0 L 0.0 88.0 L 0.0 89.0 L 0.0 90.0 L 0.0 91.0 L 0.0 92.0 L 0.0 93.0 L 0.0 94.0 L 0.0 95.0 L 0.0 96.0 L 0.0 97.0 L 0.0 98.0 L 0.0 99.0 L 0.0 100.0 L 0.0 101.0 L 0.0 102.0 L 0.0 103.0 L 0.0 104.0 L 0.0 105.0 L 0.0 106.0 L 0.0 107.0 L 0.0 108.0 L 0.0 109.0 L 0.0 110.0 L 0.0 111.0 L 0.0 112.0 L 0.0 113.0 L 0.0 114.0 L 0.0 115.0 L 0.0 116.0 L 0.0 117.0 L 0.0 118.0 L 0.0 119.0 L 0.0 120.0 L 0.0 121.0 L 0.0 122.0 L 0.0 123.0 L 0.0 124.0 L 0.0 125.0 L 0.0 126.0 L 0.0 127.0 L 0.3333333333333333 127.66666666666667 L 1.0 128.0 L 2.0 128.0 L 3.0 128.0 L 4.0 128.0 L 5.0 128.0 L 6.0 128.0 L 7.0 128.0 L 8.0 128.0 L 9.0 128.0 L 10.0 128.0 L 11.0 128.0 L 12.0 128.0 L 13.0 128.0 L 14.0 128.0 L 15.0 128.0 L 16.0 128.0 L 17.0 128.0 L 18.0 128.0 L 19.0 128.0 L 20.0 128.0 L 21.0 128.0 L 22.0 128.0 L 23.0 128.0 L 24.0 128.0 L 25.0 128.0 L 26.0 128.0 L 27.0 128.0 L 28.0 128.0 L 29.0 128.0 L 30.0 128.0 L 31.0 128.0 L 32.0 128.0 L 33.0 128.0 L 34.0 128.0 L 35.0 128.0 L 36.0 128.0 L 37.0 128.0 L 38.0 128.0 L 39.0 128.0 L 40.0 128.0 L 41.0 128.0 L 42.0 128.0 L 43.0 128.0 L 44.0 128.0 L 45.0 128.0 L 46.0 128.0 L 47.0 128.0 L 48.0 128.0 L 49.0 128.0 L 50.0 128.0 L 51.0 128.0 L 52.0 128.0 L 53.0 128.0 L 54.0 128.0 L 55.0 128.0 L 56.0 128.0 L 57.0 128.0 L 58.0 128.0 L 59.0 128.0 L 60.0 128.0 L 61.0 128.0 L 62.0 128.0 L 63.0 128.0 L 64.0 128.0 L 65.0 128.0 L 66.0 128.0 L 67.0 128.0 L 68.0 128.0 L 69.0 128.0 L 70.0 128.0 L 71.0 128.0 L 72.0 128.0 L 73.0 128.0 L 74.0 128.0 L 75.0 128.0 L 76.0 128.0 L 77.0 128.0 L 78.0 128.0 L 79.0 128.0 L 80.0 128.0 L 81.0 128.0 L 82.0 128.0 L 83.0 128.0 L 84.0 128.0 L 85.0 128.0 L 86.0 128.0 L 87.0 128.0 L 88.0 128.0 L 89.0 128.0 L 90.0 128.0 L 91.0 128.0 L 92.0 128.0 L 93.0 128.0 L 94.0 128.0 L 95.0 128.0 L 96.0 128.0 L 97.0 128.0 L 98.0 128.0 L 99.0 128.0 L 100.0 128.0 L 101.0 128.0 L 102.0 128.0 L 103.0 128.0 L 104.0 128.0 L 105.0 128.0 L 106.0 128.0 L 107.0 128.0 L 107.5 128.0 Z" stroke="none" fill="rgb(0,0,0)" />
<path d="M 26.5 117.0 L 27.0 117.0 L 28.0 117.0 L 29.0 117.0 L 30.0 117.0 L 31.0 117.0 L 32.0 117.0 L 33.0 117.0 L 34.0 117.0 L 35.0 117.0 L 36.0 117.0 L 37.0 117.0 L 38.0 117.0 L 39.0 117.0 L 40.0 117.0 L 41.0 117.0 L 42.0 117.0 L 43.0 117.0 L 44.0 117.0 L 45.0 117.0 L 46.0 117.0 L 47.0 117.0 L 48.0 117.0 L 49.0 117.0 L 50.0 117.0 L 51.0 117.0 L 52.0 117.0 L 53.0 117.0 L 54.0 117.0 L 55.0 117.0 L 56.0 117.0 L 57.0 117.0 L 58.0 117.0 L 59.0 117.0 L 60.0 117.0 L 61.0 117.0 L 62.0 117.0 L 63.0 117.0 L 64.0 117.0 L 65.0 117.0 L 66.0 117.0 L 67.0 117.0 L 68.0 117.0 L 69.0 117.0 L 70.0 117.0 L 71.0 117.0 L 72.0 117.0 L 73.0 117.0 L 74.0 117.0 L 75.0 117.0 L 76.0 117.0 L 77.0 117.0 L 78.0 117.0 L 79.0 117.0 L 80.0 117.0 L 81.0 117.0 L 82.0 117.0 L 83.0 117.0 L 84.0 117.0 L 85.0 117.0 L 86.0 117.0 L 87.0 117.0 L 88.0 117.0 L 89.0 117.0 L 90.0 117.0 L 91.0 117.0 L 92.0 117.0 L 93.0 117.0 L 94.0 117.0 L 95.0 117.0 L 96.0 117.0 L 97.0 117.0 L 98.0 117.0 L 99.0 117.0 L 100.0 117.0 L 101.0 117.0 L 102.0 117.0 L 103.0 117.0 L 104.0 117.0 L 105.0 117.0 L 106.0 117.0 L 107.0 117.0 L 108.0 117.0 L 109.0 117.0 L 110.0 117.0 L 111.0 117.0 L 112.0 117.0 L 113.0 116.66666666666667 L 114.0 116.0 L 115.0 115.0 L 116.0 114.0 L 116.66666666666667 113.0 L 117.0 112.0 L 117.0 111.0 L 117.0 110.0 L 117.0 109.0 L 117.0 108.0 L 117.0 107.0 L 117.0 106.0 L 117.0 105.0 L 117.0 104.0 L 117.0 103.0 L 117.0 102.0 L 117.0 101.0 L 117.0 100.0 L 117.0 99.0 L 117.0 98.0 L 117.0 97.0 L 117.0 96.0 L 117.0 95.0 L 117.0 94.0 L 117.0 93.0 L 117.0 92.0 L 117.0 91.0 L 117.0 90.0 L 117.0 89.0 L 117.0 88.0 L 117.0 87.0 L 117.0 86.0 L 117.0 85.0 L 117.0 84.0 L 117.0 83.0 L 117.0 82.0 L 117.0 81.0 L 117.0 80.0 L 117.0 79.0 L 117.0 78.0 L 117.0 77.0 L 117.0 76.0 L 117.0 75.0 L 117.0 74.0 L 117.0 73.0 L 117.0 72.0 L 117.0 71.0 L 117.0 70.0 L 117.0 69.0 L 117.0 68.0 L 117.0 67.0 L 117.0 66.0 L 117.0 65.0 L 117.0 64.0 L 117.0 63.0 L 117.0 62.0 L 117.0 61.0 L 117.0 60.0 L 117.0 59.0 L 117.0 58.0 L 117.0 57.0 L 117.0 56.0 L 117.0 55.0 L 117.0 54.0 L 117.0 53.0 L 117.0 52.0 L 117.0 51.0 L 117.0 50.0 L 117.0 49.0 L 117.0 48.0 L 117.0 47.0 L 117.0 46.0 L 117.0 45.0 L 117.0 44.0 L 117.0 43.0 L 117.0 42.0 L 117.0 41.0 L 117.0 40.0 L 117.0 39.0 L 117.0 38.0 L 117.0 37.0 L 117.0 36.0 L 117.0 35.0 L 117.0 34.0 L 117.0 33.0 L 117.0 32.0 L 117.0 31.0 L 117.0 30.0 L 117.0 29.0 L 117.0 28.0 L 117.0 27.0 L 117.0 26.0 L 117.0 25.0 L 117.0 24.0 L 117.0 23.0 L 117.0 22.0 L 117.0 21.0 L 117.0 20.0 L 117.0 19.0 L 117.0 18.0 L 117.0 17.0 L 117.0 16.0 L 117.0 15.0 L 117.0 14.0 L 117.0 13.0 L 117.0 12.0 L 117.0 11.0 L 117.0 10.0 L 117.0 9.0 L 116.66666666666667 8.0 L 116.33333333333333 7.0 L 115.66666666666667 6.0 L 115.0 5.333333333333333 L 114.0 4.666666666666667 L 113.0 4.333333333333333 L 112.0 4.0 L 111.0 4.0 L 110.0 4.0 L 109.0 4.0 L 108.0 4.0 L 107.0 4.0 L 106.0 4.0 L 105.0 4.0 L 104.0 4.0 L 103.0 4.0 L 102.0 4.0 L 101.0 4.0 L 100.0 4.0 L 99.0 4.0 L 98.0 4.0 L 97.0 4.0 L 96.0 4.0 L 95.0 4.0 L 94.0 4.0 L 93.0 4.0 L 92.0 4.0 L 91.0 4.0 L 90.0 4.0 L 89.0 4.0 L 88.0 4.0 L 87.0 4.0 L 86.0 4.0 L 85.0 4.0 L 84.0 4.0 L 83.0 4.0 L 82.0 4.0 L 81.0 4.0 L 80.0 4.0 L 79.0 4.0 L 78.0 4.0 L 77.0 4.0 L 76.0 4.0 L 75.0 4.0 L 74.0 4.0 L 73.0 4.0 L 72.0 4.0 L 71.0 4.0 L 70.0 4.0 L 69.0 4.0 L 68.0 4.0 L 67.0 4.0 L 66.0 4.0 L 65.0 4.0 L 64.0 4.0 L 63.0 4.0 L 62.0 4.0 L 61.0 4.0 L 60.0 4.0 L 59.0 4.0 L 58.0 4.0 L 57.0 4.0 L 56.0 4.0 L 55.0 4.0 L 54.0 4.0 L 53.0 4.0 L 52.0 4.0 L 51.0 4.0 L 50.0 4.0 L 49.0 4.0 L 48.0 4.0 L 47.0 4.0 L 46.0 4.0 L 45.0 4.0 L 44.0 4.0 L 43.0 4.0 L 42.0 4.0 L 41.0 4.0 L 40.0 4.0 L 39.0 4.0 L 38.0 4.0 L 37.0 4.0 L 36.0 4.0 L 35.0 4.0 L 34.0 4.0 L 33.0 4.0 L 32.0 4.0 L 31.0 4.0 L 30.0 4.0 L 29.0 4.0 L 28.0 4.0 L 27.0 4.0 L 26.0 4.0 L 25.0 4.0 L 24.0 4.0 L 23.0 4.0 L 22.0 4.0 L 21.0 4.0 L 20.0 4.0 L 19.0 4.0 L 18.0 4.0 L 17.0 4.0 L 16.0 4.0 L 15.0 4.0 L 14.0 4.0 L 13.0 4.0 L 12.0 4.0 L 11.0 4.0 L 10.0 4.0 L 9.0 4.0 L 8.0 4.0 L 7.0 4.333333333333333 L 6.0 5.0 L 5.0 6.0 L 4.333333333333333 7.0 L 4.0 8.0 L 4.0 9.0 L 4.0 10.0 L 4.0 11.0 L 4.0 12.0 L 4.0 13.0 L 4.0 14.0 L 4.0 15.0 L 4.0 16.0 L 4.0 17.0 L 4.0 18.0 L 4.0 19.0 L 4.0 20.0 L 4.0 21.0 L 4.0 22.0 L 4.0 23.0 L 4.0 24.0 L 4.0 25.0 L 4.0 26.0 L 4.0 27.0 L 4.0 28.0 L 4.0 29.0 L 4.0 30.0 L 4.0 31.0 L 4.0 32.0 L 4.0 33.0 L 4.0 34.0 L 4.0 35.0 L 4.0 36.0 L 4.0 37.0 L 4.0 38.0 L 4.0 39.0 L 4.0 40.0 L 4.0 41.0 L 4.0 42.0 L 4.0 43.0 L 4.0 44.0 L 4.0 45.0 L 4.0 46.0 L 4.0 47.0 L 4.0 48.0 L 4.0 49.0 L 4.0 50.0 L 4.0 51.0 L 4.0 52.0 L 4.0 53.0 L 4.0 54.0 L 4.0 55.0 L 4.0 56.0 L 4.0 57.0 L 4.0 58.0 L 4.0 59.0 L 4.0 60.0 L 4.0 61.0 L 4.0 62.0 L 4.0 63.0 L 4.0 64.0 L 4.0 65.0 L 4.0 66.0 L 4.0 67.0 L 4.0 68.0 L 4.0 69.0 L 4.0 70.0 L 4.0 71.0 L 4.0 72.0 L 4.0 73.0 L 4.0 74.0 L 4.0 75.0 L 4.0 76.0 L 4.0 77.0 L 4.0 78.0 L 4.0 79.0 L 4.0 80.0 L 4.0 81.0 L 4.0 82.0 L 4.0 83.0 L 4.0 84.0 L 4.0 85.0 L 4.0 86.0 L 4.0 87.0 L 4.0 88.0 L 4.0 89.0 L 4.0 90.0 L 4.0 91.0 L 4.0 92.0 L 4.0 93.0 L 4.0 94.0 L 4.0 95.0 L 4.0 96.0 L 4.0 97.0 L 4.0 98.0 L 4.0 99.0 L 4.0 100.0 L 4.0 101.0 L 4.0 102.0 L 4.0 103.0 L 4.0 104.0 L 4.0 105.0 L 4.0 106.0 L 4.0 107.0 L 4.0 108.0 L 4.0 109.0 L 4.0 110.0 L 4.0 111.0 L 4.333333333333333 112.0 L 4.666666666666667 113.0 L 5.0 114.0 L 5.333333333333333 115.0 L 6.0 115.66666666666667 L 7.0 116.0 L 8.0 116.33333333333333 L 9.0 116.66666666666667 L 10.0 117.0 L 11.0 117.0 L 12.0 117.0 L 13.0 117.0 L 14.0 117.0 L 15.0 117.0 L 16.0 117.0 L 17.0 117.0 L 18.0 117.0 L 19.0 117.0 L 20.0 117.0 L 21.0 117.0 L 22.0 117.0 L 23.0 117.0 L 24.0 117.0 L 25.0 117.0 L 25.5 117.0 Z" stroke="none" fill="rgb(140,175,191)" />
<path d="M 123.0 121.5 L 123.33333333333333 121.0 L 123.66666666666667 120.0 L 124.0 119.0 L 124.0 118.0 L 124.0 117.0 L 124.0 116.0 L 124.0 115.0 L 124.0 114.0 L 124.0 113.0 L 124.0 112.0 L 124.0 111.0 L 124.0 110.0 L 124.0 109.0 L 124.0 108.0 L 124.0 107.0 L 124.0 106.0 L 124.0 105.0 L 124.0 104.0 L 124.0 103.0 L 124.0 102.0 L 124.0 101.0 L 124.0 100.0 L 124.0 99.0 L 124.0 98.0 L 124.0 97.0 L 124.0 96.0 L 124.0 95.0 L 124.0 94.0 L 124.0 93.0 L 124.0 92.0 L 124.0 91.0 L 124.0 90.0 L 124.0 89.0 L 124.0 88.0 L 124.0 87.0 L 124.0 86.0 L 124.0 85.0 L 124.0 84.0 L 124.0 83.0 L 124.0 82.0 L 124.0 81.0 L 124.0 80.0 L 124.0 79.0 L 124.0 78.0 L 124.0 77.0 L 124.0 76.0 L 124.0 75.0 L 124.0 74.0 L 124.0 73.0 L 124.0 72.0 L 124.0 71.0 L 124.0 70.0 L 124.0 69.0 L 124.0 68.0 L 124.0 67.0 L 124.0 66.0 L 124.0 65.0 L 124.0 64.0 L 124.0 63.0 L 124.0 62.0 L 124.0 61.0 L 124.0 60.0 L 124.0 59.0 L 124.0 58.0 L 124.0 57.0 L 124.0 56.0 L 124.0 55.0 L 124.0 54.0 L 124.0 53.0 L 124.0 52.0 L 124.0 51.0 L 124.0 50.0 L 124.0 49.0 L 124.0 48.0 L 124.0 47.0 L 124.0 46.0 L 124.0 45.0 L 124.0 44.0 L 124.0 43.0 L 124.0 42.0 L 124.0 41.0 L 124.0 40.0 L 124.0 39.0 L 124.0 38.0 L 124.0 37.0 L 124.0 36.0 L 124.0 35.0 L 124.0 34.0 L 124.0 33.0 L 124.0 32.0 L 124.0 31.0 L 124.0 30.0 L 124.0 29.0 L 124.0 28.0 L 124.0 27.0 L 124.0 26.0 L 124.0 25.0 L 124.0 24.0 L 124.0 23.0 L 124.0 22.0 L 124.0 21.0 L 124.0 20.0 L 124.0 19.0 L 124.0 18.0 L 124.0 17.0 L 124.0 16.0 L 124.0 15.0 L 124.0 14.0 L 124.0 13.0 L 124.0 12.0 L 124.0 11.0 L 124.0 10.0 L 124.0 9.0 L 123.66666666666667 8.0 L 123.33333333333333 7.0 L 122.66666666666667 6.0 L 122.0 5.333333333333333 L 121.0 4.666666666666667 L 120.0 4.333333333333333 L 119.0 4.0 L 118.0 4.0 L 117.0 4.0 L 116.0 4.0 L 115.33333333333333 4.333333333333333 L 115.0 5.0 L 115.33333333333333 6.0 L 115.66666666666667 7.0 L 116.33333333333333 8.0 L 116.66666666666667 9.0 L 117.0 10.0 L 117.0 11.0 L 117.0 12.0 L 117.0 13.0 L 117.0 14.0 L 117.0 15.0 L 117.0 16.0 L 117.0 17.0 L 117.0 18.0 L 117.0 19.0 L 117.0 20.0 L 117.0 21.0 L 117.0 22.0 L 117.0 23.0 L 117.0 24.0 L 117.0 25.0 L 117.0 26.0 L 117.0 27.0 L 117.0 28.0 L 117.0 29.0 L 117.0 30.0 L 117.0 31.0 L 117.0 32.0 L 117.0 33.0 L 117.0 34.0 L 117.0 35.0 L 117.0 36.0 L 117.0 37.0 L 117.0 38.0 L 117.0 39.0 L 117.0 40.0 L 117.0 41.0 L 117.0 42.0 L 117.0 43.0 L 117.0 44.0 L 117.0 45.0 L 117.0 46.0 L 117.0 47.0 L 117.0 48.0 L 117.0 49.0 L 117.0 50.0 L 117.0 51.0 L 117.0 52.0 L 117.0 53.0 L 117.0 54.0 L 117.0 55.0 L 117.0 56.0 L 117.0 57.0 L 117.0 58.0 L 117.0 59.0 L 117.0 60.0 L 117.0 61.0 L 117.0 62.0 L 117.0 63.0 L 117.0 64.0 L 117.0 65.0 L 117.0 66.0 L 117.0 67.0 L 117.0 68.0 L 117.0 69.0 L 117.0 70.0 L 117.0 71.0 L 117.0 72.0 L 117.0 73.0 L 117.0 74.0 L 117.0 75.0 L 117.0 76.0 L 117.0 77.0 L 117.0 78.0 L 117.0 79.0 L 117.0 80.0 L 117.0 81.0 L 117.0 82.0 L 117.0 83.0 L 117.0 84.0 L 117.0 85.0 L 117.0 86.0 L 117.0 87.0 L 117.0 88.0 L 117.0 89.0 L 117.0 90.0 L 117.0 91.0 L 117.0 92.0 L 117.0 93.0 L 117.0 94.0 L 117.0 95.0 L 117.0 96.0 L 117.0 97.0 L 117.0 98.0 L 117.0 99.0 L 117.0 100.0 L 117.0 101.0 L 117.0 102.0 L 117.0 103.0 L 117.0 104.0 L 117.0 105.0 L 117.0 106.0 L 117.0 107.0 L 117.0 108.0 L 117.0 109.0 L 117.0 110.0 L 117.0 111.0 L 116.66666666666667 112.0 L 116.0 113.0 L 115.0 114.0 L 114.0 115.0 L 113.0 116.0 L 112.0 116.66666666666667 L 111.0 117.0 L 110.0 117.0 L 109.0 117.0 L 108.0 117.0 L 107.0 117.0 L 106.0 117.0 L 105.0 117.0 L 104.0 117.0 L 103.0 117.0 L 102.0 117.0 L 101.0 117.0 L 100.0 117.0 L 99.0 117.0 L 98.0 117.0 L 97.0 117.0 L 96.0 117.0 L 95.0 117.0 L 94.0 117.0 L 93.0 117.0 L 92.0 117.0 L 91.0 117.0 L 90.0 117.0 L 89.0 117.0 L 88.0 117.0 L 87.0 117.0 L 86.0 117.0 L 85.0 117.0 L 84.0 117.0 L 83.0 117.0 L 82.0 117.0 L 81.0 117.0 L 80.0 117.0 L 79.0 117.0 L 78.0 117.0 L 77.0 117.0 L 76.0 117.0 L 75.0 117.0 L 74.0 117.0 L 73.0 117.0 L 72.0 117.0 L 71.0 117.0 L 70.0 117.0 L 69.0 117.0 L 68.0 117.0 L 67.0 117.0 L 66.0 117.0 L 65.0 117.0 L 64.0 117.0 L 63.0 117.0 L 62.0 117.0 L 61.0 117.0 L 60.0 117.0 L 59.0 117.0 L 58.0 117.0 L 57.0 117.0 L 56.0 117.0 L 55.0 117.0 L 54.0 117.0 L 53.0 117.0 L 52.0 117.0 L 51.0 117.0 L 50.0 117.0 L 49.0 117.0 L 48.0 117.0 L 47.0 117.0 L 46.0 117.0 L 45.0 117.0 L 44.0 117.0 L 43.0 117.0 L 42.0 117.0 L 41.0 117.0 L 40.0 117.0 L 39.0 117.0 L 38.0 117.0 L 37.0 117.0 L 36.0 117.0 L 35.0 117.0 L 34.0 117.0 L 33.0 117.0 L 32.0 117.0 L 31.0 117.0 L 30.0 117.0 L 29.0 117.0 L 28.0 117.0 L 27.0 117.0 L 26.0 117.0 L 25.0 117.0 L 24.0 117.0 L 23.0 117.0 L 22.0 117.0 L 21.0 117.0 L 20.0 117.0 L 19.0 117.0 L 18.0 117.0 L 17.0 117.0 L 16.0 117.0 L 15.0 117.0 L 14.0 117.0 L 13.0 117.0 L 12.0 117.0 L 11.0 117.0 L 10.0 116.66666666666667 L 9.0 116.33333333333333 L 8.0 116.0 L 7.0 115.66666666666667 L 6.0 115.33333333333333 L 5.0 115.0 L 4.333333333333333 115.33333333333333 L 4.0 116.0 L 4.0 117.0 L 4.0 118.0 L 4.0 119.0 L 4.333333333333333 120.0 L 4.666666666666667 121.0 L 5.333333333333333 122.0 L 6.0 122.66666666666667 L 7.0 123.33333333333333 L 8.0 123.66666666666667 L 9.0 124.0 L 10.0 124.0 L 11.0 124.0 L 12.0 124.0 L 13.0 124.0 L 14.0 124.0 L 15.0 124.0 L 16.0 124.0 L 17.0 124.0 L 18.0 124.0 L 19.0 124.0 L 20.0 124.0 L 21.0 124.0 L 22.0 124.0 L 23.0 124.0 L 24.0 124.0 L 25.0 124.0 L 26.0 124.0 L 27.0 124.0 L 28.0 124.0 L 29.0 124.0 L 30.0 124.0 L 31.0 124.0 L 32.0 124.0 L 33.0 124.0 L 34.0 124.0 L 35.0 124.0 L 36.0 124.0 L 37.0 124.0 L 38.0 124.0 L 39.0 124.0 L 40.0 124.0 L 41.0 124.0 L 42.0 124.0 L 43.0 124.0 L 44.0 124.0 L 45.0 124.0 L 46.0 124.0 L 47.0 124.0 L 48.0 124.0 L 49.0 124.0 L 50.0 124.0 L 51.0 124.0 L 52.0 124.0 L 53.0 124.0 L 54.0 124.0 L 55.0 124.0 L 56.0 124.0 L 57.0 124.0 L 58.0 124.0 L 59.0 124.0 L 60.0 124.0 L 61.0 124.0 L 62.0 124.0 L 63.0 124.0 L 64.0 124.0 L 65.0 124.0 L 66.0 124.0 L 67.0 124.0 L 68.0 124.0 L 69.0 124.0 L 70.0 124.0 L 71.0 124.0 L 72.0 124.0 L 73.0 124.0 L 74.0 124.0 L 75.0 124.0 L 76.0 124.0 L 77.0 124.0 L 78.0 124.0 L 79.0 124.0 L 80.0 124.0 L 81.0 124.0 L 82.0 124.0 L 83.0 124.0 L 84.0 124.0 L 85.0 124.0 L 86.0 124.0 L 87.0 124.0 L 88.0 124.0 L 89.0 124.0 L 90.0 124.0 L 91.0 124.0 L 92.0 124.0 L 93.0 124.0 L 94.0 124.0 L 95.0 124.0 L 96.0 124.0 L 97.0 124.0 L 98.0 124.0 L 99.0 124.0 L 100.0 124.0 L 101.0 124.0 L 102.0 124.0 L 103.0 124.0 L 104.0 124.0 L 105.0 124.0 L 106.0 124.0 L 107.0 124.0 L 108.0 124.0 L 109.0 124.0 L 110.0 124.0 L 111.0 124.0 L 112.0 124.0 L 113.0 124.0 L 114.0 124.0 L 115.0 124.0 L 116.0 124.0 L 117.0 124.0 L 118.0 124.0 L 119.0 124.0 L 120.0 123.66666666666667 L 121.0 123.33333333333333 L 122.0 122.66666666666667 L 122.5 122.5 Z" stroke="none" fill="rgb(66,118,135)" />
<path d="M 21.5 26.5 L 22.0 26.0 L 23.0 25.0 L 24.0 24.0 L 25.0 23.0 L 26.0 22.0 L 27.0 21.333333333333332 L 28.0 20.666666666666668 L 29.0 20.333333333333332 L 30.0 19.666666666666668 L 31.0 19.333333333333332 L 32.0 18.666666666666668 L 33.0 18.333333333333332 L 34.0 17.666666666666668 L 35.0 17.333333333333332 L 36.0 16.666666666666668 L 37.0 16.0 L 38.0 15.0 L 38.666666666666664 14.0 L 39.0 13.0 L 39.0 12.0 L 38.666666666666664 11.0 L 38.0 10.333333333333334 L 37.0 10.0 L 36.0 10.0 L 35.0 10.0 L 34.0 10.0 L 33.0 10.0 L 32.0 10.0 L 31.0 10.0 L 30.0 10.0 L 29.0 10.0 L 28.0 10.333333333333334 L 27.0 10.666666666666666 L 26.0 11.0 L 25.0 11.0 L 24.0 11.0 L 23.0 11.0 L 22.0 11.0 L 21.0 11.0 L 20.0 11.333333333333334 L 19.0 11.666666666666666 L 18.0 12.0 L 17.0 12.333333333333334 L 16.0 13.0 L 15.0 14.0 L 14.0 15.0 L 13.333333333333334 16.0 L 13.0 17.0 L 13.0 18.0 L 13.0 19.0 L 12.666666666666666 20.0 L 12.333333333333334 21.0 L 12.0 22.0 L 12.0 23.0 L 12.0 24.0 L 12.0 25.0 L 12.0 26.0 L 12.0 27.0 L 12.0 28.0 L 12.0 29.0 L 12.0 30.0 L 12.0 31.0 L 12.333333333333334 32.0 L 13.0 33.0 L 14.0 33.666666666666664 L 15.0 34.0 L 16.0 33.666666666666664 L 17.0 33.0 L 18.0 32.0 L 18.666666666666668 31.0 L 19.333333333333332 30.0 L 19.666666666666668 29.0 L 20.333333333333332 28.0 L 20.5 27.5 Z" stroke="none" fill="rgb(160,200,214)" />
<path d="M 24.5 91.0 L 25.0 91.33333333333333 L 26.0 91.66666666666667 L 27.0 92.0 L 28.0 92.0 L 29.0 92.0 L 30.0 92.0 L 31.0 92.0 L 32.0 92.0 L 33.0 92.0 L 34.0 92.0 L 35.0 92.0 L 36.0 92.0 L 37.0 91.66666666666667 L 38.0 91.33333333333333 L 39.0 90.66666666666667 L 40.0 90.0 L 41.0 89.0 L 42.0 88.0 L 43.0 87.0 L 44.0 86.0 L 45.0 85.0 L 45.666666666666664 84.0 L 46.333333333333336 83.0 L 46.666666666666664 82.0 L 47.333333333333336 81.0 L 47.666666666666664 80.0 L 48.333333333333336 79.0 L 48.666666666666664 78.0 L 49.0 77.0 L 49.0 76.0 L 49.0 75.0 L 49.0 74.0 L 49.0 73.0 L 49.0 72.0 L 49.0 71.0 L 49.0 70.0 L 49.0 69.0 L 49.0 68.0 L 49.0 67.0 L 49.0 66.0 L 49.0 65.0 L 49.0 64.0 L 49.0 63.0 L 49.0 62.0 L 49.0 61.0 L 49.0 60.0 L 49.0 59.0 L 49.0 58.0 L 49.0 57.0 L 49.0 56.0 L 49.0 55.0 L 49.0 54.0 L 49.0 53.0 L 49.0 52.0 L 49.0 51.0 L 49.0 50.0 L 49.0 49.0 L 49.0 48.0 L 49.0 47.0 L 49.0 46.0 L 49.0 45.0 L 49.0 44.0 L 49.0 43.0 L 49.0 42.0 L 49.0 41.0 L 49.0 40.0 L 49.0 39.0 L 48.666666666666664 38.333333333333336 L 48.0 38.0 L 47.0 38.0 L 46.0 38.0 L 45.0 38.0 L 44.0 38.0 L 43.0 38.0 L 42.0 38.0 L 41.0 38.0 L 40.333333333333336 38.333333333333336 L 40.0 39.0 L 40.0 40.0 L 40.0 41.0 L 40.0 42.0 L 40.0 43.0 L 40.0 44.0 L 40.0 45.0 L 40.0 46.0 L 40.0 47.0 L 40.0 48.0 L 40.0 49.0 L 40.0 50.0 L 40.0 51.0 L 40.0 52.0 L 40.0 53.0 L 40.0 54.0 L 40.0 55.0 L 40.0 56.0 L 40.0 57.0 L 40.0 58.0 L 40.0 59.0 L 40.0 60.0 L 40.0 61.0 L 40.0 62.0 L 40.0 63.0 L 40.0 64.0 L 40.0 65.0 L 40.0 66.0 L 40.0 67.0 L 40.0 68.0 L 40.0 69.0 L 40.0 70.0 L 40.0 71.0 L 40.0 72.0 L 40.0 73.0 L 39.666666666666664 74.0 L 39.333333333333336 75.0 L 38.666666666666664 76.0 L 38.333333333333336 77.0 L 37.666666666666664 78.0 L 37.0 79.0 L 36.0 80.0 L 35.0 81.0 L 34.0 81.66666666666667 L 33.0 82.0 L 32.0 82.0 L 31.0 82.0 L 30.0 82.0 L 29.0 82.0 L 28.0 82.0 L 27.0 81.66666666666667 L 26.0 81.0 L 25.0 80.0 L 24.0 79.0 L 23.0 78.0 L 22.333333333333332 77.0 L 21.666666666666668 76.0 L 21.333333333333332 75.0 L 21.0 74.0 L 20.666666666666668 73.0 L 20.333333333333332 72.0 L 20.0 71.0 L 20.0 70.0 L 20.0 69.0 L 20.0 68.0 L 20.0 67.0 L 20.0 66.0 L 20.0 65.0 L 20.0 64.0 L 20.0 63.0 L 20.0 62.0 L 20.0 61.0 L 20.0 60.0 L 20.0 59.0 L 20.0 58.0 L 20.0 57.0 L 20.0 56.0 L 20.0 55.0 L 20.0 54.0 L 20.0 53.0 L 20.0 52.0 L 20.0 51.0 L 20.0 50.0 L 20.0 49.0 L 20.0 48.0 L 20.0 47.0 L 20.0 46.0 L 20.0 45.0 L 20.0 44.0 L 20.0 43.0 L 20.0 42.0 L 20.0 41.0 L 20.0 40.0 L 20.0 39.0 L 19.666666666666668 38.333333333333336 L 19.0 38.0 L 18.0 38.0 L 17.0 38.0 L 16.0 38.0 L 15.0 38.0 L 14.0 38.0 L 13.0 38.0 L 12.333333333333334 38.333333333333336 L 12.0 39.0 L 12.0 40.0 L 12.0 41.0 L 12.0 42.0 L 12.0 43.0 L 12.0 44.0 L 12.0 45.0 L 12.0 46.0 L 12.0 47.0 L 12.0 48.0 L 12.0 49.0 L 12.0 50.0 L 12.0 51.0 L 12.0 52.0 L 12.0 53.0 L 12.0 54.0 L 12.0 55.0 L 12.0 56.0 L 12.0 57.0 L 12.0 58.0 L 12.0 59.0 L 12.0 60.0 L 12.0 61.0 L 12.0 62.0 L 12.0 63.0 L 12.0 64.0 L 12.0 65.0 L 12.0 66.0 L 12.0 67.0 L 12.0 68.0 L 12.0 69.0 L 12.0 70.0 L 12.0 71.0 L 12.0 72.0 L 12.0 73.0 L 12.0 74.0 L 12.0 75.0 L 12.0 76.0 L 12.0 77.0 L 12.0 78.0 L 12.0 79.0 L 12.333333333333334 80.0 L 12.666666666666666 81.0 L 13.333333333333334 82.0 L 14.0 83.0 L 14.666666666666666 84.0 L 15.333333333333334 85.0 L 16.0 86.0 L 17.0 87.0 L 18.0 88.0 L 19.0 89.0 L 20.0 89.66666666666667 L 21.0 90.33333333333333 L 22.0 90.66666666666667 L 23.0 91.0 L 23.5 91.0 Z" stroke="none" fill="rgb(250,250,250)" />
<path d="M 66.5 91.0 L 67.0 91.0 L 68.0 90.66666666666667 L 68.66666666666667 90.0 L 69.0 89.0 L 69.0 88.0 L 69.0 87.0 L 69.0 86.0 L 69.0 85.0 L 69.0 84.0 L 69.0 83.0 L 69.0 82.0 L 69.0 81.0 L 69.0 80.0 L 69.0 79.0 L 69.0 78.0 L 69.0 77.0 L 69.0 76.0 L 69.0 75.0 L 69.0 74.0 L 69.33333333333333 73.0 L 70.0 72.33333333333333 L 71.0 72.0 L 72.0 72.0 L 73.0 72.0 L 74.0 72.0 L 75.0 72.0 L 76.0 72.0 L 77.0 72.0 L 78.0 72.0 L 79.0 72.0 L 80.0 72.0 L 81.0 71.66666666666667 L 82.0 71.33333333333333 L 83.0 71.0 L 84.0 70.66666666666667 L 85.0 70.33333333333333 L 86.0 69.66666666666667 L 87.0 69.0 L 88.0 68.0 L 89.0 67.0 L 89.66666666666667 66.0 L 90.33333333333333 65.0 L 91.0 64.0 L 91.66666666666667 63.0 L 92.33333333333333 62.0 L 92.66666666666667 61.0 L 93.0 60.0 L 93.0 59.0 L 93.0 58.0 L 93.0 57.0 L 93.0 56.0 L 93.0 55.0 L 93.0 54.0 L 93.0 53.0 L 93.0 52.0 L 93.0 51.0 L 92.66666666666667 50.0 L 92.33333333333333 49.0 L 92.0 48.0 L 91.66666666666667 47.0 L 91.33333333333333 46.0 L 90.66666666666667 45.0 L 90.0 44.0 L 89.0 43.0 L 88.0 42.0 L 87.0 41.0 L 86.0 40.333333333333336 L 85.0 39.666666666666664 L 84.0 39.333333333333336 L 83.0 38.666666666666664 L 82.0 38.333333333333336 L 81.0 38.0 L 80.0 38.0 L 79.0 38.0 L 78.0 38.0 L 77.0 38.0 L 76.0 38.0 L 75.0 38.0 L 74.0 38.0 L 73.0 38.0 L 72.0 38.0 L 71.0 38.0 L 70.0 38.0 L 69.0 38.0 L 68.0 38.0 L 67.0 38.0 L 66.0 38.0 L 65.0 38.0 L 64.0 38.0 L 63.0 38.0 L 62.0 38.0 L 61.0 38.0 L 60.333333333333336 38.333333333333336 L 60.0 39.0 L 60.0 40.0 L 60.0 41.0 L 60.0 42.0 L 60.0 43.0 L 60.0 44.0 L 60.0 45.0 L 60.0 46.0 L 60.0 47.0 L 60.0 48.0 L 60.0 49.0 L 60.0 50.0 L 60.0 51.0 L 60.0 52.0 L 60.0 53.0 L 60.0 54.0 L 60.0 55.0 L 60.0 56.0 L 60.0 57.0 L 60.0 58.0 L 60.0 59.0 L 60.0 60.0 L 60.0 61.0 L 60.0 62.0 L 60.0 63.0 L 60.0 64.0 L 60.0 65.0 L 60.0 66.0 L 60.0 67.0 L 60.0 68.0 L 60.0 69.0 L 60.0 70.0 L 60.0 71.0 L 60.0 72.0 L 60.0 73.0 L 60.0 74.0 L 60.0 75.0 L 60.0 76.0 L 60.0 77.0 L 60.0 78.0 L 60.0 79.0 L 60.0 80.0 L 60.0 81.0 L 60.0 82.0 L 60.0 83.0 L 60.0 84.0 L 60.0 85.0 L 60.0 86.0 L 60.0 87.0 L 60.0 88.0 L 60.0 89.0 L 60.0 90.0 L 60.333333333333336 90.66666666666667 L 61.0 91.0 L 62.0 91.0 L 63.0 91.0 L 64.0 91.0 L 65.0 91.0 L 65.5 91.0 Z" stroke="none" fill="rgb(250,250,250)" />
<path d="M 105.5 72.0 L 106.0 72.0 L 107.0 72.0 L 108.0 72.0 L 108.66666666666667 71.66666666666667 L 109.0 71.0 L 109.0 70.0 L 109.0 69.0 L 109.0 68.0 L 109.0 67.0 L 109.0 66.0 L 109.0 65.0 L 109.0 64.0 L 109.0 63.0 L 109.0 62.0 L 109.0 61.0 L 109.0 60.0 L 109.0 59.0 L 109.0 58.0 L 109.0 57.0 L 109.0 56.0 L 109.0 55.0 L 109.0 54.0 L 109.0 53.0 L 109.0 52.0 L 109.0 51.0 L 109.0 50.0 L 109.0 49.0 L 109.0 48.0 L 109.0 47.0 L 109.0 46.0 L 109.0 45.0 L 109.0 44.0 L 109.0 43.0 L 109.0 42.0 L 109.0 41.0 L 109.0 40.0 L 109.0 39.0 L 108.66666666666667 38.333333333333336 L 108.0 38.0 L 107.0 38.0 L 106.0 38.0 L 105.0 38.0 L 104.0 38.0 L 103.0 38.0 L 102.0 38.0 L 101.33333333333333 38.333333333333336 L 101.0 39.0 L 101.0 40.0 L 101.0 41.0 L 101.0 42.0 L 101.0 43.0 L 101.0 44.0 L 101.0 45.0 L 101.0 46.0 L 101.0 47.0 L 101.0 48.0 L 101.0 49.0 L 101.0 50.0 L 101.0 51.0 L 101.0 52.0 L 101.0 53.0 L 101.0 54.0 L 101.0 55.0 L 101.0 56.0 L 101.0 57.0 L 101.0 58.0 L 101.0 59.0 L 101.0 60.0 L 101.0 61.0 L 101.0 62.0 L 101.0 63.0 L 101.0 64.0 L 101.0 65.0 L 101.0 66.0 L 101.0 67.0 L 101.0 68.0 L 101.0 69.0 L 101.0 70.0 L 101.33333333333333 71.0 L 102.0 71.66666666666667 L 103.0 72.0 L 104.0 72.0 L 104.5 72.0 Z" stroke="none" fill="rgb(250,250,250)" />
<path d="M 69.5 61.0 L 70.0 61.0 L 71.0 61.0 L 72.0 61.0 L 73.0 61.0 L 74.0 61.0 L 75.0 61.0 L 76.0 61.0 L 77.0 61.0 L 78.0 61.0 L 79.0 61.0 L 80.0 61.0 L 81.0 60.666666666666664 L 82.0 60.0 L 82.66666666666667 59.0 L 83.33333333333333 58.0 L 83.66666666666667 57.0 L 84.0 56.0 L 84.0 55.0 L 84.0 54.0 L 83.66666666666667 53.0 L 83.33333333333333 52.0 L 82.66666666666667 51.0 L 82.0 50.0 L 81.0 49.0 L 80.0 48.333333333333336 L 79.0 48.0 L 78.0 48.0 L 77.0 48.0 L 76.0 48.0 L 75.0 48.0 L 74.0 48.0 L 73.0 48.0 L 72.0 48.0 L 71.0 48.0 L 70.0 48.0 L 69.33333333333333 48.333333333333336 L 69.0 49.0 L 69.0 50.0 L 69.0 51.0 L 69.0 52.0 L 69.0 53.0 L 69.0 54.0 L 69.0 55.0 L 69.0 56.0 L 69.0 57.0 L 69.0 58.0 L 69.0 59.0 L 69.0 60.0 L 69.0 60.5 Z" stroke="none" fill="rgb(140,175,191)" />
<path d="M 110.0 88.5 L 110.33333333333333 88.0 L 110.66666666666667 87.0 L 111.0 86.0 L 111.0 85.0 L 111.0 84.0 L 111.0 83.0 L 110.66666666666667 82.0 L 110.0 81.0 L 109.0 80.0 L 108.0 79.0 L 107.0 78.33333333333333 L 106.0 78.0 L 105.0 78.0 L 104.0 78.33333333333333 L 103.0 78.66666666666667 L 102.0 79.33333333333333 L 101.0 80.0 L 100.33333333333333 81.0 L 99.66666666666667 82.0 L 99.33333333333333 83.0 L 99.0 84.0 L 99.0 85.0 L 99.0 86.0 L 99.33333333333333 87.0 L 100.0 88.0 L 101.0 89.0 L 102.0 89.66666666666667 L 103.0 90.33333333333333 L 104.0 90.66666666666667 L 105.0 91.0 L 106.0 91.0 L 107.0 91.0 L 108.0 90.66666666666667 L 109.0 90.0 L 109.5 89.5 Z" stroke="none" fill="rgb(250,250,250)" />
</svg>
