<?xml version="1.0" encoding="UTF-8" standalone="no"?>
<!DOCTYPE svg PUBLIC "-//W3C//DTD SVG 1.1//EN"
"http://www.w3.org/Graphics/SVG/1.1/DTD/svg11.dtd">
<svg width="128" height="128" xmlns="http://www.w3.org/2000/svg" version="1.1">
<path d="M 26.5 128.0 L 27.0 128.0 L 28.0 128.0 L 29.0 128.0 L 30.0 128.0 L 31.0 128.0 L 32.0 128.0 L 33.0 128.0 L 34.0 128.0 L 35.0 128.0 L 36.0 128.0 L 37.0 128.0 L 38.0 128.0 L 39.0 128.0 L 40.0 128.0 L 41.0 128.0 L 42.0 128.0 L 43.0 128.0 L 44.0 128.0 L 45.0 128.0 L 46.0 128.0 L 47.0 128.0 L 48.0 128.0 L 49.0 128.0 L 50.0 128.0 L 51.0 128.0 L 52.0 128.0 L 53.0 128.0 L 54.0 128.0 L 55.0 128.0 L 56.0 128.0 L 57.0 128.0 L 58.0 128.0 L 59.0 128.0 L 60.0 128.0 L 61.0 128.0 L 62.0 128.0 L 63.0 128.0 L 64.0 128.0 L 65.0 128.0 L 66.0 128.0 L 67.0 128.0 L 68.0 128.0 L 69.0 128.0 L 70.0 128.0 L 71.0 128.0 L 72.0 128.0 L 73.0 128.0 L 74.0 128.0 L 75.0 128.0 L 76.0 128.0 L 77.0 128.0 L 78.0 128.0 L 79.0 128.0 L 80.0 128.0 L 81.0 128.0 L 82.0 128.0 L 83.0 128.0 L 84.0 128.0 L 85.0 128.0 L 86.0 128.0 L 87.0 128.0 L 88.0 128.0 L 89.0 128.0 L 90.0 128.0 L 91.0 128.0 L 92.0 128.0 L 93.0 128.0 L 94.0 128.0 L 95.0 128.0 L 96.0 128.0 L 97.0 128.0 L 98.0 128.0 L 99.0 128.0 L 100.0 128.0 L 101.0 128.0 L 102.0 128.0 L 103.0 128.0 L 104.0 128.0 L 105.0 128.0 L 106.0 128.0 L 107.0 128.0 L 108.0 128.0 L 109.0 128.0 L 110.0 128.0 L 111.0 128.0 L 112.0 128.0 L 113.0 128.0 L 114.0 128.0 L 115.0 128.0 L 116.0 128.0 L 117.0 128.0 L 118.0 128.0 L 119.0 128.0 L 120.0 128.0 L 121.0 128.0 L 122.0 128.0 L 123.0 128.0 L 124.0 128.0 L 125.0 128.0 L 126.0 128.0 L 127.0 128.0 L 127.66666666666667 127.66666666666667 L 128.0 127.0 L 128.0 126.0 L 128.0 125.0 L 128.0 124.0 L 128.0 123.0 L 128.0 122.0 L 128.0 121.0 L 128.0 120.0 L 128.0 119.0 L 128.0 118.0 L 128.0 117.0 L 128.0 116.0 L 128.0 115.0 L 128.0 114.0 L 128.0 113.0 L 128.0 112.0 L 128.0 111.0 L 128.0 110.0 L 128.0 109.0 L 128.0 108.0 L 128.0 107.0 L 128.0 106.0 L 128.0 105.0 L 128.0 104.0 L 128.0 103.0 L 128.0 102.0 L 128.0 101.0 L 128.0 100.0 L 128.0 99.0 L 128.0 98.0 L 128.0 97.0 L 128.0 96.0 L 128.0 95.0 L 128.0 94.0 L 128.0 93.0 L 128.0 92.0 L 128.0 91.0 L 128.0 90.0 L 128.0 89.0 L 128.0 88.0 L 128.0 87.0 L 128.0 86.0 L 128.0 85.0 L 128.0 84.0 L 128.0 83.0 L 128.0 82.0 L 128.0 81.0 L 128.0 80.0 L 128.0 79.0 L 128.0 78.0 L 128.0 77.0 L 128.0 76.0 L 128.0 75.0 L 128.0 74.0 L 128.0 73.0 L 128.0 72.0 L 128.0 71.0 L 128.0 70.0 L 128.0 69.0 L 128.0 68.0 L 128.0 67.0 L 128.0 66.0 L 128.0 65.0 L 128.0 64.0 L 128.0 63.0 L 128.0 62.0 L 128.0 61.0 L 128.0 60.0 L 128.0 59.0 L 128.0 58.0 L 128.0 57.0 L 128.0 56.0 L 128.0 55.0 L 128.0 54.0 L 128.0 53.0 L 128.0 52.0 L 128.0 51.0 L 128.0 50.0 L 128.0 49.0 L 128.0 48.0 L 128.0 47.0 L 128.0 46.0 L 128.0 45.0 L 128.0 44.0 L 128.0 43.0 L 128.0 42.0 L 128.0 41.0 L 128.0 40.0 L 128.0 39.0 L 128.0 38.0 L 128.0 37.0 L 128.0 36.0 L 128.0 35.0 L 128.0 34.0 L 128.0 33.0 L 128.0 32.0 L 128.0 31.0 L 128.0 30.0 L 128.0 29.0 L 128.0 28.0 L 128.0 27.0 L 128.0 26.0 L 128.0 25.0 L 128.0 24.0 L 128.0 23.0 L 128.0 22.0 L 128.0 21.0 L 128.0 20.0 L 128.0 19.0 L 128.0 18.0 L 128.0 17.0 L 128.0 16.0 L 128.0 15.0 L 128.0 14.0 L 128.0 13.0 L 128.0 12.0 L 128.0 11.0 L 128.0 10.0 L 128.0 9.0 L 128.0 8.0 L 128.0 7.0 L 128.0 6.0 L 128.0 5.0 L 128.0 4.0 L 128.0 3.0 L 128.0 2.0 L 128.0 1.0 L 127.66666666666667 0.3333333333333333 L 127.0 0.0 L 126.0 0.0 L 125.0 0.0 L 124.0 0.0 L 123.0 0.0 L 122.0 0.0 L 121.0 0.0 L 120.0 0.0 L 119.0 0.0 L 118.0 0.0 L 117.0 0.0 L 116.0 0.0 L 115.0 0.0 L 114.0 0.0 L 113.0 0.0 L 112.0 0.0 L 111.0 0.0 L 110.0 0.0 L 109.0 0.0 L 108.0 0.0 L 107.0 0.0 L 106.0 0.0 L 105.0 0.0 L 104.0 0.0 L 103.0 0.0 L 102.0 0.0 L 101.0 0.0 L 100.0 0.0 L 99.0 0.0 L 98.0 0.0 L 97.0 0.0 L 96.0 0.0 L 95.0 0.0 L 94.0 0.0 L 93.0 0.0 L 92.0 0.0 L 91.0 0.0 L 90.0 0.0 L 89.0 0.0 L 88.0 0.0 L 87.0 0.0 L 86.0 0.0 L 85.0 0.0 L 84.0 0.0 L 83.0 0.0 L 82.0 0.0 L 81.0 0.0 L 80.0 0.0 L 79.0 0.0 L 78.0 0.0 L 77.0 0.0 L 76.0 0.0 L 75.0 0.0 L 74.0 0.0 L 73.0 0.0 L 72.0 0.0 L 71.0 0.0 L 70.0 0.0 L 69.0 0.0 L 68.0 0.0 L 67.0 0.0 L 66.0 0.0 L 65.0 0.0 L 64.0 0.0 L 63.0 0.0 L 62.0 0.0 L 61.0 0.0 L 60.0 0.0 L 59.0 0.0 L 58.0 0.0 L 57.0 0.0 L 56.0 0.0 L 55.0 0.0 L 54.0 0.0 L 53.0 0.0 L 52.0 0.0 L 51.0 0.0 L 50.0 0.0 L 49.0 0.0 L 48.0 0.0 L 47.0 0.0 L 46.0 0.0 L 45.0 0.0 L 44.0 0.0 L 43.0 0.0 L 42.0 0.0 L 41.0 0.0 L 40.0 0.0 L 39.0 0.0 L 38.0 0.0 L 37.0 0.0 L 36.0 0.0 L 35.0 0.0 L 34.0 0.0 L 33.0 0.0 L 32.0 0.0 L 31.0 0.0 L 30.0 0.0 L 29.0 0.0 L 28.0 0.0 L 27.0 0.0 L 26.0 0.0 L 25.0 0.0 L 24.0 0.0 L 23.0 0.0 L 22.0 0.0 L 21.0 0.0 L 20.0 0.0 L 19.0 0.0 L 18.0 0.0 L 17.0 0.0 L 16.0 0.0 L 15.0 0.0 L 14.0 0.0 L 13.0 0.0 L 12.0 0.0 L 11.0 0.0 L 10.0 0.0 L 9.0 0.0 L 8.0 0.0 L 7.0 0.0 L 6.0 0.0 L 5.0 0.0 L 4.0 0.0 L 3.0 0.0 L 2.0 0.0 L 1.0 0.0 L 0.3333333333333333 0.3333333333333333 L 0.0 1.0 L 0.0 2.0 L 0.0 3.0 L 0.0 4.0 L 0.0 5.0 L 0.0 6.0 L 0.0 7.0 L 0.0 8.0 L 0.0 9.0 L 0.0 10.0 L 0.0 11.0 L 0.0 12.0 L 0.0 13.0 L 0.0 14.0 L 0.0 15.0 L 0.0 16.0 L 0.0 17.0 L 0.0 18.0 L 0.0 19.0 L 0.0 20.0 L 0.0 21.0 L 0.0 22.0 L 0.0 23.0 L 0.0 24.0 L 0.0 25.0 L 0.0 26.0 L 0.0 27.0 L 0.0 28.0 L 0.0 29.0 L 0.0 30.0 L 0.0 31.0 L 0.0 32.0 L 0.0 33.0 L 0.0 34.0 L 0.0 35.0 L 0.0 36.0 L 0.0 37.0 L 0.0 38.0 L 0.0 39.0 L 0.0 40.0 L 0.0 41.0 L 0.0 42.0 L 0.0 43.0 L 0.0 44.0 L 0.0 45.0 L 0.0 46.0 L 0.0 47.0 L 0.0 48.0 L 0.0 49.0 L 0.0 50.0 L 0.0 51.0 L 0.0 52.0 L 0.0 53.0 L 0.0 54.0 L 0.0 55.0 L 0.0 56.0 L 0.0 57.0 L 0.0 58.0 L 0.0 59.0 L 0.0 60.0 L 0.0 61.0 L 0.0 62.0 L 0.0 63.0 L 0.0 64.0 L 0.0 65.0 L 0.0 66.0 L 0.0 67.0 L 0.0 68.0 L 0.0 69.0 L 0.0 70.0 L 0.0 71.0 L 0.0 72.0 L 0.0 73.0 L 0.0 74.0 L 0.0 75.0 L 0.0 76.0 L 0.0 77.0 L 0.0 78.0 L 0.0 79.0 L 0.0 80.0 L 0.0 81.0 L 0.0 82.0 L 0.0 83.0 L 0.0 84.0 L 0.0 85.0 L 0.0 86.0 L 0.0 87.0 L 0.0 88.0 L 0.0 89.0 L 0.0 90.0 L 0.0 91.0 L 0.0 92.0 L 0.0 93.0 L 0.0 94.0 L 0.0 95.0 L 0.0 96.0 L 0.0 97.0 L 0.0 98.0 L 0.0 99.0 L 0.0 100.0 L 0.0 101.0 L 0.0 102.0 L 0.0 103.0 L 0.0 104.0 L 0.0 105.0 L 0.0 106.0 L 0.0 107.0 L 0.0 108.0 L 0.0 109.0 L 0.0 110.0 L 0.0 111.0 L 0.0 112.0 L 0.0 113.0 L 0.0 114.0 L 0.0 115.0 L 0.0 116.0 L 0.0 117.0 L 0.0 118.0 L 0.0 119.0 L 0.0 120.0 L 0.0 121.0 L 0.0 122.0 L 0.0 123.0 L 0.0 124.0 L 0.0 125.0 L 0.0 126.0 L 0.0 127.0 L 0.3333333333333333 127.66666666666667 L 1.0 128.0 L 2.0 128.0 L 3.0 128.0 L 4.0 128.0 L 5.0 128.0 L 6.0 128.0 L 7.0 128.0 L 8.0 128.0 L 9.0 128.0 L 10.0 128.0 L 11.0 128.0 L 12.0 128.0 L 13.0 128.0 L 14.0 128.0 L 15.0 128.0 L 16.0 128.0 L 17.0 128.0 L 18.0 128.0 L 19.0 128.0 L 20.0 128.0 L 21.0 128.0 L 22.0 128.0 L 23.0 128.0 L 24.0 128.0 L 25.0 128.0 L 25.5 128.0 Z" stroke="none" fill="rgb(0,0,0)" />
<path d="M 53.5 38.5 L 53.666666666666664 39.0 L 54.0 40.0 L 54.0 41.0 L 54.333333333333336 42.0 L 54.666666666666664 43.0 L 55.0 44.0 L 55.333333333333336 45.0 L 55.666666666666664 46.0 L 56.0 47.0 L 56.333333333333336 48.0 L 56.666666666666664 49.0 L 57.0 50.0 L 57.333333333333336 51.0 L 57.666666666666664 52.0 L 58.0 53.0 L 58.0 54.0 L 58.333333333333336 55.0 L 58.666666666666664 56.0 L 59.0 57.0 L 59.333333333333336 58.0 L 59.666666666666664 59.0 L 60.0 60.0 L 60.333333333333336 61.0 L 60.666666666666664 62.0 L 61.333333333333336 63.0 L 62.0 63.666666666666664 L 63.0 64.0 L 64.0 64.0 L 65.0 64.0 L 65.66666666666667 63.666666666666664 L 66.0 63.0 L 66.0 62.0 L 66.33333333333333 61.0 L 66.66666666666667 60.0 L 67.0 59.0 L 67.0 58.0 L 67.0 57.0 L 67.0 56.0 L 67.0 55.0 L 67.0 54.0 L 67.0 53.0 L 67.0 52.0 L 67.0 51.0 L 67.0 50.0 L 67.0 49.0 L 67.0 48.0 L 67.0 47.0 L 67.0 46.0 L 67.0 45.0 L 67.0 44.0 L 67.33333333333333 43.0 L 67.66666666666667 42.0 L 68.0 41.0 L 68.0 40.0 L 68.0 39.0 L 68.0 38.0 L 68.0 37.0 L 68.0 36.0 L 68.0 35.0 L 68.0 34.0 L 68.0 33.0 L 68.0 32.0 L 68.0 31.0 L 68.0 30.0 L 68.0 29.0 L 68.0 28.0 L 68.0 27.0 L 68.0 26.0 L 67.66666666666667 25.333333333333332 L 67.0 25.0 L 66.0 25.0 L 65.0 25.0 L 64.0 25.0 L 63.0 25.0 L 62.0 25.0 L 61.0 25.0 L 60.0 25.0 L 59.0 25.0 L 58.0 25.333333333333332 L 57.0 25.666666666666668 L 56.0 26.0 L 55.0 26.0 L 54.0 26.0 L 53.0 26.0 L 52.0 26.0 L 51.333333333333336 26.333333333333332 L 50.666666666666664 27.0 L 50.333333333333336 28.0 L 50.333333333333336 29.0 L 50.666666666666664 30.0 L 51.0 31.0 L 51.333333333333336 32.0 L 51.666666666666664 33.0 L 52.0 34.0 L 52.333333333333336 35.0 L 52.666666666666664 36.0 L 53.0 37.0 L 53.0 37.5 Z" stroke="none" fill="rgb(255,3,3)" />
<path d="M 72.5 65.0 L 72.66666666666667 64.66666666666667 L 73.0 64.0 L 73.0 63.0 L 73.0 62.0 L 73.0 61.0 L 73.0 60.0 L 73.0 59.0 L 73.0 58.0 L 73.0 57.0 L 73.0 56.0 L 73.0 55.0 L 73.0 54.0 L 73.0 53.0 L 73.0 52.0 L 73.0 51.0 L 73.0 50.0 L 73.33333333333333 49.0 L 73.66666666666667 48.0 L 74.0 47.0 L 74.0 46.0 L 74.0 45.0 L 74.0 44.0 L 74.0 43.0 L 74.0 42.0 L 74.0 41.0 L 74.0 40.0 L 74.0 39.0 L 74.0 38.0 L 74.0 37.0 L 74.0 36.0 L 74.0 35.0 L 74.0 34.0 L 74.0 33.0 L 74.0 32.0 L 74.0 31.0 L 74.33333333333333 30.0 L 74.66666666666667 29.0 L 75.0 28.0 L 74.66666666666667 27.0 L 74.0 26.333333333333332 L 73.0 26.0 L 72.0 26.0 L 71.0 25.666666666666668 L 70.0 25.333333333333332 L 69.0 25.0 L 68.33333333333333 25.333333333333332 L 68.0 26.0 L 68.0 27.0 L 68.0 28.0 L 68.0 29.0 L 68.0 30.0 L 68.0 31.0 L 68.0 32.0 L 68.0 33.0 L 68.0 34.0 L 68.0 35.0 L 68.0 36.0 L 68.0 37.0 L 68.0 38.0 L 68.0 39.0 L 68.0 40.0 L 67.66666666666667 41.0 L 67.33333333333333 42.0 L 67.0 43.0 L 67.0 44.0 L 67.0 45.0 L 67.0 46.0 L 67.0 47.0 L 67.0 48.0 L 67.0 49.0 L 67.0 50.0 L 67.0 51.0 L 67.0 52.0 L 67.0 53.0 L 67.0 54.0 L 67.0 55.0 L 67.0 56.0 L 67.0 57.0 L 67.0 58.0 L 66.66666666666667 59.0 L 66.33333333333333 60.0 L 66.0 61.0 L 66.0 62.0 L 66.0 63.0 L 66.33333333333333 63.666666666666664 L 67.0 64.0 L 68.0 64.33333333333333 L 69.0 64.66666666666667 L 70.0 65.0 L 71.0 65.0 L 71.5 65.0 Z" stroke="none" fill="rgb(219,0,0)" />
<path d="M 88.0 40.5 L 88.0 40.0 L 88.33333333333333 39.0 L 88.66666666666667 38.0 L 89.33333333333333 37.0 L 89.66666666666667 36.0 L 90.33333333333333 35.0 L 90.66666666666667 34.0 L 91.33333333333333 33.0 L 91.66666666666667 32.0 L 91.66666666666667 31.0 L 91.0 30.333333333333332 L 90.0 30.0 L 89.0 29.666666666666668 L 88.0 29.333333333333332 L 87.0 29.0 L 86.0 28.666666666666668 L 85.0 28.333333333333332 L 84.0 28.0 L 83.0 27.666666666666668 L 82.0 27.333333333333332 L 81.0 27.0 L 80.0 27.0 L 79.0 27.0 L 78.0 26.666666666666668 L 77.0 26.333333333333332 L 76.0 26.0 L 75.33333333333333 26.333333333333332 L 75.0 27.0 L 74.66666666666667 28.0 L 74.33333333333333 29.0 L 74.0 30.0 L 74.0 31.0 L 74.0 32.0 L 74.0 33.0 L 74.0 34.0 L 74.0 35.0 L 74.0 36.0 L 74.0 37.0 L 74.0 38.0 L 74.0 39.0 L 74.0 40.0 L 74.0 41.0 L 74.0 42.0 L 74.0 43.0 L 74.0 44.0 L 74.0 45.0 L 74.0 46.0 L 73.66666666666667 47.0 L 73.33333333333333 48.0 L 73.0 49.0 L 73.0 50.0 L 73.0 51.0 L 73.0 52.0 L 73.0 53.0 L 73.0 54.0 L 73.0 55.0 L 73.0 56.0 L 73.0 57.0 L 73.0 58.0 L 73.0 59.0 L 73.0 60.0 L 73.0 61.0 L 73.0 62.0 L 73.0 63.0 L 73.0 64.0 L 73.33333333333333 65.0 L 74.0 65.66666666666667 L 75.0 66.0 L 76.0 66.0 L 76.66666666666667 65.66666666666667 L 77.33333333333333 65.0 L 77.66666666666667 64.0 L 78.33333333333333 63.0 L 78.66666666666667 62.0 L 79.0 61.0 L 79.33333333333333 60.0 L 79.66666666666667 59.0 L 80.33333333333333 58.0 L 80.66666666666667 57.0 L 81.33333333333333 56.0 L 81.66666666666667 55.0 L 82.0 54.0 L 82.33333333333333 53.0 L 82.66666666666667 52.0 L 83.33333333333333 51.0 L 83.66666666666667 50.0 L 84.33333333333333 49.0 L 84.66666666666667 48.0 L 85.0 47.0 L 85.33333333333333 46.0 L 85.66666666666667 45.0 L 86.33333333333333 44.0 L 86.66666666666667 43.0 L 87.33333333333333 42.0 L 87.5 41.5 Z" stroke="none" fill="rgb(255,3,3)" />
<path d="M 57.5 65.5 L 58.0 65.33333333333333 L 59.0 64.66666666666667 L 60.0 64.33333333333333 L 61.0 64.0 L 61.666666666666664 63.666666666666664 L 61.666666666666664 63.0 L 61.333333333333336 62.0 L 60.666666666666664 61.0 L 60.333333333333336 60.0 L 60.0 59.0 L 59.666666666666664 58.0 L 59.333333333333336 57.0 L 59.0 56.0 L 58.666666666666664 55.0 L 58.333333333333336 54.0 L 58.0 53.0 L 58.0 52.0 L 57.666666666666664 51.0 L 57.333333333333336 50.0 L 57.0 49.0 L 56.666666666666664 48.0 L 56.333333333333336 47.0 L 56.0 46.0 L 55.666666666666664 45.0 L 55.333333333333336 44.0 L 55.0 43.0 L 54.666666666666664 42.0 L 54.333333333333336 41.0 L 54.0 40.0 L 54.0 39.0 L 53.666666666666664 38.0 L 53.333333333333336 37.0 L 53.0 36.0 L 52.666666666666664 35.0 L 52.333333333333336 34.0 L 52.0 33.0 L 51.666666666666664 32.0 L 51.333333333333336 31.0 L 51.0 30.0 L 50.666666666666664 29.0 L 50.0 28.0 L 49.0 27.333333333333332 L 48.0 27.0 L 47.0 27.0 L 46.0 27.333333333333332 L 45.333333333333336 28.0 L 45.0 29.0 L 45.0 30.0 L 45.0 31.0 L 45.0 32.0 L 45.0 33.0 L 45.333333333333336 34.0 L 45.666666666666664 35.0 L 46.0 36.0 L 46.333333333333336 37.0 L 46.666666666666664 38.0 L 47.0 39.0 L 47.333333333333336 40.0 L 47.666666666666664 41.0 L 48.0 42.0 L 48.0 43.0 L 48.333333333333336 44.0 L 48.666666666666664 45.0 L 49.0 46.0 L 49.333333333333336 47.0 L 49.666666666666664 48.0 L 50.0 49.0 L 50.333333333333336 50.0 L 50.666666666666664 51.0 L 51.0 52.0 L 51.333333333333336 53.0 L 51.666666666666664 54.0 L 52.0 55.0 L 52.0 56.0 L 52.333333333333336 57.0 L 52.666666666666664 58.0 L 53.0 59.0 L 53.333333333333336 60.0 L 53.666666666666664 61.0 L 54.0 62.0 L 54.333333333333336 63.0 L 54.666666666666664 64.0 L 55.333333333333336 65.0 L 56.0 65.66666666666667 L 56.5 66.0 Z" stroke="none" fill="rgb(219,0,0)" />
<path d="M 45.5 58.5 L 45.666666666666664 59.0 L 46.333333333333336 60.0 L 47.0 61.0 L 48.0 62.0 L 48.666666666666664 63.0 L 49.333333333333336 64.0 L 50.0 65.0 L 51.0 65.66666666666667 L 52.0 66.0 L 53.0 66.0 L 54.0 65.66666666666667 L 54.666666666666664 65.0 L 55.0 64.0 L 54.666666666666664 63.0 L 54.333333333333336 62.0 L 54.0 61.0 L 53.666666666666664 60.0 L 53.333333333333336 59.0 L 53.0 58.0 L 52.666666666666664 57.0 L 52.333333333333336 56.0 L 52.0 55.0 L 52.0 54.0 L 51.666666666666664 53.0 L 51.333333333333336 52.0 L 51.0 51.0 L 50.666666666666664 50.0 L 50.333333333333336 49.0 L 50.0 48.0 L 49.666666666666664 47.0 L 49.333333333333336 46.0 L 49.0 45.0 L 48.666666666666664 44.0 L 48.333333333333336 43.0 L 48.0 42.0 L 48.0 41.0 L 47.666666666666664 40.0 L 47.333333333333336 39.0 L 47.0 38.0 L 46.666666666666664 37.0 L 46.333333333333336 36.0 L 46.0 35.0 L 45.666666666666664 34.0 L 45.333333333333336 33.0 L 45.0 32.0 L 45.0 31.0 L 45.0 30.0 L 44.666666666666664 29.0 L 44.0 28.333333333333332 L 43.0 28.0 L 42.0 28.333333333333332 L 41.0 28.666666666666668 L 40.0 29.0 L 39.0 29.333333333333332 L 38.0 29.666666666666668 L 37.0 30.333333333333332 L 36.0 30.666666666666668 L 35.0 31.333333333333332 L 34.0 31.666666666666668 L 33.0 32.0 L 32.0 32.333333333333336 L 31.0 33.0 L 30.0 33.666666666666664 L 29.333333333333332 34.333333333333336 L 29.0 35.0 L 29.0 36.0 L 29.333333333333332 37.0 L 30.0 38.0 L 30.666666666666668 39.0 L 31.333333333333332 40.0 L 32.0 41.0 L 33.0 42.0 L 33.666666666666664 43.0 L 34.333333333333336 44.0 L 35.0 45.0 L 36.0 46.0 L 36.666666666666664 47.0 L 37.333333333333336 48.0 L 38.0 49.0 L 39.0 50.0 L 39.666666666666664 51.0 L 40.333333333333336 52.0 L 41.0 53.0 L 42.0 54.0 L 42.666666666666664 55.0 L 43.333333333333336 56.0 L 44.0 57.0 L 44.5 57.5 Z" stroke="none" fill="rgb(255,3,3)" />
<path d="M 97.0 35.5 L 97.0 35.0 L 96.66666666666667 34.0 L 96.0 33.0 L 95.0 32.333333333333336 L 94.0 32.0 L 93.0 32.0 L 92.0 32.0 L 91.33333333333333 32.333333333333336 L 90.66666666666667 33.0 L 90.33333333333333 34.0 L 89.66666666666667 35.0 L 89.33333333333333 36.0 L 88.66666666666667 37.0 L 88.33333333333333 38.0 L 88.0 39.0 L 87.66666666666667 40.0 L 87.33333333333333 41.0 L 86.66666666666667 42.0 L 86.33333333333333 43.0 L 85.66666666666667 44.0 L 85.33333333333333 45.0 L 85.0 46.0 L 84.66666666666667 47.0 L 84.33333333333333 48.0 L 83.66666666666667 49.0 L 83.33333333333333 50.0 L 82.66666666666667 51.0 L 82.33333333333333 52.0 L 82.0 53.0 L 81.66666666666667 54.0 L 81.33333333333333 55.0 L 80.66666666666667 56.0 L 80.33333333333333 57.0 L 79.66666666666667 58.0 L 79.33333333333333 59.0 L 79.0 60.0 L 78.66666666666667 61.0 L 78.33333333333333 62.0 L 77.66666666666667 63.0 L 77.33333333333333 64.0 L 76.66666666666667 65.0 L 76.33333333333333 66.0 L 76.33333333333333 67.0 L 77.0 67.66666666666667 L 78.0 68.33333333333333 L 79.0 69.0 L 80.0 69.66666666666667 L 81.0 70.0 L 81.66666666666667 69.66666666666667 L 82.33333333333333 69.0 L 82.66666666666667 68.0 L 83.33333333333333 67.0 L 83.66666666666667 66.0 L 84.33333333333333 65.0 L 84.66666666666667 64.0 L 85.0 63.0 L 85.33333333333333 62.0 L 85.66666666666667 61.0 L 86.33333333333333 60.0 L 86.66666666666667 59.0 L 87.33333333333333 58.0 L 87.66666666666667 57.0 L 88.0 56.0 L 88.33333333333333 55.0 L 88.66666666666667 54.0 L 89.33333333333333 53.0 L 89.66666666666667 52.0 L 90.33333333333333 51.0 L 90.66666666666667 50.0 L 91.0 49.0 L 91.33333333333333 48.0 L 91.66666666666667 47.0 L 92.33333333333333 46.0 L 92.66666666666667 45.0 L 93.33333333333333 44.0 L 93.66666666666667 43.0 L 94.0 42.0 L 94.33333333333333 41.0 L 94.66666666666667 40.0 L 95.33333333333333 39.0 L 95.66666666666667 38.0 L 96.33333333333333 37.0 L 96.5 36.5 Z" stroke="none" fill="rgb(219,0,0)" />
<path d="M 105.5 51.5 L 106.0 51.0 L 107.0 50.0 L 108.0 49.0 L 109.0 48.0 L 110.0 47.0 L 110.66666666666667 46.0 L 111.0 45.0 L 110.66666666666667 44.0 L 110.0 43.0 L 109.0 42.0 L 108.0 41.0 L 107.0 40.0 L 106.0 39.333333333333336 L 105.0 38.666666666666664 L 104.0 38.0 L 103.0 37.0 L 102.0 36.333333333333336 L 101.0 35.666666666666664 L 100.0 35.333333333333336 L 99.0 35.0 L 98.0 35.0 L 97.0 35.333333333333336 L 96.33333333333333 36.0 L 95.66666666666667 37.0 L 95.33333333333333 38.0 L 94.66666666666667 39.0 L 94.33333333333333 40.0 L 94.0 41.0 L 93.66666666666667 42.0 L 93.33333333333333 43.0 L 92.66666666666667 44.0 L 92.33333333333333 45.0 L 91.66666666666667 46.0 L 91.33333333333333 47.0 L 91.0 48.0 L 90.66666666666667 49.0 L 90.33333333333333 50.0 L 89.66666666666667 51.0 L 89.33333333333333 52.0 L 88.66666666666667 53.0 L 88.33333333333333 54.0 L 88.0 55.0 L 87.66666666666667 56.0 L 87.33333333333333 57.0 L 86.66666666666667 58.0 L 86.33333333333333 59.0 L 85.66666666666667 60.0 L 85.33333333333333 61.0 L 85.0 62.0 L 84.66666666666667 63.0 L 84.33333333333333 64.0 L 83.66666666666667 65.0 L 83.33333333333333 66.0 L 82.66666666666667 67.0 L 82.33333333333333 68.0 L 82.0 69.0 L 82.0 70.0 L 82.33333333333333 71.0 L 83.0 72.0 L 84.0 72.66666666666667 L 85.0 72.66666666666667 L 86.0 72.0 L 86.66666666666667 71.0 L 87.33333333333333 70.0 L 88.0 69.0 L 89.0 68.0 L 90.0 67.0 L 91.0 66.0 L 92.0 65.0 L 93.0 64.0 L 94.0 63.0 L 95.0 62.0 L 96.0 61.0 L 97.0 60.0 L 98.0 59.0 L 99.0 58.0 L 100.0 57.0 L 101.0 56.0 L 102.0 55.0 L 103.0 54.0 L 104.0 53.0 L 104.5 52.5 Z" stroke="none" fill="rgb(255,3,3)" />
<path d="M 36.5 57.5 L 37.0 58.0 L 37.666666666666664 59.0 L 38.333333333333336 60.0 L 39.0 61.0 L 40.0 62.0 L 40.666666666666664 63.0 L 41.333333333333336 64.0 L 42.0 65.0 L 43.0 66.0 L 43.666666666666664 67.0 L 44.333333333333336 68.0 L 45.0 69.0 L 46.0 69.66666666666667 L 47.0 70.0 L 48.0 69.66666666666667 L 49.0 69.0 L 50.0 68.33333333333333 L 51.0 67.66666666666667 L 51.666666666666664 67.0 L 51.666666666666664 66.0 L 51.0 65.0 L 50.0 64.0 L 49.333333333333336 63.0 L 48.666666666666664 62.0 L 48.0 61.0 L 47.0 60.0 L 46.333333333333336 59.0 L 45.666666666666664 58.0 L 45.0 57.0 L 44.0 56.0 L 43.333333333333336 55.0 L 42.666666666666664 54.0 L 42.0 53.0 L 41.0 52.0 L 40.333333333333336 51.0 L 39.666666666666664 50.0 L 39.0 49.0 L 38.0 48.0 L 37.333333333333336 47.0 L 36.666666666666664 46.0 L 36.0 45.0 L 35.0 44.0 L 34.333333333333336 43.0 L 33.666666666666664 42.0 L 33.0 41.0 L 32.0 40.0 L 31.333333333333332 39.0 L 30.666666666666668 38.0 L 30.0 37.0 L 29.0 36.333333333333336 L 28.0 36.0 L 27.0 36.0 L 26.0 36.333333333333336 L 25.0 36.666666666666664 L 24.333333333333332 37.333333333333336 L 23.666666666666668 38.0 L 23.333333333333332 39.0 L 23.333333333333332 40.0 L 24.0 41.0 L 25.0 42.0 L 25.666666666666668 43.0 L 26.333333333333332 44.0 L 27.0 45.0 L 28.0 46.0 L 28.666666666666668 47.0 L 29.333333333333332 48.0 L 30.0 49.0 L 31.0 50.0 L 31.666666666666668 51.0 L 32.333333333333336 52.0 L 33.0 53.0 L 34.0 54.0 L 34.666666666666664 55.0 L 35.333333333333336 56.0 L 35.5 56.5 Z" stroke="none" fill="rgb(219,0,0)" />
<path d="M 23.5 60.5 L 24.0 61.0 L 25.0 61.666666666666664 L 26.0 62.333333333333336 L 27.0 63.0 L 28.0 63.666666666666664 L 29.0 64.33333333333333 L 30.0 65.0 L 31.0 65.66666666666667 L 32.0 66.33333333333333 L 33.0 67.0 L 34.0 67.66666666666667 L 35.0 68.33333333333333 L 36.0 69.0 L 37.0 69.66666666666667 L 38.0 70.33333333333333 L 39.0 70.66666666666667 L 40.0 71.33333333333333 L 41.0 72.0 L 42.0 72.66666666666667 L 43.0 73.0 L 44.0 72.66666666666667 L 45.0 72.0 L 45.666666666666664 71.0 L 46.0 70.0 L 45.666666666666664 69.0 L 45.0 68.0 L 44.333333333333336 67.0 L 43.666666666666664 66.0 L 43.0 65.0 L 42.0 64.0 L 41.333333333333336 63.0 L 40.666666666666664 62.0 L 40.0 61.0 L 39.0 60.0 L 38.333333333333336 59.0 L 37.666666666666664 58.0 L 37.0 57.0 L 36.0 56.0 L 35.333333333333336 55.0 L 34.666666666666664 54.0 L 34.0 53.0 L 33.0 52.0 L 32.333333333333336 51.0 L 31.666666666666668 50.0 L 31.0 49.0 L 30.0 48.0 L 29.333333333333332 47.0 L 28.666666666666668 46.0 L 28.0 45.0 L 27.0 44.0 L 26.333333333333332 43.0 L 25.666666666666668 42.0 L 25.0 41.0 L 24.0 40.0 L 23.0 39.333333333333336 L 22.0 39.0 L 21.0 39.333333333333336 L 20.0 40.0 L 19.0 41.0 L 18.0 42.0 L 17.0 43.0 L 16.0 44.0 L 15.0 45.0 L 14.0 46.0 L 13.0 47.0 L 12.0 48.0 L 11.0 49.0 L 10.333333333333334 50.0 L 10.0 51.0 L 10.333333333333334 52.0 L 11.0 52.666666666666664 L 12.0 53.333333333333336 L 13.0 53.666666666666664 L 14.0 54.333333333333336 L 15.0 55.0 L 16.0 55.666666666666664 L 17.0 56.333333333333336 L 18.0 57.0 L 19.0 57.666666666666664 L 20.0 58.333333333333336 L 21.0 59.0 L 22.0 59.666666666666664 L 22.5 60.0 Z" stroke="none" fill="rgb(255,3,3)" />
<path d="M 105.5 60.5 L 106.0 60.0 L 107.0 59.0 L 108.0 58.0 L 109.0 57.0 L 110.0 56.0 L 111.0 55.0 L 112.0 54.0 L 113.0 53.0 L 114.0 52.0 L 114.66666666666667 51.0 L 115.0 50.0 L 115.0 49.0 L 114.66666666666667 48.0 L 114.0 47.0 L 113.0 46.0 L 112.0 45.333333333333336 L 111.0 45.333333333333336 L 110.0 46.0 L 109.0 47.0 L 108.0 48.0 L 107.0 49.0 L 106.0 50.0 L 105.0 51.0 L 104.0 52.0 L 103.0 53.0 L 102.0 54.0 L 101.0 55.0 L 100.0 56.0 L 99.0 57.0 L 98.0 58.0 L 97.0 59.0 L 96.0 60.0 L 95.0 61.0 L 94.0 62.0 L 93.0 63.0 L 92.0 64.0 L 91.0 65.0 L 90.0 66.0 L 89.0 67.0 L 88.0 68.0 L 87.33333333333333 69.0 L 86.66666666666667 70.0 L 86.0 71.0 L 85.33333333333333 72.0 L 85.0 73.0 L 85.33333333333333 74.0 L 86.0 75.0 L 87.0 75.66666666666667 L 88.0 76.0 L 89.0 76.0 L 90.0 75.66666666666667 L 91.0 75.33333333333333 L 92.0 74.66666666666667 L 93.0 74.0 L 94.0 73.33333333333333 L 95.0 72.66666666666667 L 96.0 72.33333333333333 L 97.0 71.66666666666667 L 98.0 71.0 L 98.66666666666667 70.0 L 98.66666666666667 69.0 L 98.66666666666667 68.0 L 99.0 67.0 L 100.0 66.0 L 101.0 65.0 L 102.0 64.0 L 103.0 63.0 L 104.0 62.0 L 104.5 61.5 Z" stroke="none" fill="rgb(219,0,0)" />
<path d="M 108.5 64.5 L 109.0 64.33333333333333 L 110.0 63.666666666666664 L 111.0 63.0 L 112.0 62.333333333333336 L 113.0 61.666666666666664 L 114.0 61.333333333333336 L 115.0 60.666666666666664 L 116.0 60.0 L 117.0 59.333333333333336 L 118.0 58.666666666666664 L 119.0 58.333333333333336 L 119.66666666666667 57.666666666666664 L 120.0 57.0 L 120.0 56.0 L 120.0 55.0 L 119.66666666666667 54.0 L 119.0 53.0 L 118.33333333333333 52.0 L 117.66666666666667 51.0 L 117.0 50.333333333333336 L 116.0 50.0 L 115.0 50.333333333333336 L 114.0 51.0 L 113.0 52.0 L 112.0 53.0 L 111.0 54.0 L 110.0 55.0 L 109.0 56.0 L 108.0 57.0 L 107.0 58.0 L 106.0 59.0 L 105.0 60.0 L 104.0 61.0 L 103.0 62.0 L 102.0 63.0 L 101.0 64.0 L 100.0 65.0 L 99.0 66.0 L 98.33333333333333 67.0 L 98.0 68.0 L 98.33333333333333 68.66666666666667 L 99.0 69.0 L 100.0 69.0 L 101.0 68.66666666666667 L 102.0 68.33333333333333 L 103.0 67.66666666666667 L 104.0 67.33333333333333 L 105.0 66.66666666666667 L 106.0 66.0 L 107.0 65.33333333333333 L 107.5 65.0 Z" stroke="none" fill="rgb(255,3,3)" />
<path d="M 29.5 72.0 L 30.0 72.33333333333333 L 31.0 73.0 L 32.0 73.66666666666667 L 33.0 74.33333333333333 L 34.0 75.0 L 35.0 75.66666666666667 L 36.0 76.33333333333333 L 37.0 77.0 L 38.0 78.0 L 39.0 78.66666666666667 L 39.666666666666664 78.66666666666667 L 40.333333333333336 78.0 L 40.666666666666664 77.0 L 41.333333333333336 76.0 L 42.0 75.0 L 42.666666666666664 74.0 L 42.666666666666664 73.0 L 42.0 72.0 L 41.0 71.33333333333333 L 40.0 70.66666666666667 L 39.0 70.33333333333333 L 38.0 69.66666666666667 L 37.0 69.0 L 36.0 68.33333333333333 L 35.0 67.66666666666667 L 34.0 67.0 L 33.0 66.33333333333333 L 32.0 65.66666666666667 L 31.0 65.0 L 30.0 64.33333333333333 L 29.0 63.666666666666664 L 28.0 63.0 L 27.0 62.333333333333336 L 26.0 61.666666666666664 L 25.0 61.0 L 24.0 60.333333333333336 L 23.0 59.666666666666664 L 22.0 59.0 L 21.0 58.333333333333336 L 20.0 57.666666666666664 L 19.0 57.0 L 18.0 56.333333333333336 L 17.0 55.666666666666664 L 16.0 55.0 L 15.0 54.333333333333336 L 14.0 53.666666666666664 L 13.0 53.333333333333336 L 12.0 52.666666666666664 L 11.0 52.333333333333336 L 10.0 52.0 L 9.0 52.333333333333336 L 8.333333333333334 53.0 L 7.666666666666667 54.0 L 7.333333333333333 55.0 L 7.0 56.0 L 7.333333333333333 57.0 L 8.0 58.0 L 9.0 58.666666666666664 L 10.0 59.333333333333336 L 11.0 60.0 L 12.0 60.666666666666664 L 13.0 61.333333333333336 L 14.0 62.0 L 15.0 62.666666666666664 L 16.0 63.333333333333336 L 17.0 64.0 L 18.0 64.66666666666667 L 19.0 65.33333333333333 L 20.0 66.0 L 21.0 66.66666666666667 L 22.0 67.33333333333333 L 23.0 68.0 L 24.0 68.66666666666667 L 25.0 69.33333333333333 L 26.0 69.66666666666667 L 27.0 70.33333333333333 L 28.0 71.0 L 28.5 71.5 Z" stroke="none" fill="rgb(219,0,0)" />
<path d="M 20.5 74.5 L 21.0 74.66666666666667 L 22.0 75.33333333333333 L 23.0 75.66666666666667 L 24.0 76.33333333333333 L 25.0 76.66666666666667 L 26.0 77.33333333333333 L 27.0 77.66666666666667 L 28.0 78.33333333333333 L 29.0 78.66666666666667 L 30.0 79.33333333333333 L 31.0 80.0 L 32.0 80.66666666666667 L 33.0 81.33333333333333 L 34.0 81.66666666666667 L 35.0 82.0 L 36.0 82.0 L 37.0 81.66666666666667 L 38.0 81.0 L 38.666666666666664 80.0 L 39.0 79.0 L 38.666666666666664 78.0 L 38.0 77.0 L 37.0 76.33333333333333 L 36.0 75.66666666666667 L 35.0 75.0 L 34.0 74.33333333333333 L 33.0 73.66666666666667 L 32.0 73.0 L 31.0 72.33333333333333 L 30.0 71.66666666666667 L 29.0 71.0 L 28.0 70.33333333333333 L 27.0 69.66666666666667 L 26.0 69.33333333333333 L 25.0 68.66666666666667 L 24.0 68.0 L 23.0 67.33333333333333 L 22.0 66.66666666666667 L 21.0 66.0 L 20.0 65.33333333333333 L 19.0 64.66666666666667 L 18.0 64.0 L 17.0 63.333333333333336 L 16.0 62.666666666666664 L 15.0 62.0 L 14.0 61.333333333333336 L 13.0 60.666666666666664 L 12.0 60.0 L 11.0 59.333333333333336 L 10.0 58.666666666666664 L 9.0 58.0 L 8.0 57.333333333333336 L 7.0 57.0 L 6.0 57.333333333333336 L 5.333333333333333 58.0 L 4.666666666666667 59.0 L 4.333333333333333 60.0 L 3.6666666666666665 61.0 L 3.3333333333333335 62.0 L 3.0 63.0 L 3.0 64.0 L 3.3333333333333335 64.66666666666667 L 4.0 65.33333333333333 L 5.0 65.66666666666667 L 6.0 66.33333333333333 L 7.0 67.0 L 8.0 67.66666666666667 L 9.0 68.33333333333333 L 10.0 68.66666666666667 L 11.0 69.33333333333333 L 12.0 69.66666666666667 L 13.0 70.33333333333333 L 14.0 70.66666666666667 L 15.0 71.33333333333333 L 16.0 71.66666666666667 L 17.0 72.33333333333333 L 18.0 73.0 L 19.0 73.66666666666667 L 19.5 74.0 Z" stroke="none" fill="rgb(255,3,3)" />
<path d="M 110.5 73.0 L 111.0 72.66666666666667 L 112.0 72.0 L 113.0 71.33333333333333 L 114.0 70.66666666666667 L 115.0 70.33333333333333 L 116.0 69.66666666666667 L 117.0 69.33333333333333 L 118.0 68.66666666666667 L 119.0 68.33333333333333 L 120.0 67.66666666666667 L 121.0 67.33333333333333 L 122.0 66.66666666666667 L 123.0 66.0 L 124.0 65.33333333333333 L 124.66666666666667 64.66666666666667 L 125.0 64.0 L 125.0 63.0 L 124.66666666666667 62.0 L 124.33333333333333 61.0 L 123.66666666666667 60.0 L 123.33333333333333 59.0 L 122.66666666666667 58.0 L 122.0 57.333333333333336 L 121.0 57.0 L 120.33333333333333 57.333333333333336 L 120.0 58.0 L 120.0 59.0 L 120.33333333333333 60.0 L 120.66666666666667 61.0 L 121.0 62.0 L 120.66666666666667 63.0 L 120.0 64.0 L 119.0 65.0 L 118.0 65.66666666666667 L 117.0 66.33333333333333 L 116.0 66.66666666666667 L 115.0 67.33333333333333 L 114.0 67.66666666666667 L 113.0 68.33333333333333 L 112.0 69.0 L 111.0 69.66666666666667 L 110.0 70.33333333333333 L 109.0 70.66666666666667 L 108.0 71.33333333333333 L 107.0 71.66666666666667 L 106.0 72.33333333333333 L 105.0 72.66666666666667 L 104.0 73.33333333333333 L 103.0 73.66666666666667 L 102.0 74.33333333333333 L 101.0 74.66666666666667 L 100.0 75.33333333333333 L 99.0 76.0 L 98.0 76.66666666666667 L 97.0 77.33333333333333 L 96.0 77.66666666666667 L 95.0 78.33333333333333 L 94.0 78.66666666666667 L 93.0 79.33333333333333 L 92.0 79.66666666666667 L 91.0 80.33333333333333 L 90.0 80.66666666666667 L 89.0 81.33333333333333 L 88.0 82.0 L 87.0 82.66666666666667 L 86.0 83.33333333333333 L 85.0 83.66666666666667 L 84.0 84.33333333333333 L 83.0 84.66666666666667 L 82.0 85.33333333333333 L 81.0 85.66666666666667 L 80.0 86.33333333333333 L 79.0 86.66666666666667 L 78.0 87.33333333333333 L 77.0 87.66666666666667 L 76.0 88.33333333333333 L 75.0 89.0 L 74.0 89.66666666666667 L 73.0 90.33333333333333 L 72.0 90.66666666666667 L 71.0 91.33333333333333 L 70.0 91.66666666666667 L 69.0 92.33333333333333 L 68.0 92.66666666666667 L 67.0 93.0 L 66.0 93.0 L 65.33333333333333 93.33333333333333 L 65.0 94.0 L 65.33333333333333 95.0 L 66.0 95.66666666666667 L 67.0 96.0 L 68.0 95.66666666666667 L 69.0 95.33333333333333 L 70.0 94.66666666666667 L 71.0 94.33333333333333 L 72.0 93.66666666666667 L 73.0 93.33333333333333 L 74.0 92.66666666666667 L 75.0 92.33333333333333 L 76.0 91.66666666666667 L 77.0 91.0 L 78.0 90.33333333333333 L 79.0 89.66666666666667 L 80.0 89.33333333333333 L 81.0 88.66666666666667 L 82.0 88.33333333333333 L 83.0 87.66666666666667 L 84.0 87.33333333333333 L 85.0 86.66666666666667 L 86.0 86.33333333333333 L 87.0 85.66666666666667 L 88.0 85.0 L 89.0 84.33333333333333 L 90.0 83.66666666666667 L 91.0 83.33333333333333 L 92.0 82.66666666666667 L 93.0 82.33333333333333 L 94.0 81.66666666666667 L 95.0 81.33333333333333 L 96.0 80.66666666666667 L 97.0 80.33333333333333 L 98.0 79.66666666666667 L 99.0 79.33333333333333 L 100.0 78.66666666666667 L 101.0 78.0 L 102.0 77.33333333333333 L 103.0 76.66666666666667 L 104.0 76.33333333333333 L 105.0 75.66666666666667 L 106.0 75.33333333333333 L 107.0 74.66666666666667 L 108.0 74.33333333333333 L 109.0 73.66666666666667 L 109.5 73.5 Z" stroke="none" fill="rgb(242,150,87)" />
<path d="M 72.5 91.0 L 73.0 90.66666666666667 L 74.0 90.33333333333333 L 75.0 89.66666666666667 L 76.0 89.0 L 77.0 88.33333333333333 L 78.0 87.66666666666667 L 79.0 87.33333333333333 L 80.0 86.66666666666667 L 81.0 86.33333333333333 L 82.0 85.66666666666667 L 83.0 85.33333333333333 L 84.0 84.66666666666667 L 85.0 84.33333333333333 L 86.0 83.66666666666667 L 87.0 83.33333333333333 L 88.0 82.66666666666667 L 89.0 82.0 L 90.0 81.33333333333333 L 91.0 80.66666666666667 L 92.0 80.33333333333333 L 93.0 79.66666666666667 L 94.0 79.33333333333333 L 95.0 78.66666666666667 L 96.0 78.33333333333333 L 97.0 77.66666666666667 L 98.0 77.33333333333333 L 99.0 76.66666666666667 L 100.0 76.0 L 101.0 75.33333333333333 L 102.0 74.66666666666667 L 103.0 74.33333333333333 L 104.0 73.66666666666667 L 105.0 73.33333333333333 L 106.0 72.66666666666667 L 107.0 72.33333333333333 L 108.0 71.66666666666667 L 109.0 71.33333333333333 L 110.0 70.66666666666667 L 111.0 70.33333333333333 L 112.0 69.66666666666667 L 113.0 69.0 L 114.0 68.33333333333333 L 115.0 67.66666666666667 L 116.0 67.33333333333333 L 117.0 66.66666666666667 L 118.0 66.33333333333333 L 119.0 65.66666666666667 L 120.0 65.0 L 120.66666666666667 64.0 L 121.0 63.0 L 121.0 62.0 L 121.0 61.0 L 120.66666666666667 60.0 L 120.33333333333333 59.0 L 119.66666666666667 58.333333333333336 L 119.0 58.0 L 118.0 58.333333333333336 L 117.0 58.666666666666664 L 116.0 59.333333333333336 L 115.0 60.0 L 114.0 60.666666666666664 L 113.0 61.333333333333336 L 112.0 61.666666666666664 L 111.0 62.333333333333336 L 110.0 63.0 L 109.0 63.666666666666664 L 108.0 64.33333333333333 L 107.0 64.66666666666667 L 106.0 65.33333333333333 L 105.0 66.0 L 104.0 66.66666666666667 L 103.0 67.33333333333333 L 102.0 67.66666666666667 L 101.0 68.33333333333333 L 100.0 68.66666666666667 L 99.0 69.33333333333333 L 98.0 70.0 L 97.0 71.0 L 96.0 71.66666666666667 L 95.0 72.33333333333333 L 94.0 72.66666666666667 L 93.0 73.33333333333333 L 92.0 74.0 L 91.0 74.66666666666667 L 90.0 75.33333333333333 L 89.0 75.66666666666667 L 88.0 76.0 L 87.0 76.0 L 86.0 76.33333333333333 L 85.0 77.0 L 84.0 77.66666666666667 L 83.0 78.33333333333333 L 82.0 79.0 L 81.0 79.66666666666667 L 80.0 80.0 L 79.0 80.33333333333333 L 78.0 81.0 L 77.0 82.0 L 76.0 83.0 L 75.0 84.0 L 74.0 84.66666666666667 L 73.0 85.33333333333333 L 72.0 86.0 L 71.0 86.66666666666667 L 70.0 87.33333333333333 L 69.0 88.0 L 68.0 88.66666666666667 L 67.0 89.33333333333333 L 66.0 89.66666666666667 L 65.33333333333333 90.33333333333333 L 65.0 91.0 L 65.0 92.0 L 65.33333333333333 92.66666666666667 L 66.0 93.0 L 67.0 93.0 L 68.0 93.0 L 69.0 92.66666666666667 L 70.0 92.33333333333333 L 71.0 91.66666666666667 L 71.5 91.5 Z" stroke="none" fill="rgb(255,204,128)" />
<path d="M 59.5 75.5 L 59.666666666666664 76.0 L 60.333333333333336 77.0 L 61.0 77.66666666666667 L 61.666666666666664 77.66666666666667 L 62.0 77.0 L 62.0 76.0 L 62.0 75.0 L 62.0 74.0 L 62.0 73.0 L 62.0 72.0 L 62.0 71.0 L 62.0 70.0 L 62.0 69.0 L 62.0 68.0 L 62.0 67.0 L 62.0 66.0 L 62.0 65.0 L 61.666666666666664 64.33333333333333 L 61.0 64.0 L 60.0 64.0 L 59.0 64.33333333333333 L 58.0 64.66666666666667 L 57.333333333333336 65.33333333333333 L 57.0 66.0 L 57.0 67.0 L 57.0 68.0 L 57.333333333333336 69.0 L 57.666666666666664 70.0 L 58.0 71.0 L 58.333333333333336 72.0 L 58.666666666666664 73.0 L 59.0 74.0 L 59.0 74.5 Z" stroke="none" fill="rgb(0,0,0)" />
<path d="M 59.5 92.5 L 60.0 92.66666666666667 L 61.0 93.33333333333333 L 62.0 93.66666666666667 L 63.0 93.66666666666667 L 64.0 93.33333333333333 L 64.66666666666667 92.66666666666667 L 65.0 92.0 L 65.33333333333333 91.0 L 66.0 90.33333333333333 L 67.0 89.66666666666667 L 68.0 89.33333333333333 L 69.0 88.66666666666667 L 70.0 88.0 L 71.0 87.33333333333333 L 72.0 86.66666666666667 L 73.0 86.0 L 74.0 85.33333333333333 L 75.0 84.66666666666667 L 76.0 84.0 L 77.0 83.0 L 78.0 82.0 L 79.0 81.0 L 80.0 80.0 L 81.0 79.0 L 82.0 78.0 L 82.66666666666667 77.0 L 83.33333333333333 76.0 L 84.0 75.0 L 84.66666666666667 74.0 L 84.66666666666667 73.0 L 84.0 72.0 L 83.0 71.0 L 82.0 70.33333333333333 L 81.0 70.33333333333333 L 80.0 71.0 L 79.0 72.0 L 78.0 73.0 L 77.0 74.0 L 76.0 74.33333333333333 L 75.33333333333333 74.0 L 75.0 73.0 L 75.33333333333333 72.0 L 75.66666666666667 71.0 L 76.0 70.0 L 76.33333333333333 69.0 L 76.66666666666667 68.0 L 76.66666666666667 67.0 L 76.0 66.33333333333333 L 75.0 65.66666666666667 L 74.0 65.33333333333333 L 73.0 65.0 L 72.33333333333333 65.33333333333333 L 71.66666666666667 66.0 L 71.33333333333333 67.0 L 70.66666666666667 68.0 L 70.33333333333333 69.0 L 70.0 70.0 L 69.66666666666667 71.0 L 69.33333333333333 72.0 L 69.0 73.0 L 68.66666666666667 74.0 L 68.33333333333333 75.0 L 68.0 76.0 L 67.66666666666667 77.0 L 67.0 77.33333333333333 L 66.33333333333333 77.0 L 66.0 76.0 L 66.0 75.0 L 66.0 74.0 L 66.0 73.0 L 66.0 72.0 L 66.0 71.0 L 66.0 70.0 L 66.0 69.0 L 66.0 68.0 L 66.0 67.0 L 66.0 66.0 L 66.0 65.0 L 65.66666666666667 64.33333333333333 L 65.0 64.0 L 64.0 64.0 L 63.0 64.0 L 62.333333333333336 64.33333333333333 L 62.0 65.0 L 62.0 66.0 L 62.0 67.0 L 62.0 68.0 L 62.0 69.0 L 62.0 70.0 L 62.0 71.0 L 62.0 72.0 L 62.0 73.0 L 62.0 74.0 L 62.0 75.0 L 61.666666666666664 76.0 L 61.0 76.33333333333333 L 60.333333333333336 76.0 L 59.666666666666664 75.0 L 59.333333333333336 74.0 L 59.0 73.0 L 58.666666666666664 72.0 L 58.333333333333336 71.0 L 58.0 70.0 L 57.666666666666664 69.0 L 57.333333333333336 68.0 L 57.0 67.0 L 56.666666666666664 66.0 L 56.0 65.33333333333333 L 55.0 65.0 L 54.0 65.33333333333333 L 53.0 65.66666666666667 L 52.0 66.33333333333333 L 51.333333333333336 67.0 L 51.333333333333336 68.0 L 51.666666666666664 69.0 L 52.0 70.0 L 52.333333333333336 71.0 L 52.666666666666664 72.0 L 53.0 73.0 L 52.666666666666664 74.0 L 52.0 74.33333333333333 L 51.0 74.0 L 50.0 73.0 L 49.0 72.0 L 48.0 71.0 L 47.0 70.33333333333333 L 46.0 70.33333333333333 L 45.0 71.0 L 44.0 72.0 L 43.333333333333336 73.0 L 43.333333333333336 74.0 L 44.0 75.0 L 44.666666666666664 76.0 L 44.666666666666664 77.0 L 44.0 77.33333333333333 L 43.0 77.0 L 42.0 76.33333333333333 L 41.0 76.33333333333333 L 40.333333333333336 77.0 L 40.0 78.0 L 40.333333333333336 78.66666666666667 L 41.0 79.33333333333333 L 42.0 80.0 L 43.0 80.66666666666667 L 44.0 81.33333333333333 L 45.0 82.0 L 46.0 82.66666666666667 L 47.0 83.33333333333333 L 48.0 83.66666666666667 L 49.0 84.33333333333333 L 50.0 84.66666666666667 L 51.0 85.0 L 52.0 85.33333333333333 L 53.0 86.0 L 54.0 87.0 L 55.0 88.0 L 56.0 89.0 L 57.0 90.0 L 58.0 91.0 L 58.5 91.5 Z" stroke="none" fill="rgb(242,150,87)" />
<path d="M 66.5 79.0 L 67.0 78.66666666666667 L 67.66666666666667 78.0 L 68.0 77.0 L 68.33333333333333 76.0 L 68.66666666666667 75.0 L 69.0 74.0 L 69.33333333333333 73.0 L 69.66666666666667 72.0 L 70.0 71.0 L 70.33333333333333 70.0 L 70.66666666666667 69.0 L 71.33333333333333 68.0 L 71.66666666666667 67.0 L 72.0 66.0 L 71.66666666666667 65.33333333333333 L 71.0 65.0 L 70.0 64.66666666666667 L 69.0 64.33333333333333 L 68.0 64.0 L 67.0 64.0 L 66.33333333333333 64.33333333333333 L 66.0 65.0 L 66.0 66.0 L 66.0 67.0 L 66.0 68.0 L 66.0 69.0 L 66.0 70.0 L 66.0 71.0 L 66.0 72.0 L 66.0 73.0 L 66.0 74.0 L 66.0 75.0 L 66.0 76.0 L 66.0 77.0 L 66.0 78.0 L 66.0 78.5 Z" stroke="none" fill="rgb(0,0,0)" />
<path d="M 50.5 74.5 L 51.0 75.0 L 51.666666666666664 76.0 L 52.333333333333336 77.0 L 53.0 78.0 L 54.0 78.66666666666667 L 54.666666666666664 78.66666666666667 L 55.0 78.0 L 55.0 77.0 L 54.666666666666664 76.0 L 54.333333333333336 75.0 L 53.666666666666664 74.0 L 53.333333333333336 73.0 L 53.0 72.0 L 52.666666666666664 71.0 L 52.333333333333336 70.0 L 52.0 69.0 L 51.666666666666664 68.33333333333333 L 51.0 68.0 L 50.0 68.0 L 49.0 68.33333333333333 L 48.0 69.0 L 47.333333333333336 70.0 L 47.333333333333336 71.0 L 48.0 72.0 L 49.0 73.0 L 49.5 73.5 Z" stroke="none" fill="rgb(0,0,0)" />
<path d="M 75.5 77.5 L 75.66666666666667 77.0 L 76.33333333333333 76.0 L 77.0 75.0 L 78.0 74.0 L 79.0 73.0 L 80.0 72.0 L 80.66666666666667 71.0 L 80.66666666666667 70.0 L 80.0 69.0 L 79.0 68.33333333333333 L 78.0 68.0 L 77.0 68.0 L 76.33333333333333 68.33333333333333 L 76.0 69.0 L 75.66666666666667 70.0 L 75.33333333333333 71.0 L 75.0 72.0 L 74.66666666666667 73.0 L 74.33333333333333 74.0 L 73.66666666666667 75.0 L 73.33333333333333 76.0 L 73.0 77.0 L 73.0 78.0 L 73.33333333333333 78.66666666666667 L 74.0 78.66666666666667 L 74.5 78.5 Z" stroke="none" fill="rgb(0,0,0)" />
<path d="M 42.5 77.5 L 43.0 77.66666666666667 L 44.0 78.33333333333333 L 45.0 78.66666666666667 L 46.0 79.0 L 46.666666666666664 78.66666666666667 L 46.666666666666664 78.0 L 46.0 77.0 L 45.333333333333336 76.0 L 44.666666666666664 75.0 L 44.0 74.33333333333333 L 43.0 74.0 L 42.0 74.33333333333333 L 41.333333333333336 75.0 L 41.333333333333336 76.0 L 41.5 76.5 Z" stroke="none" fill="rgb(0,0,0)" />
<path d="M 84.5 78.0 L 85.0 77.66666666666667 L 86.0 77.0 L 86.66666666666667 76.0 L 86.66666666666667 75.0 L 86.0 74.33333333333333 L 85.0 74.0 L 84.0 74.33333333333333 L 83.33333333333333 75.0 L 82.66666666666667 76.0 L 82.0 77.0 L 81.0 78.0 L 80.33333333333333 79.0 L 80.33333333333333 79.66666666666667 L 81.0 80.0 L 82.0 79.66666666666667 L 83.0 79.0 L 83.5 78.5 Z" stroke="none" fill="rgb(0,0,0)" />
<path d="M 58.5 94.0 L 59.0 93.66666666666667 L 59.666666666666664 93.0 L 59.666666666666664 92.0 L 59.0 91.0 L 58.0 90.0 L 57.0 89.0 L 56.0 88.0 L 55.0 87.0 L 54.0 86.0 L 53.0 85.33333333333333 L 52.0 85.0 L 51.0 84.66666666666667 L 50.0 84.33333333333333 L 49.0 83.66666666666667 L 48.0 83.33333333333333 L 47.0 82.66666666666667 L 46.0 82.0 L 45.0 81.33333333333333 L 44.0 80.66666666666667 L 43.0 80.0 L 42.0 79.33333333333333 L 41.0 79.0 L 40.0 79.0 L 39.0 79.33333333333333 L 38.0 80.0 L 37.333333333333336 81.0 L 37.0 82.0 L 37.333333333333336 83.0 L 38.0 83.66666666666667 L 39.0 84.33333333333333 L 40.0 84.66666666666667 L 41.0 85.33333333333333 L 42.0 86.0 L 43.0 86.66666666666667 L 44.0 87.33333333333333 L 45.0 87.66666666666667 L 46.0 88.33333333333333 L 47.0 88.66666666666667 L 48.0 89.33333333333333 L 49.0 89.66666666666667 L 50.0 90.33333333333333 L 51.0 90.66666666666667 L 52.0 91.33333333333333 L 53.0 92.0 L 54.0 92.66666666666667 L 55.0 93.33333333333333 L 56.0 93.66666666666667 L 57.0 94.0 L 57.5 94.0 Z" stroke="none" fill="rgb(211,99,55)" />
<path d="M 59.5 98.0 L 60.0 98.0 L 61.0 98.0 L 62.0 98.0 L 63.0 97.66666666666667 L 63.666666666666664 97.0 L 64.0 96.0 L 63.666666666666664 95.0 L 63.0 94.0 L 62.0 93.33333333333333 L 61.0 93.0 L 60.0 93.0 L 59.0 93.33333333333333 L 58.0 93.66666666666667 L 57.0 94.0 L 56.0 94.33333333333333 L 55.0 95.0 L 54.0 96.0 L 53.0 96.66666666666667 L 52.0 97.33333333333333 L 51.0 98.0 L 50.333333333333336 99.0 L 50.0 100.0 L 50.333333333333336 101.0 L 51.0 102.0 L 52.0 102.66666666666667 L 53.0 103.0 L 53.666666666666664 102.66666666666667 L 54.0 102.0 L 54.333333333333336 101.0 L 55.0 100.33333333333333 L 56.0 99.66666666666667 L 57.0 99.33333333333333 L 58.0 98.66666666666667 L 58.5 98.5 Z" stroke="none" fill="rgb(255,204,128)" />
<path d="M 72.5 108.5 L 73.0 108.0 L 74.0 107.0 L 75.0 106.0 L 76.0 105.0 L 76.66666666666667 104.0 L 77.33333333333333 103.0 L 77.66666666666667 102.0 L 78.0 101.0 L 78.0 100.0 L 77.66666666666667 99.0 L 77.0 98.0 L 76.0 97.33333333333333 L 75.0 96.66666666666667 L 74.0 96.0 L 73.0 95.0 L 72.0 94.33333333333333 L 71.0 94.0 L 70.0 94.33333333333333 L 69.0 94.66666666666667 L 68.0 95.33333333333333 L 67.0 95.33333333333333 L 66.0 95.0 L 65.33333333333333 94.0 L 64.66666666666667 93.33333333333333 L 64.0 93.0 L 63.333333333333336 93.33333333333333 L 63.0 94.0 L 63.333333333333336 95.0 L 63.333333333333336 96.0 L 63.0 97.0 L 62.0 97.66666666666667 L 61.0 98.33333333333333 L 60.0 99.0 L 59.0 99.66666666666667 L 58.0 100.33333333333333 L 57.0 101.0 L 56.0 101.66666666666667 L 55.0 102.0 L 54.0 102.33333333333333 L 53.0 102.66666666666667 L 52.333333333333336 103.33333333333333 L 52.0 104.0 L 52.333333333333336 105.0 L 52.666666666666664 106.0 L 53.333333333333336 106.66666666666667 L 54.0 107.33333333333333 L 55.0 108.0 L 56.0 108.66666666666667 L 57.0 109.33333333333333 L 58.0 109.66666666666667 L 59.0 110.0 L 60.0 110.33333333333333 L 61.0 110.66666666666667 L 62.0 111.0 L 63.0 111.0 L 64.0 111.0 L 65.0 111.0 L 66.0 111.0 L 67.0 110.66666666666667 L 68.0 110.33333333333333 L 69.0 110.0 L 70.0 109.66666666666667 L 71.0 109.33333333333333 L 71.5 109.0 Z" stroke="none" fill="rgb(211,99,55)" />
<path d="M 59.5 100.0 L 60.0 99.66666666666667 L 60.666666666666664 99.0 L 61.0 98.0 L 60.666666666666664 97.33333333333333 L 60.0 97.33333333333333 L 59.0 97.66666666666667 L 58.0 98.33333333333333 L 57.0 98.66666666666667 L 56.0 99.33333333333333 L 55.0 99.66666666666667 L 54.333333333333336 100.33333333333333 L 54.0 101.0 L 54.333333333333336 101.66666666666667 L 55.0 102.0 L 56.0 102.0 L 57.0 101.66666666666667 L 58.0 101.0 L 58.5 100.5 Z" stroke="none" fill="rgb(242,150,87)" />
</svg>
