<?xml version="1.0" encoding="UTF-8" standalone="no"?>
<!DOCTYPE svg PUBLIC "-//W3C//DTD SVG 1.1//EN"
"http://www.w3.org/Graphics/SVG/1.1/DTD/svg11.dtd">
<svg width="128" height="128" xmlns="http://www.w3.org/2000/svg" version="1.1">
<path d="M 88.5 48.0 L 89.0 48.333333333333336 L 90.0 48.666666666666664 L 91.0 49.0 L 92.0 49.333333333333336 L 93.0 49.666666666666664 L 94.0 50.0 L 95.0 50.333333333333336 L 96.0 51.0 L 97.0 51.666666666666664 L 98.0 52.333333333333336 L 99.0 53.0 L 100.0 54.0 L 101.0 55.0 L 102.0 56.0 L 103.0 57.0 L 104.0 58.0 L 105.0 59.0 L 105.66666666666667 60.0 L 106.33333333333333 61.0 L 106.66666666666667 62.0 L 107.33333333333333 63.0 L 107.66666666666667 64.0 L 108.0 65.0 L 108.33333333333333 66.0 L 108.66666666666667 67.0 L 109.0 68.0 L 109.33333333333333 69.0 L 109.66666666666667 70.0 L 110.0 71.0 L 110.0 72.0 L 110.0 73.0 L 110.0 74.0 L 110.33333333333333 75.0 L 110.66666666666667 76.0 L 111.0 77.0 L 111.0 78.0 L 111.0 79.0 L 111.0 80.0 L 111.0 81.0 L 111.33333333333333 82.0 L 112.0 82.66666666666667 L 113.0 83.33333333333333 L 114.0 83.66666666666667 L 115.0 84.33333333333333 L 116.0 84.66666666666667 L 117.0 85.33333333333333 L 118.0 86.0 L 119.0 87.0 L 120.0 88.0 L 121.0 89.0 L 122.0 90.0 L 123.0 91.0 L 124.0 92.0 L 124.66666666666667 93.0 L 125.33333333333333 94.0 L 125.66666666666667 95.0 L 126.33333333333333 96.0 L 126.66666666666667 97.0 L 127.0 98.0 L 127.0 99.0 L 127.33333333333333 99.66666666666667 L 127.66666666666667 99.66666666666667 L 128.0 99.0 L 128.0 98.0 L 128.0 97.0 L 128.0 96.0 L 128.0 95.0 L 128.0 94.0 L 128.0 93.0 L 128.0 92.0 L 128.0 91.0 L 128.0 90.0 L 128.0 89.0 L 128.0 88.0 L 128.0 87.0 L 128.0 86.0 L 128.0 85.0 L 128.0 84.0 L 128.0 83.0 L 128.0 82.0 L 128.0 81.0 L 128.0 80.0 L 128.0 79.0 L 128.0 78.0 L 128.0 77.0 L 128.0 76.0 L 128.0 75.0 L 128.0 74.0 L 128.0 73.0 L 128.0 72.0 L 128.0 71.0 L 128.0 70.0 L 128.0 69.0 L 128.0 68.0 L 128.0 67.0 L 128.0 66.0 L 128.0 65.0 L 128.0 64.0 L 128.0 63.0 L 128.0 62.0 L 128.0 61.0 L 128.0 60.0 L 128.0 59.0 L 128.0 58.0 L 128.0 57.0 L 128.0 56.0 L 128.0 55.0 L 128.0 54.0 L 128.0 53.0 L 128.0 52.0 L 128.0 51.0 L 128.0 50.0 L 128.0 49.0 L 128.0 48.0 L 128.0 47.0 L 128.0 46.0 L 128.0 45.0 L 128.0 44.0 L 128.0 43.0 L 128.0 42.0 L 128.0 41.0 L 128.0 40.0 L 128.0 39.0 L 128.0 38.0 L 128.0 37.0 L 128.0 36.0 L 128.0 35.0 L 128.0 34.0 L 128.0 33.0 L 128.0 32.0 L 128.0 31.0 L 128.0 30.0 L 128.0 29.0 L 128.0 28.0 L 128.0 27.0 L 128.0 26.0 L 128.0 25.0 L 128.0 24.0 L 128.0 23.0 L 128.0 22.0 L 128.0 21.0 L 128.0 20.0 L 128.0 19.0 L 128.0 18.0 L 128.0 17.0 L 128.0 16.0 L 128.0 15.0 L 128.0 14.0 L 128.0 13.0 L 128.0 12.0 L 128.0 11.0 L 128.0 10.0 L 128.0 9.0 L 128.0 8.0 L 128.0 7.0 L 128.0 6.0 L 128.0 5.0 L 128.0 4.0 L 128.0 3.0 L 128.0 2.0 L 128.0 1.0 L 127.66666666666667 0.3333333333333333 L 127.0 0.0 L 126.0 0.0 L 125.0 0.0 L 124.0 0.0 L 123.0 0.0 L 122.0 0.0 L 121.0 0.0 L 120.0 0.0 L 119.0 0.0 L 118.0 0.0 L 117.0 0.0 L 116.0 0.0 L 115.0 0.0 L 114.0 0.0 L 113.0 0.0 L 112.0 0.0 L 111.0 0.0 L 110.0 0.0 L 109.0 0.0 L 108.0 0.0 L 107.0 0.0 L 106.0 0.0 L 105.0 0.0 L 104.0 0.0 L 103.0 0.0 L 102.0 0.0 L 101.0 0.0 L 100.0 0.0 L 99.0 0.0 L 98.0 0.0 L 97.0 0.0 L 96.0 0.0 L 95.0 0.0 L 94.0 0.0 L 93.0 0.0 L 92.0 0.0 L 91.0 0.0 L 90.0 0.0 L 89.0 0.0 L 88.0 0.0 L 87.0 0.0 L 86.0 0.0 L 85.0 0.0 L 84.0 0.0 L 83.0 0.0 L 82.0 0.0 L 81.0 0.0 L 80.0 0.0 L 79.0 0.0 L 78.0 0.0 L 77.0 0.0 L 76.0 0.0 L 75.0 0.0 L 74.0 0.0 L 73.0 0.0 L 72.0 0.0 L 71.0 0.0 L 70.0 0.0 L 69.0 0.0 L 68.0 0.0 L 67.0 0.0 L 66.0 0.0 L 65.0 0.0 L 64.0 0.0 L 63.0 0.0 L 62.0 0.0 L 61.0 0.0 L 60.0 0.0 L 59.0 0.0 L 58.0 0.0 L 57.0 0.0 L 56.0 0.0 L 55.0 0.0 L 54.0 0.0 L 53.0 0.0 L 52.0 0.0 L 51.0 0.0 L 50.0 0.0 L 49.0 0.0 L 48.0 0.0 L 47.0 0.0 L 46.0 0.0 L 45.0 0.0 L 44.0 0.0 L 43.0 0.0 L 42.0 0.0 L 41.0 0.0 L 40.0 0.0 L 39.0 0.0 L 38.0 0.0 L 37.0 0.0 L 36.0 0.0 L 35.0 0.0 L 34.0 0.0 L 33.0 0.0 L 32.0 0.0 L 31.0 0.0 L 30.0 0.0 L 29.0 0.0 L 28.0 0.0 L 27.0 0.0 L 26.0 0.0 L 25.0 0.0 L 24.0 0.0 L 23.0 0.0 L 22.0 0.0 L 21.0 0.0 L 20.0 0.0 L 19.0 0.0 L 18.0 0.0 L 17.0 0.0 L 16.0 0.0 L 15.0 0.0 L 14.0 0.0 L 13.0 0.0 L 12.0 0.0 L 11.0 0.0 L 10.0 0.0 L 9.0 0.0 L 8.0 0.0 L 7.0 0.0 L 6.0 0.0 L 5.0 0.0 L 4.0 0.0 L 3.0 0.0 L 2.0 0.0 L 1.0 0.0 L 0.3333333333333333 0.3333333333333333 L 0.0 1.0 L 0.0 2.0 L 0.0 3.0 L 0.0 4.0 L 0.0 5.0 L 0.0 6.0 L 0.0 7.0 L 0.0 8.0 L 0.0 9.0 L 0.0 10.0 L 0.0 11.0 L 0.0 12.0 L 0.0 13.0 L 0.0 14.0 L 0.0 15.0 L 0.0 16.0 L 0.0 17.0 L 0.0 18.0 L 0.0 19.0 L 0.0 20.0 L 0.0 21.0 L 0.0 22.0 L 0.0 23.0 L 0.0 24.0 L 0.0 25.0 L 0.0 26.0 L 0.0 27.0 L 0.0 28.0 L 0.0 29.0 L 0.0 30.0 L 0.0 31.0 L 0.0 32.0 L 0.0 33.0 L 0.0 34.0 L 0.0 35.0 L 0.0 36.0 L 0.0 37.0 L 0.0 38.0 L 0.0 39.0 L 0.0 40.0 L 0.0 41.0 L 0.0 42.0 L 0.0 43.0 L 0.0 44.0 L 0.0 45.0 L 0.0 46.0 L 0.0 47.0 L 0.0 48.0 L 0.0 49.0 L 0.0 50.0 L 0.0 51.0 L 0.0 52.0 L 0.0 53.0 L 0.0 54.0 L 0.3333333333333333 54.666666666666664 L 1.0 55.0 L 2.0 55.0 L 3.0 55.0 L 4.0 55.0 L 5.0 55.0 L 5.666666666666667 54.666666666666664 L 5.666666666666667 54.0 L 5.0 53.0 L 4.0 52.0 L 3.6666666666666665 51.0 L 4.0 50.333333333333336 L 5.0 50.0 L 6.0 50.333333333333336 L 7.0 51.0 L 8.0 51.666666666666664 L 9.0 52.0 L 10.0 52.0 L 11.0 51.666666666666664 L 12.0 51.333333333333336 L 13.0 50.666666666666664 L 14.0 50.333333333333336 L 15.0 49.666666666666664 L 16.0 49.333333333333336 L 17.0 48.666666666666664 L 18.0 48.0 L 19.0 47.0 L 20.0 46.333333333333336 L 21.0 45.666666666666664 L 22.0 45.0 L 23.0 44.333333333333336 L 24.0 43.666666666666664 L 25.0 43.0 L 26.0 42.333333333333336 L 27.0 41.666666666666664 L 28.0 41.333333333333336 L 29.0 41.0 L 29.666666666666668 40.666666666666664 L 30.0 40.0 L 30.0 39.0 L 30.0 38.0 L 30.0 37.0 L 30.333333333333332 36.0 L 30.666666666666668 35.0 L 31.0 34.0 L 31.333333333333332 33.0 L 31.666666666666668 32.0 L 32.333333333333336 31.0 L 32.666666666666664 30.0 L 33.333333333333336 29.0 L 34.0 28.0 L 35.0 27.0 L 36.0 26.0 L 37.0 25.0 L 38.0 24.333333333333332 L 39.0 24.0 L 40.0 23.666666666666668 L 41.0 23.333333333333332 L 42.0 23.0 L 43.0 23.0 L 44.0 23.0 L 45.0 23.0 L 46.0 23.333333333333332 L 47.0 23.666666666666668 L 48.0 24.0 L 49.0 24.333333333333332 L 50.0 25.0 L 51.0 26.0 L 51.666666666666664 27.0 L 52.333333333333336 28.0 L 53.0 29.0 L 53.666666666666664 30.0 L 54.333333333333336 30.666666666666668 L 55.0 30.666666666666668 L 56.0 30.333333333333332 L 57.0 30.0 L 58.0 30.0 L 59.0 30.0 L 60.0 30.0 L 61.0 30.0 L 62.0 30.333333333333332 L 63.0 30.666666666666668 L 64.0 31.333333333333332 L 65.0 32.0 L 66.0 33.0 L 67.0 34.0 L 67.66666666666667 35.0 L 68.33333333333333 36.0 L 68.66666666666667 37.0 L 69.0 38.0 L 69.33333333333333 39.0 L 69.66666666666667 40.0 L 70.0 41.0 L 70.0 42.0 L 69.66666666666667 43.0 L 69.33333333333333 44.0 L 69.0 45.0 L 68.66666666666667 46.0 L 68.33333333333333 47.0 L 67.66666666666667 48.0 L 67.0 49.0 L 66.0 50.0 L 65.33333333333333 51.0 L 65.33333333333333 51.666666666666664 L 66.0 52.0 L 67.0 51.666666666666664 L 68.0 51.333333333333336 L 69.0 51.0 L 70.0 50.666666666666664 L 71.0 50.333333333333336 L 72.0 50.0 L 73.0 49.666666666666664 L 74.0 49.333333333333336 L 75.0 49.0 L 76.0 49.0 L 77.0 49.0 L 78.0 48.666666666666664 L 79.0 48.333333333333336 L 80.0 48.0 L 81.0 48.0 L 82.0 48.0 L 83.0 48.0 L 84.0 48.0 L 85.0 48.0 L 86.0 48.0 L 87.0 48.0 L 87.5 48.0 Z" stroke="none" fill="rgb(255,255,255)" />
<path d="M 95.5 128.0 L 96.0 128.0 L 97.0 128.0 L 98.0 128.0 L 99.0 128.0 L 100.0 128.0 L 101.0 128.0 L 102.0 128.0 L 103.0 128.0 L 104.0 128.0 L 105.0 128.0 L 106.0 128.0 L 107.0 128.0 L 108.0 128.0 L 109.0 128.0 L 110.0 128.0 L 111.0 128.0 L 112.0 128.0 L 113.0 128.0 L 114.0 128.0 L 115.0 128.0 L 116.0 128.0 L 117.0 128.0 L 118.0 128.0 L 119.0 128.0 L 120.0 128.0 L 121.0 128.0 L 122.0 128.0 L 123.0 128.0 L 124.0 128.0 L 125.0 128.0 L 126.0 128.0 L 127.0 128.0 L 127.66666666666667 127.66666666666667 L 128.0 127.0 L 128.0 126.0 L 128.0 125.0 L 128.0 124.0 L 128.0 123.0 L 128.0 122.0 L 128.0 121.0 L 128.0 120.0 L 128.0 119.0 L 128.0 118.0 L 128.0 117.0 L 128.0 116.0 L 128.0 115.0 L 128.0 114.0 L 128.0 113.0 L 128.0 112.0 L 128.0 111.0 L 128.0 110.0 L 128.0 109.0 L 128.0 108.0 L 128.0 107.0 L 127.66666666666667 106.33333333333333 L 127.33333333333333 106.33333333333333 L 127.0 107.0 L 127.0 108.0 L 126.66666666666667 109.0 L 126.33333333333333 110.0 L 125.66666666666667 111.0 L 125.33333333333333 112.0 L 124.66666666666667 113.0 L 124.0 114.0 L 123.0 115.0 L 122.0 116.0 L 121.0 117.0 L 120.0 118.0 L 119.0 119.0 L 118.0 119.66666666666667 L 117.0 120.33333333333333 L 116.0 120.66666666666667 L 115.0 121.33333333333333 L 114.0 121.66666666666667 L 113.0 122.0 L 112.0 122.33333333333333 L 111.0 122.66666666666667 L 110.0 123.0 L 109.0 123.0 L 108.0 123.33333333333333 L 107.0 123.66666666666667 L 106.0 124.0 L 105.0 124.0 L 104.0 124.0 L 103.0 124.0 L 102.0 124.0 L 101.0 124.0 L 100.0 124.0 L 99.0 124.0 L 98.0 124.0 L 97.0 124.0 L 96.0 124.0 L 95.0 124.0 L 94.0 123.66666666666667 L 93.0 123.33333333333333 L 92.0 123.0 L 91.0 123.0 L 90.0 123.0 L 89.0 122.66666666666667 L 88.0 122.33333333333333 L 87.0 122.0 L 86.0 122.0 L 85.0 121.66666666666667 L 84.0 121.33333333333333 L 83.0 121.0 L 82.0 120.66666666666667 L 81.0 120.33333333333333 L 80.0 120.0 L 79.0 119.66666666666667 L 78.0 119.33333333333333 L 77.0 119.0 L 76.0 118.66666666666667 L 75.0 118.33333333333333 L 74.0 118.0 L 73.0 117.66666666666667 L 72.0 117.33333333333333 L 71.0 117.0 L 70.0 116.66666666666667 L 69.0 116.33333333333333 L 68.0 116.0 L 67.0 116.0 L 66.0 115.66666666666667 L 65.0 115.33333333333333 L 64.0 115.0 L 63.0 115.0 L 62.0 115.0 L 61.0 115.0 L 60.0 115.33333333333333 L 59.0 115.66666666666667 L 58.0 116.0 L 57.0 116.0 L 56.0 116.33333333333333 L 55.0 116.66666666666667 L 54.0 117.0 L 53.0 117.33333333333333 L 52.0 117.66666666666667 L 51.0 118.33333333333333 L 50.0 119.0 L 49.0 119.66666666666667 L 48.0 120.33333333333333 L 47.0 121.0 L 46.0 121.66666666666667 L 45.0 121.66666666666667 L 44.333333333333336 121.0 L 44.333333333333336 120.0 L 44.666666666666664 119.0 L 45.333333333333336 118.0 L 45.666666666666664 117.0 L 46.333333333333336 116.0 L 47.0 115.0 L 48.0 114.0 L 49.0 113.0 L 50.0 112.33333333333333 L 51.0 111.66666666666667 L 52.0 111.33333333333333 L 53.0 110.66666666666667 L 54.0 110.33333333333333 L 55.0 109.66666666666667 L 56.0 109.33333333333333 L 57.0 109.0 L 58.0 109.0 L 59.0 109.0 L 60.0 108.66666666666667 L 61.0 108.33333333333333 L 62.0 108.0 L 63.0 108.0 L 64.0 108.0 L 65.0 108.0 L 66.0 108.0 L 67.0 108.33333333333333 L 68.0 108.66666666666667 L 69.0 109.0 L 70.0 109.0 L 71.0 109.0 L 72.0 109.0 L 73.0 109.33333333333333 L 74.0 109.66666666666667 L 75.0 110.0 L 76.0 110.0 L 77.0 110.33333333333333 L 78.0 110.66666666666667 L 79.0 111.0 L 80.0 111.33333333333333 L 81.0 111.66666666666667 L 82.0 112.0 L 83.0 112.0 L 84.0 112.33333333333333 L 85.0 112.66666666666667 L 86.0 113.0 L 87.0 113.33333333333333 L 88.0 113.66666666666667 L 89.0 114.0 L 90.0 114.0 L 91.0 114.0 L 92.0 114.33333333333333 L 93.0 114.66666666666667 L 94.0 115.0 L 95.0 115.0 L 96.0 115.0 L 97.0 115.0 L 98.0 115.0 L 99.0 115.0 L 100.0 115.0 L 101.0 115.0 L 102.0 115.0 L 103.0 115.0 L 104.0 115.0 L 105.0 115.0 L 106.0 115.0 L 107.0 114.66666666666667 L 108.0 114.33333333333333 L 109.0 114.0 L 110.0 113.66666666666667 L 111.0 113.33333333333333 L 112.0 112.66666666666667 L 113.0 112.0 L 114.0 111.33333333333333 L 114.66666666666667 110.66666666666667 L 115.33333333333333 110.0 L 116.0 109.0 L 116.66666666666667 108.0 L 117.33333333333333 107.0 L 117.66666666666667 106.0 L 118.0 105.0 L 118.0 104.0 L 118.0 103.0 L 118.0 102.0 L 118.0 101.0 L 118.0 100.0 L 117.66666666666667 99.0 L 117.0 98.0 L 116.33333333333333 97.0 L 115.66666666666667 96.33333333333333 L 115.0 95.66666666666667 L 114.0 95.0 L 113.0 94.33333333333333 L 112.0 93.66666666666667 L 111.0 93.33333333333333 L 110.0 93.33333333333333 L 109.33333333333333 94.0 L 108.66666666666667 95.0 L 108.0 96.0 L 107.0 97.0 L 106.0 98.0 L 105.0 99.0 L 104.0 100.0 L 103.0 100.66666666666667 L 102.0 101.0 L 101.33333333333333 101.33333333333333 L 100.66666666666667 102.0 L 100.0 102.66666666666667 L 99.0 103.33333333333333 L 98.0 103.66666666666667 L 97.0 104.0 L 96.0 104.0 L 95.0 104.0 L 94.0 104.0 L 93.0 104.0 L 92.0 104.0 L 91.0 104.0 L 90.0 104.0 L 89.0 104.0 L 88.0 104.0 L 87.0 104.0 L 86.0 104.0 L 85.0 104.0 L 84.0 104.0 L 83.0 104.0 L 82.0 104.0 L 81.0 104.0 L 80.0 104.33333333333333 L 79.0 104.66666666666667 L 78.0 105.0 L 77.0 105.0 L 76.0 105.0 L 75.0 105.0 L 74.0 105.0 L 73.0 105.0 L 72.0 105.0 L 71.0 104.66666666666667 L 70.33333333333333 104.0 L 70.0 103.0 L 70.33333333333333 102.0 L 71.0 101.0 L 72.0 100.0 L 73.0 99.0 L 74.0 98.33333333333333 L 75.0 97.66666666666667 L 76.0 97.33333333333333 L 77.0 97.0 L 78.0 97.0 L 79.0 97.0 L 79.66666666666667 96.66666666666667 L 79.66666666666667 96.33333333333333 L 79.0 96.0 L 78.0 96.0 L 77.0 96.0 L 76.0 96.0 L 75.0 96.0 L 74.0 96.0 L 73.0 96.0 L 72.0 96.0 L 71.0 96.0 L 70.0 95.66666666666667 L 69.0 95.33333333333333 L 68.0 95.0 L 67.0 95.0 L 66.0 95.0 L 65.0 95.0 L 64.33333333333333 95.33333333333333 L 63.666666666666664 96.0 L 63.0 97.0 L 62.0 98.0 L 61.0 99.0 L 60.0 99.66666666666667 L 59.0 100.33333333333333 L 58.0 100.66666666666667 L 57.0 101.33333333333333 L 56.0 101.66666666666667 L 55.0 102.33333333333333 L 54.0 102.66666666666667 L 53.0 103.0 L 52.0 103.33333333333333 L 51.0 103.66666666666667 L 50.0 104.0 L 49.0 104.0 L 48.0 104.0 L 47.0 104.0 L 46.0 104.33333333333333 L 45.0 104.66666666666667 L 44.0 105.33333333333333 L 43.0 105.66666666666667 L 42.0 106.0 L 41.0 106.0 L 40.0 106.0 L 39.0 105.66666666666667 L 38.0 105.33333333333333 L 37.0 105.0 L 36.0 104.66666666666667 L 35.0 104.0 L 34.333333333333336 103.0 L 34.0 102.0 L 34.333333333333336 101.0 L 35.0 100.0 L 36.0 99.0 L 37.0 98.0 L 37.666666666666664 97.0 L 38.333333333333336 96.0 L 39.0 95.0 L 40.0 94.0 L 40.666666666666664 93.0 L 41.0 92.0 L 41.0 91.0 L 41.333333333333336 90.0 L 41.666666666666664 89.0 L 42.0 88.0 L 42.0 87.0 L 42.0 86.0 L 42.0 85.0 L 42.0 84.0 L 42.0 83.0 L 42.0 82.0 L 42.0 81.0 L 41.666666666666664 80.0 L 41.0 79.0 L 40.0 78.0 L 39.333333333333336 77.0 L 38.666666666666664 76.0 L 38.0 75.0 L 37.333333333333336 74.0 L 36.666666666666664 73.0 L 36.0 72.33333333333333 L 35.0 72.0 L 34.0 72.0 L 33.0 72.0 L 32.0 72.0 L 31.0 71.66666666666667 L 30.0 71.33333333333333 L 29.0 71.0 L 28.0 71.0 L 27.0 71.0 L 26.0 70.66666666666667 L 25.0 70.33333333333333 L 24.0 70.0 L 23.0 69.66666666666667 L 22.0 69.33333333333333 L 21.0 69.0 L 20.0 68.66666666666667 L 19.0 68.33333333333333 L 18.0 67.66666666666667 L 17.0 67.33333333333333 L 16.0 66.66666666666667 L 15.0 66.0 L 14.0 65.33333333333333 L 13.0 64.66666666666667 L 12.0 64.0 L 11.0 63.0 L 10.0 62.333333333333336 L 9.0 62.0 L 8.0 62.333333333333336 L 7.0 62.666666666666664 L 6.0 63.0 L 5.0 63.333333333333336 L 4.0 63.666666666666664 L 3.0 63.666666666666664 L 2.3333333333333335 63.0 L 2.3333333333333335 62.0 L 3.0 61.0 L 4.0 60.333333333333336 L 5.0 60.0 L 5.666666666666667 59.666666666666664 L 5.666666666666667 59.0 L 5.0 58.333333333333336 L 4.0 58.0 L 3.0 58.0 L 2.0 58.0 L 1.0 58.0 L 0.3333333333333333 58.333333333333336 L 0.0 59.0 L 0.0 60.0 L 0.0 61.0 L 0.0 62.0 L 0.0 63.0 L 0.0 64.0 L 0.0 65.0 L 0.0 66.0 L 0.0 67.0 L 0.0 68.0 L 0.0 69.0 L 0.0 70.0 L 0.0 71.0 L 0.0 72.0 L 0.0 73.0 L 0.0 74.0 L 0.0 75.0 L 0.0 76.0 L 0.0 77.0 L 0.0 78.0 L 0.0 79.0 L 0.0 80.0 L 0.0 81.0 L 0.0 82.0 L 0.0 83.0 L 0.0 84.0 L 0.0 85.0 L 0.0 86.0 L 0.0 87.0 L 0.0 88.0 L 0.0 89.0 L 0.0 90.0 L 0.0 91.0 L 0.0 92.0 L 0.0 93.0 L 0.0 94.0 L 0.0 95.0 L 0.0 96.0 L 0.0 97.0 L 0.0 98.0 L 0.0 99.0 L 0.0 100.0 L 0.0 101.0 L 0.0 102.0 L 0.0 103.0 L 0.0 104.0 L 0.0 105.0 L 0.0 106.0 L 0.0 107.0 L 0.0 108.0 L 0.0 109.0 L 0.0 110.0 L 0.0 111.0 L 0.0 112.0 L 0.0 113.0 L 0.0 114.0 L 0.0 115.0 L 0.0 116.0 L 0.0 117.0 L 0.0 118.0 L 0.0 119.0 L 0.0 120.0 L 0.0 121.0 L 0.0 122.0 L 0.0 123.0 L 0.0 124.0 L 0.0 125.0 L 0.0 126.0 L 0.0 127.0 L 0.3333333333333333 127.66666666666667 L 1.0 128.0 L 2.0 128.0 L 3.0 128.0 L 4.0 128.0 L 5.0 128.0 L 6.0 128.0 L 7.0 128.0 L 8.0 128.0 L 9.0 128.0 L 10.0 128.0 L 11.0 128.0 L 12.0 128.0 L 13.0 128.0 L 14.0 128.0 L 15.0 128.0 L 16.0 128.0 L 17.0 128.0 L 18.0 128.0 L 19.0 128.0 L 20.0 128.0 L 21.0 128.0 L 22.0 128.0 L 23.0 128.0 L 24.0 128.0 L 25.0 128.0 L 26.0 128.0 L 27.0 128.0 L 28.0 128.0 L 29.0 128.0 L 30.0 128.0 L 31.0 128.0 L 32.0 128.0 L 33.0 128.0 L 34.0 128.0 L 35.0 128.0 L 36.0 128.0 L 37.0 128.0 L 38.0 128.0 L 39.0 128.0 L 40.0 128.0 L 41.0 128.0 L 42.0 128.0 L 43.0 128.0 L 44.0 128.0 L 45.0 128.0 L 46.0 128.0 L 47.0 128.0 L 48.0 128.0 L 49.0 128.0 L 50.0 128.0 L 51.0 128.0 L 52.0 128.0 L 53.0 128.0 L 54.0 128.0 L 55.0 128.0 L 56.0 128.0 L 57.0 128.0 L 58.0 128.0 L 59.0 128.0 L 60.0 128.0 L 61.0 128.0 L 62.0 128.0 L 63.0 128.0 L 64.0 128.0 L 65.0 128.0 L 66.0 128.0 L 67.0 128.0 L 68.0 128.0 L 69.0 128.0 L 70.0 128.0 L 71.0 128.0 L 72.0 128.0 L 73.0 128.0 L 74.0 128.0 L 75.0 128.0 L 76.0 128.0 L 77.0 128.0 L 78.0 128.0 L 79.0 128.0 L 80.0 128.0 L 81.0 128.0 L 82.0 128.0 L 83.0 128.0 L 84.0 128.0 L 85.0 128.0 L 86.0 128.0 L 87.0 128.0 L 88.0 128.0 L 89.0 128.0 L 90.0 128.0 L 91.0 128.0 L 92.0 128.0 L 93.0 128.0 L 94.0 128.0 L 94.5 128.0 Z" stroke="none" fill="rgb(255,255,255)" />
<path d="M 59.5 97.5 L 60.0 97.0 L 61.0 96.0 L 62.0 95.0 L 63.0 94.0 L 64.0 93.0 L 65.0 92.33333333333333 L 66.0 92.0 L 67.0 92.0 L 68.0 92.33333333333333 L 69.0 92.66666666666667 L 70.0 93.0 L 71.0 93.0 L 72.0 93.0 L 73.0 93.0 L 74.0 93.0 L 75.0 93.0 L 76.0 93.0 L 76.66666666666667 92.66666666666667 L 77.0 92.0 L 77.0 91.0 L 76.66666666666667 90.0 L 76.0 89.0 L 75.33333333333333 88.0 L 74.66666666666667 87.0 L 74.0 86.0 L 73.33333333333333 85.0 L 72.66666666666667 84.0 L 72.33333333333333 83.0 L 72.0 82.0 L 72.0 81.0 L 72.0 80.0 L 72.0 79.0 L 72.0 78.0 L 72.0 77.0 L 72.0 76.0 L 72.0 75.0 L 72.0 74.0 L 72.33333333333333 73.0 L 72.66666666666667 72.0 L 73.0 71.0 L 73.33333333333333 70.0 L 74.0 69.0 L 75.0 68.0 L 76.0 67.0 L 77.0 66.0 L 78.0 65.0 L 79.0 64.66666666666667 L 79.66666666666667 65.0 L 79.66666666666667 66.0 L 79.0 67.0 L 78.33333333333333 68.0 L 77.66666666666667 69.0 L 77.33333333333333 70.0 L 76.66666666666667 71.0 L 76.33333333333333 72.0 L 76.0 73.0 L 76.0 74.0 L 76.0 75.0 L 76.0 76.0 L 76.0 77.0 L 76.0 78.0 L 76.0 79.0 L 76.0 80.0 L 76.0 81.0 L 76.0 82.0 L 76.0 83.0 L 76.0 84.0 L 76.33333333333333 85.0 L 76.66666666666667 86.0 L 77.33333333333333 87.0 L 78.0 88.0 L 79.0 89.0 L 80.0 90.0 L 81.0 91.0 L 82.0 92.0 L 83.0 93.0 L 84.0 94.0 L 85.0 95.0 L 86.0 96.0 L 87.0 97.0 L 88.0 97.66666666666667 L 89.0 98.0 L 90.0 98.33333333333333 L 91.0 98.66666666666667 L 92.0 99.0 L 93.0 99.0 L 94.0 99.0 L 95.0 99.0 L 96.0 99.0 L 97.0 99.0 L 98.0 99.0 L 99.0 99.0 L 100.0 99.0 L 101.0 99.0 L 102.0 99.0 L 103.0 99.0 L 104.0 98.66666666666667 L 105.0 98.33333333333333 L 106.0 97.66666666666667 L 107.0 97.0 L 108.0 96.0 L 109.0 95.0 L 109.66666666666667 94.0 L 110.0 93.0 L 110.0 92.0 L 110.0 91.0 L 110.33333333333333 90.0 L 110.66666666666667 89.0 L 111.0 88.0 L 111.0 87.0 L 111.0 86.0 L 111.0 85.0 L 111.0 84.0 L 111.0 83.0 L 111.0 82.0 L 111.0 81.0 L 111.0 80.0 L 111.0 79.0 L 111.0 78.0 L 111.0 77.0 L 111.0 76.0 L 110.66666666666667 75.0 L 110.33333333333333 74.0 L 110.0 73.0 L 110.0 72.0 L 110.0 71.0 L 110.0 70.0 L 109.66666666666667 69.0 L 109.33333333333333 68.0 L 109.0 67.0 L 108.66666666666667 66.0 L 108.33333333333333 65.0 L 108.0 64.0 L 107.66666666666667 63.0 L 107.33333333333333 62.0 L 106.66666666666667 61.0 L 106.33333333333333 60.0 L 105.66666666666667 59.0 L 105.0 58.0 L 104.0 57.0 L 103.0 56.0 L 102.0 55.0 L 101.0 54.0 L 100.0 53.0 L 99.0 52.333333333333336 L 98.0 51.666666666666664 L 97.0 51.0 L 96.0 50.333333333333336 L 95.0 50.0 L 94.0 49.666666666666664 L 93.0 49.333333333333336 L 92.0 49.0 L 91.0 48.666666666666664 L 90.0 48.333333333333336 L 89.0 48.0 L 88.0 48.0 L 87.0 48.0 L 86.0 48.0 L 85.0 48.0 L 84.0 48.0 L 83.0 48.0 L 82.0 48.0 L 81.0 48.0 L 80.0 48.0 L 79.0 48.0 L 78.0 48.333333333333336 L 77.0 48.666666666666664 L 76.0 49.0 L 75.0 49.0 L 74.0 49.0 L 73.0 49.333333333333336 L 72.0 49.666666666666664 L 71.0 50.0 L 70.0 50.333333333333336 L 69.0 50.666666666666664 L 68.0 50.666666666666664 L 67.66666666666667 50.0 L 67.66666666666667 49.0 L 68.33333333333333 48.0 L 68.66666666666667 47.0 L 69.0 46.0 L 69.33333333333333 45.0 L 69.66666666666667 44.0 L 70.0 43.0 L 70.0 42.0 L 70.0 41.0 L 70.0 40.0 L 69.66666666666667 39.0 L 69.33333333333333 38.0 L 69.0 37.0 L 68.66666666666667 36.0 L 68.33333333333333 35.0 L 67.66666666666667 34.0 L 67.0 33.0 L 66.0 32.0 L 65.0 31.333333333333332 L 64.0 30.666666666666668 L 63.0 30.333333333333332 L 62.0 30.0 L 61.0 30.0 L 60.0 30.0 L 59.0 30.0 L 58.0 30.0 L 57.0 30.0 L 56.0 30.0 L 55.0 30.333333333333332 L 54.0 31.0 L 53.0 32.0 L 52.0 33.0 L 51.0 34.0 L 50.0 35.0 L 49.0 36.0 L 48.333333333333336 37.0 L 47.666666666666664 38.0 L 47.0 38.666666666666664 L 46.0 39.0 L 45.0 39.0 L 44.0 39.0 L 43.0 39.0 L 42.0 39.0 L 41.0 39.0 L 40.0 39.0 L 39.0 39.0 L 38.0 39.0 L 37.0 39.0 L 36.0 39.333333333333336 L 35.0 39.666666666666664 L 34.0 40.0 L 33.0 40.0 L 32.0 40.0 L 31.0 40.0 L 30.0 40.333333333333336 L 29.0 40.666666666666664 L 28.0 41.0 L 27.0 41.333333333333336 L 26.0 41.666666666666664 L 25.0 42.333333333333336 L 24.0 43.0 L 23.0 43.666666666666664 L 22.0 44.333333333333336 L 21.0 45.0 L 20.0 45.666666666666664 L 19.0 46.333333333333336 L 18.0 47.0 L 17.0 48.0 L 16.0 48.666666666666664 L 15.0 49.333333333333336 L 14.0 49.666666666666664 L 13.0 50.333333333333336 L 12.0 50.666666666666664 L 11.333333333333334 51.333333333333336 L 11.0 52.0 L 11.333333333333334 53.0 L 12.0 54.0 L 13.0 55.0 L 13.666666666666666 56.0 L 13.666666666666666 57.0 L 13.333333333333334 58.0 L 13.0 59.0 L 13.0 60.0 L 13.0 61.0 L 13.333333333333334 62.0 L 14.0 62.666666666666664 L 15.0 63.333333333333336 L 16.0 63.666666666666664 L 17.0 64.33333333333333 L 18.0 64.66666666666667 L 19.0 65.0 L 20.0 65.0 L 21.0 65.0 L 22.0 65.0 L 23.0 65.0 L 24.0 65.0 L 25.0 65.0 L 26.0 65.0 L 27.0 65.33333333333333 L 27.666666666666668 66.0 L 28.0 67.0 L 28.333333333333332 67.66666666666667 L 29.0 68.0 L 30.0 68.0 L 31.0 68.0 L 32.0 68.0 L 33.0 68.0 L 34.0 68.0 L 35.0 68.0 L 36.0 68.0 L 37.0 68.0 L 38.0 68.0 L 39.0 68.0 L 40.0 68.0 L 41.0 68.0 L 42.0 68.0 L 43.0 67.66666666666667 L 44.0 67.33333333333333 L 45.0 66.66666666666667 L 46.0 66.33333333333333 L 47.0 65.66666666666667 L 48.0 65.0 L 49.0 64.33333333333333 L 50.0 64.33333333333333 L 50.333333333333336 65.0 L 50.0 66.0 L 49.0 67.0 L 48.0 68.0 L 47.0 69.0 L 46.0 69.66666666666667 L 45.0 70.33333333333333 L 44.0 70.66666666666667 L 43.0 71.0 L 42.0 71.0 L 41.0 71.33333333333333 L 40.0 71.66666666666667 L 39.0 72.0 L 38.0 72.0 L 37.333333333333336 72.33333333333333 L 37.0 73.0 L 37.0 74.0 L 37.333333333333336 75.0 L 38.0 76.0 L 38.666666666666664 77.0 L 39.333333333333336 78.0 L 40.0 79.0 L 41.0 80.0 L 42.0 81.0 L 43.0 82.0 L 44.0 83.0 L 45.0 84.0 L 46.0 85.0 L 47.0 86.0 L 47.666666666666664 87.0 L 48.0 88.0 L 48.0 89.0 L 48.0 90.0 L 47.666666666666664 91.0 L 47.0 92.0 L 46.0 93.0 L 45.0 94.0 L 44.0 95.0 L 43.333333333333336 96.0 L 42.666666666666664 97.0 L 42.333333333333336 98.0 L 42.0 99.0 L 42.0 100.0 L 42.333333333333336 101.0 L 43.0 102.0 L 44.0 103.0 L 45.0 103.66666666666667 L 46.0 104.0 L 47.0 104.0 L 48.0 104.0 L 48.666666666666664 103.66666666666667 L 49.333333333333336 103.0 L 50.0 102.33333333333333 L 51.0 102.0 L 52.0 101.66666666666667 L 53.0 101.33333333333333 L 54.0 100.66666666666667 L 55.0 100.33333333333333 L 56.0 99.66666666666667 L 57.0 99.33333333333333 L 58.0 98.66666666666667 L 58.5 98.5 Z" stroke="none" fill="rgb(181,194,200)" />
<path d="M 95.5 124.0 L 96.0 124.0 L 97.0 124.0 L 98.0 124.0 L 99.0 124.0 L 100.0 124.0 L 101.0 124.0 L 102.0 124.0 L 103.0 124.0 L 104.0 124.0 L 105.0 124.0 L 106.0 124.0 L 107.0 124.0 L 108.0 123.66666666666667 L 109.0 123.33333333333333 L 110.0 123.0 L 111.0 123.0 L 112.0 122.66666666666667 L 113.0 122.33333333333333 L 114.0 122.0 L 115.0 121.66666666666667 L 116.0 121.33333333333333 L 117.0 120.66666666666667 L 118.0 120.33333333333333 L 119.0 119.66666666666667 L 120.0 119.0 L 121.0 118.0 L 122.0 117.0 L 123.0 116.0 L 124.0 115.0 L 124.66666666666667 114.0 L 125.33333333333333 113.0 L 125.66666666666667 112.0 L 126.33333333333333 111.0 L 126.66666666666667 110.0 L 127.0 109.0 L 127.0 108.0 L 127.33333333333333 107.0 L 127.66666666666667 106.0 L 128.0 105.0 L 128.0 104.0 L 128.0 103.0 L 128.0 102.0 L 128.0 101.0 L 127.66666666666667 100.0 L 127.33333333333333 99.0 L 127.0 98.0 L 127.0 97.0 L 126.66666666666667 96.0 L 126.33333333333333 95.0 L 125.66666666666667 94.0 L 125.33333333333333 93.0 L 124.66666666666667 92.0 L 124.0 91.0 L 123.0 90.0 L 122.0 89.0 L 121.0 88.0 L 120.0 87.0 L 119.0 86.0 L 118.0 85.33333333333333 L 117.0 84.66666666666667 L 116.0 84.33333333333333 L 115.0 83.66666666666667 L 114.0 83.33333333333333 L 113.0 83.0 L 112.0 83.0 L 111.33333333333333 83.33333333333333 L 111.0 84.0 L 111.0 85.0 L 111.0 86.0 L 111.0 87.0 L 110.66666666666667 88.0 L 110.33333333333333 89.0 L 110.0 90.0 L 110.0 91.0 L 110.0 92.0 L 110.33333333333333 93.0 L 111.0 93.66666666666667 L 112.0 94.33333333333333 L 113.0 95.0 L 114.0 95.66666666666667 L 115.0 96.33333333333333 L 115.66666666666667 97.0 L 116.33333333333333 98.0 L 117.0 99.0 L 117.66666666666667 100.0 L 118.0 101.0 L 118.0 102.0 L 118.0 103.0 L 118.0 104.0 L 117.66666666666667 105.0 L 117.33333333333333 106.0 L 116.66666666666667 107.0 L 116.0 108.0 L 115.33333333333333 109.0 L 114.66666666666667 110.0 L 114.0 110.66666666666667 L 113.0 111.33333333333333 L 112.0 112.0 L 111.0 112.66666666666667 L 110.0 113.33333333333333 L 109.0 113.66666666666667 L 108.0 114.0 L 107.0 114.33333333333333 L 106.0 114.66666666666667 L 105.0 115.0 L 104.0 115.0 L 103.0 115.0 L 102.0 115.0 L 101.0 115.0 L 100.0 115.0 L 99.0 115.0 L 98.0 115.0 L 97.0 115.0 L 96.0 115.0 L 95.0 115.0 L 94.0 114.66666666666667 L 93.0 114.33333333333333 L 92.0 114.0 L 91.0 114.0 L 90.0 114.0 L 89.0 113.66666666666667 L 88.0 113.33333333333333 L 87.0 113.0 L 86.0 112.66666666666667 L 85.0 112.33333333333333 L 84.0 112.0 L 83.0 112.0 L 82.0 111.66666666666667 L 81.0 111.33333333333333 L 80.0 111.0 L 79.0 110.66666666666667 L 78.0 110.33333333333333 L 77.0 110.0 L 76.0 110.0 L 75.0 109.66666666666667 L 74.0 109.33333333333333 L 73.0 109.0 L 72.0 109.0 L 71.0 109.0 L 70.0 109.0 L 69.0 108.66666666666667 L 68.0 108.33333333333333 L 67.0 108.0 L 66.0 108.0 L 65.0 108.0 L 64.0 108.0 L 63.0 108.0 L 62.0 108.0 L 61.0 108.0 L 60.0 108.33333333333333 L 59.0 108.66666666666667 L 58.0 109.0 L 57.0 109.0 L 56.0 109.0 L 55.0 109.33333333333333 L 54.0 109.66666666666667 L 53.0 110.33333333333333 L 52.0 110.66666666666667 L 51.0 111.33333333333333 L 50.0 111.66666666666667 L 49.0 112.33333333333333 L 48.0 113.0 L 47.0 114.0 L 46.333333333333336 115.0 L 45.666666666666664 116.0 L 45.333333333333336 117.0 L 44.666666666666664 118.0 L 44.333333333333336 119.0 L 44.0 120.0 L 44.0 121.0 L 44.333333333333336 122.0 L 45.0 122.66666666666667 L 46.0 122.66666666666667 L 47.0 122.0 L 48.0 121.0 L 49.0 120.33333333333333 L 50.0 119.66666666666667 L 51.0 119.0 L 52.0 118.33333333333333 L 53.0 117.66666666666667 L 54.0 117.33333333333333 L 55.0 117.0 L 56.0 116.66666666666667 L 57.0 116.33333333333333 L 58.0 116.0 L 59.0 116.0 L 60.0 115.66666666666667 L 61.0 115.33333333333333 L 62.0 115.0 L 63.0 115.0 L 64.0 115.33333333333333 L 65.0 115.66666666666667 L 66.0 116.0 L 67.0 116.0 L 68.0 116.33333333333333 L 69.0 116.66666666666667 L 70.0 117.0 L 71.0 117.33333333333333 L 72.0 117.66666666666667 L 73.0 118.0 L 74.0 118.33333333333333 L 75.0 118.66666666666667 L 76.0 119.0 L 77.0 119.33333333333333 L 78.0 119.66666666666667 L 79.0 120.0 L 80.0 120.33333333333333 L 81.0 120.66666666666667 L 82.0 121.0 L 83.0 121.33333333333333 L 84.0 121.66666666666667 L 85.0 122.0 L 86.0 122.0 L 87.0 122.33333333333333 L 88.0 122.66666666666667 L 89.0 123.0 L 90.0 123.0 L 91.0 123.0 L 92.0 123.33333333333333 L 93.0 123.66666666666667 L 94.0 124.0 L 94.5 124.0 Z" stroke="none" fill="rgb(253,211,177)" />
<path d="M 81.5 97.5 L 82.0 97.66666666666667 L 83.0 98.33333333333333 L 84.0 99.0 L 85.0 99.66666666666667 L 86.0 100.0 L 87.0 100.33333333333333 L 88.0 100.66666666666667 L 89.0 101.0 L 90.0 101.33333333333333 L 91.0 101.66666666666667 L 92.0 102.0 L 93.0 102.0 L 94.0 102.0 L 95.0 102.0 L 96.0 102.0 L 97.0 102.0 L 98.0 102.0 L 99.0 102.0 L 100.0 102.0 L 101.0 101.66666666666667 L 102.0 101.33333333333333 L 103.0 101.0 L 104.0 100.66666666666667 L 104.66666666666667 100.0 L 105.0 99.0 L 104.66666666666667 98.33333333333333 L 104.0 98.33333333333333 L 103.0 98.66666666666667 L 102.0 99.0 L 101.0 99.0 L 100.0 99.0 L 99.0 99.0 L 98.0 99.0 L 97.0 99.0 L 96.0 99.0 L 95.0 99.0 L 94.0 99.0 L 93.0 99.0 L 92.0 98.66666666666667 L 91.0 98.33333333333333 L 90.0 98.0 L 89.0 97.66666666666667 L 88.0 97.0 L 87.0 96.0 L 86.0 95.0 L 85.0 94.0 L 84.0 93.0 L 83.0 92.0 L 82.0 91.0 L 81.0 90.0 L 80.0 89.0 L 79.0 88.0 L 78.0 87.0 L 77.33333333333333 86.0 L 76.66666666666667 85.0 L 76.33333333333333 84.0 L 76.0 83.0 L 76.0 82.0 L 76.0 81.0 L 76.0 80.0 L 76.0 79.0 L 76.0 78.0 L 76.0 77.0 L 76.0 76.0 L 76.0 75.0 L 76.0 74.0 L 76.33333333333333 73.0 L 76.66666666666667 72.0 L 77.33333333333333 71.0 L 77.66666666666667 70.0 L 78.33333333333333 69.0 L 79.0 68.0 L 79.66666666666667 67.0 L 80.0 66.0 L 80.0 65.0 L 79.66666666666667 64.33333333333333 L 79.0 64.0 L 78.0 64.33333333333333 L 77.0 65.0 L 76.0 66.0 L 75.0 67.0 L 74.0 68.0 L 73.33333333333333 69.0 L 73.0 70.0 L 72.66666666666667 71.0 L 72.33333333333333 72.0 L 72.0 73.0 L 72.0 74.0 L 72.0 75.0 L 72.0 76.0 L 72.0 77.0 L 72.0 78.0 L 72.0 79.0 L 72.0 80.0 L 72.0 81.0 L 72.0 82.0 L 72.0 83.0 L 72.33333333333333 84.0 L 72.66666666666667 85.0 L 73.33333333333333 86.0 L 74.0 87.0 L 74.66666666666667 88.0 L 75.33333333333333 89.0 L 76.0 90.0 L 76.66666666666667 91.0 L 76.66666666666667 92.0 L 76.0 92.66666666666667 L 75.0 93.0 L 74.0 93.0 L 73.0 93.0 L 72.0 93.0 L 71.0 93.0 L 70.0 92.66666666666667 L 69.0 92.33333333333333 L 68.0 92.0 L 67.0 92.0 L 66.0 92.0 L 65.0 92.0 L 64.0 92.33333333333333 L 63.0 93.0 L 62.0 94.0 L 61.0 95.0 L 60.0 96.0 L 59.0 97.0 L 58.0 98.0 L 57.0 98.66666666666667 L 56.0 99.33333333333333 L 55.0 99.66666666666667 L 54.0 100.33333333333333 L 53.0 100.66666666666667 L 52.0 101.33333333333333 L 51.0 101.66666666666667 L 50.0 102.0 L 49.333333333333336 102.33333333333333 L 49.0 103.0 L 49.333333333333336 103.66666666666667 L 50.0 104.0 L 51.0 104.0 L 52.0 103.66666666666667 L 53.0 103.33333333333333 L 54.0 103.0 L 55.0 102.66666666666667 L 56.0 102.33333333333333 L 57.0 101.66666666666667 L 58.0 101.33333333333333 L 59.0 100.66666666666667 L 60.0 100.33333333333333 L 61.0 99.66666666666667 L 62.0 99.0 L 63.0 98.0 L 63.666666666666664 97.0 L 64.33333333333333 96.0 L 65.0 95.33333333333333 L 66.0 95.0 L 67.0 95.0 L 68.0 95.33333333333333 L 69.0 95.66666666666667 L 70.0 96.0 L 71.0 96.0 L 72.0 96.0 L 73.0 96.0 L 74.0 96.0 L 75.0 96.0 L 76.0 96.0 L 77.0 96.0 L 78.0 96.0 L 79.0 96.33333333333333 L 80.0 96.66666666666667 L 80.5 97.0 Z" stroke="none" fill="rgb(109,163,175)" />
<path d="M 1.5 58.0 L 2.0 58.0 L 3.0 58.0 L 4.0 58.333333333333336 L 4.333333333333333 59.0 L 4.0 59.666666666666664 L 3.0 60.333333333333336 L 2.3333333333333335 61.0 L 2.0 62.0 L 2.0 63.0 L 2.3333333333333335 63.666666666666664 L 3.0 64.0 L 4.0 64.0 L 5.0 63.666666666666664 L 6.0 63.333333333333336 L 7.0 63.0 L 8.0 62.666666666666664 L 9.0 62.666666666666664 L 10.0 63.0 L 11.0 64.0 L 12.0 64.66666666666667 L 13.0 65.33333333333333 L 14.0 66.0 L 15.0 66.66666666666667 L 16.0 67.33333333333333 L 17.0 67.66666666666667 L 18.0 68.33333333333333 L 19.0 68.66666666666667 L 20.0 69.0 L 21.0 69.33333333333333 L 22.0 69.66666666666667 L 23.0 70.0 L 24.0 70.33333333333333 L 25.0 70.66666666666667 L 26.0 71.0 L 27.0 71.0 L 28.0 71.0 L 29.0 71.33333333333333 L 30.0 71.66666666666667 L 31.0 72.0 L 32.0 72.0 L 33.0 72.0 L 34.0 72.0 L 35.0 72.33333333333333 L 36.0 72.66666666666667 L 37.0 72.66666666666667 L 38.0 72.33333333333333 L 39.0 72.0 L 40.0 72.0 L 41.0 71.66666666666667 L 42.0 71.33333333333333 L 43.0 71.0 L 44.0 71.0 L 45.0 70.66666666666667 L 46.0 70.33333333333333 L 47.0 69.66666666666667 L 48.0 69.0 L 49.0 68.0 L 50.0 67.0 L 50.666666666666664 66.0 L 51.0 65.0 L 50.666666666666664 64.33333333333333 L 50.0 64.0 L 49.0 64.0 L 48.0 64.33333333333333 L 47.0 65.0 L 46.0 65.66666666666667 L 45.0 66.33333333333333 L 44.0 66.66666666666667 L 43.0 67.33333333333333 L 42.0 67.66666666666667 L 41.0 68.0 L 40.0 68.0 L 39.0 68.0 L 38.0 68.0 L 37.0 68.0 L 36.0 68.0 L 35.0 68.0 L 34.0 68.0 L 33.0 68.0 L 32.0 68.0 L 31.0 68.0 L 30.0 68.0 L 29.0 67.66666666666667 L 28.333333333333332 67.0 L 28.0 66.0 L 27.666666666666668 65.33333333333333 L 27.0 65.0 L 26.0 65.0 L 25.0 65.0 L 24.0 65.0 L 23.0 65.0 L 22.0 65.0 L 21.0 65.0 L 20.0 65.0 L 19.0 64.66666666666667 L 18.0 64.33333333333333 L 17.0 63.666666666666664 L 16.0 63.333333333333336 L 15.0 62.666666666666664 L 14.0 62.0 L 13.0 61.0 L 12.0 60.0 L 11.0 59.0 L 10.0 58.0 L 9.0 57.0 L 8.333333333333334 56.0 L 8.333333333333334 55.0 L 8.666666666666666 54.0 L 9.0 53.0 L 8.666666666666666 52.0 L 8.0 51.0 L 7.0 50.333333333333336 L 6.0 50.0 L 5.0 50.0 L 4.0 50.0 L 3.3333333333333335 50.333333333333336 L 3.0 51.0 L 3.3333333333333335 52.0 L 4.0 53.0 L 4.333333333333333 54.0 L 4.0 54.666666666666664 L 3.0 55.0 L 2.0 55.0 L 1.0 55.0 L 0.3333333333333333 55.333333333333336 L 0.0 56.0 L 0.0 57.0 L 0.3333333333333333 57.666666666666664 L 0.5 58.0 Z" stroke="none" fill="rgb(107,163,171)" />
<path d="M 39.5 39.0 L 40.0 39.0 L 41.0 39.0 L 42.0 39.0 L 43.0 39.0 L 44.0 39.0 L 45.0 39.0 L 46.0 39.0 L 47.0 39.0 L 47.666666666666664 38.666666666666664 L 48.333333333333336 38.0 L 49.0 37.0 L 50.0 36.0 L 51.0 35.0 L 52.0 34.0 L 53.0 33.0 L 53.666666666666664 32.0 L 54.0 31.0 L 54.0 30.0 L 53.666666666666664 29.0 L 53.0 28.0 L 52.333333333333336 27.0 L 51.666666666666664 26.0 L 51.0 25.0 L 50.0 24.333333333333332 L 49.0 24.0 L 48.0 23.666666666666668 L 47.0 23.333333333333332 L 46.0 23.0 L 45.0 23.0 L 44.0 23.0 L 43.0 23.0 L 42.0 23.0 L 41.0 23.0 L 40.0 23.333333333333332 L 39.0 23.666666666666668 L 38.0 24.0 L 37.0 24.333333333333332 L 36.0 25.0 L 35.0 26.0 L 34.0 27.0 L 33.333333333333336 28.0 L 32.666666666666664 29.0 L 32.333333333333336 30.0 L 31.666666666666668 31.0 L 31.333333333333332 32.0 L 31.0 33.0 L 30.666666666666668 34.0 L 30.333333333333332 35.0 L 30.0 36.0 L 30.0 37.0 L 30.0 38.0 L 30.0 39.0 L 30.333333333333332 39.666666666666664 L 31.0 40.0 L 32.0 40.0 L 33.0 40.0 L 34.0 40.0 L 35.0 40.0 L 36.0 39.666666666666664 L 37.0 39.333333333333336 L 38.0 39.0 L 38.5 39.0 Z" stroke="none" fill="rgb(109,163,175)" />
<path d="M 78.5 105.0 L 79.0 105.0 L 80.0 104.66666666666667 L 81.0 104.33333333333333 L 82.0 104.0 L 83.0 104.0 L 84.0 104.0 L 85.0 104.0 L 86.0 104.0 L 87.0 104.0 L 88.0 104.0 L 89.0 104.0 L 90.0 104.0 L 91.0 104.0 L 92.0 104.0 L 93.0 104.0 L 94.0 104.0 L 95.0 104.0 L 96.0 104.0 L 97.0 104.0 L 98.0 104.0 L 99.0 103.66666666666667 L 99.66666666666667 103.0 L 99.66666666666667 102.33333333333333 L 99.0 102.0 L 98.0 102.0 L 97.0 102.0 L 96.0 102.0 L 95.0 102.0 L 94.0 102.0 L 93.0 102.0 L 92.0 101.66666666666667 L 91.0 101.33333333333333 L 90.0 101.0 L 89.0 100.66666666666667 L 88.0 100.33333333333333 L 87.0 100.0 L 86.0 99.66666666666667 L 85.0 99.0 L 84.0 98.33333333333333 L 83.0 97.66666666666667 L 82.0 97.33333333333333 L 81.0 97.0 L 80.0 97.0 L 79.0 97.0 L 78.0 97.0 L 77.0 97.0 L 76.0 97.0 L 75.0 97.33333333333333 L 74.0 97.66666666666667 L 73.0 98.33333333333333 L 72.0 99.0 L 71.0 100.0 L 70.33333333333333 101.0 L 70.0 102.0 L 70.0 103.0 L 70.0 104.0 L 70.33333333333333 104.66666666666667 L 71.0 105.0 L 72.0 105.0 L 73.0 105.0 L 74.0 105.0 L 75.0 105.0 L 76.0 105.0 L 77.0 105.0 L 77.5 105.0 Z" stroke="none" fill="rgb(253,211,177)" />
<path d="M 53.5 48.5 L 54.0 48.666666666666664 L 55.0 49.0 L 56.0 49.0 L 57.0 49.0 L 58.0 49.0 L 59.0 48.666666666666664 L 60.0 48.0 L 61.0 47.0 L 62.0 46.0 L 63.0 45.0 L 63.666666666666664 44.0 L 64.0 43.0 L 64.0 42.0 L 64.0 41.0 L 64.0 40.0 L 63.666666666666664 39.0 L 63.0 38.0 L 62.0 37.0 L 61.0 36.333333333333336 L 60.0 36.0 L 59.0 36.0 L 58.0 36.0 L 57.0 36.333333333333336 L 56.0 36.666666666666664 L 55.0 37.333333333333336 L 54.0 38.0 L 53.333333333333336 39.0 L 52.666666666666664 40.0 L 52.333333333333336 41.0 L 52.0 42.0 L 52.0 43.0 L 52.0 44.0 L 52.0 45.0 L 52.0 46.0 L 52.333333333333336 47.0 L 52.5 47.5 Z" stroke="none" fill="rgb(255,211,176)" />
<path d="M 40.5 99.0 L 41.0 99.0 L 42.0 98.66666666666667 L 42.666666666666664 98.0 L 43.333333333333336 97.0 L 44.0 96.0 L 45.0 95.0 L 46.0 94.0 L 47.0 93.0 L 47.666666666666664 92.0 L 48.0 91.0 L 48.0 90.0 L 48.0 89.0 L 48.0 88.0 L 48.0 87.0 L 47.666666666666664 86.0 L 47.0 85.0 L 46.0 84.0 L 45.0 83.0 L 44.0 82.33333333333333 L 43.0 82.0 L 42.333333333333336 82.33333333333333 L 42.0 83.0 L 42.0 84.0 L 42.0 85.0 L 42.0 86.0 L 42.0 87.0 L 41.666666666666664 88.0 L 41.333333333333336 89.0 L 41.0 90.0 L 41.0 91.0 L 40.666666666666664 92.0 L 40.0 93.0 L 39.0 94.0 L 38.333333333333336 95.0 L 37.666666666666664 96.0 L 37.333333333333336 97.0 L 37.0 98.0 L 37.333333333333336 98.66666666666667 L 38.0 99.0 L 39.0 99.0 L 39.5 99.0 Z" stroke="none" fill="rgb(109,163,175)" />
<path d="M 43.5 106.0 L 44.0 105.66666666666667 L 44.666666666666664 105.0 L 45.0 104.0 L 44.666666666666664 103.0 L 44.0 102.0 L 43.0 101.0 L 42.333333333333336 100.0 L 41.666666666666664 99.33333333333333 L 41.0 99.0 L 40.0 99.0 L 39.0 99.0 L 38.0 98.66666666666667 L 37.0 98.33333333333333 L 36.0 98.33333333333333 L 35.0 99.0 L 34.333333333333336 100.0 L 34.0 101.0 L 34.0 102.0 L 34.0 103.0 L 34.333333333333336 104.0 L 35.0 104.66666666666667 L 36.0 105.0 L 37.0 105.33333333333333 L 38.0 105.66666666666667 L 39.0 106.0 L 40.0 106.0 L 41.0 106.0 L 42.0 106.0 L 42.5 106.0 Z" stroke="none" fill="rgb(253,211,177)" />
<path d="M 38.0 54.5 L 38.0 54.0 L 38.0 53.0 L 38.0 52.0 L 37.666666666666664 51.0 L 37.0 50.333333333333336 L 36.0 50.0 L 35.0 50.333333333333336 L 34.0 51.0 L 33.333333333333336 52.0 L 32.666666666666664 53.0 L 32.333333333333336 54.0 L 32.0 55.0 L 32.333333333333336 56.0 L 33.0 56.666666666666664 L 34.0 57.0 L 35.0 57.0 L 36.0 56.666666666666664 L 37.0 56.0 L 37.5 55.5 Z" stroke="none" fill="rgb(45,43,46)" />
<path d="M 11.5 57.5 L 12.0 57.0 L 12.666666666666666 56.0 L 13.0 55.0 L 12.666666666666666 54.0 L 12.0 53.333333333333336 L 11.0 53.0 L 10.0 53.0 L 9.0 53.333333333333336 L 8.333333333333334 54.0 L 8.0 55.0 L 8.0 56.0 L 8.333333333333334 57.0 L 9.0 57.666666666666664 L 10.0 58.0 L 10.5 58.0 Z" stroke="none" fill="rgb(255,211,176)" />
<path d="M 13.0 60.5 L 13.0 60.0 L 13.333333333333334 59.0 L 13.666666666666666 58.0 L 14.0 57.0 L 14.0 56.0 L 13.666666666666666 55.333333333333336 L 13.0 55.333333333333336 L 12.0 56.0 L 11.0 57.0 L 10.333333333333334 58.0 L 10.333333333333334 59.0 L 11.0 60.0 L 12.0 60.666666666666664 L 12.5 61.0 Z" stroke="none" fill="rgb(45,43,46)" />
<path d="M 11.0 52.5 L 10.666666666666666 52.333333333333336 L 10.0 52.0 L 9.333333333333334 52.333333333333336 L 9.333333333333334 52.666666666666664 L 10.0 53.0 L 10.5 53.0 Z" stroke="none" fill="rgb(0,0,0)" />
<path d="M 7.5 56.0 L 7.666666666666667 55.666666666666664 L 7.666666666666667 55.333333333333336 L 7.333333333333333 55.333333333333336 L 7.0 55.5 Z" stroke="none" fill="rgb(255,255,255)" />
<path d="M 42.5 82.0 L 42.666666666666664 81.66666666666667 L 42.666666666666664 81.33333333333333 L 42.333333333333336 81.33333333333333 L 42.0 81.5 Z" stroke="none" fill="rgb(0,0,0)" />
<path d="M 111.5 83.0 L 111.66666666666667 82.66666666666667 L 111.66666666666667 82.33333333333333 L 111.33333333333333 82.33333333333333 L 111.0 82.5 Z" stroke="none" fill="rgb(0,0,0)" />
<path d="M 108.5 96.0 L 108.66666666666667 95.66666666666667 L 108.66666666666667 95.33333333333333 L 108.33333333333333 95.33333333333333 L 108.0 95.5 Z" stroke="none" fill="rgb(0,0,0)" />
<path d="M 107.5 97.0 L 107.66666666666667 96.66666666666667 L 107.66666666666667 96.33333333333333 L 107.33333333333333 96.33333333333333 L 107.0 96.5 Z" stroke="none" fill="rgb(0,0,0)" />
<path d="M 106.5 98.0 L 106.66666666666667 97.66666666666667 L 106.66666666666667 97.33333333333333 L 106.33333333333333 97.33333333333333 L 106.0 97.5 Z" stroke="none" fill="rgb(0,0,0)" />
<path d="M 105.5 99.0 L 105.66666666666667 98.66666666666667 L 105.66666666666667 98.33333333333333 L 105.33333333333333 98.33333333333333 L 105.0 98.5 Z" stroke="none" fill="rgb(0,0,0)" />
<path d="M 100.5 103.0 L 100.66666666666667 102.66666666666667 L 100.66666666666667 102.33333333333333 L 100.33333333333333 102.33333333333333 L 100.0 102.5 Z" stroke="none" fill="rgb(0,0,0)" />
<path d="M 45.5 105.0 L 45.666666666666664 104.66666666666667 L 45.666666666666664 104.33333333333333 L 45.333333333333336 104.33333333333333 L 45.0 104.5 Z" stroke="none" fill="rgb(0,0,0)" />
</svg>
