<?xml version="1.0" encoding="UTF-8" standalone="no"?>
<!DOCTYPE svg PUBLIC "-//W3C//DTD SVG 1.1//EN"
"http://www.w3.org/Graphics/SVG/1.1/DTD/svg11.dtd">
<svg width="128" height="128" xmlns="http://www.w3.org/2000/svg" version="1.1">
<path d="M 93.5 128.0 L 94.0 128.0 L 95.0 128.0 L 96.0 128.0 L 97.0 128.0 L 98.0 128.0 L 99.0 128.0 L 100.0 128.0 L 101.0 128.0 L 102.0 128.0 L 103.0 128.0 L 104.0 128.0 L 105.0 128.0 L 106.0 128.0 L 107.0 128.0 L 108.0 128.0 L 109.0 128.0 L 110.0 128.0 L 111.0 128.0 L 112.0 128.0 L 113.0 128.0 L 114.0 128.0 L 115.0 128.0 L 116.0 128.0 L 117.0 128.0 L 118.0 128.0 L 119.0 128.0 L 120.0 128.0 L 121.0 128.0 L 122.0 128.0 L 123.0 128.0 L 124.0 128.0 L 125.0 128.0 L 126.0 128.0 L 127.0 128.0 L 127.66666666666667 127.66666666666667 L 128.0 127.0 L 128.0 126.0 L 128.0 125.0 L 128.0 124.0 L 128.0 123.0 L 128.0 122.0 L 128.0 121.0 L 128.0 120.0 L 128.0 119.0 L 128.0 118.0 L 128.0 117.0 L 128.0 116.0 L 128.0 115.0 L 128.0 114.0 L 128.0 113.0 L 128.0 112.0 L 128.0 111.0 L 128.0 110.0 L 128.0 109.0 L 128.0 108.0 L 128.0 107.0 L 128.0 106.0 L 128.0 105.0 L 128.0 104.0 L 128.0 103.0 L 128.0 102.0 L 128.0 101.0 L 128.0 100.0 L 128.0 99.0 L 128.0 98.0 L 128.0 97.0 L 128.0 96.0 L 128.0 95.0 L 128.0 94.0 L 128.0 93.0 L 128.0 92.0 L 128.0 91.0 L 128.0 90.0 L 128.0 89.0 L 128.0 88.0 L 128.0 87.0 L 128.0 86.0 L 128.0 85.0 L 128.0 84.0 L 128.0 83.0 L 128.0 82.0 L 128.0 81.0 L 128.0 80.0 L 128.0 79.0 L 128.0 78.0 L 128.0 77.0 L 128.0 76.0 L 128.0 75.0 L 128.0 74.0 L 128.0 73.0 L 128.0 72.0 L 128.0 71.0 L 128.0 70.0 L 128.0 69.0 L 128.0 68.0 L 128.0 67.0 L 128.0 66.0 L 128.0 65.0 L 128.0 64.0 L 128.0 63.0 L 128.0 62.0 L 128.0 61.0 L 128.0 60.0 L 128.0 59.0 L 128.0 58.0 L 128.0 57.0 L 128.0 56.0 L 128.0 55.0 L 128.0 54.0 L 128.0 53.0 L 128.0 52.0 L 128.0 51.0 L 128.0 50.0 L 128.0 49.0 L 128.0 48.0 L 128.0 47.0 L 128.0 46.0 L 128.0 45.0 L 128.0 44.0 L 128.0 43.0 L 128.0 42.0 L 128.0 41.0 L 128.0 40.0 L 128.0 39.0 L 128.0 38.0 L 128.0 37.0 L 128.0 36.0 L 128.0 35.0 L 128.0 34.0 L 128.0 33.0 L 128.0 32.0 L 128.0 31.0 L 128.0 30.0 L 128.0 29.0 L 128.0 28.0 L 128.0 27.0 L 128.0 26.0 L 128.0 25.0 L 128.0 24.0 L 128.0 23.0 L 128.0 22.0 L 128.0 21.0 L 128.0 20.0 L 128.0 19.0 L 128.0 18.0 L 128.0 17.0 L 128.0 16.0 L 128.0 15.0 L 128.0 14.0 L 128.0 13.0 L 128.0 12.0 L 128.0 11.0 L 128.0 10.0 L 128.0 9.0 L 128.0 8.0 L 128.0 7.0 L 128.0 6.0 L 128.0 5.0 L 128.0 4.0 L 128.0 3.0 L 128.0 2.0 L 128.0 1.0 L 127.66666666666667 0.3333333333333333 L 127.0 0.0 L 126.0 0.0 L 125.0 0.0 L 124.0 0.0 L 123.0 0.0 L 122.0 0.0 L 121.0 0.0 L 120.0 0.0 L 119.0 0.0 L 118.0 0.0 L 117.0 0.0 L 116.0 0.0 L 115.0 0.0 L 114.0 0.0 L 113.0 0.0 L 112.0 0.0 L 111.0 0.0 L 110.0 0.0 L 109.0 0.0 L 108.0 0.0 L 107.0 0.0 L 106.0 0.0 L 105.0 0.0 L 104.0 0.0 L 103.0 0.0 L 102.0 0.0 L 101.0 0.0 L 100.0 0.0 L 99.0 0.0 L 98.0 0.0 L 97.0 0.0 L 96.0 0.0 L 95.0 0.0 L 94.0 0.0 L 93.0 0.0 L 92.0 0.0 L 91.0 0.0 L 90.0 0.0 L 89.0 0.0 L 88.0 0.0 L 87.0 0.0 L 86.0 0.0 L 85.0 0.0 L 84.0 0.0 L 83.0 0.0 L 82.0 0.0 L 81.0 0.0 L 80.0 0.0 L 79.0 0.0 L 78.0 0.0 L 77.0 0.0 L 76.0 0.0 L 75.0 0.0 L 74.0 0.0 L 73.0 0.0 L 72.0 0.0 L 71.0 0.0 L 70.0 0.0 L 69.0 0.0 L 68.0 0.0 L 67.0 0.0 L 66.0 0.0 L 65.0 0.0 L 64.0 0.0 L 63.0 0.0 L 62.0 0.0 L 61.0 0.0 L 60.0 0.0 L 59.0 0.0 L 58.0 0.0 L 57.0 0.0 L 56.0 0.0 L 55.0 0.0 L 54.0 0.0 L 53.0 0.0 L 52.0 0.0 L 51.0 0.0 L 50.0 0.0 L 49.0 0.0 L 48.0 0.0 L 47.0 0.0 L 46.0 0.0 L 45.0 0.0 L 44.0 0.0 L 43.0 0.0 L 42.0 0.0 L 41.0 0.0 L 40.0 0.0 L 39.0 0.0 L 38.0 0.0 L 37.0 0.0 L 36.0 0.0 L 35.0 0.0 L 34.0 0.0 L 33.0 0.0 L 32.0 0.0 L 31.0 0.0 L 30.0 0.0 L 29.0 0.0 L 28.0 0.0 L 27.0 0.0 L 26.0 0.0 L 25.0 0.0 L 24.0 0.0 L 23.0 0.0 L 22.0 0.0 L 21.0 0.0 L 20.0 0.0 L 19.0 0.0 L 18.0 0.0 L 17.0 0.0 L 16.0 0.0 L 15.0 0.0 L 14.0 0.0 L 13.0 0.0 L 12.0 0.0 L 11.0 0.0 L 10.0 0.0 L 9.0 0.0 L 8.0 0.0 L 7.0 0.0 L 6.0 0.0 L 5.0 0.0 L 4.0 0.0 L 3.0 0.0 L 2.0 0.0 L 1.0 0.0 L 0.3333333333333333 0.3333333333333333 L 0.0 1.0 L 0.0 2.0 L 0.0 3.0 L 0.0 4.0 L 0.0 5.0 L 0.0 6.0 L 0.0 7.0 L 0.0 8.0 L 0.0 9.0 L 0.0 10.0 L 0.0 11.0 L 0.0 12.0 L 0.0 13.0 L 0.0 14.0 L 0.0 15.0 L 0.0 16.0 L 0.0 17.0 L 0.0 18.0 L 0.0 19.0 L 0.0 20.0 L 0.0 21.0 L 0.0 22.0 L 0.0 23.0 L 0.0 24.0 L 0.0 25.0 L 0.0 26.0 L 0.0 27.0 L 0.0 28.0 L 0.0 29.0 L 0.0 30.0 L 0.0 31.0 L 0.0 32.0 L 0.0 33.0 L 0.0 34.0 L 0.0 35.0 L 0.0 36.0 L 0.0 37.0 L 0.0 38.0 L 0.0 39.0 L 0.0 40.0 L 0.0 41.0 L 0.0 42.0 L 0.0 43.0 L 0.0 44.0 L 0.0 45.0 L 0.0 46.0 L 0.0 47.0 L 0.0 48.0 L 0.0 49.0 L 0.0 50.0 L 0.0 51.0 L 0.0 52.0 L 0.0 53.0 L 0.0 54.0 L 0.0 55.0 L 0.0 56.0 L 0.0 57.0 L 0.0 58.0 L 0.0 59.0 L 0.0 60.0 L 0.0 61.0 L 0.0 62.0 L 0.0 63.0 L 0.0 64.0 L 0.0 65.0 L 0.0 66.0 L 0.0 67.0 L 0.0 68.0 L 0.0 69.0 L 0.0 70.0 L 0.0 71.0 L 0.0 72.0 L 0.0 73.0 L 0.0 74.0 L 0.0 75.0 L 0.0 76.0 L 0.0 77.0 L 0.0 78.0 L 0.0 79.0 L 0.0 80.0 L 0.0 81.0 L 0.0 82.0 L 0.0 83.0 L 0.0 84.0 L 0.0 85.0 L 0.0 86.0 L 0.0 87.0 L 0.0 88.0 L 0.0 89.0 L 0.0 90.0 L 0.0 91.0 L 0.0 92.0 L 0.0 93.0 L 0.0 94.0 L 0.0 95.0 L 0.0 96.0 L 0.0 97.0 L 0.0 98.0 L 0.0 99.0 L 0.0 100.0 L 0.0 101.0 L 0.0 102.0 L 0.0 103.0 L 0.0 104.0 L 0.0 105.0 L 0.0 106.0 L 0.0 107.0 L 0.0 108.0 L 0.0 109.0 L 0.0 110.0 L 0.0 111.0 L 0.0 112.0 L 0.0 113.0 L 0.0 114.0 L 0.0 115.0 L 0.0 116.0 L 0.0 117.0 L 0.0 118.0 L 0.0 119.0 L 0.0 120.0 L 0.0 121.0 L 0.0 122.0 L 0.0 123.0 L 0.0 124.0 L 0.0 125.0 L 0.0 126.0 L 0.0 127.0 L 0.3333333333333333 127.66666666666667 L 1.0 128.0 L 2.0 128.0 L 3.0 128.0 L 4.0 128.0 L 5.0 128.0 L 6.0 128.0 L 7.0 128.0 L 8.0 128.0 L 9.0 128.0 L 10.0 128.0 L 11.0 128.0 L 12.0 128.0 L 13.0 128.0 L 14.0 128.0 L 15.0 128.0 L 16.0 128.0 L 17.0 128.0 L 18.0 128.0 L 19.0 128.0 L 20.0 128.0 L 21.0 128.0 L 22.0 128.0 L 23.0 128.0 L 24.0 128.0 L 25.0 128.0 L 26.0 128.0 L 27.0 128.0 L 28.0 128.0 L 29.0 128.0 L 30.0 128.0 L 31.0 128.0 L 32.0 128.0 L 33.0 128.0 L 34.0 128.0 L 35.0 128.0 L 36.0 128.0 L 37.0 128.0 L 38.0 128.0 L 39.0 128.0 L 40.0 128.0 L 41.0 128.0 L 42.0 128.0 L 43.0 128.0 L 44.0 128.0 L 45.0 128.0 L 46.0 128.0 L 47.0 128.0 L 48.0 128.0 L 49.0 128.0 L 50.0 128.0 L 51.0 128.0 L 52.0 128.0 L 53.0 128.0 L 54.0 128.0 L 55.0 128.0 L 56.0 128.0 L 57.0 128.0 L 58.0 128.0 L 59.0 128.0 L 60.0 128.0 L 61.0 128.0 L 62.0 128.0 L 63.0 128.0 L 64.0 128.0 L 65.0 128.0 L 66.0 128.0 L 67.0 128.0 L 68.0 128.0 L 69.0 128.0 L 70.0 128.0 L 71.0 128.0 L 72.0 128.0 L 73.0 128.0 L 74.0 128.0 L 75.0 128.0 L 76.0 128.0 L 77.0 128.0 L 78.0 128.0 L 79.0 128.0 L 80.0 128.0 L 81.0 128.0 L 82.0 128.0 L 83.0 128.0 L 84.0 128.0 L 85.0 128.0 L 86.0 128.0 L 87.0 128.0 L 88.0 128.0 L 89.0 128.0 L 90.0 128.0 L 91.0 128.0 L 92.0 128.0 L 92.5 128.0 Z" stroke="none" fill="rgb(255,255,255)" />
<path d="M 95.5 124.0 L 96.0 124.0 L 97.0 124.0 L 98.0 124.0 L 99.0 124.0 L 100.0 124.0 L 101.0 124.0 L 102.0 124.0 L 103.0 124.0 L 104.0 124.0 L 105.0 124.0 L 106.0 124.0 L 107.0 124.0 L 108.0 124.0 L 109.0 124.0 L 110.0 124.0 L 111.0 124.0 L 112.0 124.0 L 113.0 123.66666666666667 L 114.0 123.33333333333333 L 115.0 123.0 L 116.0 123.0 L 117.0 122.66666666666667 L 118.0 122.33333333333333 L 119.0 121.66666666666667 L 120.0 121.33333333333333 L 121.0 120.66666666666667 L 122.0 120.33333333333333 L 123.0 119.66666666666667 L 123.66666666666667 119.0 L 124.0 118.0 L 124.0 117.0 L 124.0 116.0 L 124.0 115.0 L 124.0 114.0 L 124.0 113.0 L 124.0 112.0 L 124.0 111.0 L 124.0 110.0 L 124.0 109.0 L 124.0 108.0 L 124.0 107.0 L 124.0 106.0 L 124.0 105.0 L 124.0 104.0 L 124.0 103.0 L 124.0 102.0 L 124.0 101.0 L 124.0 100.0 L 124.0 99.0 L 124.0 98.0 L 124.0 97.0 L 124.0 96.0 L 124.0 95.0 L 124.0 94.0 L 124.0 93.0 L 124.0 92.0 L 124.0 91.0 L 124.0 90.0 L 124.0 89.0 L 124.0 88.0 L 124.0 87.0 L 124.0 86.0 L 124.0 85.0 L 124.0 84.0 L 124.0 83.0 L 124.0 82.0 L 124.0 81.0 L 124.0 80.0 L 124.0 79.0 L 124.0 78.0 L 124.0 77.0 L 124.0 76.0 L 124.0 75.0 L 124.0 74.0 L 124.0 73.0 L 124.0 72.0 L 124.0 71.0 L 124.0 70.0 L 124.0 69.0 L 124.0 68.0 L 124.0 67.0 L 124.0 66.0 L 124.0 65.0 L 123.66666666666667 64.0 L 123.0 63.0 L 122.0 62.333333333333336 L 121.0 62.0 L 120.0 62.0 L 119.0 62.0 L 118.0 62.0 L 117.0 62.0 L 116.0 62.0 L 115.0 62.333333333333336 L 114.0 62.666666666666664 L 113.0 63.0 L 112.0 63.0 L 111.0 63.0 L 110.0 63.0 L 109.0 63.0 L 108.0 63.0 L 107.0 63.0 L 106.0 63.0 L 105.0 63.0 L 104.0 63.0 L 103.0 63.0 L 102.0 63.0 L 101.0 63.0 L 100.0 63.0 L 99.0 63.0 L 98.0 63.0 L 97.0 63.0 L 96.0 63.0 L 95.0 63.0 L 94.0 63.0 L 93.0 63.0 L 92.0 63.0 L 91.0 63.0 L 90.0 63.0 L 89.0 63.0 L 88.0 63.0 L 87.0 63.0 L 86.0 63.0 L 85.0 62.666666666666664 L 84.0 62.333333333333336 L 83.0 62.0 L 82.0 62.0 L 81.0 62.0 L 80.0 62.0 L 79.0 62.0 L 78.0 62.333333333333336 L 77.0 62.666666666666664 L 76.0 63.333333333333336 L 75.0 64.0 L 74.33333333333333 65.0 L 74.0 66.0 L 73.66666666666667 67.0 L 73.33333333333333 68.0 L 73.0 69.0 L 73.0 70.0 L 73.0 71.0 L 73.0 72.0 L 73.0 73.0 L 73.0 74.0 L 73.0 75.0 L 73.33333333333333 75.66666666666667 L 74.0 76.0 L 75.0 75.66666666666667 L 76.0 75.33333333333333 L 77.0 74.66666666666667 L 78.0 74.33333333333333 L 79.0 74.0 L 80.0 74.0 L 81.0 74.0 L 82.0 74.0 L 83.0 74.0 L 84.0 74.33333333333333 L 85.0 74.66666666666667 L 86.0 75.33333333333333 L 87.0 76.0 L 88.0 77.0 L 88.33333333333333 78.0 L 88.0 79.0 L 87.0 79.33333333333333 L 86.0 79.33333333333333 L 85.0 79.0 L 84.0 79.0 L 83.0 79.0 L 82.0 79.0 L 81.0 79.0 L 80.0 79.0 L 79.0 79.0 L 78.0 79.0 L 77.0 79.33333333333333 L 76.0 79.66666666666667 L 75.0 80.0 L 74.0 80.0 L 73.0 80.0 L 72.33333333333333 80.33333333333333 L 72.0 81.0 L 72.0 82.0 L 72.0 83.0 L 72.0 84.0 L 72.0 85.0 L 71.66666666666667 86.0 L 71.33333333333333 87.0 L 71.0 88.0 L 71.0 89.0 L 71.0 90.0 L 71.0 91.0 L 71.0 92.0 L 71.0 93.0 L 71.0 94.0 L 71.0 95.0 L 71.33333333333333 96.0 L 71.66666666666667 97.0 L 72.0 98.0 L 72.0 99.0 L 72.33333333333333 100.0 L 72.66666666666667 101.0 L 73.0 102.0 L 73.33333333333333 103.0 L 73.66666666666667 104.0 L 74.0 105.0 L 74.33333333333333 106.0 L 74.66666666666667 107.0 L 75.33333333333333 108.0 L 75.66666666666667 109.0 L 76.33333333333333 110.0 L 77.0 111.0 L 77.66666666666667 112.0 L 78.33333333333333 113.0 L 79.0 114.0 L 80.0 115.0 L 81.0 116.0 L 82.0 117.0 L 83.0 118.0 L 84.0 118.66666666666667 L 85.0 119.33333333333333 L 86.0 120.0 L 87.0 120.66666666666667 L 88.0 121.33333333333333 L 89.0 121.66666666666667 L 90.0 122.0 L 91.0 122.33333333333333 L 92.0 122.66666666666667 L 93.0 123.0 L 94.0 123.33333333333333 L 94.5 123.5 Z" stroke="none" fill="rgb(224,187,149)" />
<path d="M 26.5 124.0 L 27.0 124.0 L 28.0 124.0 L 29.0 124.0 L 30.0 124.0 L 31.0 124.0 L 32.0 124.0 L 33.0 124.0 L 34.0 124.0 L 35.0 124.0 L 35.666666666666664 123.66666666666667 L 36.0 123.0 L 36.333333333333336 122.0 L 37.0 121.33333333333333 L 38.0 120.66666666666667 L 39.0 120.33333333333333 L 40.0 119.66666666666667 L 41.0 119.0 L 42.0 118.0 L 43.0 117.0 L 44.0 116.0 L 45.0 115.0 L 46.0 114.0 L 47.0 113.0 L 47.666666666666664 112.0 L 48.333333333333336 111.0 L 49.0 110.0 L 49.666666666666664 109.0 L 50.333333333333336 108.0 L 51.0 107.0 L 51.666666666666664 106.0 L 52.333333333333336 105.0 L 52.666666666666664 104.0 L 53.0 103.0 L 53.333333333333336 102.0 L 53.666666666666664 101.0 L 54.333333333333336 100.0 L 54.666666666666664 99.0 L 55.0 98.0 L 55.0 97.0 L 55.0 96.0 L 55.0 95.0 L 55.0 94.0 L 55.0 93.0 L 55.0 92.0 L 55.0 91.0 L 55.0 90.0 L 55.0 89.0 L 55.0 88.0 L 55.0 87.0 L 55.0 86.0 L 55.0 85.0 L 55.0 84.0 L 55.0 83.0 L 55.0 82.0 L 55.0 81.0 L 54.666666666666664 80.0 L 54.0 79.33333333333333 L 53.0 79.0 L 52.0 79.0 L 51.0 79.0 L 50.0 79.0 L 49.0 79.0 L 48.0 79.0 L 47.0 79.0 L 46.0 79.0 L 45.0 79.0 L 44.0 79.0 L 43.0 79.0 L 42.0 79.0 L 41.0 79.0 L 40.0 78.66666666666667 L 39.666666666666664 78.0 L 40.0 77.0 L 41.0 76.33333333333333 L 42.0 75.66666666666667 L 43.0 75.33333333333333 L 44.0 75.0 L 45.0 75.0 L 46.0 74.66666666666667 L 47.0 74.33333333333333 L 48.0 74.0 L 49.0 74.33333333333333 L 50.0 74.66666666666667 L 51.0 75.33333333333333 L 52.0 76.0 L 53.0 76.66666666666667 L 54.0 77.0 L 54.666666666666664 76.66666666666667 L 55.0 76.0 L 55.0 75.0 L 54.666666666666664 74.0 L 54.333333333333336 73.0 L 54.0 72.0 L 54.0 71.0 L 53.666666666666664 70.0 L 53.333333333333336 69.0 L 52.666666666666664 68.0 L 52.333333333333336 67.0 L 51.666666666666664 66.0 L 51.0 65.0 L 50.0 64.0 L 49.0 63.0 L 48.0 62.0 L 47.0 61.0 L 46.0 60.0 L 45.0 59.0 L 44.0 58.0 L 43.0 57.0 L 42.0 56.333333333333336 L 41.0 56.333333333333336 L 40.0 56.666666666666664 L 39.0 57.333333333333336 L 38.0 58.0 L 37.0 59.0 L 36.0 59.666666666666664 L 35.0 60.333333333333336 L 34.0 61.0 L 33.0 61.666666666666664 L 32.0 62.333333333333336 L 31.0 62.666666666666664 L 30.0 63.333333333333336 L 29.0 63.666666666666664 L 28.0 64.33333333333333 L 27.0 64.66666666666667 L 26.0 65.0 L 25.0 65.33333333333333 L 24.0 65.66666666666667 L 23.0 66.33333333333333 L 22.0 66.66666666666667 L 21.0 67.0 L 20.0 67.0 L 19.0 67.33333333333333 L 18.0 67.66666666666667 L 17.0 68.0 L 16.0 68.33333333333333 L 15.0 68.66666666666667 L 14.0 69.0 L 13.0 69.0 L 12.0 69.33333333333333 L 11.0 69.66666666666667 L 10.0 70.0 L 9.0 70.33333333333333 L 8.0 71.0 L 7.0 72.0 L 6.0 73.0 L 5.333333333333333 74.0 L 5.0 75.0 L 5.0 76.0 L 4.666666666666667 77.0 L 4.333333333333333 78.0 L 4.0 79.0 L 4.0 80.0 L 4.0 81.0 L 4.0 82.0 L 4.0 83.0 L 4.0 84.0 L 4.0 85.0 L 4.0 86.0 L 4.0 87.0 L 4.0 88.0 L 4.0 89.0 L 4.0 90.0 L 4.0 91.0 L 4.0 92.0 L 4.0 93.0 L 4.0 94.0 L 4.0 95.0 L 4.0 96.0 L 4.0 97.0 L 4.0 98.0 L 4.0 99.0 L 4.0 100.0 L 4.0 101.0 L 4.0 102.0 L 4.0 103.0 L 4.0 104.0 L 4.0 105.0 L 4.0 106.0 L 4.0 107.0 L 4.0 108.0 L 4.0 109.0 L 4.0 110.0 L 4.0 111.0 L 4.0 112.0 L 4.0 113.0 L 4.0 114.0 L 4.0 115.0 L 4.333333333333333 116.0 L 5.0 117.0 L 6.0 118.0 L 7.0 118.66666666666667 L 8.0 119.33333333333333 L 9.0 119.66666666666667 L 10.0 120.33333333333333 L 11.0 121.0 L 12.0 122.0 L 13.0 123.0 L 14.0 123.66666666666667 L 15.0 124.0 L 16.0 124.0 L 17.0 124.0 L 18.0 124.0 L 19.0 124.0 L 20.0 124.0 L 21.0 124.0 L 22.0 124.0 L 23.0 124.0 L 24.0 124.0 L 25.0 124.0 L 25.5 124.0 Z" stroke="none" fill="rgb(224,187,149)" />
<path d="M 88.0 25.5 L 88.0 25.0 L 88.0 24.0 L 88.0 23.0 L 88.0 22.0 L 88.0 21.0 L 88.0 20.0 L 88.0 19.0 L 88.0 18.0 L 88.0 17.0 L 88.0 16.0 L 88.0 15.0 L 88.0 14.0 L 88.0 13.0 L 87.66666666666667 12.0 L 87.33333333333333 11.0 L 86.66666666666667 10.0 L 86.0 9.0 L 85.0 8.0 L 84.0 7.333333333333333 L 83.0 6.666666666666667 L 82.0 6.333333333333333 L 81.0 5.666666666666667 L 80.0 5.333333333333333 L 79.0 5.0 L 78.0 5.0 L 77.0 5.0 L 76.0 5.0 L 75.0 5.0 L 74.0 5.0 L 73.0 5.0 L 72.0 5.0 L 71.0 5.0 L 70.0 5.333333333333333 L 69.0 6.0 L 68.0 7.0 L 67.0 8.0 L 66.0 9.0 L 65.33333333333333 10.0 L 64.66666666666667 11.0 L 64.33333333333333 12.0 L 64.0 13.0 L 64.0 14.0 L 63.666666666666664 15.0 L 63.0 15.666666666666666 L 62.0 15.666666666666666 L 61.0 15.0 L 60.333333333333336 14.0 L 59.666666666666664 13.0 L 59.333333333333336 12.0 L 58.666666666666664 11.0 L 58.0 10.0 L 57.0 9.0 L 56.0 8.0 L 55.0 7.333333333333333 L 54.0 6.666666666666667 L 53.0 6.333333333333333 L 52.0 5.666666666666667 L 51.0 5.333333333333333 L 50.0 5.0 L 49.0 5.0 L 48.0 5.0 L 47.0 5.0 L 46.0 5.0 L 45.0 5.333333333333333 L 44.0 5.666666666666667 L 43.0 6.0 L 42.0 6.333333333333333 L 41.0 6.666666666666667 L 40.0 7.0 L 39.0 7.333333333333333 L 38.0 8.0 L 37.0 9.0 L 36.333333333333336 10.0 L 36.0 11.0 L 35.666666666666664 12.0 L 35.333333333333336 13.0 L 35.0 14.0 L 35.0 15.0 L 35.0 16.0 L 35.0 17.0 L 35.0 18.0 L 35.0 19.0 L 35.0 20.0 L 35.0 21.0 L 35.0 22.0 L 35.0 23.0 L 35.0 24.0 L 35.333333333333336 25.0 L 35.666666666666664 26.0 L 36.0 27.0 L 36.333333333333336 28.0 L 36.666666666666664 29.0 L 37.333333333333336 30.0 L 38.0 31.0 L 39.0 32.0 L 39.666666666666664 33.0 L 40.333333333333336 34.0 L 41.0 35.0 L 42.0 36.0 L 42.666666666666664 37.0 L 43.333333333333336 38.0 L 44.0 39.0 L 45.0 40.0 L 46.0 41.0 L 47.0 42.0 L 48.0 43.0 L 49.0 44.0 L 50.0 45.0 L 51.0 46.0 L 52.0 47.0 L 53.0 48.0 L 54.0 49.0 L 55.0 50.0 L 56.0 51.0 L 57.0 52.0 L 58.0 53.0 L 59.0 54.0 L 60.0 55.0 L 61.0 55.666666666666664 L 62.0 56.333333333333336 L 63.0 56.666666666666664 L 64.0 56.666666666666664 L 65.0 56.0 L 66.0 55.0 L 67.0 54.0 L 68.0 53.333333333333336 L 69.0 53.0 L 70.0 52.666666666666664 L 71.0 52.0 L 71.66666666666667 51.0 L 71.66666666666667 50.0 L 71.66666666666667 49.0 L 72.0 48.0 L 73.0 47.0 L 74.0 46.0 L 75.0 45.0 L 75.66666666666667 44.0 L 76.33333333333333 43.0 L 77.0 42.0 L 78.0 41.0 L 79.0 40.0 L 80.0 39.0 L 80.66666666666667 38.0 L 81.33333333333333 37.0 L 82.0 36.0 L 82.66666666666667 35.0 L 83.33333333333333 34.0 L 84.0 33.0 L 84.66666666666667 32.0 L 85.33333333333333 31.0 L 85.66666666666667 30.0 L 86.33333333333333 29.0 L 86.66666666666667 28.0 L 87.33333333333333 27.0 L 87.5 26.5 Z" stroke="none" fill="rgb(239,85,146)" />
<path d="M 23.5 66.5 L 24.0 66.33333333333333 L 25.0 65.66666666666667 L 26.0 65.33333333333333 L 27.0 65.0 L 28.0 64.66666666666667 L 29.0 64.33333333333333 L 30.0 63.666666666666664 L 31.0 63.333333333333336 L 32.0 62.666666666666664 L 33.0 62.333333333333336 L 34.0 61.666666666666664 L 35.0 61.0 L 36.0 60.333333333333336 L 37.0 59.666666666666664 L 38.0 59.0 L 39.0 58.0 L 40.0 57.333333333333336 L 41.0 57.0 L 42.0 57.333333333333336 L 43.0 58.0 L 44.0 59.0 L 45.0 60.0 L 46.0 61.0 L 47.0 62.0 L 48.0 63.0 L 49.0 64.0 L 50.0 65.0 L 51.0 66.0 L 51.666666666666664 67.0 L 52.333333333333336 68.0 L 52.666666666666664 69.0 L 53.333333333333336 70.0 L 53.666666666666664 71.0 L 54.0 72.0 L 54.0 73.0 L 54.333333333333336 74.0 L 54.666666666666664 75.0 L 54.666666666666664 76.0 L 54.0 76.33333333333333 L 53.0 76.0 L 52.0 75.33333333333333 L 51.0 74.66666666666667 L 50.0 74.33333333333333 L 49.0 74.0 L 48.0 74.0 L 47.0 74.0 L 46.0 74.33333333333333 L 45.0 74.66666666666667 L 44.0 75.0 L 43.0 75.0 L 42.0 75.33333333333333 L 41.0 75.66666666666667 L 40.0 76.33333333333333 L 39.333333333333336 77.0 L 39.0 78.0 L 39.333333333333336 78.66666666666667 L 40.0 79.0 L 41.0 79.0 L 42.0 79.0 L 43.0 79.0 L 44.0 79.0 L 45.0 79.0 L 46.0 79.0 L 47.0 79.0 L 48.0 79.0 L 49.0 79.0 L 50.0 79.0 L 51.0 79.0 L 52.0 79.0 L 53.0 79.33333333333333 L 54.0 80.0 L 54.666666666666664 81.0 L 55.0 82.0 L 55.0 83.0 L 55.0 84.0 L 55.0 85.0 L 55.0 86.0 L 55.0 87.0 L 55.0 88.0 L 55.0 89.0 L 55.0 90.0 L 55.0 91.0 L 55.0 92.0 L 55.0 93.0 L 55.0 94.0 L 55.0 95.0 L 55.0 96.0 L 55.0 97.0 L 54.666666666666664 98.0 L 54.333333333333336 99.0 L 53.666666666666664 100.0 L 53.333333333333336 101.0 L 53.0 102.0 L 52.666666666666664 103.0 L 52.333333333333336 104.0 L 51.666666666666664 105.0 L 51.0 106.0 L 50.333333333333336 107.0 L 49.666666666666664 108.0 L 49.0 109.0 L 48.333333333333336 110.0 L 47.666666666666664 111.0 L 47.0 112.0 L 46.0 113.0 L 45.0 114.0 L 44.0 115.0 L 43.0 116.0 L 42.0 117.0 L 41.0 118.0 L 40.0 119.0 L 39.0 119.66666666666667 L 38.333333333333336 120.33333333333333 L 38.333333333333336 120.66666666666667 L 39.0 121.33333333333333 L 40.0 121.66666666666667 L 41.0 122.0 L 42.0 121.66666666666667 L 43.0 121.33333333333333 L 44.0 120.66666666666667 L 45.0 120.0 L 46.0 119.0 L 47.0 118.33333333333333 L 48.0 118.0 L 49.0 117.66666666666667 L 50.0 117.0 L 51.0 116.0 L 52.0 115.0 L 53.0 114.0 L 54.0 113.0 L 55.0 112.0 L 55.666666666666664 111.0 L 56.333333333333336 110.0 L 56.666666666666664 109.0 L 57.0 108.0 L 57.0 107.0 L 57.0 106.0 L 57.333333333333336 105.0 L 57.666666666666664 104.0 L 58.0 103.0 L 58.333333333333336 102.0 L 58.666666666666664 101.0 L 59.0 100.0 L 59.0 99.0 L 59.0 98.0 L 59.0 97.0 L 59.0 96.0 L 59.0 95.0 L 59.0 94.0 L 59.0 93.0 L 59.0 92.0 L 59.333333333333336 91.0 L 60.0 90.33333333333333 L 60.666666666666664 89.66666666666667 L 61.0 89.0 L 61.0 88.0 L 61.0 87.0 L 61.0 86.0 L 61.0 85.0 L 60.666666666666664 84.0 L 60.0 83.0 L 59.333333333333336 82.0 L 59.0 81.0 L 59.0 80.0 L 59.0 79.0 L 59.0 78.0 L 59.0 77.0 L 58.666666666666664 76.0 L 58.333333333333336 75.0 L 58.0 74.0 L 57.666666666666664 73.0 L 57.333333333333336 72.0 L 57.0 71.0 L 56.666666666666664 70.0 L 56.333333333333336 69.0 L 55.666666666666664 68.0 L 55.333333333333336 67.0 L 54.666666666666664 66.0 L 54.333333333333336 65.0 L 53.666666666666664 64.0 L 53.333333333333336 63.0 L 52.666666666666664 62.0 L 52.0 61.0 L 51.0 60.0 L 50.0 59.0 L 49.0 58.0 L 48.333333333333336 57.0 L 47.666666666666664 56.333333333333336 L 47.0 55.666666666666664 L 46.0 55.0 L 45.0 54.0 L 44.0 53.0 L 43.0 52.333333333333336 L 42.0 51.666666666666664 L 41.0 51.333333333333336 L 40.0 50.666666666666664 L 39.0 50.333333333333336 L 38.0 49.666666666666664 L 37.0 49.333333333333336 L 36.0 48.666666666666664 L 35.0 48.333333333333336 L 34.0 48.0 L 33.0 48.0 L 32.0 47.666666666666664 L 31.0 47.333333333333336 L 30.0 47.0 L 29.0 47.0 L 28.0 47.0 L 27.0 47.0 L 26.0 47.0 L 25.0 47.0 L 24.0 47.0 L 23.0 47.0 L 22.0 47.0 L 21.0 47.0 L 20.0 47.0 L 19.0 47.0 L 18.0 47.333333333333336 L 17.0 47.666666666666664 L 16.0 48.0 L 15.0 48.0 L 14.0 48.333333333333336 L 13.0 48.666666666666664 L 12.0 49.0 L 11.0 49.333333333333336 L 10.0 49.666666666666664 L 9.0 50.333333333333336 L 8.0 51.0 L 7.0 51.666666666666664 L 6.0 52.333333333333336 L 5.0 53.0 L 4.333333333333333 54.0 L 4.0 55.0 L 4.0 56.0 L 4.0 57.0 L 4.0 58.0 L 4.0 59.0 L 4.0 60.0 L 4.0 61.0 L 4.0 62.0 L 4.0 63.0 L 4.0 64.0 L 4.0 65.0 L 4.0 66.0 L 4.0 67.0 L 4.0 68.0 L 4.0 69.0 L 4.0 70.0 L 4.0 71.0 L 4.0 72.0 L 4.333333333333333 73.0 L 5.0 73.66666666666667 L 6.0 73.66666666666667 L 7.0 73.0 L 8.0 72.0 L 9.0 71.0 L 10.0 70.33333333333333 L 11.0 70.0 L 12.0 69.66666666666667 L 13.0 69.33333333333333 L 14.0 69.0 L 15.0 69.0 L 16.0 68.66666666666667 L 17.0 68.33333333333333 L 18.0 68.0 L 19.0 67.66666666666667 L 20.0 67.33333333333333 L 21.0 67.0 L 22.0 67.0 L 22.5 67.0 Z" stroke="none" fill="rgb(171,135,47)" />
<path d="M 105.5 63.0 L 106.0 63.0 L 107.0 63.0 L 108.0 63.0 L 109.0 63.0 L 110.0 63.0 L 111.0 63.0 L 112.0 63.0 L 113.0 63.0 L 114.0 63.0 L 115.0 62.666666666666664 L 116.0 62.333333333333336 L 117.0 62.0 L 118.0 62.0 L 119.0 62.0 L 120.0 62.0 L 121.0 62.333333333333336 L 122.0 62.666666666666664 L 123.0 63.0 L 123.66666666666667 62.666666666666664 L 124.0 62.0 L 124.0 61.0 L 124.0 60.0 L 124.0 59.0 L 124.0 58.0 L 124.0 57.0 L 124.0 56.0 L 124.0 55.0 L 124.0 54.0 L 124.0 53.0 L 124.0 52.0 L 124.0 51.0 L 123.66666666666667 50.0 L 123.0 49.333333333333336 L 122.0 48.666666666666664 L 121.0 48.0 L 120.0 47.333333333333336 L 119.0 46.666666666666664 L 118.0 46.333333333333336 L 117.0 46.0 L 116.0 45.666666666666664 L 115.0 45.333333333333336 L 114.0 45.0 L 113.0 44.666666666666664 L 112.0 44.333333333333336 L 111.0 44.0 L 110.0 44.0 L 109.0 44.0 L 108.0 44.0 L 107.0 44.0 L 106.0 44.0 L 105.0 44.0 L 104.0 44.0 L 103.0 44.0 L 102.0 44.0 L 101.0 44.333333333333336 L 100.0 44.666666666666664 L 99.0 45.0 L 98.0 45.333333333333336 L 97.0 45.666666666666664 L 96.0 46.333333333333336 L 95.0 46.666666666666664 L 94.0 47.333333333333336 L 93.0 47.666666666666664 L 92.0 48.333333333333336 L 91.0 49.0 L 90.0 50.0 L 89.0 51.0 L 88.0 52.0 L 87.0 53.0 L 86.0 54.0 L 85.33333333333333 55.0 L 84.66666666666667 56.0 L 84.0 57.0 L 83.33333333333333 58.0 L 82.66666666666667 59.0 L 82.33333333333333 60.0 L 82.0 61.0 L 82.33333333333333 61.666666666666664 L 83.0 62.333333333333336 L 84.0 62.666666666666664 L 85.0 63.0 L 86.0 63.0 L 87.0 63.0 L 88.0 63.0 L 89.0 63.0 L 90.0 63.0 L 91.0 63.0 L 92.0 63.0 L 93.0 63.0 L 94.0 63.0 L 95.0 63.0 L 96.0 63.0 L 97.0 63.0 L 98.0 63.0 L 99.0 63.0 L 100.0 63.0 L 101.0 63.0 L 102.0 63.0 L 103.0 63.0 L 104.0 63.0 L 104.5 63.0 Z" stroke="none" fill="rgb(171,135,47)" />
<path d="M 23.5 38.0 L 24.0 38.0 L 25.0 38.0 L 26.0 38.0 L 27.0 38.0 L 28.0 38.333333333333336 L 29.0 38.666666666666664 L 30.0 39.0 L 31.0 39.0 L 32.0 39.0 L 33.0 39.333333333333336 L 34.0 39.666666666666664 L 35.0 40.0 L 36.0 40.333333333333336 L 37.0 40.666666666666664 L 38.0 41.0 L 39.0 41.333333333333336 L 40.0 41.666666666666664 L 41.0 42.333333333333336 L 42.0 42.666666666666664 L 43.0 43.333333333333336 L 44.0 43.666666666666664 L 45.0 44.333333333333336 L 46.0 45.0 L 47.0 46.0 L 48.0 46.666666666666664 L 49.0 47.333333333333336 L 50.0 48.0 L 51.0 49.0 L 52.0 50.0 L 53.0 51.0 L 54.0 52.0 L 55.0 53.0 L 55.666666666666664 54.0 L 56.333333333333336 55.0 L 57.0 56.0 L 58.0 57.0 L 59.0 57.666666666666664 L 59.666666666666664 57.666666666666664 L 60.0 57.0 L 60.0 56.0 L 59.666666666666664 55.0 L 59.333333333333336 54.0 L 58.666666666666664 53.0 L 58.0 52.0 L 57.0 51.0 L 56.0 50.0 L 55.0 49.0 L 54.0 48.0 L 53.0 47.0 L 52.0 46.0 L 51.0 45.0 L 50.0 44.0 L 49.0 43.0 L 48.0 42.0 L 47.0 41.0 L 46.0 40.0 L 45.0 39.0 L 44.0 38.0 L 43.333333333333336 37.0 L 42.666666666666664 36.0 L 42.0 35.0 L 41.0 34.0 L 40.333333333333336 33.0 L 39.666666666666664 32.0 L 39.0 31.0 L 38.0 30.0 L 37.0 29.333333333333332 L 36.0 29.0 L 35.0 29.0 L 34.0 29.0 L 33.0 28.666666666666668 L 32.0 28.333333333333332 L 31.0 28.0 L 30.0 28.0 L 29.0 28.0 L 28.0 28.0 L 27.0 28.0 L 26.0 27.666666666666668 L 25.0 27.333333333333332 L 24.0 27.0 L 23.0 27.0 L 22.0 27.0 L 21.0 27.0 L 20.0 27.0 L 19.0 27.0 L 18.0 27.0 L 17.0 27.333333333333332 L 16.0 27.666666666666668 L 15.0 28.0 L 14.0 28.0 L 13.0 28.0 L 12.0 28.0 L 11.0 28.0 L 10.0 28.333333333333332 L 9.0 28.666666666666668 L 8.0 29.0 L 7.0 29.0 L 6.0 29.333333333333332 L 5.0 29.666666666666668 L 4.333333333333333 30.333333333333332 L 4.0 31.0 L 4.0 32.0 L 4.0 33.0 L 4.0 34.0 L 4.0 35.0 L 4.0 36.0 L 4.0 37.0 L 4.0 38.0 L 4.0 39.0 L 4.0 40.0 L 4.0 41.0 L 4.0 42.0 L 4.333333333333333 42.666666666666664 L 5.0 43.0 L 6.0 43.0 L 7.0 42.666666666666664 L 8.0 42.333333333333336 L 9.0 41.666666666666664 L 10.0 41.333333333333336 L 11.0 40.666666666666664 L 12.0 40.333333333333336 L 13.0 40.0 L 14.0 39.666666666666664 L 15.0 39.333333333333336 L 16.0 39.0 L 17.0 39.0 L 18.0 39.0 L 19.0 39.0 L 20.0 38.666666666666664 L 21.0 38.333333333333336 L 22.0 38.0 L 22.5 38.0 Z" stroke="none" fill="rgb(191,160,85)" />
<path d="M 72.0 86.5 L 72.0 86.0 L 72.0 85.0 L 72.0 84.0 L 72.0 83.0 L 72.0 82.0 L 71.66666666666667 81.0 L 71.33333333333333 80.0 L 71.0 79.0 L 71.0 78.0 L 71.0 77.0 L 71.0 76.0 L 71.0 75.0 L 71.0 74.0 L 71.0 73.0 L 71.0 72.0 L 71.0 71.0 L 71.0 70.0 L 71.0 69.0 L 71.33333333333333 68.0 L 71.66666666666667 67.0 L 72.0 66.0 L 72.0 65.0 L 72.0 64.0 L 72.33333333333333 63.0 L 72.66666666666667 62.0 L 73.0 61.0 L 73.33333333333333 60.0 L 73.66666666666667 59.0 L 74.33333333333333 58.0 L 74.66666666666667 57.0 L 75.33333333333333 56.0 L 75.66666666666667 55.0 L 76.33333333333333 54.0 L 76.66666666666667 53.0 L 77.33333333333333 52.0 L 77.66666666666667 51.0 L 78.33333333333333 50.0 L 79.0 49.0 L 80.0 48.0 L 81.0 47.0 L 82.0 46.0 L 83.0 45.0 L 84.0 44.0 L 85.0 43.0 L 86.0 42.0 L 87.0 41.0 L 88.0 40.333333333333336 L 89.0 39.666666666666664 L 90.0 39.0 L 91.0 38.333333333333336 L 92.0 37.666666666666664 L 93.0 37.333333333333336 L 94.0 37.0 L 95.0 36.666666666666664 L 96.0 36.333333333333336 L 97.0 36.0 L 98.0 35.666666666666664 L 99.0 35.333333333333336 L 100.0 35.0 L 101.0 35.0 L 102.0 34.666666666666664 L 103.0 34.333333333333336 L 104.0 34.0 L 105.0 34.0 L 106.0 34.0 L 107.0 34.0 L 108.0 34.0 L 109.0 34.0 L 110.0 34.333333333333336 L 111.0 34.666666666666664 L 112.0 35.0 L 113.0 35.0 L 114.0 35.0 L 115.0 35.333333333333336 L 116.0 35.666666666666664 L 117.0 36.0 L 118.0 36.333333333333336 L 119.0 36.666666666666664 L 120.0 37.333333333333336 L 121.0 37.666666666666664 L 122.0 38.333333333333336 L 123.0 38.666666666666664 L 123.66666666666667 38.666666666666664 L 124.0 38.0 L 124.0 37.0 L 123.66666666666667 36.0 L 123.0 35.333333333333336 L 122.0 34.666666666666664 L 121.0 34.333333333333336 L 120.0 34.0 L 119.0 33.666666666666664 L 118.0 33.333333333333336 L 117.0 33.0 L 116.0 32.666666666666664 L 115.0 32.333333333333336 L 114.0 32.0 L 113.0 32.0 L 112.0 32.0 L 111.0 32.0 L 110.0 32.0 L 109.0 32.0 L 108.0 32.0 L 107.0 32.0 L 106.0 32.0 L 105.0 32.0 L 104.0 32.0 L 103.0 32.0 L 102.0 32.0 L 101.0 32.0 L 100.0 32.0 L 99.0 32.0 L 98.0 32.333333333333336 L 97.0 32.666666666666664 L 96.0 33.0 L 95.0 33.333333333333336 L 94.0 33.666666666666664 L 93.0 34.333333333333336 L 92.0 34.666666666666664 L 91.0 35.0 L 90.0 35.333333333333336 L 89.0 36.0 L 88.0 36.666666666666664 L 87.0 37.333333333333336 L 86.0 37.666666666666664 L 85.0 38.333333333333336 L 84.0 39.0 L 83.0 40.0 L 82.0 41.0 L 81.0 42.0 L 80.0 43.0 L 79.0 44.0 L 78.0 45.0 L 77.0 46.0 L 76.0 47.0 L 75.33333333333333 48.0 L 74.66666666666667 49.0 L 74.33333333333333 50.0 L 74.0 51.0 L 73.66666666666667 52.0 L 73.33333333333333 53.0 L 72.66666666666667 54.0 L 72.33333333333333 55.0 L 71.66666666666667 56.0 L 71.33333333333333 57.0 L 71.0 58.0 L 70.66666666666667 59.0 L 70.33333333333333 60.0 L 70.0 61.0 L 70.0 62.0 L 69.66666666666667 63.0 L 69.33333333333333 64.0 L 69.0 65.0 L 69.0 66.0 L 69.0 67.0 L 69.0 68.0 L 69.0 69.0 L 69.0 70.0 L 68.66666666666667 71.0 L 68.33333333333333 72.0 L 68.0 73.0 L 68.0 74.0 L 68.0 75.0 L 68.0 76.0 L 68.33333333333333 77.0 L 68.66666666666667 78.0 L 69.0 79.0 L 69.0 80.0 L 69.0 81.0 L 69.0 82.0 L 69.0 83.0 L 69.33333333333333 84.0 L 69.66666666666667 85.0 L 70.0 86.0 L 70.33333333333333 86.66666666666667 L 71.0 87.0 L 71.5 87.0 Z" stroke="none" fill="rgb(187,155,78)" />
<path d="M 75.5 64.5 L 75.66666666666667 64.0 L 76.0 63.0 L 76.0 62.0 L 76.0 61.0 L 76.0 60.0 L 76.33333333333333 59.0 L 76.66666666666667 58.0 L 77.33333333333333 57.0 L 77.66666666666667 56.0 L 78.33333333333333 55.0 L 79.0 54.0 L 79.66666666666667 53.0 L 80.33333333333333 52.0 L 81.0 51.0 L 81.66666666666667 50.0 L 82.33333333333333 49.0 L 83.0 48.0 L 84.0 47.0 L 85.0 46.0 L 86.0 45.0 L 87.0 44.333333333333336 L 88.0 43.666666666666664 L 89.0 43.0 L 90.0 42.333333333333336 L 91.0 41.666666666666664 L 92.0 41.0 L 93.0 40.333333333333336 L 94.0 39.666666666666664 L 95.0 39.333333333333336 L 96.0 39.0 L 97.0 38.666666666666664 L 98.0 38.333333333333336 L 99.0 38.0 L 100.0 38.0 L 101.0 37.666666666666664 L 102.0 37.333333333333336 L 103.0 37.0 L 104.0 37.0 L 105.0 37.0 L 106.0 37.0 L 107.0 37.0 L 108.0 37.0 L 109.0 37.0 L 110.0 37.0 L 111.0 37.0 L 112.0 37.333333333333336 L 113.0 37.666666666666664 L 114.0 38.0 L 115.0 38.333333333333336 L 116.0 38.666666666666664 L 117.0 39.0 L 118.0 39.333333333333336 L 119.0 39.666666666666664 L 120.0 40.333333333333336 L 121.0 40.666666666666664 L 122.0 41.333333333333336 L 123.0 41.666666666666664 L 123.66666666666667 41.666666666666664 L 124.0 41.0 L 124.0 40.0 L 123.66666666666667 39.0 L 123.0 38.333333333333336 L 122.0 37.666666666666664 L 121.0 37.333333333333336 L 120.0 36.666666666666664 L 119.0 36.333333333333336 L 118.0 36.0 L 117.0 35.666666666666664 L 116.0 35.333333333333336 L 115.0 35.0 L 114.0 35.0 L 113.0 35.0 L 112.0 34.666666666666664 L 111.0 34.333333333333336 L 110.0 34.0 L 109.0 34.0 L 108.0 34.0 L 107.0 34.0 L 106.0 34.0 L 105.0 34.0 L 104.0 34.0 L 103.0 34.0 L 102.0 34.333333333333336 L 101.0 34.666666666666664 L 100.0 35.0 L 99.0 35.0 L 98.0 35.333333333333336 L 97.0 35.666666666666664 L 96.0 36.0 L 95.0 36.333333333333336 L 94.0 36.666666666666664 L 93.0 37.0 L 92.0 37.333333333333336 L 91.0 37.666666666666664 L 90.0 38.333333333333336 L 89.0 39.0 L 88.0 39.666666666666664 L 87.0 40.333333333333336 L 86.0 41.0 L 85.0 42.0 L 84.0 43.0 L 83.0 44.0 L 82.0 45.0 L 81.0 46.0 L 80.0 47.0 L 79.0 48.0 L 78.33333333333333 49.0 L 77.66666666666667 50.0 L 77.33333333333333 51.0 L 76.66666666666667 52.0 L 76.33333333333333 53.0 L 75.66666666666667 54.0 L 75.33333333333333 55.0 L 74.66666666666667 56.0 L 74.33333333333333 57.0 L 73.66666666666667 58.0 L 73.33333333333333 59.0 L 73.0 60.0 L 72.66666666666667 61.0 L 72.33333333333333 62.0 L 72.0 63.0 L 72.0 64.0 L 72.0 65.0 L 71.66666666666667 66.0 L 71.33333333333333 67.0 L 71.0 68.0 L 71.0 69.0 L 71.0 70.0 L 71.0 71.0 L 71.0 72.0 L 71.0 73.0 L 71.0 74.0 L 71.0 75.0 L 71.0 76.0 L 71.0 77.0 L 71.0 78.0 L 71.0 79.0 L 71.0 80.0 L 71.33333333333333 80.66666666666667 L 72.0 80.66666666666667 L 73.0 80.33333333333333 L 73.66666666666667 79.66666666666667 L 73.66666666666667 79.0 L 73.33333333333333 78.0 L 73.0 77.0 L 73.0 76.0 L 73.0 75.0 L 73.0 74.0 L 73.0 73.0 L 73.0 72.0 L 73.0 71.0 L 73.0 70.0 L 73.33333333333333 69.0 L 73.66666666666667 68.0 L 74.0 67.0 L 74.33333333333333 66.0 L 74.5 65.5 Z" stroke="none" fill="rgb(184,151,71)" />
<path d="M 59.5 83.5 L 60.0 83.66666666666667 L 60.666666666666664 83.66666666666667 L 61.0 83.0 L 61.0 82.0 L 61.0 81.0 L 61.0 80.0 L 61.0 79.0 L 61.0 78.0 L 61.0 77.0 L 61.0 76.0 L 60.666666666666664 75.0 L 60.0 74.0 L 59.333333333333336 73.0 L 59.0 72.0 L 58.666666666666664 71.0 L 58.333333333333336 70.0 L 57.666666666666664 69.0 L 57.333333333333336 68.0 L 57.0 67.0 L 56.666666666666664 66.0 L 56.0 65.0 L 55.333333333333336 64.0 L 54.666666666666664 63.0 L 54.333333333333336 62.0 L 53.666666666666664 61.0 L 53.0 60.0 L 52.0 59.0 L 51.333333333333336 58.0 L 50.666666666666664 57.0 L 50.0 56.0 L 49.0 55.0 L 48.0 54.0 L 47.0 53.333333333333336 L 46.0 52.666666666666664 L 45.0 52.0 L 44.0 51.0 L 43.0 50.333333333333336 L 42.0 49.666666666666664 L 41.0 49.333333333333336 L 40.0 48.666666666666664 L 39.0 48.333333333333336 L 38.0 47.666666666666664 L 37.0 47.333333333333336 L 36.0 47.0 L 35.0 46.666666666666664 L 34.0 46.333333333333336 L 33.0 46.0 L 32.0 46.0 L 31.0 46.0 L 30.0 45.666666666666664 L 29.0 45.333333333333336 L 28.0 45.0 L 27.0 45.0 L 26.0 45.0 L 25.0 45.0 L 24.0 45.0 L 23.0 45.0 L 22.0 45.0 L 21.0 45.0 L 20.0 45.333333333333336 L 19.0 45.666666666666664 L 18.0 46.0 L 17.0 46.0 L 16.0 46.0 L 15.0 46.333333333333336 L 14.0 46.666666666666664 L 13.0 47.0 L 12.0 47.333333333333336 L 11.0 47.666666666666664 L 10.0 48.333333333333336 L 9.0 48.666666666666664 L 8.0 49.333333333333336 L 7.0 49.666666666666664 L 6.0 50.333333333333336 L 5.0 51.0 L 4.333333333333333 52.0 L 4.333333333333333 52.666666666666664 L 5.0 53.0 L 6.0 52.666666666666664 L 7.0 52.333333333333336 L 8.0 51.666666666666664 L 9.0 51.0 L 10.0 50.333333333333336 L 11.0 49.666666666666664 L 12.0 49.333333333333336 L 13.0 49.0 L 14.0 48.666666666666664 L 15.0 48.333333333333336 L 16.0 48.0 L 17.0 48.0 L 18.0 47.666666666666664 L 19.0 47.333333333333336 L 20.0 47.0 L 21.0 47.0 L 22.0 47.0 L 23.0 47.0 L 24.0 47.0 L 25.0 47.0 L 26.0 47.0 L 27.0 47.0 L 28.0 47.0 L 29.0 47.0 L 30.0 47.333333333333336 L 31.0 47.666666666666664 L 32.0 48.0 L 33.0 48.0 L 34.0 48.333333333333336 L 35.0 48.666666666666664 L 36.0 49.333333333333336 L 37.0 49.666666666666664 L 38.0 50.333333333333336 L 39.0 50.666666666666664 L 40.0 51.333333333333336 L 41.0 51.666666666666664 L 42.0 52.333333333333336 L 43.0 53.0 L 44.0 54.0 L 45.0 55.0 L 46.0 55.666666666666664 L 47.0 56.333333333333336 L 47.666666666666664 57.0 L 48.333333333333336 58.0 L 49.0 59.0 L 50.0 60.0 L 51.0 61.0 L 52.0 62.0 L 52.666666666666664 63.0 L 53.333333333333336 64.0 L 53.666666666666664 65.0 L 54.333333333333336 66.0 L 54.666666666666664 67.0 L 55.333333333333336 68.0 L 55.666666666666664 69.0 L 56.333333333333336 70.0 L 56.666666666666664 71.0 L 57.0 72.0 L 57.333333333333336 73.0 L 57.666666666666664 74.0 L 58.0 75.0 L 58.333333333333336 76.0 L 58.666666666666664 77.0 L 59.0 78.0 L 59.0 79.0 L 59.0 80.0 L 59.0 81.0 L 59.0 82.0 L 59.0 82.5 Z" stroke="none" fill="rgb(174,139,53)" />
<path d="M 91.5 44.0 L 92.0 43.666666666666664 L 93.0 43.333333333333336 L 94.0 42.666666666666664 L 95.0 42.333333333333336 L 96.0 41.666666666666664 L 97.0 41.333333333333336 L 98.0 40.666666666666664 L 99.0 40.333333333333336 L 100.0 40.0 L 101.0 40.0 L 102.0 40.0 L 103.0 40.0 L 104.0 39.666666666666664 L 105.0 39.333333333333336 L 106.0 39.0 L 107.0 39.0 L 108.0 39.0 L 109.0 39.333333333333336 L 110.0 39.666666666666664 L 111.0 40.0 L 112.0 40.0 L 113.0 40.0 L 114.0 40.333333333333336 L 115.0 40.666666666666664 L 116.0 41.0 L 117.0 41.333333333333336 L 118.0 41.666666666666664 L 119.0 42.333333333333336 L 120.0 42.666666666666664 L 121.0 43.333333333333336 L 122.0 44.0 L 123.0 44.666666666666664 L 123.66666666666667 44.666666666666664 L 124.0 44.0 L 124.0 43.0 L 123.66666666666667 42.0 L 123.0 41.333333333333336 L 122.0 40.666666666666664 L 121.0 40.333333333333336 L 120.0 39.666666666666664 L 119.0 39.333333333333336 L 118.0 39.0 L 117.0 38.666666666666664 L 116.0 38.333333333333336 L 115.0 38.0 L 114.0 37.666666666666664 L 113.0 37.333333333333336 L 112.0 37.0 L 111.0 37.0 L 110.0 37.0 L 109.0 37.0 L 108.0 37.0 L 107.0 37.0 L 106.0 37.0 L 105.0 37.0 L 104.0 37.0 L 103.0 37.0 L 102.0 37.0 L 101.0 37.333333333333336 L 100.0 37.666666666666664 L 99.0 38.0 L 98.0 38.0 L 97.0 38.333333333333336 L 96.0 38.666666666666664 L 95.0 39.0 L 94.0 39.333333333333336 L 93.0 39.666666666666664 L 92.0 40.333333333333336 L 91.0 41.0 L 90.0 41.666666666666664 L 89.0 42.333333333333336 L 88.0 43.0 L 87.0 43.666666666666664 L 86.0 44.333333333333336 L 85.0 45.0 L 84.0 46.0 L 83.0 47.0 L 82.33333333333333 48.0 L 81.66666666666667 49.0 L 81.0 50.0 L 80.33333333333333 51.0 L 79.66666666666667 52.0 L 79.0 53.0 L 78.33333333333333 54.0 L 77.66666666666667 55.0 L 77.33333333333333 56.0 L 76.66666666666667 57.0 L 76.33333333333333 58.0 L 76.0 59.0 L 75.66666666666667 60.0 L 75.33333333333333 61.0 L 75.33333333333333 62.0 L 76.0 62.666666666666664 L 77.0 63.0 L 77.66666666666667 62.666666666666664 L 78.0 62.0 L 78.0 61.0 L 78.33333333333333 60.0 L 78.66666666666667 59.0 L 79.33333333333333 58.0 L 79.66666666666667 57.0 L 80.33333333333333 56.0 L 80.66666666666667 55.0 L 81.33333333333333 54.0 L 82.0 53.0 L 83.0 52.0 L 84.0 51.0 L 84.66666666666667 50.0 L 85.33333333333333 49.0 L 86.0 48.333333333333336 L 87.0 47.666666666666664 L 88.0 47.0 L 89.0 46.0 L 90.0 45.0 L 90.5 44.5 Z" stroke="none" fill="rgb(180,146,65)" />
<path d="M 59.5 70.5 L 60.0 70.66666666666667 L 60.666666666666664 70.66666666666667 L 61.0 70.0 L 61.0 69.0 L 61.0 68.0 L 60.666666666666664 67.0 L 60.0 66.0 L 59.333333333333336 65.0 L 58.666666666666664 64.0 L 58.333333333333336 63.0 L 57.666666666666664 62.0 L 57.333333333333336 61.0 L 56.666666666666664 60.0 L 56.0 59.0 L 55.0 58.0 L 54.333333333333336 57.0 L 53.666666666666664 56.0 L 53.0 55.0 L 52.0 54.0 L 51.0 53.0 L 50.0 52.0 L 49.0 51.0 L 48.0 50.333333333333336 L 47.0 49.666666666666664 L 46.0 49.0 L 45.0 48.0 L 44.0 47.333333333333336 L 43.0 46.666666666666664 L 42.0 46.333333333333336 L 41.0 45.666666666666664 L 40.0 45.333333333333336 L 39.0 44.666666666666664 L 38.0 44.333333333333336 L 37.0 44.0 L 36.0 43.666666666666664 L 35.0 43.333333333333336 L 34.0 43.0 L 33.0 43.0 L 32.0 42.666666666666664 L 31.0 42.333333333333336 L 30.0 42.0 L 29.0 42.0 L 28.0 42.0 L 27.0 42.0 L 26.0 42.0 L 25.0 42.0 L 24.0 42.0 L 23.0 42.0 L 22.0 42.0 L 21.0 42.0 L 20.0 42.0 L 19.0 42.0 L 18.0 42.333333333333336 L 17.0 42.666666666666664 L 16.0 43.0 L 15.0 43.0 L 14.0 43.333333333333336 L 13.0 43.666666666666664 L 12.0 44.0 L 11.0 44.333333333333336 L 10.0 44.666666666666664 L 9.0 45.333333333333336 L 8.0 45.666666666666664 L 7.0 46.333333333333336 L 6.0 46.666666666666664 L 5.0 47.333333333333336 L 4.333333333333333 48.0 L 4.333333333333333 48.666666666666664 L 5.0 49.0 L 6.0 49.0 L 7.0 48.666666666666664 L 8.0 48.0 L 9.0 47.333333333333336 L 10.0 46.666666666666664 L 11.0 46.333333333333336 L 12.0 46.0 L 13.0 45.666666666666664 L 14.0 45.333333333333336 L 15.0 45.0 L 16.0 44.666666666666664 L 17.0 44.333333333333336 L 18.0 44.0 L 19.0 44.0 L 20.0 44.333333333333336 L 21.0 44.666666666666664 L 22.0 45.0 L 23.0 45.0 L 24.0 45.0 L 25.0 45.0 L 26.0 45.0 L 27.0 45.0 L 28.0 45.0 L 29.0 44.666666666666664 L 30.0 44.333333333333336 L 31.0 44.333333333333336 L 32.0 44.666666666666664 L 33.0 45.0 L 34.0 45.0 L 35.0 45.333333333333336 L 36.0 45.666666666666664 L 37.0 46.333333333333336 L 38.0 46.666666666666664 L 39.0 47.333333333333336 L 40.0 47.666666666666664 L 41.0 48.333333333333336 L 42.0 48.666666666666664 L 43.0 49.333333333333336 L 44.0 50.0 L 45.0 51.0 L 46.0 51.666666666666664 L 47.0 52.333333333333336 L 48.0 53.0 L 49.0 54.0 L 50.0 55.0 L 51.0 56.0 L 52.0 57.0 L 52.666666666666664 58.0 L 53.333333333333336 59.0 L 54.0 60.0 L 54.666666666666664 61.0 L 55.333333333333336 62.0 L 56.0 63.0 L 56.666666666666664 64.0 L 57.333333333333336 65.0 L 57.666666666666664 66.0 L 58.333333333333336 67.0 L 58.666666666666664 68.0 L 59.0 69.0 L 59.0 69.5 Z" stroke="none" fill="rgb(180,146,65)" />
<path d="M 37.5 44.5 L 38.0 44.666666666666664 L 39.0 45.333333333333336 L 40.0 45.666666666666664 L 41.0 46.333333333333336 L 42.0 46.666666666666664 L 43.0 47.333333333333336 L 44.0 48.0 L 45.0 49.0 L 46.0 49.666666666666664 L 47.0 50.333333333333336 L 48.0 51.0 L 49.0 52.0 L 50.0 53.0 L 51.0 54.0 L 52.0 55.0 L 53.0 56.0 L 53.666666666666664 57.0 L 54.333333333333336 58.0 L 55.0 59.0 L 56.0 60.0 L 56.666666666666664 61.0 L 57.333333333333336 62.0 L 57.666666666666664 63.0 L 58.333333333333336 64.0 L 58.666666666666664 65.0 L 59.333333333333336 66.0 L 60.0 66.66666666666667 L 60.666666666666664 66.66666666666667 L 61.0 66.0 L 61.0 65.0 L 61.0 64.0 L 60.666666666666664 63.0 L 60.0 62.0 L 59.333333333333336 61.0 L 58.666666666666664 60.0 L 58.0 59.0 L 57.333333333333336 58.0 L 56.666666666666664 57.0 L 56.0 56.0 L 55.0 55.0 L 54.0 54.0 L 53.0 53.0 L 52.0 52.0 L 51.0 51.0 L 50.0 50.0 L 49.0 49.0 L 48.0 48.0 L 47.0 47.333333333333336 L 46.0 46.666666666666664 L 45.0 46.0 L 44.0 45.333333333333336 L 43.0 44.666666666666664 L 42.0 44.333333333333336 L 41.0 43.666666666666664 L 40.0 43.333333333333336 L 39.0 42.666666666666664 L 38.0 42.333333333333336 L 37.0 42.0 L 36.0 41.666666666666664 L 35.0 41.333333333333336 L 34.0 41.0 L 33.0 41.0 L 32.0 41.0 L 31.0 40.666666666666664 L 30.0 40.333333333333336 L 29.0 40.0 L 28.0 40.0 L 27.0 40.0 L 26.0 40.0 L 25.0 40.0 L 24.0 40.0 L 23.0 40.0 L 22.0 40.0 L 21.0 40.0 L 20.0 40.0 L 19.0 40.333333333333336 L 18.0 40.666666666666664 L 17.0 41.0 L 16.0 41.0 L 15.0 41.0 L 14.0 41.333333333333336 L 13.0 41.666666666666664 L 12.0 42.0 L 11.0 42.333333333333336 L 10.0 42.666666666666664 L 9.0 43.333333333333336 L 8.0 43.666666666666664 L 7.0 44.333333333333336 L 6.0 44.666666666666664 L 5.0 45.333333333333336 L 4.333333333333333 46.0 L 4.333333333333333 46.666666666666664 L 5.0 47.0 L 6.0 47.0 L 7.0 46.666666666666664 L 8.0 46.333333333333336 L 9.0 45.666666666666664 L 10.0 45.333333333333336 L 11.0 44.666666666666664 L 12.0 44.333333333333336 L 13.0 44.0 L 14.0 43.666666666666664 L 15.0 43.333333333333336 L 16.0 43.0 L 17.0 43.0 L 18.0 42.666666666666664 L 19.0 42.333333333333336 L 20.0 42.0 L 21.0 42.0 L 22.0 42.0 L 23.0 42.0 L 24.0 42.0 L 25.0 42.0 L 26.0 42.0 L 27.0 42.0 L 28.0 42.0 L 29.0 42.0 L 30.0 42.333333333333336 L 31.0 42.666666666666664 L 32.0 43.0 L 33.0 43.0 L 34.0 43.333333333333336 L 35.0 43.666666666666664 L 36.0 44.0 L 36.5 44.0 Z" stroke="none" fill="rgb(184,151,71)" />
<path d="M 23.5 40.0 L 24.0 40.0 L 25.0 40.0 L 26.0 40.0 L 27.0 40.0 L 28.0 40.0 L 29.0 40.333333333333336 L 30.0 40.666666666666664 L 31.0 41.0 L 32.0 41.0 L 33.0 41.0 L 34.0 41.333333333333336 L 35.0 41.666666666666664 L 36.0 42.0 L 37.0 42.333333333333336 L 38.0 42.666666666666664 L 39.0 43.333333333333336 L 40.0 43.666666666666664 L 41.0 44.333333333333336 L 42.0 44.666666666666664 L 43.0 45.333333333333336 L 44.0 46.0 L 45.0 46.666666666666664 L 46.0 47.333333333333336 L 47.0 48.0 L 48.0 49.0 L 49.0 50.0 L 50.0 51.0 L 51.0 52.0 L 52.0 53.0 L 53.0 54.0 L 54.0 55.0 L 55.0 56.0 L 56.0 57.0 L 56.666666666666664 58.0 L 57.333333333333336 59.0 L 58.0 60.0 L 58.666666666666664 61.0 L 59.333333333333336 62.0 L 60.0 62.666666666666664 L 60.666666666666664 62.666666666666664 L 61.0 62.0 L 60.666666666666664 61.0 L 60.333333333333336 60.0 L 60.0 59.0 L 59.666666666666664 58.0 L 59.0 57.0 L 58.0 56.0 L 57.0 55.0 L 56.333333333333336 54.0 L 55.666666666666664 53.0 L 55.0 52.0 L 54.0 51.0 L 53.0 50.0 L 52.0 49.0 L 51.0 48.0 L 50.0 47.333333333333336 L 49.0 46.666666666666664 L 48.0 46.0 L 47.0 45.0 L 46.0 44.333333333333336 L 45.0 43.666666666666664 L 44.0 43.333333333333336 L 43.0 42.666666666666664 L 42.0 42.333333333333336 L 41.0 41.666666666666664 L 40.0 41.333333333333336 L 39.0 41.0 L 38.0 40.666666666666664 L 37.0 40.333333333333336 L 36.0 40.0 L 35.0 39.666666666666664 L 34.0 39.333333333333336 L 33.0 39.0 L 32.0 39.0 L 31.0 39.0 L 30.0 38.666666666666664 L 29.0 38.333333333333336 L 28.0 38.0 L 27.0 38.0 L 26.0 38.0 L 25.0 38.0 L 24.0 38.0 L 23.0 38.0 L 22.0 38.0 L 21.0 38.0 L 20.0 38.333333333333336 L 19.0 38.666666666666664 L 18.0 39.0 L 17.0 39.0 L 16.0 39.0 L 15.0 39.0 L 14.0 39.333333333333336 L 13.0 39.666666666666664 L 12.0 40.0 L 11.0 40.333333333333336 L 10.0 40.666666666666664 L 9.0 41.333333333333336 L 8.0 41.666666666666664 L 7.0 42.333333333333336 L 6.0 42.666666666666664 L 5.0 43.333333333333336 L 4.333333333333333 44.0 L 4.333333333333333 44.666666666666664 L 5.0 45.0 L 6.0 45.0 L 7.0 44.666666666666664 L 8.0 44.333333333333336 L 9.0 43.666666666666664 L 10.0 43.333333333333336 L 11.0 42.666666666666664 L 12.0 42.333333333333336 L 13.0 42.0 L 14.0 41.666666666666664 L 15.0 41.333333333333336 L 16.0 41.0 L 17.0 41.0 L 18.0 41.0 L 19.0 40.666666666666664 L 20.0 40.333333333333336 L 21.0 40.0 L 22.0 40.0 L 22.5 40.0 Z" stroke="none" fill="rgb(187,155,78)" />
<path d="M 101.5 44.5 L 102.0 44.333333333333336 L 103.0 44.0 L 104.0 44.0 L 105.0 44.0 L 106.0 44.0 L 107.0 44.0 L 108.0 44.0 L 109.0 44.0 L 110.0 44.0 L 111.0 44.333333333333336 L 112.0 44.666666666666664 L 113.0 45.0 L 114.0 45.333333333333336 L 115.0 45.666666666666664 L 116.0 46.0 L 117.0 46.333333333333336 L 118.0 46.666666666666664 L 119.0 47.333333333333336 L 120.0 48.0 L 121.0 48.666666666666664 L 122.0 49.333333333333336 L 123.0 49.666666666666664 L 123.66666666666667 49.666666666666664 L 124.0 49.0 L 124.0 48.0 L 123.66666666666667 47.333333333333336 L 123.0 46.666666666666664 L 122.0 46.0 L 121.0 45.333333333333336 L 120.0 44.666666666666664 L 119.0 44.333333333333336 L 118.0 43.666666666666664 L 117.0 43.333333333333336 L 116.0 43.0 L 115.0 42.666666666666664 L 114.0 42.333333333333336 L 113.0 42.0 L 112.0 42.0 L 111.0 42.0 L 110.0 42.0 L 109.0 42.0 L 108.0 42.0 L 107.0 42.0 L 106.0 42.0 L 105.0 42.0 L 104.0 42.0 L 103.0 42.0 L 102.0 42.0 L 101.0 42.0 L 100.0 42.333333333333336 L 99.0 42.666666666666664 L 98.0 43.0 L 97.0 43.333333333333336 L 96.0 43.666666666666664 L 95.0 44.333333333333336 L 94.0 44.666666666666664 L 93.0 45.333333333333336 L 92.0 45.666666666666664 L 91.0 46.333333333333336 L 90.0 47.0 L 89.0 48.0 L 88.0 49.0 L 87.0 50.0 L 86.0 51.0 L 85.0 52.0 L 84.0 53.0 L 83.33333333333333 54.0 L 82.66666666666667 55.0 L 82.33333333333333 56.0 L 81.66666666666667 57.0 L 81.33333333333333 58.0 L 80.66666666666667 59.0 L 80.33333333333333 60.0 L 80.0 61.0 L 80.33333333333333 61.666666666666664 L 81.0 62.0 L 81.66666666666667 61.666666666666664 L 82.33333333333333 61.0 L 82.66666666666667 60.0 L 83.33333333333333 59.0 L 84.0 58.0 L 84.66666666666667 57.0 L 85.33333333333333 56.0 L 86.0 55.0 L 87.0 54.0 L 88.0 53.0 L 89.0 52.0 L 90.0 51.0 L 91.0 50.0 L 92.0 49.0 L 93.0 48.333333333333336 L 94.0 47.666666666666664 L 95.0 47.333333333333336 L 96.0 46.666666666666664 L 97.0 46.333333333333336 L 98.0 45.666666666666664 L 99.0 45.333333333333336 L 100.0 45.0 L 100.5 45.0 Z" stroke="none" fill="rgb(174,139,53)" />
<path d="M 91.5 46.5 L 92.0 46.333333333333336 L 93.0 45.666666666666664 L 94.0 45.333333333333336 L 95.0 44.666666666666664 L 96.0 44.333333333333336 L 97.0 43.666666666666664 L 98.0 43.333333333333336 L 99.0 43.0 L 100.0 42.666666666666664 L 101.0 42.333333333333336 L 102.0 42.0 L 103.0 42.0 L 104.0 42.0 L 105.0 42.0 L 106.0 42.0 L 107.0 42.0 L 108.0 42.0 L 109.0 42.0 L 110.0 42.0 L 111.0 42.0 L 112.0 42.0 L 113.0 42.333333333333336 L 114.0 42.666666666666664 L 115.0 43.0 L 116.0 43.333333333333336 L 117.0 43.666666666666664 L 118.0 44.333333333333336 L 119.0 44.666666666666664 L 120.0 45.333333333333336 L 121.0 46.0 L 122.0 46.666666666666664 L 123.0 47.0 L 123.66666666666667 46.666666666666664 L 124.0 46.0 L 123.66666666666667 45.0 L 123.0 44.0 L 122.0 43.333333333333336 L 121.0 42.666666666666664 L 120.0 42.333333333333336 L 119.0 41.666666666666664 L 118.0 41.333333333333336 L 117.0 41.0 L 116.0 40.666666666666664 L 115.0 40.333333333333336 L 114.0 40.0 L 113.0 40.0 L 112.0 40.0 L 111.0 39.666666666666664 L 110.0 39.333333333333336 L 109.0 39.0 L 108.0 39.0 L 107.0 39.0 L 106.0 39.0 L 105.0 39.0 L 104.0 39.333333333333336 L 103.0 39.666666666666664 L 102.0 40.0 L 101.0 40.0 L 100.0 40.0 L 99.0 40.0 L 98.0 40.333333333333336 L 97.0 40.666666666666664 L 96.0 41.333333333333336 L 95.0 41.666666666666664 L 94.0 42.333333333333336 L 93.0 42.666666666666664 L 92.0 43.333333333333336 L 91.0 43.666666666666664 L 90.0 44.333333333333336 L 89.0 45.0 L 88.0 46.0 L 87.0 47.0 L 86.0 47.666666666666664 L 85.33333333333333 48.333333333333336 L 84.66666666666667 49.0 L 84.0 50.0 L 83.0 51.0 L 82.0 52.0 L 81.33333333333333 53.0 L 80.66666666666667 54.0 L 80.33333333333333 55.0 L 79.66666666666667 56.0 L 79.33333333333333 57.0 L 78.66666666666667 58.0 L 78.33333333333333 59.0 L 78.0 60.0 L 78.0 61.0 L 78.33333333333333 61.666666666666664 L 79.0 62.0 L 79.66666666666667 61.666666666666664 L 80.33333333333333 61.0 L 80.66666666666667 60.0 L 81.33333333333333 59.0 L 81.66666666666667 58.0 L 82.33333333333333 57.0 L 82.66666666666667 56.0 L 83.33333333333333 55.0 L 84.0 54.0 L 85.0 53.0 L 86.0 52.0 L 87.0 51.0 L 88.0 50.0 L 89.0 49.0 L 90.0 48.0 L 90.5 47.5 Z" stroke="none" fill="rgb(177,142,58)" />
<path d="M 91.5 35.0 L 92.0 35.0 L 93.0 34.666666666666664 L 94.0 34.333333333333336 L 95.0 33.666666666666664 L 96.0 33.333333333333336 L 97.0 33.0 L 98.0 32.666666666666664 L 99.0 32.333333333333336 L 100.0 32.0 L 101.0 32.0 L 102.0 32.0 L 103.0 32.0 L 104.0 32.0 L 105.0 32.0 L 106.0 32.0 L 107.0 32.0 L 108.0 32.0 L 109.0 32.0 L 110.0 32.0 L 111.0 32.0 L 112.0 32.0 L 113.0 32.0 L 114.0 32.333333333333336 L 115.0 32.666666666666664 L 116.0 33.0 L 117.0 33.333333333333336 L 118.0 33.666666666666664 L 119.0 34.0 L 120.0 34.333333333333336 L 121.0 34.666666666666664 L 122.0 35.333333333333336 L 123.0 35.666666666666664 L 123.66666666666667 35.666666666666664 L 124.0 35.0 L 124.0 34.0 L 124.0 33.0 L 124.0 32.0 L 123.66666666666667 31.333333333333332 L 123.0 30.666666666666668 L 122.0 30.333333333333332 L 121.0 30.0 L 120.0 29.666666666666668 L 119.0 29.333333333333332 L 118.0 29.0 L 117.0 29.0 L 116.0 29.0 L 115.0 28.666666666666668 L 114.0 28.333333333333332 L 113.0 28.0 L 112.0 28.0 L 111.0 28.0 L 110.0 28.0 L 109.0 28.0 L 108.0 28.0 L 107.0 28.0 L 106.0 28.0 L 105.0 28.0 L 104.0 28.0 L 103.0 28.0 L 102.0 28.0 L 101.0 28.0 L 100.0 28.0 L 99.0 28.0 L 98.0 28.333333333333332 L 97.0 28.666666666666668 L 96.0 29.0 L 95.0 29.0 L 94.0 29.0 L 93.0 29.333333333333332 L 92.0 29.666666666666668 L 91.0 30.0 L 90.0 30.333333333333332 L 89.33333333333333 31.0 L 88.66666666666667 32.0 L 88.0 33.0 L 87.0 34.0 L 86.0 35.0 L 85.33333333333333 36.0 L 85.0 37.0 L 85.33333333333333 37.666666666666664 L 86.0 38.0 L 87.0 37.666666666666664 L 88.0 37.333333333333336 L 89.0 36.666666666666664 L 90.0 36.0 L 90.5 35.5 Z" stroke="none" fill="rgb(191,160,85)" />
<path d="M 88.5 33.5 L 88.66666666666667 33.0 L 89.33333333333333 32.0 L 90.0 31.0 L 90.66666666666667 30.0 L 91.33333333333333 29.0 L 91.66666666666667 28.0 L 92.0 27.0 L 92.33333333333333 26.0 L 92.66666666666667 25.0 L 93.0 24.0 L 93.0 23.0 L 93.0 22.0 L 93.0 21.0 L 93.0 20.0 L 93.0 19.0 L 93.0 18.0 L 93.0 17.0 L 93.0 16.0 L 93.0 15.0 L 92.66666666666667 14.0 L 92.33333333333333 13.0 L 92.0 12.0 L 91.66666666666667 11.0 L 91.0 10.0 L 90.0 9.0 L 89.0 8.0 L 88.0 7.0 L 87.0 6.0 L 86.0 5.333333333333333 L 85.0 4.666666666666667 L 84.0 4.333333333333333 L 83.0 4.0 L 82.0 3.6666666666666665 L 81.0 3.3333333333333335 L 80.0 3.0 L 79.0 3.0 L 78.0 3.0 L 77.0 3.0 L 76.33333333333333 3.3333333333333335 L 76.0 4.0 L 76.33333333333333 4.666666666666667 L 77.0 5.0 L 78.0 5.0 L 79.0 5.333333333333333 L 80.0 5.666666666666667 L 81.0 6.333333333333333 L 82.0 6.666666666666667 L 83.0 7.333333333333333 L 84.0 8.0 L 85.0 9.0 L 86.0 10.0 L 86.66666666666667 11.0 L 87.33333333333333 12.0 L 87.66666666666667 13.0 L 88.0 14.0 L 88.0 15.0 L 88.0 16.0 L 88.0 17.0 L 88.0 18.0 L 88.0 19.0 L 88.0 20.0 L 88.0 21.0 L 88.0 22.0 L 88.0 23.0 L 88.0 24.0 L 87.66666666666667 25.0 L 87.33333333333333 26.0 L 86.66666666666667 27.0 L 86.33333333333333 28.0 L 85.66666666666667 29.0 L 85.33333333333333 30.0 L 84.66666666666667 31.0 L 84.0 32.0 L 83.33333333333333 33.0 L 82.66666666666667 34.0 L 82.0 35.0 L 81.33333333333333 36.0 L 80.66666666666667 37.0 L 80.0 38.0 L 79.0 39.0 L 78.0 40.0 L 77.0 41.0 L 76.33333333333333 42.0 L 75.66666666666667 43.0 L 75.0 44.0 L 74.0 45.0 L 73.0 46.0 L 72.0 47.0 L 71.33333333333333 48.0 L 71.0 49.0 L 71.33333333333333 49.666666666666664 L 72.0 50.0 L 73.0 50.0 L 74.0 50.0 L 74.66666666666667 49.666666666666664 L 75.33333333333333 49.0 L 76.0 48.0 L 77.0 47.0 L 78.0 46.0 L 79.0 45.0 L 80.0 44.0 L 81.0 43.0 L 82.0 42.0 L 83.0 41.0 L 84.0 40.0 L 84.66666666666667 39.0 L 85.0 38.0 L 85.33333333333333 37.0 L 86.0 36.0 L 87.0 35.0 L 87.5 34.5 Z" stroke="none" fill="rgb(218,46,117)" />
<path d="M 59.5 74.5 L 60.0 74.66666666666667 L 60.666666666666664 74.66666666666667 L 61.0 74.0 L 61.0 73.0 L 61.0 72.0 L 60.666666666666664 71.0 L 60.0 70.0 L 59.333333333333336 69.0 L 59.0 68.0 L 58.666666666666664 67.0 L 58.333333333333336 66.0 L 57.666666666666664 65.0 L 57.333333333333336 64.0 L 56.666666666666664 63.0 L 56.0 62.0 L 55.333333333333336 61.0 L 54.666666666666664 60.0 L 54.0 59.0 L 53.333333333333336 58.0 L 52.666666666666664 57.0 L 52.0 56.0 L 51.0 55.0 L 50.0 54.0 L 49.0 53.0 L 48.0 52.333333333333336 L 47.0 51.666666666666664 L 46.0 51.0 L 45.0 50.0 L 44.0 49.333333333333336 L 43.0 48.666666666666664 L 42.0 48.333333333333336 L 41.0 47.666666666666664 L 40.0 47.333333333333336 L 39.0 46.666666666666664 L 38.0 46.333333333333336 L 37.0 45.666666666666664 L 36.0 45.333333333333336 L 35.0 45.0 L 34.0 45.0 L 33.0 44.666666666666664 L 32.0 44.333333333333336 L 31.0 44.0 L 30.0 44.0 L 29.333333333333332 44.333333333333336 L 29.0 45.0 L 29.333333333333332 45.666666666666664 L 30.0 46.0 L 31.0 46.0 L 32.0 46.0 L 33.0 46.333333333333336 L 34.0 46.666666666666664 L 35.0 47.0 L 36.0 47.333333333333336 L 37.0 47.666666666666664 L 38.0 48.333333333333336 L 39.0 48.666666666666664 L 40.0 49.333333333333336 L 41.0 49.666666666666664 L 42.0 50.333333333333336 L 43.0 51.0 L 44.0 52.0 L 45.0 52.666666666666664 L 46.0 53.333333333333336 L 47.0 54.0 L 48.0 55.0 L 49.0 56.0 L 50.0 57.0 L 50.666666666666664 58.0 L 51.333333333333336 59.0 L 52.0 60.0 L 53.0 61.0 L 53.666666666666664 62.0 L 54.333333333333336 63.0 L 54.666666666666664 64.0 L 55.333333333333336 65.0 L 56.0 66.0 L 56.666666666666664 67.0 L 57.0 68.0 L 57.333333333333336 69.0 L 57.666666666666664 70.0 L 58.333333333333336 71.0 L 58.666666666666664 72.0 L 59.0 73.0 L 59.0 73.5 Z" stroke="none" fill="rgb(177,142,58)" />
<path d="M 55.5 8.5 L 56.0 9.0 L 57.0 10.0 L 58.0 11.0 L 58.666666666666664 12.0 L 59.333333333333336 13.0 L 59.666666666666664 14.0 L 60.333333333333336 15.0 L 61.0 16.0 L 62.0 16.666666666666668 L 63.0 16.666666666666668 L 63.666666666666664 16.0 L 64.0 15.0 L 64.0 14.0 L 64.0 13.0 L 63.666666666666664 12.0 L 63.333333333333336 11.0 L 62.666666666666664 10.0 L 62.333333333333336 9.0 L 61.666666666666664 8.0 L 61.0 7.0 L 60.0 6.333333333333333 L 59.0 5.666666666666667 L 58.0 5.333333333333333 L 57.0 4.666666666666667 L 56.0 4.333333333333333 L 55.0 4.0 L 54.0 3.6666666666666665 L 53.0 3.3333333333333335 L 52.0 3.0 L 51.0 3.0 L 50.0 3.0 L 49.0 3.0 L 48.0 3.0 L 47.0 3.0 L 46.333333333333336 3.3333333333333335 L 46.0 4.0 L 46.333333333333336 4.666666666666667 L 47.0 5.0 L 48.0 5.0 L 49.0 5.0 L 50.0 5.333333333333333 L 51.0 5.666666666666667 L 52.0 6.333333333333333 L 53.0 6.666666666666667 L 54.0 7.333333333333333 L 54.5 7.5 Z" stroke="none" fill="rgb(218,46,117)" />
<path d="M 43.5 21.5 L 43.666666666666664 21.0 L 44.0 20.0 L 44.333333333333336 19.0 L 45.0 18.0 L 46.0 17.0 L 47.0 16.0 L 48.0 15.0 L 49.0 14.0 L 49.666666666666664 13.0 L 50.0 12.0 L 50.0 11.0 L 49.666666666666664 10.0 L 49.0 9.333333333333334 L 48.0 9.0 L 47.0 9.0 L 46.0 9.0 L 45.0 9.0 L 44.0 9.333333333333334 L 43.0 9.666666666666666 L 42.0 10.333333333333334 L 41.333333333333336 11.0 L 40.666666666666664 12.0 L 40.333333333333336 13.0 L 40.0 14.0 L 40.0 15.0 L 40.0 16.0 L 40.0 17.0 L 40.0 18.0 L 40.0 19.0 L 40.0 20.0 L 40.333333333333336 21.0 L 41.0 21.666666666666668 L 42.0 22.0 L 42.5 22.0 Z" stroke="none" fill="rgb(243,134,171)" />
<path d="M 88.5 79.5 L 88.66666666666667 79.0 L 89.0 78.0 L 88.66666666666667 77.0 L 88.0 76.0 L 87.0 75.33333333333333 L 86.0 74.66666666666667 L 85.0 74.33333333333333 L 84.0 74.0 L 83.0 74.0 L 82.0 74.0 L 81.0 74.0 L 80.0 74.0 L 79.0 74.0 L 78.0 74.0 L 77.0 74.33333333333333 L 76.0 74.66666666666667 L 75.0 75.33333333333333 L 74.0 75.66666666666667 L 73.33333333333333 76.33333333333333 L 73.0 77.0 L 73.0 78.0 L 73.33333333333333 79.0 L 74.0 79.66666666666667 L 75.0 80.0 L 76.0 80.0 L 77.0 79.66666666666667 L 78.0 79.33333333333333 L 79.0 79.0 L 80.0 79.0 L 81.0 79.0 L 82.0 79.0 L 83.0 79.0 L 84.0 79.0 L 85.0 79.33333333333333 L 86.0 79.66666666666667 L 87.0 80.0 L 87.5 80.0 Z" stroke="none" fill="rgb(171,135,47)" />
<path d="M 120.5 80.0 L 121.0 79.66666666666667 L 121.66666666666667 79.0 L 122.0 78.0 L 121.66666666666667 77.0 L 121.0 76.0 L 120.0 75.0 L 119.0 74.33333333333333 L 118.0 74.0 L 117.0 74.0 L 116.0 74.0 L 115.0 74.0 L 114.0 74.0 L 113.0 74.0 L 112.0 74.0 L 111.0 74.0 L 110.0 74.33333333333333 L 109.0 75.0 L 108.0 75.66666666666667 L 107.0 76.33333333333333 L 106.33333333333333 77.0 L 106.0 78.0 L 106.33333333333333 79.0 L 107.0 79.66666666666667 L 108.0 80.0 L 109.0 80.0 L 110.0 79.66666666666667 L 111.0 79.33333333333333 L 112.0 79.0 L 113.0 79.0 L 114.0 79.0 L 115.0 79.0 L 116.0 79.0 L 117.0 79.0 L 118.0 79.33333333333333 L 119.0 79.66666666666667 L 119.5 80.0 Z" stroke="none" fill="rgb(171,135,47)" />
<path d="M 91.5 115.0 L 91.66666666666667 114.66666666666667 L 92.0 114.0 L 91.66666666666667 113.0 L 91.0 112.0 L 90.66666666666667 111.0 L 91.0 110.0 L 91.66666666666667 109.0 L 91.66666666666667 108.0 L 91.0 107.0 L 90.66666666666667 106.0 L 91.0 105.33333333333333 L 92.0 104.66666666666667 L 92.66666666666667 104.0 L 93.0 103.0 L 92.66666666666667 102.33333333333333 L 92.0 102.0 L 91.0 102.0 L 90.0 102.0 L 89.0 102.0 L 88.0 102.33333333333333 L 87.0 102.66666666666667 L 86.0 103.33333333333333 L 85.33333333333333 104.0 L 85.0 105.0 L 85.33333333333333 106.0 L 85.66666666666667 107.0 L 85.66666666666667 108.0 L 85.33333333333333 109.0 L 85.0 110.0 L 85.0 111.0 L 85.33333333333333 112.0 L 86.0 113.0 L 87.0 113.66666666666667 L 88.0 114.33333333333333 L 89.0 114.66666666666667 L 90.0 115.0 L 90.5 115.0 Z" stroke="none" fill="rgb(109,76,65)" />
<path d="M 69.0 71.5 L 69.0 71.0 L 69.0 70.0 L 69.0 69.0 L 69.0 68.0 L 69.0 67.0 L 69.0 66.0 L 69.33333333333333 65.0 L 69.66666666666667 64.0 L 70.0 63.0 L 70.0 62.0 L 70.33333333333333 61.0 L 70.66666666666667 60.0 L 71.0 59.0 L 71.33333333333333 58.0 L 71.66666666666667 57.0 L 72.33333333333333 56.0 L 72.66666666666667 55.0 L 73.33333333333333 54.0 L 73.66666666666667 53.0 L 74.0 52.0 L 74.0 51.0 L 73.66666666666667 50.333333333333336 L 73.0 50.0 L 72.0 50.333333333333336 L 71.0 51.0 L 70.0 52.0 L 69.33333333333333 53.0 L 69.0 54.0 L 68.66666666666667 55.0 L 68.33333333333333 56.0 L 68.0 57.0 L 68.0 58.0 L 68.0 59.0 L 67.66666666666667 60.0 L 67.33333333333333 61.0 L 67.0 62.0 L 67.0 63.0 L 67.0 64.0 L 67.0 65.0 L 67.0 66.0 L 67.0 67.0 L 67.0 68.0 L 67.0 69.0 L 67.0 70.0 L 67.0 71.0 L 67.0 72.0 L 67.33333333333333 72.66666666666667 L 68.0 72.66666666666667 L 68.5 72.5 Z" stroke="none" fill="rgb(191,160,85)" />
<path d="M 56.5 124.0 L 57.0 124.0 L 58.0 124.0 L 59.0 124.0 L 60.0 124.0 L 60.666666666666664 123.66666666666667 L 61.0 123.0 L 61.0 122.0 L 61.0 121.0 L 61.0 120.0 L 61.0 119.0 L 61.0 118.0 L 61.0 117.0 L 61.0 116.0 L 61.0 115.0 L 61.0 114.0 L 60.666666666666664 113.33333333333333 L 60.0 113.0 L 59.0 113.33333333333333 L 58.333333333333336 114.0 L 57.666666666666664 115.0 L 57.0 116.0 L 56.0 117.0 L 55.0 118.0 L 54.0 119.0 L 53.0 120.0 L 52.0 121.0 L 51.0 121.66666666666667 L 50.333333333333336 122.33333333333333 L 50.0 123.0 L 50.333333333333336 123.66666666666667 L 51.0 124.0 L 52.0 124.0 L 53.0 124.0 L 54.0 124.0 L 55.0 124.0 L 55.5 124.0 Z" stroke="none" fill="rgb(191,160,85)" />
<path d="M 43.0 112.5 L 43.0 112.0 L 43.0 111.0 L 43.0 110.0 L 43.0 109.0 L 43.0 108.0 L 43.0 107.0 L 43.0 106.0 L 43.0 105.0 L 42.666666666666664 104.0 L 42.0 103.0 L 41.0 102.33333333333333 L 40.0 102.0 L 39.0 102.33333333333333 L 38.333333333333336 103.0 L 38.333333333333336 104.0 L 38.333333333333336 105.0 L 38.0 106.0 L 37.0 107.0 L 36.333333333333336 108.0 L 36.333333333333336 109.0 L 37.0 110.0 L 37.666666666666664 111.0 L 37.666666666666664 112.0 L 37.333333333333336 113.0 L 37.333333333333336 113.66666666666667 L 38.0 114.0 L 39.0 114.0 L 40.0 114.0 L 41.0 114.0 L 42.0 113.66666666666667 L 42.5 113.5 Z" stroke="none" fill="rgb(109,76,65)" />
<path d="M 8.5 79.0 L 9.0 79.0 L 10.0 79.0 L 11.0 79.0 L 12.0 79.0 L 13.0 79.0 L 14.0 79.0 L 15.0 79.0 L 16.0 79.0 L 17.0 79.0 L 18.0 79.0 L 19.0 79.0 L 20.0 79.0 L 20.666666666666668 78.66666666666667 L 21.0 78.0 L 20.666666666666668 77.0 L 20.0 76.0 L 19.0 75.33333333333333 L 18.0 74.66666666666667 L 17.0 74.33333333333333 L 16.0 74.0 L 15.0 74.0 L 14.0 74.0 L 13.0 74.33333333333333 L 12.0 74.66666666666667 L 11.0 75.0 L 10.0 75.0 L 9.0 75.33333333333333 L 8.0 76.0 L 7.333333333333333 77.0 L 7.0 78.0 L 7.333333333333333 78.66666666666667 L 7.5 79.0 Z" stroke="none" fill="rgb(171,135,47)" />
<path d="M 59.5 109.0 L 60.0 109.0 L 60.666666666666664 108.66666666666667 L 61.0 108.0 L 61.0 107.0 L 61.0 106.0 L 61.0 105.0 L 61.0 104.0 L 61.0 103.0 L 61.0 102.0 L 61.0 101.0 L 61.0 100.0 L 61.0 99.0 L 61.0 98.0 L 61.0 97.0 L 61.0 96.0 L 61.0 95.0 L 61.0 94.0 L 61.0 93.0 L 61.0 92.0 L 61.0 91.0 L 60.666666666666664 90.33333333333333 L 60.0 90.0 L 59.333333333333336 90.33333333333333 L 59.0 91.0 L 59.0 92.0 L 59.0 93.0 L 59.0 94.0 L 59.0 95.0 L 59.0 96.0 L 59.0 97.0 L 59.0 98.0 L 59.0 99.0 L 58.666666666666664 100.0 L 58.333333333333336 101.0 L 58.0 102.0 L 57.666666666666664 103.0 L 57.333333333333336 104.0 L 57.0 105.0 L 57.0 106.0 L 57.0 107.0 L 57.333333333333336 108.0 L 58.0 108.66666666666667 L 58.5 109.0 Z" stroke="none" fill="rgb(174,139,53)" />
<path d="M 71.5 16.0 L 72.0 16.0 L 73.0 16.0 L 74.0 15.666666666666666 L 75.0 15.333333333333334 L 76.0 14.666666666666666 L 77.0 14.0 L 77.66666666666667 13.0 L 78.0 12.0 L 78.0 11.0 L 77.66666666666667 10.0 L 77.0 9.0 L 76.0 8.333333333333334 L 75.0 8.0 L 74.0 8.333333333333334 L 73.0 8.666666666666666 L 72.0 9.333333333333334 L 71.33333333333333 10.0 L 70.66666666666667 11.0 L 70.33333333333333 12.0 L 69.66666666666667 13.0 L 69.33333333333333 14.0 L 69.0 15.0 L 69.33333333333333 15.666666666666666 L 70.0 16.0 L 70.5 16.0 Z" stroke="none" fill="rgb(243,134,171)" />
<path d="M 8.5 124.0 L 9.0 124.0 L 10.0 124.0 L 11.0 124.0 L 12.0 124.0 L 13.0 124.0 L 13.666666666666666 123.66666666666667 L 13.666666666666666 123.0 L 13.0 122.0 L 12.0 121.0 L 11.0 120.33333333333333 L 10.0 119.66666666666667 L 9.0 119.33333333333333 L 8.0 118.66666666666667 L 7.0 118.0 L 6.0 117.33333333333333 L 5.0 117.33333333333333 L 4.333333333333333 118.0 L 4.0 119.0 L 4.0 120.0 L 4.0 121.0 L 4.0 122.0 L 4.0 123.0 L 4.333333333333333 123.66666666666667 L 5.0 124.0 L 6.0 124.0 L 7.0 124.0 L 7.5 124.0 Z" stroke="none" fill="rgb(191,160,85)" />
<path d="M 13.5 91.0 L 14.0 91.0 L 15.0 91.0 L 16.0 91.0 L 17.0 91.0 L 18.0 91.0 L 19.0 90.66666666666667 L 19.666666666666668 90.0 L 20.0 89.0 L 20.0 88.0 L 19.666666666666668 87.33333333333333 L 19.0 87.0 L 18.0 87.0 L 17.0 87.0 L 16.0 87.0 L 15.0 87.0 L 14.0 87.0 L 13.0 87.0 L 12.0 87.0 L 11.0 87.0 L 10.0 87.0 L 9.333333333333334 87.33333333333333 L 9.0 88.0 L 9.333333333333334 89.0 L 10.0 90.0 L 11.0 90.66666666666667 L 12.0 91.0 L 12.5 91.0 Z" stroke="none" fill="rgb(93,64,55)" />
<path d="M 50.5 91.0 L 51.0 91.0 L 52.0 90.66666666666667 L 52.666666666666664 90.0 L 53.0 89.0 L 53.0 88.0 L 52.666666666666664 87.33333333333333 L 52.0 87.0 L 51.0 87.0 L 50.0 87.0 L 49.0 87.0 L 48.0 87.0 L 47.0 87.0 L 46.0 87.0 L 45.0 87.0 L 44.0 87.0 L 43.0 87.0 L 42.333333333333336 87.33333333333333 L 42.0 88.0 L 42.333333333333336 89.0 L 43.0 90.0 L 44.0 90.66666666666667 L 45.0 91.0 L 46.0 91.0 L 47.0 91.0 L 48.0 91.0 L 49.0 91.0 L 49.5 91.0 Z" stroke="none" fill="rgb(93,64,55)" />
<path d="M 85.5 90.5 L 85.66666666666667 90.0 L 86.0 89.0 L 86.0 88.0 L 85.66666666666667 87.33333333333333 L 85.0 87.0 L 84.0 87.0 L 83.0 87.0 L 82.0 87.0 L 81.0 87.0 L 80.0 87.0 L 79.0 87.0 L 78.0 87.0 L 77.0 87.0 L 76.0 87.0 L 75.33333333333333 87.33333333333333 L 75.0 88.0 L 75.33333333333333 89.0 L 76.0 90.0 L 77.0 90.66666666666667 L 78.0 91.0 L 79.0 91.0 L 80.0 91.0 L 81.0 91.0 L 82.0 91.0 L 83.0 91.0 L 84.0 91.0 L 84.5 91.0 Z" stroke="none" fill="rgb(93,64,55)" />
<path d="M 111.5 91.0 L 112.0 91.0 L 113.0 91.0 L 114.0 91.0 L 115.0 91.0 L 116.0 91.0 L 117.0 91.0 L 118.0 90.66666666666667 L 118.66666666666667 90.0 L 119.0 89.0 L 119.0 88.0 L 118.66666666666667 87.33333333333333 L 118.0 87.0 L 117.0 87.0 L 116.0 87.0 L 115.0 87.0 L 114.0 87.0 L 113.0 87.0 L 112.0 87.0 L 111.0 87.0 L 110.0 87.0 L 109.0 87.0 L 108.33333333333333 87.33333333333333 L 108.0 88.0 L 108.33333333333333 89.0 L 109.0 90.0 L 110.0 90.66666666666667 L 110.5 91.0 Z" stroke="none" fill="rgb(93,64,55)" />
<path d="M 9.5 49.0 L 10.0 48.666666666666664 L 11.0 48.333333333333336 L 12.0 47.666666666666664 L 13.0 47.333333333333336 L 14.0 47.0 L 15.0 46.666666666666664 L 16.0 46.333333333333336 L 17.0 46.0 L 18.0 46.0 L 19.0 46.0 L 20.0 45.666666666666664 L 20.666666666666668 45.0 L 20.666666666666668 44.333333333333336 L 20.0 44.0 L 19.0 44.0 L 18.0 44.0 L 17.0 44.0 L 16.0 44.333333333333336 L 15.0 44.666666666666664 L 14.0 45.0 L 13.0 45.333333333333336 L 12.0 45.666666666666664 L 11.0 46.0 L 10.0 46.333333333333336 L 9.0 46.666666666666664 L 8.0 47.333333333333336 L 7.0 48.0 L 6.0 48.666666666666664 L 5.0 49.333333333333336 L 4.333333333333333 50.0 L 4.333333333333333 50.666666666666664 L 5.0 51.0 L 6.0 50.666666666666664 L 7.0 50.333333333333336 L 8.0 49.666666666666664 L 8.5 49.5 Z" stroke="none" fill="rgb(177,142,58)" />
<path d="M 52.5 116.5 L 53.0 116.0 L 54.0 115.33333333333333 L 54.666666666666664 114.66666666666667 L 55.333333333333336 114.0 L 56.0 113.0 L 57.0 112.0 L 57.666666666666664 111.0 L 58.0 110.0 L 58.0 109.0 L 57.666666666666664 108.33333333333333 L 57.0 108.33333333333333 L 56.333333333333336 109.0 L 55.666666666666664 110.0 L 55.0 111.0 L 54.0 112.0 L 53.0 113.0 L 52.0 114.0 L 51.0 115.0 L 50.0 116.0 L 49.0 117.0 L 48.333333333333336 118.0 L 48.333333333333336 119.0 L 49.0 119.66666666666667 L 50.0 119.66666666666667 L 50.666666666666664 119.0 L 51.333333333333336 118.0 L 51.5 117.5 Z" stroke="none" fill="rgb(177,142,58)" />
<path d="M 69.5 90.5 L 70.0 90.66666666666667 L 70.66666666666667 90.66666666666667 L 71.0 90.0 L 71.0 89.0 L 71.0 88.0 L 70.66666666666667 87.0 L 70.33333333333333 86.0 L 70.0 85.0 L 69.66666666666667 84.0 L 69.33333333333333 83.0 L 69.0 82.0 L 69.0 81.0 L 69.0 80.0 L 69.0 79.0 L 69.0 78.0 L 68.66666666666667 77.33333333333333 L 68.0 77.0 L 67.33333333333333 77.33333333333333 L 67.0 78.0 L 67.0 79.0 L 67.0 80.0 L 67.0 81.0 L 67.0 82.0 L 67.33333333333333 83.0 L 67.66666666666667 84.0 L 68.0 85.0 L 68.0 86.0 L 68.0 87.0 L 68.33333333333333 88.0 L 68.66666666666667 89.0 L 69.0 89.5 Z" stroke="none" fill="rgb(191,160,85)" />
<path d="M 37.5 97.5 L 38.0 97.0 L 38.666666666666664 96.0 L 39.0 95.0 L 38.666666666666664 94.33333333333333 L 38.0 94.0 L 37.0 94.0 L 36.0 94.0 L 35.0 94.0 L 34.0 94.0 L 33.0 94.0 L 32.0 94.0 L 31.0 94.0 L 30.333333333333332 94.33333333333333 L 30.0 95.0 L 30.333333333333332 96.0 L 31.0 97.0 L 32.0 97.66666666666667 L 33.0 98.0 L 34.0 98.0 L 35.0 98.0 L 36.0 98.0 L 36.5 98.0 Z" stroke="none" fill="rgb(198,141,105)" />
<path d="M 95.5 98.0 L 96.0 97.66666666666667 L 97.0 97.0 L 97.66666666666667 96.0 L 98.0 95.0 L 97.66666666666667 94.33333333333333 L 97.0 94.0 L 96.0 94.0 L 95.0 94.0 L 94.0 94.0 L 93.0 94.0 L 92.0 94.0 L 91.0 94.0 L 90.0 94.0 L 89.33333333333333 94.33333333333333 L 89.0 95.0 L 89.33333333333333 96.0 L 90.0 97.0 L 91.0 97.66666666666667 L 92.0 98.0 L 93.0 98.0 L 94.0 98.0 L 94.5 98.0 Z" stroke="none" fill="rgb(198,141,105)" />
<path d="M 59.5 113.5 L 59.666666666666664 113.0 L 60.0 112.0 L 60.0 111.0 L 60.0 110.0 L 59.666666666666664 109.33333333333333 L 59.0 109.0 L 58.333333333333336 109.33333333333333 L 57.666666666666664 110.0 L 57.0 111.0 L 56.0 112.0 L 55.333333333333336 113.0 L 54.666666666666664 114.0 L 54.333333333333336 115.0 L 54.0 116.0 L 54.333333333333336 116.66666666666667 L 55.0 116.66666666666667 L 56.0 116.0 L 57.0 115.0 L 58.0 114.33333333333333 L 58.5 114.0 Z" stroke="none" fill="rgb(184,151,71)" />
<path d="M 58.0 115.5 L 58.0 115.0 L 57.666666666666664 114.33333333333333 L 57.0 114.33333333333333 L 56.0 115.0 L 55.0 116.0 L 54.0 117.0 L 53.0 118.0 L 52.0 119.0 L 51.0 120.0 L 50.333333333333336 121.0 L 50.333333333333336 121.66666666666667 L 51.0 122.0 L 52.0 121.66666666666667 L 53.0 121.0 L 54.0 120.0 L 55.0 119.0 L 56.0 118.0 L 57.0 117.0 L 57.5 116.5 Z" stroke="none" fill="rgb(187,155,78)" />
<path d="M 42.5 123.0 L 43.0 123.0 L 44.0 123.0 L 45.0 122.66666666666667 L 46.0 122.0 L 47.0 121.0 L 47.666666666666664 120.0 L 47.666666666666664 119.33333333333333 L 47.0 119.0 L 46.0 119.0 L 45.0 119.33333333333333 L 44.0 120.0 L 43.0 120.66666666666667 L 42.0 121.33333333333333 L 41.0 121.66666666666667 L 40.0 122.0 L 39.333333333333336 122.33333333333333 L 39.333333333333336 122.66666666666667 L 40.0 123.0 L 41.0 123.0 L 41.5 123.0 Z" stroke="none" fill="rgb(177,142,58)" />
<path d="M 36.5 124.0 L 37.0 124.0 L 38.0 124.0 L 39.0 124.0 L 40.0 124.0 L 41.0 124.0 L 42.0 124.0 L 43.0 124.0 L 44.0 124.0 L 45.0 124.0 L 46.0 124.0 L 47.0 124.0 L 48.0 124.0 L 49.0 124.0 L 49.666666666666664 123.66666666666667 L 49.666666666666664 123.33333333333333 L 49.0 123.0 L 48.0 123.0 L 47.0 123.0 L 46.0 123.0 L 45.0 123.0 L 44.0 123.0 L 43.0 123.0 L 42.0 123.0 L 41.0 123.0 L 40.0 123.0 L 39.0 123.0 L 38.0 123.0 L 37.0 123.0 L 36.333333333333336 123.33333333333333 L 36.0 123.5 Z" stroke="none" fill="rgb(0,0,0)" />
<path d="M 48.5 122.5 L 49.0 122.33333333333333 L 50.0 121.66666666666667 L 51.0 121.0 L 51.666666666666664 120.0 L 52.0 119.0 L 51.666666666666664 118.33333333333333 L 51.0 118.33333333333333 L 50.0 119.0 L 49.0 119.66666666666667 L 48.0 120.33333333333333 L 47.0 120.66666666666667 L 46.0 121.33333333333333 L 45.333333333333336 122.0 L 45.333333333333336 122.66666666666667 L 46.0 123.0 L 47.0 123.0 L 47.5 123.0 Z" stroke="none" fill="rgb(184,151,71)" />
<path d="M 42.5 6.5 L 43.0 6.333333333333333 L 44.0 6.0 L 45.0 5.666666666666667 L 45.666666666666664 5.0 L 45.666666666666664 4.333333333333333 L 45.0 4.0 L 44.0 4.0 L 43.0 4.333333333333333 L 42.0 4.666666666666667 L 41.0 5.333333333333333 L 40.333333333333336 6.0 L 40.333333333333336 6.666666666666667 L 41.0 7.0 L 41.5 7.0 Z" stroke="none" fill="rgb(0,0,0)" />
<path d="M 65.5 56.0 L 66.0 56.0 L 67.0 55.666666666666664 L 68.0 55.0 L 68.66666666666667 54.0 L 69.0 53.0 L 68.66666666666667 52.333333333333336 L 68.0 52.333333333333336 L 67.0 53.0 L 66.0 54.0 L 65.33333333333333 55.0 L 65.0 55.5 Z" stroke="none" fill="rgb(218,46,117)" />
<path d="M 53.5 118.5 L 53.666666666666664 118.0 L 54.0 117.0 L 54.0 116.0 L 53.666666666666664 115.33333333333333 L 53.0 115.33333333333333 L 52.0 116.0 L 51.333333333333336 117.0 L 51.333333333333336 118.0 L 52.0 118.66666666666667 L 52.5 119.0 Z" stroke="none" fill="rgb(180,146,65)" />
<path d="M 39.5 122.5 L 39.666666666666664 122.0 L 39.666666666666664 121.33333333333333 L 39.0 121.0 L 38.0 121.0 L 37.0 121.0 L 36.333333333333336 121.33333333333333 L 36.0 122.0 L 36.333333333333336 122.66666666666667 L 37.0 123.0 L 38.0 123.0 L 38.5 123.0 Z" stroke="none" fill="rgb(174,139,53)" />
<path d="M 76.0 4.5 L 76.0 4.0 L 75.66666666666667 3.3333333333333335 L 75.0 3.3333333333333335 L 74.0 3.6666666666666665 L 73.0 4.0 L 72.33333333333333 4.333333333333333 L 72.33333333333333 4.666666666666667 L 73.0 5.0 L 74.0 5.0 L 75.0 5.0 L 75.5 5.0 Z" stroke="none" fill="rgb(0,0,0)" />
<path d="M 88.5 8.5 L 89.0 8.666666666666666 L 89.66666666666667 8.666666666666666 L 90.0 8.0 L 89.66666666666667 7.0 L 89.0 6.333333333333333 L 88.0 6.0 L 87.33333333333333 6.333333333333333 L 87.33333333333333 7.0 L 87.5 7.5 Z" stroke="none" fill="rgb(0,0,0)" />
<path d="M 4.5 78.0 L 4.666666666666667 77.66666666666667 L 5.0 77.0 L 5.0 76.0 L 5.0 75.0 L 5.0 74.0 L 4.666666666666667 73.33333333333333 L 4.333333333333333 73.33333333333333 L 4.0 74.0 L 4.0 75.0 L 4.0 76.0 L 4.0 77.0 L 4.0 77.5 Z" stroke="none" fill="rgb(0,0,0)" />
<path d="M 68.0 76.5 L 68.0 76.0 L 68.0 75.0 L 68.0 74.0 L 67.66666666666667 73.33333333333333 L 67.33333333333333 73.33333333333333 L 67.0 74.0 L 67.0 75.0 L 67.0 76.0 L 67.33333333333333 76.66666666666667 L 67.5 77.0 Z" stroke="none" fill="rgb(0,0,0)" />
<path d="M 61.0 112.5 L 61.0 112.0 L 61.0 111.0 L 61.0 110.0 L 60.666666666666664 109.33333333333333 L 60.333333333333336 109.33333333333333 L 60.0 110.0 L 60.0 111.0 L 60.0 112.0 L 60.333333333333336 112.66666666666667 L 60.5 113.0 Z" stroke="none" fill="rgb(0,0,0)" />
<path d="M 46.5 119.0 L 47.0 119.0 L 47.666666666666664 118.66666666666667 L 48.0 118.0 L 47.666666666666664 117.33333333333333 L 47.0 117.33333333333333 L 46.333333333333336 118.0 L 46.0 118.5 Z" stroke="none" fill="rgb(174,139,53)" />
<path d="M 93.0 13.5 L 93.0 13.0 L 92.66666666666667 12.333333333333334 L 92.33333333333333 12.333333333333334 L 92.0 13.0 L 92.33333333333333 13.666666666666666 L 92.5 14.0 Z" stroke="none" fill="rgb(0,0,0)" />
<path d="M 5.0 117.5 L 5.0 117.0 L 4.666666666666667 116.33333333333333 L 4.333333333333333 116.33333333333333 L 4.0 117.0 L 4.333333333333333 117.66666666666667 L 4.5 118.0 Z" stroke="none" fill="rgb(0,0,0)" />
<path d="M 50.0 122.5 L 49.666666666666664 122.33333333333333 L 49.0 122.0 L 48.333333333333336 122.33333333333333 L 48.333333333333336 122.66666666666667 L 49.0 123.0 L 49.5 123.0 Z" stroke="none" fill="rgb(187,155,78)" />
<path d="M 81.5 4.0 L 81.66666666666667 3.6666666666666665 L 81.66666666666667 3.3333333333333335 L 81.33333333333333 3.3333333333333335 L 81.0 3.5 Z" stroke="none" fill="rgb(0,0,0)" />
<path d="M 84.5 5.0 L 84.66666666666667 4.666666666666667 L 84.66666666666667 4.333333333333333 L 84.33333333333333 4.333333333333333 L 84.0 4.5 Z" stroke="none" fill="rgb(0,0,0)" />
<path d="M 87.0 5.5 L 86.66666666666667 5.333333333333333 L 86.33333333333333 5.333333333333333 L 86.33333333333333 5.666666666666667 L 86.5 6.0 Z" stroke="none" fill="rgb(0,0,0)" />
<path d="M 90.5 10.0 L 90.66666666666667 9.666666666666666 L 90.66666666666667 9.333333333333334 L 90.33333333333333 9.333333333333334 L 90.0 9.5 Z" stroke="none" fill="rgb(0,0,0)" />
<path d="M 91.5 11.0 L 91.66666666666667 10.666666666666666 L 91.66666666666667 10.333333333333334 L 91.33333333333333 10.333333333333334 L 91.0 10.5 Z" stroke="none" fill="rgb(0,0,0)" />
<path d="M 25.5 28.0 L 25.666666666666668 27.666666666666668 L 25.666666666666668 27.333333333333332 L 25.333333333333332 27.333333333333332 L 25.0 27.5 Z" stroke="none" fill="rgb(0,0,0)" />
<path d="M 33.0 28.5 L 32.666666666666664 28.333333333333332 L 32.333333333333336 28.333333333333332 L 32.333333333333336 28.666666666666668 L 32.5 29.0 Z" stroke="none" fill="rgb(0,0,0)" />
<path d="M 4.5 44.0 L 4.666666666666667 43.666666666666664 L 4.666666666666667 43.333333333333336 L 4.333333333333333 43.333333333333336 L 4.0 43.5 Z" stroke="none" fill="rgb(0,0,0)" />
<path d="M 4.5 46.0 L 4.666666666666667 45.666666666666664 L 4.666666666666667 45.333333333333336 L 4.333333333333333 45.333333333333336 L 4.0 45.5 Z" stroke="none" fill="rgb(0,0,0)" />
<path d="M 4.5 48.0 L 4.666666666666667 47.666666666666664 L 4.666666666666667 47.333333333333336 L 4.333333333333333 47.333333333333336 L 4.0 47.5 Z" stroke="none" fill="rgb(0,0,0)" />
<path d="M 4.5 50.0 L 4.666666666666667 49.666666666666664 L 4.666666666666667 49.333333333333336 L 4.333333333333333 49.333333333333336 L 4.0 49.5 Z" stroke="none" fill="rgb(0,0,0)" />
<path d="M 4.5 52.0 L 4.666666666666667 51.666666666666664 L 4.666666666666667 51.333333333333336 L 4.333333333333333 51.333333333333336 L 4.0 51.5 Z" stroke="none" fill="rgb(0,0,0)" />
<path d="M 4.5 54.0 L 4.666666666666667 53.666666666666664 L 4.666666666666667 53.333333333333336 L 4.333333333333333 53.333333333333336 L 4.0 53.5 Z" stroke="none" fill="rgb(0,0,0)" />
<path d="M 59.5 55.0 L 59.666666666666664 54.666666666666664 L 59.666666666666664 54.333333333333336 L 59.333333333333336 54.333333333333336 L 59.0 54.5 Z" stroke="none" fill="rgb(255,255,255)" />
<path d="M 65.0 56.5 L 64.66666666666667 56.333333333333336 L 64.33333333333333 56.333333333333336 L 64.33333333333333 56.666666666666664 L 64.5 57.0 Z" stroke="none" fill="rgb(0,0,0)" />
<path d="M 123.5 64.0 L 123.66666666666667 63.666666666666664 L 123.66666666666667 63.333333333333336 L 123.33333333333333 63.333333333333336 L 123.0 63.5 Z" stroke="none" fill="rgb(0,0,0)" />
<path d="M 48.5 120.0 L 48.666666666666664 119.66666666666667 L 48.666666666666664 119.33333333333333 L 48.333333333333336 119.33333333333333 L 48.0 119.5 Z" stroke="none" fill="rgb(180,146,65)" />
<path d="M 48.0 120.5 L 47.666666666666664 120.33333333333333 L 47.333333333333336 120.33333333333333 L 47.333333333333336 120.66666666666667 L 47.5 121.0 Z" stroke="none" fill="rgb(180,146,65)" />
</svg>
