<?xml version="1.0" encoding="UTF-8" standalone="no"?>
<!DOCTYPE svg PUBLIC "-//W3C//DTD SVG 1.1//EN"
"http://www.w3.org/Graphics/SVG/1.1/DTD/svg11.dtd">
<svg width="128" height="128" xmlns="http://www.w3.org/2000/svg" version="1.1">
<path d="M 5.5 128.0 L 6.0 128.0 L 7.0 128.0 L 8.0 128.0 L 9.0 128.0 L 10.0 128.0 L 11.0 128.0 L 12.0 128.0 L 13.0 128.0 L 14.0 128.0 L 15.0 128.0 L 16.0 128.0 L 17.0 128.0 L 18.0 128.0 L 19.0 128.0 L 20.0 128.0 L 21.0 128.0 L 22.0 128.0 L 23.0 128.0 L 24.0 128.0 L 25.0 128.0 L 26.0 128.0 L 27.0 128.0 L 28.0 128.0 L 29.0 128.0 L 30.0 128.0 L 31.0 128.0 L 32.0 128.0 L 33.0 128.0 L 34.0 128.0 L 35.0 128.0 L 36.0 128.0 L 37.0 128.0 L 38.0 128.0 L 39.0 128.0 L 40.0 128.0 L 41.0 128.0 L 42.0 128.0 L 43.0 128.0 L 44.0 128.0 L 45.0 128.0 L 46.0 128.0 L 47.0 128.0 L 48.0 128.0 L 49.0 128.0 L 50.0 128.0 L 51.0 128.0 L 52.0 128.0 L 53.0 128.0 L 54.0 128.0 L 55.0 128.0 L 56.0 128.0 L 57.0 128.0 L 58.0 128.0 L 59.0 128.0 L 60.0 128.0 L 61.0 128.0 L 62.0 128.0 L 63.0 128.0 L 64.0 128.0 L 65.0 128.0 L 66.0 128.0 L 67.0 128.0 L 68.0 128.0 L 69.0 128.0 L 70.0 128.0 L 71.0 128.0 L 72.0 128.0 L 73.0 128.0 L 74.0 128.0 L 75.0 128.0 L 76.0 128.0 L 77.0 128.0 L 78.0 128.0 L 79.0 128.0 L 80.0 128.0 L 81.0 128.0 L 82.0 128.0 L 83.0 128.0 L 84.0 128.0 L 85.0 128.0 L 86.0 128.0 L 87.0 128.0 L 88.0 128.0 L 89.0 128.0 L 90.0 128.0 L 91.0 128.0 L 92.0 128.0 L 93.0 128.0 L 94.0 128.0 L 95.0 128.0 L 96.0 128.0 L 97.0 128.0 L 98.0 128.0 L 99.0 128.0 L 100.0 128.0 L 101.0 128.0 L 102.0 128.0 L 103.0 128.0 L 104.0 128.0 L 105.0 128.0 L 106.0 128.0 L 107.0 128.0 L 108.0 128.0 L 109.0 128.0 L 110.0 128.0 L 111.0 128.0 L 112.0 128.0 L 113.0 128.0 L 114.0 128.0 L 115.0 128.0 L 116.0 128.0 L 117.0 128.0 L 118.0 128.0 L 119.0 128.0 L 120.0 128.0 L 121.0 128.0 L 122.0 128.0 L 123.0 128.0 L 124.0 128.0 L 125.0 128.0 L 126.0 128.0 L 127.0 128.0 L 127.66666666666667 127.66666666666667 L 128.0 127.0 L 128.0 126.0 L 128.0 125.0 L 128.0 124.0 L 128.0 123.0 L 128.0 122.0 L 128.0 121.0 L 128.0 120.0 L 128.0 119.0 L 128.0 118.0 L 128.0 117.0 L 128.0 116.0 L 128.0 115.0 L 128.0 114.0 L 128.0 113.0 L 128.0 112.0 L 128.0 111.0 L 128.0 110.0 L 128.0 109.0 L 128.0 108.0 L 128.0 107.0 L 128.0 106.0 L 128.0 105.0 L 128.0 104.0 L 128.0 103.0 L 128.0 102.0 L 128.0 101.0 L 128.0 100.0 L 128.0 99.0 L 128.0 98.0 L 128.0 97.0 L 128.0 96.0 L 128.0 95.0 L 128.0 94.0 L 128.0 93.0 L 128.0 92.0 L 128.0 91.0 L 128.0 90.0 L 128.0 89.0 L 128.0 88.0 L 128.0 87.0 L 128.0 86.0 L 128.0 85.0 L 128.0 84.0 L 128.0 83.0 L 128.0 82.0 L 128.0 81.0 L 128.0 80.0 L 128.0 79.0 L 128.0 78.0 L 128.0 77.0 L 128.0 76.0 L 128.0 75.0 L 128.0 74.0 L 128.0 73.0 L 128.0 72.0 L 128.0 71.0 L 128.0 70.0 L 128.0 69.0 L 128.0 68.0 L 128.0 67.0 L 128.0 66.0 L 128.0 65.0 L 128.0 64.0 L 128.0 63.0 L 128.0 62.0 L 128.0 61.0 L 128.0 60.0 L 128.0 59.0 L 128.0 58.0 L 128.0 57.0 L 128.0 56.0 L 128.0 55.0 L 128.0 54.0 L 128.0 53.0 L 128.0 52.0 L 128.0 51.0 L 128.0 50.0 L 128.0 49.0 L 128.0 48.0 L 128.0 47.0 L 128.0 46.0 L 128.0 45.0 L 128.0 44.0 L 128.0 43.0 L 128.0 42.0 L 128.0 41.0 L 128.0 40.0 L 128.0 39.0 L 128.0 38.0 L 128.0 37.0 L 128.0 36.0 L 128.0 35.0 L 128.0 34.0 L 128.0 33.0 L 128.0 32.0 L 128.0 31.0 L 128.0 30.0 L 128.0 29.0 L 128.0 28.0 L 128.0 27.0 L 128.0 26.0 L 128.0 25.0 L 128.0 24.0 L 128.0 23.0 L 128.0 22.0 L 128.0 21.0 L 128.0 20.0 L 128.0 19.0 L 128.0 18.0 L 128.0 17.0 L 128.0 16.0 L 128.0 15.0 L 128.0 14.0 L 128.0 13.0 L 128.0 12.0 L 128.0 11.0 L 128.0 10.0 L 128.0 9.0 L 128.0 8.0 L 128.0 7.0 L 128.0 6.0 L 128.0 5.0 L 128.0 4.0 L 128.0 3.0 L 128.0 2.0 L 128.0 1.0 L 127.66666666666667 0.3333333333333333 L 127.0 0.0 L 126.0 0.0 L 125.0 0.0 L 124.0 0.0 L 123.0 0.0 L 122.0 0.0 L 121.0 0.0 L 120.0 0.0 L 119.0 0.0 L 118.0 0.0 L 117.0 0.0 L 116.0 0.0 L 115.0 0.0 L 114.0 0.0 L 113.0 0.0 L 112.0 0.0 L 111.0 0.0 L 110.0 0.0 L 109.0 0.0 L 108.0 0.0 L 107.0 0.0 L 106.0 0.0 L 105.0 0.0 L 104.0 0.0 L 103.0 0.0 L 102.0 0.0 L 101.0 0.0 L 100.0 0.0 L 99.0 0.0 L 98.0 0.0 L 97.0 0.0 L 96.0 0.0 L 95.0 0.0 L 94.0 0.0 L 93.0 0.0 L 92.0 0.0 L 91.0 0.0 L 90.0 0.0 L 89.0 0.0 L 88.0 0.0 L 87.0 0.0 L 86.0 0.0 L 85.0 0.0 L 84.0 0.0 L 83.0 0.0 L 82.0 0.0 L 81.0 0.0 L 80.0 0.0 L 79.0 0.0 L 78.0 0.0 L 77.0 0.0 L 76.0 0.0 L 75.0 0.0 L 74.0 0.0 L 73.0 0.0 L 72.0 0.0 L 71.0 0.0 L 70.0 0.0 L 69.0 0.0 L 68.0 0.0 L 67.0 0.0 L 66.0 0.0 L 65.0 0.0 L 64.0 0.0 L 63.0 0.0 L 62.0 0.0 L 61.0 0.0 L 60.0 0.0 L 59.0 0.0 L 58.0 0.0 L 57.0 0.0 L 56.0 0.0 L 55.0 0.0 L 54.0 0.0 L 53.0 0.0 L 52.0 0.0 L 51.0 0.0 L 50.0 0.0 L 49.0 0.0 L 48.0 0.0 L 47.0 0.0 L 46.0 0.0 L 45.0 0.0 L 44.0 0.0 L 43.0 0.0 L 42.0 0.0 L 41.0 0.0 L 40.0 0.0 L 39.0 0.0 L 38.0 0.0 L 37.0 0.0 L 36.0 0.0 L 35.0 0.0 L 34.0 0.0 L 33.0 0.0 L 32.0 0.0 L 31.0 0.0 L 30.0 0.0 L 29.0 0.0 L 28.0 0.0 L 27.0 0.0 L 26.0 0.0 L 25.0 0.0 L 24.0 0.0 L 23.0 0.0 L 22.0 0.0 L 21.0 0.0 L 20.0 0.0 L 19.0 0.0 L 18.0 0.0 L 17.0 0.0 L 16.0 0.0 L 15.0 0.0 L 14.0 0.0 L 13.0 0.0 L 12.0 0.0 L 11.0 0.0 L 10.0 0.0 L 9.0 0.0 L 8.0 0.0 L 7.0 0.0 L 6.0 0.0 L 5.0 0.0 L 4.0 0.0 L 3.0 0.0 L 2.0 0.0 L 1.0 0.0 L 0.3333333333333333 0.3333333333333333 L 0.0 1.0 L 0.0 2.0 L 0.0 3.0 L 0.0 4.0 L 0.0 5.0 L 0.0 6.0 L 0.0 7.0 L 0.0 8.0 L 0.0 9.0 L 0.0 10.0 L 0.0 11.0 L 0.0 12.0 L 0.0 13.0 L 0.0 14.0 L 0.0 15.0 L 0.0 16.0 L 0.0 17.0 L 0.0 18.0 L 0.0 19.0 L 0.0 20.0 L 0.0 21.0 L 0.0 22.0 L 0.0 23.0 L 0.0 24.0 L 0.0 25.0 L 0.0 26.0 L 0.0 27.0 L 0.0 28.0 L 0.0 29.0 L 0.0 30.0 L 0.0 31.0 L 0.0 32.0 L 0.0 33.0 L 0.0 34.0 L 0.0 35.0 L 0.0 36.0 L 0.0 37.0 L 0.0 38.0 L 0.0 39.0 L 0.0 40.0 L 0.0 41.0 L 0.0 42.0 L 0.0 43.0 L 0.0 44.0 L 0.0 45.0 L 0.0 46.0 L 0.0 47.0 L 0.0 48.0 L 0.0 49.0 L 0.0 50.0 L 0.0 51.0 L 0.0 52.0 L 0.0 53.0 L 0.0 54.0 L 0.0 55.0 L 0.0 56.0 L 0.0 57.0 L 0.0 58.0 L 0.0 59.0 L 0.0 60.0 L 0.0 61.0 L 0.0 62.0 L 0.0 63.0 L 0.0 64.0 L 0.0 65.0 L 0.0 66.0 L 0.0 67.0 L 0.0 68.0 L 0.0 69.0 L 0.0 70.0 L 0.0 71.0 L 0.0 72.0 L 0.0 73.0 L 0.0 74.0 L 0.0 75.0 L 0.0 76.0 L 0.0 77.0 L 0.0 78.0 L 0.0 79.0 L 0.0 80.0 L 0.0 81.0 L 0.0 82.0 L 0.0 83.0 L 0.0 84.0 L 0.0 85.0 L 0.0 86.0 L 0.0 87.0 L 0.0 88.0 L 0.0 89.0 L 0.0 90.0 L 0.0 91.0 L 0.0 92.0 L 0.0 93.0 L 0.0 94.0 L 0.0 95.0 L 0.0 96.0 L 0.0 97.0 L 0.0 98.0 L 0.0 99.0 L 0.0 100.0 L 0.0 101.0 L 0.0 102.0 L 0.0 103.0 L 0.0 104.0 L 0.0 105.0 L 0.0 106.0 L 0.0 107.0 L 0.0 108.0 L 0.0 109.0 L 0.0 110.0 L 0.0 111.0 L 0.0 112.0 L 0.0 113.0 L 0.0 114.0 L 0.0 115.0 L 0.0 116.0 L 0.0 117.0 L 0.0 118.0 L 0.0 119.0 L 0.0 120.0 L 0.0 121.0 L 0.0 122.0 L 0.0 123.0 L 0.0 124.0 L 0.0 125.0 L 0.0 126.0 L 0.0 127.0 L 0.3333333333333333 127.66666666666667 L 1.0 128.0 L 2.0 128.0 L 3.0 128.0 L 4.0 128.0 L 4.5 128.0 Z" stroke="none" fill="rgb(0,0,0)" />
<path d="M 54.5 58.0 L 55.0 57.666666666666664 L 56.0 57.333333333333336 L 57.0 56.666666666666664 L 58.0 56.333333333333336 L 59.0 56.333333333333336 L 60.0 56.666666666666664 L 61.0 57.0 L 62.0 57.333333333333336 L 63.0 57.666666666666664 L 64.0 58.0 L 65.0 58.0 L 66.0 58.0 L 67.0 58.0 L 68.0 58.0 L 69.0 58.0 L 70.0 58.0 L 71.0 58.0 L 72.0 58.0 L 73.0 58.0 L 74.0 58.0 L 75.0 58.0 L 76.0 58.0 L 77.0 58.0 L 78.0 58.0 L 79.0 58.0 L 80.0 58.0 L 81.0 58.0 L 82.0 58.0 L 83.0 58.0 L 84.0 57.666666666666664 L 85.0 57.333333333333336 L 86.0 57.0 L 87.0 56.666666666666664 L 88.0 56.333333333333336 L 89.0 56.0 L 90.0 55.666666666666664 L 91.0 55.333333333333336 L 92.0 55.0 L 93.0 54.666666666666664 L 94.0 54.333333333333336 L 95.0 53.666666666666664 L 96.0 53.333333333333336 L 97.0 52.666666666666664 L 98.0 52.333333333333336 L 99.0 51.666666666666664 L 100.0 51.333333333333336 L 101.0 50.666666666666664 L 102.0 50.0 L 103.0 49.333333333333336 L 104.0 48.666666666666664 L 105.0 48.666666666666664 L 105.66666666666667 49.0 L 106.0 50.0 L 106.0 51.0 L 105.66666666666667 52.0 L 105.0 53.0 L 104.0 54.0 L 103.0 55.0 L 102.0 56.0 L 101.33333333333333 57.0 L 101.0 58.0 L 101.33333333333333 59.0 L 102.0 59.666666666666664 L 103.0 60.0 L 104.0 60.0 L 105.0 60.0 L 106.0 60.0 L 107.0 60.0 L 108.0 60.333333333333336 L 109.0 60.666666666666664 L 110.0 61.0 L 111.0 61.0 L 112.0 61.0 L 113.0 61.0 L 114.0 61.0 L 115.0 61.0 L 116.0 61.0 L 117.0 60.666666666666664 L 118.0 60.333333333333336 L 119.0 60.0 L 120.0 59.666666666666664 L 121.0 59.333333333333336 L 122.0 58.666666666666664 L 123.0 58.333333333333336 L 124.0 58.0 L 124.66666666666667 57.666666666666664 L 125.0 57.0 L 125.0 56.0 L 124.66666666666667 55.0 L 124.33333333333333 54.0 L 123.66666666666667 53.0 L 123.0 52.0 L 122.33333333333333 51.0 L 121.66666666666667 50.333333333333336 L 121.0 49.666666666666664 L 120.0 49.0 L 119.0 48.0 L 118.0 47.333333333333336 L 117.0 47.0 L 116.0 46.666666666666664 L 115.0 46.333333333333336 L 114.0 46.0 L 113.0 46.0 L 112.0 45.666666666666664 L 111.0 45.333333333333336 L 110.0 44.666666666666664 L 109.33333333333333 44.0 L 109.0 43.0 L 109.0 42.0 L 109.0 41.0 L 109.0 40.0 L 109.0 39.0 L 109.0 38.0 L 109.0 37.0 L 108.66666666666667 36.0 L 108.33333333333333 35.0 L 108.0 34.0 L 108.0 33.0 L 108.0 32.0 L 107.66666666666667 31.0 L 107.33333333333333 30.0 L 107.0 29.0 L 106.66666666666667 28.0 L 106.33333333333333 27.0 L 106.0 26.0 L 105.66666666666667 25.0 L 105.33333333333333 24.0 L 104.66666666666667 23.0 L 104.33333333333333 22.0 L 103.66666666666667 21.0 L 103.0 20.0 L 102.33333333333333 19.0 L 101.66666666666667 18.0 L 101.0 17.0 L 100.0 16.0 L 99.0 15.0 L 98.0 14.0 L 97.0 13.0 L 96.0 12.0 L 95.0 11.333333333333334 L 94.0 10.666666666666666 L 93.0 10.333333333333334 L 92.0 9.666666666666666 L 91.0 9.333333333333334 L 90.0 8.666666666666666 L 89.0 8.333333333333334 L 88.0 8.0 L 87.0 7.666666666666667 L 86.0 7.333333333333333 L 85.0 7.0 L 84.0 7.0 L 83.0 6.666666666666667 L 82.0 6.333333333333333 L 81.0 6.0 L 80.0 6.0 L 79.0 6.0 L 78.0 6.0 L 77.0 6.0 L 76.0 6.0 L 75.0 6.0 L 74.0 6.0 L 73.0 6.0 L 72.0 6.0 L 71.0 6.0 L 70.0 6.0 L 69.0 6.333333333333333 L 68.0 6.666666666666667 L 67.0 7.0 L 66.0 7.0 L 65.0 7.333333333333333 L 64.0 7.666666666666667 L 63.0 8.333333333333334 L 62.0 8.666666666666666 L 61.0 9.333333333333334 L 60.0 9.666666666666666 L 59.0 10.333333333333334 L 58.0 11.0 L 57.0 12.0 L 56.0 13.0 L 55.0 14.0 L 54.0 15.0 L 53.333333333333336 16.0 L 52.666666666666664 17.0 L 52.0 18.0 L 51.333333333333336 19.0 L 50.666666666666664 20.0 L 50.333333333333336 21.0 L 49.666666666666664 22.0 L 49.333333333333336 23.0 L 49.0 24.0 L 48.666666666666664 25.0 L 48.333333333333336 26.0 L 47.666666666666664 27.0 L 47.0 27.333333333333332 L 46.0 27.333333333333332 L 45.0 27.0 L 44.0 27.0 L 43.0 27.0 L 42.0 27.333333333333332 L 41.0 27.666666666666668 L 40.0 28.0 L 39.0 28.0 L 38.0 28.0 L 37.0 28.333333333333332 L 36.0 28.666666666666668 L 35.0 29.333333333333332 L 34.0 29.666666666666668 L 33.0 30.333333333333332 L 32.0 31.0 L 31.0 32.0 L 30.0 33.0 L 29.0 34.0 L 28.0 35.0 L 27.333333333333332 36.0 L 26.666666666666668 37.0 L 26.333333333333332 38.0 L 25.666666666666668 39.0 L 25.333333333333332 40.0 L 25.0 41.0 L 25.0 42.0 L 25.0 43.0 L 24.666666666666668 44.0 L 24.0 45.0 L 23.0 45.666666666666664 L 22.0 46.0 L 21.0 46.0 L 20.0 46.0 L 19.0 46.0 L 18.0 46.0 L 17.0 46.0 L 16.0 46.333333333333336 L 15.0 46.666666666666664 L 14.0 47.0 L 13.0 47.333333333333336 L 12.0 47.666666666666664 L 11.0 48.333333333333336 L 10.0 49.0 L 9.0 49.666666666666664 L 8.333333333333334 50.333333333333336 L 7.666666666666667 51.0 L 7.0 52.0 L 6.333333333333333 53.0 L 5.666666666666667 54.0 L 5.333333333333333 55.0 L 5.0 56.0 L 5.0 57.0 L 5.333333333333333 58.0 L 6.0 58.666666666666664 L 7.0 59.0 L 8.0 59.333333333333336 L 9.0 59.666666666666664 L 10.0 60.0 L 11.0 60.0 L 12.0 60.0 L 13.0 60.0 L 14.0 60.0 L 15.0 60.0 L 16.0 60.0 L 17.0 60.0 L 18.0 60.0 L 19.0 60.0 L 20.0 60.0 L 21.0 60.0 L 22.0 60.0 L 23.0 60.0 L 24.0 60.0 L 25.0 60.0 L 26.0 59.666666666666664 L 27.0 59.333333333333336 L 28.0 59.0 L 29.0 58.666666666666664 L 30.0 58.666666666666664 L 31.0 58.666666666666664 L 32.0 59.0 L 33.0 59.333333333333336 L 34.0 59.666666666666664 L 35.0 60.0 L 36.0 60.0 L 37.0 60.0 L 38.0 60.0 L 39.0 60.0 L 40.0 60.0 L 41.0 60.0 L 42.0 60.0 L 43.0 60.0 L 44.0 60.0 L 45.0 60.0 L 46.0 60.0 L 47.0 60.0 L 48.0 60.0 L 49.0 60.0 L 50.0 59.666666666666664 L 51.0 59.333333333333336 L 52.0 58.666666666666664 L 53.0 58.333333333333336 L 53.5 58.0 Z" stroke="none" fill="rgb(228,234,238)" />
<path d="M 103.5 73.0 L 104.0 73.0 L 105.0 73.0 L 106.0 73.0 L 107.0 73.0 L 108.0 73.0 L 109.0 73.0 L 110.0 73.0 L 111.0 73.0 L 112.0 73.0 L 113.0 72.66666666666667 L 114.0 72.33333333333333 L 115.0 72.0 L 116.0 72.0 L 117.0 72.0 L 118.0 72.0 L 119.0 72.0 L 120.0 71.66666666666667 L 121.0 71.33333333333333 L 122.0 70.66666666666667 L 123.0 70.0 L 123.66666666666667 69.0 L 124.33333333333333 68.0 L 124.66666666666667 67.0 L 125.0 66.0 L 125.0 65.0 L 125.0 64.0 L 125.0 63.0 L 125.0 62.0 L 125.0 61.0 L 125.0 60.0 L 125.0 59.0 L 124.66666666666667 58.333333333333336 L 124.0 58.0 L 123.0 58.0 L 122.0 58.333333333333336 L 121.0 58.666666666666664 L 120.0 59.333333333333336 L 119.0 59.666666666666664 L 118.0 60.0 L 117.0 60.333333333333336 L 116.0 60.666666666666664 L 115.0 61.0 L 114.0 61.0 L 113.0 61.0 L 112.0 61.0 L 111.0 61.0 L 110.0 60.666666666666664 L 109.0 60.333333333333336 L 108.0 60.0 L 107.0 60.0 L 106.0 60.0 L 105.0 60.0 L 104.0 60.0 L 103.0 59.666666666666664 L 102.0 59.0 L 101.66666666666667 58.0 L 102.0 57.0 L 103.0 56.0 L 104.0 55.0 L 105.0 54.0 L 105.66666666666667 53.0 L 106.0 52.0 L 106.0 51.0 L 106.0 50.0 L 106.0 49.0 L 105.66666666666667 48.333333333333336 L 105.0 48.0 L 104.0 48.333333333333336 L 103.0 48.666666666666664 L 102.0 49.333333333333336 L 101.0 50.0 L 100.0 50.666666666666664 L 99.0 51.333333333333336 L 98.0 51.666666666666664 L 97.0 52.333333333333336 L 96.0 52.666666666666664 L 95.0 53.333333333333336 L 94.0 53.666666666666664 L 93.0 54.333333333333336 L 92.0 54.666666666666664 L 91.0 55.0 L 90.0 55.333333333333336 L 89.0 55.666666666666664 L 88.0 56.0 L 87.0 56.333333333333336 L 86.0 56.666666666666664 L 85.0 57.0 L 84.0 57.333333333333336 L 83.0 57.666666666666664 L 82.0 58.0 L 81.0 58.0 L 80.0 58.0 L 79.0 58.0 L 78.0 58.0 L 77.0 58.0 L 76.0 58.0 L 75.0 58.0 L 74.0 58.0 L 73.0 58.0 L 72.0 58.0 L 71.0 58.0 L 70.0 58.0 L 69.0 58.0 L 68.0 58.0 L 67.0 58.0 L 66.0 58.0 L 65.0 58.0 L 64.0 57.666666666666664 L 63.0 57.333333333333336 L 62.0 57.0 L 61.0 56.666666666666664 L 60.0 56.333333333333336 L 59.0 56.0 L 58.0 56.0 L 57.0 56.333333333333336 L 56.0 56.666666666666664 L 55.0 57.333333333333336 L 54.0 57.666666666666664 L 53.0 58.0 L 52.0 58.333333333333336 L 51.0 58.666666666666664 L 50.0 59.333333333333336 L 49.0 59.666666666666664 L 48.0 60.0 L 47.0 60.0 L 46.0 60.0 L 45.0 60.0 L 44.0 60.0 L 43.0 60.0 L 42.0 60.0 L 41.0 60.0 L 40.0 60.0 L 39.0 60.0 L 38.0 60.0 L 37.0 60.0 L 36.0 60.0 L 35.0 59.666666666666664 L 34.0 59.333333333333336 L 33.0 59.0 L 32.0 58.666666666666664 L 31.0 58.333333333333336 L 30.0 58.0 L 29.0 58.333333333333336 L 28.0 58.666666666666664 L 27.0 59.0 L 26.0 59.333333333333336 L 25.0 59.666666666666664 L 24.0 60.0 L 23.0 60.0 L 22.0 60.0 L 21.0 60.0 L 20.0 60.0 L 19.0 60.0 L 18.0 60.0 L 17.0 60.0 L 16.0 60.0 L 15.0 60.0 L 14.0 60.0 L 13.0 60.0 L 12.0 60.0 L 11.0 60.0 L 10.0 59.666666666666664 L 9.0 59.333333333333336 L 8.0 59.0 L 7.0 58.666666666666664 L 6.0 58.333333333333336 L 5.0 58.333333333333336 L 4.333333333333333 59.0 L 4.0 60.0 L 4.0 61.0 L 4.0 62.0 L 4.0 63.0 L 4.333333333333333 64.0 L 4.666666666666667 65.0 L 5.0 66.0 L 5.333333333333333 67.0 L 5.666666666666667 68.0 L 6.333333333333333 69.0 L 7.0 70.0 L 8.0 70.66666666666667 L 9.0 71.33333333333333 L 10.0 71.66666666666667 L 11.0 72.33333333333333 L 12.0 72.66666666666667 L 13.0 73.0 L 14.0 73.0 L 15.0 73.0 L 16.0 73.0 L 17.0 73.0 L 18.0 73.0 L 19.0 73.0 L 20.0 73.0 L 21.0 73.0 L 22.0 73.0 L 23.0 73.33333333333333 L 24.0 73.66666666666667 L 25.0 74.0 L 26.0 74.0 L 27.0 74.0 L 28.0 74.0 L 29.0 74.0 L 30.0 74.0 L 31.0 74.0 L 32.0 74.0 L 33.0 74.0 L 34.0 74.0 L 35.0 74.0 L 36.0 74.0 L 37.0 74.0 L 38.0 74.0 L 39.0 74.0 L 40.0 74.0 L 41.0 74.0 L 42.0 74.0 L 43.0 74.0 L 44.0 74.0 L 45.0 74.0 L 46.0 74.0 L 47.0 74.0 L 48.0 74.0 L 49.0 74.0 L 50.0 74.0 L 51.0 74.0 L 52.0 74.0 L 53.0 74.0 L 54.0 74.0 L 55.0 74.0 L 56.0 74.0 L 57.0 74.0 L 58.0 74.0 L 59.0 74.0 L 60.0 74.0 L 61.0 74.0 L 62.0 74.0 L 63.0 74.0 L 64.0 74.0 L 65.0 74.0 L 66.0 74.0 L 67.0 74.0 L 68.0 74.0 L 69.0 74.0 L 70.0 74.0 L 71.0 74.0 L 72.0 74.0 L 73.0 74.0 L 74.0 74.0 L 75.0 74.0 L 76.0 74.0 L 77.0 74.0 L 78.0 74.0 L 79.0 74.0 L 80.0 74.0 L 81.0 73.66666666666667 L 82.0 73.33333333333333 L 83.0 73.0 L 84.0 73.0 L 85.0 73.0 L 86.0 73.0 L 87.0 73.0 L 88.0 73.0 L 89.0 73.0 L 90.0 73.0 L 91.0 73.0 L 92.0 73.0 L 93.0 73.0 L 94.0 73.0 L 95.0 73.0 L 96.0 73.0 L 97.0 73.0 L 98.0 73.0 L 99.0 73.0 L 100.0 73.0 L 101.0 73.0 L 102.0 73.0 L 102.5 73.0 Z" stroke="none" fill="rgb(185,206,210)" />
<path d="M 81.5 120.0 L 82.0 120.0 L 83.0 120.0 L 84.0 119.66666666666667 L 85.0 119.0 L 85.66666666666667 118.0 L 86.33333333333333 117.0 L 87.0 116.66666666666667 L 87.66666666666667 117.0 L 88.33333333333333 118.0 L 89.0 119.0 L 90.0 119.66666666666667 L 91.0 120.0 L 92.0 120.0 L 93.0 120.0 L 93.66666666666667 119.66666666666667 L 94.0 119.0 L 94.0 118.0 L 94.0 117.0 L 94.0 116.0 L 93.66666666666667 115.0 L 93.66666666666667 114.0 L 94.0 113.0 L 95.0 112.33333333333333 L 96.0 112.0 L 97.0 112.0 L 98.0 111.66666666666667 L 98.66666666666667 111.0 L 99.0 110.0 L 99.0 109.0 L 98.66666666666667 108.0 L 98.0 107.33333333333333 L 97.0 107.0 L 96.0 107.0 L 95.0 107.0 L 94.0 106.66666666666667 L 93.33333333333333 106.0 L 93.33333333333333 105.0 L 93.66666666666667 104.0 L 94.0 103.0 L 94.0 102.0 L 94.0 101.0 L 93.66666666666667 100.0 L 93.0 99.33333333333333 L 92.0 99.0 L 91.0 99.0 L 90.0 99.33333333333333 L 89.33333333333333 100.0 L 88.66666666666667 101.0 L 88.0 102.0 L 87.0 102.33333333333333 L 86.0 102.0 L 85.0 101.0 L 84.0 100.0 L 83.0 99.33333333333333 L 82.0 99.0 L 81.0 99.0 L 80.33333333333333 99.33333333333333 L 79.66666666666667 100.0 L 79.33333333333333 101.0 L 79.33333333333333 102.0 L 79.66666666666667 103.0 L 80.0 104.0 L 80.33333333333333 105.0 L 80.33333333333333 106.0 L 80.0 106.66666666666667 L 79.0 107.0 L 78.0 107.0 L 77.0 107.0 L 76.0 107.33333333333333 L 75.33333333333333 108.0 L 75.0 109.0 L 75.0 110.0 L 75.0 111.0 L 75.33333333333333 111.66666666666667 L 76.0 112.33333333333333 L 77.0 112.66666666666667 L 78.0 113.0 L 79.0 113.0 L 80.0 113.33333333333333 L 80.66666666666667 114.0 L 80.66666666666667 115.0 L 80.33333333333333 116.0 L 80.0 117.0 L 80.0 118.0 L 80.0 119.0 L 80.33333333333333 119.66666666666667 L 80.5 120.0 Z" stroke="none" fill="rgb(146,201,244)" />
<path d="M 21.5 97.0 L 22.0 97.0 L 23.0 97.0 L 24.0 96.66666666666667 L 24.666666666666668 96.0 L 25.333333333333332 95.0 L 26.0 94.33333333333333 L 27.0 94.33333333333333 L 27.666666666666668 95.0 L 28.333333333333332 96.0 L 29.0 96.66666666666667 L 30.0 97.0 L 31.0 97.0 L 32.0 97.0 L 33.0 97.0 L 33.666666666666664 96.66666666666667 L 34.0 96.0 L 34.0 95.0 L 34.0 94.0 L 33.666666666666664 93.0 L 33.333333333333336 92.0 L 33.333333333333336 91.0 L 34.0 90.33333333333333 L 35.0 90.0 L 36.0 90.0 L 37.0 89.66666666666667 L 37.666666666666664 89.0 L 38.0 88.0 L 38.0 87.0 L 38.0 86.0 L 37.666666666666664 85.0 L 37.0 84.33333333333333 L 36.0 84.0 L 35.0 84.0 L 34.0 84.0 L 33.0 83.66666666666667 L 32.666666666666664 83.0 L 33.0 82.0 L 33.666666666666664 81.0 L 34.0 80.0 L 34.0 79.0 L 34.0 78.0 L 33.666666666666664 77.0 L 33.0 76.33333333333333 L 32.0 76.0 L 31.0 76.0 L 30.0 76.33333333333333 L 29.0 77.0 L 28.333333333333332 78.0 L 27.666666666666668 79.0 L 27.0 79.33333333333333 L 26.0 79.0 L 25.0 78.0 L 24.0 77.0 L 23.0 76.33333333333333 L 22.0 76.0 L 21.0 76.0 L 20.0 76.33333333333333 L 19.333333333333332 77.0 L 19.0 78.0 L 19.0 79.0 L 19.333333333333332 80.0 L 19.666666666666668 81.0 L 20.333333333333332 82.0 L 20.333333333333332 83.0 L 20.0 83.66666666666667 L 19.0 84.0 L 18.0 84.0 L 17.0 84.0 L 16.0 84.33333333333333 L 15.333333333333334 85.0 L 15.0 86.0 L 15.0 87.0 L 15.0 88.0 L 15.333333333333334 88.66666666666667 L 16.0 89.0 L 17.0 89.0 L 18.0 89.0 L 19.0 89.33333333333333 L 20.0 90.0 L 20.333333333333332 91.0 L 20.333333333333332 92.0 L 19.666666666666668 93.0 L 19.333333333333332 94.0 L 19.0 95.0 L 19.333333333333332 96.0 L 20.0 96.66666666666667 L 20.5 97.0 Z" stroke="none" fill="rgb(146,201,244)" />
<path d="M 61.5 100.0 L 62.0 99.66666666666667 L 63.0 99.0 L 64.0 98.0 L 65.0 97.66666666666667 L 66.0 98.0 L 67.0 99.0 L 68.0 99.66666666666667 L 69.0 100.0 L 70.0 100.0 L 71.0 100.0 L 71.66666666666667 99.66666666666667 L 72.0 99.0 L 72.0 98.0 L 72.0 97.0 L 72.0 96.0 L 71.66666666666667 95.0 L 71.66666666666667 94.0 L 72.0 93.33333333333333 L 73.0 93.0 L 74.0 93.0 L 75.0 92.66666666666667 L 76.0 92.33333333333333 L 76.66666666666667 91.66666666666667 L 77.0 91.0 L 77.0 90.0 L 77.0 89.0 L 76.66666666666667 88.0 L 76.0 87.33333333333333 L 75.0 87.0 L 74.0 87.0 L 73.0 87.0 L 72.0 86.66666666666667 L 71.33333333333333 86.0 L 71.33333333333333 85.0 L 71.66666666666667 84.0 L 72.0 83.0 L 72.0 82.0 L 72.0 81.0 L 71.66666666666667 80.0 L 71.0 79.33333333333333 L 70.0 79.0 L 69.0 79.0 L 68.0 79.33333333333333 L 67.33333333333333 80.0 L 66.66666666666667 81.0 L 66.0 82.0 L 65.0 82.33333333333333 L 64.0 82.0 L 63.0 81.0 L 62.0 80.0 L 61.0 79.33333333333333 L 60.0 79.0 L 59.0 79.33333333333333 L 58.333333333333336 80.0 L 58.0 81.0 L 58.0 82.0 L 58.0 83.0 L 58.333333333333336 84.0 L 58.666666666666664 85.0 L 58.666666666666664 86.0 L 58.0 86.66666666666667 L 57.0 87.0 L 56.0 87.0 L 55.0 87.33333333333333 L 54.0 87.66666666666667 L 53.333333333333336 88.33333333333333 L 53.0 89.0 L 53.0 90.0 L 53.0 91.0 L 53.333333333333336 91.66666666666667 L 54.0 92.33333333333333 L 55.0 92.66666666666667 L 56.0 93.0 L 57.0 93.0 L 58.0 93.33333333333333 L 58.666666666666664 94.0 L 58.666666666666664 95.0 L 58.333333333333336 96.0 L 58.0 97.0 L 58.0 98.0 L 58.0 99.0 L 58.333333333333336 99.66666666666667 L 59.0 100.0 L 60.0 100.0 L 60.5 100.0 Z" stroke="none" fill="rgb(146,201,244)" />
<path d="M 51.0 119.5 L 51.0 119.0 L 51.0 118.0 L 51.0 117.0 L 51.0 116.0 L 50.666666666666664 115.0 L 50.666666666666664 114.0 L 51.0 113.33333333333333 L 52.0 113.0 L 53.0 113.0 L 54.0 113.0 L 55.0 112.66666666666667 L 55.666666666666664 112.0 L 56.0 111.0 L 56.0 110.0 L 56.0 109.0 L 55.666666666666664 108.33333333333333 L 55.0 107.66666666666667 L 54.0 107.33333333333333 L 53.0 107.0 L 52.0 107.0 L 51.0 106.66666666666667 L 50.333333333333336 106.0 L 50.333333333333336 105.0 L 50.666666666666664 104.0 L 51.0 103.0 L 51.0 102.0 L 51.0 101.0 L 50.666666666666664 100.0 L 50.0 99.33333333333333 L 49.0 99.0 L 48.0 99.33333333333333 L 47.0 100.0 L 46.0 101.0 L 45.0 102.0 L 44.0 102.33333333333333 L 43.0 102.0 L 42.0 101.0 L 41.0 100.33333333333333 L 40.0 100.0 L 39.0 100.0 L 38.0 100.0 L 37.333333333333336 100.33333333333333 L 37.0 101.0 L 37.0 102.0 L 37.0 103.0 L 37.0 104.0 L 37.333333333333336 105.0 L 38.0 106.0 L 38.333333333333336 107.0 L 38.0 107.66666666666667 L 37.0 108.0 L 36.0 108.0 L 35.0 108.0 L 34.0 108.0 L 33.0 108.0 L 32.333333333333336 108.33333333333333 L 32.0 109.0 L 32.0 110.0 L 32.0 111.0 L 32.333333333333336 112.0 L 33.0 112.66666666666667 L 34.0 113.0 L 35.0 113.0 L 36.0 113.0 L 37.0 113.33333333333333 L 37.666666666666664 114.0 L 37.666666666666664 115.0 L 37.333333333333336 116.0 L 37.0 117.0 L 37.0 118.0 L 37.0 119.0 L 37.333333333333336 120.0 L 38.0 120.66666666666667 L 39.0 121.0 L 40.0 120.66666666666667 L 41.0 120.0 L 42.0 119.0 L 43.0 118.0 L 44.0 117.66666666666667 L 45.0 118.0 L 45.666666666666664 119.0 L 46.333333333333336 119.66666666666667 L 47.0 120.33333333333333 L 48.0 120.66666666666667 L 49.0 121.0 L 50.0 120.66666666666667 L 50.5 120.5 Z" stroke="none" fill="rgb(146,201,244)" />
<path d="M 101.5 95.5 L 102.0 95.0 L 103.0 94.0 L 104.0 93.66666666666667 L 105.0 94.0 L 105.66666666666667 95.0 L 106.33333333333333 96.0 L 107.0 96.66666666666667 L 108.0 97.0 L 109.0 97.0 L 110.0 96.66666666666667 L 110.66666666666667 96.0 L 111.0 95.0 L 111.0 94.0 L 111.0 93.0 L 110.66666666666667 92.0 L 110.33333333333333 91.0 L 110.33333333333333 90.0 L 111.0 89.33333333333333 L 112.0 89.0 L 113.0 89.0 L 114.0 89.0 L 115.0 88.66666666666667 L 115.66666666666667 88.0 L 116.0 87.0 L 116.0 86.0 L 115.66666666666667 85.0 L 115.0 84.0 L 114.0 83.33333333333333 L 113.0 83.0 L 112.0 83.0 L 111.0 82.66666666666667 L 110.33333333333333 82.0 L 110.33333333333333 81.0 L 110.66666666666667 80.0 L 111.0 79.0 L 111.0 78.0 L 111.0 77.0 L 110.66666666666667 76.33333333333333 L 110.0 76.0 L 109.0 76.0 L 108.0 76.0 L 107.0 76.33333333333333 L 106.0 77.0 L 105.33333333333333 78.0 L 104.66666666666667 79.0 L 104.0 79.33333333333333 L 103.33333333333333 79.0 L 102.66666666666667 78.0 L 102.0 77.0 L 101.0 76.33333333333333 L 100.0 76.0 L 99.0 76.0 L 98.0 76.0 L 97.0 76.33333333333333 L 96.33333333333333 77.0 L 96.0 78.0 L 96.33333333333333 79.0 L 96.66666666666667 80.0 L 97.33333333333333 81.0 L 98.0 82.0 L 98.33333333333333 83.0 L 98.0 83.66666666666667 L 97.0 84.0 L 96.0 84.0 L 95.0 84.0 L 94.0 84.0 L 93.0 84.0 L 92.33333333333333 84.33333333333333 L 92.0 85.0 L 92.0 86.0 L 92.0 87.0 L 92.33333333333333 88.0 L 93.0 88.66666666666667 L 94.0 89.0 L 95.0 89.0 L 96.0 89.0 L 97.0 89.33333333333333 L 97.66666666666667 90.0 L 97.66666666666667 91.0 L 97.33333333333333 92.0 L 97.0 93.0 L 97.0 94.0 L 97.0 95.0 L 97.0 96.0 L 97.33333333333333 96.66666666666667 L 98.0 97.0 L 99.0 97.0 L 100.0 96.66666666666667 L 100.5 96.5 Z" stroke="none" fill="rgb(146,201,244)" />
</svg>
