<?xml version="1.0" encoding="UTF-8" standalone="no"?>
<!DOCTYPE svg PUBLIC "-//W3C//DTD SVG 1.1//EN"
"http://www.w3.org/Graphics/SVG/1.1/DTD/svg11.dtd">
<svg width="128" height="128" xmlns="http://www.w3.org/2000/svg" version="1.1">
<path d="M 26.5 128.0 L 27.0 128.0 L 28.0 128.0 L 29.0 128.0 L 30.0 128.0 L 31.0 128.0 L 32.0 128.0 L 33.0 128.0 L 34.0 128.0 L 35.0 128.0 L 36.0 128.0 L 37.0 128.0 L 38.0 128.0 L 39.0 128.0 L 40.0 128.0 L 41.0 128.0 L 42.0 128.0 L 43.0 128.0 L 44.0 128.0 L 45.0 128.0 L 46.0 128.0 L 47.0 128.0 L 48.0 128.0 L 49.0 128.0 L 50.0 128.0 L 51.0 128.0 L 52.0 128.0 L 53.0 128.0 L 54.0 128.0 L 55.0 128.0 L 56.0 128.0 L 57.0 128.0 L 58.0 128.0 L 59.0 128.0 L 60.0 128.0 L 61.0 128.0 L 62.0 128.0 L 63.0 128.0 L 64.0 128.0 L 65.0 128.0 L 66.0 128.0 L 67.0 128.0 L 68.0 128.0 L 69.0 128.0 L 70.0 128.0 L 71.0 128.0 L 72.0 128.0 L 73.0 128.0 L 74.0 128.0 L 75.0 128.0 L 76.0 128.0 L 77.0 128.0 L 78.0 128.0 L 79.0 128.0 L 80.0 128.0 L 81.0 128.0 L 82.0 128.0 L 83.0 128.0 L 84.0 128.0 L 85.0 128.0 L 86.0 128.0 L 87.0 128.0 L 88.0 128.0 L 89.0 128.0 L 90.0 128.0 L 91.0 128.0 L 92.0 128.0 L 93.0 128.0 L 94.0 128.0 L 95.0 128.0 L 96.0 128.0 L 97.0 128.0 L 98.0 128.0 L 99.0 128.0 L 100.0 128.0 L 101.0 128.0 L 102.0 128.0 L 103.0 128.0 L 104.0 128.0 L 105.0 128.0 L 106.0 128.0 L 107.0 128.0 L 108.0 128.0 L 109.0 128.0 L 110.0 128.0 L 111.0 128.0 L 112.0 128.0 L 113.0 128.0 L 114.0 128.0 L 115.0 128.0 L 116.0 128.0 L 117.0 128.0 L 118.0 128.0 L 119.0 128.0 L 120.0 128.0 L 121.0 128.0 L 122.0 128.0 L 123.0 128.0 L 124.0 128.0 L 125.0 128.0 L 126.0 128.0 L 127.0 128.0 L 127.66666666666667 127.66666666666667 L 128.0 127.0 L 128.0 126.0 L 128.0 125.0 L 128.0 124.0 L 128.0 123.0 L 128.0 122.0 L 128.0 121.0 L 128.0 120.0 L 128.0 119.0 L 128.0 118.0 L 128.0 117.0 L 128.0 116.0 L 128.0 115.0 L 128.0 114.0 L 128.0 113.0 L 128.0 112.0 L 128.0 111.0 L 128.0 110.0 L 128.0 109.0 L 128.0 108.0 L 128.0 107.0 L 128.0 106.0 L 128.0 105.0 L 128.0 104.0 L 128.0 103.0 L 128.0 102.0 L 128.0 101.0 L 128.0 100.0 L 128.0 99.0 L 128.0 98.0 L 128.0 97.0 L 128.0 96.0 L 128.0 95.0 L 128.0 94.0 L 128.0 93.0 L 128.0 92.0 L 128.0 91.0 L 128.0 90.0 L 128.0 89.0 L 128.0 88.0 L 128.0 87.0 L 128.0 86.0 L 128.0 85.0 L 128.0 84.0 L 128.0 83.0 L 128.0 82.0 L 128.0 81.0 L 128.0 80.0 L 128.0 79.0 L 128.0 78.0 L 128.0 77.0 L 128.0 76.0 L 128.0 75.0 L 128.0 74.0 L 128.0 73.0 L 128.0 72.0 L 128.0 71.0 L 128.0 70.0 L 128.0 69.0 L 128.0 68.0 L 128.0 67.0 L 128.0 66.0 L 128.0 65.0 L 128.0 64.0 L 128.0 63.0 L 128.0 62.0 L 128.0 61.0 L 128.0 60.0 L 128.0 59.0 L 128.0 58.0 L 128.0 57.0 L 128.0 56.0 L 128.0 55.0 L 128.0 54.0 L 128.0 53.0 L 128.0 52.0 L 128.0 51.0 L 128.0 50.0 L 128.0 49.0 L 128.0 48.0 L 128.0 47.0 L 128.0 46.0 L 128.0 45.0 L 128.0 44.0 L 128.0 43.0 L 128.0 42.0 L 128.0 41.0 L 128.0 40.0 L 128.0 39.0 L 128.0 38.0 L 128.0 37.0 L 128.0 36.0 L 128.0 35.0 L 128.0 34.0 L 128.0 33.0 L 128.0 32.0 L 128.0 31.0 L 128.0 30.0 L 128.0 29.0 L 128.0 28.0 L 128.0 27.0 L 128.0 26.0 L 128.0 25.0 L 128.0 24.0 L 128.0 23.0 L 128.0 22.0 L 128.0 21.0 L 128.0 20.0 L 128.0 19.0 L 128.0 18.0 L 128.0 17.0 L 128.0 16.0 L 128.0 15.0 L 128.0 14.0 L 128.0 13.0 L 128.0 12.0 L 128.0 11.0 L 128.0 10.0 L 128.0 9.0 L 128.0 8.0 L 128.0 7.0 L 128.0 6.0 L 128.0 5.0 L 128.0 4.0 L 128.0 3.0 L 128.0 2.0 L 128.0 1.0 L 127.66666666666667 0.3333333333333333 L 127.0 0.0 L 126.0 0.0 L 125.0 0.0 L 124.0 0.0 L 123.0 0.0 L 122.0 0.0 L 121.0 0.0 L 120.0 0.0 L 119.0 0.0 L 118.0 0.0 L 117.0 0.0 L 116.0 0.0 L 115.0 0.0 L 114.0 0.0 L 113.0 0.0 L 112.0 0.0 L 111.0 0.0 L 110.0 0.0 L 109.0 0.0 L 108.0 0.0 L 107.0 0.0 L 106.0 0.0 L 105.0 0.0 L 104.0 0.0 L 103.0 0.0 L 102.0 0.0 L 101.0 0.0 L 100.0 0.0 L 99.0 0.0 L 98.0 0.0 L 97.0 0.0 L 96.0 0.0 L 95.0 0.0 L 94.0 0.0 L 93.0 0.0 L 92.0 0.0 L 91.0 0.0 L 90.0 0.0 L 89.0 0.0 L 88.0 0.0 L 87.0 0.0 L 86.0 0.0 L 85.0 0.0 L 84.0 0.0 L 83.0 0.0 L 82.0 0.0 L 81.0 0.0 L 80.0 0.0 L 79.0 0.0 L 78.0 0.0 L 77.0 0.0 L 76.0 0.0 L 75.0 0.0 L 74.0 0.0 L 73.0 0.0 L 72.0 0.0 L 71.0 0.0 L 70.0 0.0 L 69.0 0.0 L 68.0 0.0 L 67.0 0.0 L 66.0 0.0 L 65.0 0.0 L 64.0 0.0 L 63.0 0.0 L 62.0 0.0 L 61.0 0.0 L 60.0 0.0 L 59.0 0.0 L 58.0 0.0 L 57.0 0.0 L 56.0 0.0 L 55.0 0.0 L 54.0 0.0 L 53.0 0.0 L 52.0 0.0 L 51.0 0.0 L 50.0 0.0 L 49.0 0.0 L 48.0 0.0 L 47.0 0.0 L 46.0 0.0 L 45.0 0.0 L 44.0 0.0 L 43.0 0.0 L 42.0 0.0 L 41.0 0.0 L 40.0 0.0 L 39.0 0.0 L 38.0 0.0 L 37.0 0.0 L 36.0 0.0 L 35.0 0.0 L 34.0 0.0 L 33.0 0.0 L 32.0 0.0 L 31.0 0.0 L 30.0 0.0 L 29.0 0.0 L 28.0 0.0 L 27.0 0.0 L 26.0 0.0 L 25.0 0.0 L 24.0 0.0 L 23.0 0.0 L 22.0 0.0 L 21.0 0.0 L 20.0 0.0 L 19.0 0.0 L 18.0 0.0 L 17.0 0.0 L 16.0 0.0 L 15.0 0.0 L 14.0 0.0 L 13.0 0.0 L 12.0 0.0 L 11.0 0.0 L 10.0 0.0 L 9.0 0.0 L 8.0 0.0 L 7.0 0.0 L 6.0 0.0 L 5.0 0.0 L 4.0 0.0 L 3.0 0.0 L 2.0 0.0 L 1.0 0.0 L 0.3333333333333333 0.3333333333333333 L 0.0 1.0 L 0.0 2.0 L 0.0 3.0 L 0.0 4.0 L 0.0 5.0 L 0.0 6.0 L 0.0 7.0 L 0.0 8.0 L 0.0 9.0 L 0.0 10.0 L 0.0 11.0 L 0.0 12.0 L 0.0 13.0 L 0.0 14.0 L 0.0 15.0 L 0.0 16.0 L 0.0 17.0 L 0.0 18.0 L 0.0 19.0 L 0.0 20.0 L 0.0 21.0 L 0.0 22.0 L 0.0 23.0 L 0.0 24.0 L 0.0 25.0 L 0.0 26.0 L 0.0 27.0 L 0.0 28.0 L 0.0 29.0 L 0.0 30.0 L 0.0 31.0 L 0.0 32.0 L 0.0 33.0 L 0.0 34.0 L 0.0 35.0 L 0.0 36.0 L 0.0 37.0 L 0.0 38.0 L 0.0 39.0 L 0.0 40.0 L 0.0 41.0 L 0.0 42.0 L 0.0 43.0 L 0.0 44.0 L 0.0 45.0 L 0.0 46.0 L 0.0 47.0 L 0.0 48.0 L 0.0 49.0 L 0.0 50.0 L 0.0 51.0 L 0.0 52.0 L 0.0 53.0 L 0.0 54.0 L 0.0 55.0 L 0.0 56.0 L 0.0 57.0 L 0.0 58.0 L 0.0 59.0 L 0.0 60.0 L 0.0 61.0 L 0.0 62.0 L 0.0 63.0 L 0.0 64.0 L 0.0 65.0 L 0.0 66.0 L 0.0 67.0 L 0.0 68.0 L 0.0 69.0 L 0.0 70.0 L 0.0 71.0 L 0.0 72.0 L 0.0 73.0 L 0.0 74.0 L 0.0 75.0 L 0.0 76.0 L 0.0 77.0 L 0.0 78.0 L 0.0 79.0 L 0.0 80.0 L 0.0 81.0 L 0.0 82.0 L 0.0 83.0 L 0.0 84.0 L 0.0 85.0 L 0.0 86.0 L 0.0 87.0 L 0.0 88.0 L 0.0 89.0 L 0.0 90.0 L 0.0 91.0 L 0.0 92.0 L 0.0 93.0 L 0.0 94.0 L 0.0 95.0 L 0.0 96.0 L 0.0 97.0 L 0.0 98.0 L 0.0 99.0 L 0.0 100.0 L 0.0 101.0 L 0.0 102.0 L 0.0 103.0 L 0.0 104.0 L 0.0 105.0 L 0.0 106.0 L 0.0 107.0 L 0.0 108.0 L 0.0 109.0 L 0.0 110.0 L 0.0 111.0 L 0.0 112.0 L 0.0 113.0 L 0.0 114.0 L 0.0 115.0 L 0.0 116.0 L 0.0 117.0 L 0.0 118.0 L 0.0 119.0 L 0.0 120.0 L 0.0 121.0 L 0.0 122.0 L 0.0 123.0 L 0.0 124.0 L 0.0 125.0 L 0.0 126.0 L 0.0 127.0 L 0.3333333333333333 127.66666666666667 L 1.0 128.0 L 2.0 128.0 L 3.0 128.0 L 4.0 128.0 L 5.0 128.0 L 6.0 128.0 L 7.0 128.0 L 8.0 128.0 L 9.0 128.0 L 10.0 128.0 L 11.0 128.0 L 12.0 128.0 L 13.0 128.0 L 14.0 128.0 L 15.0 128.0 L 16.0 128.0 L 17.0 128.0 L 18.0 128.0 L 19.0 128.0 L 20.0 128.0 L 21.0 128.0 L 22.0 128.0 L 23.0 128.0 L 24.0 128.0 L 25.0 128.0 L 25.5 128.0 Z" stroke="none" fill="rgb(0,0,0)" />
<path d="M 88.5 28.5 L 89.0 28.666666666666668 L 90.0 29.333333333333332 L 91.0 29.666666666666668 L 92.0 30.333333333333332 L 93.0 30.666666666666668 L 94.0 31.333333333333332 L 95.0 31.666666666666668 L 96.0 32.333333333333336 L 97.0 32.666666666666664 L 98.0 33.333333333333336 L 99.0 33.666666666666664 L 100.0 34.333333333333336 L 101.0 34.666666666666664 L 102.0 35.333333333333336 L 103.0 35.666666666666664 L 104.0 36.333333333333336 L 105.0 36.666666666666664 L 106.0 37.333333333333336 L 107.0 37.666666666666664 L 108.0 38.333333333333336 L 109.0 38.666666666666664 L 110.0 39.333333333333336 L 111.0 39.666666666666664 L 112.0 40.0 L 113.0 40.0 L 114.0 40.0 L 115.0 40.0 L 116.0 40.333333333333336 L 117.0 40.666666666666664 L 118.0 41.0 L 119.0 41.333333333333336 L 120.0 42.0 L 121.0 42.666666666666664 L 121.66666666666667 42.666666666666664 L 122.0 42.0 L 121.66666666666667 41.0 L 121.0 40.0 L 120.0 39.333333333333336 L 119.0 38.666666666666664 L 118.0 38.333333333333336 L 117.0 37.666666666666664 L 116.0 37.333333333333336 L 115.0 36.666666666666664 L 114.0 36.333333333333336 L 113.0 35.666666666666664 L 112.0 35.0 L 111.0 34.333333333333336 L 110.0 33.666666666666664 L 109.0 33.333333333333336 L 108.0 32.666666666666664 L 107.0 32.333333333333336 L 106.0 31.666666666666668 L 105.0 31.333333333333332 L 104.0 30.666666666666668 L 103.0 30.333333333333332 L 102.0 29.666666666666668 L 101.0 29.333333333333332 L 100.0 28.666666666666668 L 99.0 28.333333333333332 L 98.0 27.666666666666668 L 97.0 27.333333333333332 L 96.0 26.666666666666668 L 95.0 26.333333333333332 L 94.0 25.666666666666668 L 93.0 25.333333333333332 L 92.0 24.666666666666668 L 91.0 24.333333333333332 L 90.0 23.666666666666668 L 89.0 23.333333333333332 L 88.0 22.666666666666668 L 87.0 22.333333333333332 L 86.0 21.666666666666668 L 85.0 21.333333333333332 L 84.0 20.666666666666668 L 83.0 20.333333333333332 L 82.0 19.666666666666668 L 81.0 19.333333333333332 L 80.0 18.666666666666668 L 79.0 18.333333333333332 L 78.0 17.666666666666668 L 77.0 17.333333333333332 L 76.0 16.666666666666668 L 75.0 16.333333333333332 L 74.0 15.666666666666666 L 73.0 15.333333333333334 L 72.0 14.666666666666666 L 71.0 14.333333333333334 L 70.0 13.666666666666666 L 69.0 13.333333333333334 L 68.0 12.666666666666666 L 67.0 12.333333333333334 L 66.0 11.666666666666666 L 65.0 11.333333333333334 L 64.0 10.666666666666666 L 63.0 10.333333333333334 L 62.0 9.666666666666666 L 61.0 9.333333333333334 L 60.0 8.666666666666666 L 59.0 8.333333333333334 L 58.0 7.666666666666667 L 57.0 7.333333333333333 L 56.0 6.666666666666667 L 55.0 6.333333333333333 L 54.0 6.0 L 53.0 6.0 L 52.0 6.0 L 51.0 6.0 L 50.0 6.0 L 49.0 6.0 L 48.333333333333336 6.333333333333333 L 48.0 7.0 L 48.333333333333336 8.0 L 49.0 8.666666666666666 L 50.0 9.333333333333334 L 51.0 9.666666666666666 L 52.0 10.333333333333334 L 53.0 10.666666666666666 L 54.0 11.333333333333334 L 55.0 11.666666666666666 L 56.0 12.333333333333334 L 57.0 12.666666666666666 L 58.0 13.333333333333334 L 59.0 13.666666666666666 L 60.0 14.333333333333334 L 61.0 14.666666666666666 L 62.0 15.333333333333334 L 63.0 15.666666666666666 L 64.0 16.333333333333332 L 65.0 16.666666666666668 L 66.0 17.333333333333332 L 67.0 17.666666666666668 L 68.0 18.333333333333332 L 69.0 18.666666666666668 L 70.0 19.333333333333332 L 71.0 19.666666666666668 L 72.0 20.333333333333332 L 73.0 20.666666666666668 L 74.0 21.333333333333332 L 75.0 21.666666666666668 L 76.0 22.333333333333332 L 77.0 22.666666666666668 L 78.0 23.333333333333332 L 79.0 23.666666666666668 L 80.0 24.333333333333332 L 81.0 24.666666666666668 L 82.0 25.333333333333332 L 83.0 25.666666666666668 L 84.0 26.333333333333332 L 85.0 26.666666666666668 L 86.0 27.333333333333332 L 87.0 27.666666666666668 L 87.5 28.0 Z" stroke="none" fill="rgb(97,97,97)" />
<path d="M 88.5 36.0 L 89.0 36.333333333333336 L 90.0 36.666666666666664 L 91.0 37.333333333333336 L 92.0 37.666666666666664 L 93.0 38.333333333333336 L 94.0 38.666666666666664 L 95.0 39.333333333333336 L 96.0 39.666666666666664 L 97.0 40.333333333333336 L 98.0 40.666666666666664 L 99.0 41.333333333333336 L 100.0 41.666666666666664 L 101.0 42.333333333333336 L 102.0 42.666666666666664 L 103.0 43.333333333333336 L 104.0 44.0 L 105.0 44.666666666666664 L 106.0 44.666666666666664 L 107.0 44.0 L 108.0 43.0 L 108.66666666666667 42.0 L 108.66666666666667 41.0 L 108.0 40.333333333333336 L 107.0 39.666666666666664 L 106.0 39.333333333333336 L 105.0 38.666666666666664 L 104.0 38.333333333333336 L 103.0 37.666666666666664 L 102.0 37.333333333333336 L 101.0 36.666666666666664 L 100.0 36.333333333333336 L 99.0 35.666666666666664 L 98.0 35.333333333333336 L 97.0 34.666666666666664 L 96.0 34.333333333333336 L 95.0 33.666666666666664 L 94.0 33.333333333333336 L 93.0 32.666666666666664 L 92.0 32.333333333333336 L 91.0 31.666666666666668 L 90.0 31.333333333333332 L 89.0 30.666666666666668 L 88.0 30.333333333333332 L 87.0 29.666666666666668 L 86.0 29.333333333333332 L 85.0 28.666666666666668 L 84.0 28.333333333333332 L 83.0 27.666666666666668 L 82.0 27.333333333333332 L 81.0 26.666666666666668 L 80.0 26.333333333333332 L 79.0 25.666666666666668 L 78.0 25.333333333333332 L 77.0 24.666666666666668 L 76.0 24.333333333333332 L 75.0 23.666666666666668 L 74.0 23.333333333333332 L 73.0 22.666666666666668 L 72.0 22.333333333333332 L 71.0 21.666666666666668 L 70.0 21.333333333333332 L 69.0 20.666666666666668 L 68.0 20.333333333333332 L 67.0 19.666666666666668 L 66.0 19.333333333333332 L 65.0 18.666666666666668 L 64.0 18.333333333333332 L 63.0 17.666666666666668 L 62.0 17.333333333333332 L 61.0 16.666666666666668 L 60.0 16.333333333333332 L 59.0 15.666666666666666 L 58.0 15.333333333333334 L 57.0 14.666666666666666 L 56.0 14.0 L 55.0 13.333333333333334 L 54.0 12.666666666666666 L 53.0 12.333333333333334 L 52.0 11.666666666666666 L 51.0 11.0 L 50.0 10.0 L 49.0 9.333333333333334 L 48.0 9.0 L 47.0 8.666666666666666 L 46.0 8.333333333333334 L 45.0 8.0 L 44.0 8.0 L 43.0 8.333333333333334 L 42.0 8.666666666666666 L 41.0 9.333333333333334 L 40.333333333333336 10.0 L 40.333333333333336 11.0 L 41.0 12.0 L 42.0 12.666666666666666 L 43.0 13.333333333333334 L 44.0 13.666666666666666 L 45.0 14.333333333333334 L 46.0 14.666666666666666 L 47.0 15.333333333333334 L 48.0 15.666666666666666 L 49.0 16.333333333333332 L 50.0 16.666666666666668 L 51.0 17.333333333333332 L 52.0 17.666666666666668 L 53.0 18.333333333333332 L 54.0 18.666666666666668 L 55.0 19.333333333333332 L 56.0 19.666666666666668 L 57.0 20.333333333333332 L 58.0 20.666666666666668 L 59.0 21.333333333333332 L 60.0 21.666666666666668 L 61.0 22.333333333333332 L 62.0 22.666666666666668 L 63.0 23.333333333333332 L 64.0 23.666666666666668 L 65.0 24.333333333333332 L 66.0 24.666666666666668 L 67.0 25.333333333333332 L 68.0 25.666666666666668 L 69.0 26.333333333333332 L 70.0 26.666666666666668 L 71.0 27.333333333333332 L 72.0 27.666666666666668 L 73.0 28.333333333333332 L 74.0 28.666666666666668 L 75.0 29.333333333333332 L 76.0 29.666666666666668 L 77.0 30.333333333333332 L 78.0 30.666666666666668 L 79.0 31.333333333333332 L 80.0 31.666666666666668 L 81.0 32.333333333333336 L 82.0 32.666666666666664 L 83.0 33.333333333333336 L 84.0 33.666666666666664 L 85.0 34.333333333333336 L 86.0 34.666666666666664 L 87.0 35.333333333333336 L 87.5 35.5 Z" stroke="none" fill="rgb(97,97,97)" />
<path d="M 48.5 9.0 L 48.666666666666664 8.666666666666666 L 48.666666666666664 8.333333333333334 L 48.333333333333336 8.333333333333334 L 48.0 8.5 Z" stroke="none" fill="rgb(66,66,66)" />
<path d="M 97.5 35.5 L 98.0 35.666666666666664 L 99.0 36.333333333333336 L 100.0 36.666666666666664 L 101.0 37.333333333333336 L 102.0 37.666666666666664 L 103.0 38.333333333333336 L 104.0 38.666666666666664 L 105.0 39.333333333333336 L 106.0 39.666666666666664 L 107.0 40.333333333333336 L 107.66666666666667 41.0 L 107.66666666666667 42.0 L 107.0 43.0 L 106.0 44.0 L 105.33333333333333 45.0 L 105.33333333333333 46.0 L 106.0 46.666666666666664 L 107.0 47.0 L 108.0 47.0 L 109.0 46.666666666666664 L 110.0 46.333333333333336 L 111.0 45.666666666666664 L 112.0 45.333333333333336 L 113.0 45.0 L 114.0 44.666666666666664 L 115.0 44.333333333333336 L 116.0 44.0 L 117.0 44.333333333333336 L 118.0 45.0 L 119.0 46.0 L 119.66666666666667 47.0 L 120.0 48.0 L 120.0 49.0 L 120.0 50.0 L 119.66666666666667 51.0 L 119.0 52.0 L 118.0 53.0 L 117.0 54.0 L 116.0 54.666666666666664 L 115.0 55.333333333333336 L 114.0 55.666666666666664 L 113.0 56.333333333333336 L 112.0 56.666666666666664 L 111.0 57.333333333333336 L 110.0 57.666666666666664 L 109.0 58.333333333333336 L 108.0 58.666666666666664 L 107.0 59.0 L 106.33333333333333 59.333333333333336 L 106.0 60.0 L 106.0 61.0 L 106.33333333333333 61.666666666666664 L 107.0 62.333333333333336 L 108.0 62.666666666666664 L 109.0 62.666666666666664 L 110.0 62.333333333333336 L 111.0 61.666666666666664 L 112.0 61.333333333333336 L 113.0 60.666666666666664 L 114.0 60.333333333333336 L 115.0 59.666666666666664 L 116.0 59.333333333333336 L 117.0 58.666666666666664 L 118.0 58.333333333333336 L 119.0 57.666666666666664 L 120.0 57.333333333333336 L 121.0 56.666666666666664 L 122.0 56.0 L 122.66666666666667 55.0 L 123.33333333333333 54.0 L 123.66666666666667 53.0 L 124.0 52.0 L 124.0 51.0 L 124.0 50.0 L 124.0 49.0 L 124.0 48.0 L 124.0 47.0 L 124.0 46.0 L 124.0 45.0 L 123.66666666666667 44.0 L 123.0 43.333333333333336 L 122.0 42.666666666666664 L 121.0 42.0 L 120.0 41.333333333333336 L 119.0 41.0 L 118.0 40.666666666666664 L 117.0 40.333333333333336 L 116.0 40.0 L 115.0 40.0 L 114.0 40.0 L 113.0 40.0 L 112.0 39.666666666666664 L 111.0 39.333333333333336 L 110.0 38.666666666666664 L 109.0 38.333333333333336 L 108.0 37.666666666666664 L 107.0 37.333333333333336 L 106.0 36.666666666666664 L 105.0 36.333333333333336 L 104.0 35.666666666666664 L 103.0 35.333333333333336 L 102.0 34.666666666666664 L 101.0 34.333333333333336 L 100.0 33.666666666666664 L 99.0 33.333333333333336 L 98.0 32.666666666666664 L 97.0 32.333333333333336 L 96.0 31.666666666666668 L 95.0 31.333333333333332 L 94.0 30.666666666666668 L 93.0 30.333333333333332 L 92.0 29.666666666666668 L 91.0 29.333333333333332 L 90.0 28.666666666666668 L 89.0 28.333333333333332 L 88.0 27.666666666666668 L 87.0 27.333333333333332 L 86.0 26.666666666666668 L 85.0 26.333333333333332 L 84.0 25.666666666666668 L 83.0 25.333333333333332 L 82.0 24.666666666666668 L 81.0 24.333333333333332 L 80.0 23.666666666666668 L 79.0 23.333333333333332 L 78.0 22.666666666666668 L 77.0 22.333333333333332 L 76.0 21.666666666666668 L 75.0 21.333333333333332 L 74.0 20.666666666666668 L 73.0 20.333333333333332 L 72.0 19.666666666666668 L 71.0 19.333333333333332 L 70.0 18.666666666666668 L 69.0 18.333333333333332 L 68.0 17.666666666666668 L 67.0 17.333333333333332 L 66.0 16.666666666666668 L 65.0 16.333333333333332 L 64.0 15.666666666666666 L 63.0 15.333333333333334 L 62.0 14.666666666666666 L 61.0 14.333333333333334 L 60.0 13.666666666666666 L 59.0 13.333333333333334 L 58.0 12.666666666666666 L 57.0 12.333333333333334 L 56.0 11.666666666666666 L 55.0 11.333333333333334 L 54.0 10.666666666666666 L 53.0 10.333333333333334 L 52.0 9.666666666666666 L 51.0 9.333333333333334 L 50.0 9.0 L 49.333333333333336 9.333333333333334 L 49.333333333333336 10.0 L 50.0 11.0 L 51.0 11.666666666666666 L 52.0 12.333333333333334 L 53.0 12.666666666666666 L 54.0 13.333333333333334 L 55.0 14.0 L 56.0 14.666666666666666 L 57.0 15.333333333333334 L 58.0 15.666666666666666 L 59.0 16.333333333333332 L 60.0 16.666666666666668 L 61.0 17.333333333333332 L 62.0 17.666666666666668 L 63.0 18.333333333333332 L 64.0 18.666666666666668 L 65.0 19.333333333333332 L 66.0 19.666666666666668 L 67.0 20.333333333333332 L 68.0 20.666666666666668 L 69.0 21.333333333333332 L 70.0 21.666666666666668 L 71.0 22.333333333333332 L 72.0 22.666666666666668 L 73.0 23.333333333333332 L 74.0 23.666666666666668 L 75.0 24.333333333333332 L 76.0 24.666666666666668 L 77.0 25.333333333333332 L 78.0 25.666666666666668 L 79.0 26.333333333333332 L 80.0 26.666666666666668 L 81.0 27.333333333333332 L 82.0 27.666666666666668 L 83.0 28.333333333333332 L 84.0 28.666666666666668 L 85.0 29.333333333333332 L 86.0 29.666666666666668 L 87.0 30.333333333333332 L 88.0 30.666666666666668 L 89.0 31.333333333333332 L 90.0 31.666666666666668 L 91.0 32.333333333333336 L 92.0 32.666666666666664 L 93.0 33.333333333333336 L 94.0 33.666666666666664 L 95.0 34.333333333333336 L 96.0 34.666666666666664 L 96.5 35.0 Z" stroke="none" fill="rgb(66,66,66)" />
<path d="M 21.5 37.5 L 22.0 37.666666666666664 L 23.0 38.333333333333336 L 24.0 38.666666666666664 L 25.0 39.333333333333336 L 26.0 39.666666666666664 L 27.0 40.333333333333336 L 28.0 40.666666666666664 L 29.0 41.333333333333336 L 30.0 41.666666666666664 L 31.0 42.333333333333336 L 32.0 42.666666666666664 L 33.0 43.333333333333336 L 34.0 43.666666666666664 L 35.0 44.333333333333336 L 36.0 44.666666666666664 L 37.0 45.333333333333336 L 38.0 46.0 L 39.0 46.666666666666664 L 40.0 47.333333333333336 L 41.0 47.666666666666664 L 42.0 48.333333333333336 L 43.0 48.666666666666664 L 44.0 49.333333333333336 L 45.0 49.666666666666664 L 46.0 50.333333333333336 L 47.0 50.666666666666664 L 48.0 51.333333333333336 L 49.0 51.666666666666664 L 50.0 52.333333333333336 L 51.0 52.666666666666664 L 52.0 53.333333333333336 L 53.0 53.666666666666664 L 54.0 54.333333333333336 L 55.0 54.666666666666664 L 56.0 55.333333333333336 L 57.0 55.666666666666664 L 58.0 56.333333333333336 L 59.0 56.666666666666664 L 60.0 57.333333333333336 L 61.0 57.666666666666664 L 62.0 58.333333333333336 L 63.0 58.666666666666664 L 64.0 59.0 L 65.0 59.0 L 66.0 59.0 L 67.0 59.0 L 68.0 59.0 L 69.0 59.0 L 70.0 59.0 L 71.0 59.0 L 72.0 59.0 L 73.0 59.0 L 74.0 58.666666666666664 L 75.0 58.333333333333336 L 76.0 57.666666666666664 L 77.0 57.333333333333336 L 78.0 57.0 L 79.0 56.666666666666664 L 80.0 56.333333333333336 L 81.0 55.666666666666664 L 82.0 55.333333333333336 L 83.0 54.666666666666664 L 84.0 54.333333333333336 L 85.0 53.666666666666664 L 86.0 53.333333333333336 L 87.0 52.666666666666664 L 88.0 52.333333333333336 L 89.0 52.0 L 90.0 51.666666666666664 L 91.0 51.333333333333336 L 92.0 50.666666666666664 L 93.0 50.333333333333336 L 94.0 49.666666666666664 L 95.0 49.333333333333336 L 96.0 48.666666666666664 L 97.0 48.333333333333336 L 98.0 48.0 L 99.0 47.666666666666664 L 100.0 47.333333333333336 L 101.0 46.666666666666664 L 102.0 46.333333333333336 L 103.0 45.666666666666664 L 104.0 45.333333333333336 L 104.66666666666667 44.666666666666664 L 104.66666666666667 44.0 L 104.0 43.333333333333336 L 103.0 42.666666666666664 L 102.0 42.333333333333336 L 101.0 41.666666666666664 L 100.0 41.333333333333336 L 99.0 40.666666666666664 L 98.0 40.333333333333336 L 97.0 39.666666666666664 L 96.0 39.333333333333336 L 95.0 38.666666666666664 L 94.0 38.333333333333336 L 93.0 37.666666666666664 L 92.0 37.333333333333336 L 91.0 36.666666666666664 L 90.0 36.333333333333336 L 89.0 35.666666666666664 L 88.0 35.333333333333336 L 87.0 34.666666666666664 L 86.0 34.333333333333336 L 85.0 33.666666666666664 L 84.0 33.333333333333336 L 83.0 32.666666666666664 L 82.0 32.333333333333336 L 81.0 31.666666666666668 L 80.0 31.333333333333332 L 79.0 30.666666666666668 L 78.0 30.333333333333332 L 77.0 29.666666666666668 L 76.0 29.333333333333332 L 75.0 28.666666666666668 L 74.0 28.333333333333332 L 73.0 27.666666666666668 L 72.0 27.333333333333332 L 71.0 26.666666666666668 L 70.0 26.333333333333332 L 69.0 25.666666666666668 L 68.0 25.333333333333332 L 67.0 24.666666666666668 L 66.0 24.333333333333332 L 65.0 23.666666666666668 L 64.0 23.333333333333332 L 63.0 22.666666666666668 L 62.0 22.333333333333332 L 61.0 21.666666666666668 L 60.0 21.333333333333332 L 59.0 20.666666666666668 L 58.0 20.333333333333332 L 57.0 19.666666666666668 L 56.0 19.333333333333332 L 55.0 18.666666666666668 L 54.0 18.333333333333332 L 53.0 17.666666666666668 L 52.0 17.333333333333332 L 51.0 16.666666666666668 L 50.0 16.333333333333332 L 49.0 15.666666666666666 L 48.0 15.333333333333334 L 47.0 14.666666666666666 L 46.0 14.333333333333334 L 45.0 13.666666666666666 L 44.0 13.333333333333334 L 43.0 12.666666666666666 L 42.0 12.0 L 41.0 11.333333333333334 L 40.0 11.0 L 39.0 11.0 L 38.0 11.0 L 37.0 11.0 L 36.0 11.333333333333334 L 35.0 11.666666666666666 L 34.0 12.333333333333334 L 33.0 12.666666666666666 L 32.0 13.333333333333334 L 31.0 13.666666666666666 L 30.0 14.333333333333334 L 29.0 14.666666666666666 L 28.0 15.0 L 27.0 15.333333333333334 L 26.0 15.666666666666666 L 25.0 16.333333333333332 L 24.0 16.666666666666668 L 23.0 17.333333333333332 L 22.0 17.666666666666668 L 21.0 18.333333333333332 L 20.0 18.666666666666668 L 19.0 19.333333333333332 L 18.0 19.666666666666668 L 17.0 20.0 L 16.0 20.333333333333332 L 15.0 20.666666666666668 L 14.0 21.333333333333332 L 13.0 21.666666666666668 L 12.0 22.333333333333332 L 11.0 22.666666666666668 L 10.0 23.333333333333332 L 9.0 23.666666666666668 L 8.0 24.0 L 7.0 24.333333333333332 L 6.0 25.0 L 5.333333333333333 26.0 L 5.0 27.0 L 5.0 28.0 L 5.333333333333333 29.0 L 6.0 29.666666666666668 L 7.0 30.333333333333332 L 8.0 30.666666666666668 L 9.0 31.333333333333332 L 10.0 31.666666666666668 L 11.0 32.333333333333336 L 12.0 32.666666666666664 L 13.0 33.333333333333336 L 14.0 33.666666666666664 L 15.0 34.333333333333336 L 16.0 34.666666666666664 L 17.0 35.333333333333336 L 18.0 35.666666666666664 L 19.0 36.333333333333336 L 20.0 36.666666666666664 L 20.5 37.0 Z" stroke="none" fill="rgb(244,67,54)" />
<path d="M 23.5 42.0 L 24.0 42.333333333333336 L 25.0 42.666666666666664 L 26.0 43.333333333333336 L 27.0 43.666666666666664 L 28.0 44.333333333333336 L 29.0 44.666666666666664 L 30.0 45.333333333333336 L 31.0 45.666666666666664 L 32.0 46.333333333333336 L 33.0 46.666666666666664 L 34.0 47.333333333333336 L 35.0 47.666666666666664 L 36.0 48.333333333333336 L 37.0 48.666666666666664 L 38.0 49.333333333333336 L 39.0 49.666666666666664 L 40.0 50.333333333333336 L 41.0 50.666666666666664 L 42.0 51.333333333333336 L 43.0 51.666666666666664 L 44.0 52.333333333333336 L 45.0 52.666666666666664 L 46.0 53.333333333333336 L 47.0 53.666666666666664 L 48.0 54.333333333333336 L 49.0 54.666666666666664 L 50.0 55.333333333333336 L 51.0 55.666666666666664 L 52.0 56.333333333333336 L 53.0 56.666666666666664 L 54.0 57.333333333333336 L 55.0 57.666666666666664 L 56.0 58.333333333333336 L 57.0 58.666666666666664 L 58.0 59.333333333333336 L 59.0 59.666666666666664 L 60.0 60.333333333333336 L 61.0 60.666666666666664 L 62.0 61.333333333333336 L 63.0 61.666666666666664 L 64.0 62.333333333333336 L 65.0 63.0 L 66.0 63.666666666666664 L 67.0 64.0 L 68.0 63.666666666666664 L 69.0 63.333333333333336 L 70.0 63.0 L 71.0 63.0 L 72.0 63.0 L 73.0 62.666666666666664 L 74.0 62.333333333333336 L 75.0 61.666666666666664 L 76.0 61.333333333333336 L 77.0 61.0 L 78.0 60.666666666666664 L 79.0 60.333333333333336 L 80.0 59.666666666666664 L 81.0 59.333333333333336 L 82.0 58.666666666666664 L 83.0 58.333333333333336 L 84.0 57.666666666666664 L 85.0 57.333333333333336 L 86.0 57.0 L 87.0 56.666666666666664 L 88.0 56.333333333333336 L 89.0 55.666666666666664 L 90.0 55.333333333333336 L 91.0 54.666666666666664 L 92.0 54.333333333333336 L 93.0 53.666666666666664 L 94.0 53.333333333333336 L 95.0 53.0 L 96.0 52.666666666666664 L 97.0 52.333333333333336 L 98.0 51.666666666666664 L 99.0 51.333333333333336 L 100.0 50.666666666666664 L 101.0 50.333333333333336 L 102.0 49.666666666666664 L 103.0 49.333333333333336 L 104.0 49.0 L 105.0 48.666666666666664 L 105.66666666666667 48.0 L 106.0 47.0 L 105.66666666666667 46.0 L 105.0 45.333333333333336 L 104.0 45.0 L 103.0 45.333333333333336 L 102.0 45.666666666666664 L 101.0 46.333333333333336 L 100.0 46.666666666666664 L 99.0 47.333333333333336 L 98.0 47.666666666666664 L 97.0 48.0 L 96.0 48.333333333333336 L 95.0 48.666666666666664 L 94.0 49.333333333333336 L 93.0 49.666666666666664 L 92.0 50.333333333333336 L 91.0 50.666666666666664 L 90.0 51.333333333333336 L 89.0 51.666666666666664 L 88.0 52.0 L 87.0 52.333333333333336 L 86.0 52.666666666666664 L 85.0 53.333333333333336 L 84.0 53.666666666666664 L 83.0 54.333333333333336 L 82.0 54.666666666666664 L 81.0 55.333333333333336 L 80.0 55.666666666666664 L 79.0 56.333333333333336 L 78.0 56.666666666666664 L 77.0 57.0 L 76.0 57.333333333333336 L 75.0 57.666666666666664 L 74.0 58.333333333333336 L 73.0 58.666666666666664 L 72.0 59.0 L 71.0 59.0 L 70.0 59.0 L 69.0 59.0 L 68.0 59.0 L 67.0 59.0 L 66.0 59.0 L 65.0 59.0 L 64.0 58.666666666666664 L 63.0 58.333333333333336 L 62.0 57.666666666666664 L 61.0 57.333333333333336 L 60.0 56.666666666666664 L 59.0 56.333333333333336 L 58.0 55.666666666666664 L 57.0 55.333333333333336 L 56.0 54.666666666666664 L 55.0 54.333333333333336 L 54.0 53.666666666666664 L 53.0 53.333333333333336 L 52.0 52.666666666666664 L 51.0 52.333333333333336 L 50.0 51.666666666666664 L 49.0 51.333333333333336 L 48.0 50.666666666666664 L 47.0 50.333333333333336 L 46.0 49.666666666666664 L 45.0 49.333333333333336 L 44.0 48.666666666666664 L 43.0 48.333333333333336 L 42.0 47.666666666666664 L 41.0 47.333333333333336 L 40.0 46.666666666666664 L 39.0 46.0 L 38.0 45.333333333333336 L 37.0 44.666666666666664 L 36.0 44.333333333333336 L 35.0 43.666666666666664 L 34.0 43.333333333333336 L 33.0 42.666666666666664 L 32.0 42.333333333333336 L 31.0 41.666666666666664 L 30.0 41.333333333333336 L 29.0 40.666666666666664 L 28.0 40.333333333333336 L 27.0 39.666666666666664 L 26.0 39.333333333333336 L 25.0 38.666666666666664 L 24.0 38.333333333333336 L 23.0 37.666666666666664 L 22.0 37.333333333333336 L 21.0 36.666666666666664 L 20.0 36.333333333333336 L 19.0 35.666666666666664 L 18.0 35.333333333333336 L 17.0 34.666666666666664 L 16.0 34.333333333333336 L 15.0 33.666666666666664 L 14.0 33.333333333333336 L 13.0 32.666666666666664 L 12.0 32.333333333333336 L 11.0 31.666666666666668 L 10.0 31.333333333333332 L 9.0 30.666666666666668 L 8.0 30.333333333333332 L 7.0 29.666666666666668 L 6.0 29.0 L 5.0 28.333333333333332 L 4.0 28.0 L 3.3333333333333335 28.333333333333332 L 3.0 29.0 L 3.3333333333333335 30.0 L 3.6666666666666665 31.0 L 4.333333333333333 32.0 L 5.0 32.666666666666664 L 6.0 33.333333333333336 L 7.0 33.666666666666664 L 8.0 34.333333333333336 L 9.0 35.0 L 10.0 35.666666666666664 L 11.0 36.0 L 12.0 36.333333333333336 L 13.0 36.666666666666664 L 14.0 37.333333333333336 L 15.0 37.666666666666664 L 16.0 38.333333333333336 L 17.0 38.666666666666664 L 18.0 39.333333333333336 L 19.0 39.666666666666664 L 20.0 40.333333333333336 L 21.0 40.666666666666664 L 22.0 41.333333333333336 L 22.5 41.5 Z" stroke="none" fill="rgb(197,41,40)" />
<path d="M 23.5 54.5 L 24.0 54.666666666666664 L 25.0 55.333333333333336 L 26.0 55.666666666666664 L 27.0 56.333333333333336 L 28.0 56.666666666666664 L 29.0 57.333333333333336 L 30.0 57.666666666666664 L 31.0 58.333333333333336 L 32.0 58.666666666666664 L 33.0 59.333333333333336 L 34.0 59.666666666666664 L 35.0 60.333333333333336 L 36.0 60.666666666666664 L 37.0 61.333333333333336 L 38.0 61.666666666666664 L 39.0 62.333333333333336 L 40.0 62.666666666666664 L 41.0 63.333333333333336 L 42.0 63.666666666666664 L 43.0 64.33333333333333 L 44.0 64.66666666666667 L 45.0 65.33333333333333 L 46.0 65.66666666666667 L 47.0 66.33333333333333 L 48.0 66.66666666666667 L 49.0 67.33333333333333 L 50.0 67.66666666666667 L 51.0 68.33333333333333 L 52.0 68.66666666666667 L 53.0 69.33333333333333 L 54.0 69.66666666666667 L 55.0 70.33333333333333 L 56.0 70.66666666666667 L 57.0 71.33333333333333 L 58.0 71.66666666666667 L 59.0 72.33333333333333 L 60.0 72.66666666666667 L 61.0 73.33333333333333 L 62.0 73.66666666666667 L 63.0 74.33333333333333 L 64.0 74.66666666666667 L 65.0 75.0 L 66.0 75.0 L 66.66666666666667 74.66666666666667 L 67.33333333333333 74.0 L 68.0 73.0 L 69.0 72.0 L 69.66666666666667 71.0 L 70.0 70.0 L 70.0 69.0 L 70.0 68.0 L 69.66666666666667 67.0 L 69.33333333333333 66.0 L 68.66666666666667 65.0 L 68.0 64.33333333333333 L 67.0 63.666666666666664 L 66.0 63.0 L 65.0 62.333333333333336 L 64.0 61.666666666666664 L 63.0 61.333333333333336 L 62.0 60.666666666666664 L 61.0 60.333333333333336 L 60.0 59.666666666666664 L 59.0 59.333333333333336 L 58.0 58.666666666666664 L 57.0 58.333333333333336 L 56.0 57.666666666666664 L 55.0 57.333333333333336 L 54.0 56.666666666666664 L 53.0 56.333333333333336 L 52.0 55.666666666666664 L 51.0 55.333333333333336 L 50.0 54.666666666666664 L 49.0 54.333333333333336 L 48.0 53.666666666666664 L 47.0 53.333333333333336 L 46.0 52.666666666666664 L 45.0 52.333333333333336 L 44.0 51.666666666666664 L 43.0 51.333333333333336 L 42.0 50.666666666666664 L 41.0 50.333333333333336 L 40.0 49.666666666666664 L 39.0 49.333333333333336 L 38.0 48.666666666666664 L 37.0 48.333333333333336 L 36.0 47.666666666666664 L 35.0 47.333333333333336 L 34.0 46.666666666666664 L 33.0 46.333333333333336 L 32.0 45.666666666666664 L 31.0 45.333333333333336 L 30.0 44.666666666666664 L 29.0 44.333333333333336 L 28.0 43.666666666666664 L 27.0 43.333333333333336 L 26.0 42.666666666666664 L 25.0 42.333333333333336 L 24.0 41.666666666666664 L 23.0 41.333333333333336 L 22.0 40.666666666666664 L 21.0 40.333333333333336 L 20.0 39.666666666666664 L 19.0 39.333333333333336 L 18.0 38.666666666666664 L 17.0 38.333333333333336 L 16.0 37.666666666666664 L 15.0 37.333333333333336 L 14.0 36.666666666666664 L 13.0 36.333333333333336 L 12.0 36.0 L 11.0 36.0 L 10.0 36.0 L 9.333333333333334 36.333333333333336 L 9.0 37.0 L 8.666666666666666 38.0 L 8.333333333333334 39.0 L 8.0 40.0 L 8.0 41.0 L 8.0 42.0 L 8.0 43.0 L 8.0 44.0 L 8.0 45.0 L 8.333333333333334 46.0 L 9.0 47.0 L 10.0 47.666666666666664 L 11.0 48.333333333333336 L 12.0 48.666666666666664 L 13.0 49.333333333333336 L 14.0 49.666666666666664 L 15.0 50.333333333333336 L 16.0 50.666666666666664 L 17.0 51.333333333333336 L 18.0 51.666666666666664 L 19.0 52.333333333333336 L 20.0 52.666666666666664 L 21.0 53.333333333333336 L 22.0 53.666666666666664 L 22.5 54.0 Z" stroke="none" fill="rgb(245,245,245)" />
<path d="M 55.5 74.0 L 56.0 74.33333333333333 L 57.0 74.66666666666667 L 58.0 75.33333333333333 L 59.0 75.66666666666667 L 60.0 76.33333333333333 L 61.0 76.66666666666667 L 62.0 77.33333333333333 L 63.0 77.66666666666667 L 64.0 78.33333333333333 L 65.0 78.66666666666667 L 66.0 79.0 L 67.0 79.33333333333333 L 68.0 79.66666666666667 L 69.0 80.0 L 70.0 80.0 L 71.0 80.0 L 72.0 80.0 L 73.0 80.0 L 73.66666666666667 79.66666666666667 L 74.0 79.0 L 74.33333333333333 78.0 L 75.0 77.33333333333333 L 76.0 76.66666666666667 L 77.0 76.33333333333333 L 78.0 76.0 L 79.0 75.66666666666667 L 80.0 75.33333333333333 L 81.0 74.66666666666667 L 82.0 74.33333333333333 L 83.0 73.66666666666667 L 84.0 73.33333333333333 L 85.0 72.66666666666667 L 86.0 72.33333333333333 L 87.0 72.0 L 88.0 71.66666666666667 L 89.0 71.33333333333333 L 90.0 70.66666666666667 L 91.0 70.33333333333333 L 92.0 69.66666666666667 L 93.0 69.33333333333333 L 94.0 68.66666666666667 L 95.0 68.33333333333333 L 96.0 67.66666666666667 L 97.0 67.33333333333333 L 98.0 67.0 L 99.0 66.66666666666667 L 100.0 66.33333333333333 L 101.0 65.66666666666667 L 102.0 65.33333333333333 L 103.0 64.66666666666667 L 104.0 64.33333333333333 L 105.0 63.666666666666664 L 105.66666666666667 63.0 L 105.66666666666667 62.0 L 105.0 61.333333333333336 L 104.0 61.0 L 103.0 61.333333333333336 L 102.0 61.666666666666664 L 101.0 62.0 L 100.0 62.333333333333336 L 99.0 62.666666666666664 L 98.0 63.333333333333336 L 97.0 63.666666666666664 L 96.0 64.33333333333333 L 95.0 64.66666666666667 L 94.0 65.33333333333333 L 93.0 65.66666666666667 L 92.0 66.0 L 91.0 66.33333333333333 L 90.0 66.66666666666667 L 89.0 67.33333333333333 L 88.0 67.66666666666667 L 87.0 68.33333333333333 L 86.0 68.66666666666667 L 85.0 69.33333333333333 L 84.0 69.66666666666667 L 83.0 70.0 L 82.0 70.33333333333333 L 81.0 70.66666666666667 L 80.0 71.33333333333333 L 79.0 71.66666666666667 L 78.0 72.33333333333333 L 77.0 72.66666666666667 L 76.0 73.33333333333333 L 75.0 73.66666666666667 L 74.0 74.33333333333333 L 73.0 74.66666666666667 L 72.0 75.0 L 71.0 75.0 L 70.0 75.0 L 69.0 75.0 L 68.0 75.0 L 67.0 75.0 L 66.0 75.0 L 65.0 74.66666666666667 L 64.0 74.33333333333333 L 63.0 73.66666666666667 L 62.0 73.33333333333333 L 61.0 72.66666666666667 L 60.0 72.33333333333333 L 59.0 71.66666666666667 L 58.0 71.33333333333333 L 57.0 70.66666666666667 L 56.0 70.33333333333333 L 55.0 69.66666666666667 L 54.0 69.33333333333333 L 53.0 68.66666666666667 L 52.0 68.33333333333333 L 51.0 67.66666666666667 L 50.0 67.33333333333333 L 49.0 66.66666666666667 L 48.0 66.33333333333333 L 47.0 65.66666666666667 L 46.0 65.33333333333333 L 45.0 64.66666666666667 L 44.0 64.33333333333333 L 43.0 63.666666666666664 L 42.0 63.333333333333336 L 41.0 62.666666666666664 L 40.0 62.333333333333336 L 39.0 61.666666666666664 L 38.0 61.333333333333336 L 37.0 60.666666666666664 L 36.0 60.333333333333336 L 35.0 59.666666666666664 L 34.0 59.333333333333336 L 33.0 58.666666666666664 L 32.0 58.333333333333336 L 31.0 57.666666666666664 L 30.0 57.333333333333336 L 29.0 56.666666666666664 L 28.0 56.333333333333336 L 27.0 55.666666666666664 L 26.0 55.333333333333336 L 25.0 54.666666666666664 L 24.0 54.333333333333336 L 23.0 53.666666666666664 L 22.0 53.333333333333336 L 21.0 52.666666666666664 L 20.0 52.333333333333336 L 19.0 51.666666666666664 L 18.0 51.333333333333336 L 17.0 50.666666666666664 L 16.0 50.333333333333336 L 15.0 49.666666666666664 L 14.0 49.333333333333336 L 13.0 48.666666666666664 L 12.0 48.333333333333336 L 11.0 47.666666666666664 L 10.0 47.0 L 9.0 46.0 L 8.333333333333334 45.0 L 8.0 44.0 L 8.0 43.0 L 8.0 42.0 L 7.666666666666667 41.333333333333336 L 7.0 41.0 L 6.0 41.333333333333336 L 5.0 41.666666666666664 L 4.333333333333333 42.333333333333336 L 4.0 43.0 L 4.0 44.0 L 4.0 45.0 L 4.0 46.0 L 4.0 47.0 L 4.333333333333333 48.0 L 5.0 48.666666666666664 L 6.0 49.333333333333336 L 7.0 49.666666666666664 L 8.0 50.333333333333336 L 9.0 50.666666666666664 L 10.0 51.333333333333336 L 11.0 51.666666666666664 L 12.0 52.333333333333336 L 13.0 52.666666666666664 L 14.0 53.333333333333336 L 15.0 53.666666666666664 L 16.0 54.333333333333336 L 17.0 54.666666666666664 L 18.0 55.333333333333336 L 19.0 55.666666666666664 L 20.0 56.333333333333336 L 21.0 56.666666666666664 L 22.0 57.333333333333336 L 23.0 57.666666666666664 L 24.0 58.333333333333336 L 25.0 58.666666666666664 L 26.0 59.333333333333336 L 27.0 59.666666666666664 L 28.0 60.333333333333336 L 29.0 60.666666666666664 L 30.0 61.333333333333336 L 31.0 61.666666666666664 L 32.0 62.333333333333336 L 33.0 62.666666666666664 L 34.0 63.333333333333336 L 35.0 63.666666666666664 L 36.0 64.33333333333333 L 37.0 64.66666666666667 L 38.0 65.33333333333333 L 39.0 65.66666666666667 L 40.0 66.33333333333333 L 41.0 66.66666666666667 L 42.0 67.33333333333333 L 43.0 67.66666666666667 L 44.0 68.33333333333333 L 45.0 68.66666666666667 L 46.0 69.33333333333333 L 47.0 70.0 L 48.0 71.0 L 49.0 72.0 L 50.0 72.66666666666667 L 51.0 72.66666666666667 L 52.0 72.66666666666667 L 53.0 72.66666666666667 L 54.0 73.33333333333333 L 54.5 73.5 Z" stroke="none" fill="rgb(197,41,40)" />
<path d="M 105.5 62.0 L 105.66666666666667 61.666666666666664 L 106.0 61.0 L 106.33333333333333 60.0 L 107.0 59.333333333333336 L 108.0 59.0 L 109.0 58.666666666666664 L 110.0 58.333333333333336 L 111.0 57.666666666666664 L 112.0 57.333333333333336 L 113.0 56.666666666666664 L 114.0 56.333333333333336 L 115.0 55.666666666666664 L 116.0 55.333333333333336 L 117.0 54.666666666666664 L 118.0 54.0 L 119.0 53.0 L 119.66666666666667 52.0 L 120.0 51.0 L 120.0 50.0 L 120.0 49.0 L 120.0 48.0 L 120.0 47.0 L 119.66666666666667 46.0 L 119.0 45.0 L 118.0 44.333333333333336 L 117.0 44.0 L 116.0 44.0 L 115.0 44.0 L 114.0 44.333333333333336 L 113.0 44.666666666666664 L 112.0 45.0 L 111.0 45.333333333333336 L 110.0 45.666666666666664 L 109.0 46.333333333333336 L 108.0 46.666666666666664 L 107.0 47.0 L 106.0 47.333333333333336 L 105.0 48.0 L 104.0 48.666666666666664 L 103.0 49.0 L 102.0 49.333333333333336 L 101.0 49.666666666666664 L 100.0 50.333333333333336 L 99.0 50.666666666666664 L 98.0 51.333333333333336 L 97.0 51.666666666666664 L 96.0 52.333333333333336 L 95.0 52.666666666666664 L 94.0 53.0 L 93.0 53.333333333333336 L 92.0 53.666666666666664 L 91.0 54.333333333333336 L 90.0 54.666666666666664 L 89.0 55.333333333333336 L 88.0 55.666666666666664 L 87.0 56.333333333333336 L 86.0 56.666666666666664 L 85.0 57.0 L 84.0 57.333333333333336 L 83.0 57.666666666666664 L 82.0 58.333333333333336 L 81.0 58.666666666666664 L 80.0 59.333333333333336 L 79.0 59.666666666666664 L 78.0 60.333333333333336 L 77.0 60.666666666666664 L 76.0 61.0 L 75.0 61.333333333333336 L 74.0 61.666666666666664 L 73.0 62.333333333333336 L 72.0 62.666666666666664 L 71.0 63.0 L 70.0 63.0 L 69.0 63.0 L 68.33333333333333 63.333333333333336 L 68.0 64.0 L 68.33333333333333 65.0 L 68.66666666666667 66.0 L 69.33333333333333 67.0 L 69.66666666666667 68.0 L 70.0 69.0 L 69.66666666666667 70.0 L 69.0 71.0 L 68.0 72.0 L 67.33333333333333 73.0 L 67.0 74.0 L 67.33333333333333 74.66666666666667 L 68.0 75.0 L 69.0 75.0 L 70.0 75.0 L 71.0 75.0 L 72.0 75.0 L 73.0 75.0 L 74.0 74.66666666666667 L 75.0 74.33333333333333 L 76.0 73.66666666666667 L 77.0 73.33333333333333 L 78.0 72.66666666666667 L 79.0 72.33333333333333 L 80.0 71.66666666666667 L 81.0 71.33333333333333 L 82.0 70.66666666666667 L 83.0 70.33333333333333 L 84.0 70.0 L 85.0 69.66666666666667 L 86.0 69.33333333333333 L 87.0 68.66666666666667 L 88.0 68.33333333333333 L 89.0 67.66666666666667 L 90.0 67.33333333333333 L 91.0 66.66666666666667 L 92.0 66.33333333333333 L 93.0 66.0 L 94.0 65.66666666666667 L 95.0 65.33333333333333 L 96.0 64.66666666666667 L 97.0 64.33333333333333 L 98.0 63.666666666666664 L 99.0 63.333333333333336 L 100.0 62.666666666666664 L 101.0 62.333333333333336 L 102.0 62.0 L 103.0 61.666666666666664 L 104.0 61.666666666666664 L 104.5 61.5 Z" stroke="none" fill="rgb(148,198,214)" />
<path d="M 20.5 71.5 L 20.666666666666668 72.0 L 21.333333333333332 73.0 L 22.0 74.0 L 23.0 75.0 L 23.666666666666668 76.0 L 24.333333333333332 77.0 L 25.0 78.0 L 25.666666666666668 79.0 L 26.333333333333332 80.0 L 27.0 81.0 L 28.0 82.0 L 28.666666666666668 83.0 L 29.333333333333332 84.0 L 30.0 85.0 L 31.0 86.0 L 32.0 87.0 L 33.0 88.0 L 33.666666666666664 89.0 L 34.333333333333336 90.0 L 34.666666666666664 91.0 L 35.0 92.0 L 35.333333333333336 93.0 L 36.0 94.0 L 37.0 95.0 L 38.0 96.0 L 39.0 97.0 L 40.0 98.0 L 41.0 99.0 L 42.0 99.66666666666667 L 43.0 100.0 L 44.0 100.0 L 45.0 100.0 L 46.0 100.0 L 47.0 100.0 L 48.0 100.0 L 49.0 100.0 L 50.0 100.33333333333333 L 51.0 100.66666666666667 L 52.0 101.0 L 53.0 100.66666666666667 L 54.0 100.0 L 55.0 99.33333333333333 L 56.0 99.0 L 56.666666666666664 98.66666666666667 L 57.0 98.0 L 56.666666666666664 97.0 L 56.0 96.33333333333333 L 55.0 96.0 L 54.0 96.33333333333333 L 53.0 96.66666666666667 L 52.0 97.0 L 51.0 97.0 L 50.0 97.0 L 49.0 97.0 L 48.0 97.0 L 47.0 97.0 L 46.0 97.0 L 45.0 96.66666666666667 L 44.0 96.0 L 43.0 95.0 L 42.333333333333336 94.0 L 42.0 93.0 L 42.0 92.0 L 42.333333333333336 91.0 L 42.666666666666664 90.0 L 43.333333333333336 89.0 L 44.0 88.0 L 45.0 87.0 L 46.0 86.33333333333333 L 47.0 85.66666666666667 L 48.0 85.33333333333333 L 49.0 85.0 L 50.0 85.0 L 51.0 85.0 L 52.0 84.66666666666667 L 53.0 84.33333333333333 L 54.0 84.0 L 54.666666666666664 83.66666666666667 L 55.0 83.0 L 55.0 82.0 L 54.666666666666664 81.33333333333333 L 54.0 81.0 L 53.0 81.0 L 52.0 81.0 L 51.0 81.33333333333333 L 50.0 81.66666666666667 L 49.0 82.0 L 48.0 82.0 L 47.0 82.0 L 46.0 81.66666666666667 L 45.0 81.0 L 44.333333333333336 80.0 L 43.666666666666664 79.0 L 43.0 78.0 L 42.333333333333336 77.0 L 41.666666666666664 76.0 L 41.0 75.0 L 40.333333333333336 74.0 L 39.666666666666664 73.0 L 39.0 72.0 L 38.0 71.0 L 37.333333333333336 70.0 L 36.666666666666664 69.0 L 36.666666666666664 68.0 L 37.0 67.33333333333333 L 38.0 67.33333333333333 L 39.0 67.66666666666667 L 40.0 68.33333333333333 L 41.0 68.66666666666667 L 42.0 69.33333333333333 L 43.0 69.66666666666667 L 44.0 70.33333333333333 L 45.0 71.0 L 46.0 71.66666666666667 L 47.0 72.0 L 48.0 72.0 L 48.666666666666664 71.66666666666667 L 48.666666666666664 71.0 L 48.0 70.0 L 47.0 69.33333333333333 L 46.0 68.66666666666667 L 45.0 68.33333333333333 L 44.0 67.66666666666667 L 43.0 67.33333333333333 L 42.0 66.66666666666667 L 41.0 66.33333333333333 L 40.0 65.66666666666667 L 39.0 65.33333333333333 L 38.0 64.66666666666667 L 37.0 64.33333333333333 L 36.0 63.666666666666664 L 35.0 63.333333333333336 L 34.0 62.666666666666664 L 33.0 62.333333333333336 L 32.0 61.666666666666664 L 31.0 61.333333333333336 L 30.0 60.666666666666664 L 29.0 60.333333333333336 L 28.0 59.666666666666664 L 27.0 59.333333333333336 L 26.0 58.666666666666664 L 25.0 58.333333333333336 L 24.0 57.666666666666664 L 23.0 57.333333333333336 L 22.0 56.666666666666664 L 21.0 56.333333333333336 L 20.0 55.666666666666664 L 19.0 55.333333333333336 L 18.0 54.666666666666664 L 17.0 54.333333333333336 L 16.0 53.666666666666664 L 15.0 53.333333333333336 L 14.0 52.666666666666664 L 13.0 52.333333333333336 L 12.0 51.666666666666664 L 11.0 51.333333333333336 L 10.0 50.666666666666664 L 9.0 50.333333333333336 L 8.0 50.0 L 7.333333333333333 50.333333333333336 L 7.0 51.0 L 7.0 52.0 L 7.333333333333333 53.0 L 7.666666666666667 54.0 L 8.333333333333334 55.0 L 9.0 56.0 L 9.666666666666666 57.0 L 10.333333333333334 58.0 L 11.0 59.0 L 11.666666666666666 60.0 L 12.333333333333334 61.0 L 13.0 62.0 L 14.0 63.0 L 14.666666666666666 64.0 L 15.333333333333334 65.0 L 15.666666666666666 66.0 L 16.333333333333332 67.0 L 17.0 68.0 L 18.0 69.0 L 19.0 70.0 L 19.5 70.5 Z" stroke="none" fill="rgb(66,66,66)" />
<path d="M 29.5 72.5 L 30.0 73.0 L 30.666666666666668 74.0 L 31.333333333333332 75.0 L 32.0 76.0 L 32.666666666666664 77.0 L 33.333333333333336 78.0 L 34.0 79.0 L 35.0 80.0 L 35.666666666666664 81.0 L 36.333333333333336 82.0 L 37.0 83.0 L 37.666666666666664 84.0 L 38.333333333333336 85.0 L 39.0 85.66666666666667 L 40.0 85.66666666666667 L 41.0 85.0 L 42.0 84.0 L 42.666666666666664 83.0 L 43.0 82.0 L 42.666666666666664 81.0 L 42.0 80.0 L 41.333333333333336 79.0 L 40.666666666666664 78.0 L 40.0 77.0 L 39.0 76.0 L 38.333333333333336 75.0 L 37.666666666666664 74.0 L 37.0 73.0 L 36.333333333333336 72.0 L 35.666666666666664 71.0 L 35.0 70.0 L 34.0 69.0 L 33.333333333333336 68.0 L 32.666666666666664 67.0 L 32.0 66.0 L 31.333333333333332 65.0 L 30.666666666666668 64.0 L 30.0 63.0 L 29.0 62.333333333333336 L 28.0 61.666666666666664 L 27.0 61.333333333333336 L 26.0 60.666666666666664 L 25.0 60.333333333333336 L 24.0 60.0 L 23.0 60.0 L 22.333333333333332 60.333333333333336 L 22.0 61.0 L 22.333333333333332 62.0 L 23.0 63.0 L 23.666666666666668 64.0 L 24.333333333333332 65.0 L 25.0 66.0 L 25.666666666666668 67.0 L 26.333333333333332 68.0 L 27.0 69.0 L 28.0 70.0 L 28.666666666666668 71.0 L 29.0 71.5 Z" stroke="none" fill="rgb(97,97,97)" />
<path d="M 110.5 73.0 L 111.0 73.0 L 112.0 72.66666666666667 L 112.66666666666667 72.0 L 113.0 71.0 L 113.0 70.0 L 112.66666666666667 69.33333333333333 L 112.0 69.0 L 111.0 69.0 L 110.0 69.0 L 109.0 69.33333333333333 L 108.0 69.66666666666667 L 107.0 70.0 L 106.0 70.0 L 105.0 70.0 L 104.0 70.33333333333333 L 103.0 70.66666666666667 L 102.0 71.0 L 101.0 71.0 L 100.0 71.0 L 99.0 71.33333333333333 L 98.0 71.66666666666667 L 97.0 72.0 L 96.0 71.66666666666667 L 95.66666666666667 71.0 L 96.0 70.33333333333333 L 97.0 69.66666666666667 L 98.0 69.33333333333333 L 99.0 69.0 L 100.0 68.66666666666667 L 101.0 68.33333333333333 L 102.0 67.66666666666667 L 103.0 67.33333333333333 L 104.0 66.66666666666667 L 105.0 66.33333333333333 L 106.0 65.66666666666667 L 107.0 65.33333333333333 L 108.0 64.66666666666667 L 108.66666666666667 64.0 L 108.66666666666667 63.0 L 108.0 62.333333333333336 L 107.0 62.0 L 106.0 62.333333333333336 L 105.0 63.0 L 104.0 63.666666666666664 L 103.0 64.33333333333333 L 102.0 64.66666666666667 L 101.0 65.33333333333333 L 100.0 65.66666666666667 L 99.0 66.33333333333333 L 98.0 66.66666666666667 L 97.0 67.0 L 96.0 67.33333333333333 L 95.0 67.66666666666667 L 94.0 68.33333333333333 L 93.0 68.66666666666667 L 92.0 69.33333333333333 L 91.0 69.66666666666667 L 90.0 70.33333333333333 L 89.0 70.66666666666667 L 88.0 71.33333333333333 L 87.0 71.66666666666667 L 86.0 72.0 L 85.0 72.33333333333333 L 84.0 72.66666666666667 L 83.0 73.33333333333333 L 82.0 73.66666666666667 L 81.0 74.33333333333333 L 80.0 74.66666666666667 L 79.0 75.33333333333333 L 78.0 75.66666666666667 L 77.0 76.0 L 76.0 76.33333333333333 L 75.0 76.66666666666667 L 74.33333333333333 77.33333333333333 L 74.0 78.0 L 74.33333333333333 78.66666666666667 L 75.0 79.0 L 76.0 79.0 L 77.0 79.0 L 78.0 79.0 L 79.0 79.0 L 80.0 79.0 L 81.0 78.66666666666667 L 82.0 78.33333333333333 L 83.0 78.0 L 84.0 78.0 L 85.0 78.0 L 86.0 77.66666666666667 L 87.0 77.33333333333333 L 88.0 77.0 L 89.0 77.0 L 90.0 77.0 L 91.0 76.66666666666667 L 92.0 76.33333333333333 L 93.0 76.0 L 94.0 76.0 L 95.0 76.0 L 96.0 75.66666666666667 L 97.0 75.33333333333333 L 98.0 75.0 L 99.0 75.0 L 100.0 74.66666666666667 L 101.0 74.33333333333333 L 102.0 74.0 L 103.0 74.0 L 104.0 74.0 L 105.0 73.66666666666667 L 106.0 73.33333333333333 L 107.0 73.0 L 108.0 73.0 L 109.0 73.0 L 109.5 73.0 Z" stroke="none" fill="rgb(105,158,57)" />
<path d="M 107.5 70.0 L 108.0 70.0 L 109.0 69.66666666666667 L 110.0 69.33333333333333 L 111.0 69.0 L 111.66666666666667 68.66666666666667 L 112.0 68.0 L 112.0 67.0 L 111.66666666666667 66.0 L 111.0 65.0 L 110.0 64.33333333333333 L 109.0 64.0 L 108.0 64.33333333333333 L 107.0 64.66666666666667 L 106.0 65.33333333333333 L 105.0 65.66666666666667 L 104.0 66.33333333333333 L 103.0 66.66666666666667 L 102.0 67.33333333333333 L 101.0 67.66666666666667 L 100.0 68.33333333333333 L 99.0 68.66666666666667 L 98.0 69.0 L 97.0 69.33333333333333 L 96.0 69.66666666666667 L 95.33333333333333 70.33333333333333 L 95.0 71.0 L 95.33333333333333 71.66666666666667 L 96.0 72.0 L 97.0 72.0 L 98.0 72.0 L 99.0 71.66666666666667 L 100.0 71.33333333333333 L 101.0 71.0 L 102.0 71.0 L 103.0 71.0 L 104.0 70.66666666666667 L 105.0 70.33333333333333 L 106.0 70.0 L 106.5 70.0 Z" stroke="none" fill="rgb(154,203,100)" />
<path d="M 24.5 84.0 L 25.0 84.33333333333333 L 26.0 84.66666666666667 L 27.0 85.0 L 28.0 85.0 L 29.0 85.0 L 29.666666666666668 84.66666666666667 L 29.666666666666668 84.0 L 29.333333333333332 83.0 L 28.666666666666668 82.0 L 28.0 81.0 L 27.0 80.0 L 26.333333333333332 79.0 L 25.666666666666668 78.0 L 25.0 77.0 L 24.333333333333332 76.0 L 23.666666666666668 75.0 L 23.0 74.0 L 22.0 73.0 L 21.333333333333332 72.0 L 20.666666666666668 71.0 L 20.0 70.0 L 19.0 69.0 L 18.0 68.0 L 17.0 67.0 L 16.0 66.33333333333333 L 15.0 66.0 L 14.0 66.33333333333333 L 13.0 66.66666666666667 L 12.0 67.33333333333333 L 11.0 67.66666666666667 L 10.0 68.33333333333333 L 9.0 68.66666666666667 L 8.0 69.0 L 7.0 69.33333333333333 L 6.0 69.66666666666667 L 5.333333333333333 70.33333333333333 L 5.0 71.0 L 5.0 72.0 L 5.0 73.0 L 5.333333333333333 74.0 L 6.0 74.66666666666667 L 7.0 75.33333333333333 L 8.0 75.66666666666667 L 9.0 76.33333333333333 L 10.0 76.66666666666667 L 11.0 77.33333333333333 L 12.0 77.66666666666667 L 13.0 78.33333333333333 L 14.0 78.66666666666667 L 15.0 79.33333333333333 L 16.0 79.66666666666667 L 17.0 80.33333333333333 L 18.0 80.66666666666667 L 19.0 81.33333333333333 L 20.0 81.66666666666667 L 21.0 82.33333333333333 L 22.0 82.66666666666667 L 23.0 83.33333333333333 L 23.5 83.5 Z" stroke="none" fill="rgb(0,144,233)" />
<path d="M 42.5 78.5 L 43.0 79.0 L 43.666666666666664 80.0 L 44.333333333333336 81.0 L 45.0 81.66666666666667 L 46.0 82.0 L 47.0 82.0 L 48.0 82.0 L 49.0 82.0 L 50.0 82.0 L 51.0 81.66666666666667 L 52.0 81.33333333333333 L 53.0 81.0 L 54.0 81.0 L 55.0 81.0 L 55.666666666666664 80.66666666666667 L 55.666666666666664 80.0 L 55.333333333333336 79.0 L 54.666666666666664 78.0 L 54.333333333333336 77.0 L 53.666666666666664 76.0 L 53.0 75.0 L 52.0 74.0 L 51.0 73.0 L 50.0 72.33333333333333 L 49.0 72.0 L 48.0 72.0 L 47.0 71.66666666666667 L 46.0 71.0 L 45.0 70.33333333333333 L 44.0 69.66666666666667 L 43.0 69.33333333333333 L 42.0 68.66666666666667 L 41.0 68.33333333333333 L 40.0 67.66666666666667 L 39.0 67.33333333333333 L 38.0 66.66666666666667 L 37.0 66.33333333333333 L 36.0 66.0 L 35.333333333333336 66.33333333333333 L 35.0 67.0 L 35.333333333333336 68.0 L 36.0 69.0 L 36.666666666666664 70.0 L 37.333333333333336 71.0 L 38.0 72.0 L 39.0 73.0 L 39.666666666666664 74.0 L 40.333333333333336 75.0 L 41.0 76.0 L 41.666666666666664 77.0 L 42.0 77.5 Z" stroke="none" fill="rgb(97,97,97)" />
<path d="M 59.5 83.0 L 60.0 83.0 L 61.0 82.66666666666667 L 62.0 82.33333333333333 L 63.0 82.0 L 64.0 82.0 L 65.0 82.0 L 66.0 81.66666666666667 L 67.0 81.33333333333333 L 67.66666666666667 80.66666666666667 L 68.0 80.0 L 67.66666666666667 79.33333333333333 L 67.0 79.0 L 66.0 78.66666666666667 L 65.0 78.33333333333333 L 64.0 77.66666666666667 L 63.0 77.33333333333333 L 62.0 76.66666666666667 L 61.0 76.33333333333333 L 60.0 75.66666666666667 L 59.0 75.33333333333333 L 58.0 74.66666666666667 L 57.0 74.33333333333333 L 56.0 73.66666666666667 L 55.0 73.33333333333333 L 54.0 72.66666666666667 L 53.0 72.33333333333333 L 52.0 72.0 L 51.333333333333336 72.33333333333333 L 51.0 73.0 L 51.333333333333336 74.0 L 52.0 75.0 L 53.0 75.66666666666667 L 54.0 76.0 L 55.0 76.33333333333333 L 56.0 76.66666666666667 L 57.0 77.33333333333333 L 57.666666666666664 78.0 L 57.666666666666664 79.0 L 57.0 79.66666666666667 L 56.0 80.33333333333333 L 55.333333333333336 81.0 L 55.0 82.0 L 55.333333333333336 82.66666666666667 L 56.0 83.0 L 57.0 83.0 L 58.0 83.0 L 58.5 83.0 Z" stroke="none" fill="rgb(105,158,57)" />
<path d="M 59.5 95.5 L 60.0 95.33333333333333 L 61.0 95.0 L 62.0 95.0 L 63.0 95.0 L 64.0 94.66666666666667 L 65.0 94.33333333333333 L 66.0 94.0 L 67.0 94.0 L 68.0 94.0 L 69.0 93.66666666666667 L 70.0 93.33333333333333 L 71.0 93.0 L 72.0 93.0 L 73.0 93.0 L 74.0 92.66666666666667 L 75.0 92.33333333333333 L 76.0 92.0 L 77.0 92.0 L 78.0 92.0 L 79.0 91.66666666666667 L 80.0 91.33333333333333 L 81.0 91.0 L 82.0 91.0 L 83.0 90.66666666666667 L 84.0 90.33333333333333 L 85.0 90.0 L 86.0 90.0 L 87.0 90.0 L 88.0 89.66666666666667 L 89.0 89.33333333333333 L 90.0 89.0 L 91.0 89.0 L 92.0 89.0 L 93.0 88.66666666666667 L 94.0 88.33333333333333 L 95.0 88.0 L 96.0 88.0 L 97.0 88.0 L 98.0 87.66666666666667 L 99.0 87.33333333333333 L 100.0 87.0 L 101.0 87.0 L 102.0 87.0 L 103.0 86.66666666666667 L 104.0 86.33333333333333 L 105.0 86.0 L 106.0 86.0 L 107.0 86.0 L 108.0 85.66666666666667 L 109.0 85.0 L 109.66666666666667 84.0 L 110.0 83.0 L 110.0 82.0 L 109.66666666666667 81.0 L 109.33333333333333 80.0 L 109.0 79.0 L 109.0 78.0 L 109.0 77.0 L 109.0 76.0 L 109.0 75.0 L 109.0 74.0 L 108.66666666666667 73.33333333333333 L 108.0 73.0 L 107.0 73.0 L 106.0 73.0 L 105.0 73.33333333333333 L 104.0 73.66666666666667 L 103.0 74.0 L 102.0 74.0 L 101.0 74.0 L 100.0 74.33333333333333 L 99.0 74.66666666666667 L 98.0 75.0 L 97.0 75.0 L 96.0 75.33333333333333 L 95.0 75.66666666666667 L 94.0 76.0 L 93.0 76.0 L 92.0 76.0 L 91.0 76.33333333333333 L 90.0 76.66666666666667 L 89.0 77.0 L 88.0 77.0 L 87.0 77.0 L 86.0 77.33333333333333 L 85.0 77.66666666666667 L 84.0 78.0 L 83.0 78.0 L 82.0 78.0 L 81.0 78.33333333333333 L 80.0 78.66666666666667 L 79.0 79.0 L 78.0 79.0 L 77.0 79.0 L 76.0 79.0 L 75.0 79.0 L 74.0 79.33333333333333 L 73.0 79.66666666666667 L 72.0 80.0 L 71.0 80.0 L 70.0 80.0 L 69.0 80.0 L 68.0 80.33333333333333 L 67.0 80.66666666666667 L 66.0 81.33333333333333 L 65.0 81.66666666666667 L 64.0 82.0 L 63.0 82.0 L 62.0 82.0 L 61.0 82.33333333333333 L 60.0 82.66666666666667 L 59.0 83.0 L 58.0 83.0 L 57.0 83.0 L 56.0 83.0 L 55.0 83.33333333333333 L 54.0 83.66666666666667 L 53.0 84.0 L 52.0 84.33333333333333 L 51.0 84.66666666666667 L 50.0 85.0 L 49.0 85.0 L 48.0 85.0 L 47.0 85.33333333333333 L 46.0 85.66666666666667 L 45.0 86.33333333333333 L 44.0 87.0 L 43.333333333333336 88.0 L 42.666666666666664 89.0 L 42.333333333333336 90.0 L 42.0 91.0 L 42.0 92.0 L 42.0 93.0 L 42.0 94.0 L 42.333333333333336 95.0 L 43.0 96.0 L 44.0 96.66666666666667 L 45.0 97.0 L 46.0 97.0 L 47.0 97.0 L 48.0 97.0 L 49.0 97.0 L 50.0 97.0 L 51.0 97.0 L 52.0 97.0 L 53.0 97.0 L 54.0 96.66666666666667 L 55.0 96.66666666666667 L 56.0 96.66666666666667 L 57.0 96.66666666666667 L 58.0 96.33333333333333 L 58.5 96.0 Z" stroke="none" fill="rgb(185,228,234)" />
<path d="M 20.5 85.5 L 21.0 85.66666666666667 L 22.0 86.33333333333333 L 23.0 86.66666666666667 L 24.0 87.33333333333333 L 25.0 87.66666666666667 L 26.0 88.33333333333333 L 27.0 88.66666666666667 L 28.0 89.33333333333333 L 29.0 89.66666666666667 L 30.0 90.33333333333333 L 31.0 90.66666666666667 L 32.0 91.33333333333333 L 33.0 91.66666666666667 L 34.0 92.0 L 34.666666666666664 91.66666666666667 L 35.0 91.0 L 34.666666666666664 90.0 L 34.333333333333336 89.0 L 33.666666666666664 88.0 L 33.0 87.0 L 32.0 86.0 L 31.0 85.33333333333333 L 30.0 85.0 L 29.0 85.0 L 28.0 85.0 L 27.0 84.66666666666667 L 26.0 84.33333333333333 L 25.0 83.66666666666667 L 24.0 83.33333333333333 L 23.0 82.66666666666667 L 22.0 82.33333333333333 L 21.0 81.66666666666667 L 20.0 81.33333333333333 L 19.0 80.66666666666667 L 18.0 80.33333333333333 L 17.0 79.66666666666667 L 16.0 79.33333333333333 L 15.0 78.66666666666667 L 14.0 78.33333333333333 L 13.0 77.66666666666667 L 12.0 77.33333333333333 L 11.0 76.66666666666667 L 10.0 76.33333333333333 L 9.0 75.66666666666667 L 8.0 75.33333333333333 L 7.0 74.66666666666667 L 6.0 74.33333333333333 L 5.0 74.0 L 4.333333333333333 74.33333333333333 L 4.0 75.0 L 4.0 76.0 L 4.333333333333333 77.0 L 5.0 77.66666666666667 L 6.0 78.33333333333333 L 7.0 78.66666666666667 L 8.0 79.33333333333333 L 9.0 79.66666666666667 L 10.0 80.0 L 11.0 80.33333333333333 L 12.0 81.0 L 13.0 81.66666666666667 L 14.0 82.33333333333333 L 15.0 82.66666666666667 L 16.0 83.33333333333333 L 17.0 83.66666666666667 L 18.0 84.33333333333333 L 19.0 84.66666666666667 L 19.5 85.0 Z" stroke="none" fill="rgb(1,87,155)" />
<path d="M 59.0 78.5 L 58.666666666666664 78.0 L 58.0 77.33333333333333 L 57.0 76.66666666666667 L 56.0 76.33333333333333 L 55.0 76.0 L 54.333333333333336 76.33333333333333 L 54.0 77.0 L 54.333333333333336 78.0 L 54.666666666666664 79.0 L 55.333333333333336 79.66666666666667 L 56.0 80.0 L 57.0 80.0 L 58.0 79.66666666666667 L 58.5 79.5 Z" stroke="none" fill="rgb(154,203,100)" />
<path d="M 110.5 88.0 L 111.0 88.0 L 112.0 88.0 L 113.0 87.66666666666667 L 114.0 87.0 L 114.66666666666667 86.0 L 114.66666666666667 85.0 L 114.33333333333333 84.0 L 113.66666666666667 83.0 L 113.33333333333333 82.0 L 113.0 81.0 L 112.66666666666667 80.0 L 112.0 79.0 L 111.33333333333333 78.0 L 110.66666666666667 77.33333333333333 L 110.0 77.0 L 109.33333333333333 77.33333333333333 L 109.0 78.0 L 109.0 79.0 L 109.0 80.0 L 109.33333333333333 81.0 L 109.66666666666667 82.0 L 109.66666666666667 83.0 L 109.0 84.0 L 108.0 85.0 L 107.0 85.66666666666667 L 106.0 86.0 L 105.0 86.0 L 104.0 86.0 L 103.0 86.33333333333333 L 102.0 86.66666666666667 L 101.0 87.0 L 100.0 87.0 L 99.0 87.0 L 98.0 87.33333333333333 L 97.0 87.66666666666667 L 96.0 88.0 L 95.0 88.0 L 94.0 88.0 L 93.0 88.33333333333333 L 92.0 88.66666666666667 L 91.0 89.0 L 90.0 89.0 L 89.0 89.0 L 88.0 89.33333333333333 L 87.0 89.66666666666667 L 86.0 90.0 L 85.0 90.0 L 84.0 90.0 L 83.0 90.33333333333333 L 82.0 90.66666666666667 L 81.0 91.0 L 80.0 91.0 L 79.0 91.33333333333333 L 78.0 91.66666666666667 L 77.0 92.0 L 76.0 92.0 L 75.0 92.0 L 74.0 92.33333333333333 L 73.0 92.66666666666667 L 72.0 93.0 L 71.0 93.0 L 70.0 93.0 L 69.0 93.33333333333333 L 68.0 93.66666666666667 L 67.0 94.0 L 66.0 94.0 L 65.0 94.0 L 64.0 94.33333333333333 L 63.0 94.66666666666667 L 62.0 95.0 L 61.0 95.0 L 60.0 95.0 L 59.0 95.33333333333333 L 58.0 95.66666666666667 L 57.333333333333336 96.33333333333333 L 57.0 97.0 L 57.333333333333336 97.66666666666667 L 58.0 98.0 L 59.0 98.0 L 60.0 98.0 L 61.0 98.0 L 62.0 98.0 L 63.0 98.0 L 64.0 98.0 L 65.0 97.66666666666667 L 66.0 97.33333333333333 L 67.0 97.0 L 68.0 97.0 L 69.0 97.0 L 70.0 96.66666666666667 L 71.0 96.33333333333333 L 72.0 96.0 L 73.0 96.0 L 74.0 96.0 L 75.0 95.66666666666667 L 76.0 95.33333333333333 L 77.0 95.0 L 78.0 95.0 L 79.0 95.0 L 80.0 94.66666666666667 L 81.0 94.33333333333333 L 82.0 94.0 L 83.0 94.0 L 84.0 94.0 L 85.0 93.66666666666667 L 86.0 93.33333333333333 L 87.0 93.0 L 88.0 93.0 L 89.0 92.66666666666667 L 90.0 92.33333333333333 L 91.0 92.0 L 92.0 92.0 L 93.0 92.0 L 94.0 91.66666666666667 L 95.0 91.33333333333333 L 96.0 91.0 L 97.0 91.0 L 98.0 91.0 L 99.0 90.66666666666667 L 100.0 90.33333333333333 L 101.0 90.0 L 102.0 90.0 L 103.0 90.0 L 104.0 90.0 L 105.0 90.0 L 106.0 89.66666666666667 L 107.0 89.33333333333333 L 108.0 89.0 L 109.0 88.66666666666667 L 109.5 88.5 Z" stroke="none" fill="rgb(105,158,57)" />
<path d="M 24.5 100.0 L 25.0 100.33333333333333 L 26.0 100.66666666666667 L 27.0 101.33333333333333 L 28.0 101.66666666666667 L 29.0 102.33333333333333 L 30.0 102.66666666666667 L 31.0 103.33333333333333 L 32.0 103.66666666666667 L 33.0 104.33333333333333 L 34.0 104.66666666666667 L 35.0 105.33333333333333 L 36.0 105.66666666666667 L 37.0 106.33333333333333 L 38.0 106.66666666666667 L 39.0 107.33333333333333 L 40.0 107.66666666666667 L 41.0 108.33333333333333 L 42.0 108.66666666666667 L 43.0 109.33333333333333 L 44.0 109.66666666666667 L 45.0 110.33333333333333 L 46.0 110.66666666666667 L 47.0 111.33333333333333 L 48.0 111.66666666666667 L 49.0 112.33333333333333 L 50.0 112.66666666666667 L 51.0 113.33333333333333 L 52.0 113.66666666666667 L 53.0 114.33333333333333 L 54.0 114.66666666666667 L 55.0 115.33333333333333 L 56.0 115.66666666666667 L 57.0 116.33333333333333 L 58.0 116.66666666666667 L 59.0 117.33333333333333 L 60.0 117.66666666666667 L 61.0 118.33333333333333 L 62.0 118.66666666666667 L 63.0 119.33333333333333 L 64.0 119.66666666666667 L 65.0 120.0 L 66.0 120.0 L 66.66666666666667 119.66666666666667 L 67.33333333333333 119.0 L 68.0 118.0 L 69.0 117.0 L 69.66666666666667 116.0 L 70.0 115.0 L 70.0 114.0 L 70.0 113.0 L 69.66666666666667 112.0 L 69.33333333333333 111.0 L 68.66666666666667 110.0 L 68.0 109.33333333333333 L 67.0 108.66666666666667 L 66.0 108.0 L 65.0 107.33333333333333 L 64.0 106.66666666666667 L 63.0 106.33333333333333 L 62.0 105.66666666666667 L 61.0 105.33333333333333 L 60.0 104.66666666666667 L 59.0 104.33333333333333 L 58.0 103.66666666666667 L 57.0 103.33333333333333 L 56.0 102.66666666666667 L 55.0 102.33333333333333 L 54.0 101.66666666666667 L 53.0 101.33333333333333 L 52.0 100.66666666666667 L 51.0 100.33333333333333 L 50.0 100.0 L 49.0 100.0 L 48.0 100.0 L 47.0 100.0 L 46.0 100.0 L 45.0 100.0 L 44.0 100.0 L 43.0 99.66666666666667 L 42.0 99.0 L 41.0 98.0 L 40.0 97.0 L 39.0 96.0 L 38.0 95.0 L 37.0 94.0 L 36.0 93.0 L 35.0 92.33333333333333 L 34.0 91.66666666666667 L 33.0 91.33333333333333 L 32.0 90.66666666666667 L 31.0 90.33333333333333 L 30.0 89.66666666666667 L 29.0 89.33333333333333 L 28.0 88.66666666666667 L 27.0 88.33333333333333 L 26.0 87.66666666666667 L 25.0 87.33333333333333 L 24.0 86.66666666666667 L 23.0 86.33333333333333 L 22.0 85.66666666666667 L 21.0 85.33333333333333 L 20.0 84.66666666666667 L 19.0 84.33333333333333 L 18.0 83.66666666666667 L 17.0 83.33333333333333 L 16.0 82.66666666666667 L 15.0 82.33333333333333 L 14.0 81.66666666666667 L 13.0 81.0 L 12.0 80.33333333333333 L 11.0 80.0 L 10.0 80.0 L 9.333333333333334 80.33333333333333 L 9.0 81.0 L 9.0 82.0 L 8.666666666666666 83.0 L 8.333333333333334 84.0 L 8.0 85.0 L 8.0 86.0 L 8.0 87.0 L 8.0 88.0 L 8.0 89.0 L 8.0 90.0 L 8.333333333333334 91.0 L 9.0 91.66666666666667 L 10.0 92.33333333333333 L 11.0 93.0 L 12.0 93.66666666666667 L 13.0 94.33333333333333 L 14.0 94.66666666666667 L 15.0 95.33333333333333 L 16.0 95.66666666666667 L 17.0 96.33333333333333 L 18.0 96.66666666666667 L 19.0 97.33333333333333 L 20.0 97.66666666666667 L 21.0 98.33333333333333 L 22.0 98.66666666666667 L 23.0 99.33333333333333 L 23.5 99.5 Z" stroke="none" fill="rgb(245,245,245)" />
<path d="M 113.5 83.5 L 113.66666666666667 84.0 L 114.33333333333333 85.0 L 115.0 85.66666666666667 L 116.0 86.0 L 117.0 86.0 L 118.0 86.0 L 119.0 86.33333333333333 L 120.0 87.0 L 121.0 87.66666666666667 L 121.66666666666667 87.66666666666667 L 122.0 87.0 L 121.66666666666667 86.0 L 121.0 85.0 L 120.0 84.0 L 119.0 83.33333333333333 L 118.0 82.66666666666667 L 117.0 82.33333333333333 L 116.0 81.66666666666667 L 115.0 81.33333333333333 L 114.0 81.0 L 113.33333333333333 81.33333333333333 L 113.0 82.0 L 113.0 82.5 Z" stroke="none" fill="rgb(97,97,97)" />
<path d="M 24.5 103.5 L 25.0 103.66666666666667 L 26.0 104.33333333333333 L 27.0 104.66666666666667 L 28.0 105.33333333333333 L 29.0 105.66666666666667 L 30.0 106.33333333333333 L 31.0 106.66666666666667 L 32.0 107.33333333333333 L 33.0 108.0 L 34.0 108.66666666666667 L 35.0 109.33333333333333 L 36.0 109.66666666666667 L 37.0 110.33333333333333 L 38.0 110.66666666666667 L 39.0 111.33333333333333 L 40.0 111.66666666666667 L 41.0 112.33333333333333 L 42.0 112.66666666666667 L 43.0 113.33333333333333 L 44.0 113.66666666666667 L 45.0 114.33333333333333 L 46.0 114.66666666666667 L 47.0 115.33333333333333 L 48.0 115.66666666666667 L 49.0 116.33333333333333 L 50.0 116.66666666666667 L 51.0 117.33333333333333 L 52.0 117.66666666666667 L 53.0 118.33333333333333 L 54.0 118.66666666666667 L 55.0 119.33333333333333 L 56.0 119.66666666666667 L 57.0 120.33333333333333 L 58.0 120.66666666666667 L 59.0 121.33333333333333 L 60.0 121.66666666666667 L 61.0 122.33333333333333 L 62.0 122.66666666666667 L 63.0 123.33333333333333 L 64.0 123.66666666666667 L 65.0 124.0 L 66.0 124.0 L 67.0 124.0 L 68.0 124.0 L 69.0 124.0 L 70.0 124.0 L 71.0 124.0 L 72.0 124.0 L 73.0 123.66666666666667 L 74.0 123.33333333333333 L 75.0 122.66666666666667 L 76.0 122.33333333333333 L 77.0 121.66666666666667 L 78.0 121.33333333333333 L 79.0 120.66666666666667 L 80.0 120.33333333333333 L 81.0 120.0 L 82.0 119.66666666666667 L 83.0 119.33333333333333 L 84.0 118.66666666666667 L 85.0 118.33333333333333 L 86.0 117.66666666666667 L 87.0 117.33333333333333 L 88.0 116.66666666666667 L 89.0 116.33333333333333 L 90.0 115.66666666666667 L 91.0 115.33333333333333 L 92.0 115.0 L 93.0 114.66666666666667 L 94.0 114.33333333333333 L 95.0 113.66666666666667 L 96.0 113.33333333333333 L 97.0 112.66666666666667 L 98.0 112.33333333333333 L 99.0 111.66666666666667 L 100.0 111.33333333333333 L 101.0 111.0 L 102.0 110.66666666666667 L 103.0 110.33333333333333 L 104.0 109.66666666666667 L 105.0 109.0 L 105.66666666666667 108.0 L 105.66666666666667 107.0 L 105.0 106.33333333333333 L 104.0 106.0 L 103.0 106.0 L 102.0 106.33333333333333 L 101.0 106.66666666666667 L 100.0 107.33333333333333 L 99.0 107.66666666666667 L 98.0 108.33333333333333 L 97.0 108.66666666666667 L 96.0 109.33333333333333 L 95.0 109.66666666666667 L 94.0 110.33333333333333 L 93.0 110.66666666666667 L 92.0 111.0 L 91.0 111.33333333333333 L 90.0 111.66666666666667 L 89.0 112.33333333333333 L 88.0 112.66666666666667 L 87.0 113.33333333333333 L 86.0 113.66666666666667 L 85.0 114.33333333333333 L 84.0 114.66666666666667 L 83.0 115.0 L 82.0 115.33333333333333 L 81.0 115.66666666666667 L 80.0 116.33333333333333 L 79.0 116.66666666666667 L 78.0 117.33333333333333 L 77.0 117.66666666666667 L 76.0 118.33333333333333 L 75.0 118.66666666666667 L 74.0 119.33333333333333 L 73.0 119.66666666666667 L 72.0 120.0 L 71.0 120.0 L 70.0 120.0 L 69.0 120.0 L 68.0 120.0 L 67.0 120.0 L 66.0 120.0 L 65.0 119.66666666666667 L 64.0 119.33333333333333 L 63.0 118.66666666666667 L 62.0 118.33333333333333 L 61.0 117.66666666666667 L 60.0 117.33333333333333 L 59.0 116.66666666666667 L 58.0 116.33333333333333 L 57.0 115.66666666666667 L 56.0 115.33333333333333 L 55.0 114.66666666666667 L 54.0 114.33333333333333 L 53.0 113.66666666666667 L 52.0 113.33333333333333 L 51.0 112.66666666666667 L 50.0 112.33333333333333 L 49.0 111.66666666666667 L 48.0 111.33333333333333 L 47.0 110.66666666666667 L 46.0 110.33333333333333 L 45.0 109.66666666666667 L 44.0 109.33333333333333 L 43.0 108.66666666666667 L 42.0 108.33333333333333 L 41.0 107.66666666666667 L 40.0 107.33333333333333 L 39.0 106.66666666666667 L 38.0 106.33333333333333 L 37.0 105.66666666666667 L 36.0 105.33333333333333 L 35.0 104.66666666666667 L 34.0 104.33333333333333 L 33.0 103.66666666666667 L 32.0 103.33333333333333 L 31.0 102.66666666666667 L 30.0 102.33333333333333 L 29.0 101.66666666666667 L 28.0 101.33333333333333 L 27.0 100.66666666666667 L 26.0 100.33333333333333 L 25.0 99.66666666666667 L 24.0 99.33333333333333 L 23.0 98.66666666666667 L 22.0 98.33333333333333 L 21.0 97.66666666666667 L 20.0 97.33333333333333 L 19.0 96.66666666666667 L 18.0 96.33333333333333 L 17.0 95.66666666666667 L 16.0 95.33333333333333 L 15.0 94.66666666666667 L 14.0 94.33333333333333 L 13.0 93.66666666666667 L 12.0 93.0 L 11.0 92.33333333333333 L 10.0 91.66666666666667 L 9.0 91.0 L 8.333333333333334 90.0 L 8.0 89.0 L 8.0 88.0 L 8.0 87.0 L 7.666666666666667 86.33333333333333 L 7.0 86.0 L 6.0 86.33333333333333 L 5.0 86.66666666666667 L 4.333333333333333 87.33333333333333 L 4.0 88.0 L 4.0 89.0 L 4.0 90.0 L 4.0 91.0 L 4.0 92.0 L 4.333333333333333 93.0 L 5.0 93.66666666666667 L 6.0 94.33333333333333 L 7.0 94.66666666666667 L 8.0 95.33333333333333 L 9.0 95.66666666666667 L 10.0 96.33333333333333 L 11.0 96.66666666666667 L 12.0 97.33333333333333 L 13.0 97.66666666666667 L 14.0 98.33333333333333 L 15.0 98.66666666666667 L 16.0 99.33333333333333 L 17.0 99.66666666666667 L 18.0 100.33333333333333 L 19.0 100.66666666666667 L 20.0 101.33333333333333 L 21.0 101.66666666666667 L 22.0 102.33333333333333 L 23.0 102.66666666666667 L 23.5 103.0 Z" stroke="none" fill="rgb(1,87,155)" />
<path d="M 123.0 99.5 L 123.33333333333333 99.0 L 123.66666666666667 98.0 L 124.0 97.0 L 124.0 96.0 L 124.0 95.0 L 124.0 94.0 L 124.0 93.0 L 124.0 92.0 L 124.0 91.0 L 123.66666666666667 90.0 L 123.0 89.0 L 122.0 88.0 L 121.0 87.0 L 120.0 86.33333333333333 L 119.0 86.0 L 118.0 86.0 L 117.0 86.0 L 116.0 86.0 L 115.0 86.0 L 114.0 86.33333333333333 L 113.0 87.0 L 112.0 87.66666666666667 L 111.0 88.0 L 110.0 88.0 L 109.0 88.33333333333333 L 108.0 88.66666666666667 L 107.0 89.0 L 106.0 89.33333333333333 L 105.33333333333333 90.0 L 105.33333333333333 91.0 L 106.0 91.66666666666667 L 107.0 92.0 L 108.0 92.0 L 109.0 91.66666666666667 L 110.0 91.33333333333333 L 111.0 90.66666666666667 L 112.0 90.33333333333333 L 113.0 90.0 L 114.0 89.66666666666667 L 115.0 89.33333333333333 L 116.0 89.0 L 117.0 89.33333333333333 L 118.0 90.0 L 119.0 91.0 L 119.66666666666667 92.0 L 120.0 93.0 L 120.0 94.0 L 120.0 95.0 L 119.66666666666667 96.0 L 119.0 97.0 L 118.0 98.0 L 117.0 99.0 L 116.0 99.66666666666667 L 115.0 100.33333333333333 L 114.0 100.66666666666667 L 113.0 101.33333333333333 L 112.0 101.66666666666667 L 111.0 102.33333333333333 L 110.0 102.66666666666667 L 109.0 103.33333333333333 L 108.0 103.66666666666667 L 107.0 104.0 L 106.33333333333333 104.33333333333333 L 105.66666666666667 105.0 L 105.33333333333333 106.0 L 105.33333333333333 107.0 L 106.0 107.66666666666667 L 107.0 108.0 L 108.0 107.66666666666667 L 109.0 107.33333333333333 L 110.0 107.0 L 111.0 106.66666666666667 L 112.0 106.33333333333333 L 113.0 105.66666666666667 L 114.0 105.33333333333333 L 115.0 104.66666666666667 L 116.0 104.33333333333333 L 117.0 103.66666666666667 L 118.0 103.33333333333333 L 119.0 102.66666666666667 L 120.0 102.33333333333333 L 121.0 101.66666666666667 L 122.0 101.0 L 122.5 100.5 Z" stroke="none" fill="rgb(66,66,66)" />
<path d="M 95.5 110.0 L 96.0 109.66666666666667 L 97.0 109.33333333333333 L 98.0 108.66666666666667 L 99.0 108.33333333333333 L 100.0 107.66666666666667 L 101.0 107.33333333333333 L 102.0 106.66666666666667 L 103.0 106.33333333333333 L 104.0 106.0 L 105.0 106.0 L 105.66666666666667 105.66666666666667 L 106.33333333333333 105.0 L 107.0 104.33333333333333 L 108.0 104.0 L 109.0 103.66666666666667 L 110.0 103.33333333333333 L 111.0 102.66666666666667 L 112.0 102.33333333333333 L 113.0 101.66666666666667 L 114.0 101.33333333333333 L 115.0 100.66666666666667 L 116.0 100.33333333333333 L 117.0 99.66666666666667 L 118.0 99.0 L 119.0 98.0 L 119.66666666666667 97.0 L 120.0 96.0 L 120.0 95.0 L 120.0 94.0 L 120.0 93.0 L 120.0 92.0 L 119.66666666666667 91.0 L 119.0 90.0 L 118.0 89.33333333333333 L 117.0 89.0 L 116.0 89.0 L 115.0 89.0 L 114.0 89.33333333333333 L 113.0 89.66666666666667 L 112.0 90.0 L 111.0 90.33333333333333 L 110.0 90.66666666666667 L 109.0 91.33333333333333 L 108.0 91.66666666666667 L 107.0 92.0 L 106.0 92.33333333333333 L 105.0 93.0 L 104.0 93.66666666666667 L 103.0 94.0 L 102.0 94.33333333333333 L 101.0 94.66666666666667 L 100.0 95.33333333333333 L 99.0 95.66666666666667 L 98.0 96.33333333333333 L 97.0 96.66666666666667 L 96.0 97.33333333333333 L 95.0 97.66666666666667 L 94.0 98.0 L 93.0 98.33333333333333 L 92.0 98.66666666666667 L 91.0 99.33333333333333 L 90.0 99.66666666666667 L 89.0 100.33333333333333 L 88.0 100.66666666666667 L 87.0 101.33333333333333 L 86.0 101.66666666666667 L 85.0 102.0 L 84.0 102.33333333333333 L 83.0 102.66666666666667 L 82.0 103.33333333333333 L 81.0 103.66666666666667 L 80.0 104.33333333333333 L 79.0 104.66666666666667 L 78.0 105.33333333333333 L 77.0 105.66666666666667 L 76.0 106.0 L 75.0 106.33333333333333 L 74.0 106.66666666666667 L 73.0 107.33333333333333 L 72.0 107.66666666666667 L 71.0 108.0 L 70.0 108.0 L 69.0 108.0 L 68.33333333333333 108.33333333333333 L 68.0 109.0 L 68.33333333333333 110.0 L 68.66666666666667 111.0 L 69.33333333333333 112.0 L 69.66666666666667 113.0 L 70.0 114.0 L 69.66666666666667 115.0 L 69.0 116.0 L 68.0 117.0 L 67.33333333333333 118.0 L 67.0 119.0 L 67.33333333333333 119.66666666666667 L 68.0 120.0 L 69.0 120.0 L 70.0 120.0 L 71.0 120.0 L 72.0 120.0 L 73.0 120.0 L 74.0 119.66666666666667 L 75.0 119.33333333333333 L 76.0 118.66666666666667 L 77.0 118.33333333333333 L 78.0 117.66666666666667 L 79.0 117.33333333333333 L 80.0 116.66666666666667 L 81.0 116.33333333333333 L 82.0 115.66666666666667 L 83.0 115.33333333333333 L 84.0 115.0 L 85.0 114.66666666666667 L 86.0 114.33333333333333 L 87.0 113.66666666666667 L 88.0 113.33333333333333 L 89.0 112.66666666666667 L 90.0 112.33333333333333 L 91.0 111.66666666666667 L 92.0 111.33333333333333 L 93.0 111.0 L 94.0 110.66666666666667 L 94.5 110.5 Z" stroke="none" fill="rgb(148,198,214)" />
<path d="M 95.5 98.0 L 96.0 97.66666666666667 L 97.0 97.33333333333333 L 98.0 96.66666666666667 L 99.0 96.33333333333333 L 100.0 95.66666666666667 L 101.0 95.33333333333333 L 102.0 94.66666666666667 L 103.0 94.33333333333333 L 104.0 94.0 L 105.0 93.66666666666667 L 105.66666666666667 93.0 L 106.0 92.0 L 105.66666666666667 91.0 L 105.0 90.33333333333333 L 104.0 90.0 L 103.0 90.0 L 102.0 90.0 L 101.0 90.0 L 100.0 90.0 L 99.0 90.33333333333333 L 98.0 90.66666666666667 L 97.0 91.0 L 96.0 91.0 L 95.0 91.0 L 94.0 91.33333333333333 L 93.0 91.66666666666667 L 92.0 92.0 L 91.0 92.0 L 90.0 92.0 L 89.0 92.33333333333333 L 88.0 92.66666666666667 L 87.0 93.0 L 86.0 93.0 L 85.0 93.33333333333333 L 84.0 93.66666666666667 L 83.0 94.0 L 82.0 94.0 L 81.0 94.0 L 80.0 94.33333333333333 L 79.0 94.66666666666667 L 78.0 95.0 L 77.0 95.0 L 76.0 95.0 L 75.0 95.33333333333333 L 74.0 95.66666666666667 L 73.0 96.0 L 72.0 96.0 L 71.0 96.0 L 70.0 96.33333333333333 L 69.0 96.66666666666667 L 68.0 97.0 L 67.0 97.0 L 66.0 97.0 L 65.0 97.33333333333333 L 64.0 97.66666666666667 L 63.0 98.0 L 62.0 98.0 L 61.0 98.0 L 60.0 98.0 L 59.0 98.0 L 58.0 98.0 L 57.0 98.33333333333333 L 56.0 98.66666666666667 L 55.0 99.0 L 54.0 99.33333333333333 L 53.333333333333336 100.0 L 53.0 101.0 L 53.333333333333336 101.66666666666667 L 54.0 102.33333333333333 L 55.0 102.66666666666667 L 56.0 103.33333333333333 L 57.0 103.66666666666667 L 58.0 104.33333333333333 L 59.0 104.66666666666667 L 60.0 105.33333333333333 L 61.0 105.66666666666667 L 62.0 106.33333333333333 L 63.0 106.66666666666667 L 64.0 107.33333333333333 L 65.0 108.0 L 66.0 108.66666666666667 L 67.0 109.0 L 68.0 108.66666666666667 L 69.0 108.33333333333333 L 70.0 108.0 L 71.0 108.0 L 72.0 108.0 L 73.0 107.66666666666667 L 74.0 107.33333333333333 L 75.0 106.66666666666667 L 76.0 106.33333333333333 L 77.0 106.0 L 78.0 105.66666666666667 L 79.0 105.33333333333333 L 80.0 104.66666666666667 L 81.0 104.33333333333333 L 82.0 103.66666666666667 L 83.0 103.33333333333333 L 84.0 102.66666666666667 L 85.0 102.33333333333333 L 86.0 102.0 L 87.0 101.66666666666667 L 88.0 101.33333333333333 L 89.0 100.66666666666667 L 90.0 100.33333333333333 L 91.0 99.66666666666667 L 92.0 99.33333333333333 L 93.0 98.66666666666667 L 94.0 98.33333333333333 L 94.5 98.0 Z" stroke="none" fill="rgb(1,87,155)" />
<path d="M 81.5 100.5 L 82.0 100.33333333333333 L 83.0 99.66666666666667 L 84.0 99.33333333333333 L 85.0 98.66666666666667 L 86.0 98.33333333333333 L 87.0 97.66666666666667 L 88.0 97.33333333333333 L 89.0 97.0 L 90.0 96.66666666666667 L 91.0 96.0 L 91.66666666666667 95.0 L 91.66666666666667 94.33333333333333 L 91.0 94.0 L 90.0 94.33333333333333 L 89.0 94.66666666666667 L 88.0 95.0 L 87.0 95.0 L 86.0 95.0 L 85.0 95.33333333333333 L 84.0 95.66666666666667 L 83.0 96.0 L 82.0 96.0 L 81.0 96.0 L 80.0 96.33333333333333 L 79.0 96.66666666666667 L 78.0 97.0 L 77.0 97.0 L 76.0 97.33333333333333 L 75.0 97.66666666666667 L 74.0 98.0 L 73.0 98.0 L 72.0 98.0 L 71.0 98.33333333333333 L 70.0 98.66666666666667 L 69.0 99.0 L 68.0 99.0 L 67.0 99.0 L 66.0 99.33333333333333 L 65.0 99.66666666666667 L 64.0 100.0 L 63.0 100.0 L 62.0 100.0 L 61.333333333333336 100.33333333333333 L 61.0 101.0 L 61.333333333333336 102.0 L 62.0 103.0 L 63.0 103.66666666666667 L 64.0 104.0 L 65.0 104.0 L 66.0 104.0 L 67.0 104.0 L 68.0 104.0 L 69.0 104.0 L 70.0 104.0 L 71.0 104.0 L 72.0 104.0 L 73.0 104.0 L 74.0 103.66666666666667 L 75.0 103.33333333333333 L 76.0 102.66666666666667 L 77.0 102.33333333333333 L 78.0 101.66666666666667 L 79.0 101.33333333333333 L 80.0 101.0 L 80.5 101.0 Z" stroke="none" fill="rgb(0,144,233)" />
</svg>
