<?xml version="1.0" encoding="UTF-8" standalone="no"?>
<!DOCTYPE svg PUBLIC "-//W3C//DTD SVG 1.1//EN"
"http://www.w3.org/Graphics/SVG/1.1/DTD/svg11.dtd">
<svg width="128" height="128" xmlns="http://www.w3.org/2000/svg" version="1.1">
<path d="M 88.5 128.0 L 89.0 128.0 L 90.0 128.0 L 91.0 128.0 L 92.0 128.0 L 93.0 128.0 L 94.0 128.0 L 95.0 128.0 L 96.0 128.0 L 97.0 128.0 L 98.0 128.0 L 99.0 128.0 L 100.0 128.0 L 101.0 128.0 L 102.0 128.0 L 103.0 128.0 L 104.0 128.0 L 105.0 128.0 L 106.0 128.0 L 107.0 128.0 L 108.0 128.0 L 109.0 128.0 L 110.0 128.0 L 111.0 128.0 L 112.0 128.0 L 113.0 128.0 L 114.0 128.0 L 115.0 128.0 L 116.0 128.0 L 117.0 128.0 L 118.0 128.0 L 119.0 128.0 L 120.0 128.0 L 121.0 128.0 L 122.0 128.0 L 123.0 128.0 L 124.0 128.0 L 125.0 128.0 L 126.0 128.0 L 127.0 128.0 L 127.66666666666667 127.66666666666667 L 128.0 127.0 L 128.0 126.0 L 128.0 125.0 L 128.0 124.0 L 128.0 123.0 L 128.0 122.0 L 128.0 121.0 L 128.0 120.0 L 128.0 119.0 L 128.0 118.0 L 128.0 117.0 L 128.0 116.0 L 128.0 115.0 L 128.0 114.0 L 128.0 113.0 L 128.0 112.0 L 128.0 111.0 L 128.0 110.0 L 128.0 109.0 L 128.0 108.0 L 128.0 107.0 L 128.0 106.0 L 128.0 105.0 L 128.0 104.0 L 128.0 103.0 L 128.0 102.0 L 128.0 101.0 L 128.0 100.0 L 128.0 99.0 L 128.0 98.0 L 128.0 97.0 L 128.0 96.0 L 128.0 95.0 L 128.0 94.0 L 128.0 93.0 L 128.0 92.0 L 128.0 91.0 L 128.0 90.0 L 128.0 89.0 L 128.0 88.0 L 128.0 87.0 L 128.0 86.0 L 128.0 85.0 L 128.0 84.0 L 128.0 83.0 L 128.0 82.0 L 128.0 81.0 L 128.0 80.0 L 128.0 79.0 L 128.0 78.0 L 128.0 77.0 L 128.0 76.0 L 128.0 75.0 L 128.0 74.0 L 128.0 73.0 L 128.0 72.0 L 128.0 71.0 L 128.0 70.0 L 128.0 69.0 L 128.0 68.0 L 128.0 67.0 L 128.0 66.0 L 128.0 65.0 L 128.0 64.0 L 128.0 63.0 L 128.0 62.0 L 128.0 61.0 L 128.0 60.0 L 128.0 59.0 L 128.0 58.0 L 128.0 57.0 L 128.0 56.0 L 128.0 55.0 L 128.0 54.0 L 128.0 53.0 L 128.0 52.0 L 128.0 51.0 L 128.0 50.0 L 128.0 49.0 L 128.0 48.0 L 128.0 47.0 L 128.0 46.0 L 128.0 45.0 L 128.0 44.0 L 128.0 43.0 L 128.0 42.0 L 128.0 41.0 L 128.0 40.0 L 128.0 39.0 L 128.0 38.0 L 128.0 37.0 L 128.0 36.0 L 128.0 35.0 L 128.0 34.0 L 128.0 33.0 L 128.0 32.0 L 128.0 31.0 L 128.0 30.0 L 128.0 29.0 L 128.0 28.0 L 128.0 27.0 L 128.0 26.0 L 128.0 25.0 L 128.0 24.0 L 128.0 23.0 L 128.0 22.0 L 128.0 21.0 L 128.0 20.0 L 128.0 19.0 L 128.0 18.0 L 128.0 17.0 L 128.0 16.0 L 128.0 15.0 L 128.0 14.0 L 128.0 13.0 L 128.0 12.0 L 128.0 11.0 L 128.0 10.0 L 128.0 9.0 L 128.0 8.0 L 128.0 7.0 L 128.0 6.0 L 128.0 5.0 L 128.0 4.0 L 128.0 3.0 L 128.0 2.0 L 128.0 1.0 L 127.66666666666667 0.3333333333333333 L 127.0 0.0 L 126.0 0.0 L 125.0 0.0 L 124.0 0.0 L 123.0 0.0 L 122.0 0.0 L 121.0 0.0 L 120.0 0.0 L 119.0 0.0 L 118.0 0.0 L 117.0 0.0 L 116.0 0.0 L 115.0 0.0 L 114.0 0.0 L 113.0 0.0 L 112.0 0.0 L 111.0 0.0 L 110.0 0.0 L 109.0 0.0 L 108.0 0.0 L 107.0 0.0 L 106.0 0.0 L 105.0 0.0 L 104.0 0.0 L 103.0 0.0 L 102.0 0.0 L 101.0 0.0 L 100.0 0.0 L 99.0 0.0 L 98.0 0.0 L 97.0 0.0 L 96.0 0.0 L 95.0 0.0 L 94.0 0.0 L 93.0 0.0 L 92.0 0.0 L 91.0 0.0 L 90.0 0.0 L 89.0 0.0 L 88.0 0.0 L 87.0 0.0 L 86.0 0.0 L 85.0 0.0 L 84.0 0.0 L 83.0 0.0 L 82.0 0.0 L 81.0 0.0 L 80.0 0.0 L 79.0 0.0 L 78.0 0.0 L 77.0 0.0 L 76.0 0.0 L 75.0 0.0 L 74.0 0.0 L 73.0 0.0 L 72.0 0.0 L 71.0 0.0 L 70.0 0.0 L 69.0 0.0 L 68.0 0.0 L 67.0 0.0 L 66.0 0.0 L 65.0 0.0 L 64.0 0.0 L 63.0 0.0 L 62.0 0.0 L 61.0 0.0 L 60.0 0.0 L 59.0 0.0 L 58.0 0.0 L 57.0 0.0 L 56.0 0.0 L 55.0 0.0 L 54.0 0.0 L 53.0 0.0 L 52.0 0.0 L 51.0 0.0 L 50.0 0.0 L 49.0 0.0 L 48.0 0.0 L 47.0 0.0 L 46.0 0.0 L 45.0 0.0 L 44.0 0.0 L 43.0 0.0 L 42.0 0.0 L 41.0 0.0 L 40.0 0.0 L 39.0 0.0 L 38.0 0.0 L 37.0 0.0 L 36.0 0.0 L 35.0 0.0 L 34.0 0.0 L 33.0 0.0 L 32.0 0.0 L 31.0 0.0 L 30.0 0.0 L 29.0 0.0 L 28.0 0.0 L 27.0 0.0 L 26.0 0.0 L 25.0 0.0 L 24.0 0.0 L 23.0 0.0 L 22.0 0.0 L 21.0 0.0 L 20.0 0.0 L 19.0 0.0 L 18.0 0.0 L 17.0 0.0 L 16.0 0.0 L 15.0 0.0 L 14.0 0.0 L 13.0 0.0 L 12.0 0.0 L 11.0 0.0 L 10.0 0.0 L 9.0 0.0 L 8.0 0.0 L 7.0 0.0 L 6.0 0.0 L 5.0 0.0 L 4.0 0.0 L 3.0 0.0 L 2.0 0.0 L 1.0 0.0 L 0.3333333333333333 0.3333333333333333 L 0.0 1.0 L 0.0 2.0 L 0.0 3.0 L 0.0 4.0 L 0.0 5.0 L 0.0 6.0 L 0.0 7.0 L 0.0 8.0 L 0.0 9.0 L 0.0 10.0 L 0.0 11.0 L 0.0 12.0 L 0.0 13.0 L 0.0 14.0 L 0.0 15.0 L 0.0 16.0 L 0.0 17.0 L 0.0 18.0 L 0.0 19.0 L 0.0 20.0 L 0.0 21.0 L 0.0 22.0 L 0.0 23.0 L 0.0 24.0 L 0.0 25.0 L 0.0 26.0 L 0.0 27.0 L 0.0 28.0 L 0.0 29.0 L 0.0 30.0 L 0.0 31.0 L 0.0 32.0 L 0.0 33.0 L 0.0 34.0 L 0.0 35.0 L 0.0 36.0 L 0.0 37.0 L 0.0 38.0 L 0.0 39.0 L 0.0 40.0 L 0.0 41.0 L 0.0 42.0 L 0.0 43.0 L 0.0 44.0 L 0.0 45.0 L 0.0 46.0 L 0.0 47.0 L 0.0 48.0 L 0.0 49.0 L 0.0 50.0 L 0.0 51.0 L 0.0 52.0 L 0.0 53.0 L 0.0 54.0 L 0.0 55.0 L 0.0 56.0 L 0.0 57.0 L 0.0 58.0 L 0.0 59.0 L 0.0 60.0 L 0.0 61.0 L 0.0 62.0 L 0.0 63.0 L 0.0 64.0 L 0.0 65.0 L 0.0 66.0 L 0.0 67.0 L 0.0 68.0 L 0.0 69.0 L 0.0 70.0 L 0.0 71.0 L 0.0 72.0 L 0.0 73.0 L 0.0 74.0 L 0.0 75.0 L 0.0 76.0 L 0.0 77.0 L 0.0 78.0 L 0.0 79.0 L 0.0 80.0 L 0.0 81.0 L 0.0 82.0 L 0.0 83.0 L 0.0 84.0 L 0.0 85.0 L 0.0 86.0 L 0.0 87.0 L 0.0 88.0 L 0.0 89.0 L 0.0 90.0 L 0.0 91.0 L 0.0 92.0 L 0.0 93.0 L 0.0 94.0 L 0.0 95.0 L 0.0 96.0 L 0.0 97.0 L 0.0 98.0 L 0.0 99.0 L 0.0 100.0 L 0.0 101.0 L 0.0 102.0 L 0.0 103.0 L 0.0 104.0 L 0.0 105.0 L 0.0 106.0 L 0.0 107.0 L 0.0 108.0 L 0.0 109.0 L 0.0 110.0 L 0.0 111.0 L 0.0 112.0 L 0.0 113.0 L 0.0 114.0 L 0.0 115.0 L 0.0 116.0 L 0.0 117.0 L 0.0 118.0 L 0.0 119.0 L 0.0 120.0 L 0.0 121.0 L 0.0 122.0 L 0.0 123.0 L 0.0 124.0 L 0.0 125.0 L 0.0 126.0 L 0.0 127.0 L 0.3333333333333333 127.66666666666667 L 1.0 128.0 L 2.0 128.0 L 3.0 128.0 L 4.0 128.0 L 5.0 128.0 L 6.0 128.0 L 7.0 128.0 L 8.0 128.0 L 9.0 128.0 L 10.0 128.0 L 11.0 128.0 L 12.0 128.0 L 13.0 128.0 L 14.0 128.0 L 15.0 128.0 L 16.0 128.0 L 17.0 128.0 L 18.0 128.0 L 19.0 128.0 L 20.0 128.0 L 21.0 128.0 L 22.0 128.0 L 23.0 128.0 L 24.0 128.0 L 25.0 128.0 L 26.0 128.0 L 27.0 128.0 L 28.0 128.0 L 29.0 128.0 L 30.0 128.0 L 31.0 128.0 L 32.0 128.0 L 33.0 128.0 L 34.0 128.0 L 35.0 128.0 L 36.0 128.0 L 37.0 128.0 L 38.0 128.0 L 39.0 128.0 L 40.0 128.0 L 41.0 128.0 L 42.0 128.0 L 43.0 128.0 L 44.0 128.0 L 45.0 128.0 L 46.0 128.0 L 47.0 128.0 L 48.0 128.0 L 49.0 128.0 L 50.0 128.0 L 51.0 128.0 L 52.0 128.0 L 53.0 128.0 L 54.0 128.0 L 55.0 128.0 L 56.0 128.0 L 57.0 128.0 L 58.0 128.0 L 59.0 128.0 L 60.0 128.0 L 61.0 128.0 L 62.0 128.0 L 63.0 128.0 L 64.0 128.0 L 65.0 128.0 L 66.0 128.0 L 67.0 128.0 L 68.0 128.0 L 69.0 128.0 L 70.0 128.0 L 71.0 128.0 L 72.0 128.0 L 73.0 128.0 L 74.0 128.0 L 75.0 128.0 L 76.0 128.0 L 77.0 128.0 L 78.0 128.0 L 79.0 128.0 L 80.0 128.0 L 81.0 128.0 L 82.0 128.0 L 83.0 128.0 L 84.0 128.0 L 85.0 128.0 L 86.0 128.0 L 87.0 128.0 L 87.5 128.0 Z" stroke="none" fill="rgb(255,255,255)" />
<path d="M 26.5 124.0 L 27.0 124.0 L 28.0 124.0 L 29.0 124.0 L 30.0 124.0 L 31.0 124.0 L 32.0 124.0 L 33.0 124.0 L 34.0 124.0 L 35.0 124.0 L 36.0 124.0 L 37.0 124.0 L 38.0 124.0 L 39.0 124.0 L 40.0 124.0 L 41.0 124.0 L 42.0 124.0 L 43.0 124.0 L 44.0 124.0 L 45.0 124.0 L 46.0 124.0 L 47.0 124.0 L 48.0 124.0 L 49.0 124.0 L 50.0 124.0 L 51.0 124.0 L 52.0 124.0 L 53.0 124.0 L 54.0 124.0 L 55.0 124.0 L 56.0 124.0 L 57.0 124.0 L 58.0 124.0 L 59.0 124.0 L 60.0 124.0 L 61.0 124.0 L 62.0 124.0 L 63.0 124.0 L 64.0 124.0 L 65.0 124.0 L 66.0 124.0 L 67.0 124.0 L 68.0 124.0 L 69.0 124.0 L 70.0 124.0 L 71.0 124.0 L 72.0 124.0 L 73.0 124.0 L 74.0 124.0 L 75.0 124.0 L 76.0 124.0 L 77.0 124.0 L 78.0 124.0 L 79.0 124.0 L 80.0 124.0 L 81.0 124.0 L 82.0 124.0 L 83.0 124.0 L 84.0 124.0 L 85.0 124.0 L 86.0 124.0 L 87.0 124.0 L 88.0 124.0 L 89.0 124.0 L 90.0 124.0 L 91.0 124.0 L 92.0 124.0 L 93.0 124.0 L 94.0 124.0 L 95.0 124.0 L 96.0 124.0 L 97.0 124.0 L 98.0 124.0 L 99.0 124.0 L 100.0 124.0 L 101.0 124.0 L 102.0 124.0 L 103.0 124.0 L 104.0 124.0 L 105.0 124.0 L 106.0 124.0 L 107.0 124.0 L 108.0 124.0 L 109.0 124.0 L 110.0 123.66666666666667 L 111.0 123.0 L 112.0 122.0 L 112.66666666666667 121.0 L 113.0 120.0 L 113.33333333333333 119.0 L 113.66666666666667 118.0 L 114.0 117.0 L 114.0 116.0 L 114.0 115.0 L 114.0 114.0 L 114.0 113.0 L 114.0 112.0 L 114.0 111.0 L 114.0 110.0 L 114.0 109.0 L 114.0 108.0 L 114.0 107.0 L 114.0 106.0 L 114.0 105.0 L 114.0 104.0 L 114.0 103.0 L 114.0 102.0 L 114.0 101.0 L 114.0 100.0 L 114.0 99.0 L 114.0 98.0 L 114.0 97.0 L 114.0 96.0 L 114.0 95.0 L 114.0 94.0 L 114.0 93.0 L 114.0 92.0 L 114.0 91.0 L 114.0 90.0 L 114.0 89.0 L 114.0 88.0 L 114.0 87.0 L 114.0 86.0 L 114.0 85.0 L 114.0 84.0 L 114.0 83.0 L 114.0 82.0 L 114.0 81.0 L 114.0 80.0 L 114.0 79.0 L 114.0 78.0 L 114.0 77.0 L 114.0 76.0 L 114.0 75.0 L 114.0 74.0 L 114.0 73.0 L 114.0 72.0 L 114.0 71.0 L 114.0 70.0 L 114.0 69.0 L 114.0 68.0 L 114.0 67.0 L 114.0 66.0 L 114.0 65.0 L 114.0 64.0 L 114.0 63.0 L 114.0 62.0 L 114.0 61.0 L 114.0 60.0 L 114.0 59.0 L 114.0 58.0 L 114.0 57.0 L 114.0 56.0 L 114.0 55.0 L 114.0 54.0 L 114.0 53.0 L 114.0 52.0 L 114.0 51.0 L 114.0 50.0 L 114.0 49.0 L 114.0 48.0 L 114.0 47.0 L 114.0 46.0 L 114.0 45.0 L 114.0 44.0 L 113.66666666666667 43.0 L 113.33333333333333 42.0 L 113.0 41.0 L 112.66666666666667 40.0 L 112.0 39.0 L 111.0 38.0 L 110.0 37.333333333333336 L 109.0 36.666666666666664 L 108.0 36.333333333333336 L 107.0 36.0 L 106.0 36.0 L 105.0 36.0 L 104.0 36.0 L 103.0 36.0 L 102.0 36.0 L 101.0 36.0 L 100.0 36.0 L 99.0 36.0 L 98.0 36.0 L 97.0 36.0 L 96.0 36.0 L 95.0 36.0 L 94.0 36.0 L 93.0 36.0 L 92.0 36.0 L 91.0 36.0 L 90.0 36.0 L 89.0 36.0 L 88.0 36.0 L 87.0 36.0 L 86.0 36.0 L 85.0 36.0 L 84.0 36.0 L 83.0 36.0 L 82.0 36.0 L 81.0 36.0 L 80.0 36.0 L 79.0 36.0 L 78.0 36.0 L 77.0 36.0 L 76.0 36.0 L 75.0 36.0 L 74.0 36.0 L 73.0 36.0 L 72.0 36.0 L 71.0 36.0 L 70.0 36.0 L 69.0 35.666666666666664 L 68.33333333333333 35.0 L 68.0 34.0 L 68.0 33.0 L 68.0 32.0 L 68.0 31.0 L 68.0 30.0 L 68.0 29.0 L 68.0 28.0 L 68.0 27.0 L 68.0 26.0 L 68.0 25.0 L 68.33333333333333 24.0 L 69.0 23.333333333333332 L 70.0 22.666666666666668 L 71.0 22.0 L 72.0 21.0 L 72.66666666666667 20.0 L 73.33333333333333 19.0 L 73.66666666666667 18.0 L 74.0 17.0 L 74.0 16.0 L 74.0 15.0 L 74.0 14.0 L 74.0 13.0 L 74.0 12.0 L 74.0 11.0 L 73.66666666666667 10.0 L 73.33333333333333 9.0 L 72.66666666666667 8.0 L 72.0 7.0 L 71.0 6.0 L 70.0 5.333333333333333 L 69.0 4.666666666666667 L 68.0 4.333333333333333 L 67.0 4.0 L 66.0 4.0 L 65.0 4.0 L 64.0 4.0 L 63.0 4.0 L 62.0 4.0 L 61.0 4.0 L 60.0 4.333333333333333 L 59.0 4.666666666666667 L 58.0 5.333333333333333 L 57.0 6.0 L 56.0 7.0 L 55.333333333333336 8.0 L 54.666666666666664 9.0 L 54.333333333333336 10.0 L 54.0 11.0 L 54.0 12.0 L 54.0 13.0 L 54.0 14.0 L 54.0 15.0 L 54.0 16.0 L 54.0 17.0 L 54.333333333333336 18.0 L 54.666666666666664 19.0 L 55.333333333333336 20.0 L 56.0 21.0 L 57.0 22.0 L 58.0 22.666666666666668 L 59.0 23.333333333333332 L 59.666666666666664 24.0 L 60.0 25.0 L 60.0 26.0 L 60.0 27.0 L 60.0 28.0 L 60.0 29.0 L 60.0 30.0 L 60.0 31.0 L 60.0 32.0 L 60.0 33.0 L 60.0 34.0 L 59.666666666666664 35.0 L 59.0 35.666666666666664 L 58.0 36.0 L 57.0 36.0 L 56.0 36.0 L 55.0 36.0 L 54.0 36.0 L 53.0 36.0 L 52.0 36.0 L 51.0 36.0 L 50.0 36.0 L 49.0 36.0 L 48.0 36.0 L 47.0 36.0 L 46.0 36.0 L 45.0 36.0 L 44.0 36.0 L 43.0 36.0 L 42.0 36.0 L 41.0 36.0 L 40.0 36.0 L 39.0 36.0 L 38.0 36.0 L 37.0 36.0 L 36.0 36.0 L 35.0 36.0 L 34.0 36.0 L 33.0 36.0 L 32.0 36.0 L 31.0 36.0 L 30.0 36.0 L 29.0 36.0 L 28.0 36.0 L 27.0 36.0 L 26.0 36.0 L 25.0 36.0 L 24.0 36.0 L 23.0 36.0 L 22.0 36.0 L 21.0 36.0 L 20.0 36.333333333333336 L 19.0 36.666666666666664 L 18.0 37.333333333333336 L 17.0 38.0 L 16.0 39.0 L 15.333333333333334 40.0 L 15.0 41.0 L 15.0 42.0 L 15.0 43.0 L 15.0 44.0 L 15.0 45.0 L 15.0 46.0 L 15.0 47.0 L 15.0 48.0 L 15.0 49.0 L 15.0 50.0 L 15.0 51.0 L 15.0 52.0 L 15.0 53.0 L 15.0 54.0 L 15.0 55.0 L 15.0 56.0 L 15.0 57.0 L 15.0 58.0 L 15.0 59.0 L 15.0 60.0 L 15.0 61.0 L 15.0 62.0 L 15.0 63.0 L 15.0 64.0 L 15.0 65.0 L 15.0 66.0 L 15.0 67.0 L 15.0 68.0 L 15.0 69.0 L 15.0 70.0 L 15.0 71.0 L 15.0 72.0 L 15.0 73.0 L 15.0 74.0 L 15.0 75.0 L 15.0 76.0 L 15.0 77.0 L 15.0 78.0 L 15.0 79.0 L 15.0 80.0 L 15.0 81.0 L 15.0 82.0 L 15.0 83.0 L 15.0 84.0 L 15.0 85.0 L 15.0 86.0 L 15.0 87.0 L 15.0 88.0 L 15.0 89.0 L 15.0 90.0 L 15.0 91.0 L 15.0 92.0 L 15.0 93.0 L 15.0 94.0 L 15.0 95.0 L 15.0 96.0 L 15.0 97.0 L 15.0 98.0 L 15.0 99.0 L 15.0 100.0 L 15.0 101.0 L 15.0 102.0 L 15.0 103.0 L 15.0 104.0 L 15.0 105.0 L 15.0 106.0 L 15.0 107.0 L 15.0 108.0 L 15.0 109.0 L 15.0 110.0 L 15.0 111.0 L 15.0 112.0 L 15.0 113.0 L 15.0 114.0 L 15.0 115.0 L 15.0 116.0 L 15.0 117.0 L 15.0 118.0 L 15.0 119.0 L 15.0 120.0 L 15.333333333333334 121.0 L 16.0 122.0 L 17.0 123.0 L 18.0 123.66666666666667 L 19.0 124.0 L 20.0 124.0 L 21.0 124.0 L 22.0 124.0 L 23.0 124.0 L 24.0 124.0 L 25.0 124.0 L 25.5 124.0 Z" stroke="none" fill="rgb(144,164,174)" />
<path d="M 6.5 106.5 L 7.0 107.0 L 8.0 107.66666666666667 L 9.0 108.0 L 10.0 108.0 L 11.0 108.0 L 12.0 108.0 L 13.0 108.0 L 14.0 108.0 L 14.666666666666666 107.66666666666667 L 15.0 107.0 L 15.0 106.0 L 15.0 105.0 L 15.0 104.0 L 15.0 103.0 L 15.0 102.0 L 15.0 101.0 L 15.0 100.0 L 15.0 99.0 L 15.0 98.0 L 15.0 97.0 L 15.0 96.0 L 15.0 95.0 L 15.0 94.0 L 15.0 93.0 L 15.0 92.0 L 15.0 91.0 L 15.0 90.0 L 15.0 89.0 L 15.0 88.0 L 15.0 87.0 L 15.0 86.0 L 15.0 85.0 L 15.0 84.0 L 15.0 83.0 L 15.0 82.0 L 15.0 81.0 L 15.0 80.0 L 15.0 79.0 L 15.0 78.0 L 15.0 77.0 L 15.0 76.0 L 15.0 75.0 L 15.0 74.0 L 15.0 73.0 L 15.0 72.0 L 15.0 71.0 L 15.0 70.0 L 15.0 69.0 L 15.0 68.0 L 15.0 67.0 L 15.0 66.0 L 15.0 65.0 L 15.0 64.0 L 15.0 63.0 L 15.0 62.0 L 15.0 61.0 L 15.0 60.0 L 15.0 59.0 L 15.0 58.0 L 15.0 57.0 L 15.0 56.0 L 15.0 55.0 L 15.0 54.0 L 14.666666666666666 53.333333333333336 L 14.0 53.0 L 13.0 53.0 L 12.0 53.0 L 11.0 53.0 L 10.0 53.0 L 9.0 53.0 L 8.0 53.333333333333336 L 7.0 54.0 L 6.0 55.0 L 5.0 56.0 L 4.333333333333333 57.0 L 4.0 58.0 L 4.0 59.0 L 4.0 60.0 L 4.0 61.0 L 4.0 62.0 L 4.0 63.0 L 4.0 64.0 L 4.0 65.0 L 4.0 66.0 L 4.0 67.0 L 4.0 68.0 L 4.0 69.0 L 4.0 70.0 L 4.0 71.0 L 4.0 72.0 L 4.0 73.0 L 4.0 74.0 L 4.0 75.0 L 4.0 76.0 L 4.0 77.0 L 4.0 78.0 L 4.0 79.0 L 4.0 80.0 L 4.0 81.0 L 4.0 82.0 L 4.0 83.0 L 4.0 84.0 L 4.0 85.0 L 4.0 86.0 L 4.0 87.0 L 4.0 88.0 L 4.0 89.0 L 4.0 90.0 L 4.0 91.0 L 4.0 92.0 L 4.0 93.0 L 4.0 94.0 L 4.0 95.0 L 4.0 96.0 L 4.0 97.0 L 4.0 98.0 L 4.0 99.0 L 4.0 100.0 L 4.0 101.0 L 4.0 102.0 L 4.0 103.0 L 4.333333333333333 104.0 L 5.0 105.0 L 5.5 105.5 Z" stroke="none" fill="rgb(198,40,40)" />
<path d="M 122.5 106.5 L 122.66666666666667 106.0 L 123.33333333333333 105.0 L 123.66666666666667 104.0 L 124.0 103.0 L 124.0 102.0 L 124.0 101.0 L 124.0 100.0 L 124.0 99.0 L 124.0 98.0 L 124.0 97.0 L 124.0 96.0 L 124.0 95.0 L 124.0 94.0 L 124.0 93.0 L 124.0 92.0 L 124.0 91.0 L 124.0 90.0 L 124.0 89.0 L 124.0 88.0 L 124.0 87.0 L 124.0 86.0 L 124.0 85.0 L 124.0 84.0 L 124.0 83.0 L 124.0 82.0 L 124.0 81.0 L 124.0 80.0 L 124.0 79.0 L 124.0 78.0 L 124.0 77.0 L 124.0 76.0 L 124.0 75.0 L 124.0 74.0 L 124.0 73.0 L 124.0 72.0 L 124.0 71.0 L 124.0 70.0 L 124.0 69.0 L 124.0 68.0 L 124.0 67.0 L 124.0 66.0 L 124.0 65.0 L 124.0 64.0 L 124.0 63.0 L 124.0 62.0 L 124.0 61.0 L 124.0 60.0 L 124.0 59.0 L 124.0 58.0 L 123.66666666666667 57.0 L 123.33333333333333 56.0 L 122.66666666666667 55.0 L 122.0 54.333333333333336 L 121.0 53.666666666666664 L 120.0 53.333333333333336 L 119.0 53.0 L 118.0 53.0 L 117.0 53.0 L 116.0 53.0 L 115.0 53.0 L 114.33333333333333 53.333333333333336 L 114.0 54.0 L 114.0 55.0 L 114.0 56.0 L 114.0 57.0 L 114.0 58.0 L 114.0 59.0 L 114.0 60.0 L 114.0 61.0 L 114.0 62.0 L 114.0 63.0 L 114.0 64.0 L 114.0 65.0 L 114.0 66.0 L 114.0 67.0 L 114.0 68.0 L 114.0 69.0 L 114.0 70.0 L 114.0 71.0 L 114.0 72.0 L 114.0 73.0 L 114.0 74.0 L 114.0 75.0 L 114.0 76.0 L 114.0 77.0 L 114.0 78.0 L 114.0 79.0 L 114.0 80.0 L 114.0 81.0 L 114.0 82.0 L 114.0 83.0 L 114.0 84.0 L 114.0 85.0 L 114.0 86.0 L 114.0 87.0 L 114.0 88.0 L 114.0 89.0 L 114.0 90.0 L 114.0 91.0 L 114.0 92.0 L 114.0 93.0 L 114.0 94.0 L 114.0 95.0 L 114.0 96.0 L 114.0 97.0 L 114.0 98.0 L 114.0 99.0 L 114.0 100.0 L 114.0 101.0 L 114.0 102.0 L 114.0 103.0 L 114.0 104.0 L 114.0 105.0 L 114.0 106.0 L 114.0 107.0 L 114.0 108.0 L 114.33333333333333 108.66666666666667 L 115.0 109.0 L 116.0 109.0 L 117.0 108.66666666666667 L 118.0 108.33333333333333 L 119.0 108.0 L 120.0 107.66666666666667 L 121.0 107.33333333333333 L 121.5 107.0 Z" stroke="none" fill="rgb(198,40,40)" />
<path d="M 88.5 79.0 L 89.0 79.0 L 90.0 78.66666666666667 L 91.0 78.33333333333333 L 92.0 77.66666666666667 L 93.0 77.0 L 94.0 76.0 L 94.66666666666667 75.0 L 95.33333333333333 74.0 L 96.0 73.0 L 96.66666666666667 72.0 L 97.0 71.0 L 97.0 70.0 L 97.0 69.0 L 97.0 68.0 L 97.0 67.0 L 97.0 66.0 L 96.66666666666667 65.0 L 96.0 64.0 L 95.0 63.0 L 94.0 62.0 L 93.0 61.0 L 92.0 60.0 L 91.0 59.0 L 90.0 58.0 L 89.0 57.333333333333336 L 88.0 57.0 L 87.0 57.0 L 86.0 57.0 L 85.0 57.0 L 84.0 57.0 L 83.0 57.333333333333336 L 82.0 57.666666666666664 L 81.0 58.0 L 80.0 58.333333333333336 L 79.0 59.0 L 78.0 60.0 L 77.0 61.0 L 76.33333333333333 62.0 L 76.0 63.0 L 75.66666666666667 64.0 L 75.33333333333333 65.0 L 75.0 66.0 L 75.0 67.0 L 75.0 68.0 L 75.0 69.0 L 75.0 70.0 L 75.33333333333333 71.0 L 75.66666666666667 72.0 L 76.33333333333333 73.0 L 77.0 74.0 L 78.0 75.0 L 79.0 76.0 L 80.0 77.0 L 81.0 78.0 L 82.0 78.66666666666667 L 83.0 79.0 L 84.0 79.0 L 85.0 79.0 L 86.0 79.0 L 87.0 79.0 L 87.5 79.0 Z" stroke="none" fill="rgb(252,252,252)" />
<path d="M 42.5 78.5 L 43.0 78.66666666666667 L 44.0 79.0 L 45.0 79.0 L 46.0 79.0 L 47.0 79.0 L 48.0 78.66666666666667 L 49.0 78.0 L 50.0 77.0 L 51.0 76.0 L 52.0 75.0 L 52.666666666666664 74.0 L 53.0 73.0 L 53.0 72.0 L 53.0 71.0 L 53.0 70.0 L 53.0 69.0 L 53.0 68.0 L 53.0 67.0 L 53.0 66.0 L 53.0 65.0 L 53.0 64.0 L 52.666666666666664 63.0 L 52.0 62.0 L 51.0 61.0 L 50.0 60.0 L 49.0 59.0 L 48.0 58.333333333333336 L 47.0 57.666666666666664 L 46.0 57.333333333333336 L 45.0 57.0 L 44.0 57.0 L 43.0 57.0 L 42.0 57.0 L 41.0 57.333333333333336 L 40.0 57.666666666666664 L 39.0 58.0 L 38.0 58.333333333333336 L 37.0 59.0 L 36.0 60.0 L 35.0 61.0 L 34.0 62.0 L 33.333333333333336 63.0 L 33.0 64.0 L 33.0 65.0 L 33.0 66.0 L 33.0 67.0 L 33.0 68.0 L 33.0 69.0 L 33.0 70.0 L 33.0 71.0 L 33.333333333333336 72.0 L 34.0 73.0 L 35.0 74.0 L 36.0 75.0 L 37.0 76.0 L 38.0 77.0 L 39.0 77.66666666666667 L 40.0 77.66666666666667 L 41.0 77.66666666666667 L 41.5 77.5 Z" stroke="none" fill="rgb(252,252,252)" />
<path d="M 91.5 72.5 L 91.66666666666667 72.0 L 92.33333333333333 71.0 L 92.66666666666667 70.0 L 93.0 69.0 L 93.0 68.0 L 93.0 67.0 L 93.0 66.0 L 93.0 65.0 L 92.66666666666667 64.0 L 92.33333333333333 63.0 L 91.66666666666667 62.0 L 91.0 61.0 L 90.0 60.333333333333336 L 89.0 59.666666666666664 L 88.0 59.333333333333336 L 87.0 59.0 L 86.0 59.0 L 85.0 59.0 L 84.0 59.0 L 83.0 59.0 L 82.0 59.333333333333336 L 81.0 59.666666666666664 L 80.0 60.333333333333336 L 79.0 61.0 L 78.33333333333333 62.0 L 77.66666666666667 63.0 L 77.33333333333333 64.0 L 77.0 65.0 L 77.0 66.0 L 77.0 67.0 L 77.0 68.0 L 77.0 69.0 L 77.33333333333333 70.0 L 77.66666666666667 71.0 L 78.33333333333333 72.0 L 79.0 73.0 L 80.0 73.66666666666667 L 81.0 74.0 L 82.0 74.33333333333333 L 83.0 74.66666666666667 L 84.0 75.0 L 85.0 75.0 L 86.0 75.0 L 87.0 75.0 L 88.0 74.66666666666667 L 89.0 74.33333333333333 L 90.0 73.66666666666667 L 90.5 73.5 Z" stroke="none" fill="rgb(255,255,255)" />
<path d="M 42.5 75.0 L 43.0 75.0 L 44.0 75.0 L 45.0 74.66666666666667 L 46.0 74.33333333333333 L 47.0 73.66666666666667 L 48.0 73.33333333333333 L 48.666666666666664 72.66666666666667 L 49.333333333333336 72.0 L 49.666666666666664 71.0 L 50.333333333333336 70.0 L 50.666666666666664 69.0 L 51.0 68.0 L 51.0 67.0 L 51.0 66.0 L 50.666666666666664 65.0 L 50.333333333333336 64.0 L 49.666666666666664 63.0 L 49.333333333333336 62.0 L 48.666666666666664 61.0 L 48.0 60.333333333333336 L 47.0 59.666666666666664 L 46.0 59.333333333333336 L 45.0 59.0 L 44.0 59.0 L 43.0 59.0 L 42.0 59.0 L 41.0 59.0 L 40.0 59.333333333333336 L 39.0 59.666666666666664 L 38.0 60.333333333333336 L 37.0 61.0 L 36.0 62.0 L 35.333333333333336 63.0 L 35.0 64.0 L 35.0 65.0 L 35.0 66.0 L 35.0 67.0 L 35.0 68.0 L 35.0 69.0 L 35.333333333333336 70.0 L 35.666666666666664 71.0 L 36.333333333333336 72.0 L 37.0 73.0 L 38.0 73.66666666666667 L 39.0 74.33333333333333 L 40.0 74.66666666666667 L 41.0 75.0 L 41.5 75.0 Z" stroke="none" fill="rgb(255,255,255)" />
<path d="M 68.5 85.0 L 69.0 85.0 L 69.66666666666667 84.66666666666667 L 70.0 84.0 L 70.0 83.0 L 69.66666666666667 82.0 L 69.33333333333333 81.0 L 68.66666666666667 80.0 L 68.33333333333333 79.0 L 67.66666666666667 78.0 L 67.33333333333333 77.0 L 66.66666666666667 76.0 L 66.0 75.0 L 65.0 74.33333333333333 L 64.0 74.0 L 63.0 74.33333333333333 L 62.0 75.0 L 61.333333333333336 76.0 L 60.666666666666664 77.0 L 60.333333333333336 78.0 L 59.666666666666664 79.0 L 59.333333333333336 80.0 L 58.666666666666664 81.0 L 58.333333333333336 82.0 L 58.0 83.0 L 58.0 84.0 L 58.333333333333336 84.66666666666667 L 59.0 85.0 L 60.0 85.0 L 61.0 85.0 L 62.0 85.0 L 63.0 85.0 L 64.0 85.0 L 65.0 85.0 L 66.0 85.0 L 67.0 85.0 L 67.5 85.0 Z" stroke="none" fill="rgb(198,40,40)" />
<path d="M 62.5 18.0 L 63.0 18.0 L 64.0 18.0 L 65.0 18.0 L 66.0 17.666666666666668 L 67.0 17.0 L 67.66666666666667 16.0 L 68.0 15.0 L 68.0 14.0 L 68.0 13.0 L 67.66666666666667 12.0 L 67.0 11.0 L 66.0 10.333333333333334 L 65.0 10.0 L 64.0 10.0 L 63.0 10.333333333333334 L 62.0 10.666666666666666 L 61.333333333333336 11.333333333333334 L 60.666666666666664 12.0 L 60.333333333333336 13.0 L 60.0 14.0 L 60.0 15.0 L 60.333333333333336 16.0 L 61.0 17.0 L 61.5 17.5 Z" stroke="none" fill="rgb(198,40,40)" />
<path d="M 55.5 106.5 L 56.0 106.66666666666667 L 56.666666666666664 106.66666666666667 L 57.0 106.0 L 56.666666666666664 105.0 L 56.0 104.0 L 55.0 103.0 L 54.666666666666664 102.0 L 55.0 101.33333333333333 L 55.666666666666664 100.66666666666667 L 55.666666666666664 100.0 L 55.0 99.0 L 54.0 98.0 L 53.0 97.33333333333333 L 52.0 97.0 L 51.0 97.0 L 50.0 97.0 L 49.0 97.0 L 48.0 97.0 L 47.333333333333336 97.33333333333333 L 47.0 98.0 L 47.333333333333336 99.0 L 48.0 99.66666666666667 L 49.0 100.0 L 50.0 100.0 L 51.0 100.33333333333333 L 51.666666666666664 101.0 L 52.0 102.0 L 52.333333333333336 103.0 L 53.0 104.0 L 54.0 105.0 L 54.5 105.5 Z" stroke="none" fill="rgb(246,246,246)" />
<path d="M 59.5 100.0 L 60.0 100.33333333333333 L 60.666666666666664 101.0 L 61.0 102.0 L 61.333333333333336 103.0 L 62.0 104.0 L 63.0 105.0 L 64.0 106.0 L 65.0 106.66666666666667 L 65.66666666666667 106.66666666666667 L 66.0 106.0 L 65.66666666666667 105.0 L 65.0 104.0 L 64.0 103.0 L 63.666666666666664 102.0 L 64.0 101.33333333333333 L 64.66666666666667 100.66666666666667 L 64.66666666666667 100.0 L 64.0 99.0 L 63.0 98.0 L 62.0 97.33333333333333 L 61.0 97.0 L 60.0 97.0 L 59.0 97.0 L 58.0 97.0 L 57.333333333333336 97.33333333333333 L 57.0 98.0 L 57.333333333333336 99.0 L 58.0 99.66666666666667 L 58.5 100.0 Z" stroke="none" fill="rgb(246,246,246)" />
<path d="M 66.5 99.5 L 67.0 99.66666666666667 L 68.0 100.0 L 69.0 100.33333333333333 L 69.66666666666667 101.0 L 70.0 102.0 L 70.33333333333333 103.0 L 71.0 104.0 L 72.0 105.0 L 73.0 106.0 L 74.0 106.66666666666667 L 74.66666666666667 106.66666666666667 L 75.0 106.0 L 74.66666666666667 105.0 L 74.0 104.0 L 73.0 103.0 L 72.66666666666667 102.0 L 73.0 101.33333333333333 L 73.66666666666667 100.66666666666667 L 73.66666666666667 100.0 L 73.0 99.0 L 72.0 98.0 L 71.0 97.33333333333333 L 70.0 97.0 L 69.0 97.0 L 68.0 97.0 L 67.0 97.0 L 66.33333333333333 97.33333333333333 L 66.0 98.0 L 66.0 98.5 Z" stroke="none" fill="rgb(246,246,246)" />
<path d="M 84.0 105.5 L 84.0 105.0 L 83.66666666666667 104.0 L 83.0 103.0 L 82.66666666666667 102.0 L 83.0 101.33333333333333 L 83.66666666666667 100.66666666666667 L 83.66666666666667 100.0 L 83.0 99.0 L 82.0 98.0 L 81.0 97.33333333333333 L 80.0 97.0 L 79.0 97.0 L 78.0 97.0 L 77.0 97.0 L 76.0 97.0 L 75.33333333333333 97.33333333333333 L 75.0 98.0 L 75.33333333333333 99.0 L 76.0 99.66666666666667 L 77.0 100.0 L 78.0 100.0 L 79.0 100.33333333333333 L 79.66666666666667 101.0 L 80.0 102.0 L 80.33333333333333 103.0 L 81.0 104.0 L 82.0 105.0 L 83.0 105.66666666666667 L 83.5 106.0 Z" stroke="none" fill="rgb(246,246,246)" />
<path d="M 39.5 99.0 L 40.0 99.0 L 41.0 99.0 L 42.0 99.33333333333333 L 43.0 100.0 L 44.0 100.66666666666667 L 45.0 101.33333333333333 L 45.666666666666664 102.0 L 46.333333333333336 103.0 L 47.0 103.66666666666667 L 48.0 104.0 L 48.666666666666664 103.66666666666667 L 49.0 103.0 L 48.666666666666664 102.0 L 48.0 101.0 L 47.0 100.0 L 46.0 99.0 L 45.0 98.0 L 44.0 97.33333333333333 L 43.0 97.0 L 42.0 97.0 L 41.0 97.0 L 40.0 97.0 L 39.333333333333336 97.33333333333333 L 39.0 98.0 L 39.0 98.5 Z" stroke="none" fill="rgb(246,246,246)" />
<path d="M 43.5 105.5 L 44.0 106.0 L 45.0 106.66666666666667 L 46.0 107.0 L 46.666666666666664 106.66666666666667 L 47.0 106.0 L 46.666666666666664 105.0 L 46.0 104.0 L 45.0 103.0 L 44.333333333333336 102.0 L 43.666666666666664 101.33333333333333 L 43.0 101.0 L 42.0 101.0 L 41.0 101.0 L 40.0 101.0 L 39.333333333333336 101.33333333333333 L 39.0 102.0 L 39.333333333333336 103.0 L 40.0 104.0 L 41.0 104.66666666666667 L 42.0 105.0 L 42.5 105.0 Z" stroke="none" fill="rgb(246,246,246)" />
<path d="M 78.5 105.0 L 79.0 105.0 L 80.0 105.33333333333333 L 81.0 106.0 L 82.0 106.66666666666667 L 83.0 107.0 L 83.66666666666667 106.66666666666667 L 83.66666666666667 106.0 L 83.0 105.0 L 82.0 104.0 L 81.0 103.33333333333333 L 80.0 103.0 L 79.0 103.0 L 78.0 103.0 L 77.0 103.0 L 76.33333333333333 103.33333333333333 L 76.0 104.0 L 76.33333333333333 104.66666666666667 L 77.0 105.0 L 77.5 105.0 Z" stroke="none" fill="rgb(235,235,235)" />
<path d="M 49.5 105.0 L 50.0 105.0 L 51.0 105.0 L 52.0 105.33333333333333 L 53.0 106.0 L 54.0 106.66666666666667 L 55.0 107.0 L 55.666666666666664 106.66666666666667 L 55.666666666666664 106.0 L 55.0 105.0 L 54.0 104.0 L 53.0 103.33333333333333 L 52.0 103.0 L 51.0 103.0 L 50.0 103.0 L 49.0 103.33333333333333 L 48.333333333333336 104.0 L 48.333333333333336 104.66666666666667 L 48.5 105.0 Z" stroke="none" fill="rgb(235,235,235)" />
<path d="M 55.0 70.5 L 55.0 70.0 L 55.0 69.0 L 55.0 68.0 L 55.0 67.0 L 55.0 66.0 L 55.0 65.0 L 54.666666666666664 64.33333333333333 L 54.0 64.0 L 53.333333333333336 64.33333333333333 L 53.0 65.0 L 53.0 66.0 L 53.0 67.0 L 53.0 68.0 L 53.0 69.0 L 53.0 70.0 L 53.0 71.0 L 53.333333333333336 71.66666666666667 L 54.0 71.66666666666667 L 54.5 71.5 Z" stroke="none" fill="rgb(58,58,58)" />
<path d="M 85.5 102.5 L 86.0 102.66666666666667 L 87.0 103.33333333333333 L 88.0 103.66666666666667 L 89.0 104.0 L 89.66666666666667 103.66666666666667 L 90.0 103.0 L 90.0 102.0 L 90.0 101.0 L 89.66666666666667 100.33333333333333 L 89.0 100.0 L 88.0 100.0 L 87.0 100.0 L 86.0 100.0 L 85.33333333333333 100.33333333333333 L 85.0 101.0 L 85.0 101.5 Z" stroke="none" fill="rgb(252,252,252)" />
<path d="M 84.5 99.5 L 85.0 99.66666666666667 L 86.0 100.0 L 87.0 100.0 L 88.0 100.0 L 89.0 100.0 L 89.66666666666667 99.66666666666667 L 89.66666666666667 99.0 L 89.33333333333333 98.0 L 88.66666666666667 97.33333333333333 L 88.0 97.0 L 87.0 97.0 L 86.0 97.0 L 85.0 97.0 L 84.33333333333333 97.33333333333333 L 84.0 98.0 L 84.0 98.5 Z" stroke="none" fill="rgb(246,246,246)" />
<path d="M 58.5 105.0 L 59.0 105.0 L 60.0 105.0 L 61.0 105.33333333333333 L 62.0 106.0 L 63.0 106.66666666666667 L 64.0 107.0 L 64.66666666666667 106.66666666666667 L 64.66666666666667 106.0 L 64.0 105.0 L 63.0 104.0 L 62.0 103.33333333333333 L 61.0 103.0 L 60.0 103.0 L 59.0 103.0 L 58.333333333333336 103.33333333333333 L 58.0 104.0 L 58.0 104.5 Z" stroke="none" fill="rgb(235,235,235)" />
<path d="M 70.5 105.5 L 71.0 106.0 L 72.0 106.66666666666667 L 73.0 107.0 L 73.66666666666667 106.66666666666667 L 73.66666666666667 106.0 L 73.0 105.0 L 72.0 104.0 L 71.0 103.33333333333333 L 70.0 103.0 L 69.0 103.0 L 68.0 103.0 L 67.33333333333333 103.33333333333333 L 67.0 104.0 L 67.33333333333333 104.66666666666667 L 68.0 105.0 L 69.0 105.0 L 69.5 105.0 Z" stroke="none" fill="rgb(235,235,235)" />
<path d="M 49.5 107.0 L 50.0 107.0 L 51.0 107.0 L 52.0 107.0 L 53.0 107.0 L 53.666666666666664 106.66666666666667 L 53.666666666666664 106.0 L 53.0 105.33333333333333 L 52.0 105.0 L 51.0 105.0 L 50.0 105.0 L 49.0 105.0 L 48.0 105.0 L 47.333333333333336 105.33333333333333 L 47.0 106.0 L 47.333333333333336 106.66666666666667 L 48.0 107.0 L 48.5 107.0 Z" stroke="none" fill="rgb(226,226,226)" />
<path d="M 75.5 107.0 L 76.0 107.0 L 77.0 107.0 L 78.0 107.0 L 79.0 107.0 L 80.0 107.0 L 81.0 107.0 L 81.66666666666667 106.66666666666667 L 81.66666666666667 106.0 L 81.0 105.33333333333333 L 80.0 105.0 L 79.0 105.0 L 78.0 105.0 L 77.0 105.0 L 76.0 105.0 L 75.33333333333333 105.33333333333333 L 75.0 106.0 L 75.0 106.5 Z" stroke="none" fill="rgb(226,226,226)" />
<path d="M 76.5 103.0 L 77.0 103.0 L 78.0 103.0 L 79.0 103.0 L 79.66666666666667 102.66666666666667 L 80.0 102.0 L 80.0 101.0 L 79.66666666666667 100.33333333333333 L 79.0 100.0 L 78.0 100.0 L 77.0 100.0 L 76.0 100.33333333333333 L 75.33333333333333 101.0 L 75.33333333333333 102.0 L 75.5 102.5 Z" stroke="none" fill="rgb(252,252,252)" />
<path d="M 58.5 107.0 L 59.0 107.0 L 60.0 107.0 L 61.0 107.0 L 62.0 107.0 L 62.666666666666664 106.66666666666667 L 62.666666666666664 106.0 L 62.0 105.33333333333333 L 61.0 105.0 L 60.0 105.0 L 59.0 105.0 L 58.0 105.0 L 57.333333333333336 105.33333333333333 L 57.0 106.0 L 57.333333333333336 106.66666666666667 L 57.5 107.0 Z" stroke="none" fill="rgb(226,226,226)" />
<path d="M 69.5 107.0 L 70.0 107.0 L 71.0 107.0 L 71.66666666666667 106.66666666666667 L 71.66666666666667 106.0 L 71.0 105.33333333333333 L 70.0 105.0 L 69.0 105.0 L 68.0 105.0 L 67.0 105.0 L 66.33333333333333 105.33333333333333 L 66.0 106.0 L 66.33333333333333 106.66666666666667 L 67.0 107.0 L 68.0 107.0 L 68.5 107.0 Z" stroke="none" fill="rgb(226,226,226)" />
<path d="M 50.5 103.0 L 51.0 103.0 L 51.666666666666664 102.66666666666667 L 52.0 102.0 L 52.0 101.0 L 51.666666666666664 100.33333333333333 L 51.0 100.0 L 50.0 100.0 L 49.0 100.0 L 48.333333333333336 100.33333333333333 L 48.0 101.0 L 48.333333333333336 102.0 L 49.0 102.66666666666667 L 49.5 103.0 Z" stroke="none" fill="rgb(252,252,252)" />
<path d="M 56.5 105.0 L 57.0 105.0 L 57.666666666666664 104.66666666666667 L 58.0 104.0 L 57.666666666666664 103.0 L 57.0 102.0 L 56.0 101.33333333333333 L 55.0 101.0 L 54.333333333333336 101.33333333333333 L 54.0 102.0 L 54.333333333333336 103.0 L 55.0 104.0 L 55.5 104.5 Z" stroke="none" fill="rgb(92,93,93)" />
<path d="M 65.5 105.0 L 66.0 105.0 L 66.66666666666667 104.66666666666667 L 67.0 104.0 L 66.66666666666667 103.0 L 66.0 102.0 L 65.0 101.33333333333333 L 64.0 101.0 L 63.333333333333336 101.33333333333333 L 63.0 102.0 L 63.333333333333336 103.0 L 64.0 104.0 L 64.5 104.5 Z" stroke="none" fill="rgb(92,93,93)" />
<path d="M 76.0 104.5 L 76.0 104.0 L 75.66666666666667 103.0 L 75.0 102.0 L 74.0 101.33333333333333 L 73.0 101.0 L 72.33333333333333 101.33333333333333 L 72.0 102.0 L 72.33333333333333 103.0 L 73.0 104.0 L 74.0 104.66666666666667 L 75.0 105.0 L 75.5 105.0 Z" stroke="none" fill="rgb(92,93,93)" />
<path d="M 59.5 103.0 L 60.0 103.0 L 60.666666666666664 102.66666666666667 L 61.0 102.0 L 61.0 101.0 L 60.666666666666664 100.33333333333333 L 60.0 100.0 L 59.0 100.0 L 58.0 100.33333333333333 L 57.333333333333336 101.0 L 57.333333333333336 102.0 L 58.0 102.66666666666667 L 58.5 103.0 Z" stroke="none" fill="rgb(252,252,252)" />
<path d="M 66.5 102.5 L 67.0 102.66666666666667 L 68.0 103.0 L 69.0 103.0 L 69.66666666666667 102.66666666666667 L 70.0 102.0 L 70.0 101.0 L 69.66666666666667 100.33333333333333 L 69.0 100.0 L 68.0 100.0 L 67.0 100.33333333333333 L 66.33333333333333 101.0 L 66.0 101.5 Z" stroke="none" fill="rgb(252,252,252)" />
<path d="M 84.5 105.0 L 85.0 105.0 L 86.0 105.33333333333333 L 87.0 105.66666666666667 L 88.0 105.66666666666667 L 88.66666666666667 105.0 L 88.66666666666667 104.0 L 88.0 103.33333333333333 L 87.0 103.0 L 86.0 103.0 L 85.0 103.33333333333333 L 84.33333333333333 104.0 L 84.0 104.5 Z" stroke="none" fill="rgb(235,235,235)" />
<path d="M 40.5 101.0 L 41.0 101.0 L 42.0 101.0 L 43.0 101.0 L 43.666666666666664 100.66666666666667 L 43.666666666666664 100.0 L 43.0 99.33333333333333 L 42.0 99.0 L 41.0 99.0 L 40.0 99.0 L 39.333333333333336 99.33333333333333 L 39.0 100.0 L 39.333333333333336 100.66666666666667 L 39.5 101.0 Z" stroke="none" fill="rgb(255,255,255)" />
<path d="M 47.5 105.0 L 47.666666666666664 104.66666666666667 L 47.666666666666664 104.0 L 47.0 103.0 L 46.333333333333336 102.0 L 45.666666666666664 101.33333333333333 L 45.0 101.0 L 44.333333333333336 101.33333333333333 L 44.0 102.0 L 44.333333333333336 103.0 L 45.0 104.0 L 46.0 104.66666666666667 L 46.5 105.0 Z" stroke="none" fill="rgb(92,93,93)" />
<path d="M 43.5 107.0 L 44.0 107.0 L 44.666666666666664 106.66666666666667 L 44.666666666666664 106.0 L 44.0 105.33333333333333 L 43.0 105.0 L 42.0 105.0 L 41.333333333333336 105.33333333333333 L 41.0 106.0 L 41.333333333333336 106.66666666666667 L 42.0 107.0 L 42.5 107.0 Z" stroke="none" fill="rgb(226,226,226)" />
<path d="M 40.5 79.0 L 41.0 79.0 L 42.0 79.0 L 42.666666666666664 78.66666666666667 L 42.666666666666664 78.0 L 42.0 77.33333333333333 L 41.0 77.0 L 40.0 77.33333333333333 L 39.333333333333336 78.0 L 39.333333333333336 78.66666666666667 L 39.5 79.0 Z" stroke="none" fill="rgb(92,93,93)" />
<path d="M 84.5 104.0 L 84.66666666666667 103.66666666666667 L 84.66666666666667 103.0 L 84.33333333333333 102.0 L 83.66666666666667 101.33333333333333 L 83.0 101.0 L 82.33333333333333 101.33333333333333 L 82.0 102.0 L 82.33333333333333 103.0 L 83.0 103.66666666666667 L 83.5 104.0 Z" stroke="none" fill="rgb(92,93,93)" />
<path d="M 37.5 78.0 L 38.0 78.0 L 38.666666666666664 77.66666666666667 L 38.666666666666664 77.0 L 38.0 76.0 L 37.0 75.33333333333333 L 36.333333333333336 75.33333333333333 L 36.0 76.0 L 36.333333333333336 77.0 L 36.5 77.5 Z" stroke="none" fill="rgb(75,75,75)" />
<path d="M 85.5 107.0 L 86.0 107.0 L 86.66666666666667 106.66666666666667 L 87.0 106.0 L 86.66666666666667 105.33333333333333 L 86.0 105.0 L 85.0 105.0 L 84.33333333333333 105.33333333333333 L 84.0 106.0 L 84.33333333333333 106.66666666666667 L 84.5 107.0 Z" stroke="none" fill="rgb(226,226,226)" />
<path d="M 85.5 103.0 L 85.66666666666667 102.66666666666667 L 85.66666666666667 102.0 L 85.0 101.33333333333333 L 84.33333333333333 101.33333333333333 L 84.0 102.0 L 84.33333333333333 102.66666666666667 L 84.5 103.0 Z" stroke="none" fill="rgb(246,246,246)" />
<path d="M 37.0 56.5 L 36.666666666666664 56.333333333333336 L 36.333333333333336 56.333333333333336 L 36.333333333333336 56.666666666666664 L 36.5 57.0 Z" stroke="none" fill="rgb(75,75,75)" />
<path d="M 57.0 101.5 L 56.666666666666664 101.33333333333333 L 56.333333333333336 101.33333333333333 L 56.333333333333336 101.66666666666667 L 56.5 102.0 Z" stroke="none" fill="rgb(246,246,246)" />
<path d="M 66.0 101.5 L 65.66666666666667 101.33333333333333 L 65.33333333333333 101.33333333333333 L 65.33333333333333 101.66666666666667 L 65.5 102.0 Z" stroke="none" fill="rgb(246,246,246)" />
<path d="M 74.5 102.0 L 74.66666666666667 101.66666666666667 L 74.66666666666667 101.33333333333333 L 74.33333333333333 101.33333333333333 L 74.0 101.5 Z" stroke="none" fill="rgb(246,246,246)" />
<path d="M 58.0 102.5 L 57.666666666666664 102.33333333333333 L 57.333333333333336 102.33333333333333 L 57.333333333333336 102.66666666666667 L 57.5 103.0 Z" stroke="none" fill="rgb(246,246,246)" />
<path d="M 66.5 103.0 L 66.66666666666667 102.66666666666667 L 66.66666666666667 102.33333333333333 L 66.33333333333333 102.33333333333333 L 66.0 102.5 Z" stroke="none" fill="rgb(246,246,246)" />
<path d="M 75.5 103.0 L 75.66666666666667 102.66666666666667 L 75.66666666666667 102.33333333333333 L 75.33333333333333 102.33333333333333 L 75.0 102.5 Z" stroke="none" fill="rgb(246,246,246)" />
</svg>
