<?xml version="1.0" encoding="UTF-8" standalone="no"?>
<!DOCTYPE svg PUBLIC "-//W3C//DTD SVG 1.1//EN"
"http://www.w3.org/Graphics/SVG/1.1/DTD/svg11.dtd">
<svg width="128" height="128" xmlns="http://www.w3.org/2000/svg" version="1.1">
<path d="M 26.5 128.0 L 27.0 128.0 L 28.0 128.0 L 29.0 128.0 L 30.0 128.0 L 31.0 128.0 L 32.0 128.0 L 33.0 128.0 L 34.0 128.0 L 35.0 128.0 L 36.0 128.0 L 37.0 128.0 L 38.0 128.0 L 39.0 128.0 L 40.0 128.0 L 41.0 128.0 L 42.0 128.0 L 43.0 128.0 L 44.0 128.0 L 45.0 128.0 L 46.0 128.0 L 47.0 128.0 L 48.0 128.0 L 49.0 128.0 L 50.0 128.0 L 51.0 128.0 L 52.0 128.0 L 53.0 128.0 L 54.0 128.0 L 55.0 128.0 L 56.0 128.0 L 57.0 128.0 L 58.0 128.0 L 59.0 128.0 L 60.0 128.0 L 61.0 128.0 L 62.0 128.0 L 63.0 128.0 L 64.0 128.0 L 65.0 128.0 L 66.0 128.0 L 67.0 128.0 L 68.0 128.0 L 69.0 128.0 L 70.0 128.0 L 71.0 128.0 L 72.0 128.0 L 73.0 128.0 L 74.0 128.0 L 75.0 128.0 L 76.0 128.0 L 77.0 128.0 L 78.0 128.0 L 79.0 128.0 L 80.0 128.0 L 81.0 128.0 L 82.0 128.0 L 83.0 128.0 L 84.0 128.0 L 85.0 128.0 L 86.0 128.0 L 87.0 128.0 L 88.0 128.0 L 89.0 128.0 L 90.0 128.0 L 91.0 128.0 L 92.0 128.0 L 93.0 128.0 L 94.0 128.0 L 95.0 128.0 L 96.0 128.0 L 97.0 128.0 L 98.0 128.0 L 99.0 128.0 L 100.0 128.0 L 101.0 128.0 L 102.0 128.0 L 103.0 128.0 L 104.0 128.0 L 105.0 128.0 L 106.0 128.0 L 107.0 128.0 L 108.0 128.0 L 109.0 128.0 L 110.0 128.0 L 111.0 128.0 L 112.0 128.0 L 113.0 128.0 L 114.0 128.0 L 115.0 128.0 L 116.0 128.0 L 117.0 128.0 L 118.0 128.0 L 119.0 128.0 L 120.0 128.0 L 121.0 128.0 L 122.0 128.0 L 123.0 128.0 L 124.0 128.0 L 125.0 128.0 L 126.0 128.0 L 127.0 128.0 L 127.66666666666667 127.66666666666667 L 128.0 127.0 L 128.0 126.0 L 128.0 125.0 L 128.0 124.0 L 128.0 123.0 L 128.0 122.0 L 128.0 121.0 L 128.0 120.0 L 128.0 119.0 L 128.0 118.0 L 128.0 117.0 L 128.0 116.0 L 128.0 115.0 L 128.0 114.0 L 128.0 113.0 L 128.0 112.0 L 128.0 111.0 L 128.0 110.0 L 128.0 109.0 L 128.0 108.0 L 128.0 107.0 L 128.0 106.0 L 128.0 105.0 L 128.0 104.0 L 128.0 103.0 L 128.0 102.0 L 128.0 101.0 L 128.0 100.0 L 128.0 99.0 L 128.0 98.0 L 128.0 97.0 L 128.0 96.0 L 128.0 95.0 L 128.0 94.0 L 128.0 93.0 L 128.0 92.0 L 128.0 91.0 L 128.0 90.0 L 128.0 89.0 L 128.0 88.0 L 128.0 87.0 L 128.0 86.0 L 128.0 85.0 L 128.0 84.0 L 128.0 83.0 L 128.0 82.0 L 128.0 81.0 L 128.0 80.0 L 128.0 79.0 L 128.0 78.0 L 128.0 77.0 L 128.0 76.0 L 128.0 75.0 L 128.0 74.0 L 128.0 73.0 L 128.0 72.0 L 128.0 71.0 L 128.0 70.0 L 128.0 69.0 L 128.0 68.0 L 128.0 67.0 L 128.0 66.0 L 128.0 65.0 L 128.0 64.0 L 128.0 63.0 L 128.0 62.0 L 128.0 61.0 L 128.0 60.0 L 128.0 59.0 L 128.0 58.0 L 128.0 57.0 L 128.0 56.0 L 128.0 55.0 L 128.0 54.0 L 128.0 53.0 L 128.0 52.0 L 128.0 51.0 L 128.0 50.0 L 128.0 49.0 L 128.0 48.0 L 128.0 47.0 L 128.0 46.0 L 128.0 45.0 L 128.0 44.0 L 128.0 43.0 L 128.0 42.0 L 128.0 41.0 L 128.0 40.0 L 128.0 39.0 L 128.0 38.0 L 128.0 37.0 L 128.0 36.0 L 128.0 35.0 L 128.0 34.0 L 128.0 33.0 L 128.0 32.0 L 128.0 31.0 L 128.0 30.0 L 128.0 29.0 L 128.0 28.0 L 128.0 27.0 L 128.0 26.0 L 128.0 25.0 L 128.0 24.0 L 128.0 23.0 L 128.0 22.0 L 128.0 21.0 L 128.0 20.0 L 128.0 19.0 L 128.0 18.0 L 128.0 17.0 L 128.0 16.0 L 128.0 15.0 L 128.0 14.0 L 128.0 13.0 L 128.0 12.0 L 128.0 11.0 L 128.0 10.0 L 128.0 9.0 L 128.0 8.0 L 128.0 7.0 L 128.0 6.0 L 128.0 5.0 L 128.0 4.0 L 128.0 3.0 L 128.0 2.0 L 128.0 1.0 L 127.66666666666667 0.3333333333333333 L 127.0 0.0 L 126.0 0.0 L 125.0 0.0 L 124.0 0.0 L 123.0 0.0 L 122.0 0.0 L 121.0 0.0 L 120.0 0.0 L 119.0 0.0 L 118.0 0.0 L 117.0 0.0 L 116.0 0.0 L 115.0 0.0 L 114.0 0.0 L 113.0 0.0 L 112.0 0.0 L 111.0 0.0 L 110.0 0.0 L 109.0 0.0 L 108.0 0.0 L 107.0 0.0 L 106.0 0.0 L 105.0 0.0 L 104.0 0.0 L 103.0 0.0 L 102.0 0.0 L 101.0 0.0 L 100.0 0.0 L 99.0 0.0 L 98.0 0.0 L 97.0 0.0 L 96.0 0.0 L 95.0 0.0 L 94.0 0.0 L 93.0 0.0 L 92.0 0.0 L 91.0 0.0 L 90.0 0.0 L 89.0 0.0 L 88.0 0.0 L 87.0 0.0 L 86.0 0.0 L 85.0 0.0 L 84.0 0.0 L 83.0 0.0 L 82.0 0.0 L 81.0 0.0 L 80.0 0.0 L 79.0 0.0 L 78.0 0.0 L 77.0 0.0 L 76.0 0.0 L 75.0 0.0 L 74.0 0.0 L 73.0 0.0 L 72.0 0.0 L 71.0 0.0 L 70.0 0.0 L 69.0 0.0 L 68.0 0.0 L 67.0 0.0 L 66.0 0.0 L 65.0 0.0 L 64.0 0.0 L 63.0 0.0 L 62.0 0.0 L 61.0 0.0 L 60.0 0.0 L 59.0 0.0 L 58.0 0.0 L 57.0 0.0 L 56.0 0.0 L 55.0 0.0 L 54.0 0.0 L 53.0 0.0 L 52.0 0.0 L 51.0 0.0 L 50.0 0.0 L 49.0 0.0 L 48.0 0.0 L 47.0 0.0 L 46.0 0.0 L 45.0 0.0 L 44.0 0.0 L 43.0 0.0 L 42.0 0.0 L 41.0 0.0 L 40.0 0.0 L 39.0 0.0 L 38.0 0.0 L 37.0 0.0 L 36.0 0.0 L 35.0 0.0 L 34.0 0.0 L 33.0 0.0 L 32.0 0.0 L 31.0 0.0 L 30.0 0.0 L 29.0 0.0 L 28.0 0.0 L 27.0 0.0 L 26.0 0.0 L 25.0 0.0 L 24.0 0.0 L 23.0 0.0 L 22.0 0.0 L 21.0 0.0 L 20.0 0.0 L 19.0 0.0 L 18.0 0.0 L 17.0 0.0 L 16.0 0.0 L 15.0 0.0 L 14.0 0.0 L 13.0 0.0 L 12.0 0.0 L 11.0 0.0 L 10.0 0.0 L 9.0 0.0 L 8.0 0.0 L 7.0 0.0 L 6.0 0.0 L 5.0 0.0 L 4.0 0.0 L 3.0 0.0 L 2.0 0.0 L 1.0 0.0 L 0.3333333333333333 0.3333333333333333 L 0.0 1.0 L 0.0 2.0 L 0.0 3.0 L 0.0 4.0 L 0.0 5.0 L 0.0 6.0 L 0.0 7.0 L 0.0 8.0 L 0.0 9.0 L 0.0 10.0 L 0.0 11.0 L 0.0 12.0 L 0.0 13.0 L 0.0 14.0 L 0.0 15.0 L 0.0 16.0 L 0.0 17.0 L 0.0 18.0 L 0.0 19.0 L 0.0 20.0 L 0.0 21.0 L 0.0 22.0 L 0.0 23.0 L 0.0 24.0 L 0.0 25.0 L 0.0 26.0 L 0.0 27.0 L 0.0 28.0 L 0.0 29.0 L 0.0 30.0 L 0.0 31.0 L 0.0 32.0 L 0.0 33.0 L 0.0 34.0 L 0.0 35.0 L 0.0 36.0 L 0.0 37.0 L 0.0 38.0 L 0.0 39.0 L 0.0 40.0 L 0.0 41.0 L 0.0 42.0 L 0.0 43.0 L 0.0 44.0 L 0.0 45.0 L 0.0 46.0 L 0.0 47.0 L 0.0 48.0 L 0.0 49.0 L 0.0 50.0 L 0.0 51.0 L 0.0 52.0 L 0.0 53.0 L 0.0 54.0 L 0.0 55.0 L 0.0 56.0 L 0.0 57.0 L 0.0 58.0 L 0.0 59.0 L 0.0 60.0 L 0.0 61.0 L 0.0 62.0 L 0.0 63.0 L 0.0 64.0 L 0.0 65.0 L 0.0 66.0 L 0.0 67.0 L 0.0 68.0 L 0.0 69.0 L 0.0 70.0 L 0.0 71.0 L 0.0 72.0 L 0.0 73.0 L 0.0 74.0 L 0.0 75.0 L 0.0 76.0 L 0.0 77.0 L 0.0 78.0 L 0.0 79.0 L 0.0 80.0 L 0.0 81.0 L 0.0 82.0 L 0.0 83.0 L 0.0 84.0 L 0.0 85.0 L 0.0 86.0 L 0.0 87.0 L 0.0 88.0 L 0.0 89.0 L 0.0 90.0 L 0.0 91.0 L 0.0 92.0 L 0.0 93.0 L 0.0 94.0 L 0.0 95.0 L 0.0 96.0 L 0.0 97.0 L 0.0 98.0 L 0.0 99.0 L 0.0 100.0 L 0.0 101.0 L 0.0 102.0 L 0.0 103.0 L 0.0 104.0 L 0.0 105.0 L 0.0 106.0 L 0.0 107.0 L 0.0 108.0 L 0.0 109.0 L 0.0 110.0 L 0.0 111.0 L 0.0 112.0 L 0.0 113.0 L 0.0 114.0 L 0.0 115.0 L 0.0 116.0 L 0.0 117.0 L 0.0 118.0 L 0.0 119.0 L 0.0 120.0 L 0.0 121.0 L 0.0 122.0 L 0.0 123.0 L 0.0 124.0 L 0.0 125.0 L 0.0 126.0 L 0.0 127.0 L 0.3333333333333333 127.66666666666667 L 1.0 128.0 L 2.0 128.0 L 3.0 128.0 L 4.0 128.0 L 5.0 128.0 L 6.0 128.0 L 7.0 128.0 L 8.0 128.0 L 9.0 128.0 L 10.0 128.0 L 11.0 128.0 L 12.0 128.0 L 13.0 128.0 L 14.0 128.0 L 15.0 128.0 L 16.0 128.0 L 17.0 128.0 L 18.0 128.0 L 19.0 128.0 L 20.0 128.0 L 21.0 128.0 L 22.0 128.0 L 23.0 128.0 L 24.0 128.0 L 25.0 128.0 L 25.5 128.0 Z" stroke="none" fill="rgb(255,255,255)" />
<path d="M 21.5 76.0 L 22.0 75.66666666666667 L 23.0 75.33333333333333 L 24.0 74.66666666666667 L 25.0 74.33333333333333 L 26.0 74.0 L 27.0 74.0 L 27.666666666666668 73.66666666666667 L 28.0 73.0 L 28.0 72.0 L 28.0 71.0 L 28.0 70.0 L 28.0 69.0 L 28.0 68.0 L 28.0 67.0 L 28.0 66.0 L 28.0 65.0 L 28.0 64.0 L 28.0 63.0 L 28.0 62.0 L 28.0 61.0 L 28.0 60.0 L 28.0 59.0 L 28.0 58.0 L 28.0 57.0 L 28.0 56.0 L 28.0 55.0 L 28.0 54.0 L 28.0 53.0 L 28.0 52.0 L 28.0 51.0 L 28.0 50.0 L 28.0 49.0 L 28.0 48.0 L 28.0 47.0 L 28.0 46.0 L 28.0 45.0 L 28.0 44.0 L 28.0 43.0 L 28.0 42.0 L 28.0 41.0 L 28.0 40.0 L 28.0 39.0 L 28.0 38.0 L 28.0 37.0 L 28.0 36.0 L 28.0 35.0 L 28.333333333333332 34.0 L 28.666666666666668 33.0 L 29.0 32.0 L 29.0 31.0 L 29.333333333333332 30.0 L 29.666666666666668 29.0 L 30.333333333333332 28.0 L 31.0 27.0 L 32.0 26.0 L 33.0 25.0 L 34.0 24.0 L 35.0 23.0 L 36.0 22.333333333333332 L 37.0 21.666666666666668 L 38.0 21.0 L 39.0 20.333333333333332 L 40.0 19.666666666666668 L 41.0 19.333333333333332 L 42.0 19.0 L 43.0 18.666666666666668 L 44.0 18.333333333333332 L 45.0 18.0 L 46.0 17.666666666666668 L 47.0 17.333333333333332 L 48.0 17.0 L 49.0 17.0 L 50.0 17.0 L 51.0 17.0 L 52.0 16.666666666666668 L 53.0 16.333333333333332 L 54.0 16.0 L 55.0 16.0 L 56.0 16.0 L 57.0 16.0 L 58.0 16.0 L 59.0 16.0 L 60.0 16.0 L 61.0 16.0 L 62.0 16.0 L 63.0 16.0 L 64.0 16.0 L 65.0 16.0 L 66.0 16.0 L 67.0 16.0 L 68.0 16.0 L 69.0 16.0 L 70.0 16.0 L 71.0 16.0 L 72.0 16.0 L 73.0 16.0 L 74.0 16.0 L 75.0 16.0 L 76.0 16.0 L 77.0 16.0 L 78.0 16.0 L 79.0 16.333333333333332 L 80.0 16.666666666666668 L 81.0 17.0 L 82.0 17.0 L 83.0 17.333333333333332 L 84.0 17.666666666666668 L 85.0 18.333333333333332 L 86.0 18.666666666666668 L 87.0 19.333333333333332 L 88.0 19.666666666666668 L 89.0 20.333333333333332 L 90.0 21.0 L 91.0 22.0 L 92.0 23.0 L 93.0 24.0 L 94.0 25.0 L 95.0 26.0 L 96.0 27.0 L 97.0 28.0 L 97.66666666666667 29.0 L 98.33333333333333 30.0 L 98.66666666666667 31.0 L 99.0 32.0 L 99.33333333333333 33.0 L 99.66666666666667 34.0 L 100.0 35.0 L 100.0 36.0 L 100.0 37.0 L 100.0 38.0 L 100.0 39.0 L 100.0 40.0 L 100.0 41.0 L 100.0 42.0 L 100.0 43.0 L 100.0 44.0 L 100.0 45.0 L 100.0 46.0 L 100.0 47.0 L 100.0 48.0 L 100.0 49.0 L 100.0 50.0 L 100.0 51.0 L 100.0 52.0 L 100.0 53.0 L 100.0 54.0 L 100.0 55.0 L 100.0 56.0 L 100.0 57.0 L 100.0 58.0 L 100.0 59.0 L 100.0 60.0 L 100.0 61.0 L 100.0 62.0 L 100.0 63.0 L 100.0 64.0 L 100.0 65.0 L 100.0 66.0 L 100.0 67.0 L 100.0 68.0 L 100.0 69.0 L 100.0 70.0 L 100.33333333333333 71.0 L 101.0 72.0 L 102.0 73.0 L 103.0 73.66666666666667 L 104.0 74.33333333333333 L 105.0 75.0 L 106.0 75.66666666666667 L 107.0 76.33333333333333 L 108.0 76.66666666666667 L 109.0 77.33333333333333 L 110.0 77.66666666666667 L 111.0 78.33333333333333 L 112.0 78.66666666666667 L 113.0 79.0 L 114.0 79.33333333333333 L 115.0 79.66666666666667 L 116.0 80.0 L 117.0 80.0 L 118.0 79.66666666666667 L 119.0 79.0 L 119.66666666666667 78.0 L 120.0 77.0 L 120.0 76.0 L 120.0 75.0 L 120.0 74.0 L 120.0 73.0 L 120.0 72.0 L 120.0 71.0 L 120.0 70.0 L 120.0 69.0 L 120.0 68.0 L 120.0 67.0 L 120.0 66.0 L 120.0 65.0 L 120.0 64.0 L 120.0 63.0 L 120.0 62.0 L 120.0 61.0 L 120.0 60.0 L 120.0 59.0 L 120.0 58.0 L 120.0 57.0 L 120.0 56.0 L 120.0 55.0 L 119.66666666666667 54.0 L 119.33333333333333 53.0 L 119.0 52.0 L 119.0 51.0 L 119.0 50.0 L 118.66666666666667 49.0 L 118.33333333333333 48.0 L 118.0 47.0 L 118.0 46.0 L 117.66666666666667 45.0 L 117.33333333333333 44.0 L 116.66666666666667 43.0 L 116.33333333333333 42.0 L 116.0 41.0 L 115.66666666666667 40.0 L 115.33333333333333 39.0 L 114.66666666666667 38.0 L 114.33333333333333 37.0 L 113.66666666666667 36.0 L 113.33333333333333 35.0 L 112.66666666666667 34.0 L 112.33333333333333 33.0 L 111.66666666666667 32.0 L 111.0 31.0 L 110.33333333333333 30.0 L 109.66666666666667 29.0 L 109.0 28.0 L 108.0 27.0 L 107.0 26.0 L 106.0 25.0 L 105.0 24.0 L 104.0 23.0 L 103.0 22.0 L 102.0 21.0 L 101.0 20.0 L 100.0 19.0 L 99.0 18.0 L 98.0 17.333333333333332 L 97.0 16.666666666666668 L 96.0 16.0 L 95.0 15.333333333333334 L 94.0 14.666666666666666 L 93.0 14.0 L 92.0 13.333333333333334 L 91.0 12.666666666666666 L 90.0 12.333333333333334 L 89.0 11.666666666666666 L 88.0 11.333333333333334 L 87.0 10.666666666666666 L 86.0 10.333333333333334 L 85.0 9.666666666666666 L 84.0 9.333333333333334 L 83.0 8.666666666666666 L 82.0 8.333333333333334 L 81.0 8.0 L 80.0 7.666666666666667 L 79.0 7.333333333333333 L 78.0 7.0 L 77.0 7.0 L 76.0 6.666666666666667 L 75.0 6.333333333333333 L 74.0 6.0 L 73.0 6.0 L 72.0 6.0 L 71.0 6.0 L 70.0 5.666666666666667 L 69.33333333333333 5.0 L 68.66666666666667 4.333333333333333 L 68.0 4.0 L 67.0 4.0 L 66.0 4.0 L 65.0 4.0 L 64.0 4.0 L 63.0 4.0 L 62.0 4.0 L 61.0 4.0 L 60.0 4.333333333333333 L 59.0 5.0 L 58.0 5.666666666666667 L 57.0 6.333333333333333 L 56.0 6.666666666666667 L 55.0 7.0 L 54.0 7.0 L 53.0 7.0 L 52.0 7.333333333333333 L 51.0 7.666666666666667 L 50.0 8.0 L 49.0 8.0 L 48.0 8.333333333333334 L 47.0 8.666666666666666 L 46.0 9.0 L 45.0 9.333333333333334 L 44.0 9.666666666666666 L 43.0 10.333333333333334 L 42.0 10.666666666666666 L 41.0 11.0 L 40.0 11.333333333333334 L 39.0 11.666666666666666 L 38.0 12.333333333333334 L 37.0 13.0 L 36.0 13.666666666666666 L 35.0 14.333333333333334 L 34.0 14.666666666666666 L 33.0 15.333333333333334 L 32.0 16.0 L 31.0 17.0 L 30.0 17.666666666666668 L 29.0 18.333333333333332 L 28.0 19.0 L 27.0 20.0 L 26.0 21.0 L 25.0 22.0 L 24.0 23.0 L 23.0 24.0 L 22.0 25.0 L 21.0 26.0 L 20.0 27.0 L 19.0 28.0 L 18.333333333333332 29.0 L 17.666666666666668 30.0 L 17.0 31.0 L 16.333333333333332 32.0 L 15.666666666666666 33.0 L 15.333333333333334 34.0 L 14.666666666666666 35.0 L 14.333333333333334 36.0 L 13.666666666666666 37.0 L 13.333333333333334 38.0 L 12.666666666666666 39.0 L 12.333333333333334 40.0 L 12.0 41.0 L 11.666666666666666 42.0 L 11.333333333333334 43.0 L 11.0 44.0 L 10.666666666666666 45.0 L 10.333333333333334 46.0 L 10.0 47.0 L 10.0 48.0 L 9.666666666666666 49.0 L 9.333333333333334 50.0 L 9.0 51.0 L 9.0 52.0 L 9.0 53.0 L 8.666666666666666 54.0 L 8.333333333333334 55.0 L 8.0 56.0 L 8.0 57.0 L 8.0 58.0 L 8.0 59.0 L 8.0 60.0 L 8.0 61.0 L 8.0 62.0 L 8.0 63.0 L 8.0 64.0 L 8.0 65.0 L 8.0 66.0 L 8.0 67.0 L 8.0 68.0 L 8.0 69.0 L 8.0 70.0 L 8.0 71.0 L 8.0 72.0 L 8.0 73.0 L 8.333333333333334 74.0 L 8.666666666666666 75.0 L 9.333333333333334 76.0 L 10.0 76.66666666666667 L 11.0 77.0 L 12.0 77.0 L 13.0 77.0 L 14.0 77.0 L 15.0 77.0 L 16.0 77.0 L 17.0 77.0 L 18.0 77.0 L 19.0 77.0 L 20.0 76.66666666666667 L 20.5 76.5 Z" stroke="none" fill="rgb(0,0,0)" />
<path d="M 59.5 83.0 L 60.0 83.0 L 61.0 83.0 L 62.0 83.0 L 63.0 83.0 L 64.0 83.0 L 65.0 83.0 L 66.0 83.0 L 67.0 83.0 L 68.0 83.0 L 69.0 83.0 L 70.0 83.0 L 71.0 83.0 L 72.0 83.0 L 73.0 83.0 L 74.0 83.0 L 75.0 83.0 L 76.0 83.0 L 77.0 83.0 L 78.0 83.0 L 79.0 83.0 L 80.0 83.0 L 81.0 83.0 L 82.0 83.0 L 83.0 83.0 L 84.0 83.0 L 85.0 83.0 L 86.0 83.0 L 87.0 83.0 L 88.0 83.0 L 89.0 83.0 L 90.0 83.0 L 91.0 83.0 L 92.0 83.0 L 93.0 83.0 L 94.0 83.0 L 95.0 83.0 L 96.0 83.0 L 97.0 83.0 L 98.0 83.0 L 99.0 83.0 L 100.0 82.66666666666667 L 100.66666666666667 82.0 L 101.0 81.0 L 101.0 80.0 L 101.0 79.0 L 101.0 78.0 L 101.0 77.0 L 101.0 76.0 L 101.0 75.0 L 101.33333333333333 74.0 L 101.66666666666667 73.0 L 101.66666666666667 72.0 L 101.0 71.0 L 100.33333333333333 70.0 L 100.0 69.0 L 100.0 68.0 L 100.0 67.0 L 100.0 66.0 L 100.0 65.0 L 100.0 64.0 L 100.0 63.0 L 100.0 62.0 L 100.0 61.0 L 100.0 60.0 L 100.0 59.0 L 100.0 58.0 L 100.0 57.0 L 100.0 56.0 L 100.0 55.0 L 100.0 54.0 L 100.0 53.0 L 100.0 52.0 L 100.0 51.0 L 100.0 50.0 L 100.0 49.0 L 100.0 48.0 L 99.66666666666667 47.333333333333336 L 99.0 47.0 L 98.0 47.0 L 97.33333333333333 47.333333333333336 L 97.0 48.0 L 97.0 49.0 L 97.0 50.0 L 97.0 51.0 L 97.0 52.0 L 97.0 53.0 L 97.0 54.0 L 97.0 55.0 L 97.0 56.0 L 97.0 57.0 L 97.0 58.0 L 97.0 59.0 L 97.0 60.0 L 96.66666666666667 61.0 L 96.0 62.0 L 95.0 63.0 L 94.0 63.666666666666664 L 93.0 64.0 L 92.0 64.0 L 91.0 64.0 L 90.0 64.0 L 89.0 64.0 L 88.0 64.0 L 87.0 64.0 L 86.0 64.0 L 85.0 64.0 L 84.0 64.0 L 83.0 64.0 L 82.0 64.0 L 81.0 64.0 L 80.0 63.666666666666664 L 79.0 63.0 L 78.0 62.0 L 77.33333333333333 61.0 L 77.0 60.0 L 77.0 59.0 L 77.0 58.0 L 77.0 57.0 L 77.0 56.0 L 77.0 55.0 L 77.0 54.0 L 77.0 53.0 L 77.0 52.0 L 77.0 51.0 L 77.0 50.0 L 77.0 49.0 L 76.66666666666667 48.0 L 76.0 47.0 L 75.33333333333333 46.0 L 75.0 45.0 L 75.0 44.0 L 75.0 43.0 L 75.0 42.0 L 75.0 41.0 L 75.0 40.0 L 74.66666666666667 39.0 L 74.0 38.0 L 73.0 37.0 L 72.0 36.333333333333336 L 71.0 36.0 L 70.0 36.0 L 69.0 36.0 L 68.0 36.0 L 67.0 36.0 L 66.0 36.0 L 65.0 36.0 L 64.0 36.0 L 63.0 36.0 L 62.0 36.0 L 61.0 36.0 L 60.0 36.0 L 59.0 36.0 L 58.0 36.0 L 57.0 36.333333333333336 L 56.0 36.666666666666664 L 55.333333333333336 37.333333333333336 L 55.0 38.0 L 55.0 39.0 L 55.0 40.0 L 55.0 41.0 L 55.0 42.0 L 55.0 43.0 L 55.0 44.0 L 55.0 45.0 L 55.0 46.0 L 55.0 47.0 L 55.0 48.0 L 55.0 49.0 L 55.0 50.0 L 55.0 51.0 L 55.0 52.0 L 55.0 53.0 L 55.0 54.0 L 55.0 55.0 L 55.0 56.0 L 55.0 57.0 L 55.0 58.0 L 55.0 59.0 L 55.0 60.0 L 55.0 61.0 L 55.0 62.0 L 55.0 63.0 L 55.0 64.0 L 55.0 65.0 L 55.0 66.0 L 55.0 67.0 L 55.0 68.0 L 55.0 69.0 L 55.0 70.0 L 55.0 71.0 L 55.0 72.0 L 55.0 73.0 L 55.0 74.0 L 55.0 75.0 L 55.0 76.0 L 55.0 77.0 L 54.666666666666664 78.0 L 54.0 78.33333333333333 L 53.333333333333336 78.0 L 52.666666666666664 77.0 L 52.333333333333336 76.0 L 52.0 75.0 L 52.0 74.0 L 52.0 73.0 L 52.0 72.0 L 52.0 71.0 L 52.0 70.0 L 52.0 69.0 L 52.0 68.0 L 52.0 67.0 L 52.0 66.0 L 52.0 65.0 L 52.0 64.0 L 51.666666666666664 63.333333333333336 L 51.0 63.0 L 50.0 63.333333333333336 L 49.0 63.666666666666664 L 48.0 64.0 L 47.0 64.0 L 46.0 64.0 L 45.0 64.0 L 44.0 64.0 L 43.0 64.0 L 42.0 64.0 L 41.0 64.0 L 40.0 64.0 L 39.0 64.0 L 38.0 64.0 L 37.0 64.0 L 36.0 64.0 L 35.0 63.666666666666664 L 34.0 63.0 L 33.0 62.0 L 32.333333333333336 61.0 L 32.0 60.0 L 32.0 59.0 L 32.0 58.0 L 32.0 57.0 L 32.0 56.0 L 32.0 55.0 L 32.0 54.0 L 32.0 53.0 L 32.0 52.0 L 32.0 51.0 L 32.0 50.0 L 32.0 49.0 L 31.666666666666668 48.0 L 31.0 47.333333333333336 L 30.0 46.666666666666664 L 29.0 46.333333333333336 L 28.333333333333332 46.333333333333336 L 28.0 47.0 L 28.0 48.0 L 28.0 49.0 L 28.0 50.0 L 28.0 51.0 L 28.0 52.0 L 28.0 53.0 L 28.0 54.0 L 28.0 55.0 L 28.0 56.0 L 28.0 57.0 L 28.0 58.0 L 28.0 59.0 L 28.0 60.0 L 28.0 61.0 L 28.0 62.0 L 28.0 63.0 L 28.0 64.0 L 28.0 65.0 L 28.0 66.0 L 28.0 67.0 L 28.0 68.0 L 28.0 69.0 L 28.0 70.0 L 28.0 71.0 L 28.0 72.0 L 27.666666666666668 73.0 L 27.333333333333332 74.0 L 27.0 75.0 L 27.0 76.0 L 27.0 77.0 L 27.0 78.0 L 27.0 79.0 L 27.0 80.0 L 27.333333333333332 81.0 L 28.0 82.0 L 29.0 82.66666666666667 L 30.0 83.0 L 31.0 83.0 L 32.0 83.0 L 33.0 83.0 L 34.0 83.0 L 35.0 83.0 L 36.0 83.0 L 37.0 83.0 L 38.0 83.0 L 39.0 83.0 L 40.0 83.0 L 41.0 83.0 L 42.0 83.0 L 43.0 83.0 L 44.0 83.0 L 45.0 83.0 L 46.0 83.0 L 47.0 83.0 L 48.0 83.0 L 49.0 83.0 L 50.0 83.0 L 51.0 83.0 L 52.0 83.0 L 53.0 83.0 L 54.0 83.0 L 55.0 83.0 L 56.0 83.0 L 57.0 83.0 L 58.0 83.0 L 58.5 83.0 Z" stroke="none" fill="rgb(244,67,54)" />
<path d="M 88.5 26.5 L 89.0 27.0 L 90.0 28.0 L 91.0 29.0 L 92.0 30.0 L 93.0 31.0 L 94.0 32.0 L 94.66666666666667 33.0 L 95.0 34.0 L 95.33333333333333 35.0 L 95.66666666666667 36.0 L 96.0 37.0 L 96.0 38.0 L 96.0 39.0 L 96.0 40.0 L 96.0 41.0 L 96.0 42.0 L 96.0 43.0 L 96.0 44.0 L 96.0 45.0 L 96.33333333333333 46.0 L 97.0 46.666666666666664 L 98.0 47.0 L 99.0 47.0 L 99.66666666666667 46.666666666666664 L 100.0 46.0 L 100.0 45.0 L 100.0 44.0 L 100.0 43.0 L 100.0 42.0 L 100.0 41.0 L 100.0 40.0 L 100.0 39.0 L 100.0 38.0 L 100.0 37.0 L 100.0 36.0 L 100.0 35.0 L 100.0 34.0 L 99.66666666666667 33.0 L 99.33333333333333 32.0 L 99.0 31.0 L 98.66666666666667 30.0 L 98.33333333333333 29.0 L 97.66666666666667 28.0 L 97.0 27.0 L 96.0 26.0 L 95.0 25.0 L 94.0 24.0 L 93.0 23.0 L 92.0 22.0 L 91.0 21.0 L 90.0 20.333333333333332 L 89.0 19.666666666666668 L 88.0 19.333333333333332 L 87.0 18.666666666666668 L 86.0 18.333333333333332 L 85.0 17.666666666666668 L 84.0 17.333333333333332 L 83.0 17.0 L 82.0 17.0 L 81.0 16.666666666666668 L 80.0 16.333333333333332 L 79.0 16.0 L 78.0 16.0 L 77.0 16.0 L 76.0 16.0 L 75.0 16.0 L 74.0 16.0 L 73.0 16.0 L 72.0 16.0 L 71.0 16.0 L 70.0 16.0 L 69.0 16.0 L 68.0 16.0 L 67.0 16.0 L 66.0 16.0 L 65.0 16.0 L 64.0 16.0 L 63.0 16.0 L 62.0 16.0 L 61.0 16.0 L 60.0 16.0 L 59.0 16.0 L 58.0 16.0 L 57.0 16.0 L 56.0 16.0 L 55.0 16.0 L 54.0 16.0 L 53.0 16.0 L 52.0 16.333333333333332 L 51.0 16.666666666666668 L 50.0 17.0 L 49.0 17.0 L 48.0 17.0 L 47.0 17.0 L 46.0 17.333333333333332 L 45.0 17.666666666666668 L 44.0 18.0 L 43.0 18.333333333333332 L 42.0 18.666666666666668 L 41.0 19.0 L 40.0 19.333333333333332 L 39.0 19.666666666666668 L 38.0 20.333333333333332 L 37.0 21.0 L 36.0 21.666666666666668 L 35.0 22.333333333333332 L 34.0 23.0 L 33.0 24.0 L 32.0 25.0 L 31.0 26.0 L 30.333333333333332 27.0 L 29.666666666666668 28.0 L 29.333333333333332 29.0 L 29.0 30.0 L 29.0 31.0 L 28.666666666666668 32.0 L 28.333333333333332 33.0 L 28.0 34.0 L 28.0 35.0 L 28.0 36.0 L 28.0 37.0 L 28.0 38.0 L 28.0 39.0 L 28.0 40.0 L 28.0 41.0 L 28.0 42.0 L 28.0 43.0 L 28.0 44.0 L 28.0 45.0 L 28.333333333333332 46.0 L 29.0 46.666666666666664 L 30.0 47.0 L 31.0 47.0 L 31.666666666666668 46.666666666666664 L 32.0 46.0 L 32.0 45.0 L 32.0 44.0 L 32.0 43.0 L 32.333333333333336 42.0 L 32.666666666666664 41.0 L 33.0 40.0 L 33.0 39.0 L 33.0 38.0 L 33.0 37.0 L 33.333333333333336 36.0 L 33.666666666666664 35.0 L 34.0 34.0 L 34.333333333333336 33.0 L 34.666666666666664 32.0 L 35.333333333333336 31.0 L 36.0 30.0 L 37.0 29.0 L 38.0 28.0 L 39.0 27.333333333333332 L 40.0 26.666666666666668 L 41.0 26.0 L 42.0 25.333333333333332 L 43.0 24.666666666666668 L 44.0 24.333333333333332 L 45.0 24.0 L 46.0 24.0 L 47.0 23.666666666666668 L 48.0 23.333333333333332 L 49.0 23.333333333333332 L 49.666666666666664 24.0 L 50.0 25.0 L 50.0 26.0 L 50.0 27.0 L 50.0 28.0 L 50.0 29.0 L 50.0 30.0 L 50.0 31.0 L 50.0 32.0 L 50.0 33.0 L 50.0 34.0 L 50.0 35.0 L 50.0 36.0 L 50.0 37.0 L 50.0 38.0 L 50.0 39.0 L 50.0 40.0 L 50.0 41.0 L 50.0 42.0 L 50.0 43.0 L 50.0 44.0 L 50.0 45.0 L 50.0 46.0 L 50.333333333333336 47.0 L 51.0 47.666666666666664 L 52.0 48.0 L 52.666666666666664 47.666666666666664 L 53.0 47.0 L 53.0 46.0 L 53.0 45.0 L 53.0 44.0 L 53.0 43.0 L 53.0 42.0 L 53.0 41.0 L 53.0 40.0 L 53.0 39.0 L 53.333333333333336 38.0 L 54.0 37.0 L 55.0 36.0 L 56.0 35.666666666666664 L 57.0 35.666666666666664 L 58.0 36.0 L 59.0 36.0 L 60.0 36.0 L 61.0 36.0 L 62.0 36.0 L 63.0 36.0 L 64.0 36.0 L 65.0 36.0 L 66.0 36.0 L 67.0 36.0 L 68.0 36.0 L 69.0 36.0 L 70.0 36.0 L 71.0 36.333333333333336 L 72.0 37.0 L 73.0 38.0 L 74.0 39.0 L 74.66666666666667 40.0 L 75.0 41.0 L 75.0 42.0 L 75.0 43.0 L 75.0 44.0 L 75.0 45.0 L 75.0 46.0 L 75.33333333333333 47.0 L 76.0 47.666666666666664 L 77.0 48.0 L 77.66666666666667 47.666666666666664 L 78.0 47.0 L 78.0 46.0 L 78.0 45.0 L 78.0 44.0 L 78.0 43.0 L 78.0 42.0 L 78.0 41.0 L 78.0 40.0 L 78.0 39.0 L 78.0 38.0 L 78.0 37.0 L 78.0 36.0 L 78.0 35.0 L 78.0 34.0 L 78.0 33.0 L 78.0 32.0 L 78.0 31.0 L 78.0 30.0 L 78.0 29.0 L 78.0 28.0 L 78.0 27.0 L 78.0 26.0 L 78.33333333333333 25.0 L 79.0 24.0 L 80.0 23.333333333333332 L 81.0 23.0 L 82.0 23.0 L 83.0 23.333333333333332 L 84.0 23.666666666666668 L 85.0 24.333333333333332 L 86.0 24.666666666666668 L 87.0 25.333333333333332 L 87.5 25.5 Z" stroke="none" fill="rgb(130,174,192)" />
<path d="M 21.5 107.5 L 22.0 107.66666666666667 L 23.0 108.0 L 24.0 107.66666666666667 L 25.0 107.0 L 26.0 106.0 L 27.0 105.0 L 28.0 104.0 L 29.0 103.0 L 30.0 102.0 L 31.0 101.0 L 32.0 100.33333333333333 L 32.666666666666664 99.66666666666667 L 33.0 99.0 L 33.0 98.0 L 33.0 97.0 L 33.0 96.0 L 32.666666666666664 95.0 L 32.0 94.0 L 31.0 93.33333333333333 L 30.0 92.66666666666667 L 29.0 92.0 L 28.333333333333332 91.0 L 28.0 90.0 L 28.0 89.0 L 28.0 88.0 L 28.333333333333332 87.0 L 28.666666666666668 86.0 L 28.666666666666668 85.0 L 28.666666666666668 84.0 L 28.666666666666668 83.0 L 28.666666666666668 82.0 L 28.0 81.0 L 27.333333333333332 80.0 L 27.0 79.0 L 27.0 78.0 L 27.0 77.0 L 27.0 76.0 L 27.0 75.0 L 26.666666666666668 74.33333333333333 L 26.0 74.0 L 25.0 74.0 L 24.0 74.33333333333333 L 23.0 74.66666666666667 L 22.0 75.33333333333333 L 21.0 75.66666666666667 L 20.0 76.33333333333333 L 19.0 76.66666666666667 L 18.0 77.0 L 17.0 77.0 L 16.0 77.0 L 15.0 77.0 L 14.0 77.0 L 13.0 77.0 L 12.0 77.0 L 11.0 76.66666666666667 L 10.0 76.0 L 9.333333333333334 75.0 L 8.666666666666666 74.0 L 8.333333333333334 73.0 L 8.0 72.0 L 8.0 71.0 L 8.0 70.0 L 8.0 69.0 L 8.0 68.0 L 8.0 67.0 L 8.0 66.0 L 8.0 65.0 L 8.0 64.0 L 8.0 63.0 L 8.0 62.0 L 8.0 61.0 L 8.0 60.0 L 8.0 59.0 L 8.0 58.0 L 8.0 57.0 L 8.333333333333334 56.0 L 8.666666666666666 55.0 L 9.0 54.0 L 9.0 53.0 L 9.0 52.0 L 9.333333333333334 51.0 L 9.666666666666666 50.0 L 10.0 49.0 L 10.0 48.0 L 10.333333333333334 47.0 L 10.666666666666666 46.0 L 11.0 45.0 L 11.333333333333334 44.0 L 11.666666666666666 43.0 L 12.0 42.0 L 12.333333333333334 41.0 L 12.666666666666666 40.0 L 13.333333333333334 39.0 L 13.666666666666666 38.0 L 14.333333333333334 37.0 L 14.666666666666666 36.0 L 15.333333333333334 35.0 L 15.666666666666666 34.0 L 16.333333333333332 33.0 L 17.0 32.0 L 17.666666666666668 31.0 L 18.333333333333332 30.0 L 19.0 29.0 L 20.0 28.0 L 21.0 27.0 L 22.0 26.0 L 23.0 25.0 L 24.0 24.0 L 25.0 23.0 L 26.0 22.0 L 27.0 21.0 L 28.0 20.0 L 29.0 19.0 L 30.0 18.333333333333332 L 31.0 17.666666666666668 L 32.0 17.0 L 33.0 16.0 L 34.0 15.333333333333334 L 35.0 14.666666666666666 L 36.0 14.333333333333334 L 37.0 13.666666666666666 L 38.0 13.0 L 39.0 12.333333333333334 L 40.0 11.666666666666666 L 41.0 11.333333333333334 L 42.0 11.0 L 43.0 10.666666666666666 L 44.0 10.333333333333334 L 45.0 9.666666666666666 L 46.0 9.333333333333334 L 47.0 9.0 L 48.0 8.666666666666666 L 49.0 8.333333333333334 L 50.0 8.0 L 51.0 8.0 L 52.0 7.666666666666667 L 53.0 7.333333333333333 L 54.0 7.0 L 55.0 7.0 L 56.0 7.0 L 57.0 6.666666666666667 L 58.0 6.333333333333333 L 59.0 5.666666666666667 L 59.666666666666664 5.0 L 59.666666666666664 4.333333333333333 L 59.0 4.0 L 58.0 4.0 L 57.0 4.0 L 56.0 4.0 L 55.0 4.0 L 54.0 4.0 L 53.0 4.333333333333333 L 52.0 4.666666666666667 L 51.0 5.0 L 50.0 5.0 L 49.0 5.0 L 48.0 5.333333333333333 L 47.0 5.666666666666667 L 46.0 6.0 L 45.0 6.333333333333333 L 44.0 6.666666666666667 L 43.0 7.0 L 42.0 7.333333333333333 L 41.0 7.666666666666667 L 40.0 8.0 L 39.0 8.333333333333334 L 38.0 8.666666666666666 L 37.0 9.333333333333334 L 36.0 9.666666666666666 L 35.0 10.333333333333334 L 34.0 11.0 L 33.0 11.666666666666666 L 32.0 12.333333333333334 L 31.0 12.666666666666666 L 30.0 13.333333333333334 L 29.0 14.0 L 28.0 14.666666666666666 L 27.0 15.333333333333334 L 26.0 16.0 L 25.0 17.0 L 24.0 18.0 L 23.0 19.0 L 22.0 20.0 L 21.0 21.0 L 20.0 22.0 L 19.0 23.0 L 18.0 24.0 L 17.0 25.0 L 16.0 26.0 L 15.333333333333334 27.0 L 14.666666666666666 28.0 L 14.0 29.0 L 13.333333333333334 30.0 L 12.666666666666666 31.0 L 12.333333333333334 32.0 L 11.666666666666666 33.0 L 11.0 34.0 L 10.333333333333334 35.0 L 9.666666666666666 36.0 L 9.333333333333334 37.0 L 8.666666666666666 38.0 L 8.333333333333334 39.0 L 8.0 40.0 L 7.666666666666667 41.0 L 7.333333333333333 42.0 L 7.0 43.0 L 6.666666666666667 44.0 L 6.333333333333333 45.0 L 6.0 46.0 L 5.666666666666667 47.0 L 5.333333333333333 48.0 L 5.0 49.0 L 5.0 50.0 L 5.0 51.0 L 4.666666666666667 52.0 L 4.333333333333333 53.0 L 4.0 54.0 L 4.0 55.0 L 4.0 56.0 L 4.0 57.0 L 4.0 58.0 L 4.0 59.0 L 4.0 60.0 L 4.0 61.0 L 4.0 62.0 L 4.0 63.0 L 4.0 64.0 L 4.0 65.0 L 4.0 66.0 L 4.0 67.0 L 4.0 68.0 L 4.0 69.0 L 4.0 70.0 L 4.0 71.0 L 4.0 72.0 L 4.0 73.0 L 4.0 74.0 L 4.333333333333333 75.0 L 4.666666666666667 76.0 L 5.0 77.0 L 5.0 78.0 L 5.0 79.0 L 5.333333333333333 80.0 L 5.666666666666667 81.0 L 6.0 82.0 L 6.333333333333333 83.0 L 6.666666666666667 84.0 L 7.0 85.0 L 7.333333333333333 86.0 L 7.666666666666667 87.0 L 8.0 88.0 L 8.333333333333334 89.0 L 8.666666666666666 90.0 L 9.333333333333334 91.0 L 9.666666666666666 92.0 L 10.333333333333334 93.0 L 11.0 94.0 L 11.666666666666666 95.0 L 12.333333333333334 96.0 L 12.666666666666666 97.0 L 13.333333333333334 98.0 L 14.0 99.0 L 14.666666666666666 100.0 L 15.333333333333334 101.0 L 16.0 102.0 L 17.0 103.0 L 18.0 104.0 L 19.0 105.0 L 20.0 106.0 L 20.5 106.5 Z" stroke="none" fill="rgb(69,90,100)" />
<path d="M 104.5 108.0 L 105.0 108.0 L 106.0 107.66666666666667 L 107.0 107.0 L 108.0 106.0 L 109.0 105.0 L 110.0 104.0 L 111.0 103.0 L 112.0 102.0 L 112.66666666666667 101.0 L 113.33333333333333 100.0 L 114.0 99.0 L 114.66666666666667 98.0 L 115.33333333333333 97.0 L 115.66666666666667 96.0 L 116.33333333333333 95.0 L 117.0 94.0 L 117.66666666666667 93.0 L 118.33333333333333 92.0 L 118.66666666666667 91.0 L 119.33333333333333 90.0 L 119.66666666666667 89.0 L 120.0 88.0 L 120.33333333333333 87.0 L 120.66666666666667 86.0 L 121.0 85.0 L 121.33333333333333 84.0 L 121.66666666666667 83.0 L 122.0 82.0 L 122.33333333333333 81.0 L 122.66666666666667 80.0 L 123.0 79.0 L 123.0 78.0 L 123.0 77.0 L 123.33333333333333 76.0 L 123.66666666666667 75.0 L 124.0 74.0 L 124.0 73.0 L 124.0 72.0 L 124.0 71.0 L 124.0 70.0 L 124.0 69.0 L 124.0 68.0 L 124.0 67.0 L 124.0 66.0 L 124.33333333333333 65.0 L 124.66666666666667 64.0 L 124.66666666666667 63.0 L 124.33333333333333 62.0 L 124.0 61.0 L 124.0 60.0 L 124.0 59.0 L 124.0 58.0 L 124.0 57.0 L 124.0 56.0 L 124.0 55.0 L 124.0 54.0 L 123.66666666666667 53.0 L 123.33333333333333 52.0 L 123.0 51.0 L 123.0 50.0 L 123.0 49.0 L 122.66666666666667 48.0 L 122.33333333333333 47.0 L 122.0 46.0 L 121.66666666666667 45.0 L 121.33333333333333 44.0 L 121.0 43.0 L 120.66666666666667 42.0 L 120.33333333333333 41.0 L 120.0 40.0 L 119.66666666666667 39.0 L 119.33333333333333 38.0 L 118.66666666666667 37.0 L 118.33333333333333 36.0 L 117.66666666666667 35.0 L 117.0 34.0 L 116.33333333333333 33.0 L 115.66666666666667 32.0 L 115.33333333333333 31.0 L 114.66666666666667 30.0 L 114.0 29.0 L 113.33333333333333 28.0 L 112.66666666666667 27.0 L 112.0 26.0 L 111.0 25.0 L 110.0 24.0 L 109.0 23.0 L 108.0 22.0 L 107.0 21.0 L 106.0 20.0 L 105.0 19.0 L 104.0 18.0 L 103.0 17.0 L 102.0 16.0 L 101.0 15.333333333333334 L 100.0 14.666666666666666 L 99.0 14.0 L 98.0 13.333333333333334 L 97.0 12.666666666666666 L 96.0 12.333333333333334 L 95.0 11.666666666666666 L 94.0 11.0 L 93.0 10.333333333333334 L 92.0 9.666666666666666 L 91.0 9.333333333333334 L 90.0 8.666666666666666 L 89.0 8.333333333333334 L 88.0 8.0 L 87.0 7.666666666666667 L 86.0 7.333333333333333 L 85.0 7.0 L 84.0 6.666666666666667 L 83.0 6.333333333333333 L 82.0 6.0 L 81.0 5.666666666666667 L 80.0 5.333333333333333 L 79.0 5.0 L 78.0 5.0 L 77.0 5.0 L 76.0 4.666666666666667 L 75.0 4.333333333333333 L 74.0 4.0 L 73.0 4.0 L 72.0 4.0 L 71.0 4.0 L 70.0 4.0 L 69.33333333333333 4.333333333333333 L 69.0 5.0 L 69.33333333333333 5.666666666666667 L 70.0 6.0 L 71.0 6.0 L 72.0 6.0 L 73.0 6.0 L 74.0 6.333333333333333 L 75.0 6.666666666666667 L 76.0 7.0 L 77.0 7.0 L 78.0 7.333333333333333 L 79.0 7.666666666666667 L 80.0 8.0 L 81.0 8.333333333333334 L 82.0 8.666666666666666 L 83.0 9.333333333333334 L 84.0 9.666666666666666 L 85.0 10.333333333333334 L 86.0 10.666666666666666 L 87.0 11.333333333333334 L 88.0 11.666666666666666 L 89.0 12.333333333333334 L 90.0 12.666666666666666 L 91.0 13.333333333333334 L 92.0 14.0 L 93.0 14.666666666666666 L 94.0 15.333333333333334 L 95.0 16.0 L 96.0 16.666666666666668 L 97.0 17.333333333333332 L 98.0 18.0 L 99.0 19.0 L 100.0 20.0 L 101.0 21.0 L 102.0 22.0 L 103.0 23.0 L 104.0 24.0 L 105.0 25.0 L 106.0 26.0 L 107.0 27.0 L 108.0 28.0 L 109.0 29.0 L 109.66666666666667 30.0 L 110.33333333333333 31.0 L 111.0 32.0 L 111.66666666666667 33.0 L 112.33333333333333 34.0 L 112.66666666666667 35.0 L 113.33333333333333 36.0 L 113.66666666666667 37.0 L 114.33333333333333 38.0 L 114.66666666666667 39.0 L 115.33333333333333 40.0 L 115.66666666666667 41.0 L 116.0 42.0 L 116.33333333333333 43.0 L 116.66666666666667 44.0 L 117.33333333333333 45.0 L 117.66666666666667 46.0 L 118.0 47.0 L 118.0 48.0 L 118.33333333333333 49.0 L 118.66666666666667 50.0 L 119.0 51.0 L 119.0 52.0 L 119.0 53.0 L 119.33333333333333 54.0 L 119.66666666666667 55.0 L 120.0 56.0 L 120.0 57.0 L 120.0 58.0 L 120.0 59.0 L 120.0 60.0 L 120.0 61.0 L 120.0 62.0 L 120.0 63.0 L 120.0 64.0 L 120.0 65.0 L 120.0 66.0 L 120.0 67.0 L 120.0 68.0 L 120.0 69.0 L 120.0 70.0 L 120.0 71.0 L 120.0 72.0 L 120.0 73.0 L 120.0 74.0 L 120.0 75.0 L 120.0 76.0 L 119.66666666666667 77.0 L 119.0 78.0 L 118.0 79.0 L 117.0 79.66666666666667 L 116.0 79.66666666666667 L 115.0 79.33333333333333 L 114.0 79.0 L 113.0 78.66666666666667 L 112.0 78.33333333333333 L 111.0 77.66666666666667 L 110.0 77.33333333333333 L 109.0 76.66666666666667 L 108.0 76.33333333333333 L 107.0 75.66666666666667 L 106.0 75.0 L 105.0 74.33333333333333 L 104.0 73.66666666666667 L 103.0 73.33333333333333 L 102.0 73.0 L 101.33333333333333 73.33333333333333 L 101.0 74.0 L 101.0 75.0 L 101.0 76.0 L 101.0 77.0 L 101.0 78.0 L 101.0 79.0 L 101.0 80.0 L 100.66666666666667 81.0 L 100.33333333333333 82.0 L 100.0 83.0 L 100.0 84.0 L 100.0 85.0 L 100.0 86.0 L 100.0 87.0 L 100.0 88.0 L 100.0 89.0 L 100.0 90.0 L 99.66666666666667 91.0 L 99.0 92.0 L 98.0 93.0 L 97.33333333333333 94.0 L 97.0 95.0 L 96.66666666666667 96.0 L 96.33333333333333 97.0 L 96.0 98.0 L 96.0 99.0 L 96.33333333333333 100.0 L 97.0 101.0 L 98.0 102.0 L 99.0 103.0 L 100.0 104.0 L 101.0 105.0 L 102.0 106.0 L 103.0 107.0 L 103.5 107.5 Z" stroke="none" fill="rgb(69,90,100)" />
<path d="M 48.5 123.0 L 49.0 123.0 L 50.0 123.0 L 51.0 123.0 L 52.0 123.33333333333333 L 53.0 123.66666666666667 L 54.0 124.0 L 55.0 124.0 L 56.0 124.0 L 57.0 124.0 L 58.0 124.0 L 59.0 124.0 L 60.0 124.0 L 61.0 124.0 L 62.0 124.0 L 63.0 124.0 L 64.0 124.0 L 65.0 124.0 L 66.0 124.0 L 67.0 124.0 L 68.0 124.0 L 69.0 124.0 L 70.0 124.0 L 71.0 124.0 L 72.0 124.0 L 73.0 124.0 L 74.0 124.0 L 75.0 123.66666666666667 L 76.0 123.33333333333333 L 77.0 123.0 L 78.0 123.0 L 79.0 123.0 L 80.0 122.66666666666667 L 81.0 122.33333333333333 L 82.0 122.0 L 83.0 121.66666666666667 L 84.0 121.33333333333333 L 85.0 121.0 L 86.0 120.66666666666667 L 87.0 120.33333333333333 L 88.0 120.0 L 89.0 119.66666666666667 L 90.0 119.33333333333333 L 91.0 118.66666666666667 L 92.0 118.33333333333333 L 93.0 117.66666666666667 L 93.66666666666667 117.0 L 93.66666666666667 116.0 L 93.0 115.0 L 92.33333333333333 114.0 L 92.0 113.0 L 91.66666666666667 112.0 L 91.33333333333333 111.0 L 90.66666666666667 110.0 L 90.33333333333333 109.0 L 89.66666666666667 108.0 L 89.0 107.0 L 88.0 106.33333333333333 L 87.0 106.0 L 86.0 106.0 L 85.0 106.0 L 84.0 106.0 L 83.0 106.33333333333333 L 82.0 106.66666666666667 L 81.0 107.0 L 80.0 107.0 L 79.0 107.33333333333333 L 78.0 107.66666666666667 L 77.0 108.0 L 76.0 108.0 L 75.0 108.0 L 74.0 108.0 L 73.0 108.0 L 72.0 108.0 L 71.0 108.0 L 70.0 108.0 L 69.0 108.0 L 68.0 108.0 L 67.0 108.0 L 66.0 108.0 L 65.0 108.0 L 64.0 108.0 L 63.0 108.0 L 62.0 108.0 L 61.0 108.0 L 60.0 108.0 L 59.0 108.0 L 58.0 108.0 L 57.0 108.0 L 56.0 108.0 L 55.0 107.66666666666667 L 54.0 107.33333333333333 L 53.0 107.0 L 52.0 107.0 L 51.0 107.0 L 50.0 107.0 L 49.0 107.0 L 48.0 106.66666666666667 L 47.0 106.33333333333333 L 46.0 106.0 L 45.0 106.0 L 44.0 106.0 L 43.0 106.0 L 42.0 106.0 L 41.0 106.0 L 40.0 106.33333333333333 L 39.333333333333336 107.0 L 38.666666666666664 108.0 L 38.333333333333336 109.0 L 37.666666666666664 110.0 L 37.333333333333336 111.0 L 36.666666666666664 112.0 L 36.333333333333336 113.0 L 35.666666666666664 114.0 L 35.0 115.0 L 34.333333333333336 116.0 L 34.333333333333336 117.0 L 35.0 117.66666666666667 L 36.0 118.33333333333333 L 37.0 118.66666666666667 L 38.0 119.33333333333333 L 39.0 119.66666666666667 L 40.0 120.0 L 41.0 120.33333333333333 L 42.0 120.66666666666667 L 43.0 121.0 L 44.0 121.33333333333333 L 45.0 121.66666666666667 L 46.0 122.0 L 47.0 122.33333333333333 L 47.5 122.5 Z" stroke="none" fill="rgb(69,90,100)" />
<path d="M 95.5 101.5 L 95.66666666666667 101.0 L 96.0 100.0 L 96.0 99.0 L 96.33333333333333 98.0 L 96.66666666666667 97.0 L 97.0 96.0 L 96.66666666666667 95.0 L 96.0 94.33333333333333 L 95.0 94.0 L 94.0 94.0 L 93.0 94.0 L 92.0 94.0 L 91.0 94.0 L 90.0 94.0 L 89.0 94.0 L 88.0 94.0 L 87.0 94.0 L 86.0 94.0 L 85.0 94.0 L 84.0 94.0 L 83.0 94.0 L 82.0 94.0 L 81.0 94.0 L 80.0 94.0 L 79.0 94.0 L 78.0 94.0 L 77.0 94.0 L 76.0 94.0 L 75.0 94.0 L 74.0 94.0 L 73.0 94.0 L 72.0 94.0 L 71.0 94.0 L 70.0 94.0 L 69.0 94.0 L 68.0 94.0 L 67.0 94.0 L 66.0 94.0 L 65.0 94.0 L 64.0 94.0 L 63.0 94.0 L 62.0 94.0 L 61.0 94.0 L 60.0 94.0 L 59.0 94.0 L 58.0 94.0 L 57.0 94.0 L 56.0 94.0 L 55.0 94.0 L 54.0 94.0 L 53.0 94.0 L 52.0 94.0 L 51.0 94.0 L 50.0 94.0 L 49.0 94.0 L 48.0 94.0 L 47.0 94.0 L 46.0 94.0 L 45.0 94.0 L 44.0 94.0 L 43.0 94.0 L 42.0 94.0 L 41.0 94.0 L 40.0 94.0 L 39.0 94.0 L 38.0 94.0 L 37.0 94.0 L 36.0 94.0 L 35.0 94.0 L 34.0 94.0 L 33.333333333333336 94.33333333333333 L 33.0 95.0 L 33.0 96.0 L 33.0 97.0 L 33.0 98.0 L 33.0 99.0 L 33.0 100.0 L 33.333333333333336 101.0 L 34.0 101.66666666666667 L 35.0 102.0 L 36.0 102.0 L 37.0 102.33333333333333 L 38.0 103.0 L 39.0 104.0 L 40.0 105.0 L 41.0 105.66666666666667 L 42.0 106.0 L 43.0 106.0 L 44.0 106.0 L 45.0 106.0 L 46.0 106.33333333333333 L 47.0 106.66666666666667 L 48.0 107.0 L 49.0 107.0 L 50.0 107.0 L 51.0 107.0 L 52.0 107.0 L 53.0 107.33333333333333 L 54.0 107.66666666666667 L 55.0 108.0 L 56.0 108.0 L 57.0 108.0 L 58.0 108.0 L 59.0 108.0 L 60.0 108.0 L 61.0 108.0 L 62.0 108.0 L 63.0 108.0 L 64.0 108.0 L 65.0 108.0 L 66.0 108.0 L 67.0 108.0 L 68.0 108.0 L 69.0 108.0 L 70.0 108.0 L 71.0 108.0 L 72.0 108.0 L 73.0 108.0 L 74.0 108.0 L 75.0 108.0 L 76.0 108.0 L 77.0 108.0 L 78.0 108.0 L 79.0 107.66666666666667 L 80.0 107.33333333333333 L 81.0 107.0 L 82.0 107.0 L 83.0 106.66666666666667 L 84.0 106.33333333333333 L 85.0 106.0 L 86.0 106.0 L 87.0 106.0 L 88.0 105.66666666666667 L 89.0 105.0 L 90.0 104.0 L 91.0 103.0 L 92.0 102.66666666666667 L 93.0 102.66666666666667 L 94.0 102.66666666666667 L 94.5 102.5 Z" stroke="none" fill="rgb(0,0,0)" />
<path d="M 80.5 64.0 L 81.0 64.0 L 82.0 64.0 L 83.0 64.0 L 84.0 64.0 L 85.0 64.0 L 86.0 64.0 L 87.0 64.0 L 88.0 64.0 L 89.0 64.0 L 90.0 64.0 L 91.0 64.0 L 92.0 64.0 L 93.0 64.0 L 94.0 64.0 L 95.0 63.666666666666664 L 96.0 63.0 L 96.66666666666667 62.0 L 97.0 61.0 L 97.0 60.0 L 97.0 59.0 L 97.0 58.0 L 97.0 57.0 L 97.0 56.0 L 97.0 55.0 L 97.0 54.0 L 97.0 53.0 L 97.0 52.0 L 97.0 51.0 L 97.0 50.0 L 97.0 49.0 L 97.0 48.0 L 97.0 47.0 L 96.66666666666667 46.0 L 96.33333333333333 45.0 L 96.0 44.0 L 96.0 43.0 L 96.0 42.0 L 96.0 41.0 L 96.0 40.0 L 96.0 39.0 L 96.0 38.0 L 96.0 37.0 L 96.0 36.0 L 95.66666666666667 35.0 L 95.33333333333333 34.0 L 95.0 33.0 L 94.66666666666667 32.0 L 94.0 31.0 L 93.0 30.0 L 92.0 29.0 L 91.0 28.0 L 90.0 27.0 L 89.0 26.0 L 88.0 25.333333333333332 L 87.0 24.666666666666668 L 86.0 24.333333333333332 L 85.0 23.666666666666668 L 84.0 23.333333333333332 L 83.0 23.0 L 82.0 23.0 L 81.0 23.0 L 80.0 23.0 L 79.0 23.333333333333332 L 78.33333333333333 24.0 L 78.0 25.0 L 78.0 26.0 L 78.0 27.0 L 78.0 28.0 L 78.0 29.0 L 78.0 30.0 L 78.0 31.0 L 78.0 32.0 L 78.0 33.0 L 78.0 34.0 L 78.0 35.0 L 78.0 36.0 L 78.0 37.0 L 78.0 38.0 L 78.0 39.0 L 78.0 40.0 L 78.0 41.0 L 78.0 42.0 L 78.0 43.0 L 78.0 44.0 L 78.0 45.0 L 78.0 46.0 L 77.66666666666667 47.0 L 77.33333333333333 48.0 L 77.0 49.0 L 77.0 50.0 L 77.0 51.0 L 77.0 52.0 L 77.0 53.0 L 77.0 54.0 L 77.0 55.0 L 77.0 56.0 L 77.0 57.0 L 77.0 58.0 L 77.0 59.0 L 77.0 60.0 L 77.0 61.0 L 77.33333333333333 62.0 L 78.0 63.0 L 79.0 63.666666666666664 L 79.5 64.0 Z" stroke="none" fill="rgb(55,71,79)" />
<path d="M 33.5 94.5 L 34.0 94.33333333333333 L 35.0 94.0 L 36.0 94.0 L 37.0 94.0 L 38.0 94.0 L 39.0 94.0 L 40.0 94.0 L 41.0 94.0 L 42.0 94.0 L 43.0 94.0 L 44.0 94.0 L 45.0 94.0 L 46.0 94.0 L 47.0 94.0 L 48.0 94.0 L 49.0 94.0 L 50.0 94.0 L 51.0 94.0 L 52.0 94.0 L 53.0 94.0 L 54.0 94.0 L 55.0 94.0 L 56.0 94.0 L 57.0 94.0 L 58.0 94.0 L 59.0 94.0 L 60.0 94.0 L 61.0 94.0 L 62.0 94.0 L 63.0 94.0 L 64.0 94.0 L 65.0 94.0 L 66.0 94.0 L 67.0 94.0 L 68.0 94.0 L 69.0 94.0 L 70.0 94.0 L 71.0 94.0 L 72.0 94.0 L 73.0 94.0 L 74.0 94.0 L 75.0 94.0 L 76.0 94.0 L 77.0 94.0 L 78.0 94.0 L 79.0 94.0 L 80.0 94.0 L 81.0 94.0 L 82.0 94.0 L 83.0 94.0 L 84.0 94.0 L 85.0 94.0 L 86.0 94.0 L 87.0 94.0 L 88.0 94.0 L 89.0 94.0 L 90.0 94.0 L 91.0 94.0 L 92.0 94.0 L 93.0 94.0 L 94.0 94.0 L 95.0 94.33333333333333 L 96.0 94.66666666666667 L 97.0 94.66666666666667 L 98.0 94.0 L 99.0 93.0 L 99.66666666666667 92.0 L 100.0 91.0 L 100.0 90.0 L 100.0 89.0 L 100.0 88.0 L 100.0 87.0 L 99.66666666666667 86.33333333333333 L 99.0 86.0 L 98.0 86.0 L 97.0 86.0 L 96.0 86.0 L 95.0 86.0 L 94.0 86.0 L 93.0 86.0 L 92.0 86.0 L 91.0 86.0 L 90.0 86.0 L 89.0 86.0 L 88.0 86.0 L 87.0 86.0 L 86.0 86.0 L 85.0 86.0 L 84.0 86.0 L 83.0 86.0 L 82.0 86.0 L 81.0 86.0 L 80.0 86.0 L 79.0 86.0 L 78.0 86.0 L 77.0 86.0 L 76.0 86.0 L 75.0 86.0 L 74.33333333333333 86.33333333333333 L 74.0 87.0 L 74.0 88.0 L 73.66666666666667 89.0 L 73.0 89.66666666666667 L 72.0 90.0 L 71.0 90.0 L 70.0 90.0 L 69.0 90.0 L 68.0 90.0 L 67.0 90.0 L 66.0 90.0 L 65.0 90.0 L 64.0 90.0 L 63.0 90.0 L 62.0 90.0 L 61.0 90.0 L 60.0 90.0 L 59.0 90.0 L 58.0 90.0 L 57.0 90.0 L 56.0 90.0 L 55.0 89.66666666666667 L 54.0 89.0 L 53.333333333333336 88.0 L 53.0 87.0 L 52.666666666666664 86.33333333333333 L 52.0 86.0 L 51.0 86.0 L 50.0 86.0 L 49.0 86.0 L 48.0 86.0 L 47.0 86.0 L 46.0 86.0 L 45.0 86.0 L 44.0 86.0 L 43.0 86.0 L 42.0 86.0 L 41.0 86.0 L 40.0 86.0 L 39.0 86.0 L 38.0 86.0 L 37.0 86.0 L 36.0 86.0 L 35.0 86.0 L 34.0 86.0 L 33.0 86.0 L 32.0 86.0 L 31.0 86.0 L 30.0 86.0 L 29.0 86.0 L 28.333333333333332 86.33333333333333 L 28.0 87.0 L 28.0 88.0 L 28.0 89.0 L 28.0 90.0 L 28.0 91.0 L 28.333333333333332 92.0 L 29.0 92.66666666666667 L 30.0 93.33333333333333 L 31.0 94.0 L 32.0 94.66666666666667 L 32.5 95.0 Z" stroke="none" fill="rgb(130,174,192)" />
<path d="M 59.5 90.0 L 60.0 90.0 L 61.0 90.0 L 62.0 90.0 L 63.0 90.0 L 64.0 90.0 L 65.0 90.0 L 66.0 90.0 L 67.0 90.0 L 68.0 90.0 L 69.0 90.0 L 70.0 90.0 L 71.0 90.0 L 72.0 90.0 L 73.0 90.0 L 73.66666666666667 89.66666666666667 L 74.0 89.0 L 74.0 88.0 L 74.33333333333333 87.0 L 75.0 86.33333333333333 L 76.0 86.0 L 77.0 86.0 L 78.0 86.0 L 79.0 86.0 L 80.0 86.0 L 81.0 86.0 L 82.0 86.0 L 83.0 86.0 L 84.0 86.0 L 85.0 86.0 L 86.0 86.0 L 87.0 86.0 L 88.0 86.0 L 89.0 86.0 L 90.0 86.0 L 91.0 86.0 L 92.0 86.0 L 93.0 86.0 L 94.0 86.0 L 95.0 86.0 L 96.0 86.0 L 97.0 86.0 L 98.0 86.0 L 99.0 86.0 L 99.66666666666667 85.66666666666667 L 100.0 85.0 L 100.0 84.0 L 99.66666666666667 83.33333333333333 L 99.0 83.0 L 98.0 83.0 L 97.0 83.0 L 96.0 83.0 L 95.0 83.0 L 94.0 83.0 L 93.0 83.0 L 92.0 83.0 L 91.0 83.0 L 90.0 83.0 L 89.0 83.0 L 88.0 83.0 L 87.0 83.0 L 86.0 83.0 L 85.0 83.0 L 84.0 83.0 L 83.0 83.0 L 82.0 83.0 L 81.0 83.0 L 80.0 83.0 L 79.0 83.0 L 78.0 83.0 L 77.0 83.0 L 76.0 83.0 L 75.0 83.0 L 74.0 83.0 L 73.0 83.0 L 72.0 83.0 L 71.0 83.0 L 70.0 83.0 L 69.0 83.0 L 68.0 83.0 L 67.0 83.0 L 66.0 83.0 L 65.0 83.0 L 64.0 83.0 L 63.0 83.0 L 62.0 83.0 L 61.0 83.0 L 60.0 83.0 L 59.0 83.0 L 58.0 83.0 L 57.0 83.0 L 56.0 83.0 L 55.0 83.0 L 54.0 83.0 L 53.0 83.0 L 52.0 83.0 L 51.0 83.0 L 50.0 83.0 L 49.0 83.0 L 48.0 83.0 L 47.0 83.0 L 46.0 83.0 L 45.0 83.0 L 44.0 83.0 L 43.0 83.0 L 42.0 83.0 L 41.0 83.0 L 40.0 83.0 L 39.0 83.0 L 38.0 83.0 L 37.0 83.0 L 36.0 83.0 L 35.0 83.0 L 34.0 83.0 L 33.0 83.0 L 32.0 83.0 L 31.0 83.0 L 30.0 83.0 L 29.0 83.0 L 28.333333333333332 83.33333333333333 L 28.0 84.0 L 28.333333333333332 85.0 L 29.0 85.66666666666667 L 30.0 86.0 L 31.0 86.0 L 32.0 86.0 L 33.0 86.0 L 34.0 86.0 L 35.0 86.0 L 36.0 86.0 L 37.0 86.0 L 38.0 86.0 L 39.0 86.0 L 40.0 86.0 L 41.0 86.0 L 42.0 86.0 L 43.0 86.0 L 44.0 86.0 L 45.0 86.0 L 46.0 86.0 L 47.0 86.0 L 48.0 86.0 L 49.0 86.0 L 50.0 86.0 L 51.0 86.0 L 52.0 86.33333333333333 L 52.666666666666664 87.0 L 53.0 88.0 L 53.333333333333336 89.0 L 54.0 89.66666666666667 L 55.0 90.0 L 56.0 90.0 L 57.0 90.0 L 58.0 90.0 L 58.5 90.0 Z" stroke="none" fill="rgb(55,71,79)" />
<path d="M 78.5 116.0 L 79.0 116.0 L 80.0 116.0 L 81.0 116.0 L 82.0 116.0 L 83.0 116.0 L 84.0 116.0 L 85.0 116.0 L 86.0 116.0 L 87.0 116.0 L 87.66666666666667 115.66666666666667 L 88.0 115.0 L 88.0 114.0 L 88.0 113.0 L 87.66666666666667 112.0 L 87.0 111.33333333333333 L 86.0 111.0 L 85.0 111.0 L 84.0 111.0 L 83.0 111.0 L 82.0 111.0 L 81.0 111.0 L 80.0 111.0 L 79.0 111.0 L 78.0 111.0 L 77.0 111.0 L 76.0 111.0 L 75.0 111.0 L 74.0 111.0 L 73.0 111.0 L 72.0 111.0 L 71.0 111.0 L 70.0 111.0 L 69.0 111.0 L 68.0 111.0 L 67.0 111.0 L 66.0 111.0 L 65.0 111.0 L 64.0 111.0 L 63.0 111.0 L 62.0 111.0 L 61.0 111.0 L 60.0 111.0 L 59.0 111.0 L 58.0 111.0 L 57.0 111.0 L 56.0 111.0 L 55.0 111.0 L 54.0 111.0 L 53.0 111.0 L 52.0 111.0 L 51.0 111.0 L 50.0 111.0 L 49.0 111.0 L 48.0 111.0 L 47.0 111.0 L 46.0 111.0 L 45.0 111.0 L 44.0 111.0 L 43.0 111.0 L 42.0 111.33333333333333 L 41.0 112.0 L 40.333333333333336 113.0 L 40.0 114.0 L 40.333333333333336 114.66666666666667 L 41.0 115.0 L 42.0 115.33333333333333 L 43.0 115.66666666666667 L 44.0 116.0 L 45.0 116.0 L 46.0 116.0 L 47.0 116.0 L 48.0 116.0 L 49.0 116.0 L 50.0 116.0 L 51.0 116.0 L 52.0 116.0 L 53.0 116.0 L 54.0 116.0 L 55.0 116.0 L 56.0 116.0 L 57.0 116.0 L 58.0 116.0 L 59.0 116.0 L 60.0 116.0 L 61.0 116.0 L 62.0 116.0 L 63.0 116.0 L 64.0 116.0 L 65.0 116.0 L 66.0 116.0 L 67.0 116.0 L 68.0 116.0 L 69.0 116.0 L 70.0 116.0 L 71.0 116.0 L 72.0 116.0 L 73.0 116.0 L 74.0 116.0 L 75.0 116.0 L 76.0 116.0 L 77.0 116.0 L 77.5 116.0 Z" stroke="none" fill="rgb(130,174,192)" />
<path d="M 37.5 64.0 L 38.0 64.0 L 39.0 64.0 L 40.0 64.0 L 41.0 64.0 L 42.0 64.0 L 43.0 64.0 L 44.0 64.0 L 45.0 64.0 L 46.0 64.0 L 47.0 64.0 L 48.0 64.0 L 49.0 64.0 L 50.0 63.666666666666664 L 50.666666666666664 63.0 L 50.666666666666664 62.0 L 50.0 61.333333333333336 L 49.0 61.0 L 48.0 61.0 L 47.0 61.0 L 46.0 61.0 L 45.0 61.0 L 44.0 61.0 L 43.0 61.0 L 42.0 61.0 L 41.0 61.0 L 40.0 61.0 L 39.0 61.0 L 38.0 61.0 L 37.0 61.0 L 36.0 60.666666666666664 L 35.333333333333336 60.0 L 35.0 59.0 L 35.0 58.0 L 35.0 57.0 L 35.0 56.0 L 35.0 55.0 L 35.0 54.0 L 35.0 53.0 L 35.0 52.0 L 35.0 51.0 L 35.0 50.0 L 35.0 49.0 L 35.0 48.0 L 35.0 47.0 L 35.0 46.0 L 35.0 45.0 L 35.0 44.0 L 35.0 43.0 L 35.0 42.0 L 35.0 41.0 L 35.0 40.0 L 35.0 39.0 L 35.333333333333336 38.0 L 35.666666666666664 37.0 L 36.0 36.0 L 36.0 35.0 L 36.333333333333336 34.0 L 37.0 33.0 L 38.0 32.0 L 39.0 31.0 L 40.0 30.0 L 41.0 29.0 L 42.0 28.333333333333332 L 43.0 27.666666666666668 L 44.0 27.333333333333332 L 45.0 27.0 L 46.0 26.666666666666668 L 47.0 26.333333333333332 L 48.0 26.0 L 49.0 26.0 L 49.666666666666664 25.666666666666668 L 50.0 25.0 L 50.0 24.0 L 49.666666666666664 23.333333333333332 L 49.0 23.0 L 48.0 23.0 L 47.0 23.333333333333332 L 46.0 23.666666666666668 L 45.0 24.0 L 44.0 24.0 L 43.0 24.333333333333332 L 42.0 24.666666666666668 L 41.0 25.333333333333332 L 40.0 26.0 L 39.0 26.666666666666668 L 38.0 27.333333333333332 L 37.0 28.0 L 36.0 29.0 L 35.333333333333336 30.0 L 34.666666666666664 31.0 L 34.333333333333336 32.0 L 34.0 33.0 L 33.666666666666664 34.0 L 33.333333333333336 35.0 L 33.0 36.0 L 33.0 37.0 L 33.0 38.0 L 33.0 39.0 L 32.666666666666664 40.0 L 32.333333333333336 41.0 L 32.0 42.0 L 32.0 43.0 L 32.0 44.0 L 32.0 45.0 L 31.666666666666668 46.0 L 31.333333333333332 47.0 L 31.333333333333332 48.0 L 31.666666666666668 49.0 L 32.0 50.0 L 32.0 51.0 L 32.0 52.0 L 32.0 53.0 L 32.0 54.0 L 32.0 55.0 L 32.0 56.0 L 32.0 57.0 L 32.0 58.0 L 32.0 59.0 L 32.0 60.0 L 32.0 61.0 L 32.333333333333336 62.0 L 33.0 63.0 L 34.0 63.666666666666664 L 35.0 64.0 L 36.0 64.0 L 36.5 64.0 Z" stroke="none" fill="rgb(55,71,79)" />
<path d="M 59.5 80.0 L 60.0 80.0 L 61.0 80.0 L 62.0 80.0 L 63.0 80.0 L 64.0 80.0 L 65.0 80.0 L 66.0 80.0 L 67.0 80.0 L 68.0 80.0 L 69.0 80.0 L 70.0 80.0 L 71.0 80.0 L 72.0 80.0 L 73.0 80.0 L 74.0 79.66666666666667 L 74.66666666666667 79.0 L 75.0 78.0 L 74.66666666666667 77.33333333333333 L 74.0 77.0 L 73.0 77.33333333333333 L 72.0 77.66666666666667 L 71.0 78.0 L 70.0 78.0 L 69.0 78.0 L 68.0 78.0 L 67.0 78.0 L 66.0 78.0 L 65.0 78.0 L 64.0 78.0 L 63.0 78.0 L 62.0 78.0 L 61.0 78.0 L 60.0 78.0 L 59.0 78.0 L 58.0 78.0 L 57.0 78.0 L 56.0 77.66666666666667 L 55.333333333333336 77.0 L 55.0 76.0 L 55.0 75.0 L 55.0 74.0 L 55.0 73.0 L 55.0 72.0 L 55.0 71.0 L 55.0 70.0 L 55.0 69.0 L 55.0 68.0 L 55.0 67.0 L 55.0 66.0 L 55.0 65.0 L 55.0 64.0 L 55.0 63.0 L 55.0 62.0 L 55.0 61.0 L 55.0 60.0 L 55.0 59.0 L 55.0 58.0 L 55.0 57.0 L 55.0 56.0 L 55.0 55.0 L 55.0 54.0 L 55.0 53.0 L 55.0 52.0 L 55.0 51.0 L 55.0 50.0 L 55.0 49.0 L 55.0 48.0 L 55.0 47.0 L 55.0 46.0 L 55.0 45.0 L 55.0 44.0 L 55.0 43.0 L 55.0 42.0 L 55.0 41.0 L 55.0 40.0 L 55.0 39.0 L 55.333333333333336 38.0 L 56.0 37.333333333333336 L 56.666666666666664 36.666666666666664 L 57.0 36.0 L 56.666666666666664 35.333333333333336 L 56.0 35.0 L 55.0 35.333333333333336 L 54.0 36.0 L 53.333333333333336 37.0 L 53.0 38.0 L 53.0 39.0 L 53.0 40.0 L 53.0 41.0 L 53.0 42.0 L 53.0 43.0 L 53.0 44.0 L 53.0 45.0 L 53.0 46.0 L 52.666666666666664 47.0 L 52.333333333333336 48.0 L 52.0 49.0 L 52.0 50.0 L 52.0 51.0 L 52.0 52.0 L 52.0 53.0 L 52.0 54.0 L 52.0 55.0 L 52.0 56.0 L 52.0 57.0 L 52.0 58.0 L 52.0 59.0 L 52.0 60.0 L 52.0 61.0 L 52.0 62.0 L 52.0 63.0 L 52.0 64.0 L 52.0 65.0 L 52.0 66.0 L 52.0 67.0 L 52.0 68.0 L 52.0 69.0 L 52.0 70.0 L 52.0 71.0 L 52.0 72.0 L 52.0 73.0 L 52.0 74.0 L 52.0 75.0 L 52.0 76.0 L 52.333333333333336 77.0 L 52.666666666666664 78.0 L 53.333333333333336 79.0 L 54.0 79.66666666666667 L 55.0 80.0 L 56.0 80.0 L 57.0 80.0 L 58.0 80.0 L 58.5 80.0 Z" stroke="none" fill="rgb(156,19,19)" />
<path d="M 37.5 37.5 L 38.0 38.0 L 39.0 39.0 L 40.0 40.0 L 41.0 41.0 L 42.0 42.0 L 43.0 43.0 L 44.0 44.0 L 45.0 45.0 L 46.0 46.0 L 47.0 47.0 L 48.0 48.0 L 49.0 49.0 L 50.0 50.0 L 51.0 50.666666666666664 L 51.666666666666664 50.666666666666664 L 52.0 50.0 L 52.0 49.0 L 51.666666666666664 48.0 L 51.0 47.0 L 50.333333333333336 46.0 L 50.0 45.0 L 50.0 44.0 L 50.0 43.0 L 50.0 42.0 L 50.0 41.0 L 50.0 40.0 L 50.0 39.0 L 50.0 38.0 L 50.0 37.0 L 50.0 36.0 L 50.0 35.0 L 50.0 34.0 L 50.0 33.0 L 50.0 32.0 L 50.0 31.0 L 50.0 30.0 L 50.0 29.0 L 50.0 28.0 L 49.666666666666664 27.0 L 49.0 26.333333333333332 L 48.0 26.0 L 47.0 26.0 L 46.0 26.333333333333332 L 45.0 26.666666666666668 L 44.0 27.0 L 43.0 27.333333333333332 L 42.0 27.666666666666668 L 41.0 28.333333333333332 L 40.0 29.0 L 39.0 30.0 L 38.0 31.0 L 37.0 32.0 L 36.333333333333336 33.0 L 36.0 34.0 L 36.0 35.0 L 36.333333333333336 36.0 L 36.5 36.5 Z" stroke="none" fill="rgb(186,226,253)" />
<path d="M 91.5 46.5 L 92.0 47.0 L 93.0 47.666666666666664 L 93.66666666666667 47.666666666666664 L 94.0 47.0 L 94.0 46.0 L 94.0 45.0 L 94.0 44.0 L 94.0 43.0 L 94.0 42.0 L 94.0 41.0 L 94.0 40.0 L 94.0 39.0 L 94.0 38.0 L 93.66666666666667 37.0 L 93.33333333333333 36.0 L 93.0 35.0 L 92.66666666666667 34.0 L 92.33333333333333 33.0 L 91.66666666666667 32.0 L 91.0 31.0 L 90.0 30.0 L 89.0 29.0 L 88.0 28.333333333333332 L 87.0 27.666666666666668 L 86.0 27.333333333333332 L 85.0 26.666666666666668 L 84.0 26.333333333333332 L 83.0 26.0 L 82.0 26.0 L 81.0 26.0 L 80.33333333333333 26.333333333333332 L 80.0 27.0 L 80.0 28.0 L 80.0 29.0 L 80.0 30.0 L 80.0 31.0 L 80.0 32.0 L 80.0 33.0 L 80.0 34.0 L 80.0 35.0 L 80.33333333333333 35.666666666666664 L 81.0 36.333333333333336 L 82.0 37.0 L 83.0 38.0 L 84.0 39.0 L 85.0 40.0 L 86.0 41.0 L 87.0 42.0 L 88.0 43.0 L 89.0 44.0 L 90.0 45.0 L 90.5 45.5 Z" stroke="none" fill="rgb(186,226,253)" />
<path d="M 40.5 61.0 L 41.0 61.0 L 42.0 61.0 L 43.0 61.0 L 44.0 61.0 L 45.0 61.0 L 46.0 61.0 L 47.0 61.0 L 48.0 61.0 L 49.0 61.333333333333336 L 50.0 62.0 L 51.0 62.666666666666664 L 51.666666666666664 62.666666666666664 L 52.0 62.0 L 52.0 61.0 L 52.0 60.0 L 51.666666666666664 59.0 L 51.0 58.0 L 50.0 57.0 L 49.0 56.0 L 48.0 55.0 L 47.0 54.0 L 46.0 53.0 L 45.0 52.0 L 44.0 51.0 L 43.0 50.0 L 42.0 49.0 L 41.0 48.0 L 40.0 47.0 L 39.0 46.0 L 38.0 45.0 L 37.0 44.0 L 36.0 43.333333333333336 L 35.333333333333336 43.333333333333336 L 35.0 44.0 L 35.0 45.0 L 35.0 46.0 L 35.0 47.0 L 35.0 48.0 L 35.0 49.0 L 35.0 50.0 L 35.0 51.0 L 35.0 52.0 L 35.0 53.0 L 35.0 54.0 L 35.0 55.0 L 35.0 56.0 L 35.0 57.0 L 35.0 58.0 L 35.0 59.0 L 35.0 60.0 L 35.333333333333336 60.666666666666664 L 36.0 61.0 L 37.0 61.0 L 38.0 61.0 L 39.0 61.0 L 39.5 61.0 Z" stroke="none" fill="rgb(186,226,253)" />
<path d="M 91.5 61.0 L 92.0 61.0 L 93.0 61.0 L 93.66666666666667 60.666666666666664 L 94.0 60.0 L 94.0 59.0 L 94.0 58.0 L 94.0 57.0 L 94.0 56.0 L 93.66666666666667 55.333333333333336 L 93.0 54.666666666666664 L 92.0 54.0 L 91.0 53.0 L 90.0 52.0 L 89.0 51.0 L 88.0 50.0 L 87.0 49.0 L 86.0 48.0 L 85.0 47.0 L 84.0 46.0 L 83.0 45.0 L 82.0 44.0 L 81.0 43.333333333333336 L 80.33333333333333 43.333333333333336 L 80.0 44.0 L 80.0 45.0 L 80.0 46.0 L 80.0 47.0 L 80.0 48.0 L 80.0 49.0 L 80.0 50.0 L 80.0 51.0 L 80.0 52.0 L 80.0 53.0 L 80.0 54.0 L 80.0 55.0 L 80.0 56.0 L 80.0 57.0 L 80.0 58.0 L 80.0 59.0 L 80.0 60.0 L 80.33333333333333 60.666666666666664 L 81.0 61.0 L 82.0 61.0 L 83.0 61.0 L 84.0 61.0 L 85.0 61.0 L 86.0 61.0 L 87.0 61.0 L 88.0 61.0 L 89.0 61.0 L 90.0 61.0 L 90.5 61.0 Z" stroke="none" fill="rgb(186,226,253)" />
<path d="M 78.5 104.0 L 79.0 104.0 L 80.0 104.0 L 80.66666666666667 103.66666666666667 L 81.0 103.0 L 81.0 102.0 L 80.66666666666667 101.0 L 80.0 100.33333333333333 L 79.0 100.0 L 78.0 100.0 L 77.0 100.0 L 76.0 100.0 L 75.0 100.0 L 74.0 100.0 L 73.0 100.0 L 72.0 100.0 L 71.0 100.0 L 70.0 100.0 L 69.0 100.0 L 68.0 100.0 L 67.0 100.0 L 66.0 100.0 L 65.0 100.0 L 64.0 100.0 L 63.0 100.0 L 62.0 100.0 L 61.0 100.0 L 60.0 100.0 L 59.0 100.0 L 58.0 100.0 L 57.0 100.0 L 56.0 100.0 L 55.0 100.0 L 54.0 100.0 L 53.0 100.0 L 52.0 100.0 L 51.0 100.0 L 50.0 100.0 L 49.0 100.0 L 48.0 100.0 L 47.0 100.33333333333333 L 46.333333333333336 101.0 L 46.0 102.0 L 46.0 103.0 L 46.333333333333336 103.66666666666667 L 47.0 104.0 L 48.0 104.0 L 49.0 104.0 L 50.0 104.0 L 51.0 104.0 L 52.0 104.0 L 53.0 104.0 L 54.0 104.0 L 55.0 104.0 L 56.0 104.0 L 57.0 104.0 L 58.0 104.0 L 59.0 104.0 L 60.0 104.0 L 61.0 104.0 L 62.0 104.0 L 63.0 104.0 L 64.0 104.0 L 65.0 104.0 L 66.0 104.0 L 67.0 104.0 L 68.0 104.0 L 69.0 104.0 L 70.0 104.0 L 71.0 104.0 L 72.0 104.0 L 73.0 104.0 L 74.0 104.0 L 75.0 104.0 L 76.0 104.0 L 77.0 104.0 L 77.5 104.0 Z" stroke="none" fill="rgb(66,66,66)" />
<path d="M 40.5 48.5 L 41.0 49.0 L 42.0 50.0 L 43.0 51.0 L 44.0 52.0 L 45.0 53.0 L 46.0 54.0 L 47.0 55.0 L 48.0 56.0 L 49.0 57.0 L 50.0 58.0 L 51.0 58.666666666666664 L 51.666666666666664 58.666666666666664 L 52.0 58.0 L 52.0 57.0 L 52.0 56.0 L 52.0 55.0 L 52.0 54.0 L 52.0 53.0 L 52.0 52.0 L 51.666666666666664 51.0 L 51.0 50.0 L 50.0 49.0 L 49.0 48.0 L 48.0 47.0 L 47.0 46.0 L 46.0 45.0 L 45.0 44.0 L 44.0 43.0 L 43.0 42.0 L 42.0 41.0 L 41.0 40.0 L 40.0 39.0 L 39.0 38.0 L 38.0 37.0 L 37.0 36.333333333333336 L 36.0 36.333333333333336 L 35.333333333333336 37.0 L 35.0 38.0 L 35.0 39.0 L 35.0 40.0 L 35.0 41.0 L 35.0 42.0 L 35.333333333333336 43.0 L 36.0 44.0 L 37.0 45.0 L 38.0 46.0 L 39.0 47.0 L 39.5 47.5 Z" stroke="none" fill="rgb(253,254,255)" />
<path d="M 66.5 61.0 L 67.0 61.0 L 68.0 61.0 L 69.0 61.0 L 70.0 61.0 L 70.66666666666667 60.666666666666664 L 71.0 60.0 L 71.0 59.0 L 71.0 58.0 L 71.0 57.0 L 70.66666666666667 56.0 L 70.0 55.0 L 69.0 54.0 L 68.0 53.0 L 67.0 52.0 L 66.0 51.0 L 65.0 50.0 L 64.0 49.0 L 63.0 48.0 L 62.0 47.0 L 61.0 46.0 L 60.0 45.0 L 59.0 44.333333333333336 L 58.333333333333336 44.333333333333336 L 58.0 45.0 L 58.0 46.0 L 58.0 47.0 L 58.0 48.0 L 58.0 49.0 L 58.0 50.0 L 58.0 51.0 L 58.0 52.0 L 58.0 53.0 L 58.0 54.0 L 58.0 55.0 L 58.0 56.0 L 58.0 57.0 L 58.0 58.0 L 58.0 59.0 L 58.0 60.0 L 58.333333333333336 60.666666666666664 L 59.0 61.0 L 60.0 61.0 L 61.0 61.0 L 62.0 61.0 L 63.0 61.0 L 64.0 61.0 L 65.0 61.0 L 65.5 61.0 Z" stroke="none" fill="rgb(186,226,253)" />
<path d="M 87.5 50.5 L 88.0 51.0 L 89.0 52.0 L 90.0 53.0 L 91.0 54.0 L 92.0 54.666666666666664 L 93.0 55.0 L 93.66666666666667 54.666666666666664 L 94.0 54.0 L 94.0 53.0 L 94.0 52.0 L 94.0 51.0 L 94.0 50.0 L 94.0 49.0 L 93.66666666666667 48.0 L 93.0 47.0 L 92.0 46.0 L 91.0 45.0 L 90.0 44.0 L 89.0 43.0 L 88.0 42.0 L 87.0 41.0 L 86.0 40.0 L 85.0 39.0 L 84.0 38.0 L 83.0 37.0 L 82.0 36.333333333333336 L 81.0 36.0 L 80.33333333333333 36.333333333333336 L 80.0 37.0 L 80.0 38.0 L 80.0 39.0 L 80.0 40.0 L 80.0 41.0 L 80.0 42.0 L 80.33333333333333 43.0 L 81.0 44.0 L 82.0 45.0 L 83.0 46.0 L 84.0 47.0 L 85.0 48.0 L 86.0 49.0 L 86.5 49.5 Z" stroke="none" fill="rgb(253,254,255)" />
<path d="M 40.5 106.5 L 40.666666666666664 106.0 L 40.666666666666664 105.0 L 40.0 104.0 L 39.0 103.0 L 38.0 102.33333333333333 L 37.0 102.0 L 36.0 102.0 L 35.0 102.33333333333333 L 34.0 103.0 L 33.333333333333336 104.0 L 32.666666666666664 105.0 L 32.0 106.0 L 31.333333333333332 107.0 L 30.666666666666668 108.0 L 30.0 109.0 L 29.333333333333332 110.0 L 29.0 111.0 L 29.0 112.0 L 29.0 113.0 L 29.333333333333332 114.0 L 30.0 114.66666666666667 L 31.0 115.33333333333333 L 32.0 115.66666666666667 L 33.0 116.0 L 34.0 116.0 L 35.0 115.66666666666667 L 35.666666666666664 115.0 L 36.333333333333336 114.0 L 36.666666666666664 113.0 L 37.333333333333336 112.0 L 37.666666666666664 111.0 L 38.333333333333336 110.0 L 38.666666666666664 109.0 L 39.333333333333336 108.0 L 39.5 107.5 Z" stroke="none" fill="rgb(39,51,57)" />
<path d="M 69.5 55.5 L 70.0 55.666666666666664 L 70.66666666666667 55.666666666666664 L 71.0 55.0 L 71.0 54.0 L 71.0 53.0 L 71.0 52.0 L 71.0 51.0 L 71.0 50.0 L 71.0 49.0 L 70.66666666666667 48.0 L 70.0 47.0 L 69.0 46.0 L 68.0 45.0 L 67.0 44.0 L 66.0 43.0 L 65.0 42.0 L 64.0 41.333333333333336 L 63.0 40.666666666666664 L 62.0 40.333333333333336 L 61.0 40.0 L 60.0 40.333333333333336 L 59.0 41.0 L 58.333333333333336 42.0 L 58.0 43.0 L 58.333333333333336 44.0 L 59.0 45.0 L 60.0 46.0 L 61.0 47.0 L 62.0 48.0 L 63.0 49.0 L 64.0 50.0 L 65.0 51.0 L 66.0 52.0 L 67.0 53.0 L 68.0 54.0 L 68.5 54.5 Z" stroke="none" fill="rgb(253,254,255)" />
<path d="M 95.5 116.0 L 96.0 115.66666666666667 L 97.0 115.33333333333333 L 98.0 114.66666666666667 L 99.0 114.0 L 99.66666666666667 113.0 L 99.66666666666667 112.0 L 99.33333333333333 111.0 L 98.66666666666667 110.0 L 98.33333333333333 109.0 L 97.66666666666667 108.0 L 97.0 107.0 L 96.33333333333333 106.0 L 95.66666666666667 105.0 L 95.0 104.0 L 94.0 103.0 L 93.0 102.33333333333333 L 92.0 102.0 L 91.0 102.33333333333333 L 90.0 103.0 L 89.0 104.0 L 88.33333333333333 105.0 L 88.0 106.0 L 88.33333333333333 107.0 L 89.0 108.0 L 89.66666666666667 109.0 L 90.33333333333333 110.0 L 90.66666666666667 111.0 L 91.33333333333333 112.0 L 91.66666666666667 113.0 L 92.0 114.0 L 92.33333333333333 115.0 L 93.0 115.66666666666667 L 94.0 116.0 L 94.5 116.0 Z" stroke="none" fill="rgb(39,51,57)" />
<path d="M 68.5 31.0 L 69.0 31.0 L 70.0 31.0 L 71.0 31.0 L 72.0 31.0 L 73.0 30.666666666666668 L 73.66666666666667 30.0 L 73.66666666666667 29.333333333333332 L 73.0 29.0 L 72.0 29.0 L 71.0 29.0 L 70.0 28.666666666666668 L 69.33333333333333 28.0 L 69.0 27.0 L 69.33333333333333 26.0 L 69.66666666666667 25.0 L 70.0 24.0 L 69.66666666666667 23.333333333333332 L 69.0 23.0 L 68.0 23.0 L 67.0 23.0 L 66.0 23.0 L 65.0 23.0 L 64.0 23.0 L 63.333333333333336 23.333333333333332 L 63.0 24.0 L 63.0 25.0 L 63.0 26.0 L 62.666666666666664 27.0 L 62.0 27.666666666666668 L 61.0 28.0 L 60.0 28.0 L 59.0 28.333333333333332 L 58.0 28.666666666666668 L 57.0 29.0 L 56.0 29.0 L 55.333333333333336 29.333333333333332 L 55.0 30.0 L 55.333333333333336 30.666666666666668 L 56.0 31.0 L 57.0 31.0 L 58.0 31.0 L 59.0 31.0 L 60.0 31.0 L 61.0 31.0 L 62.0 31.0 L 63.0 31.0 L 64.0 31.0 L 65.0 31.0 L 66.0 31.0 L 67.0 31.0 L 67.5 31.0 Z" stroke="none" fill="rgb(0,0,0)" />
<path d="M 33.0 105.5 L 33.333333333333336 105.0 L 34.0 104.0 L 34.666666666666664 103.0 L 34.666666666666664 102.0 L 34.0 101.0 L 33.0 100.33333333333333 L 32.0 100.0 L 31.0 100.33333333333333 L 30.0 101.0 L 29.0 102.0 L 28.0 103.0 L 27.0 104.0 L 26.0 105.0 L 25.0 106.0 L 24.0 107.0 L 23.333333333333332 108.0 L 23.333333333333332 109.0 L 24.0 110.0 L 25.0 111.0 L 26.0 112.0 L 27.0 112.66666666666667 L 28.0 113.0 L 28.666666666666668 112.66666666666667 L 29.0 112.0 L 29.333333333333332 111.0 L 30.0 110.0 L 30.666666666666668 109.0 L 31.333333333333332 108.0 L 32.0 107.0 L 32.5 106.5 Z" stroke="none" fill="rgb(130,174,192)" />
<path d="M 91.5 77.0 L 92.0 77.0 L 93.0 77.0 L 94.0 76.66666666666667 L 95.0 76.0 L 95.66666666666667 75.0 L 96.0 74.0 L 96.0 73.0 L 96.0 72.0 L 96.0 71.0 L 95.66666666666667 70.0 L 95.0 69.33333333333333 L 94.0 68.66666666666667 L 93.0 68.33333333333333 L 92.0 68.0 L 91.0 68.0 L 90.0 68.0 L 89.0 68.33333333333333 L 88.0 69.0 L 87.33333333333333 70.0 L 87.0 71.0 L 87.0 72.0 L 87.0 73.0 L 87.0 74.0 L 87.0 75.0 L 87.33333333333333 76.0 L 88.0 76.66666666666667 L 89.0 77.0 L 90.0 77.0 L 90.5 77.0 Z" stroke="none" fill="rgb(255,252,140)" />
<path d="M 36.5 77.0 L 37.0 77.0 L 38.0 77.0 L 39.0 77.0 L 40.0 76.66666666666667 L 40.666666666666664 76.0 L 41.0 75.0 L 41.0 74.0 L 41.0 73.0 L 41.0 72.0 L 41.0 71.0 L 40.666666666666664 70.0 L 40.0 69.0 L 39.0 68.33333333333333 L 38.0 68.0 L 37.0 68.0 L 36.0 68.0 L 35.0 68.33333333333333 L 34.0 68.66666666666667 L 33.333333333333336 69.33333333333333 L 32.666666666666664 70.0 L 32.333333333333336 71.0 L 32.0 72.0 L 32.0 73.0 L 32.0 74.0 L 32.333333333333336 75.0 L 33.0 76.0 L 34.0 76.66666666666667 L 35.0 77.0 L 35.5 77.0 Z" stroke="none" fill="rgb(255,252,140)" />
<path d="M 104.5 109.5 L 104.66666666666667 109.0 L 104.66666666666667 108.0 L 104.0 107.0 L 103.0 106.0 L 102.0 105.0 L 101.0 104.0 L 100.0 103.0 L 99.0 102.0 L 98.0 101.0 L 97.0 100.33333333333333 L 96.0 100.33333333333333 L 95.0 101.0 L 94.33333333333333 102.0 L 94.0 103.0 L 94.33333333333333 104.0 L 95.0 105.0 L 95.66666666666667 106.0 L 96.33333333333333 107.0 L 97.0 108.0 L 97.66666666666667 109.0 L 98.33333333333333 110.0 L 98.66666666666667 111.0 L 99.33333333333333 112.0 L 100.0 112.66666666666667 L 101.0 112.66666666666667 L 102.0 112.0 L 103.0 111.0 L 103.5 110.5 Z" stroke="none" fill="rgb(130,174,192)" />
<path d="M 66.5 64.0 L 67.0 64.0 L 68.0 64.0 L 69.0 64.0 L 70.0 63.666666666666664 L 70.66666666666667 63.0 L 71.0 62.0 L 70.66666666666667 61.333333333333336 L 70.0 61.0 L 69.0 61.0 L 68.0 61.0 L 67.0 61.0 L 66.0 61.0 L 65.0 61.0 L 64.0 61.0 L 63.0 61.0 L 62.0 61.0 L 61.0 61.0 L 60.0 61.0 L 59.0 61.0 L 58.0 61.333333333333336 L 57.333333333333336 62.0 L 57.333333333333336 63.0 L 58.0 63.666666666666664 L 59.0 64.0 L 60.0 64.0 L 61.0 64.0 L 62.0 64.0 L 63.0 64.0 L 64.0 64.0 L 65.0 64.0 L 65.5 64.0 Z" stroke="none" fill="rgb(55,71,79)" />
<path d="M 68.5 46.5 L 69.0 47.0 L 70.0 47.666666666666664 L 70.66666666666667 47.666666666666664 L 71.0 47.0 L 71.0 46.0 L 71.0 45.0 L 71.0 44.0 L 71.0 43.0 L 70.66666666666667 42.0 L 70.0 41.333333333333336 L 69.0 41.0 L 68.0 41.0 L 67.0 41.0 L 66.0 41.0 L 65.33333333333333 41.333333333333336 L 65.0 42.0 L 65.33333333333333 43.0 L 66.0 44.0 L 67.0 45.0 L 67.5 45.5 Z" stroke="none" fill="rgb(186,226,253)" />
<path d="M 72.5 29.0 L 73.0 29.0 L 73.66666666666667 28.666666666666668 L 74.0 28.0 L 73.66666666666667 27.0 L 73.0 26.0 L 72.0 25.0 L 71.0 24.333333333333332 L 70.0 24.333333333333332 L 69.33333333333333 25.0 L 69.0 26.0 L 69.0 27.0 L 69.0 28.0 L 69.33333333333333 28.666666666666668 L 70.0 29.0 L 71.0 29.0 L 71.5 29.0 Z" stroke="none" fill="rgb(255,235,59)" />
<path d="M 56.5 29.0 L 57.0 29.0 L 58.0 29.0 L 59.0 28.666666666666668 L 60.0 28.333333333333332 L 60.666666666666664 27.666666666666668 L 60.666666666666664 27.0 L 60.0 26.0 L 59.0 25.333333333333332 L 58.0 25.0 L 57.0 25.0 L 56.333333333333336 25.333333333333332 L 56.0 26.0 L 56.0 27.0 L 56.0 28.0 L 56.0 28.5 Z" stroke="none" fill="rgb(255,235,59)" />
<path d="M 59.5 41.5 L 59.666666666666664 41.0 L 60.0 40.0 L 59.666666666666664 39.333333333333336 L 59.0 39.0 L 58.0 39.0 L 57.333333333333336 39.333333333333336 L 57.0 40.0 L 57.0 41.0 L 57.333333333333336 41.666666666666664 L 58.0 42.0 L 58.5 42.0 Z" stroke="none" fill="rgb(55,71,79)" />
<path d="M 71.0 41.5 L 71.0 41.0 L 71.0 40.0 L 70.66666666666667 39.333333333333336 L 70.0 39.0 L 69.33333333333333 39.333333333333336 L 69.0 40.0 L 69.33333333333333 41.0 L 70.0 41.666666666666664 L 70.5 42.0 Z" stroke="none" fill="rgb(55,71,79)" />
<path d="M 49.5 27.0 L 49.666666666666664 26.666666666666668 L 49.666666666666664 26.333333333333332 L 49.333333333333336 26.333333333333332 L 49.0 26.5 Z" stroke="none" fill="rgb(69,90,100)" />
</svg>
