<?xml version="1.0" encoding="UTF-8" standalone="no"?>
<!DOCTYPE svg PUBLIC "-//W3C//DTD SVG 1.1//EN"
"http://www.w3.org/Graphics/SVG/1.1/DTD/svg11.dtd">
<svg width="128" height="128" xmlns="http://www.w3.org/2000/svg" version="1.1">
<path d="M 88.5 128.0 L 89.0 128.0 L 90.0 128.0 L 91.0 128.0 L 92.0 128.0 L 93.0 128.0 L 94.0 128.0 L 95.0 128.0 L 96.0 128.0 L 97.0 128.0 L 98.0 128.0 L 99.0 128.0 L 100.0 128.0 L 101.0 128.0 L 102.0 128.0 L 103.0 128.0 L 104.0 128.0 L 105.0 128.0 L 106.0 128.0 L 107.0 128.0 L 108.0 128.0 L 109.0 128.0 L 110.0 128.0 L 111.0 128.0 L 112.0 128.0 L 113.0 128.0 L 114.0 128.0 L 115.0 128.0 L 116.0 128.0 L 117.0 128.0 L 118.0 128.0 L 119.0 128.0 L 120.0 128.0 L 121.0 128.0 L 122.0 128.0 L 123.0 128.0 L 124.0 128.0 L 125.0 128.0 L 126.0 128.0 L 127.0 128.0 L 127.66666666666667 127.66666666666667 L 128.0 127.0 L 128.0 126.0 L 128.0 125.0 L 128.0 124.0 L 128.0 123.0 L 128.0 122.0 L 128.0 121.0 L 128.0 120.0 L 128.0 119.0 L 128.0 118.0 L 128.0 117.0 L 128.0 116.0 L 128.0 115.0 L 128.0 114.0 L 128.0 113.0 L 128.0 112.0 L 128.0 111.0 L 128.0 110.0 L 128.0 109.0 L 128.0 108.0 L 128.0 107.0 L 128.0 106.0 L 128.0 105.0 L 128.0 104.0 L 128.0 103.0 L 128.0 102.0 L 128.0 101.0 L 128.0 100.0 L 128.0 99.0 L 128.0 98.0 L 128.0 97.0 L 128.0 96.0 L 128.0 95.0 L 128.0 94.0 L 128.0 93.0 L 128.0 92.0 L 128.0 91.0 L 128.0 90.0 L 128.0 89.0 L 128.0 88.0 L 128.0 87.0 L 128.0 86.0 L 128.0 85.0 L 128.0 84.0 L 128.0 83.0 L 128.0 82.0 L 128.0 81.0 L 128.0 80.0 L 128.0 79.0 L 128.0 78.0 L 128.0 77.0 L 128.0 76.0 L 128.0 75.0 L 128.0 74.0 L 128.0 73.0 L 128.0 72.0 L 128.0 71.0 L 128.0 70.0 L 128.0 69.0 L 128.0 68.0 L 128.0 67.0 L 128.0 66.0 L 128.0 65.0 L 128.0 64.0 L 128.0 63.0 L 128.0 62.0 L 128.0 61.0 L 128.0 60.0 L 128.0 59.0 L 128.0 58.0 L 128.0 57.0 L 128.0 56.0 L 128.0 55.0 L 128.0 54.0 L 128.0 53.0 L 128.0 52.0 L 128.0 51.0 L 128.0 50.0 L 128.0 49.0 L 128.0 48.0 L 128.0 47.0 L 128.0 46.0 L 128.0 45.0 L 128.0 44.0 L 128.0 43.0 L 128.0 42.0 L 128.0 41.0 L 128.0 40.0 L 128.0 39.0 L 128.0 38.0 L 128.0 37.0 L 128.0 36.0 L 128.0 35.0 L 128.0 34.0 L 128.0 33.0 L 128.0 32.0 L 128.0 31.0 L 128.0 30.0 L 128.0 29.0 L 128.0 28.0 L 128.0 27.0 L 128.0 26.0 L 128.0 25.0 L 128.0 24.0 L 128.0 23.0 L 128.0 22.0 L 128.0 21.0 L 128.0 20.0 L 128.0 19.0 L 128.0 18.0 L 128.0 17.0 L 128.0 16.0 L 128.0 15.0 L 128.0 14.0 L 128.0 13.0 L 128.0 12.0 L 128.0 11.0 L 128.0 10.0 L 128.0 9.0 L 128.0 8.0 L 128.0 7.0 L 128.0 6.0 L 128.0 5.0 L 128.0 4.0 L 128.0 3.0 L 128.0 2.0 L 128.0 1.0 L 127.66666666666667 0.3333333333333333 L 127.0 0.0 L 126.0 0.0 L 125.0 0.0 L 124.0 0.0 L 123.0 0.0 L 122.0 0.0 L 121.0 0.0 L 120.0 0.0 L 119.0 0.0 L 118.0 0.0 L 117.0 0.0 L 116.0 0.0 L 115.0 0.0 L 114.0 0.0 L 113.0 0.0 L 112.0 0.0 L 111.0 0.0 L 110.0 0.0 L 109.0 0.0 L 108.0 0.0 L 107.0 0.0 L 106.0 0.0 L 105.0 0.0 L 104.0 0.0 L 103.0 0.0 L 102.0 0.0 L 101.0 0.0 L 100.0 0.0 L 99.0 0.0 L 98.0 0.0 L 97.0 0.0 L 96.0 0.0 L 95.0 0.0 L 94.0 0.0 L 93.0 0.0 L 92.0 0.0 L 91.0 0.0 L 90.0 0.0 L 89.0 0.0 L 88.0 0.0 L 87.0 0.0 L 86.0 0.0 L 85.0 0.0 L 84.0 0.0 L 83.0 0.0 L 82.0 0.0 L 81.0 0.0 L 80.0 0.0 L 79.0 0.0 L 78.0 0.0 L 77.0 0.0 L 76.0 0.0 L 75.0 0.0 L 74.0 0.0 L 73.0 0.0 L 72.0 0.0 L 71.0 0.0 L 70.0 0.0 L 69.0 0.0 L 68.0 0.0 L 67.0 0.0 L 66.0 0.0 L 65.0 0.0 L 64.0 0.0 L 63.0 0.0 L 62.0 0.0 L 61.0 0.0 L 60.0 0.0 L 59.0 0.0 L 58.0 0.0 L 57.0 0.0 L 56.0 0.0 L 55.0 0.0 L 54.0 0.0 L 53.0 0.0 L 52.0 0.0 L 51.0 0.0 L 50.0 0.0 L 49.0 0.0 L 48.0 0.0 L 47.0 0.0 L 46.0 0.0 L 45.0 0.0 L 44.0 0.0 L 43.0 0.0 L 42.0 0.0 L 41.0 0.0 L 40.0 0.0 L 39.0 0.0 L 38.0 0.0 L 37.0 0.0 L 36.0 0.0 L 35.0 0.0 L 34.0 0.0 L 33.0 0.0 L 32.0 0.0 L 31.0 0.0 L 30.0 0.0 L 29.0 0.0 L 28.0 0.0 L 27.0 0.0 L 26.0 0.0 L 25.0 0.0 L 24.0 0.0 L 23.0 0.0 L 22.0 0.0 L 21.0 0.0 L 20.0 0.0 L 19.0 0.0 L 18.0 0.0 L 17.0 0.0 L 16.0 0.0 L 15.0 0.0 L 14.0 0.0 L 13.0 0.0 L 12.0 0.0 L 11.0 0.0 L 10.0 0.0 L 9.0 0.0 L 8.0 0.0 L 7.0 0.0 L 6.0 0.0 L 5.0 0.0 L 4.0 0.0 L 3.0 0.0 L 2.0 0.0 L 1.0 0.0 L 0.3333333333333333 0.3333333333333333 L 0.0 1.0 L 0.0 2.0 L 0.0 3.0 L 0.0 4.0 L 0.0 5.0 L 0.0 6.0 L 0.0 7.0 L 0.0 8.0 L 0.0 9.0 L 0.0 10.0 L 0.0 11.0 L 0.0 12.0 L 0.0 13.0 L 0.0 14.0 L 0.0 15.0 L 0.0 16.0 L 0.0 17.0 L 0.0 18.0 L 0.0 19.0 L 0.0 20.0 L 0.0 21.0 L 0.0 22.0 L 0.0 23.0 L 0.0 24.0 L 0.0 25.0 L 0.0 26.0 L 0.0 27.0 L 0.0 28.0 L 0.0 29.0 L 0.0 30.0 L 0.0 31.0 L 0.0 32.0 L 0.0 33.0 L 0.0 34.0 L 0.0 35.0 L 0.0 36.0 L 0.0 37.0 L 0.0 38.0 L 0.0 39.0 L 0.0 40.0 L 0.0 41.0 L 0.0 42.0 L 0.0 43.0 L 0.0 44.0 L 0.0 45.0 L 0.0 46.0 L 0.0 47.0 L 0.0 48.0 L 0.0 49.0 L 0.0 50.0 L 0.0 51.0 L 0.0 52.0 L 0.0 53.0 L 0.0 54.0 L 0.0 55.0 L 0.0 56.0 L 0.0 57.0 L 0.0 58.0 L 0.0 59.0 L 0.0 60.0 L 0.0 61.0 L 0.0 62.0 L 0.0 63.0 L 0.0 64.0 L 0.0 65.0 L 0.0 66.0 L 0.0 67.0 L 0.0 68.0 L 0.0 69.0 L 0.0 70.0 L 0.0 71.0 L 0.0 72.0 L 0.0 73.0 L 0.0 74.0 L 0.0 75.0 L 0.0 76.0 L 0.0 77.0 L 0.0 78.0 L 0.0 79.0 L 0.0 80.0 L 0.0 81.0 L 0.0 82.0 L 0.0 83.0 L 0.0 84.0 L 0.0 85.0 L 0.0 86.0 L 0.0 87.0 L 0.0 88.0 L 0.0 89.0 L 0.0 90.0 L 0.0 91.0 L 0.0 92.0 L 0.0 93.0 L 0.0 94.0 L 0.0 95.0 L 0.0 96.0 L 0.0 97.0 L 0.0 98.0 L 0.0 99.0 L 0.0 100.0 L 0.0 101.0 L 0.0 102.0 L 0.0 103.0 L 0.0 104.0 L 0.0 105.0 L 0.0 106.0 L 0.0 107.0 L 0.0 108.0 L 0.0 109.0 L 0.0 110.0 L 0.0 111.0 L 0.0 112.0 L 0.0 113.0 L 0.0 114.0 L 0.0 115.0 L 0.0 116.0 L 0.0 117.0 L 0.0 118.0 L 0.0 119.0 L 0.0 120.0 L 0.0 121.0 L 0.0 122.0 L 0.0 123.0 L 0.0 124.0 L 0.0 125.0 L 0.0 126.0 L 0.0 127.0 L 0.3333333333333333 127.66666666666667 L 1.0 128.0 L 2.0 128.0 L 3.0 128.0 L 4.0 128.0 L 5.0 128.0 L 6.0 128.0 L 7.0 128.0 L 8.0 128.0 L 9.0 128.0 L 10.0 128.0 L 11.0 128.0 L 12.0 128.0 L 13.0 128.0 L 14.0 128.0 L 15.0 128.0 L 16.0 128.0 L 17.0 128.0 L 18.0 128.0 L 19.0 128.0 L 20.0 128.0 L 21.0 128.0 L 22.0 128.0 L 23.0 128.0 L 24.0 128.0 L 25.0 128.0 L 26.0 128.0 L 27.0 128.0 L 28.0 128.0 L 29.0 128.0 L 30.0 128.0 L 31.0 128.0 L 32.0 128.0 L 33.0 128.0 L 34.0 128.0 L 35.0 128.0 L 36.0 128.0 L 37.0 128.0 L 38.0 128.0 L 39.0 128.0 L 40.0 128.0 L 41.0 128.0 L 42.0 128.0 L 43.0 128.0 L 44.0 128.0 L 45.0 128.0 L 46.0 128.0 L 47.0 128.0 L 48.0 128.0 L 49.0 128.0 L 50.0 128.0 L 51.0 128.0 L 52.0 128.0 L 53.0 128.0 L 54.0 128.0 L 55.0 128.0 L 56.0 128.0 L 57.0 128.0 L 58.0 128.0 L 59.0 128.0 L 60.0 128.0 L 61.0 128.0 L 62.0 128.0 L 63.0 128.0 L 64.0 128.0 L 65.0 128.0 L 66.0 128.0 L 67.0 128.0 L 68.0 128.0 L 69.0 128.0 L 70.0 128.0 L 71.0 128.0 L 72.0 128.0 L 73.0 128.0 L 74.0 128.0 L 75.0 128.0 L 76.0 128.0 L 77.0 128.0 L 78.0 128.0 L 79.0 128.0 L 80.0 128.0 L 81.0 128.0 L 82.0 128.0 L 83.0 128.0 L 84.0 128.0 L 85.0 128.0 L 86.0 128.0 L 87.0 128.0 L 87.5 128.0 Z" stroke="none" fill="rgb(0,0,0)" />
<path d="M 59.0 66.5 L 59.333333333333336 66.0 L 59.666666666666664 65.0 L 60.0 64.0 L 60.0 63.0 L 60.0 62.0 L 60.333333333333336 61.0 L 61.0 60.333333333333336 L 62.0 59.666666666666664 L 62.666666666666664 59.0 L 63.333333333333336 58.0 L 63.666666666666664 57.0 L 64.0 56.0 L 64.33333333333333 55.0 L 65.0 54.0 L 65.66666666666667 53.0 L 66.33333333333333 52.0 L 67.0 51.0 L 67.66666666666667 50.0 L 68.0 49.0 L 68.0 48.0 L 68.0 47.0 L 68.0 46.0 L 68.0 45.0 L 67.66666666666667 44.0 L 67.0 43.333333333333336 L 66.0 43.0 L 65.0 42.666666666666664 L 64.0 42.333333333333336 L 63.0 41.666666666666664 L 62.0 41.0 L 61.666666666666664 40.0 L 62.0 39.333333333333336 L 63.0 39.0 L 64.0 39.0 L 65.0 39.0 L 65.66666666666667 38.666666666666664 L 66.0 38.0 L 65.66666666666667 37.0 L 65.33333333333333 36.0 L 64.66666666666667 35.0 L 64.33333333333333 34.0 L 64.33333333333333 33.0 L 65.0 32.666666666666664 L 66.0 33.0 L 67.0 34.0 L 67.66666666666667 35.0 L 68.33333333333333 36.0 L 69.0 36.666666666666664 L 70.0 36.666666666666664 L 70.66666666666667 36.0 L 71.0 35.0 L 71.33333333333333 34.0 L 72.0 33.666666666666664 L 72.66666666666667 34.0 L 73.0 35.0 L 73.0 36.0 L 73.0 37.0 L 73.0 38.0 L 73.0 39.0 L 73.0 40.0 L 73.0 41.0 L 73.33333333333333 42.0 L 74.0 42.666666666666664 L 75.0 43.333333333333336 L 76.0 43.666666666666664 L 77.0 44.333333333333336 L 78.0 44.666666666666664 L 79.0 45.333333333333336 L 80.0 45.666666666666664 L 81.0 46.0 L 82.0 46.333333333333336 L 83.0 46.666666666666664 L 84.0 47.0 L 85.0 47.0 L 86.0 46.666666666666664 L 87.0 46.666666666666664 L 87.66666666666667 47.0 L 88.33333333333333 48.0 L 89.0 48.666666666666664 L 90.0 49.0 L 91.0 49.0 L 92.0 48.666666666666664 L 93.0 48.666666666666664 L 93.66666666666667 49.0 L 94.33333333333333 49.666666666666664 L 95.0 50.333333333333336 L 96.0 50.666666666666664 L 97.0 51.0 L 98.0 51.0 L 99.0 51.0 L 100.0 51.0 L 100.66666666666667 50.666666666666664 L 101.0 50.0 L 101.0 49.0 L 101.0 48.0 L 101.0 47.0 L 101.0 46.0 L 101.0 45.0 L 101.0 44.0 L 101.0 43.0 L 101.0 42.0 L 100.66666666666667 41.0 L 100.33333333333333 40.0 L 99.66666666666667 39.0 L 99.33333333333333 38.0 L 98.66666666666667 37.0 L 98.0 36.0 L 97.0 35.0 L 96.0 34.333333333333336 L 95.0 33.666666666666664 L 94.0 33.333333333333336 L 93.0 33.0 L 92.0 32.666666666666664 L 91.0 32.333333333333336 L 90.0 32.0 L 89.0 32.0 L 88.0 32.0 L 87.0 32.0 L 86.0 32.0 L 85.0 32.0 L 84.0 32.0 L 83.0 31.666666666666668 L 82.66666666666667 31.0 L 83.0 30.0 L 83.66666666666667 29.0 L 84.0 28.0 L 84.0 27.0 L 84.33333333333333 26.0 L 85.0 25.666666666666668 L 86.0 25.666666666666668 L 87.0 26.0 L 88.0 26.0 L 88.66666666666667 25.666666666666668 L 89.0 25.0 L 89.0 24.0 L 89.33333333333333 23.0 L 90.0 22.666666666666668 L 91.0 22.666666666666668 L 92.0 23.0 L 93.0 23.0 L 94.0 22.666666666666668 L 95.0 22.0 L 96.0 21.333333333333332 L 96.66666666666667 20.666666666666668 L 97.0 20.0 L 97.0 19.0 L 96.66666666666667 18.0 L 96.0 17.0 L 95.0 16.333333333333332 L 94.0 15.666666666666666 L 93.0 15.333333333333334 L 92.0 14.666666666666666 L 91.0 14.333333333333334 L 90.0 14.0 L 89.0 14.0 L 88.0 14.0 L 87.0 14.0 L 86.0 14.0 L 85.0 14.0 L 84.0 14.0 L 83.0 14.0 L 82.0 14.0 L 81.0 14.0 L 80.0 14.333333333333334 L 79.0 14.666666666666666 L 78.0 15.333333333333334 L 77.0 15.666666666666666 L 76.0 16.333333333333332 L 75.0 17.0 L 74.0 18.0 L 73.0 19.0 L 72.0 19.333333333333332 L 71.33333333333333 19.0 L 71.0 18.0 L 71.0 17.0 L 71.0 16.0 L 70.66666666666667 15.333333333333334 L 70.0 14.666666666666666 L 69.66666666666667 14.0 L 70.0 13.333333333333334 L 70.66666666666667 12.666666666666666 L 71.33333333333333 12.0 L 71.66666666666667 11.0 L 72.0 10.0 L 72.0 9.0 L 72.0 8.0 L 72.0 7.0 L 72.0 6.0 L 72.0 5.0 L 71.66666666666667 4.333333333333333 L 71.0 4.0 L 70.0 4.0 L 69.0 4.0 L 68.0 4.0 L 67.0 4.333333333333333 L 66.0 4.666666666666667 L 65.0 5.0 L 64.0 5.333333333333333 L 63.0 6.0 L 62.0 7.0 L 61.0 8.0 L 60.0 9.0 L 59.333333333333336 10.0 L 58.666666666666664 11.0 L 58.333333333333336 12.0 L 58.0 13.0 L 58.0 14.0 L 58.0 15.0 L 58.0 16.0 L 58.0 17.0 L 58.0 18.0 L 58.0 19.0 L 58.0 20.0 L 58.0 21.0 L 58.0 22.0 L 58.333333333333336 23.0 L 58.333333333333336 24.0 L 58.0 24.666666666666668 L 57.0 24.666666666666668 L 56.0 24.333333333333332 L 55.0 24.0 L 54.0 23.666666666666668 L 53.0 23.333333333333332 L 52.0 23.0 L 51.0 23.0 L 50.0 23.0 L 49.0 23.0 L 48.0 23.0 L 47.0 23.0 L 46.0 23.0 L 45.0 23.0 L 44.0 23.0 L 43.0 23.333333333333332 L 42.0 23.666666666666668 L 41.0 24.0 L 40.0 24.333333333333332 L 39.0 24.666666666666668 L 38.0 25.333333333333332 L 37.0 26.0 L 36.0 27.0 L 35.0 28.0 L 34.333333333333336 29.0 L 33.666666666666664 30.0 L 33.0 31.0 L 32.333333333333336 32.0 L 32.0 33.0 L 31.666666666666668 34.0 L 31.333333333333332 35.0 L 31.0 36.0 L 31.333333333333332 36.666666666666664 L 32.0 37.0 L 33.0 37.0 L 34.0 37.0 L 35.0 37.0 L 36.0 37.0 L 37.0 37.0 L 38.0 37.0 L 39.0 36.666666666666664 L 39.666666666666664 36.0 L 40.333333333333336 35.0 L 41.0 34.666666666666664 L 41.666666666666664 35.0 L 42.0 36.0 L 42.333333333333336 36.666666666666664 L 43.0 37.0 L 44.0 37.0 L 45.0 37.0 L 46.0 37.0 L 47.0 37.333333333333336 L 47.333333333333336 38.0 L 47.0 38.666666666666664 L 46.0 39.333333333333336 L 45.0 39.666666666666664 L 44.0 40.333333333333336 L 43.0 41.0 L 42.0 42.0 L 41.0 43.0 L 40.0 44.0 L 39.0 45.0 L 38.333333333333336 46.0 L 37.666666666666664 47.0 L 37.333333333333336 48.0 L 36.666666666666664 49.0 L 36.333333333333336 50.0 L 36.0 51.0 L 36.0 52.0 L 35.666666666666664 53.0 L 35.333333333333336 54.0 L 35.0 55.0 L 35.0 56.0 L 35.0 57.0 L 35.333333333333336 58.0 L 35.666666666666664 59.0 L 36.0 60.0 L 36.0 61.0 L 36.0 62.0 L 36.0 63.0 L 36.333333333333336 64.0 L 37.0 64.66666666666667 L 38.0 65.0 L 39.0 64.66666666666667 L 40.0 64.0 L 40.666666666666664 63.0 L 41.333333333333336 62.0 L 42.0 61.0 L 42.666666666666664 60.0 L 43.0 59.0 L 43.333333333333336 58.0 L 44.0 57.333333333333336 L 45.0 57.0 L 46.0 56.666666666666664 L 47.0 56.0 L 47.666666666666664 55.0 L 48.333333333333336 54.0 L 49.0 53.333333333333336 L 50.0 53.333333333333336 L 50.666666666666664 54.0 L 51.0 55.0 L 50.666666666666664 56.0 L 50.333333333333336 57.0 L 50.0 58.0 L 50.0 59.0 L 50.0 60.0 L 50.333333333333336 61.0 L 50.666666666666664 62.0 L 51.0 63.0 L 51.0 64.0 L 51.0 65.0 L 51.333333333333336 66.0 L 52.0 67.0 L 52.666666666666664 68.0 L 53.333333333333336 69.0 L 54.0 69.66666666666667 L 55.0 70.0 L 56.0 70.0 L 57.0 69.66666666666667 L 57.666666666666664 69.0 L 58.333333333333336 68.0 L 58.5 67.5 Z" stroke="none" fill="rgb(114,129,55)" />
<path d="M 65.5 43.0 L 66.0 43.333333333333336 L 67.0 44.0 L 68.0 44.666666666666664 L 69.0 45.0 L 70.0 45.0 L 71.0 45.0 L 71.66666666666667 44.666666666666664 L 72.33333333333333 44.0 L 72.66666666666667 43.0 L 73.0 42.0 L 73.0 41.0 L 73.0 40.0 L 73.0 39.0 L 73.0 38.0 L 73.0 37.0 L 73.0 36.0 L 73.0 35.0 L 73.0 34.0 L 72.66666666666667 33.333333333333336 L 72.0 33.0 L 71.33333333333333 33.333333333333336 L 71.0 34.0 L 70.66666666666667 35.0 L 70.0 35.666666666666664 L 69.0 35.666666666666664 L 68.33333333333333 35.0 L 67.66666666666667 34.0 L 67.0 33.0 L 66.0 32.333333333333336 L 65.0 32.0 L 64.33333333333333 32.333333333333336 L 64.0 33.0 L 64.0 34.0 L 64.33333333333333 35.0 L 64.66666666666667 36.0 L 65.33333333333333 37.0 L 65.33333333333333 38.0 L 65.0 38.666666666666664 L 64.0 39.0 L 63.0 39.0 L 62.0 39.0 L 61.333333333333336 39.333333333333336 L 61.0 40.0 L 61.333333333333336 41.0 L 62.0 41.666666666666664 L 63.0 42.333333333333336 L 64.0 42.666666666666664 L 64.5 43.0 Z" stroke="none" fill="rgb(188,206,71)" />
<path d="M 74.5 51.0 L 75.0 50.666666666666664 L 76.0 50.333333333333336 L 77.0 49.666666666666664 L 78.0 49.333333333333336 L 78.66666666666667 48.666666666666664 L 79.0 48.0 L 78.66666666666667 47.0 L 78.33333333333333 46.0 L 78.0 45.0 L 77.66666666666667 44.333333333333336 L 77.0 43.666666666666664 L 76.0 43.333333333333336 L 75.0 42.666666666666664 L 74.0 42.333333333333336 L 73.0 42.333333333333336 L 72.33333333333333 43.0 L 71.66666666666667 44.0 L 71.0 44.666666666666664 L 70.0 45.0 L 69.0 45.0 L 68.33333333333333 45.333333333333336 L 68.0 46.0 L 68.0 47.0 L 68.0 48.0 L 68.0 49.0 L 68.33333333333333 50.0 L 69.0 51.0 L 70.0 51.666666666666664 L 71.0 52.0 L 72.0 51.666666666666664 L 73.0 51.333333333333336 L 73.5 51.0 Z" stroke="none" fill="rgb(162,103,43)" />
<path d="M 78.5 56.5 L 79.0 56.333333333333336 L 80.0 55.666666666666664 L 80.66666666666667 55.0 L 81.0 54.0 L 81.0 53.0 L 80.66666666666667 52.0 L 80.33333333333333 51.0 L 80.0 50.0 L 79.66666666666667 49.333333333333336 L 79.0 49.0 L 78.0 49.0 L 77.0 49.333333333333336 L 76.0 49.666666666666664 L 75.0 50.333333333333336 L 74.0 50.666666666666664 L 73.0 51.0 L 72.0 51.333333333333336 L 71.0 51.666666666666664 L 70.33333333333333 52.333333333333336 L 70.0 53.0 L 70.0 54.0 L 70.33333333333333 55.0 L 70.66666666666667 56.0 L 71.33333333333333 57.0 L 72.0 57.666666666666664 L 73.0 58.0 L 74.0 57.666666666666664 L 75.0 57.333333333333336 L 76.0 57.0 L 77.0 57.0 L 77.5 57.0 Z" stroke="none" fill="rgb(220,129,36)" />
<path d="M 73.5 61.0 L 74.0 61.0 L 75.0 61.0 L 76.0 61.0 L 77.0 60.666666666666664 L 78.0 60.333333333333336 L 79.0 60.0 L 80.0 59.666666666666664 L 81.0 59.333333333333336 L 81.66666666666667 58.666666666666664 L 82.0 58.0 L 82.0 57.0 L 82.0 56.0 L 81.66666666666667 55.333333333333336 L 81.0 55.0 L 80.0 55.333333333333336 L 79.0 55.666666666666664 L 78.0 56.333333333333336 L 77.0 56.666666666666664 L 76.0 57.0 L 75.0 57.0 L 74.0 57.333333333333336 L 73.0 57.666666666666664 L 72.33333333333333 58.333333333333336 L 72.0 59.0 L 72.33333333333333 60.0 L 72.5 60.5 Z" stroke="none" fill="rgb(192,113,31)" />
<path d="M 72.5 67.0 L 73.0 67.0 L 74.0 67.0 L 75.0 67.0 L 76.0 67.0 L 77.0 67.0 L 78.0 67.0 L 79.0 67.0 L 80.0 67.0 L 81.0 67.0 L 82.0 66.66666666666667 L 83.0 66.33333333333333 L 83.66666666666667 65.66666666666667 L 84.0 65.0 L 83.66666666666667 64.0 L 83.33333333333333 63.0 L 83.0 62.0 L 83.0 61.0 L 83.0 60.0 L 82.66666666666667 59.333333333333336 L 82.0 59.0 L 81.0 59.0 L 80.0 59.333333333333336 L 79.0 59.666666666666664 L 78.0 60.0 L 77.0 60.333333333333336 L 76.0 60.666666666666664 L 75.0 61.0 L 74.0 61.0 L 73.0 61.0 L 72.33333333333333 61.333333333333336 L 72.0 62.0 L 72.0 63.0 L 72.0 64.0 L 72.0 65.0 L 72.0 66.0 L 72.0 66.5 Z" stroke="none" fill="rgb(220,129,36)" />
<path d="M 81.5 70.5 L 82.0 70.33333333333333 L 83.0 70.0 L 83.66666666666667 69.66666666666667 L 84.0 69.0 L 84.0 68.0 L 84.0 67.0 L 83.66666666666667 66.33333333333333 L 83.0 66.0 L 82.0 66.33333333333333 L 81.0 66.66666666666667 L 80.0 67.0 L 79.0 67.0 L 78.0 67.0 L 77.0 67.0 L 76.0 67.0 L 75.0 67.0 L 74.0 67.0 L 73.33333333333333 67.33333333333333 L 73.0 68.0 L 73.0 69.0 L 73.33333333333333 70.0 L 74.0 70.66666666666667 L 75.0 71.0 L 76.0 71.0 L 77.0 71.0 L 78.0 71.0 L 79.0 71.0 L 80.0 71.0 L 80.5 71.0 Z" stroke="none" fill="rgb(192,113,31)" />
<path d="M 73.5 76.0 L 74.0 76.33333333333333 L 75.0 76.66666666666667 L 76.0 77.0 L 77.0 77.0 L 78.0 77.0 L 79.0 77.0 L 80.0 77.0 L 81.0 77.0 L 82.0 77.0 L 83.0 77.0 L 84.0 77.0 L 84.66666666666667 76.66666666666667 L 85.0 76.0 L 85.0 75.0 L 85.0 74.0 L 84.66666666666667 73.0 L 84.33333333333333 72.0 L 84.0 71.0 L 83.66666666666667 70.33333333333333 L 83.0 70.0 L 82.0 70.0 L 81.0 70.33333333333333 L 80.0 70.66666666666667 L 79.0 71.0 L 78.0 71.0 L 77.0 71.0 L 76.0 71.0 L 75.0 71.0 L 74.0 71.0 L 73.33333333333333 71.33333333333333 L 72.66666666666667 72.0 L 72.33333333333333 73.0 L 72.0 74.0 L 72.33333333333333 75.0 L 72.5 75.5 Z" stroke="none" fill="rgb(220,129,36)" />
<path d="M 59.5 85.5 L 60.0 85.66666666666667 L 61.0 86.0 L 62.0 86.0 L 63.0 86.0 L 64.0 85.66666666666667 L 65.0 85.0 L 66.0 84.0 L 66.66666666666667 83.0 L 67.33333333333333 82.0 L 67.66666666666667 81.0 L 68.0 80.0 L 67.66666666666667 79.0 L 67.0 78.0 L 66.0 77.33333333333333 L 65.0 76.66666666666667 L 64.0 76.33333333333333 L 63.0 76.0 L 62.0 76.0 L 61.0 76.0 L 60.0 76.0 L 59.0 76.33333333333333 L 58.0 77.0 L 57.333333333333336 78.0 L 57.0 79.0 L 57.0 80.0 L 57.0 81.0 L 57.0 82.0 L 57.0 83.0 L 57.333333333333336 84.0 L 58.0 84.66666666666667 L 58.5 85.0 Z" stroke="none" fill="rgb(162,103,43)" />
<path d="M 85.0 80.5 L 85.0 80.0 L 85.0 79.0 L 85.0 78.0 L 84.66666666666667 77.33333333333333 L 84.0 77.0 L 83.0 77.0 L 82.0 77.0 L 81.0 77.0 L 80.0 77.0 L 79.0 77.0 L 78.0 77.0 L 77.0 77.0 L 76.0 76.66666666666667 L 75.0 76.33333333333333 L 74.0 76.0 L 73.0 76.0 L 72.0 76.33333333333333 L 71.33333333333333 77.0 L 71.0 78.0 L 71.0 79.0 L 71.33333333333333 79.66666666666667 L 72.0 80.0 L 73.0 80.0 L 74.0 80.0 L 75.0 80.0 L 76.0 80.33333333333333 L 77.0 80.66666666666667 L 78.0 81.0 L 79.0 81.0 L 80.0 81.0 L 81.0 81.0 L 82.0 81.0 L 83.0 81.0 L 84.0 81.0 L 84.5 81.0 Z" stroke="none" fill="rgb(192,113,31)" />
<path d="M 95.5 100.5 L 96.0 100.33333333333333 L 97.0 99.66666666666667 L 98.0 99.0 L 98.66666666666667 98.0 L 99.0 97.0 L 99.0 96.0 L 99.0 95.0 L 98.66666666666667 94.0 L 98.0 93.0 L 97.0 92.0 L 96.0 91.0 L 95.0 90.0 L 94.0 89.33333333333333 L 93.0 89.0 L 92.0 89.0 L 91.0 89.0 L 90.0 89.33333333333333 L 89.0 89.66666666666667 L 88.0 90.0 L 87.0 90.0 L 86.0 90.0 L 85.0 90.33333333333333 L 84.0 90.66666666666667 L 83.0 91.33333333333333 L 82.0 91.66666666666667 L 81.0 92.33333333333333 L 80.0 92.66666666666667 L 79.0 93.33333333333333 L 78.0 93.66666666666667 L 77.0 94.33333333333333 L 76.0 94.66666666666667 L 75.0 95.33333333333333 L 74.0 95.66666666666667 L 73.0 96.33333333333333 L 72.0 96.66666666666667 L 71.0 97.0 L 70.0 97.33333333333333 L 69.0 97.66666666666667 L 68.0 98.0 L 67.0 98.0 L 66.0 98.0 L 65.0 98.0 L 64.0 98.0 L 63.0 98.0 L 62.0 98.0 L 61.0 97.66666666666667 L 60.0 97.0 L 59.666666666666664 96.0 L 60.0 95.0 L 60.666666666666664 94.0 L 61.0 93.0 L 60.666666666666664 92.33333333333333 L 60.0 92.0 L 59.0 92.0 L 58.0 92.0 L 57.0 92.33333333333333 L 56.0 92.66666666666667 L 55.0 93.0 L 54.0 93.0 L 53.0 93.33333333333333 L 52.0 93.66666666666667 L 51.0 94.0 L 50.0 94.0 L 49.0 94.0 L 48.0 94.0 L 47.0 94.0 L 46.0 94.0 L 45.0 94.0 L 44.0 93.66666666666667 L 43.666666666666664 93.0 L 44.0 92.0 L 45.0 91.0 L 46.0 90.33333333333333 L 47.0 89.66666666666667 L 48.0 89.33333333333333 L 49.0 88.66666666666667 L 50.0 88.0 L 51.0 87.33333333333333 L 52.0 86.66666666666667 L 53.0 86.33333333333333 L 54.0 85.66666666666667 L 55.0 85.33333333333333 L 56.0 84.66666666666667 L 56.666666666666664 84.0 L 57.0 83.0 L 57.0 82.0 L 57.0 81.0 L 56.666666666666664 80.33333333333333 L 56.0 80.0 L 55.0 80.0 L 54.0 80.0 L 53.0 80.33333333333333 L 52.0 80.66666666666667 L 51.0 81.0 L 50.0 81.33333333333333 L 49.0 81.66666666666667 L 48.0 82.0 L 47.0 82.33333333333333 L 46.0 82.66666666666667 L 45.0 83.33333333333333 L 44.0 84.0 L 43.0 85.0 L 42.0 85.66666666666667 L 41.0 86.0 L 40.0 86.33333333333333 L 39.0 87.0 L 38.0 88.0 L 37.0 88.66666666666667 L 36.0 89.33333333333333 L 35.0 90.0 L 34.0 91.0 L 33.0 91.66666666666667 L 32.0 92.33333333333333 L 31.0 93.0 L 30.0 94.0 L 29.0 95.0 L 28.333333333333332 96.0 L 28.333333333333332 97.0 L 29.0 98.0 L 30.0 99.0 L 31.0 100.0 L 32.0 101.0 L 33.0 102.0 L 34.0 103.0 L 35.0 104.0 L 36.0 104.66666666666667 L 37.0 105.33333333333333 L 38.0 105.66666666666667 L 39.0 106.0 L 40.0 106.0 L 41.0 106.0 L 42.0 106.0 L 43.0 106.0 L 44.0 106.0 L 45.0 106.0 L 46.0 106.0 L 47.0 106.0 L 48.0 106.0 L 49.0 106.0 L 50.0 106.0 L 51.0 106.0 L 52.0 106.33333333333333 L 53.0 106.66666666666667 L 54.0 107.33333333333333 L 55.0 107.66666666666667 L 56.0 108.0 L 57.0 108.33333333333333 L 58.0 108.66666666666667 L 59.0 109.0 L 60.0 109.0 L 61.0 109.33333333333333 L 62.0 109.66666666666667 L 63.0 110.0 L 64.0 110.0 L 65.0 110.0 L 66.0 110.0 L 67.0 109.66666666666667 L 68.0 109.33333333333333 L 69.0 108.66666666666667 L 70.0 108.33333333333333 L 71.0 107.66666666666667 L 72.0 107.33333333333333 L 73.0 106.66666666666667 L 74.0 106.33333333333333 L 75.0 106.0 L 76.0 106.0 L 77.0 106.0 L 78.0 106.0 L 79.0 106.0 L 80.0 106.0 L 81.0 106.0 L 82.0 106.0 L 83.0 106.0 L 84.0 106.0 L 85.0 106.0 L 86.0 106.0 L 87.0 106.0 L 88.0 106.0 L 89.0 106.0 L 90.0 105.66666666666667 L 91.0 105.0 L 92.0 104.0 L 93.0 103.0 L 94.0 102.0 L 94.5 101.5 Z" stroke="none" fill="rgb(246,201,115)" />
<path d="M 59.5 97.5 L 60.0 97.66666666666667 L 61.0 98.0 L 62.0 98.0 L 63.0 98.0 L 64.0 98.0 L 65.0 98.0 L 66.0 98.0 L 67.0 98.0 L 68.0 98.0 L 69.0 98.0 L 70.0 97.66666666666667 L 71.0 97.33333333333333 L 72.0 97.0 L 73.0 96.66666666666667 L 74.0 96.33333333333333 L 75.0 95.66666666666667 L 76.0 95.33333333333333 L 77.0 94.66666666666667 L 78.0 94.33333333333333 L 79.0 93.66666666666667 L 80.0 93.33333333333333 L 81.0 92.66666666666667 L 82.0 92.33333333333333 L 83.0 91.66666666666667 L 84.0 91.33333333333333 L 85.0 90.66666666666667 L 86.0 90.33333333333333 L 87.0 90.0 L 88.0 90.0 L 89.0 90.0 L 90.0 89.66666666666667 L 91.0 89.33333333333333 L 92.0 89.0 L 92.66666666666667 88.66666666666667 L 93.0 88.0 L 92.66666666666667 87.0 L 92.0 86.0 L 91.0 85.0 L 90.0 84.33333333333333 L 89.0 83.66666666666667 L 88.0 83.33333333333333 L 87.0 83.0 L 86.33333333333333 83.33333333333333 L 86.0 84.0 L 85.66666666666667 85.0 L 85.0 86.0 L 84.0 87.0 L 83.0 87.66666666666667 L 82.0 88.0 L 81.0 88.0 L 80.0 88.0 L 79.0 88.0 L 78.0 88.0 L 77.0 88.0 L 76.0 88.0 L 75.0 87.66666666666667 L 74.0 87.33333333333333 L 73.0 87.0 L 72.0 87.0 L 71.0 86.66666666666667 L 70.33333333333333 86.0 L 70.0 85.0 L 70.0 84.0 L 70.0 83.0 L 70.0 82.0 L 70.0 81.0 L 69.66666666666667 80.33333333333333 L 69.0 80.0 L 68.0 80.33333333333333 L 67.33333333333333 81.0 L 66.66666666666667 82.0 L 66.0 83.0 L 65.0 84.0 L 64.0 85.0 L 63.0 85.66666666666667 L 62.0 86.0 L 61.0 85.66666666666667 L 60.0 85.33333333333333 L 59.0 84.66666666666667 L 58.0 84.33333333333333 L 57.0 84.0 L 56.0 84.33333333333333 L 55.0 84.66666666666667 L 54.0 85.33333333333333 L 53.0 85.66666666666667 L 52.0 86.33333333333333 L 51.0 86.66666666666667 L 50.0 87.33333333333333 L 49.0 88.0 L 48.0 88.66666666666667 L 47.0 89.33333333333333 L 46.0 89.66666666666667 L 45.0 90.33333333333333 L 44.0 91.0 L 43.333333333333336 92.0 L 43.0 93.0 L 43.333333333333336 93.66666666666667 L 44.0 94.0 L 45.0 94.0 L 46.0 94.0 L 47.0 94.0 L 48.0 94.0 L 49.0 94.0 L 50.0 94.0 L 51.0 94.0 L 52.0 94.0 L 53.0 93.66666666666667 L 54.0 93.33333333333333 L 55.0 93.0 L 56.0 93.0 L 57.0 92.66666666666667 L 58.0 92.33333333333333 L 59.0 92.0 L 60.0 92.33333333333333 L 60.333333333333336 93.0 L 60.0 94.0 L 59.333333333333336 95.0 L 59.0 96.0 L 59.0 96.5 Z" stroke="none" fill="rgb(237,160,82)" />
<path d="M 76.5 88.0 L 77.0 88.0 L 78.0 88.0 L 79.0 88.0 L 80.0 88.0 L 81.0 88.0 L 82.0 88.0 L 83.0 88.0 L 84.0 87.66666666666667 L 85.0 87.0 L 85.66666666666667 86.0 L 86.0 85.0 L 86.0 84.0 L 86.0 83.0 L 85.66666666666667 82.0 L 85.0 81.33333333333333 L 84.0 81.0 L 83.0 81.0 L 82.0 81.0 L 81.0 81.0 L 80.0 81.0 L 79.0 81.0 L 78.0 80.66666666666667 L 77.0 80.33333333333333 L 76.0 80.0 L 75.0 80.0 L 74.0 80.0 L 73.0 80.0 L 72.0 80.0 L 71.0 80.0 L 70.33333333333333 80.33333333333333 L 70.0 81.0 L 70.0 82.0 L 70.0 83.0 L 70.0 84.0 L 70.0 85.0 L 70.0 86.0 L 70.33333333333333 86.66666666666667 L 71.0 87.0 L 72.0 87.0 L 73.0 87.33333333333333 L 74.0 87.66666666666667 L 75.0 88.0 L 75.5 88.0 Z" stroke="none" fill="rgb(220,129,36)" />
<path d="M 26.5 119.0 L 27.0 119.33333333333333 L 28.0 119.66666666666667 L 29.0 120.0 L 30.0 120.33333333333333 L 31.0 120.66666666666667 L 32.0 121.0 L 33.0 121.33333333333333 L 34.0 121.66666666666667 L 35.0 122.0 L 36.0 122.0 L 37.0 122.33333333333333 L 38.0 122.66666666666667 L 39.0 123.0 L 40.0 123.0 L 41.0 123.0 L 42.0 123.0 L 43.0 123.33333333333333 L 44.0 123.66666666666667 L 45.0 124.0 L 46.0 124.0 L 47.0 124.0 L 48.0 124.0 L 49.0 124.0 L 50.0 124.0 L 51.0 124.0 L 52.0 124.33333333333333 L 53.0 124.66666666666667 L 54.0 125.0 L 55.0 125.0 L 56.0 125.0 L 57.0 125.0 L 58.0 125.0 L 59.0 125.0 L 60.0 125.0 L 61.0 125.0 L 62.0 125.0 L 63.0 125.0 L 64.0 125.0 L 65.0 125.0 L 66.0 125.0 L 67.0 125.0 L 68.0 125.0 L 69.0 125.0 L 70.0 125.0 L 71.0 125.0 L 72.0 125.0 L 73.0 125.0 L 74.0 125.0 L 75.0 125.0 L 76.0 125.0 L 77.0 124.66666666666667 L 78.0 124.33333333333333 L 79.0 124.0 L 80.0 124.0 L 81.0 124.0 L 82.0 124.0 L 83.0 124.0 L 84.0 124.0 L 85.0 123.66666666666667 L 86.0 123.33333333333333 L 87.0 123.0 L 88.0 123.0 L 89.0 123.0 L 90.0 122.66666666666667 L 91.0 122.33333333333333 L 92.0 122.0 L 93.0 122.0 L 94.0 121.66666666666667 L 95.0 121.33333333333333 L 96.0 121.0 L 97.0 120.66666666666667 L 98.0 120.33333333333333 L 99.0 120.0 L 100.0 119.66666666666667 L 101.0 119.33333333333333 L 102.0 118.66666666666667 L 103.0 118.33333333333333 L 104.0 117.66666666666667 L 105.0 117.33333333333333 L 106.0 116.66666666666667 L 107.0 116.0 L 108.0 115.33333333333333 L 109.0 114.66666666666667 L 110.0 114.0 L 111.0 113.0 L 111.66666666666667 112.0 L 112.33333333333333 111.0 L 113.0 110.0 L 113.66666666666667 109.0 L 114.33333333333333 108.0 L 114.66666666666667 107.0 L 115.0 106.0 L 115.0 105.0 L 115.0 104.0 L 115.0 103.0 L 115.0 102.0 L 114.66666666666667 101.0 L 114.33333333333333 100.0 L 113.66666666666667 99.0 L 113.33333333333333 98.0 L 112.66666666666667 97.0 L 112.0 96.0 L 111.0 95.0 L 110.0 94.0 L 109.0 93.0 L 108.0 92.33333333333333 L 107.0 91.66666666666667 L 106.0 91.0 L 105.0 90.33333333333333 L 104.0 89.66666666666667 L 103.0 89.33333333333333 L 102.0 88.66666666666667 L 101.0 88.33333333333333 L 100.0 87.66666666666667 L 99.0 87.33333333333333 L 98.0 87.0 L 97.0 86.66666666666667 L 96.0 86.33333333333333 L 95.0 86.0 L 94.0 86.0 L 93.33333333333333 86.33333333333333 L 93.0 87.0 L 93.0 88.0 L 93.33333333333333 89.0 L 94.0 90.0 L 95.0 91.0 L 96.0 92.0 L 97.0 93.0 L 98.0 94.0 L 98.66666666666667 95.0 L 99.0 96.0 L 98.66666666666667 97.0 L 98.0 98.0 L 97.0 99.0 L 96.0 99.66666666666667 L 95.0 100.33333333333333 L 94.0 101.0 L 93.0 102.0 L 92.0 103.0 L 91.0 104.0 L 90.0 105.0 L 89.0 105.66666666666667 L 88.0 106.0 L 87.0 106.0 L 86.0 106.0 L 85.0 106.0 L 84.0 106.0 L 83.0 106.0 L 82.0 106.0 L 81.0 106.0 L 80.0 106.0 L 79.0 106.0 L 78.0 106.0 L 77.0 106.0 L 76.0 106.0 L 75.0 106.0 L 74.0 106.0 L 73.0 106.33333333333333 L 72.0 106.66666666666667 L 71.0 107.33333333333333 L 70.0 107.66666666666667 L 69.0 108.33333333333333 L 68.0 108.66666666666667 L 67.0 109.33333333333333 L 66.0 109.66666666666667 L 65.0 110.0 L 64.0 110.0 L 63.0 109.66666666666667 L 62.0 109.33333333333333 L 61.0 109.0 L 60.0 109.0 L 59.0 108.66666666666667 L 58.0 108.33333333333333 L 57.0 108.0 L 56.0 107.66666666666667 L 55.0 107.33333333333333 L 54.0 106.66666666666667 L 53.0 106.33333333333333 L 52.0 106.0 L 51.0 106.0 L 50.0 106.0 L 49.0 106.0 L 48.0 106.0 L 47.0 106.0 L 46.0 106.0 L 45.0 106.0 L 44.0 106.0 L 43.0 106.0 L 42.0 106.0 L 41.0 106.0 L 40.0 106.0 L 39.0 105.66666666666667 L 38.0 105.33333333333333 L 37.0 104.66666666666667 L 36.0 104.0 L 35.0 103.0 L 34.0 102.0 L 33.0 101.0 L 32.0 100.0 L 31.0 99.0 L 30.0 98.0 L 29.333333333333332 97.0 L 29.333333333333332 96.0 L 30.0 95.0 L 31.0 94.0 L 32.0 93.0 L 33.0 92.33333333333333 L 34.0 91.66666666666667 L 35.0 91.0 L 36.0 90.0 L 37.0 89.33333333333333 L 38.0 88.66666666666667 L 39.0 88.0 L 39.666666666666664 87.0 L 40.0 86.0 L 39.666666666666664 85.33333333333333 L 39.0 85.0 L 38.0 85.0 L 37.0 85.0 L 36.0 85.33333333333333 L 35.0 85.66666666666667 L 34.0 86.0 L 33.0 86.0 L 32.0 86.33333333333333 L 31.0 86.66666666666667 L 30.0 87.0 L 29.0 87.33333333333333 L 28.0 87.66666666666667 L 27.0 88.0 L 26.0 88.33333333333333 L 25.0 88.66666666666667 L 24.0 89.33333333333333 L 23.0 89.66666666666667 L 22.0 90.33333333333333 L 21.0 91.0 L 20.0 91.66666666666667 L 19.0 92.33333333333333 L 18.0 93.0 L 17.0 94.0 L 16.0 95.0 L 15.333333333333334 96.0 L 14.666666666666666 97.0 L 14.333333333333334 98.0 L 14.0 99.0 L 13.666666666666666 100.0 L 13.333333333333334 101.0 L 13.0 102.0 L 13.0 103.0 L 13.0 104.0 L 13.0 105.0 L 13.0 106.0 L 13.333333333333334 107.0 L 13.666666666666666 108.0 L 14.333333333333334 109.0 L 14.666666666666666 110.0 L 15.333333333333334 111.0 L 16.0 112.0 L 17.0 113.0 L 18.0 114.0 L 19.0 115.0 L 20.0 115.66666666666667 L 21.0 116.33333333333333 L 22.0 116.66666666666667 L 23.0 117.33333333333333 L 24.0 117.66666666666667 L 25.0 118.33333333333333 L 25.5 118.5 Z" stroke="none" fill="rgb(23,156,245)" />
<path d="M 95.5 111.5 L 96.0 111.0 L 97.0 110.0 L 98.0 109.0 L 99.0 108.0 L 100.0 107.0 L 101.0 106.0 L 102.0 105.0 L 103.0 104.33333333333333 L 104.0 103.66666666666667 L 105.0 103.0 L 106.0 102.0 L 106.66666666666667 101.0 L 107.0 100.0 L 107.0 99.0 L 107.0 98.0 L 107.0 97.0 L 106.66666666666667 96.0 L 106.0 95.0 L 105.0 94.0 L 104.0 93.33333333333333 L 103.0 93.0 L 102.33333333333333 93.33333333333333 L 102.0 94.0 L 102.33333333333333 95.0 L 102.66666666666667 96.0 L 103.0 97.0 L 102.66666666666667 98.0 L 102.0 99.0 L 101.0 100.0 L 100.0 100.66666666666667 L 99.0 101.33333333333333 L 98.0 102.0 L 97.0 103.0 L 96.0 104.0 L 95.0 105.0 L 94.0 106.0 L 93.0 107.0 L 92.0 107.66666666666667 L 91.0 108.33333333333333 L 90.0 108.66666666666667 L 89.0 109.33333333333333 L 88.0 109.66666666666667 L 87.0 110.0 L 86.0 110.0 L 85.0 110.0 L 84.0 110.0 L 83.0 110.0 L 82.0 110.0 L 81.0 110.0 L 80.0 110.0 L 79.0 110.0 L 78.0 110.0 L 77.0 110.0 L 76.0 110.0 L 75.0 110.0 L 74.0 110.0 L 73.0 110.0 L 72.0 110.33333333333333 L 71.0 110.66666666666667 L 70.0 111.0 L 69.0 111.33333333333333 L 68.0 112.0 L 67.0 112.66666666666667 L 66.0 113.0 L 65.0 113.0 L 64.0 113.0 L 63.0 113.0 L 62.0 113.0 L 61.0 113.0 L 60.0 113.0 L 59.0 112.66666666666667 L 58.0 112.33333333333333 L 57.0 111.66666666666667 L 56.0 111.33333333333333 L 55.0 110.66666666666667 L 54.0 110.33333333333333 L 53.0 110.0 L 52.0 110.0 L 51.0 110.0 L 50.0 110.0 L 49.0 110.0 L 48.0 110.0 L 47.0 110.0 L 46.0 110.0 L 45.0 110.0 L 44.0 110.0 L 43.0 110.0 L 42.0 110.0 L 41.0 109.66666666666667 L 40.0 109.33333333333333 L 39.0 109.0 L 38.0 109.0 L 37.0 108.66666666666667 L 36.0 108.33333333333333 L 35.0 107.66666666666667 L 34.0 107.0 L 33.0 106.0 L 32.0 105.0 L 31.0 104.0 L 30.0 103.0 L 29.0 102.0 L 28.0 101.0 L 27.0 100.0 L 26.0 99.0 L 25.0 98.0 L 24.0 97.0 L 23.333333333333332 96.0 L 23.0 95.0 L 22.666666666666668 94.33333333333333 L 22.0 94.33333333333333 L 21.0 95.0 L 20.333333333333332 96.0 L 20.0 97.0 L 20.0 98.0 L 20.0 99.0 L 20.333333333333332 100.0 L 21.0 101.0 L 22.0 102.0 L 23.0 103.0 L 24.0 104.0 L 25.0 105.0 L 26.0 106.0 L 27.0 107.0 L 28.0 108.0 L 29.0 109.0 L 30.0 110.0 L 31.0 111.0 L 32.0 111.66666666666667 L 33.0 112.33333333333333 L 34.0 112.66666666666667 L 35.0 113.33333333333333 L 36.0 113.66666666666667 L 37.0 114.0 L 38.0 114.0 L 39.0 114.0 L 40.0 114.0 L 41.0 114.0 L 42.0 114.0 L 43.0 114.0 L 44.0 114.0 L 45.0 114.0 L 46.0 114.0 L 47.0 114.0 L 48.0 114.0 L 49.0 114.0 L 50.0 114.0 L 51.0 114.33333333333333 L 52.0 114.66666666666667 L 53.0 115.33333333333333 L 54.0 115.66666666666667 L 55.0 116.33333333333333 L 56.0 116.66666666666667 L 57.0 117.0 L 58.0 117.33333333333333 L 59.0 117.66666666666667 L 60.0 118.0 L 61.0 118.0 L 62.0 118.0 L 63.0 118.0 L 64.0 118.0 L 65.0 118.0 L 66.0 118.0 L 67.0 118.0 L 68.0 117.66666666666667 L 69.0 117.33333333333333 L 70.0 116.66666666666667 L 71.0 116.33333333333333 L 72.0 116.0 L 73.0 115.66666666666667 L 74.0 115.33333333333333 L 75.0 115.0 L 76.0 115.0 L 77.0 115.0 L 78.0 115.0 L 79.0 115.0 L 80.0 115.0 L 81.0 115.0 L 82.0 115.0 L 83.0 115.0 L 84.0 115.0 L 85.0 115.0 L 86.0 115.0 L 87.0 115.0 L 88.0 115.0 L 89.0 115.0 L 90.0 114.66666666666667 L 91.0 114.33333333333333 L 92.0 114.0 L 93.0 113.66666666666667 L 94.0 113.0 L 94.5 112.5 Z" stroke="none" fill="rgb(118,248,255)" />
<path d="M 26.5 113.5 L 27.0 113.66666666666667 L 28.0 114.0 L 29.0 114.0 L 29.666666666666668 113.66666666666667 L 30.0 113.0 L 29.666666666666668 112.0 L 29.0 111.0 L 28.0 110.0 L 27.0 109.0 L 26.0 108.0 L 25.0 107.0 L 24.0 106.33333333333333 L 23.0 105.66666666666667 L 22.0 105.0 L 21.0 104.0 L 20.0 103.0 L 19.0 102.0 L 18.0 101.33333333333333 L 17.0 101.0 L 16.333333333333332 101.33333333333333 L 16.0 102.0 L 16.0 103.0 L 16.333333333333332 104.0 L 16.666666666666668 105.0 L 17.333333333333332 106.0 L 18.0 107.0 L 18.666666666666668 108.0 L 19.333333333333332 109.0 L 20.0 110.0 L 21.0 110.66666666666667 L 22.0 111.33333333333333 L 23.0 111.66666666666667 L 24.0 112.33333333333333 L 25.0 112.66666666666667 L 25.5 113.0 Z" stroke="none" fill="rgb(15,200,255)" />
<path d="M 107.5 110.0 L 108.0 109.66666666666667 L 109.0 109.0 L 110.0 108.0 L 111.0 107.0 L 111.66666666666667 106.0 L 112.0 105.0 L 112.0 104.0 L 112.0 103.0 L 111.66666666666667 102.0 L 111.0 101.33333333333333 L 110.0 101.0 L 109.33333333333333 101.33333333333333 L 108.66666666666667 102.0 L 108.0 103.0 L 107.0 104.0 L 106.0 105.0 L 105.0 106.0 L 104.0 106.66666666666667 L 103.0 107.33333333333333 L 102.0 108.0 L 101.0 109.0 L 100.0 110.0 L 99.33333333333333 111.0 L 99.0 112.0 L 99.33333333333333 112.66666666666667 L 100.0 113.0 L 101.0 113.0 L 102.0 112.66666666666667 L 103.0 112.33333333333333 L 104.0 111.66666666666667 L 105.0 111.33333333333333 L 106.0 110.66666666666667 L 106.5 110.5 Z" stroke="none" fill="rgb(15,200,255)" />
</svg>
