<?xml version="1.0" encoding="UTF-8" standalone="no"?>
<!DOCTYPE svg PUBLIC "-//W3C//DTD SVG 1.1//EN"
"http://www.w3.org/Graphics/SVG/1.1/DTD/svg11.dtd">
<svg width="128" height="128" xmlns="http://www.w3.org/2000/svg" version="1.1">
<path d="M 88.5 128.0 L 89.0 128.0 L 90.0 128.0 L 91.0 128.0 L 92.0 128.0 L 93.0 128.0 L 94.0 128.0 L 95.0 128.0 L 96.0 128.0 L 97.0 128.0 L 98.0 128.0 L 99.0 128.0 L 100.0 128.0 L 101.0 128.0 L 102.0 128.0 L 103.0 128.0 L 104.0 128.0 L 105.0 128.0 L 106.0 128.0 L 107.0 128.0 L 108.0 128.0 L 109.0 128.0 L 110.0 128.0 L 111.0 128.0 L 112.0 128.0 L 113.0 128.0 L 114.0 128.0 L 115.0 128.0 L 116.0 128.0 L 117.0 128.0 L 118.0 128.0 L 119.0 128.0 L 120.0 128.0 L 121.0 128.0 L 122.0 128.0 L 123.0 128.0 L 124.0 128.0 L 125.0 128.0 L 126.0 128.0 L 127.0 128.0 L 127.66666666666667 127.66666666666667 L 128.0 127.0 L 128.0 126.0 L 128.0 125.0 L 128.0 124.0 L 128.0 123.0 L 128.0 122.0 L 128.0 121.0 L 128.0 120.0 L 128.0 119.0 L 128.0 118.0 L 128.0 117.0 L 128.0 116.0 L 128.0 115.0 L 128.0 114.0 L 128.0 113.0 L 128.0 112.0 L 128.0 111.0 L 128.0 110.0 L 128.0 109.0 L 128.0 108.0 L 128.0 107.0 L 128.0 106.0 L 128.0 105.0 L 128.0 104.0 L 128.0 103.0 L 128.0 102.0 L 128.0 101.0 L 128.0 100.0 L 128.0 99.0 L 128.0 98.0 L 128.0 97.0 L 128.0 96.0 L 128.0 95.0 L 128.0 94.0 L 128.0 93.0 L 128.0 92.0 L 128.0 91.0 L 128.0 90.0 L 128.0 89.0 L 128.0 88.0 L 128.0 87.0 L 128.0 86.0 L 128.0 85.0 L 128.0 84.0 L 128.0 83.0 L 128.0 82.0 L 128.0 81.0 L 128.0 80.0 L 128.0 79.0 L 128.0 78.0 L 128.0 77.0 L 128.0 76.0 L 128.0 75.0 L 128.0 74.0 L 128.0 73.0 L 128.0 72.0 L 128.0 71.0 L 128.0 70.0 L 128.0 69.0 L 128.0 68.0 L 128.0 67.0 L 128.0 66.0 L 128.0 65.0 L 128.0 64.0 L 128.0 63.0 L 128.0 62.0 L 128.0 61.0 L 128.0 60.0 L 128.0 59.0 L 128.0 58.0 L 128.0 57.0 L 128.0 56.0 L 128.0 55.0 L 128.0 54.0 L 128.0 53.0 L 128.0 52.0 L 128.0 51.0 L 128.0 50.0 L 128.0 49.0 L 128.0 48.0 L 128.0 47.0 L 128.0 46.0 L 128.0 45.0 L 128.0 44.0 L 128.0 43.0 L 128.0 42.0 L 128.0 41.0 L 128.0 40.0 L 128.0 39.0 L 128.0 38.0 L 128.0 37.0 L 128.0 36.0 L 128.0 35.0 L 128.0 34.0 L 128.0 33.0 L 128.0 32.0 L 128.0 31.0 L 128.0 30.0 L 128.0 29.0 L 128.0 28.0 L 128.0 27.0 L 128.0 26.0 L 128.0 25.0 L 128.0 24.0 L 128.0 23.0 L 128.0 22.0 L 128.0 21.0 L 128.0 20.0 L 128.0 19.0 L 128.0 18.0 L 128.0 17.0 L 128.0 16.0 L 128.0 15.0 L 128.0 14.0 L 128.0 13.0 L 128.0 12.0 L 128.0 11.0 L 128.0 10.0 L 128.0 9.0 L 128.0 8.0 L 128.0 7.0 L 128.0 6.0 L 128.0 5.0 L 128.0 4.0 L 128.0 3.0 L 128.0 2.0 L 128.0 1.0 L 127.66666666666667 0.3333333333333333 L 127.0 0.0 L 126.0 0.0 L 125.0 0.0 L 124.0 0.0 L 123.0 0.0 L 122.0 0.0 L 121.0 0.0 L 120.0 0.0 L 119.0 0.0 L 118.0 0.0 L 117.0 0.0 L 116.0 0.0 L 115.0 0.0 L 114.0 0.0 L 113.0 0.0 L 112.0 0.0 L 111.0 0.0 L 110.0 0.0 L 109.0 0.0 L 108.0 0.0 L 107.0 0.0 L 106.0 0.0 L 105.0 0.0 L 104.0 0.0 L 103.0 0.0 L 102.0 0.0 L 101.0 0.0 L 100.0 0.0 L 99.0 0.0 L 98.0 0.0 L 97.0 0.0 L 96.0 0.0 L 95.0 0.0 L 94.0 0.0 L 93.0 0.0 L 92.0 0.0 L 91.0 0.0 L 90.0 0.0 L 89.0 0.0 L 88.0 0.0 L 87.0 0.0 L 86.0 0.0 L 85.0 0.0 L 84.0 0.0 L 83.0 0.0 L 82.0 0.0 L 81.0 0.0 L 80.0 0.0 L 79.0 0.0 L 78.0 0.0 L 77.0 0.0 L 76.0 0.0 L 75.0 0.0 L 74.0 0.0 L 73.0 0.0 L 72.0 0.0 L 71.0 0.0 L 70.0 0.0 L 69.0 0.0 L 68.0 0.0 L 67.0 0.0 L 66.0 0.0 L 65.0 0.0 L 64.0 0.0 L 63.0 0.0 L 62.0 0.0 L 61.0 0.0 L 60.0 0.0 L 59.0 0.0 L 58.0 0.0 L 57.0 0.0 L 56.0 0.0 L 55.0 0.0 L 54.0 0.0 L 53.0 0.0 L 52.0 0.0 L 51.0 0.0 L 50.0 0.0 L 49.0 0.0 L 48.0 0.0 L 47.0 0.0 L 46.0 0.0 L 45.0 0.0 L 44.0 0.0 L 43.0 0.0 L 42.0 0.0 L 41.0 0.0 L 40.0 0.0 L 39.0 0.0 L 38.0 0.0 L 37.0 0.0 L 36.0 0.0 L 35.0 0.0 L 34.0 0.0 L 33.0 0.0 L 32.0 0.0 L 31.0 0.0 L 30.0 0.0 L 29.0 0.0 L 28.0 0.0 L 27.0 0.0 L 26.0 0.0 L 25.0 0.0 L 24.0 0.0 L 23.0 0.0 L 22.0 0.0 L 21.0 0.0 L 20.0 0.0 L 19.0 0.0 L 18.0 0.0 L 17.0 0.0 L 16.0 0.0 L 15.0 0.0 L 14.0 0.0 L 13.0 0.0 L 12.0 0.0 L 11.0 0.0 L 10.0 0.0 L 9.0 0.0 L 8.0 0.0 L 7.0 0.0 L 6.0 0.0 L 5.0 0.0 L 4.0 0.0 L 3.0 0.0 L 2.0 0.0 L 1.0 0.0 L 0.3333333333333333 0.3333333333333333 L 0.0 1.0 L 0.0 2.0 L 0.0 3.0 L 0.0 4.0 L 0.0 5.0 L 0.0 6.0 L 0.0 7.0 L 0.0 8.0 L 0.0 9.0 L 0.0 10.0 L 0.0 11.0 L 0.0 12.0 L 0.0 13.0 L 0.0 14.0 L 0.0 15.0 L 0.0 16.0 L 0.0 17.0 L 0.0 18.0 L 0.0 19.0 L 0.0 20.0 L 0.0 21.0 L 0.0 22.0 L 0.0 23.0 L 0.0 24.0 L 0.0 25.0 L 0.0 26.0 L 0.0 27.0 L 0.0 28.0 L 0.0 29.0 L 0.0 30.0 L 0.0 31.0 L 0.0 32.0 L 0.0 33.0 L 0.0 34.0 L 0.0 35.0 L 0.0 36.0 L 0.0 37.0 L 0.0 38.0 L 0.0 39.0 L 0.0 40.0 L 0.0 41.0 L 0.0 42.0 L 0.0 43.0 L 0.0 44.0 L 0.0 45.0 L 0.0 46.0 L 0.0 47.0 L 0.0 48.0 L 0.0 49.0 L 0.0 50.0 L 0.0 51.0 L 0.0 52.0 L 0.0 53.0 L 0.0 54.0 L 0.0 55.0 L 0.0 56.0 L 0.0 57.0 L 0.0 58.0 L 0.0 59.0 L 0.0 60.0 L 0.0 61.0 L 0.0 62.0 L 0.0 63.0 L 0.0 64.0 L 0.0 65.0 L 0.0 66.0 L 0.0 67.0 L 0.0 68.0 L 0.0 69.0 L 0.0 70.0 L 0.0 71.0 L 0.0 72.0 L 0.0 73.0 L 0.0 74.0 L 0.0 75.0 L 0.0 76.0 L 0.0 77.0 L 0.0 78.0 L 0.0 79.0 L 0.0 80.0 L 0.0 81.0 L 0.0 82.0 L 0.0 83.0 L 0.0 84.0 L 0.0 85.0 L 0.0 86.0 L 0.0 87.0 L 0.0 88.0 L 0.0 89.0 L 0.0 90.0 L 0.0 91.0 L 0.0 92.0 L 0.0 93.0 L 0.0 94.0 L 0.0 95.0 L 0.0 96.0 L 0.0 97.0 L 0.0 98.0 L 0.0 99.0 L 0.0 100.0 L 0.0 101.0 L 0.0 102.0 L 0.0 103.0 L 0.0 104.0 L 0.0 105.0 L 0.0 106.0 L 0.0 107.0 L 0.0 108.0 L 0.0 109.0 L 0.0 110.0 L 0.0 111.0 L 0.0 112.0 L 0.0 113.0 L 0.0 114.0 L 0.0 115.0 L 0.0 116.0 L 0.0 117.0 L 0.0 118.0 L 0.0 119.0 L 0.0 120.0 L 0.0 121.0 L 0.0 122.0 L 0.0 123.0 L 0.0 124.0 L 0.0 125.0 L 0.0 126.0 L 0.0 127.0 L 0.3333333333333333 127.66666666666667 L 1.0 128.0 L 2.0 128.0 L 3.0 128.0 L 4.0 128.0 L 5.0 128.0 L 6.0 128.0 L 7.0 128.0 L 8.0 128.0 L 9.0 128.0 L 10.0 128.0 L 11.0 128.0 L 12.0 128.0 L 13.0 128.0 L 14.0 128.0 L 15.0 128.0 L 16.0 128.0 L 17.0 128.0 L 18.0 128.0 L 19.0 128.0 L 20.0 128.0 L 21.0 128.0 L 22.0 128.0 L 23.0 128.0 L 24.0 128.0 L 25.0 128.0 L 26.0 128.0 L 27.0 128.0 L 28.0 128.0 L 29.0 128.0 L 30.0 128.0 L 31.0 128.0 L 32.0 128.0 L 33.0 128.0 L 34.0 128.0 L 35.0 128.0 L 36.0 128.0 L 37.0 128.0 L 38.0 128.0 L 39.0 128.0 L 40.0 128.0 L 41.0 128.0 L 42.0 128.0 L 43.0 128.0 L 44.0 128.0 L 45.0 128.0 L 46.0 128.0 L 47.0 128.0 L 48.0 128.0 L 49.0 128.0 L 50.0 128.0 L 51.0 128.0 L 52.0 128.0 L 53.0 128.0 L 54.0 128.0 L 55.0 128.0 L 56.0 128.0 L 57.0 128.0 L 58.0 128.0 L 59.0 128.0 L 60.0 128.0 L 61.0 128.0 L 62.0 128.0 L 63.0 128.0 L 64.0 128.0 L 65.0 128.0 L 66.0 128.0 L 67.0 128.0 L 68.0 128.0 L 69.0 128.0 L 70.0 128.0 L 71.0 128.0 L 72.0 128.0 L 73.0 128.0 L 74.0 128.0 L 75.0 128.0 L 76.0 128.0 L 77.0 128.0 L 78.0 128.0 L 79.0 128.0 L 80.0 128.0 L 81.0 128.0 L 82.0 128.0 L 83.0 128.0 L 84.0 128.0 L 85.0 128.0 L 86.0 128.0 L 87.0 128.0 L 87.5 128.0 Z" stroke="none" fill="rgb(0,0,0)" />
<path d="M 97.5 28.0 L 98.0 27.666666666666668 L 99.0 27.333333333333332 L 100.0 26.666666666666668 L 101.0 26.0 L 102.0 25.0 L 103.0 24.333333333333332 L 104.0 23.666666666666668 L 105.0 23.0 L 106.0 22.0 L 107.0 21.0 L 108.0 20.0 L 109.0 19.0 L 110.0 18.0 L 111.0 17.0 L 112.0 16.0 L 113.0 15.0 L 113.66666666666667 14.0 L 114.0 13.0 L 113.66666666666667 12.0 L 113.0 11.0 L 112.0 10.333333333333334 L 111.0 9.666666666666666 L 110.0 9.333333333333334 L 109.0 8.666666666666666 L 108.0 8.333333333333334 L 107.0 8.0 L 106.0 7.666666666666667 L 105.0 7.333333333333333 L 104.0 7.0 L 103.0 7.0 L 102.0 7.0 L 101.0 7.0 L 100.0 7.0 L 99.0 7.333333333333333 L 98.0 7.666666666666667 L 97.0 8.0 L 96.0 8.333333333333334 L 95.0 8.666666666666666 L 94.0 9.333333333333334 L 93.0 10.0 L 92.0 11.0 L 91.0 12.0 L 90.33333333333333 13.0 L 89.66666666666667 14.0 L 89.33333333333333 15.0 L 89.0 16.0 L 88.66666666666667 17.0 L 88.33333333333333 18.0 L 88.0 19.0 L 88.0 20.0 L 88.0 21.0 L 88.0 22.0 L 88.0 23.0 L 87.66666666666667 24.0 L 87.33333333333333 25.0 L 86.66666666666667 26.0 L 86.0 26.666666666666668 L 85.0 27.333333333333332 L 84.0 27.333333333333332 L 83.0 27.0 L 82.0 26.333333333333332 L 81.0 25.666666666666668 L 80.0 25.0 L 79.0 24.0 L 78.0 23.0 L 77.0 22.0 L 76.0 21.0 L 75.33333333333333 20.0 L 74.66666666666667 19.0 L 74.0 18.0 L 73.0 17.0 L 72.0 16.0 L 71.0 15.0 L 70.0 14.0 L 69.0 13.0 L 68.0 12.0 L 67.0 11.0 L 66.0 10.0 L 65.0 9.0 L 64.0 8.0 L 63.0 7.0 L 62.0 6.0 L 61.0 5.0 L 60.0 4.333333333333333 L 59.0 3.6666666666666665 L 58.0 3.3333333333333335 L 57.0 3.3333333333333335 L 56.0 3.6666666666666665 L 55.0 4.333333333333333 L 54.0 5.0 L 53.0 6.0 L 52.0 6.666666666666667 L 51.0 7.333333333333333 L 50.0 8.0 L 49.0 9.0 L 48.0 10.0 L 47.0 11.0 L 46.0 12.0 L 45.0 13.0 L 44.0 14.0 L 43.0 15.0 L 42.0 16.0 L 41.0 17.0 L 40.0 18.0 L 39.333333333333336 19.0 L 38.666666666666664 20.0 L 38.333333333333336 21.0 L 38.0 22.0 L 38.0 23.0 L 38.333333333333336 24.0 L 38.666666666666664 25.0 L 39.333333333333336 26.0 L 40.0 27.0 L 41.0 27.666666666666668 L 42.0 28.0 L 43.0 28.333333333333332 L 44.0 28.666666666666668 L 45.0 29.0 L 46.0 29.333333333333332 L 47.0 29.666666666666668 L 48.0 30.0 L 49.0 30.333333333333332 L 50.0 31.0 L 51.0 32.0 L 52.0 33.0 L 53.0 34.0 L 54.0 35.0 L 54.666666666666664 36.0 L 55.333333333333336 37.0 L 56.0 37.666666666666664 L 57.0 38.0 L 58.0 38.0 L 59.0 38.0 L 60.0 38.0 L 61.0 38.0 L 62.0 38.0 L 63.0 38.0 L 64.0 38.0 L 65.0 38.0 L 66.0 38.0 L 67.0 38.0 L 68.0 38.0 L 69.0 38.0 L 70.0 37.666666666666664 L 71.0 37.333333333333336 L 72.0 37.0 L 73.0 37.0 L 74.0 37.0 L 75.0 37.0 L 76.0 36.666666666666664 L 77.0 36.333333333333336 L 78.0 36.0 L 79.0 36.0 L 80.0 35.666666666666664 L 81.0 35.333333333333336 L 82.0 35.0 L 83.0 34.666666666666664 L 84.0 34.333333333333336 L 85.0 34.0 L 86.0 33.666666666666664 L 87.0 33.333333333333336 L 88.0 33.0 L 89.0 32.666666666666664 L 90.0 32.333333333333336 L 91.0 31.666666666666668 L 92.0 31.333333333333332 L 93.0 30.666666666666668 L 94.0 30.333333333333332 L 95.0 29.666666666666668 L 96.0 29.0 L 96.5 28.5 Z" stroke="none" fill="rgb(183,209,24)" />
<path d="M 88.5 38.5 L 89.0 38.333333333333336 L 90.0 37.666666666666664 L 91.0 37.333333333333336 L 92.0 36.666666666666664 L 93.0 36.333333333333336 L 94.0 36.0 L 95.0 35.666666666666664 L 96.0 35.0 L 97.0 34.333333333333336 L 98.0 33.666666666666664 L 99.0 33.333333333333336 L 100.0 32.666666666666664 L 101.0 32.0 L 102.0 31.333333333333332 L 103.0 30.666666666666668 L 104.0 30.0 L 105.0 29.333333333333332 L 106.0 28.666666666666668 L 107.0 28.0 L 108.0 27.0 L 109.0 26.0 L 110.0 25.0 L 111.0 24.0 L 112.0 23.0 L 113.0 22.0 L 114.0 21.0 L 115.0 20.333333333333332 L 115.66666666666667 19.666666666666668 L 116.0 19.0 L 116.0 18.0 L 116.0 17.0 L 115.66666666666667 16.0 L 115.33333333333333 15.0 L 114.66666666666667 14.333333333333334 L 114.0 14.0 L 113.0 14.333333333333334 L 112.0 15.0 L 111.0 16.0 L 110.0 17.0 L 109.0 18.0 L 108.0 19.0 L 107.0 20.0 L 106.0 21.0 L 105.0 22.0 L 104.0 23.0 L 103.0 23.666666666666668 L 102.0 24.333333333333332 L 101.0 25.0 L 100.0 26.0 L 99.0 26.666666666666668 L 98.0 27.333333333333332 L 97.0 27.666666666666668 L 96.0 28.333333333333332 L 95.0 29.0 L 94.0 29.666666666666668 L 93.0 30.333333333333332 L 92.0 30.666666666666668 L 91.0 31.333333333333332 L 90.0 31.666666666666668 L 89.0 32.333333333333336 L 88.0 32.666666666666664 L 87.0 33.0 L 86.0 33.333333333333336 L 85.0 33.666666666666664 L 84.0 34.0 L 83.0 34.333333333333336 L 82.0 34.666666666666664 L 81.0 35.0 L 80.0 35.333333333333336 L 79.0 35.666666666666664 L 78.0 36.0 L 77.0 36.0 L 76.0 36.333333333333336 L 75.0 36.666666666666664 L 74.0 37.0 L 73.0 37.0 L 72.0 37.0 L 71.0 37.0 L 70.0 37.333333333333336 L 69.0 37.666666666666664 L 68.0 38.0 L 67.0 38.0 L 66.0 38.0 L 65.0 38.0 L 64.0 38.0 L 63.0 38.0 L 62.0 38.0 L 61.0 38.0 L 60.0 38.0 L 59.0 38.0 L 58.0 38.0 L 57.0 38.0 L 56.333333333333336 38.333333333333336 L 56.0 39.0 L 55.666666666666664 40.0 L 55.333333333333336 41.0 L 55.0 42.0 L 55.333333333333336 42.666666666666664 L 56.0 43.0 L 57.0 43.0 L 58.0 43.0 L 59.0 43.0 L 60.0 43.0 L 61.0 43.0 L 62.0 43.0 L 63.0 43.0 L 64.0 43.0 L 65.0 43.0 L 66.0 43.0 L 67.0 43.0 L 68.0 43.0 L 69.0 43.0 L 70.0 43.0 L 71.0 43.0 L 72.0 42.666666666666664 L 73.0 42.333333333333336 L 74.0 42.0 L 75.0 42.0 L 76.0 42.0 L 77.0 42.0 L 78.0 41.666666666666664 L 79.0 41.333333333333336 L 80.0 41.0 L 81.0 41.0 L 82.0 40.666666666666664 L 83.0 40.333333333333336 L 84.0 40.0 L 85.0 39.666666666666664 L 86.0 39.333333333333336 L 87.0 39.0 L 87.5 39.0 Z" stroke="none" fill="rgb(178,208,25)" />
<path d="M 53.5 47.0 L 54.0 47.0 L 55.0 47.0 L 56.0 47.0 L 57.0 47.0 L 58.0 47.0 L 59.0 47.0 L 60.0 47.0 L 61.0 47.0 L 62.0 47.0 L 63.0 47.0 L 64.0 47.0 L 65.0 47.0 L 66.0 47.0 L 67.0 47.0 L 68.0 47.0 L 69.0 47.0 L 70.0 47.0 L 71.0 47.0 L 72.0 47.0 L 73.0 47.0 L 74.0 46.666666666666664 L 75.0 46.333333333333336 L 76.0 46.0 L 77.0 46.0 L 78.0 46.0 L 79.0 45.666666666666664 L 80.0 45.333333333333336 L 81.0 45.0 L 82.0 45.0 L 83.0 44.666666666666664 L 84.0 44.333333333333336 L 85.0 44.0 L 86.0 43.666666666666664 L 87.0 43.333333333333336 L 88.0 43.0 L 89.0 42.666666666666664 L 90.0 42.333333333333336 L 91.0 41.666666666666664 L 92.0 41.333333333333336 L 93.0 41.0 L 94.0 40.666666666666664 L 95.0 40.333333333333336 L 96.0 40.0 L 97.0 40.0 L 98.0 39.666666666666664 L 99.0 39.0 L 100.0 38.0 L 101.0 37.0 L 102.0 36.333333333333336 L 103.0 36.0 L 104.0 36.0 L 105.0 35.666666666666664 L 105.66666666666667 35.0 L 106.33333333333333 34.0 L 107.0 33.0 L 108.0 32.0 L 109.0 31.333333333333332 L 110.0 30.666666666666668 L 111.0 30.0 L 112.0 29.333333333333332 L 113.0 29.0 L 114.0 28.666666666666668 L 115.0 28.0 L 115.66666666666667 27.0 L 116.0 26.0 L 116.0 25.0 L 116.0 24.0 L 116.0 23.0 L 116.0 22.0 L 116.0 21.0 L 115.66666666666667 20.333333333333332 L 115.0 20.0 L 114.0 20.333333333333332 L 113.0 21.0 L 112.0 22.0 L 111.0 23.0 L 110.0 24.0 L 109.0 25.0 L 108.0 26.0 L 107.0 27.0 L 106.0 28.0 L 105.0 28.666666666666668 L 104.0 29.333333333333332 L 103.0 30.0 L 102.0 30.666666666666668 L 101.0 31.333333333333332 L 100.0 32.0 L 99.0 32.666666666666664 L 98.0 33.333333333333336 L 97.0 33.666666666666664 L 96.0 34.333333333333336 L 95.0 35.0 L 94.0 35.666666666666664 L 93.0 36.0 L 92.0 36.333333333333336 L 91.0 36.666666666666664 L 90.0 37.333333333333336 L 89.0 37.666666666666664 L 88.0 38.333333333333336 L 87.0 38.666666666666664 L 86.0 39.0 L 85.0 39.333333333333336 L 84.0 39.666666666666664 L 83.0 40.0 L 82.0 40.333333333333336 L 81.0 40.666666666666664 L 80.0 41.0 L 79.0 41.0 L 78.0 41.333333333333336 L 77.0 41.666666666666664 L 76.0 42.0 L 75.0 42.0 L 74.0 42.0 L 73.0 42.0 L 72.0 42.333333333333336 L 71.0 42.666666666666664 L 70.0 43.0 L 69.0 43.0 L 68.0 43.0 L 67.0 43.0 L 66.0 43.0 L 65.0 43.0 L 64.0 43.0 L 63.0 43.0 L 62.0 43.0 L 61.0 43.0 L 60.0 43.0 L 59.0 43.0 L 58.0 43.0 L 57.0 43.0 L 56.0 43.0 L 55.0 43.333333333333336 L 54.0 44.0 L 53.0 44.666666666666664 L 52.333333333333336 45.333333333333336 L 52.0 46.0 L 52.333333333333336 46.666666666666664 L 52.5 47.0 Z" stroke="none" fill="rgb(171,207,27)" />
<path d="M 53.5 40.5 L 54.0 40.666666666666664 L 55.0 41.0 L 55.666666666666664 40.666666666666664 L 56.0 40.0 L 56.0 39.0 L 56.0 38.0 L 55.666666666666664 37.0 L 55.333333333333336 36.0 L 54.666666666666664 35.0 L 54.0 34.0 L 53.0 33.0 L 52.0 32.0 L 51.0 31.0 L 50.0 30.333333333333332 L 49.0 30.0 L 48.0 29.666666666666668 L 47.0 29.333333333333332 L 46.0 29.0 L 45.0 28.666666666666668 L 44.0 28.333333333333332 L 43.0 28.0 L 42.0 27.666666666666668 L 41.0 27.333333333333332 L 40.0 27.0 L 39.333333333333336 27.333333333333332 L 39.0 28.0 L 39.333333333333336 29.0 L 40.0 30.0 L 41.0 30.666666666666668 L 42.0 31.333333333333332 L 43.0 31.666666666666668 L 44.0 32.0 L 45.0 32.333333333333336 L 46.0 32.666666666666664 L 47.0 33.333333333333336 L 48.0 33.666666666666664 L 49.0 34.333333333333336 L 50.0 35.0 L 51.0 36.0 L 52.0 37.0 L 52.666666666666664 38.0 L 53.0 39.0 L 53.0 39.5 Z" stroke="none" fill="rgb(176,176,175)" />
<path d="M 101.0 42.5 L 101.33333333333333 42.0 L 102.0 41.0 L 103.0 40.0 L 104.0 39.333333333333336 L 105.0 39.0 L 106.0 38.666666666666664 L 107.0 38.333333333333336 L 108.0 38.0 L 109.0 37.666666666666664 L 110.0 37.333333333333336 L 111.0 36.666666666666664 L 112.0 36.0 L 113.0 35.0 L 114.0 34.0 L 115.0 33.0 L 115.66666666666667 32.0 L 116.33333333333333 31.0 L 116.66666666666667 30.0 L 117.0 29.0 L 117.0 28.0 L 116.66666666666667 27.333333333333332 L 116.0 27.0 L 115.0 27.333333333333332 L 114.0 28.0 L 113.0 29.0 L 112.0 30.0 L 111.0 31.0 L 110.0 32.0 L 109.0 33.0 L 108.0 34.0 L 107.0 34.666666666666664 L 106.0 35.0 L 105.0 35.333333333333336 L 104.0 35.666666666666664 L 103.0 36.0 L 102.0 36.0 L 101.0 36.333333333333336 L 100.0 37.0 L 99.0 38.0 L 98.33333333333333 39.0 L 98.0 40.0 L 98.0 41.0 L 98.0 42.0 L 98.0 43.0 L 98.33333333333333 44.0 L 99.0 44.666666666666664 L 99.66666666666667 44.666666666666664 L 100.33333333333333 44.0 L 100.5 43.5 Z" stroke="none" fill="rgb(176,176,175)" />
<path d="M 113.0 29.5 L 113.0 29.0 L 112.66666666666667 28.333333333333332 L 112.0 28.333333333333332 L 111.0 29.0 L 110.0 30.0 L 109.0 30.666666666666668 L 108.0 31.333333333333332 L 107.0 32.0 L 106.33333333333333 33.0 L 106.0 34.0 L 106.33333333333333 34.666666666666664 L 107.0 35.0 L 108.0 34.666666666666664 L 109.0 34.0 L 110.0 33.0 L 111.0 32.0 L 112.0 31.0 L 112.5 30.5 Z" stroke="none" fill="rgb(164,205,29)" />
<path d="M 23.5 40.5 L 24.0 41.0 L 25.0 41.666666666666664 L 26.0 42.333333333333336 L 27.0 42.666666666666664 L 28.0 43.0 L 29.0 43.0 L 29.666666666666668 42.666666666666664 L 30.0 42.0 L 30.0 41.0 L 29.666666666666668 40.0 L 29.0 39.0 L 28.0 38.333333333333336 L 27.0 37.666666666666664 L 26.0 37.333333333333336 L 25.0 37.0 L 24.0 37.0 L 23.0 37.0 L 22.0 37.333333333333336 L 21.333333333333332 38.0 L 21.333333333333332 39.0 L 22.0 39.666666666666664 L 22.5 40.0 Z" stroke="none" fill="rgb(164,205,29)" />
<path d="M 31.0 47.5 L 31.0 47.0 L 31.0 46.0 L 31.0 45.0 L 31.0 44.0 L 30.666666666666668 43.333333333333336 L 30.0 43.0 L 29.0 43.0 L 28.0 42.666666666666664 L 27.0 42.333333333333336 L 26.0 41.666666666666664 L 25.0 41.0 L 24.0 40.333333333333336 L 23.0 39.666666666666664 L 22.0 39.0 L 21.0 38.333333333333336 L 20.0 38.333333333333336 L 19.0 39.0 L 18.333333333333332 40.0 L 18.0 41.0 L 18.333333333333332 41.666666666666664 L 19.0 42.333333333333336 L 20.0 42.666666666666664 L 21.0 43.333333333333336 L 22.0 44.0 L 23.0 44.666666666666664 L 24.0 45.333333333333336 L 25.0 45.666666666666664 L 26.0 46.333333333333336 L 27.0 46.666666666666664 L 28.0 47.0 L 29.0 47.333333333333336 L 30.0 47.666666666666664 L 30.5 48.0 Z" stroke="none" fill="rgb(156,203,31)" />
<path d="M 91.5 45.0 L 92.0 45.0 L 93.0 44.666666666666664 L 94.0 44.333333333333336 L 95.0 43.666666666666664 L 96.0 43.333333333333336 L 97.0 43.0 L 97.66666666666667 42.666666666666664 L 98.0 42.0 L 98.0 41.0 L 97.66666666666667 40.0 L 97.0 39.333333333333336 L 96.0 39.333333333333336 L 95.0 39.666666666666664 L 94.0 40.333333333333336 L 93.0 40.666666666666664 L 92.0 41.0 L 91.0 41.333333333333336 L 90.0 41.666666666666664 L 89.0 42.333333333333336 L 88.0 42.666666666666664 L 87.0 43.0 L 86.0 43.333333333333336 L 85.0 43.666666666666664 L 84.0 44.0 L 83.0 44.333333333333336 L 82.0 44.666666666666664 L 81.0 45.0 L 80.0 45.0 L 79.0 45.333333333333336 L 78.0 45.666666666666664 L 77.0 46.0 L 76.0 46.0 L 75.0 46.0 L 74.0 46.333333333333336 L 73.0 46.666666666666664 L 72.0 47.0 L 71.0 47.0 L 70.0 47.0 L 69.0 47.0 L 68.0 47.0 L 67.0 47.0 L 66.0 47.0 L 65.0 47.0 L 64.0 47.0 L 63.0 47.0 L 62.0 47.0 L 61.0 47.0 L 60.0 47.0 L 59.0 47.0 L 58.0 47.0 L 57.0 47.0 L 56.0 47.0 L 55.0 47.0 L 54.0 47.0 L 53.0 47.0 L 52.0 47.0 L 51.0 47.333333333333336 L 50.333333333333336 48.0 L 50.0 49.0 L 50.333333333333336 49.666666666666664 L 51.0 50.0 L 52.0 50.0 L 53.0 50.0 L 54.0 50.0 L 55.0 50.0 L 56.0 50.0 L 57.0 50.333333333333336 L 58.0 50.666666666666664 L 59.0 51.0 L 60.0 51.0 L 61.0 51.0 L 62.0 51.0 L 63.0 51.0 L 64.0 51.0 L 65.0 51.0 L 66.0 51.0 L 67.0 50.666666666666664 L 68.0 50.333333333333336 L 69.0 50.0 L 70.0 50.0 L 71.0 50.0 L 72.0 50.0 L 73.0 50.0 L 74.0 50.0 L 75.0 49.666666666666664 L 76.0 49.333333333333336 L 77.0 49.0 L 78.0 49.0 L 79.0 49.0 L 80.0 48.666666666666664 L 81.0 48.333333333333336 L 82.0 48.0 L 83.0 48.0 L 84.0 47.666666666666664 L 85.0 47.333333333333336 L 86.0 47.0 L 87.0 46.666666666666664 L 88.0 46.333333333333336 L 89.0 46.0 L 90.0 45.666666666666664 L 90.5 45.5 Z" stroke="none" fill="rgb(164,205,29)" />
<path d="M 19.5 46.5 L 20.0 46.666666666666664 L 21.0 47.333333333333336 L 22.0 47.666666666666664 L 23.0 48.333333333333336 L 24.0 48.666666666666664 L 25.0 49.333333333333336 L 26.0 49.666666666666664 L 27.0 50.333333333333336 L 28.0 50.666666666666664 L 29.0 51.0 L 30.0 51.333333333333336 L 31.0 51.666666666666664 L 32.0 52.0 L 33.0 52.0 L 33.666666666666664 51.666666666666664 L 33.666666666666664 51.0 L 33.333333333333336 50.0 L 32.666666666666664 49.0 L 32.0 48.333333333333336 L 31.0 47.666666666666664 L 30.0 47.333333333333336 L 29.0 47.0 L 28.0 46.666666666666664 L 27.0 46.333333333333336 L 26.0 45.666666666666664 L 25.0 45.333333333333336 L 24.0 44.666666666666664 L 23.0 44.0 L 22.0 43.333333333333336 L 21.0 42.666666666666664 L 20.0 42.333333333333336 L 19.0 41.666666666666664 L 18.0 41.333333333333336 L 17.0 41.333333333333336 L 16.333333333333332 42.0 L 16.0 43.0 L 16.333333333333332 44.0 L 17.0 44.666666666666664 L 18.0 45.333333333333336 L 18.5 45.5 Z" stroke="none" fill="rgb(147,201,33)" />
<path d="M 23.5 51.5 L 24.0 51.666666666666664 L 25.0 52.0 L 26.0 52.333333333333336 L 27.0 52.666666666666664 L 28.0 53.333333333333336 L 29.0 53.666666666666664 L 30.0 54.0 L 31.0 54.333333333333336 L 32.0 54.666666666666664 L 33.0 55.333333333333336 L 34.0 55.666666666666664 L 35.0 56.0 L 36.0 56.0 L 37.0 56.333333333333336 L 38.0 56.666666666666664 L 39.0 57.0 L 40.0 57.333333333333336 L 41.0 57.666666666666664 L 42.0 58.0 L 43.0 58.0 L 44.0 58.0 L 45.0 58.333333333333336 L 46.0 58.666666666666664 L 47.0 59.0 L 48.0 59.0 L 49.0 59.0 L 50.0 59.0 L 51.0 59.0 L 52.0 59.333333333333336 L 53.0 59.666666666666664 L 54.0 60.0 L 55.0 60.0 L 56.0 60.0 L 57.0 60.0 L 58.0 60.0 L 59.0 60.0 L 60.0 60.0 L 61.0 60.0 L 62.0 60.0 L 63.0 60.0 L 64.0 60.0 L 65.0 60.0 L 66.0 60.0 L 67.0 60.0 L 68.0 60.0 L 69.0 60.0 L 70.0 60.0 L 71.0 60.0 L 72.0 59.666666666666664 L 73.0 59.333333333333336 L 74.0 59.0 L 75.0 59.0 L 76.0 59.0 L 77.0 59.0 L 78.0 59.0 L 79.0 58.666666666666664 L 80.0 58.333333333333336 L 81.0 58.0 L 82.0 58.0 L 83.0 57.666666666666664 L 84.0 57.333333333333336 L 85.0 57.0 L 86.0 57.0 L 87.0 56.666666666666664 L 88.0 56.333333333333336 L 89.0 56.0 L 90.0 55.666666666666664 L 91.0 55.333333333333336 L 92.0 55.0 L 93.0 54.666666666666664 L 94.0 54.333333333333336 L 95.0 54.0 L 96.0 53.666666666666664 L 97.0 53.333333333333336 L 98.0 52.666666666666664 L 99.0 52.333333333333336 L 100.0 51.666666666666664 L 101.0 51.333333333333336 L 102.0 50.666666666666664 L 103.0 50.333333333333336 L 103.66666666666667 49.666666666666664 L 104.0 49.0 L 103.66666666666667 48.0 L 103.0 47.333333333333336 L 102.0 47.333333333333336 L 101.0 48.0 L 100.0 48.666666666666664 L 99.0 49.0 L 98.0 49.333333333333336 L 97.0 49.666666666666664 L 96.0 50.333333333333336 L 95.0 50.666666666666664 L 94.0 51.333333333333336 L 93.0 51.666666666666664 L 92.0 52.0 L 91.0 52.333333333333336 L 90.0 52.666666666666664 L 89.0 53.0 L 88.0 53.333333333333336 L 87.0 53.666666666666664 L 86.0 54.0 L 85.0 54.333333333333336 L 84.0 54.666666666666664 L 83.0 55.0 L 82.0 55.0 L 81.0 55.0 L 80.0 55.333333333333336 L 79.0 55.666666666666664 L 78.0 56.0 L 77.0 56.0 L 76.0 56.0 L 75.0 56.333333333333336 L 74.0 56.666666666666664 L 73.0 57.0 L 72.0 57.0 L 71.0 57.0 L 70.0 57.0 L 69.0 57.0 L 68.0 57.0 L 67.0 57.0 L 66.0 57.0 L 65.0 57.0 L 64.0 57.0 L 63.0 57.0 L 62.0 57.0 L 61.0 57.0 L 60.0 57.0 L 59.0 57.0 L 58.0 57.0 L 57.0 57.0 L 56.0 57.0 L 55.0 57.0 L 54.0 57.0 L 53.0 57.0 L 52.0 57.0 L 51.0 57.0 L 50.0 56.666666666666664 L 49.0 56.333333333333336 L 48.0 56.0 L 47.0 56.0 L 46.0 56.0 L 45.0 55.666666666666664 L 44.0 55.0 L 43.0 54.333333333333336 L 42.0 54.0 L 41.0 54.0 L 40.0 54.0 L 39.0 54.0 L 38.0 53.666666666666664 L 37.0 53.333333333333336 L 36.0 52.666666666666664 L 35.0 52.333333333333336 L 34.0 52.0 L 33.0 52.0 L 32.0 51.666666666666664 L 31.0 51.333333333333336 L 30.0 51.0 L 29.0 50.666666666666664 L 28.0 50.333333333333336 L 27.0 49.666666666666664 L 26.0 49.333333333333336 L 25.0 48.666666666666664 L 24.0 48.333333333333336 L 23.0 47.666666666666664 L 22.0 47.333333333333336 L 21.0 46.666666666666664 L 20.0 46.0 L 19.0 45.333333333333336 L 18.0 44.666666666666664 L 17.0 44.0 L 16.0 43.333333333333336 L 15.0 43.333333333333336 L 14.333333333333334 44.0 L 14.0 45.0 L 14.333333333333334 46.0 L 15.0 46.666666666666664 L 16.0 47.333333333333336 L 17.0 47.666666666666664 L 18.0 48.333333333333336 L 19.0 48.666666666666664 L 20.0 49.333333333333336 L 21.0 50.0 L 22.0 50.666666666666664 L 22.5 51.0 Z" stroke="none" fill="rgb(139,200,35)" />
<path d="M 87.5 50.5 L 88.0 50.333333333333336 L 89.0 50.0 L 90.0 49.666666666666664 L 91.0 49.333333333333336 L 92.0 49.0 L 93.0 48.666666666666664 L 94.0 48.333333333333336 L 95.0 47.666666666666664 L 96.0 47.333333333333336 L 97.0 46.666666666666664 L 98.0 46.333333333333336 L 98.66666666666667 45.666666666666664 L 99.0 45.0 L 98.66666666666667 44.0 L 98.0 43.333333333333336 L 97.0 43.0 L 96.0 43.0 L 95.0 43.333333333333336 L 94.0 43.666666666666664 L 93.0 44.333333333333336 L 92.0 44.666666666666664 L 91.0 45.0 L 90.0 45.333333333333336 L 89.0 45.666666666666664 L 88.0 46.0 L 87.0 46.333333333333336 L 86.0 46.666666666666664 L 85.0 47.0 L 84.0 47.333333333333336 L 83.0 47.666666666666664 L 82.0 48.0 L 81.0 48.0 L 80.0 48.333333333333336 L 79.0 48.666666666666664 L 78.0 49.0 L 77.0 49.0 L 76.0 49.0 L 75.0 49.333333333333336 L 74.0 49.666666666666664 L 73.0 50.0 L 72.0 50.0 L 71.0 50.0 L 70.0 50.0 L 69.0 50.0 L 68.0 50.0 L 67.0 50.333333333333336 L 66.0 50.666666666666664 L 65.0 51.0 L 64.0 51.0 L 63.0 51.0 L 62.0 51.0 L 61.0 51.0 L 60.0 51.0 L 59.0 50.666666666666664 L 58.0 50.333333333333336 L 57.0 50.0 L 56.0 50.0 L 55.0 50.0 L 54.0 50.0 L 53.0 50.0 L 52.0 50.0 L 51.0 49.666666666666664 L 50.0 49.333333333333336 L 49.0 49.333333333333336 L 48.0 49.666666666666664 L 47.0 50.333333333333336 L 46.333333333333336 51.0 L 46.0 52.0 L 46.333333333333336 52.666666666666664 L 47.0 53.0 L 48.0 53.0 L 49.0 53.0 L 50.0 53.333333333333336 L 51.0 53.666666666666664 L 52.0 54.0 L 53.0 54.0 L 54.0 54.0 L 55.0 54.0 L 56.0 54.0 L 57.0 54.0 L 58.0 54.0 L 59.0 54.0 L 60.0 54.0 L 61.0 54.0 L 62.0 54.0 L 63.0 54.0 L 64.0 54.0 L 65.0 54.0 L 66.0 54.0 L 67.0 54.0 L 68.0 54.0 L 69.0 54.0 L 70.0 54.0 L 71.0 54.0 L 72.0 54.0 L 73.0 53.666666666666664 L 74.0 53.333333333333336 L 75.0 53.0 L 76.0 53.0 L 77.0 53.0 L 78.0 53.0 L 79.0 52.666666666666664 L 80.0 52.333333333333336 L 81.0 52.0 L 82.0 52.0 L 83.0 52.0 L 84.0 51.666666666666664 L 85.0 51.333333333333336 L 86.0 51.0 L 86.5 51.0 Z" stroke="none" fill="rgb(156,203,31)" />
<path d="M 105.5 51.5 L 105.66666666666667 51.0 L 105.66666666666667 50.0 L 105.0 49.333333333333336 L 104.0 49.333333333333336 L 103.0 49.666666666666664 L 102.0 50.333333333333336 L 101.0 50.666666666666664 L 100.0 51.333333333333336 L 99.0 51.666666666666664 L 98.0 52.333333333333336 L 97.0 52.666666666666664 L 96.0 53.333333333333336 L 95.0 53.666666666666664 L 94.0 54.0 L 93.0 54.333333333333336 L 92.0 54.666666666666664 L 91.0 55.0 L 90.0 55.333333333333336 L 89.0 55.666666666666664 L 88.0 56.0 L 87.0 56.333333333333336 L 86.0 56.666666666666664 L 85.0 57.0 L 84.0 57.0 L 83.0 57.333333333333336 L 82.0 57.666666666666664 L 81.0 58.0 L 80.0 58.0 L 79.0 58.333333333333336 L 78.0 58.666666666666664 L 77.0 59.0 L 76.0 59.0 L 75.0 59.0 L 74.0 59.0 L 73.0 59.0 L 72.0 59.333333333333336 L 71.0 59.666666666666664 L 70.0 60.0 L 69.0 60.0 L 68.0 60.0 L 67.0 60.0 L 66.0 60.0 L 65.0 60.0 L 64.0 60.0 L 63.0 60.0 L 62.0 60.0 L 61.0 60.0 L 60.0 60.0 L 59.0 60.0 L 58.0 60.0 L 57.0 60.0 L 56.0 60.0 L 55.0 60.0 L 54.0 59.666666666666664 L 53.0 59.333333333333336 L 52.0 59.0 L 51.0 59.0 L 50.0 59.0 L 49.0 59.0 L 48.0 59.0 L 47.0 58.666666666666664 L 46.0 58.333333333333336 L 45.0 58.0 L 44.0 58.0 L 43.0 58.0 L 42.0 57.666666666666664 L 41.0 57.333333333333336 L 40.0 57.0 L 39.0 56.666666666666664 L 38.0 56.333333333333336 L 37.0 56.0 L 36.0 56.0 L 35.0 55.666666666666664 L 34.0 55.333333333333336 L 33.0 54.666666666666664 L 32.0 54.333333333333336 L 31.0 54.0 L 30.0 53.666666666666664 L 29.0 53.333333333333336 L 28.0 52.666666666666664 L 27.0 52.333333333333336 L 26.0 52.0 L 25.0 51.666666666666664 L 24.0 51.333333333333336 L 23.0 50.666666666666664 L 22.0 50.0 L 21.0 49.333333333333336 L 20.0 48.666666666666664 L 19.0 48.333333333333336 L 18.0 47.666666666666664 L 17.0 47.333333333333336 L 16.0 46.666666666666664 L 15.0 46.0 L 14.0 45.333333333333336 L 13.0 45.333333333333336 L 12.333333333333334 46.0 L 12.333333333333334 47.0 L 13.0 47.666666666666664 L 14.0 48.333333333333336 L 15.0 49.0 L 16.0 49.666666666666664 L 17.0 50.333333333333336 L 18.0 50.666666666666664 L 19.0 51.333333333333336 L 20.0 51.666666666666664 L 21.0 52.333333333333336 L 22.0 52.666666666666664 L 23.0 53.333333333333336 L 24.0 53.666666666666664 L 25.0 54.333333333333336 L 26.0 54.666666666666664 L 27.0 55.333333333333336 L 28.0 55.666666666666664 L 29.0 56.0 L 30.0 56.333333333333336 L 31.0 56.666666666666664 L 32.0 57.0 L 33.0 57.333333333333336 L 34.0 57.666666666666664 L 35.0 58.0 L 36.0 58.333333333333336 L 37.0 58.666666666666664 L 38.0 59.0 L 39.0 59.0 L 40.0 59.333333333333336 L 41.0 59.666666666666664 L 42.0 60.0 L 43.0 60.0 L 44.0 60.333333333333336 L 45.0 60.666666666666664 L 46.0 61.0 L 47.0 61.0 L 48.0 61.0 L 49.0 61.0 L 50.0 61.0 L 51.0 61.333333333333336 L 52.0 61.666666666666664 L 53.0 62.0 L 54.0 62.0 L 55.0 62.0 L 56.0 62.0 L 57.0 62.0 L 58.0 62.0 L 59.0 62.0 L 60.0 62.0 L 61.0 62.0 L 62.0 62.0 L 63.0 62.0 L 64.0 62.0 L 65.0 62.0 L 66.0 62.0 L 67.0 62.0 L 68.0 62.0 L 69.0 62.0 L 70.0 62.0 L 71.0 62.0 L 72.0 62.0 L 73.0 61.666666666666664 L 74.0 61.333333333333336 L 75.0 61.0 L 76.0 61.0 L 77.0 61.0 L 78.0 61.0 L 79.0 60.666666666666664 L 80.0 60.333333333333336 L 81.0 60.0 L 82.0 60.0 L 83.0 60.0 L 84.0 59.666666666666664 L 85.0 59.333333333333336 L 86.0 59.0 L 87.0 59.0 L 88.0 58.666666666666664 L 89.0 58.333333333333336 L 90.0 58.0 L 91.0 57.666666666666664 L 92.0 57.333333333333336 L 93.0 57.0 L 94.0 56.666666666666664 L 95.0 56.333333333333336 L 96.0 55.666666666666664 L 97.0 55.333333333333336 L 98.0 55.0 L 99.0 54.666666666666664 L 100.0 54.333333333333336 L 101.0 53.666666666666664 L 102.0 53.333333333333336 L 103.0 52.666666666666664 L 104.0 52.333333333333336 L 104.5 52.0 Z" stroke="none" fill="rgb(131,198,37)" />
<path d="M 57.5 57.0 L 58.0 57.0 L 59.0 57.0 L 60.0 57.0 L 61.0 57.0 L 62.0 57.0 L 63.0 57.0 L 64.0 57.0 L 65.0 57.0 L 66.0 57.0 L 67.0 57.0 L 68.0 57.0 L 69.0 57.0 L 70.0 57.0 L 71.0 57.0 L 72.0 57.0 L 73.0 57.0 L 74.0 57.0 L 75.0 56.666666666666664 L 76.0 56.333333333333336 L 77.0 56.0 L 78.0 56.0 L 79.0 56.0 L 80.0 55.666666666666664 L 81.0 55.333333333333336 L 82.0 55.0 L 83.0 55.0 L 84.0 55.0 L 85.0 54.666666666666664 L 86.0 54.333333333333336 L 87.0 54.0 L 88.0 53.666666666666664 L 89.0 53.333333333333336 L 90.0 53.0 L 91.0 52.666666666666664 L 92.0 52.333333333333336 L 93.0 52.0 L 94.0 51.666666666666664 L 95.0 51.333333333333336 L 96.0 50.666666666666664 L 97.0 50.333333333333336 L 98.0 49.666666666666664 L 99.0 49.333333333333336 L 100.0 49.0 L 101.0 48.666666666666664 L 101.66666666666667 48.0 L 102.0 47.0 L 101.66666666666667 46.0 L 101.0 45.333333333333336 L 100.0 45.0 L 99.0 45.333333333333336 L 98.0 45.666666666666664 L 97.0 46.333333333333336 L 96.0 46.666666666666664 L 95.0 47.333333333333336 L 94.0 47.666666666666664 L 93.0 48.333333333333336 L 92.0 48.666666666666664 L 91.0 49.0 L 90.0 49.333333333333336 L 89.0 49.666666666666664 L 88.0 50.0 L 87.0 50.333333333333336 L 86.0 50.666666666666664 L 85.0 51.0 L 84.0 51.333333333333336 L 83.0 51.666666666666664 L 82.0 52.0 L 81.0 52.0 L 80.0 52.0 L 79.0 52.333333333333336 L 78.0 52.666666666666664 L 77.0 53.0 L 76.0 53.0 L 75.0 53.0 L 74.0 53.0 L 73.0 53.333333333333336 L 72.0 53.666666666666664 L 71.0 54.0 L 70.0 54.0 L 69.0 54.0 L 68.0 54.0 L 67.0 54.0 L 66.0 54.0 L 65.0 54.0 L 64.0 54.0 L 63.0 54.0 L 62.0 54.0 L 61.0 54.0 L 60.0 54.0 L 59.0 54.0 L 58.0 54.0 L 57.0 54.0 L 56.0 54.0 L 55.0 54.0 L 54.0 54.0 L 53.0 54.0 L 52.0 53.666666666666664 L 51.0 53.333333333333336 L 50.0 53.0 L 49.0 53.0 L 48.0 53.0 L 47.0 52.666666666666664 L 46.0 52.333333333333336 L 45.0 52.333333333333336 L 44.0 52.666666666666664 L 43.333333333333336 53.333333333333336 L 43.0 54.0 L 43.333333333333336 55.0 L 44.0 55.666666666666664 L 45.0 56.0 L 46.0 56.0 L 47.0 56.0 L 48.0 56.333333333333336 L 49.0 56.666666666666664 L 50.0 57.0 L 51.0 57.0 L 52.0 57.0 L 53.0 57.0 L 54.0 57.0 L 55.0 57.0 L 56.0 57.0 L 56.5 57.0 Z" stroke="none" fill="rgb(147,201,33)" />
<path d="M 105.5 54.0 L 106.0 53.666666666666664 L 106.66666666666667 53.0 L 107.0 52.0 L 106.66666666666667 51.333333333333336 L 106.0 51.0 L 105.0 51.333333333333336 L 104.0 51.666666666666664 L 103.0 52.333333333333336 L 102.0 52.666666666666664 L 101.0 53.333333333333336 L 100.0 53.666666666666664 L 99.0 54.333333333333336 L 98.0 54.666666666666664 L 97.0 55.0 L 96.0 55.333333333333336 L 95.0 55.666666666666664 L 94.0 56.333333333333336 L 93.0 56.666666666666664 L 92.0 57.0 L 91.0 57.333333333333336 L 90.0 57.666666666666664 L 89.0 58.0 L 88.0 58.333333333333336 L 87.0 58.666666666666664 L 86.0 59.0 L 85.0 59.0 L 84.0 59.333333333333336 L 83.0 59.666666666666664 L 82.0 60.0 L 81.0 60.0 L 80.0 60.0 L 79.0 60.333333333333336 L 78.0 60.666666666666664 L 77.0 61.0 L 76.0 61.0 L 75.0 61.0 L 74.0 61.0 L 73.0 61.333333333333336 L 72.0 61.666666666666664 L 71.0 62.0 L 70.0 62.0 L 69.0 62.0 L 68.0 62.0 L 67.0 62.0 L 66.0 62.0 L 65.0 62.0 L 64.0 62.0 L 63.0 62.0 L 62.0 62.0 L 61.0 62.0 L 60.0 62.0 L 59.0 62.0 L 58.0 62.0 L 57.0 62.0 L 56.0 62.0 L 55.0 62.0 L 54.0 62.0 L 53.0 61.666666666666664 L 52.0 61.333333333333336 L 51.0 61.0 L 50.0 61.0 L 49.0 61.0 L 48.0 61.0 L 47.0 61.0 L 46.0 60.666666666666664 L 45.0 60.333333333333336 L 44.0 60.0 L 43.0 60.0 L 42.0 59.666666666666664 L 41.0 59.333333333333336 L 40.0 59.0 L 39.0 59.0 L 38.0 58.666666666666664 L 37.0 58.333333333333336 L 36.0 58.0 L 35.0 57.666666666666664 L 34.0 57.333333333333336 L 33.0 57.0 L 32.0 56.666666666666664 L 31.0 56.333333333333336 L 30.0 56.0 L 29.0 55.666666666666664 L 28.0 55.333333333333336 L 27.0 54.666666666666664 L 26.0 54.333333333333336 L 25.0 53.666666666666664 L 24.0 53.333333333333336 L 23.0 52.666666666666664 L 22.0 52.333333333333336 L 21.0 51.666666666666664 L 20.0 51.333333333333336 L 19.0 50.666666666666664 L 18.0 50.333333333333336 L 17.0 49.666666666666664 L 16.0 49.0 L 15.0 48.333333333333336 L 14.0 47.666666666666664 L 13.0 47.333333333333336 L 12.0 47.0 L 11.333333333333334 47.333333333333336 L 11.0 48.0 L 11.333333333333334 49.0 L 12.0 49.666666666666664 L 13.0 50.333333333333336 L 14.0 51.0 L 15.0 51.666666666666664 L 16.0 52.333333333333336 L 17.0 52.666666666666664 L 18.0 53.333333333333336 L 19.0 53.666666666666664 L 20.0 54.333333333333336 L 21.0 54.666666666666664 L 22.0 55.333333333333336 L 23.0 55.666666666666664 L 24.0 56.333333333333336 L 25.0 56.666666666666664 L 26.0 57.333333333333336 L 27.0 57.666666666666664 L 28.0 58.0 L 29.0 58.333333333333336 L 30.0 58.666666666666664 L 31.0 59.0 L 32.0 59.333333333333336 L 33.0 59.666666666666664 L 34.0 60.0 L 35.0 60.333333333333336 L 36.0 60.666666666666664 L 37.0 61.0 L 38.0 61.333333333333336 L 39.0 61.666666666666664 L 40.0 62.0 L 41.0 62.0 L 42.0 62.0 L 43.0 62.333333333333336 L 44.0 62.666666666666664 L 45.0 63.0 L 46.0 63.0 L 47.0 63.0 L 48.0 63.333333333333336 L 49.0 63.666666666666664 L 50.0 64.0 L 51.0 64.0 L 52.0 64.0 L 53.0 64.0 L 54.0 64.0 L 55.0 64.0 L 56.0 64.0 L 57.0 64.0 L 58.0 64.0 L 59.0 64.0 L 60.0 64.0 L 61.0 64.0 L 62.0 64.0 L 63.0 64.0 L 64.0 64.0 L 65.0 64.0 L 66.0 64.0 L 67.0 64.0 L 68.0 64.0 L 69.0 64.0 L 70.0 64.0 L 71.0 64.0 L 72.0 64.0 L 73.0 64.0 L 74.0 64.0 L 75.0 63.666666666666664 L 76.0 63.333333333333336 L 77.0 63.0 L 78.0 63.0 L 79.0 63.0 L 80.0 63.0 L 81.0 62.666666666666664 L 82.0 62.333333333333336 L 83.0 62.0 L 84.0 62.0 L 85.0 61.666666666666664 L 86.0 61.333333333333336 L 87.0 61.0 L 88.0 61.0 L 89.0 60.666666666666664 L 90.0 60.333333333333336 L 91.0 60.0 L 92.0 59.666666666666664 L 93.0 59.333333333333336 L 94.0 59.0 L 95.0 58.666666666666664 L 96.0 58.333333333333336 L 97.0 57.666666666666664 L 98.0 57.333333333333336 L 99.0 57.0 L 100.0 56.666666666666664 L 101.0 56.333333333333336 L 102.0 55.666666666666664 L 103.0 55.333333333333336 L 104.0 54.666666666666664 L 104.5 54.5 Z" stroke="none" fill="rgb(124,197,39)" />
<path d="M 59.5 67.0 L 60.0 67.0 L 61.0 67.0 L 62.0 67.0 L 63.0 67.0 L 64.0 67.0 L 65.0 67.0 L 66.0 67.0 L 67.0 67.0 L 68.0 67.0 L 69.0 67.0 L 70.0 66.66666666666667 L 71.0 66.33333333333333 L 72.0 66.0 L 73.0 66.0 L 74.0 66.0 L 75.0 66.0 L 76.0 66.0 L 77.0 66.0 L 78.0 65.66666666666667 L 79.0 65.33333333333333 L 80.0 65.0 L 81.0 65.0 L 82.0 65.0 L 83.0 64.66666666666667 L 84.0 64.33333333333333 L 85.0 64.0 L 86.0 64.0 L 87.0 63.666666666666664 L 88.0 63.333333333333336 L 89.0 63.0 L 90.0 62.666666666666664 L 91.0 62.333333333333336 L 92.0 62.0 L 93.0 61.666666666666664 L 94.0 61.333333333333336 L 95.0 61.0 L 96.0 60.666666666666664 L 97.0 60.333333333333336 L 98.0 60.0 L 99.0 59.666666666666664 L 100.0 59.333333333333336 L 101.0 58.666666666666664 L 102.0 58.333333333333336 L 103.0 57.666666666666664 L 104.0 57.333333333333336 L 105.0 56.666666666666664 L 106.0 56.333333333333336 L 107.0 55.666666666666664 L 108.0 55.333333333333336 L 108.66666666666667 54.666666666666664 L 109.0 54.0 L 108.66666666666667 53.0 L 108.0 52.333333333333336 L 107.0 52.333333333333336 L 106.0 53.0 L 105.0 53.666666666666664 L 104.0 54.333333333333336 L 103.0 54.666666666666664 L 102.0 55.333333333333336 L 101.0 55.666666666666664 L 100.0 56.333333333333336 L 99.0 56.666666666666664 L 98.0 57.0 L 97.0 57.333333333333336 L 96.0 57.666666666666664 L 95.0 58.333333333333336 L 94.0 58.666666666666664 L 93.0 59.0 L 92.0 59.333333333333336 L 91.0 59.666666666666664 L 90.0 60.0 L 89.0 60.333333333333336 L 88.0 60.666666666666664 L 87.0 61.0 L 86.0 61.0 L 85.0 61.333333333333336 L 84.0 61.666666666666664 L 83.0 62.0 L 82.0 62.0 L 81.0 62.333333333333336 L 80.0 62.666666666666664 L 79.0 63.0 L 78.0 63.0 L 77.0 63.0 L 76.0 63.0 L 75.0 63.333333333333336 L 74.0 63.666666666666664 L 73.0 64.0 L 72.0 64.0 L 71.0 64.0 L 70.0 64.0 L 69.0 64.0 L 68.0 64.0 L 67.0 64.0 L 66.0 64.0 L 65.0 64.0 L 64.0 64.0 L 63.0 64.0 L 62.0 64.0 L 61.0 64.0 L 60.0 64.0 L 59.0 64.0 L 58.0 64.0 L 57.0 64.0 L 56.0 64.0 L 55.0 64.0 L 54.0 64.0 L 53.0 64.0 L 52.0 64.0 L 51.0 64.0 L 50.0 63.666666666666664 L 49.0 63.333333333333336 L 48.0 63.0 L 47.0 63.0 L 46.0 63.0 L 45.0 62.666666666666664 L 44.0 62.333333333333336 L 43.0 62.0 L 42.0 62.0 L 41.0 62.0 L 40.0 61.666666666666664 L 39.0 61.333333333333336 L 38.0 61.0 L 37.0 60.666666666666664 L 36.0 60.333333333333336 L 35.0 60.0 L 34.0 59.666666666666664 L 33.0 59.333333333333336 L 32.0 59.0 L 31.0 58.666666666666664 L 30.0 58.333333333333336 L 29.0 58.0 L 28.0 57.666666666666664 L 27.0 57.333333333333336 L 26.0 56.666666666666664 L 25.0 56.333333333333336 L 24.0 55.666666666666664 L 23.0 55.333333333333336 L 22.0 54.666666666666664 L 21.0 54.333333333333336 L 20.0 53.666666666666664 L 19.0 53.333333333333336 L 18.0 52.666666666666664 L 17.0 52.333333333333336 L 16.0 51.666666666666664 L 15.0 51.0 L 14.0 50.333333333333336 L 13.0 49.666666666666664 L 12.0 49.0 L 11.0 48.333333333333336 L 10.0 48.333333333333336 L 9.333333333333334 49.0 L 9.0 50.0 L 9.333333333333334 50.666666666666664 L 10.0 51.333333333333336 L 11.0 52.0 L 12.0 52.666666666666664 L 13.0 53.333333333333336 L 14.0 53.666666666666664 L 15.0 54.333333333333336 L 16.0 55.0 L 17.0 55.666666666666664 L 18.0 56.333333333333336 L 19.0 56.666666666666664 L 20.0 57.333333333333336 L 21.0 57.666666666666664 L 22.0 58.0 L 23.0 58.333333333333336 L 24.0 58.666666666666664 L 25.0 59.333333333333336 L 26.0 59.666666666666664 L 27.0 60.333333333333336 L 28.0 60.666666666666664 L 29.0 61.0 L 30.0 61.333333333333336 L 31.0 61.666666666666664 L 32.0 62.0 L 33.0 62.333333333333336 L 34.0 62.666666666666664 L 35.0 63.0 L 36.0 63.0 L 37.0 63.333333333333336 L 38.0 63.666666666666664 L 39.0 64.0 L 40.0 64.0 L 41.0 64.33333333333333 L 42.0 64.66666666666667 L 43.0 65.0 L 44.0 65.0 L 45.0 65.0 L 46.0 65.33333333333333 L 47.0 65.66666666666667 L 48.0 66.0 L 49.0 66.0 L 50.0 66.0 L 51.0 66.0 L 52.0 66.0 L 53.0 66.33333333333333 L 54.0 66.66666666666667 L 55.0 67.0 L 56.0 67.0 L 57.0 67.0 L 58.0 67.0 L 58.5 67.0 Z" stroke="none" fill="rgb(115,195,41)" />
<path d="M 59.5 69.0 L 60.0 69.0 L 61.0 69.0 L 62.0 69.0 L 63.0 69.0 L 64.0 69.0 L 65.0 69.0 L 66.0 69.0 L 67.0 69.0 L 68.0 69.0 L 69.0 69.0 L 70.0 69.0 L 71.0 69.0 L 72.0 69.0 L 73.0 68.66666666666667 L 74.0 68.33333333333333 L 75.0 68.0 L 76.0 68.0 L 77.0 68.0 L 78.0 68.0 L 79.0 68.0 L 80.0 67.66666666666667 L 81.0 67.33333333333333 L 82.0 67.0 L 83.0 67.0 L 84.0 66.66666666666667 L 85.0 66.33333333333333 L 86.0 66.0 L 87.0 66.0 L 88.0 65.66666666666667 L 89.0 65.33333333333333 L 90.0 65.0 L 91.0 65.0 L 92.0 64.66666666666667 L 93.0 64.33333333333333 L 94.0 64.0 L 95.0 63.666666666666664 L 96.0 63.333333333333336 L 97.0 62.666666666666664 L 98.0 62.333333333333336 L 99.0 62.0 L 100.0 61.666666666666664 L 101.0 61.333333333333336 L 102.0 60.666666666666664 L 103.0 60.333333333333336 L 104.0 59.666666666666664 L 105.0 59.333333333333336 L 106.0 58.666666666666664 L 107.0 58.333333333333336 L 108.0 57.666666666666664 L 109.0 57.333333333333336 L 110.0 56.666666666666664 L 110.66666666666667 56.0 L 110.66666666666667 55.0 L 110.0 54.333333333333336 L 109.0 54.333333333333336 L 108.0 54.666666666666664 L 107.0 55.333333333333336 L 106.0 55.666666666666664 L 105.0 56.333333333333336 L 104.0 56.666666666666664 L 103.0 57.333333333333336 L 102.0 57.666666666666664 L 101.0 58.333333333333336 L 100.0 58.666666666666664 L 99.0 59.333333333333336 L 98.0 59.666666666666664 L 97.0 60.0 L 96.0 60.333333333333336 L 95.0 60.666666666666664 L 94.0 61.0 L 93.0 61.333333333333336 L 92.0 61.666666666666664 L 91.0 62.0 L 90.0 62.333333333333336 L 89.0 62.666666666666664 L 88.0 63.0 L 87.0 63.333333333333336 L 86.0 63.666666666666664 L 85.0 64.0 L 84.0 64.0 L 83.0 64.33333333333333 L 82.0 64.66666666666667 L 81.0 65.0 L 80.0 65.0 L 79.0 65.0 L 78.0 65.33333333333333 L 77.0 65.66666666666667 L 76.0 66.0 L 75.0 66.0 L 74.0 66.0 L 73.0 66.0 L 72.0 66.0 L 71.0 66.0 L 70.0 66.33333333333333 L 69.0 66.66666666666667 L 68.0 67.0 L 67.0 67.0 L 66.0 67.0 L 65.0 67.0 L 64.0 67.0 L 63.0 67.0 L 62.0 67.0 L 61.0 67.0 L 60.0 67.0 L 59.0 67.0 L 58.0 67.0 L 57.0 67.0 L 56.0 67.0 L 55.0 66.66666666666667 L 54.0 66.33333333333333 L 53.0 66.0 L 52.0 66.0 L 51.0 66.0 L 50.0 66.0 L 49.0 66.0 L 48.0 65.66666666666667 L 47.0 65.33333333333333 L 46.0 65.0 L 45.0 65.0 L 44.0 65.0 L 43.0 64.66666666666667 L 42.0 64.33333333333333 L 41.0 64.0 L 40.0 64.0 L 39.0 63.666666666666664 L 38.0 63.333333333333336 L 37.0 63.0 L 36.0 63.0 L 35.0 62.666666666666664 L 34.0 62.333333333333336 L 33.0 62.0 L 32.0 61.666666666666664 L 31.0 61.333333333333336 L 30.0 61.0 L 29.0 60.666666666666664 L 28.0 60.333333333333336 L 27.0 59.666666666666664 L 26.0 59.333333333333336 L 25.0 58.666666666666664 L 24.0 58.333333333333336 L 23.0 58.0 L 22.0 57.666666666666664 L 21.0 57.333333333333336 L 20.0 56.666666666666664 L 19.0 56.333333333333336 L 18.0 55.666666666666664 L 17.0 55.0 L 16.0 54.333333333333336 L 15.0 53.666666666666664 L 14.0 53.333333333333336 L 13.0 52.666666666666664 L 12.0 52.0 L 11.0 51.333333333333336 L 10.0 50.666666666666664 L 9.0 50.333333333333336 L 8.0 50.333333333333336 L 7.333333333333333 51.0 L 7.333333333333333 52.0 L 8.0 52.666666666666664 L 9.0 53.333333333333336 L 10.0 54.0 L 11.0 54.666666666666664 L 12.0 55.333333333333336 L 13.0 55.666666666666664 L 14.0 56.333333333333336 L 15.0 57.0 L 16.0 57.666666666666664 L 17.0 58.333333333333336 L 18.0 58.666666666666664 L 19.0 59.333333333333336 L 20.0 59.666666666666664 L 21.0 60.0 L 22.0 60.333333333333336 L 23.0 60.666666666666664 L 24.0 61.333333333333336 L 25.0 61.666666666666664 L 26.0 62.333333333333336 L 27.0 62.666666666666664 L 28.0 63.0 L 29.0 63.333333333333336 L 30.0 63.666666666666664 L 31.0 64.0 L 32.0 64.33333333333333 L 33.0 64.66666666666667 L 34.0 65.0 L 35.0 65.33333333333333 L 36.0 65.66666666666667 L 37.0 66.0 L 38.0 66.0 L 39.0 66.33333333333333 L 40.0 66.66666666666667 L 41.0 67.0 L 42.0 67.0 L 43.0 67.0 L 44.0 67.33333333333333 L 45.0 67.66666666666667 L 46.0 68.0 L 47.0 68.0 L 48.0 68.0 L 49.0 68.0 L 50.0 68.0 L 51.0 68.33333333333333 L 52.0 68.66666666666667 L 53.0 69.0 L 54.0 69.0 L 55.0 69.0 L 56.0 69.0 L 57.0 69.0 L 58.0 69.0 L 58.5 69.0 Z" stroke="none" fill="rgb(106,193,44)" />
<path d="M 55.5 71.0 L 56.0 71.0 L 57.0 71.0 L 58.0 71.0 L 59.0 71.0 L 60.0 71.0 L 61.0 71.0 L 62.0 71.0 L 63.0 71.0 L 64.0 71.0 L 65.0 71.0 L 66.0 71.0 L 67.0 71.0 L 68.0 71.0 L 69.0 71.0 L 70.0 71.0 L 71.0 71.0 L 72.0 71.0 L 73.0 71.0 L 74.0 71.0 L 75.0 71.0 L 76.0 70.66666666666667 L 77.0 70.33333333333333 L 78.0 70.0 L 79.0 70.0 L 80.0 70.0 L 81.0 70.0 L 82.0 69.66666666666667 L 83.0 69.33333333333333 L 84.0 69.0 L 85.0 69.0 L 86.0 68.66666666666667 L 87.0 68.33333333333333 L 88.0 68.0 L 89.0 68.0 L 90.0 67.66666666666667 L 91.0 67.33333333333333 L 92.0 67.0 L 93.0 66.66666666666667 L 94.0 66.33333333333333 L 95.0 66.0 L 96.0 65.66666666666667 L 97.0 65.33333333333333 L 98.0 65.0 L 99.0 64.66666666666667 L 100.0 64.33333333333333 L 101.0 63.666666666666664 L 102.0 63.333333333333336 L 103.0 62.666666666666664 L 104.0 62.333333333333336 L 105.0 62.0 L 106.0 61.666666666666664 L 107.0 61.333333333333336 L 108.0 60.666666666666664 L 109.0 60.0 L 110.0 59.333333333333336 L 111.0 58.666666666666664 L 111.66666666666667 58.0 L 111.66666666666667 57.0 L 111.0 56.333333333333336 L 110.0 56.333333333333336 L 109.0 56.666666666666664 L 108.0 57.333333333333336 L 107.0 57.666666666666664 L 106.0 58.333333333333336 L 105.0 58.666666666666664 L 104.0 59.333333333333336 L 103.0 59.666666666666664 L 102.0 60.333333333333336 L 101.0 60.666666666666664 L 100.0 61.333333333333336 L 99.0 61.666666666666664 L 98.0 62.0 L 97.0 62.333333333333336 L 96.0 62.666666666666664 L 95.0 63.333333333333336 L 94.0 63.666666666666664 L 93.0 64.0 L 92.0 64.33333333333333 L 91.0 64.66666666666667 L 90.0 65.0 L 89.0 65.0 L 88.0 65.33333333333333 L 87.0 65.66666666666667 L 86.0 66.0 L 85.0 66.0 L 84.0 66.33333333333333 L 83.0 66.66666666666667 L 82.0 67.0 L 81.0 67.0 L 80.0 67.33333333333333 L 79.0 67.66666666666667 L 78.0 68.0 L 77.0 68.0 L 76.0 68.0 L 75.0 68.0 L 74.0 68.0 L 73.0 68.33333333333333 L 72.0 68.66666666666667 L 71.0 69.0 L 70.0 69.0 L 69.0 69.0 L 68.0 69.0 L 67.0 69.0 L 66.0 69.0 L 65.0 69.0 L 64.0 69.0 L 63.0 69.0 L 62.0 69.0 L 61.0 69.0 L 60.0 69.0 L 59.0 69.0 L 58.0 69.0 L 57.0 69.0 L 56.0 69.0 L 55.0 69.0 L 54.0 69.0 L 53.0 68.66666666666667 L 52.0 68.33333333333333 L 51.0 68.0 L 50.0 68.0 L 49.0 68.0 L 48.0 68.0 L 47.0 68.0 L 46.0 67.66666666666667 L 45.0 67.33333333333333 L 44.0 67.0 L 43.0 67.0 L 42.0 67.0 L 41.0 66.66666666666667 L 40.0 66.33333333333333 L 39.0 66.0 L 38.0 66.0 L 37.0 65.66666666666667 L 36.0 65.33333333333333 L 35.0 65.0 L 34.0 64.66666666666667 L 33.0 64.33333333333333 L 32.0 64.0 L 31.0 63.666666666666664 L 30.0 63.333333333333336 L 29.0 63.0 L 28.0 62.666666666666664 L 27.0 62.333333333333336 L 26.0 61.666666666666664 L 25.0 61.333333333333336 L 24.0 60.666666666666664 L 23.0 60.333333333333336 L 22.0 60.0 L 21.0 59.666666666666664 L 20.0 59.333333333333336 L 19.0 58.666666666666664 L 18.0 58.333333333333336 L 17.0 57.666666666666664 L 16.0 57.0 L 15.0 56.333333333333336 L 14.0 55.666666666666664 L 13.0 55.333333333333336 L 12.0 54.666666666666664 L 11.0 54.0 L 10.0 53.333333333333336 L 9.0 52.666666666666664 L 8.0 52.333333333333336 L 7.0 52.333333333333336 L 6.333333333333333 53.0 L 6.0 54.0 L 6.0 55.0 L 6.333333333333333 56.0 L 7.0 57.0 L 8.0 58.0 L 9.0 58.666666666666664 L 9.666666666666666 58.666666666666664 L 10.333333333333334 58.0 L 11.0 57.666666666666664 L 12.0 58.0 L 13.0 58.666666666666664 L 14.0 59.333333333333336 L 15.0 59.666666666666664 L 16.0 60.333333333333336 L 17.0 60.666666666666664 L 18.0 61.333333333333336 L 19.0 61.666666666666664 L 20.0 62.333333333333336 L 21.0 62.666666666666664 L 22.0 63.333333333333336 L 23.0 63.666666666666664 L 24.0 64.0 L 25.0 64.33333333333333 L 26.0 64.66666666666667 L 27.0 65.0 L 28.0 65.33333333333333 L 29.0 65.66666666666667 L 30.0 66.0 L 31.0 66.33333333333333 L 32.0 66.66666666666667 L 33.0 67.0 L 34.0 67.33333333333333 L 35.0 67.66666666666667 L 36.0 68.0 L 37.0 68.0 L 38.0 68.33333333333333 L 39.0 68.66666666666667 L 40.0 69.0 L 41.0 69.0 L 42.0 69.33333333333333 L 43.0 69.66666666666667 L 44.0 70.0 L 45.0 70.0 L 46.0 70.0 L 47.0 70.0 L 48.0 70.33333333333333 L 49.0 70.66666666666667 L 50.0 71.0 L 51.0 71.0 L 52.0 71.0 L 53.0 71.0 L 54.0 71.0 L 54.5 71.0 Z" stroke="none" fill="rgb(97,191,46)" />
<path d="M 8.5 62.5 L 9.0 63.0 L 9.666666666666666 64.0 L 10.333333333333334 65.0 L 11.0 66.0 L 12.0 67.0 L 13.0 68.0 L 14.0 69.0 L 15.0 70.0 L 16.0 71.0 L 17.0 72.0 L 18.0 73.0 L 19.0 74.0 L 20.0 75.0 L 21.0 76.0 L 22.0 77.0 L 23.0 78.0 L 24.0 79.0 L 24.666666666666668 80.0 L 25.333333333333332 81.0 L 26.0 82.0 L 27.0 82.66666666666667 L 28.0 83.0 L 28.666666666666668 82.66666666666667 L 29.333333333333332 82.0 L 29.666666666666668 81.0 L 29.666666666666668 80.0 L 29.0 79.0 L 28.333333333333332 78.0 L 27.666666666666668 77.0 L 27.0 76.0 L 26.0 75.0 L 25.0 74.0 L 24.0 73.0 L 23.0 72.0 L 22.0 71.0 L 21.0 70.0 L 20.0 69.0 L 19.0 68.0 L 18.0 67.0 L 17.0 66.0 L 16.0 65.0 L 15.0 64.0 L 14.0 63.0 L 13.0 62.0 L 12.0 61.0 L 11.0 60.0 L 10.0 59.0 L 9.0 58.0 L 8.0 57.0 L 7.0 56.333333333333336 L 6.0 56.0 L 5.333333333333333 56.333333333333336 L 5.0 57.0 L 5.0 58.0 L 5.333333333333333 59.0 L 6.0 60.0 L 7.0 61.0 L 7.5 61.5 Z" stroke="none" fill="rgb(176,176,175)" />
<path d="M 38.5 71.0 L 39.0 71.0 L 40.0 71.0 L 41.0 71.33333333333333 L 42.0 71.66666666666667 L 43.0 72.0 L 44.0 72.0 L 45.0 72.0 L 46.0 72.33333333333333 L 47.0 72.66666666666667 L 48.0 73.0 L 49.0 73.0 L 50.0 73.0 L 51.0 73.0 L 52.0 73.0 L 53.0 73.0 L 54.0 73.0 L 55.0 73.0 L 56.0 73.33333333333333 L 57.0 73.66666666666667 L 58.0 74.0 L 59.0 74.0 L 60.0 74.0 L 61.0 74.0 L 62.0 74.0 L 63.0 74.0 L 64.0 74.0 L 65.0 74.0 L 66.0 74.0 L 67.0 74.0 L 68.0 73.66666666666667 L 69.0 73.33333333333333 L 70.0 73.0 L 71.0 73.0 L 72.0 73.0 L 73.0 73.0 L 74.0 73.0 L 75.0 73.0 L 76.0 73.0 L 77.0 72.66666666666667 L 78.0 72.33333333333333 L 79.0 72.0 L 80.0 72.0 L 81.0 72.33333333333333 L 82.0 72.66666666666667 L 83.0 73.0 L 84.0 72.66666666666667 L 85.0 72.33333333333333 L 86.0 71.66666666666667 L 87.0 71.33333333333333 L 88.0 71.0 L 89.0 71.0 L 90.0 71.0 L 90.66666666666667 70.66666666666667 L 91.33333333333333 70.0 L 92.0 69.33333333333333 L 93.0 69.0 L 94.0 68.66666666666667 L 95.0 68.33333333333333 L 96.0 68.0 L 97.0 67.66666666666667 L 98.0 67.33333333333333 L 99.0 67.0 L 100.0 66.66666666666667 L 101.0 66.33333333333333 L 102.0 65.66666666666667 L 103.0 65.33333333333333 L 104.0 64.66666666666667 L 105.0 64.33333333333333 L 106.0 64.0 L 107.0 63.666666666666664 L 108.0 63.333333333333336 L 109.0 62.666666666666664 L 110.0 62.333333333333336 L 111.0 61.666666666666664 L 112.0 61.0 L 113.0 60.333333333333336 L 113.66666666666667 59.666666666666664 L 113.66666666666667 59.0 L 113.0 58.333333333333336 L 112.0 58.0 L 111.0 58.333333333333336 L 110.0 58.666666666666664 L 109.0 59.333333333333336 L 108.0 60.0 L 107.0 60.666666666666664 L 106.0 61.333333333333336 L 105.0 61.666666666666664 L 104.0 62.0 L 103.0 62.333333333333336 L 102.0 62.666666666666664 L 101.0 63.333333333333336 L 100.0 63.666666666666664 L 99.0 64.33333333333333 L 98.0 64.66666666666667 L 97.0 65.0 L 96.0 65.33333333333333 L 95.0 65.66666666666667 L 94.0 66.0 L 93.0 66.33333333333333 L 92.0 66.66666666666667 L 91.0 67.0 L 90.0 67.33333333333333 L 89.0 67.66666666666667 L 88.0 68.0 L 87.0 68.0 L 86.0 68.33333333333333 L 85.0 68.66666666666667 L 84.0 69.0 L 83.0 69.0 L 82.0 69.33333333333333 L 81.0 69.66666666666667 L 80.0 70.0 L 79.0 70.0 L 78.0 70.0 L 77.0 70.0 L 76.0 70.33333333333333 L 75.0 70.66666666666667 L 74.0 71.0 L 73.0 71.0 L 72.0 71.0 L 71.0 71.0 L 70.0 71.0 L 69.0 71.0 L 68.0 71.0 L 67.0 71.0 L 66.0 71.0 L 65.0 71.0 L 64.0 71.0 L 63.0 71.0 L 62.0 71.0 L 61.0 71.0 L 60.0 71.0 L 59.0 71.0 L 58.0 71.0 L 57.0 71.0 L 56.0 71.0 L 55.0 71.0 L 54.0 71.0 L 53.0 71.0 L 52.0 71.0 L 51.0 71.0 L 50.0 70.66666666666667 L 49.0 70.33333333333333 L 48.0 70.0 L 47.0 70.0 L 46.0 70.0 L 45.0 70.0 L 44.0 69.66666666666667 L 43.0 69.33333333333333 L 42.0 69.0 L 41.0 69.0 L 40.0 68.66666666666667 L 39.0 68.33333333333333 L 38.0 68.0 L 37.0 68.0 L 36.0 67.66666666666667 L 35.0 67.33333333333333 L 34.0 67.0 L 33.0 66.66666666666667 L 32.0 66.33333333333333 L 31.0 66.0 L 30.0 65.66666666666667 L 29.0 65.33333333333333 L 28.0 65.0 L 27.0 64.66666666666667 L 26.0 64.33333333333333 L 25.0 64.0 L 24.0 63.666666666666664 L 23.0 63.333333333333336 L 22.0 62.666666666666664 L 21.0 62.333333333333336 L 20.0 61.666666666666664 L 19.0 61.333333333333336 L 18.0 60.666666666666664 L 17.0 60.333333333333336 L 16.0 59.666666666666664 L 15.0 59.333333333333336 L 14.0 58.666666666666664 L 13.0 58.0 L 12.0 57.333333333333336 L 11.0 57.0 L 10.333333333333334 57.333333333333336 L 10.0 58.0 L 10.0 59.0 L 10.333333333333334 60.0 L 11.0 61.0 L 12.0 62.0 L 13.0 62.666666666666664 L 14.0 62.666666666666664 L 15.0 62.666666666666664 L 16.0 62.666666666666664 L 17.0 63.333333333333336 L 18.0 63.666666666666664 L 19.0 64.33333333333333 L 20.0 64.66666666666667 L 21.0 65.33333333333333 L 22.0 65.66666666666667 L 23.0 66.0 L 24.0 66.33333333333333 L 25.0 66.66666666666667 L 26.0 67.0 L 27.0 67.33333333333333 L 28.0 67.66666666666667 L 29.0 68.33333333333333 L 30.0 68.66666666666667 L 31.0 69.0 L 32.0 69.0 L 33.0 69.33333333333333 L 34.0 69.66666666666667 L 35.0 70.0 L 36.0 70.33333333333333 L 37.0 70.66666666666667 L 37.5 71.0 Z" stroke="none" fill="rgb(87,189,49)" />
<path d="M 103.5 67.5 L 104.0 67.33333333333333 L 105.0 66.66666666666667 L 106.0 66.33333333333333 L 107.0 65.66666666666667 L 108.0 65.33333333333333 L 109.0 64.66666666666667 L 110.0 64.33333333333333 L 111.0 63.666666666666664 L 112.0 63.333333333333336 L 113.0 62.666666666666664 L 114.0 62.333333333333336 L 114.66666666666667 61.666666666666664 L 115.0 61.0 L 114.66666666666667 60.333333333333336 L 114.0 60.0 L 113.0 60.0 L 112.0 60.333333333333336 L 111.0 61.0 L 110.0 61.666666666666664 L 109.0 62.333333333333336 L 108.0 62.666666666666664 L 107.0 63.333333333333336 L 106.0 63.666666666666664 L 105.0 64.0 L 104.0 64.33333333333333 L 103.0 64.66666666666667 L 102.0 65.33333333333333 L 101.0 65.66666666666667 L 100.0 66.33333333333333 L 99.0 66.66666666666667 L 98.0 67.0 L 97.0 67.33333333333333 L 96.0 67.66666666666667 L 95.0 68.0 L 94.0 68.33333333333333 L 93.0 68.66666666666667 L 92.0 69.0 L 91.33333333333333 69.33333333333333 L 91.0 70.0 L 91.33333333333333 71.0 L 92.0 71.66666666666667 L 93.0 72.0 L 94.0 71.66666666666667 L 95.0 71.0 L 96.0 70.33333333333333 L 97.0 70.0 L 98.0 69.66666666666667 L 99.0 69.33333333333333 L 100.0 69.0 L 101.0 68.66666666666667 L 102.0 68.33333333333333 L 102.5 68.0 Z" stroke="none" fill="rgb(77,187,51)" />
<path d="M 116.5 63.5 L 116.66666666666667 63.0 L 116.66666666666667 62.0 L 116.0 61.333333333333336 L 115.0 61.333333333333336 L 114.0 61.666666666666664 L 113.0 62.333333333333336 L 112.0 62.666666666666664 L 111.0 63.333333333333336 L 110.0 63.666666666666664 L 109.0 64.33333333333333 L 108.0 64.66666666666667 L 107.0 65.33333333333333 L 106.0 65.66666666666667 L 105.0 66.33333333333333 L 104.0 66.66666666666667 L 103.0 67.33333333333333 L 102.0 67.66666666666667 L 101.0 68.33333333333333 L 100.0 68.66666666666667 L 99.0 69.0 L 98.0 69.33333333333333 L 97.0 69.66666666666667 L 96.0 70.0 L 95.0 70.33333333333333 L 94.33333333333333 71.0 L 94.0 72.0 L 94.33333333333333 72.66666666666667 L 95.0 73.0 L 96.0 72.66666666666667 L 97.0 72.33333333333333 L 98.0 71.66666666666667 L 99.0 71.33333333333333 L 100.0 71.0 L 101.0 70.66666666666667 L 102.0 70.33333333333333 L 103.0 70.0 L 104.0 69.66666666666667 L 105.0 69.33333333333333 L 106.0 68.66666666666667 L 107.0 68.33333333333333 L 108.0 67.66666666666667 L 109.0 67.33333333333333 L 110.0 66.66666666666667 L 111.0 66.33333333333333 L 112.0 65.66666666666667 L 113.0 65.33333333333333 L 114.0 64.66666666666667 L 115.0 64.33333333333333 L 115.5 64.0 Z" stroke="none" fill="rgb(67,185,54)" />
<path d="M 51.5 75.0 L 52.0 75.0 L 53.0 75.0 L 54.0 75.33333333333333 L 55.0 75.66666666666667 L 56.0 76.0 L 57.0 76.0 L 58.0 76.0 L 59.0 76.0 L 60.0 76.0 L 61.0 76.0 L 62.0 76.0 L 63.0 76.0 L 64.0 76.0 L 65.0 76.0 L 66.0 76.0 L 67.0 76.0 L 68.0 76.0 L 69.0 76.0 L 70.0 75.66666666666667 L 71.0 75.33333333333333 L 72.0 75.0 L 73.0 75.0 L 74.0 75.0 L 75.0 75.0 L 76.0 75.0 L 77.0 75.0 L 78.0 75.0 L 79.0 75.0 L 80.0 75.0 L 81.0 75.0 L 82.0 74.66666666666667 L 82.66666666666667 74.0 L 82.66666666666667 73.0 L 82.0 72.33333333333333 L 81.0 72.0 L 80.0 72.0 L 79.0 72.0 L 78.0 72.0 L 77.0 72.33333333333333 L 76.0 72.66666666666667 L 75.0 73.0 L 74.0 73.0 L 73.0 73.0 L 72.0 73.0 L 71.0 73.0 L 70.0 73.0 L 69.0 73.0 L 68.0 73.33333333333333 L 67.0 73.66666666666667 L 66.0 74.0 L 65.0 74.0 L 64.0 74.0 L 63.0 74.0 L 62.0 74.0 L 61.0 74.0 L 60.0 74.0 L 59.0 74.0 L 58.0 73.66666666666667 L 57.0 73.33333333333333 L 56.0 73.0 L 55.0 73.0 L 54.0 73.0 L 53.0 73.0 L 52.0 73.0 L 51.0 73.0 L 50.0 73.0 L 49.0 73.0 L 48.0 72.66666666666667 L 47.0 72.33333333333333 L 46.0 72.0 L 45.0 72.0 L 44.0 72.0 L 43.0 71.66666666666667 L 42.0 71.33333333333333 L 41.0 71.0 L 40.0 71.0 L 39.0 71.0 L 38.0 70.66666666666667 L 37.0 70.33333333333333 L 36.0 70.0 L 35.0 69.66666666666667 L 34.0 69.33333333333333 L 33.0 69.0 L 32.0 69.0 L 31.0 68.66666666666667 L 30.0 68.33333333333333 L 29.0 67.66666666666667 L 28.0 67.33333333333333 L 27.0 67.0 L 26.0 66.66666666666667 L 25.0 66.33333333333333 L 24.0 66.0 L 23.0 65.66666666666667 L 22.0 65.33333333333333 L 21.0 64.66666666666667 L 20.0 64.33333333333333 L 19.0 63.666666666666664 L 18.0 63.333333333333336 L 17.0 62.666666666666664 L 16.0 62.333333333333336 L 15.0 62.0 L 14.333333333333334 62.333333333333336 L 14.0 63.0 L 14.333333333333334 64.0 L 15.0 65.0 L 16.0 66.0 L 17.0 67.0 L 18.0 67.66666666666667 L 19.0 67.66666666666667 L 20.0 67.33333333333333 L 21.0 67.33333333333333 L 22.0 67.66666666666667 L 23.0 68.33333333333333 L 24.0 68.66666666666667 L 25.0 69.0 L 26.0 69.33333333333333 L 27.0 69.66666666666667 L 28.0 70.0 L 29.0 70.33333333333333 L 30.0 70.66666666666667 L 31.0 71.0 L 32.0 71.33333333333333 L 33.0 71.66666666666667 L 34.0 72.0 L 35.0 72.33333333333333 L 36.0 72.66666666666667 L 37.0 73.0 L 38.0 73.0 L 39.0 73.0 L 40.0 73.33333333333333 L 41.0 73.66666666666667 L 42.0 74.0 L 43.0 74.0 L 44.0 74.0 L 45.0 74.33333333333333 L 46.0 74.66666666666667 L 47.0 75.0 L 48.0 75.0 L 49.0 75.0 L 50.0 75.0 L 50.5 75.0 Z" stroke="none" fill="rgb(77,187,51)" />
<path d="M 100.5 73.0 L 101.0 72.66666666666667 L 102.0 72.33333333333333 L 103.0 72.0 L 104.0 71.66666666666667 L 105.0 71.33333333333333 L 106.0 70.66666666666667 L 107.0 70.33333333333333 L 108.0 69.66666666666667 L 109.0 69.33333333333333 L 110.0 68.66666666666667 L 111.0 68.33333333333333 L 112.0 67.66666666666667 L 113.0 67.33333333333333 L 114.0 66.66666666666667 L 115.0 66.33333333333333 L 116.0 65.66666666666667 L 116.66666666666667 65.0 L 117.0 64.0 L 116.66666666666667 63.333333333333336 L 116.0 63.333333333333336 L 115.0 63.666666666666664 L 114.0 64.33333333333333 L 113.0 64.66666666666667 L 112.0 65.33333333333333 L 111.0 65.66666666666667 L 110.0 66.33333333333333 L 109.0 66.66666666666667 L 108.0 67.33333333333333 L 107.0 67.66666666666667 L 106.0 68.33333333333333 L 105.0 68.66666666666667 L 104.0 69.33333333333333 L 103.0 69.66666666666667 L 102.0 70.0 L 101.0 70.33333333333333 L 100.0 70.66666666666667 L 99.0 71.0 L 98.0 71.33333333333333 L 97.0 71.66666666666667 L 96.0 72.33333333333333 L 95.33333333333333 73.0 L 95.33333333333333 73.66666666666667 L 96.0 74.0 L 97.0 74.0 L 98.0 73.66666666666667 L 99.0 73.33333333333333 L 99.5 73.0 Z" stroke="none" fill="rgb(57,183,56)" />
<path d="M 110.5 71.0 L 111.0 70.66666666666667 L 112.0 70.33333333333333 L 113.0 69.66666666666667 L 114.0 69.33333333333333 L 115.0 68.66666666666667 L 116.0 68.0 L 117.0 67.33333333333333 L 118.0 66.66666666666667 L 118.66666666666667 66.0 L 119.0 65.0 L 118.66666666666667 64.33333333333333 L 118.0 64.0 L 117.0 64.33333333333333 L 116.0 65.0 L 115.0 65.66666666666667 L 114.0 66.33333333333333 L 113.0 66.66666666666667 L 112.0 67.33333333333333 L 111.0 67.66666666666667 L 110.0 68.33333333333333 L 109.0 68.66666666666667 L 108.0 69.33333333333333 L 107.0 69.66666666666667 L 106.0 70.33333333333333 L 105.0 70.66666666666667 L 104.0 71.33333333333333 L 103.0 71.66666666666667 L 102.0 72.0 L 101.0 72.33333333333333 L 100.0 72.66666666666667 L 99.0 73.0 L 98.0 73.33333333333333 L 97.0 73.66666666666667 L 96.33333333333333 74.33333333333333 L 96.0 75.0 L 96.33333333333333 75.66666666666667 L 97.0 76.0 L 98.0 76.0 L 99.0 75.66666666666667 L 100.0 75.33333333333333 L 101.0 75.0 L 102.0 74.66666666666667 L 103.0 74.33333333333333 L 104.0 73.66666666666667 L 105.0 73.33333333333333 L 106.0 72.66666666666667 L 107.0 72.33333333333333 L 108.0 72.0 L 109.0 71.66666666666667 L 109.5 71.5 Z" stroke="none" fill="rgb(47,181,59)" />
<path d="M 106.5 75.0 L 107.0 74.66666666666667 L 108.0 74.33333333333333 L 109.0 73.66666666666667 L 110.0 73.33333333333333 L 111.0 72.66666666666667 L 112.0 72.33333333333333 L 113.0 71.66666666666667 L 114.0 71.33333333333333 L 115.0 70.66666666666667 L 116.0 70.33333333333333 L 117.0 69.66666666666667 L 118.0 69.33333333333333 L 119.0 68.66666666666667 L 119.66666666666667 68.0 L 120.0 67.0 L 119.66666666666667 66.33333333333333 L 119.0 66.0 L 118.0 66.33333333333333 L 117.0 66.66666666666667 L 116.0 67.33333333333333 L 115.0 68.0 L 114.0 68.66666666666667 L 113.0 69.33333333333333 L 112.0 69.66666666666667 L 111.0 70.33333333333333 L 110.0 70.66666666666667 L 109.0 71.33333333333333 L 108.0 71.66666666666667 L 107.0 72.0 L 106.0 72.33333333333333 L 105.0 72.66666666666667 L 104.0 73.33333333333333 L 103.0 73.66666666666667 L 102.0 74.33333333333333 L 101.0 74.66666666666667 L 100.0 75.0 L 99.0 75.33333333333333 L 98.0 75.66666666666667 L 97.33333333333333 76.33333333333333 L 97.0 77.0 L 97.33333333333333 77.66666666666667 L 98.0 78.0 L 99.0 77.66666666666667 L 100.0 77.33333333333333 L 101.0 77.0 L 102.0 76.66666666666667 L 103.0 76.33333333333333 L 104.0 76.0 L 105.0 75.66666666666667 L 105.5 75.5 Z" stroke="none" fill="rgb(36,178,61)" />
<path d="M 42.5 76.0 L 43.0 76.0 L 44.0 76.33333333333333 L 45.0 76.66666666666667 L 46.0 77.0 L 47.0 77.0 L 48.0 77.0 L 49.0 77.0 L 50.0 77.0 L 51.0 77.0 L 52.0 77.0 L 53.0 77.33333333333333 L 54.0 77.66666666666667 L 55.0 78.0 L 56.0 78.0 L 57.0 78.0 L 58.0 78.0 L 59.0 78.0 L 60.0 78.0 L 61.0 78.0 L 62.0 78.0 L 63.0 78.0 L 64.0 78.0 L 65.0 78.0 L 66.0 78.0 L 67.0 78.0 L 68.0 78.0 L 69.0 78.0 L 70.0 78.0 L 71.0 77.66666666666667 L 72.0 77.33333333333333 L 73.0 77.0 L 74.0 77.0 L 75.0 77.0 L 76.0 77.0 L 77.0 77.33333333333333 L 78.0 77.66666666666667 L 79.0 77.66666666666667 L 80.0 77.0 L 80.66666666666667 76.0 L 80.66666666666667 75.0 L 80.0 74.33333333333333 L 79.0 74.33333333333333 L 78.0 74.66666666666667 L 77.0 75.0 L 76.0 75.0 L 75.0 75.0 L 74.0 75.0 L 73.0 75.0 L 72.0 75.0 L 71.0 75.0 L 70.0 75.33333333333333 L 69.0 75.66666666666667 L 68.0 76.0 L 67.0 76.0 L 66.0 76.0 L 65.0 76.0 L 64.0 76.0 L 63.0 76.0 L 62.0 76.0 L 61.0 76.0 L 60.0 76.0 L 59.0 76.0 L 58.0 76.0 L 57.0 76.0 L 56.0 75.66666666666667 L 55.0 75.33333333333333 L 54.0 75.0 L 53.0 75.0 L 52.0 75.0 L 51.0 75.0 L 50.0 75.0 L 49.0 75.0 L 48.0 75.0 L 47.0 74.66666666666667 L 46.0 74.33333333333333 L 45.0 74.0 L 44.0 74.0 L 43.0 74.0 L 42.0 73.66666666666667 L 41.0 73.33333333333333 L 40.0 73.0 L 39.0 73.0 L 38.0 73.0 L 37.0 72.66666666666667 L 36.0 72.33333333333333 L 35.0 72.0 L 34.0 71.66666666666667 L 33.0 71.33333333333333 L 32.0 71.0 L 31.0 70.66666666666667 L 30.0 70.33333333333333 L 29.0 70.0 L 28.0 69.66666666666667 L 27.0 69.33333333333333 L 26.0 69.0 L 25.0 68.66666666666667 L 24.0 68.33333333333333 L 23.0 67.66666666666667 L 22.0 67.33333333333333 L 21.0 67.0 L 20.0 67.0 L 19.333333333333332 67.33333333333333 L 19.0 68.0 L 19.333333333333332 69.0 L 20.0 70.0 L 21.0 70.66666666666667 L 22.0 70.66666666666667 L 23.0 70.66666666666667 L 24.0 70.66666666666667 L 25.0 71.33333333333333 L 26.0 71.66666666666667 L 27.0 72.0 L 28.0 72.33333333333333 L 29.0 72.66666666666667 L 30.0 73.0 L 31.0 73.33333333333333 L 32.0 73.66666666666667 L 33.0 74.0 L 34.0 74.0 L 35.0 74.33333333333333 L 36.0 74.66666666666667 L 37.0 75.0 L 38.0 75.0 L 39.0 75.33333333333333 L 40.0 75.66666666666667 L 41.0 76.0 L 41.5 76.0 Z" stroke="none" fill="rgb(67,185,54)" />
<path d="M 106.5 77.0 L 107.0 77.0 L 108.0 76.66666666666667 L 109.0 76.33333333333333 L 110.0 75.66666666666667 L 111.0 75.33333333333333 L 112.0 74.66666666666667 L 113.0 74.33333333333333 L 114.0 73.66666666666667 L 115.0 73.33333333333333 L 116.0 73.0 L 117.0 73.0 L 118.0 73.0 L 119.0 72.66666666666667 L 120.0 72.0 L 120.66666666666667 71.0 L 121.0 70.0 L 120.66666666666667 69.0 L 120.0 68.33333333333333 L 119.0 68.33333333333333 L 118.0 68.66666666666667 L 117.0 69.33333333333333 L 116.0 69.66666666666667 L 115.0 70.33333333333333 L 114.0 70.66666666666667 L 113.0 71.33333333333333 L 112.0 71.66666666666667 L 111.0 72.33333333333333 L 110.0 72.66666666666667 L 109.0 73.33333333333333 L 108.0 73.66666666666667 L 107.0 74.33333333333333 L 106.0 74.66666666666667 L 105.0 75.33333333333333 L 104.0 75.66666666666667 L 103.0 76.0 L 102.0 76.33333333333333 L 101.0 76.66666666666667 L 100.0 77.0 L 99.0 77.33333333333333 L 98.0 77.66666666666667 L 97.33333333333333 78.33333333333333 L 97.0 79.0 L 97.33333333333333 79.66666666666667 L 98.0 80.0 L 99.0 80.0 L 100.0 79.66666666666667 L 101.0 79.33333333333333 L 102.0 79.0 L 103.0 78.66666666666667 L 104.0 78.33333333333333 L 105.0 77.66666666666667 L 105.5 77.5 Z" stroke="none" fill="rgb(25,176,64)" />
<path d="M 59.5 80.0 L 60.0 80.0 L 61.0 80.0 L 62.0 80.0 L 63.0 80.0 L 64.0 80.0 L 65.0 80.0 L 66.0 80.0 L 67.0 80.0 L 68.0 80.0 L 69.0 80.0 L 70.0 80.0 L 71.0 79.66666666666667 L 72.0 79.33333333333333 L 73.0 79.0 L 74.0 79.0 L 75.0 79.33333333333333 L 76.0 79.66666666666667 L 77.0 79.66666666666667 L 77.66666666666667 79.0 L 78.0 78.0 L 77.66666666666667 77.33333333333333 L 77.0 77.0 L 76.0 77.0 L 75.0 77.0 L 74.0 77.0 L 73.0 77.0 L 72.0 77.0 L 71.0 77.33333333333333 L 70.0 77.66666666666667 L 69.0 78.0 L 68.0 78.0 L 67.0 78.0 L 66.0 78.0 L 65.0 78.0 L 64.0 78.0 L 63.0 78.0 L 62.0 78.0 L 61.0 78.0 L 60.0 78.0 L 59.0 78.0 L 58.0 78.0 L 57.0 78.0 L 56.0 78.0 L 55.0 77.66666666666667 L 54.0 77.33333333333333 L 53.0 77.0 L 52.0 77.0 L 51.0 77.0 L 50.0 77.0 L 49.0 77.0 L 48.0 77.0 L 47.0 77.0 L 46.0 76.66666666666667 L 45.0 76.33333333333333 L 44.0 76.0 L 43.0 76.0 L 42.0 76.0 L 41.0 75.66666666666667 L 40.0 75.33333333333333 L 39.0 75.0 L 38.0 75.0 L 37.0 74.66666666666667 L 36.0 74.33333333333333 L 35.0 74.0 L 34.0 74.0 L 33.0 73.66666666666667 L 32.0 73.33333333333333 L 31.0 73.0 L 30.0 72.66666666666667 L 29.0 72.33333333333333 L 28.0 72.0 L 27.0 71.66666666666667 L 26.0 71.33333333333333 L 25.0 70.66666666666667 L 24.0 70.33333333333333 L 23.0 70.0 L 22.333333333333332 70.33333333333333 L 22.0 71.0 L 22.333333333333332 72.0 L 23.0 73.0 L 24.0 74.0 L 25.0 74.66666666666667 L 26.0 74.66666666666667 L 27.0 74.33333333333333 L 28.0 74.33333333333333 L 29.0 74.66666666666667 L 30.0 75.0 L 31.0 75.33333333333333 L 32.0 75.66666666666667 L 33.0 76.0 L 34.0 76.0 L 35.0 76.33333333333333 L 36.0 76.66666666666667 L 37.0 77.0 L 38.0 77.0 L 39.0 77.33333333333333 L 40.0 77.66666666666667 L 41.0 78.0 L 42.0 78.0 L 43.0 78.0 L 44.0 78.0 L 45.0 78.33333333333333 L 46.0 78.66666666666667 L 47.0 79.0 L 48.0 79.0 L 49.0 79.0 L 50.0 79.0 L 51.0 79.0 L 52.0 79.0 L 53.0 79.33333333333333 L 54.0 79.66666666666667 L 55.0 80.0 L 56.0 80.0 L 57.0 80.0 L 58.0 80.0 L 58.5 80.0 Z" stroke="none" fill="rgb(57,183,56)" />
<path d="M 110.5 86.5 L 111.0 86.0 L 112.0 85.0 L 113.0 84.0 L 114.0 83.0 L 115.0 82.0 L 115.66666666666667 81.0 L 116.33333333333333 80.0 L 117.0 79.0 L 118.0 78.0 L 119.0 77.0 L 120.0 76.0 L 121.0 75.0 L 121.66666666666667 74.0 L 122.0 73.0 L 122.0 72.0 L 121.66666666666667 71.33333333333333 L 121.0 71.0 L 120.0 71.33333333333333 L 119.0 72.0 L 118.0 72.66666666666667 L 117.33333333333333 73.33333333333333 L 116.66666666666667 74.0 L 116.0 75.0 L 115.0 76.0 L 114.0 77.0 L 113.0 78.0 L 112.0 79.0 L 111.0 80.0 L 110.0 81.0 L 109.0 82.0 L 108.0 83.0 L 107.0 84.0 L 106.0 85.0 L 105.0 86.0 L 104.0 87.0 L 103.0 87.66666666666667 L 102.0 88.0 L 101.0 87.66666666666667 L 100.0 87.0 L 99.0 86.0 L 98.0 85.0 L 97.33333333333333 84.0 L 97.0 83.0 L 97.0 82.0 L 97.0 81.0 L 97.0 80.0 L 97.0 79.0 L 97.0 78.0 L 97.0 77.0 L 96.66666666666667 76.0 L 96.33333333333333 75.0 L 95.66666666666667 74.0 L 95.0 73.0 L 94.0 72.33333333333333 L 93.0 71.66666666666667 L 92.0 71.33333333333333 L 91.0 71.0 L 90.0 71.0 L 89.0 71.0 L 88.0 71.0 L 87.0 71.0 L 86.0 71.33333333333333 L 85.0 71.66666666666667 L 84.0 72.33333333333333 L 83.33333333333333 73.0 L 83.33333333333333 73.66666666666667 L 84.0 74.0 L 85.0 74.0 L 86.0 74.0 L 87.0 74.0 L 88.0 74.0 L 89.0 74.0 L 90.0 74.33333333333333 L 91.0 75.0 L 92.0 76.0 L 92.66666666666667 77.0 L 93.0 78.0 L 93.33333333333333 79.0 L 93.66666666666667 80.0 L 94.0 81.0 L 94.0 82.0 L 94.0 83.0 L 94.0 84.0 L 94.33333333333333 85.0 L 94.66666666666667 86.0 L 95.0 87.0 L 95.33333333333333 88.0 L 96.0 89.0 L 97.0 89.66666666666667 L 98.0 90.33333333333333 L 99.0 90.66666666666667 L 100.0 91.0 L 101.0 91.0 L 102.0 91.0 L 103.0 91.0 L 104.0 91.0 L 105.0 90.66666666666667 L 106.0 90.33333333333333 L 107.0 89.66666666666667 L 108.0 89.0 L 109.0 88.0 L 109.5 87.5 Z" stroke="none" fill="rgb(176,176,175)" />
<path d="M 115.5 76.5 L 116.0 76.0 L 116.66666666666667 75.0 L 117.0 74.0 L 117.0 73.0 L 116.66666666666667 72.33333333333333 L 116.0 72.33333333333333 L 115.0 72.66666666666667 L 114.0 73.33333333333333 L 113.0 73.66666666666667 L 112.0 74.33333333333333 L 111.0 74.66666666666667 L 110.0 75.33333333333333 L 109.0 75.66666666666667 L 108.0 76.33333333333333 L 107.0 76.66666666666667 L 106.0 77.0 L 105.0 77.33333333333333 L 104.0 77.66666666666667 L 103.0 78.33333333333333 L 102.0 78.66666666666667 L 101.0 79.0 L 100.0 79.33333333333333 L 99.0 79.66666666666667 L 98.0 80.0 L 97.33333333333333 80.33333333333333 L 97.0 81.0 L 97.33333333333333 81.66666666666667 L 98.0 82.0 L 99.0 82.0 L 100.0 81.66666666666667 L 101.0 81.33333333333333 L 102.0 81.0 L 103.0 80.66666666666667 L 104.0 80.33333333333333 L 105.0 80.0 L 106.0 79.66666666666667 L 107.0 79.33333333333333 L 108.0 78.66666666666667 L 109.0 78.33333333333333 L 110.0 77.66666666666667 L 111.0 77.33333333333333 L 112.0 77.0 L 113.0 77.0 L 114.0 77.0 L 114.5 77.0 Z" stroke="none" fill="rgb(13,173,69)" />
<path d="M 76.0 80.5 L 76.0 80.0 L 75.66666666666667 79.33333333333333 L 75.0 79.0 L 74.0 79.0 L 73.0 79.0 L 72.0 79.0 L 71.0 79.33333333333333 L 70.0 79.66666666666667 L 69.0 80.0 L 68.0 80.0 L 67.0 80.0 L 66.0 80.0 L 65.0 80.0 L 64.0 80.0 L 63.0 80.0 L 62.0 80.0 L 61.0 80.0 L 60.0 80.0 L 59.0 80.0 L 58.0 80.0 L 57.0 80.0 L 56.0 80.0 L 55.0 79.66666666666667 L 54.0 79.33333333333333 L 53.0 79.0 L 52.0 79.0 L 51.0 79.0 L 50.0 79.0 L 49.0 79.0 L 48.0 79.0 L 47.0 78.66666666666667 L 46.0 78.33333333333333 L 45.0 78.0 L 44.0 78.0 L 43.0 78.0 L 42.0 78.0 L 41.0 77.66666666666667 L 40.0 77.33333333333333 L 39.0 77.0 L 38.0 77.0 L 37.0 76.66666666666667 L 36.0 76.33333333333333 L 35.0 76.0 L 34.0 76.0 L 33.0 75.66666666666667 L 32.0 75.33333333333333 L 31.0 75.0 L 30.0 74.66666666666667 L 29.0 74.33333333333333 L 28.0 74.0 L 27.0 74.0 L 26.333333333333332 74.33333333333333 L 26.0 75.0 L 26.333333333333332 76.0 L 27.0 76.66666666666667 L 28.0 77.0 L 29.0 77.0 L 30.0 77.0 L 31.0 77.33333333333333 L 32.0 77.66666666666667 L 33.0 78.0 L 34.0 78.0 L 35.0 78.33333333333333 L 36.0 78.66666666666667 L 37.0 79.0 L 38.0 79.0 L 39.0 79.33333333333333 L 40.0 79.66666666666667 L 41.0 80.0 L 42.0 80.0 L 43.0 80.0 L 44.0 80.0 L 45.0 80.33333333333333 L 46.0 80.66666666666667 L 47.0 81.0 L 48.0 81.0 L 49.0 81.0 L 50.0 81.0 L 51.0 81.0 L 52.0 81.0 L 53.0 81.33333333333333 L 54.0 81.66666666666667 L 55.0 82.0 L 56.0 82.0 L 57.0 82.0 L 58.0 82.0 L 59.0 82.0 L 60.0 82.0 L 61.0 82.0 L 62.0 82.0 L 63.0 82.0 L 64.0 82.0 L 65.0 82.0 L 66.0 82.0 L 67.0 82.0 L 68.0 82.0 L 69.0 82.0 L 70.0 81.66666666666667 L 71.0 81.33333333333333 L 72.0 81.0 L 73.0 81.0 L 74.0 81.0 L 75.0 81.0 L 75.5 81.0 Z" stroke="none" fill="rgb(47,181,59)" />
<path d="M 100.5 88.0 L 101.0 88.0 L 102.0 88.0 L 103.0 88.0 L 104.0 87.66666666666667 L 105.0 87.0 L 106.0 86.0 L 107.0 85.0 L 108.0 84.0 L 109.0 83.0 L 110.0 82.0 L 111.0 81.0 L 112.0 80.0 L 113.0 79.0 L 113.66666666666667 78.0 L 113.66666666666667 77.0 L 113.0 76.33333333333333 L 112.0 76.33333333333333 L 111.0 76.66666666666667 L 110.0 77.33333333333333 L 109.0 77.66666666666667 L 108.0 78.33333333333333 L 107.0 78.66666666666667 L 106.0 79.33333333333333 L 105.0 79.66666666666667 L 104.0 80.0 L 103.0 80.33333333333333 L 102.0 80.66666666666667 L 101.0 81.0 L 100.0 81.33333333333333 L 99.0 81.66666666666667 L 98.0 82.0 L 97.33333333333333 82.33333333333333 L 97.0 83.0 L 97.0 84.0 L 97.33333333333333 85.0 L 98.0 86.0 L 99.0 87.0 L 99.5 87.5 Z" stroke="none" fill="rgb(2,171,70)" />
<path d="M 33.5 80.0 L 34.0 80.33333333333333 L 35.0 80.66666666666667 L 36.0 81.0 L 37.0 81.0 L 38.0 81.0 L 39.0 81.33333333333333 L 40.0 81.66666666666667 L 41.0 82.0 L 42.0 82.0 L 43.0 82.0 L 44.0 82.33333333333333 L 45.0 82.66666666666667 L 46.0 83.0 L 47.0 83.0 L 48.0 83.0 L 49.0 83.0 L 50.0 83.0 L 51.0 83.0 L 52.0 83.0 L 53.0 83.33333333333333 L 54.0 83.66666666666667 L 55.0 84.0 L 56.0 84.0 L 57.0 84.0 L 58.0 84.0 L 59.0 84.0 L 60.0 84.0 L 61.0 84.0 L 62.0 84.0 L 63.0 84.0 L 64.0 84.0 L 65.0 84.0 L 66.0 84.0 L 67.0 84.0 L 68.0 84.0 L 69.0 84.0 L 70.0 84.0 L 71.0 83.66666666666667 L 72.0 83.33333333333333 L 73.0 83.0 L 74.0 83.0 L 74.66666666666667 82.66666666666667 L 75.0 82.0 L 74.66666666666667 81.33333333333333 L 74.0 81.0 L 73.0 81.0 L 72.0 81.0 L 71.0 81.0 L 70.0 81.33333333333333 L 69.0 81.66666666666667 L 68.0 82.0 L 67.0 82.0 L 66.0 82.0 L 65.0 82.0 L 64.0 82.0 L 63.0 82.0 L 62.0 82.0 L 61.0 82.0 L 60.0 82.0 L 59.0 82.0 L 58.0 82.0 L 57.0 82.0 L 56.0 82.0 L 55.0 81.66666666666667 L 54.0 81.33333333333333 L 53.0 81.0 L 52.0 81.0 L 51.0 81.0 L 50.0 81.0 L 49.0 81.0 L 48.0 81.0 L 47.0 80.66666666666667 L 46.0 80.33333333333333 L 45.0 80.0 L 44.0 80.0 L 43.0 80.0 L 42.0 80.0 L 41.0 79.66666666666667 L 40.0 79.33333333333333 L 39.0 79.0 L 38.0 79.0 L 37.0 78.66666666666667 L 36.0 78.33333333333333 L 35.0 78.0 L 34.0 78.0 L 33.0 77.66666666666667 L 32.0 77.33333333333333 L 31.0 77.0 L 30.0 77.0 L 29.0 77.0 L 28.333333333333332 77.33333333333333 L 28.0 78.0 L 28.333333333333332 79.0 L 29.0 80.0 L 30.0 80.66666666666667 L 31.0 80.66666666666667 L 32.0 80.33333333333333 L 32.5 80.0 Z" stroke="none" fill="rgb(36,178,61)" />
<path d="M 72.5 87.0 L 73.0 86.66666666666667 L 73.66666666666667 86.0 L 74.0 85.0 L 74.0 84.0 L 73.66666666666667 83.33333333333333 L 73.0 83.0 L 72.0 83.0 L 71.0 83.33333333333333 L 70.0 83.66666666666667 L 69.0 84.0 L 68.0 84.0 L 67.0 84.0 L 66.0 84.0 L 65.0 84.0 L 64.0 84.0 L 63.0 84.0 L 62.0 84.0 L 61.0 84.0 L 60.0 84.0 L 59.0 84.0 L 58.0 84.0 L 57.0 84.0 L 56.0 84.0 L 55.0 83.66666666666667 L 54.0 83.33333333333333 L 53.0 83.0 L 52.0 83.0 L 51.0 83.0 L 50.0 83.0 L 49.0 83.0 L 48.0 83.0 L 47.0 83.0 L 46.0 82.66666666666667 L 45.0 82.33333333333333 L 44.0 82.0 L 43.0 82.0 L 42.0 82.0 L 41.0 81.66666666666667 L 40.0 81.33333333333333 L 39.0 81.0 L 38.0 81.0 L 37.0 81.0 L 36.0 80.66666666666667 L 35.0 80.33333333333333 L 34.0 80.0 L 33.0 80.0 L 32.0 80.0 L 31.333333333333332 80.33333333333333 L 31.0 81.0 L 31.333333333333332 81.66666666666667 L 32.0 82.0 L 33.0 82.33333333333333 L 34.0 82.66666666666667 L 35.0 83.0 L 36.0 83.0 L 37.0 83.0 L 38.0 83.33333333333333 L 39.0 83.66666666666667 L 40.0 84.0 L 41.0 84.0 L 42.0 84.0 L 43.0 84.33333333333333 L 44.0 84.66666666666667 L 45.0 85.0 L 46.0 85.0 L 47.0 85.0 L 48.0 85.0 L 49.0 85.0 L 50.0 85.0 L 51.0 85.33333333333333 L 52.0 85.66666666666667 L 53.0 86.0 L 54.0 86.0 L 55.0 86.0 L 56.0 86.0 L 57.0 86.0 L 58.0 86.0 L 59.0 86.0 L 60.0 86.0 L 61.0 86.0 L 62.0 86.0 L 63.0 86.0 L 64.0 86.0 L 65.0 86.0 L 66.0 86.0 L 67.0 86.0 L 68.0 86.0 L 69.0 86.0 L 70.0 86.0 L 71.0 86.33333333333333 L 71.5 86.5 Z" stroke="none" fill="rgb(25,176,64)" />
<path d="M 72.0 87.5 L 72.0 87.0 L 71.66666666666667 86.33333333333333 L 71.0 86.0 L 70.0 86.0 L 69.0 86.0 L 68.0 86.0 L 67.0 86.0 L 66.0 86.0 L 65.0 86.0 L 64.0 86.0 L 63.0 86.0 L 62.0 86.0 L 61.0 86.0 L 60.0 86.0 L 59.0 86.0 L 58.0 86.0 L 57.0 86.0 L 56.0 86.0 L 55.0 86.0 L 54.0 86.0 L 53.0 85.66666666666667 L 52.0 85.33333333333333 L 51.0 85.0 L 50.0 85.0 L 49.0 85.0 L 48.0 85.0 L 47.0 85.0 L 46.0 85.0 L 45.0 84.66666666666667 L 44.0 84.33333333333333 L 43.0 84.0 L 42.0 84.0 L 41.0 84.0 L 40.0 83.66666666666667 L 39.0 83.33333333333333 L 38.0 83.0 L 37.0 83.0 L 36.0 83.0 L 35.0 82.66666666666667 L 34.0 82.33333333333333 L 33.0 82.0 L 32.0 81.66666666666667 L 31.0 81.33333333333333 L 30.0 81.0 L 29.333333333333332 81.33333333333333 L 29.0 82.0 L 29.333333333333332 82.66666666666667 L 30.0 83.33333333333333 L 31.0 83.66666666666667 L 32.0 84.0 L 33.0 84.0 L 34.0 84.33333333333333 L 35.0 84.66666666666667 L 36.0 85.0 L 37.0 85.0 L 38.0 85.33333333333333 L 39.0 85.66666666666667 L 40.0 86.0 L 41.0 86.0 L 42.0 86.0 L 43.0 86.33333333333333 L 44.0 86.66666666666667 L 45.0 87.0 L 46.0 87.0 L 47.0 87.0 L 48.0 87.0 L 49.0 87.0 L 50.0 87.0 L 51.0 87.0 L 52.0 87.33333333333333 L 53.0 87.66666666666667 L 54.0 88.0 L 55.0 88.0 L 56.0 88.0 L 57.0 88.0 L 58.0 88.0 L 59.0 88.0 L 60.0 88.0 L 61.0 88.0 L 62.0 88.0 L 63.0 88.0 L 64.0 88.0 L 65.0 88.0 L 66.0 88.0 L 67.0 88.0 L 68.0 88.0 L 69.0 88.0 L 70.0 88.0 L 71.0 88.0 L 71.5 88.0 Z" stroke="none" fill="rgb(13,173,69)" />
<path d="M 81.5 110.5 L 82.0 110.0 L 83.0 109.0 L 84.0 108.0 L 85.0 107.0 L 86.0 106.0 L 87.0 105.0 L 87.66666666666667 104.0 L 88.33333333333333 103.0 L 88.66666666666667 102.0 L 89.0 101.0 L 89.0 100.0 L 89.0 99.0 L 88.66666666666667 98.0 L 88.0 97.0 L 87.0 96.33333333333333 L 86.0 95.66666666666667 L 85.0 95.33333333333333 L 84.0 95.0 L 83.0 94.66666666666667 L 82.0 94.33333333333333 L 81.0 94.0 L 80.0 94.0 L 79.0 93.66666666666667 L 78.0 93.33333333333333 L 77.0 92.66666666666667 L 76.0 92.0 L 75.0 91.0 L 74.33333333333333 90.0 L 73.66666666666667 89.0 L 73.0 88.33333333333333 L 72.0 88.0 L 71.0 88.0 L 70.0 88.0 L 69.0 88.0 L 68.0 88.0 L 67.0 88.0 L 66.0 88.0 L 65.0 88.0 L 64.0 88.0 L 63.0 88.0 L 62.0 88.0 L 61.0 88.0 L 60.0 88.0 L 59.0 88.0 L 58.0 88.0 L 57.0 88.0 L 56.0 88.0 L 55.0 88.0 L 54.0 87.66666666666667 L 53.0 87.33333333333333 L 52.0 87.0 L 51.0 87.0 L 50.0 87.0 L 49.0 87.0 L 48.0 87.0 L 47.0 87.0 L 46.0 87.0 L 45.0 86.66666666666667 L 44.0 86.33333333333333 L 43.0 86.0 L 42.0 86.0 L 41.0 86.0 L 40.0 85.66666666666667 L 39.0 85.33333333333333 L 38.0 85.0 L 37.0 85.0 L 36.0 84.66666666666667 L 35.0 84.33333333333333 L 34.0 84.0 L 33.0 84.0 L 32.0 83.66666666666667 L 31.0 83.33333333333333 L 30.0 83.0 L 29.0 83.0 L 28.0 83.0 L 27.0 83.0 L 26.0 83.33333333333333 L 25.0 83.66666666666667 L 24.0 84.33333333333333 L 23.0 84.66666666666667 L 22.0 85.0 L 21.0 85.33333333333333 L 20.0 85.66666666666667 L 19.0 86.33333333333333 L 18.0 86.66666666666667 L 17.0 87.33333333333333 L 16.0 88.0 L 15.0 89.0 L 14.0 90.0 L 13.0 91.0 L 12.333333333333334 92.0 L 11.666666666666666 93.0 L 11.333333333333334 94.0 L 11.0 95.0 L 11.0 96.0 L 11.0 97.0 L 11.0 98.0 L 11.0 99.0 L 11.0 100.0 L 11.0 101.0 L 11.0 102.0 L 11.0 103.0 L 11.333333333333334 104.0 L 12.0 105.0 L 13.0 106.0 L 13.666666666666666 107.0 L 14.333333333333334 108.0 L 15.0 109.0 L 16.0 110.0 L 17.0 111.0 L 18.0 111.66666666666667 L 19.0 112.0 L 20.0 112.0 L 21.0 112.0 L 22.0 112.0 L 23.0 112.0 L 24.0 112.0 L 25.0 112.0 L 26.0 112.0 L 27.0 112.0 L 28.0 112.0 L 29.0 112.0 L 30.0 112.0 L 31.0 111.66666666666667 L 32.0 111.33333333333333 L 33.0 110.66666666666667 L 34.0 110.0 L 35.0 109.0 L 36.0 108.0 L 36.666666666666664 107.0 L 37.333333333333336 106.0 L 38.0 105.0 L 38.666666666666664 104.0 L 39.333333333333336 103.0 L 40.0 102.0 L 41.0 101.0 L 42.0 100.0 L 43.0 99.33333333333333 L 44.0 98.66666666666667 L 45.0 98.33333333333333 L 46.0 98.33333333333333 L 47.0 99.0 L 48.0 100.0 L 49.0 101.0 L 50.0 102.0 L 51.0 103.0 L 52.0 104.0 L 53.0 105.0 L 54.0 106.0 L 55.0 107.0 L 56.0 108.0 L 57.0 109.0 L 58.0 110.0 L 59.0 111.0 L 60.0 112.0 L 61.0 113.0 L 62.0 114.0 L 63.0 115.0 L 64.0 116.0 L 65.0 117.0 L 66.0 118.0 L 67.0 119.0 L 68.0 119.66666666666667 L 69.0 120.0 L 70.0 120.0 L 71.0 120.0 L 72.0 119.66666666666667 L 73.0 119.0 L 74.0 118.0 L 75.0 117.0 L 76.0 116.0 L 77.0 115.0 L 78.0 114.0 L 79.0 113.0 L 80.0 112.0 L 80.5 111.5 Z" stroke="none" fill="rgb(2,171,70)" />
<path d="M 26.5 115.0 L 27.0 115.0 L 28.0 115.0 L 29.0 115.0 L 30.0 114.66666666666667 L 31.0 114.33333333333333 L 32.0 114.0 L 33.0 113.66666666666667 L 34.0 113.33333333333333 L 35.0 112.66666666666667 L 36.0 112.33333333333333 L 37.0 111.66666666666667 L 37.666666666666664 111.0 L 38.333333333333336 110.0 L 39.0 109.0 L 39.666666666666664 108.0 L 40.333333333333336 107.0 L 41.0 106.0 L 41.666666666666664 105.0 L 42.333333333333336 104.0 L 43.0 103.0 L 44.0 102.0 L 45.0 101.66666666666667 L 46.0 102.0 L 47.0 103.0 L 48.0 104.0 L 49.0 105.0 L 50.0 106.0 L 51.0 107.0 L 51.666666666666664 108.0 L 52.333333333333336 109.0 L 53.0 110.0 L 54.0 111.0 L 55.0 112.0 L 56.0 113.0 L 57.0 114.0 L 58.0 115.0 L 59.0 116.0 L 60.0 117.0 L 61.0 118.0 L 62.0 119.0 L 63.0 120.0 L 64.0 121.0 L 65.0 122.0 L 65.66666666666667 123.0 L 66.33333333333333 123.66666666666667 L 67.0 124.33333333333333 L 68.0 124.66666666666667 L 69.0 125.0 L 70.0 124.66666666666667 L 71.0 124.0 L 72.0 123.0 L 73.0 122.33333333333333 L 74.0 121.66666666666667 L 75.0 121.0 L 76.0 120.0 L 77.0 119.0 L 78.0 118.0 L 79.0 117.0 L 80.0 116.0 L 81.0 115.33333333333333 L 82.0 114.66666666666667 L 83.0 114.0 L 84.0 113.0 L 85.0 112.0 L 86.0 111.0 L 87.0 110.0 L 87.66666666666667 109.0 L 88.33333333333333 108.0 L 88.66666666666667 107.0 L 89.33333333333333 106.0 L 89.66666666666667 105.0 L 90.0 104.0 L 90.0 103.0 L 89.66666666666667 102.33333333333333 L 89.0 102.0 L 88.33333333333333 102.33333333333333 L 87.66666666666667 103.0 L 87.0 104.0 L 86.0 105.0 L 85.0 106.0 L 84.0 107.0 L 83.0 108.0 L 82.0 109.0 L 81.0 110.0 L 80.0 111.0 L 79.0 112.0 L 78.0 113.0 L 77.0 114.0 L 76.0 115.0 L 75.0 116.0 L 74.0 117.0 L 73.0 118.0 L 72.0 119.0 L 71.0 119.66666666666667 L 70.0 120.0 L 69.0 119.66666666666667 L 68.0 119.0 L 67.0 118.0 L 66.0 117.0 L 65.0 116.0 L 64.0 115.0 L 63.0 114.0 L 62.0 113.0 L 61.0 112.0 L 60.0 111.0 L 59.0 110.0 L 58.0 109.0 L 57.0 108.0 L 56.0 107.0 L 55.0 106.0 L 54.0 105.0 L 53.0 104.0 L 52.0 103.0 L 51.0 102.0 L 50.0 101.0 L 49.0 100.0 L 48.0 99.0 L 47.0 98.33333333333333 L 46.0 98.0 L 45.0 98.0 L 44.0 98.33333333333333 L 43.0 98.66666666666667 L 42.0 99.33333333333333 L 41.0 100.0 L 40.0 101.0 L 39.333333333333336 102.0 L 38.666666666666664 103.0 L 38.0 104.0 L 37.333333333333336 105.0 L 36.666666666666664 106.0 L 36.0 107.0 L 35.0 108.0 L 34.0 109.0 L 33.0 110.0 L 32.0 110.66666666666667 L 31.0 111.33333333333333 L 30.0 111.66666666666667 L 29.0 112.0 L 28.0 112.0 L 27.0 112.0 L 26.0 112.0 L 25.0 112.0 L 24.0 112.0 L 23.0 112.0 L 22.0 112.0 L 21.0 112.0 L 20.0 112.0 L 19.333333333333332 112.33333333333333 L 19.0 113.0 L 19.333333333333332 113.66666666666667 L 20.0 114.0 L 21.0 114.0 L 22.0 114.33333333333333 L 23.0 114.66666666666667 L 24.0 115.0 L 25.0 115.0 L 25.5 115.0 Z" stroke="none" fill="rgb(176,176,175)" />
</svg>
