<?xml version="1.0" encoding="UTF-8" standalone="no"?>
<!DOCTYPE svg PUBLIC "-//W3C//DTD SVG 1.1//EN"
"http://www.w3.org/Graphics/SVG/1.1/DTD/svg11.dtd">
<svg width="128" height="128" xmlns="http://www.w3.org/2000/svg" version="1.1">
<path d="M 5.5 128.0 L 6.0 128.0 L 7.0 128.0 L 8.0 128.0 L 9.0 128.0 L 10.0 128.0 L 11.0 128.0 L 12.0 128.0 L 13.0 128.0 L 14.0 128.0 L 15.0 128.0 L 16.0 128.0 L 17.0 128.0 L 18.0 128.0 L 19.0 128.0 L 20.0 128.0 L 21.0 128.0 L 22.0 128.0 L 23.0 128.0 L 24.0 128.0 L 25.0 128.0 L 26.0 128.0 L 27.0 128.0 L 28.0 128.0 L 29.0 128.0 L 30.0 128.0 L 31.0 128.0 L 32.0 128.0 L 33.0 128.0 L 34.0 128.0 L 35.0 128.0 L 36.0 128.0 L 37.0 128.0 L 38.0 128.0 L 39.0 128.0 L 40.0 128.0 L 41.0 128.0 L 42.0 128.0 L 43.0 128.0 L 44.0 128.0 L 45.0 128.0 L 46.0 128.0 L 47.0 128.0 L 48.0 128.0 L 49.0 128.0 L 50.0 128.0 L 51.0 128.0 L 52.0 128.0 L 53.0 128.0 L 54.0 128.0 L 55.0 128.0 L 56.0 128.0 L 57.0 128.0 L 58.0 128.0 L 59.0 128.0 L 60.0 128.0 L 61.0 128.0 L 62.0 128.0 L 63.0 128.0 L 64.0 128.0 L 65.0 128.0 L 66.0 128.0 L 67.0 128.0 L 68.0 128.0 L 69.0 128.0 L 70.0 128.0 L 71.0 128.0 L 72.0 128.0 L 73.0 128.0 L 74.0 128.0 L 75.0 128.0 L 76.0 128.0 L 77.0 128.0 L 78.0 128.0 L 79.0 128.0 L 80.0 128.0 L 81.0 128.0 L 82.0 128.0 L 83.0 128.0 L 84.0 128.0 L 85.0 128.0 L 86.0 128.0 L 87.0 128.0 L 88.0 128.0 L 89.0 128.0 L 90.0 128.0 L 91.0 128.0 L 92.0 128.0 L 93.0 128.0 L 94.0 128.0 L 95.0 128.0 L 96.0 128.0 L 97.0 128.0 L 98.0 128.0 L 99.0 128.0 L 100.0 128.0 L 101.0 128.0 L 102.0 128.0 L 103.0 128.0 L 104.0 128.0 L 105.0 128.0 L 106.0 128.0 L 107.0 128.0 L 108.0 128.0 L 109.0 128.0 L 110.0 128.0 L 111.0 128.0 L 112.0 128.0 L 113.0 128.0 L 114.0 128.0 L 115.0 128.0 L 116.0 128.0 L 117.0 128.0 L 118.0 128.0 L 119.0 128.0 L 120.0 128.0 L 121.0 128.0 L 122.0 128.0 L 123.0 128.0 L 124.0 128.0 L 125.0 128.0 L 126.0 128.0 L 127.0 128.0 L 127.66666666666667 127.66666666666667 L 128.0 127.0 L 128.0 126.0 L 128.0 125.0 L 128.0 124.0 L 128.0 123.0 L 128.0 122.0 L 128.0 121.0 L 128.0 120.0 L 128.0 119.0 L 128.0 118.0 L 128.0 117.0 L 128.0 116.0 L 128.0 115.0 L 128.0 114.0 L 128.0 113.0 L 128.0 112.0 L 128.0 111.0 L 128.0 110.0 L 128.0 109.0 L 128.0 108.0 L 128.0 107.0 L 128.0 106.0 L 128.0 105.0 L 128.0 104.0 L 128.0 103.0 L 128.0 102.0 L 128.0 101.0 L 128.0 100.0 L 128.0 99.0 L 128.0 98.0 L 128.0 97.0 L 128.0 96.0 L 128.0 95.0 L 128.0 94.0 L 128.0 93.0 L 128.0 92.0 L 128.0 91.0 L 128.0 90.0 L 128.0 89.0 L 128.0 88.0 L 128.0 87.0 L 128.0 86.0 L 128.0 85.0 L 128.0 84.0 L 128.0 83.0 L 128.0 82.0 L 128.0 81.0 L 128.0 80.0 L 128.0 79.0 L 128.0 78.0 L 128.0 77.0 L 128.0 76.0 L 128.0 75.0 L 128.0 74.0 L 128.0 73.0 L 128.0 72.0 L 128.0 71.0 L 128.0 70.0 L 128.0 69.0 L 128.0 68.0 L 128.0 67.0 L 128.0 66.0 L 128.0 65.0 L 128.0 64.0 L 128.0 63.0 L 128.0 62.0 L 128.0 61.0 L 128.0 60.0 L 128.0 59.0 L 128.0 58.0 L 128.0 57.0 L 128.0 56.0 L 128.0 55.0 L 128.0 54.0 L 128.0 53.0 L 128.0 52.0 L 128.0 51.0 L 128.0 50.0 L 128.0 49.0 L 128.0 48.0 L 128.0 47.0 L 128.0 46.0 L 128.0 45.0 L 128.0 44.0 L 128.0 43.0 L 128.0 42.0 L 128.0 41.0 L 128.0 40.0 L 128.0 39.0 L 128.0 38.0 L 128.0 37.0 L 128.0 36.0 L 128.0 35.0 L 128.0 34.0 L 128.0 33.0 L 128.0 32.0 L 128.0 31.0 L 128.0 30.0 L 128.0 29.0 L 128.0 28.0 L 128.0 27.0 L 128.0 26.0 L 128.0 25.0 L 128.0 24.0 L 128.0 23.0 L 128.0 22.0 L 128.0 21.0 L 128.0 20.0 L 128.0 19.0 L 128.0 18.0 L 128.0 17.0 L 128.0 16.0 L 128.0 15.0 L 128.0 14.0 L 128.0 13.0 L 128.0 12.0 L 128.0 11.0 L 128.0 10.0 L 128.0 9.0 L 128.0 8.0 L 128.0 7.0 L 128.0 6.0 L 128.0 5.0 L 128.0 4.0 L 128.0 3.0 L 128.0 2.0 L 128.0 1.0 L 127.66666666666667 0.3333333333333333 L 127.0 0.0 L 126.0 0.0 L 125.0 0.0 L 124.0 0.0 L 123.0 0.0 L 122.0 0.0 L 121.0 0.0 L 120.0 0.0 L 119.0 0.0 L 118.0 0.0 L 117.0 0.0 L 116.0 0.0 L 115.0 0.0 L 114.0 0.0 L 113.0 0.0 L 112.0 0.0 L 111.0 0.0 L 110.0 0.0 L 109.0 0.0 L 108.0 0.0 L 107.0 0.0 L 106.0 0.0 L 105.0 0.0 L 104.0 0.0 L 103.0 0.0 L 102.0 0.0 L 101.0 0.0 L 100.0 0.0 L 99.0 0.0 L 98.0 0.0 L 97.0 0.0 L 96.0 0.0 L 95.0 0.0 L 94.0 0.0 L 93.0 0.0 L 92.0 0.0 L 91.0 0.0 L 90.0 0.0 L 89.0 0.0 L 88.0 0.0 L 87.0 0.0 L 86.0 0.0 L 85.0 0.0 L 84.0 0.0 L 83.0 0.0 L 82.0 0.0 L 81.0 0.0 L 80.0 0.0 L 79.0 0.0 L 78.0 0.0 L 77.0 0.0 L 76.0 0.0 L 75.0 0.0 L 74.0 0.0 L 73.0 0.0 L 72.0 0.0 L 71.0 0.0 L 70.0 0.0 L 69.0 0.0 L 68.0 0.0 L 67.0 0.0 L 66.0 0.0 L 65.0 0.0 L 64.0 0.0 L 63.0 0.0 L 62.0 0.0 L 61.0 0.0 L 60.0 0.0 L 59.0 0.0 L 58.0 0.0 L 57.0 0.0 L 56.0 0.0 L 55.0 0.0 L 54.0 0.0 L 53.0 0.0 L 52.0 0.0 L 51.0 0.0 L 50.0 0.0 L 49.0 0.0 L 48.0 0.0 L 47.0 0.0 L 46.0 0.0 L 45.0 0.0 L 44.0 0.0 L 43.0 0.0 L 42.0 0.0 L 41.0 0.0 L 40.0 0.0 L 39.0 0.0 L 38.0 0.0 L 37.0 0.0 L 36.0 0.0 L 35.0 0.0 L 34.0 0.0 L 33.0 0.0 L 32.0 0.0 L 31.0 0.0 L 30.0 0.0 L 29.0 0.0 L 28.0 0.0 L 27.0 0.0 L 26.0 0.0 L 25.0 0.0 L 24.0 0.0 L 23.0 0.0 L 22.0 0.0 L 21.0 0.0 L 20.0 0.0 L 19.0 0.0 L 18.0 0.0 L 17.0 0.0 L 16.0 0.0 L 15.0 0.0 L 14.0 0.0 L 13.0 0.0 L 12.0 0.0 L 11.0 0.0 L 10.0 0.0 L 9.0 0.0 L 8.0 0.0 L 7.0 0.0 L 6.0 0.0 L 5.0 0.0 L 4.0 0.0 L 3.0 0.0 L 2.0 0.0 L 1.0 0.0 L 0.3333333333333333 0.3333333333333333 L 0.0 1.0 L 0.0 2.0 L 0.0 3.0 L 0.0 4.0 L 0.0 5.0 L 0.0 6.0 L 0.0 7.0 L 0.0 8.0 L 0.0 9.0 L 0.0 10.0 L 0.0 11.0 L 0.0 12.0 L 0.0 13.0 L 0.0 14.0 L 0.0 15.0 L 0.0 16.0 L 0.0 17.0 L 0.0 18.0 L 0.0 19.0 L 0.0 20.0 L 0.0 21.0 L 0.0 22.0 L 0.0 23.0 L 0.0 24.0 L 0.0 25.0 L 0.0 26.0 L 0.0 27.0 L 0.0 28.0 L 0.0 29.0 L 0.0 30.0 L 0.0 31.0 L 0.0 32.0 L 0.0 33.0 L 0.0 34.0 L 0.0 35.0 L 0.0 36.0 L 0.0 37.0 L 0.0 38.0 L 0.0 39.0 L 0.0 40.0 L 0.0 41.0 L 0.0 42.0 L 0.0 43.0 L 0.0 44.0 L 0.0 45.0 L 0.0 46.0 L 0.0 47.0 L 0.0 48.0 L 0.0 49.0 L 0.0 50.0 L 0.0 51.0 L 0.0 52.0 L 0.0 53.0 L 0.0 54.0 L 0.0 55.0 L 0.0 56.0 L 0.0 57.0 L 0.0 58.0 L 0.0 59.0 L 0.0 60.0 L 0.0 61.0 L 0.0 62.0 L 0.0 63.0 L 0.0 64.0 L 0.0 65.0 L 0.0 66.0 L 0.0 67.0 L 0.0 68.0 L 0.0 69.0 L 0.0 70.0 L 0.0 71.0 L 0.0 72.0 L 0.0 73.0 L 0.0 74.0 L 0.0 75.0 L 0.0 76.0 L 0.0 77.0 L 0.0 78.0 L 0.0 79.0 L 0.0 80.0 L 0.0 81.0 L 0.0 82.0 L 0.0 83.0 L 0.0 84.0 L 0.0 85.0 L 0.0 86.0 L 0.0 87.0 L 0.0 88.0 L 0.0 89.0 L 0.0 90.0 L 0.0 91.0 L 0.0 92.0 L 0.0 93.0 L 0.0 94.0 L 0.0 95.0 L 0.0 96.0 L 0.0 97.0 L 0.0 98.0 L 0.0 99.0 L 0.0 100.0 L 0.0 101.0 L 0.0 102.0 L 0.0 103.0 L 0.0 104.0 L 0.0 105.0 L 0.0 106.0 L 0.0 107.0 L 0.0 108.0 L 0.0 109.0 L 0.0 110.0 L 0.0 111.0 L 0.0 112.0 L 0.0 113.0 L 0.0 114.0 L 0.0 115.0 L 0.0 116.0 L 0.0 117.0 L 0.0 118.0 L 0.0 119.0 L 0.0 120.0 L 0.0 121.0 L 0.0 122.0 L 0.0 123.0 L 0.0 124.0 L 0.0 125.0 L 0.0 126.0 L 0.0 127.0 L 0.3333333333333333 127.66666666666667 L 1.0 128.0 L 2.0 128.0 L 3.0 128.0 L 4.0 128.0 L 4.5 128.0 Z" stroke="none" fill="rgb(0,0,0)" />
<path d="M 54.0 90.5 L 54.333333333333336 90.0 L 54.666666666666664 89.0 L 55.0 88.0 L 55.0 87.0 L 55.333333333333336 86.0 L 56.0 85.33333333333333 L 56.666666666666664 84.66666666666667 L 57.333333333333336 84.0 L 57.666666666666664 83.0 L 58.333333333333336 82.0 L 58.666666666666664 81.0 L 59.0 80.0 L 59.333333333333336 79.0 L 59.666666666666664 78.0 L 60.0 77.0 L 60.0 76.0 L 60.333333333333336 75.0 L 61.0 74.33333333333333 L 61.666666666666664 73.66666666666667 L 62.333333333333336 73.0 L 63.0 72.0 L 63.666666666666664 71.0 L 64.33333333333333 70.0 L 65.0 69.0 L 65.66666666666667 68.0 L 66.0 67.0 L 66.33333333333333 66.0 L 66.66666666666667 65.0 L 67.0 64.0 L 67.0 63.0 L 67.0 62.0 L 66.66666666666667 61.0 L 66.0 60.333333333333336 L 65.0 59.666666666666664 L 64.0 59.333333333333336 L 63.0 58.666666666666664 L 62.0 58.333333333333336 L 61.0 58.0 L 60.0 57.666666666666664 L 59.0 57.333333333333336 L 58.0 56.666666666666664 L 57.0 56.0 L 56.0 55.0 L 55.666666666666664 54.0 L 56.0 53.333333333333336 L 57.0 53.0 L 58.0 53.0 L 59.0 53.0 L 60.0 53.0 L 61.0 53.333333333333336 L 62.0 53.666666666666664 L 63.0 54.0 L 63.666666666666664 53.666666666666664 L 64.0 53.0 L 63.666666666666664 52.0 L 63.333333333333336 51.0 L 62.666666666666664 50.0 L 62.333333333333336 49.0 L 61.666666666666664 48.0 L 61.333333333333336 47.0 L 61.0 46.0 L 61.333333333333336 45.0 L 62.0 44.666666666666664 L 63.0 45.0 L 64.0 46.0 L 65.0 47.0 L 66.0 48.0 L 66.66666666666667 49.0 L 67.33333333333333 50.0 L 68.0 50.666666666666664 L 69.0 51.0 L 69.66666666666667 50.666666666666664 L 70.33333333333333 50.0 L 70.66666666666667 49.0 L 71.0 48.0 L 71.33333333333333 47.0 L 72.0 46.333333333333336 L 73.0 46.333333333333336 L 73.66666666666667 47.0 L 74.0 48.0 L 74.0 49.0 L 74.0 50.0 L 74.0 51.0 L 74.0 52.0 L 74.0 53.0 L 74.0 54.0 L 73.66666666666667 55.0 L 73.33333333333333 56.0 L 73.0 57.0 L 73.0 58.0 L 73.33333333333333 58.666666666666664 L 74.0 59.333333333333336 L 75.0 59.666666666666664 L 76.0 60.0 L 77.0 60.333333333333336 L 78.0 60.666666666666664 L 79.0 61.333333333333336 L 80.0 61.666666666666664 L 81.0 62.0 L 82.0 62.333333333333336 L 83.0 62.666666666666664 L 84.0 63.0 L 85.0 63.333333333333336 L 86.0 63.666666666666664 L 87.0 64.0 L 88.0 64.0 L 89.0 64.33333333333333 L 90.0 64.66666666666667 L 91.0 65.0 L 92.0 64.66666666666667 L 92.66666666666667 64.0 L 93.33333333333333 63.0 L 93.66666666666667 62.0 L 94.0 61.0 L 94.0 60.0 L 94.0 59.0 L 94.33333333333333 58.0 L 95.0 57.666666666666664 L 95.66666666666667 58.0 L 96.0 59.0 L 96.0 60.0 L 96.0 61.0 L 96.0 62.0 L 96.0 63.0 L 96.0 64.0 L 96.0 65.0 L 96.33333333333333 65.66666666666667 L 97.0 66.33333333333333 L 98.0 66.66666666666667 L 99.0 67.0 L 100.0 67.0 L 101.0 67.0 L 101.66666666666667 66.66666666666667 L 102.33333333333333 66.0 L 102.66666666666667 65.0 L 103.0 64.0 L 103.0 63.0 L 103.33333333333333 62.0 L 104.0 61.666666666666664 L 104.66666666666667 62.0 L 105.0 63.0 L 105.0 64.0 L 105.0 65.0 L 105.0 66.0 L 105.0 67.0 L 105.0 68.0 L 105.33333333333333 68.66666666666667 L 106.0 69.0 L 107.0 69.33333333333333 L 108.0 69.66666666666667 L 109.0 70.0 L 110.0 70.0 L 111.0 70.33333333333333 L 112.0 70.66666666666667 L 113.0 71.0 L 114.0 70.66666666666667 L 114.66666666666667 70.0 L 115.0 69.0 L 115.0 68.0 L 115.0 67.0 L 115.0 66.0 L 115.0 65.0 L 115.0 64.0 L 115.0 63.0 L 115.0 62.0 L 115.0 61.0 L 115.0 60.0 L 115.0 59.0 L 115.0 58.0 L 114.66666666666667 57.0 L 114.33333333333333 56.0 L 114.0 55.0 L 113.66666666666667 54.0 L 113.33333333333333 53.0 L 112.66666666666667 52.0 L 112.33333333333333 51.0 L 111.66666666666667 50.0 L 111.0 49.0 L 110.0 48.0 L 109.0 47.0 L 108.0 46.333333333333336 L 107.0 45.666666666666664 L 106.0 45.333333333333336 L 105.0 44.666666666666664 L 104.0 44.333333333333336 L 103.0 43.666666666666664 L 102.0 43.333333333333336 L 101.0 43.0 L 100.0 43.0 L 99.0 43.0 L 98.0 42.666666666666664 L 97.0 42.333333333333336 L 96.0 42.0 L 95.0 42.0 L 94.0 42.0 L 93.0 42.0 L 92.0 42.0 L 91.0 42.0 L 90.0 42.0 L 89.0 42.333333333333336 L 88.0 42.666666666666664 L 87.0 43.0 L 86.0 43.0 L 85.0 42.666666666666664 L 84.66666666666667 42.0 L 85.0 41.333333333333336 L 86.0 40.666666666666664 L 87.0 40.0 L 88.0 39.0 L 89.0 38.0 L 89.66666666666667 37.0 L 90.0 36.0 L 90.0 35.0 L 89.66666666666667 34.0 L 89.33333333333333 33.0 L 89.33333333333333 32.0 L 90.0 31.666666666666668 L 91.0 32.0 L 91.66666666666667 33.0 L 92.33333333333333 33.666666666666664 L 93.0 34.0 L 94.0 34.0 L 95.0 33.666666666666664 L 96.0 33.333333333333336 L 97.0 32.666666666666664 L 97.66666666666667 32.0 L 98.0 31.0 L 98.0 30.0 L 98.33333333333333 29.0 L 99.0 28.666666666666668 L 99.66666666666667 29.0 L 100.33333333333333 29.666666666666668 L 101.0 30.0 L 102.0 29.666666666666668 L 103.0 29.0 L 104.0 28.0 L 105.0 27.333333333333332 L 106.0 26.666666666666668 L 107.0 26.0 L 107.66666666666667 25.0 L 108.0 24.0 L 108.0 23.0 L 107.66666666666667 22.0 L 107.0 21.0 L 106.0 20.333333333333332 L 105.0 19.666666666666668 L 104.0 19.0 L 103.0 18.333333333333332 L 102.0 17.666666666666668 L 101.0 17.333333333333332 L 100.0 16.666666666666668 L 99.0 16.333333333333332 L 98.0 16.0 L 97.0 16.0 L 96.0 16.0 L 95.0 16.0 L 94.0 16.0 L 93.0 16.0 L 92.0 16.0 L 91.0 16.0 L 90.0 16.0 L 89.0 16.0 L 88.0 16.0 L 87.0 16.0 L 86.0 16.0 L 85.0 16.333333333333332 L 84.0 16.666666666666668 L 83.0 17.0 L 82.0 17.333333333333332 L 81.0 17.666666666666668 L 80.0 18.333333333333332 L 79.0 18.666666666666668 L 78.0 19.333333333333332 L 77.0 20.0 L 76.0 21.0 L 75.0 22.0 L 74.0 23.0 L 73.0 24.0 L 72.0 25.0 L 71.0 26.0 L 70.0 26.333333333333332 L 69.33333333333333 26.0 L 69.0 25.0 L 69.0 24.0 L 69.0 23.0 L 69.0 22.0 L 69.0 21.0 L 69.0 20.0 L 68.66666666666667 19.333333333333332 L 68.0 19.0 L 67.0 19.0 L 66.0 19.0 L 65.0 18.666666666666668 L 64.66666666666667 18.0 L 65.0 17.333333333333332 L 66.0 17.0 L 67.0 17.0 L 68.0 17.0 L 69.0 17.0 L 69.66666666666667 16.666666666666668 L 70.0 16.0 L 70.0 15.0 L 70.0 14.0 L 70.0 13.0 L 70.33333333333333 12.0 L 70.66666666666667 11.0 L 71.0 10.0 L 71.0 9.0 L 71.0 8.0 L 71.33333333333333 7.0 L 71.66666666666667 6.0 L 72.0 5.0 L 71.66666666666667 4.333333333333333 L 71.0 4.0 L 70.0 4.0 L 69.0 4.0 L 68.0 4.0 L 67.0 4.0 L 66.0 4.0 L 65.0 4.333333333333333 L 64.0 4.666666666666667 L 63.0 5.0 L 62.0 5.333333333333333 L 61.0 5.666666666666667 L 60.0 6.333333333333333 L 59.0 6.666666666666667 L 58.0 7.333333333333333 L 57.0 8.0 L 56.0 9.0 L 55.0 9.666666666666666 L 54.333333333333336 10.333333333333334 L 53.666666666666664 11.0 L 53.0 12.0 L 52.0 13.0 L 51.333333333333336 14.0 L 50.666666666666664 15.0 L 50.333333333333336 16.0 L 50.0 17.0 L 49.666666666666664 18.0 L 49.333333333333336 19.0 L 49.0 20.0 L 49.0 21.0 L 49.0 22.0 L 49.0 23.0 L 49.0 24.0 L 49.0 25.0 L 49.0 26.0 L 49.0 27.0 L 49.0 28.0 L 49.0 29.0 L 49.0 30.0 L 48.666666666666664 31.0 L 48.0 31.333333333333332 L 47.0 31.333333333333332 L 46.0 30.666666666666668 L 45.0 30.333333333333332 L 44.0 30.0 L 43.0 30.0 L 42.0 29.666666666666668 L 41.0 29.333333333333332 L 40.0 29.0 L 39.0 29.0 L 38.0 29.0 L 37.0 29.0 L 36.0 29.0 L 35.0 29.0 L 34.0 29.0 L 33.0 29.0 L 32.0 29.0 L 31.0 29.333333333333332 L 30.0 29.666666666666668 L 29.0 30.0 L 28.0 30.0 L 27.0 30.333333333333332 L 26.0 30.666666666666668 L 25.0 31.333333333333332 L 24.0 31.666666666666668 L 23.0 32.333333333333336 L 22.0 33.0 L 21.0 34.0 L 20.0 34.666666666666664 L 19.0 35.333333333333336 L 18.333333333333332 36.0 L 17.666666666666668 37.0 L 17.0 38.0 L 16.0 39.0 L 15.333333333333334 40.0 L 14.666666666666666 41.0 L 14.333333333333334 42.0 L 13.666666666666666 43.0 L 13.333333333333334 44.0 L 13.0 45.0 L 12.666666666666666 46.0 L 12.333333333333334 47.0 L 12.0 48.0 L 12.0 49.0 L 12.333333333333334 49.666666666666664 L 13.0 50.0 L 14.0 50.0 L 15.0 50.0 L 16.0 50.0 L 17.0 50.0 L 18.0 50.0 L 19.0 50.0 L 20.0 50.0 L 21.0 50.0 L 22.0 50.0 L 23.0 50.0 L 24.0 49.666666666666664 L 24.666666666666668 49.0 L 25.333333333333332 48.0 L 26.0 47.666666666666664 L 26.666666666666668 48.0 L 27.0 49.0 L 27.333333333333332 49.666666666666664 L 28.0 50.0 L 29.0 50.0 L 30.0 50.0 L 31.0 50.0 L 32.0 50.0 L 33.0 50.0 L 34.0 50.0 L 35.0 50.0 L 35.666666666666664 49.666666666666664 L 36.0 49.0 L 36.333333333333336 48.0 L 37.0 47.666666666666664 L 37.666666666666664 48.0 L 38.0 49.0 L 38.333333333333336 50.0 L 38.333333333333336 51.0 L 38.0 51.666666666666664 L 37.0 52.0 L 36.0 52.333333333333336 L 35.0 52.666666666666664 L 34.0 53.333333333333336 L 33.0 53.666666666666664 L 32.0 54.333333333333336 L 31.0 54.666666666666664 L 30.0 55.333333333333336 L 29.0 56.0 L 28.0 57.0 L 27.0 58.0 L 26.0 59.0 L 25.0 60.0 L 24.0 61.0 L 23.333333333333332 62.0 L 22.666666666666668 63.0 L 22.333333333333332 64.0 L 21.666666666666668 65.0 L 21.333333333333332 66.0 L 20.666666666666668 67.0 L 20.333333333333332 68.0 L 20.0 69.0 L 19.666666666666668 70.0 L 19.333333333333332 71.0 L 19.0 72.0 L 19.0 73.0 L 19.0 74.0 L 19.0 75.0 L 19.0 76.0 L 19.0 77.0 L 19.0 78.0 L 19.0 79.0 L 19.0 80.0 L 19.0 81.0 L 19.0 82.0 L 19.0 83.0 L 19.0 84.0 L 19.0 85.0 L 19.0 86.0 L 19.333333333333332 87.0 L 19.666666666666668 88.0 L 20.0 89.0 L 20.333333333333332 90.0 L 21.0 90.66666666666667 L 22.0 90.66666666666667 L 23.0 90.0 L 24.0 89.0 L 25.0 88.0 L 26.0 87.0 L 27.0 86.0 L 28.0 85.0 L 28.666666666666668 84.0 L 29.0 83.0 L 29.0 82.0 L 29.0 81.0 L 29.333333333333332 80.0 L 30.0 79.66666666666667 L 31.0 79.66666666666667 L 32.0 80.0 L 33.0 79.66666666666667 L 33.666666666666664 79.0 L 34.333333333333336 78.0 L 35.0 77.0 L 36.0 76.0 L 36.666666666666664 75.0 L 37.333333333333336 74.0 L 38.0 73.33333333333333 L 39.0 72.66666666666667 L 40.0 72.0 L 41.0 71.66666666666667 L 41.666666666666664 72.0 L 41.666666666666664 73.0 L 41.333333333333336 74.0 L 41.0 75.0 L 41.0 76.0 L 40.666666666666664 77.0 L 40.333333333333336 78.0 L 40.0 79.0 L 40.0 80.0 L 40.0 81.0 L 40.0 82.0 L 40.0 83.0 L 40.0 84.0 L 40.0 85.0 L 40.333333333333336 86.0 L 40.666666666666664 87.0 L 41.0 88.0 L 41.0 89.0 L 41.333333333333336 90.0 L 41.666666666666664 91.0 L 42.333333333333336 92.0 L 42.666666666666664 93.0 L 43.333333333333336 94.0 L 44.0 95.0 L 45.0 96.0 L 46.0 97.0 L 47.0 98.0 L 48.0 98.66666666666667 L 49.0 99.0 L 49.666666666666664 98.66666666666667 L 50.333333333333336 98.0 L 50.666666666666664 97.0 L 51.333333333333336 96.0 L 51.666666666666664 95.0 L 52.333333333333336 94.0 L 52.666666666666664 93.0 L 53.333333333333336 92.0 L 53.5 91.5 Z" stroke="none" fill="rgb(114,129,55)" />
<path d="M 89.5 125.0 L 90.0 125.0 L 91.0 124.66666666666667 L 91.66666666666667 124.0 L 92.33333333333333 123.0 L 92.66666666666667 122.0 L 93.0 121.0 L 93.0 120.0 L 92.66666666666667 119.0 L 92.33333333333333 118.0 L 92.0 117.0 L 92.0 116.0 L 92.0 115.0 L 91.66666666666667 114.33333333333333 L 91.0 114.0 L 90.0 114.0 L 89.0 114.0 L 88.0 114.0 L 87.0 114.0 L 86.0 114.0 L 85.0 114.0 L 84.0 114.0 L 83.0 114.0 L 82.0 114.0 L 81.0 114.0 L 80.0 114.0 L 79.0 114.0 L 78.0 114.0 L 77.0 113.66666666666667 L 76.0 113.33333333333333 L 75.0 113.0 L 74.0 113.0 L 73.0 113.0 L 72.0 113.0 L 71.0 113.0 L 70.33333333333333 113.33333333333333 L 69.66666666666667 114.0 L 69.33333333333333 115.0 L 69.0 116.0 L 69.0 117.0 L 69.0 118.0 L 69.0 119.0 L 69.0 120.0 L 69.0 121.0 L 69.0 122.0 L 69.33333333333333 123.0 L 70.0 123.66666666666667 L 71.0 124.0 L 72.0 124.0 L 73.0 124.0 L 74.0 124.0 L 75.0 124.33333333333333 L 76.0 124.66666666666667 L 77.0 125.0 L 78.0 125.0 L 79.0 125.0 L 80.0 125.0 L 81.0 125.0 L 82.0 125.0 L 83.0 125.0 L 84.0 125.0 L 85.0 125.0 L 86.0 125.0 L 87.0 125.0 L 88.0 125.0 L 88.5 125.0 Z" stroke="none" fill="rgb(220,129,36)" />
<path d="M 69.5 62.0 L 70.0 62.0 L 71.0 62.0 L 72.0 61.666666666666664 L 72.66666666666667 61.0 L 73.0 60.0 L 73.0 59.0 L 73.0 58.0 L 73.33333333333333 57.0 L 73.66666666666667 56.0 L 74.0 55.0 L 74.0 54.0 L 74.0 53.0 L 74.0 52.0 L 74.0 51.0 L 74.0 50.0 L 74.0 49.0 L 74.0 48.0 L 74.0 47.0 L 73.66666666666667 46.0 L 73.0 45.333333333333336 L 72.0 45.333333333333336 L 71.33333333333333 46.0 L 71.0 47.0 L 70.66666666666667 48.0 L 70.33333333333333 49.0 L 69.66666666666667 50.0 L 69.0 50.333333333333336 L 68.0 50.0 L 67.33333333333333 49.0 L 66.66666666666667 48.0 L 66.0 47.0 L 65.0 46.0 L 64.0 45.0 L 63.0 44.333333333333336 L 62.0 44.0 L 61.333333333333336 44.333333333333336 L 61.0 45.0 L 61.0 46.0 L 61.0 47.0 L 61.333333333333336 48.0 L 61.666666666666664 49.0 L 62.333333333333336 50.0 L 62.666666666666664 51.0 L 62.666666666666664 52.0 L 62.0 52.666666666666664 L 61.0 53.0 L 60.0 53.0 L 59.0 53.0 L 58.0 53.0 L 57.0 53.0 L 56.0 53.0 L 55.333333333333336 53.333333333333336 L 55.0 54.0 L 55.333333333333336 55.0 L 56.0 56.0 L 57.0 56.666666666666664 L 58.0 57.333333333333336 L 59.0 57.666666666666664 L 60.0 58.0 L 61.0 58.333333333333336 L 62.0 58.666666666666664 L 63.0 59.333333333333336 L 64.0 59.666666666666664 L 65.0 60.333333333333336 L 66.0 61.0 L 67.0 61.666666666666664 L 68.0 62.0 L 68.5 62.0 Z" stroke="none" fill="rgb(189,207,71)" />
<path d="M 79.5 70.0 L 80.0 69.66666666666667 L 81.0 69.0 L 81.66666666666667 68.0 L 82.0 67.0 L 82.0 66.0 L 81.66666666666667 65.0 L 81.33333333333333 64.0 L 81.0 63.0 L 80.66666666666667 62.0 L 80.0 61.333333333333336 L 79.0 60.666666666666664 L 78.0 60.333333333333336 L 77.0 60.0 L 76.0 59.666666666666664 L 75.0 59.333333333333336 L 74.0 59.0 L 73.33333333333333 59.333333333333336 L 72.66666666666667 60.0 L 72.0 61.0 L 71.0 61.666666666666664 L 70.0 62.0 L 69.0 62.0 L 68.0 62.0 L 67.33333333333333 62.333333333333336 L 67.0 63.0 L 66.66666666666667 64.0 L 66.33333333333333 65.0 L 66.0 66.0 L 66.0 67.0 L 66.33333333333333 68.0 L 66.66666666666667 69.0 L 67.33333333333333 70.0 L 68.0 71.0 L 69.0 72.0 L 70.0 72.66666666666667 L 71.0 73.0 L 72.0 72.66666666666667 L 73.0 72.33333333333333 L 74.0 72.0 L 75.0 72.0 L 76.0 71.66666666666667 L 77.0 71.33333333333333 L 78.0 70.66666666666667 L 78.5 70.5 Z" stroke="none" fill="rgb(162,103,43)" />
<path d="M 82.5 95.0 L 83.0 95.0 L 84.0 94.66666666666667 L 85.0 94.33333333333333 L 86.0 94.0 L 87.0 94.0 L 88.0 94.0 L 88.66666666666667 93.66666666666667 L 89.0 93.0 L 89.0 92.0 L 89.0 91.0 L 89.0 90.0 L 89.0 89.0 L 89.0 88.0 L 88.66666666666667 87.0 L 88.33333333333333 86.0 L 88.0 85.0 L 88.0 84.0 L 87.66666666666667 83.33333333333333 L 87.0 83.0 L 86.0 83.33333333333333 L 85.0 83.66666666666667 L 84.0 84.0 L 83.0 84.33333333333333 L 82.0 84.66666666666667 L 81.0 85.0 L 80.0 85.0 L 79.0 85.33333333333333 L 78.0 85.66666666666667 L 77.0 86.0 L 76.0 86.0 L 75.0 86.0 L 74.0 86.0 L 73.33333333333333 86.33333333333333 L 73.0 87.0 L 73.0 88.0 L 73.0 89.0 L 73.0 90.0 L 73.0 91.0 L 73.0 92.0 L 73.33333333333333 93.0 L 74.0 94.0 L 75.0 94.66666666666667 L 76.0 95.0 L 77.0 95.0 L 78.0 95.0 L 79.0 95.0 L 80.0 95.0 L 81.0 95.0 L 81.5 95.0 Z" stroke="none" fill="rgb(220,129,36)" />
<path d="M 83.5 109.0 L 84.0 109.0 L 85.0 109.0 L 86.0 109.0 L 87.0 109.0 L 88.0 109.0 L 89.0 109.0 L 90.0 109.0 L 90.66666666666667 108.66666666666667 L 91.0 108.0 L 91.0 107.0 L 91.0 106.0 L 90.66666666666667 105.0 L 90.33333333333333 104.0 L 90.0 103.0 L 90.0 102.0 L 90.0 101.0 L 90.0 100.0 L 89.66666666666667 99.33333333333333 L 89.0 99.0 L 88.0 99.0 L 87.0 99.33333333333333 L 86.0 99.66666666666667 L 85.0 100.0 L 84.0 100.0 L 83.0 100.0 L 82.0 100.0 L 81.0 100.0 L 80.0 100.0 L 79.0 100.0 L 78.0 100.0 L 77.0 100.0 L 76.0 100.0 L 75.0 100.0 L 74.33333333333333 100.33333333333333 L 74.0 101.0 L 74.0 102.0 L 74.0 103.0 L 73.66666666666667 104.0 L 73.33333333333333 105.0 L 73.0 106.0 L 73.33333333333333 106.66666666666667 L 74.0 107.33333333333333 L 75.0 107.66666666666667 L 76.0 108.0 L 77.0 108.0 L 78.0 108.0 L 79.0 108.33333333333333 L 80.0 108.66666666666667 L 81.0 109.0 L 82.0 109.0 L 82.5 109.0 Z" stroke="none" fill="rgb(220,129,36)" />
<path d="M 86.0 77.5 L 86.0 77.0 L 86.0 76.0 L 85.66666666666667 75.0 L 85.33333333333333 74.0 L 85.0 73.0 L 84.66666666666667 72.0 L 84.33333333333333 71.0 L 83.66666666666667 70.0 L 83.33333333333333 69.0 L 82.66666666666667 68.33333333333333 L 82.0 68.0 L 81.0 68.33333333333333 L 80.0 69.0 L 79.0 69.66666666666667 L 78.0 70.33333333333333 L 77.0 70.66666666666667 L 76.0 71.33333333333333 L 75.0 71.66666666666667 L 74.0 72.0 L 73.0 72.0 L 72.0 72.33333333333333 L 71.0 72.66666666666667 L 70.33333333333333 73.33333333333333 L 70.0 74.0 L 70.0 75.0 L 70.0 76.0 L 70.33333333333333 77.0 L 70.66666666666667 78.0 L 71.0 79.0 L 71.33333333333333 80.0 L 72.0 80.66666666666667 L 73.0 81.0 L 74.0 81.0 L 75.0 81.0 L 76.0 81.0 L 77.0 81.0 L 78.0 80.66666666666667 L 79.0 80.33333333333333 L 80.0 80.0 L 81.0 80.0 L 82.0 79.66666666666667 L 83.0 79.33333333333333 L 84.0 78.66666666666667 L 85.0 78.33333333333333 L 85.5 78.0 Z" stroke="none" fill="rgb(220,129,36)" />
<path d="M 29.5 64.5 L 30.0 64.0 L 31.0 63.0 L 32.0 62.0 L 33.0 61.0 L 34.0 60.333333333333336 L 35.0 59.666666666666664 L 36.0 59.0 L 37.0 58.333333333333336 L 38.0 57.666666666666664 L 38.666666666666664 57.0 L 39.0 56.0 L 38.666666666666664 55.333333333333336 L 38.0 55.0 L 37.0 55.333333333333336 L 36.0 55.666666666666664 L 35.0 56.333333333333336 L 34.0 56.666666666666664 L 33.0 57.333333333333336 L 32.0 58.0 L 31.0 58.666666666666664 L 30.0 59.333333333333336 L 29.0 60.0 L 28.0 61.0 L 27.0 62.0 L 26.0 63.0 L 25.333333333333332 64.0 L 24.666666666666668 65.0 L 24.333333333333332 66.0 L 23.666666666666668 67.0 L 23.333333333333332 68.0 L 23.0 69.0 L 22.666666666666668 70.0 L 22.333333333333332 71.0 L 22.0 72.0 L 22.0 73.0 L 22.0 74.0 L 22.0 75.0 L 22.0 76.0 L 22.0 77.0 L 22.0 78.0 L 22.0 79.0 L 22.0 80.0 L 22.0 81.0 L 22.0 82.0 L 22.333333333333332 83.0 L 23.0 83.66666666666667 L 24.0 84.0 L 24.666666666666668 83.66666666666667 L 25.0 83.0 L 25.333333333333332 82.0 L 25.666666666666668 81.0 L 26.0 80.0 L 26.0 79.0 L 26.0 78.0 L 26.0 77.0 L 26.0 76.0 L 26.0 75.0 L 26.0 74.0 L 26.0 73.0 L 26.0 72.0 L 26.333333333333332 71.0 L 26.666666666666668 70.0 L 27.0 69.0 L 27.333333333333332 68.0 L 27.666666666666668 67.0 L 28.333333333333332 66.0 L 28.5 65.5 Z" stroke="none" fill="rgb(189,207,71)" />
<path d="M 75.5 113.5 L 76.0 113.66666666666667 L 77.0 114.0 L 78.0 114.0 L 79.0 114.0 L 80.0 114.0 L 81.0 114.0 L 82.0 114.0 L 83.0 114.0 L 84.0 114.0 L 85.0 114.0 L 86.0 114.0 L 87.0 114.0 L 88.0 114.0 L 89.0 114.0 L 90.0 114.0 L 90.66666666666667 113.66666666666667 L 91.0 113.0 L 91.0 112.0 L 91.0 111.0 L 91.0 110.0 L 90.66666666666667 109.33333333333333 L 90.0 109.0 L 89.0 109.0 L 88.0 109.0 L 87.0 109.0 L 86.0 109.0 L 85.0 109.0 L 84.0 109.0 L 83.0 109.0 L 82.0 109.0 L 81.0 108.66666666666667 L 80.0 108.33333333333333 L 79.0 108.0 L 78.0 108.0 L 77.0 108.0 L 76.0 107.66666666666667 L 75.0 107.33333333333333 L 74.0 107.0 L 73.0 107.33333333333333 L 72.33333333333333 108.0 L 71.66666666666667 109.0 L 71.33333333333333 110.0 L 71.0 111.0 L 71.0 112.0 L 71.33333333333333 112.66666666666667 L 72.0 113.0 L 73.0 113.0 L 74.0 113.0 L 74.5 113.0 Z" stroke="none" fill="rgb(192,113,31)" />
<path d="M 22.5 44.5 L 22.666666666666668 44.0 L 23.333333333333332 43.0 L 24.0 42.0 L 25.0 41.0 L 26.0 40.0 L 27.0 39.0 L 28.0 38.333333333333336 L 29.0 37.666666666666664 L 30.0 37.333333333333336 L 31.0 36.666666666666664 L 32.0 36.333333333333336 L 33.0 35.666666666666664 L 34.0 35.333333333333336 L 35.0 35.0 L 36.0 35.0 L 37.0 34.666666666666664 L 37.666666666666664 34.0 L 38.0 33.0 L 37.666666666666664 32.333333333333336 L 37.0 32.0 L 36.0 32.0 L 35.0 32.0 L 34.0 32.0 L 33.0 32.0 L 32.0 32.333333333333336 L 31.0 32.666666666666664 L 30.0 33.0 L 29.0 33.333333333333336 L 28.0 33.666666666666664 L 27.0 34.333333333333336 L 26.0 34.666666666666664 L 25.0 35.333333333333336 L 24.0 36.0 L 23.0 37.0 L 22.0 38.0 L 21.0 39.0 L 20.0 40.0 L 19.333333333333332 41.0 L 19.0 42.0 L 18.666666666666668 43.0 L 18.333333333333332 44.0 L 18.333333333333332 45.0 L 19.0 45.666666666666664 L 20.0 46.0 L 21.0 45.666666666666664 L 21.5 45.5 Z" stroke="none" fill="rgb(189,207,71)" />
<path d="M 90.0 98.5 L 90.0 98.0 L 90.0 97.0 L 90.0 96.0 L 89.66666666666667 95.0 L 89.0 94.33333333333333 L 88.0 94.0 L 87.0 94.0 L 86.0 94.0 L 85.0 94.0 L 84.0 94.33333333333333 L 83.0 94.66666666666667 L 82.0 95.0 L 81.0 95.0 L 80.0 95.0 L 79.0 95.0 L 78.0 95.0 L 77.0 95.0 L 76.0 95.0 L 75.0 95.0 L 74.33333333333333 95.33333333333333 L 74.0 96.0 L 74.0 97.0 L 74.0 98.0 L 74.33333333333333 99.0 L 75.0 99.66666666666667 L 76.0 100.0 L 77.0 100.0 L 78.0 100.0 L 79.0 100.0 L 80.0 100.0 L 81.0 100.0 L 82.0 100.0 L 83.0 100.0 L 84.0 100.0 L 85.0 100.0 L 86.0 100.0 L 87.0 99.66666666666667 L 88.0 99.33333333333333 L 89.0 99.0 L 89.5 99.0 Z" stroke="none" fill="rgb(192,113,31)" />
<path d="M 78.5 86.0 L 79.0 85.66666666666667 L 80.0 85.33333333333333 L 81.0 85.0 L 82.0 85.0 L 83.0 84.66666666666667 L 84.0 84.33333333333333 L 85.0 84.0 L 86.0 83.66666666666667 L 86.66666666666667 83.0 L 87.0 82.0 L 87.0 81.0 L 87.0 80.0 L 87.0 79.0 L 86.66666666666667 78.33333333333333 L 86.0 78.0 L 85.0 78.0 L 84.0 78.33333333333333 L 83.0 78.66666666666667 L 82.0 79.33333333333333 L 81.0 79.66666666666667 L 80.0 80.0 L 79.0 80.0 L 78.0 80.33333333333333 L 77.0 80.66666666666667 L 76.0 81.0 L 75.0 81.0 L 74.0 81.0 L 73.0 81.0 L 72.33333333333333 81.33333333333333 L 72.0 82.0 L 72.0 83.0 L 72.0 84.0 L 72.33333333333333 85.0 L 73.0 85.66666666666667 L 74.0 86.0 L 75.0 86.0 L 76.0 86.0 L 77.0 86.0 L 77.5 86.0 Z" stroke="none" fill="rgb(192,113,31)" />
<path d="M 48.5 92.0 L 49.0 92.0 L 49.666666666666664 91.66666666666667 L 50.0 91.0 L 50.0 90.0 L 50.0 89.0 L 49.666666666666664 88.0 L 49.333333333333336 87.0 L 48.666666666666664 86.0 L 48.333333333333336 85.0 L 48.0 84.0 L 47.666666666666664 83.0 L 47.333333333333336 82.0 L 47.0 81.0 L 47.0 80.0 L 47.0 79.0 L 47.0 78.0 L 47.0 77.0 L 47.0 76.0 L 47.0 75.0 L 47.0 74.0 L 46.666666666666664 73.33333333333333 L 46.0 73.0 L 45.333333333333336 73.33333333333333 L 45.0 74.0 L 45.0 75.0 L 44.666666666666664 76.0 L 44.333333333333336 77.0 L 44.0 78.0 L 44.0 79.0 L 44.0 80.0 L 44.0 81.0 L 44.0 82.0 L 44.0 83.0 L 44.0 84.0 L 44.0 85.0 L 44.0 86.0 L 44.0 87.0 L 44.333333333333336 88.0 L 44.666666666666664 89.0 L 45.333333333333336 90.0 L 46.0 91.0 L 47.0 91.66666666666667 L 47.5 92.0 Z" stroke="none" fill="rgb(189,207,71)" />
<path d="M 55.5 32.0 L 55.666666666666664 31.666666666666668 L 56.0 31.0 L 56.0 30.0 L 56.0 29.0 L 56.0 28.0 L 56.0 27.0 L 56.0 26.0 L 56.0 25.0 L 56.0 24.0 L 56.0 23.0 L 56.0 22.0 L 56.0 21.0 L 56.0 20.0 L 56.333333333333336 19.0 L 56.666666666666664 18.0 L 57.333333333333336 17.0 L 57.666666666666664 16.0 L 57.666666666666664 15.0 L 57.0 14.333333333333334 L 56.0 14.333333333333334 L 55.0 15.0 L 54.0 16.0 L 53.333333333333336 17.0 L 53.0 18.0 L 53.0 19.0 L 53.0 20.0 L 52.666666666666664 21.0 L 52.333333333333336 22.0 L 52.0 23.0 L 52.0 24.0 L 52.0 25.0 L 52.0 26.0 L 52.0 27.0 L 52.0 28.0 L 52.0 29.0 L 52.333333333333336 30.0 L 53.0 31.0 L 54.0 31.666666666666668 L 54.5 32.0 Z" stroke="none" fill="rgb(189,207,71)" />
<path d="M 40.0 54.5 L 39.666666666666664 54.333333333333336 L 39.333333333333336 54.333333333333336 L 39.333333333333336 54.666666666666664 L 39.5 55.0 Z" stroke="none" fill="rgb(189,207,71)" />
</svg>
