<?xml version="1.0" encoding="UTF-8" standalone="no"?>
<!DOCTYPE svg PUBLIC "-//W3C//DTD SVG 1.1//EN"
"http://www.w3.org/Graphics/SVG/1.1/DTD/svg11.dtd">
<svg width="128" height="128" xmlns="http://www.w3.org/2000/svg" version="1.1">
<path d="M 26.5 128.0 L 27.0 128.0 L 28.0 128.0 L 29.0 128.0 L 30.0 128.0 L 31.0 128.0 L 32.0 128.0 L 33.0 128.0 L 34.0 128.0 L 35.0 128.0 L 36.0 128.0 L 37.0 128.0 L 38.0 128.0 L 39.0 128.0 L 40.0 128.0 L 41.0 128.0 L 42.0 128.0 L 43.0 128.0 L 44.0 128.0 L 45.0 128.0 L 46.0 128.0 L 47.0 128.0 L 48.0 128.0 L 49.0 128.0 L 50.0 128.0 L 51.0 128.0 L 52.0 128.0 L 53.0 128.0 L 54.0 128.0 L 55.0 128.0 L 56.0 128.0 L 57.0 128.0 L 58.0 128.0 L 59.0 128.0 L 60.0 128.0 L 61.0 128.0 L 62.0 128.0 L 63.0 128.0 L 64.0 128.0 L 65.0 128.0 L 66.0 128.0 L 67.0 128.0 L 68.0 128.0 L 69.0 128.0 L 70.0 128.0 L 71.0 128.0 L 72.0 128.0 L 73.0 128.0 L 74.0 128.0 L 75.0 128.0 L 76.0 128.0 L 77.0 128.0 L 78.0 128.0 L 79.0 128.0 L 80.0 128.0 L 81.0 128.0 L 82.0 128.0 L 83.0 128.0 L 84.0 128.0 L 85.0 128.0 L 86.0 128.0 L 87.0 128.0 L 88.0 128.0 L 89.0 128.0 L 90.0 128.0 L 91.0 128.0 L 92.0 128.0 L 93.0 128.0 L 94.0 128.0 L 95.0 128.0 L 96.0 128.0 L 97.0 128.0 L 98.0 128.0 L 99.0 128.0 L 100.0 128.0 L 101.0 128.0 L 102.0 128.0 L 103.0 128.0 L 104.0 128.0 L 105.0 128.0 L 106.0 128.0 L 107.0 128.0 L 108.0 128.0 L 109.0 128.0 L 110.0 128.0 L 111.0 128.0 L 112.0 128.0 L 113.0 128.0 L 114.0 128.0 L 115.0 128.0 L 116.0 128.0 L 117.0 128.0 L 118.0 128.0 L 119.0 128.0 L 120.0 128.0 L 121.0 128.0 L 122.0 128.0 L 123.0 128.0 L 124.0 128.0 L 125.0 128.0 L 126.0 128.0 L 127.0 128.0 L 127.66666666666667 127.66666666666667 L 128.0 127.0 L 128.0 126.0 L 128.0 125.0 L 128.0 124.0 L 128.0 123.0 L 128.0 122.0 L 128.0 121.0 L 128.0 120.0 L 128.0 119.0 L 128.0 118.0 L 128.0 117.0 L 128.0 116.0 L 128.0 115.0 L 128.0 114.0 L 128.0 113.0 L 128.0 112.0 L 128.0 111.0 L 128.0 110.0 L 128.0 109.0 L 128.0 108.0 L 128.0 107.0 L 128.0 106.0 L 128.0 105.0 L 128.0 104.0 L 128.0 103.0 L 128.0 102.0 L 128.0 101.0 L 128.0 100.0 L 128.0 99.0 L 128.0 98.0 L 128.0 97.0 L 128.0 96.0 L 128.0 95.0 L 128.0 94.0 L 128.0 93.0 L 128.0 92.0 L 128.0 91.0 L 128.0 90.0 L 128.0 89.0 L 128.0 88.0 L 128.0 87.0 L 128.0 86.0 L 128.0 85.0 L 128.0 84.0 L 128.0 83.0 L 128.0 82.0 L 128.0 81.0 L 128.0 80.0 L 128.0 79.0 L 128.0 78.0 L 128.0 77.0 L 128.0 76.0 L 128.0 75.0 L 128.0 74.0 L 128.0 73.0 L 128.0 72.0 L 128.0 71.0 L 128.0 70.0 L 128.0 69.0 L 128.0 68.0 L 128.0 67.0 L 128.0 66.0 L 128.0 65.0 L 128.0 64.0 L 128.0 63.0 L 128.0 62.0 L 128.0 61.0 L 128.0 60.0 L 128.0 59.0 L 128.0 58.0 L 128.0 57.0 L 128.0 56.0 L 128.0 55.0 L 128.0 54.0 L 128.0 53.0 L 128.0 52.0 L 128.0 51.0 L 128.0 50.0 L 128.0 49.0 L 128.0 48.0 L 128.0 47.0 L 128.0 46.0 L 128.0 45.0 L 128.0 44.0 L 128.0 43.0 L 128.0 42.0 L 128.0 41.0 L 128.0 40.0 L 128.0 39.0 L 128.0 38.0 L 128.0 37.0 L 128.0 36.0 L 128.0 35.0 L 128.0 34.0 L 128.0 33.0 L 128.0 32.0 L 128.0 31.0 L 128.0 30.0 L 128.0 29.0 L 128.0 28.0 L 128.0 27.0 L 128.0 26.0 L 128.0 25.0 L 128.0 24.0 L 128.0 23.0 L 128.0 22.0 L 128.0 21.0 L 128.0 20.0 L 128.0 19.0 L 128.0 18.0 L 128.0 17.0 L 128.0 16.0 L 128.0 15.0 L 128.0 14.0 L 128.0 13.0 L 128.0 12.0 L 128.0 11.0 L 128.0 10.0 L 128.0 9.0 L 128.0 8.0 L 128.0 7.0 L 128.0 6.0 L 128.0 5.0 L 128.0 4.0 L 128.0 3.0 L 128.0 2.0 L 128.0 1.0 L 127.66666666666667 0.3333333333333333 L 127.0 0.0 L 126.0 0.0 L 125.0 0.0 L 124.0 0.0 L 123.0 0.0 L 122.0 0.0 L 121.0 0.0 L 120.0 0.0 L 119.0 0.0 L 118.0 0.0 L 117.0 0.0 L 116.0 0.0 L 115.0 0.0 L 114.0 0.0 L 113.0 0.0 L 112.0 0.0 L 111.0 0.0 L 110.0 0.0 L 109.0 0.0 L 108.0 0.0 L 107.0 0.0 L 106.0 0.0 L 105.0 0.0 L 104.0 0.0 L 103.0 0.0 L 102.0 0.0 L 101.0 0.0 L 100.0 0.0 L 99.0 0.0 L 98.0 0.0 L 97.0 0.0 L 96.0 0.0 L 95.0 0.0 L 94.0 0.0 L 93.0 0.0 L 92.0 0.0 L 91.0 0.0 L 90.0 0.0 L 89.0 0.0 L 88.0 0.0 L 87.0 0.0 L 86.0 0.0 L 85.0 0.0 L 84.0 0.0 L 83.0 0.0 L 82.0 0.0 L 81.0 0.0 L 80.0 0.0 L 79.0 0.0 L 78.0 0.0 L 77.0 0.0 L 76.0 0.0 L 75.0 0.0 L 74.0 0.0 L 73.0 0.0 L 72.0 0.0 L 71.0 0.0 L 70.0 0.0 L 69.0 0.0 L 68.0 0.0 L 67.0 0.0 L 66.0 0.0 L 65.0 0.0 L 64.0 0.0 L 63.0 0.0 L 62.0 0.0 L 61.0 0.0 L 60.0 0.0 L 59.0 0.0 L 58.0 0.0 L 57.0 0.0 L 56.0 0.0 L 55.0 0.0 L 54.0 0.0 L 53.0 0.0 L 52.0 0.0 L 51.0 0.0 L 50.0 0.0 L 49.0 0.0 L 48.0 0.0 L 47.0 0.0 L 46.0 0.0 L 45.0 0.0 L 44.0 0.0 L 43.0 0.0 L 42.0 0.0 L 41.0 0.0 L 40.0 0.0 L 39.0 0.0 L 38.0 0.0 L 37.0 0.0 L 36.0 0.0 L 35.0 0.0 L 34.0 0.0 L 33.0 0.0 L 32.0 0.0 L 31.0 0.0 L 30.0 0.0 L 29.0 0.0 L 28.0 0.0 L 27.0 0.0 L 26.0 0.0 L 25.0 0.0 L 24.0 0.0 L 23.0 0.0 L 22.0 0.0 L 21.0 0.0 L 20.0 0.0 L 19.0 0.0 L 18.0 0.0 L 17.0 0.0 L 16.0 0.0 L 15.0 0.0 L 14.0 0.0 L 13.0 0.0 L 12.0 0.0 L 11.0 0.0 L 10.0 0.0 L 9.0 0.0 L 8.0 0.0 L 7.0 0.0 L 6.0 0.0 L 5.0 0.0 L 4.0 0.0 L 3.0 0.0 L 2.0 0.0 L 1.0 0.0 L 0.3333333333333333 0.3333333333333333 L 0.0 1.0 L 0.0 2.0 L 0.0 3.0 L 0.0 4.0 L 0.0 5.0 L 0.0 6.0 L 0.0 7.0 L 0.0 8.0 L 0.0 9.0 L 0.0 10.0 L 0.0 11.0 L 0.0 12.0 L 0.0 13.0 L 0.0 14.0 L 0.0 15.0 L 0.0 16.0 L 0.0 17.0 L 0.0 18.0 L 0.0 19.0 L 0.0 20.0 L 0.0 21.0 L 0.0 22.0 L 0.0 23.0 L 0.0 24.0 L 0.0 25.0 L 0.0 26.0 L 0.0 27.0 L 0.0 28.0 L 0.0 29.0 L 0.0 30.0 L 0.0 31.0 L 0.0 32.0 L 0.0 33.0 L 0.0 34.0 L 0.0 35.0 L 0.0 36.0 L 0.0 37.0 L 0.0 38.0 L 0.0 39.0 L 0.0 40.0 L 0.0 41.0 L 0.0 42.0 L 0.0 43.0 L 0.0 44.0 L 0.0 45.0 L 0.0 46.0 L 0.0 47.0 L 0.0 48.0 L 0.0 49.0 L 0.0 50.0 L 0.0 51.0 L 0.0 52.0 L 0.0 53.0 L 0.0 54.0 L 0.0 55.0 L 0.0 56.0 L 0.0 57.0 L 0.0 58.0 L 0.0 59.0 L 0.0 60.0 L 0.0 61.0 L 0.0 62.0 L 0.0 63.0 L 0.0 64.0 L 0.0 65.0 L 0.0 66.0 L 0.0 67.0 L 0.0 68.0 L 0.0 69.0 L 0.0 70.0 L 0.0 71.0 L 0.0 72.0 L 0.0 73.0 L 0.0 74.0 L 0.0 75.0 L 0.0 76.0 L 0.0 77.0 L 0.0 78.0 L 0.0 79.0 L 0.0 80.0 L 0.0 81.0 L 0.0 82.0 L 0.0 83.0 L 0.0 84.0 L 0.0 85.0 L 0.0 86.0 L 0.0 87.0 L 0.0 88.0 L 0.0 89.0 L 0.0 90.0 L 0.0 91.0 L 0.0 92.0 L 0.0 93.0 L 0.0 94.0 L 0.0 95.0 L 0.0 96.0 L 0.0 97.0 L 0.0 98.0 L 0.0 99.0 L 0.0 100.0 L 0.0 101.0 L 0.0 102.0 L 0.0 103.0 L 0.0 104.0 L 0.0 105.0 L 0.0 106.0 L 0.0 107.0 L 0.0 108.0 L 0.0 109.0 L 0.0 110.0 L 0.0 111.0 L 0.0 112.0 L 0.0 113.0 L 0.0 114.0 L 0.0 115.0 L 0.0 116.0 L 0.0 117.0 L 0.0 118.0 L 0.0 119.0 L 0.0 120.0 L 0.0 121.0 L 0.0 122.0 L 0.0 123.0 L 0.0 124.0 L 0.0 125.0 L 0.0 126.0 L 0.0 127.0 L 0.3333333333333333 127.66666666666667 L 1.0 128.0 L 2.0 128.0 L 3.0 128.0 L 4.0 128.0 L 5.0 128.0 L 6.0 128.0 L 7.0 128.0 L 8.0 128.0 L 9.0 128.0 L 10.0 128.0 L 11.0 128.0 L 12.0 128.0 L 13.0 128.0 L 14.0 128.0 L 15.0 128.0 L 16.0 128.0 L 17.0 128.0 L 18.0 128.0 L 19.0 128.0 L 20.0 128.0 L 21.0 128.0 L 22.0 128.0 L 23.0 128.0 L 24.0 128.0 L 25.0 128.0 L 25.5 128.0 Z" stroke="none" fill="rgb(255,255,255)" />
<path d="M 72.5 104.0 L 73.0 103.66666666666667 L 74.0 103.0 L 75.0 102.0 L 76.0 101.0 L 77.0 100.0 L 78.0 99.33333333333333 L 79.0 98.66666666666667 L 80.0 98.0 L 81.0 97.0 L 82.0 96.0 L 83.0 95.0 L 84.0 94.0 L 85.0 93.0 L 86.0 92.0 L 87.0 91.0 L 87.66666666666667 90.0 L 88.33333333333333 89.0 L 89.0 88.0 L 90.0 87.0 L 90.66666666666667 86.0 L 91.33333333333333 85.0 L 91.66666666666667 84.0 L 92.33333333333333 83.0 L 93.0 82.0 L 93.66666666666667 81.0 L 94.33333333333333 80.0 L 94.66666666666667 79.0 L 95.0 78.0 L 95.33333333333333 77.0 L 95.66666666666667 76.0 L 96.33333333333333 75.0 L 96.66666666666667 74.0 L 97.0 73.0 L 97.33333333333333 72.0 L 97.66666666666667 71.0 L 98.0 70.0 L 98.0 69.0 L 98.0 68.0 L 98.33333333333333 67.0 L 98.66666666666667 66.0 L 99.0 65.0 L 99.0 64.0 L 99.33333333333333 63.0 L 99.66666666666667 62.0 L 100.0 61.0 L 100.0 60.0 L 100.0 59.0 L 100.0 58.0 L 100.0 57.0 L 100.0 56.0 L 100.0 55.0 L 100.0 54.0 L 100.0 53.0 L 100.0 52.0 L 100.0 51.0 L 100.0 50.0 L 100.0 49.0 L 100.0 48.0 L 100.0 47.0 L 100.0 46.0 L 100.0 45.0 L 99.66666666666667 44.0 L 99.33333333333333 43.0 L 99.0 42.0 L 99.0 41.0 L 99.0 40.0 L 98.66666666666667 39.0 L 98.33333333333333 38.0 L 98.0 37.0 L 97.66666666666667 36.0 L 97.33333333333333 35.0 L 96.66666666666667 34.0 L 96.33333333333333 33.0 L 95.66666666666667 32.0 L 95.33333333333333 31.0 L 94.66666666666667 30.0 L 94.33333333333333 29.0 L 93.66666666666667 28.0 L 93.0 27.0 L 92.0 26.0 L 91.0 25.0 L 90.0 24.0 L 89.0 23.0 L 88.0 22.333333333333332 L 87.0 21.666666666666668 L 86.0 21.0 L 85.0 20.0 L 84.0 19.0 L 83.0 18.333333333333332 L 82.0 17.666666666666668 L 81.0 17.333333333333332 L 80.0 16.666666666666668 L 79.0 16.333333333333332 L 78.0 15.666666666666666 L 77.0 15.333333333333334 L 76.0 14.666666666666666 L 75.0 14.333333333333334 L 74.0 14.0 L 73.0 13.666666666666666 L 72.0 13.333333333333334 L 71.0 13.0 L 70.0 13.0 L 69.0 13.0 L 68.0 13.0 L 67.0 13.0 L 66.0 13.0 L 65.0 13.0 L 64.0 13.0 L 63.0 13.0 L 62.0 13.0 L 61.0 13.0 L 60.0 13.0 L 59.0 13.0 L 58.0 13.0 L 57.0 13.333333333333334 L 56.0 13.666666666666666 L 55.0 14.0 L 54.0 14.0 L 53.0 14.333333333333334 L 52.0 14.666666666666666 L 51.0 15.0 L 50.0 15.333333333333334 L 49.0 15.666666666666666 L 48.0 16.0 L 47.0 16.333333333333332 L 46.0 17.0 L 45.0 18.0 L 44.0 18.666666666666668 L 43.0 19.333333333333332 L 42.0 20.0 L 41.0 21.0 L 40.0 22.0 L 39.0 23.0 L 38.0 23.666666666666668 L 37.0 24.0 L 36.0 24.333333333333332 L 35.333333333333336 25.0 L 34.666666666666664 26.0 L 34.0 27.0 L 33.333333333333336 28.0 L 32.666666666666664 29.0 L 32.333333333333336 30.0 L 32.0 31.0 L 31.666666666666668 32.0 L 31.333333333333332 33.0 L 31.0 34.0 L 30.666666666666668 35.0 L 30.333333333333332 36.0 L 30.0 37.0 L 30.0 38.0 L 29.666666666666668 39.0 L 29.333333333333332 40.0 L 29.0 41.0 L 29.0 42.0 L 29.0 43.0 L 29.0 44.0 L 29.0 45.0 L 29.0 46.0 L 29.333333333333332 47.0 L 29.666666666666668 48.0 L 30.333333333333332 49.0 L 31.0 50.0 L 31.666666666666668 51.0 L 32.0 52.0 L 32.333333333333336 53.0 L 33.0 54.0 L 34.0 55.0 L 35.0 56.0 L 36.0 57.0 L 37.0 58.0 L 38.0 59.0 L 39.0 60.0 L 40.0 61.0 L 41.0 61.666666666666664 L 42.0 62.333333333333336 L 43.0 63.0 L 44.0 64.0 L 45.0 65.0 L 46.0 65.66666666666667 L 47.0 66.0 L 48.0 66.0 L 49.0 66.0 L 49.666666666666664 65.66666666666667 L 50.0 65.0 L 49.666666666666664 64.0 L 49.0 63.0 L 48.0 62.0 L 47.0 61.0 L 46.333333333333336 60.0 L 45.666666666666664 59.0 L 45.0 58.0 L 44.333333333333336 57.0 L 43.666666666666664 56.0 L 43.333333333333336 55.0 L 42.666666666666664 54.0 L 42.333333333333336 53.0 L 42.0 52.0 L 42.0 51.0 L 42.0 50.0 L 42.0 49.0 L 42.0 48.0 L 42.0 47.0 L 42.0 46.0 L 42.0 45.0 L 42.0 44.0 L 42.0 43.0 L 42.0 42.0 L 42.333333333333336 41.0 L 42.666666666666664 40.0 L 43.0 39.0 L 43.333333333333336 38.0 L 43.666666666666664 37.0 L 44.0 36.0 L 44.333333333333336 35.0 L 44.666666666666664 34.0 L 45.333333333333336 33.0 L 46.0 32.0 L 47.0 31.0 L 48.0 30.0 L 49.0 29.0 L 50.0 28.0 L 51.0 27.0 L 52.0 26.333333333333332 L 53.0 25.666666666666668 L 54.0 25.0 L 55.0 24.333333333333332 L 56.0 24.0 L 57.0 23.666666666666668 L 58.0 23.333333333333332 L 59.0 23.0 L 60.0 23.0 L 61.0 23.0 L 62.0 22.666666666666668 L 63.0 22.333333333333332 L 64.0 22.0 L 65.0 22.0 L 66.0 22.0 L 67.0 22.0 L 68.0 22.0 L 69.0 22.333333333333332 L 70.0 22.666666666666668 L 71.0 23.333333333333332 L 72.0 23.666666666666668 L 73.0 24.0 L 74.0 24.333333333333332 L 75.0 25.0 L 76.0 25.666666666666668 L 77.0 26.333333333333332 L 78.0 27.0 L 79.0 27.666666666666668 L 80.0 28.333333333333332 L 81.0 29.0 L 82.0 30.0 L 83.0 31.0 L 84.0 32.0 L 85.0 33.0 L 86.0 34.0 L 87.0 35.0 L 87.66666666666667 36.0 L 88.33333333333333 37.0 L 88.66666666666667 38.0 L 89.33333333333333 39.0 L 89.66666666666667 40.0 L 90.0 41.0 L 90.33333333333333 42.0 L 90.66666666666667 43.0 L 91.0 44.0 L 91.0 45.0 L 91.0 46.0 L 91.33333333333333 47.0 L 91.66666666666667 48.0 L 92.0 49.0 L 92.0 50.0 L 92.0 51.0 L 92.0 52.0 L 92.0 53.0 L 92.0 54.0 L 92.0 55.0 L 92.0 56.0 L 92.0 57.0 L 92.0 58.0 L 92.0 59.0 L 92.0 60.0 L 92.0 61.0 L 92.0 62.0 L 92.0 63.0 L 91.66666666666667 64.0 L 91.33333333333333 65.0 L 91.0 66.0 L 90.66666666666667 67.0 L 90.33333333333333 68.0 L 90.0 69.0 L 89.66666666666667 70.0 L 89.33333333333333 71.0 L 88.66666666666667 72.0 L 88.33333333333333 73.0 L 87.66666666666667 74.0 L 87.33333333333333 75.0 L 86.66666666666667 76.0 L 86.0 77.0 L 85.33333333333333 78.0 L 84.66666666666667 79.0 L 84.0 80.0 L 83.33333333333333 81.0 L 82.66666666666667 82.0 L 82.0 83.0 L 81.33333333333333 84.0 L 80.66666666666667 85.0 L 80.0 86.0 L 79.0 86.33333333333333 L 78.33333333333333 86.0 L 78.33333333333333 85.0 L 78.66666666666667 84.0 L 79.0 83.0 L 79.33333333333333 82.0 L 79.66666666666667 81.0 L 80.33333333333333 80.0 L 80.66666666666667 79.0 L 81.33333333333333 78.0 L 81.66666666666667 77.0 L 82.33333333333333 76.0 L 82.66666666666667 75.0 L 83.33333333333333 74.0 L 83.66666666666667 73.0 L 84.33333333333333 72.0 L 84.66666666666667 71.0 L 85.0 70.0 L 84.66666666666667 69.0 L 84.33333333333333 68.0 L 84.0 67.0 L 84.0 66.0 L 84.0 65.0 L 84.0 64.0 L 84.0 63.0 L 84.0 62.0 L 83.66666666666667 61.0 L 83.33333333333333 60.0 L 83.0 59.0 L 83.0 58.0 L 82.66666666666667 57.0 L 82.33333333333333 56.0 L 82.0 55.0 L 81.66666666666667 54.0 L 81.33333333333333 53.0 L 80.66666666666667 52.0 L 80.0 51.0 L 79.0 50.0 L 78.0 49.0 L 77.0 48.0 L 76.0 47.333333333333336 L 75.0 46.666666666666664 L 74.0 46.333333333333336 L 73.0 46.0 L 72.0 46.0 L 71.0 46.0 L 70.0 46.0 L 69.0 46.0 L 68.0 46.333333333333336 L 67.0 46.666666666666664 L 66.0 47.333333333333336 L 65.0 48.0 L 64.33333333333333 49.0 L 64.0 50.0 L 63.666666666666664 51.0 L 63.333333333333336 52.0 L 63.0 53.0 L 63.0 54.0 L 63.333333333333336 55.0 L 64.0 56.0 L 65.0 57.0 L 66.0 58.0 L 67.0 59.0 L 68.0 60.0 L 69.0 61.0 L 70.0 62.0 L 71.0 63.0 L 72.0 64.0 L 72.66666666666667 65.0 L 73.33333333333333 66.0 L 73.66666666666667 67.0 L 74.33333333333333 68.0 L 74.66666666666667 69.0 L 75.0 70.0 L 75.0 71.0 L 75.0 72.0 L 75.0 73.0 L 75.0 74.0 L 75.0 75.0 L 75.0 76.0 L 75.0 77.0 L 75.0 78.0 L 75.0 79.0 L 75.0 80.0 L 75.0 81.0 L 74.66666666666667 82.0 L 74.33333333333333 83.0 L 73.66666666666667 84.0 L 73.0 85.0 L 72.0 86.0 L 71.0 87.0 L 70.0 88.0 L 69.0 89.0 L 68.0 89.66666666666667 L 67.0 90.33333333333333 L 66.0 90.66666666666667 L 65.0 91.0 L 64.0 91.33333333333333 L 63.0 91.66666666666667 L 62.0 92.0 L 61.0 92.33333333333333 L 60.0 92.66666666666667 L 59.0 93.0 L 58.0 93.33333333333333 L 57.0 93.66666666666667 L 56.0 94.33333333333333 L 55.0 94.66666666666667 L 54.0 95.0 L 53.0 95.33333333333333 L 52.333333333333336 96.0 L 51.666666666666664 97.0 L 51.0 98.0 L 50.0 99.0 L 49.0 100.0 L 48.0 100.66666666666667 L 47.0 101.0 L 46.0 101.0 L 45.0 101.0 L 44.0 101.0 L 43.0 101.0 L 42.0 100.66666666666667 L 41.0 100.0 L 40.0 99.0 L 39.0 98.0 L 38.0 97.0 L 37.333333333333336 96.0 L 37.0 95.0 L 36.666666666666664 94.0 L 36.333333333333336 93.0 L 36.0 92.0 L 36.333333333333336 91.0 L 36.666666666666664 90.0 L 37.0 89.0 L 37.333333333333336 88.0 L 38.0 87.0 L 38.666666666666664 86.0 L 39.0 85.0 L 39.0 84.0 L 39.0 83.0 L 39.0 82.0 L 39.0 81.0 L 39.0 80.0 L 39.0 79.0 L 39.0 78.0 L 39.0 77.0 L 39.0 76.0 L 39.0 75.0 L 39.0 74.0 L 38.666666666666664 73.0 L 38.0 72.0 L 37.0 71.0 L 36.0 70.0 L 35.0 69.0 L 34.0 68.0 L 33.0 67.0 L 32.0 66.0 L 31.0 65.33333333333333 L 30.0 65.0 L 29.333333333333332 65.33333333333333 L 29.0 66.0 L 29.0 67.0 L 29.0 68.0 L 29.0 69.0 L 29.0 70.0 L 29.0 71.0 L 29.0 72.0 L 29.0 73.0 L 29.0 74.0 L 29.0 75.0 L 29.0 76.0 L 29.0 77.0 L 29.0 78.0 L 29.0 79.0 L 29.0 80.0 L 29.0 81.0 L 29.0 82.0 L 28.666666666666668 83.0 L 28.333333333333332 84.0 L 28.0 85.0 L 28.0 86.0 L 28.0 87.0 L 28.0 88.0 L 28.0 89.0 L 28.0 90.0 L 28.0 91.0 L 28.0 92.0 L 28.0 93.0 L 27.666666666666668 94.0 L 27.333333333333332 95.0 L 27.0 96.0 L 27.0 97.0 L 27.0 98.0 L 27.0 99.0 L 27.0 100.0 L 27.0 101.0 L 27.0 102.0 L 27.0 103.0 L 27.0 104.0 L 27.0 105.0 L 27.333333333333332 106.0 L 27.666666666666668 107.0 L 28.0 108.0 L 28.0 109.0 L 28.333333333333332 110.0 L 28.666666666666668 111.0 L 29.0 112.0 L 29.333333333333332 113.0 L 29.666666666666668 114.0 L 30.333333333333332 115.0 L 31.0 116.0 L 32.0 117.0 L 33.0 118.0 L 34.0 119.0 L 35.0 119.66666666666667 L 36.0 120.33333333333333 L 37.0 120.66666666666667 L 38.0 121.33333333333333 L 39.0 121.66666666666667 L 40.0 122.0 L 41.0 122.0 L 42.0 122.33333333333333 L 43.0 122.66666666666667 L 44.0 123.0 L 45.0 123.0 L 46.0 123.0 L 47.0 123.0 L 48.0 123.0 L 49.0 123.0 L 50.0 123.0 L 51.0 122.66666666666667 L 52.0 122.33333333333333 L 53.0 122.0 L 54.0 121.66666666666667 L 55.0 121.33333333333333 L 56.0 120.66666666666667 L 57.0 120.0 L 58.0 119.33333333333333 L 59.0 118.66666666666667 L 60.0 118.0 L 61.0 117.0 L 62.0 116.0 L 62.666666666666664 115.0 L 63.333333333333336 114.0 L 64.0 113.0 L 65.0 112.0 L 66.0 111.0 L 67.0 110.0 L 67.66666666666667 109.0 L 68.33333333333333 108.0 L 69.0 107.0 L 70.0 106.0 L 71.0 105.0 L 71.5 104.5 Z" stroke="none" fill="rgb(249,221,189)" />
<path d="M 57.5 94.0 L 58.0 93.66666666666667 L 59.0 93.33333333333333 L 60.0 93.0 L 61.0 92.66666666666667 L 62.0 92.33333333333333 L 63.0 92.0 L 64.0 91.66666666666667 L 65.0 91.33333333333333 L 66.0 91.0 L 67.0 90.66666666666667 L 68.0 90.33333333333333 L 69.0 89.66666666666667 L 70.0 89.0 L 71.0 88.0 L 72.0 87.0 L 73.0 86.0 L 73.66666666666667 85.0 L 74.33333333333333 84.0 L 74.66666666666667 83.0 L 75.0 82.0 L 75.0 81.0 L 75.0 80.0 L 75.0 79.0 L 75.0 78.0 L 75.0 77.0 L 75.0 76.0 L 75.0 75.0 L 75.0 74.0 L 75.0 73.0 L 75.0 72.0 L 75.0 71.0 L 75.0 70.0 L 75.0 69.0 L 74.66666666666667 68.0 L 74.33333333333333 67.0 L 73.66666666666667 66.0 L 73.33333333333333 65.0 L 72.66666666666667 64.0 L 72.0 63.0 L 71.0 62.0 L 70.0 61.0 L 69.0 60.0 L 68.0 59.0 L 67.0 58.0 L 66.0 57.0 L 65.0 56.0 L 64.0 55.0 L 63.0 54.333333333333336 L 62.0 53.666666666666664 L 61.0 53.0 L 60.0 52.0 L 59.0 51.0 L 58.0 50.0 L 57.0 49.0 L 56.0 48.0 L 55.0 47.0 L 54.0 46.0 L 53.333333333333336 45.0 L 52.666666666666664 44.0 L 52.333333333333336 43.0 L 51.666666666666664 42.0 L 51.333333333333336 41.0 L 51.0 40.0 L 51.0 39.0 L 51.0 38.0 L 51.0 37.0 L 51.333333333333336 36.0 L 51.666666666666664 35.0 L 52.333333333333336 34.0 L 52.666666666666664 33.0 L 53.333333333333336 32.0 L 54.0 31.333333333333332 L 55.0 30.666666666666668 L 56.0 30.333333333333332 L 57.0 29.666666666666668 L 58.0 29.333333333333332 L 59.0 28.666666666666668 L 60.0 28.333333333333332 L 61.0 28.0 L 62.0 28.0 L 63.0 28.0 L 64.0 28.0 L 65.0 28.0 L 66.0 28.0 L 67.0 28.0 L 68.0 28.0 L 69.0 28.333333333333332 L 70.0 28.666666666666668 L 71.0 29.0 L 72.0 29.333333333333332 L 73.0 29.666666666666668 L 74.0 30.333333333333332 L 75.0 31.0 L 76.0 31.666666666666668 L 77.0 32.333333333333336 L 78.0 33.0 L 79.0 34.0 L 80.0 35.0 L 81.0 36.0 L 82.0 37.0 L 83.0 38.0 L 84.0 39.0 L 84.66666666666667 40.0 L 85.33333333333333 41.0 L 85.66666666666667 42.0 L 86.33333333333333 43.0 L 86.66666666666667 44.0 L 87.0 45.0 L 87.33333333333333 46.0 L 87.66666666666667 47.0 L 88.0 48.0 L 88.0 49.0 L 88.0 50.0 L 88.0 51.0 L 88.0 52.0 L 88.0 53.0 L 88.0 54.0 L 88.0 55.0 L 88.0 56.0 L 88.0 57.0 L 88.0 58.0 L 88.0 59.0 L 88.0 60.0 L 88.0 61.0 L 87.66666666666667 62.0 L 87.33333333333333 63.0 L 87.0 64.0 L 86.66666666666667 65.0 L 86.33333333333333 66.0 L 86.0 67.0 L 85.66666666666667 68.0 L 85.33333333333333 69.0 L 84.66666666666667 70.0 L 84.33333333333333 71.0 L 83.66666666666667 72.0 L 83.33333333333333 73.0 L 82.66666666666667 74.0 L 82.33333333333333 75.0 L 81.66666666666667 76.0 L 81.33333333333333 77.0 L 80.66666666666667 78.0 L 80.33333333333333 79.0 L 79.66666666666667 80.0 L 79.33333333333333 81.0 L 79.0 82.0 L 78.66666666666667 83.0 L 78.33333333333333 84.0 L 78.0 85.0 L 77.66666666666667 86.0 L 77.33333333333333 87.0 L 77.0 88.0 L 77.33333333333333 88.66666666666667 L 78.0 89.0 L 78.66666666666667 88.66666666666667 L 79.33333333333333 88.0 L 80.0 87.0 L 80.66666666666667 86.0 L 81.33333333333333 85.0 L 82.0 84.0 L 82.66666666666667 83.0 L 83.33333333333333 82.0 L 84.0 81.0 L 84.66666666666667 80.0 L 85.33333333333333 79.0 L 86.0 78.0 L 86.66666666666667 77.0 L 87.33333333333333 76.0 L 87.66666666666667 75.0 L 88.33333333333333 74.0 L 88.66666666666667 73.0 L 89.33333333333333 72.0 L 89.66666666666667 71.0 L 90.0 70.0 L 90.33333333333333 69.0 L 90.66666666666667 68.0 L 91.0 67.0 L 91.33333333333333 66.0 L 91.66666666666667 65.0 L 92.0 64.0 L 92.0 63.0 L 92.0 62.0 L 92.0 61.0 L 92.0 60.0 L 92.0 59.0 L 92.0 58.0 L 92.0 57.0 L 92.0 56.0 L 92.0 55.0 L 92.0 54.0 L 92.0 53.0 L 92.0 52.0 L 92.0 51.0 L 92.0 50.0 L 92.0 49.0 L 92.0 48.0 L 91.66666666666667 47.0 L 91.33333333333333 46.0 L 91.0 45.0 L 91.0 44.0 L 91.0 43.0 L 90.66666666666667 42.0 L 90.33333333333333 41.0 L 90.0 40.0 L 89.66666666666667 39.0 L 89.33333333333333 38.0 L 88.66666666666667 37.0 L 88.33333333333333 36.0 L 87.66666666666667 35.0 L 87.0 34.0 L 86.0 33.0 L 85.0 32.0 L 84.0 31.0 L 83.0 30.0 L 82.0 29.0 L 81.0 28.333333333333332 L 80.0 27.666666666666668 L 79.0 27.0 L 78.0 26.333333333333332 L 77.0 25.666666666666668 L 76.0 25.0 L 75.0 24.333333333333332 L 74.0 24.0 L 73.0 23.666666666666668 L 72.0 23.333333333333332 L 71.0 22.666666666666668 L 70.0 22.333333333333332 L 69.0 22.0 L 68.0 22.0 L 67.0 22.0 L 66.0 22.0 L 65.0 22.0 L 64.0 22.0 L 63.0 22.0 L 62.0 22.333333333333332 L 61.0 22.666666666666668 L 60.0 23.0 L 59.0 23.0 L 58.0 23.0 L 57.0 23.333333333333332 L 56.0 23.666666666666668 L 55.0 24.0 L 54.0 24.333333333333332 L 53.0 25.0 L 52.0 25.666666666666668 L 51.0 26.333333333333332 L 50.0 27.0 L 49.0 28.0 L 48.0 29.0 L 47.0 30.0 L 46.0 31.0 L 45.333333333333336 32.0 L 44.666666666666664 33.0 L 44.333333333333336 34.0 L 44.0 35.0 L 43.666666666666664 36.0 L 43.333333333333336 37.0 L 43.0 38.0 L 42.666666666666664 39.0 L 42.333333333333336 40.0 L 42.0 41.0 L 42.0 42.0 L 42.0 43.0 L 42.0 44.0 L 42.0 45.0 L 42.0 46.0 L 42.0 47.0 L 42.0 48.0 L 42.0 49.0 L 42.0 50.0 L 42.0 51.0 L 42.0 52.0 L 42.0 53.0 L 42.333333333333336 54.0 L 42.666666666666664 55.0 L 43.333333333333336 56.0 L 43.666666666666664 57.0 L 44.333333333333336 58.0 L 45.0 59.0 L 45.666666666666664 60.0 L 46.333333333333336 61.0 L 47.0 62.0 L 48.0 63.0 L 49.0 64.0 L 49.666666666666664 65.0 L 50.0 66.0 L 50.333333333333336 67.0 L 51.0 68.0 L 52.0 69.0 L 53.0 69.66666666666667 L 53.666666666666664 69.66666666666667 L 54.0 69.0 L 54.0 68.0 L 54.0 67.0 L 54.0 66.0 L 53.666666666666664 65.0 L 53.333333333333336 64.0 L 52.666666666666664 63.0 L 52.0 62.0 L 51.333333333333336 61.0 L 50.666666666666664 60.0 L 50.0 59.0 L 49.333333333333336 58.0 L 48.666666666666664 57.0 L 48.333333333333336 56.0 L 47.666666666666664 55.0 L 47.333333333333336 54.0 L 46.666666666666664 53.0 L 46.333333333333336 52.0 L 46.0 51.0 L 46.0 50.0 L 45.666666666666664 49.0 L 45.333333333333336 48.0 L 45.333333333333336 47.0 L 46.0 46.666666666666664 L 47.0 47.0 L 48.0 48.0 L 49.0 49.0 L 50.0 50.0 L 51.0 51.0 L 52.0 52.0 L 53.0 53.0 L 54.0 54.0 L 55.0 55.0 L 56.0 56.0 L 57.0 57.0 L 58.0 57.666666666666664 L 59.0 58.333333333333336 L 60.0 59.0 L 61.0 60.0 L 62.0 60.666666666666664 L 63.0 61.333333333333336 L 64.0 62.0 L 65.0 63.0 L 66.0 64.0 L 67.0 65.0 L 68.0 66.0 L 68.66666666666667 67.0 L 69.33333333333333 68.0 L 69.66666666666667 69.0 L 70.33333333333333 70.0 L 70.66666666666667 71.0 L 71.0 72.0 L 71.0 73.0 L 71.0 74.0 L 71.0 75.0 L 71.0 76.0 L 71.0 77.0 L 71.0 78.0 L 71.0 79.0 L 70.66666666666667 80.0 L 70.33333333333333 81.0 L 69.66666666666667 82.0 L 69.0 83.0 L 68.0 84.0 L 67.0 85.0 L 66.0 86.0 L 65.0 87.0 L 64.0 87.66666666666667 L 63.0 88.0 L 62.0 88.33333333333333 L 61.0 88.66666666666667 L 60.0 89.33333333333333 L 59.0 89.66666666666667 L 58.0 90.0 L 57.0 90.33333333333333 L 56.0 91.0 L 55.0 92.0 L 54.0 92.66666666666667 L 53.333333333333336 93.33333333333333 L 53.0 94.0 L 53.333333333333336 94.66666666666667 L 54.0 95.0 L 55.0 95.0 L 56.0 94.66666666666667 L 56.5 94.5 Z" stroke="none" fill="rgb(237,189,131)" />
<path d="M 105.5 64.0 L 106.0 64.0 L 107.0 63.666666666666664 L 108.0 63.333333333333336 L 109.0 63.0 L 109.66666666666667 62.666666666666664 L 110.33333333333333 62.0 L 111.0 61.0 L 111.66666666666667 60.0 L 112.0 59.0 L 112.33333333333333 58.0 L 112.66666666666667 57.0 L 113.0 56.0 L 113.0 55.0 L 113.0 54.0 L 113.0 53.0 L 113.0 52.0 L 113.33333333333333 51.0 L 113.66666666666667 50.0 L 114.0 49.0 L 113.66666666666667 48.0 L 113.33333333333333 47.0 L 113.0 46.0 L 113.0 45.0 L 113.0 44.0 L 113.0 43.0 L 113.0 42.0 L 113.0 41.0 L 113.0 40.0 L 112.66666666666667 39.0 L 112.33333333333333 38.0 L 112.0 37.0 L 111.66666666666667 36.0 L 111.33333333333333 35.0 L 111.0 34.0 L 110.66666666666667 33.0 L 110.33333333333333 32.0 L 109.66666666666667 31.0 L 109.33333333333333 30.0 L 108.66666666666667 29.0 L 108.0 28.0 L 107.0 27.0 L 106.33333333333333 26.0 L 105.66666666666667 25.0 L 105.0 24.0 L 104.0 23.0 L 103.0 22.333333333333332 L 102.0 21.666666666666668 L 101.0 21.0 L 100.0 20.0 L 99.0 19.0 L 98.0 18.0 L 97.0 17.0 L 96.0 16.0 L 95.0 15.333333333333334 L 94.0 14.666666666666666 L 93.0 14.0 L 92.0 13.333333333333334 L 91.0 12.666666666666666 L 90.0 12.333333333333334 L 89.0 12.0 L 88.0 11.666666666666666 L 87.0 11.333333333333334 L 86.0 10.666666666666666 L 85.0 10.333333333333334 L 84.0 9.666666666666666 L 83.0 9.333333333333334 L 82.0 9.0 L 81.0 8.666666666666666 L 80.0 8.333333333333334 L 79.0 7.666666666666667 L 78.0 7.333333333333333 L 77.0 7.0 L 76.0 7.0 L 75.0 6.666666666666667 L 74.0 6.333333333333333 L 73.0 6.0 L 72.0 6.0 L 71.0 6.0 L 70.0 5.666666666666667 L 69.0 5.333333333333333 L 68.0 5.0 L 67.0 5.0 L 66.0 5.0 L 65.0 5.0 L 64.0 5.0 L 63.0 5.0 L 62.0 5.0 L 61.0 5.0 L 60.0 5.0 L 59.0 5.0 L 58.0 5.0 L 57.0 5.0 L 56.0 5.0 L 55.0 5.0 L 54.0 5.0 L 53.0 5.333333333333333 L 52.0 5.666666666666667 L 51.0 6.0 L 50.0 6.0 L 49.0 6.0 L 48.0 6.333333333333333 L 47.0 6.666666666666667 L 46.0 7.0 L 45.0 7.0 L 44.0 7.0 L 43.333333333333336 7.333333333333333 L 43.0 8.0 L 43.333333333333336 9.0 L 43.666666666666664 10.0 L 44.0 11.0 L 44.333333333333336 12.0 L 44.666666666666664 13.0 L 45.333333333333336 14.0 L 46.0 15.0 L 47.0 15.666666666666666 L 48.0 16.0 L 49.0 16.0 L 50.0 15.666666666666666 L 51.0 15.333333333333334 L 52.0 15.0 L 53.0 14.666666666666666 L 54.0 14.333333333333334 L 55.0 14.0 L 56.0 14.0 L 57.0 13.666666666666666 L 58.0 13.333333333333334 L 59.0 13.0 L 60.0 13.0 L 61.0 13.0 L 62.0 13.0 L 63.0 13.0 L 64.0 13.0 L 65.0 13.0 L 66.0 13.0 L 67.0 13.0 L 67.66666666666667 12.666666666666666 L 68.33333333333333 12.0 L 69.0 11.333333333333334 L 70.0 11.0 L 71.0 11.0 L 72.0 11.0 L 73.0 11.0 L 74.0 11.333333333333334 L 75.0 11.666666666666666 L 76.0 12.0 L 77.0 12.333333333333334 L 78.0 12.666666666666666 L 79.0 13.333333333333334 L 80.0 13.666666666666666 L 81.0 14.333333333333334 L 82.0 15.0 L 83.0 15.666666666666666 L 84.0 16.333333333333332 L 85.0 17.0 L 86.0 18.0 L 87.0 18.666666666666668 L 88.0 19.333333333333332 L 89.0 20.0 L 90.0 21.0 L 91.0 22.0 L 92.0 23.0 L 93.0 24.0 L 94.0 25.0 L 94.66666666666667 26.0 L 95.33333333333333 27.0 L 95.66666666666667 28.0 L 96.33333333333333 29.0 L 97.0 30.0 L 97.66666666666667 31.0 L 98.33333333333333 32.0 L 98.66666666666667 33.0 L 99.0 34.0 L 99.33333333333333 35.0 L 99.66666666666667 36.0 L 100.0 37.0 L 100.33333333333333 38.0 L 100.66666666666667 39.0 L 101.0 40.0 L 101.33333333333333 41.0 L 101.66666666666667 42.0 L 102.0 43.0 L 102.0 44.0 L 102.0 45.0 L 102.33333333333333 46.0 L 102.66666666666667 47.0 L 103.0 48.0 L 103.0 49.0 L 103.0 50.0 L 103.0 51.0 L 103.0 52.0 L 103.0 53.0 L 103.0 54.0 L 103.0 55.0 L 103.0 56.0 L 103.0 57.0 L 103.0 58.0 L 103.0 59.0 L 103.0 60.0 L 103.0 61.0 L 103.0 62.0 L 103.0 63.0 L 103.33333333333333 63.666666666666664 L 104.0 64.0 L 104.5 64.0 Z" stroke="none" fill="rgb(176,190,197)" />
<path d="M 53.5 46.5 L 54.0 47.0 L 55.0 48.0 L 56.0 49.0 L 57.0 50.0 L 58.0 51.0 L 59.0 52.0 L 60.0 53.0 L 61.0 53.666666666666664 L 62.0 54.0 L 62.666666666666664 53.666666666666664 L 63.333333333333336 53.0 L 63.666666666666664 52.0 L 64.0 51.0 L 64.33333333333333 50.0 L 65.0 49.0 L 66.0 48.0 L 67.0 47.333333333333336 L 68.0 46.666666666666664 L 69.0 46.333333333333336 L 70.0 46.0 L 71.0 46.0 L 72.0 46.0 L 73.0 46.333333333333336 L 74.0 46.666666666666664 L 75.0 47.333333333333336 L 76.0 48.0 L 77.0 49.0 L 78.0 50.0 L 79.0 51.0 L 80.0 52.0 L 80.66666666666667 53.0 L 81.33333333333333 54.0 L 81.66666666666667 55.0 L 82.0 56.0 L 82.33333333333333 57.0 L 82.66666666666667 58.0 L 83.0 59.0 L 83.0 60.0 L 83.33333333333333 61.0 L 83.66666666666667 62.0 L 84.0 63.0 L 84.0 64.0 L 84.0 65.0 L 84.0 66.0 L 84.0 67.0 L 84.0 68.0 L 84.33333333333333 68.66666666666667 L 85.0 69.0 L 85.66666666666667 68.66666666666667 L 86.0 68.0 L 86.33333333333333 67.0 L 86.66666666666667 66.0 L 87.0 65.0 L 87.33333333333333 64.0 L 87.66666666666667 63.0 L 88.0 62.0 L 88.0 61.0 L 88.0 60.0 L 88.0 59.0 L 88.0 58.0 L 88.0 57.0 L 88.0 56.0 L 88.0 55.0 L 88.0 54.0 L 88.0 53.0 L 88.0 52.0 L 88.0 51.0 L 88.0 50.0 L 88.0 49.0 L 88.0 48.0 L 88.0 47.0 L 87.66666666666667 46.0 L 87.33333333333333 45.0 L 87.0 44.0 L 86.66666666666667 43.0 L 86.33333333333333 42.0 L 85.66666666666667 41.0 L 85.33333333333333 40.0 L 84.66666666666667 39.0 L 84.0 38.0 L 83.0 37.0 L 82.0 36.0 L 81.0 35.0 L 80.0 34.0 L 79.0 33.0 L 78.0 32.333333333333336 L 77.0 31.666666666666668 L 76.0 31.0 L 75.0 30.333333333333332 L 74.0 29.666666666666668 L 73.0 29.333333333333332 L 72.0 29.0 L 71.0 28.666666666666668 L 70.0 28.333333333333332 L 69.0 28.0 L 68.0 28.0 L 67.0 28.0 L 66.0 28.0 L 65.0 28.0 L 64.0 28.0 L 63.0 28.0 L 62.0 28.0 L 61.0 28.0 L 60.0 28.0 L 59.0 28.333333333333332 L 58.0 28.666666666666668 L 57.0 29.333333333333332 L 56.0 29.666666666666668 L 55.0 30.333333333333332 L 54.0 30.666666666666668 L 53.333333333333336 31.333333333333332 L 52.666666666666664 32.0 L 52.333333333333336 33.0 L 51.666666666666664 34.0 L 51.333333333333336 35.0 L 51.0 36.0 L 51.0 37.0 L 51.0 38.0 L 51.0 39.0 L 51.0 40.0 L 51.0 41.0 L 51.333333333333336 42.0 L 51.666666666666664 43.0 L 52.333333333333336 44.0 L 52.666666666666664 45.0 L 53.0 45.5 Z" stroke="none" fill="rgb(255,210,156)" />
<path d="M 59.5 90.0 L 60.0 89.66666666666667 L 61.0 89.33333333333333 L 62.0 88.66666666666667 L 63.0 88.33333333333333 L 64.0 88.0 L 65.0 87.66666666666667 L 66.0 87.0 L 67.0 86.0 L 68.0 85.0 L 69.0 84.0 L 69.66666666666667 83.0 L 70.33333333333333 82.0 L 70.66666666666667 81.0 L 71.0 80.0 L 71.0 79.0 L 71.0 78.0 L 71.0 77.0 L 71.0 76.0 L 71.0 75.0 L 71.0 74.0 L 71.0 73.0 L 71.0 72.0 L 71.0 71.0 L 70.66666666666667 70.0 L 70.33333333333333 69.0 L 69.66666666666667 68.0 L 69.33333333333333 67.0 L 68.66666666666667 66.0 L 68.0 65.0 L 67.0 64.0 L 66.0 63.0 L 65.0 62.0 L 64.0 61.333333333333336 L 63.0 60.666666666666664 L 62.0 60.0 L 61.0 59.0 L 60.0 58.333333333333336 L 59.0 57.666666666666664 L 58.0 57.0 L 57.0 56.0 L 56.0 55.0 L 55.0 54.0 L 54.0 53.0 L 53.0 52.0 L 52.0 51.0 L 51.0 50.0 L 50.0 49.0 L 49.0 48.0 L 48.0 47.0 L 47.0 46.333333333333336 L 46.0 46.0 L 45.333333333333336 46.333333333333336 L 45.0 47.0 L 45.0 48.0 L 45.333333333333336 49.0 L 45.666666666666664 50.0 L 46.0 51.0 L 46.0 52.0 L 46.333333333333336 53.0 L 46.666666666666664 54.0 L 47.333333333333336 55.0 L 47.666666666666664 56.0 L 48.333333333333336 57.0 L 48.666666666666664 58.0 L 49.333333333333336 59.0 L 50.0 60.0 L 50.666666666666664 61.0 L 51.333333333333336 62.0 L 52.0 63.0 L 52.666666666666664 64.0 L 53.333333333333336 65.0 L 53.666666666666664 66.0 L 54.0 67.0 L 54.0 68.0 L 54.0 69.0 L 54.0 70.0 L 54.333333333333336 71.0 L 55.0 72.0 L 55.666666666666664 73.0 L 56.0 74.0 L 56.0 75.0 L 56.0 76.0 L 56.0 77.0 L 56.0 78.0 L 56.0 79.0 L 56.0 80.0 L 55.666666666666664 81.0 L 55.0 82.0 L 54.0 83.0 L 53.0 84.0 L 52.0 85.0 L 51.0 86.0 L 50.0 87.0 L 49.0 87.66666666666667 L 48.333333333333336 88.33333333333333 L 47.666666666666664 89.0 L 47.0 90.0 L 46.0 91.0 L 45.0 92.0 L 44.0 93.0 L 43.0 93.66666666666667 L 42.0 94.33333333333333 L 41.0 94.66666666666667 L 40.0 95.0 L 39.0 95.0 L 38.0 95.0 L 37.333333333333336 95.33333333333333 L 37.0 96.0 L 37.333333333333336 97.0 L 38.0 98.0 L 39.0 99.0 L 40.0 100.0 L 41.0 100.66666666666667 L 42.0 101.0 L 43.0 101.0 L 44.0 101.0 L 45.0 101.0 L 46.0 101.0 L 47.0 101.0 L 48.0 101.0 L 49.0 100.66666666666667 L 50.0 100.0 L 51.0 99.0 L 51.666666666666664 98.0 L 52.333333333333336 97.0 L 52.666666666666664 96.0 L 53.0 95.0 L 53.333333333333336 94.0 L 54.0 93.33333333333333 L 55.0 92.66666666666667 L 56.0 92.0 L 57.0 91.0 L 58.0 90.33333333333333 L 58.5 90.0 Z" stroke="none" fill="rgb(255,210,156)" />
<path d="M 101.5 70.0 L 102.0 69.66666666666667 L 103.0 69.33333333333333 L 104.0 68.66666666666667 L 105.0 68.33333333333333 L 106.0 67.66666666666667 L 107.0 67.0 L 108.0 66.0 L 108.66666666666667 65.0 L 109.0 64.0 L 108.66666666666667 63.333333333333336 L 108.0 63.0 L 107.0 63.333333333333336 L 106.0 63.666666666666664 L 105.0 64.0 L 104.0 63.666666666666664 L 103.33333333333333 63.0 L 103.0 62.0 L 103.0 61.0 L 103.0 60.0 L 103.0 59.0 L 103.0 58.0 L 103.0 57.0 L 103.0 56.0 L 103.0 55.0 L 103.0 54.0 L 103.0 53.0 L 103.0 52.0 L 103.0 51.0 L 103.0 50.0 L 103.0 49.0 L 103.0 48.0 L 103.0 47.0 L 102.66666666666667 46.0 L 102.33333333333333 45.0 L 102.0 44.0 L 102.0 43.0 L 102.0 42.0 L 101.66666666666667 41.0 L 101.33333333333333 40.0 L 101.0 39.0 L 100.66666666666667 38.0 L 100.33333333333333 37.0 L 100.0 36.0 L 99.66666666666667 35.0 L 99.33333333333333 34.0 L 99.0 33.0 L 98.66666666666667 32.0 L 98.33333333333333 31.0 L 97.66666666666667 30.0 L 97.0 29.0 L 96.33333333333333 28.0 L 95.66666666666667 27.0 L 95.33333333333333 26.0 L 94.66666666666667 25.0 L 94.0 24.0 L 93.0 23.0 L 92.0 22.0 L 91.0 21.0 L 90.0 20.0 L 89.0 19.333333333333332 L 88.0 18.666666666666668 L 87.0 18.0 L 86.0 17.0 L 85.0 16.333333333333332 L 84.0 15.666666666666666 L 83.0 15.0 L 82.0 14.333333333333334 L 81.0 13.666666666666666 L 80.0 13.333333333333334 L 79.0 12.666666666666666 L 78.0 12.333333333333334 L 77.0 12.0 L 76.0 11.666666666666666 L 75.0 11.333333333333334 L 74.0 11.0 L 73.0 11.0 L 72.0 11.0 L 71.0 11.0 L 70.0 11.0 L 69.0 11.0 L 68.33333333333333 11.333333333333334 L 68.0 12.0 L 68.33333333333333 12.666666666666666 L 69.0 13.0 L 70.0 13.0 L 71.0 13.333333333333334 L 72.0 13.666666666666666 L 73.0 14.0 L 74.0 14.333333333333334 L 75.0 14.666666666666666 L 76.0 15.333333333333334 L 77.0 15.666666666666666 L 78.0 16.333333333333332 L 79.0 16.666666666666668 L 80.0 17.333333333333332 L 81.0 17.666666666666668 L 82.0 18.333333333333332 L 83.0 19.0 L 84.0 20.0 L 85.0 21.0 L 86.0 21.666666666666668 L 87.0 22.333333333333332 L 88.0 23.0 L 89.0 24.0 L 90.0 25.0 L 91.0 26.0 L 92.0 27.0 L 93.0 28.0 L 93.66666666666667 29.0 L 94.33333333333333 30.0 L 94.66666666666667 31.0 L 95.33333333333333 32.0 L 95.66666666666667 33.0 L 96.33333333333333 34.0 L 96.66666666666667 35.0 L 97.33333333333333 36.0 L 97.66666666666667 37.0 L 98.0 38.0 L 98.33333333333333 39.0 L 98.66666666666667 40.0 L 99.0 41.0 L 99.0 42.0 L 99.0 43.0 L 99.33333333333333 44.0 L 99.66666666666667 45.0 L 100.0 46.0 L 100.0 47.0 L 100.0 48.0 L 100.0 49.0 L 100.0 50.0 L 100.0 51.0 L 100.0 52.0 L 100.0 53.0 L 100.0 54.0 L 100.0 55.0 L 100.0 56.0 L 100.0 57.0 L 100.0 58.0 L 100.0 59.0 L 100.0 60.0 L 99.66666666666667 61.0 L 99.33333333333333 62.0 L 99.0 63.0 L 99.0 64.0 L 98.66666666666667 65.0 L 98.33333333333333 66.0 L 98.0 67.0 L 98.0 68.0 L 98.0 69.0 L 98.33333333333333 69.66666666666667 L 99.0 70.0 L 100.0 70.0 L 100.5 70.0 Z" stroke="none" fill="rgb(96,125,139)" />
<path d="M 42.5 80.5 L 42.666666666666664 81.0 L 43.333333333333336 82.0 L 44.0 83.0 L 45.0 83.66666666666667 L 46.0 84.0 L 47.0 84.0 L 48.0 84.0 L 49.0 84.0 L 50.0 84.33333333333333 L 51.0 84.66666666666667 L 52.0 85.0 L 53.0 84.66666666666667 L 54.0 84.0 L 55.0 83.0 L 55.666666666666664 82.0 L 56.0 81.0 L 56.0 80.0 L 56.0 79.0 L 56.0 78.0 L 56.0 77.0 L 56.0 76.0 L 56.0 75.0 L 56.0 74.0 L 56.0 73.0 L 55.666666666666664 72.0 L 55.0 71.0 L 54.0 70.0 L 53.0 69.0 L 52.0 68.0 L 51.0 67.0 L 50.0 66.33333333333333 L 49.0 66.0 L 48.0 66.0 L 47.0 66.0 L 46.0 66.33333333333333 L 45.0 67.0 L 44.0 68.0 L 43.0 69.0 L 42.0 70.0 L 41.333333333333336 71.0 L 41.0 72.0 L 41.0 73.0 L 41.0 74.0 L 41.0 75.0 L 41.0 76.0 L 41.0 77.0 L 41.333333333333336 78.0 L 41.666666666666664 79.0 L 42.0 79.5 Z" stroke="none" fill="rgb(176,190,197)" />
<path d="M 21.5 54.5 L 21.666666666666668 55.0 L 22.333333333333332 56.0 L 23.0 57.0 L 24.0 58.0 L 24.666666666666668 59.0 L 25.333333333333332 60.0 L 26.0 61.0 L 27.0 62.0 L 28.0 63.0 L 29.0 64.0 L 30.0 65.0 L 31.0 66.0 L 32.0 67.0 L 33.0 68.0 L 34.0 69.0 L 35.0 69.66666666666667 L 35.666666666666664 69.66666666666667 L 36.0 69.0 L 36.0 68.0 L 35.666666666666664 67.0 L 35.0 66.0 L 34.0 65.0 L 33.0 64.0 L 32.0 63.0 L 31.0 62.0 L 30.0 61.0 L 29.333333333333332 60.0 L 28.666666666666668 59.0 L 28.0 58.0 L 27.0 57.0 L 26.0 56.0 L 25.0 55.0 L 24.333333333333332 54.0 L 23.666666666666668 53.0 L 23.0 52.0 L 22.333333333333332 51.0 L 21.666666666666668 50.0 L 21.333333333333332 49.0 L 20.666666666666668 48.0 L 20.333333333333332 47.0 L 19.666666666666668 46.0 L 19.333333333333332 45.0 L 19.0 44.0 L 19.0 43.0 L 19.0 42.0 L 19.0 41.0 L 19.0 40.0 L 19.0 39.0 L 19.0 38.0 L 19.0 37.0 L 19.0 36.0 L 19.0 35.0 L 19.0 34.0 L 19.0 33.0 L 19.0 32.0 L 19.333333333333332 31.0 L 19.666666666666668 30.0 L 20.0 29.0 L 20.0 28.0 L 20.333333333333332 27.0 L 20.666666666666668 26.0 L 21.333333333333332 25.0 L 21.666666666666668 24.0 L 22.333333333333332 23.0 L 23.0 22.0 L 24.0 21.0 L 25.0 20.0 L 26.0 19.0 L 27.0 18.0 L 28.0 17.0 L 29.0 16.333333333333332 L 30.0 15.666666666666666 L 31.0 15.0 L 31.666666666666668 14.0 L 32.0 13.0 L 31.666666666666668 12.333333333333334 L 31.0 12.0 L 30.0 12.333333333333334 L 29.0 12.666666666666666 L 28.0 13.333333333333334 L 27.0 14.0 L 26.0 15.0 L 25.0 15.666666666666666 L 24.333333333333332 16.333333333333332 L 23.666666666666668 17.0 L 23.0 18.0 L 22.0 19.0 L 21.333333333333332 20.0 L 20.666666666666668 21.0 L 20.333333333333332 22.0 L 19.666666666666668 23.0 L 19.333333333333332 24.0 L 18.666666666666668 25.0 L 18.333333333333332 26.0 L 18.0 27.0 L 17.666666666666668 28.0 L 17.333333333333332 29.0 L 17.0 30.0 L 17.0 31.0 L 17.0 32.0 L 17.0 33.0 L 17.0 34.0 L 16.666666666666668 35.0 L 16.333333333333332 36.0 L 16.0 37.0 L 16.333333333333332 38.0 L 16.666666666666668 39.0 L 17.0 40.0 L 17.0 41.0 L 17.0 42.0 L 17.0 43.0 L 17.0 44.0 L 17.333333333333332 45.0 L 17.666666666666668 46.0 L 18.0 47.0 L 18.333333333333332 48.0 L 18.666666666666668 49.0 L 19.0 50.0 L 19.333333333333332 51.0 L 20.0 52.0 L 20.666666666666668 53.0 L 21.0 53.5 Z" stroke="none" fill="rgb(40,135,198)" />
<path d="M 107.5 53.0 L 108.0 53.0 L 109.0 53.0 L 110.0 52.666666666666664 L 110.66666666666667 52.0 L 111.0 51.0 L 111.0 50.0 L 111.0 49.0 L 111.0 48.0 L 111.0 47.0 L 111.0 46.0 L 111.0 45.0 L 111.0 44.0 L 110.66666666666667 43.0 L 110.33333333333333 42.0 L 110.0 41.0 L 110.0 40.0 L 109.66666666666667 39.0 L 109.33333333333333 38.0 L 109.0 37.0 L 108.66666666666667 36.0 L 108.33333333333333 35.0 L 107.66666666666667 34.0 L 107.33333333333333 33.0 L 106.66666666666667 32.0 L 106.33333333333333 31.0 L 105.66666666666667 30.0 L 105.33333333333333 29.0 L 104.66666666666667 28.0 L 104.0 27.0 L 103.0 26.0 L 102.0 25.0 L 101.0 24.0 L 100.0 23.0 L 99.0 22.0 L 98.0 21.333333333333332 L 97.0 21.0 L 96.33333333333333 21.333333333333332 L 96.0 22.0 L 96.33333333333333 23.0 L 97.0 24.0 L 98.0 25.0 L 98.66666666666667 26.0 L 99.33333333333333 27.0 L 99.66666666666667 28.0 L 100.33333333333333 29.0 L 100.66666666666667 30.0 L 101.0 31.0 L 101.33333333333333 32.0 L 101.66666666666667 33.0 L 102.0 34.0 L 102.33333333333333 35.0 L 102.66666666666667 36.0 L 103.0 37.0 L 103.0 38.0 L 103.33333333333333 39.0 L 103.66666666666667 40.0 L 104.0 41.0 L 104.0 42.0 L 104.0 43.0 L 104.0 44.0 L 104.33333333333333 45.0 L 104.66666666666667 46.0 L 105.0 47.0 L 105.0 48.0 L 105.0 49.0 L 105.33333333333333 50.0 L 105.66666666666667 51.0 L 106.33333333333333 52.0 L 106.5 52.5 Z" stroke="none" fill="rgb(201,227,230)" />
<path d="M 34.5 21.0 L 35.0 21.333333333333332 L 35.666666666666664 22.0 L 36.0 23.0 L 36.333333333333336 23.666666666666668 L 37.0 24.0 L 38.0 24.0 L 39.0 23.666666666666668 L 40.0 23.0 L 41.0 22.0 L 42.0 21.0 L 43.0 20.0 L 44.0 19.333333333333332 L 45.0 18.666666666666668 L 46.0 18.0 L 46.666666666666664 17.0 L 47.0 16.0 L 46.666666666666664 15.0 L 46.0 14.0 L 45.333333333333336 13.0 L 44.666666666666664 12.0 L 44.333333333333336 11.0 L 44.0 10.0 L 43.666666666666664 9.0 L 43.0 8.333333333333334 L 42.0 8.0 L 41.0 8.0 L 40.0 8.0 L 39.0 8.0 L 38.0 8.333333333333334 L 37.0 8.666666666666666 L 36.0 9.0 L 35.0 9.333333333333334 L 34.0 9.666666666666666 L 33.333333333333336 10.333333333333334 L 32.666666666666664 11.0 L 32.333333333333336 12.0 L 32.0 13.0 L 32.333333333333336 14.0 L 32.666666666666664 15.0 L 33.0 16.0 L 33.0 17.0 L 33.333333333333336 18.0 L 33.666666666666664 19.0 L 34.0 20.0 L 34.0 20.5 Z" stroke="none" fill="rgb(120,144,156)" />
<path d="M 23.5 49.5 L 23.666666666666668 50.0 L 24.333333333333332 51.0 L 24.666666666666668 52.0 L 25.333333333333332 53.0 L 26.0 54.0 L 27.0 55.0 L 27.666666666666668 56.0 L 28.333333333333332 57.0 L 28.666666666666668 58.0 L 29.333333333333332 59.0 L 30.0 60.0 L 31.0 61.0 L 32.0 62.0 L 33.0 63.0 L 34.0 64.0 L 35.0 65.0 L 36.0 65.66666666666667 L 37.0 66.0 L 38.0 65.66666666666667 L 38.666666666666664 65.0 L 39.0 64.0 L 38.666666666666664 63.0 L 38.0 62.0 L 37.0 61.0 L 36.0 60.0 L 35.0 59.0 L 34.0 58.0 L 33.0 57.0 L 32.333333333333336 56.0 L 31.666666666666668 55.0 L 31.0 54.0 L 30.0 53.0 L 29.333333333333332 52.0 L 29.0 51.0 L 28.666666666666668 50.0 L 28.0 49.0 L 27.0 48.0 L 26.333333333333332 47.0 L 25.666666666666668 46.0 L 25.333333333333332 45.0 L 25.0 44.0 L 24.666666666666668 43.0 L 24.333333333333332 42.0 L 24.0 41.0 L 24.0 40.0 L 24.0 39.0 L 24.0 38.0 L 24.0 37.0 L 24.0 36.0 L 24.0 35.0 L 24.0 34.0 L 24.0 33.0 L 23.666666666666668 32.333333333333336 L 23.0 32.0 L 22.333333333333332 32.333333333333336 L 22.0 33.0 L 21.666666666666668 34.0 L 21.0 35.0 L 20.333333333333332 36.0 L 20.333333333333332 37.0 L 20.666666666666668 38.0 L 21.0 39.0 L 21.0 40.0 L 21.0 41.0 L 21.0 42.0 L 21.0 43.0 L 21.333333333333332 44.0 L 21.666666666666668 45.0 L 22.0 46.0 L 22.333333333333332 47.0 L 22.666666666666668 48.0 L 23.0 48.5 Z" stroke="none" fill="rgb(84,110,122)" />
<path d="M 30.5 51.5 L 31.0 51.666666666666664 L 31.666666666666668 51.666666666666664 L 32.0 51.0 L 31.666666666666668 50.0 L 31.0 49.0 L 30.333333333333332 48.0 L 29.666666666666668 47.0 L 29.0 46.0 L 28.0 45.0 L 27.333333333333332 44.0 L 27.0 43.0 L 27.0 42.0 L 27.0 41.0 L 27.0 40.0 L 27.0 39.0 L 27.0 38.0 L 27.0 37.0 L 27.0 36.0 L 27.0 35.0 L 27.0 34.0 L 27.333333333333332 33.0 L 27.666666666666668 32.0 L 28.0 31.0 L 28.0 30.0 L 28.333333333333332 29.0 L 28.666666666666668 28.0 L 29.333333333333332 27.0 L 30.0 26.0 L 31.0 25.0 L 31.666666666666668 24.0 L 32.0 23.0 L 32.0 22.0 L 31.666666666666668 21.333333333333332 L 31.0 21.333333333333332 L 30.0 22.0 L 29.0 23.0 L 28.0 24.0 L 27.0 25.0 L 26.0 26.0 L 25.333333333333332 27.0 L 25.0 28.0 L 25.0 29.0 L 25.0 30.0 L 24.666666666666668 31.0 L 24.333333333333332 32.0 L 24.0 33.0 L 24.0 34.0 L 24.0 35.0 L 24.0 36.0 L 24.0 37.0 L 24.0 38.0 L 24.0 39.0 L 24.0 40.0 L 24.0 41.0 L 24.0 42.0 L 24.333333333333332 43.0 L 24.666666666666668 44.0 L 25.0 45.0 L 25.333333333333332 46.0 L 25.666666666666668 47.0 L 26.333333333333332 48.0 L 27.0 49.0 L 28.0 50.0 L 29.0 50.666666666666664 L 29.5 51.0 Z" stroke="none" fill="rgb(185,228,234)" />
<path d="M 21.5 35.5 L 21.666666666666668 35.0 L 22.0 34.0 L 22.333333333333332 33.0 L 23.0 32.333333333333336 L 24.0 32.0 L 24.666666666666668 31.666666666666668 L 25.0 31.0 L 25.0 30.0 L 25.0 29.0 L 25.0 28.0 L 25.0 27.0 L 25.0 26.0 L 25.333333333333332 25.0 L 25.666666666666668 24.0 L 26.333333333333332 23.0 L 27.0 22.0 L 28.0 21.0 L 29.0 20.0 L 29.666666666666668 19.0 L 30.0 18.0 L 30.0 17.0 L 29.666666666666668 16.333333333333332 L 29.0 16.0 L 28.0 16.333333333333332 L 27.0 17.0 L 26.0 18.0 L 25.0 19.0 L 24.0 20.0 L 23.0 21.0 L 22.333333333333332 22.0 L 21.666666666666668 23.0 L 21.333333333333332 24.0 L 20.666666666666668 25.0 L 20.333333333333332 26.0 L 20.0 27.0 L 20.0 28.0 L 19.666666666666668 29.0 L 19.333333333333332 30.0 L 19.0 31.0 L 19.0 32.0 L 19.0 33.0 L 19.0 34.0 L 19.0 35.0 L 19.333333333333332 35.666666666666664 L 20.0 36.0 L 20.5 36.0 Z" stroke="none" fill="rgb(252,253,254)" />
<path d="M 45.5 92.5 L 46.0 92.0 L 47.0 91.0 L 47.666666666666664 90.0 L 48.0 89.0 L 47.666666666666664 88.0 L 47.0 87.33333333333333 L 46.0 87.0 L 45.0 87.0 L 44.0 87.0 L 43.0 87.0 L 42.0 86.66666666666667 L 41.0 86.33333333333333 L 40.0 86.0 L 39.0 86.0 L 38.0 86.33333333333333 L 37.333333333333336 87.0 L 37.0 88.0 L 36.666666666666664 89.0 L 36.333333333333336 90.0 L 36.0 91.0 L 36.0 92.0 L 36.0 93.0 L 36.333333333333336 94.0 L 37.0 94.66666666666667 L 38.0 95.0 L 39.0 95.0 L 40.0 95.0 L 41.0 95.0 L 42.0 94.66666666666667 L 43.0 94.33333333333333 L 44.0 93.66666666666667 L 44.5 93.5 Z" stroke="none" fill="rgb(237,189,131)" />
<path d="M 42.5 87.0 L 43.0 87.0 L 44.0 87.0 L 45.0 87.0 L 46.0 87.33333333333333 L 47.0 87.66666666666667 L 48.0 88.0 L 49.0 88.0 L 50.0 87.66666666666667 L 51.0 87.0 L 51.666666666666664 86.0 L 51.666666666666664 85.0 L 51.0 84.33333333333333 L 50.0 84.0 L 49.0 84.0 L 48.0 84.0 L 47.0 84.0 L 46.0 83.66666666666667 L 45.0 83.0 L 44.0 82.0 L 43.333333333333336 81.0 L 42.666666666666664 80.0 L 42.333333333333336 79.0 L 41.666666666666664 78.0 L 41.333333333333336 77.0 L 41.0 76.0 L 41.0 75.0 L 40.666666666666664 74.33333333333333 L 40.0 74.0 L 39.333333333333336 74.33333333333333 L 39.0 75.0 L 39.0 76.0 L 39.0 77.0 L 39.0 78.0 L 39.0 79.0 L 39.0 80.0 L 39.0 81.0 L 39.0 82.0 L 39.0 83.0 L 39.0 84.0 L 39.0 85.0 L 39.333333333333336 85.66666666666667 L 40.0 86.33333333333333 L 41.0 86.66666666666667 L 41.5 87.0 Z" stroke="none" fill="rgb(96,125,139)" />
<path d="M 39.5 74.0 L 40.0 74.0 L 40.666666666666664 73.66666666666667 L 41.0 73.0 L 41.333333333333336 72.0 L 42.0 71.0 L 43.0 70.0 L 44.0 69.0 L 45.0 68.0 L 45.666666666666664 67.0 L 46.0 66.0 L 45.666666666666664 65.0 L 45.0 64.0 L 44.0 63.0 L 43.0 62.333333333333336 L 42.0 62.0 L 41.0 62.333333333333336 L 40.0 63.0 L 39.0 64.0 L 38.0 65.0 L 37.0 66.0 L 36.333333333333336 67.0 L 36.0 68.0 L 36.0 69.0 L 36.0 70.0 L 36.333333333333336 71.0 L 37.0 72.0 L 38.0 73.0 L 38.5 73.5 Z" stroke="none" fill="rgb(120,144,156)" />
<path d="M 23.5 53.5 L 23.666666666666668 54.0 L 24.333333333333332 55.0 L 25.0 56.0 L 26.0 57.0 L 27.0 58.0 L 28.0 58.666666666666664 L 28.666666666666668 58.666666666666664 L 29.0 58.0 L 28.666666666666668 57.0 L 28.333333333333332 56.0 L 27.666666666666668 55.0 L 27.0 54.0 L 26.0 53.0 L 25.333333333333332 52.0 L 24.666666666666668 51.0 L 24.333333333333332 50.0 L 23.666666666666668 49.0 L 23.333333333333332 48.0 L 22.666666666666668 47.0 L 22.333333333333332 46.0 L 22.0 45.0 L 21.666666666666668 44.0 L 21.333333333333332 43.0 L 21.0 42.0 L 21.0 41.0 L 21.0 40.0 L 21.0 39.0 L 21.0 38.0 L 20.666666666666668 37.0 L 20.0 36.333333333333336 L 19.333333333333332 36.333333333333336 L 19.0 37.0 L 19.0 38.0 L 19.0 39.0 L 19.0 40.0 L 19.0 41.0 L 19.0 42.0 L 19.0 43.0 L 19.0 44.0 L 19.0 45.0 L 19.333333333333332 46.0 L 19.666666666666668 47.0 L 20.333333333333332 48.0 L 20.666666666666668 49.0 L 21.333333333333332 50.0 L 21.666666666666668 51.0 L 22.333333333333332 52.0 L 22.5 52.5 Z" stroke="none" fill="rgb(185,228,234)" />
<path d="M 33.5 25.5 L 34.0 25.0 L 35.0 24.0 L 35.666666666666664 23.0 L 36.0 22.0 L 35.666666666666664 21.333333333333332 L 35.0 21.0 L 34.0 21.333333333333332 L 33.0 21.666666666666668 L 32.333333333333336 22.333333333333332 L 31.666666666666668 23.0 L 31.0 24.0 L 30.0 25.0 L 29.333333333333332 26.0 L 28.666666666666668 27.0 L 28.333333333333332 28.0 L 28.0 29.0 L 28.0 30.0 L 27.666666666666668 31.0 L 27.333333333333332 32.0 L 27.0 33.0 L 27.0 34.0 L 27.0 35.0 L 27.0 36.0 L 27.0 37.0 L 27.0 38.0 L 27.0 39.0 L 27.0 40.0 L 27.0 41.0 L 27.0 42.0 L 27.0 43.0 L 27.0 44.0 L 27.333333333333332 45.0 L 28.0 45.666666666666664 L 28.666666666666668 45.666666666666664 L 29.0 45.0 L 29.0 44.0 L 29.0 43.0 L 28.666666666666668 42.0 L 28.333333333333332 41.0 L 28.0 40.0 L 28.0 39.0 L 28.0 38.0 L 28.0 37.0 L 28.0 36.0 L 28.333333333333332 35.0 L 28.666666666666668 34.0 L 29.0 33.0 L 29.333333333333332 32.0 L 29.666666666666668 31.0 L 30.333333333333332 30.0 L 30.666666666666668 29.0 L 31.333333333333332 28.0 L 32.0 27.0 L 32.5 26.5 Z" stroke="none" fill="rgb(40,135,198)" />
<path d="M 31.0 35.5 L 31.0 35.0 L 31.333333333333332 34.0 L 31.666666666666668 33.0 L 32.0 32.0 L 32.333333333333336 31.0 L 32.666666666666664 30.0 L 33.333333333333336 29.0 L 34.0 28.0 L 34.666666666666664 27.0 L 35.333333333333336 26.0 L 35.666666666666664 25.0 L 36.0 24.0 L 35.666666666666664 23.333333333333332 L 35.0 23.333333333333332 L 34.0 24.0 L 33.0 25.0 L 32.0 26.0 L 31.333333333333332 27.0 L 30.666666666666668 28.0 L 30.333333333333332 29.0 L 29.666666666666668 30.0 L 29.333333333333332 31.0 L 29.0 32.0 L 28.666666666666668 33.0 L 28.333333333333332 34.0 L 28.0 35.0 L 28.0 36.0 L 28.0 37.0 L 28.0 38.0 L 28.0 39.0 L 28.0 40.0 L 28.0 41.0 L 28.333333333333332 41.666666666666664 L 28.666666666666668 41.666666666666664 L 29.333333333333332 41.0 L 29.666666666666668 40.0 L 30.0 39.0 L 30.0 38.0 L 30.333333333333332 37.0 L 30.5 36.5 Z" stroke="none" fill="rgb(255,255,255)" />
<path d="M 33.5 58.5 L 34.0 59.0 L 35.0 60.0 L 36.0 61.0 L 37.0 62.0 L 38.0 63.0 L 39.0 63.666666666666664 L 40.0 63.666666666666664 L 40.666666666666664 63.0 L 41.0 62.0 L 40.666666666666664 61.0 L 40.0 60.0 L 39.0 59.0 L 38.0 58.0 L 37.0 57.0 L 36.0 56.0 L 35.0 55.0 L 34.0 54.0 L 33.0 53.0 L 32.0 52.0 L 31.0 51.333333333333336 L 30.0 51.0 L 29.333333333333332 51.333333333333336 L 29.0 52.0 L 29.333333333333332 53.0 L 30.0 54.0 L 31.0 55.0 L 31.666666666666668 56.0 L 32.333333333333336 57.0 L 32.5 57.5 Z" stroke="none" fill="rgb(208,223,216)" />
<path d="M 27.5 25.5 L 28.0 25.0 L 29.0 24.0 L 30.0 23.0 L 31.0 22.333333333333332 L 32.0 22.0 L 33.0 22.0 L 33.666666666666664 21.666666666666668 L 34.0 21.0 L 34.0 20.0 L 34.0 19.0 L 33.666666666666664 18.0 L 33.0 17.333333333333332 L 32.0 17.0 L 31.0 17.0 L 30.333333333333332 17.333333333333332 L 29.666666666666668 18.0 L 29.0 19.0 L 28.0 20.0 L 27.0 21.0 L 26.333333333333332 22.0 L 25.666666666666668 23.0 L 25.333333333333332 24.0 L 25.0 25.0 L 25.0 26.0 L 25.333333333333332 26.666666666666668 L 26.0 26.666666666666668 L 26.5 26.5 Z" stroke="none" fill="rgb(84,110,122)" />
<path d="M 82.5 9.5 L 83.0 9.666666666666666 L 84.0 10.333333333333334 L 85.0 10.666666666666666 L 86.0 11.333333333333334 L 87.0 11.666666666666666 L 88.0 11.666666666666666 L 88.66666666666667 11.0 L 89.0 10.0 L 89.0 9.0 L 88.66666666666667 8.0 L 88.0 7.0 L 87.0 6.333333333333333 L 86.0 5.666666666666667 L 85.0 5.333333333333333 L 84.0 5.0 L 83.0 5.0 L 82.0 5.333333333333333 L 81.0 6.0 L 80.33333333333333 7.0 L 80.0 8.0 L 80.33333333333333 8.666666666666666 L 81.0 9.0 L 81.5 9.0 Z" stroke="none" fill="rgb(0,0,0)" />
<path d="M 98.5 19.5 L 99.0 20.0 L 100.0 21.0 L 101.0 21.666666666666668 L 102.0 22.0 L 103.0 21.666666666666668 L 104.0 21.333333333333332 L 105.0 21.0 L 106.0 21.0 L 106.66666666666667 20.666666666666668 L 106.66666666666667 20.0 L 106.0 19.0 L 105.0 18.333333333333332 L 104.0 17.666666666666668 L 103.0 17.333333333333332 L 102.0 17.0 L 101.0 17.0 L 100.0 17.0 L 99.0 17.0 L 98.0 17.0 L 97.33333333333333 17.333333333333332 L 97.33333333333333 18.0 L 97.5 18.5 Z" stroke="none" fill="rgb(0,0,0)" />
<path d="M 107.5 28.5 L 108.0 28.666666666666668 L 108.66666666666667 28.666666666666668 L 109.0 28.0 L 109.0 27.0 L 109.0 26.0 L 109.0 25.0 L 109.0 24.0 L 108.66666666666667 23.0 L 108.33333333333333 22.0 L 107.66666666666667 21.333333333333332 L 107.0 21.0 L 106.0 21.0 L 105.0 21.0 L 104.0 21.0 L 103.33333333333333 21.333333333333332 L 103.0 22.0 L 103.33333333333333 23.0 L 104.0 24.0 L 105.0 25.0 L 105.66666666666667 26.0 L 106.33333333333333 27.0 L 106.5 27.5 Z" stroke="none" fill="rgb(96,125,139)" />
<path d="M 42.5 14.5 L 42.666666666666664 14.0 L 43.0 13.0 L 43.0 12.0 L 42.666666666666664 11.333333333333334 L 42.0 11.0 L 41.0 11.0 L 40.0 11.0 L 39.0 11.0 L 38.0 11.333333333333334 L 37.0 11.666666666666666 L 36.0 12.333333333333334 L 35.333333333333336 13.0 L 35.0 14.0 L 35.333333333333336 14.666666666666666 L 36.0 15.0 L 37.0 15.0 L 38.0 15.0 L 39.0 15.0 L 40.0 15.0 L 41.0 15.0 L 41.5 15.0 Z" stroke="none" fill="rgb(201,227,230)" />
<path d="M 36.5 67.0 L 36.666666666666664 66.66666666666667 L 36.666666666666664 66.0 L 36.0 65.0 L 35.0 64.0 L 34.0 63.0 L 33.0 62.0 L 32.0 61.0 L 31.0 60.0 L 30.0 59.333333333333336 L 29.333333333333332 59.333333333333336 L 29.0 60.0 L 29.333333333333332 61.0 L 30.0 62.0 L 31.0 63.0 L 32.0 64.0 L 33.0 65.0 L 34.0 66.0 L 35.0 66.66666666666667 L 35.5 67.0 Z" stroke="none" fill="rgb(208,223,216)" />
<path d="M 33.0 16.5 L 33.0 16.0 L 33.0 15.0 L 32.666666666666664 14.333333333333334 L 32.0 14.0 L 31.0 14.333333333333334 L 30.333333333333332 15.0 L 30.0 16.0 L 30.333333333333332 16.666666666666668 L 31.0 17.0 L 32.0 17.0 L 32.5 17.0 Z" stroke="none" fill="rgb(185,228,234)" />
<path d="M 33.0 11.5 L 32.666666666666664 11.333333333333334 L 32.333333333333336 11.333333333333334 L 32.333333333333336 11.666666666666666 L 32.5 12.0 Z" stroke="none" fill="rgb(0,0,0)" />
<path d="M 111.0 61.5 L 110.66666666666667 61.333333333333336 L 110.33333333333333 61.333333333333336 L 110.33333333333333 61.666666666666664 L 110.5 62.0 Z" stroke="none" fill="rgb(0,0,0)" />
<path d="M 109.5 64.0 L 109.66666666666667 63.666666666666664 L 109.66666666666667 63.333333333333336 L 109.33333333333333 63.333333333333336 L 109.0 63.5 Z" stroke="none" fill="rgb(0,0,0)" />
<path d="M 30.0 64.5 L 29.666666666666668 64.33333333333333 L 29.333333333333332 64.33333333333333 L 29.333333333333332 64.66666666666667 L 29.5 65.0 Z" stroke="none" fill="rgb(0,0,0)" />
<path d="M 98.5 71.0 L 98.66666666666667 70.66666666666667 L 98.66666666666667 70.33333333333333 L 98.33333333333333 70.33333333333333 L 98.0 70.5 Z" stroke="none" fill="rgb(0,0,0)" />
</svg>
