<?xml version="1.0" encoding="UTF-8" standalone="no"?>
<!DOCTYPE svg PUBLIC "-//W3C//DTD SVG 1.1//EN"
"http://www.w3.org/Graphics/SVG/1.1/DTD/svg11.dtd">
<svg width="128" height="128" xmlns="http://www.w3.org/2000/svg" version="1.1">
<path d="M 26.5 128.0 L 27.0 128.0 L 28.0 128.0 L 29.0 128.0 L 30.0 128.0 L 31.0 128.0 L 32.0 128.0 L 33.0 128.0 L 34.0 128.0 L 35.0 128.0 L 36.0 128.0 L 37.0 128.0 L 38.0 128.0 L 39.0 128.0 L 40.0 128.0 L 41.0 128.0 L 42.0 128.0 L 43.0 128.0 L 44.0 128.0 L 45.0 128.0 L 46.0 128.0 L 47.0 128.0 L 48.0 128.0 L 49.0 128.0 L 50.0 128.0 L 51.0 128.0 L 52.0 128.0 L 53.0 128.0 L 54.0 128.0 L 55.0 128.0 L 56.0 128.0 L 57.0 128.0 L 58.0 128.0 L 59.0 128.0 L 60.0 128.0 L 61.0 128.0 L 62.0 128.0 L 63.0 128.0 L 64.0 128.0 L 65.0 128.0 L 66.0 128.0 L 67.0 128.0 L 68.0 128.0 L 69.0 128.0 L 70.0 128.0 L 71.0 128.0 L 72.0 128.0 L 73.0 128.0 L 74.0 128.0 L 75.0 128.0 L 76.0 128.0 L 77.0 128.0 L 78.0 128.0 L 79.0 128.0 L 80.0 128.0 L 81.0 128.0 L 82.0 128.0 L 83.0 128.0 L 84.0 128.0 L 85.0 128.0 L 86.0 128.0 L 87.0 128.0 L 88.0 128.0 L 89.0 128.0 L 90.0 128.0 L 91.0 128.0 L 92.0 128.0 L 93.0 128.0 L 94.0 128.0 L 95.0 128.0 L 96.0 128.0 L 97.0 128.0 L 98.0 128.0 L 99.0 128.0 L 100.0 128.0 L 101.0 128.0 L 102.0 128.0 L 103.0 128.0 L 104.0 128.0 L 105.0 128.0 L 106.0 128.0 L 107.0 128.0 L 108.0 128.0 L 109.0 128.0 L 110.0 128.0 L 111.0 128.0 L 112.0 128.0 L 113.0 128.0 L 114.0 128.0 L 115.0 128.0 L 116.0 128.0 L 117.0 128.0 L 118.0 128.0 L 119.0 128.0 L 120.0 128.0 L 121.0 128.0 L 122.0 128.0 L 123.0 128.0 L 124.0 128.0 L 125.0 128.0 L 126.0 128.0 L 127.0 128.0 L 127.66666666666667 127.66666666666667 L 128.0 127.0 L 128.0 126.0 L 128.0 125.0 L 128.0 124.0 L 128.0 123.0 L 128.0 122.0 L 128.0 121.0 L 128.0 120.0 L 128.0 119.0 L 128.0 118.0 L 128.0 117.0 L 128.0 116.0 L 128.0 115.0 L 128.0 114.0 L 128.0 113.0 L 128.0 112.0 L 128.0 111.0 L 128.0 110.0 L 128.0 109.0 L 128.0 108.0 L 128.0 107.0 L 128.0 106.0 L 128.0 105.0 L 128.0 104.0 L 128.0 103.0 L 128.0 102.0 L 128.0 101.0 L 128.0 100.0 L 128.0 99.0 L 128.0 98.0 L 128.0 97.0 L 128.0 96.0 L 128.0 95.0 L 128.0 94.0 L 128.0 93.0 L 128.0 92.0 L 128.0 91.0 L 128.0 90.0 L 128.0 89.0 L 128.0 88.0 L 128.0 87.0 L 128.0 86.0 L 128.0 85.0 L 128.0 84.0 L 128.0 83.0 L 128.0 82.0 L 128.0 81.0 L 128.0 80.0 L 128.0 79.0 L 128.0 78.0 L 128.0 77.0 L 128.0 76.0 L 128.0 75.0 L 128.0 74.0 L 128.0 73.0 L 128.0 72.0 L 128.0 71.0 L 128.0 70.0 L 128.0 69.0 L 128.0 68.0 L 128.0 67.0 L 128.0 66.0 L 128.0 65.0 L 128.0 64.0 L 128.0 63.0 L 128.0 62.0 L 128.0 61.0 L 128.0 60.0 L 128.0 59.0 L 128.0 58.0 L 128.0 57.0 L 128.0 56.0 L 128.0 55.0 L 128.0 54.0 L 128.0 53.0 L 128.0 52.0 L 128.0 51.0 L 128.0 50.0 L 128.0 49.0 L 128.0 48.0 L 128.0 47.0 L 128.0 46.0 L 128.0 45.0 L 128.0 44.0 L 128.0 43.0 L 128.0 42.0 L 128.0 41.0 L 128.0 40.0 L 128.0 39.0 L 128.0 38.0 L 128.0 37.0 L 128.0 36.0 L 128.0 35.0 L 128.0 34.0 L 128.0 33.0 L 128.0 32.0 L 128.0 31.0 L 128.0 30.0 L 128.0 29.0 L 128.0 28.0 L 128.0 27.0 L 128.0 26.0 L 128.0 25.0 L 128.0 24.0 L 128.0 23.0 L 128.0 22.0 L 128.0 21.0 L 128.0 20.0 L 128.0 19.0 L 128.0 18.0 L 128.0 17.0 L 128.0 16.0 L 128.0 15.0 L 128.0 14.0 L 128.0 13.0 L 128.0 12.0 L 128.0 11.0 L 128.0 10.0 L 128.0 9.0 L 128.0 8.0 L 128.0 7.0 L 128.0 6.0 L 128.0 5.0 L 128.0 4.0 L 128.0 3.0 L 128.0 2.0 L 128.0 1.0 L 127.66666666666667 0.3333333333333333 L 127.0 0.0 L 126.0 0.0 L 125.0 0.0 L 124.0 0.0 L 123.0 0.0 L 122.0 0.0 L 121.0 0.0 L 120.0 0.0 L 119.0 0.0 L 118.0 0.0 L 117.0 0.0 L 116.0 0.0 L 115.0 0.0 L 114.0 0.0 L 113.0 0.0 L 112.0 0.0 L 111.0 0.0 L 110.0 0.0 L 109.0 0.0 L 108.0 0.0 L 107.0 0.0 L 106.0 0.0 L 105.0 0.0 L 104.0 0.0 L 103.0 0.0 L 102.0 0.0 L 101.0 0.0 L 100.0 0.0 L 99.0 0.0 L 98.0 0.0 L 97.0 0.0 L 96.0 0.0 L 95.0 0.0 L 94.0 0.0 L 93.0 0.0 L 92.0 0.0 L 91.0 0.0 L 90.0 0.0 L 89.0 0.0 L 88.0 0.0 L 87.0 0.0 L 86.0 0.0 L 85.0 0.0 L 84.0 0.0 L 83.0 0.0 L 82.0 0.0 L 81.0 0.0 L 80.0 0.0 L 79.0 0.0 L 78.0 0.0 L 77.0 0.0 L 76.0 0.0 L 75.0 0.0 L 74.0 0.0 L 73.0 0.0 L 72.0 0.0 L 71.0 0.0 L 70.0 0.0 L 69.0 0.0 L 68.0 0.0 L 67.0 0.0 L 66.0 0.0 L 65.0 0.0 L 64.0 0.0 L 63.0 0.0 L 62.0 0.0 L 61.0 0.0 L 60.0 0.0 L 59.0 0.0 L 58.0 0.0 L 57.0 0.0 L 56.0 0.0 L 55.0 0.0 L 54.0 0.0 L 53.0 0.0 L 52.0 0.0 L 51.0 0.0 L 50.0 0.0 L 49.0 0.0 L 48.0 0.0 L 47.0 0.0 L 46.0 0.0 L 45.0 0.0 L 44.0 0.0 L 43.0 0.0 L 42.0 0.0 L 41.0 0.0 L 40.0 0.0 L 39.0 0.0 L 38.0 0.0 L 37.0 0.0 L 36.0 0.0 L 35.0 0.0 L 34.0 0.0 L 33.0 0.0 L 32.0 0.0 L 31.0 0.0 L 30.0 0.0 L 29.0 0.0 L 28.0 0.0 L 27.0 0.0 L 26.0 0.0 L 25.0 0.0 L 24.0 0.0 L 23.0 0.0 L 22.0 0.0 L 21.0 0.0 L 20.0 0.0 L 19.0 0.0 L 18.0 0.0 L 17.0 0.0 L 16.0 0.0 L 15.0 0.0 L 14.0 0.0 L 13.0 0.0 L 12.0 0.0 L 11.0 0.0 L 10.0 0.0 L 9.0 0.0 L 8.0 0.0 L 7.0 0.0 L 6.0 0.0 L 5.0 0.0 L 4.0 0.0 L 3.0 0.0 L 2.0 0.0 L 1.0 0.0 L 0.3333333333333333 0.3333333333333333 L 0.0 1.0 L 0.0 2.0 L 0.0 3.0 L 0.0 4.0 L 0.0 5.0 L 0.0 6.0 L 0.0 7.0 L 0.0 8.0 L 0.0 9.0 L 0.0 10.0 L 0.0 11.0 L 0.0 12.0 L 0.0 13.0 L 0.0 14.0 L 0.0 15.0 L 0.0 16.0 L 0.0 17.0 L 0.0 18.0 L 0.0 19.0 L 0.0 20.0 L 0.0 21.0 L 0.0 22.0 L 0.0 23.0 L 0.0 24.0 L 0.0 25.0 L 0.0 26.0 L 0.0 27.0 L 0.0 28.0 L 0.0 29.0 L 0.0 30.0 L 0.0 31.0 L 0.0 32.0 L 0.0 33.0 L 0.0 34.0 L 0.0 35.0 L 0.0 36.0 L 0.0 37.0 L 0.0 38.0 L 0.0 39.0 L 0.0 40.0 L 0.0 41.0 L 0.0 42.0 L 0.0 43.0 L 0.0 44.0 L 0.0 45.0 L 0.0 46.0 L 0.0 47.0 L 0.0 48.0 L 0.0 49.0 L 0.0 50.0 L 0.0 51.0 L 0.0 52.0 L 0.0 53.0 L 0.0 54.0 L 0.0 55.0 L 0.0 56.0 L 0.0 57.0 L 0.0 58.0 L 0.0 59.0 L 0.0 60.0 L 0.0 61.0 L 0.0 62.0 L 0.0 63.0 L 0.0 64.0 L 0.0 65.0 L 0.0 66.0 L 0.0 67.0 L 0.0 68.0 L 0.0 69.0 L 0.0 70.0 L 0.0 71.0 L 0.0 72.0 L 0.0 73.0 L 0.0 74.0 L 0.0 75.0 L 0.0 76.0 L 0.0 77.0 L 0.0 78.0 L 0.0 79.0 L 0.0 80.0 L 0.0 81.0 L 0.0 82.0 L 0.0 83.0 L 0.0 84.0 L 0.0 85.0 L 0.0 86.0 L 0.0 87.0 L 0.0 88.0 L 0.0 89.0 L 0.0 90.0 L 0.0 91.0 L 0.0 92.0 L 0.0 93.0 L 0.0 94.0 L 0.0 95.0 L 0.0 96.0 L 0.0 97.0 L 0.0 98.0 L 0.0 99.0 L 0.0 100.0 L 0.0 101.0 L 0.0 102.0 L 0.0 103.0 L 0.0 104.0 L 0.0 105.0 L 0.0 106.0 L 0.0 107.0 L 0.0 108.0 L 0.0 109.0 L 0.0 110.0 L 0.0 111.0 L 0.0 112.0 L 0.0 113.0 L 0.0 114.0 L 0.0 115.0 L 0.0 116.0 L 0.0 117.0 L 0.0 118.0 L 0.0 119.0 L 0.0 120.0 L 0.0 121.0 L 0.0 122.0 L 0.0 123.0 L 0.0 124.0 L 0.0 125.0 L 0.0 126.0 L 0.0 127.0 L 0.3333333333333333 127.66666666666667 L 1.0 128.0 L 2.0 128.0 L 3.0 128.0 L 4.0 128.0 L 5.0 128.0 L 6.0 128.0 L 7.0 128.0 L 8.0 128.0 L 9.0 128.0 L 10.0 128.0 L 11.0 128.0 L 12.0 128.0 L 13.0 128.0 L 14.0 128.0 L 15.0 128.0 L 16.0 128.0 L 17.0 128.0 L 18.0 128.0 L 19.0 128.0 L 20.0 128.0 L 21.0 128.0 L 22.0 128.0 L 23.0 128.0 L 24.0 128.0 L 25.0 128.0 L 25.5 128.0 Z" stroke="none" fill="rgb(255,255,255)" />
<path d="M 29.5 82.0 L 30.0 82.0 L 31.0 82.0 L 32.0 82.0 L 33.0 82.33333333333333 L 34.0 82.66666666666667 L 35.0 83.0 L 36.0 83.33333333333333 L 37.0 83.66666666666667 L 38.0 84.33333333333333 L 39.0 84.66666666666667 L 40.0 85.33333333333333 L 41.0 85.66666666666667 L 42.0 86.33333333333333 L 43.0 87.0 L 44.0 87.66666666666667 L 45.0 88.33333333333333 L 46.0 89.0 L 47.0 90.0 L 48.0 91.0 L 49.0 92.0 L 50.0 93.0 L 51.0 94.0 L 52.0 95.0 L 53.0 96.0 L 53.666666666666664 97.0 L 54.333333333333336 98.0 L 54.666666666666664 99.0 L 55.333333333333336 100.0 L 56.0 100.66666666666667 L 57.0 101.0 L 58.0 101.0 L 59.0 101.0 L 60.0 100.66666666666667 L 61.0 100.33333333333333 L 62.0 100.0 L 63.0 100.0 L 64.0 100.0 L 65.0 100.0 L 66.0 100.0 L 67.0 100.0 L 68.0 100.0 L 69.0 100.0 L 70.0 100.0 L 71.0 100.0 L 72.0 100.0 L 73.0 99.66666666666667 L 74.0 99.0 L 75.0 98.0 L 76.0 97.0 L 77.0 96.0 L 77.66666666666667 95.0 L 78.33333333333333 94.0 L 79.0 93.0 L 80.0 92.0 L 81.0 91.0 L 82.0 90.33333333333333 L 83.0 89.66666666666667 L 84.0 89.0 L 85.0 88.33333333333333 L 86.0 87.66666666666667 L 87.0 87.0 L 88.0 86.33333333333333 L 89.0 85.66666666666667 L 90.0 85.33333333333333 L 91.0 84.66666666666667 L 92.0 84.33333333333333 L 93.0 84.0 L 94.0 83.66666666666667 L 95.0 83.33333333333333 L 96.0 83.0 L 97.0 83.0 L 98.0 82.66666666666667 L 99.0 82.33333333333333 L 100.0 82.0 L 101.0 82.0 L 102.0 82.0 L 103.0 82.0 L 104.0 82.0 L 105.0 82.0 L 106.0 82.0 L 107.0 82.0 L 108.0 82.0 L 109.0 82.0 L 110.0 82.0 L 111.0 82.0 L 112.0 82.0 L 113.0 82.33333333333333 L 114.0 82.66666666666667 L 115.0 83.0 L 116.0 83.0 L 116.66666666666667 82.66666666666667 L 117.0 82.0 L 117.0 81.0 L 117.0 80.0 L 116.66666666666667 79.0 L 116.33333333333333 78.0 L 115.66666666666667 77.0 L 115.33333333333333 76.0 L 114.66666666666667 75.0 L 114.33333333333333 74.0 L 114.0 73.0 L 113.66666666666667 72.0 L 113.33333333333333 71.0 L 112.66666666666667 70.0 L 112.33333333333333 69.0 L 112.0 68.0 L 111.66666666666667 67.0 L 111.33333333333333 66.0 L 110.66666666666667 65.0 L 110.33333333333333 64.0 L 109.66666666666667 63.0 L 109.33333333333333 62.0 L 108.66666666666667 61.0 L 108.33333333333333 60.0 L 108.0 59.0 L 107.66666666666667 58.0 L 107.33333333333333 57.0 L 106.66666666666667 56.0 L 106.33333333333333 55.0 L 105.66666666666667 54.0 L 105.33333333333333 53.0 L 105.33333333333333 52.0 L 105.66666666666667 51.0 L 106.0 50.0 L 106.0 49.0 L 106.33333333333333 48.0 L 106.66666666666667 47.0 L 107.0 46.0 L 107.0 45.0 L 107.0 44.0 L 107.33333333333333 43.0 L 107.66666666666667 42.0 L 108.0 41.0 L 108.0 40.0 L 108.0 39.0 L 108.0 38.0 L 108.0 37.0 L 108.0 36.0 L 108.0 35.0 L 108.0 34.0 L 108.0 33.0 L 107.66666666666667 32.0 L 107.0 31.333333333333332 L 106.0 30.666666666666668 L 105.0 30.333333333333332 L 104.0 30.0 L 103.33333333333333 30.333333333333332 L 103.0 31.0 L 103.0 32.0 L 103.0 33.0 L 103.0 34.0 L 102.66666666666667 35.0 L 102.33333333333333 36.0 L 102.0 37.0 L 102.0 38.0 L 102.0 39.0 L 101.66666666666667 40.0 L 101.33333333333333 41.0 L 101.0 42.0 L 101.0 43.0 L 100.66666666666667 44.0 L 100.0 45.0 L 99.0 45.666666666666664 L 98.0 45.666666666666664 L 97.0 45.0 L 96.0 44.0 L 95.0 43.0 L 94.0 42.0 L 93.0 41.0 L 92.0 40.333333333333336 L 91.0 39.666666666666664 L 90.0 39.0 L 89.0 38.333333333333336 L 88.0 37.666666666666664 L 87.0 37.0 L 86.66666666666667 36.0 L 86.66666666666667 35.0 L 87.0 34.0 L 87.0 33.0 L 87.33333333333333 32.0 L 87.66666666666667 31.0 L 88.33333333333333 30.0 L 88.66666666666667 29.0 L 89.0 28.0 L 89.33333333333333 27.0 L 89.66666666666667 26.0 L 90.0 25.0 L 90.0 24.0 L 89.66666666666667 23.333333333333332 L 89.0 22.666666666666668 L 88.0 22.333333333333332 L 87.0 22.0 L 86.0 22.0 L 85.0 22.0 L 84.0 22.0 L 83.0 22.0 L 82.0 22.333333333333332 L 81.33333333333333 23.0 L 80.66666666666667 24.0 L 80.33333333333333 25.0 L 79.66666666666667 26.0 L 79.33333333333333 27.0 L 78.66666666666667 28.0 L 78.33333333333333 29.0 L 77.66666666666667 30.0 L 77.33333333333333 31.0 L 76.66666666666667 32.0 L 76.0 32.666666666666664 L 75.0 33.0 L 74.0 33.0 L 73.0 33.0 L 72.0 33.0 L 71.0 33.0 L 70.0 33.0 L 69.0 33.0 L 68.0 33.0 L 67.0 33.0 L 66.0 33.0 L 65.0 33.0 L 64.0 33.0 L 63.0 33.0 L 62.0 33.0 L 61.0 33.0 L 60.0 33.0 L 59.0 33.0 L 58.0 32.666666666666664 L 57.333333333333336 32.0 L 56.666666666666664 31.0 L 56.333333333333336 30.0 L 55.666666666666664 29.0 L 55.0 28.0 L 54.333333333333336 27.0 L 53.666666666666664 26.0 L 53.333333333333336 25.0 L 52.666666666666664 24.0 L 52.0 23.0 L 51.333333333333336 22.0 L 50.666666666666664 21.333333333333332 L 50.0 21.0 L 49.0 21.333333333333332 L 48.0 21.666666666666668 L 47.0 22.0 L 46.0 22.0 L 45.0 22.0 L 44.0 22.333333333333332 L 43.333333333333336 23.0 L 43.0 24.0 L 43.333333333333336 25.0 L 44.0 26.0 L 44.666666666666664 27.0 L 45.333333333333336 28.0 L 45.666666666666664 29.0 L 46.333333333333336 30.0 L 46.666666666666664 31.0 L 47.333333333333336 32.0 L 47.666666666666664 33.0 L 48.333333333333336 34.0 L 48.333333333333336 35.0 L 48.0 36.0 L 47.0 36.666666666666664 L 46.0 37.333333333333336 L 45.0 37.666666666666664 L 44.0 38.0 L 43.0 38.333333333333336 L 42.0 39.0 L 41.0 39.666666666666664 L 40.0 40.333333333333336 L 39.0 41.0 L 38.0 41.666666666666664 L 37.0 42.333333333333336 L 36.0 43.0 L 35.0 44.0 L 34.0 45.0 L 33.0 45.666666666666664 L 32.0 45.666666666666664 L 31.333333333333332 45.0 L 31.0 44.0 L 30.666666666666668 43.0 L 30.333333333333332 42.0 L 30.0 41.0 L 30.0 40.0 L 30.0 39.0 L 30.0 38.0 L 30.0 37.0 L 30.0 36.0 L 29.666666666666668 35.0 L 29.333333333333332 34.0 L 29.0 33.0 L 29.0 32.0 L 29.0 31.0 L 29.0 30.0 L 28.666666666666668 29.333333333333332 L 28.0 29.0 L 27.0 29.333333333333332 L 26.0 30.0 L 25.0 30.666666666666668 L 24.0 31.333333333333332 L 23.0 32.0 L 22.333333333333332 33.0 L 22.0 34.0 L 22.0 35.0 L 22.0 36.0 L 22.0 37.0 L 22.0 38.0 L 22.0 39.0 L 22.0 40.0 L 22.333333333333332 41.0 L 22.666666666666668 42.0 L 23.0 43.0 L 23.0 44.0 L 23.0 45.0 L 23.0 46.0 L 23.0 47.0 L 23.333333333333332 48.0 L 23.666666666666668 49.0 L 24.0 50.0 L 24.333333333333332 51.0 L 24.666666666666668 52.0 L 24.666666666666668 53.0 L 24.333333333333332 54.0 L 23.666666666666668 55.0 L 23.333333333333332 56.0 L 22.666666666666668 57.0 L 22.333333333333332 58.0 L 22.0 59.0 L 21.666666666666668 60.0 L 21.333333333333332 61.0 L 21.0 62.0 L 20.666666666666668 63.0 L 20.333333333333332 64.0 L 19.666666666666668 65.0 L 19.333333333333332 66.0 L 19.0 67.0 L 18.666666666666668 68.0 L 18.333333333333332 69.0 L 17.666666666666668 70.0 L 17.333333333333332 71.0 L 16.666666666666668 72.0 L 16.333333333333332 73.0 L 16.0 74.0 L 15.666666666666666 75.0 L 15.0 76.0 L 14.333333333333334 77.0 L 13.666666666666666 78.0 L 13.0 79.0 L 12.333333333333334 80.0 L 11.666666666666666 81.0 L 11.0 82.0 L 10.333333333333334 83.0 L 10.333333333333334 83.66666666666667 L 11.0 84.0 L 12.0 84.0 L 13.0 84.0 L 14.0 84.0 L 15.0 83.66666666666667 L 16.0 83.33333333333333 L 17.0 83.0 L 18.0 82.66666666666667 L 19.0 82.33333333333333 L 20.0 82.0 L 21.0 82.0 L 22.0 82.0 L 23.0 82.0 L 24.0 82.0 L 25.0 82.0 L 26.0 82.0 L 27.0 82.0 L 28.0 82.0 L 28.5 82.0 Z" stroke="none" fill="rgb(255,96,17)" />
<path d="M 24.5 104.5 L 25.0 104.66666666666667 L 26.0 105.33333333333333 L 27.0 105.66666666666667 L 28.0 106.0 L 29.0 106.33333333333333 L 30.0 106.66666666666667 L 31.0 107.0 L 32.0 107.33333333333333 L 33.0 107.66666666666667 L 34.0 108.33333333333333 L 35.0 108.66666666666667 L 36.0 109.0 L 37.0 109.33333333333333 L 38.0 109.66666666666667 L 39.0 110.0 L 40.0 110.33333333333333 L 41.0 110.66666666666667 L 42.0 111.0 L 43.0 111.33333333333333 L 44.0 111.66666666666667 L 45.0 112.0 L 46.0 112.33333333333333 L 47.0 112.66666666666667 L 48.0 113.0 L 48.666666666666664 112.66666666666667 L 49.0 112.0 L 49.0 111.0 L 49.0 110.0 L 49.0 109.0 L 49.0 108.0 L 49.0 107.0 L 49.0 106.0 L 49.0 105.0 L 49.0 104.0 L 49.0 103.0 L 49.0 102.0 L 49.0 101.0 L 49.333333333333336 100.0 L 49.666666666666664 99.0 L 50.333333333333336 98.0 L 50.666666666666664 97.0 L 51.333333333333336 96.0 L 51.666666666666664 95.0 L 51.666666666666664 94.0 L 51.0 93.0 L 50.0 92.0 L 49.0 91.0 L 48.0 90.0 L 47.0 89.0 L 46.0 88.33333333333333 L 45.0 87.66666666666667 L 44.0 87.0 L 43.0 86.33333333333333 L 42.0 85.66666666666667 L 41.0 85.33333333333333 L 40.0 84.66666666666667 L 39.0 84.33333333333333 L 38.0 83.66666666666667 L 37.0 83.33333333333333 L 36.0 83.0 L 35.0 82.66666666666667 L 34.0 82.33333333333333 L 33.0 82.0 L 32.0 82.0 L 31.0 82.0 L 30.0 82.0 L 29.0 82.0 L 28.0 82.0 L 27.0 82.0 L 26.0 82.0 L 25.0 82.0 L 24.0 82.0 L 23.0 82.0 L 22.0 82.0 L 21.0 82.0 L 20.0 82.0 L 19.0 82.0 L 18.0 82.33333333333333 L 17.0 82.66666666666667 L 16.0 83.0 L 15.0 83.33333333333333 L 14.0 83.66666666666667 L 13.0 84.0 L 12.0 84.0 L 11.0 84.0 L 10.0 84.33333333333333 L 9.0 84.66666666666667 L 8.0 85.0 L 7.0 85.33333333333333 L 6.0 85.66666666666667 L 5.0 86.33333333333333 L 4.333333333333333 87.0 L 4.333333333333333 88.0 L 5.0 89.0 L 5.333333333333333 90.0 L 5.0 91.0 L 4.333333333333333 92.0 L 4.0 93.0 L 4.333333333333333 94.0 L 5.0 94.66666666666667 L 6.0 95.33333333333333 L 7.0 96.0 L 8.0 96.66666666666667 L 9.0 97.33333333333333 L 10.0 97.66666666666667 L 11.0 98.33333333333333 L 12.0 98.66666666666667 L 13.0 99.33333333333333 L 14.0 99.66666666666667 L 15.0 100.33333333333333 L 16.0 100.66666666666667 L 17.0 101.33333333333333 L 18.0 101.66666666666667 L 19.0 102.33333333333333 L 20.0 102.66666666666667 L 21.0 103.33333333333333 L 22.0 103.66666666666667 L 23.0 104.0 L 23.5 104.0 Z" stroke="none" fill="rgb(223,223,223)" />
<path d="M 95.5 108.5 L 96.0 108.33333333333333 L 97.0 107.66666666666667 L 98.0 107.33333333333333 L 99.0 106.66666666666667 L 100.0 106.33333333333333 L 101.0 105.66666666666667 L 102.0 105.33333333333333 L 103.0 104.66666666666667 L 104.0 104.33333333333333 L 105.0 103.66666666666667 L 106.0 103.33333333333333 L 107.0 102.66666666666667 L 108.0 102.33333333333333 L 109.0 101.66666666666667 L 110.0 101.33333333333333 L 111.0 100.66666666666667 L 112.0 100.33333333333333 L 113.0 99.66666666666667 L 114.0 99.33333333333333 L 115.0 98.66666666666667 L 116.0 98.0 L 117.0 97.33333333333333 L 118.0 96.66666666666667 L 119.0 96.33333333333333 L 120.0 95.66666666666667 L 121.0 95.0 L 122.0 94.33333333333333 L 123.0 93.66666666666667 L 123.66666666666667 93.0 L 124.0 92.0 L 123.66666666666667 91.0 L 123.33333333333333 90.0 L 123.33333333333333 89.0 L 123.66666666666667 88.0 L 124.0 87.0 L 123.66666666666667 86.0 L 123.0 85.33333333333333 L 122.0 85.0 L 121.0 84.66666666666667 L 120.0 84.33333333333333 L 119.0 83.66666666666667 L 118.0 83.33333333333333 L 117.0 83.0 L 116.0 83.0 L 115.0 82.66666666666667 L 114.0 82.33333333333333 L 113.0 82.0 L 112.0 82.0 L 111.0 82.0 L 110.0 82.0 L 109.0 82.0 L 108.0 82.0 L 107.0 82.0 L 106.0 82.0 L 105.0 82.0 L 104.0 82.0 L 103.0 82.0 L 102.0 82.0 L 101.0 82.0 L 100.0 82.0 L 99.0 82.0 L 98.0 82.33333333333333 L 97.0 82.66666666666667 L 96.0 83.0 L 95.0 83.0 L 94.0 83.33333333333333 L 93.0 83.66666666666667 L 92.0 84.0 L 91.0 84.33333333333333 L 90.0 84.66666666666667 L 89.0 85.33333333333333 L 88.0 85.66666666666667 L 87.0 86.33333333333333 L 86.0 87.0 L 85.0 87.66666666666667 L 84.0 88.33333333333333 L 83.0 89.0 L 82.0 89.66666666666667 L 81.0 90.33333333333333 L 80.0 91.0 L 79.0 92.0 L 78.33333333333333 93.0 L 78.0 94.0 L 78.0 95.0 L 78.33333333333333 96.0 L 78.66666666666667 97.0 L 79.33333333333333 98.0 L 79.66666666666667 99.0 L 80.0 100.0 L 80.0 101.0 L 80.0 102.0 L 80.0 103.0 L 80.0 104.0 L 80.0 105.0 L 80.0 106.0 L 80.0 107.0 L 80.0 108.0 L 80.0 109.0 L 80.0 110.0 L 79.66666666666667 111.0 L 79.33333333333333 112.0 L 79.0 113.0 L 79.33333333333333 113.66666666666667 L 80.0 114.0 L 81.0 114.0 L 82.0 114.0 L 83.0 113.66666666666667 L 84.0 113.33333333333333 L 85.0 112.66666666666667 L 86.0 112.33333333333333 L 87.0 112.0 L 88.0 111.66666666666667 L 89.0 111.33333333333333 L 90.0 111.0 L 91.0 110.66666666666667 L 92.0 110.33333333333333 L 93.0 109.66666666666667 L 94.0 109.33333333333333 L 94.5 109.0 Z" stroke="none" fill="rgb(223,223,223)" />
<path d="M 55.5 119.0 L 56.0 119.0 L 57.0 119.33333333333333 L 58.0 119.66666666666667 L 59.0 120.0 L 60.0 120.0 L 61.0 120.0 L 62.0 120.0 L 63.0 120.0 L 64.0 120.0 L 65.0 120.0 L 66.0 120.0 L 67.0 120.0 L 68.0 120.0 L 69.0 120.0 L 70.0 120.0 L 71.0 120.0 L 72.0 119.66666666666667 L 73.0 119.33333333333333 L 74.0 118.66666666666667 L 75.0 118.33333333333333 L 76.0 117.66666666666667 L 77.0 117.0 L 78.0 116.0 L 78.66666666666667 115.0 L 79.0 114.0 L 79.33333333333333 113.0 L 79.66666666666667 112.0 L 80.0 111.0 L 80.0 110.0 L 80.0 109.0 L 80.0 108.0 L 80.0 107.0 L 80.0 106.0 L 80.0 105.0 L 80.0 104.0 L 80.0 103.0 L 80.0 102.0 L 80.0 101.0 L 80.0 100.0 L 80.0 99.0 L 79.66666666666667 98.0 L 79.33333333333333 97.0 L 78.66666666666667 96.0 L 78.0 95.33333333333333 L 77.0 95.33333333333333 L 76.0 96.0 L 75.0 97.0 L 74.0 98.0 L 73.33333333333333 99.0 L 73.0 100.0 L 73.33333333333333 101.0 L 73.66666666666667 102.0 L 74.0 103.0 L 74.0 104.0 L 74.0 105.0 L 74.0 106.0 L 73.66666666666667 107.0 L 73.0 108.0 L 72.0 109.0 L 71.0 110.0 L 70.0 111.0 L 69.33333333333333 112.0 L 69.0 113.0 L 69.33333333333333 113.66666666666667 L 70.0 114.0 L 71.0 114.0 L 72.0 113.66666666666667 L 73.0 113.0 L 74.0 112.0 L 75.0 111.66666666666667 L 75.66666666666667 112.0 L 75.66666666666667 113.0 L 75.0 114.0 L 74.0 115.0 L 73.0 116.0 L 72.0 116.66666666666667 L 71.0 117.0 L 70.0 117.0 L 69.0 116.66666666666667 L 68.0 116.33333333333333 L 67.0 115.66666666666667 L 66.0 115.33333333333333 L 65.0 115.0 L 64.0 115.0 L 63.0 115.33333333333333 L 62.0 116.0 L 61.0 116.66666666666667 L 60.0 117.0 L 59.0 116.66666666666667 L 58.0 116.33333333333333 L 57.0 115.66666666666667 L 56.0 115.0 L 55.0 114.0 L 54.0 113.0 L 53.333333333333336 112.0 L 53.333333333333336 111.0 L 54.0 110.66666666666667 L 55.0 111.0 L 56.0 112.0 L 57.0 112.66666666666667 L 58.0 113.0 L 59.0 113.0 L 60.0 113.0 L 60.666666666666664 112.66666666666667 L 60.666666666666664 112.0 L 60.0 111.0 L 59.0 110.0 L 58.0 109.0 L 57.0 108.0 L 56.333333333333336 107.0 L 56.0 106.0 L 56.0 105.0 L 56.0 104.0 L 56.0 103.0 L 56.0 102.0 L 56.0 101.0 L 55.666666666666664 100.0 L 55.333333333333336 99.0 L 54.666666666666664 98.0 L 54.333333333333336 97.0 L 53.666666666666664 96.0 L 53.0 95.33333333333333 L 52.0 95.0 L 51.333333333333336 95.33333333333333 L 50.666666666666664 96.0 L 50.333333333333336 97.0 L 49.666666666666664 98.0 L 49.333333333333336 99.0 L 49.0 100.0 L 49.0 101.0 L 49.0 102.0 L 49.0 103.0 L 49.0 104.0 L 49.0 105.0 L 49.0 106.0 L 49.0 107.0 L 49.0 108.0 L 49.0 109.0 L 49.0 110.0 L 49.0 111.0 L 49.0 112.0 L 49.333333333333336 113.0 L 49.666666666666664 114.0 L 50.333333333333336 115.0 L 51.0 116.0 L 52.0 117.0 L 53.0 117.66666666666667 L 54.0 118.33333333333333 L 54.5 118.5 Z" stroke="none" fill="rgb(254,233,201)" />
<path d="M 30.5 43.5 L 30.666666666666668 44.0 L 31.0 45.0 L 31.333333333333332 46.0 L 32.0 46.666666666666664 L 33.0 46.666666666666664 L 34.0 46.0 L 35.0 45.0 L 36.0 44.0 L 37.0 43.0 L 38.0 42.333333333333336 L 39.0 41.666666666666664 L 40.0 41.0 L 41.0 40.333333333333336 L 42.0 39.666666666666664 L 43.0 39.0 L 44.0 38.333333333333336 L 45.0 38.0 L 46.0 37.666666666666664 L 47.0 37.333333333333336 L 48.0 36.666666666666664 L 48.666666666666664 36.0 L 49.0 35.0 L 48.666666666666664 34.0 L 48.333333333333336 33.0 L 47.666666666666664 32.0 L 47.333333333333336 31.0 L 46.666666666666664 30.0 L 46.333333333333336 29.0 L 45.666666666666664 28.0 L 45.333333333333336 27.0 L 44.666666666666664 26.0 L 44.0 25.0 L 43.0 24.0 L 42.0 23.0 L 41.0 22.0 L 40.0 21.0 L 39.0 20.0 L 38.0 19.0 L 37.0 18.0 L 36.0 17.333333333333332 L 35.0 17.0 L 34.0 17.0 L 33.333333333333336 17.333333333333332 L 32.666666666666664 18.0 L 32.333333333333336 19.0 L 32.0 20.0 L 31.666666666666668 21.0 L 31.333333333333332 22.0 L 31.0 23.0 L 31.0 24.0 L 30.666666666666668 25.0 L 30.333333333333332 26.0 L 30.0 27.0 L 29.666666666666668 28.0 L 29.333333333333332 29.0 L 29.0 30.0 L 29.0 31.0 L 29.0 32.0 L 29.0 33.0 L 29.0 34.0 L 29.333333333333332 35.0 L 29.666666666666668 36.0 L 30.0 37.0 L 30.0 38.0 L 30.0 39.0 L 30.0 40.0 L 30.0 41.0 L 30.0 42.0 L 30.0 42.5 Z" stroke="none" fill="rgb(255,148,17)" />
<path d="M 88.5 38.5 L 89.0 39.0 L 90.0 39.666666666666664 L 91.0 40.333333333333336 L 92.0 41.0 L 93.0 42.0 L 94.0 43.0 L 95.0 44.0 L 96.0 45.0 L 97.0 45.666666666666664 L 98.0 46.0 L 99.0 46.0 L 100.0 45.666666666666664 L 100.66666666666667 45.0 L 101.0 44.0 L 101.0 43.0 L 101.33333333333333 42.0 L 101.66666666666667 41.0 L 102.0 40.0 L 102.0 39.0 L 102.0 38.0 L 102.33333333333333 37.0 L 102.66666666666667 36.0 L 103.0 35.0 L 103.0 34.0 L 103.0 33.0 L 103.0 32.0 L 103.33333333333333 31.0 L 103.66666666666667 30.0 L 103.66666666666667 29.0 L 103.33333333333333 28.0 L 103.0 27.0 L 102.66666666666667 26.0 L 102.33333333333333 25.0 L 102.0 24.0 L 102.0 23.0 L 102.0 22.0 L 102.0 21.0 L 101.66666666666667 20.0 L 101.33333333333333 19.0 L 101.0 18.0 L 100.66666666666667 17.0 L 100.0 16.0 L 99.0 15.333333333333334 L 98.0 15.333333333333334 L 97.0 16.0 L 96.0 17.0 L 95.0 18.0 L 94.0 19.0 L 93.0 20.0 L 92.0 21.0 L 91.0 22.0 L 90.33333333333333 23.0 L 90.0 24.0 L 89.66666666666667 25.0 L 89.33333333333333 26.0 L 89.0 27.0 L 88.66666666666667 28.0 L 88.33333333333333 29.0 L 87.66666666666667 30.0 L 87.33333333333333 31.0 L 87.0 32.0 L 87.0 33.0 L 86.66666666666667 34.0 L 86.33333333333333 35.0 L 86.0 36.0 L 86.33333333333333 37.0 L 87.0 37.666666666666664 L 87.5 38.0 Z" stroke="none" fill="rgb(255,148,17)" />
<path d="M 30.0 28.5 L 30.0 28.0 L 30.333333333333332 27.0 L 30.666666666666668 26.0 L 31.0 25.0 L 31.0 24.0 L 31.333333333333332 23.0 L 31.666666666666668 22.0 L 32.0 21.0 L 32.333333333333336 20.0 L 32.666666666666664 19.0 L 33.333333333333336 18.0 L 34.0 17.333333333333332 L 35.0 17.333333333333332 L 36.0 18.0 L 37.0 19.0 L 38.0 20.0 L 39.0 21.0 L 40.0 22.0 L 41.0 23.0 L 42.0 23.666666666666668 L 43.0 23.666666666666668 L 44.0 23.0 L 45.0 22.333333333333332 L 46.0 22.0 L 47.0 22.0 L 48.0 22.0 L 49.0 21.666666666666668 L 49.666666666666664 21.0 L 49.666666666666664 20.0 L 49.0 19.0 L 48.0 18.0 L 47.0 17.0 L 46.0 16.0 L 45.0 15.0 L 44.0 14.0 L 43.0 13.0 L 42.0 12.333333333333334 L 41.0 11.666666666666666 L 40.0 11.0 L 39.0 10.0 L 38.0 9.333333333333334 L 37.0 8.666666666666666 L 36.0 8.333333333333334 L 35.0 7.666666666666667 L 34.0 7.333333333333333 L 33.0 7.0 L 32.0 7.0 L 31.0 7.333333333333333 L 30.0 7.666666666666667 L 29.333333333333332 8.333333333333334 L 28.666666666666668 9.0 L 28.333333333333332 10.0 L 27.666666666666668 11.0 L 27.333333333333332 12.0 L 26.666666666666668 13.0 L 26.333333333333332 14.0 L 26.0 15.0 L 25.666666666666668 16.0 L 25.333333333333332 17.0 L 25.0 18.0 L 24.666666666666668 19.0 L 24.333333333333332 20.0 L 24.0 21.0 L 24.0 22.0 L 24.0 23.0 L 23.666666666666668 24.0 L 23.333333333333332 25.0 L 23.0 26.0 L 23.0 27.0 L 23.0 28.0 L 23.0 29.0 L 23.0 30.0 L 23.333333333333332 30.666666666666668 L 24.0 31.0 L 25.0 31.0 L 26.0 30.666666666666668 L 27.0 30.0 L 28.0 29.333333333333332 L 29.0 29.0 L 29.5 29.0 Z" stroke="none" fill="rgb(87,90,91)" />
<path d="M 105.5 31.0 L 106.0 31.0 L 107.0 31.0 L 107.66666666666667 30.666666666666668 L 108.0 30.0 L 108.0 29.0 L 108.0 28.0 L 108.0 27.0 L 108.0 26.0 L 108.0 25.0 L 108.0 24.0 L 108.0 23.0 L 107.66666666666667 22.0 L 107.33333333333333 21.0 L 107.0 20.0 L 107.0 19.0 L 106.66666666666667 18.0 L 106.33333333333333 17.0 L 106.0 16.0 L 106.0 15.0 L 105.66666666666667 14.0 L 105.33333333333333 13.0 L 104.66666666666667 12.0 L 104.33333333333333 11.0 L 103.66666666666667 10.0 L 103.0 9.0 L 102.0 8.333333333333334 L 101.0 8.0 L 100.0 8.0 L 99.0 8.0 L 98.0 8.0 L 97.0 8.333333333333334 L 96.0 8.666666666666666 L 95.0 9.333333333333334 L 94.0 10.0 L 93.0 10.666666666666666 L 92.0 11.333333333333334 L 91.0 12.0 L 90.0 13.0 L 89.0 14.0 L 88.0 15.0 L 87.0 16.0 L 86.0 17.0 L 85.0 18.0 L 84.33333333333333 19.0 L 84.0 20.0 L 84.0 21.0 L 84.33333333333333 21.666666666666668 L 85.0 22.0 L 86.0 22.0 L 87.0 22.333333333333332 L 88.0 22.666666666666668 L 89.0 23.0 L 90.0 23.0 L 91.0 22.666666666666668 L 92.0 22.0 L 93.0 21.0 L 94.0 20.0 L 95.0 19.0 L 96.0 18.0 L 97.0 17.0 L 98.0 16.333333333333332 L 99.0 16.333333333333332 L 100.0 17.0 L 100.66666666666667 18.0 L 101.0 19.0 L 101.33333333333333 20.0 L 101.66666666666667 21.0 L 102.0 22.0 L 102.0 23.0 L 102.0 24.0 L 102.0 25.0 L 102.33333333333333 26.0 L 102.66666666666667 27.0 L 103.0 28.0 L 103.33333333333333 29.0 L 104.0 30.0 L 104.5 30.5 Z" stroke="none" fill="rgb(87,90,91)" />
<path d="M 66.5 112.5 L 67.0 112.66666666666667 L 68.0 113.0 L 69.0 112.66666666666667 L 70.0 112.0 L 71.0 111.0 L 72.0 110.0 L 73.0 109.0 L 73.66666666666667 108.0 L 74.0 107.0 L 74.0 106.0 L 74.0 105.0 L 74.0 104.0 L 74.0 103.0 L 74.0 102.0 L 73.66666666666667 101.0 L 73.0 100.33333333333333 L 72.0 100.0 L 71.0 100.0 L 70.0 100.0 L 69.0 100.0 L 68.0 100.0 L 67.0 100.0 L 66.0 100.0 L 65.0 100.0 L 64.0 100.0 L 63.0 100.0 L 62.0 100.0 L 61.0 100.0 L 60.0 100.33333333333333 L 59.0 100.66666666666667 L 58.0 101.0 L 57.0 101.0 L 56.333333333333336 101.33333333333333 L 56.0 102.0 L 56.0 103.0 L 56.0 104.0 L 56.0 105.0 L 56.0 106.0 L 56.0 107.0 L 56.333333333333336 108.0 L 57.0 109.0 L 58.0 110.0 L 59.0 111.0 L 60.0 111.66666666666667 L 61.0 112.0 L 62.0 112.0 L 63.0 112.0 L 64.0 112.0 L 65.0 112.0 L 65.5 112.0 Z" stroke="none" fill="rgb(45,42,37)" />
<path d="M 61.5 117.0 L 62.0 116.66666666666667 L 63.0 116.0 L 64.0 115.33333333333333 L 65.0 115.33333333333333 L 66.0 115.66666666666667 L 67.0 116.33333333333333 L 68.0 116.66666666666667 L 69.0 117.0 L 70.0 117.0 L 71.0 117.0 L 72.0 117.0 L 73.0 116.66666666666667 L 74.0 116.0 L 75.0 115.0 L 75.66666666666667 114.0 L 76.0 113.0 L 76.0 112.0 L 75.66666666666667 111.33333333333333 L 75.0 111.0 L 74.0 111.33333333333333 L 73.0 112.0 L 72.0 113.0 L 71.0 113.66666666666667 L 70.0 113.66666666666667 L 69.0 113.33333333333333 L 68.0 112.66666666666667 L 67.0 112.33333333333333 L 66.0 112.0 L 65.0 112.0 L 64.0 112.0 L 63.0 112.0 L 62.0 112.0 L 61.0 112.33333333333333 L 60.0 112.66666666666667 L 59.0 113.0 L 58.0 112.66666666666667 L 57.0 112.0 L 56.0 111.0 L 55.0 110.33333333333333 L 54.0 110.0 L 53.333333333333336 110.33333333333333 L 53.0 111.0 L 53.0 112.0 L 53.333333333333336 113.0 L 54.0 114.0 L 55.0 115.0 L 56.0 115.66666666666667 L 57.0 116.33333333333333 L 58.0 116.66666666666667 L 59.0 117.0 L 60.0 117.0 L 60.5 117.0 Z" stroke="none" fill="rgb(74,74,75)" />
<path d="M 82.5 78.5 L 83.0 78.0 L 84.0 77.0 L 85.0 76.0 L 85.66666666666667 75.0 L 86.0 74.0 L 86.0 73.0 L 86.0 72.0 L 86.0 71.0 L 86.0 70.0 L 86.0 69.0 L 85.66666666666667 68.0 L 85.0 67.0 L 84.0 66.33333333333333 L 83.0 66.0 L 82.0 66.0 L 81.33333333333333 66.33333333333333 L 80.66666666666667 67.0 L 80.33333333333333 68.0 L 80.0 69.0 L 80.0 70.0 L 79.66666666666667 71.0 L 79.0 71.66666666666667 L 78.0 72.0 L 77.0 72.33333333333333 L 76.0 72.66666666666667 L 75.33333333333333 73.33333333333333 L 75.0 74.0 L 75.0 75.0 L 75.33333333333333 76.0 L 76.0 77.0 L 77.0 78.0 L 78.0 78.66666666666667 L 79.0 79.0 L 80.0 79.0 L 81.0 79.0 L 81.5 79.0 Z" stroke="none" fill="rgb(45,42,37)" />
<path d="M 51.5 79.0 L 52.0 78.66666666666667 L 52.666666666666664 78.0 L 53.333333333333336 77.0 L 53.666666666666664 76.0 L 54.0 75.0 L 54.0 74.0 L 54.0 73.0 L 54.0 72.0 L 53.666666666666664 71.0 L 53.333333333333336 70.0 L 52.666666666666664 69.0 L 52.0 68.0 L 51.0 67.33333333333333 L 50.0 67.0 L 49.333333333333336 67.33333333333333 L 49.0 68.0 L 48.666666666666664 69.0 L 48.0 70.0 L 47.0 70.66666666666667 L 46.0 71.0 L 45.0 71.0 L 44.0 71.33333333333333 L 43.333333333333336 72.0 L 43.0 73.0 L 43.0 74.0 L 43.0 75.0 L 43.333333333333336 76.0 L 44.0 77.0 L 45.0 78.0 L 46.0 78.66666666666667 L 47.0 79.0 L 48.0 79.0 L 49.0 79.0 L 50.0 79.0 L 50.5 79.0 Z" stroke="none" fill="rgb(45,42,37)" />
<path d="M 40.5 97.0 L 41.0 97.33333333333333 L 42.0 97.66666666666667 L 43.0 98.0 L 44.0 98.0 L 45.0 97.66666666666667 L 45.666666666666664 97.0 L 46.0 96.0 L 45.666666666666664 95.0 L 45.0 94.33333333333333 L 44.0 93.66666666666667 L 43.0 93.33333333333333 L 42.0 92.66666666666667 L 41.0 92.33333333333333 L 40.0 92.0 L 39.0 91.66666666666667 L 38.0 91.33333333333333 L 37.0 90.66666666666667 L 36.0 90.33333333333333 L 35.0 90.0 L 34.0 89.66666666666667 L 33.0 89.33333333333333 L 32.0 89.0 L 31.0 89.0 L 30.333333333333332 89.33333333333333 L 30.0 90.0 L 30.333333333333332 91.0 L 31.0 92.0 L 32.0 92.66666666666667 L 33.0 93.33333333333333 L 34.0 93.66666666666667 L 35.0 94.33333333333333 L 36.0 94.66666666666667 L 37.0 95.33333333333333 L 38.0 95.66666666666667 L 39.0 96.33333333333333 L 39.5 96.5 Z" stroke="none" fill="rgb(254,254,254)" />
<path d="M 84.5 98.0 L 85.0 98.0 L 86.0 98.0 L 87.0 98.0 L 88.0 97.66666666666667 L 89.0 97.33333333333333 L 90.0 96.66666666666667 L 91.0 96.33333333333333 L 92.0 95.66666666666667 L 93.0 95.33333333333333 L 94.0 94.66666666666667 L 95.0 94.33333333333333 L 96.0 93.66666666666667 L 97.0 93.33333333333333 L 98.0 93.0 L 99.0 92.66666666666667 L 99.66666666666667 92.0 L 100.0 91.0 L 99.66666666666667 90.33333333333333 L 99.0 90.0 L 98.0 90.0 L 97.0 90.0 L 96.0 90.0 L 95.0 90.33333333333333 L 94.0 90.66666666666667 L 93.0 91.0 L 92.0 91.0 L 91.0 91.33333333333333 L 90.0 91.66666666666667 L 89.0 92.33333333333333 L 88.0 92.66666666666667 L 87.0 93.33333333333333 L 86.0 93.66666666666667 L 85.0 94.33333333333333 L 84.33333333333333 95.0 L 84.0 96.0 L 84.0 97.0 L 84.0 97.5 Z" stroke="none" fill="rgb(254,254,254)" />
<path d="M 33.5 101.0 L 34.0 101.33333333333333 L 35.0 101.66666666666667 L 36.0 102.33333333333333 L 37.0 102.66666666666667 L 38.0 103.0 L 39.0 103.0 L 40.0 103.0 L 41.0 103.0 L 42.0 102.66666666666667 L 42.666666666666664 102.0 L 42.666666666666664 101.0 L 42.0 100.33333333333333 L 41.0 99.66666666666667 L 40.0 99.33333333333333 L 39.0 98.66666666666667 L 38.0 98.33333333333333 L 37.0 98.0 L 36.0 97.66666666666667 L 35.0 97.33333333333333 L 34.0 97.0 L 33.0 97.0 L 32.0 96.66666666666667 L 31.0 96.33333333333333 L 30.0 96.0 L 29.0 96.33333333333333 L 28.333333333333332 97.0 L 28.333333333333332 98.0 L 29.0 98.66666666666667 L 30.0 99.33333333333333 L 31.0 99.66666666666667 L 32.0 100.33333333333333 L 32.5 100.5 Z" stroke="none" fill="rgb(254,254,254)" />
<path d="M 94.5 102.0 L 95.0 101.66666666666667 L 96.0 101.33333333333333 L 97.0 101.0 L 98.0 100.66666666666667 L 99.0 100.33333333333333 L 100.0 99.66666666666667 L 100.66666666666667 99.0 L 101.0 98.0 L 100.66666666666667 97.33333333333333 L 100.0 97.0 L 99.0 97.0 L 98.0 97.0 L 97.0 97.0 L 96.0 97.0 L 95.0 97.33333333333333 L 94.0 97.66666666666667 L 93.0 98.0 L 92.0 98.0 L 91.0 98.33333333333333 L 90.0 98.66666666666667 L 89.0 99.33333333333333 L 88.0 100.0 L 87.33333333333333 101.0 L 87.0 102.0 L 87.33333333333333 102.66666666666667 L 88.0 103.0 L 89.0 103.0 L 90.0 103.0 L 91.0 103.0 L 92.0 103.0 L 93.0 102.66666666666667 L 93.5 102.5 Z" stroke="none" fill="rgb(254,254,254)" />
<path d="M 45.5 71.0 L 46.0 71.0 L 47.0 71.0 L 48.0 70.66666666666667 L 48.666666666666664 70.0 L 49.0 69.0 L 48.666666666666664 68.0 L 48.0 67.33333333333333 L 47.0 67.0 L 46.0 67.33333333333333 L 45.0 68.0 L 44.333333333333336 69.0 L 44.0 70.0 L 44.333333333333336 70.66666666666667 L 44.5 71.0 Z" stroke="none" fill="rgb(223,223,223)" />
<path d="M 79.5 72.0 L 79.66666666666667 71.66666666666667 L 80.0 71.0 L 80.0 70.0 L 80.0 69.0 L 79.66666666666667 68.33333333333333 L 79.0 68.0 L 78.0 68.0 L 77.33333333333333 68.33333333333333 L 77.0 69.0 L 77.0 70.0 L 77.0 71.0 L 77.33333333333333 71.66666666666667 L 78.0 72.0 L 78.5 72.0 Z" stroke="none" fill="rgb(223,223,223)" />
<path d="M 83.5 22.0 L 83.66666666666667 21.666666666666668 L 83.66666666666667 21.333333333333332 L 83.33333333333333 21.333333333333332 L 83.0 21.5 Z" stroke="none" fill="rgb(0,0,0)" />
<path d="M 23.5 32.0 L 23.666666666666668 31.666666666666668 L 23.666666666666668 31.333333333333332 L 23.333333333333332 31.333333333333332 L 23.0 31.5 Z" stroke="none" fill="rgb(0,0,0)" />
<path d="M 107.5 32.0 L 107.66666666666667 31.666666666666668 L 107.66666666666667 31.333333333333332 L 107.33333333333333 31.333333333333332 L 107.0 31.5 Z" stroke="none" fill="rgb(0,0,0)" />
<path d="M 118.0 82.5 L 117.66666666666667 82.33333333333333 L 117.33333333333333 82.33333333333333 L 117.33333333333333 82.66666666666667 L 117.5 83.0 Z" stroke="none" fill="rgb(0,0,0)" />
<path d="M 9.5 85.0 L 9.666666666666666 84.66666666666667 L 9.666666666666666 84.33333333333333 L 9.333333333333334 84.33333333333333 L 9.0 84.5 Z" stroke="none" fill="rgb(0,0,0)" />
</svg>
