<?xml version="1.0" encoding="UTF-8" standalone="no"?>
<!DOCTYPE svg PUBLIC "-//W3C//DTD SVG 1.1//EN"
"http://www.w3.org/Graphics/SVG/1.1/DTD/svg11.dtd">
<svg width="128" height="128" xmlns="http://www.w3.org/2000/svg" version="1.1">
<path d="M 26.5 128.0 L 27.0 128.0 L 28.0 128.0 L 29.0 128.0 L 30.0 128.0 L 31.0 128.0 L 32.0 128.0 L 33.0 128.0 L 34.0 128.0 L 35.0 128.0 L 36.0 128.0 L 37.0 128.0 L 38.0 128.0 L 39.0 128.0 L 40.0 128.0 L 41.0 128.0 L 42.0 128.0 L 43.0 128.0 L 44.0 128.0 L 45.0 128.0 L 46.0 128.0 L 47.0 128.0 L 48.0 128.0 L 49.0 128.0 L 50.0 128.0 L 51.0 128.0 L 52.0 128.0 L 53.0 128.0 L 54.0 128.0 L 55.0 128.0 L 56.0 128.0 L 57.0 128.0 L 58.0 128.0 L 59.0 128.0 L 60.0 128.0 L 61.0 128.0 L 62.0 128.0 L 63.0 128.0 L 64.0 128.0 L 65.0 128.0 L 66.0 128.0 L 67.0 128.0 L 68.0 128.0 L 69.0 128.0 L 70.0 128.0 L 71.0 128.0 L 72.0 128.0 L 73.0 128.0 L 74.0 128.0 L 75.0 128.0 L 76.0 128.0 L 77.0 128.0 L 78.0 128.0 L 79.0 128.0 L 80.0 128.0 L 81.0 128.0 L 82.0 128.0 L 83.0 128.0 L 84.0 128.0 L 85.0 128.0 L 86.0 128.0 L 87.0 128.0 L 88.0 128.0 L 89.0 128.0 L 90.0 128.0 L 91.0 128.0 L 92.0 128.0 L 93.0 128.0 L 94.0 128.0 L 95.0 128.0 L 96.0 128.0 L 97.0 128.0 L 98.0 128.0 L 99.0 128.0 L 100.0 128.0 L 101.0 128.0 L 102.0 128.0 L 103.0 128.0 L 104.0 128.0 L 105.0 128.0 L 106.0 128.0 L 107.0 128.0 L 108.0 128.0 L 109.0 128.0 L 110.0 128.0 L 111.0 128.0 L 112.0 128.0 L 113.0 128.0 L 114.0 128.0 L 115.0 128.0 L 116.0 128.0 L 117.0 128.0 L 118.0 128.0 L 119.0 128.0 L 120.0 128.0 L 121.0 128.0 L 122.0 128.0 L 123.0 128.0 L 124.0 128.0 L 125.0 128.0 L 126.0 128.0 L 127.0 128.0 L 127.66666666666667 127.66666666666667 L 128.0 127.0 L 128.0 126.0 L 128.0 125.0 L 128.0 124.0 L 128.0 123.0 L 128.0 122.0 L 128.0 121.0 L 128.0 120.0 L 128.0 119.0 L 128.0 118.0 L 128.0 117.0 L 128.0 116.0 L 128.0 115.0 L 128.0 114.0 L 128.0 113.0 L 128.0 112.0 L 128.0 111.0 L 128.0 110.0 L 128.0 109.0 L 128.0 108.0 L 128.0 107.0 L 128.0 106.0 L 128.0 105.0 L 128.0 104.0 L 128.0 103.0 L 128.0 102.0 L 128.0 101.0 L 128.0 100.0 L 128.0 99.0 L 128.0 98.0 L 128.0 97.0 L 128.0 96.0 L 128.0 95.0 L 128.0 94.0 L 128.0 93.0 L 128.0 92.0 L 128.0 91.0 L 128.0 90.0 L 128.0 89.0 L 128.0 88.0 L 128.0 87.0 L 128.0 86.0 L 128.0 85.0 L 128.0 84.0 L 128.0 83.0 L 128.0 82.0 L 128.0 81.0 L 128.0 80.0 L 128.0 79.0 L 128.0 78.0 L 128.0 77.0 L 128.0 76.0 L 128.0 75.0 L 128.0 74.0 L 128.0 73.0 L 128.0 72.0 L 128.0 71.0 L 128.0 70.0 L 128.0 69.0 L 128.0 68.0 L 128.0 67.0 L 128.0 66.0 L 128.0 65.0 L 128.0 64.0 L 128.0 63.0 L 128.0 62.0 L 128.0 61.0 L 128.0 60.0 L 128.0 59.0 L 128.0 58.0 L 128.0 57.0 L 128.0 56.0 L 128.0 55.0 L 128.0 54.0 L 128.0 53.0 L 128.0 52.0 L 128.0 51.0 L 128.0 50.0 L 128.0 49.0 L 128.0 48.0 L 128.0 47.0 L 128.0 46.0 L 128.0 45.0 L 128.0 44.0 L 128.0 43.0 L 128.0 42.0 L 128.0 41.0 L 128.0 40.0 L 128.0 39.0 L 128.0 38.0 L 128.0 37.0 L 128.0 36.0 L 128.0 35.0 L 128.0 34.0 L 128.0 33.0 L 128.0 32.0 L 128.0 31.0 L 128.0 30.0 L 128.0 29.0 L 128.0 28.0 L 128.0 27.0 L 128.0 26.0 L 128.0 25.0 L 128.0 24.0 L 128.0 23.0 L 128.0 22.0 L 128.0 21.0 L 128.0 20.0 L 128.0 19.0 L 128.0 18.0 L 128.0 17.0 L 128.0 16.0 L 128.0 15.0 L 128.0 14.0 L 128.0 13.0 L 128.0 12.0 L 128.0 11.0 L 128.0 10.0 L 128.0 9.0 L 128.0 8.0 L 128.0 7.0 L 128.0 6.0 L 128.0 5.0 L 128.0 4.0 L 128.0 3.0 L 128.0 2.0 L 128.0 1.0 L 127.66666666666667 0.3333333333333333 L 127.0 0.0 L 126.0 0.0 L 125.0 0.0 L 124.0 0.0 L 123.0 0.0 L 122.0 0.0 L 121.0 0.0 L 120.0 0.0 L 119.0 0.0 L 118.0 0.0 L 117.0 0.0 L 116.0 0.0 L 115.0 0.0 L 114.0 0.0 L 113.0 0.0 L 112.0 0.0 L 111.0 0.0 L 110.0 0.0 L 109.0 0.0 L 108.0 0.0 L 107.0 0.0 L 106.0 0.0 L 105.0 0.0 L 104.0 0.0 L 103.0 0.0 L 102.0 0.0 L 101.0 0.0 L 100.0 0.0 L 99.0 0.0 L 98.0 0.0 L 97.0 0.0 L 96.0 0.0 L 95.0 0.0 L 94.0 0.0 L 93.0 0.0 L 92.0 0.0 L 91.0 0.0 L 90.0 0.0 L 89.0 0.0 L 88.0 0.0 L 87.0 0.0 L 86.0 0.0 L 85.0 0.0 L 84.0 0.0 L 83.0 0.0 L 82.0 0.0 L 81.0 0.0 L 80.0 0.0 L 79.0 0.0 L 78.0 0.0 L 77.0 0.0 L 76.0 0.0 L 75.0 0.0 L 74.0 0.0 L 73.0 0.0 L 72.0 0.0 L 71.0 0.0 L 70.0 0.0 L 69.0 0.0 L 68.0 0.0 L 67.0 0.0 L 66.0 0.0 L 65.0 0.0 L 64.0 0.0 L 63.0 0.0 L 62.0 0.0 L 61.0 0.0 L 60.0 0.0 L 59.0 0.0 L 58.0 0.0 L 57.0 0.0 L 56.0 0.0 L 55.0 0.0 L 54.0 0.0 L 53.0 0.0 L 52.0 0.0 L 51.0 0.0 L 50.0 0.0 L 49.0 0.0 L 48.0 0.0 L 47.0 0.0 L 46.0 0.0 L 45.0 0.0 L 44.0 0.0 L 43.0 0.0 L 42.0 0.0 L 41.0 0.0 L 40.0 0.0 L 39.0 0.0 L 38.0 0.0 L 37.0 0.0 L 36.0 0.0 L 35.0 0.0 L 34.0 0.0 L 33.0 0.0 L 32.0 0.0 L 31.0 0.0 L 30.0 0.0 L 29.0 0.0 L 28.0 0.0 L 27.0 0.0 L 26.0 0.0 L 25.0 0.0 L 24.0 0.0 L 23.0 0.0 L 22.0 0.0 L 21.0 0.0 L 20.0 0.0 L 19.0 0.0 L 18.0 0.0 L 17.0 0.0 L 16.0 0.0 L 15.0 0.0 L 14.0 0.0 L 13.0 0.0 L 12.0 0.0 L 11.0 0.0 L 10.0 0.0 L 9.0 0.0 L 8.0 0.0 L 7.0 0.0 L 6.0 0.0 L 5.0 0.0 L 4.0 0.0 L 3.0 0.0 L 2.0 0.0 L 1.0 0.0 L 0.3333333333333333 0.3333333333333333 L 0.0 1.0 L 0.0 2.0 L 0.0 3.0 L 0.0 4.0 L 0.0 5.0 L 0.0 6.0 L 0.0 7.0 L 0.0 8.0 L 0.0 9.0 L 0.0 10.0 L 0.0 11.0 L 0.0 12.0 L 0.0 13.0 L 0.0 14.0 L 0.0 15.0 L 0.0 16.0 L 0.0 17.0 L 0.0 18.0 L 0.0 19.0 L 0.0 20.0 L 0.0 21.0 L 0.0 22.0 L 0.0 23.0 L 0.0 24.0 L 0.0 25.0 L 0.0 26.0 L 0.0 27.0 L 0.0 28.0 L 0.0 29.0 L 0.0 30.0 L 0.0 31.0 L 0.0 32.0 L 0.0 33.0 L 0.0 34.0 L 0.0 35.0 L 0.0 36.0 L 0.0 37.0 L 0.0 38.0 L 0.0 39.0 L 0.0 40.0 L 0.0 41.0 L 0.0 42.0 L 0.0 43.0 L 0.0 44.0 L 0.0 45.0 L 0.0 46.0 L 0.0 47.0 L 0.0 48.0 L 0.0 49.0 L 0.0 50.0 L 0.0 51.0 L 0.0 52.0 L 0.0 53.0 L 0.0 54.0 L 0.0 55.0 L 0.0 56.0 L 0.0 57.0 L 0.0 58.0 L 0.0 59.0 L 0.0 60.0 L 0.0 61.0 L 0.0 62.0 L 0.0 63.0 L 0.0 64.0 L 0.0 65.0 L 0.0 66.0 L 0.0 67.0 L 0.0 68.0 L 0.0 69.0 L 0.0 70.0 L 0.0 71.0 L 0.0 72.0 L 0.0 73.0 L 0.0 74.0 L 0.0 75.0 L 0.0 76.0 L 0.0 77.0 L 0.0 78.0 L 0.0 79.0 L 0.0 80.0 L 0.0 81.0 L 0.0 82.0 L 0.0 83.0 L 0.0 84.0 L 0.0 85.0 L 0.0 86.0 L 0.0 87.0 L 0.0 88.0 L 0.0 89.0 L 0.0 90.0 L 0.0 91.0 L 0.0 92.0 L 0.0 93.0 L 0.0 94.0 L 0.0 95.0 L 0.0 96.0 L 0.0 97.0 L 0.0 98.0 L 0.0 99.0 L 0.0 100.0 L 0.0 101.0 L 0.0 102.0 L 0.0 103.0 L 0.0 104.0 L 0.0 105.0 L 0.0 106.0 L 0.0 107.0 L 0.0 108.0 L 0.0 109.0 L 0.0 110.0 L 0.0 111.0 L 0.0 112.0 L 0.0 113.0 L 0.0 114.0 L 0.0 115.0 L 0.0 116.0 L 0.0 117.0 L 0.0 118.0 L 0.0 119.0 L 0.0 120.0 L 0.0 121.0 L 0.0 122.0 L 0.0 123.0 L 0.0 124.0 L 0.0 125.0 L 0.0 126.0 L 0.0 127.0 L 0.3333333333333333 127.66666666666667 L 1.0 128.0 L 2.0 128.0 L 3.0 128.0 L 4.0 128.0 L 5.0 128.0 L 6.0 128.0 L 7.0 128.0 L 8.0 128.0 L 9.0 128.0 L 10.0 128.0 L 11.0 128.0 L 12.0 128.0 L 13.0 128.0 L 14.0 128.0 L 15.0 128.0 L 16.0 128.0 L 17.0 128.0 L 18.0 128.0 L 19.0 128.0 L 20.0 128.0 L 21.0 128.0 L 22.0 128.0 L 23.0 128.0 L 24.0 128.0 L 25.0 128.0 L 25.5 128.0 Z" stroke="none" fill="rgb(255,255,255)" />
<path d="M 95.5 107.5 L 96.0 107.0 L 97.0 106.0 L 98.0 105.0 L 99.0 104.0 L 100.0 103.0 L 100.66666666666667 102.0 L 101.33333333333333 101.0 L 102.0 100.33333333333333 L 102.66666666666667 99.66666666666667 L 103.0 99.0 L 103.0 98.0 L 103.0 97.0 L 103.0 96.0 L 102.66666666666667 95.0 L 102.33333333333333 94.0 L 102.0 93.0 L 102.33333333333333 92.0 L 103.0 91.33333333333333 L 104.0 90.66666666666667 L 105.0 90.0 L 105.66666666666667 89.0 L 106.0 88.0 L 106.0 87.0 L 106.0 86.0 L 105.66666666666667 85.33333333333333 L 105.0 85.0 L 104.0 85.0 L 103.0 84.66666666666667 L 102.0 84.0 L 101.66666666666667 83.0 L 102.0 82.0 L 103.0 81.0 L 104.0 80.0 L 105.0 79.0 L 106.0 78.0 L 107.0 77.33333333333333 L 107.66666666666667 76.66666666666667 L 108.33333333333333 76.0 L 108.66666666666667 75.0 L 109.0 74.0 L 109.0 73.0 L 109.0 72.0 L 109.0 71.0 L 109.0 70.0 L 109.0 69.0 L 109.0 68.0 L 109.0 67.0 L 109.0 66.0 L 109.0 65.0 L 109.0 64.0 L 108.66666666666667 63.0 L 108.33333333333333 62.0 L 107.66666666666667 61.0 L 107.0 60.0 L 106.0 59.0 L 105.66666666666667 58.0 L 106.0 57.333333333333336 L 106.66666666666667 56.666666666666664 L 107.0 56.0 L 107.0 55.0 L 107.0 54.0 L 107.0 53.0 L 107.0 52.0 L 107.0 51.0 L 107.0 50.0 L 107.0 49.0 L 107.0 48.0 L 107.0 47.0 L 107.0 46.0 L 107.0 45.0 L 107.0 44.0 L 107.0 43.0 L 106.66666666666667 42.0 L 106.33333333333333 41.0 L 105.66666666666667 40.0 L 105.33333333333333 39.0 L 104.66666666666667 38.333333333333336 L 104.0 37.666666666666664 L 103.66666666666667 37.0 L 103.66666666666667 36.0 L 104.0 35.0 L 104.0 34.0 L 104.0 33.0 L 104.0 32.0 L 104.0 31.0 L 103.66666666666667 30.333333333333332 L 103.0 30.0 L 102.0 30.333333333333332 L 101.0 31.0 L 100.0 32.0 L 99.0 32.666666666666664 L 98.0 33.0 L 97.0 33.0 L 96.0 32.666666666666664 L 95.33333333333333 32.0 L 94.66666666666667 31.0 L 94.66666666666667 30.0 L 95.0 29.333333333333332 L 95.66666666666667 28.666666666666668 L 96.0 28.0 L 96.0 27.0 L 96.0 26.0 L 96.0 25.0 L 96.0 24.0 L 96.0 23.0 L 96.0 22.0 L 96.0 21.0 L 96.0 20.0 L 96.0 19.0 L 95.66666666666667 18.0 L 95.33333333333333 17.0 L 94.66666666666667 16.0 L 94.0 15.0 L 93.0 14.333333333333334 L 92.0 13.666666666666666 L 91.0 13.333333333333334 L 90.0 13.0 L 89.0 13.0 L 88.0 13.0 L 87.0 13.333333333333334 L 86.0 13.333333333333334 L 85.0 13.0 L 84.0 12.0 L 83.0 11.0 L 82.0 10.0 L 81.0 9.333333333333334 L 80.0 8.666666666666666 L 79.0 8.333333333333334 L 78.0 8.0 L 77.0 7.666666666666667 L 76.0 7.333333333333333 L 75.0 7.0 L 74.0 7.0 L 73.0 6.666666666666667 L 72.0 6.0 L 71.0 5.333333333333333 L 70.0 4.666666666666667 L 69.0 4.333333333333333 L 68.0 4.0 L 67.0 4.0 L 66.0 4.0 L 65.0 4.0 L 64.0 4.0 L 63.0 4.0 L 62.0 4.0 L 61.0 4.0 L 60.0 4.0 L 59.0 4.333333333333333 L 58.0 4.666666666666667 L 57.0 5.333333333333333 L 56.0 6.0 L 55.0 6.666666666666667 L 54.0 7.0 L 53.0 7.0 L 52.0 7.333333333333333 L 51.0 7.666666666666667 L 50.0 8.0 L 49.0 8.333333333333334 L 48.0 8.666666666666666 L 47.0 9.333333333333334 L 46.0 10.0 L 45.0 11.0 L 44.0 12.0 L 43.0 13.0 L 42.0 13.333333333333334 L 41.0 13.333333333333334 L 40.0 13.0 L 39.0 13.0 L 38.0 13.0 L 37.0 13.333333333333334 L 36.0 13.666666666666666 L 35.0 14.333333333333334 L 34.0 15.0 L 33.333333333333336 16.0 L 33.0 17.0 L 32.666666666666664 18.0 L 32.333333333333336 19.0 L 32.0 20.0 L 32.0 21.0 L 32.0 22.0 L 32.0 23.0 L 32.0 24.0 L 32.0 25.0 L 32.0 26.0 L 32.333333333333336 27.0 L 32.666666666666664 28.0 L 33.333333333333336 29.0 L 33.666666666666664 30.0 L 33.666666666666664 31.0 L 33.0 32.0 L 32.0 32.666666666666664 L 31.0 33.0 L 30.0 33.0 L 29.0 32.666666666666664 L 28.0 32.0 L 27.0 31.0 L 26.0 30.333333333333332 L 25.0 30.0 L 24.333333333333332 30.333333333333332 L 24.0 31.0 L 24.0 32.0 L 24.0 33.0 L 24.0 34.0 L 24.0 35.0 L 24.333333333333332 36.0 L 24.333333333333332 37.0 L 24.0 37.666666666666664 L 23.333333333333332 38.333333333333336 L 22.666666666666668 39.0 L 22.333333333333332 40.0 L 21.666666666666668 41.0 L 21.333333333333332 42.0 L 21.0 43.0 L 21.0 44.0 L 21.0 45.0 L 21.0 46.0 L 21.0 47.0 L 21.0 48.0 L 21.0 49.0 L 21.0 50.0 L 21.0 51.0 L 21.0 52.0 L 21.0 53.0 L 21.333333333333332 54.0 L 21.666666666666668 55.0 L 22.0 56.0 L 22.333333333333332 57.0 L 22.333333333333332 58.0 L 22.0 59.0 L 21.0 60.0 L 20.333333333333332 61.0 L 19.666666666666668 62.0 L 19.333333333333332 63.0 L 19.0 64.0 L 19.0 65.0 L 19.0 66.0 L 19.0 67.0 L 19.0 68.0 L 19.0 69.0 L 19.0 70.0 L 19.0 71.0 L 19.0 72.0 L 19.333333333333332 73.0 L 19.666666666666668 74.0 L 20.333333333333332 75.0 L 20.666666666666668 76.0 L 21.333333333333332 77.0 L 22.0 78.0 L 23.0 79.0 L 24.0 80.0 L 25.0 81.0 L 26.0 82.0 L 26.333333333333332 83.0 L 26.0 84.0 L 25.0 84.66666666666667 L 24.0 85.0 L 23.0 85.0 L 22.333333333333332 85.33333333333333 L 22.0 86.0 L 22.0 87.0 L 22.0 88.0 L 22.333333333333332 89.0 L 23.0 89.66666666666667 L 24.0 90.33333333333333 L 25.0 91.0 L 25.666666666666668 92.0 L 26.0 93.0 L 26.0 94.0 L 26.0 95.0 L 26.0 96.0 L 26.0 97.0 L 26.0 98.0 L 26.0 99.0 L 26.333333333333332 100.0 L 27.0 101.0 L 27.666666666666668 102.0 L 28.333333333333332 103.0 L 29.0 104.0 L 30.0 105.0 L 31.0 106.0 L 32.0 107.0 L 33.0 107.66666666666667 L 34.0 108.0 L 35.0 108.0 L 36.0 108.0 L 37.0 108.33333333333333 L 38.0 109.0 L 38.666666666666664 110.0 L 39.333333333333336 111.0 L 40.0 112.0 L 41.0 113.0 L 41.666666666666664 114.0 L 42.333333333333336 115.0 L 43.0 116.0 L 44.0 116.66666666666667 L 45.0 117.0 L 46.0 117.33333333333333 L 47.0 117.66666666666667 L 48.0 118.0 L 49.0 118.0 L 50.0 118.0 L 51.0 118.0 L 52.0 118.0 L 53.0 118.0 L 54.0 118.0 L 55.0 118.0 L 56.0 118.0 L 57.0 118.0 L 58.0 118.0 L 59.0 118.33333333333333 L 60.0 119.0 L 61.0 120.0 L 62.0 120.66666666666667 L 63.0 121.0 L 64.0 121.0 L 65.0 121.0 L 66.0 120.66666666666667 L 67.0 120.0 L 68.0 119.33333333333333 L 69.0 118.66666666666667 L 70.0 118.33333333333333 L 71.0 118.0 L 72.0 118.0 L 73.0 118.0 L 74.0 118.0 L 75.0 118.0 L 76.0 118.0 L 77.0 118.0 L 78.0 118.0 L 79.0 118.0 L 80.0 118.0 L 81.0 118.0 L 82.0 117.66666666666667 L 83.0 117.33333333333333 L 84.0 116.66666666666667 L 85.0 116.0 L 86.0 115.33333333333333 L 86.66666666666667 114.66666666666667 L 87.33333333333333 114.0 L 87.66666666666667 113.0 L 88.33333333333333 112.0 L 88.66666666666667 111.0 L 89.33333333333333 110.0 L 90.0 109.33333333333333 L 91.0 109.0 L 92.0 109.0 L 93.0 108.66666666666667 L 94.0 108.33333333333333 L 94.5 108.0 Z" stroke="none" fill="rgb(214,139,82)" />
<path d="M 33.5 91.5 L 33.666666666666664 92.0 L 34.333333333333336 93.0 L 35.0 94.0 L 35.666666666666664 95.0 L 36.333333333333336 96.0 L 37.0 97.0 L 38.0 98.0 L 39.0 99.0 L 39.666666666666664 100.0 L 40.333333333333336 101.0 L 41.0 102.0 L 42.0 103.0 L 43.0 104.0 L 44.0 105.0 L 45.0 106.0 L 46.0 106.66666666666667 L 47.0 107.33333333333333 L 48.0 107.66666666666667 L 49.0 108.33333333333333 L 50.0 108.66666666666667 L 51.0 109.33333333333333 L 52.0 109.66666666666667 L 53.0 110.33333333333333 L 54.0 110.66666666666667 L 55.0 111.0 L 56.0 111.0 L 57.0 111.0 L 58.0 111.33333333333333 L 59.0 111.66666666666667 L 60.0 112.0 L 61.0 112.0 L 62.0 112.0 L 63.0 112.0 L 64.0 112.0 L 65.0 112.0 L 66.0 112.0 L 67.0 112.0 L 68.0 112.0 L 69.0 112.0 L 70.0 112.0 L 71.0 112.0 L 72.0 111.66666666666667 L 73.0 111.33333333333333 L 74.0 111.0 L 75.0 110.66666666666667 L 76.0 110.33333333333333 L 77.0 109.66666666666667 L 78.0 109.33333333333333 L 79.0 108.66666666666667 L 80.0 108.33333333333333 L 81.0 107.66666666666667 L 82.0 107.0 L 83.0 106.0 L 84.0 105.33333333333333 L 85.0 105.0 L 86.0 104.66666666666667 L 86.66666666666667 104.0 L 87.0 103.0 L 87.33333333333333 102.0 L 88.0 101.0 L 89.0 100.0 L 89.66666666666667 99.0 L 90.33333333333333 98.0 L 91.0 97.0 L 91.66666666666667 96.0 L 92.33333333333333 95.0 L 93.0 94.0 L 94.0 93.0 L 95.0 92.33333333333333 L 95.66666666666667 91.66666666666667 L 96.0 91.0 L 96.33333333333333 90.0 L 96.66666666666667 89.0 L 97.0 88.0 L 97.33333333333333 87.0 L 97.66666666666667 86.0 L 98.0 85.0 L 98.33333333333333 84.0 L 98.66666666666667 83.0 L 99.0 82.0 L 99.0 81.0 L 99.0 80.0 L 99.33333333333333 79.0 L 99.66666666666667 78.0 L 100.0 77.0 L 100.0 76.0 L 100.0 75.0 L 100.33333333333333 74.0 L 100.66666666666667 73.0 L 101.0 72.0 L 101.0 71.0 L 101.0 70.0 L 101.0 69.0 L 101.0 68.0 L 101.0 67.0 L 101.33333333333333 66.0 L 101.66666666666667 65.0 L 101.66666666666667 64.0 L 101.0 63.0 L 100.33333333333333 62.0 L 100.0 61.0 L 100.0 60.0 L 100.0 59.0 L 100.0 58.0 L 100.0 57.0 L 100.0 56.0 L 100.33333333333333 55.0 L 100.66666666666667 54.0 L 100.66666666666667 53.0 L 100.33333333333333 52.0 L 100.0 51.0 L 99.66666666666667 50.0 L 99.0 49.0 L 98.33333333333333 48.0 L 98.0 47.0 L 98.0 46.0 L 98.0 45.0 L 97.66666666666667 44.0 L 97.33333333333333 43.0 L 97.0 42.0 L 96.66666666666667 41.0 L 96.33333333333333 40.0 L 96.0 39.0 L 95.66666666666667 38.0 L 95.0 37.0 L 94.33333333333333 36.0 L 93.66666666666667 35.0 L 93.0 34.0 L 92.33333333333333 33.0 L 91.66666666666667 32.0 L 91.0 31.0 L 90.33333333333333 30.0 L 89.66666666666667 29.0 L 89.0 28.0 L 88.0 27.0 L 87.0 26.0 L 86.0 25.0 L 85.0 24.0 L 84.0 23.0 L 83.0 22.333333333333332 L 82.0 21.666666666666668 L 81.0 21.0 L 80.0 20.0 L 79.0 19.333333333333332 L 78.0 18.666666666666668 L 77.0 18.333333333333332 L 76.0 18.0 L 75.0 18.0 L 74.0 17.666666666666668 L 73.0 17.333333333333332 L 72.0 16.666666666666668 L 71.0 16.333333333333332 L 70.0 16.333333333333332 L 69.0 16.666666666666668 L 68.0 17.0 L 67.0 17.0 L 66.0 17.0 L 65.0 17.0 L 64.0 17.0 L 63.0 17.0 L 62.0 17.0 L 61.0 17.0 L 60.0 17.0 L 59.0 16.666666666666668 L 58.0 16.333333333333332 L 57.0 16.333333333333332 L 56.0 17.0 L 55.0 17.666666666666668 L 54.0 18.0 L 53.0 18.0 L 52.0 18.0 L 51.0 18.333333333333332 L 50.0 18.666666666666668 L 49.0 19.333333333333332 L 48.0 20.0 L 47.0 21.0 L 46.0 21.666666666666668 L 45.0 22.333333333333332 L 44.0 23.0 L 43.0 24.0 L 42.0 25.0 L 41.0 26.0 L 40.0 27.0 L 39.0 28.0 L 38.333333333333336 29.0 L 37.666666666666664 30.0 L 37.0 31.0 L 36.333333333333336 32.0 L 35.666666666666664 33.0 L 35.333333333333336 34.0 L 34.666666666666664 35.0 L 34.0 36.0 L 33.0 37.0 L 32.333333333333336 38.0 L 32.0 39.0 L 31.666666666666668 40.0 L 31.333333333333332 41.0 L 30.666666666666668 42.0 L 30.333333333333332 43.0 L 30.0 44.0 L 29.666666666666668 45.0 L 29.333333333333332 46.0 L 29.0 47.0 L 29.0 48.0 L 28.666666666666668 49.0 L 28.333333333333332 50.0 L 28.0 51.0 L 28.0 52.0 L 28.0 53.0 L 28.0 54.0 L 28.0 55.0 L 28.0 56.0 L 28.0 57.0 L 28.0 58.0 L 28.0 59.0 L 28.0 60.0 L 28.0 61.0 L 28.0 62.0 L 28.0 63.0 L 28.0 64.0 L 27.666666666666668 65.0 L 27.333333333333332 66.0 L 27.0 67.0 L 27.0 68.0 L 27.0 69.0 L 27.0 70.0 L 27.0 71.0 L 27.333333333333332 72.0 L 27.666666666666668 73.0 L 28.0 74.0 L 28.0 75.0 L 28.0 76.0 L 28.0 77.0 L 28.333333333333332 78.0 L 28.666666666666668 79.0 L 29.0 80.0 L 29.333333333333332 81.0 L 29.666666666666668 82.0 L 30.0 83.0 L 30.333333333333332 84.0 L 30.666666666666668 85.0 L 31.0 86.0 L 31.333333333333332 87.0 L 31.666666666666668 88.0 L 32.333333333333336 89.0 L 32.666666666666664 90.0 L 33.0 90.5 Z" stroke="none" fill="rgb(245,173,113)" />
<path d="M 59.5 74.5 L 60.0 74.66666666666667 L 61.0 75.33333333333333 L 62.0 75.66666666666667 L 63.0 76.0 L 64.0 76.33333333333333 L 65.0 76.66666666666667 L 66.0 77.33333333333333 L 67.0 77.66666666666667 L 68.0 78.0 L 69.0 78.33333333333333 L 70.0 78.66666666666667 L 71.0 79.33333333333333 L 72.0 79.66666666666667 L 73.0 80.0 L 74.0 80.33333333333333 L 75.0 80.66666666666667 L 76.0 81.33333333333333 L 77.0 81.66666666666667 L 78.0 82.33333333333333 L 79.0 82.66666666666667 L 80.0 83.0 L 81.0 83.33333333333333 L 82.0 83.66666666666667 L 83.0 84.33333333333333 L 84.0 84.66666666666667 L 85.0 85.0 L 86.0 85.33333333333333 L 87.0 85.66666666666667 L 88.0 86.33333333333333 L 89.0 86.66666666666667 L 90.0 87.33333333333333 L 91.0 87.66666666666667 L 92.0 87.66666666666667 L 92.66666666666667 87.0 L 93.33333333333333 86.0 L 93.66666666666667 85.0 L 94.0 84.0 L 94.0 83.0 L 94.0 82.0 L 93.66666666666667 81.0 L 93.0 80.0 L 92.0 79.33333333333333 L 91.0 78.66666666666667 L 90.0 78.0 L 89.0 77.33333333333333 L 88.0 76.66666666666667 L 87.33333333333333 76.0 L 87.0 75.0 L 87.0 74.0 L 87.0 73.0 L 87.0 72.0 L 87.0 71.0 L 87.0 70.0 L 87.0 69.0 L 87.0 68.0 L 86.66666666666667 67.0 L 86.33333333333333 66.0 L 86.0 65.0 L 85.66666666666667 64.0 L 85.33333333333333 63.0 L 84.66666666666667 62.0 L 84.33333333333333 61.0 L 83.66666666666667 60.0 L 83.33333333333333 59.0 L 82.66666666666667 58.0 L 82.0 57.0 L 81.33333333333333 56.0 L 80.66666666666667 55.0 L 80.0 54.0 L 79.0 53.0 L 78.0 52.0 L 77.0 51.0 L 76.0 50.0 L 75.0 49.0 L 74.0 48.0 L 73.0 47.333333333333336 L 72.0 46.666666666666664 L 71.0 46.333333333333336 L 70.0 45.666666666666664 L 69.0 45.0 L 68.0 44.333333333333336 L 67.0 44.0 L 66.0 43.666666666666664 L 65.0 43.333333333333336 L 64.0 43.0 L 63.0 42.666666666666664 L 62.0 42.333333333333336 L 61.0 42.0 L 60.0 42.0 L 59.0 42.0 L 58.0 42.0 L 57.0 42.0 L 56.0 42.0 L 55.0 42.0 L 54.333333333333336 42.333333333333336 L 54.0 43.0 L 54.333333333333336 43.666666666666664 L 55.0 44.0 L 56.0 44.0 L 57.0 44.0 L 58.0 44.0 L 59.0 44.0 L 60.0 44.333333333333336 L 61.0 44.666666666666664 L 62.0 45.0 L 63.0 45.0 L 64.0 45.333333333333336 L 65.0 45.666666666666664 L 66.0 46.333333333333336 L 67.0 46.666666666666664 L 68.0 47.333333333333336 L 69.0 47.666666666666664 L 70.0 48.333333333333336 L 71.0 49.0 L 72.0 49.666666666666664 L 73.0 50.333333333333336 L 74.0 51.0 L 75.0 52.0 L 76.0 53.0 L 77.0 54.0 L 78.0 55.0 L 78.66666666666667 56.0 L 79.33333333333333 57.0 L 80.0 58.0 L 80.66666666666667 59.0 L 81.33333333333333 60.0 L 81.66666666666667 61.0 L 82.33333333333333 62.0 L 82.66666666666667 63.0 L 83.33333333333333 64.0 L 83.66666666666667 65.0 L 84.0 66.0 L 84.33333333333333 67.0 L 84.66666666666667 68.0 L 85.0 69.0 L 85.0 70.0 L 85.0 71.0 L 85.0 72.0 L 85.0 73.0 L 85.0 74.0 L 84.66666666666667 75.0 L 84.0 75.33333333333333 L 83.0 75.33333333333333 L 82.0 75.0 L 81.0 74.66666666666667 L 80.0 74.33333333333333 L 79.0 73.66666666666667 L 78.0 73.33333333333333 L 77.0 72.66666666666667 L 76.0 72.33333333333333 L 75.0 72.0 L 74.0 71.66666666666667 L 73.0 71.33333333333333 L 72.0 70.66666666666667 L 71.0 70.33333333333333 L 70.0 70.0 L 69.0 69.66666666666667 L 68.0 69.33333333333333 L 67.0 68.66666666666667 L 66.0 68.33333333333333 L 65.0 68.0 L 64.0 67.66666666666667 L 63.0 67.33333333333333 L 62.0 66.66666666666667 L 61.0 66.33333333333333 L 60.0 65.66666666666667 L 59.0 65.33333333333333 L 58.0 65.0 L 57.0 64.66666666666667 L 56.0 64.33333333333333 L 55.0 63.666666666666664 L 54.0 63.333333333333336 L 53.0 63.0 L 52.0 62.666666666666664 L 51.0 62.333333333333336 L 50.0 61.666666666666664 L 49.0 61.333333333333336 L 48.0 61.0 L 47.0 60.666666666666664 L 46.0 60.333333333333336 L 45.0 59.666666666666664 L 44.0 59.333333333333336 L 43.0 58.666666666666664 L 42.0 58.333333333333336 L 41.0 58.0 L 40.0 57.666666666666664 L 39.0 57.333333333333336 L 38.0 56.666666666666664 L 37.0 56.333333333333336 L 36.0 56.0 L 35.0 56.0 L 34.0 56.0 L 33.333333333333336 56.333333333333336 L 33.0 57.0 L 33.0 58.0 L 32.666666666666664 59.0 L 32.333333333333336 60.0 L 32.0 61.0 L 32.0 62.0 L 32.0 63.0 L 32.333333333333336 63.666666666666664 L 33.0 64.0 L 34.0 64.0 L 35.0 64.33333333333333 L 36.0 64.66666666666667 L 37.0 65.33333333333333 L 38.0 65.66666666666667 L 39.0 66.0 L 40.0 66.33333333333333 L 41.0 66.66666666666667 L 42.0 67.33333333333333 L 43.0 67.66666666666667 L 44.0 68.0 L 45.0 68.33333333333333 L 46.0 68.66666666666667 L 47.0 69.33333333333333 L 48.0 69.66666666666667 L 49.0 70.33333333333333 L 50.0 70.66666666666667 L 51.0 71.0 L 52.0 71.33333333333333 L 53.0 71.66666666666667 L 54.0 72.33333333333333 L 55.0 72.66666666666667 L 56.0 73.0 L 57.0 73.33333333333333 L 58.0 73.66666666666667 L 58.5 74.0 Z" stroke="none" fill="rgb(206,238,253)" />
<path d="M 88.5 38.5 L 88.66666666666667 39.0 L 89.33333333333333 40.0 L 89.66666666666667 41.0 L 90.33333333333333 42.0 L 90.66666666666667 43.0 L 91.33333333333333 44.0 L 91.66666666666667 45.0 L 92.0 46.0 L 92.0 47.0 L 92.33333333333333 48.0 L 92.66666666666667 49.0 L 93.33333333333333 50.0 L 94.0 50.666666666666664 L 94.66666666666667 50.666666666666664 L 95.0 50.0 L 95.0 49.0 L 95.0 48.0 L 94.66666666666667 47.0 L 94.33333333333333 46.0 L 94.0 45.0 L 93.66666666666667 44.0 L 93.33333333333333 43.0 L 93.0 42.0 L 92.66666666666667 41.0 L 92.33333333333333 40.0 L 91.66666666666667 39.0 L 91.33333333333333 38.0 L 90.66666666666667 37.0 L 90.0 36.0 L 89.33333333333333 35.0 L 88.66666666666667 34.0 L 88.0 33.0 L 87.0 32.0 L 86.0 31.0 L 85.0 30.0 L 84.0 29.0 L 83.0 28.0 L 82.0 27.0 L 81.0 26.333333333333332 L 80.0 25.666666666666668 L 79.0 25.0 L 78.0 24.333333333333332 L 77.0 23.666666666666668 L 76.0 23.333333333333332 L 75.0 22.666666666666668 L 74.0 22.333333333333332 L 73.0 21.666666666666668 L 72.0 21.333333333333332 L 71.0 21.0 L 70.0 21.0 L 69.0 21.0 L 68.0 21.0 L 67.0 21.0 L 66.0 21.0 L 65.0 21.0 L 64.0 21.0 L 63.0 21.0 L 62.0 21.0 L 61.0 21.0 L 60.0 21.0 L 59.0 21.0 L 58.0 21.333333333333332 L 57.0 21.666666666666668 L 56.0 22.0 L 55.0 22.0 L 54.0 22.333333333333332 L 53.0 22.666666666666668 L 52.0 23.333333333333332 L 51.0 23.666666666666668 L 50.0 24.333333333333332 L 49.0 25.0 L 48.0 25.666666666666668 L 47.0 26.333333333333332 L 46.0 27.0 L 45.0 28.0 L 44.0 29.0 L 43.0 30.0 L 42.0 31.0 L 41.0 32.0 L 40.0 33.0 L 39.333333333333336 34.0 L 38.666666666666664 35.0 L 38.0 36.0 L 37.333333333333336 37.0 L 36.666666666666664 38.0 L 36.333333333333336 39.0 L 36.0 40.0 L 35.666666666666664 41.0 L 35.333333333333336 42.0 L 35.0 43.0 L 35.0 44.0 L 35.333333333333336 44.666666666666664 L 36.0 44.666666666666664 L 36.666666666666664 44.0 L 37.333333333333336 43.0 L 37.666666666666664 42.0 L 38.333333333333336 41.0 L 39.0 40.0 L 40.0 39.0 L 40.666666666666664 38.0 L 41.333333333333336 37.0 L 42.0 36.0 L 43.0 35.0 L 44.0 34.0 L 45.0 33.0 L 46.0 32.0 L 47.0 31.0 L 48.0 30.0 L 49.0 29.333333333333332 L 50.0 28.666666666666668 L 51.0 28.0 L 52.0 27.333333333333332 L 53.0 26.666666666666668 L 54.0 26.333333333333332 L 55.0 26.0 L 56.0 25.666666666666668 L 57.0 25.333333333333332 L 58.0 25.0 L 59.0 24.666666666666668 L 60.0 24.333333333333332 L 61.0 24.0 L 62.0 24.0 L 63.0 24.0 L 64.0 24.0 L 65.0 24.0 L 66.0 24.0 L 67.0 24.0 L 68.0 24.0 L 69.0 24.0 L 70.0 24.333333333333332 L 71.0 24.666666666666668 L 72.0 25.0 L 73.0 25.333333333333332 L 74.0 25.666666666666668 L 75.0 26.333333333333332 L 76.0 27.0 L 77.0 27.666666666666668 L 78.0 28.333333333333332 L 79.0 29.0 L 80.0 30.0 L 81.0 31.0 L 82.0 32.0 L 83.0 33.0 L 84.0 34.0 L 85.0 35.0 L 86.0 36.0 L 87.0 37.0 L 87.5 37.5 Z" stroke="none" fill="rgb(186,121,62)" />
<path d="M 57.5 65.0 L 58.0 65.33333333333333 L 59.0 65.66666666666667 L 60.0 66.33333333333333 L 61.0 66.66666666666667 L 62.0 67.33333333333333 L 63.0 67.66666666666667 L 64.0 68.0 L 65.0 68.33333333333333 L 66.0 68.66666666666667 L 67.0 69.33333333333333 L 68.0 69.66666666666667 L 69.0 70.0 L 70.0 70.33333333333333 L 71.0 70.66666666666667 L 72.0 71.33333333333333 L 73.0 71.66666666666667 L 74.0 72.0 L 75.0 72.33333333333333 L 76.0 72.66666666666667 L 77.0 73.33333333333333 L 78.0 73.66666666666667 L 79.0 74.33333333333333 L 80.0 74.66666666666667 L 81.0 75.0 L 82.0 75.33333333333333 L 83.0 75.66666666666667 L 84.0 76.0 L 84.66666666666667 75.66666666666667 L 85.0 75.0 L 85.0 74.0 L 85.0 73.0 L 85.0 72.0 L 85.0 71.0 L 85.0 70.0 L 85.0 69.0 L 85.0 68.0 L 84.66666666666667 67.0 L 84.33333333333333 66.0 L 84.0 65.0 L 83.66666666666667 64.0 L 83.33333333333333 63.0 L 82.66666666666667 62.0 L 82.33333333333333 61.0 L 81.66666666666667 60.0 L 81.33333333333333 59.0 L 80.66666666666667 58.0 L 80.0 57.0 L 79.33333333333333 56.0 L 78.66666666666667 55.0 L 78.0 54.0 L 77.0 53.0 L 76.0 52.0 L 75.0 51.0 L 74.0 50.333333333333336 L 73.0 49.666666666666664 L 72.0 49.0 L 71.0 48.333333333333336 L 70.0 47.666666666666664 L 69.0 47.333333333333336 L 68.0 46.666666666666664 L 67.0 46.333333333333336 L 66.0 45.666666666666664 L 65.0 45.333333333333336 L 64.0 45.0 L 63.0 45.0 L 62.0 44.666666666666664 L 61.0 44.333333333333336 L 60.0 44.0 L 59.0 44.0 L 58.0 44.0 L 57.0 44.0 L 56.0 44.0 L 55.0 44.333333333333336 L 54.333333333333336 45.0 L 54.0 46.0 L 54.333333333333336 46.666666666666664 L 55.0 47.0 L 56.0 47.0 L 57.0 47.0 L 58.0 47.0 L 59.0 47.0 L 60.0 47.0 L 61.0 47.0 L 62.0 47.333333333333336 L 63.0 47.666666666666664 L 64.0 48.0 L 65.0 48.0 L 66.0 48.333333333333336 L 67.0 49.0 L 68.0 49.666666666666664 L 69.0 50.333333333333336 L 70.0 51.0 L 71.0 51.666666666666664 L 72.0 52.333333333333336 L 73.0 53.0 L 74.0 54.0 L 75.0 55.0 L 76.0 56.0 L 77.0 57.0 L 77.66666666666667 58.0 L 78.33333333333333 59.0 L 78.66666666666667 60.0 L 79.33333333333333 61.0 L 80.0 62.0 L 80.33333333333333 63.0 L 80.0 63.666666666666664 L 79.0 63.666666666666664 L 78.0 63.333333333333336 L 77.0 63.0 L 76.0 62.666666666666664 L 75.0 62.333333333333336 L 74.0 61.666666666666664 L 73.0 61.333333333333336 L 72.0 60.666666666666664 L 71.0 60.333333333333336 L 70.0 60.0 L 69.0 59.666666666666664 L 68.0 59.333333333333336 L 67.0 58.666666666666664 L 66.0 58.333333333333336 L 65.0 58.0 L 64.0 57.666666666666664 L 63.0 57.333333333333336 L 62.0 56.666666666666664 L 61.0 56.333333333333336 L 60.0 55.666666666666664 L 59.0 55.333333333333336 L 58.0 55.0 L 57.0 54.666666666666664 L 56.0 54.333333333333336 L 55.0 53.666666666666664 L 54.0 53.333333333333336 L 53.0 53.0 L 52.0 52.666666666666664 L 51.0 52.333333333333336 L 50.0 51.666666666666664 L 49.0 51.333333333333336 L 48.0 51.0 L 47.0 50.666666666666664 L 46.0 50.333333333333336 L 45.0 49.666666666666664 L 44.0 49.333333333333336 L 43.0 48.666666666666664 L 42.0 48.333333333333336 L 41.0 48.0 L 40.0 47.666666666666664 L 39.0 47.333333333333336 L 38.0 47.0 L 37.0 47.0 L 36.0 47.333333333333336 L 35.333333333333336 48.0 L 34.666666666666664 49.0 L 34.333333333333336 50.0 L 34.0 51.0 L 33.666666666666664 52.0 L 33.333333333333336 53.0 L 33.0 54.0 L 33.0 55.0 L 33.333333333333336 55.666666666666664 L 34.0 56.0 L 35.0 56.0 L 36.0 56.333333333333336 L 37.0 56.666666666666664 L 38.0 57.333333333333336 L 39.0 57.666666666666664 L 40.0 58.0 L 41.0 58.333333333333336 L 42.0 58.666666666666664 L 43.0 59.333333333333336 L 44.0 59.666666666666664 L 45.0 60.333333333333336 L 46.0 60.666666666666664 L 47.0 61.0 L 48.0 61.333333333333336 L 49.0 61.666666666666664 L 50.0 62.333333333333336 L 51.0 62.666666666666664 L 52.0 63.0 L 53.0 63.333333333333336 L 54.0 63.666666666666664 L 55.0 64.33333333333333 L 56.0 64.66666666666667 L 56.5 65.0 Z" stroke="none" fill="rgb(201,237,253)" />
<path d="M 59.5 94.0 L 60.0 94.33333333333333 L 61.0 94.66666666666667 L 62.0 95.33333333333333 L 63.0 95.66666666666667 L 64.0 96.0 L 65.0 96.33333333333333 L 66.0 96.66666666666667 L 67.0 97.33333333333333 L 68.0 97.66666666666667 L 69.0 98.0 L 70.0 98.33333333333333 L 71.0 98.66666666666667 L 72.0 99.33333333333333 L 73.0 99.66666666666667 L 74.0 100.0 L 75.0 100.33333333333333 L 76.0 100.66666666666667 L 77.0 101.33333333333333 L 78.0 102.0 L 79.0 102.66666666666667 L 80.0 102.66666666666667 L 81.0 102.0 L 82.0 101.0 L 83.0 100.0 L 84.0 99.0 L 85.0 98.0 L 86.0 97.0 L 86.66666666666667 96.0 L 87.0 95.0 L 86.66666666666667 94.0 L 86.0 93.33333333333333 L 85.0 92.66666666666667 L 84.0 92.33333333333333 L 83.0 92.0 L 82.0 91.66666666666667 L 81.0 91.33333333333333 L 80.0 90.66666666666667 L 79.0 90.33333333333333 L 78.0 90.0 L 77.0 89.66666666666667 L 76.0 89.33333333333333 L 75.0 88.66666666666667 L 74.0 88.33333333333333 L 73.0 87.66666666666667 L 72.0 87.33333333333333 L 71.0 87.0 L 70.0 86.66666666666667 L 69.0 86.33333333333333 L 68.0 85.66666666666667 L 67.0 85.33333333333333 L 66.0 85.0 L 65.0 84.66666666666667 L 64.0 84.33333333333333 L 63.0 83.66666666666667 L 62.0 83.33333333333333 L 61.0 83.0 L 60.0 82.66666666666667 L 59.0 82.33333333333333 L 58.0 81.66666666666667 L 57.0 81.33333333333333 L 56.0 80.66666666666667 L 55.0 80.33333333333333 L 54.0 80.0 L 53.0 79.66666666666667 L 52.0 79.33333333333333 L 51.0 78.66666666666667 L 50.0 78.33333333333333 L 49.0 78.0 L 48.0 77.66666666666667 L 47.0 77.33333333333333 L 46.0 76.66666666666667 L 45.0 76.33333333333333 L 44.0 75.66666666666667 L 43.0 75.33333333333333 L 42.0 75.0 L 41.0 74.66666666666667 L 40.0 74.33333333333333 L 39.0 73.66666666666667 L 38.0 73.33333333333333 L 37.0 73.0 L 36.0 72.66666666666667 L 35.0 72.33333333333333 L 34.0 72.0 L 33.333333333333336 72.33333333333333 L 33.0 73.0 L 33.0 74.0 L 33.0 75.0 L 33.0 76.0 L 33.0 77.0 L 33.0 78.0 L 33.0 79.0 L 33.333333333333336 80.0 L 33.666666666666664 81.0 L 34.0 82.0 L 34.333333333333336 83.0 L 35.0 84.0 L 36.0 84.66666666666667 L 37.0 85.0 L 38.0 85.33333333333333 L 39.0 85.66666666666667 L 40.0 86.0 L 41.0 86.33333333333333 L 42.0 86.66666666666667 L 43.0 87.33333333333333 L 44.0 87.66666666666667 L 45.0 88.0 L 46.0 88.33333333333333 L 47.0 88.66666666666667 L 48.0 89.33333333333333 L 49.0 89.66666666666667 L 50.0 90.33333333333333 L 51.0 90.66666666666667 L 52.0 91.0 L 53.0 91.33333333333333 L 54.0 91.66666666666667 L 55.0 92.33333333333333 L 56.0 92.66666666666667 L 57.0 93.0 L 58.0 93.33333333333333 L 58.5 93.5 Z" stroke="none" fill="rgb(217,242,254)" />
<path d="M 59.5 83.0 L 60.0 83.0 L 61.0 83.33333333333333 L 62.0 83.66666666666667 L 63.0 84.33333333333333 L 64.0 84.66666666666667 L 65.0 85.0 L 66.0 85.33333333333333 L 67.0 85.66666666666667 L 68.0 86.33333333333333 L 69.0 86.66666666666667 L 70.0 87.0 L 71.0 87.33333333333333 L 72.0 87.66666666666667 L 73.0 88.33333333333333 L 74.0 88.66666666666667 L 75.0 89.33333333333333 L 76.0 89.66666666666667 L 77.0 90.0 L 78.0 90.33333333333333 L 79.0 90.66666666666667 L 80.0 91.33333333333333 L 81.0 91.66666666666667 L 82.0 92.0 L 83.0 92.33333333333333 L 84.0 92.66666666666667 L 85.0 93.33333333333333 L 86.0 94.0 L 87.0 94.66666666666667 L 88.0 94.66666666666667 L 88.66666666666667 94.0 L 89.33333333333333 93.0 L 90.0 92.0 L 90.66666666666667 91.0 L 91.0 90.0 L 91.0 89.0 L 91.0 88.0 L 90.66666666666667 87.33333333333333 L 90.0 86.66666666666667 L 89.0 86.33333333333333 L 88.0 85.66666666666667 L 87.0 85.33333333333333 L 86.0 85.0 L 85.0 84.66666666666667 L 84.0 84.33333333333333 L 83.0 83.66666666666667 L 82.0 83.33333333333333 L 81.0 83.0 L 80.0 82.66666666666667 L 79.0 82.33333333333333 L 78.0 81.66666666666667 L 77.0 81.33333333333333 L 76.0 80.66666666666667 L 75.0 80.33333333333333 L 74.0 80.0 L 73.0 79.66666666666667 L 72.0 79.33333333333333 L 71.0 78.66666666666667 L 70.0 78.33333333333333 L 69.0 78.0 L 68.0 77.66666666666667 L 67.0 77.33333333333333 L 66.0 76.66666666666667 L 65.0 76.33333333333333 L 64.0 76.0 L 63.0 75.66666666666667 L 62.0 75.33333333333333 L 61.0 74.66666666666667 L 60.0 74.33333333333333 L 59.0 73.66666666666667 L 58.0 73.33333333333333 L 57.0 73.0 L 56.0 72.66666666666667 L 55.0 72.33333333333333 L 54.0 71.66666666666667 L 53.0 71.33333333333333 L 52.0 71.0 L 51.0 70.66666666666667 L 50.0 70.33333333333333 L 49.0 69.66666666666667 L 48.0 69.33333333333333 L 47.0 68.66666666666667 L 46.0 68.33333333333333 L 45.0 68.0 L 44.0 67.66666666666667 L 43.0 67.33333333333333 L 42.0 66.66666666666667 L 41.0 66.33333333333333 L 40.0 66.0 L 39.0 65.66666666666667 L 38.0 65.33333333333333 L 37.0 64.66666666666667 L 36.0 64.33333333333333 L 35.0 64.0 L 34.0 64.0 L 33.0 64.0 L 32.333333333333336 64.33333333333333 L 32.0 65.0 L 32.0 66.0 L 32.0 67.0 L 32.0 68.0 L 32.0 69.0 L 32.0 70.0 L 32.0 71.0 L 32.333333333333336 71.66666666666667 L 33.0 72.0 L 34.0 72.33333333333333 L 35.0 72.66666666666667 L 36.0 73.0 L 37.0 73.33333333333333 L 38.0 73.66666666666667 L 39.0 74.33333333333333 L 40.0 74.66666666666667 L 41.0 75.0 L 42.0 75.33333333333333 L 43.0 75.66666666666667 L 44.0 76.33333333333333 L 45.0 76.66666666666667 L 46.0 77.33333333333333 L 47.0 77.66666666666667 L 48.0 78.0 L 49.0 78.33333333333333 L 50.0 78.66666666666667 L 51.0 79.33333333333333 L 52.0 79.66666666666667 L 53.0 80.0 L 54.0 80.33333333333333 L 55.0 80.66666666666667 L 56.0 81.33333333333333 L 57.0 81.66666666666667 L 58.0 82.33333333333333 L 58.5 82.5 Z" stroke="none" fill="rgb(211,240,253)" />
<path d="M 46.5 101.5 L 47.0 102.0 L 48.0 103.0 L 49.0 103.66666666666667 L 50.0 104.33333333333333 L 51.0 104.66666666666667 L 52.0 105.33333333333333 L 53.0 105.66666666666667 L 54.0 106.33333333333333 L 55.0 106.66666666666667 L 56.0 107.0 L 57.0 107.0 L 58.0 107.0 L 59.0 107.33333333333333 L 60.0 107.66666666666667 L 61.0 108.0 L 62.0 108.0 L 63.0 108.0 L 64.0 108.0 L 65.0 108.0 L 66.0 108.0 L 67.0 108.0 L 68.0 108.0 L 69.0 108.0 L 70.0 108.0 L 71.0 107.66666666666667 L 72.0 107.33333333333333 L 73.0 107.0 L 74.0 106.66666666666667 L 75.0 106.33333333333333 L 76.0 105.66666666666667 L 77.0 105.33333333333333 L 78.0 104.66666666666667 L 78.66666666666667 104.0 L 79.0 103.0 L 78.66666666666667 102.0 L 78.0 101.33333333333333 L 77.0 100.66666666666667 L 76.0 100.33333333333333 L 75.0 100.0 L 74.0 99.66666666666667 L 73.0 99.33333333333333 L 72.0 98.66666666666667 L 71.0 98.33333333333333 L 70.0 98.0 L 69.0 97.66666666666667 L 68.0 97.33333333333333 L 67.0 96.66666666666667 L 66.0 96.33333333333333 L 65.0 96.0 L 64.0 95.66666666666667 L 63.0 95.33333333333333 L 62.0 94.66666666666667 L 61.0 94.33333333333333 L 60.0 93.66666666666667 L 59.0 93.33333333333333 L 58.0 93.0 L 57.0 92.66666666666667 L 56.0 92.33333333333333 L 55.0 91.66666666666667 L 54.0 91.33333333333333 L 53.0 91.0 L 52.0 90.66666666666667 L 51.0 90.33333333333333 L 50.0 89.66666666666667 L 49.0 89.33333333333333 L 48.0 88.66666666666667 L 47.0 88.33333333333333 L 46.0 88.0 L 45.0 87.66666666666667 L 44.0 87.33333333333333 L 43.0 86.66666666666667 L 42.0 86.33333333333333 L 41.0 86.0 L 40.0 85.66666666666667 L 39.0 85.33333333333333 L 38.0 85.0 L 37.0 85.0 L 36.333333333333336 85.33333333333333 L 36.0 86.0 L 36.0 87.0 L 36.333333333333336 88.0 L 36.666666666666664 89.0 L 37.333333333333336 90.0 L 37.666666666666664 91.0 L 38.333333333333336 92.0 L 39.0 93.0 L 39.666666666666664 94.0 L 40.333333333333336 95.0 L 41.0 96.0 L 42.0 97.0 L 43.0 98.0 L 44.0 99.0 L 45.0 100.0 L 45.5 100.5 Z" stroke="none" fill="rgb(224,245,254)" />
<path d="M 43.5 109.5 L 44.0 109.66666666666667 L 45.0 110.0 L 46.0 110.0 L 47.0 110.33333333333333 L 48.0 111.0 L 49.0 111.66666666666667 L 50.0 112.33333333333333 L 51.0 112.66666666666667 L 52.0 113.0 L 53.0 113.0 L 54.0 113.0 L 55.0 113.33333333333333 L 56.0 113.66666666666667 L 57.0 114.0 L 58.0 114.0 L 59.0 114.0 L 60.0 114.0 L 61.0 114.0 L 62.0 114.0 L 63.0 114.0 L 64.0 114.0 L 65.0 114.0 L 66.0 114.0 L 67.0 114.0 L 68.0 114.0 L 69.0 114.0 L 70.0 114.0 L 71.0 114.0 L 72.0 114.0 L 73.0 114.0 L 74.0 113.66666666666667 L 75.0 113.33333333333333 L 76.0 113.0 L 77.0 112.66666666666667 L 78.0 112.33333333333333 L 79.0 111.66666666666667 L 80.0 111.0 L 81.0 110.33333333333333 L 82.0 110.33333333333333 L 83.0 110.66666666666667 L 84.0 110.66666666666667 L 84.66666666666667 110.0 L 85.33333333333333 109.0 L 85.66666666666667 108.0 L 86.0 107.0 L 86.0 106.0 L 85.66666666666667 105.0 L 85.0 104.33333333333333 L 84.0 104.33333333333333 L 83.0 105.0 L 82.0 106.0 L 81.0 107.0 L 80.0 107.66666666666667 L 79.0 108.33333333333333 L 78.0 108.66666666666667 L 77.0 109.33333333333333 L 76.0 109.66666666666667 L 75.0 110.33333333333333 L 74.0 110.66666666666667 L 73.0 111.0 L 72.0 111.33333333333333 L 71.0 111.66666666666667 L 70.0 112.0 L 69.0 112.0 L 68.0 112.0 L 67.0 112.0 L 66.0 112.0 L 65.0 112.0 L 64.0 112.0 L 63.0 112.0 L 62.0 112.0 L 61.0 112.0 L 60.0 111.66666666666667 L 59.0 111.33333333333333 L 58.0 111.0 L 57.0 111.0 L 56.0 111.0 L 55.0 110.66666666666667 L 54.0 110.33333333333333 L 53.0 109.66666666666667 L 52.0 109.33333333333333 L 51.0 108.66666666666667 L 50.0 108.33333333333333 L 49.0 107.66666666666667 L 48.0 107.33333333333333 L 47.0 106.66666666666667 L 46.0 106.0 L 45.0 105.0 L 44.0 104.0 L 43.0 103.0 L 42.0 102.0 L 41.0 101.0 L 40.333333333333336 100.0 L 39.666666666666664 99.0 L 39.0 98.0 L 38.0 97.0 L 37.0 96.0 L 36.333333333333336 95.0 L 35.666666666666664 94.0 L 35.0 93.0 L 34.0 92.33333333333333 L 33.0 92.33333333333333 L 32.333333333333336 93.0 L 31.666666666666668 94.0 L 31.333333333333332 95.0 L 31.0 96.0 L 31.333333333333332 96.66666666666667 L 32.0 96.66666666666667 L 33.0 96.33333333333333 L 34.0 96.33333333333333 L 34.666666666666664 97.0 L 35.333333333333336 98.0 L 36.0 99.0 L 37.0 100.0 L 38.0 101.0 L 39.0 102.0 L 40.0 103.0 L 41.0 104.0 L 41.666666666666664 105.0 L 42.0 106.0 L 42.333333333333336 107.0 L 42.666666666666664 108.0 L 43.0 108.5 Z" stroke="none" fill="rgb(158,103,60)" />
<path d="M 57.5 55.0 L 58.0 55.333333333333336 L 59.0 55.666666666666664 L 60.0 56.333333333333336 L 61.0 56.666666666666664 L 62.0 57.333333333333336 L 63.0 57.666666666666664 L 64.0 58.0 L 65.0 58.333333333333336 L 66.0 58.666666666666664 L 67.0 59.333333333333336 L 68.0 59.666666666666664 L 69.0 60.0 L 70.0 60.333333333333336 L 71.0 60.666666666666664 L 72.0 61.333333333333336 L 73.0 61.666666666666664 L 74.0 62.333333333333336 L 75.0 62.666666666666664 L 76.0 63.0 L 77.0 63.333333333333336 L 78.0 63.666666666666664 L 79.0 64.33333333333333 L 80.0 64.66666666666667 L 80.66666666666667 64.66666666666667 L 81.0 64.0 L 81.0 63.0 L 80.66666666666667 62.0 L 80.0 61.0 L 79.33333333333333 60.0 L 78.66666666666667 59.0 L 78.33333333333333 58.0 L 77.66666666666667 57.0 L 77.0 56.0 L 76.0 55.0 L 75.0 54.0 L 74.0 53.0 L 73.0 52.333333333333336 L 72.0 51.666666666666664 L 71.0 51.0 L 70.0 50.333333333333336 L 69.0 49.666666666666664 L 68.0 49.0 L 67.0 48.333333333333336 L 66.0 48.0 L 65.0 48.0 L 64.0 47.666666666666664 L 63.0 47.333333333333336 L 62.0 47.0 L 61.0 47.0 L 60.0 47.0 L 59.0 47.0 L 58.0 47.0 L 57.0 47.0 L 56.0 47.0 L 55.0 46.666666666666664 L 54.666666666666664 46.0 L 54.666666666666664 45.0 L 54.666666666666664 44.0 L 54.0 43.333333333333336 L 53.0 42.666666666666664 L 52.0 42.333333333333336 L 51.0 42.0 L 50.0 41.666666666666664 L 49.0 41.333333333333336 L 48.0 40.666666666666664 L 47.0 40.333333333333336 L 46.0 39.666666666666664 L 45.0 39.333333333333336 L 44.0 39.0 L 43.0 38.666666666666664 L 42.0 38.333333333333336 L 41.0 38.0 L 40.0 38.333333333333336 L 39.0 39.0 L 38.333333333333336 40.0 L 37.666666666666664 41.0 L 37.333333333333336 42.0 L 36.666666666666664 43.0 L 36.333333333333336 44.0 L 36.0 45.0 L 36.0 46.0 L 36.333333333333336 46.666666666666664 L 37.0 47.0 L 38.0 47.333333333333336 L 39.0 47.666666666666664 L 40.0 48.0 L 41.0 48.333333333333336 L 42.0 48.666666666666664 L 43.0 49.333333333333336 L 44.0 49.666666666666664 L 45.0 50.333333333333336 L 46.0 50.666666666666664 L 47.0 51.0 L 48.0 51.333333333333336 L 49.0 51.666666666666664 L 50.0 52.333333333333336 L 51.0 52.666666666666664 L 52.0 53.0 L 53.0 53.333333333333336 L 54.0 53.666666666666664 L 55.0 54.333333333333336 L 56.0 54.666666666666664 L 56.5 55.0 Z" stroke="none" fill="rgb(195,235,253)" />
<path d="M 91.5 47.0 L 91.66666666666667 46.666666666666664 L 92.0 46.0 L 92.0 45.0 L 91.66666666666667 44.0 L 91.33333333333333 43.0 L 90.66666666666667 42.0 L 90.33333333333333 41.0 L 89.66666666666667 40.0 L 89.33333333333333 39.0 L 88.66666666666667 38.0 L 88.0 37.0 L 87.0 36.0 L 86.0 35.0 L 85.0 34.0 L 84.0 33.0 L 83.0 32.0 L 82.0 31.0 L 81.0 30.0 L 80.0 29.0 L 79.0 28.333333333333332 L 78.0 27.666666666666668 L 77.0 27.0 L 76.0 26.333333333333332 L 75.0 25.666666666666668 L 74.0 25.333333333333332 L 73.0 25.0 L 72.0 24.666666666666668 L 71.0 24.333333333333332 L 70.0 24.0 L 69.0 24.0 L 68.0 24.0 L 67.0 24.0 L 66.0 24.0 L 65.0 24.0 L 64.0 24.0 L 63.0 24.0 L 62.0 24.0 L 61.0 24.0 L 60.0 24.0 L 59.0 24.333333333333332 L 58.0 24.666666666666668 L 57.0 25.0 L 56.0 25.333333333333332 L 55.0 25.666666666666668 L 54.0 26.0 L 53.0 26.333333333333332 L 52.0 26.666666666666668 L 51.0 27.333333333333332 L 50.333333333333336 28.0 L 50.0 29.0 L 50.333333333333336 29.666666666666668 L 51.0 30.333333333333332 L 52.0 30.666666666666668 L 53.0 31.333333333333332 L 54.0 31.666666666666668 L 55.0 32.0 L 56.0 32.333333333333336 L 57.0 32.666666666666664 L 58.0 32.666666666666664 L 59.0 32.0 L 60.0 31.333333333333332 L 61.0 31.0 L 62.0 31.0 L 62.666666666666664 30.666666666666668 L 63.333333333333336 30.0 L 64.0 29.333333333333332 L 65.0 29.0 L 66.0 29.0 L 67.0 29.0 L 68.0 29.0 L 69.0 29.0 L 70.0 29.0 L 71.0 29.333333333333332 L 72.0 29.666666666666668 L 73.0 30.333333333333332 L 74.0 30.666666666666668 L 75.0 31.333333333333332 L 76.0 32.0 L 77.0 33.0 L 78.0 34.0 L 79.0 35.0 L 80.0 36.0 L 81.0 37.0 L 82.0 38.0 L 83.0 39.0 L 84.0 40.0 L 85.0 41.0 L 85.66666666666667 42.0 L 86.33333333333333 43.0 L 86.66666666666667 44.0 L 87.33333333333333 45.0 L 88.0 45.666666666666664 L 89.0 46.0 L 90.0 46.333333333333336 L 90.5 46.5 Z" stroke="none" fill="rgb(182,230,252)" />
<path d="M 49.5 121.0 L 50.0 121.0 L 51.0 121.0 L 52.0 121.0 L 53.0 121.0 L 54.0 121.0 L 55.0 121.0 L 56.0 121.0 L 57.0 121.0 L 58.0 121.33333333333333 L 59.0 122.0 L 60.0 123.0 L 61.0 123.66666666666667 L 62.0 124.0 L 63.0 124.0 L 64.0 124.0 L 65.0 124.0 L 66.0 124.0 L 67.0 123.66666666666667 L 68.0 123.0 L 69.0 122.0 L 70.0 121.33333333333333 L 71.0 121.0 L 72.0 121.0 L 73.0 121.0 L 74.0 121.0 L 75.0 121.0 L 76.0 121.0 L 77.0 121.0 L 78.0 121.0 L 79.0 121.0 L 80.0 121.0 L 81.0 120.66666666666667 L 82.0 120.33333333333333 L 83.0 119.66666666666667 L 84.0 119.0 L 85.0 118.0 L 85.66666666666667 117.0 L 86.0 116.0 L 85.66666666666667 115.33333333333333 L 85.0 115.33333333333333 L 84.0 116.0 L 83.0 116.66666666666667 L 82.0 117.33333333333333 L 81.0 117.66666666666667 L 80.0 118.0 L 79.0 118.0 L 78.0 118.0 L 77.0 118.0 L 76.0 118.0 L 75.0 118.0 L 74.0 118.0 L 73.0 118.0 L 72.0 118.0 L 71.0 118.0 L 70.0 118.0 L 69.0 118.33333333333333 L 68.0 118.66666666666667 L 67.0 119.33333333333333 L 66.0 120.0 L 65.0 120.66666666666667 L 64.0 121.0 L 63.0 120.66666666666667 L 62.0 120.0 L 61.0 119.0 L 60.0 118.33333333333333 L 59.0 118.0 L 58.0 118.0 L 57.0 118.0 L 56.0 118.0 L 55.0 118.0 L 54.0 118.0 L 53.0 118.0 L 52.0 118.0 L 51.0 118.0 L 50.0 118.0 L 49.0 118.0 L 48.0 117.66666666666667 L 47.0 117.33333333333333 L 46.0 117.0 L 45.0 117.0 L 44.333333333333336 117.33333333333333 L 44.0 118.0 L 44.333333333333336 119.0 L 45.0 119.66666666666667 L 46.0 120.33333333333333 L 47.0 120.66666666666667 L 48.0 121.0 L 48.5 121.0 Z" stroke="none" fill="rgb(158,103,60)" />
<path d="M 91.5 67.0 L 92.0 67.0 L 92.66666666666667 66.66666666666667 L 93.0 66.0 L 93.0 65.0 L 93.0 64.0 L 93.0 63.0 L 93.0 62.0 L 93.0 61.0 L 93.0 60.0 L 92.66666666666667 59.0 L 92.0 58.0 L 91.0 57.0 L 90.0 56.0 L 89.0 55.0 L 88.33333333333333 54.0 L 87.66666666666667 53.0 L 87.0 52.0 L 86.0 51.0 L 85.0 50.0 L 84.33333333333333 49.0 L 83.66666666666667 48.0 L 83.0 47.0 L 82.0 46.0 L 81.0 45.333333333333336 L 80.0 44.666666666666664 L 79.0 44.0 L 78.0 43.0 L 77.0 42.0 L 76.0 41.333333333333336 L 75.0 40.666666666666664 L 74.0 40.0 L 73.0 39.333333333333336 L 72.0 38.666666666666664 L 71.0 38.333333333333336 L 70.0 37.666666666666664 L 69.0 37.333333333333336 L 68.0 36.666666666666664 L 67.0 36.333333333333336 L 66.0 35.666666666666664 L 65.0 35.333333333333336 L 64.0 35.0 L 63.0 34.666666666666664 L 62.0 34.333333333333336 L 61.0 34.0 L 60.0 34.0 L 59.0 34.0 L 58.0 34.0 L 57.0 34.333333333333336 L 56.333333333333336 35.0 L 56.0 36.0 L 56.333333333333336 36.666666666666664 L 57.0 37.0 L 58.0 37.0 L 59.0 37.333333333333336 L 60.0 37.666666666666664 L 61.0 38.0 L 62.0 38.0 L 63.0 38.333333333333336 L 64.0 38.666666666666664 L 65.0 39.0 L 66.0 39.333333333333336 L 67.0 39.666666666666664 L 68.0 40.333333333333336 L 69.0 40.666666666666664 L 70.0 41.333333333333336 L 71.0 42.0 L 72.0 42.666666666666664 L 73.0 43.333333333333336 L 74.0 44.0 L 75.0 45.0 L 76.0 45.666666666666664 L 77.0 46.333333333333336 L 78.0 47.0 L 79.0 48.0 L 80.0 49.0 L 81.0 50.0 L 81.66666666666667 51.0 L 82.33333333333333 52.0 L 83.0 53.0 L 84.0 54.0 L 85.0 55.0 L 85.66666666666667 56.0 L 86.33333333333333 57.0 L 86.66666666666667 58.0 L 87.33333333333333 59.0 L 88.0 60.0 L 88.66666666666667 61.0 L 89.0 62.0 L 89.33333333333333 63.0 L 89.66666666666667 64.0 L 90.33333333333333 65.0 L 90.66666666666667 66.0 L 91.0 66.5 Z" stroke="none" fill="rgb(224,245,254)" />
<path d="M 91.5 72.5 L 91.66666666666667 72.0 L 92.0 71.0 L 92.0 70.0 L 92.0 69.0 L 92.0 68.0 L 91.66666666666667 67.0 L 91.33333333333333 66.0 L 90.66666666666667 65.0 L 90.33333333333333 64.0 L 89.66666666666667 63.0 L 89.33333333333333 62.0 L 89.0 61.0 L 88.66666666666667 60.0 L 88.0 59.0 L 87.33333333333333 58.0 L 86.66666666666667 57.0 L 86.33333333333333 56.0 L 85.66666666666667 55.0 L 85.0 54.0 L 84.0 53.0 L 83.0 52.0 L 82.33333333333333 51.0 L 81.66666666666667 50.0 L 81.0 49.0 L 80.0 48.0 L 79.0 47.0 L 78.0 46.333333333333336 L 77.0 45.666666666666664 L 76.0 45.0 L 75.0 44.0 L 74.0 43.333333333333336 L 73.0 42.666666666666664 L 72.0 42.0 L 71.0 41.333333333333336 L 70.0 40.666666666666664 L 69.0 40.333333333333336 L 68.0 39.666666666666664 L 67.0 39.333333333333336 L 66.0 39.0 L 65.0 38.666666666666664 L 64.0 38.333333333333336 L 63.0 38.0 L 62.0 38.0 L 61.0 37.666666666666664 L 60.0 37.333333333333336 L 59.0 37.0 L 58.0 37.0 L 57.0 37.0 L 56.333333333333336 37.333333333333336 L 56.0 38.0 L 56.333333333333336 38.666666666666664 L 57.0 39.333333333333336 L 58.0 39.666666666666664 L 59.0 40.0 L 60.0 40.0 L 61.0 40.0 L 62.0 40.333333333333336 L 63.0 40.666666666666664 L 64.0 41.0 L 65.0 41.333333333333336 L 66.0 41.666666666666664 L 67.0 42.333333333333336 L 68.0 42.666666666666664 L 69.0 43.333333333333336 L 70.0 43.666666666666664 L 71.0 44.333333333333336 L 72.0 45.0 L 73.0 45.666666666666664 L 74.0 46.333333333333336 L 75.0 47.0 L 76.0 48.0 L 77.0 49.0 L 78.0 50.0 L 78.66666666666667 51.0 L 79.33333333333333 52.0 L 80.0 53.0 L 81.0 54.0 L 82.0 55.0 L 83.0 56.0 L 83.66666666666667 57.0 L 84.33333333333333 58.0 L 84.66666666666667 59.0 L 85.33333333333333 60.0 L 85.66666666666667 61.0 L 86.33333333333333 62.0 L 86.66666666666667 63.0 L 87.33333333333333 64.0 L 87.66666666666667 65.0 L 88.0 66.0 L 88.33333333333333 67.0 L 88.66666666666667 68.0 L 89.0 69.0 L 89.0 70.0 L 89.0 71.0 L 89.0 72.0 L 89.33333333333333 72.66666666666667 L 90.0 73.0 L 90.5 73.0 Z" stroke="none" fill="rgb(217,242,254)" />
<path d="M 91.0 56.5 L 91.0 56.0 L 91.0 55.0 L 91.0 54.0 L 90.66666666666667 53.0 L 90.33333333333333 52.0 L 90.0 51.0 L 89.66666666666667 50.0 L 89.33333333333333 49.0 L 88.66666666666667 48.333333333333336 L 88.0 47.666666666666664 L 87.0 47.0 L 86.0 46.0 L 85.0 45.0 L 84.0 44.0 L 83.0 43.0 L 82.0 42.0 L 81.0 41.0 L 80.0 40.333333333333336 L 79.0 39.666666666666664 L 78.0 39.0 L 77.0 38.0 L 76.0 37.333333333333336 L 75.0 36.666666666666664 L 74.0 36.333333333333336 L 73.0 35.666666666666664 L 72.0 35.0 L 71.0 34.333333333333336 L 70.0 33.666666666666664 L 69.0 33.333333333333336 L 68.0 33.0 L 67.0 32.666666666666664 L 66.0 32.333333333333336 L 65.0 31.666666666666668 L 64.0 31.333333333333332 L 63.0 31.0 L 62.0 31.0 L 61.0 31.0 L 60.0 31.0 L 59.0 31.333333333333332 L 58.333333333333336 32.0 L 58.0 33.0 L 58.333333333333336 33.666666666666664 L 59.0 34.0 L 60.0 34.0 L 61.0 34.333333333333336 L 62.0 34.666666666666664 L 63.0 35.0 L 64.0 35.333333333333336 L 65.0 35.666666666666664 L 66.0 36.333333333333336 L 67.0 36.666666666666664 L 68.0 37.333333333333336 L 69.0 37.666666666666664 L 70.0 38.333333333333336 L 71.0 38.666666666666664 L 72.0 39.333333333333336 L 73.0 40.0 L 74.0 40.666666666666664 L 75.0 41.333333333333336 L 76.0 42.0 L 77.0 43.0 L 78.0 44.0 L 79.0 44.666666666666664 L 80.0 45.333333333333336 L 81.0 46.0 L 82.0 47.0 L 83.0 48.0 L 83.66666666666667 49.0 L 84.33333333333333 50.0 L 85.0 51.0 L 86.0 52.0 L 87.0 53.0 L 87.66666666666667 54.0 L 88.33333333333333 55.0 L 89.0 56.0 L 90.0 56.666666666666664 L 90.5 57.0 Z" stroke="none" fill="rgb(235,248,254)" />
<path d="M 78.5 53.5 L 79.0 54.0 L 80.0 55.0 L 80.66666666666667 56.0 L 81.33333333333333 57.0 L 82.0 58.0 L 82.66666666666667 59.0 L 83.33333333333333 60.0 L 83.66666666666667 61.0 L 84.33333333333333 62.0 L 84.66666666666667 63.0 L 85.33333333333333 64.0 L 85.66666666666667 65.0 L 86.0 66.0 L 86.33333333333333 67.0 L 86.66666666666667 68.0 L 87.0 69.0 L 87.0 70.0 L 87.0 71.0 L 87.0 72.0 L 87.0 73.0 L 87.0 74.0 L 87.0 75.0 L 87.0 76.0 L 87.0 77.0 L 87.33333333333333 77.66666666666667 L 88.0 77.66666666666667 L 89.0 77.0 L 89.66666666666667 76.0 L 90.0 75.0 L 90.0 74.0 L 89.66666666666667 73.0 L 89.33333333333333 72.0 L 89.0 71.0 L 89.0 70.0 L 89.0 69.0 L 89.0 68.0 L 88.66666666666667 67.0 L 88.33333333333333 66.0 L 88.0 65.0 L 87.66666666666667 64.0 L 87.33333333333333 63.0 L 86.66666666666667 62.0 L 86.33333333333333 61.0 L 85.66666666666667 60.0 L 85.33333333333333 59.0 L 84.66666666666667 58.0 L 84.33333333333333 57.0 L 83.66666666666667 56.0 L 83.0 55.0 L 82.0 54.0 L 81.0 53.0 L 80.0 52.0 L 79.33333333333333 51.0 L 78.66666666666667 50.0 L 78.0 49.0 L 77.0 48.0 L 76.0 47.0 L 75.0 46.333333333333336 L 74.0 45.666666666666664 L 73.0 45.0 L 72.0 44.333333333333336 L 71.0 43.666666666666664 L 70.0 43.333333333333336 L 69.0 42.666666666666664 L 68.0 42.333333333333336 L 67.0 41.666666666666664 L 66.0 41.333333333333336 L 65.0 41.0 L 64.0 40.666666666666664 L 63.0 40.333333333333336 L 62.0 40.0 L 61.0 40.0 L 60.0 40.0 L 59.0 39.666666666666664 L 58.0 39.333333333333336 L 57.0 39.0 L 56.0 39.0 L 55.333333333333336 39.333333333333336 L 55.0 40.0 L 55.0 41.0 L 55.333333333333336 41.666666666666664 L 56.0 42.0 L 57.0 42.0 L 58.0 42.0 L 59.0 42.0 L 60.0 42.0 L 61.0 42.333333333333336 L 62.0 42.666666666666664 L 63.0 43.0 L 64.0 43.333333333333336 L 65.0 43.666666666666664 L 66.0 44.0 L 67.0 44.333333333333336 L 68.0 45.0 L 69.0 45.666666666666664 L 70.0 46.333333333333336 L 71.0 46.666666666666664 L 72.0 47.333333333333336 L 73.0 48.0 L 74.0 49.0 L 75.0 50.0 L 76.0 51.0 L 77.0 52.0 L 77.5 52.5 Z" stroke="none" fill="rgb(211,240,253)" />
<path d="M 53.5 43.0 L 54.0 42.666666666666664 L 54.666666666666664 42.0 L 55.0 41.0 L 55.333333333333336 40.0 L 55.666666666666664 39.0 L 56.0 38.0 L 56.0 37.0 L 56.333333333333336 36.0 L 57.0 35.0 L 57.666666666666664 34.0 L 57.666666666666664 33.0 L 57.0 32.333333333333336 L 56.0 32.0 L 55.0 31.666666666666668 L 54.0 31.333333333333332 L 53.0 30.666666666666668 L 52.0 30.333333333333332 L 51.0 29.666666666666668 L 50.0 29.333333333333332 L 49.0 29.0 L 48.0 29.333333333333332 L 47.0 30.0 L 46.0 31.0 L 45.0 32.0 L 44.0 33.0 L 43.0 34.0 L 42.0 35.0 L 41.333333333333336 36.0 L 41.0 37.0 L 41.333333333333336 38.0 L 42.0 38.666666666666664 L 43.0 39.0 L 44.0 39.333333333333336 L 45.0 39.666666666666664 L 46.0 40.333333333333336 L 47.0 40.666666666666664 L 48.0 41.333333333333336 L 49.0 41.666666666666664 L 50.0 42.0 L 51.0 42.333333333333336 L 52.0 42.666666666666664 L 52.5 43.0 Z" stroke="none" fill="rgb(189,232,252)" />
<path d="M 74.5 37.0 L 75.0 37.333333333333336 L 76.0 38.0 L 77.0 39.0 L 78.0 39.666666666666664 L 79.0 40.333333333333336 L 80.0 41.0 L 81.0 42.0 L 82.0 43.0 L 83.0 44.0 L 84.0 45.0 L 85.0 46.0 L 86.0 47.0 L 87.0 47.666666666666664 L 88.0 48.0 L 88.66666666666667 47.666666666666664 L 89.0 47.0 L 88.66666666666667 46.0 L 88.0 45.0 L 87.33333333333333 44.0 L 86.66666666666667 43.0 L 86.33333333333333 42.0 L 85.66666666666667 41.0 L 85.0 40.0 L 84.0 39.0 L 83.0 38.0 L 82.0 37.0 L 81.0 36.0 L 80.0 35.0 L 79.0 34.0 L 78.0 33.0 L 77.0 32.0 L 76.0 31.333333333333332 L 75.0 30.666666666666668 L 74.0 30.333333333333332 L 73.0 29.666666666666668 L 72.0 29.333333333333332 L 71.0 29.0 L 70.0 29.0 L 69.0 29.0 L 68.0 29.0 L 67.0 29.0 L 66.0 29.0 L 65.0 29.0 L 64.0 29.0 L 63.333333333333336 29.333333333333332 L 63.0 30.0 L 63.333333333333336 31.0 L 64.0 31.666666666666668 L 65.0 32.333333333333336 L 66.0 32.666666666666664 L 67.0 33.0 L 68.0 33.333333333333336 L 69.0 33.666666666666664 L 70.0 34.333333333333336 L 71.0 35.0 L 72.0 35.666666666666664 L 73.0 36.333333333333336 L 73.5 36.5 Z" stroke="none" fill="rgb(247,252,255)" />
<path d="M 91.5 58.5 L 92.0 59.0 L 93.0 59.666666666666664 L 94.0 60.333333333333336 L 95.0 61.0 L 96.0 61.666666666666664 L 96.66666666666667 61.666666666666664 L 97.0 61.0 L 96.66666666666667 60.0 L 96.33333333333333 59.0 L 96.0 58.0 L 96.0 57.0 L 96.0 56.0 L 96.0 55.0 L 96.0 54.0 L 96.0 53.0 L 95.66666666666667 52.0 L 95.0 51.0 L 94.0 50.0 L 93.33333333333333 49.0 L 92.66666666666667 48.0 L 92.0 47.0 L 91.0 46.333333333333336 L 90.0 46.0 L 89.33333333333333 46.333333333333336 L 89.0 47.0 L 89.0 48.0 L 89.0 49.0 L 89.33333333333333 50.0 L 89.66666666666667 51.0 L 90.0 52.0 L 90.33333333333333 53.0 L 90.66666666666667 54.0 L 91.0 55.0 L 91.0 56.0 L 91.0 57.0 L 91.0 57.5 Z" stroke="none" fill="rgb(189,232,252)" />
<path d="M 29.5 109.5 L 30.0 109.66666666666667 L 31.0 110.33333333333333 L 32.0 110.66666666666667 L 33.0 111.0 L 34.0 111.0 L 35.0 111.0 L 36.0 111.0 L 37.0 111.0 L 38.0 111.0 L 38.666666666666664 110.66666666666667 L 39.0 110.0 L 38.666666666666664 109.0 L 38.0 108.33333333333333 L 37.0 108.0 L 36.0 108.0 L 35.0 108.0 L 34.0 107.66666666666667 L 33.0 107.0 L 32.0 106.0 L 31.0 105.0 L 30.0 104.0 L 29.0 103.0 L 28.333333333333332 102.0 L 27.666666666666668 101.0 L 27.0 100.33333333333333 L 26.0 100.0 L 25.333333333333332 100.33333333333333 L 25.0 101.0 L 25.333333333333332 102.0 L 25.666666666666668 103.0 L 26.0 104.0 L 26.333333333333332 105.0 L 26.666666666666668 106.0 L 27.333333333333332 107.0 L 28.0 108.0 L 28.5 108.5 Z" stroke="none" fill="rgb(158,103,60)" />
<path d="M 95.5 111.0 L 96.0 110.66666666666667 L 97.0 110.33333333333333 L 98.0 109.66666666666667 L 99.0 109.0 L 100.0 108.0 L 100.66666666666667 107.0 L 101.33333333333333 106.0 L 101.66666666666667 105.0 L 102.0 104.0 L 102.33333333333333 103.0 L 102.66666666666667 102.0 L 103.0 101.0 L 102.66666666666667 100.33333333333333 L 102.0 100.0 L 101.33333333333333 100.33333333333333 L 100.66666666666667 101.0 L 100.0 102.0 L 99.0 103.0 L 98.0 104.0 L 97.0 105.0 L 96.0 106.0 L 95.0 107.0 L 94.0 107.66666666666667 L 93.0 108.33333333333333 L 92.0 108.66666666666667 L 91.0 109.0 L 90.0 109.0 L 89.33333333333333 109.33333333333333 L 89.0 110.0 L 89.33333333333333 110.66666666666667 L 90.0 111.0 L 91.0 111.0 L 92.0 111.0 L 93.0 111.0 L 94.0 111.0 L 94.5 111.0 Z" stroke="none" fill="rgb(158,103,60)" />
<path d="M 92.5 80.5 L 93.0 80.66666666666667 L 94.0 81.0 L 94.66666666666667 80.66666666666667 L 95.33333333333333 80.0 L 95.66666666666667 79.0 L 96.0 78.0 L 96.0 77.0 L 96.0 76.0 L 96.0 75.0 L 96.0 74.0 L 96.0 73.0 L 96.0 72.0 L 95.66666666666667 71.0 L 95.0 70.33333333333333 L 94.0 70.0 L 93.0 70.0 L 92.33333333333333 70.33333333333333 L 91.66666666666667 71.0 L 91.0 72.0 L 90.33333333333333 73.0 L 90.0 74.0 L 89.66666666666667 75.0 L 89.33333333333333 76.0 L 89.0 77.0 L 89.33333333333333 78.0 L 90.0 78.66666666666667 L 91.0 79.33333333333333 L 91.5 79.5 Z" stroke="none" fill="rgb(201,237,253)" />
<path d="M 97.0 70.5 L 97.0 70.0 L 97.0 69.0 L 97.0 68.0 L 97.0 67.0 L 97.0 66.0 L 97.0 65.0 L 97.0 64.0 L 97.0 63.0 L 96.66666666666667 62.0 L 96.0 61.0 L 95.0 60.333333333333336 L 94.0 60.0 L 93.33333333333333 60.333333333333336 L 93.0 61.0 L 93.0 62.0 L 93.0 63.0 L 93.0 64.0 L 93.0 65.0 L 92.66666666666667 66.0 L 92.33333333333333 67.0 L 92.0 68.0 L 92.0 69.0 L 92.33333333333333 69.66666666666667 L 93.0 70.0 L 94.0 70.33333333333333 L 95.0 70.66666666666667 L 96.0 71.0 L 96.5 71.0 Z" stroke="none" fill="rgb(195,235,253)" />
<path d="M 95.5 96.5 L 96.0 96.66666666666667 L 96.66666666666667 96.66666666666667 L 97.0 96.0 L 97.0 95.0 L 96.66666666666667 94.0 L 96.33333333333333 93.0 L 95.66666666666667 92.33333333333333 L 95.0 92.0 L 94.0 92.33333333333333 L 93.0 93.0 L 92.33333333333333 94.0 L 91.66666666666667 95.0 L 91.0 96.0 L 90.33333333333333 97.0 L 89.66666666666667 98.0 L 89.0 99.0 L 88.0 100.0 L 87.33333333333333 101.0 L 87.0 102.0 L 87.33333333333333 102.66666666666667 L 88.0 103.0 L 89.0 102.66666666666667 L 90.0 102.0 L 91.0 101.0 L 91.66666666666667 100.0 L 92.33333333333333 99.0 L 92.66666666666667 98.0 L 93.33333333333333 97.0 L 94.0 96.33333333333333 L 94.5 96.0 Z" stroke="none" fill="rgb(158,103,60)" />
<path d="M 53.0 13.5 L 53.0 13.0 L 52.666666666666664 12.333333333333334 L 52.0 12.0 L 51.0 12.0 L 50.0 12.333333333333334 L 49.0 13.0 L 48.0 14.0 L 47.0 15.0 L 46.333333333333336 16.0 L 45.666666666666664 17.0 L 45.333333333333336 18.0 L 45.0 19.0 L 45.0 20.0 L 45.0 21.0 L 45.333333333333336 21.666666666666668 L 46.0 22.0 L 46.666666666666664 21.666666666666668 L 47.0 21.0 L 47.333333333333336 20.0 L 47.666666666666664 19.0 L 48.333333333333336 18.0 L 49.0 17.0 L 50.0 16.0 L 51.0 15.0 L 52.0 14.333333333333334 L 52.5 14.0 Z" stroke="none" fill="rgb(158,103,60)" />
<path d="M 81.5 22.0 L 82.0 22.0 L 82.66666666666667 21.666666666666668 L 83.0 21.0 L 83.0 20.0 L 83.0 19.0 L 82.66666666666667 18.0 L 82.33333333333333 17.0 L 81.66666666666667 16.0 L 81.0 15.0 L 80.0 14.0 L 79.0 13.0 L 78.0 12.333333333333334 L 77.0 12.0 L 76.0 12.0 L 75.33333333333333 12.333333333333334 L 75.0 13.0 L 75.33333333333333 13.666666666666666 L 76.0 14.333333333333334 L 77.0 15.0 L 78.0 16.0 L 79.0 17.0 L 79.66666666666667 18.0 L 80.33333333333333 19.0 L 80.66666666666667 20.0 L 81.0 21.0 L 81.0 21.5 Z" stroke="none" fill="rgb(158,103,60)" />
<path d="M 95.5 102.5 L 95.66666666666667 102.0 L 96.0 101.0 L 96.33333333333333 100.0 L 96.66666666666667 99.0 L 96.66666666666667 98.0 L 96.33333333333333 97.0 L 95.66666666666667 96.0 L 95.33333333333333 95.0 L 94.66666666666667 94.33333333333333 L 94.33333333333333 94.33333333333333 L 93.66666666666667 95.0 L 93.33333333333333 96.0 L 92.66666666666667 97.0 L 92.33333333333333 98.0 L 92.0 99.0 L 92.33333333333333 100.0 L 93.0 101.0 L 93.66666666666667 102.0 L 94.33333333333333 102.66666666666667 L 94.5 103.0 Z" stroke="none" fill="rgb(255,255,255)" />
<path d="M 101.5 76.5 L 102.0 76.0 L 102.66666666666667 75.0 L 103.33333333333333 74.0 L 103.66666666666667 73.0 L 104.0 72.0 L 104.0 71.0 L 104.0 70.0 L 103.66666666666667 69.0 L 103.0 68.33333333333333 L 102.0 68.0 L 101.33333333333333 68.33333333333333 L 101.0 69.0 L 101.0 70.0 L 101.0 71.0 L 101.0 72.0 L 100.66666666666667 73.0 L 100.33333333333333 74.0 L 100.0 75.0 L 100.0 76.0 L 100.33333333333333 76.66666666666667 L 100.5 77.0 Z" stroke="none" fill="rgb(255,255,255)" />
<path d="M 33.5 103.0 L 33.666666666666664 102.66666666666667 L 34.333333333333336 102.0 L 35.0 101.0 L 35.666666666666664 100.0 L 36.0 99.0 L 35.666666666666664 98.0 L 35.333333333333336 97.0 L 34.666666666666664 96.0 L 34.0 95.33333333333333 L 33.0 95.33333333333333 L 32.333333333333336 96.0 L 31.666666666666668 97.0 L 31.333333333333332 98.0 L 31.333333333333332 99.0 L 31.666666666666668 100.0 L 32.0 101.0 L 32.333333333333336 102.0 L 32.5 102.5 Z" stroke="none" fill="rgb(255,255,255)" />
<path d="M 26.5 76.5 L 27.0 76.66666666666667 L 27.666666666666668 76.66666666666667 L 28.0 76.0 L 27.666666666666668 75.0 L 27.333333333333332 74.0 L 27.0 73.0 L 27.0 72.0 L 27.0 71.0 L 27.0 70.0 L 27.0 69.0 L 26.666666666666668 68.33333333333333 L 26.0 68.0 L 25.0 68.33333333333333 L 24.333333333333332 69.0 L 24.0 70.0 L 24.0 71.0 L 24.0 72.0 L 24.333333333333332 73.0 L 24.666666666666668 74.0 L 25.333333333333332 75.0 L 25.5 75.5 Z" stroke="none" fill="rgb(255,255,255)" />
<path d="M 53.0 17.5 L 53.0 17.0 L 53.0 16.0 L 53.0 15.0 L 52.666666666666664 14.333333333333334 L 52.0 14.0 L 51.0 14.333333333333334 L 50.0 15.0 L 49.0 16.0 L 48.333333333333336 17.0 L 47.666666666666664 18.0 L 47.333333333333336 19.0 L 47.0 20.0 L 47.333333333333336 20.666666666666668 L 48.0 20.666666666666668 L 49.0 20.0 L 50.0 19.333333333333332 L 51.0 18.666666666666668 L 52.0 18.333333333333332 L 52.5 18.0 Z" stroke="none" fill="rgb(255,255,255)" />
<path d="M 78.5 19.5 L 79.0 20.0 L 80.0 20.666666666666668 L 80.66666666666667 20.666666666666668 L 81.0 20.0 L 80.66666666666667 19.0 L 80.33333333333333 18.0 L 79.66666666666667 17.0 L 79.0 16.0 L 78.0 15.0 L 77.0 14.333333333333334 L 76.0 14.0 L 75.33333333333333 14.333333333333334 L 75.0 15.0 L 75.0 16.0 L 75.0 17.0 L 75.33333333333333 17.666666666666668 L 76.0 18.333333333333332 L 77.0 18.666666666666668 L 77.5 19.0 Z" stroke="none" fill="rgb(255,255,255)" />
<path d="M 21.5 58.5 L 22.0 58.666666666666664 L 22.666666666666668 58.666666666666664 L 23.0 58.0 L 22.666666666666668 57.0 L 22.333333333333332 56.0 L 22.0 55.0 L 21.666666666666668 54.0 L 21.333333333333332 53.0 L 21.0 52.0 L 21.0 51.0 L 21.0 50.0 L 21.0 49.0 L 21.0 48.0 L 21.0 47.0 L 21.0 46.0 L 20.666666666666668 45.333333333333336 L 20.333333333333332 45.333333333333336 L 20.0 46.0 L 20.0 47.0 L 20.0 48.0 L 20.0 49.0 L 20.0 50.0 L 20.0 51.0 L 20.0 52.0 L 20.0 53.0 L 20.0 54.0 L 20.333333333333332 55.0 L 20.666666666666668 56.0 L 21.0 57.0 L 21.0 57.5 Z" stroke="none" fill="rgb(0,0,0)" />
<path d="M 24.5 83.5 L 25.0 83.66666666666667 L 26.0 84.0 L 26.666666666666668 83.66666666666667 L 27.0 83.0 L 26.666666666666668 82.0 L 26.0 81.0 L 25.0 80.0 L 24.0 79.0 L 23.0 78.0 L 22.0 77.33333333333333 L 21.0 77.0 L 20.333333333333332 77.33333333333333 L 20.0 78.0 L 20.333333333333332 79.0 L 21.0 80.0 L 22.0 81.0 L 23.0 82.0 L 23.5 82.5 Z" stroke="none" fill="rgb(158,103,60)" />
<path d="M 106.5 80.5 L 107.0 80.0 L 107.66666666666667 79.0 L 108.0 78.0 L 107.66666666666667 77.33333333333333 L 107.0 77.0 L 106.0 77.33333333333333 L 105.0 78.0 L 104.0 79.0 L 103.0 80.0 L 102.0 81.0 L 101.33333333333333 82.0 L 101.0 83.0 L 101.33333333333333 83.66666666666667 L 102.0 84.0 L 103.0 83.66666666666667 L 104.0 83.0 L 105.0 82.0 L 105.5 81.5 Z" stroke="none" fill="rgb(158,103,60)" />
<path d="M 32.5 29.0 L 32.666666666666664 28.666666666666668 L 33.0 28.0 L 32.666666666666664 27.0 L 32.333333333333336 26.0 L 32.0 25.0 L 32.0 24.0 L 32.0 23.0 L 32.0 22.0 L 32.0 21.0 L 32.0 20.0 L 31.666666666666668 19.333333333333332 L 31.333333333333332 19.333333333333332 L 31.0 20.0 L 31.0 21.0 L 31.0 22.0 L 31.0 23.0 L 31.0 24.0 L 31.0 25.0 L 31.0 26.0 L 31.0 27.0 L 31.333333333333332 28.0 L 31.5 28.5 Z" stroke="none" fill="rgb(0,0,0)" />
<path d="M 102.5 94.0 L 103.0 94.0 L 104.0 93.66666666666667 L 105.0 93.33333333333333 L 105.66666666666667 92.66666666666667 L 106.0 92.0 L 106.0 91.0 L 106.0 90.0 L 105.66666666666667 89.33333333333333 L 105.0 89.33333333333333 L 104.0 90.0 L 103.0 90.66666666666667 L 102.33333333333333 91.33333333333333 L 102.0 92.0 L 102.0 93.0 L 102.0 93.5 Z" stroke="none" fill="rgb(158,103,60)" />
<path d="M 107.5 55.0 L 107.66666666666667 54.666666666666664 L 108.0 54.0 L 108.0 53.0 L 108.0 52.0 L 108.0 51.0 L 108.0 50.0 L 108.0 49.0 L 108.0 48.0 L 108.0 47.0 L 108.0 46.0 L 107.66666666666667 45.333333333333336 L 107.33333333333333 45.333333333333336 L 107.0 46.0 L 107.0 47.0 L 107.0 48.0 L 107.0 49.0 L 107.0 50.0 L 107.0 51.0 L 107.0 52.0 L 107.0 53.0 L 107.0 54.0 L 107.0 54.5 Z" stroke="none" fill="rgb(0,0,0)" />
<path d="M 24.5 94.0 L 25.0 94.0 L 25.666666666666668 93.66666666666667 L 26.0 93.0 L 26.0 92.0 L 25.666666666666668 91.0 L 25.0 90.33333333333333 L 24.0 90.0 L 23.0 90.0 L 22.333333333333332 90.33333333333333 L 22.0 91.0 L 22.0 92.0 L 22.333333333333332 92.66666666666667 L 23.0 93.33333333333333 L 23.5 93.5 Z" stroke="none" fill="rgb(158,103,60)" />
<path d="M 48.5 113.0 L 49.0 113.0 L 50.0 113.0 L 50.666666666666664 112.66666666666667 L 50.666666666666664 112.33333333333333 L 50.0 111.66666666666667 L 49.0 111.0 L 48.0 110.33333333333333 L 47.0 109.66666666666667 L 46.0 109.33333333333333 L 45.333333333333336 109.33333333333333 L 45.0 110.0 L 45.333333333333336 111.0 L 46.0 112.0 L 47.0 112.66666666666667 L 47.5 113.0 Z" stroke="none" fill="rgb(255,255,255)" />
<path d="M 81.5 112.5 L 82.0 112.0 L 82.66666666666667 111.0 L 83.0 110.0 L 82.66666666666667 109.33333333333333 L 82.0 109.33333333333333 L 81.0 109.66666666666667 L 80.0 110.33333333333333 L 79.0 111.0 L 78.0 111.66666666666667 L 77.33333333333333 112.33333333333333 L 77.33333333333333 112.66666666666667 L 78.0 113.0 L 79.0 113.0 L 80.0 113.0 L 80.5 113.0 Z" stroke="none" fill="rgb(255,255,255)" />
<path d="M 97.0 27.5 L 97.0 27.0 L 97.0 26.0 L 97.0 25.0 L 97.0 24.0 L 97.0 23.0 L 97.0 22.0 L 97.0 21.0 L 97.0 20.0 L 96.66666666666667 19.333333333333332 L 96.33333333333333 19.333333333333332 L 96.0 20.0 L 96.0 21.0 L 96.0 22.0 L 96.0 23.0 L 96.0 24.0 L 96.0 25.0 L 96.0 26.0 L 96.0 27.0 L 96.33333333333333 27.666666666666668 L 96.5 28.0 Z" stroke="none" fill="rgb(0,0,0)" />
<path d="M 26.5 53.5 L 27.0 53.666666666666664 L 27.666666666666668 53.666666666666664 L 28.0 53.0 L 28.0 52.0 L 28.0 51.0 L 27.666666666666668 50.0 L 27.0 49.333333333333336 L 26.0 49.0 L 25.333333333333332 49.333333333333336 L 25.0 50.0 L 25.0 51.0 L 25.333333333333332 52.0 L 25.5 52.5 Z" stroke="none" fill="rgb(158,103,60)" />
<path d="M 43.5 118.0 L 43.666666666666664 117.66666666666667 L 44.0 117.0 L 43.666666666666664 116.0 L 43.0 115.0 L 42.333333333333336 114.0 L 41.666666666666664 113.0 L 41.0 112.33333333333333 L 40.333333333333336 112.33333333333333 L 40.0 113.0 L 40.333333333333336 114.0 L 40.666666666666664 115.0 L 41.333333333333336 116.0 L 42.0 117.0 L 42.5 117.5 Z" stroke="none" fill="rgb(0,0,0)" />
<path d="M 90.5 20.5 L 91.0 20.666666666666668 L 91.66666666666667 20.666666666666668 L 92.0 20.0 L 92.0 19.0 L 91.66666666666667 18.0 L 91.0 17.333333333333332 L 90.0 17.0 L 89.0 17.0 L 88.33333333333333 17.333333333333332 L 88.0 18.0 L 88.33333333333333 18.666666666666668 L 89.0 19.333333333333332 L 89.5 19.5 Z" stroke="none" fill="rgb(158,103,60)" />
<path d="M 30.5 42.5 L 31.0 42.0 L 31.666666666666668 41.0 L 32.0 40.0 L 32.0 39.0 L 31.666666666666668 38.333333333333336 L 31.0 38.333333333333336 L 30.0 39.0 L 29.333333333333332 40.0 L 29.0 41.0 L 29.0 42.0 L 29.333333333333332 42.666666666666664 L 29.5 43.0 Z" stroke="none" fill="rgb(158,103,60)" />
<path d="M 101.5 53.0 L 102.0 52.666666666666664 L 102.66666666666667 52.0 L 103.0 51.0 L 103.0 50.0 L 102.66666666666667 49.333333333333336 L 102.0 49.0 L 101.0 49.333333333333336 L 100.33333333333333 50.0 L 100.0 51.0 L 100.0 52.0 L 100.33333333333333 52.666666666666664 L 100.5 53.0 Z" stroke="none" fill="rgb(158,103,60)" />
<path d="M 36.5 20.0 L 37.0 20.0 L 38.0 19.666666666666668 L 39.0 19.333333333333332 L 39.666666666666664 18.666666666666668 L 40.0 18.0 L 39.666666666666664 17.333333333333332 L 39.0 17.0 L 38.0 17.0 L 37.0 17.333333333333332 L 36.333333333333336 18.0 L 36.0 19.0 L 36.0 19.5 Z" stroke="none" fill="rgb(158,103,60)" />
<path d="M 24.5 69.0 L 25.0 68.66666666666667 L 26.0 68.33333333333333 L 26.666666666666668 67.66666666666667 L 27.0 67.0 L 27.0 66.0 L 26.666666666666668 65.33333333333333 L 26.0 65.0 L 25.0 65.33333333333333 L 24.333333333333332 66.0 L 24.0 67.0 L 24.0 68.0 L 24.0 68.5 Z" stroke="none" fill="rgb(158,103,60)" />
<path d="M 104.0 68.5 L 104.0 68.0 L 104.0 67.0 L 103.66666666666667 66.0 L 103.0 65.33333333333333 L 102.0 65.0 L 101.33333333333333 65.33333333333333 L 101.0 66.0 L 101.0 67.0 L 101.33333333333333 67.66666666666667 L 102.0 68.33333333333333 L 103.0 68.66666666666667 L 103.5 69.0 Z" stroke="none" fill="rgb(158,103,60)" />
<path d="M 98.5 43.0 L 98.66666666666667 42.666666666666664 L 99.0 42.0 L 99.0 41.0 L 98.66666666666667 40.0 L 98.0 39.333333333333336 L 97.0 39.0 L 96.33333333333333 39.333333333333336 L 96.0 40.0 L 96.33333333333333 41.0 L 97.0 42.0 L 97.5 42.5 Z" stroke="none" fill="rgb(158,103,60)" />
<path d="M 39.5 26.0 L 39.666666666666664 25.666666666666668 L 40.0 25.0 L 40.0 24.0 L 39.666666666666664 23.333333333333332 L 39.0 23.0 L 38.0 23.0 L 37.333333333333336 23.333333333333332 L 37.0 24.0 L 37.333333333333336 25.0 L 38.0 25.666666666666668 L 38.5 26.0 Z" stroke="none" fill="rgb(158,103,60)" />
<path d="M 90.5 25.5 L 90.66666666666667 25.0 L 91.0 24.0 L 90.66666666666667 23.333333333333332 L 90.0 23.0 L 89.0 23.0 L 88.33333333333333 23.333333333333332 L 88.0 24.0 L 88.0 25.0 L 88.33333333333333 25.666666666666668 L 89.0 26.0 L 89.5 26.0 Z" stroke="none" fill="rgb(158,103,60)" />
<path d="M 37.5 27.5 L 38.0 27.666666666666668 L 39.0 28.0 L 39.666666666666664 27.666666666666668 L 40.0 27.0 L 39.666666666666664 26.333333333333332 L 39.0 25.666666666666668 L 38.0 25.333333333333332 L 37.333333333333336 25.333333333333332 L 37.0 26.0 L 37.0 26.5 Z" stroke="none" fill="rgb(255,255,255)" />
<path d="M 90.5 27.5 L 90.66666666666667 27.0 L 91.0 26.0 L 90.66666666666667 25.333333333333332 L 90.0 25.333333333333332 L 89.0 25.666666666666668 L 88.33333333333333 26.333333333333332 L 88.0 27.0 L 88.33333333333333 27.666666666666668 L 89.0 28.0 L 89.5 28.0 Z" stroke="none" fill="rgb(255,255,255)" />
<path d="M 23.5 36.0 L 23.666666666666668 35.666666666666664 L 24.0 35.0 L 24.0 34.0 L 24.0 33.0 L 24.0 32.0 L 23.666666666666668 31.333333333333332 L 23.333333333333332 31.333333333333332 L 23.0 32.0 L 23.0 33.0 L 23.0 34.0 L 23.0 35.0 L 23.0 35.5 Z" stroke="none" fill="rgb(0,0,0)" />
<path d="M 105.0 35.5 L 105.0 35.0 L 105.0 34.0 L 105.0 33.0 L 105.0 32.0 L 104.66666666666667 31.333333333333332 L 104.33333333333333 31.333333333333332 L 104.0 32.0 L 104.0 33.0 L 104.0 34.0 L 104.0 35.0 L 104.33333333333333 35.666666666666664 L 104.5 36.0 Z" stroke="none" fill="rgb(0,0,0)" />
<path d="M 98.5 46.0 L 98.66666666666667 45.666666666666664 L 99.0 45.0 L 99.0 44.0 L 98.66666666666667 43.0 L 98.0 42.333333333333336 L 97.33333333333333 42.333333333333336 L 97.0 43.0 L 97.33333333333333 44.0 L 97.66666666666667 45.0 L 98.0 45.5 Z" stroke="none" fill="rgb(255,255,255)" />
<path d="M 20.5 77.0 L 20.666666666666668 76.66666666666667 L 21.0 76.0 L 20.666666666666668 75.0 L 20.333333333333332 74.0 L 19.666666666666668 73.33333333333333 L 19.333333333333332 73.33333333333333 L 19.0 74.0 L 19.0 75.0 L 19.333333333333332 76.0 L 19.5 76.5 Z" stroke="none" fill="rgb(0,0,0)" />
<path d="M 21.5 90.0 L 22.0 90.0 L 22.666666666666668 89.66666666666667 L 22.666666666666668 89.0 L 22.333333333333332 88.0 L 22.0 87.0 L 21.666666666666668 86.33333333333333 L 21.333333333333332 86.33333333333333 L 21.0 87.0 L 21.0 88.0 L 21.0 89.0 L 21.0 89.5 Z" stroke="none" fill="rgb(0,0,0)" />
<path d="M 26.0 99.5 L 26.0 99.0 L 26.0 98.0 L 26.0 97.0 L 26.0 96.0 L 25.666666666666668 95.33333333333333 L 25.333333333333332 95.33333333333333 L 25.0 96.0 L 25.0 97.0 L 25.0 98.0 L 25.0 99.0 L 25.333333333333332 99.66666666666667 L 25.5 100.0 Z" stroke="none" fill="rgb(0,0,0)" />
<path d="M 34.0 31.5 L 34.0 31.0 L 34.0 30.0 L 33.666666666666664 29.333333333333332 L 33.0 29.0 L 32.333333333333336 29.333333333333332 L 32.0 30.0 L 32.333333333333336 31.0 L 33.0 31.666666666666668 L 33.5 32.0 Z" stroke="none" fill="rgb(158,103,60)" />
<path d="M 36.5 25.0 L 36.666666666666664 24.666666666666668 L 37.0 24.0 L 37.0 23.0 L 37.0 22.0 L 36.666666666666664 21.333333333333332 L 36.333333333333336 21.333333333333332 L 36.0 22.0 L 36.0 23.0 L 36.0 24.0 L 36.0 24.5 Z" stroke="none" fill="rgb(255,255,255)" />
<path d="M 92.0 24.5 L 92.0 24.0 L 92.0 23.0 L 92.0 22.0 L 91.66666666666667 21.333333333333332 L 91.33333333333333 21.333333333333332 L 91.0 22.0 L 91.0 23.0 L 91.0 24.0 L 91.33333333333333 24.666666666666668 L 91.5 25.0 Z" stroke="none" fill="rgb(255,255,255)" />
<path d="M 27.5 56.0 L 27.666666666666668 55.666666666666664 L 28.0 55.0 L 27.666666666666668 54.0 L 27.0 53.333333333333336 L 26.333333333333332 53.333333333333336 L 26.0 54.0 L 26.333333333333332 55.0 L 26.5 55.5 Z" stroke="none" fill="rgb(255,255,255)" />
<path d="M 102.0 54.5 L 102.0 54.0 L 101.66666666666667 53.333333333333336 L 101.0 53.333333333333336 L 100.33333333333333 54.0 L 100.0 55.0 L 100.33333333333333 55.666666666666664 L 101.0 55.666666666666664 L 101.5 55.5 Z" stroke="none" fill="rgb(255,255,255)" />
<path d="M 107.0 89.5 L 107.0 89.0 L 107.0 88.0 L 107.0 87.0 L 106.66666666666667 86.33333333333333 L 106.33333333333333 86.33333333333333 L 106.0 87.0 L 106.0 88.0 L 106.0 89.0 L 106.33333333333333 89.66666666666667 L 106.5 90.0 Z" stroke="none" fill="rgb(0,0,0)" />
<path d="M 60.5 10.0 L 60.666666666666664 9.666666666666666 L 61.0 9.0 L 60.666666666666664 8.333333333333334 L 60.0 8.0 L 59.333333333333336 8.333333333333334 L 59.0 9.0 L 59.333333333333336 9.666666666666666 L 59.5 10.0 Z" stroke="none" fill="rgb(158,103,60)" />
<path d="M 69.0 9.5 L 69.0 9.0 L 68.66666666666667 8.333333333333334 L 68.0 8.0 L 67.33333333333333 8.333333333333334 L 67.0 9.0 L 67.33333333333333 9.666666666666666 L 68.0 10.0 L 68.5 10.0 Z" stroke="none" fill="rgb(158,103,60)" />
<path d="M 95.5 31.0 L 95.66666666666667 30.666666666666668 L 96.0 30.0 L 95.66666666666667 29.333333333333332 L 95.0 29.0 L 94.33333333333333 29.333333333333332 L 94.0 30.0 L 94.33333333333333 30.666666666666668 L 94.5 31.0 Z" stroke="none" fill="rgb(158,103,60)" />
<path d="M 23.5 38.0 L 24.0 38.0 L 24.666666666666668 37.666666666666664 L 25.0 37.0 L 24.666666666666668 36.333333333333336 L 24.0 36.0 L 23.333333333333332 36.333333333333336 L 23.0 37.0 L 23.0 37.5 Z" stroke="none" fill="rgb(158,103,60)" />
<path d="M 104.5 38.0 L 104.66666666666667 37.666666666666664 L 105.0 37.0 L 104.66666666666667 36.333333333333336 L 104.0 36.0 L 103.33333333333333 36.333333333333336 L 103.0 37.0 L 103.33333333333333 37.666666666666664 L 103.5 38.0 Z" stroke="none" fill="rgb(158,103,60)" />
<path d="M 30.0 45.5 L 30.0 45.0 L 30.0 44.0 L 29.666666666666668 43.333333333333336 L 29.333333333333332 43.333333333333336 L 29.0 44.0 L 29.0 45.0 L 29.333333333333332 45.666666666666664 L 29.5 46.0 Z" stroke="none" fill="rgb(255,255,255)" />
<path d="M 28.0 74.5 L 28.0 74.0 L 28.0 73.0 L 27.666666666666668 72.33333333333333 L 27.333333333333332 72.33333333333333 L 27.0 73.0 L 27.0 74.0 L 27.333333333333332 74.66666666666667 L 27.5 75.0 Z" stroke="none" fill="rgb(0,0,0)" />
<path d="M 33.0 18.5 L 33.0 18.0 L 32.666666666666664 17.333333333333332 L 32.333333333333336 17.333333333333332 L 32.0 18.0 L 32.333333333333336 18.666666666666668 L 32.5 19.0 Z" stroke="none" fill="rgb(0,0,0)" />
<path d="M 35.0 102.5 L 35.0 102.0 L 34.666666666666664 101.33333333333333 L 34.333333333333336 101.33333333333333 L 34.0 102.0 L 34.333333333333336 102.66666666666667 L 34.5 103.0 Z" stroke="none" fill="rgb(0,0,0)" />
<path d="M 58.0 15.5 L 57.666666666666664 15.333333333333334 L 57.333333333333336 15.333333333333334 L 57.333333333333336 15.666666666666666 L 57.5 16.0 Z" stroke="none" fill="rgb(255,255,255)" />
<path d="M 70.5 16.0 L 70.66666666666667 15.666666666666666 L 70.66666666666667 15.333333333333334 L 70.33333333333333 15.333333333333334 L 70.0 15.5 Z" stroke="none" fill="rgb(255,255,255)" />
<path d="M 95.5 18.0 L 95.66666666666667 17.666666666666668 L 95.66666666666667 17.333333333333332 L 95.33333333333333 17.333333333333332 L 95.0 17.5 Z" stroke="none" fill="rgb(0,0,0)" />
<path d="M 31.0 42.5 L 30.666666666666668 42.333333333333336 L 30.333333333333332 42.333333333333336 L 30.333333333333332 42.666666666666664 L 30.5 43.0 Z" stroke="none" fill="rgb(255,255,255)" />
<path d="M 25.5 53.0 L 25.666666666666668 52.666666666666664 L 25.666666666666668 52.333333333333336 L 25.333333333333332 52.333333333333336 L 25.0 52.5 Z" stroke="none" fill="rgb(255,255,255)" />
<path d="M 102.5 53.0 L 102.66666666666667 52.666666666666664 L 102.66666666666667 52.333333333333336 L 102.33333333333333 52.333333333333336 L 102.0 52.5 Z" stroke="none" fill="rgb(255,255,255)" />
<path d="M 106.0 57.5 L 105.66666666666667 57.333333333333336 L 105.33333333333333 57.333333333333336 L 105.33333333333333 57.666666666666664 L 105.5 58.0 Z" stroke="none" fill="rgb(158,103,60)" />
<path d="M 106.5 58.0 L 106.66666666666667 57.666666666666664 L 106.66666666666667 57.333333333333336 L 106.33333333333333 57.333333333333336 L 106.0 57.5 Z" stroke="none" fill="rgb(0,0,0)" />
<path d="M 106.0 58.5 L 105.66666666666667 58.333333333333336 L 105.33333333333333 58.333333333333336 L 105.33333333333333 58.666666666666664 L 105.5 59.0 Z" stroke="none" fill="rgb(0,0,0)" />
<path d="M 101.0 73.5 L 100.66666666666667 73.33333333333333 L 100.33333333333333 73.33333333333333 L 100.33333333333333 73.66666666666667 L 100.5 74.0 Z" stroke="none" fill="rgb(0,0,0)" />
<path d="M 109.0 75.5 L 108.66666666666667 75.33333333333333 L 108.33333333333333 75.33333333333333 L 108.33333333333333 75.66666666666667 L 108.5 76.0 Z" stroke="none" fill="rgb(0,0,0)" />
<path d="M 32.0 97.5 L 31.666666666666668 97.33333333333333 L 31.333333333333332 97.33333333333333 L 31.333333333333332 97.66666666666667 L 31.5 98.0 Z" stroke="none" fill="rgb(0,0,0)" />
<path d="M 97.0 97.5 L 96.66666666666667 97.33333333333333 L 96.33333333333333 97.33333333333333 L 96.33333333333333 97.66666666666667 L 96.5 98.0 Z" stroke="none" fill="rgb(0,0,0)" />
<path d="M 92.5 101.0 L 92.66666666666667 100.66666666666667 L 92.66666666666667 100.33333333333333 L 92.33333333333333 100.33333333333333 L 92.0 100.5 Z" stroke="none" fill="rgb(0,0,0)" />
<path d="M 94.0 101.5 L 93.66666666666667 101.33333333333333 L 93.33333333333333 101.33333333333333 L 93.33333333333333 101.66666666666667 L 93.5 102.0 Z" stroke="none" fill="rgb(0,0,0)" />
<path d="M 92.5 104.0 L 92.66666666666667 103.66666666666667 L 92.66666666666667 103.33333333333333 L 92.33333333333333 103.33333333333333 L 92.0 103.5 Z" stroke="none" fill="rgb(158,103,60)" />
<path d="M 87.5 114.0 L 87.66666666666667 113.66666666666667 L 87.66666666666667 113.33333333333333 L 87.33333333333333 113.33333333333333 L 87.0 113.5 Z" stroke="none" fill="rgb(0,0,0)" />
<path d="M 87.0 115.5 L 86.66666666666667 115.33333333333333 L 86.33333333333333 115.33333333333333 L 86.33333333333333 115.66666666666667 L 86.5 116.0 Z" stroke="none" fill="rgb(0,0,0)" />
</svg>
