<?xml version="1.0" encoding="UTF-8" standalone="no"?>
<!DOCTYPE svg PUBLIC "-//W3C//DTD SVG 1.1//EN"
"http://www.w3.org/Graphics/SVG/1.1/DTD/svg11.dtd">
<svg width="128" height="128" xmlns="http://www.w3.org/2000/svg" version="1.1">
<path d="M 26.5 128.0 L 27.0 128.0 L 28.0 128.0 L 29.0 128.0 L 30.0 128.0 L 31.0 128.0 L 32.0 128.0 L 33.0 128.0 L 34.0 128.0 L 35.0 128.0 L 36.0 128.0 L 37.0 128.0 L 38.0 128.0 L 39.0 128.0 L 40.0 128.0 L 41.0 128.0 L 42.0 128.0 L 43.0 128.0 L 44.0 128.0 L 45.0 128.0 L 46.0 128.0 L 47.0 128.0 L 48.0 128.0 L 49.0 128.0 L 50.0 128.0 L 51.0 128.0 L 52.0 128.0 L 53.0 128.0 L 54.0 128.0 L 55.0 128.0 L 56.0 128.0 L 57.0 128.0 L 58.0 128.0 L 59.0 128.0 L 60.0 128.0 L 61.0 128.0 L 62.0 128.0 L 63.0 128.0 L 64.0 128.0 L 65.0 128.0 L 66.0 128.0 L 67.0 128.0 L 68.0 128.0 L 69.0 128.0 L 70.0 128.0 L 71.0 128.0 L 72.0 128.0 L 73.0 128.0 L 74.0 128.0 L 75.0 128.0 L 76.0 128.0 L 77.0 128.0 L 78.0 128.0 L 79.0 128.0 L 80.0 128.0 L 81.0 128.0 L 82.0 128.0 L 83.0 128.0 L 84.0 128.0 L 85.0 128.0 L 86.0 128.0 L 87.0 128.0 L 88.0 128.0 L 89.0 128.0 L 90.0 128.0 L 91.0 128.0 L 92.0 128.0 L 93.0 128.0 L 94.0 128.0 L 95.0 128.0 L 96.0 128.0 L 97.0 128.0 L 98.0 128.0 L 99.0 128.0 L 100.0 128.0 L 101.0 128.0 L 102.0 128.0 L 103.0 128.0 L 104.0 128.0 L 105.0 128.0 L 106.0 128.0 L 107.0 128.0 L 108.0 128.0 L 109.0 128.0 L 110.0 128.0 L 111.0 128.0 L 112.0 128.0 L 113.0 128.0 L 114.0 128.0 L 115.0 128.0 L 116.0 128.0 L 117.0 128.0 L 118.0 128.0 L 119.0 128.0 L 120.0 128.0 L 121.0 128.0 L 122.0 128.0 L 123.0 128.0 L 124.0 128.0 L 125.0 128.0 L 126.0 128.0 L 127.0 128.0 L 127.66666666666667 127.66666666666667 L 128.0 127.0 L 128.0 126.0 L 128.0 125.0 L 128.0 124.0 L 128.0 123.0 L 128.0 122.0 L 128.0 121.0 L 128.0 120.0 L 128.0 119.0 L 128.0 118.0 L 128.0 117.0 L 128.0 116.0 L 128.0 115.0 L 128.0 114.0 L 128.0 113.0 L 128.0 112.0 L 128.0 111.0 L 128.0 110.0 L 128.0 109.0 L 128.0 108.0 L 128.0 107.0 L 128.0 106.0 L 128.0 105.0 L 128.0 104.0 L 128.0 103.0 L 128.0 102.0 L 128.0 101.0 L 128.0 100.0 L 128.0 99.0 L 128.0 98.0 L 128.0 97.0 L 128.0 96.0 L 128.0 95.0 L 128.0 94.0 L 128.0 93.0 L 128.0 92.0 L 128.0 91.0 L 128.0 90.0 L 128.0 89.0 L 128.0 88.0 L 128.0 87.0 L 128.0 86.0 L 128.0 85.0 L 128.0 84.0 L 128.0 83.0 L 128.0 82.0 L 128.0 81.0 L 128.0 80.0 L 128.0 79.0 L 128.0 78.0 L 128.0 77.0 L 128.0 76.0 L 128.0 75.0 L 128.0 74.0 L 128.0 73.0 L 128.0 72.0 L 128.0 71.0 L 128.0 70.0 L 128.0 69.0 L 128.0 68.0 L 128.0 67.0 L 128.0 66.0 L 128.0 65.0 L 128.0 64.0 L 128.0 63.0 L 128.0 62.0 L 128.0 61.0 L 128.0 60.0 L 128.0 59.0 L 128.0 58.0 L 128.0 57.0 L 128.0 56.0 L 128.0 55.0 L 128.0 54.0 L 128.0 53.0 L 128.0 52.0 L 128.0 51.0 L 128.0 50.0 L 128.0 49.0 L 128.0 48.0 L 128.0 47.0 L 128.0 46.0 L 128.0 45.0 L 128.0 44.0 L 128.0 43.0 L 128.0 42.0 L 128.0 41.0 L 128.0 40.0 L 128.0 39.0 L 128.0 38.0 L 128.0 37.0 L 128.0 36.0 L 128.0 35.0 L 128.0 34.0 L 128.0 33.0 L 128.0 32.0 L 128.0 31.0 L 128.0 30.0 L 128.0 29.0 L 128.0 28.0 L 128.0 27.0 L 128.0 26.0 L 128.0 25.0 L 128.0 24.0 L 128.0 23.0 L 128.0 22.0 L 128.0 21.0 L 128.0 20.0 L 128.0 19.0 L 128.0 18.0 L 128.0 17.0 L 128.0 16.0 L 128.0 15.0 L 128.0 14.0 L 128.0 13.0 L 128.0 12.0 L 128.0 11.0 L 128.0 10.0 L 128.0 9.0 L 128.0 8.0 L 128.0 7.0 L 128.0 6.0 L 128.0 5.0 L 128.0 4.0 L 128.0 3.0 L 128.0 2.0 L 128.0 1.0 L 127.66666666666667 0.3333333333333333 L 127.0 0.0 L 126.0 0.0 L 125.0 0.0 L 124.0 0.0 L 123.0 0.0 L 122.0 0.0 L 121.0 0.0 L 120.0 0.0 L 119.0 0.0 L 118.0 0.0 L 117.0 0.0 L 116.0 0.0 L 115.0 0.0 L 114.0 0.0 L 113.0 0.0 L 112.0 0.0 L 111.0 0.0 L 110.0 0.0 L 109.0 0.0 L 108.0 0.0 L 107.0 0.0 L 106.0 0.0 L 105.0 0.0 L 104.0 0.0 L 103.0 0.0 L 102.0 0.0 L 101.0 0.0 L 100.0 0.0 L 99.0 0.0 L 98.0 0.0 L 97.0 0.0 L 96.0 0.0 L 95.0 0.0 L 94.0 0.0 L 93.0 0.0 L 92.0 0.0 L 91.0 0.0 L 90.0 0.0 L 89.0 0.0 L 88.0 0.0 L 87.0 0.0 L 86.0 0.0 L 85.0 0.0 L 84.0 0.0 L 83.0 0.0 L 82.0 0.0 L 81.0 0.0 L 80.0 0.0 L 79.0 0.0 L 78.0 0.0 L 77.0 0.0 L 76.0 0.0 L 75.0 0.0 L 74.0 0.0 L 73.0 0.0 L 72.0 0.0 L 71.0 0.0 L 70.0 0.0 L 69.0 0.0 L 68.0 0.0 L 67.0 0.0 L 66.0 0.0 L 65.0 0.0 L 64.0 0.0 L 63.0 0.0 L 62.0 0.0 L 61.0 0.0 L 60.0 0.0 L 59.0 0.0 L 58.0 0.0 L 57.0 0.0 L 56.0 0.0 L 55.0 0.0 L 54.0 0.0 L 53.0 0.0 L 52.0 0.0 L 51.0 0.0 L 50.0 0.0 L 49.0 0.0 L 48.0 0.0 L 47.0 0.0 L 46.0 0.0 L 45.0 0.0 L 44.0 0.0 L 43.0 0.0 L 42.0 0.0 L 41.0 0.0 L 40.0 0.0 L 39.0 0.0 L 38.0 0.0 L 37.0 0.0 L 36.0 0.0 L 35.0 0.0 L 34.0 0.0 L 33.0 0.0 L 32.0 0.0 L 31.0 0.0 L 30.0 0.0 L 29.0 0.0 L 28.0 0.0 L 27.0 0.0 L 26.0 0.0 L 25.0 0.0 L 24.0 0.0 L 23.0 0.0 L 22.0 0.0 L 21.0 0.0 L 20.0 0.0 L 19.0 0.0 L 18.0 0.0 L 17.0 0.0 L 16.0 0.0 L 15.0 0.0 L 14.0 0.0 L 13.0 0.0 L 12.0 0.0 L 11.0 0.0 L 10.0 0.0 L 9.0 0.0 L 8.0 0.0 L 7.0 0.0 L 6.0 0.0 L 5.0 0.0 L 4.0 0.0 L 3.0 0.0 L 2.0 0.0 L 1.0 0.0 L 0.3333333333333333 0.3333333333333333 L 0.0 1.0 L 0.0 2.0 L 0.0 3.0 L 0.0 4.0 L 0.0 5.0 L 0.0 6.0 L 0.0 7.0 L 0.0 8.0 L 0.0 9.0 L 0.0 10.0 L 0.0 11.0 L 0.0 12.0 L 0.0 13.0 L 0.0 14.0 L 0.0 15.0 L 0.0 16.0 L 0.0 17.0 L 0.0 18.0 L 0.0 19.0 L 0.0 20.0 L 0.0 21.0 L 0.0 22.0 L 0.0 23.0 L 0.0 24.0 L 0.0 25.0 L 0.0 26.0 L 0.0 27.0 L 0.0 28.0 L 0.0 29.0 L 0.0 30.0 L 0.0 31.0 L 0.0 32.0 L 0.0 33.0 L 0.0 34.0 L 0.0 35.0 L 0.0 36.0 L 0.0 37.0 L 0.0 38.0 L 0.0 39.0 L 0.0 40.0 L 0.0 41.0 L 0.0 42.0 L 0.0 43.0 L 0.0 44.0 L 0.0 45.0 L 0.0 46.0 L 0.0 47.0 L 0.0 48.0 L 0.0 49.0 L 0.0 50.0 L 0.0 51.0 L 0.0 52.0 L 0.0 53.0 L 0.0 54.0 L 0.0 55.0 L 0.0 56.0 L 0.0 57.0 L 0.0 58.0 L 0.0 59.0 L 0.0 60.0 L 0.0 61.0 L 0.0 62.0 L 0.0 63.0 L 0.0 64.0 L 0.0 65.0 L 0.0 66.0 L 0.0 67.0 L 0.0 68.0 L 0.0 69.0 L 0.0 70.0 L 0.0 71.0 L 0.0 72.0 L 0.0 73.0 L 0.0 74.0 L 0.0 75.0 L 0.0 76.0 L 0.0 77.0 L 0.0 78.0 L 0.0 79.0 L 0.0 80.0 L 0.0 81.0 L 0.0 82.0 L 0.0 83.0 L 0.0 84.0 L 0.0 85.0 L 0.0 86.0 L 0.0 87.0 L 0.0 88.0 L 0.0 89.0 L 0.0 90.0 L 0.0 91.0 L 0.0 92.0 L 0.0 93.0 L 0.0 94.0 L 0.0 95.0 L 0.0 96.0 L 0.0 97.0 L 0.0 98.0 L 0.0 99.0 L 0.0 100.0 L 0.0 101.0 L 0.0 102.0 L 0.0 103.0 L 0.0 104.0 L 0.0 105.0 L 0.0 106.0 L 0.0 107.0 L 0.0 108.0 L 0.0 109.0 L 0.0 110.0 L 0.0 111.0 L 0.0 112.0 L 0.0 113.0 L 0.0 114.0 L 0.0 115.0 L 0.0 116.0 L 0.0 117.0 L 0.0 118.0 L 0.0 119.0 L 0.0 120.0 L 0.0 121.0 L 0.0 122.0 L 0.0 123.0 L 0.0 124.0 L 0.0 125.0 L 0.0 126.0 L 0.0 127.0 L 0.3333333333333333 127.66666666666667 L 1.0 128.0 L 2.0 128.0 L 3.0 128.0 L 4.0 128.0 L 5.0 128.0 L 6.0 128.0 L 7.0 128.0 L 8.0 128.0 L 9.0 128.0 L 10.0 128.0 L 11.0 128.0 L 12.0 128.0 L 13.0 128.0 L 14.0 128.0 L 15.0 128.0 L 16.0 128.0 L 17.0 128.0 L 18.0 128.0 L 19.0 128.0 L 20.0 128.0 L 21.0 128.0 L 22.0 128.0 L 23.0 128.0 L 24.0 128.0 L 25.0 128.0 L 25.5 128.0 Z" stroke="none" fill="rgb(255,255,255)" />
<path d="M 72.5 116.0 L 73.0 116.0 L 73.66666666666667 115.66666666666667 L 74.0 115.0 L 74.0 114.0 L 74.0 113.0 L 74.0 112.0 L 74.33333333333333 111.0 L 74.66666666666667 110.0 L 75.0 109.0 L 75.0 108.0 L 75.0 107.0 L 75.0 106.0 L 75.0 105.0 L 75.0 104.0 L 75.0 103.0 L 75.33333333333333 102.0 L 75.66666666666667 101.0 L 76.0 100.0 L 76.0 99.0 L 76.0 98.0 L 76.0 97.0 L 76.0 96.0 L 76.33333333333333 95.0 L 76.66666666666667 94.0 L 77.0 93.0 L 77.33333333333333 92.0 L 77.66666666666667 91.0 L 78.0 90.0 L 78.33333333333333 89.0 L 78.66666666666667 88.0 L 79.33333333333333 87.0 L 79.66666666666667 86.0 L 80.0 85.0 L 80.33333333333333 84.0 L 80.66666666666667 83.0 L 81.33333333333333 82.0 L 82.0 81.33333333333333 L 83.0 80.66666666666667 L 84.0 80.0 L 85.0 79.0 L 86.0 78.0 L 87.0 77.0 L 87.66666666666667 76.0 L 87.66666666666667 75.0 L 87.0 74.33333333333333 L 86.0 74.0 L 85.0 74.0 L 84.0 74.0 L 83.0 74.0 L 82.0 74.0 L 81.0 74.0 L 80.0 74.0 L 79.0 74.0 L 78.33333333333333 74.33333333333333 L 77.66666666666667 75.0 L 77.0 76.0 L 76.0 77.0 L 75.0 77.33333333333333 L 74.0 77.33333333333333 L 73.0 76.66666666666667 L 72.0 76.33333333333333 L 71.0 76.33333333333333 L 70.0 76.66666666666667 L 69.0 77.0 L 68.0 77.0 L 67.0 77.33333333333333 L 66.33333333333333 78.0 L 66.0 79.0 L 66.0 80.0 L 65.66666666666667 81.0 L 65.33333333333333 82.0 L 65.0 83.0 L 65.0 84.0 L 64.66666666666667 85.0 L 64.33333333333333 86.0 L 64.0 87.0 L 64.0 88.0 L 64.0 89.0 L 64.0 90.0 L 64.0 91.0 L 64.0 92.0 L 64.0 93.0 L 64.0 94.0 L 64.0 95.0 L 64.0 96.0 L 64.0 97.0 L 64.0 98.0 L 64.0 99.0 L 64.0 100.0 L 64.0 101.0 L 64.0 102.0 L 64.0 103.0 L 64.33333333333333 104.0 L 64.66666666666667 105.0 L 65.0 106.0 L 65.0 107.0 L 65.0 108.0 L 65.0 109.0 L 65.0 110.0 L 65.0 111.0 L 65.0 112.0 L 65.0 113.0 L 65.0 114.0 L 65.0 115.0 L 65.33333333333333 115.66666666666667 L 66.0 116.0 L 67.0 116.0 L 68.0 116.0 L 69.0 116.0 L 70.0 116.0 L 71.0 116.0 L 71.5 116.0 Z" stroke="none" fill="rgb(124,124,124)" />
<path d="M 95.5 112.0 L 96.0 112.0 L 97.0 111.66666666666667 L 98.0 111.0 L 99.0 110.0 L 100.0 109.0 L 101.0 108.0 L 101.66666666666667 107.0 L 102.0 106.0 L 102.0 105.0 L 101.66666666666667 104.0 L 101.0 103.0 L 100.0 102.0 L 99.0 101.0 L 98.0 100.0 L 97.0 99.0 L 96.0 98.0 L 95.33333333333333 97.0 L 94.66666666666667 96.0 L 94.0 95.0 L 93.0 94.0 L 92.0 93.0 L 91.0 92.0 L 90.33333333333333 91.0 L 89.66666666666667 90.0 L 89.33333333333333 89.0 L 89.0 88.0 L 89.0 87.0 L 89.0 86.0 L 89.0 85.0 L 89.0 84.0 L 89.0 83.0 L 89.0 82.0 L 89.0 81.0 L 89.0 80.0 L 89.0 79.0 L 89.0 78.0 L 89.0 77.0 L 88.66666666666667 76.33333333333333 L 88.0 76.0 L 87.0 76.33333333333333 L 86.0 77.0 L 85.0 78.0 L 84.0 79.0 L 83.0 80.0 L 82.0 80.66666666666667 L 81.33333333333333 81.33333333333333 L 80.66666666666667 82.0 L 80.33333333333333 83.0 L 80.0 84.0 L 79.66666666666667 85.0 L 79.33333333333333 86.0 L 78.66666666666667 87.0 L 78.33333333333333 88.0 L 78.0 89.0 L 77.66666666666667 90.0 L 77.33333333333333 91.0 L 77.0 92.0 L 77.0 93.0 L 77.0 94.0 L 77.33333333333333 95.0 L 77.66666666666667 96.0 L 78.33333333333333 97.0 L 78.66666666666667 98.0 L 79.33333333333333 99.0 L 80.0 100.0 L 81.0 101.0 L 82.0 101.66666666666667 L 83.0 102.33333333333333 L 84.0 103.0 L 85.0 104.0 L 86.0 104.66666666666667 L 87.0 105.33333333333333 L 88.0 106.0 L 89.0 107.0 L 90.0 107.66666666666667 L 91.0 108.33333333333333 L 92.0 109.0 L 93.0 110.0 L 94.0 111.0 L 94.5 111.5 Z" stroke="none" fill="rgb(97,97,97)" />
<path d="M 88.0 29.5 L 88.0 29.0 L 87.66666666666667 28.0 L 87.33333333333333 27.0 L 87.33333333333333 26.0 L 88.0 25.333333333333332 L 89.0 24.666666666666668 L 89.66666666666667 24.0 L 90.0 23.0 L 89.66666666666667 22.0 L 89.0 21.0 L 88.33333333333333 20.0 L 88.0 19.0 L 88.33333333333333 18.0 L 88.66666666666667 17.0 L 88.66666666666667 16.0 L 88.33333333333333 15.0 L 88.0 14.0 L 87.66666666666667 13.0 L 87.33333333333333 12.0 L 86.66666666666667 11.0 L 86.0 10.333333333333334 L 85.0 10.0 L 84.0 9.666666666666666 L 83.0 9.0 L 82.0 8.0 L 81.0 7.0 L 80.0 6.333333333333333 L 79.0 6.0 L 78.0 5.666666666666667 L 77.0 5.333333333333333 L 76.0 5.0 L 75.0 5.0 L 74.0 5.0 L 73.33333333333333 5.333333333333333 L 72.66666666666667 6.0 L 72.0 7.0 L 71.0 7.666666666666667 L 70.0 8.0 L 69.0 7.666666666666667 L 68.0 7.333333333333333 L 67.0 7.0 L 66.33333333333333 7.333333333333333 L 66.0 8.0 L 66.0 9.0 L 65.66666666666667 10.0 L 65.33333333333333 11.0 L 64.66666666666667 12.0 L 64.33333333333333 13.0 L 64.0 14.0 L 64.0 15.0 L 64.0 16.0 L 64.33333333333333 17.0 L 65.0 17.666666666666668 L 66.0 17.666666666666668 L 67.0 17.333333333333332 L 68.0 16.666666666666668 L 69.0 16.333333333333332 L 70.0 16.0 L 71.0 16.0 L 72.0 16.0 L 73.0 16.0 L 74.0 16.333333333333332 L 74.66666666666667 17.0 L 75.0 18.0 L 75.0 19.0 L 75.0 20.0 L 75.33333333333333 21.0 L 76.0 21.666666666666668 L 77.0 22.0 L 78.0 22.0 L 79.0 22.0 L 80.0 22.333333333333332 L 80.33333333333333 23.0 L 80.33333333333333 24.0 L 80.0 25.0 L 80.0 26.0 L 80.0 27.0 L 80.33333333333333 28.0 L 81.0 29.0 L 82.0 30.0 L 83.0 30.666666666666668 L 84.0 31.0 L 85.0 31.0 L 86.0 30.666666666666668 L 87.0 30.333333333333332 L 87.5 30.0 Z" stroke="none" fill="rgb(49,45,45)" />
<path d="M 71.5 36.0 L 72.0 36.333333333333336 L 73.0 36.666666666666664 L 74.0 37.0 L 75.0 37.0 L 76.0 36.666666666666664 L 77.0 36.333333333333336 L 78.0 36.0 L 79.0 35.666666666666664 L 80.0 35.666666666666664 L 81.0 35.666666666666664 L 82.0 36.0 L 83.0 36.0 L 83.66666666666667 35.666666666666664 L 84.0 35.0 L 84.0 34.0 L 84.0 33.0 L 84.0 32.0 L 83.66666666666667 31.0 L 83.0 30.0 L 82.0 29.0 L 81.0 28.0 L 80.33333333333333 27.0 L 80.0 26.0 L 80.33333333333333 25.0 L 80.66666666666667 24.0 L 81.0 23.0 L 80.66666666666667 22.0 L 80.0 21.333333333333332 L 79.0 21.333333333333332 L 78.0 21.666666666666668 L 77.0 21.666666666666668 L 76.0 21.0 L 75.33333333333333 20.0 L 75.0 19.0 L 75.0 18.0 L 75.0 17.0 L 74.66666666666667 16.333333333333332 L 74.0 16.0 L 73.0 16.0 L 72.0 16.0 L 71.0 16.0 L 70.0 16.0 L 69.0 16.0 L 68.0 16.333333333333332 L 67.0 16.666666666666668 L 66.0 17.333333333333332 L 65.0 18.0 L 64.33333333333333 19.0 L 64.0 20.0 L 64.0 21.0 L 64.33333333333333 22.0 L 64.33333333333333 23.0 L 64.0 24.0 L 63.0 25.0 L 62.333333333333336 26.0 L 62.0 27.0 L 62.333333333333336 28.0 L 63.0 28.666666666666668 L 64.0 29.333333333333332 L 65.0 30.0 L 65.33333333333333 31.0 L 65.33333333333333 32.0 L 65.33333333333333 33.0 L 66.0 34.0 L 67.0 34.666666666666664 L 68.0 35.0 L 69.0 35.0 L 70.0 35.333333333333336 L 70.5 35.5 Z" stroke="none" fill="rgb(249,221,189)" />
<path d="M 87.5 65.5 L 88.0 65.33333333333333 L 88.66666666666667 64.66666666666667 L 89.0 64.0 L 89.0 63.0 L 89.0 62.0 L 89.0 61.0 L 89.0 60.0 L 89.0 59.0 L 88.66666666666667 58.0 L 88.33333333333333 57.0 L 88.0 56.0 L 88.0 55.0 L 88.0 54.0 L 88.0 53.0 L 88.0 52.0 L 88.0 51.0 L 88.0 50.0 L 88.0 49.0 L 88.0 48.0 L 87.66666666666667 47.0 L 87.33333333333333 46.0 L 87.0 45.0 L 87.0 44.0 L 87.0 43.0 L 87.0 42.0 L 87.0 41.0 L 86.66666666666667 40.0 L 86.33333333333333 39.0 L 85.66666666666667 38.0 L 85.0 37.0 L 84.0 36.333333333333336 L 83.0 36.0 L 82.0 35.666666666666664 L 81.0 35.333333333333336 L 80.0 35.0 L 79.0 35.333333333333336 L 78.0 35.666666666666664 L 77.0 36.0 L 76.0 36.333333333333336 L 75.0 36.666666666666664 L 74.0 37.0 L 73.0 37.333333333333336 L 72.33333333333333 38.0 L 72.0 39.0 L 72.0 40.0 L 72.33333333333333 41.0 L 73.0 41.666666666666664 L 73.66666666666667 41.666666666666664 L 74.33333333333333 41.0 L 75.0 40.0 L 76.0 39.0 L 77.0 38.0 L 78.0 37.333333333333336 L 79.0 37.0 L 80.0 37.0 L 81.0 37.333333333333336 L 82.0 38.0 L 83.0 39.0 L 84.0 40.0 L 84.66666666666667 41.0 L 85.0 42.0 L 85.0 43.0 L 85.0 44.0 L 85.0 45.0 L 85.33333333333333 46.0 L 85.66666666666667 47.0 L 86.0 48.0 L 86.0 49.0 L 85.66666666666667 50.0 L 85.33333333333333 51.0 L 85.0 52.0 L 85.0 53.0 L 85.0 54.0 L 85.0 55.0 L 85.33333333333333 56.0 L 85.66666666666667 57.0 L 86.0 58.0 L 86.0 59.0 L 85.66666666666667 60.0 L 85.0 61.0 L 84.0 62.0 L 83.0 63.0 L 82.0 64.0 L 81.0 65.0 L 80.0 66.0 L 79.0 67.0 L 78.0 68.0 L 77.33333333333333 69.0 L 77.0 70.0 L 77.33333333333333 70.66666666666667 L 78.0 70.66666666666667 L 79.0 70.33333333333333 L 80.0 70.0 L 81.0 69.66666666666667 L 82.0 69.33333333333333 L 83.0 68.66666666666667 L 84.0 68.33333333333333 L 85.0 67.66666666666667 L 86.0 67.0 L 86.5 66.5 Z" stroke="none" fill="rgb(240,122,36)" />
<path d="M 73.5 77.0 L 73.66666666666667 76.66666666666667 L 74.0 76.0 L 74.33333333333333 75.0 L 75.0 74.33333333333333 L 76.0 74.0 L 76.66666666666667 73.66666666666667 L 77.0 73.0 L 77.0 72.0 L 77.0 71.0 L 77.33333333333333 70.0 L 78.0 69.0 L 79.0 68.0 L 80.0 67.0 L 81.0 66.0 L 82.0 65.0 L 83.0 64.0 L 84.0 63.0 L 85.0 62.0 L 85.66666666666667 61.0 L 86.0 60.0 L 86.0 59.0 L 86.0 58.0 L 86.0 57.0 L 85.66666666666667 56.0 L 85.0 55.333333333333336 L 84.0 55.333333333333336 L 83.0 55.666666666666664 L 82.0 56.0 L 81.0 56.0 L 80.0 56.333333333333336 L 79.0 57.0 L 78.0 58.0 L 77.0 59.0 L 76.0 60.0 L 75.0 61.0 L 74.0 62.0 L 73.0 63.0 L 72.0 64.0 L 71.33333333333333 65.0 L 71.0 66.0 L 70.66666666666667 67.0 L 70.0 67.66666666666667 L 69.0 68.0 L 68.0 68.33333333333333 L 67.33333333333333 69.0 L 67.0 70.0 L 67.0 71.0 L 67.0 72.0 L 67.0 73.0 L 67.0 74.0 L 67.0 75.0 L 67.0 76.0 L 67.33333333333333 76.66666666666667 L 68.0 77.0 L 69.0 77.0 L 70.0 77.0 L 71.0 77.0 L 72.0 77.0 L 72.5 77.0 Z" stroke="none" fill="rgb(249,221,189)" />
<path d="M 78.5 53.5 L 79.0 53.333333333333336 L 80.0 53.0 L 81.0 53.0 L 82.0 53.0 L 83.0 52.666666666666664 L 84.0 52.333333333333336 L 85.0 51.666666666666664 L 85.66666666666667 51.0 L 86.0 50.0 L 86.0 49.0 L 86.0 48.0 L 86.0 47.0 L 85.66666666666667 46.0 L 85.33333333333333 45.0 L 85.0 44.0 L 85.0 43.0 L 85.0 42.0 L 85.0 41.0 L 84.66666666666667 40.0 L 84.0 39.0 L 83.0 38.0 L 82.0 37.333333333333336 L 81.0 37.0 L 80.0 37.0 L 79.0 37.0 L 78.0 37.0 L 77.0 37.333333333333336 L 76.0 38.0 L 75.0 39.0 L 74.33333333333333 40.0 L 74.0 41.0 L 74.0 42.0 L 74.0 43.0 L 74.0 44.0 L 74.0 45.0 L 74.0 46.0 L 74.0 47.0 L 74.33333333333333 48.0 L 74.66666666666667 49.0 L 75.0 50.0 L 75.0 51.0 L 75.33333333333333 52.0 L 76.0 53.0 L 77.0 53.666666666666664 L 77.5 54.0 Z" stroke="none" fill="rgb(236,111,36)" />
<path d="M 95.5 123.5 L 96.0 123.66666666666667 L 97.0 124.0 L 98.0 123.66666666666667 L 99.0 123.0 L 100.0 122.0 L 101.0 121.0 L 102.0 120.0 L 103.0 119.0 L 104.0 118.0 L 105.0 117.0 L 106.0 116.0 L 107.0 115.0 L 108.0 114.0 L 109.0 113.0 L 109.66666666666667 112.0 L 110.0 111.0 L 109.66666666666667 110.0 L 109.0 109.0 L 108.0 108.0 L 107.0 107.33333333333333 L 106.0 107.0 L 105.0 106.66666666666667 L 104.0 106.33333333333333 L 103.0 106.0 L 102.0 106.33333333333333 L 101.0 107.0 L 100.0 108.0 L 99.0 109.0 L 98.0 110.0 L 97.0 111.0 L 96.33333333333333 112.0 L 95.66666666666667 113.0 L 95.33333333333333 114.0 L 94.66666666666667 115.0 L 94.33333333333333 116.0 L 94.0 117.0 L 94.0 118.0 L 94.0 119.0 L 94.0 120.0 L 94.0 121.0 L 94.33333333333333 122.0 L 94.5 122.5 Z" stroke="none" fill="rgb(50,85,153)" />
<path d="M 72.5 64.5 L 73.0 64.0 L 74.0 63.0 L 75.0 62.0 L 76.0 61.0 L 77.0 60.0 L 78.0 59.0 L 78.66666666666667 58.0 L 78.66666666666667 57.0 L 78.33333333333333 56.0 L 78.0 55.0 L 77.66666666666667 54.0 L 77.0 53.0 L 76.0 52.0 L 75.33333333333333 51.0 L 75.0 50.0 L 75.0 49.0 L 74.66666666666667 48.0 L 74.33333333333333 47.0 L 74.0 46.0 L 74.0 45.0 L 74.0 44.0 L 74.0 43.0 L 73.66666666666667 42.0 L 73.0 41.333333333333336 L 72.0 41.0 L 71.0 41.333333333333336 L 70.33333333333333 42.0 L 70.0 43.0 L 70.0 44.0 L 70.0 45.0 L 70.0 46.0 L 70.0 47.0 L 69.66666666666667 48.0 L 69.33333333333333 49.0 L 69.0 50.0 L 69.0 51.0 L 69.0 52.0 L 69.0 53.0 L 69.0 54.0 L 69.0 55.0 L 69.0 56.0 L 69.0 57.0 L 69.0 58.0 L 68.66666666666667 59.0 L 68.33333333333333 60.0 L 68.0 61.0 L 68.0 62.0 L 68.0 63.0 L 68.33333333333333 63.666666666666664 L 69.0 64.0 L 70.0 64.33333333333333 L 71.0 64.66666666666667 L 71.5 65.0 Z" stroke="none" fill="rgb(245,138,33)" />
<path d="M 65.5 124.0 L 66.0 124.0 L 67.0 124.0 L 68.0 124.0 L 69.0 124.0 L 70.0 124.0 L 71.0 124.0 L 72.0 124.0 L 73.0 124.0 L 74.0 124.0 L 74.66666666666667 123.66666666666667 L 75.0 123.0 L 75.0 122.0 L 75.0 121.0 L 75.0 120.0 L 75.0 119.0 L 75.0 118.0 L 74.66666666666667 117.0 L 74.0 116.33333333333333 L 73.0 116.0 L 72.0 116.0 L 71.0 116.0 L 70.0 116.0 L 69.0 116.0 L 68.0 116.0 L 67.0 116.0 L 66.0 116.0 L 65.0 116.0 L 64.0 116.0 L 63.0 116.33333333333333 L 62.0 116.66666666666667 L 61.0 117.0 L 60.0 117.33333333333333 L 59.0 117.66666666666667 L 58.0 118.33333333333333 L 57.333333333333336 119.0 L 57.0 120.0 L 57.0 121.0 L 57.0 122.0 L 57.0 123.0 L 57.333333333333336 123.66666666666667 L 58.0 124.0 L 59.0 124.0 L 60.0 124.0 L 61.0 124.0 L 62.0 124.0 L 63.0 124.0 L 64.0 124.0 L 64.5 124.0 Z" stroke="none" fill="rgb(69,104,173)" />
<path d="M 50.5 94.5 L 51.0 94.0 L 52.0 93.0 L 53.0 92.0 L 54.0 91.0 L 55.0 90.0 L 56.0 89.0 L 57.0 88.0 L 58.0 87.0 L 59.0 86.0 L 59.666666666666664 85.0 L 59.666666666666664 84.0 L 59.0 83.0 L 58.0 82.33333333333333 L 57.0 82.0 L 56.0 82.33333333333333 L 55.0 83.0 L 54.0 84.0 L 53.0 85.0 L 52.0 86.0 L 51.0 87.0 L 50.0 88.0 L 49.0 89.0 L 48.0 90.0 L 47.0 91.0 L 46.0 92.0 L 45.333333333333336 93.0 L 45.0 94.0 L 45.333333333333336 95.0 L 46.0 96.0 L 47.0 96.66666666666667 L 48.0 96.66666666666667 L 49.0 96.0 L 49.5 95.5 Z" stroke="none" fill="rgb(224,224,224)" />
<path d="M 26.5 119.5 L 27.0 119.0 L 28.0 118.0 L 29.0 117.0 L 30.0 116.0 L 31.0 115.0 L 32.0 114.0 L 33.0 113.0 L 34.0 112.0 L 35.0 111.0 L 36.0 110.0 L 36.666666666666664 109.0 L 36.666666666666664 108.0 L 36.0 107.0 L 35.0 106.33333333333333 L 34.0 106.0 L 33.0 106.33333333333333 L 32.0 107.0 L 31.0 108.0 L 30.0 109.0 L 29.0 110.0 L 28.0 111.0 L 27.0 112.0 L 26.0 113.0 L 25.0 114.0 L 24.0 115.0 L 23.333333333333332 116.0 L 23.0 117.0 L 23.0 118.0 L 23.333333333333332 119.0 L 24.0 119.66666666666667 L 25.0 120.0 L 25.5 120.0 Z" stroke="none" fill="rgb(255,61,1)" />
<path d="M 82.5 74.0 L 83.0 74.0 L 84.0 74.0 L 85.0 74.0 L 86.0 74.33333333333333 L 87.0 74.66666666666667 L 88.0 75.0 L 88.66666666666667 74.66666666666667 L 89.0 74.0 L 89.0 73.0 L 89.0 72.0 L 89.33333333333333 71.0 L 89.66666666666667 70.0 L 90.0 69.0 L 89.66666666666667 68.0 L 89.33333333333333 67.0 L 89.0 66.0 L 88.66666666666667 65.33333333333333 L 88.0 65.0 L 87.0 65.33333333333333 L 86.0 66.0 L 85.0 67.0 L 84.0 67.66666666666667 L 83.0 68.33333333333333 L 82.0 68.66666666666667 L 81.0 69.33333333333333 L 80.0 69.66666666666667 L 79.0 70.0 L 78.0 70.33333333333333 L 77.33333333333333 71.0 L 77.0 72.0 L 77.0 73.0 L 77.33333333333333 73.66666666666667 L 78.0 74.0 L 79.0 74.0 L 80.0 74.0 L 81.0 74.0 L 81.5 74.0 Z" stroke="none" fill="rgb(236,111,36)" />
<path d="M 59.5 84.0 L 60.0 84.0 L 61.0 83.66666666666667 L 62.0 83.0 L 63.0 82.0 L 64.0 81.0 L 64.66666666666667 80.0 L 65.33333333333333 79.0 L 65.66666666666667 78.0 L 65.66666666666667 77.0 L 65.33333333333333 76.0 L 64.66666666666667 75.33333333333333 L 64.0 75.0 L 63.0 75.0 L 62.0 75.33333333333333 L 61.0 76.0 L 60.0 77.0 L 59.0 78.0 L 58.0 79.0 L 57.333333333333336 80.0 L 57.0 81.0 L 57.333333333333336 82.0 L 58.0 83.0 L 58.5 83.5 Z" stroke="none" fill="rgb(97,97,97)" />
<path d="M 62.5 17.5 L 63.0 18.0 L 64.0 18.666666666666668 L 64.66666666666667 18.666666666666668 L 65.0 18.0 L 64.66666666666667 17.0 L 64.33333333333333 16.0 L 64.0 15.0 L 64.33333333333333 14.0 L 64.66666666666667 13.0 L 65.33333333333333 12.0 L 65.66666666666667 11.0 L 66.0 10.0 L 66.0 9.0 L 66.33333333333333 8.0 L 67.0 7.333333333333333 L 67.66666666666667 6.666666666666667 L 68.0 6.0 L 67.66666666666667 5.333333333333333 L 67.0 5.0 L 66.0 5.333333333333333 L 65.33333333333333 6.0 L 65.0 7.0 L 65.0 8.0 L 64.66666666666667 9.0 L 64.0 10.0 L 63.0 11.0 L 62.333333333333336 12.0 L 62.0 13.0 L 62.0 14.0 L 62.0 15.0 L 62.0 16.0 L 62.0 16.5 Z" stroke="none" fill="rgb(0,0,0)" />
<path d="M 65.5 77.5 L 66.0 77.66666666666667 L 66.66666666666667 77.66666666666667 L 67.0 77.0 L 67.0 76.0 L 67.0 75.0 L 67.0 74.0 L 67.0 73.0 L 67.0 72.0 L 67.0 71.0 L 67.0 70.0 L 67.0 69.0 L 66.66666666666667 68.33333333333333 L 66.0 68.0 L 65.0 68.33333333333333 L 64.0 69.0 L 63.333333333333336 70.0 L 63.0 71.0 L 63.0 72.0 L 63.0 73.0 L 63.0 74.0 L 63.333333333333336 74.66666666666667 L 64.0 75.33333333333333 L 64.66666666666667 76.0 L 65.0 76.5 Z" stroke="none" fill="rgb(252,212,167)" />
<path d="M 39.5 104.5 L 40.0 104.66666666666667 L 41.0 104.66666666666667 L 42.0 104.0 L 42.666666666666664 103.0 L 43.333333333333336 102.0 L 43.666666666666664 101.0 L 43.666666666666664 100.0 L 43.0 99.0 L 42.0 98.33333333333333 L 41.0 98.0 L 40.0 98.33333333333333 L 39.0 99.0 L 38.0 100.0 L 37.333333333333336 101.0 L 37.333333333333336 102.0 L 38.0 103.0 L 38.5 103.5 Z" stroke="none" fill="rgb(204,204,204)" />
<path d="M 80.5 56.5 L 81.0 56.333333333333336 L 82.0 56.0 L 83.0 56.0 L 84.0 55.666666666666664 L 84.66666666666667 55.0 L 85.0 54.0 L 85.0 53.0 L 84.66666666666667 52.333333333333336 L 84.0 52.0 L 83.0 52.333333333333336 L 82.0 52.666666666666664 L 81.0 53.0 L 80.0 53.0 L 79.0 53.0 L 78.33333333333333 53.333333333333336 L 78.0 54.0 L 78.0 55.0 L 78.0 56.0 L 78.33333333333333 56.666666666666664 L 79.0 57.0 L 79.5 57.0 Z" stroke="none" fill="rgb(252,212,167)" />
<path d="M 46.5 98.5 L 46.666666666666664 98.0 L 47.0 97.0 L 46.666666666666664 96.0 L 46.0 95.0 L 45.0 94.33333333333333 L 44.0 94.33333333333333 L 43.0 95.0 L 42.0 96.0 L 41.333333333333336 97.0 L 41.333333333333336 98.0 L 42.0 99.0 L 43.0 99.66666666666667 L 44.0 100.0 L 45.0 99.66666666666667 L 45.5 99.5 Z" stroke="none" fill="rgb(215,215,214)" />
<path d="M 36.5 108.0 L 37.0 108.0 L 38.0 107.66666666666667 L 39.0 107.0 L 39.666666666666664 106.0 L 40.0 105.0 L 39.666666666666664 104.0 L 39.0 103.0 L 38.0 102.33333333333333 L 37.0 102.0 L 36.333333333333336 102.33333333333333 L 35.666666666666664 103.0 L 35.333333333333336 104.0 L 35.0 105.0 L 35.0 106.0 L 35.333333333333336 107.0 L 35.5 107.5 Z" stroke="none" fill="rgb(193,193,193)" />
<path d="M 88.5 16.5 L 89.0 17.0 L 90.0 17.666666666666668 L 90.66666666666667 17.666666666666668 L 91.0 17.0 L 91.0 16.0 L 91.0 15.0 L 90.66666666666667 14.0 L 90.33333333333333 13.0 L 89.66666666666667 12.0 L 89.0 11.0 L 88.0 10.333333333333334 L 87.0 10.0 L 86.33333333333333 10.333333333333334 L 86.33333333333333 11.0 L 86.66666666666667 12.0 L 87.33333333333333 13.0 L 87.66666666666667 14.0 L 88.0 15.0 L 88.0 15.5 Z" stroke="none" fill="rgb(67,63,62)" />
<path d="M 82.5 9.5 L 83.0 9.666666666666666 L 84.0 10.0 L 85.0 10.0 L 85.66666666666667 9.666666666666666 L 86.0 9.0 L 85.66666666666667 8.0 L 85.0 7.0 L 84.0 6.0 L 83.0 5.333333333333333 L 82.0 5.0 L 81.0 5.0 L 80.33333333333333 5.333333333333333 L 80.0 6.0 L 80.33333333333333 7.0 L 81.0 8.0 L 81.5 8.5 Z" stroke="none" fill="rgb(67,63,62)" />
<path d="M 23.0 118.5 L 23.0 118.0 L 22.666666666666668 117.33333333333333 L 22.0 117.33333333333333 L 21.0 117.66666666666667 L 20.0 118.0 L 19.333333333333332 118.33333333333333 L 19.0 119.0 L 19.333333333333332 120.0 L 20.0 120.66666666666667 L 21.0 121.0 L 21.666666666666668 120.66666666666667 L 22.333333333333332 120.0 L 22.5 119.5 Z" stroke="none" fill="rgb(0,0,0)" />
<path d="M 19.5 124.0 L 20.0 124.0 L 21.0 124.0 L 21.666666666666668 123.66666666666667 L 21.666666666666668 123.0 L 21.333333333333332 122.0 L 20.666666666666668 121.0 L 20.0 120.33333333333333 L 19.0 120.0 L 18.333333333333332 120.33333333333333 L 18.0 121.0 L 18.333333333333332 122.0 L 18.666666666666668 123.0 L 19.0 123.5 Z" stroke="none" fill="rgb(193,193,193)" />
<path d="M 76.5 77.5 L 77.0 77.0 L 77.66666666666667 76.0 L 78.0 75.0 L 77.66666666666667 74.33333333333333 L 77.0 74.0 L 76.33333333333333 74.33333333333333 L 75.66666666666667 75.0 L 75.0 75.66666666666667 L 74.33333333333333 76.33333333333333 L 74.0 77.0 L 74.33333333333333 77.66666666666667 L 75.0 78.0 L 75.5 78.0 Z" stroke="none" fill="rgb(97,97,97)" />
<path d="M 25.0 122.5 L 25.0 122.0 L 25.0 121.0 L 24.666666666666668 120.0 L 24.0 119.33333333333333 L 23.0 119.0 L 22.333333333333332 119.33333333333333 L 22.0 120.0 L 22.0 121.0 L 22.333333333333332 122.0 L 23.0 122.66666666666667 L 24.0 123.0 L 24.5 123.0 Z" stroke="none" fill="rgb(224,224,224)" />
<path d="M 88.5 21.5 L 89.0 21.666666666666668 L 89.66666666666667 21.666666666666668 L 90.0 21.0 L 90.0 20.0 L 90.0 19.0 L 90.0 18.0 L 89.66666666666667 17.333333333333332 L 89.0 17.0 L 88.33333333333333 17.333333333333332 L 88.0 18.0 L 88.0 19.0 L 88.0 20.0 L 88.0 20.5 Z" stroke="none" fill="rgb(59,55,54)" />
<path d="M 69.5 8.0 L 70.0 8.0 L 71.0 8.0 L 72.0 7.666666666666667 L 72.66666666666667 7.0 L 72.66666666666667 6.333333333333333 L 72.0 6.0 L 71.0 6.333333333333333 L 70.0 6.666666666666667 L 69.0 7.0 L 68.33333333333333 7.333333333333333 L 68.33333333333333 7.666666666666667 L 68.5 8.0 Z" stroke="none" fill="rgb(0,0,0)" />
<path d="M 69.5 68.0 L 70.0 68.0 L 71.0 68.0 L 71.66666666666667 67.66666666666667 L 71.66666666666667 67.0 L 71.0 66.33333333333333 L 70.0 66.0 L 69.0 66.0 L 68.33333333333333 66.33333333333333 L 68.0 67.0 L 68.33333333333333 67.66666666666667 L 68.5 68.0 Z" stroke="none" fill="rgb(88,83,80)" />
<path d="M 68.5 66.0 L 69.0 66.0 L 70.0 66.0 L 70.66666666666667 65.66666666666667 L 71.0 65.0 L 70.66666666666667 64.33333333333333 L 70.0 64.0 L 69.0 64.0 L 68.33333333333333 64.33333333333333 L 68.0 65.0 L 68.0 65.5 Z" stroke="none" fill="rgb(240,122,36)" />
<path d="M 23.0 123.5 L 23.0 123.0 L 22.666666666666668 122.0 L 22.0 121.33333333333333 L 21.333333333333332 121.33333333333333 L 21.0 122.0 L 21.333333333333332 123.0 L 22.0 123.66666666666667 L 22.5 124.0 Z" stroke="none" fill="rgb(204,204,204)" />
<path d="M 76.0 75.5 L 76.0 75.0 L 75.66666666666667 74.33333333333333 L 75.0 74.0 L 74.33333333333333 74.33333333333333 L 74.0 75.0 L 74.33333333333333 75.66666666666667 L 75.0 76.0 L 75.5 76.0 Z" stroke="none" fill="rgb(124,124,124)" />
<path d="M 79.5 6.0 L 79.66666666666667 5.666666666666667 L 79.66666666666667 5.333333333333333 L 79.0 5.0 L 78.0 5.0 L 77.33333333333333 5.333333333333333 L 77.33333333333333 5.666666666666667 L 78.0 6.0 L 78.5 6.0 Z" stroke="none" fill="rgb(0,0,0)" />
<path d="M 88.0 26.5 L 88.0 26.0 L 87.66666666666667 25.333333333333332 L 87.0 25.333333333333332 L 86.33333333333333 26.0 L 86.33333333333333 26.666666666666668 L 87.0 27.0 L 87.5 27.0 Z" stroke="none" fill="rgb(67,63,62)" />
<path d="M 66.0 31.5 L 66.0 31.0 L 65.66666666666667 30.333333333333332 L 65.33333333333333 30.333333333333332 L 65.0 31.0 L 65.33333333333333 31.666666666666668 L 65.5 32.0 Z" stroke="none" fill="rgb(0,0,0)" />
<path d="M 68.0 68.5 L 68.0 68.0 L 67.66666666666667 67.33333333333333 L 67.33333333333333 67.33333333333333 L 67.0 68.0 L 67.33333333333333 68.66666666666667 L 67.5 69.0 Z" stroke="none" fill="rgb(0,0,0)" />
<path d="M 90.5 19.0 L 90.66666666666667 18.666666666666668 L 90.66666666666667 18.333333333333332 L 90.33333333333333 18.333333333333332 L 90.0 18.5 Z" stroke="none" fill="rgb(0,0,0)" />
<path d="M 90.0 24.5 L 89.66666666666667 24.333333333333332 L 89.33333333333333 24.333333333333332 L 89.33333333333333 24.666666666666668 L 89.5 25.0 Z" stroke="none" fill="rgb(0,0,0)" />
<path d="M 88.5 26.0 L 88.66666666666667 25.666666666666668 L 88.66666666666667 25.333333333333332 L 88.33333333333333 25.333333333333332 L 88.0 25.5 Z" stroke="none" fill="rgb(0,0,0)" />
<path d="M 84.5 37.0 L 84.66666666666667 36.666666666666664 L 84.66666666666667 36.333333333333336 L 84.33333333333333 36.333333333333336 L 84.0 36.5 Z" stroke="none" fill="rgb(0,0,0)" />
<path d="M 85.5 38.0 L 85.66666666666667 37.666666666666664 L 85.66666666666667 37.333333333333336 L 85.33333333333333 37.333333333333336 L 85.0 37.5 Z" stroke="none" fill="rgb(0,0,0)" />
<path d="M 71.5 41.0 L 71.66666666666667 40.666666666666664 L 71.66666666666667 40.333333333333336 L 71.33333333333333 40.333333333333336 L 71.0 40.5 Z" stroke="none" fill="rgb(0,0,0)" />
<path d="M 75.0 72.5 L 74.66666666666667 72.33333333333333 L 74.33333333333333 72.33333333333333 L 74.33333333333333 72.66666666666667 L 74.5 73.0 Z" stroke="none" fill="rgb(236,111,36)" />
<path d="M 88.5 76.0 L 88.66666666666667 75.66666666666667 L 88.66666666666667 75.33333333333333 L 88.33333333333333 75.33333333333333 L 88.0 75.5 Z" stroke="none" fill="rgb(0,0,0)" />
<path d="M 35.0 105.5 L 34.666666666666664 105.33333333333333 L 34.333333333333336 105.33333333333333 L 34.333333333333336 105.66666666666667 L 34.5 106.0 Z" stroke="none" fill="rgb(0,0,0)" />
<path d="M 23.5 124.0 L 23.666666666666668 123.66666666666667 L 23.666666666666668 123.33333333333333 L 23.333333333333332 123.33333333333333 L 23.0 123.5 Z" stroke="none" fill="rgb(0,0,0)" />
</svg>
