<?xml version="1.0" encoding="UTF-8" standalone="no"?>
<!DOCTYPE svg PUBLIC "-//W3C//DTD SVG 1.1//EN"
"http://www.w3.org/Graphics/SVG/1.1/DTD/svg11.dtd">
<svg width="128" height="128" xmlns="http://www.w3.org/2000/svg" version="1.1">
<path d="M 101.5 128.0 L 102.0 128.0 L 103.0 128.0 L 104.0 128.0 L 105.0 128.0 L 106.0 128.0 L 107.0 128.0 L 108.0 128.0 L 109.0 128.0 L 110.0 128.0 L 111.0 128.0 L 112.0 128.0 L 113.0 128.0 L 114.0 128.0 L 115.0 128.0 L 116.0 128.0 L 117.0 128.0 L 118.0 128.0 L 119.0 128.0 L 120.0 128.0 L 121.0 128.0 L 122.0 128.0 L 123.0 128.0 L 124.0 128.0 L 125.0 128.0 L 126.0 128.0 L 127.0 128.0 L 127.66666666666667 127.66666666666667 L 128.0 127.0 L 128.0 126.0 L 128.0 125.0 L 128.0 124.0 L 128.0 123.0 L 128.0 122.0 L 128.0 121.0 L 128.0 120.0 L 128.0 119.0 L 128.0 118.0 L 128.0 117.0 L 128.0 116.0 L 128.0 115.0 L 128.0 114.0 L 128.0 113.0 L 128.0 112.0 L 128.0 111.0 L 128.0 110.0 L 128.0 109.0 L 128.0 108.0 L 128.0 107.0 L 128.0 106.0 L 128.0 105.0 L 128.0 104.0 L 128.0 103.0 L 128.0 102.0 L 128.0 101.0 L 128.0 100.0 L 128.0 99.0 L 128.0 98.0 L 128.0 97.0 L 128.0 96.0 L 128.0 95.0 L 128.0 94.0 L 128.0 93.0 L 128.0 92.0 L 128.0 91.0 L 128.0 90.0 L 128.0 89.0 L 128.0 88.0 L 128.0 87.0 L 128.0 86.0 L 128.0 85.0 L 128.0 84.0 L 128.0 83.0 L 128.0 82.0 L 128.0 81.0 L 128.0 80.0 L 128.0 79.0 L 128.0 78.0 L 128.0 77.0 L 128.0 76.0 L 128.0 75.0 L 128.0 74.0 L 128.0 73.0 L 128.0 72.0 L 128.0 71.0 L 128.0 70.0 L 128.0 69.0 L 128.0 68.0 L 128.0 67.0 L 128.0 66.0 L 128.0 65.0 L 128.0 64.0 L 128.0 63.0 L 128.0 62.0 L 128.0 61.0 L 128.0 60.0 L 128.0 59.0 L 128.0 58.0 L 128.0 57.0 L 128.0 56.0 L 128.0 55.0 L 128.0 54.0 L 128.0 53.0 L 128.0 52.0 L 128.0 51.0 L 128.0 50.0 L 128.0 49.0 L 128.0 48.0 L 128.0 47.0 L 128.0 46.0 L 128.0 45.0 L 128.0 44.0 L 128.0 43.0 L 128.0 42.0 L 128.0 41.0 L 128.0 40.0 L 128.0 39.0 L 128.0 38.0 L 128.0 37.0 L 128.0 36.0 L 128.0 35.0 L 128.0 34.0 L 128.0 33.0 L 128.0 32.0 L 128.0 31.0 L 128.0 30.0 L 128.0 29.0 L 128.0 28.0 L 128.0 27.0 L 128.0 26.0 L 128.0 25.0 L 128.0 24.0 L 128.0 23.0 L 128.0 22.0 L 128.0 21.0 L 128.0 20.0 L 128.0 19.0 L 128.0 18.0 L 128.0 17.0 L 128.0 16.0 L 128.0 15.0 L 128.0 14.0 L 128.0 13.0 L 128.0 12.0 L 128.0 11.0 L 128.0 10.0 L 128.0 9.0 L 128.0 8.0 L 128.0 7.0 L 128.0 6.0 L 128.0 5.0 L 128.0 4.0 L 128.0 3.0 L 128.0 2.0 L 128.0 1.0 L 127.66666666666667 0.3333333333333333 L 127.0 0.0 L 126.0 0.0 L 125.0 0.0 L 124.0 0.0 L 123.0 0.0 L 122.0 0.0 L 121.0 0.0 L 120.0 0.0 L 119.0 0.0 L 118.0 0.0 L 117.0 0.0 L 116.0 0.0 L 115.0 0.0 L 114.0 0.0 L 113.0 0.0 L 112.0 0.0 L 111.0 0.0 L 110.0 0.0 L 109.0 0.0 L 108.0 0.0 L 107.0 0.0 L 106.0 0.0 L 105.0 0.0 L 104.0 0.0 L 103.0 0.0 L 102.0 0.0 L 101.0 0.0 L 100.0 0.0 L 99.0 0.0 L 98.0 0.0 L 97.0 0.0 L 96.0 0.0 L 95.0 0.0 L 94.0 0.0 L 93.0 0.0 L 92.0 0.0 L 91.0 0.0 L 90.0 0.0 L 89.0 0.0 L 88.0 0.0 L 87.0 0.0 L 86.0 0.0 L 85.0 0.0 L 84.0 0.0 L 83.0 0.0 L 82.0 0.0 L 81.0 0.0 L 80.0 0.0 L 79.0 0.0 L 78.0 0.0 L 77.0 0.0 L 76.0 0.0 L 75.0 0.0 L 74.0 0.0 L 73.0 0.0 L 72.0 0.0 L 71.0 0.0 L 70.0 0.0 L 69.0 0.0 L 68.0 0.0 L 67.0 0.0 L 66.0 0.0 L 65.0 0.0 L 64.0 0.0 L 63.0 0.0 L 62.0 0.0 L 61.0 0.0 L 60.0 0.0 L 59.0 0.0 L 58.0 0.0 L 57.0 0.0 L 56.0 0.0 L 55.0 0.0 L 54.0 0.0 L 53.0 0.0 L 52.0 0.0 L 51.0 0.0 L 50.0 0.0 L 49.0 0.0 L 48.0 0.0 L 47.0 0.0 L 46.0 0.0 L 45.0 0.0 L 44.0 0.0 L 43.0 0.0 L 42.0 0.0 L 41.0 0.0 L 40.0 0.0 L 39.0 0.0 L 38.0 0.0 L 37.0 0.0 L 36.0 0.0 L 35.0 0.0 L 34.0 0.0 L 33.0 0.0 L 32.0 0.0 L 31.0 0.0 L 30.0 0.0 L 29.0 0.0 L 28.0 0.0 L 27.0 0.0 L 26.0 0.0 L 25.0 0.0 L 24.0 0.0 L 23.0 0.0 L 22.0 0.0 L 21.0 0.0 L 20.0 0.0 L 19.0 0.0 L 18.0 0.0 L 17.0 0.0 L 16.0 0.0 L 15.0 0.0 L 14.0 0.0 L 13.0 0.0 L 12.0 0.0 L 11.0 0.0 L 10.0 0.0 L 9.0 0.0 L 8.0 0.0 L 7.0 0.0 L 6.0 0.0 L 5.0 0.0 L 4.0 0.0 L 3.0 0.0 L 2.0 0.0 L 1.0 0.0 L 0.3333333333333333 0.3333333333333333 L 0.0 1.0 L 0.0 2.0 L 0.0 3.0 L 0.0 4.0 L 0.0 5.0 L 0.0 6.0 L 0.0 7.0 L 0.0 8.0 L 0.0 9.0 L 0.0 10.0 L 0.0 11.0 L 0.0 12.0 L 0.0 13.0 L 0.0 14.0 L 0.0 15.0 L 0.0 16.0 L 0.0 17.0 L 0.0 18.0 L 0.0 19.0 L 0.0 20.0 L 0.0 21.0 L 0.0 22.0 L 0.0 23.0 L 0.0 24.0 L 0.0 25.0 L 0.0 26.0 L 0.0 27.0 L 0.0 28.0 L 0.0 29.0 L 0.0 30.0 L 0.0 31.0 L 0.0 32.0 L 0.0 33.0 L 0.0 34.0 L 0.0 35.0 L 0.0 36.0 L 0.0 37.0 L 0.0 38.0 L 0.0 39.0 L 0.0 40.0 L 0.0 41.0 L 0.0 42.0 L 0.0 43.0 L 0.0 44.0 L 0.0 45.0 L 0.0 46.0 L 0.0 47.0 L 0.0 48.0 L 0.0 49.0 L 0.0 50.0 L 0.0 51.0 L 0.0 52.0 L 0.0 53.0 L 0.0 54.0 L 0.0 55.0 L 0.0 56.0 L 0.0 57.0 L 0.0 58.0 L 0.0 59.0 L 0.0 60.0 L 0.0 61.0 L 0.0 62.0 L 0.0 63.0 L 0.0 64.0 L 0.0 65.0 L 0.0 66.0 L 0.0 67.0 L 0.0 68.0 L 0.0 69.0 L 0.0 70.0 L 0.0 71.0 L 0.0 72.0 L 0.0 73.0 L 0.0 74.0 L 0.0 75.0 L 0.0 76.0 L 0.0 77.0 L 0.0 78.0 L 0.0 79.0 L 0.0 80.0 L 0.0 81.0 L 0.0 82.0 L 0.0 83.0 L 0.0 84.0 L 0.0 85.0 L 0.0 86.0 L 0.0 87.0 L 0.0 88.0 L 0.0 89.0 L 0.0 90.0 L 0.0 91.0 L 0.0 92.0 L 0.0 93.0 L 0.0 94.0 L 0.0 95.0 L 0.0 96.0 L 0.0 97.0 L 0.0 98.0 L 0.0 99.0 L 0.0 100.0 L 0.0 101.0 L 0.0 102.0 L 0.0 103.0 L 0.0 104.0 L 0.0 105.0 L 0.0 106.0 L 0.0 107.0 L 0.0 108.0 L 0.0 109.0 L 0.0 110.0 L 0.0 111.0 L 0.0 112.0 L 0.0 113.0 L 0.0 114.0 L 0.0 115.0 L 0.0 116.0 L 0.0 117.0 L 0.0 118.0 L 0.0 119.0 L 0.0 120.0 L 0.0 121.0 L 0.0 122.0 L 0.0 123.0 L 0.0 124.0 L 0.0 125.0 L 0.0 126.0 L 0.0 127.0 L 0.3333333333333333 127.66666666666667 L 1.0 128.0 L 2.0 128.0 L 3.0 128.0 L 4.0 128.0 L 5.0 128.0 L 6.0 128.0 L 7.0 128.0 L 8.0 128.0 L 9.0 128.0 L 10.0 128.0 L 11.0 128.0 L 12.0 128.0 L 13.0 128.0 L 14.0 128.0 L 15.0 128.0 L 16.0 128.0 L 17.0 128.0 L 18.0 128.0 L 19.0 128.0 L 20.0 128.0 L 21.0 128.0 L 22.0 128.0 L 23.0 128.0 L 24.0 128.0 L 25.0 128.0 L 26.0 128.0 L 27.0 128.0 L 28.0 128.0 L 29.0 128.0 L 30.0 128.0 L 31.0 128.0 L 32.0 128.0 L 33.0 128.0 L 34.0 128.0 L 35.0 128.0 L 36.0 128.0 L 37.0 128.0 L 38.0 128.0 L 39.0 128.0 L 40.0 128.0 L 41.0 128.0 L 42.0 128.0 L 43.0 128.0 L 44.0 128.0 L 45.0 128.0 L 46.0 128.0 L 47.0 128.0 L 48.0 128.0 L 49.0 128.0 L 50.0 128.0 L 51.0 128.0 L 52.0 128.0 L 53.0 128.0 L 54.0 128.0 L 55.0 128.0 L 56.0 128.0 L 57.0 128.0 L 58.0 128.0 L 59.0 128.0 L 60.0 128.0 L 61.0 128.0 L 62.0 128.0 L 63.0 128.0 L 64.0 128.0 L 65.0 128.0 L 66.0 128.0 L 67.0 128.0 L 68.0 128.0 L 69.0 128.0 L 70.0 128.0 L 71.0 128.0 L 72.0 128.0 L 73.0 128.0 L 74.0 128.0 L 75.0 128.0 L 76.0 128.0 L 77.0 128.0 L 78.0 128.0 L 79.0 128.0 L 80.0 128.0 L 81.0 128.0 L 82.0 128.0 L 83.0 128.0 L 84.0 128.0 L 85.0 128.0 L 86.0 128.0 L 87.0 128.0 L 88.0 128.0 L 89.0 128.0 L 90.0 128.0 L 91.0 128.0 L 92.0 128.0 L 93.0 128.0 L 94.0 128.0 L 95.0 128.0 L 96.0 128.0 L 97.0 128.0 L 98.0 128.0 L 99.0 128.0 L 100.0 128.0 L 100.5 128.0 Z" stroke="none" fill="rgb(255,255,255)" />
<path d="M 88.5 123.0 L 89.0 123.33333333333333 L 90.0 123.66666666666667 L 91.0 124.0 L 92.0 124.0 L 93.0 124.0 L 94.0 124.0 L 95.0 124.0 L 96.0 124.0 L 97.0 124.0 L 98.0 124.0 L 99.0 124.0 L 100.0 124.0 L 101.0 124.0 L 102.0 123.66666666666667 L 103.0 123.33333333333333 L 104.0 123.0 L 105.0 122.66666666666667 L 106.0 122.0 L 107.0 121.33333333333333 L 108.0 120.66666666666667 L 109.0 120.0 L 110.0 119.0 L 111.0 118.0 L 111.66666666666667 117.0 L 112.33333333333333 116.0 L 113.0 115.0 L 113.66666666666667 114.0 L 114.0 113.0 L 114.33333333333333 112.0 L 114.66666666666667 111.0 L 115.33333333333333 110.0 L 115.66666666666667 109.0 L 116.0 108.0 L 116.0 107.0 L 116.0 106.0 L 116.0 105.0 L 116.0 104.0 L 116.0 103.0 L 116.0 102.0 L 115.66666666666667 101.0 L 115.33333333333333 100.0 L 115.0 99.0 L 114.66666666666667 98.0 L 114.0 97.0 L 113.0 96.0 L 112.0 95.0 L 111.0 94.33333333333333 L 110.0 93.66666666666667 L 109.0 93.33333333333333 L 108.0 93.0 L 107.0 93.0 L 106.0 93.0 L 105.0 93.0 L 104.0 93.0 L 103.0 92.66666666666667 L 102.66666666666667 92.0 L 102.66666666666667 91.0 L 103.0 90.0 L 103.33333333333333 89.0 L 103.66666666666667 88.0 L 104.0 87.0 L 104.0 86.0 L 104.0 85.0 L 104.0 84.0 L 104.0 83.0 L 104.0 82.0 L 104.0 81.0 L 104.0 80.0 L 104.0 79.0 L 104.0 78.0 L 104.0 77.0 L 104.0 76.0 L 103.66666666666667 75.0 L 103.33333333333333 74.0 L 103.0 73.0 L 103.0 72.0 L 102.66666666666667 71.0 L 102.33333333333333 70.0 L 101.66666666666667 69.0 L 101.33333333333333 68.0 L 100.66666666666667 67.0 L 100.33333333333333 66.0 L 99.66666666666667 65.0 L 99.0 64.0 L 98.0 63.0 L 97.0 62.0 L 96.0 61.0 L 95.0 60.0 L 94.0 59.0 L 93.0 58.333333333333336 L 92.0 57.666666666666664 L 91.0 57.333333333333336 L 90.0 56.666666666666664 L 89.66666666666667 56.0 L 90.0 55.0 L 91.0 54.0 L 92.0 53.0 L 93.0 52.0 L 93.66666666666667 51.0 L 94.33333333333333 50.0 L 94.66666666666667 49.0 L 95.0 48.0 L 95.33333333333333 47.0 L 95.66666666666667 46.0 L 96.0 45.0 L 96.0 44.0 L 96.0 43.0 L 96.0 42.0 L 96.0 41.0 L 96.0 40.0 L 96.0 39.0 L 96.0 38.0 L 96.0 37.0 L 96.0 36.0 L 96.0 35.0 L 96.0 34.0 L 96.0 33.0 L 96.0 32.0 L 96.33333333333333 31.0 L 97.0 30.0 L 97.66666666666667 29.0 L 98.33333333333333 28.0 L 99.0 27.0 L 99.66666666666667 26.0 L 100.0 25.0 L 100.33333333333333 24.0 L 100.66666666666667 23.0 L 101.0 22.0 L 101.0 21.0 L 101.0 20.0 L 101.0 19.0 L 100.66666666666667 18.0 L 100.33333333333333 17.0 L 100.0 16.0 L 99.66666666666667 15.0 L 99.33333333333333 14.0 L 98.66666666666667 13.0 L 98.0 12.0 L 97.0 11.0 L 96.0 10.333333333333334 L 95.0 9.666666666666666 L 94.0 9.333333333333334 L 93.0 9.0 L 92.0 9.0 L 91.0 9.0 L 90.0 9.0 L 89.0 9.0 L 88.0 9.0 L 87.0 9.0 L 86.0 9.0 L 85.0 9.333333333333334 L 84.0 9.666666666666666 L 83.0 10.333333333333334 L 82.0 10.333333333333334 L 81.0 10.333333333333334 L 80.0 9.666666666666666 L 79.0 9.333333333333334 L 78.0 9.0 L 77.0 8.666666666666666 L 76.0 8.333333333333334 L 75.0 8.0 L 74.0 8.0 L 73.0 8.0 L 72.0 7.666666666666667 L 71.0 7.333333333333333 L 70.0 7.0 L 69.0 7.0 L 68.0 7.0 L 67.0 7.0 L 66.0 7.0 L 65.0 7.0 L 64.0 7.0 L 63.0 7.0 L 62.0 7.0 L 61.0 7.333333333333333 L 60.0 7.666666666666667 L 59.0 8.0 L 58.0 7.666666666666667 L 57.0 7.0 L 56.0 6.0 L 55.0 5.333333333333333 L 54.0 4.666666666666667 L 53.0 4.333333333333333 L 52.0 4.0 L 51.0 4.0 L 50.0 4.0 L 49.0 4.0 L 48.0 4.0 L 47.0 4.0 L 46.0 4.0 L 45.0 4.0 L 44.0 4.0 L 43.0 4.333333333333333 L 42.0 4.666666666666667 L 41.0 5.333333333333333 L 40.0 6.0 L 39.0 7.0 L 38.333333333333336 8.0 L 37.666666666666664 9.0 L 37.333333333333336 10.0 L 36.666666666666664 11.0 L 36.333333333333336 12.0 L 36.0 13.0 L 36.0 14.0 L 36.0 15.0 L 36.0 16.0 L 36.0 17.0 L 36.333333333333336 18.0 L 36.666666666666664 19.0 L 37.333333333333336 20.0 L 37.666666666666664 21.0 L 38.333333333333336 22.0 L 38.666666666666664 23.0 L 39.333333333333336 24.0 L 39.666666666666664 25.0 L 39.666666666666664 26.0 L 39.333333333333336 27.0 L 39.0 28.0 L 38.666666666666664 29.0 L 38.333333333333336 30.0 L 38.0 31.0 L 37.666666666666664 32.0 L 37.333333333333336 33.0 L 37.0 34.0 L 37.0 35.0 L 36.666666666666664 36.0 L 36.333333333333336 37.0 L 36.0 38.0 L 36.0 39.0 L 36.0 40.0 L 36.333333333333336 41.0 L 36.666666666666664 42.0 L 37.0 43.0 L 37.0 44.0 L 37.0 45.0 L 37.333333333333336 46.0 L 37.666666666666664 47.0 L 38.333333333333336 48.0 L 39.0 49.0 L 39.666666666666664 50.0 L 40.333333333333336 51.0 L 41.0 52.0 L 41.666666666666664 53.0 L 41.666666666666664 54.0 L 41.0 54.666666666666664 L 40.0 55.333333333333336 L 39.0 55.666666666666664 L 38.0 56.333333333333336 L 37.0 57.0 L 36.0 58.0 L 35.0 59.0 L 34.0 60.0 L 33.0 61.0 L 32.0 62.0 L 31.0 63.0 L 30.0 64.0 L 29.333333333333332 65.0 L 28.666666666666668 66.0 L 28.0 67.0 L 27.333333333333332 68.0 L 26.666666666666668 69.0 L 26.333333333333332 70.0 L 25.666666666666668 71.0 L 25.333333333333332 72.0 L 25.0 73.0 L 24.666666666666668 74.0 L 24.333333333333332 75.0 L 24.0 76.0 L 24.0 77.0 L 24.0 78.0 L 23.666666666666668 79.0 L 23.333333333333332 80.0 L 23.0 81.0 L 23.0 82.0 L 23.0 83.0 L 23.0 84.0 L 23.0 85.0 L 23.0 86.0 L 23.0 87.0 L 23.333333333333332 88.0 L 23.666666666666668 89.0 L 24.0 90.0 L 24.0 91.0 L 24.333333333333332 91.66666666666667 L 25.0 92.0 L 26.0 92.33333333333333 L 26.333333333333332 93.0 L 26.0 93.66666666666667 L 25.0 94.0 L 24.0 94.0 L 23.0 94.0 L 22.0 94.0 L 21.0 94.0 L 20.0 94.0 L 19.0 94.0 L 18.0 94.0 L 17.0 94.33333333333333 L 16.0 95.0 L 15.0 96.0 L 14.333333333333334 97.0 L 13.666666666666666 98.0 L 13.333333333333334 99.0 L 12.666666666666666 100.0 L 12.333333333333334 101.0 L 12.0 102.0 L 12.0 103.0 L 12.0 104.0 L 12.0 105.0 L 12.0 106.0 L 12.0 107.0 L 12.0 108.0 L 12.333333333333334 109.0 L 12.666666666666666 110.0 L 13.0 111.0 L 13.333333333333334 112.0 L 13.666666666666666 113.0 L 14.333333333333334 114.0 L 14.666666666666666 115.0 L 15.333333333333334 116.0 L 16.0 117.0 L 17.0 118.0 L 18.0 119.0 L 19.0 120.0 L 20.0 121.0 L 21.0 121.66666666666667 L 22.0 122.33333333333333 L 23.0 122.66666666666667 L 24.0 123.33333333333333 L 25.0 123.66666666666667 L 26.0 124.0 L 27.0 124.0 L 28.0 124.0 L 29.0 124.33333333333333 L 30.0 124.66666666666667 L 31.0 125.0 L 32.0 124.66666666666667 L 33.0 124.33333333333333 L 34.0 124.0 L 35.0 124.0 L 36.0 123.66666666666667 L 37.0 123.33333333333333 L 38.0 123.0 L 39.0 122.66666666666667 L 40.0 122.0 L 41.0 121.33333333333333 L 42.0 120.66666666666667 L 43.0 120.33333333333333 L 44.0 119.66666666666667 L 45.0 119.0 L 46.0 118.0 L 47.0 117.0 L 48.0 116.33333333333333 L 49.0 115.66666666666667 L 50.0 115.0 L 51.0 114.0 L 52.0 113.33333333333333 L 53.0 112.66666666666667 L 54.0 112.0 L 55.0 111.33333333333333 L 56.0 110.66666666666667 L 57.0 110.33333333333333 L 58.0 110.33333333333333 L 59.0 110.66666666666667 L 60.0 111.0 L 61.0 111.0 L 62.0 111.0 L 63.0 111.0 L 64.0 111.0 L 65.0 111.0 L 66.0 111.0 L 67.0 111.0 L 68.0 111.0 L 69.0 111.0 L 70.0 111.0 L 71.0 111.0 L 72.0 111.33333333333333 L 73.0 112.0 L 74.0 113.0 L 75.0 114.0 L 76.0 115.0 L 77.0 116.0 L 78.0 116.66666666666667 L 79.0 117.33333333333333 L 80.0 118.0 L 81.0 119.0 L 82.0 119.66666666666667 L 83.0 120.33333333333333 L 84.0 121.0 L 85.0 121.66666666666667 L 86.0 122.33333333333333 L 87.0 122.66666666666667 L 87.5 123.0 Z" stroke="none" fill="rgb(166,95,62)" />
<path d="M 59.5 76.5 L 60.0 76.0 L 61.0 75.0 L 62.0 74.66666666666667 L 62.666666666666664 75.0 L 63.0 76.0 L 63.333333333333336 77.0 L 63.666666666666664 78.0 L 64.0 79.0 L 64.0 80.0 L 64.0 81.0 L 64.33333333333333 82.0 L 65.0 83.0 L 66.0 83.66666666666667 L 67.0 84.0 L 68.0 84.0 L 69.0 84.0 L 70.0 84.0 L 71.0 84.0 L 72.0 83.66666666666667 L 73.0 83.33333333333333 L 74.0 82.66666666666667 L 75.0 82.33333333333333 L 76.0 81.66666666666667 L 77.0 81.0 L 78.0 80.0 L 79.0 79.0 L 79.66666666666667 78.0 L 80.0 77.0 L 80.0 76.0 L 80.0 75.0 L 80.0 74.0 L 79.66666666666667 73.0 L 79.33333333333333 72.0 L 78.66666666666667 71.0 L 78.0 70.0 L 77.0 69.0 L 76.0 68.0 L 75.0 67.0 L 74.66666666666667 66.0 L 75.0 65.0 L 76.0 64.33333333333333 L 77.0 63.666666666666664 L 77.66666666666667 63.0 L 78.0 62.0 L 78.0 61.0 L 77.66666666666667 60.333333333333336 L 77.0 60.0 L 76.0 60.0 L 75.0 60.0 L 74.0 60.0 L 73.0 60.0 L 72.0 60.0 L 71.0 60.0 L 70.0 60.0 L 69.0 60.0 L 68.0 60.0 L 67.0 60.0 L 66.0 60.0 L 65.0 60.0 L 64.0 60.0 L 63.0 60.0 L 62.0 59.666666666666664 L 61.0 59.333333333333336 L 60.0 59.0 L 59.0 59.0 L 58.0 59.0 L 57.0 59.0 L 56.0 59.0 L 55.0 59.0 L 54.0 59.0 L 53.333333333333336 59.333333333333336 L 53.0 60.0 L 53.0 61.0 L 52.666666666666664 62.0 L 52.0 63.0 L 51.0 63.666666666666664 L 50.0 64.0 L 49.0 64.0 L 48.0 64.33333333333333 L 47.0 64.66666666666667 L 46.0 65.33333333333333 L 45.333333333333336 66.0 L 45.0 67.0 L 45.0 68.0 L 45.0 69.0 L 45.0 70.0 L 45.0 71.0 L 45.333333333333336 72.0 L 45.666666666666664 73.0 L 46.333333333333336 74.0 L 46.666666666666664 75.0 L 47.333333333333336 76.0 L 48.0 77.0 L 49.0 78.0 L 50.0 78.66666666666667 L 51.0 79.33333333333333 L 52.0 79.66666666666667 L 53.0 80.0 L 54.0 80.0 L 54.666666666666664 79.66666666666667 L 55.333333333333336 79.0 L 56.0 78.0 L 57.0 77.33333333333333 L 58.0 77.0 L 58.5 77.0 Z" stroke="none" fill="rgb(255,202,40)" />
<path d="M 53.5 50.5 L 54.0 51.0 L 55.0 52.0 L 56.0 53.0 L 57.0 54.0 L 58.0 55.0 L 59.0 55.666666666666664 L 60.0 56.0 L 61.0 56.0 L 62.0 56.333333333333336 L 63.0 56.666666666666664 L 64.0 57.0 L 65.0 57.0 L 66.0 57.0 L 67.0 57.0 L 68.0 57.0 L 69.0 57.0 L 70.0 57.0 L 71.0 56.666666666666664 L 72.0 56.0 L 73.0 55.0 L 74.0 54.0 L 75.0 53.0 L 76.0 52.0 L 76.66666666666667 51.0 L 77.0 50.0 L 77.0 49.0 L 77.0 48.0 L 77.0 47.0 L 77.0 46.0 L 76.66666666666667 45.0 L 76.33333333333333 44.0 L 76.0 43.0 L 75.66666666666667 42.0 L 75.33333333333333 41.0 L 75.0 40.0 L 74.66666666666667 39.0 L 74.0 38.0 L 73.33333333333333 37.0 L 72.66666666666667 36.0 L 72.33333333333333 35.0 L 71.66666666666667 34.0 L 71.0 33.0 L 70.0 32.0 L 69.0 31.333333333333332 L 68.0 31.0 L 67.0 31.0 L 66.0 31.0 L 65.0 31.0 L 64.0 31.333333333333332 L 63.0 32.0 L 62.0 33.0 L 61.0 34.0 L 60.0 35.0 L 59.0 36.0 L 58.0 37.0 L 57.0 38.0 L 56.0 39.0 L 55.0 40.0 L 54.333333333333336 41.0 L 54.0 42.0 L 54.0 43.0 L 53.666666666666664 44.0 L 53.333333333333336 45.0 L 53.0 46.0 L 53.0 47.0 L 53.0 48.0 L 53.0 49.0 L 53.0 49.5 Z" stroke="none" fill="rgb(219,133,79)" />
<path d="M 95.0 100.5 L 95.33333333333333 100.0 L 96.0 99.0 L 96.66666666666667 98.0 L 97.0 97.0 L 97.0 96.0 L 96.66666666666667 95.33333333333333 L 96.0 95.33333333333333 L 95.0 95.66666666666667 L 94.0 96.33333333333333 L 93.0 97.0 L 92.0 98.0 L 91.0 99.0 L 90.0 100.0 L 89.0 101.0 L 88.0 101.66666666666667 L 87.0 102.0 L 86.0 102.0 L 85.0 102.0 L 84.0 101.66666666666667 L 83.0 101.0 L 82.0 100.0 L 81.33333333333333 99.0 L 80.66666666666667 98.0 L 80.33333333333333 97.0 L 80.0 96.0 L 80.33333333333333 95.0 L 80.66666666666667 94.0 L 81.0 93.0 L 81.0 92.0 L 81.33333333333333 91.0 L 81.66666666666667 90.0 L 82.0 89.0 L 82.33333333333333 88.0 L 82.66666666666667 87.0 L 83.33333333333333 86.0 L 83.66666666666667 85.0 L 84.33333333333333 84.0 L 84.66666666666667 83.0 L 85.33333333333333 82.0 L 85.66666666666667 81.0 L 86.0 80.0 L 86.0 79.0 L 86.0 78.0 L 86.0 77.0 L 86.0 76.0 L 86.0 75.0 L 86.0 74.0 L 86.0 73.0 L 86.0 72.0 L 86.0 71.0 L 86.0 70.0 L 85.66666666666667 69.0 L 85.33333333333333 68.0 L 84.66666666666667 67.33333333333333 L 84.0 67.0 L 83.33333333333333 67.33333333333333 L 83.0 68.0 L 83.0 69.0 L 83.0 70.0 L 83.0 71.0 L 83.0 72.0 L 83.0 73.0 L 83.0 74.0 L 83.0 75.0 L 83.0 76.0 L 83.0 77.0 L 82.66666666666667 78.0 L 82.33333333333333 79.0 L 82.0 80.0 L 81.66666666666667 81.0 L 81.33333333333333 82.0 L 80.66666666666667 83.0 L 80.33333333333333 84.0 L 79.66666666666667 85.0 L 79.33333333333333 86.0 L 78.66666666666667 87.0 L 78.33333333333333 88.0 L 78.0 89.0 L 78.0 90.0 L 77.66666666666667 91.0 L 77.33333333333333 92.0 L 77.0 93.0 L 77.0 94.0 L 77.0 95.0 L 77.0 96.0 L 77.0 97.0 L 77.0 98.0 L 77.0 99.0 L 77.33333333333333 100.0 L 77.66666666666667 101.0 L 78.33333333333333 102.0 L 79.0 103.0 L 80.0 104.0 L 81.0 104.66666666666667 L 82.0 105.0 L 83.0 105.0 L 84.0 105.0 L 85.0 105.0 L 86.0 105.0 L 87.0 105.33333333333333 L 87.66666666666667 106.0 L 88.33333333333333 107.0 L 89.0 107.66666666666667 L 90.0 108.0 L 91.0 108.0 L 91.66666666666667 107.66666666666667 L 92.33333333333333 107.0 L 92.66666666666667 106.0 L 93.0 105.0 L 93.33333333333333 104.0 L 93.66666666666667 103.0 L 94.33333333333333 102.0 L 94.5 101.5 Z" stroke="none" fill="rgb(112,59,38)" />
<path d="M 36.5 107.5 L 37.0 107.66666666666667 L 38.0 107.66666666666667 L 38.666666666666664 107.0 L 39.0 106.0 L 39.0 105.0 L 39.333333333333336 104.0 L 40.0 103.0 L 41.0 102.0 L 42.0 101.0 L 43.0 100.0 L 44.0 99.0 L 45.0 98.0 L 45.666666666666664 97.0 L 46.333333333333336 96.0 L 46.666666666666664 95.0 L 47.0 94.0 L 47.0 93.0 L 47.0 92.0 L 47.0 91.0 L 47.0 90.0 L 47.0 89.0 L 47.0 88.0 L 47.0 87.0 L 47.0 86.0 L 47.0 85.0 L 46.666666666666664 84.0 L 46.333333333333336 83.0 L 46.0 82.0 L 46.0 81.0 L 46.0 80.0 L 46.0 79.0 L 46.0 78.0 L 46.333333333333336 77.0 L 46.666666666666664 76.0 L 47.0 75.0 L 46.666666666666664 74.0 L 46.333333333333336 73.0 L 45.666666666666664 72.0 L 45.0 71.33333333333333 L 44.0 71.33333333333333 L 43.333333333333336 72.0 L 43.0 73.0 L 43.0 74.0 L 43.0 75.0 L 43.0 76.0 L 43.0 77.0 L 43.0 78.0 L 43.0 79.0 L 43.0 80.0 L 43.0 81.0 L 43.0 82.0 L 43.0 83.0 L 43.0 84.0 L 43.0 85.0 L 43.0 86.0 L 43.0 87.0 L 43.0 88.0 L 43.333333333333336 89.0 L 43.666666666666664 90.0 L 44.0 91.0 L 43.666666666666664 92.0 L 43.333333333333336 93.0 L 42.666666666666664 94.0 L 42.0 95.0 L 41.0 96.0 L 40.0 97.0 L 39.0 98.0 L 38.0 98.66666666666667 L 37.0 99.0 L 36.0 98.66666666666667 L 35.0 98.0 L 34.0 97.0 L 33.0 96.0 L 32.0 95.0 L 31.0 94.33333333333333 L 30.0 93.66666666666667 L 29.0 93.33333333333333 L 28.0 92.66666666666667 L 27.0 92.33333333333333 L 26.0 92.0 L 25.0 92.0 L 24.0 92.0 L 23.0 92.0 L 22.333333333333332 92.33333333333333 L 22.0 93.0 L 22.333333333333332 93.66666666666667 L 23.0 94.0 L 24.0 94.0 L 25.0 94.33333333333333 L 26.0 95.0 L 27.0 95.66666666666667 L 28.0 96.33333333333333 L 29.0 97.0 L 30.0 98.0 L 31.0 99.0 L 32.0 100.0 L 33.0 101.0 L 33.666666666666664 102.0 L 34.333333333333336 103.0 L 34.666666666666664 104.0 L 35.0 105.0 L 35.333333333333336 106.0 L 35.5 106.5 Z" stroke="none" fill="rgb(112,59,38)" />
<path d="M 107.5 116.5 L 108.0 116.0 L 109.0 115.0 L 109.66666666666667 114.0 L 110.33333333333333 113.0 L 110.66666666666667 112.0 L 111.33333333333333 111.0 L 111.66666666666667 110.0 L 112.0 109.0 L 112.0 108.0 L 112.0 107.0 L 112.0 106.0 L 111.66666666666667 105.0 L 111.33333333333333 104.0 L 110.66666666666667 103.0 L 110.0 102.0 L 109.0 101.33333333333333 L 108.0 101.0 L 107.0 101.0 L 106.0 101.0 L 105.0 101.0 L 104.0 101.33333333333333 L 103.0 101.66666666666667 L 102.0 102.33333333333333 L 101.0 102.66666666666667 L 100.0 103.33333333333333 L 99.0 104.0 L 98.33333333333333 105.0 L 98.0 106.0 L 97.66666666666667 107.0 L 97.33333333333333 108.0 L 97.0 109.0 L 97.0 110.0 L 96.66666666666667 111.0 L 96.33333333333333 112.0 L 96.0 113.0 L 96.0 114.0 L 96.0 115.0 L 96.0 116.0 L 96.0 117.0 L 96.33333333333333 118.0 L 97.0 119.0 L 98.0 119.66666666666667 L 99.0 120.0 L 100.0 120.0 L 101.0 120.0 L 102.0 120.0 L 103.0 119.66666666666667 L 104.0 119.33333333333333 L 105.0 118.66666666666667 L 106.0 118.0 L 106.5 117.5 Z" stroke="none" fill="rgb(219,133,79)" />
<path d="M 24.5 119.0 L 25.0 119.0 L 26.0 119.0 L 27.0 119.0 L 28.0 119.0 L 29.0 119.0 L 30.0 119.0 L 31.0 118.66666666666667 L 31.666666666666668 118.0 L 32.0 117.0 L 32.0 116.0 L 32.0 115.0 L 32.0 114.0 L 32.0 113.0 L 32.0 112.0 L 31.666666666666668 111.0 L 31.333333333333332 110.0 L 31.0 109.0 L 31.0 108.0 L 30.666666666666668 107.0 L 30.333333333333332 106.0 L 29.666666666666668 105.0 L 29.0 104.0 L 28.0 103.0 L 27.0 102.33333333333333 L 26.0 101.66666666666667 L 25.0 101.33333333333333 L 24.0 101.0 L 23.0 101.0 L 22.0 101.0 L 21.0 101.0 L 20.0 101.33333333333333 L 19.0 101.66666666666667 L 18.0 102.33333333333333 L 17.333333333333332 103.0 L 17.0 104.0 L 16.666666666666668 105.0 L 16.333333333333332 106.0 L 16.0 107.0 L 16.0 108.0 L 16.0 109.0 L 16.333333333333332 110.0 L 16.666666666666668 111.0 L 17.333333333333332 112.0 L 18.0 113.0 L 18.666666666666668 114.0 L 19.333333333333332 115.0 L 20.0 116.0 L 21.0 117.0 L 22.0 117.66666666666667 L 23.0 118.33333333333333 L 23.5 118.5 Z" stroke="none" fill="rgb(219,133,79)" />
<path d="M 69.5 53.0 L 70.0 53.0 L 71.0 52.666666666666664 L 72.0 52.0 L 72.66666666666667 51.0 L 73.0 50.0 L 73.0 49.0 L 72.66666666666667 48.0 L 72.0 47.0 L 71.33333333333333 46.0 L 71.0 45.0 L 71.0 44.0 L 71.0 43.0 L 71.0 42.0 L 70.66666666666667 41.0 L 70.0 40.0 L 69.0 39.333333333333336 L 68.0 39.0 L 67.0 39.0 L 66.0 39.0 L 65.0 39.0 L 64.0 39.0 L 63.0 39.0 L 62.0 39.333333333333336 L 61.0 40.0 L 60.333333333333336 41.0 L 60.0 42.0 L 60.0 43.0 L 60.0 44.0 L 60.333333333333336 45.0 L 61.0 46.0 L 62.0 47.0 L 63.0 47.666666666666664 L 64.0 48.0 L 65.0 48.0 L 66.0 48.0 L 67.0 48.0 L 68.0 48.333333333333336 L 68.33333333333333 49.0 L 68.0 50.0 L 67.0 50.666666666666664 L 66.0 51.0 L 65.0 50.666666666666664 L 64.0 50.333333333333336 L 63.0 50.0 L 62.0 49.666666666666664 L 61.0 49.0 L 60.0 48.0 L 59.0 47.333333333333336 L 58.0 47.0 L 57.333333333333336 47.333333333333336 L 57.0 48.0 L 57.333333333333336 49.0 L 58.0 50.0 L 59.0 51.0 L 60.0 52.0 L 61.0 52.666666666666664 L 62.0 53.0 L 63.0 53.0 L 64.0 53.0 L 65.0 53.0 L 66.0 53.0 L 67.0 53.0 L 68.0 53.0 L 68.5 53.0 Z" stroke="none" fill="rgb(99,60,36)" />
<path d="M 94.5 25.5 L 94.66666666666667 25.0 L 95.0 24.0 L 95.0 23.0 L 95.0 22.0 L 95.0 21.0 L 95.0 20.0 L 94.66666666666667 19.0 L 94.0 18.0 L 93.0 17.0 L 92.0 16.333333333333332 L 91.0 16.0 L 90.0 16.0 L 89.0 16.0 L 88.0 16.333333333333332 L 87.33333333333333 17.0 L 87.0 18.0 L 87.0 19.0 L 87.33333333333333 20.0 L 88.0 21.0 L 88.66666666666667 22.0 L 89.33333333333333 23.0 L 89.66666666666667 24.0 L 90.33333333333333 25.0 L 90.66666666666667 26.0 L 91.33333333333333 26.666666666666668 L 92.0 27.0 L 93.0 26.666666666666668 L 93.5 26.5 Z" stroke="none" fill="rgb(135,77,54)" />
<path d="M 53.5 36.0 L 54.0 36.0 L 55.0 35.666666666666664 L 56.0 35.0 L 56.666666666666664 34.0 L 57.0 33.0 L 57.0 32.0 L 57.0 31.0 L 57.0 30.0 L 56.666666666666664 29.0 L 56.0 28.0 L 55.0 27.333333333333332 L 54.0 27.0 L 53.0 27.0 L 52.0 27.0 L 51.0 27.333333333333332 L 50.0 28.0 L 49.333333333333336 29.0 L 49.0 30.0 L 49.0 31.0 L 49.0 32.0 L 49.0 33.0 L 49.333333333333336 34.0 L 50.0 35.0 L 51.0 35.666666666666664 L 52.0 36.0 L 52.5 36.0 Z" stroke="none" fill="rgb(75,43,28)" />
<path d="M 46.5 18.5 L 47.0 18.0 L 48.0 17.0 L 49.0 16.0 L 50.0 15.0 L 50.666666666666664 14.0 L 51.0 13.0 L 50.666666666666664 12.0 L 50.0 11.333333333333334 L 49.0 11.0 L 48.0 11.0 L 47.0 11.0 L 46.0 11.0 L 45.0 11.0 L 44.0 11.333333333333334 L 43.0 12.0 L 42.333333333333336 13.0 L 42.0 14.0 L 42.0 15.0 L 42.0 16.0 L 42.0 17.0 L 42.0 18.0 L 42.0 19.0 L 42.333333333333336 20.0 L 43.0 20.666666666666668 L 44.0 20.666666666666668 L 45.0 20.0 L 45.5 19.5 Z" stroke="none" fill="rgb(135,77,54)" />
<path d="M 79.5 40.0 L 80.0 40.0 L 81.0 40.0 L 82.0 39.666666666666664 L 83.0 39.0 L 83.66666666666667 38.0 L 84.0 37.0 L 84.0 36.0 L 84.0 35.0 L 84.0 34.0 L 84.0 33.0 L 83.66666666666667 32.0 L 83.0 31.0 L 82.0 30.333333333333332 L 81.0 30.0 L 80.0 30.333333333333332 L 79.0 30.666666666666668 L 78.0 31.333333333333332 L 77.33333333333333 32.0 L 77.0 33.0 L 77.0 34.0 L 77.0 35.0 L 77.0 36.0 L 77.0 37.0 L 77.33333333333333 38.0 L 78.0 39.0 L 78.5 39.5 Z" stroke="none" fill="rgb(75,43,28)" />
<path d="M 57.5 78.5 L 57.666666666666664 78.0 L 58.0 77.0 L 57.666666666666664 76.33333333333333 L 57.0 76.33333333333333 L 56.0 77.0 L 55.333333333333336 78.0 L 55.0 79.0 L 55.333333333333336 79.66666666666667 L 56.0 79.66666666666667 L 56.5 79.5 Z" stroke="none" fill="rgb(112,59,38)" />
<path d="M 20.5 94.0 L 21.0 94.0 L 21.666666666666668 93.66666666666667 L 21.666666666666668 93.33333333333333 L 21.0 93.0 L 20.0 93.0 L 19.333333333333332 93.33333333333333 L 19.333333333333332 93.66666666666667 L 19.5 94.0 Z" stroke="none" fill="rgb(0,0,0)" />
</svg>
