<?xml version="1.0" encoding="UTF-8" standalone="no"?>
<!DOCTYPE svg PUBLIC "-//W3C//DTD SVG 1.1//EN"
"http://www.w3.org/Graphics/SVG/1.1/DTD/svg11.dtd">
<svg width="128" height="128" xmlns="http://www.w3.org/2000/svg" version="1.1">
<path d="M 26.5 128.0 L 27.0 128.0 L 28.0 128.0 L 29.0 128.0 L 30.0 128.0 L 31.0 128.0 L 32.0 128.0 L 33.0 128.0 L 34.0 128.0 L 35.0 128.0 L 36.0 128.0 L 37.0 128.0 L 38.0 128.0 L 39.0 128.0 L 40.0 128.0 L 41.0 128.0 L 42.0 128.0 L 43.0 128.0 L 44.0 128.0 L 45.0 128.0 L 46.0 128.0 L 47.0 128.0 L 48.0 128.0 L 49.0 128.0 L 50.0 128.0 L 51.0 128.0 L 52.0 128.0 L 53.0 128.0 L 54.0 128.0 L 55.0 128.0 L 56.0 128.0 L 57.0 128.0 L 58.0 128.0 L 59.0 128.0 L 60.0 128.0 L 61.0 128.0 L 62.0 128.0 L 63.0 128.0 L 64.0 128.0 L 65.0 128.0 L 66.0 128.0 L 67.0 128.0 L 68.0 128.0 L 69.0 128.0 L 70.0 128.0 L 71.0 128.0 L 72.0 128.0 L 73.0 128.0 L 74.0 128.0 L 75.0 128.0 L 76.0 128.0 L 77.0 128.0 L 78.0 128.0 L 79.0 128.0 L 80.0 128.0 L 81.0 128.0 L 82.0 128.0 L 83.0 128.0 L 84.0 128.0 L 85.0 128.0 L 86.0 128.0 L 87.0 128.0 L 88.0 128.0 L 89.0 128.0 L 90.0 128.0 L 91.0 128.0 L 92.0 128.0 L 93.0 128.0 L 94.0 128.0 L 95.0 128.0 L 96.0 128.0 L 97.0 128.0 L 98.0 128.0 L 99.0 128.0 L 100.0 128.0 L 101.0 128.0 L 102.0 128.0 L 103.0 128.0 L 104.0 128.0 L 105.0 128.0 L 106.0 128.0 L 107.0 128.0 L 108.0 128.0 L 109.0 128.0 L 110.0 128.0 L 111.0 128.0 L 112.0 128.0 L 113.0 128.0 L 114.0 128.0 L 115.0 128.0 L 116.0 128.0 L 117.0 128.0 L 118.0 128.0 L 119.0 128.0 L 120.0 128.0 L 121.0 128.0 L 122.0 128.0 L 123.0 128.0 L 124.0 128.0 L 125.0 128.0 L 126.0 128.0 L 127.0 128.0 L 127.66666666666667 127.66666666666667 L 128.0 127.0 L 128.0 126.0 L 128.0 125.0 L 128.0 124.0 L 128.0 123.0 L 128.0 122.0 L 128.0 121.0 L 128.0 120.0 L 128.0 119.0 L 128.0 118.0 L 128.0 117.0 L 128.0 116.0 L 128.0 115.0 L 128.0 114.0 L 128.0 113.0 L 128.0 112.0 L 128.0 111.0 L 128.0 110.0 L 128.0 109.0 L 128.0 108.0 L 128.0 107.0 L 128.0 106.0 L 128.0 105.0 L 128.0 104.0 L 128.0 103.0 L 128.0 102.0 L 128.0 101.0 L 128.0 100.0 L 128.0 99.0 L 128.0 98.0 L 128.0 97.0 L 128.0 96.0 L 128.0 95.0 L 128.0 94.0 L 128.0 93.0 L 128.0 92.0 L 128.0 91.0 L 128.0 90.0 L 128.0 89.0 L 128.0 88.0 L 128.0 87.0 L 128.0 86.0 L 128.0 85.0 L 128.0 84.0 L 128.0 83.0 L 128.0 82.0 L 128.0 81.0 L 128.0 80.0 L 128.0 79.0 L 128.0 78.0 L 128.0 77.0 L 128.0 76.0 L 128.0 75.0 L 128.0 74.0 L 128.0 73.0 L 128.0 72.0 L 128.0 71.0 L 128.0 70.0 L 128.0 69.0 L 128.0 68.0 L 128.0 67.0 L 128.0 66.0 L 128.0 65.0 L 128.0 64.0 L 128.0 63.0 L 128.0 62.0 L 128.0 61.0 L 128.0 60.0 L 128.0 59.0 L 128.0 58.0 L 128.0 57.0 L 128.0 56.0 L 128.0 55.0 L 128.0 54.0 L 128.0 53.0 L 128.0 52.0 L 128.0 51.0 L 128.0 50.0 L 128.0 49.0 L 128.0 48.0 L 128.0 47.0 L 128.0 46.0 L 128.0 45.0 L 128.0 44.0 L 128.0 43.0 L 128.0 42.0 L 128.0 41.0 L 128.0 40.0 L 128.0 39.0 L 128.0 38.0 L 128.0 37.0 L 128.0 36.0 L 128.0 35.0 L 128.0 34.0 L 128.0 33.0 L 128.0 32.0 L 128.0 31.0 L 128.0 30.0 L 128.0 29.0 L 128.0 28.0 L 128.0 27.0 L 128.0 26.0 L 128.0 25.0 L 128.0 24.0 L 128.0 23.0 L 128.0 22.0 L 128.0 21.0 L 128.0 20.0 L 128.0 19.0 L 128.0 18.0 L 128.0 17.0 L 128.0 16.0 L 128.0 15.0 L 128.0 14.0 L 128.0 13.0 L 128.0 12.0 L 128.0 11.0 L 128.0 10.0 L 128.0 9.0 L 128.0 8.0 L 128.0 7.0 L 128.0 6.0 L 128.0 5.0 L 128.0 4.0 L 128.0 3.0 L 128.0 2.0 L 128.0 1.0 L 127.66666666666667 0.3333333333333333 L 127.0 0.0 L 126.0 0.0 L 125.0 0.0 L 124.0 0.0 L 123.0 0.0 L 122.0 0.0 L 121.0 0.0 L 120.0 0.0 L 119.0 0.0 L 118.0 0.0 L 117.0 0.0 L 116.0 0.0 L 115.0 0.0 L 114.0 0.0 L 113.0 0.0 L 112.0 0.0 L 111.0 0.0 L 110.0 0.0 L 109.0 0.0 L 108.0 0.0 L 107.0 0.0 L 106.0 0.0 L 105.0 0.0 L 104.0 0.0 L 103.0 0.0 L 102.0 0.0 L 101.0 0.0 L 100.0 0.0 L 99.0 0.0 L 98.0 0.0 L 97.0 0.0 L 96.0 0.0 L 95.0 0.0 L 94.0 0.0 L 93.0 0.0 L 92.0 0.0 L 91.0 0.0 L 90.0 0.0 L 89.0 0.0 L 88.0 0.0 L 87.0 0.0 L 86.0 0.0 L 85.0 0.0 L 84.0 0.0 L 83.0 0.0 L 82.0 0.0 L 81.0 0.0 L 80.0 0.0 L 79.0 0.0 L 78.0 0.0 L 77.0 0.0 L 76.0 0.0 L 75.0 0.0 L 74.0 0.0 L 73.0 0.0 L 72.0 0.0 L 71.0 0.0 L 70.0 0.0 L 69.0 0.0 L 68.0 0.0 L 67.0 0.0 L 66.0 0.0 L 65.0 0.0 L 64.0 0.0 L 63.0 0.0 L 62.0 0.0 L 61.0 0.0 L 60.0 0.0 L 59.0 0.0 L 58.0 0.0 L 57.0 0.0 L 56.0 0.0 L 55.0 0.0 L 54.0 0.0 L 53.0 0.0 L 52.0 0.0 L 51.0 0.0 L 50.0 0.0 L 49.0 0.0 L 48.0 0.0 L 47.0 0.0 L 46.0 0.0 L 45.0 0.0 L 44.0 0.0 L 43.0 0.0 L 42.0 0.0 L 41.0 0.0 L 40.0 0.0 L 39.0 0.0 L 38.0 0.0 L 37.0 0.0 L 36.0 0.0 L 35.0 0.0 L 34.0 0.0 L 33.0 0.0 L 32.0 0.0 L 31.0 0.0 L 30.0 0.0 L 29.0 0.0 L 28.0 0.0 L 27.0 0.0 L 26.0 0.0 L 25.0 0.0 L 24.0 0.0 L 23.0 0.0 L 22.0 0.0 L 21.0 0.0 L 20.0 0.0 L 19.0 0.0 L 18.0 0.0 L 17.0 0.0 L 16.0 0.0 L 15.0 0.0 L 14.0 0.0 L 13.0 0.0 L 12.0 0.0 L 11.0 0.0 L 10.0 0.0 L 9.0 0.0 L 8.0 0.0 L 7.0 0.0 L 6.0 0.0 L 5.0 0.0 L 4.0 0.0 L 3.0 0.0 L 2.0 0.0 L 1.0 0.0 L 0.3333333333333333 0.3333333333333333 L 0.0 1.0 L 0.0 2.0 L 0.0 3.0 L 0.0 4.0 L 0.0 5.0 L 0.0 6.0 L 0.0 7.0 L 0.0 8.0 L 0.0 9.0 L 0.0 10.0 L 0.0 11.0 L 0.0 12.0 L 0.0 13.0 L 0.0 14.0 L 0.0 15.0 L 0.0 16.0 L 0.0 17.0 L 0.0 18.0 L 0.0 19.0 L 0.0 20.0 L 0.0 21.0 L 0.0 22.0 L 0.0 23.0 L 0.0 24.0 L 0.0 25.0 L 0.0 26.0 L 0.0 27.0 L 0.0 28.0 L 0.0 29.0 L 0.0 30.0 L 0.0 31.0 L 0.0 32.0 L 0.0 33.0 L 0.0 34.0 L 0.0 35.0 L 0.0 36.0 L 0.0 37.0 L 0.0 38.0 L 0.0 39.0 L 0.0 40.0 L 0.0 41.0 L 0.0 42.0 L 0.0 43.0 L 0.0 44.0 L 0.0 45.0 L 0.0 46.0 L 0.0 47.0 L 0.0 48.0 L 0.0 49.0 L 0.0 50.0 L 0.0 51.0 L 0.0 52.0 L 0.0 53.0 L 0.0 54.0 L 0.0 55.0 L 0.0 56.0 L 0.0 57.0 L 0.0 58.0 L 0.0 59.0 L 0.0 60.0 L 0.0 61.0 L 0.0 62.0 L 0.0 63.0 L 0.0 64.0 L 0.0 65.0 L 0.0 66.0 L 0.0 67.0 L 0.0 68.0 L 0.0 69.0 L 0.0 70.0 L 0.0 71.0 L 0.0 72.0 L 0.0 73.0 L 0.0 74.0 L 0.0 75.0 L 0.0 76.0 L 0.0 77.0 L 0.0 78.0 L 0.0 79.0 L 0.0 80.0 L 0.0 81.0 L 0.0 82.0 L 0.0 83.0 L 0.0 84.0 L 0.0 85.0 L 0.0 86.0 L 0.0 87.0 L 0.0 88.0 L 0.0 89.0 L 0.0 90.0 L 0.0 91.0 L 0.0 92.0 L 0.0 93.0 L 0.0 94.0 L 0.0 95.0 L 0.0 96.0 L 0.0 97.0 L 0.0 98.0 L 0.0 99.0 L 0.0 100.0 L 0.0 101.0 L 0.0 102.0 L 0.0 103.0 L 0.0 104.0 L 0.0 105.0 L 0.0 106.0 L 0.0 107.0 L 0.0 108.0 L 0.0 109.0 L 0.0 110.0 L 0.0 111.0 L 0.0 112.0 L 0.0 113.0 L 0.0 114.0 L 0.0 115.0 L 0.0 116.0 L 0.0 117.0 L 0.0 118.0 L 0.0 119.0 L 0.0 120.0 L 0.0 121.0 L 0.0 122.0 L 0.0 123.0 L 0.0 124.0 L 0.0 125.0 L 0.0 126.0 L 0.0 127.0 L 0.3333333333333333 127.66666666666667 L 1.0 128.0 L 2.0 128.0 L 3.0 128.0 L 4.0 128.0 L 5.0 128.0 L 6.0 128.0 L 7.0 128.0 L 8.0 128.0 L 9.0 128.0 L 10.0 128.0 L 11.0 128.0 L 12.0 128.0 L 13.0 128.0 L 14.0 128.0 L 15.0 128.0 L 16.0 128.0 L 17.0 128.0 L 18.0 128.0 L 19.0 128.0 L 20.0 128.0 L 21.0 128.0 L 22.0 128.0 L 23.0 128.0 L 24.0 128.0 L 25.0 128.0 L 25.5 128.0 Z" stroke="none" fill="rgb(0,0,0)" />
<path d="M 101.5 33.5 L 102.0 34.0 L 103.0 35.0 L 104.0 36.0 L 105.0 37.0 L 106.0 38.0 L 107.0 39.0 L 107.66666666666667 40.0 L 108.33333333333333 41.0 L 109.0 42.0 L 109.66666666666667 43.0 L 110.0 44.0 L 110.33333333333333 45.0 L 110.66666666666667 46.0 L 111.33333333333333 47.0 L 112.0 48.0 L 112.66666666666667 49.0 L 113.0 50.0 L 113.33333333333333 51.0 L 113.66666666666667 52.0 L 114.33333333333333 53.0 L 114.66666666666667 54.0 L 115.0 55.0 L 115.0 56.0 L 115.33333333333333 57.0 L 115.66666666666667 58.0 L 116.0 59.0 L 116.0 60.0 L 116.0 61.0 L 116.33333333333333 62.0 L 116.66666666666667 63.0 L 117.0 64.0 L 117.0 65.0 L 117.0 66.0 L 117.33333333333333 67.0 L 117.66666666666667 68.0 L 118.0 69.0 L 118.0 70.0 L 118.0 71.0 L 118.0 72.0 L 118.0 73.0 L 118.0 74.0 L 118.0 75.0 L 118.0 76.0 L 118.33333333333333 77.0 L 118.66666666666667 78.0 L 119.0 79.0 L 119.0 80.0 L 119.0 81.0 L 119.0 82.0 L 119.0 83.0 L 119.0 84.0 L 119.0 85.0 L 119.0 86.0 L 119.0 87.0 L 119.0 88.0 L 119.0 89.0 L 119.0 90.0 L 119.0 91.0 L 119.0 92.0 L 119.0 93.0 L 118.66666666666667 94.0 L 118.33333333333333 95.0 L 118.0 96.0 L 117.66666666666667 97.0 L 117.0 98.0 L 116.0 99.0 L 115.0 100.0 L 114.0 101.0 L 113.33333333333333 102.0 L 113.0 103.0 L 113.0 104.0 L 113.0 105.0 L 113.33333333333333 106.0 L 113.66666666666667 107.0 L 114.0 108.0 L 114.0 109.0 L 114.0 110.0 L 114.0 111.0 L 114.0 112.0 L 114.33333333333333 112.66666666666667 L 115.0 113.0 L 115.66666666666667 112.66666666666667 L 116.33333333333333 112.0 L 117.0 111.0 L 117.66666666666667 110.0 L 118.33333333333333 109.0 L 118.66666666666667 108.0 L 119.0 107.0 L 119.33333333333333 106.0 L 120.0 105.0 L 121.0 104.0 L 121.66666666666667 103.0 L 122.33333333333333 102.0 L 122.66666666666667 101.0 L 123.0 100.0 L 123.33333333333333 99.0 L 123.66666666666667 98.0 L 124.0 97.0 L 124.0 96.0 L 124.0 95.0 L 124.0 94.0 L 124.0 93.0 L 124.0 92.0 L 124.0 91.0 L 124.0 90.0 L 124.0 89.0 L 124.0 88.0 L 124.0 87.0 L 124.0 86.0 L 124.0 85.0 L 124.0 84.0 L 124.0 83.0 L 124.0 82.0 L 124.0 81.0 L 124.0 80.0 L 124.0 79.0 L 124.0 78.0 L 124.0 77.0 L 124.0 76.0 L 124.0 75.0 L 124.0 74.0 L 124.0 73.0 L 124.0 72.0 L 124.0 71.0 L 124.0 70.0 L 124.0 69.0 L 124.0 68.0 L 124.0 67.0 L 123.66666666666667 66.0 L 123.33333333333333 65.0 L 123.0 64.0 L 123.0 63.0 L 123.0 62.0 L 122.66666666666667 61.0 L 122.33333333333333 60.0 L 122.0 59.0 L 122.0 58.0 L 122.0 57.0 L 121.66666666666667 56.0 L 121.33333333333333 55.0 L 120.66666666666667 54.0 L 120.33333333333333 53.0 L 119.66666666666667 52.0 L 119.33333333333333 51.0 L 119.0 50.0 L 119.0 49.0 L 118.66666666666667 48.0 L 118.33333333333333 47.0 L 117.66666666666667 46.0 L 117.33333333333333 45.0 L 117.0 44.0 L 116.66666666666667 43.0 L 116.33333333333333 42.0 L 115.66666666666667 41.0 L 115.33333333333333 40.0 L 114.66666666666667 39.0 L 114.0 38.0 L 113.33333333333333 37.0 L 112.66666666666667 36.0 L 112.0 35.0 L 111.33333333333333 34.0 L 110.66666666666667 33.0 L 110.0 32.0 L 109.0 31.0 L 108.0 30.0 L 107.0 29.0 L 106.0 28.0 L 105.0 27.0 L 104.0 26.0 L 103.0 25.333333333333332 L 102.0 25.0 L 101.0 24.666666666666668 L 100.0 24.0 L 99.0 23.333333333333332 L 98.0 22.666666666666668 L 97.0 22.0 L 96.0 21.0 L 95.0 20.333333333333332 L 94.0 19.666666666666668 L 93.0 19.333333333333332 L 92.0 19.0 L 91.0 19.0 L 90.0 18.666666666666668 L 89.0 18.333333333333332 L 88.0 18.0 L 87.0 17.666666666666668 L 86.0 17.333333333333332 L 85.0 17.0 L 84.0 16.666666666666668 L 83.0 16.333333333333332 L 82.0 16.0 L 81.0 16.0 L 80.0 15.666666666666666 L 79.0 15.333333333333334 L 78.0 15.0 L 77.0 15.0 L 76.0 15.0 L 75.0 15.0 L 74.0 14.666666666666666 L 73.0 14.333333333333334 L 72.0 14.0 L 71.0 14.0 L 70.0 14.0 L 69.0 14.0 L 68.0 14.0 L 67.0 14.0 L 66.0 14.0 L 65.0 14.0 L 64.0 14.0 L 63.0 14.0 L 62.0 14.0 L 61.0 14.0 L 60.0 14.0 L 59.0 14.0 L 58.0 14.0 L 57.0 14.0 L 56.0 14.0 L 55.0 14.333333333333334 L 54.0 14.666666666666666 L 53.0 15.0 L 52.0 15.0 L 51.0 15.0 L 50.0 15.333333333333334 L 49.0 15.666666666666666 L 48.0 16.333333333333332 L 47.0 16.666666666666668 L 46.0 17.0 L 45.0 17.0 L 44.0 17.0 L 43.0 17.333333333333332 L 42.0 17.666666666666668 L 41.0 18.0 L 40.0 18.0 L 39.0 18.333333333333332 L 38.0 18.666666666666668 L 37.0 19.0 L 36.0 19.0 L 35.0 19.333333333333332 L 34.0 19.666666666666668 L 33.0 20.333333333333332 L 32.0 21.0 L 31.0 22.0 L 30.0 22.666666666666668 L 29.0 23.0 L 28.0 23.333333333333332 L 27.0 24.0 L 26.0 24.666666666666668 L 25.0 25.333333333333332 L 24.0 26.0 L 23.0 27.0 L 22.0 28.0 L 21.0 29.0 L 20.0 30.0 L 19.0 31.0 L 18.0 32.0 L 17.333333333333332 33.0 L 16.666666666666668 34.0 L 16.0 35.0 L 15.333333333333334 36.0 L 14.666666666666666 37.0 L 14.0 38.0 L 13.333333333333334 39.0 L 12.666666666666666 40.0 L 12.333333333333334 41.0 L 11.666666666666666 42.0 L 11.333333333333334 43.0 L 10.666666666666666 44.0 L 10.333333333333334 45.0 L 9.666666666666666 46.0 L 9.333333333333334 47.0 L 9.0 48.0 L 8.666666666666666 49.0 L 8.333333333333334 50.0 L 8.0 51.0 L 7.666666666666667 52.0 L 7.333333333333333 53.0 L 7.0 54.0 L 6.666666666666667 55.0 L 6.333333333333333 56.0 L 6.0 57.0 L 6.0 58.0 L 6.0 59.0 L 5.666666666666667 60.0 L 5.333333333333333 61.0 L 5.0 62.0 L 5.0 63.0 L 5.0 64.0 L 4.666666666666667 65.0 L 4.333333333333333 66.0 L 4.0 67.0 L 4.0 68.0 L 4.0 69.0 L 4.0 70.0 L 4.0 71.0 L 4.0 72.0 L 4.0 73.0 L 4.0 74.0 L 4.0 75.0 L 4.0 76.0 L 4.0 77.0 L 4.0 78.0 L 4.0 79.0 L 3.6666666666666665 80.0 L 3.3333333333333335 81.0 L 3.0 82.0 L 3.3333333333333335 83.0 L 3.6666666666666665 84.0 L 4.0 85.0 L 4.0 86.0 L 4.0 87.0 L 4.0 88.0 L 4.0 89.0 L 4.0 90.0 L 4.0 91.0 L 4.0 92.0 L 4.0 93.0 L 4.0 94.0 L 4.0 95.0 L 4.0 96.0 L 4.0 97.0 L 4.333333333333333 98.0 L 4.666666666666667 99.0 L 5.0 100.0 L 5.333333333333333 101.0 L 5.666666666666667 102.0 L 6.333333333333333 103.0 L 7.0 104.0 L 7.666666666666667 105.0 L 8.333333333333334 106.0 L 8.666666666666666 107.0 L 9.333333333333334 108.0 L 9.666666666666666 109.0 L 10.333333333333334 110.0 L 11.0 111.0 L 11.666666666666666 112.0 L 12.333333333333334 112.66666666666667 L 13.0 113.0 L 13.666666666666666 112.66666666666667 L 14.0 112.0 L 14.0 111.0 L 14.0 110.0 L 14.0 109.0 L 14.0 108.0 L 14.333333333333334 107.0 L 14.666666666666666 106.0 L 15.0 105.0 L 15.0 104.0 L 14.666666666666666 103.0 L 14.333333333333334 102.0 L 13.666666666666666 101.0 L 13.0 100.0 L 12.0 99.0 L 11.333333333333334 98.0 L 10.666666666666666 97.0 L 10.333333333333334 96.0 L 10.0 95.0 L 10.0 94.0 L 10.0 93.0 L 10.0 92.0 L 9.666666666666666 91.0 L 9.333333333333334 90.0 L 9.0 89.0 L 9.0 88.0 L 9.0 87.0 L 9.0 86.0 L 9.0 85.0 L 9.0 84.0 L 9.0 83.0 L 9.0 82.0 L 9.0 81.0 L 9.0 80.0 L 9.0 79.0 L 9.333333333333334 78.0 L 9.666666666666666 77.0 L 10.0 76.0 L 10.0 75.0 L 10.0 74.0 L 10.0 73.0 L 10.0 72.0 L 10.0 71.0 L 10.0 70.0 L 10.0 69.0 L 10.333333333333334 68.0 L 10.666666666666666 67.0 L 11.0 66.0 L 11.0 65.0 L 11.0 64.0 L 11.333333333333334 63.0 L 11.666666666666666 62.0 L 12.0 61.0 L 12.0 60.0 L 12.333333333333334 59.0 L 12.666666666666666 58.0 L 13.0 57.0 L 13.0 56.0 L 13.333333333333334 55.0 L 13.666666666666666 54.0 L 14.0 53.0 L 14.333333333333334 52.0 L 15.0 51.0 L 15.666666666666666 50.0 L 16.0 49.0 L 16.333333333333332 48.0 L 17.0 47.0 L 17.666666666666668 46.0 L 18.0 45.0 L 18.333333333333332 44.0 L 18.666666666666668 43.0 L 19.333333333333332 42.0 L 20.0 41.0 L 20.666666666666668 40.0 L 21.333333333333332 39.0 L 22.0 38.0 L 23.0 37.333333333333336 L 24.0 37.0 L 25.0 36.666666666666664 L 25.666666666666668 36.0 L 26.333333333333332 35.0 L 26.666666666666668 34.0 L 27.333333333333332 33.0 L 28.0 32.333333333333336 L 29.0 32.0 L 29.666666666666668 31.666666666666668 L 30.333333333333332 31.0 L 31.0 30.333333333333332 L 31.666666666666668 29.666666666666668 L 32.333333333333336 29.0 L 33.0 28.333333333333332 L 34.0 28.0 L 34.666666666666664 27.666666666666668 L 35.333333333333336 27.0 L 36.0 26.333333333333332 L 37.0 25.666666666666668 L 38.0 25.333333333333332 L 39.0 25.0 L 40.0 25.0 L 41.0 24.666666666666668 L 42.0 24.0 L 43.0 23.333333333333332 L 44.0 23.0 L 45.0 22.666666666666668 L 46.0 22.333333333333332 L 47.0 22.0 L 48.0 22.0 L 49.0 22.0 L 50.0 22.0 L 51.0 21.666666666666668 L 52.0 21.333333333333332 L 53.0 21.0 L 54.0 21.0 L 55.0 20.666666666666668 L 56.0 20.333333333333332 L 57.0 20.0 L 58.0 20.0 L 59.0 20.0 L 60.0 20.0 L 61.0 20.0 L 62.0 20.0 L 63.0 20.0 L 64.0 20.0 L 65.0 20.0 L 66.0 20.0 L 67.0 20.0 L 68.0 20.0 L 69.0 20.0 L 70.0 20.0 L 71.0 20.0 L 72.0 20.0 L 73.0 20.0 L 74.0 20.0 L 75.0 20.0 L 76.0 20.333333333333332 L 77.0 21.0 L 78.0 21.666666666666668 L 79.0 22.0 L 80.0 22.0 L 81.0 22.0 L 82.0 22.333333333333332 L 83.0 22.666666666666668 L 84.0 23.0 L 85.0 23.0 L 86.0 23.333333333333332 L 87.0 24.0 L 88.0 24.666666666666668 L 89.0 25.0 L 90.0 25.333333333333332 L 91.0 26.0 L 92.0 26.666666666666668 L 93.0 27.333333333333332 L 94.0 27.666666666666668 L 95.0 28.333333333333332 L 96.0 29.0 L 97.0 29.666666666666668 L 98.0 30.333333333333332 L 99.0 31.0 L 100.0 32.0 L 100.5 32.5 Z" stroke="none" fill="rgb(176,176,176)" />
<path d="M 71.5 29.0 L 72.0 28.666666666666668 L 73.0 28.333333333333332 L 74.0 27.666666666666668 L 75.0 27.0 L 76.0 26.0 L 77.0 25.0 L 77.66666666666667 24.0 L 78.0 23.0 L 78.0 22.0 L 77.66666666666667 21.0 L 77.0 20.333333333333332 L 76.0 20.0 L 75.0 20.0 L 74.0 20.0 L 73.0 20.0 L 72.0 20.0 L 71.0 20.0 L 70.0 20.0 L 69.0 20.0 L 68.0 20.0 L 67.0 20.0 L 66.0 20.0 L 65.0 20.0 L 64.0 20.0 L 63.0 20.0 L 62.0 20.0 L 61.0 20.0 L 60.0 20.0 L 59.0 20.0 L 58.0 20.0 L 57.0 20.0 L 56.0 20.0 L 55.0 20.333333333333332 L 54.0 20.666666666666668 L 53.0 21.0 L 52.0 21.0 L 51.333333333333336 21.333333333333332 L 51.0 22.0 L 51.0 23.0 L 51.333333333333336 24.0 L 52.0 25.0 L 53.0 26.0 L 54.0 27.0 L 55.0 27.666666666666668 L 56.0 28.333333333333332 L 57.0 28.666666666666668 L 58.0 29.333333333333332 L 59.0 29.666666666666668 L 60.0 30.0 L 61.0 30.333333333333332 L 62.0 30.666666666666668 L 63.0 31.0 L 64.0 31.0 L 65.0 31.0 L 66.0 31.0 L 67.0 30.666666666666668 L 68.0 30.333333333333332 L 69.0 30.0 L 70.0 29.666666666666668 L 70.5 29.5 Z" stroke="none" fill="rgb(253,253,253)" />
<path d="M 50.5 31.0 L 51.0 31.333333333333332 L 52.0 32.0 L 53.0 32.666666666666664 L 54.0 33.333333333333336 L 55.0 33.666666666666664 L 56.0 34.333333333333336 L 57.0 34.666666666666664 L 58.0 35.0 L 59.0 35.333333333333336 L 60.0 35.666666666666664 L 61.0 36.0 L 62.0 36.0 L 63.0 36.0 L 64.0 36.0 L 65.0 36.0 L 66.0 36.0 L 67.0 36.0 L 68.0 36.0 L 69.0 35.666666666666664 L 70.0 35.333333333333336 L 71.0 35.0 L 72.0 34.666666666666664 L 73.0 34.333333333333336 L 74.0 34.0 L 75.0 33.666666666666664 L 76.0 33.0 L 77.0 32.333333333333336 L 78.0 31.666666666666668 L 79.0 31.0 L 80.0 30.0 L 80.66666666666667 29.0 L 81.33333333333333 28.0 L 82.0 27.0 L 82.66666666666667 26.0 L 83.33333333333333 25.0 L 83.66666666666667 24.0 L 83.66666666666667 23.0 L 83.0 22.333333333333332 L 82.0 22.0 L 81.0 22.0 L 80.0 22.0 L 79.0 22.0 L 78.33333333333333 22.333333333333332 L 77.66666666666667 23.0 L 77.0 24.0 L 76.0 25.0 L 75.0 26.0 L 74.0 27.0 L 73.0 27.666666666666668 L 72.0 28.333333333333332 L 71.0 28.666666666666668 L 70.0 29.333333333333332 L 69.0 29.666666666666668 L 68.0 30.0 L 67.0 30.333333333333332 L 66.0 30.666666666666668 L 65.0 31.0 L 64.0 31.0 L 63.0 30.666666666666668 L 62.0 30.333333333333332 L 61.0 30.0 L 60.0 29.666666666666668 L 59.0 29.333333333333332 L 58.0 28.666666666666668 L 57.0 28.333333333333332 L 56.0 27.666666666666668 L 55.0 27.0 L 54.0 26.0 L 53.0 25.0 L 52.0 24.0 L 51.333333333333336 23.0 L 50.666666666666664 22.0 L 50.0 21.333333333333332 L 49.0 21.333333333333332 L 48.0 21.666666666666668 L 47.0 22.0 L 46.0 22.0 L 45.333333333333336 22.333333333333332 L 45.0 23.0 L 45.333333333333336 24.0 L 45.666666666666664 25.0 L 46.333333333333336 26.0 L 47.0 27.0 L 47.666666666666664 28.0 L 48.333333333333336 29.0 L 49.0 30.0 L 49.5 30.5 Z" stroke="none" fill="rgb(250,250,250)" />
<path d="M 88.0 26.5 L 88.0 26.0 L 88.0 25.0 L 87.66666666666667 24.0 L 87.0 23.333333333333332 L 86.0 23.0 L 85.0 23.0 L 84.0 23.333333333333332 L 83.33333333333333 24.0 L 82.66666666666667 25.0 L 82.0 26.0 L 81.33333333333333 27.0 L 80.66666666666667 28.0 L 80.0 29.0 L 79.0 30.0 L 78.0 31.0 L 77.0 31.666666666666668 L 76.0 32.333333333333336 L 75.0 33.0 L 74.0 33.666666666666664 L 73.0 34.0 L 72.0 34.333333333333336 L 71.0 34.666666666666664 L 70.0 35.0 L 69.0 35.333333333333336 L 68.0 35.666666666666664 L 67.0 36.0 L 66.0 36.0 L 65.0 36.0 L 64.0 36.0 L 63.0 36.0 L 62.0 36.0 L 61.0 35.666666666666664 L 60.0 35.333333333333336 L 59.0 35.0 L 58.0 34.666666666666664 L 57.0 34.333333333333336 L 56.0 33.666666666666664 L 55.0 33.333333333333336 L 54.0 32.666666666666664 L 53.0 32.0 L 52.0 31.333333333333332 L 51.0 30.666666666666668 L 50.0 30.0 L 49.0 29.0 L 48.333333333333336 28.0 L 47.666666666666664 27.0 L 47.0 26.0 L 46.333333333333336 25.0 L 45.666666666666664 24.0 L 45.0 23.333333333333332 L 44.0 23.0 L 43.0 23.0 L 42.0 23.333333333333332 L 41.333333333333336 24.0 L 41.0 25.0 L 41.0 26.0 L 41.333333333333336 27.0 L 42.0 28.0 L 42.666666666666664 29.0 L 43.333333333333336 30.0 L 44.0 31.0 L 45.0 32.0 L 46.0 33.0 L 47.0 34.0 L 48.0 35.0 L 49.0 36.0 L 50.0 36.666666666666664 L 51.0 37.333333333333336 L 52.0 37.666666666666664 L 53.0 38.333333333333336 L 54.0 38.666666666666664 L 55.0 39.0 L 56.0 39.333333333333336 L 57.0 39.666666666666664 L 58.0 40.0 L 59.0 40.0 L 60.0 40.333333333333336 L 61.0 40.666666666666664 L 62.0 41.0 L 63.0 41.0 L 64.0 41.0 L 65.0 41.0 L 66.0 41.0 L 67.0 41.0 L 68.0 41.0 L 69.0 40.666666666666664 L 70.0 40.333333333333336 L 71.0 40.0 L 72.0 40.0 L 73.0 39.666666666666664 L 74.0 39.333333333333336 L 75.0 38.666666666666664 L 76.0 38.333333333333336 L 77.0 37.666666666666664 L 78.0 37.333333333333336 L 79.0 36.666666666666664 L 80.0 36.0 L 81.0 35.0 L 82.0 34.0 L 83.0 33.0 L 84.0 32.0 L 85.0 31.0 L 86.0 30.0 L 86.66666666666667 29.0 L 87.33333333333333 28.0 L 87.5 27.5 Z" stroke="none" fill="rgb(248,248,248)" />
<path d="M 88.0 34.5 L 88.33333333333333 34.0 L 89.0 33.0 L 89.66666666666667 32.0 L 90.33333333333333 31.0 L 91.0 30.0 L 91.66666666666667 29.0 L 92.0 28.0 L 92.0 27.0 L 91.66666666666667 26.0 L 91.0 25.333333333333332 L 90.0 25.0 L 89.0 25.0 L 88.33333333333333 25.333333333333332 L 87.66666666666667 26.0 L 87.33333333333333 27.0 L 86.66666666666667 28.0 L 86.0 29.0 L 85.0 30.0 L 84.0 31.0 L 83.0 32.0 L 82.0 33.0 L 81.0 34.0 L 80.0 35.0 L 79.0 36.0 L 78.0 36.666666666666664 L 77.0 37.333333333333336 L 76.0 37.666666666666664 L 75.0 38.333333333333336 L 74.0 38.666666666666664 L 73.0 39.333333333333336 L 72.0 39.666666666666664 L 71.0 40.0 L 70.0 40.0 L 69.0 40.333333333333336 L 68.0 40.666666666666664 L 67.0 41.0 L 66.0 41.0 L 65.0 41.0 L 64.0 41.0 L 63.0 41.0 L 62.0 40.666666666666664 L 61.0 40.333333333333336 L 60.0 40.0 L 59.0 40.0 L 58.0 39.666666666666664 L 57.0 39.333333333333336 L 56.0 39.0 L 55.0 38.666666666666664 L 54.0 38.333333333333336 L 53.0 37.666666666666664 L 52.0 37.333333333333336 L 51.0 36.666666666666664 L 50.0 36.0 L 49.0 35.0 L 48.0 34.0 L 47.0 33.0 L 46.0 32.0 L 45.0 31.0 L 44.0 30.0 L 43.333333333333336 29.0 L 42.666666666666664 28.0 L 42.0 27.0 L 41.333333333333336 26.0 L 40.666666666666664 25.333333333333332 L 40.0 25.0 L 39.0 25.0 L 38.0 25.0 L 37.333333333333336 25.333333333333332 L 37.0 26.0 L 37.0 27.0 L 37.333333333333336 28.0 L 37.666666666666664 29.0 L 38.333333333333336 30.0 L 38.666666666666664 31.0 L 39.333333333333336 32.0 L 40.0 33.0 L 41.0 34.0 L 42.0 35.0 L 42.666666666666664 36.0 L 43.333333333333336 36.666666666666664 L 44.0 37.333333333333336 L 45.0 38.0 L 46.0 39.0 L 47.0 40.0 L 48.0 40.666666666666664 L 49.0 41.333333333333336 L 50.0 41.666666666666664 L 51.0 42.333333333333336 L 52.0 42.666666666666664 L 53.0 43.0 L 54.0 43.333333333333336 L 55.0 43.666666666666664 L 56.0 44.0 L 57.0 44.333333333333336 L 58.0 44.666666666666664 L 59.0 45.0 L 60.0 45.0 L 61.0 45.0 L 62.0 45.0 L 63.0 45.0 L 64.0 45.0 L 65.0 45.0 L 66.0 45.0 L 67.0 45.0 L 68.0 45.0 L 69.0 45.0 L 70.0 45.0 L 71.0 44.666666666666664 L 72.0 44.333333333333336 L 73.0 44.0 L 74.0 43.666666666666664 L 75.0 43.333333333333336 L 76.0 43.0 L 77.0 42.666666666666664 L 78.0 42.333333333333336 L 79.0 41.666666666666664 L 80.0 41.333333333333336 L 81.0 40.666666666666664 L 82.0 40.0 L 83.0 39.0 L 84.0 38.333333333333336 L 85.0 37.666666666666664 L 86.0 37.0 L 87.0 36.0 L 87.5 35.5 Z" stroke="none" fill="rgb(246,246,246)" />
<path d="M 37.5 32.5 L 37.666666666666664 33.0 L 38.333333333333336 34.0 L 39.0 35.0 L 40.0 36.0 L 41.0 37.0 L 42.0 38.0 L 43.0 39.0 L 44.0 40.0 L 45.0 41.0 L 46.0 41.666666666666664 L 47.0 42.333333333333336 L 48.0 42.666666666666664 L 49.0 43.333333333333336 L 50.0 43.666666666666664 L 51.0 44.333333333333336 L 52.0 44.666666666666664 L 53.0 45.333333333333336 L 54.0 45.666666666666664 L 55.0 46.0 L 56.0 46.0 L 57.0 46.333333333333336 L 58.0 46.666666666666664 L 59.0 47.0 L 60.0 47.0 L 61.0 47.0 L 62.0 47.0 L 63.0 47.0 L 64.0 47.0 L 65.0 47.0 L 66.0 47.0 L 67.0 47.0 L 68.0 47.0 L 69.0 47.0 L 70.0 47.0 L 71.0 46.666666666666664 L 72.0 46.333333333333336 L 73.0 46.0 L 74.0 46.0 L 75.0 45.666666666666664 L 76.0 45.333333333333336 L 77.0 44.666666666666664 L 78.0 44.333333333333336 L 79.0 44.0 L 80.0 43.666666666666664 L 81.0 43.0 L 82.0 42.333333333333336 L 83.0 41.666666666666664 L 84.0 41.0 L 85.0 40.0 L 86.0 39.333333333333336 L 87.0 38.666666666666664 L 87.66666666666667 38.0 L 88.33333333333333 37.0 L 89.0 36.0 L 90.0 35.0 L 91.0 34.0 L 91.66666666666667 33.0 L 92.33333333333333 32.0 L 92.66666666666667 31.0 L 93.33333333333333 30.0 L 93.66666666666667 29.0 L 94.0 28.0 L 93.66666666666667 27.333333333333332 L 93.0 27.0 L 92.33333333333333 27.333333333333332 L 91.66666666666667 28.0 L 91.0 29.0 L 90.33333333333333 30.0 L 89.66666666666667 31.0 L 89.0 32.0 L 88.33333333333333 33.0 L 87.66666666666667 34.0 L 87.0 35.0 L 86.0 36.0 L 85.0 37.0 L 84.0 37.666666666666664 L 83.0 38.333333333333336 L 82.0 39.0 L 81.0 40.0 L 80.0 40.666666666666664 L 79.0 41.333333333333336 L 78.0 41.666666666666664 L 77.0 42.333333333333336 L 76.0 42.666666666666664 L 75.0 43.0 L 74.0 43.333333333333336 L 73.0 43.666666666666664 L 72.0 44.0 L 71.0 44.333333333333336 L 70.0 44.666666666666664 L 69.0 45.0 L 68.0 45.0 L 67.0 45.0 L 66.0 45.0 L 65.0 45.0 L 64.0 45.0 L 63.0 45.0 L 62.0 45.0 L 61.0 45.0 L 60.0 45.0 L 59.0 44.666666666666664 L 58.0 44.333333333333336 L 57.0 44.0 L 56.0 43.666666666666664 L 55.0 43.333333333333336 L 54.0 43.0 L 53.0 42.666666666666664 L 52.0 42.333333333333336 L 51.0 41.666666666666664 L 50.0 41.333333333333336 L 49.0 40.666666666666664 L 48.0 40.0 L 47.0 39.0 L 46.0 38.0 L 45.0 37.333333333333336 L 44.0 36.666666666666664 L 43.333333333333336 36.0 L 42.666666666666664 35.0 L 42.0 34.0 L 41.0 33.0 L 40.0 32.0 L 39.333333333333336 31.0 L 38.666666666666664 30.0 L 38.333333333333336 29.0 L 37.666666666666664 28.0 L 37.333333333333336 27.0 L 36.666666666666664 26.333333333333332 L 36.0 26.0 L 35.333333333333336 26.333333333333332 L 35.0 27.0 L 35.0 28.0 L 35.333333333333336 29.0 L 35.666666666666664 30.0 L 36.333333333333336 31.0 L 36.5 31.5 Z" stroke="none" fill="rgb(245,245,245)" />
<path d="M 53.5 49.5 L 54.0 49.666666666666664 L 55.0 50.0 L 56.0 50.0 L 57.0 50.333333333333336 L 58.0 50.666666666666664 L 59.0 51.0 L 60.0 51.0 L 61.0 51.0 L 62.0 51.0 L 63.0 51.0 L 64.0 51.0 L 65.0 51.0 L 66.0 51.0 L 67.0 51.0 L 68.0 51.0 L 69.0 51.0 L 70.0 51.0 L 71.0 50.666666666666664 L 72.0 50.333333333333336 L 73.0 50.0 L 74.0 50.0 L 75.0 49.666666666666664 L 76.0 49.333333333333336 L 77.0 49.0 L 78.0 48.666666666666664 L 79.0 48.333333333333336 L 80.0 47.666666666666664 L 81.0 47.333333333333336 L 82.0 46.666666666666664 L 83.0 46.333333333333336 L 84.0 45.666666666666664 L 85.0 45.0 L 86.0 44.333333333333336 L 87.0 43.666666666666664 L 88.0 43.0 L 89.0 42.0 L 90.0 41.0 L 91.0 40.0 L 92.0 39.0 L 93.0 38.0 L 93.66666666666667 37.0 L 94.33333333333333 36.0 L 95.0 35.0 L 95.66666666666667 34.0 L 96.33333333333333 33.0 L 96.66666666666667 32.0 L 97.0 31.0 L 97.0 30.0 L 96.66666666666667 29.0 L 96.0 28.333333333333332 L 95.0 28.0 L 94.0 28.333333333333332 L 93.33333333333333 29.0 L 92.66666666666667 30.0 L 92.33333333333333 31.0 L 91.66666666666667 32.0 L 91.0 33.0 L 90.0 34.0 L 89.0 35.0 L 88.33333333333333 36.0 L 87.66666666666667 37.0 L 87.0 38.0 L 86.0 38.666666666666664 L 85.0 39.333333333333336 L 84.0 40.0 L 83.0 41.0 L 82.0 41.666666666666664 L 81.0 42.333333333333336 L 80.0 43.0 L 79.0 43.666666666666664 L 78.0 44.0 L 77.0 44.333333333333336 L 76.0 44.666666666666664 L 75.0 45.333333333333336 L 74.0 45.666666666666664 L 73.0 46.0 L 72.0 46.0 L 71.0 46.333333333333336 L 70.0 46.666666666666664 L 69.0 47.0 L 68.0 47.0 L 67.0 47.0 L 66.0 47.0 L 65.0 47.0 L 64.0 47.0 L 63.0 47.0 L 62.0 47.0 L 61.0 47.0 L 60.0 47.0 L 59.0 46.666666666666664 L 58.0 46.333333333333336 L 57.0 46.0 L 56.0 46.0 L 55.0 45.666666666666664 L 54.0 45.333333333333336 L 53.0 44.666666666666664 L 52.0 44.333333333333336 L 51.0 43.666666666666664 L 50.0 43.333333333333336 L 49.0 42.666666666666664 L 48.0 42.333333333333336 L 47.0 41.666666666666664 L 46.0 41.0 L 45.0 40.0 L 44.0 39.0 L 43.0 38.0 L 42.0 37.0 L 41.0 36.0 L 40.0 35.0 L 39.0 34.0 L 38.333333333333336 33.0 L 37.666666666666664 32.0 L 37.0 31.0 L 36.333333333333336 30.0 L 35.666666666666664 29.0 L 35.0 28.333333333333332 L 34.0 28.0 L 33.0 28.0 L 32.333333333333336 28.333333333333332 L 32.0 29.0 L 32.0 30.0 L 32.0 31.0 L 32.333333333333336 32.0 L 33.0 33.0 L 33.666666666666664 34.0 L 34.333333333333336 35.0 L 35.0 36.0 L 35.666666666666664 37.0 L 36.333333333333336 38.0 L 37.0 39.0 L 38.0 40.0 L 39.0 41.0 L 40.0 42.0 L 41.0 43.0 L 42.0 43.666666666666664 L 43.0 44.333333333333336 L 44.0 45.0 L 45.0 45.666666666666664 L 46.0 46.333333333333336 L 47.0 46.666666666666664 L 48.0 47.333333333333336 L 49.0 47.666666666666664 L 50.0 48.333333333333336 L 51.0 48.666666666666664 L 52.0 49.0 L 52.5 49.0 Z" stroke="none" fill="rgb(243,243,243)" />
<path d="M 40.5 44.5 L 41.0 45.0 L 42.0 46.0 L 43.0 46.666666666666664 L 44.0 47.333333333333336 L 45.0 47.666666666666664 L 46.0 48.333333333333336 L 47.0 48.666666666666664 L 48.0 49.333333333333336 L 49.0 49.666666666666664 L 50.0 50.333333333333336 L 51.0 50.666666666666664 L 52.0 51.0 L 53.0 51.333333333333336 L 54.0 51.666666666666664 L 55.0 52.0 L 56.0 52.0 L 57.0 52.333333333333336 L 58.0 52.666666666666664 L 59.0 53.0 L 60.0 53.0 L 61.0 53.0 L 62.0 53.0 L 63.0 53.0 L 64.0 53.0 L 65.0 53.0 L 66.0 53.0 L 67.0 53.0 L 68.0 53.0 L 69.0 53.0 L 70.0 53.0 L 71.0 52.666666666666664 L 72.0 52.333333333333336 L 73.0 52.0 L 74.0 52.0 L 75.0 51.666666666666664 L 76.0 51.333333333333336 L 77.0 51.0 L 78.0 50.666666666666664 L 79.0 50.333333333333336 L 80.0 49.666666666666664 L 81.0 49.333333333333336 L 82.0 48.666666666666664 L 83.0 48.333333333333336 L 84.0 47.666666666666664 L 85.0 47.333333333333336 L 86.0 46.666666666666664 L 87.0 46.0 L 88.0 45.0 L 89.0 44.333333333333336 L 90.0 43.666666666666664 L 91.0 43.0 L 92.0 42.0 L 93.0 41.0 L 93.66666666666667 40.0 L 94.33333333333333 39.0 L 95.0 38.0 L 96.0 37.0 L 96.66666666666667 36.0 L 97.33333333333333 35.0 L 97.66666666666667 34.0 L 98.33333333333333 33.0 L 98.66666666666667 32.0 L 99.0 31.0 L 98.66666666666667 30.333333333333332 L 98.0 30.0 L 97.33333333333333 30.333333333333332 L 96.66666666666667 31.0 L 96.33333333333333 32.0 L 95.66666666666667 33.0 L 95.0 34.0 L 94.33333333333333 35.0 L 93.66666666666667 36.0 L 93.0 37.0 L 92.0 38.0 L 91.0 39.0 L 90.0 40.0 L 89.0 41.0 L 88.0 42.0 L 87.0 43.0 L 86.0 43.666666666666664 L 85.0 44.333333333333336 L 84.0 45.0 L 83.0 45.666666666666664 L 82.0 46.333333333333336 L 81.0 46.666666666666664 L 80.0 47.333333333333336 L 79.0 47.666666666666664 L 78.0 48.333333333333336 L 77.0 48.666666666666664 L 76.0 49.0 L 75.0 49.333333333333336 L 74.0 49.666666666666664 L 73.0 50.0 L 72.0 50.0 L 71.0 50.333333333333336 L 70.0 50.666666666666664 L 69.0 51.0 L 68.0 51.0 L 67.0 51.0 L 66.0 51.0 L 65.0 51.0 L 64.0 51.0 L 63.0 51.0 L 62.0 51.0 L 61.0 51.0 L 60.0 51.0 L 59.0 50.666666666666664 L 58.0 50.333333333333336 L 57.0 50.0 L 56.0 50.0 L 55.0 49.666666666666664 L 54.0 49.333333333333336 L 53.0 49.0 L 52.0 48.666666666666664 L 51.0 48.333333333333336 L 50.0 47.666666666666664 L 49.0 47.333333333333336 L 48.0 46.666666666666664 L 47.0 46.333333333333336 L 46.0 45.666666666666664 L 45.0 45.0 L 44.0 44.333333333333336 L 43.0 43.666666666666664 L 42.0 43.0 L 41.0 42.0 L 40.0 41.0 L 39.0 40.0 L 38.0 39.0 L 37.0 38.0 L 36.333333333333336 37.0 L 35.666666666666664 36.0 L 35.0 35.0 L 34.333333333333336 34.0 L 33.666666666666664 33.0 L 33.0 32.0 L 32.333333333333336 31.0 L 31.666666666666668 30.333333333333332 L 31.0 30.0 L 30.333333333333332 30.333333333333332 L 30.0 31.0 L 30.333333333333332 32.0 L 30.666666666666668 33.0 L 31.333333333333332 34.0 L 32.0 35.0 L 32.666666666666664 36.0 L 33.333333333333336 37.0 L 34.0 38.0 L 35.0 39.0 L 35.666666666666664 40.0 L 36.333333333333336 41.0 L 37.0 42.0 L 38.0 43.0 L 39.0 43.666666666666664 L 39.5 44.0 Z" stroke="none" fill="rgb(242,242,242)" />
<path d="M 91.5 44.5 L 92.0 44.0 L 93.0 43.0 L 94.0 42.0 L 95.0 41.0 L 96.0 40.0 L 96.66666666666667 39.0 L 97.33333333333333 38.0 L 98.0 37.0 L 98.66666666666667 36.0 L 99.33333333333333 35.0 L 100.0 34.0 L 100.66666666666667 33.0 L 100.66666666666667 32.0 L 100.0 31.333333333333332 L 99.0 31.333333333333332 L 98.33333333333333 32.0 L 97.66666666666667 33.0 L 97.33333333333333 34.0 L 96.66666666666667 35.0 L 96.0 36.0 L 95.0 37.0 L 94.33333333333333 38.0 L 93.66666666666667 39.0 L 93.0 40.0 L 92.0 41.0 L 91.0 42.0 L 90.0 43.0 L 89.0 43.666666666666664 L 88.0 44.333333333333336 L 87.0 45.0 L 86.0 46.0 L 85.0 46.666666666666664 L 84.0 47.333333333333336 L 83.0 47.666666666666664 L 82.0 48.333333333333336 L 81.0 48.666666666666664 L 80.0 49.333333333333336 L 79.0 49.666666666666664 L 78.0 50.333333333333336 L 77.0 50.666666666666664 L 76.0 51.0 L 75.0 51.333333333333336 L 74.0 51.666666666666664 L 73.0 52.0 L 72.0 52.0 L 71.0 52.333333333333336 L 70.0 52.666666666666664 L 69.0 53.0 L 68.0 53.0 L 67.0 53.0 L 66.0 53.0 L 65.0 53.0 L 64.0 53.0 L 63.0 53.0 L 62.0 53.0 L 61.0 53.0 L 60.0 53.0 L 59.0 52.666666666666664 L 58.0 52.333333333333336 L 57.0 52.0 L 56.0 52.0 L 55.0 51.666666666666664 L 54.0 51.333333333333336 L 53.0 51.0 L 52.0 50.666666666666664 L 51.0 50.333333333333336 L 50.0 49.666666666666664 L 49.0 49.333333333333336 L 48.0 48.666666666666664 L 47.0 48.333333333333336 L 46.0 47.666666666666664 L 45.0 47.333333333333336 L 44.0 46.666666666666664 L 43.0 46.0 L 42.0 45.0 L 41.0 44.333333333333336 L 40.0 43.666666666666664 L 39.0 43.0 L 38.0 42.0 L 37.0 41.0 L 36.333333333333336 40.0 L 35.666666666666664 39.0 L 35.0 38.0 L 34.0 37.0 L 33.333333333333336 36.0 L 32.666666666666664 35.0 L 32.0 34.0 L 31.333333333333332 33.0 L 30.666666666666668 32.333333333333336 L 30.0 32.0 L 29.333333333333332 32.333333333333336 L 29.0 33.0 L 29.333333333333332 34.0 L 29.666666666666668 35.0 L 30.333333333333332 36.0 L 31.0 37.0 L 31.666666666666668 38.0 L 32.333333333333336 39.0 L 33.0 40.0 L 34.0 41.0 L 35.0 42.0 L 36.0 43.0 L 37.0 44.0 L 38.0 45.0 L 39.0 46.0 L 40.0 46.666666666666664 L 41.0 47.333333333333336 L 42.0 48.0 L 43.0 48.666666666666664 L 44.0 49.333333333333336 L 45.0 50.0 L 46.0 50.666666666666664 L 47.0 51.0 L 48.0 51.333333333333336 L 49.0 51.666666666666664 L 50.0 52.333333333333336 L 51.0 52.666666666666664 L 52.0 53.0 L 53.0 53.333333333333336 L 54.0 53.666666666666664 L 55.0 54.0 L 56.0 54.0 L 57.0 54.0 L 58.0 54.333333333333336 L 59.0 54.666666666666664 L 60.0 55.0 L 61.0 55.0 L 62.0 55.0 L 63.0 55.0 L 64.0 55.0 L 65.0 55.0 L 66.0 55.0 L 67.0 55.0 L 68.0 55.0 L 69.0 55.0 L 70.0 54.666666666666664 L 71.0 54.333333333333336 L 72.0 54.0 L 73.0 54.0 L 74.0 54.0 L 75.0 53.666666666666664 L 76.0 53.333333333333336 L 77.0 53.0 L 78.0 52.666666666666664 L 79.0 52.333333333333336 L 80.0 51.666666666666664 L 81.0 51.333333333333336 L 82.0 51.0 L 83.0 50.666666666666664 L 84.0 50.0 L 85.0 49.333333333333336 L 86.0 48.666666666666664 L 87.0 48.333333333333336 L 88.0 47.666666666666664 L 89.0 47.0 L 90.0 46.0 L 90.5 45.5 Z" stroke="none" fill="rgb(241,241,241)" />
<path d="M 57.5 56.0 L 58.0 56.0 L 59.0 56.0 L 60.0 56.333333333333336 L 61.0 57.0 L 62.0 57.666666666666664 L 63.0 58.0 L 64.0 58.0 L 65.0 58.0 L 66.0 58.0 L 67.0 58.0 L 67.66666666666667 57.666666666666664 L 68.33333333333333 57.0 L 69.0 56.333333333333336 L 70.0 56.0 L 71.0 56.0 L 72.0 56.0 L 73.0 56.0 L 74.0 55.666666666666664 L 75.0 55.333333333333336 L 76.0 55.0 L 77.0 55.0 L 78.0 54.666666666666664 L 79.0 54.333333333333336 L 80.0 53.666666666666664 L 81.0 53.333333333333336 L 82.0 53.0 L 83.0 52.666666666666664 L 84.0 52.333333333333336 L 85.0 51.666666666666664 L 86.0 51.0 L 87.0 50.333333333333336 L 88.0 49.666666666666664 L 89.0 49.0 L 90.0 48.333333333333336 L 91.0 47.666666666666664 L 92.0 47.0 L 93.0 46.0 L 94.0 45.0 L 95.0 44.0 L 96.0 43.0 L 96.66666666666667 42.0 L 97.33333333333333 41.0 L 98.0 40.0 L 99.0 39.0 L 99.66666666666667 38.0 L 100.33333333333333 37.0 L 100.66666666666667 36.0 L 101.33333333333333 35.0 L 101.66666666666667 34.0 L 101.66666666666667 33.333333333333336 L 101.0 33.0 L 100.0 33.333333333333336 L 99.33333333333333 34.0 L 98.66666666666667 35.0 L 98.0 36.0 L 97.33333333333333 37.0 L 96.66666666666667 38.0 L 96.0 39.0 L 95.0 40.0 L 94.0 41.0 L 93.0 42.0 L 92.0 43.0 L 91.0 44.0 L 90.0 45.0 L 89.0 46.0 L 88.0 47.0 L 87.0 47.666666666666664 L 86.0 48.333333333333336 L 85.0 48.666666666666664 L 84.0 49.333333333333336 L 83.0 50.0 L 82.0 50.666666666666664 L 81.0 51.0 L 80.0 51.333333333333336 L 79.0 51.666666666666664 L 78.0 52.333333333333336 L 77.0 52.666666666666664 L 76.0 53.0 L 75.0 53.333333333333336 L 74.0 53.666666666666664 L 73.0 54.0 L 72.0 54.0 L 71.0 54.0 L 70.0 54.333333333333336 L 69.0 54.666666666666664 L 68.0 55.0 L 67.0 55.0 L 66.0 55.0 L 65.0 55.0 L 64.0 55.0 L 63.0 55.0 L 62.0 55.0 L 61.0 55.0 L 60.0 54.666666666666664 L 59.0 54.333333333333336 L 58.0 54.0 L 57.0 54.0 L 56.0 54.0 L 55.0 53.666666666666664 L 54.0 53.333333333333336 L 53.0 53.0 L 52.0 52.666666666666664 L 51.0 52.333333333333336 L 50.0 51.666666666666664 L 49.0 51.333333333333336 L 48.0 51.0 L 47.0 50.666666666666664 L 46.0 50.0 L 45.0 49.333333333333336 L 44.0 48.666666666666664 L 43.0 48.0 L 42.0 47.333333333333336 L 41.0 46.666666666666664 L 40.0 46.0 L 39.0 45.0 L 38.0 44.0 L 37.0 43.0 L 36.0 42.0 L 35.0 41.0 L 34.0 40.0 L 33.0 39.0 L 32.333333333333336 38.0 L 31.666666666666668 37.0 L 31.0 36.0 L 30.333333333333332 35.0 L 29.666666666666668 34.0 L 29.333333333333332 33.0 L 28.666666666666668 32.333333333333336 L 28.0 32.0 L 27.333333333333332 32.333333333333336 L 27.0 33.0 L 27.333333333333332 34.0 L 27.666666666666668 35.0 L 28.333333333333332 36.0 L 29.0 37.0 L 29.666666666666668 38.0 L 30.333333333333332 39.0 L 31.0 40.0 L 32.0 41.0 L 32.666666666666664 42.0 L 33.333333333333336 43.0 L 34.0 44.0 L 35.0 45.0 L 36.0 46.0 L 37.0 46.666666666666664 L 38.0 47.333333333333336 L 39.0 48.0 L 40.0 49.0 L 41.0 49.666666666666664 L 42.0 50.333333333333336 L 43.0 50.666666666666664 L 44.0 51.333333333333336 L 45.0 51.666666666666664 L 46.0 52.333333333333336 L 47.0 52.666666666666664 L 48.0 53.333333333333336 L 49.0 53.666666666666664 L 50.0 54.0 L 51.0 54.333333333333336 L 52.0 54.666666666666664 L 53.0 55.0 L 54.0 55.333333333333336 L 55.0 55.666666666666664 L 56.0 56.0 L 56.5 56.0 Z" stroke="none" fill="rgb(240,240,240)" />
<path d="M 56.5 58.0 L 57.0 58.0 L 58.0 58.0 L 59.0 58.0 L 60.0 58.0 L 61.0 58.0 L 61.666666666666664 57.666666666666664 L 61.666666666666664 57.0 L 61.0 56.333333333333336 L 60.0 56.0 L 59.0 56.0 L 58.0 56.0 L 57.0 56.0 L 56.0 55.666666666666664 L 55.0 55.333333333333336 L 54.0 55.0 L 53.0 54.666666666666664 L 52.0 54.333333333333336 L 51.0 54.0 L 50.0 53.666666666666664 L 49.0 53.333333333333336 L 48.0 52.666666666666664 L 47.0 52.333333333333336 L 46.0 51.666666666666664 L 45.0 51.333333333333336 L 44.0 50.666666666666664 L 43.0 50.333333333333336 L 42.0 49.666666666666664 L 41.0 49.0 L 40.0 48.0 L 39.0 47.333333333333336 L 38.0 46.666666666666664 L 37.0 46.0 L 36.0 45.0 L 35.0 44.0 L 34.0 43.0 L 33.333333333333336 42.0 L 32.666666666666664 41.0 L 32.0 40.0 L 31.0 39.0 L 30.333333333333332 38.0 L 29.666666666666668 37.0 L 29.0 36.0 L 28.333333333333332 35.0 L 27.666666666666668 34.333333333333336 L 27.0 34.0 L 26.333333333333332 34.333333333333336 L 26.0 35.0 L 26.333333333333332 36.0 L 26.666666666666668 37.0 L 27.333333333333332 38.0 L 28.0 39.0 L 28.666666666666668 40.0 L 29.333333333333332 41.0 L 30.0 42.0 L 31.0 43.0 L 32.0 44.0 L 33.0 45.0 L 34.0 46.0 L 35.0 47.0 L 36.0 48.0 L 37.0 49.0 L 38.0 49.666666666666664 L 39.0 50.333333333333336 L 40.0 51.0 L 41.0 51.666666666666664 L 42.0 52.333333333333336 L 43.0 52.666666666666664 L 44.0 53.333333333333336 L 45.0 53.666666666666664 L 46.0 54.333333333333336 L 47.0 54.666666666666664 L 48.0 55.333333333333336 L 49.0 55.666666666666664 L 50.0 56.0 L 51.0 56.333333333333336 L 52.0 56.666666666666664 L 53.0 57.0 L 54.0 57.0 L 55.0 57.333333333333336 L 55.5 57.5 Z" stroke="none" fill="rgb(239,239,239)" />
<path d="M 75.5 57.0 L 76.0 57.0 L 77.0 56.666666666666664 L 78.0 56.333333333333336 L 79.0 56.0 L 80.0 55.666666666666664 L 81.0 55.333333333333336 L 82.0 54.666666666666664 L 83.0 54.333333333333336 L 84.0 54.0 L 85.0 53.666666666666664 L 86.0 53.0 L 87.0 52.333333333333336 L 88.0 51.666666666666664 L 89.0 51.0 L 90.0 50.333333333333336 L 91.0 49.666666666666664 L 92.0 49.0 L 93.0 48.0 L 94.0 47.0 L 95.0 46.0 L 96.0 45.0 L 97.0 44.0 L 98.0 43.0 L 99.0 42.0 L 99.66666666666667 41.0 L 100.33333333333333 40.0 L 101.0 39.0 L 101.66666666666667 38.0 L 102.33333333333333 37.0 L 102.66666666666667 36.0 L 103.0 35.0 L 102.66666666666667 34.333333333333336 L 102.0 34.0 L 101.33333333333333 34.333333333333336 L 100.66666666666667 35.0 L 100.33333333333333 36.0 L 99.66666666666667 37.0 L 99.0 38.0 L 98.0 39.0 L 97.33333333333333 40.0 L 96.66666666666667 41.0 L 96.0 42.0 L 95.0 43.0 L 94.0 44.0 L 93.0 45.0 L 92.0 46.0 L 91.0 47.0 L 90.0 47.666666666666664 L 89.0 48.333333333333336 L 88.0 49.0 L 87.0 49.666666666666664 L 86.0 50.333333333333336 L 85.0 51.0 L 84.0 51.666666666666664 L 83.0 52.333333333333336 L 82.0 52.666666666666664 L 81.0 53.0 L 80.0 53.333333333333336 L 79.0 53.666666666666664 L 78.0 54.333333333333336 L 77.0 54.666666666666664 L 76.0 55.0 L 75.0 55.0 L 74.0 55.333333333333336 L 73.0 55.666666666666664 L 72.0 56.0 L 71.0 56.0 L 70.0 56.0 L 69.0 56.0 L 68.33333333333333 56.333333333333336 L 68.0 57.0 L 68.33333333333333 57.666666666666664 L 69.0 58.0 L 70.0 58.0 L 71.0 58.0 L 72.0 58.0 L 73.0 57.666666666666664 L 74.0 57.333333333333336 L 74.5 57.0 Z" stroke="none" fill="rgb(239,239,239)" />
<path d="M 40.5 53.5 L 41.0 53.666666666666664 L 42.0 54.333333333333336 L 43.0 54.666666666666664 L 44.0 55.333333333333336 L 45.0 55.666666666666664 L 46.0 56.333333333333336 L 47.0 56.666666666666664 L 48.0 57.0 L 49.0 57.333333333333336 L 50.0 57.666666666666664 L 51.0 58.0 L 52.0 58.333333333333336 L 53.0 58.666666666666664 L 54.0 59.0 L 55.0 59.0 L 56.0 59.333333333333336 L 57.0 59.666666666666664 L 58.0 60.0 L 59.0 60.0 L 60.0 60.0 L 61.0 60.0 L 62.0 60.0 L 63.0 60.0 L 64.0 60.0 L 65.0 60.0 L 66.0 60.0 L 67.0 60.0 L 68.0 60.0 L 69.0 60.0 L 70.0 60.0 L 71.0 60.0 L 72.0 59.666666666666664 L 73.0 59.333333333333336 L 74.0 59.0 L 75.0 59.0 L 76.0 58.666666666666664 L 77.0 58.333333333333336 L 78.0 58.0 L 79.0 57.666666666666664 L 80.0 57.333333333333336 L 81.0 57.0 L 82.0 56.666666666666664 L 83.0 56.333333333333336 L 84.0 55.666666666666664 L 85.0 55.333333333333336 L 86.0 54.666666666666664 L 87.0 54.333333333333336 L 88.0 53.666666666666664 L 89.0 53.333333333333336 L 90.0 52.666666666666664 L 91.0 52.0 L 92.0 51.0 L 93.0 50.333333333333336 L 94.0 49.666666666666664 L 95.0 49.0 L 96.0 48.0 L 97.0 47.0 L 98.0 46.0 L 98.66666666666667 45.0 L 99.33333333333333 44.0 L 100.0 43.0 L 101.0 42.0 L 101.66666666666667 41.0 L 102.33333333333333 40.0 L 103.0 39.0 L 104.0 38.0 L 104.66666666666667 37.0 L 104.66666666666667 36.0 L 104.0 35.333333333333336 L 103.0 35.333333333333336 L 102.33333333333333 36.0 L 101.66666666666667 37.0 L 101.0 38.0 L 100.33333333333333 39.0 L 99.66666666666667 40.0 L 99.0 41.0 L 98.0 42.0 L 97.0 43.0 L 96.0 44.0 L 95.0 45.0 L 94.0 46.0 L 93.0 47.0 L 92.0 48.0 L 91.0 49.0 L 90.0 49.666666666666664 L 89.0 50.333333333333336 L 88.0 51.0 L 87.0 51.666666666666664 L 86.0 52.333333333333336 L 85.0 53.0 L 84.0 53.666666666666664 L 83.0 54.0 L 82.0 54.333333333333336 L 81.0 54.666666666666664 L 80.0 55.333333333333336 L 79.0 55.666666666666664 L 78.0 56.0 L 77.0 56.333333333333336 L 76.0 56.666666666666664 L 75.0 57.0 L 74.0 57.0 L 73.0 57.333333333333336 L 72.0 57.666666666666664 L 71.0 58.0 L 70.0 58.0 L 69.0 58.0 L 68.0 58.0 L 67.0 58.0 L 66.0 58.0 L 65.0 58.0 L 64.0 58.0 L 63.0 58.0 L 62.0 58.0 L 61.0 58.0 L 60.0 58.0 L 59.0 58.0 L 58.0 58.0 L 57.0 57.666666666666664 L 56.0 57.333333333333336 L 55.0 57.0 L 54.0 57.0 L 53.0 56.666666666666664 L 52.0 56.333333333333336 L 51.0 56.0 L 50.0 55.666666666666664 L 49.0 55.333333333333336 L 48.0 54.666666666666664 L 47.0 54.333333333333336 L 46.0 53.666666666666664 L 45.0 53.333333333333336 L 44.0 52.666666666666664 L 43.0 52.333333333333336 L 42.0 51.666666666666664 L 41.0 51.0 L 40.0 50.333333333333336 L 39.0 49.666666666666664 L 38.0 49.0 L 37.0 48.0 L 36.0 47.0 L 35.0 46.0 L 34.0 45.0 L 33.0 44.0 L 32.0 43.0 L 31.0 42.0 L 30.0 41.0 L 29.333333333333332 40.0 L 28.666666666666668 39.0 L 28.0 38.0 L 27.333333333333332 37.0 L 26.666666666666668 36.333333333333336 L 26.0 36.0 L 25.333333333333332 36.333333333333336 L 25.0 37.0 L 25.333333333333332 38.0 L 26.0 39.0 L 26.666666666666668 40.0 L 27.333333333333332 41.0 L 28.0 42.0 L 29.0 43.0 L 30.0 44.0 L 30.666666666666668 45.0 L 31.333333333333332 46.0 L 32.0 47.0 L 33.0 48.0 L 34.0 48.666666666666664 L 35.0 49.333333333333336 L 36.0 50.0 L 37.0 51.0 L 38.0 51.666666666666664 L 39.0 52.333333333333336 L 39.5 52.5 Z" stroke="none" fill="rgb(238,238,238)" />
<path d="M 23.5 44.5 L 24.0 45.0 L 25.0 46.0 L 26.0 47.0 L 26.666666666666668 48.0 L 27.333333333333332 49.0 L 28.0 50.0 L 29.0 51.0 L 30.0 52.0 L 31.0 52.666666666666664 L 32.0 53.333333333333336 L 33.0 54.0 L 34.0 55.0 L 35.0 55.666666666666664 L 36.0 56.333333333333336 L 37.0 57.0 L 38.0 57.666666666666664 L 39.0 58.333333333333336 L 40.0 58.666666666666664 L 41.0 59.333333333333336 L 42.0 59.666666666666664 L 43.0 60.333333333333336 L 44.0 60.666666666666664 L 45.0 61.333333333333336 L 46.0 61.666666666666664 L 47.0 62.0 L 48.0 62.333333333333336 L 49.0 62.666666666666664 L 50.0 63.0 L 51.0 63.333333333333336 L 52.0 63.666666666666664 L 53.0 64.0 L 54.0 64.0 L 55.0 64.0 L 56.0 64.33333333333333 L 57.0 64.66666666666667 L 58.0 65.0 L 59.0 65.0 L 60.0 65.0 L 61.0 65.0 L 62.0 65.0 L 63.0 65.0 L 64.0 65.0 L 65.0 65.0 L 66.0 65.0 L 67.0 65.0 L 68.0 65.0 L 69.0 65.0 L 70.0 65.0 L 71.0 65.0 L 72.0 64.66666666666667 L 73.0 64.33333333333333 L 74.0 64.0 L 75.0 64.0 L 76.0 64.0 L 77.0 63.666666666666664 L 78.0 63.333333333333336 L 79.0 63.0 L 80.0 62.666666666666664 L 81.0 62.333333333333336 L 82.0 62.0 L 83.0 61.666666666666664 L 84.0 61.333333333333336 L 85.0 60.666666666666664 L 86.0 60.333333333333336 L 87.0 59.666666666666664 L 88.0 59.333333333333336 L 89.0 58.666666666666664 L 90.0 58.333333333333336 L 91.0 57.666666666666664 L 92.0 57.333333333333336 L 93.0 56.666666666666664 L 94.0 56.0 L 95.0 55.0 L 96.0 54.0 L 97.0 53.333333333333336 L 98.0 52.666666666666664 L 99.0 52.0 L 100.0 51.0 L 101.0 50.0 L 102.0 49.0 L 102.66666666666667 48.0 L 103.33333333333333 47.0 L 104.0 46.0 L 105.0 45.0 L 105.66666666666667 44.0 L 106.33333333333333 43.0 L 107.0 42.0 L 107.66666666666667 41.0 L 108.0 40.0 L 107.66666666666667 39.0 L 107.0 38.333333333333336 L 106.0 38.0 L 105.0 38.333333333333336 L 104.33333333333333 39.0 L 103.66666666666667 40.0 L 103.0 41.0 L 102.33333333333333 42.0 L 101.66666666666667 43.0 L 101.0 44.0 L 100.0 45.0 L 99.0 46.0 L 98.0 47.0 L 97.0 48.0 L 96.0 49.0 L 95.0 50.0 L 94.0 51.0 L 93.0 51.666666666666664 L 92.0 52.333333333333336 L 91.0 53.0 L 90.0 54.0 L 89.0 54.666666666666664 L 88.0 55.333333333333336 L 87.0 55.666666666666664 L 86.0 56.333333333333336 L 85.0 56.666666666666664 L 84.0 57.333333333333336 L 83.0 57.666666666666664 L 82.0 58.333333333333336 L 81.0 58.666666666666664 L 80.0 59.0 L 79.0 59.333333333333336 L 78.0 59.666666666666664 L 77.0 60.0 L 76.0 60.0 L 75.0 60.333333333333336 L 74.0 60.666666666666664 L 73.0 61.0 L 72.0 61.0 L 71.0 61.0 L 70.0 61.333333333333336 L 69.0 61.666666666666664 L 68.0 62.0 L 67.0 62.0 L 66.0 62.0 L 65.0 62.0 L 64.0 62.0 L 63.0 62.0 L 62.0 62.0 L 61.0 62.0 L 60.0 61.666666666666664 L 59.0 61.333333333333336 L 58.0 61.0 L 57.0 61.0 L 56.0 61.0 L 55.0 60.666666666666664 L 54.0 60.333333333333336 L 53.0 60.0 L 52.0 60.0 L 51.0 59.666666666666664 L 50.0 59.333333333333336 L 49.0 59.0 L 48.0 58.666666666666664 L 47.0 58.333333333333336 L 46.0 57.666666666666664 L 45.0 57.333333333333336 L 44.0 56.666666666666664 L 43.0 56.333333333333336 L 42.0 55.666666666666664 L 41.0 55.0 L 40.0 54.333333333333336 L 39.0 53.666666666666664 L 38.0 53.0 L 37.0 52.333333333333336 L 36.0 51.666666666666664 L 35.0 51.0 L 34.0 50.0 L 33.0 49.0 L 32.0 48.0 L 31.0 47.0 L 30.0 46.0 L 29.0 45.0 L 28.333333333333332 44.0 L 27.666666666666668 43.0 L 27.0 42.0 L 26.0 41.0 L 25.333333333333332 40.0 L 24.666666666666668 39.0 L 24.333333333333332 38.0 L 23.666666666666668 37.333333333333336 L 23.0 37.0 L 22.0 37.333333333333336 L 21.333333333333332 38.0 L 21.0 39.0 L 21.333333333333332 40.0 L 21.666666666666668 41.0 L 22.333333333333332 42.0 L 22.666666666666668 43.0 L 23.0 43.5 Z" stroke="none" fill="rgb(235,235,235)" />
<path d="M 40.5 55.5 L 41.0 55.666666666666664 L 42.0 56.333333333333336 L 43.0 56.666666666666664 L 44.0 57.333333333333336 L 45.0 57.666666666666664 L 46.0 58.333333333333336 L 47.0 58.666666666666664 L 48.0 59.0 L 49.0 59.333333333333336 L 50.0 59.666666666666664 L 51.0 60.0 L 52.0 60.0 L 53.0 60.333333333333336 L 54.0 60.666666666666664 L 55.0 61.0 L 56.0 61.0 L 57.0 61.0 L 58.0 61.333333333333336 L 59.0 61.666666666666664 L 60.0 62.0 L 61.0 62.0 L 62.0 62.0 L 63.0 62.0 L 64.0 62.0 L 65.0 62.0 L 66.0 62.0 L 67.0 62.0 L 68.0 62.0 L 69.0 62.0 L 70.0 61.666666666666664 L 71.0 61.333333333333336 L 72.0 61.0 L 73.0 61.0 L 74.0 61.0 L 75.0 60.666666666666664 L 76.0 60.333333333333336 L 77.0 60.0 L 78.0 60.0 L 79.0 59.666666666666664 L 80.0 59.333333333333336 L 81.0 59.0 L 82.0 58.666666666666664 L 83.0 58.333333333333336 L 84.0 57.666666666666664 L 85.0 57.333333333333336 L 86.0 56.666666666666664 L 87.0 56.333333333333336 L 88.0 55.666666666666664 L 89.0 55.333333333333336 L 90.0 54.666666666666664 L 91.0 54.0 L 92.0 53.0 L 93.0 52.333333333333336 L 94.0 51.666666666666664 L 95.0 51.0 L 96.0 50.0 L 97.0 49.0 L 98.0 48.0 L 99.0 47.0 L 100.0 46.0 L 101.0 45.0 L 101.66666666666667 44.0 L 102.33333333333333 43.0 L 103.0 42.0 L 103.66666666666667 41.0 L 104.33333333333333 40.0 L 105.0 39.0 L 105.66666666666667 38.0 L 105.66666666666667 37.333333333333336 L 105.0 37.0 L 104.0 37.333333333333336 L 103.0 38.0 L 102.33333333333333 39.0 L 101.66666666666667 40.0 L 101.0 41.0 L 100.0 42.0 L 99.33333333333333 43.0 L 98.66666666666667 44.0 L 98.0 45.0 L 97.0 46.0 L 96.0 47.0 L 95.0 48.0 L 94.0 49.0 L 93.0 49.666666666666664 L 92.0 50.333333333333336 L 91.0 51.0 L 90.0 52.0 L 89.0 52.666666666666664 L 88.0 53.333333333333336 L 87.0 53.666666666666664 L 86.0 54.333333333333336 L 85.0 54.666666666666664 L 84.0 55.333333333333336 L 83.0 55.666666666666664 L 82.0 56.333333333333336 L 81.0 56.666666666666664 L 80.0 57.0 L 79.0 57.333333333333336 L 78.0 57.666666666666664 L 77.0 58.0 L 76.0 58.333333333333336 L 75.0 58.666666666666664 L 74.0 59.0 L 73.0 59.0 L 72.0 59.333333333333336 L 71.0 59.666666666666664 L 70.0 60.0 L 69.0 60.0 L 68.0 60.0 L 67.0 60.0 L 66.0 60.0 L 65.0 60.0 L 64.0 60.0 L 63.0 60.0 L 62.0 60.0 L 61.0 60.0 L 60.0 60.0 L 59.0 60.0 L 58.0 59.666666666666664 L 57.0 59.333333333333336 L 56.0 59.0 L 55.0 59.0 L 54.0 58.666666666666664 L 53.0 58.333333333333336 L 52.0 58.0 L 51.0 57.666666666666664 L 50.0 57.333333333333336 L 49.0 57.0 L 48.0 56.666666666666664 L 47.0 56.333333333333336 L 46.0 55.666666666666664 L 45.0 55.333333333333336 L 44.0 54.666666666666664 L 43.0 54.333333333333336 L 42.0 53.666666666666664 L 41.0 53.0 L 40.0 52.333333333333336 L 39.0 51.666666666666664 L 38.0 51.0 L 37.0 50.0 L 36.0 49.333333333333336 L 35.0 48.666666666666664 L 34.0 48.0 L 33.0 47.0 L 32.0 46.0 L 31.333333333333332 45.0 L 30.666666666666668 44.0 L 30.0 43.0 L 29.0 42.0 L 28.0 41.0 L 27.333333333333332 40.0 L 26.666666666666668 39.0 L 26.0 38.0 L 25.0 37.333333333333336 L 24.333333333333332 37.333333333333336 L 24.0 38.0 L 24.333333333333332 39.0 L 24.666666666666668 40.0 L 25.333333333333332 41.0 L 26.0 42.0 L 27.0 43.0 L 27.666666666666668 44.0 L 28.333333333333332 45.0 L 29.0 46.0 L 30.0 47.0 L 31.0 48.0 L 32.0 49.0 L 33.0 50.0 L 34.0 51.0 L 35.0 51.666666666666664 L 36.0 52.333333333333336 L 37.0 53.0 L 38.0 53.666666666666664 L 39.0 54.333333333333336 L 39.5 54.5 Z" stroke="none" fill="rgb(237,237,237)" />
<path d="M 23.5 49.5 L 24.0 50.0 L 25.0 51.0 L 26.0 52.0 L 27.0 53.0 L 28.0 54.0 L 29.0 55.0 L 30.0 56.0 L 31.0 56.666666666666664 L 32.0 57.333333333333336 L 33.0 58.0 L 34.0 59.0 L 35.0 59.666666666666664 L 36.0 60.333333333333336 L 37.0 60.666666666666664 L 38.0 61.333333333333336 L 39.0 61.666666666666664 L 40.0 62.333333333333336 L 41.0 62.666666666666664 L 42.0 63.333333333333336 L 43.0 63.666666666666664 L 44.0 64.33333333333333 L 45.0 64.66666666666667 L 46.0 65.0 L 47.0 65.33333333333333 L 48.0 65.66666666666667 L 49.0 66.0 L 50.0 66.33333333333333 L 51.0 66.66666666666667 L 52.0 67.0 L 53.0 67.0 L 54.0 67.0 L 55.0 67.33333333333333 L 56.0 68.0 L 57.0 68.66666666666667 L 58.0 69.0 L 59.0 69.0 L 60.0 69.0 L 61.0 69.0 L 62.0 69.0 L 63.0 69.0 L 64.0 69.0 L 65.0 69.0 L 66.0 69.0 L 67.0 69.0 L 68.0 69.0 L 69.0 69.0 L 70.0 69.0 L 71.0 69.0 L 72.0 69.0 L 72.66666666666667 68.66666666666667 L 73.33333333333333 68.0 L 74.0 67.33333333333333 L 75.0 67.0 L 76.0 67.0 L 77.0 67.0 L 78.0 66.66666666666667 L 79.0 66.33333333333333 L 80.0 66.0 L 81.0 65.66666666666667 L 82.0 65.33333333333333 L 83.0 65.0 L 84.0 64.66666666666667 L 85.0 64.33333333333333 L 86.0 63.666666666666664 L 87.0 63.333333333333336 L 88.0 63.0 L 89.0 62.666666666666664 L 90.0 62.0 L 91.0 61.333333333333336 L 92.0 60.666666666666664 L 93.0 60.333333333333336 L 94.0 59.666666666666664 L 95.0 59.0 L 96.0 58.333333333333336 L 97.0 57.666666666666664 L 98.0 57.0 L 99.0 56.0 L 100.0 55.0 L 101.0 54.0 L 102.0 53.0 L 103.0 52.0 L 104.0 51.0 L 105.0 50.0 L 106.0 49.0 L 106.66666666666667 48.0 L 107.33333333333333 47.0 L 108.0 46.0 L 109.0 45.333333333333336 L 109.66666666666667 44.666666666666664 L 110.0 44.0 L 110.0 43.0 L 109.66666666666667 42.0 L 109.0 41.333333333333336 L 108.0 41.0 L 107.0 41.333333333333336 L 106.33333333333333 42.0 L 105.66666666666667 43.0 L 105.0 44.0 L 104.0 45.0 L 103.33333333333333 46.0 L 102.66666666666667 47.0 L 102.0 48.0 L 101.0 49.0 L 100.0 50.0 L 99.0 51.0 L 98.0 52.0 L 97.0 52.666666666666664 L 96.0 53.333333333333336 L 95.0 54.0 L 94.0 55.0 L 93.0 56.0 L 92.0 56.666666666666664 L 91.0 57.333333333333336 L 90.0 57.666666666666664 L 89.0 58.333333333333336 L 88.0 58.666666666666664 L 87.0 59.333333333333336 L 86.0 59.666666666666664 L 85.0 60.333333333333336 L 84.0 60.666666666666664 L 83.0 61.333333333333336 L 82.0 61.666666666666664 L 81.0 62.0 L 80.0 62.333333333333336 L 79.0 62.666666666666664 L 78.0 63.0 L 77.0 63.333333333333336 L 76.0 63.666666666666664 L 75.0 64.0 L 74.0 64.0 L 73.0 64.0 L 72.0 64.33333333333333 L 71.0 64.66666666666667 L 70.0 65.0 L 69.0 65.0 L 68.0 65.0 L 67.0 65.0 L 66.0 65.0 L 65.0 65.0 L 64.0 65.0 L 63.0 65.0 L 62.0 65.0 L 61.0 65.0 L 60.0 65.0 L 59.0 65.0 L 58.0 64.66666666666667 L 57.0 64.33333333333333 L 56.0 64.0 L 55.0 64.0 L 54.0 64.0 L 53.0 63.666666666666664 L 52.0 63.333333333333336 L 51.0 63.0 L 50.0 62.666666666666664 L 49.0 62.333333333333336 L 48.0 62.0 L 47.0 61.666666666666664 L 46.0 61.333333333333336 L 45.0 60.666666666666664 L 44.0 60.333333333333336 L 43.0 59.666666666666664 L 42.0 59.333333333333336 L 41.0 58.666666666666664 L 40.0 58.333333333333336 L 39.0 57.666666666666664 L 38.0 57.0 L 37.0 56.333333333333336 L 36.0 55.666666666666664 L 35.0 55.0 L 34.0 54.0 L 33.0 53.333333333333336 L 32.0 52.666666666666664 L 31.0 52.0 L 30.0 51.0 L 29.0 50.0 L 28.0 49.0 L 27.333333333333332 48.0 L 26.666666666666668 47.0 L 26.0 46.0 L 25.0 45.0 L 24.0 44.0 L 23.333333333333332 43.0 L 22.666666666666668 42.0 L 22.333333333333332 41.0 L 21.666666666666668 40.333333333333336 L 21.0 40.0 L 20.0 40.333333333333336 L 19.333333333333332 41.0 L 19.0 42.0 L 19.333333333333332 43.0 L 19.666666666666668 44.0 L 20.333333333333332 45.0 L 21.0 46.0 L 21.666666666666668 47.0 L 22.333333333333332 48.0 L 22.5 48.5 Z" stroke="none" fill="rgb(234,234,234)" />
<path d="M 23.5 51.5 L 24.0 52.0 L 25.0 53.0 L 26.0 54.0 L 27.0 55.0 L 28.0 56.0 L 29.0 57.0 L 30.0 58.0 L 31.0 58.666666666666664 L 32.0 59.333333333333336 L 33.0 60.0 L 34.0 60.666666666666664 L 35.0 61.333333333333336 L 36.0 62.0 L 37.0 62.666666666666664 L 38.0 63.333333333333336 L 39.0 63.666666666666664 L 40.0 64.33333333333333 L 41.0 64.66666666666667 L 42.0 65.33333333333333 L 43.0 65.66666666666667 L 44.0 66.0 L 45.0 66.33333333333333 L 46.0 67.0 L 47.0 67.66666666666667 L 48.0 68.0 L 49.0 68.33333333333333 L 50.0 68.66666666666667 L 51.0 69.0 L 52.0 69.0 L 53.0 69.0 L 54.0 69.0 L 55.0 69.0 L 56.0 69.0 L 56.666666666666664 68.66666666666667 L 56.666666666666664 68.0 L 56.0 67.33333333333333 L 55.0 67.0 L 54.0 67.0 L 53.0 67.0 L 52.0 66.66666666666667 L 51.0 66.33333333333333 L 50.0 66.0 L 49.0 65.66666666666667 L 48.0 65.33333333333333 L 47.0 65.0 L 46.0 64.66666666666667 L 45.0 64.33333333333333 L 44.0 63.666666666666664 L 43.0 63.333333333333336 L 42.0 62.666666666666664 L 41.0 62.333333333333336 L 40.0 61.666666666666664 L 39.0 61.333333333333336 L 38.0 60.666666666666664 L 37.0 60.333333333333336 L 36.0 59.666666666666664 L 35.0 59.0 L 34.0 58.0 L 33.0 57.333333333333336 L 32.0 56.666666666666664 L 31.0 56.0 L 30.0 55.0 L 29.0 54.0 L 28.0 53.0 L 27.0 52.0 L 26.0 51.0 L 25.0 50.0 L 24.0 49.0 L 23.0 48.0 L 22.333333333333332 47.0 L 21.666666666666668 46.0 L 21.0 45.0 L 20.333333333333332 44.0 L 19.666666666666668 43.333333333333336 L 19.0 43.0 L 18.333333333333332 43.333333333333336 L 18.0 44.0 L 18.0 45.0 L 18.333333333333332 46.0 L 19.0 47.0 L 20.0 48.0 L 21.0 49.0 L 22.0 50.0 L 22.5 50.5 Z" stroke="none" fill="rgb(232,232,232)" />
<path d="M 105.5 51.5 L 106.0 51.0 L 107.0 50.0 L 108.0 49.0 L 108.66666666666667 48.0 L 109.33333333333333 47.0 L 109.66666666666667 46.0 L 109.66666666666667 45.333333333333336 L 109.0 45.0 L 108.0 45.333333333333336 L 107.33333333333333 46.0 L 106.66666666666667 47.0 L 106.0 48.0 L 105.0 49.0 L 104.0 50.0 L 103.0 51.0 L 102.0 52.0 L 101.0 53.0 L 100.0 54.0 L 99.0 55.0 L 98.0 56.0 L 97.0 57.0 L 96.0 57.666666666666664 L 95.0 58.333333333333336 L 94.0 59.0 L 93.0 59.666666666666664 L 92.0 60.333333333333336 L 91.0 60.666666666666664 L 90.0 61.333333333333336 L 89.0 62.0 L 88.0 62.666666666666664 L 87.0 63.0 L 86.0 63.333333333333336 L 85.0 63.666666666666664 L 84.0 64.33333333333333 L 83.0 64.66666666666667 L 82.0 65.0 L 81.0 65.33333333333333 L 80.0 65.66666666666667 L 79.0 66.0 L 78.0 66.33333333333333 L 77.0 66.66666666666667 L 76.0 67.0 L 75.0 67.0 L 74.0 67.0 L 73.33333333333333 67.33333333333333 L 73.0 68.0 L 73.33333333333333 68.66666666666667 L 74.0 69.0 L 75.0 69.0 L 76.0 69.0 L 77.0 69.0 L 78.0 69.0 L 79.0 68.66666666666667 L 80.0 68.33333333333333 L 81.0 68.0 L 82.0 68.0 L 82.66666666666667 67.66666666666667 L 83.33333333333333 67.0 L 84.0 66.33333333333333 L 85.0 66.0 L 86.0 65.66666666666667 L 87.0 65.33333333333333 L 88.0 64.66666666666667 L 89.0 64.33333333333333 L 90.0 63.666666666666664 L 91.0 63.333333333333336 L 92.0 62.666666666666664 L 93.0 62.0 L 94.0 61.333333333333336 L 95.0 60.666666666666664 L 96.0 60.0 L 97.0 59.333333333333336 L 98.0 58.666666666666664 L 99.0 58.0 L 100.0 57.0 L 101.0 56.0 L 102.0 55.0 L 103.0 54.0 L 104.0 53.0 L 104.5 52.5 Z" stroke="none" fill="rgb(232,232,232)" />
<path d="M 105.5 54.5 L 105.66666666666667 54.0 L 106.33333333333333 53.0 L 107.0 52.0 L 108.0 51.0 L 109.0 50.0 L 109.66666666666667 49.0 L 110.33333333333333 48.0 L 110.66666666666667 47.0 L 111.0 46.0 L 110.66666666666667 45.333333333333336 L 110.0 45.333333333333336 L 109.33333333333333 46.0 L 108.66666666666667 47.0 L 108.0 48.0 L 107.0 49.0 L 106.0 50.0 L 105.0 51.0 L 104.0 52.0 L 103.0 53.0 L 102.0 54.0 L 101.0 55.0 L 100.0 56.0 L 99.0 57.0 L 98.0 58.0 L 97.0 58.666666666666664 L 96.0 59.333333333333336 L 95.0 60.0 L 94.0 60.666666666666664 L 93.0 61.333333333333336 L 92.0 62.0 L 91.0 62.666666666666664 L 90.0 63.333333333333336 L 89.0 63.666666666666664 L 88.0 64.33333333333333 L 87.0 64.66666666666667 L 86.0 65.33333333333333 L 85.0 65.66666666666667 L 84.0 66.0 L 83.33333333333333 66.33333333333333 L 83.0 67.0 L 83.33333333333333 67.66666666666667 L 84.0 68.0 L 85.0 68.0 L 86.0 68.0 L 86.66666666666667 67.66666666666667 L 87.33333333333333 67.0 L 88.0 66.33333333333333 L 89.0 65.66666666666667 L 90.0 65.33333333333333 L 91.0 64.66666666666667 L 92.0 64.33333333333333 L 93.0 63.666666666666664 L 94.0 63.333333333333336 L 95.0 62.666666666666664 L 96.0 62.0 L 97.0 61.333333333333336 L 98.0 60.666666666666664 L 99.0 60.0 L 100.0 59.0 L 101.0 58.0 L 102.0 57.333333333333336 L 103.0 56.666666666666664 L 104.0 56.0 L 104.5 55.5 Z" stroke="none" fill="rgb(231,231,231)" />
<path d="M 39.5 67.5 L 40.0 67.66666666666667 L 41.0 68.0 L 42.0 68.0 L 42.666666666666664 67.66666666666667 L 42.666666666666664 67.0 L 42.0 66.33333333333333 L 41.0 65.66666666666667 L 40.0 65.33333333333333 L 39.0 64.66666666666667 L 38.0 64.33333333333333 L 37.0 63.666666666666664 L 36.0 63.333333333333336 L 35.0 62.666666666666664 L 34.0 62.0 L 33.0 61.333333333333336 L 32.0 60.666666666666664 L 31.333333333333332 60.0 L 31.0 59.0 L 30.666666666666668 58.0 L 30.0 57.0 L 29.0 56.0 L 28.0 55.0 L 27.0 54.0 L 26.0 53.0 L 25.0 52.0 L 24.0 51.0 L 23.0 50.0 L 22.0 49.0 L 21.0 48.0 L 20.0 47.0 L 19.0 46.333333333333336 L 18.0 46.0 L 17.0 46.333333333333336 L 16.333333333333332 47.0 L 16.0 48.0 L 16.0 49.0 L 16.333333333333332 50.0 L 17.0 51.0 L 18.0 52.0 L 19.0 53.0 L 19.666666666666668 54.0 L 20.333333333333332 55.0 L 21.0 56.0 L 22.0 57.0 L 23.0 58.0 L 24.0 59.0 L 25.0 59.666666666666664 L 26.0 60.333333333333336 L 27.0 61.0 L 28.0 62.0 L 29.0 63.0 L 30.0 63.666666666666664 L 31.0 64.33333333333333 L 32.0 64.66666666666667 L 33.0 65.33333333333333 L 34.0 66.0 L 35.0 66.66666666666667 L 36.0 67.0 L 37.0 67.0 L 38.0 67.0 L 38.5 67.0 Z" stroke="none" fill="rgb(230,230,230)" />
<path d="M 99.5 63.5 L 100.0 63.0 L 101.0 62.0 L 102.0 61.333333333333336 L 103.0 60.666666666666664 L 104.0 60.0 L 105.0 59.0 L 106.0 58.0 L 107.0 57.0 L 108.0 56.0 L 109.0 55.0 L 109.66666666666667 54.0 L 110.33333333333333 53.0 L 111.0 52.0 L 112.0 51.0 L 112.66666666666667 50.0 L 113.0 49.0 L 112.66666666666667 48.0 L 112.0 47.333333333333336 L 111.0 47.0 L 110.33333333333333 47.333333333333336 L 109.66666666666667 48.0 L 109.0 49.0 L 108.0 50.0 L 107.0 51.0 L 106.33333333333333 52.0 L 105.66666666666667 53.0 L 105.0 54.0 L 104.0 55.0 L 103.0 56.0 L 102.0 56.666666666666664 L 101.0 57.333333333333336 L 100.0 58.0 L 99.0 59.0 L 98.0 60.0 L 97.0 60.666666666666664 L 96.0 61.333333333333336 L 95.0 62.0 L 94.0 62.666666666666664 L 93.0 63.333333333333336 L 92.0 63.666666666666664 L 91.0 64.33333333333333 L 90.0 64.66666666666667 L 89.0 65.33333333333333 L 88.0 65.66666666666667 L 87.33333333333333 66.33333333333333 L 87.33333333333333 66.66666666666667 L 88.0 67.0 L 89.0 67.0 L 90.0 67.0 L 91.0 67.0 L 92.0 67.0 L 93.0 67.0 L 94.0 67.0 L 95.0 66.66666666666667 L 96.0 66.33333333333333 L 96.66666666666667 65.66666666666667 L 97.33333333333333 65.0 L 98.0 64.33333333333333 L 98.5 64.0 Z" stroke="none" fill="rgb(230,230,230)" />
<path d="M 14.5 54.5 L 15.0 55.0 L 15.666666666666666 56.0 L 16.333333333333332 57.0 L 17.0 58.0 L 18.0 59.0 L 19.0 60.0 L 20.0 61.0 L 21.0 62.0 L 22.0 63.0 L 23.0 63.666666666666664 L 24.0 64.33333333333333 L 25.0 65.0 L 26.0 66.0 L 27.0 66.66666666666667 L 28.0 66.66666666666667 L 29.0 66.33333333333333 L 30.0 66.0 L 31.0 66.0 L 32.0 66.33333333333333 L 33.0 66.66666666666667 L 34.0 67.0 L 34.666666666666664 66.66666666666667 L 34.666666666666664 66.0 L 34.0 65.33333333333333 L 33.0 64.66666666666667 L 32.0 64.33333333333333 L 31.0 63.666666666666664 L 30.0 63.0 L 29.0 62.0 L 28.0 61.0 L 27.0 60.333333333333336 L 26.0 59.666666666666664 L 25.0 59.0 L 24.0 58.0 L 23.0 57.0 L 22.0 56.0 L 21.0 55.0 L 20.333333333333332 54.0 L 19.666666666666668 53.0 L 19.0 52.0 L 18.0 51.0 L 17.0 50.333333333333336 L 16.0 50.0 L 15.0 50.333333333333336 L 14.333333333333334 51.0 L 14.0 52.0 L 14.0 53.0 L 14.0 53.5 Z" stroke="none" fill="rgb(227,227,227)" />
<path d="M 108.5 61.5 L 109.0 61.0 L 110.0 60.0 L 111.0 59.0 L 112.0 58.0 L 113.0 57.0 L 114.0 56.333333333333336 L 114.66666666666667 55.666666666666664 L 115.0 55.0 L 115.0 54.0 L 114.66666666666667 53.0 L 114.33333333333333 52.0 L 113.66666666666667 51.0 L 113.0 50.333333333333336 L 112.0 50.333333333333336 L 111.0 51.0 L 110.33333333333333 52.0 L 109.66666666666667 53.0 L 109.0 54.0 L 108.0 55.0 L 107.0 56.0 L 106.0 57.0 L 105.0 58.0 L 104.0 59.0 L 103.0 60.0 L 102.0 60.666666666666664 L 101.0 61.333333333333336 L 100.0 62.0 L 99.0 63.0 L 98.0 63.666666666666664 L 97.33333333333333 64.33333333333333 L 97.0 65.0 L 97.33333333333333 65.66666666666667 L 98.0 66.0 L 99.0 66.33333333333333 L 100.0 66.66666666666667 L 101.0 67.0 L 102.0 66.66666666666667 L 103.0 66.0 L 104.0 65.0 L 105.0 64.33333333333333 L 106.0 63.666666666666664 L 107.0 63.0 L 107.5 62.5 Z" stroke="none" fill="rgb(227,227,227)" />
<path d="M 17.5 62.5 L 18.0 63.0 L 19.0 64.0 L 20.0 65.0 L 21.0 65.66666666666667 L 22.0 66.33333333333333 L 23.0 67.0 L 24.0 67.66666666666667 L 25.0 68.0 L 26.0 67.66666666666667 L 26.666666666666668 67.0 L 26.666666666666668 66.0 L 26.0 65.0 L 25.0 64.33333333333333 L 24.0 63.666666666666664 L 23.0 63.0 L 22.0 62.0 L 21.0 61.0 L 20.0 60.0 L 19.0 59.0 L 18.0 58.0 L 17.0 57.0 L 16.333333333333332 56.0 L 15.666666666666666 55.0 L 15.0 54.333333333333336 L 14.0 54.0 L 13.333333333333334 54.333333333333336 L 13.0 55.0 L 13.0 56.0 L 13.0 57.0 L 13.333333333333334 58.0 L 14.0 59.0 L 15.0 60.0 L 16.0 61.0 L 16.5 61.5 Z" stroke="none" fill="rgb(225,225,225)" />
<path d="M 110.5 63.5 L 111.0 63.0 L 112.0 62.0 L 113.0 61.0 L 114.0 60.0 L 115.0 59.333333333333336 L 115.66666666666667 58.666666666666664 L 116.0 58.0 L 115.66666666666667 57.0 L 115.0 56.333333333333336 L 114.0 56.0 L 113.0 56.333333333333336 L 112.0 57.0 L 111.0 58.0 L 110.0 59.0 L 109.0 60.0 L 108.0 61.0 L 107.0 62.0 L 106.0 63.0 L 105.0 63.666666666666664 L 104.0 64.33333333333333 L 103.0 65.0 L 102.33333333333333 66.0 L 102.0 67.0 L 102.33333333333333 68.0 L 103.0 68.66666666666667 L 104.0 68.66666666666667 L 105.0 68.0 L 106.0 67.0 L 107.0 66.33333333333333 L 108.0 65.66666666666667 L 109.0 65.0 L 109.5 64.5 Z" stroke="none" fill="rgb(225,225,225)" />
<path d="M 16.5 65.5 L 17.0 66.0 L 18.0 66.66666666666667 L 19.0 67.33333333333333 L 20.0 68.0 L 21.0 69.0 L 22.0 69.66666666666667 L 23.0 70.0 L 24.0 69.66666666666667 L 24.666666666666668 69.0 L 24.666666666666668 68.0 L 24.0 67.0 L 23.0 66.33333333333333 L 22.0 65.66666666666667 L 21.0 65.0 L 20.0 64.0 L 19.0 63.0 L 18.0 62.0 L 17.0 61.0 L 16.0 60.0 L 15.0 59.0 L 14.0 58.333333333333336 L 13.0 58.0 L 12.333333333333334 58.333333333333336 L 12.0 59.0 L 12.0 60.0 L 12.333333333333334 61.0 L 13.0 62.0 L 14.0 63.0 L 15.0 64.0 L 15.5 64.5 Z" stroke="none" fill="rgb(223,223,223)" />
<path d="M 42.5 67.5 L 43.0 67.66666666666667 L 44.0 68.0 L 45.0 68.0 L 46.0 68.0 L 46.666666666666664 67.66666666666667 L 46.666666666666664 67.0 L 46.0 66.33333333333333 L 45.0 66.0 L 44.0 65.66666666666667 L 43.0 65.33333333333333 L 42.0 64.66666666666667 L 41.0 64.33333333333333 L 40.0 63.666666666666664 L 39.0 63.333333333333336 L 38.0 62.666666666666664 L 37.0 62.0 L 36.0 61.333333333333336 L 35.0 60.666666666666664 L 34.0 60.0 L 33.0 59.333333333333336 L 32.0 59.0 L 31.333333333333332 59.333333333333336 L 31.0 60.0 L 31.333333333333332 60.666666666666664 L 32.0 61.333333333333336 L 33.0 62.0 L 34.0 62.666666666666664 L 35.0 63.333333333333336 L 36.0 63.666666666666664 L 37.0 64.33333333333333 L 38.0 64.66666666666667 L 39.0 65.33333333333333 L 40.0 65.66666666666667 L 41.0 66.33333333333333 L 41.5 66.5 Z" stroke="none" fill="rgb(231,231,231)" />
<path d="M 116.0 61.5 L 116.0 61.0 L 116.0 60.0 L 115.66666666666667 59.333333333333336 L 115.0 59.0 L 114.0 59.333333333333336 L 113.0 60.0 L 112.0 61.0 L 111.0 62.0 L 110.0 63.0 L 109.0 64.0 L 108.0 65.0 L 107.0 65.66666666666667 L 106.0 66.33333333333333 L 105.0 67.0 L 104.33333333333333 68.0 L 104.0 69.0 L 104.33333333333333 70.0 L 105.0 70.66666666666667 L 106.0 70.66666666666667 L 107.0 70.0 L 108.0 69.0 L 109.0 68.33333333333333 L 110.0 67.66666666666667 L 111.0 67.0 L 112.0 66.0 L 113.0 65.0 L 114.0 64.0 L 115.0 63.0 L 115.5 62.5 Z" stroke="none" fill="rgb(223,223,223)" />
<path d="M 18.5 72.5 L 19.0 72.66666666666667 L 20.0 73.0 L 21.0 73.0 L 21.666666666666668 72.66666666666667 L 22.333333333333332 72.0 L 22.666666666666668 71.0 L 22.666666666666668 70.0 L 22.0 69.0 L 21.0 68.0 L 20.0 67.33333333333333 L 19.0 66.66666666666667 L 18.0 66.0 L 17.0 65.0 L 16.0 64.0 L 15.0 63.0 L 14.0 62.0 L 13.0 61.333333333333336 L 12.0 61.333333333333336 L 11.333333333333334 62.0 L 11.0 63.0 L 11.0 64.0 L 11.0 65.0 L 11.333333333333334 65.66666666666667 L 12.0 66.33333333333333 L 13.0 67.0 L 14.0 68.0 L 15.0 69.0 L 16.0 70.0 L 17.0 71.0 L 17.5 71.5 Z" stroke="none" fill="rgb(220,220,220)" />
<path d="M 110.5 72.5 L 111.0 72.0 L 112.0 71.0 L 113.0 70.0 L 114.0 69.0 L 115.0 68.33333333333333 L 116.0 67.66666666666667 L 116.66666666666667 67.0 L 117.0 66.0 L 117.0 65.0 L 117.0 64.0 L 117.0 63.0 L 116.66666666666667 62.333333333333336 L 116.0 62.0 L 115.0 62.333333333333336 L 114.0 63.0 L 113.0 64.0 L 112.0 65.0 L 111.0 66.0 L 110.0 67.0 L 109.0 67.66666666666667 L 108.0 68.33333333333333 L 107.0 69.0 L 106.33333333333333 70.0 L 106.0 71.0 L 106.0 72.0 L 106.33333333333333 73.0 L 107.0 73.66666666666667 L 108.0 74.0 L 109.0 73.66666666666667 L 109.5 73.5 Z" stroke="none" fill="rgb(220,220,220)" />
<path d="M 18.5 77.5 L 19.0 77.66666666666667 L 20.0 77.66666666666667 L 20.666666666666668 77.0 L 21.0 76.0 L 21.0 75.0 L 21.0 74.0 L 20.666666666666668 73.33333333333333 L 20.0 72.66666666666667 L 19.0 72.0 L 18.0 71.0 L 17.0 70.0 L 16.0 69.0 L 15.0 68.0 L 14.0 67.0 L 13.0 66.33333333333333 L 12.0 66.0 L 11.0 66.33333333333333 L 10.333333333333334 67.0 L 10.0 68.0 L 10.0 69.0 L 10.0 70.0 L 10.333333333333334 70.66666666666667 L 11.0 71.33333333333333 L 12.0 72.0 L 13.0 73.0 L 14.0 73.66666666666667 L 15.0 74.33333333333333 L 16.0 75.0 L 17.0 76.0 L 17.5 76.5 Z" stroke="none" fill="rgb(217,217,217)" />
<path d="M 117.5 72.0 L 117.66666666666667 71.66666666666667 L 118.0 71.0 L 118.0 70.0 L 118.0 69.0 L 118.0 68.0 L 117.66666666666667 67.33333333333333 L 117.0 67.0 L 116.0 67.33333333333333 L 115.0 67.66666666666667 L 114.0 68.33333333333333 L 113.0 69.0 L 112.0 70.0 L 111.0 71.0 L 110.0 72.0 L 109.0 73.0 L 108.0 73.66666666666667 L 107.33333333333333 74.33333333333333 L 107.0 75.0 L 107.33333333333333 76.0 L 107.66666666666667 77.0 L 108.33333333333333 77.66666666666667 L 109.0 78.0 L 110.0 77.66666666666667 L 111.0 77.0 L 112.0 76.0 L 113.0 75.33333333333333 L 114.0 74.66666666666667 L 115.0 74.0 L 116.0 73.0 L 116.5 72.5 Z" stroke="none" fill="rgb(217,217,217)" />
<path d="M 16.0 97.5 L 16.0 97.0 L 16.0 96.0 L 16.0 95.0 L 16.333333333333332 94.0 L 16.666666666666668 93.0 L 17.0 92.0 L 17.0 91.0 L 17.0 90.0 L 17.333333333333332 89.0 L 17.666666666666668 88.0 L 18.0 87.0 L 18.0 86.0 L 18.333333333333332 85.0 L 18.666666666666668 84.0 L 19.0 83.0 L 19.0 82.0 L 19.333333333333332 81.0 L 19.666666666666668 80.0 L 20.0 79.0 L 19.666666666666668 78.0 L 19.0 77.0 L 18.0 76.0 L 17.0 75.0 L 16.0 74.33333333333333 L 15.0 73.66666666666667 L 14.0 73.0 L 13.0 72.0 L 12.0 71.33333333333333 L 11.0 71.0 L 10.333333333333334 71.33333333333333 L 10.0 72.0 L 10.0 73.0 L 10.0 74.0 L 10.0 75.0 L 9.666666666666666 76.0 L 9.333333333333334 77.0 L 9.0 78.0 L 9.0 79.0 L 9.0 80.0 L 9.0 81.0 L 9.0 82.0 L 9.0 83.0 L 9.0 84.0 L 9.0 85.0 L 9.0 86.0 L 9.0 87.0 L 9.0 88.0 L 9.0 89.0 L 9.0 90.0 L 9.333333333333334 91.0 L 9.666666666666666 92.0 L 10.0 93.0 L 10.0 94.0 L 10.0 95.0 L 10.0 96.0 L 10.333333333333334 97.0 L 10.666666666666666 98.0 L 11.333333333333334 99.0 L 12.0 100.0 L 13.0 100.66666666666667 L 14.0 101.0 L 14.666666666666666 100.66666666666667 L 15.0 100.0 L 15.333333333333334 99.0 L 15.5 98.5 Z" stroke="none" fill="rgb(214,214,214)" />
<path d="M 110.5 88.5 L 110.66666666666667 89.0 L 111.0 90.0 L 111.0 91.0 L 111.0 92.0 L 111.33333333333333 93.0 L 111.66666666666667 94.0 L 112.0 95.0 L 112.0 96.0 L 112.0 97.0 L 112.33333333333333 98.0 L 112.66666666666667 99.0 L 113.0 100.0 L 113.33333333333333 100.66666666666667 L 114.0 101.0 L 115.0 100.66666666666667 L 116.0 100.0 L 117.0 99.0 L 117.66666666666667 98.0 L 118.0 97.0 L 118.33333333333333 96.0 L 118.66666666666667 95.0 L 119.0 94.0 L 119.0 93.0 L 119.0 92.0 L 119.0 91.0 L 119.0 90.0 L 119.0 89.0 L 119.0 88.0 L 119.0 87.0 L 119.0 86.0 L 119.0 85.0 L 119.0 84.0 L 119.0 83.0 L 119.0 82.0 L 119.0 81.0 L 119.0 80.0 L 119.0 79.0 L 119.0 78.0 L 118.66666666666667 77.0 L 118.33333333333333 76.0 L 118.0 75.0 L 118.0 74.0 L 118.0 73.0 L 117.66666666666667 72.33333333333333 L 117.0 72.0 L 116.0 72.33333333333333 L 115.0 73.0 L 114.0 74.0 L 113.0 74.66666666666667 L 112.0 75.33333333333333 L 111.0 76.0 L 110.0 77.0 L 109.0 77.66666666666667 L 108.33333333333333 78.33333333333333 L 108.0 79.0 L 108.33333333333333 80.0 L 108.66666666666667 81.0 L 109.0 82.0 L 109.0 83.0 L 109.33333333333333 84.0 L 109.66666666666667 85.0 L 110.0 86.0 L 110.0 87.0 L 110.0 87.5 Z" stroke="none" fill="rgb(214,214,214)" />
</svg>
