<?xml version="1.0" encoding="UTF-8" standalone="no"?>
<!DOCTYPE svg PUBLIC "-//W3C//DTD SVG 1.1//EN"
"http://www.w3.org/Graphics/SVG/1.1/DTD/svg11.dtd">
<svg width="128" height="128" xmlns="http://www.w3.org/2000/svg" version="1.1">
<path d="M 26.5 128.0 L 27.0 128.0 L 28.0 128.0 L 29.0 128.0 L 30.0 128.0 L 31.0 128.0 L 32.0 128.0 L 33.0 128.0 L 34.0 128.0 L 35.0 128.0 L 36.0 128.0 L 37.0 128.0 L 38.0 128.0 L 39.0 128.0 L 40.0 128.0 L 41.0 128.0 L 42.0 128.0 L 43.0 128.0 L 44.0 128.0 L 45.0 128.0 L 46.0 128.0 L 47.0 128.0 L 48.0 128.0 L 49.0 128.0 L 50.0 128.0 L 51.0 128.0 L 52.0 128.0 L 53.0 128.0 L 54.0 128.0 L 55.0 128.0 L 56.0 128.0 L 57.0 128.0 L 58.0 128.0 L 59.0 128.0 L 60.0 128.0 L 61.0 128.0 L 62.0 128.0 L 63.0 128.0 L 64.0 128.0 L 65.0 128.0 L 66.0 128.0 L 67.0 128.0 L 68.0 128.0 L 69.0 128.0 L 70.0 128.0 L 71.0 128.0 L 72.0 128.0 L 73.0 128.0 L 74.0 128.0 L 75.0 128.0 L 76.0 128.0 L 77.0 128.0 L 78.0 128.0 L 79.0 128.0 L 80.0 128.0 L 81.0 128.0 L 82.0 128.0 L 83.0 128.0 L 84.0 128.0 L 85.0 128.0 L 86.0 128.0 L 87.0 128.0 L 88.0 128.0 L 89.0 128.0 L 90.0 128.0 L 91.0 128.0 L 92.0 128.0 L 93.0 128.0 L 94.0 128.0 L 95.0 128.0 L 96.0 128.0 L 97.0 128.0 L 98.0 128.0 L 99.0 128.0 L 100.0 128.0 L 101.0 128.0 L 102.0 128.0 L 103.0 128.0 L 104.0 128.0 L 105.0 128.0 L 106.0 128.0 L 107.0 128.0 L 108.0 128.0 L 109.0 128.0 L 110.0 128.0 L 111.0 128.0 L 112.0 128.0 L 113.0 128.0 L 114.0 128.0 L 115.0 128.0 L 116.0 128.0 L 117.0 128.0 L 118.0 128.0 L 119.0 128.0 L 120.0 128.0 L 121.0 128.0 L 122.0 128.0 L 123.0 128.0 L 124.0 128.0 L 125.0 128.0 L 126.0 128.0 L 127.0 128.0 L 127.66666666666667 127.66666666666667 L 128.0 127.0 L 128.0 126.0 L 128.0 125.0 L 128.0 124.0 L 128.0 123.0 L 128.0 122.0 L 128.0 121.0 L 128.0 120.0 L 128.0 119.0 L 128.0 118.0 L 128.0 117.0 L 128.0 116.0 L 128.0 115.0 L 128.0 114.0 L 128.0 113.0 L 128.0 112.0 L 128.0 111.0 L 128.0 110.0 L 128.0 109.0 L 128.0 108.0 L 128.0 107.0 L 128.0 106.0 L 128.0 105.0 L 128.0 104.0 L 128.0 103.0 L 128.0 102.0 L 128.0 101.0 L 128.0 100.0 L 128.0 99.0 L 128.0 98.0 L 128.0 97.0 L 128.0 96.0 L 128.0 95.0 L 128.0 94.0 L 128.0 93.0 L 128.0 92.0 L 128.0 91.0 L 128.0 90.0 L 128.0 89.0 L 128.0 88.0 L 128.0 87.0 L 128.0 86.0 L 128.0 85.0 L 128.0 84.0 L 128.0 83.0 L 128.0 82.0 L 128.0 81.0 L 128.0 80.0 L 128.0 79.0 L 128.0 78.0 L 128.0 77.0 L 128.0 76.0 L 128.0 75.0 L 128.0 74.0 L 128.0 73.0 L 128.0 72.0 L 128.0 71.0 L 128.0 70.0 L 128.0 69.0 L 128.0 68.0 L 128.0 67.0 L 128.0 66.0 L 128.0 65.0 L 128.0 64.0 L 128.0 63.0 L 128.0 62.0 L 128.0 61.0 L 128.0 60.0 L 128.0 59.0 L 128.0 58.0 L 128.0 57.0 L 128.0 56.0 L 128.0 55.0 L 128.0 54.0 L 128.0 53.0 L 128.0 52.0 L 128.0 51.0 L 128.0 50.0 L 128.0 49.0 L 128.0 48.0 L 128.0 47.0 L 128.0 46.0 L 128.0 45.0 L 128.0 44.0 L 128.0 43.0 L 128.0 42.0 L 128.0 41.0 L 128.0 40.0 L 128.0 39.0 L 128.0 38.0 L 128.0 37.0 L 128.0 36.0 L 128.0 35.0 L 128.0 34.0 L 128.0 33.0 L 128.0 32.0 L 128.0 31.0 L 128.0 30.0 L 128.0 29.0 L 128.0 28.0 L 128.0 27.0 L 128.0 26.0 L 128.0 25.0 L 128.0 24.0 L 128.0 23.0 L 128.0 22.0 L 128.0 21.0 L 128.0 20.0 L 128.0 19.0 L 128.0 18.0 L 128.0 17.0 L 128.0 16.0 L 128.0 15.0 L 128.0 14.0 L 128.0 13.0 L 128.0 12.0 L 128.0 11.0 L 128.0 10.0 L 128.0 9.0 L 128.0 8.0 L 128.0 7.0 L 128.0 6.0 L 128.0 5.0 L 128.0 4.0 L 128.0 3.0 L 128.0 2.0 L 128.0 1.0 L 127.66666666666667 0.3333333333333333 L 127.0 0.0 L 126.0 0.0 L 125.0 0.0 L 124.0 0.0 L 123.0 0.0 L 122.0 0.0 L 121.0 0.0 L 120.0 0.0 L 119.0 0.0 L 118.0 0.0 L 117.0 0.0 L 116.0 0.0 L 115.0 0.0 L 114.0 0.0 L 113.0 0.0 L 112.0 0.0 L 111.0 0.0 L 110.0 0.0 L 109.0 0.0 L 108.0 0.0 L 107.0 0.0 L 106.0 0.0 L 105.0 0.0 L 104.0 0.0 L 103.0 0.0 L 102.0 0.0 L 101.0 0.0 L 100.0 0.0 L 99.0 0.0 L 98.0 0.0 L 97.0 0.0 L 96.0 0.0 L 95.0 0.0 L 94.0 0.0 L 93.0 0.0 L 92.0 0.0 L 91.0 0.0 L 90.0 0.0 L 89.0 0.0 L 88.0 0.0 L 87.0 0.0 L 86.0 0.0 L 85.0 0.0 L 84.0 0.0 L 83.0 0.0 L 82.0 0.0 L 81.0 0.0 L 80.0 0.0 L 79.0 0.0 L 78.0 0.0 L 77.0 0.0 L 76.0 0.0 L 75.0 0.0 L 74.0 0.0 L 73.0 0.0 L 72.0 0.0 L 71.0 0.0 L 70.0 0.0 L 69.0 0.0 L 68.0 0.0 L 67.0 0.0 L 66.0 0.0 L 65.0 0.0 L 64.0 0.0 L 63.0 0.0 L 62.0 0.0 L 61.0 0.0 L 60.0 0.0 L 59.0 0.0 L 58.0 0.0 L 57.0 0.0 L 56.0 0.0 L 55.0 0.0 L 54.0 0.0 L 53.0 0.0 L 52.0 0.0 L 51.0 0.0 L 50.0 0.0 L 49.0 0.0 L 48.0 0.0 L 47.0 0.0 L 46.0 0.0 L 45.0 0.0 L 44.0 0.0 L 43.0 0.0 L 42.0 0.0 L 41.0 0.0 L 40.0 0.0 L 39.0 0.0 L 38.0 0.0 L 37.0 0.0 L 36.0 0.0 L 35.0 0.0 L 34.0 0.0 L 33.0 0.0 L 32.0 0.0 L 31.0 0.0 L 30.0 0.0 L 29.0 0.0 L 28.0 0.0 L 27.0 0.0 L 26.0 0.0 L 25.0 0.0 L 24.0 0.0 L 23.0 0.0 L 22.0 0.0 L 21.0 0.0 L 20.0 0.0 L 19.0 0.0 L 18.0 0.0 L 17.0 0.0 L 16.0 0.0 L 15.0 0.0 L 14.0 0.0 L 13.0 0.0 L 12.0 0.0 L 11.0 0.0 L 10.0 0.0 L 9.0 0.0 L 8.0 0.0 L 7.0 0.0 L 6.0 0.0 L 5.0 0.0 L 4.0 0.0 L 3.0 0.0 L 2.0 0.0 L 1.0 0.0 L 0.3333333333333333 0.3333333333333333 L 0.0 1.0 L 0.0 2.0 L 0.0 3.0 L 0.0 4.0 L 0.0 5.0 L 0.0 6.0 L 0.0 7.0 L 0.0 8.0 L 0.0 9.0 L 0.0 10.0 L 0.0 11.0 L 0.0 12.0 L 0.0 13.0 L 0.0 14.0 L 0.0 15.0 L 0.0 16.0 L 0.0 17.0 L 0.0 18.0 L 0.0 19.0 L 0.0 20.0 L 0.0 21.0 L 0.0 22.0 L 0.0 23.0 L 0.0 24.0 L 0.0 25.0 L 0.0 26.0 L 0.0 27.0 L 0.0 28.0 L 0.0 29.0 L 0.0 30.0 L 0.0 31.0 L 0.0 32.0 L 0.0 33.0 L 0.0 34.0 L 0.0 35.0 L 0.0 36.0 L 0.0 37.0 L 0.0 38.0 L 0.0 39.0 L 0.0 40.0 L 0.0 41.0 L 0.0 42.0 L 0.0 43.0 L 0.0 44.0 L 0.0 45.0 L 0.0 46.0 L 0.0 47.0 L 0.0 48.0 L 0.0 49.0 L 0.0 50.0 L 0.0 51.0 L 0.0 52.0 L 0.0 53.0 L 0.0 54.0 L 0.0 55.0 L 0.0 56.0 L 0.0 57.0 L 0.0 58.0 L 0.0 59.0 L 0.0 60.0 L 0.0 61.0 L 0.0 62.0 L 0.0 63.0 L 0.0 64.0 L 0.0 65.0 L 0.0 66.0 L 0.0 67.0 L 0.0 68.0 L 0.0 69.0 L 0.0 70.0 L 0.0 71.0 L 0.0 72.0 L 0.0 73.0 L 0.0 74.0 L 0.0 75.0 L 0.0 76.0 L 0.0 77.0 L 0.0 78.0 L 0.0 79.0 L 0.0 80.0 L 0.0 81.0 L 0.0 82.0 L 0.0 83.0 L 0.0 84.0 L 0.0 85.0 L 0.0 86.0 L 0.0 87.0 L 0.0 88.0 L 0.0 89.0 L 0.0 90.0 L 0.0 91.0 L 0.0 92.0 L 0.0 93.0 L 0.0 94.0 L 0.0 95.0 L 0.0 96.0 L 0.0 97.0 L 0.0 98.0 L 0.0 99.0 L 0.0 100.0 L 0.0 101.0 L 0.0 102.0 L 0.0 103.0 L 0.0 104.0 L 0.0 105.0 L 0.0 106.0 L 0.0 107.0 L 0.0 108.0 L 0.0 109.0 L 0.0 110.0 L 0.0 111.0 L 0.0 112.0 L 0.0 113.0 L 0.0 114.0 L 0.0 115.0 L 0.0 116.0 L 0.0 117.0 L 0.0 118.0 L 0.0 119.0 L 0.0 120.0 L 0.0 121.0 L 0.0 122.0 L 0.0 123.0 L 0.0 124.0 L 0.0 125.0 L 0.0 126.0 L 0.0 127.0 L 0.3333333333333333 127.66666666666667 L 1.0 128.0 L 2.0 128.0 L 3.0 128.0 L 4.0 128.0 L 5.0 128.0 L 6.0 128.0 L 7.0 128.0 L 8.0 128.0 L 9.0 128.0 L 10.0 128.0 L 11.0 128.0 L 12.0 128.0 L 13.0 128.0 L 14.0 128.0 L 15.0 128.0 L 16.0 128.0 L 17.0 128.0 L 18.0 128.0 L 19.0 128.0 L 20.0 128.0 L 21.0 128.0 L 22.0 128.0 L 23.0 128.0 L 24.0 128.0 L 25.0 128.0 L 25.5 128.0 Z" stroke="none" fill="rgb(0,0,0)" />
<path d="M 72.5 18.5 L 73.0 18.666666666666668 L 74.0 19.333333333333332 L 75.0 19.666666666666668 L 76.0 20.0 L 77.0 20.333333333333332 L 78.0 20.666666666666668 L 79.0 21.0 L 80.0 20.666666666666668 L 81.0 20.666666666666668 L 82.0 20.666666666666668 L 83.0 20.666666666666668 L 84.0 20.0 L 85.0 19.0 L 85.66666666666667 18.0 L 86.33333333333333 17.0 L 86.66666666666667 16.0 L 87.0 15.0 L 87.0 14.0 L 87.0 13.0 L 87.0 12.0 L 87.0 11.0 L 87.0 10.0 L 87.0 9.0 L 86.66666666666667 8.0 L 86.33333333333333 7.0 L 85.66666666666667 6.0 L 85.0 5.333333333333333 L 84.0 4.666666666666667 L 83.0 4.333333333333333 L 82.0 4.0 L 81.0 4.0 L 80.0 4.0 L 79.0 4.0 L 78.0 4.0 L 77.0 4.0 L 76.0 4.0 L 75.0 4.0 L 74.0 4.333333333333333 L 73.0 5.0 L 72.0 6.0 L 71.33333333333333 7.0 L 70.66666666666667 8.0 L 70.33333333333333 9.0 L 70.0 10.0 L 70.0 11.0 L 70.33333333333333 12.0 L 70.66666666666667 13.0 L 71.0 14.0 L 71.0 15.0 L 71.33333333333333 16.0 L 71.66666666666667 17.0 L 72.0 17.5 Z" stroke="none" fill="rgb(1,206,91)" />
<path d="M 77.5 11.5 L 77.66666666666667 11.0 L 78.0 10.0 L 78.0 9.0 L 77.66666666666667 8.0 L 77.0 7.333333333333333 L 76.0 7.0 L 75.0 7.333333333333333 L 74.33333333333333 8.0 L 74.0 9.0 L 74.0 10.0 L 74.33333333333333 11.0 L 75.0 11.666666666666666 L 76.0 12.0 L 76.5 12.0 Z" stroke="none" fill="rgb(253,254,254)" />
<path d="M 72.5 19.5 L 72.66666666666667 19.0 L 72.66666666666667 18.0 L 72.33333333333333 17.0 L 71.66666666666667 16.0 L 71.33333333333333 15.0 L 71.0 14.0 L 71.0 13.0 L 70.66666666666667 12.0 L 70.0 11.333333333333334 L 69.0 11.0 L 68.0 11.0 L 67.0 11.0 L 66.0 11.0 L 65.0 11.0 L 64.0 11.0 L 63.0 11.0 L 62.0 11.0 L 61.0 11.0 L 60.0 11.0 L 59.0 11.0 L 58.0 11.0 L 57.0 11.333333333333334 L 56.0 11.666666666666666 L 55.0 12.0 L 54.0 12.333333333333334 L 53.333333333333336 13.0 L 53.0 14.0 L 53.0 15.0 L 53.333333333333336 16.0 L 53.666666666666664 17.0 L 54.333333333333336 18.0 L 55.0 18.666666666666668 L 56.0 19.333333333333332 L 57.0 19.666666666666668 L 58.0 20.333333333333332 L 59.0 20.666666666666668 L 60.0 21.0 L 61.0 21.0 L 62.0 21.0 L 63.0 21.333333333333332 L 64.0 21.666666666666668 L 65.0 21.666666666666668 L 66.0 21.333333333333332 L 67.0 21.0 L 68.0 21.0 L 69.0 21.0 L 70.0 20.666666666666668 L 71.0 20.333333333333332 L 71.5 20.0 Z" stroke="none" fill="rgb(105,105,104)" />
<path d="M 66.0 14.5 L 66.0 14.0 L 65.66666666666667 13.333333333333334 L 65.0 13.0 L 64.0 13.0 L 63.0 13.0 L 62.333333333333336 13.333333333333334 L 62.0 14.0 L 62.333333333333336 14.666666666666666 L 63.0 15.0 L 64.0 15.0 L 65.0 15.0 L 65.5 15.0 Z" stroke="none" fill="rgb(124,124,124)" />
<path d="M 71.5 25.0 L 72.0 24.666666666666668 L 73.0 24.333333333333332 L 74.0 23.666666666666668 L 75.0 23.333333333333332 L 76.0 22.666666666666668 L 77.0 22.0 L 77.66666666666667 21.0 L 77.66666666666667 20.333333333333332 L 77.0 20.0 L 76.0 19.666666666666668 L 75.0 19.333333333333332 L 74.0 19.0 L 73.0 19.0 L 72.0 19.333333333333332 L 71.0 19.666666666666668 L 70.0 20.333333333333332 L 69.0 20.666666666666668 L 68.0 21.0 L 67.0 21.0 L 66.0 21.0 L 65.0 21.0 L 64.0 21.0 L 63.0 21.0 L 62.0 21.0 L 61.0 21.0 L 60.0 20.666666666666668 L 59.0 20.333333333333332 L 58.0 19.666666666666668 L 57.0 19.333333333333332 L 56.0 18.666666666666668 L 55.0 18.0 L 54.333333333333336 17.0 L 53.666666666666664 16.0 L 53.333333333333336 15.0 L 52.666666666666664 14.333333333333334 L 52.0 14.0 L 51.0 14.0 L 50.0 14.333333333333334 L 49.0 15.0 L 48.333333333333336 16.0 L 48.0 17.0 L 48.0 18.0 L 48.333333333333336 19.0 L 49.0 20.0 L 50.0 21.0 L 51.0 22.0 L 52.0 22.666666666666668 L 53.0 23.333333333333332 L 54.0 23.666666666666668 L 55.0 24.0 L 56.0 24.333333333333332 L 57.0 24.666666666666668 L 58.0 25.0 L 59.0 25.0 L 60.0 25.333333333333332 L 61.0 25.666666666666668 L 62.0 26.0 L 63.0 26.0 L 64.0 26.0 L 65.0 26.0 L 66.0 26.0 L 67.0 25.666666666666668 L 68.0 25.333333333333332 L 69.0 25.0 L 70.0 25.0 L 70.5 25.0 Z" stroke="none" fill="rgb(89,89,89)" />
<path d="M 46.5 22.5 L 47.0 23.0 L 48.0 23.666666666666668 L 49.0 24.333333333333332 L 50.0 25.0 L 51.0 25.666666666666668 L 52.0 26.333333333333332 L 53.0 26.666666666666668 L 54.0 27.0 L 55.0 27.333333333333332 L 56.0 27.666666666666668 L 57.0 28.0 L 58.0 28.0 L 59.0 28.0 L 60.0 28.0 L 61.0 28.0 L 62.0 28.0 L 63.0 28.0 L 64.0 28.0 L 65.0 28.0 L 66.0 28.0 L 67.0 28.0 L 68.0 28.0 L 69.0 28.0 L 70.0 28.0 L 71.0 28.0 L 72.0 27.666666666666668 L 73.0 27.333333333333332 L 74.0 27.0 L 75.0 26.666666666666668 L 76.0 26.333333333333332 L 77.0 25.666666666666668 L 78.0 25.333333333333332 L 79.0 24.666666666666668 L 80.0 24.0 L 81.0 23.0 L 81.66666666666667 22.0 L 82.0 21.0 L 81.66666666666667 20.333333333333332 L 81.0 20.0 L 80.0 20.333333333333332 L 79.0 20.666666666666668 L 78.0 21.0 L 77.0 21.333333333333332 L 76.0 22.0 L 75.0 22.666666666666668 L 74.0 23.333333333333332 L 73.0 23.666666666666668 L 72.0 24.333333333333332 L 71.0 24.666666666666668 L 70.0 25.0 L 69.0 25.0 L 68.0 25.0 L 67.0 25.333333333333332 L 66.0 25.666666666666668 L 65.0 26.0 L 64.0 26.0 L 63.0 26.0 L 62.0 25.666666666666668 L 61.0 25.333333333333332 L 60.0 25.0 L 59.0 25.0 L 58.0 24.666666666666668 L 57.0 24.333333333333332 L 56.0 24.0 L 55.0 23.666666666666668 L 54.0 23.333333333333332 L 53.0 22.666666666666668 L 52.0 22.0 L 51.0 21.0 L 50.0 20.0 L 49.0 19.0 L 48.0 18.333333333333332 L 47.0 18.0 L 46.0 18.333333333333332 L 45.333333333333336 19.0 L 45.0 20.0 L 45.333333333333336 21.0 L 45.5 21.5 Z" stroke="none" fill="rgb(81,80,80)" />
<path d="M 50.5 29.0 L 51.0 29.0 L 52.0 29.333333333333332 L 53.0 29.666666666666668 L 54.0 30.0 L 55.0 30.333333333333332 L 56.0 30.666666666666668 L 57.0 31.0 L 58.0 31.0 L 59.0 31.0 L 60.0 31.0 L 61.0 31.0 L 62.0 31.0 L 63.0 31.0 L 64.0 31.0 L 65.0 31.0 L 66.0 31.0 L 67.0 31.0 L 68.0 31.0 L 69.0 31.0 L 70.0 31.0 L 71.0 31.0 L 72.0 30.666666666666668 L 73.0 30.333333333333332 L 74.0 30.0 L 75.0 29.666666666666668 L 76.0 29.333333333333332 L 77.0 29.0 L 78.0 28.666666666666668 L 79.0 28.333333333333332 L 80.0 27.666666666666668 L 81.0 27.333333333333332 L 82.0 26.666666666666668 L 83.0 26.333333333333332 L 83.66666666666667 25.666666666666668 L 84.0 25.0 L 84.0 24.0 L 84.0 23.0 L 83.66666666666667 22.0 L 83.0 21.333333333333332 L 82.0 21.333333333333332 L 81.0 22.0 L 80.0 23.0 L 79.0 24.0 L 78.0 24.666666666666668 L 77.0 25.333333333333332 L 76.0 25.666666666666668 L 75.0 26.333333333333332 L 74.0 26.666666666666668 L 73.0 27.0 L 72.0 27.333333333333332 L 71.0 27.666666666666668 L 70.0 28.0 L 69.0 28.0 L 68.0 28.0 L 67.0 28.0 L 66.0 28.0 L 65.0 28.0 L 64.0 28.0 L 63.0 28.0 L 62.0 28.0 L 61.0 28.0 L 60.0 28.0 L 59.0 28.0 L 58.0 28.0 L 57.0 27.666666666666668 L 56.0 27.333333333333332 L 55.0 27.0 L 54.0 26.666666666666668 L 53.0 26.333333333333332 L 52.0 25.666666666666668 L 51.0 25.0 L 50.0 24.333333333333332 L 49.0 23.666666666666668 L 48.0 23.0 L 47.0 22.0 L 46.0 21.333333333333332 L 45.0 21.0 L 44.333333333333336 21.333333333333332 L 44.0 22.0 L 44.0 23.0 L 44.0 24.0 L 44.333333333333336 25.0 L 45.0 25.666666666666668 L 46.0 26.333333333333332 L 47.0 27.0 L 48.0 27.666666666666668 L 49.0 28.333333333333332 L 49.5 28.5 Z" stroke="none" fill="rgb(73,72,72)" />
<path d="M 53.5 36.0 L 54.0 36.0 L 55.0 36.0 L 56.0 36.333333333333336 L 57.0 36.666666666666664 L 58.0 37.0 L 59.0 37.0 L 60.0 37.0 L 61.0 37.0 L 62.0 37.0 L 63.0 37.0 L 64.0 37.0 L 65.0 37.0 L 66.0 37.0 L 67.0 37.0 L 68.0 37.0 L 69.0 37.0 L 70.0 37.0 L 71.0 37.0 L 72.0 37.0 L 73.0 37.0 L 74.0 37.0 L 75.0 37.0 L 76.0 37.0 L 77.0 37.0 L 78.0 37.0 L 79.0 37.0 L 80.0 36.666666666666664 L 81.0 36.333333333333336 L 82.0 36.0 L 83.0 36.0 L 83.66666666666667 35.666666666666664 L 84.0 35.0 L 84.0 34.0 L 84.0 33.0 L 84.33333333333333 32.0 L 84.66666666666667 31.0 L 85.0 30.0 L 85.0 29.0 L 85.0 28.0 L 84.66666666666667 27.0 L 84.0 26.333333333333332 L 83.0 26.0 L 82.0 26.333333333333332 L 81.0 26.666666666666668 L 80.0 27.333333333333332 L 79.0 27.666666666666668 L 78.0 28.333333333333332 L 77.0 28.666666666666668 L 76.0 29.0 L 75.0 29.333333333333332 L 74.0 29.666666666666668 L 73.0 30.0 L 72.0 30.333333333333332 L 71.0 30.666666666666668 L 70.0 31.0 L 69.0 31.0 L 68.0 31.0 L 67.0 31.0 L 66.0 31.0 L 65.0 31.0 L 64.0 31.0 L 63.0 31.0 L 62.0 31.0 L 61.0 31.0 L 60.0 31.0 L 59.0 31.0 L 58.0 31.0 L 57.0 30.666666666666668 L 56.0 30.333333333333332 L 55.0 30.0 L 54.0 29.666666666666668 L 53.0 29.333333333333332 L 52.0 29.0 L 51.0 28.666666666666668 L 50.0 28.333333333333332 L 49.0 27.666666666666668 L 48.0 27.0 L 47.0 26.333333333333332 L 46.0 25.666666666666668 L 45.0 25.333333333333332 L 44.0 25.0 L 43.333333333333336 25.333333333333332 L 43.0 26.0 L 43.0 27.0 L 43.0 28.0 L 42.666666666666664 29.0 L 42.333333333333336 30.0 L 42.333333333333336 31.0 L 42.666666666666664 32.0 L 43.0 33.0 L 43.0 34.0 L 43.333333333333336 34.666666666666664 L 44.0 35.333333333333336 L 45.0 35.666666666666664 L 46.0 36.0 L 47.0 36.0 L 48.0 36.0 L 49.0 36.0 L 50.0 36.0 L 51.0 36.0 L 52.0 36.0 L 52.5 36.0 Z" stroke="none" fill="rgb(64,64,64)" />
<path d="M 88.5 40.0 L 89.0 39.666666666666664 L 90.0 39.333333333333336 L 91.0 38.666666666666664 L 92.0 38.0 L 92.66666666666667 37.0 L 93.0 36.0 L 93.0 35.0 L 93.0 34.0 L 93.0 33.0 L 93.0 32.0 L 92.66666666666667 31.333333333333332 L 92.0 30.666666666666668 L 91.0 30.333333333333332 L 90.0 30.0 L 89.33333333333333 30.333333333333332 L 89.0 31.0 L 89.0 32.0 L 88.66666666666667 33.0 L 88.0 34.0 L 87.0 34.666666666666664 L 86.0 35.0 L 85.0 35.0 L 84.0 35.333333333333336 L 83.0 35.666666666666664 L 82.0 36.0 L 81.0 36.0 L 80.0 36.333333333333336 L 79.0 36.666666666666664 L 78.0 37.0 L 77.0 37.0 L 76.0 37.0 L 75.0 37.0 L 74.0 37.0 L 73.0 37.0 L 72.0 37.0 L 71.0 37.0 L 70.0 37.0 L 69.0 37.0 L 68.0 37.0 L 67.0 37.0 L 66.0 37.0 L 65.0 37.0 L 64.0 37.0 L 63.0 37.0 L 62.0 37.0 L 61.0 37.0 L 60.0 37.0 L 59.0 37.0 L 58.0 36.666666666666664 L 57.0 36.333333333333336 L 56.0 36.0 L 55.0 36.0 L 54.0 36.0 L 53.0 36.0 L 52.0 36.0 L 51.0 36.0 L 50.0 36.0 L 49.0 36.0 L 48.0 36.0 L 47.0 36.0 L 46.0 35.666666666666664 L 45.0 35.333333333333336 L 44.0 35.0 L 43.0 35.0 L 42.0 35.0 L 41.0 34.666666666666664 L 40.0 34.0 L 39.666666666666664 33.0 L 39.666666666666664 32.0 L 40.0 31.0 L 39.666666666666664 30.333333333333332 L 39.0 30.0 L 38.0 30.0 L 37.0 30.333333333333332 L 36.0 30.666666666666668 L 35.0 31.333333333333332 L 34.333333333333336 32.0 L 34.0 33.0 L 34.0 34.0 L 34.0 35.0 L 34.333333333333336 36.0 L 34.666666666666664 37.0 L 35.333333333333336 37.666666666666664 L 36.0 38.333333333333336 L 37.0 39.0 L 38.0 39.666666666666664 L 39.0 40.0 L 40.0 40.0 L 41.0 40.0 L 42.0 40.333333333333336 L 43.0 40.666666666666664 L 44.0 41.0 L 45.0 41.333333333333336 L 46.0 42.0 L 47.0 42.666666666666664 L 48.0 42.666666666666664 L 49.0 42.666666666666664 L 50.0 42.666666666666664 L 51.0 43.0 L 52.0 43.0 L 53.0 43.0 L 54.0 43.0 L 55.0 43.0 L 56.0 43.333333333333336 L 57.0 43.666666666666664 L 58.0 43.666666666666664 L 59.0 43.333333333333336 L 60.0 43.0 L 61.0 43.0 L 62.0 43.0 L 63.0 43.0 L 64.0 43.0 L 65.0 43.0 L 66.0 43.0 L 67.0 43.0 L 68.0 43.333333333333336 L 69.0 43.666666666666664 L 70.0 44.0 L 71.0 43.666666666666664 L 72.0 43.333333333333336 L 73.0 43.0 L 74.0 43.0 L 75.0 43.0 L 76.0 43.0 L 77.0 43.0 L 78.0 42.666666666666664 L 79.0 42.333333333333336 L 80.0 42.0 L 81.0 42.0 L 82.0 41.666666666666664 L 83.0 41.333333333333336 L 84.0 41.0 L 85.0 41.0 L 86.0 40.666666666666664 L 87.0 40.333333333333336 L 87.5 40.0 Z" stroke="none" fill="rgb(89,89,89)" />
<path d="M 88.5 34.5 L 88.66666666666667 34.0 L 89.0 33.0 L 89.0 32.0 L 88.66666666666667 31.333333333333332 L 88.0 31.0 L 87.0 30.666666666666668 L 86.0 30.333333333333332 L 85.0 30.333333333333332 L 84.33333333333333 31.0 L 84.0 32.0 L 84.0 33.0 L 84.0 34.0 L 84.33333333333333 34.666666666666664 L 85.0 35.0 L 86.0 35.0 L 87.0 35.0 L 87.5 35.0 Z" stroke="none" fill="rgb(35,35,35)" />
<path d="M 42.5 35.0 L 42.666666666666664 34.666666666666664 L 43.0 34.0 L 43.0 33.0 L 43.0 32.0 L 42.666666666666664 31.333333333333332 L 42.0 31.0 L 41.0 31.0 L 40.0 31.333333333333332 L 39.333333333333336 32.0 L 39.0 33.0 L 39.333333333333336 34.0 L 40.0 34.666666666666664 L 41.0 35.0 L 41.5 35.0 Z" stroke="none" fill="rgb(35,35,35)" />
<path d="M 23.5 54.0 L 24.0 54.0 L 25.0 54.0 L 26.0 54.0 L 27.0 54.0 L 28.0 54.0 L 29.0 53.666666666666664 L 30.0 53.0 L 31.0 52.0 L 32.0 51.0 L 32.666666666666664 50.0 L 33.0 49.0 L 33.0 48.0 L 33.0 47.0 L 33.0 46.0 L 33.0 45.0 L 33.0 44.0 L 33.0 43.0 L 32.666666666666664 42.0 L 32.333333333333336 41.0 L 31.666666666666668 40.0 L 31.0 39.0 L 30.0 38.333333333333336 L 29.0 37.666666666666664 L 28.0 37.333333333333336 L 27.0 37.0 L 26.0 37.0 L 25.0 37.0 L 24.0 37.0 L 23.0 37.0 L 22.0 37.333333333333336 L 21.0 37.666666666666664 L 20.0 38.333333333333336 L 19.0 38.666666666666664 L 18.333333333333332 39.333333333333336 L 17.666666666666668 40.0 L 17.0 41.0 L 16.333333333333332 42.0 L 16.0 43.0 L 16.0 44.0 L 16.0 45.0 L 16.0 46.0 L 16.0 47.0 L 16.0 48.0 L 16.333333333333332 49.0 L 16.666666666666668 50.0 L 17.333333333333332 51.0 L 18.0 52.0 L 19.0 53.0 L 20.0 53.666666666666664 L 21.0 54.0 L 22.0 54.0 L 22.5 54.0 Z" stroke="none" fill="rgb(228,48,0)" />
<path d="M 91.0 45.5 L 91.0 45.0 L 91.0 44.0 L 91.0 43.0 L 91.0 42.0 L 91.0 41.0 L 91.0 40.0 L 90.66666666666667 39.333333333333336 L 90.0 39.0 L 89.0 39.333333333333336 L 88.0 39.666666666666664 L 87.0 40.0 L 86.0 40.333333333333336 L 85.0 40.666666666666664 L 84.0 41.0 L 83.0 41.0 L 82.33333333333333 41.333333333333336 L 82.0 42.0 L 82.0 43.0 L 82.0 44.0 L 82.0 45.0 L 82.0 46.0 L 82.0 47.0 L 82.33333333333333 48.0 L 82.66666666666667 49.0 L 83.0 50.0 L 83.33333333333333 51.0 L 84.0 51.666666666666664 L 85.0 51.666666666666664 L 86.0 51.666666666666664 L 86.66666666666667 52.0 L 87.0 53.0 L 86.66666666666667 54.0 L 86.0 55.0 L 85.0 56.0 L 84.33333333333333 57.0 L 84.0 58.0 L 84.33333333333333 58.666666666666664 L 85.0 59.333333333333336 L 86.0 59.666666666666664 L 87.0 59.666666666666664 L 87.66666666666667 59.0 L 88.33333333333333 58.0 L 88.66666666666667 57.0 L 89.0 56.0 L 89.0 55.0 L 89.0 54.0 L 89.0 53.0 L 89.0 52.0 L 89.0 51.0 L 88.66666666666667 50.0 L 88.33333333333333 49.0 L 88.0 48.0 L 88.33333333333333 47.0 L 89.0 46.333333333333336 L 90.0 46.0 L 90.5 46.0 Z" stroke="none" fill="rgb(83,57,47)" />
<path d="M 40.5 48.5 L 41.0 49.0 L 42.0 50.0 L 42.666666666666664 51.0 L 43.333333333333336 52.0 L 44.0 52.666666666666664 L 45.0 52.666666666666664 L 45.666666666666664 52.0 L 46.0 51.0 L 46.0 50.0 L 46.333333333333336 49.0 L 46.666666666666664 48.0 L 47.0 47.0 L 47.0 46.0 L 47.0 45.0 L 47.0 44.0 L 47.0 43.0 L 46.666666666666664 42.0 L 46.0 41.333333333333336 L 45.0 41.0 L 44.0 40.666666666666664 L 43.0 40.333333333333336 L 42.0 40.0 L 41.0 40.0 L 40.0 40.0 L 39.0 40.0 L 38.333333333333336 40.333333333333336 L 38.0 41.0 L 38.0 42.0 L 38.333333333333336 43.0 L 38.666666666666664 44.0 L 39.0 45.0 L 39.333333333333336 46.0 L 39.666666666666664 47.0 L 40.0 47.5 Z" stroke="none" fill="rgb(83,57,47)" />
<path d="M 22.5 45.0 L 23.0 45.0 L 23.666666666666668 44.666666666666664 L 24.0 44.0 L 24.0 43.0 L 24.0 42.0 L 23.666666666666668 41.333333333333336 L 23.0 41.0 L 22.0 41.0 L 21.0 41.333333333333336 L 20.333333333333332 42.0 L 20.0 43.0 L 20.0 44.0 L 20.333333333333332 44.666666666666664 L 21.0 45.0 L 21.5 45.0 Z" stroke="none" fill="rgb(253,254,254)" />
<path d="M 57.5 72.0 L 58.0 72.0 L 59.0 72.0 L 60.0 72.0 L 61.0 72.0 L 62.0 72.0 L 63.0 72.0 L 64.0 72.0 L 65.0 72.0 L 66.0 72.0 L 67.0 72.0 L 68.0 72.33333333333333 L 69.0 73.0 L 70.0 73.66666666666667 L 71.0 74.0 L 71.66666666666667 73.66666666666667 L 71.66666666666667 73.0 L 71.66666666666667 72.0 L 72.0 71.33333333333333 L 73.0 70.66666666666667 L 74.0 70.33333333333333 L 75.0 69.66666666666667 L 76.0 69.0 L 77.0 68.0 L 78.0 67.0 L 79.0 66.0 L 80.0 65.0 L 81.0 64.0 L 82.0 63.333333333333336 L 82.66666666666667 62.666666666666664 L 83.0 62.0 L 83.33333333333333 61.0 L 83.66666666666667 60.0 L 84.0 59.0 L 84.0 58.0 L 84.0 57.0 L 84.0 56.0 L 84.0 55.0 L 84.0 54.0 L 84.0 53.0 L 84.0 52.0 L 83.66666666666667 51.0 L 83.33333333333333 50.0 L 83.0 49.0 L 82.66666666666667 48.0 L 82.33333333333333 47.0 L 82.0 46.0 L 82.0 45.0 L 82.0 44.0 L 82.0 43.0 L 81.66666666666667 42.333333333333336 L 81.0 42.0 L 80.0 42.0 L 79.0 42.0 L 78.33333333333333 42.333333333333336 L 78.0 43.0 L 78.0 44.0 L 77.66666666666667 45.0 L 77.33333333333333 46.0 L 77.0 47.0 L 77.0 48.0 L 77.0 49.0 L 76.66666666666667 50.0 L 76.0 51.0 L 75.0 51.666666666666664 L 74.0 51.666666666666664 L 73.0 51.0 L 72.0 50.0 L 71.66666666666667 49.0 L 71.66666666666667 48.0 L 72.0 47.0 L 71.66666666666667 46.0 L 71.0 45.0 L 70.0 44.0 L 69.0 43.333333333333336 L 68.0 43.0 L 67.0 43.0 L 66.0 43.0 L 65.0 43.0 L 64.0 43.0 L 63.0 43.0 L 62.0 43.0 L 61.0 43.0 L 60.0 43.0 L 59.0 43.0 L 58.333333333333336 43.333333333333336 L 57.666666666666664 44.0 L 57.0 45.0 L 56.333333333333336 46.0 L 56.0 47.0 L 56.333333333333336 48.0 L 56.333333333333336 49.0 L 56.0 50.0 L 55.0 51.0 L 54.0 51.666666666666664 L 53.0 51.666666666666664 L 52.0 51.0 L 51.333333333333336 50.0 L 51.0 49.0 L 51.333333333333336 48.0 L 51.666666666666664 47.0 L 51.666666666666664 46.0 L 51.0 45.0 L 50.333333333333336 44.0 L 50.0 43.0 L 49.666666666666664 42.333333333333336 L 49.0 42.0 L 48.0 42.333333333333336 L 47.333333333333336 43.0 L 47.0 44.0 L 47.0 45.0 L 47.0 46.0 L 46.666666666666664 47.0 L 46.333333333333336 48.0 L 46.0 49.0 L 46.0 50.0 L 45.666666666666664 51.0 L 45.333333333333336 52.0 L 45.0 53.0 L 45.0 54.0 L 44.666666666666664 55.0 L 44.333333333333336 56.0 L 44.0 57.0 L 44.333333333333336 58.0 L 44.666666666666664 59.0 L 45.333333333333336 60.0 L 45.666666666666664 61.0 L 46.333333333333336 62.0 L 47.0 63.0 L 47.666666666666664 64.0 L 48.333333333333336 65.0 L 49.0 66.0 L 50.0 67.0 L 51.0 68.0 L 52.0 69.0 L 53.0 69.66666666666667 L 54.0 70.33333333333333 L 55.0 70.66666666666667 L 56.0 71.33333333333333 L 56.5 71.5 Z" stroke="none" fill="rgb(186,141,104)" />
<path d="M 37.5 47.0 L 38.0 46.666666666666664 L 38.666666666666664 46.0 L 39.0 45.0 L 39.0 44.0 L 38.666666666666664 43.333333333333336 L 38.0 43.0 L 37.333333333333336 43.333333333333336 L 37.0 44.0 L 37.0 45.0 L 37.0 46.0 L 37.0 46.5 Z" stroke="none" fill="rgb(109,76,63)" />
<path d="M 56.5 46.5 L 57.0 46.0 L 57.666666666666664 45.0 L 57.666666666666664 44.0 L 57.0 43.333333333333336 L 56.0 43.0 L 55.0 43.0 L 54.0 43.0 L 53.0 43.0 L 52.0 43.0 L 51.0 43.0 L 50.333333333333336 43.333333333333336 L 50.0 44.0 L 50.333333333333336 45.0 L 51.0 45.666666666666664 L 52.0 46.0 L 53.0 46.0 L 54.0 46.333333333333336 L 55.0 46.666666666666664 L 55.5 47.0 Z" stroke="none" fill="rgb(95,65,54)" />
<path d="M 71.5 46.5 L 72.0 46.666666666666664 L 73.0 46.666666666666664 L 74.0 46.333333333333336 L 75.0 46.333333333333336 L 76.0 46.666666666666664 L 77.0 46.666666666666664 L 77.66666666666667 46.0 L 78.0 45.0 L 78.0 44.0 L 77.66666666666667 43.333333333333336 L 77.0 43.0 L 76.0 43.0 L 75.0 43.0 L 74.0 43.0 L 73.0 43.0 L 72.0 43.0 L 71.0 43.333333333333336 L 70.33333333333333 44.0 L 70.33333333333333 45.0 L 70.5 45.5 Z" stroke="none" fill="rgb(95,65,54)" />
<path d="M 40.5 53.0 L 40.666666666666664 52.666666666666664 L 41.0 52.0 L 41.0 51.0 L 41.0 50.0 L 41.0 49.0 L 40.666666666666664 48.0 L 40.333333333333336 47.0 L 39.666666666666664 46.333333333333336 L 39.0 46.0 L 38.333333333333336 46.333333333333336 L 38.0 47.0 L 38.0 48.0 L 38.0 49.0 L 37.666666666666664 50.0 L 37.333333333333336 51.0 L 37.0 52.0 L 37.333333333333336 53.0 L 37.666666666666664 54.0 L 38.333333333333336 54.666666666666664 L 38.666666666666664 54.666666666666664 L 39.333333333333336 54.0 L 39.5 53.5 Z" stroke="none" fill="rgb(95,65,54)" />
<path d="M 56.5 50.5 L 56.666666666666664 50.0 L 57.0 49.0 L 56.666666666666664 48.0 L 56.0 47.0 L 55.0 46.333333333333336 L 54.0 46.0 L 53.0 46.0 L 52.0 46.333333333333336 L 51.333333333333336 47.0 L 51.0 48.0 L 51.0 49.0 L 51.0 50.0 L 51.333333333333336 51.0 L 52.0 51.666666666666664 L 53.0 52.0 L 54.0 52.0 L 55.0 51.666666666666664 L 55.5 51.5 Z" stroke="none" fill="rgb(83,57,47)" />
<path d="M 77.0 50.5 L 77.0 50.0 L 77.0 49.0 L 77.0 48.0 L 76.66666666666667 47.0 L 76.0 46.333333333333336 L 75.0 46.0 L 74.0 46.0 L 73.0 46.333333333333336 L 72.0 47.0 L 71.33333333333333 48.0 L 71.0 49.0 L 71.33333333333333 50.0 L 72.0 51.0 L 73.0 51.666666666666664 L 74.0 52.0 L 75.0 52.0 L 76.0 51.666666666666664 L 76.5 51.5 Z" stroke="none" fill="rgb(83,57,47)" />
<path d="M 88.5 50.5 L 88.66666666666667 51.0 L 89.0 52.0 L 89.0 53.0 L 89.33333333333333 53.666666666666664 L 90.0 53.666666666666664 L 90.66666666666667 53.0 L 91.0 52.0 L 91.0 51.0 L 91.0 50.0 L 90.66666666666667 49.0 L 90.33333333333333 48.0 L 90.0 47.0 L 89.66666666666667 46.333333333333336 L 89.0 46.0 L 88.33333333333333 46.333333333333336 L 88.0 47.0 L 88.0 48.0 L 88.0 49.0 L 88.0 49.5 Z" stroke="none" fill="rgb(95,65,54)" />
<path d="M 108.5 64.0 L 109.0 64.0 L 110.0 63.666666666666664 L 111.0 63.0 L 112.0 62.0 L 113.0 61.0 L 113.66666666666667 60.0 L 114.0 59.0 L 114.0 58.0 L 114.0 57.0 L 114.0 56.0 L 114.0 55.0 L 114.0 54.0 L 114.0 53.0 L 114.0 52.0 L 113.66666666666667 51.0 L 113.0 50.0 L 112.0 49.0 L 111.0 48.333333333333336 L 110.0 47.666666666666664 L 109.0 47.333333333333336 L 108.0 47.0 L 107.0 47.0 L 106.0 47.0 L 105.0 47.0 L 104.0 47.0 L 103.0 47.0 L 102.0 47.333333333333336 L 101.0 48.0 L 100.0 48.666666666666664 L 99.33333333333333 49.333333333333336 L 98.66666666666667 50.0 L 98.33333333333333 51.0 L 97.66666666666667 52.0 L 97.33333333333333 53.0 L 97.0 54.0 L 97.0 55.0 L 97.0 56.0 L 97.0 57.0 L 97.33333333333333 58.0 L 97.66666666666667 59.0 L 98.0 60.0 L 98.33333333333333 61.0 L 99.0 62.0 L 100.0 62.666666666666664 L 101.0 63.333333333333336 L 102.0 63.666666666666664 L 103.0 64.0 L 104.0 64.0 L 105.0 64.0 L 106.0 64.0 L 107.0 64.0 L 107.5 64.0 Z" stroke="none" fill="rgb(0,152,238)" />
<path d="M 43.5 57.0 L 44.0 56.666666666666664 L 44.666666666666664 56.0 L 45.0 55.0 L 45.0 54.0 L 44.666666666666664 53.0 L 44.0 52.0 L 43.333333333333336 51.0 L 42.666666666666664 50.0 L 42.0 49.333333333333336 L 41.333333333333336 49.333333333333336 L 41.0 50.0 L 41.0 51.0 L 41.0 52.0 L 41.0 53.0 L 41.333333333333336 54.0 L 41.666666666666664 55.0 L 42.333333333333336 56.0 L 42.5 56.5 Z" stroke="none" fill="rgb(146,102,78)" />
<path d="M 84.5 57.0 L 85.0 56.666666666666664 L 86.0 56.0 L 86.66666666666667 55.0 L 87.0 54.0 L 87.0 53.0 L 87.0 52.0 L 86.66666666666667 51.333333333333336 L 86.0 51.0 L 85.0 51.333333333333336 L 84.33333333333333 52.0 L 84.0 53.0 L 84.0 54.0 L 84.0 55.0 L 84.0 56.0 L 84.0 56.5 Z" stroke="none" fill="rgb(146,102,78)" />
<path d="M 105.5 54.5 L 105.66666666666667 54.0 L 106.0 53.0 L 105.66666666666667 52.0 L 105.0 51.333333333333336 L 104.0 51.0 L 103.0 51.0 L 102.0 51.333333333333336 L 101.33333333333333 52.0 L 101.0 53.0 L 101.33333333333333 54.0 L 102.0 54.666666666666664 L 103.0 55.0 L 104.0 55.0 L 104.5 55.0 Z" stroke="none" fill="rgb(253,254,254)" />
<path d="M 48.5 71.0 L 49.0 71.0 L 49.666666666666664 70.66666666666667 L 50.333333333333336 70.0 L 50.666666666666664 69.0 L 51.0 68.0 L 50.666666666666664 67.0 L 50.0 66.0 L 49.0 65.0 L 48.333333333333336 64.0 L 47.666666666666664 63.0 L 47.0 62.0 L 46.333333333333336 61.0 L 45.666666666666664 60.0 L 45.333333333333336 59.0 L 44.666666666666664 58.0 L 44.0 57.0 L 43.0 56.0 L 42.333333333333336 55.0 L 41.666666666666664 54.0 L 41.0 53.333333333333336 L 40.0 53.0 L 39.333333333333336 53.333333333333336 L 39.0 54.0 L 39.0 55.0 L 39.0 56.0 L 39.0 57.0 L 39.333333333333336 58.0 L 40.0 59.0 L 41.0 60.0 L 42.0 60.666666666666664 L 43.0 61.333333333333336 L 44.0 62.0 L 44.666666666666664 63.0 L 44.666666666666664 64.0 L 44.0 65.0 L 43.0 65.66666666666667 L 42.333333333333336 66.33333333333333 L 42.0 67.0 L 42.333333333333336 67.66666666666667 L 43.0 68.0 L 44.0 68.33333333333333 L 45.0 69.0 L 46.0 69.66666666666667 L 47.0 70.33333333333333 L 47.5 70.5 Z" stroke="none" fill="rgb(83,57,47)" />
<path d="M 65.5 57.0 L 65.66666666666667 56.666666666666664 L 66.0 56.0 L 65.66666666666667 55.333333333333336 L 65.0 55.0 L 64.0 55.0 L 63.0 55.0 L 62.333333333333336 55.333333333333336 L 62.0 56.0 L 62.333333333333336 56.666666666666664 L 63.0 57.0 L 64.0 57.0 L 64.5 57.0 Z" stroke="none" fill="rgb(146,102,78)" />
<path d="M 20.5 76.0 L 21.0 76.0 L 22.0 76.0 L 23.0 76.0 L 24.0 76.0 L 25.0 76.0 L 26.0 76.0 L 27.0 76.0 L 27.666666666666668 75.66666666666667 L 28.0 75.0 L 28.333333333333332 74.0 L 28.666666666666668 73.0 L 29.0 72.0 L 29.0 71.0 L 29.0 70.0 L 28.666666666666668 69.0 L 28.0 68.0 L 27.0 67.0 L 26.333333333333332 66.0 L 26.0 65.0 L 26.0 64.0 L 26.0 63.0 L 26.0 62.0 L 25.666666666666668 61.0 L 25.0 60.0 L 24.0 59.333333333333336 L 23.0 58.666666666666664 L 22.0 58.0 L 21.0 57.333333333333336 L 20.0 57.0 L 19.0 57.0 L 18.0 57.0 L 17.0 57.0 L 16.0 57.0 L 15.0 57.333333333333336 L 14.0 58.0 L 13.0 58.666666666666664 L 12.0 59.0 L 11.0 59.333333333333336 L 10.333333333333334 60.0 L 10.0 61.0 L 10.0 62.0 L 10.0 63.0 L 10.0 64.0 L 10.0 65.0 L 10.0 66.0 L 10.0 67.0 L 10.0 68.0 L 10.0 69.0 L 10.333333333333334 70.0 L 10.666666666666666 71.0 L 11.333333333333334 72.0 L 12.0 73.0 L 13.0 74.0 L 14.0 74.66666666666667 L 15.0 75.33333333333333 L 16.0 75.66666666666667 L 17.0 76.0 L 18.0 76.0 L 19.0 76.0 L 19.5 76.0 Z" stroke="none" fill="rgb(219,219,219)" />
<path d="M 84.5 66.0 L 85.0 66.0 L 86.0 65.66666666666667 L 86.66666666666667 65.0 L 86.66666666666667 64.0 L 86.0 63.0 L 85.66666666666667 62.0 L 85.66666666666667 61.0 L 86.0 60.0 L 85.66666666666667 59.333333333333336 L 85.0 59.0 L 84.0 59.333333333333336 L 83.33333333333333 60.0 L 83.0 61.0 L 83.0 62.0 L 83.0 63.0 L 83.0 64.0 L 83.33333333333333 65.0 L 83.5 65.5 Z" stroke="none" fill="rgb(95,65,54)" />
<path d="M 66.5 64.0 L 67.0 64.0 L 68.0 64.0 L 69.0 63.666666666666664 L 70.0 63.0 L 70.66666666666667 62.0 L 71.0 61.0 L 70.66666666666667 60.333333333333336 L 70.0 60.0 L 69.0 60.0 L 68.0 60.0 L 67.0 60.0 L 66.0 60.0 L 65.0 60.0 L 64.0 60.0 L 63.0 60.0 L 62.0 60.0 L 61.0 60.0 L 60.0 60.0 L 59.0 60.0 L 58.0 60.0 L 57.333333333333336 60.333333333333336 L 57.0 61.0 L 57.333333333333336 62.0 L 58.0 62.666666666666664 L 59.0 63.333333333333336 L 60.0 63.666666666666664 L 61.0 64.0 L 62.0 64.0 L 63.0 64.0 L 64.0 64.0 L 65.0 64.0 L 65.5 64.0 Z" stroke="none" fill="rgb(95,65,54)" />
<path d="M 45.0 62.5 L 44.666666666666664 62.0 L 44.0 61.333333333333336 L 43.0 61.0 L 42.333333333333336 61.333333333333336 L 42.0 62.0 L 42.0 63.0 L 42.333333333333336 63.666666666666664 L 43.0 64.0 L 44.0 63.666666666666664 L 44.5 63.5 Z" stroke="none" fill="rgb(109,76,63)" />
<path d="M 45.0 64.5 L 45.0 64.0 L 44.666666666666664 63.333333333333336 L 44.0 63.333333333333336 L 43.0 63.666666666666664 L 42.333333333333336 64.33333333333333 L 42.0 65.0 L 42.333333333333336 65.66666666666667 L 43.0 66.0 L 44.0 65.66666666666667 L 44.5 65.5 Z" stroke="none" fill="rgb(95,65,54)" />
<path d="M 83.5 68.5 L 84.0 68.33333333333333 L 85.0 68.0 L 86.0 67.66666666666667 L 86.66666666666667 67.0 L 87.0 66.0 L 86.66666666666667 65.33333333333333 L 86.0 65.33333333333333 L 85.0 65.33333333333333 L 84.0 65.0 L 83.33333333333333 64.0 L 82.66666666666667 63.333333333333336 L 82.0 63.0 L 81.0 63.333333333333336 L 80.0 64.0 L 79.0 65.0 L 78.0 66.0 L 77.33333333333333 67.0 L 77.0 68.0 L 77.33333333333333 68.66666666666667 L 78.0 69.33333333333333 L 79.0 69.66666666666667 L 80.0 70.0 L 81.0 70.0 L 82.0 69.66666666666667 L 82.5 69.5 Z" stroke="none" fill="rgb(83,57,47)" />
<path d="M 50.5 71.5 L 51.0 71.66666666666667 L 52.0 71.66666666666667 L 52.666666666666664 71.0 L 53.0 70.0 L 52.666666666666664 69.0 L 52.0 68.33333333333333 L 51.0 68.33333333333333 L 50.333333333333336 69.0 L 50.0 70.0 L 50.0 70.5 Z" stroke="none" fill="rgb(95,65,54)" />
<path d="M 77.5 71.0 L 78.0 70.66666666666667 L 78.66666666666667 70.0 L 78.66666666666667 69.33333333333333 L 78.0 68.66666666666667 L 77.0 68.33333333333333 L 76.0 68.33333333333333 L 75.33333333333333 69.0 L 75.0 70.0 L 75.33333333333333 70.66666666666667 L 76.0 71.0 L 76.5 71.0 Z" stroke="none" fill="rgb(95,65,54)" />
<path d="M 55.5 75.0 L 56.0 75.0 L 57.0 75.0 L 57.666666666666664 74.66666666666667 L 58.0 74.0 L 58.0 73.0 L 57.666666666666664 72.0 L 57.0 71.33333333333333 L 56.0 70.66666666666667 L 55.0 70.33333333333333 L 54.0 70.0 L 53.0 70.33333333333333 L 52.333333333333336 71.0 L 52.0 72.0 L 52.333333333333336 73.0 L 53.0 74.0 L 54.0 74.66666666666667 L 54.5 75.0 Z" stroke="none" fill="rgb(109,76,63)" />
<path d="M 75.5 76.0 L 75.66666666666667 75.66666666666667 L 76.0 75.0 L 76.0 74.0 L 76.33333333333333 73.0 L 77.0 72.33333333333333 L 78.0 72.0 L 79.0 71.66666666666667 L 79.66666666666667 71.0 L 79.66666666666667 70.33333333333333 L 79.0 70.0 L 78.0 70.33333333333333 L 77.0 70.66666666666667 L 76.0 70.66666666666667 L 75.0 70.33333333333333 L 74.0 70.0 L 73.0 70.33333333333333 L 72.0 70.66666666666667 L 71.33333333333333 71.33333333333333 L 71.0 72.0 L 71.33333333333333 73.0 L 72.0 74.0 L 73.0 75.0 L 74.0 75.66666666666667 L 74.5 76.0 Z" stroke="none" fill="rgb(109,76,63)" />
<path d="M 107.5 90.0 L 108.0 90.0 L 109.0 90.0 L 110.0 90.0 L 111.0 90.0 L 112.0 90.0 L 113.0 90.0 L 114.0 90.0 L 115.0 89.66666666666667 L 116.0 89.0 L 117.0 88.0 L 118.0 87.0 L 119.0 86.0 L 119.66666666666667 85.0 L 120.33333333333333 84.0 L 120.66666666666667 83.0 L 121.0 82.0 L 121.0 81.0 L 121.0 80.0 L 121.0 79.0 L 121.0 78.0 L 121.0 77.0 L 121.0 76.0 L 121.0 75.0 L 120.66666666666667 74.0 L 120.0 73.0 L 119.0 72.33333333333333 L 118.0 72.0 L 117.0 71.66666666666667 L 116.0 71.33333333333333 L 115.0 71.0 L 114.0 71.0 L 113.0 71.0 L 112.0 71.0 L 111.0 71.0 L 110.0 71.0 L 109.0 71.33333333333333 L 108.0 72.0 L 107.0 72.66666666666667 L 106.0 73.33333333333333 L 105.33333333333333 74.0 L 105.0 75.0 L 105.0 76.0 L 105.0 77.0 L 105.0 78.0 L 104.66666666666667 79.0 L 104.0 80.0 L 103.0 81.0 L 102.33333333333333 82.0 L 102.0 83.0 L 102.0 84.0 L 102.0 85.0 L 102.0 86.0 L 102.33333333333333 87.0 L 103.0 88.0 L 104.0 88.66666666666667 L 105.0 89.0 L 106.0 89.33333333333333 L 106.5 89.5 Z" stroke="none" fill="rgb(219,219,219)" />
<path d="M 63.5 77.0 L 64.0 77.0 L 65.0 77.0 L 66.0 77.0 L 67.0 76.66666666666667 L 68.0 76.33333333333333 L 69.0 75.66666666666667 L 69.66666666666667 75.0 L 70.0 74.0 L 69.66666666666667 73.0 L 69.0 72.33333333333333 L 68.0 72.0 L 67.0 72.0 L 66.0 72.0 L 65.0 72.0 L 64.0 72.0 L 63.0 72.0 L 62.0 72.0 L 61.0 72.0 L 60.0 72.0 L 59.0 72.0 L 58.333333333333336 72.33333333333333 L 58.0 73.0 L 58.0 74.0 L 58.333333333333336 75.0 L 59.0 76.0 L 60.0 76.66666666666667 L 61.0 77.0 L 62.0 77.0 L 62.5 77.0 Z" stroke="none" fill="rgb(146,102,78)" />
<path d="M 81.5 124.0 L 82.0 124.0 L 83.0 124.0 L 84.0 124.0 L 85.0 124.0 L 86.0 124.0 L 86.66666666666667 123.66666666666667 L 87.0 123.0 L 87.0 122.0 L 87.0 121.0 L 87.0 120.0 L 87.0 119.0 L 87.0 118.0 L 87.0 117.0 L 87.0 116.0 L 87.0 115.0 L 87.0 114.0 L 87.0 113.0 L 86.66666666666667 112.0 L 86.0 111.33333333333333 L 85.0 111.0 L 84.0 111.0 L 83.0 110.66666666666667 L 82.33333333333333 110.0 L 82.0 109.0 L 82.0 108.0 L 82.0 107.0 L 82.0 106.0 L 82.0 105.0 L 82.0 104.0 L 82.0 103.0 L 82.0 102.0 L 82.0 101.0 L 82.0 100.0 L 82.0 99.0 L 82.0 98.0 L 82.0 97.0 L 82.0 96.0 L 82.0 95.0 L 82.0 94.0 L 82.0 93.0 L 82.0 92.0 L 82.0 91.0 L 82.0 90.0 L 82.0 89.0 L 82.0 88.0 L 82.0 87.0 L 82.0 86.0 L 82.0 85.0 L 82.0 84.0 L 82.0 83.0 L 82.0 82.0 L 82.0 81.0 L 82.0 80.0 L 82.0 79.0 L 82.0 78.0 L 81.66666666666667 77.0 L 81.0 76.0 L 80.0 75.33333333333333 L 79.0 75.0 L 78.0 75.0 L 77.0 75.0 L 76.0 75.33333333333333 L 75.33333333333333 76.0 L 75.0 77.0 L 75.0 78.0 L 75.0 79.0 L 75.0 80.0 L 75.0 81.0 L 75.0 82.0 L 75.0 83.0 L 75.0 84.0 L 75.0 85.0 L 75.0 86.0 L 75.0 87.0 L 75.0 88.0 L 75.0 89.0 L 75.0 90.0 L 75.0 91.0 L 75.0 92.0 L 75.0 93.0 L 75.0 94.0 L 75.0 95.0 L 75.0 96.0 L 75.0 97.0 L 75.0 98.0 L 75.0 99.0 L 75.0 100.0 L 75.0 101.0 L 75.0 102.0 L 75.0 103.0 L 75.0 104.0 L 75.0 105.0 L 75.0 106.0 L 75.0 107.0 L 75.0 108.0 L 75.0 109.0 L 74.66666666666667 110.0 L 74.0 110.66666666666667 L 73.0 111.0 L 72.0 111.0 L 71.0 111.0 L 70.0 111.0 L 69.0 111.0 L 68.0 111.0 L 67.0 111.0 L 66.0 111.0 L 65.0 111.0 L 64.0 111.0 L 63.0 111.0 L 62.0 111.0 L 61.0 111.0 L 60.0 111.0 L 59.0 111.0 L 58.0 111.0 L 57.0 111.0 L 56.0 111.0 L 55.0 111.0 L 54.0 111.0 L 53.0 110.66666666666667 L 52.333333333333336 110.0 L 52.0 109.0 L 52.0 108.0 L 52.0 107.0 L 52.0 106.0 L 52.0 105.0 L 52.0 104.0 L 52.0 103.0 L 52.0 102.0 L 52.0 101.0 L 52.0 100.0 L 52.0 99.0 L 52.0 98.0 L 52.0 97.0 L 52.0 96.0 L 52.0 95.0 L 52.0 94.0 L 52.0 93.0 L 52.0 92.0 L 52.0 91.0 L 52.0 90.0 L 52.0 89.0 L 52.0 88.0 L 52.0 87.0 L 52.0 86.0 L 52.0 85.0 L 52.333333333333336 84.0 L 52.666666666666664 83.0 L 53.0 82.0 L 53.0 81.0 L 53.0 80.0 L 53.0 79.0 L 53.0 78.0 L 53.0 77.0 L 52.666666666666664 76.0 L 52.0 75.0 L 51.0 74.33333333333333 L 50.0 74.33333333333333 L 49.0 74.66666666666667 L 48.0 75.0 L 47.0 75.33333333333333 L 46.0 76.0 L 45.333333333333336 77.0 L 45.0 78.0 L 45.0 79.0 L 45.0 80.0 L 45.0 81.0 L 45.0 82.0 L 45.0 83.0 L 45.0 84.0 L 45.0 85.0 L 45.0 86.0 L 45.0 87.0 L 45.0 88.0 L 45.0 89.0 L 45.0 90.0 L 45.0 91.0 L 45.0 92.0 L 45.0 93.0 L 45.0 94.0 L 45.0 95.0 L 45.0 96.0 L 45.0 97.0 L 45.0 98.0 L 45.0 99.0 L 45.0 100.0 L 45.0 101.0 L 45.0 102.0 L 45.0 103.0 L 45.0 104.0 L 45.0 105.0 L 45.0 106.0 L 45.0 107.0 L 45.0 108.0 L 45.0 109.0 L 44.666666666666664 110.0 L 44.0 111.0 L 43.0 111.66666666666667 L 42.0 112.0 L 41.0 112.0 L 40.333333333333336 112.33333333333333 L 40.0 113.0 L 40.0 114.0 L 40.0 115.0 L 40.0 116.0 L 40.0 117.0 L 40.0 118.0 L 40.0 119.0 L 40.0 120.0 L 40.0 121.0 L 40.0 122.0 L 40.0 123.0 L 40.333333333333336 123.66666666666667 L 41.0 124.0 L 42.0 124.0 L 43.0 124.0 L 44.0 124.0 L 45.0 124.0 L 46.0 124.0 L 47.0 124.0 L 48.0 124.0 L 49.0 124.0 L 50.0 124.0 L 51.0 124.0 L 52.0 124.0 L 53.0 124.0 L 54.0 124.0 L 55.0 124.0 L 56.0 124.0 L 57.0 124.0 L 58.0 124.0 L 59.0 124.0 L 60.0 124.0 L 61.0 124.0 L 62.0 124.0 L 63.0 124.0 L 64.0 124.0 L 65.0 124.0 L 66.0 124.0 L 67.0 124.0 L 68.0 124.0 L 69.0 124.0 L 70.0 124.0 L 71.0 124.0 L 72.0 124.0 L 73.0 124.0 L 74.0 124.0 L 75.0 124.0 L 76.0 124.0 L 77.0 124.0 L 78.0 124.0 L 79.0 124.0 L 80.0 124.0 L 80.5 124.0 Z" stroke="none" fill="rgb(124,124,124)" />
<path d="M 59.5 83.0 L 60.0 82.66666666666667 L 61.0 82.33333333333333 L 62.0 82.0 L 63.0 82.0 L 64.0 82.0 L 65.0 82.0 L 66.0 82.0 L 67.0 82.33333333333333 L 68.0 82.66666666666667 L 69.0 83.0 L 70.0 83.0 L 71.0 83.0 L 72.0 83.0 L 73.0 83.0 L 74.0 83.0 L 74.66666666666667 82.66666666666667 L 75.0 82.0 L 75.0 81.0 L 75.0 80.0 L 75.0 79.0 L 75.0 78.0 L 75.0 77.0 L 74.66666666666667 76.0 L 74.0 75.0 L 73.0 74.33333333333333 L 72.0 74.0 L 71.0 74.0 L 70.0 74.33333333333333 L 69.0 75.0 L 68.0 75.66666666666667 L 67.0 76.33333333333333 L 66.0 76.66666666666667 L 65.0 77.0 L 64.0 77.0 L 63.0 77.0 L 62.0 77.0 L 61.0 76.66666666666667 L 60.0 76.0 L 59.0 75.33333333333333 L 58.0 75.0 L 57.0 75.0 L 56.0 75.0 L 55.0 75.0 L 54.0 75.33333333333333 L 53.333333333333336 76.0 L 53.0 77.0 L 53.0 78.0 L 53.0 79.0 L 53.0 80.0 L 53.0 81.0 L 53.0 82.0 L 53.333333333333336 82.66666666666667 L 54.0 83.0 L 55.0 83.0 L 56.0 83.0 L 57.0 83.0 L 58.0 83.0 L 58.5 83.0 Z" stroke="none" fill="rgb(35,35,35)" />
<path d="M 24.5 92.0 L 25.0 92.0 L 26.0 92.0 L 27.0 92.0 L 28.0 92.0 L 29.0 92.0 L 30.0 92.0 L 31.0 92.0 L 32.0 92.0 L 33.0 92.0 L 34.0 92.0 L 35.0 92.0 L 36.0 92.0 L 37.0 92.0 L 38.0 92.0 L 39.0 92.0 L 40.0 92.0 L 41.0 92.0 L 42.0 92.0 L 43.0 92.0 L 44.0 92.0 L 44.666666666666664 91.66666666666667 L 45.0 91.0 L 45.0 90.0 L 45.0 89.0 L 45.0 88.0 L 45.0 87.0 L 45.0 86.0 L 45.0 85.0 L 45.0 84.0 L 45.0 83.0 L 45.0 82.0 L 45.0 81.0 L 45.0 80.0 L 45.0 79.0 L 45.0 78.0 L 44.666666666666664 77.33333333333333 L 44.0 77.0 L 43.0 77.0 L 42.0 77.33333333333333 L 41.0 78.0 L 40.0 79.0 L 39.0 79.66666666666667 L 38.0 80.33333333333333 L 37.0 81.0 L 36.0 82.0 L 35.0 83.0 L 34.0 84.0 L 33.0 85.0 L 32.0 85.33333333333333 L 31.333333333333332 85.0 L 31.0 84.0 L 30.666666666666668 83.0 L 30.333333333333332 82.0 L 30.0 81.0 L 29.666666666666668 80.0 L 29.333333333333332 79.0 L 29.0 78.0 L 28.666666666666668 77.0 L 28.0 76.33333333333333 L 27.0 76.0 L 26.0 76.0 L 25.0 76.0 L 24.0 76.0 L 23.0 76.0 L 22.0 76.0 L 21.0 76.0 L 20.0 76.0 L 19.0 76.0 L 18.0 76.0 L 17.333333333333332 76.33333333333333 L 17.0 77.0 L 17.0 78.0 L 17.0 79.0 L 17.0 80.0 L 17.0 81.0 L 17.0 82.0 L 17.333333333333332 83.0 L 17.666666666666668 84.0 L 18.0 85.0 L 18.0 86.0 L 18.0 87.0 L 18.0 88.0 L 18.333333333333332 89.0 L 18.666666666666668 90.0 L 19.0 91.0 L 19.333333333333332 91.66666666666667 L 20.0 92.0 L 21.0 92.0 L 22.0 92.0 L 23.0 92.0 L 23.5 92.0 Z" stroke="none" fill="rgb(253,106,6)" />
<path d="M 88.5 92.0 L 89.0 92.0 L 90.0 92.0 L 91.0 92.0 L 92.0 92.0 L 93.0 92.0 L 94.0 91.66666666666667 L 94.66666666666667 91.0 L 94.66666666666667 90.0 L 94.0 89.0 L 93.33333333333333 88.0 L 92.66666666666667 87.0 L 92.33333333333333 86.0 L 91.66666666666667 85.0 L 91.0 84.0 L 90.33333333333333 83.0 L 89.66666666666667 82.0 L 89.0 81.0 L 88.0 80.0 L 87.0 79.0 L 86.0 78.33333333333333 L 85.0 77.66666666666667 L 84.0 77.33333333333333 L 83.0 77.0 L 82.33333333333333 77.33333333333333 L 82.0 78.0 L 82.0 79.0 L 82.0 80.0 L 82.0 81.0 L 82.0 82.0 L 82.0 83.0 L 82.0 84.0 L 82.0 85.0 L 82.0 86.0 L 82.0 87.0 L 82.0 88.0 L 82.0 89.0 L 82.0 90.0 L 82.0 91.0 L 82.33333333333333 91.66666666666667 L 83.0 92.0 L 84.0 92.0 L 85.0 92.0 L 86.0 92.0 L 87.0 92.0 L 87.5 92.0 Z" stroke="none" fill="rgb(253,106,6)" />
<path d="M 59.5 92.0 L 60.0 92.0 L 61.0 92.0 L 62.0 92.0 L 63.0 92.0 L 64.0 92.0 L 65.0 92.0 L 66.0 92.0 L 67.0 92.0 L 68.0 92.0 L 69.0 92.0 L 70.0 92.0 L 71.0 92.0 L 72.0 92.0 L 73.0 92.0 L 74.0 92.0 L 74.66666666666667 91.66666666666667 L 75.0 91.0 L 75.0 90.0 L 75.0 89.0 L 75.0 88.0 L 75.0 87.0 L 75.0 86.0 L 75.0 85.0 L 75.0 84.0 L 74.66666666666667 83.33333333333333 L 74.0 83.0 L 73.0 83.0 L 72.0 83.0 L 71.0 83.0 L 70.0 83.0 L 69.0 82.66666666666667 L 68.0 82.33333333333333 L 67.0 82.0 L 66.0 82.0 L 65.0 82.0 L 64.0 82.0 L 63.0 82.0 L 62.0 82.0 L 61.0 82.0 L 60.0 82.33333333333333 L 59.0 82.66666666666667 L 58.0 83.0 L 57.0 83.0 L 56.0 83.0 L 55.0 83.0 L 54.0 83.0 L 53.0 83.0 L 52.333333333333336 83.33333333333333 L 52.0 84.0 L 52.0 85.0 L 52.0 86.0 L 52.0 87.0 L 52.0 88.0 L 52.0 89.0 L 52.0 90.0 L 52.0 91.0 L 52.333333333333336 91.66666666666667 L 53.0 92.0 L 54.0 92.0 L 55.0 92.0 L 56.0 92.0 L 57.0 92.0 L 58.0 92.0 L 58.5 92.0 Z" stroke="none" fill="rgb(253,106,6)" />
<path d="M 111.5 92.0 L 112.0 92.0 L 113.0 92.0 L 113.66666666666667 91.66666666666667 L 114.0 91.0 L 113.66666666666667 90.33333333333333 L 113.0 90.0 L 112.0 90.0 L 111.0 90.0 L 110.0 90.0 L 109.0 90.0 L 108.0 89.66666666666667 L 107.0 89.33333333333333 L 106.0 89.0 L 105.0 88.66666666666667 L 104.0 88.0 L 103.0 87.33333333333333 L 102.0 87.0 L 101.0 87.33333333333333 L 100.33333333333333 88.0 L 99.66666666666667 89.0 L 99.33333333333333 90.0 L 99.33333333333333 91.0 L 100.0 91.66666666666667 L 101.0 92.0 L 102.0 92.0 L 103.0 92.0 L 104.0 92.0 L 105.0 92.0 L 106.0 92.0 L 107.0 92.0 L 108.0 92.0 L 109.0 92.0 L 110.0 92.0 L 110.5 92.0 Z" stroke="none" fill="rgb(253,106,6)" />
<path d="M 95.5 102.0 L 96.0 102.0 L 97.0 102.0 L 98.0 102.0 L 99.0 102.0 L 100.0 102.0 L 101.0 102.0 L 102.0 102.0 L 103.0 102.0 L 104.0 102.0 L 105.0 102.0 L 106.0 102.0 L 107.0 102.0 L 108.0 102.0 L 109.0 102.0 L 109.66666666666667 101.66666666666667 L 110.33333333333333 101.0 L 110.66666666666667 100.0 L 111.33333333333333 99.0 L 111.66666666666667 98.0 L 112.0 97.0 L 112.33333333333333 96.0 L 112.66666666666667 95.0 L 113.0 94.0 L 113.0 93.0 L 112.66666666666667 92.33333333333333 L 112.0 92.0 L 111.0 92.0 L 110.0 92.0 L 109.0 92.0 L 108.0 92.0 L 107.0 92.0 L 106.0 92.0 L 105.0 92.0 L 104.0 92.0 L 103.0 92.0 L 102.0 92.0 L 101.0 91.66666666666667 L 100.0 91.33333333333333 L 99.0 91.0 L 98.33333333333333 91.33333333333333 L 97.66666666666667 92.0 L 97.0 92.33333333333333 L 96.0 92.0 L 95.0 91.33333333333333 L 94.0 91.33333333333333 L 93.0 91.66666666666667 L 92.0 92.0 L 91.0 92.0 L 90.0 92.0 L 89.0 92.0 L 88.0 92.0 L 87.0 92.0 L 86.0 92.0 L 85.0 92.0 L 84.0 92.0 L 83.0 92.0 L 82.33333333333333 92.33333333333333 L 82.0 93.0 L 82.0 94.0 L 82.0 95.0 L 82.0 96.0 L 82.0 97.0 L 82.0 98.0 L 82.0 99.0 L 82.0 100.0 L 82.0 101.0 L 82.33333333333333 101.66666666666667 L 83.0 102.0 L 84.0 102.0 L 85.0 102.0 L 86.0 102.0 L 87.0 102.0 L 88.0 102.0 L 89.0 102.0 L 90.0 102.0 L 91.0 102.0 L 92.0 102.0 L 93.0 102.0 L 94.0 102.0 L 94.5 102.0 Z" stroke="none" fill="rgb(252,94,5)" />
<path d="M 24.5 102.5 L 25.0 102.66666666666667 L 26.0 102.66666666666667 L 27.0 102.33333333333333 L 28.0 102.0 L 29.0 102.0 L 30.0 102.0 L 31.0 102.0 L 32.0 102.0 L 33.0 102.0 L 34.0 102.0 L 35.0 102.33333333333333 L 36.0 102.66666666666667 L 37.0 103.0 L 38.0 103.0 L 39.0 102.66666666666667 L 40.0 102.33333333333333 L 41.0 102.0 L 42.0 102.0 L 43.0 102.0 L 44.0 102.0 L 44.666666666666664 101.66666666666667 L 45.0 101.0 L 45.0 100.0 L 45.0 99.0 L 45.0 98.0 L 45.0 97.0 L 45.0 96.0 L 45.0 95.0 L 45.0 94.0 L 45.0 93.0 L 44.666666666666664 92.33333333333333 L 44.0 92.0 L 43.0 92.0 L 42.0 92.0 L 41.0 92.0 L 40.0 92.0 L 39.0 92.0 L 38.0 92.0 L 37.0 92.0 L 36.0 92.0 L 35.0 92.0 L 34.0 92.0 L 33.0 92.0 L 32.0 92.0 L 31.0 92.0 L 30.0 92.0 L 29.0 92.0 L 28.0 92.0 L 27.0 92.0 L 26.0 92.0 L 25.0 92.0 L 24.0 92.0 L 23.0 92.0 L 22.0 92.0 L 21.0 92.0 L 20.0 92.0 L 19.333333333333332 92.33333333333333 L 19.0 93.0 L 19.333333333333332 94.0 L 19.666666666666668 95.0 L 20.0 96.0 L 20.0 97.0 L 20.333333333333332 98.0 L 21.0 99.0 L 21.666666666666668 100.0 L 22.333333333333332 101.0 L 23.0 101.66666666666667 L 23.5 102.0 Z" stroke="none" fill="rgb(252,94,5)" />
<path d="M 58.5 102.0 L 59.0 102.0 L 60.0 102.0 L 61.0 102.0 L 62.0 102.0 L 63.0 102.0 L 64.0 102.0 L 65.0 102.0 L 66.0 102.0 L 67.0 102.0 L 68.0 102.0 L 69.0 102.0 L 70.0 102.0 L 71.0 102.0 L 72.0 102.0 L 73.0 102.0 L 74.0 102.0 L 74.66666666666667 101.66666666666667 L 75.0 101.0 L 75.0 100.0 L 75.0 99.0 L 75.0 98.0 L 75.0 97.0 L 75.0 96.0 L 75.0 95.0 L 75.0 94.0 L 75.0 93.0 L 74.66666666666667 92.33333333333333 L 74.0 92.0 L 73.0 92.0 L 72.0 92.0 L 71.0 92.0 L 70.0 92.0 L 69.0 92.0 L 68.0 92.0 L 67.0 92.0 L 66.0 92.0 L 65.0 92.0 L 64.0 92.0 L 63.0 92.0 L 62.0 92.0 L 61.0 92.0 L 60.0 92.0 L 59.0 92.0 L 58.0 92.0 L 57.0 92.0 L 56.0 92.0 L 55.0 92.0 L 54.0 92.0 L 53.0 92.0 L 52.333333333333336 92.33333333333333 L 52.0 93.0 L 52.0 94.0 L 52.0 95.0 L 52.0 96.0 L 52.0 97.0 L 52.0 98.0 L 52.0 99.0 L 52.0 100.0 L 52.0 101.0 L 52.333333333333336 101.66666666666667 L 53.0 102.0 L 54.0 102.0 L 55.0 102.0 L 56.0 102.0 L 57.0 102.0 L 57.5 102.0 Z" stroke="none" fill="rgb(252,94,5)" />
<path d="M 27.5 104.0 L 28.0 104.0 L 29.0 104.0 L 30.0 104.0 L 31.0 104.0 L 32.0 104.0 L 33.0 104.0 L 34.0 104.0 L 35.0 103.66666666666667 L 35.666666666666664 103.0 L 35.666666666666664 102.33333333333333 L 35.0 102.0 L 34.0 102.0 L 33.0 102.0 L 32.0 102.0 L 31.0 102.0 L 30.0 102.0 L 29.0 102.0 L 28.0 102.0 L 27.0 102.0 L 26.333333333333332 102.33333333333333 L 26.0 103.0 L 26.333333333333332 103.66666666666667 L 26.5 104.0 Z" stroke="none" fill="rgb(250,82,5)" />
<path d="M 43.5 112.0 L 44.0 111.66666666666667 L 44.666666666666664 111.0 L 45.0 110.0 L 45.0 109.0 L 45.0 108.0 L 45.0 107.0 L 45.0 106.0 L 45.0 105.0 L 45.0 104.0 L 45.0 103.0 L 44.666666666666664 102.33333333333333 L 44.0 102.0 L 43.0 102.0 L 42.0 102.0 L 41.333333333333336 102.33333333333333 L 41.0 103.0 L 41.0 104.0 L 41.0 105.0 L 41.0 106.0 L 41.0 107.0 L 40.666666666666664 108.0 L 40.333333333333336 109.0 L 40.0 110.0 L 40.333333333333336 111.0 L 41.0 111.66666666666667 L 42.0 112.0 L 42.5 112.0 Z" stroke="none" fill="rgb(250,82,5)" />
<path d="M 75.0 110.5 L 75.0 110.0 L 75.0 109.0 L 75.0 108.0 L 75.0 107.0 L 75.0 106.0 L 75.0 105.0 L 75.0 104.0 L 75.0 103.0 L 74.66666666666667 102.33333333333333 L 74.0 102.0 L 73.0 102.0 L 72.0 102.0 L 71.0 102.0 L 70.0 102.0 L 69.0 102.0 L 68.0 102.0 L 67.0 102.0 L 66.0 102.0 L 65.0 102.0 L 64.0 102.0 L 63.0 102.0 L 62.0 102.0 L 61.0 102.0 L 60.0 102.0 L 59.0 102.0 L 58.0 102.0 L 57.0 102.0 L 56.0 102.0 L 55.0 102.0 L 54.0 102.0 L 53.0 102.0 L 52.333333333333336 102.33333333333333 L 52.0 103.0 L 52.0 104.0 L 52.0 105.0 L 52.0 106.0 L 52.0 107.0 L 52.0 108.0 L 52.0 109.0 L 52.0 110.0 L 52.333333333333336 110.66666666666667 L 53.0 111.0 L 54.0 111.0 L 55.0 111.0 L 56.0 111.0 L 57.0 111.0 L 58.0 111.0 L 59.0 111.0 L 60.0 111.0 L 61.0 111.0 L 62.0 111.0 L 63.0 111.0 L 64.0 111.0 L 65.0 111.0 L 66.0 111.0 L 67.0 111.0 L 68.0 111.0 L 69.0 111.0 L 70.0 111.0 L 71.0 111.0 L 72.0 111.0 L 73.0 111.0 L 74.0 111.0 L 74.5 111.0 Z" stroke="none" fill="rgb(250,82,5)" />
<path d="M 95.5 113.0 L 96.0 113.0 L 97.0 113.0 L 98.0 113.0 L 99.0 113.0 L 100.0 113.0 L 101.0 113.0 L 102.0 112.66666666666667 L 103.0 112.33333333333333 L 104.0 111.66666666666667 L 105.0 111.0 L 105.66666666666667 110.0 L 106.33333333333333 109.0 L 106.66666666666667 108.0 L 107.33333333333333 107.0 L 107.66666666666667 106.0 L 108.33333333333333 105.0 L 108.66666666666667 104.0 L 109.0 103.0 L 108.66666666666667 102.33333333333333 L 108.0 102.0 L 107.0 102.0 L 106.0 102.0 L 105.0 102.0 L 104.0 102.0 L 103.0 102.0 L 102.0 102.0 L 101.0 102.0 L 100.0 102.0 L 99.0 102.0 L 98.0 102.0 L 97.0 102.0 L 96.0 102.0 L 95.0 102.0 L 94.0 102.0 L 93.0 102.0 L 92.0 102.0 L 91.0 102.0 L 90.0 102.0 L 89.0 102.0 L 88.0 102.0 L 87.0 102.0 L 86.0 102.0 L 85.0 102.0 L 84.0 102.0 L 83.0 102.0 L 82.33333333333333 102.33333333333333 L 82.0 103.0 L 82.0 104.0 L 82.0 105.0 L 82.0 106.0 L 82.0 107.0 L 82.0 108.0 L 82.0 109.0 L 82.0 110.0 L 82.33333333333333 110.66666666666667 L 83.0 111.0 L 84.0 111.0 L 85.0 111.0 L 86.0 111.0 L 86.66666666666667 110.66666666666667 L 87.0 110.0 L 87.33333333333333 109.0 L 88.0 108.66666666666667 L 88.66666666666667 109.0 L 89.33333333333333 110.0 L 90.0 111.0 L 91.0 111.66666666666667 L 92.0 112.33333333333333 L 93.0 112.66666666666667 L 94.0 113.0 L 94.5 113.0 Z" stroke="none" fill="rgb(250,82,5)" />
</svg>
