<?xml version="1.0" encoding="UTF-8" standalone="no"?>
<!DOCTYPE svg PUBLIC "-//W3C//DTD SVG 1.1//EN"
"http://www.w3.org/Graphics/SVG/1.1/DTD/svg11.dtd">
<svg width="128" height="128" xmlns="http://www.w3.org/2000/svg" version="1.1">
<path d="M 26.5 128.0 L 27.0 128.0 L 28.0 128.0 L 29.0 128.0 L 30.0 128.0 L 31.0 128.0 L 32.0 128.0 L 33.0 128.0 L 34.0 128.0 L 35.0 128.0 L 36.0 128.0 L 37.0 128.0 L 38.0 128.0 L 39.0 128.0 L 40.0 128.0 L 41.0 128.0 L 42.0 128.0 L 43.0 128.0 L 44.0 128.0 L 45.0 128.0 L 46.0 128.0 L 47.0 128.0 L 48.0 128.0 L 49.0 128.0 L 50.0 128.0 L 51.0 128.0 L 52.0 128.0 L 53.0 128.0 L 54.0 128.0 L 55.0 128.0 L 56.0 128.0 L 57.0 128.0 L 58.0 128.0 L 59.0 128.0 L 60.0 128.0 L 61.0 128.0 L 62.0 128.0 L 63.0 128.0 L 64.0 128.0 L 65.0 128.0 L 66.0 128.0 L 67.0 128.0 L 68.0 128.0 L 69.0 128.0 L 70.0 128.0 L 71.0 128.0 L 72.0 128.0 L 73.0 128.0 L 74.0 128.0 L 75.0 128.0 L 76.0 128.0 L 77.0 128.0 L 78.0 128.0 L 79.0 128.0 L 80.0 128.0 L 81.0 128.0 L 82.0 128.0 L 83.0 128.0 L 84.0 128.0 L 85.0 128.0 L 86.0 128.0 L 87.0 128.0 L 88.0 128.0 L 89.0 128.0 L 90.0 128.0 L 91.0 128.0 L 92.0 128.0 L 93.0 128.0 L 94.0 128.0 L 95.0 128.0 L 96.0 128.0 L 97.0 128.0 L 98.0 128.0 L 99.0 128.0 L 100.0 128.0 L 101.0 128.0 L 102.0 128.0 L 103.0 128.0 L 104.0 128.0 L 105.0 128.0 L 106.0 128.0 L 107.0 128.0 L 108.0 128.0 L 109.0 128.0 L 110.0 128.0 L 111.0 128.0 L 112.0 128.0 L 113.0 128.0 L 114.0 128.0 L 115.0 128.0 L 116.0 128.0 L 117.0 128.0 L 118.0 128.0 L 119.0 128.0 L 120.0 128.0 L 121.0 128.0 L 122.0 128.0 L 123.0 128.0 L 124.0 128.0 L 125.0 128.0 L 126.0 128.0 L 127.0 128.0 L 127.66666666666667 127.66666666666667 L 128.0 127.0 L 128.0 126.0 L 128.0 125.0 L 128.0 124.0 L 128.0 123.0 L 128.0 122.0 L 128.0 121.0 L 128.0 120.0 L 128.0 119.0 L 128.0 118.0 L 128.0 117.0 L 128.0 116.0 L 128.0 115.0 L 128.0 114.0 L 128.0 113.0 L 128.0 112.0 L 128.0 111.0 L 128.0 110.0 L 128.0 109.0 L 128.0 108.0 L 128.0 107.0 L 128.0 106.0 L 128.0 105.0 L 128.0 104.0 L 128.0 103.0 L 128.0 102.0 L 128.0 101.0 L 128.0 100.0 L 128.0 99.0 L 128.0 98.0 L 128.0 97.0 L 128.0 96.0 L 128.0 95.0 L 128.0 94.0 L 128.0 93.0 L 128.0 92.0 L 128.0 91.0 L 128.0 90.0 L 128.0 89.0 L 128.0 88.0 L 128.0 87.0 L 128.0 86.0 L 128.0 85.0 L 128.0 84.0 L 128.0 83.0 L 128.0 82.0 L 128.0 81.0 L 128.0 80.0 L 128.0 79.0 L 128.0 78.0 L 128.0 77.0 L 128.0 76.0 L 128.0 75.0 L 128.0 74.0 L 128.0 73.0 L 128.0 72.0 L 128.0 71.0 L 128.0 70.0 L 128.0 69.0 L 128.0 68.0 L 128.0 67.0 L 128.0 66.0 L 128.0 65.0 L 128.0 64.0 L 128.0 63.0 L 128.0 62.0 L 128.0 61.0 L 128.0 60.0 L 128.0 59.0 L 128.0 58.0 L 128.0 57.0 L 128.0 56.0 L 128.0 55.0 L 128.0 54.0 L 128.0 53.0 L 128.0 52.0 L 128.0 51.0 L 128.0 50.0 L 128.0 49.0 L 128.0 48.0 L 128.0 47.0 L 128.0 46.0 L 128.0 45.0 L 128.0 44.0 L 128.0 43.0 L 128.0 42.0 L 128.0 41.0 L 128.0 40.0 L 128.0 39.0 L 128.0 38.0 L 128.0 37.0 L 128.0 36.0 L 128.0 35.0 L 128.0 34.0 L 128.0 33.0 L 128.0 32.0 L 128.0 31.0 L 128.0 30.0 L 128.0 29.0 L 128.0 28.0 L 128.0 27.0 L 128.0 26.0 L 128.0 25.0 L 128.0 24.0 L 128.0 23.0 L 128.0 22.0 L 128.0 21.0 L 128.0 20.0 L 128.0 19.0 L 128.0 18.0 L 128.0 17.0 L 128.0 16.0 L 128.0 15.0 L 128.0 14.0 L 128.0 13.0 L 128.0 12.0 L 128.0 11.0 L 128.0 10.0 L 128.0 9.0 L 128.0 8.0 L 128.0 7.0 L 128.0 6.0 L 128.0 5.0 L 128.0 4.0 L 128.0 3.0 L 128.0 2.0 L 128.0 1.0 L 127.66666666666667 0.3333333333333333 L 127.0 0.0 L 126.0 0.0 L 125.0 0.0 L 124.0 0.0 L 123.0 0.0 L 122.0 0.0 L 121.0 0.0 L 120.0 0.0 L 119.0 0.0 L 118.0 0.0 L 117.0 0.0 L 116.0 0.0 L 115.0 0.0 L 114.0 0.0 L 113.0 0.0 L 112.0 0.0 L 111.0 0.0 L 110.0 0.0 L 109.0 0.0 L 108.0 0.0 L 107.0 0.0 L 106.0 0.0 L 105.0 0.0 L 104.0 0.0 L 103.0 0.0 L 102.0 0.0 L 101.0 0.0 L 100.0 0.0 L 99.0 0.0 L 98.0 0.0 L 97.0 0.0 L 96.0 0.0 L 95.0 0.0 L 94.0 0.0 L 93.0 0.0 L 92.0 0.0 L 91.0 0.0 L 90.0 0.0 L 89.0 0.0 L 88.0 0.0 L 87.0 0.0 L 86.0 0.0 L 85.0 0.0 L 84.0 0.0 L 83.0 0.0 L 82.0 0.0 L 81.0 0.0 L 80.0 0.0 L 79.0 0.0 L 78.0 0.0 L 77.0 0.0 L 76.0 0.0 L 75.0 0.0 L 74.0 0.0 L 73.0 0.0 L 72.0 0.0 L 71.0 0.0 L 70.0 0.0 L 69.0 0.0 L 68.0 0.0 L 67.0 0.0 L 66.0 0.0 L 65.0 0.0 L 64.0 0.0 L 63.0 0.0 L 62.0 0.0 L 61.0 0.0 L 60.0 0.0 L 59.0 0.0 L 58.0 0.0 L 57.0 0.0 L 56.0 0.0 L 55.0 0.0 L 54.0 0.0 L 53.0 0.0 L 52.0 0.0 L 51.0 0.0 L 50.0 0.0 L 49.0 0.0 L 48.0 0.0 L 47.0 0.0 L 46.0 0.0 L 45.0 0.0 L 44.0 0.0 L 43.0 0.0 L 42.0 0.0 L 41.0 0.0 L 40.0 0.0 L 39.0 0.0 L 38.0 0.0 L 37.0 0.0 L 36.0 0.0 L 35.0 0.0 L 34.0 0.0 L 33.0 0.0 L 32.0 0.0 L 31.0 0.0 L 30.0 0.0 L 29.0 0.0 L 28.0 0.0 L 27.0 0.0 L 26.0 0.0 L 25.0 0.0 L 24.0 0.0 L 23.0 0.0 L 22.0 0.0 L 21.0 0.0 L 20.0 0.0 L 19.0 0.0 L 18.0 0.0 L 17.0 0.0 L 16.0 0.0 L 15.0 0.0 L 14.0 0.0 L 13.0 0.0 L 12.0 0.0 L 11.0 0.0 L 10.0 0.0 L 9.0 0.0 L 8.0 0.0 L 7.0 0.0 L 6.0 0.0 L 5.0 0.0 L 4.0 0.0 L 3.0 0.0 L 2.0 0.0 L 1.0 0.0 L 0.3333333333333333 0.3333333333333333 L 0.0 1.0 L 0.0 2.0 L 0.0 3.0 L 0.0 4.0 L 0.0 5.0 L 0.0 6.0 L 0.0 7.0 L 0.0 8.0 L 0.0 9.0 L 0.0 10.0 L 0.0 11.0 L 0.0 12.0 L 0.0 13.0 L 0.0 14.0 L 0.0 15.0 L 0.0 16.0 L 0.0 17.0 L 0.0 18.0 L 0.0 19.0 L 0.0 20.0 L 0.0 21.0 L 0.0 22.0 L 0.0 23.0 L 0.0 24.0 L 0.0 25.0 L 0.0 26.0 L 0.0 27.0 L 0.0 28.0 L 0.0 29.0 L 0.0 30.0 L 0.0 31.0 L 0.0 32.0 L 0.0 33.0 L 0.0 34.0 L 0.0 35.0 L 0.0 36.0 L 0.0 37.0 L 0.0 38.0 L 0.0 39.0 L 0.0 40.0 L 0.0 41.0 L 0.0 42.0 L 0.0 43.0 L 0.0 44.0 L 0.0 45.0 L 0.0 46.0 L 0.0 47.0 L 0.0 48.0 L 0.0 49.0 L 0.0 50.0 L 0.0 51.0 L 0.0 52.0 L 0.0 53.0 L 0.0 54.0 L 0.0 55.0 L 0.0 56.0 L 0.0 57.0 L 0.0 58.0 L 0.0 59.0 L 0.0 60.0 L 0.0 61.0 L 0.0 62.0 L 0.0 63.0 L 0.0 64.0 L 0.0 65.0 L 0.0 66.0 L 0.0 67.0 L 0.0 68.0 L 0.0 69.0 L 0.0 70.0 L 0.0 71.0 L 0.0 72.0 L 0.0 73.0 L 0.0 74.0 L 0.0 75.0 L 0.0 76.0 L 0.0 77.0 L 0.0 78.0 L 0.0 79.0 L 0.0 80.0 L 0.0 81.0 L 0.0 82.0 L 0.0 83.0 L 0.0 84.0 L 0.0 85.0 L 0.0 86.0 L 0.0 87.0 L 0.0 88.0 L 0.0 89.0 L 0.0 90.0 L 0.0 91.0 L 0.0 92.0 L 0.0 93.0 L 0.0 94.0 L 0.0 95.0 L 0.0 96.0 L 0.0 97.0 L 0.0 98.0 L 0.0 99.0 L 0.0 100.0 L 0.0 101.0 L 0.0 102.0 L 0.0 103.0 L 0.0 104.0 L 0.0 105.0 L 0.0 106.0 L 0.0 107.0 L 0.0 108.0 L 0.0 109.0 L 0.0 110.0 L 0.0 111.0 L 0.0 112.0 L 0.0 113.0 L 0.0 114.0 L 0.0 115.0 L 0.0 116.0 L 0.0 117.0 L 0.0 118.0 L 0.0 119.0 L 0.0 120.0 L 0.0 121.0 L 0.0 122.0 L 0.0 123.0 L 0.0 124.0 L 0.0 125.0 L 0.0 126.0 L 0.0 127.0 L 0.3333333333333333 127.66666666666667 L 1.0 128.0 L 2.0 128.0 L 3.0 128.0 L 4.0 128.0 L 5.0 128.0 L 6.0 128.0 L 7.0 128.0 L 8.0 128.0 L 9.0 128.0 L 10.0 128.0 L 11.0 128.0 L 12.0 128.0 L 13.0 128.0 L 14.0 128.0 L 15.0 128.0 L 16.0 128.0 L 17.0 128.0 L 18.0 128.0 L 19.0 128.0 L 20.0 128.0 L 21.0 128.0 L 22.0 128.0 L 23.0 128.0 L 24.0 128.0 L 25.0 128.0 L 25.5 128.0 Z" stroke="none" fill="rgb(255,255,255)" />
<path d="M 59.5 86.0 L 60.0 86.0 L 61.0 86.0 L 62.0 86.0 L 63.0 86.0 L 64.0 86.0 L 65.0 86.0 L 66.0 86.0 L 67.0 86.0 L 68.0 86.0 L 69.0 86.33333333333333 L 69.66666666666667 87.0 L 70.0 88.0 L 70.0 89.0 L 70.33333333333333 89.66666666666667 L 71.0 90.33333333333333 L 72.0 90.66666666666667 L 73.0 91.0 L 74.0 91.33333333333333 L 75.0 91.66666666666667 L 76.0 92.33333333333333 L 77.0 92.66666666666667 L 78.0 93.33333333333333 L 79.0 94.0 L 80.0 94.66666666666667 L 81.0 95.33333333333333 L 82.0 95.66666666666667 L 83.0 96.33333333333333 L 84.0 96.66666666666667 L 85.0 97.0 L 86.0 97.0 L 87.0 97.0 L 88.0 97.33333333333333 L 89.0 98.0 L 90.0 99.0 L 91.0 100.0 L 92.0 101.0 L 93.0 101.66666666666667 L 94.0 102.33333333333333 L 95.0 103.0 L 96.0 104.0 L 97.0 104.66666666666667 L 98.0 105.0 L 98.66666666666667 104.66666666666667 L 99.33333333333333 104.0 L 99.66666666666667 103.0 L 100.33333333333333 102.0 L 100.66666666666667 101.0 L 101.33333333333333 100.0 L 101.66666666666667 99.0 L 102.33333333333333 98.0 L 102.66666666666667 97.0 L 103.33333333333333 96.0 L 103.66666666666667 95.0 L 104.0 94.0 L 104.33333333333333 93.0 L 104.66666666666667 92.0 L 105.0 91.0 L 105.33333333333333 90.0 L 105.66666666666667 89.0 L 106.0 88.0 L 106.0 87.0 L 106.33333333333333 86.0 L 106.66666666666667 85.0 L 107.0 84.0 L 107.0 83.0 L 107.0 82.0 L 107.0 81.0 L 107.0 80.0 L 107.0 79.0 L 107.0 78.0 L 107.0 77.0 L 106.66666666666667 76.0 L 106.33333333333333 75.0 L 106.0 74.0 L 106.0 73.0 L 106.0 72.0 L 106.0 71.0 L 106.0 70.0 L 105.66666666666667 69.0 L 105.33333333333333 68.0 L 105.0 67.0 L 105.0 66.0 L 105.0 65.0 L 105.0 64.0 L 105.0 63.0 L 105.0 62.0 L 105.0 61.0 L 105.0 60.0 L 105.0 59.0 L 105.0 58.0 L 105.0 57.0 L 104.66666666666667 56.0 L 104.33333333333333 55.0 L 104.0 54.0 L 104.0 53.0 L 104.0 52.0 L 104.0 51.0 L 103.66666666666667 50.0 L 103.0 49.0 L 102.0 48.0 L 101.0 47.0 L 100.33333333333333 46.0 L 99.66666666666667 45.0 L 99.0 44.0 L 98.0 43.333333333333336 L 97.0 42.666666666666664 L 96.0 42.333333333333336 L 95.0 42.0 L 94.0 42.0 L 93.0 42.0 L 92.0 42.0 L 91.0 42.0 L 90.0 42.0 L 89.0 42.0 L 88.0 42.0 L 87.0 42.333333333333336 L 86.0 42.666666666666664 L 85.0 43.0 L 84.0 43.0 L 83.0 43.0 L 82.0 43.0 L 81.0 43.0 L 80.0 43.0 L 79.0 43.333333333333336 L 78.0 43.666666666666664 L 77.0 44.0 L 76.0 44.0 L 75.0 44.0 L 74.0 44.0 L 73.0 44.0 L 72.0 44.0 L 71.0 44.0 L 70.0 44.0 L 69.0 44.0 L 68.0 44.0 L 67.0 44.0 L 66.0 44.0 L 65.0 44.0 L 64.0 44.0 L 63.0 44.0 L 62.0 44.0 L 61.0 44.0 L 60.0 43.666666666666664 L 59.0 43.333333333333336 L 58.0 43.0 L 57.0 43.0 L 56.0 43.0 L 55.0 43.0 L 54.0 43.0 L 53.0 43.0 L 52.0 43.0 L 51.0 43.0 L 50.0 43.0 L 49.0 43.0 L 48.0 42.666666666666664 L 47.0 42.333333333333336 L 46.0 42.0 L 45.0 42.0 L 44.0 42.0 L 43.0 42.0 L 42.0 42.0 L 41.0 42.0 L 40.0 42.0 L 39.0 42.0 L 38.0 42.0 L 37.0 42.0 L 36.0 42.0 L 35.0 42.0 L 34.0 42.0 L 33.0 42.333333333333336 L 32.0 43.0 L 31.0 44.0 L 30.0 45.0 L 29.333333333333332 46.0 L 29.0 47.0 L 29.0 48.0 L 28.666666666666668 49.0 L 28.333333333333332 50.0 L 28.0 51.0 L 28.0 52.0 L 28.0 53.0 L 28.0 54.0 L 28.0 55.0 L 28.0 56.0 L 28.0 57.0 L 28.0 58.0 L 27.666666666666668 59.0 L 27.333333333333332 60.0 L 27.0 61.0 L 27.0 62.0 L 27.0 63.0 L 26.666666666666668 64.0 L 26.333333333333332 65.0 L 26.0 66.0 L 26.0 67.0 L 26.0 68.0 L 26.0 69.0 L 26.0 70.0 L 26.0 71.0 L 26.0 72.0 L 26.0 73.0 L 26.0 74.0 L 26.0 75.0 L 26.0 76.0 L 26.0 77.0 L 26.0 78.0 L 26.0 79.0 L 26.0 80.0 L 26.333333333333332 81.0 L 26.666666666666668 82.0 L 27.0 83.0 L 27.0 84.0 L 27.0 85.0 L 27.333333333333332 86.0 L 27.666666666666668 87.0 L 28.0 88.0 L 28.333333333333332 89.0 L 28.666666666666668 90.0 L 29.0 91.0 L 29.333333333333332 92.0 L 30.0 93.0 L 31.0 94.0 L 32.0 95.0 L 33.0 96.0 L 34.0 97.0 L 35.0 98.0 L 36.0 99.0 L 37.0 100.0 L 38.0 100.66666666666667 L 39.0 101.0 L 39.666666666666664 100.66666666666667 L 40.0 100.0 L 40.333333333333336 99.0 L 41.0 98.33333333333333 L 42.0 97.66666666666667 L 43.0 97.33333333333333 L 44.0 96.66666666666667 L 45.0 96.33333333333333 L 46.0 95.66666666666667 L 47.0 95.0 L 48.0 94.33333333333333 L 49.0 93.66666666666667 L 50.0 93.33333333333333 L 51.0 93.0 L 52.0 92.66666666666667 L 53.0 92.33333333333333 L 54.0 91.66666666666667 L 55.0 91.33333333333333 L 56.0 91.0 L 57.0 91.0 L 57.666666666666664 90.66666666666667 L 58.0 90.0 L 58.0 89.0 L 58.0 88.0 L 58.333333333333336 87.0 L 58.5 86.5 Z" stroke="none" fill="rgb(186,141,104)" />
<path d="M 58.5 43.5 L 59.0 43.666666666666664 L 60.0 44.0 L 61.0 44.0 L 62.0 44.0 L 63.0 44.0 L 64.0 44.0 L 65.0 44.0 L 66.0 44.0 L 67.0 44.0 L 68.0 44.0 L 69.0 44.0 L 70.0 44.0 L 71.0 44.0 L 72.0 44.0 L 73.0 44.0 L 74.0 44.0 L 75.0 44.0 L 76.0 44.0 L 77.0 44.0 L 78.0 44.0 L 79.0 43.666666666666664 L 80.0 43.333333333333336 L 81.0 43.0 L 82.0 43.0 L 83.0 43.0 L 84.0 43.0 L 85.0 43.0 L 86.0 43.0 L 87.0 42.666666666666664 L 88.0 42.333333333333336 L 89.0 42.0 L 90.0 42.0 L 91.0 42.0 L 92.0 42.0 L 93.0 42.0 L 94.0 42.0 L 95.0 42.333333333333336 L 96.0 42.666666666666664 L 97.0 43.0 L 97.66666666666667 42.666666666666664 L 97.66666666666667 42.0 L 97.33333333333333 41.0 L 97.0 40.0 L 96.66666666666667 39.0 L 96.33333333333333 38.0 L 95.66666666666667 37.0 L 95.33333333333333 36.0 L 94.66666666666667 35.0 L 94.33333333333333 34.0 L 93.66666666666667 33.0 L 93.0 32.0 L 92.33333333333333 31.0 L 91.66666666666667 30.0 L 91.0 29.0 L 90.0 28.0 L 89.0 27.0 L 88.0 26.0 L 87.0 25.0 L 86.0 24.333333333333332 L 85.0 23.666666666666668 L 84.0 23.0 L 83.0 22.0 L 82.0 21.0 L 81.0 20.333333333333332 L 80.0 19.666666666666668 L 79.0 19.333333333333332 L 78.0 18.666666666666668 L 77.0 18.333333333333332 L 76.0 17.666666666666668 L 75.0 17.333333333333332 L 74.0 17.0 L 73.0 16.666666666666668 L 72.0 16.333333333333332 L 71.0 16.0 L 70.0 16.0 L 69.0 16.0 L 68.0 16.0 L 67.0 16.0 L 66.0 16.0 L 65.0 15.666666666666666 L 64.0 15.333333333333334 L 63.0 15.0 L 62.0 15.333333333333334 L 61.0 15.666666666666666 L 60.0 16.333333333333332 L 59.0 16.666666666666668 L 58.0 17.0 L 57.0 17.0 L 56.0 17.0 L 55.0 17.333333333333332 L 54.0 17.666666666666668 L 53.0 18.333333333333332 L 52.0 18.666666666666668 L 51.0 19.333333333333332 L 50.0 19.666666666666668 L 49.0 20.333333333333332 L 48.0 20.666666666666668 L 47.0 21.333333333333332 L 46.0 22.0 L 45.0 22.666666666666668 L 44.0 23.333333333333332 L 43.0 24.0 L 42.0 25.0 L 41.0 26.0 L 40.0 27.0 L 39.0 28.0 L 38.0 29.0 L 37.333333333333336 30.0 L 36.666666666666664 31.0 L 36.0 32.0 L 35.0 33.0 L 34.333333333333336 34.0 L 34.0 35.0 L 33.666666666666664 36.0 L 33.333333333333336 37.0 L 32.666666666666664 38.0 L 32.333333333333336 39.0 L 32.0 40.0 L 32.0 41.0 L 32.333333333333336 41.666666666666664 L 33.0 42.0 L 34.0 42.0 L 35.0 42.0 L 36.0 42.0 L 37.0 42.0 L 38.0 42.0 L 39.0 42.0 L 40.0 42.0 L 41.0 42.0 L 42.0 42.0 L 43.0 42.0 L 44.0 42.0 L 45.0 42.0 L 46.0 42.333333333333336 L 47.0 42.666666666666664 L 48.0 43.0 L 49.0 43.0 L 50.0 43.0 L 51.0 43.0 L 52.0 43.0 L 53.0 43.0 L 54.0 43.0 L 55.0 43.0 L 56.0 43.0 L 57.0 43.0 L 57.5 43.0 Z" stroke="none" fill="rgb(84,57,48)" />
<path d="M 23.5 63.5 L 24.0 64.0 L 25.0 64.66666666666667 L 26.0 65.0 L 26.666666666666668 64.66666666666667 L 27.0 64.0 L 27.0 63.0 L 27.0 62.0 L 27.333333333333332 61.0 L 27.666666666666668 60.0 L 28.0 59.0 L 28.0 58.0 L 28.0 57.0 L 28.0 56.0 L 28.0 55.0 L 28.0 54.0 L 28.0 53.0 L 28.0 52.0 L 28.333333333333332 51.0 L 28.666666666666668 50.0 L 29.0 49.0 L 29.0 48.0 L 29.333333333333332 47.0 L 30.0 46.0 L 31.0 45.0 L 32.0 44.0 L 32.666666666666664 43.0 L 32.666666666666664 42.0 L 32.333333333333336 41.0 L 32.333333333333336 40.0 L 32.666666666666664 39.0 L 33.333333333333336 38.0 L 33.666666666666664 37.0 L 34.0 36.0 L 34.0 35.0 L 34.0 34.0 L 34.333333333333336 33.0 L 35.0 32.0 L 35.666666666666664 31.0 L 36.333333333333336 30.0 L 37.0 29.0 L 37.666666666666664 28.0 L 38.0 27.0 L 38.0 26.0 L 38.333333333333336 25.0 L 38.666666666666664 24.0 L 38.666666666666664 23.0 L 38.0 22.0 L 37.666666666666664 21.0 L 37.666666666666664 20.0 L 38.333333333333336 19.0 L 39.0 18.0 L 39.666666666666664 17.0 L 40.0 16.0 L 40.333333333333336 15.0 L 41.0 14.333333333333334 L 42.0 14.0 L 43.0 13.666666666666666 L 44.0 13.333333333333334 L 45.0 13.333333333333334 L 46.0 14.0 L 47.0 15.0 L 48.0 16.0 L 49.0 16.666666666666668 L 50.0 17.0 L 51.0 17.0 L 52.0 16.666666666666668 L 53.0 16.333333333333332 L 53.666666666666664 15.666666666666666 L 54.333333333333336 15.0 L 55.0 14.333333333333334 L 56.0 14.0 L 56.666666666666664 13.666666666666666 L 57.0 13.0 L 57.0 12.0 L 57.0 11.0 L 57.0 10.0 L 57.0 9.0 L 57.0 8.0 L 57.0 7.0 L 57.0 6.0 L 57.0 5.0 L 56.666666666666664 4.333333333333333 L 56.0 4.0 L 55.0 4.0 L 54.0 4.0 L 53.0 4.0 L 52.0 4.333333333333333 L 51.0 4.666666666666667 L 50.0 5.0 L 49.0 5.0 L 48.0 5.333333333333333 L 47.0 5.666666666666667 L 46.0 6.333333333333333 L 45.0 6.666666666666667 L 44.0 7.0 L 43.0 7.333333333333333 L 42.0 7.666666666666667 L 41.0 8.333333333333334 L 40.0 9.0 L 39.0 9.666666666666666 L 38.0 10.333333333333334 L 37.0 11.0 L 36.0 11.666666666666666 L 35.0 12.333333333333334 L 34.0 13.0 L 33.0 14.0 L 32.0 15.0 L 31.0 16.0 L 30.333333333333332 17.0 L 29.666666666666668 18.0 L 29.0 19.0 L 28.333333333333332 20.0 L 27.666666666666668 21.0 L 27.0 22.0 L 26.333333333333332 23.0 L 25.666666666666668 24.0 L 25.333333333333332 25.0 L 24.666666666666668 26.0 L 24.333333333333332 27.0 L 23.666666666666668 28.0 L 23.333333333333332 29.0 L 23.0 30.0 L 22.666666666666668 31.0 L 22.333333333333332 32.0 L 22.0 33.0 L 21.666666666666668 34.0 L 21.333333333333332 35.0 L 21.0 36.0 L 20.666666666666668 37.0 L 20.333333333333332 38.0 L 20.0 39.0 L 20.0 40.0 L 20.0 41.0 L 19.666666666666668 42.0 L 19.333333333333332 43.0 L 19.0 44.0 L 19.0 45.0 L 19.0 46.0 L 19.0 47.0 L 19.0 48.0 L 19.0 49.0 L 18.666666666666668 50.0 L 18.333333333333332 51.0 L 18.0 52.0 L 18.0 53.0 L 18.0 54.0 L 18.0 55.0 L 18.0 56.0 L 18.0 57.0 L 18.333333333333332 58.0 L 19.0 59.0 L 20.0 60.0 L 21.0 61.0 L 22.0 62.0 L 22.5 62.5 Z" stroke="none" fill="rgb(109,76,65)" />
<path d="M 72.5 111.0 L 73.0 111.0 L 74.0 111.0 L 75.0 110.66666666666667 L 76.0 110.33333333333333 L 77.0 109.66666666666667 L 78.0 109.33333333333333 L 79.0 108.66666666666667 L 80.0 108.33333333333333 L 81.0 107.66666666666667 L 82.0 107.0 L 83.0 106.33333333333333 L 84.0 105.66666666666667 L 85.0 105.0 L 86.0 104.0 L 87.0 103.0 L 88.0 102.0 L 89.0 101.0 L 89.66666666666667 100.0 L 90.0 99.0 L 89.66666666666667 98.0 L 89.0 97.33333333333333 L 88.0 97.0 L 87.0 97.0 L 86.0 97.0 L 85.0 96.66666666666667 L 84.0 96.33333333333333 L 83.0 95.66666666666667 L 82.0 95.33333333333333 L 81.0 94.66666666666667 L 80.0 94.0 L 79.0 93.33333333333333 L 78.0 92.66666666666667 L 77.0 92.33333333333333 L 76.0 91.66666666666667 L 75.0 91.33333333333333 L 74.0 91.0 L 73.0 90.66666666666667 L 72.0 90.33333333333333 L 71.0 90.0 L 70.0 90.33333333333333 L 69.0 90.66666666666667 L 68.0 91.0 L 67.0 91.0 L 66.0 91.0 L 65.0 91.0 L 64.0 91.0 L 63.0 91.0 L 62.0 91.0 L 61.0 90.66666666666667 L 60.0 90.33333333333333 L 59.0 90.0 L 58.0 90.33333333333333 L 57.0 90.66666666666667 L 56.0 91.0 L 55.0 91.0 L 54.0 91.33333333333333 L 53.0 91.66666666666667 L 52.0 92.33333333333333 L 51.0 92.66666666666667 L 50.0 93.0 L 49.0 93.33333333333333 L 48.0 93.66666666666667 L 47.0 94.33333333333333 L 46.0 95.0 L 45.0 95.66666666666667 L 44.0 96.33333333333333 L 43.0 96.66666666666667 L 42.0 97.33333333333333 L 41.0 97.66666666666667 L 40.333333333333336 98.33333333333333 L 40.0 99.0 L 40.0 100.0 L 40.333333333333336 101.0 L 41.0 102.0 L 42.0 103.0 L 43.0 104.0 L 44.0 105.0 L 45.0 105.66666666666667 L 46.0 106.33333333333333 L 47.0 106.66666666666667 L 48.0 107.33333333333333 L 49.0 107.66666666666667 L 50.0 108.33333333333333 L 51.0 108.66666666666667 L 52.0 109.33333333333333 L 53.0 109.66666666666667 L 54.0 110.0 L 55.0 110.33333333333333 L 56.0 110.66666666666667 L 57.0 111.0 L 58.0 111.0 L 59.0 111.0 L 60.0 111.0 L 61.0 111.0 L 62.0 111.0 L 63.0 111.0 L 64.0 111.0 L 65.0 111.0 L 66.0 111.0 L 67.0 111.0 L 68.0 111.0 L 69.0 111.0 L 70.0 111.0 L 71.0 111.0 L 71.5 111.0 Z" stroke="none" fill="rgb(84,57,48)" />
<path d="M 57.5 121.5 L 58.0 121.66666666666667 L 59.0 122.0 L 60.0 122.0 L 61.0 122.0 L 62.0 122.0 L 63.0 122.0 L 64.0 122.0 L 65.0 122.0 L 66.0 122.0 L 66.66666666666667 121.66666666666667 L 67.0 121.0 L 67.0 120.0 L 67.0 119.0 L 67.0 118.0 L 67.0 117.0 L 67.0 116.0 L 67.0 115.0 L 67.33333333333333 114.0 L 68.0 113.66666666666667 L 69.0 113.66666666666667 L 70.0 114.0 L 71.0 114.0 L 72.0 114.33333333333333 L 73.0 114.66666666666667 L 74.0 115.0 L 75.0 115.33333333333333 L 76.0 115.66666666666667 L 77.0 116.0 L 78.0 116.0 L 79.0 116.0 L 79.66666666666667 115.66666666666667 L 80.0 115.0 L 80.0 114.0 L 80.0 113.0 L 80.33333333333333 112.0 L 81.0 111.0 L 82.0 110.0 L 82.66666666666667 109.0 L 83.33333333333333 108.0 L 83.66666666666667 107.0 L 83.66666666666667 106.33333333333333 L 83.0 106.0 L 82.0 106.33333333333333 L 81.0 107.0 L 80.0 107.66666666666667 L 79.0 108.33333333333333 L 78.0 108.66666666666667 L 77.0 109.33333333333333 L 76.0 109.66666666666667 L 75.0 110.33333333333333 L 74.0 110.66666666666667 L 73.0 111.0 L 72.0 111.0 L 71.0 111.0 L 70.0 111.0 L 69.0 111.0 L 68.0 111.0 L 67.0 111.0 L 66.0 111.0 L 65.0 111.0 L 64.0 111.0 L 63.0 111.0 L 62.0 111.0 L 61.0 111.0 L 60.0 111.0 L 59.0 111.0 L 58.0 111.0 L 57.0 110.66666666666667 L 56.0 110.33333333333333 L 55.0 110.0 L 54.0 109.66666666666667 L 53.0 109.33333333333333 L 52.0 108.66666666666667 L 51.0 108.33333333333333 L 50.0 107.66666666666667 L 49.0 107.33333333333333 L 48.0 106.66666666666667 L 47.0 106.33333333333333 L 46.0 105.66666666666667 L 45.0 105.0 L 44.0 104.0 L 43.0 103.0 L 42.0 102.0 L 41.0 101.33333333333333 L 40.0 101.0 L 39.333333333333336 101.33333333333333 L 39.0 102.0 L 39.333333333333336 103.0 L 40.0 104.0 L 41.0 105.0 L 42.0 106.0 L 43.0 107.0 L 44.0 108.0 L 45.0 109.0 L 46.0 110.0 L 47.0 111.0 L 48.0 112.0 L 49.0 113.0 L 50.0 114.0 L 51.0 115.0 L 52.0 116.0 L 53.0 117.0 L 54.0 118.0 L 55.0 119.0 L 56.0 120.0 L 56.5 120.5 Z" stroke="none" fill="rgb(88,60,51)" />
<path d="M 24.5 91.5 L 25.0 92.0 L 26.0 93.0 L 27.0 94.0 L 28.0 95.0 L 29.0 96.0 L 30.0 97.0 L 31.0 98.0 L 32.0 99.0 L 33.0 100.0 L 34.0 101.0 L 35.0 102.0 L 36.0 103.0 L 37.0 104.0 L 38.0 105.0 L 39.0 106.0 L 40.0 107.0 L 41.0 108.0 L 42.0 109.0 L 43.0 110.0 L 44.0 111.0 L 45.0 112.0 L 46.0 113.0 L 47.0 114.0 L 48.0 115.0 L 49.0 116.0 L 50.0 116.66666666666667 L 51.0 117.0 L 51.666666666666664 116.66666666666667 L 52.0 116.0 L 51.666666666666664 115.0 L 51.0 114.0 L 50.0 113.0 L 49.0 112.0 L 48.0 111.0 L 47.0 110.0 L 46.0 109.0 L 45.0 108.0 L 44.0 107.0 L 43.0 106.0 L 42.0 105.0 L 41.0 104.0 L 40.0 103.0 L 39.333333333333336 102.0 L 38.666666666666664 101.0 L 38.0 100.0 L 37.0 99.0 L 36.0 98.0 L 35.0 97.0 L 34.0 96.0 L 33.0 95.0 L 32.0 94.0 L 31.0 93.0 L 30.0 92.0 L 29.333333333333332 91.0 L 29.0 90.0 L 28.666666666666668 89.0 L 28.333333333333332 88.0 L 28.0 87.0 L 27.666666666666668 86.0 L 27.333333333333332 85.0 L 27.0 84.0 L 27.0 83.0 L 27.0 82.0 L 26.666666666666668 81.0 L 26.333333333333332 80.0 L 26.0 79.0 L 26.0 78.0 L 26.0 77.0 L 26.0 76.0 L 26.0 75.0 L 26.0 74.0 L 25.666666666666668 73.0 L 25.0 72.0 L 24.0 71.0 L 23.0 70.0 L 22.0 69.0 L 21.0 68.0 L 20.0 67.0 L 19.0 66.0 L 18.0 65.33333333333333 L 17.0 65.0 L 16.0 65.33333333333333 L 15.333333333333334 66.0 L 15.0 67.0 L 14.666666666666666 68.0 L 14.333333333333334 69.0 L 14.0 70.0 L 14.0 71.0 L 14.0 72.0 L 14.0 73.0 L 14.0 74.0 L 14.0 75.0 L 14.0 76.0 L 14.0 77.0 L 14.0 78.0 L 14.333333333333334 79.0 L 14.666666666666666 80.0 L 15.0 81.0 L 15.333333333333334 82.0 L 15.666666666666666 83.0 L 16.333333333333332 84.0 L 17.0 85.0 L 18.0 86.0 L 19.0 87.0 L 20.0 87.66666666666667 L 21.0 88.33333333333333 L 22.0 89.0 L 23.0 90.0 L 23.5 90.5 Z" stroke="none" fill="rgb(153,103,79)" />
<path d="M 88.5 19.5 L 89.0 20.0 L 90.0 21.0 L 91.0 22.0 L 92.0 23.0 L 93.0 24.0 L 94.0 25.0 L 95.0 26.0 L 96.0 27.0 L 97.0 28.0 L 98.0 29.0 L 99.0 30.0 L 100.0 31.0 L 101.0 32.0 L 102.0 33.0 L 102.66666666666667 34.0 L 103.33333333333333 35.0 L 103.66666666666667 36.0 L 104.33333333333333 37.0 L 104.66666666666667 38.0 L 105.0 39.0 L 105.33333333333333 40.0 L 105.66666666666667 41.0 L 106.0 42.0 L 106.33333333333333 43.0 L 106.66666666666667 44.0 L 107.0 45.0 L 107.33333333333333 45.666666666666664 L 108.0 46.0 L 108.66666666666667 45.666666666666664 L 109.0 45.0 L 109.0 44.0 L 109.0 43.0 L 109.0 42.0 L 108.66666666666667 41.0 L 108.33333333333333 40.0 L 108.0 39.0 L 108.0 38.0 L 108.0 37.0 L 107.66666666666667 36.0 L 107.33333333333333 35.0 L 107.0 34.0 L 106.66666666666667 33.0 L 106.33333333333333 32.0 L 106.0 31.0 L 105.66666666666667 30.0 L 105.33333333333333 29.0 L 104.66666666666667 28.0 L 104.33333333333333 27.0 L 103.66666666666667 26.0 L 103.33333333333333 25.0 L 102.66666666666667 24.0 L 102.33333333333333 23.0 L 101.66666666666667 22.0 L 101.33333333333333 21.0 L 100.66666666666667 20.0 L 100.0 19.0 L 99.0 18.0 L 98.33333333333333 17.0 L 97.66666666666667 16.0 L 97.0 15.0 L 96.0 14.0 L 95.0 13.333333333333334 L 94.0 12.666666666666666 L 93.0 12.0 L 92.0 11.0 L 91.0 10.333333333333334 L 90.0 9.666666666666666 L 89.0 9.333333333333334 L 88.0 8.666666666666666 L 87.0 8.333333333333334 L 86.0 7.666666666666667 L 85.0 7.333333333333333 L 84.0 6.666666666666667 L 83.0 6.333333333333333 L 82.0 6.0 L 81.0 5.666666666666667 L 80.0 5.333333333333333 L 79.0 5.0 L 78.0 5.0 L 77.0 4.666666666666667 L 76.0 4.333333333333333 L 75.0 4.0 L 74.0 4.0 L 73.33333333333333 4.333333333333333 L 73.0 5.0 L 73.33333333333333 6.0 L 74.0 7.0 L 75.0 8.0 L 76.0 9.0 L 77.0 10.0 L 78.0 11.0 L 79.0 12.0 L 80.0 13.0 L 81.0 13.666666666666666 L 82.0 14.333333333333334 L 83.0 15.0 L 84.0 15.666666666666666 L 85.0 16.333333333333332 L 86.0 17.0 L 87.0 18.0 L 87.5 18.5 Z" stroke="none" fill="rgb(109,76,65)" />
<path d="M 105.5 69.5 L 105.66666666666667 70.0 L 106.0 71.0 L 106.0 72.0 L 106.0 73.0 L 106.0 74.0 L 106.0 75.0 L 106.33333333333333 75.66666666666667 L 107.0 76.0 L 108.0 75.66666666666667 L 108.66666666666667 75.0 L 109.0 74.0 L 109.0 73.0 L 109.0 72.0 L 109.0 71.0 L 109.0 70.0 L 109.0 69.0 L 109.33333333333333 68.0 L 109.66666666666667 67.0 L 110.0 66.0 L 110.0 65.0 L 110.0 64.0 L 109.66666666666667 63.0 L 109.33333333333333 62.0 L 109.0 61.0 L 109.0 60.0 L 109.0 59.0 L 109.0 58.0 L 109.0 57.0 L 109.0 56.0 L 109.0 55.0 L 109.0 54.0 L 109.0 53.0 L 109.0 52.0 L 109.0 51.0 L 109.0 50.0 L 109.0 49.0 L 108.66666666666667 48.0 L 108.33333333333333 47.0 L 107.66666666666667 46.0 L 107.33333333333333 45.0 L 107.0 44.0 L 106.66666666666667 43.0 L 106.33333333333333 42.0 L 106.0 41.0 L 105.66666666666667 40.0 L 105.33333333333333 39.0 L 105.0 38.0 L 104.66666666666667 37.0 L 104.33333333333333 36.0 L 103.66666666666667 35.0 L 103.33333333333333 34.0 L 102.66666666666667 33.0 L 102.0 32.0 L 101.0 31.0 L 100.0 30.0 L 99.0 29.0 L 98.0 28.0 L 97.0 27.0 L 96.0 26.0 L 95.0 25.0 L 94.0 24.0 L 93.0 23.0 L 92.0 22.0 L 91.0 21.0 L 90.0 20.0 L 89.0 19.0 L 88.0 18.0 L 87.0 17.0 L 86.0 16.333333333333332 L 85.0 15.666666666666666 L 84.0 15.0 L 83.0 14.333333333333334 L 82.0 14.0 L 81.33333333333333 14.333333333333334 L 81.0 15.0 L 81.33333333333333 16.0 L 82.0 17.0 L 83.0 18.0 L 84.0 19.0 L 84.66666666666667 20.0 L 85.33333333333333 21.0 L 86.0 22.0 L 87.0 23.0 L 88.0 24.0 L 89.0 25.0 L 90.0 26.0 L 91.0 27.0 L 92.0 28.0 L 93.0 29.0 L 94.0 30.0 L 95.0 31.0 L 96.0 32.0 L 97.0 33.0 L 97.66666666666667 34.0 L 98.33333333333333 35.0 L 98.66666666666667 36.0 L 99.33333333333333 37.0 L 99.66666666666667 38.0 L 100.0 39.0 L 100.33333333333333 40.0 L 100.66666666666667 41.0 L 101.33333333333333 42.0 L 101.66666666666667 43.0 L 102.0 44.0 L 102.0 45.0 L 102.33333333333333 46.0 L 102.66666666666667 47.0 L 103.0 48.0 L 103.0 49.0 L 103.33333333333333 50.0 L 103.66666666666667 51.0 L 104.0 52.0 L 104.0 53.0 L 104.0 54.0 L 104.0 55.0 L 104.33333333333333 56.0 L 104.66666666666667 57.0 L 105.0 58.0 L 105.0 59.0 L 105.0 60.0 L 105.0 61.0 L 105.0 62.0 L 105.0 63.0 L 105.0 64.0 L 105.0 65.0 L 105.0 66.0 L 105.0 67.0 L 105.0 68.0 L 105.0 68.5 Z" stroke="none" fill="rgb(98,67,57)" />
<path d="M 88.5 27.5 L 89.0 28.0 L 90.0 29.0 L 91.0 30.0 L 91.66666666666667 31.0 L 92.33333333333333 32.0 L 93.0 33.0 L 93.66666666666667 34.0 L 94.33333333333333 35.0 L 94.66666666666667 36.0 L 95.33333333333333 37.0 L 95.66666666666667 38.0 L 96.33333333333333 39.0 L 96.66666666666667 40.0 L 97.0 41.0 L 97.33333333333333 42.0 L 97.66666666666667 43.0 L 98.33333333333333 44.0 L 99.0 45.0 L 99.66666666666667 46.0 L 100.33333333333333 47.0 L 101.0 48.0 L 102.0 48.666666666666664 L 102.66666666666667 48.666666666666664 L 103.0 48.0 L 103.0 47.0 L 102.66666666666667 46.0 L 102.33333333333333 45.0 L 102.0 44.0 L 102.0 43.0 L 101.66666666666667 42.0 L 101.33333333333333 41.0 L 100.66666666666667 40.0 L 100.33333333333333 39.0 L 100.0 38.0 L 99.66666666666667 37.0 L 99.33333333333333 36.0 L 98.66666666666667 35.0 L 98.33333333333333 34.0 L 97.66666666666667 33.0 L 97.0 32.0 L 96.0 31.0 L 95.0 30.0 L 94.0 29.0 L 93.0 28.0 L 92.0 27.0 L 91.0 26.0 L 90.0 25.0 L 89.0 24.0 L 88.0 23.0 L 87.0 22.0 L 86.0 21.0 L 85.0 20.333333333333332 L 84.0 20.0 L 83.0 19.666666666666668 L 82.0 19.0 L 81.0 18.0 L 80.0 17.333333333333332 L 79.0 16.666666666666668 L 78.0 16.333333333333332 L 77.0 16.0 L 76.0 16.0 L 75.0 15.666666666666666 L 74.0 15.333333333333334 L 73.0 15.0 L 72.0 14.666666666666666 L 71.0 14.333333333333334 L 70.0 14.0 L 69.33333333333333 14.333333333333334 L 69.0 15.0 L 69.33333333333333 15.666666666666666 L 70.0 16.0 L 71.0 16.333333333333332 L 72.0 16.666666666666668 L 73.0 17.0 L 74.0 17.333333333333332 L 75.0 17.666666666666668 L 76.0 18.333333333333332 L 77.0 18.666666666666668 L 78.0 19.333333333333332 L 79.0 19.666666666666668 L 80.0 20.333333333333332 L 81.0 21.0 L 82.0 22.0 L 83.0 23.0 L 84.0 23.666666666666668 L 85.0 24.333333333333332 L 86.0 25.0 L 87.0 26.0 L 87.5 26.5 Z" stroke="none" fill="rgb(88,60,51)" />
<path d="M 62.5 107.0 L 63.0 107.0 L 64.0 107.0 L 65.0 107.0 L 66.0 107.0 L 67.0 107.0 L 68.0 107.0 L 69.0 107.0 L 70.0 107.0 L 71.0 106.66666666666667 L 72.0 106.33333333333333 L 73.0 106.0 L 74.0 105.66666666666667 L 75.0 105.0 L 76.0 104.0 L 77.0 103.0 L 77.66666666666667 102.0 L 78.0 101.0 L 77.66666666666667 100.33333333333333 L 77.0 100.0 L 76.0 100.0 L 75.0 100.0 L 74.0 100.0 L 73.0 100.0 L 72.0 100.0 L 71.0 100.0 L 70.0 100.0 L 69.0 100.0 L 68.0 100.0 L 67.0 100.0 L 66.0 100.0 L 65.0 100.0 L 64.0 100.0 L 63.0 100.0 L 62.0 100.0 L 61.0 100.0 L 60.0 100.0 L 59.0 100.0 L 58.0 100.0 L 57.0 100.0 L 56.0 100.0 L 55.0 100.0 L 54.0 100.0 L 53.0 100.0 L 52.0 100.0 L 51.333333333333336 100.33333333333333 L 51.0 101.0 L 51.333333333333336 102.0 L 52.0 103.0 L 53.0 104.0 L 54.0 104.66666666666667 L 55.0 105.33333333333333 L 56.0 105.66666666666667 L 57.0 106.0 L 58.0 106.33333333333333 L 59.0 106.66666666666667 L 60.0 107.0 L 61.0 107.0 L 61.5 107.0 Z" stroke="none" fill="rgb(186,141,104)" />
<path d="M 43.5 119.5 L 44.0 119.66666666666667 L 45.0 120.33333333333333 L 46.0 120.66666666666667 L 47.0 121.33333333333333 L 48.0 121.66666666666667 L 49.0 122.0 L 50.0 122.33333333333333 L 51.0 122.66666666666667 L 52.0 123.0 L 53.0 123.0 L 54.0 123.33333333333333 L 55.0 123.66666666666667 L 56.0 124.0 L 57.0 124.0 L 58.0 124.0 L 59.0 124.0 L 60.0 124.0 L 61.0 124.0 L 62.0 124.0 L 63.0 124.0 L 64.0 124.0 L 65.0 124.0 L 66.0 124.0 L 67.0 124.0 L 67.66666666666667 123.66666666666667 L 67.66666666666667 123.0 L 67.0 122.33333333333333 L 66.0 122.0 L 65.0 122.0 L 64.0 122.0 L 63.0 122.0 L 62.0 122.0 L 61.0 122.0 L 60.0 122.0 L 59.0 122.0 L 58.0 121.66666666666667 L 57.0 121.33333333333333 L 56.0 121.0 L 55.0 121.0 L 54.0 120.66666666666667 L 53.0 120.33333333333333 L 52.0 120.0 L 51.0 119.66666666666667 L 50.0 119.33333333333333 L 49.0 118.66666666666667 L 48.0 118.33333333333333 L 47.0 117.66666666666667 L 46.0 117.33333333333333 L 45.0 116.66666666666667 L 44.0 116.0 L 43.0 115.0 L 42.0 114.0 L 41.0 113.0 L 40.0 112.0 L 39.0 111.0 L 38.0 110.0 L 37.0 109.0 L 36.0 108.0 L 35.0 107.0 L 34.0 106.0 L 33.0 105.0 L 32.0 104.0 L 31.0 103.0 L 30.0 102.33333333333333 L 29.0 102.0 L 28.333333333333332 102.33333333333333 L 28.0 103.0 L 28.333333333333332 104.0 L 29.0 105.0 L 29.666666666666668 106.0 L 30.333333333333332 107.0 L 31.0 108.0 L 31.666666666666668 109.0 L 32.333333333333336 110.0 L 33.0 111.0 L 34.0 112.0 L 35.0 113.0 L 36.0 114.0 L 37.0 115.0 L 38.0 115.66666666666667 L 39.0 116.33333333333333 L 40.0 117.0 L 41.0 118.0 L 42.0 118.66666666666667 L 42.5 119.0 Z" stroke="none" fill="rgb(109,76,65)" />
<path d="M 88.5 80.0 L 89.0 79.66666666666667 L 90.0 79.0 L 91.0 78.0 L 91.66666666666667 77.0 L 92.0 76.0 L 92.0 75.0 L 92.0 74.0 L 92.0 73.0 L 92.0 72.0 L 92.0 71.0 L 91.66666666666667 70.0 L 91.0 69.0 L 90.0 68.0 L 89.0 67.33333333333333 L 88.0 67.0 L 87.0 67.0 L 86.0 67.0 L 85.0 67.0 L 84.0 67.0 L 83.0 67.33333333333333 L 82.0 67.66666666666667 L 81.0 68.33333333333333 L 80.0 69.0 L 79.33333333333333 70.0 L 79.0 71.0 L 79.0 72.0 L 79.0 73.0 L 79.0 74.0 L 79.0 75.0 L 79.33333333333333 76.0 L 80.0 77.0 L 81.0 78.0 L 82.0 79.0 L 83.0 79.66666666666667 L 84.0 80.0 L 85.0 80.0 L 86.0 80.0 L 87.0 80.0 L 87.5 80.0 Z" stroke="none" fill="rgb(73,54,46)" />
<path d="M 42.5 80.0 L 43.0 80.0 L 44.0 80.0 L 45.0 80.0 L 46.0 79.66666666666667 L 47.0 79.0 L 48.0 78.0 L 48.666666666666664 77.0 L 49.0 76.0 L 49.0 75.0 L 49.0 74.0 L 49.0 73.0 L 49.0 72.0 L 49.0 71.0 L 48.666666666666664 70.0 L 48.0 69.0 L 47.0 68.0 L 46.0 67.33333333333333 L 45.0 67.0 L 44.0 67.0 L 43.0 67.0 L 42.0 67.0 L 41.0 67.0 L 40.0 67.33333333333333 L 39.0 68.0 L 38.0 69.0 L 37.333333333333336 70.0 L 37.0 71.0 L 37.0 72.0 L 37.0 73.0 L 37.0 74.0 L 37.0 75.0 L 37.0 76.0 L 37.333333333333336 77.0 L 38.0 78.0 L 39.0 79.0 L 40.0 79.66666666666667 L 41.0 80.0 L 41.5 80.0 Z" stroke="none" fill="rgb(73,54,46)" />
<path d="M 81.5 65.0 L 82.0 65.0 L 83.0 64.66666666666667 L 84.0 64.33333333333333 L 85.0 64.0 L 86.0 64.0 L 87.0 64.0 L 88.0 64.0 L 89.0 64.33333333333333 L 90.0 64.66666666666667 L 91.0 65.0 L 92.0 65.0 L 93.0 65.0 L 94.0 65.0 L 95.0 65.0 L 95.66666666666667 64.66666666666667 L 96.0 64.0 L 96.0 63.0 L 95.66666666666667 62.0 L 95.0 61.0 L 94.0 60.333333333333336 L 93.0 59.666666666666664 L 92.0 59.0 L 91.0 58.333333333333336 L 90.0 58.0 L 89.0 58.0 L 88.0 58.0 L 87.0 58.0 L 86.0 58.0 L 85.0 58.0 L 84.0 58.0 L 83.0 58.0 L 82.0 58.0 L 81.0 58.0 L 80.0 58.333333333333336 L 79.0 59.0 L 78.0 59.666666666666664 L 77.0 60.333333333333336 L 76.0 61.0 L 75.33333333333333 62.0 L 75.0 63.0 L 75.0 64.0 L 75.33333333333333 64.66666666666667 L 76.0 65.0 L 77.0 65.0 L 78.0 65.0 L 79.0 65.0 L 80.0 65.0 L 80.5 65.0 Z" stroke="none" fill="rgb(97,62,49)" />
<path d="M 52.5 65.0 L 52.666666666666664 64.66666666666667 L 53.0 64.0 L 53.0 63.0 L 52.666666666666664 62.0 L 52.0 61.0 L 51.0 60.0 L 50.0 59.0 L 49.0 58.333333333333336 L 48.0 58.0 L 47.0 58.0 L 46.0 58.0 L 45.0 58.0 L 44.0 58.0 L 43.0 58.0 L 42.0 58.0 L 41.0 58.0 L 40.0 58.0 L 39.0 58.0 L 38.0 58.333333333333336 L 37.0 58.666666666666664 L 36.0 59.333333333333336 L 35.0 60.0 L 34.0 60.666666666666664 L 33.333333333333336 61.333333333333336 L 32.666666666666664 62.0 L 32.333333333333336 63.0 L 32.333333333333336 64.0 L 33.0 64.66666666666667 L 34.0 65.0 L 35.0 65.0 L 36.0 65.0 L 37.0 65.0 L 38.0 65.0 L 39.0 65.0 L 40.0 64.66666666666667 L 41.0 64.33333333333333 L 42.0 64.0 L 43.0 64.0 L 44.0 64.0 L 45.0 64.0 L 46.0 64.0 L 47.0 64.33333333333333 L 48.0 64.66666666666667 L 49.0 65.0 L 50.0 65.0 L 51.0 65.0 L 51.5 65.0 Z" stroke="none" fill="rgb(97,62,49)" />
<path d="M 110.5 85.5 L 111.0 85.0 L 111.66666666666667 84.0 L 112.33333333333333 83.0 L 112.66666666666667 82.0 L 113.0 81.0 L 113.33333333333333 80.0 L 113.66666666666667 79.0 L 114.0 78.0 L 114.0 77.0 L 114.0 76.0 L 114.0 75.0 L 114.0 74.0 L 114.0 73.0 L 114.0 72.0 L 114.0 71.0 L 114.0 70.0 L 113.66666666666667 69.0 L 113.33333333333333 68.0 L 113.0 67.0 L 112.66666666666667 66.0 L 112.0 65.33333333333333 L 111.0 65.0 L 110.33333333333333 65.33333333333333 L 109.66666666666667 66.0 L 109.33333333333333 67.0 L 109.0 68.0 L 109.0 69.0 L 109.0 70.0 L 109.0 71.0 L 109.0 72.0 L 109.0 73.0 L 108.66666666666667 74.0 L 108.0 75.0 L 107.33333333333333 76.0 L 107.0 77.0 L 107.0 78.0 L 107.0 79.0 L 107.0 80.0 L 107.0 81.0 L 107.0 82.0 L 107.0 83.0 L 106.66666666666667 84.0 L 106.33333333333333 85.0 L 106.0 86.0 L 106.0 87.0 L 106.33333333333333 87.66666666666667 L 107.0 88.0 L 108.0 87.66666666666667 L 109.0 87.0 L 109.5 86.5 Z" stroke="none" fill="rgb(153,103,79)" />
<path d="M 24.5 96.5 L 24.666666666666668 97.0 L 25.333333333333332 98.0 L 25.666666666666668 99.0 L 26.333333333333332 100.0 L 26.666666666666668 101.0 L 27.333333333333332 101.66666666666667 L 28.0 102.0 L 29.0 102.33333333333333 L 30.0 103.0 L 31.0 104.0 L 32.0 105.0 L 33.0 106.0 L 34.0 107.0 L 35.0 108.0 L 36.0 109.0 L 37.0 110.0 L 38.0 111.0 L 39.0 112.0 L 40.0 112.66666666666667 L 40.666666666666664 112.66666666666667 L 41.0 112.0 L 41.0 111.0 L 40.666666666666664 110.0 L 40.0 109.0 L 39.0 108.0 L 38.0 107.0 L 37.0 106.0 L 36.333333333333336 105.0 L 36.0 104.0 L 36.0 103.0 L 35.666666666666664 102.0 L 35.0 101.0 L 34.0 100.0 L 33.0 99.0 L 32.0 98.0 L 31.0 97.0 L 30.0 96.0 L 29.0 95.0 L 28.0 94.0 L 27.0 93.0 L 26.0 92.0 L 25.0 91.0 L 24.0 90.33333333333333 L 23.333333333333332 90.33333333333333 L 23.0 91.0 L 23.0 92.0 L 23.333333333333332 93.0 L 23.666666666666668 94.0 L 24.0 95.0 L 24.0 95.5 Z" stroke="none" fill="rgb(0,0,0)" />
<path d="M 72.5 13.0 L 73.0 13.333333333333334 L 74.0 13.666666666666666 L 75.0 14.333333333333334 L 76.0 15.0 L 77.0 16.0 L 78.0 16.666666666666668 L 79.0 17.333333333333332 L 80.0 18.0 L 81.0 19.0 L 82.0 19.666666666666668 L 83.0 20.0 L 84.0 20.0 L 84.66666666666667 19.666666666666668 L 84.66666666666667 19.0 L 84.0 18.0 L 83.0 17.0 L 82.0 16.0 L 81.33333333333333 15.0 L 81.0 14.0 L 80.66666666666667 13.0 L 80.0 12.0 L 79.0 11.0 L 78.0 10.0 L 77.0 9.0 L 76.0 8.333333333333334 L 75.0 8.0 L 74.0 7.666666666666667 L 73.0 7.333333333333333 L 72.0 7.0 L 71.0 7.0 L 70.0 7.0 L 69.0 6.666666666666667 L 68.0 6.333333333333333 L 67.0 6.0 L 66.0 6.0 L 65.0 6.0 L 64.0 6.0 L 63.0 6.0 L 62.333333333333336 6.333333333333333 L 62.0 7.0 L 62.333333333333336 8.0 L 63.0 8.666666666666666 L 64.0 9.0 L 65.0 9.0 L 66.0 9.0 L 67.0 9.333333333333334 L 68.0 10.0 L 69.0 11.0 L 70.0 12.0 L 71.0 12.666666666666666 L 71.5 13.0 Z" stroke="none" fill="rgb(101,70,60)" />
<path d="M 95.5 110.5 L 96.0 110.0 L 96.66666666666667 109.0 L 97.33333333333333 108.0 L 97.66666666666667 107.0 L 98.0 106.0 L 97.66666666666667 105.33333333333333 L 97.0 105.33333333333333 L 96.0 106.0 L 95.0 107.0 L 94.0 108.0 L 93.0 109.0 L 92.0 110.0 L 91.0 111.0 L 90.0 112.0 L 89.0 113.0 L 88.0 114.0 L 87.0 115.0 L 86.0 116.0 L 85.0 116.66666666666667 L 84.0 117.33333333333333 L 83.0 117.66666666666667 L 82.0 118.0 L 81.0 118.33333333333333 L 80.0 118.66666666666667 L 79.0 119.33333333333333 L 78.0 119.66666666666667 L 77.0 120.33333333333333 L 76.0 120.66666666666667 L 75.0 121.33333333333333 L 74.0 121.66666666666667 L 73.0 122.0 L 72.0 122.0 L 71.0 122.0 L 70.33333333333333 122.33333333333333 L 70.0 123.0 L 70.33333333333333 123.66666666666667 L 71.0 124.0 L 72.0 124.0 L 73.0 123.66666666666667 L 74.0 123.33333333333333 L 75.0 123.0 L 76.0 123.0 L 77.0 122.66666666666667 L 78.0 122.33333333333333 L 79.0 122.0 L 80.0 121.66666666666667 L 81.0 121.33333333333333 L 82.0 120.66666666666667 L 83.0 120.33333333333333 L 84.0 119.66666666666667 L 85.0 119.33333333333333 L 86.0 118.66666666666667 L 87.0 118.0 L 88.0 117.33333333333333 L 89.0 116.66666666666667 L 90.0 116.0 L 91.0 115.0 L 92.0 114.0 L 93.0 113.0 L 94.0 112.0 L 94.5 111.5 Z" stroke="none" fill="rgb(109,76,65)" />
<path d="M 26.0 72.5 L 26.0 72.0 L 26.0 71.0 L 26.0 70.0 L 26.0 69.0 L 26.0 68.0 L 26.0 67.0 L 26.0 66.0 L 25.666666666666668 65.0 L 25.0 64.0 L 24.0 63.0 L 23.0 62.0 L 22.0 61.0 L 21.0 60.0 L 20.0 59.0 L 19.0 58.333333333333336 L 18.333333333333332 58.333333333333336 L 18.0 59.0 L 18.0 60.0 L 18.0 61.0 L 17.666666666666668 62.0 L 17.333333333333332 63.0 L 17.0 64.0 L 17.333333333333332 65.0 L 18.0 66.0 L 19.0 67.0 L 20.0 68.0 L 21.0 69.0 L 22.0 70.0 L 23.0 71.0 L 24.0 72.0 L 25.0 72.66666666666667 L 25.5 73.0 Z" stroke="none" fill="rgb(0,0,0)" />
<path d="M 59.5 90.5 L 60.0 90.66666666666667 L 61.0 91.0 L 62.0 91.0 L 63.0 91.0 L 64.0 91.0 L 65.0 91.0 L 66.0 91.0 L 67.0 91.0 L 68.0 91.0 L 69.0 91.0 L 69.66666666666667 90.66666666666667 L 70.0 90.0 L 70.0 89.0 L 70.0 88.0 L 70.0 87.0 L 69.66666666666667 86.33333333333333 L 69.0 86.0 L 68.0 86.0 L 67.0 86.0 L 66.0 86.0 L 65.0 86.0 L 64.0 86.0 L 63.0 86.0 L 62.0 86.0 L 61.0 86.0 L 60.0 86.0 L 59.0 86.0 L 58.333333333333336 86.33333333333333 L 58.0 87.0 L 58.0 88.0 L 58.0 89.0 L 58.333333333333336 89.66666666666667 L 58.5 90.0 Z" stroke="none" fill="rgb(153,103,79)" />
<path d="M 91.5 107.5 L 92.0 107.66666666666667 L 93.0 107.66666666666667 L 93.66666666666667 107.0 L 94.0 106.0 L 93.66666666666667 105.0 L 93.33333333333333 104.0 L 93.0 103.0 L 93.0 102.0 L 92.66666666666667 101.0 L 92.0 100.0 L 91.0 99.33333333333333 L 90.0 99.33333333333333 L 89.0 100.0 L 88.0 101.0 L 87.0 102.0 L 86.0 103.0 L 85.0 104.0 L 84.33333333333333 105.0 L 84.33333333333333 106.0 L 85.0 107.0 L 86.0 107.66666666666667 L 87.0 108.0 L 87.66666666666667 107.66666666666667 L 88.33333333333333 107.0 L 89.0 106.33333333333333 L 90.0 106.33333333333333 L 90.5 106.5 Z" stroke="none" fill="rgb(88,60,51)" />
<path d="M 43.5 116.5 L 44.0 116.66666666666667 L 45.0 117.33333333333333 L 46.0 117.66666666666667 L 47.0 118.33333333333333 L 48.0 118.66666666666667 L 49.0 119.33333333333333 L 50.0 119.66666666666667 L 51.0 120.0 L 52.0 120.33333333333333 L 53.0 120.66666666666667 L 54.0 121.0 L 54.666666666666664 120.66666666666667 L 55.0 120.0 L 55.0 119.0 L 54.666666666666664 118.0 L 54.0 117.0 L 53.0 116.33333333333333 L 52.0 116.33333333333333 L 51.0 116.33333333333333 L 50.0 116.0 L 49.0 115.33333333333333 L 48.0 115.0 L 47.0 114.66666666666667 L 46.0 114.0 L 45.0 113.0 L 44.0 112.0 L 43.0 111.33333333333333 L 42.0 111.0 L 41.333333333333336 111.33333333333333 L 41.0 112.0 L 41.0 113.0 L 41.333333333333336 114.0 L 42.0 115.0 L 42.5 115.5 Z" stroke="none" fill="rgb(101,70,60)" />
<path d="M 59.5 17.0 L 60.0 16.666666666666668 L 61.0 16.333333333333332 L 61.666666666666664 15.666666666666666 L 62.0 15.0 L 61.666666666666664 14.333333333333334 L 61.0 14.0 L 60.0 14.0 L 59.0 14.0 L 58.0 14.333333333333334 L 57.0 14.666666666666666 L 56.0 15.0 L 55.0 15.0 L 54.0 15.333333333333334 L 53.0 15.666666666666666 L 52.0 16.333333333333332 L 51.0 16.666666666666668 L 50.0 17.0 L 49.0 17.333333333333332 L 48.0 18.0 L 47.0 19.0 L 46.0 19.666666666666668 L 45.0 20.333333333333332 L 44.0 21.0 L 43.333333333333336 22.0 L 43.333333333333336 22.666666666666668 L 44.0 23.0 L 45.0 23.0 L 46.0 22.666666666666668 L 47.0 22.0 L 48.0 21.333333333333332 L 49.0 20.666666666666668 L 50.0 20.333333333333332 L 51.0 19.666666666666668 L 52.0 19.333333333333332 L 53.0 18.666666666666668 L 54.0 18.333333333333332 L 55.0 17.666666666666668 L 56.0 17.333333333333332 L 57.0 17.0 L 58.0 17.0 L 58.5 17.0 Z" stroke="none" fill="rgb(88,60,51)" />
<path d="M 95.0 107.5 L 95.0 107.0 L 94.66666666666667 106.33333333333333 L 94.0 106.33333333333333 L 93.0 107.0 L 92.0 108.0 L 91.0 108.66666666666667 L 90.0 109.33333333333333 L 89.0 110.0 L 88.0 111.0 L 87.0 112.0 L 86.0 113.0 L 85.0 113.66666666666667 L 84.0 114.33333333333333 L 83.0 115.0 L 82.0 115.66666666666667 L 81.0 116.33333333333333 L 80.33333333333333 117.0 L 80.33333333333333 117.66666666666667 L 81.0 118.0 L 82.0 118.0 L 83.0 118.0 L 84.0 117.66666666666667 L 85.0 117.33333333333333 L 86.0 116.66666666666667 L 87.0 116.0 L 88.0 115.0 L 89.0 114.0 L 90.0 113.0 L 91.0 112.0 L 92.0 111.0 L 93.0 110.0 L 94.0 109.0 L 94.5 108.5 Z" stroke="none" fill="rgb(106,73,63)" />
<path d="M 68.5 121.0 L 69.0 121.33333333333333 L 70.0 121.66666666666667 L 71.0 122.0 L 72.0 122.0 L 73.0 122.0 L 74.0 122.0 L 75.0 121.66666666666667 L 76.0 121.33333333333333 L 76.66666666666667 120.66666666666667 L 77.0 120.0 L 77.0 119.0 L 76.66666666666667 118.33333333333333 L 76.0 118.0 L 75.0 118.0 L 74.0 118.0 L 73.0 118.33333333333333 L 72.0 118.66666666666667 L 71.0 119.0 L 70.0 119.0 L 69.0 119.0 L 68.0 119.0 L 67.33333333333333 119.33333333333333 L 67.0 120.0 L 67.33333333333333 120.66666666666667 L 67.5 121.0 Z" stroke="none" fill="rgb(104,72,61)" />
<path d="M 42.5 111.5 L 43.0 111.66666666666667 L 44.0 112.0 L 44.666666666666664 111.66666666666667 L 44.666666666666664 111.0 L 44.0 110.0 L 43.0 109.0 L 42.0 108.0 L 41.0 107.0 L 40.0 106.0 L 39.0 105.0 L 38.0 104.0 L 37.0 103.33333333333333 L 36.333333333333336 103.33333333333333 L 36.0 104.0 L 36.0 105.0 L 36.333333333333336 106.0 L 37.0 107.0 L 38.0 108.0 L 39.0 109.0 L 40.0 110.0 L 41.0 110.66666666666667 L 41.5 111.0 Z" stroke="none" fill="rgb(98,67,57)" />
<path d="M 38.5 27.5 L 39.0 27.666666666666668 L 40.0 27.666666666666668 L 41.0 27.0 L 42.0 26.0 L 42.666666666666664 25.0 L 43.0 24.0 L 43.333333333333336 23.0 L 44.0 22.0 L 44.666666666666664 21.0 L 44.666666666666664 20.333333333333332 L 44.0 20.0 L 43.0 20.333333333333332 L 42.0 21.0 L 41.0 21.666666666666668 L 40.0 22.333333333333332 L 39.0 23.0 L 38.333333333333336 24.0 L 38.0 25.0 L 38.0 26.0 L 38.0 26.5 Z" stroke="none" fill="rgb(90,62,52)" />
<path d="M 85.5 112.5 L 85.66666666666667 112.0 L 86.33333333333333 111.0 L 86.66666666666667 110.0 L 87.0 109.0 L 86.66666666666667 108.0 L 86.0 107.33333333333333 L 85.0 107.33333333333333 L 84.0 107.66666666666667 L 83.0 108.33333333333333 L 82.0 109.0 L 81.0 110.0 L 80.33333333333333 111.0 L 80.33333333333333 112.0 L 81.0 112.66666666666667 L 82.0 113.0 L 83.0 113.0 L 84.0 113.0 L 84.5 113.0 Z" stroke="none" fill="rgb(93,64,54)" />
<path d="M 110.0 62.5 L 110.0 62.0 L 110.0 61.0 L 110.0 60.0 L 110.0 59.0 L 110.0 58.0 L 110.0 57.0 L 110.0 56.0 L 110.0 55.0 L 110.0 54.0 L 110.0 53.0 L 110.0 52.0 L 110.0 51.0 L 110.0 50.0 L 110.0 49.0 L 109.66666666666667 48.333333333333336 L 109.33333333333333 48.333333333333336 L 109.0 49.0 L 109.0 50.0 L 109.0 51.0 L 109.0 52.0 L 109.0 53.0 L 109.0 54.0 L 109.0 55.0 L 109.0 56.0 L 109.0 57.0 L 109.0 58.0 L 109.0 59.0 L 109.0 60.0 L 109.0 61.0 L 109.0 62.0 L 109.33333333333333 62.666666666666664 L 109.5 63.0 Z" stroke="none" fill="rgb(0,0,0)" />
<path d="M 45.5 16.5 L 45.666666666666664 16.0 L 46.0 15.0 L 46.0 14.0 L 45.666666666666664 13.0 L 45.0 12.333333333333334 L 44.0 12.333333333333334 L 43.0 13.0 L 42.0 14.0 L 41.0 14.666666666666666 L 40.333333333333336 15.333333333333334 L 40.333333333333336 16.0 L 41.0 16.666666666666668 L 42.0 17.0 L 43.0 17.0 L 44.0 17.0 L 44.5 17.0 Z" stroke="none" fill="rgb(104,72,61)" />
<path d="M 71.5 15.0 L 72.0 15.0 L 73.0 15.333333333333334 L 74.0 15.666666666666666 L 75.0 16.0 L 76.0 16.0 L 76.66666666666667 15.666666666666666 L 76.66666666666667 15.0 L 76.0 14.333333333333334 L 75.0 13.666666666666666 L 74.0 13.333333333333334 L 73.0 13.0 L 72.0 12.666666666666666 L 71.0 12.333333333333334 L 70.0 12.0 L 69.33333333333333 12.333333333333334 L 69.0 13.0 L 69.33333333333333 13.666666666666666 L 70.0 14.333333333333334 L 70.5 14.5 Z" stroke="none" fill="rgb(90,62,52)" />
<path d="M 46.5 18.5 L 47.0 18.333333333333332 L 47.666666666666664 17.666666666666668 L 48.0 17.0 L 48.0 16.0 L 47.666666666666664 15.333333333333334 L 47.0 15.0 L 46.0 15.333333333333334 L 45.0 16.0 L 44.0 17.0 L 43.0 17.666666666666668 L 42.333333333333336 18.333333333333332 L 42.333333333333336 19.0 L 43.0 19.666666666666668 L 44.0 20.0 L 45.0 19.666666666666668 L 45.5 19.5 Z" stroke="none" fill="rgb(96,66,56)" />
<path d="M 68.5 14.0 L 68.66666666666667 13.666666666666666 L 69.0 13.0 L 68.66666666666667 12.0 L 68.0 11.333333333333334 L 67.0 11.0 L 66.0 11.0 L 65.0 11.0 L 64.0 11.0 L 63.333333333333336 11.333333333333334 L 63.0 12.0 L 63.333333333333336 13.0 L 64.0 13.666666666666666 L 65.0 14.0 L 66.0 14.0 L 67.0 14.0 L 67.5 14.0 Z" stroke="none" fill="rgb(92,63,53)" />
<path d="M 68.5 12.0 L 69.0 12.0 L 69.66666666666667 11.666666666666666 L 69.66666666666667 11.0 L 69.0 10.0 L 68.0 9.333333333333334 L 67.0 9.0 L 66.0 9.0 L 65.0 9.0 L 64.0 9.0 L 63.333333333333336 9.333333333333334 L 63.0 10.0 L 63.333333333333336 10.666666666666666 L 64.0 11.0 L 65.0 11.0 L 66.0 11.0 L 67.0 11.333333333333334 L 67.5 11.5 Z" stroke="none" fill="rgb(96,66,56)" />
<path d="M 37.0 31.5 L 37.333333333333336 31.0 L 38.0 30.0 L 38.666666666666664 29.0 L 39.0 28.0 L 38.666666666666664 27.333333333333332 L 38.0 27.333333333333332 L 37.0 28.0 L 36.333333333333336 29.0 L 35.666666666666664 30.0 L 35.0 31.0 L 34.333333333333336 32.0 L 34.0 33.0 L 34.333333333333336 33.666666666666664 L 35.0 33.666666666666664 L 36.0 33.0 L 36.5 32.5 Z" stroke="none" fill="rgb(88,60,51)" />
<path d="M 95.5 107.0 L 96.0 106.66666666666667 L 96.66666666666667 106.0 L 97.0 105.0 L 96.66666666666667 104.0 L 96.0 103.0 L 95.0 102.33333333333333 L 94.0 102.0 L 93.33333333333333 102.33333333333333 L 93.0 103.0 L 93.0 104.0 L 93.33333333333333 105.0 L 94.0 106.0 L 94.5 106.5 Z" stroke="none" fill="rgb(99,69,59)" />
<path d="M 59.5 8.0 L 60.0 8.0 L 61.0 8.0 L 61.666666666666664 7.666666666666667 L 62.0 7.0 L 62.0 6.0 L 61.666666666666664 5.333333333333333 L 61.0 5.0 L 60.0 5.0 L 59.0 5.0 L 58.0 5.0 L 57.333333333333336 5.333333333333333 L 57.0 6.0 L 57.333333333333336 6.666666666666667 L 58.0 7.333333333333333 L 58.5 7.5 Z" stroke="none" fill="rgb(106,73,63)" />
<path d="M 62.5 12.0 L 62.666666666666664 11.666666666666666 L 63.0 11.0 L 63.0 10.0 L 63.0 9.0 L 62.666666666666664 8.333333333333334 L 62.0 8.0 L 61.0 8.0 L 60.0 8.0 L 59.333333333333336 8.333333333333334 L 59.0 9.0 L 59.333333333333336 10.0 L 60.0 11.0 L 61.0 11.666666666666666 L 61.5 12.0 Z" stroke="none" fill="rgb(99,69,59)" />
<path d="M 41.5 20.5 L 41.666666666666664 20.0 L 42.0 19.0 L 42.0 18.0 L 41.666666666666664 17.0 L 41.0 16.333333333333332 L 40.0 16.333333333333332 L 39.0 17.0 L 38.333333333333336 18.0 L 38.333333333333336 19.0 L 39.0 20.0 L 40.0 20.666666666666668 L 40.5 21.0 Z" stroke="none" fill="rgb(101,70,60)" />
<path d="M 61.5 5.5 L 62.0 5.666666666666667 L 63.0 6.0 L 63.666666666666664 5.666666666666667 L 64.0 5.0 L 64.0 4.0 L 63.666666666666664 3.3333333333333335 L 63.0 3.0 L 62.0 3.0 L 61.0 3.0 L 60.0 3.0 L 59.333333333333336 3.3333333333333335 L 59.0 4.0 L 59.333333333333336 4.666666666666667 L 60.0 5.0 L 60.5 5.0 Z" stroke="none" fill="rgb(109,76,65)" />
<path d="M 68.5 7.0 L 69.0 7.0 L 69.66666666666667 6.666666666666667 L 70.0 6.0 L 70.0 5.0 L 69.66666666666667 4.0 L 69.0 3.3333333333333335 L 68.0 3.0 L 67.0 3.0 L 66.33333333333333 3.3333333333333335 L 66.0 4.0 L 66.33333333333333 5.0 L 67.0 6.0 L 67.5 6.5 Z" stroke="none" fill="rgb(109,76,65)" />
<path d="M 75.5 118.0 L 76.0 118.33333333333333 L 77.0 118.66666666666667 L 78.0 119.0 L 79.0 119.0 L 79.66666666666667 118.66666666666667 L 80.0 118.0 L 80.0 117.0 L 79.66666666666667 116.33333333333333 L 79.0 116.0 L 78.0 116.0 L 77.0 116.0 L 76.0 116.33333333333333 L 75.33333333333333 117.0 L 75.0 117.5 Z" stroke="none" fill="rgb(101,70,60)" />
<path d="M 69.5 119.0 L 70.0 119.0 L 71.0 119.0 L 72.0 119.0 L 72.66666666666667 118.66666666666667 L 73.0 118.0 L 72.66666666666667 117.33333333333333 L 72.0 117.0 L 71.0 117.0 L 70.0 117.0 L 69.0 117.0 L 68.0 117.0 L 67.33333333333333 117.33333333333333 L 67.0 118.0 L 67.33333333333333 118.66666666666667 L 68.0 119.0 L 68.5 119.0 Z" stroke="none" fill="rgb(99,69,59)" />
<path d="M 84.0 114.5 L 84.0 114.0 L 84.0 113.0 L 83.66666666666667 112.33333333333333 L 83.0 112.33333333333333 L 82.0 112.66666666666667 L 81.0 113.33333333333333 L 80.33333333333333 114.0 L 80.33333333333333 115.0 L 81.0 115.66666666666667 L 82.0 116.0 L 83.0 115.66666666666667 L 83.5 115.5 Z" stroke="none" fill="rgb(99,69,59)" />
<path d="M 72.5 7.5 L 73.0 7.666666666666667 L 74.0 8.0 L 74.66666666666667 7.666666666666667 L 74.66666666666667 7.0 L 74.0 6.0 L 73.0 5.333333333333333 L 72.0 5.0 L 71.0 5.0 L 70.33333333333333 5.333333333333333 L 70.0 6.0 L 70.33333333333333 6.666666666666667 L 71.0 7.0 L 71.5 7.0 Z" stroke="none" fill="rgb(106,73,63)" />
<path d="M 59.5 14.0 L 60.0 14.0 L 60.666666666666664 13.666666666666666 L 61.0 13.0 L 61.0 12.0 L 60.666666666666664 11.333333333333334 L 60.0 11.0 L 59.0 11.0 L 58.0 11.0 L 57.333333333333336 11.333333333333334 L 57.0 12.0 L 57.333333333333336 12.666666666666666 L 58.0 13.333333333333334 L 58.5 13.5 Z" stroke="none" fill="rgb(93,64,54)" />
<path d="M 66.5 16.0 L 67.0 16.0 L 68.0 16.0 L 68.66666666666667 15.666666666666666 L 69.0 15.0 L 68.66666666666667 14.333333333333334 L 68.0 14.0 L 67.0 14.0 L 66.0 14.0 L 65.0 14.0 L 64.33333333333333 14.333333333333334 L 64.0 15.0 L 64.33333333333333 15.666666666666666 L 65.0 16.0 L 65.5 16.0 Z" stroke="none" fill="rgb(86,58,49)" />
<path d="M 91.5 109.0 L 91.66666666666667 108.66666666666667 L 92.0 108.0 L 91.66666666666667 107.0 L 91.0 106.0 L 90.0 105.33333333333333 L 89.0 105.33333333333333 L 88.33333333333333 106.0 L 88.33333333333333 107.0 L 89.0 108.0 L 90.0 108.66666666666667 L 90.5 109.0 Z" stroke="none" fill="rgb(96,66,56)" />
<path d="M 69.5 116.5 L 70.0 116.66666666666667 L 71.0 117.0 L 72.0 116.66666666666667 L 72.66666666666667 116.0 L 73.0 115.0 L 72.66666666666667 114.33333333333333 L 72.0 114.0 L 71.0 114.0 L 70.0 114.0 L 69.33333333333333 114.33333333333333 L 69.0 115.0 L 69.0 115.5 Z" stroke="none" fill="rgb(93,64,54)" />
<path d="M 40.0 22.5 L 40.0 22.0 L 40.0 21.0 L 39.666666666666664 20.0 L 39.0 19.333333333333332 L 38.0 19.333333333333332 L 37.333333333333336 20.0 L 37.0 21.0 L 37.333333333333336 22.0 L 38.0 22.666666666666668 L 39.0 23.0 L 39.5 23.0 Z" stroke="none" fill="rgb(99,69,59)" />
<path d="M 75.5 117.5 L 75.66666666666667 117.0 L 76.0 116.0 L 75.66666666666667 115.33333333333333 L 75.0 115.0 L 74.0 115.0 L 73.0 115.33333333333333 L 72.33333333333333 116.0 L 72.33333333333333 117.0 L 73.0 117.66666666666667 L 74.0 118.0 L 74.5 118.0 Z" stroke="none" fill="rgb(98,67,57)" />
<path d="M 70.0 123.5 L 70.0 123.0 L 70.0 122.0 L 69.66666666666667 121.33333333333333 L 69.0 121.0 L 68.0 121.0 L 67.33333333333333 121.33333333333333 L 67.0 122.0 L 67.33333333333333 123.0 L 68.0 123.66666666666667 L 69.0 124.0 L 69.5 124.0 Z" stroke="none" fill="rgb(107,75,64)" />
<path d="M 62.5 15.0 L 63.0 15.0 L 63.666666666666664 14.666666666666666 L 64.0 14.0 L 63.666666666666664 13.0 L 63.0 12.333333333333334 L 62.0 12.0 L 61.333333333333336 12.333333333333334 L 61.0 13.0 L 61.333333333333336 14.0 L 61.5 14.5 Z" stroke="none" fill="rgb(90,62,52)" />
<path d="M 59.0 13.5 L 58.666666666666664 13.333333333333334 L 58.0 13.0 L 57.0 13.333333333333334 L 56.0 13.666666666666666 L 55.0 14.0 L 54.333333333333336 14.333333333333334 L 54.333333333333336 14.666666666666666 L 55.0 15.0 L 56.0 15.0 L 57.0 15.0 L 58.0 14.666666666666666 L 58.5 14.5 Z" stroke="none" fill="rgb(90,62,52)" />
<path d="M 47.5 115.0 L 47.666666666666664 114.66666666666667 L 47.666666666666664 114.0 L 47.0 113.0 L 46.0 112.33333333333333 L 45.0 112.0 L 44.333333333333336 112.33333333333333 L 44.333333333333336 113.0 L 45.0 114.0 L 46.0 114.66666666666667 L 46.5 115.0 Z" stroke="none" fill="rgb(99,69,59)" />
<path d="M 89.5 110.0 L 89.66666666666667 109.66666666666667 L 90.0 109.0 L 89.66666666666667 108.0 L 89.0 107.33333333333333 L 88.0 107.33333333333333 L 87.33333333333333 108.0 L 87.33333333333333 109.0 L 88.0 109.66666666666667 L 88.5 110.0 Z" stroke="none" fill="rgb(98,67,57)" />
<path d="M 41.5 22.0 L 42.0 21.666666666666668 L 42.666666666666664 21.0 L 43.0 20.0 L 42.666666666666664 19.333333333333332 L 42.0 19.333333333333332 L 41.0 20.0 L 40.333333333333336 21.0 L 40.333333333333336 21.666666666666668 L 40.5 22.0 Z" stroke="none" fill="rgb(93,64,54)" />
<path d="M 89.0 110.5 L 88.66666666666667 110.0 L 88.0 109.33333333333333 L 87.0 109.33333333333333 L 86.33333333333333 110.0 L 86.33333333333333 111.0 L 87.0 111.66666666666667 L 88.0 111.66666666666667 L 88.5 111.5 Z" stroke="none" fill="rgb(99,69,59)" />
<path d="M 87.0 112.5 L 87.0 112.0 L 86.66666666666667 111.33333333333333 L 86.0 111.33333333333333 L 85.0 112.0 L 84.33333333333333 113.0 L 84.33333333333333 113.66666666666667 L 85.0 114.0 L 86.0 113.66666666666667 L 86.5 113.5 Z" stroke="none" fill="rgb(101,70,60)" />
<path d="M 66.5 6.0 L 66.66666666666667 5.666666666666667 L 66.66666666666667 5.0 L 66.0 4.333333333333333 L 65.0 4.0 L 64.33333333333333 4.333333333333333 L 64.0 5.0 L 64.33333333333333 5.666666666666667 L 65.0 6.0 L 65.5 6.0 Z" stroke="none" fill="rgb(106,73,63)" />
<path d="M 60.0 10.5 L 59.666666666666664 10.0 L 59.0 9.333333333333334 L 58.0 9.0 L 57.333333333333336 9.333333333333334 L 57.0 10.0 L 57.333333333333336 10.666666666666666 L 58.0 11.0 L 59.0 11.0 L 59.5 11.0 Z" stroke="none" fill="rgb(98,67,57)" />
<path d="M 69.5 117.0 L 69.66666666666667 116.66666666666667 L 69.66666666666667 116.0 L 69.0 115.33333333333333 L 68.0 115.0 L 67.33333333333333 115.33333333333333 L 67.0 116.0 L 67.33333333333333 116.66666666666667 L 68.0 117.0 L 68.5 117.0 Z" stroke="none" fill="rgb(96,66,56)" />
<path d="M 46.5 20.0 L 47.0 19.666666666666668 L 47.666666666666664 19.0 L 47.666666666666664 18.333333333333332 L 47.0 18.0 L 46.0 18.333333333333332 L 45.333333333333336 19.0 L 45.333333333333336 19.666666666666668 L 45.5 20.0 Z" stroke="none" fill="rgb(90,62,52)" />
<path d="M 59.0 8.5 L 59.0 8.0 L 58.666666666666664 7.333333333333333 L 58.0 7.0 L 57.333333333333336 7.333333333333333 L 57.0 8.0 L 57.333333333333336 8.666666666666666 L 58.0 9.0 L 58.5 9.0 Z" stroke="none" fill="rgb(101,70,60)" />
<path d="M 69.0 114.5 L 69.0 114.0 L 68.66666666666667 113.33333333333333 L 68.0 113.0 L 67.33333333333333 113.33333333333333 L 67.0 114.0 L 67.33333333333333 114.66666666666667 L 68.0 115.0 L 68.5 115.0 Z" stroke="none" fill="rgb(90,62,52)" />
<path d="M 71.5 5.0 L 72.0 5.0 L 72.66666666666667 4.666666666666667 L 72.66666666666667 4.333333333333333 L 72.0 4.0 L 71.0 4.0 L 70.33333333333333 4.333333333333333 L 70.33333333333333 4.666666666666667 L 70.5 5.0 Z" stroke="none" fill="rgb(0,0,0)" />
<path d="M 40.5 15.0 L 41.0 15.0 L 41.666666666666664 14.666666666666666 L 42.0 14.0 L 41.666666666666664 13.333333333333334 L 41.0 13.333333333333334 L 40.333333333333336 14.0 L 40.0 14.5 Z" stroke="none" fill="rgb(106,73,63)" />
<path d="M 43.5 18.0 L 43.666666666666664 17.666666666666668 L 44.0 17.0 L 43.666666666666664 16.333333333333332 L 43.0 16.333333333333332 L 42.333333333333336 17.0 L 42.333333333333336 17.666666666666668 L 42.5 18.0 Z" stroke="none" fill="rgb(98,67,57)" />
<path d="M 85.0 107.5 L 85.0 107.0 L 84.66666666666667 106.33333333333333 L 84.0 106.33333333333333 L 83.33333333333333 107.0 L 83.33333333333333 107.66666666666667 L 84.0 108.0 L 84.5 108.0 Z" stroke="none" fill="rgb(90,62,52)" />
<path d="M 56.5 121.0 L 56.666666666666664 120.66666666666667 L 56.666666666666664 120.0 L 56.0 119.33333333333333 L 55.333333333333336 119.33333333333333 L 55.0 120.0 L 55.333333333333336 120.66666666666667 L 55.5 121.0 Z" stroke="none" fill="rgb(106,73,63)" />
<path d="M 64.5 4.0 L 65.0 4.0 L 65.66666666666667 3.6666666666666665 L 65.66666666666667 3.3333333333333335 L 65.0 3.0 L 64.33333333333333 3.3333333333333335 L 64.0 3.5 Z" stroke="none" fill="rgb(0,0,0)" />
<path d="M 58.5 5.0 L 58.666666666666664 4.666666666666667 L 58.666666666666664 4.333333333333333 L 58.0 4.0 L 57.333333333333336 4.333333333333333 L 57.333333333333336 4.666666666666667 L 57.5 5.0 Z" stroke="none" fill="rgb(0,0,0)" />
<path d="M 109.0 47.5 L 109.0 47.0 L 108.66666666666667 46.333333333333336 L 108.33333333333333 46.333333333333336 L 108.0 47.0 L 108.33333333333333 47.666666666666664 L 108.5 48.0 Z" stroke="none" fill="rgb(0,0,0)" />
<path d="M 111.0 64.5 L 111.0 64.0 L 110.66666666666667 63.333333333333336 L 110.33333333333333 63.333333333333336 L 110.0 64.0 L 110.33333333333333 64.66666666666667 L 110.5 65.0 Z" stroke="none" fill="rgb(0,0,0)" />
<path d="M 77.5 120.0 L 78.0 120.0 L 78.66666666666667 119.66666666666667 L 78.66666666666667 119.33333333333333 L 78.0 119.0 L 77.33333333333333 119.33333333333333 L 77.0 119.5 Z" stroke="none" fill="rgb(107,75,64)" />
<path d="M 46.5 15.0 L 46.666666666666664 14.666666666666666 L 46.666666666666664 14.333333333333334 L 46.333333333333336 14.333333333333334 L 46.0 14.5 Z" stroke="none" fill="rgb(98,67,57)" />
<path d="M 48.5 17.0 L 48.666666666666664 16.666666666666668 L 48.666666666666664 16.333333333333332 L 48.333333333333336 16.333333333333332 L 48.0 16.5 Z" stroke="none" fill="rgb(92,63,53)" />
<path d="M 49.0 17.5 L 48.666666666666664 17.333333333333332 L 48.333333333333336 17.333333333333332 L 48.333333333333336 17.666666666666668 L 48.5 18.0 Z" stroke="none" fill="rgb(90,62,52)" />
<path d="M 44.0 23.5 L 43.666666666666664 23.333333333333332 L 43.333333333333336 23.333333333333332 L 43.333333333333336 23.666666666666668 L 43.5 24.0 Z" stroke="none" fill="rgb(86,58,49)" />
<path d="M 23.0 89.5 L 22.666666666666668 89.33333333333333 L 22.333333333333332 89.33333333333333 L 22.333333333333332 89.66666666666667 L 22.5 90.0 Z" stroke="none" fill="rgb(0,0,0)" />
<path d="M 105.5 90.0 L 105.66666666666667 89.66666666666667 L 105.66666666666667 89.33333333333333 L 105.33333333333333 89.33333333333333 L 105.0 89.5 Z" stroke="none" fill="rgb(0,0,0)" />
<path d="M 104.5 93.0 L 104.66666666666667 92.66666666666667 L 104.66666666666667 92.33333333333333 L 104.33333333333333 92.33333333333333 L 104.0 92.5 Z" stroke="none" fill="rgb(0,0,0)" />
<path d="M 103.5 96.0 L 103.66666666666667 95.66666666666667 L 103.66666666666667 95.33333333333333 L 103.33333333333333 95.33333333333333 L 103.0 95.5 Z" stroke="none" fill="rgb(0,0,0)" />
<path d="M 103.0 97.5 L 102.66666666666667 97.33333333333333 L 102.33333333333333 97.33333333333333 L 102.33333333333333 97.66666666666667 L 102.5 98.0 Z" stroke="none" fill="rgb(0,0,0)" />
<path d="M 101.5 100.0 L 101.66666666666667 99.66666666666667 L 101.66666666666667 99.33333333333333 L 101.33333333333333 99.33333333333333 L 101.0 99.5 Z" stroke="none" fill="rgb(0,0,0)" />
<path d="M 100.5 102.0 L 100.66666666666667 101.66666666666667 L 100.66666666666667 101.33333333333333 L 100.33333333333333 101.33333333333333 L 100.0 101.5 Z" stroke="none" fill="rgb(0,0,0)" />
<path d="M 99.5 104.0 L 99.66666666666667 103.66666666666667 L 99.66666666666667 103.33333333333333 L 99.33333333333333 103.33333333333333 L 99.0 103.5 Z" stroke="none" fill="rgb(0,0,0)" />
<path d="M 98.5 106.0 L 98.66666666666667 105.66666666666667 L 98.66666666666667 105.33333333333333 L 98.33333333333333 105.33333333333333 L 98.0 105.5 Z" stroke="none" fill="rgb(0,0,0)" />
<path d="M 80.5 113.0 L 80.66666666666667 112.66666666666667 L 80.66666666666667 112.33333333333333 L 80.33333333333333 112.33333333333333 L 80.0 112.5 Z" stroke="none" fill="rgb(96,66,56)" />
<path d="M 80.5 114.0 L 80.66666666666667 113.66666666666667 L 80.66666666666667 113.33333333333333 L 80.33333333333333 113.33333333333333 L 80.0 113.5 Z" stroke="none" fill="rgb(98,67,57)" />
<path d="M 80.5 116.0 L 80.66666666666667 115.66666666666667 L 80.66666666666667 115.33333333333333 L 80.33333333333333 115.33333333333333 L 80.0 115.5 Z" stroke="none" fill="rgb(101,70,60)" />
<path d="M 80.5 117.0 L 80.66666666666667 116.66666666666667 L 80.66666666666667 116.33333333333333 L 80.33333333333333 116.33333333333333 L 80.0 116.5 Z" stroke="none" fill="rgb(104,72,61)" />
<path d="M 81.0 118.5 L 80.66666666666667 118.33333333333333 L 80.33333333333333 118.33333333333333 L 80.33333333333333 118.66666666666667 L 80.5 119.0 Z" stroke="none" fill="rgb(107,75,64)" />
<path d="M 57.5 122.0 L 57.666666666666664 121.66666666666667 L 57.666666666666664 121.33333333333333 L 57.333333333333336 121.33333333333333 L 57.0 121.5 Z" stroke="none" fill="rgb(106,73,63)" />
</svg>
