<?xml version="1.0" encoding="UTF-8" standalone="no"?>
<!DOCTYPE svg PUBLIC "-//W3C//DTD SVG 1.1//EN"
"http://www.w3.org/Graphics/SVG/1.1/DTD/svg11.dtd">
<svg width="128" height="128" xmlns="http://www.w3.org/2000/svg" version="1.1">
<path d="M 26.5 128.0 L 27.0 128.0 L 28.0 128.0 L 29.0 128.0 L 30.0 128.0 L 31.0 128.0 L 32.0 128.0 L 33.0 128.0 L 34.0 128.0 L 35.0 128.0 L 36.0 128.0 L 37.0 128.0 L 38.0 128.0 L 39.0 128.0 L 40.0 128.0 L 41.0 128.0 L 42.0 128.0 L 43.0 128.0 L 44.0 128.0 L 45.0 128.0 L 46.0 128.0 L 47.0 128.0 L 48.0 128.0 L 49.0 128.0 L 50.0 128.0 L 51.0 128.0 L 52.0 128.0 L 53.0 128.0 L 54.0 128.0 L 55.0 128.0 L 56.0 128.0 L 57.0 128.0 L 58.0 128.0 L 59.0 128.0 L 60.0 128.0 L 61.0 128.0 L 62.0 128.0 L 63.0 128.0 L 64.0 128.0 L 65.0 128.0 L 66.0 128.0 L 67.0 128.0 L 68.0 128.0 L 69.0 128.0 L 70.0 128.0 L 71.0 128.0 L 72.0 128.0 L 73.0 128.0 L 74.0 128.0 L 75.0 128.0 L 76.0 128.0 L 77.0 128.0 L 78.0 128.0 L 79.0 128.0 L 80.0 128.0 L 81.0 128.0 L 82.0 128.0 L 83.0 128.0 L 84.0 128.0 L 85.0 128.0 L 86.0 128.0 L 87.0 128.0 L 88.0 128.0 L 89.0 128.0 L 90.0 128.0 L 91.0 128.0 L 92.0 128.0 L 93.0 128.0 L 94.0 128.0 L 95.0 128.0 L 96.0 128.0 L 97.0 128.0 L 98.0 128.0 L 99.0 128.0 L 100.0 128.0 L 101.0 128.0 L 102.0 128.0 L 103.0 128.0 L 104.0 128.0 L 105.0 128.0 L 106.0 128.0 L 107.0 128.0 L 108.0 128.0 L 109.0 128.0 L 110.0 128.0 L 111.0 128.0 L 112.0 128.0 L 113.0 128.0 L 114.0 128.0 L 115.0 128.0 L 116.0 128.0 L 117.0 128.0 L 118.0 128.0 L 119.0 128.0 L 120.0 128.0 L 121.0 128.0 L 122.0 128.0 L 123.0 128.0 L 124.0 128.0 L 125.0 128.0 L 126.0 128.0 L 127.0 128.0 L 127.66666666666667 127.66666666666667 L 128.0 127.0 L 128.0 126.0 L 128.0 125.0 L 128.0 124.0 L 128.0 123.0 L 128.0 122.0 L 128.0 121.0 L 128.0 120.0 L 128.0 119.0 L 128.0 118.0 L 128.0 117.0 L 128.0 116.0 L 128.0 115.0 L 128.0 114.0 L 128.0 113.0 L 128.0 112.0 L 128.0 111.0 L 128.0 110.0 L 128.0 109.0 L 128.0 108.0 L 128.0 107.0 L 128.0 106.0 L 128.0 105.0 L 128.0 104.0 L 128.0 103.0 L 128.0 102.0 L 128.0 101.0 L 128.0 100.0 L 128.0 99.0 L 128.0 98.0 L 128.0 97.0 L 128.0 96.0 L 128.0 95.0 L 128.0 94.0 L 128.0 93.0 L 128.0 92.0 L 128.0 91.0 L 128.0 90.0 L 128.0 89.0 L 128.0 88.0 L 128.0 87.0 L 128.0 86.0 L 128.0 85.0 L 128.0 84.0 L 128.0 83.0 L 128.0 82.0 L 128.0 81.0 L 128.0 80.0 L 128.0 79.0 L 128.0 78.0 L 128.0 77.0 L 128.0 76.0 L 128.0 75.0 L 128.0 74.0 L 128.0 73.0 L 128.0 72.0 L 128.0 71.0 L 128.0 70.0 L 128.0 69.0 L 128.0 68.0 L 128.0 67.0 L 128.0 66.0 L 128.0 65.0 L 128.0 64.0 L 128.0 63.0 L 128.0 62.0 L 128.0 61.0 L 128.0 60.0 L 128.0 59.0 L 128.0 58.0 L 128.0 57.0 L 128.0 56.0 L 128.0 55.0 L 128.0 54.0 L 128.0 53.0 L 128.0 52.0 L 128.0 51.0 L 128.0 50.0 L 128.0 49.0 L 128.0 48.0 L 128.0 47.0 L 128.0 46.0 L 128.0 45.0 L 128.0 44.0 L 128.0 43.0 L 128.0 42.0 L 128.0 41.0 L 128.0 40.0 L 128.0 39.0 L 128.0 38.0 L 128.0 37.0 L 128.0 36.0 L 128.0 35.0 L 128.0 34.0 L 128.0 33.0 L 128.0 32.0 L 128.0 31.0 L 128.0 30.0 L 128.0 29.0 L 128.0 28.0 L 128.0 27.0 L 128.0 26.0 L 128.0 25.0 L 128.0 24.0 L 128.0 23.0 L 128.0 22.0 L 128.0 21.0 L 128.0 20.0 L 128.0 19.0 L 128.0 18.0 L 128.0 17.0 L 128.0 16.0 L 128.0 15.0 L 128.0 14.0 L 128.0 13.0 L 128.0 12.0 L 128.0 11.0 L 128.0 10.0 L 128.0 9.0 L 128.0 8.0 L 128.0 7.0 L 128.0 6.0 L 128.0 5.0 L 128.0 4.0 L 128.0 3.0 L 128.0 2.0 L 128.0 1.0 L 127.66666666666667 0.3333333333333333 L 127.0 0.0 L 126.0 0.0 L 125.0 0.0 L 124.0 0.0 L 123.0 0.0 L 122.0 0.0 L 121.0 0.0 L 120.0 0.0 L 119.0 0.0 L 118.0 0.0 L 117.0 0.0 L 116.0 0.0 L 115.0 0.0 L 114.0 0.0 L 113.0 0.0 L 112.0 0.0 L 111.0 0.0 L 110.0 0.0 L 109.0 0.0 L 108.0 0.0 L 107.0 0.0 L 106.0 0.0 L 105.0 0.0 L 104.0 0.0 L 103.0 0.0 L 102.0 0.0 L 101.0 0.0 L 100.0 0.0 L 99.0 0.0 L 98.0 0.0 L 97.0 0.0 L 96.0 0.0 L 95.0 0.0 L 94.0 0.0 L 93.0 0.0 L 92.0 0.0 L 91.0 0.0 L 90.0 0.0 L 89.0 0.0 L 88.0 0.0 L 87.0 0.0 L 86.0 0.0 L 85.0 0.0 L 84.0 0.0 L 83.0 0.0 L 82.0 0.0 L 81.0 0.0 L 80.0 0.0 L 79.0 0.0 L 78.0 0.0 L 77.0 0.0 L 76.0 0.0 L 75.0 0.0 L 74.0 0.0 L 73.0 0.0 L 72.0 0.0 L 71.0 0.0 L 70.0 0.0 L 69.0 0.0 L 68.0 0.0 L 67.0 0.0 L 66.0 0.0 L 65.0 0.0 L 64.0 0.0 L 63.0 0.0 L 62.0 0.0 L 61.0 0.0 L 60.0 0.0 L 59.0 0.0 L 58.0 0.0 L 57.0 0.0 L 56.0 0.0 L 55.0 0.0 L 54.0 0.0 L 53.0 0.0 L 52.0 0.0 L 51.0 0.0 L 50.0 0.0 L 49.0 0.0 L 48.0 0.0 L 47.0 0.0 L 46.0 0.0 L 45.0 0.0 L 44.0 0.0 L 43.0 0.0 L 42.0 0.0 L 41.0 0.0 L 40.0 0.0 L 39.0 0.0 L 38.0 0.0 L 37.0 0.0 L 36.0 0.0 L 35.0 0.0 L 34.0 0.0 L 33.0 0.0 L 32.0 0.0 L 31.0 0.0 L 30.0 0.0 L 29.0 0.0 L 28.0 0.0 L 27.0 0.0 L 26.0 0.0 L 25.0 0.0 L 24.0 0.0 L 23.0 0.0 L 22.0 0.0 L 21.0 0.0 L 20.0 0.0 L 19.0 0.0 L 18.0 0.0 L 17.0 0.0 L 16.0 0.0 L 15.0 0.0 L 14.0 0.0 L 13.0 0.0 L 12.0 0.0 L 11.0 0.0 L 10.0 0.0 L 9.0 0.0 L 8.0 0.0 L 7.0 0.0 L 6.0 0.0 L 5.0 0.0 L 4.0 0.0 L 3.0 0.0 L 2.0 0.0 L 1.0 0.0 L 0.3333333333333333 0.3333333333333333 L 0.0 1.0 L 0.0 2.0 L 0.0 3.0 L 0.0 4.0 L 0.0 5.0 L 0.0 6.0 L 0.0 7.0 L 0.0 8.0 L 0.0 9.0 L 0.0 10.0 L 0.0 11.0 L 0.0 12.0 L 0.0 13.0 L 0.0 14.0 L 0.0 15.0 L 0.0 16.0 L 0.0 17.0 L 0.0 18.0 L 0.0 19.0 L 0.0 20.0 L 0.0 21.0 L 0.0 22.0 L 0.0 23.0 L 0.0 24.0 L 0.0 25.0 L 0.0 26.0 L 0.0 27.0 L 0.0 28.0 L 0.0 29.0 L 0.0 30.0 L 0.0 31.0 L 0.0 32.0 L 0.0 33.0 L 0.0 34.0 L 0.0 35.0 L 0.0 36.0 L 0.0 37.0 L 0.0 38.0 L 0.0 39.0 L 0.0 40.0 L 0.0 41.0 L 0.0 42.0 L 0.0 43.0 L 0.0 44.0 L 0.0 45.0 L 0.0 46.0 L 0.0 47.0 L 0.0 48.0 L 0.0 49.0 L 0.0 50.0 L 0.0 51.0 L 0.0 52.0 L 0.0 53.0 L 0.0 54.0 L 0.0 55.0 L 0.0 56.0 L 0.0 57.0 L 0.0 58.0 L 0.0 59.0 L 0.0 60.0 L 0.0 61.0 L 0.0 62.0 L 0.0 63.0 L 0.0 64.0 L 0.0 65.0 L 0.0 66.0 L 0.0 67.0 L 0.0 68.0 L 0.0 69.0 L 0.0 70.0 L 0.0 71.0 L 0.0 72.0 L 0.0 73.0 L 0.0 74.0 L 0.0 75.0 L 0.0 76.0 L 0.0 77.0 L 0.0 78.0 L 0.0 79.0 L 0.0 80.0 L 0.0 81.0 L 0.0 82.0 L 0.0 83.0 L 0.0 84.0 L 0.0 85.0 L 0.0 86.0 L 0.0 87.0 L 0.0 88.0 L 0.0 89.0 L 0.0 90.0 L 0.0 91.0 L 0.0 92.0 L 0.0 93.0 L 0.0 94.0 L 0.0 95.0 L 0.0 96.0 L 0.0 97.0 L 0.0 98.0 L 0.0 99.0 L 0.0 100.0 L 0.0 101.0 L 0.0 102.0 L 0.0 103.0 L 0.0 104.0 L 0.0 105.0 L 0.0 106.0 L 0.0 107.0 L 0.0 108.0 L 0.0 109.0 L 0.0 110.0 L 0.0 111.0 L 0.0 112.0 L 0.0 113.0 L 0.0 114.0 L 0.0 115.0 L 0.0 116.0 L 0.0 117.0 L 0.0 118.0 L 0.0 119.0 L 0.0 120.0 L 0.0 121.0 L 0.0 122.0 L 0.0 123.0 L 0.0 124.0 L 0.0 125.0 L 0.0 126.0 L 0.0 127.0 L 0.3333333333333333 127.66666666666667 L 1.0 128.0 L 2.0 128.0 L 3.0 128.0 L 4.0 128.0 L 5.0 128.0 L 6.0 128.0 L 7.0 128.0 L 8.0 128.0 L 9.0 128.0 L 10.0 128.0 L 11.0 128.0 L 12.0 128.0 L 13.0 128.0 L 14.0 128.0 L 15.0 128.0 L 16.0 128.0 L 17.0 128.0 L 18.0 128.0 L 19.0 128.0 L 20.0 128.0 L 21.0 128.0 L 22.0 128.0 L 23.0 128.0 L 24.0 128.0 L 25.0 128.0 L 25.5 128.0 Z" stroke="none" fill="rgb(255,255,255)" />
<path d="M 55.5 64.0 L 56.0 64.33333333333333 L 57.0 64.66666666666667 L 58.0 65.33333333333333 L 59.0 65.66666666666667 L 60.0 66.33333333333333 L 61.0 66.66666666666667 L 62.0 67.33333333333333 L 63.0 67.66666666666667 L 64.0 68.0 L 65.0 67.66666666666667 L 66.0 67.33333333333333 L 67.0 66.66666666666667 L 68.0 66.33333333333333 L 69.0 65.66666666666667 L 70.0 65.33333333333333 L 71.0 64.66666666666667 L 72.0 64.0 L 73.0 63.333333333333336 L 74.0 62.666666666666664 L 75.0 62.333333333333336 L 76.0 61.666666666666664 L 77.0 61.333333333333336 L 78.0 60.666666666666664 L 79.0 60.333333333333336 L 80.0 59.666666666666664 L 81.0 59.333333333333336 L 82.0 58.666666666666664 L 83.0 58.333333333333336 L 84.0 57.666666666666664 L 85.0 57.333333333333336 L 86.0 56.666666666666664 L 87.0 56.333333333333336 L 88.0 55.666666666666664 L 89.0 55.333333333333336 L 90.0 54.666666666666664 L 91.0 54.333333333333336 L 92.0 53.666666666666664 L 93.0 53.333333333333336 L 94.0 52.666666666666664 L 95.0 52.333333333333336 L 96.0 51.666666666666664 L 97.0 51.333333333333336 L 98.0 50.666666666666664 L 99.0 50.333333333333336 L 100.0 49.666666666666664 L 101.0 49.333333333333336 L 102.0 48.666666666666664 L 103.0 48.333333333333336 L 104.0 47.666666666666664 L 105.0 47.0 L 106.0 46.333333333333336 L 107.0 45.666666666666664 L 108.0 45.333333333333336 L 109.0 44.666666666666664 L 110.0 44.333333333333336 L 111.0 43.666666666666664 L 112.0 43.333333333333336 L 113.0 42.666666666666664 L 114.0 42.333333333333336 L 115.0 41.666666666666664 L 116.0 41.333333333333336 L 117.0 40.666666666666664 L 118.0 40.333333333333336 L 119.0 39.666666666666664 L 120.0 39.0 L 120.66666666666667 38.0 L 121.0 37.0 L 120.66666666666667 36.333333333333336 L 120.0 36.0 L 119.0 35.666666666666664 L 118.0 35.333333333333336 L 117.0 34.666666666666664 L 116.0 34.333333333333336 L 115.0 33.666666666666664 L 114.0 33.333333333333336 L 113.0 33.0 L 112.0 32.666666666666664 L 111.0 32.333333333333336 L 110.0 31.666666666666668 L 109.0 31.333333333333332 L 108.0 30.666666666666668 L 107.0 30.333333333333332 L 106.0 29.666666666666668 L 105.0 29.333333333333332 L 104.0 29.0 L 103.0 29.0 L 102.0 29.333333333333332 L 101.0 30.0 L 100.0 30.666666666666668 L 99.0 31.0 L 98.0 31.0 L 97.0 31.333333333333332 L 96.0 31.666666666666668 L 95.0 32.333333333333336 L 94.0 32.666666666666664 L 93.0 33.333333333333336 L 92.0 33.666666666666664 L 91.0 34.333333333333336 L 90.0 34.666666666666664 L 89.0 35.333333333333336 L 88.0 35.666666666666664 L 87.0 36.333333333333336 L 86.0 36.666666666666664 L 85.0 37.333333333333336 L 84.0 38.0 L 83.0 38.666666666666664 L 82.0 39.333333333333336 L 81.0 40.0 L 80.33333333333333 41.0 L 80.0 42.0 L 79.66666666666667 43.0 L 79.0 44.0 L 78.0 44.666666666666664 L 77.0 45.333333333333336 L 76.0 45.666666666666664 L 75.0 46.0 L 74.0 45.666666666666664 L 73.0 45.333333333333336 L 72.0 44.666666666666664 L 71.0 44.333333333333336 L 70.0 43.666666666666664 L 69.0 43.333333333333336 L 68.0 42.666666666666664 L 67.0 42.333333333333336 L 66.0 41.666666666666664 L 65.0 41.333333333333336 L 64.0 40.666666666666664 L 63.0 40.333333333333336 L 62.0 39.666666666666664 L 61.0 39.333333333333336 L 60.0 38.666666666666664 L 59.0 38.333333333333336 L 58.0 37.666666666666664 L 57.0 37.333333333333336 L 56.0 36.666666666666664 L 55.0 36.333333333333336 L 54.0 35.666666666666664 L 53.0 35.333333333333336 L 52.0 34.666666666666664 L 51.0 34.333333333333336 L 50.0 33.666666666666664 L 49.0 33.0 L 48.0 32.333333333333336 L 47.0 31.666666666666668 L 46.666666666666664 31.0 L 47.0 30.333333333333332 L 48.0 30.0 L 49.0 29.666666666666668 L 50.0 29.0 L 50.666666666666664 28.0 L 51.333333333333336 27.0 L 52.0 26.0 L 53.0 25.0 L 53.666666666666664 24.0 L 54.333333333333336 23.0 L 55.0 22.0 L 56.0 21.0 L 57.0 20.0 L 58.0 19.0 L 59.0 18.0 L 59.666666666666664 17.0 L 60.333333333333336 16.0 L 61.0 15.0 L 62.0 14.0 L 62.666666666666664 13.0 L 63.0 12.0 L 62.666666666666664 11.333333333333334 L 62.0 10.666666666666666 L 61.0 10.333333333333334 L 60.0 10.0 L 59.0 10.0 L 58.0 10.333333333333334 L 57.0 10.666666666666666 L 56.0 11.333333333333334 L 55.0 12.0 L 54.0 12.666666666666666 L 53.0 13.333333333333334 L 52.0 13.666666666666666 L 51.0 14.333333333333334 L 50.0 14.666666666666666 L 49.0 15.333333333333334 L 48.0 15.666666666666666 L 47.0 16.333333333333332 L 46.0 16.666666666666668 L 45.0 17.333333333333332 L 44.0 17.666666666666668 L 43.0 18.333333333333332 L 42.0 18.666666666666668 L 41.0 19.333333333333332 L 40.0 19.666666666666668 L 39.0 20.333333333333332 L 38.0 21.0 L 37.0 21.666666666666668 L 36.0 22.333333333333332 L 35.0 22.666666666666668 L 34.0 23.333333333333332 L 33.0 23.666666666666668 L 32.0 24.333333333333332 L 31.0 24.666666666666668 L 30.0 25.333333333333332 L 29.0 25.666666666666668 L 28.0 26.333333333333332 L 27.0 26.666666666666668 L 26.0 27.333333333333332 L 25.0 27.666666666666668 L 24.0 28.333333333333332 L 23.0 28.666666666666668 L 22.0 29.333333333333332 L 21.0 29.666666666666668 L 20.0 30.333333333333332 L 19.0 31.0 L 18.0 31.666666666666668 L 17.0 32.333333333333336 L 16.0 32.666666666666664 L 15.0 33.333333333333336 L 14.0 33.666666666666664 L 13.0 34.333333333333336 L 12.0 34.666666666666664 L 11.0 35.333333333333336 L 10.0 35.666666666666664 L 9.0 36.333333333333336 L 8.0 36.666666666666664 L 7.0 37.333333333333336 L 6.0 37.666666666666664 L 5.333333333333333 38.333333333333336 L 5.0 39.0 L 5.333333333333333 40.0 L 6.0 40.666666666666664 L 7.0 41.333333333333336 L 8.0 41.666666666666664 L 9.0 42.333333333333336 L 10.0 42.666666666666664 L 11.0 43.333333333333336 L 12.0 43.666666666666664 L 13.0 44.333333333333336 L 14.0 44.666666666666664 L 15.0 45.333333333333336 L 16.0 45.666666666666664 L 17.0 46.333333333333336 L 18.0 46.666666666666664 L 19.0 47.333333333333336 L 20.0 47.666666666666664 L 21.0 48.0 L 22.0 48.333333333333336 L 23.0 48.666666666666664 L 24.0 49.333333333333336 L 25.0 49.666666666666664 L 26.0 50.333333333333336 L 27.0 50.666666666666664 L 28.0 51.333333333333336 L 29.0 51.666666666666664 L 30.0 52.333333333333336 L 31.0 52.666666666666664 L 32.0 53.333333333333336 L 33.0 53.666666666666664 L 34.0 54.333333333333336 L 35.0 54.666666666666664 L 36.0 55.333333333333336 L 37.0 55.666666666666664 L 38.0 56.0 L 39.0 56.333333333333336 L 40.0 56.666666666666664 L 41.0 57.333333333333336 L 42.0 57.666666666666664 L 43.0 58.333333333333336 L 44.0 58.666666666666664 L 45.0 59.333333333333336 L 46.0 59.666666666666664 L 47.0 60.333333333333336 L 48.0 60.666666666666664 L 49.0 61.333333333333336 L 50.0 61.666666666666664 L 51.0 62.333333333333336 L 52.0 62.666666666666664 L 53.0 63.333333333333336 L 54.0 63.666666666666664 L 54.5 64.0 Z" stroke="none" fill="rgb(3,155,229)" />
<path d="M 95.5 109.5 L 96.0 109.33333333333333 L 97.0 108.66666666666667 L 98.0 108.33333333333333 L 99.0 107.66666666666667 L 100.0 107.33333333333333 L 101.0 106.66666666666667 L 102.0 106.33333333333333 L 103.0 105.66666666666667 L 104.0 105.33333333333333 L 105.0 104.66666666666667 L 106.0 104.33333333333333 L 107.0 103.66666666666667 L 108.0 103.0 L 109.0 102.33333333333333 L 110.0 101.66666666666667 L 111.0 101.33333333333333 L 112.0 100.66666666666667 L 113.0 100.33333333333333 L 114.0 99.66666666666667 L 115.0 99.33333333333333 L 116.0 98.66666666666667 L 117.0 98.33333333333333 L 118.0 97.66666666666667 L 119.0 97.33333333333333 L 120.0 96.66666666666667 L 121.0 96.33333333333333 L 122.0 95.66666666666667 L 123.0 95.33333333333333 L 123.66666666666667 94.66666666666667 L 124.0 94.0 L 124.0 93.0 L 124.0 92.0 L 124.0 91.0 L 124.0 90.0 L 124.0 89.0 L 124.0 88.0 L 124.0 87.0 L 124.0 86.0 L 124.0 85.0 L 124.0 84.0 L 124.0 83.0 L 124.0 82.0 L 124.0 81.0 L 124.0 80.0 L 124.0 79.0 L 124.0 78.0 L 124.0 77.0 L 124.0 76.0 L 124.0 75.0 L 124.0 74.0 L 124.0 73.0 L 124.0 72.0 L 124.0 71.0 L 124.0 70.0 L 124.0 69.0 L 124.0 68.0 L 124.0 67.0 L 124.0 66.0 L 124.0 65.0 L 124.0 64.0 L 124.0 63.0 L 124.0 62.0 L 124.0 61.0 L 124.0 60.0 L 124.0 59.0 L 124.0 58.0 L 124.0 57.0 L 124.0 56.0 L 124.0 55.0 L 124.0 54.0 L 124.0 53.0 L 124.0 52.0 L 124.0 51.0 L 124.0 50.0 L 124.0 49.0 L 123.66666666666667 48.333333333333336 L 123.0 48.0 L 122.0 48.0 L 121.0 48.333333333333336 L 120.0 48.666666666666664 L 119.0 49.333333333333336 L 118.0 49.666666666666664 L 117.0 50.333333333333336 L 116.0 50.666666666666664 L 115.0 51.333333333333336 L 114.0 51.666666666666664 L 113.0 52.333333333333336 L 112.0 52.666666666666664 L 111.0 53.333333333333336 L 110.0 53.666666666666664 L 109.0 54.333333333333336 L 108.0 54.666666666666664 L 107.0 55.333333333333336 L 106.0 55.666666666666664 L 105.0 56.333333333333336 L 104.0 56.666666666666664 L 103.0 57.333333333333336 L 102.0 57.666666666666664 L 101.0 58.333333333333336 L 100.0 58.666666666666664 L 99.0 59.333333333333336 L 98.0 59.666666666666664 L 97.0 60.333333333333336 L 96.0 61.0 L 95.0 61.666666666666664 L 94.0 62.333333333333336 L 93.0 62.666666666666664 L 92.0 63.333333333333336 L 91.0 63.666666666666664 L 90.0 64.33333333333333 L 89.0 64.66666666666667 L 88.0 65.33333333333333 L 87.0 65.66666666666667 L 86.0 66.33333333333333 L 85.0 66.66666666666667 L 84.0 67.33333333333333 L 83.0 67.66666666666667 L 82.0 68.33333333333333 L 81.0 68.66666666666667 L 80.0 69.33333333333333 L 79.0 69.66666666666667 L 78.0 70.33333333333333 L 77.0 70.66666666666667 L 76.0 71.33333333333333 L 75.0 71.66666666666667 L 74.0 72.33333333333333 L 73.0 72.66666666666667 L 72.0 73.33333333333333 L 71.0 73.66666666666667 L 70.0 74.33333333333333 L 69.0 74.66666666666667 L 68.0 75.33333333333333 L 67.0 75.66666666666667 L 66.0 76.33333333333333 L 65.0 76.66666666666667 L 64.33333333333333 77.33333333333333 L 64.0 78.0 L 64.0 79.0 L 64.0 80.0 L 64.0 81.0 L 64.0 82.0 L 64.0 83.0 L 64.0 84.0 L 64.0 85.0 L 64.0 86.0 L 64.0 87.0 L 64.0 88.0 L 64.0 89.0 L 64.0 90.0 L 64.0 91.0 L 64.0 92.0 L 64.0 93.0 L 64.0 94.0 L 64.0 95.0 L 64.0 96.0 L 64.0 97.0 L 64.0 98.0 L 64.0 99.0 L 64.0 100.0 L 64.0 101.0 L 64.0 102.0 L 64.0 103.0 L 64.0 104.0 L 64.0 105.0 L 64.0 106.0 L 64.0 107.0 L 64.0 108.0 L 64.0 109.0 L 64.0 110.0 L 64.0 111.0 L 64.0 112.0 L 64.0 113.0 L 64.0 114.0 L 64.0 115.0 L 64.0 116.0 L 64.0 117.0 L 64.0 118.0 L 64.0 119.0 L 64.0 120.0 L 64.0 121.0 L 64.0 122.0 L 64.33333333333333 123.0 L 65.0 123.66666666666667 L 66.0 124.0 L 67.0 124.0 L 68.0 123.66666666666667 L 69.0 123.33333333333333 L 70.0 122.66666666666667 L 71.0 122.33333333333333 L 72.0 121.66666666666667 L 73.0 121.33333333333333 L 74.0 120.66666666666667 L 75.0 120.33333333333333 L 76.0 119.66666666666667 L 77.0 119.0 L 78.0 118.33333333333333 L 79.0 117.66666666666667 L 80.0 117.33333333333333 L 81.0 116.66666666666667 L 82.0 116.33333333333333 L 83.0 115.66666666666667 L 84.0 115.33333333333333 L 85.0 114.66666666666667 L 86.0 114.33333333333333 L 87.0 113.66666666666667 L 88.0 113.33333333333333 L 89.0 112.66666666666667 L 90.0 112.33333333333333 L 91.0 111.66666666666667 L 92.0 111.33333333333333 L 93.0 110.66666666666667 L 94.0 110.33333333333333 L 94.5 110.0 Z" stroke="none" fill="rgb(13,71,161)" />
<path d="M 33.5 110.0 L 34.0 110.33333333333333 L 35.0 110.66666666666667 L 36.0 111.33333333333333 L 37.0 111.66666666666667 L 38.0 112.33333333333333 L 39.0 112.66666666666667 L 40.0 113.33333333333333 L 41.0 113.66666666666667 L 42.0 114.33333333333333 L 43.0 114.66666666666667 L 44.0 115.33333333333333 L 45.0 115.66666666666667 L 46.0 116.33333333333333 L 47.0 116.66666666666667 L 48.0 117.33333333333333 L 49.0 117.66666666666667 L 50.0 118.33333333333333 L 51.0 118.66666666666667 L 52.0 119.33333333333333 L 53.0 119.66666666666667 L 54.0 120.33333333333333 L 55.0 120.66666666666667 L 56.0 121.33333333333333 L 57.0 121.66666666666667 L 58.0 122.33333333333333 L 59.0 122.66666666666667 L 60.0 123.33333333333333 L 61.0 123.66666666666667 L 62.0 124.0 L 63.0 124.0 L 64.0 124.0 L 64.66666666666667 123.66666666666667 L 64.66666666666667 123.0 L 64.33333333333333 122.0 L 64.0 121.0 L 64.0 120.0 L 64.0 119.0 L 64.0 118.0 L 64.0 117.0 L 64.0 116.0 L 64.0 115.0 L 64.0 114.0 L 64.0 113.0 L 64.0 112.0 L 64.0 111.0 L 64.0 110.0 L 64.0 109.0 L 64.0 108.0 L 64.0 107.0 L 64.0 106.0 L 64.0 105.0 L 64.0 104.0 L 64.0 103.0 L 64.0 102.0 L 64.0 101.0 L 64.0 100.0 L 64.0 99.0 L 64.0 98.0 L 64.0 97.0 L 64.0 96.0 L 64.0 95.0 L 64.0 94.0 L 64.0 93.0 L 64.0 92.0 L 64.0 91.0 L 64.0 90.0 L 64.0 89.0 L 64.0 88.0 L 64.0 87.0 L 64.0 86.0 L 64.0 85.0 L 64.0 84.0 L 64.0 83.0 L 64.0 82.0 L 64.0 81.0 L 64.0 80.0 L 64.0 79.0 L 63.666666666666664 78.0 L 63.0 77.0 L 62.0 76.33333333333333 L 61.0 75.66666666666667 L 60.0 75.33333333333333 L 59.0 74.66666666666667 L 58.0 74.33333333333333 L 57.0 73.66666666666667 L 56.0 73.33333333333333 L 55.0 72.66666666666667 L 54.0 72.33333333333333 L 53.0 72.0 L 52.0 71.66666666666667 L 51.0 71.33333333333333 L 50.0 70.66666666666667 L 49.0 70.33333333333333 L 48.0 69.66666666666667 L 47.0 69.33333333333333 L 46.0 68.66666666666667 L 45.0 68.33333333333333 L 44.0 67.66666666666667 L 43.0 67.33333333333333 L 42.0 66.66666666666667 L 41.0 66.33333333333333 L 40.0 65.66666666666667 L 39.0 65.33333333333333 L 38.0 64.66666666666667 L 37.0 64.33333333333333 L 36.0 64.0 L 35.0 63.666666666666664 L 34.0 63.333333333333336 L 33.0 62.666666666666664 L 32.0 62.333333333333336 L 31.0 61.666666666666664 L 30.0 61.333333333333336 L 29.0 60.666666666666664 L 28.0 60.333333333333336 L 27.0 59.666666666666664 L 26.0 59.333333333333336 L 25.0 58.666666666666664 L 24.0 58.333333333333336 L 23.0 57.666666666666664 L 22.0 57.333333333333336 L 21.0 56.666666666666664 L 20.0 56.333333333333336 L 19.0 56.0 L 18.0 55.666666666666664 L 17.0 55.333333333333336 L 16.0 54.666666666666664 L 15.0 54.333333333333336 L 14.0 53.666666666666664 L 13.0 53.333333333333336 L 12.0 52.666666666666664 L 11.0 52.333333333333336 L 10.0 51.666666666666664 L 9.0 51.333333333333336 L 8.0 50.666666666666664 L 7.0 50.333333333333336 L 6.0 50.0 L 5.0 50.0 L 4.333333333333333 50.333333333333336 L 4.0 51.0 L 4.0 52.0 L 4.0 53.0 L 4.0 54.0 L 4.0 55.0 L 4.0 56.0 L 4.0 57.0 L 4.0 58.0 L 4.0 59.0 L 4.0 60.0 L 4.0 61.0 L 4.0 62.0 L 4.0 63.0 L 4.0 64.0 L 4.0 65.0 L 4.0 66.0 L 4.0 67.0 L 4.0 68.0 L 4.0 69.0 L 4.0 70.0 L 4.0 71.0 L 4.0 72.0 L 4.0 73.0 L 4.0 74.0 L 4.0 75.0 L 4.0 76.0 L 4.0 77.0 L 4.0 78.0 L 4.0 79.0 L 4.0 80.0 L 4.0 81.0 L 4.0 82.0 L 4.0 83.0 L 4.0 84.0 L 4.0 85.0 L 4.0 86.0 L 4.0 87.0 L 4.0 88.0 L 4.0 89.0 L 4.0 90.0 L 4.0 91.0 L 4.0 92.0 L 4.0 93.0 L 4.0 94.0 L 4.333333333333333 94.66666666666667 L 5.0 95.33333333333333 L 6.0 95.66666666666667 L 7.0 96.33333333333333 L 8.0 96.66666666666667 L 9.0 97.33333333333333 L 10.0 97.66666666666667 L 11.0 98.33333333333333 L 12.0 98.66666666666667 L 13.0 99.33333333333333 L 14.0 99.66666666666667 L 15.0 100.33333333333333 L 16.0 101.0 L 17.0 101.66666666666667 L 18.0 102.33333333333333 L 19.0 102.66666666666667 L 20.0 103.33333333333333 L 21.0 103.66666666666667 L 22.0 104.33333333333333 L 23.0 104.66666666666667 L 24.0 105.33333333333333 L 25.0 105.66666666666667 L 26.0 106.33333333333333 L 27.0 106.66666666666667 L 28.0 107.33333333333333 L 29.0 107.66666666666667 L 30.0 108.33333333333333 L 31.0 108.66666666666667 L 32.0 109.33333333333333 L 32.5 109.5 Z" stroke="none" fill="rgb(25,118,210)" />
<path d="M 88.5 27.5 L 89.0 27.333333333333332 L 90.0 26.666666666666668 L 91.0 26.0 L 92.0 25.0 L 93.0 24.0 L 94.0 23.0 L 95.0 22.0 L 96.0 21.0 L 97.0 20.333333333333332 L 98.0 19.666666666666668 L 99.0 19.0 L 99.66666666666667 18.0 L 100.0 17.0 L 100.0 16.0 L 99.66666666666667 15.0 L 99.0 14.333333333333334 L 98.0 13.666666666666666 L 97.0 13.333333333333334 L 96.0 12.666666666666666 L 95.0 12.333333333333334 L 94.0 11.666666666666666 L 93.0 11.333333333333334 L 92.0 10.666666666666666 L 91.0 10.333333333333334 L 90.0 9.666666666666666 L 89.0 9.333333333333334 L 88.0 8.666666666666666 L 87.0 8.333333333333334 L 86.0 7.666666666666667 L 85.0 7.333333333333333 L 84.0 6.666666666666667 L 83.0 6.0 L 82.0 5.333333333333333 L 81.0 4.666666666666667 L 80.0 4.333333333333333 L 79.0 4.0 L 78.0 4.0 L 77.0 4.0 L 76.0 4.0 L 75.0 4.0 L 74.0 4.333333333333333 L 73.0 4.666666666666667 L 72.0 5.333333333333333 L 71.0 5.666666666666667 L 70.0 6.333333333333333 L 69.0 7.0 L 68.0 8.0 L 67.0 8.666666666666666 L 66.0 9.333333333333334 L 65.0 10.0 L 64.0 11.0 L 63.0 12.0 L 62.0 13.0 L 61.0 14.0 L 60.333333333333336 15.0 L 59.666666666666664 16.0 L 59.0 17.0 L 58.0 18.0 L 57.0 19.0 L 56.0 20.0 L 55.0 21.0 L 54.333333333333336 22.0 L 53.666666666666664 23.0 L 53.0 24.0 L 52.0 25.0 L 51.333333333333336 26.0 L 50.666666666666664 27.0 L 50.0 28.0 L 49.0 29.0 L 48.333333333333336 30.0 L 48.0 31.0 L 48.0 32.0 L 48.333333333333336 33.0 L 49.0 33.666666666666664 L 50.0 34.333333333333336 L 51.0 34.666666666666664 L 52.0 35.333333333333336 L 53.0 35.666666666666664 L 54.0 36.333333333333336 L 55.0 36.666666666666664 L 56.0 37.333333333333336 L 57.0 37.666666666666664 L 58.0 38.333333333333336 L 59.0 38.666666666666664 L 60.0 39.333333333333336 L 61.0 39.666666666666664 L 62.0 40.333333333333336 L 63.0 40.666666666666664 L 64.0 41.333333333333336 L 65.0 41.666666666666664 L 66.0 42.333333333333336 L 67.0 42.666666666666664 L 68.0 43.333333333333336 L 69.0 43.666666666666664 L 70.0 44.333333333333336 L 71.0 44.666666666666664 L 72.0 45.0 L 73.0 44.666666666666664 L 74.0 44.0 L 75.0 43.333333333333336 L 75.66666666666667 42.666666666666664 L 76.0 42.0 L 76.33333333333333 41.0 L 77.0 40.0 L 77.66666666666667 39.0 L 78.33333333333333 38.0 L 79.0 37.0 L 80.0 36.0 L 81.0 35.0 L 82.0 34.0 L 83.0 33.0 L 84.0 32.0 L 85.0 31.0 L 86.0 30.0 L 87.0 29.0 L 87.5 28.5 Z" stroke="none" fill="rgb(223,236,245)" />
<path d="M 105.5 54.0 L 106.0 53.666666666666664 L 107.0 53.333333333333336 L 108.0 52.666666666666664 L 109.0 52.333333333333336 L 110.0 51.666666666666664 L 111.0 51.333333333333336 L 112.0 50.666666666666664 L 113.0 50.333333333333336 L 114.0 49.666666666666664 L 115.0 49.333333333333336 L 116.0 48.666666666666664 L 117.0 48.0 L 118.0 47.333333333333336 L 119.0 46.666666666666664 L 120.0 46.333333333333336 L 121.0 45.666666666666664 L 122.0 45.333333333333336 L 123.0 45.0 L 123.66666666666667 44.666666666666664 L 124.0 44.0 L 124.0 43.0 L 124.0 42.0 L 124.0 41.0 L 124.0 40.0 L 124.0 39.0 L 123.66666666666667 38.0 L 123.0 37.333333333333336 L 122.0 37.0 L 121.0 37.333333333333336 L 120.0 38.0 L 119.0 39.0 L 118.0 39.666666666666664 L 117.0 40.333333333333336 L 116.0 40.666666666666664 L 115.0 41.333333333333336 L 114.0 41.666666666666664 L 113.0 42.333333333333336 L 112.0 42.666666666666664 L 111.0 43.333333333333336 L 110.0 43.666666666666664 L 109.0 44.333333333333336 L 108.0 44.666666666666664 L 107.0 45.333333333333336 L 106.0 45.666666666666664 L 105.0 46.333333333333336 L 104.0 47.0 L 103.0 47.666666666666664 L 102.0 48.333333333333336 L 101.0 48.666666666666664 L 100.0 49.333333333333336 L 99.0 49.666666666666664 L 98.0 50.333333333333336 L 97.0 50.666666666666664 L 96.0 51.333333333333336 L 95.0 51.666666666666664 L 94.0 52.333333333333336 L 93.0 52.666666666666664 L 92.0 53.333333333333336 L 91.0 53.666666666666664 L 90.0 54.333333333333336 L 89.0 54.666666666666664 L 88.0 55.333333333333336 L 87.0 55.666666666666664 L 86.0 56.333333333333336 L 85.0 56.666666666666664 L 84.0 57.333333333333336 L 83.0 57.666666666666664 L 82.0 58.333333333333336 L 81.0 58.666666666666664 L 80.0 59.333333333333336 L 79.0 59.666666666666664 L 78.0 60.333333333333336 L 77.0 60.666666666666664 L 76.0 61.333333333333336 L 75.0 61.666666666666664 L 74.0 62.333333333333336 L 73.0 62.666666666666664 L 72.0 63.333333333333336 L 71.0 64.0 L 70.0 64.66666666666667 L 69.0 65.33333333333333 L 68.0 65.66666666666667 L 67.0 66.33333333333333 L 66.0 66.66666666666667 L 65.0 67.33333333333333 L 64.33333333333333 68.0 L 64.0 69.0 L 64.0 70.0 L 64.0 71.0 L 64.0 72.0 L 64.0 73.0 L 64.33333333333333 73.66666666666667 L 65.0 74.0 L 66.0 74.0 L 67.0 73.66666666666667 L 68.0 73.33333333333333 L 69.0 72.66666666666667 L 70.0 72.33333333333333 L 71.0 71.66666666666667 L 72.0 71.33333333333333 L 73.0 70.66666666666667 L 74.0 70.33333333333333 L 75.0 69.66666666666667 L 76.0 69.33333333333333 L 77.0 68.66666666666667 L 78.0 68.33333333333333 L 79.0 67.66666666666667 L 80.0 67.0 L 81.0 66.33333333333333 L 82.0 65.66666666666667 L 83.0 65.33333333333333 L 84.0 64.66666666666667 L 85.0 64.33333333333333 L 86.0 63.666666666666664 L 87.0 63.333333333333336 L 88.0 62.666666666666664 L 89.0 62.333333333333336 L 90.0 61.666666666666664 L 91.0 61.333333333333336 L 92.0 60.666666666666664 L 93.0 60.333333333333336 L 94.0 59.666666666666664 L 95.0 59.333333333333336 L 96.0 58.666666666666664 L 97.0 58.333333333333336 L 98.0 57.666666666666664 L 99.0 57.333333333333336 L 100.0 56.666666666666664 L 101.0 56.333333333333336 L 102.0 55.666666666666664 L 103.0 55.333333333333336 L 104.0 54.666666666666664 L 104.5 54.5 Z" stroke="none" fill="rgb(13,71,161)" />
<path d="M 23.5 56.0 L 24.0 56.333333333333336 L 25.0 56.666666666666664 L 26.0 57.333333333333336 L 27.0 57.666666666666664 L 28.0 58.333333333333336 L 29.0 58.666666666666664 L 30.0 59.333333333333336 L 31.0 59.666666666666664 L 32.0 60.333333333333336 L 33.0 60.666666666666664 L 34.0 61.0 L 35.0 61.333333333333336 L 36.0 61.666666666666664 L 37.0 62.333333333333336 L 38.0 62.666666666666664 L 39.0 63.333333333333336 L 40.0 63.666666666666664 L 41.0 64.33333333333333 L 42.0 64.66666666666667 L 43.0 65.33333333333333 L 44.0 65.66666666666667 L 45.0 66.33333333333333 L 46.0 66.66666666666667 L 47.0 67.33333333333333 L 48.0 67.66666666666667 L 49.0 68.0 L 50.0 68.33333333333333 L 51.0 68.66666666666667 L 52.0 69.33333333333333 L 53.0 69.66666666666667 L 54.0 70.33333333333333 L 55.0 70.66666666666667 L 56.0 71.33333333333333 L 57.0 71.66666666666667 L 58.0 72.33333333333333 L 59.0 72.66666666666667 L 60.0 73.33333333333333 L 61.0 73.66666666666667 L 62.0 74.0 L 63.0 74.0 L 63.666666666666664 73.66666666666667 L 64.0 73.0 L 64.0 72.0 L 64.0 71.0 L 64.0 70.0 L 64.0 69.0 L 63.666666666666664 68.0 L 63.0 67.33333333333333 L 62.0 66.66666666666667 L 61.0 66.33333333333333 L 60.0 65.66666666666667 L 59.0 65.33333333333333 L 58.0 64.66666666666667 L 57.0 64.33333333333333 L 56.0 64.0 L 55.0 63.666666666666664 L 54.0 63.333333333333336 L 53.0 62.666666666666664 L 52.0 62.333333333333336 L 51.0 61.666666666666664 L 50.0 61.333333333333336 L 49.0 60.666666666666664 L 48.0 60.333333333333336 L 47.0 59.666666666666664 L 46.0 59.333333333333336 L 45.0 58.666666666666664 L 44.0 58.333333333333336 L 43.0 57.666666666666664 L 42.0 57.333333333333336 L 41.0 56.666666666666664 L 40.0 56.333333333333336 L 39.0 56.0 L 38.0 55.666666666666664 L 37.0 55.333333333333336 L 36.0 54.666666666666664 L 35.0 54.333333333333336 L 34.0 53.666666666666664 L 33.0 53.333333333333336 L 32.0 52.666666666666664 L 31.0 52.333333333333336 L 30.0 51.666666666666664 L 29.0 51.333333333333336 L 28.0 50.666666666666664 L 27.0 50.333333333333336 L 26.0 49.666666666666664 L 25.0 49.333333333333336 L 24.0 48.666666666666664 L 23.0 48.333333333333336 L 22.0 48.0 L 21.0 47.666666666666664 L 20.0 47.333333333333336 L 19.0 46.666666666666664 L 18.0 46.333333333333336 L 17.0 45.666666666666664 L 16.0 45.333333333333336 L 15.0 44.666666666666664 L 14.0 44.333333333333336 L 13.0 43.666666666666664 L 12.0 43.333333333333336 L 11.0 42.666666666666664 L 10.0 42.333333333333336 L 9.0 41.666666666666664 L 8.0 41.333333333333336 L 7.0 40.666666666666664 L 6.0 40.333333333333336 L 5.0 40.333333333333336 L 4.333333333333333 41.0 L 4.0 42.0 L 4.0 43.0 L 4.0 44.0 L 4.0 45.0 L 4.333333333333333 46.0 L 5.0 47.0 L 6.0 47.666666666666664 L 7.0 48.333333333333336 L 8.0 48.666666666666664 L 9.0 49.333333333333336 L 10.0 49.666666666666664 L 11.0 50.333333333333336 L 12.0 50.666666666666664 L 13.0 51.333333333333336 L 14.0 51.666666666666664 L 15.0 52.333333333333336 L 16.0 52.666666666666664 L 17.0 53.0 L 18.0 53.333333333333336 L 19.0 53.666666666666664 L 20.0 54.333333333333336 L 21.0 54.666666666666664 L 22.0 55.333333333333336 L 22.5 55.5 Z" stroke="none" fill="rgb(25,118,210)" />
<path d="M 73.5 73.0 L 74.0 72.66666666666667 L 75.0 72.33333333333333 L 76.0 71.66666666666667 L 77.0 71.33333333333333 L 78.0 70.66666666666667 L 79.0 70.33333333333333 L 80.0 69.66666666666667 L 81.0 69.33333333333333 L 82.0 68.66666666666667 L 83.0 68.33333333333333 L 84.0 67.66666666666667 L 85.0 67.33333333333333 L 86.0 66.66666666666667 L 87.0 66.33333333333333 L 88.0 65.66666666666667 L 89.0 65.33333333333333 L 90.0 64.66666666666667 L 91.0 64.33333333333333 L 92.0 63.666666666666664 L 93.0 63.333333333333336 L 94.0 62.666666666666664 L 95.0 62.333333333333336 L 96.0 61.666666666666664 L 97.0 61.0 L 98.0 60.333333333333336 L 99.0 59.666666666666664 L 100.0 59.333333333333336 L 101.0 58.666666666666664 L 102.0 58.333333333333336 L 103.0 57.666666666666664 L 104.0 57.333333333333336 L 105.0 56.666666666666664 L 106.0 56.333333333333336 L 107.0 55.666666666666664 L 108.0 55.333333333333336 L 109.0 54.666666666666664 L 110.0 54.333333333333336 L 111.0 53.666666666666664 L 112.0 53.333333333333336 L 113.0 52.666666666666664 L 114.0 52.333333333333336 L 115.0 51.666666666666664 L 116.0 51.333333333333336 L 117.0 50.666666666666664 L 118.0 50.333333333333336 L 119.0 49.666666666666664 L 120.0 49.333333333333336 L 121.0 48.666666666666664 L 122.0 48.333333333333336 L 123.0 48.0 L 123.66666666666667 47.666666666666664 L 124.0 47.0 L 124.0 46.0 L 123.66666666666667 45.333333333333336 L 123.0 45.0 L 122.0 45.0 L 121.0 45.333333333333336 L 120.0 45.666666666666664 L 119.0 46.333333333333336 L 118.0 46.666666666666664 L 117.0 47.333333333333336 L 116.0 48.0 L 115.0 48.666666666666664 L 114.0 49.333333333333336 L 113.0 49.666666666666664 L 112.0 50.333333333333336 L 111.0 50.666666666666664 L 110.0 51.333333333333336 L 109.0 51.666666666666664 L 108.0 52.333333333333336 L 107.0 52.666666666666664 L 106.0 53.333333333333336 L 105.0 53.666666666666664 L 104.0 54.333333333333336 L 103.0 54.666666666666664 L 102.0 55.333333333333336 L 101.0 55.666666666666664 L 100.0 56.333333333333336 L 99.0 56.666666666666664 L 98.0 57.333333333333336 L 97.0 57.666666666666664 L 96.0 58.333333333333336 L 95.0 58.666666666666664 L 94.0 59.333333333333336 L 93.0 59.666666666666664 L 92.0 60.333333333333336 L 91.0 60.666666666666664 L 90.0 61.333333333333336 L 89.0 61.666666666666664 L 88.0 62.333333333333336 L 87.0 62.666666666666664 L 86.0 63.333333333333336 L 85.0 63.666666666666664 L 84.0 64.33333333333333 L 83.0 64.66666666666667 L 82.0 65.33333333333333 L 81.0 65.66666666666667 L 80.0 66.33333333333333 L 79.0 67.0 L 78.0 67.66666666666667 L 77.0 68.33333333333333 L 76.0 68.66666666666667 L 75.0 69.33333333333333 L 74.0 69.66666666666667 L 73.0 70.33333333333333 L 72.0 70.66666666666667 L 71.0 71.33333333333333 L 70.0 71.66666666666667 L 69.0 72.33333333333333 L 68.0 72.66666666666667 L 67.0 73.33333333333333 L 66.0 73.66666666666667 L 65.0 74.0 L 64.33333333333333 74.33333333333333 L 64.0 75.0 L 64.0 76.0 L 64.33333333333333 76.66666666666667 L 65.0 77.0 L 66.0 76.66666666666667 L 67.0 76.33333333333333 L 68.0 75.66666666666667 L 69.0 75.33333333333333 L 70.0 74.66666666666667 L 71.0 74.33333333333333 L 72.0 73.66666666666667 L 72.5 73.5 Z" stroke="none" fill="rgb(10,50,97)" />
<path d="M 39.5 66.0 L 40.0 66.33333333333333 L 41.0 66.66666666666667 L 42.0 67.33333333333333 L 43.0 67.66666666666667 L 44.0 68.33333333333333 L 45.0 68.66666666666667 L 46.0 69.33333333333333 L 47.0 69.66666666666667 L 48.0 70.33333333333333 L 49.0 70.66666666666667 L 50.0 71.33333333333333 L 51.0 71.66666666666667 L 52.0 72.0 L 53.0 72.33333333333333 L 54.0 72.66666666666667 L 55.0 73.33333333333333 L 56.0 73.66666666666667 L 57.0 74.33333333333333 L 58.0 74.66666666666667 L 59.0 75.33333333333333 L 60.0 75.66666666666667 L 61.0 76.33333333333333 L 62.0 77.0 L 63.0 77.66666666666667 L 63.666666666666664 77.66666666666667 L 64.0 77.0 L 64.0 76.0 L 64.0 75.0 L 63.666666666666664 74.33333333333333 L 63.0 74.0 L 62.0 73.66666666666667 L 61.0 73.33333333333333 L 60.0 72.66666666666667 L 59.0 72.33333333333333 L 58.0 71.66666666666667 L 57.0 71.33333333333333 L 56.0 70.66666666666667 L 55.0 70.33333333333333 L 54.0 69.66666666666667 L 53.0 69.33333333333333 L 52.0 68.66666666666667 L 51.0 68.33333333333333 L 50.0 68.0 L 49.0 67.66666666666667 L 48.0 67.33333333333333 L 47.0 66.66666666666667 L 46.0 66.33333333333333 L 45.0 65.66666666666667 L 44.0 65.33333333333333 L 43.0 64.66666666666667 L 42.0 64.33333333333333 L 41.0 63.666666666666664 L 40.0 63.333333333333336 L 39.0 62.666666666666664 L 38.0 62.333333333333336 L 37.0 61.666666666666664 L 36.0 61.333333333333336 L 35.0 61.0 L 34.0 60.666666666666664 L 33.0 60.333333333333336 L 32.0 59.666666666666664 L 31.0 59.333333333333336 L 30.0 58.666666666666664 L 29.0 58.333333333333336 L 28.0 57.666666666666664 L 27.0 57.333333333333336 L 26.0 56.666666666666664 L 25.0 56.333333333333336 L 24.0 55.666666666666664 L 23.0 55.333333333333336 L 22.0 54.666666666666664 L 21.0 54.333333333333336 L 20.0 53.666666666666664 L 19.0 53.333333333333336 L 18.0 53.0 L 17.0 52.666666666666664 L 16.0 52.333333333333336 L 15.0 51.666666666666664 L 14.0 51.333333333333336 L 13.0 50.666666666666664 L 12.0 50.333333333333336 L 11.0 49.666666666666664 L 10.0 49.333333333333336 L 9.0 48.666666666666664 L 8.0 48.333333333333336 L 7.0 47.666666666666664 L 6.0 47.333333333333336 L 5.0 47.0 L 4.333333333333333 47.333333333333336 L 4.0 48.0 L 4.333333333333333 49.0 L 5.0 49.666666666666664 L 6.0 50.333333333333336 L 7.0 50.666666666666664 L 8.0 51.333333333333336 L 9.0 51.666666666666664 L 10.0 52.333333333333336 L 11.0 52.666666666666664 L 12.0 53.333333333333336 L 13.0 53.666666666666664 L 14.0 54.333333333333336 L 15.0 54.666666666666664 L 16.0 55.333333333333336 L 17.0 55.666666666666664 L 18.0 56.0 L 19.0 56.333333333333336 L 20.0 56.666666666666664 L 21.0 57.333333333333336 L 22.0 57.666666666666664 L 23.0 58.333333333333336 L 24.0 58.666666666666664 L 25.0 59.333333333333336 L 26.0 59.666666666666664 L 27.0 60.333333333333336 L 28.0 60.666666666666664 L 29.0 61.333333333333336 L 30.0 61.666666666666664 L 31.0 62.333333333333336 L 32.0 62.666666666666664 L 33.0 63.333333333333336 L 34.0 63.666666666666664 L 35.0 64.0 L 36.0 64.33333333333333 L 37.0 64.66666666666667 L 38.0 65.33333333333333 L 38.5 65.5 Z" stroke="none" fill="rgb(16,86,176)" />
<path d="M 91.5 34.5 L 92.0 34.333333333333336 L 93.0 33.666666666666664 L 94.0 33.333333333333336 L 95.0 32.666666666666664 L 96.0 32.333333333333336 L 97.0 31.666666666666668 L 98.0 31.333333333333332 L 99.0 31.0 L 100.0 31.0 L 101.0 30.666666666666668 L 101.66666666666667 30.0 L 102.0 29.0 L 101.66666666666667 28.333333333333332 L 101.0 27.666666666666668 L 100.0 27.333333333333332 L 99.0 26.666666666666668 L 98.0 26.333333333333332 L 97.0 25.666666666666668 L 96.0 25.333333333333332 L 95.0 25.0 L 94.0 24.666666666666668 L 93.0 24.333333333333332 L 92.0 24.333333333333332 L 91.0 25.0 L 90.0 26.0 L 89.0 26.666666666666668 L 88.0 27.333333333333332 L 87.0 28.0 L 86.0 29.0 L 85.0 30.0 L 84.0 31.0 L 83.0 32.0 L 82.0 33.0 L 81.0 34.0 L 80.0 35.0 L 79.0 36.0 L 78.33333333333333 37.0 L 77.66666666666667 38.0 L 77.0 39.0 L 76.33333333333333 40.0 L 76.0 41.0 L 76.0 42.0 L 76.33333333333333 43.0 L 77.0 44.0 L 78.0 44.666666666666664 L 79.0 44.666666666666664 L 79.66666666666667 44.0 L 80.0 43.0 L 80.33333333333333 42.0 L 81.0 41.0 L 82.0 40.0 L 83.0 39.333333333333336 L 84.0 38.666666666666664 L 85.0 38.0 L 86.0 37.333333333333336 L 87.0 36.666666666666664 L 88.0 36.333333333333336 L 89.0 35.666666666666664 L 90.0 35.333333333333336 L 90.5 35.0 Z" stroke="none" fill="rgb(13,71,161)" />
<path d="M 46.5 50.0 L 47.0 50.0 L 47.666666666666664 49.666666666666664 L 48.0 49.0 L 48.0 48.0 L 48.0 47.0 L 48.0 46.0 L 47.666666666666664 45.0 L 47.0 44.333333333333336 L 46.0 44.0 L 45.0 44.0 L 44.0 44.0 L 43.0 44.0 L 42.0 44.333333333333336 L 41.0 44.666666666666664 L 40.333333333333336 45.333333333333336 L 40.0 46.0 L 40.0 47.0 L 40.0 48.0 L 40.333333333333336 49.0 L 41.0 49.666666666666664 L 42.0 50.0 L 43.0 50.0 L 44.0 50.0 L 45.0 50.0 L 45.5 50.0 Z" stroke="none" fill="rgb(224,224,224)" />
<path d="M 77.5 45.5 L 77.66666666666667 45.0 L 77.66666666666667 44.0 L 77.0 43.333333333333336 L 76.0 43.0 L 75.0 43.0 L 74.0 43.333333333333336 L 73.33333333333333 44.0 L 73.0 45.0 L 73.33333333333333 45.666666666666664 L 74.0 46.0 L 75.0 46.0 L 76.0 46.0 L 76.5 46.0 Z" stroke="none" fill="rgb(34,36,37)" />
<path d="M 46.5 32.0 L 47.0 32.0 L 47.666666666666664 31.666666666666668 L 48.0 31.0 L 47.666666666666664 30.333333333333332 L 47.0 30.0 L 46.333333333333336 30.333333333333332 L 46.0 31.0 L 46.0 31.5 Z" stroke="none" fill="rgb(34,36,37)" />
<path d="M 4.5 41.0 L 4.666666666666667 40.666666666666664 L 5.0 40.0 L 4.666666666666667 39.333333333333336 L 4.333333333333333 39.333333333333336 L 4.0 40.0 L 4.0 40.5 Z" stroke="none" fill="rgb(0,0,0)" />
<path d="M 102.5 29.0 L 102.66666666666667 28.666666666666668 L 102.66666666666667 28.333333333333332 L 102.33333333333333 28.333333333333332 L 102.0 28.5 Z" stroke="none" fill="rgb(0,0,0)" />
<path d="M 4.5 47.0 L 4.666666666666667 46.666666666666664 L 4.666666666666667 46.333333333333336 L 4.333333333333333 46.333333333333336 L 4.0 46.5 Z" stroke="none" fill="rgb(0,0,0)" />
<path d="M 4.5 50.0 L 4.666666666666667 49.666666666666664 L 4.666666666666667 49.333333333333336 L 4.333333333333333 49.333333333333336 L 4.0 49.5 Z" stroke="none" fill="rgb(0,0,0)" />
<path d="M 65.0 124.5 L 64.66666666666667 124.33333333333333 L 64.33333333333333 124.33333333333333 L 64.33333333333333 124.66666666666667 L 64.5 125.0 Z" stroke="none" fill="rgb(0,0,0)" />
</svg>
