<?xml version="1.0" encoding="UTF-8" standalone="no"?>
<!DOCTYPE svg PUBLIC "-//W3C//DTD SVG 1.1//EN"
"http://www.w3.org/Graphics/SVG/1.1/DTD/svg11.dtd">
<svg width="128" height="128" xmlns="http://www.w3.org/2000/svg" version="1.1">
<path d="M 26.5 128.0 L 27.0 128.0 L 28.0 128.0 L 29.0 128.0 L 30.0 128.0 L 31.0 128.0 L 32.0 128.0 L 33.0 128.0 L 34.0 128.0 L 35.0 128.0 L 36.0 128.0 L 37.0 128.0 L 38.0 128.0 L 39.0 128.0 L 40.0 128.0 L 41.0 128.0 L 42.0 128.0 L 43.0 128.0 L 44.0 128.0 L 45.0 128.0 L 46.0 128.0 L 47.0 128.0 L 48.0 128.0 L 49.0 128.0 L 50.0 128.0 L 51.0 128.0 L 52.0 128.0 L 53.0 128.0 L 54.0 128.0 L 55.0 128.0 L 56.0 128.0 L 57.0 128.0 L 58.0 128.0 L 59.0 128.0 L 60.0 128.0 L 61.0 128.0 L 62.0 128.0 L 63.0 128.0 L 64.0 128.0 L 65.0 128.0 L 66.0 128.0 L 67.0 128.0 L 68.0 128.0 L 69.0 128.0 L 70.0 128.0 L 71.0 128.0 L 72.0 128.0 L 73.0 128.0 L 74.0 128.0 L 75.0 128.0 L 76.0 128.0 L 77.0 128.0 L 78.0 128.0 L 79.0 128.0 L 80.0 128.0 L 81.0 128.0 L 82.0 128.0 L 83.0 128.0 L 84.0 128.0 L 85.0 128.0 L 86.0 128.0 L 87.0 128.0 L 88.0 128.0 L 89.0 128.0 L 90.0 128.0 L 91.0 128.0 L 92.0 128.0 L 93.0 128.0 L 94.0 128.0 L 95.0 128.0 L 96.0 128.0 L 97.0 128.0 L 98.0 128.0 L 99.0 128.0 L 100.0 128.0 L 101.0 128.0 L 102.0 128.0 L 103.0 128.0 L 104.0 128.0 L 105.0 128.0 L 106.0 128.0 L 107.0 128.0 L 108.0 128.0 L 109.0 128.0 L 110.0 128.0 L 111.0 128.0 L 112.0 128.0 L 113.0 128.0 L 114.0 128.0 L 115.0 128.0 L 116.0 128.0 L 117.0 128.0 L 118.0 128.0 L 119.0 128.0 L 120.0 128.0 L 121.0 128.0 L 122.0 128.0 L 123.0 128.0 L 124.0 128.0 L 125.0 128.0 L 126.0 128.0 L 127.0 128.0 L 127.66666666666667 127.66666666666667 L 128.0 127.0 L 128.0 126.0 L 128.0 125.0 L 128.0 124.0 L 128.0 123.0 L 128.0 122.0 L 128.0 121.0 L 128.0 120.0 L 128.0 119.0 L 128.0 118.0 L 128.0 117.0 L 128.0 116.0 L 128.0 115.0 L 128.0 114.0 L 128.0 113.0 L 128.0 112.0 L 128.0 111.0 L 128.0 110.0 L 128.0 109.0 L 128.0 108.0 L 128.0 107.0 L 128.0 106.0 L 128.0 105.0 L 128.0 104.0 L 128.0 103.0 L 128.0 102.0 L 128.0 101.0 L 128.0 100.0 L 128.0 99.0 L 128.0 98.0 L 128.0 97.0 L 128.0 96.0 L 128.0 95.0 L 128.0 94.0 L 128.0 93.0 L 128.0 92.0 L 128.0 91.0 L 128.0 90.0 L 128.0 89.0 L 128.0 88.0 L 128.0 87.0 L 128.0 86.0 L 128.0 85.0 L 128.0 84.0 L 128.0 83.0 L 128.0 82.0 L 128.0 81.0 L 128.0 80.0 L 128.0 79.0 L 128.0 78.0 L 128.0 77.0 L 128.0 76.0 L 128.0 75.0 L 128.0 74.0 L 128.0 73.0 L 128.0 72.0 L 128.0 71.0 L 128.0 70.0 L 128.0 69.0 L 128.0 68.0 L 128.0 67.0 L 128.0 66.0 L 128.0 65.0 L 128.0 64.0 L 128.0 63.0 L 128.0 62.0 L 128.0 61.0 L 128.0 60.0 L 128.0 59.0 L 128.0 58.0 L 128.0 57.0 L 128.0 56.0 L 128.0 55.0 L 128.0 54.0 L 128.0 53.0 L 128.0 52.0 L 128.0 51.0 L 128.0 50.0 L 128.0 49.0 L 128.0 48.0 L 128.0 47.0 L 128.0 46.0 L 128.0 45.0 L 128.0 44.0 L 128.0 43.0 L 128.0 42.0 L 128.0 41.0 L 128.0 40.0 L 128.0 39.0 L 128.0 38.0 L 128.0 37.0 L 128.0 36.0 L 128.0 35.0 L 128.0 34.0 L 128.0 33.0 L 128.0 32.0 L 128.0 31.0 L 128.0 30.0 L 128.0 29.0 L 128.0 28.0 L 128.0 27.0 L 128.0 26.0 L 128.0 25.0 L 128.0 24.0 L 128.0 23.0 L 128.0 22.0 L 128.0 21.0 L 128.0 20.0 L 128.0 19.0 L 128.0 18.0 L 128.0 17.0 L 128.0 16.0 L 128.0 15.0 L 128.0 14.0 L 128.0 13.0 L 128.0 12.0 L 128.0 11.0 L 128.0 10.0 L 128.0 9.0 L 128.0 8.0 L 128.0 7.0 L 128.0 6.0 L 128.0 5.0 L 128.0 4.0 L 128.0 3.0 L 128.0 2.0 L 128.0 1.0 L 127.66666666666667 0.3333333333333333 L 127.0 0.0 L 126.0 0.0 L 125.0 0.0 L 124.0 0.0 L 123.0 0.0 L 122.0 0.0 L 121.0 0.0 L 120.0 0.0 L 119.0 0.0 L 118.0 0.0 L 117.0 0.0 L 116.0 0.0 L 115.0 0.0 L 114.0 0.0 L 113.0 0.0 L 112.0 0.0 L 111.0 0.0 L 110.0 0.0 L 109.0 0.0 L 108.0 0.0 L 107.0 0.0 L 106.0 0.0 L 105.0 0.0 L 104.0 0.0 L 103.0 0.0 L 102.0 0.0 L 101.0 0.0 L 100.0 0.0 L 99.0 0.0 L 98.0 0.0 L 97.0 0.0 L 96.0 0.0 L 95.0 0.0 L 94.0 0.0 L 93.0 0.0 L 92.0 0.0 L 91.0 0.0 L 90.0 0.0 L 89.0 0.0 L 88.0 0.0 L 87.0 0.0 L 86.0 0.0 L 85.0 0.0 L 84.0 0.0 L 83.0 0.0 L 82.0 0.0 L 81.0 0.0 L 80.0 0.0 L 79.0 0.0 L 78.0 0.0 L 77.0 0.0 L 76.0 0.0 L 75.0 0.0 L 74.0 0.0 L 73.0 0.0 L 72.0 0.0 L 71.0 0.0 L 70.0 0.0 L 69.0 0.0 L 68.0 0.0 L 67.0 0.0 L 66.0 0.0 L 65.0 0.0 L 64.0 0.0 L 63.0 0.0 L 62.0 0.0 L 61.0 0.0 L 60.0 0.0 L 59.0 0.0 L 58.0 0.0 L 57.0 0.0 L 56.0 0.0 L 55.0 0.0 L 54.0 0.0 L 53.0 0.0 L 52.0 0.0 L 51.0 0.0 L 50.0 0.0 L 49.0 0.0 L 48.0 0.0 L 47.0 0.0 L 46.0 0.0 L 45.0 0.0 L 44.0 0.0 L 43.0 0.0 L 42.0 0.0 L 41.0 0.0 L 40.0 0.0 L 39.0 0.0 L 38.0 0.0 L 37.0 0.0 L 36.0 0.0 L 35.0 0.0 L 34.0 0.0 L 33.0 0.0 L 32.0 0.0 L 31.0 0.0 L 30.0 0.0 L 29.0 0.0 L 28.0 0.0 L 27.0 0.0 L 26.0 0.0 L 25.0 0.0 L 24.0 0.0 L 23.0 0.0 L 22.0 0.0 L 21.0 0.0 L 20.0 0.0 L 19.0 0.0 L 18.0 0.0 L 17.0 0.0 L 16.0 0.0 L 15.0 0.0 L 14.0 0.0 L 13.0 0.0 L 12.0 0.0 L 11.0 0.0 L 10.0 0.0 L 9.0 0.0 L 8.0 0.0 L 7.0 0.0 L 6.0 0.0 L 5.0 0.0 L 4.0 0.0 L 3.0 0.0 L 2.0 0.0 L 1.0 0.0 L 0.3333333333333333 0.3333333333333333 L 0.0 1.0 L 0.0 2.0 L 0.0 3.0 L 0.0 4.0 L 0.0 5.0 L 0.0 6.0 L 0.0 7.0 L 0.0 8.0 L 0.0 9.0 L 0.0 10.0 L 0.0 11.0 L 0.0 12.0 L 0.0 13.0 L 0.0 14.0 L 0.0 15.0 L 0.0 16.0 L 0.0 17.0 L 0.0 18.0 L 0.0 19.0 L 0.0 20.0 L 0.0 21.0 L 0.0 22.0 L 0.0 23.0 L 0.0 24.0 L 0.0 25.0 L 0.0 26.0 L 0.0 27.0 L 0.0 28.0 L 0.0 29.0 L 0.0 30.0 L 0.0 31.0 L 0.0 32.0 L 0.0 33.0 L 0.0 34.0 L 0.0 35.0 L 0.0 36.0 L 0.0 37.0 L 0.0 38.0 L 0.0 39.0 L 0.0 40.0 L 0.0 41.0 L 0.0 42.0 L 0.0 43.0 L 0.0 44.0 L 0.0 45.0 L 0.0 46.0 L 0.0 47.0 L 0.0 48.0 L 0.0 49.0 L 0.0 50.0 L 0.0 51.0 L 0.0 52.0 L 0.0 53.0 L 0.0 54.0 L 0.0 55.0 L 0.0 56.0 L 0.0 57.0 L 0.0 58.0 L 0.0 59.0 L 0.0 60.0 L 0.0 61.0 L 0.0 62.0 L 0.0 63.0 L 0.0 64.0 L 0.0 65.0 L 0.0 66.0 L 0.0 67.0 L 0.0 68.0 L 0.0 69.0 L 0.0 70.0 L 0.0 71.0 L 0.0 72.0 L 0.0 73.0 L 0.0 74.0 L 0.0 75.0 L 0.0 76.0 L 0.0 77.0 L 0.0 78.0 L 0.0 79.0 L 0.0 80.0 L 0.0 81.0 L 0.0 82.0 L 0.0 83.0 L 0.0 84.0 L 0.0 85.0 L 0.0 86.0 L 0.0 87.0 L 0.0 88.0 L 0.0 89.0 L 0.0 90.0 L 0.0 91.0 L 0.0 92.0 L 0.0 93.0 L 0.0 94.0 L 0.0 95.0 L 0.0 96.0 L 0.0 97.0 L 0.0 98.0 L 0.0 99.0 L 0.0 100.0 L 0.0 101.0 L 0.0 102.0 L 0.0 103.0 L 0.0 104.0 L 0.0 105.0 L 0.0 106.0 L 0.0 107.0 L 0.0 108.0 L 0.0 109.0 L 0.0 110.0 L 0.0 111.0 L 0.0 112.0 L 0.0 113.0 L 0.0 114.0 L 0.0 115.0 L 0.0 116.0 L 0.0 117.0 L 0.0 118.0 L 0.0 119.0 L 0.0 120.0 L 0.0 121.0 L 0.0 122.0 L 0.0 123.0 L 0.0 124.0 L 0.0 125.0 L 0.0 126.0 L 0.0 127.0 L 0.3333333333333333 127.66666666666667 L 1.0 128.0 L 2.0 128.0 L 3.0 128.0 L 4.0 128.0 L 5.0 128.0 L 6.0 128.0 L 7.0 128.0 L 8.0 128.0 L 9.0 128.0 L 10.0 128.0 L 11.0 128.0 L 12.0 128.0 L 13.0 128.0 L 14.0 128.0 L 15.0 128.0 L 16.0 128.0 L 17.0 128.0 L 18.0 128.0 L 19.0 128.0 L 20.0 128.0 L 21.0 128.0 L 22.0 128.0 L 23.0 128.0 L 24.0 128.0 L 25.0 128.0 L 25.5 128.0 Z" stroke="none" fill="rgb(0,0,0)" />
<path d="M 71.5 108.0 L 72.0 108.0 L 73.0 108.0 L 74.0 108.0 L 75.0 108.0 L 76.0 108.0 L 77.0 108.0 L 78.0 108.0 L 79.0 108.0 L 80.0 108.0 L 81.0 108.0 L 82.0 108.0 L 83.0 108.0 L 84.0 108.0 L 85.0 108.0 L 86.0 108.0 L 87.0 108.0 L 88.0 108.0 L 89.0 108.0 L 90.0 107.66666666666667 L 90.66666666666667 107.0 L 91.0 106.0 L 90.66666666666667 105.0 L 90.0 104.0 L 89.0 103.0 L 88.0 102.0 L 87.33333333333333 101.0 L 87.33333333333333 100.0 L 88.0 99.0 L 89.0 98.0 L 90.0 97.0 L 91.0 96.0 L 92.0 95.0 L 93.0 94.0 L 94.0 93.0 L 95.0 92.0 L 96.0 91.0 L 96.66666666666667 90.0 L 97.33333333333333 89.0 L 98.0 88.0 L 99.0 87.0 L 100.0 86.0 L 100.66666666666667 85.0 L 101.33333333333333 84.0 L 102.0 83.33333333333333 L 103.0 83.33333333333333 L 104.0 84.0 L 105.0 85.0 L 106.0 86.0 L 107.0 87.0 L 108.0 88.0 L 109.0 89.0 L 110.0 90.0 L 111.0 90.66666666666667 L 112.0 91.33333333333333 L 113.0 92.0 L 114.0 93.0 L 115.0 93.66666666666667 L 116.0 94.33333333333333 L 117.0 95.0 L 118.0 95.66666666666667 L 119.0 96.33333333333333 L 120.0 96.66666666666667 L 121.0 97.0 L 122.0 97.0 L 122.66666666666667 96.66666666666667 L 123.0 96.0 L 123.0 95.0 L 123.0 94.0 L 123.0 93.0 L 122.66666666666667 92.0 L 122.33333333333333 91.0 L 122.0 90.0 L 121.66666666666667 89.0 L 121.33333333333333 88.0 L 121.0 87.0 L 120.66666666666667 86.0 L 120.33333333333333 85.0 L 119.66666666666667 84.0 L 119.33333333333333 83.0 L 118.66666666666667 82.0 L 118.0 81.0 L 117.0 80.0 L 116.0 79.0 L 115.0 78.0 L 114.33333333333333 77.0 L 114.33333333333333 76.0 L 115.0 75.0 L 116.0 74.0 L 117.0 73.0 L 118.0 72.0 L 119.0 71.0 L 119.66666666666667 70.0 L 120.33333333333333 69.0 L 120.66666666666667 68.0 L 121.33333333333333 67.0 L 121.66666666666667 66.0 L 122.0 65.0 L 122.33333333333333 64.0 L 122.66666666666667 63.0 L 123.0 62.0 L 123.0 61.0 L 123.33333333333333 60.0 L 123.66666666666667 59.0 L 124.0 58.0 L 124.0 57.0 L 124.0 56.0 L 124.0 55.0 L 124.0 54.0 L 123.66666666666667 53.333333333333336 L 123.0 53.0 L 122.0 53.0 L 121.0 53.333333333333336 L 120.0 54.0 L 119.0 54.666666666666664 L 118.0 55.333333333333336 L 117.0 56.0 L 116.0 57.0 L 115.0 58.0 L 114.0 59.0 L 113.0 60.0 L 112.0 61.0 L 111.0 62.0 L 110.0 63.0 L 109.0 64.0 L 108.0 65.0 L 107.0 66.0 L 106.33333333333333 67.0 L 105.66666666666667 68.0 L 105.0 69.0 L 104.0 69.66666666666667 L 103.0 69.66666666666667 L 102.0 69.0 L 101.0 68.0 L 100.0 67.0 L 99.0 66.0 L 98.33333333333333 65.0 L 97.66666666666667 64.0 L 97.0 63.0 L 96.0 62.0 L 95.0 61.0 L 94.33333333333333 60.0 L 93.66666666666667 59.0 L 93.33333333333333 58.0 L 92.66666666666667 57.0 L 92.0 56.0 L 91.33333333333333 55.0 L 90.66666666666667 54.0 L 90.33333333333333 53.0 L 89.66666666666667 52.0 L 89.0 51.0 L 88.0 50.0 L 87.33333333333333 49.0 L 86.66666666666667 48.0 L 86.0 47.0 L 85.0 46.0 L 84.0 45.0 L 83.0 44.0 L 82.33333333333333 43.0 L 81.66666666666667 42.0 L 81.0 41.0 L 80.0 40.0 L 79.0 39.333333333333336 L 78.0 38.666666666666664 L 77.0 38.0 L 76.0 37.0 L 75.0 36.0 L 74.0 35.0 L 73.0 34.333333333333336 L 72.0 33.666666666666664 L 71.0 33.0 L 70.0 32.333333333333336 L 69.0 31.666666666666668 L 68.0 31.333333333333332 L 67.0 30.666666666666668 L 66.0 30.333333333333332 L 65.0 29.666666666666668 L 64.0 29.333333333333332 L 63.0 28.666666666666668 L 62.0 28.333333333333332 L 61.0 28.0 L 60.0 27.666666666666668 L 59.0 27.333333333333332 L 58.0 27.0 L 57.0 27.333333333333332 L 56.0 27.666666666666668 L 55.0 28.333333333333332 L 54.0 29.0 L 53.0 30.0 L 52.0 31.0 L 51.0 32.0 L 50.0 33.0 L 49.0 34.0 L 48.0 35.0 L 47.333333333333336 36.0 L 46.666666666666664 37.0 L 46.0 38.0 L 45.333333333333336 39.0 L 44.666666666666664 40.0 L 44.333333333333336 41.0 L 44.0 42.0 L 44.333333333333336 42.666666666666664 L 45.0 43.0 L 46.0 43.0 L 47.0 43.0 L 48.0 43.0 L 49.0 43.0 L 50.0 43.333333333333336 L 51.0 43.666666666666664 L 52.0 44.0 L 53.0 44.0 L 54.0 44.0 L 55.0 44.0 L 56.0 44.0 L 57.0 44.333333333333336 L 58.0 44.666666666666664 L 59.0 45.0 L 60.0 45.0 L 61.0 45.0 L 62.0 45.333333333333336 L 63.0 45.666666666666664 L 64.0 46.0 L 65.0 46.333333333333336 L 66.0 46.666666666666664 L 67.0 47.333333333333336 L 68.0 47.666666666666664 L 69.0 48.333333333333336 L 70.0 49.0 L 71.0 49.666666666666664 L 72.0 50.0 L 73.0 50.333333333333336 L 74.0 50.666666666666664 L 75.0 51.333333333333336 L 76.0 52.0 L 77.0 52.666666666666664 L 78.0 53.333333333333336 L 79.0 54.0 L 80.0 54.666666666666664 L 81.0 55.333333333333336 L 82.0 56.0 L 83.0 57.0 L 84.0 58.0 L 85.0 59.0 L 86.0 60.0 L 87.0 60.666666666666664 L 88.0 61.333333333333336 L 89.0 62.0 L 90.0 63.0 L 91.0 64.0 L 91.66666666666667 65.0 L 92.33333333333333 66.0 L 93.0 67.0 L 94.0 68.0 L 95.0 69.0 L 96.0 70.0 L 96.66666666666667 71.0 L 97.33333333333333 72.0 L 98.0 73.0 L 98.66666666666667 74.0 L 99.33333333333333 75.0 L 99.66666666666667 76.0 L 100.0 77.0 L 99.66666666666667 78.0 L 99.33333333333333 79.0 L 98.66666666666667 80.0 L 98.0 81.0 L 97.0 82.0 L 96.0 83.0 L 95.0 84.0 L 94.33333333333333 85.0 L 93.66666666666667 86.0 L 93.0 87.0 L 92.0 88.0 L 91.0 89.0 L 90.0 90.0 L 89.0 91.0 L 88.0 92.0 L 87.0 93.0 L 86.0 94.0 L 85.0 95.0 L 84.0 95.66666666666667 L 83.0 96.33333333333333 L 82.0 97.0 L 81.0 98.0 L 80.0 99.0 L 79.0 99.66666666666667 L 78.0 100.0 L 77.0 100.33333333333333 L 76.0 101.0 L 75.0 102.0 L 74.0 102.66666666666667 L 73.0 103.0 L 72.0 103.33333333333333 L 71.0 104.0 L 70.0 104.66666666666667 L 69.33333333333333 105.33333333333333 L 69.0 106.0 L 69.33333333333333 106.66666666666667 L 70.0 107.33333333333333 L 70.5 107.5 Z" stroke="none" fill="rgb(27,101,166)" />
<path d="M 36.5 50.0 L 37.0 50.0 L 38.0 50.0 L 39.0 50.0 L 40.0 50.0 L 41.0 50.0 L 42.0 50.0 L 43.0 50.0 L 44.0 50.0 L 45.0 50.0 L 46.0 50.0 L 47.0 50.0 L 48.0 50.0 L 49.0 50.0 L 50.0 50.0 L 51.0 50.0 L 52.0 50.0 L 53.0 50.0 L 54.0 50.0 L 55.0 50.0 L 56.0 50.0 L 57.0 50.0 L 58.0 50.0 L 59.0 50.0 L 60.0 50.0 L 61.0 50.0 L 62.0 50.0 L 63.0 50.0 L 64.0 50.0 L 65.0 50.0 L 66.0 50.0 L 67.0 50.0 L 68.0 50.0 L 69.0 50.0 L 70.0 50.0 L 70.66666666666667 49.666666666666664 L 70.66666666666667 49.0 L 70.0 48.333333333333336 L 69.0 47.666666666666664 L 68.0 47.333333333333336 L 67.0 46.666666666666664 L 66.0 46.333333333333336 L 65.0 46.0 L 64.0 45.666666666666664 L 63.0 45.333333333333336 L 62.0 45.0 L 61.0 45.0 L 60.0 45.0 L 59.0 44.666666666666664 L 58.0 44.333333333333336 L 57.0 44.0 L 56.0 44.0 L 55.0 44.0 L 54.0 44.0 L 53.0 44.0 L 52.0 43.666666666666664 L 51.0 43.333333333333336 L 50.0 43.0 L 49.0 43.0 L 48.0 43.0 L 47.0 43.0 L 46.0 43.0 L 45.0 43.0 L 44.0 43.0 L 43.0 43.0 L 42.0 43.0 L 41.0 43.0 L 40.0 43.333333333333336 L 39.0 43.666666666666664 L 38.0 44.0 L 37.0 44.0 L 36.0 44.333333333333336 L 35.0 44.666666666666664 L 34.0 45.0 L 33.0 45.333333333333336 L 32.0 45.666666666666664 L 31.0 46.0 L 30.0 46.333333333333336 L 29.0 46.666666666666664 L 28.0 47.333333333333336 L 27.333333333333332 48.0 L 27.0 49.0 L 27.333333333333332 49.666666666666664 L 28.0 50.0 L 29.0 50.0 L 30.0 50.0 L 31.0 50.0 L 32.0 50.0 L 33.0 50.0 L 34.0 50.0 L 35.0 50.0 L 35.5 50.0 Z" stroke="none" fill="rgb(20,131,188)" />
<path d="M 40.5 53.0 L 41.0 53.0 L 42.0 53.0 L 43.0 53.0 L 44.0 53.0 L 45.0 53.0 L 46.0 53.0 L 47.0 53.0 L 48.0 53.0 L 49.0 53.0 L 50.0 53.0 L 51.0 53.0 L 52.0 53.0 L 53.0 53.0 L 54.0 53.0 L 55.0 53.0 L 56.0 53.0 L 57.0 53.0 L 58.0 53.0 L 59.0 53.0 L 60.0 53.0 L 61.0 53.0 L 62.0 53.0 L 63.0 53.0 L 64.0 53.0 L 65.0 53.0 L 66.0 53.0 L 67.0 53.0 L 68.0 53.0 L 69.0 53.0 L 70.0 53.0 L 71.0 53.0 L 72.0 53.0 L 73.0 53.0 L 74.0 53.0 L 75.0 53.0 L 76.0 53.0 L 76.66666666666667 52.666666666666664 L 76.66666666666667 52.0 L 76.0 51.333333333333336 L 75.0 50.666666666666664 L 74.0 50.333333333333336 L 73.0 50.0 L 72.0 50.0 L 71.0 50.0 L 70.0 50.0 L 69.0 50.0 L 68.0 50.0 L 67.0 50.0 L 66.0 50.0 L 65.0 50.0 L 64.0 50.0 L 63.0 50.0 L 62.0 50.0 L 61.0 50.0 L 60.0 50.0 L 59.0 50.0 L 58.0 50.0 L 57.0 50.0 L 56.0 50.0 L 55.0 50.0 L 54.0 50.0 L 53.0 50.0 L 52.0 50.0 L 51.0 50.0 L 50.0 50.0 L 49.0 50.0 L 48.0 50.0 L 47.0 50.0 L 46.0 50.0 L 45.0 50.0 L 44.0 50.0 L 43.0 50.0 L 42.0 50.0 L 41.0 50.0 L 40.0 50.0 L 39.0 50.0 L 38.0 50.0 L 37.0 50.0 L 36.0 50.0 L 35.0 50.0 L 34.0 50.0 L 33.0 50.0 L 32.0 50.0 L 31.0 50.0 L 30.0 50.0 L 29.0 50.0 L 28.0 50.0 L 27.0 50.0 L 26.0 50.0 L 25.0 50.0 L 24.0 50.333333333333336 L 23.0 50.666666666666664 L 22.333333333333332 51.333333333333336 L 22.0 52.0 L 22.333333333333332 52.666666666666664 L 23.0 53.0 L 24.0 53.0 L 25.0 53.0 L 26.0 53.0 L 27.0 53.0 L 28.0 53.0 L 29.0 53.0 L 30.0 53.0 L 31.0 53.0 L 32.0 53.0 L 33.0 53.0 L 34.0 53.0 L 35.0 53.0 L 36.0 53.0 L 37.0 53.0 L 38.0 53.0 L 39.0 53.0 L 39.5 53.0 Z" stroke="none" fill="rgb(24,134,190)" />
<path d="M 57.5 55.0 L 58.0 55.0 L 59.0 55.0 L 60.0 55.0 L 61.0 55.0 L 62.0 55.0 L 63.0 55.0 L 64.0 55.0 L 65.0 55.0 L 66.0 55.0 L 67.0 55.0 L 68.0 55.0 L 69.0 55.0 L 70.0 55.0 L 71.0 55.0 L 72.0 55.0 L 73.0 55.0 L 74.0 55.0 L 75.0 55.0 L 76.0 55.0 L 77.0 55.0 L 78.0 55.0 L 79.0 55.0 L 79.66666666666667 54.666666666666664 L 79.66666666666667 54.0 L 79.0 53.333333333333336 L 78.0 53.0 L 77.0 53.0 L 76.0 53.0 L 75.0 53.0 L 74.0 53.0 L 73.0 53.0 L 72.0 53.0 L 71.0 53.0 L 70.0 53.0 L 69.0 53.0 L 68.0 53.0 L 67.0 53.0 L 66.0 53.0 L 65.0 53.0 L 64.0 53.0 L 63.0 53.0 L 62.0 53.0 L 61.0 53.0 L 60.0 53.0 L 59.0 53.0 L 58.0 53.0 L 57.0 53.0 L 56.0 53.0 L 55.0 53.0 L 54.0 53.0 L 53.0 53.0 L 52.0 53.0 L 51.0 53.0 L 50.0 53.0 L 49.0 53.0 L 48.0 53.0 L 47.0 53.0 L 46.0 53.0 L 45.0 53.0 L 44.0 53.0 L 43.0 53.0 L 42.0 53.0 L 41.0 53.0 L 40.0 53.0 L 39.0 53.0 L 38.0 53.0 L 37.0 53.0 L 36.0 53.0 L 35.0 53.0 L 34.0 53.0 L 33.0 53.0 L 32.0 53.0 L 31.0 53.0 L 30.0 53.0 L 29.0 53.0 L 28.0 53.0 L 27.0 53.0 L 26.0 53.0 L 25.0 53.0 L 24.0 53.0 L 23.0 53.0 L 22.0 53.0 L 21.0 53.0 L 20.333333333333332 53.333333333333336 L 20.0 54.0 L 20.333333333333332 54.666666666666664 L 21.0 55.0 L 22.0 55.0 L 23.0 55.0 L 24.0 55.0 L 25.0 55.0 L 26.0 55.0 L 27.0 55.0 L 28.0 55.0 L 29.0 55.0 L 30.0 55.0 L 31.0 55.0 L 32.0 55.0 L 33.0 55.0 L 34.0 55.0 L 35.0 55.0 L 36.0 55.0 L 37.0 55.0 L 38.0 55.0 L 39.0 55.0 L 40.0 55.0 L 41.0 55.0 L 42.0 55.0 L 43.0 55.0 L 44.0 55.0 L 45.0 55.0 L 46.0 55.0 L 47.0 55.0 L 48.0 55.0 L 49.0 55.0 L 50.0 55.0 L 51.0 55.0 L 52.0 55.0 L 53.0 55.0 L 54.0 55.0 L 55.0 55.0 L 56.0 55.0 L 56.5 55.0 Z" stroke="none" fill="rgb(29,138,193)" />
<path d="M 57.5 58.0 L 58.0 58.0 L 59.0 58.0 L 60.0 58.0 L 61.0 58.0 L 62.0 58.0 L 63.0 58.0 L 64.0 58.0 L 65.0 58.0 L 66.0 58.0 L 67.0 58.0 L 68.0 58.0 L 69.0 58.0 L 70.0 58.0 L 71.0 58.0 L 72.0 58.0 L 73.0 58.0 L 74.0 58.0 L 75.0 58.0 L 76.0 58.0 L 77.0 58.0 L 78.0 58.0 L 79.0 58.0 L 80.0 58.0 L 81.0 58.0 L 82.0 58.0 L 83.0 58.0 L 83.66666666666667 57.666666666666664 L 83.66666666666667 57.0 L 83.0 56.0 L 82.0 55.333333333333336 L 81.0 55.0 L 80.0 55.0 L 79.0 55.0 L 78.0 55.0 L 77.0 55.0 L 76.0 55.0 L 75.0 55.0 L 74.0 55.0 L 73.0 55.0 L 72.0 55.0 L 71.0 55.0 L 70.0 55.0 L 69.0 55.0 L 68.0 55.0 L 67.0 55.0 L 66.0 55.0 L 65.0 55.0 L 64.0 55.0 L 63.0 55.0 L 62.0 55.0 L 61.0 55.0 L 60.0 55.0 L 59.0 55.0 L 58.0 55.0 L 57.0 55.0 L 56.0 55.0 L 55.0 55.0 L 54.0 55.0 L 53.0 55.0 L 52.0 55.0 L 51.0 55.0 L 50.0 55.0 L 49.0 55.0 L 48.0 55.0 L 47.0 55.0 L 46.0 55.0 L 45.0 55.0 L 44.0 55.0 L 43.0 55.0 L 42.0 55.0 L 41.0 55.0 L 40.0 55.0 L 39.0 55.0 L 38.0 55.0 L 37.0 55.0 L 36.0 55.0 L 35.0 55.0 L 34.0 55.0 L 33.0 55.0 L 32.0 55.0 L 31.0 55.0 L 30.0 55.0 L 29.0 55.0 L 28.0 55.0 L 27.0 55.0 L 26.0 55.0 L 25.0 55.0 L 24.0 55.0 L 23.0 55.0 L 22.0 55.0 L 21.0 55.0 L 20.0 55.0 L 19.0 55.0 L 18.0 55.333333333333336 L 17.333333333333332 56.0 L 17.0 57.0 L 17.333333333333332 57.666666666666664 L 18.0 58.0 L 19.0 58.0 L 20.0 58.0 L 21.0 58.0 L 22.0 58.0 L 23.0 58.0 L 24.0 58.0 L 25.0 58.0 L 26.0 58.0 L 27.0 58.0 L 28.0 58.0 L 29.0 58.0 L 30.0 58.0 L 31.0 58.0 L 32.0 58.0 L 33.0 58.0 L 34.0 58.0 L 35.0 58.0 L 36.0 58.0 L 37.0 58.0 L 38.0 58.0 L 39.0 58.0 L 40.0 58.0 L 41.0 58.0 L 42.0 58.0 L 43.0 58.0 L 44.0 58.0 L 45.0 58.0 L 46.0 58.0 L 47.0 58.0 L 48.0 58.0 L 49.0 58.0 L 50.0 58.0 L 51.0 58.0 L 52.0 58.0 L 53.0 58.0 L 54.0 58.0 L 55.0 58.0 L 56.0 58.0 L 56.5 58.0 Z" stroke="none" fill="rgb(34,142,196)" />
<path d="M 56.5 61.0 L 57.0 61.0 L 58.0 61.0 L 59.0 61.0 L 60.0 61.0 L 61.0 61.0 L 62.0 61.0 L 63.0 61.0 L 64.0 61.0 L 65.0 61.0 L 66.0 61.0 L 67.0 61.0 L 68.0 61.0 L 69.0 61.0 L 70.0 61.0 L 71.0 61.0 L 72.0 61.0 L 73.0 61.0 L 74.0 61.0 L 75.0 61.0 L 76.0 61.0 L 77.0 61.0 L 78.0 61.0 L 79.0 61.0 L 80.0 61.0 L 81.0 61.0 L 82.0 61.0 L 83.0 61.0 L 84.0 61.0 L 85.0 61.0 L 86.0 61.0 L 86.66666666666667 60.666666666666664 L 86.66666666666667 60.0 L 86.0 59.0 L 85.0 58.333333333333336 L 84.0 58.0 L 83.0 58.0 L 82.0 58.0 L 81.0 58.0 L 80.0 58.0 L 79.0 58.0 L 78.0 58.0 L 77.0 58.0 L 76.0 58.0 L 75.0 58.0 L 74.0 58.0 L 73.0 58.0 L 72.0 58.0 L 71.0 58.0 L 70.0 58.0 L 69.0 58.0 L 68.0 58.0 L 67.0 58.0 L 66.0 58.0 L 65.0 58.0 L 64.0 58.0 L 63.0 58.0 L 62.0 58.0 L 61.0 58.0 L 60.0 58.0 L 59.0 58.0 L 58.0 58.0 L 57.0 58.0 L 56.0 58.0 L 55.0 58.0 L 54.0 58.0 L 53.0 58.0 L 52.0 58.0 L 51.0 58.0 L 50.0 58.0 L 49.0 58.0 L 48.0 58.0 L 47.0 58.0 L 46.0 58.0 L 45.0 58.0 L 44.0 58.0 L 43.0 58.0 L 42.0 58.0 L 41.0 58.0 L 40.0 58.0 L 39.0 58.0 L 38.0 58.0 L 37.0 58.0 L 36.0 58.0 L 35.0 58.0 L 34.0 58.0 L 33.0 58.0 L 32.0 58.0 L 31.0 58.0 L 30.0 58.0 L 29.0 58.0 L 28.0 58.0 L 27.0 58.0 L 26.0 58.0 L 25.0 58.0 L 24.0 58.0 L 23.0 58.0 L 22.0 58.0 L 21.0 58.0 L 20.0 58.0 L 19.0 58.0 L 18.0 58.0 L 17.0 58.0 L 16.0 58.0 L 15.0 58.333333333333336 L 14.333333333333334 59.0 L 14.0 60.0 L 14.333333333333334 60.666666666666664 L 15.0 61.0 L 16.0 61.0 L 17.0 61.0 L 18.0 61.0 L 19.0 61.0 L 20.0 61.0 L 21.0 61.0 L 22.0 61.0 L 23.0 61.0 L 24.0 61.0 L 25.0 61.0 L 26.0 61.0 L 27.0 61.0 L 28.0 61.0 L 29.0 61.0 L 30.0 61.0 L 31.0 61.0 L 32.0 61.0 L 33.0 61.0 L 34.0 61.0 L 35.0 61.0 L 36.0 61.0 L 37.0 61.0 L 38.0 61.0 L 39.0 61.0 L 40.0 61.0 L 41.0 61.0 L 42.0 61.0 L 43.0 61.0 L 44.0 61.0 L 45.0 61.0 L 46.0 61.0 L 47.0 61.0 L 48.0 61.0 L 49.0 61.0 L 50.0 61.0 L 51.0 61.0 L 52.0 61.0 L 53.0 61.0 L 54.0 61.0 L 55.0 61.0 L 55.5 61.0 Z" stroke="none" fill="rgb(40,147,200)" />
<path d="M 72.5 63.0 L 73.0 63.0 L 74.0 63.0 L 75.0 63.0 L 76.0 63.0 L 77.0 63.0 L 78.0 63.0 L 79.0 63.0 L 80.0 63.0 L 81.0 63.0 L 82.0 63.0 L 83.0 63.0 L 84.0 63.0 L 85.0 63.0 L 86.0 63.0 L 87.0 63.0 L 88.0 63.0 L 89.0 63.0 L 89.66666666666667 62.666666666666664 L 89.66666666666667 62.0 L 89.0 61.333333333333336 L 88.0 61.0 L 87.0 61.0 L 86.0 61.0 L 85.0 61.0 L 84.0 61.0 L 83.0 61.0 L 82.0 61.0 L 81.0 61.0 L 80.0 61.0 L 79.0 61.0 L 78.0 61.0 L 77.0 61.0 L 76.0 61.0 L 75.0 61.0 L 74.0 61.0 L 73.0 61.0 L 72.0 61.0 L 71.0 61.0 L 70.0 61.0 L 69.0 61.0 L 68.0 61.0 L 67.0 61.0 L 66.0 61.0 L 65.0 61.0 L 64.0 61.0 L 63.0 61.0 L 62.0 61.0 L 61.0 61.0 L 60.0 61.0 L 59.0 61.0 L 58.0 61.0 L 57.0 61.0 L 56.0 61.0 L 55.0 61.0 L 54.0 61.0 L 53.0 61.0 L 52.0 61.0 L 51.0 61.0 L 50.0 61.0 L 49.0 61.0 L 48.0 61.0 L 47.0 61.0 L 46.0 61.0 L 45.0 61.0 L 44.0 61.0 L 43.0 61.0 L 42.0 61.0 L 41.0 61.0 L 40.0 61.0 L 39.0 61.0 L 38.0 61.0 L 37.0 61.0 L 36.0 61.0 L 35.0 61.0 L 34.0 61.0 L 33.0 61.0 L 32.0 61.0 L 31.0 61.0 L 30.0 61.0 L 29.0 61.0 L 28.0 61.0 L 27.0 61.0 L 26.0 61.0 L 25.0 61.0 L 24.0 61.0 L 23.0 61.0 L 22.0 61.0 L 21.0 61.0 L 20.0 61.0 L 19.0 61.0 L 18.0 61.0 L 17.0 61.0 L 16.0 61.0 L 15.0 61.0 L 14.0 61.0 L 13.333333333333334 61.333333333333336 L 13.0 62.0 L 13.333333333333334 62.666666666666664 L 14.0 63.0 L 15.0 63.0 L 16.0 63.0 L 17.0 63.0 L 18.0 63.0 L 19.0 63.0 L 20.0 63.0 L 21.0 63.0 L 22.0 63.0 L 23.0 63.0 L 24.0 63.0 L 25.0 63.0 L 26.0 63.0 L 27.0 63.0 L 28.0 63.0 L 29.0 63.0 L 30.0 63.0 L 31.0 63.0 L 32.0 63.0 L 33.0 63.0 L 34.0 63.0 L 35.0 63.0 L 36.0 63.0 L 37.0 63.0 L 38.0 63.0 L 39.0 63.0 L 40.0 63.0 L 41.0 63.0 L 42.0 63.0 L 43.0 63.0 L 44.0 63.0 L 45.0 63.0 L 46.0 63.0 L 47.0 63.0 L 48.0 63.0 L 49.0 63.0 L 50.0 63.0 L 51.0 63.0 L 52.0 63.0 L 53.0 63.0 L 54.0 63.0 L 55.0 63.0 L 56.0 63.0 L 57.0 63.0 L 58.0 63.0 L 59.0 63.0 L 60.0 63.0 L 61.0 63.0 L 62.0 63.0 L 63.0 63.0 L 64.0 63.0 L 65.0 63.0 L 66.0 63.0 L 67.0 63.0 L 68.0 63.0 L 69.0 63.0 L 70.0 63.0 L 71.0 63.0 L 71.5 63.0 Z" stroke="none" fill="rgb(46,152,203)" />
<path d="M 69.5 65.0 L 70.0 65.0 L 71.0 65.0 L 72.0 65.0 L 73.0 65.0 L 74.0 65.0 L 75.0 65.0 L 76.0 65.0 L 77.0 65.0 L 78.0 65.0 L 79.0 65.0 L 80.0 65.0 L 81.0 65.0 L 82.0 65.0 L 83.0 65.0 L 84.0 65.0 L 85.0 65.0 L 86.0 65.0 L 87.0 65.0 L 88.0 65.0 L 89.0 65.0 L 90.0 65.0 L 90.66666666666667 64.66666666666667 L 90.66666666666667 64.0 L 90.0 63.333333333333336 L 89.0 63.0 L 88.0 63.0 L 87.0 63.0 L 86.0 63.0 L 85.0 63.0 L 84.0 63.0 L 83.0 63.0 L 82.0 63.0 L 81.0 63.0 L 80.0 63.0 L 79.0 63.0 L 78.0 63.0 L 77.0 63.0 L 76.0 63.0 L 75.0 63.0 L 74.0 63.0 L 73.0 63.0 L 72.0 63.0 L 71.0 63.0 L 70.0 63.0 L 69.0 63.0 L 68.0 63.0 L 67.0 63.0 L 66.0 63.0 L 65.0 63.0 L 64.0 63.0 L 63.0 63.0 L 62.0 63.0 L 61.0 63.0 L 60.0 63.0 L 59.0 63.0 L 58.0 63.0 L 57.0 63.0 L 56.0 63.0 L 55.0 63.0 L 54.0 63.0 L 53.0 63.0 L 52.0 63.0 L 51.0 63.0 L 50.0 63.0 L 49.0 63.0 L 48.0 63.0 L 47.0 63.0 L 46.0 63.0 L 45.0 63.0 L 44.0 63.0 L 43.0 63.0 L 42.0 63.0 L 41.0 63.0 L 40.0 63.0 L 39.0 63.0 L 38.0 63.0 L 37.0 63.0 L 36.0 63.0 L 35.0 63.0 L 34.0 63.0 L 33.0 63.0 L 32.0 63.0 L 31.0 63.0 L 30.0 63.0 L 29.0 63.0 L 28.0 63.0 L 27.0 63.0 L 26.0 63.0 L 25.0 63.0 L 24.0 63.0 L 23.0 63.0 L 22.0 63.0 L 21.0 63.0 L 20.0 63.0 L 19.0 63.0 L 18.0 63.0 L 17.0 63.0 L 16.0 63.0 L 15.0 63.0 L 14.0 63.0 L 13.0 63.0 L 12.0 63.0 L 11.333333333333334 63.333333333333336 L 11.0 64.0 L 11.333333333333334 64.66666666666667 L 12.0 65.0 L 13.0 65.0 L 14.0 65.0 L 15.0 65.0 L 16.0 65.0 L 17.0 65.0 L 18.0 65.0 L 19.0 65.0 L 20.0 65.0 L 21.0 65.0 L 22.0 65.0 L 23.0 65.0 L 24.0 65.0 L 25.0 65.0 L 26.0 65.0 L 27.0 65.33333333333333 L 28.0 65.66666666666667 L 29.0 66.0 L 30.0 66.0 L 31.0 66.0 L 32.0 66.0 L 33.0 66.0 L 34.0 66.0 L 35.0 65.66666666666667 L 36.0 65.33333333333333 L 37.0 65.0 L 38.0 65.0 L 39.0 65.0 L 40.0 65.0 L 41.0 65.0 L 42.0 65.0 L 43.0 65.0 L 44.0 65.0 L 45.0 65.0 L 46.0 65.0 L 47.0 65.0 L 48.0 65.0 L 49.0 65.0 L 50.0 65.0 L 51.0 65.0 L 52.0 65.0 L 53.0 65.0 L 54.0 65.0 L 55.0 65.0 L 56.0 65.0 L 57.0 65.0 L 58.0 65.0 L 59.0 65.0 L 60.0 65.0 L 61.0 65.0 L 62.0 65.0 L 63.0 65.0 L 64.0 65.0 L 65.0 65.0 L 66.0 65.0 L 67.0 65.0 L 68.0 65.0 L 68.5 65.0 Z" stroke="none" fill="rgb(51,156,205)" />
<path d="M 90.5 64.0 L 90.66666666666667 63.666666666666664 L 90.66666666666667 63.333333333333336 L 90.33333333333333 63.333333333333336 L 90.0 63.5 Z" stroke="none" fill="rgb(46,152,203)" />
<path d="M 92.0 64.5 L 91.66666666666667 64.33333333333333 L 91.33333333333333 64.33333333333333 L 91.33333333333333 64.66666666666667 L 91.5 65.0 Z" stroke="none" fill="rgb(46,152,203)" />
<path d="M 13.5 67.0 L 14.0 67.0 L 15.0 67.0 L 16.0 67.0 L 17.0 67.0 L 18.0 67.0 L 19.0 67.0 L 20.0 67.0 L 21.0 67.0 L 22.0 67.0 L 23.0 67.0 L 24.0 67.0 L 25.0 67.0 L 26.0 67.0 L 27.0 67.0 L 28.0 67.0 L 28.666666666666668 66.66666666666667 L 28.666666666666668 66.0 L 28.0 65.33333333333333 L 27.0 65.0 L 26.0 65.0 L 25.0 65.0 L 24.0 65.0 L 23.0 65.0 L 22.0 65.0 L 21.0 65.0 L 20.0 65.0 L 19.0 65.0 L 18.0 65.0 L 17.0 65.0 L 16.0 65.0 L 15.0 65.0 L 14.0 65.0 L 13.0 65.0 L 12.0 65.0 L 11.0 65.0 L 10.333333333333334 65.33333333333333 L 10.0 66.0 L 10.333333333333334 66.66666666666667 L 11.0 67.0 L 12.0 67.0 L 12.5 67.0 Z" stroke="none" fill="rgb(57,160,208)" />
<path d="M 59.5 67.0 L 60.0 67.0 L 61.0 67.0 L 62.0 67.0 L 63.0 67.0 L 64.0 67.0 L 65.0 67.0 L 66.0 67.0 L 67.0 67.0 L 68.0 67.0 L 69.0 67.0 L 70.0 67.0 L 71.0 67.0 L 72.0 67.0 L 73.0 67.0 L 74.0 67.0 L 75.0 67.0 L 76.0 67.0 L 77.0 67.0 L 78.0 67.0 L 79.0 67.0 L 80.0 67.0 L 81.0 67.0 L 82.0 67.0 L 83.0 67.0 L 84.0 67.0 L 85.0 67.0 L 86.0 67.0 L 87.0 67.0 L 88.0 67.0 L 89.0 67.0 L 90.0 67.0 L 91.0 67.0 L 92.0 67.0 L 92.66666666666667 66.66666666666667 L 92.66666666666667 66.0 L 92.0 65.33333333333333 L 91.0 65.0 L 90.0 65.0 L 89.0 65.0 L 88.0 65.0 L 87.0 65.0 L 86.0 65.0 L 85.0 65.0 L 84.0 65.0 L 83.0 65.0 L 82.0 65.0 L 81.0 65.0 L 80.0 65.0 L 79.0 65.0 L 78.0 65.0 L 77.0 65.0 L 76.0 65.0 L 75.0 65.0 L 74.0 65.0 L 73.0 65.0 L 72.0 65.0 L 71.0 65.0 L 70.0 65.0 L 69.0 65.0 L 68.0 65.0 L 67.0 65.0 L 66.0 65.0 L 65.0 65.0 L 64.0 65.0 L 63.0 65.0 L 62.0 65.0 L 61.0 65.0 L 60.0 65.0 L 59.0 65.0 L 58.0 65.0 L 57.0 65.0 L 56.0 65.0 L 55.0 65.0 L 54.0 65.0 L 53.0 65.0 L 52.0 65.0 L 51.0 65.0 L 50.0 65.0 L 49.0 65.0 L 48.0 65.0 L 47.0 65.0 L 46.0 65.0 L 45.0 65.0 L 44.0 65.0 L 43.0 65.0 L 42.0 65.0 L 41.0 65.0 L 40.0 65.0 L 39.0 65.0 L 38.0 65.0 L 37.0 65.0 L 36.0 65.0 L 35.333333333333336 65.33333333333333 L 35.0 66.0 L 35.333333333333336 66.66666666666667 L 36.0 67.0 L 37.0 67.0 L 38.0 67.0 L 39.0 67.0 L 40.0 67.0 L 41.0 67.0 L 42.0 67.0 L 43.0 67.0 L 44.0 67.0 L 45.0 67.0 L 46.0 67.0 L 47.0 67.0 L 48.0 67.0 L 49.0 67.0 L 50.0 67.0 L 51.0 67.0 L 52.0 67.0 L 53.0 67.0 L 54.0 67.0 L 55.0 67.0 L 56.0 67.0 L 57.0 67.0 L 58.0 67.0 L 58.5 67.0 Z" stroke="none" fill="rgb(57,160,208)" />
<path d="M 33.5 73.0 L 34.0 73.0 L 35.0 72.66666666666667 L 35.666666666666664 72.0 L 36.0 71.0 L 36.0 70.0 L 36.0 69.0 L 36.0 68.0 L 35.666666666666664 67.0 L 35.0 66.33333333333333 L 34.0 66.0 L 33.0 66.0 L 32.0 66.0 L 31.0 66.0 L 30.0 66.0 L 29.0 66.33333333333333 L 28.333333333333332 67.0 L 28.0 68.0 L 28.0 69.0 L 28.0 70.0 L 28.0 71.0 L 28.333333333333332 71.66666666666667 L 29.0 72.33333333333333 L 30.0 72.66666666666667 L 31.0 73.0 L 32.0 73.0 L 32.5 73.0 Z" stroke="none" fill="rgb(38,45,51)" />
<path d="M 24.5 69.0 L 25.0 69.0 L 26.0 69.0 L 27.0 69.0 L 27.666666666666668 68.66666666666667 L 28.0 68.0 L 27.666666666666668 67.33333333333333 L 27.0 67.0 L 26.0 67.0 L 25.0 67.0 L 24.0 67.0 L 23.0 67.0 L 22.0 67.0 L 21.0 67.0 L 20.0 67.0 L 19.0 67.0 L 18.0 67.0 L 17.0 67.0 L 16.0 67.0 L 15.0 67.0 L 14.0 67.0 L 13.0 67.0 L 12.0 67.0 L 11.0 67.0 L 10.0 67.0 L 9.333333333333334 67.33333333333333 L 9.0 68.0 L 9.333333333333334 68.66666666666667 L 10.0 69.0 L 11.0 69.0 L 12.0 69.0 L 13.0 69.0 L 14.0 69.0 L 15.0 69.0 L 16.0 69.0 L 17.0 69.0 L 18.0 69.0 L 19.0 69.0 L 20.0 69.0 L 21.0 69.0 L 22.0 69.0 L 23.0 69.0 L 23.5 69.0 Z" stroke="none" fill="rgb(62,165,211)" />
<path d="M 59.5 70.0 L 60.0 70.0 L 61.0 70.0 L 62.0 70.0 L 63.0 70.0 L 64.0 70.0 L 65.0 70.0 L 66.0 70.0 L 67.0 70.0 L 68.0 70.0 L 69.0 70.0 L 70.0 70.0 L 71.0 70.0 L 72.0 70.0 L 73.0 70.0 L 74.0 70.0 L 75.0 70.0 L 76.0 70.0 L 77.0 70.0 L 78.0 70.0 L 79.0 70.0 L 80.0 70.0 L 81.0 70.0 L 82.0 70.0 L 83.0 69.66666666666667 L 84.0 69.33333333333333 L 85.0 69.0 L 86.0 69.0 L 87.0 69.0 L 88.0 69.0 L 89.0 69.0 L 90.0 69.0 L 91.0 69.0 L 92.0 69.0 L 93.0 69.0 L 94.0 69.0 L 94.66666666666667 68.66666666666667 L 94.66666666666667 68.0 L 94.0 67.33333333333333 L 93.0 67.0 L 92.0 67.0 L 91.0 67.0 L 90.0 67.0 L 89.0 67.0 L 88.0 67.0 L 87.0 67.0 L 86.0 67.0 L 85.0 67.0 L 84.0 67.0 L 83.0 67.0 L 82.0 67.0 L 81.0 67.0 L 80.0 67.0 L 79.0 67.0 L 78.0 67.0 L 77.0 67.0 L 76.0 67.0 L 75.0 67.0 L 74.0 67.0 L 73.0 67.0 L 72.0 67.0 L 71.0 67.0 L 70.0 67.0 L 69.0 67.0 L 68.0 67.0 L 67.0 67.0 L 66.0 67.0 L 65.0 67.0 L 64.0 67.0 L 63.0 67.0 L 62.0 67.0 L 61.0 67.0 L 60.0 67.0 L 59.0 67.0 L 58.0 67.0 L 57.0 67.0 L 56.0 67.0 L 55.0 67.0 L 54.0 67.0 L 53.0 67.0 L 52.0 67.0 L 51.0 67.0 L 50.0 67.0 L 49.0 67.0 L 48.0 67.0 L 47.0 67.0 L 46.0 67.0 L 45.0 67.0 L 44.0 67.0 L 43.0 67.0 L 42.0 67.0 L 41.0 67.0 L 40.0 67.0 L 39.0 67.0 L 38.0 67.0 L 37.0 67.0 L 36.333333333333336 67.33333333333333 L 36.0 68.0 L 36.333333333333336 68.66666666666667 L 37.0 69.0 L 38.0 69.0 L 39.0 69.0 L 40.0 69.0 L 41.0 69.0 L 42.0 69.0 L 43.0 69.0 L 44.0 69.0 L 45.0 69.0 L 46.0 69.0 L 47.0 69.0 L 48.0 69.0 L 49.0 69.0 L 50.0 69.33333333333333 L 51.0 69.66666666666667 L 52.0 70.0 L 53.0 70.0 L 54.0 70.0 L 55.0 70.0 L 56.0 70.0 L 57.0 70.0 L 58.0 70.0 L 58.5 70.0 Z" stroke="none" fill="rgb(62,165,211)" />
<path d="M 18.5 72.0 L 19.0 72.0 L 20.0 72.0 L 21.0 72.0 L 22.0 72.0 L 23.0 72.0 L 24.0 72.0 L 25.0 72.0 L 26.0 72.0 L 27.0 72.0 L 27.666666666666668 71.66666666666667 L 28.0 71.0 L 28.0 70.0 L 27.666666666666668 69.33333333333333 L 27.0 69.0 L 26.0 69.0 L 25.0 69.0 L 24.0 69.0 L 23.0 69.0 L 22.0 69.0 L 21.0 69.0 L 20.0 69.0 L 19.0 69.0 L 18.0 69.0 L 17.0 69.0 L 16.0 69.0 L 15.0 69.0 L 14.0 69.0 L 13.0 69.0 L 12.0 69.0 L 11.0 69.0 L 10.0 69.0 L 9.0 69.0 L 8.333333333333334 69.33333333333333 L 8.0 70.0 L 8.0 71.0 L 8.333333333333334 72.0 L 9.0 72.66666666666667 L 10.0 73.33333333333333 L 11.0 73.66666666666667 L 12.0 74.0 L 12.666666666666666 73.66666666666667 L 13.333333333333334 73.0 L 14.0 72.33333333333333 L 15.0 72.0 L 16.0 72.0 L 17.0 72.0 L 17.5 72.0 Z" stroke="none" fill="rgb(69,169,215)" />
<path d="M 50.5 72.0 L 51.0 72.0 L 51.666666666666664 71.66666666666667 L 52.0 71.0 L 51.666666666666664 70.0 L 51.0 69.33333333333333 L 50.0 69.0 L 49.0 69.0 L 48.0 69.0 L 47.0 69.0 L 46.0 69.0 L 45.0 69.0 L 44.0 69.0 L 43.0 69.0 L 42.0 69.0 L 41.0 69.0 L 40.0 69.0 L 39.0 69.0 L 38.0 69.0 L 37.0 69.0 L 36.333333333333336 69.33333333333333 L 36.0 70.0 L 36.0 71.0 L 36.333333333333336 71.66666666666667 L 37.0 72.0 L 38.0 72.0 L 39.0 72.0 L 40.0 72.0 L 41.0 72.0 L 42.0 72.0 L 43.0 72.0 L 44.0 72.0 L 45.0 72.0 L 46.0 72.0 L 47.0 72.33333333333333 L 48.0 72.66666666666667 L 49.0 72.66666666666667 L 49.5 72.5 Z" stroke="none" fill="rgb(69,169,215)" />
<path d="M 84.5 71.0 L 85.0 71.0 L 86.0 71.0 L 87.0 71.33333333333333 L 88.0 71.66666666666667 L 89.0 72.0 L 90.0 72.0 L 91.0 72.0 L 92.0 72.33333333333333 L 93.0 72.66666666666667 L 94.0 73.0 L 95.0 73.0 L 96.0 73.33333333333333 L 97.0 73.66666666666667 L 98.0 74.0 L 98.66666666666667 73.66666666666667 L 98.66666666666667 73.0 L 98.0 72.0 L 97.33333333333333 71.0 L 96.66666666666667 70.0 L 96.0 69.33333333333333 L 95.0 69.0 L 94.0 69.0 L 93.0 69.0 L 92.0 69.0 L 91.0 69.0 L 90.0 69.0 L 89.0 69.0 L 88.0 69.0 L 87.0 69.0 L 86.0 69.0 L 85.0 69.0 L 84.0 69.0 L 83.33333333333333 69.33333333333333 L 83.0 70.0 L 83.33333333333333 70.66666666666667 L 83.5 71.0 Z" stroke="none" fill="rgb(69,169,215)" />
<path d="M 73.5 73.0 L 74.0 73.0 L 75.0 73.0 L 76.0 73.0 L 77.0 73.33333333333333 L 78.0 73.66666666666667 L 79.0 74.0 L 80.0 74.0 L 81.0 74.0 L 82.0 74.0 L 83.0 74.0 L 84.0 74.33333333333333 L 85.0 74.66666666666667 L 86.0 75.0 L 87.0 75.0 L 88.0 75.0 L 89.0 75.0 L 90.0 75.33333333333333 L 91.0 75.66666666666667 L 92.0 76.0 L 93.0 76.0 L 94.0 76.0 L 95.0 76.0 L 96.0 76.0 L 97.0 76.0 L 98.0 76.0 L 99.0 76.0 L 99.66666666666667 75.66666666666667 L 99.66666666666667 75.0 L 99.0 74.33333333333333 L 98.0 73.66666666666667 L 97.0 73.33333333333333 L 96.0 73.0 L 95.0 73.0 L 94.0 72.66666666666667 L 93.0 72.33333333333333 L 92.0 72.0 L 91.0 72.0 L 90.0 72.0 L 89.0 71.66666666666667 L 88.0 71.33333333333333 L 87.0 71.0 L 86.0 71.0 L 85.0 71.0 L 84.0 70.66666666666667 L 83.0 70.33333333333333 L 82.0 70.0 L 81.0 70.0 L 80.0 70.0 L 79.0 70.0 L 78.0 70.0 L 77.0 70.0 L 76.0 70.0 L 75.0 70.0 L 74.0 70.0 L 73.0 70.0 L 72.0 70.0 L 71.0 70.0 L 70.0 70.0 L 69.0 70.0 L 68.0 70.0 L 67.0 70.0 L 66.0 70.0 L 65.0 70.0 L 64.0 70.0 L 63.0 70.0 L 62.0 70.0 L 61.0 70.0 L 60.0 70.0 L 59.0 70.0 L 58.0 70.0 L 57.0 70.0 L 56.0 70.0 L 55.0 70.0 L 54.0 70.0 L 53.0 70.0 L 52.333333333333336 70.33333333333333 L 52.0 71.0 L 52.333333333333336 71.66666666666667 L 53.0 72.0 L 54.0 72.0 L 55.0 72.0 L 56.0 72.0 L 57.0 72.0 L 58.0 72.33333333333333 L 59.0 72.66666666666667 L 60.0 73.0 L 61.0 73.0 L 62.0 73.0 L 63.0 73.0 L 64.0 73.0 L 65.0 73.0 L 66.0 73.0 L 67.0 73.0 L 68.0 73.0 L 69.0 73.0 L 70.0 73.0 L 71.0 73.0 L 72.0 73.0 L 72.5 73.0 Z" stroke="none" fill="rgb(224,236,243)" />
<path d="M 48.5 84.0 L 48.666666666666664 83.66666666666667 L 49.0 83.0 L 49.0 82.0 L 49.0 81.0 L 49.0 80.0 L 49.333333333333336 79.0 L 49.666666666666664 78.0 L 49.666666666666664 77.0 L 49.333333333333336 76.0 L 49.0 75.0 L 49.0 74.0 L 48.666666666666664 73.0 L 48.0 72.0 L 47.0 71.33333333333333 L 46.0 71.33333333333333 L 45.333333333333336 72.0 L 45.0 73.0 L 45.0 74.0 L 45.0 75.0 L 45.0 76.0 L 45.0 77.0 L 44.666666666666664 78.0 L 44.0 79.0 L 43.333333333333336 80.0 L 42.666666666666664 81.0 L 42.333333333333336 82.0 L 41.666666666666664 83.0 L 41.0 84.0 L 40.333333333333336 85.0 L 40.0 86.0 L 40.0 87.0 L 40.0 88.0 L 40.333333333333336 88.66666666666667 L 41.0 89.0 L 42.0 89.0 L 43.0 88.66666666666667 L 43.666666666666664 88.0 L 44.333333333333336 87.0 L 45.0 86.0 L 46.0 85.0 L 47.0 84.33333333333333 L 47.5 84.0 Z" stroke="none" fill="rgb(224,236,243)" />
<path d="M 13.5 85.0 L 14.0 84.66666666666667 L 15.0 84.33333333333333 L 16.0 84.0 L 16.666666666666668 83.66666666666667 L 17.333333333333332 83.0 L 18.0 82.0 L 18.666666666666668 81.0 L 19.0 80.0 L 19.0 79.0 L 18.666666666666668 78.0 L 18.0 77.33333333333333 L 17.0 76.66666666666667 L 16.0 76.0 L 15.0 75.33333333333333 L 14.0 74.66666666666667 L 13.0 74.33333333333333 L 12.0 73.66666666666667 L 11.0 73.33333333333333 L 10.0 72.66666666666667 L 9.0 72.33333333333333 L 8.0 72.0 L 7.0 72.0 L 6.0 72.0 L 5.333333333333333 72.33333333333333 L 5.0 73.0 L 5.0 74.0 L 5.0 75.0 L 5.333333333333333 75.66666666666667 L 6.0 76.33333333333333 L 7.0 76.66666666666667 L 8.0 77.33333333333333 L 9.0 77.66666666666667 L 10.0 78.33333333333333 L 11.0 79.0 L 11.333333333333334 80.0 L 11.0 80.66666666666667 L 10.0 81.33333333333333 L 9.0 81.66666666666667 L 8.333333333333334 82.33333333333333 L 7.666666666666667 83.0 L 7.333333333333333 84.0 L 7.333333333333333 85.0 L 8.0 85.66666666666667 L 9.0 86.33333333333333 L 10.0 86.66666666666667 L 11.0 86.66666666666667 L 12.0 86.0 L 12.5 85.5 Z" stroke="none" fill="rgb(27,101,166)" />
<path d="M 42.5 75.0 L 43.0 75.0 L 44.0 75.0 L 44.666666666666664 74.66666666666667 L 45.0 74.0 L 45.0 73.0 L 44.666666666666664 72.33333333333333 L 44.0 72.0 L 43.0 72.0 L 42.0 72.0 L 41.0 72.0 L 40.0 72.0 L 39.0 72.0 L 38.0 72.0 L 37.0 72.0 L 36.0 72.0 L 35.0 72.33333333333333 L 34.0 72.66666666666667 L 33.0 73.0 L 32.0 73.0 L 31.0 72.66666666666667 L 30.0 72.33333333333333 L 29.0 72.0 L 28.0 72.0 L 27.0 72.0 L 26.0 72.0 L 25.0 72.0 L 24.0 72.0 L 23.0 72.0 L 22.0 72.0 L 21.0 72.0 L 20.0 72.0 L 19.0 72.0 L 18.0 72.0 L 17.0 72.0 L 16.0 72.0 L 15.0 72.0 L 14.0 72.0 L 13.333333333333334 72.33333333333333 L 13.0 73.0 L 13.0 74.0 L 13.333333333333334 74.66666666666667 L 14.0 75.33333333333333 L 15.0 76.0 L 16.0 76.66666666666667 L 17.0 77.0 L 17.666666666666668 76.66666666666667 L 18.333333333333332 76.0 L 19.0 75.33333333333333 L 20.0 75.0 L 21.0 75.0 L 22.0 75.0 L 23.0 75.0 L 24.0 75.0 L 25.0 75.0 L 26.0 75.0 L 27.0 75.0 L 28.0 75.0 L 29.0 75.0 L 30.0 75.0 L 31.0 75.0 L 32.0 75.0 L 33.0 75.0 L 34.0 75.0 L 35.0 75.0 L 36.0 75.0 L 37.0 75.0 L 38.0 75.0 L 39.0 75.0 L 40.0 75.0 L 41.0 75.0 L 41.5 75.0 Z" stroke="none" fill="rgb(78,177,220)" />
<path d="M 51.5 75.0 L 52.0 75.0 L 53.0 75.0 L 54.0 75.0 L 55.0 75.0 L 56.0 75.0 L 57.0 75.0 L 58.0 75.0 L 59.0 75.0 L 60.0 75.0 L 61.0 75.0 L 62.0 75.0 L 63.0 75.0 L 64.0 75.0 L 65.0 75.0 L 66.0 75.0 L 67.0 75.0 L 68.0 75.0 L 69.0 75.0 L 70.0 75.0 L 71.0 75.0 L 72.0 75.0 L 73.0 75.0 L 74.0 75.0 L 75.0 75.0 L 76.0 75.0 L 77.0 75.0 L 78.0 75.0 L 78.66666666666667 74.66666666666667 L 78.66666666666667 74.0 L 78.0 73.33333333333333 L 77.0 73.0 L 76.0 73.0 L 75.0 73.0 L 74.0 73.0 L 73.0 73.0 L 72.0 73.0 L 71.0 73.0 L 70.0 73.0 L 69.0 73.0 L 68.0 73.0 L 67.0 73.0 L 66.0 73.0 L 65.0 73.0 L 64.0 73.0 L 63.0 73.0 L 62.0 73.0 L 61.0 73.0 L 60.0 72.66666666666667 L 59.0 72.33333333333333 L 58.0 72.0 L 57.0 72.0 L 56.0 72.0 L 55.0 72.0 L 54.0 72.0 L 53.0 72.0 L 52.0 72.0 L 51.0 72.0 L 50.0 72.0 L 49.333333333333336 72.33333333333333 L 49.0 73.0 L 49.0 74.0 L 49.333333333333336 74.66666666666667 L 50.0 75.0 L 50.5 75.0 Z" stroke="none" fill="rgb(78,177,220)" />
<path d="M 59.0 78.5 L 59.333333333333336 78.0 L 60.0 77.33333333333333 L 61.0 77.0 L 62.0 77.0 L 63.0 77.0 L 64.0 77.0 L 65.0 77.0 L 66.0 77.0 L 67.0 77.0 L 68.0 77.0 L 69.0 77.0 L 70.0 77.0 L 71.0 77.0 L 72.0 77.0 L 73.0 77.0 L 74.0 77.0 L 75.0 77.0 L 76.0 77.0 L 77.0 77.0 L 78.0 77.0 L 79.0 77.0 L 80.0 77.0 L 81.0 77.0 L 82.0 77.0 L 83.0 77.0 L 84.0 77.0 L 85.0 77.0 L 86.0 77.0 L 87.0 77.0 L 88.0 77.0 L 89.0 77.0 L 90.0 77.0 L 91.0 77.0 L 91.66666666666667 76.66666666666667 L 91.66666666666667 76.0 L 91.0 75.33333333333333 L 90.0 75.0 L 89.0 75.0 L 88.0 75.0 L 87.0 75.0 L 86.0 74.66666666666667 L 85.0 74.33333333333333 L 84.0 74.0 L 83.0 74.0 L 82.0 74.0 L 81.0 74.0 L 80.0 74.0 L 79.0 74.33333333333333 L 78.0 74.66666666666667 L 77.0 75.0 L 76.0 75.0 L 75.0 75.0 L 74.0 75.0 L 73.0 75.0 L 72.0 75.0 L 71.0 75.0 L 70.0 75.0 L 69.0 75.0 L 68.0 75.0 L 67.0 75.0 L 66.0 75.0 L 65.0 75.0 L 64.0 75.0 L 63.0 75.0 L 62.0 75.0 L 61.0 75.0 L 60.0 75.0 L 59.0 75.0 L 58.0 75.0 L 57.0 75.0 L 56.0 75.0 L 55.0 75.0 L 54.0 75.0 L 53.0 75.0 L 52.0 75.0 L 51.0 75.0 L 50.0 75.0 L 49.333333333333336 75.33333333333333 L 49.0 76.0 L 49.333333333333336 77.0 L 50.0 77.66666666666667 L 51.0 78.0 L 52.0 78.0 L 53.0 78.0 L 54.0 78.0 L 55.0 78.0 L 56.0 78.33333333333333 L 57.0 78.66666666666667 L 58.0 79.0 L 58.5 79.0 Z" stroke="none" fill="rgb(85,183,224)" />
<path d="M 42.5 77.0 L 43.0 77.0 L 44.0 77.0 L 44.666666666666664 76.66666666666667 L 45.0 76.0 L 44.666666666666664 75.33333333333333 L 44.0 75.0 L 43.0 75.0 L 42.0 75.0 L 41.0 75.0 L 40.0 75.0 L 39.0 75.0 L 38.0 75.0 L 37.0 75.0 L 36.0 75.0 L 35.0 75.0 L 34.0 75.0 L 33.0 75.0 L 32.0 75.0 L 31.0 75.0 L 30.0 75.0 L 29.0 75.0 L 28.0 75.0 L 27.0 75.0 L 26.0 75.0 L 25.0 75.0 L 24.0 75.0 L 23.0 75.0 L 22.0 75.0 L 21.0 75.0 L 20.0 75.0 L 19.0 75.0 L 18.333333333333332 75.33333333333333 L 18.0 76.0 L 18.333333333333332 77.0 L 19.0 77.66666666666667 L 20.0 77.66666666666667 L 21.0 77.33333333333333 L 22.0 77.0 L 23.0 77.0 L 24.0 77.0 L 25.0 77.0 L 26.0 77.0 L 27.0 77.0 L 28.0 77.0 L 29.0 77.0 L 30.0 77.0 L 31.0 77.0 L 32.0 77.0 L 33.0 77.0 L 34.0 77.0 L 35.0 77.0 L 36.0 77.0 L 37.0 77.0 L 38.0 77.0 L 39.0 77.0 L 40.0 77.0 L 41.0 77.0 L 41.5 77.0 Z" stroke="none" fill="rgb(85,183,224)" />
<path d="M 59.5 79.5 L 60.0 79.66666666666667 L 61.0 80.0 L 62.0 80.33333333333333 L 63.0 80.66666666666667 L 64.0 81.0 L 65.0 81.0 L 66.0 80.66666666666667 L 67.0 80.33333333333333 L 68.0 80.0 L 69.0 80.0 L 70.0 80.0 L 71.0 80.0 L 72.0 80.0 L 73.0 80.0 L 74.0 80.0 L 75.0 80.0 L 76.0 80.0 L 77.0 80.0 L 78.0 80.0 L 79.0 80.0 L 80.0 80.0 L 81.0 80.0 L 82.0 80.0 L 83.0 80.0 L 84.0 80.0 L 85.0 80.0 L 86.0 80.0 L 87.0 80.0 L 88.0 80.0 L 89.0 80.0 L 90.0 80.0 L 91.0 80.0 L 92.0 80.0 L 93.0 80.0 L 94.0 80.0 L 95.0 80.0 L 96.0 80.33333333333333 L 96.66666666666667 81.0 L 97.33333333333333 81.66666666666667 L 98.0 81.66666666666667 L 98.66666666666667 81.0 L 99.33333333333333 80.0 L 99.66666666666667 79.0 L 100.0 78.0 L 100.0 77.0 L 99.66666666666667 76.33333333333333 L 99.0 76.0 L 98.0 76.0 L 97.0 76.0 L 96.0 76.0 L 95.0 76.0 L 94.0 76.0 L 93.0 76.0 L 92.0 76.33333333333333 L 91.0 76.66666666666667 L 90.0 77.0 L 89.0 77.0 L 88.0 77.0 L 87.0 77.0 L 86.0 77.0 L 85.0 77.0 L 84.0 77.0 L 83.0 77.0 L 82.0 77.0 L 81.0 77.0 L 80.0 77.0 L 79.0 77.0 L 78.0 77.0 L 77.0 77.0 L 76.0 77.0 L 75.0 77.0 L 74.0 77.0 L 73.0 77.0 L 72.0 77.0 L 71.0 77.0 L 70.0 77.0 L 69.0 77.0 L 68.0 77.0 L 67.0 77.0 L 66.0 77.0 L 65.0 77.0 L 64.0 77.0 L 63.0 77.0 L 62.0 77.0 L 61.0 77.0 L 60.0 77.0 L 59.333333333333336 77.33333333333333 L 59.0 78.0 L 59.0 78.5 Z" stroke="none" fill="rgb(92,189,228)" />
<path d="M 18.5 78.0 L 18.666666666666668 77.66666666666667 L 18.666666666666668 77.33333333333333 L 18.333333333333332 77.33333333333333 L 18.0 77.5 Z" stroke="none" fill="rgb(78,177,220)" />
<path d="M 24.5 80.0 L 25.0 80.0 L 26.0 80.0 L 27.0 80.0 L 28.0 80.0 L 29.0 80.0 L 30.0 80.0 L 31.0 80.0 L 32.0 80.0 L 33.0 80.0 L 34.0 80.0 L 35.0 80.0 L 36.0 80.0 L 37.0 80.0 L 38.0 80.0 L 39.0 80.0 L 40.0 80.0 L 41.0 80.0 L 42.0 80.0 L 43.0 80.0 L 44.0 79.66666666666667 L 44.666666666666664 79.0 L 45.0 78.0 L 44.666666666666664 77.33333333333333 L 44.0 77.0 L 43.0 77.0 L 42.0 77.0 L 41.0 77.0 L 40.0 77.0 L 39.0 77.0 L 38.0 77.0 L 37.0 77.0 L 36.0 77.0 L 35.0 77.0 L 34.0 77.0 L 33.0 77.0 L 32.0 77.0 L 31.0 77.0 L 30.0 77.0 L 29.0 77.0 L 28.0 77.0 L 27.0 77.0 L 26.0 77.0 L 25.0 77.0 L 24.0 77.0 L 23.0 77.0 L 22.0 77.0 L 21.0 77.0 L 20.0 77.33333333333333 L 19.333333333333332 78.0 L 19.0 79.0 L 19.0 80.0 L 19.333333333333332 80.66666666666667 L 20.0 80.66666666666667 L 21.0 80.33333333333333 L 22.0 80.0 L 23.0 80.0 L 23.5 80.0 Z" stroke="none" fill="rgb(92,189,228)" />
<path d="M 59.5 92.0 L 60.0 92.33333333333333 L 61.0 92.66666666666667 L 62.0 93.0 L 63.0 93.0 L 64.0 93.0 L 65.0 93.0 L 66.0 93.0 L 67.0 93.0 L 68.0 93.0 L 69.0 93.0 L 70.0 93.0 L 71.0 93.0 L 72.0 93.0 L 73.0 93.0 L 74.0 93.0 L 75.0 93.0 L 76.0 93.0 L 76.66666666666667 92.66666666666667 L 77.0 92.0 L 77.0 91.0 L 76.66666666666667 90.0 L 76.0 89.0 L 75.0 88.0 L 74.0 87.0 L 73.0 86.0 L 72.0 85.33333333333333 L 71.0 85.0 L 70.0 84.66666666666667 L 69.0 84.0 L 68.0 83.0 L 67.0 82.0 L 66.0 81.33333333333333 L 65.0 81.0 L 64.0 80.66666666666667 L 63.0 80.33333333333333 L 62.0 80.0 L 61.0 79.66666666666667 L 60.0 79.33333333333333 L 59.0 79.0 L 58.0 78.66666666666667 L 57.0 78.33333333333333 L 56.0 78.0 L 55.0 78.0 L 54.0 78.0 L 53.0 78.0 L 52.0 78.0 L 51.0 78.0 L 50.0 78.0 L 49.333333333333336 78.33333333333333 L 49.0 79.0 L 49.0 80.0 L 49.0 81.0 L 49.0 82.0 L 49.0 83.0 L 49.0 84.0 L 49.333333333333336 85.0 L 50.0 86.0 L 50.666666666666664 87.0 L 51.333333333333336 88.0 L 52.0 89.0 L 53.0 89.66666666666667 L 54.0 90.33333333333333 L 55.0 91.0 L 56.0 91.66666666666667 L 57.0 92.0 L 58.0 92.0 L 58.5 92.0 Z" stroke="none" fill="rgb(27,101,166)" />
<path d="M 21.5 84.0 L 22.0 84.0 L 23.0 84.0 L 24.0 84.0 L 25.0 84.0 L 26.0 84.0 L 27.0 84.0 L 28.0 84.0 L 29.0 84.0 L 30.0 84.0 L 31.0 84.0 L 32.0 84.0 L 33.0 84.0 L 34.0 84.0 L 35.0 84.0 L 36.0 84.0 L 37.0 84.0 L 38.0 84.0 L 39.0 84.33333333333333 L 40.0 84.66666666666667 L 41.0 84.66666666666667 L 41.666666666666664 84.0 L 42.333333333333336 83.0 L 42.666666666666664 82.0 L 43.0 81.0 L 42.666666666666664 80.33333333333333 L 42.0 80.0 L 41.0 80.0 L 40.0 80.0 L 39.0 80.0 L 38.0 80.0 L 37.0 80.0 L 36.0 80.0 L 35.0 80.0 L 34.0 80.0 L 33.0 80.0 L 32.0 80.0 L 31.0 80.0 L 30.0 80.0 L 29.0 80.0 L 28.0 80.0 L 27.0 80.0 L 26.0 80.0 L 25.0 80.0 L 24.0 80.0 L 23.0 80.0 L 22.0 80.0 L 21.0 80.0 L 20.0 80.33333333333333 L 19.0 80.66666666666667 L 18.0 81.33333333333333 L 17.333333333333332 82.0 L 17.0 83.0 L 17.333333333333332 83.66666666666667 L 18.0 84.0 L 19.0 84.0 L 20.0 84.0 L 20.5 84.0 Z" stroke="none" fill="rgb(101,195,232)" />
<path d="M 76.5 84.0 L 77.0 84.0 L 78.0 84.0 L 79.0 84.0 L 80.0 84.0 L 81.0 84.0 L 82.0 84.0 L 83.0 84.0 L 84.0 84.0 L 85.0 84.0 L 86.0 84.0 L 87.0 84.0 L 88.0 84.0 L 89.0 84.0 L 90.0 84.0 L 91.0 84.0 L 92.0 84.0 L 93.0 84.33333333333333 L 94.0 84.66666666666667 L 95.0 84.66666666666667 L 96.0 84.0 L 96.66666666666667 83.0 L 97.0 82.0 L 97.0 81.0 L 96.66666666666667 80.33333333333333 L 96.0 80.0 L 95.0 80.0 L 94.0 80.0 L 93.0 80.0 L 92.0 80.0 L 91.0 80.0 L 90.0 80.0 L 89.0 80.0 L 88.0 80.0 L 87.0 80.0 L 86.0 80.0 L 85.0 80.0 L 84.0 80.0 L 83.0 80.0 L 82.0 80.0 L 81.0 80.0 L 80.0 80.0 L 79.0 80.0 L 78.0 80.0 L 77.0 80.0 L 76.0 80.0 L 75.0 80.0 L 74.0 80.0 L 73.0 80.0 L 72.0 80.0 L 71.0 80.0 L 70.0 80.0 L 69.0 80.0 L 68.0 80.0 L 67.0 80.0 L 66.33333333333333 80.33333333333333 L 66.0 81.0 L 66.33333333333333 82.0 L 67.0 83.0 L 68.0 84.0 L 69.0 84.66666666666667 L 70.0 85.0 L 71.0 85.0 L 72.0 84.66666666666667 L 73.0 84.33333333333333 L 74.0 84.0 L 75.0 84.0 L 75.5 84.0 Z" stroke="none" fill="rgb(101,195,232)" />
<path d="M 20.5 88.0 L 21.0 88.0 L 22.0 88.0 L 23.0 88.0 L 24.0 88.0 L 25.0 88.0 L 26.0 88.0 L 27.0 88.0 L 28.0 88.0 L 29.0 88.0 L 30.0 88.0 L 31.0 88.0 L 32.0 88.0 L 33.0 88.0 L 34.0 88.0 L 35.0 88.0 L 36.0 88.0 L 37.0 88.0 L 38.0 88.33333333333333 L 39.0 88.66666666666667 L 39.666666666666664 88.66666666666667 L 40.0 88.0 L 40.0 87.0 L 40.0 86.0 L 40.0 85.0 L 39.666666666666664 84.33333333333333 L 39.0 84.0 L 38.0 84.0 L 37.0 84.0 L 36.0 84.0 L 35.0 84.0 L 34.0 84.0 L 33.0 84.0 L 32.0 84.0 L 31.0 84.0 L 30.0 84.0 L 29.0 84.0 L 28.0 84.0 L 27.0 84.0 L 26.0 84.0 L 25.0 84.0 L 24.0 84.0 L 23.0 84.0 L 22.0 84.0 L 21.0 84.0 L 20.0 84.0 L 19.0 84.0 L 18.0 84.0 L 17.0 84.0 L 16.0 84.0 L 15.0 84.0 L 14.0 84.33333333333333 L 13.0 84.66666666666667 L 12.0 85.33333333333333 L 11.333333333333334 86.0 L 11.0 87.0 L 11.333333333333334 88.0 L 12.0 88.66666666666667 L 13.0 88.66666666666667 L 14.0 88.33333333333333 L 15.0 88.0 L 16.0 88.0 L 17.0 88.0 L 18.0 88.0 L 19.0 88.0 L 19.5 88.0 Z" stroke="none" fill="rgb(111,198,233)" />
<path d="M 46.5 88.0 L 47.0 88.0 L 48.0 88.0 L 49.0 88.0 L 50.0 88.0 L 50.666666666666664 87.66666666666667 L 51.0 87.0 L 50.666666666666664 86.0 L 50.0 85.0 L 49.0 84.33333333333333 L 48.0 84.0 L 47.0 84.0 L 46.0 84.33333333333333 L 45.0 85.0 L 44.333333333333336 86.0 L 44.0 87.0 L 44.333333333333336 87.66666666666667 L 45.0 88.0 L 45.5 88.0 Z" stroke="none" fill="rgb(111,198,233)" />
<path d="M 75.5 89.5 L 76.0 89.66666666666667 L 76.66666666666667 89.66666666666667 L 77.33333333333333 89.0 L 78.0 88.33333333333333 L 79.0 88.0 L 80.0 88.0 L 81.0 88.0 L 82.0 88.0 L 83.0 88.0 L 84.0 88.0 L 85.0 88.0 L 86.0 88.0 L 87.0 88.0 L 88.0 88.0 L 89.0 88.33333333333333 L 90.0 88.66666666666667 L 91.0 89.0 L 92.0 88.66666666666667 L 93.0 88.0 L 93.66666666666667 87.0 L 94.0 86.0 L 94.0 85.0 L 93.66666666666667 84.33333333333333 L 93.0 84.0 L 92.0 84.0 L 91.0 84.0 L 90.0 84.0 L 89.0 84.0 L 88.0 84.0 L 87.0 84.0 L 86.0 84.0 L 85.0 84.0 L 84.0 84.0 L 83.0 84.0 L 82.0 84.0 L 81.0 84.0 L 80.0 84.0 L 79.0 84.0 L 78.0 84.0 L 77.0 84.0 L 76.0 84.0 L 75.0 84.0 L 74.0 84.0 L 73.0 84.0 L 72.33333333333333 84.33333333333333 L 72.0 85.0 L 72.33333333333333 86.0 L 73.0 87.0 L 74.0 88.0 L 74.5 88.5 Z" stroke="none" fill="rgb(111,198,233)" />
<path d="M 24.5 92.0 L 25.0 92.0 L 26.0 92.0 L 27.0 92.0 L 28.0 92.0 L 29.0 92.0 L 30.0 92.0 L 31.0 92.0 L 32.0 92.0 L 33.0 92.0 L 34.0 92.0 L 35.0 92.0 L 36.0 92.0 L 37.0 92.0 L 38.0 92.0 L 39.0 92.0 L 40.0 92.0 L 41.0 92.0 L 42.0 92.0 L 43.0 92.0 L 44.0 92.0 L 45.0 92.0 L 46.0 92.0 L 47.0 92.0 L 48.0 92.0 L 49.0 92.0 L 50.0 92.0 L 51.0 92.0 L 52.0 92.0 L 53.0 92.0 L 54.0 92.0 L 55.0 92.0 L 55.666666666666664 91.66666666666667 L 55.666666666666664 91.0 L 55.0 90.33333333333333 L 54.0 89.66666666666667 L 53.0 89.0 L 52.0 88.33333333333333 L 51.0 88.0 L 50.0 88.0 L 49.0 88.0 L 48.0 88.0 L 47.0 88.0 L 46.0 88.0 L 45.0 88.0 L 44.0 88.0 L 43.0 88.33333333333333 L 42.0 88.66666666666667 L 41.0 89.0 L 40.0 88.66666666666667 L 39.0 88.33333333333333 L 38.0 88.0 L 37.0 88.0 L 36.0 88.0 L 35.0 88.0 L 34.0 88.0 L 33.0 88.0 L 32.0 88.0 L 31.0 88.0 L 30.0 88.0 L 29.0 88.0 L 28.0 88.0 L 27.0 88.0 L 26.0 88.0 L 25.0 88.0 L 24.0 88.0 L 23.0 88.0 L 22.0 88.0 L 21.0 88.0 L 20.0 88.0 L 19.0 88.0 L 18.0 88.0 L 17.0 88.0 L 16.0 88.0 L 15.0 88.0 L 14.0 88.0 L 13.333333333333334 88.33333333333333 L 13.0 89.0 L 13.333333333333334 90.0 L 13.666666666666666 91.0 L 14.333333333333334 91.66666666666667 L 15.0 92.33333333333333 L 16.0 92.66666666666667 L 17.0 92.66666666666667 L 18.0 92.33333333333333 L 19.0 92.0 L 20.0 92.0 L 21.0 92.0 L 22.0 92.0 L 23.0 92.0 L 23.5 92.0 Z" stroke="none" fill="rgb(120,202,235)" />
<path d="M 88.5 92.5 L 89.0 92.0 L 90.0 91.0 L 90.66666666666667 90.0 L 90.66666666666667 89.0 L 90.0 88.33333333333333 L 89.0 88.0 L 88.0 88.0 L 87.0 88.0 L 86.0 88.0 L 85.0 88.0 L 84.0 88.0 L 83.0 88.0 L 82.0 88.0 L 81.0 88.0 L 80.0 88.0 L 79.0 88.0 L 78.0 88.0 L 77.33333333333333 88.33333333333333 L 77.0 89.0 L 77.0 90.0 L 77.0 91.0 L 77.0 92.0 L 77.33333333333333 92.66666666666667 L 78.0 93.0 L 79.0 92.66666666666667 L 80.0 92.33333333333333 L 81.0 92.0 L 82.0 92.0 L 83.0 92.0 L 84.0 92.0 L 85.0 92.33333333333333 L 86.0 92.66666666666667 L 87.0 93.0 L 87.5 93.0 Z" stroke="none" fill="rgb(120,202,235)" />
<path d="M 58.5 95.0 L 59.0 95.0 L 60.0 95.0 L 61.0 95.0 L 62.0 95.0 L 63.0 95.0 L 64.0 95.0 L 65.0 95.0 L 66.0 95.0 L 67.0 95.0 L 68.0 95.0 L 69.0 95.0 L 70.0 95.0 L 71.0 95.0 L 72.0 95.0 L 73.0 95.0 L 74.0 95.0 L 75.0 95.0 L 76.0 95.0 L 77.0 95.0 L 78.0 95.0 L 79.0 95.0 L 80.0 95.0 L 81.0 95.0 L 82.0 95.33333333333333 L 83.0 95.66666666666667 L 84.0 96.0 L 85.0 95.66666666666667 L 86.0 95.0 L 86.66666666666667 94.0 L 86.66666666666667 93.0 L 86.0 92.33333333333333 L 85.0 92.0 L 84.0 92.0 L 83.0 92.0 L 82.0 92.0 L 81.0 92.0 L 80.0 92.0 L 79.0 92.33333333333333 L 78.0 92.66666666666667 L 77.0 93.0 L 76.0 93.0 L 75.0 93.0 L 74.0 93.0 L 73.0 93.0 L 72.0 93.0 L 71.0 93.0 L 70.0 93.0 L 69.0 93.0 L 68.0 93.0 L 67.0 93.0 L 66.0 93.0 L 65.0 93.0 L 64.0 93.0 L 63.0 93.0 L 62.0 92.66666666666667 L 61.0 92.33333333333333 L 60.0 92.0 L 59.0 92.0 L 58.0 92.0 L 57.0 92.0 L 56.0 92.0 L 55.0 92.0 L 54.0 92.0 L 53.0 92.0 L 52.0 92.0 L 51.0 92.0 L 50.0 92.0 L 49.0 92.0 L 48.0 92.0 L 47.0 92.0 L 46.0 92.0 L 45.0 92.0 L 44.0 92.0 L 43.0 92.0 L 42.0 92.0 L 41.0 92.0 L 40.0 92.0 L 39.0 92.0 L 38.0 92.0 L 37.0 92.0 L 36.0 92.0 L 35.0 92.0 L 34.0 92.0 L 33.0 92.0 L 32.0 92.0 L 31.0 92.0 L 30.0 92.0 L 29.0 92.0 L 28.0 92.0 L 27.0 92.0 L 26.0 92.0 L 25.0 92.0 L 24.0 92.0 L 23.0 92.0 L 22.0 92.0 L 21.0 92.0 L 20.0 92.0 L 19.0 92.0 L 18.0 92.0 L 17.333333333333332 92.33333333333333 L 17.0 93.0 L 17.333333333333332 94.0 L 18.0 95.0 L 19.0 95.66666666666667 L 20.0 96.0 L 21.0 95.66666666666667 L 22.0 95.33333333333333 L 23.0 95.0 L 24.0 95.0 L 25.0 95.0 L 26.0 95.0 L 27.0 95.0 L 28.0 95.0 L 29.0 95.0 L 30.0 95.0 L 31.0 95.0 L 32.0 95.0 L 33.0 95.0 L 34.0 95.0 L 35.0 95.0 L 36.0 95.0 L 37.0 95.0 L 38.0 95.0 L 39.0 95.0 L 40.0 95.0 L 41.0 95.0 L 42.0 95.0 L 43.0 95.0 L 44.0 95.0 L 45.0 95.0 L 46.0 95.0 L 47.0 95.0 L 48.0 95.0 L 49.0 95.0 L 50.0 95.0 L 51.0 95.0 L 52.0 95.0 L 53.0 95.0 L 54.0 95.0 L 55.0 95.0 L 56.0 95.0 L 57.0 95.0 L 57.5 95.0 Z" stroke="none" fill="rgb(128,205,236)" />
<path d="M 72.5 99.0 L 73.0 99.0 L 74.0 99.0 L 75.0 99.0 L 76.0 99.33333333333333 L 77.0 99.66666666666667 L 78.0 100.0 L 79.0 100.0 L 80.0 99.66666666666667 L 81.0 99.0 L 82.0 98.0 L 82.66666666666667 97.0 L 83.0 96.0 L 82.66666666666667 95.33333333333333 L 82.0 95.0 L 81.0 95.0 L 80.0 95.0 L 79.0 95.0 L 78.0 95.0 L 77.0 95.0 L 76.0 95.0 L 75.0 95.0 L 74.0 95.0 L 73.0 95.0 L 72.0 95.0 L 71.0 95.0 L 70.0 95.0 L 69.0 95.0 L 68.0 95.0 L 67.0 95.0 L 66.0 95.0 L 65.0 95.0 L 64.0 95.0 L 63.0 95.0 L 62.0 95.0 L 61.0 95.0 L 60.0 95.0 L 59.0 95.0 L 58.0 95.0 L 57.0 95.0 L 56.0 95.0 L 55.0 95.0 L 54.0 95.0 L 53.0 95.0 L 52.0 95.0 L 51.0 95.0 L 50.0 95.0 L 49.0 95.0 L 48.0 95.0 L 47.0 95.0 L 46.0 95.0 L 45.0 95.0 L 44.0 95.0 L 43.0 95.0 L 42.0 95.0 L 41.0 95.0 L 40.0 95.0 L 39.0 95.0 L 38.0 95.0 L 37.0 95.0 L 36.0 95.0 L 35.0 95.0 L 34.0 95.0 L 33.0 95.0 L 32.0 95.0 L 31.0 95.0 L 30.0 95.0 L 29.0 95.0 L 28.0 95.0 L 27.0 95.0 L 26.0 95.0 L 25.0 95.0 L 24.0 95.0 L 23.0 95.0 L 22.0 95.0 L 21.333333333333332 95.33333333333333 L 21.0 96.0 L 21.333333333333332 97.0 L 22.0 98.0 L 23.0 98.66666666666667 L 24.0 99.33333333333333 L 25.0 99.66666666666667 L 26.0 99.66666666666667 L 27.0 99.33333333333333 L 28.0 99.0 L 29.0 99.0 L 30.0 99.0 L 31.0 99.0 L 32.0 99.0 L 33.0 99.0 L 34.0 99.0 L 35.0 99.0 L 36.0 99.0 L 37.0 99.0 L 38.0 99.0 L 39.0 99.0 L 40.0 99.0 L 41.0 99.0 L 42.0 99.0 L 43.0 99.0 L 44.0 99.0 L 45.0 99.0 L 46.0 99.0 L 47.0 99.0 L 48.0 99.0 L 49.0 99.0 L 50.0 99.0 L 51.0 99.0 L 52.0 99.0 L 53.0 99.0 L 54.0 99.0 L 55.0 99.0 L 56.0 99.0 L 57.0 99.0 L 58.0 99.0 L 59.0 99.0 L 60.0 99.0 L 61.0 99.0 L 62.0 99.0 L 63.0 99.0 L 64.0 99.0 L 65.0 99.0 L 66.0 99.0 L 67.0 99.0 L 68.0 99.0 L 69.0 99.0 L 70.0 99.0 L 71.0 99.0 L 71.5 99.0 Z" stroke="none" fill="rgb(136,208,237)" />
<path d="M 36.5 102.0 L 37.0 102.0 L 38.0 102.0 L 39.0 102.0 L 40.0 102.0 L 41.0 102.0 L 42.0 102.0 L 43.0 102.0 L 44.0 102.0 L 45.0 102.0 L 46.0 102.0 L 47.0 102.0 L 48.0 102.0 L 49.0 102.0 L 50.0 102.0 L 51.0 102.0 L 52.0 102.0 L 53.0 102.0 L 54.0 102.0 L 55.0 102.0 L 56.0 102.0 L 57.0 102.0 L 58.0 102.0 L 59.0 102.0 L 60.0 102.0 L 61.0 102.0 L 62.0 102.0 L 63.0 102.0 L 64.0 102.0 L 65.0 102.0 L 66.0 102.0 L 67.0 102.0 L 68.0 102.0 L 69.0 102.0 L 70.0 102.0 L 71.0 102.33333333333333 L 72.0 102.66666666666667 L 73.0 103.0 L 74.0 103.0 L 75.0 102.66666666666667 L 76.0 102.0 L 76.66666666666667 101.0 L 77.0 100.0 L 76.66666666666667 99.33333333333333 L 76.0 99.0 L 75.0 99.0 L 74.0 99.0 L 73.0 99.0 L 72.0 99.0 L 71.0 99.0 L 70.0 99.0 L 69.0 99.0 L 68.0 99.0 L 67.0 99.0 L 66.0 99.0 L 65.0 99.0 L 64.0 99.0 L 63.0 99.0 L 62.0 99.0 L 61.0 99.0 L 60.0 99.0 L 59.0 99.0 L 58.0 99.0 L 57.0 99.0 L 56.0 99.0 L 55.0 99.0 L 54.0 99.0 L 53.0 99.0 L 52.0 99.0 L 51.0 99.0 L 50.0 99.0 L 49.0 99.0 L 48.0 99.0 L 47.0 99.0 L 46.0 99.0 L 45.0 99.0 L 44.0 99.0 L 43.0 99.0 L 42.0 99.0 L 41.0 99.0 L 40.0 99.0 L 39.0 99.0 L 38.0 99.0 L 37.0 99.0 L 36.0 99.0 L 35.0 99.0 L 34.0 99.0 L 33.0 99.0 L 32.0 99.0 L 31.0 99.0 L 30.0 99.0 L 29.0 99.0 L 28.0 99.0 L 27.0 99.0 L 26.333333333333332 99.33333333333333 L 26.0 100.0 L 26.333333333333332 100.66666666666667 L 27.0 101.33333333333333 L 28.0 101.66666666666667 L 29.0 102.0 L 30.0 102.0 L 31.0 102.33333333333333 L 32.0 102.66666666666667 L 33.0 102.66666666666667 L 34.0 102.33333333333333 L 35.0 102.0 L 35.5 102.0 Z" stroke="none" fill="rgb(144,210,237)" />
<path d="M 43.5 106.0 L 44.0 106.33333333333333 L 45.0 106.66666666666667 L 46.0 107.0 L 47.0 107.0 L 48.0 107.0 L 49.0 107.0 L 50.0 107.0 L 51.0 107.0 L 52.0 107.0 L 53.0 107.0 L 54.0 107.0 L 55.0 107.0 L 56.0 107.0 L 57.0 107.0 L 58.0 107.0 L 59.0 107.0 L 60.0 107.0 L 61.0 107.0 L 62.0 107.0 L 63.0 107.0 L 64.0 107.0 L 65.0 107.0 L 66.0 107.0 L 67.0 107.0 L 68.0 107.0 L 68.66666666666667 106.66666666666667 L 69.33333333333333 106.0 L 70.0 105.33333333333333 L 71.0 104.66666666666667 L 71.66666666666667 104.0 L 72.0 103.0 L 71.66666666666667 102.33333333333333 L 71.0 102.0 L 70.0 102.0 L 69.0 102.0 L 68.0 102.0 L 67.0 102.0 L 66.0 102.0 L 65.0 102.0 L 64.0 102.0 L 63.0 102.0 L 62.0 102.0 L 61.0 102.0 L 60.0 102.0 L 59.0 102.0 L 58.0 102.0 L 57.0 102.0 L 56.0 102.0 L 55.0 102.0 L 54.0 102.0 L 53.0 102.0 L 52.0 102.0 L 51.0 102.0 L 50.0 102.0 L 49.0 102.0 L 48.0 102.0 L 47.0 102.0 L 46.0 102.0 L 45.0 102.0 L 44.0 102.0 L 43.0 102.0 L 42.0 102.0 L 41.0 102.0 L 40.0 102.0 L 39.0 102.0 L 38.0 102.0 L 37.0 102.0 L 36.0 102.0 L 35.0 102.0 L 34.0 102.0 L 33.333333333333336 102.33333333333333 L 33.0 103.0 L 33.333333333333336 103.66666666666667 L 34.0 104.0 L 35.0 104.33333333333333 L 36.0 104.66666666666667 L 37.0 105.0 L 38.0 105.0 L 39.0 105.33333333333333 L 40.0 105.66666666666667 L 41.0 106.0 L 42.0 106.0 L 42.5 106.0 Z" stroke="none" fill="rgb(152,213,238)" />
</svg>
