<?xml version="1.0" encoding="UTF-8" standalone="no"?>
<!DOCTYPE svg PUBLIC "-//W3C//DTD SVG 1.1//EN"
"http://www.w3.org/Graphics/SVG/1.1/DTD/svg11.dtd">
<svg width="128" height="128" xmlns="http://www.w3.org/2000/svg" version="1.1">
<path d="M 26.5 128.0 L 27.0 128.0 L 28.0 128.0 L 29.0 128.0 L 30.0 128.0 L 31.0 128.0 L 32.0 128.0 L 33.0 128.0 L 34.0 128.0 L 35.0 128.0 L 36.0 128.0 L 37.0 128.0 L 38.0 128.0 L 39.0 128.0 L 40.0 128.0 L 41.0 128.0 L 42.0 128.0 L 43.0 128.0 L 44.0 128.0 L 45.0 128.0 L 46.0 128.0 L 47.0 128.0 L 48.0 128.0 L 49.0 128.0 L 50.0 128.0 L 51.0 128.0 L 52.0 128.0 L 53.0 128.0 L 54.0 128.0 L 55.0 128.0 L 56.0 128.0 L 57.0 128.0 L 58.0 128.0 L 59.0 128.0 L 60.0 128.0 L 61.0 128.0 L 62.0 128.0 L 63.0 128.0 L 64.0 128.0 L 65.0 128.0 L 66.0 128.0 L 67.0 128.0 L 68.0 128.0 L 69.0 128.0 L 70.0 128.0 L 71.0 128.0 L 72.0 128.0 L 73.0 128.0 L 74.0 128.0 L 75.0 128.0 L 76.0 128.0 L 77.0 128.0 L 78.0 128.0 L 79.0 128.0 L 80.0 128.0 L 81.0 128.0 L 82.0 128.0 L 83.0 128.0 L 84.0 128.0 L 85.0 128.0 L 86.0 128.0 L 87.0 128.0 L 88.0 128.0 L 89.0 128.0 L 90.0 128.0 L 91.0 128.0 L 92.0 128.0 L 93.0 128.0 L 94.0 128.0 L 95.0 128.0 L 96.0 128.0 L 97.0 128.0 L 98.0 128.0 L 99.0 128.0 L 100.0 128.0 L 101.0 128.0 L 102.0 128.0 L 103.0 128.0 L 104.0 128.0 L 105.0 128.0 L 106.0 128.0 L 107.0 128.0 L 108.0 128.0 L 109.0 128.0 L 110.0 128.0 L 111.0 128.0 L 112.0 128.0 L 113.0 128.0 L 114.0 128.0 L 115.0 128.0 L 116.0 128.0 L 117.0 128.0 L 118.0 128.0 L 119.0 128.0 L 120.0 128.0 L 121.0 128.0 L 122.0 128.0 L 123.0 128.0 L 124.0 128.0 L 125.0 128.0 L 126.0 128.0 L 127.0 128.0 L 127.66666666666667 127.66666666666667 L 128.0 127.0 L 128.0 126.0 L 128.0 125.0 L 128.0 124.0 L 128.0 123.0 L 128.0 122.0 L 128.0 121.0 L 128.0 120.0 L 128.0 119.0 L 128.0 118.0 L 128.0 117.0 L 128.0 116.0 L 128.0 115.0 L 128.0 114.0 L 128.0 113.0 L 128.0 112.0 L 128.0 111.0 L 128.0 110.0 L 128.0 109.0 L 128.0 108.0 L 128.0 107.0 L 128.0 106.0 L 128.0 105.0 L 128.0 104.0 L 128.0 103.0 L 128.0 102.0 L 128.0 101.0 L 128.0 100.0 L 128.0 99.0 L 128.0 98.0 L 128.0 97.0 L 128.0 96.0 L 128.0 95.0 L 128.0 94.0 L 128.0 93.0 L 128.0 92.0 L 128.0 91.0 L 128.0 90.0 L 128.0 89.0 L 128.0 88.0 L 128.0 87.0 L 128.0 86.0 L 128.0 85.0 L 128.0 84.0 L 128.0 83.0 L 128.0 82.0 L 128.0 81.0 L 128.0 80.0 L 128.0 79.0 L 128.0 78.0 L 128.0 77.0 L 128.0 76.0 L 128.0 75.0 L 128.0 74.0 L 128.0 73.0 L 128.0 72.0 L 128.0 71.0 L 128.0 70.0 L 128.0 69.0 L 128.0 68.0 L 128.0 67.0 L 128.0 66.0 L 128.0 65.0 L 128.0 64.0 L 128.0 63.0 L 128.0 62.0 L 128.0 61.0 L 128.0 60.0 L 128.0 59.0 L 128.0 58.0 L 128.0 57.0 L 128.0 56.0 L 128.0 55.0 L 128.0 54.0 L 128.0 53.0 L 128.0 52.0 L 128.0 51.0 L 128.0 50.0 L 128.0 49.0 L 128.0 48.0 L 128.0 47.0 L 128.0 46.0 L 128.0 45.0 L 128.0 44.0 L 128.0 43.0 L 128.0 42.0 L 128.0 41.0 L 128.0 40.0 L 128.0 39.0 L 128.0 38.0 L 128.0 37.0 L 128.0 36.0 L 128.0 35.0 L 128.0 34.0 L 128.0 33.0 L 128.0 32.0 L 128.0 31.0 L 128.0 30.0 L 128.0 29.0 L 128.0 28.0 L 128.0 27.0 L 128.0 26.0 L 128.0 25.0 L 128.0 24.0 L 128.0 23.0 L 128.0 22.0 L 128.0 21.0 L 128.0 20.0 L 128.0 19.0 L 128.0 18.0 L 128.0 17.0 L 128.0 16.0 L 128.0 15.0 L 128.0 14.0 L 128.0 13.0 L 128.0 12.0 L 128.0 11.0 L 128.0 10.0 L 128.0 9.0 L 128.0 8.0 L 128.0 7.0 L 128.0 6.0 L 128.0 5.0 L 128.0 4.0 L 128.0 3.0 L 128.0 2.0 L 128.0 1.0 L 127.66666666666667 0.3333333333333333 L 127.0 0.0 L 126.0 0.0 L 125.0 0.0 L 124.0 0.0 L 123.0 0.0 L 122.0 0.0 L 121.0 0.0 L 120.0 0.0 L 119.0 0.0 L 118.0 0.0 L 117.0 0.0 L 116.0 0.0 L 115.0 0.0 L 114.0 0.0 L 113.0 0.0 L 112.0 0.0 L 111.0 0.0 L 110.0 0.0 L 109.0 0.0 L 108.0 0.0 L 107.0 0.0 L 106.0 0.0 L 105.0 0.0 L 104.0 0.0 L 103.0 0.0 L 102.0 0.0 L 101.0 0.0 L 100.0 0.0 L 99.0 0.0 L 98.0 0.0 L 97.0 0.0 L 96.0 0.0 L 95.0 0.0 L 94.0 0.0 L 93.0 0.0 L 92.0 0.0 L 91.0 0.0 L 90.0 0.0 L 89.0 0.0 L 88.0 0.0 L 87.0 0.0 L 86.0 0.0 L 85.0 0.0 L 84.0 0.0 L 83.0 0.0 L 82.0 0.0 L 81.0 0.0 L 80.0 0.0 L 79.0 0.0 L 78.0 0.0 L 77.0 0.0 L 76.0 0.0 L 75.0 0.0 L 74.0 0.0 L 73.0 0.0 L 72.0 0.0 L 71.0 0.0 L 70.0 0.0 L 69.0 0.0 L 68.0 0.0 L 67.0 0.0 L 66.0 0.0 L 65.0 0.0 L 64.0 0.0 L 63.0 0.0 L 62.0 0.0 L 61.0 0.0 L 60.0 0.0 L 59.0 0.0 L 58.0 0.0 L 57.0 0.0 L 56.0 0.0 L 55.0 0.0 L 54.0 0.0 L 53.0 0.0 L 52.0 0.0 L 51.0 0.0 L 50.0 0.0 L 49.0 0.0 L 48.0 0.0 L 47.0 0.0 L 46.0 0.0 L 45.0 0.0 L 44.0 0.0 L 43.0 0.0 L 42.0 0.0 L 41.0 0.0 L 40.0 0.0 L 39.0 0.0 L 38.0 0.0 L 37.0 0.0 L 36.0 0.0 L 35.0 0.0 L 34.0 0.0 L 33.0 0.0 L 32.0 0.0 L 31.0 0.0 L 30.0 0.0 L 29.0 0.0 L 28.0 0.0 L 27.0 0.0 L 26.0 0.0 L 25.0 0.0 L 24.0 0.0 L 23.0 0.0 L 22.0 0.0 L 21.0 0.0 L 20.0 0.0 L 19.0 0.0 L 18.0 0.0 L 17.0 0.0 L 16.0 0.0 L 15.0 0.0 L 14.0 0.0 L 13.0 0.0 L 12.0 0.0 L 11.0 0.0 L 10.0 0.0 L 9.0 0.0 L 8.0 0.0 L 7.0 0.0 L 6.0 0.0 L 5.0 0.0 L 4.0 0.0 L 3.0 0.0 L 2.0 0.0 L 1.0 0.0 L 0.3333333333333333 0.3333333333333333 L 0.0 1.0 L 0.0 2.0 L 0.0 3.0 L 0.0 4.0 L 0.0 5.0 L 0.0 6.0 L 0.0 7.0 L 0.0 8.0 L 0.0 9.0 L 0.0 10.0 L 0.0 11.0 L 0.0 12.0 L 0.0 13.0 L 0.0 14.0 L 0.0 15.0 L 0.0 16.0 L 0.0 17.0 L 0.0 18.0 L 0.0 19.0 L 0.0 20.0 L 0.0 21.0 L 0.0 22.0 L 0.0 23.0 L 0.0 24.0 L 0.0 25.0 L 0.0 26.0 L 0.0 27.0 L 0.0 28.0 L 0.0 29.0 L 0.0 30.0 L 0.0 31.0 L 0.0 32.0 L 0.0 33.0 L 0.0 34.0 L 0.0 35.0 L 0.0 36.0 L 0.0 37.0 L 0.0 38.0 L 0.0 39.0 L 0.0 40.0 L 0.0 41.0 L 0.0 42.0 L 0.0 43.0 L 0.0 44.0 L 0.0 45.0 L 0.0 46.0 L 0.0 47.0 L 0.0 48.0 L 0.0 49.0 L 0.0 50.0 L 0.0 51.0 L 0.0 52.0 L 0.0 53.0 L 0.0 54.0 L 0.0 55.0 L 0.0 56.0 L 0.0 57.0 L 0.0 58.0 L 0.0 59.0 L 0.0 60.0 L 0.0 61.0 L 0.0 62.0 L 0.0 63.0 L 0.0 64.0 L 0.0 65.0 L 0.0 66.0 L 0.0 67.0 L 0.0 68.0 L 0.0 69.0 L 0.0 70.0 L 0.0 71.0 L 0.0 72.0 L 0.0 73.0 L 0.0 74.0 L 0.0 75.0 L 0.0 76.0 L 0.0 77.0 L 0.0 78.0 L 0.0 79.0 L 0.0 80.0 L 0.0 81.0 L 0.0 82.0 L 0.0 83.0 L 0.0 84.0 L 0.0 85.0 L 0.0 86.0 L 0.0 87.0 L 0.0 88.0 L 0.0 89.0 L 0.0 90.0 L 0.0 91.0 L 0.0 92.0 L 0.0 93.0 L 0.0 94.0 L 0.0 95.0 L 0.0 96.0 L 0.0 97.0 L 0.0 98.0 L 0.0 99.0 L 0.0 100.0 L 0.0 101.0 L 0.0 102.0 L 0.0 103.0 L 0.0 104.0 L 0.0 105.0 L 0.0 106.0 L 0.0 107.0 L 0.0 108.0 L 0.0 109.0 L 0.0 110.0 L 0.0 111.0 L 0.0 112.0 L 0.0 113.0 L 0.0 114.0 L 0.0 115.0 L 0.0 116.0 L 0.0 117.0 L 0.0 118.0 L 0.0 119.0 L 0.0 120.0 L 0.0 121.0 L 0.0 122.0 L 0.0 123.0 L 0.0 124.0 L 0.0 125.0 L 0.0 126.0 L 0.0 127.0 L 0.3333333333333333 127.66666666666667 L 1.0 128.0 L 2.0 128.0 L 3.0 128.0 L 4.0 128.0 L 5.0 128.0 L 6.0 128.0 L 7.0 128.0 L 8.0 128.0 L 9.0 128.0 L 10.0 128.0 L 11.0 128.0 L 12.0 128.0 L 13.0 128.0 L 14.0 128.0 L 15.0 128.0 L 16.0 128.0 L 17.0 128.0 L 18.0 128.0 L 19.0 128.0 L 20.0 128.0 L 21.0 128.0 L 22.0 128.0 L 23.0 128.0 L 24.0 128.0 L 25.0 128.0 L 25.5 128.0 Z" stroke="none" fill="rgb(255,255,255)" />
<path d="M 59.5 73.5 L 60.0 73.0 L 61.0 72.33333333333333 L 62.0 72.33333333333333 L 63.0 73.0 L 64.0 74.0 L 65.0 75.0 L 66.0 76.0 L 67.0 77.0 L 68.0 78.0 L 69.0 79.0 L 70.0 80.0 L 71.0 81.0 L 72.0 82.0 L 73.0 83.0 L 74.0 84.0 L 75.0 85.0 L 76.0 86.0 L 77.0 86.66666666666667 L 78.0 87.0 L 79.0 87.0 L 80.0 87.33333333333333 L 81.0 88.0 L 82.0 88.66666666666667 L 83.0 89.0 L 84.0 89.0 L 85.0 89.0 L 86.0 89.0 L 87.0 89.0 L 88.0 89.0 L 89.0 89.0 L 90.0 89.0 L 91.0 88.66666666666667 L 92.0 88.33333333333333 L 93.0 88.0 L 94.0 88.0 L 95.0 88.0 L 96.0 87.66666666666667 L 97.0 87.0 L 98.0 86.0 L 99.0 85.0 L 100.0 84.0 L 101.0 83.0 L 102.0 82.0 L 103.0 81.0 L 103.66666666666667 80.0 L 104.33333333333333 79.0 L 105.0 78.0 L 105.66666666666667 77.0 L 106.33333333333333 76.0 L 106.66666666666667 75.0 L 107.0 74.0 L 107.33333333333333 73.0 L 108.0 72.0 L 108.66666666666667 71.0 L 109.0 70.0 L 109.0 69.0 L 109.0 68.0 L 109.0 67.0 L 109.0 66.0 L 109.0 65.0 L 109.0 64.0 L 109.0 63.0 L 109.0 62.0 L 109.0 61.0 L 109.0 60.0 L 109.33333333333333 59.0 L 109.66666666666667 58.0 L 109.66666666666667 57.0 L 109.0 56.0 L 108.33333333333333 55.0 L 107.66666666666667 54.0 L 107.33333333333333 53.0 L 106.66666666666667 52.0 L 106.0 51.0 L 105.0 50.0 L 104.0 49.0 L 103.0 48.0 L 102.0 47.333333333333336 L 101.0 46.666666666666664 L 100.0 46.333333333333336 L 99.0 45.666666666666664 L 98.0 45.333333333333336 L 97.0 45.0 L 96.0 45.0 L 95.0 45.0 L 94.0 45.0 L 93.0 45.0 L 92.0 45.0 L 91.0 45.0 L 90.0 45.0 L 89.0 45.0 L 88.0 45.0 L 87.0 45.0 L 86.0 45.0 L 85.0 45.0 L 84.0 45.0 L 83.0 45.0 L 82.0 45.0 L 81.0 45.0 L 80.0 45.0 L 79.0 45.0 L 78.0 45.0 L 77.0 45.0 L 76.0 45.0 L 75.0 45.0 L 74.0 45.0 L 73.0 45.0 L 72.0 45.0 L 71.0 45.0 L 70.0 45.0 L 69.0 45.0 L 68.0 45.0 L 67.0 45.0 L 66.0 45.0 L 65.0 45.0 L 64.0 45.0 L 63.0 45.0 L 62.0 45.0 L 61.0 45.0 L 60.0 45.0 L 59.0 45.0 L 58.0 45.0 L 57.0 45.0 L 56.0 45.0 L 55.0 45.0 L 54.0 45.0 L 53.0 45.0 L 52.0 45.0 L 51.0 45.0 L 50.0 45.0 L 49.0 45.0 L 48.0 45.0 L 47.0 45.0 L 46.0 45.0 L 45.0 45.0 L 44.0 45.0 L 43.0 45.0 L 42.0 45.0 L 41.0 45.0 L 40.0 45.0 L 39.0 45.0 L 38.0 45.0 L 37.0 45.0 L 36.0 45.0 L 35.0 45.0 L 34.0 45.0 L 33.0 45.0 L 32.0 45.0 L 31.0 45.0 L 30.0 45.0 L 29.0 45.0 L 28.0 45.0 L 27.0 45.0 L 26.0 45.0 L 25.0 45.0 L 24.0 45.333333333333336 L 23.0 45.666666666666664 L 22.0 46.0 L 21.0 46.333333333333336 L 20.0 47.0 L 19.0 48.0 L 18.0 49.0 L 17.0 50.0 L 16.333333333333332 51.0 L 15.666666666666666 52.0 L 15.0 53.0 L 14.333333333333334 54.0 L 14.0 55.0 L 14.0 56.0 L 14.0 57.0 L 14.0 58.0 L 13.666666666666666 59.0 L 13.333333333333334 60.0 L 13.0 61.0 L 13.0 62.0 L 13.0 63.0 L 13.0 64.0 L 13.0 65.0 L 13.0 66.0 L 13.0 67.0 L 13.333333333333334 68.0 L 13.666666666666666 69.0 L 14.0 70.0 L 14.0 71.0 L 14.0 72.0 L 14.333333333333334 73.0 L 14.666666666666666 74.0 L 15.0 75.0 L 15.333333333333334 76.0 L 15.666666666666666 77.0 L 16.333333333333332 78.0 L 17.0 79.0 L 17.666666666666668 80.0 L 18.333333333333332 81.0 L 19.0 82.0 L 20.0 83.0 L 21.0 84.0 L 22.0 84.66666666666667 L 23.0 85.33333333333333 L 24.0 85.66666666666667 L 25.0 86.33333333333333 L 26.0 87.0 L 27.0 87.66666666666667 L 28.0 88.0 L 29.0 88.0 L 30.0 88.0 L 31.0 88.0 L 32.0 88.0 L 33.0 88.0 L 34.0 88.0 L 35.0 88.0 L 36.0 88.0 L 37.0 88.33333333333333 L 38.0 88.66666666666667 L 39.0 89.0 L 40.0 89.0 L 41.0 89.0 L 42.0 89.0 L 43.0 89.0 L 43.666666666666664 88.66666666666667 L 44.333333333333336 88.0 L 45.0 87.33333333333333 L 46.0 86.66666666666667 L 47.0 86.0 L 48.0 85.0 L 49.0 84.0 L 50.0 83.0 L 51.0 82.0 L 52.0 81.0 L 52.666666666666664 80.0 L 53.333333333333336 79.0 L 54.0 78.0 L 54.666666666666664 77.0 L 55.333333333333336 76.0 L 56.0 75.0 L 57.0 74.33333333333333 L 58.0 74.0 L 58.5 74.0 Z" stroke="none" fill="rgb(128,216,254)" />
<path d="M 105.5 51.5 L 106.0 52.0 L 106.66666666666667 53.0 L 107.33333333333333 54.0 L 107.66666666666667 55.0 L 108.33333333333333 56.0 L 109.0 57.0 L 110.0 57.666666666666664 L 111.0 58.0 L 112.0 58.0 L 113.0 58.0 L 114.0 58.333333333333336 L 115.0 58.666666666666664 L 116.0 59.0 L 117.0 58.666666666666664 L 117.66666666666667 58.0 L 118.0 57.0 L 118.0 56.0 L 118.0 55.0 L 118.0 54.0 L 118.0 53.0 L 118.0 52.0 L 118.0 51.0 L 118.0 50.0 L 118.0 49.0 L 118.33333333333333 48.0 L 118.66666666666667 47.0 L 119.0 46.0 L 119.0 45.0 L 119.0 44.0 L 119.0 43.0 L 119.0 42.0 L 119.0 41.0 L 118.66666666666667 40.0 L 118.33333333333333 39.0 L 118.0 38.0 L 118.0 37.0 L 118.0 36.0 L 118.0 35.0 L 118.0 34.0 L 118.0 33.0 L 118.0 32.0 L 118.0 31.0 L 118.0 30.0 L 117.66666666666667 29.0 L 117.33333333333333 28.0 L 117.0 27.0 L 117.0 26.0 L 116.66666666666667 25.333333333333332 L 116.0 25.0 L 115.0 25.333333333333332 L 114.0 26.0 L 113.0 27.0 L 112.0 27.666666666666668 L 111.0 28.333333333333332 L 110.0 28.666666666666668 L 109.0 29.0 L 108.33333333333333 29.333333333333332 L 108.0 30.0 L 108.0 31.0 L 108.0 32.0 L 108.0 33.0 L 108.33333333333333 34.0 L 108.66666666666667 35.0 L 109.0 36.0 L 109.0 37.0 L 109.0 38.0 L 109.0 39.0 L 109.0 40.0 L 109.0 41.0 L 109.0 42.0 L 109.0 43.0 L 109.0 44.0 L 109.0 45.0 L 109.0 46.0 L 109.0 47.0 L 109.0 48.0 L 109.0 49.0 L 108.66666666666667 50.0 L 108.0 50.333333333333336 L 107.33333333333333 50.0 L 106.66666666666667 49.0 L 106.33333333333333 48.0 L 105.66666666666667 47.0 L 105.0 46.0 L 104.0 45.0 L 103.0 44.0 L 102.0 43.333333333333336 L 101.0 42.666666666666664 L 100.0 42.333333333333336 L 99.0 41.666666666666664 L 98.0 41.333333333333336 L 97.0 41.0 L 96.0 41.0 L 95.0 41.0 L 94.0 41.0 L 93.0 41.0 L 92.0 41.0 L 91.0 41.0 L 90.0 41.0 L 89.0 41.0 L 88.0 41.0 L 87.0 41.0 L 86.0 41.0 L 85.0 41.0 L 84.0 41.0 L 83.0 41.0 L 82.0 41.0 L 81.0 41.0 L 80.0 41.0 L 79.0 41.0 L 78.0 41.0 L 77.0 41.0 L 76.0 41.0 L 75.0 41.0 L 74.0 41.0 L 73.0 41.0 L 72.0 41.0 L 71.0 41.0 L 70.0 41.0 L 69.0 41.0 L 68.0 41.0 L 67.0 41.0 L 66.0 41.0 L 65.0 41.0 L 64.0 41.0 L 63.0 41.0 L 62.0 41.0 L 61.0 41.0 L 60.0 41.0 L 59.0 41.0 L 58.0 41.0 L 57.0 41.0 L 56.0 41.0 L 55.0 41.0 L 54.0 41.0 L 53.0 41.0 L 52.0 41.0 L 51.0 41.0 L 50.0 41.0 L 49.0 41.0 L 48.0 41.0 L 47.0 41.0 L 46.0 41.0 L 45.0 41.0 L 44.0 41.0 L 43.0 41.0 L 42.0 41.0 L 41.0 41.0 L 40.0 41.0 L 39.0 41.0 L 38.0 41.0 L 37.0 41.0 L 36.0 41.0 L 35.0 41.0 L 34.0 41.0 L 33.0 41.0 L 32.0 41.0 L 31.0 41.0 L 30.0 41.0 L 29.0 41.0 L 28.0 41.0 L 27.0 41.0 L 26.0 41.0 L 25.0 41.0 L 24.0 41.333333333333336 L 23.0 41.666666666666664 L 22.0 42.333333333333336 L 21.0 42.666666666666664 L 20.0 43.333333333333336 L 19.0 44.0 L 18.0 45.0 L 17.333333333333332 46.0 L 16.666666666666668 47.0 L 16.333333333333332 48.0 L 16.0 49.0 L 16.0 50.0 L 16.333333333333332 50.666666666666664 L 17.0 50.666666666666664 L 18.0 50.0 L 19.0 49.0 L 20.0 48.0 L 21.0 47.0 L 22.0 46.333333333333336 L 23.0 46.0 L 24.0 45.666666666666664 L 25.0 45.333333333333336 L 26.0 45.0 L 27.0 45.0 L 28.0 45.0 L 29.0 45.0 L 30.0 45.0 L 31.0 45.0 L 32.0 45.0 L 33.0 45.0 L 34.0 45.0 L 35.0 45.0 L 36.0 45.0 L 37.0 45.0 L 38.0 45.0 L 39.0 45.0 L 40.0 45.0 L 41.0 45.0 L 42.0 45.0 L 43.0 45.0 L 44.0 45.0 L 45.0 45.0 L 46.0 45.0 L 47.0 45.0 L 48.0 45.0 L 49.0 45.0 L 50.0 45.0 L 51.0 45.0 L 52.0 45.0 L 53.0 45.0 L 54.0 45.0 L 55.0 45.0 L 56.0 45.0 L 57.0 45.0 L 58.0 45.0 L 59.0 45.0 L 60.0 45.0 L 61.0 45.0 L 62.0 45.0 L 63.0 45.0 L 64.0 45.0 L 65.0 45.0 L 66.0 45.0 L 67.0 45.0 L 68.0 45.0 L 69.0 45.0 L 70.0 45.0 L 71.0 45.0 L 72.0 45.0 L 73.0 45.0 L 74.0 45.0 L 75.0 45.0 L 76.0 45.0 L 77.0 45.0 L 78.0 45.0 L 79.0 45.0 L 80.0 45.0 L 81.0 45.0 L 82.0 45.0 L 83.0 45.0 L 84.0 45.0 L 85.0 45.0 L 86.0 45.0 L 87.0 45.0 L 88.0 45.0 L 89.0 45.0 L 90.0 45.0 L 91.0 45.0 L 92.0 45.0 L 93.0 45.0 L 94.0 45.0 L 95.0 45.0 L 96.0 45.0 L 97.0 45.333333333333336 L 98.0 45.666666666666664 L 99.0 46.333333333333336 L 100.0 46.666666666666664 L 101.0 47.333333333333336 L 102.0 48.0 L 103.0 49.0 L 104.0 50.0 L 104.5 50.5 Z" stroke="none" fill="rgb(68,132,245)" />
<path d="M 55.5 69.5 L 56.0 69.0 L 57.0 68.0 L 58.0 67.0 L 59.0 66.33333333333333 L 60.0 66.0 L 61.0 66.0 L 62.0 66.0 L 63.0 66.0 L 64.0 66.33333333333333 L 65.0 67.0 L 66.0 68.0 L 67.0 69.0 L 68.0 70.0 L 69.0 71.0 L 70.0 72.0 L 70.66666666666667 73.0 L 71.33333333333333 74.0 L 72.0 75.0 L 72.66666666666667 76.0 L 73.33333333333333 77.0 L 74.0 78.0 L 75.0 79.0 L 76.0 80.0 L 77.0 80.66666666666667 L 78.0 81.33333333333333 L 79.0 81.66666666666667 L 80.0 82.0 L 81.0 82.0 L 82.0 82.33333333333333 L 83.0 82.66666666666667 L 84.0 83.0 L 85.0 83.0 L 86.0 83.0 L 87.0 83.0 L 88.0 83.0 L 89.0 83.0 L 90.0 83.0 L 91.0 83.0 L 92.0 82.66666666666667 L 93.0 82.33333333333333 L 94.0 81.66666666666667 L 95.0 81.0 L 96.0 80.0 L 97.0 79.0 L 98.0 78.0 L 99.0 77.0 L 99.66666666666667 76.0 L 99.66666666666667 75.0 L 99.0 74.33333333333333 L 98.0 74.0 L 97.0 74.33333333333333 L 96.0 75.0 L 95.0 75.66666666666667 L 94.0 76.33333333333333 L 93.0 76.66666666666667 L 92.0 77.33333333333333 L 91.0 77.66666666666667 L 90.0 78.0 L 89.0 78.0 L 88.0 78.0 L 87.0 78.0 L 86.0 78.0 L 85.0 78.0 L 84.0 78.0 L 83.0 78.0 L 82.0 78.0 L 81.0 77.66666666666667 L 80.0 77.33333333333333 L 79.0 77.0 L 78.0 76.66666666666667 L 77.0 76.0 L 76.0 75.0 L 75.33333333333333 74.0 L 74.66666666666667 73.0 L 74.0 72.0 L 73.33333333333333 71.0 L 72.66666666666667 70.0 L 72.33333333333333 69.0 L 72.0 68.0 L 71.66666666666667 67.0 L 71.0 66.0 L 70.0 65.0 L 69.0 64.0 L 68.0 63.0 L 67.0 62.0 L 66.0 61.333333333333336 L 65.0 61.0 L 64.0 61.0 L 63.0 61.0 L 62.0 61.0 L 61.0 61.0 L 60.0 61.0 L 59.0 61.0 L 58.0 61.0 L 57.0 61.333333333333336 L 56.0 61.666666666666664 L 55.0 62.333333333333336 L 54.333333333333336 63.0 L 53.666666666666664 64.0 L 53.0 65.0 L 52.333333333333336 66.0 L 51.666666666666664 67.0 L 51.333333333333336 68.0 L 50.666666666666664 69.0 L 50.333333333333336 70.0 L 49.666666666666664 71.0 L 49.0 72.0 L 48.0 73.0 L 47.0 74.0 L 46.0 75.0 L 45.0 75.66666666666667 L 44.0 76.33333333333333 L 43.0 76.66666666666667 L 42.0 77.33333333333333 L 41.0 77.66666666666667 L 40.0 78.0 L 39.0 78.0 L 38.0 78.0 L 37.0 78.0 L 36.0 78.0 L 35.0 78.0 L 34.0 78.0 L 33.0 77.66666666666667 L 32.0 77.33333333333333 L 31.0 77.0 L 30.0 76.66666666666667 L 29.0 76.33333333333333 L 28.0 75.66666666666667 L 27.0 75.33333333333333 L 26.0 74.66666666666667 L 25.0 74.0 L 24.0 73.0 L 23.0 72.33333333333333 L 22.333333333333332 72.33333333333333 L 22.0 73.0 L 22.0 74.0 L 22.333333333333332 75.0 L 23.0 76.0 L 24.0 77.0 L 25.0 78.0 L 26.0 79.0 L 27.0 80.0 L 28.0 80.66666666666667 L 29.0 81.33333333333333 L 30.0 81.66666666666667 L 31.0 82.0 L 32.0 82.0 L 33.0 82.0 L 34.0 82.0 L 35.0 82.0 L 36.0 82.0 L 37.0 82.0 L 38.0 82.0 L 39.0 82.0 L 40.0 82.0 L 41.0 82.0 L 42.0 82.0 L 43.0 82.0 L 44.0 81.66666666666667 L 45.0 81.0 L 46.0 80.0 L 47.0 79.0 L 48.0 78.0 L 49.0 77.0 L 50.0 76.0 L 51.0 75.0 L 51.666666666666664 74.0 L 52.333333333333336 73.0 L 53.0 72.0 L 54.0 71.0 L 54.5 70.5 Z" stroke="none" fill="rgb(22,101,194)" />
<path d="M 59.5 93.0 L 60.0 93.0 L 61.0 93.0 L 62.0 93.0 L 63.0 93.0 L 64.0 93.0 L 65.0 93.33333333333333 L 66.0 93.66666666666667 L 67.0 94.0 L 68.0 94.0 L 69.0 94.0 L 70.0 94.33333333333333 L 71.0 94.66666666666667 L 72.0 95.0 L 73.0 95.0 L 74.0 95.0 L 75.0 95.33333333333333 L 76.0 95.66666666666667 L 77.0 96.0 L 78.0 96.0 L 79.0 96.0 L 80.0 96.0 L 81.0 96.0 L 82.0 96.0 L 83.0 96.0 L 84.0 95.66666666666667 L 85.0 95.33333333333333 L 86.0 95.0 L 87.0 94.66666666666667 L 88.0 94.33333333333333 L 89.0 93.66666666666667 L 90.0 93.33333333333333 L 91.0 92.66666666666667 L 92.0 92.0 L 93.0 91.0 L 94.0 90.0 L 94.66666666666667 89.0 L 95.0 88.0 L 94.66666666666667 87.33333333333333 L 94.0 87.33333333333333 L 93.0 87.66666666666667 L 92.0 88.0 L 91.0 88.33333333333333 L 90.0 88.66666666666667 L 89.0 89.0 L 88.0 89.0 L 87.0 89.0 L 86.0 89.0 L 85.0 89.0 L 84.0 89.0 L 83.0 89.0 L 82.0 89.0 L 81.0 89.0 L 80.0 89.0 L 79.0 89.0 L 78.0 89.0 L 77.0 89.0 L 76.0 89.0 L 75.0 88.66666666666667 L 74.0 88.33333333333333 L 73.0 88.0 L 72.0 87.66666666666667 L 71.0 87.0 L 70.0 86.33333333333333 L 69.0 86.33333333333333 L 68.0 87.0 L 67.0 88.0 L 66.0 88.66666666666667 L 65.0 89.0 L 64.0 89.0 L 63.0 89.0 L 62.0 89.0 L 61.0 89.0 L 60.0 89.0 L 59.0 89.0 L 58.0 89.0 L 57.0 89.0 L 56.0 88.66666666666667 L 55.0 88.0 L 54.0 87.33333333333333 L 53.0 87.33333333333333 L 52.0 87.66666666666667 L 51.0 88.33333333333333 L 50.0 88.66666666666667 L 49.0 89.0 L 48.0 89.0 L 47.0 89.0 L 46.0 89.0 L 45.0 89.0 L 44.0 89.0 L 43.0 89.0 L 42.0 89.0 L 41.0 89.0 L 40.0 89.0 L 39.0 88.66666666666667 L 38.0 88.33333333333333 L 37.0 88.0 L 36.0 88.0 L 35.0 88.0 L 34.0 88.0 L 33.0 88.0 L 32.0 88.0 L 31.0 88.0 L 30.0 88.0 L 29.0 88.0 L 28.333333333333332 88.33333333333333 L 28.0 89.0 L 28.333333333333332 90.0 L 29.0 91.0 L 30.0 91.66666666666667 L 31.0 92.33333333333333 L 32.0 93.0 L 33.0 93.66666666666667 L 34.0 94.33333333333333 L 35.0 94.66666666666667 L 36.0 95.0 L 37.0 95.0 L 38.0 95.0 L 39.0 95.33333333333333 L 40.0 95.66666666666667 L 41.0 96.0 L 42.0 96.0 L 43.0 96.0 L 44.0 96.0 L 45.0 96.0 L 46.0 96.0 L 47.0 95.66666666666667 L 48.0 95.33333333333333 L 49.0 95.0 L 50.0 95.0 L 51.0 94.66666666666667 L 52.0 94.33333333333333 L 53.0 94.0 L 54.0 94.0 L 55.0 93.66666666666667 L 56.0 93.33333333333333 L 57.0 93.0 L 58.0 93.0 L 58.5 93.0 Z" stroke="none" fill="rgb(72,77,79)" />
<path d="M 53.5 41.0 L 54.0 41.0 L 55.0 41.0 L 56.0 41.0 L 57.0 41.0 L 58.0 41.0 L 59.0 41.0 L 60.0 41.0 L 61.0 41.0 L 62.0 41.0 L 63.0 41.0 L 64.0 41.0 L 65.0 41.0 L 66.0 41.0 L 67.0 41.0 L 68.0 41.0 L 69.0 41.0 L 70.0 41.0 L 71.0 41.0 L 72.0 41.0 L 73.0 41.0 L 74.0 41.0 L 75.0 41.0 L 76.0 41.0 L 77.0 41.0 L 78.0 41.0 L 79.0 41.0 L 80.0 41.0 L 81.0 41.0 L 82.0 41.0 L 83.0 41.0 L 84.0 41.0 L 85.0 41.0 L 86.0 41.0 L 87.0 41.0 L 88.0 41.0 L 89.0 41.0 L 90.0 41.0 L 90.66666666666667 40.666666666666664 L 90.66666666666667 40.0 L 90.0 39.0 L 89.0 38.0 L 88.0 37.333333333333336 L 87.0 36.666666666666664 L 86.0 36.0 L 85.0 35.333333333333336 L 84.0 34.666666666666664 L 83.0 34.333333333333336 L 82.0 34.0 L 81.0 33.666666666666664 L 80.0 33.333333333333336 L 79.0 33.0 L 78.0 32.666666666666664 L 77.0 32.333333333333336 L 76.0 32.0 L 75.0 32.0 L 74.0 32.0 L 73.0 31.666666666666668 L 72.0 31.333333333333332 L 71.0 31.0 L 70.0 31.0 L 69.0 31.0 L 68.0 31.0 L 67.0 31.0 L 66.0 31.0 L 65.0 31.0 L 64.0 31.0 L 63.0 31.0 L 62.0 31.0 L 61.0 31.0 L 60.0 31.0 L 59.0 31.0 L 58.0 31.0 L 57.0 31.0 L 56.0 31.0 L 55.0 31.0 L 54.0 31.0 L 53.0 31.0 L 52.0 31.0 L 51.0 31.0 L 50.0 31.0 L 49.0 31.333333333333332 L 48.0 31.666666666666668 L 47.0 32.0 L 46.0 32.0 L 45.0 32.333333333333336 L 44.0 32.666666666666664 L 43.0 33.0 L 42.0 33.333333333333336 L 41.0 33.666666666666664 L 40.0 34.333333333333336 L 39.0 34.666666666666664 L 38.0 35.333333333333336 L 37.0 35.666666666666664 L 36.0 36.333333333333336 L 35.0 36.666666666666664 L 34.0 37.333333333333336 L 33.0 38.0 L 32.333333333333336 39.0 L 32.0 40.0 L 32.333333333333336 40.666666666666664 L 33.0 41.0 L 34.0 41.0 L 35.0 41.0 L 36.0 41.0 L 37.0 41.0 L 38.0 41.0 L 39.0 41.0 L 40.0 41.0 L 41.0 41.0 L 42.0 41.0 L 43.0 41.0 L 44.0 41.0 L 45.0 41.0 L 46.0 41.0 L 47.0 41.0 L 48.0 41.0 L 49.0 41.0 L 50.0 41.0 L 51.0 41.0 L 52.0 41.0 L 52.5 41.0 Z" stroke="none" fill="rgb(92,114,125)" />
<path d="M 106.5 28.5 L 107.0 28.666666666666668 L 108.0 29.0 L 109.0 29.0 L 110.0 29.0 L 111.0 28.666666666666668 L 112.0 28.333333333333332 L 113.0 27.666666666666668 L 114.0 27.0 L 115.0 26.0 L 115.66666666666667 25.0 L 116.0 24.0 L 116.0 23.0 L 116.0 22.0 L 116.0 21.0 L 116.0 20.0 L 116.0 19.0 L 116.0 18.0 L 115.66666666666667 17.0 L 115.33333333333333 16.0 L 115.0 15.0 L 114.66666666666667 14.0 L 114.33333333333333 13.0 L 114.0 12.0 L 113.66666666666667 11.0 L 113.33333333333333 10.0 L 112.66666666666667 9.0 L 112.33333333333333 8.0 L 112.0 7.0 L 111.66666666666667 6.0 L 111.33333333333333 5.0 L 110.66666666666667 4.0 L 110.0 3.3333333333333335 L 109.0 3.0 L 108.0 3.0 L 107.0 3.0 L 106.0 3.0 L 105.0 3.3333333333333335 L 104.0 3.6666666666666665 L 103.0 4.0 L 102.0 4.333333333333333 L 101.0 4.666666666666667 L 100.0 5.333333333333333 L 99.0 5.666666666666667 L 98.0 6.333333333333333 L 97.0 6.666666666666667 L 96.33333333333333 7.333333333333333 L 96.0 8.0 L 96.33333333333333 9.0 L 96.66666666666667 10.0 L 97.0 11.0 L 97.33333333333333 12.0 L 97.66666666666667 13.0 L 98.0 14.0 L 98.33333333333333 15.0 L 98.66666666666667 16.0 L 99.33333333333333 17.0 L 99.66666666666667 18.0 L 100.0 19.0 L 100.33333333333333 20.0 L 100.66666666666667 21.0 L 101.33333333333333 22.0 L 101.66666666666667 23.0 L 102.33333333333333 24.0 L 102.66666666666667 25.0 L 103.33333333333333 26.0 L 104.0 27.0 L 105.0 27.666666666666668 L 105.5 28.0 Z" stroke="none" fill="rgb(128,216,254)" />
<path d="M 95.5 110.5 L 95.66666666666667 110.0 L 96.33333333333333 109.0 L 97.0 108.33333333333333 L 98.0 107.66666666666667 L 99.0 107.0 L 99.66666666666667 106.0 L 100.33333333333333 105.0 L 101.0 104.33333333333333 L 102.0 103.66666666666667 L 102.66666666666667 103.0 L 103.0 102.0 L 103.0 101.0 L 103.0 100.0 L 102.66666666666667 99.33333333333333 L 102.0 98.66666666666667 L 101.0 98.0 L 100.0 97.0 L 99.0 96.0 L 98.0 95.0 L 97.0 94.33333333333333 L 96.0 93.66666666666667 L 95.0 93.0 L 94.0 92.33333333333333 L 93.0 92.0 L 92.0 92.33333333333333 L 91.33333333333333 93.0 L 90.66666666666667 94.0 L 90.0 94.66666666666667 L 89.0 95.0 L 88.33333333333333 95.33333333333333 L 88.0 96.0 L 87.66666666666667 97.0 L 87.0 97.66666666666667 L 86.0 98.0 L 85.0 98.33333333333333 L 84.0 99.0 L 83.0 99.66666666666667 L 82.0 100.33333333333333 L 81.33333333333333 101.0 L 80.66666666666667 102.0 L 80.0 102.66666666666667 L 79.0 103.0 L 78.0 103.0 L 77.33333333333333 103.33333333333333 L 77.0 104.0 L 77.0 105.0 L 77.0 106.0 L 77.0 107.0 L 77.33333333333333 108.0 L 78.0 109.0 L 79.0 110.0 L 79.66666666666667 111.0 L 80.33333333333333 112.0 L 81.0 113.0 L 81.66666666666667 114.0 L 82.33333333333333 115.0 L 83.0 115.66666666666667 L 84.0 116.0 L 85.0 116.0 L 86.0 116.0 L 87.0 115.66666666666667 L 88.0 115.0 L 89.0 114.33333333333333 L 90.0 113.66666666666667 L 91.0 113.33333333333333 L 91.66666666666667 112.66666666666667 L 92.33333333333333 112.0 L 93.0 111.33333333333333 L 94.0 111.0 L 94.5 111.0 Z" stroke="none" fill="rgb(22,101,194)" />
<path d="M 57.5 56.0 L 58.0 55.666666666666664 L 59.0 55.333333333333336 L 60.0 55.0 L 61.0 55.0 L 62.0 55.0 L 63.0 55.0 L 64.0 55.0 L 65.0 55.0 L 66.0 55.0 L 67.0 55.0 L 68.0 55.0 L 69.0 55.0 L 70.0 55.0 L 71.0 55.0 L 72.0 55.0 L 73.0 55.0 L 74.0 55.0 L 75.0 55.0 L 76.0 55.0 L 77.0 55.0 L 78.0 55.0 L 79.0 55.0 L 80.0 55.0 L 81.0 55.0 L 82.0 55.0 L 83.0 55.0 L 84.0 55.0 L 85.0 55.0 L 86.0 55.0 L 87.0 55.0 L 88.0 55.0 L 88.66666666666667 54.666666666666664 L 89.0 54.0 L 89.0 53.0 L 88.66666666666667 52.0 L 88.0 51.0 L 87.0 50.333333333333336 L 86.0 50.0 L 85.0 50.0 L 84.0 50.0 L 83.0 50.0 L 82.0 50.0 L 81.0 50.0 L 80.0 50.0 L 79.0 50.0 L 78.0 50.0 L 77.0 50.0 L 76.0 50.0 L 75.0 50.0 L 74.0 50.0 L 73.0 50.0 L 72.0 50.0 L 71.0 50.0 L 70.0 50.0 L 69.0 50.0 L 68.0 50.0 L 67.0 50.0 L 66.0 50.0 L 65.0 50.0 L 64.0 50.0 L 63.0 50.0 L 62.0 50.0 L 61.0 50.0 L 60.0 50.0 L 59.0 50.0 L 58.0 50.0 L 57.0 50.0 L 56.0 50.0 L 55.0 50.0 L 54.0 50.0 L 53.0 50.0 L 52.0 50.0 L 51.0 50.0 L 50.0 50.0 L 49.0 50.0 L 48.0 50.0 L 47.0 50.0 L 46.0 50.0 L 45.0 50.0 L 44.0 50.0 L 43.0 50.0 L 42.0 50.0 L 41.0 50.0 L 40.0 50.0 L 39.0 50.0 L 38.0 50.0 L 37.0 50.333333333333336 L 36.0 51.0 L 35.0 52.0 L 34.333333333333336 53.0 L 34.0 54.0 L 34.333333333333336 54.666666666666664 L 35.0 55.0 L 36.0 55.0 L 37.0 55.0 L 38.0 55.0 L 39.0 55.0 L 40.0 55.0 L 41.0 55.0 L 42.0 55.0 L 43.0 55.0 L 44.0 55.0 L 45.0 55.0 L 46.0 55.0 L 47.0 55.0 L 48.0 55.0 L 49.0 55.0 L 50.0 55.0 L 51.0 55.0 L 52.0 55.0 L 53.0 55.0 L 54.0 55.0 L 55.0 55.0 L 56.0 55.333333333333336 L 56.5 55.5 Z" stroke="none" fill="rgb(254,254,255)" />
<path d="M 110.0 85.5 L 110.33333333333333 85.0 L 110.66666666666667 84.0 L 111.0 83.0 L 111.33333333333333 82.0 L 111.66666666666667 81.0 L 112.0 80.0 L 112.33333333333333 79.0 L 112.66666666666667 78.0 L 113.0 77.0 L 113.33333333333333 76.0 L 113.66666666666667 75.0 L 114.0 74.0 L 114.0 73.0 L 113.66666666666667 72.0 L 113.0 71.33333333333333 L 112.0 71.0 L 111.0 70.66666666666667 L 110.0 70.33333333333333 L 109.0 70.33333333333333 L 108.0 71.0 L 107.33333333333333 72.0 L 107.0 73.0 L 106.66666666666667 74.0 L 106.33333333333333 75.0 L 105.66666666666667 76.0 L 105.0 77.0 L 104.33333333333333 78.0 L 103.66666666666667 79.0 L 103.0 80.0 L 102.0 81.0 L 101.0 82.0 L 100.0 83.0 L 99.0 84.0 L 98.33333333333333 85.0 L 97.66666666666667 86.0 L 97.0 87.0 L 96.33333333333333 88.0 L 95.66666666666667 89.0 L 95.0 90.0 L 94.33333333333333 91.0 L 94.0 92.0 L 94.33333333333333 93.0 L 95.0 93.66666666666667 L 96.0 94.33333333333333 L 97.0 95.0 L 98.0 96.0 L 99.0 97.0 L 100.0 98.0 L 101.0 98.66666666666667 L 102.0 99.0 L 102.66666666666667 98.66666666666667 L 103.33333333333333 98.0 L 104.0 97.0 L 104.66666666666667 96.0 L 105.33333333333333 95.0 L 105.66666666666667 94.0 L 106.33333333333333 93.0 L 106.66666666666667 92.0 L 107.33333333333333 91.0 L 107.66666666666667 90.0 L 108.33333333333333 89.0 L 108.66666666666667 88.0 L 109.33333333333333 87.0 L 109.5 86.5 Z" stroke="none" fill="rgb(68,132,245)" />
<path d="M 52.5 108.0 L 53.0 108.33333333333333 L 54.0 108.66666666666667 L 55.0 109.0 L 56.0 109.0 L 57.0 109.0 L 58.0 109.0 L 59.0 109.0 L 60.0 109.0 L 61.0 109.0 L 62.0 109.0 L 63.0 109.0 L 64.0 109.0 L 65.0 109.0 L 66.0 109.0 L 67.0 108.66666666666667 L 68.0 108.33333333333333 L 69.0 108.0 L 70.0 108.0 L 71.0 107.66666666666667 L 72.0 107.0 L 73.0 106.0 L 74.0 105.0 L 74.66666666666667 104.0 L 75.33333333333333 103.0 L 75.66666666666667 102.0 L 76.0 101.0 L 76.0 100.0 L 75.66666666666667 99.33333333333333 L 75.0 99.0 L 74.0 99.0 L 73.0 99.0 L 72.0 99.0 L 71.0 99.0 L 70.0 99.0 L 69.0 99.0 L 68.0 99.0 L 67.0 99.0 L 66.0 99.0 L 65.0 99.0 L 64.0 99.0 L 63.0 99.0 L 62.0 99.0 L 61.0 99.0 L 60.0 99.0 L 59.0 99.0 L 58.0 99.0 L 57.0 99.0 L 56.0 99.0 L 55.0 99.0 L 54.0 99.0 L 53.0 99.0 L 52.0 99.0 L 51.0 99.0 L 50.0 99.0 L 49.0 99.0 L 48.0 99.0 L 47.333333333333336 99.33333333333333 L 47.0 100.0 L 47.0 101.0 L 47.0 102.0 L 47.333333333333336 103.0 L 48.0 104.0 L 48.666666666666664 105.0 L 49.333333333333336 106.0 L 50.0 106.66666666666667 L 51.0 107.33333333333333 L 51.5 107.5 Z" stroke="none" fill="rgb(72,77,79)" />
<path d="M 56.5 124.0 L 57.0 124.0 L 58.0 124.0 L 59.0 124.0 L 60.0 124.0 L 61.0 124.0 L 62.0 124.0 L 63.0 124.0 L 64.0 124.0 L 65.0 124.0 L 66.0 124.0 L 67.0 124.0 L 68.0 123.66666666666667 L 68.66666666666667 123.0 L 69.0 122.0 L 69.33333333333333 121.0 L 69.66666666666667 120.0 L 69.66666666666667 119.0 L 69.33333333333333 118.0 L 69.0 117.0 L 69.0 116.0 L 69.0 115.0 L 69.0 114.0 L 69.0 113.0 L 69.0 112.0 L 69.0 111.0 L 69.0 110.0 L 69.0 109.0 L 68.66666666666667 108.33333333333333 L 68.0 108.0 L 67.0 108.33333333333333 L 66.0 108.66666666666667 L 65.0 109.0 L 64.0 109.0 L 63.0 109.0 L 62.0 109.0 L 61.0 109.0 L 60.0 109.0 L 59.0 109.0 L 58.0 109.0 L 57.0 109.0 L 56.0 109.0 L 55.0 109.0 L 54.333333333333336 109.33333333333333 L 54.0 110.0 L 54.0 111.0 L 54.0 112.0 L 54.0 113.0 L 54.0 114.0 L 54.0 115.0 L 54.0 116.0 L 54.0 117.0 L 54.0 118.0 L 54.0 119.0 L 54.0 120.0 L 54.0 121.0 L 54.0 122.0 L 54.333333333333336 123.0 L 55.0 123.66666666666667 L 55.5 124.0 Z" stroke="none" fill="rgb(92,114,125)" />
<path d="M 59.5 89.0 L 60.0 89.0 L 61.0 89.0 L 62.0 89.0 L 63.0 89.0 L 64.0 89.0 L 65.0 89.0 L 66.0 89.0 L 67.0 88.66666666666667 L 68.0 88.0 L 68.66666666666667 87.0 L 69.0 86.0 L 68.66666666666667 85.0 L 68.33333333333333 84.0 L 68.0 83.0 L 68.0 82.0 L 67.66666666666667 81.0 L 67.33333333333333 80.0 L 66.66666666666667 79.0 L 66.33333333333333 78.0 L 66.0 77.0 L 66.0 76.0 L 65.66666666666667 75.0 L 65.0 74.0 L 64.0 73.0 L 63.0 72.33333333333333 L 62.0 72.0 L 61.0 72.0 L 60.0 72.33333333333333 L 59.0 73.0 L 58.333333333333336 74.0 L 58.0 75.0 L 57.666666666666664 76.0 L 57.333333333333336 77.0 L 56.666666666666664 78.0 L 56.333333333333336 79.0 L 55.666666666666664 80.0 L 55.333333333333336 81.0 L 55.0 82.0 L 55.0 83.0 L 54.666666666666664 84.0 L 54.333333333333336 85.0 L 54.0 86.0 L 54.0 87.0 L 54.333333333333336 88.0 L 55.0 88.66666666666667 L 56.0 89.0 L 57.0 89.0 L 58.0 89.0 L 58.5 89.0 Z" stroke="none" fill="rgb(92,114,125)" />
<path d="M 91.0 59.5 L 91.0 59.0 L 91.0 58.0 L 90.66666666666667 57.333333333333336 L 90.0 57.0 L 89.0 57.333333333333336 L 88.0 57.666666666666664 L 87.0 58.0 L 86.0 58.0 L 85.0 58.0 L 84.0 58.0 L 83.0 58.0 L 82.0 58.0 L 81.0 58.0 L 80.0 58.0 L 79.0 58.0 L 78.0 58.0 L 77.0 58.0 L 76.0 58.0 L 75.0 58.0 L 74.0 58.0 L 73.0 58.0 L 72.0 58.0 L 71.0 58.0 L 70.0 58.0 L 69.0 58.0 L 68.0 58.0 L 67.0 58.0 L 66.0 58.0 L 65.0 58.0 L 64.0 58.0 L 63.0 58.0 L 62.0 58.0 L 61.0 58.0 L 60.0 58.0 L 59.0 58.0 L 58.0 58.0 L 57.0 58.0 L 56.0 58.0 L 55.0 58.0 L 54.0 58.0 L 53.0 58.0 L 52.0 58.0 L 51.0 58.0 L 50.0 58.0 L 49.0 58.0 L 48.0 58.0 L 47.0 58.0 L 46.333333333333336 58.333333333333336 L 46.0 59.0 L 46.333333333333336 60.0 L 47.0 60.666666666666664 L 48.0 61.0 L 49.0 61.0 L 50.0 61.0 L 51.0 61.0 L 52.0 61.0 L 53.0 61.0 L 54.0 61.333333333333336 L 55.0 61.666666666666664 L 56.0 62.0 L 57.0 61.666666666666664 L 58.0 61.333333333333336 L 59.0 61.0 L 60.0 61.0 L 61.0 61.0 L 62.0 61.0 L 63.0 61.0 L 64.0 61.0 L 65.0 61.333333333333336 L 66.0 62.0 L 67.0 63.0 L 68.0 64.0 L 69.0 64.66666666666667 L 69.66666666666667 64.66666666666667 L 70.0 64.0 L 70.0 63.0 L 69.66666666666667 62.0 L 69.66666666666667 61.0 L 70.0 60.333333333333336 L 71.0 60.0 L 72.0 60.0 L 73.0 60.0 L 74.0 60.0 L 75.0 60.0 L 76.0 60.0 L 77.0 60.0 L 78.0 60.0 L 79.0 60.0 L 80.0 60.0 L 81.0 60.0 L 82.0 60.0 L 83.0 60.0 L 84.0 60.0 L 85.0 60.0 L 86.0 60.0 L 87.0 60.0 L 88.0 60.0 L 89.0 60.0 L 90.0 60.0 L 90.5 60.0 Z" stroke="none" fill="rgb(191,226,246)" />
<path d="M 73.5 72.5 L 74.0 73.0 L 74.66666666666667 74.0 L 75.33333333333333 75.0 L 76.0 76.0 L 77.0 76.66666666666667 L 78.0 77.0 L 79.0 77.33333333333333 L 80.0 77.66666666666667 L 81.0 78.0 L 82.0 78.0 L 83.0 78.0 L 84.0 78.0 L 85.0 78.0 L 86.0 78.0 L 87.0 78.0 L 88.0 78.0 L 88.66666666666667 77.66666666666667 L 89.0 77.0 L 89.33333333333333 76.0 L 89.66666666666667 75.0 L 90.0 74.0 L 90.0 73.0 L 90.33333333333333 72.0 L 90.66666666666667 71.0 L 90.66666666666667 70.33333333333333 L 90.0 70.0 L 89.0 70.0 L 88.0 70.0 L 87.0 70.0 L 86.0 70.0 L 85.0 70.0 L 84.0 70.0 L 83.0 70.0 L 82.0 70.0 L 81.0 70.0 L 80.0 70.0 L 79.0 70.0 L 78.0 70.0 L 77.0 70.0 L 76.0 70.0 L 75.0 70.0 L 74.0 70.0 L 73.33333333333333 70.33333333333333 L 73.0 71.0 L 73.0 71.5 Z" stroke="none" fill="rgb(40,160,225)" />
<path d="M 78.5 117.0 L 79.0 117.0 L 80.0 116.66666666666667 L 81.0 116.33333333333333 L 81.66666666666667 115.66666666666667 L 82.0 115.0 L 82.0 114.0 L 81.66666666666667 113.0 L 81.0 112.0 L 80.33333333333333 111.0 L 79.66666666666667 110.0 L 79.0 109.0 L 78.0 108.0 L 77.0 107.33333333333333 L 76.0 107.0 L 75.0 107.33333333333333 L 74.0 107.66666666666667 L 73.0 108.33333333333333 L 72.0 108.66666666666667 L 71.0 109.0 L 70.0 109.0 L 69.33333333333333 109.33333333333333 L 69.0 110.0 L 69.0 111.0 L 69.0 112.0 L 69.0 113.0 L 69.0 114.0 L 69.0 115.0 L 69.0 116.0 L 69.0 117.0 L 69.0 118.0 L 69.33333333333333 118.66666666666667 L 70.0 119.0 L 71.0 119.0 L 72.0 119.0 L 73.0 119.0 L 74.0 118.66666666666667 L 75.0 118.33333333333333 L 76.0 118.0 L 77.0 117.66666666666667 L 77.5 117.5 Z" stroke="none" fill="rgb(68,132,245)" />
<path d="M 42.5 77.5 L 43.0 77.33333333333333 L 44.0 76.66666666666667 L 45.0 76.33333333333333 L 46.0 75.66666666666667 L 47.0 75.0 L 48.0 74.0 L 49.0 73.0 L 49.666666666666664 72.0 L 50.0 71.0 L 49.666666666666664 70.33333333333333 L 49.0 70.0 L 48.0 70.0 L 47.0 70.0 L 46.0 70.0 L 45.0 70.0 L 44.0 70.0 L 43.0 70.0 L 42.0 70.0 L 41.0 70.0 L 40.0 70.0 L 39.0 70.0 L 38.0 70.0 L 37.0 70.0 L 36.0 70.0 L 35.0 70.0 L 34.0 70.0 L 33.0 70.0 L 32.333333333333336 70.33333333333333 L 32.0 71.0 L 32.333333333333336 72.0 L 32.666666666666664 73.0 L 33.333333333333336 74.0 L 33.666666666666664 75.0 L 34.333333333333336 76.0 L 35.0 77.0 L 36.0 77.66666666666667 L 37.0 78.0 L 38.0 78.0 L 39.0 78.0 L 40.0 78.0 L 41.0 78.0 L 41.5 78.0 Z" stroke="none" fill="rgb(40,160,225)" />
<path d="M 110.5 71.0 L 111.0 71.0 L 112.0 71.33333333333333 L 113.0 71.66666666666667 L 114.0 72.0 L 115.0 71.66666666666667 L 115.66666666666667 71.0 L 116.33333333333333 70.0 L 116.66666666666667 69.0 L 117.0 68.0 L 117.33333333333333 67.0 L 117.66666666666667 66.0 L 118.0 65.0 L 118.0 64.0 L 118.0 63.0 L 118.0 62.0 L 118.0 61.0 L 118.0 60.0 L 117.66666666666667 59.333333333333336 L 117.0 59.0 L 116.0 58.666666666666664 L 115.0 58.333333333333336 L 114.0 58.0 L 113.0 58.0 L 112.0 58.0 L 111.0 58.0 L 110.0 58.0 L 109.33333333333333 58.333333333333336 L 109.0 59.0 L 109.0 60.0 L 109.0 61.0 L 109.0 62.0 L 109.0 63.0 L 109.0 64.0 L 109.0 65.0 L 109.0 66.0 L 109.0 67.0 L 109.0 68.0 L 109.0 69.0 L 109.33333333333333 70.0 L 109.5 70.5 Z" stroke="none" fill="rgb(72,77,79)" />
<path d="M 66.5 58.0 L 67.0 58.0 L 68.0 58.0 L 69.0 58.0 L 70.0 58.0 L 71.0 58.0 L 72.0 58.0 L 73.0 58.0 L 74.0 58.0 L 75.0 58.0 L 76.0 58.0 L 77.0 58.0 L 78.0 58.0 L 79.0 58.0 L 80.0 58.0 L 81.0 58.0 L 82.0 58.0 L 83.0 58.0 L 84.0 58.0 L 85.0 58.0 L 86.0 58.0 L 87.0 58.0 L 88.0 58.0 L 89.0 57.666666666666664 L 89.66666666666667 57.0 L 90.0 56.0 L 89.66666666666667 55.333333333333336 L 89.0 55.0 L 88.0 55.0 L 87.0 55.0 L 86.0 55.0 L 85.0 55.0 L 84.0 55.0 L 83.0 55.0 L 82.0 55.0 L 81.0 55.0 L 80.0 55.0 L 79.0 55.0 L 78.0 55.0 L 77.0 55.0 L 76.0 55.0 L 75.0 55.0 L 74.0 55.0 L 73.0 55.0 L 72.0 55.0 L 71.0 55.0 L 70.0 55.0 L 69.0 55.0 L 68.0 55.0 L 67.0 55.0 L 66.0 55.0 L 65.0 55.0 L 64.0 55.0 L 63.0 55.0 L 62.0 55.0 L 61.0 55.0 L 60.0 55.0 L 59.0 55.0 L 58.333333333333336 55.333333333333336 L 58.0 56.0 L 58.333333333333336 57.0 L 59.0 57.666666666666664 L 60.0 58.0 L 61.0 58.0 L 62.0 58.0 L 63.0 58.0 L 64.0 58.0 L 65.0 58.0 L 65.5 58.0 Z" stroke="none" fill="rgb(231,244,251)" />
<path d="M 23.5 56.5 L 24.0 56.666666666666664 L 25.0 57.0 L 26.0 57.0 L 27.0 57.0 L 28.0 57.0 L 29.0 57.0 L 30.0 57.333333333333336 L 31.0 57.666666666666664 L 32.0 58.0 L 32.666666666666664 57.666666666666664 L 33.333333333333336 57.0 L 33.666666666666664 56.0 L 34.0 55.0 L 34.333333333333336 54.0 L 35.0 53.0 L 36.0 52.0 L 36.666666666666664 51.0 L 37.0 50.0 L 36.666666666666664 49.333333333333336 L 36.0 49.0 L 35.0 49.0 L 34.0 49.0 L 33.0 49.0 L 32.0 49.0 L 31.0 49.0 L 30.0 49.333333333333336 L 29.0 49.666666666666664 L 28.0 50.0 L 27.0 50.333333333333336 L 26.0 50.666666666666664 L 25.0 51.333333333333336 L 24.0 52.0 L 23.0 53.0 L 22.333333333333332 54.0 L 22.0 55.0 L 22.333333333333332 55.666666666666664 L 22.5 56.0 Z" stroke="none" fill="rgb(174,184,189)" />
<path d="M 57.5 58.0 L 58.0 58.0 L 58.666666666666664 57.666666666666664 L 58.666666666666664 57.0 L 58.0 56.0 L 57.0 55.333333333333336 L 56.0 55.0 L 55.0 55.0 L 54.0 55.0 L 53.0 55.0 L 52.0 55.0 L 51.0 55.0 L 50.0 55.0 L 49.0 55.0 L 48.0 55.0 L 47.0 55.0 L 46.0 55.0 L 45.0 55.0 L 44.0 55.0 L 43.0 55.0 L 42.0 55.0 L 41.0 55.0 L 40.0 55.0 L 39.0 55.0 L 38.0 55.0 L 37.0 55.0 L 36.0 55.0 L 35.0 55.0 L 34.0 55.333333333333336 L 33.333333333333336 56.0 L 33.0 57.0 L 33.333333333333336 57.666666666666664 L 34.0 58.0 L 35.0 58.0 L 36.0 58.0 L 37.0 58.0 L 38.0 58.0 L 39.0 58.0 L 40.0 58.0 L 41.0 58.0 L 42.0 58.0 L 43.0 58.0 L 44.0 58.333333333333336 L 45.0 58.666666666666664 L 46.0 58.666666666666664 L 47.0 58.333333333333336 L 48.0 58.0 L 49.0 58.0 L 50.0 58.0 L 51.0 58.0 L 52.0 58.0 L 53.0 58.0 L 54.0 58.0 L 55.0 58.0 L 56.0 58.0 L 56.5 58.0 Z" stroke="none" fill="rgb(211,237,251)" />
<path d="M 56.0 80.5 L 56.333333333333336 80.0 L 56.666666666666664 79.0 L 57.333333333333336 78.0 L 57.666666666666664 77.0 L 58.0 76.0 L 58.0 75.0 L 57.666666666666664 74.33333333333333 L 57.0 74.0 L 56.0 74.33333333333333 L 55.333333333333336 75.0 L 54.666666666666664 76.0 L 54.0 77.0 L 53.333333333333336 78.0 L 52.666666666666664 79.0 L 52.0 80.0 L 51.0 81.0 L 50.0 82.0 L 49.0 83.0 L 48.0 84.0 L 47.0 85.0 L 46.0 86.0 L 45.0 86.66666666666667 L 44.333333333333336 87.33333333333333 L 44.0 88.0 L 44.333333333333336 88.66666666666667 L 45.0 89.0 L 46.0 89.0 L 47.0 89.0 L 48.0 89.0 L 49.0 89.0 L 50.0 89.0 L 51.0 88.66666666666667 L 52.0 88.33333333333333 L 53.0 87.66666666666667 L 53.666666666666664 87.0 L 54.333333333333336 86.0 L 54.666666666666664 85.0 L 55.0 84.0 L 55.0 83.0 L 55.333333333333336 82.0 L 55.5 81.5 Z" stroke="none" fill="rgb(0,0,0)" />
<path d="M 91.5 57.0 L 92.0 57.0 L 93.0 57.0 L 94.0 57.0 L 95.0 57.0 L 96.0 57.0 L 97.0 57.0 L 98.0 57.0 L 99.0 57.0 L 100.0 57.0 L 100.66666666666667 56.666666666666664 L 101.0 56.0 L 101.0 55.0 L 100.66666666666667 54.0 L 100.0 53.0 L 99.0 52.0 L 98.0 51.333333333333336 L 97.0 50.666666666666664 L 96.0 50.333333333333336 L 95.0 49.666666666666664 L 94.0 49.333333333333336 L 93.0 49.0 L 92.0 49.0 L 91.0 49.0 L 90.0 49.0 L 89.0 49.0 L 88.0 49.0 L 87.33333333333333 49.333333333333336 L 87.0 50.0 L 87.33333333333333 51.0 L 88.0 52.0 L 88.66666666666667 53.0 L 89.0 54.0 L 89.33333333333333 55.0 L 89.66666666666667 56.0 L 90.33333333333333 56.666666666666664 L 90.5 57.0 Z" stroke="none" fill="rgb(174,184,189)" />
<path d="M 27.5 76.0 L 28.0 76.33333333333333 L 29.0 76.66666666666667 L 30.0 77.0 L 31.0 77.33333333333333 L 32.0 77.66666666666667 L 33.0 78.0 L 34.0 78.0 L 35.0 78.0 L 35.666666666666664 77.66666666666667 L 35.666666666666664 77.0 L 35.0 76.0 L 34.333333333333336 75.0 L 33.666666666666664 74.0 L 33.333333333333336 73.0 L 32.666666666666664 72.0 L 32.333333333333336 71.0 L 32.0 70.0 L 31.666666666666668 69.33333333333333 L 31.0 69.0 L 30.0 69.0 L 29.0 69.0 L 28.0 69.0 L 27.0 69.0 L 26.0 69.0 L 25.0 69.0 L 24.0 69.0 L 23.0 69.0 L 22.333333333333332 69.33333333333333 L 22.0 70.0 L 22.0 71.0 L 22.333333333333332 72.0 L 23.0 73.0 L 24.0 74.0 L 25.0 74.66666666666667 L 26.0 75.33333333333333 L 26.5 75.5 Z" stroke="none" fill="rgb(47,144,197)" />
<path d="M 75.5 89.0 L 76.0 89.0 L 77.0 89.0 L 78.0 89.0 L 79.0 89.0 L 80.0 89.0 L 81.0 89.0 L 81.66666666666667 88.66666666666667 L 81.66666666666667 88.0 L 81.0 87.33333333333333 L 80.0 87.0 L 79.0 87.0 L 78.0 86.66666666666667 L 77.0 86.0 L 76.0 85.0 L 75.0 84.0 L 74.0 83.0 L 73.0 82.0 L 72.0 81.0 L 71.0 80.0 L 70.0 79.0 L 69.0 78.0 L 68.0 77.0 L 67.0 76.33333333333333 L 66.33333333333333 76.33333333333333 L 66.0 77.0 L 66.0 78.0 L 66.33333333333333 79.0 L 66.66666666666667 80.0 L 67.33333333333333 81.0 L 67.66666666666667 82.0 L 68.0 83.0 L 68.0 84.0 L 68.33333333333333 85.0 L 69.0 86.0 L 70.0 87.0 L 71.0 87.66666666666667 L 72.0 88.0 L 73.0 88.33333333333333 L 74.0 88.66666666666667 L 74.5 89.0 Z" stroke="none" fill="rgb(0,0,0)" />
<path d="M 72.5 63.0 L 73.0 63.0 L 74.0 63.0 L 75.0 63.0 L 76.0 63.0 L 77.0 63.0 L 78.0 63.0 L 79.0 63.0 L 80.0 63.0 L 81.0 63.0 L 82.0 63.0 L 83.0 63.0 L 84.0 63.0 L 85.0 63.0 L 86.0 63.0 L 87.0 63.0 L 88.0 63.0 L 89.0 63.0 L 90.0 63.0 L 91.0 63.0 L 91.66666666666667 62.666666666666664 L 91.66666666666667 62.0 L 91.33333333333333 61.0 L 90.66666666666667 60.333333333333336 L 90.0 60.0 L 89.0 60.0 L 88.0 60.0 L 87.0 60.0 L 86.0 60.0 L 85.0 60.0 L 84.0 60.0 L 83.0 60.0 L 82.0 60.0 L 81.0 60.0 L 80.0 60.0 L 79.0 60.0 L 78.0 60.0 L 77.0 60.0 L 76.0 60.0 L 75.0 60.0 L 74.0 60.0 L 73.0 60.0 L 72.0 60.0 L 71.0 60.0 L 70.0 60.0 L 69.33333333333333 60.333333333333336 L 69.0 61.0 L 69.33333333333333 62.0 L 70.0 62.666666666666664 L 71.0 63.0 L 71.5 63.0 Z" stroke="none" fill="rgb(169,217,243)" />
<path d="M 91.5 78.0 L 92.0 77.66666666666667 L 93.0 77.33333333333333 L 94.0 76.66666666666667 L 95.0 76.33333333333333 L 96.0 75.66666666666667 L 97.0 75.0 L 98.0 74.66666666666667 L 99.0 74.66666666666667 L 100.0 74.66666666666667 L 100.66666666666667 74.0 L 101.0 73.0 L 101.0 72.0 L 101.0 71.0 L 100.66666666666667 70.33333333333333 L 100.0 70.0 L 99.0 70.0 L 98.0 70.0 L 97.0 70.0 L 96.0 70.0 L 95.0 70.0 L 94.0 70.0 L 93.0 70.0 L 92.0 70.0 L 91.0 70.33333333333333 L 90.33333333333333 71.0 L 90.0 72.0 L 90.0 73.0 L 89.66666666666667 74.0 L 89.33333333333333 75.0 L 89.0 76.0 L 89.0 77.0 L 89.33333333333333 77.66666666666667 L 90.0 78.0 L 90.5 78.0 Z" stroke="none" fill="rgb(47,144,197)" />
<path d="M 52.5 63.0 L 53.0 63.0 L 54.0 63.0 L 54.666666666666664 62.666666666666664 L 55.0 62.0 L 54.666666666666664 61.333333333333336 L 54.0 61.0 L 53.0 61.0 L 52.0 61.0 L 51.0 61.0 L 50.0 61.0 L 49.0 61.0 L 48.0 61.0 L 47.0 61.0 L 46.0 61.0 L 45.0 61.0 L 44.0 61.0 L 43.0 61.0 L 42.0 61.0 L 41.0 61.0 L 40.0 61.0 L 39.0 61.0 L 38.0 61.0 L 37.0 61.0 L 36.0 61.0 L 35.0 61.0 L 34.0 61.0 L 33.0 61.0 L 32.0 61.0 L 31.333333333333332 61.333333333333336 L 31.0 62.0 L 31.333333333333332 63.0 L 32.0 63.666666666666664 L 33.0 64.0 L 34.0 64.0 L 35.0 64.0 L 36.0 64.0 L 37.0 64.0 L 38.0 64.0 L 39.0 64.0 L 40.0 64.0 L 41.0 63.666666666666664 L 42.0 63.333333333333336 L 43.0 63.0 L 44.0 63.0 L 45.0 63.0 L 46.0 63.0 L 47.0 63.0 L 48.0 63.0 L 49.0 63.0 L 50.0 63.0 L 51.0 63.0 L 51.5 63.0 Z" stroke="none" fill="rgb(148,207,238)" />
<path d="M 91.0 67.5 L 91.0 67.0 L 91.0 66.0 L 90.66666666666667 65.33333333333333 L 90.0 65.0 L 89.0 65.0 L 88.0 65.0 L 87.0 65.0 L 86.0 65.0 L 85.0 65.0 L 84.0 65.0 L 83.0 65.0 L 82.0 65.0 L 81.0 65.0 L 80.0 65.0 L 79.0 65.0 L 78.0 65.0 L 77.0 65.0 L 76.0 65.0 L 75.0 65.0 L 74.0 65.0 L 73.0 65.0 L 72.0 65.0 L 71.0 65.0 L 70.33333333333333 65.33333333333333 L 70.33333333333333 66.0 L 71.0 67.0 L 72.0 67.66666666666667 L 73.0 68.0 L 74.0 68.0 L 75.0 68.0 L 76.0 68.0 L 77.0 68.0 L 78.0 68.0 L 79.0 68.0 L 80.0 68.0 L 81.0 68.0 L 82.0 68.0 L 83.0 68.0 L 84.0 68.0 L 85.0 68.0 L 86.0 68.0 L 87.0 68.0 L 88.0 68.0 L 89.0 68.0 L 90.0 68.0 L 90.5 68.0 Z" stroke="none" fill="rgb(104,188,235)" />
<path d="M 91.5 62.0 L 92.0 62.0 L 93.0 62.0 L 94.0 62.0 L 95.0 61.666666666666664 L 96.0 61.666666666666664 L 97.0 61.666666666666664 L 98.0 62.0 L 99.0 62.0 L 100.0 62.0 L 101.0 62.0 L 102.0 62.0 L 102.66666666666667 61.666666666666664 L 103.0 61.0 L 103.0 60.0 L 103.0 59.0 L 102.66666666666667 58.0 L 102.0 57.333333333333336 L 101.0 57.0 L 100.0 57.0 L 99.0 57.0 L 98.0 57.0 L 97.0 57.0 L 96.0 57.0 L 95.0 57.0 L 94.0 57.0 L 93.0 57.0 L 92.0 57.0 L 91.33333333333333 57.333333333333336 L 91.0 58.0 L 91.0 59.0 L 91.0 60.0 L 91.0 61.0 L 91.0 61.5 Z" stroke="none" fill="rgb(147,174,188)" />
<path d="M 24.5 61.0 L 25.0 61.0 L 26.0 61.0 L 27.0 61.0 L 28.0 61.0 L 29.0 61.0 L 30.0 61.0 L 30.666666666666668 60.666666666666664 L 31.333333333333332 60.0 L 31.666666666666668 59.0 L 31.666666666666668 58.0 L 31.0 57.333333333333336 L 30.0 57.0 L 29.0 57.0 L 28.0 57.0 L 27.0 57.0 L 26.0 57.0 L 25.0 56.666666666666664 L 24.0 56.333333333333336 L 23.0 56.0 L 22.0 56.0 L 21.0 56.333333333333336 L 20.333333333333332 57.0 L 20.0 58.0 L 20.0 59.0 L 20.0 60.0 L 20.333333333333332 60.666666666666664 L 21.0 61.0 L 22.0 61.0 L 23.0 61.0 L 23.5 61.0 Z" stroke="none" fill="rgb(147,174,188)" />
<path d="M 72.5 65.0 L 73.0 65.0 L 74.0 65.0 L 75.0 65.0 L 76.0 65.0 L 77.0 65.0 L 78.0 65.0 L 79.0 65.0 L 80.0 65.0 L 81.0 65.0 L 82.0 65.0 L 83.0 65.0 L 84.0 65.0 L 85.0 65.0 L 86.0 65.0 L 87.0 65.0 L 88.0 65.0 L 89.0 65.0 L 90.0 65.0 L 90.66666666666667 64.66666666666667 L 91.0 64.0 L 90.66666666666667 63.333333333333336 L 90.0 63.0 L 89.0 63.0 L 88.0 63.0 L 87.0 63.0 L 86.0 63.0 L 85.0 63.0 L 84.0 63.0 L 83.0 63.0 L 82.0 63.0 L 81.0 63.0 L 80.0 63.0 L 79.0 63.0 L 78.0 63.0 L 77.0 63.0 L 76.0 63.0 L 75.0 63.0 L 74.0 63.0 L 73.0 63.0 L 72.0 63.0 L 71.0 63.0 L 70.33333333333333 63.333333333333336 L 70.0 64.0 L 70.33333333333333 64.66666666666667 L 71.0 65.0 L 71.5 65.0 Z" stroke="none" fill="rgb(126,199,238)" />
<path d="M 33.5 68.0 L 34.0 68.0 L 35.0 68.0 L 36.0 68.0 L 37.0 68.0 L 38.0 68.0 L 39.0 68.0 L 40.0 68.0 L 41.0 68.0 L 42.0 68.0 L 43.0 68.0 L 44.0 68.0 L 45.0 68.0 L 46.0 68.0 L 47.0 68.0 L 48.0 68.0 L 49.0 68.0 L 50.0 68.0 L 51.0 68.0 L 51.666666666666664 67.66666666666667 L 52.0 67.0 L 51.666666666666664 66.33333333333333 L 51.0 66.0 L 50.0 66.0 L 49.0 66.0 L 48.0 66.0 L 47.0 66.0 L 46.0 66.0 L 45.0 66.0 L 44.0 66.0 L 43.0 66.0 L 42.0 66.0 L 41.0 66.0 L 40.0 66.0 L 39.0 66.0 L 38.0 66.0 L 37.0 66.0 L 36.0 66.0 L 35.0 66.0 L 34.0 66.0 L 33.0 66.0 L 32.0 66.0 L 31.333333333333332 66.33333333333333 L 31.0 67.0 L 31.333333333333332 67.66666666666667 L 32.0 68.0 L 32.5 68.0 Z" stroke="none" fill="rgb(85,177,232)" />
<path d="M 47.0 60.5 L 46.666666666666664 60.0 L 46.0 59.0 L 45.0 58.333333333333336 L 44.0 58.0 L 43.0 58.0 L 42.0 58.0 L 41.0 58.0 L 40.0 58.0 L 39.0 58.0 L 38.0 58.0 L 37.0 58.0 L 36.0 58.0 L 35.0 58.0 L 34.0 58.0 L 33.0 58.0 L 32.0 58.333333333333336 L 31.333333333333332 59.0 L 31.0 60.0 L 31.333333333333332 60.666666666666664 L 32.0 61.0 L 33.0 61.0 L 34.0 61.0 L 35.0 61.0 L 36.0 61.0 L 37.0 61.0 L 38.0 61.0 L 39.0 61.0 L 40.0 61.0 L 41.0 61.0 L 42.0 61.0 L 43.0 61.0 L 44.0 61.0 L 45.0 61.0 L 46.0 61.0 L 46.5 61.0 Z" stroke="none" fill="rgb(169,217,243)" />
<path d="M 50.5 70.0 L 50.666666666666664 69.66666666666667 L 51.0 69.0 L 50.666666666666664 68.33333333333333 L 50.0 68.0 L 49.0 68.0 L 48.0 68.0 L 47.0 68.0 L 46.0 68.0 L 45.0 68.0 L 44.0 68.0 L 43.0 68.0 L 42.0 68.0 L 41.0 68.0 L 40.0 68.0 L 39.0 68.0 L 38.0 68.0 L 37.0 68.0 L 36.0 68.0 L 35.0 68.0 L 34.0 68.0 L 33.0 68.0 L 32.0 68.0 L 31.333333333333332 68.33333333333333 L 31.333333333333332 69.0 L 32.0 69.66666666666667 L 33.0 70.0 L 34.0 70.0 L 35.0 70.0 L 36.0 70.0 L 37.0 70.0 L 38.0 70.0 L 39.0 70.0 L 40.0 70.0 L 41.0 70.0 L 42.0 70.0 L 43.0 70.0 L 44.0 70.0 L 45.0 70.0 L 46.0 70.0 L 47.0 70.0 L 48.0 70.0 L 49.0 70.0 L 49.5 70.0 Z" stroke="none" fill="rgb(64,168,228)" />
<path d="M 91.0 69.5 L 91.0 69.0 L 90.66666666666667 68.33333333333333 L 90.0 68.0 L 89.0 68.0 L 88.0 68.0 L 87.0 68.0 L 86.0 68.0 L 85.0 68.0 L 84.0 68.0 L 83.0 68.0 L 82.0 68.0 L 81.0 68.0 L 80.0 68.0 L 79.0 68.0 L 78.0 68.0 L 77.0 68.0 L 76.0 68.0 L 75.0 68.0 L 74.0 68.0 L 73.0 68.0 L 72.33333333333333 68.33333333333333 L 72.0 69.0 L 72.33333333333333 69.66666666666667 L 73.0 70.0 L 74.0 70.0 L 75.0 70.0 L 76.0 70.0 L 77.0 70.0 L 78.0 70.0 L 79.0 70.0 L 80.0 70.0 L 81.0 70.0 L 82.0 70.0 L 83.0 70.0 L 84.0 70.0 L 85.0 70.0 L 86.0 70.0 L 87.0 70.0 L 88.0 70.0 L 89.0 70.0 L 90.0 70.0 L 90.5 70.0 Z" stroke="none" fill="rgb(64,168,228)" />
<path d="M 92.5 65.0 L 93.0 65.0 L 94.0 65.0 L 95.0 65.0 L 96.0 65.0 L 97.0 65.0 L 98.0 65.0 L 99.0 65.0 L 100.0 65.0 L 101.0 65.0 L 102.0 65.0 L 102.66666666666667 64.66666666666667 L 103.0 64.0 L 103.0 63.0 L 102.66666666666667 62.333333333333336 L 102.0 62.0 L 101.0 62.0 L 100.0 62.0 L 99.0 62.0 L 98.0 61.666666666666664 L 97.0 61.333333333333336 L 96.0 61.0 L 95.0 61.333333333333336 L 94.0 61.666666666666664 L 93.0 62.0 L 92.0 62.333333333333336 L 91.33333333333333 63.0 L 91.0 64.0 L 91.33333333333333 64.66666666666667 L 91.5 65.0 Z" stroke="none" fill="rgb(118,165,190)" />
<path d="M 42.5 66.0 L 43.0 66.0 L 44.0 66.0 L 45.0 66.0 L 46.0 66.0 L 47.0 66.0 L 48.0 66.0 L 49.0 66.0 L 50.0 66.0 L 51.0 66.0 L 52.0 66.0 L 53.0 65.66666666666667 L 53.666666666666664 65.0 L 54.0 64.0 L 53.666666666666664 63.333333333333336 L 53.0 63.0 L 52.0 63.0 L 51.0 63.0 L 50.0 63.0 L 49.0 63.0 L 48.0 63.0 L 47.0 63.0 L 46.0 63.0 L 45.0 63.0 L 44.0 63.0 L 43.0 63.0 L 42.0 63.0 L 41.333333333333336 63.333333333333336 L 41.0 64.0 L 41.333333333333336 65.0 L 41.5 65.5 Z" stroke="none" fill="rgb(126,199,238)" />
<path d="M 31.5 64.5 L 31.666666666666668 64.0 L 31.666666666666668 63.0 L 31.333333333333332 62.0 L 30.666666666666668 61.333333333333336 L 30.0 61.0 L 29.0 61.0 L 28.0 61.0 L 27.0 61.0 L 26.0 61.0 L 25.0 61.0 L 24.0 61.0 L 23.0 61.0 L 22.0 61.0 L 21.0 61.0 L 20.333333333333332 61.333333333333336 L 20.0 62.0 L 20.0 63.0 L 20.333333333333332 63.666666666666664 L 21.0 64.0 L 22.0 64.0 L 23.0 64.0 L 24.0 64.0 L 25.0 64.0 L 26.0 64.0 L 27.0 64.0 L 28.0 64.0 L 29.0 64.33333333333333 L 30.0 64.66666666666667 L 30.5 65.0 Z" stroke="none" fill="rgb(118,165,190)" />
<path d="M 92.5 68.0 L 93.0 68.0 L 94.0 68.0 L 95.0 68.0 L 96.0 68.0 L 97.0 68.0 L 98.0 68.0 L 99.0 68.0 L 100.0 68.0 L 101.0 68.0 L 102.0 68.0 L 102.66666666666667 67.66666666666667 L 103.0 67.0 L 103.0 66.0 L 102.66666666666667 65.33333333333333 L 102.0 65.0 L 101.0 65.0 L 100.0 65.0 L 99.0 65.0 L 98.0 65.0 L 97.0 65.0 L 96.0 65.0 L 95.0 65.0 L 94.0 65.0 L 93.0 65.0 L 92.0 65.0 L 91.33333333333333 65.33333333333333 L 91.0 66.0 L 91.0 67.0 L 91.33333333333333 67.66666666666667 L 91.5 68.0 Z" stroke="none" fill="rgb(93,157,191)" />
<path d="M 31.0 66.5 L 31.0 66.0 L 30.666666666666668 65.0 L 30.0 64.33333333333333 L 29.0 64.0 L 28.0 64.0 L 27.0 64.0 L 26.0 64.0 L 25.0 64.0 L 24.0 64.0 L 23.0 64.0 L 22.0 64.0 L 21.0 64.0 L 20.333333333333332 64.33333333333333 L 20.0 65.0 L 20.0 66.0 L 20.333333333333332 66.66666666666667 L 21.0 67.0 L 22.0 67.0 L 23.0 67.0 L 24.0 67.0 L 25.0 67.0 L 26.0 67.0 L 27.0 67.0 L 28.0 67.0 L 29.0 67.0 L 30.0 67.0 L 30.5 67.0 Z" stroke="none" fill="rgb(93,157,191)" />
<path d="M 24.5 69.0 L 25.0 69.0 L 26.0 69.0 L 27.0 69.0 L 28.0 69.0 L 29.0 69.0 L 30.0 69.0 L 30.666666666666668 68.66666666666667 L 31.0 68.0 L 30.666666666666668 67.33333333333333 L 30.0 67.0 L 29.0 67.0 L 28.0 67.0 L 27.0 67.0 L 26.0 67.0 L 25.0 67.0 L 24.0 67.0 L 23.0 67.0 L 22.0 67.0 L 21.0 67.0 L 20.333333333333332 67.33333333333333 L 20.0 68.0 L 20.333333333333332 69.0 L 21.0 69.66666666666667 L 22.0 69.66666666666667 L 23.0 69.33333333333333 L 23.5 69.0 Z" stroke="none" fill="rgb(69,150,194)" />
<path d="M 91.5 70.0 L 92.0 70.0 L 93.0 70.0 L 94.0 70.0 L 95.0 70.0 L 96.0 70.0 L 97.0 70.0 L 98.0 70.0 L 99.0 70.0 L 100.0 70.0 L 101.0 70.0 L 101.66666666666667 69.66666666666667 L 102.0 69.0 L 101.66666666666667 68.33333333333333 L 101.0 68.0 L 100.0 68.0 L 99.0 68.0 L 98.0 68.0 L 97.0 68.0 L 96.0 68.0 L 95.0 68.0 L 94.0 68.0 L 93.0 68.0 L 92.0 68.0 L 91.33333333333333 68.33333333333333 L 91.0 69.0 L 91.0 69.5 Z" stroke="none" fill="rgb(69,150,194)" />
<path d="M 33.5 66.0 L 34.0 66.0 L 35.0 66.0 L 36.0 66.0 L 37.0 66.0 L 38.0 66.0 L 39.0 66.0 L 40.0 66.0 L 41.0 66.0 L 41.666666666666664 65.66666666666667 L 41.666666666666664 65.0 L 41.0 64.33333333333333 L 40.0 64.0 L 39.0 64.0 L 38.0 64.0 L 37.0 64.0 L 36.0 64.0 L 35.0 64.0 L 34.0 64.0 L 33.0 64.0 L 32.0 64.0 L 31.333333333333332 64.33333333333333 L 31.0 65.0 L 31.333333333333332 65.66666666666667 L 32.0 66.0 L 32.5 66.0 Z" stroke="none" fill="rgb(104,188,235)" />
<path d="M 95.5 90.5 L 95.66666666666667 90.0 L 96.0 89.0 L 95.66666666666667 88.33333333333333 L 95.0 88.33333333333333 L 94.0 89.0 L 93.0 90.0 L 92.33333333333333 91.0 L 92.33333333333333 91.66666666666667 L 93.0 92.0 L 94.0 91.66666666666667 L 94.5 91.5 Z" stroke="none" fill="rgb(255,255,255)" />
<path d="M 15.5 53.0 L 15.666666666666666 52.666666666666664 L 16.0 52.0 L 16.0 51.0 L 15.666666666666666 50.333333333333336 L 15.333333333333334 50.333333333333336 L 15.0 51.0 L 15.0 52.0 L 15.0 52.5 Z" stroke="none" fill="rgb(0,0,0)" />
<path d="M 116.5 25.0 L 116.66666666666667 24.666666666666668 L 116.66666666666667 24.333333333333332 L 116.33333333333333 24.333333333333332 L 116.0 24.5 Z" stroke="none" fill="rgb(0,0,0)" />
<path d="M 31.5 41.0 L 31.666666666666668 40.666666666666664 L 31.666666666666668 40.333333333333336 L 31.333333333333332 40.333333333333336 L 31.0 40.5 Z" stroke="none" fill="rgb(0,0,0)" />
<path d="M 97.5 87.0 L 97.66666666666667 86.66666666666667 L 97.66666666666667 86.33333333333333 L 97.33333333333333 86.33333333333333 L 97.0 86.5 Z" stroke="none" fill="rgb(255,255,255)" />
<path d="M 96.5 88.0 L 96.66666666666667 87.66666666666667 L 96.66666666666667 87.33333333333333 L 96.33333333333333 87.33333333333333 L 96.0 87.5 Z" stroke="none" fill="rgb(255,255,255)" />
<path d="M 92.0 92.5 L 91.66666666666667 92.33333333333333 L 91.33333333333333 92.33333333333333 L 91.33333333333333 92.66666666666667 L 91.5 93.0 Z" stroke="none" fill="rgb(255,255,255)" />
</svg>
