<?xml version="1.0" encoding="UTF-8" standalone="no"?>
<!DOCTYPE svg PUBLIC "-//W3C//DTD SVG 1.1//EN"
"http://www.w3.org/Graphics/SVG/1.1/DTD/svg11.dtd">
<svg width="128" height="128" xmlns="http://www.w3.org/2000/svg" version="1.1">
<path d="M 108.5 128.0 L 109.0 128.0 L 110.0 128.0 L 111.0 128.0 L 112.0 128.0 L 113.0 128.0 L 114.0 128.0 L 115.0 128.0 L 116.0 128.0 L 117.0 128.0 L 118.0 128.0 L 119.0 128.0 L 120.0 128.0 L 121.0 128.0 L 122.0 128.0 L 123.0 128.0 L 124.0 128.0 L 125.0 128.0 L 126.0 128.0 L 127.0 128.0 L 127.66666666666667 127.66666666666667 L 128.0 127.0 L 128.0 126.0 L 128.0 125.0 L 128.0 124.0 L 128.0 123.0 L 128.0 122.0 L 128.0 121.0 L 128.0 120.0 L 128.0 119.0 L 128.0 118.0 L 128.0 117.0 L 128.0 116.0 L 128.0 115.0 L 128.0 114.0 L 128.0 113.0 L 128.0 112.0 L 128.0 111.0 L 128.0 110.0 L 128.0 109.0 L 128.0 108.0 L 128.0 107.0 L 128.0 106.0 L 128.0 105.0 L 128.0 104.0 L 128.0 103.0 L 128.0 102.0 L 128.0 101.0 L 128.0 100.0 L 128.0 99.0 L 128.0 98.0 L 128.0 97.0 L 128.0 96.0 L 128.0 95.0 L 128.0 94.0 L 128.0 93.0 L 128.0 92.0 L 128.0 91.0 L 128.0 90.0 L 128.0 89.0 L 128.0 88.0 L 128.0 87.0 L 128.0 86.0 L 128.0 85.0 L 128.0 84.0 L 128.0 83.0 L 128.0 82.0 L 128.0 81.0 L 128.0 80.0 L 128.0 79.0 L 128.0 78.0 L 128.0 77.0 L 128.0 76.0 L 128.0 75.0 L 128.0 74.0 L 128.0 73.0 L 128.0 72.0 L 128.0 71.0 L 128.0 70.0 L 128.0 69.0 L 128.0 68.0 L 128.0 67.0 L 128.0 66.0 L 128.0 65.0 L 128.0 64.0 L 128.0 63.0 L 128.0 62.0 L 128.0 61.0 L 128.0 60.0 L 128.0 59.0 L 128.0 58.0 L 128.0 57.0 L 128.0 56.0 L 128.0 55.0 L 128.0 54.0 L 128.0 53.0 L 128.0 52.0 L 128.0 51.0 L 128.0 50.0 L 128.0 49.0 L 128.0 48.0 L 128.0 47.0 L 128.0 46.0 L 128.0 45.0 L 128.0 44.0 L 128.0 43.0 L 128.0 42.0 L 128.0 41.0 L 128.0 40.0 L 128.0 39.0 L 128.0 38.0 L 128.0 37.0 L 128.0 36.0 L 128.0 35.0 L 128.0 34.0 L 128.0 33.0 L 128.0 32.0 L 128.0 31.0 L 128.0 30.0 L 128.0 29.0 L 128.0 28.0 L 128.0 27.0 L 128.0 26.0 L 128.0 25.0 L 128.0 24.0 L 128.0 23.0 L 128.0 22.0 L 128.0 21.0 L 128.0 20.0 L 128.0 19.0 L 128.0 18.0 L 128.0 17.0 L 128.0 16.0 L 128.0 15.0 L 128.0 14.0 L 128.0 13.0 L 128.0 12.0 L 128.0 11.0 L 128.0 10.0 L 128.0 9.0 L 128.0 8.0 L 128.0 7.0 L 128.0 6.0 L 128.0 5.0 L 128.0 4.0 L 128.0 3.0 L 128.0 2.0 L 128.0 1.0 L 127.66666666666667 0.3333333333333333 L 127.0 0.0 L 126.0 0.0 L 125.0 0.0 L 124.0 0.0 L 123.0 0.0 L 122.0 0.0 L 121.0 0.0 L 120.0 0.0 L 119.0 0.0 L 118.0 0.0 L 117.0 0.0 L 116.0 0.0 L 115.0 0.0 L 114.0 0.0 L 113.0 0.0 L 112.0 0.0 L 111.0 0.0 L 110.0 0.0 L 109.0 0.0 L 108.0 0.0 L 107.0 0.0 L 106.0 0.0 L 105.0 0.0 L 104.0 0.0 L 103.0 0.0 L 102.0 0.0 L 101.0 0.0 L 100.0 0.0 L 99.0 0.0 L 98.0 0.0 L 97.0 0.0 L 96.0 0.0 L 95.0 0.0 L 94.0 0.0 L 93.0 0.0 L 92.0 0.0 L 91.0 0.0 L 90.0 0.0 L 89.0 0.0 L 88.0 0.0 L 87.0 0.0 L 86.0 0.0 L 85.0 0.0 L 84.0 0.0 L 83.0 0.0 L 82.0 0.0 L 81.0 0.0 L 80.0 0.0 L 79.0 0.0 L 78.0 0.0 L 77.0 0.0 L 76.0 0.0 L 75.0 0.0 L 74.0 0.0 L 73.0 0.0 L 72.0 0.0 L 71.0 0.0 L 70.0 0.0 L 69.0 0.0 L 68.0 0.0 L 67.0 0.0 L 66.0 0.0 L 65.0 0.0 L 64.0 0.0 L 63.0 0.0 L 62.0 0.0 L 61.0 0.0 L 60.0 0.0 L 59.0 0.0 L 58.0 0.0 L 57.0 0.0 L 56.0 0.0 L 55.0 0.0 L 54.0 0.0 L 53.0 0.0 L 52.0 0.0 L 51.0 0.0 L 50.0 0.0 L 49.0 0.0 L 48.0 0.0 L 47.0 0.0 L 46.0 0.0 L 45.0 0.0 L 44.0 0.0 L 43.0 0.0 L 42.0 0.0 L 41.0 0.0 L 40.0 0.0 L 39.0 0.0 L 38.0 0.0 L 37.0 0.0 L 36.0 0.0 L 35.0 0.0 L 34.0 0.0 L 33.0 0.0 L 32.0 0.0 L 31.0 0.0 L 30.0 0.0 L 29.0 0.0 L 28.0 0.0 L 27.0 0.0 L 26.0 0.0 L 25.0 0.0 L 24.0 0.0 L 23.0 0.0 L 22.0 0.0 L 21.0 0.0 L 20.0 0.0 L 19.0 0.0 L 18.0 0.0 L 17.0 0.0 L 16.0 0.0 L 15.0 0.0 L 14.0 0.0 L 13.0 0.0 L 12.0 0.0 L 11.0 0.0 L 10.0 0.0 L 9.0 0.0 L 8.0 0.0 L 7.0 0.0 L 6.0 0.0 L 5.0 0.0 L 4.0 0.0 L 3.0 0.0 L 2.0 0.0 L 1.0 0.0 L 0.3333333333333333 0.3333333333333333 L 0.0 1.0 L 0.0 2.0 L 0.0 3.0 L 0.0 4.0 L 0.0 5.0 L 0.0 6.0 L 0.0 7.0 L 0.0 8.0 L 0.0 9.0 L 0.0 10.0 L 0.0 11.0 L 0.0 12.0 L 0.0 13.0 L 0.0 14.0 L 0.0 15.0 L 0.0 16.0 L 0.0 17.0 L 0.0 18.0 L 0.0 19.0 L 0.0 20.0 L 0.0 21.0 L 0.0 22.0 L 0.0 23.0 L 0.0 24.0 L 0.0 25.0 L 0.0 26.0 L 0.0 27.0 L 0.0 28.0 L 0.0 29.0 L 0.0 30.0 L 0.0 31.0 L 0.0 32.0 L 0.0 33.0 L 0.0 34.0 L 0.0 35.0 L 0.0 36.0 L 0.0 37.0 L 0.0 38.0 L 0.0 39.0 L 0.0 40.0 L 0.0 41.0 L 0.0 42.0 L 0.0 43.0 L 0.0 44.0 L 0.0 45.0 L 0.0 46.0 L 0.0 47.0 L 0.0 48.0 L 0.0 49.0 L 0.0 50.0 L 0.0 51.0 L 0.0 52.0 L 0.0 53.0 L 0.0 54.0 L 0.0 55.0 L 0.0 56.0 L 0.0 57.0 L 0.0 58.0 L 0.0 59.0 L 0.0 60.0 L 0.0 61.0 L 0.0 62.0 L 0.0 63.0 L 0.0 64.0 L 0.0 65.0 L 0.0 66.0 L 0.0 67.0 L 0.0 68.0 L 0.0 69.0 L 0.0 70.0 L 0.0 71.0 L 0.0 72.0 L 0.0 73.0 L 0.0 74.0 L 0.0 75.0 L 0.0 76.0 L 0.0 77.0 L 0.0 78.0 L 0.0 79.0 L 0.0 80.0 L 0.0 81.0 L 0.0 82.0 L 0.0 83.0 L 0.0 84.0 L 0.0 85.0 L 0.0 86.0 L 0.0 87.0 L 0.0 88.0 L 0.0 89.0 L 0.0 90.0 L 0.0 91.0 L 0.0 92.0 L 0.0 93.0 L 0.0 94.0 L 0.0 95.0 L 0.0 96.0 L 0.0 97.0 L 0.0 98.0 L 0.0 99.0 L 0.0 100.0 L 0.0 101.0 L 0.0 102.0 L 0.0 103.0 L 0.0 104.0 L 0.0 105.0 L 0.0 106.0 L 0.0 107.0 L 0.0 108.0 L 0.0 109.0 L 0.0 110.0 L 0.0 111.0 L 0.0 112.0 L 0.0 113.0 L 0.0 114.0 L 0.0 115.0 L 0.0 116.0 L 0.0 117.0 L 0.0 118.0 L 0.0 119.0 L 0.0 120.0 L 0.0 121.0 L 0.0 122.0 L 0.0 123.0 L 0.0 124.0 L 0.0 125.0 L 0.0 126.0 L 0.0 127.0 L 0.3333333333333333 127.66666666666667 L 1.0 128.0 L 2.0 128.0 L 3.0 128.0 L 4.0 128.0 L 5.0 128.0 L 6.0 128.0 L 7.0 128.0 L 8.0 128.0 L 9.0 128.0 L 10.0 128.0 L 11.0 128.0 L 12.0 128.0 L 13.0 128.0 L 14.0 128.0 L 15.0 128.0 L 16.0 128.0 L 17.0 128.0 L 18.0 128.0 L 19.0 128.0 L 20.0 128.0 L 21.0 128.0 L 22.0 128.0 L 23.0 128.0 L 24.0 128.0 L 25.0 128.0 L 26.0 128.0 L 27.0 128.0 L 28.0 128.0 L 29.0 128.0 L 30.0 128.0 L 31.0 128.0 L 32.0 128.0 L 33.0 128.0 L 34.0 128.0 L 35.0 128.0 L 36.0 128.0 L 37.0 128.0 L 38.0 128.0 L 39.0 128.0 L 40.0 128.0 L 41.0 128.0 L 42.0 128.0 L 43.0 128.0 L 44.0 128.0 L 45.0 128.0 L 46.0 128.0 L 47.0 128.0 L 48.0 128.0 L 49.0 128.0 L 50.0 128.0 L 51.0 128.0 L 52.0 128.0 L 53.0 128.0 L 54.0 128.0 L 55.0 128.0 L 56.0 128.0 L 57.0 128.0 L 58.0 128.0 L 59.0 128.0 L 60.0 128.0 L 61.0 128.0 L 62.0 128.0 L 63.0 128.0 L 64.0 128.0 L 65.0 128.0 L 66.0 128.0 L 67.0 128.0 L 68.0 128.0 L 69.0 128.0 L 70.0 128.0 L 71.0 128.0 L 72.0 128.0 L 73.0 128.0 L 74.0 128.0 L 75.0 128.0 L 76.0 128.0 L 77.0 128.0 L 78.0 128.0 L 79.0 128.0 L 80.0 128.0 L 81.0 128.0 L 82.0 128.0 L 83.0 128.0 L 84.0 128.0 L 85.0 128.0 L 86.0 128.0 L 87.0 128.0 L 88.0 128.0 L 89.0 128.0 L 90.0 128.0 L 91.0 128.0 L 92.0 128.0 L 93.0 128.0 L 94.0 128.0 L 95.0 128.0 L 96.0 128.0 L 97.0 128.0 L 98.0 128.0 L 99.0 128.0 L 100.0 128.0 L 101.0 128.0 L 102.0 128.0 L 103.0 128.0 L 104.0 128.0 L 105.0 128.0 L 106.0 128.0 L 107.0 128.0 L 107.5 128.0 Z" stroke="none" fill="rgb(0,0,0)" />
<path d="M 88.5 14.0 L 89.0 14.333333333333334 L 90.0 15.0 L 91.0 16.0 L 92.0 17.0 L 93.0 18.0 L 94.0 19.0 L 95.0 20.0 L 96.0 21.0 L 97.0 22.0 L 98.0 23.0 L 98.66666666666667 24.0 L 99.33333333333333 25.0 L 100.0 25.666666666666668 L 100.66666666666667 25.666666666666668 L 101.0 25.0 L 101.0 24.0 L 100.66666666666667 23.0 L 100.33333333333333 22.0 L 99.66666666666667 21.0 L 99.33333333333333 20.0 L 98.66666666666667 19.0 L 98.33333333333333 18.0 L 97.66666666666667 17.0 L 97.0 16.0 L 96.0 15.0 L 95.0 14.0 L 94.0 13.0 L 93.0 12.0 L 92.0 11.0 L 91.0 10.0 L 90.0 9.333333333333334 L 89.0 8.666666666666666 L 88.0 8.0 L 87.0 7.333333333333333 L 86.0 6.666666666666667 L 85.0 6.333333333333333 L 84.0 5.666666666666667 L 83.0 5.333333333333333 L 82.0 5.0 L 81.0 4.666666666666667 L 80.0 4.333333333333333 L 79.0 4.0 L 78.0 4.0 L 77.0 3.6666666666666665 L 76.0 3.3333333333333335 L 75.0 3.0 L 74.0 3.0 L 73.0 3.0 L 72.0 3.0 L 71.0 3.0 L 70.0 2.6666666666666665 L 69.0 2.3333333333333335 L 68.0 2.0 L 67.0 2.0 L 66.0 2.0 L 65.0 2.0 L 64.0 2.0 L 63.0 2.0 L 62.0 2.0 L 61.0 2.0 L 60.0 2.3333333333333335 L 59.0 2.6666666666666665 L 58.0 3.0 L 57.0 3.0 L 56.0 3.0 L 55.0 3.0 L 54.0 3.0 L 53.0 3.3333333333333335 L 52.0 3.6666666666666665 L 51.0 4.0 L 50.0 4.0 L 49.0 4.333333333333333 L 48.0 4.666666666666667 L 47.0 5.0 L 46.0 5.333333333333333 L 45.0 5.666666666666667 L 44.0 6.333333333333333 L 43.0 6.666666666666667 L 42.0 7.333333333333333 L 41.0 8.0 L 40.0 8.666666666666666 L 39.0 9.333333333333334 L 38.0 10.0 L 37.0 11.0 L 36.0 12.0 L 35.0 13.0 L 34.0 14.0 L 33.0 15.0 L 32.0 16.0 L 31.333333333333332 17.0 L 30.666666666666668 18.0 L 30.333333333333332 19.0 L 29.666666666666668 20.0 L 29.333333333333332 21.0 L 28.666666666666668 22.0 L 28.333333333333332 23.0 L 27.666666666666668 24.0 L 27.333333333333332 25.0 L 27.0 26.0 L 27.333333333333332 26.666666666666668 L 28.0 26.666666666666668 L 29.0 26.0 L 29.666666666666668 25.0 L 30.333333333333332 24.0 L 31.0 23.0 L 32.0 22.0 L 33.0 21.0 L 34.0 20.0 L 35.0 19.0 L 36.0 18.0 L 37.0 17.0 L 38.0 16.0 L 39.0 15.0 L 40.0 14.333333333333334 L 41.0 13.666666666666666 L 42.0 13.0 L 43.0 12.333333333333334 L 44.0 11.666666666666666 L 45.0 11.0 L 46.0 10.333333333333334 L 47.0 9.666666666666666 L 48.0 9.333333333333334 L 49.0 9.0 L 50.0 8.666666666666666 L 51.0 8.333333333333334 L 52.0 7.666666666666667 L 53.0 7.333333333333333 L 54.0 7.0 L 55.0 7.0 L 56.0 6.666666666666667 L 57.0 6.333333333333333 L 58.0 6.0 L 59.0 6.0 L 60.0 6.0 L 61.0 6.0 L 62.0 6.0 L 63.0 6.0 L 64.0 6.0 L 65.0 6.0 L 66.0 6.0 L 67.0 6.0 L 68.0 6.0 L 69.0 6.0 L 70.0 6.0 L 71.0 6.0 L 72.0 6.333333333333333 L 73.0 6.666666666666667 L 74.0 7.0 L 75.0 7.333333333333333 L 76.0 7.666666666666667 L 77.0 8.0 L 78.0 8.333333333333334 L 79.0 8.666666666666666 L 80.0 9.333333333333334 L 81.0 9.666666666666666 L 82.0 10.333333333333334 L 83.0 10.666666666666666 L 84.0 11.333333333333334 L 85.0 11.666666666666666 L 86.0 12.333333333333334 L 87.0 13.0 L 87.5 13.5 Z" stroke="none" fill="rgb(189,157,81)" />
<path d="M 88.5 18.5 L 89.0 19.0 L 90.0 20.0 L 91.0 21.0 L 92.0 22.0 L 93.0 23.0 L 94.0 24.0 L 95.0 25.0 L 96.0 26.0 L 96.66666666666667 27.0 L 97.33333333333333 28.0 L 98.0 29.0 L 98.66666666666667 30.0 L 99.33333333333333 31.0 L 100.0 32.0 L 100.66666666666667 33.0 L 101.33333333333333 34.0 L 101.66666666666667 35.0 L 102.33333333333333 36.0 L 103.0 36.666666666666664 L 103.66666666666667 36.666666666666664 L 104.0 36.0 L 104.0 35.0 L 104.0 34.0 L 104.0 33.0 L 104.0 32.0 L 103.66666666666667 31.0 L 103.33333333333333 30.0 L 102.66666666666667 29.0 L 102.33333333333333 28.0 L 101.66666666666667 27.0 L 101.0 26.0 L 100.0 25.0 L 99.33333333333333 24.0 L 98.66666666666667 23.0 L 98.0 22.0 L 97.0 21.0 L 96.0 20.0 L 95.0 19.0 L 94.0 18.0 L 93.0 17.0 L 92.0 16.0 L 91.0 15.0 L 90.0 14.333333333333334 L 89.0 13.666666666666666 L 88.0 13.0 L 87.0 12.333333333333334 L 86.0 11.666666666666666 L 85.0 11.333333333333334 L 84.0 10.666666666666666 L 83.0 10.333333333333334 L 82.0 9.666666666666666 L 81.0 9.333333333333334 L 80.0 8.666666666666666 L 79.0 8.333333333333334 L 78.0 8.0 L 77.0 7.666666666666667 L 76.0 7.333333333333333 L 75.0 7.0 L 74.0 6.666666666666667 L 73.0 6.333333333333333 L 72.0 6.0 L 71.0 6.0 L 70.0 6.0 L 69.0 6.0 L 68.0 6.0 L 67.0 6.0 L 66.0 6.0 L 65.0 6.0 L 64.0 6.0 L 63.0 6.0 L 62.0 6.0 L 61.0 6.0 L 60.0 6.0 L 59.0 6.0 L 58.0 6.0 L 57.0 6.0 L 56.0 6.333333333333333 L 55.0 6.666666666666667 L 54.0 7.0 L 53.0 7.0 L 52.0 7.333333333333333 L 51.0 7.666666666666667 L 50.0 8.333333333333334 L 49.0 8.666666666666666 L 48.0 9.0 L 47.0 9.333333333333334 L 46.0 9.666666666666666 L 45.0 10.333333333333334 L 44.0 11.0 L 43.0 11.666666666666666 L 42.0 12.333333333333334 L 41.0 13.0 L 40.0 13.666666666666666 L 39.0 14.333333333333334 L 38.0 15.0 L 37.0 16.0 L 36.0 17.0 L 35.0 18.0 L 34.0 19.0 L 33.0 20.0 L 32.0 21.0 L 31.0 22.0 L 30.333333333333332 23.0 L 29.666666666666668 24.0 L 29.0 25.0 L 28.0 26.0 L 27.0 27.0 L 26.333333333333332 28.0 L 25.666666666666668 29.0 L 25.0 30.0 L 24.333333333333332 31.0 L 24.0 32.0 L 24.0 33.0 L 24.0 34.0 L 24.0 35.0 L 24.0 36.0 L 24.0 37.0 L 24.0 38.0 L 24.0 39.0 L 24.333333333333332 39.666666666666664 L 24.666666666666668 39.666666666666664 L 25.333333333333332 39.0 L 25.666666666666668 38.0 L 26.333333333333332 37.0 L 26.666666666666668 36.0 L 27.333333333333332 35.0 L 27.666666666666668 34.0 L 28.333333333333332 33.0 L 28.666666666666668 32.0 L 29.333333333333332 31.0 L 30.0 30.0 L 30.666666666666668 29.0 L 31.333333333333332 28.0 L 32.0 27.0 L 33.0 26.0 L 34.0 25.0 L 35.0 24.0 L 36.0 23.0 L 37.0 22.0 L 38.0 21.0 L 39.0 20.0 L 40.0 19.0 L 41.0 18.0 L 42.0 17.333333333333332 L 43.0 16.666666666666668 L 44.0 16.0 L 45.0 15.333333333333334 L 46.0 14.666666666666666 L 47.0 14.333333333333334 L 48.0 13.666666666666666 L 49.0 13.333333333333334 L 50.0 12.666666666666666 L 51.0 12.333333333333334 L 52.0 11.666666666666666 L 53.0 11.333333333333334 L 54.0 11.0 L 55.0 10.666666666666666 L 56.0 10.333333333333334 L 57.0 10.0 L 58.0 10.0 L 59.0 10.0 L 60.0 10.0 L 61.0 10.0 L 62.0 9.666666666666666 L 63.0 9.333333333333334 L 64.0 9.0 L 65.0 9.333333333333334 L 66.0 9.666666666666666 L 67.0 10.0 L 68.0 10.0 L 69.0 10.0 L 70.0 10.0 L 71.0 10.0 L 72.0 10.333333333333334 L 73.0 10.666666666666666 L 74.0 11.0 L 75.0 11.0 L 76.0 11.333333333333334 L 77.0 11.666666666666666 L 78.0 12.333333333333334 L 79.0 12.666666666666666 L 80.0 13.333333333333334 L 81.0 13.666666666666666 L 82.0 14.333333333333334 L 83.0 14.666666666666666 L 84.0 15.333333333333334 L 85.0 16.0 L 86.0 16.666666666666668 L 87.0 17.333333333333332 L 87.5 17.5 Z" stroke="none" fill="rgb(182,149,69)" />
<path d="M 4.5 29.0 L 5.0 29.0 L 6.0 29.0 L 7.0 29.0 L 8.0 29.0 L 8.666666666666666 28.666666666666668 L 9.0 28.0 L 9.0 27.0 L 9.0 26.0 L 9.0 25.0 L 9.0 24.0 L 9.0 23.0 L 9.0 22.0 L 9.0 21.0 L 9.0 20.0 L 9.0 19.0 L 9.0 18.0 L 9.0 17.0 L 9.0 16.0 L 9.333333333333334 15.0 L 10.0 14.333333333333334 L 11.0 14.0 L 12.0 14.0 L 13.0 14.0 L 14.0 14.0 L 15.0 14.0 L 16.0 14.0 L 17.0 14.0 L 18.0 14.0 L 19.0 14.0 L 20.0 14.0 L 21.0 14.0 L 22.0 14.0 L 23.0 14.0 L 24.0 14.0 L 25.0 14.0 L 26.0 14.0 L 27.0 14.0 L 28.0 14.0 L 29.0 14.0 L 30.0 14.0 L 31.0 14.0 L 32.0 14.333333333333334 L 33.0 14.666666666666666 L 34.0 14.666666666666666 L 35.0 14.0 L 36.0 13.0 L 37.0 12.0 L 38.0 11.0 L 38.666666666666664 10.0 L 39.0 9.0 L 38.666666666666664 8.333333333333334 L 38.0 8.0 L 37.0 8.0 L 36.0 8.0 L 35.0 8.0 L 34.0 8.0 L 33.0 8.0 L 32.0 8.0 L 31.0 8.0 L 30.0 8.0 L 29.0 8.0 L 28.0 8.0 L 27.0 8.0 L 26.0 8.0 L 25.0 8.0 L 24.0 8.0 L 23.0 8.0 L 22.0 8.0 L 21.0 8.0 L 20.0 8.0 L 19.0 8.0 L 18.0 8.0 L 17.0 8.0 L 16.0 8.0 L 15.0 8.0 L 14.0 8.0 L 13.0 8.0 L 12.0 8.0 L 11.0 8.0 L 10.0 8.0 L 9.0 8.0 L 8.0 8.0 L 7.0 8.0 L 6.0 8.0 L 5.0 8.0 L 4.333333333333333 8.333333333333334 L 4.0 9.0 L 4.0 10.0 L 4.0 11.0 L 4.0 12.0 L 4.0 13.0 L 4.0 14.0 L 4.0 15.0 L 4.0 16.0 L 4.0 17.0 L 4.0 18.0 L 4.0 19.0 L 4.0 20.0 L 4.0 21.0 L 4.0 22.0 L 4.0 23.0 L 4.0 24.0 L 4.0 25.0 L 4.0 26.0 L 4.0 27.0 L 4.0 28.0 L 4.0 28.5 Z" stroke="none" fill="rgb(139,109,97)" />
<path d="M 123.5 29.0 L 123.66666666666667 28.666666666666668 L 124.0 28.0 L 124.0 27.0 L 124.0 26.0 L 124.0 25.0 L 124.0 24.0 L 124.0 23.0 L 124.0 22.0 L 124.0 21.0 L 124.0 20.0 L 124.0 19.0 L 124.0 18.0 L 124.0 17.0 L 124.0 16.0 L 124.0 15.0 L 124.0 14.0 L 124.0 13.0 L 124.0 12.0 L 124.0 11.0 L 124.0 10.0 L 124.0 9.0 L 123.66666666666667 8.333333333333334 L 123.0 8.0 L 122.0 8.0 L 121.0 8.0 L 120.0 8.0 L 119.0 8.0 L 118.0 8.0 L 117.0 8.0 L 116.0 8.0 L 115.0 8.0 L 114.0 8.0 L 113.0 8.0 L 112.0 8.0 L 111.0 8.0 L 110.0 8.0 L 109.0 8.0 L 108.0 8.0 L 107.0 8.0 L 106.0 8.0 L 105.0 8.0 L 104.0 8.0 L 103.0 8.0 L 102.0 8.0 L 101.0 8.0 L 100.0 8.0 L 99.0 8.0 L 98.0 8.0 L 97.0 8.0 L 96.0 8.0 L 95.0 8.0 L 94.0 8.0 L 93.0 8.0 L 92.0 8.0 L 91.0 8.0 L 90.33333333333333 8.333333333333334 L 90.0 9.0 L 90.33333333333333 10.0 L 91.0 11.0 L 92.0 12.0 L 93.0 13.0 L 94.0 14.0 L 95.0 14.666666666666666 L 96.0 14.666666666666666 L 97.0 14.333333333333334 L 98.0 14.0 L 99.0 14.0 L 100.0 14.0 L 101.0 14.0 L 102.0 14.0 L 103.0 14.0 L 104.0 14.0 L 105.0 14.0 L 106.0 14.0 L 107.0 14.0 L 108.0 14.0 L 109.0 14.0 L 110.0 14.0 L 111.0 14.0 L 112.0 14.0 L 113.0 14.0 L 114.0 14.0 L 115.0 14.0 L 116.0 14.0 L 117.0 14.0 L 118.0 14.333333333333334 L 118.66666666666667 15.0 L 119.0 16.0 L 119.0 17.0 L 119.0 18.0 L 119.0 19.0 L 119.0 20.0 L 119.0 21.0 L 119.0 22.0 L 119.0 23.0 L 119.0 24.0 L 119.0 25.0 L 119.0 26.0 L 119.0 27.0 L 119.33333333333333 28.0 L 120.0 28.666666666666668 L 121.0 29.0 L 122.0 29.0 L 122.5 29.0 Z" stroke="none" fill="rgb(139,109,97)" />
<path d="M 101.5 41.5 L 101.66666666666667 42.0 L 102.0 43.0 L 102.33333333333333 44.0 L 103.0 44.666666666666664 L 103.66666666666667 44.666666666666664 L 104.0 44.0 L 104.0 43.0 L 104.0 42.0 L 104.0 41.0 L 104.0 40.0 L 104.0 39.0 L 104.0 38.0 L 103.66666666666667 37.0 L 103.0 36.0 L 102.33333333333333 35.0 L 101.66666666666667 34.0 L 101.33333333333333 33.0 L 100.66666666666667 32.0 L 100.0 31.0 L 99.33333333333333 30.0 L 98.66666666666667 29.0 L 98.0 28.0 L 97.33333333333333 27.0 L 96.66666666666667 26.0 L 96.0 25.0 L 95.0 24.0 L 94.0 23.0 L 93.0 22.0 L 92.0 21.0 L 91.0 20.0 L 90.0 19.0 L 89.0 18.0 L 88.0 17.333333333333332 L 87.0 16.666666666666668 L 86.0 16.0 L 85.0 15.333333333333334 L 84.0 14.666666666666666 L 83.0 14.333333333333334 L 82.0 13.666666666666666 L 81.0 13.333333333333334 L 80.0 12.666666666666666 L 79.0 12.333333333333334 L 78.0 11.666666666666666 L 77.0 11.333333333333334 L 76.0 11.0 L 75.0 11.0 L 74.0 10.666666666666666 L 73.0 10.333333333333334 L 72.0 10.0 L 71.0 10.0 L 70.0 10.0 L 69.0 10.0 L 68.0 10.0 L 67.0 9.666666666666666 L 66.0 9.333333333333334 L 65.0 9.0 L 64.0 9.0 L 63.0 9.0 L 62.0 9.333333333333334 L 61.0 9.666666666666666 L 60.0 10.0 L 59.0 10.0 L 58.0 10.0 L 57.0 10.0 L 56.0 10.0 L 55.0 10.333333333333334 L 54.0 10.666666666666666 L 53.0 11.0 L 52.0 11.333333333333334 L 51.0 11.666666666666666 L 50.0 12.333333333333334 L 49.0 12.666666666666666 L 48.0 13.333333333333334 L 47.0 13.666666666666666 L 46.0 14.333333333333334 L 45.0 14.666666666666666 L 44.0 15.333333333333334 L 43.0 16.0 L 42.0 16.666666666666668 L 41.0 17.333333333333332 L 40.0 18.0 L 39.0 19.0 L 38.0 20.0 L 37.0 21.0 L 36.0 22.0 L 35.0 23.0 L 34.0 24.0 L 33.0 25.0 L 32.0 26.0 L 31.333333333333332 27.0 L 30.666666666666668 28.0 L 30.0 29.0 L 29.333333333333332 30.0 L 28.666666666666668 31.0 L 28.333333333333332 32.0 L 27.666666666666668 33.0 L 27.333333333333332 34.0 L 26.666666666666668 35.0 L 26.333333333333332 36.0 L 25.666666666666668 37.0 L 25.333333333333332 38.0 L 24.666666666666668 39.0 L 24.333333333333332 40.0 L 24.0 41.0 L 24.0 42.0 L 24.0 43.0 L 24.0 44.0 L 24.0 45.0 L 24.0 46.0 L 24.0 47.0 L 24.0 48.0 L 24.0 49.0 L 24.333333333333332 49.666666666666664 L 24.666666666666668 49.666666666666664 L 25.0 49.0 L 25.333333333333332 48.0 L 25.666666666666668 47.0 L 26.0 46.0 L 26.333333333333332 45.0 L 26.666666666666668 44.0 L 27.0 43.0 L 27.333333333333332 42.0 L 27.666666666666668 41.0 L 28.333333333333332 40.0 L 28.666666666666668 39.0 L 29.333333333333332 38.0 L 29.666666666666668 37.0 L 30.333333333333332 36.0 L 30.666666666666668 35.0 L 31.333333333333332 34.0 L 32.0 33.0 L 32.666666666666664 32.0 L 33.333333333333336 31.0 L 34.0 30.0 L 34.666666666666664 29.0 L 35.333333333333336 28.0 L 36.0 27.0 L 37.0 26.0 L 38.0 25.0 L 39.0 24.0 L 40.0 23.0 L 41.0 22.0 L 42.0 21.333333333333332 L 43.0 20.666666666666668 L 44.0 20.0 L 45.0 19.333333333333332 L 46.0 18.666666666666668 L 47.0 18.0 L 48.0 17.333333333333332 L 49.0 16.666666666666668 L 50.0 16.333333333333332 L 51.0 15.666666666666666 L 52.0 15.333333333333334 L 53.0 15.0 L 54.0 14.666666666666666 L 55.0 14.333333333333334 L 56.0 14.0 L 57.0 14.0 L 58.0 13.666666666666666 L 59.0 13.333333333333334 L 60.0 13.0 L 61.0 13.0 L 62.0 13.0 L 63.0 13.0 L 64.0 13.0 L 65.0 13.0 L 66.0 13.0 L 67.0 13.0 L 68.0 13.0 L 69.0 13.0 L 70.0 13.333333333333334 L 71.0 13.666666666666666 L 72.0 14.0 L 73.0 14.0 L 74.0 14.333333333333334 L 75.0 14.666666666666666 L 76.0 15.0 L 77.0 15.333333333333334 L 78.0 15.666666666666666 L 79.0 16.333333333333332 L 80.0 16.666666666666668 L 81.0 17.333333333333332 L 82.0 18.0 L 83.0 18.666666666666668 L 84.0 19.333333333333332 L 85.0 20.0 L 86.0 21.0 L 87.0 21.666666666666668 L 88.0 22.333333333333332 L 89.0 23.0 L 90.0 24.0 L 91.0 25.0 L 92.0 26.0 L 92.66666666666667 27.0 L 93.33333333333333 28.0 L 94.0 29.0 L 95.0 30.0 L 95.66666666666667 31.0 L 96.33333333333333 32.0 L 97.0 33.0 L 97.66666666666667 34.0 L 98.33333333333333 35.0 L 98.66666666666667 36.0 L 99.33333333333333 37.0 L 99.66666666666667 38.0 L 100.33333333333333 39.0 L 100.66666666666667 40.0 L 101.0 40.5 Z" stroke="none" fill="rgb(176,142,57)" />
<path d="M 33.5 87.5 L 33.666666666666664 88.0 L 34.333333333333336 89.0 L 35.0 90.0 L 36.0 91.0 L 36.666666666666664 92.0 L 37.333333333333336 93.0 L 38.0 94.0 L 39.0 95.0 L 40.0 96.0 L 41.0 97.0 L 42.0 97.66666666666667 L 43.0 97.66666666666667 L 44.0 97.33333333333333 L 45.0 97.0 L 46.0 96.66666666666667 L 47.0 96.33333333333333 L 48.0 95.66666666666667 L 49.0 95.33333333333333 L 50.0 94.66666666666667 L 50.666666666666664 94.0 L 50.666666666666664 93.0 L 50.0 92.0 L 49.0 91.0 L 48.0 90.0 L 47.0 89.0 L 46.0 88.0 L 45.0 87.0 L 44.0 86.0 L 43.0 85.0 L 42.0 84.0 L 41.0 83.0 L 40.0 82.0 L 39.0 81.0 L 38.333333333333336 80.0 L 37.666666666666664 79.0 L 37.0 78.0 L 36.333333333333336 77.0 L 35.666666666666664 76.0 L 35.333333333333336 75.0 L 34.666666666666664 74.0 L 34.333333333333336 73.0 L 33.666666666666664 72.0 L 33.333333333333336 71.0 L 33.0 70.0 L 32.666666666666664 69.0 L 32.333333333333336 68.0 L 32.0 67.0 L 32.0 66.0 L 32.0 65.0 L 32.0 64.0 L 32.0 63.0 L 32.0 62.0 L 32.333333333333336 61.0 L 32.666666666666664 60.0 L 33.0 59.0 L 33.0 58.0 L 33.333333333333336 57.0 L 33.666666666666664 56.0 L 34.0 55.0 L 34.0 54.0 L 34.333333333333336 53.0 L 34.666666666666664 52.0 L 35.0 51.0 L 35.333333333333336 50.0 L 35.666666666666664 49.0 L 36.333333333333336 48.0 L 37.0 47.0 L 38.0 46.0 L 39.0 45.333333333333336 L 40.0 45.0 L 41.0 44.666666666666664 L 42.0 44.333333333333336 L 43.0 44.0 L 44.0 44.0 L 45.0 43.666666666666664 L 46.0 43.333333333333336 L 47.0 43.0 L 48.0 42.666666666666664 L 49.0 42.333333333333336 L 50.0 42.0 L 51.0 41.666666666666664 L 52.0 41.333333333333336 L 53.0 40.666666666666664 L 54.0 40.333333333333336 L 55.0 40.0 L 56.0 39.666666666666664 L 57.0 39.333333333333336 L 58.0 38.666666666666664 L 59.0 38.333333333333336 L 60.0 37.666666666666664 L 61.0 37.333333333333336 L 62.0 36.666666666666664 L 63.0 36.333333333333336 L 64.0 35.666666666666664 L 65.0 35.0 L 66.0 34.333333333333336 L 67.0 33.666666666666664 L 68.0 33.333333333333336 L 69.0 32.666666666666664 L 70.0 32.0 L 71.0 31.333333333333332 L 72.0 30.666666666666668 L 73.0 30.0 L 74.0 29.666666666666668 L 75.0 30.0 L 76.0 31.0 L 77.0 32.0 L 78.0 33.0 L 79.0 34.0 L 80.0 35.0 L 81.0 36.0 L 82.0 37.0 L 83.0 38.0 L 84.0 39.0 L 85.0 40.0 L 86.0 41.0 L 87.0 41.666666666666664 L 88.0 42.333333333333336 L 89.0 43.0 L 90.0 44.0 L 91.0 45.0 L 92.0 46.0 L 92.66666666666667 47.0 L 93.33333333333333 48.0 L 93.66666666666667 49.0 L 94.0 50.0 L 94.0 51.0 L 94.0 52.0 L 94.0 53.0 L 94.0 54.0 L 94.33333333333333 55.0 L 94.66666666666667 56.0 L 95.0 57.0 L 95.0 58.0 L 95.0 59.0 L 95.0 60.0 L 95.33333333333333 61.0 L 95.66666666666667 62.0 L 96.0 63.0 L 96.0 64.0 L 96.0 65.0 L 96.0 66.0 L 96.0 67.0 L 96.0 68.0 L 96.0 69.0 L 95.66666666666667 70.0 L 95.33333333333333 71.0 L 94.66666666666667 72.0 L 94.33333333333333 73.0 L 94.0 74.0 L 93.66666666666667 75.0 L 93.0 76.0 L 92.33333333333333 77.0 L 91.66666666666667 78.0 L 91.0 79.0 L 90.33333333333333 80.0 L 89.66666666666667 81.0 L 89.0 82.0 L 88.0 83.0 L 87.0 84.0 L 86.0 85.0 L 85.0 86.0 L 84.0 87.0 L 83.0 88.0 L 82.0 89.0 L 81.0 90.0 L 80.0 91.0 L 79.33333333333333 92.0 L 79.0 93.0 L 79.0 94.0 L 79.33333333333333 94.66666666666667 L 80.0 95.33333333333333 L 81.0 96.0 L 82.0 96.66666666666667 L 83.0 97.0 L 84.0 97.33333333333333 L 85.0 97.66666666666667 L 86.0 98.0 L 87.0 98.0 L 87.66666666666667 97.66666666666667 L 88.0 97.0 L 88.33333333333333 96.0 L 89.0 95.0 L 90.0 94.0 L 91.0 93.0 L 91.66666666666667 92.0 L 92.33333333333333 91.0 L 93.0 90.0 L 94.0 89.0 L 94.66666666666667 88.0 L 95.33333333333333 87.0 L 96.0 86.0 L 96.66666666666667 85.0 L 97.33333333333333 84.0 L 97.66666666666667 83.0 L 98.33333333333333 82.0 L 98.66666666666667 81.0 L 99.0 80.0 L 99.33333333333333 79.0 L 99.66666666666667 78.0 L 100.33333333333333 77.0 L 100.66666666666667 76.0 L 101.0 75.0 L 101.0 74.0 L 101.33333333333333 73.0 L 102.0 72.33333333333333 L 103.0 71.66666666666667 L 103.66666666666667 71.0 L 104.0 70.0 L 104.0 69.0 L 104.0 68.0 L 104.0 67.0 L 104.0 66.0 L 104.0 65.0 L 104.0 64.0 L 104.0 63.0 L 104.0 62.0 L 104.0 61.0 L 104.0 60.0 L 104.0 59.0 L 104.0 58.0 L 104.0 57.0 L 104.0 56.0 L 104.0 55.0 L 104.0 54.0 L 104.33333333333333 53.0 L 104.66666666666667 52.0 L 105.0 51.0 L 105.0 50.0 L 104.66666666666667 49.0 L 104.33333333333333 48.0 L 104.0 47.0 L 104.0 46.0 L 103.66666666666667 45.0 L 103.0 44.0 L 102.33333333333333 43.0 L 102.0 42.0 L 101.66666666666667 41.0 L 101.33333333333333 40.0 L 100.66666666666667 39.0 L 100.33333333333333 38.0 L 99.66666666666667 37.0 L 99.33333333333333 36.0 L 98.66666666666667 35.0 L 98.33333333333333 34.0 L 97.66666666666667 33.0 L 97.0 32.0 L 96.33333333333333 31.0 L 95.66666666666667 30.0 L 95.0 29.0 L 94.0 28.0 L 93.33333333333333 27.0 L 92.66666666666667 26.0 L 92.0 25.0 L 91.0 24.0 L 90.0 23.0 L 89.0 22.333333333333332 L 88.0 21.666666666666668 L 87.0 21.0 L 86.0 20.0 L 85.0 19.333333333333332 L 84.0 18.666666666666668 L 83.0 18.0 L 82.0 17.333333333333332 L 81.0 16.666666666666668 L 80.0 16.333333333333332 L 79.0 15.666666666666666 L 78.0 15.333333333333334 L 77.0 15.0 L 76.0 14.666666666666666 L 75.0 14.333333333333334 L 74.0 14.0 L 73.0 14.0 L 72.0 13.666666666666666 L 71.0 13.333333333333334 L 70.0 13.0 L 69.0 13.0 L 68.0 13.0 L 67.0 13.0 L 66.0 13.0 L 65.0 13.0 L 64.0 13.0 L 63.0 13.0 L 62.0 13.0 L 61.0 13.0 L 60.0 13.0 L 59.0 13.0 L 58.0 13.333333333333334 L 57.0 13.666666666666666 L 56.0 14.0 L 55.0 14.0 L 54.0 14.333333333333334 L 53.0 14.666666666666666 L 52.0 15.0 L 51.0 15.333333333333334 L 50.0 15.666666666666666 L 49.0 16.333333333333332 L 48.0 16.666666666666668 L 47.0 17.333333333333332 L 46.0 18.0 L 45.0 18.666666666666668 L 44.0 19.333333333333332 L 43.0 20.0 L 42.0 20.666666666666668 L 41.0 21.333333333333332 L 40.0 22.0 L 39.0 23.0 L 38.0 24.0 L 37.0 25.0 L 36.0 26.0 L 35.333333333333336 27.0 L 34.666666666666664 28.0 L 34.0 29.0 L 33.333333333333336 30.0 L 32.666666666666664 31.0 L 32.0 32.0 L 31.333333333333332 33.0 L 30.666666666666668 34.0 L 30.333333333333332 35.0 L 29.666666666666668 36.0 L 29.333333333333332 37.0 L 28.666666666666668 38.0 L 28.333333333333332 39.0 L 27.666666666666668 40.0 L 27.333333333333332 41.0 L 27.0 42.0 L 26.666666666666668 43.0 L 26.333333333333332 44.0 L 26.0 45.0 L 25.666666666666668 46.0 L 25.333333333333332 47.0 L 25.0 48.0 L 25.0 49.0 L 24.666666666666668 50.0 L 24.333333333333332 51.0 L 24.0 52.0 L 24.0 53.0 L 24.0 54.0 L 24.0 55.0 L 24.0 56.0 L 24.0 57.0 L 24.0 58.0 L 24.0 59.0 L 24.0 60.0 L 24.0 61.0 L 24.0 62.0 L 24.0 63.0 L 24.0 64.0 L 24.0 65.0 L 24.333333333333332 66.0 L 24.666666666666668 67.0 L 25.0 68.0 L 25.0 69.0 L 25.0 70.0 L 25.333333333333332 70.66666666666667 L 26.0 71.33333333333333 L 26.666666666666668 72.0 L 27.0 73.0 L 27.0 74.0 L 27.333333333333332 75.0 L 27.666666666666668 76.0 L 28.0 77.0 L 28.333333333333332 78.0 L 28.666666666666668 79.0 L 29.333333333333332 80.0 L 29.666666666666668 81.0 L 30.333333333333332 82.0 L 30.666666666666668 83.0 L 31.333333333333332 84.0 L 31.666666666666668 85.0 L 32.333333333333336 86.0 L 32.5 86.5 Z" stroke="none" fill="rgb(171,135,47)" />
<path d="M 21.5 31.0 L 22.0 31.0 L 23.0 31.0 L 24.0 31.0 L 25.0 30.666666666666668 L 25.666666666666668 30.0 L 26.333333333333332 29.0 L 26.666666666666668 28.0 L 27.0 27.0 L 27.333333333333332 26.0 L 27.666666666666668 25.0 L 28.333333333333332 24.0 L 28.666666666666668 23.0 L 29.333333333333332 22.0 L 29.666666666666668 21.0 L 30.333333333333332 20.0 L 30.666666666666668 19.0 L 31.333333333333332 18.0 L 32.0 17.0 L 32.666666666666664 16.0 L 33.0 15.0 L 32.666666666666664 14.333333333333334 L 32.0 14.0 L 31.0 14.0 L 30.0 14.0 L 29.0 14.0 L 28.0 14.0 L 27.0 14.0 L 26.0 14.0 L 25.0 14.0 L 24.0 14.0 L 23.0 14.0 L 22.0 14.0 L 21.0 14.0 L 20.0 14.0 L 19.0 14.0 L 18.0 14.0 L 17.0 14.0 L 16.0 14.0 L 15.0 14.0 L 14.0 14.0 L 13.0 14.0 L 12.0 14.0 L 11.0 14.0 L 10.0 14.0 L 9.333333333333334 14.333333333333334 L 9.0 15.0 L 9.0 16.0 L 9.0 17.0 L 9.0 18.0 L 9.0 19.0 L 9.0 20.0 L 9.0 21.0 L 9.0 22.0 L 9.0 23.0 L 9.0 24.0 L 9.0 25.0 L 9.0 26.0 L 9.0 27.0 L 8.666666666666666 28.0 L 8.333333333333334 29.0 L 8.333333333333334 30.0 L 9.0 30.666666666666668 L 10.0 31.0 L 11.0 31.0 L 12.0 31.0 L 13.0 31.0 L 14.0 31.0 L 15.0 31.0 L 16.0 31.0 L 17.0 31.0 L 18.0 31.0 L 19.0 31.0 L 20.0 31.0 L 20.5 31.0 Z" stroke="none" fill="rgb(33,160,148)" />
<path d="M 106.5 31.0 L 107.0 31.0 L 108.0 31.0 L 109.0 31.0 L 110.0 31.0 L 111.0 31.0 L 112.0 31.0 L 113.0 31.0 L 114.0 31.0 L 115.0 31.0 L 116.0 31.0 L 117.0 31.0 L 118.0 31.0 L 119.0 31.0 L 119.66666666666667 30.666666666666668 L 120.0 30.0 L 120.0 29.0 L 119.66666666666667 28.0 L 119.33333333333333 27.0 L 119.0 26.0 L 119.0 25.0 L 119.0 24.0 L 119.0 23.0 L 119.0 22.0 L 119.0 21.0 L 119.0 20.0 L 119.0 19.0 L 119.0 18.0 L 119.0 17.0 L 119.0 16.0 L 119.0 15.0 L 118.66666666666667 14.333333333333334 L 118.0 14.0 L 117.0 14.0 L 116.0 14.0 L 115.0 14.0 L 114.0 14.0 L 113.0 14.0 L 112.0 14.0 L 111.0 14.0 L 110.0 14.0 L 109.0 14.0 L 108.0 14.0 L 107.0 14.0 L 106.0 14.0 L 105.0 14.0 L 104.0 14.0 L 103.0 14.0 L 102.0 14.0 L 101.0 14.0 L 100.0 14.0 L 99.0 14.0 L 98.0 14.0 L 97.0 14.0 L 96.33333333333333 14.333333333333334 L 96.0 15.0 L 96.33333333333333 16.0 L 97.0 17.0 L 97.66666666666667 18.0 L 98.33333333333333 19.0 L 98.66666666666667 20.0 L 99.33333333333333 21.0 L 99.66666666666667 22.0 L 100.33333333333333 23.0 L 100.66666666666667 24.0 L 101.0 25.0 L 101.0 26.0 L 101.33333333333333 27.0 L 101.66666666666667 28.0 L 102.33333333333333 29.0 L 102.66666666666667 30.0 L 103.33333333333333 30.666666666666668 L 104.0 31.0 L 105.0 31.0 L 105.5 31.0 Z" stroke="none" fill="rgb(33,160,148)" />
<path d="M 5.5 60.0 L 6.0 60.0 L 7.0 60.0 L 8.0 60.0 L 8.666666666666666 59.666666666666664 L 9.0 59.0 L 9.0 58.0 L 9.0 57.0 L 9.0 56.0 L 9.0 55.0 L 9.0 54.0 L 9.0 53.0 L 9.0 52.0 L 9.0 51.0 L 9.0 50.0 L 9.0 49.0 L 9.0 48.0 L 9.0 47.0 L 9.0 46.0 L 9.0 45.0 L 9.0 44.0 L 9.0 43.0 L 9.0 42.0 L 9.0 41.0 L 9.0 40.0 L 9.0 39.0 L 9.0 38.0 L 9.0 37.0 L 9.0 36.0 L 9.0 35.0 L 9.0 34.0 L 9.0 33.0 L 9.0 32.0 L 9.0 31.0 L 8.666666666666666 30.0 L 8.0 29.333333333333332 L 7.0 29.0 L 6.0 29.0 L 5.0 29.0 L 4.333333333333333 29.333333333333332 L 4.0 30.0 L 4.0 31.0 L 4.0 32.0 L 4.0 33.0 L 4.0 34.0 L 4.0 35.0 L 4.0 36.0 L 4.0 37.0 L 4.0 38.0 L 4.0 39.0 L 4.0 40.0 L 4.0 41.0 L 4.0 42.0 L 4.0 43.0 L 4.0 44.0 L 4.0 45.0 L 4.0 46.0 L 4.0 47.0 L 4.0 48.0 L 4.0 49.0 L 4.0 50.0 L 4.0 51.0 L 4.0 52.0 L 4.0 53.0 L 4.0 54.0 L 4.0 55.0 L 4.0 56.0 L 4.0 57.0 L 4.0 58.0 L 4.0 59.0 L 4.333333333333333 59.666666666666664 L 4.5 60.0 Z" stroke="none" fill="rgb(130,96,84)" />
<path d="M 59.5 96.5 L 60.0 96.33333333333333 L 61.0 96.0 L 62.0 96.0 L 63.0 96.0 L 64.0 96.0 L 65.0 96.0 L 66.0 96.0 L 67.0 96.0 L 68.0 96.33333333333333 L 69.0 96.66666666666667 L 70.0 96.66666666666667 L 71.0 96.0 L 72.0 95.33333333333333 L 73.0 95.0 L 74.0 94.66666666666667 L 75.0 94.33333333333333 L 76.0 94.0 L 77.0 94.0 L 78.0 94.0 L 78.66666666666667 93.66666666666667 L 79.33333333333333 93.0 L 80.0 92.0 L 81.0 91.0 L 82.0 90.0 L 83.0 89.0 L 84.0 88.0 L 85.0 87.0 L 86.0 86.0 L 87.0 85.0 L 88.0 84.0 L 89.0 83.0 L 89.66666666666667 82.0 L 90.33333333333333 81.0 L 91.0 80.0 L 91.66666666666667 79.0 L 92.33333333333333 78.0 L 93.0 77.0 L 93.66666666666667 76.0 L 94.0 75.0 L 94.33333333333333 74.0 L 94.66666666666667 73.0 L 95.33333333333333 72.0 L 95.66666666666667 71.0 L 96.0 70.0 L 96.0 69.0 L 96.0 68.0 L 96.0 67.0 L 96.0 66.0 L 96.0 65.0 L 96.0 64.0 L 96.0 63.0 L 96.0 62.0 L 95.66666666666667 61.0 L 95.33333333333333 60.0 L 95.0 59.0 L 95.0 58.0 L 95.0 57.0 L 95.0 56.0 L 94.66666666666667 55.333333333333336 L 94.0 55.333333333333336 L 93.0 56.0 L 92.33333333333333 57.0 L 92.0 58.0 L 92.0 59.0 L 92.0 60.0 L 91.66666666666667 61.0 L 91.33333333333333 62.0 L 91.0 63.0 L 90.66666666666667 64.0 L 90.0 64.33333333333333 L 89.33333333333333 64.0 L 89.0 63.0 L 89.0 62.0 L 89.0 61.0 L 89.0 60.0 L 89.0 59.0 L 89.0 58.0 L 89.0 57.0 L 89.0 56.0 L 89.0 55.0 L 88.66666666666667 54.0 L 88.0 53.0 L 87.0 52.333333333333336 L 86.0 52.0 L 85.0 52.0 L 84.0 52.0 L 83.0 52.0 L 82.0 52.0 L 81.33333333333333 52.333333333333336 L 81.0 53.0 L 81.33333333333333 54.0 L 82.0 55.0 L 83.0 56.0 L 83.66666666666667 57.0 L 84.0 58.0 L 84.0 59.0 L 84.0 60.0 L 83.66666666666667 61.0 L 83.0 62.0 L 82.0 63.0 L 81.0 63.666666666666664 L 80.0 64.0 L 79.0 63.666666666666664 L 78.0 63.0 L 77.0 62.0 L 76.0 61.0 L 75.33333333333333 60.0 L 75.0 59.0 L 75.33333333333333 58.0 L 75.66666666666667 57.0 L 76.33333333333333 56.0 L 77.0 55.333333333333336 L 78.0 54.666666666666664 L 78.66666666666667 54.0 L 79.0 53.0 L 78.66666666666667 52.333333333333336 L 78.0 52.0 L 77.0 51.666666666666664 L 76.33333333333333 51.0 L 76.0 50.0 L 76.33333333333333 49.0 L 77.0 48.333333333333336 L 78.0 47.666666666666664 L 79.0 47.333333333333336 L 80.0 47.0 L 81.0 47.0 L 82.0 47.0 L 83.0 47.0 L 84.0 47.333333333333336 L 85.0 48.0 L 86.0 49.0 L 87.0 49.666666666666664 L 88.0 50.0 L 89.0 50.0 L 90.0 50.0 L 91.0 50.333333333333336 L 92.0 50.666666666666664 L 93.0 51.0 L 93.66666666666667 50.666666666666664 L 94.0 50.0 L 94.0 49.0 L 93.66666666666667 48.0 L 93.33333333333333 47.0 L 92.66666666666667 46.0 L 92.0 45.0 L 91.0 44.0 L 90.0 43.0 L 89.0 42.333333333333336 L 88.0 41.666666666666664 L 87.0 41.0 L 86.0 40.0 L 85.0 39.0 L 84.0 38.0 L 83.0 37.0 L 82.0 36.0 L 81.0 35.0 L 80.0 34.0 L 79.0 33.0 L 78.0 32.0 L 77.0 31.0 L 76.0 30.0 L 75.0 29.333333333333332 L 74.0 29.0 L 73.0 29.333333333333332 L 72.0 30.0 L 71.0 30.666666666666668 L 70.0 31.333333333333332 L 69.0 32.0 L 68.0 32.666666666666664 L 67.0 33.333333333333336 L 66.0 33.666666666666664 L 65.0 34.333333333333336 L 64.0 35.0 L 63.0 35.666666666666664 L 62.0 36.333333333333336 L 61.0 36.666666666666664 L 60.0 37.333333333333336 L 59.0 37.666666666666664 L 58.0 38.333333333333336 L 57.0 38.666666666666664 L 56.0 39.333333333333336 L 55.0 39.666666666666664 L 54.0 40.0 L 53.0 40.333333333333336 L 52.0 40.666666666666664 L 51.0 41.333333333333336 L 50.0 41.666666666666664 L 49.0 42.0 L 48.0 42.333333333333336 L 47.0 42.666666666666664 L 46.0 43.0 L 45.0 43.333333333333336 L 44.0 43.666666666666664 L 43.0 44.0 L 42.0 44.0 L 41.0 44.333333333333336 L 40.0 44.666666666666664 L 39.0 45.0 L 38.0 45.333333333333336 L 37.0 46.0 L 36.333333333333336 47.0 L 35.666666666666664 48.0 L 35.333333333333336 49.0 L 35.0 50.0 L 35.333333333333336 50.666666666666664 L 36.0 51.0 L 37.0 51.0 L 38.0 51.0 L 39.0 51.0 L 40.0 51.333333333333336 L 40.333333333333336 52.0 L 40.0 53.0 L 39.333333333333336 54.0 L 39.0 55.0 L 39.0 56.0 L 39.0 57.0 L 39.0 58.0 L 39.0 59.0 L 39.0 60.0 L 39.0 61.0 L 39.0 62.0 L 38.666666666666664 63.0 L 38.0 63.333333333333336 L 37.333333333333336 63.0 L 37.0 62.0 L 36.666666666666664 61.0 L 36.333333333333336 60.0 L 36.0 59.0 L 36.0 58.0 L 35.666666666666664 57.0 L 35.0 56.333333333333336 L 34.0 56.0 L 33.333333333333336 56.333333333333336 L 33.0 57.0 L 33.0 58.0 L 32.666666666666664 59.0 L 32.333333333333336 60.0 L 32.0 61.0 L 32.0 62.0 L 32.0 63.0 L 32.0 64.0 L 32.0 65.0 L 32.0 66.0 L 32.0 67.0 L 32.0 68.0 L 32.333333333333336 69.0 L 32.666666666666664 70.0 L 33.0 71.0 L 33.333333333333336 72.0 L 33.666666666666664 73.0 L 34.333333333333336 74.0 L 34.666666666666664 75.0 L 35.333333333333336 76.0 L 35.666666666666664 77.0 L 36.333333333333336 78.0 L 37.0 79.0 L 37.666666666666664 80.0 L 38.333333333333336 81.0 L 39.0 82.0 L 40.0 83.0 L 41.0 84.0 L 42.0 85.0 L 43.0 86.0 L 44.0 87.0 L 45.0 88.0 L 46.0 89.0 L 47.0 90.0 L 48.0 91.0 L 49.0 92.0 L 50.0 92.66666666666667 L 51.0 93.0 L 52.0 93.33333333333333 L 53.0 93.66666666666667 L 54.0 94.33333333333333 L 55.0 94.66666666666667 L 56.0 95.33333333333333 L 57.0 96.0 L 58.0 96.66666666666667 L 58.5 97.0 Z" stroke="none" fill="rgb(224,187,149)" />
<path d="M 121.5 60.0 L 122.0 60.0 L 123.0 60.0 L 123.66666666666667 59.666666666666664 L 124.0 59.0 L 124.0 58.0 L 124.0 57.0 L 124.0 56.0 L 124.0 55.0 L 124.0 54.0 L 124.0 53.0 L 124.0 52.0 L 124.0 51.0 L 124.0 50.0 L 124.0 49.0 L 124.0 48.0 L 124.0 47.0 L 124.0 46.0 L 124.0 45.0 L 124.0 44.0 L 124.0 43.0 L 124.0 42.0 L 124.0 41.0 L 124.0 40.0 L 124.0 39.0 L 124.0 38.0 L 124.0 37.0 L 124.0 36.0 L 124.0 35.0 L 124.0 34.0 L 124.0 33.0 L 124.0 32.0 L 124.0 31.0 L 124.0 30.0 L 123.66666666666667 29.333333333333332 L 123.0 29.0 L 122.0 29.0 L 121.0 29.0 L 120.33333333333333 29.333333333333332 L 119.66666666666667 30.0 L 119.33333333333333 31.0 L 119.0 32.0 L 119.0 33.0 L 119.0 34.0 L 119.0 35.0 L 119.0 36.0 L 119.0 37.0 L 119.0 38.0 L 119.0 39.0 L 119.0 40.0 L 119.0 41.0 L 119.0 42.0 L 119.0 43.0 L 119.0 44.0 L 119.0 45.0 L 119.0 46.0 L 119.0 47.0 L 119.0 48.0 L 119.0 49.0 L 119.0 50.0 L 119.0 51.0 L 119.0 52.0 L 119.0 53.0 L 119.0 54.0 L 119.0 55.0 L 119.0 56.0 L 119.0 57.0 L 119.0 58.0 L 119.33333333333333 59.0 L 120.0 59.666666666666664 L 120.5 60.0 Z" stroke="none" fill="rgb(130,96,84)" />
<path d="M 23.5 51.0 L 24.0 51.0 L 24.666666666666668 50.666666666666664 L 24.666666666666668 50.0 L 24.333333333333332 49.0 L 24.0 48.0 L 24.0 47.0 L 24.0 46.0 L 24.0 45.0 L 24.0 44.0 L 24.0 43.0 L 24.0 42.0 L 24.0 41.0 L 24.0 40.0 L 24.0 39.0 L 24.0 38.0 L 24.0 37.0 L 24.0 36.0 L 24.0 35.0 L 24.0 34.0 L 24.0 33.0 L 24.0 32.0 L 23.666666666666668 31.333333333333332 L 23.0 31.0 L 22.0 31.0 L 21.0 31.0 L 20.0 31.0 L 19.0 31.0 L 18.0 31.0 L 17.0 31.0 L 16.0 31.0 L 15.0 31.0 L 14.0 31.0 L 13.0 31.0 L 12.0 31.0 L 11.0 31.0 L 10.0 31.0 L 9.333333333333334 31.333333333333332 L 9.0 32.0 L 9.0 33.0 L 9.0 34.0 L 9.0 35.0 L 9.0 36.0 L 9.0 37.0 L 9.0 38.0 L 9.0 39.0 L 9.0 40.0 L 9.0 41.0 L 9.0 42.0 L 9.0 43.0 L 9.0 44.0 L 9.0 45.0 L 9.0 46.0 L 9.0 47.0 L 9.0 48.0 L 9.0 49.0 L 9.333333333333334 49.666666666666664 L 10.0 50.0 L 11.0 50.0 L 12.0 50.0 L 13.0 50.0 L 14.0 50.0 L 15.0 50.0 L 16.0 50.0 L 17.0 50.0 L 18.0 50.0 L 19.0 50.0 L 20.0 50.0 L 21.0 50.0 L 22.0 50.333333333333336 L 22.5 50.5 Z" stroke="none" fill="rgb(24,149,136)" />
<path d="M 110.5 50.0 L 111.0 50.0 L 112.0 50.0 L 113.0 50.0 L 114.0 50.0 L 115.0 50.0 L 116.0 50.0 L 117.0 50.0 L 118.0 50.0 L 118.66666666666667 49.666666666666664 L 119.0 49.0 L 119.0 48.0 L 119.0 47.0 L 119.0 46.0 L 119.0 45.0 L 119.0 44.0 L 119.0 43.0 L 119.0 42.0 L 119.0 41.0 L 119.0 40.0 L 119.0 39.0 L 119.0 38.0 L 119.0 37.0 L 119.0 36.0 L 119.0 35.0 L 119.0 34.0 L 119.0 33.0 L 119.0 32.0 L 118.66666666666667 31.333333333333332 L 118.0 31.0 L 117.0 31.0 L 116.0 31.0 L 115.0 31.0 L 114.0 31.0 L 113.0 31.0 L 112.0 31.0 L 111.0 31.0 L 110.0 31.0 L 109.0 31.0 L 108.0 31.0 L 107.0 31.0 L 106.0 31.0 L 105.0 31.0 L 104.33333333333333 31.333333333333332 L 104.0 32.0 L 104.0 33.0 L 104.0 34.0 L 104.0 35.0 L 104.0 36.0 L 104.0 37.0 L 104.0 38.0 L 104.0 39.0 L 104.0 40.0 L 104.0 41.0 L 104.0 42.0 L 104.0 43.0 L 104.0 44.0 L 104.0 45.0 L 104.0 46.0 L 104.0 47.0 L 104.0 48.0 L 104.33333333333333 49.0 L 105.0 49.666666666666664 L 106.0 50.0 L 107.0 50.0 L 108.0 50.0 L 109.0 50.0 L 109.5 50.0 Z" stroke="none" fill="rgb(24,149,136)" />
<path d="M 49.5 50.0 L 50.0 50.0 L 51.0 50.0 L 52.0 50.333333333333336 L 53.0 50.666666666666664 L 54.0 51.0 L 55.0 51.0 L 55.666666666666664 50.666666666666664 L 55.666666666666664 50.0 L 55.0 49.0 L 54.0 48.333333333333336 L 53.0 47.666666666666664 L 52.0 47.333333333333336 L 51.0 47.0 L 50.0 47.0 L 49.0 47.0 L 48.0 47.0 L 47.0 47.0 L 46.0 47.0 L 45.0 47.333333333333336 L 44.0 47.666666666666664 L 43.333333333333336 48.333333333333336 L 43.0 49.0 L 43.333333333333336 49.666666666666664 L 44.0 50.0 L 45.0 50.0 L 46.0 50.0 L 47.0 50.0 L 48.0 50.0 L 48.5 50.0 Z" stroke="none" fill="rgb(171,135,47)" />
<path d="M 82.5 50.0 L 83.0 50.0 L 84.0 50.0 L 85.0 50.0 L 86.0 50.0 L 86.66666666666667 49.666666666666664 L 86.66666666666667 49.0 L 86.0 48.0 L 85.0 47.333333333333336 L 84.0 47.0 L 83.0 47.0 L 82.0 47.0 L 81.0 47.0 L 80.0 47.0 L 79.0 47.0 L 78.0 47.333333333333336 L 77.0 47.666666666666664 L 76.33333333333333 48.333333333333336 L 76.0 49.0 L 76.33333333333333 49.666666666666664 L 77.0 50.0 L 78.0 50.0 L 79.0 50.0 L 80.0 50.0 L 81.0 50.0 L 81.5 50.0 Z" stroke="none" fill="rgb(171,135,47)" />
<path d="M 10.5 69.0 L 11.0 69.0 L 12.0 69.0 L 13.0 69.0 L 14.0 69.0 L 15.0 69.0 L 16.0 69.0 L 17.0 69.0 L 18.0 69.0 L 19.0 69.0 L 20.0 69.0 L 21.0 69.0 L 22.0 69.0 L 23.0 69.33333333333333 L 24.0 69.66666666666667 L 24.666666666666668 69.66666666666667 L 25.0 69.0 L 25.0 68.0 L 25.0 67.0 L 24.666666666666668 66.0 L 24.333333333333332 65.0 L 24.0 64.0 L 24.0 63.0 L 24.0 62.0 L 24.0 61.0 L 24.0 60.0 L 24.0 59.0 L 24.0 58.0 L 24.0 57.0 L 24.0 56.0 L 24.0 55.0 L 24.0 54.0 L 24.0 53.0 L 24.0 52.0 L 23.666666666666668 51.0 L 23.0 50.333333333333336 L 22.0 50.0 L 21.0 50.0 L 20.0 50.0 L 19.0 50.0 L 18.0 50.0 L 17.0 50.0 L 16.0 50.0 L 15.0 50.0 L 14.0 50.0 L 13.0 50.0 L 12.0 50.0 L 11.0 50.0 L 10.0 50.0 L 9.333333333333334 50.333333333333336 L 9.0 51.0 L 9.0 52.0 L 9.0 53.0 L 9.0 54.0 L 9.0 55.0 L 9.0 56.0 L 9.0 57.0 L 9.0 58.0 L 8.666666666666666 59.0 L 8.333333333333334 60.0 L 8.0 61.0 L 8.0 62.0 L 8.0 63.0 L 8.0 64.0 L 8.0 65.0 L 8.0 66.0 L 8.0 67.0 L 8.333333333333334 68.0 L 9.0 68.66666666666667 L 9.5 69.0 Z" stroke="none" fill="rgb(14,138,125)" />
<path d="M 57.5 66.0 L 58.0 65.66666666666667 L 59.0 65.0 L 59.666666666666664 64.0 L 60.333333333333336 63.0 L 60.666666666666664 62.0 L 61.0 61.0 L 61.333333333333336 60.0 L 62.0 59.0 L 63.0 58.333333333333336 L 64.0 58.0 L 65.0 58.333333333333336 L 66.0 59.0 L 66.66666666666667 60.0 L 67.33333333333333 61.0 L 67.66666666666667 62.0 L 68.33333333333333 63.0 L 68.66666666666667 64.0 L 69.33333333333333 65.0 L 70.0 66.0 L 71.0 67.0 L 72.0 68.0 L 73.0 69.0 L 74.0 69.66666666666667 L 75.0 70.0 L 76.0 70.0 L 77.0 70.0 L 78.0 70.0 L 79.0 70.0 L 80.0 70.0 L 81.0 70.0 L 82.0 70.0 L 83.0 70.0 L 84.0 70.0 L 85.0 70.0 L 86.0 69.66666666666667 L 87.0 69.0 L 88.0 68.0 L 89.0 67.0 L 90.0 66.0 L 90.66666666666667 65.0 L 91.0 64.0 L 91.33333333333333 63.0 L 91.66666666666667 62.0 L 92.0 61.0 L 92.0 60.0 L 92.0 59.0 L 92.33333333333333 58.0 L 93.0 57.0 L 93.66666666666667 56.0 L 94.0 55.0 L 94.0 54.0 L 94.0 53.0 L 94.0 52.0 L 93.66666666666667 51.333333333333336 L 93.0 50.666666666666664 L 92.0 50.333333333333336 L 91.0 50.0 L 90.0 50.0 L 89.0 50.0 L 88.0 50.0 L 87.0 50.0 L 86.0 50.0 L 85.0 50.0 L 84.0 50.0 L 83.0 50.0 L 82.0 50.0 L 81.0 50.0 L 80.0 50.0 L 79.0 50.0 L 78.0 50.0 L 77.0 50.0 L 76.33333333333333 50.333333333333336 L 76.0 51.0 L 76.33333333333333 51.666666666666664 L 77.0 52.0 L 78.0 52.333333333333336 L 79.0 52.666666666666664 L 80.0 53.0 L 81.0 52.666666666666664 L 82.0 52.333333333333336 L 83.0 52.0 L 84.0 52.0 L 85.0 52.0 L 86.0 52.333333333333336 L 87.0 53.0 L 88.0 54.0 L 88.66666666666667 55.0 L 89.0 56.0 L 89.0 57.0 L 89.0 58.0 L 89.0 59.0 L 89.0 60.0 L 89.0 61.0 L 89.0 62.0 L 88.66666666666667 63.0 L 88.0 64.0 L 87.0 65.0 L 86.0 66.0 L 85.0 67.0 L 84.0 67.66666666666667 L 83.0 68.0 L 82.0 68.0 L 81.0 68.0 L 80.0 68.0 L 79.0 68.0 L 78.0 68.0 L 77.0 68.0 L 76.0 67.66666666666667 L 75.0 67.0 L 74.0 66.0 L 73.0 65.0 L 72.0 64.0 L 71.0 63.0 L 70.33333333333333 62.0 L 69.66666666666667 61.0 L 69.33333333333333 60.0 L 69.0 59.0 L 69.0 58.0 L 69.33333333333333 57.0 L 70.0 56.0 L 71.0 55.0 L 71.66666666666667 54.0 L 72.0 53.0 L 71.66666666666667 52.333333333333336 L 71.0 52.0 L 70.0 52.0 L 69.0 52.0 L 68.0 52.0 L 67.0 52.0 L 66.0 52.0 L 65.0 52.0 L 64.0 52.0 L 63.0 52.0 L 62.0 52.0 L 61.0 52.0 L 60.0 52.0 L 59.0 51.666666666666664 L 58.0 51.333333333333336 L 57.0 51.0 L 56.0 51.0 L 55.0 51.0 L 54.0 50.666666666666664 L 53.0 50.333333333333336 L 52.0 50.0 L 51.0 50.0 L 50.0 50.0 L 49.0 50.0 L 48.0 50.0 L 47.0 50.0 L 46.0 50.0 L 45.0 50.0 L 44.0 50.0 L 43.333333333333336 50.333333333333336 L 43.0 51.0 L 43.333333333333336 51.666666666666664 L 44.0 52.0 L 45.0 52.0 L 46.0 52.0 L 47.0 52.0 L 48.0 52.333333333333336 L 49.0 53.0 L 50.0 53.666666666666664 L 51.0 54.0 L 52.0 54.0 L 53.0 53.666666666666664 L 54.0 53.333333333333336 L 55.0 53.333333333333336 L 56.0 54.0 L 57.0 55.0 L 58.0 56.0 L 58.666666666666664 57.0 L 59.0 58.0 L 59.0 59.0 L 59.0 60.0 L 58.666666666666664 61.0 L 58.0 62.0 L 57.333333333333336 63.0 L 57.0 64.0 L 57.0 65.0 L 57.0 65.5 Z" stroke="none" fill="rgb(35,34,34)" />
<path d="M 105.5 69.0 L 106.0 69.0 L 107.0 69.0 L 108.0 69.0 L 109.0 69.0 L 110.0 69.0 L 111.0 69.0 L 112.0 69.0 L 113.0 69.0 L 114.0 69.0 L 115.0 69.0 L 116.0 69.0 L 117.0 69.0 L 118.0 69.0 L 119.0 69.0 L 119.66666666666667 68.66666666666667 L 120.0 68.0 L 120.0 67.0 L 120.0 66.0 L 120.0 65.0 L 120.0 64.0 L 120.0 63.0 L 120.0 62.0 L 120.0 61.0 L 120.0 60.0 L 119.66666666666667 59.0 L 119.33333333333333 58.0 L 119.0 57.0 L 119.0 56.0 L 119.0 55.0 L 119.0 54.0 L 119.0 53.0 L 119.0 52.0 L 119.0 51.0 L 118.66666666666667 50.333333333333336 L 118.0 50.0 L 117.0 50.0 L 116.0 50.0 L 115.0 50.0 L 114.0 50.0 L 113.0 50.0 L 112.0 50.0 L 111.0 50.0 L 110.0 50.0 L 109.0 50.0 L 108.0 50.0 L 107.0 50.0 L 106.0 50.0 L 105.33333333333333 50.333333333333336 L 104.66666666666667 51.0 L 104.33333333333333 52.0 L 104.0 53.0 L 104.0 54.0 L 104.0 55.0 L 104.0 56.0 L 104.0 57.0 L 104.0 58.0 L 104.0 59.0 L 104.0 60.0 L 104.0 61.0 L 104.0 62.0 L 104.0 63.0 L 104.0 64.0 L 104.0 65.0 L 104.0 66.0 L 104.0 67.0 L 104.0 68.0 L 104.33333333333333 68.66666666666667 L 104.5 69.0 Z" stroke="none" fill="rgb(14,138,125)" />
<path d="M 40.5 68.5 L 41.0 68.66666666666667 L 42.0 69.0 L 43.0 69.0 L 43.666666666666664 68.66666666666667 L 43.666666666666664 68.0 L 43.0 67.0 L 42.0 66.0 L 41.0 65.0 L 40.0 64.0 L 39.333333333333336 63.0 L 39.0 62.0 L 39.0 61.0 L 39.0 60.0 L 39.0 59.0 L 39.0 58.0 L 39.0 57.0 L 39.0 56.0 L 39.333333333333336 55.0 L 40.0 54.0 L 40.666666666666664 53.0 L 41.0 52.0 L 40.666666666666664 51.333333333333336 L 40.0 51.0 L 39.0 51.0 L 38.0 51.0 L 37.0 51.0 L 36.0 51.0 L 35.0 51.333333333333336 L 34.333333333333336 52.0 L 34.0 53.0 L 34.0 54.0 L 34.0 55.0 L 34.333333333333336 56.0 L 35.0 57.0 L 35.666666666666664 58.0 L 36.0 59.0 L 36.0 60.0 L 36.333333333333336 61.0 L 36.666666666666664 62.0 L 37.0 63.0 L 37.333333333333336 64.0 L 37.666666666666664 65.0 L 38.333333333333336 66.0 L 39.0 67.0 L 39.5 67.5 Z" stroke="none" fill="rgb(35,34,34)" />
<path d="M 53.5 61.5 L 53.666666666666664 61.0 L 54.0 60.0 L 54.0 59.0 L 54.0 58.0 L 54.0 57.0 L 53.666666666666664 56.0 L 53.333333333333336 55.0 L 52.666666666666664 54.333333333333336 L 52.0 54.0 L 51.0 53.666666666666664 L 50.0 53.333333333333336 L 49.0 53.333333333333336 L 48.0 53.666666666666664 L 47.0 54.333333333333336 L 46.0 55.0 L 45.333333333333336 56.0 L 45.0 57.0 L 45.0 58.0 L 45.0 59.0 L 45.0 60.0 L 45.0 61.0 L 45.333333333333336 62.0 L 46.0 63.0 L 47.0 63.666666666666664 L 48.0 64.0 L 49.0 64.0 L 50.0 64.0 L 51.0 63.666666666666664 L 52.0 63.0 L 52.5 62.5 Z" stroke="none" fill="rgb(92,66,56)" />
<path d="M 81.5 64.0 L 82.0 63.666666666666664 L 83.0 63.0 L 83.66666666666667 62.0 L 84.0 61.0 L 84.0 60.0 L 84.0 59.0 L 84.0 58.0 L 84.0 57.0 L 83.66666666666667 56.0 L 83.0 55.0 L 82.0 54.0 L 81.0 53.333333333333336 L 80.0 53.0 L 79.0 53.333333333333336 L 78.0 54.0 L 77.0 54.666666666666664 L 76.33333333333333 55.333333333333336 L 75.66666666666667 56.0 L 75.33333333333333 57.0 L 75.0 58.0 L 75.0 59.0 L 75.0 60.0 L 75.33333333333333 61.0 L 76.0 62.0 L 77.0 63.0 L 78.0 63.666666666666664 L 79.0 64.0 L 80.0 64.0 L 80.5 64.0 Z" stroke="none" fill="rgb(92,66,56)" />
<path d="M 8.5 91.0 L 9.0 91.0 L 10.0 91.0 L 11.0 91.0 L 12.0 91.0 L 13.0 91.0 L 14.0 91.0 L 15.0 91.0 L 16.0 91.0 L 17.0 91.0 L 18.0 91.0 L 19.0 91.0 L 20.0 91.0 L 21.0 91.0 L 22.0 91.0 L 23.0 91.0 L 24.0 91.0 L 25.0 91.0 L 26.0 91.0 L 26.666666666666668 90.66666666666667 L 27.0 90.0 L 27.0 89.0 L 26.666666666666668 88.0 L 26.333333333333332 87.0 L 25.666666666666668 86.33333333333333 L 25.0 86.0 L 24.0 86.0 L 23.0 86.0 L 22.0 86.0 L 21.0 86.0 L 20.0 86.0 L 19.0 86.0 L 18.0 86.0 L 17.0 86.0 L 16.0 86.0 L 15.0 86.0 L 14.0 86.0 L 13.0 86.0 L 12.0 86.0 L 11.0 86.0 L 10.0 85.66666666666667 L 9.333333333333334 85.0 L 9.0 84.0 L 9.0 83.0 L 9.0 82.0 L 9.0 81.0 L 9.0 80.0 L 9.0 79.0 L 9.0 78.0 L 9.0 77.0 L 9.0 76.0 L 9.0 75.0 L 9.0 74.0 L 9.0 73.0 L 9.0 72.0 L 9.0 71.0 L 9.0 70.0 L 9.0 69.0 L 8.666666666666666 68.0 L 8.333333333333334 67.0 L 8.0 66.0 L 8.0 65.0 L 8.0 64.0 L 8.0 63.0 L 8.0 62.0 L 8.0 61.0 L 7.666666666666667 60.333333333333336 L 7.0 60.0 L 6.0 60.0 L 5.0 60.0 L 4.333333333333333 60.333333333333336 L 4.0 61.0 L 4.0 62.0 L 4.0 63.0 L 4.0 64.0 L 4.0 65.0 L 4.0 66.0 L 4.0 67.0 L 4.0 68.0 L 4.0 69.0 L 4.0 70.0 L 4.0 71.0 L 4.0 72.0 L 4.0 73.0 L 4.0 74.0 L 4.0 75.0 L 4.0 76.0 L 4.0 77.0 L 4.0 78.0 L 4.0 79.0 L 4.0 80.0 L 4.0 81.0 L 4.0 82.0 L 4.0 83.0 L 4.0 84.0 L 4.0 85.0 L 4.0 86.0 L 4.0 87.0 L 4.0 88.0 L 4.0 89.0 L 4.0 90.0 L 4.333333333333333 90.66666666666667 L 5.0 91.0 L 6.0 91.0 L 7.0 91.0 L 7.5 91.0 Z" stroke="none" fill="rgb(119,84,71)" />
<path d="M 124.0 90.5 L 124.0 90.0 L 124.0 89.0 L 124.0 88.0 L 124.0 87.0 L 124.0 86.0 L 124.0 85.0 L 124.0 84.0 L 124.0 83.0 L 124.0 82.0 L 124.0 81.0 L 124.0 80.0 L 124.0 79.0 L 124.0 78.0 L 124.0 77.0 L 124.0 76.0 L 124.0 75.0 L 124.0 74.0 L 124.0 73.0 L 124.0 72.0 L 124.0 71.0 L 124.0 70.0 L 124.0 69.0 L 124.0 68.0 L 124.0 67.0 L 124.0 66.0 L 124.0 65.0 L 124.0 64.0 L 124.0 63.0 L 124.0 62.0 L 124.0 61.0 L 123.66666666666667 60.333333333333336 L 123.0 60.0 L 122.0 60.0 L 121.0 60.0 L 120.33333333333333 60.333333333333336 L 120.0 61.0 L 120.0 62.0 L 120.0 63.0 L 120.0 64.0 L 120.0 65.0 L 120.0 66.0 L 120.0 67.0 L 119.66666666666667 68.0 L 119.33333333333333 69.0 L 119.0 70.0 L 119.0 71.0 L 119.0 72.0 L 119.0 73.0 L 119.0 74.0 L 119.0 75.0 L 119.0 76.0 L 119.0 77.0 L 119.0 78.0 L 119.0 79.0 L 119.0 80.0 L 119.0 81.0 L 119.0 82.0 L 119.0 83.0 L 119.0 84.0 L 118.66666666666667 85.0 L 118.0 85.66666666666667 L 117.0 86.0 L 116.0 86.0 L 115.0 86.0 L 114.0 86.0 L 113.0 86.0 L 112.0 86.0 L 111.0 86.0 L 110.0 86.0 L 109.0 86.0 L 108.0 86.0 L 107.0 86.0 L 106.0 86.0 L 105.0 86.0 L 104.0 86.0 L 103.0 86.0 L 102.33333333333333 86.33333333333333 L 102.0 87.0 L 101.66666666666667 88.0 L 101.33333333333333 89.0 L 101.0 90.0 L 101.33333333333333 90.66666666666667 L 102.0 91.0 L 103.0 91.0 L 104.0 91.0 L 105.0 91.0 L 106.0 91.0 L 107.0 91.0 L 108.0 91.0 L 109.0 91.0 L 110.0 91.0 L 111.0 91.0 L 112.0 91.0 L 113.0 91.0 L 114.0 91.0 L 115.0 91.0 L 116.0 91.0 L 117.0 91.0 L 118.0 91.0 L 119.0 91.0 L 120.0 91.0 L 121.0 91.0 L 122.0 91.0 L 123.0 91.0 L 123.5 91.0 Z" stroke="none" fill="rgb(119,84,71)" />
<path d="M 61.5 71.5 L 62.0 71.66666666666667 L 63.0 72.0 L 64.0 72.0 L 65.0 72.0 L 66.0 72.0 L 67.0 72.0 L 68.0 71.66666666666667 L 68.66666666666667 71.0 L 69.0 70.0 L 69.0 69.0 L 68.66666666666667 68.33333333333333 L 68.0 68.0 L 67.0 68.0 L 66.0 68.0 L 65.0 68.0 L 64.0 68.0 L 63.0 68.0 L 62.0 68.0 L 61.0 68.0 L 60.333333333333336 68.33333333333333 L 60.0 69.0 L 60.333333333333336 70.0 L 60.5 70.5 Z" stroke="none" fill="rgb(189,146,115)" />
<path d="M 24.5 86.0 L 25.0 86.0 L 26.0 86.0 L 26.666666666666668 85.66666666666667 L 27.0 85.0 L 27.0 84.0 L 26.666666666666668 83.0 L 26.333333333333332 82.0 L 26.0 81.0 L 26.0 80.0 L 25.666666666666668 79.0 L 25.333333333333332 78.0 L 25.0 77.0 L 25.0 76.0 L 25.0 75.0 L 25.0 74.0 L 25.0 73.0 L 25.0 72.0 L 25.0 71.0 L 24.666666666666668 70.0 L 24.0 69.33333333333333 L 23.0 69.0 L 22.0 69.0 L 21.0 69.0 L 20.0 69.0 L 19.0 69.0 L 18.0 69.0 L 17.0 69.0 L 16.0 69.0 L 15.0 69.0 L 14.0 69.0 L 13.0 69.0 L 12.0 69.0 L 11.0 69.0 L 10.0 69.0 L 9.333333333333334 69.33333333333333 L 9.0 70.0 L 9.0 71.0 L 9.0 72.0 L 9.0 73.0 L 9.0 74.0 L 9.0 75.0 L 9.0 76.0 L 9.0 77.0 L 9.0 78.0 L 9.0 79.0 L 9.0 80.0 L 9.0 81.0 L 9.0 82.0 L 9.0 83.0 L 9.0 84.0 L 9.0 85.0 L 9.333333333333334 85.66666666666667 L 10.0 86.0 L 11.0 86.0 L 12.0 86.0 L 13.0 86.0 L 14.0 86.0 L 15.0 86.0 L 16.0 86.0 L 17.0 86.0 L 18.0 86.0 L 19.0 86.0 L 20.0 86.0 L 21.0 86.0 L 22.0 86.0 L 23.0 86.0 L 23.5 86.0 Z" stroke="none" fill="rgb(6,127,114)" />
<path d="M 107.5 86.0 L 108.0 86.0 L 109.0 86.0 L 110.0 86.0 L 111.0 86.0 L 112.0 86.0 L 113.0 86.0 L 114.0 86.0 L 115.0 86.0 L 116.0 86.0 L 117.0 86.0 L 118.0 86.0 L 118.66666666666667 85.66666666666667 L 119.0 85.0 L 119.0 84.0 L 119.0 83.0 L 119.0 82.0 L 119.0 81.0 L 119.0 80.0 L 119.0 79.0 L 119.0 78.0 L 119.0 77.0 L 119.0 76.0 L 119.0 75.0 L 119.0 74.0 L 119.0 73.0 L 119.0 72.0 L 119.0 71.0 L 119.0 70.0 L 118.66666666666667 69.33333333333333 L 118.0 69.0 L 117.0 69.0 L 116.0 69.0 L 115.0 69.0 L 114.0 69.0 L 113.0 69.0 L 112.0 69.0 L 111.0 69.0 L 110.0 69.0 L 109.0 69.0 L 108.0 69.0 L 107.0 69.0 L 106.0 69.0 L 105.0 69.0 L 104.33333333333333 69.33333333333333 L 103.66666666666667 70.0 L 103.33333333333333 71.0 L 103.0 72.0 L 103.0 73.0 L 103.0 74.0 L 103.0 75.0 L 103.0 76.0 L 103.0 77.0 L 103.0 78.0 L 102.66666666666667 79.0 L 102.33333333333333 80.0 L 102.0 81.0 L 102.0 82.0 L 102.0 83.0 L 102.0 84.0 L 102.0 85.0 L 102.33333333333333 85.66666666666667 L 103.0 86.0 L 104.0 86.0 L 105.0 86.0 L 106.0 86.0 L 106.5 86.0 Z" stroke="none" fill="rgb(6,127,114)" />
<path d="M 40.5 98.0 L 40.666666666666664 97.66666666666667 L 41.0 97.0 L 40.666666666666664 96.0 L 40.0 95.0 L 39.0 94.0 L 38.0 93.0 L 37.333333333333336 92.0 L 36.666666666666664 91.0 L 36.0 90.0 L 35.0 89.0 L 34.333333333333336 88.0 L 33.666666666666664 87.0 L 33.0 86.0 L 32.333333333333336 85.0 L 31.666666666666668 84.0 L 31.333333333333332 83.0 L 30.666666666666668 82.0 L 30.333333333333332 81.0 L 29.666666666666668 80.0 L 29.333333333333332 79.0 L 28.666666666666668 78.0 L 28.333333333333332 77.0 L 28.0 76.0 L 27.666666666666668 75.0 L 27.333333333333332 74.0 L 27.0 73.0 L 27.0 72.0 L 26.666666666666668 71.33333333333333 L 26.0 71.0 L 25.333333333333332 71.33333333333333 L 25.0 72.0 L 25.0 73.0 L 25.0 74.0 L 25.0 75.0 L 25.0 76.0 L 25.0 77.0 L 25.0 78.0 L 25.333333333333332 79.0 L 25.666666666666668 80.0 L 26.0 81.0 L 26.0 82.0 L 26.333333333333332 83.0 L 26.666666666666668 84.0 L 27.333333333333332 84.66666666666667 L 28.0 85.33333333333333 L 29.0 86.0 L 29.666666666666668 87.0 L 30.333333333333332 88.0 L 30.666666666666668 89.0 L 31.333333333333332 90.0 L 32.0 91.0 L 32.666666666666664 92.0 L 33.333333333333336 93.0 L 34.0 94.0 L 35.0 95.0 L 36.0 96.0 L 37.0 97.0 L 38.0 97.66666666666667 L 39.0 98.0 L 39.5 98.0 Z" stroke="none" fill="rgb(176,142,57)" />
<path d="M 97.5 89.5 L 97.66666666666667 89.0 L 98.33333333333333 88.0 L 98.66666666666667 87.0 L 99.33333333333333 86.0 L 100.0 85.66666666666667 L 101.0 85.66666666666667 L 101.66666666666667 85.66666666666667 L 102.0 85.0 L 102.0 84.0 L 102.0 83.0 L 102.0 82.0 L 102.33333333333333 81.0 L 102.66666666666667 80.0 L 103.0 79.0 L 103.0 78.0 L 103.0 77.0 L 103.0 76.0 L 103.0 75.0 L 103.0 74.0 L 103.0 73.0 L 102.66666666666667 72.33333333333333 L 102.0 72.0 L 101.33333333333333 72.33333333333333 L 101.0 73.0 L 101.0 74.0 L 100.66666666666667 75.0 L 100.33333333333333 76.0 L 99.66666666666667 77.0 L 99.33333333333333 78.0 L 99.0 79.0 L 98.66666666666667 80.0 L 98.33333333333333 81.0 L 97.66666666666667 82.0 L 97.33333333333333 83.0 L 96.66666666666667 84.0 L 96.0 85.0 L 95.33333333333333 86.0 L 94.66666666666667 87.0 L 94.0 88.0 L 93.0 89.0 L 92.33333333333333 90.0 L 91.66666666666667 91.0 L 91.0 92.0 L 90.0 93.0 L 89.0 94.0 L 88.33333333333333 95.0 L 88.0 96.0 L 88.0 97.0 L 88.33333333333333 98.0 L 89.0 98.66666666666667 L 90.0 99.0 L 90.66666666666667 98.66666666666667 L 91.0 98.0 L 91.33333333333333 97.0 L 92.0 96.0 L 93.0 95.0 L 94.0 94.0 L 95.0 93.0 L 95.66666666666667 92.0 L 96.33333333333333 91.0 L 96.5 90.5 Z" stroke="none" fill="rgb(176,142,57)" />
<path d="M 59.5 83.0 L 60.0 83.0 L 61.0 83.0 L 62.0 83.0 L 63.0 83.0 L 64.0 83.0 L 65.0 83.0 L 66.0 83.0 L 67.0 83.0 L 68.0 83.0 L 69.0 83.0 L 70.0 83.0 L 71.0 82.66666666666667 L 72.0 82.0 L 73.0 81.0 L 74.0 80.0 L 74.66666666666667 79.0 L 75.0 78.0 L 75.0 77.0 L 74.66666666666667 76.33333333333333 L 74.0 76.0 L 73.0 76.0 L 72.0 76.33333333333333 L 71.0 76.66666666666667 L 70.0 77.0 L 69.0 77.0 L 68.0 77.0 L 67.0 77.0 L 66.0 77.0 L 65.0 77.0 L 64.0 77.0 L 63.0 77.0 L 62.0 77.0 L 61.0 77.0 L 60.0 77.0 L 59.0 76.66666666666667 L 58.0 76.33333333333333 L 57.0 76.0 L 56.0 76.0 L 55.0 76.0 L 54.0 76.33333333333333 L 53.333333333333336 77.0 L 53.0 78.0 L 53.333333333333336 79.0 L 54.0 80.0 L 55.0 81.0 L 56.0 81.66666666666667 L 57.0 82.33333333333333 L 58.0 82.66666666666667 L 58.5 83.0 Z" stroke="none" fill="rgb(119,84,71)" />
<path d="M 37.5 99.0 L 37.666666666666664 98.66666666666667 L 38.0 98.0 L 37.666666666666664 97.0 L 37.0 96.0 L 36.0 95.0 L 35.0 94.0 L 34.0 93.0 L 33.333333333333336 92.0 L 32.666666666666664 91.0 L 32.0 90.0 L 31.333333333333332 89.0 L 30.666666666666668 88.0 L 30.333333333333332 87.0 L 29.666666666666668 86.0 L 29.0 85.33333333333333 L 28.0 85.0 L 27.0 85.33333333333333 L 26.333333333333332 86.0 L 26.0 87.0 L 26.333333333333332 88.0 L 26.666666666666668 89.0 L 27.0 90.0 L 27.333333333333332 90.66666666666667 L 28.0 91.33333333333333 L 29.0 92.0 L 29.666666666666668 93.0 L 30.333333333333332 94.0 L 31.0 95.0 L 32.0 96.0 L 32.666666666666664 97.0 L 33.333333333333336 98.0 L 34.0 98.66666666666667 L 35.0 99.0 L 36.0 99.0 L 36.5 99.0 Z" stroke="none" fill="rgb(182,149,69)" />
<path d="M 95.0 98.5 L 95.33333333333333 98.0 L 95.66666666666667 97.0 L 96.33333333333333 96.0 L 97.0 95.0 L 98.0 94.0 L 98.66666666666667 93.0 L 99.33333333333333 92.0 L 100.0 91.33333333333333 L 100.66666666666667 90.66666666666667 L 101.33333333333333 90.0 L 101.66666666666667 89.0 L 102.0 88.0 L 102.0 87.0 L 101.66666666666667 86.0 L 101.0 85.33333333333333 L 100.0 85.0 L 99.33333333333333 85.33333333333333 L 98.66666666666667 86.0 L 98.33333333333333 87.0 L 97.66666666666667 88.0 L 97.0 89.0 L 96.33333333333333 90.0 L 95.66666666666667 91.0 L 95.0 92.0 L 94.0 93.0 L 93.0 94.0 L 92.0 95.0 L 91.33333333333333 96.0 L 91.0 97.0 L 91.33333333333333 98.0 L 92.0 98.66666666666667 L 93.0 99.0 L 94.0 99.0 L 94.5 99.0 Z" stroke="none" fill="rgb(182,149,69)" />
<path d="M 33.5 100.0 L 33.666666666666664 99.66666666666667 L 34.0 99.0 L 33.666666666666664 98.0 L 33.333333333333336 97.0 L 32.666666666666664 96.0 L 32.0 95.0 L 31.0 94.0 L 30.333333333333332 93.0 L 29.666666666666668 92.0 L 29.0 91.33333333333333 L 28.0 91.0 L 27.333333333333332 91.33333333333333 L 27.0 92.0 L 27.0 93.0 L 27.333333333333332 94.0 L 27.666666666666668 95.0 L 28.0 96.0 L 28.0 97.0 L 28.0 98.0 L 28.333333333333332 99.0 L 29.0 99.66666666666667 L 30.0 100.0 L 31.0 100.0 L 32.0 100.0 L 32.5 100.0 Z" stroke="none" fill="rgb(189,157,81)" />
<path d="M 98.5 100.0 L 99.0 99.66666666666667 L 99.66666666666667 99.0 L 100.0 98.0 L 100.0 97.0 L 100.0 96.0 L 100.33333333333333 95.0 L 100.66666666666667 94.0 L 101.0 93.0 L 101.0 92.0 L 100.66666666666667 91.33333333333333 L 100.0 91.0 L 99.33333333333333 91.33333333333333 L 98.66666666666667 92.0 L 98.0 93.0 L 97.0 94.0 L 96.33333333333333 95.0 L 95.66666666666667 96.0 L 95.33333333333333 97.0 L 95.0 98.0 L 95.0 99.0 L 95.33333333333333 99.66666666666667 L 96.0 100.0 L 97.0 100.0 L 97.5 100.0 Z" stroke="none" fill="rgb(189,157,81)" />
<path d="M 49.5 101.0 L 50.0 101.0 L 51.0 101.0 L 52.0 101.33333333333333 L 53.0 102.0 L 54.0 102.66666666666667 L 55.0 102.66666666666667 L 56.0 102.0 L 57.0 101.33333333333333 L 58.0 101.0 L 59.0 100.66666666666667 L 59.666666666666664 100.0 L 59.666666666666664 99.0 L 59.333333333333336 98.0 L 58.666666666666664 97.0 L 58.0 96.0 L 57.0 95.33333333333333 L 56.0 94.66666666666667 L 55.0 94.33333333333333 L 54.0 93.66666666666667 L 53.0 93.33333333333333 L 52.0 93.0 L 51.0 93.33333333333333 L 50.0 94.0 L 49.0 94.66666666666667 L 48.0 95.33333333333333 L 47.0 95.66666666666667 L 46.0 96.33333333333333 L 45.333333333333336 97.0 L 45.0 98.0 L 45.0 99.0 L 45.333333333333336 100.0 L 46.0 100.66666666666667 L 47.0 101.0 L 48.0 101.0 L 48.5 101.0 Z" stroke="none" fill="rgb(161,221,249)" />
<path d="M 75.5 101.0 L 76.0 101.33333333333333 L 77.0 101.66666666666667 L 78.0 102.0 L 79.0 102.0 L 80.0 102.0 L 81.0 102.0 L 82.0 101.66666666666667 L 82.66666666666667 101.0 L 83.0 100.0 L 83.0 99.0 L 83.0 98.0 L 82.66666666666667 97.0 L 82.0 96.0 L 81.0 95.33333333333333 L 80.0 94.66666666666667 L 79.0 94.33333333333333 L 78.0 94.0 L 77.0 94.0 L 76.0 94.0 L 75.0 94.0 L 74.0 94.33333333333333 L 73.0 94.66666666666667 L 72.0 95.0 L 71.0 95.33333333333333 L 70.0 96.0 L 69.33333333333333 97.0 L 69.0 98.0 L 69.33333333333333 99.0 L 70.0 99.66666666666667 L 71.0 100.0 L 72.0 100.0 L 73.0 100.33333333333333 L 74.0 100.66666666666667 L 74.5 101.0 Z" stroke="none" fill="rgb(161,221,249)" />
<path d="M 66.5 98.0 L 67.0 98.0 L 68.0 98.0 L 68.66666666666667 97.66666666666667 L 69.0 97.0 L 68.66666666666667 96.33333333333333 L 68.0 96.0 L 67.0 96.0 L 66.0 96.0 L 65.0 96.0 L 64.0 96.0 L 63.0 96.0 L 62.0 96.0 L 61.0 96.0 L 60.0 96.0 L 59.333333333333336 96.33333333333333 L 59.0 97.0 L 59.0 98.0 L 59.333333333333336 98.66666666666667 L 60.0 99.0 L 61.0 99.0 L 62.0 99.0 L 63.0 98.66666666666667 L 64.0 98.33333333333333 L 65.0 98.0 L 65.5 98.0 Z" stroke="none" fill="rgb(189,146,115)" />
<path d="M 39.5 107.0 L 40.0 107.0 L 40.666666666666664 106.66666666666667 L 41.0 106.0 L 41.0 105.0 L 41.0 104.0 L 41.333333333333336 103.0 L 41.666666666666664 102.0 L 42.0 101.0 L 42.0 100.0 L 42.0 99.0 L 42.0 98.0 L 41.666666666666664 97.33333333333333 L 41.0 97.33333333333333 L 40.0 97.66666666666667 L 39.0 98.0 L 38.333333333333336 98.33333333333333 L 38.0 99.0 L 38.0 100.0 L 38.0 101.0 L 37.666666666666664 102.0 L 37.333333333333336 103.0 L 37.0 104.0 L 37.0 105.0 L 37.0 106.0 L 37.333333333333336 106.66666666666667 L 38.0 107.0 L 38.5 107.0 Z" stroke="none" fill="rgb(122,68,243)" />
<path d="M 43.5 124.0 L 44.0 124.0 L 44.666666666666664 123.66666666666667 L 45.0 123.0 L 45.0 122.0 L 45.0 121.0 L 45.0 120.0 L 45.0 119.0 L 45.0 118.0 L 45.333333333333336 117.0 L 45.666666666666664 116.0 L 46.0 115.0 L 46.0 114.0 L 46.333333333333336 113.0 L 46.666666666666664 112.0 L 47.0 111.0 L 47.0 110.0 L 47.0 109.0 L 47.0 108.0 L 47.0 107.0 L 47.0 106.0 L 47.0 105.0 L 47.0 104.0 L 47.0 103.0 L 47.0 102.0 L 46.666666666666664 101.0 L 46.0 100.0 L 45.333333333333336 99.0 L 45.0 98.0 L 44.666666666666664 97.33333333333333 L 44.0 97.0 L 43.0 97.33333333333333 L 42.333333333333336 98.0 L 42.0 99.0 L 42.0 100.0 L 41.666666666666664 101.0 L 41.333333333333336 102.0 L 41.0 103.0 L 41.0 104.0 L 41.0 105.0 L 40.666666666666664 106.0 L 40.333333333333336 107.0 L 40.0 108.0 L 40.0 109.0 L 40.0 110.0 L 40.0 111.0 L 39.666666666666664 112.0 L 39.333333333333336 113.0 L 39.0 114.0 L 39.0 115.0 L 39.0 116.0 L 39.0 117.0 L 39.0 118.0 L 39.0 119.0 L 39.0 120.0 L 39.0 121.0 L 39.0 122.0 L 39.0 123.0 L 39.333333333333336 123.66666666666667 L 40.0 124.0 L 41.0 124.0 L 42.0 124.0 L 42.5 124.0 Z" stroke="none" fill="rgb(91,22,244)" />
<path d="M 85.5 104.0 L 86.0 104.0 L 86.66666666666667 103.66666666666667 L 87.0 103.0 L 86.66666666666667 102.0 L 86.33333333333333 101.0 L 86.0 100.0 L 86.0 99.0 L 85.66666666666667 98.0 L 85.0 97.33333333333333 L 84.0 97.0 L 83.33333333333333 97.33333333333333 L 83.0 98.0 L 83.0 99.0 L 82.66666666666667 100.0 L 82.33333333333333 101.0 L 82.0 102.0 L 82.33333333333333 102.66666666666667 L 83.0 103.33333333333333 L 84.0 103.66666666666667 L 84.5 104.0 Z" stroke="none" fill="rgb(91,22,244)" />
<path d="M 78.5 105.0 L 79.0 105.33333333333333 L 80.0 105.66666666666667 L 81.0 106.0 L 82.0 106.0 L 83.0 106.0 L 84.0 106.33333333333333 L 85.0 106.66666666666667 L 86.0 107.0 L 87.0 107.33333333333333 L 88.0 107.66666666666667 L 89.0 108.0 L 90.0 108.0 L 91.0 108.33333333333333 L 92.0 108.66666666666667 L 93.0 109.0 L 94.0 109.33333333333333 L 95.0 109.66666666666667 L 96.0 110.0 L 97.0 110.0 L 98.0 110.33333333333333 L 99.0 110.66666666666667 L 100.0 111.0 L 101.0 111.33333333333333 L 102.0 112.0 L 102.66666666666667 113.0 L 102.66666666666667 114.0 L 102.33333333333333 115.0 L 102.0 116.0 L 102.33333333333333 116.66666666666667 L 103.0 117.0 L 104.0 117.0 L 104.66666666666667 116.66666666666667 L 105.0 116.0 L 105.33333333333333 115.0 L 105.66666666666667 114.0 L 106.0 113.0 L 106.0 112.0 L 106.0 111.0 L 105.66666666666667 110.33333333333333 L 105.0 109.66666666666667 L 104.0 109.33333333333333 L 103.0 109.0 L 102.0 108.66666666666667 L 101.0 108.33333333333333 L 100.0 108.0 L 99.0 107.66666666666667 L 98.0 107.33333333333333 L 97.0 107.0 L 96.0 107.0 L 95.0 106.66666666666667 L 94.0 106.33333333333333 L 93.0 105.66666666666667 L 92.0 105.33333333333333 L 91.0 105.0 L 90.0 105.0 L 89.0 104.66666666666667 L 88.0 104.33333333333333 L 87.0 104.0 L 86.0 104.0 L 85.0 103.66666666666667 L 84.0 103.33333333333333 L 83.0 102.66666666666667 L 82.0 102.33333333333333 L 81.0 102.0 L 80.0 102.0 L 79.0 102.0 L 78.0 101.66666666666667 L 77.0 101.33333333333333 L 76.0 101.0 L 75.0 100.66666666666667 L 74.0 100.33333333333333 L 73.0 100.0 L 72.0 100.0 L 71.0 99.66666666666667 L 70.0 99.0 L 69.0 98.33333333333333 L 68.0 98.0 L 67.0 98.0 L 66.0 98.0 L 65.0 98.0 L 64.0 98.0 L 63.0 98.33333333333333 L 62.0 98.66666666666667 L 61.0 99.0 L 60.0 99.33333333333333 L 59.0 100.0 L 58.333333333333336 101.0 L 58.0 102.0 L 58.0 103.0 L 57.666666666666664 104.0 L 57.0 105.0 L 56.333333333333336 106.0 L 56.0 107.0 L 56.0 108.0 L 56.0 109.0 L 56.0 110.0 L 55.666666666666664 111.0 L 55.333333333333336 112.0 L 54.666666666666664 113.0 L 54.333333333333336 114.0 L 54.0 115.0 L 54.333333333333336 115.66666666666667 L 55.0 116.0 L 56.0 116.33333333333333 L 57.0 116.66666666666667 L 57.666666666666664 116.66666666666667 L 58.333333333333336 116.0 L 58.666666666666664 115.0 L 59.0 114.0 L 59.333333333333336 113.0 L 59.666666666666664 112.0 L 60.0 111.0 L 60.333333333333336 110.0 L 60.666666666666664 109.0 L 61.0 108.0 L 61.333333333333336 107.0 L 61.666666666666664 106.0 L 61.666666666666664 105.0 L 61.333333333333336 104.0 L 61.333333333333336 103.0 L 62.0 102.0 L 63.0 101.33333333333333 L 64.0 101.0 L 65.0 101.0 L 66.0 101.33333333333333 L 67.0 101.66666666666667 L 68.0 102.0 L 69.0 102.0 L 70.0 102.33333333333333 L 71.0 102.66666666666667 L 72.0 103.0 L 73.0 103.33333333333333 L 74.0 103.66666666666667 L 75.0 104.0 L 76.0 104.0 L 77.0 104.33333333333333 L 77.5 104.5 Z" stroke="none" fill="rgb(65,64,63)" />
<path d="M 88.5 105.0 L 89.0 105.0 L 90.0 105.0 L 90.66666666666667 104.66666666666667 L 91.0 104.0 L 90.66666666666667 103.0 L 90.33333333333333 102.0 L 90.0 101.0 L 90.0 100.0 L 89.66666666666667 99.0 L 89.0 98.33333333333333 L 88.0 98.0 L 87.0 98.0 L 86.33333333333333 98.33333333333333 L 86.0 99.0 L 86.0 100.0 L 86.0 101.0 L 86.33333333333333 102.0 L 86.66666666666667 103.0 L 87.33333333333333 104.0 L 87.5 104.5 Z" stroke="none" fill="rgb(122,68,243)" />
<path d="M 95.5 107.0 L 96.0 107.0 L 97.0 107.33333333333333 L 98.0 107.66666666666667 L 99.0 108.0 L 100.0 108.33333333333333 L 101.0 108.66666666666667 L 102.0 109.0 L 103.0 109.33333333333333 L 104.0 109.66666666666667 L 105.0 110.33333333333333 L 105.66666666666667 111.0 L 106.0 112.0 L 105.66666666666667 113.0 L 105.33333333333333 114.0 L 105.0 115.0 L 104.66666666666667 116.0 L 104.33333333333333 117.0 L 104.33333333333333 118.0 L 104.66666666666667 119.0 L 105.0 120.0 L 105.0 121.0 L 105.0 122.0 L 105.0 123.0 L 105.33333333333333 123.66666666666667 L 106.0 124.0 L 107.0 124.0 L 108.0 124.0 L 109.0 124.0 L 110.0 124.0 L 111.0 124.0 L 112.0 124.0 L 113.0 124.0 L 114.0 124.0 L 115.0 124.0 L 116.0 124.0 L 116.66666666666667 123.66666666666667 L 117.0 123.0 L 117.0 122.0 L 117.0 121.0 L 117.0 120.0 L 117.0 119.0 L 117.0 118.0 L 116.66666666666667 117.0 L 116.33333333333333 116.0 L 116.0 115.0 L 115.66666666666667 114.0 L 115.33333333333333 113.0 L 114.66666666666667 112.0 L 114.33333333333333 111.0 L 113.66666666666667 110.0 L 113.0 109.0 L 112.0 108.0 L 111.0 107.0 L 110.0 106.0 L 109.0 105.33333333333333 L 108.0 104.66666666666667 L 107.0 104.0 L 106.0 103.33333333333333 L 105.0 102.66666666666667 L 104.0 102.33333333333333 L 103.0 101.66666666666667 L 102.0 101.33333333333333 L 101.0 101.0 L 100.0 100.66666666666667 L 99.0 100.33333333333333 L 98.0 100.0 L 97.0 100.0 L 96.0 99.66666666666667 L 95.0 99.33333333333333 L 94.0 99.0 L 93.0 98.66666666666667 L 92.0 98.33333333333333 L 91.0 98.33333333333333 L 90.33333333333333 99.0 L 90.0 100.0 L 90.0 101.0 L 90.0 102.0 L 90.33333333333333 103.0 L 90.66666666666667 104.0 L 91.33333333333333 105.0 L 92.0 105.66666666666667 L 93.0 106.33333333333333 L 94.0 106.66666666666667 L 94.5 107.0 Z" stroke="none" fill="rgb(91,22,244)" />
<path d="M 26.5 124.0 L 27.0 124.0 L 28.0 124.0 L 29.0 124.0 L 30.0 124.0 L 31.0 124.0 L 32.0 124.0 L 33.0 124.0 L 34.0 124.0 L 34.666666666666664 123.66666666666667 L 35.0 123.0 L 35.333333333333336 122.0 L 35.666666666666664 121.0 L 36.0 120.0 L 36.0 119.0 L 36.0 118.0 L 36.0 117.0 L 36.0 116.0 L 36.0 115.0 L 36.0 114.0 L 36.333333333333336 113.0 L 36.666666666666664 112.0 L 37.0 111.0 L 37.0 110.0 L 37.0 109.0 L 37.0 108.0 L 37.0 107.0 L 37.0 106.0 L 37.0 105.0 L 37.333333333333336 104.0 L 37.666666666666664 103.0 L 38.0 102.0 L 38.0 101.0 L 38.0 100.0 L 37.666666666666664 99.33333333333333 L 37.0 99.0 L 36.0 99.0 L 35.0 99.0 L 34.0 99.33333333333333 L 33.0 99.66666666666667 L 32.0 100.0 L 31.0 100.0 L 30.0 100.0 L 29.0 100.33333333333333 L 28.0 100.66666666666667 L 27.0 101.33333333333333 L 26.0 101.66666666666667 L 25.0 102.33333333333333 L 24.0 102.66666666666667 L 23.0 103.33333333333333 L 22.0 103.66666666666667 L 21.0 104.33333333333333 L 20.0 105.0 L 19.0 105.66666666666667 L 18.0 106.33333333333333 L 17.0 107.0 L 16.0 108.0 L 15.333333333333334 109.0 L 14.666666666666666 110.0 L 14.0 111.0 L 13.333333333333334 112.0 L 13.0 113.0 L 12.666666666666666 114.0 L 12.333333333333334 115.0 L 12.0 116.0 L 12.0 117.0 L 12.0 118.0 L 11.666666666666666 119.0 L 11.333333333333334 120.0 L 11.333333333333334 121.0 L 11.666666666666666 122.0 L 12.0 123.0 L 12.333333333333334 123.66666666666667 L 13.0 124.0 L 14.0 124.0 L 15.0 124.0 L 16.0 124.0 L 17.0 124.0 L 18.0 124.0 L 19.0 124.0 L 20.0 124.0 L 21.0 124.0 L 22.0 124.0 L 23.0 124.0 L 24.0 124.0 L 25.0 124.0 L 25.5 124.0 Z" stroke="none" fill="rgb(91,22,244)" />
<path d="M 56.5 106.0 L 57.0 105.66666666666667 L 57.666666666666664 105.0 L 58.0 104.0 L 58.0 103.0 L 58.0 102.0 L 58.0 101.0 L 57.666666666666664 100.33333333333333 L 57.0 100.33333333333333 L 56.0 101.0 L 55.0 102.0 L 54.333333333333336 103.0 L 54.0 104.0 L 54.0 105.0 L 54.333333333333336 105.66666666666667 L 55.0 106.0 L 55.5 106.0 Z" stroke="none" fill="rgb(139,188,225)" />
<path d="M 52.5 111.0 L 52.666666666666664 110.66666666666667 L 53.333333333333336 110.0 L 53.666666666666664 109.0 L 54.0 108.0 L 54.0 107.0 L 54.0 106.0 L 54.0 105.0 L 54.0 104.0 L 54.0 103.0 L 53.666666666666664 102.0 L 53.0 101.33333333333333 L 52.0 101.0 L 51.0 101.0 L 50.0 101.0 L 49.0 101.0 L 48.0 101.0 L 47.333333333333336 101.33333333333333 L 47.0 102.0 L 47.0 103.0 L 47.0 104.0 L 47.0 105.0 L 47.0 106.0 L 47.0 107.0 L 47.0 108.0 L 47.0 109.0 L 47.0 110.0 L 47.333333333333336 110.66666666666667 L 48.0 111.0 L 49.0 111.0 L 50.0 111.0 L 51.0 111.0 L 51.5 111.0 Z" stroke="none" fill="rgb(198,235,253)" />
<path d="M 78.5 110.0 L 79.0 110.0 L 80.0 109.66666666666667 L 80.66666666666667 109.0 L 81.0 108.0 L 81.0 107.0 L 80.66666666666667 106.0 L 80.0 105.33333333333333 L 79.0 104.66666666666667 L 78.0 104.33333333333333 L 77.0 104.0 L 76.0 104.0 L 75.0 103.66666666666667 L 74.0 103.33333333333333 L 73.0 103.0 L 72.0 102.66666666666667 L 71.0 102.33333333333333 L 70.0 102.0 L 69.0 102.0 L 68.0 101.66666666666667 L 67.0 101.33333333333333 L 66.0 101.0 L 65.0 101.0 L 64.0 101.0 L 63.0 101.0 L 62.0 101.33333333333333 L 61.333333333333336 102.0 L 61.0 103.0 L 61.0 104.0 L 61.333333333333336 105.0 L 62.0 105.66666666666667 L 63.0 106.0 L 64.0 106.33333333333333 L 65.0 106.66666666666667 L 66.0 107.0 L 67.0 107.0 L 68.0 107.33333333333333 L 69.0 107.66666666666667 L 70.0 108.0 L 71.0 108.33333333333333 L 72.0 108.66666666666667 L 73.0 109.0 L 74.0 109.0 L 75.0 109.33333333333333 L 76.0 109.66666666666667 L 77.0 110.0 L 77.5 110.0 Z" stroke="none" fill="rgb(201,200,200)" />
<path d="M 55.0 113.5 L 55.333333333333336 113.0 L 55.666666666666664 112.0 L 56.0 111.0 L 56.0 110.0 L 56.0 109.0 L 56.0 108.0 L 56.0 107.0 L 55.666666666666664 106.33333333333333 L 55.0 106.0 L 54.333333333333336 106.33333333333333 L 54.0 107.0 L 53.666666666666664 108.0 L 53.333333333333336 109.0 L 52.666666666666664 110.0 L 52.333333333333336 111.0 L 52.0 112.0 L 52.0 113.0 L 52.0 114.0 L 52.333333333333336 114.66666666666667 L 53.0 115.0 L 54.0 114.66666666666667 L 54.5 114.5 Z" stroke="none" fill="rgb(138,161,171)" />
<path d="M 95.5 124.0 L 96.0 124.0 L 97.0 124.0 L 98.0 124.0 L 99.0 124.0 L 100.0 124.0 L 101.0 124.0 L 102.0 124.0 L 103.0 124.0 L 104.0 124.0 L 104.66666666666667 123.66666666666667 L 105.0 123.0 L 105.0 122.0 L 105.0 121.0 L 105.0 120.0 L 105.0 119.0 L 104.66666666666667 118.0 L 104.0 117.33333333333333 L 103.0 117.0 L 102.0 117.0 L 101.0 116.66666666666667 L 100.0 116.33333333333333 L 99.0 116.0 L 98.0 115.66666666666667 L 97.0 115.33333333333333 L 96.0 115.0 L 95.0 115.0 L 94.0 114.66666666666667 L 93.0 114.33333333333333 L 92.0 114.0 L 91.0 113.66666666666667 L 90.0 113.33333333333333 L 89.0 113.0 L 88.0 112.66666666666667 L 87.0 112.33333333333333 L 86.0 112.0 L 85.0 112.0 L 84.0 111.66666666666667 L 83.0 111.33333333333333 L 82.0 110.66666666666667 L 81.0 110.33333333333333 L 80.0 110.0 L 79.0 110.0 L 78.0 110.0 L 77.0 109.66666666666667 L 76.0 109.33333333333333 L 75.0 109.0 L 74.0 109.0 L 73.0 108.66666666666667 L 72.0 108.33333333333333 L 71.0 108.0 L 70.0 107.66666666666667 L 69.0 107.33333333333333 L 68.0 107.0 L 67.0 107.0 L 66.0 106.66666666666667 L 65.0 106.33333333333333 L 64.0 106.0 L 63.0 106.0 L 62.0 106.0 L 61.333333333333336 106.33333333333333 L 61.0 107.0 L 60.666666666666664 108.0 L 60.333333333333336 109.0 L 60.0 110.0 L 59.666666666666664 111.0 L 59.333333333333336 112.0 L 59.0 113.0 L 58.666666666666664 114.0 L 58.333333333333336 115.0 L 58.0 116.0 L 58.0 117.0 L 58.0 118.0 L 57.666666666666664 119.0 L 57.333333333333336 120.0 L 57.0 121.0 L 57.0 122.0 L 57.0 123.0 L 57.333333333333336 123.66666666666667 L 58.0 124.0 L 59.0 124.0 L 60.0 124.0 L 61.0 124.0 L 62.0 124.0 L 63.0 124.0 L 64.0 124.0 L 65.0 124.0 L 66.0 124.0 L 67.0 124.0 L 68.0 124.0 L 69.0 124.0 L 70.0 124.0 L 71.0 124.0 L 72.0 124.0 L 73.0 124.0 L 74.0 124.0 L 75.0 124.0 L 76.0 124.0 L 77.0 124.0 L 78.0 124.0 L 79.0 124.0 L 80.0 124.0 L 81.0 124.0 L 82.0 124.0 L 83.0 124.0 L 84.0 124.0 L 85.0 124.0 L 86.0 124.0 L 87.0 124.0 L 88.0 124.0 L 89.0 124.0 L 90.0 124.0 L 91.0 124.0 L 92.0 124.0 L 93.0 124.0 L 94.0 124.0 L 94.5 124.0 Z" stroke="none" fill="rgb(234,72,69)" />
<path d="M 91.5 114.0 L 92.0 114.33333333333333 L 93.0 114.66666666666667 L 94.0 115.0 L 95.0 115.0 L 96.0 115.33333333333333 L 97.0 115.66666666666667 L 98.0 116.0 L 99.0 116.33333333333333 L 100.0 116.66666666666667 L 101.0 117.0 L 101.66666666666667 116.66666666666667 L 102.33333333333333 116.0 L 102.66666666666667 115.0 L 103.0 114.0 L 103.0 113.0 L 102.66666666666667 112.0 L 102.0 111.33333333333333 L 101.0 111.0 L 100.0 110.66666666666667 L 99.0 110.33333333333333 L 98.0 110.0 L 97.0 110.0 L 96.0 109.66666666666667 L 95.0 109.33333333333333 L 94.0 109.0 L 93.0 108.66666666666667 L 92.0 108.33333333333333 L 91.0 108.0 L 90.0 108.0 L 89.0 107.66666666666667 L 88.0 107.33333333333333 L 87.0 107.0 L 86.0 106.66666666666667 L 85.0 106.33333333333333 L 84.0 106.0 L 83.0 106.0 L 82.0 106.0 L 81.33333333333333 106.33333333333333 L 81.0 107.0 L 80.66666666666667 108.0 L 80.33333333333333 109.0 L 80.33333333333333 110.0 L 81.0 110.66666666666667 L 82.0 111.33333333333333 L 83.0 111.66666666666667 L 84.0 112.0 L 85.0 112.0 L 86.0 112.33333333333333 L 87.0 112.66666666666667 L 88.0 113.0 L 89.0 113.33333333333333 L 90.0 113.66666666666667 L 90.5 114.0 Z" stroke="none" fill="rgb(230,230,230)" />
<path d="M 40.0 112.5 L 40.0 112.0 L 40.0 111.0 L 40.0 110.0 L 40.0 109.0 L 40.0 108.0 L 39.666666666666664 107.33333333333333 L 39.0 107.0 L 38.0 107.0 L 37.333333333333336 107.33333333333333 L 37.0 108.0 L 37.0 109.0 L 37.0 110.0 L 36.666666666666664 111.0 L 36.333333333333336 112.0 L 36.0 113.0 L 36.0 114.0 L 36.0 115.0 L 36.0 116.0 L 36.0 117.0 L 36.0 118.0 L 36.0 119.0 L 35.666666666666664 120.0 L 35.333333333333336 121.0 L 35.0 122.0 L 35.0 123.0 L 35.333333333333336 123.66666666666667 L 36.0 124.0 L 37.0 124.0 L 38.0 124.0 L 38.666666666666664 123.66666666666667 L 39.0 123.0 L 39.0 122.0 L 39.0 121.0 L 39.0 120.0 L 39.0 119.0 L 39.0 118.0 L 39.0 117.0 L 39.0 116.0 L 39.0 115.0 L 39.333333333333336 114.0 L 39.5 113.5 Z" stroke="none" fill="rgb(148,112,239)" />
<path d="M 49.5 116.0 L 50.0 116.0 L 51.0 116.0 L 51.666666666666664 115.66666666666667 L 52.0 115.0 L 52.0 114.0 L 52.0 113.0 L 52.0 112.0 L 51.666666666666664 111.33333333333333 L 51.0 111.0 L 50.0 111.0 L 49.0 111.0 L 48.0 111.0 L 47.0 111.33333333333333 L 46.333333333333336 112.0 L 46.0 113.0 L 46.0 114.0 L 46.0 115.0 L 46.333333333333336 115.66666666666667 L 47.0 116.0 L 48.0 116.0 L 48.5 116.0 Z" stroke="none" fill="rgb(161,221,249)" />
<path d="M 52.5 124.0 L 52.666666666666664 123.66666666666667 L 53.0 123.0 L 53.0 122.0 L 53.0 121.0 L 53.333333333333336 120.0 L 53.666666666666664 119.0 L 54.0 118.0 L 54.0 117.0 L 54.0 116.0 L 53.666666666666664 115.33333333333333 L 53.0 115.0 L 52.0 115.33333333333333 L 51.333333333333336 116.0 L 51.0 117.0 L 50.666666666666664 118.0 L 50.333333333333336 119.0 L 50.0 120.0 L 49.666666666666664 121.0 L 49.333333333333336 122.0 L 49.0 123.0 L 49.333333333333336 123.66666666666667 L 50.0 124.0 L 51.0 124.0 L 51.5 124.0 Z" stroke="none" fill="rgb(80,136,124)" />
<path d="M 49.0 123.5 L 49.333333333333336 123.0 L 49.666666666666664 122.0 L 50.0 121.0 L 50.333333333333336 120.0 L 50.666666666666664 119.0 L 51.0 118.0 L 51.0 117.0 L 50.666666666666664 116.33333333333333 L 50.0 116.0 L 49.0 116.0 L 48.0 116.0 L 47.0 116.0 L 46.0 116.0 L 45.333333333333336 116.33333333333333 L 45.0 117.0 L 45.0 118.0 L 45.0 119.0 L 45.0 120.0 L 45.0 121.0 L 45.0 122.0 L 45.0 123.0 L 45.333333333333336 123.66666666666667 L 46.0 124.0 L 47.0 124.0 L 48.0 124.0 L 48.5 124.0 Z" stroke="none" fill="rgb(139,188,225)" />
<path d="M 56.5 124.0 L 56.666666666666664 123.66666666666667 L 57.0 123.0 L 57.0 122.0 L 57.333333333333336 121.0 L 57.666666666666664 120.0 L 58.0 119.0 L 58.0 118.0 L 57.666666666666664 117.0 L 57.0 116.33333333333333 L 56.0 116.0 L 55.0 116.0 L 54.333333333333336 116.33333333333333 L 54.0 117.0 L 53.666666666666664 118.0 L 53.333333333333336 119.0 L 53.0 120.0 L 53.0 121.0 L 53.0 122.0 L 53.0 123.0 L 53.333333333333336 123.66666666666667 L 54.0 124.0 L 55.0 124.0 L 55.5 124.0 Z" stroke="none" fill="rgb(35,34,34)" />
</svg>
