<?xml version="1.0" encoding="UTF-8" standalone="no"?>
<!DOCTYPE svg PUBLIC "-//W3C//DTD SVG 1.1//EN"
"http://www.w3.org/Graphics/SVG/1.1/DTD/svg11.dtd">
<svg width="128" height="128" xmlns="http://www.w3.org/2000/svg" version="1.1">
<path d="M 26.5 128.0 L 27.0 128.0 L 28.0 128.0 L 29.0 128.0 L 30.0 128.0 L 31.0 128.0 L 32.0 128.0 L 33.0 128.0 L 34.0 128.0 L 35.0 128.0 L 36.0 128.0 L 37.0 128.0 L 38.0 128.0 L 39.0 128.0 L 40.0 128.0 L 41.0 128.0 L 42.0 128.0 L 43.0 128.0 L 44.0 128.0 L 45.0 128.0 L 46.0 128.0 L 47.0 128.0 L 48.0 128.0 L 49.0 128.0 L 50.0 128.0 L 51.0 128.0 L 52.0 128.0 L 53.0 128.0 L 54.0 128.0 L 55.0 128.0 L 56.0 128.0 L 57.0 128.0 L 58.0 128.0 L 59.0 128.0 L 60.0 128.0 L 61.0 128.0 L 62.0 128.0 L 63.0 128.0 L 64.0 128.0 L 65.0 128.0 L 66.0 128.0 L 67.0 128.0 L 68.0 128.0 L 69.0 128.0 L 70.0 128.0 L 71.0 128.0 L 72.0 128.0 L 73.0 128.0 L 74.0 128.0 L 75.0 128.0 L 76.0 128.0 L 77.0 128.0 L 78.0 128.0 L 79.0 128.0 L 80.0 128.0 L 81.0 128.0 L 82.0 128.0 L 83.0 128.0 L 84.0 128.0 L 85.0 128.0 L 86.0 128.0 L 87.0 128.0 L 88.0 128.0 L 89.0 128.0 L 90.0 128.0 L 91.0 128.0 L 92.0 128.0 L 93.0 128.0 L 94.0 128.0 L 95.0 128.0 L 96.0 128.0 L 97.0 128.0 L 98.0 128.0 L 99.0 128.0 L 100.0 128.0 L 101.0 128.0 L 102.0 128.0 L 103.0 128.0 L 104.0 128.0 L 105.0 128.0 L 106.0 128.0 L 107.0 128.0 L 108.0 128.0 L 109.0 128.0 L 110.0 128.0 L 111.0 128.0 L 112.0 128.0 L 113.0 128.0 L 114.0 128.0 L 115.0 128.0 L 116.0 128.0 L 117.0 128.0 L 118.0 128.0 L 119.0 128.0 L 120.0 128.0 L 121.0 128.0 L 122.0 128.0 L 123.0 128.0 L 124.0 128.0 L 125.0 128.0 L 126.0 128.0 L 127.0 128.0 L 127.66666666666667 127.66666666666667 L 128.0 127.0 L 128.0 126.0 L 128.0 125.0 L 128.0 124.0 L 128.0 123.0 L 128.0 122.0 L 128.0 121.0 L 128.0 120.0 L 128.0 119.0 L 128.0 118.0 L 128.0 117.0 L 128.0 116.0 L 128.0 115.0 L 128.0 114.0 L 128.0 113.0 L 128.0 112.0 L 128.0 111.0 L 128.0 110.0 L 128.0 109.0 L 128.0 108.0 L 128.0 107.0 L 128.0 106.0 L 128.0 105.0 L 128.0 104.0 L 128.0 103.0 L 128.0 102.0 L 128.0 101.0 L 128.0 100.0 L 128.0 99.0 L 128.0 98.0 L 128.0 97.0 L 128.0 96.0 L 128.0 95.0 L 128.0 94.0 L 128.0 93.0 L 128.0 92.0 L 128.0 91.0 L 128.0 90.0 L 128.0 89.0 L 128.0 88.0 L 128.0 87.0 L 128.0 86.0 L 128.0 85.0 L 128.0 84.0 L 128.0 83.0 L 128.0 82.0 L 128.0 81.0 L 128.0 80.0 L 128.0 79.0 L 128.0 78.0 L 128.0 77.0 L 128.0 76.0 L 128.0 75.0 L 128.0 74.0 L 128.0 73.0 L 128.0 72.0 L 128.0 71.0 L 128.0 70.0 L 128.0 69.0 L 128.0 68.0 L 128.0 67.0 L 128.0 66.0 L 128.0 65.0 L 128.0 64.0 L 128.0 63.0 L 128.0 62.0 L 128.0 61.0 L 128.0 60.0 L 128.0 59.0 L 128.0 58.0 L 128.0 57.0 L 128.0 56.0 L 128.0 55.0 L 128.0 54.0 L 128.0 53.0 L 128.0 52.0 L 128.0 51.0 L 128.0 50.0 L 128.0 49.0 L 128.0 48.0 L 128.0 47.0 L 128.0 46.0 L 128.0 45.0 L 128.0 44.0 L 128.0 43.0 L 128.0 42.0 L 128.0 41.0 L 128.0 40.0 L 128.0 39.0 L 128.0 38.0 L 128.0 37.0 L 128.0 36.0 L 128.0 35.0 L 128.0 34.0 L 128.0 33.0 L 128.0 32.0 L 128.0 31.0 L 128.0 30.0 L 128.0 29.0 L 128.0 28.0 L 128.0 27.0 L 128.0 26.0 L 128.0 25.0 L 128.0 24.0 L 128.0 23.0 L 128.0 22.0 L 128.0 21.0 L 128.0 20.0 L 128.0 19.0 L 128.0 18.0 L 128.0 17.0 L 128.0 16.0 L 128.0 15.0 L 128.0 14.0 L 128.0 13.0 L 128.0 12.0 L 128.0 11.0 L 128.0 10.0 L 128.0 9.0 L 128.0 8.0 L 128.0 7.0 L 128.0 6.0 L 128.0 5.0 L 128.0 4.0 L 128.0 3.0 L 128.0 2.0 L 128.0 1.0 L 127.66666666666667 0.3333333333333333 L 127.0 0.0 L 126.0 0.0 L 125.0 0.0 L 124.0 0.0 L 123.0 0.0 L 122.0 0.0 L 121.0 0.0 L 120.0 0.0 L 119.0 0.0 L 118.0 0.0 L 117.0 0.0 L 116.0 0.0 L 115.0 0.0 L 114.0 0.0 L 113.0 0.0 L 112.0 0.0 L 111.0 0.0 L 110.0 0.0 L 109.0 0.0 L 108.0 0.0 L 107.0 0.0 L 106.0 0.0 L 105.0 0.0 L 104.0 0.0 L 103.0 0.0 L 102.0 0.0 L 101.0 0.0 L 100.0 0.0 L 99.0 0.0 L 98.0 0.0 L 97.0 0.0 L 96.0 0.0 L 95.0 0.0 L 94.0 0.0 L 93.0 0.0 L 92.0 0.0 L 91.0 0.0 L 90.0 0.0 L 89.0 0.0 L 88.0 0.0 L 87.0 0.0 L 86.0 0.0 L 85.0 0.0 L 84.0 0.0 L 83.0 0.0 L 82.0 0.0 L 81.0 0.0 L 80.0 0.0 L 79.0 0.0 L 78.0 0.0 L 77.0 0.0 L 76.0 0.0 L 75.0 0.0 L 74.0 0.0 L 73.0 0.0 L 72.0 0.0 L 71.0 0.0 L 70.0 0.0 L 69.0 0.0 L 68.0 0.0 L 67.0 0.0 L 66.0 0.0 L 65.0 0.0 L 64.0 0.0 L 63.0 0.0 L 62.0 0.0 L 61.0 0.0 L 60.0 0.0 L 59.0 0.0 L 58.0 0.0 L 57.0 0.0 L 56.0 0.0 L 55.0 0.0 L 54.0 0.0 L 53.0 0.0 L 52.0 0.0 L 51.0 0.0 L 50.0 0.0 L 49.0 0.0 L 48.0 0.0 L 47.0 0.0 L 46.0 0.0 L 45.0 0.0 L 44.0 0.0 L 43.0 0.0 L 42.0 0.0 L 41.0 0.0 L 40.0 0.0 L 39.0 0.0 L 38.0 0.0 L 37.0 0.0 L 36.0 0.0 L 35.0 0.0 L 34.0 0.0 L 33.0 0.0 L 32.0 0.0 L 31.0 0.0 L 30.0 0.0 L 29.0 0.0 L 28.0 0.0 L 27.0 0.0 L 26.0 0.0 L 25.0 0.0 L 24.0 0.0 L 23.0 0.0 L 22.0 0.0 L 21.0 0.0 L 20.0 0.0 L 19.0 0.0 L 18.0 0.0 L 17.0 0.0 L 16.0 0.0 L 15.0 0.0 L 14.0 0.0 L 13.0 0.0 L 12.0 0.0 L 11.0 0.0 L 10.0 0.0 L 9.0 0.0 L 8.0 0.0 L 7.0 0.0 L 6.0 0.0 L 5.0 0.0 L 4.0 0.0 L 3.0 0.0 L 2.0 0.0 L 1.0 0.0 L 0.3333333333333333 0.3333333333333333 L 0.0 1.0 L 0.0 2.0 L 0.0 3.0 L 0.0 4.0 L 0.0 5.0 L 0.0 6.0 L 0.0 7.0 L 0.0 8.0 L 0.0 9.0 L 0.0 10.0 L 0.0 11.0 L 0.0 12.0 L 0.0 13.0 L 0.0 14.0 L 0.0 15.0 L 0.0 16.0 L 0.0 17.0 L 0.0 18.0 L 0.0 19.0 L 0.0 20.0 L 0.0 21.0 L 0.0 22.0 L 0.0 23.0 L 0.0 24.0 L 0.0 25.0 L 0.0 26.0 L 0.0 27.0 L 0.0 28.0 L 0.0 29.0 L 0.0 30.0 L 0.0 31.0 L 0.0 32.0 L 0.0 33.0 L 0.0 34.0 L 0.0 35.0 L 0.0 36.0 L 0.0 37.0 L 0.0 38.0 L 0.0 39.0 L 0.0 40.0 L 0.0 41.0 L 0.0 42.0 L 0.0 43.0 L 0.0 44.0 L 0.0 45.0 L 0.0 46.0 L 0.0 47.0 L 0.0 48.0 L 0.0 49.0 L 0.0 50.0 L 0.0 51.0 L 0.0 52.0 L 0.0 53.0 L 0.0 54.0 L 0.0 55.0 L 0.0 56.0 L 0.0 57.0 L 0.0 58.0 L 0.0 59.0 L 0.0 60.0 L 0.0 61.0 L 0.0 62.0 L 0.0 63.0 L 0.0 64.0 L 0.0 65.0 L 0.0 66.0 L 0.0 67.0 L 0.0 68.0 L 0.0 69.0 L 0.0 70.0 L 0.0 71.0 L 0.0 72.0 L 0.0 73.0 L 0.0 74.0 L 0.0 75.0 L 0.0 76.0 L 0.0 77.0 L 0.0 78.0 L 0.0 79.0 L 0.0 80.0 L 0.0 81.0 L 0.0 82.0 L 0.0 83.0 L 0.0 84.0 L 0.0 85.0 L 0.0 86.0 L 0.0 87.0 L 0.0 88.0 L 0.0 89.0 L 0.0 90.0 L 0.0 91.0 L 0.0 92.0 L 0.0 93.0 L 0.0 94.0 L 0.0 95.0 L 0.0 96.0 L 0.0 97.0 L 0.0 98.0 L 0.0 99.0 L 0.0 100.0 L 0.0 101.0 L 0.0 102.0 L 0.0 103.0 L 0.0 104.0 L 0.0 105.0 L 0.0 106.0 L 0.0 107.0 L 0.0 108.0 L 0.0 109.0 L 0.0 110.0 L 0.0 111.0 L 0.0 112.0 L 0.0 113.0 L 0.0 114.0 L 0.0 115.0 L 0.0 116.0 L 0.0 117.0 L 0.0 118.0 L 0.0 119.0 L 0.0 120.0 L 0.0 121.0 L 0.0 122.0 L 0.0 123.0 L 0.0 124.0 L 0.0 125.0 L 0.0 126.0 L 0.0 127.0 L 0.3333333333333333 127.66666666666667 L 1.0 128.0 L 2.0 128.0 L 3.0 128.0 L 4.0 128.0 L 5.0 128.0 L 6.0 128.0 L 7.0 128.0 L 8.0 128.0 L 9.0 128.0 L 10.0 128.0 L 11.0 128.0 L 12.0 128.0 L 13.0 128.0 L 14.0 128.0 L 15.0 128.0 L 16.0 128.0 L 17.0 128.0 L 18.0 128.0 L 19.0 128.0 L 20.0 128.0 L 21.0 128.0 L 22.0 128.0 L 23.0 128.0 L 24.0 128.0 L 25.0 128.0 L 25.5 128.0 Z" stroke="none" fill="rgb(0,0,0)" />
<path d="M 21.5 58.0 L 22.0 58.0 L 23.0 58.0 L 24.0 58.0 L 25.0 58.0 L 26.0 58.0 L 27.0 57.666666666666664 L 28.0 57.333333333333336 L 29.0 57.0 L 30.0 57.0 L 31.0 57.0 L 32.0 57.0 L 33.0 57.0 L 34.0 57.0 L 35.0 57.0 L 36.0 57.0 L 37.0 57.0 L 38.0 57.0 L 39.0 57.0 L 40.0 57.0 L 41.0 57.0 L 42.0 57.0 L 43.0 57.0 L 44.0 57.0 L 45.0 56.666666666666664 L 46.0 56.333333333333336 L 47.0 56.0 L 48.0 56.0 L 49.0 55.666666666666664 L 50.0 55.0 L 50.666666666666664 54.0 L 51.0 53.0 L 50.666666666666664 52.0 L 50.333333333333336 51.0 L 50.0 50.0 L 50.0 49.0 L 50.0 48.0 L 49.666666666666664 47.0 L 49.0 46.333333333333336 L 48.0 45.666666666666664 L 47.0 45.333333333333336 L 46.0 45.0 L 45.0 45.0 L 44.0 45.0 L 43.0 44.666666666666664 L 42.0 44.333333333333336 L 41.0 44.0 L 40.0 44.0 L 39.0 44.0 L 38.0 44.0 L 37.0 44.0 L 36.0 43.666666666666664 L 35.0 43.333333333333336 L 34.0 43.0 L 33.0 43.0 L 32.0 42.666666666666664 L 31.0 42.0 L 30.0 41.0 L 29.0 40.0 L 28.333333333333332 39.0 L 28.0 38.0 L 28.333333333333332 37.0 L 29.0 36.0 L 30.0 35.0 L 31.0 34.333333333333336 L 32.0 33.666666666666664 L 33.0 33.333333333333336 L 34.0 33.0 L 35.0 33.0 L 36.0 33.0 L 37.0 33.333333333333336 L 38.0 33.666666666666664 L 39.0 34.0 L 40.0 34.333333333333336 L 41.0 34.666666666666664 L 42.0 35.333333333333336 L 43.0 36.0 L 44.0 36.666666666666664 L 45.0 37.333333333333336 L 46.0 37.666666666666664 L 47.0 38.333333333333336 L 48.0 38.666666666666664 L 49.0 39.0 L 50.0 39.0 L 50.666666666666664 38.666666666666664 L 51.333333333333336 38.0 L 51.666666666666664 37.0 L 52.333333333333336 36.0 L 53.0 35.666666666666664 L 53.666666666666664 36.0 L 54.0 37.0 L 54.0 38.0 L 54.0 39.0 L 54.0 40.0 L 54.0 41.0 L 54.0 42.0 L 54.0 43.0 L 54.0 44.0 L 54.0 45.0 L 54.0 46.0 L 54.333333333333336 47.0 L 54.666666666666664 48.0 L 55.0 49.0 L 55.0 50.0 L 55.333333333333336 51.0 L 55.666666666666664 52.0 L 56.333333333333336 53.0 L 56.666666666666664 54.0 L 57.333333333333336 55.0 L 57.666666666666664 56.0 L 58.0 57.0 L 58.333333333333336 57.666666666666664 L 59.0 58.333333333333336 L 60.0 58.666666666666664 L 61.0 59.0 L 62.0 59.0 L 63.0 59.0 L 64.0 59.0 L 65.0 59.0 L 66.0 59.0 L 67.0 59.0 L 68.0 59.0 L 69.0 59.0 L 70.0 58.666666666666664 L 70.66666666666667 58.0 L 71.33333333333333 57.0 L 71.66666666666667 56.0 L 72.0 55.0 L 72.33333333333333 54.0 L 72.66666666666667 53.0 L 73.33333333333333 52.0 L 73.66666666666667 51.0 L 74.0 50.0 L 74.0 49.0 L 74.33333333333333 48.0 L 74.66666666666667 47.0 L 75.0 46.0 L 75.0 45.0 L 75.0 44.0 L 75.0 43.0 L 75.0 42.0 L 75.0 41.0 L 75.0 40.0 L 75.0 39.0 L 75.0 38.0 L 75.33333333333333 37.0 L 76.0 36.666666666666664 L 77.0 37.0 L 78.0 38.0 L 79.0 38.666666666666664 L 80.0 39.0 L 81.0 39.0 L 82.0 38.666666666666664 L 83.0 38.0 L 84.0 37.333333333333336 L 85.0 36.666666666666664 L 86.0 36.0 L 87.0 35.333333333333336 L 88.0 35.0 L 89.0 34.666666666666664 L 90.0 34.333333333333336 L 91.0 34.0 L 92.0 33.666666666666664 L 93.0 33.333333333333336 L 94.0 33.0 L 95.0 33.0 L 96.0 32.666666666666664 L 97.0 32.333333333333336 L 98.0 32.0 L 99.0 32.0 L 100.0 32.0 L 101.0 32.333333333333336 L 102.0 33.0 L 103.0 34.0 L 103.66666666666667 35.0 L 103.66666666666667 36.0 L 103.0 37.0 L 102.0 38.0 L 101.0 39.0 L 100.0 40.0 L 99.0 40.666666666666664 L 98.0 41.0 L 97.0 41.0 L 96.0 41.333333333333336 L 95.0 41.666666666666664 L 94.0 42.0 L 93.0 42.0 L 92.0 42.333333333333336 L 91.0 42.666666666666664 L 90.0 43.0 L 89.0 43.0 L 88.0 43.333333333333336 L 87.0 43.666666666666664 L 86.0 44.333333333333336 L 85.0 44.666666666666664 L 84.0 45.333333333333336 L 83.0 45.666666666666664 L 82.0 46.333333333333336 L 81.0 46.666666666666664 L 80.33333333333333 47.333333333333336 L 80.0 48.0 L 80.0 49.0 L 80.0 50.0 L 80.0 51.0 L 80.0 52.0 L 80.0 53.0 L 80.33333333333333 54.0 L 81.0 54.666666666666664 L 82.0 55.333333333333336 L 83.0 55.666666666666664 L 84.0 56.0 L 85.0 56.0 L 86.0 56.0 L 87.0 56.0 L 88.0 56.0 L 89.0 56.333333333333336 L 90.0 56.666666666666664 L 91.0 57.0 L 92.0 57.0 L 93.0 57.0 L 94.0 57.0 L 95.0 57.0 L 96.0 57.0 L 97.0 57.0 L 98.0 57.0 L 99.0 57.0 L 100.0 57.0 L 101.0 57.0 L 102.0 57.0 L 103.0 57.0 L 104.0 57.0 L 105.0 57.0 L 106.0 57.0 L 107.0 57.0 L 108.0 57.0 L 109.0 57.0 L 110.0 57.0 L 111.0 57.0 L 112.0 57.0 L 113.0 57.333333333333336 L 114.0 58.0 L 115.0 59.0 L 116.0 60.0 L 117.0 61.0 L 117.66666666666667 62.0 L 118.0 63.0 L 118.0 64.0 L 118.0 65.0 L 118.0 66.0 L 118.0 67.0 L 118.33333333333333 67.66666666666667 L 119.0 68.0 L 120.0 67.66666666666667 L 120.66666666666667 67.0 L 121.33333333333333 66.0 L 121.66666666666667 65.0 L 122.0 64.0 L 122.33333333333333 63.0 L 122.66666666666667 62.0 L 123.0 61.0 L 123.0 60.0 L 123.0 59.0 L 123.33333333333333 58.0 L 123.66666666666667 57.0 L 124.0 56.0 L 124.0 55.0 L 124.0 54.0 L 124.0 53.0 L 124.0 52.0 L 124.0 51.0 L 124.0 50.0 L 124.0 49.0 L 124.0 48.0 L 124.33333333333333 47.0 L 124.66666666666667 46.0 L 125.0 45.0 L 125.0 44.0 L 125.0 43.0 L 125.0 42.0 L 125.0 41.0 L 125.0 40.0 L 124.66666666666667 39.0 L 124.33333333333333 38.0 L 124.0 37.0 L 124.0 36.0 L 124.0 35.0 L 124.0 34.0 L 124.0 33.0 L 124.0 32.0 L 124.0 31.0 L 124.0 30.0 L 124.0 29.0 L 123.66666666666667 28.0 L 123.33333333333333 27.0 L 123.0 26.0 L 123.0 25.0 L 123.0 24.0 L 122.66666666666667 23.0 L 122.33333333333333 22.0 L 122.0 21.0 L 122.0 20.0 L 121.66666666666667 19.0 L 121.33333333333333 18.0 L 120.66666666666667 17.0 L 120.33333333333333 16.0 L 119.66666666666667 15.0 L 119.0 14.0 L 118.0 13.333333333333334 L 117.0 13.0 L 116.0 12.666666666666666 L 115.0 12.333333333333334 L 114.0 12.0 L 113.0 12.0 L 112.0 12.0 L 111.0 12.0 L 110.0 12.333333333333334 L 109.0 12.666666666666666 L 108.0 13.0 L 107.0 13.0 L 106.0 13.0 L 105.0 13.0 L 104.0 13.333333333333334 L 103.0 13.666666666666666 L 102.0 14.0 L 101.0 14.0 L 100.0 14.333333333333334 L 99.0 14.666666666666666 L 98.0 15.0 L 97.0 15.333333333333334 L 96.0 15.666666666666666 L 95.0 16.0 L 94.0 16.333333333333332 L 93.0 16.666666666666668 L 92.0 17.333333333333332 L 91.0 17.666666666666668 L 90.0 18.333333333333332 L 89.0 18.666666666666668 L 88.0 19.333333333333332 L 87.0 19.666666666666668 L 86.0 20.333333333333332 L 85.0 21.0 L 84.0 21.666666666666668 L 83.0 22.333333333333332 L 82.0 23.0 L 81.0 24.0 L 80.0 25.0 L 79.0 26.0 L 78.0 27.0 L 77.0 28.0 L 76.0 29.0 L 75.0 30.0 L 74.0 30.666666666666668 L 73.0 30.666666666666668 L 72.0 30.333333333333332 L 71.0 30.0 L 70.0 29.666666666666668 L 69.0 29.333333333333332 L 68.0 29.0 L 67.0 29.0 L 66.0 29.0 L 65.0 29.0 L 64.0 29.0 L 63.0 29.0 L 62.0 29.0 L 61.0 29.0 L 60.0 29.333333333333332 L 59.0 29.666666666666668 L 58.0 30.0 L 57.0 30.333333333333332 L 56.0 30.666666666666668 L 55.0 30.666666666666668 L 54.0 30.0 L 53.0 29.0 L 52.0 28.0 L 51.333333333333336 27.0 L 50.666666666666664 26.0 L 50.0 25.0 L 49.0 24.333333333333332 L 48.0 23.666666666666668 L 47.0 23.0 L 46.0 22.0 L 45.0 21.333333333333332 L 44.0 20.666666666666668 L 43.0 20.333333333333332 L 42.0 19.666666666666668 L 41.0 19.333333333333332 L 40.0 18.666666666666668 L 39.0 18.333333333333332 L 38.0 18.0 L 37.0 17.666666666666668 L 36.0 17.333333333333332 L 35.0 17.0 L 34.0 16.666666666666668 L 33.0 16.333333333333332 L 32.0 16.0 L 31.0 15.666666666666666 L 30.0 15.333333333333334 L 29.0 15.0 L 28.0 15.0 L 27.0 14.666666666666666 L 26.0 14.333333333333334 L 25.0 14.0 L 24.0 14.0 L 23.0 14.0 L 22.0 14.0 L 21.0 14.0 L 20.0 13.666666666666666 L 19.0 13.333333333333334 L 18.0 13.0 L 17.0 13.0 L 16.0 13.0 L 15.0 13.0 L 14.0 13.0 L 13.0 13.0 L 12.0 13.0 L 11.0 13.333333333333334 L 10.0 13.666666666666666 L 9.0 14.0 L 8.333333333333334 14.333333333333334 L 7.666666666666667 15.0 L 7.0 16.0 L 6.333333333333333 17.0 L 6.0 18.0 L 5.666666666666667 19.0 L 5.333333333333333 20.0 L 5.0 21.0 L 4.666666666666667 22.0 L 4.333333333333333 23.0 L 4.0 24.0 L 4.0 25.0 L 4.0 26.0 L 3.6666666666666665 27.0 L 3.3333333333333335 28.0 L 3.0 29.0 L 3.0 30.0 L 3.0 31.0 L 3.0 32.0 L 3.0 33.0 L 3.0 34.0 L 3.0 35.0 L 3.0 36.0 L 3.0 37.0 L 3.0 38.0 L 3.0 39.0 L 3.0 40.0 L 3.0 41.0 L 3.0 42.0 L 3.0 43.0 L 3.0 44.0 L 3.0 45.0 L 3.0 46.0 L 3.0 47.0 L 3.0 48.0 L 3.0 49.0 L 3.0 50.0 L 3.0 51.0 L 3.0 52.0 L 3.3333333333333335 53.0 L 3.6666666666666665 54.0 L 4.0 55.0 L 4.0 56.0 L 4.333333333333333 57.0 L 4.666666666666667 58.0 L 5.0 59.0 L 5.333333333333333 60.0 L 5.666666666666667 61.0 L 6.333333333333333 62.0 L 6.666666666666667 63.0 L 7.333333333333333 64.0 L 8.0 65.0 L 9.0 65.66666666666667 L 10.0 66.33333333333333 L 11.0 66.66666666666667 L 12.0 67.33333333333333 L 13.0 67.66666666666667 L 14.0 68.0 L 15.0 68.0 L 15.666666666666666 67.66666666666667 L 16.0 67.0 L 16.0 66.0 L 16.0 65.0 L 15.666666666666666 64.0 L 15.333333333333334 63.0 L 15.333333333333334 62.0 L 16.0 61.0 L 17.0 60.333333333333336 L 18.0 59.666666666666664 L 19.0 59.333333333333336 L 20.0 58.666666666666664 L 20.5 58.5 Z" stroke="none" fill="rgb(255,96,94)" />
<path d="M 88.5 63.0 L 89.0 63.0 L 90.0 63.333333333333336 L 91.0 63.666666666666664 L 92.0 64.0 L 93.0 64.33333333333333 L 94.0 64.66666666666667 L 95.0 65.0 L 96.0 65.33333333333333 L 97.0 65.66666666666667 L 98.0 66.33333333333333 L 99.0 66.66666666666667 L 100.0 67.33333333333333 L 101.0 67.66666666666667 L 102.0 68.0 L 103.0 68.0 L 104.0 68.0 L 105.0 68.0 L 106.0 68.0 L 107.0 68.0 L 108.0 68.33333333333333 L 109.0 68.66666666666667 L 110.0 69.0 L 111.0 69.0 L 112.0 69.0 L 113.0 69.0 L 114.0 69.0 L 115.0 69.0 L 116.0 69.0 L 117.0 69.0 L 117.66666666666667 68.66666666666667 L 118.0 68.0 L 118.0 67.0 L 118.0 66.0 L 118.0 65.0 L 118.0 64.0 L 118.0 63.0 L 118.0 62.0 L 117.66666666666667 61.0 L 117.0 60.0 L 116.0 59.0 L 115.0 58.0 L 114.0 57.333333333333336 L 113.0 57.0 L 112.0 57.0 L 111.0 57.0 L 110.0 57.0 L 109.0 57.0 L 108.0 57.0 L 107.0 57.0 L 106.0 57.0 L 105.0 57.0 L 104.0 57.0 L 103.0 57.0 L 102.0 57.0 L 101.0 57.0 L 100.0 57.0 L 99.0 57.0 L 98.0 57.0 L 97.0 57.0 L 96.0 57.0 L 95.0 57.0 L 94.0 57.0 L 93.0 57.0 L 92.0 57.0 L 91.0 56.666666666666664 L 90.0 56.333333333333336 L 89.0 56.0 L 88.0 56.0 L 87.0 56.0 L 86.0 56.0 L 85.0 56.0 L 84.0 55.666666666666664 L 83.0 55.333333333333336 L 82.0 54.666666666666664 L 81.0 54.0 L 80.33333333333333 53.0 L 80.0 52.0 L 80.0 51.0 L 80.0 50.0 L 80.0 49.0 L 80.33333333333333 48.0 L 81.0 47.333333333333336 L 82.0 46.666666666666664 L 83.0 46.333333333333336 L 84.0 45.666666666666664 L 85.0 45.333333333333336 L 86.0 44.666666666666664 L 87.0 44.333333333333336 L 88.0 43.666666666666664 L 89.0 43.333333333333336 L 90.0 43.0 L 91.0 43.0 L 92.0 42.666666666666664 L 93.0 42.333333333333336 L 94.0 42.0 L 95.0 42.0 L 96.0 41.666666666666664 L 97.0 41.333333333333336 L 98.0 41.0 L 99.0 41.0 L 100.0 40.666666666666664 L 101.0 40.0 L 102.0 39.0 L 103.0 38.0 L 103.66666666666667 37.0 L 104.0 36.0 L 104.0 35.0 L 103.66666666666667 34.0 L 103.0 33.0 L 102.0 32.333333333333336 L 101.0 32.0 L 100.0 32.0 L 99.0 32.0 L 98.0 32.0 L 97.0 32.0 L 96.0 32.333333333333336 L 95.0 32.666666666666664 L 94.0 33.0 L 93.0 33.0 L 92.0 33.333333333333336 L 91.0 33.666666666666664 L 90.0 34.0 L 89.0 34.333333333333336 L 88.0 34.666666666666664 L 87.0 35.0 L 86.0 35.333333333333336 L 85.0 36.0 L 84.0 36.666666666666664 L 83.0 37.333333333333336 L 82.0 38.0 L 81.0 38.666666666666664 L 80.0 38.666666666666664 L 79.0 38.0 L 78.0 37.0 L 77.0 36.333333333333336 L 76.0 36.0 L 75.33333333333333 36.333333333333336 L 75.0 37.0 L 75.0 38.0 L 75.0 39.0 L 75.0 40.0 L 75.0 41.0 L 75.0 42.0 L 75.0 43.0 L 75.0 44.0 L 75.0 45.0 L 74.66666666666667 46.0 L 74.33333333333333 47.0 L 74.0 48.0 L 74.0 49.0 L 73.66666666666667 50.0 L 73.33333333333333 51.0 L 72.66666666666667 52.0 L 72.33333333333333 53.0 L 72.0 54.0 L 71.66666666666667 55.0 L 71.33333333333333 56.0 L 71.0 57.0 L 71.33333333333333 57.666666666666664 L 72.0 58.0 L 73.0 58.0 L 74.0 58.0 L 75.0 58.0 L 76.0 58.0 L 77.0 58.0 L 78.0 58.333333333333336 L 79.0 58.666666666666664 L 80.0 59.333333333333336 L 81.0 59.666666666666664 L 82.0 60.333333333333336 L 83.0 60.666666666666664 L 84.0 61.0 L 85.0 61.333333333333336 L 86.0 61.666666666666664 L 87.0 62.333333333333336 L 87.5 62.5 Z" stroke="none" fill="rgb(220,13,40)" />
<path d="M 57.5 57.0 L 57.666666666666664 56.666666666666664 L 58.0 56.0 L 57.666666666666664 55.0 L 57.333333333333336 54.0 L 56.666666666666664 53.0 L 56.333333333333336 52.0 L 55.666666666666664 51.0 L 55.333333333333336 50.0 L 55.0 49.0 L 55.0 48.0 L 54.666666666666664 47.0 L 54.333333333333336 46.0 L 54.0 45.0 L 54.0 44.0 L 54.0 43.0 L 54.0 42.0 L 54.0 41.0 L 54.0 40.0 L 54.0 39.0 L 54.0 38.0 L 54.0 37.0 L 54.0 36.0 L 53.666666666666664 35.333333333333336 L 53.0 35.0 L 52.333333333333336 35.333333333333336 L 51.666666666666664 36.0 L 51.333333333333336 37.0 L 50.666666666666664 38.0 L 50.0 38.666666666666664 L 49.0 38.666666666666664 L 48.0 38.333333333333336 L 47.0 37.666666666666664 L 46.0 37.333333333333336 L 45.0 36.666666666666664 L 44.0 36.0 L 43.0 35.333333333333336 L 42.0 34.666666666666664 L 41.0 34.333333333333336 L 40.0 34.0 L 39.0 33.666666666666664 L 38.0 33.333333333333336 L 37.0 33.0 L 36.0 33.0 L 35.0 33.0 L 34.0 33.0 L 33.0 33.0 L 32.0 33.333333333333336 L 31.0 33.666666666666664 L 30.0 34.333333333333336 L 29.0 35.0 L 28.333333333333332 36.0 L 28.0 37.0 L 28.0 38.0 L 28.0 39.0 L 28.333333333333332 40.0 L 29.0 41.0 L 30.0 42.0 L 31.0 42.666666666666664 L 32.0 43.0 L 33.0 43.0 L 34.0 43.333333333333336 L 35.0 43.666666666666664 L 36.0 44.0 L 37.0 44.0 L 38.0 44.0 L 39.0 44.0 L 40.0 44.0 L 41.0 44.333333333333336 L 42.0 44.666666666666664 L 43.0 45.0 L 44.0 45.0 L 45.0 45.0 L 46.0 45.333333333333336 L 47.0 45.666666666666664 L 48.0 46.333333333333336 L 49.0 47.0 L 49.666666666666664 48.0 L 50.0 49.0 L 50.0 50.0 L 50.0 51.0 L 50.333333333333336 52.0 L 50.333333333333336 53.0 L 50.0 54.0 L 49.0 55.0 L 48.0 55.666666666666664 L 47.0 56.0 L 46.0 56.0 L 45.0 56.333333333333336 L 44.0 56.666666666666664 L 43.0 57.0 L 42.0 57.0 L 41.0 57.0 L 40.0 57.0 L 39.0 57.0 L 38.0 57.0 L 37.0 57.0 L 36.0 57.0 L 35.0 57.0 L 34.0 57.0 L 33.0 57.0 L 32.0 57.0 L 31.0 57.0 L 30.0 57.0 L 29.0 57.0 L 28.0 57.0 L 27.0 57.333333333333336 L 26.0 57.666666666666664 L 25.0 58.0 L 24.0 58.0 L 23.0 58.0 L 22.0 58.0 L 21.0 58.0 L 20.0 58.333333333333336 L 19.0 58.666666666666664 L 18.0 59.333333333333336 L 17.0 59.666666666666664 L 16.0 60.333333333333336 L 15.333333333333334 61.0 L 15.0 62.0 L 15.0 63.0 L 15.333333333333334 64.0 L 15.666666666666666 65.0 L 16.0 66.0 L 16.0 67.0 L 16.333333333333332 67.66666666666667 L 17.0 68.0 L 18.0 68.0 L 19.0 68.0 L 20.0 68.0 L 21.0 67.66666666666667 L 22.0 67.33333333333333 L 23.0 67.0 L 24.0 67.0 L 25.0 67.0 L 26.0 66.66666666666667 L 27.0 66.33333333333333 L 28.0 66.0 L 29.0 66.0 L 30.0 66.0 L 31.0 66.0 L 32.0 65.66666666666667 L 33.0 65.0 L 34.0 64.33333333333333 L 35.0 64.0 L 36.0 63.666666666666664 L 37.0 63.333333333333336 L 38.0 63.0 L 39.0 62.666666666666664 L 40.0 62.333333333333336 L 41.0 62.0 L 42.0 61.666666666666664 L 43.0 61.333333333333336 L 44.0 61.0 L 45.0 60.666666666666664 L 46.0 60.333333333333336 L 47.0 59.666666666666664 L 48.0 59.333333333333336 L 49.0 59.0 L 50.0 58.666666666666664 L 51.0 58.333333333333336 L 52.0 58.0 L 53.0 57.666666666666664 L 54.0 57.333333333333336 L 55.0 57.0 L 56.0 57.0 L 56.5 57.0 Z" stroke="none" fill="rgb(220,13,40)" />
<path d="M 65.5 39.5 L 66.0 39.333333333333336 L 67.0 38.666666666666664 L 68.0 38.0 L 68.66666666666667 37.0 L 69.0 36.0 L 68.66666666666667 35.0 L 68.0 34.333333333333336 L 67.0 34.0 L 66.0 34.0 L 65.0 34.0 L 64.0 34.0 L 63.0 34.0 L 62.0 34.0 L 61.0 34.333333333333336 L 60.0 35.0 L 59.0 36.0 L 58.333333333333336 37.0 L 58.0 38.0 L 58.0 39.0 L 58.0 40.0 L 58.0 41.0 L 58.0 42.0 L 58.0 43.0 L 58.333333333333336 44.0 L 59.0 44.666666666666664 L 60.0 45.0 L 61.0 44.666666666666664 L 61.666666666666664 44.0 L 62.333333333333336 43.0 L 63.0 42.0 L 64.0 41.0 L 64.5 40.5 Z" stroke="none" fill="rgb(252,196,191)" />
<path d="M 59.0 67.5 L 59.0 67.0 L 59.333333333333336 66.0 L 59.666666666666664 65.0 L 60.0 64.0 L 60.0 63.0 L 60.333333333333336 62.0 L 60.666666666666664 61.0 L 61.0 60.0 L 60.666666666666664 59.0 L 60.0 58.333333333333336 L 59.0 57.666666666666664 L 58.0 57.333333333333336 L 57.0 57.0 L 56.0 57.0 L 55.0 57.0 L 54.0 57.0 L 53.0 57.333333333333336 L 52.0 57.666666666666664 L 51.0 58.0 L 50.0 58.333333333333336 L 49.0 58.666666666666664 L 48.0 59.0 L 47.0 59.333333333333336 L 46.0 59.666666666666664 L 45.0 60.333333333333336 L 44.0 60.666666666666664 L 43.0 61.0 L 42.0 61.333333333333336 L 41.0 61.666666666666664 L 40.0 62.0 L 39.0 62.333333333333336 L 38.0 62.666666666666664 L 37.0 63.0 L 36.0 63.333333333333336 L 35.0 63.666666666666664 L 34.0 64.0 L 33.0 64.33333333333333 L 32.0 65.0 L 31.0 66.0 L 30.0 67.0 L 29.333333333333332 68.0 L 29.333333333333332 69.0 L 30.0 69.66666666666667 L 31.0 70.0 L 32.0 70.0 L 33.0 70.0 L 34.0 69.66666666666667 L 35.0 69.33333333333333 L 36.0 69.0 L 37.0 69.33333333333333 L 37.666666666666664 70.0 L 38.0 71.0 L 37.666666666666664 72.0 L 37.0 73.0 L 36.333333333333336 74.0 L 35.666666666666664 75.0 L 35.333333333333336 76.0 L 34.666666666666664 77.0 L 34.333333333333336 78.0 L 33.666666666666664 79.0 L 33.333333333333336 80.0 L 32.666666666666664 81.0 L 32.333333333333336 82.0 L 32.0 83.0 L 32.0 84.0 L 32.0 85.0 L 32.0 86.0 L 32.333333333333336 86.66666666666667 L 33.0 87.0 L 33.666666666666664 86.66666666666667 L 34.333333333333336 86.0 L 35.0 85.0 L 35.666666666666664 84.0 L 36.333333333333336 83.0 L 36.666666666666664 82.0 L 37.333333333333336 81.0 L 37.666666666666664 80.0 L 38.333333333333336 79.0 L 39.0 78.0 L 39.666666666666664 77.0 L 40.333333333333336 76.0 L 41.0 75.0 L 42.0 74.0 L 43.0 73.0 L 44.0 72.0 L 45.0 71.0 L 46.0 70.33333333333333 L 47.0 70.0 L 48.0 70.0 L 49.0 70.0 L 50.0 70.0 L 51.0 70.33333333333333 L 52.0 70.66666666666667 L 53.0 71.33333333333333 L 54.0 72.0 L 55.0 72.66666666666667 L 56.0 73.0 L 56.666666666666664 72.66666666666667 L 57.333333333333336 72.0 L 57.666666666666664 71.0 L 58.0 70.0 L 58.333333333333336 69.0 L 58.5 68.5 Z" stroke="none" fill="rgb(175,12,26)" />
<path d="M 77.5 73.5 L 78.0 73.0 L 79.0 72.33333333333333 L 80.0 72.0 L 81.0 71.66666666666667 L 82.0 71.33333333333333 L 83.0 71.0 L 84.0 71.33333333333333 L 85.0 72.0 L 86.0 73.0 L 87.0 74.0 L 87.66666666666667 75.0 L 88.33333333333333 76.0 L 88.66666666666667 77.0 L 89.33333333333333 78.0 L 89.66666666666667 79.0 L 90.33333333333333 80.0 L 91.0 81.0 L 91.66666666666667 82.0 L 92.33333333333333 83.0 L 93.0 84.0 L 94.0 84.66666666666667 L 94.66666666666667 84.66666666666667 L 95.0 84.0 L 95.0 83.0 L 95.0 82.0 L 95.0 81.0 L 95.0 80.0 L 94.66666666666667 79.0 L 94.33333333333333 78.0 L 93.66666666666667 77.0 L 93.33333333333333 76.0 L 93.0 75.0 L 92.66666666666667 74.0 L 92.33333333333333 73.0 L 92.33333333333333 72.0 L 93.0 71.33333333333333 L 94.0 71.0 L 95.0 71.0 L 96.0 71.0 L 97.0 71.0 L 98.0 71.0 L 99.0 71.0 L 100.0 71.33333333333333 L 101.0 71.66666666666667 L 102.0 72.33333333333333 L 103.0 72.66666666666667 L 104.0 73.0 L 104.66666666666667 72.66666666666667 L 104.66666666666667 72.0 L 104.0 71.0 L 103.0 70.0 L 102.33333333333333 69.0 L 101.66666666666667 68.0 L 101.0 67.33333333333333 L 100.0 66.66666666666667 L 99.0 66.33333333333333 L 98.0 65.66666666666667 L 97.0 65.33333333333333 L 96.0 65.0 L 95.0 64.66666666666667 L 94.0 64.33333333333333 L 93.0 64.0 L 92.0 63.666666666666664 L 91.0 63.333333333333336 L 90.0 63.0 L 89.0 62.666666666666664 L 88.0 62.333333333333336 L 87.0 61.666666666666664 L 86.0 61.333333333333336 L 85.0 61.0 L 84.0 60.666666666666664 L 83.0 60.333333333333336 L 82.0 59.666666666666664 L 81.0 59.333333333333336 L 80.0 58.666666666666664 L 79.0 58.333333333333336 L 78.0 58.0 L 77.0 58.0 L 76.0 58.0 L 75.0 58.0 L 74.0 58.0 L 73.0 58.0 L 72.0 58.0 L 71.0 58.0 L 70.33333333333333 58.333333333333336 L 70.0 59.0 L 70.33333333333333 60.0 L 70.66666666666667 61.0 L 71.0 62.0 L 71.0 63.0 L 71.33333333333333 64.0 L 71.66666666666667 65.0 L 72.0 66.0 L 72.0 67.0 L 72.33333333333333 68.0 L 72.66666666666667 69.0 L 73.0 70.0 L 73.33333333333333 71.0 L 73.66666666666667 72.0 L 74.33333333333333 73.0 L 75.0 73.66666666666667 L 76.0 74.0 L 76.5 74.0 Z" stroke="none" fill="rgb(175,12,26)" />
<path d="M 24.5 96.0 L 25.0 96.0 L 26.0 95.66666666666667 L 27.0 95.33333333333333 L 28.0 95.0 L 29.0 95.33333333333333 L 29.666666666666668 96.0 L 30.333333333333332 97.0 L 30.666666666666668 98.0 L 31.333333333333332 99.0 L 31.666666666666668 100.0 L 32.0 101.0 L 32.333333333333336 102.0 L 32.666666666666664 103.0 L 33.0 104.0 L 33.333333333333336 105.0 L 33.666666666666664 106.0 L 34.0 107.0 L 34.333333333333336 108.0 L 34.666666666666664 109.0 L 35.0 110.0 L 35.333333333333336 111.0 L 35.666666666666664 112.0 L 36.0 113.0 L 36.333333333333336 114.0 L 36.666666666666664 115.0 L 37.333333333333336 116.0 L 38.0 116.66666666666667 L 39.0 117.0 L 40.0 116.66666666666667 L 40.666666666666664 116.0 L 41.333333333333336 115.0 L 41.666666666666664 114.0 L 42.333333333333336 113.0 L 42.666666666666664 112.0 L 43.0 111.0 L 43.333333333333336 110.0 L 43.666666666666664 109.0 L 44.333333333333336 108.0 L 44.666666666666664 107.0 L 45.0 106.0 L 45.333333333333336 105.0 L 45.666666666666664 104.0 L 46.0 103.0 L 46.333333333333336 102.0 L 46.666666666666664 101.0 L 47.0 100.0 L 47.333333333333336 99.0 L 47.666666666666664 98.0 L 48.333333333333336 97.0 L 48.666666666666664 96.0 L 49.0 95.0 L 49.333333333333336 94.0 L 49.666666666666664 93.0 L 50.0 92.0 L 50.333333333333336 91.0 L 50.666666666666664 90.0 L 51.0 89.0 L 51.333333333333336 88.0 L 51.666666666666664 87.0 L 52.0 86.0 L 52.333333333333336 85.0 L 52.666666666666664 84.0 L 53.333333333333336 83.0 L 53.666666666666664 82.0 L 54.0 81.0 L 54.333333333333336 80.0 L 54.666666666666664 79.0 L 55.0 78.0 L 55.333333333333336 77.0 L 55.666666666666664 76.0 L 56.0 75.0 L 56.0 74.0 L 55.666666666666664 73.0 L 55.0 72.0 L 54.0 71.33333333333333 L 53.0 70.66666666666667 L 52.0 70.33333333333333 L 51.0 70.0 L 50.0 70.0 L 49.0 70.0 L 48.0 70.0 L 47.0 70.0 L 46.0 70.0 L 45.0 70.33333333333333 L 44.0 71.0 L 43.0 72.0 L 42.0 73.0 L 41.0 74.0 L 40.333333333333336 75.0 L 39.666666666666664 76.0 L 39.0 77.0 L 38.333333333333336 78.0 L 37.666666666666664 79.0 L 37.333333333333336 80.0 L 36.666666666666664 81.0 L 36.333333333333336 82.0 L 35.666666666666664 83.0 L 35.0 84.0 L 34.333333333333336 85.0 L 33.666666666666664 86.0 L 33.0 86.33333333333333 L 32.333333333333336 86.0 L 32.0 85.0 L 32.0 84.0 L 32.333333333333336 83.0 L 32.666666666666664 82.0 L 33.333333333333336 81.0 L 33.666666666666664 80.0 L 34.333333333333336 79.0 L 34.666666666666664 78.0 L 35.333333333333336 77.0 L 35.666666666666664 76.0 L 36.333333333333336 75.0 L 37.0 74.0 L 37.666666666666664 73.0 L 38.333333333333336 72.0 L 38.666666666666664 71.0 L 38.666666666666664 70.0 L 38.0 69.33333333333333 L 37.0 69.0 L 36.0 69.0 L 35.0 69.0 L 34.0 69.33333333333333 L 33.0 69.66666666666667 L 32.0 70.0 L 31.0 70.0 L 30.0 70.0 L 29.0 70.0 L 28.0 70.0 L 27.0 70.33333333333333 L 26.0 71.0 L 25.0 72.0 L 24.333333333333332 73.0 L 23.666666666666668 74.0 L 23.0 75.0 L 22.0 76.0 L 21.333333333333332 77.0 L 20.666666666666668 78.0 L 20.333333333333332 79.0 L 19.666666666666668 80.0 L 19.333333333333332 81.0 L 18.666666666666668 82.0 L 18.0 83.0 L 17.333333333333332 84.0 L 17.0 85.0 L 16.666666666666668 86.0 L 16.333333333333332 87.0 L 15.666666666666666 88.0 L 15.333333333333334 89.0 L 14.666666666666666 90.0 L 14.333333333333334 91.0 L 14.0 92.0 L 14.0 93.0 L 13.666666666666666 94.0 L 13.333333333333334 95.0 L 13.0 96.0 L 13.333333333333334 97.0 L 14.0 97.66666666666667 L 15.0 98.0 L 16.0 98.0 L 17.0 98.0 L 18.0 97.66666666666667 L 19.0 97.33333333333333 L 20.0 97.0 L 21.0 97.0 L 22.0 96.66666666666667 L 23.0 96.33333333333333 L 23.5 96.0 Z" stroke="none" fill="rgb(255,96,94)" />
<path d="M 95.0 110.5 L 95.33333333333333 110.0 L 95.66666666666667 109.0 L 96.33333333333333 108.0 L 96.66666666666667 107.0 L 97.0 106.0 L 97.33333333333333 105.0 L 97.66666666666667 104.0 L 98.33333333333333 103.0 L 98.66666666666667 102.0 L 99.33333333333333 101.0 L 100.0 100.0 L 101.0 99.33333333333333 L 102.0 99.0 L 103.0 99.0 L 104.0 99.0 L 105.0 99.0 L 106.0 99.0 L 107.0 99.0 L 108.0 99.0 L 109.0 99.0 L 110.0 99.0 L 111.0 99.0 L 112.0 99.0 L 113.0 99.0 L 114.0 99.0 L 115.0 99.0 L 116.0 99.0 L 117.0 99.0 L 118.0 98.66666666666667 L 118.66666666666667 98.0 L 119.0 97.0 L 118.66666666666667 96.0 L 118.33333333333333 95.0 L 117.66666666666667 94.0 L 117.33333333333333 93.0 L 116.66666666666667 92.0 L 116.33333333333333 91.0 L 115.66666666666667 90.0 L 115.33333333333333 89.0 L 114.66666666666667 88.0 L 114.33333333333333 87.0 L 113.66666666666667 86.0 L 113.33333333333333 85.0 L 112.66666666666667 84.0 L 112.0 83.0 L 111.33333333333333 82.0 L 110.66666666666667 81.0 L 110.33333333333333 80.0 L 109.66666666666667 79.0 L 109.0 78.0 L 108.33333333333333 77.0 L 107.66666666666667 76.0 L 107.0 75.0 L 106.33333333333333 74.0 L 105.66666666666667 73.33333333333333 L 105.0 73.0 L 104.0 72.66666666666667 L 103.0 72.33333333333333 L 102.0 71.66666666666667 L 101.0 71.33333333333333 L 100.0 71.0 L 99.0 71.0 L 98.0 71.0 L 97.0 71.0 L 96.0 71.0 L 95.0 71.0 L 94.0 71.0 L 93.0 71.0 L 92.33333333333333 71.33333333333333 L 92.0 72.0 L 92.0 73.0 L 92.33333333333333 74.0 L 92.66666666666667 75.0 L 93.0 76.0 L 93.33333333333333 77.0 L 93.66666666666667 78.0 L 94.33333333333333 79.0 L 94.66666666666667 80.0 L 95.0 81.0 L 95.0 82.0 L 94.66666666666667 83.0 L 94.0 83.33333333333333 L 93.0 83.0 L 92.33333333333333 82.0 L 91.66666666666667 81.0 L 91.0 80.0 L 90.33333333333333 79.0 L 89.66666666666667 78.0 L 89.33333333333333 77.0 L 88.66666666666667 76.0 L 88.33333333333333 75.0 L 87.66666666666667 74.0 L 87.0 73.0 L 86.0 72.0 L 85.0 71.33333333333333 L 84.0 71.0 L 83.0 71.0 L 82.0 71.0 L 81.0 71.33333333333333 L 80.0 71.66666666666667 L 79.0 72.0 L 78.0 72.33333333333333 L 77.0 73.0 L 76.0 73.66666666666667 L 75.33333333333333 74.33333333333333 L 75.0 75.0 L 75.0 76.0 L 75.0 77.0 L 75.33333333333333 78.0 L 75.66666666666667 79.0 L 76.0 80.0 L 76.0 81.0 L 76.33333333333333 82.0 L 76.66666666666667 83.0 L 77.0 84.0 L 77.33333333333333 85.0 L 77.66666666666667 86.0 L 78.0 87.0 L 78.33333333333333 88.0 L 78.66666666666667 89.0 L 79.0 90.0 L 79.33333333333333 91.0 L 79.66666666666667 92.0 L 80.0 93.0 L 80.0 94.0 L 80.33333333333333 95.0 L 80.66666666666667 96.0 L 81.0 97.0 L 81.33333333333333 98.0 L 81.66666666666667 99.0 L 82.0 100.0 L 82.33333333333333 101.0 L 82.66666666666667 102.0 L 83.0 103.0 L 83.33333333333333 104.0 L 83.66666666666667 105.0 L 84.0 106.0 L 84.33333333333333 107.0 L 84.66666666666667 108.0 L 85.0 109.0 L 85.33333333333333 110.0 L 85.66666666666667 111.0 L 86.0 112.0 L 86.33333333333333 113.0 L 86.66666666666667 114.0 L 87.33333333333333 115.0 L 87.66666666666667 116.0 L 88.0 117.0 L 88.33333333333333 118.0 L 89.0 118.66666666666667 L 90.0 119.0 L 91.0 118.66666666666667 L 91.66666666666667 118.0 L 92.33333333333333 117.0 L 92.66666666666667 116.0 L 93.33333333333333 115.0 L 93.66666666666667 114.0 L 94.0 113.0 L 94.33333333333333 112.0 L 94.5 111.5 Z" stroke="none" fill="rgb(255,96,94)" />
<path d="M 24.5 100.5 L 25.0 100.33333333333333 L 26.0 100.33333333333333 L 26.666666666666668 101.0 L 27.0 102.0 L 27.333333333333332 103.0 L 27.666666666666668 104.0 L 28.0 105.0 L 28.333333333333332 106.0 L 28.666666666666668 107.0 L 29.333333333333332 108.0 L 29.666666666666668 109.0 L 30.0 110.0 L 30.333333333333332 111.0 L 30.666666666666668 112.0 L 31.0 113.0 L 31.333333333333332 114.0 L 31.666666666666668 115.0 L 32.333333333333336 116.0 L 32.666666666666664 117.0 L 33.333333333333336 118.0 L 34.0 119.0 L 35.0 119.66666666666667 L 36.0 120.0 L 37.0 120.0 L 38.0 120.0 L 38.666666666666664 119.66666666666667 L 39.0 119.0 L 39.0 118.0 L 38.666666666666664 117.0 L 38.0 116.0 L 37.333333333333336 115.0 L 36.666666666666664 114.0 L 36.333333333333336 113.0 L 36.0 112.0 L 35.666666666666664 111.0 L 35.333333333333336 110.0 L 35.0 109.0 L 34.666666666666664 108.0 L 34.333333333333336 107.0 L 34.0 106.0 L 33.666666666666664 105.0 L 33.333333333333336 104.0 L 33.0 103.0 L 32.666666666666664 102.0 L 32.333333333333336 101.0 L 32.0 100.0 L 31.666666666666668 99.0 L 31.333333333333332 98.0 L 30.666666666666668 97.0 L 30.333333333333332 96.0 L 29.666666666666668 95.33333333333333 L 29.0 95.0 L 28.0 95.0 L 27.0 95.0 L 26.0 95.33333333333333 L 25.0 95.66666666666667 L 24.0 96.0 L 23.0 96.0 L 22.0 96.33333333333333 L 21.0 96.66666666666667 L 20.0 97.0 L 19.0 97.0 L 18.0 97.33333333333333 L 17.0 97.66666666666667 L 16.0 98.0 L 15.0 98.0 L 14.0 98.0 L 13.333333333333334 98.33333333333333 L 13.0 99.0 L 13.0 100.0 L 13.0 101.0 L 13.333333333333334 101.66666666666667 L 14.0 102.0 L 15.0 102.0 L 16.0 102.0 L 17.0 102.0 L 18.0 102.0 L 19.0 102.0 L 20.0 101.66666666666667 L 21.0 101.33333333333333 L 22.0 101.0 L 23.0 101.0 L 23.5 101.0 Z" stroke="none" fill="rgb(220,13,40)" />
<path d="M 95.0 120.5 L 95.33333333333333 120.0 L 95.66666666666667 119.0 L 96.33333333333333 118.0 L 96.66666666666667 117.0 L 97.33333333333333 116.0 L 97.66666666666667 115.0 L 98.33333333333333 114.0 L 98.66666666666667 113.0 L 99.33333333333333 112.0 L 99.66666666666667 111.0 L 100.33333333333333 110.0 L 100.66666666666667 109.0 L 101.0 108.0 L 101.33333333333333 107.0 L 101.66666666666667 106.0 L 102.33333333333333 105.0 L 103.0 104.0 L 104.0 103.33333333333333 L 105.0 103.0 L 106.0 103.0 L 107.0 103.0 L 108.0 103.0 L 109.0 103.0 L 110.0 103.0 L 111.0 103.0 L 112.0 103.0 L 113.0 103.0 L 114.0 103.0 L 115.0 103.0 L 116.0 103.0 L 117.0 102.66666666666667 L 118.0 102.33333333333333 L 119.0 102.0 L 119.66666666666667 101.66666666666667 L 120.0 101.0 L 120.0 100.0 L 120.0 99.0 L 119.66666666666667 98.33333333333333 L 119.0 98.0 L 118.0 98.33333333333333 L 117.0 98.66666666666667 L 116.0 99.0 L 115.0 99.0 L 114.0 99.0 L 113.0 99.0 L 112.0 99.0 L 111.0 99.0 L 110.0 99.0 L 109.0 99.0 L 108.0 99.0 L 107.0 99.0 L 106.0 99.0 L 105.0 99.0 L 104.0 99.0 L 103.0 99.0 L 102.0 99.0 L 101.0 99.0 L 100.0 99.33333333333333 L 99.33333333333333 100.0 L 98.66666666666667 101.0 L 98.33333333333333 102.0 L 97.66666666666667 103.0 L 97.33333333333333 104.0 L 97.0 105.0 L 96.66666666666667 106.0 L 96.33333333333333 107.0 L 95.66666666666667 108.0 L 95.33333333333333 109.0 L 94.66666666666667 110.0 L 94.33333333333333 111.0 L 94.0 112.0 L 93.66666666666667 113.0 L 93.33333333333333 114.0 L 92.66666666666667 115.0 L 92.33333333333333 116.0 L 91.66666666666667 117.0 L 91.0 118.0 L 90.33333333333333 119.0 L 90.0 120.0 L 90.33333333333333 120.66666666666667 L 91.0 121.0 L 92.0 121.0 L 93.0 121.0 L 94.0 121.0 L 94.5 121.0 Z" stroke="none" fill="rgb(220,13,40)" />
</svg>
