<?xml version="1.0" encoding="UTF-8" standalone="no"?>
<!DOCTYPE svg PUBLIC "-//W3C//DTD SVG 1.1//EN"
"http://www.w3.org/Graphics/SVG/1.1/DTD/svg11.dtd">
<svg width="128" height="128" xmlns="http://www.w3.org/2000/svg" version="1.1">
<path d="M 108.5 128.0 L 109.0 128.0 L 110.0 128.0 L 111.0 128.0 L 112.0 128.0 L 113.0 128.0 L 114.0 128.0 L 115.0 128.0 L 116.0 128.0 L 117.0 128.0 L 118.0 128.0 L 119.0 128.0 L 120.0 128.0 L 121.0 128.0 L 122.0 128.0 L 123.0 128.0 L 124.0 128.0 L 125.0 128.0 L 126.0 128.0 L 127.0 128.0 L 127.66666666666667 127.66666666666667 L 128.0 127.0 L 128.0 126.0 L 128.0 125.0 L 128.0 124.0 L 128.0 123.0 L 128.0 122.0 L 128.0 121.0 L 128.0 120.0 L 128.0 119.0 L 128.0 118.0 L 128.0 117.0 L 128.0 116.0 L 128.0 115.0 L 128.0 114.0 L 128.0 113.0 L 128.0 112.0 L 128.0 111.0 L 128.0 110.0 L 128.0 109.0 L 128.0 108.0 L 128.0 107.0 L 128.0 106.0 L 128.0 105.0 L 128.0 104.0 L 128.0 103.0 L 128.0 102.0 L 128.0 101.0 L 128.0 100.0 L 128.0 99.0 L 128.0 98.0 L 128.0 97.0 L 128.0 96.0 L 128.0 95.0 L 128.0 94.0 L 128.0 93.0 L 128.0 92.0 L 128.0 91.0 L 128.0 90.0 L 128.0 89.0 L 128.0 88.0 L 128.0 87.0 L 128.0 86.0 L 128.0 85.0 L 128.0 84.0 L 128.0 83.0 L 128.0 82.0 L 128.0 81.0 L 128.0 80.0 L 128.0 79.0 L 128.0 78.0 L 128.0 77.0 L 128.0 76.0 L 128.0 75.0 L 128.0 74.0 L 128.0 73.0 L 128.0 72.0 L 128.0 71.0 L 128.0 70.0 L 128.0 69.0 L 128.0 68.0 L 128.0 67.0 L 128.0 66.0 L 128.0 65.0 L 128.0 64.0 L 128.0 63.0 L 128.0 62.0 L 128.0 61.0 L 128.0 60.0 L 128.0 59.0 L 128.0 58.0 L 128.0 57.0 L 128.0 56.0 L 128.0 55.0 L 128.0 54.0 L 128.0 53.0 L 128.0 52.0 L 128.0 51.0 L 128.0 50.0 L 128.0 49.0 L 128.0 48.0 L 128.0 47.0 L 128.0 46.0 L 128.0 45.0 L 128.0 44.0 L 128.0 43.0 L 128.0 42.0 L 128.0 41.0 L 128.0 40.0 L 128.0 39.0 L 128.0 38.0 L 128.0 37.0 L 128.0 36.0 L 128.0 35.0 L 128.0 34.0 L 128.0 33.0 L 128.0 32.0 L 128.0 31.0 L 128.0 30.0 L 128.0 29.0 L 128.0 28.0 L 128.0 27.0 L 128.0 26.0 L 128.0 25.0 L 128.0 24.0 L 128.0 23.0 L 128.0 22.0 L 128.0 21.0 L 128.0 20.0 L 128.0 19.0 L 128.0 18.0 L 128.0 17.0 L 128.0 16.0 L 128.0 15.0 L 128.0 14.0 L 128.0 13.0 L 128.0 12.0 L 128.0 11.0 L 128.0 10.0 L 128.0 9.0 L 128.0 8.0 L 128.0 7.0 L 128.0 6.0 L 128.0 5.0 L 128.0 4.0 L 128.0 3.0 L 128.0 2.0 L 128.0 1.0 L 127.66666666666667 0.3333333333333333 L 127.0 0.0 L 126.0 0.0 L 125.0 0.0 L 124.0 0.0 L 123.0 0.0 L 122.0 0.0 L 121.0 0.0 L 120.0 0.0 L 119.0 0.0 L 118.0 0.0 L 117.0 0.0 L 116.0 0.0 L 115.0 0.0 L 114.0 0.0 L 113.0 0.0 L 112.0 0.0 L 111.0 0.0 L 110.0 0.0 L 109.0 0.0 L 108.0 0.0 L 107.0 0.0 L 106.0 0.0 L 105.0 0.0 L 104.0 0.0 L 103.0 0.0 L 102.0 0.0 L 101.0 0.0 L 100.0 0.0 L 99.0 0.0 L 98.0 0.0 L 97.0 0.0 L 96.0 0.0 L 95.0 0.0 L 94.0 0.0 L 93.0 0.0 L 92.0 0.0 L 91.0 0.0 L 90.0 0.0 L 89.0 0.0 L 88.0 0.0 L 87.0 0.0 L 86.0 0.0 L 85.0 0.0 L 84.0 0.0 L 83.0 0.0 L 82.0 0.0 L 81.0 0.0 L 80.0 0.0 L 79.0 0.0 L 78.0 0.0 L 77.0 0.0 L 76.0 0.0 L 75.0 0.0 L 74.0 0.0 L 73.0 0.0 L 72.0 0.0 L 71.0 0.0 L 70.0 0.0 L 69.0 0.0 L 68.0 0.0 L 67.0 0.0 L 66.0 0.0 L 65.0 0.0 L 64.0 0.0 L 63.0 0.0 L 62.0 0.0 L 61.0 0.0 L 60.0 0.0 L 59.0 0.0 L 58.0 0.0 L 57.0 0.0 L 56.0 0.0 L 55.0 0.0 L 54.0 0.0 L 53.0 0.0 L 52.0 0.0 L 51.0 0.0 L 50.0 0.0 L 49.0 0.0 L 48.0 0.0 L 47.0 0.0 L 46.0 0.0 L 45.0 0.0 L 44.0 0.0 L 43.0 0.0 L 42.0 0.0 L 41.0 0.0 L 40.0 0.0 L 39.0 0.0 L 38.0 0.0 L 37.0 0.0 L 36.0 0.0 L 35.0 0.0 L 34.0 0.0 L 33.0 0.0 L 32.0 0.0 L 31.0 0.0 L 30.0 0.0 L 29.0 0.0 L 28.0 0.0 L 27.0 0.0 L 26.0 0.0 L 25.0 0.0 L 24.0 0.0 L 23.0 0.0 L 22.0 0.0 L 21.0 0.0 L 20.0 0.0 L 19.0 0.0 L 18.0 0.0 L 17.0 0.0 L 16.0 0.0 L 15.0 0.0 L 14.0 0.0 L 13.0 0.0 L 12.0 0.0 L 11.0 0.0 L 10.0 0.0 L 9.0 0.0 L 8.0 0.0 L 7.0 0.0 L 6.0 0.0 L 5.0 0.0 L 4.0 0.0 L 3.0 0.0 L 2.0 0.0 L 1.0 0.0 L 0.3333333333333333 0.3333333333333333 L 0.0 1.0 L 0.0 2.0 L 0.0 3.0 L 0.0 4.0 L 0.0 5.0 L 0.0 6.0 L 0.0 7.0 L 0.0 8.0 L 0.0 9.0 L 0.0 10.0 L 0.0 11.0 L 0.0 12.0 L 0.0 13.0 L 0.0 14.0 L 0.0 15.0 L 0.0 16.0 L 0.0 17.0 L 0.0 18.0 L 0.0 19.0 L 0.0 20.0 L 0.0 21.0 L 0.0 22.0 L 0.0 23.0 L 0.0 24.0 L 0.0 25.0 L 0.0 26.0 L 0.0 27.0 L 0.0 28.0 L 0.0 29.0 L 0.0 30.0 L 0.0 31.0 L 0.0 32.0 L 0.0 33.0 L 0.0 34.0 L 0.0 35.0 L 0.0 36.0 L 0.0 37.0 L 0.0 38.0 L 0.0 39.0 L 0.0 40.0 L 0.0 41.0 L 0.0 42.0 L 0.0 43.0 L 0.0 44.0 L 0.0 45.0 L 0.0 46.0 L 0.0 47.0 L 0.0 48.0 L 0.0 49.0 L 0.0 50.0 L 0.0 51.0 L 0.0 52.0 L 0.0 53.0 L 0.0 54.0 L 0.0 55.0 L 0.0 56.0 L 0.0 57.0 L 0.0 58.0 L 0.0 59.0 L 0.0 60.0 L 0.0 61.0 L 0.0 62.0 L 0.0 63.0 L 0.0 64.0 L 0.0 65.0 L 0.0 66.0 L 0.0 67.0 L 0.0 68.0 L 0.0 69.0 L 0.0 70.0 L 0.0 71.0 L 0.0 72.0 L 0.0 73.0 L 0.0 74.0 L 0.0 75.0 L 0.0 76.0 L 0.0 77.0 L 0.0 78.0 L 0.0 79.0 L 0.0 80.0 L 0.0 81.0 L 0.0 82.0 L 0.0 83.0 L 0.0 84.0 L 0.0 85.0 L 0.0 86.0 L 0.0 87.0 L 0.0 88.0 L 0.0 89.0 L 0.0 90.0 L 0.0 91.0 L 0.0 92.0 L 0.0 93.0 L 0.0 94.0 L 0.0 95.0 L 0.0 96.0 L 0.0 97.0 L 0.0 98.0 L 0.0 99.0 L 0.0 100.0 L 0.0 101.0 L 0.0 102.0 L 0.0 103.0 L 0.0 104.0 L 0.0 105.0 L 0.0 106.0 L 0.0 107.0 L 0.0 108.0 L 0.0 109.0 L 0.0 110.0 L 0.0 111.0 L 0.0 112.0 L 0.0 113.0 L 0.0 114.0 L 0.0 115.0 L 0.0 116.0 L 0.0 117.0 L 0.0 118.0 L 0.0 119.0 L 0.0 120.0 L 0.0 121.0 L 0.0 122.0 L 0.0 123.0 L 0.0 124.0 L 0.0 125.0 L 0.0 126.0 L 0.0 127.0 L 0.3333333333333333 127.66666666666667 L 1.0 128.0 L 2.0 128.0 L 3.0 128.0 L 4.0 128.0 L 5.0 128.0 L 6.0 128.0 L 7.0 128.0 L 8.0 128.0 L 9.0 128.0 L 10.0 128.0 L 11.0 128.0 L 12.0 128.0 L 13.0 128.0 L 14.0 128.0 L 15.0 128.0 L 16.0 128.0 L 17.0 128.0 L 18.0 128.0 L 19.0 128.0 L 20.0 128.0 L 21.0 128.0 L 22.0 128.0 L 23.0 128.0 L 24.0 128.0 L 25.0 128.0 L 26.0 128.0 L 27.0 128.0 L 28.0 128.0 L 29.0 128.0 L 30.0 128.0 L 31.0 128.0 L 32.0 128.0 L 33.0 128.0 L 34.0 128.0 L 35.0 128.0 L 36.0 128.0 L 37.0 128.0 L 38.0 128.0 L 39.0 128.0 L 40.0 128.0 L 41.0 128.0 L 42.0 128.0 L 43.0 128.0 L 44.0 128.0 L 45.0 128.0 L 46.0 128.0 L 47.0 128.0 L 48.0 128.0 L 49.0 128.0 L 50.0 128.0 L 51.0 128.0 L 52.0 128.0 L 53.0 128.0 L 54.0 128.0 L 55.0 128.0 L 56.0 128.0 L 57.0 128.0 L 58.0 128.0 L 59.0 128.0 L 60.0 128.0 L 61.0 128.0 L 62.0 128.0 L 63.0 128.0 L 64.0 128.0 L 65.0 128.0 L 66.0 128.0 L 67.0 128.0 L 68.0 128.0 L 69.0 128.0 L 70.0 128.0 L 71.0 128.0 L 72.0 128.0 L 73.0 128.0 L 74.0 128.0 L 75.0 128.0 L 76.0 128.0 L 77.0 128.0 L 78.0 128.0 L 79.0 128.0 L 80.0 128.0 L 81.0 128.0 L 82.0 128.0 L 83.0 128.0 L 84.0 128.0 L 85.0 128.0 L 86.0 128.0 L 87.0 128.0 L 88.0 128.0 L 89.0 128.0 L 90.0 128.0 L 91.0 128.0 L 92.0 128.0 L 93.0 128.0 L 94.0 128.0 L 95.0 128.0 L 96.0 128.0 L 97.0 128.0 L 98.0 128.0 L 99.0 128.0 L 100.0 128.0 L 101.0 128.0 L 102.0 128.0 L 103.0 128.0 L 104.0 128.0 L 105.0 128.0 L 106.0 128.0 L 107.0 128.0 L 107.5 128.0 Z" stroke="none" fill="rgb(0,0,0)" />
<path d="M 21.5 29.0 L 22.0 29.0 L 23.0 29.0 L 24.0 29.0 L 25.0 29.0 L 26.0 29.0 L 27.0 29.0 L 28.0 29.0 L 29.0 29.0 L 30.0 29.0 L 31.0 29.0 L 32.0 29.0 L 33.0 29.0 L 34.0 29.0 L 35.0 29.0 L 36.0 29.0 L 37.0 29.0 L 38.0 29.0 L 39.0 29.0 L 40.0 29.0 L 41.0 29.0 L 42.0 29.0 L 43.0 29.0 L 44.0 29.0 L 45.0 29.0 L 46.0 29.0 L 47.0 29.0 L 48.0 29.0 L 49.0 29.0 L 50.0 29.0 L 51.0 29.0 L 52.0 29.0 L 53.0 29.0 L 54.0 29.0 L 55.0 29.0 L 56.0 29.0 L 57.0 29.0 L 58.0 29.0 L 59.0 29.0 L 60.0 29.0 L 61.0 29.0 L 62.0 29.0 L 63.0 29.0 L 64.0 29.0 L 65.0 29.0 L 66.0 29.0 L 67.0 29.0 L 68.0 29.0 L 69.0 29.0 L 70.0 29.0 L 71.0 29.0 L 72.0 29.0 L 73.0 29.0 L 74.0 29.0 L 75.0 29.0 L 76.0 29.0 L 77.0 29.0 L 78.0 29.0 L 79.0 29.0 L 80.0 29.0 L 81.0 29.0 L 82.0 29.0 L 83.0 29.0 L 84.0 29.0 L 85.0 29.0 L 86.0 29.0 L 87.0 29.0 L 88.0 29.0 L 89.0 29.0 L 90.0 29.0 L 91.0 29.0 L 92.0 29.0 L 93.0 29.0 L 94.0 29.0 L 95.0 29.0 L 96.0 29.0 L 97.0 29.0 L 98.0 29.0 L 99.0 29.0 L 100.0 29.0 L 101.0 29.0 L 102.0 29.0 L 103.0 29.0 L 104.0 29.0 L 105.0 29.0 L 106.0 29.0 L 107.0 29.0 L 108.0 29.0 L 109.0 29.0 L 110.0 29.0 L 111.0 29.0 L 112.0 29.0 L 113.0 29.0 L 114.0 29.0 L 115.0 29.0 L 116.0 29.0 L 117.0 29.0 L 118.0 29.0 L 119.0 29.0 L 120.0 29.0 L 121.0 29.0 L 122.0 29.0 L 123.0 29.0 L 124.0 29.0 L 124.66666666666667 28.666666666666668 L 125.0 28.0 L 125.0 27.0 L 125.0 26.0 L 125.0 25.0 L 125.0 24.0 L 125.0 23.0 L 125.0 22.0 L 125.0 21.0 L 125.0 20.0 L 125.0 19.0 L 125.0 18.0 L 125.0 17.0 L 125.0 16.0 L 125.0 15.0 L 125.0 14.0 L 125.0 13.0 L 125.0 12.0 L 125.0 11.0 L 125.0 10.0 L 125.0 9.0 L 125.0 8.0 L 125.0 7.0 L 125.0 6.0 L 125.0 5.0 L 124.66666666666667 4.333333333333333 L 124.0 4.0 L 123.0 4.0 L 122.0 4.0 L 121.0 4.0 L 120.0 4.0 L 119.0 4.0 L 118.0 4.0 L 117.0 4.0 L 116.0 4.0 L 115.0 4.0 L 114.0 4.0 L 113.0 4.0 L 112.0 4.0 L 111.0 4.0 L 110.0 4.0 L 109.0 4.0 L 108.0 4.0 L 107.0 4.0 L 106.0 4.0 L 105.0 4.0 L 104.0 4.0 L 103.0 4.0 L 102.0 4.0 L 101.0 4.0 L 100.0 4.0 L 99.0 4.0 L 98.0 4.0 L 97.0 4.0 L 96.0 4.0 L 95.0 4.0 L 94.0 4.0 L 93.0 4.0 L 92.0 4.0 L 91.0 4.0 L 90.0 4.0 L 89.0 4.0 L 88.0 4.0 L 87.0 4.0 L 86.0 4.0 L 85.0 4.0 L 84.0 4.0 L 83.0 4.0 L 82.0 4.0 L 81.0 4.0 L 80.0 4.0 L 79.0 4.0 L 78.0 4.0 L 77.0 4.0 L 76.0 4.0 L 75.0 4.0 L 74.0 4.0 L 73.0 4.0 L 72.0 4.0 L 71.0 4.0 L 70.0 4.0 L 69.0 4.0 L 68.0 4.0 L 67.0 4.0 L 66.0 4.0 L 65.0 4.0 L 64.0 4.0 L 63.0 4.0 L 62.0 4.0 L 61.0 4.0 L 60.0 4.0 L 59.0 4.0 L 58.0 4.0 L 57.0 4.0 L 56.0 4.0 L 55.0 4.0 L 54.0 4.0 L 53.0 4.0 L 52.0 4.0 L 51.0 4.0 L 50.0 4.0 L 49.0 4.0 L 48.0 4.0 L 47.0 4.0 L 46.0 4.0 L 45.0 4.0 L 44.0 4.0 L 43.0 4.0 L 42.0 4.0 L 41.0 4.0 L 40.0 4.0 L 39.0 4.0 L 38.0 4.0 L 37.0 4.0 L 36.0 4.0 L 35.0 4.0 L 34.0 4.0 L 33.0 4.0 L 32.0 4.0 L 31.0 4.0 L 30.0 4.0 L 29.0 4.0 L 28.0 4.0 L 27.0 4.0 L 26.0 4.0 L 25.0 4.0 L 24.0 4.0 L 23.0 4.0 L 22.0 4.0 L 21.0 4.0 L 20.0 4.0 L 19.0 4.0 L 18.0 4.0 L 17.0 4.0 L 16.0 4.0 L 15.0 4.0 L 14.0 4.0 L 13.0 4.0 L 12.0 4.0 L 11.0 4.0 L 10.0 4.0 L 9.0 4.0 L 8.0 4.0 L 7.0 4.0 L 6.0 4.0 L 5.0 4.0 L 4.333333333333333 4.333333333333333 L 4.0 5.0 L 4.0 6.0 L 4.0 7.0 L 4.0 8.0 L 4.0 9.0 L 4.0 10.0 L 4.0 11.0 L 4.0 12.0 L 4.0 13.0 L 4.0 14.0 L 4.0 15.0 L 4.0 16.0 L 4.0 17.0 L 4.0 18.0 L 4.0 19.0 L 4.0 20.0 L 4.0 21.0 L 4.0 22.0 L 4.0 23.0 L 4.0 24.0 L 4.0 25.0 L 4.0 26.0 L 4.0 27.0 L 4.0 28.0 L 4.333333333333333 28.666666666666668 L 5.0 29.0 L 6.0 29.0 L 7.0 29.0 L 8.0 29.0 L 9.0 29.0 L 10.0 29.0 L 11.0 29.0 L 12.0 29.0 L 13.0 29.0 L 14.0 29.0 L 15.0 29.0 L 16.0 29.0 L 17.0 29.0 L 18.0 29.0 L 19.0 29.0 L 20.0 29.0 L 20.5 29.0 Z" stroke="none" fill="rgb(165,108,67)" />
<path d="M 88.5 37.0 L 89.0 37.0 L 90.0 37.0 L 91.0 37.0 L 92.0 37.0 L 93.0 37.0 L 94.0 37.0 L 95.0 37.0 L 96.0 37.0 L 97.0 37.0 L 98.0 37.0 L 99.0 37.0 L 100.0 37.0 L 101.0 37.0 L 102.0 37.0 L 103.0 37.0 L 104.0 37.0 L 105.0 37.0 L 106.0 37.0 L 107.0 37.0 L 108.0 37.0 L 109.0 37.0 L 110.0 37.0 L 111.0 37.0 L 112.0 37.0 L 113.0 37.0 L 114.0 37.0 L 115.0 37.0 L 116.0 37.0 L 117.0 37.0 L 118.0 37.0 L 119.0 37.0 L 120.0 37.0 L 121.0 37.0 L 122.0 37.0 L 123.0 37.0 L 124.0 37.0 L 124.66666666666667 36.666666666666664 L 125.0 36.0 L 125.0 35.0 L 125.0 34.0 L 125.0 33.0 L 125.0 32.0 L 125.0 31.0 L 125.0 30.0 L 124.66666666666667 29.333333333333332 L 124.0 29.0 L 123.0 29.0 L 122.0 29.0 L 121.0 29.0 L 120.0 29.0 L 119.0 29.0 L 118.0 29.0 L 117.0 29.0 L 116.0 29.0 L 115.0 29.0 L 114.0 29.0 L 113.0 29.0 L 112.0 29.0 L 111.0 29.0 L 110.0 29.0 L 109.0 29.0 L 108.0 29.0 L 107.0 29.0 L 106.0 29.0 L 105.0 29.0 L 104.0 29.0 L 103.0 29.0 L 102.0 29.0 L 101.0 29.0 L 100.0 29.0 L 99.0 29.0 L 98.0 29.0 L 97.0 29.0 L 96.0 29.0 L 95.0 29.0 L 94.0 29.0 L 93.0 29.0 L 92.0 29.0 L 91.0 29.0 L 90.0 29.0 L 89.0 29.0 L 88.0 29.0 L 87.0 29.0 L 86.0 29.0 L 85.0 29.0 L 84.0 29.0 L 83.0 29.0 L 82.0 29.0 L 81.0 29.0 L 80.0 29.0 L 79.0 29.0 L 78.0 29.0 L 77.0 29.0 L 76.0 29.0 L 75.0 29.0 L 74.0 29.0 L 73.0 29.0 L 72.0 29.0 L 71.0 29.0 L 70.0 29.0 L 69.0 29.0 L 68.0 29.0 L 67.0 29.0 L 66.0 29.0 L 65.0 29.0 L 64.0 29.0 L 63.0 29.0 L 62.0 29.0 L 61.0 29.0 L 60.0 29.0 L 59.0 29.0 L 58.0 29.0 L 57.0 29.0 L 56.0 29.0 L 55.0 29.0 L 54.0 29.0 L 53.0 29.0 L 52.0 29.0 L 51.0 29.0 L 50.0 29.0 L 49.0 29.0 L 48.0 29.0 L 47.0 29.0 L 46.0 29.0 L 45.0 29.0 L 44.0 29.0 L 43.0 29.0 L 42.0 29.0 L 41.0 29.0 L 40.0 29.0 L 39.0 29.0 L 38.0 29.0 L 37.0 29.0 L 36.0 29.0 L 35.0 29.0 L 34.0 29.0 L 33.0 29.0 L 32.0 29.0 L 31.0 29.0 L 30.0 29.0 L 29.0 29.0 L 28.0 29.0 L 27.0 29.0 L 26.0 29.0 L 25.0 29.0 L 24.0 29.0 L 23.0 29.0 L 22.0 29.0 L 21.0 29.0 L 20.0 29.0 L 19.0 29.0 L 18.0 29.0 L 17.0 29.0 L 16.0 29.0 L 15.0 29.0 L 14.0 29.0 L 13.0 29.0 L 12.0 29.0 L 11.0 29.0 L 10.0 29.0 L 9.0 29.0 L 8.0 29.0 L 7.0 29.0 L 6.0 29.0 L 5.0 29.0 L 4.333333333333333 29.333333333333332 L 4.0 30.0 L 4.0 31.0 L 4.0 32.0 L 4.0 33.0 L 4.0 34.0 L 4.0 35.0 L 4.0 36.0 L 4.333333333333333 36.666666666666664 L 5.0 37.0 L 6.0 37.0 L 7.0 37.0 L 8.0 37.0 L 9.0 37.0 L 10.0 37.0 L 11.0 37.0 L 12.0 37.0 L 13.0 37.0 L 14.0 37.0 L 15.0 37.0 L 16.0 37.0 L 17.0 37.0 L 18.0 37.0 L 19.0 37.0 L 20.0 37.0 L 21.0 37.0 L 22.0 37.0 L 23.0 37.0 L 24.0 37.0 L 25.0 37.0 L 26.0 37.0 L 27.0 37.0 L 28.0 37.0 L 29.0 37.0 L 30.0 37.0 L 31.0 37.0 L 32.0 37.0 L 33.0 37.0 L 34.0 37.0 L 35.0 37.0 L 36.0 37.0 L 37.0 37.0 L 38.0 37.0 L 39.0 37.0 L 40.0 37.0 L 41.0 37.0 L 42.0 37.0 L 43.0 37.0 L 44.0 37.0 L 45.0 37.0 L 46.0 37.0 L 47.0 37.0 L 48.0 37.0 L 49.0 37.0 L 50.0 37.0 L 51.0 37.0 L 52.0 37.0 L 53.0 37.0 L 54.0 37.0 L 55.0 37.0 L 56.0 37.0 L 57.0 37.0 L 58.0 37.0 L 59.0 37.0 L 60.0 37.0 L 61.0 37.0 L 62.0 37.0 L 63.0 37.0 L 64.0 37.0 L 65.0 37.0 L 66.0 37.0 L 67.0 37.0 L 68.0 37.0 L 69.0 37.0 L 70.0 37.0 L 71.0 37.0 L 72.0 37.0 L 73.0 37.0 L 74.0 37.0 L 75.0 37.0 L 76.0 37.0 L 77.0 37.0 L 78.0 37.0 L 79.0 37.0 L 80.0 37.0 L 81.0 37.0 L 82.0 37.0 L 83.0 37.0 L 84.0 37.0 L 85.0 37.0 L 86.0 37.0 L 87.0 37.0 L 87.5 37.0 Z" stroke="none" fill="rgb(164,107,67)" />
<path d="M 23.5 41.0 L 24.0 41.0 L 25.0 41.0 L 26.0 41.0 L 27.0 41.0 L 28.0 41.0 L 29.0 41.0 L 30.0 41.0 L 31.0 41.0 L 32.0 41.0 L 33.0 41.0 L 34.0 41.0 L 35.0 41.0 L 36.0 41.0 L 37.0 41.0 L 38.0 41.0 L 39.0 41.0 L 40.0 41.0 L 41.0 41.0 L 42.0 41.0 L 43.0 41.0 L 44.0 41.0 L 45.0 41.0 L 46.0 41.0 L 47.0 41.0 L 48.0 41.0 L 49.0 41.0 L 50.0 41.0 L 51.0 41.0 L 52.0 41.0 L 53.0 41.0 L 54.0 41.0 L 55.0 41.0 L 56.0 41.0 L 57.0 41.0 L 58.0 41.0 L 59.0 41.0 L 60.0 41.0 L 61.0 41.0 L 62.0 41.0 L 63.0 41.0 L 64.0 41.0 L 65.0 41.0 L 66.0 41.0 L 67.0 41.0 L 68.0 41.0 L 69.0 41.0 L 70.0 41.0 L 71.0 41.0 L 72.0 41.0 L 73.0 41.0 L 74.0 41.0 L 75.0 41.0 L 76.0 41.0 L 77.0 41.0 L 78.0 41.0 L 79.0 41.0 L 80.0 41.0 L 81.0 41.0 L 82.0 41.0 L 83.0 41.0 L 84.0 41.0 L 85.0 41.0 L 86.0 41.0 L 87.0 41.0 L 88.0 41.0 L 89.0 41.0 L 90.0 41.0 L 91.0 41.0 L 92.0 41.0 L 93.0 41.0 L 94.0 41.0 L 95.0 41.0 L 96.0 41.0 L 97.0 41.0 L 98.0 41.0 L 99.0 41.0 L 100.0 41.0 L 101.0 41.0 L 102.0 41.0 L 103.0 41.0 L 104.0 41.0 L 105.0 41.0 L 106.0 41.0 L 107.0 41.0 L 108.0 41.0 L 109.0 41.0 L 110.0 41.0 L 111.0 41.0 L 112.0 41.0 L 113.0 41.0 L 114.0 41.0 L 115.0 41.0 L 116.0 41.0 L 117.0 41.0 L 118.0 41.0 L 119.0 41.0 L 120.0 41.0 L 121.0 41.0 L 122.0 41.0 L 123.0 41.0 L 124.0 41.0 L 124.66666666666667 40.666666666666664 L 125.0 40.0 L 125.0 39.0 L 125.0 38.0 L 124.66666666666667 37.333333333333336 L 124.0 37.0 L 123.0 37.0 L 122.0 37.0 L 121.0 37.0 L 120.0 37.0 L 119.0 37.0 L 118.0 37.0 L 117.0 37.0 L 116.0 37.0 L 115.0 37.0 L 114.0 37.0 L 113.0 37.0 L 112.0 37.0 L 111.0 37.0 L 110.0 37.0 L 109.0 37.0 L 108.0 37.0 L 107.0 37.0 L 106.0 37.0 L 105.0 37.0 L 104.0 37.0 L 103.0 37.0 L 102.0 37.0 L 101.0 37.0 L 100.0 37.0 L 99.0 37.0 L 98.0 37.0 L 97.0 37.0 L 96.0 37.0 L 95.0 37.0 L 94.0 37.0 L 93.0 37.0 L 92.0 37.0 L 91.0 37.0 L 90.0 37.0 L 89.0 37.0 L 88.0 37.0 L 87.0 37.0 L 86.0 37.0 L 85.0 37.0 L 84.0 37.0 L 83.0 37.0 L 82.0 37.0 L 81.0 37.0 L 80.0 37.0 L 79.0 37.0 L 78.0 37.0 L 77.0 37.0 L 76.0 37.0 L 75.0 37.0 L 74.0 37.0 L 73.0 37.0 L 72.0 37.0 L 71.0 37.0 L 70.0 37.0 L 69.0 37.0 L 68.0 37.0 L 67.0 37.0 L 66.0 37.0 L 65.0 37.0 L 64.0 37.0 L 63.0 37.0 L 62.0 37.0 L 61.0 37.0 L 60.0 37.0 L 59.0 37.0 L 58.0 37.0 L 57.0 37.0 L 56.0 37.0 L 55.0 37.0 L 54.0 37.0 L 53.0 37.0 L 52.0 37.0 L 51.0 37.0 L 50.0 37.0 L 49.0 37.0 L 48.0 37.0 L 47.0 37.0 L 46.0 37.0 L 45.0 37.0 L 44.0 37.0 L 43.0 37.0 L 42.0 37.0 L 41.0 37.0 L 40.0 37.0 L 39.0 37.0 L 38.0 37.0 L 37.0 37.0 L 36.0 37.0 L 35.0 37.0 L 34.0 37.0 L 33.0 37.0 L 32.0 37.0 L 31.0 37.0 L 30.0 37.0 L 29.0 37.0 L 28.0 37.0 L 27.0 37.0 L 26.0 37.0 L 25.0 37.0 L 24.0 37.0 L 23.0 37.0 L 22.0 37.0 L 21.0 37.0 L 20.0 37.0 L 19.0 37.0 L 18.0 37.0 L 17.0 37.0 L 16.0 37.0 L 15.0 37.0 L 14.0 37.0 L 13.0 37.0 L 12.0 37.0 L 11.0 37.0 L 10.0 37.0 L 9.0 37.0 L 8.0 37.0 L 7.0 37.0 L 6.0 37.0 L 5.0 37.0 L 4.333333333333333 37.333333333333336 L 4.0 38.0 L 4.0 39.0 L 4.0 40.0 L 4.333333333333333 40.666666666666664 L 5.0 41.0 L 6.0 41.0 L 7.0 41.0 L 8.0 41.0 L 9.0 41.0 L 10.0 41.0 L 11.0 41.0 L 12.0 41.0 L 13.0 41.0 L 14.0 41.0 L 15.0 41.0 L 16.0 41.0 L 17.0 41.0 L 18.0 41.0 L 19.0 41.0 L 20.0 41.0 L 21.0 41.0 L 22.0 41.0 L 22.5 41.0 Z" stroke="none" fill="rgb(164,107,66)" />
<path d="M 101.5 44.0 L 102.0 44.0 L 103.0 44.0 L 104.0 44.0 L 105.0 44.0 L 106.0 44.0 L 107.0 44.0 L 108.0 44.0 L 109.0 44.0 L 110.0 44.0 L 111.0 44.0 L 112.0 44.0 L 113.0 44.0 L 114.0 44.0 L 115.0 44.0 L 116.0 44.0 L 117.0 44.0 L 118.0 44.0 L 119.0 44.0 L 120.0 44.0 L 121.0 44.0 L 122.0 44.0 L 123.0 44.0 L 124.0 44.0 L 124.66666666666667 43.666666666666664 L 125.0 43.0 L 125.0 42.0 L 124.66666666666667 41.333333333333336 L 124.0 41.0 L 123.0 41.0 L 122.0 41.0 L 121.0 41.0 L 120.0 41.0 L 119.0 41.0 L 118.0 41.0 L 117.0 41.0 L 116.0 41.0 L 115.0 41.0 L 114.0 41.0 L 113.0 41.0 L 112.0 41.0 L 111.0 41.0 L 110.0 41.0 L 109.0 41.0 L 108.0 41.0 L 107.0 41.0 L 106.0 41.0 L 105.0 41.0 L 104.0 41.0 L 103.0 41.0 L 102.0 41.0 L 101.0 41.0 L 100.0 41.0 L 99.0 41.0 L 98.0 41.0 L 97.0 41.0 L 96.0 41.0 L 95.0 41.0 L 94.0 41.0 L 93.0 41.0 L 92.0 41.0 L 91.0 41.0 L 90.0 41.0 L 89.0 41.0 L 88.0 41.0 L 87.0 41.0 L 86.0 41.0 L 85.0 41.0 L 84.0 41.0 L 83.0 41.0 L 82.0 41.0 L 81.0 41.0 L 80.0 41.0 L 79.0 41.0 L 78.0 41.0 L 77.0 41.0 L 76.0 41.0 L 75.0 41.0 L 74.0 41.0 L 73.0 41.0 L 72.0 41.0 L 71.0 41.0 L 70.0 41.0 L 69.0 41.0 L 68.0 41.0 L 67.0 41.0 L 66.0 41.0 L 65.0 41.0 L 64.0 41.0 L 63.0 41.0 L 62.0 41.0 L 61.0 41.0 L 60.0 41.0 L 59.0 41.0 L 58.0 41.0 L 57.0 41.0 L 56.0 41.0 L 55.0 41.0 L 54.0 41.0 L 53.0 41.0 L 52.0 41.0 L 51.0 41.0 L 50.0 41.0 L 49.0 41.0 L 48.0 41.0 L 47.0 41.0 L 46.0 41.0 L 45.0 41.0 L 44.0 41.0 L 43.0 41.0 L 42.0 41.0 L 41.0 41.0 L 40.0 41.0 L 39.0 41.0 L 38.0 41.0 L 37.0 41.0 L 36.0 41.0 L 35.0 41.0 L 34.0 41.0 L 33.0 41.0 L 32.0 41.0 L 31.0 41.0 L 30.0 41.0 L 29.0 41.0 L 28.0 41.0 L 27.0 41.0 L 26.0 41.0 L 25.0 41.0 L 24.0 41.0 L 23.0 41.0 L 22.0 41.0 L 21.0 41.0 L 20.0 41.0 L 19.0 41.0 L 18.0 41.0 L 17.0 41.0 L 16.0 41.0 L 15.0 41.0 L 14.0 41.0 L 13.0 41.0 L 12.0 41.0 L 11.0 41.0 L 10.0 41.0 L 9.0 41.0 L 8.0 41.0 L 7.0 41.0 L 6.0 41.0 L 5.0 41.0 L 4.333333333333333 41.333333333333336 L 4.0 42.0 L 4.0 43.0 L 4.333333333333333 43.666666666666664 L 5.0 44.0 L 6.0 44.0 L 7.0 44.0 L 8.0 44.0 L 9.0 44.0 L 10.0 44.0 L 11.0 44.0 L 12.0 44.0 L 13.0 44.0 L 14.0 44.0 L 15.0 44.0 L 16.0 44.0 L 17.0 44.0 L 18.0 44.0 L 19.0 44.0 L 20.0 44.0 L 21.0 44.0 L 22.0 44.0 L 23.0 44.0 L 24.0 44.0 L 25.0 44.0 L 26.0 44.0 L 27.0 44.0 L 28.0 44.0 L 29.0 44.0 L 30.0 44.0 L 31.0 44.0 L 32.0 44.0 L 33.0 44.0 L 34.0 44.0 L 35.0 44.0 L 36.0 44.0 L 37.0 44.0 L 38.0 44.0 L 39.0 44.0 L 40.0 44.0 L 41.0 44.0 L 42.0 44.0 L 43.0 44.0 L 44.0 44.0 L 45.0 44.0 L 46.0 44.0 L 47.0 44.0 L 48.0 44.0 L 49.0 44.0 L 50.0 44.0 L 51.0 44.0 L 52.0 44.0 L 53.0 44.0 L 54.0 44.0 L 55.0 44.0 L 56.0 44.0 L 57.0 44.0 L 58.0 44.0 L 59.0 44.0 L 60.0 44.0 L 61.0 44.0 L 62.0 44.0 L 63.0 44.0 L 64.0 44.0 L 65.0 44.0 L 66.0 44.0 L 67.0 44.0 L 68.0 44.0 L 69.0 44.0 L 70.0 44.0 L 71.0 44.0 L 72.0 44.0 L 73.0 44.0 L 74.0 44.0 L 75.0 44.0 L 76.0 44.0 L 77.0 44.0 L 78.0 44.0 L 79.0 44.0 L 80.0 44.0 L 81.0 44.0 L 82.0 44.0 L 83.0 44.0 L 84.0 44.0 L 85.0 44.0 L 86.0 44.0 L 87.0 44.0 L 88.0 44.0 L 89.0 44.0 L 90.0 44.0 L 91.0 44.0 L 92.0 44.0 L 93.0 44.0 L 94.0 44.0 L 95.0 44.0 L 96.0 44.0 L 97.0 44.0 L 98.0 44.0 L 99.0 44.0 L 100.0 44.0 L 100.5 44.0 Z" stroke="none" fill="rgb(163,107,66)" />
<path d="M 23.5 50.0 L 24.0 50.0 L 25.0 50.0 L 26.0 50.0 L 27.0 50.0 L 28.0 50.0 L 29.0 50.0 L 30.0 50.0 L 31.0 50.0 L 32.0 50.0 L 33.0 50.0 L 34.0 50.0 L 35.0 50.0 L 36.0 50.0 L 37.0 50.0 L 38.0 50.0 L 39.0 50.0 L 40.0 50.0 L 41.0 50.0 L 42.0 50.0 L 43.0 50.0 L 44.0 50.0 L 45.0 50.0 L 46.0 50.0 L 47.0 50.0 L 48.0 50.0 L 49.0 50.0 L 50.0 50.0 L 51.0 50.0 L 52.0 50.0 L 53.0 50.0 L 54.0 50.0 L 55.0 50.0 L 56.0 50.0 L 57.0 50.0 L 58.0 50.0 L 59.0 50.0 L 60.0 50.0 L 61.0 50.0 L 62.0 50.0 L 63.0 50.0 L 64.0 50.0 L 65.0 50.0 L 66.0 50.0 L 67.0 50.0 L 68.0 50.0 L 69.0 50.0 L 70.0 50.0 L 71.0 50.0 L 72.0 50.0 L 73.0 50.0 L 74.0 50.0 L 75.0 50.0 L 76.0 50.0 L 77.0 50.0 L 78.0 50.0 L 79.0 50.0 L 80.0 50.0 L 81.0 50.0 L 82.0 50.0 L 83.0 50.0 L 84.0 50.0 L 85.0 50.0 L 86.0 50.0 L 87.0 50.0 L 88.0 50.0 L 89.0 50.0 L 90.0 50.0 L 91.0 50.0 L 92.0 50.0 L 93.0 50.0 L 94.0 50.0 L 95.0 50.0 L 96.0 50.0 L 97.0 50.0 L 98.0 50.0 L 99.0 50.0 L 100.0 50.0 L 101.0 50.0 L 102.0 50.0 L 103.0 50.0 L 104.0 50.0 L 105.0 50.0 L 106.0 50.0 L 107.0 50.0 L 108.0 50.0 L 109.0 50.0 L 110.0 50.0 L 111.0 50.0 L 112.0 50.0 L 113.0 50.0 L 114.0 50.0 L 115.0 50.0 L 116.0 50.0 L 117.0 50.0 L 118.0 50.0 L 119.0 50.0 L 120.0 50.0 L 121.0 50.0 L 122.0 50.0 L 123.0 50.0 L 124.0 50.0 L 124.66666666666667 49.666666666666664 L 125.0 49.0 L 125.0 48.0 L 125.0 47.0 L 125.0 46.0 L 125.0 45.0 L 124.66666666666667 44.333333333333336 L 124.0 44.0 L 123.0 44.0 L 122.0 44.0 L 121.0 44.0 L 120.0 44.0 L 119.0 44.0 L 118.0 44.0 L 117.0 44.0 L 116.0 44.0 L 115.0 44.0 L 114.0 44.0 L 113.0 44.0 L 112.0 44.0 L 111.0 44.0 L 110.0 44.0 L 109.0 44.0 L 108.0 44.0 L 107.0 44.0 L 106.0 44.0 L 105.0 44.0 L 104.0 44.0 L 103.0 44.0 L 102.0 44.0 L 101.0 44.0 L 100.0 44.0 L 99.0 44.0 L 98.0 44.0 L 97.0 44.0 L 96.0 44.0 L 95.0 44.0 L 94.0 44.0 L 93.0 44.0 L 92.0 44.0 L 91.0 44.0 L 90.0 44.0 L 89.0 44.0 L 88.0 44.0 L 87.0 44.0 L 86.0 44.0 L 85.0 44.0 L 84.0 44.0 L 83.0 44.0 L 82.0 44.0 L 81.0 44.0 L 80.0 44.0 L 79.0 44.0 L 78.0 44.0 L 77.0 44.0 L 76.0 44.0 L 75.0 44.0 L 74.0 44.0 L 73.0 44.0 L 72.0 44.0 L 71.0 44.0 L 70.0 44.0 L 69.0 44.0 L 68.0 44.0 L 67.0 44.0 L 66.0 44.0 L 65.0 44.0 L 64.0 44.0 L 63.0 44.0 L 62.0 44.0 L 61.0 44.0 L 60.0 44.0 L 59.0 44.0 L 58.0 44.0 L 57.0 44.0 L 56.0 44.0 L 55.0 44.0 L 54.0 44.0 L 53.0 44.0 L 52.0 44.0 L 51.0 44.0 L 50.0 44.0 L 49.0 44.0 L 48.0 44.0 L 47.0 44.0 L 46.0 44.0 L 45.0 44.0 L 44.0 44.0 L 43.0 44.0 L 42.0 44.0 L 41.0 44.0 L 40.0 44.0 L 39.0 44.0 L 38.0 44.0 L 37.0 44.0 L 36.0 44.0 L 35.0 44.0 L 34.0 44.0 L 33.0 44.0 L 32.0 44.0 L 31.0 44.0 L 30.0 44.0 L 29.0 44.0 L 28.0 44.0 L 27.0 44.0 L 26.0 44.0 L 25.0 44.0 L 24.0 44.0 L 23.0 44.0 L 22.0 44.0 L 21.0 44.0 L 20.0 44.0 L 19.0 44.0 L 18.0 44.0 L 17.0 44.0 L 16.0 44.0 L 15.0 44.0 L 14.0 44.0 L 13.0 44.0 L 12.0 44.0 L 11.0 44.0 L 10.0 44.0 L 9.0 44.0 L 8.0 44.0 L 7.0 44.0 L 6.0 44.0 L 5.0 44.0 L 4.333333333333333 44.333333333333336 L 4.0 45.0 L 4.0 46.0 L 4.0 47.0 L 4.0 48.0 L 4.0 49.0 L 4.333333333333333 49.666666666666664 L 5.0 50.0 L 6.0 50.0 L 7.0 50.0 L 8.0 50.0 L 9.0 50.0 L 10.0 50.0 L 11.0 50.0 L 12.0 50.0 L 13.0 50.0 L 14.0 50.0 L 15.0 50.0 L 16.0 50.0 L 17.0 50.0 L 18.0 50.0 L 19.0 50.0 L 20.0 50.0 L 21.0 50.0 L 22.0 50.0 L 22.5 50.0 Z" stroke="none" fill="rgb(163,106,66)" />
<path d="M 105.5 53.0 L 106.0 53.0 L 107.0 53.0 L 108.0 53.0 L 109.0 53.0 L 110.0 53.0 L 111.0 53.0 L 112.0 53.0 L 113.0 53.0 L 114.0 53.0 L 115.0 53.0 L 116.0 53.0 L 117.0 53.0 L 118.0 53.0 L 119.0 53.0 L 120.0 53.0 L 121.0 53.0 L 122.0 53.0 L 123.0 53.0 L 124.0 53.0 L 124.66666666666667 52.666666666666664 L 125.0 52.0 L 125.0 51.0 L 124.66666666666667 50.333333333333336 L 124.0 50.0 L 123.0 50.0 L 122.0 50.0 L 121.0 50.0 L 120.0 50.0 L 119.0 50.0 L 118.0 50.0 L 117.0 50.0 L 116.0 50.0 L 115.0 50.0 L 114.0 50.0 L 113.0 50.0 L 112.0 50.0 L 111.0 50.0 L 110.0 50.0 L 109.0 50.0 L 108.0 50.0 L 107.0 50.0 L 106.0 50.0 L 105.0 50.0 L 104.0 50.0 L 103.0 50.0 L 102.0 50.0 L 101.0 50.0 L 100.0 50.0 L 99.0 50.0 L 98.0 50.0 L 97.0 50.0 L 96.0 50.0 L 95.0 50.0 L 94.0 50.0 L 93.0 50.0 L 92.0 50.0 L 91.0 50.0 L 90.0 50.0 L 89.0 50.0 L 88.0 50.0 L 87.0 50.0 L 86.0 50.0 L 85.0 50.0 L 84.0 50.0 L 83.0 50.0 L 82.0 50.0 L 81.0 50.0 L 80.0 50.0 L 79.0 50.0 L 78.0 50.0 L 77.0 50.0 L 76.0 50.0 L 75.0 50.0 L 74.0 50.0 L 73.0 50.0 L 72.0 50.0 L 71.0 50.0 L 70.0 50.0 L 69.0 50.0 L 68.0 50.0 L 67.0 50.0 L 66.0 50.0 L 65.0 50.0 L 64.0 50.0 L 63.0 50.0 L 62.0 50.0 L 61.0 50.0 L 60.0 50.0 L 59.0 50.0 L 58.0 50.0 L 57.0 50.0 L 56.0 50.0 L 55.0 50.0 L 54.0 50.0 L 53.0 50.0 L 52.0 50.0 L 51.0 50.0 L 50.0 50.0 L 49.0 50.0 L 48.0 50.0 L 47.0 50.0 L 46.0 50.0 L 45.0 50.0 L 44.0 50.0 L 43.0 50.0 L 42.0 50.0 L 41.0 50.0 L 40.0 50.0 L 39.0 50.0 L 38.0 50.0 L 37.0 50.0 L 36.0 50.0 L 35.0 50.0 L 34.0 50.0 L 33.0 50.0 L 32.0 50.0 L 31.0 50.0 L 30.0 50.0 L 29.0 50.0 L 28.0 50.0 L 27.0 50.0 L 26.0 50.0 L 25.0 50.0 L 24.0 50.0 L 23.0 50.0 L 22.0 50.0 L 21.0 50.0 L 20.0 50.0 L 19.0 50.0 L 18.0 50.0 L 17.0 50.0 L 16.0 50.0 L 15.0 50.0 L 14.0 50.0 L 13.0 50.0 L 12.0 50.0 L 11.0 50.0 L 10.0 50.0 L 9.0 50.0 L 8.0 50.0 L 7.0 50.0 L 6.0 50.0 L 5.0 50.0 L 4.333333333333333 50.333333333333336 L 4.0 51.0 L 4.0 52.0 L 4.333333333333333 52.666666666666664 L 5.0 53.0 L 6.0 53.0 L 7.0 53.0 L 8.0 53.0 L 9.0 53.0 L 10.0 53.0 L 11.0 53.0 L 12.0 53.0 L 13.0 53.0 L 14.0 53.0 L 15.0 53.0 L 16.0 53.0 L 17.0 53.0 L 18.0 53.0 L 19.0 53.0 L 20.0 53.0 L 21.0 53.0 L 22.0 53.0 L 23.0 53.0 L 24.0 53.0 L 25.0 53.0 L 26.0 53.0 L 27.0 53.0 L 28.0 53.0 L 29.0 53.0 L 30.0 53.0 L 31.0 53.0 L 32.0 53.0 L 33.0 53.0 L 34.0 53.0 L 35.0 53.0 L 36.0 53.0 L 37.0 53.0 L 38.0 53.0 L 39.0 53.0 L 40.0 53.0 L 41.0 53.0 L 42.0 53.0 L 43.0 53.0 L 44.0 53.0 L 45.0 53.0 L 46.0 53.0 L 47.0 53.0 L 48.0 53.0 L 49.0 53.0 L 50.0 53.0 L 51.0 53.0 L 52.0 53.0 L 53.0 53.0 L 54.0 53.0 L 55.0 53.0 L 56.0 53.0 L 57.0 53.0 L 58.0 53.0 L 59.0 53.0 L 60.0 53.0 L 61.0 53.0 L 62.0 53.0 L 63.0 53.0 L 64.0 53.0 L 65.0 53.0 L 66.0 53.0 L 67.0 53.0 L 68.0 53.0 L 69.0 53.0 L 70.0 53.0 L 71.0 53.0 L 72.0 53.0 L 73.0 53.0 L 74.0 53.0 L 75.0 53.0 L 76.0 53.0 L 77.0 53.0 L 78.0 53.0 L 79.0 53.0 L 80.0 53.0 L 81.0 53.0 L 82.0 53.0 L 83.0 53.0 L 84.0 53.0 L 85.0 53.0 L 86.0 53.0 L 87.0 53.0 L 88.0 53.0 L 89.0 53.0 L 90.0 53.0 L 91.0 53.0 L 92.0 53.0 L 93.0 53.0 L 94.0 53.0 L 95.0 53.0 L 96.0 53.0 L 97.0 53.0 L 98.0 53.0 L 99.0 53.0 L 100.0 53.0 L 101.0 53.0 L 102.0 53.0 L 103.0 53.0 L 104.0 53.0 L 104.5 53.0 Z" stroke="none" fill="rgb(162,106,66)" />
<path d="M 57.5 57.0 L 58.0 57.0 L 59.0 57.0 L 60.0 57.0 L 61.0 57.0 L 62.0 57.0 L 63.0 57.0 L 64.0 57.0 L 65.0 57.0 L 66.0 57.0 L 67.0 57.0 L 68.0 57.0 L 69.0 57.0 L 70.0 57.0 L 71.0 57.0 L 72.0 57.0 L 73.0 57.0 L 74.0 57.0 L 75.0 57.0 L 76.0 57.0 L 77.0 57.0 L 78.0 57.0 L 79.0 57.0 L 80.0 57.0 L 81.0 57.0 L 82.0 57.0 L 83.0 57.0 L 84.0 57.0 L 85.0 57.0 L 86.0 57.0 L 87.0 57.0 L 88.0 57.0 L 89.0 57.0 L 90.0 57.0 L 91.0 57.0 L 92.0 57.0 L 93.0 57.0 L 94.0 57.0 L 95.0 57.0 L 96.0 57.0 L 97.0 57.0 L 98.0 57.0 L 99.0 57.0 L 100.0 57.0 L 101.0 57.0 L 102.0 57.0 L 103.0 57.0 L 104.0 57.0 L 105.0 57.0 L 106.0 57.0 L 107.0 57.0 L 108.0 57.0 L 109.0 57.0 L 110.0 57.0 L 111.0 57.0 L 112.0 57.0 L 113.0 57.0 L 114.0 57.0 L 115.0 57.0 L 116.0 57.0 L 117.0 57.0 L 118.0 57.0 L 119.0 57.0 L 120.0 57.0 L 121.0 57.0 L 122.0 57.0 L 123.0 57.0 L 124.0 57.0 L 124.66666666666667 56.666666666666664 L 125.0 56.0 L 125.0 55.0 L 125.0 54.0 L 124.66666666666667 53.333333333333336 L 124.0 53.0 L 123.0 53.0 L 122.0 53.0 L 121.0 53.0 L 120.0 53.0 L 119.0 53.0 L 118.0 53.0 L 117.0 53.0 L 116.0 53.0 L 115.0 53.0 L 114.0 53.0 L 113.0 53.0 L 112.0 53.0 L 111.0 53.0 L 110.0 53.0 L 109.0 53.0 L 108.0 53.0 L 107.0 53.0 L 106.0 53.0 L 105.0 53.0 L 104.0 53.0 L 103.0 53.0 L 102.0 53.0 L 101.0 53.0 L 100.0 53.0 L 99.0 53.0 L 98.0 53.0 L 97.0 53.0 L 96.0 53.0 L 95.0 53.0 L 94.0 53.0 L 93.0 53.0 L 92.0 53.0 L 91.0 53.0 L 90.0 53.0 L 89.0 53.0 L 88.0 53.0 L 87.0 53.0 L 86.0 53.0 L 85.0 53.0 L 84.0 53.0 L 83.0 53.0 L 82.0 53.0 L 81.0 53.0 L 80.0 53.0 L 79.0 53.0 L 78.0 53.0 L 77.0 53.0 L 76.0 53.0 L 75.0 53.0 L 74.0 53.0 L 73.0 53.0 L 72.0 53.0 L 71.0 53.0 L 70.0 53.0 L 69.0 53.0 L 68.0 53.0 L 67.0 53.0 L 66.0 53.0 L 65.0 53.0 L 64.0 53.0 L 63.0 53.0 L 62.0 53.0 L 61.0 53.0 L 60.0 53.0 L 59.0 53.0 L 58.0 53.0 L 57.0 53.0 L 56.0 53.0 L 55.0 53.0 L 54.0 53.0 L 53.0 53.0 L 52.0 53.0 L 51.0 53.0 L 50.0 53.0 L 49.0 53.0 L 48.0 53.0 L 47.0 53.0 L 46.0 53.0 L 45.0 53.0 L 44.0 53.0 L 43.0 53.0 L 42.0 53.0 L 41.0 53.0 L 40.0 53.0 L 39.0 53.0 L 38.0 53.0 L 37.0 53.0 L 36.0 53.0 L 35.0 53.0 L 34.0 53.0 L 33.0 53.0 L 32.0 53.0 L 31.0 53.0 L 30.0 53.0 L 29.0 53.0 L 28.0 53.0 L 27.0 53.0 L 26.0 53.0 L 25.0 53.0 L 24.0 53.0 L 23.0 53.0 L 22.0 53.0 L 21.0 53.0 L 20.0 53.0 L 19.0 53.0 L 18.0 53.0 L 17.0 53.0 L 16.0 53.0 L 15.0 53.0 L 14.0 53.0 L 13.0 53.0 L 12.0 53.0 L 11.0 53.0 L 10.0 53.0 L 9.0 53.0 L 8.0 53.0 L 7.0 53.0 L 6.0 53.0 L 5.0 53.0 L 4.333333333333333 53.333333333333336 L 4.0 54.0 L 4.0 55.0 L 4.0 56.0 L 4.333333333333333 56.666666666666664 L 5.0 57.0 L 6.0 57.0 L 7.0 57.0 L 8.0 57.0 L 9.0 57.0 L 10.0 57.0 L 11.0 57.0 L 12.0 57.0 L 13.0 57.0 L 14.0 57.0 L 15.0 57.0 L 16.0 57.0 L 17.0 57.0 L 18.0 57.0 L 19.0 57.0 L 20.0 57.0 L 21.0 57.0 L 22.0 57.0 L 23.0 57.0 L 24.0 57.0 L 25.0 57.0 L 26.0 57.0 L 27.0 57.0 L 28.0 57.0 L 29.0 57.0 L 30.0 57.0 L 31.0 57.0 L 32.0 57.0 L 33.0 57.0 L 34.0 57.0 L 35.0 57.0 L 36.0 57.0 L 37.0 57.0 L 38.0 57.0 L 39.0 57.0 L 40.0 57.0 L 41.0 57.0 L 42.0 57.0 L 43.0 57.0 L 44.0 57.0 L 45.0 57.0 L 46.0 57.0 L 47.0 57.0 L 48.0 57.0 L 49.0 57.0 L 50.0 57.0 L 51.0 57.0 L 52.0 57.0 L 53.0 57.0 L 54.0 57.0 L 55.0 57.0 L 56.0 57.0 L 56.5 57.0 Z" stroke="none" fill="rgb(162,105,66)" />
<path d="M 55.5 61.0 L 56.0 61.0 L 57.0 61.0 L 58.0 61.0 L 59.0 61.0 L 60.0 61.0 L 61.0 61.0 L 62.0 61.0 L 63.0 61.0 L 64.0 61.0 L 65.0 61.0 L 66.0 61.0 L 67.0 61.0 L 68.0 61.0 L 69.0 61.0 L 70.0 61.0 L 71.0 61.0 L 72.0 61.0 L 73.0 61.0 L 74.0 61.0 L 75.0 61.0 L 76.0 61.0 L 77.0 61.0 L 78.0 61.0 L 79.0 61.0 L 80.0 61.0 L 81.0 61.0 L 82.0 61.0 L 83.0 61.0 L 84.0 61.0 L 85.0 61.0 L 86.0 61.0 L 87.0 61.0 L 88.0 61.0 L 89.0 61.0 L 90.0 61.0 L 91.0 61.0 L 92.0 61.0 L 93.0 61.0 L 94.0 61.0 L 95.0 61.0 L 96.0 61.0 L 97.0 61.0 L 98.0 61.0 L 99.0 61.0 L 100.0 61.0 L 101.0 61.0 L 102.0 61.0 L 103.0 61.0 L 104.0 61.0 L 105.0 61.0 L 106.0 61.0 L 107.0 61.0 L 108.0 61.0 L 109.0 61.0 L 110.0 61.0 L 111.0 61.0 L 112.0 61.0 L 113.0 61.0 L 114.0 61.0 L 115.0 61.0 L 116.0 61.0 L 117.0 61.0 L 118.0 61.0 L 119.0 61.0 L 120.0 61.0 L 121.0 61.0 L 122.0 61.0 L 123.0 61.0 L 124.0 61.0 L 124.66666666666667 60.666666666666664 L 125.0 60.0 L 125.0 59.0 L 125.0 58.0 L 124.66666666666667 57.333333333333336 L 124.0 57.0 L 123.0 57.0 L 122.0 57.0 L 121.0 57.0 L 120.0 57.0 L 119.0 57.0 L 118.0 57.0 L 117.0 57.0 L 116.0 57.0 L 115.0 57.0 L 114.0 57.0 L 113.0 57.0 L 112.0 57.0 L 111.0 57.0 L 110.0 57.0 L 109.0 57.0 L 108.0 57.0 L 107.0 57.0 L 106.0 57.0 L 105.0 57.0 L 104.0 57.0 L 103.0 57.0 L 102.0 57.0 L 101.0 57.0 L 100.0 57.0 L 99.0 57.0 L 98.0 57.0 L 97.0 57.0 L 96.0 57.0 L 95.0 57.0 L 94.0 57.0 L 93.0 57.0 L 92.0 57.0 L 91.0 57.0 L 90.0 57.0 L 89.0 57.0 L 88.0 57.0 L 87.0 57.0 L 86.0 57.0 L 85.0 57.0 L 84.0 57.0 L 83.0 57.0 L 82.0 57.0 L 81.0 57.0 L 80.0 57.0 L 79.0 57.0 L 78.0 57.0 L 77.0 57.0 L 76.0 57.0 L 75.0 57.0 L 74.0 57.0 L 73.0 57.0 L 72.0 57.0 L 71.0 57.0 L 70.0 57.0 L 69.0 57.0 L 68.0 57.0 L 67.0 57.0 L 66.0 57.0 L 65.0 57.0 L 64.0 57.0 L 63.0 57.0 L 62.0 57.0 L 61.0 57.0 L 60.0 57.0 L 59.0 57.0 L 58.0 57.0 L 57.0 57.0 L 56.0 57.0 L 55.0 57.0 L 54.0 57.0 L 53.0 57.0 L 52.0 57.0 L 51.0 57.0 L 50.0 57.0 L 49.0 57.0 L 48.0 57.0 L 47.0 57.0 L 46.0 57.0 L 45.0 57.0 L 44.0 57.0 L 43.0 57.0 L 42.0 57.0 L 41.0 57.0 L 40.0 57.0 L 39.0 57.0 L 38.0 57.0 L 37.0 57.0 L 36.0 57.0 L 35.0 57.0 L 34.0 57.0 L 33.0 57.0 L 32.0 57.0 L 31.0 57.0 L 30.0 57.0 L 29.0 57.0 L 28.0 57.0 L 27.0 57.0 L 26.0 57.0 L 25.0 57.0 L 24.0 57.0 L 23.0 57.0 L 22.0 57.0 L 21.0 57.0 L 20.0 57.0 L 19.0 57.0 L 18.0 57.0 L 17.0 57.0 L 16.0 57.0 L 15.0 57.0 L 14.0 57.0 L 13.0 57.0 L 12.0 57.0 L 11.0 57.0 L 10.0 57.0 L 9.0 57.0 L 8.0 57.0 L 7.0 57.0 L 6.0 57.0 L 5.0 57.0 L 4.333333333333333 57.333333333333336 L 4.0 58.0 L 4.0 59.0 L 4.0 60.0 L 4.333333333333333 60.666666666666664 L 5.0 61.0 L 6.0 61.0 L 7.0 61.0 L 8.0 61.0 L 9.0 61.0 L 10.0 61.0 L 11.0 61.0 L 12.0 61.0 L 13.0 61.0 L 14.0 61.0 L 15.0 61.0 L 16.0 61.0 L 17.0 61.0 L 18.0 61.0 L 19.0 61.0 L 20.0 61.0 L 21.0 61.0 L 22.0 61.0 L 23.0 61.0 L 24.0 61.0 L 25.0 61.0 L 26.0 61.0 L 27.0 61.0 L 28.0 61.0 L 29.0 61.0 L 30.0 61.0 L 31.0 61.0 L 32.0 61.0 L 33.0 61.0 L 34.0 61.0 L 35.0 61.0 L 36.0 61.0 L 37.0 61.0 L 38.0 61.0 L 39.0 61.0 L 40.0 61.0 L 41.0 61.0 L 42.0 61.0 L 43.0 61.0 L 44.0 61.0 L 45.0 61.0 L 46.0 61.0 L 47.0 61.0 L 48.0 61.0 L 49.0 61.0 L 50.0 61.0 L 51.0 61.0 L 52.0 61.0 L 53.0 61.0 L 54.0 61.0 L 54.5 61.0 Z" stroke="none" fill="rgb(161,105,65)" />
<path d="M 6.5 63.0 L 7.0 63.0 L 8.0 63.0 L 9.0 63.0 L 10.0 63.0 L 11.0 63.0 L 12.0 63.0 L 13.0 63.0 L 14.0 63.0 L 15.0 63.0 L 16.0 63.0 L 17.0 63.0 L 18.0 63.0 L 19.0 63.0 L 20.0 63.0 L 21.0 63.0 L 22.0 63.0 L 23.0 63.0 L 24.0 63.0 L 25.0 63.0 L 26.0 63.0 L 27.0 63.0 L 28.0 63.0 L 29.0 63.0 L 30.0 63.0 L 31.0 63.0 L 32.0 63.0 L 33.0 63.0 L 34.0 63.0 L 35.0 63.0 L 36.0 63.0 L 37.0 63.0 L 38.0 63.0 L 39.0 63.0 L 40.0 63.0 L 41.0 63.0 L 42.0 63.0 L 43.0 63.0 L 44.0 63.0 L 45.0 63.0 L 46.0 63.0 L 47.0 63.0 L 48.0 63.0 L 49.0 63.0 L 50.0 63.0 L 51.0 63.0 L 52.0 63.0 L 53.0 63.0 L 54.0 63.0 L 55.0 63.0 L 56.0 63.0 L 57.0 63.0 L 58.0 63.0 L 59.0 63.0 L 60.0 63.0 L 61.0 63.0 L 62.0 63.0 L 63.0 63.0 L 64.0 63.0 L 65.0 63.0 L 66.0 63.0 L 67.0 63.0 L 68.0 63.0 L 69.0 63.0 L 70.0 63.0 L 71.0 63.0 L 72.0 63.0 L 73.0 63.0 L 74.0 63.0 L 75.0 63.0 L 76.0 63.0 L 77.0 63.0 L 78.0 63.0 L 79.0 63.0 L 80.0 63.0 L 81.0 63.0 L 82.0 63.0 L 83.0 63.0 L 84.0 63.0 L 85.0 63.0 L 86.0 63.0 L 87.0 63.0 L 88.0 63.0 L 89.0 63.0 L 90.0 63.0 L 91.0 63.0 L 92.0 63.0 L 93.0 63.0 L 94.0 63.0 L 95.0 63.0 L 96.0 63.0 L 97.0 63.0 L 98.0 63.0 L 99.0 63.0 L 100.0 63.0 L 101.0 63.0 L 102.0 63.0 L 103.0 63.0 L 104.0 63.0 L 105.0 63.0 L 106.0 63.0 L 107.0 63.0 L 108.0 63.0 L 109.0 63.0 L 110.0 63.0 L 111.0 63.0 L 112.0 63.0 L 113.0 63.0 L 114.0 63.0 L 115.0 63.0 L 116.0 63.0 L 117.0 63.0 L 118.0 63.0 L 119.0 63.0 L 120.0 63.0 L 121.0 63.0 L 122.0 63.0 L 123.0 63.0 L 124.0 63.0 L 124.66666666666667 62.666666666666664 L 125.0 62.0 L 124.66666666666667 61.333333333333336 L 124.0 61.0 L 123.0 61.0 L 122.0 61.0 L 121.0 61.0 L 120.0 61.0 L 119.0 61.0 L 118.0 61.0 L 117.0 61.0 L 116.0 61.0 L 115.0 61.0 L 114.0 61.0 L 113.0 61.0 L 112.0 61.0 L 111.0 61.0 L 110.0 61.0 L 109.0 61.0 L 108.0 61.0 L 107.0 61.0 L 106.0 61.0 L 105.0 61.0 L 104.0 61.0 L 103.0 61.0 L 102.0 61.0 L 101.0 61.0 L 100.0 61.0 L 99.0 61.0 L 98.0 61.0 L 97.0 61.0 L 96.0 61.0 L 95.0 61.0 L 94.0 61.0 L 93.0 61.0 L 92.0 61.0 L 91.0 61.0 L 90.0 61.0 L 89.0 61.0 L 88.0 61.0 L 87.0 61.0 L 86.0 61.0 L 85.0 61.0 L 84.0 61.0 L 83.0 61.0 L 82.0 61.0 L 81.0 61.0 L 80.0 61.0 L 79.0 61.0 L 78.0 61.0 L 77.0 61.0 L 76.0 61.0 L 75.0 61.0 L 74.0 61.0 L 73.0 61.0 L 72.0 61.0 L 71.0 61.0 L 70.0 61.0 L 69.0 61.0 L 68.0 61.0 L 67.0 61.0 L 66.0 61.0 L 65.0 61.0 L 64.0 61.0 L 63.0 61.0 L 62.0 61.0 L 61.0 61.0 L 60.0 61.0 L 59.0 61.0 L 58.0 61.0 L 57.0 61.0 L 56.0 61.0 L 55.0 61.0 L 54.0 61.0 L 53.0 61.0 L 52.0 61.0 L 51.0 61.0 L 50.0 61.0 L 49.0 61.0 L 48.0 61.0 L 47.0 61.0 L 46.0 61.0 L 45.0 61.0 L 44.0 61.0 L 43.0 61.0 L 42.0 61.0 L 41.0 61.0 L 40.0 61.0 L 39.0 61.0 L 38.0 61.0 L 37.0 61.0 L 36.0 61.0 L 35.0 61.0 L 34.0 61.0 L 33.0 61.0 L 32.0 61.0 L 31.0 61.0 L 30.0 61.0 L 29.0 61.0 L 28.0 61.0 L 27.0 61.0 L 26.0 61.0 L 25.0 61.0 L 24.0 61.0 L 23.0 61.0 L 22.0 61.0 L 21.0 61.0 L 20.0 61.0 L 19.0 61.0 L 18.0 61.0 L 17.0 61.0 L 16.0 61.0 L 15.0 61.0 L 14.0 61.0 L 13.0 61.0 L 12.0 61.0 L 11.0 61.0 L 10.0 61.0 L 9.0 61.0 L 8.0 61.0 L 7.0 61.0 L 6.0 61.0 L 5.0 61.0 L 4.333333333333333 61.333333333333336 L 4.0 62.0 L 4.333333333333333 62.666666666666664 L 5.0 63.0 L 5.5 63.0 Z" stroke="none" fill="rgb(161,104,65)" />
<path d="M 59.5 68.0 L 60.0 68.0 L 61.0 68.0 L 62.0 68.0 L 63.0 68.0 L 64.0 68.0 L 65.0 68.0 L 66.0 68.0 L 67.0 68.0 L 68.0 68.0 L 69.0 68.0 L 70.0 68.0 L 71.0 68.0 L 72.0 68.0 L 73.0 68.0 L 74.0 68.0 L 75.0 68.0 L 76.0 68.0 L 77.0 68.0 L 78.0 68.0 L 79.0 68.0 L 80.0 68.0 L 81.0 68.0 L 82.0 68.0 L 83.0 68.0 L 84.0 68.0 L 85.0 68.0 L 86.0 68.0 L 87.0 68.0 L 88.0 68.0 L 89.0 68.0 L 90.0 68.0 L 91.0 68.0 L 92.0 68.0 L 93.0 68.0 L 94.0 68.0 L 95.0 68.0 L 96.0 68.0 L 97.0 68.0 L 98.0 68.0 L 99.0 68.0 L 100.0 68.0 L 101.0 68.0 L 102.0 68.0 L 103.0 68.0 L 104.0 68.0 L 105.0 68.0 L 106.0 68.0 L 107.0 68.0 L 108.0 68.0 L 109.0 68.0 L 110.0 68.0 L 111.0 68.0 L 112.0 68.0 L 113.0 68.0 L 114.0 68.0 L 115.0 68.0 L 116.0 68.0 L 117.0 68.0 L 118.0 68.0 L 119.0 68.0 L 120.0 68.0 L 121.0 68.0 L 122.0 68.0 L 123.0 68.0 L 124.0 68.0 L 124.66666666666667 67.66666666666667 L 125.0 67.0 L 125.0 66.0 L 125.0 65.0 L 125.0 64.0 L 124.66666666666667 63.333333333333336 L 124.0 63.0 L 123.0 63.0 L 122.0 63.0 L 121.0 63.0 L 120.0 63.0 L 119.0 63.0 L 118.0 63.0 L 117.0 63.0 L 116.0 63.0 L 115.0 63.0 L 114.0 63.0 L 113.0 63.0 L 112.0 63.0 L 111.0 63.0 L 110.0 63.0 L 109.0 63.0 L 108.0 63.0 L 107.0 63.0 L 106.0 63.0 L 105.0 63.0 L 104.0 63.0 L 103.0 63.0 L 102.0 63.0 L 101.0 63.0 L 100.0 63.0 L 99.0 63.0 L 98.0 63.0 L 97.0 63.0 L 96.0 63.0 L 95.0 63.0 L 94.0 63.0 L 93.0 63.0 L 92.0 63.0 L 91.0 63.0 L 90.0 63.0 L 89.0 63.0 L 88.0 63.0 L 87.0 63.0 L 86.0 63.0 L 85.0 63.0 L 84.0 63.0 L 83.0 63.0 L 82.0 63.0 L 81.0 63.0 L 80.0 63.0 L 79.0 63.0 L 78.0 63.0 L 77.0 63.0 L 76.0 63.0 L 75.0 63.0 L 74.0 63.0 L 73.0 63.0 L 72.0 63.0 L 71.0 63.0 L 70.0 63.0 L 69.0 63.0 L 68.0 63.0 L 67.0 63.0 L 66.0 63.0 L 65.0 63.0 L 64.0 63.0 L 63.0 63.0 L 62.0 63.0 L 61.0 63.0 L 60.0 63.0 L 59.0 63.0 L 58.0 63.0 L 57.0 63.0 L 56.0 63.0 L 55.0 63.0 L 54.0 63.0 L 53.0 63.0 L 52.0 63.0 L 51.0 63.0 L 50.0 63.0 L 49.0 63.0 L 48.0 63.0 L 47.0 63.0 L 46.0 63.0 L 45.0 63.0 L 44.0 63.0 L 43.0 63.0 L 42.0 63.0 L 41.0 63.0 L 40.0 63.0 L 39.0 63.0 L 38.0 63.0 L 37.0 63.0 L 36.0 63.0 L 35.0 63.0 L 34.0 63.0 L 33.0 63.0 L 32.0 63.0 L 31.0 63.0 L 30.0 63.0 L 29.0 63.0 L 28.0 63.0 L 27.0 63.0 L 26.0 63.0 L 25.0 63.0 L 24.0 63.0 L 23.0 63.0 L 22.0 63.0 L 21.0 63.0 L 20.0 63.0 L 19.0 63.0 L 18.0 63.0 L 17.0 63.0 L 16.0 63.0 L 15.0 63.0 L 14.0 63.0 L 13.0 63.0 L 12.0 63.0 L 11.0 63.0 L 10.0 63.0 L 9.0 63.0 L 8.0 63.0 L 7.0 63.0 L 6.0 63.0 L 5.0 63.0 L 4.333333333333333 63.333333333333336 L 4.0 64.0 L 4.0 65.0 L 4.0 66.0 L 4.0 67.0 L 4.333333333333333 67.66666666666667 L 5.0 68.0 L 6.0 68.0 L 7.0 68.0 L 8.0 68.0 L 9.0 68.0 L 10.0 68.0 L 11.0 68.0 L 12.0 68.0 L 13.0 68.0 L 14.0 68.0 L 15.0 68.0 L 16.0 68.0 L 17.0 68.0 L 18.0 68.0 L 19.0 68.0 L 20.0 68.0 L 21.0 68.0 L 22.0 68.0 L 23.0 68.0 L 24.0 68.0 L 25.0 68.0 L 26.0 68.0 L 27.0 68.0 L 28.0 68.0 L 29.0 68.0 L 30.0 68.0 L 31.0 68.0 L 32.0 68.0 L 33.0 68.0 L 34.0 68.0 L 35.0 68.0 L 36.0 68.0 L 37.0 68.0 L 38.0 68.0 L 39.0 68.0 L 40.0 68.0 L 41.0 68.0 L 42.0 68.0 L 43.0 68.0 L 44.0 68.0 L 45.0 68.0 L 46.0 68.0 L 47.0 68.0 L 48.0 68.0 L 49.0 68.0 L 50.0 68.0 L 51.0 68.0 L 52.0 68.0 L 53.0 68.0 L 54.0 68.0 L 55.0 68.0 L 56.0 68.0 L 57.0 68.0 L 58.0 68.0 L 58.5 68.0 Z" stroke="none" fill="rgb(160,104,65)" />
<path d="M 55.5 73.0 L 56.0 73.0 L 57.0 73.0 L 58.0 73.0 L 59.0 73.0 L 60.0 73.0 L 61.0 73.0 L 62.0 73.0 L 63.0 73.0 L 64.0 73.0 L 65.0 73.0 L 66.0 73.0 L 67.0 73.0 L 68.0 73.0 L 69.0 73.0 L 70.0 73.0 L 71.0 73.0 L 72.0 73.0 L 73.0 73.0 L 74.0 73.0 L 75.0 73.0 L 76.0 73.0 L 77.0 73.0 L 78.0 73.0 L 79.0 73.0 L 80.0 73.0 L 81.0 73.0 L 82.0 73.0 L 83.0 73.0 L 84.0 73.0 L 85.0 73.0 L 86.0 73.0 L 87.0 73.0 L 88.0 73.0 L 89.0 73.0 L 90.0 73.0 L 91.0 73.0 L 92.0 73.0 L 93.0 73.0 L 94.0 73.0 L 95.0 73.0 L 96.0 73.0 L 97.0 73.0 L 98.0 73.0 L 99.0 73.0 L 100.0 73.0 L 101.0 73.0 L 102.0 73.0 L 103.0 73.0 L 104.0 73.0 L 105.0 73.0 L 106.0 73.0 L 107.0 73.0 L 108.0 73.0 L 109.0 73.0 L 110.0 73.0 L 111.0 73.0 L 112.0 73.0 L 113.0 73.0 L 114.0 73.0 L 115.0 73.0 L 116.0 73.0 L 117.0 73.0 L 118.0 73.0 L 119.0 73.0 L 120.0 73.0 L 121.0 73.0 L 122.0 73.0 L 123.0 73.0 L 124.0 73.0 L 124.66666666666667 72.66666666666667 L 125.0 72.0 L 125.0 71.0 L 125.0 70.0 L 125.0 69.0 L 124.66666666666667 68.33333333333333 L 124.0 68.0 L 123.0 68.0 L 122.0 68.0 L 121.0 68.0 L 120.0 68.0 L 119.0 68.0 L 118.0 68.0 L 117.0 68.0 L 116.0 68.0 L 115.0 68.0 L 114.0 68.0 L 113.0 68.0 L 112.0 68.0 L 111.0 68.0 L 110.0 68.0 L 109.0 68.0 L 108.0 68.0 L 107.0 68.0 L 106.0 68.0 L 105.0 68.0 L 104.0 68.0 L 103.0 68.0 L 102.0 68.0 L 101.0 68.0 L 100.0 68.0 L 99.0 68.0 L 98.0 68.0 L 97.0 68.0 L 96.0 68.0 L 95.0 68.0 L 94.0 68.0 L 93.0 68.0 L 92.0 68.0 L 91.0 68.0 L 90.0 68.0 L 89.0 68.0 L 88.0 68.0 L 87.0 68.0 L 86.0 68.0 L 85.0 68.0 L 84.0 68.0 L 83.0 68.0 L 82.0 68.0 L 81.0 68.0 L 80.0 68.0 L 79.0 68.0 L 78.0 68.0 L 77.0 68.0 L 76.0 68.0 L 75.0 68.0 L 74.0 68.0 L 73.0 68.0 L 72.0 68.0 L 71.0 68.0 L 70.0 68.0 L 69.0 68.0 L 68.0 68.0 L 67.0 68.0 L 66.0 68.0 L 65.0 68.0 L 64.0 68.0 L 63.0 68.0 L 62.0 68.0 L 61.0 68.0 L 60.0 68.0 L 59.0 68.0 L 58.0 68.0 L 57.0 68.0 L 56.0 68.0 L 55.0 68.0 L 54.0 68.0 L 53.0 68.0 L 52.0 68.0 L 51.0 68.0 L 50.0 68.0 L 49.0 68.0 L 48.0 68.0 L 47.0 68.0 L 46.0 68.0 L 45.0 68.0 L 44.0 68.0 L 43.0 68.0 L 42.0 68.0 L 41.0 68.0 L 40.0 68.0 L 39.0 68.0 L 38.0 68.0 L 37.0 68.0 L 36.0 68.0 L 35.0 68.0 L 34.0 68.0 L 33.0 68.0 L 32.0 68.0 L 31.0 68.0 L 30.0 68.0 L 29.0 68.0 L 28.0 68.0 L 27.0 68.0 L 26.0 68.0 L 25.0 68.0 L 24.0 68.0 L 23.0 68.0 L 22.0 68.0 L 21.0 68.0 L 20.0 68.0 L 19.0 68.0 L 18.0 68.0 L 17.0 68.0 L 16.0 68.0 L 15.0 68.0 L 14.0 68.0 L 13.0 68.0 L 12.0 68.0 L 11.0 68.0 L 10.0 68.0 L 9.0 68.0 L 8.0 68.0 L 7.0 68.0 L 6.0 68.0 L 5.0 68.0 L 4.333333333333333 68.33333333333333 L 4.0 69.0 L 4.0 70.0 L 4.0 71.0 L 4.0 72.0 L 4.333333333333333 72.66666666666667 L 5.0 73.0 L 6.0 73.0 L 7.0 73.0 L 8.0 73.0 L 9.0 73.0 L 10.0 73.0 L 11.0 73.0 L 12.0 73.0 L 13.0 73.0 L 14.0 73.0 L 15.0 73.0 L 16.0 73.0 L 17.0 73.0 L 18.0 73.0 L 19.0 73.0 L 20.0 73.0 L 21.0 73.0 L 22.0 73.0 L 23.0 73.0 L 24.0 73.0 L 25.0 73.0 L 26.0 73.0 L 27.0 73.0 L 28.0 73.0 L 29.0 73.0 L 30.0 73.0 L 31.0 73.0 L 32.0 73.0 L 33.0 73.0 L 34.0 73.0 L 35.0 73.0 L 36.0 73.0 L 37.0 73.0 L 38.0 73.0 L 39.0 73.0 L 40.0 73.0 L 41.0 73.0 L 42.0 73.0 L 43.0 73.0 L 44.0 73.0 L 45.0 73.0 L 46.0 73.0 L 47.0 73.0 L 48.0 73.0 L 49.0 73.0 L 50.0 73.0 L 51.0 73.0 L 52.0 73.0 L 53.0 73.0 L 54.0 73.0 L 54.5 73.0 Z" stroke="none" fill="rgb(159,103,64)" />
<path d="M 59.5 78.0 L 60.0 78.0 L 61.0 78.0 L 62.0 78.0 L 63.0 78.0 L 64.0 78.0 L 65.0 78.0 L 66.0 78.0 L 67.0 78.0 L 68.0 78.0 L 69.0 78.0 L 70.0 78.0 L 71.0 78.0 L 72.0 78.0 L 73.0 78.0 L 74.0 78.0 L 75.0 78.0 L 76.0 78.0 L 77.0 78.0 L 78.0 78.0 L 79.0 78.0 L 80.0 78.0 L 81.0 78.0 L 82.0 78.0 L 83.0 78.0 L 84.0 78.0 L 85.0 78.0 L 86.0 78.0 L 87.0 78.0 L 88.0 78.0 L 89.0 78.0 L 90.0 78.0 L 91.0 78.0 L 92.0 78.0 L 93.0 78.0 L 94.0 78.0 L 95.0 78.0 L 96.0 78.0 L 97.0 78.0 L 98.0 78.0 L 99.0 78.0 L 100.0 78.0 L 101.0 78.0 L 102.0 78.0 L 103.0 78.0 L 104.0 78.0 L 105.0 78.0 L 106.0 78.0 L 107.0 78.0 L 108.0 78.0 L 109.0 78.0 L 110.0 78.0 L 111.0 78.0 L 112.0 78.0 L 113.0 78.0 L 114.0 78.0 L 115.0 78.0 L 116.0 78.0 L 117.0 78.0 L 118.0 78.0 L 119.0 78.0 L 120.0 78.0 L 121.0 78.0 L 122.0 78.0 L 123.0 78.0 L 124.0 78.0 L 124.66666666666667 77.66666666666667 L 125.0 77.0 L 125.0 76.0 L 125.0 75.0 L 125.0 74.0 L 124.66666666666667 73.33333333333333 L 124.0 73.0 L 123.0 73.0 L 122.0 73.0 L 121.0 73.0 L 120.0 73.0 L 119.0 73.0 L 118.0 73.0 L 117.0 73.0 L 116.0 73.0 L 115.0 73.0 L 114.0 73.0 L 113.0 73.0 L 112.0 73.0 L 111.0 73.0 L 110.0 73.0 L 109.0 73.0 L 108.0 73.0 L 107.0 73.0 L 106.0 73.0 L 105.0 73.0 L 104.0 73.0 L 103.0 73.0 L 102.0 73.0 L 101.0 73.0 L 100.0 73.0 L 99.0 73.0 L 98.0 73.0 L 97.0 73.0 L 96.0 73.0 L 95.0 73.0 L 94.0 73.0 L 93.0 73.0 L 92.0 73.0 L 91.0 73.0 L 90.0 73.0 L 89.0 73.0 L 88.0 73.0 L 87.0 73.0 L 86.0 73.0 L 85.0 73.0 L 84.0 73.0 L 83.0 73.0 L 82.0 73.0 L 81.0 73.0 L 80.0 73.0 L 79.0 73.0 L 78.0 73.0 L 77.0 73.0 L 76.0 73.0 L 75.0 73.0 L 74.0 73.0 L 73.0 73.0 L 72.0 73.0 L 71.0 73.0 L 70.0 73.0 L 69.0 73.0 L 68.0 73.0 L 67.0 73.0 L 66.0 73.0 L 65.0 73.0 L 64.0 73.0 L 63.0 73.0 L 62.0 73.0 L 61.0 73.0 L 60.0 73.0 L 59.0 73.0 L 58.0 73.0 L 57.0 73.0 L 56.0 73.0 L 55.0 73.0 L 54.0 73.0 L 53.0 73.0 L 52.0 73.0 L 51.0 73.0 L 50.0 73.0 L 49.0 73.0 L 48.0 73.0 L 47.0 73.0 L 46.0 73.0 L 45.0 73.0 L 44.0 73.0 L 43.0 73.0 L 42.0 73.0 L 41.0 73.0 L 40.0 73.0 L 39.0 73.0 L 38.0 73.0 L 37.0 73.0 L 36.0 73.0 L 35.0 73.0 L 34.0 73.0 L 33.0 73.0 L 32.0 73.0 L 31.0 73.0 L 30.0 73.0 L 29.0 73.0 L 28.0 73.0 L 27.0 73.0 L 26.0 73.0 L 25.0 73.0 L 24.0 73.0 L 23.0 73.0 L 22.0 73.0 L 21.0 73.0 L 20.0 73.0 L 19.0 73.0 L 18.0 73.0 L 17.0 73.0 L 16.0 73.0 L 15.0 73.0 L 14.0 73.0 L 13.0 73.0 L 12.0 73.0 L 11.0 73.0 L 10.0 73.0 L 9.0 73.0 L 8.0 73.0 L 7.0 73.0 L 6.0 73.0 L 5.0 73.0 L 4.333333333333333 73.33333333333333 L 4.0 74.0 L 4.0 75.0 L 4.0 76.0 L 4.0 77.0 L 4.333333333333333 77.66666666666667 L 5.0 78.0 L 6.0 78.0 L 7.0 78.0 L 8.0 78.0 L 9.0 78.0 L 10.0 78.0 L 11.0 78.0 L 12.0 78.0 L 13.0 78.0 L 14.0 78.0 L 15.0 78.0 L 16.0 78.0 L 17.0 78.0 L 18.0 78.0 L 19.0 78.0 L 20.0 78.0 L 21.0 78.0 L 22.0 78.0 L 23.0 78.0 L 24.0 78.0 L 25.0 78.0 L 26.0 78.0 L 27.0 78.0 L 28.0 78.0 L 29.0 78.0 L 30.0 78.0 L 31.0 78.0 L 32.0 78.0 L 33.0 78.0 L 34.0 78.0 L 35.0 78.0 L 36.0 78.0 L 37.0 78.0 L 38.0 78.0 L 39.0 78.0 L 40.0 78.0 L 41.0 78.0 L 42.0 78.0 L 43.0 78.0 L 44.0 78.0 L 45.0 78.0 L 46.0 78.0 L 47.0 78.0 L 48.0 78.0 L 49.0 78.0 L 50.0 78.0 L 51.0 78.0 L 52.0 78.0 L 53.0 78.0 L 54.0 78.0 L 55.0 78.0 L 56.0 78.0 L 57.0 78.0 L 58.0 78.0 L 58.5 78.0 Z" stroke="none" fill="rgb(158,102,64)" />
<path d="M 59.5 82.0 L 60.0 82.0 L 61.0 82.0 L 62.0 82.0 L 63.0 82.0 L 64.0 82.0 L 65.0 82.0 L 66.0 82.0 L 67.0 82.0 L 68.0 82.0 L 69.0 82.0 L 70.0 82.0 L 71.0 82.0 L 72.0 82.0 L 73.0 82.0 L 74.0 82.0 L 75.0 82.0 L 76.0 82.0 L 77.0 82.0 L 78.0 82.0 L 79.0 82.0 L 80.0 82.0 L 81.0 82.0 L 82.0 82.0 L 83.0 82.0 L 84.0 82.0 L 85.0 82.0 L 86.0 82.0 L 87.0 82.0 L 88.0 82.0 L 89.0 82.0 L 90.0 82.0 L 91.0 82.0 L 92.0 82.0 L 93.0 82.0 L 94.0 82.0 L 95.0 82.0 L 96.0 82.0 L 97.0 82.0 L 98.0 82.0 L 99.0 82.0 L 100.0 82.0 L 101.0 82.0 L 102.0 82.0 L 103.0 82.0 L 104.0 82.0 L 105.0 82.0 L 106.0 82.0 L 107.0 82.0 L 108.0 82.0 L 109.0 82.0 L 110.0 82.0 L 111.0 82.0 L 112.0 82.0 L 113.0 82.0 L 114.0 82.0 L 115.0 82.0 L 116.0 82.0 L 117.0 82.0 L 118.0 82.0 L 119.0 82.0 L 120.0 82.0 L 121.0 82.0 L 122.0 82.0 L 123.0 82.0 L 124.0 82.0 L 124.66666666666667 81.66666666666667 L 125.0 81.0 L 125.0 80.0 L 125.0 79.0 L 124.66666666666667 78.33333333333333 L 124.0 78.0 L 123.0 78.0 L 122.0 78.0 L 121.0 78.0 L 120.0 78.0 L 119.0 78.0 L 118.0 78.0 L 117.0 78.0 L 116.0 78.0 L 115.0 78.0 L 114.0 78.0 L 113.0 78.0 L 112.0 78.0 L 111.0 78.0 L 110.0 78.0 L 109.0 78.0 L 108.0 78.0 L 107.0 78.0 L 106.0 78.0 L 105.0 78.0 L 104.0 78.0 L 103.0 78.0 L 102.0 78.0 L 101.0 78.0 L 100.0 78.0 L 99.0 78.0 L 98.0 78.0 L 97.0 78.0 L 96.0 78.0 L 95.0 78.0 L 94.0 78.0 L 93.0 78.0 L 92.0 78.0 L 91.0 78.0 L 90.0 78.0 L 89.0 78.0 L 88.0 78.0 L 87.0 78.0 L 86.0 78.0 L 85.0 78.0 L 84.0 78.0 L 83.0 78.0 L 82.0 78.0 L 81.0 78.0 L 80.0 78.0 L 79.0 78.0 L 78.0 78.0 L 77.0 78.0 L 76.0 78.0 L 75.0 78.0 L 74.0 78.0 L 73.0 78.0 L 72.0 78.0 L 71.0 78.0 L 70.0 78.0 L 69.0 78.0 L 68.0 78.0 L 67.0 78.0 L 66.0 78.0 L 65.0 78.0 L 64.0 78.0 L 63.0 78.0 L 62.0 78.0 L 61.0 78.0 L 60.0 78.0 L 59.0 78.0 L 58.0 78.0 L 57.0 78.0 L 56.0 78.0 L 55.0 78.0 L 54.0 78.0 L 53.0 78.0 L 52.0 78.0 L 51.0 78.0 L 50.0 78.0 L 49.0 78.0 L 48.0 78.0 L 47.0 78.0 L 46.0 78.0 L 45.0 78.0 L 44.0 78.0 L 43.0 78.0 L 42.0 78.0 L 41.0 78.0 L 40.0 78.0 L 39.0 78.0 L 38.0 78.0 L 37.0 78.0 L 36.0 78.0 L 35.0 78.0 L 34.0 78.0 L 33.0 78.0 L 32.0 78.0 L 31.0 78.0 L 30.0 78.0 L 29.0 78.0 L 28.0 78.0 L 27.0 78.0 L 26.0 78.0 L 25.0 78.0 L 24.0 78.0 L 23.0 78.0 L 22.0 78.0 L 21.0 78.0 L 20.0 78.0 L 19.0 78.0 L 18.0 78.0 L 17.0 78.0 L 16.0 78.0 L 15.0 78.0 L 14.0 78.0 L 13.0 78.0 L 12.0 78.0 L 11.0 78.0 L 10.0 78.0 L 9.0 78.0 L 8.0 78.0 L 7.0 78.0 L 6.0 78.0 L 5.0 78.0 L 4.333333333333333 78.33333333333333 L 4.0 79.0 L 4.0 80.0 L 4.0 81.0 L 4.333333333333333 81.66666666666667 L 5.0 82.0 L 6.0 82.0 L 7.0 82.0 L 8.0 82.0 L 9.0 82.0 L 10.0 82.0 L 11.0 82.0 L 12.0 82.0 L 13.0 82.0 L 14.0 82.0 L 15.0 82.0 L 16.0 82.0 L 17.0 82.0 L 18.0 82.0 L 19.0 82.0 L 20.0 82.0 L 21.0 82.0 L 22.0 82.0 L 23.0 82.0 L 24.0 82.0 L 25.0 82.0 L 26.0 82.0 L 27.0 82.0 L 28.0 82.0 L 29.0 82.0 L 30.0 82.0 L 31.0 82.0 L 32.0 82.0 L 33.0 82.0 L 34.0 82.0 L 35.0 82.0 L 36.0 82.0 L 37.0 82.0 L 38.0 82.0 L 39.0 82.0 L 40.0 82.0 L 41.0 82.0 L 42.0 82.0 L 43.0 82.0 L 44.0 82.0 L 45.0 82.0 L 46.0 82.0 L 47.0 82.0 L 48.0 82.0 L 49.0 82.0 L 50.0 82.0 L 51.0 82.0 L 52.0 82.0 L 53.0 82.0 L 54.0 82.0 L 55.0 82.0 L 56.0 82.0 L 57.0 82.0 L 58.0 82.0 L 58.5 82.0 Z" stroke="none" fill="rgb(157,101,63)" />
<path d="M 72.5 86.0 L 73.0 86.0 L 74.0 86.0 L 75.0 86.0 L 76.0 86.0 L 77.0 86.0 L 78.0 86.0 L 79.0 86.0 L 80.0 86.0 L 81.0 86.0 L 82.0 86.0 L 83.0 86.0 L 84.0 86.0 L 85.0 86.0 L 86.0 86.0 L 87.0 86.0 L 88.0 86.0 L 89.0 86.0 L 90.0 86.0 L 91.0 86.0 L 92.0 86.0 L 93.0 86.0 L 94.0 86.0 L 95.0 86.0 L 96.0 86.0 L 97.0 86.0 L 98.0 86.0 L 99.0 86.0 L 100.0 86.0 L 101.0 86.0 L 102.0 86.0 L 103.0 86.0 L 104.0 86.0 L 105.0 86.0 L 106.0 86.0 L 107.0 86.0 L 108.0 86.0 L 109.0 86.0 L 110.0 86.0 L 111.0 86.0 L 112.0 86.0 L 113.0 86.0 L 114.0 86.0 L 115.0 86.0 L 116.0 86.0 L 117.0 86.0 L 118.0 86.0 L 119.0 86.0 L 120.0 86.0 L 121.0 86.0 L 122.0 86.0 L 123.0 86.0 L 124.0 86.0 L 124.66666666666667 85.66666666666667 L 125.0 85.0 L 125.0 84.0 L 125.0 83.0 L 124.66666666666667 82.33333333333333 L 124.0 82.0 L 123.0 82.0 L 122.0 82.0 L 121.0 82.0 L 120.0 82.0 L 119.0 82.0 L 118.0 82.0 L 117.0 82.0 L 116.0 82.0 L 115.0 82.0 L 114.0 82.0 L 113.0 82.0 L 112.0 82.0 L 111.0 82.0 L 110.0 82.0 L 109.0 82.0 L 108.0 82.0 L 107.0 82.0 L 106.0 82.0 L 105.0 82.0 L 104.0 82.0 L 103.0 82.0 L 102.0 82.0 L 101.0 82.0 L 100.0 82.0 L 99.0 82.0 L 98.0 82.0 L 97.0 82.0 L 96.0 82.0 L 95.0 82.0 L 94.0 82.0 L 93.0 82.0 L 92.0 82.0 L 91.0 82.0 L 90.0 82.0 L 89.0 82.0 L 88.0 82.0 L 87.0 82.0 L 86.0 82.0 L 85.0 82.0 L 84.0 82.0 L 83.0 82.0 L 82.0 82.0 L 81.0 82.0 L 80.0 82.0 L 79.0 82.0 L 78.0 82.0 L 77.0 82.0 L 76.0 82.0 L 75.0 82.0 L 74.0 82.0 L 73.0 82.0 L 72.0 82.0 L 71.0 82.0 L 70.0 82.0 L 69.0 82.0 L 68.0 82.0 L 67.0 82.0 L 66.0 82.0 L 65.0 82.0 L 64.0 82.0 L 63.0 82.0 L 62.0 82.0 L 61.0 82.0 L 60.0 82.0 L 59.0 82.0 L 58.0 82.0 L 57.0 82.0 L 56.0 82.0 L 55.0 82.0 L 54.0 82.0 L 53.0 82.0 L 52.0 82.0 L 51.0 82.0 L 50.0 82.0 L 49.0 82.0 L 48.0 82.0 L 47.0 82.0 L 46.0 82.0 L 45.0 82.0 L 44.0 82.0 L 43.0 82.0 L 42.0 82.0 L 41.0 82.0 L 40.0 82.0 L 39.0 82.0 L 38.0 82.0 L 37.0 82.0 L 36.0 82.0 L 35.0 82.0 L 34.0 82.0 L 33.0 82.0 L 32.0 82.0 L 31.0 82.0 L 30.0 82.0 L 29.0 82.0 L 28.0 82.0 L 27.0 82.0 L 26.0 82.0 L 25.0 82.0 L 24.0 82.0 L 23.0 82.0 L 22.0 82.0 L 21.0 82.0 L 20.0 82.0 L 19.0 82.0 L 18.0 82.0 L 17.0 82.0 L 16.0 82.0 L 15.0 82.0 L 14.0 82.0 L 13.0 82.0 L 12.0 82.0 L 11.0 82.0 L 10.0 82.0 L 9.0 82.0 L 8.0 82.0 L 7.0 82.0 L 6.0 82.0 L 5.0 82.0 L 4.333333333333333 82.33333333333333 L 4.0 83.0 L 4.0 84.0 L 4.0 85.0 L 4.333333333333333 85.66666666666667 L 5.0 86.0 L 6.0 86.0 L 7.0 86.0 L 8.0 86.0 L 9.0 86.0 L 10.0 86.0 L 11.0 86.0 L 12.0 86.0 L 13.0 86.0 L 14.0 86.0 L 15.0 86.0 L 16.0 86.0 L 17.0 86.0 L 18.0 86.0 L 19.0 86.0 L 20.0 86.0 L 21.0 86.0 L 22.0 86.0 L 23.0 86.0 L 24.0 86.0 L 25.0 86.0 L 26.0 86.0 L 27.0 86.0 L 28.0 86.0 L 29.0 86.0 L 30.0 86.0 L 31.0 86.0 L 32.0 86.0 L 33.0 86.0 L 34.0 86.0 L 35.0 86.0 L 36.0 86.0 L 37.0 86.0 L 38.0 86.0 L 39.0 86.0 L 40.0 86.0 L 41.0 86.0 L 42.0 86.0 L 43.0 86.0 L 44.0 86.0 L 45.0 86.0 L 46.0 86.0 L 47.0 86.0 L 48.0 86.0 L 49.0 86.0 L 50.0 86.0 L 51.0 86.0 L 52.0 86.0 L 53.0 86.0 L 54.0 86.0 L 55.0 86.0 L 56.0 86.0 L 57.0 86.0 L 58.0 86.0 L 59.0 86.0 L 60.0 86.0 L 61.0 86.0 L 62.0 86.0 L 63.0 86.0 L 64.0 86.0 L 65.0 86.0 L 66.0 86.0 L 67.0 86.0 L 68.0 86.0 L 69.0 86.0 L 70.0 86.0 L 71.0 86.0 L 71.5 86.0 Z" stroke="none" fill="rgb(156,100,63)" />
<path d="M 59.5 89.0 L 60.0 89.0 L 61.0 89.0 L 62.0 89.0 L 63.0 89.0 L 64.0 89.0 L 65.0 89.0 L 66.0 89.0 L 67.0 89.0 L 68.0 89.0 L 69.0 89.0 L 70.0 89.0 L 71.0 89.0 L 72.0 89.0 L 73.0 89.0 L 74.0 89.0 L 75.0 89.0 L 76.0 89.0 L 77.0 89.0 L 78.0 89.0 L 79.0 89.0 L 80.0 89.0 L 81.0 89.0 L 82.0 89.0 L 83.0 89.0 L 84.0 89.0 L 85.0 89.0 L 86.0 89.0 L 87.0 89.0 L 88.0 89.0 L 89.0 89.0 L 90.0 89.0 L 91.0 89.0 L 92.0 89.0 L 93.0 89.0 L 94.0 89.0 L 95.0 89.0 L 96.0 89.0 L 97.0 89.0 L 98.0 89.0 L 99.0 89.0 L 100.0 89.0 L 101.0 89.0 L 102.0 89.0 L 103.0 89.0 L 104.0 89.0 L 105.0 89.0 L 106.0 89.0 L 107.0 89.0 L 108.0 89.0 L 109.0 89.0 L 110.0 89.0 L 111.0 89.0 L 112.0 89.0 L 113.0 89.0 L 114.0 89.0 L 115.0 89.0 L 116.0 89.0 L 117.0 89.0 L 118.0 89.0 L 119.0 89.0 L 120.0 89.0 L 121.0 89.0 L 122.0 89.0 L 123.0 89.0 L 124.0 89.0 L 124.66666666666667 88.66666666666667 L 125.0 88.0 L 125.0 87.0 L 124.66666666666667 86.33333333333333 L 124.0 86.0 L 123.0 86.0 L 122.0 86.0 L 121.0 86.0 L 120.0 86.0 L 119.0 86.0 L 118.0 86.0 L 117.0 86.0 L 116.0 86.0 L 115.0 86.0 L 114.0 86.0 L 113.0 86.0 L 112.0 86.0 L 111.0 86.0 L 110.0 86.0 L 109.0 86.0 L 108.0 86.0 L 107.0 86.0 L 106.0 86.0 L 105.0 86.0 L 104.0 86.0 L 103.0 86.0 L 102.0 86.0 L 101.0 86.0 L 100.0 86.0 L 99.0 86.0 L 98.0 86.0 L 97.0 86.0 L 96.0 86.0 L 95.0 86.0 L 94.0 86.0 L 93.0 86.0 L 92.0 86.0 L 91.0 86.0 L 90.0 86.0 L 89.0 86.0 L 88.0 86.0 L 87.0 86.0 L 86.0 86.0 L 85.0 86.0 L 84.0 86.0 L 83.0 86.0 L 82.0 86.0 L 81.0 86.0 L 80.0 86.0 L 79.0 86.0 L 78.0 86.0 L 77.0 86.0 L 76.0 86.0 L 75.0 86.0 L 74.0 86.0 L 73.0 86.0 L 72.0 86.0 L 71.0 86.0 L 70.0 86.0 L 69.0 86.0 L 68.0 86.0 L 67.0 86.0 L 66.0 86.0 L 65.0 86.0 L 64.0 86.0 L 63.0 86.0 L 62.0 86.0 L 61.0 86.0 L 60.0 86.0 L 59.0 86.0 L 58.0 86.0 L 57.0 86.0 L 56.0 86.0 L 55.0 86.0 L 54.0 86.0 L 53.0 86.0 L 52.0 86.0 L 51.0 86.0 L 50.0 86.0 L 49.0 86.0 L 48.0 86.0 L 47.0 86.0 L 46.0 86.0 L 45.0 86.0 L 44.0 86.0 L 43.0 86.0 L 42.0 86.0 L 41.0 86.0 L 40.0 86.0 L 39.0 86.0 L 38.0 86.0 L 37.0 86.0 L 36.0 86.0 L 35.0 86.0 L 34.0 86.0 L 33.0 86.0 L 32.0 86.0 L 31.0 86.0 L 30.0 86.0 L 29.0 86.0 L 28.0 86.0 L 27.0 86.0 L 26.0 86.0 L 25.0 86.0 L 24.0 86.0 L 23.0 86.0 L 22.0 86.0 L 21.0 86.0 L 20.0 86.0 L 19.0 86.0 L 18.0 86.0 L 17.0 86.0 L 16.0 86.0 L 15.0 86.0 L 14.0 86.0 L 13.0 86.0 L 12.0 86.0 L 11.0 86.0 L 10.0 86.0 L 9.0 86.0 L 8.0 86.0 L 7.0 86.0 L 6.0 86.0 L 5.0 86.0 L 4.333333333333333 86.33333333333333 L 4.0 87.0 L 4.0 88.0 L 4.333333333333333 88.66666666666667 L 5.0 89.0 L 6.0 89.0 L 7.0 89.0 L 8.0 89.0 L 9.0 89.0 L 10.0 89.0 L 11.0 89.0 L 12.0 89.0 L 13.0 89.0 L 14.0 89.0 L 15.0 89.0 L 16.0 89.0 L 17.0 89.0 L 18.0 89.0 L 19.0 89.0 L 20.0 89.0 L 21.0 89.0 L 22.0 89.0 L 23.0 89.0 L 24.0 89.0 L 25.0 89.0 L 26.0 89.0 L 27.0 89.0 L 28.0 89.0 L 29.0 89.0 L 30.0 89.0 L 31.0 89.0 L 32.0 89.0 L 33.0 89.0 L 34.0 89.0 L 35.0 89.0 L 36.0 89.0 L 37.0 89.0 L 38.0 89.0 L 39.0 89.0 L 40.0 89.0 L 41.0 89.0 L 42.0 89.0 L 43.0 89.0 L 44.0 89.0 L 45.0 89.0 L 46.0 89.0 L 47.0 89.0 L 48.0 89.0 L 49.0 89.0 L 50.0 89.0 L 51.0 89.0 L 52.0 89.0 L 53.0 89.0 L 54.0 89.0 L 55.0 89.0 L 56.0 89.0 L 57.0 89.0 L 58.0 89.0 L 58.5 89.0 Z" stroke="none" fill="rgb(155,99,62)" />
<path d="M 59.5 92.0 L 60.0 92.0 L 61.0 92.0 L 62.0 92.0 L 63.0 92.0 L 64.0 92.0 L 65.0 92.0 L 66.0 92.0 L 67.0 92.0 L 68.0 92.0 L 69.0 92.0 L 70.0 92.0 L 71.0 92.0 L 72.0 92.0 L 73.0 92.0 L 74.0 92.0 L 75.0 92.0 L 76.0 92.0 L 77.0 92.0 L 78.0 92.0 L 79.0 92.0 L 80.0 92.0 L 81.0 92.0 L 82.0 92.0 L 83.0 92.0 L 84.0 92.0 L 85.0 92.0 L 86.0 92.0 L 87.0 92.0 L 88.0 92.0 L 89.0 92.0 L 90.0 92.0 L 91.0 92.0 L 92.0 92.0 L 93.0 92.0 L 94.0 92.0 L 95.0 92.0 L 96.0 92.0 L 97.0 92.0 L 98.0 92.0 L 99.0 92.0 L 100.0 92.0 L 101.0 92.0 L 102.0 92.0 L 103.0 92.0 L 104.0 92.0 L 105.0 92.0 L 106.0 92.0 L 107.0 92.0 L 108.0 92.0 L 109.0 92.0 L 110.0 92.0 L 111.0 92.0 L 112.0 92.0 L 113.0 92.0 L 114.0 92.0 L 115.0 92.0 L 116.0 92.0 L 117.0 92.0 L 118.0 92.0 L 119.0 92.0 L 120.0 92.0 L 121.0 92.0 L 122.0 92.0 L 123.0 92.0 L 124.0 92.0 L 124.66666666666667 91.66666666666667 L 125.0 91.0 L 125.0 90.0 L 124.66666666666667 89.33333333333333 L 124.0 89.0 L 123.0 89.0 L 122.0 89.0 L 121.0 89.0 L 120.0 89.0 L 119.0 89.0 L 118.0 89.0 L 117.0 89.0 L 116.0 89.0 L 115.0 89.0 L 114.0 89.0 L 113.0 89.0 L 112.0 89.0 L 111.0 89.0 L 110.0 89.0 L 109.0 89.0 L 108.0 89.0 L 107.0 89.0 L 106.0 89.0 L 105.0 89.0 L 104.0 89.0 L 103.0 89.0 L 102.0 89.0 L 101.0 89.0 L 100.0 89.0 L 99.0 89.0 L 98.0 89.0 L 97.0 89.0 L 96.0 89.0 L 95.0 89.0 L 94.0 89.0 L 93.0 89.0 L 92.0 89.0 L 91.0 89.0 L 90.0 89.0 L 89.0 89.0 L 88.0 89.0 L 87.0 89.0 L 86.0 89.0 L 85.0 89.0 L 84.0 89.0 L 83.0 89.0 L 82.0 89.0 L 81.0 89.0 L 80.0 89.0 L 79.0 89.0 L 78.0 89.0 L 77.0 89.0 L 76.0 89.0 L 75.0 89.0 L 74.0 89.0 L 73.0 89.0 L 72.0 89.0 L 71.0 89.0 L 70.0 89.0 L 69.0 89.0 L 68.0 89.0 L 67.0 89.0 L 66.0 89.0 L 65.0 89.0 L 64.0 89.0 L 63.0 89.0 L 62.0 89.0 L 61.0 89.0 L 60.0 89.0 L 59.0 89.0 L 58.0 89.0 L 57.0 89.0 L 56.0 89.0 L 55.0 89.0 L 54.0 89.0 L 53.0 89.0 L 52.0 89.0 L 51.0 89.0 L 50.0 89.0 L 49.0 89.0 L 48.0 89.0 L 47.0 89.0 L 46.0 89.0 L 45.0 89.0 L 44.0 89.0 L 43.0 89.0 L 42.0 89.0 L 41.0 89.0 L 40.0 89.0 L 39.0 89.0 L 38.0 89.0 L 37.0 89.0 L 36.0 89.0 L 35.0 89.0 L 34.0 89.0 L 33.0 89.0 L 32.0 89.0 L 31.0 89.0 L 30.0 89.0 L 29.0 89.0 L 28.0 89.0 L 27.0 89.0 L 26.0 89.0 L 25.0 89.0 L 24.0 89.0 L 23.0 89.0 L 22.0 89.0 L 21.0 89.0 L 20.0 89.0 L 19.0 89.0 L 18.0 89.0 L 17.0 89.0 L 16.0 89.0 L 15.0 89.0 L 14.0 89.0 L 13.0 89.0 L 12.0 89.0 L 11.0 89.0 L 10.0 89.0 L 9.0 89.0 L 8.0 89.0 L 7.0 89.0 L 6.0 89.0 L 5.0 89.0 L 4.333333333333333 89.33333333333333 L 4.0 90.0 L 4.0 91.0 L 4.333333333333333 91.66666666666667 L 5.0 92.0 L 6.0 92.0 L 7.0 92.0 L 8.0 92.0 L 9.0 92.0 L 10.0 92.0 L 11.0 92.0 L 12.0 92.0 L 13.0 92.0 L 14.0 92.0 L 15.0 92.0 L 16.0 92.0 L 17.0 92.0 L 18.0 92.0 L 19.0 92.0 L 20.0 92.0 L 21.0 92.0 L 22.0 92.0 L 23.0 92.0 L 24.0 92.0 L 25.0 92.0 L 26.0 92.0 L 27.0 92.0 L 28.0 92.0 L 29.0 92.0 L 30.0 92.0 L 31.0 92.0 L 32.0 92.0 L 33.0 92.0 L 34.0 92.0 L 35.0 92.0 L 36.0 92.0 L 37.0 92.0 L 38.0 92.0 L 39.0 92.0 L 40.0 92.0 L 41.0 92.0 L 42.0 92.0 L 43.0 92.0 L 44.0 92.0 L 45.0 92.0 L 46.0 92.0 L 47.0 92.0 L 48.0 92.0 L 49.0 92.0 L 50.0 92.0 L 51.0 92.0 L 52.0 92.0 L 53.0 92.0 L 54.0 92.0 L 55.0 92.0 L 56.0 92.0 L 57.0 92.0 L 58.0 92.0 L 58.5 92.0 Z" stroke="none" fill="rgb(154,98,62)" />
<path d="M 12.5 94.0 L 13.0 94.0 L 14.0 94.0 L 15.0 94.0 L 16.0 94.0 L 17.0 94.0 L 18.0 94.0 L 19.0 94.0 L 20.0 94.0 L 21.0 94.0 L 22.0 94.0 L 23.0 94.0 L 24.0 94.0 L 25.0 94.0 L 26.0 94.0 L 27.0 94.0 L 28.0 94.0 L 29.0 94.0 L 30.0 94.0 L 31.0 94.0 L 32.0 94.0 L 33.0 94.0 L 34.0 94.0 L 35.0 94.0 L 36.0 94.0 L 37.0 94.0 L 38.0 94.0 L 39.0 94.0 L 40.0 94.0 L 41.0 94.0 L 42.0 94.0 L 43.0 94.0 L 44.0 94.0 L 45.0 94.0 L 46.0 94.0 L 47.0 94.0 L 48.0 94.0 L 49.0 94.0 L 50.0 94.0 L 51.0 94.0 L 52.0 94.0 L 53.0 94.0 L 54.0 94.0 L 55.0 94.0 L 56.0 94.0 L 57.0 94.0 L 58.0 94.0 L 59.0 94.0 L 60.0 94.0 L 61.0 94.0 L 62.0 94.0 L 63.0 94.0 L 64.0 94.0 L 65.0 94.0 L 66.0 94.0 L 67.0 94.0 L 68.0 94.0 L 69.0 94.0 L 70.0 94.0 L 71.0 94.0 L 72.0 94.0 L 73.0 94.0 L 74.0 94.0 L 75.0 94.0 L 76.0 94.0 L 77.0 94.0 L 78.0 94.0 L 79.0 94.0 L 80.0 94.0 L 81.0 94.0 L 82.0 94.0 L 83.0 94.0 L 84.0 94.0 L 85.0 94.0 L 86.0 94.0 L 87.0 94.0 L 88.0 94.0 L 89.0 94.0 L 90.0 94.0 L 91.0 94.0 L 92.0 94.0 L 93.0 94.0 L 94.0 94.0 L 95.0 94.0 L 96.0 94.0 L 97.0 94.0 L 98.0 94.0 L 99.0 94.0 L 100.0 94.0 L 101.0 94.0 L 102.0 94.0 L 103.0 94.0 L 104.0 94.0 L 105.0 94.0 L 106.0 94.0 L 107.0 94.0 L 108.0 94.0 L 109.0 94.0 L 110.0 94.0 L 111.0 94.0 L 112.0 94.0 L 113.0 94.0 L 114.0 94.0 L 115.0 94.0 L 116.0 94.0 L 117.0 94.0 L 118.0 94.0 L 119.0 94.0 L 120.0 94.0 L 121.0 94.0 L 122.0 94.0 L 123.0 94.0 L 124.0 94.0 L 124.66666666666667 93.66666666666667 L 125.0 93.0 L 124.66666666666667 92.33333333333333 L 124.0 92.0 L 123.0 92.0 L 122.0 92.0 L 121.0 92.0 L 120.0 92.0 L 119.0 92.0 L 118.0 92.0 L 117.0 92.0 L 116.0 92.0 L 115.0 92.0 L 114.0 92.0 L 113.0 92.0 L 112.0 92.0 L 111.0 92.0 L 110.0 92.0 L 109.0 92.0 L 108.0 92.0 L 107.0 92.0 L 106.0 92.0 L 105.0 92.0 L 104.0 92.0 L 103.0 92.0 L 102.0 92.0 L 101.0 92.0 L 100.0 92.0 L 99.0 92.0 L 98.0 92.0 L 97.0 92.0 L 96.0 92.0 L 95.0 92.0 L 94.0 92.0 L 93.0 92.0 L 92.0 92.0 L 91.0 92.0 L 90.0 92.0 L 89.0 92.0 L 88.0 92.0 L 87.0 92.0 L 86.0 92.0 L 85.0 92.0 L 84.0 92.0 L 83.0 92.0 L 82.0 92.0 L 81.0 92.0 L 80.0 92.0 L 79.0 92.0 L 78.0 92.0 L 77.0 92.0 L 76.0 92.0 L 75.0 92.0 L 74.0 92.0 L 73.0 92.0 L 72.0 92.0 L 71.0 92.0 L 70.0 92.0 L 69.0 92.0 L 68.0 92.0 L 67.0 92.0 L 66.0 92.0 L 65.0 92.0 L 64.0 92.0 L 63.0 92.0 L 62.0 92.0 L 61.0 92.0 L 60.0 92.0 L 59.0 92.0 L 58.0 92.0 L 57.0 92.0 L 56.0 92.0 L 55.0 92.0 L 54.0 92.0 L 53.0 92.0 L 52.0 92.0 L 51.0 92.0 L 50.0 92.0 L 49.0 92.0 L 48.0 92.0 L 47.0 92.0 L 46.0 92.0 L 45.0 92.0 L 44.0 92.0 L 43.0 92.0 L 42.0 92.0 L 41.0 92.0 L 40.0 92.0 L 39.0 92.0 L 38.0 92.0 L 37.0 92.0 L 36.0 92.0 L 35.0 92.0 L 34.0 92.0 L 33.0 92.0 L 32.0 92.0 L 31.0 92.0 L 30.0 92.0 L 29.0 92.0 L 28.0 92.0 L 27.0 92.0 L 26.0 92.0 L 25.0 92.0 L 24.0 92.0 L 23.0 92.0 L 22.0 92.0 L 21.0 92.0 L 20.0 92.0 L 19.0 92.0 L 18.0 92.0 L 17.0 92.0 L 16.0 92.0 L 15.0 92.0 L 14.0 92.0 L 13.0 92.0 L 12.0 92.0 L 11.0 92.0 L 10.0 92.0 L 9.0 92.0 L 8.0 92.0 L 7.0 92.0 L 6.0 92.0 L 5.0 92.0 L 4.333333333333333 92.33333333333333 L 4.0 93.0 L 4.333333333333333 93.66666666666667 L 5.0 94.0 L 6.0 94.0 L 7.0 94.0 L 8.0 94.0 L 9.0 94.0 L 10.0 94.0 L 11.0 94.0 L 11.5 94.0 Z" stroke="none" fill="rgb(153,98,62)" />
<path d="M 95.5 97.0 L 96.0 97.0 L 97.0 97.0 L 98.0 97.0 L 99.0 97.0 L 100.0 97.0 L 101.0 97.0 L 102.0 97.0 L 103.0 97.0 L 104.0 97.0 L 105.0 97.0 L 106.0 97.0 L 107.0 97.0 L 108.0 97.0 L 109.0 97.0 L 110.0 97.0 L 111.0 97.0 L 112.0 97.0 L 113.0 97.0 L 114.0 97.0 L 115.0 97.0 L 116.0 97.0 L 117.0 97.0 L 118.0 97.0 L 119.0 97.0 L 120.0 97.0 L 121.0 97.0 L 122.0 97.0 L 123.0 97.0 L 124.0 97.0 L 124.66666666666667 96.66666666666667 L 125.0 96.0 L 125.0 95.0 L 124.66666666666667 94.33333333333333 L 124.0 94.0 L 123.0 94.0 L 122.0 94.0 L 121.0 94.0 L 120.0 94.0 L 119.0 94.0 L 118.0 94.0 L 117.0 94.0 L 116.0 94.0 L 115.0 94.0 L 114.0 94.0 L 113.0 94.0 L 112.0 94.0 L 111.0 94.0 L 110.0 94.0 L 109.0 94.0 L 108.0 94.0 L 107.0 94.0 L 106.0 94.0 L 105.0 94.0 L 104.0 94.0 L 103.0 94.0 L 102.0 94.0 L 101.0 94.0 L 100.0 94.0 L 99.0 94.0 L 98.0 94.0 L 97.0 94.0 L 96.0 94.0 L 95.0 94.0 L 94.0 94.0 L 93.0 94.0 L 92.0 94.0 L 91.0 94.0 L 90.0 94.0 L 89.0 94.0 L 88.0 94.0 L 87.0 94.0 L 86.0 94.0 L 85.0 94.0 L 84.0 94.0 L 83.0 94.0 L 82.0 94.0 L 81.0 94.0 L 80.0 94.0 L 79.0 94.0 L 78.0 94.0 L 77.0 94.0 L 76.0 94.0 L 75.0 94.0 L 74.0 94.0 L 73.0 94.0 L 72.0 94.0 L 71.0 94.0 L 70.0 94.0 L 69.0 94.0 L 68.0 94.0 L 67.0 94.0 L 66.0 94.0 L 65.0 94.0 L 64.0 94.0 L 63.0 94.0 L 62.0 94.0 L 61.0 94.0 L 60.0 94.0 L 59.0 94.0 L 58.0 94.0 L 57.0 94.0 L 56.0 94.0 L 55.0 94.0 L 54.0 94.0 L 53.0 94.0 L 52.0 94.0 L 51.0 94.0 L 50.0 94.0 L 49.0 94.0 L 48.0 94.0 L 47.0 94.0 L 46.0 94.0 L 45.0 94.0 L 44.0 94.0 L 43.0 94.0 L 42.0 94.0 L 41.0 94.0 L 40.0 94.0 L 39.0 94.0 L 38.0 94.0 L 37.0 94.0 L 36.0 94.0 L 35.0 94.0 L 34.0 94.0 L 33.0 94.0 L 32.0 94.0 L 31.0 94.0 L 30.0 94.0 L 29.0 94.0 L 28.0 94.0 L 27.0 94.0 L 26.0 94.0 L 25.0 94.0 L 24.0 94.0 L 23.0 94.0 L 22.0 94.0 L 21.0 94.0 L 20.0 94.0 L 19.0 94.0 L 18.0 94.0 L 17.0 94.0 L 16.0 94.0 L 15.0 94.0 L 14.0 94.0 L 13.0 94.0 L 12.0 94.0 L 11.0 94.0 L 10.0 94.0 L 9.0 94.0 L 8.0 94.0 L 7.0 94.0 L 6.0 94.0 L 5.0 94.0 L 4.333333333333333 94.33333333333333 L 4.0 95.0 L 4.0 96.0 L 4.333333333333333 96.66666666666667 L 5.0 97.0 L 6.0 97.0 L 7.0 97.0 L 8.0 97.0 L 9.0 97.0 L 10.0 97.0 L 11.0 97.0 L 12.0 97.0 L 13.0 97.0 L 14.0 97.0 L 15.0 97.0 L 16.0 97.0 L 17.0 97.0 L 18.0 97.0 L 19.0 97.0 L 20.0 97.0 L 21.0 97.0 L 22.0 97.0 L 23.0 97.0 L 24.0 97.0 L 25.0 97.0 L 26.0 97.0 L 27.0 97.0 L 28.0 97.0 L 29.0 97.0 L 30.0 97.0 L 31.0 97.0 L 32.0 97.0 L 33.0 97.0 L 34.0 97.0 L 35.0 97.0 L 36.0 97.0 L 37.0 97.0 L 38.0 97.0 L 39.0 97.0 L 40.0 97.0 L 41.0 97.0 L 42.0 97.0 L 43.0 97.0 L 44.0 97.0 L 45.0 97.0 L 46.0 97.0 L 47.0 97.0 L 48.0 97.0 L 49.0 97.0 L 50.0 97.0 L 51.0 97.0 L 52.0 97.0 L 53.0 97.0 L 54.0 97.0 L 55.0 97.0 L 56.0 97.0 L 57.0 97.0 L 58.0 97.0 L 59.0 97.0 L 60.0 97.0 L 61.0 97.0 L 62.0 97.0 L 63.0 97.0 L 64.0 97.0 L 65.0 97.0 L 66.0 97.0 L 67.0 97.0 L 68.0 97.0 L 69.0 97.0 L 70.0 97.0 L 71.0 97.0 L 72.0 97.0 L 73.0 97.0 L 74.0 97.0 L 75.0 97.0 L 76.0 97.0 L 77.0 97.0 L 78.0 97.0 L 79.0 97.0 L 80.0 97.0 L 81.0 97.0 L 82.0 97.0 L 83.0 97.0 L 84.0 97.0 L 85.0 97.0 L 86.0 97.0 L 87.0 97.0 L 88.0 97.0 L 89.0 97.0 L 90.0 97.0 L 91.0 97.0 L 92.0 97.0 L 93.0 97.0 L 94.0 97.0 L 94.5 97.0 Z" stroke="none" fill="rgb(152,97,61)" />
<path d="M 72.5 99.0 L 73.0 99.0 L 74.0 99.0 L 75.0 99.0 L 76.0 99.0 L 77.0 99.0 L 78.0 99.0 L 79.0 99.0 L 80.0 99.0 L 81.0 99.0 L 82.0 99.0 L 83.0 99.0 L 84.0 99.0 L 85.0 99.0 L 86.0 99.0 L 87.0 99.0 L 88.0 99.0 L 89.0 99.0 L 90.0 99.0 L 91.0 99.0 L 92.0 99.0 L 93.0 99.0 L 94.0 99.0 L 95.0 99.0 L 96.0 99.0 L 97.0 99.0 L 98.0 99.0 L 99.0 99.0 L 100.0 99.0 L 101.0 99.0 L 102.0 99.0 L 103.0 99.0 L 104.0 99.0 L 105.0 99.0 L 106.0 99.0 L 107.0 99.0 L 108.0 99.0 L 109.0 99.0 L 110.0 99.0 L 111.0 99.0 L 112.0 99.0 L 113.0 99.0 L 114.0 99.0 L 115.0 99.0 L 116.0 99.0 L 117.0 99.0 L 118.0 99.0 L 119.0 99.0 L 120.0 99.0 L 121.0 99.0 L 122.0 99.0 L 123.0 99.0 L 124.0 99.0 L 124.66666666666667 98.66666666666667 L 125.0 98.0 L 124.66666666666667 97.33333333333333 L 124.0 97.0 L 123.0 97.0 L 122.0 97.0 L 121.0 97.0 L 120.0 97.0 L 119.0 97.0 L 118.0 97.0 L 117.0 97.0 L 116.0 97.0 L 115.0 97.0 L 114.0 97.0 L 113.0 97.0 L 112.0 97.0 L 111.0 97.0 L 110.0 97.0 L 109.0 97.0 L 108.0 97.0 L 107.0 97.0 L 106.0 97.0 L 105.0 97.0 L 104.0 97.0 L 103.0 97.0 L 102.0 97.0 L 101.0 97.0 L 100.0 97.0 L 99.0 97.0 L 98.0 97.0 L 97.0 97.0 L 96.0 97.0 L 95.0 97.0 L 94.0 97.0 L 93.0 97.0 L 92.0 97.0 L 91.0 97.0 L 90.0 97.0 L 89.0 97.0 L 88.0 97.0 L 87.0 97.0 L 86.0 97.0 L 85.0 97.0 L 84.0 97.0 L 83.0 97.0 L 82.0 97.0 L 81.0 97.0 L 80.0 97.0 L 79.0 97.0 L 78.0 97.0 L 77.0 97.0 L 76.0 97.0 L 75.0 97.0 L 74.0 97.0 L 73.0 97.0 L 72.0 97.0 L 71.0 97.0 L 70.0 97.0 L 69.0 97.0 L 68.0 97.0 L 67.0 97.0 L 66.0 97.0 L 65.0 97.0 L 64.0 97.0 L 63.0 97.0 L 62.0 97.0 L 61.0 97.0 L 60.0 97.0 L 59.0 97.0 L 58.0 97.0 L 57.0 97.0 L 56.0 97.0 L 55.0 97.0 L 54.0 97.0 L 53.0 97.0 L 52.0 97.0 L 51.0 97.0 L 50.0 97.0 L 49.0 97.0 L 48.0 97.0 L 47.0 97.0 L 46.0 97.0 L 45.0 97.0 L 44.0 97.0 L 43.0 97.0 L 42.0 97.0 L 41.0 97.0 L 40.0 97.0 L 39.0 97.0 L 38.0 97.0 L 37.0 97.0 L 36.0 97.0 L 35.0 97.0 L 34.0 97.0 L 33.0 97.0 L 32.0 97.0 L 31.0 97.0 L 30.0 97.0 L 29.0 97.0 L 28.0 97.0 L 27.0 97.0 L 26.0 97.0 L 25.0 97.0 L 24.0 97.0 L 23.0 97.0 L 22.0 97.0 L 21.0 97.0 L 20.0 97.0 L 19.0 97.0 L 18.0 97.0 L 17.0 97.0 L 16.0 97.0 L 15.0 97.0 L 14.0 97.0 L 13.0 97.0 L 12.0 97.0 L 11.0 97.0 L 10.0 97.0 L 9.0 97.0 L 8.0 97.0 L 7.0 97.0 L 6.0 97.0 L 5.0 97.0 L 4.333333333333333 97.33333333333333 L 4.0 98.0 L 4.333333333333333 98.66666666666667 L 5.0 99.0 L 6.0 99.0 L 7.0 99.0 L 8.0 99.0 L 9.0 99.0 L 10.0 99.0 L 11.0 99.0 L 12.0 99.0 L 13.0 99.0 L 14.0 99.0 L 15.0 99.0 L 16.0 99.0 L 17.0 99.0 L 18.0 99.0 L 19.0 99.0 L 20.0 99.0 L 21.0 99.0 L 22.0 99.0 L 23.0 99.0 L 24.0 99.0 L 25.0 99.0 L 26.0 99.0 L 27.0 99.0 L 28.0 99.0 L 29.0 99.0 L 30.0 99.0 L 31.0 99.0 L 32.0 99.0 L 33.0 99.0 L 34.0 99.0 L 35.0 99.0 L 36.0 99.0 L 37.0 99.0 L 38.0 99.0 L 39.0 99.0 L 40.0 99.0 L 41.0 99.0 L 42.0 99.0 L 43.0 99.0 L 44.0 99.0 L 45.0 99.0 L 46.0 99.0 L 47.0 99.0 L 48.0 99.0 L 49.0 99.0 L 50.0 99.0 L 51.0 99.0 L 52.0 99.0 L 53.0 99.0 L 54.0 99.0 L 55.0 99.0 L 56.0 99.0 L 57.0 99.0 L 58.0 99.0 L 59.0 99.0 L 60.0 99.0 L 61.0 99.0 L 62.0 99.0 L 63.0 99.0 L 64.0 99.0 L 65.0 99.0 L 66.0 99.0 L 67.0 99.0 L 68.0 99.0 L 69.0 99.0 L 70.0 99.0 L 71.0 99.0 L 71.5 99.0 Z" stroke="none" fill="rgb(152,96,61)" />
<path d="M 24.5 101.0 L 25.0 101.0 L 26.0 101.0 L 27.0 101.0 L 28.0 101.0 L 29.0 101.0 L 30.0 101.0 L 31.0 101.0 L 32.0 101.0 L 33.0 101.0 L 34.0 101.0 L 35.0 101.0 L 36.0 101.0 L 37.0 101.0 L 38.0 101.0 L 39.0 101.0 L 40.0 101.0 L 41.0 101.0 L 42.0 101.0 L 43.0 101.0 L 44.0 101.0 L 45.0 101.0 L 46.0 101.0 L 47.0 101.0 L 48.0 101.0 L 49.0 101.0 L 50.0 101.0 L 51.0 101.0 L 52.0 101.0 L 53.0 101.0 L 54.0 101.0 L 55.0 101.0 L 56.0 101.0 L 57.0 101.0 L 58.0 101.0 L 59.0 101.0 L 60.0 101.0 L 61.0 101.0 L 62.0 101.0 L 63.0 101.0 L 64.0 101.0 L 65.0 101.0 L 66.0 101.0 L 67.0 101.0 L 68.0 101.0 L 69.0 101.0 L 70.0 101.0 L 71.0 101.0 L 72.0 101.0 L 73.0 101.0 L 74.0 101.0 L 75.0 101.0 L 76.0 101.0 L 77.0 101.0 L 78.0 101.0 L 79.0 101.0 L 80.0 101.0 L 81.0 101.0 L 82.0 101.0 L 83.0 101.0 L 84.0 101.0 L 85.0 101.0 L 86.0 101.0 L 87.0 101.0 L 88.0 101.0 L 89.0 101.0 L 90.0 101.0 L 91.0 101.0 L 92.0 101.0 L 93.0 101.0 L 94.0 101.0 L 95.0 101.0 L 96.0 101.0 L 97.0 101.0 L 98.0 101.0 L 99.0 101.0 L 100.0 101.0 L 101.0 101.0 L 102.0 101.0 L 103.0 101.0 L 104.0 101.0 L 105.0 101.0 L 106.0 101.0 L 107.0 101.0 L 108.0 101.0 L 109.0 101.0 L 110.0 101.0 L 111.0 101.0 L 112.0 101.0 L 113.0 101.0 L 114.0 101.0 L 115.0 101.0 L 116.0 101.0 L 117.0 101.0 L 118.0 101.0 L 119.0 101.0 L 120.0 101.0 L 121.0 101.0 L 122.0 101.0 L 123.0 101.0 L 124.0 101.0 L 124.66666666666667 100.66666666666667 L 125.0 100.0 L 124.66666666666667 99.33333333333333 L 124.0 99.0 L 123.0 99.0 L 122.0 99.0 L 121.0 99.0 L 120.0 99.0 L 119.0 99.0 L 118.0 99.0 L 117.0 99.0 L 116.0 99.0 L 115.0 99.0 L 114.0 99.0 L 113.0 99.0 L 112.0 99.0 L 111.0 99.0 L 110.0 99.0 L 109.0 99.0 L 108.0 99.0 L 107.0 99.0 L 106.0 99.0 L 105.0 99.0 L 104.0 99.0 L 103.0 99.0 L 102.0 99.0 L 101.0 99.0 L 100.0 99.0 L 99.0 99.0 L 98.0 99.0 L 97.0 99.0 L 96.0 99.0 L 95.0 99.0 L 94.0 99.0 L 93.0 99.0 L 92.0 99.0 L 91.0 99.0 L 90.0 99.0 L 89.0 99.0 L 88.0 99.0 L 87.0 99.0 L 86.0 99.0 L 85.0 99.0 L 84.0 99.0 L 83.0 99.0 L 82.0 99.0 L 81.0 99.0 L 80.0 99.0 L 79.0 99.0 L 78.0 99.0 L 77.0 99.0 L 76.0 99.0 L 75.0 99.0 L 74.0 99.0 L 73.0 99.0 L 72.0 99.0 L 71.0 99.0 L 70.0 99.0 L 69.0 99.0 L 68.0 99.0 L 67.0 99.0 L 66.0 99.0 L 65.0 99.0 L 64.0 99.0 L 63.0 99.0 L 62.0 99.0 L 61.0 99.0 L 60.0 99.0 L 59.0 99.0 L 58.0 99.0 L 57.0 99.0 L 56.0 99.0 L 55.0 99.0 L 54.0 99.0 L 53.0 99.0 L 52.0 99.0 L 51.0 99.0 L 50.0 99.0 L 49.0 99.0 L 48.0 99.0 L 47.0 99.0 L 46.0 99.0 L 45.0 99.0 L 44.0 99.0 L 43.0 99.0 L 42.0 99.0 L 41.0 99.0 L 40.0 99.0 L 39.0 99.0 L 38.0 99.0 L 37.0 99.0 L 36.0 99.0 L 35.0 99.0 L 34.0 99.0 L 33.0 99.0 L 32.0 99.0 L 31.0 99.0 L 30.0 99.0 L 29.0 99.0 L 28.0 99.0 L 27.0 99.0 L 26.0 99.0 L 25.0 99.0 L 24.0 99.0 L 23.0 99.0 L 22.0 99.0 L 21.0 99.0 L 20.0 99.0 L 19.0 99.0 L 18.0 99.0 L 17.0 99.0 L 16.0 99.0 L 15.0 99.0 L 14.0 99.0 L 13.0 99.0 L 12.0 99.0 L 11.0 99.0 L 10.0 99.0 L 9.0 99.0 L 8.0 99.0 L 7.0 99.0 L 6.0 99.0 L 5.0 99.0 L 4.333333333333333 99.33333333333333 L 4.0 100.0 L 4.333333333333333 100.66666666666667 L 5.0 101.0 L 6.0 101.0 L 7.0 101.0 L 8.0 101.0 L 9.0 101.0 L 10.0 101.0 L 11.0 101.0 L 12.0 101.0 L 13.0 101.0 L 14.0 101.0 L 15.0 101.0 L 16.0 101.0 L 17.0 101.0 L 18.0 101.0 L 19.0 101.0 L 20.0 101.0 L 21.0 101.0 L 22.0 101.0 L 23.0 101.0 L 23.5 101.0 Z" stroke="none" fill="rgb(151,96,60)" />
<path d="M 24.5 104.0 L 25.0 104.0 L 26.0 104.0 L 27.0 104.0 L 28.0 104.0 L 29.0 104.0 L 30.0 104.0 L 31.0 104.0 L 32.0 104.0 L 33.0 104.0 L 34.0 104.0 L 35.0 104.0 L 36.0 104.0 L 37.0 104.0 L 38.0 104.0 L 39.0 104.0 L 40.0 104.0 L 41.0 104.0 L 42.0 104.0 L 43.0 104.0 L 44.0 104.0 L 45.0 104.0 L 46.0 104.0 L 47.0 104.0 L 48.0 104.0 L 49.0 104.0 L 50.0 104.0 L 51.0 104.0 L 52.0 104.0 L 53.0 104.0 L 54.0 104.0 L 55.0 104.0 L 56.0 104.0 L 57.0 104.0 L 58.0 104.0 L 59.0 104.0 L 60.0 104.0 L 61.0 104.0 L 62.0 104.0 L 63.0 104.0 L 64.0 104.0 L 65.0 104.0 L 66.0 104.0 L 67.0 104.0 L 68.0 104.0 L 69.0 104.0 L 70.0 104.0 L 71.0 104.0 L 72.0 104.0 L 73.0 104.0 L 74.0 104.0 L 75.0 104.0 L 76.0 104.0 L 77.0 104.0 L 78.0 104.0 L 79.0 104.0 L 80.0 104.0 L 81.0 104.0 L 82.0 104.0 L 83.0 104.0 L 84.0 104.0 L 85.0 104.0 L 86.0 104.0 L 87.0 104.0 L 88.0 104.0 L 89.0 104.0 L 90.0 104.0 L 91.0 104.0 L 92.0 104.0 L 93.0 104.0 L 94.0 104.0 L 95.0 104.0 L 96.0 104.0 L 97.0 104.0 L 98.0 104.0 L 99.0 104.0 L 100.0 104.0 L 101.0 104.0 L 102.0 104.0 L 103.0 104.0 L 104.0 104.0 L 105.0 104.0 L 106.0 104.0 L 107.0 104.0 L 108.0 104.0 L 109.0 104.0 L 110.0 104.0 L 111.0 104.0 L 112.0 104.0 L 113.0 104.0 L 114.0 104.0 L 115.0 104.0 L 116.0 104.0 L 117.0 104.0 L 118.0 104.0 L 119.0 104.0 L 120.0 104.0 L 121.0 104.0 L 122.0 104.0 L 123.0 104.0 L 124.0 104.0 L 124.66666666666667 103.66666666666667 L 125.0 103.0 L 125.0 102.0 L 124.66666666666667 101.33333333333333 L 124.0 101.0 L 123.0 101.0 L 122.0 101.0 L 121.0 101.0 L 120.0 101.0 L 119.0 101.0 L 118.0 101.0 L 117.0 101.0 L 116.0 101.0 L 115.0 101.0 L 114.0 101.0 L 113.0 101.0 L 112.0 101.0 L 111.0 101.0 L 110.0 101.0 L 109.0 101.0 L 108.0 101.0 L 107.0 101.0 L 106.0 101.0 L 105.0 101.0 L 104.0 101.0 L 103.0 101.0 L 102.0 101.0 L 101.0 101.0 L 100.0 101.0 L 99.0 101.0 L 98.0 101.0 L 97.0 101.0 L 96.0 101.0 L 95.0 101.0 L 94.0 101.0 L 93.0 101.0 L 92.0 101.0 L 91.0 101.0 L 90.0 101.0 L 89.0 101.0 L 88.0 101.0 L 87.0 101.0 L 86.0 101.0 L 85.0 101.0 L 84.0 101.0 L 83.0 101.0 L 82.0 101.0 L 81.0 101.0 L 80.0 101.0 L 79.0 101.0 L 78.0 101.0 L 77.0 101.0 L 76.0 101.0 L 75.0 101.0 L 74.0 101.0 L 73.0 101.0 L 72.0 101.0 L 71.0 101.0 L 70.0 101.0 L 69.0 101.0 L 68.0 101.0 L 67.0 101.0 L 66.0 101.0 L 65.0 101.0 L 64.0 101.0 L 63.0 101.0 L 62.0 101.0 L 61.0 101.0 L 60.0 101.0 L 59.0 101.0 L 58.0 101.0 L 57.0 101.0 L 56.0 101.0 L 55.0 101.0 L 54.0 101.0 L 53.0 101.0 L 52.0 101.0 L 51.0 101.0 L 50.0 101.0 L 49.0 101.0 L 48.0 101.0 L 47.0 101.0 L 46.0 101.0 L 45.0 101.0 L 44.0 101.0 L 43.0 101.0 L 42.0 101.0 L 41.0 101.0 L 40.0 101.0 L 39.0 101.0 L 38.0 101.0 L 37.0 101.0 L 36.0 101.0 L 35.0 101.0 L 34.0 101.0 L 33.0 101.0 L 32.0 101.0 L 31.0 101.0 L 30.0 101.0 L 29.0 101.0 L 28.0 101.0 L 27.0 101.0 L 26.0 101.0 L 25.0 101.0 L 24.0 101.0 L 23.0 101.0 L 22.0 101.0 L 21.0 101.0 L 20.0 101.0 L 19.0 101.0 L 18.0 101.0 L 17.0 101.0 L 16.0 101.0 L 15.0 101.0 L 14.0 101.0 L 13.0 101.0 L 12.0 101.0 L 11.0 101.0 L 10.0 101.0 L 9.0 101.0 L 8.0 101.0 L 7.0 101.0 L 6.0 101.0 L 5.0 101.0 L 4.333333333333333 101.33333333333333 L 4.0 102.0 L 4.0 103.0 L 4.333333333333333 103.66666666666667 L 5.0 104.0 L 6.0 104.0 L 7.0 104.0 L 8.0 104.0 L 9.0 104.0 L 10.0 104.0 L 11.0 104.0 L 12.0 104.0 L 13.0 104.0 L 14.0 104.0 L 15.0 104.0 L 16.0 104.0 L 17.0 104.0 L 18.0 104.0 L 19.0 104.0 L 20.0 104.0 L 21.0 104.0 L 22.0 104.0 L 23.0 104.0 L 23.5 104.0 Z" stroke="none" fill="rgb(150,95,60)" />
<path d="M 95.5 107.0 L 96.0 107.0 L 97.0 107.0 L 98.0 107.0 L 99.0 107.0 L 100.0 107.0 L 101.0 107.0 L 102.0 107.0 L 103.0 107.0 L 104.0 107.0 L 105.0 107.0 L 106.0 107.0 L 107.0 107.0 L 108.0 107.0 L 109.0 107.0 L 110.0 107.0 L 111.0 107.0 L 112.0 107.0 L 113.0 107.0 L 114.0 107.0 L 115.0 107.0 L 116.0 107.0 L 117.0 107.0 L 118.0 107.0 L 119.0 107.0 L 120.0 107.0 L 121.0 107.0 L 122.0 107.0 L 123.0 107.0 L 124.0 107.0 L 124.66666666666667 106.66666666666667 L 125.0 106.0 L 125.0 105.0 L 124.66666666666667 104.33333333333333 L 124.0 104.0 L 123.0 104.0 L 122.0 104.0 L 121.0 104.0 L 120.0 104.0 L 119.0 104.0 L 118.0 104.0 L 117.0 104.0 L 116.0 104.0 L 115.0 104.0 L 114.0 104.0 L 113.0 104.0 L 112.0 104.0 L 111.0 104.0 L 110.0 104.0 L 109.0 104.0 L 108.0 104.0 L 107.0 104.0 L 106.0 104.0 L 105.0 104.0 L 104.0 104.0 L 103.0 104.0 L 102.0 104.0 L 101.0 104.0 L 100.0 104.0 L 99.0 104.0 L 98.0 104.0 L 97.0 104.0 L 96.0 104.0 L 95.0 104.0 L 94.0 104.0 L 93.0 104.0 L 92.0 104.0 L 91.0 104.0 L 90.0 104.0 L 89.0 104.0 L 88.0 104.0 L 87.0 104.0 L 86.0 104.0 L 85.0 104.0 L 84.0 104.0 L 83.0 104.0 L 82.0 104.0 L 81.0 104.0 L 80.0 104.0 L 79.0 104.0 L 78.0 104.0 L 77.0 104.0 L 76.0 104.0 L 75.0 104.0 L 74.0 104.0 L 73.0 104.0 L 72.0 104.0 L 71.0 104.0 L 70.0 104.0 L 69.0 104.0 L 68.0 104.0 L 67.0 104.0 L 66.0 104.0 L 65.0 104.0 L 64.0 104.0 L 63.0 104.0 L 62.0 104.0 L 61.0 104.0 L 60.0 104.0 L 59.0 104.0 L 58.0 104.0 L 57.0 104.0 L 56.0 104.0 L 55.0 104.0 L 54.0 104.0 L 53.0 104.0 L 52.0 104.0 L 51.0 104.0 L 50.0 104.0 L 49.0 104.0 L 48.0 104.0 L 47.0 104.0 L 46.0 104.0 L 45.0 104.0 L 44.0 104.0 L 43.0 104.0 L 42.0 104.0 L 41.0 104.0 L 40.0 104.0 L 39.0 104.0 L 38.0 104.0 L 37.0 104.0 L 36.0 104.0 L 35.0 104.0 L 34.0 104.0 L 33.0 104.0 L 32.0 104.0 L 31.0 104.0 L 30.0 104.0 L 29.0 104.0 L 28.0 104.0 L 27.0 104.0 L 26.0 104.0 L 25.0 104.0 L 24.0 104.0 L 23.0 104.0 L 22.0 104.0 L 21.0 104.0 L 20.0 104.0 L 19.0 104.0 L 18.0 104.0 L 17.0 104.0 L 16.0 104.0 L 15.0 104.0 L 14.0 104.0 L 13.0 104.0 L 12.0 104.0 L 11.0 104.0 L 10.0 104.0 L 9.0 104.0 L 8.0 104.0 L 7.0 104.0 L 6.0 104.0 L 5.0 104.0 L 4.333333333333333 104.33333333333333 L 4.0 105.0 L 4.0 106.0 L 4.333333333333333 106.66666666666667 L 5.0 107.0 L 6.0 107.0 L 7.0 107.0 L 8.0 107.0 L 9.0 107.0 L 10.0 107.0 L 11.0 107.0 L 12.0 107.0 L 13.0 107.0 L 14.0 107.0 L 15.0 107.0 L 16.0 107.0 L 17.0 107.0 L 18.0 107.0 L 19.0 107.0 L 20.0 107.0 L 21.0 107.0 L 22.0 107.0 L 23.0 107.0 L 24.0 107.0 L 25.0 107.0 L 26.0 107.0 L 27.0 107.0 L 28.0 107.0 L 29.0 107.0 L 30.0 107.0 L 31.0 107.0 L 32.0 107.0 L 33.0 107.0 L 34.0 107.0 L 35.0 107.0 L 36.0 107.0 L 37.0 107.0 L 38.0 107.0 L 39.0 107.0 L 40.0 107.0 L 41.0 107.0 L 42.0 107.0 L 43.0 107.0 L 44.0 107.0 L 45.0 107.0 L 46.0 107.0 L 47.0 107.0 L 48.0 107.0 L 49.0 107.0 L 50.0 107.0 L 51.0 107.0 L 52.0 107.0 L 53.0 107.0 L 54.0 107.0 L 55.0 107.0 L 56.0 107.0 L 57.0 107.0 L 58.0 107.0 L 59.0 107.0 L 60.0 107.0 L 61.0 107.0 L 62.0 107.0 L 63.0 107.0 L 64.0 107.0 L 65.0 107.0 L 66.0 107.0 L 67.0 107.0 L 68.0 107.0 L 69.0 107.0 L 70.0 107.0 L 71.0 107.0 L 72.0 107.0 L 73.0 107.0 L 74.0 107.0 L 75.0 107.0 L 76.0 107.0 L 77.0 107.0 L 78.0 107.0 L 79.0 107.0 L 80.0 107.0 L 81.0 107.0 L 82.0 107.0 L 83.0 107.0 L 84.0 107.0 L 85.0 107.0 L 86.0 107.0 L 87.0 107.0 L 88.0 107.0 L 89.0 107.0 L 90.0 107.0 L 91.0 107.0 L 92.0 107.0 L 93.0 107.0 L 94.0 107.0 L 94.5 107.0 Z" stroke="none" fill="rgb(149,94,60)" />
<path d="M 95.5 109.0 L 96.0 109.0 L 97.0 109.0 L 98.0 109.0 L 99.0 109.0 L 100.0 109.0 L 101.0 109.0 L 102.0 109.0 L 103.0 109.0 L 104.0 109.0 L 105.0 109.0 L 106.0 109.0 L 107.0 109.0 L 108.0 109.0 L 109.0 109.0 L 110.0 109.0 L 111.0 109.0 L 112.0 109.0 L 113.0 109.0 L 114.0 109.0 L 115.0 109.0 L 116.0 109.0 L 117.0 109.0 L 118.0 109.0 L 119.0 109.0 L 120.0 109.0 L 121.0 109.0 L 122.0 109.0 L 123.0 109.0 L 124.0 109.0 L 124.66666666666667 108.66666666666667 L 125.0 108.0 L 124.66666666666667 107.33333333333333 L 124.0 107.0 L 123.0 107.0 L 122.0 107.0 L 121.0 107.0 L 120.0 107.0 L 119.0 107.0 L 118.0 107.0 L 117.0 107.0 L 116.0 107.0 L 115.0 107.0 L 114.0 107.0 L 113.0 107.0 L 112.0 107.0 L 111.0 107.0 L 110.0 107.0 L 109.0 107.0 L 108.0 107.0 L 107.0 107.0 L 106.0 107.0 L 105.0 107.0 L 104.0 107.0 L 103.0 107.0 L 102.0 107.0 L 101.0 107.0 L 100.0 107.0 L 99.0 107.0 L 98.0 107.0 L 97.0 107.0 L 96.0 107.0 L 95.0 107.0 L 94.0 107.0 L 93.0 107.0 L 92.0 107.0 L 91.0 107.0 L 90.0 107.0 L 89.0 107.0 L 88.0 107.0 L 87.0 107.0 L 86.0 107.0 L 85.0 107.0 L 84.0 107.0 L 83.0 107.0 L 82.0 107.0 L 81.0 107.0 L 80.0 107.0 L 79.0 107.0 L 78.0 107.0 L 77.0 107.0 L 76.0 107.0 L 75.0 107.0 L 74.0 107.0 L 73.0 107.0 L 72.0 107.0 L 71.0 107.0 L 70.0 107.0 L 69.0 107.0 L 68.0 107.0 L 67.0 107.0 L 66.0 107.0 L 65.0 107.0 L 64.0 107.0 L 63.0 107.0 L 62.0 107.0 L 61.0 107.0 L 60.0 107.0 L 59.0 107.0 L 58.0 107.0 L 57.0 107.0 L 56.0 107.0 L 55.0 107.0 L 54.0 107.0 L 53.0 107.0 L 52.0 107.0 L 51.0 107.0 L 50.0 107.0 L 49.0 107.0 L 48.0 107.0 L 47.0 107.0 L 46.0 107.0 L 45.0 107.0 L 44.0 107.0 L 43.0 107.0 L 42.0 107.0 L 41.0 107.0 L 40.0 107.0 L 39.0 107.0 L 38.0 107.0 L 37.0 107.0 L 36.0 107.0 L 35.0 107.0 L 34.0 107.0 L 33.0 107.0 L 32.0 107.0 L 31.0 107.0 L 30.0 107.0 L 29.0 107.0 L 28.0 107.0 L 27.0 107.0 L 26.0 107.0 L 25.0 107.0 L 24.0 107.0 L 23.0 107.0 L 22.0 107.0 L 21.0 107.0 L 20.0 107.0 L 19.0 107.0 L 18.0 107.0 L 17.0 107.0 L 16.0 107.0 L 15.0 107.0 L 14.0 107.0 L 13.0 107.0 L 12.0 107.0 L 11.0 107.0 L 10.0 107.0 L 9.0 107.0 L 8.0 107.0 L 7.0 107.0 L 6.0 107.0 L 5.0 107.0 L 4.333333333333333 107.33333333333333 L 4.0 108.0 L 4.333333333333333 108.66666666666667 L 5.0 109.0 L 6.0 109.0 L 7.0 109.0 L 8.0 109.0 L 9.0 109.0 L 10.0 109.0 L 11.0 109.0 L 12.0 109.0 L 13.0 109.0 L 14.0 109.0 L 15.0 109.0 L 16.0 109.0 L 17.0 109.0 L 18.0 109.0 L 19.0 109.0 L 20.0 109.0 L 21.0 109.0 L 22.0 109.0 L 23.0 109.0 L 24.0 109.0 L 25.0 109.0 L 26.0 109.0 L 27.0 109.0 L 28.0 109.0 L 29.0 109.0 L 30.0 109.0 L 31.0 109.0 L 32.0 109.0 L 33.0 109.0 L 34.0 109.0 L 35.0 109.0 L 36.0 109.0 L 37.0 109.0 L 38.0 109.0 L 39.0 109.0 L 40.0 109.0 L 41.0 109.0 L 42.0 109.0 L 43.0 109.0 L 44.0 109.0 L 45.0 109.0 L 46.0 109.0 L 47.0 109.0 L 48.0 109.0 L 49.0 109.0 L 50.0 109.0 L 51.0 109.0 L 52.0 109.0 L 53.0 109.0 L 54.0 109.0 L 55.0 109.0 L 56.0 109.0 L 57.0 109.0 L 58.0 109.0 L 59.0 109.0 L 60.0 109.0 L 61.0 109.0 L 62.0 109.0 L 63.0 109.0 L 64.0 109.0 L 65.0 109.0 L 66.0 109.0 L 67.0 109.0 L 68.0 109.0 L 69.0 109.0 L 70.0 109.0 L 71.0 109.0 L 72.0 109.0 L 73.0 109.0 L 74.0 109.0 L 75.0 109.0 L 76.0 109.0 L 77.0 109.0 L 78.0 109.0 L 79.0 109.0 L 80.0 109.0 L 81.0 109.0 L 82.0 109.0 L 83.0 109.0 L 84.0 109.0 L 85.0 109.0 L 86.0 109.0 L 87.0 109.0 L 88.0 109.0 L 89.0 109.0 L 90.0 109.0 L 91.0 109.0 L 92.0 109.0 L 93.0 109.0 L 94.0 109.0 L 94.5 109.0 Z" stroke="none" fill="rgb(148,93,59)" />
<path d="M 11.5 112.0 L 12.0 112.0 L 13.0 112.0 L 14.0 112.0 L 15.0 112.0 L 16.0 112.0 L 17.0 112.0 L 18.0 112.0 L 19.0 112.0 L 20.0 112.0 L 21.0 112.0 L 22.0 112.0 L 23.0 112.0 L 24.0 112.0 L 25.0 112.0 L 26.0 112.0 L 27.0 112.0 L 28.0 112.0 L 29.0 112.0 L 30.0 112.0 L 31.0 112.0 L 32.0 112.0 L 33.0 112.0 L 34.0 112.0 L 35.0 112.0 L 36.0 112.0 L 37.0 112.0 L 38.0 112.0 L 39.0 112.0 L 40.0 112.0 L 41.0 112.0 L 42.0 112.0 L 43.0 112.0 L 44.0 112.0 L 45.0 112.0 L 46.0 112.0 L 47.0 112.0 L 48.0 112.0 L 49.0 112.0 L 50.0 112.0 L 51.0 112.0 L 52.0 112.0 L 53.0 112.0 L 54.0 112.0 L 55.0 112.0 L 56.0 112.0 L 57.0 112.0 L 58.0 112.0 L 59.0 112.0 L 60.0 112.0 L 61.0 112.0 L 62.0 112.0 L 63.0 112.0 L 64.0 112.0 L 65.0 112.0 L 66.0 112.0 L 67.0 112.0 L 68.0 112.0 L 69.0 112.0 L 70.0 112.0 L 71.0 112.0 L 72.0 112.0 L 73.0 112.0 L 74.0 112.0 L 75.0 112.0 L 76.0 112.0 L 77.0 112.0 L 78.0 112.0 L 79.0 112.0 L 80.0 112.0 L 81.0 112.0 L 82.0 112.0 L 83.0 112.0 L 84.0 112.0 L 85.0 112.0 L 86.0 112.0 L 87.0 112.0 L 88.0 112.0 L 89.0 112.0 L 90.0 112.0 L 91.0 112.0 L 92.0 112.0 L 93.0 112.0 L 94.0 112.0 L 95.0 112.0 L 96.0 112.0 L 97.0 112.0 L 98.0 112.0 L 99.0 112.0 L 100.0 112.0 L 101.0 112.0 L 102.0 112.0 L 103.0 112.0 L 104.0 112.0 L 105.0 112.0 L 106.0 112.0 L 107.0 112.0 L 108.0 112.0 L 109.0 112.0 L 110.0 112.0 L 111.0 112.0 L 112.0 112.0 L 113.0 112.0 L 114.0 112.0 L 115.0 112.0 L 116.0 112.0 L 117.0 112.0 L 118.0 112.0 L 119.0 112.0 L 120.0 112.0 L 121.0 112.0 L 122.0 112.0 L 123.0 112.0 L 124.0 112.0 L 124.66666666666667 111.66666666666667 L 125.0 111.0 L 125.0 110.0 L 124.66666666666667 109.33333333333333 L 124.0 109.0 L 123.0 109.0 L 122.0 109.0 L 121.0 109.0 L 120.0 109.0 L 119.0 109.0 L 118.0 109.0 L 117.0 109.0 L 116.0 109.0 L 115.0 109.0 L 114.0 109.0 L 113.0 109.0 L 112.0 109.0 L 111.0 109.0 L 110.0 109.0 L 109.0 109.0 L 108.0 109.0 L 107.0 109.0 L 106.0 109.0 L 105.0 109.0 L 104.0 109.0 L 103.0 109.0 L 102.0 109.0 L 101.0 109.0 L 100.0 109.0 L 99.0 109.0 L 98.0 109.0 L 97.0 109.0 L 96.0 109.0 L 95.0 109.0 L 94.0 109.0 L 93.0 109.0 L 92.0 109.0 L 91.0 109.0 L 90.0 109.0 L 89.0 109.0 L 88.0 109.0 L 87.0 109.0 L 86.0 109.0 L 85.0 109.0 L 84.0 109.0 L 83.0 109.0 L 82.0 109.0 L 81.0 109.0 L 80.0 109.0 L 79.0 109.0 L 78.0 109.0 L 77.0 109.0 L 76.0 109.0 L 75.0 109.0 L 74.0 109.0 L 73.0 109.0 L 72.0 109.0 L 71.0 109.0 L 70.0 109.0 L 69.0 109.0 L 68.0 109.0 L 67.0 109.0 L 66.0 109.0 L 65.0 109.0 L 64.0 109.0 L 63.0 109.0 L 62.0 109.0 L 61.0 109.0 L 60.0 109.0 L 59.0 109.0 L 58.0 109.0 L 57.0 109.0 L 56.0 109.0 L 55.0 109.0 L 54.0 109.0 L 53.0 109.0 L 52.0 109.0 L 51.0 109.0 L 50.0 109.0 L 49.0 109.0 L 48.0 109.0 L 47.0 109.0 L 46.0 109.0 L 45.0 109.0 L 44.0 109.0 L 43.0 109.0 L 42.0 109.0 L 41.0 109.0 L 40.0 109.0 L 39.0 109.0 L 38.0 109.0 L 37.0 109.0 L 36.0 109.0 L 35.0 109.0 L 34.0 109.0 L 33.0 109.0 L 32.0 109.0 L 31.0 109.0 L 30.0 109.0 L 29.0 109.0 L 28.0 109.0 L 27.0 109.0 L 26.0 109.0 L 25.0 109.0 L 24.0 109.0 L 23.0 109.0 L 22.0 109.0 L 21.0 109.0 L 20.0 109.0 L 19.0 109.0 L 18.0 109.0 L 17.0 109.0 L 16.0 109.0 L 15.0 109.0 L 14.0 109.0 L 13.0 109.0 L 12.0 109.0 L 11.0 109.0 L 10.0 109.0 L 9.0 109.0 L 8.0 109.0 L 7.0 109.0 L 6.0 109.0 L 5.0 109.0 L 4.333333333333333 109.33333333333333 L 4.0 110.0 L 4.0 111.0 L 4.333333333333333 111.66666666666667 L 5.0 112.0 L 6.0 112.0 L 7.0 112.0 L 8.0 112.0 L 9.0 112.0 L 10.0 112.0 L 10.5 112.0 Z" stroke="none" fill="rgb(147,92,59)" />
<path d="M 26.5 115.0 L 27.0 115.0 L 28.0 115.0 L 29.0 115.0 L 30.0 115.0 L 31.0 115.0 L 32.0 115.0 L 33.0 115.0 L 34.0 115.0 L 35.0 115.0 L 36.0 115.0 L 37.0 115.0 L 38.0 115.0 L 39.0 115.0 L 40.0 115.0 L 41.0 115.0 L 42.0 115.0 L 43.0 115.0 L 44.0 115.0 L 45.0 115.0 L 46.0 115.0 L 47.0 115.0 L 48.0 115.0 L 49.0 115.0 L 50.0 115.0 L 51.0 115.0 L 52.0 115.0 L 53.0 115.0 L 54.0 115.0 L 55.0 115.0 L 56.0 115.0 L 57.0 115.0 L 58.0 115.0 L 59.0 115.0 L 60.0 115.0 L 61.0 115.0 L 62.0 115.0 L 63.0 115.0 L 64.0 115.0 L 65.0 115.0 L 66.0 115.0 L 67.0 115.0 L 68.0 115.0 L 69.0 115.0 L 70.0 115.0 L 71.0 115.0 L 72.0 115.0 L 73.0 115.0 L 74.0 115.0 L 75.0 115.0 L 76.0 115.0 L 77.0 115.0 L 78.0 115.0 L 79.0 115.0 L 80.0 115.0 L 81.0 115.0 L 82.0 115.0 L 83.0 115.0 L 84.0 115.0 L 85.0 115.0 L 86.0 115.0 L 87.0 115.0 L 88.0 115.0 L 89.0 115.0 L 90.0 115.0 L 91.0 115.0 L 92.0 115.0 L 93.0 115.0 L 94.0 115.0 L 95.0 115.0 L 96.0 115.0 L 97.0 115.0 L 98.0 115.0 L 99.0 115.0 L 100.0 115.0 L 101.0 115.0 L 102.0 115.0 L 103.0 115.0 L 104.0 115.0 L 105.0 115.0 L 106.0 115.0 L 107.0 115.0 L 108.0 115.0 L 109.0 115.0 L 110.0 115.0 L 111.0 115.0 L 112.0 115.0 L 113.0 115.0 L 114.0 115.0 L 115.0 115.0 L 116.0 115.0 L 117.0 115.0 L 118.0 115.0 L 119.0 115.0 L 120.0 115.0 L 121.0 115.0 L 122.0 115.0 L 123.0 115.0 L 124.0 115.0 L 124.66666666666667 114.66666666666667 L 125.0 114.0 L 125.0 113.0 L 124.66666666666667 112.33333333333333 L 124.0 112.0 L 123.0 112.0 L 122.0 112.0 L 121.0 112.0 L 120.0 112.0 L 119.0 112.0 L 118.0 112.0 L 117.0 112.0 L 116.0 112.0 L 115.0 112.0 L 114.0 112.0 L 113.0 112.0 L 112.0 112.0 L 111.0 112.0 L 110.0 112.0 L 109.0 112.0 L 108.0 112.0 L 107.0 112.0 L 106.0 112.0 L 105.0 112.0 L 104.0 112.0 L 103.0 112.0 L 102.0 112.0 L 101.0 112.0 L 100.0 112.0 L 99.0 112.0 L 98.0 112.0 L 97.0 112.0 L 96.0 112.0 L 95.0 112.0 L 94.0 112.0 L 93.0 112.0 L 92.0 112.0 L 91.0 112.0 L 90.0 112.0 L 89.0 112.0 L 88.0 112.0 L 87.0 112.0 L 86.0 112.0 L 85.0 112.0 L 84.0 112.0 L 83.0 112.0 L 82.0 112.0 L 81.0 112.0 L 80.0 112.0 L 79.0 112.0 L 78.0 112.0 L 77.0 112.0 L 76.0 112.0 L 75.0 112.0 L 74.0 112.0 L 73.0 112.0 L 72.0 112.0 L 71.0 112.0 L 70.0 112.0 L 69.0 112.0 L 68.0 112.0 L 67.0 112.0 L 66.0 112.0 L 65.0 112.0 L 64.0 112.0 L 63.0 112.0 L 62.0 112.0 L 61.0 112.0 L 60.0 112.0 L 59.0 112.0 L 58.0 112.0 L 57.0 112.0 L 56.0 112.0 L 55.0 112.0 L 54.0 112.0 L 53.0 112.0 L 52.0 112.0 L 51.0 112.0 L 50.0 112.0 L 49.0 112.0 L 48.0 112.0 L 47.0 112.0 L 46.0 112.0 L 45.0 112.0 L 44.0 112.0 L 43.0 112.0 L 42.0 112.0 L 41.0 112.0 L 40.0 112.0 L 39.0 112.0 L 38.0 112.0 L 37.0 112.0 L 36.0 112.0 L 35.0 112.0 L 34.0 112.0 L 33.0 112.0 L 32.0 112.0 L 31.0 112.0 L 30.0 112.0 L 29.0 112.0 L 28.0 112.0 L 27.0 112.0 L 26.0 112.0 L 25.0 112.0 L 24.0 112.0 L 23.0 112.0 L 22.0 112.0 L 21.0 112.0 L 20.0 112.0 L 19.0 112.0 L 18.0 112.0 L 17.0 112.0 L 16.0 112.0 L 15.0 112.0 L 14.0 112.0 L 13.0 112.0 L 12.0 112.0 L 11.0 112.0 L 10.0 112.0 L 9.0 112.0 L 8.0 112.0 L 7.0 112.0 L 6.0 112.0 L 5.0 112.0 L 4.333333333333333 112.33333333333333 L 4.0 113.0 L 4.0 114.0 L 4.333333333333333 114.66666666666667 L 5.0 115.0 L 6.0 115.0 L 7.0 115.0 L 8.0 115.0 L 9.0 115.0 L 10.0 115.0 L 11.0 115.0 L 12.0 115.0 L 13.0 115.0 L 14.0 115.0 L 15.0 115.0 L 16.0 115.0 L 17.0 115.0 L 18.0 115.0 L 19.0 115.0 L 20.0 115.0 L 21.0 115.0 L 22.0 115.0 L 23.0 115.0 L 24.0 115.0 L 25.0 115.0 L 25.5 115.0 Z" stroke="none" fill="rgb(146,91,58)" />
<path d="M 95.5 118.0 L 96.0 118.0 L 97.0 118.0 L 98.0 118.0 L 99.0 118.0 L 100.0 118.0 L 101.0 118.0 L 102.0 118.0 L 103.0 118.0 L 104.0 118.0 L 105.0 118.0 L 106.0 118.0 L 107.0 118.0 L 108.0 118.0 L 109.0 118.0 L 110.0 118.0 L 111.0 118.0 L 112.0 118.0 L 113.0 118.0 L 114.0 118.0 L 115.0 118.0 L 116.0 118.0 L 117.0 118.0 L 118.0 118.0 L 119.0 118.0 L 120.0 118.0 L 121.0 118.0 L 122.0 118.0 L 123.0 118.0 L 124.0 118.0 L 124.66666666666667 117.66666666666667 L 125.0 117.0 L 125.0 116.0 L 124.66666666666667 115.33333333333333 L 124.0 115.0 L 123.0 115.0 L 122.0 115.0 L 121.0 115.0 L 120.0 115.0 L 119.0 115.0 L 118.0 115.0 L 117.0 115.0 L 116.0 115.0 L 115.0 115.0 L 114.0 115.0 L 113.0 115.0 L 112.0 115.0 L 111.0 115.0 L 110.0 115.0 L 109.0 115.0 L 108.0 115.0 L 107.0 115.0 L 106.0 115.0 L 105.0 115.0 L 104.0 115.0 L 103.0 115.0 L 102.0 115.0 L 101.0 115.0 L 100.0 115.0 L 99.0 115.0 L 98.0 115.0 L 97.0 115.0 L 96.0 115.0 L 95.0 115.0 L 94.0 115.0 L 93.0 115.0 L 92.0 115.0 L 91.0 115.0 L 90.0 115.0 L 89.0 115.0 L 88.0 115.0 L 87.0 115.0 L 86.0 115.0 L 85.0 115.0 L 84.0 115.0 L 83.0 115.0 L 82.0 115.0 L 81.0 115.0 L 80.0 115.0 L 79.0 115.0 L 78.0 115.0 L 77.0 115.0 L 76.0 115.0 L 75.0 115.0 L 74.0 115.0 L 73.0 115.0 L 72.0 115.0 L 71.0 115.0 L 70.0 115.0 L 69.0 115.0 L 68.0 115.0 L 67.0 115.0 L 66.0 115.0 L 65.0 115.0 L 64.0 115.0 L 63.0 115.0 L 62.0 115.0 L 61.0 115.0 L 60.0 115.0 L 59.0 115.0 L 58.0 115.0 L 57.0 115.0 L 56.0 115.0 L 55.0 115.0 L 54.0 115.0 L 53.0 115.0 L 52.0 115.0 L 51.0 115.0 L 50.0 115.0 L 49.0 115.0 L 48.0 115.0 L 47.0 115.0 L 46.0 115.0 L 45.0 115.0 L 44.0 115.0 L 43.0 115.0 L 42.0 115.0 L 41.0 115.0 L 40.0 115.0 L 39.0 115.0 L 38.0 115.0 L 37.0 115.0 L 36.0 115.0 L 35.0 115.0 L 34.0 115.0 L 33.0 115.0 L 32.0 115.0 L 31.0 115.0 L 30.0 115.0 L 29.0 115.0 L 28.0 115.0 L 27.0 115.0 L 26.0 115.0 L 25.0 115.0 L 24.0 115.0 L 23.0 115.0 L 22.0 115.0 L 21.0 115.0 L 20.0 115.0 L 19.0 115.0 L 18.0 115.0 L 17.0 115.0 L 16.0 115.0 L 15.0 115.0 L 14.0 115.0 L 13.0 115.0 L 12.0 115.0 L 11.0 115.0 L 10.0 115.0 L 9.0 115.0 L 8.0 115.0 L 7.0 115.0 L 6.0 115.0 L 5.0 115.0 L 4.333333333333333 115.33333333333333 L 4.0 116.0 L 4.333333333333333 117.0 L 5.0 117.66666666666667 L 6.0 118.0 L 7.0 118.0 L 8.0 118.0 L 9.0 118.0 L 10.0 118.0 L 11.0 118.0 L 12.0 118.0 L 13.0 118.0 L 14.0 118.0 L 15.0 118.0 L 16.0 118.0 L 17.0 118.0 L 18.0 118.0 L 19.0 118.0 L 20.0 118.0 L 21.0 118.0 L 22.0 118.0 L 23.0 118.0 L 24.0 118.0 L 25.0 118.0 L 26.0 118.0 L 27.0 118.0 L 28.0 118.0 L 29.0 118.0 L 30.0 118.0 L 31.0 118.0 L 32.0 118.0 L 33.0 118.0 L 34.0 118.0 L 35.0 118.0 L 36.0 118.0 L 37.0 118.0 L 38.0 118.0 L 39.0 118.0 L 40.0 118.0 L 41.0 118.0 L 42.0 118.0 L 43.0 118.0 L 44.0 118.0 L 45.0 118.0 L 46.0 118.0 L 47.0 118.0 L 48.0 118.0 L 49.0 118.0 L 50.0 118.0 L 51.0 118.0 L 52.0 118.0 L 53.0 118.0 L 54.0 118.0 L 55.0 118.0 L 56.0 118.0 L 57.0 118.0 L 58.0 118.0 L 59.0 118.0 L 60.0 118.0 L 61.0 118.0 L 62.0 118.0 L 63.0 118.0 L 64.0 118.0 L 65.0 118.0 L 66.0 118.0 L 67.0 118.0 L 68.0 118.0 L 69.0 118.0 L 70.0 118.0 L 71.0 118.0 L 72.0 118.0 L 73.0 118.0 L 74.0 118.0 L 75.0 118.0 L 76.0 118.0 L 77.0 118.0 L 78.0 118.0 L 79.0 118.0 L 80.0 118.0 L 81.0 118.0 L 82.0 118.0 L 83.0 118.0 L 84.0 118.0 L 85.0 118.0 L 86.0 118.0 L 87.0 118.0 L 88.0 118.0 L 89.0 118.0 L 90.0 118.0 L 91.0 118.0 L 92.0 118.0 L 93.0 118.0 L 94.0 118.0 L 94.5 118.0 Z" stroke="none" fill="rgb(145,90,58)" />
<path d="M 95.5 122.0 L 96.0 122.0 L 97.0 122.0 L 98.0 122.0 L 99.0 122.0 L 100.0 122.0 L 101.0 122.0 L 102.0 122.0 L 103.0 122.0 L 104.0 122.0 L 105.0 122.0 L 106.0 122.0 L 107.0 122.0 L 108.0 122.0 L 109.0 122.0 L 110.0 122.0 L 111.0 122.0 L 112.0 122.0 L 113.0 122.0 L 114.0 122.0 L 115.0 122.0 L 116.0 122.0 L 117.0 122.0 L 118.0 122.0 L 119.0 122.0 L 120.0 122.0 L 121.0 122.0 L 122.0 122.0 L 123.0 122.0 L 124.0 122.0 L 124.66666666666667 121.66666666666667 L 125.0 121.0 L 125.0 120.0 L 125.0 119.0 L 124.66666666666667 118.33333333333333 L 124.0 118.0 L 123.0 118.0 L 122.0 118.0 L 121.0 118.0 L 120.0 118.0 L 119.0 118.0 L 118.0 118.0 L 117.0 118.0 L 116.0 118.0 L 115.0 118.0 L 114.0 118.0 L 113.0 118.0 L 112.0 118.0 L 111.0 118.0 L 110.0 118.0 L 109.0 118.0 L 108.0 118.0 L 107.0 118.0 L 106.0 118.0 L 105.0 118.0 L 104.0 118.0 L 103.0 118.0 L 102.0 118.0 L 101.0 118.0 L 100.0 118.0 L 99.0 118.0 L 98.0 118.0 L 97.0 118.0 L 96.0 118.0 L 95.0 118.0 L 94.0 118.0 L 93.0 118.0 L 92.0 118.0 L 91.0 118.0 L 90.0 118.0 L 89.0 118.0 L 88.0 118.0 L 87.0 118.0 L 86.0 118.0 L 85.0 118.0 L 84.0 118.0 L 83.0 118.0 L 82.0 118.0 L 81.0 118.0 L 80.0 118.0 L 79.0 118.0 L 78.0 118.0 L 77.0 118.0 L 76.0 118.0 L 75.0 118.0 L 74.0 118.0 L 73.0 118.0 L 72.0 118.0 L 71.0 118.0 L 70.0 118.0 L 69.0 118.0 L 68.0 118.0 L 67.0 118.0 L 66.0 118.0 L 65.0 118.0 L 64.0 118.0 L 63.0 118.0 L 62.0 118.0 L 61.0 118.0 L 60.0 118.0 L 59.0 118.0 L 58.0 118.0 L 57.0 118.0 L 56.0 118.0 L 55.0 118.0 L 54.0 118.0 L 53.0 118.0 L 52.0 118.0 L 51.0 118.0 L 50.0 118.0 L 49.0 118.0 L 48.0 118.0 L 47.0 118.0 L 46.0 118.0 L 45.0 118.0 L 44.0 118.0 L 43.0 118.0 L 42.0 118.0 L 41.0 118.0 L 40.0 118.0 L 39.0 118.0 L 38.0 118.0 L 37.0 118.0 L 36.0 118.0 L 35.0 118.0 L 34.0 118.0 L 33.0 118.0 L 32.0 118.0 L 31.0 118.0 L 30.0 118.0 L 29.0 118.0 L 28.0 118.0 L 27.0 118.0 L 26.0 118.0 L 25.0 118.0 L 24.0 118.0 L 23.0 118.0 L 22.0 118.0 L 21.0 118.0 L 20.0 118.0 L 19.0 118.0 L 18.0 118.0 L 17.0 118.0 L 16.0 118.0 L 15.0 118.0 L 14.0 118.0 L 13.0 118.0 L 12.0 118.0 L 11.0 118.0 L 10.0 118.0 L 9.0 118.0 L 8.0 118.0 L 7.0 118.0 L 6.0 118.0 L 5.0 118.0 L 4.333333333333333 118.33333333333333 L 4.0 119.0 L 4.0 120.0 L 4.333333333333333 121.0 L 5.0 121.66666666666667 L 6.0 122.0 L 7.0 122.0 L 8.0 122.0 L 9.0 122.0 L 10.0 122.0 L 11.0 122.0 L 12.0 122.0 L 13.0 122.0 L 14.0 122.0 L 15.0 122.0 L 16.0 122.0 L 17.0 122.0 L 18.0 122.0 L 19.0 122.0 L 20.0 122.0 L 21.0 122.0 L 22.0 122.0 L 23.0 122.0 L 24.0 122.0 L 25.0 122.0 L 26.0 122.0 L 27.0 122.0 L 28.0 122.0 L 29.0 122.0 L 30.0 122.0 L 31.0 122.0 L 32.0 122.0 L 33.0 122.0 L 34.0 122.0 L 35.0 122.0 L 36.0 122.0 L 37.0 122.0 L 38.0 122.0 L 39.0 122.0 L 40.0 122.0 L 41.0 122.0 L 42.0 122.0 L 43.0 122.0 L 44.0 122.0 L 45.0 122.0 L 46.0 122.0 L 47.0 122.0 L 48.0 122.0 L 49.0 122.0 L 50.0 122.0 L 51.0 122.0 L 52.0 122.0 L 53.0 122.0 L 54.0 122.0 L 55.0 122.0 L 56.0 122.0 L 57.0 122.0 L 58.0 122.0 L 59.0 122.0 L 60.0 122.0 L 61.0 122.0 L 62.0 122.0 L 63.0 122.0 L 64.0 122.0 L 65.0 122.0 L 66.0 122.0 L 67.0 122.0 L 68.0 122.0 L 69.0 122.0 L 70.0 122.0 L 71.0 122.0 L 72.0 122.0 L 73.0 122.0 L 74.0 122.0 L 75.0 122.0 L 76.0 122.0 L 77.0 122.0 L 78.0 122.0 L 79.0 122.0 L 80.0 122.0 L 81.0 122.0 L 82.0 122.0 L 83.0 122.0 L 84.0 122.0 L 85.0 122.0 L 86.0 122.0 L 87.0 122.0 L 88.0 122.0 L 89.0 122.0 L 90.0 122.0 L 91.0 122.0 L 92.0 122.0 L 93.0 122.0 L 94.0 122.0 L 94.5 122.0 Z" stroke="none" fill="rgb(143,89,57)" />
<path d="M 9.5 125.0 L 10.0 125.0 L 11.0 125.0 L 12.0 125.0 L 13.0 125.0 L 14.0 125.0 L 15.0 125.0 L 16.0 125.0 L 17.0 125.0 L 18.0 125.0 L 19.0 125.0 L 20.0 125.0 L 21.0 125.0 L 22.0 125.0 L 23.0 125.0 L 24.0 125.0 L 25.0 125.0 L 26.0 125.0 L 27.0 125.0 L 28.0 125.0 L 29.0 125.0 L 30.0 125.0 L 31.0 125.0 L 32.0 125.0 L 33.0 125.0 L 34.0 125.0 L 35.0 125.0 L 36.0 125.0 L 37.0 125.0 L 38.0 125.0 L 39.0 125.0 L 40.0 125.0 L 41.0 125.0 L 42.0 125.0 L 43.0 125.0 L 44.0 125.0 L 45.0 125.0 L 46.0 125.0 L 47.0 125.0 L 48.0 125.0 L 49.0 125.0 L 50.0 125.0 L 51.0 125.0 L 52.0 125.0 L 53.0 125.0 L 54.0 125.0 L 55.0 125.0 L 56.0 125.0 L 57.0 125.0 L 58.0 125.0 L 59.0 125.0 L 60.0 125.0 L 61.0 125.0 L 62.0 125.0 L 63.0 125.0 L 64.0 125.0 L 65.0 125.0 L 66.0 125.0 L 67.0 125.0 L 68.0 125.0 L 69.0 125.0 L 70.0 125.0 L 71.0 125.0 L 72.0 125.0 L 73.0 125.0 L 74.0 125.0 L 75.0 125.0 L 76.0 125.0 L 77.0 125.0 L 78.0 125.0 L 79.0 125.0 L 80.0 125.0 L 81.0 125.0 L 82.0 125.0 L 83.0 125.0 L 84.0 125.0 L 85.0 125.0 L 86.0 125.0 L 87.0 125.0 L 88.0 125.0 L 89.0 125.0 L 90.0 125.0 L 91.0 125.0 L 92.0 125.0 L 93.0 125.0 L 94.0 125.0 L 95.0 125.0 L 96.0 125.0 L 97.0 125.0 L 98.0 125.0 L 99.0 125.0 L 100.0 125.0 L 101.0 125.0 L 102.0 125.0 L 103.0 125.0 L 104.0 125.0 L 105.0 125.0 L 106.0 125.0 L 107.0 125.0 L 108.0 125.0 L 109.0 125.0 L 110.0 125.0 L 111.0 125.0 L 112.0 125.0 L 113.0 125.0 L 114.0 125.0 L 115.0 125.0 L 116.0 125.0 L 117.0 125.0 L 118.0 125.0 L 119.0 125.0 L 120.0 125.0 L 121.0 125.0 L 122.0 125.0 L 123.0 125.0 L 124.0 125.0 L 124.66666666666667 124.66666666666667 L 125.0 124.0 L 124.66666666666667 123.0 L 124.0 122.33333333333333 L 123.0 122.0 L 122.0 122.0 L 121.0 122.0 L 120.0 122.0 L 119.0 122.0 L 118.0 122.0 L 117.0 122.0 L 116.0 122.0 L 115.0 122.0 L 114.0 122.0 L 113.0 122.0 L 112.0 122.0 L 111.0 122.0 L 110.0 122.0 L 109.0 122.0 L 108.0 122.0 L 107.0 122.0 L 106.0 122.0 L 105.0 122.0 L 104.0 122.0 L 103.0 122.0 L 102.0 122.0 L 101.0 122.0 L 100.0 122.0 L 99.0 122.0 L 98.0 122.0 L 97.0 122.0 L 96.0 122.0 L 95.0 122.0 L 94.0 122.0 L 93.0 122.0 L 92.0 122.0 L 91.0 122.0 L 90.0 122.0 L 89.0 122.0 L 88.0 122.0 L 87.0 122.0 L 86.0 122.0 L 85.0 122.0 L 84.0 122.0 L 83.0 122.0 L 82.0 122.0 L 81.0 122.0 L 80.0 122.0 L 79.0 122.0 L 78.0 122.0 L 77.0 122.0 L 76.0 122.0 L 75.0 122.0 L 74.0 122.0 L 73.0 122.0 L 72.0 122.0 L 71.0 122.0 L 70.0 122.0 L 69.0 122.0 L 68.0 122.0 L 67.0 122.0 L 66.0 122.0 L 65.0 122.0 L 64.0 122.0 L 63.0 122.0 L 62.0 122.0 L 61.0 122.0 L 60.0 122.0 L 59.0 122.0 L 58.0 122.0 L 57.0 122.0 L 56.0 122.0 L 55.0 122.0 L 54.0 122.0 L 53.0 122.0 L 52.0 122.0 L 51.0 122.0 L 50.0 122.0 L 49.0 122.0 L 48.0 122.0 L 47.0 122.0 L 46.0 122.0 L 45.0 122.0 L 44.0 122.0 L 43.0 122.0 L 42.0 122.0 L 41.0 122.0 L 40.0 122.0 L 39.0 122.0 L 38.0 122.0 L 37.0 122.0 L 36.0 122.0 L 35.0 122.0 L 34.0 122.0 L 33.0 122.0 L 32.0 122.0 L 31.0 122.0 L 30.0 122.0 L 29.0 122.0 L 28.0 122.0 L 27.0 122.0 L 26.0 122.0 L 25.0 122.0 L 24.0 122.0 L 23.0 122.0 L 22.0 122.0 L 21.0 122.0 L 20.0 122.0 L 19.0 122.0 L 18.0 122.0 L 17.0 122.0 L 16.0 122.0 L 15.0 122.0 L 14.0 122.0 L 13.0 122.0 L 12.0 122.0 L 11.0 122.0 L 10.0 122.0 L 9.0 122.0 L 8.0 122.0 L 7.0 122.0 L 6.0 122.0 L 5.0 122.33333333333333 L 4.333333333333333 123.0 L 4.0 124.0 L 4.333333333333333 124.66666666666667 L 5.0 125.0 L 6.0 125.0 L 7.0 125.0 L 8.0 125.0 L 8.5 125.0 Z" stroke="none" fill="rgb(141,87,56)" />
</svg>
