<?xml version="1.0" encoding="UTF-8" standalone="no"?>
<!DOCTYPE svg PUBLIC "-//W3C//DTD SVG 1.1//EN"
"http://www.w3.org/Graphics/SVG/1.1/DTD/svg11.dtd">
<svg width="128" height="128" xmlns="http://www.w3.org/2000/svg" version="1.1">
<path d="M 88.5 128.0 L 89.0 128.0 L 90.0 128.0 L 91.0 128.0 L 92.0 128.0 L 93.0 128.0 L 94.0 128.0 L 95.0 128.0 L 96.0 128.0 L 97.0 128.0 L 98.0 128.0 L 99.0 128.0 L 100.0 128.0 L 101.0 128.0 L 102.0 128.0 L 103.0 128.0 L 104.0 128.0 L 105.0 128.0 L 106.0 128.0 L 107.0 128.0 L 108.0 128.0 L 109.0 128.0 L 110.0 128.0 L 111.0 128.0 L 112.0 128.0 L 113.0 128.0 L 114.0 128.0 L 115.0 128.0 L 116.0 128.0 L 117.0 128.0 L 118.0 128.0 L 119.0 128.0 L 120.0 128.0 L 121.0 128.0 L 122.0 128.0 L 123.0 128.0 L 124.0 128.0 L 125.0 128.0 L 126.0 128.0 L 127.0 128.0 L 127.66666666666667 127.66666666666667 L 128.0 127.0 L 128.0 126.0 L 128.0 125.0 L 128.0 124.0 L 128.0 123.0 L 128.0 122.0 L 128.0 121.0 L 128.0 120.0 L 128.0 119.0 L 128.0 118.0 L 128.0 117.0 L 128.0 116.0 L 128.0 115.0 L 128.0 114.0 L 128.0 113.0 L 128.0 112.0 L 128.0 111.0 L 128.0 110.0 L 128.0 109.0 L 128.0 108.0 L 128.0 107.0 L 128.0 106.0 L 128.0 105.0 L 128.0 104.0 L 128.0 103.0 L 128.0 102.0 L 128.0 101.0 L 128.0 100.0 L 128.0 99.0 L 128.0 98.0 L 128.0 97.0 L 128.0 96.0 L 128.0 95.0 L 128.0 94.0 L 128.0 93.0 L 128.0 92.0 L 128.0 91.0 L 128.0 90.0 L 128.0 89.0 L 128.0 88.0 L 128.0 87.0 L 128.0 86.0 L 128.0 85.0 L 128.0 84.0 L 128.0 83.0 L 128.0 82.0 L 128.0 81.0 L 128.0 80.0 L 128.0 79.0 L 128.0 78.0 L 128.0 77.0 L 128.0 76.0 L 128.0 75.0 L 128.0 74.0 L 128.0 73.0 L 128.0 72.0 L 128.0 71.0 L 128.0 70.0 L 128.0 69.0 L 128.0 68.0 L 128.0 67.0 L 128.0 66.0 L 128.0 65.0 L 128.0 64.0 L 128.0 63.0 L 128.0 62.0 L 128.0 61.0 L 128.0 60.0 L 128.0 59.0 L 128.0 58.0 L 128.0 57.0 L 128.0 56.0 L 128.0 55.0 L 128.0 54.0 L 128.0 53.0 L 128.0 52.0 L 128.0 51.0 L 128.0 50.0 L 128.0 49.0 L 128.0 48.0 L 128.0 47.0 L 128.0 46.0 L 128.0 45.0 L 128.0 44.0 L 128.0 43.0 L 128.0 42.0 L 128.0 41.0 L 128.0 40.0 L 128.0 39.0 L 128.0 38.0 L 128.0 37.0 L 128.0 36.0 L 128.0 35.0 L 128.0 34.0 L 128.0 33.0 L 128.0 32.0 L 128.0 31.0 L 128.0 30.0 L 128.0 29.0 L 128.0 28.0 L 128.0 27.0 L 128.0 26.0 L 128.0 25.0 L 128.0 24.0 L 128.0 23.0 L 128.0 22.0 L 128.0 21.0 L 128.0 20.0 L 128.0 19.0 L 128.0 18.0 L 128.0 17.0 L 128.0 16.0 L 128.0 15.0 L 128.0 14.0 L 128.0 13.0 L 128.0 12.0 L 128.0 11.0 L 128.0 10.0 L 128.0 9.0 L 128.0 8.0 L 128.0 7.0 L 128.0 6.0 L 128.0 5.0 L 128.0 4.0 L 128.0 3.0 L 128.0 2.0 L 128.0 1.0 L 127.66666666666667 0.3333333333333333 L 127.0 0.0 L 126.0 0.0 L 125.0 0.0 L 124.0 0.0 L 123.0 0.0 L 122.0 0.0 L 121.0 0.0 L 120.0 0.0 L 119.0 0.0 L 118.0 0.0 L 117.0 0.0 L 116.0 0.0 L 115.0 0.0 L 114.0 0.0 L 113.0 0.0 L 112.0 0.0 L 111.0 0.0 L 110.0 0.0 L 109.0 0.0 L 108.0 0.0 L 107.0 0.0 L 106.0 0.0 L 105.0 0.0 L 104.0 0.0 L 103.0 0.0 L 102.0 0.0 L 101.0 0.0 L 100.0 0.0 L 99.0 0.0 L 98.0 0.0 L 97.0 0.0 L 96.0 0.0 L 95.0 0.0 L 94.0 0.0 L 93.0 0.0 L 92.0 0.0 L 91.0 0.0 L 90.0 0.0 L 89.0 0.0 L 88.0 0.0 L 87.0 0.0 L 86.0 0.0 L 85.0 0.0 L 84.0 0.0 L 83.0 0.0 L 82.0 0.0 L 81.0 0.0 L 80.0 0.0 L 79.0 0.0 L 78.0 0.0 L 77.0 0.0 L 76.0 0.0 L 75.0 0.0 L 74.0 0.0 L 73.0 0.0 L 72.0 0.0 L 71.0 0.0 L 70.0 0.0 L 69.0 0.0 L 68.0 0.0 L 67.0 0.0 L 66.0 0.0 L 65.0 0.0 L 64.0 0.0 L 63.0 0.0 L 62.0 0.0 L 61.0 0.0 L 60.0 0.0 L 59.0 0.0 L 58.0 0.0 L 57.0 0.0 L 56.0 0.0 L 55.0 0.0 L 54.0 0.0 L 53.0 0.0 L 52.0 0.0 L 51.0 0.0 L 50.0 0.0 L 49.0 0.0 L 48.0 0.0 L 47.0 0.0 L 46.0 0.0 L 45.0 0.0 L 44.0 0.0 L 43.0 0.0 L 42.0 0.0 L 41.0 0.0 L 40.0 0.0 L 39.0 0.0 L 38.0 0.0 L 37.0 0.0 L 36.0 0.0 L 35.0 0.0 L 34.0 0.0 L 33.0 0.0 L 32.0 0.0 L 31.0 0.0 L 30.0 0.0 L 29.0 0.0 L 28.0 0.0 L 27.0 0.0 L 26.0 0.0 L 25.0 0.0 L 24.0 0.0 L 23.0 0.0 L 22.0 0.0 L 21.0 0.0 L 20.0 0.0 L 19.0 0.0 L 18.0 0.0 L 17.0 0.0 L 16.0 0.0 L 15.0 0.0 L 14.0 0.0 L 13.0 0.0 L 12.0 0.0 L 11.0 0.0 L 10.0 0.0 L 9.0 0.0 L 8.0 0.0 L 7.0 0.0 L 6.0 0.0 L 5.0 0.0 L 4.0 0.0 L 3.0 0.0 L 2.0 0.0 L 1.0 0.0 L 0.3333333333333333 0.3333333333333333 L 0.0 1.0 L 0.0 2.0 L 0.0 3.0 L 0.0 4.0 L 0.0 5.0 L 0.0 6.0 L 0.0 7.0 L 0.0 8.0 L 0.0 9.0 L 0.0 10.0 L 0.0 11.0 L 0.0 12.0 L 0.0 13.0 L 0.0 14.0 L 0.0 15.0 L 0.0 16.0 L 0.0 17.0 L 0.0 18.0 L 0.0 19.0 L 0.0 20.0 L 0.0 21.0 L 0.0 22.0 L 0.0 23.0 L 0.0 24.0 L 0.0 25.0 L 0.0 26.0 L 0.0 27.0 L 0.0 28.0 L 0.0 29.0 L 0.0 30.0 L 0.0 31.0 L 0.0 32.0 L 0.0 33.0 L 0.0 34.0 L 0.0 35.0 L 0.0 36.0 L 0.0 37.0 L 0.0 38.0 L 0.0 39.0 L 0.0 40.0 L 0.0 41.0 L 0.0 42.0 L 0.0 43.0 L 0.0 44.0 L 0.0 45.0 L 0.0 46.0 L 0.0 47.0 L 0.0 48.0 L 0.0 49.0 L 0.0 50.0 L 0.0 51.0 L 0.0 52.0 L 0.0 53.0 L 0.0 54.0 L 0.0 55.0 L 0.0 56.0 L 0.0 57.0 L 0.0 58.0 L 0.0 59.0 L 0.0 60.0 L 0.0 61.0 L 0.0 62.0 L 0.0 63.0 L 0.0 64.0 L 0.0 65.0 L 0.0 66.0 L 0.0 67.0 L 0.0 68.0 L 0.0 69.0 L 0.0 70.0 L 0.0 71.0 L 0.0 72.0 L 0.0 73.0 L 0.0 74.0 L 0.0 75.0 L 0.0 76.0 L 0.0 77.0 L 0.0 78.0 L 0.0 79.0 L 0.0 80.0 L 0.0 81.0 L 0.0 82.0 L 0.0 83.0 L 0.0 84.0 L 0.0 85.0 L 0.0 86.0 L 0.0 87.0 L 0.0 88.0 L 0.0 89.0 L 0.0 90.0 L 0.0 91.0 L 0.0 92.0 L 0.0 93.0 L 0.0 94.0 L 0.0 95.0 L 0.0 96.0 L 0.0 97.0 L 0.0 98.0 L 0.0 99.0 L 0.0 100.0 L 0.0 101.0 L 0.0 102.0 L 0.0 103.0 L 0.0 104.0 L 0.0 105.0 L 0.0 106.0 L 0.0 107.0 L 0.0 108.0 L 0.0 109.0 L 0.0 110.0 L 0.0 111.0 L 0.0 112.0 L 0.0 113.0 L 0.0 114.0 L 0.0 115.0 L 0.0 116.0 L 0.0 117.0 L 0.0 118.0 L 0.0 119.0 L 0.0 120.0 L 0.0 121.0 L 0.0 122.0 L 0.0 123.0 L 0.0 124.0 L 0.0 125.0 L 0.0 126.0 L 0.0 127.0 L 0.3333333333333333 127.66666666666667 L 1.0 128.0 L 2.0 128.0 L 3.0 128.0 L 4.0 128.0 L 5.0 128.0 L 6.0 128.0 L 7.0 128.0 L 8.0 128.0 L 9.0 128.0 L 10.0 128.0 L 11.0 128.0 L 12.0 128.0 L 13.0 128.0 L 14.0 128.0 L 15.0 128.0 L 16.0 128.0 L 17.0 128.0 L 18.0 128.0 L 19.0 128.0 L 20.0 128.0 L 21.0 128.0 L 22.0 128.0 L 23.0 128.0 L 24.0 128.0 L 25.0 128.0 L 26.0 128.0 L 27.0 128.0 L 28.0 128.0 L 29.0 128.0 L 30.0 128.0 L 31.0 128.0 L 32.0 128.0 L 33.0 128.0 L 34.0 128.0 L 35.0 128.0 L 36.0 128.0 L 37.0 128.0 L 38.0 128.0 L 39.0 128.0 L 40.0 128.0 L 41.0 128.0 L 42.0 128.0 L 43.0 128.0 L 44.0 128.0 L 45.0 128.0 L 46.0 128.0 L 47.0 128.0 L 48.0 128.0 L 49.0 128.0 L 50.0 128.0 L 51.0 128.0 L 52.0 128.0 L 53.0 128.0 L 54.0 128.0 L 55.0 128.0 L 56.0 128.0 L 57.0 128.0 L 58.0 128.0 L 59.0 128.0 L 60.0 128.0 L 61.0 128.0 L 62.0 128.0 L 63.0 128.0 L 64.0 128.0 L 65.0 128.0 L 66.0 128.0 L 67.0 128.0 L 68.0 128.0 L 69.0 128.0 L 70.0 128.0 L 71.0 128.0 L 72.0 128.0 L 73.0 128.0 L 74.0 128.0 L 75.0 128.0 L 76.0 128.0 L 77.0 128.0 L 78.0 128.0 L 79.0 128.0 L 80.0 128.0 L 81.0 128.0 L 82.0 128.0 L 83.0 128.0 L 84.0 128.0 L 85.0 128.0 L 86.0 128.0 L 87.0 128.0 L 87.5 128.0 Z" stroke="none" fill="rgb(0,0,0)" />
<path d="M 26.5 23.0 L 27.0 23.0 L 28.0 23.0 L 29.0 22.666666666666668 L 30.0 22.333333333333332 L 31.0 22.0 L 32.0 22.0 L 33.0 21.666666666666668 L 34.0 21.333333333333332 L 35.0 21.0 L 36.0 21.0 L 37.0 20.666666666666668 L 38.0 20.333333333333332 L 39.0 20.0 L 40.0 20.0 L 41.0 19.666666666666668 L 42.0 19.333333333333332 L 43.0 19.0 L 44.0 19.0 L 45.0 18.666666666666668 L 46.0 18.333333333333332 L 47.0 18.0 L 48.0 18.0 L 49.0 18.0 L 50.0 18.0 L 51.0 17.666666666666668 L 52.0 17.666666666666668 L 52.666666666666664 18.0 L 53.0 19.0 L 53.333333333333336 20.0 L 53.666666666666664 21.0 L 54.0 22.0 L 54.0 23.0 L 54.0 24.0 L 54.0 25.0 L 54.0 26.0 L 54.333333333333336 27.0 L 54.666666666666664 28.0 L 55.0 29.0 L 55.0 30.0 L 55.0 31.0 L 55.0 32.0 L 55.0 33.0 L 55.333333333333336 34.0 L 55.666666666666664 35.0 L 56.0 36.0 L 56.0 37.0 L 56.0 38.0 L 56.0 39.0 L 56.333333333333336 40.0 L 56.666666666666664 41.0 L 57.0 42.0 L 57.333333333333336 43.0 L 58.0 44.0 L 59.0 44.666666666666664 L 60.0 45.0 L 61.0 45.0 L 61.666666666666664 44.666666666666664 L 62.0 44.0 L 62.0 43.0 L 61.666666666666664 42.0 L 61.333333333333336 41.0 L 60.666666666666664 40.0 L 60.0 39.0 L 59.333333333333336 38.0 L 59.0 37.0 L 59.0 36.0 L 59.333333333333336 35.0 L 59.666666666666664 34.0 L 59.666666666666664 33.0 L 59.333333333333336 32.0 L 59.0 31.0 L 59.0 30.0 L 58.666666666666664 29.0 L 58.0 28.0 L 57.333333333333336 27.0 L 57.333333333333336 26.0 L 58.0 25.0 L 58.666666666666664 24.0 L 58.666666666666664 23.0 L 58.333333333333336 22.0 L 58.0 21.0 L 57.666666666666664 20.0 L 57.0 19.0 L 56.333333333333336 18.0 L 56.333333333333336 17.0 L 57.0 16.333333333333332 L 58.0 15.666666666666666 L 59.0 15.333333333333334 L 60.0 15.333333333333334 L 61.0 15.666666666666666 L 62.0 15.666666666666666 L 62.666666666666664 15.0 L 63.0 14.0 L 63.0 13.0 L 63.0 12.0 L 63.333333333333336 11.0 L 64.0 10.333333333333334 L 65.0 10.0 L 66.0 10.0 L 67.0 10.0 L 67.66666666666667 9.666666666666666 L 68.0 9.0 L 67.66666666666667 8.0 L 67.33333333333333 7.0 L 66.66666666666667 6.333333333333333 L 66.0 6.0 L 65.0 6.0 L 64.0 6.0 L 63.0 6.0 L 62.0 6.0 L 61.0 6.0 L 60.0 6.0 L 59.0 6.0 L 58.0 6.0 L 57.0 6.0 L 56.0 6.333333333333333 L 55.0 6.666666666666667 L 54.0 7.333333333333333 L 53.333333333333336 8.0 L 53.0 9.0 L 52.666666666666664 10.0 L 52.0 10.666666666666666 L 51.0 11.0 L 50.0 11.0 L 49.0 11.0 L 48.0 11.0 L 47.0 11.333333333333334 L 46.0 11.666666666666666 L 45.0 12.0 L 44.0 12.0 L 43.0 12.0 L 42.0 12.333333333333334 L 41.0 12.666666666666666 L 40.0 13.0 L 39.0 13.0 L 38.0 13.333333333333334 L 37.0 13.666666666666666 L 36.0 14.0 L 35.0 14.333333333333334 L 34.0 14.666666666666666 L 33.0 15.0 L 32.0 15.333333333333334 L 31.0 15.666666666666666 L 30.0 16.0 L 29.0 16.333333333333332 L 28.0 16.666666666666668 L 27.0 17.333333333333332 L 26.333333333333332 18.0 L 25.666666666666668 19.0 L 25.333333333333332 20.0 L 25.0 21.0 L 25.333333333333332 22.0 L 25.5 22.5 Z" stroke="none" fill="rgb(176,176,176)" />
<path d="M 68.5 14.0 L 69.0 14.0 L 69.66666666666667 13.666666666666666 L 69.66666666666667 13.0 L 69.33333333333333 12.0 L 68.66666666666667 11.0 L 68.0 10.333333333333334 L 67.0 10.0 L 66.0 10.0 L 65.0 10.0 L 64.0 10.0 L 63.333333333333336 10.333333333333334 L 63.0 11.0 L 63.0 12.0 L 63.0 13.0 L 63.333333333333336 13.666666666666666 L 64.0 14.0 L 65.0 14.0 L 66.0 14.0 L 67.0 14.0 L 67.5 14.0 Z" stroke="none" fill="rgb(216,205,201)" />
<path d="M 72.0 19.5 L 72.0 19.0 L 72.0 18.0 L 72.0 17.0 L 72.0 16.0 L 71.66666666666667 15.0 L 71.0 14.333333333333334 L 70.0 14.0 L 69.0 14.0 L 68.0 14.0 L 67.0 14.0 L 66.0 14.0 L 65.0 14.0 L 64.0 14.0 L 63.0 14.333333333333334 L 62.333333333333336 15.0 L 62.0 16.0 L 62.0 17.0 L 62.0 18.0 L 62.333333333333336 19.0 L 63.0 19.666666666666668 L 64.0 20.0 L 65.0 20.333333333333332 L 66.0 20.666666666666668 L 67.0 20.666666666666668 L 68.0 20.333333333333332 L 69.0 20.0 L 70.0 20.0 L 71.0 20.0 L 71.5 20.0 Z" stroke="none" fill="rgb(242,237,236)" />
<path d="M 61.5 21.0 L 62.0 21.0 L 62.666666666666664 20.666666666666668 L 63.0 20.0 L 62.666666666666664 19.0 L 62.333333333333336 18.0 L 62.0 17.0 L 61.666666666666664 16.0 L 61.0 15.333333333333334 L 60.0 15.0 L 59.0 15.0 L 58.0 15.333333333333334 L 57.0 15.666666666666666 L 56.333333333333336 16.333333333333332 L 56.0 17.0 L 56.0 18.0 L 56.333333333333336 19.0 L 57.0 20.0 L 58.0 20.666666666666668 L 59.0 21.0 L 60.0 21.0 L 60.5 21.0 Z" stroke="none" fill="rgb(254,255,255)" />
<path d="M 59.5 94.0 L 60.0 94.33333333333333 L 61.0 94.66666666666667 L 62.0 95.33333333333333 L 63.0 95.66666666666667 L 64.0 96.33333333333333 L 65.0 96.66666666666667 L 66.0 97.33333333333333 L 67.0 97.66666666666667 L 68.0 98.33333333333333 L 69.0 98.66666666666667 L 70.0 99.33333333333333 L 71.0 99.66666666666667 L 72.0 100.33333333333333 L 73.0 100.66666666666667 L 74.0 101.0 L 75.0 101.0 L 76.0 101.33333333333333 L 77.0 101.66666666666667 L 78.0 102.0 L 79.0 102.0 L 80.0 102.0 L 81.0 102.0 L 82.0 102.0 L 83.0 102.0 L 84.0 102.0 L 85.0 102.0 L 86.0 102.0 L 87.0 102.0 L 88.0 102.0 L 89.0 102.0 L 90.0 102.0 L 91.0 102.0 L 92.0 102.0 L 93.0 102.0 L 94.0 102.0 L 95.0 102.0 L 96.0 102.0 L 97.0 102.0 L 98.0 102.0 L 99.0 102.0 L 100.0 102.0 L 101.0 102.0 L 102.0 102.0 L 103.0 102.0 L 104.0 102.0 L 105.0 102.0 L 106.0 102.0 L 107.0 102.0 L 108.0 102.0 L 109.0 102.0 L 110.0 102.0 L 111.0 102.0 L 112.0 102.0 L 113.0 102.0 L 114.0 102.0 L 115.0 101.66666666666667 L 116.0 101.33333333333333 L 117.0 101.0 L 118.0 101.0 L 119.0 101.0 L 120.0 101.0 L 121.0 100.66666666666667 L 122.0 100.33333333333333 L 123.0 100.0 L 123.66666666666667 99.66666666666667 L 124.33333333333333 99.0 L 124.66666666666667 98.0 L 125.0 97.0 L 125.0 96.0 L 125.0 95.0 L 125.0 94.0 L 124.66666666666667 93.0 L 124.33333333333333 92.0 L 124.0 91.0 L 124.0 90.0 L 123.66666666666667 89.0 L 123.33333333333333 88.0 L 122.66666666666667 87.0 L 122.0 86.33333333333333 L 121.0 85.66666666666667 L 120.0 85.0 L 119.0 84.33333333333333 L 118.0 83.66666666666667 L 117.0 83.33333333333333 L 116.0 82.66666666666667 L 115.0 82.33333333333333 L 114.0 82.0 L 113.0 82.33333333333333 L 112.0 83.0 L 111.0 84.0 L 110.0 84.66666666666667 L 109.0 85.0 L 108.0 85.0 L 107.0 85.0 L 106.0 85.0 L 105.0 85.0 L 104.0 85.0 L 103.0 84.66666666666667 L 102.0 84.33333333333333 L 101.0 84.0 L 100.0 83.66666666666667 L 99.0 83.33333333333333 L 98.0 83.0 L 97.0 82.66666666666667 L 96.0 82.0 L 95.0 81.33333333333333 L 94.0 81.0 L 93.0 80.66666666666667 L 92.0 80.33333333333333 L 91.0 79.66666666666667 L 90.0 79.0 L 89.0 78.33333333333333 L 88.0 77.66666666666667 L 87.0 77.0 L 86.0 76.0 L 85.0 75.33333333333333 L 84.0 74.66666666666667 L 83.0 74.0 L 82.0 73.0 L 81.0 72.0 L 80.0 71.0 L 79.0 70.0 L 78.0 69.33333333333333 L 77.0 69.0 L 76.0 68.66666666666667 L 75.0 68.0 L 74.0 67.0 L 73.0 66.0 L 72.0 65.0 L 71.0 64.0 L 70.0 63.0 L 69.0 62.0 L 68.33333333333333 61.0 L 67.66666666666667 60.0 L 67.0 59.0 L 66.0 58.0 L 65.0 57.0 L 64.0 56.0 L 63.0 55.0 L 62.0 54.0 L 61.333333333333336 53.0 L 61.0 52.0 L 61.0 51.0 L 60.666666666666664 50.0 L 60.0 49.0 L 59.333333333333336 48.0 L 59.0 47.0 L 59.0 46.0 L 59.0 45.0 L 58.666666666666664 44.0 L 58.0 43.0 L 57.333333333333336 42.0 L 57.0 41.0 L 56.666666666666664 40.0 L 56.333333333333336 39.0 L 56.0 38.0 L 56.0 37.0 L 56.0 36.0 L 56.0 35.0 L 55.666666666666664 34.0 L 55.333333333333336 33.0 L 55.0 32.0 L 55.0 31.0 L 55.0 30.0 L 55.0 29.0 L 55.0 28.0 L 54.666666666666664 27.0 L 54.333333333333336 26.0 L 54.0 25.0 L 54.0 24.0 L 54.0 23.0 L 54.0 22.0 L 54.0 21.0 L 53.666666666666664 20.0 L 53.333333333333336 19.0 L 53.0 18.0 L 52.666666666666664 17.333333333333332 L 52.0 17.0 L 51.0 17.333333333333332 L 50.0 17.666666666666668 L 49.0 18.0 L 48.0 18.0 L 47.0 18.0 L 46.0 18.0 L 45.0 18.333333333333332 L 44.0 18.666666666666668 L 43.0 19.0 L 42.0 19.0 L 41.0 19.333333333333332 L 40.0 19.666666666666668 L 39.0 20.0 L 38.0 20.0 L 37.0 20.333333333333332 L 36.0 20.666666666666668 L 35.0 21.0 L 34.0 21.0 L 33.0 21.333333333333332 L 32.0 21.666666666666668 L 31.0 22.0 L 30.0 22.0 L 29.0 22.333333333333332 L 28.0 22.666666666666668 L 27.0 23.0 L 26.0 23.0 L 25.333333333333332 23.333333333333332 L 24.666666666666668 24.0 L 24.333333333333332 25.0 L 24.0 26.0 L 24.0 27.0 L 23.666666666666668 28.0 L 23.333333333333332 29.0 L 23.0 30.0 L 22.666666666666668 31.0 L 22.333333333333332 32.0 L 22.0 33.0 L 22.0 34.0 L 21.666666666666668 35.0 L 21.333333333333332 36.0 L 21.0 37.0 L 20.666666666666668 38.0 L 20.333333333333332 39.0 L 20.0 40.0 L 19.666666666666668 41.0 L 19.333333333333332 42.0 L 18.666666666666668 43.0 L 18.333333333333332 44.0 L 18.0 45.0 L 17.666666666666668 46.0 L 17.333333333333332 47.0 L 16.666666666666668 48.0 L 16.333333333333332 49.0 L 16.0 50.0 L 15.666666666666666 51.0 L 15.333333333333334 52.0 L 15.0 53.0 L 14.666666666666666 54.0 L 14.333333333333334 55.0 L 14.0 56.0 L 13.666666666666666 57.0 L 13.333333333333334 58.0 L 13.0 59.0 L 12.666666666666666 60.0 L 12.333333333333334 61.0 L 12.0 62.0 L 12.0 63.0 L 12.0 64.0 L 12.0 65.0 L 12.0 66.0 L 12.0 67.0 L 12.0 68.0 L 12.0 69.0 L 12.0 70.0 L 12.0 71.0 L 12.0 72.0 L 12.0 73.0 L 12.0 74.0 L 12.0 75.0 L 12.0 76.0 L 12.333333333333334 77.0 L 13.0 78.0 L 14.0 78.66666666666667 L 15.0 79.0 L 16.0 79.33333333333333 L 17.0 79.66666666666667 L 18.0 80.0 L 19.0 80.33333333333333 L 20.0 80.66666666666667 L 21.0 81.0 L 22.0 81.0 L 23.0 81.33333333333333 L 24.0 81.66666666666667 L 25.0 82.0 L 26.0 82.0 L 27.0 82.33333333333333 L 28.0 82.66666666666667 L 29.0 83.0 L 30.0 83.0 L 31.0 83.0 L 32.0 83.33333333333333 L 33.0 83.66666666666667 L 34.0 84.0 L 35.0 84.0 L 36.0 84.33333333333333 L 37.0 84.66666666666667 L 38.0 85.0 L 39.0 85.0 L 40.0 85.33333333333333 L 41.0 85.66666666666667 L 42.0 86.0 L 43.0 86.33333333333333 L 44.0 86.66666666666667 L 45.0 87.33333333333333 L 46.0 87.66666666666667 L 47.0 88.0 L 48.0 88.33333333333333 L 49.0 88.66666666666667 L 50.0 89.33333333333333 L 51.0 89.66666666666667 L 52.0 90.33333333333333 L 53.0 90.66666666666667 L 54.0 91.33333333333333 L 55.0 91.66666666666667 L 56.0 92.33333333333333 L 57.0 92.66666666666667 L 58.0 93.33333333333333 L 58.5 93.5 Z" stroke="none" fill="rgb(216,205,201)" />
<path d="M 63.5 24.0 L 64.0 24.0 L 65.0 23.666666666666668 L 66.0 23.333333333333332 L 66.66666666666667 22.666666666666668 L 67.0 22.0 L 66.66666666666667 21.0 L 66.0 20.333333333333332 L 65.0 20.0 L 64.0 20.0 L 63.0 20.333333333333332 L 62.333333333333336 21.0 L 62.0 22.0 L 62.333333333333336 23.0 L 62.5 23.5 Z" stroke="none" fill="rgb(176,176,176)" />
<path d="M 71.5 23.0 L 71.66666666666667 22.666666666666668 L 72.0 22.0 L 72.0 21.0 L 71.66666666666667 20.333333333333332 L 71.0 20.0 L 70.0 20.0 L 69.0 20.0 L 68.0 20.0 L 67.33333333333333 20.333333333333332 L 67.0 21.0 L 67.0 22.0 L 67.33333333333333 22.666666666666668 L 68.0 23.0 L 69.0 23.0 L 70.0 23.0 L 70.5 23.0 Z" stroke="none" fill="rgb(216,205,201)" />
<path d="M 62.5 24.0 L 62.666666666666664 23.666666666666668 L 62.666666666666664 23.0 L 62.333333333333336 22.0 L 61.666666666666664 21.333333333333332 L 61.0 21.0 L 60.0 21.0 L 59.0 21.0 L 58.333333333333336 21.333333333333332 L 58.0 22.0 L 58.333333333333336 23.0 L 59.0 23.666666666666668 L 60.0 24.0 L 61.0 24.0 L 61.5 24.0 Z" stroke="none" fill="rgb(216,205,201)" />
<path d="M 68.5 29.5 L 69.0 29.333333333333332 L 70.0 29.0 L 71.0 29.0 L 72.0 29.0 L 73.0 28.666666666666668 L 73.66666666666667 28.0 L 74.0 27.0 L 74.0 26.0 L 74.0 25.0 L 73.66666666666667 24.0 L 73.0 23.333333333333332 L 72.0 23.0 L 71.0 23.0 L 70.0 23.0 L 69.0 23.0 L 68.0 23.0 L 67.0 23.0 L 66.0 23.0 L 65.0 23.333333333333332 L 64.0 23.666666666666668 L 63.333333333333336 24.333333333333332 L 63.0 25.0 L 63.0 26.0 L 63.0 27.0 L 63.333333333333336 28.0 L 64.0 28.666666666666668 L 65.0 29.0 L 66.0 29.333333333333332 L 67.0 29.666666666666668 L 67.5 30.0 Z" stroke="none" fill="rgb(242,237,236)" />
<path d="M 61.5 30.0 L 62.0 30.0 L 63.0 30.0 L 63.666666666666664 29.666666666666668 L 64.0 29.0 L 63.666666666666664 28.0 L 63.333333333333336 27.0 L 63.0 26.0 L 63.0 25.0 L 62.666666666666664 24.333333333333332 L 62.0 24.0 L 61.0 24.0 L 60.0 24.0 L 59.0 24.0 L 58.0 24.333333333333332 L 57.333333333333336 25.0 L 57.0 26.0 L 57.0 27.0 L 57.333333333333336 28.0 L 58.0 29.0 L 59.0 29.666666666666668 L 60.0 30.0 L 60.5 30.0 Z" stroke="none" fill="rgb(254,255,255)" />
<path d="M 65.5 34.0 L 66.0 33.666666666666664 L 67.0 33.333333333333336 L 67.66666666666667 32.666666666666664 L 68.0 32.0 L 68.0 31.0 L 67.66666666666667 30.0 L 67.0 29.333333333333332 L 66.0 29.0 L 65.0 29.0 L 64.0 29.333333333333332 L 63.333333333333336 30.0 L 63.0 31.0 L 63.0 32.0 L 63.333333333333336 33.0 L 64.0 33.666666666666664 L 64.5 34.0 Z" stroke="none" fill="rgb(176,176,176)" />
<path d="M 72.5 32.0 L 72.66666666666667 31.666666666666668 L 73.0 31.0 L 73.0 30.0 L 72.66666666666667 29.333333333333332 L 72.0 29.0 L 71.0 29.0 L 70.0 29.0 L 69.0 29.0 L 68.33333333333333 29.333333333333332 L 68.0 30.0 L 68.0 31.0 L 68.33333333333333 31.666666666666668 L 69.0 32.0 L 70.0 32.0 L 71.0 32.0 L 71.5 32.0 Z" stroke="none" fill="rgb(216,205,201)" />
<path d="M 61.5 33.0 L 62.0 33.0 L 62.666666666666664 32.666666666666664 L 63.0 32.0 L 63.0 31.0 L 62.666666666666664 30.333333333333332 L 62.0 30.0 L 61.0 30.0 L 60.0 30.0 L 59.333333333333336 30.333333333333332 L 59.0 31.0 L 59.0 32.0 L 59.333333333333336 32.666666666666664 L 60.0 33.0 L 60.5 33.0 Z" stroke="none" fill="rgb(216,205,201)" />
<path d="M 23.0 71.5 L 23.0 71.0 L 23.0 70.0 L 23.0 69.0 L 23.0 68.0 L 23.0 67.0 L 23.0 66.0 L 23.0 65.0 L 23.0 64.0 L 23.0 63.0 L 23.0 62.0 L 23.0 61.0 L 23.333333333333332 60.0 L 23.666666666666668 59.0 L 24.0 58.0 L 24.0 57.0 L 24.0 56.0 L 24.0 55.0 L 24.333333333333332 54.0 L 24.666666666666668 53.0 L 25.0 52.0 L 25.0 51.0 L 25.333333333333332 50.0 L 25.666666666666668 49.0 L 26.0 48.0 L 26.0 47.0 L 26.333333333333332 46.0 L 26.666666666666668 45.0 L 27.0 44.0 L 27.333333333333332 43.0 L 27.666666666666668 42.0 L 28.0 41.0 L 28.333333333333332 40.0 L 28.666666666666668 39.0 L 29.333333333333332 38.0 L 29.666666666666668 37.0 L 30.0 36.0 L 30.0 35.0 L 30.0 34.0 L 30.0 33.0 L 30.0 32.0 L 29.666666666666668 31.333333333333332 L 29.0 31.0 L 28.0 31.0 L 27.333333333333332 31.333333333333332 L 26.666666666666668 32.0 L 26.333333333333332 33.0 L 26.0 34.0 L 25.666666666666668 35.0 L 25.333333333333332 36.0 L 25.0 37.0 L 24.666666666666668 38.0 L 24.333333333333332 39.0 L 24.0 40.0 L 23.666666666666668 41.0 L 23.333333333333332 42.0 L 23.0 43.0 L 22.666666666666668 44.0 L 22.333333333333332 45.0 L 21.666666666666668 46.0 L 21.333333333333332 47.0 L 21.0 48.0 L 20.666666666666668 49.0 L 20.333333333333332 50.0 L 19.666666666666668 51.0 L 19.333333333333332 52.0 L 19.0 53.0 L 18.666666666666668 54.0 L 18.333333333333332 55.0 L 18.0 56.0 L 17.666666666666668 57.0 L 17.333333333333332 58.0 L 17.0 59.0 L 16.666666666666668 60.0 L 16.333333333333332 61.0 L 16.0 62.0 L 16.0 63.0 L 16.0 64.0 L 16.0 65.0 L 16.0 66.0 L 16.0 67.0 L 16.0 68.0 L 16.0 69.0 L 16.0 70.0 L 16.0 71.0 L 16.333333333333332 72.0 L 17.0 73.0 L 18.0 73.66666666666667 L 19.0 74.0 L 20.0 74.0 L 21.0 73.66666666666667 L 22.0 73.0 L 22.5 72.5 Z" stroke="none" fill="rgb(254,255,255)" />
<path d="M 65.5 38.5 L 66.0 38.666666666666664 L 67.0 39.0 L 68.0 39.333333333333336 L 69.0 39.666666666666664 L 70.0 39.666666666666664 L 71.0 39.333333333333336 L 72.0 39.0 L 73.0 39.0 L 74.0 38.666666666666664 L 74.66666666666667 38.0 L 75.0 37.0 L 75.0 36.0 L 75.0 35.0 L 75.0 34.0 L 74.66666666666667 33.0 L 74.0 32.333333333333336 L 73.0 32.0 L 72.0 32.0 L 71.0 32.0 L 70.0 32.0 L 69.0 32.0 L 68.0 32.333333333333336 L 67.0 32.666666666666664 L 66.0 33.333333333333336 L 65.33333333333333 34.0 L 65.0 35.0 L 65.0 36.0 L 65.0 37.0 L 65.0 37.5 Z" stroke="none" fill="rgb(242,237,236)" />
<path d="M 62.5 40.0 L 63.0 39.666666666666664 L 64.0 39.666666666666664 L 65.0 39.666666666666664 L 65.66666666666667 39.666666666666664 L 66.0 39.0 L 65.66666666666667 38.0 L 65.33333333333333 37.0 L 65.0 36.0 L 65.0 35.0 L 64.66666666666667 34.0 L 64.0 33.333333333333336 L 63.0 33.0 L 62.0 33.0 L 61.0 33.0 L 60.0 33.333333333333336 L 59.333333333333336 34.0 L 59.0 35.0 L 59.0 36.0 L 59.0 37.0 L 59.0 38.0 L 59.333333333333336 39.0 L 60.0 39.666666666666664 L 61.0 40.0 L 61.5 40.0 Z" stroke="none" fill="rgb(254,255,255)" />
<path d="M 61.5 42.5 L 62.0 42.666666666666664 L 63.0 43.0 L 64.0 43.0 L 65.0 43.0 L 65.66666666666667 42.666666666666664 L 66.0 42.0 L 66.0 41.0 L 65.66666666666667 40.0 L 65.0 39.333333333333336 L 64.0 39.0 L 63.0 39.333333333333336 L 62.0 39.666666666666664 L 61.333333333333336 40.333333333333336 L 61.0 41.0 L 61.0 41.5 Z" stroke="none" fill="rgb(216,205,201)" />
<path d="M 66.5 42.0 L 67.0 42.0 L 68.0 42.0 L 69.0 42.0 L 69.66666666666667 41.666666666666664 L 70.0 41.0 L 69.66666666666667 40.0 L 69.0 39.333333333333336 L 68.0 39.0 L 67.0 39.0 L 66.33333333333333 39.333333333333336 L 66.0 40.0 L 66.0 41.0 L 66.0 41.5 Z" stroke="none" fill="rgb(176,176,176)" />
<path d="M 73.5 42.0 L 73.66666666666667 41.666666666666664 L 74.0 41.0 L 74.0 40.0 L 73.66666666666667 39.333333333333336 L 73.0 39.0 L 72.0 39.0 L 71.0 39.0 L 70.33333333333333 39.333333333333336 L 70.0 40.0 L 70.0 41.0 L 70.33333333333333 41.666666666666664 L 71.0 42.0 L 72.0 42.0 L 72.5 42.0 Z" stroke="none" fill="rgb(216,205,201)" />
<path d="M 69.5 60.0 L 70.0 60.0 L 71.0 60.0 L 72.0 59.666666666666664 L 73.0 59.333333333333336 L 74.0 58.666666666666664 L 75.0 58.333333333333336 L 76.0 57.666666666666664 L 77.0 57.333333333333336 L 78.0 57.0 L 79.0 56.666666666666664 L 80.0 56.333333333333336 L 80.66666666666667 55.666666666666664 L 81.0 55.0 L 81.0 54.0 L 81.0 53.0 L 80.66666666666667 52.0 L 80.0 51.333333333333336 L 79.0 50.666666666666664 L 78.0 50.0 L 77.33333333333333 49.0 L 77.0 48.0 L 77.0 47.0 L 77.0 46.0 L 77.0 45.0 L 76.66666666666667 44.0 L 76.0 43.0 L 75.0 42.333333333333336 L 74.0 42.0 L 73.0 42.0 L 72.0 42.0 L 71.0 42.0 L 70.0 42.0 L 69.0 42.0 L 68.0 42.0 L 67.0 42.0 L 66.0 42.333333333333336 L 65.0 42.666666666666664 L 64.0 43.0 L 63.0 43.0 L 62.333333333333336 43.333333333333336 L 61.666666666666664 44.0 L 61.333333333333336 45.0 L 61.0 46.0 L 61.0 47.0 L 61.333333333333336 48.0 L 62.0 49.0 L 63.0 50.0 L 64.0 50.666666666666664 L 65.0 50.666666666666664 L 66.0 50.333333333333336 L 67.0 50.0 L 68.0 49.666666666666664 L 69.0 49.666666666666664 L 70.0 50.0 L 70.33333333333333 51.0 L 70.0 52.0 L 69.0 53.0 L 68.0 54.0 L 67.33333333333333 55.0 L 67.0 56.0 L 67.0 57.0 L 67.33333333333333 58.0 L 68.0 59.0 L 68.5 59.5 Z" stroke="none" fill="rgb(242,237,236)" />
<path d="M 59.5 49.5 L 60.0 50.0 L 61.0 50.666666666666664 L 62.0 51.0 L 63.0 51.0 L 63.666666666666664 50.666666666666664 L 63.666666666666664 50.0 L 63.0 49.0 L 62.0 48.0 L 61.333333333333336 47.0 L 61.0 46.0 L 60.666666666666664 45.333333333333336 L 60.0 45.0 L 59.333333333333336 45.333333333333336 L 59.0 46.0 L 59.0 47.0 L 59.0 48.0 L 59.0 48.5 Z" stroke="none" fill="rgb(71,76,79)" />
<path d="M 66.5 55.0 L 67.0 55.0 L 68.0 54.666666666666664 L 69.0 54.0 L 70.0 53.0 L 70.66666666666667 52.0 L 71.0 51.0 L 70.66666666666667 50.0 L 70.0 49.333333333333336 L 69.0 49.0 L 68.0 49.333333333333336 L 67.0 49.666666666666664 L 66.0 50.0 L 65.0 50.333333333333336 L 64.33333333333333 51.0 L 64.33333333333333 52.0 L 65.0 53.0 L 65.66666666666667 54.0 L 66.0 54.5 Z" stroke="none" fill="rgb(216,205,201)" />
<path d="M 73.5 51.0 L 74.0 51.0 L 75.0 51.0 L 75.66666666666667 50.666666666666664 L 76.0 50.0 L 75.66666666666667 49.333333333333336 L 75.0 49.0 L 74.0 49.0 L 73.33333333333333 49.333333333333336 L 73.0 50.0 L 73.0 50.5 Z" stroke="none" fill="rgb(176,176,176)" />
<path d="M 72.5 66.5 L 73.0 67.0 L 74.0 68.0 L 75.0 68.66666666666667 L 76.0 69.0 L 77.0 69.0 L 77.66666666666667 68.66666666666667 L 77.66666666666667 68.0 L 77.0 67.0 L 76.33333333333333 66.0 L 76.0 65.0 L 75.66666666666667 64.0 L 75.0 63.0 L 74.0 62.0 L 73.0 61.0 L 72.0 60.333333333333336 L 71.0 60.0 L 70.0 59.666666666666664 L 69.0 59.0 L 68.0 58.0 L 67.33333333333333 57.0 L 67.0 56.0 L 66.66666666666667 55.0 L 66.33333333333333 54.0 L 65.66666666666667 53.0 L 65.0 52.0 L 64.0 51.333333333333336 L 63.0 51.0 L 62.0 51.0 L 61.333333333333336 51.333333333333336 L 61.0 52.0 L 61.0 53.0 L 61.333333333333336 54.0 L 62.0 55.0 L 63.0 56.0 L 64.0 57.0 L 65.0 58.0 L 66.0 59.0 L 67.0 60.0 L 67.66666666666667 61.0 L 68.33333333333333 62.0 L 69.0 63.0 L 70.0 64.0 L 71.0 65.0 L 71.5 65.5 Z" stroke="none" fill="rgb(176,176,176)" />
<path d="M 75.5 64.0 L 76.0 64.0 L 77.0 63.666666666666664 L 78.0 63.0 L 79.0 62.0 L 80.0 61.333333333333336 L 81.0 60.666666666666664 L 81.66666666666667 60.0 L 82.0 59.0 L 82.0 58.0 L 81.66666666666667 57.0 L 81.0 56.333333333333336 L 80.0 56.0 L 79.0 56.333333333333336 L 78.0 56.666666666666664 L 77.0 57.0 L 76.0 57.333333333333336 L 75.0 57.666666666666664 L 74.0 58.333333333333336 L 73.0 58.666666666666664 L 72.33333333333333 59.333333333333336 L 72.0 60.0 L 72.33333333333333 61.0 L 73.0 62.0 L 74.0 63.0 L 74.5 63.5 Z" stroke="none" fill="rgb(216,205,201)" />
<path d="M 81.5 68.5 L 82.0 68.0 L 83.0 67.0 L 84.0 66.33333333333333 L 85.0 65.66666666666667 L 86.0 65.0 L 87.0 64.33333333333333 L 87.66666666666667 63.666666666666664 L 88.0 63.0 L 88.0 62.0 L 87.66666666666667 61.0 L 87.0 60.0 L 86.0 59.333333333333336 L 85.0 59.0 L 84.0 59.0 L 83.0 59.0 L 82.0 59.333333333333336 L 81.0 60.0 L 80.0 60.666666666666664 L 79.0 61.333333333333336 L 78.0 62.0 L 77.0 63.0 L 76.33333333333333 64.0 L 76.0 65.0 L 76.0 66.0 L 76.33333333333333 67.0 L 77.0 68.0 L 78.0 68.66666666666667 L 79.0 69.0 L 80.0 69.0 L 80.5 69.0 Z" stroke="none" fill="rgb(242,237,236)" />
<path d="M 84.5 72.0 L 85.0 71.66666666666667 L 86.0 71.33333333333333 L 87.0 70.66666666666667 L 88.0 70.0 L 89.0 69.0 L 90.0 68.0 L 90.66666666666667 67.0 L 91.0 66.0 L 90.66666666666667 65.0 L 90.0 64.33333333333333 L 89.0 64.0 L 88.0 64.0 L 87.0 64.0 L 86.0 64.33333333333333 L 85.0 65.0 L 84.0 65.66666666666667 L 83.0 66.33333333333333 L 82.0 67.0 L 81.33333333333333 68.0 L 81.0 69.0 L 81.33333333333333 69.66666666666667 L 82.0 70.33333333333333 L 83.0 71.0 L 83.5 71.5 Z" stroke="none" fill="rgb(216,205,201)" />
<path d="M 91.5 77.0 L 91.66666666666667 76.66666666666667 L 92.33333333333333 76.0 L 93.0 75.0 L 94.0 74.0 L 95.0 73.0 L 95.66666666666667 72.0 L 96.0 71.0 L 96.0 70.0 L 96.0 69.0 L 95.66666666666667 68.0 L 95.0 67.0 L 94.0 66.33333333333333 L 93.0 66.0 L 92.0 66.0 L 91.0 66.33333333333333 L 90.0 67.0 L 89.0 68.0 L 88.0 69.0 L 87.33333333333333 70.0 L 87.0 71.0 L 87.0 72.0 L 87.33333333333333 73.0 L 88.0 74.0 L 89.0 75.0 L 90.0 76.0 L 90.5 76.5 Z" stroke="none" fill="rgb(242,237,236)" />
<path d="M 84.5 75.0 L 84.66666666666667 74.66666666666667 L 85.0 74.0 L 85.0 73.0 L 84.66666666666667 72.0 L 84.0 71.0 L 83.0 70.33333333333333 L 82.0 69.66666666666667 L 81.0 69.33333333333333 L 80.0 69.0 L 79.0 69.0 L 78.33333333333333 69.33333333333333 L 78.33333333333333 70.0 L 79.0 71.0 L 80.0 72.0 L 81.0 73.0 L 82.0 74.0 L 83.0 74.66666666666667 L 83.5 75.0 Z" stroke="none" fill="rgb(176,176,176)" />
<path d="M 87.5 78.0 L 88.0 78.0 L 89.0 78.0 L 90.0 77.66666666666667 L 90.66666666666667 77.0 L 90.66666666666667 76.0 L 90.0 75.0 L 89.0 74.0 L 88.0 73.0 L 87.33333333333333 72.0 L 86.66666666666667 71.33333333333333 L 86.0 71.0 L 85.33333333333333 71.33333333333333 L 85.0 72.0 L 85.0 73.0 L 85.0 74.0 L 85.0 75.0 L 85.33333333333333 76.0 L 86.0 77.0 L 86.5 77.5 Z" stroke="none" fill="rgb(71,76,79)" />
<path d="M 92.5 77.5 L 93.0 78.0 L 94.0 78.66666666666667 L 95.0 79.0 L 95.66666666666667 78.66666666666667 L 96.0 78.0 L 96.33333333333333 77.0 L 97.0 76.0 L 98.0 75.0 L 98.66666666666667 74.0 L 99.0 73.0 L 98.66666666666667 72.0 L 98.0 71.33333333333333 L 97.0 71.0 L 96.0 71.33333333333333 L 95.0 72.0 L 94.0 73.0 L 93.0 74.0 L 92.33333333333333 75.0 L 92.0 76.0 L 92.0 76.5 Z" stroke="none" fill="rgb(216,205,201)" />
<path d="M 101.5 82.0 L 101.66666666666667 81.66666666666667 L 102.0 81.0 L 102.33333333333333 80.0 L 103.0 79.0 L 103.66666666666667 78.0 L 104.0 77.0 L 104.0 76.0 L 104.0 75.0 L 103.66666666666667 74.0 L 103.0 73.33333333333333 L 102.0 73.0 L 101.0 73.0 L 100.0 73.0 L 99.0 73.33333333333333 L 98.0 74.0 L 97.0 75.0 L 96.33333333333333 76.0 L 96.0 77.0 L 96.0 78.0 L 96.0 79.0 L 96.33333333333333 79.66666666666667 L 97.0 80.0 L 98.0 80.0 L 99.0 80.33333333333333 L 100.0 81.0 L 100.5 81.5 Z" stroke="none" fill="rgb(242,237,236)" />
<path d="M 91.5 80.5 L 92.0 80.66666666666667 L 93.0 81.0 L 94.0 81.0 L 94.66666666666667 80.66666666666667 L 95.0 80.0 L 94.66666666666667 79.0 L 94.0 78.0 L 93.0 77.33333333333333 L 92.0 77.0 L 91.0 77.0 L 90.0 77.33333333333333 L 89.33333333333333 78.0 L 89.33333333333333 79.0 L 90.0 79.66666666666667 L 90.5 80.0 Z" stroke="none" fill="rgb(176,176,176)" />
<path d="M 103.5 82.0 L 104.0 82.0 L 105.0 82.0 L 106.0 82.0 L 107.0 82.0 L 108.0 82.0 L 109.0 82.0 L 110.0 81.66666666666667 L 110.66666666666667 81.0 L 110.66666666666667 80.0 L 110.0 79.33333333333333 L 109.0 78.66666666666667 L 108.0 78.0 L 107.0 77.33333333333333 L 106.0 77.0 L 105.0 77.0 L 104.0 77.33333333333333 L 103.0 78.0 L 102.33333333333333 79.0 L 102.0 80.0 L 102.33333333333333 81.0 L 102.5 81.5 Z" stroke="none" fill="rgb(216,205,201)" />
<path d="M 95.5 107.0 L 96.0 107.0 L 97.0 107.0 L 98.0 107.0 L 99.0 107.0 L 100.0 107.0 L 101.0 107.0 L 102.0 107.0 L 103.0 107.0 L 104.0 107.0 L 105.0 107.0 L 106.0 107.0 L 107.0 107.0 L 108.0 106.66666666666667 L 109.0 106.33333333333333 L 110.0 106.0 L 111.0 106.0 L 112.0 106.0 L 113.0 106.0 L 114.0 106.33333333333333 L 115.0 106.66666666666667 L 116.0 106.66666666666667 L 117.0 106.0 L 118.0 105.33333333333333 L 119.0 105.0 L 120.0 105.0 L 121.0 104.66666666666667 L 122.0 104.0 L 123.0 103.33333333333333 L 123.66666666666667 102.66666666666667 L 124.0 102.0 L 124.0 101.0 L 123.66666666666667 100.33333333333333 L 123.0 100.0 L 122.0 100.0 L 121.0 100.33333333333333 L 120.0 100.66666666666667 L 119.0 101.0 L 118.0 101.0 L 117.0 101.0 L 116.0 101.0 L 115.0 101.33333333333333 L 114.0 101.66666666666667 L 113.0 102.0 L 112.0 102.0 L 111.0 102.0 L 110.0 102.0 L 109.0 102.0 L 108.0 102.0 L 107.0 102.0 L 106.0 102.0 L 105.0 102.0 L 104.0 102.0 L 103.0 102.0 L 102.0 102.0 L 101.0 102.0 L 100.0 102.0 L 99.0 102.0 L 98.0 102.0 L 97.0 102.0 L 96.0 102.0 L 95.0 102.0 L 94.0 102.0 L 93.0 102.0 L 92.0 102.0 L 91.0 102.0 L 90.0 102.0 L 89.0 102.0 L 88.0 102.0 L 87.0 102.0 L 86.0 102.0 L 85.0 102.0 L 84.0 102.0 L 83.0 102.0 L 82.0 102.0 L 81.0 102.0 L 80.0 102.0 L 79.0 102.0 L 78.0 101.66666666666667 L 77.0 101.33333333333333 L 76.0 101.0 L 75.0 101.0 L 74.0 100.66666666666667 L 73.0 100.33333333333333 L 72.0 99.66666666666667 L 71.0 99.33333333333333 L 70.0 98.66666666666667 L 69.0 98.33333333333333 L 68.0 97.66666666666667 L 67.0 97.33333333333333 L 66.0 96.66666666666667 L 65.0 96.33333333333333 L 64.0 95.66666666666667 L 63.0 95.33333333333333 L 62.0 94.66666666666667 L 61.0 94.33333333333333 L 60.0 93.66666666666667 L 59.0 93.33333333333333 L 58.0 92.66666666666667 L 57.0 92.33333333333333 L 56.0 91.66666666666667 L 55.0 91.33333333333333 L 54.0 90.66666666666667 L 53.0 90.33333333333333 L 52.0 89.66666666666667 L 51.0 89.33333333333333 L 50.0 88.66666666666667 L 49.0 88.33333333333333 L 48.0 88.0 L 47.0 87.66666666666667 L 46.0 87.33333333333333 L 45.0 86.66666666666667 L 44.0 86.33333333333333 L 43.0 86.0 L 42.0 85.66666666666667 L 41.0 85.33333333333333 L 40.0 85.0 L 39.0 85.0 L 38.0 84.66666666666667 L 37.0 84.33333333333333 L 36.0 84.0 L 35.0 84.0 L 34.0 83.66666666666667 L 33.0 83.33333333333333 L 32.0 83.0 L 31.0 83.0 L 30.0 83.0 L 29.0 82.66666666666667 L 28.0 82.33333333333333 L 27.0 82.0 L 26.0 82.0 L 25.0 81.66666666666667 L 24.0 81.33333333333333 L 23.0 81.0 L 22.0 81.0 L 21.0 80.66666666666667 L 20.0 80.33333333333333 L 19.0 80.0 L 18.0 79.66666666666667 L 17.0 79.33333333333333 L 16.0 79.0 L 15.0 79.0 L 14.333333333333334 79.33333333333333 L 14.0 80.0 L 14.0 81.0 L 14.0 82.0 L 14.0 83.0 L 14.0 84.0 L 14.0 85.0 L 14.0 86.0 L 14.0 87.0 L 14.0 88.0 L 14.0 89.0 L 14.0 90.0 L 14.0 91.0 L 14.333333333333334 92.0 L 14.666666666666666 93.0 L 15.0 94.0 L 15.0 95.0 L 15.0 96.0 L 15.0 97.0 L 15.333333333333334 98.0 L 15.666666666666666 99.0 L 16.333333333333332 100.0 L 17.0 100.66666666666667 L 18.0 101.0 L 19.0 101.33333333333333 L 20.0 101.66666666666667 L 21.0 102.0 L 22.0 102.0 L 23.0 102.0 L 24.0 102.0 L 25.0 102.0 L 26.0 102.0 L 27.0 102.0 L 28.0 102.0 L 29.0 102.0 L 30.0 102.0 L 31.0 102.0 L 32.0 102.0 L 33.0 102.0 L 34.0 102.0 L 35.0 101.66666666666667 L 36.0 101.33333333333333 L 36.666666666666664 100.66666666666667 L 37.0 100.0 L 37.0 99.0 L 37.0 98.0 L 37.333333333333336 97.0 L 38.0 96.33333333333333 L 39.0 96.0 L 40.0 96.0 L 41.0 96.0 L 42.0 96.33333333333333 L 43.0 96.66666666666667 L 44.0 97.0 L 45.0 97.0 L 46.0 97.0 L 47.0 97.0 L 48.0 97.33333333333333 L 49.0 97.66666666666667 L 50.0 98.0 L 51.0 98.33333333333333 L 52.0 98.66666666666667 L 53.0 99.0 L 54.0 99.33333333333333 L 55.0 99.66666666666667 L 56.0 100.33333333333333 L 57.0 100.66666666666667 L 58.0 101.0 L 59.0 101.33333333333333 L 60.0 101.66666666666667 L 61.0 102.33333333333333 L 62.0 102.66666666666667 L 63.0 103.33333333333333 L 64.0 103.66666666666667 L 65.0 104.0 L 66.0 104.33333333333333 L 67.0 104.66666666666667 L 68.0 105.0 L 69.0 105.33333333333333 L 70.0 105.66666666666667 L 71.0 106.0 L 72.0 106.33333333333333 L 73.0 106.66666666666667 L 74.0 107.0 L 75.0 107.0 L 76.0 107.0 L 77.0 107.0 L 78.0 107.0 L 79.0 107.0 L 80.0 107.0 L 81.0 107.0 L 82.0 107.0 L 83.0 107.0 L 84.0 107.0 L 85.0 107.0 L 86.0 107.0 L 87.0 107.0 L 88.0 107.0 L 89.0 107.0 L 90.0 107.0 L 91.0 107.0 L 92.0 107.0 L 93.0 107.0 L 94.0 107.0 L 94.5 107.0 Z" stroke="none" fill="rgb(71,76,79)" />
<path d="M 96.5 83.0 L 97.0 83.0 L 98.0 83.33333333333333 L 99.0 83.66666666666667 L 100.0 84.0 L 100.66666666666667 83.66666666666667 L 101.0 83.0 L 101.0 82.0 L 100.66666666666667 81.0 L 100.0 80.33333333333333 L 99.0 80.0 L 98.0 80.0 L 97.0 79.66666666666667 L 96.0 79.33333333333333 L 95.33333333333333 79.33333333333333 L 95.0 80.0 L 95.0 81.0 L 95.33333333333333 82.0 L 95.5 82.5 Z" stroke="none" fill="rgb(71,76,79)" />
<path d="M 110.5 85.0 L 111.0 84.66666666666667 L 112.0 84.0 L 112.66666666666667 83.0 L 112.66666666666667 82.0 L 112.0 81.33333333333333 L 111.0 81.0 L 110.0 81.33333333333333 L 109.0 81.66666666666667 L 108.0 82.0 L 107.0 82.0 L 106.0 82.0 L 105.0 82.0 L 104.0 81.66666666666667 L 103.0 81.33333333333333 L 102.0 81.33333333333333 L 101.33333333333333 82.0 L 101.0 83.0 L 101.33333333333333 84.0 L 102.0 84.66666666666667 L 103.0 85.0 L 104.0 85.0 L 105.0 85.0 L 106.0 85.0 L 107.0 85.0 L 108.0 85.0 L 109.0 85.0 L 109.5 85.0 Z" stroke="none" fill="rgb(176,176,176)" />
<path d="M 37.5 109.5 L 38.0 109.66666666666667 L 39.0 110.0 L 40.0 110.0 L 41.0 110.0 L 42.0 110.0 L 43.0 110.0 L 44.0 110.0 L 45.0 110.0 L 46.0 110.0 L 47.0 110.0 L 48.0 110.0 L 49.0 110.0 L 50.0 110.0 L 51.0 110.0 L 52.0 110.0 L 53.0 110.0 L 54.0 110.33333333333333 L 55.0 110.66666666666667 L 56.0 111.0 L 57.0 111.0 L 58.0 111.0 L 59.0 111.0 L 60.0 111.0 L 61.0 111.0 L 62.0 111.0 L 63.0 111.0 L 64.0 111.0 L 65.0 111.0 L 66.0 111.0 L 67.0 111.0 L 68.0 111.0 L 69.0 111.0 L 70.0 111.0 L 71.0 111.0 L 72.0 111.0 L 73.0 111.33333333333333 L 74.0 111.66666666666667 L 75.0 112.0 L 76.0 112.0 L 77.0 112.0 L 78.0 112.0 L 79.0 112.0 L 80.0 112.0 L 81.0 111.66666666666667 L 82.0 111.33333333333333 L 83.0 110.66666666666667 L 84.0 110.0 L 84.66666666666667 109.0 L 85.0 108.0 L 84.66666666666667 107.33333333333333 L 84.0 107.0 L 83.0 107.0 L 82.0 107.0 L 81.0 107.0 L 80.0 107.0 L 79.0 107.0 L 78.0 107.0 L 77.0 107.0 L 76.0 107.0 L 75.0 107.0 L 74.0 106.66666666666667 L 73.0 106.33333333333333 L 72.0 106.0 L 71.0 105.66666666666667 L 70.0 105.33333333333333 L 69.0 105.0 L 68.0 104.66666666666667 L 67.0 104.33333333333333 L 66.0 104.0 L 65.0 103.66666666666667 L 64.0 103.33333333333333 L 63.0 102.66666666666667 L 62.0 102.33333333333333 L 61.0 101.66666666666667 L 60.0 101.33333333333333 L 59.0 101.0 L 58.0 100.66666666666667 L 57.0 100.33333333333333 L 56.0 99.66666666666667 L 55.0 99.33333333333333 L 54.0 99.0 L 53.0 98.66666666666667 L 52.0 98.33333333333333 L 51.0 98.0 L 50.0 97.66666666666667 L 49.0 97.33333333333333 L 48.0 97.0 L 47.0 97.0 L 46.0 97.0 L 45.0 97.0 L 44.0 96.66666666666667 L 43.0 96.33333333333333 L 42.0 96.0 L 41.0 96.0 L 40.0 96.0 L 39.0 96.0 L 38.0 96.0 L 37.333333333333336 96.33333333333333 L 37.0 97.0 L 37.0 98.0 L 37.0 99.0 L 36.666666666666664 100.0 L 36.0 100.66666666666667 L 35.0 101.33333333333333 L 34.0 101.66666666666667 L 33.0 102.0 L 32.0 102.0 L 31.0 102.0 L 30.333333333333332 102.33333333333333 L 30.0 103.0 L 30.333333333333332 104.0 L 30.666666666666668 105.0 L 31.0 106.0 L 31.333333333333332 107.0 L 32.0 108.0 L 33.0 108.66666666666667 L 34.0 109.0 L 35.0 109.0 L 36.0 109.0 L 36.5 109.0 Z" stroke="none" fill="rgb(0,0,0)" />
<path d="M 104.5 122.0 L 105.0 122.0 L 106.0 122.0 L 107.0 121.66666666666667 L 108.0 121.33333333333333 L 109.0 121.0 L 110.0 121.0 L 111.0 121.0 L 112.0 121.0 L 113.0 121.0 L 114.0 121.0 L 115.0 121.0 L 116.0 121.0 L 117.0 121.0 L 118.0 121.0 L 119.0 121.0 L 120.0 120.66666666666667 L 120.66666666666667 120.0 L 120.66666666666667 119.0 L 120.66666666666667 118.0 L 121.0 117.33333333333333 L 122.0 117.0 L 123.0 117.0 L 123.66666666666667 116.66666666666667 L 124.0 116.0 L 123.66666666666667 115.0 L 123.66666666666667 114.0 L 124.0 113.33333333333333 L 124.66666666666667 112.66666666666667 L 125.0 112.0 L 125.0 111.0 L 124.66666666666667 110.0 L 124.33333333333333 109.0 L 124.0 108.0 L 123.66666666666667 107.0 L 123.33333333333333 106.0 L 122.66666666666667 105.0 L 122.0 104.33333333333333 L 121.0 104.33333333333333 L 120.0 104.66666666666667 L 119.0 105.0 L 118.0 105.0 L 117.0 105.33333333333333 L 116.33333333333333 106.0 L 116.0 107.0 L 116.0 108.0 L 115.66666666666667 109.0 L 115.0 110.0 L 114.0 111.0 L 113.0 111.66666666666667 L 112.0 112.0 L 111.0 112.0 L 110.0 112.0 L 109.0 112.0 L 108.0 112.0 L 107.0 112.0 L 106.0 112.0 L 105.0 112.0 L 104.0 112.0 L 103.0 112.0 L 102.0 112.0 L 101.0 112.0 L 100.0 112.0 L 99.0 112.0 L 98.0 112.0 L 97.0 111.66666666666667 L 96.0 111.0 L 95.0 110.0 L 94.33333333333333 109.0 L 94.0 108.0 L 93.66666666666667 107.33333333333333 L 93.0 107.0 L 92.0 107.0 L 91.0 107.0 L 90.0 107.0 L 89.0 107.0 L 88.0 107.0 L 87.0 107.0 L 86.0 107.0 L 85.33333333333333 107.33333333333333 L 84.66666666666667 108.0 L 84.0 109.0 L 83.0 110.0 L 82.0 110.66666666666667 L 81.0 111.33333333333333 L 80.0 111.66666666666667 L 79.0 112.0 L 78.0 112.0 L 77.0 112.0 L 76.0 112.0 L 75.0 111.66666666666667 L 74.0 111.33333333333333 L 73.0 111.0 L 72.0 111.0 L 71.0 111.0 L 70.0 111.0 L 69.0 111.0 L 68.0 111.0 L 67.0 111.0 L 66.0 111.0 L 65.0 111.0 L 64.0 111.0 L 63.0 111.0 L 62.0 111.0 L 61.0 111.0 L 60.0 111.0 L 59.0 111.0 L 58.0 111.0 L 57.0 111.0 L 56.0 110.66666666666667 L 55.0 110.33333333333333 L 54.0 110.0 L 53.0 110.0 L 52.0 110.0 L 51.0 110.0 L 50.0 110.0 L 49.0 110.0 L 48.0 110.0 L 47.0 110.0 L 46.0 110.0 L 45.0 110.0 L 44.0 110.0 L 43.0 110.0 L 42.0 110.0 L 41.0 110.0 L 40.0 110.0 L 39.0 109.66666666666667 L 38.0 109.33333333333333 L 37.0 109.0 L 36.0 109.0 L 35.0 109.0 L 34.0 108.66666666666667 L 33.0 108.0 L 32.0 107.0 L 31.333333333333332 106.0 L 31.0 105.0 L 30.666666666666668 104.0 L 30.333333333333332 103.0 L 29.666666666666668 102.33333333333333 L 29.0 102.0 L 28.0 102.0 L 27.0 102.0 L 26.0 102.0 L 25.0 102.0 L 24.0 102.0 L 23.0 102.0 L 22.0 102.0 L 21.0 102.0 L 20.333333333333332 102.33333333333333 L 19.666666666666668 103.0 L 19.333333333333332 104.0 L 18.666666666666668 105.0 L 18.0 106.0 L 17.0 107.0 L 16.0 107.66666666666667 L 15.0 108.0 L 14.0 108.0 L 13.0 108.0 L 12.0 108.0 L 11.0 108.0 L 10.0 108.33333333333333 L 9.0 108.66666666666667 L 8.0 109.0 L 7.0 109.0 L 6.0 109.0 L 5.0 109.33333333333333 L 4.0 109.66666666666667 L 3.0 110.33333333333333 L 2.3333333333333335 111.0 L 1.6666666666666667 112.0 L 1.3333333333333333 113.0 L 1.0 114.0 L 1.0 115.0 L 1.0 116.0 L 1.3333333333333333 116.66666666666667 L 2.0 117.0 L 3.0 117.0 L 4.0 117.0 L 5.0 117.33333333333333 L 6.0 117.66666666666667 L 7.0 118.0 L 8.0 118.0 L 9.0 118.0 L 10.0 118.0 L 11.0 118.0 L 12.0 118.0 L 13.0 118.0 L 14.0 118.0 L 15.0 118.0 L 16.0 118.33333333333333 L 17.0 118.66666666666667 L 18.0 119.0 L 19.0 119.0 L 20.0 119.0 L 21.0 119.0 L 22.0 119.0 L 23.0 119.0 L 24.0 119.0 L 25.0 119.0 L 26.0 119.0 L 27.0 119.0 L 28.0 119.0 L 29.0 119.0 L 30.0 119.0 L 31.0 119.0 L 32.0 119.0 L 33.0 119.33333333333333 L 34.0 119.66666666666667 L 35.0 120.0 L 36.0 120.0 L 37.0 120.0 L 38.0 120.0 L 39.0 120.0 L 40.0 120.0 L 41.0 120.0 L 42.0 120.0 L 43.0 120.0 L 44.0 120.0 L 45.0 120.0 L 46.0 120.0 L 47.0 120.0 L 48.0 120.0 L 49.0 120.0 L 50.0 120.0 L 51.0 120.33333333333333 L 52.0 120.66666666666667 L 53.0 121.0 L 54.0 121.0 L 55.0 121.0 L 56.0 121.0 L 57.0 121.0 L 58.0 121.0 L 59.0 121.0 L 60.0 121.0 L 61.0 121.0 L 62.0 121.0 L 63.0 121.0 L 64.0 121.0 L 65.0 121.0 L 66.0 121.0 L 67.0 121.0 L 68.0 121.0 L 69.0 121.0 L 70.0 121.0 L 71.0 121.0 L 72.0 121.0 L 73.0 121.0 L 74.0 121.0 L 75.0 121.0 L 76.0 121.0 L 77.0 121.33333333333333 L 78.0 121.66666666666667 L 79.0 122.0 L 80.0 122.0 L 81.0 122.0 L 82.0 122.0 L 83.0 122.0 L 84.0 122.0 L 85.0 122.0 L 86.0 122.0 L 87.0 122.0 L 88.0 122.0 L 89.0 122.0 L 90.0 122.0 L 91.0 122.0 L 92.0 122.0 L 93.0 122.0 L 94.0 122.0 L 95.0 122.0 L 96.0 122.0 L 97.0 122.0 L 98.0 122.0 L 99.0 122.0 L 100.0 122.0 L 101.0 122.0 L 102.0 122.0 L 103.0 122.0 L 103.5 122.0 Z" stroke="none" fill="rgb(176,176,176)" />
<path d="M 95.5 111.5 L 96.0 111.66666666666667 L 97.0 112.0 L 98.0 112.0 L 99.0 112.0 L 100.0 112.0 L 101.0 112.0 L 102.0 112.0 L 103.0 112.0 L 104.0 112.0 L 105.0 112.0 L 106.0 112.0 L 107.0 112.0 L 108.0 112.0 L 109.0 112.0 L 110.0 112.0 L 111.0 112.0 L 112.0 112.0 L 113.0 112.0 L 114.0 111.66666666666667 L 115.0 111.0 L 115.66666666666667 110.0 L 116.0 109.0 L 116.0 108.0 L 115.66666666666667 107.0 L 115.0 106.33333333333333 L 114.0 106.0 L 113.0 106.0 L 112.0 106.0 L 111.0 106.0 L 110.0 106.0 L 109.0 106.0 L 108.0 106.33333333333333 L 107.0 106.66666666666667 L 106.0 107.0 L 105.0 107.0 L 104.0 107.0 L 103.0 107.0 L 102.0 107.0 L 101.0 107.0 L 100.0 107.0 L 99.0 107.0 L 98.0 107.0 L 97.0 107.0 L 96.0 107.0 L 95.0 107.0 L 94.33333333333333 107.33333333333333 L 94.0 108.0 L 94.0 109.0 L 94.33333333333333 110.0 L 94.5 110.5 Z" stroke="none" fill="rgb(0,0,0)" />
<path d="M 95.5 118.0 L 96.0 118.0 L 97.0 118.0 L 98.0 118.0 L 99.0 118.0 L 100.0 118.0 L 101.0 118.0 L 102.0 118.0 L 103.0 118.0 L 104.0 118.0 L 105.0 118.0 L 106.0 118.0 L 107.0 118.0 L 108.0 118.0 L 109.0 118.0 L 110.0 118.0 L 111.0 118.0 L 112.0 118.0 L 113.0 118.0 L 113.66666666666667 117.66666666666667 L 114.0 117.0 L 113.66666666666667 116.0 L 113.0 115.33333333333333 L 112.0 115.0 L 111.0 115.0 L 110.0 115.0 L 109.0 115.0 L 108.0 115.0 L 107.0 115.0 L 106.0 115.0 L 105.0 115.0 L 104.0 115.0 L 103.0 115.0 L 102.0 115.0 L 101.0 115.0 L 100.0 115.0 L 99.0 115.0 L 98.0 115.0 L 97.0 115.0 L 96.0 115.0 L 95.0 115.0 L 94.0 115.0 L 93.0 115.0 L 92.0 115.0 L 91.0 115.0 L 90.0 115.0 L 89.0 115.0 L 88.0 115.0 L 87.0 115.0 L 86.0 115.0 L 85.0 115.0 L 84.0 115.0 L 83.0 115.0 L 82.0 115.0 L 81.0 115.0 L 80.0 115.0 L 79.0 115.0 L 78.0 115.0 L 77.0 115.0 L 76.0 115.0 L 75.0 115.0 L 74.0 115.0 L 73.0 115.0 L 72.0 115.0 L 71.0 115.0 L 70.0 114.66666666666667 L 69.0 114.33333333333333 L 68.0 114.0 L 67.0 114.0 L 66.0 114.0 L 65.0 114.0 L 64.0 114.0 L 63.0 114.0 L 62.0 114.0 L 61.0 114.0 L 60.0 114.0 L 59.0 114.0 L 58.0 114.0 L 57.0 114.0 L 56.0 114.0 L 55.0 114.0 L 54.0 114.0 L 53.0 114.0 L 52.0 114.0 L 51.0 114.0 L 50.0 114.0 L 49.0 113.66666666666667 L 48.0 113.33333333333333 L 47.0 113.0 L 46.0 113.0 L 45.0 113.0 L 44.0 113.0 L 43.0 113.0 L 42.0 113.0 L 41.0 113.0 L 40.0 113.0 L 39.0 113.0 L 38.0 113.0 L 37.0 113.0 L 36.0 113.0 L 35.0 113.0 L 34.0 113.0 L 33.0 113.0 L 32.0 113.0 L 31.0 113.0 L 30.0 112.66666666666667 L 29.0 112.33333333333333 L 28.0 112.0 L 27.0 112.0 L 26.0 112.0 L 25.0 112.0 L 24.0 112.0 L 23.0 112.0 L 22.0 112.0 L 21.0 112.0 L 20.0 112.0 L 19.0 112.0 L 18.0 112.0 L 17.0 112.0 L 16.0 112.0 L 15.0 112.0 L 14.0 112.0 L 13.0 112.0 L 12.0 112.0 L 11.0 112.0 L 10.0 112.0 L 9.333333333333334 112.33333333333333 L 9.0 113.0 L 9.333333333333334 114.0 L 10.0 114.66666666666667 L 11.0 115.0 L 12.0 115.0 L 13.0 115.0 L 14.0 115.0 L 15.0 115.0 L 16.0 115.0 L 17.0 115.0 L 18.0 115.0 L 19.0 115.0 L 20.0 115.0 L 21.0 115.0 L 22.0 115.0 L 23.0 115.0 L 24.0 115.0 L 25.0 115.0 L 26.0 115.0 L 27.0 115.0 L 28.0 115.33333333333333 L 29.0 115.66666666666667 L 30.0 116.0 L 31.0 116.0 L 32.0 116.0 L 33.0 116.0 L 34.0 116.0 L 35.0 116.0 L 36.0 116.0 L 37.0 116.0 L 38.0 116.0 L 39.0 116.0 L 40.0 116.0 L 41.0 116.0 L 42.0 116.0 L 43.0 116.0 L 44.0 116.0 L 45.0 116.0 L 46.0 116.0 L 47.0 116.0 L 48.0 116.0 L 49.0 116.0 L 50.0 116.33333333333333 L 51.0 116.66666666666667 L 52.0 117.0 L 53.0 117.0 L 54.0 117.0 L 55.0 117.0 L 56.0 117.0 L 57.0 117.0 L 58.0 117.0 L 59.0 117.0 L 60.0 117.0 L 61.0 117.0 L 62.0 117.0 L 63.0 117.0 L 64.0 117.0 L 65.0 117.0 L 66.0 117.0 L 67.0 117.0 L 68.0 117.0 L 69.0 117.0 L 70.0 117.33333333333333 L 71.0 117.66666666666667 L 72.0 118.0 L 73.0 118.0 L 74.0 118.0 L 75.0 118.0 L 76.0 118.0 L 77.0 118.0 L 78.0 118.0 L 79.0 118.0 L 80.0 118.0 L 81.0 118.0 L 82.0 118.0 L 83.0 118.0 L 84.0 118.0 L 85.0 118.0 L 86.0 118.0 L 87.0 118.0 L 88.0 118.0 L 89.0 118.0 L 90.0 118.0 L 91.0 118.0 L 92.0 118.0 L 93.0 118.0 L 94.0 118.0 L 94.5 118.0 Z" stroke="none" fill="rgb(200,200,200)" />
</svg>
