<?xml version="1.0" encoding="UTF-8" standalone="no"?>
<!DOCTYPE svg PUBLIC "-//W3C//DTD SVG 1.1//EN"
"http://www.w3.org/Graphics/SVG/1.1/DTD/svg11.dtd">
<svg width="128" height="128" xmlns="http://www.w3.org/2000/svg" version="1.1">
<path d="M 26.5 128.0 L 27.0 128.0 L 28.0 128.0 L 29.0 128.0 L 30.0 128.0 L 31.0 128.0 L 32.0 128.0 L 33.0 128.0 L 34.0 128.0 L 35.0 128.0 L 36.0 128.0 L 37.0 128.0 L 38.0 128.0 L 39.0 128.0 L 40.0 128.0 L 41.0 128.0 L 42.0 128.0 L 43.0 128.0 L 44.0 128.0 L 45.0 128.0 L 46.0 128.0 L 47.0 128.0 L 48.0 128.0 L 49.0 128.0 L 50.0 128.0 L 51.0 128.0 L 52.0 128.0 L 53.0 128.0 L 54.0 128.0 L 55.0 128.0 L 56.0 128.0 L 57.0 128.0 L 58.0 128.0 L 59.0 128.0 L 60.0 128.0 L 61.0 128.0 L 62.0 128.0 L 63.0 128.0 L 64.0 128.0 L 65.0 128.0 L 66.0 128.0 L 67.0 128.0 L 68.0 128.0 L 69.0 128.0 L 70.0 128.0 L 71.0 128.0 L 72.0 128.0 L 73.0 128.0 L 74.0 128.0 L 75.0 128.0 L 76.0 128.0 L 77.0 128.0 L 78.0 128.0 L 79.0 128.0 L 80.0 128.0 L 81.0 128.0 L 82.0 128.0 L 83.0 128.0 L 84.0 128.0 L 85.0 128.0 L 86.0 128.0 L 87.0 128.0 L 88.0 128.0 L 89.0 128.0 L 90.0 128.0 L 91.0 128.0 L 92.0 128.0 L 93.0 128.0 L 94.0 128.0 L 95.0 128.0 L 96.0 128.0 L 97.0 128.0 L 98.0 128.0 L 99.0 128.0 L 100.0 128.0 L 101.0 128.0 L 102.0 128.0 L 103.0 128.0 L 104.0 128.0 L 105.0 128.0 L 106.0 128.0 L 107.0 128.0 L 108.0 128.0 L 109.0 128.0 L 110.0 128.0 L 111.0 128.0 L 112.0 128.0 L 113.0 128.0 L 114.0 128.0 L 115.0 128.0 L 116.0 128.0 L 117.0 128.0 L 118.0 128.0 L 119.0 128.0 L 120.0 128.0 L 121.0 128.0 L 122.0 128.0 L 123.0 128.0 L 124.0 128.0 L 125.0 128.0 L 126.0 128.0 L 127.0 128.0 L 127.66666666666667 127.66666666666667 L 128.0 127.0 L 128.0 126.0 L 128.0 125.0 L 128.0 124.0 L 128.0 123.0 L 128.0 122.0 L 128.0 121.0 L 128.0 120.0 L 128.0 119.0 L 128.0 118.0 L 128.0 117.0 L 128.0 116.0 L 128.0 115.0 L 128.0 114.0 L 128.0 113.0 L 128.0 112.0 L 128.0 111.0 L 128.0 110.0 L 128.0 109.0 L 128.0 108.0 L 128.0 107.0 L 128.0 106.0 L 128.0 105.0 L 128.0 104.0 L 128.0 103.0 L 128.0 102.0 L 128.0 101.0 L 128.0 100.0 L 128.0 99.0 L 128.0 98.0 L 128.0 97.0 L 128.0 96.0 L 128.0 95.0 L 128.0 94.0 L 128.0 93.0 L 128.0 92.0 L 128.0 91.0 L 128.0 90.0 L 128.0 89.0 L 128.0 88.0 L 128.0 87.0 L 128.0 86.0 L 128.0 85.0 L 128.0 84.0 L 128.0 83.0 L 128.0 82.0 L 128.0 81.0 L 128.0 80.0 L 128.0 79.0 L 128.0 78.0 L 128.0 77.0 L 128.0 76.0 L 128.0 75.0 L 128.0 74.0 L 128.0 73.0 L 128.0 72.0 L 128.0 71.0 L 128.0 70.0 L 128.0 69.0 L 128.0 68.0 L 128.0 67.0 L 128.0 66.0 L 128.0 65.0 L 128.0 64.0 L 128.0 63.0 L 128.0 62.0 L 128.0 61.0 L 128.0 60.0 L 128.0 59.0 L 128.0 58.0 L 128.0 57.0 L 128.0 56.0 L 128.0 55.0 L 128.0 54.0 L 128.0 53.0 L 128.0 52.0 L 128.0 51.0 L 128.0 50.0 L 128.0 49.0 L 128.0 48.0 L 128.0 47.0 L 128.0 46.0 L 128.0 45.0 L 128.0 44.0 L 128.0 43.0 L 128.0 42.0 L 128.0 41.0 L 128.0 40.0 L 128.0 39.0 L 128.0 38.0 L 128.0 37.0 L 128.0 36.0 L 128.0 35.0 L 128.0 34.0 L 128.0 33.0 L 128.0 32.0 L 128.0 31.0 L 128.0 30.0 L 128.0 29.0 L 128.0 28.0 L 128.0 27.0 L 128.0 26.0 L 128.0 25.0 L 128.0 24.0 L 128.0 23.0 L 128.0 22.0 L 128.0 21.0 L 128.0 20.0 L 128.0 19.0 L 128.0 18.0 L 128.0 17.0 L 128.0 16.0 L 128.0 15.0 L 128.0 14.0 L 128.0 13.0 L 128.0 12.0 L 128.0 11.0 L 128.0 10.0 L 128.0 9.0 L 128.0 8.0 L 128.0 7.0 L 128.0 6.0 L 128.0 5.0 L 128.0 4.0 L 128.0 3.0 L 128.0 2.0 L 128.0 1.0 L 127.66666666666667 0.3333333333333333 L 127.0 0.0 L 126.0 0.0 L 125.0 0.0 L 124.0 0.0 L 123.0 0.0 L 122.0 0.0 L 121.0 0.0 L 120.0 0.0 L 119.0 0.0 L 118.0 0.0 L 117.0 0.0 L 116.0 0.0 L 115.0 0.0 L 114.0 0.0 L 113.0 0.0 L 112.0 0.0 L 111.0 0.0 L 110.0 0.0 L 109.0 0.0 L 108.0 0.0 L 107.0 0.0 L 106.0 0.0 L 105.0 0.0 L 104.0 0.0 L 103.0 0.0 L 102.0 0.0 L 101.0 0.0 L 100.0 0.0 L 99.0 0.0 L 98.0 0.0 L 97.0 0.0 L 96.0 0.0 L 95.0 0.0 L 94.0 0.0 L 93.0 0.0 L 92.0 0.0 L 91.0 0.0 L 90.0 0.0 L 89.0 0.0 L 88.0 0.0 L 87.0 0.0 L 86.0 0.0 L 85.0 0.0 L 84.0 0.0 L 83.0 0.0 L 82.0 0.0 L 81.0 0.0 L 80.0 0.0 L 79.0 0.0 L 78.0 0.0 L 77.0 0.0 L 76.0 0.0 L 75.0 0.0 L 74.0 0.0 L 73.0 0.0 L 72.0 0.0 L 71.0 0.0 L 70.0 0.0 L 69.0 0.0 L 68.0 0.0 L 67.0 0.0 L 66.0 0.0 L 65.0 0.0 L 64.0 0.0 L 63.0 0.0 L 62.0 0.0 L 61.0 0.0 L 60.0 0.0 L 59.0 0.0 L 58.0 0.0 L 57.0 0.0 L 56.0 0.0 L 55.0 0.0 L 54.0 0.0 L 53.0 0.0 L 52.0 0.0 L 51.0 0.0 L 50.0 0.0 L 49.0 0.0 L 48.0 0.0 L 47.0 0.0 L 46.0 0.0 L 45.0 0.0 L 44.0 0.0 L 43.0 0.0 L 42.0 0.0 L 41.0 0.0 L 40.0 0.0 L 39.0 0.0 L 38.0 0.0 L 37.0 0.0 L 36.0 0.0 L 35.0 0.0 L 34.0 0.0 L 33.0 0.0 L 32.0 0.0 L 31.0 0.0 L 30.0 0.0 L 29.0 0.0 L 28.0 0.0 L 27.0 0.0 L 26.0 0.0 L 25.0 0.0 L 24.0 0.0 L 23.0 0.0 L 22.0 0.0 L 21.0 0.0 L 20.0 0.0 L 19.0 0.0 L 18.0 0.0 L 17.0 0.0 L 16.0 0.0 L 15.0 0.0 L 14.0 0.0 L 13.0 0.0 L 12.0 0.0 L 11.0 0.0 L 10.0 0.0 L 9.0 0.0 L 8.0 0.0 L 7.0 0.0 L 6.0 0.0 L 5.0 0.0 L 4.0 0.0 L 3.0 0.0 L 2.0 0.0 L 1.0 0.0 L 0.3333333333333333 0.3333333333333333 L 0.0 1.0 L 0.0 2.0 L 0.0 3.0 L 0.0 4.0 L 0.0 5.0 L 0.0 6.0 L 0.0 7.0 L 0.0 8.0 L 0.0 9.0 L 0.0 10.0 L 0.0 11.0 L 0.0 12.0 L 0.0 13.0 L 0.0 14.0 L 0.0 15.0 L 0.0 16.0 L 0.0 17.0 L 0.0 18.0 L 0.0 19.0 L 0.0 20.0 L 0.0 21.0 L 0.0 22.0 L 0.0 23.0 L 0.0 24.0 L 0.0 25.0 L 0.0 26.0 L 0.0 27.0 L 0.0 28.0 L 0.0 29.0 L 0.0 30.0 L 0.0 31.0 L 0.0 32.0 L 0.0 33.0 L 0.0 34.0 L 0.0 35.0 L 0.0 36.0 L 0.0 37.0 L 0.0 38.0 L 0.0 39.0 L 0.0 40.0 L 0.0 41.0 L 0.0 42.0 L 0.0 43.0 L 0.0 44.0 L 0.0 45.0 L 0.0 46.0 L 0.0 47.0 L 0.0 48.0 L 0.0 49.0 L 0.0 50.0 L 0.0 51.0 L 0.0 52.0 L 0.0 53.0 L 0.0 54.0 L 0.0 55.0 L 0.0 56.0 L 0.0 57.0 L 0.0 58.0 L 0.0 59.0 L 0.0 60.0 L 0.0 61.0 L 0.0 62.0 L 0.0 63.0 L 0.0 64.0 L 0.0 65.0 L 0.0 66.0 L 0.0 67.0 L 0.0 68.0 L 0.0 69.0 L 0.0 70.0 L 0.0 71.0 L 0.0 72.0 L 0.0 73.0 L 0.0 74.0 L 0.0 75.0 L 0.0 76.0 L 0.0 77.0 L 0.0 78.0 L 0.0 79.0 L 0.0 80.0 L 0.0 81.0 L 0.0 82.0 L 0.0 83.0 L 0.0 84.0 L 0.0 85.0 L 0.0 86.0 L 0.0 87.0 L 0.0 88.0 L 0.0 89.0 L 0.0 90.0 L 0.0 91.0 L 0.0 92.0 L 0.0 93.0 L 0.0 94.0 L 0.0 95.0 L 0.0 96.0 L 0.0 97.0 L 0.0 98.0 L 0.0 99.0 L 0.0 100.0 L 0.0 101.0 L 0.0 102.0 L 0.0 103.0 L 0.0 104.0 L 0.0 105.0 L 0.0 106.0 L 0.0 107.0 L 0.0 108.0 L 0.0 109.0 L 0.0 110.0 L 0.0 111.0 L 0.0 112.0 L 0.0 113.0 L 0.0 114.0 L 0.0 115.0 L 0.0 116.0 L 0.0 117.0 L 0.0 118.0 L 0.0 119.0 L 0.0 120.0 L 0.0 121.0 L 0.0 122.0 L 0.0 123.0 L 0.0 124.0 L 0.0 125.0 L 0.0 126.0 L 0.0 127.0 L 0.3333333333333333 127.66666666666667 L 1.0 128.0 L 2.0 128.0 L 3.0 128.0 L 4.0 128.0 L 5.0 128.0 L 6.0 128.0 L 7.0 128.0 L 8.0 128.0 L 9.0 128.0 L 10.0 128.0 L 11.0 128.0 L 12.0 128.0 L 13.0 128.0 L 14.0 128.0 L 15.0 128.0 L 16.0 128.0 L 17.0 128.0 L 18.0 128.0 L 19.0 128.0 L 20.0 128.0 L 21.0 128.0 L 22.0 128.0 L 23.0 128.0 L 24.0 128.0 L 25.0 128.0 L 25.5 128.0 Z" stroke="none" fill="rgb(255,255,255)" />
<path d="M 29.5 109.5 L 30.0 110.0 L 30.666666666666668 111.0 L 31.333333333333332 112.0 L 32.0 113.0 L 33.0 114.0 L 34.0 114.66666666666667 L 35.0 115.33333333333333 L 36.0 116.0 L 37.0 117.0 L 38.0 117.66666666666667 L 39.0 118.33333333333333 L 40.0 118.66666666666667 L 41.0 119.33333333333333 L 42.0 119.66666666666667 L 43.0 120.33333333333333 L 44.0 120.66666666666667 L 45.0 121.33333333333333 L 46.0 121.66666666666667 L 47.0 122.0 L 48.0 122.33333333333333 L 49.0 122.66666666666667 L 50.0 123.0 L 51.0 123.0 L 52.0 123.33333333333333 L 53.0 123.66666666666667 L 54.0 124.0 L 55.0 124.0 L 56.0 124.0 L 57.0 124.0 L 58.0 124.0 L 59.0 124.0 L 60.0 124.0 L 61.0 124.0 L 62.0 124.0 L 63.0 124.0 L 64.0 124.0 L 65.0 124.0 L 66.0 124.0 L 67.0 124.0 L 68.0 124.0 L 69.0 124.0 L 70.0 124.0 L 71.0 124.0 L 72.0 124.0 L 73.0 124.0 L 74.0 124.0 L 75.0 123.66666666666667 L 76.0 123.33333333333333 L 77.0 123.0 L 78.0 123.0 L 79.0 122.66666666666667 L 80.0 122.33333333333333 L 81.0 122.0 L 82.0 121.66666666666667 L 83.0 121.33333333333333 L 84.0 120.66666666666667 L 85.0 120.33333333333333 L 86.0 119.66666666666667 L 87.0 119.33333333333333 L 88.0 118.66666666666667 L 89.0 118.33333333333333 L 90.0 117.66666666666667 L 91.0 117.0 L 92.0 116.0 L 93.0 115.33333333333333 L 94.0 114.66666666666667 L 95.0 114.0 L 96.0 113.0 L 96.66666666666667 112.0 L 97.33333333333333 111.0 L 98.0 110.0 L 99.0 109.0 L 99.66666666666667 108.0 L 100.33333333333333 107.0 L 101.0 106.0 L 101.66666666666667 105.0 L 102.33333333333333 104.0 L 102.66666666666667 103.0 L 103.33333333333333 102.0 L 103.66666666666667 101.0 L 104.0 100.0 L 104.33333333333333 99.0 L 104.66666666666667 98.0 L 105.0 97.0 L 105.33333333333333 96.0 L 105.66666666666667 95.0 L 106.0 94.0 L 106.0 93.0 L 106.33333333333333 92.0 L 106.66666666666667 91.0 L 107.0 90.0 L 107.0 89.0 L 107.0 88.0 L 107.33333333333333 87.0 L 107.66666666666667 86.0 L 108.0 85.0 L 108.0 84.0 L 108.0 83.0 L 108.0 82.0 L 108.0 81.0 L 108.0 80.0 L 108.0 79.0 L 108.0 78.0 L 108.0 77.0 L 108.0 76.0 L 108.0 75.0 L 107.66666666666667 74.0 L 107.0 73.0 L 106.0 72.0 L 105.33333333333333 71.0 L 105.0 70.0 L 105.0 69.0 L 105.0 68.0 L 105.0 67.0 L 104.66666666666667 66.0 L 104.33333333333333 65.0 L 104.0 64.0 L 103.66666666666667 63.0 L 103.0 62.0 L 102.33333333333333 61.0 L 102.0 60.0 L 101.66666666666667 59.0 L 101.33333333333333 58.0 L 101.0 57.0 L 100.66666666666667 56.0 L 100.0 55.0 L 99.0 54.0 L 98.33333333333333 53.0 L 97.66666666666667 52.333333333333336 L 97.0 51.666666666666664 L 96.0 51.0 L 95.0 50.0 L 94.0 49.0 L 93.0 48.0 L 92.0 47.0 L 91.0 46.0 L 90.0 45.333333333333336 L 89.0 44.666666666666664 L 88.0 44.333333333333336 L 87.0 43.666666666666664 L 86.0 43.333333333333336 L 85.0 43.0 L 84.0 43.0 L 83.0 42.666666666666664 L 82.0 42.333333333333336 L 81.0 42.0 L 80.0 42.0 L 79.0 42.0 L 78.0 41.666666666666664 L 77.0 41.333333333333336 L 76.0 41.0 L 75.0 41.0 L 74.0 40.666666666666664 L 73.0 40.333333333333336 L 72.0 40.0 L 71.0 39.666666666666664 L 70.0 39.333333333333336 L 69.0 38.666666666666664 L 68.0 38.0 L 67.0 37.0 L 66.0 36.333333333333336 L 65.0 36.0 L 64.0 36.0 L 63.0 36.0 L 62.0 36.333333333333336 L 61.0 37.0 L 60.0 38.0 L 59.0 39.0 L 58.0 39.666666666666664 L 57.0 40.333333333333336 L 56.0 40.666666666666664 L 55.0 41.0 L 54.0 41.333333333333336 L 53.0 41.666666666666664 L 52.0 42.0 L 51.0 42.0 L 50.0 42.0 L 49.0 42.333333333333336 L 48.0 42.666666666666664 L 47.0 43.0 L 46.0 43.0 L 45.0 43.0 L 44.0 43.0 L 43.0 43.333333333333336 L 42.0 43.666666666666664 L 41.0 44.333333333333336 L 40.0 44.666666666666664 L 39.0 45.333333333333336 L 38.0 45.666666666666664 L 37.0 46.333333333333336 L 36.0 46.666666666666664 L 35.0 47.333333333333336 L 34.0 48.0 L 33.0 49.0 L 32.0 50.0 L 31.0 51.0 L 30.333333333333332 52.0 L 29.666666666666668 53.0 L 29.333333333333332 54.0 L 28.666666666666668 55.0 L 28.0 56.0 L 27.333333333333332 57.0 L 27.0 58.0 L 26.666666666666668 59.0 L 26.333333333333332 60.0 L 25.666666666666668 61.0 L 25.0 62.0 L 24.333333333333332 63.0 L 24.0 64.0 L 24.0 65.0 L 24.0 66.0 L 23.666666666666668 67.0 L 23.333333333333332 68.0 L 23.0 69.0 L 23.0 70.0 L 23.0 71.0 L 22.666666666666668 72.0 L 22.0 72.66666666666667 L 21.0 73.33333333333333 L 20.333333333333332 74.0 L 20.0 75.0 L 20.0 76.0 L 20.0 77.0 L 20.0 78.0 L 20.0 79.0 L 20.0 80.0 L 20.0 81.0 L 20.0 82.0 L 20.0 83.0 L 20.0 84.0 L 20.333333333333332 85.0 L 20.666666666666668 86.0 L 21.0 87.0 L 21.0 88.0 L 21.0 89.0 L 21.333333333333332 90.0 L 21.666666666666668 91.0 L 22.0 92.0 L 22.0 93.0 L 22.0 94.0 L 22.333333333333332 95.0 L 22.666666666666668 96.0 L 23.0 97.0 L 23.333333333333332 98.0 L 23.666666666666668 99.0 L 24.0 100.0 L 24.333333333333332 101.0 L 24.666666666666668 102.0 L 25.333333333333332 103.0 L 25.666666666666668 104.0 L 26.333333333333332 105.0 L 27.0 106.0 L 27.666666666666668 107.0 L 28.333333333333332 108.0 L 28.5 108.5 Z" stroke="none" fill="rgb(249,221,189)" />
<path d="M 20.5 74.0 L 20.666666666666668 73.66666666666667 L 21.0 73.0 L 21.0 72.0 L 21.0 71.0 L 20.666666666666668 70.0 L 20.333333333333332 69.0 L 20.0 68.0 L 20.0 67.0 L 19.666666666666668 66.0 L 19.333333333333332 65.0 L 19.0 64.0 L 19.0 63.0 L 19.0 62.0 L 19.0 61.0 L 19.0 60.0 L 19.0 59.0 L 19.0 58.0 L 19.0 57.0 L 19.333333333333332 56.0 L 19.666666666666668 55.0 L 20.0 54.0 L 20.0 53.0 L 20.0 52.0 L 20.333333333333332 51.0 L 20.666666666666668 50.0 L 21.333333333333332 49.0 L 21.666666666666668 48.0 L 22.0 47.0 L 22.333333333333332 46.0 L 22.666666666666668 45.0 L 23.333333333333332 44.0 L 24.0 43.0 L 24.666666666666668 42.0 L 25.333333333333332 41.0 L 26.0 40.0 L 27.0 39.0 L 28.0 38.0 L 28.666666666666668 37.0 L 29.333333333333332 36.0 L 30.0 35.0 L 31.0 34.333333333333336 L 32.0 33.666666666666664 L 33.0 33.0 L 34.0 32.0 L 35.0 31.0 L 36.0 30.333333333333332 L 37.0 29.666666666666668 L 38.0 29.0 L 39.0 28.333333333333332 L 40.0 27.666666666666668 L 41.0 27.333333333333332 L 42.0 26.666666666666668 L 43.0 26.333333333333332 L 44.0 25.666666666666668 L 45.0 25.333333333333332 L 46.0 25.0 L 47.0 24.666666666666668 L 48.0 24.333333333333332 L 49.0 24.0 L 50.0 23.666666666666668 L 51.0 23.333333333333332 L 52.0 23.0 L 53.0 23.0 L 54.0 23.0 L 55.0 22.666666666666668 L 56.0 22.333333333333332 L 57.0 22.0 L 58.0 22.0 L 59.0 22.0 L 60.0 22.0 L 61.0 22.0 L 62.0 22.0 L 63.0 22.0 L 64.0 22.0 L 65.0 22.0 L 66.0 22.0 L 67.0 22.0 L 68.0 22.0 L 69.0 22.0 L 70.0 22.0 L 71.0 22.333333333333332 L 72.0 22.666666666666668 L 73.0 23.0 L 74.0 23.0 L 75.0 23.0 L 76.0 23.333333333333332 L 77.0 23.666666666666668 L 78.0 24.0 L 79.0 24.333333333333332 L 80.0 24.666666666666668 L 81.0 25.0 L 82.0 25.333333333333332 L 83.0 25.666666666666668 L 84.0 26.333333333333332 L 85.0 26.666666666666668 L 86.0 27.333333333333332 L 87.0 27.666666666666668 L 88.0 28.333333333333332 L 89.0 29.0 L 90.0 29.666666666666668 L 91.0 30.333333333333332 L 92.0 31.0 L 93.0 32.0 L 94.0 32.666666666666664 L 95.0 33.333333333333336 L 96.0 34.0 L 97.0 35.0 L 98.0 36.0 L 98.66666666666667 37.0 L 99.33333333333333 38.0 L 100.0 39.0 L 101.0 40.0 L 101.66666666666667 41.0 L 102.33333333333333 42.0 L 103.0 43.0 L 103.66666666666667 44.0 L 104.33333333333333 45.0 L 104.66666666666667 46.0 L 105.33333333333333 47.0 L 105.66666666666667 48.0 L 106.0 49.0 L 106.33333333333333 50.0 L 106.66666666666667 51.0 L 107.0 52.0 L 107.0 53.0 L 107.33333333333333 54.0 L 107.66666666666667 55.0 L 108.0 56.0 L 108.0 57.0 L 108.0 58.0 L 108.0 59.0 L 108.0 60.0 L 108.0 61.0 L 108.0 62.0 L 108.0 63.0 L 108.0 64.0 L 108.0 65.0 L 107.66666666666667 66.0 L 107.33333333333333 67.0 L 107.0 68.0 L 107.0 69.0 L 106.66666666666667 70.0 L 106.33333333333333 71.0 L 106.0 72.0 L 106.33333333333333 73.0 L 107.0 73.66666666666667 L 108.0 74.0 L 108.66666666666667 73.66666666666667 L 109.33333333333333 73.0 L 109.66666666666667 72.0 L 110.0 71.0 L 110.0 70.0 L 110.0 69.0 L 110.33333333333333 68.0 L 110.66666666666667 67.0 L 111.0 66.0 L 111.0 65.0 L 111.0 64.0 L 111.0 63.0 L 111.0 62.0 L 111.0 61.0 L 111.0 60.0 L 111.0 59.0 L 111.0 58.0 L 111.0 57.0 L 111.0 56.0 L 111.0 55.0 L 111.0 54.0 L 111.0 53.0 L 110.66666666666667 52.0 L 110.0 51.0 L 109.33333333333333 50.0 L 109.0 49.0 L 108.66666666666667 48.0 L 108.33333333333333 47.0 L 108.0 46.0 L 107.66666666666667 45.0 L 107.33333333333333 44.0 L 106.66666666666667 43.0 L 106.0 42.0 L 105.33333333333333 41.0 L 104.66666666666667 40.0 L 104.0 39.0 L 103.33333333333333 38.0 L 102.66666666666667 37.0 L 102.0 36.0 L 101.0 35.0 L 100.0 34.0 L 99.0 33.0 L 98.0 32.0 L 97.0 31.0 L 96.0 30.333333333333332 L 95.0 29.666666666666668 L 94.0 29.0 L 93.0 28.0 L 92.0 27.333333333333332 L 91.0 26.666666666666668 L 90.0 26.333333333333332 L 89.0 25.666666666666668 L 88.0 25.333333333333332 L 87.0 24.666666666666668 L 86.0 24.333333333333332 L 85.0 23.666666666666668 L 84.0 23.333333333333332 L 83.0 23.0 L 82.0 22.666666666666668 L 81.0 22.333333333333332 L 80.0 22.0 L 79.0 21.666666666666668 L 78.0 21.333333333333332 L 77.0 21.0 L 76.0 21.0 L 75.0 20.666666666666668 L 74.0 20.333333333333332 L 73.0 20.0 L 72.0 20.0 L 71.0 20.0 L 70.0 20.0 L 69.0 20.0 L 68.0 20.0 L 67.0 20.0 L 66.0 20.0 L 65.0 20.0 L 64.0 20.0 L 63.0 20.0 L 62.0 20.0 L 61.0 20.0 L 60.0 20.0 L 59.0 20.0 L 58.0 20.0 L 57.0 20.0 L 56.0 20.0 L 55.0 20.0 L 54.0 20.0 L 53.0 20.333333333333332 L 52.0 20.666666666666668 L 51.0 21.0 L 50.0 21.0 L 49.0 21.333333333333332 L 48.0 21.666666666666668 L 47.0 22.0 L 46.0 22.333333333333332 L 45.0 22.666666666666668 L 44.0 23.0 L 43.0 23.333333333333332 L 42.0 23.666666666666668 L 41.0 24.333333333333332 L 40.0 24.666666666666668 L 39.0 25.333333333333332 L 38.0 25.666666666666668 L 37.0 26.333333333333332 L 36.0 26.666666666666668 L 35.0 27.333333333333332 L 34.0 28.0 L 33.0 29.0 L 32.0 29.666666666666668 L 31.0 30.333333333333332 L 30.0 31.0 L 29.0 32.0 L 28.0 33.0 L 27.0 34.0 L 26.0 35.0 L 25.0 36.0 L 24.333333333333332 37.0 L 23.666666666666668 38.0 L 23.0 39.0 L 22.333333333333332 40.0 L 21.666666666666668 41.0 L 21.333333333333332 42.0 L 20.666666666666668 43.0 L 20.333333333333332 44.0 L 19.666666666666668 45.0 L 19.0 46.0 L 18.333333333333332 47.0 L 18.0 48.0 L 17.666666666666668 49.0 L 17.333333333333332 50.0 L 17.0 51.0 L 17.0 52.0 L 17.0 53.0 L 17.0 54.0 L 17.0 55.0 L 17.0 56.0 L 17.0 57.0 L 17.0 58.0 L 17.0 59.0 L 17.0 60.0 L 17.0 61.0 L 17.0 62.0 L 17.0 63.0 L 17.0 64.0 L 17.0 65.0 L 17.0 66.0 L 17.333333333333332 67.0 L 17.666666666666668 68.0 L 18.0 69.0 L 18.0 70.0 L 18.333333333333332 71.0 L 18.666666666666668 72.0 L 19.333333333333332 73.0 L 19.5 73.5 Z" stroke="none" fill="rgb(191,191,191)" />
<path d="M 23.0 72.5 L 23.0 72.0 L 23.0 71.0 L 23.0 70.0 L 23.0 69.0 L 22.666666666666668 68.0 L 22.333333333333332 67.0 L 22.0 66.0 L 22.0 65.0 L 21.666666666666668 64.0 L 21.333333333333332 63.0 L 21.0 62.0 L 21.0 61.0 L 21.0 60.0 L 21.0 59.0 L 21.0 58.0 L 21.333333333333332 57.0 L 21.666666666666668 56.0 L 22.0 55.0 L 22.0 54.0 L 22.0 53.0 L 22.333333333333332 52.0 L 22.666666666666668 51.0 L 23.0 50.0 L 23.333333333333332 49.0 L 23.666666666666668 48.0 L 24.333333333333332 47.0 L 24.666666666666668 46.0 L 25.333333333333332 45.0 L 26.0 44.0 L 26.666666666666668 43.0 L 27.333333333333332 42.0 L 28.0 41.0 L 29.0 40.0 L 29.666666666666668 39.0 L 30.333333333333332 38.0 L 31.0 37.0 L 32.0 36.0 L 33.0 35.333333333333336 L 34.0 34.666666666666664 L 35.0 34.0 L 36.0 33.0 L 37.0 32.0 L 38.0 31.333333333333332 L 39.0 30.666666666666668 L 40.0 30.333333333333332 L 41.0 29.666666666666668 L 42.0 29.333333333333332 L 43.0 28.666666666666668 L 44.0 28.333333333333332 L 45.0 27.666666666666668 L 46.0 27.333333333333332 L 47.0 26.666666666666668 L 48.0 26.333333333333332 L 49.0 26.0 L 50.0 25.666666666666668 L 51.0 25.333333333333332 L 52.0 25.0 L 53.0 25.0 L 54.0 25.0 L 55.0 24.666666666666668 L 56.0 24.333333333333332 L 57.0 24.0 L 58.0 24.0 L 59.0 24.0 L 60.0 24.0 L 61.0 24.0 L 62.0 24.0 L 63.0 24.0 L 64.0 24.0 L 65.0 24.0 L 66.0 24.0 L 67.0 24.0 L 68.0 24.0 L 69.0 24.0 L 70.0 24.0 L 71.0 24.333333333333332 L 72.0 24.666666666666668 L 73.0 25.0 L 74.0 25.0 L 75.0 25.0 L 76.0 25.333333333333332 L 77.0 25.666666666666668 L 78.0 26.0 L 79.0 26.333333333333332 L 80.0 26.666666666666668 L 81.0 27.333333333333332 L 82.0 27.666666666666668 L 83.0 28.333333333333332 L 84.0 28.666666666666668 L 85.0 29.333333333333332 L 86.0 29.666666666666668 L 87.0 30.333333333333332 L 88.0 30.666666666666668 L 89.0 31.333333333333332 L 90.0 32.0 L 91.0 33.0 L 92.0 33.666666666666664 L 93.0 34.333333333333336 L 94.0 35.0 L 95.0 36.0 L 96.0 37.0 L 97.0 38.0 L 97.66666666666667 39.0 L 98.33333333333333 40.0 L 99.0 41.0 L 100.0 42.0 L 100.66666666666667 43.0 L 101.33333333333333 44.0 L 101.66666666666667 45.0 L 102.33333333333333 46.0 L 102.66666666666667 47.0 L 103.33333333333333 48.0 L 103.66666666666667 49.0 L 104.0 50.0 L 104.33333333333333 51.0 L 104.66666666666667 52.0 L 105.0 53.0 L 105.0 54.0 L 105.33333333333333 55.0 L 105.66666666666667 56.0 L 106.0 57.0 L 106.0 58.0 L 106.0 59.0 L 106.0 60.0 L 106.0 61.0 L 106.0 62.0 L 106.0 63.0 L 106.0 64.0 L 105.66666666666667 65.0 L 105.33333333333333 66.0 L 105.0 67.0 L 105.0 68.0 L 105.0 69.0 L 105.0 70.0 L 105.0 71.0 L 105.33333333333333 71.66666666666667 L 106.0 71.66666666666667 L 106.66666666666667 71.0 L 107.0 70.0 L 107.0 69.0 L 107.33333333333333 68.0 L 107.66666666666667 67.0 L 108.0 66.0 L 108.0 65.0 L 108.0 64.0 L 108.0 63.0 L 108.0 62.0 L 108.0 61.0 L 108.0 60.0 L 108.0 59.0 L 108.0 58.0 L 108.0 57.0 L 108.0 56.0 L 108.0 55.0 L 107.66666666666667 54.0 L 107.33333333333333 53.0 L 107.0 52.0 L 107.0 51.0 L 106.66666666666667 50.0 L 106.33333333333333 49.0 L 106.0 48.0 L 105.66666666666667 47.0 L 105.33333333333333 46.0 L 104.66666666666667 45.0 L 104.33333333333333 44.0 L 103.66666666666667 43.0 L 103.0 42.0 L 102.33333333333333 41.0 L 101.66666666666667 40.0 L 101.0 39.0 L 100.0 38.0 L 99.33333333333333 37.0 L 98.66666666666667 36.0 L 98.0 35.0 L 97.0 34.0 L 96.0 33.333333333333336 L 95.0 32.666666666666664 L 94.0 32.0 L 93.0 31.0 L 92.0 30.333333333333332 L 91.0 29.666666666666668 L 90.0 29.0 L 89.0 28.333333333333332 L 88.0 27.666666666666668 L 87.0 27.333333333333332 L 86.0 26.666666666666668 L 85.0 26.333333333333332 L 84.0 25.666666666666668 L 83.0 25.333333333333332 L 82.0 25.0 L 81.0 24.666666666666668 L 80.0 24.333333333333332 L 79.0 24.0 L 78.0 23.666666666666668 L 77.0 23.333333333333332 L 76.0 23.0 L 75.0 23.0 L 74.0 23.0 L 73.0 22.666666666666668 L 72.0 22.333333333333332 L 71.0 22.0 L 70.0 22.0 L 69.0 22.0 L 68.0 22.0 L 67.0 22.0 L 66.0 22.0 L 65.0 22.0 L 64.0 22.0 L 63.0 22.0 L 62.0 22.0 L 61.0 22.0 L 60.0 22.0 L 59.0 22.0 L 58.0 22.0 L 57.0 22.0 L 56.0 22.0 L 55.0 22.333333333333332 L 54.0 22.666666666666668 L 53.0 23.0 L 52.0 23.0 L 51.0 23.0 L 50.0 23.333333333333332 L 49.0 23.666666666666668 L 48.0 24.0 L 47.0 24.333333333333332 L 46.0 24.666666666666668 L 45.0 25.0 L 44.0 25.333333333333332 L 43.0 25.666666666666668 L 42.0 26.333333333333332 L 41.0 26.666666666666668 L 40.0 27.333333333333332 L 39.0 27.666666666666668 L 38.0 28.333333333333332 L 37.0 29.0 L 36.0 29.666666666666668 L 35.0 30.333333333333332 L 34.0 31.0 L 33.0 32.0 L 32.0 33.0 L 31.0 33.666666666666664 L 30.0 34.333333333333336 L 29.333333333333332 35.0 L 28.666666666666668 36.0 L 28.0 37.0 L 27.0 38.0 L 26.0 39.0 L 25.333333333333332 40.0 L 24.666666666666668 41.0 L 24.0 42.0 L 23.333333333333332 43.0 L 22.666666666666668 44.0 L 22.333333333333332 45.0 L 22.0 46.0 L 21.666666666666668 47.0 L 21.333333333333332 48.0 L 20.666666666666668 49.0 L 20.333333333333332 50.0 L 20.0 51.0 L 20.0 52.0 L 20.0 53.0 L 19.666666666666668 54.0 L 19.333333333333332 55.0 L 19.0 56.0 L 19.0 57.0 L 19.0 58.0 L 19.0 59.0 L 19.0 60.0 L 19.0 61.0 L 19.0 62.0 L 19.0 63.0 L 19.0 64.0 L 19.0 65.0 L 19.333333333333332 66.0 L 19.666666666666668 67.0 L 20.0 68.0 L 20.0 69.0 L 20.333333333333332 70.0 L 20.666666666666668 71.0 L 21.0 72.0 L 21.333333333333332 72.66666666666667 L 22.0 73.0 L 22.5 73.0 Z" stroke="none" fill="rgb(187,187,187)" />
<path d="M 23.5 68.0 L 23.666666666666668 67.66666666666667 L 24.0 67.0 L 24.0 66.0 L 24.0 65.0 L 24.0 64.0 L 23.666666666666668 63.0 L 23.333333333333332 62.0 L 23.0 61.0 L 23.0 60.0 L 23.333333333333332 59.0 L 23.666666666666668 58.0 L 24.0 57.0 L 24.0 56.0 L 24.0 55.0 L 24.0 54.0 L 24.333333333333332 53.0 L 24.666666666666668 52.0 L 25.0 51.0 L 25.333333333333332 50.0 L 25.666666666666668 49.0 L 26.333333333333332 48.0 L 26.666666666666668 47.0 L 27.333333333333332 46.0 L 27.666666666666668 45.0 L 28.333333333333332 44.0 L 29.0 43.0 L 30.0 42.0 L 30.666666666666668 41.0 L 31.333333333333332 40.0 L 32.0 39.0 L 33.0 38.0 L 34.0 37.0 L 35.0 36.0 L 36.0 35.333333333333336 L 37.0 34.666666666666664 L 38.0 34.0 L 39.0 33.333333333333336 L 40.0 32.666666666666664 L 41.0 32.0 L 42.0 31.333333333333332 L 43.0 30.666666666666668 L 44.0 30.333333333333332 L 45.0 29.666666666666668 L 46.0 29.333333333333332 L 47.0 28.666666666666668 L 48.0 28.333333333333332 L 49.0 28.0 L 50.0 27.666666666666668 L 51.0 27.333333333333332 L 52.0 27.0 L 53.0 27.0 L 54.0 26.666666666666668 L 55.0 26.333333333333332 L 56.0 26.0 L 57.0 26.0 L 58.0 26.0 L 59.0 26.0 L 60.0 26.0 L 61.0 26.0 L 62.0 26.0 L 63.0 26.0 L 64.0 26.0 L 65.0 26.0 L 66.0 26.0 L 67.0 26.0 L 68.0 26.0 L 69.0 26.0 L 70.0 26.0 L 71.0 26.0 L 72.0 26.333333333333332 L 73.0 26.666666666666668 L 74.0 27.0 L 75.0 27.0 L 76.0 27.333333333333332 L 77.0 27.666666666666668 L 78.0 28.0 L 79.0 28.333333333333332 L 80.0 28.666666666666668 L 81.0 29.333333333333332 L 82.0 29.666666666666668 L 83.0 30.333333333333332 L 84.0 30.666666666666668 L 85.0 31.333333333333332 L 86.0 31.666666666666668 L 87.0 32.333333333333336 L 88.0 33.0 L 89.0 34.0 L 90.0 34.666666666666664 L 91.0 35.333333333333336 L 92.0 36.0 L 93.0 37.0 L 94.0 38.0 L 95.0 39.0 L 96.0 40.0 L 96.66666666666667 41.0 L 97.33333333333333 42.0 L 98.0 43.0 L 98.66666666666667 44.0 L 99.33333333333333 45.0 L 99.66666666666667 46.0 L 100.33333333333333 47.0 L 100.66666666666667 48.0 L 101.33333333333333 49.0 L 101.66666666666667 50.0 L 102.0 51.0 L 102.33333333333333 52.0 L 102.66666666666667 53.0 L 103.0 54.0 L 103.0 55.0 L 103.33333333333333 56.0 L 103.66666666666667 57.0 L 104.0 58.0 L 104.0 59.0 L 104.0 60.0 L 104.0 61.0 L 104.0 62.0 L 104.0 63.0 L 104.0 64.0 L 104.0 65.0 L 104.33333333333333 65.66666666666667 L 105.0 66.0 L 105.66666666666667 65.66666666666667 L 106.0 65.0 L 106.0 64.0 L 106.0 63.0 L 106.0 62.0 L 106.0 61.0 L 106.0 60.0 L 106.0 59.0 L 106.0 58.0 L 106.0 57.0 L 106.0 56.0 L 105.66666666666667 55.0 L 105.33333333333333 54.0 L 105.0 53.0 L 105.0 52.0 L 104.66666666666667 51.0 L 104.33333333333333 50.0 L 104.0 49.0 L 103.66666666666667 48.0 L 103.33333333333333 47.0 L 102.66666666666667 46.0 L 102.33333333333333 45.0 L 101.66666666666667 44.0 L 101.33333333333333 43.0 L 100.66666666666667 42.0 L 100.0 41.0 L 99.0 40.0 L 98.33333333333333 39.0 L 97.66666666666667 38.0 L 97.0 37.0 L 96.0 36.0 L 95.0 35.0 L 94.0 34.333333333333336 L 93.0 33.666666666666664 L 92.0 33.0 L 91.0 32.0 L 90.0 31.333333333333332 L 89.0 30.666666666666668 L 88.0 30.333333333333332 L 87.0 29.666666666666668 L 86.0 29.333333333333332 L 85.0 28.666666666666668 L 84.0 28.333333333333332 L 83.0 27.666666666666668 L 82.0 27.333333333333332 L 81.0 26.666666666666668 L 80.0 26.333333333333332 L 79.0 26.0 L 78.0 25.666666666666668 L 77.0 25.333333333333332 L 76.0 25.0 L 75.0 25.0 L 74.0 25.0 L 73.0 24.666666666666668 L 72.0 24.333333333333332 L 71.0 24.0 L 70.0 24.0 L 69.0 24.0 L 68.0 24.0 L 67.0 24.0 L 66.0 24.0 L 65.0 24.0 L 64.0 24.0 L 63.0 24.0 L 62.0 24.0 L 61.0 24.0 L 60.0 24.0 L 59.0 24.0 L 58.0 24.0 L 57.0 24.0 L 56.0 24.0 L 55.0 24.333333333333332 L 54.0 24.666666666666668 L 53.0 25.0 L 52.0 25.0 L 51.0 25.0 L 50.0 25.333333333333332 L 49.0 25.666666666666668 L 48.0 26.0 L 47.0 26.333333333333332 L 46.0 26.666666666666668 L 45.0 27.333333333333332 L 44.0 27.666666666666668 L 43.0 28.333333333333332 L 42.0 28.666666666666668 L 41.0 29.333333333333332 L 40.0 29.666666666666668 L 39.0 30.333333333333332 L 38.0 30.666666666666668 L 37.0 31.333333333333332 L 36.0 32.0 L 35.0 33.0 L 34.0 34.0 L 33.0 34.666666666666664 L 32.0 35.333333333333336 L 31.0 36.0 L 30.333333333333332 37.0 L 29.666666666666668 38.0 L 29.0 39.0 L 28.0 40.0 L 27.333333333333332 41.0 L 26.666666666666668 42.0 L 26.0 43.0 L 25.333333333333332 44.0 L 24.666666666666668 45.0 L 24.333333333333332 46.0 L 23.666666666666668 47.0 L 23.333333333333332 48.0 L 23.0 49.0 L 22.666666666666668 50.0 L 22.333333333333332 51.0 L 22.0 52.0 L 22.0 53.0 L 22.0 54.0 L 21.666666666666668 55.0 L 21.333333333333332 56.0 L 21.0 57.0 L 21.0 58.0 L 21.0 59.0 L 21.0 60.0 L 21.0 61.0 L 21.0 62.0 L 21.0 63.0 L 21.333333333333332 64.0 L 21.666666666666668 65.0 L 22.0 66.0 L 22.0 67.0 L 22.333333333333332 67.66666666666667 L 22.5 68.0 Z" stroke="none" fill="rgb(183,183,182)" />
<path d="M 88.5 35.5 L 89.0 36.0 L 90.0 37.0 L 91.0 38.0 L 92.0 39.0 L 93.0 40.0 L 94.0 41.0 L 95.0 42.0 L 95.66666666666667 43.0 L 96.33333333333333 44.0 L 97.0 45.0 L 97.66666666666667 46.0 L 98.33333333333333 47.0 L 98.66666666666667 48.0 L 99.33333333333333 49.0 L 99.66666666666667 50.0 L 100.0 51.0 L 100.33333333333333 52.0 L 100.66666666666667 53.0 L 101.0 54.0 L 101.0 55.0 L 101.0 56.0 L 101.0 57.0 L 101.0 58.0 L 101.33333333333333 59.0 L 101.66666666666667 60.0 L 102.0 61.0 L 102.33333333333333 62.0 L 103.0 62.666666666666664 L 103.66666666666667 62.666666666666664 L 104.0 62.0 L 104.0 61.0 L 104.0 60.0 L 104.0 59.0 L 104.0 58.0 L 104.0 57.0 L 103.66666666666667 56.0 L 103.33333333333333 55.0 L 103.0 54.0 L 103.0 53.0 L 102.66666666666667 52.0 L 102.33333333333333 51.0 L 102.0 50.0 L 101.66666666666667 49.0 L 101.33333333333333 48.0 L 100.66666666666667 47.0 L 100.33333333333333 46.0 L 99.66666666666667 45.0 L 99.33333333333333 44.0 L 98.66666666666667 43.0 L 98.0 42.0 L 97.33333333333333 41.0 L 96.66666666666667 40.0 L 96.0 39.0 L 95.0 38.0 L 94.0 37.0 L 93.0 36.0 L 92.0 35.333333333333336 L 91.0 34.666666666666664 L 90.0 34.0 L 89.0 33.0 L 88.0 32.333333333333336 L 87.0 31.666666666666668 L 86.0 31.333333333333332 L 85.0 30.666666666666668 L 84.0 30.333333333333332 L 83.0 29.666666666666668 L 82.0 29.333333333333332 L 81.0 28.666666666666668 L 80.0 28.333333333333332 L 79.0 28.0 L 78.0 27.666666666666668 L 77.0 27.333333333333332 L 76.0 27.0 L 75.0 27.0 L 74.0 26.666666666666668 L 73.0 26.333333333333332 L 72.0 26.0 L 71.0 26.0 L 70.0 26.0 L 69.0 26.0 L 68.0 26.0 L 67.0 26.0 L 66.0 26.0 L 65.0 26.0 L 64.0 26.0 L 63.0 26.0 L 62.0 26.0 L 61.0 26.0 L 60.0 26.0 L 59.0 26.0 L 58.0 26.0 L 57.0 26.0 L 56.0 26.0 L 55.0 26.0 L 54.0 26.333333333333332 L 53.0 26.666666666666668 L 52.0 27.0 L 51.0 27.0 L 50.0 27.333333333333332 L 49.0 27.666666666666668 L 48.0 28.0 L 47.0 28.333333333333332 L 46.0 28.666666666666668 L 45.0 29.333333333333332 L 44.0 29.666666666666668 L 43.0 30.333333333333332 L 42.0 30.666666666666668 L 41.0 31.333333333333332 L 40.0 32.0 L 39.0 32.666666666666664 L 38.0 33.333333333333336 L 37.0 34.0 L 36.0 34.666666666666664 L 35.0 35.333333333333336 L 34.0 36.0 L 33.0 37.0 L 32.0 38.0 L 31.333333333333332 39.0 L 30.666666666666668 40.0 L 30.0 41.0 L 29.0 42.0 L 28.333333333333332 43.0 L 27.666666666666668 44.0 L 27.333333333333332 45.0 L 26.666666666666668 46.0 L 26.333333333333332 47.0 L 25.666666666666668 48.0 L 25.333333333333332 49.0 L 25.0 50.0 L 24.666666666666668 51.0 L 24.333333333333332 52.0 L 24.0 53.0 L 24.0 54.0 L 24.0 55.0 L 24.0 56.0 L 23.666666666666668 57.0 L 23.333333333333332 58.0 L 23.0 59.0 L 23.0 60.0 L 23.0 61.0 L 23.0 62.0 L 23.333333333333332 62.666666666666664 L 24.0 63.0 L 25.0 62.666666666666664 L 25.666666666666668 62.0 L 26.333333333333332 61.0 L 26.666666666666668 60.0 L 27.0 59.0 L 27.0 58.0 L 26.666666666666668 57.0 L 26.333333333333332 56.0 L 26.0 55.0 L 26.333333333333332 54.0 L 26.666666666666668 53.0 L 27.0 52.0 L 27.333333333333332 51.0 L 27.666666666666668 50.0 L 28.333333333333332 49.0 L 28.666666666666668 48.0 L 29.333333333333332 47.0 L 29.666666666666668 46.0 L 30.333333333333332 45.0 L 31.0 44.0 L 31.666666666666668 43.0 L 32.333333333333336 42.0 L 33.0 41.0 L 34.0 40.0 L 35.0 39.0 L 36.0 38.0 L 37.0 37.0 L 38.0 36.333333333333336 L 39.0 35.666666666666664 L 40.0 35.0 L 41.0 34.333333333333336 L 42.0 33.666666666666664 L 43.0 33.0 L 44.0 32.333333333333336 L 45.0 31.666666666666668 L 46.0 31.333333333333332 L 47.0 30.666666666666668 L 48.0 30.333333333333332 L 49.0 30.0 L 50.0 29.666666666666668 L 51.0 29.333333333333332 L 52.0 29.0 L 53.0 29.0 L 54.0 28.666666666666668 L 55.0 28.333333333333332 L 56.0 28.0 L 57.0 28.0 L 58.0 28.0 L 59.0 28.0 L 60.0 28.0 L 61.0 28.333333333333332 L 62.0 28.666666666666668 L 63.0 29.0 L 64.0 29.0 L 65.0 29.0 L 66.0 28.666666666666668 L 67.0 28.333333333333332 L 68.0 28.0 L 69.0 28.0 L 70.0 28.0 L 71.0 28.0 L 72.0 28.333333333333332 L 73.0 28.666666666666668 L 74.0 29.0 L 75.0 29.0 L 76.0 29.333333333333332 L 77.0 29.666666666666668 L 78.0 30.0 L 79.0 30.333333333333332 L 80.0 30.666666666666668 L 81.0 31.333333333333332 L 82.0 31.666666666666668 L 83.0 32.333333333333336 L 84.0 32.666666666666664 L 85.0 33.333333333333336 L 86.0 34.0 L 87.0 34.666666666666664 L 87.5 35.0 Z" stroke="none" fill="rgb(179,179,178)" />
<path d="M 23.5 39.5 L 23.666666666666668 39.0 L 24.333333333333332 38.0 L 25.0 37.0 L 26.0 36.0 L 27.0 35.0 L 28.0 34.0 L 29.0 33.0 L 30.0 32.0 L 31.0 31.0 L 32.0 30.333333333333332 L 33.0 29.666666666666668 L 34.0 29.0 L 35.0 28.0 L 36.0 27.333333333333332 L 37.0 26.666666666666668 L 38.0 26.333333333333332 L 39.0 25.666666666666668 L 40.0 25.333333333333332 L 41.0 24.666666666666668 L 42.0 24.333333333333332 L 43.0 23.666666666666668 L 44.0 23.333333333333332 L 45.0 23.0 L 46.0 22.666666666666668 L 47.0 22.333333333333332 L 48.0 22.0 L 49.0 21.666666666666668 L 50.0 21.333333333333332 L 51.0 21.0 L 52.0 21.0 L 53.0 20.666666666666668 L 54.0 20.333333333333332 L 55.0 20.0 L 56.0 20.0 L 57.0 20.0 L 58.0 20.0 L 59.0 20.0 L 60.0 20.0 L 61.0 20.0 L 62.0 20.0 L 63.0 20.0 L 64.0 20.0 L 65.0 20.0 L 66.0 20.0 L 67.0 20.0 L 68.0 20.0 L 69.0 20.0 L 70.0 20.0 L 71.0 20.0 L 72.0 20.0 L 73.0 20.333333333333332 L 74.0 20.666666666666668 L 75.0 21.0 L 76.0 21.0 L 77.0 21.333333333333332 L 78.0 21.666666666666668 L 79.0 22.0 L 80.0 22.333333333333332 L 81.0 22.666666666666668 L 82.0 23.0 L 83.0 23.333333333333332 L 84.0 23.666666666666668 L 85.0 24.333333333333332 L 86.0 24.666666666666668 L 87.0 25.333333333333332 L 88.0 25.666666666666668 L 89.0 26.333333333333332 L 90.0 26.666666666666668 L 91.0 27.333333333333332 L 92.0 28.0 L 93.0 29.0 L 94.0 29.666666666666668 L 95.0 30.333333333333332 L 96.0 31.0 L 97.0 32.0 L 98.0 33.0 L 99.0 34.0 L 100.0 35.0 L 101.0 36.0 L 102.0 37.0 L 102.66666666666667 38.0 L 103.33333333333333 39.0 L 104.0 40.0 L 104.66666666666667 41.0 L 105.33333333333333 42.0 L 106.0 43.0 L 106.66666666666667 44.0 L 107.33333333333333 45.0 L 107.66666666666667 46.0 L 108.0 47.0 L 108.33333333333333 48.0 L 108.66666666666667 49.0 L 109.0 50.0 L 109.33333333333333 51.0 L 110.0 51.666666666666664 L 110.66666666666667 51.666666666666664 L 111.0 51.0 L 111.0 50.0 L 111.0 49.0 L 110.66666666666667 48.0 L 110.33333333333333 47.0 L 110.0 46.0 L 110.0 45.0 L 110.0 44.0 L 109.66666666666667 43.0 L 109.33333333333333 42.0 L 109.0 41.0 L 108.66666666666667 40.0 L 108.0 39.0 L 107.0 38.0 L 106.0 37.0 L 105.0 36.0 L 104.33333333333333 35.0 L 103.66666666666667 34.0 L 103.0 33.0 L 102.0 32.0 L 101.0 31.0 L 100.0 30.0 L 99.0 29.333333333333332 L 98.0 28.666666666666668 L 97.0 28.0 L 96.0 27.0 L 95.0 26.333333333333332 L 94.0 25.666666666666668 L 93.0 25.333333333333332 L 92.0 24.666666666666668 L 91.0 24.0 L 90.0 23.333333333333332 L 89.0 22.666666666666668 L 88.0 22.333333333333332 L 87.0 22.0 L 86.0 21.666666666666668 L 85.0 21.333333333333332 L 84.0 20.666666666666668 L 83.0 20.333333333333332 L 82.0 20.0 L 81.0 19.666666666666668 L 80.0 19.333333333333332 L 79.0 19.0 L 78.0 19.0 L 77.0 18.666666666666668 L 76.0 18.333333333333332 L 75.0 18.0 L 74.0 18.0 L 73.0 18.0 L 72.0 18.0 L 71.0 17.666666666666668 L 70.0 17.333333333333332 L 69.0 17.0 L 68.0 17.0 L 67.0 17.0 L 66.0 17.0 L 65.0 17.0 L 64.0 17.0 L 63.0 17.0 L 62.0 17.0 L 61.0 17.0 L 60.0 17.0 L 59.0 17.0 L 58.0 17.0 L 57.0 17.333333333333332 L 56.0 17.666666666666668 L 55.0 18.0 L 54.0 18.0 L 53.0 18.0 L 52.0 18.0 L 51.0 18.333333333333332 L 50.0 18.666666666666668 L 49.0 19.0 L 48.0 19.0 L 47.0 19.333333333333332 L 46.0 19.666666666666668 L 45.0 20.0 L 44.0 20.333333333333332 L 43.0 20.666666666666668 L 42.0 21.333333333333332 L 41.0 21.666666666666668 L 40.0 22.0 L 39.0 22.333333333333332 L 38.0 22.666666666666668 L 37.0 23.333333333333332 L 36.0 24.0 L 35.0 24.666666666666668 L 34.0 25.333333333333332 L 33.0 25.666666666666668 L 32.0 26.333333333333332 L 31.0 27.0 L 30.0 28.0 L 29.0 29.0 L 28.0 29.666666666666668 L 27.0 30.333333333333332 L 26.0 31.0 L 25.0 32.0 L 24.0 33.0 L 23.333333333333332 34.0 L 22.666666666666668 35.0 L 22.0 36.0 L 21.0 37.0 L 20.333333333333332 38.0 L 19.666666666666668 39.0 L 19.333333333333332 40.0 L 19.0 41.0 L 18.666666666666668 42.0 L 18.333333333333332 43.0 L 18.0 44.0 L 18.0 45.0 L 18.0 46.0 L 18.333333333333332 46.666666666666664 L 19.0 46.666666666666664 L 19.666666666666668 46.0 L 20.333333333333332 45.0 L 20.666666666666668 44.0 L 21.333333333333332 43.0 L 21.666666666666668 42.0 L 22.333333333333332 41.0 L 22.5 40.5 Z" stroke="none" fill="rgb(196,196,196)" />
<path d="M 80.5 36.0 L 81.0 36.333333333333336 L 82.0 37.0 L 83.0 37.666666666666664 L 84.0 38.333333333333336 L 85.0 39.0 L 86.0 40.0 L 87.0 40.666666666666664 L 88.0 41.333333333333336 L 88.66666666666667 42.0 L 89.33333333333333 43.0 L 90.0 44.0 L 91.0 45.0 L 91.66666666666667 46.0 L 92.0 47.0 L 92.33333333333333 48.0 L 93.0 49.0 L 94.0 50.0 L 95.0 51.0 L 96.0 51.666666666666664 L 97.0 52.0 L 97.66666666666667 51.666666666666664 L 98.0 51.0 L 97.66666666666667 50.0 L 97.33333333333333 49.0 L 96.66666666666667 48.0 L 96.33333333333333 47.0 L 95.66666666666667 46.0 L 95.0 45.0 L 94.33333333333333 44.0 L 93.66666666666667 43.0 L 93.0 42.0 L 92.0 41.0 L 91.0 40.0 L 90.0 39.0 L 89.0 38.0 L 88.0 37.333333333333336 L 87.0 36.666666666666664 L 86.0 36.0 L 85.0 35.333333333333336 L 84.0 34.666666666666664 L 83.0 34.333333333333336 L 82.0 33.666666666666664 L 81.0 33.333333333333336 L 80.0 32.666666666666664 L 79.0 32.333333333333336 L 78.0 31.666666666666668 L 77.0 31.333333333333332 L 76.0 31.0 L 75.0 31.0 L 74.0 30.666666666666668 L 73.0 30.333333333333332 L 72.0 30.0 L 71.0 30.0 L 70.0 30.0 L 69.0 30.0 L 68.0 30.0 L 67.0 29.666666666666668 L 66.0 29.333333333333332 L 65.0 29.0 L 64.0 29.0 L 63.0 29.0 L 62.0 29.0 L 61.0 29.333333333333332 L 60.0 29.666666666666668 L 59.0 30.0 L 58.0 30.0 L 57.0 30.0 L 56.0 30.0 L 55.0 30.0 L 54.0 30.333333333333332 L 53.0 30.666666666666668 L 52.0 31.0 L 51.0 31.0 L 50.0 31.333333333333332 L 49.0 31.666666666666668 L 48.0 32.333333333333336 L 47.0 32.666666666666664 L 46.0 33.333333333333336 L 45.0 33.666666666666664 L 44.0 34.333333333333336 L 43.0 34.666666666666664 L 42.0 35.333333333333336 L 41.0 36.0 L 40.0 36.666666666666664 L 39.0 37.333333333333336 L 38.0 38.0 L 37.0 39.0 L 36.0 40.0 L 35.0 41.0 L 34.0 42.0 L 33.333333333333336 43.0 L 32.666666666666664 44.0 L 32.0 45.0 L 31.333333333333332 46.0 L 30.666666666666668 47.0 L 30.333333333333332 48.0 L 30.0 49.0 L 29.666666666666668 50.0 L 29.333333333333332 51.0 L 29.333333333333332 51.666666666666664 L 30.0 52.0 L 31.0 51.666666666666664 L 32.0 51.0 L 33.0 50.0 L 34.0 49.0 L 34.666666666666664 48.0 L 35.0 47.0 L 35.333333333333336 46.0 L 36.0 45.0 L 37.0 44.0 L 38.0 43.0 L 39.0 42.0 L 40.0 41.0 L 41.0 40.0 L 42.0 39.0 L 43.0 38.333333333333336 L 44.0 37.666666666666664 L 45.0 37.0 L 46.0 36.333333333333336 L 47.0 35.666666666666664 L 48.0 35.333333333333336 L 49.0 34.666666666666664 L 50.0 34.333333333333336 L 51.0 34.0 L 52.0 33.666666666666664 L 53.0 33.333333333333336 L 54.0 33.0 L 55.0 33.0 L 56.0 32.666666666666664 L 57.0 32.333333333333336 L 58.0 32.0 L 59.0 32.0 L 60.0 32.0 L 61.0 32.0 L 62.0 32.0 L 63.0 32.0 L 64.0 32.0 L 65.0 32.0 L 66.0 32.0 L 67.0 32.0 L 68.0 32.0 L 69.0 32.0 L 70.0 32.333333333333336 L 71.0 32.666666666666664 L 72.0 33.0 L 73.0 33.0 L 74.0 33.333333333333336 L 75.0 33.666666666666664 L 76.0 34.0 L 77.0 34.333333333333336 L 78.0 34.666666666666664 L 79.0 35.333333333333336 L 79.5 35.5 Z" stroke="none" fill="rgb(170,170,170)" />
<path d="M 88.5 19.0 L 89.0 19.333333333333332 L 90.0 19.666666666666668 L 91.0 20.0 L 91.66666666666667 19.666666666666668 L 92.0 19.0 L 92.0 18.0 L 92.0 17.0 L 91.66666666666667 16.0 L 91.33333333333333 15.0 L 90.66666666666667 14.0 L 90.0 13.0 L 89.0 12.0 L 88.0 11.0 L 87.0 10.0 L 86.0 9.333333333333334 L 85.0 8.666666666666666 L 84.0 8.333333333333334 L 83.0 7.666666666666667 L 82.0 7.333333333333333 L 81.0 6.666666666666667 L 80.0 6.333333333333333 L 79.0 6.0 L 78.0 5.666666666666667 L 77.0 5.333333333333333 L 76.0 5.0 L 75.0 4.666666666666667 L 74.0 4.333333333333333 L 73.0 4.0 L 72.0 4.0 L 71.0 4.0 L 70.0 4.0 L 69.0 4.0 L 68.0 4.0 L 67.0 4.0 L 66.0 4.0 L 65.0 4.0 L 64.0 4.0 L 63.0 4.0 L 62.0 4.0 L 61.0 4.0 L 60.0 4.0 L 59.0 4.0 L 58.0 4.0 L 57.0 4.0 L 56.0 4.0 L 55.0 4.0 L 54.0 4.333333333333333 L 53.0 4.666666666666667 L 52.0 5.0 L 51.0 5.0 L 50.0 5.333333333333333 L 49.0 5.666666666666667 L 48.0 6.0 L 47.0 6.333333333333333 L 46.0 6.666666666666667 L 45.0 7.333333333333333 L 44.0 7.666666666666667 L 43.0 8.333333333333334 L 42.0 9.0 L 41.0 10.0 L 40.0 10.666666666666666 L 39.0 11.333333333333334 L 38.333333333333336 12.0 L 37.666666666666664 13.0 L 37.333333333333336 14.0 L 36.666666666666664 15.0 L 36.333333333333336 16.0 L 36.0 17.0 L 36.0 18.0 L 36.0 19.0 L 36.333333333333336 19.666666666666668 L 37.0 20.0 L 38.0 20.0 L 39.0 19.666666666666668 L 40.0 19.333333333333332 L 41.0 19.0 L 42.0 18.666666666666668 L 43.0 18.333333333333332 L 44.0 17.666666666666668 L 45.0 17.333333333333332 L 46.0 17.0 L 47.0 17.0 L 48.0 16.666666666666668 L 49.0 16.333333333333332 L 50.0 16.0 L 51.0 16.0 L 52.0 16.0 L 53.0 15.666666666666666 L 54.0 15.333333333333334 L 55.0 15.0 L 56.0 15.0 L 57.0 15.0 L 58.0 15.0 L 59.0 15.0 L 60.0 15.0 L 61.0 15.333333333333334 L 62.0 16.0 L 63.0 16.666666666666668 L 64.0 17.0 L 65.0 17.0 L 66.0 17.0 L 66.66666666666667 16.666666666666668 L 67.33333333333333 16.0 L 68.0 15.333333333333334 L 69.0 15.0 L 70.0 15.0 L 71.0 15.0 L 72.0 15.0 L 73.0 15.0 L 74.0 15.0 L 75.0 15.0 L 76.0 15.0 L 77.0 15.333333333333334 L 78.0 15.666666666666666 L 79.0 16.0 L 80.0 16.0 L 81.0 16.333333333333332 L 82.0 16.666666666666668 L 83.0 17.0 L 84.0 17.333333333333332 L 85.0 17.666666666666668 L 86.0 18.333333333333332 L 87.0 18.666666666666668 L 87.5 19.0 Z" stroke="none" fill="rgb(158,158,158)" />
<path d="M 40.5 45.0 L 41.0 44.666666666666664 L 42.0 44.333333333333336 L 42.666666666666664 43.666666666666664 L 43.0 43.0 L 43.333333333333336 42.0 L 44.0 41.0 L 45.0 40.333333333333336 L 46.0 39.666666666666664 L 47.0 39.333333333333336 L 48.0 38.666666666666664 L 49.0 38.333333333333336 L 50.0 37.666666666666664 L 51.0 37.333333333333336 L 52.0 36.666666666666664 L 53.0 36.333333333333336 L 54.0 36.0 L 55.0 35.666666666666664 L 56.0 35.333333333333336 L 57.0 35.0 L 58.0 35.0 L 59.0 35.0 L 60.0 35.0 L 61.0 35.333333333333336 L 62.0 35.666666666666664 L 63.0 36.0 L 64.0 36.0 L 65.0 36.0 L 66.0 35.666666666666664 L 67.0 35.333333333333336 L 68.0 35.0 L 69.0 35.0 L 70.0 35.0 L 71.0 35.333333333333336 L 72.0 35.666666666666664 L 73.0 36.0 L 74.0 36.333333333333336 L 75.0 36.666666666666664 L 76.0 37.0 L 77.0 37.333333333333336 L 78.0 37.666666666666664 L 79.0 38.333333333333336 L 80.0 39.0 L 81.0 39.666666666666664 L 82.0 40.333333333333336 L 83.0 41.0 L 84.0 42.0 L 85.0 43.0 L 86.0 43.666666666666664 L 87.0 44.333333333333336 L 88.0 44.666666666666664 L 89.0 45.333333333333336 L 90.0 46.0 L 91.0 46.666666666666664 L 91.66666666666667 46.666666666666664 L 92.0 46.0 L 91.66666666666667 45.0 L 91.0 44.0 L 90.0 43.0 L 89.33333333333333 42.0 L 88.66666666666667 41.333333333333336 L 88.0 40.666666666666664 L 87.0 40.0 L 86.0 39.0 L 85.0 38.333333333333336 L 84.0 37.666666666666664 L 83.0 37.0 L 82.0 36.333333333333336 L 81.0 35.666666666666664 L 80.0 35.333333333333336 L 79.0 34.666666666666664 L 78.0 34.333333333333336 L 77.0 34.0 L 76.0 33.666666666666664 L 75.0 33.333333333333336 L 74.0 33.0 L 73.0 33.0 L 72.0 32.666666666666664 L 71.0 32.333333333333336 L 70.0 32.0 L 69.0 32.0 L 68.0 32.0 L 67.0 32.0 L 66.0 32.0 L 65.0 32.0 L 64.0 32.0 L 63.0 32.0 L 62.0 32.0 L 61.0 32.0 L 60.0 32.0 L 59.0 32.0 L 58.0 32.0 L 57.0 32.0 L 56.0 32.333333333333336 L 55.0 32.666666666666664 L 54.0 33.0 L 53.0 33.0 L 52.0 33.333333333333336 L 51.0 33.666666666666664 L 50.0 34.0 L 49.0 34.333333333333336 L 48.0 34.666666666666664 L 47.0 35.333333333333336 L 46.0 35.666666666666664 L 45.0 36.333333333333336 L 44.0 37.0 L 43.0 37.666666666666664 L 42.0 38.333333333333336 L 41.0 39.0 L 40.0 40.0 L 39.0 41.0 L 38.0 42.0 L 37.0 43.0 L 36.0 44.0 L 35.333333333333336 45.0 L 35.0 46.0 L 35.333333333333336 46.666666666666664 L 36.0 47.0 L 37.0 46.666666666666664 L 38.0 46.333333333333336 L 39.0 45.666666666666664 L 39.5 45.5 Z" stroke="none" fill="rgb(165,165,164)" />
<path d="M 78.5 104.5 L 78.66666666666667 104.0 L 79.0 103.0 L 79.0 102.0 L 78.66666666666667 101.0 L 78.0 100.33333333333333 L 77.0 100.0 L 76.0 100.0 L 75.0 100.0 L 74.0 100.33333333333333 L 73.0 100.66666666666667 L 72.0 101.0 L 71.0 101.0 L 70.0 101.0 L 69.0 101.0 L 68.0 101.0 L 67.0 101.0 L 66.0 101.0 L 65.0 101.0 L 64.0 101.0 L 63.0 101.0 L 62.0 101.0 L 61.0 101.0 L 60.0 101.0 L 59.0 101.0 L 58.0 101.0 L 57.0 101.0 L 56.0 100.66666666666667 L 55.0 100.33333333333333 L 54.0 100.0 L 53.0 100.0 L 52.0 100.0 L 51.0 100.0 L 50.0 100.33333333333333 L 49.333333333333336 101.0 L 49.0 102.0 L 49.333333333333336 103.0 L 50.0 104.0 L 51.0 105.0 L 52.0 106.0 L 53.0 107.0 L 54.0 107.66666666666667 L 55.0 108.0 L 56.0 108.33333333333333 L 57.0 108.66666666666667 L 58.0 109.0 L 59.0 109.33333333333333 L 60.0 109.66666666666667 L 61.0 110.0 L 62.0 110.0 L 63.0 110.0 L 64.0 110.0 L 65.0 110.0 L 66.0 110.0 L 67.0 110.0 L 68.0 110.0 L 69.0 110.0 L 70.0 109.66666666666667 L 71.0 109.33333333333333 L 72.0 109.0 L 73.0 108.66666666666667 L 74.0 108.0 L 75.0 107.33333333333333 L 76.0 106.66666666666667 L 77.0 106.0 L 77.5 105.5 Z" stroke="none" fill="rgb(68,68,68)" />
<path d="M 57.5 55.0 L 58.0 55.0 L 59.0 55.0 L 60.0 55.0 L 61.0 54.666666666666664 L 62.0 54.333333333333336 L 63.0 54.0 L 64.0 54.0 L 65.0 54.0 L 66.0 54.0 L 67.0 54.0 L 68.0 54.0 L 69.0 54.0 L 70.0 54.0 L 71.0 54.0 L 72.0 54.333333333333336 L 73.0 54.666666666666664 L 74.0 55.0 L 75.0 55.0 L 76.0 55.0 L 77.0 55.333333333333336 L 78.0 55.666666666666664 L 79.0 56.0 L 80.0 56.0 L 81.0 56.333333333333336 L 82.0 56.666666666666664 L 83.0 57.0 L 84.0 57.0 L 85.0 57.0 L 85.66666666666667 56.666666666666664 L 86.0 56.0 L 85.66666666666667 55.0 L 85.0 54.333333333333336 L 84.0 53.666666666666664 L 83.0 53.333333333333336 L 82.0 53.0 L 81.0 52.666666666666664 L 80.0 52.333333333333336 L 79.0 52.0 L 78.0 52.0 L 77.0 52.0 L 76.0 51.666666666666664 L 75.0 51.333333333333336 L 74.0 51.0 L 73.0 51.0 L 72.0 51.0 L 71.0 51.0 L 70.0 51.0 L 69.0 51.0 L 68.0 51.0 L 67.0 51.0 L 66.0 51.0 L 65.0 51.0 L 64.0 51.0 L 63.0 51.0 L 62.0 51.0 L 61.0 51.0 L 60.0 51.0 L 59.0 51.0 L 58.0 51.0 L 57.0 51.333333333333336 L 56.0 51.666666666666664 L 55.0 52.0 L 54.0 52.0 L 53.0 52.0 L 52.0 52.0 L 51.0 52.0 L 50.0 52.333333333333336 L 49.0 52.666666666666664 L 48.0 53.0 L 47.0 53.0 L 46.0 53.333333333333336 L 45.0 53.666666666666664 L 44.0 54.0 L 43.0 54.333333333333336 L 42.333333333333336 55.0 L 42.0 56.0 L 42.333333333333336 56.666666666666664 L 43.0 57.0 L 44.0 57.0 L 45.0 57.0 L 46.0 57.0 L 47.0 57.0 L 48.0 56.666666666666664 L 49.0 56.333333333333336 L 50.0 56.0 L 51.0 56.0 L 52.0 55.666666666666664 L 53.0 55.333333333333336 L 54.0 55.0 L 55.0 55.0 L 56.0 55.0 L 56.5 55.0 Z" stroke="none" fill="rgb(237,189,130)" />
<path d="M 72.5 18.0 L 73.0 18.0 L 74.0 18.0 L 75.0 18.333333333333332 L 76.0 18.666666666666668 L 77.0 19.0 L 78.0 19.0 L 79.0 19.333333333333332 L 80.0 19.666666666666668 L 81.0 20.0 L 82.0 20.333333333333332 L 83.0 20.666666666666668 L 84.0 21.333333333333332 L 85.0 21.666666666666668 L 86.0 22.0 L 87.0 22.333333333333332 L 88.0 22.666666666666668 L 89.0 23.333333333333332 L 90.0 24.0 L 91.0 24.666666666666668 L 92.0 25.333333333333332 L 93.0 25.666666666666668 L 94.0 26.333333333333332 L 95.0 27.0 L 96.0 28.0 L 97.0 28.666666666666668 L 98.0 29.333333333333332 L 99.0 30.0 L 100.0 31.0 L 101.0 32.0 L 102.0 33.0 L 103.0 34.0 L 103.66666666666667 35.0 L 104.33333333333333 36.0 L 105.0 37.0 L 106.0 38.0 L 107.0 38.666666666666664 L 107.66666666666667 38.666666666666664 L 108.0 38.0 L 107.66666666666667 37.0 L 107.33333333333333 36.0 L 106.66666666666667 35.0 L 106.33333333333333 34.0 L 105.66666666666667 33.0 L 105.33333333333333 32.0 L 104.66666666666667 31.0 L 104.0 30.0 L 103.33333333333333 29.0 L 102.66666666666667 28.0 L 102.0 27.0 L 101.0 26.0 L 100.0 25.0 L 99.0 24.0 L 98.0 23.333333333333332 L 97.0 22.666666666666668 L 96.0 22.0 L 95.0 21.333333333333332 L 94.0 20.666666666666668 L 93.0 20.333333333333332 L 92.0 20.0 L 91.0 19.666666666666668 L 90.0 19.333333333333332 L 89.0 19.0 L 88.0 18.666666666666668 L 87.0 18.333333333333332 L 86.0 17.666666666666668 L 85.0 17.333333333333332 L 84.0 17.0 L 83.0 16.666666666666668 L 82.0 16.333333333333332 L 81.0 16.0 L 80.0 16.0 L 79.0 15.666666666666666 L 78.0 15.333333333333334 L 77.0 15.0 L 76.0 15.0 L 75.0 15.0 L 74.0 15.0 L 73.0 15.0 L 72.0 15.0 L 71.0 15.0 L 70.0 15.0 L 69.0 15.0 L 68.0 15.0 L 67.33333333333333 15.333333333333334 L 67.0 16.0 L 67.33333333333333 16.666666666666668 L 68.0 17.0 L 69.0 17.333333333333332 L 70.0 17.666666666666668 L 71.0 18.0 L 71.5 18.0 Z" stroke="none" fill="rgb(202,202,202)" />
<path d="M 33.5 26.0 L 34.0 25.666666666666668 L 35.0 25.333333333333332 L 36.0 24.666666666666668 L 37.0 24.0 L 38.0 23.333333333333332 L 39.0 22.666666666666668 L 40.0 22.333333333333332 L 41.0 22.0 L 42.0 21.666666666666668 L 43.0 21.333333333333332 L 44.0 20.666666666666668 L 45.0 20.333333333333332 L 46.0 20.0 L 47.0 19.666666666666668 L 48.0 19.333333333333332 L 49.0 19.0 L 50.0 19.0 L 51.0 18.666666666666668 L 52.0 18.333333333333332 L 53.0 18.0 L 54.0 18.0 L 55.0 18.0 L 56.0 18.0 L 57.0 17.666666666666668 L 58.0 17.333333333333332 L 59.0 17.0 L 60.0 17.0 L 61.0 17.0 L 62.0 17.0 L 62.666666666666664 16.666666666666668 L 62.666666666666664 16.0 L 62.0 15.333333333333334 L 61.0 15.0 L 60.0 15.0 L 59.0 15.0 L 58.0 15.0 L 57.0 15.0 L 56.0 15.0 L 55.0 15.0 L 54.0 15.0 L 53.0 15.333333333333334 L 52.0 15.666666666666666 L 51.0 16.0 L 50.0 16.0 L 49.0 16.0 L 48.0 16.333333333333332 L 47.0 16.666666666666668 L 46.0 17.0 L 45.0 17.0 L 44.0 17.333333333333332 L 43.0 17.666666666666668 L 42.0 18.333333333333332 L 41.0 18.666666666666668 L 40.0 19.0 L 39.0 19.333333333333332 L 38.0 19.666666666666668 L 37.0 20.0 L 36.0 20.0 L 35.0 20.333333333333332 L 34.0 20.666666666666668 L 33.0 21.333333333333332 L 32.0 22.0 L 31.0 22.666666666666668 L 30.0 23.333333333333332 L 29.0 24.0 L 28.0 25.0 L 27.0 26.0 L 26.0 27.0 L 25.333333333333332 28.0 L 24.666666666666668 29.0 L 24.0 30.0 L 23.333333333333332 31.0 L 22.666666666666668 32.0 L 22.333333333333332 33.0 L 21.666666666666668 34.0 L 21.333333333333332 35.0 L 21.0 36.0 L 21.333333333333332 36.666666666666664 L 22.0 36.666666666666664 L 22.666666666666668 36.0 L 23.333333333333332 35.0 L 24.0 34.0 L 25.0 33.0 L 26.0 32.0 L 27.0 31.0 L 28.0 30.333333333333332 L 29.0 29.666666666666668 L 30.0 29.0 L 31.0 28.0 L 32.0 27.0 L 32.5 26.5 Z" stroke="none" fill="rgb(202,202,202)" />
<path d="M 53.5 48.5 L 54.0 48.333333333333336 L 55.0 48.0 L 56.0 48.0 L 57.0 48.0 L 58.0 48.0 L 59.0 47.666666666666664 L 60.0 47.333333333333336 L 61.0 47.0 L 62.0 47.0 L 63.0 47.0 L 64.0 47.0 L 65.0 47.0 L 66.0 47.0 L 67.0 47.0 L 68.0 47.0 L 69.0 47.0 L 70.0 47.0 L 71.0 47.0 L 72.0 47.333333333333336 L 73.0 47.666666666666664 L 74.0 48.0 L 75.0 48.0 L 76.0 48.333333333333336 L 77.0 48.666666666666664 L 78.0 49.0 L 79.0 49.0 L 79.66666666666667 48.666666666666664 L 80.0 48.0 L 80.0 47.0 L 79.66666666666667 46.333333333333336 L 79.0 45.666666666666664 L 78.0 45.333333333333336 L 77.0 45.0 L 76.0 45.0 L 75.0 44.666666666666664 L 74.0 44.333333333333336 L 73.0 44.0 L 72.0 44.0 L 71.0 44.0 L 70.0 44.0 L 69.0 44.0 L 68.0 44.0 L 67.0 44.0 L 66.0 44.0 L 65.0 44.0 L 64.0 44.0 L 63.0 44.0 L 62.0 44.0 L 61.0 44.0 L 60.0 44.0 L 59.0 44.0 L 58.0 44.0 L 57.0 44.333333333333336 L 56.0 44.666666666666664 L 55.0 45.0 L 54.0 45.0 L 53.0 45.0 L 52.0 45.0 L 51.0 45.333333333333336 L 50.0 45.666666666666664 L 49.0 46.0 L 48.333333333333336 46.333333333333336 L 48.0 47.0 L 48.0 48.0 L 48.333333333333336 48.666666666666664 L 49.0 49.0 L 50.0 49.0 L 51.0 49.0 L 52.0 49.0 L 52.5 49.0 Z" stroke="none" fill="rgb(237,189,130)" />
<path d="M 46.5 33.5 L 47.0 33.333333333333336 L 48.0 32.666666666666664 L 49.0 32.333333333333336 L 50.0 31.666666666666668 L 51.0 31.333333333333332 L 52.0 31.0 L 53.0 31.0 L 54.0 30.666666666666668 L 55.0 30.333333333333332 L 56.0 30.0 L 57.0 30.0 L 58.0 30.0 L 59.0 30.0 L 60.0 30.0 L 61.0 29.666666666666668 L 61.666666666666664 29.0 L 61.666666666666664 28.333333333333332 L 61.0 28.0 L 60.0 28.0 L 59.0 28.0 L 58.0 28.0 L 57.0 28.0 L 56.0 28.0 L 55.0 28.0 L 54.0 28.333333333333332 L 53.0 28.666666666666668 L 52.0 29.0 L 51.0 29.0 L 50.0 29.333333333333332 L 49.0 29.666666666666668 L 48.0 30.0 L 47.0 30.333333333333332 L 46.0 30.666666666666668 L 45.0 31.333333333333332 L 44.0 31.666666666666668 L 43.0 32.333333333333336 L 42.0 33.0 L 41.0 33.666666666666664 L 40.0 34.333333333333336 L 39.0 35.0 L 38.0 35.666666666666664 L 37.0 36.333333333333336 L 36.0 37.0 L 35.0 38.0 L 34.0 39.0 L 33.0 40.0 L 32.333333333333336 41.0 L 31.666666666666668 42.0 L 31.0 43.0 L 30.333333333333332 44.0 L 29.666666666666668 45.0 L 29.333333333333332 46.0 L 28.666666666666668 47.0 L 28.333333333333332 48.0 L 27.666666666666668 49.0 L 27.333333333333332 50.0 L 27.0 51.0 L 26.666666666666668 52.0 L 26.333333333333332 53.0 L 26.0 54.0 L 26.0 55.0 L 26.0 56.0 L 26.333333333333332 56.666666666666664 L 27.0 57.0 L 28.0 56.666666666666664 L 28.666666666666668 56.0 L 29.333333333333332 55.0 L 29.666666666666668 54.0 L 30.0 53.0 L 30.0 52.0 L 30.0 51.0 L 30.0 50.0 L 30.333333333333332 49.0 L 30.666666666666668 48.0 L 31.333333333333332 47.0 L 32.0 46.0 L 32.666666666666664 45.0 L 33.333333333333336 44.0 L 34.0 43.0 L 35.0 42.0 L 36.0 41.0 L 37.0 40.0 L 38.0 39.0 L 39.0 38.0 L 40.0 37.333333333333336 L 41.0 36.666666666666664 L 42.0 36.0 L 43.0 35.333333333333336 L 44.0 34.666666666666664 L 45.0 34.333333333333336 L 45.5 34.0 Z" stroke="none" fill="rgb(175,175,174)" />
<path d="M 88.5 38.5 L 89.0 39.0 L 90.0 40.0 L 91.0 41.0 L 92.0 42.0 L 93.0 43.0 L 93.66666666666667 44.0 L 94.33333333333333 45.0 L 95.0 46.0 L 95.66666666666667 47.0 L 96.33333333333333 48.0 L 96.66666666666667 49.0 L 97.33333333333333 50.0 L 97.66666666666667 51.0 L 98.0 52.0 L 98.0 53.0 L 98.33333333333333 54.0 L 99.0 55.0 L 100.0 55.666666666666664 L 100.66666666666667 55.666666666666664 L 101.0 55.0 L 101.0 54.0 L 101.0 53.0 L 100.66666666666667 52.0 L 100.33333333333333 51.0 L 100.0 50.0 L 99.66666666666667 49.0 L 99.33333333333333 48.0 L 98.66666666666667 47.0 L 98.33333333333333 46.0 L 97.66666666666667 45.0 L 97.0 44.0 L 96.33333333333333 43.0 L 95.66666666666667 42.0 L 95.0 41.0 L 94.0 40.0 L 93.0 39.0 L 92.0 38.0 L 91.0 37.0 L 90.0 36.0 L 89.0 35.333333333333336 L 88.0 34.666666666666664 L 87.0 34.0 L 86.0 33.333333333333336 L 85.0 32.666666666666664 L 84.0 32.333333333333336 L 83.0 31.666666666666668 L 82.0 31.333333333333332 L 81.0 30.666666666666668 L 80.0 30.333333333333332 L 79.0 30.0 L 78.0 29.666666666666668 L 77.0 29.333333333333332 L 76.0 29.0 L 75.0 29.0 L 74.0 28.666666666666668 L 73.0 28.333333333333332 L 72.0 28.0 L 71.0 28.0 L 70.0 28.0 L 69.0 28.0 L 68.0 28.0 L 67.0 28.0 L 66.33333333333333 28.333333333333332 L 66.0 29.0 L 66.33333333333333 29.666666666666668 L 67.0 30.0 L 68.0 30.0 L 69.0 30.0 L 70.0 30.0 L 71.0 30.0 L 72.0 30.333333333333332 L 73.0 30.666666666666668 L 74.0 31.0 L 75.0 31.0 L 76.0 31.333333333333332 L 77.0 31.666666666666668 L 78.0 32.333333333333336 L 79.0 32.666666666666664 L 80.0 33.333333333333336 L 81.0 33.666666666666664 L 82.0 34.333333333333336 L 83.0 34.666666666666664 L 84.0 35.333333333333336 L 85.0 36.0 L 86.0 36.666666666666664 L 87.0 37.333333333333336 L 87.5 37.5 Z" stroke="none" fill="rgb(175,175,174)" />
<path d="M 88.5 84.0 L 89.0 83.66666666666667 L 90.0 83.0 L 91.0 82.0 L 91.66666666666667 81.0 L 92.0 80.0 L 92.0 79.0 L 92.0 78.0 L 92.0 77.0 L 92.0 76.0 L 92.0 75.0 L 91.66666666666667 74.0 L 91.0 73.0 L 90.0 72.0 L 89.0 71.33333333333333 L 88.0 71.0 L 87.0 71.0 L 86.0 71.0 L 85.0 71.0 L 84.0 71.0 L 83.0 71.33333333333333 L 82.0 72.0 L 81.0 73.0 L 80.33333333333333 74.0 L 80.0 75.0 L 80.0 76.0 L 80.0 77.0 L 80.0 78.0 L 80.0 79.0 L 80.0 80.0 L 80.33333333333333 81.0 L 81.0 82.0 L 82.0 83.0 L 83.0 83.66666666666667 L 84.0 84.0 L 85.0 84.0 L 86.0 84.0 L 87.0 84.0 L 87.5 84.0 Z" stroke="none" fill="rgb(49,45,45)" />
<path d="M 42.5 84.0 L 43.0 84.0 L 44.0 84.0 L 45.0 83.66666666666667 L 46.0 83.0 L 47.0 82.0 L 47.666666666666664 81.0 L 48.0 80.0 L 48.0 79.0 L 48.0 78.0 L 48.0 77.0 L 48.0 76.0 L 48.0 75.0 L 47.666666666666664 74.0 L 47.0 73.0 L 46.0 72.0 L 45.0 71.33333333333333 L 44.0 71.0 L 43.0 71.0 L 42.0 71.0 L 41.0 71.0 L 40.0 71.33333333333333 L 39.0 71.66666666666667 L 38.0 72.33333333333333 L 37.0 73.0 L 36.333333333333336 74.0 L 36.0 75.0 L 36.0 76.0 L 36.0 77.0 L 36.0 78.0 L 36.0 79.0 L 36.0 80.0 L 36.333333333333336 81.0 L 37.0 82.0 L 38.0 83.0 L 39.0 83.66666666666667 L 40.0 84.0 L 41.0 84.0 L 41.5 84.0 Z" stroke="none" fill="rgb(49,45,45)" />
<path d="M 18.5 92.5 L 19.0 93.0 L 20.0 93.66666666666667 L 21.0 94.0 L 21.666666666666668 93.66666666666667 L 22.0 93.0 L 22.0 92.0 L 22.0 91.0 L 21.666666666666668 90.0 L 21.333333333333332 89.0 L 21.0 88.0 L 21.0 87.0 L 21.0 86.0 L 20.666666666666668 85.0 L 20.333333333333332 84.0 L 20.0 83.0 L 20.0 82.0 L 20.0 81.0 L 20.0 80.0 L 20.0 79.0 L 20.0 78.0 L 20.0 77.0 L 20.0 76.0 L 20.0 75.0 L 20.0 74.0 L 19.666666666666668 73.0 L 19.333333333333332 72.0 L 18.666666666666668 71.0 L 18.0 70.33333333333333 L 17.0 70.0 L 16.333333333333332 70.33333333333333 L 15.666666666666666 71.0 L 15.333333333333334 72.0 L 14.666666666666666 73.0 L 14.333333333333334 74.0 L 14.0 75.0 L 14.0 76.0 L 14.0 77.0 L 14.0 78.0 L 14.0 79.0 L 14.0 80.0 L 14.0 81.0 L 14.0 82.0 L 14.0 83.0 L 14.0 84.0 L 14.0 85.0 L 14.333333333333334 86.0 L 14.666666666666666 87.0 L 15.333333333333334 88.0 L 15.666666666666666 89.0 L 16.333333333333332 90.0 L 17.0 91.0 L 17.5 91.5 Z" stroke="none" fill="rgb(238,195,145)" />
<path d="M 110.5 91.5 L 111.0 91.0 L 111.66666666666667 90.0 L 112.33333333333333 89.0 L 112.66666666666667 88.0 L 113.33333333333333 87.0 L 113.66666666666667 86.0 L 114.0 85.0 L 114.0 84.0 L 114.0 83.0 L 114.0 82.0 L 114.0 81.0 L 114.0 80.0 L 114.0 79.0 L 114.0 78.0 L 114.0 77.0 L 114.0 76.0 L 114.0 75.0 L 113.66666666666667 74.0 L 113.33333333333333 73.0 L 112.66666666666667 72.0 L 112.33333333333333 71.0 L 111.66666666666667 70.33333333333333 L 111.0 70.0 L 110.33333333333333 70.33333333333333 L 109.66666666666667 71.0 L 109.33333333333333 72.0 L 108.66666666666667 73.0 L 108.33333333333333 74.0 L 108.0 75.0 L 108.0 76.0 L 108.0 77.0 L 108.0 78.0 L 108.0 79.0 L 108.0 80.0 L 108.0 81.0 L 108.0 82.0 L 108.0 83.0 L 108.0 84.0 L 107.66666666666667 85.0 L 107.33333333333333 86.0 L 107.0 87.0 L 107.0 88.0 L 107.0 89.0 L 106.66666666666667 90.0 L 106.33333333333333 91.0 L 106.0 92.0 L 106.0 93.0 L 106.33333333333333 93.66666666666667 L 107.0 94.0 L 108.0 93.66666666666667 L 109.0 93.0 L 109.5 92.5 Z" stroke="none" fill="rgb(238,195,145)" />
<path d="M 81.5 68.0 L 82.0 67.66666666666667 L 83.0 67.33333333333333 L 84.0 67.0 L 85.0 67.0 L 86.0 67.0 L 87.0 67.0 L 88.0 67.0 L 89.0 67.0 L 90.0 67.0 L 91.0 67.33333333333333 L 92.0 67.66666666666667 L 93.0 68.0 L 94.0 68.0 L 95.0 67.66666666666667 L 95.66666666666667 67.0 L 96.0 66.0 L 95.66666666666667 65.0 L 95.0 64.0 L 94.0 63.333333333333336 L 93.0 62.666666666666664 L 92.0 62.333333333333336 L 91.0 62.0 L 90.0 62.0 L 89.0 62.0 L 88.0 62.0 L 87.0 62.0 L 86.0 62.0 L 85.0 62.0 L 84.0 62.0 L 83.0 62.0 L 82.0 62.0 L 81.0 62.333333333333336 L 80.0 62.666666666666664 L 79.0 63.333333333333336 L 78.0 64.0 L 77.0 65.0 L 76.33333333333333 66.0 L 76.33333333333333 67.0 L 77.0 67.66666666666667 L 78.0 68.0 L 79.0 68.0 L 80.0 68.0 L 80.5 68.0 Z" stroke="none" fill="rgb(158,158,158)" />
<path d="M 39.5 67.0 L 40.0 67.0 L 41.0 67.0 L 42.0 67.0 L 43.0 67.0 L 44.0 67.0 L 45.0 67.0 L 46.0 67.0 L 47.0 67.33333333333333 L 48.0 67.66666666666667 L 49.0 68.0 L 50.0 68.0 L 51.0 67.66666666666667 L 51.666666666666664 67.0 L 52.0 66.0 L 51.666666666666664 65.0 L 51.0 64.0 L 50.0 63.333333333333336 L 49.0 62.666666666666664 L 48.0 62.333333333333336 L 47.0 62.0 L 46.0 62.0 L 45.0 62.0 L 44.0 62.0 L 43.0 62.0 L 42.0 62.0 L 41.0 62.0 L 40.0 62.0 L 39.0 62.0 L 38.0 62.0 L 37.0 62.333333333333336 L 36.0 62.666666666666664 L 35.0 63.333333333333336 L 34.0 64.0 L 33.333333333333336 65.0 L 33.0 66.0 L 33.0 67.0 L 33.333333333333336 67.66666666666667 L 34.0 68.0 L 35.0 68.0 L 36.0 68.0 L 37.0 68.0 L 38.0 67.66666666666667 L 38.5 67.5 Z" stroke="none" fill="rgb(158,158,158)" />
<path d="M 53.5 42.0 L 54.0 41.666666666666664 L 55.0 41.333333333333336 L 56.0 41.0 L 57.0 40.666666666666664 L 58.0 40.333333333333336 L 59.0 39.666666666666664 L 60.0 39.0 L 61.0 38.0 L 61.666666666666664 37.0 L 62.0 36.0 L 61.666666666666664 35.333333333333336 L 61.0 35.0 L 60.0 35.0 L 59.0 35.0 L 58.0 35.0 L 57.0 35.0 L 56.0 35.0 L 55.0 35.333333333333336 L 54.0 35.666666666666664 L 53.0 36.0 L 52.0 36.333333333333336 L 51.0 36.666666666666664 L 50.0 37.333333333333336 L 49.0 37.666666666666664 L 48.0 38.333333333333336 L 47.0 38.666666666666664 L 46.0 39.333333333333336 L 45.0 39.666666666666664 L 44.0 40.333333333333336 L 43.333333333333336 41.0 L 43.0 42.0 L 43.333333333333336 42.666666666666664 L 44.0 43.0 L 45.0 43.0 L 46.0 43.0 L 47.0 43.0 L 48.0 43.0 L 49.0 42.666666666666664 L 50.0 42.333333333333336 L 51.0 42.0 L 52.0 42.0 L 52.5 42.0 Z" stroke="none" fill="rgb(158,158,158)" />
<path d="M 71.5 40.0 L 72.0 40.333333333333336 L 73.0 40.666666666666664 L 74.0 41.0 L 75.0 41.0 L 76.0 41.333333333333336 L 77.0 41.666666666666664 L 78.0 42.0 L 79.0 42.0 L 80.0 42.0 L 81.0 42.333333333333336 L 82.0 42.666666666666664 L 83.0 43.0 L 84.0 43.0 L 84.66666666666667 42.666666666666664 L 84.66666666666667 42.0 L 84.0 41.0 L 83.0 40.333333333333336 L 82.0 39.666666666666664 L 81.0 39.0 L 80.0 38.333333333333336 L 79.0 37.666666666666664 L 78.0 37.333333333333336 L 77.0 37.0 L 76.0 36.666666666666664 L 75.0 36.333333333333336 L 74.0 36.0 L 73.0 35.666666666666664 L 72.0 35.333333333333336 L 71.0 35.0 L 70.0 35.0 L 69.0 35.0 L 68.0 35.0 L 67.0 35.0 L 66.33333333333333 35.333333333333336 L 66.0 36.0 L 66.33333333333333 37.0 L 67.0 38.0 L 68.0 38.666666666666664 L 69.0 39.333333333333336 L 70.0 39.666666666666664 L 70.5 40.0 Z" stroke="none" fill="rgb(158,158,158)" />
<path d="M 49.0 98.5 L 49.333333333333336 98.0 L 50.0 97.0 L 50.666666666666664 96.0 L 51.0 95.0 L 51.0 94.0 L 50.666666666666664 93.33333333333333 L 50.0 93.0 L 49.0 93.33333333333333 L 48.0 94.0 L 47.0 95.0 L 46.0 96.0 L 45.0 97.0 L 44.0 98.0 L 43.0 99.0 L 42.0 100.0 L 41.0 101.0 L 40.0 102.0 L 39.333333333333336 103.0 L 39.0 104.0 L 39.333333333333336 104.66666666666667 L 40.0 105.0 L 41.0 105.0 L 42.0 105.0 L 43.0 104.66666666666667 L 44.0 104.0 L 45.0 103.0 L 46.0 102.0 L 47.0 101.0 L 48.0 100.0 L 48.5 99.5 Z" stroke="none" fill="rgb(237,189,130)" />
<path d="M 39.5 90.0 L 40.0 90.0 L 41.0 90.0 L 42.0 90.0 L 43.0 90.0 L 44.0 90.0 L 45.0 90.0 L 46.0 90.0 L 47.0 90.0 L 48.0 89.66666666666667 L 49.0 89.0 L 49.666666666666664 88.0 L 50.0 87.0 L 49.666666666666664 86.33333333333333 L 49.0 86.0 L 48.0 86.0 L 47.0 86.33333333333333 L 46.0 86.66666666666667 L 45.0 87.0 L 44.0 87.0 L 43.0 87.0 L 42.0 87.0 L 41.0 87.0 L 40.0 86.66666666666667 L 39.0 86.33333333333333 L 38.0 86.0 L 37.0 86.0 L 36.0 86.0 L 35.333333333333336 86.33333333333333 L 35.0 87.0 L 35.333333333333336 88.0 L 36.0 89.0 L 37.0 89.66666666666667 L 38.0 90.0 L 38.5 90.0 Z" stroke="none" fill="rgb(237,189,130)" />
<path d="M 85.5 90.0 L 86.0 90.0 L 87.0 90.0 L 88.0 90.0 L 89.0 90.0 L 90.0 90.0 L 91.0 89.66666666666667 L 92.0 89.0 L 92.66666666666667 88.0 L 93.0 87.0 L 92.66666666666667 86.33333333333333 L 92.0 86.0 L 91.0 86.0 L 90.0 86.0 L 89.0 86.33333333333333 L 88.0 86.66666666666667 L 87.0 87.0 L 86.0 87.0 L 85.0 87.0 L 84.0 87.0 L 83.0 87.0 L 82.0 86.66666666666667 L 81.0 86.33333333333333 L 80.0 86.0 L 79.0 86.0 L 78.33333333333333 86.33333333333333 L 78.0 87.0 L 78.33333333333333 88.0 L 79.0 89.0 L 80.0 89.66666666666667 L 81.0 90.0 L 82.0 90.0 L 83.0 90.0 L 84.0 90.0 L 84.5 90.0 Z" stroke="none" fill="rgb(237,189,130)" />
<path d="M 85.5 104.5 L 86.0 104.66666666666667 L 87.0 105.0 L 88.0 105.0 L 88.66666666666667 104.66666666666667 L 89.0 104.0 L 88.66666666666667 103.0 L 88.0 102.0 L 87.0 101.0 L 86.0 100.0 L 85.0 99.0 L 84.0 98.0 L 83.0 97.0 L 82.0 96.0 L 81.0 95.0 L 80.0 94.0 L 79.0 93.33333333333333 L 78.0 93.0 L 77.33333333333333 93.33333333333333 L 77.0 94.0 L 77.0 95.0 L 77.33333333333333 96.0 L 78.0 97.0 L 79.0 98.0 L 80.0 99.0 L 81.0 100.0 L 82.0 101.0 L 83.0 102.0 L 84.0 103.0 L 84.5 103.5 Z" stroke="none" fill="rgb(237,189,130)" />
<path d="M 58.5 92.5 L 59.0 93.0 L 60.0 94.0 L 61.0 94.66666666666667 L 62.0 95.0 L 63.0 95.0 L 64.0 95.0 L 65.0 95.0 L 66.0 95.0 L 67.0 94.66666666666667 L 68.0 94.0 L 69.0 93.0 L 69.66666666666667 92.0 L 70.0 91.0 L 69.66666666666667 90.33333333333333 L 69.0 90.0 L 68.0 90.0 L 67.0 90.0 L 66.0 90.0 L 65.0 90.0 L 64.0 90.0 L 63.0 90.0 L 62.0 90.0 L 61.0 90.0 L 60.0 90.0 L 59.0 90.0 L 58.333333333333336 90.33333333333333 L 58.0 91.0 L 58.0 91.5 Z" stroke="none" fill="rgb(219,166,137)" />
<path d="M 17.5 50.0 L 17.666666666666668 49.666666666666664 L 18.0 49.0 L 17.666666666666668 48.333333333333336 L 17.333333333333332 48.333333333333336 L 17.0 49.0 L 17.0 49.5 Z" stroke="none" fill="rgb(0,0,0)" />
<path d="M 20.5 38.0 L 20.666666666666668 37.666666666666664 L 20.666666666666668 37.333333333333336 L 20.333333333333332 37.333333333333336 L 20.0 37.5 Z" stroke="none" fill="rgb(0,0,0)" />
<path d="M 17.5 70.0 L 17.666666666666668 69.66666666666667 L 17.666666666666668 69.33333333333333 L 17.333333333333332 69.33333333333333 L 17.0 69.5 Z" stroke="none" fill="rgb(0,0,0)" />
<path d="M 110.5 70.0 L 110.66666666666667 69.66666666666667 L 110.66666666666667 69.33333333333333 L 110.33333333333333 69.33333333333333 L 110.0 69.5 Z" stroke="none" fill="rgb(0,0,0)" />
</svg>
