<?xml version="1.0" encoding="UTF-8" standalone="no"?>
<!DOCTYPE svg PUBLIC "-//W3C//DTD SVG 1.1//EN"
"http://www.w3.org/Graphics/SVG/1.1/DTD/svg11.dtd">
<svg width="128" height="128" xmlns="http://www.w3.org/2000/svg" version="1.1">
<path d="M 26.5 128.0 L 27.0 128.0 L 28.0 128.0 L 29.0 128.0 L 30.0 128.0 L 31.0 128.0 L 32.0 128.0 L 33.0 128.0 L 34.0 128.0 L 35.0 128.0 L 36.0 128.0 L 37.0 128.0 L 38.0 128.0 L 39.0 128.0 L 40.0 128.0 L 41.0 128.0 L 42.0 128.0 L 43.0 128.0 L 44.0 128.0 L 45.0 128.0 L 46.0 128.0 L 47.0 128.0 L 48.0 128.0 L 49.0 128.0 L 50.0 128.0 L 51.0 128.0 L 52.0 128.0 L 53.0 128.0 L 54.0 128.0 L 55.0 128.0 L 56.0 128.0 L 57.0 128.0 L 58.0 128.0 L 59.0 128.0 L 60.0 128.0 L 61.0 128.0 L 62.0 128.0 L 63.0 128.0 L 64.0 128.0 L 65.0 128.0 L 66.0 128.0 L 67.0 128.0 L 68.0 128.0 L 69.0 128.0 L 70.0 128.0 L 71.0 128.0 L 72.0 128.0 L 73.0 128.0 L 74.0 128.0 L 75.0 128.0 L 76.0 128.0 L 77.0 128.0 L 78.0 128.0 L 79.0 128.0 L 80.0 128.0 L 81.0 128.0 L 82.0 128.0 L 83.0 128.0 L 84.0 128.0 L 85.0 128.0 L 86.0 128.0 L 87.0 128.0 L 88.0 128.0 L 89.0 128.0 L 90.0 128.0 L 91.0 128.0 L 92.0 128.0 L 93.0 128.0 L 94.0 128.0 L 95.0 128.0 L 96.0 128.0 L 97.0 128.0 L 98.0 128.0 L 99.0 128.0 L 100.0 128.0 L 101.0 128.0 L 102.0 128.0 L 103.0 128.0 L 104.0 128.0 L 105.0 128.0 L 106.0 128.0 L 107.0 128.0 L 108.0 128.0 L 109.0 128.0 L 110.0 128.0 L 111.0 128.0 L 112.0 128.0 L 113.0 128.0 L 114.0 128.0 L 115.0 128.0 L 116.0 128.0 L 117.0 128.0 L 118.0 128.0 L 119.0 128.0 L 120.0 128.0 L 121.0 128.0 L 122.0 128.0 L 123.0 128.0 L 124.0 128.0 L 125.0 128.0 L 126.0 128.0 L 127.0 128.0 L 127.66666666666667 127.66666666666667 L 128.0 127.0 L 128.0 126.0 L 128.0 125.0 L 128.0 124.0 L 128.0 123.0 L 128.0 122.0 L 128.0 121.0 L 128.0 120.0 L 128.0 119.0 L 128.0 118.0 L 128.0 117.0 L 128.0 116.0 L 128.0 115.0 L 128.0 114.0 L 128.0 113.0 L 128.0 112.0 L 128.0 111.0 L 128.0 110.0 L 128.0 109.0 L 128.0 108.0 L 128.0 107.0 L 128.0 106.0 L 128.0 105.0 L 128.0 104.0 L 128.0 103.0 L 128.0 102.0 L 128.0 101.0 L 128.0 100.0 L 128.0 99.0 L 128.0 98.0 L 128.0 97.0 L 128.0 96.0 L 128.0 95.0 L 128.0 94.0 L 128.0 93.0 L 128.0 92.0 L 128.0 91.0 L 128.0 90.0 L 128.0 89.0 L 128.0 88.0 L 128.0 87.0 L 128.0 86.0 L 128.0 85.0 L 128.0 84.0 L 128.0 83.0 L 128.0 82.0 L 128.0 81.0 L 128.0 80.0 L 128.0 79.0 L 128.0 78.0 L 128.0 77.0 L 128.0 76.0 L 128.0 75.0 L 128.0 74.0 L 128.0 73.0 L 128.0 72.0 L 128.0 71.0 L 128.0 70.0 L 128.0 69.0 L 128.0 68.0 L 128.0 67.0 L 128.0 66.0 L 128.0 65.0 L 128.0 64.0 L 128.0 63.0 L 128.0 62.0 L 128.0 61.0 L 128.0 60.0 L 128.0 59.0 L 128.0 58.0 L 128.0 57.0 L 128.0 56.0 L 128.0 55.0 L 128.0 54.0 L 128.0 53.0 L 128.0 52.0 L 128.0 51.0 L 128.0 50.0 L 128.0 49.0 L 128.0 48.0 L 128.0 47.0 L 128.0 46.0 L 128.0 45.0 L 128.0 44.0 L 128.0 43.0 L 128.0 42.0 L 128.0 41.0 L 128.0 40.0 L 128.0 39.0 L 128.0 38.0 L 128.0 37.0 L 128.0 36.0 L 128.0 35.0 L 128.0 34.0 L 128.0 33.0 L 128.0 32.0 L 128.0 31.0 L 128.0 30.0 L 128.0 29.0 L 128.0 28.0 L 128.0 27.0 L 128.0 26.0 L 128.0 25.0 L 128.0 24.0 L 128.0 23.0 L 128.0 22.0 L 128.0 21.0 L 128.0 20.0 L 128.0 19.0 L 128.0 18.0 L 128.0 17.0 L 128.0 16.0 L 128.0 15.0 L 128.0 14.0 L 128.0 13.0 L 128.0 12.0 L 128.0 11.0 L 128.0 10.0 L 128.0 9.0 L 128.0 8.0 L 128.0 7.0 L 128.0 6.0 L 128.0 5.0 L 128.0 4.0 L 128.0 3.0 L 128.0 2.0 L 128.0 1.0 L 127.66666666666667 0.3333333333333333 L 127.0 0.0 L 126.0 0.0 L 125.0 0.0 L 124.0 0.0 L 123.0 0.0 L 122.0 0.0 L 121.0 0.0 L 120.0 0.0 L 119.0 0.0 L 118.0 0.0 L 117.0 0.0 L 116.0 0.0 L 115.0 0.0 L 114.0 0.0 L 113.0 0.0 L 112.0 0.0 L 111.0 0.0 L 110.0 0.0 L 109.0 0.0 L 108.0 0.0 L 107.0 0.0 L 106.0 0.0 L 105.0 0.0 L 104.0 0.0 L 103.0 0.0 L 102.0 0.0 L 101.0 0.0 L 100.0 0.0 L 99.0 0.0 L 98.0 0.0 L 97.0 0.0 L 96.0 0.0 L 95.0 0.0 L 94.0 0.0 L 93.0 0.0 L 92.0 0.0 L 91.0 0.0 L 90.0 0.0 L 89.0 0.0 L 88.0 0.0 L 87.0 0.0 L 86.0 0.0 L 85.0 0.0 L 84.0 0.0 L 83.0 0.0 L 82.0 0.0 L 81.0 0.0 L 80.0 0.0 L 79.0 0.0 L 78.0 0.0 L 77.0 0.0 L 76.0 0.0 L 75.0 0.0 L 74.0 0.0 L 73.0 0.0 L 72.0 0.0 L 71.0 0.0 L 70.0 0.0 L 69.0 0.0 L 68.0 0.0 L 67.0 0.0 L 66.0 0.0 L 65.0 0.0 L 64.0 0.0 L 63.0 0.0 L 62.0 0.0 L 61.0 0.0 L 60.0 0.0 L 59.0 0.0 L 58.0 0.0 L 57.0 0.0 L 56.0 0.0 L 55.0 0.0 L 54.0 0.0 L 53.0 0.0 L 52.0 0.0 L 51.0 0.0 L 50.0 0.0 L 49.0 0.0 L 48.0 0.0 L 47.0 0.0 L 46.0 0.0 L 45.0 0.0 L 44.0 0.0 L 43.0 0.0 L 42.0 0.0 L 41.0 0.0 L 40.0 0.0 L 39.0 0.0 L 38.0 0.0 L 37.0 0.0 L 36.0 0.0 L 35.0 0.0 L 34.0 0.0 L 33.0 0.0 L 32.0 0.0 L 31.0 0.0 L 30.0 0.0 L 29.0 0.0 L 28.0 0.0 L 27.0 0.0 L 26.0 0.0 L 25.0 0.0 L 24.0 0.0 L 23.0 0.0 L 22.0 0.0 L 21.0 0.0 L 20.0 0.0 L 19.0 0.0 L 18.0 0.0 L 17.0 0.0 L 16.0 0.0 L 15.0 0.0 L 14.0 0.0 L 13.0 0.0 L 12.0 0.0 L 11.0 0.0 L 10.0 0.0 L 9.0 0.0 L 8.0 0.0 L 7.0 0.0 L 6.0 0.0 L 5.0 0.0 L 4.0 0.0 L 3.0 0.0 L 2.0 0.0 L 1.0 0.0 L 0.3333333333333333 0.3333333333333333 L 0.0 1.0 L 0.0 2.0 L 0.0 3.0 L 0.0 4.0 L 0.0 5.0 L 0.0 6.0 L 0.0 7.0 L 0.0 8.0 L 0.0 9.0 L 0.0 10.0 L 0.0 11.0 L 0.0 12.0 L 0.0 13.0 L 0.0 14.0 L 0.0 15.0 L 0.0 16.0 L 0.0 17.0 L 0.0 18.0 L 0.0 19.0 L 0.0 20.0 L 0.0 21.0 L 0.0 22.0 L 0.0 23.0 L 0.0 24.0 L 0.0 25.0 L 0.0 26.0 L 0.0 27.0 L 0.0 28.0 L 0.0 29.0 L 0.0 30.0 L 0.0 31.0 L 0.0 32.0 L 0.0 33.0 L 0.0 34.0 L 0.0 35.0 L 0.0 36.0 L 0.0 37.0 L 0.0 38.0 L 0.0 39.0 L 0.0 40.0 L 0.0 41.0 L 0.0 42.0 L 0.0 43.0 L 0.0 44.0 L 0.0 45.0 L 0.0 46.0 L 0.0 47.0 L 0.0 48.0 L 0.0 49.0 L 0.0 50.0 L 0.0 51.0 L 0.0 52.0 L 0.0 53.0 L 0.0 54.0 L 0.0 55.0 L 0.0 56.0 L 0.0 57.0 L 0.0 58.0 L 0.0 59.0 L 0.0 60.0 L 0.0 61.0 L 0.0 62.0 L 0.0 63.0 L 0.0 64.0 L 0.0 65.0 L 0.0 66.0 L 0.0 67.0 L 0.0 68.0 L 0.0 69.0 L 0.0 70.0 L 0.0 71.0 L 0.0 72.0 L 0.0 73.0 L 0.0 74.0 L 0.0 75.0 L 0.0 76.0 L 0.0 77.0 L 0.0 78.0 L 0.0 79.0 L 0.0 80.0 L 0.0 81.0 L 0.0 82.0 L 0.0 83.0 L 0.0 84.0 L 0.0 85.0 L 0.0 86.0 L 0.0 87.0 L 0.0 88.0 L 0.0 89.0 L 0.0 90.0 L 0.0 91.0 L 0.0 92.0 L 0.0 93.0 L 0.0 94.0 L 0.0 95.0 L 0.0 96.0 L 0.0 97.0 L 0.0 98.0 L 0.0 99.0 L 0.0 100.0 L 0.0 101.0 L 0.0 102.0 L 0.0 103.0 L 0.0 104.0 L 0.0 105.0 L 0.0 106.0 L 0.0 107.0 L 0.0 108.0 L 0.0 109.0 L 0.0 110.0 L 0.0 111.0 L 0.0 112.0 L 0.0 113.0 L 0.0 114.0 L 0.0 115.0 L 0.0 116.0 L 0.0 117.0 L 0.0 118.0 L 0.0 119.0 L 0.0 120.0 L 0.0 121.0 L 0.0 122.0 L 0.0 123.0 L 0.0 124.0 L 0.0 125.0 L 0.0 126.0 L 0.0 127.0 L 0.3333333333333333 127.66666666666667 L 1.0 128.0 L 2.0 128.0 L 3.0 128.0 L 4.0 128.0 L 5.0 128.0 L 6.0 128.0 L 7.0 128.0 L 8.0 128.0 L 9.0 128.0 L 10.0 128.0 L 11.0 128.0 L 12.0 128.0 L 13.0 128.0 L 14.0 128.0 L 15.0 128.0 L 16.0 128.0 L 17.0 128.0 L 18.0 128.0 L 19.0 128.0 L 20.0 128.0 L 21.0 128.0 L 22.0 128.0 L 23.0 128.0 L 24.0 128.0 L 25.0 128.0 L 25.5 128.0 Z" stroke="none" fill="rgb(0,0,0)" />
<path d="M 88.5 123.5 L 89.0 123.0 L 90.0 122.0 L 91.0 121.0 L 91.66666666666667 120.0 L 92.33333333333333 119.0 L 92.66666666666667 118.0 L 93.0 117.0 L 93.0 116.0 L 93.0 115.0 L 93.0 114.0 L 93.0 113.0 L 93.0 112.0 L 93.0 111.0 L 93.0 110.0 L 93.0 109.0 L 93.0 108.0 L 93.0 107.0 L 93.0 106.0 L 93.0 105.0 L 93.0 104.0 L 93.0 103.0 L 93.0 102.0 L 93.0 101.0 L 93.0 100.0 L 93.0 99.0 L 93.0 98.0 L 93.0 97.0 L 93.0 96.0 L 93.0 95.0 L 93.0 94.0 L 93.0 93.0 L 93.0 92.0 L 93.0 91.0 L 93.0 90.0 L 93.0 89.0 L 93.0 88.0 L 93.0 87.0 L 93.0 86.0 L 93.0 85.0 L 93.0 84.0 L 93.0 83.0 L 93.0 82.0 L 93.0 81.0 L 93.0 80.0 L 93.0 79.0 L 93.0 78.0 L 93.0 77.0 L 93.0 76.0 L 93.0 75.0 L 93.0 74.0 L 93.0 73.0 L 93.0 72.0 L 93.0 71.0 L 93.0 70.0 L 93.0 69.0 L 93.0 68.0 L 93.0 67.0 L 93.0 66.0 L 93.0 65.0 L 93.0 64.0 L 93.0 63.0 L 93.0 62.0 L 93.0 61.0 L 93.0 60.0 L 93.0 59.0 L 93.0 58.0 L 93.0 57.0 L 93.0 56.0 L 93.0 55.0 L 93.0 54.0 L 93.0 53.0 L 93.0 52.0 L 93.0 51.0 L 93.0 50.0 L 93.0 49.0 L 93.0 48.0 L 93.0 47.0 L 93.0 46.0 L 93.0 45.0 L 93.0 44.0 L 93.0 43.0 L 93.0 42.0 L 93.0 41.0 L 93.0 40.0 L 93.0 39.0 L 93.0 38.0 L 93.0 37.0 L 93.0 36.0 L 93.0 35.0 L 93.0 34.0 L 93.0 33.0 L 93.0 32.0 L 93.0 31.0 L 93.0 30.0 L 93.0 29.0 L 93.0 28.0 L 93.0 27.0 L 93.0 26.0 L 93.0 25.0 L 93.0 24.0 L 93.0 23.0 L 93.0 22.0 L 93.0 21.0 L 93.0 20.0 L 93.0 19.0 L 93.0 18.0 L 93.0 17.0 L 93.0 16.0 L 93.0 15.0 L 93.0 14.0 L 93.0 13.0 L 93.0 12.0 L 93.0 11.0 L 92.66666666666667 10.0 L 92.33333333333333 9.0 L 91.66666666666667 8.0 L 91.0 7.0 L 90.0 6.0 L 89.0 5.0 L 88.0 4.333333333333333 L 87.0 4.0 L 86.0 4.0 L 85.0 4.0 L 84.0 4.0 L 83.0 4.0 L 82.0 4.0 L 81.0 4.0 L 80.0 4.0 L 79.0 4.0 L 78.0 4.0 L 77.0 4.0 L 76.0 4.0 L 75.0 4.0 L 74.0 4.0 L 73.0 4.0 L 72.0 4.0 L 71.0 4.0 L 70.0 4.0 L 69.0 4.0 L 68.0 4.0 L 67.0 4.0 L 66.0 4.0 L 65.0 4.0 L 64.0 4.0 L 63.0 4.0 L 62.0 4.0 L 61.0 4.0 L 60.0 4.0 L 59.0 4.0 L 58.0 4.0 L 57.0 4.0 L 56.0 4.0 L 55.0 4.0 L 54.0 4.0 L 53.0 4.0 L 52.0 4.0 L 51.0 4.0 L 50.0 4.0 L 49.0 4.0 L 48.0 4.0 L 47.0 4.0 L 46.0 4.0 L 45.0 4.0 L 44.0 4.0 L 43.0 4.0 L 42.0 4.0 L 41.0 4.0 L 40.0 4.333333333333333 L 39.0 5.0 L 38.0 6.0 L 37.0 7.0 L 36.333333333333336 8.0 L 35.666666666666664 9.0 L 35.333333333333336 10.0 L 35.0 11.0 L 35.0 12.0 L 35.0 13.0 L 35.0 14.0 L 35.0 15.0 L 35.0 16.0 L 35.0 17.0 L 35.0 18.0 L 35.0 19.0 L 35.0 20.0 L 35.0 21.0 L 35.0 22.0 L 35.0 23.0 L 35.0 24.0 L 35.0 25.0 L 35.0 26.0 L 35.0 27.0 L 35.0 28.0 L 35.0 29.0 L 35.0 30.0 L 35.0 31.0 L 35.0 32.0 L 35.0 33.0 L 35.0 34.0 L 35.0 35.0 L 35.0 36.0 L 35.0 37.0 L 35.0 38.0 L 35.0 39.0 L 35.0 40.0 L 35.0 41.0 L 35.0 42.0 L 35.0 43.0 L 35.0 44.0 L 35.0 45.0 L 35.0 46.0 L 35.0 47.0 L 35.0 48.0 L 35.0 49.0 L 35.0 50.0 L 35.0 51.0 L 35.0 52.0 L 35.0 53.0 L 35.0 54.0 L 35.0 55.0 L 35.0 56.0 L 35.0 57.0 L 35.0 58.0 L 35.0 59.0 L 35.0 60.0 L 35.0 61.0 L 35.0 62.0 L 35.0 63.0 L 35.0 64.0 L 35.0 65.0 L 35.0 66.0 L 35.0 67.0 L 35.0 68.0 L 35.0 69.0 L 35.0 70.0 L 35.0 71.0 L 35.0 72.0 L 35.0 73.0 L 35.0 74.0 L 35.0 75.0 L 35.0 76.0 L 35.0 77.0 L 35.0 78.0 L 35.0 79.0 L 35.0 80.0 L 35.0 81.0 L 35.0 82.0 L 35.0 83.0 L 35.0 84.0 L 35.0 85.0 L 35.0 86.0 L 35.0 87.0 L 35.0 88.0 L 35.0 89.0 L 35.0 90.0 L 35.0 91.0 L 35.0 92.0 L 35.0 93.0 L 35.0 94.0 L 35.0 95.0 L 35.0 96.0 L 35.0 97.0 L 35.0 98.0 L 35.0 99.0 L 35.0 100.0 L 35.0 101.0 L 35.0 102.0 L 35.0 103.0 L 35.0 104.0 L 35.0 105.0 L 35.0 106.0 L 35.0 107.0 L 35.0 108.0 L 35.0 109.0 L 35.0 110.0 L 35.0 111.0 L 35.0 112.0 L 35.0 113.0 L 35.0 114.0 L 35.0 115.0 L 35.0 116.0 L 35.0 117.0 L 35.333333333333336 118.0 L 35.666666666666664 119.0 L 36.333333333333336 120.0 L 37.0 121.0 L 38.0 122.0 L 39.0 123.0 L 40.0 123.66666666666667 L 41.0 124.0 L 42.0 124.0 L 43.0 124.0 L 44.0 124.0 L 45.0 124.0 L 46.0 124.0 L 47.0 124.0 L 48.0 124.0 L 49.0 124.0 L 50.0 124.0 L 51.0 124.0 L 52.0 124.0 L 53.0 124.0 L 54.0 124.0 L 55.0 124.0 L 56.0 124.0 L 57.0 124.0 L 58.0 124.0 L 59.0 124.0 L 60.0 124.0 L 61.0 124.0 L 62.0 124.0 L 63.0 124.0 L 64.0 124.0 L 65.0 124.0 L 66.0 124.0 L 67.0 124.0 L 68.0 124.0 L 69.0 124.0 L 70.0 124.0 L 71.0 124.0 L 72.0 124.0 L 73.0 124.0 L 74.0 124.0 L 75.0 124.0 L 76.0 124.0 L 77.0 124.0 L 78.0 124.0 L 79.0 124.0 L 80.0 124.0 L 81.0 124.0 L 82.0 124.0 L 83.0 124.0 L 84.0 124.0 L 85.0 124.0 L 86.0 124.0 L 87.0 124.0 L 87.5 124.0 Z" stroke="none" fill="rgb(66,66,66)" />
<path d="M 68.5 14.5 L 69.0 14.666666666666666 L 70.0 15.333333333333334 L 71.0 16.0 L 72.0 17.0 L 73.0 18.0 L 74.0 19.0 L 75.0 20.0 L 76.0 21.0 L 77.0 22.0 L 78.0 22.666666666666668 L 79.0 23.0 L 79.66666666666667 22.666666666666668 L 80.0 22.0 L 80.0 21.0 L 80.0 20.0 L 79.66666666666667 19.0 L 79.33333333333333 18.0 L 78.66666666666667 17.0 L 78.0 16.0 L 77.0 15.0 L 76.0 14.0 L 75.0 13.0 L 74.0 12.333333333333334 L 73.0 11.666666666666666 L 72.0 11.333333333333334 L 71.0 10.666666666666666 L 70.0 10.333333333333334 L 69.0 10.0 L 68.0 10.0 L 67.0 10.0 L 66.0 10.0 L 65.0 10.0 L 64.0 10.0 L 63.0 10.0 L 62.0 10.0 L 61.0 10.0 L 60.0 10.333333333333334 L 59.0 10.666666666666666 L 58.0 11.0 L 57.0 11.333333333333334 L 56.0 11.666666666666666 L 55.0 12.333333333333334 L 54.0 12.666666666666666 L 53.0 13.333333333333334 L 52.0 14.0 L 51.0 15.0 L 50.0 16.0 L 49.333333333333336 17.0 L 48.666666666666664 18.0 L 48.333333333333336 19.0 L 48.0 20.0 L 48.0 21.0 L 48.0 22.0 L 48.333333333333336 22.666666666666668 L 49.0 23.0 L 50.0 23.333333333333332 L 51.0 23.666666666666668 L 52.0 23.666666666666668 L 53.0 23.0 L 54.0 22.0 L 55.0 21.0 L 55.666666666666664 20.0 L 56.0 19.0 L 56.0 18.0 L 56.333333333333336 17.0 L 57.0 16.333333333333332 L 58.0 15.666666666666666 L 59.0 15.333333333333334 L 60.0 15.0 L 61.0 14.666666666666666 L 62.0 14.333333333333334 L 63.0 14.0 L 64.0 14.0 L 65.0 14.0 L 66.0 14.0 L 67.0 14.0 L 67.5 14.0 Z" stroke="none" fill="rgb(117,117,117)" />
<path d="M 53.5 37.5 L 54.0 38.0 L 55.0 39.0 L 56.0 40.0 L 57.0 41.0 L 58.0 41.666666666666664 L 59.0 42.0 L 60.0 42.333333333333336 L 61.0 42.666666666666664 L 62.0 43.0 L 63.0 43.0 L 64.0 43.0 L 65.0 43.0 L 66.0 43.0 L 67.0 43.0 L 68.0 43.0 L 69.0 42.666666666666664 L 70.0 42.333333333333336 L 71.0 41.666666666666664 L 72.0 41.0 L 73.0 40.0 L 74.0 39.0 L 75.0 38.0 L 75.66666666666667 37.0 L 76.33333333333333 36.0 L 76.66666666666667 35.0 L 77.0 34.0 L 77.0 33.0 L 77.0 32.0 L 77.0 31.0 L 77.0 30.0 L 77.0 29.0 L 77.0 28.0 L 77.0 27.0 L 77.0 26.0 L 76.66666666666667 25.0 L 76.33333333333333 24.0 L 75.66666666666667 23.0 L 75.0 22.0 L 74.0 21.0 L 73.0 20.0 L 72.0 19.0 L 71.0 18.0 L 70.0 17.333333333333332 L 69.0 16.666666666666668 L 68.0 16.333333333333332 L 67.0 16.0 L 66.0 16.0 L 65.0 16.0 L 64.0 16.0 L 63.0 16.0 L 62.0 16.333333333333332 L 61.0 16.666666666666668 L 60.0 17.0 L 59.0 17.333333333333332 L 58.0 17.666666666666668 L 57.0 18.333333333333332 L 56.0 19.0 L 55.0 20.0 L 54.0 21.0 L 53.0 22.0 L 52.333333333333336 23.0 L 51.666666666666664 24.0 L 51.333333333333336 25.0 L 51.0 26.0 L 51.0 27.0 L 51.0 28.0 L 51.0 29.0 L 51.0 30.0 L 51.0 31.0 L 51.0 32.0 L 51.0 33.0 L 51.0 34.0 L 51.333333333333336 35.0 L 52.0 36.0 L 52.5 36.5 Z" stroke="none" fill="rgb(244,67,54)" />
<path d="M 59.5 26.5 L 60.0 26.333333333333332 L 61.0 25.666666666666668 L 62.0 25.333333333333332 L 63.0 24.666666666666668 L 64.0 24.333333333333332 L 65.0 23.666666666666668 L 65.66666666666667 23.0 L 66.0 22.0 L 66.0 21.0 L 65.66666666666667 20.333333333333332 L 65.0 20.0 L 64.0 20.0 L 63.0 20.0 L 62.0 20.0 L 61.0 20.0 L 60.0 20.0 L 59.0 20.333333333333332 L 58.0 21.0 L 57.0 22.0 L 56.0 23.0 L 55.333333333333336 24.0 L 54.666666666666664 25.0 L 54.333333333333336 26.0 L 54.0 27.0 L 54.0 28.0 L 54.0 29.0 L 54.333333333333336 29.666666666666668 L 55.0 30.0 L 56.0 29.666666666666668 L 57.0 29.0 L 58.0 28.0 L 58.5 27.5 Z" stroke="none" fill="rgb(255,129,85)" />
<path d="M 69.5 54.0 L 70.0 54.333333333333336 L 71.0 55.0 L 72.0 56.0 L 73.0 57.0 L 74.0 58.0 L 75.0 59.0 L 76.0 60.0 L 77.0 60.666666666666664 L 78.0 61.0 L 79.0 60.666666666666664 L 79.66666666666667 60.0 L 80.0 59.0 L 80.0 58.0 L 80.0 57.0 L 79.66666666666667 56.0 L 79.33333333333333 55.0 L 78.66666666666667 54.0 L 78.0 53.0 L 77.0 52.0 L 76.0 51.0 L 75.0 50.0 L 74.0 49.0 L 73.0 48.333333333333336 L 72.0 47.666666666666664 L 71.0 47.333333333333336 L 70.0 47.0 L 69.0 47.0 L 68.0 47.0 L 67.0 47.0 L 66.0 47.0 L 65.0 47.0 L 64.0 47.0 L 63.0 47.0 L 62.0 47.0 L 61.0 47.0 L 60.0 47.0 L 59.0 47.333333333333336 L 58.0 47.666666666666664 L 57.0 48.0 L 56.0 48.333333333333336 L 55.0 48.666666666666664 L 54.0 49.333333333333336 L 53.0 50.0 L 52.0 51.0 L 51.0 52.0 L 50.0 53.0 L 49.333333333333336 54.0 L 48.666666666666664 55.0 L 48.333333333333336 56.0 L 48.0 57.0 L 48.0 58.0 L 48.0 59.0 L 48.333333333333336 59.666666666666664 L 49.0 60.0 L 50.0 59.666666666666664 L 51.0 59.0 L 51.666666666666664 58.0 L 52.333333333333336 57.0 L 53.0 56.0 L 54.0 55.0 L 55.0 54.333333333333336 L 56.0 53.666666666666664 L 57.0 53.0 L 58.0 52.333333333333336 L 59.0 52.0 L 60.0 51.666666666666664 L 61.0 51.666666666666664 L 62.0 51.666666666666664 L 63.0 52.0 L 64.0 52.0 L 65.0 52.333333333333336 L 66.0 52.666666666666664 L 67.0 53.0 L 68.0 53.333333333333336 L 68.5 53.5 Z" stroke="none" fill="rgb(117,117,117)" />
<path d="M 57.5 78.5 L 58.0 78.66666666666667 L 59.0 79.0 L 60.0 79.0 L 61.0 79.0 L 62.0 79.0 L 63.0 79.0 L 64.0 79.0 L 65.0 79.0 L 66.0 79.0 L 67.0 79.0 L 68.0 79.0 L 69.0 79.0 L 70.0 79.0 L 71.0 78.66666666666667 L 72.0 78.0 L 73.0 77.0 L 74.0 76.0 L 74.66666666666667 75.0 L 75.33333333333333 74.0 L 76.0 73.0 L 76.66666666666667 72.0 L 77.0 71.0 L 77.33333333333333 70.0 L 77.66666666666667 69.0 L 78.0 68.0 L 78.0 67.0 L 78.0 66.0 L 78.0 65.0 L 78.0 64.0 L 78.0 63.0 L 78.0 62.0 L 77.66666666666667 61.0 L 77.0 60.0 L 76.0 59.0 L 75.0 58.0 L 74.0 57.0 L 73.0 56.0 L 72.0 55.0 L 71.0 54.333333333333336 L 70.0 53.666666666666664 L 69.0 53.333333333333336 L 68.0 53.0 L 67.0 52.666666666666664 L 66.0 52.333333333333336 L 65.0 52.0 L 64.0 52.0 L 63.0 52.0 L 62.0 52.333333333333336 L 61.0 53.0 L 60.0 53.666666666666664 L 59.0 54.0 L 58.0 54.333333333333336 L 57.0 54.666666666666664 L 56.0 55.333333333333336 L 55.0 56.0 L 54.0 57.0 L 53.0 58.0 L 52.333333333333336 59.0 L 51.666666666666664 60.0 L 51.333333333333336 61.0 L 51.0 62.0 L 51.0 63.0 L 51.0 64.0 L 51.0 65.0 L 51.0 66.0 L 51.0 67.0 L 51.0 68.0 L 51.0 69.0 L 51.0 70.0 L 51.0 71.0 L 51.333333333333336 72.0 L 52.0 73.0 L 53.0 74.0 L 54.0 75.0 L 55.0 76.0 L 56.0 77.0 L 56.5 77.5 Z" stroke="none" fill="rgb(255,202,40)" />
<path d="M 65.5 60.5 L 65.66666666666667 60.0 L 66.0 59.0 L 66.0 58.0 L 65.66666666666667 57.0 L 65.0 56.333333333333336 L 64.0 56.0 L 63.0 56.0 L 62.0 56.0 L 61.0 56.333333333333336 L 60.0 56.666666666666664 L 59.0 57.333333333333336 L 58.0 57.666666666666664 L 57.0 58.333333333333336 L 56.0 59.0 L 55.333333333333336 60.0 L 54.666666666666664 61.0 L 54.333333333333336 62.0 L 54.0 63.0 L 54.0 64.0 L 54.0 65.0 L 54.0 66.0 L 54.333333333333336 66.66666666666667 L 55.0 67.0 L 56.0 66.66666666666667 L 57.0 66.0 L 58.0 65.0 L 59.0 64.0 L 60.0 63.0 L 61.0 62.333333333333336 L 62.0 62.0 L 63.0 61.666666666666664 L 64.0 61.333333333333336 L 64.5 61.0 Z" stroke="none" fill="rgb(255,244,155)" />
<path d="M 59.0 89.5 L 59.333333333333336 89.0 L 60.0 88.66666666666667 L 61.0 88.66666666666667 L 62.0 89.0 L 63.0 89.0 L 64.0 89.0 L 65.0 89.0 L 66.0 89.0 L 67.0 89.33333333333333 L 68.0 89.66666666666667 L 69.0 90.33333333333333 L 70.0 91.0 L 71.0 92.0 L 72.0 93.0 L 73.0 94.0 L 74.0 95.0 L 75.0 96.0 L 76.0 97.0 L 77.0 97.66666666666667 L 78.0 98.0 L 79.0 97.66666666666667 L 79.66666666666667 97.0 L 80.0 96.0 L 80.0 95.0 L 80.0 94.0 L 79.66666666666667 93.0 L 79.33333333333333 92.0 L 78.66666666666667 91.0 L 78.0 90.0 L 77.0 89.0 L 76.0 88.0 L 75.0 87.0 L 74.0 86.0 L 73.0 85.33333333333333 L 72.0 84.66666666666667 L 71.0 84.33333333333333 L 70.0 83.66666666666667 L 69.0 83.33333333333333 L 68.0 83.0 L 67.0 83.0 L 66.0 83.0 L 65.0 83.0 L 64.0 83.0 L 63.0 83.0 L 62.0 83.33333333333333 L 61.0 83.66666666666667 L 60.0 84.0 L 59.0 84.0 L 58.0 84.33333333333333 L 57.0 84.66666666666667 L 56.0 85.33333333333333 L 55.0 85.66666666666667 L 54.0 86.33333333333333 L 53.0 87.0 L 52.0 88.0 L 51.0 89.0 L 50.0 90.0 L 49.333333333333336 91.0 L 48.666666666666664 92.0 L 48.333333333333336 93.0 L 48.0 94.0 L 48.0 95.0 L 48.0 96.0 L 48.333333333333336 96.66666666666667 L 49.0 97.0 L 50.0 97.0 L 51.0 97.0 L 51.666666666666664 96.66666666666667 L 52.333333333333336 96.0 L 53.0 95.0 L 54.0 94.0 L 54.666666666666664 93.0 L 55.333333333333336 92.0 L 56.0 91.33333333333333 L 57.0 91.0 L 58.0 90.66666666666667 L 58.5 90.5 Z" stroke="none" fill="rgb(117,117,117)" />
<path d="M 59.5 90.0 L 60.0 90.0 L 60.666666666666664 89.66666666666667 L 61.0 89.0 L 60.666666666666664 88.33333333333333 L 60.0 88.0 L 59.333333333333336 88.33333333333333 L 59.0 89.0 L 59.0 89.5 Z" stroke="none" fill="rgb(66,66,66)" />
<path d="M 72.5 113.5 L 73.0 113.0 L 74.0 112.0 L 75.0 111.0 L 76.0 110.0 L 76.66666666666667 109.0 L 77.0 108.0 L 77.33333333333333 107.0 L 77.66666666666667 106.0 L 78.0 105.0 L 78.0 104.0 L 78.0 103.0 L 78.0 102.0 L 78.0 101.0 L 78.0 100.0 L 78.0 99.0 L 77.66666666666667 98.0 L 77.0 97.0 L 76.0 96.0 L 75.0 95.0 L 74.0 94.0 L 73.0 93.0 L 72.0 92.0 L 71.0 91.0 L 70.0 90.33333333333333 L 69.0 89.66666666666667 L 68.0 89.33333333333333 L 67.0 89.0 L 66.0 89.0 L 65.0 89.0 L 64.0 89.0 L 63.0 89.0 L 62.0 89.0 L 61.0 89.33333333333333 L 60.0 89.66666666666667 L 59.0 90.0 L 58.0 90.33333333333333 L 57.0 90.66666666666667 L 56.0 91.33333333333333 L 55.0 92.0 L 54.0 93.0 L 53.0 94.0 L 52.333333333333336 95.0 L 51.666666666666664 96.0 L 51.333333333333336 97.0 L 51.0 98.0 L 51.0 99.0 L 51.0 100.0 L 51.0 101.0 L 51.0 102.0 L 51.0 103.0 L 51.0 104.0 L 51.0 105.0 L 51.0 106.0 L 51.0 107.0 L 51.333333333333336 108.0 L 51.666666666666664 109.0 L 52.333333333333336 110.0 L 53.0 111.0 L 54.0 112.0 L 55.0 113.0 L 56.0 114.0 L 57.0 114.66666666666667 L 58.0 115.33333333333333 L 59.0 115.66666666666667 L 60.0 116.0 L 61.0 116.0 L 62.0 116.0 L 63.0 116.0 L 64.0 116.0 L 65.0 116.0 L 66.0 116.0 L 67.0 116.0 L 68.0 116.0 L 69.0 116.0 L 70.0 115.66666666666667 L 71.0 115.0 L 71.5 114.5 Z" stroke="none" fill="rgb(76,175,80)" />
<path d="M 56.0 91.5 L 56.0 91.0 L 55.666666666666664 90.33333333333333 L 55.0 90.33333333333333 L 54.333333333333336 91.0 L 54.333333333333336 91.66666666666667 L 55.0 92.0 L 55.5 92.0 Z" stroke="none" fill="rgb(66,66,66)" />
<path d="M 58.5 101.5 L 59.0 101.0 L 60.0 100.0 L 61.0 99.33333333333333 L 62.0 98.66666666666667 L 63.0 98.33333333333333 L 64.0 98.0 L 65.0 97.66666666666667 L 65.66666666666667 97.0 L 66.0 96.0 L 66.0 95.0 L 66.0 94.0 L 65.66666666666667 93.33333333333333 L 65.0 93.0 L 64.0 93.0 L 63.0 93.0 L 62.0 93.0 L 61.0 93.0 L 60.0 93.33333333333333 L 59.0 93.66666666666667 L 58.0 94.33333333333333 L 57.0 95.0 L 56.0 96.0 L 55.333333333333336 97.0 L 54.666666666666664 98.0 L 54.333333333333336 99.0 L 54.0 100.0 L 54.0 101.0 L 54.0 102.0 L 54.0 103.0 L 54.333333333333336 103.66666666666667 L 55.0 104.0 L 56.0 103.66666666666667 L 57.0 103.0 L 57.5 102.5 Z" stroke="none" fill="rgb(111,215,111)" />
</svg>
