<?xml version="1.0" encoding="UTF-8" standalone="no"?>
<!DOCTYPE svg PUBLIC "-//W3C//DTD SVG 1.1//EN"
"http://www.w3.org/Graphics/SVG/1.1/DTD/svg11.dtd">
<svg width="128" height="128" xmlns="http://www.w3.org/2000/svg" version="1.1">
<path d="M 101.5 128.0 L 102.0 128.0 L 103.0 128.0 L 104.0 128.0 L 105.0 128.0 L 106.0 128.0 L 107.0 128.0 L 108.0 128.0 L 109.0 128.0 L 110.0 128.0 L 111.0 128.0 L 112.0 128.0 L 113.0 128.0 L 114.0 128.0 L 115.0 128.0 L 116.0 128.0 L 117.0 128.0 L 118.0 128.0 L 119.0 128.0 L 120.0 128.0 L 121.0 128.0 L 122.0 128.0 L 123.0 128.0 L 124.0 128.0 L 125.0 128.0 L 126.0 128.0 L 127.0 128.0 L 127.66666666666667 127.66666666666667 L 128.0 127.0 L 128.0 126.0 L 128.0 125.0 L 128.0 124.0 L 128.0 123.0 L 128.0 122.0 L 128.0 121.0 L 128.0 120.0 L 128.0 119.0 L 128.0 118.0 L 128.0 117.0 L 128.0 116.0 L 128.0 115.0 L 128.0 114.0 L 128.0 113.0 L 128.0 112.0 L 128.0 111.0 L 128.0 110.0 L 128.0 109.0 L 128.0 108.0 L 128.0 107.0 L 128.0 106.0 L 128.0 105.0 L 128.0 104.0 L 128.0 103.0 L 128.0 102.0 L 128.0 101.0 L 128.0 100.0 L 128.0 99.0 L 128.0 98.0 L 128.0 97.0 L 128.0 96.0 L 128.0 95.0 L 128.0 94.0 L 128.0 93.0 L 128.0 92.0 L 128.0 91.0 L 128.0 90.0 L 128.0 89.0 L 128.0 88.0 L 128.0 87.0 L 128.0 86.0 L 128.0 85.0 L 128.0 84.0 L 128.0 83.0 L 128.0 82.0 L 128.0 81.0 L 128.0 80.0 L 128.0 79.0 L 128.0 78.0 L 128.0 77.0 L 128.0 76.0 L 128.0 75.0 L 128.0 74.0 L 128.0 73.0 L 128.0 72.0 L 128.0 71.0 L 128.0 70.0 L 128.0 69.0 L 128.0 68.0 L 128.0 67.0 L 128.0 66.0 L 128.0 65.0 L 128.0 64.0 L 128.0 63.0 L 128.0 62.0 L 128.0 61.0 L 128.0 60.0 L 128.0 59.0 L 128.0 58.0 L 128.0 57.0 L 128.0 56.0 L 128.0 55.0 L 128.0 54.0 L 128.0 53.0 L 128.0 52.0 L 128.0 51.0 L 128.0 50.0 L 128.0 49.0 L 128.0 48.0 L 128.0 47.0 L 128.0 46.0 L 128.0 45.0 L 128.0 44.0 L 128.0 43.0 L 128.0 42.0 L 128.0 41.0 L 128.0 40.0 L 128.0 39.0 L 128.0 38.0 L 128.0 37.0 L 128.0 36.0 L 128.0 35.0 L 128.0 34.0 L 128.0 33.0 L 128.0 32.0 L 128.0 31.0 L 128.0 30.0 L 128.0 29.0 L 128.0 28.0 L 128.0 27.0 L 128.0 26.0 L 128.0 25.0 L 128.0 24.0 L 128.0 23.0 L 128.0 22.0 L 128.0 21.0 L 128.0 20.0 L 128.0 19.0 L 128.0 18.0 L 128.0 17.0 L 128.0 16.0 L 128.0 15.0 L 128.0 14.0 L 128.0 13.0 L 128.0 12.0 L 128.0 11.0 L 128.0 10.0 L 128.0 9.0 L 128.0 8.0 L 128.0 7.0 L 128.0 6.0 L 128.0 5.0 L 128.0 4.0 L 128.0 3.0 L 128.0 2.0 L 128.0 1.0 L 127.66666666666667 0.3333333333333333 L 127.0 0.0 L 126.0 0.0 L 125.0 0.0 L 124.0 0.0 L 123.0 0.0 L 122.0 0.0 L 121.0 0.0 L 120.0 0.0 L 119.0 0.0 L 118.0 0.0 L 117.0 0.0 L 116.0 0.0 L 115.0 0.0 L 114.0 0.0 L 113.0 0.0 L 112.0 0.0 L 111.0 0.0 L 110.0 0.0 L 109.0 0.0 L 108.0 0.0 L 107.0 0.0 L 106.0 0.0 L 105.0 0.0 L 104.0 0.0 L 103.0 0.0 L 102.0 0.0 L 101.0 0.0 L 100.0 0.0 L 99.0 0.0 L 98.0 0.0 L 97.0 0.0 L 96.0 0.0 L 95.0 0.0 L 94.0 0.0 L 93.0 0.0 L 92.0 0.0 L 91.0 0.0 L 90.0 0.0 L 89.0 0.0 L 88.0 0.0 L 87.0 0.0 L 86.0 0.0 L 85.0 0.0 L 84.0 0.0 L 83.0 0.0 L 82.0 0.0 L 81.0 0.0 L 80.0 0.0 L 79.0 0.0 L 78.0 0.0 L 77.0 0.0 L 76.0 0.0 L 75.0 0.0 L 74.0 0.0 L 73.0 0.0 L 72.0 0.0 L 71.0 0.0 L 70.0 0.0 L 69.0 0.0 L 68.0 0.0 L 67.0 0.0 L 66.0 0.0 L 65.0 0.0 L 64.0 0.0 L 63.0 0.0 L 62.0 0.0 L 61.0 0.0 L 60.0 0.0 L 59.0 0.0 L 58.0 0.0 L 57.0 0.0 L 56.0 0.0 L 55.0 0.0 L 54.0 0.0 L 53.0 0.0 L 52.0 0.0 L 51.0 0.0 L 50.0 0.0 L 49.0 0.0 L 48.0 0.0 L 47.0 0.0 L 46.0 0.0 L 45.0 0.0 L 44.0 0.0 L 43.0 0.0 L 42.0 0.0 L 41.0 0.0 L 40.0 0.0 L 39.0 0.0 L 38.0 0.0 L 37.0 0.0 L 36.0 0.0 L 35.0 0.0 L 34.0 0.0 L 33.0 0.0 L 32.0 0.0 L 31.0 0.0 L 30.0 0.0 L 29.0 0.0 L 28.0 0.0 L 27.0 0.0 L 26.0 0.0 L 25.0 0.0 L 24.0 0.0 L 23.0 0.0 L 22.0 0.0 L 21.0 0.0 L 20.0 0.0 L 19.0 0.0 L 18.0 0.0 L 17.0 0.0 L 16.0 0.0 L 15.0 0.0 L 14.0 0.0 L 13.0 0.0 L 12.0 0.0 L 11.0 0.0 L 10.0 0.0 L 9.0 0.0 L 8.0 0.0 L 7.0 0.0 L 6.0 0.0 L 5.0 0.0 L 4.0 0.0 L 3.0 0.0 L 2.0 0.0 L 1.0 0.0 L 0.3333333333333333 0.3333333333333333 L 0.0 1.0 L 0.0 2.0 L 0.0 3.0 L 0.0 4.0 L 0.0 5.0 L 0.0 6.0 L 0.0 7.0 L 0.0 8.0 L 0.0 9.0 L 0.0 10.0 L 0.0 11.0 L 0.0 12.0 L 0.0 13.0 L 0.0 14.0 L 0.0 15.0 L 0.0 16.0 L 0.0 17.0 L 0.0 18.0 L 0.0 19.0 L 0.0 20.0 L 0.0 21.0 L 0.0 22.0 L 0.0 23.0 L 0.0 24.0 L 0.0 25.0 L 0.0 26.0 L 0.0 27.0 L 0.0 28.0 L 0.0 29.0 L 0.0 30.0 L 0.0 31.0 L 0.0 32.0 L 0.0 33.0 L 0.0 34.0 L 0.0 35.0 L 0.0 36.0 L 0.0 37.0 L 0.0 38.0 L 0.0 39.0 L 0.0 40.0 L 0.0 41.0 L 0.0 42.0 L 0.0 43.0 L 0.0 44.0 L 0.0 45.0 L 0.0 46.0 L 0.0 47.0 L 0.0 48.0 L 0.0 49.0 L 0.0 50.0 L 0.0 51.0 L 0.0 52.0 L 0.0 53.0 L 0.0 54.0 L 0.0 55.0 L 0.0 56.0 L 0.0 57.0 L 0.0 58.0 L 0.0 59.0 L 0.0 60.0 L 0.0 61.0 L 0.0 62.0 L 0.0 63.0 L 0.0 64.0 L 0.0 65.0 L 0.0 66.0 L 0.0 67.0 L 0.0 68.0 L 0.0 69.0 L 0.0 70.0 L 0.0 71.0 L 0.0 72.0 L 0.0 73.0 L 0.0 74.0 L 0.0 75.0 L 0.0 76.0 L 0.0 77.0 L 0.0 78.0 L 0.0 79.0 L 0.0 80.0 L 0.0 81.0 L 0.0 82.0 L 0.0 83.0 L 0.0 84.0 L 0.0 85.0 L 0.0 86.0 L 0.0 87.0 L 0.0 88.0 L 0.0 89.0 L 0.0 90.0 L 0.0 91.0 L 0.0 92.0 L 0.0 93.0 L 0.0 94.0 L 0.0 95.0 L 0.0 96.0 L 0.0 97.0 L 0.0 98.0 L 0.0 99.0 L 0.0 100.0 L 0.0 101.0 L 0.0 102.0 L 0.0 103.0 L 0.0 104.0 L 0.0 105.0 L 0.0 106.0 L 0.0 107.0 L 0.0 108.0 L 0.0 109.0 L 0.0 110.0 L 0.0 111.0 L 0.0 112.0 L 0.0 113.0 L 0.0 114.0 L 0.0 115.0 L 0.0 116.0 L 0.0 117.0 L 0.0 118.0 L 0.0 119.0 L 0.0 120.0 L 0.0 121.0 L 0.0 122.0 L 0.0 123.0 L 0.0 124.0 L 0.0 125.0 L 0.0 126.0 L 0.0 127.0 L 0.3333333333333333 127.66666666666667 L 1.0 128.0 L 2.0 128.0 L 3.0 128.0 L 4.0 128.0 L 5.0 128.0 L 6.0 128.0 L 7.0 128.0 L 8.0 128.0 L 9.0 128.0 L 10.0 128.0 L 11.0 128.0 L 12.0 128.0 L 13.0 128.0 L 14.0 128.0 L 15.0 128.0 L 16.0 128.0 L 17.0 128.0 L 18.0 128.0 L 19.0 128.0 L 20.0 128.0 L 21.0 128.0 L 22.0 128.0 L 23.0 128.0 L 24.0 128.0 L 25.0 128.0 L 26.0 128.0 L 27.0 128.0 L 28.0 128.0 L 29.0 128.0 L 30.0 128.0 L 31.0 128.0 L 32.0 128.0 L 33.0 128.0 L 34.0 128.0 L 35.0 128.0 L 36.0 128.0 L 37.0 128.0 L 38.0 128.0 L 39.0 128.0 L 40.0 128.0 L 41.0 128.0 L 42.0 128.0 L 43.0 128.0 L 44.0 128.0 L 45.0 128.0 L 46.0 128.0 L 47.0 128.0 L 48.0 128.0 L 49.0 128.0 L 50.0 128.0 L 51.0 128.0 L 52.0 128.0 L 53.0 128.0 L 54.0 128.0 L 55.0 128.0 L 56.0 128.0 L 57.0 128.0 L 58.0 128.0 L 59.0 128.0 L 60.0 128.0 L 61.0 128.0 L 62.0 128.0 L 63.0 128.0 L 64.0 128.0 L 65.0 128.0 L 66.0 128.0 L 67.0 128.0 L 68.0 128.0 L 69.0 128.0 L 70.0 128.0 L 71.0 128.0 L 72.0 128.0 L 73.0 128.0 L 74.0 128.0 L 75.0 128.0 L 76.0 128.0 L 77.0 128.0 L 78.0 128.0 L 79.0 128.0 L 80.0 128.0 L 81.0 128.0 L 82.0 128.0 L 83.0 128.0 L 84.0 128.0 L 85.0 128.0 L 86.0 128.0 L 87.0 128.0 L 88.0 128.0 L 89.0 128.0 L 90.0 128.0 L 91.0 128.0 L 92.0 128.0 L 93.0 128.0 L 94.0 128.0 L 95.0 128.0 L 96.0 128.0 L 97.0 128.0 L 98.0 128.0 L 99.0 128.0 L 100.0 128.0 L 100.5 128.0 Z" stroke="none" fill="rgb(255,255,255)" />
<path d="M 88.0 25.5 L 88.0 25.0 L 88.0 24.0 L 88.0 23.0 L 88.0 22.0 L 88.0 21.0 L 88.0 20.0 L 88.0 19.0 L 88.0 18.0 L 88.0 17.0 L 88.0 16.0 L 88.0 15.0 L 88.0 14.0 L 88.0 13.0 L 87.66666666666667 12.0 L 87.33333333333333 11.0 L 86.66666666666667 10.0 L 86.0 9.0 L 85.0 8.0 L 84.0 7.333333333333333 L 83.0 6.666666666666667 L 82.0 6.333333333333333 L 81.0 5.666666666666667 L 80.0 5.333333333333333 L 79.0 5.0 L 78.0 5.0 L 77.0 5.0 L 76.0 5.0 L 75.0 5.0 L 74.0 5.333333333333333 L 73.0 5.333333333333333 L 72.0 5.333333333333333 L 71.0 5.0 L 70.0 5.333333333333333 L 69.0 6.0 L 68.0 7.0 L 67.0 8.0 L 66.0 9.0 L 65.33333333333333 10.0 L 64.66666666666667 11.0 L 64.33333333333333 12.0 L 64.0 13.0 L 64.0 14.0 L 63.666666666666664 15.0 L 63.0 16.0 L 62.0 16.333333333333332 L 61.333333333333336 16.0 L 60.666666666666664 15.0 L 60.333333333333336 14.0 L 59.666666666666664 13.0 L 59.333333333333336 12.0 L 58.666666666666664 11.0 L 58.0 10.0 L 57.0 9.0 L 56.0 8.0 L 55.0 7.333333333333333 L 54.0 6.666666666666667 L 53.0 6.333333333333333 L 52.0 5.666666666666667 L 51.0 5.333333333333333 L 50.0 5.0 L 49.0 5.0 L 48.0 5.0 L 47.0 5.0 L 46.0 5.0 L 45.0 5.333333333333333 L 44.0 5.666666666666667 L 43.0 6.0 L 42.0 6.333333333333333 L 41.0 6.666666666666667 L 40.0 7.0 L 39.0 7.333333333333333 L 38.0 8.0 L 37.0 9.0 L 36.333333333333336 10.0 L 36.0 11.0 L 35.666666666666664 12.0 L 35.333333333333336 13.0 L 35.0 14.0 L 35.0 15.0 L 35.0 16.0 L 35.0 17.0 L 35.0 18.0 L 35.0 19.0 L 35.0 20.0 L 35.0 21.0 L 35.0 22.0 L 35.0 23.0 L 35.0 24.0 L 35.333333333333336 25.0 L 35.666666666666664 26.0 L 36.0 27.0 L 36.333333333333336 28.0 L 36.666666666666664 29.0 L 37.333333333333336 30.0 L 37.666666666666664 31.0 L 38.333333333333336 32.0 L 38.666666666666664 33.0 L 39.333333333333336 34.0 L 40.0 35.0 L 41.0 36.0 L 41.666666666666664 37.0 L 42.333333333333336 38.0 L 43.0 39.0 L 44.0 40.0 L 45.0 41.0 L 46.0 42.0 L 47.0 43.0 L 48.0 44.0 L 49.0 45.0 L 50.0 46.0 L 51.0 47.0 L 52.0 48.0 L 53.0 49.0 L 54.0 50.0 L 55.0 51.0 L 56.0 51.666666666666664 L 57.0 52.333333333333336 L 58.0 53.0 L 59.0 54.0 L 60.0 55.0 L 61.0 55.666666666666664 L 62.0 56.333333333333336 L 63.0 56.666666666666664 L 64.0 56.666666666666664 L 64.66666666666667 56.0 L 65.33333333333333 55.0 L 66.0 54.0 L 67.0 53.0 L 68.0 52.0 L 69.0 51.0 L 70.0 50.0 L 71.0 49.0 L 72.0 48.0 L 73.0 47.0 L 74.0 46.0 L 75.0 45.0 L 75.66666666666667 44.0 L 76.33333333333333 43.0 L 77.0 42.0 L 78.0 41.0 L 79.0 40.0 L 80.0 39.0 L 80.66666666666667 38.0 L 81.33333333333333 37.0 L 82.0 36.0 L 82.66666666666667 35.0 L 83.33333333333333 34.0 L 84.0 33.0 L 84.66666666666667 32.0 L 85.33333333333333 31.0 L 85.66666666666667 30.0 L 86.33333333333333 29.0 L 86.66666666666667 28.0 L 87.33333333333333 27.0 L 87.5 26.5 Z" stroke="none" fill="rgb(239,85,146)" />
<path d="M 59.0 91.5 L 59.0 91.0 L 59.0 90.0 L 59.0 89.0 L 59.333333333333336 88.0 L 59.666666666666664 87.0 L 60.0 86.0 L 60.0 85.0 L 60.0 84.0 L 60.0 83.0 L 60.0 82.0 L 60.0 81.0 L 59.666666666666664 80.0 L 59.333333333333336 79.0 L 59.0 78.0 L 59.0 77.0 L 58.666666666666664 76.0 L 58.666666666666664 75.0 L 58.666666666666664 74.0 L 58.666666666666664 73.0 L 58.333333333333336 72.0 L 58.0 71.0 L 57.666666666666664 70.0 L 57.333333333333336 69.0 L 57.0 68.0 L 56.666666666666664 67.0 L 56.0 66.0 L 55.0 65.0 L 54.0 64.0 L 53.0 63.333333333333336 L 52.0 62.666666666666664 L 51.0 62.0 L 50.333333333333336 61.0 L 49.666666666666664 60.0 L 49.333333333333336 59.0 L 48.666666666666664 58.0 L 48.0 57.0 L 47.0 56.0 L 46.0 55.0 L 45.0 54.0 L 44.0 53.333333333333336 L 43.0 52.666666666666664 L 42.0 52.333333333333336 L 41.0 51.666666666666664 L 40.0 51.333333333333336 L 39.0 50.666666666666664 L 38.0 50.333333333333336 L 37.0 50.0 L 36.0 50.0 L 35.0 49.666666666666664 L 34.0 49.333333333333336 L 33.0 49.0 L 32.0 49.0 L 31.0 49.333333333333336 L 30.0 50.0 L 29.0 51.0 L 28.0 52.0 L 27.0 53.0 L 26.0 53.666666666666664 L 25.0 54.0 L 24.0 54.0 L 23.0 54.0 L 22.0 53.666666666666664 L 21.0 53.333333333333336 L 20.0 52.666666666666664 L 19.333333333333332 52.0 L 18.666666666666668 51.333333333333336 L 18.0 51.0 L 17.333333333333332 51.333333333333336 L 17.0 52.0 L 17.0 53.0 L 17.0 54.0 L 16.666666666666668 55.0 L 16.0 55.666666666666664 L 15.0 56.333333333333336 L 14.0 56.666666666666664 L 13.333333333333334 57.333333333333336 L 12.666666666666666 58.0 L 12.333333333333334 59.0 L 12.0 60.0 L 12.0 61.0 L 12.0 62.0 L 12.0 63.0 L 11.666666666666666 64.0 L 11.333333333333334 65.0 L 10.666666666666666 66.0 L 10.333333333333334 67.0 L 9.666666666666666 68.0 L 9.333333333333334 69.0 L 8.666666666666666 70.0 L 8.333333333333334 71.0 L 8.0 72.0 L 8.0 73.0 L 8.0 74.0 L 8.0 75.0 L 8.0 76.0 L 8.0 77.0 L 8.0 78.0 L 7.666666666666667 79.0 L 7.333333333333333 80.0 L 7.0 81.0 L 7.0 82.0 L 7.0 83.0 L 7.0 84.0 L 7.0 85.0 L 7.0 86.0 L 7.333333333333333 87.0 L 8.0 87.66666666666667 L 9.0 87.66666666666667 L 9.666666666666666 87.0 L 10.333333333333334 86.0 L 10.666666666666666 85.0 L 11.0 84.0 L 11.333333333333334 83.0 L 11.666666666666666 82.0 L 12.0 81.0 L 12.333333333333334 80.0 L 12.666666666666666 79.0 L 13.333333333333334 78.0 L 14.0 77.0 L 15.0 76.66666666666667 L 15.666666666666666 77.0 L 16.0 78.0 L 16.333333333333332 78.66666666666667 L 17.0 79.0 L 18.0 79.0 L 19.0 79.0 L 20.0 79.33333333333333 L 21.0 79.66666666666667 L 22.0 80.33333333333333 L 23.0 80.66666666666667 L 24.0 81.0 L 24.666666666666668 80.66666666666667 L 25.0 80.0 L 24.666666666666668 79.0 L 24.0 78.0 L 23.0 77.33333333333333 L 22.0 77.0 L 21.0 77.0 L 20.0 77.0 L 19.0 76.66666666666667 L 18.666666666666668 76.0 L 19.0 75.33333333333333 L 20.0 75.0 L 21.0 75.0 L 22.0 74.66666666666667 L 23.0 74.33333333333333 L 24.0 74.0 L 25.0 73.66666666666667 L 26.0 73.33333333333333 L 27.0 72.66666666666667 L 28.0 72.33333333333333 L 29.0 71.66666666666667 L 30.0 71.33333333333333 L 31.0 70.66666666666667 L 32.0 70.33333333333333 L 33.0 69.66666666666667 L 34.0 69.33333333333333 L 35.0 69.0 L 36.0 69.0 L 37.0 69.0 L 38.0 68.66666666666667 L 39.0 68.33333333333333 L 40.0 68.33333333333333 L 41.0 69.0 L 42.0 70.0 L 43.0 71.0 L 44.0 71.66666666666667 L 45.0 72.33333333333333 L 46.0 72.66666666666667 L 47.0 73.33333333333333 L 48.0 74.0 L 49.0 75.0 L 50.0 76.0 L 50.666666666666664 77.0 L 51.333333333333336 78.0 L 51.666666666666664 79.0 L 52.0 80.0 L 52.0 81.0 L 52.0 82.0 L 52.0 83.0 L 52.0 84.0 L 52.0 85.0 L 52.0 86.0 L 52.333333333333336 87.0 L 52.666666666666664 88.0 L 53.0 89.0 L 53.0 90.0 L 53.0 91.0 L 53.0 92.0 L 53.333333333333336 92.66666666666667 L 54.0 93.0 L 55.0 92.66666666666667 L 56.0 92.66666666666667 L 57.0 92.66666666666667 L 58.0 92.66666666666667 L 58.5 92.5 Z" stroke="none" fill="rgb(171,135,47)" />
<path d="M 72.5 93.5 L 73.0 93.66666666666667 L 74.0 94.0 L 74.66666666666667 93.66666666666667 L 75.0 93.0 L 75.0 92.0 L 75.0 91.0 L 75.33333333333333 90.0 L 75.66666666666667 89.0 L 76.0 88.0 L 76.0 87.0 L 76.0 86.0 L 76.0 85.0 L 76.0 84.0 L 76.0 83.0 L 76.33333333333333 82.0 L 77.0 81.66666666666667 L 78.0 81.66666666666667 L 79.0 81.66666666666667 L 80.0 81.33333333333333 L 81.0 80.66666666666667 L 82.0 80.33333333333333 L 82.66666666666667 79.66666666666667 L 83.0 79.0 L 83.33333333333333 78.0 L 84.0 77.33333333333333 L 85.0 76.66666666666667 L 86.0 76.0 L 87.0 75.33333333333333 L 88.0 74.66666666666667 L 89.0 74.0 L 90.0 73.0 L 91.0 72.0 L 92.0 71.0 L 93.0 70.33333333333333 L 94.0 69.66666666666667 L 95.0 69.0 L 96.0 68.33333333333333 L 97.0 68.0 L 98.0 67.66666666666667 L 99.0 67.33333333333333 L 100.0 67.0 L 101.0 67.0 L 102.0 67.33333333333333 L 103.0 68.0 L 104.0 68.66666666666667 L 105.0 69.0 L 106.0 69.0 L 107.0 69.0 L 108.0 69.33333333333333 L 109.0 69.66666666666667 L 110.0 70.33333333333333 L 111.0 71.0 L 112.0 72.0 L 113.0 73.0 L 113.66666666666667 74.0 L 114.33333333333333 75.0 L 114.66666666666667 76.0 L 115.0 77.0 L 115.33333333333333 78.0 L 115.66666666666667 79.0 L 116.0 80.0 L 116.33333333333333 81.0 L 116.66666666666667 82.0 L 117.0 83.0 L 117.33333333333333 84.0 L 117.66666666666667 85.0 L 118.0 86.0 L 118.33333333333333 87.0 L 119.0 87.66666666666667 L 119.66666666666667 87.66666666666667 L 120.33333333333333 87.0 L 121.0 86.33333333333333 L 121.66666666666667 85.66666666666667 L 122.0 85.0 L 122.0 84.0 L 121.66666666666667 83.0 L 121.33333333333333 82.0 L 121.0 81.0 L 121.33333333333333 80.0 L 122.0 79.33333333333333 L 122.66666666666667 78.66666666666667 L 123.0 78.0 L 122.66666666666667 77.0 L 122.33333333333333 76.0 L 121.66666666666667 75.0 L 121.33333333333333 74.0 L 121.0 73.0 L 121.0 72.0 L 120.66666666666667 71.0 L 120.33333333333333 70.0 L 120.0 69.0 L 119.66666666666667 68.0 L 119.33333333333333 67.0 L 118.66666666666667 66.0 L 118.0 65.0 L 117.33333333333333 64.0 L 116.66666666666667 63.0 L 116.0 62.0 L 115.0 61.0 L 114.0 60.0 L 113.0 59.333333333333336 L 112.0 59.0 L 111.0 59.0 L 110.0 59.0 L 109.0 58.666666666666664 L 108.33333333333333 58.0 L 107.66666666666667 57.0 L 107.0 56.0 L 106.0 55.0 L 105.0 54.0 L 104.0 53.0 L 103.0 52.333333333333336 L 102.0 51.666666666666664 L 101.0 51.333333333333336 L 100.0 50.666666666666664 L 99.0 50.333333333333336 L 98.0 50.0 L 97.0 50.0 L 96.0 50.0 L 95.0 50.0 L 94.0 50.0 L 93.0 50.0 L 92.0 50.0 L 91.0 50.0 L 90.0 50.333333333333336 L 89.0 50.333333333333336 L 88.0 50.333333333333336 L 87.0 50.0 L 86.0 50.333333333333336 L 85.33333333333333 51.0 L 84.66666666666667 52.0 L 84.0 53.0 L 83.0 54.0 L 82.0 55.0 L 81.0 55.666666666666664 L 80.0 56.0 L 79.0 56.0 L 78.0 56.0 L 77.0 56.0 L 76.0 56.0 L 75.0 56.0 L 74.33333333333333 56.333333333333336 L 74.0 57.0 L 74.0 58.0 L 74.0 59.0 L 73.66666666666667 60.0 L 73.0 61.0 L 72.0 62.0 L 71.33333333333333 63.0 L 71.0 64.0 L 70.66666666666667 65.0 L 70.33333333333333 66.0 L 70.0 67.0 L 70.33333333333333 68.0 L 70.66666666666667 69.0 L 71.0 70.0 L 70.66666666666667 71.0 L 70.33333333333333 72.0 L 70.0 73.0 L 70.0 74.0 L 69.66666666666667 75.0 L 69.33333333333333 76.0 L 69.0 77.0 L 69.0 78.0 L 69.0 79.0 L 69.33333333333333 80.0 L 69.66666666666667 81.0 L 70.0 82.0 L 70.0 83.0 L 70.33333333333333 84.0 L 70.66666666666667 85.0 L 71.0 86.0 L 71.0 87.0 L 71.0 88.0 L 71.0 89.0 L 71.33333333333333 90.0 L 71.66666666666667 91.0 L 72.0 92.0 L 72.0 92.5 Z" stroke="none" fill="rgb(84,57,48)" />
<path d="M 26.5 113.0 L 27.0 113.0 L 28.0 113.0 L 29.0 113.0 L 30.0 113.0 L 31.0 113.0 L 32.0 113.0 L 33.0 113.0 L 34.0 113.33333333333333 L 35.0 113.66666666666667 L 36.0 113.66666666666667 L 37.0 113.33333333333333 L 38.0 112.66666666666667 L 39.0 112.33333333333333 L 40.0 112.0 L 41.0 112.0 L 42.0 112.0 L 43.0 112.0 L 44.0 112.0 L 45.0 112.0 L 45.666666666666664 111.66666666666667 L 46.333333333333336 111.0 L 47.0 110.33333333333333 L 47.666666666666664 109.66666666666667 L 47.666666666666664 109.0 L 47.666666666666664 108.0 L 48.0 107.0 L 49.0 106.0 L 50.0 105.33333333333333 L 51.0 105.0 L 52.0 104.66666666666667 L 52.666666666666664 104.0 L 53.333333333333336 103.0 L 54.0 102.0 L 54.666666666666664 101.0 L 55.0 100.0 L 54.666666666666664 99.0 L 54.0 98.0 L 53.666666666666664 97.0 L 53.666666666666664 96.0 L 54.0 95.0 L 54.0 94.0 L 53.666666666666664 93.0 L 53.333333333333336 92.0 L 53.0 91.0 L 53.0 90.0 L 53.0 89.0 L 53.0 88.0 L 52.666666666666664 87.0 L 52.333333333333336 86.0 L 52.0 85.0 L 52.0 84.0 L 52.0 83.0 L 52.0 82.0 L 52.0 81.0 L 52.0 80.0 L 52.0 79.0 L 51.666666666666664 78.0 L 51.333333333333336 77.0 L 50.666666666666664 76.0 L 50.0 75.0 L 49.0 74.0 L 48.0 73.33333333333333 L 47.0 72.66666666666667 L 46.0 72.33333333333333 L 45.0 71.66666666666667 L 44.0 71.0 L 43.0 70.0 L 42.0 69.0 L 41.0 68.33333333333333 L 40.0 68.0 L 39.0 68.0 L 38.0 68.33333333333333 L 37.0 68.66666666666667 L 36.0 69.0 L 35.0 69.0 L 34.0 69.0 L 33.0 69.33333333333333 L 32.0 69.66666666666667 L 31.0 70.33333333333333 L 30.0 70.66666666666667 L 29.0 71.33333333333333 L 28.0 71.66666666666667 L 27.0 72.33333333333333 L 26.0 72.66666666666667 L 25.0 73.33333333333333 L 24.0 73.66666666666667 L 23.0 74.0 L 22.0 74.33333333333333 L 21.333333333333332 75.0 L 21.333333333333332 76.0 L 22.0 77.0 L 23.0 78.0 L 23.333333333333332 79.0 L 23.0 79.66666666666667 L 22.0 79.66666666666667 L 21.0 79.33333333333333 L 20.0 79.0 L 19.0 79.0 L 18.0 79.0 L 17.0 78.66666666666667 L 16.333333333333332 78.0 L 16.0 77.0 L 15.666666666666666 76.33333333333333 L 15.0 76.0 L 14.0 76.33333333333333 L 13.333333333333334 77.0 L 12.666666666666666 78.0 L 12.333333333333334 79.0 L 12.0 80.0 L 11.666666666666666 81.0 L 11.333333333333334 82.0 L 11.0 83.0 L 10.666666666666666 84.0 L 10.333333333333334 85.0 L 9.666666666666666 86.0 L 9.0 87.0 L 8.333333333333334 88.0 L 8.0 89.0 L 8.0 90.0 L 8.0 91.0 L 8.0 92.0 L 8.0 93.0 L 8.0 94.0 L 8.333333333333334 95.0 L 8.666666666666666 96.0 L 9.0 97.0 L 9.0 98.0 L 9.333333333333334 99.0 L 9.666666666666666 100.0 L 10.333333333333334 101.0 L 11.0 102.0 L 11.666666666666666 103.0 L 12.333333333333334 104.0 L 12.666666666666666 105.0 L 13.333333333333334 106.0 L 14.0 106.66666666666667 L 15.0 107.33333333333333 L 16.0 108.0 L 17.0 109.0 L 18.0 110.0 L 19.0 110.66666666666667 L 20.0 111.33333333333333 L 21.0 112.0 L 22.0 113.0 L 23.0 113.66666666666667 L 24.0 113.66666666666667 L 25.0 113.33333333333333 L 25.5 113.0 Z" stroke="none" fill="rgb(224,187,149)" />
<path d="M 95.5 113.0 L 96.0 113.0 L 97.0 113.0 L 98.0 113.0 L 99.0 113.0 L 100.0 113.0 L 101.0 113.0 L 102.0 113.0 L 103.0 113.0 L 104.0 113.0 L 104.66666666666667 112.66666666666667 L 105.33333333333333 112.0 L 106.0 111.33333333333333 L 107.0 111.0 L 108.0 111.0 L 108.66666666666667 110.66666666666667 L 109.33333333333333 110.0 L 110.0 109.33333333333333 L 111.0 108.66666666666667 L 112.0 108.33333333333333 L 113.0 108.0 L 113.66666666666667 107.66666666666667 L 114.33333333333333 107.0 L 114.66666666666667 106.0 L 115.0 105.0 L 115.33333333333333 104.0 L 115.66666666666667 103.0 L 116.33333333333333 102.0 L 117.0 101.0 L 118.0 100.0 L 119.0 99.33333333333333 L 119.66666666666667 98.66666666666667 L 120.0 98.0 L 120.0 97.0 L 120.0 96.0 L 120.0 95.0 L 120.0 94.0 L 120.0 93.0 L 120.0 92.0 L 120.0 91.0 L 120.0 90.0 L 120.0 89.0 L 119.66666666666667 88.0 L 119.0 87.0 L 118.33333333333333 86.0 L 118.0 85.0 L 117.66666666666667 84.0 L 117.33333333333333 83.0 L 117.0 82.0 L 116.66666666666667 81.0 L 116.33333333333333 80.0 L 116.0 79.0 L 115.66666666666667 78.0 L 115.33333333333333 77.0 L 115.0 76.0 L 114.66666666666667 75.0 L 114.33333333333333 74.0 L 113.66666666666667 73.0 L 113.0 72.0 L 112.0 71.0 L 111.0 70.33333333333333 L 110.0 69.66666666666667 L 109.0 69.33333333333333 L 108.0 69.0 L 107.0 69.0 L 106.0 69.0 L 105.0 68.66666666666667 L 104.0 68.0 L 103.0 67.33333333333333 L 102.0 67.0 L 101.0 67.0 L 100.0 67.0 L 99.0 67.0 L 98.0 67.33333333333333 L 97.0 67.66666666666667 L 96.0 68.0 L 95.0 68.33333333333333 L 94.0 69.0 L 93.0 69.66666666666667 L 92.0 70.33333333333333 L 91.0 71.0 L 90.0 72.0 L 89.0 73.0 L 88.0 74.0 L 87.0 74.66666666666667 L 86.0 75.33333333333333 L 85.0 76.0 L 84.0 76.66666666666667 L 83.33333333333333 77.33333333333333 L 83.0 78.0 L 83.33333333333333 78.66666666666667 L 84.0 79.0 L 85.0 79.33333333333333 L 86.0 80.0 L 86.66666666666667 81.0 L 86.66666666666667 82.0 L 86.33333333333333 83.0 L 86.0 84.0 L 86.0 85.0 L 86.33333333333333 86.0 L 86.66666666666667 87.0 L 87.0 88.0 L 87.0 89.0 L 86.66666666666667 90.0 L 86.0 90.66666666666667 L 85.0 91.0 L 84.0 91.0 L 83.0 90.66666666666667 L 82.0 90.0 L 81.33333333333333 89.0 L 81.0 88.0 L 81.33333333333333 87.0 L 82.0 86.0 L 82.66666666666667 85.0 L 83.0 84.0 L 82.66666666666667 83.33333333333333 L 82.0 83.0 L 81.0 83.0 L 80.0 82.66666666666667 L 79.0 82.0 L 78.0 81.33333333333333 L 77.0 81.0 L 76.33333333333333 81.33333333333333 L 76.0 82.0 L 76.0 83.0 L 76.0 84.0 L 76.0 85.0 L 76.0 86.0 L 76.0 87.0 L 75.66666666666667 88.0 L 75.33333333333333 89.0 L 75.0 90.0 L 75.0 91.0 L 75.0 92.0 L 74.66666666666667 93.0 L 74.33333333333333 94.0 L 74.0 95.0 L 74.0 96.0 L 74.0 97.0 L 74.33333333333333 98.0 L 74.66666666666667 99.0 L 75.0 100.0 L 75.33333333333333 101.0 L 76.0 102.0 L 77.0 103.0 L 78.0 104.0 L 79.0 105.0 L 80.0 106.0 L 80.66666666666667 107.0 L 81.33333333333333 108.0 L 82.0 109.0 L 83.0 110.0 L 84.0 110.66666666666667 L 85.0 111.0 L 86.0 111.0 L 87.0 111.33333333333333 L 88.0 111.66666666666667 L 89.0 112.33333333333333 L 90.0 113.0 L 91.0 113.66666666666667 L 92.0 113.66666666666667 L 93.0 113.33333333333333 L 94.0 113.0 L 94.5 113.0 Z" stroke="none" fill="rgb(186,141,104)" />
<path d="M 88.5 34.5 L 88.66666666666667 34.0 L 89.33333333333333 33.0 L 89.66666666666667 32.0 L 90.33333333333333 31.0 L 90.66666666666667 30.0 L 91.33333333333333 29.0 L 91.66666666666667 28.0 L 92.0 27.0 L 92.33333333333333 26.0 L 92.66666666666667 25.0 L 93.0 24.0 L 93.0 23.0 L 93.0 22.0 L 93.0 21.0 L 93.0 20.0 L 93.0 19.0 L 93.0 18.0 L 93.0 17.0 L 93.0 16.0 L 93.0 15.0 L 93.0 14.0 L 92.66666666666667 13.0 L 92.33333333333333 12.0 L 92.0 11.0 L 91.66666666666667 10.0 L 91.0 9.0 L 90.0 8.0 L 89.0 7.0 L 88.0 6.333333333333333 L 87.0 5.666666666666667 L 86.0 5.333333333333333 L 85.0 4.666666666666667 L 84.0 4.333333333333333 L 83.0 4.0 L 82.0 3.6666666666666665 L 81.0 3.3333333333333335 L 80.0 3.0 L 79.0 3.0 L 78.0 3.0 L 77.0 3.0 L 76.33333333333333 3.3333333333333335 L 76.0 4.0 L 76.33333333333333 4.666666666666667 L 77.0 5.0 L 78.0 5.0 L 79.0 5.333333333333333 L 80.0 5.666666666666667 L 81.0 6.333333333333333 L 82.0 6.666666666666667 L 83.0 7.333333333333333 L 84.0 8.0 L 85.0 9.0 L 86.0 10.0 L 86.66666666666667 11.0 L 87.33333333333333 12.0 L 87.66666666666667 13.0 L 88.0 14.0 L 88.0 15.0 L 88.0 16.0 L 88.0 17.0 L 88.0 18.0 L 88.0 19.0 L 88.0 20.0 L 88.0 21.0 L 88.0 22.0 L 88.0 23.0 L 88.0 24.0 L 87.66666666666667 25.0 L 87.33333333333333 26.0 L 86.66666666666667 27.0 L 86.33333333333333 28.0 L 85.66666666666667 29.0 L 85.33333333333333 30.0 L 84.66666666666667 31.0 L 84.0 32.0 L 83.33333333333333 33.0 L 82.66666666666667 34.0 L 82.0 35.0 L 81.33333333333333 36.0 L 80.66666666666667 37.0 L 80.0 38.0 L 79.0 39.0 L 78.0 40.0 L 77.0 41.0 L 76.33333333333333 42.0 L 75.66666666666667 43.0 L 75.0 44.0 L 74.0 45.0 L 73.0 46.0 L 72.0 47.0 L 71.0 48.0 L 70.0 49.0 L 69.0 50.0 L 68.0 51.0 L 67.0 52.0 L 66.0 53.0 L 65.33333333333333 54.0 L 65.0 55.0 L 65.33333333333333 55.666666666666664 L 66.0 56.0 L 67.0 55.666666666666664 L 68.0 55.0 L 69.0 54.0 L 70.0 53.0 L 71.0 52.333333333333336 L 72.0 51.666666666666664 L 73.0 51.0 L 74.0 50.0 L 75.0 49.0 L 76.0 48.0 L 77.0 47.0 L 78.0 46.0 L 79.0 45.0 L 80.0 44.0 L 81.0 43.0 L 82.0 42.0 L 83.0 41.0 L 84.0 40.0 L 85.0 39.0 L 85.66666666666667 38.0 L 86.33333333333333 37.0 L 87.0 36.0 L 87.5 35.5 Z" stroke="none" fill="rgb(218,47,118)" />
<path d="M 40.5 121.0 L 41.0 121.0 L 42.0 121.0 L 43.0 121.0 L 44.0 121.0 L 45.0 121.0 L 46.0 121.0 L 47.0 121.0 L 48.0 121.0 L 49.0 121.0 L 50.0 121.0 L 51.0 121.0 L 52.0 121.0 L 53.0 121.0 L 54.0 121.0 L 55.0 121.0 L 56.0 121.0 L 56.666666666666664 120.66666666666667 L 57.0 120.0 L 56.666666666666664 119.0 L 56.0 118.0 L 55.0 117.0 L 54.0 116.33333333333333 L 53.0 116.33333333333333 L 52.0 116.66666666666667 L 51.0 117.0 L 50.0 117.0 L 49.0 117.0 L 48.0 117.0 L 47.0 117.0 L 46.0 117.0 L 45.0 117.0 L 44.0 117.0 L 43.0 117.0 L 42.0 117.0 L 41.0 117.0 L 40.0 117.0 L 39.0 117.0 L 38.0 117.0 L 37.0 117.0 L 36.0 117.0 L 35.0 117.0 L 34.0 117.0 L 33.0 117.33333333333333 L 32.0 117.66666666666667 L 31.0 118.0 L 30.0 118.0 L 29.0 117.66666666666667 L 28.0 117.33333333333333 L 27.0 117.0 L 26.0 117.0 L 25.0 117.0 L 24.0 117.0 L 23.0 117.0 L 22.0 117.0 L 21.0 117.0 L 20.0 117.0 L 19.0 117.0 L 18.0 117.0 L 17.0 117.0 L 16.0 117.0 L 15.0 117.0 L 14.0 117.0 L 13.0 117.0 L 12.0 117.0 L 11.0 117.0 L 10.0 117.0 L 9.0 117.0 L 8.0 117.0 L 7.0 117.0 L 6.0 117.0 L 5.0 117.33333333333333 L 4.0 118.0 L 3.3333333333333335 119.0 L 3.0 120.0 L 3.3333333333333335 120.66666666666667 L 4.0 121.0 L 5.0 121.0 L 6.0 121.0 L 7.0 121.0 L 8.0 121.0 L 9.0 121.0 L 10.0 121.0 L 11.0 121.0 L 12.0 121.0 L 13.0 121.0 L 14.0 121.0 L 15.0 121.0 L 16.0 121.0 L 17.0 121.0 L 18.0 121.0 L 19.0 121.0 L 20.0 121.0 L 21.0 121.0 L 22.0 121.0 L 23.0 121.0 L 24.0 121.0 L 25.0 121.0 L 26.0 121.0 L 27.0 121.0 L 28.0 121.0 L 29.0 121.0 L 30.0 121.0 L 31.0 121.0 L 32.0 121.0 L 33.0 121.0 L 34.0 121.0 L 35.0 121.0 L 36.0 121.0 L 37.0 121.0 L 38.0 121.0 L 39.0 121.0 L 39.5 121.0 Z" stroke="none" fill="rgb(87,146,39)" />
<path d="M 95.5 121.0 L 96.0 121.0 L 97.0 121.0 L 98.0 121.0 L 99.0 121.0 L 100.0 121.0 L 101.0 121.0 L 102.0 121.0 L 103.0 121.0 L 104.0 121.0 L 105.0 121.0 L 106.0 121.0 L 107.0 121.0 L 108.0 121.0 L 109.0 121.0 L 110.0 121.0 L 111.0 121.0 L 112.0 121.0 L 113.0 121.0 L 114.0 121.0 L 115.0 121.0 L 116.0 121.0 L 117.0 121.0 L 118.0 121.0 L 119.0 121.0 L 120.0 121.0 L 121.0 121.0 L 122.0 121.0 L 123.0 121.0 L 124.0 121.0 L 124.66666666666667 120.66666666666667 L 125.0 120.0 L 124.66666666666667 119.0 L 124.0 118.0 L 123.0 117.33333333333333 L 122.0 117.0 L 121.0 117.0 L 120.0 117.0 L 119.0 117.0 L 118.0 117.0 L 117.0 117.0 L 116.0 117.0 L 115.0 117.0 L 114.0 117.0 L 113.0 117.0 L 112.0 117.0 L 111.0 117.0 L 110.0 117.0 L 109.0 117.0 L 108.0 117.0 L 107.0 117.0 L 106.0 117.0 L 105.0 117.0 L 104.0 117.0 L 103.0 117.0 L 102.0 117.0 L 101.0 117.33333333333333 L 100.0 117.66666666666667 L 99.0 118.0 L 98.0 118.0 L 97.0 118.0 L 96.0 117.66666666666667 L 95.0 117.33333333333333 L 94.0 117.0 L 93.0 117.0 L 92.0 117.0 L 91.0 117.0 L 90.0 117.0 L 89.0 117.0 L 88.0 117.0 L 87.0 117.0 L 86.0 117.0 L 85.0 117.0 L 84.0 117.0 L 83.0 117.0 L 82.0 117.0 L 81.0 117.0 L 80.0 117.0 L 79.0 117.0 L 78.0 117.0 L 77.0 117.0 L 76.0 117.0 L 75.0 117.0 L 74.0 117.0 L 73.0 117.33333333333333 L 72.0 118.0 L 71.33333333333333 119.0 L 71.33333333333333 120.0 L 72.0 120.66666666666667 L 73.0 121.0 L 74.0 121.0 L 75.0 121.0 L 76.0 121.0 L 77.0 121.0 L 78.0 121.0 L 79.0 121.0 L 80.0 121.0 L 81.0 121.0 L 82.0 121.0 L 83.0 121.0 L 84.0 121.0 L 85.0 121.0 L 86.0 121.0 L 87.0 121.0 L 88.0 121.0 L 89.0 121.0 L 90.0 121.0 L 91.0 121.0 L 92.0 121.0 L 93.0 121.0 L 94.0 121.0 L 94.5 121.0 Z" stroke="none" fill="rgb(241,120,34)" />
<path d="M 94.5 124.0 L 95.0 124.0 L 96.0 124.0 L 97.0 124.0 L 98.0 124.0 L 99.0 124.0 L 100.0 124.0 L 101.0 124.0 L 102.0 124.0 L 103.0 124.0 L 104.0 124.0 L 105.0 124.0 L 106.0 124.0 L 107.0 124.0 L 108.0 124.0 L 109.0 124.0 L 110.0 124.0 L 111.0 124.0 L 112.0 124.0 L 113.0 124.0 L 114.0 124.0 L 115.0 124.0 L 116.0 124.0 L 117.0 124.0 L 118.0 124.0 L 119.0 124.0 L 120.0 124.0 L 121.0 124.0 L 122.0 124.0 L 123.0 124.0 L 124.0 124.0 L 125.0 124.0 L 126.0 124.0 L 126.66666666666667 123.66666666666667 L 127.0 123.0 L 126.66666666666667 122.0 L 126.0 121.33333333333333 L 125.0 121.0 L 124.0 121.0 L 123.0 121.0 L 122.0 121.0 L 121.0 121.0 L 120.0 121.0 L 119.0 121.0 L 118.0 121.0 L 117.0 121.0 L 116.0 121.0 L 115.0 121.0 L 114.0 121.0 L 113.0 121.0 L 112.0 121.0 L 111.0 121.0 L 110.0 121.0 L 109.0 121.0 L 108.0 121.0 L 107.0 121.0 L 106.0 121.0 L 105.0 121.0 L 104.0 121.0 L 103.0 121.0 L 102.0 121.0 L 101.0 121.0 L 100.0 121.0 L 99.0 121.0 L 98.0 121.0 L 97.0 121.0 L 96.0 121.0 L 95.0 121.0 L 94.0 121.0 L 93.0 121.0 L 92.0 121.0 L 91.0 121.0 L 90.0 121.0 L 89.0 121.0 L 88.0 121.0 L 87.0 121.0 L 86.0 121.0 L 85.0 121.0 L 84.0 121.0 L 83.0 121.0 L 82.0 121.0 L 81.0 121.0 L 80.0 121.0 L 79.0 121.0 L 78.0 121.0 L 77.0 121.0 L 76.0 121.0 L 75.0 121.0 L 74.0 121.0 L 73.0 120.66666666666667 L 72.0 120.33333333333333 L 71.0 120.33333333333333 L 70.33333333333333 121.0 L 70.0 122.0 L 70.0 123.0 L 70.33333333333333 123.66666666666667 L 71.0 124.0 L 72.0 124.0 L 73.0 124.0 L 74.0 124.0 L 75.0 124.0 L 76.0 124.0 L 77.0 124.0 L 78.0 124.0 L 79.0 124.0 L 80.0 124.0 L 81.0 124.0 L 82.0 124.0 L 83.0 124.0 L 84.0 124.0 L 85.0 124.0 L 86.0 124.0 L 87.0 124.0 L 88.0 124.0 L 89.0 124.0 L 90.0 124.0 L 91.0 124.0 L 92.0 124.0 L 93.0 124.0 L 93.5 124.0 Z" stroke="none" fill="rgb(238,112,35)" />
<path d="M 39.5 124.0 L 40.0 124.0 L 41.0 124.0 L 42.0 124.0 L 43.0 124.0 L 44.0 124.0 L 45.0 124.0 L 46.0 124.0 L 47.0 124.0 L 48.0 124.0 L 49.0 124.0 L 50.0 124.0 L 51.0 124.0 L 52.0 124.0 L 53.0 124.0 L 54.0 124.0 L 55.0 124.0 L 56.0 124.0 L 57.0 124.0 L 57.666666666666664 123.66666666666667 L 58.0 123.0 L 58.0 122.0 L 57.666666666666664 121.33333333333333 L 57.0 121.0 L 56.0 121.0 L 55.0 121.0 L 54.0 121.0 L 53.0 121.0 L 52.0 121.0 L 51.0 121.0 L 50.0 121.0 L 49.0 121.0 L 48.0 121.0 L 47.0 121.0 L 46.0 121.0 L 45.0 121.0 L 44.0 121.0 L 43.0 121.0 L 42.0 121.0 L 41.0 121.0 L 40.0 121.0 L 39.0 121.0 L 38.0 121.0 L 37.0 121.0 L 36.0 121.0 L 35.0 121.0 L 34.0 121.0 L 33.0 121.0 L 32.0 121.0 L 31.0 121.0 L 30.0 121.0 L 29.0 121.0 L 28.0 121.0 L 27.0 121.0 L 26.0 121.0 L 25.0 121.0 L 24.0 121.0 L 23.0 121.0 L 22.0 121.0 L 21.0 121.0 L 20.0 121.0 L 19.0 121.0 L 18.0 121.0 L 17.0 121.0 L 16.0 121.0 L 15.0 121.0 L 14.0 121.0 L 13.0 121.0 L 12.0 121.0 L 11.0 121.0 L 10.0 121.0 L 9.0 121.0 L 8.0 121.0 L 7.0 121.0 L 6.0 121.0 L 5.0 121.0 L 4.0 121.0 L 3.0 121.0 L 2.0 121.33333333333333 L 1.3333333333333333 122.0 L 1.0 123.0 L 1.3333333333333333 123.66666666666667 L 2.0 124.0 L 3.0 124.0 L 4.0 124.0 L 5.0 124.0 L 6.0 124.0 L 7.0 124.0 L 8.0 124.0 L 9.0 124.0 L 10.0 124.0 L 11.0 124.0 L 12.0 124.0 L 13.0 124.0 L 14.0 124.0 L 15.0 124.0 L 16.0 124.0 L 17.0 124.0 L 18.0 124.0 L 19.0 124.0 L 20.0 124.0 L 21.0 124.0 L 22.0 124.0 L 23.0 124.0 L 24.0 124.0 L 25.0 124.0 L 26.0 124.0 L 27.0 124.0 L 28.0 124.0 L 29.0 124.0 L 30.0 124.0 L 31.0 124.0 L 32.0 124.0 L 33.0 124.0 L 34.0 124.0 L 35.0 124.0 L 36.0 124.0 L 37.0 124.0 L 38.0 124.0 L 38.5 124.0 Z" stroke="none" fill="rgb(80,130,36)" />
<path d="M 8.0 68.5 L 8.333333333333334 68.0 L 9.0 67.0 L 10.0 66.0 L 11.0 65.33333333333333 L 11.666666666666666 64.66666666666667 L 12.0 64.0 L 12.0 63.0 L 12.0 62.0 L 12.0 61.0 L 12.333333333333334 60.0 L 12.666666666666666 59.0 L 13.0 58.0 L 13.0 57.0 L 12.666666666666666 56.0 L 12.0 55.333333333333336 L 11.0 55.0 L 10.0 55.0 L 9.0 55.333333333333336 L 8.333333333333334 56.0 L 7.666666666666667 57.0 L 7.333333333333333 58.0 L 6.666666666666667 59.0 L 6.333333333333333 60.0 L 6.0 61.0 L 6.0 62.0 L 6.0 63.0 L 5.666666666666667 64.0 L 5.0 65.0 L 4.333333333333333 66.0 L 3.6666666666666665 67.0 L 3.3333333333333335 68.0 L 2.6666666666666665 69.0 L 2.3333333333333335 70.0 L 2.0 71.0 L 2.0 72.0 L 2.0 73.0 L 2.0 74.0 L 2.0 75.0 L 2.0 76.0 L 2.0 77.0 L 1.6666666666666667 78.0 L 1.3333333333333333 79.0 L 1.0 80.0 L 1.0 81.0 L 1.0 82.0 L 1.0 83.0 L 1.0 84.0 L 1.3333333333333333 84.66666666666667 L 2.0 85.0 L 2.6666666666666665 84.66666666666667 L 3.0 84.0 L 3.0 83.0 L 3.3333333333333335 82.0 L 3.6666666666666665 81.0 L 4.0 80.0 L 4.333333333333333 79.0 L 4.666666666666667 78.0 L 5.0 77.0 L 5.0 76.0 L 4.666666666666667 75.0 L 4.333333333333333 74.0 L 4.333333333333333 73.0 L 5.0 72.33333333333333 L 6.0 72.0 L 6.666666666666667 71.66666666666667 L 7.0 71.0 L 7.333333333333333 70.0 L 7.5 69.5 Z" stroke="none" fill="rgb(191,159,85)" />
<path d="M 105.5 55.5 L 106.0 56.0 L 107.0 56.666666666666664 L 108.0 57.0 L 109.0 57.333333333333336 L 110.0 57.666666666666664 L 111.0 57.666666666666664 L 112.0 57.666666666666664 L 113.0 57.666666666666664 L 114.0 58.333333333333336 L 115.0 59.0 L 116.0 60.0 L 117.0 61.0 L 117.66666666666667 62.0 L 118.33333333333333 63.0 L 119.0 64.0 L 119.66666666666667 65.0 L 120.33333333333333 66.0 L 120.66666666666667 67.0 L 121.33333333333333 68.0 L 121.66666666666667 69.0 L 122.33333333333333 70.0 L 123.0 70.66666666666667 L 123.66666666666667 70.66666666666667 L 124.0 70.0 L 124.0 69.0 L 124.0 68.0 L 123.66666666666667 67.0 L 123.0 66.0 L 122.33333333333333 65.0 L 121.66666666666667 64.0 L 121.33333333333333 63.0 L 120.66666666666667 62.0 L 120.0 61.0 L 119.0 60.0 L 118.0 59.0 L 117.0 58.0 L 116.0 57.0 L 115.0 56.0 L 114.0 55.0 L 113.0 54.333333333333336 L 112.0 54.0 L 111.0 54.333333333333336 L 110.0 54.333333333333336 L 109.0 54.0 L 108.0 53.0 L 107.0 52.0 L 106.0 51.333333333333336 L 105.0 50.666666666666664 L 104.0 50.333333333333336 L 103.0 49.666666666666664 L 102.0 49.333333333333336 L 101.0 48.666666666666664 L 100.0 48.0 L 99.0 47.333333333333336 L 98.0 47.0 L 97.0 47.0 L 96.0 47.0 L 95.0 47.0 L 94.33333333333333 47.333333333333336 L 94.0 48.0 L 94.33333333333333 49.0 L 95.0 49.666666666666664 L 96.0 50.0 L 97.0 50.0 L 98.0 50.333333333333336 L 99.0 50.666666666666664 L 100.0 51.333333333333336 L 101.0 51.666666666666664 L 102.0 52.333333333333336 L 103.0 53.0 L 104.0 54.0 L 104.5 54.5 Z" stroke="none" fill="rgb(102,70,60)" />
<path d="M 69.0 71.5 L 69.0 71.0 L 69.0 70.0 L 69.0 69.0 L 69.0 68.0 L 69.0 67.0 L 69.0 66.0 L 69.0 65.0 L 69.33333333333333 64.0 L 70.0 63.0 L 71.0 62.0 L 72.0 61.0 L 72.66666666666667 60.0 L 73.0 59.0 L 72.66666666666667 58.333333333333336 L 72.0 58.0 L 71.33333333333333 58.333333333333336 L 70.66666666666667 59.0 L 70.0 59.666666666666664 L 69.0 60.0 L 68.0 60.333333333333336 L 67.33333333333333 61.0 L 66.66666666666667 62.0 L 66.33333333333333 63.0 L 65.66666666666667 64.0 L 65.33333333333333 65.0 L 65.0 66.0 L 65.0 67.0 L 65.0 68.0 L 65.0 69.0 L 65.0 70.0 L 65.33333333333333 71.0 L 65.33333333333333 72.0 L 65.0 73.0 L 64.33333333333333 74.0 L 64.0 75.0 L 64.0 76.0 L 64.0 77.0 L 64.0 78.0 L 64.0 79.0 L 64.0 80.0 L 64.33333333333333 81.0 L 64.66666666666667 82.0 L 65.0 83.0 L 65.0 84.0 L 65.0 85.0 L 65.0 86.0 L 65.0 87.0 L 65.33333333333333 87.66666666666667 L 66.0 87.66666666666667 L 67.0 87.33333333333333 L 67.66666666666667 86.66666666666667 L 68.0 86.0 L 68.0 85.0 L 68.0 84.0 L 67.66666666666667 83.0 L 67.0 82.0 L 66.33333333333333 81.0 L 66.0 80.0 L 66.0 79.0 L 66.0 78.0 L 66.0 77.0 L 66.33333333333333 76.0 L 67.0 75.33333333333333 L 67.66666666666667 74.66666666666667 L 68.0 74.0 L 68.33333333333333 73.0 L 68.5 72.5 Z" stroke="none" fill="rgb(109,76,64)" />
<path d="M 40.5 52.0 L 41.0 52.333333333333336 L 42.0 52.666666666666664 L 43.0 53.333333333333336 L 44.0 54.0 L 45.0 55.0 L 46.0 56.0 L 47.0 57.0 L 48.0 58.0 L 48.666666666666664 59.0 L 49.333333333333336 60.0 L 49.666666666666664 61.0 L 50.333333333333336 62.0 L 51.0 62.666666666666664 L 52.0 63.333333333333336 L 53.0 64.0 L 54.0 65.0 L 55.0 66.0 L 56.0 67.0 L 56.666666666666664 68.0 L 57.0 69.0 L 57.333333333333336 70.0 L 57.666666666666664 71.0 L 58.0 72.0 L 58.333333333333336 73.0 L 59.0 74.0 L 60.0 74.66666666666667 L 60.666666666666664 74.66666666666667 L 61.0 74.0 L 61.0 73.0 L 60.666666666666664 72.0 L 60.333333333333336 71.0 L 60.0 70.0 L 59.666666666666664 69.0 L 59.333333333333336 68.0 L 58.666666666666664 67.0 L 58.333333333333336 66.0 L 57.666666666666664 65.0 L 57.0 64.0 L 56.333333333333336 63.0 L 55.666666666666664 62.0 L 55.0 61.333333333333336 L 54.0 60.666666666666664 L 53.0 60.0 L 52.0 59.0 L 51.0 58.0 L 50.0 57.0 L 49.0 56.0 L 48.0 55.0 L 47.0 54.0 L 46.0 53.0 L 45.0 52.333333333333336 L 44.0 51.666666666666664 L 43.0 51.0 L 42.0 50.333333333333336 L 41.0 50.0 L 40.0 49.666666666666664 L 39.0 49.0 L 38.0 48.333333333333336 L 37.0 48.0 L 36.333333333333336 48.333333333333336 L 36.0 49.0 L 36.333333333333336 49.666666666666664 L 37.0 50.333333333333336 L 38.0 50.666666666666664 L 39.0 51.333333333333336 L 39.5 51.5 Z" stroke="none" fill="rgb(180,146,64)" />
<path d="M 46.5 16.5 L 47.0 16.0 L 48.0 15.0 L 49.0 14.0 L 49.666666666666664 13.0 L 50.0 12.0 L 50.0 11.0 L 49.666666666666664 10.0 L 49.0 9.333333333333334 L 48.0 8.666666666666666 L 47.0 8.333333333333334 L 46.0 8.333333333333334 L 45.0 8.666666666666666 L 44.0 9.0 L 43.0 9.333333333333334 L 42.0 10.0 L 41.333333333333336 11.0 L 40.666666666666664 12.0 L 40.333333333333336 13.0 L 40.0 14.0 L 40.0 15.0 L 40.0 16.0 L 40.0 17.0 L 40.0 18.0 L 40.0 19.0 L 40.0 20.0 L 40.333333333333336 21.0 L 40.666666666666664 22.0 L 41.333333333333336 22.666666666666668 L 42.0 23.0 L 42.666666666666664 22.666666666666668 L 43.333333333333336 22.0 L 43.666666666666664 21.0 L 44.0 20.0 L 44.333333333333336 19.0 L 45.0 18.0 L 45.5 17.5 Z" stroke="none" fill="rgb(243,133,170)" />
<path d="M 107.5 117.0 L 108.0 117.0 L 109.0 117.0 L 110.0 117.0 L 111.0 117.0 L 112.0 117.0 L 113.0 117.0 L 114.0 117.0 L 115.0 117.0 L 116.0 117.0 L 117.0 117.0 L 118.0 117.0 L 119.0 117.0 L 120.0 117.0 L 121.0 117.0 L 121.66666666666667 116.66666666666667 L 121.66666666666667 116.0 L 121.0 115.33333333333333 L 120.0 114.66666666666667 L 119.0 114.0 L 118.0 113.33333333333333 L 117.0 113.0 L 116.0 112.66666666666667 L 115.0 112.33333333333333 L 114.0 112.0 L 113.0 111.66666666666667 L 112.0 111.33333333333333 L 111.0 111.0 L 110.0 111.0 L 109.0 111.0 L 108.0 111.0 L 107.0 111.0 L 106.0 111.0 L 105.33333333333333 111.33333333333333 L 104.66666666666667 112.0 L 104.33333333333333 113.0 L 103.66666666666667 114.0 L 103.33333333333333 115.0 L 103.0 116.0 L 103.33333333333333 116.66666666666667 L 104.0 117.0 L 105.0 117.0 L 106.0 117.0 L 106.5 117.0 Z" stroke="none" fill="rgb(244,131,32)" />
<path d="M 55.5 8.5 L 56.0 9.0 L 57.0 10.0 L 58.0 11.0 L 58.666666666666664 12.0 L 59.333333333333336 13.0 L 59.666666666666664 14.0 L 60.333333333333336 15.0 L 60.666666666666664 16.0 L 61.333333333333336 16.666666666666668 L 62.0 17.0 L 63.0 16.666666666666668 L 63.666666666666664 16.0 L 64.0 15.0 L 64.0 14.0 L 64.0 13.0 L 63.666666666666664 12.0 L 63.333333333333336 11.0 L 62.666666666666664 10.0 L 62.333333333333336 9.0 L 61.666666666666664 8.0 L 61.0 7.0 L 60.0 6.333333333333333 L 59.0 5.666666666666667 L 58.0 5.333333333333333 L 57.0 4.666666666666667 L 56.0 4.333333333333333 L 55.0 4.0 L 54.0 3.6666666666666665 L 53.0 3.3333333333333335 L 52.0 3.0 L 51.0 3.0 L 50.0 3.0 L 49.0 3.0 L 48.0 3.0 L 47.0 3.0 L 46.333333333333336 3.3333333333333335 L 46.0 4.0 L 46.333333333333336 4.666666666666667 L 47.0 5.0 L 48.0 5.0 L 49.0 5.0 L 50.0 5.333333333333333 L 51.0 5.666666666666667 L 52.0 6.333333333333333 L 53.0 6.666666666666667 L 54.0 7.333333333333333 L 54.5 7.5 Z" stroke="none" fill="rgb(218,47,118)" />
<path d="M 4.5 94.5 L 5.0 95.0 L 6.0 96.0 L 7.0 97.0 L 7.333333333333333 98.0 L 7.333333333333333 99.0 L 7.333333333333333 99.66666666666667 L 8.0 100.0 L 9.0 100.0 L 9.666666666666666 99.66666666666667 L 9.666666666666666 99.0 L 9.333333333333334 98.0 L 9.0 97.0 L 9.0 96.0 L 8.666666666666666 95.0 L 8.333333333333334 94.0 L 7.666666666666667 93.0 L 7.0 92.0 L 6.0 91.0 L 5.333333333333333 90.0 L 4.666666666666667 89.0 L 4.333333333333333 88.0 L 4.333333333333333 87.0 L 4.666666666666667 86.0 L 5.0 85.0 L 5.0 84.0 L 5.333333333333333 83.0 L 6.0 82.33333333333333 L 6.666666666666667 81.66666666666667 L 7.0 81.0 L 6.666666666666667 80.0 L 6.666666666666667 79.0 L 7.0 78.33333333333333 L 7.666666666666667 77.66666666666667 L 8.0 77.0 L 8.0 76.0 L 7.666666666666667 75.0 L 7.0 74.33333333333333 L 6.0 74.0 L 5.333333333333333 74.33333333333333 L 5.0 75.0 L 5.0 76.0 L 4.666666666666667 77.0 L 4.333333333333333 78.0 L 4.0 79.0 L 3.6666666666666665 80.0 L 3.3333333333333335 81.0 L 3.0 82.0 L 3.0 83.0 L 2.6666666666666665 84.0 L 2.3333333333333335 85.0 L 2.0 86.0 L 2.0 87.0 L 2.0 88.0 L 2.0 89.0 L 2.3333333333333335 90.0 L 2.6666666666666665 91.0 L 3.0 92.0 L 3.3333333333333335 93.0 L 3.5 93.5 Z" stroke="none" fill="rgb(180,146,64)" />
<path d="M 24.5 117.0 L 25.0 117.0 L 25.666666666666668 116.66666666666667 L 25.666666666666668 116.0 L 25.0 115.0 L 24.0 114.0 L 23.0 113.0 L 22.0 112.0 L 21.0 111.33333333333333 L 20.0 111.0 L 19.0 111.0 L 18.0 111.0 L 17.0 111.0 L 16.0 111.33333333333333 L 15.0 111.66666666666667 L 14.0 112.0 L 13.0 112.33333333333333 L 12.0 112.66666666666667 L 11.0 113.33333333333333 L 10.0 113.66666666666667 L 9.0 114.33333333333333 L 8.0 114.66666666666667 L 7.333333333333333 115.33333333333333 L 7.0 116.0 L 7.333333333333333 116.66666666666667 L 8.0 117.0 L 9.0 117.0 L 10.0 117.0 L 11.0 117.0 L 12.0 117.0 L 13.0 117.0 L 14.0 117.0 L 15.0 117.0 L 16.0 117.0 L 17.0 117.0 L 18.0 117.0 L 19.0 117.0 L 20.0 117.0 L 21.0 117.0 L 22.0 117.0 L 23.0 117.0 L 23.5 117.0 Z" stroke="none" fill="rgb(96,166,45)" />
<path d="M 43.5 117.0 L 44.0 117.0 L 45.0 117.0 L 46.0 117.0 L 47.0 117.0 L 48.0 117.0 L 49.0 117.0 L 50.0 117.0 L 51.0 117.0 L 52.0 117.0 L 52.666666666666664 116.66666666666667 L 53.0 116.0 L 52.666666666666664 115.33333333333333 L 52.0 114.66666666666667 L 51.0 114.33333333333333 L 50.0 113.66666666666667 L 49.0 113.33333333333333 L 48.0 112.66666666666667 L 47.0 112.33333333333333 L 46.0 112.0 L 45.0 112.0 L 44.0 112.0 L 43.0 112.0 L 42.0 112.0 L 41.0 112.0 L 40.0 112.0 L 39.0 112.0 L 38.0 112.33333333333333 L 37.0 112.66666666666667 L 36.0 113.33333333333333 L 35.0 114.0 L 34.333333333333336 115.0 L 34.0 116.0 L 34.333333333333336 116.66666666666667 L 35.0 117.0 L 36.0 117.0 L 37.0 117.0 L 38.0 117.0 L 39.0 117.0 L 40.0 117.0 L 41.0 117.0 L 42.0 117.0 L 42.5 117.0 Z" stroke="none" fill="rgb(96,166,45)" />
<path d="M 78.5 117.0 L 79.0 117.0 L 80.0 117.0 L 81.0 117.0 L 82.0 117.0 L 83.0 117.0 L 84.0 117.0 L 85.0 117.0 L 86.0 117.0 L 87.0 117.0 L 88.0 117.0 L 89.0 117.0 L 90.0 117.0 L 91.0 117.0 L 92.0 117.0 L 92.66666666666667 116.66666666666667 L 93.0 116.0 L 92.66666666666667 115.0 L 92.0 114.0 L 91.0 113.0 L 90.0 112.33333333333333 L 89.0 111.66666666666667 L 88.0 111.33333333333333 L 87.0 111.0 L 86.0 111.0 L 85.0 111.0 L 84.0 111.33333333333333 L 83.0 111.66666666666667 L 82.0 112.0 L 81.0 112.33333333333333 L 80.0 112.66666666666667 L 79.0 113.33333333333333 L 78.0 113.66666666666667 L 77.0 114.33333333333333 L 76.33333333333333 115.0 L 76.0 116.0 L 76.33333333333333 116.66666666666667 L 77.0 117.0 L 77.5 117.0 Z" stroke="none" fill="rgb(244,131,32)" />
<path d="M 110.5 59.0 L 111.0 59.0 L 112.0 59.333333333333336 L 113.0 60.0 L 114.0 61.0 L 115.0 62.0 L 116.0 63.0 L 116.66666666666667 64.0 L 117.33333333333333 65.0 L 118.0 66.0 L 118.66666666666667 67.0 L 119.33333333333333 68.0 L 119.66666666666667 69.0 L 120.0 70.0 L 120.33333333333333 71.0 L 120.66666666666667 72.0 L 121.0 73.0 L 121.0 74.0 L 121.33333333333333 75.0 L 121.66666666666667 76.0 L 122.33333333333333 76.66666666666667 L 123.0 76.66666666666667 L 123.66666666666667 76.0 L 124.0 75.0 L 124.0 74.0 L 124.0 73.0 L 124.0 72.0 L 123.66666666666667 71.0 L 123.0 70.0 L 122.33333333333333 69.0 L 121.66666666666667 68.0 L 121.33333333333333 67.0 L 120.66666666666667 66.0 L 120.33333333333333 65.0 L 119.66666666666667 64.0 L 119.0 63.0 L 118.33333333333333 62.0 L 117.66666666666667 61.0 L 117.0 60.0 L 116.0 59.0 L 115.0 58.333333333333336 L 114.0 57.666666666666664 L 113.0 57.333333333333336 L 112.0 57.0 L 111.0 57.0 L 110.0 57.0 L 109.0 57.0 L 108.33333333333333 57.333333333333336 L 108.0 58.0 L 108.33333333333333 58.666666666666664 L 109.0 59.0 L 109.5 59.0 Z" stroke="none" fill="rgb(93,64,54)" />
<path d="M 72.0 70.5 L 71.66666666666667 70.0 L 71.33333333333333 69.0 L 70.66666666666667 68.0 L 70.66666666666667 67.0 L 70.66666666666667 66.0 L 71.0 65.0 L 71.33333333333333 64.0 L 72.0 63.0 L 73.0 62.0 L 74.0 61.0 L 74.66666666666667 60.0 L 74.66666666666667 59.0 L 74.33333333333333 58.0 L 74.33333333333333 57.0 L 75.0 56.333333333333336 L 76.0 56.0 L 76.66666666666667 55.666666666666664 L 77.0 55.0 L 76.66666666666667 54.0 L 76.0 53.0 L 75.0 52.333333333333336 L 74.0 52.333333333333336 L 73.0 53.0 L 72.33333333333333 54.0 L 72.0 55.0 L 72.0 56.0 L 72.0 57.0 L 72.33333333333333 58.0 L 72.33333333333333 59.0 L 72.0 60.0 L 71.0 61.0 L 70.0 62.0 L 69.33333333333333 63.0 L 69.0 64.0 L 69.0 65.0 L 69.0 66.0 L 69.0 67.0 L 69.0 68.0 L 69.0 69.0 L 69.0 70.0 L 68.66666666666667 71.0 L 68.33333333333333 72.0 L 68.0 73.0 L 68.0 74.0 L 68.0 75.0 L 68.0 76.0 L 68.33333333333333 76.66666666666667 L 69.0 76.66666666666667 L 69.66666666666667 76.0 L 70.0 75.0 L 70.0 74.0 L 70.33333333333333 73.0 L 71.0 72.0 L 71.5 71.5 Z" stroke="none" fill="rgb(93,64,54)" />
<path d="M 24.5 103.0 L 25.0 103.33333333333333 L 26.0 103.66666666666667 L 27.0 104.0 L 28.0 104.0 L 29.0 104.0 L 30.0 104.0 L 31.0 104.0 L 32.0 104.0 L 33.0 104.0 L 34.0 104.0 L 35.0 103.66666666666667 L 36.0 103.0 L 36.666666666666664 102.0 L 37.0 101.0 L 36.666666666666664 100.33333333333333 L 36.0 100.0 L 35.0 100.0 L 34.0 100.0 L 33.0 100.0 L 32.0 100.0 L 31.0 100.0 L 30.0 99.66666666666667 L 29.0 99.33333333333333 L 28.0 99.0 L 27.0 99.0 L 26.0 99.0 L 25.0 98.66666666666667 L 24.0 98.33333333333333 L 23.0 98.0 L 22.333333333333332 98.33333333333333 L 22.0 99.0 L 22.0 100.0 L 22.333333333333332 101.0 L 23.0 102.0 L 23.5 102.5 Z" stroke="none" fill="rgb(109,76,64)" />
<path d="M 97.5 104.0 L 98.0 104.0 L 99.0 104.0 L 100.0 104.0 L 101.0 104.0 L 102.0 103.66666666666667 L 103.0 103.0 L 104.0 102.0 L 104.66666666666667 101.0 L 105.0 100.0 L 105.0 99.0 L 104.66666666666667 98.33333333333333 L 104.0 98.0 L 103.0 98.33333333333333 L 102.0 98.66666666666667 L 101.0 99.33333333333333 L 100.0 99.66666666666667 L 99.0 100.0 L 98.0 100.0 L 97.0 100.0 L 96.0 100.0 L 95.0 100.0 L 94.0 100.0 L 93.0 100.0 L 92.0 100.0 L 91.0 100.0 L 90.33333333333333 100.33333333333333 L 90.0 101.0 L 90.33333333333333 102.0 L 91.0 102.66666666666667 L 92.0 103.33333333333333 L 93.0 103.66666666666667 L 94.0 104.0 L 95.0 104.0 L 96.0 104.0 L 96.5 104.0 Z" stroke="none" fill="rgb(93,64,54)" />
<path d="M 71.5 16.0 L 72.0 16.0 L 73.0 16.0 L 74.0 15.666666666666666 L 75.0 15.333333333333334 L 76.0 14.666666666666666 L 77.0 14.0 L 77.66666666666667 13.0 L 78.0 12.0 L 78.0 11.0 L 78.0 10.0 L 77.66666666666667 9.0 L 77.0 8.333333333333334 L 76.0 8.0 L 75.0 8.0 L 74.0 8.333333333333334 L 73.0 8.666666666666666 L 72.0 9.333333333333334 L 71.33333333333333 10.0 L 70.66666666666667 11.0 L 70.33333333333333 12.0 L 69.66666666666667 13.0 L 69.33333333333333 14.0 L 69.0 15.0 L 69.33333333333333 15.666666666666666 L 70.0 16.0 L 70.5 16.0 Z" stroke="none" fill="rgb(243,133,170)" />
<path d="M 95.5 118.0 L 96.0 118.0 L 97.0 118.0 L 98.0 118.0 L 99.0 118.0 L 100.0 118.0 L 101.0 117.66666666666667 L 102.0 117.33333333333333 L 102.66666666666667 116.66666666666667 L 103.33333333333333 116.0 L 103.66666666666667 115.0 L 104.0 114.0 L 103.66666666666667 113.33333333333333 L 103.0 113.0 L 102.0 113.0 L 101.0 113.0 L 100.0 113.0 L 99.0 113.0 L 98.0 113.0 L 97.0 113.0 L 96.0 113.0 L 95.0 113.0 L 94.0 113.0 L 93.0 113.0 L 92.33333333333333 113.33333333333333 L 92.0 114.0 L 92.33333333333333 115.0 L 92.66666666666667 116.0 L 93.33333333333333 116.66666666666667 L 94.0 117.33333333333333 L 94.5 117.5 Z" stroke="none" fill="rgb(151,105,80)" />
<path d="M 59.5 69.5 L 59.666666666666664 70.0 L 60.0 71.0 L 60.333333333333336 72.0 L 60.666666666666664 73.0 L 61.0 74.0 L 61.0 75.0 L 61.0 76.0 L 61.0 77.0 L 61.0 78.0 L 61.333333333333336 78.66666666666667 L 62.0 79.0 L 62.666666666666664 78.66666666666667 L 63.0 78.0 L 63.0 77.0 L 63.0 76.0 L 63.0 75.0 L 63.0 74.0 L 63.0 73.0 L 62.666666666666664 72.0 L 62.0 71.0 L 61.333333333333336 70.0 L 61.0 69.0 L 60.666666666666664 68.0 L 60.333333333333336 67.0 L 59.666666666666664 66.0 L 59.333333333333336 65.0 L 58.666666666666664 64.0 L 58.333333333333336 63.0 L 57.666666666666664 62.0 L 57.0 61.0 L 56.0 60.0 L 55.0 59.333333333333336 L 54.0 59.333333333333336 L 53.333333333333336 60.0 L 53.333333333333336 60.666666666666664 L 54.0 61.333333333333336 L 55.0 62.0 L 55.666666666666664 63.0 L 56.333333333333336 64.0 L 57.0 65.0 L 57.666666666666664 66.0 L 58.333333333333336 67.0 L 58.666666666666664 68.0 L 59.0 68.5 Z" stroke="none" fill="rgb(185,152,74)" />
<path d="M 123.5 93.5 L 123.66666666666667 93.0 L 124.33333333333333 92.0 L 124.66666666666667 91.0 L 125.0 90.0 L 125.0 89.0 L 124.66666666666667 88.0 L 124.33333333333333 87.0 L 124.0 86.0 L 124.0 85.0 L 124.0 84.0 L 124.0 83.0 L 123.66666666666667 82.0 L 123.33333333333333 81.0 L 123.0 80.0 L 122.66666666666667 79.33333333333333 L 122.0 79.0 L 121.33333333333333 79.33333333333333 L 121.0 80.0 L 121.0 81.0 L 121.0 82.0 L 121.33333333333333 83.0 L 121.66666666666667 84.0 L 122.0 85.0 L 122.0 86.0 L 122.0 87.0 L 122.0 88.0 L 122.0 89.0 L 122.0 90.0 L 121.66666666666667 91.0 L 121.0 92.0 L 120.33333333333333 93.0 L 120.0 94.0 L 120.0 95.0 L 120.33333333333333 95.66666666666667 L 121.0 95.66666666666667 L 122.0 95.0 L 122.5 94.5 Z" stroke="none" fill="rgb(93,64,54)" />
<path d="M 14.0 107.5 L 14.0 107.0 L 13.666666666666666 106.0 L 13.333333333333334 105.0 L 12.666666666666666 104.0 L 12.333333333333334 103.0 L 11.666666666666666 102.0 L 11.0 101.0 L 10.0 100.33333333333333 L 9.0 100.0 L 8.0 100.0 L 7.0 100.0 L 6.0 100.0 L 5.0 100.33333333333333 L 4.333333333333333 101.0 L 4.0 102.0 L 4.333333333333333 102.66666666666667 L 5.0 103.33333333333333 L 6.0 103.66666666666667 L 7.0 104.33333333333333 L 8.0 105.0 L 9.0 106.0 L 10.0 107.0 L 11.0 107.66666666666667 L 12.0 108.0 L 13.0 108.0 L 13.5 108.0 Z" stroke="none" fill="rgb(171,135,47)" />
<path d="M 24.5 115.5 L 25.0 116.0 L 26.0 116.66666666666667 L 27.0 117.33333333333333 L 28.0 117.66666666666667 L 29.0 118.0 L 30.0 118.0 L 31.0 118.0 L 32.0 118.0 L 33.0 117.66666666666667 L 33.666666666666664 117.0 L 34.333333333333336 116.0 L 34.666666666666664 115.0 L 35.0 114.0 L 34.666666666666664 113.33333333333333 L 34.0 113.0 L 33.0 113.0 L 32.0 113.0 L 31.0 113.0 L 30.0 113.0 L 29.0 113.0 L 28.0 113.0 L 27.0 113.0 L 26.0 113.0 L 25.0 113.0 L 24.333333333333332 113.33333333333333 L 24.0 114.0 L 24.0 114.5 Z" stroke="none" fill="rgb(196,142,106)" />
<path d="M 75.5 109.0 L 76.0 109.0 L 77.0 109.33333333333333 L 78.0 109.66666666666667 L 79.0 110.33333333333333 L 80.0 111.0 L 81.0 111.66666666666667 L 82.0 112.0 L 83.0 112.0 L 83.66666666666667 111.66666666666667 L 84.0 111.0 L 83.66666666666667 110.0 L 83.0 109.0 L 82.0 108.0 L 81.0 107.33333333333333 L 80.0 106.66666666666667 L 79.0 106.0 L 78.0 105.33333333333333 L 77.0 105.0 L 76.0 105.33333333333333 L 75.0 105.66666666666667 L 74.0 106.0 L 73.0 106.33333333333333 L 72.33333333333333 107.0 L 72.33333333333333 108.0 L 73.0 108.66666666666667 L 74.0 109.0 L 74.5 109.0 Z" stroke="none" fill="rgb(84,57,48)" />
<path d="M 46.5 52.5 L 47.0 53.0 L 48.0 54.0 L 49.0 55.0 L 50.0 56.0 L 50.666666666666664 57.0 L 51.0 58.0 L 51.333333333333336 59.0 L 52.0 59.666666666666664 L 53.0 60.0 L 53.666666666666664 59.666666666666664 L 54.0 59.0 L 54.0 58.0 L 54.0 57.0 L 53.666666666666664 56.0 L 53.333333333333336 55.0 L 52.666666666666664 54.0 L 52.0 53.0 L 51.0 52.0 L 50.0 51.333333333333336 L 49.0 50.666666666666664 L 48.0 50.333333333333336 L 47.0 50.0 L 46.0 50.0 L 45.333333333333336 50.333333333333336 L 45.0 51.0 L 45.333333333333336 51.666666666666664 L 45.5 52.0 Z" stroke="none" fill="rgb(191,159,85)" />
<path d="M 110.5 87.5 L 110.66666666666667 87.0 L 111.0 86.0 L 111.0 85.0 L 110.66666666666667 84.0 L 110.0 83.0 L 109.0 82.0 L 108.0 81.33333333333333 L 107.0 81.33333333333333 L 106.0 82.0 L 105.0 83.0 L 104.33333333333333 84.0 L 104.0 85.0 L 104.0 86.0 L 104.33333333333333 87.0 L 105.0 88.0 L 106.0 88.66666666666667 L 107.0 89.0 L 108.0 89.0 L 109.0 88.66666666666667 L 109.5 88.5 Z" stroke="none" fill="rgb(73,54,46)" />
<path d="M 78.5 106.5 L 79.0 106.66666666666667 L 80.0 107.0 L 80.66666666666667 106.66666666666667 L 80.66666666666667 106.0 L 80.0 105.0 L 79.0 104.0 L 78.0 103.0 L 77.0 102.0 L 76.0 101.0 L 75.0 100.0 L 74.0 99.0 L 73.0 98.0 L 72.0 97.33333333333333 L 71.0 97.0 L 70.33333333333333 97.33333333333333 L 70.0 98.0 L 70.33333333333333 99.0 L 71.0 100.0 L 72.0 101.0 L 73.0 102.0 L 74.0 103.0 L 74.66666666666667 104.0 L 75.0 105.0 L 75.33333333333333 105.66666666666667 L 76.0 105.66666666666667 L 77.0 105.66666666666667 L 77.5 105.5 Z" stroke="none" fill="rgb(93,64,54)" />
<path d="M 105.5 51.5 L 106.0 52.0 L 107.0 53.0 L 108.0 54.0 L 109.0 54.666666666666664 L 110.0 55.0 L 110.66666666666667 54.666666666666664 L 111.0 54.0 L 111.0 53.0 L 110.66666666666667 52.0 L 110.0 51.0 L 109.0 50.0 L 108.0 49.333333333333336 L 107.0 48.666666666666664 L 106.0 48.333333333333336 L 105.0 48.0 L 104.0 48.0 L 103.0 47.666666666666664 L 102.0 47.333333333333336 L 101.0 47.0 L 100.33333333333333 47.333333333333336 L 100.0 48.0 L 100.33333333333333 48.666666666666664 L 101.0 49.333333333333336 L 102.0 49.666666666666664 L 103.0 50.333333333333336 L 104.0 50.666666666666664 L 104.5 51.0 Z" stroke="none" fill="rgb(109,76,64)" />
<path d="M 20.5 89.0 L 21.0 88.66666666666667 L 22.0 88.0 L 22.666666666666668 87.0 L 23.0 86.0 L 23.0 85.0 L 22.666666666666668 84.0 L 22.0 83.0 L 21.0 82.33333333333333 L 20.0 82.0 L 19.0 82.0 L 18.0 82.33333333333333 L 17.333333333333332 83.0 L 16.666666666666668 84.0 L 16.333333333333332 85.0 L 16.0 86.0 L 16.333333333333332 87.0 L 17.0 88.0 L 18.0 88.66666666666667 L 19.0 89.0 L 19.5 89.0 Z" stroke="none" fill="rgb(93,64,54)" />
<path d="M 120.5 104.0 L 121.0 103.66666666666667 L 122.0 103.33333333333333 L 123.0 102.66666666666667 L 123.66666666666667 102.0 L 124.0 101.0 L 123.66666666666667 100.33333333333333 L 123.0 100.0 L 122.0 100.0 L 121.0 99.66666666666667 L 120.0 99.33333333333333 L 119.0 99.0 L 118.0 99.33333333333333 L 117.0 100.0 L 116.33333333333333 101.0 L 115.66666666666667 102.0 L 115.33333333333333 103.0 L 115.0 104.0 L 115.33333333333333 104.66666666666667 L 116.0 105.0 L 117.0 105.0 L 118.0 105.0 L 119.0 104.66666666666667 L 119.5 104.5 Z" stroke="none" fill="rgb(84,57,48)" />
<path d="M 69.5 93.0 L 69.66666666666667 92.66666666666667 L 70.0 92.0 L 70.33333333333333 91.0 L 70.66666666666667 90.0 L 71.0 89.0 L 71.0 88.0 L 71.0 87.0 L 71.0 86.0 L 71.0 85.0 L 70.66666666666667 84.0 L 70.33333333333333 83.0 L 70.0 82.0 L 70.0 81.0 L 69.66666666666667 80.33333333333333 L 69.0 80.0 L 68.33333333333333 80.33333333333333 L 68.0 81.0 L 68.0 82.0 L 68.0 83.0 L 68.0 84.0 L 68.0 85.0 L 68.0 86.0 L 68.0 87.0 L 68.0 88.0 L 68.0 89.0 L 68.0 90.0 L 68.0 91.0 L 68.0 92.0 L 68.33333333333333 92.66666666666667 L 68.5 93.0 Z" stroke="none" fill="rgb(93,64,54)" />
<path d="M 85.5 91.0 L 86.0 91.0 L 86.66666666666667 90.66666666666667 L 87.0 90.0 L 87.0 89.0 L 87.0 88.0 L 87.0 87.0 L 86.66666666666667 86.0 L 86.0 85.0 L 85.0 84.33333333333333 L 84.0 84.0 L 83.0 84.33333333333333 L 82.0 85.0 L 81.33333333333333 86.0 L 81.0 87.0 L 81.0 88.0 L 81.0 89.0 L 81.33333333333333 90.0 L 82.0 90.66666666666667 L 83.0 91.0 L 84.0 91.0 L 84.5 91.0 Z" stroke="none" fill="rgb(73,54,46)" />
<path d="M 43.5 92.0 L 44.0 91.66666666666667 L 45.0 91.0 L 45.666666666666664 90.0 L 46.0 89.0 L 46.0 88.0 L 46.0 87.0 L 45.666666666666664 86.0 L 45.0 85.33333333333333 L 44.0 85.0 L 43.0 85.0 L 42.0 85.0 L 41.0 85.33333333333333 L 40.333333333333336 86.0 L 40.0 87.0 L 40.0 88.0 L 40.0 89.0 L 40.333333333333336 90.0 L 41.0 91.0 L 42.0 91.66666666666667 L 42.5 92.0 Z" stroke="none" fill="rgb(93,64,54)" />
<path d="M 85.5 85.0 L 85.66666666666667 84.66666666666667 L 86.33333333333333 84.0 L 87.0 83.0 L 87.66666666666667 82.0 L 87.66666666666667 81.0 L 87.0 80.0 L 86.0 79.33333333333333 L 85.0 79.0 L 84.0 79.0 L 83.0 79.33333333333333 L 82.0 79.66666666666667 L 81.0 80.33333333333333 L 80.0 80.66666666666667 L 79.33333333333333 81.33333333333333 L 79.0 82.0 L 79.33333333333333 82.66666666666667 L 80.0 83.0 L 81.0 83.0 L 82.0 83.33333333333333 L 83.0 83.66666666666667 L 84.0 84.33333333333333 L 84.5 84.5 Z" stroke="none" fill="rgb(93,64,54)" />
<path d="M 117.5 59.5 L 118.0 60.0 L 119.0 61.0 L 120.0 62.0 L 120.66666666666667 63.0 L 121.33333333333333 64.0 L 121.66666666666667 65.0 L 122.33333333333333 66.0 L 123.0 66.66666666666667 L 123.66666666666667 66.66666666666667 L 124.0 66.0 L 123.66666666666667 65.0 L 123.33333333333333 64.0 L 123.0 63.0 L 122.66666666666667 62.0 L 122.33333333333333 61.0 L 121.66666666666667 60.0 L 121.0 59.0 L 120.0 58.0 L 119.0 57.0 L 118.0 56.333333333333336 L 117.0 56.0 L 116.33333333333333 56.333333333333336 L 116.0 57.0 L 116.33333333333333 58.0 L 116.5 58.5 Z" stroke="none" fill="rgb(109,76,64)" />
<path d="M 7.5 93.0 L 7.666666666666667 92.66666666666667 L 8.0 92.0 L 8.0 91.0 L 8.0 90.0 L 8.0 89.0 L 8.0 88.0 L 7.666666666666667 87.0 L 7.333333333333333 86.0 L 7.0 85.0 L 7.0 84.0 L 7.0 83.0 L 6.666666666666667 82.33333333333333 L 6.0 82.0 L 5.333333333333333 82.33333333333333 L 5.0 83.0 L 5.0 84.0 L 4.666666666666667 85.0 L 4.333333333333333 86.0 L 4.0 87.0 L 4.0 88.0 L 4.333333333333333 89.0 L 4.666666666666667 90.0 L 5.333333333333333 91.0 L 6.0 92.0 L 6.5 92.5 Z" stroke="none" fill="rgb(196,142,106)" />
<path d="M 72.5 98.5 L 73.0 99.0 L 74.0 99.66666666666667 L 74.66666666666667 99.66666666666667 L 75.0 99.0 L 74.66666666666667 98.0 L 74.33333333333333 97.0 L 74.0 96.0 L 74.0 95.0 L 73.66666666666667 94.0 L 73.0 93.0 L 72.33333333333333 92.0 L 72.0 91.0 L 71.66666666666667 90.33333333333333 L 71.0 90.0 L 70.33333333333333 90.33333333333333 L 70.0 91.0 L 69.66666666666667 92.0 L 69.33333333333333 93.0 L 69.33333333333333 94.0 L 69.66666666666667 95.0 L 70.33333333333333 96.0 L 71.0 97.0 L 71.5 97.5 Z" stroke="none" fill="rgb(151,105,80)" />
<path d="M 68.5 97.5 L 69.0 97.66666666666667 L 70.0 97.66666666666667 L 70.66666666666667 97.0 L 70.66666666666667 96.0 L 70.33333333333333 95.0 L 69.66666666666667 94.0 L 69.0 93.0 L 68.33333333333333 92.0 L 68.0 91.0 L 68.0 90.0 L 68.0 89.0 L 68.0 88.0 L 67.66666666666667 87.33333333333333 L 67.0 87.0 L 66.33333333333333 87.33333333333333 L 66.0 88.0 L 66.0 89.0 L 66.0 90.0 L 66.0 91.0 L 66.0 92.0 L 66.0 93.0 L 66.33333333333333 94.0 L 66.66666666666667 95.0 L 67.33333333333333 96.0 L 67.5 96.5 Z" stroke="none" fill="rgb(102,70,60)" />
<path d="M 49.5 110.0 L 50.0 109.66666666666667 L 51.0 109.33333333333333 L 52.0 109.0 L 53.0 109.0 L 54.0 108.66666666666667 L 54.666666666666664 108.0 L 55.0 107.0 L 54.666666666666664 106.33333333333333 L 54.0 106.0 L 53.0 105.66666666666667 L 52.0 105.33333333333333 L 51.0 105.0 L 50.0 105.0 L 49.0 105.33333333333333 L 48.0 106.0 L 47.333333333333336 107.0 L 47.0 108.0 L 47.333333333333336 109.0 L 48.0 109.66666666666667 L 48.5 110.0 Z" stroke="none" fill="rgb(171,135,47)" />
<path d="M 103.5 80.0 L 104.0 80.0 L 105.0 80.0 L 106.0 80.33333333333333 L 107.0 81.0 L 108.0 81.66666666666667 L 108.66666666666667 81.66666666666667 L 109.33333333333333 81.0 L 110.0 80.33333333333333 L 110.66666666666667 79.66666666666667 L 111.0 79.0 L 110.66666666666667 78.0 L 110.0 77.33333333333333 L 109.0 77.0 L 108.0 77.0 L 107.0 77.0 L 106.0 77.0 L 105.0 77.33333333333333 L 104.0 77.66666666666667 L 103.0 78.33333333333333 L 102.33333333333333 79.0 L 102.33333333333333 79.66666666666667 L 102.5 80.0 Z" stroke="none" fill="rgb(93,64,54)" />
<path d="M 62.5 72.0 L 62.666666666666664 71.66666666666667 L 63.0 71.0 L 63.0 70.0 L 63.0 69.0 L 63.0 68.0 L 62.666666666666664 67.0 L 62.333333333333336 66.0 L 61.666666666666664 65.0 L 61.333333333333336 64.0 L 60.666666666666664 63.0 L 60.0 62.333333333333336 L 59.0 62.0 L 58.333333333333336 62.333333333333336 L 58.0 63.0 L 58.333333333333336 64.0 L 58.666666666666664 65.0 L 59.333333333333336 66.0 L 59.666666666666664 67.0 L 60.333333333333336 68.0 L 60.666666666666664 69.0 L 61.0 70.0 L 61.333333333333336 71.0 L 61.5 71.5 Z" stroke="none" fill="rgb(191,159,85)" />
<path d="M 55.5 99.0 L 55.666666666666664 98.66666666666667 L 56.0 98.0 L 56.333333333333336 97.0 L 57.0 96.33333333333333 L 57.666666666666664 95.66666666666667 L 58.0 95.0 L 58.0 94.0 L 57.666666666666664 93.0 L 57.0 92.33333333333333 L 56.0 92.0 L 55.0 92.33333333333333 L 54.333333333333336 93.0 L 54.0 94.0 L 53.666666666666664 95.0 L 53.333333333333336 96.0 L 53.0 97.0 L 53.333333333333336 98.0 L 54.0 98.66666666666667 L 54.5 99.0 Z" stroke="none" fill="rgb(196,142,106)" />
<path d="M 25.5 54.0 L 26.0 54.0 L 27.0 53.666666666666664 L 28.0 53.0 L 29.0 52.0 L 29.666666666666668 51.0 L 29.666666666666668 50.333333333333336 L 29.0 50.0 L 28.0 50.333333333333336 L 27.0 50.666666666666664 L 26.0 51.0 L 25.0 51.0 L 24.0 51.0 L 23.0 51.0 L 22.0 51.0 L 21.333333333333332 51.333333333333336 L 21.333333333333332 52.0 L 22.0 53.0 L 23.0 53.666666666666664 L 24.0 54.0 L 24.5 54.0 Z" stroke="none" fill="rgb(0,0,0)" />
<path d="M 59.5 95.5 L 59.666666666666664 95.0 L 60.333333333333336 94.0 L 60.666666666666664 93.0 L 61.0 92.0 L 61.333333333333336 91.0 L 61.666666666666664 90.0 L 62.0 89.0 L 61.666666666666664 88.0 L 61.0 87.33333333333333 L 60.0 87.0 L 59.333333333333336 87.33333333333333 L 59.0 88.0 L 59.0 89.0 L 59.0 90.0 L 58.666666666666664 91.0 L 58.333333333333336 92.0 L 58.0 93.0 L 58.0 94.0 L 58.0 95.0 L 58.333333333333336 95.66666666666667 L 58.5 96.0 Z" stroke="none" fill="rgb(185,152,74)" />
<path d="M 15.5 56.0 L 16.0 56.0 L 16.666666666666668 55.666666666666664 L 17.0 55.0 L 17.0 54.0 L 17.0 53.0 L 17.0 52.0 L 17.0 51.0 L 17.0 50.0 L 17.0 49.0 L 16.666666666666668 48.333333333333336 L 16.0 48.0 L 15.333333333333334 48.333333333333336 L 14.666666666666666 49.0 L 14.333333333333334 50.0 L 14.0 51.0 L 14.0 52.0 L 14.0 53.0 L 14.0 54.0 L 14.333333333333334 55.0 L 14.5 55.5 Z" stroke="none" fill="rgb(191,159,85)" />
<path d="M 10.0 68.5 L 10.333333333333334 68.0 L 10.666666666666666 67.0 L 11.0 66.0 L 10.666666666666666 65.33333333333333 L 10.0 65.33333333333333 L 9.0 66.0 L 8.333333333333334 67.0 L 7.666666666666667 68.0 L 7.333333333333333 69.0 L 7.0 70.0 L 6.666666666666667 71.0 L 6.333333333333333 72.0 L 6.0 73.0 L 6.333333333333333 74.0 L 7.0 74.66666666666667 L 7.666666666666667 74.66666666666667 L 8.0 74.0 L 8.0 73.0 L 8.333333333333334 72.0 L 8.666666666666666 71.0 L 9.333333333333334 70.0 L 9.5 69.5 Z" stroke="none" fill="rgb(175,140,55)" />
<path d="M 68.0 82.5 L 68.0 82.0 L 68.33333333333333 81.0 L 68.66666666666667 80.0 L 69.0 79.0 L 69.0 78.0 L 68.66666666666667 77.0 L 68.33333333333333 76.0 L 67.66666666666667 75.33333333333333 L 67.0 75.0 L 66.33333333333333 75.33333333333333 L 66.0 76.0 L 66.0 77.0 L 66.0 78.0 L 66.0 79.0 L 66.0 80.0 L 66.0 81.0 L 66.33333333333333 82.0 L 67.0 82.66666666666667 L 67.5 83.0 Z" stroke="none" fill="rgb(102,70,60)" />
<path d="M 95.5 96.0 L 96.0 96.0 L 97.0 96.0 L 98.0 96.0 L 99.0 95.66666666666667 L 99.66666666666667 95.0 L 100.0 94.0 L 99.66666666666667 93.33333333333333 L 99.0 93.0 L 98.0 93.0 L 97.0 93.0 L 96.0 93.0 L 95.0 93.0 L 94.0 93.33333333333333 L 93.33333333333333 94.0 L 93.33333333333333 95.0 L 94.0 95.66666666666667 L 94.5 96.0 Z" stroke="none" fill="rgb(151,105,80)" />
<path d="M 44.5 82.5 L 45.0 82.66666666666667 L 46.0 83.0 L 47.0 83.0 L 47.666666666666664 82.66666666666667 L 47.666666666666664 82.0 L 47.0 81.0 L 46.0 80.33333333333333 L 45.0 80.0 L 44.0 80.0 L 43.0 80.0 L 42.0 80.0 L 41.0 80.0 L 40.333333333333336 80.33333333333333 L 40.0 81.0 L 40.333333333333336 81.66666666666667 L 41.0 82.0 L 42.0 82.0 L 43.0 82.0 L 43.5 82.0 Z" stroke="none" fill="rgb(171,135,47)" />
<path d="M 44.5 52.0 L 44.666666666666664 51.666666666666664 L 45.0 51.0 L 45.0 50.0 L 44.666666666666664 49.333333333333336 L 44.0 49.0 L 43.0 49.0 L 42.0 48.666666666666664 L 41.0 48.333333333333336 L 40.0 48.0 L 39.0 48.0 L 38.333333333333336 48.333333333333336 L 38.333333333333336 49.0 L 39.0 49.666666666666664 L 40.0 50.0 L 41.0 50.333333333333336 L 42.0 51.0 L 43.0 51.666666666666664 L 43.5 52.0 Z" stroke="none" fill="rgb(0,0,0)" />
<path d="M 126.0 86.5 L 126.0 86.0 L 126.0 85.0 L 126.0 84.0 L 125.66666666666667 83.0 L 125.33333333333333 82.0 L 125.0 81.0 L 124.66666666666667 80.33333333333333 L 124.0 80.0 L 123.33333333333333 80.33333333333333 L 123.0 81.0 L 123.33333333333333 82.0 L 123.66666666666667 83.0 L 124.0 84.0 L 124.0 85.0 L 124.0 86.0 L 124.0 87.0 L 124.33333333333333 87.66666666666667 L 125.0 87.66666666666667 L 125.5 87.5 Z" stroke="none" fill="rgb(102,70,60)" />
<path d="M 32.5 96.0 L 32.666666666666664 95.66666666666667 L 33.0 95.0 L 32.666666666666664 94.0 L 32.0 93.33333333333333 L 31.0 93.0 L 30.0 93.0 L 29.0 93.0 L 28.0 93.0 L 27.333333333333332 93.33333333333333 L 27.0 94.0 L 27.333333333333332 95.0 L 28.0 95.66666666666667 L 29.0 96.0 L 30.0 96.0 L 31.0 96.0 L 31.5 96.0 Z" stroke="none" fill="rgb(196,142,106)" />
<path d="M 122.0 91.5 L 122.0 91.0 L 122.0 90.0 L 122.0 89.0 L 122.0 88.0 L 122.0 87.0 L 121.66666666666667 86.33333333333333 L 121.0 86.0 L 120.33333333333333 86.33333333333333 L 120.0 87.0 L 120.0 88.0 L 120.0 89.0 L 119.66666666666667 90.0 L 119.33333333333333 91.0 L 119.33333333333333 92.0 L 120.0 92.66666666666667 L 121.0 92.66666666666667 L 121.5 92.5 Z" stroke="none" fill="rgb(151,105,80)" />
<path d="M 91.5 50.0 L 92.0 50.0 L 93.0 50.0 L 94.0 50.0 L 94.66666666666667 49.666666666666664 L 94.66666666666667 49.0 L 94.0 48.333333333333336 L 93.0 48.0 L 92.0 48.0 L 91.0 48.0 L 90.0 48.333333333333336 L 89.0 48.666666666666664 L 88.33333333333333 49.333333333333336 L 88.0 50.0 L 88.33333333333333 50.666666666666664 L 89.0 51.0 L 90.0 50.666666666666664 L 90.5 50.5 Z" stroke="none" fill="rgb(93,64,54)" />
<path d="M 20.5 53.5 L 21.0 53.666666666666664 L 22.0 54.0 L 22.666666666666668 53.666666666666664 L 22.666666666666668 53.0 L 22.0 52.0 L 21.0 51.0 L 20.0 50.0 L 19.0 49.333333333333336 L 18.0 49.0 L 17.333333333333332 49.333333333333336 L 17.0 50.0 L 17.333333333333332 50.666666666666664 L 18.0 51.333333333333336 L 18.666666666666668 52.0 L 19.333333333333332 52.666666666666664 L 19.5 53.0 Z" stroke="none" fill="rgb(175,140,55)" />
<path d="M 50.5 58.0 L 50.666666666666664 57.666666666666664 L 51.0 57.0 L 50.666666666666664 56.0 L 50.0 55.0 L 49.0 54.0 L 48.0 53.0 L 47.0 52.333333333333336 L 46.0 52.0 L 45.333333333333336 52.333333333333336 L 45.333333333333336 53.0 L 46.0 54.0 L 47.0 55.0 L 48.0 56.0 L 49.0 57.0 L 49.5 57.5 Z" stroke="none" fill="rgb(185,152,74)" />
<path d="M 13.5 109.5 L 14.0 109.66666666666667 L 15.0 110.0 L 16.0 110.33333333333333 L 17.0 110.66666666666667 L 18.0 111.0 L 18.666666666666668 110.66666666666667 L 18.666666666666668 110.0 L 18.0 109.0 L 17.0 108.0 L 16.0 107.33333333333333 L 15.0 107.0 L 14.0 107.33333333333333 L 13.333333333333334 108.0 L 13.0 108.5 Z" stroke="none" fill="rgb(191,159,85)" />
<path d="M 59.5 80.0 L 60.0 79.66666666666667 L 60.666666666666664 79.0 L 61.0 78.0 L 61.0 77.0 L 61.0 76.0 L 60.666666666666664 75.0 L 60.0 74.33333333333333 L 59.0 74.0 L 58.333333333333336 74.33333333333333 L 58.0 75.0 L 58.333333333333336 76.0 L 58.666666666666664 77.0 L 59.0 78.0 L 59.0 79.0 L 59.0 79.5 Z" stroke="none" fill="rgb(175,140,55)" />
<path d="M 42.5 6.5 L 43.0 6.333333333333333 L 44.0 6.0 L 45.0 5.666666666666667 L 45.666666666666664 5.0 L 45.666666666666664 4.333333333333333 L 45.0 4.0 L 44.0 4.0 L 43.0 4.333333333333333 L 42.0 4.666666666666667 L 41.0 5.333333333333333 L 40.333333333333336 6.0 L 40.333333333333336 6.666666666666667 L 41.0 7.0 L 41.5 7.0 Z" stroke="none" fill="rgb(0,0,0)" />
<path d="M 79.5 56.0 L 80.0 56.0 L 81.0 56.0 L 81.66666666666667 55.666666666666664 L 82.0 55.0 L 81.66666666666667 54.333333333333336 L 81.0 54.0 L 80.0 54.0 L 79.0 54.0 L 78.0 54.0 L 77.33333333333333 54.333333333333336 L 77.0 55.0 L 77.33333333333333 55.666666666666664 L 78.0 56.0 L 78.5 56.0 Z" stroke="none" fill="rgb(102,70,60)" />
<path d="M 113.5 109.5 L 113.66666666666667 109.0 L 113.66666666666667 108.33333333333333 L 113.0 108.0 L 112.0 108.0 L 111.0 108.33333333333333 L 110.0 108.66666666666667 L 109.33333333333333 109.33333333333333 L 109.0 110.0 L 109.33333333333333 110.66666666666667 L 110.0 110.66666666666667 L 111.0 110.33333333333333 L 112.0 110.0 L 112.5 110.0 Z" stroke="none" fill="rgb(109,76,64)" />
<path d="M 62.0 87.5 L 62.0 87.0 L 62.0 86.0 L 62.0 85.0 L 61.666666666666664 84.0 L 61.0 83.33333333333333 L 60.333333333333336 83.33333333333333 L 60.0 84.0 L 60.0 85.0 L 60.0 86.0 L 60.333333333333336 87.0 L 61.0 87.66666666666667 L 61.5 88.0 Z" stroke="none" fill="rgb(191,159,85)" />
<path d="M 124.5 80.0 L 124.66666666666667 79.66666666666667 L 125.0 79.0 L 125.0 78.0 L 125.0 77.0 L 124.66666666666667 76.33333333333333 L 124.0 76.0 L 123.33333333333333 76.33333333333333 L 123.0 77.0 L 123.0 78.0 L 123.0 79.0 L 123.33333333333333 79.66666666666667 L 123.5 80.0 Z" stroke="none" fill="rgb(109,76,64)" />
<path d="M 12.5 56.5 L 13.0 56.666666666666664 L 14.0 57.0 L 14.666666666666666 56.666666666666664 L 15.0 56.0 L 14.666666666666666 55.0 L 14.0 54.333333333333336 L 13.0 54.0 L 12.333333333333334 54.333333333333336 L 12.0 55.0 L 12.0 55.5 Z" stroke="none" fill="rgb(0,0,0)" />
<path d="M 20.5 77.0 L 21.0 77.0 L 21.666666666666668 76.66666666666667 L 21.666666666666668 76.0 L 21.0 75.33333333333333 L 20.0 75.0 L 19.0 75.0 L 18.333333333333332 75.33333333333333 L 18.0 76.0 L 18.333333333333332 76.66666666666667 L 19.0 77.0 L 19.5 77.0 Z" stroke="none" fill="rgb(211,174,130)" />
<path d="M 62.0 81.5 L 62.0 81.0 L 62.0 80.0 L 61.666666666666664 79.33333333333333 L 61.0 79.0 L 60.333333333333336 79.33333333333333 L 60.0 80.0 L 60.0 81.0 L 60.0 82.0 L 60.333333333333336 82.66666666666667 L 61.0 82.66666666666667 L 61.5 82.5 Z" stroke="none" fill="rgb(180,146,64)" />
<path d="M 4.5 101.5 L 4.666666666666667 101.0 L 5.0 100.0 L 4.666666666666667 99.33333333333333 L 4.0 99.0 L 3.0 99.0 L 2.3333333333333335 99.33333333333333 L 2.0 100.0 L 2.3333333333333335 101.0 L 3.0 101.66666666666667 L 3.5 102.0 Z" stroke="none" fill="rgb(0,0,0)" />
<path d="M 72.0 57.5 L 72.0 57.0 L 72.0 56.0 L 72.0 55.0 L 72.0 54.0 L 71.66666666666667 53.333333333333336 L 71.33333333333333 53.333333333333336 L 71.0 54.0 L 71.0 55.0 L 71.0 56.0 L 71.0 57.0 L 71.33333333333333 57.666666666666664 L 71.5 58.0 Z" stroke="none" fill="rgb(0,0,0)" />
<path d="M 117.5 106.5 L 117.66666666666667 106.0 L 118.0 105.0 L 117.66666666666667 104.33333333333333 L 117.0 104.33333333333333 L 116.0 104.66666666666667 L 115.33333333333333 105.33333333333333 L 115.33333333333333 106.0 L 116.0 106.66666666666667 L 116.5 107.0 Z" stroke="none" fill="rgb(93,64,54)" />
<path d="M 4.5 75.0 L 5.0 74.66666666666667 L 5.666666666666667 74.0 L 6.0 73.0 L 5.666666666666667 72.33333333333333 L 5.0 72.0 L 4.333333333333333 72.33333333333333 L 4.0 73.0 L 4.0 74.0 L 4.0 74.5 Z" stroke="none" fill="rgb(185,152,74)" />
<path d="M 56.5 99.0 L 57.0 98.66666666666667 L 57.666666666666664 98.0 L 58.0 97.0 L 57.666666666666664 96.33333333333333 L 57.0 96.0 L 56.333333333333336 96.33333333333333 L 56.0 97.0 L 56.0 98.0 L 56.0 98.5 Z" stroke="none" fill="rgb(180,146,64)" />
<path d="M 120.5 100.0 L 121.0 100.0 L 122.0 100.0 L 122.66666666666667 99.66666666666667 L 122.66666666666667 99.0 L 122.0 98.33333333333333 L 121.0 98.0 L 120.33333333333333 98.33333333333333 L 120.0 99.0 L 120.0 99.5 Z" stroke="none" fill="rgb(109,76,64)" />
<path d="M 75.0 105.5 L 75.0 105.0 L 75.0 104.0 L 74.66666666666667 103.33333333333333 L 74.0 103.33333333333333 L 73.33333333333333 104.0 L 73.0 105.0 L 73.33333333333333 105.66666666666667 L 74.0 106.0 L 74.5 106.0 Z" stroke="none" fill="rgb(109,76,64)" />
<path d="M 52.5 106.0 L 53.0 106.0 L 54.0 106.0 L 54.666666666666664 105.66666666666667 L 54.666666666666664 105.0 L 54.0 104.33333333333333 L 53.0 104.0 L 52.333333333333336 104.33333333333333 L 52.0 105.0 L 52.0 105.5 Z" stroke="none" fill="rgb(191,159,85)" />
<path d="M 72.5 107.5 L 72.66666666666667 107.0 L 73.0 106.0 L 72.66666666666667 105.33333333333333 L 72.0 105.0 L 71.33333333333333 105.33333333333333 L 71.0 106.0 L 71.0 107.0 L 71.33333333333333 107.66666666666667 L 71.5 108.0 Z" stroke="none" fill="rgb(0,0,0)" />
<path d="M 72.5 54.0 L 73.0 53.666666666666664 L 73.66666666666667 53.0 L 74.0 52.0 L 73.66666666666667 51.333333333333336 L 73.0 51.333333333333336 L 72.33333333333333 52.0 L 72.0 53.0 L 72.0 53.5 Z" stroke="none" fill="rgb(218,47,118)" />
<path d="M 59.0 61.5 L 58.666666666666664 61.0 L 58.0 60.333333333333336 L 57.0 60.0 L 56.333333333333336 60.333333333333336 L 56.333333333333336 61.0 L 57.0 61.666666666666664 L 58.0 62.0 L 58.5 62.0 Z" stroke="none" fill="rgb(0,0,0)" />
<path d="M 8.0 98.5 L 8.0 98.0 L 7.666666666666667 97.0 L 7.0 96.33333333333333 L 6.333333333333333 96.33333333333333 L 6.0 97.0 L 6.333333333333333 98.0 L 7.0 98.66666666666667 L 7.5 99.0 Z" stroke="none" fill="rgb(0,0,0)" />
<path d="M 74.0 5.5 L 74.0 5.0 L 73.66666666666667 4.333333333333333 L 73.0 4.0 L 72.33333333333333 4.333333333333333 L 72.0 5.0 L 72.33333333333333 5.666666666666667 L 73.0 6.0 L 73.5 6.0 Z" stroke="none" fill="rgb(229,66,132)" />
<path d="M 20.0 47.5 L 20.0 47.0 L 19.666666666666668 46.333333333333336 L 19.0 46.0 L 18.333333333333332 46.333333333333336 L 18.0 47.0 L 18.333333333333332 47.666666666666664 L 19.0 48.0 L 19.5 48.0 Z" stroke="none" fill="rgb(185,152,74)" />
<path d="M 7.5 80.0 L 7.666666666666667 79.66666666666667 L 8.0 79.0 L 7.666666666666667 78.33333333333333 L 7.0 78.0 L 6.333333333333333 78.33333333333333 L 6.0 79.0 L 6.333333333333333 79.66666666666667 L 6.5 80.0 Z" stroke="none" fill="rgb(175,140,55)" />
<path d="M 7.0 99.5 L 7.0 99.0 L 6.666666666666667 98.33333333333333 L 6.0 98.0 L 5.333333333333333 98.33333333333333 L 5.0 99.0 L 5.333333333333333 99.66666666666667 L 6.0 100.0 L 6.5 100.0 Z" stroke="none" fill="rgb(191,159,85)" />
<path d="M 114.5 108.0 L 115.0 108.0 L 115.66666666666667 107.66666666666667 L 116.0 107.0 L 115.66666666666667 106.33333333333333 L 115.0 106.0 L 114.33333333333333 106.33333333333333 L 114.0 107.0 L 114.0 107.5 Z" stroke="none" fill="rgb(102,70,60)" />
<path d="M 76.0 4.5 L 76.0 4.0 L 75.66666666666667 3.3333333333333335 L 75.0 3.3333333333333335 L 74.33333333333333 4.0 L 74.33333333333333 4.666666666666667 L 75.0 5.0 L 75.5 5.0 Z" stroke="none" fill="rgb(0,0,0)" />
<path d="M 36.0 49.5 L 36.0 49.0 L 35.666666666666664 48.333333333333336 L 35.0 48.333333333333336 L 34.333333333333336 49.0 L 34.333333333333336 49.666666666666664 L 35.0 50.0 L 35.5 50.0 Z" stroke="none" fill="rgb(0,0,0)" />
<path d="M 82.5 55.0 L 83.0 54.666666666666664 L 83.66666666666667 54.0 L 83.66666666666667 53.333333333333336 L 83.0 53.0 L 82.33333333333333 53.333333333333336 L 82.0 54.0 L 82.0 54.5 Z" stroke="none" fill="rgb(0,0,0)" />
<path d="M 116.0 56.5 L 116.0 56.0 L 115.66666666666667 55.333333333333336 L 115.0 55.0 L 114.33333333333333 55.333333333333336 L 114.33333333333333 56.0 L 115.0 56.666666666666664 L 115.5 57.0 Z" stroke="none" fill="rgb(0,0,0)" />
<path d="M 126.0 82.5 L 126.0 82.0 L 126.0 81.0 L 125.66666666666667 80.33333333333333 L 125.33333333333333 80.33333333333333 L 125.0 81.0 L 125.0 82.0 L 125.33333333333333 82.66666666666667 L 125.5 83.0 Z" stroke="none" fill="rgb(0,0,0)" />
<path d="M 1.5 88.0 L 1.6666666666666667 87.66666666666667 L 2.0 87.0 L 2.0 86.0 L 1.6666666666666667 85.33333333333333 L 1.3333333333333333 85.33333333333333 L 1.0 86.0 L 1.0 87.0 L 1.0 87.5 Z" stroke="none" fill="rgb(0,0,0)" />
<path d="M 123.5 100.5 L 124.0 100.66666666666667 L 124.66666666666667 100.66666666666667 L 125.0 100.0 L 124.66666666666667 99.33333333333333 L 124.0 99.0 L 123.33333333333333 99.33333333333333 L 123.0 99.5 Z" stroke="none" fill="rgb(0,0,0)" />
<path d="M 56.0 107.5 L 56.0 107.0 L 56.0 106.0 L 55.666666666666664 105.33333333333333 L 55.333333333333336 105.33333333333333 L 55.0 106.0 L 55.0 107.0 L 55.333333333333336 107.66666666666667 L 55.5 108.0 Z" stroke="none" fill="rgb(0,0,0)" />
<path d="M 46.5 112.0 L 47.0 111.66666666666667 L 47.666666666666664 111.0 L 47.666666666666664 110.33333333333333 L 47.0 110.0 L 46.333333333333336 110.33333333333333 L 46.0 111.0 L 46.0 111.5 Z" stroke="none" fill="rgb(185,152,74)" />
<path d="M 17.5 49.0 L 17.666666666666668 48.666666666666664 L 18.0 48.0 L 17.666666666666668 47.333333333333336 L 17.333333333333332 47.333333333333336 L 17.0 48.0 L 17.0 48.5 Z" stroke="none" fill="rgb(0,0,0)" />
<path d="M 75.0 51.5 L 75.0 51.0 L 74.66666666666667 50.333333333333336 L 74.33333333333333 50.333333333333336 L 74.0 51.0 L 74.33333333333333 51.666666666666664 L 74.5 52.0 Z" stroke="none" fill="rgb(0,0,0)" />
<path d="M 65.5 90.0 L 65.66666666666667 89.66666666666667 L 66.0 89.0 L 65.66666666666667 88.33333333333333 L 65.33333333333333 88.33333333333333 L 65.0 89.0 L 65.0 89.5 Z" stroke="none" fill="rgb(0,0,0)" />
<path d="M 121.0 97.5 L 121.0 97.0 L 120.66666666666667 96.33333333333333 L 120.33333333333333 96.33333333333333 L 120.0 97.0 L 120.33333333333333 97.66666666666667 L 120.5 98.0 Z" stroke="none" fill="rgb(0,0,0)" />
<path d="M 75.5 117.0 L 75.66666666666667 116.66666666666667 L 75.66666666666667 116.33333333333333 L 75.0 116.0 L 74.33333333333333 116.33333333333333 L 74.33333333333333 116.66666666666667 L 74.5 117.0 Z" stroke="none" fill="rgb(0,0,0)" />
<path d="M 81.5 4.0 L 81.66666666666667 3.6666666666666665 L 81.66666666666667 3.3333333333333335 L 81.33333333333333 3.3333333333333335 L 81.0 3.5 Z" stroke="none" fill="rgb(0,0,0)" />
<path d="M 84.5 5.0 L 84.66666666666667 4.666666666666667 L 84.66666666666667 4.333333333333333 L 84.33333333333333 4.333333333333333 L 84.0 4.5 Z" stroke="none" fill="rgb(0,0,0)" />
<path d="M 87.0 5.5 L 86.66666666666667 5.333333333333333 L 86.33333333333333 5.333333333333333 L 86.33333333333333 5.666666666666667 L 86.5 6.0 Z" stroke="none" fill="rgb(0,0,0)" />
<path d="M 88.5 7.0 L 88.66666666666667 6.666666666666667 L 88.66666666666667 6.333333333333333 L 88.33333333333333 6.333333333333333 L 88.0 6.5 Z" stroke="none" fill="rgb(0,0,0)" />
<path d="M 89.5 8.0 L 89.66666666666667 7.666666666666667 L 89.66666666666667 7.333333333333333 L 89.33333333333333 7.333333333333333 L 89.0 7.5 Z" stroke="none" fill="rgb(0,0,0)" />
<path d="M 92.5 13.0 L 92.66666666666667 12.666666666666666 L 92.66666666666667 12.333333333333334 L 92.33333333333333 12.333333333333334 L 92.0 12.5 Z" stroke="none" fill="rgb(0,0,0)" />
<path d="M 99.5 48.0 L 99.66666666666667 47.666666666666664 L 99.66666666666667 47.333333333333336 L 99.33333333333333 47.333333333333336 L 99.0 47.5 Z" stroke="none" fill="rgb(0,0,0)" />
<path d="M 18.5 49.0 L 18.666666666666668 48.666666666666664 L 18.666666666666668 48.333333333333336 L 18.333333333333332 48.333333333333336 L 18.0 48.5 Z" stroke="none" fill="rgb(180,146,64)" />
<path d="M 20.0 48.5 L 19.666666666666668 48.333333333333336 L 19.333333333333332 48.333333333333336 L 19.333333333333332 48.666666666666664 L 19.5 49.0 Z" stroke="none" fill="rgb(0,0,0)" />
<path d="M 19.5 50.0 L 19.666666666666668 49.666666666666664 L 19.666666666666668 49.333333333333336 L 19.333333333333332 49.333333333333336 L 19.0 49.5 Z" stroke="none" fill="rgb(180,146,64)" />
<path d="M 21.0 50.5 L 20.666666666666668 50.333333333333336 L 20.333333333333332 50.333333333333336 L 20.333333333333332 50.666666666666664 L 20.5 51.0 Z" stroke="none" fill="rgb(0,0,0)" />
<path d="M 73.5 51.0 L 73.66666666666667 50.666666666666664 L 73.66666666666667 50.333333333333336 L 73.33333333333333 50.333333333333336 L 73.0 50.5 Z" stroke="none" fill="rgb(255,255,255)" />
<path d="M 72.5 52.0 L 72.66666666666667 51.666666666666664 L 72.66666666666667 51.333333333333336 L 72.33333333333333 51.333333333333336 L 72.0 51.5 Z" stroke="none" fill="rgb(255,255,255)" />
<path d="M 75.5 53.0 L 75.66666666666667 52.666666666666664 L 75.66666666666667 52.333333333333336 L 75.33333333333333 52.333333333333336 L 75.0 52.5 Z" stroke="none" fill="rgb(0,0,0)" />
<path d="M 85.0 52.5 L 84.66666666666667 52.333333333333336 L 84.33333333333333 52.333333333333336 L 84.33333333333333 52.666666666666664 L 84.5 53.0 Z" stroke="none" fill="rgb(0,0,0)" />
<path d="M 77.0 53.5 L 76.66666666666667 53.333333333333336 L 76.33333333333333 53.333333333333336 L 76.33333333333333 53.666666666666664 L 76.5 54.0 Z" stroke="none" fill="rgb(0,0,0)" />
<path d="M 114.0 54.5 L 113.66666666666667 54.333333333333336 L 113.33333333333333 54.333333333333336 L 113.33333333333333 54.666666666666664 L 113.5 55.0 Z" stroke="none" fill="rgb(0,0,0)" />
<path d="M 65.0 56.5 L 64.66666666666667 56.333333333333336 L 64.33333333333333 56.333333333333336 L 64.33333333333333 56.666666666666664 L 64.5 57.0 Z" stroke="none" fill="rgb(0,0,0)" />
<path d="M 55.5 60.0 L 55.666666666666664 59.666666666666664 L 55.666666666666664 59.333333333333336 L 55.333333333333336 59.333333333333336 L 55.0 59.5 Z" stroke="none" fill="rgb(0,0,0)" />
<path d="M 2.5 91.0 L 2.6666666666666665 90.66666666666667 L 2.6666666666666665 90.33333333333333 L 2.3333333333333335 90.33333333333333 L 2.0 90.5 Z" stroke="none" fill="rgb(0,0,0)" />
<path d="M 5.5 96.0 L 5.666666666666667 95.66666666666667 L 5.666666666666667 95.33333333333333 L 5.333333333333333 95.33333333333333 L 5.0 95.5 Z" stroke="none" fill="rgb(0,0,0)" />
<path d="M 121.5 96.0 L 121.66666666666667 95.66666666666667 L 121.66666666666667 95.33333333333333 L 121.33333333333333 95.33333333333333 L 121.0 95.5 Z" stroke="none" fill="rgb(0,0,0)" />
<path d="M 58.5 97.0 L 58.666666666666664 96.66666666666667 L 58.666666666666664 96.33333333333333 L 58.333333333333336 96.33333333333333 L 58.0 96.5 Z" stroke="none" fill="rgb(0,0,0)" />
<path d="M 55.5 100.0 L 55.666666666666664 99.66666666666667 L 55.666666666666664 99.33333333333333 L 55.333333333333336 99.33333333333333 L 55.0 99.5 Z" stroke="none" fill="rgb(180,146,64)" />
<path d="M 73.5 103.0 L 73.66666666666667 102.66666666666667 L 73.66666666666667 102.33333333333333 L 73.33333333333333 102.33333333333333 L 73.0 102.5 Z" stroke="none" fill="rgb(0,0,0)" />
<path d="M 13.0 108.5 L 12.666666666666666 108.33333333333333 L 12.333333333333334 108.33333333333333 L 12.333333333333334 108.66666666666667 L 12.5 109.0 Z" stroke="none" fill="rgb(0,0,0)" />
<path d="M 115.0 108.5 L 114.66666666666667 108.33333333333333 L 114.33333333333333 108.33333333333333 L 114.33333333333333 108.66666666666667 L 114.5 109.0 Z" stroke="none" fill="rgb(0,0,0)" />
<path d="M 78.0 109.5 L 77.66666666666667 109.33333333333333 L 77.33333333333333 109.33333333333333 L 77.33333333333333 109.66666666666667 L 77.5 110.0 Z" stroke="none" fill="rgb(0,0,0)" />
<path d="M 79.5 111.0 L 79.66666666666667 110.66666666666667 L 79.66666666666667 110.33333333333333 L 79.33333333333333 110.33333333333333 L 79.0 110.5 Z" stroke="none" fill="rgb(0,0,0)" />
<path d="M 6.5 117.0 L 6.666666666666667 116.66666666666667 L 6.666666666666667 116.33333333333333 L 6.333333333333333 116.33333333333333 L 6.0 116.5 Z" stroke="none" fill="rgb(0,0,0)" />
<path d="M 3.0 120.5 L 2.6666666666666665 120.33333333333333 L 2.3333333333333335 120.33333333333333 L 2.3333333333333335 120.66666666666667 L 2.5 121.0 Z" stroke="none" fill="rgb(0,0,0)" />
<path d="M 125.5 121.0 L 125.66666666666667 120.66666666666667 L 125.66666666666667 120.33333333333333 L 125.33333333333333 120.33333333333333 L 125.0 120.5 Z" stroke="none" fill="rgb(0,0,0)" />
<path d="M 58.5 124.0 L 58.666666666666664 123.66666666666667 L 58.666666666666664 123.33333333333333 L 58.333333333333336 123.33333333333333 L 58.0 123.5 Z" stroke="none" fill="rgb(0,0,0)" />
</svg>
