<?xml version="1.0" encoding="UTF-8" standalone="no"?>
<!DOCTYPE svg PUBLIC "-//W3C//DTD SVG 1.1//EN"
"http://www.w3.org/Graphics/SVG/1.1/DTD/svg11.dtd">
<svg width="128" height="128" xmlns="http://www.w3.org/2000/svg" version="1.1">
<path d="M 123.5 128.0 L 124.0 128.0 L 125.0 128.0 L 126.0 128.0 L 127.0 128.0 L 127.66666666666667 127.66666666666667 L 128.0 127.0 L 128.0 126.0 L 128.0 125.0 L 128.0 124.0 L 128.0 123.0 L 128.0 122.0 L 128.0 121.0 L 128.0 120.0 L 128.0 119.0 L 128.0 118.0 L 128.0 117.0 L 128.0 116.0 L 128.0 115.0 L 128.0 114.0 L 128.0 113.0 L 128.0 112.0 L 128.0 111.0 L 128.0 110.0 L 128.0 109.0 L 128.0 108.0 L 128.0 107.0 L 128.0 106.0 L 128.0 105.0 L 128.0 104.0 L 128.0 103.0 L 128.0 102.0 L 128.0 101.0 L 128.0 100.0 L 128.0 99.0 L 128.0 98.0 L 128.0 97.0 L 128.0 96.0 L 128.0 95.0 L 128.0 94.0 L 128.0 93.0 L 128.0 92.0 L 128.0 91.0 L 128.0 90.0 L 128.0 89.0 L 128.0 88.0 L 128.0 87.0 L 128.0 86.0 L 128.0 85.0 L 128.0 84.0 L 128.0 83.0 L 128.0 82.0 L 128.0 81.0 L 128.0 80.0 L 128.0 79.0 L 128.0 78.0 L 128.0 77.0 L 128.0 76.0 L 128.0 75.0 L 128.0 74.0 L 128.0 73.0 L 128.0 72.0 L 128.0 71.0 L 128.0 70.0 L 128.0 69.0 L 128.0 68.0 L 128.0 67.0 L 128.0 66.0 L 128.0 65.0 L 128.0 64.0 L 128.0 63.0 L 128.0 62.0 L 128.0 61.0 L 128.0 60.0 L 128.0 59.0 L 128.0 58.0 L 128.0 57.0 L 128.0 56.0 L 128.0 55.0 L 128.0 54.0 L 128.0 53.0 L 128.0 52.0 L 128.0 51.0 L 128.0 50.0 L 128.0 49.0 L 128.0 48.0 L 128.0 47.0 L 128.0 46.0 L 128.0 45.0 L 128.0 44.0 L 128.0 43.0 L 128.0 42.0 L 128.0 41.0 L 128.0 40.0 L 128.0 39.0 L 128.0 38.0 L 128.0 37.0 L 128.0 36.0 L 128.0 35.0 L 128.0 34.0 L 128.0 33.0 L 128.0 32.0 L 128.0 31.0 L 128.0 30.0 L 128.0 29.0 L 128.0 28.0 L 128.0 27.0 L 128.0 26.0 L 128.0 25.0 L 128.0 24.0 L 128.0 23.0 L 128.0 22.0 L 128.0 21.0 L 128.0 20.0 L 128.0 19.0 L 128.0 18.0 L 128.0 17.0 L 128.0 16.0 L 128.0 15.0 L 128.0 14.0 L 128.0 13.0 L 128.0 12.0 L 128.0 11.0 L 128.0 10.0 L 128.0 9.0 L 128.0 8.0 L 128.0 7.0 L 128.0 6.0 L 128.0 5.0 L 128.0 4.0 L 128.0 3.0 L 128.0 2.0 L 128.0 1.0 L 127.66666666666667 0.3333333333333333 L 127.0 0.0 L 126.0 0.0 L 125.0 0.0 L 124.0 0.0 L 123.0 0.0 L 122.0 0.0 L 121.0 0.0 L 120.0 0.0 L 119.0 0.0 L 118.0 0.0 L 117.0 0.0 L 116.0 0.0 L 115.0 0.0 L 114.0 0.0 L 113.0 0.0 L 112.0 0.0 L 111.0 0.0 L 110.0 0.0 L 109.0 0.0 L 108.0 0.0 L 107.0 0.0 L 106.0 0.0 L 105.0 0.0 L 104.0 0.0 L 103.0 0.0 L 102.0 0.0 L 101.0 0.0 L 100.0 0.0 L 99.0 0.0 L 98.0 0.0 L 97.0 0.0 L 96.0 0.0 L 95.0 0.0 L 94.0 0.0 L 93.0 0.0 L 92.0 0.0 L 91.0 0.0 L 90.0 0.0 L 89.0 0.0 L 88.0 0.0 L 87.0 0.0 L 86.0 0.0 L 85.0 0.0 L 84.0 0.0 L 83.0 0.0 L 82.0 0.0 L 81.0 0.0 L 80.0 0.0 L 79.0 0.0 L 78.0 0.0 L 77.0 0.0 L 76.0 0.0 L 75.0 0.0 L 74.0 0.0 L 73.0 0.0 L 72.0 0.0 L 71.0 0.0 L 70.0 0.0 L 69.0 0.0 L 68.0 0.0 L 67.0 0.0 L 66.0 0.0 L 65.0 0.0 L 64.0 0.0 L 63.0 0.0 L 62.0 0.0 L 61.0 0.0 L 60.0 0.0 L 59.0 0.0 L 58.0 0.0 L 57.0 0.0 L 56.0 0.0 L 55.0 0.0 L 54.0 0.0 L 53.0 0.0 L 52.0 0.0 L 51.0 0.0 L 50.0 0.0 L 49.0 0.0 L 48.0 0.0 L 47.0 0.0 L 46.0 0.0 L 45.0 0.0 L 44.0 0.0 L 43.0 0.0 L 42.0 0.0 L 41.0 0.0 L 40.0 0.0 L 39.0 0.0 L 38.0 0.0 L 37.0 0.0 L 36.0 0.0 L 35.0 0.0 L 34.0 0.0 L 33.0 0.0 L 32.0 0.0 L 31.0 0.0 L 30.0 0.0 L 29.0 0.0 L 28.0 0.0 L 27.0 0.0 L 26.0 0.0 L 25.0 0.0 L 24.0 0.0 L 23.0 0.0 L 22.0 0.0 L 21.0 0.0 L 20.0 0.0 L 19.0 0.0 L 18.0 0.0 L 17.0 0.0 L 16.0 0.0 L 15.0 0.0 L 14.0 0.0 L 13.0 0.0 L 12.0 0.0 L 11.0 0.0 L 10.0 0.0 L 9.0 0.0 L 8.0 0.0 L 7.0 0.0 L 6.0 0.0 L 5.0 0.0 L 4.0 0.0 L 3.0 0.0 L 2.0 0.0 L 1.0 0.0 L 0.3333333333333333 0.3333333333333333 L 0.0 1.0 L 0.0 2.0 L 0.0 3.0 L 0.0 4.0 L 0.0 5.0 L 0.0 6.0 L 0.0 7.0 L 0.0 8.0 L 0.0 9.0 L 0.0 10.0 L 0.0 11.0 L 0.0 12.0 L 0.0 13.0 L 0.0 14.0 L 0.0 15.0 L 0.0 16.0 L 0.0 17.0 L 0.0 18.0 L 0.0 19.0 L 0.0 20.0 L 0.0 21.0 L 0.0 22.0 L 0.0 23.0 L 0.0 24.0 L 0.0 25.0 L 0.0 26.0 L 0.0 27.0 L 0.0 28.0 L 0.0 29.0 L 0.0 30.0 L 0.0 31.0 L 0.0 32.0 L 0.0 33.0 L 0.0 34.0 L 0.0 35.0 L 0.0 36.0 L 0.0 37.0 L 0.0 38.0 L 0.0 39.0 L 0.0 40.0 L 0.0 41.0 L 0.0 42.0 L 0.0 43.0 L 0.0 44.0 L 0.0 45.0 L 0.0 46.0 L 0.0 47.0 L 0.0 48.0 L 0.0 49.0 L 0.0 50.0 L 0.0 51.0 L 0.0 52.0 L 0.0 53.0 L 0.0 54.0 L 0.0 55.0 L 0.0 56.0 L 0.0 57.0 L 0.0 58.0 L 0.0 59.0 L 0.0 60.0 L 0.0 61.0 L 0.0 62.0 L 0.0 63.0 L 0.0 64.0 L 0.0 65.0 L 0.0 66.0 L 0.0 67.0 L 0.0 68.0 L 0.0 69.0 L 0.0 70.0 L 0.0 71.0 L 0.0 72.0 L 0.0 73.0 L 0.0 74.0 L 0.0 75.0 L 0.0 76.0 L 0.0 77.0 L 0.0 78.0 L 0.0 79.0 L 0.0 80.0 L 0.0 81.0 L 0.0 82.0 L 0.0 83.0 L 0.0 84.0 L 0.0 85.0 L 0.0 86.0 L 0.0 87.0 L 0.0 88.0 L 0.0 89.0 L 0.0 90.0 L 0.0 91.0 L 0.0 92.0 L 0.0 93.0 L 0.0 94.0 L 0.0 95.0 L 0.0 96.0 L 0.0 97.0 L 0.0 98.0 L 0.0 99.0 L 0.0 100.0 L 0.0 101.0 L 0.0 102.0 L 0.0 103.0 L 0.0 104.0 L 0.0 105.0 L 0.0 106.0 L 0.0 107.0 L 0.0 108.0 L 0.0 109.0 L 0.0 110.0 L 0.0 111.0 L 0.0 112.0 L 0.0 113.0 L 0.0 114.0 L 0.0 115.0 L 0.0 116.0 L 0.0 117.0 L 0.0 118.0 L 0.0 119.0 L 0.0 120.0 L 0.0 121.0 L 0.0 122.0 L 0.0 123.0 L 0.0 124.0 L 0.0 125.0 L 0.0 126.0 L 0.0 127.0 L 0.3333333333333333 127.66666666666667 L 1.0 128.0 L 2.0 128.0 L 3.0 128.0 L 4.0 128.0 L 5.0 128.0 L 6.0 128.0 L 7.0 128.0 L 8.0 128.0 L 9.0 128.0 L 10.0 128.0 L 11.0 128.0 L 12.0 128.0 L 13.0 128.0 L 14.0 128.0 L 15.0 128.0 L 16.0 128.0 L 17.0 128.0 L 18.0 128.0 L 19.0 128.0 L 20.0 128.0 L 21.0 128.0 L 22.0 128.0 L 23.0 128.0 L 24.0 128.0 L 25.0 128.0 L 26.0 128.0 L 27.0 128.0 L 28.0 128.0 L 29.0 128.0 L 30.0 128.0 L 31.0 128.0 L 32.0 128.0 L 33.0 128.0 L 34.0 128.0 L 35.0 128.0 L 36.0 128.0 L 37.0 128.0 L 38.0 128.0 L 39.0 128.0 L 40.0 128.0 L 41.0 128.0 L 42.0 128.0 L 43.0 128.0 L 44.0 128.0 L 45.0 128.0 L 46.0 128.0 L 47.0 128.0 L 48.0 128.0 L 49.0 128.0 L 50.0 128.0 L 51.0 128.0 L 52.0 128.0 L 53.0 128.0 L 54.0 128.0 L 55.0 128.0 L 56.0 128.0 L 57.0 128.0 L 58.0 128.0 L 59.0 128.0 L 60.0 128.0 L 61.0 128.0 L 62.0 128.0 L 63.0 128.0 L 64.0 128.0 L 65.0 128.0 L 66.0 128.0 L 67.0 128.0 L 68.0 128.0 L 69.0 128.0 L 70.0 128.0 L 71.0 128.0 L 72.0 128.0 L 73.0 128.0 L 74.0 128.0 L 75.0 128.0 L 76.0 128.0 L 77.0 128.0 L 78.0 128.0 L 79.0 128.0 L 80.0 128.0 L 81.0 128.0 L 82.0 128.0 L 83.0 128.0 L 84.0 128.0 L 85.0 128.0 L 86.0 128.0 L 87.0 128.0 L 88.0 128.0 L 89.0 128.0 L 90.0 128.0 L 91.0 128.0 L 92.0 128.0 L 93.0 128.0 L 94.0 128.0 L 95.0 128.0 L 96.0 128.0 L 97.0 128.0 L 98.0 128.0 L 99.0 128.0 L 100.0 128.0 L 101.0 128.0 L 102.0 128.0 L 103.0 128.0 L 104.0 128.0 L 105.0 128.0 L 106.0 128.0 L 107.0 128.0 L 108.0 128.0 L 109.0 128.0 L 110.0 128.0 L 111.0 128.0 L 112.0 128.0 L 113.0 128.0 L 114.0 128.0 L 115.0 128.0 L 116.0 128.0 L 117.0 128.0 L 118.0 128.0 L 119.0 128.0 L 120.0 128.0 L 121.0 128.0 L 122.0 128.0 L 122.5 128.0 Z" stroke="none" fill="rgb(0,0,0)" />
<path d="M 53.5 49.0 L 54.0 49.0 L 55.0 49.0 L 56.0 49.0 L 57.0 49.0 L 58.0 49.0 L 59.0 49.0 L 60.0 49.0 L 61.0 49.0 L 62.0 49.0 L 63.0 49.0 L 64.0 49.0 L 65.0 49.0 L 66.0 49.0 L 67.0 49.0 L 68.0 49.0 L 69.0 49.0 L 70.0 49.0 L 71.0 49.0 L 72.0 49.0 L 73.0 49.0 L 74.0 49.0 L 75.0 49.0 L 76.0 49.0 L 77.0 49.0 L 78.0 49.0 L 79.0 49.0 L 80.0 49.0 L 81.0 49.0 L 82.0 49.0 L 83.0 49.0 L 84.0 49.0 L 85.0 49.0 L 86.0 49.0 L 87.0 49.0 L 88.0 49.0 L 89.0 49.0 L 90.0 49.0 L 91.0 49.0 L 92.0 49.0 L 93.0 48.666666666666664 L 94.0 48.0 L 94.66666666666667 47.0 L 95.0 46.0 L 95.0 45.0 L 95.0 44.0 L 95.0 43.0 L 95.0 42.0 L 95.0 41.0 L 95.0 40.0 L 95.0 39.0 L 95.0 38.0 L 95.0 37.0 L 95.0 36.0 L 95.0 35.0 L 95.0 34.0 L 95.0 33.0 L 95.0 32.0 L 95.0 31.0 L 95.0 30.0 L 95.0 29.0 L 95.33333333333333 28.0 L 95.66666666666667 27.0 L 95.66666666666667 26.0 L 95.33333333333333 25.0 L 95.0 24.0 L 95.0 23.0 L 95.0 22.0 L 95.0 21.0 L 95.0 20.0 L 95.0 19.0 L 95.0 18.0 L 95.0 17.0 L 95.0 16.0 L 95.0 15.0 L 95.0 14.0 L 95.0 13.0 L 95.0 12.0 L 95.0 11.0 L 94.66666666666667 10.0 L 94.33333333333333 9.0 L 93.66666666666667 8.333333333333334 L 93.0 8.0 L 92.0 8.0 L 91.0 8.0 L 90.0 8.0 L 89.0 8.0 L 88.0 8.0 L 87.0 8.0 L 86.0 8.0 L 85.0 8.0 L 84.0 8.0 L 83.0 8.0 L 82.0 8.0 L 81.0 8.0 L 80.0 8.0 L 79.0 8.0 L 78.0 8.0 L 77.0 8.0 L 76.0 8.0 L 75.0 8.0 L 74.0 8.0 L 73.0 8.0 L 72.0 8.0 L 71.0 8.0 L 70.0 8.0 L 69.0 8.0 L 68.0 8.0 L 67.0 8.0 L 66.0 8.0 L 65.0 8.0 L 64.0 8.0 L 63.0 8.0 L 62.0 8.0 L 61.0 8.0 L 60.0 8.0 L 59.0 8.0 L 58.0 8.0 L 57.0 8.0 L 56.0 8.0 L 55.0 8.0 L 54.0 8.0 L 53.0 8.0 L 52.0 8.0 L 51.0 8.0 L 50.0 8.0 L 49.0 8.0 L 48.0 8.0 L 47.0 8.0 L 46.0 8.0 L 45.0 8.0 L 44.0 8.0 L 43.0 8.0 L 42.0 8.0 L 41.0 8.0 L 40.0 8.0 L 39.0 8.0 L 38.0 8.0 L 37.0 8.0 L 36.0 8.0 L 35.0 8.0 L 34.0 8.333333333333334 L 33.333333333333336 9.0 L 33.0 10.0 L 33.0 11.0 L 33.0 12.0 L 33.0 13.0 L 33.0 14.0 L 33.0 15.0 L 33.0 16.0 L 33.0 17.0 L 33.0 18.0 L 33.0 19.0 L 33.0 20.0 L 33.0 21.0 L 33.0 22.0 L 33.0 23.0 L 33.0 24.0 L 33.0 25.0 L 33.0 26.0 L 33.0 27.0 L 33.0 28.0 L 33.0 29.0 L 33.0 30.0 L 33.0 31.0 L 33.0 32.0 L 33.0 33.0 L 33.0 34.0 L 33.0 35.0 L 33.0 36.0 L 33.0 37.0 L 33.0 38.0 L 33.0 39.0 L 33.0 40.0 L 33.0 41.0 L 33.0 42.0 L 33.0 43.0 L 33.0 44.0 L 33.0 45.0 L 33.0 46.0 L 33.0 47.0 L 33.333333333333336 48.0 L 34.0 48.666666666666664 L 35.0 49.0 L 36.0 49.0 L 37.0 49.0 L 38.0 49.0 L 39.0 49.0 L 40.0 49.0 L 41.0 49.0 L 42.0 49.0 L 43.0 49.0 L 44.0 49.0 L 45.0 49.0 L 46.0 49.0 L 47.0 49.0 L 48.0 49.0 L 49.0 49.0 L 50.0 49.0 L 51.0 49.0 L 52.0 49.0 L 52.5 49.0 Z" stroke="none" fill="rgb(223,225,224)" />
<path d="M 88.5 45.0 L 89.0 45.0 L 90.0 45.0 L 90.66666666666667 44.666666666666664 L 91.0 44.0 L 91.0 43.0 L 91.0 42.0 L 91.0 41.0 L 91.0 40.0 L 91.0 39.0 L 91.0 38.0 L 91.0 37.0 L 91.0 36.0 L 91.0 35.0 L 91.0 34.0 L 91.0 33.0 L 91.0 32.0 L 91.0 31.0 L 91.0 30.0 L 91.0 29.0 L 91.0 28.0 L 91.0 27.0 L 91.0 26.0 L 91.0 25.0 L 91.0 24.0 L 91.0 23.0 L 91.0 22.0 L 91.0 21.0 L 91.0 20.0 L 91.0 19.0 L 91.0 18.0 L 91.0 17.0 L 91.0 16.0 L 91.0 15.0 L 91.0 14.0 L 91.0 13.0 L 91.0 12.0 L 90.66666666666667 11.333333333333334 L 90.0 11.0 L 89.0 11.0 L 88.0 11.0 L 87.0 11.0 L 86.0 11.0 L 85.0 11.0 L 84.0 11.0 L 83.0 11.0 L 82.0 11.0 L 81.0 11.0 L 80.0 11.0 L 79.0 11.0 L 78.0 11.0 L 77.0 11.0 L 76.0 11.0 L 75.0 11.0 L 74.0 11.0 L 73.0 11.0 L 72.0 11.0 L 71.0 11.0 L 70.0 11.0 L 69.0 11.0 L 68.0 11.0 L 67.0 11.0 L 66.0 11.0 L 65.0 11.0 L 64.0 11.0 L 63.0 11.0 L 62.0 11.0 L 61.0 11.0 L 60.0 11.0 L 59.0 11.0 L 58.0 11.0 L 57.0 11.0 L 56.0 11.0 L 55.0 11.0 L 54.0 11.0 L 53.0 11.0 L 52.0 11.0 L 51.0 11.0 L 50.0 11.0 L 49.0 11.0 L 48.0 11.0 L 47.0 11.0 L 46.0 11.0 L 45.0 11.0 L 44.0 11.0 L 43.0 11.0 L 42.0 11.0 L 41.0 11.0 L 40.0 11.0 L 39.0 11.0 L 38.0 11.0 L 37.333333333333336 11.333333333333334 L 37.0 12.0 L 37.0 13.0 L 37.0 14.0 L 37.0 15.0 L 37.0 16.0 L 37.0 17.0 L 37.0 18.0 L 37.0 19.0 L 37.0 20.0 L 37.0 21.0 L 37.0 22.0 L 37.0 23.0 L 37.0 24.0 L 37.0 25.0 L 37.0 26.0 L 37.0 27.0 L 37.0 28.0 L 37.0 29.0 L 37.0 30.0 L 37.0 31.0 L 37.0 32.0 L 37.0 33.0 L 37.0 34.0 L 37.0 35.0 L 37.0 36.0 L 37.0 37.0 L 37.0 38.0 L 37.0 39.0 L 37.0 40.0 L 37.0 41.0 L 37.0 42.0 L 37.0 43.0 L 37.0 44.0 L 37.333333333333336 44.666666666666664 L 38.0 45.0 L 39.0 45.0 L 40.0 45.0 L 41.0 45.0 L 42.0 45.0 L 43.0 45.0 L 44.0 45.0 L 45.0 45.0 L 46.0 45.0 L 47.0 45.0 L 48.0 45.0 L 49.0 45.0 L 50.0 45.0 L 51.0 45.0 L 52.0 45.0 L 53.0 45.0 L 54.0 45.0 L 55.0 45.0 L 56.0 45.0 L 57.0 45.0 L 58.0 45.0 L 59.0 45.0 L 60.0 45.0 L 61.0 45.0 L 62.0 45.0 L 63.0 45.0 L 64.0 45.0 L 65.0 45.0 L 66.0 45.0 L 67.0 45.0 L 68.0 45.0 L 69.0 45.0 L 70.0 45.0 L 71.0 45.0 L 72.0 45.0 L 73.0 45.0 L 74.0 45.0 L 75.0 45.0 L 76.0 45.0 L 77.0 45.0 L 78.0 45.0 L 79.0 45.0 L 80.0 45.0 L 81.0 45.0 L 82.0 45.0 L 83.0 45.0 L 84.0 45.0 L 85.0 45.0 L 86.0 45.0 L 87.0 45.0 L 87.5 45.0 Z" stroke="none" fill="rgb(27,147,114)" />
<path d="M 50.5 27.0 L 51.0 27.0 L 52.0 27.0 L 53.0 27.0 L 54.0 26.666666666666668 L 55.0 26.0 L 55.666666666666664 25.0 L 56.333333333333336 24.0 L 56.666666666666664 23.0 L 57.0 22.0 L 57.0 21.0 L 57.0 20.0 L 56.666666666666664 19.0 L 56.0 18.0 L 55.0 17.0 L 54.0 16.0 L 53.0 15.333333333333334 L 52.0 15.0 L 51.0 15.0 L 50.0 15.0 L 49.0 15.333333333333334 L 48.0 15.666666666666666 L 47.0 16.333333333333332 L 46.333333333333336 17.0 L 45.666666666666664 18.0 L 45.333333333333336 19.0 L 45.0 20.0 L 45.0 21.0 L 45.0 22.0 L 45.333333333333336 23.0 L 45.666666666666664 24.0 L 46.333333333333336 25.0 L 47.0 25.666666666666668 L 48.0 26.333333333333332 L 49.0 26.666666666666668 L 49.5 27.0 Z" stroke="none" fill="rgb(133,213,158)" />
<path d="M 23.5 25.5 L 24.0 26.0 L 25.0 27.0 L 26.0 28.0 L 27.0 29.0 L 28.0 30.0 L 29.0 31.0 L 30.0 32.0 L 31.0 33.0 L 32.0 33.666666666666664 L 32.666666666666664 33.666666666666664 L 33.0 33.0 L 33.0 32.0 L 33.0 31.0 L 33.0 30.0 L 33.0 29.0 L 33.0 28.0 L 32.666666666666664 27.0 L 32.0 26.0 L 31.0 25.0 L 30.0 24.0 L 29.666666666666668 23.0 L 30.0 22.333333333333332 L 31.0 22.0 L 32.0 22.0 L 32.666666666666664 21.666666666666668 L 33.0 21.0 L 33.0 20.0 L 33.0 19.0 L 33.0 18.0 L 32.666666666666664 17.333333333333332 L 32.0 17.0 L 31.0 17.0 L 30.0 17.0 L 29.0 17.0 L 28.0 17.0 L 27.0 17.0 L 26.0 17.0 L 25.0 17.0 L 24.0 17.0 L 23.0 17.0 L 22.0 17.0 L 21.0 17.0 L 20.0 17.0 L 19.0 17.0 L 18.0 17.0 L 17.0 17.0 L 16.0 17.0 L 15.0 17.0 L 14.0 17.0 L 13.0 17.0 L 12.333333333333334 17.333333333333332 L 11.666666666666666 18.0 L 11.333333333333334 19.0 L 11.333333333333334 20.0 L 11.666666666666666 21.0 L 12.333333333333334 21.666666666666668 L 13.0 22.0 L 14.0 22.0 L 15.0 22.0 L 16.0 22.0 L 17.0 22.0 L 18.0 22.0 L 19.0 22.0 L 20.0 22.333333333333332 L 21.0 23.0 L 22.0 24.0 L 22.5 24.5 Z" stroke="none" fill="rgb(200,200,200)" />
<path d="M 72.5 25.0 L 73.0 25.0 L 74.0 25.0 L 75.0 25.0 L 76.0 25.0 L 77.0 25.0 L 78.0 25.0 L 79.0 25.0 L 80.0 25.0 L 81.0 25.0 L 82.0 25.0 L 83.0 25.0 L 84.0 25.0 L 84.66666666666667 24.666666666666668 L 85.0 24.0 L 85.0 23.0 L 85.0 22.0 L 85.0 21.0 L 85.0 20.0 L 85.0 19.0 L 85.0 18.0 L 84.66666666666667 17.333333333333332 L 84.0 17.0 L 83.0 17.0 L 82.0 17.0 L 81.0 17.0 L 80.0 17.0 L 79.0 17.0 L 78.0 17.0 L 77.0 17.0 L 76.0 17.0 L 75.0 17.0 L 74.0 17.0 L 73.0 17.0 L 72.0 17.0 L 71.0 17.0 L 70.33333333333333 17.333333333333332 L 70.0 18.0 L 70.0 19.0 L 70.0 20.0 L 70.0 21.0 L 70.0 22.0 L 70.0 23.0 L 70.0 24.0 L 70.33333333333333 24.666666666666668 L 71.0 25.0 L 71.5 25.0 Z" stroke="none" fill="rgb(133,213,158)" />
<path d="M 110.5 22.0 L 111.0 22.0 L 112.0 22.0 L 113.0 22.0 L 114.0 22.0 L 115.0 21.666666666666668 L 115.66666666666667 21.0 L 116.0 20.0 L 116.0 19.0 L 115.66666666666667 18.0 L 115.0 17.333333333333332 L 114.0 17.0 L 113.0 17.0 L 112.0 17.0 L 111.0 17.0 L 110.0 17.0 L 109.0 17.0 L 108.0 17.0 L 107.0 17.0 L 106.0 17.0 L 105.0 17.0 L 104.0 17.0 L 103.0 17.0 L 102.0 17.0 L 101.0 17.0 L 100.0 17.0 L 99.0 17.0 L 98.0 17.0 L 97.0 17.0 L 96.0 17.0 L 95.33333333333333 17.333333333333332 L 95.0 18.0 L 95.0 19.0 L 95.0 20.0 L 95.0 21.0 L 95.33333333333333 21.666666666666668 L 96.0 22.0 L 97.0 22.0 L 98.0 22.333333333333332 L 98.33333333333333 23.0 L 98.0 24.0 L 97.0 25.0 L 96.0 26.0 L 95.33333333333333 27.0 L 95.0 28.0 L 95.0 29.0 L 95.0 30.0 L 95.0 31.0 L 95.0 32.0 L 95.0 33.0 L 95.33333333333333 33.666666666666664 L 96.0 33.666666666666664 L 97.0 33.0 L 98.0 32.0 L 99.0 31.0 L 100.0 30.0 L 101.0 29.0 L 102.0 28.0 L 103.0 27.333333333333332 L 103.66666666666667 26.666666666666668 L 104.33333333333333 26.0 L 105.0 25.0 L 106.0 24.0 L 107.0 23.0 L 108.0 22.333333333333332 L 109.0 22.0 L 109.5 22.0 Z" stroke="none" fill="rgb(200,200,200)" />
<path d="M 21.5 36.0 L 22.0 36.0 L 23.0 36.0 L 23.666666666666668 35.666666666666664 L 24.0 35.0 L 24.0 34.0 L 24.0 33.0 L 24.0 32.0 L 24.0 31.0 L 24.0 30.0 L 24.0 29.0 L 24.333333333333332 28.0 L 24.666666666666668 27.0 L 24.666666666666668 26.0 L 24.0 25.0 L 23.0 24.0 L 22.0 23.0 L 21.0 22.333333333333332 L 20.0 22.0 L 19.0 22.0 L 18.0 22.0 L 17.333333333333332 22.333333333333332 L 17.0 23.0 L 17.0 24.0 L 17.0 25.0 L 17.0 26.0 L 17.0 27.0 L 17.0 28.0 L 17.0 29.0 L 17.0 30.0 L 17.0 31.0 L 17.0 32.0 L 17.0 33.0 L 17.0 34.0 L 17.0 35.0 L 17.333333333333332 35.666666666666664 L 18.0 36.0 L 19.0 36.0 L 20.0 36.0 L 20.5 36.0 Z" stroke="none" fill="rgb(154,154,154)" />
<path d="M 30.5 25.5 L 31.0 26.0 L 32.0 26.666666666666668 L 32.666666666666664 26.666666666666668 L 33.0 26.0 L 33.0 25.0 L 33.0 24.0 L 33.0 23.0 L 32.666666666666664 22.333333333333332 L 32.0 22.0 L 31.0 22.0 L 30.0 22.0 L 29.333333333333332 22.333333333333332 L 29.0 23.0 L 29.333333333333332 24.0 L 29.5 24.5 Z" stroke="none" fill="rgb(0,0,0)" />
<path d="M 97.5 25.5 L 98.0 25.0 L 98.66666666666667 24.0 L 99.0 23.0 L 98.66666666666667 22.333333333333332 L 98.0 22.0 L 97.0 22.0 L 96.0 22.0 L 95.33333333333333 22.333333333333332 L 95.0 23.0 L 95.0 24.0 L 95.0 25.0 L 95.33333333333333 25.666666666666668 L 96.0 26.0 L 96.5 26.0 Z" stroke="none" fill="rgb(0,0,0)" />
<path d="M 105.5 36.0 L 106.0 36.0 L 107.0 36.0 L 108.0 36.0 L 109.0 36.0 L 110.0 36.0 L 110.66666666666667 35.666666666666664 L 111.0 35.0 L 111.0 34.0 L 111.0 33.0 L 111.0 32.0 L 111.0 31.0 L 111.0 30.0 L 111.0 29.0 L 111.0 28.0 L 111.0 27.0 L 111.0 26.0 L 111.0 25.0 L 111.0 24.0 L 111.0 23.0 L 110.66666666666667 22.333333333333332 L 110.0 22.0 L 109.0 22.0 L 108.0 22.0 L 107.0 22.333333333333332 L 106.0 23.0 L 105.0 24.0 L 104.33333333333333 25.0 L 104.0 26.0 L 104.0 27.0 L 104.0 28.0 L 104.0 29.0 L 104.0 30.0 L 104.0 31.0 L 104.0 32.0 L 104.0 33.0 L 104.0 34.0 L 104.0 35.0 L 104.33333333333333 35.666666666666664 L 104.5 36.0 Z" stroke="none" fill="rgb(154,154,154)" />
<path d="M 31.5 36.0 L 32.0 36.0 L 32.666666666666664 35.666666666666664 L 33.0 35.0 L 32.666666666666664 34.0 L 32.0 33.0 L 31.0 32.0 L 30.0 31.0 L 29.0 30.0 L 28.0 29.0 L 27.0 28.0 L 26.0 27.333333333333332 L 25.0 27.0 L 24.333333333333332 27.333333333333332 L 24.0 28.0 L 24.0 29.0 L 24.0 30.0 L 24.0 31.0 L 24.0 32.0 L 24.0 33.0 L 24.0 34.0 L 24.0 35.0 L 24.333333333333332 35.666666666666664 L 25.0 36.0 L 26.0 36.0 L 27.0 36.0 L 28.0 36.0 L 29.0 36.0 L 30.0 36.0 L 30.5 36.0 Z" stroke="none" fill="rgb(0,0,0)" />
<path d="M 104.0 35.5 L 104.0 35.0 L 104.0 34.0 L 104.0 33.0 L 104.0 32.0 L 104.0 31.0 L 104.0 30.0 L 104.0 29.0 L 104.0 28.0 L 103.66666666666667 27.333333333333332 L 103.0 27.0 L 102.0 27.333333333333332 L 101.0 28.0 L 100.0 29.0 L 99.0 30.0 L 98.0 31.0 L 97.0 32.0 L 96.0 33.0 L 95.33333333333333 34.0 L 95.0 35.0 L 95.33333333333333 35.666666666666664 L 96.0 36.0 L 97.0 36.0 L 98.0 36.0 L 99.0 36.0 L 100.0 36.0 L 101.0 36.0 L 102.0 36.0 L 103.0 36.0 L 103.5 36.0 Z" stroke="none" fill="rgb(0,0,0)" />
<path d="M 53.5 40.5 L 54.0 40.0 L 55.0 39.0 L 56.0 38.0 L 57.0 37.0 L 58.0 36.0 L 58.666666666666664 35.0 L 59.0 34.0 L 58.666666666666664 33.333333333333336 L 58.0 33.0 L 57.0 33.0 L 56.0 33.0 L 55.0 32.666666666666664 L 54.0 32.0 L 53.333333333333336 31.0 L 53.0 30.0 L 52.666666666666664 29.333333333333332 L 52.0 29.0 L 51.0 29.0 L 50.0 29.0 L 49.333333333333336 29.333333333333332 L 49.0 30.0 L 49.0 31.0 L 48.666666666666664 32.0 L 48.0 32.666666666666664 L 47.0 33.0 L 46.0 33.0 L 45.0 33.0 L 44.0 33.0 L 43.333333333333336 33.333333333333336 L 43.0 34.0 L 43.333333333333336 35.0 L 44.0 36.0 L 45.0 37.0 L 46.0 38.0 L 47.0 39.0 L 48.0 40.0 L 49.0 41.0 L 50.0 41.666666666666664 L 51.0 42.0 L 52.0 41.666666666666664 L 52.5 41.5 Z" stroke="none" fill="rgb(255,255,255)" />
<path d="M 74.5 39.5 L 75.0 40.0 L 76.0 41.0 L 77.0 41.666666666666664 L 78.0 42.0 L 79.0 41.666666666666664 L 80.0 41.0 L 81.0 40.0 L 82.0 39.0 L 83.0 38.0 L 84.0 37.0 L 84.66666666666667 36.0 L 85.0 35.0 L 84.66666666666667 34.333333333333336 L 84.0 34.0 L 83.0 34.0 L 82.0 33.666666666666664 L 81.0 33.0 L 80.33333333333333 32.0 L 80.0 31.0 L 79.66666666666667 30.333333333333332 L 79.0 30.0 L 78.0 30.0 L 77.0 30.0 L 76.0 30.0 L 75.33333333333333 30.333333333333332 L 75.0 31.0 L 75.0 32.0 L 74.66666666666667 33.0 L 74.0 33.666666666666664 L 73.0 34.0 L 72.0 34.0 L 71.33333333333333 34.333333333333336 L 71.0 35.0 L 71.33333333333333 36.0 L 72.0 37.0 L 73.0 38.0 L 73.5 38.5 Z" stroke="none" fill="rgb(255,255,255)" />
<path d="M 23.5 41.0 L 24.0 41.0 L 25.0 41.0 L 26.0 41.0 L 27.0 41.0 L 28.0 41.0 L 29.0 41.0 L 30.0 41.0 L 31.0 41.0 L 32.0 41.0 L 32.666666666666664 40.666666666666664 L 33.0 40.0 L 33.0 39.0 L 33.0 38.0 L 33.0 37.0 L 32.666666666666664 36.333333333333336 L 32.0 36.0 L 31.0 36.0 L 30.0 36.0 L 29.0 36.0 L 28.0 36.0 L 27.0 36.0 L 26.0 36.0 L 25.0 36.0 L 24.0 36.0 L 23.0 36.0 L 22.0 36.0 L 21.0 36.0 L 20.0 36.0 L 19.0 36.0 L 18.0 36.0 L 17.0 36.0 L 16.0 36.0 L 15.0 36.0 L 14.0 36.0 L 13.0 36.333333333333336 L 12.333333333333334 37.0 L 12.0 38.0 L 12.0 39.0 L 12.0 40.0 L 12.333333333333334 40.666666666666664 L 13.0 41.0 L 14.0 41.0 L 15.0 41.0 L 16.0 41.0 L 17.0 41.0 L 18.0 41.0 L 19.0 41.0 L 20.0 41.0 L 21.0 41.0 L 22.0 41.0 L 22.5 41.0 Z" stroke="none" fill="rgb(200,200,200)" />
<path d="M 104.5 41.0 L 105.0 41.0 L 106.0 41.0 L 107.0 41.0 L 108.0 41.0 L 109.0 41.0 L 110.0 41.0 L 111.0 41.0 L 112.0 41.0 L 113.0 41.0 L 114.0 41.0 L 115.0 41.0 L 115.66666666666667 40.666666666666664 L 116.0 40.0 L 116.0 39.0 L 116.0 38.0 L 115.66666666666667 37.0 L 115.0 36.333333333333336 L 114.0 36.0 L 113.0 36.0 L 112.0 36.0 L 111.0 36.0 L 110.0 36.0 L 109.0 36.0 L 108.0 36.0 L 107.0 36.0 L 106.0 36.0 L 105.0 36.0 L 104.0 36.0 L 103.0 36.0 L 102.0 36.0 L 101.0 36.0 L 100.0 36.0 L 99.0 36.0 L 98.0 36.0 L 97.0 36.0 L 96.0 36.0 L 95.33333333333333 36.333333333333336 L 95.0 37.0 L 95.0 38.0 L 95.0 39.0 L 95.0 40.0 L 95.33333333333333 40.666666666666664 L 96.0 41.0 L 97.0 41.0 L 98.0 41.0 L 99.0 41.0 L 100.0 41.0 L 101.0 41.0 L 102.0 41.0 L 103.0 41.0 L 103.5 41.0 Z" stroke="none" fill="rgb(200,200,200)" />
<path d="M 23.5 79.5 L 23.666666666666668 79.0 L 24.0 78.0 L 24.0 77.0 L 24.0 76.0 L 24.0 75.0 L 24.0 74.0 L 24.0 73.0 L 24.0 72.0 L 24.0 71.0 L 24.0 70.0 L 24.0 69.0 L 24.0 68.0 L 24.333333333333332 67.0 L 24.666666666666668 66.0 L 25.0 65.0 L 24.666666666666668 64.0 L 24.333333333333332 63.0 L 24.0 62.0 L 24.0 61.0 L 24.0 60.0 L 24.0 59.0 L 24.0 58.0 L 24.0 57.0 L 24.0 56.0 L 24.0 55.0 L 24.0 54.0 L 24.0 53.0 L 24.0 52.0 L 24.0 51.0 L 24.0 50.0 L 24.0 49.0 L 24.0 48.0 L 24.0 47.0 L 24.0 46.0 L 24.0 45.0 L 24.0 44.0 L 24.0 43.0 L 24.0 42.0 L 23.666666666666668 41.333333333333336 L 23.0 41.0 L 22.0 41.0 L 21.0 41.0 L 20.0 41.0 L 19.0 41.0 L 18.0 41.0 L 17.333333333333332 41.333333333333336 L 17.0 42.0 L 17.0 43.0 L 17.0 44.0 L 17.0 45.0 L 17.0 46.0 L 17.0 47.0 L 17.0 48.0 L 17.0 49.0 L 17.0 50.0 L 17.0 51.0 L 17.0 52.0 L 17.0 53.0 L 17.0 54.0 L 17.0 55.0 L 17.0 56.0 L 17.0 57.0 L 17.0 58.0 L 17.0 59.0 L 17.0 60.0 L 17.0 61.0 L 17.0 62.0 L 17.0 63.0 L 17.0 64.0 L 17.0 65.0 L 17.0 66.0 L 17.0 67.0 L 17.0 68.0 L 17.0 69.0 L 17.0 70.0 L 17.0 71.0 L 17.0 72.0 L 17.0 73.0 L 17.0 74.0 L 17.0 75.0 L 17.0 76.0 L 17.0 77.0 L 17.0 78.0 L 17.333333333333332 79.0 L 18.0 79.66666666666667 L 19.0 80.0 L 20.0 80.0 L 21.0 80.0 L 22.0 80.0 L 22.5 80.0 Z" stroke="none" fill="rgb(154,154,154)" />
<path d="M 57.5 65.0 L 58.0 65.0 L 59.0 64.66666666666667 L 60.0 64.66666666666667 L 61.0 64.66666666666667 L 62.0 64.66666666666667 L 63.0 64.33333333333333 L 64.0 64.0 L 65.0 64.0 L 66.0 64.0 L 67.0 64.33333333333333 L 68.0 64.66666666666667 L 69.0 64.66666666666667 L 70.0 64.66666666666667 L 71.0 64.66666666666667 L 72.0 64.66666666666667 L 73.0 64.33333333333333 L 74.0 64.0 L 75.0 64.33333333333333 L 76.0 64.66666666666667 L 77.0 64.66666666666667 L 78.0 64.66666666666667 L 79.0 65.0 L 80.0 66.0 L 81.0 66.66666666666667 L 81.66666666666667 66.66666666666667 L 82.33333333333333 66.0 L 82.66666666666667 65.0 L 83.0 64.0 L 83.33333333333333 63.0 L 84.0 62.0 L 85.0 61.333333333333336 L 86.0 60.666666666666664 L 87.0 60.333333333333336 L 88.0 59.666666666666664 L 89.0 59.0 L 90.0 58.333333333333336 L 91.0 57.666666666666664 L 92.0 57.333333333333336 L 93.0 57.0 L 94.0 56.666666666666664 L 95.0 56.333333333333336 L 96.0 56.0 L 97.0 56.0 L 98.0 56.0 L 99.0 56.0 L 100.0 56.0 L 101.0 56.0 L 102.0 56.0 L 103.0 56.0 L 103.66666666666667 55.666666666666664 L 104.0 55.0 L 104.0 54.0 L 104.0 53.0 L 104.0 52.0 L 104.0 51.0 L 104.0 50.0 L 104.0 49.0 L 104.0 48.0 L 104.0 47.0 L 104.0 46.0 L 104.0 45.0 L 104.0 44.0 L 104.0 43.0 L 104.0 42.0 L 103.66666666666667 41.333333333333336 L 103.0 41.0 L 102.0 41.0 L 101.0 41.0 L 100.0 41.0 L 99.0 41.0 L 98.0 41.0 L 97.0 41.0 L 96.0 41.0 L 95.33333333333333 41.333333333333336 L 95.0 42.0 L 95.0 43.0 L 95.0 44.0 L 95.0 45.0 L 94.66666666666667 46.0 L 94.0 47.0 L 93.0 48.0 L 92.0 48.666666666666664 L 91.0 49.0 L 90.0 49.0 L 89.0 49.0 L 88.0 49.0 L 87.0 49.0 L 86.0 49.0 L 85.0 49.0 L 84.0 49.0 L 83.0 49.0 L 82.0 49.0 L 81.0 49.0 L 80.0 49.0 L 79.0 49.0 L 78.0 49.0 L 77.0 49.0 L 76.0 49.0 L 75.0 49.0 L 74.0 49.0 L 73.0 49.0 L 72.0 49.0 L 71.0 49.0 L 70.0 49.0 L 69.0 49.0 L 68.0 49.0 L 67.0 49.0 L 66.0 49.0 L 65.0 49.0 L 64.0 49.0 L 63.0 49.0 L 62.0 49.0 L 61.0 49.0 L 60.0 49.0 L 59.0 49.0 L 58.0 49.0 L 57.0 49.0 L 56.0 49.0 L 55.0 49.0 L 54.0 49.0 L 53.0 49.0 L 52.0 49.0 L 51.0 49.0 L 50.0 49.0 L 49.0 49.0 L 48.0 49.0 L 47.0 49.0 L 46.0 49.0 L 45.0 49.0 L 44.0 49.0 L 43.0 49.0 L 42.0 49.0 L 41.0 49.0 L 40.0 49.0 L 39.0 49.0 L 38.0 49.0 L 37.0 49.0 L 36.0 49.0 L 35.0 48.666666666666664 L 34.0 48.0 L 33.333333333333336 47.0 L 33.0 46.0 L 33.0 45.0 L 33.0 44.0 L 33.0 43.0 L 33.0 42.0 L 32.666666666666664 41.333333333333336 L 32.0 41.0 L 31.0 41.0 L 30.0 41.0 L 29.0 41.0 L 28.0 41.0 L 27.0 41.0 L 26.0 41.0 L 25.0 41.0 L 24.333333333333332 41.333333333333336 L 24.0 42.0 L 24.0 43.0 L 24.0 44.0 L 24.0 45.0 L 24.0 46.0 L 24.0 47.0 L 24.0 48.0 L 24.0 49.0 L 24.0 50.0 L 24.0 51.0 L 24.0 52.0 L 24.0 53.0 L 24.0 54.0 L 24.333333333333332 54.666666666666664 L 25.0 55.0 L 26.0 55.0 L 27.0 55.0 L 28.0 55.333333333333336 L 29.0 55.666666666666664 L 30.0 56.0 L 31.0 56.0 L 32.0 56.0 L 33.0 56.333333333333336 L 34.0 56.666666666666664 L 35.0 57.0 L 36.0 57.0 L 37.0 57.333333333333336 L 38.0 57.666666666666664 L 39.0 58.333333333333336 L 40.0 58.666666666666664 L 41.0 59.333333333333336 L 42.0 60.0 L 43.0 60.666666666666664 L 44.0 61.333333333333336 L 45.0 62.0 L 46.0 63.0 L 47.0 64.0 L 47.666666666666664 65.0 L 48.333333333333336 66.0 L 49.0 66.66666666666667 L 50.0 67.0 L 51.0 67.0 L 52.0 66.66666666666667 L 53.0 66.0 L 54.0 65.33333333333333 L 55.0 65.0 L 56.0 65.0 L 56.5 65.0 Z" stroke="none" fill="rgb(0,0,0)" />
<path d="M 105.5 82.0 L 106.0 82.0 L 107.0 82.0 L 108.0 82.0 L 109.0 82.0 L 110.0 82.0 L 110.66666666666667 81.66666666666667 L 111.0 81.0 L 111.0 80.0 L 111.0 79.0 L 111.0 78.0 L 111.0 77.0 L 111.0 76.0 L 111.0 75.0 L 111.0 74.0 L 111.0 73.0 L 111.0 72.0 L 111.0 71.0 L 111.0 70.0 L 111.0 69.0 L 111.0 68.0 L 111.0 67.0 L 111.0 66.0 L 111.0 65.0 L 111.0 64.0 L 111.0 63.0 L 111.0 62.0 L 111.0 61.0 L 111.0 60.0 L 111.0 59.0 L 111.0 58.0 L 111.0 57.0 L 111.0 56.0 L 111.0 55.0 L 111.0 54.0 L 111.0 53.0 L 111.0 52.0 L 111.0 51.0 L 111.0 50.0 L 111.0 49.0 L 111.0 48.0 L 111.0 47.0 L 111.0 46.0 L 111.0 45.0 L 111.0 44.0 L 111.0 43.0 L 111.0 42.0 L 110.66666666666667 41.333333333333336 L 110.0 41.0 L 109.0 41.0 L 108.0 41.0 L 107.0 41.0 L 106.0 41.0 L 105.0 41.0 L 104.33333333333333 41.333333333333336 L 104.0 42.0 L 104.0 43.0 L 104.0 44.0 L 104.0 45.0 L 104.0 46.0 L 104.0 47.0 L 104.0 48.0 L 104.0 49.0 L 104.0 50.0 L 104.0 51.0 L 104.0 52.0 L 104.0 53.0 L 104.0 54.0 L 104.0 55.0 L 104.0 56.0 L 104.0 57.0 L 104.0 58.0 L 104.0 59.0 L 104.0 60.0 L 104.0 61.0 L 104.0 62.0 L 104.0 63.0 L 104.0 64.0 L 104.0 65.0 L 104.0 66.0 L 104.0 67.0 L 104.0 68.0 L 104.0 69.0 L 104.0 70.0 L 104.0 71.0 L 104.0 72.0 L 104.0 73.0 L 104.0 74.0 L 104.0 75.0 L 104.0 76.0 L 104.0 77.0 L 104.0 78.0 L 104.0 79.0 L 104.0 80.0 L 104.33333333333333 81.0 L 104.5 81.5 Z" stroke="none" fill="rgb(154,154,154)" />
<path d="M 121.5 60.5 L 122.0 61.0 L 122.66666666666667 62.0 L 123.0 63.0 L 123.33333333333333 63.666666666666664 L 124.0 64.0 L 124.66666666666667 63.666666666666664 L 125.0 63.0 L 125.0 62.0 L 125.0 61.0 L 125.0 60.0 L 125.0 59.0 L 125.0 58.0 L 125.0 57.0 L 125.0 56.0 L 125.0 55.0 L 125.0 54.0 L 125.0 53.0 L 125.0 52.0 L 125.0 51.0 L 125.0 50.0 L 125.0 49.0 L 124.66666666666667 48.333333333333336 L 124.0 48.0 L 123.0 48.0 L 122.0 48.0 L 121.0 48.0 L 120.0 48.0 L 119.0 48.333333333333336 L 118.0 48.666666666666664 L 117.0 49.0 L 116.0 49.333333333333336 L 115.0 49.666666666666664 L 114.0 50.0 L 113.0 50.333333333333336 L 112.0 50.666666666666664 L 111.33333333333333 51.333333333333336 L 111.0 52.0 L 111.0 53.0 L 111.0 54.0 L 111.0 55.0 L 111.0 56.0 L 111.0 57.0 L 111.0 58.0 L 111.0 59.0 L 111.33333333333333 59.666666666666664 L 112.0 60.0 L 113.0 60.0 L 114.0 60.333333333333336 L 115.0 60.666666666666664 L 116.0 61.0 L 117.0 61.0 L 118.0 61.0 L 119.0 60.666666666666664 L 120.0 60.333333333333336 L 120.5 60.0 Z" stroke="none" fill="rgb(161,209,218)" />
<path d="M 5.5 66.0 L 5.666666666666667 65.66666666666667 L 6.0 65.0 L 6.0 64.0 L 6.0 63.0 L 6.333333333333333 62.0 L 7.0 61.0 L 8.0 60.333333333333336 L 9.0 60.333333333333336 L 10.0 60.666666666666664 L 11.0 60.666666666666664 L 11.666666666666666 60.0 L 12.0 59.0 L 12.333333333333334 58.0 L 13.0 57.0 L 14.0 56.333333333333336 L 15.0 56.333333333333336 L 16.0 56.666666666666664 L 16.666666666666668 56.666666666666664 L 17.0 56.0 L 17.0 55.0 L 17.0 54.0 L 17.0 53.0 L 16.666666666666668 52.0 L 16.0 51.333333333333336 L 15.0 50.666666666666664 L 14.0 50.333333333333336 L 13.0 50.0 L 12.0 49.666666666666664 L 11.0 49.333333333333336 L 10.0 49.0 L 9.0 49.0 L 8.0 49.0 L 7.0 49.0 L 6.0 49.0 L 5.0 49.0 L 4.0 49.0 L 3.3333333333333335 49.333333333333336 L 3.0 50.0 L 3.0 51.0 L 3.0 52.0 L 3.0 53.0 L 3.0 54.0 L 3.0 55.0 L 3.0 56.0 L 3.0 57.0 L 3.0 58.0 L 3.0 59.0 L 3.0 60.0 L 3.0 61.0 L 3.0 62.0 L 3.0 63.0 L 3.0 64.0 L 3.3333333333333335 65.0 L 4.0 65.66666666666667 L 4.5 66.0 Z" stroke="none" fill="rgb(161,209,218)" />
<path d="M 8.5 65.0 L 9.0 65.0 L 10.0 65.0 L 11.0 65.0 L 12.0 65.0 L 13.0 65.0 L 14.0 65.0 L 15.0 65.0 L 16.0 65.0 L 16.666666666666668 64.66666666666667 L 17.0 64.0 L 17.0 63.0 L 17.0 62.0 L 17.0 61.0 L 17.0 60.0 L 17.0 59.0 L 17.0 58.0 L 16.666666666666668 57.0 L 16.0 56.0 L 15.0 55.333333333333336 L 14.0 55.333333333333336 L 13.0 56.0 L 12.333333333333334 57.0 L 12.0 58.0 L 11.666666666666666 59.0 L 11.0 59.666666666666664 L 10.0 60.0 L 9.0 60.0 L 8.0 60.0 L 7.0 60.333333333333336 L 6.333333333333333 61.0 L 6.0 62.0 L 6.0 63.0 L 6.0 64.0 L 6.333333333333333 64.66666666666667 L 7.0 65.0 L 7.5 65.0 Z" stroke="none" fill="rgb(82,143,45)" />
<path d="M 26.5 62.5 L 27.0 62.333333333333336 L 28.0 62.0 L 29.0 61.666666666666664 L 30.0 61.0 L 31.0 60.666666666666664 L 32.0 61.0 L 33.0 62.0 L 33.666666666666664 63.0 L 34.0 64.0 L 34.333333333333336 64.66666666666667 L 35.0 65.0 L 36.0 65.0 L 37.0 65.0 L 38.0 65.0 L 39.0 65.0 L 40.0 65.0 L 41.0 65.0 L 42.0 65.0 L 43.0 65.0 L 44.0 65.0 L 45.0 65.0 L 46.0 65.0 L 47.0 65.0 L 47.666666666666664 64.66666666666667 L 47.666666666666664 64.0 L 47.0 63.0 L 46.0 62.0 L 45.0 61.333333333333336 L 44.0 60.666666666666664 L 43.0 60.0 L 42.0 59.333333333333336 L 41.0 58.666666666666664 L 40.0 58.333333333333336 L 39.0 57.666666666666664 L 38.0 57.333333333333336 L 37.0 57.0 L 36.0 57.0 L 35.0 56.666666666666664 L 34.0 56.333333333333336 L 33.0 56.0 L 32.0 56.0 L 31.0 56.0 L 30.0 55.666666666666664 L 29.0 55.333333333333336 L 28.0 55.0 L 27.0 55.0 L 26.0 55.0 L 25.0 55.0 L 24.333333333333332 55.333333333333336 L 24.0 56.0 L 24.0 57.0 L 24.0 58.0 L 24.0 59.0 L 24.0 60.0 L 24.0 61.0 L 24.0 62.0 L 24.0 63.0 L 24.333333333333332 63.666666666666664 L 25.0 63.666666666666664 L 25.5 63.5 Z" stroke="none" fill="rgb(161,209,218)" />
<path d="M 91.5 64.0 L 92.0 64.0 L 93.0 64.0 L 94.0 64.0 L 95.0 64.0 L 96.0 64.0 L 97.0 64.0 L 98.0 64.0 L 99.0 64.0 L 100.0 64.0 L 101.0 63.666666666666664 L 102.0 63.0 L 103.0 62.333333333333336 L 103.66666666666667 61.666666666666664 L 104.0 61.0 L 104.0 60.0 L 104.0 59.0 L 104.0 58.0 L 104.0 57.0 L 103.66666666666667 56.333333333333336 L 103.0 56.0 L 102.0 56.0 L 101.0 56.0 L 100.0 56.0 L 99.0 56.0 L 98.0 56.0 L 97.0 56.0 L 96.0 56.0 L 95.0 56.0 L 94.0 56.333333333333336 L 93.0 56.666666666666664 L 92.0 57.0 L 91.0 57.333333333333336 L 90.0 57.666666666666664 L 89.0 58.333333333333336 L 88.0 59.0 L 87.0 59.666666666666664 L 86.0 60.333333333333336 L 85.0 60.666666666666664 L 84.0 61.333333333333336 L 83.33333333333333 62.0 L 83.0 63.0 L 83.33333333333333 63.666666666666664 L 84.0 64.0 L 85.0 64.0 L 86.0 64.0 L 87.0 64.0 L 88.0 64.0 L 89.0 64.0 L 90.0 64.0 L 90.5 64.0 Z" stroke="none" fill="rgb(161,209,218)" />
<path d="M 112.5 65.0 L 113.0 65.0 L 114.0 65.0 L 115.0 65.0 L 116.0 65.0 L 117.0 65.0 L 118.0 65.0 L 119.0 65.0 L 120.0 65.0 L 121.0 65.0 L 122.0 65.0 L 122.66666666666667 64.66666666666667 L 123.0 64.0 L 123.0 63.0 L 123.0 62.0 L 122.66666666666667 61.0 L 122.0 60.0 L 121.0 59.333333333333336 L 120.0 59.333333333333336 L 119.0 60.0 L 118.0 60.666666666666664 L 117.0 61.0 L 116.0 60.666666666666664 L 115.0 60.333333333333336 L 114.0 60.0 L 113.0 60.0 L 112.0 60.0 L 111.33333333333333 60.333333333333336 L 111.0 61.0 L 111.0 62.0 L 111.0 63.0 L 111.0 64.0 L 111.33333333333333 64.66666666666667 L 111.5 65.0 Z" stroke="none" fill="rgb(82,143,45)" />
<path d="M 31.5 65.0 L 32.0 65.0 L 33.0 65.0 L 33.666666666666664 64.66666666666667 L 34.0 64.0 L 34.0 63.0 L 33.666666666666664 62.0 L 33.0 61.0 L 32.0 60.333333333333336 L 31.0 60.0 L 30.0 60.333333333333336 L 29.0 61.0 L 28.0 61.666666666666664 L 27.0 62.0 L 26.0 62.333333333333336 L 25.333333333333332 63.0 L 25.0 64.0 L 25.333333333333332 64.66666666666667 L 26.0 65.0 L 27.0 65.0 L 28.0 65.0 L 29.0 65.0 L 30.0 65.0 L 30.5 65.0 Z" stroke="none" fill="rgb(82,143,45)" />
<path d="M 104.0 64.5 L 104.0 64.0 L 104.0 63.0 L 103.66666666666667 62.333333333333336 L 103.0 62.0 L 102.0 62.333333333333336 L 101.33333333333333 63.0 L 101.0 64.0 L 101.33333333333333 64.66666666666667 L 102.0 65.0 L 103.0 65.0 L 103.5 65.0 Z" stroke="none" fill="rgb(82,143,45)" />
<path d="M 59.5 68.0 L 60.0 68.0 L 61.0 67.66666666666667 L 61.666666666666664 67.0 L 62.0 66.0 L 61.666666666666664 65.0 L 61.0 64.33333333333333 L 60.0 64.0 L 59.0 64.33333333333333 L 58.333333333333336 65.0 L 58.0 66.0 L 58.333333333333336 67.0 L 58.5 67.5 Z" stroke="none" fill="rgb(255,255,255)" />
<path d="M 59.5 125.0 L 60.0 125.0 L 61.0 125.0 L 62.0 125.0 L 63.0 125.0 L 64.0 125.0 L 65.0 125.0 L 66.0 125.0 L 67.0 125.0 L 68.0 125.0 L 69.0 125.0 L 70.0 125.0 L 71.0 125.0 L 72.0 125.0 L 73.0 125.0 L 74.0 125.0 L 75.0 125.0 L 76.0 125.0 L 77.0 125.0 L 78.0 125.0 L 79.0 125.0 L 80.0 125.0 L 81.0 125.0 L 82.0 125.0 L 83.0 125.0 L 84.0 125.0 L 85.0 125.0 L 86.0 125.0 L 87.0 125.0 L 88.0 125.0 L 89.0 125.0 L 90.0 125.0 L 91.0 125.0 L 92.0 125.0 L 93.0 125.0 L 94.0 125.0 L 95.0 125.0 L 96.0 125.0 L 97.0 125.0 L 98.0 125.0 L 99.0 125.0 L 100.0 125.0 L 101.0 125.0 L 102.0 125.0 L 103.0 125.0 L 104.0 125.0 L 105.0 125.0 L 105.66666666666667 124.66666666666667 L 106.0 124.0 L 105.66666666666667 123.0 L 105.33333333333333 122.0 L 104.66666666666667 121.0 L 104.33333333333333 120.0 L 103.66666666666667 119.0 L 103.33333333333333 118.0 L 102.66666666666667 117.0 L 102.33333333333333 116.0 L 101.66666666666667 115.0 L 101.33333333333333 114.0 L 100.66666666666667 113.0 L 100.33333333333333 112.0 L 99.66666666666667 111.0 L 99.33333333333333 110.0 L 98.66666666666667 109.0 L 98.33333333333333 108.0 L 97.66666666666667 107.0 L 97.33333333333333 106.0 L 96.66666666666667 105.0 L 96.33333333333333 104.0 L 95.66666666666667 103.0 L 95.33333333333333 102.0 L 94.66666666666667 101.0 L 94.33333333333333 100.0 L 93.66666666666667 99.0 L 93.33333333333333 98.0 L 92.66666666666667 97.0 L 92.33333333333333 96.0 L 91.66666666666667 95.0 L 91.33333333333333 94.0 L 90.66666666666667 93.0 L 90.33333333333333 92.0 L 89.66666666666667 91.0 L 89.33333333333333 90.0 L 88.66666666666667 89.0 L 88.33333333333333 88.0 L 87.66666666666667 87.0 L 87.33333333333333 86.0 L 86.66666666666667 85.0 L 86.33333333333333 84.0 L 85.66666666666667 83.0 L 85.33333333333333 82.0 L 84.66666666666667 81.0 L 84.33333333333333 80.0 L 83.66666666666667 79.0 L 83.33333333333333 78.0 L 82.66666666666667 77.0 L 82.33333333333333 76.0 L 81.66666666666667 75.0 L 81.33333333333333 74.0 L 80.66666666666667 73.0 L 80.33333333333333 72.0 L 79.66666666666667 71.0 L 79.33333333333333 70.0 L 78.66666666666667 69.0 L 78.33333333333333 68.0 L 77.66666666666667 67.0 L 77.33333333333333 66.0 L 76.66666666666667 65.0 L 76.0 64.33333333333333 L 75.0 64.0 L 74.0 64.0 L 73.0 64.0 L 72.33333333333333 64.33333333333333 L 72.0 65.0 L 71.66666666666667 66.0 L 71.0 67.0 L 70.0 67.33333333333333 L 69.33333333333333 67.0 L 69.0 66.0 L 68.66666666666667 65.0 L 68.0 64.33333333333333 L 67.0 64.0 L 66.0 64.0 L 65.0 64.0 L 64.0 64.0 L 63.0 64.0 L 62.333333333333336 64.33333333333333 L 62.0 65.0 L 61.666666666666664 66.0 L 61.0 67.0 L 60.0 67.33333333333333 L 59.0 67.0 L 58.333333333333336 66.0 L 57.666666666666664 65.33333333333333 L 57.0 65.0 L 56.0 65.0 L 55.0 65.0 L 54.0 65.0 L 53.0 65.33333333333333 L 52.0 66.0 L 51.333333333333336 67.0 L 51.0 68.0 L 50.666666666666664 69.0 L 50.333333333333336 70.0 L 49.666666666666664 71.0 L 49.333333333333336 72.0 L 48.666666666666664 73.0 L 48.333333333333336 74.0 L 47.666666666666664 75.0 L 47.333333333333336 76.0 L 46.666666666666664 77.0 L 46.333333333333336 78.0 L 45.666666666666664 79.0 L 45.0 80.0 L 44.333333333333336 81.0 L 43.666666666666664 82.0 L 43.333333333333336 83.0 L 42.666666666666664 84.0 L 42.333333333333336 85.0 L 41.666666666666664 86.0 L 41.333333333333336 87.0 L 40.666666666666664 88.0 L 40.333333333333336 89.0 L 39.666666666666664 90.0 L 39.333333333333336 91.0 L 38.666666666666664 92.0 L 38.333333333333336 93.0 L 37.666666666666664 94.0 L 37.333333333333336 95.0 L 36.666666666666664 96.0 L 36.333333333333336 97.0 L 35.666666666666664 98.0 L 35.333333333333336 99.0 L 34.666666666666664 100.0 L 34.333333333333336 101.0 L 33.666666666666664 102.0 L 33.333333333333336 103.0 L 32.666666666666664 104.0 L 32.333333333333336 105.0 L 31.666666666666668 106.0 L 31.333333333333332 107.0 L 30.666666666666668 108.0 L 30.333333333333332 109.0 L 29.666666666666668 110.0 L 29.333333333333332 111.0 L 28.666666666666668 112.0 L 28.0 113.0 L 27.333333333333332 114.0 L 26.666666666666668 115.0 L 26.333333333333332 116.0 L 25.666666666666668 117.0 L 25.333333333333332 118.0 L 24.666666666666668 119.0 L 24.333333333333332 120.0 L 23.666666666666668 121.0 L 23.333333333333332 122.0 L 23.0 123.0 L 23.0 124.0 L 23.333333333333332 124.66666666666667 L 24.0 125.0 L 25.0 125.0 L 26.0 125.0 L 27.0 125.0 L 28.0 125.0 L 29.0 125.0 L 30.0 125.0 L 31.0 125.0 L 32.0 125.0 L 33.0 125.0 L 34.0 125.0 L 35.0 125.0 L 36.0 125.0 L 37.0 125.0 L 38.0 125.0 L 39.0 125.0 L 40.0 125.0 L 41.0 125.0 L 42.0 125.0 L 43.0 125.0 L 44.0 125.0 L 45.0 125.0 L 46.0 125.0 L 47.0 125.0 L 48.0 125.0 L 49.0 125.0 L 50.0 125.0 L 51.0 125.0 L 52.0 125.0 L 53.0 125.0 L 54.0 125.0 L 55.0 125.0 L 56.0 125.0 L 57.0 125.0 L 58.0 125.0 L 58.5 125.0 Z" stroke="none" fill="rgb(94,99,103)" />
<path d="M 69.5 68.0 L 70.0 68.0 L 71.0 67.66666666666667 L 71.66666666666667 67.0 L 72.0 66.0 L 71.66666666666667 65.0 L 71.0 64.33333333333333 L 70.0 64.0 L 69.33333333333333 64.33333333333333 L 69.0 65.0 L 69.0 66.0 L 69.0 67.0 L 69.0 67.5 Z" stroke="none" fill="rgb(255,255,255)" />
<path d="M 95.5 103.5 L 95.66666666666667 104.0 L 96.33333333333333 105.0 L 96.66666666666667 106.0 L 97.33333333333333 107.0 L 97.66666666666667 108.0 L 98.33333333333333 109.0 L 98.66666666666667 110.0 L 99.33333333333333 111.0 L 99.66666666666667 112.0 L 100.33333333333333 113.0 L 100.66666666666667 114.0 L 101.33333333333333 115.0 L 101.66666666666667 116.0 L 102.33333333333333 117.0 L 102.66666666666667 118.0 L 103.33333333333333 119.0 L 103.66666666666667 120.0 L 104.33333333333333 121.0 L 104.66666666666667 122.0 L 105.33333333333333 123.0 L 105.66666666666667 124.0 L 106.33333333333333 124.66666666666667 L 107.0 125.0 L 108.0 125.0 L 108.66666666666667 124.66666666666667 L 109.0 124.0 L 109.0 123.0 L 108.66666666666667 122.0 L 108.33333333333333 121.0 L 107.66666666666667 120.0 L 107.33333333333333 119.0 L 106.66666666666667 118.0 L 106.33333333333333 117.0 L 105.66666666666667 116.0 L 105.33333333333333 115.0 L 104.66666666666667 114.0 L 104.33333333333333 113.0 L 103.66666666666667 112.0 L 103.33333333333333 111.0 L 102.66666666666667 110.0 L 102.33333333333333 109.0 L 101.66666666666667 108.0 L 101.33333333333333 107.0 L 100.66666666666667 106.0 L 100.33333333333333 105.0 L 99.66666666666667 104.0 L 99.33333333333333 103.0 L 98.66666666666667 102.0 L 98.33333333333333 101.0 L 97.66666666666667 100.0 L 97.33333333333333 99.0 L 96.66666666666667 98.0 L 96.33333333333333 97.0 L 95.66666666666667 96.0 L 95.33333333333333 95.0 L 94.66666666666667 94.0 L 94.33333333333333 93.0 L 93.66666666666667 92.0 L 93.33333333333333 91.0 L 92.66666666666667 90.0 L 92.33333333333333 89.0 L 91.66666666666667 88.0 L 91.33333333333333 87.0 L 90.66666666666667 86.0 L 90.33333333333333 85.0 L 89.66666666666667 84.0 L 89.33333333333333 83.0 L 88.66666666666667 82.0 L 88.33333333333333 81.0 L 87.66666666666667 80.0 L 87.33333333333333 79.0 L 87.0 78.0 L 87.0 77.0 L 87.0 76.0 L 86.66666666666667 75.0 L 86.33333333333333 74.0 L 85.66666666666667 73.0 L 85.0 72.0 L 84.33333333333333 71.0 L 83.66666666666667 70.0 L 83.33333333333333 69.0 L 82.66666666666667 68.0 L 82.0 67.0 L 81.0 66.0 L 80.0 65.0 L 79.0 64.33333333333333 L 78.0 64.0 L 77.33333333333333 64.33333333333333 L 77.0 65.0 L 77.0 66.0 L 77.33333333333333 67.0 L 77.66666666666667 68.0 L 78.33333333333333 69.0 L 78.66666666666667 70.0 L 79.33333333333333 71.0 L 79.66666666666667 72.0 L 80.33333333333333 73.0 L 80.66666666666667 74.0 L 81.33333333333333 75.0 L 81.66666666666667 76.0 L 82.33333333333333 77.0 L 82.66666666666667 78.0 L 83.33333333333333 79.0 L 83.66666666666667 80.0 L 84.33333333333333 81.0 L 84.66666666666667 82.0 L 85.33333333333333 83.0 L 85.66666666666667 84.0 L 86.33333333333333 85.0 L 86.66666666666667 86.0 L 87.33333333333333 87.0 L 87.66666666666667 88.0 L 88.33333333333333 89.0 L 88.66666666666667 90.0 L 89.33333333333333 91.0 L 89.66666666666667 92.0 L 90.33333333333333 93.0 L 90.66666666666667 94.0 L 91.33333333333333 95.0 L 91.66666666666667 96.0 L 92.33333333333333 97.0 L 92.66666666666667 98.0 L 93.33333333333333 99.0 L 93.66666666666667 100.0 L 94.33333333333333 101.0 L 94.66666666666667 102.0 L 95.0 102.5 Z" stroke="none" fill="rgb(255,255,255)" />
<path d="M 122.5 122.5 L 123.0 122.0 L 123.66666666666667 121.0 L 124.33333333333333 120.0 L 124.66666666666667 119.0 L 125.0 118.0 L 125.0 117.0 L 125.0 116.0 L 125.0 115.0 L 125.0 114.0 L 125.0 113.0 L 125.0 112.0 L 125.0 111.0 L 125.0 110.0 L 125.0 109.0 L 125.0 108.0 L 125.0 107.0 L 125.0 106.0 L 125.0 105.0 L 125.0 104.0 L 125.0 103.0 L 125.0 102.0 L 125.0 101.0 L 125.0 100.0 L 125.0 99.0 L 125.0 98.0 L 125.0 97.0 L 125.0 96.0 L 125.0 95.0 L 125.0 94.0 L 125.0 93.0 L 125.0 92.0 L 125.0 91.0 L 125.0 90.0 L 125.0 89.0 L 125.0 88.0 L 125.0 87.0 L 125.0 86.0 L 125.0 85.0 L 125.0 84.0 L 125.0 83.0 L 125.0 82.0 L 125.0 81.0 L 125.0 80.0 L 125.0 79.0 L 125.0 78.0 L 125.0 77.0 L 125.0 76.0 L 125.0 75.0 L 125.0 74.0 L 125.0 73.0 L 125.0 72.0 L 125.0 71.0 L 125.0 70.0 L 125.0 69.0 L 125.0 68.0 L 125.0 67.0 L 125.0 66.0 L 124.66666666666667 65.0 L 124.0 64.33333333333333 L 123.0 64.33333333333333 L 122.0 64.66666666666667 L 121.0 65.0 L 120.0 65.0 L 119.0 65.0 L 118.0 65.0 L 117.0 65.0 L 116.0 65.0 L 115.0 65.0 L 114.0 65.0 L 113.0 65.0 L 112.0 65.0 L 111.33333333333333 65.33333333333333 L 111.0 66.0 L 111.0 67.0 L 111.0 68.0 L 111.0 69.0 L 111.0 70.0 L 111.0 71.0 L 111.0 72.0 L 111.0 73.0 L 111.0 74.0 L 111.0 75.0 L 111.0 76.0 L 111.0 77.0 L 111.0 78.0 L 111.0 79.0 L 111.0 80.0 L 110.66666666666667 81.0 L 110.0 81.66666666666667 L 109.0 82.0 L 108.0 82.0 L 107.0 82.0 L 106.0 81.66666666666667 L 105.0 81.0 L 104.33333333333333 80.0 L 104.0 79.0 L 104.0 78.0 L 104.0 77.0 L 104.0 76.0 L 104.0 75.0 L 104.0 74.0 L 104.0 73.0 L 104.0 72.0 L 104.0 71.0 L 104.0 70.0 L 104.0 69.0 L 104.0 68.0 L 104.0 67.0 L 104.0 66.0 L 103.66666666666667 65.33333333333333 L 103.0 65.0 L 102.0 64.66666666666667 L 101.0 64.33333333333333 L 100.0 64.0 L 99.0 64.0 L 98.0 64.0 L 97.0 64.0 L 96.0 64.0 L 95.0 64.0 L 94.0 64.0 L 93.0 64.0 L 92.0 64.0 L 91.0 64.0 L 90.0 64.0 L 89.0 64.0 L 88.0 64.0 L 87.0 64.0 L 86.0 64.0 L 85.0 64.0 L 84.0 64.0 L 83.0 64.33333333333333 L 82.33333333333333 65.0 L 82.0 66.0 L 82.0 67.0 L 82.33333333333333 68.0 L 82.66666666666667 69.0 L 83.33333333333333 70.0 L 83.66666666666667 71.0 L 84.33333333333333 72.0 L 85.0 73.0 L 85.66666666666667 74.0 L 86.33333333333333 75.0 L 86.66666666666667 76.0 L 87.33333333333333 77.0 L 88.0 78.0 L 89.0 79.0 L 89.66666666666667 80.0 L 90.33333333333333 81.0 L 90.66666666666667 82.0 L 91.33333333333333 83.0 L 92.0 84.0 L 92.66666666666667 85.0 L 93.33333333333333 86.0 L 93.66666666666667 87.0 L 94.33333333333333 88.0 L 94.66666666666667 89.0 L 95.33333333333333 90.0 L 96.0 91.0 L 96.66666666666667 92.0 L 97.33333333333333 93.0 L 97.66666666666667 94.0 L 98.33333333333333 95.0 L 98.66666666666667 96.0 L 99.33333333333333 97.0 L 100.0 98.0 L 100.66666666666667 99.0 L 101.33333333333333 100.0 L 101.66666666666667 101.0 L 102.33333333333333 102.0 L 102.66666666666667 103.0 L 103.33333333333333 104.0 L 104.0 105.0 L 104.66666666666667 106.0 L 105.33333333333333 107.0 L 105.66666666666667 108.0 L 106.33333333333333 109.0 L 106.66666666666667 110.0 L 107.33333333333333 111.0 L 108.0 112.0 L 108.66666666666667 113.0 L 109.33333333333333 114.0 L 109.66666666666667 115.0 L 110.33333333333333 116.0 L 110.66666666666667 117.0 L 111.33333333333333 118.0 L 112.0 119.0 L 112.66666666666667 120.0 L 113.33333333333333 121.0 L 113.66666666666667 122.0 L 114.33333333333333 123.0 L 114.66666666666667 124.0 L 115.33333333333333 124.66666666666667 L 116.0 125.0 L 117.0 125.0 L 118.0 125.0 L 119.0 124.66666666666667 L 120.0 124.33333333333333 L 121.0 123.66666666666667 L 121.5 123.5 Z" stroke="none" fill="rgb(125,178,64)" />
<path d="M 33.0 90.5 L 33.333333333333336 90.0 L 34.0 89.0 L 34.666666666666664 88.0 L 35.333333333333336 87.0 L 35.666666666666664 86.0 L 36.333333333333336 85.0 L 37.0 84.0 L 37.666666666666664 83.0 L 38.333333333333336 82.0 L 38.666666666666664 81.0 L 39.333333333333336 80.0 L 40.0 79.0 L 40.666666666666664 78.0 L 41.333333333333336 77.0 L 42.0 76.0 L 43.0 75.33333333333333 L 44.0 75.0 L 45.0 74.66666666666667 L 45.666666666666664 74.0 L 46.333333333333336 73.0 L 46.666666666666664 72.0 L 47.333333333333336 71.0 L 47.666666666666664 70.0 L 48.333333333333336 69.0 L 48.666666666666664 68.0 L 49.0 67.0 L 48.666666666666664 66.0 L 48.0 65.33333333333333 L 47.0 65.0 L 46.0 65.0 L 45.0 65.0 L 44.0 65.0 L 43.0 65.0 L 42.0 65.0 L 41.0 65.0 L 40.0 65.0 L 39.0 65.0 L 38.0 65.0 L 37.0 65.0 L 36.0 65.0 L 35.0 65.0 L 34.0 65.0 L 33.0 65.0 L 32.0 65.0 L 31.0 65.0 L 30.0 65.0 L 29.0 65.0 L 28.0 65.0 L 27.0 65.0 L 26.0 65.0 L 25.0 65.33333333333333 L 24.333333333333332 66.0 L 24.0 67.0 L 24.0 68.0 L 24.0 69.0 L 24.0 70.0 L 24.0 71.0 L 24.0 72.0 L 24.0 73.0 L 24.0 74.0 L 24.0 75.0 L 24.0 76.0 L 24.0 77.0 L 23.666666666666668 78.0 L 23.0 79.0 L 22.0 79.66666666666667 L 21.0 80.0 L 20.0 80.0 L 19.0 79.66666666666667 L 18.0 79.0 L 17.333333333333332 78.0 L 17.0 77.0 L 17.0 76.0 L 17.0 75.0 L 17.0 74.0 L 17.0 73.0 L 17.0 72.0 L 17.0 71.0 L 17.0 70.0 L 17.0 69.0 L 17.0 68.0 L 17.0 67.0 L 17.0 66.0 L 16.666666666666668 65.33333333333333 L 16.0 65.0 L 15.0 65.0 L 14.0 65.0 L 13.0 65.0 L 12.0 65.0 L 11.0 65.0 L 10.0 65.0 L 9.0 65.0 L 8.0 65.0 L 7.0 65.0 L 6.0 65.33333333333333 L 5.0 65.66666666666667 L 4.0 66.0 L 3.3333333333333335 66.33333333333333 L 3.0 67.0 L 3.0 68.0 L 3.0 69.0 L 3.0 70.0 L 3.0 71.0 L 3.0 72.0 L 3.0 73.0 L 3.0 74.0 L 3.0 75.0 L 3.0 76.0 L 3.0 77.0 L 3.0 78.0 L 3.0 79.0 L 3.0 80.0 L 3.0 81.0 L 3.0 82.0 L 3.0 83.0 L 3.0 84.0 L 3.0 85.0 L 3.0 86.0 L 3.0 87.0 L 3.0 88.0 L 3.0 89.0 L 3.0 90.0 L 3.0 91.0 L 3.0 92.0 L 3.0 93.0 L 3.0 94.0 L 3.0 95.0 L 3.0 96.0 L 3.0 97.0 L 3.0 98.0 L 3.0 99.0 L 3.0 100.0 L 3.0 101.0 L 3.0 102.0 L 3.0 103.0 L 3.0 104.0 L 3.0 105.0 L 3.0 106.0 L 3.0 107.0 L 3.0 108.0 L 3.0 109.0 L 3.0 110.0 L 3.0 111.0 L 3.0 112.0 L 3.0 113.0 L 3.0 114.0 L 3.0 115.0 L 3.0 116.0 L 3.0 117.0 L 3.0 118.0 L 3.3333333333333335 119.0 L 3.6666666666666665 120.0 L 4.333333333333333 121.0 L 5.0 122.0 L 6.0 123.0 L 7.0 123.66666666666667 L 8.0 124.33333333333333 L 9.0 124.66666666666667 L 10.0 125.0 L 11.0 125.0 L 12.0 125.0 L 12.666666666666666 124.66666666666667 L 13.0 124.0 L 13.333333333333334 123.0 L 13.666666666666666 122.0 L 14.333333333333334 121.0 L 15.0 120.0 L 15.666666666666666 119.0 L 16.333333333333332 118.0 L 16.666666666666668 117.0 L 17.333333333333332 116.0 L 18.0 115.0 L 18.666666666666668 114.0 L 19.333333333333332 113.0 L 19.666666666666668 112.0 L 20.333333333333332 111.0 L 21.0 110.0 L 21.666666666666668 109.0 L 22.333333333333332 108.0 L 23.0 107.0 L 23.666666666666668 106.0 L 24.333333333333332 105.0 L 24.666666666666668 104.0 L 25.333333333333332 103.0 L 26.0 102.0 L 26.666666666666668 101.0 L 27.333333333333332 100.0 L 27.666666666666668 99.0 L 28.333333333333332 98.0 L 29.0 97.0 L 29.666666666666668 96.0 L 30.333333333333332 95.0 L 30.666666666666668 94.0 L 31.333333333333332 93.0 L 32.0 92.0 L 32.5 91.5 Z" stroke="none" fill="rgb(125,178,64)" />
<path d="M 24.0 121.5 L 24.333333333333332 121.0 L 24.666666666666668 120.0 L 25.333333333333332 119.0 L 25.666666666666668 118.0 L 26.333333333333332 117.0 L 26.666666666666668 116.0 L 27.333333333333332 115.0 L 28.0 114.0 L 28.666666666666668 113.0 L 29.333333333333332 112.0 L 29.666666666666668 111.0 L 30.333333333333332 110.0 L 30.666666666666668 109.0 L 31.333333333333332 108.0 L 31.666666666666668 107.0 L 32.333333333333336 106.0 L 32.666666666666664 105.0 L 33.333333333333336 104.0 L 33.666666666666664 103.0 L 34.333333333333336 102.0 L 34.666666666666664 101.0 L 35.333333333333336 100.0 L 35.666666666666664 99.0 L 36.333333333333336 98.0 L 36.666666666666664 97.0 L 37.333333333333336 96.0 L 37.666666666666664 95.0 L 38.333333333333336 94.0 L 38.666666666666664 93.0 L 39.333333333333336 92.0 L 39.666666666666664 91.0 L 40.333333333333336 90.0 L 40.666666666666664 89.0 L 41.333333333333336 88.0 L 41.666666666666664 87.0 L 42.333333333333336 86.0 L 42.666666666666664 85.0 L 43.333333333333336 84.0 L 43.666666666666664 83.0 L 44.333333333333336 82.0 L 45.0 81.0 L 45.666666666666664 80.0 L 46.333333333333336 79.0 L 46.666666666666664 78.0 L 47.333333333333336 77.0 L 47.666666666666664 76.0 L 48.333333333333336 75.0 L 48.666666666666664 74.0 L 49.333333333333336 73.0 L 49.666666666666664 72.0 L 50.333333333333336 71.0 L 50.666666666666664 70.0 L 51.0 69.0 L 51.0 68.0 L 50.666666666666664 67.33333333333333 L 50.0 67.0 L 49.0 67.33333333333333 L 48.333333333333336 68.0 L 47.666666666666664 69.0 L 47.333333333333336 70.0 L 46.666666666666664 71.0 L 46.333333333333336 72.0 L 45.666666666666664 73.0 L 45.333333333333336 74.0 L 44.666666666666664 75.0 L 44.333333333333336 76.0 L 43.666666666666664 77.0 L 43.0 78.0 L 42.333333333333336 79.0 L 41.666666666666664 80.0 L 41.333333333333336 81.0 L 40.666666666666664 82.0 L 40.333333333333336 83.0 L 39.666666666666664 84.0 L 39.333333333333336 85.0 L 38.666666666666664 86.0 L 38.333333333333336 87.0 L 37.666666666666664 88.0 L 37.333333333333336 89.0 L 36.666666666666664 90.0 L 36.0 91.0 L 35.333333333333336 92.0 L 34.666666666666664 93.0 L 34.333333333333336 94.0 L 33.666666666666664 95.0 L 33.333333333333336 96.0 L 32.666666666666664 97.0 L 32.333333333333336 98.0 L 31.666666666666668 99.0 L 31.333333333333332 100.0 L 30.666666666666668 101.0 L 30.0 102.0 L 29.333333333333332 103.0 L 28.666666666666668 104.0 L 28.333333333333332 105.0 L 27.666666666666668 106.0 L 27.333333333333332 107.0 L 26.666666666666668 108.0 L 26.333333333333332 109.0 L 25.666666666666668 110.0 L 25.333333333333332 111.0 L 24.666666666666668 112.0 L 24.333333333333332 113.0 L 23.666666666666668 114.0 L 23.0 115.0 L 22.333333333333332 116.0 L 21.666666666666668 117.0 L 21.333333333333332 118.0 L 20.666666666666668 119.0 L 20.333333333333332 120.0 L 19.666666666666668 121.0 L 19.333333333333332 122.0 L 19.0 123.0 L 19.0 124.0 L 19.333333333333332 124.66666666666667 L 20.0 125.0 L 21.0 125.0 L 22.0 125.0 L 22.666666666666668 124.66666666666667 L 23.0 124.0 L 23.333333333333332 123.0 L 23.5 122.5 Z" stroke="none" fill="rgb(255,255,255)" />
<path d="M 59.5 74.0 L 59.666666666666664 73.66666666666667 L 60.0 73.0 L 60.0 72.0 L 60.0 71.0 L 59.666666666666664 70.33333333333333 L 59.0 70.0 L 58.333333333333336 70.33333333333333 L 57.666666666666664 71.0 L 57.333333333333336 72.0 L 57.0 73.0 L 57.333333333333336 73.66666666666667 L 58.0 74.0 L 58.5 74.0 Z" stroke="none" fill="rgb(255,255,255)" />
<path d="M 71.5 74.0 L 71.66666666666667 73.66666666666667 L 72.0 73.0 L 72.0 72.0 L 71.66666666666667 71.33333333333333 L 71.0 71.0 L 70.33333333333333 71.33333333333333 L 70.0 72.0 L 70.0 73.0 L 70.33333333333333 73.66666666666667 L 70.5 74.0 Z" stroke="none" fill="rgb(255,255,255)" />
<path d="M 33.0 97.5 L 33.333333333333336 97.0 L 33.666666666666664 96.0 L 34.333333333333336 95.0 L 34.666666666666664 94.0 L 35.333333333333336 93.0 L 36.0 92.0 L 36.666666666666664 91.0 L 37.333333333333336 90.0 L 37.666666666666664 89.0 L 38.333333333333336 88.0 L 38.666666666666664 87.0 L 39.333333333333336 86.0 L 39.666666666666664 85.0 L 40.333333333333336 84.0 L 40.666666666666664 83.0 L 41.333333333333336 82.0 L 41.666666666666664 81.0 L 42.333333333333336 80.0 L 43.0 79.0 L 43.666666666666664 78.0 L 44.333333333333336 77.0 L 44.666666666666664 76.0 L 44.666666666666664 75.0 L 44.0 74.33333333333333 L 43.0 74.33333333333333 L 42.0 75.0 L 41.333333333333336 76.0 L 40.666666666666664 77.0 L 40.0 78.0 L 39.333333333333336 79.0 L 38.666666666666664 80.0 L 38.333333333333336 81.0 L 37.666666666666664 82.0 L 37.0 83.0 L 36.333333333333336 84.0 L 35.666666666666664 85.0 L 35.333333333333336 86.0 L 34.666666666666664 87.0 L 34.0 88.0 L 33.333333333333336 89.0 L 32.666666666666664 90.0 L 32.0 91.0 L 31.333333333333332 92.0 L 30.666666666666668 93.0 L 30.333333333333332 94.0 L 29.666666666666668 95.0 L 29.0 96.0 L 28.333333333333332 97.0 L 27.666666666666668 98.0 L 27.333333333333332 99.0 L 26.666666666666668 100.0 L 26.0 101.0 L 25.333333333333332 102.0 L 24.666666666666668 103.0 L 24.333333333333332 104.0 L 23.666666666666668 105.0 L 23.0 106.0 L 22.333333333333332 107.0 L 21.666666666666668 108.0 L 21.0 109.0 L 20.333333333333332 110.0 L 19.666666666666668 111.0 L 19.333333333333332 112.0 L 18.666666666666668 113.0 L 18.0 114.0 L 17.333333333333332 115.0 L 16.666666666666668 116.0 L 16.333333333333332 117.0 L 15.666666666666666 118.0 L 15.0 119.0 L 14.333333333333334 120.0 L 13.666666666666666 121.0 L 13.333333333333334 122.0 L 13.0 123.0 L 13.0 124.0 L 13.333333333333334 124.66666666666667 L 14.0 125.0 L 15.0 125.0 L 16.0 125.0 L 17.0 125.0 L 18.0 125.0 L 18.666666666666668 124.66666666666667 L 19.0 124.0 L 19.333333333333332 123.0 L 19.666666666666668 122.0 L 20.333333333333332 121.0 L 20.666666666666668 120.0 L 21.333333333333332 119.0 L 21.666666666666668 118.0 L 22.333333333333332 117.0 L 23.0 116.0 L 23.666666666666668 115.0 L 24.333333333333332 114.0 L 24.666666666666668 113.0 L 25.333333333333332 112.0 L 25.666666666666668 111.0 L 26.333333333333332 110.0 L 26.666666666666668 109.0 L 27.333333333333332 108.0 L 27.666666666666668 107.0 L 28.333333333333332 106.0 L 28.666666666666668 105.0 L 29.333333333333332 104.0 L 30.0 103.0 L 30.666666666666668 102.0 L 31.333333333333332 101.0 L 31.666666666666668 100.0 L 32.333333333333336 99.0 L 32.5 98.5 Z" stroke="none" fill="rgb(94,99,103)" />
<path d="M 95.5 96.5 L 95.66666666666667 97.0 L 96.33333333333333 98.0 L 96.66666666666667 99.0 L 97.33333333333333 100.0 L 97.66666666666667 101.0 L 98.33333333333333 102.0 L 98.66666666666667 103.0 L 99.33333333333333 104.0 L 99.66666666666667 105.0 L 100.33333333333333 106.0 L 100.66666666666667 107.0 L 101.33333333333333 108.0 L 101.66666666666667 109.0 L 102.33333333333333 110.0 L 102.66666666666667 111.0 L 103.33333333333333 112.0 L 103.66666666666667 113.0 L 104.33333333333333 114.0 L 104.66666666666667 115.0 L 105.33333333333333 116.0 L 105.66666666666667 117.0 L 106.33333333333333 118.0 L 106.66666666666667 119.0 L 107.33333333333333 120.0 L 107.66666666666667 121.0 L 108.33333333333333 122.0 L 108.66666666666667 123.0 L 109.0 124.0 L 109.33333333333333 124.66666666666667 L 110.0 125.0 L 111.0 125.0 L 112.0 125.0 L 113.0 125.0 L 114.0 125.0 L 114.66666666666667 124.66666666666667 L 115.0 124.0 L 114.66666666666667 123.0 L 114.33333333333333 122.0 L 113.66666666666667 121.0 L 113.33333333333333 120.0 L 112.66666666666667 119.0 L 112.0 118.0 L 111.33333333333333 117.0 L 110.66666666666667 116.0 L 110.33333333333333 115.0 L 109.66666666666667 114.0 L 109.33333333333333 113.0 L 108.66666666666667 112.0 L 108.0 111.0 L 107.33333333333333 110.0 L 106.66666666666667 109.0 L 106.33333333333333 108.0 L 105.66666666666667 107.0 L 105.33333333333333 106.0 L 104.66666666666667 105.0 L 104.0 104.0 L 103.33333333333333 103.0 L 102.66666666666667 102.0 L 102.33333333333333 101.0 L 101.66666666666667 100.0 L 101.33333333333333 99.0 L 100.66666666666667 98.0 L 100.0 97.0 L 99.33333333333333 96.0 L 98.66666666666667 95.0 L 98.33333333333333 94.0 L 97.66666666666667 93.0 L 97.33333333333333 92.0 L 96.66666666666667 91.0 L 96.0 90.0 L 95.33333333333333 89.0 L 94.66666666666667 88.0 L 94.33333333333333 87.0 L 93.66666666666667 86.0 L 93.33333333333333 85.0 L 92.66666666666667 84.0 L 92.0 83.0 L 91.33333333333333 82.0 L 90.66666666666667 81.0 L 90.33333333333333 80.0 L 89.66666666666667 79.0 L 89.0 78.0 L 88.0 77.33333333333333 L 87.33333333333333 77.33333333333333 L 87.0 78.0 L 87.0 79.0 L 87.33333333333333 80.0 L 87.66666666666667 81.0 L 88.33333333333333 82.0 L 88.66666666666667 83.0 L 89.33333333333333 84.0 L 89.66666666666667 85.0 L 90.33333333333333 86.0 L 90.66666666666667 87.0 L 91.33333333333333 88.0 L 91.66666666666667 89.0 L 92.33333333333333 90.0 L 92.66666666666667 91.0 L 93.33333333333333 92.0 L 93.66666666666667 93.0 L 94.33333333333333 94.0 L 94.66666666666667 95.0 L 95.0 95.5 Z" stroke="none" fill="rgb(94,99,103)" />
<path d="M 56.5 85.0 L 57.0 85.0 L 57.666666666666664 84.66666666666667 L 58.0 84.0 L 58.0 83.0 L 58.0 82.0 L 58.0 81.0 L 58.0 80.0 L 58.0 79.0 L 57.666666666666664 78.33333333333333 L 57.0 78.0 L 56.333333333333336 78.33333333333333 L 55.666666666666664 79.0 L 55.333333333333336 80.0 L 55.0 81.0 L 55.0 82.0 L 55.0 83.0 L 55.0 84.0 L 55.333333333333336 84.66666666666667 L 55.5 85.0 Z" stroke="none" fill="rgb(255,255,255)" />
<path d="M 71.5 84.5 L 72.0 84.66666666666667 L 73.0 85.0 L 73.66666666666667 84.66666666666667 L 74.0 84.0 L 74.0 83.0 L 74.0 82.0 L 74.0 81.0 L 74.0 80.0 L 73.66666666666667 79.0 L 73.0 78.33333333333333 L 72.0 78.0 L 71.33333333333333 78.33333333333333 L 71.0 79.0 L 71.0 80.0 L 71.0 81.0 L 71.0 82.0 L 71.0 83.0 L 71.0 83.5 Z" stroke="none" fill="rgb(255,255,255)" />
<path d="M 56.0 95.5 L 56.0 95.0 L 56.0 94.0 L 56.0 93.0 L 56.0 92.0 L 56.0 91.0 L 55.666666666666664 90.33333333333333 L 55.0 90.0 L 54.0 90.0 L 53.333333333333336 90.33333333333333 L 53.0 91.0 L 52.666666666666664 92.0 L 52.333333333333336 93.0 L 52.0 94.0 L 52.0 95.0 L 51.666666666666664 96.0 L 51.333333333333336 97.0 L 51.0 98.0 L 51.0 99.0 L 51.0 100.0 L 51.333333333333336 100.66666666666667 L 52.0 101.0 L 53.0 101.0 L 54.0 100.66666666666667 L 54.666666666666664 100.0 L 55.0 99.0 L 55.0 98.0 L 55.333333333333336 97.0 L 55.5 96.5 Z" stroke="none" fill="rgb(255,255,255)" />
<path d="M 75.5 101.0 L 76.0 101.0 L 77.0 101.0 L 77.66666666666667 100.66666666666667 L 78.0 100.0 L 77.66666666666667 99.0 L 77.33333333333333 98.0 L 77.0 97.0 L 77.0 96.0 L 76.66666666666667 95.0 L 76.33333333333333 94.0 L 76.0 93.0 L 75.66666666666667 92.0 L 75.0 91.33333333333333 L 74.0 91.0 L 73.33333333333333 91.33333333333333 L 73.0 92.0 L 73.0 93.0 L 73.0 94.0 L 73.0 95.0 L 73.0 96.0 L 73.0 97.0 L 73.0 98.0 L 73.0 99.0 L 73.33333333333333 100.0 L 74.0 100.66666666666667 L 74.5 101.0 Z" stroke="none" fill="rgb(255,255,255)" />
<path d="M 49.5 120.0 L 50.0 120.0 L 50.666666666666664 119.66666666666667 L 51.0 119.0 L 51.0 118.0 L 51.0 117.0 L 51.333333333333336 116.0 L 51.666666666666664 115.0 L 52.0 114.0 L 52.0 113.0 L 52.0 112.0 L 52.0 111.0 L 52.0 110.0 L 52.0 109.0 L 52.0 108.0 L 51.666666666666664 107.33333333333333 L 51.0 107.0 L 50.0 107.0 L 49.333333333333336 107.33333333333333 L 48.666666666666664 108.0 L 48.333333333333336 109.0 L 48.0 110.0 L 48.0 111.0 L 47.666666666666664 112.0 L 47.333333333333336 113.0 L 47.0 114.0 L 47.0 115.0 L 46.666666666666664 116.0 L 46.333333333333336 117.0 L 46.0 118.0 L 46.0 119.0 L 46.333333333333336 119.66666666666667 L 47.0 120.0 L 48.0 120.0 L 48.5 120.0 Z" stroke="none" fill="rgb(255,255,255)" />
<path d="M 78.5 120.0 L 79.0 120.0 L 80.0 120.0 L 80.66666666666667 119.66666666666667 L 81.0 119.0 L 81.0 118.0 L 81.0 117.0 L 81.0 116.0 L 81.0 115.0 L 80.66666666666667 114.0 L 80.33333333333333 113.0 L 80.0 112.0 L 80.0 111.0 L 80.0 110.0 L 79.66666666666667 109.0 L 79.33333333333333 108.0 L 78.66666666666667 107.33333333333333 L 78.0 107.0 L 77.0 107.0 L 76.33333333333333 107.33333333333333 L 76.0 108.0 L 76.0 109.0 L 76.0 110.0 L 76.0 111.0 L 76.0 112.0 L 76.0 113.0 L 76.0 114.0 L 76.0 115.0 L 76.0 116.0 L 76.0 117.0 L 76.0 118.0 L 76.33333333333333 119.0 L 77.0 119.66666666666667 L 77.5 120.0 Z" stroke="none" fill="rgb(255,255,255)" />
</svg>
