<?xml version="1.0" encoding="UTF-8" standalone="no"?>
<!DOCTYPE svg PUBLIC "-//W3C//DTD SVG 1.1//EN"
"http://www.w3.org/Graphics/SVG/1.1/DTD/svg11.dtd">
<svg width="128" height="128" xmlns="http://www.w3.org/2000/svg" version="1.1">
<path d="M 108.5 128.0 L 109.0 128.0 L 110.0 128.0 L 111.0 128.0 L 112.0 128.0 L 113.0 128.0 L 114.0 128.0 L 115.0 128.0 L 116.0 128.0 L 117.0 128.0 L 118.0 128.0 L 119.0 128.0 L 120.0 128.0 L 121.0 128.0 L 122.0 128.0 L 123.0 128.0 L 124.0 128.0 L 125.0 128.0 L 126.0 128.0 L 127.0 128.0 L 127.66666666666667 127.66666666666667 L 128.0 127.0 L 128.0 126.0 L 128.0 125.0 L 128.0 124.0 L 128.0 123.0 L 128.0 122.0 L 128.0 121.0 L 128.0 120.0 L 128.0 119.0 L 128.0 118.0 L 128.0 117.0 L 128.0 116.0 L 128.0 115.0 L 128.0 114.0 L 128.0 113.0 L 128.0 112.0 L 128.0 111.0 L 128.0 110.0 L 128.0 109.0 L 128.0 108.0 L 128.0 107.0 L 128.0 106.0 L 128.0 105.0 L 128.0 104.0 L 128.0 103.0 L 128.0 102.0 L 128.0 101.0 L 128.0 100.0 L 128.0 99.0 L 128.0 98.0 L 128.0 97.0 L 128.0 96.0 L 128.0 95.0 L 128.0 94.0 L 128.0 93.0 L 128.0 92.0 L 128.0 91.0 L 128.0 90.0 L 128.0 89.0 L 128.0 88.0 L 128.0 87.0 L 128.0 86.0 L 128.0 85.0 L 128.0 84.0 L 128.0 83.0 L 128.0 82.0 L 128.0 81.0 L 128.0 80.0 L 128.0 79.0 L 128.0 78.0 L 128.0 77.0 L 128.0 76.0 L 128.0 75.0 L 128.0 74.0 L 128.0 73.0 L 128.0 72.0 L 128.0 71.0 L 128.0 70.0 L 128.0 69.0 L 128.0 68.0 L 128.0 67.0 L 128.0 66.0 L 128.0 65.0 L 128.0 64.0 L 128.0 63.0 L 128.0 62.0 L 128.0 61.0 L 128.0 60.0 L 128.0 59.0 L 128.0 58.0 L 128.0 57.0 L 128.0 56.0 L 128.0 55.0 L 128.0 54.0 L 128.0 53.0 L 128.0 52.0 L 128.0 51.0 L 128.0 50.0 L 128.0 49.0 L 128.0 48.0 L 128.0 47.0 L 128.0 46.0 L 128.0 45.0 L 128.0 44.0 L 128.0 43.0 L 128.0 42.0 L 128.0 41.0 L 128.0 40.0 L 128.0 39.0 L 128.0 38.0 L 128.0 37.0 L 128.0 36.0 L 128.0 35.0 L 128.0 34.0 L 128.0 33.0 L 128.0 32.0 L 128.0 31.0 L 128.0 30.0 L 128.0 29.0 L 128.0 28.0 L 128.0 27.0 L 128.0 26.0 L 128.0 25.0 L 128.0 24.0 L 128.0 23.0 L 128.0 22.0 L 128.0 21.0 L 128.0 20.0 L 128.0 19.0 L 128.0 18.0 L 128.0 17.0 L 128.0 16.0 L 128.0 15.0 L 128.0 14.0 L 128.0 13.0 L 128.0 12.0 L 128.0 11.0 L 128.0 10.0 L 128.0 9.0 L 128.0 8.0 L 128.0 7.0 L 128.0 6.0 L 128.0 5.0 L 128.0 4.0 L 128.0 3.0 L 128.0 2.0 L 128.0 1.0 L 127.66666666666667 0.3333333333333333 L 127.0 0.0 L 126.0 0.0 L 125.0 0.0 L 124.0 0.0 L 123.0 0.0 L 122.0 0.0 L 121.0 0.0 L 120.0 0.0 L 119.0 0.0 L 118.0 0.0 L 117.0 0.0 L 116.0 0.0 L 115.0 0.0 L 114.0 0.0 L 113.0 0.0 L 112.0 0.0 L 111.0 0.0 L 110.0 0.0 L 109.0 0.0 L 108.0 0.0 L 107.0 0.0 L 106.0 0.0 L 105.0 0.0 L 104.0 0.0 L 103.0 0.0 L 102.0 0.0 L 101.0 0.0 L 100.0 0.0 L 99.0 0.0 L 98.0 0.0 L 97.0 0.0 L 96.0 0.0 L 95.0 0.0 L 94.0 0.0 L 93.0 0.0 L 92.0 0.0 L 91.0 0.0 L 90.0 0.0 L 89.0 0.0 L 88.0 0.0 L 87.0 0.0 L 86.0 0.0 L 85.0 0.0 L 84.0 0.0 L 83.0 0.0 L 82.0 0.0 L 81.0 0.0 L 80.0 0.0 L 79.0 0.0 L 78.0 0.0 L 77.0 0.0 L 76.0 0.0 L 75.0 0.0 L 74.0 0.0 L 73.0 0.0 L 72.0 0.0 L 71.0 0.0 L 70.0 0.0 L 69.0 0.0 L 68.0 0.0 L 67.0 0.0 L 66.0 0.0 L 65.0 0.0 L 64.0 0.0 L 63.0 0.0 L 62.0 0.0 L 61.0 0.0 L 60.0 0.0 L 59.0 0.0 L 58.0 0.0 L 57.0 0.0 L 56.0 0.0 L 55.0 0.0 L 54.0 0.0 L 53.0 0.0 L 52.0 0.0 L 51.0 0.0 L 50.0 0.0 L 49.0 0.0 L 48.0 0.0 L 47.0 0.0 L 46.0 0.0 L 45.0 0.0 L 44.0 0.0 L 43.0 0.0 L 42.0 0.0 L 41.0 0.0 L 40.0 0.0 L 39.0 0.0 L 38.0 0.0 L 37.0 0.0 L 36.0 0.0 L 35.0 0.0 L 34.0 0.0 L 33.0 0.0 L 32.0 0.0 L 31.0 0.0 L 30.0 0.0 L 29.0 0.0 L 28.0 0.0 L 27.0 0.0 L 26.0 0.0 L 25.0 0.0 L 24.0 0.0 L 23.0 0.0 L 22.0 0.0 L 21.0 0.0 L 20.0 0.0 L 19.0 0.0 L 18.0 0.0 L 17.0 0.0 L 16.0 0.0 L 15.0 0.0 L 14.0 0.0 L 13.0 0.0 L 12.0 0.0 L 11.0 0.0 L 10.0 0.0 L 9.0 0.0 L 8.0 0.0 L 7.0 0.0 L 6.0 0.0 L 5.0 0.0 L 4.0 0.0 L 3.0 0.0 L 2.0 0.0 L 1.0 0.0 L 0.3333333333333333 0.3333333333333333 L 0.0 1.0 L 0.0 2.0 L 0.0 3.0 L 0.0 4.0 L 0.0 5.0 L 0.0 6.0 L 0.0 7.0 L 0.0 8.0 L 0.0 9.0 L 0.0 10.0 L 0.0 11.0 L 0.0 12.0 L 0.0 13.0 L 0.0 14.0 L 0.0 15.0 L 0.0 16.0 L 0.0 17.0 L 0.0 18.0 L 0.0 19.0 L 0.0 20.0 L 0.0 21.0 L 0.0 22.0 L 0.0 23.0 L 0.0 24.0 L 0.0 25.0 L 0.0 26.0 L 0.0 27.0 L 0.0 28.0 L 0.0 29.0 L 0.0 30.0 L 0.0 31.0 L 0.0 32.0 L 0.0 33.0 L 0.0 34.0 L 0.0 35.0 L 0.0 36.0 L 0.0 37.0 L 0.0 38.0 L 0.0 39.0 L 0.0 40.0 L 0.0 41.0 L 0.0 42.0 L 0.0 43.0 L 0.0 44.0 L 0.0 45.0 L 0.0 46.0 L 0.0 47.0 L 0.0 48.0 L 0.0 49.0 L 0.0 50.0 L 0.0 51.0 L 0.0 52.0 L 0.0 53.0 L 0.0 54.0 L 0.0 55.0 L 0.0 56.0 L 0.0 57.0 L 0.0 58.0 L 0.0 59.0 L 0.0 60.0 L 0.0 61.0 L 0.0 62.0 L 0.0 63.0 L 0.0 64.0 L 0.0 65.0 L 0.0 66.0 L 0.0 67.0 L 0.0 68.0 L 0.0 69.0 L 0.0 70.0 L 0.0 71.0 L 0.0 72.0 L 0.0 73.0 L 0.0 74.0 L 0.0 75.0 L 0.0 76.0 L 0.0 77.0 L 0.0 78.0 L 0.0 79.0 L 0.0 80.0 L 0.0 81.0 L 0.0 82.0 L 0.0 83.0 L 0.0 84.0 L 0.0 85.0 L 0.0 86.0 L 0.0 87.0 L 0.0 88.0 L 0.0 89.0 L 0.0 90.0 L 0.0 91.0 L 0.0 92.0 L 0.0 93.0 L 0.0 94.0 L 0.0 95.0 L 0.0 96.0 L 0.0 97.0 L 0.0 98.0 L 0.0 99.0 L 0.0 100.0 L 0.0 101.0 L 0.0 102.0 L 0.0 103.0 L 0.0 104.0 L 0.0 105.0 L 0.0 106.0 L 0.0 107.0 L 0.0 108.0 L 0.0 109.0 L 0.0 110.0 L 0.0 111.0 L 0.0 112.0 L 0.0 113.0 L 0.0 114.0 L 0.0 115.0 L 0.0 116.0 L 0.0 117.0 L 0.0 118.0 L 0.0 119.0 L 0.0 120.0 L 0.0 121.0 L 0.0 122.0 L 0.0 123.0 L 0.0 124.0 L 0.0 125.0 L 0.0 126.0 L 0.0 127.0 L 0.3333333333333333 127.66666666666667 L 1.0 128.0 L 2.0 128.0 L 3.0 128.0 L 4.0 128.0 L 5.0 128.0 L 6.0 128.0 L 7.0 128.0 L 8.0 128.0 L 9.0 128.0 L 10.0 128.0 L 11.0 128.0 L 12.0 128.0 L 13.0 128.0 L 14.0 128.0 L 15.0 128.0 L 16.0 128.0 L 17.0 128.0 L 18.0 128.0 L 19.0 128.0 L 20.0 128.0 L 21.0 128.0 L 22.0 128.0 L 23.0 128.0 L 24.0 128.0 L 25.0 128.0 L 26.0 128.0 L 27.0 128.0 L 28.0 128.0 L 29.0 128.0 L 30.0 128.0 L 31.0 128.0 L 32.0 128.0 L 33.0 128.0 L 34.0 128.0 L 35.0 128.0 L 36.0 128.0 L 37.0 128.0 L 38.0 128.0 L 39.0 128.0 L 40.0 128.0 L 41.0 128.0 L 42.0 128.0 L 43.0 128.0 L 44.0 128.0 L 45.0 128.0 L 46.0 128.0 L 47.0 128.0 L 48.0 128.0 L 49.0 128.0 L 50.0 128.0 L 51.0 128.0 L 52.0 128.0 L 53.0 128.0 L 54.0 128.0 L 55.0 128.0 L 56.0 128.0 L 57.0 128.0 L 58.0 128.0 L 59.0 128.0 L 60.0 128.0 L 61.0 128.0 L 62.0 128.0 L 63.0 128.0 L 64.0 128.0 L 65.0 128.0 L 66.0 128.0 L 67.0 128.0 L 68.0 128.0 L 69.0 128.0 L 70.0 128.0 L 71.0 128.0 L 72.0 128.0 L 73.0 128.0 L 74.0 128.0 L 75.0 128.0 L 76.0 128.0 L 77.0 128.0 L 78.0 128.0 L 79.0 128.0 L 80.0 128.0 L 81.0 128.0 L 82.0 128.0 L 83.0 128.0 L 84.0 128.0 L 85.0 128.0 L 86.0 128.0 L 87.0 128.0 L 88.0 128.0 L 89.0 128.0 L 90.0 128.0 L 91.0 128.0 L 92.0 128.0 L 93.0 128.0 L 94.0 128.0 L 95.0 128.0 L 96.0 128.0 L 97.0 128.0 L 98.0 128.0 L 99.0 128.0 L 100.0 128.0 L 101.0 128.0 L 102.0 128.0 L 103.0 128.0 L 104.0 128.0 L 105.0 128.0 L 106.0 128.0 L 107.0 128.0 L 107.5 128.0 Z" stroke="none" fill="rgb(0,0,0)" />
<path d="M 21.5 31.0 L 22.0 31.0 L 23.0 31.0 L 24.0 31.0 L 25.0 31.0 L 26.0 31.0 L 27.0 31.0 L 28.0 31.0 L 29.0 31.0 L 30.0 31.0 L 31.0 31.0 L 32.0 31.0 L 33.0 31.0 L 34.0 31.0 L 35.0 31.0 L 36.0 31.0 L 37.0 31.0 L 38.0 31.0 L 39.0 31.0 L 40.0 31.0 L 41.0 31.0 L 42.0 31.0 L 43.0 31.0 L 44.0 31.0 L 45.0 31.0 L 46.0 31.0 L 47.0 31.0 L 48.0 31.0 L 49.0 31.0 L 50.0 31.0 L 51.0 31.0 L 52.0 31.0 L 53.0 31.0 L 54.0 31.0 L 55.0 31.0 L 56.0 31.0 L 57.0 31.0 L 58.0 31.0 L 59.0 31.0 L 60.0 31.0 L 61.0 31.0 L 62.0 31.0 L 63.0 31.0 L 64.0 31.0 L 65.0 31.0 L 66.0 31.0 L 67.0 31.0 L 68.0 31.0 L 69.0 31.0 L 70.0 31.0 L 71.0 31.0 L 72.0 31.0 L 73.0 31.0 L 74.0 31.0 L 75.0 31.0 L 76.0 31.0 L 77.0 31.0 L 78.0 31.0 L 79.0 31.0 L 80.0 31.0 L 81.0 31.0 L 82.0 31.0 L 83.0 31.0 L 84.0 31.0 L 85.0 31.0 L 86.0 31.0 L 87.0 31.0 L 88.0 31.0 L 89.0 31.0 L 90.0 31.0 L 91.0 31.0 L 92.0 31.0 L 93.0 31.0 L 94.0 31.0 L 95.0 31.0 L 96.0 31.0 L 97.0 31.0 L 98.0 31.0 L 99.0 31.0 L 100.0 31.0 L 101.0 31.0 L 102.0 31.0 L 103.0 31.0 L 104.0 31.0 L 105.0 31.0 L 106.0 31.0 L 107.0 31.0 L 108.0 31.0 L 109.0 31.0 L 110.0 31.0 L 111.0 31.0 L 112.0 31.0 L 113.0 31.0 L 114.0 31.0 L 115.0 31.0 L 116.0 31.0 L 117.0 31.0 L 118.0 31.0 L 119.0 31.0 L 120.0 31.0 L 121.0 31.0 L 122.0 31.0 L 123.0 31.0 L 124.0 31.0 L 124.66666666666667 30.666666666666668 L 125.0 30.0 L 125.0 29.0 L 125.0 28.0 L 125.0 27.0 L 125.0 26.0 L 125.0 25.0 L 125.0 24.0 L 125.0 23.0 L 125.0 22.0 L 125.0 21.0 L 125.0 20.0 L 125.0 19.0 L 125.0 18.0 L 125.0 17.0 L 125.0 16.0 L 125.0 15.0 L 125.0 14.0 L 125.0 13.0 L 125.0 12.0 L 125.0 11.0 L 125.0 10.0 L 125.0 9.0 L 125.0 8.0 L 125.0 7.0 L 125.0 6.0 L 125.0 5.0 L 124.66666666666667 4.333333333333333 L 124.0 4.0 L 123.0 4.0 L 122.0 4.0 L 121.0 4.0 L 120.0 4.0 L 119.0 4.0 L 118.0 4.0 L 117.0 4.0 L 116.0 4.0 L 115.0 4.0 L 114.0 4.0 L 113.0 4.0 L 112.0 4.0 L 111.0 4.0 L 110.0 4.0 L 109.0 4.0 L 108.0 4.0 L 107.0 4.0 L 106.0 4.0 L 105.0 4.0 L 104.0 4.0 L 103.0 4.0 L 102.0 4.0 L 101.0 4.0 L 100.0 4.0 L 99.0 4.0 L 98.0 4.0 L 97.0 4.0 L 96.0 4.0 L 95.0 4.0 L 94.0 4.0 L 93.0 4.0 L 92.0 4.0 L 91.0 4.0 L 90.0 4.0 L 89.0 4.0 L 88.0 4.0 L 87.0 4.0 L 86.0 4.0 L 85.0 4.0 L 84.0 4.0 L 83.0 4.0 L 82.0 4.0 L 81.0 4.0 L 80.0 4.0 L 79.0 4.0 L 78.0 4.0 L 77.0 4.0 L 76.0 4.0 L 75.0 4.0 L 74.0 4.0 L 73.0 4.0 L 72.0 4.0 L 71.0 4.0 L 70.0 4.0 L 69.0 4.0 L 68.0 4.0 L 67.0 4.0 L 66.0 4.0 L 65.0 4.0 L 64.0 4.0 L 63.0 4.0 L 62.0 4.0 L 61.0 4.0 L 60.0 4.0 L 59.0 4.0 L 58.0 4.0 L 57.0 4.0 L 56.0 4.0 L 55.0 4.0 L 54.0 4.0 L 53.0 4.0 L 52.0 4.0 L 51.0 4.0 L 50.0 4.0 L 49.0 4.0 L 48.0 4.0 L 47.0 4.0 L 46.0 4.0 L 45.0 4.0 L 44.0 4.0 L 43.0 4.0 L 42.0 4.0 L 41.0 4.0 L 40.0 4.0 L 39.0 4.0 L 38.0 4.0 L 37.0 4.0 L 36.0 4.0 L 35.0 4.0 L 34.0 4.0 L 33.0 4.0 L 32.0 4.0 L 31.0 4.0 L 30.0 4.0 L 29.0 4.0 L 28.0 4.0 L 27.0 4.0 L 26.0 4.0 L 25.0 4.0 L 24.0 4.0 L 23.0 4.0 L 22.0 4.0 L 21.0 4.0 L 20.0 4.0 L 19.0 4.0 L 18.0 4.0 L 17.0 4.0 L 16.0 4.0 L 15.0 4.0 L 14.0 4.0 L 13.0 4.0 L 12.0 4.0 L 11.0 4.0 L 10.0 4.0 L 9.0 4.0 L 8.0 4.0 L 7.0 4.0 L 6.0 4.0 L 5.0 4.0 L 4.333333333333333 4.333333333333333 L 4.0 5.0 L 4.0 6.0 L 4.0 7.0 L 4.0 8.0 L 4.0 9.0 L 4.0 10.0 L 4.0 11.0 L 4.0 12.0 L 4.0 13.0 L 4.0 14.0 L 4.0 15.0 L 4.0 16.0 L 4.0 17.0 L 4.0 18.0 L 4.0 19.0 L 4.0 20.0 L 4.0 21.0 L 4.0 22.0 L 4.0 23.0 L 4.0 24.0 L 4.0 25.0 L 4.0 26.0 L 4.0 27.0 L 4.0 28.0 L 4.0 29.0 L 4.333333333333333 30.0 L 5.0 30.666666666666668 L 6.0 31.0 L 7.0 31.0 L 8.0 31.0 L 9.0 31.0 L 10.0 31.0 L 11.0 31.0 L 12.0 31.0 L 13.0 31.0 L 14.0 31.0 L 15.0 31.0 L 16.0 31.0 L 17.0 31.0 L 18.0 31.0 L 19.0 31.0 L 20.0 31.0 L 20.5 31.0 Z" stroke="none" fill="rgb(186,141,104)" />
<path d="M 101.5 44.0 L 102.0 44.0 L 103.0 44.0 L 104.0 44.0 L 105.0 44.0 L 106.0 44.0 L 107.0 44.0 L 108.0 44.0 L 109.0 44.0 L 110.0 44.0 L 111.0 44.0 L 112.0 44.0 L 113.0 44.0 L 114.0 44.0 L 115.0 44.0 L 116.0 44.0 L 117.0 44.0 L 118.0 44.0 L 119.0 44.0 L 120.0 44.0 L 121.0 44.0 L 122.0 44.0 L 123.0 44.0 L 124.0 44.0 L 124.66666666666667 43.666666666666664 L 125.0 43.0 L 125.0 42.0 L 125.0 41.0 L 125.0 40.0 L 125.0 39.0 L 125.0 38.0 L 125.0 37.0 L 125.0 36.0 L 125.0 35.0 L 125.0 34.0 L 125.0 33.0 L 125.0 32.0 L 124.66666666666667 31.333333333333332 L 124.0 31.0 L 123.0 31.0 L 122.0 31.0 L 121.0 31.0 L 120.0 31.0 L 119.0 31.0 L 118.0 31.0 L 117.0 31.0 L 116.0 31.0 L 115.0 31.0 L 114.0 31.0 L 113.0 31.0 L 112.0 31.0 L 111.0 31.0 L 110.0 31.0 L 109.0 31.0 L 108.0 31.0 L 107.0 31.0 L 106.0 31.0 L 105.0 31.0 L 104.0 31.0 L 103.0 31.0 L 102.0 31.0 L 101.0 31.0 L 100.0 31.0 L 99.0 31.0 L 98.0 31.0 L 97.0 31.0 L 96.0 31.0 L 95.0 31.0 L 94.0 31.0 L 93.0 31.0 L 92.0 31.0 L 91.0 31.0 L 90.0 31.0 L 89.0 31.0 L 88.0 31.0 L 87.0 31.0 L 86.0 31.0 L 85.0 31.0 L 84.0 31.0 L 83.0 31.0 L 82.0 31.0 L 81.0 31.0 L 80.0 31.0 L 79.0 31.0 L 78.0 31.0 L 77.0 31.0 L 76.0 31.0 L 75.0 31.0 L 74.0 31.0 L 73.0 31.0 L 72.0 31.0 L 71.0 31.0 L 70.0 31.0 L 69.0 31.0 L 68.0 31.0 L 67.0 31.0 L 66.0 31.0 L 65.0 31.0 L 64.0 31.0 L 63.0 31.0 L 62.0 31.0 L 61.0 31.0 L 60.0 31.0 L 59.0 31.0 L 58.0 31.0 L 57.0 31.0 L 56.0 31.0 L 55.0 31.0 L 54.0 31.0 L 53.0 31.0 L 52.0 31.0 L 51.0 31.0 L 50.0 31.0 L 49.0 31.0 L 48.0 31.0 L 47.0 31.0 L 46.0 31.0 L 45.0 31.0 L 44.0 31.0 L 43.0 31.0 L 42.0 31.0 L 41.0 31.0 L 40.0 31.0 L 39.0 31.0 L 38.0 31.0 L 37.0 31.0 L 36.0 31.0 L 35.0 31.0 L 34.0 31.0 L 33.0 31.0 L 32.0 31.0 L 31.0 31.0 L 30.0 31.0 L 29.0 31.0 L 28.0 31.0 L 27.0 31.0 L 26.0 31.0 L 25.0 31.0 L 24.0 31.0 L 23.0 31.0 L 22.0 31.0 L 21.0 31.0 L 20.0 31.0 L 19.0 31.0 L 18.0 31.0 L 17.0 31.0 L 16.0 31.0 L 15.0 31.0 L 14.0 31.0 L 13.0 31.0 L 12.0 31.0 L 11.0 31.0 L 10.0 31.0 L 9.0 31.0 L 8.0 31.0 L 7.0 31.0 L 6.0 31.0 L 5.0 31.0 L 4.333333333333333 31.333333333333332 L 4.0 32.0 L 4.0 33.0 L 4.0 34.0 L 4.0 35.0 L 4.0 36.0 L 4.0 37.0 L 4.0 38.0 L 4.0 39.0 L 4.0 40.0 L 4.0 41.0 L 4.0 42.0 L 4.0 43.0 L 4.333333333333333 43.666666666666664 L 5.0 44.0 L 6.0 44.0 L 7.0 44.0 L 8.0 44.0 L 9.0 44.0 L 10.0 44.0 L 11.0 44.0 L 12.0 44.0 L 13.0 44.0 L 14.0 44.0 L 15.0 44.0 L 16.0 44.0 L 17.0 44.0 L 18.0 44.0 L 19.0 44.0 L 20.0 44.0 L 21.0 44.0 L 22.0 44.0 L 23.0 44.0 L 24.0 44.0 L 25.0 44.0 L 26.0 44.0 L 27.0 44.0 L 28.0 44.0 L 29.0 44.0 L 30.0 44.0 L 31.0 44.0 L 32.0 44.0 L 33.0 44.0 L 34.0 44.0 L 35.0 44.0 L 36.0 44.0 L 37.0 44.0 L 38.0 44.0 L 39.0 44.0 L 40.0 44.0 L 41.0 44.0 L 42.0 44.0 L 43.0 44.0 L 44.0 44.0 L 45.0 44.0 L 46.0 44.0 L 47.0 44.0 L 48.0 44.0 L 49.0 44.0 L 50.0 44.0 L 51.0 44.0 L 52.0 44.0 L 53.0 44.0 L 54.0 44.0 L 55.0 44.0 L 56.0 44.0 L 57.0 44.0 L 58.0 44.0 L 59.0 44.0 L 60.0 44.0 L 61.0 44.0 L 62.0 44.0 L 63.0 44.0 L 64.0 44.0 L 65.0 44.0 L 66.0 44.0 L 67.0 44.0 L 68.0 44.0 L 69.0 44.0 L 70.0 44.0 L 71.0 44.0 L 72.0 44.0 L 73.0 44.0 L 74.0 44.0 L 75.0 44.0 L 76.0 44.0 L 77.0 44.0 L 78.0 44.0 L 79.0 44.0 L 80.0 44.0 L 81.0 44.0 L 82.0 44.0 L 83.0 44.0 L 84.0 44.0 L 85.0 44.0 L 86.0 44.0 L 87.0 44.0 L 88.0 44.0 L 89.0 44.0 L 90.0 44.0 L 91.0 44.0 L 92.0 44.0 L 93.0 44.0 L 94.0 44.0 L 95.0 44.0 L 96.0 44.0 L 97.0 44.0 L 98.0 44.0 L 99.0 44.0 L 100.0 44.0 L 100.5 44.0 Z" stroke="none" fill="rgb(185,140,104)" />
<path d="M 53.5 47.0 L 54.0 47.0 L 55.0 47.0 L 56.0 47.0 L 57.0 47.0 L 58.0 47.0 L 59.0 47.0 L 60.0 47.0 L 61.0 47.0 L 62.0 47.0 L 63.0 47.0 L 64.0 47.0 L 65.0 47.0 L 66.0 47.0 L 67.0 47.0 L 68.0 47.0 L 69.0 47.0 L 70.0 47.0 L 71.0 47.0 L 72.0 47.0 L 73.0 47.0 L 74.0 47.0 L 75.0 47.0 L 76.0 47.0 L 77.0 47.0 L 78.0 47.0 L 79.0 47.0 L 80.0 47.0 L 81.0 47.0 L 82.0 47.0 L 83.0 47.0 L 84.0 47.0 L 85.0 47.0 L 86.0 47.0 L 87.0 47.0 L 88.0 47.0 L 89.0 47.0 L 90.0 47.0 L 91.0 47.0 L 92.0 47.0 L 93.0 47.0 L 94.0 47.0 L 95.0 47.0 L 96.0 47.0 L 97.0 47.0 L 98.0 47.0 L 99.0 47.0 L 100.0 47.0 L 101.0 47.0 L 102.0 47.0 L 103.0 47.0 L 104.0 47.0 L 105.0 47.0 L 106.0 47.0 L 107.0 47.0 L 108.0 47.0 L 109.0 47.0 L 110.0 47.0 L 111.0 47.0 L 112.0 47.0 L 113.0 47.0 L 114.0 47.0 L 115.0 47.0 L 116.0 47.0 L 117.0 47.0 L 118.0 47.0 L 119.0 47.0 L 120.0 47.0 L 121.0 47.0 L 122.0 47.0 L 123.0 47.0 L 124.0 47.0 L 124.66666666666667 46.666666666666664 L 125.0 46.0 L 125.0 45.0 L 124.66666666666667 44.333333333333336 L 124.0 44.0 L 123.0 44.0 L 122.0 44.0 L 121.0 44.0 L 120.0 44.0 L 119.0 44.0 L 118.0 44.0 L 117.0 44.0 L 116.0 44.0 L 115.0 44.0 L 114.0 44.0 L 113.0 44.0 L 112.0 44.0 L 111.0 44.0 L 110.0 44.0 L 109.0 44.0 L 108.0 44.0 L 107.0 44.0 L 106.0 44.0 L 105.0 44.0 L 104.0 44.0 L 103.0 44.0 L 102.0 44.0 L 101.0 44.0 L 100.0 44.0 L 99.0 44.0 L 98.0 44.0 L 97.0 44.0 L 96.0 44.0 L 95.0 44.0 L 94.0 44.0 L 93.0 44.0 L 92.0 44.0 L 91.0 44.0 L 90.0 44.0 L 89.0 44.0 L 88.0 44.0 L 87.0 44.0 L 86.0 44.0 L 85.0 44.0 L 84.0 44.0 L 83.0 44.0 L 82.0 44.0 L 81.0 44.0 L 80.0 44.0 L 79.0 44.0 L 78.0 44.0 L 77.0 44.0 L 76.0 44.0 L 75.0 44.0 L 74.0 44.0 L 73.0 44.0 L 72.0 44.0 L 71.0 44.0 L 70.0 44.0 L 69.0 44.0 L 68.0 44.0 L 67.0 44.0 L 66.0 44.0 L 65.0 44.0 L 64.0 44.0 L 63.0 44.0 L 62.0 44.0 L 61.0 44.0 L 60.0 44.0 L 59.0 44.0 L 58.0 44.0 L 57.0 44.0 L 56.0 44.0 L 55.0 44.0 L 54.0 44.0 L 53.0 44.0 L 52.0 44.0 L 51.0 44.0 L 50.0 44.0 L 49.0 44.0 L 48.0 44.0 L 47.0 44.0 L 46.0 44.0 L 45.0 44.0 L 44.0 44.0 L 43.0 44.0 L 42.0 44.0 L 41.0 44.0 L 40.0 44.0 L 39.0 44.0 L 38.0 44.0 L 37.0 44.0 L 36.0 44.0 L 35.0 44.0 L 34.0 44.0 L 33.0 44.0 L 32.0 44.0 L 31.0 44.0 L 30.0 44.0 L 29.0 44.0 L 28.0 44.0 L 27.0 44.0 L 26.0 44.0 L 25.0 44.0 L 24.0 44.0 L 23.0 44.0 L 22.0 44.0 L 21.0 44.0 L 20.0 44.0 L 19.0 44.0 L 18.0 44.0 L 17.0 44.0 L 16.0 44.0 L 15.0 44.0 L 14.0 44.0 L 13.0 44.0 L 12.0 44.0 L 11.0 44.0 L 10.0 44.0 L 9.0 44.0 L 8.0 44.0 L 7.0 44.0 L 6.0 44.0 L 5.0 44.0 L 4.333333333333333 44.333333333333336 L 4.0 45.0 L 4.0 46.0 L 4.333333333333333 46.666666666666664 L 5.0 47.0 L 6.0 47.0 L 7.0 47.0 L 8.0 47.0 L 9.0 47.0 L 10.0 47.0 L 11.0 47.0 L 12.0 47.0 L 13.0 47.0 L 14.0 47.0 L 15.0 47.0 L 16.0 47.0 L 17.0 47.0 L 18.0 47.0 L 19.0 47.0 L 20.0 47.0 L 21.0 47.0 L 22.0 47.0 L 23.0 47.0 L 24.0 47.0 L 25.0 47.0 L 26.0 47.0 L 27.0 47.0 L 28.0 47.0 L 29.0 47.0 L 30.0 47.0 L 31.0 47.0 L 32.0 47.0 L 33.0 47.0 L 34.0 47.0 L 35.0 47.0 L 36.0 47.0 L 37.0 47.0 L 38.0 47.0 L 39.0 47.0 L 40.0 47.0 L 41.0 47.0 L 42.0 47.0 L 43.0 47.0 L 44.0 47.0 L 45.0 47.0 L 46.0 47.0 L 47.0 47.0 L 48.0 47.0 L 49.0 47.0 L 50.0 47.0 L 51.0 47.0 L 52.0 47.0 L 52.5 47.0 Z" stroke="none" fill="rgb(184,140,104)" />
<path d="M 23.5 53.0 L 24.0 53.0 L 25.0 53.0 L 26.0 53.0 L 27.0 53.0 L 28.0 53.0 L 29.0 53.0 L 30.0 53.0 L 31.0 53.0 L 32.0 53.0 L 33.0 53.0 L 34.0 53.0 L 35.0 53.0 L 36.0 53.0 L 37.0 53.0 L 38.0 53.0 L 39.0 53.0 L 40.0 53.0 L 41.0 53.0 L 42.0 53.0 L 43.0 53.0 L 44.0 53.0 L 45.0 53.0 L 46.0 53.0 L 47.0 53.0 L 48.0 53.0 L 49.0 53.0 L 50.0 53.0 L 51.0 53.0 L 52.0 53.0 L 53.0 53.0 L 54.0 53.0 L 55.0 53.0 L 56.0 53.0 L 57.0 53.0 L 58.0 53.0 L 59.0 53.0 L 60.0 53.0 L 61.0 53.0 L 62.0 53.0 L 63.0 53.0 L 64.0 53.0 L 65.0 53.0 L 66.0 53.0 L 67.0 53.0 L 68.0 53.0 L 69.0 53.0 L 70.0 53.0 L 71.0 53.0 L 72.0 53.0 L 73.0 53.0 L 74.0 53.0 L 75.0 53.0 L 76.0 53.0 L 77.0 53.0 L 78.0 53.0 L 79.0 53.0 L 80.0 53.0 L 81.0 53.0 L 82.0 53.0 L 83.0 53.0 L 84.0 53.0 L 85.0 53.0 L 86.0 53.0 L 87.0 53.0 L 88.0 53.0 L 89.0 53.0 L 90.0 53.0 L 91.0 53.0 L 92.0 53.0 L 93.0 53.0 L 94.0 53.0 L 95.0 53.0 L 96.0 53.0 L 97.0 53.0 L 98.0 53.0 L 99.0 53.0 L 100.0 53.0 L 101.0 53.0 L 102.0 53.0 L 103.0 53.0 L 104.0 53.0 L 105.0 53.0 L 106.0 53.0 L 107.0 53.0 L 108.0 53.0 L 109.0 53.0 L 110.0 53.0 L 111.0 53.0 L 112.0 53.0 L 113.0 53.0 L 114.0 53.0 L 115.0 53.0 L 116.0 53.0 L 117.0 53.0 L 118.0 53.0 L 119.0 53.0 L 120.0 53.0 L 121.0 53.0 L 122.0 53.0 L 123.0 53.0 L 124.0 53.0 L 124.66666666666667 52.666666666666664 L 125.0 52.0 L 125.0 51.0 L 125.0 50.0 L 125.0 49.0 L 125.0 48.0 L 124.66666666666667 47.333333333333336 L 124.0 47.0 L 123.0 47.0 L 122.0 47.0 L 121.0 47.0 L 120.0 47.0 L 119.0 47.0 L 118.0 47.0 L 117.0 47.0 L 116.0 47.0 L 115.0 47.0 L 114.0 47.0 L 113.0 47.0 L 112.0 47.0 L 111.0 47.0 L 110.0 47.0 L 109.0 47.0 L 108.0 47.0 L 107.0 47.0 L 106.0 47.0 L 105.0 47.0 L 104.0 47.0 L 103.0 47.0 L 102.0 47.0 L 101.0 47.0 L 100.0 47.0 L 99.0 47.0 L 98.0 47.0 L 97.0 47.0 L 96.0 47.0 L 95.0 47.0 L 94.0 47.0 L 93.0 47.0 L 92.0 47.0 L 91.0 47.0 L 90.0 47.0 L 89.0 47.0 L 88.0 47.0 L 87.0 47.0 L 86.0 47.0 L 85.0 47.0 L 84.0 47.0 L 83.0 47.0 L 82.0 47.0 L 81.0 47.0 L 80.0 47.0 L 79.0 47.0 L 78.0 47.0 L 77.0 47.0 L 76.0 47.0 L 75.0 47.0 L 74.0 47.0 L 73.0 47.0 L 72.0 47.0 L 71.0 47.0 L 70.0 47.0 L 69.0 47.0 L 68.0 47.0 L 67.0 47.0 L 66.0 47.0 L 65.0 47.0 L 64.0 47.0 L 63.0 47.0 L 62.0 47.0 L 61.0 47.0 L 60.0 47.0 L 59.0 47.0 L 58.0 47.0 L 57.0 47.0 L 56.0 47.0 L 55.0 47.0 L 54.0 47.0 L 53.0 47.0 L 52.0 47.0 L 51.0 47.0 L 50.0 47.0 L 49.0 47.0 L 48.0 47.0 L 47.0 47.0 L 46.0 47.0 L 45.0 47.0 L 44.0 47.0 L 43.0 47.0 L 42.0 47.0 L 41.0 47.0 L 40.0 47.0 L 39.0 47.0 L 38.0 47.0 L 37.0 47.0 L 36.0 47.0 L 35.0 47.0 L 34.0 47.0 L 33.0 47.0 L 32.0 47.0 L 31.0 47.0 L 30.0 47.0 L 29.0 47.0 L 28.0 47.0 L 27.0 47.0 L 26.0 47.0 L 25.0 47.0 L 24.0 47.0 L 23.0 47.0 L 22.0 47.0 L 21.0 47.0 L 20.0 47.0 L 19.0 47.0 L 18.0 47.0 L 17.0 47.0 L 16.0 47.0 L 15.0 47.0 L 14.0 47.0 L 13.0 47.0 L 12.0 47.0 L 11.0 47.0 L 10.0 47.0 L 9.0 47.0 L 8.0 47.0 L 7.0 47.0 L 6.0 47.0 L 5.0 47.0 L 4.333333333333333 47.333333333333336 L 4.0 48.0 L 4.0 49.0 L 4.0 50.0 L 4.0 51.0 L 4.0 52.0 L 4.333333333333333 52.666666666666664 L 5.0 53.0 L 6.0 53.0 L 7.0 53.0 L 8.0 53.0 L 9.0 53.0 L 10.0 53.0 L 11.0 53.0 L 12.0 53.0 L 13.0 53.0 L 14.0 53.0 L 15.0 53.0 L 16.0 53.0 L 17.0 53.0 L 18.0 53.0 L 19.0 53.0 L 20.0 53.0 L 21.0 53.0 L 22.0 53.0 L 22.5 53.0 Z" stroke="none" fill="rgb(184,139,103)" />
<path d="M 57.5 57.0 L 58.0 57.0 L 59.0 57.0 L 60.0 57.0 L 61.0 57.0 L 62.0 57.0 L 63.0 57.0 L 64.0 57.0 L 65.0 57.0 L 66.0 57.0 L 67.0 57.0 L 68.0 57.0 L 69.0 57.0 L 70.0 57.0 L 71.0 57.0 L 72.0 57.0 L 73.0 57.0 L 74.0 57.0 L 75.0 57.0 L 76.0 57.0 L 77.0 57.0 L 78.0 57.0 L 79.0 57.0 L 80.0 57.0 L 81.0 57.0 L 82.0 57.0 L 83.0 57.0 L 84.0 57.0 L 85.0 57.0 L 86.0 57.0 L 87.0 57.0 L 88.0 57.0 L 89.0 57.0 L 90.0 57.0 L 91.0 57.0 L 92.0 57.0 L 93.0 57.0 L 94.0 57.0 L 95.0 57.0 L 96.0 57.0 L 97.0 57.0 L 98.0 57.0 L 99.0 57.0 L 100.0 57.0 L 101.0 57.0 L 102.0 57.0 L 103.0 57.0 L 104.0 57.0 L 105.0 57.0 L 106.0 57.0 L 107.0 57.0 L 108.0 57.0 L 109.0 57.0 L 110.0 57.0 L 111.0 57.0 L 112.0 57.0 L 113.0 57.0 L 114.0 57.0 L 115.0 57.0 L 116.0 57.0 L 117.0 57.0 L 118.0 57.0 L 119.0 57.0 L 120.0 57.0 L 121.0 57.0 L 122.0 57.0 L 123.0 57.0 L 124.0 57.0 L 124.66666666666667 56.666666666666664 L 125.0 56.0 L 125.0 55.0 L 125.0 54.0 L 124.66666666666667 53.333333333333336 L 124.0 53.0 L 123.0 53.0 L 122.0 53.0 L 121.0 53.0 L 120.0 53.0 L 119.0 53.0 L 118.0 53.0 L 117.0 53.0 L 116.0 53.0 L 115.0 53.0 L 114.0 53.0 L 113.0 53.0 L 112.0 53.0 L 111.0 53.0 L 110.0 53.0 L 109.0 53.0 L 108.0 53.0 L 107.0 53.0 L 106.0 53.0 L 105.0 53.0 L 104.0 53.0 L 103.0 53.0 L 102.0 53.0 L 101.0 53.0 L 100.0 53.0 L 99.0 53.0 L 98.0 53.0 L 97.0 53.0 L 96.0 53.0 L 95.0 53.0 L 94.0 53.0 L 93.0 53.0 L 92.0 53.0 L 91.0 53.0 L 90.0 53.0 L 89.0 53.0 L 88.0 53.0 L 87.0 53.0 L 86.0 53.0 L 85.0 53.0 L 84.0 53.0 L 83.0 53.0 L 82.0 53.0 L 81.0 53.0 L 80.0 53.0 L 79.0 53.0 L 78.0 53.0 L 77.0 53.0 L 76.0 53.0 L 75.0 53.0 L 74.0 53.0 L 73.0 53.0 L 72.0 53.0 L 71.0 53.0 L 70.0 53.0 L 69.0 53.0 L 68.0 53.0 L 67.0 53.0 L 66.0 53.0 L 65.0 53.0 L 64.0 53.0 L 63.0 53.0 L 62.0 53.0 L 61.0 53.0 L 60.0 53.0 L 59.0 53.0 L 58.0 53.0 L 57.0 53.0 L 56.0 53.0 L 55.0 53.0 L 54.0 53.0 L 53.0 53.0 L 52.0 53.0 L 51.0 53.0 L 50.0 53.0 L 49.0 53.0 L 48.0 53.0 L 47.0 53.0 L 46.0 53.0 L 45.0 53.0 L 44.0 53.0 L 43.0 53.0 L 42.0 53.0 L 41.0 53.0 L 40.0 53.0 L 39.0 53.0 L 38.0 53.0 L 37.0 53.0 L 36.0 53.0 L 35.0 53.0 L 34.0 53.0 L 33.0 53.0 L 32.0 53.0 L 31.0 53.0 L 30.0 53.0 L 29.0 53.0 L 28.0 53.0 L 27.0 53.0 L 26.0 53.0 L 25.0 53.0 L 24.0 53.0 L 23.0 53.0 L 22.0 53.0 L 21.0 53.0 L 20.0 53.0 L 19.0 53.0 L 18.0 53.0 L 17.0 53.0 L 16.0 53.0 L 15.0 53.0 L 14.0 53.0 L 13.0 53.0 L 12.0 53.0 L 11.0 53.0 L 10.0 53.0 L 9.0 53.0 L 8.0 53.0 L 7.0 53.0 L 6.0 53.0 L 5.0 53.0 L 4.333333333333333 53.333333333333336 L 4.0 54.0 L 4.0 55.0 L 4.0 56.0 L 4.333333333333333 56.666666666666664 L 5.0 57.0 L 6.0 57.0 L 7.0 57.0 L 8.0 57.0 L 9.0 57.0 L 10.0 57.0 L 11.0 57.0 L 12.0 57.0 L 13.0 57.0 L 14.0 57.0 L 15.0 57.0 L 16.0 57.0 L 17.0 57.0 L 18.0 57.0 L 19.0 57.0 L 20.0 57.0 L 21.0 57.0 L 22.0 57.0 L 23.0 57.0 L 24.0 57.0 L 25.0 57.0 L 26.0 57.0 L 27.0 57.0 L 28.0 57.0 L 29.0 57.0 L 30.0 57.0 L 31.0 57.0 L 32.0 57.0 L 33.0 57.0 L 34.0 57.0 L 35.0 57.0 L 36.0 57.0 L 37.0 57.0 L 38.0 57.0 L 39.0 57.0 L 40.0 57.0 L 41.0 57.0 L 42.0 57.0 L 43.0 57.0 L 44.0 57.0 L 45.0 57.0 L 46.0 57.0 L 47.0 57.0 L 48.0 57.0 L 49.0 57.0 L 50.0 57.0 L 51.0 57.0 L 52.0 57.0 L 53.0 57.0 L 54.0 57.0 L 55.0 57.0 L 56.0 57.0 L 56.5 57.0 Z" stroke="none" fill="rgb(183,139,103)" />
<path d="M 55.5 60.0 L 56.0 60.0 L 57.0 60.0 L 58.0 60.0 L 59.0 60.0 L 60.0 60.0 L 61.0 60.0 L 62.0 60.0 L 63.0 60.0 L 64.0 60.0 L 65.0 60.0 L 66.0 60.0 L 67.0 60.0 L 68.0 60.0 L 69.0 60.0 L 70.0 60.0 L 71.0 60.0 L 72.0 60.0 L 73.0 60.0 L 74.0 60.0 L 75.0 60.0 L 76.0 60.0 L 77.0 60.0 L 78.0 60.0 L 79.0 60.0 L 80.0 60.0 L 81.0 60.0 L 82.0 60.0 L 83.0 60.0 L 84.0 60.0 L 85.0 60.0 L 86.0 60.0 L 87.0 60.0 L 88.0 60.0 L 89.0 60.0 L 90.0 60.0 L 91.0 60.0 L 92.0 60.0 L 93.0 60.0 L 94.0 60.0 L 95.0 60.0 L 96.0 60.0 L 97.0 60.0 L 98.0 60.0 L 99.0 60.0 L 100.0 60.0 L 101.0 60.0 L 102.0 60.0 L 103.0 60.0 L 104.0 60.0 L 105.0 60.0 L 106.0 60.0 L 107.0 60.0 L 108.0 60.0 L 109.0 60.0 L 110.0 60.0 L 111.0 60.0 L 112.0 60.0 L 113.0 60.0 L 114.0 60.0 L 115.0 60.0 L 116.0 60.0 L 117.0 60.0 L 118.0 60.0 L 119.0 60.0 L 120.0 60.0 L 121.0 60.0 L 122.0 60.0 L 123.0 60.0 L 124.0 60.0 L 124.66666666666667 59.666666666666664 L 125.0 59.0 L 125.0 58.0 L 124.66666666666667 57.333333333333336 L 124.0 57.0 L 123.0 57.0 L 122.0 57.0 L 121.0 57.0 L 120.0 57.0 L 119.0 57.0 L 118.0 57.0 L 117.0 57.0 L 116.0 57.0 L 115.0 57.0 L 114.0 57.0 L 113.0 57.0 L 112.0 57.0 L 111.0 57.0 L 110.0 57.0 L 109.0 57.0 L 108.0 57.0 L 107.0 57.0 L 106.0 57.0 L 105.0 57.0 L 104.0 57.0 L 103.0 57.0 L 102.0 57.0 L 101.0 57.0 L 100.0 57.0 L 99.0 57.0 L 98.0 57.0 L 97.0 57.0 L 96.0 57.0 L 95.0 57.0 L 94.0 57.0 L 93.0 57.0 L 92.0 57.0 L 91.0 57.0 L 90.0 57.0 L 89.0 57.0 L 88.0 57.0 L 87.0 57.0 L 86.0 57.0 L 85.0 57.0 L 84.0 57.0 L 83.0 57.0 L 82.0 57.0 L 81.0 57.0 L 80.0 57.0 L 79.0 57.0 L 78.0 57.0 L 77.0 57.0 L 76.0 57.0 L 75.0 57.0 L 74.0 57.0 L 73.0 57.0 L 72.0 57.0 L 71.0 57.0 L 70.0 57.0 L 69.0 57.0 L 68.0 57.0 L 67.0 57.0 L 66.0 57.0 L 65.0 57.0 L 64.0 57.0 L 63.0 57.0 L 62.0 57.0 L 61.0 57.0 L 60.0 57.0 L 59.0 57.0 L 58.0 57.0 L 57.0 57.0 L 56.0 57.0 L 55.0 57.0 L 54.0 57.0 L 53.0 57.0 L 52.0 57.0 L 51.0 57.0 L 50.0 57.0 L 49.0 57.0 L 48.0 57.0 L 47.0 57.0 L 46.0 57.0 L 45.0 57.0 L 44.0 57.0 L 43.0 57.0 L 42.0 57.0 L 41.0 57.0 L 40.0 57.0 L 39.0 57.0 L 38.0 57.0 L 37.0 57.0 L 36.0 57.0 L 35.0 57.0 L 34.0 57.0 L 33.0 57.0 L 32.0 57.0 L 31.0 57.0 L 30.0 57.0 L 29.0 57.0 L 28.0 57.0 L 27.0 57.0 L 26.0 57.0 L 25.0 57.0 L 24.0 57.0 L 23.0 57.0 L 22.0 57.0 L 21.0 57.0 L 20.0 57.0 L 19.0 57.0 L 18.0 57.0 L 17.0 57.0 L 16.0 57.0 L 15.0 57.0 L 14.0 57.0 L 13.0 57.0 L 12.0 57.0 L 11.0 57.0 L 10.0 57.0 L 9.0 57.0 L 8.0 57.0 L 7.0 57.0 L 6.0 57.0 L 5.0 57.0 L 4.333333333333333 57.333333333333336 L 4.0 58.0 L 4.0 59.0 L 4.333333333333333 59.666666666666664 L 5.0 60.0 L 6.0 60.0 L 7.0 60.0 L 8.0 60.0 L 9.0 60.0 L 10.0 60.0 L 11.0 60.0 L 12.0 60.0 L 13.0 60.0 L 14.0 60.0 L 15.0 60.0 L 16.0 60.0 L 17.0 60.0 L 18.0 60.0 L 19.0 60.0 L 20.0 60.0 L 21.0 60.0 L 22.0 60.0 L 23.0 60.0 L 24.0 60.0 L 25.0 60.0 L 26.0 60.0 L 27.0 60.0 L 28.0 60.0 L 29.0 60.0 L 30.0 60.0 L 31.0 60.0 L 32.0 60.0 L 33.0 60.0 L 34.0 60.0 L 35.0 60.0 L 36.0 60.0 L 37.0 60.0 L 38.0 60.0 L 39.0 60.0 L 40.0 60.0 L 41.0 60.0 L 42.0 60.0 L 43.0 60.0 L 44.0 60.0 L 45.0 60.0 L 46.0 60.0 L 47.0 60.0 L 48.0 60.0 L 49.0 60.0 L 50.0 60.0 L 51.0 60.0 L 52.0 60.0 L 53.0 60.0 L 54.0 60.0 L 54.5 60.0 Z" stroke="none" fill="rgb(183,138,103)" />
<path d="M 103.5 66.0 L 104.0 66.0 L 105.0 66.0 L 106.0 66.0 L 107.0 66.0 L 108.0 66.0 L 109.0 66.0 L 110.0 66.0 L 111.0 66.0 L 112.0 66.0 L 113.0 66.0 L 114.0 66.0 L 115.0 66.0 L 116.0 66.0 L 117.0 66.0 L 118.0 66.0 L 119.0 66.0 L 120.0 66.0 L 121.0 66.0 L 122.0 66.0 L 123.0 66.0 L 124.0 66.0 L 124.66666666666667 65.66666666666667 L 125.0 65.0 L 125.0 64.0 L 125.0 63.0 L 125.0 62.0 L 125.0 61.0 L 124.66666666666667 60.333333333333336 L 124.0 60.0 L 123.0 60.0 L 122.0 60.0 L 121.0 60.0 L 120.0 60.0 L 119.0 60.0 L 118.0 60.0 L 117.0 60.0 L 116.0 60.0 L 115.0 60.0 L 114.0 60.0 L 113.0 60.0 L 112.0 60.0 L 111.0 60.0 L 110.0 60.0 L 109.0 60.0 L 108.0 60.0 L 107.0 60.0 L 106.0 60.0 L 105.0 60.0 L 104.0 60.0 L 103.0 60.0 L 102.0 60.0 L 101.0 60.0 L 100.0 60.0 L 99.0 60.0 L 98.0 60.0 L 97.0 60.0 L 96.0 60.0 L 95.0 60.0 L 94.0 60.0 L 93.0 60.0 L 92.0 60.0 L 91.0 60.0 L 90.0 60.0 L 89.0 60.0 L 88.0 60.0 L 87.0 60.0 L 86.0 60.0 L 85.0 60.0 L 84.0 60.0 L 83.0 60.0 L 82.0 60.0 L 81.0 60.0 L 80.0 60.0 L 79.0 60.0 L 78.0 60.0 L 77.0 60.0 L 76.0 60.0 L 75.0 60.0 L 74.0 60.0 L 73.0 60.0 L 72.0 60.0 L 71.0 60.0 L 70.0 60.0 L 69.0 60.0 L 68.0 60.0 L 67.0 60.0 L 66.0 60.0 L 65.0 60.0 L 64.0 60.0 L 63.0 60.0 L 62.0 60.0 L 61.0 60.0 L 60.0 60.0 L 59.0 60.0 L 58.0 60.0 L 57.0 60.0 L 56.0 60.0 L 55.0 60.0 L 54.0 60.0 L 53.0 60.0 L 52.0 60.0 L 51.0 60.0 L 50.0 60.0 L 49.0 60.0 L 48.0 60.0 L 47.0 60.0 L 46.0 60.0 L 45.0 60.0 L 44.0 60.0 L 43.0 60.0 L 42.0 60.0 L 41.0 60.0 L 40.0 60.0 L 39.0 60.0 L 38.0 60.0 L 37.0 60.0 L 36.0 60.0 L 35.0 60.0 L 34.0 60.0 L 33.0 60.0 L 32.0 60.0 L 31.0 60.0 L 30.0 60.0 L 29.0 60.0 L 28.0 60.0 L 27.0 60.0 L 26.0 60.0 L 25.0 60.0 L 24.0 60.0 L 23.0 60.0 L 22.0 60.0 L 21.0 60.0 L 20.0 60.0 L 19.0 60.0 L 18.0 60.0 L 17.0 60.0 L 16.0 60.0 L 15.0 60.0 L 14.0 60.0 L 13.0 60.0 L 12.0 60.0 L 11.0 60.0 L 10.0 60.0 L 9.0 60.0 L 8.0 60.0 L 7.0 60.0 L 6.0 60.0 L 5.0 60.0 L 4.333333333333333 60.333333333333336 L 4.0 61.0 L 4.0 62.0 L 4.0 63.0 L 4.0 64.0 L 4.333333333333333 65.0 L 5.0 65.66666666666667 L 6.0 66.0 L 7.0 66.0 L 8.0 66.0 L 9.0 66.0 L 10.0 66.0 L 11.0 66.0 L 12.0 66.0 L 13.0 66.0 L 14.0 66.0 L 15.0 66.0 L 16.0 66.0 L 17.0 66.0 L 18.0 66.0 L 19.0 66.0 L 20.0 66.0 L 21.0 66.0 L 22.0 66.0 L 23.0 66.0 L 24.0 66.0 L 25.0 66.0 L 26.0 66.0 L 27.0 66.0 L 28.0 66.0 L 29.0 66.0 L 30.0 66.0 L 31.0 66.0 L 32.0 66.0 L 33.0 66.0 L 34.0 66.0 L 35.0 66.0 L 36.0 66.0 L 37.0 66.0 L 38.0 66.0 L 39.0 66.0 L 40.0 66.0 L 41.0 66.0 L 42.0 66.0 L 43.0 66.0 L 44.0 66.0 L 45.0 66.0 L 46.0 66.0 L 47.0 66.0 L 48.0 66.0 L 49.0 66.0 L 50.0 66.0 L 51.0 66.0 L 52.0 66.0 L 53.0 66.0 L 54.0 66.0 L 55.0 66.0 L 56.0 66.0 L 57.0 66.0 L 58.0 66.0 L 59.0 66.0 L 60.0 66.0 L 61.0 66.0 L 62.0 66.0 L 63.0 66.0 L 64.0 66.0 L 65.0 66.0 L 66.0 66.0 L 67.0 66.0 L 68.0 66.0 L 69.0 66.0 L 70.0 66.0 L 71.0 66.0 L 72.0 66.0 L 73.0 66.0 L 74.0 66.0 L 75.0 66.0 L 76.0 66.0 L 77.0 66.0 L 78.0 66.0 L 79.0 66.0 L 80.0 66.0 L 81.0 66.0 L 82.0 66.0 L 83.0 66.0 L 84.0 66.0 L 85.0 66.0 L 86.0 66.0 L 87.0 66.0 L 88.0 66.0 L 89.0 66.0 L 90.0 66.0 L 91.0 66.0 L 92.0 66.0 L 93.0 66.0 L 94.0 66.0 L 95.0 66.0 L 96.0 66.0 L 97.0 66.0 L 98.0 66.0 L 99.0 66.0 L 100.0 66.0 L 101.0 66.0 L 102.0 66.0 L 102.5 66.0 Z" stroke="none" fill="rgb(182,138,103)" />
<path d="M 59.5 72.0 L 60.0 72.0 L 61.0 72.0 L 62.0 72.0 L 63.0 72.0 L 64.0 72.0 L 65.0 72.0 L 66.0 72.0 L 67.0 72.0 L 68.0 72.0 L 69.0 72.0 L 70.0 72.0 L 71.0 72.0 L 72.0 72.0 L 73.0 72.0 L 74.0 72.0 L 75.0 72.0 L 76.0 72.0 L 77.0 72.0 L 78.0 72.0 L 79.0 72.0 L 80.0 72.0 L 81.0 72.0 L 82.0 72.0 L 83.0 72.0 L 84.0 72.0 L 85.0 72.0 L 86.0 72.0 L 87.0 72.0 L 88.0 72.0 L 89.0 72.0 L 90.0 72.0 L 91.0 72.0 L 92.0 72.0 L 93.0 72.0 L 94.0 72.0 L 95.0 72.0 L 96.0 72.0 L 97.0 72.0 L 98.0 72.0 L 99.0 72.0 L 100.0 72.0 L 101.0 72.0 L 102.0 72.0 L 103.0 72.0 L 104.0 72.0 L 105.0 72.0 L 106.0 72.0 L 107.0 72.0 L 108.0 72.0 L 109.0 72.0 L 110.0 72.0 L 111.0 72.0 L 112.0 72.0 L 113.0 72.0 L 114.0 72.0 L 115.0 72.0 L 116.0 72.0 L 117.0 72.0 L 118.0 72.0 L 119.0 72.0 L 120.0 72.0 L 121.0 72.0 L 122.0 72.0 L 123.0 72.0 L 124.0 72.0 L 124.66666666666667 71.66666666666667 L 125.0 71.0 L 125.0 70.0 L 125.0 69.0 L 125.0 68.0 L 125.0 67.0 L 124.66666666666667 66.33333333333333 L 124.0 66.0 L 123.0 66.0 L 122.0 66.0 L 121.0 66.0 L 120.0 66.0 L 119.0 66.0 L 118.0 66.0 L 117.0 66.0 L 116.0 66.0 L 115.0 66.0 L 114.0 66.0 L 113.0 66.0 L 112.0 66.0 L 111.0 66.0 L 110.0 66.0 L 109.0 66.0 L 108.0 66.0 L 107.0 66.0 L 106.0 66.0 L 105.0 66.0 L 104.0 66.0 L 103.0 66.0 L 102.0 66.0 L 101.0 66.0 L 100.0 66.0 L 99.0 66.0 L 98.0 66.0 L 97.0 66.0 L 96.0 66.0 L 95.0 66.0 L 94.0 66.0 L 93.0 66.0 L 92.0 66.0 L 91.0 66.0 L 90.0 66.0 L 89.0 66.0 L 88.0 66.0 L 87.0 66.0 L 86.0 66.0 L 85.0 66.0 L 84.0 66.0 L 83.0 66.0 L 82.0 66.0 L 81.0 66.0 L 80.0 66.0 L 79.0 66.0 L 78.0 66.0 L 77.0 66.0 L 76.0 66.0 L 75.0 66.0 L 74.0 66.0 L 73.0 66.0 L 72.0 66.0 L 71.0 66.0 L 70.0 66.0 L 69.0 66.0 L 68.0 66.0 L 67.0 66.0 L 66.0 66.0 L 65.0 66.0 L 64.0 66.0 L 63.0 66.0 L 62.0 66.0 L 61.0 66.0 L 60.0 66.0 L 59.0 66.0 L 58.0 66.0 L 57.0 66.0 L 56.0 66.0 L 55.0 66.0 L 54.0 66.0 L 53.0 66.0 L 52.0 66.0 L 51.0 66.0 L 50.0 66.0 L 49.0 66.0 L 48.0 66.0 L 47.0 66.0 L 46.0 66.0 L 45.0 66.0 L 44.0 66.0 L 43.0 66.0 L 42.0 66.0 L 41.0 66.0 L 40.0 66.0 L 39.0 66.0 L 38.0 66.0 L 37.0 66.0 L 36.0 66.0 L 35.0 66.0 L 34.0 66.0 L 33.0 66.0 L 32.0 66.0 L 31.0 66.0 L 30.0 66.0 L 29.0 66.0 L 28.0 66.0 L 27.0 66.0 L 26.0 66.0 L 25.0 66.0 L 24.0 66.0 L 23.0 66.0 L 22.0 66.0 L 21.0 66.0 L 20.0 66.0 L 19.0 66.0 L 18.0 66.0 L 17.0 66.0 L 16.0 66.0 L 15.0 66.0 L 14.0 66.0 L 13.0 66.0 L 12.0 66.0 L 11.0 66.0 L 10.0 66.0 L 9.0 66.0 L 8.0 66.0 L 7.0 66.0 L 6.0 66.0 L 5.0 66.0 L 4.333333333333333 66.33333333333333 L 4.0 67.0 L 4.0 68.0 L 4.0 69.0 L 4.0 70.0 L 4.0 71.0 L 4.333333333333333 71.66666666666667 L 5.0 72.0 L 6.0 72.0 L 7.0 72.0 L 8.0 72.0 L 9.0 72.0 L 10.0 72.0 L 11.0 72.0 L 12.0 72.0 L 13.0 72.0 L 14.0 72.0 L 15.0 72.0 L 16.0 72.0 L 17.0 72.0 L 18.0 72.0 L 19.0 72.0 L 20.0 72.0 L 21.0 72.0 L 22.0 72.0 L 23.0 72.0 L 24.0 72.0 L 25.0 72.0 L 26.0 72.0 L 27.0 72.0 L 28.0 72.0 L 29.0 72.0 L 30.0 72.0 L 31.0 72.0 L 32.0 72.0 L 33.0 72.0 L 34.0 72.0 L 35.0 72.0 L 36.0 72.0 L 37.0 72.0 L 38.0 72.0 L 39.0 72.0 L 40.0 72.0 L 41.0 72.0 L 42.0 72.0 L 43.0 72.0 L 44.0 72.0 L 45.0 72.0 L 46.0 72.0 L 47.0 72.0 L 48.0 72.0 L 49.0 72.0 L 50.0 72.0 L 51.0 72.0 L 52.0 72.0 L 53.0 72.0 L 54.0 72.0 L 55.0 72.0 L 56.0 72.0 L 57.0 72.0 L 58.0 72.0 L 58.5 72.0 Z" stroke="none" fill="rgb(181,137,103)" />
<path d="M 59.5 78.0 L 60.0 78.0 L 61.0 78.0 L 62.0 78.0 L 63.0 78.0 L 64.0 78.0 L 65.0 78.0 L 66.0 78.0 L 67.0 78.0 L 68.0 78.0 L 69.0 78.0 L 70.0 78.0 L 71.0 78.0 L 72.0 78.0 L 73.0 78.0 L 74.0 78.0 L 75.0 78.0 L 76.0 78.0 L 77.0 78.0 L 78.0 78.0 L 79.0 78.0 L 80.0 78.0 L 81.0 78.0 L 82.0 78.0 L 83.0 78.0 L 84.0 78.0 L 85.0 78.0 L 86.0 78.0 L 87.0 78.0 L 88.0 78.0 L 89.0 78.0 L 90.0 78.0 L 91.0 78.0 L 92.0 78.0 L 93.0 78.0 L 94.0 78.0 L 95.0 78.0 L 96.0 78.0 L 97.0 78.0 L 98.0 78.0 L 99.0 78.0 L 100.0 78.0 L 101.0 78.0 L 102.0 78.0 L 103.0 78.0 L 104.0 78.0 L 105.0 78.0 L 106.0 78.0 L 107.0 78.0 L 108.0 78.0 L 109.0 78.0 L 110.0 78.0 L 111.0 78.0 L 112.0 78.0 L 113.0 78.0 L 114.0 78.0 L 115.0 78.0 L 116.0 78.0 L 117.0 78.0 L 118.0 78.0 L 119.0 78.0 L 120.0 78.0 L 121.0 78.0 L 122.0 78.0 L 123.0 78.0 L 124.0 78.0 L 124.66666666666667 77.66666666666667 L 125.0 77.0 L 125.0 76.0 L 125.0 75.0 L 125.0 74.0 L 125.0 73.0 L 124.66666666666667 72.33333333333333 L 124.0 72.0 L 123.0 72.0 L 122.0 72.0 L 121.0 72.0 L 120.0 72.0 L 119.0 72.0 L 118.0 72.0 L 117.0 72.0 L 116.0 72.0 L 115.0 72.0 L 114.0 72.0 L 113.0 72.0 L 112.0 72.0 L 111.0 72.0 L 110.0 72.0 L 109.0 72.0 L 108.0 72.0 L 107.0 72.0 L 106.0 72.0 L 105.0 72.0 L 104.0 72.0 L 103.0 72.0 L 102.0 72.0 L 101.0 72.0 L 100.0 72.0 L 99.0 72.0 L 98.0 72.0 L 97.0 72.0 L 96.0 72.0 L 95.0 72.0 L 94.0 72.0 L 93.0 72.0 L 92.0 72.0 L 91.0 72.0 L 90.0 72.0 L 89.0 72.0 L 88.0 72.0 L 87.0 72.0 L 86.0 72.0 L 85.0 72.0 L 84.0 72.0 L 83.0 72.0 L 82.0 72.0 L 81.0 72.0 L 80.0 72.0 L 79.0 72.0 L 78.0 72.0 L 77.0 72.0 L 76.0 72.0 L 75.0 72.0 L 74.0 72.0 L 73.0 72.0 L 72.0 72.0 L 71.0 72.0 L 70.0 72.0 L 69.0 72.0 L 68.0 72.0 L 67.0 72.0 L 66.0 72.0 L 65.0 72.0 L 64.0 72.0 L 63.0 72.0 L 62.0 72.0 L 61.0 72.0 L 60.0 72.0 L 59.0 72.0 L 58.0 72.0 L 57.0 72.0 L 56.0 72.0 L 55.0 72.0 L 54.0 72.0 L 53.0 72.0 L 52.0 72.0 L 51.0 72.0 L 50.0 72.0 L 49.0 72.0 L 48.0 72.0 L 47.0 72.0 L 46.0 72.0 L 45.0 72.0 L 44.0 72.0 L 43.0 72.0 L 42.0 72.0 L 41.0 72.0 L 40.0 72.0 L 39.0 72.0 L 38.0 72.0 L 37.0 72.0 L 36.0 72.0 L 35.0 72.0 L 34.0 72.0 L 33.0 72.0 L 32.0 72.0 L 31.0 72.0 L 30.0 72.0 L 29.0 72.0 L 28.0 72.0 L 27.0 72.0 L 26.0 72.0 L 25.0 72.0 L 24.0 72.0 L 23.0 72.0 L 22.0 72.0 L 21.0 72.0 L 20.0 72.0 L 19.0 72.0 L 18.0 72.0 L 17.0 72.0 L 16.0 72.0 L 15.0 72.0 L 14.0 72.0 L 13.0 72.0 L 12.0 72.0 L 11.0 72.0 L 10.0 72.0 L 9.0 72.0 L 8.0 72.0 L 7.0 72.0 L 6.0 72.0 L 5.0 72.0 L 4.333333333333333 72.33333333333333 L 4.0 73.0 L 4.0 74.0 L 4.0 75.0 L 4.0 76.0 L 4.333333333333333 77.0 L 5.0 77.66666666666667 L 6.0 78.0 L 7.0 78.0 L 8.0 78.0 L 9.0 78.0 L 10.0 78.0 L 11.0 78.0 L 12.0 78.0 L 13.0 78.0 L 14.0 78.0 L 15.0 78.0 L 16.0 78.0 L 17.0 78.0 L 18.0 78.0 L 19.0 78.0 L 20.0 78.0 L 21.0 78.0 L 22.0 78.0 L 23.0 78.0 L 24.0 78.0 L 25.0 78.0 L 26.0 78.0 L 27.0 78.0 L 28.0 78.0 L 29.0 78.0 L 30.0 78.0 L 31.0 78.0 L 32.0 78.0 L 33.0 78.0 L 34.0 78.0 L 35.0 78.0 L 36.0 78.0 L 37.0 78.0 L 38.0 78.0 L 39.0 78.0 L 40.0 78.0 L 41.0 78.0 L 42.0 78.0 L 43.0 78.0 L 44.0 78.0 L 45.0 78.0 L 46.0 78.0 L 47.0 78.0 L 48.0 78.0 L 49.0 78.0 L 50.0 78.0 L 51.0 78.0 L 52.0 78.0 L 53.0 78.0 L 54.0 78.0 L 55.0 78.0 L 56.0 78.0 L 57.0 78.0 L 58.0 78.0 L 58.5 78.0 Z" stroke="none" fill="rgb(180,136,102)" />
<path d="M 59.5 81.0 L 60.0 81.0 L 61.0 81.0 L 62.0 81.0 L 63.0 81.0 L 64.0 81.0 L 65.0 81.0 L 66.0 81.0 L 67.0 81.0 L 68.0 81.0 L 69.0 81.0 L 70.0 81.0 L 71.0 81.0 L 72.0 81.0 L 73.0 81.0 L 74.0 81.0 L 75.0 81.0 L 76.0 81.0 L 77.0 81.0 L 78.0 81.0 L 79.0 81.0 L 80.0 81.0 L 81.0 81.0 L 82.0 81.0 L 83.0 81.0 L 84.0 81.0 L 85.0 81.0 L 86.0 81.0 L 87.0 81.0 L 88.0 81.0 L 89.0 81.0 L 90.0 81.0 L 91.0 81.0 L 92.0 81.0 L 93.0 81.0 L 94.0 81.0 L 95.0 81.0 L 96.0 81.0 L 97.0 81.0 L 98.0 81.0 L 99.0 81.0 L 100.0 81.0 L 101.0 81.0 L 102.0 81.0 L 103.0 81.0 L 104.0 81.0 L 105.0 81.0 L 106.0 81.0 L 107.0 81.0 L 108.0 81.0 L 109.0 81.0 L 110.0 81.0 L 111.0 81.0 L 112.0 81.0 L 113.0 81.0 L 114.0 81.0 L 115.0 81.0 L 116.0 81.0 L 117.0 81.0 L 118.0 81.0 L 119.0 81.0 L 120.0 81.0 L 121.0 81.0 L 122.0 81.0 L 123.0 81.0 L 124.0 81.0 L 124.66666666666667 80.66666666666667 L 125.0 80.0 L 125.0 79.0 L 124.66666666666667 78.33333333333333 L 124.0 78.0 L 123.0 78.0 L 122.0 78.0 L 121.0 78.0 L 120.0 78.0 L 119.0 78.0 L 118.0 78.0 L 117.0 78.0 L 116.0 78.0 L 115.0 78.0 L 114.0 78.0 L 113.0 78.0 L 112.0 78.0 L 111.0 78.0 L 110.0 78.0 L 109.0 78.0 L 108.0 78.0 L 107.0 78.0 L 106.0 78.0 L 105.0 78.0 L 104.0 78.0 L 103.0 78.0 L 102.0 78.0 L 101.0 78.0 L 100.0 78.0 L 99.0 78.0 L 98.0 78.0 L 97.0 78.0 L 96.0 78.0 L 95.0 78.0 L 94.0 78.0 L 93.0 78.0 L 92.0 78.0 L 91.0 78.0 L 90.0 78.0 L 89.0 78.0 L 88.0 78.0 L 87.0 78.0 L 86.0 78.0 L 85.0 78.0 L 84.0 78.0 L 83.0 78.0 L 82.0 78.0 L 81.0 78.0 L 80.0 78.0 L 79.0 78.0 L 78.0 78.0 L 77.0 78.0 L 76.0 78.0 L 75.0 78.0 L 74.0 78.0 L 73.0 78.0 L 72.0 78.0 L 71.0 78.0 L 70.0 78.0 L 69.0 78.0 L 68.0 78.0 L 67.0 78.0 L 66.0 78.0 L 65.0 78.0 L 64.0 78.0 L 63.0 78.0 L 62.0 78.0 L 61.0 78.0 L 60.0 78.0 L 59.0 78.0 L 58.0 78.0 L 57.0 78.0 L 56.0 78.0 L 55.0 78.0 L 54.0 78.0 L 53.0 78.0 L 52.0 78.0 L 51.0 78.0 L 50.0 78.0 L 49.0 78.0 L 48.0 78.0 L 47.0 78.0 L 46.0 78.0 L 45.0 78.0 L 44.0 78.0 L 43.0 78.0 L 42.0 78.0 L 41.0 78.0 L 40.0 78.0 L 39.0 78.0 L 38.0 78.0 L 37.0 78.0 L 36.0 78.0 L 35.0 78.0 L 34.0 78.0 L 33.0 78.0 L 32.0 78.0 L 31.0 78.0 L 30.0 78.0 L 29.0 78.0 L 28.0 78.0 L 27.0 78.0 L 26.0 78.0 L 25.0 78.0 L 24.0 78.0 L 23.0 78.0 L 22.0 78.0 L 21.0 78.0 L 20.0 78.0 L 19.0 78.0 L 18.0 78.0 L 17.0 78.0 L 16.0 78.0 L 15.0 78.0 L 14.0 78.0 L 13.0 78.0 L 12.0 78.0 L 11.0 78.0 L 10.0 78.0 L 9.0 78.0 L 8.0 78.0 L 7.0 78.0 L 6.0 78.0 L 5.0 78.0 L 4.333333333333333 78.33333333333333 L 4.0 79.0 L 4.0 80.0 L 4.333333333333333 80.66666666666667 L 5.0 81.0 L 6.0 81.0 L 7.0 81.0 L 8.0 81.0 L 9.0 81.0 L 10.0 81.0 L 11.0 81.0 L 12.0 81.0 L 13.0 81.0 L 14.0 81.0 L 15.0 81.0 L 16.0 81.0 L 17.0 81.0 L 18.0 81.0 L 19.0 81.0 L 20.0 81.0 L 21.0 81.0 L 22.0 81.0 L 23.0 81.0 L 24.0 81.0 L 25.0 81.0 L 26.0 81.0 L 27.0 81.0 L 28.0 81.0 L 29.0 81.0 L 30.0 81.0 L 31.0 81.0 L 32.0 81.0 L 33.0 81.0 L 34.0 81.0 L 35.0 81.0 L 36.0 81.0 L 37.0 81.0 L 38.0 81.0 L 39.0 81.0 L 40.0 81.0 L 41.0 81.0 L 42.0 81.0 L 43.0 81.0 L 44.0 81.0 L 45.0 81.0 L 46.0 81.0 L 47.0 81.0 L 48.0 81.0 L 49.0 81.0 L 50.0 81.0 L 51.0 81.0 L 52.0 81.0 L 53.0 81.0 L 54.0 81.0 L 55.0 81.0 L 56.0 81.0 L 57.0 81.0 L 58.0 81.0 L 58.5 81.0 Z" stroke="none" fill="rgb(179,135,102)" />
<path d="M 29.5 83.0 L 30.0 83.0 L 31.0 83.0 L 32.0 83.0 L 33.0 83.0 L 34.0 83.0 L 35.0 83.0 L 36.0 83.0 L 37.0 83.0 L 38.0 83.0 L 39.0 83.0 L 40.0 83.0 L 41.0 83.0 L 42.0 83.0 L 43.0 83.0 L 44.0 83.0 L 45.0 83.0 L 46.0 83.0 L 47.0 83.0 L 48.0 83.0 L 49.0 83.0 L 50.0 83.0 L 51.0 83.0 L 52.0 83.0 L 53.0 83.0 L 54.0 83.0 L 55.0 83.0 L 56.0 83.0 L 57.0 83.0 L 58.0 83.0 L 59.0 83.0 L 60.0 83.0 L 61.0 83.0 L 62.0 83.0 L 63.0 83.0 L 64.0 83.0 L 65.0 83.0 L 66.0 83.0 L 67.0 83.0 L 68.0 83.0 L 69.0 83.0 L 70.0 83.0 L 71.0 83.0 L 72.0 83.0 L 73.0 83.0 L 74.0 83.0 L 75.0 83.0 L 76.0 83.0 L 77.0 83.0 L 78.0 83.0 L 79.0 83.0 L 80.0 83.0 L 81.0 83.0 L 82.0 83.0 L 83.0 83.0 L 84.0 83.0 L 85.0 83.0 L 86.0 83.0 L 87.0 83.0 L 88.0 83.0 L 89.0 83.0 L 90.0 83.0 L 91.0 83.0 L 92.0 83.0 L 93.0 83.0 L 94.0 83.0 L 95.0 83.0 L 96.0 83.0 L 97.0 83.0 L 98.0 83.0 L 99.0 83.0 L 100.0 83.0 L 101.0 83.0 L 102.0 83.0 L 103.0 83.0 L 104.0 83.0 L 105.0 83.0 L 106.0 83.0 L 107.0 83.0 L 108.0 83.0 L 109.0 83.0 L 110.0 83.0 L 111.0 83.0 L 112.0 83.0 L 113.0 83.0 L 114.0 83.0 L 115.0 83.0 L 116.0 83.0 L 117.0 83.0 L 118.0 83.0 L 119.0 83.0 L 120.0 83.0 L 121.0 83.0 L 122.0 83.0 L 123.0 83.0 L 124.0 83.0 L 124.66666666666667 82.66666666666667 L 125.0 82.0 L 124.66666666666667 81.33333333333333 L 124.0 81.0 L 123.0 81.0 L 122.0 81.0 L 121.0 81.0 L 120.0 81.0 L 119.0 81.0 L 118.0 81.0 L 117.0 81.0 L 116.0 81.0 L 115.0 81.0 L 114.0 81.0 L 113.0 81.0 L 112.0 81.0 L 111.0 81.0 L 110.0 81.0 L 109.0 81.0 L 108.0 81.0 L 107.0 81.0 L 106.0 81.0 L 105.0 81.0 L 104.0 81.0 L 103.0 81.0 L 102.0 81.0 L 101.0 81.0 L 100.0 81.0 L 99.0 81.0 L 98.0 81.0 L 97.0 81.0 L 96.0 81.0 L 95.0 81.0 L 94.0 81.0 L 93.0 81.0 L 92.0 81.0 L 91.0 81.0 L 90.0 81.0 L 89.0 81.0 L 88.0 81.0 L 87.0 81.0 L 86.0 81.0 L 85.0 81.0 L 84.0 81.0 L 83.0 81.0 L 82.0 81.0 L 81.0 81.0 L 80.0 81.0 L 79.0 81.0 L 78.0 81.0 L 77.0 81.0 L 76.0 81.0 L 75.0 81.0 L 74.0 81.0 L 73.0 81.0 L 72.0 81.0 L 71.0 81.0 L 70.0 81.0 L 69.0 81.0 L 68.0 81.0 L 67.0 81.0 L 66.0 81.0 L 65.0 81.0 L 64.0 81.0 L 63.0 81.0 L 62.0 81.0 L 61.0 81.0 L 60.0 81.0 L 59.0 81.0 L 58.0 81.0 L 57.0 81.0 L 56.0 81.0 L 55.0 81.0 L 54.0 81.0 L 53.0 81.0 L 52.0 81.0 L 51.0 81.0 L 50.0 81.0 L 49.0 81.0 L 48.0 81.0 L 47.0 81.0 L 46.0 81.0 L 45.0 81.0 L 44.0 81.0 L 43.0 81.0 L 42.0 81.0 L 41.0 81.0 L 40.0 81.0 L 39.0 81.0 L 38.0 81.0 L 37.0 81.0 L 36.0 81.0 L 35.0 81.0 L 34.0 81.0 L 33.0 81.0 L 32.0 81.0 L 31.0 81.0 L 30.0 81.0 L 29.0 81.0 L 28.0 81.0 L 27.0 81.0 L 26.0 81.0 L 25.0 81.0 L 24.0 81.0 L 23.0 81.0 L 22.0 81.0 L 21.0 81.0 L 20.0 81.0 L 19.0 81.0 L 18.0 81.0 L 17.0 81.0 L 16.0 81.0 L 15.0 81.0 L 14.0 81.0 L 13.0 81.0 L 12.0 81.0 L 11.0 81.0 L 10.0 81.0 L 9.0 81.0 L 8.0 81.0 L 7.0 81.0 L 6.0 81.0 L 5.0 81.0 L 4.333333333333333 81.33333333333333 L 4.0 82.0 L 4.333333333333333 82.66666666666667 L 5.0 83.0 L 6.0 83.0 L 7.0 83.0 L 8.0 83.0 L 9.0 83.0 L 10.0 83.0 L 11.0 83.0 L 12.0 83.0 L 13.0 83.0 L 14.0 83.0 L 15.0 83.0 L 16.0 83.0 L 17.0 83.0 L 18.0 83.0 L 19.0 83.0 L 20.0 83.0 L 21.0 83.0 L 22.0 83.0 L 23.0 83.0 L 24.0 83.0 L 25.0 83.0 L 26.0 83.0 L 27.0 83.0 L 28.0 83.0 L 28.5 83.0 Z" stroke="none" fill="rgb(178,135,102)" />
<path d="M 12.5 85.0 L 13.0 85.0 L 14.0 85.0 L 15.0 85.0 L 16.0 85.0 L 17.0 85.0 L 18.0 85.0 L 19.0 85.0 L 20.0 85.0 L 21.0 85.0 L 22.0 85.0 L 23.0 85.0 L 24.0 85.0 L 25.0 85.0 L 26.0 85.0 L 27.0 85.0 L 28.0 85.0 L 29.0 85.0 L 30.0 85.0 L 31.0 85.0 L 32.0 85.0 L 33.0 85.0 L 34.0 85.0 L 35.0 85.0 L 36.0 85.0 L 37.0 85.0 L 38.0 85.0 L 39.0 85.0 L 40.0 85.0 L 41.0 85.0 L 42.0 85.0 L 43.0 85.0 L 44.0 85.0 L 45.0 85.0 L 46.0 85.0 L 47.0 85.0 L 48.0 85.0 L 49.0 85.0 L 50.0 85.0 L 51.0 85.0 L 52.0 85.0 L 53.0 85.0 L 54.0 85.0 L 55.0 85.0 L 56.0 85.0 L 57.0 85.0 L 58.0 85.0 L 59.0 85.0 L 60.0 85.0 L 61.0 85.0 L 62.0 85.0 L 63.0 85.0 L 64.0 85.0 L 65.0 85.0 L 66.0 85.0 L 67.0 85.0 L 68.0 85.0 L 69.0 85.0 L 70.0 85.0 L 71.0 85.0 L 72.0 85.0 L 73.0 85.0 L 74.0 85.0 L 75.0 85.0 L 76.0 85.0 L 77.0 85.0 L 78.0 85.0 L 79.0 85.0 L 80.0 85.0 L 81.0 85.0 L 82.0 85.0 L 83.0 85.0 L 84.0 85.0 L 85.0 85.0 L 86.0 85.0 L 87.0 85.0 L 88.0 85.0 L 89.0 85.0 L 90.0 85.0 L 91.0 85.0 L 92.0 85.0 L 93.0 85.0 L 94.0 85.0 L 95.0 85.0 L 96.0 85.0 L 97.0 85.0 L 98.0 85.0 L 99.0 85.0 L 100.0 85.0 L 101.0 85.0 L 102.0 85.0 L 103.0 85.0 L 104.0 85.0 L 105.0 85.0 L 106.0 85.0 L 107.0 85.0 L 108.0 85.0 L 109.0 85.0 L 110.0 85.0 L 111.0 85.0 L 112.0 85.0 L 113.0 85.0 L 114.0 85.0 L 115.0 85.0 L 116.0 85.0 L 117.0 85.0 L 118.0 85.0 L 119.0 85.0 L 120.0 85.0 L 121.0 85.0 L 122.0 85.0 L 123.0 85.0 L 124.0 85.0 L 124.66666666666667 84.66666666666667 L 125.0 84.0 L 124.66666666666667 83.33333333333333 L 124.0 83.0 L 123.0 83.0 L 122.0 83.0 L 121.0 83.0 L 120.0 83.0 L 119.0 83.0 L 118.0 83.0 L 117.0 83.0 L 116.0 83.0 L 115.0 83.0 L 114.0 83.0 L 113.0 83.0 L 112.0 83.0 L 111.0 83.0 L 110.0 83.0 L 109.0 83.0 L 108.0 83.0 L 107.0 83.0 L 106.0 83.0 L 105.0 83.0 L 104.0 83.0 L 103.0 83.0 L 102.0 83.0 L 101.0 83.0 L 100.0 83.0 L 99.0 83.0 L 98.0 83.0 L 97.0 83.0 L 96.0 83.0 L 95.0 83.0 L 94.0 83.0 L 93.0 83.0 L 92.0 83.0 L 91.0 83.0 L 90.0 83.0 L 89.0 83.0 L 88.0 83.0 L 87.0 83.0 L 86.0 83.0 L 85.0 83.0 L 84.0 83.0 L 83.0 83.0 L 82.0 83.0 L 81.0 83.0 L 80.0 83.0 L 79.0 83.0 L 78.0 83.0 L 77.0 83.0 L 76.0 83.0 L 75.0 83.0 L 74.0 83.0 L 73.0 83.0 L 72.0 83.0 L 71.0 83.0 L 70.0 83.0 L 69.0 83.0 L 68.0 83.0 L 67.0 83.0 L 66.0 83.0 L 65.0 83.0 L 64.0 83.0 L 63.0 83.0 L 62.0 83.0 L 61.0 83.0 L 60.0 83.0 L 59.0 83.0 L 58.0 83.0 L 57.0 83.0 L 56.0 83.0 L 55.0 83.0 L 54.0 83.0 L 53.0 83.0 L 52.0 83.0 L 51.0 83.0 L 50.0 83.0 L 49.0 83.0 L 48.0 83.0 L 47.0 83.0 L 46.0 83.0 L 45.0 83.0 L 44.0 83.0 L 43.0 83.0 L 42.0 83.0 L 41.0 83.0 L 40.0 83.0 L 39.0 83.0 L 38.0 83.0 L 37.0 83.0 L 36.0 83.0 L 35.0 83.0 L 34.0 83.0 L 33.0 83.0 L 32.0 83.0 L 31.0 83.0 L 30.0 83.0 L 29.0 83.0 L 28.0 83.0 L 27.0 83.0 L 26.0 83.0 L 25.0 83.0 L 24.0 83.0 L 23.0 83.0 L 22.0 83.0 L 21.0 83.0 L 20.0 83.0 L 19.0 83.0 L 18.0 83.0 L 17.0 83.0 L 16.0 83.0 L 15.0 83.0 L 14.0 83.0 L 13.0 83.0 L 12.0 83.0 L 11.0 83.0 L 10.0 83.0 L 9.0 83.0 L 8.0 83.0 L 7.0 83.0 L 6.0 83.0 L 5.0 83.0 L 4.333333333333333 83.33333333333333 L 4.0 84.0 L 4.333333333333333 84.66666666666667 L 5.0 85.0 L 6.0 85.0 L 7.0 85.0 L 8.0 85.0 L 9.0 85.0 L 10.0 85.0 L 11.0 85.0 L 11.5 85.0 Z" stroke="none" fill="rgb(178,134,102)" />
<path d="M 72.5 88.0 L 73.0 88.0 L 74.0 88.0 L 75.0 88.0 L 76.0 88.0 L 77.0 88.0 L 78.0 88.0 L 79.0 88.0 L 80.0 88.0 L 81.0 88.0 L 82.0 88.0 L 83.0 88.0 L 84.0 88.0 L 85.0 88.0 L 86.0 88.0 L 87.0 88.0 L 88.0 88.0 L 89.0 88.0 L 90.0 88.0 L 91.0 88.0 L 92.0 88.0 L 93.0 88.0 L 94.0 88.0 L 95.0 88.0 L 96.0 88.0 L 97.0 88.0 L 98.0 88.0 L 99.0 88.0 L 100.0 88.0 L 101.0 88.0 L 102.0 88.0 L 103.0 88.0 L 104.0 88.0 L 105.0 88.0 L 106.0 88.0 L 107.0 88.0 L 108.0 88.0 L 109.0 88.0 L 110.0 88.0 L 111.0 88.0 L 112.0 88.0 L 113.0 88.0 L 114.0 88.0 L 115.0 88.0 L 116.0 88.0 L 117.0 88.0 L 118.0 88.0 L 119.0 88.0 L 120.0 88.0 L 121.0 88.0 L 122.0 88.0 L 123.0 88.0 L 124.0 88.0 L 124.66666666666667 87.66666666666667 L 125.0 87.0 L 125.0 86.0 L 124.66666666666667 85.33333333333333 L 124.0 85.0 L 123.0 85.0 L 122.0 85.0 L 121.0 85.0 L 120.0 85.0 L 119.0 85.0 L 118.0 85.0 L 117.0 85.0 L 116.0 85.0 L 115.0 85.0 L 114.0 85.0 L 113.0 85.0 L 112.0 85.0 L 111.0 85.0 L 110.0 85.0 L 109.0 85.0 L 108.0 85.0 L 107.0 85.0 L 106.0 85.0 L 105.0 85.0 L 104.0 85.0 L 103.0 85.0 L 102.0 85.0 L 101.0 85.0 L 100.0 85.0 L 99.0 85.0 L 98.0 85.0 L 97.0 85.0 L 96.0 85.0 L 95.0 85.0 L 94.0 85.0 L 93.0 85.0 L 92.0 85.0 L 91.0 85.0 L 90.0 85.0 L 89.0 85.0 L 88.0 85.0 L 87.0 85.0 L 86.0 85.0 L 85.0 85.0 L 84.0 85.0 L 83.0 85.0 L 82.0 85.0 L 81.0 85.0 L 80.0 85.0 L 79.0 85.0 L 78.0 85.0 L 77.0 85.0 L 76.0 85.0 L 75.0 85.0 L 74.0 85.0 L 73.0 85.0 L 72.0 85.0 L 71.0 85.0 L 70.0 85.0 L 69.0 85.0 L 68.0 85.0 L 67.0 85.0 L 66.0 85.0 L 65.0 85.0 L 64.0 85.0 L 63.0 85.0 L 62.0 85.0 L 61.0 85.0 L 60.0 85.0 L 59.0 85.0 L 58.0 85.0 L 57.0 85.0 L 56.0 85.0 L 55.0 85.0 L 54.0 85.0 L 53.0 85.0 L 52.0 85.0 L 51.0 85.0 L 50.0 85.0 L 49.0 85.0 L 48.0 85.0 L 47.0 85.0 L 46.0 85.0 L 45.0 85.0 L 44.0 85.0 L 43.0 85.0 L 42.0 85.0 L 41.0 85.0 L 40.0 85.0 L 39.0 85.0 L 38.0 85.0 L 37.0 85.0 L 36.0 85.0 L 35.0 85.0 L 34.0 85.0 L 33.0 85.0 L 32.0 85.0 L 31.0 85.0 L 30.0 85.0 L 29.0 85.0 L 28.0 85.0 L 27.0 85.0 L 26.0 85.0 L 25.0 85.0 L 24.0 85.0 L 23.0 85.0 L 22.0 85.0 L 21.0 85.0 L 20.0 85.0 L 19.0 85.0 L 18.0 85.0 L 17.0 85.0 L 16.0 85.0 L 15.0 85.0 L 14.0 85.0 L 13.0 85.0 L 12.0 85.0 L 11.0 85.0 L 10.0 85.0 L 9.0 85.0 L 8.0 85.0 L 7.0 85.0 L 6.0 85.0 L 5.0 85.0 L 4.333333333333333 85.33333333333333 L 4.0 86.0 L 4.0 87.0 L 4.333333333333333 87.66666666666667 L 5.0 88.0 L 6.0 88.0 L 7.0 88.0 L 8.0 88.0 L 9.0 88.0 L 10.0 88.0 L 11.0 88.0 L 12.0 88.0 L 13.0 88.0 L 14.0 88.0 L 15.0 88.0 L 16.0 88.0 L 17.0 88.0 L 18.0 88.0 L 19.0 88.0 L 20.0 88.0 L 21.0 88.0 L 22.0 88.0 L 23.0 88.0 L 24.0 88.0 L 25.0 88.0 L 26.0 88.0 L 27.0 88.0 L 28.0 88.0 L 29.0 88.0 L 30.0 88.0 L 31.0 88.0 L 32.0 88.0 L 33.0 88.0 L 34.0 88.0 L 35.0 88.0 L 36.0 88.0 L 37.0 88.0 L 38.0 88.0 L 39.0 88.0 L 40.0 88.0 L 41.0 88.0 L 42.0 88.0 L 43.0 88.0 L 44.0 88.0 L 45.0 88.0 L 46.0 88.0 L 47.0 88.0 L 48.0 88.0 L 49.0 88.0 L 50.0 88.0 L 51.0 88.0 L 52.0 88.0 L 53.0 88.0 L 54.0 88.0 L 55.0 88.0 L 56.0 88.0 L 57.0 88.0 L 58.0 88.0 L 59.0 88.0 L 60.0 88.0 L 61.0 88.0 L 62.0 88.0 L 63.0 88.0 L 64.0 88.0 L 65.0 88.0 L 66.0 88.0 L 67.0 88.0 L 68.0 88.0 L 69.0 88.0 L 70.0 88.0 L 71.0 88.0 L 71.5 88.0 Z" stroke="none" fill="rgb(177,134,102)" />
<path d="M 59.5 92.0 L 60.0 92.0 L 61.0 92.0 L 62.0 92.0 L 63.0 92.0 L 64.0 92.0 L 65.0 92.0 L 66.0 92.0 L 67.0 92.0 L 68.0 92.0 L 69.0 92.0 L 70.0 92.0 L 71.0 92.0 L 72.0 92.0 L 73.0 92.0 L 74.0 92.0 L 75.0 92.0 L 76.0 92.0 L 77.0 92.0 L 78.0 92.0 L 79.0 92.0 L 80.0 92.0 L 81.0 92.0 L 82.0 92.0 L 83.0 92.0 L 84.0 92.0 L 85.0 92.0 L 86.0 92.0 L 87.0 92.0 L 88.0 92.0 L 89.0 92.0 L 90.0 92.0 L 91.0 92.0 L 92.0 92.0 L 93.0 92.0 L 94.0 92.0 L 95.0 92.0 L 96.0 92.0 L 97.0 92.0 L 98.0 92.0 L 99.0 92.0 L 100.0 92.0 L 101.0 92.0 L 102.0 92.0 L 103.0 92.0 L 104.0 92.0 L 105.0 92.0 L 106.0 92.0 L 107.0 92.0 L 108.0 92.0 L 109.0 92.0 L 110.0 92.0 L 111.0 92.0 L 112.0 92.0 L 113.0 92.0 L 114.0 92.0 L 115.0 92.0 L 116.0 92.0 L 117.0 92.0 L 118.0 92.0 L 119.0 92.0 L 120.0 92.0 L 121.0 92.0 L 122.0 92.0 L 123.0 92.0 L 124.0 92.0 L 124.66666666666667 91.66666666666667 L 125.0 91.0 L 125.0 90.0 L 125.0 89.0 L 124.66666666666667 88.33333333333333 L 124.0 88.0 L 123.0 88.0 L 122.0 88.0 L 121.0 88.0 L 120.0 88.0 L 119.0 88.0 L 118.0 88.0 L 117.0 88.0 L 116.0 88.0 L 115.0 88.0 L 114.0 88.0 L 113.0 88.0 L 112.0 88.0 L 111.0 88.0 L 110.0 88.0 L 109.0 88.0 L 108.0 88.0 L 107.0 88.0 L 106.0 88.0 L 105.0 88.0 L 104.0 88.0 L 103.0 88.0 L 102.0 88.0 L 101.0 88.0 L 100.0 88.0 L 99.0 88.0 L 98.0 88.0 L 97.0 88.0 L 96.0 88.0 L 95.0 88.0 L 94.0 88.0 L 93.0 88.0 L 92.0 88.0 L 91.0 88.0 L 90.0 88.0 L 89.0 88.0 L 88.0 88.0 L 87.0 88.0 L 86.0 88.0 L 85.0 88.0 L 84.0 88.0 L 83.0 88.0 L 82.0 88.0 L 81.0 88.0 L 80.0 88.0 L 79.0 88.0 L 78.0 88.0 L 77.0 88.0 L 76.0 88.0 L 75.0 88.0 L 74.0 88.0 L 73.0 88.0 L 72.0 88.0 L 71.0 88.0 L 70.0 88.0 L 69.0 88.0 L 68.0 88.0 L 67.0 88.0 L 66.0 88.0 L 65.0 88.0 L 64.0 88.0 L 63.0 88.0 L 62.0 88.0 L 61.0 88.0 L 60.0 88.0 L 59.0 88.0 L 58.0 88.0 L 57.0 88.0 L 56.0 88.0 L 55.0 88.0 L 54.0 88.0 L 53.0 88.0 L 52.0 88.0 L 51.0 88.0 L 50.0 88.0 L 49.0 88.0 L 48.0 88.0 L 47.0 88.0 L 46.0 88.0 L 45.0 88.0 L 44.0 88.0 L 43.0 88.0 L 42.0 88.0 L 41.0 88.0 L 40.0 88.0 L 39.0 88.0 L 38.0 88.0 L 37.0 88.0 L 36.0 88.0 L 35.0 88.0 L 34.0 88.0 L 33.0 88.0 L 32.0 88.0 L 31.0 88.0 L 30.0 88.0 L 29.0 88.0 L 28.0 88.0 L 27.0 88.0 L 26.0 88.0 L 25.0 88.0 L 24.0 88.0 L 23.0 88.0 L 22.0 88.0 L 21.0 88.0 L 20.0 88.0 L 19.0 88.0 L 18.0 88.0 L 17.0 88.0 L 16.0 88.0 L 15.0 88.0 L 14.0 88.0 L 13.0 88.0 L 12.0 88.0 L 11.0 88.0 L 10.0 88.0 L 9.0 88.0 L 8.0 88.0 L 7.0 88.0 L 6.0 88.0 L 5.0 88.0 L 4.333333333333333 88.33333333333333 L 4.0 89.0 L 4.0 90.0 L 4.0 91.0 L 4.333333333333333 91.66666666666667 L 5.0 92.0 L 6.0 92.0 L 7.0 92.0 L 8.0 92.0 L 9.0 92.0 L 10.0 92.0 L 11.0 92.0 L 12.0 92.0 L 13.0 92.0 L 14.0 92.0 L 15.0 92.0 L 16.0 92.0 L 17.0 92.0 L 18.0 92.0 L 19.0 92.0 L 20.0 92.0 L 21.0 92.0 L 22.0 92.0 L 23.0 92.0 L 24.0 92.0 L 25.0 92.0 L 26.0 92.0 L 27.0 92.0 L 28.0 92.0 L 29.0 92.0 L 30.0 92.0 L 31.0 92.0 L 32.0 92.0 L 33.0 92.0 L 34.0 92.0 L 35.0 92.0 L 36.0 92.0 L 37.0 92.0 L 38.0 92.0 L 39.0 92.0 L 40.0 92.0 L 41.0 92.0 L 42.0 92.0 L 43.0 92.0 L 44.0 92.0 L 45.0 92.0 L 46.0 92.0 L 47.0 92.0 L 48.0 92.0 L 49.0 92.0 L 50.0 92.0 L 51.0 92.0 L 52.0 92.0 L 53.0 92.0 L 54.0 92.0 L 55.0 92.0 L 56.0 92.0 L 57.0 92.0 L 58.0 92.0 L 58.5 92.0 Z" stroke="none" fill="rgb(176,133,101)" />
<path d="M 95.5 96.0 L 96.0 96.0 L 97.0 96.0 L 98.0 96.0 L 99.0 96.0 L 100.0 96.0 L 101.0 96.0 L 102.0 96.0 L 103.0 96.0 L 104.0 96.0 L 105.0 96.0 L 106.0 96.0 L 107.0 96.0 L 108.0 96.0 L 109.0 96.0 L 110.0 96.0 L 111.0 96.0 L 112.0 96.0 L 113.0 96.0 L 114.0 96.0 L 115.0 96.0 L 116.0 96.0 L 117.0 96.0 L 118.0 96.0 L 119.0 96.0 L 120.0 96.0 L 121.0 96.0 L 122.0 96.0 L 123.0 96.0 L 124.0 96.0 L 124.66666666666667 95.66666666666667 L 125.0 95.0 L 125.0 94.0 L 125.0 93.0 L 124.66666666666667 92.33333333333333 L 124.0 92.0 L 123.0 92.0 L 122.0 92.0 L 121.0 92.0 L 120.0 92.0 L 119.0 92.0 L 118.0 92.0 L 117.0 92.0 L 116.0 92.0 L 115.0 92.0 L 114.0 92.0 L 113.0 92.0 L 112.0 92.0 L 111.0 92.0 L 110.0 92.0 L 109.0 92.0 L 108.0 92.0 L 107.0 92.0 L 106.0 92.0 L 105.0 92.0 L 104.0 92.0 L 103.0 92.0 L 102.0 92.0 L 101.0 92.0 L 100.0 92.0 L 99.0 92.0 L 98.0 92.0 L 97.0 92.0 L 96.0 92.0 L 95.0 92.0 L 94.0 92.0 L 93.0 92.0 L 92.0 92.0 L 91.0 92.0 L 90.0 92.0 L 89.0 92.0 L 88.0 92.0 L 87.0 92.0 L 86.0 92.0 L 85.0 92.0 L 84.0 92.0 L 83.0 92.0 L 82.0 92.0 L 81.0 92.0 L 80.0 92.0 L 79.0 92.0 L 78.0 92.0 L 77.0 92.0 L 76.0 92.0 L 75.0 92.0 L 74.0 92.0 L 73.0 92.0 L 72.0 92.0 L 71.0 92.0 L 70.0 92.0 L 69.0 92.0 L 68.0 92.0 L 67.0 92.0 L 66.0 92.0 L 65.0 92.0 L 64.0 92.0 L 63.0 92.0 L 62.0 92.0 L 61.0 92.0 L 60.0 92.0 L 59.0 92.0 L 58.0 92.0 L 57.0 92.0 L 56.0 92.0 L 55.0 92.0 L 54.0 92.0 L 53.0 92.0 L 52.0 92.0 L 51.0 92.0 L 50.0 92.0 L 49.0 92.0 L 48.0 92.0 L 47.0 92.0 L 46.0 92.0 L 45.0 92.0 L 44.0 92.0 L 43.0 92.0 L 42.0 92.0 L 41.0 92.0 L 40.0 92.0 L 39.0 92.0 L 38.0 92.0 L 37.0 92.0 L 36.0 92.0 L 35.0 92.0 L 34.0 92.0 L 33.0 92.0 L 32.0 92.0 L 31.0 92.0 L 30.0 92.0 L 29.0 92.0 L 28.0 92.0 L 27.0 92.0 L 26.0 92.0 L 25.0 92.0 L 24.0 92.0 L 23.0 92.0 L 22.0 92.0 L 21.0 92.0 L 20.0 92.0 L 19.0 92.0 L 18.0 92.0 L 17.0 92.0 L 16.0 92.0 L 15.0 92.0 L 14.0 92.0 L 13.0 92.0 L 12.0 92.0 L 11.0 92.0 L 10.0 92.0 L 9.0 92.0 L 8.0 92.0 L 7.0 92.0 L 6.0 92.0 L 5.0 92.0 L 4.333333333333333 92.33333333333333 L 4.0 93.0 L 4.0 94.0 L 4.0 95.0 L 4.333333333333333 95.66666666666667 L 5.0 96.0 L 6.0 96.0 L 7.0 96.0 L 8.0 96.0 L 9.0 96.0 L 10.0 96.0 L 11.0 96.0 L 12.0 96.0 L 13.0 96.0 L 14.0 96.0 L 15.0 96.0 L 16.0 96.0 L 17.0 96.0 L 18.0 96.0 L 19.0 96.0 L 20.0 96.0 L 21.0 96.0 L 22.0 96.0 L 23.0 96.0 L 24.0 96.0 L 25.0 96.0 L 26.0 96.0 L 27.0 96.0 L 28.0 96.0 L 29.0 96.0 L 30.0 96.0 L 31.0 96.0 L 32.0 96.0 L 33.0 96.0 L 34.0 96.0 L 35.0 96.0 L 36.0 96.0 L 37.0 96.0 L 38.0 96.0 L 39.0 96.0 L 40.0 96.0 L 41.0 96.0 L 42.0 96.0 L 43.0 96.0 L 44.0 96.0 L 45.0 96.0 L 46.0 96.0 L 47.0 96.0 L 48.0 96.0 L 49.0 96.0 L 50.0 96.0 L 51.0 96.0 L 52.0 96.0 L 53.0 96.0 L 54.0 96.0 L 55.0 96.0 L 56.0 96.0 L 57.0 96.0 L 58.0 96.0 L 59.0 96.0 L 60.0 96.0 L 61.0 96.0 L 62.0 96.0 L 63.0 96.0 L 64.0 96.0 L 65.0 96.0 L 66.0 96.0 L 67.0 96.0 L 68.0 96.0 L 69.0 96.0 L 70.0 96.0 L 71.0 96.0 L 72.0 96.0 L 73.0 96.0 L 74.0 96.0 L 75.0 96.0 L 76.0 96.0 L 77.0 96.0 L 78.0 96.0 L 79.0 96.0 L 80.0 96.0 L 81.0 96.0 L 82.0 96.0 L 83.0 96.0 L 84.0 96.0 L 85.0 96.0 L 86.0 96.0 L 87.0 96.0 L 88.0 96.0 L 89.0 96.0 L 90.0 96.0 L 91.0 96.0 L 92.0 96.0 L 93.0 96.0 L 94.0 96.0 L 94.5 96.0 Z" stroke="none" fill="rgb(175,132,101)" />
<path d="M 95.5 100.0 L 96.0 100.0 L 97.0 100.0 L 98.0 100.0 L 99.0 100.0 L 100.0 100.0 L 101.0 100.0 L 102.0 100.0 L 103.0 100.0 L 104.0 100.0 L 105.0 100.0 L 106.0 100.0 L 107.0 100.0 L 108.0 100.0 L 109.0 100.0 L 110.0 100.0 L 111.0 100.0 L 112.0 100.0 L 113.0 100.0 L 114.0 100.0 L 115.0 100.0 L 116.0 100.0 L 117.0 100.0 L 118.0 100.0 L 119.0 100.0 L 120.0 100.0 L 121.0 100.0 L 122.0 100.0 L 123.0 100.0 L 124.0 100.0 L 124.66666666666667 99.66666666666667 L 125.0 99.0 L 125.0 98.0 L 125.0 97.0 L 124.66666666666667 96.33333333333333 L 124.0 96.0 L 123.0 96.0 L 122.0 96.0 L 121.0 96.0 L 120.0 96.0 L 119.0 96.0 L 118.0 96.0 L 117.0 96.0 L 116.0 96.0 L 115.0 96.0 L 114.0 96.0 L 113.0 96.0 L 112.0 96.0 L 111.0 96.0 L 110.0 96.0 L 109.0 96.0 L 108.0 96.0 L 107.0 96.0 L 106.0 96.0 L 105.0 96.0 L 104.0 96.0 L 103.0 96.0 L 102.0 96.0 L 101.0 96.0 L 100.0 96.0 L 99.0 96.0 L 98.0 96.0 L 97.0 96.0 L 96.0 96.0 L 95.0 96.0 L 94.0 96.0 L 93.0 96.0 L 92.0 96.0 L 91.0 96.0 L 90.0 96.0 L 89.0 96.0 L 88.0 96.0 L 87.0 96.0 L 86.0 96.0 L 85.0 96.0 L 84.0 96.0 L 83.0 96.0 L 82.0 96.0 L 81.0 96.0 L 80.0 96.0 L 79.0 96.0 L 78.0 96.0 L 77.0 96.0 L 76.0 96.0 L 75.0 96.0 L 74.0 96.0 L 73.0 96.0 L 72.0 96.0 L 71.0 96.0 L 70.0 96.0 L 69.0 96.0 L 68.0 96.0 L 67.0 96.0 L 66.0 96.0 L 65.0 96.0 L 64.0 96.0 L 63.0 96.0 L 62.0 96.0 L 61.0 96.0 L 60.0 96.0 L 59.0 96.0 L 58.0 96.0 L 57.0 96.0 L 56.0 96.0 L 55.0 96.0 L 54.0 96.0 L 53.0 96.0 L 52.0 96.0 L 51.0 96.0 L 50.0 96.0 L 49.0 96.0 L 48.0 96.0 L 47.0 96.0 L 46.0 96.0 L 45.0 96.0 L 44.0 96.0 L 43.0 96.0 L 42.0 96.0 L 41.0 96.0 L 40.0 96.0 L 39.0 96.0 L 38.0 96.0 L 37.0 96.0 L 36.0 96.0 L 35.0 96.0 L 34.0 96.0 L 33.0 96.0 L 32.0 96.0 L 31.0 96.0 L 30.0 96.0 L 29.0 96.0 L 28.0 96.0 L 27.0 96.0 L 26.0 96.0 L 25.0 96.0 L 24.0 96.0 L 23.0 96.0 L 22.0 96.0 L 21.0 96.0 L 20.0 96.0 L 19.0 96.0 L 18.0 96.0 L 17.0 96.0 L 16.0 96.0 L 15.0 96.0 L 14.0 96.0 L 13.0 96.0 L 12.0 96.0 L 11.0 96.0 L 10.0 96.0 L 9.0 96.0 L 8.0 96.0 L 7.0 96.0 L 6.0 96.0 L 5.0 96.0 L 4.333333333333333 96.33333333333333 L 4.0 97.0 L 4.0 98.0 L 4.333333333333333 99.0 L 5.0 99.66666666666667 L 6.0 100.0 L 7.0 100.0 L 8.0 100.0 L 9.0 100.0 L 10.0 100.0 L 11.0 100.0 L 12.0 100.0 L 13.0 100.0 L 14.0 100.0 L 15.0 100.0 L 16.0 100.0 L 17.0 100.0 L 18.0 100.0 L 19.0 100.0 L 20.0 100.0 L 21.0 100.0 L 22.0 100.0 L 23.0 100.0 L 24.0 100.0 L 25.0 100.0 L 26.0 100.0 L 27.0 100.0 L 28.0 100.0 L 29.0 100.0 L 30.0 100.0 L 31.0 100.0 L 32.0 100.0 L 33.0 100.0 L 34.0 100.0 L 35.0 100.0 L 36.0 100.0 L 37.0 100.0 L 38.0 100.0 L 39.0 100.0 L 40.0 100.0 L 41.0 100.0 L 42.0 100.0 L 43.0 100.0 L 44.0 100.0 L 45.0 100.0 L 46.0 100.0 L 47.0 100.0 L 48.0 100.0 L 49.0 100.0 L 50.0 100.0 L 51.0 100.0 L 52.0 100.0 L 53.0 100.0 L 54.0 100.0 L 55.0 100.0 L 56.0 100.0 L 57.0 100.0 L 58.0 100.0 L 59.0 100.0 L 60.0 100.0 L 61.0 100.0 L 62.0 100.0 L 63.0 100.0 L 64.0 100.0 L 65.0 100.0 L 66.0 100.0 L 67.0 100.0 L 68.0 100.0 L 69.0 100.0 L 70.0 100.0 L 71.0 100.0 L 72.0 100.0 L 73.0 100.0 L 74.0 100.0 L 75.0 100.0 L 76.0 100.0 L 77.0 100.0 L 78.0 100.0 L 79.0 100.0 L 80.0 100.0 L 81.0 100.0 L 82.0 100.0 L 83.0 100.0 L 84.0 100.0 L 85.0 100.0 L 86.0 100.0 L 87.0 100.0 L 88.0 100.0 L 89.0 100.0 L 90.0 100.0 L 91.0 100.0 L 92.0 100.0 L 93.0 100.0 L 94.0 100.0 L 94.5 100.0 Z" stroke="none" fill="rgb(174,131,101)" />
<path d="M 24.5 104.0 L 25.0 104.0 L 26.0 104.0 L 27.0 104.0 L 28.0 104.0 L 29.0 104.0 L 30.0 104.0 L 31.0 104.0 L 32.0 104.0 L 33.0 104.0 L 34.0 104.0 L 35.0 104.0 L 36.0 104.0 L 37.0 104.0 L 38.0 104.0 L 39.0 104.0 L 40.0 104.0 L 41.0 104.0 L 42.0 104.0 L 43.0 104.0 L 44.0 104.0 L 45.0 104.0 L 46.0 104.0 L 47.0 104.0 L 48.0 104.0 L 49.0 104.0 L 50.0 104.0 L 51.0 104.0 L 52.0 104.0 L 53.0 104.0 L 54.0 104.0 L 55.0 104.0 L 56.0 104.0 L 57.0 104.0 L 58.0 104.0 L 59.0 104.0 L 60.0 104.0 L 61.0 104.0 L 62.0 104.0 L 63.0 104.0 L 64.0 104.0 L 65.0 104.0 L 66.0 104.0 L 67.0 104.0 L 68.0 104.0 L 69.0 104.0 L 70.0 104.0 L 71.0 104.0 L 72.0 104.0 L 73.0 104.0 L 74.0 104.0 L 75.0 104.0 L 76.0 104.0 L 77.0 104.0 L 78.0 104.0 L 79.0 104.0 L 80.0 104.0 L 81.0 104.0 L 82.0 104.0 L 83.0 104.0 L 84.0 104.0 L 85.0 104.0 L 86.0 104.0 L 87.0 104.0 L 88.0 104.0 L 89.0 104.0 L 90.0 104.0 L 91.0 104.0 L 92.0 104.0 L 93.0 104.0 L 94.0 104.0 L 95.0 104.0 L 96.0 104.0 L 97.0 104.0 L 98.0 104.0 L 99.0 104.0 L 100.0 104.0 L 101.0 104.0 L 102.0 104.0 L 103.0 104.0 L 104.0 104.0 L 105.0 104.0 L 106.0 104.0 L 107.0 104.0 L 108.0 104.0 L 109.0 104.0 L 110.0 104.0 L 111.0 104.0 L 112.0 104.0 L 113.0 104.0 L 114.0 104.0 L 115.0 104.0 L 116.0 104.0 L 117.0 104.0 L 118.0 104.0 L 119.0 104.0 L 120.0 104.0 L 121.0 104.0 L 122.0 104.0 L 123.0 104.0 L 124.0 104.0 L 124.66666666666667 103.66666666666667 L 125.0 103.0 L 125.0 102.0 L 125.0 101.0 L 124.66666666666667 100.33333333333333 L 124.0 100.0 L 123.0 100.0 L 122.0 100.0 L 121.0 100.0 L 120.0 100.0 L 119.0 100.0 L 118.0 100.0 L 117.0 100.0 L 116.0 100.0 L 115.0 100.0 L 114.0 100.0 L 113.0 100.0 L 112.0 100.0 L 111.0 100.0 L 110.0 100.0 L 109.0 100.0 L 108.0 100.0 L 107.0 100.0 L 106.0 100.0 L 105.0 100.0 L 104.0 100.0 L 103.0 100.0 L 102.0 100.0 L 101.0 100.0 L 100.0 100.0 L 99.0 100.0 L 98.0 100.0 L 97.0 100.0 L 96.0 100.0 L 95.0 100.0 L 94.0 100.0 L 93.0 100.0 L 92.0 100.0 L 91.0 100.0 L 90.0 100.0 L 89.0 100.0 L 88.0 100.0 L 87.0 100.0 L 86.0 100.0 L 85.0 100.0 L 84.0 100.0 L 83.0 100.0 L 82.0 100.0 L 81.0 100.0 L 80.0 100.0 L 79.0 100.0 L 78.0 100.0 L 77.0 100.0 L 76.0 100.0 L 75.0 100.0 L 74.0 100.0 L 73.0 100.0 L 72.0 100.0 L 71.0 100.0 L 70.0 100.0 L 69.0 100.0 L 68.0 100.0 L 67.0 100.0 L 66.0 100.0 L 65.0 100.0 L 64.0 100.0 L 63.0 100.0 L 62.0 100.0 L 61.0 100.0 L 60.0 100.0 L 59.0 100.0 L 58.0 100.0 L 57.0 100.0 L 56.0 100.0 L 55.0 100.0 L 54.0 100.0 L 53.0 100.0 L 52.0 100.0 L 51.0 100.0 L 50.0 100.0 L 49.0 100.0 L 48.0 100.0 L 47.0 100.0 L 46.0 100.0 L 45.0 100.0 L 44.0 100.0 L 43.0 100.0 L 42.0 100.0 L 41.0 100.0 L 40.0 100.0 L 39.0 100.0 L 38.0 100.0 L 37.0 100.0 L 36.0 100.0 L 35.0 100.0 L 34.0 100.0 L 33.0 100.0 L 32.0 100.0 L 31.0 100.0 L 30.0 100.0 L 29.0 100.0 L 28.0 100.0 L 27.0 100.0 L 26.0 100.0 L 25.0 100.0 L 24.0 100.0 L 23.0 100.0 L 22.0 100.0 L 21.0 100.0 L 20.0 100.0 L 19.0 100.0 L 18.0 100.0 L 17.0 100.0 L 16.0 100.0 L 15.0 100.0 L 14.0 100.0 L 13.0 100.0 L 12.0 100.0 L 11.0 100.0 L 10.0 100.0 L 9.0 100.0 L 8.0 100.0 L 7.0 100.0 L 6.0 100.0 L 5.0 100.0 L 4.333333333333333 100.33333333333333 L 4.0 101.0 L 4.0 102.0 L 4.333333333333333 103.0 L 5.0 103.66666666666667 L 6.0 104.0 L 7.0 104.0 L 8.0 104.0 L 9.0 104.0 L 10.0 104.0 L 11.0 104.0 L 12.0 104.0 L 13.0 104.0 L 14.0 104.0 L 15.0 104.0 L 16.0 104.0 L 17.0 104.0 L 18.0 104.0 L 19.0 104.0 L 20.0 104.0 L 21.0 104.0 L 22.0 104.0 L 23.0 104.0 L 23.5 104.0 Z" stroke="none" fill="rgb(173,130,100)" />
<path d="M 95.5 108.0 L 96.0 108.0 L 97.0 108.0 L 98.0 108.0 L 99.0 108.0 L 100.0 108.0 L 101.0 108.0 L 102.0 108.0 L 103.0 108.0 L 104.0 108.0 L 105.0 108.0 L 106.0 108.0 L 107.0 108.0 L 108.0 108.0 L 109.0 108.0 L 110.0 108.0 L 111.0 108.0 L 112.0 108.0 L 113.0 108.0 L 114.0 108.0 L 115.0 108.0 L 116.0 108.0 L 117.0 108.0 L 118.0 108.0 L 119.0 108.0 L 120.0 108.0 L 121.0 108.0 L 122.0 108.0 L 123.0 108.0 L 124.0 108.0 L 124.66666666666667 107.66666666666667 L 125.0 107.0 L 125.0 106.0 L 124.66666666666667 105.0 L 124.0 104.33333333333333 L 123.0 104.0 L 122.0 104.0 L 121.0 104.0 L 120.0 104.0 L 119.0 104.0 L 118.0 104.0 L 117.0 104.0 L 116.0 104.0 L 115.0 104.0 L 114.0 104.0 L 113.0 104.0 L 112.0 104.0 L 111.0 104.0 L 110.0 104.0 L 109.0 104.0 L 108.0 104.0 L 107.0 104.0 L 106.0 104.0 L 105.0 104.0 L 104.0 104.0 L 103.0 104.0 L 102.0 104.0 L 101.0 104.0 L 100.0 104.0 L 99.0 104.0 L 98.0 104.0 L 97.0 104.0 L 96.0 104.0 L 95.0 104.0 L 94.0 104.0 L 93.0 104.0 L 92.0 104.0 L 91.0 104.0 L 90.0 104.0 L 89.0 104.0 L 88.0 104.0 L 87.0 104.0 L 86.0 104.0 L 85.0 104.0 L 84.0 104.0 L 83.0 104.0 L 82.0 104.0 L 81.0 104.0 L 80.0 104.0 L 79.0 104.0 L 78.0 104.0 L 77.0 104.0 L 76.0 104.0 L 75.0 104.0 L 74.0 104.0 L 73.0 104.0 L 72.0 104.0 L 71.0 104.0 L 70.0 104.0 L 69.0 104.0 L 68.0 104.0 L 67.0 104.0 L 66.0 104.0 L 65.0 104.0 L 64.0 104.0 L 63.0 104.0 L 62.0 104.0 L 61.0 104.0 L 60.0 104.0 L 59.0 104.0 L 58.0 104.0 L 57.0 104.0 L 56.0 104.0 L 55.0 104.0 L 54.0 104.0 L 53.0 104.0 L 52.0 104.0 L 51.0 104.0 L 50.0 104.0 L 49.0 104.0 L 48.0 104.0 L 47.0 104.0 L 46.0 104.0 L 45.0 104.0 L 44.0 104.0 L 43.0 104.0 L 42.0 104.0 L 41.0 104.0 L 40.0 104.0 L 39.0 104.0 L 38.0 104.0 L 37.0 104.0 L 36.0 104.0 L 35.0 104.0 L 34.0 104.0 L 33.0 104.0 L 32.0 104.0 L 31.0 104.0 L 30.0 104.0 L 29.0 104.0 L 28.0 104.0 L 27.0 104.0 L 26.0 104.0 L 25.0 104.0 L 24.0 104.0 L 23.0 104.0 L 22.0 104.0 L 21.0 104.0 L 20.0 104.0 L 19.0 104.0 L 18.0 104.0 L 17.0 104.0 L 16.0 104.0 L 15.0 104.0 L 14.0 104.0 L 13.0 104.0 L 12.0 104.0 L 11.0 104.0 L 10.0 104.0 L 9.0 104.0 L 8.0 104.0 L 7.0 104.0 L 6.0 104.0 L 5.0 104.33333333333333 L 4.333333333333333 105.0 L 4.0 106.0 L 4.0 107.0 L 4.333333333333333 107.66666666666667 L 5.0 108.0 L 6.0 108.0 L 7.0 108.0 L 8.0 108.0 L 9.0 108.0 L 10.0 108.0 L 11.0 108.0 L 12.0 108.0 L 13.0 108.0 L 14.0 108.0 L 15.0 108.0 L 16.0 108.0 L 17.0 108.0 L 18.0 108.0 L 19.0 108.0 L 20.0 108.0 L 21.0 108.0 L 22.0 108.0 L 23.0 108.0 L 24.0 108.0 L 25.0 108.0 L 26.0 108.0 L 27.0 108.0 L 28.0 108.0 L 29.0 108.0 L 30.0 108.0 L 31.0 108.0 L 32.0 108.0 L 33.0 108.0 L 34.0 108.0 L 35.0 108.0 L 36.0 108.0 L 37.0 108.0 L 38.0 108.0 L 39.0 108.0 L 40.0 108.0 L 41.0 108.0 L 42.0 108.0 L 43.0 108.0 L 44.0 108.0 L 45.0 108.0 L 46.0 108.0 L 47.0 108.0 L 48.0 108.0 L 49.0 108.0 L 50.0 108.0 L 51.0 108.0 L 52.0 108.0 L 53.0 108.0 L 54.0 108.0 L 55.0 108.0 L 56.0 108.0 L 57.0 108.0 L 58.0 108.0 L 59.0 108.0 L 60.0 108.0 L 61.0 108.0 L 62.0 108.0 L 63.0 108.0 L 64.0 108.0 L 65.0 108.0 L 66.0 108.0 L 67.0 108.0 L 68.0 108.0 L 69.0 108.0 L 70.0 108.0 L 71.0 108.0 L 72.0 108.0 L 73.0 108.0 L 74.0 108.0 L 75.0 108.0 L 76.0 108.0 L 77.0 108.0 L 78.0 108.0 L 79.0 108.0 L 80.0 108.0 L 81.0 108.0 L 82.0 108.0 L 83.0 108.0 L 84.0 108.0 L 85.0 108.0 L 86.0 108.0 L 87.0 108.0 L 88.0 108.0 L 89.0 108.0 L 90.0 108.0 L 91.0 108.0 L 92.0 108.0 L 93.0 108.0 L 94.0 108.0 L 94.5 108.0 Z" stroke="none" fill="rgb(171,129,100)" />
<path d="M 11.5 111.0 L 12.0 111.0 L 13.0 111.0 L 14.0 111.0 L 15.0 111.0 L 16.0 111.0 L 17.0 111.0 L 18.0 111.0 L 19.0 111.0 L 20.0 111.0 L 21.0 111.0 L 22.0 111.0 L 23.0 111.0 L 24.0 111.0 L 25.0 111.0 L 26.0 111.0 L 27.0 111.0 L 28.0 111.0 L 29.0 111.0 L 30.0 111.0 L 31.0 111.0 L 32.0 111.0 L 33.0 111.0 L 34.0 111.0 L 35.0 111.0 L 36.0 111.0 L 37.0 111.0 L 38.0 111.0 L 39.0 111.0 L 40.0 111.0 L 41.0 111.0 L 42.0 111.0 L 43.0 111.0 L 44.0 111.0 L 45.0 111.0 L 46.0 111.0 L 47.0 111.0 L 48.0 111.0 L 49.0 111.0 L 50.0 111.0 L 51.0 111.0 L 52.0 111.0 L 53.0 111.0 L 54.0 111.0 L 55.0 111.0 L 56.0 111.0 L 57.0 111.0 L 58.0 111.0 L 59.0 111.0 L 60.0 111.0 L 61.0 111.0 L 62.0 111.0 L 63.0 111.0 L 64.0 111.0 L 65.0 111.0 L 66.0 111.0 L 67.0 111.0 L 68.0 111.0 L 69.0 111.0 L 70.0 111.0 L 71.0 111.0 L 72.0 111.0 L 73.0 111.0 L 74.0 111.0 L 75.0 111.0 L 76.0 111.0 L 77.0 111.0 L 78.0 111.0 L 79.0 111.0 L 80.0 111.0 L 81.0 111.0 L 82.0 111.0 L 83.0 111.0 L 84.0 111.0 L 85.0 111.0 L 86.0 111.0 L 87.0 111.0 L 88.0 111.0 L 89.0 111.0 L 90.0 111.0 L 91.0 111.0 L 92.0 111.0 L 93.0 111.0 L 94.0 111.0 L 95.0 111.0 L 96.0 111.0 L 97.0 111.0 L 98.0 111.0 L 99.0 111.0 L 100.0 111.0 L 101.0 111.0 L 102.0 111.0 L 103.0 111.0 L 104.0 111.0 L 105.0 111.0 L 106.0 111.0 L 107.0 111.0 L 108.0 111.0 L 109.0 111.0 L 110.0 111.0 L 111.0 111.0 L 112.0 111.0 L 113.0 111.0 L 114.0 111.0 L 115.0 111.0 L 116.0 111.0 L 117.0 111.0 L 118.0 111.0 L 119.0 111.0 L 120.0 111.0 L 121.0 111.0 L 122.0 111.0 L 123.0 111.0 L 124.0 111.0 L 124.66666666666667 110.66666666666667 L 125.0 110.0 L 125.0 109.0 L 124.66666666666667 108.33333333333333 L 124.0 108.0 L 123.0 108.0 L 122.0 108.0 L 121.0 108.0 L 120.0 108.0 L 119.0 108.0 L 118.0 108.0 L 117.0 108.0 L 116.0 108.0 L 115.0 108.0 L 114.0 108.0 L 113.0 108.0 L 112.0 108.0 L 111.0 108.0 L 110.0 108.0 L 109.0 108.0 L 108.0 108.0 L 107.0 108.0 L 106.0 108.0 L 105.0 108.0 L 104.0 108.0 L 103.0 108.0 L 102.0 108.0 L 101.0 108.0 L 100.0 108.0 L 99.0 108.0 L 98.0 108.0 L 97.0 108.0 L 96.0 108.0 L 95.0 108.0 L 94.0 108.0 L 93.0 108.0 L 92.0 108.0 L 91.0 108.0 L 90.0 108.0 L 89.0 108.0 L 88.0 108.0 L 87.0 108.0 L 86.0 108.0 L 85.0 108.0 L 84.0 108.0 L 83.0 108.0 L 82.0 108.0 L 81.0 108.0 L 80.0 108.0 L 79.0 108.0 L 78.0 108.0 L 77.0 108.0 L 76.0 108.0 L 75.0 108.0 L 74.0 108.0 L 73.0 108.0 L 72.0 108.0 L 71.0 108.0 L 70.0 108.0 L 69.0 108.0 L 68.0 108.0 L 67.0 108.0 L 66.0 108.0 L 65.0 108.0 L 64.0 108.0 L 63.0 108.0 L 62.0 108.0 L 61.0 108.0 L 60.0 108.0 L 59.0 108.0 L 58.0 108.0 L 57.0 108.0 L 56.0 108.0 L 55.0 108.0 L 54.0 108.0 L 53.0 108.0 L 52.0 108.0 L 51.0 108.0 L 50.0 108.0 L 49.0 108.0 L 48.0 108.0 L 47.0 108.0 L 46.0 108.0 L 45.0 108.0 L 44.0 108.0 L 43.0 108.0 L 42.0 108.0 L 41.0 108.0 L 40.0 108.0 L 39.0 108.0 L 38.0 108.0 L 37.0 108.0 L 36.0 108.0 L 35.0 108.0 L 34.0 108.0 L 33.0 108.0 L 32.0 108.0 L 31.0 108.0 L 30.0 108.0 L 29.0 108.0 L 28.0 108.0 L 27.0 108.0 L 26.0 108.0 L 25.0 108.0 L 24.0 108.0 L 23.0 108.0 L 22.0 108.0 L 21.0 108.0 L 20.0 108.0 L 19.0 108.0 L 18.0 108.0 L 17.0 108.0 L 16.0 108.0 L 15.0 108.0 L 14.0 108.0 L 13.0 108.0 L 12.0 108.0 L 11.0 108.0 L 10.0 108.0 L 9.0 108.0 L 8.0 108.0 L 7.0 108.0 L 6.0 108.0 L 5.0 108.0 L 4.333333333333333 108.33333333333333 L 4.0 109.0 L 4.0 110.0 L 4.333333333333333 110.66666666666667 L 5.0 111.0 L 6.0 111.0 L 7.0 111.0 L 8.0 111.0 L 9.0 111.0 L 10.0 111.0 L 10.5 111.0 Z" stroke="none" fill="rgb(170,128,100)" />
<path d="M 26.5 114.0 L 27.0 114.0 L 28.0 114.0 L 29.0 114.0 L 30.0 114.0 L 31.0 114.0 L 32.0 114.0 L 33.0 114.0 L 34.0 114.0 L 35.0 114.0 L 36.0 114.0 L 37.0 114.0 L 38.0 114.0 L 39.0 114.0 L 40.0 114.0 L 41.0 114.0 L 42.0 114.0 L 43.0 114.0 L 44.0 114.0 L 45.0 114.0 L 46.0 114.0 L 47.0 114.0 L 48.0 114.0 L 49.0 114.0 L 50.0 114.0 L 51.0 114.0 L 52.0 114.0 L 53.0 114.0 L 54.0 114.0 L 55.0 114.0 L 56.0 114.0 L 57.0 114.0 L 58.0 114.0 L 59.0 114.0 L 60.0 114.0 L 61.0 114.0 L 62.0 114.0 L 63.0 114.0 L 64.0 114.0 L 65.0 114.0 L 66.0 114.0 L 67.0 114.0 L 68.0 114.0 L 69.0 114.0 L 70.0 114.0 L 71.0 114.0 L 72.0 114.0 L 73.0 114.0 L 74.0 114.0 L 75.0 114.0 L 76.0 114.0 L 77.0 114.0 L 78.0 114.0 L 79.0 114.0 L 80.0 114.0 L 81.0 114.0 L 82.0 114.0 L 83.0 114.0 L 84.0 114.0 L 85.0 114.0 L 86.0 114.0 L 87.0 114.0 L 88.0 114.0 L 89.0 114.0 L 90.0 114.0 L 91.0 114.0 L 92.0 114.0 L 93.0 114.0 L 94.0 114.0 L 95.0 114.0 L 96.0 114.0 L 97.0 114.0 L 98.0 114.0 L 99.0 114.0 L 100.0 114.0 L 101.0 114.0 L 102.0 114.0 L 103.0 114.0 L 104.0 114.0 L 105.0 114.0 L 106.0 114.0 L 107.0 114.0 L 108.0 114.0 L 109.0 114.0 L 110.0 114.0 L 111.0 114.0 L 112.0 114.0 L 113.0 114.0 L 114.0 114.0 L 115.0 114.0 L 116.0 114.0 L 117.0 114.0 L 118.0 114.0 L 119.0 114.0 L 120.0 114.0 L 121.0 114.0 L 122.0 114.0 L 123.0 114.0 L 124.0 114.0 L 124.66666666666667 113.66666666666667 L 125.0 113.0 L 125.0 112.0 L 124.66666666666667 111.33333333333333 L 124.0 111.0 L 123.0 111.0 L 122.0 111.0 L 121.0 111.0 L 120.0 111.0 L 119.0 111.0 L 118.0 111.0 L 117.0 111.0 L 116.0 111.0 L 115.0 111.0 L 114.0 111.0 L 113.0 111.0 L 112.0 111.0 L 111.0 111.0 L 110.0 111.0 L 109.0 111.0 L 108.0 111.0 L 107.0 111.0 L 106.0 111.0 L 105.0 111.0 L 104.0 111.0 L 103.0 111.0 L 102.0 111.0 L 101.0 111.0 L 100.0 111.0 L 99.0 111.0 L 98.0 111.0 L 97.0 111.0 L 96.0 111.0 L 95.0 111.0 L 94.0 111.0 L 93.0 111.0 L 92.0 111.0 L 91.0 111.0 L 90.0 111.0 L 89.0 111.0 L 88.0 111.0 L 87.0 111.0 L 86.0 111.0 L 85.0 111.0 L 84.0 111.0 L 83.0 111.0 L 82.0 111.0 L 81.0 111.0 L 80.0 111.0 L 79.0 111.0 L 78.0 111.0 L 77.0 111.0 L 76.0 111.0 L 75.0 111.0 L 74.0 111.0 L 73.0 111.0 L 72.0 111.0 L 71.0 111.0 L 70.0 111.0 L 69.0 111.0 L 68.0 111.0 L 67.0 111.0 L 66.0 111.0 L 65.0 111.0 L 64.0 111.0 L 63.0 111.0 L 62.0 111.0 L 61.0 111.0 L 60.0 111.0 L 59.0 111.0 L 58.0 111.0 L 57.0 111.0 L 56.0 111.0 L 55.0 111.0 L 54.0 111.0 L 53.0 111.0 L 52.0 111.0 L 51.0 111.0 L 50.0 111.0 L 49.0 111.0 L 48.0 111.0 L 47.0 111.0 L 46.0 111.0 L 45.0 111.0 L 44.0 111.0 L 43.0 111.0 L 42.0 111.0 L 41.0 111.0 L 40.0 111.0 L 39.0 111.0 L 38.0 111.0 L 37.0 111.0 L 36.0 111.0 L 35.0 111.0 L 34.0 111.0 L 33.0 111.0 L 32.0 111.0 L 31.0 111.0 L 30.0 111.0 L 29.0 111.0 L 28.0 111.0 L 27.0 111.0 L 26.0 111.0 L 25.0 111.0 L 24.0 111.0 L 23.0 111.0 L 22.0 111.0 L 21.0 111.0 L 20.0 111.0 L 19.0 111.0 L 18.0 111.0 L 17.0 111.0 L 16.0 111.0 L 15.0 111.0 L 14.0 111.0 L 13.0 111.0 L 12.0 111.0 L 11.0 111.0 L 10.0 111.0 L 9.0 111.0 L 8.0 111.0 L 7.0 111.0 L 6.0 111.0 L 5.0 111.0 L 4.333333333333333 111.33333333333333 L 4.0 112.0 L 4.0 113.0 L 4.333333333333333 113.66666666666667 L 5.0 114.0 L 6.0 114.0 L 7.0 114.0 L 8.0 114.0 L 9.0 114.0 L 10.0 114.0 L 11.0 114.0 L 12.0 114.0 L 13.0 114.0 L 14.0 114.0 L 15.0 114.0 L 16.0 114.0 L 17.0 114.0 L 18.0 114.0 L 19.0 114.0 L 20.0 114.0 L 21.0 114.0 L 22.0 114.0 L 23.0 114.0 L 24.0 114.0 L 25.0 114.0 L 25.5 114.0 Z" stroke="none" fill="rgb(169,127,99)" />
<path d="M 8.5 117.0 L 9.0 117.0 L 10.0 117.0 L 11.0 117.0 L 12.0 117.0 L 13.0 117.0 L 14.0 117.0 L 15.0 117.0 L 16.0 117.0 L 17.0 117.0 L 18.0 117.0 L 19.0 117.0 L 20.0 117.0 L 21.0 117.0 L 22.0 117.0 L 23.0 117.0 L 24.0 117.0 L 25.0 117.0 L 26.0 117.0 L 27.0 117.0 L 28.0 117.0 L 29.0 117.0 L 30.0 117.0 L 31.0 117.0 L 32.0 117.0 L 33.0 117.0 L 34.0 117.0 L 35.0 117.0 L 36.0 117.0 L 37.0 117.0 L 38.0 117.0 L 39.0 117.0 L 40.0 117.0 L 41.0 117.0 L 42.0 117.0 L 43.0 117.0 L 44.0 117.0 L 45.0 117.0 L 46.0 117.0 L 47.0 117.0 L 48.0 117.0 L 49.0 117.0 L 50.0 117.0 L 51.0 117.0 L 52.0 117.0 L 53.0 117.0 L 54.0 117.0 L 55.0 117.0 L 56.0 117.0 L 57.0 117.0 L 58.0 117.0 L 59.0 117.0 L 60.0 117.0 L 61.0 117.0 L 62.0 117.0 L 63.0 117.0 L 64.0 117.0 L 65.0 117.0 L 66.0 117.0 L 67.0 117.0 L 68.0 117.0 L 69.0 117.0 L 70.0 117.0 L 71.0 117.0 L 72.0 117.0 L 73.0 117.0 L 74.0 117.0 L 75.0 117.0 L 76.0 117.0 L 77.0 117.0 L 78.0 117.0 L 79.0 117.0 L 80.0 117.0 L 81.0 117.0 L 82.0 117.0 L 83.0 117.0 L 84.0 117.0 L 85.0 117.0 L 86.0 117.0 L 87.0 117.0 L 88.0 117.0 L 89.0 117.0 L 90.0 117.0 L 91.0 117.0 L 92.0 117.0 L 93.0 117.0 L 94.0 117.0 L 95.0 117.0 L 96.0 117.0 L 97.0 117.0 L 98.0 117.0 L 99.0 117.0 L 100.0 117.0 L 101.0 117.0 L 102.0 117.0 L 103.0 117.0 L 104.0 117.0 L 105.0 117.0 L 106.0 117.0 L 107.0 117.0 L 108.0 117.0 L 109.0 117.0 L 110.0 117.0 L 111.0 117.0 L 112.0 117.0 L 113.0 117.0 L 114.0 117.0 L 115.0 117.0 L 116.0 117.0 L 117.0 117.0 L 118.0 117.0 L 119.0 117.0 L 120.0 117.0 L 121.0 117.0 L 122.0 117.0 L 123.0 117.0 L 124.0 117.0 L 124.66666666666667 116.66666666666667 L 125.0 116.0 L 125.0 115.0 L 124.66666666666667 114.33333333333333 L 124.0 114.0 L 123.0 114.0 L 122.0 114.0 L 121.0 114.0 L 120.0 114.0 L 119.0 114.0 L 118.0 114.0 L 117.0 114.0 L 116.0 114.0 L 115.0 114.0 L 114.0 114.0 L 113.0 114.0 L 112.0 114.0 L 111.0 114.0 L 110.0 114.0 L 109.0 114.0 L 108.0 114.0 L 107.0 114.0 L 106.0 114.0 L 105.0 114.0 L 104.0 114.0 L 103.0 114.0 L 102.0 114.0 L 101.0 114.0 L 100.0 114.0 L 99.0 114.0 L 98.0 114.0 L 97.0 114.0 L 96.0 114.0 L 95.0 114.0 L 94.0 114.0 L 93.0 114.0 L 92.0 114.0 L 91.0 114.0 L 90.0 114.0 L 89.0 114.0 L 88.0 114.0 L 87.0 114.0 L 86.0 114.0 L 85.0 114.0 L 84.0 114.0 L 83.0 114.0 L 82.0 114.0 L 81.0 114.0 L 80.0 114.0 L 79.0 114.0 L 78.0 114.0 L 77.0 114.0 L 76.0 114.0 L 75.0 114.0 L 74.0 114.0 L 73.0 114.0 L 72.0 114.0 L 71.0 114.0 L 70.0 114.0 L 69.0 114.0 L 68.0 114.0 L 67.0 114.0 L 66.0 114.0 L 65.0 114.0 L 64.0 114.0 L 63.0 114.0 L 62.0 114.0 L 61.0 114.0 L 60.0 114.0 L 59.0 114.0 L 58.0 114.0 L 57.0 114.0 L 56.0 114.0 L 55.0 114.0 L 54.0 114.0 L 53.0 114.0 L 52.0 114.0 L 51.0 114.0 L 50.0 114.0 L 49.0 114.0 L 48.0 114.0 L 47.0 114.0 L 46.0 114.0 L 45.0 114.0 L 44.0 114.0 L 43.0 114.0 L 42.0 114.0 L 41.0 114.0 L 40.0 114.0 L 39.0 114.0 L 38.0 114.0 L 37.0 114.0 L 36.0 114.0 L 35.0 114.0 L 34.0 114.0 L 33.0 114.0 L 32.0 114.0 L 31.0 114.0 L 30.0 114.0 L 29.0 114.0 L 28.0 114.0 L 27.0 114.0 L 26.0 114.0 L 25.0 114.0 L 24.0 114.0 L 23.0 114.0 L 22.0 114.0 L 21.0 114.0 L 20.0 114.0 L 19.0 114.0 L 18.0 114.0 L 17.0 114.0 L 16.0 114.0 L 15.0 114.0 L 14.0 114.0 L 13.0 114.0 L 12.0 114.0 L 11.0 114.0 L 10.0 114.0 L 9.0 114.0 L 8.0 114.0 L 7.0 114.0 L 6.0 114.0 L 5.0 114.0 L 4.333333333333333 114.33333333333333 L 4.0 115.0 L 4.0 116.0 L 4.333333333333333 116.66666666666667 L 5.0 117.0 L 6.0 117.0 L 7.0 117.0 L 7.5 117.0 Z" stroke="none" fill="rgb(168,126,99)" />
<path d="M 95.5 120.0 L 96.0 120.0 L 97.0 120.0 L 98.0 120.0 L 99.0 120.0 L 100.0 120.0 L 101.0 120.0 L 102.0 120.0 L 103.0 120.0 L 104.0 120.0 L 105.0 120.0 L 106.0 120.0 L 107.0 120.0 L 108.0 120.0 L 109.0 120.0 L 110.0 120.0 L 111.0 120.0 L 112.0 120.0 L 113.0 120.0 L 114.0 120.0 L 115.0 120.0 L 116.0 120.0 L 117.0 120.0 L 118.0 120.0 L 119.0 120.0 L 120.0 120.0 L 121.0 120.0 L 122.0 120.0 L 123.0 120.0 L 124.0 120.0 L 124.66666666666667 119.66666666666667 L 125.0 119.0 L 125.0 118.0 L 124.66666666666667 117.33333333333333 L 124.0 117.0 L 123.0 117.0 L 122.0 117.0 L 121.0 117.0 L 120.0 117.0 L 119.0 117.0 L 118.0 117.0 L 117.0 117.0 L 116.0 117.0 L 115.0 117.0 L 114.0 117.0 L 113.0 117.0 L 112.0 117.0 L 111.0 117.0 L 110.0 117.0 L 109.0 117.0 L 108.0 117.0 L 107.0 117.0 L 106.0 117.0 L 105.0 117.0 L 104.0 117.0 L 103.0 117.0 L 102.0 117.0 L 101.0 117.0 L 100.0 117.0 L 99.0 117.0 L 98.0 117.0 L 97.0 117.0 L 96.0 117.0 L 95.0 117.0 L 94.0 117.0 L 93.0 117.0 L 92.0 117.0 L 91.0 117.0 L 90.0 117.0 L 89.0 117.0 L 88.0 117.0 L 87.0 117.0 L 86.0 117.0 L 85.0 117.0 L 84.0 117.0 L 83.0 117.0 L 82.0 117.0 L 81.0 117.0 L 80.0 117.0 L 79.0 117.0 L 78.0 117.0 L 77.0 117.0 L 76.0 117.0 L 75.0 117.0 L 74.0 117.0 L 73.0 117.0 L 72.0 117.0 L 71.0 117.0 L 70.0 117.0 L 69.0 117.0 L 68.0 117.0 L 67.0 117.0 L 66.0 117.0 L 65.0 117.0 L 64.0 117.0 L 63.0 117.0 L 62.0 117.0 L 61.0 117.0 L 60.0 117.0 L 59.0 117.0 L 58.0 117.0 L 57.0 117.0 L 56.0 117.0 L 55.0 117.0 L 54.0 117.0 L 53.0 117.0 L 52.0 117.0 L 51.0 117.0 L 50.0 117.0 L 49.0 117.0 L 48.0 117.0 L 47.0 117.0 L 46.0 117.0 L 45.0 117.0 L 44.0 117.0 L 43.0 117.0 L 42.0 117.0 L 41.0 117.0 L 40.0 117.0 L 39.0 117.0 L 38.0 117.0 L 37.0 117.0 L 36.0 117.0 L 35.0 117.0 L 34.0 117.0 L 33.0 117.0 L 32.0 117.0 L 31.0 117.0 L 30.0 117.0 L 29.0 117.0 L 28.0 117.0 L 27.0 117.0 L 26.0 117.0 L 25.0 117.0 L 24.0 117.0 L 23.0 117.0 L 22.0 117.0 L 21.0 117.0 L 20.0 117.0 L 19.0 117.0 L 18.0 117.0 L 17.0 117.0 L 16.0 117.0 L 15.0 117.0 L 14.0 117.0 L 13.0 117.0 L 12.0 117.0 L 11.0 117.0 L 10.0 117.0 L 9.0 117.0 L 8.0 117.0 L 7.0 117.0 L 6.0 117.0 L 5.0 117.0 L 4.333333333333333 117.33333333333333 L 4.0 118.0 L 4.333333333333333 119.0 L 5.0 119.66666666666667 L 6.0 120.0 L 7.0 120.0 L 8.0 120.0 L 9.0 120.0 L 10.0 120.0 L 11.0 120.0 L 12.0 120.0 L 13.0 120.0 L 14.0 120.0 L 15.0 120.0 L 16.0 120.0 L 17.0 120.0 L 18.0 120.0 L 19.0 120.0 L 20.0 120.0 L 21.0 120.0 L 22.0 120.0 L 23.0 120.0 L 24.0 120.0 L 25.0 120.0 L 26.0 120.0 L 27.0 120.0 L 28.0 120.0 L 29.0 120.0 L 30.0 120.0 L 31.0 120.0 L 32.0 120.0 L 33.0 120.0 L 34.0 120.0 L 35.0 120.0 L 36.0 120.0 L 37.0 120.0 L 38.0 120.0 L 39.0 120.0 L 40.0 120.0 L 41.0 120.0 L 42.0 120.0 L 43.0 120.0 L 44.0 120.0 L 45.0 120.0 L 46.0 120.0 L 47.0 120.0 L 48.0 120.0 L 49.0 120.0 L 50.0 120.0 L 51.0 120.0 L 52.0 120.0 L 53.0 120.0 L 54.0 120.0 L 55.0 120.0 L 56.0 120.0 L 57.0 120.0 L 58.0 120.0 L 59.0 120.0 L 60.0 120.0 L 61.0 120.0 L 62.0 120.0 L 63.0 120.0 L 64.0 120.0 L 65.0 120.0 L 66.0 120.0 L 67.0 120.0 L 68.0 120.0 L 69.0 120.0 L 70.0 120.0 L 71.0 120.0 L 72.0 120.0 L 73.0 120.0 L 74.0 120.0 L 75.0 120.0 L 76.0 120.0 L 77.0 120.0 L 78.0 120.0 L 79.0 120.0 L 80.0 120.0 L 81.0 120.0 L 82.0 120.0 L 83.0 120.0 L 84.0 120.0 L 85.0 120.0 L 86.0 120.0 L 87.0 120.0 L 88.0 120.0 L 89.0 120.0 L 90.0 120.0 L 91.0 120.0 L 92.0 120.0 L 93.0 120.0 L 94.0 120.0 L 94.5 120.0 Z" stroke="none" fill="rgb(167,125,99)" />
<path d="M 39.5 123.0 L 40.0 123.0 L 41.0 123.0 L 42.0 123.0 L 43.0 123.0 L 44.0 123.0 L 45.0 123.0 L 46.0 123.0 L 47.0 123.0 L 48.0 123.0 L 49.0 123.0 L 50.0 123.0 L 51.0 123.0 L 52.0 123.0 L 53.0 123.0 L 54.0 123.0 L 55.0 123.0 L 56.0 123.0 L 57.0 123.0 L 58.0 123.0 L 59.0 123.0 L 60.0 123.0 L 61.0 123.0 L 62.0 123.0 L 63.0 123.0 L 64.0 123.0 L 65.0 123.0 L 66.0 123.0 L 67.0 123.0 L 68.0 123.0 L 69.0 123.0 L 70.0 123.0 L 71.0 123.0 L 72.0 123.0 L 73.0 123.0 L 74.0 123.0 L 75.0 123.0 L 76.0 123.0 L 77.0 123.0 L 78.0 123.0 L 79.0 123.0 L 80.0 123.0 L 81.0 123.0 L 82.0 123.0 L 83.0 123.0 L 84.0 123.0 L 85.0 123.0 L 86.0 123.0 L 87.0 123.0 L 88.0 123.0 L 89.0 123.0 L 90.0 123.0 L 91.0 123.0 L 92.0 123.0 L 93.0 123.0 L 94.0 123.0 L 95.0 123.0 L 96.0 123.0 L 97.0 123.0 L 98.0 123.0 L 99.0 123.0 L 100.0 123.0 L 101.0 123.0 L 102.0 123.0 L 103.0 123.0 L 104.0 123.0 L 105.0 123.0 L 106.0 123.0 L 107.0 123.0 L 108.0 123.0 L 109.0 123.0 L 110.0 123.0 L 111.0 123.0 L 112.0 123.0 L 113.0 123.0 L 114.0 123.0 L 115.0 123.0 L 116.0 123.0 L 117.0 123.0 L 118.0 123.0 L 119.0 123.0 L 120.0 123.0 L 121.0 123.0 L 122.0 123.0 L 123.0 123.0 L 124.0 123.0 L 124.66666666666667 122.66666666666667 L 125.0 122.0 L 125.0 121.0 L 124.66666666666667 120.33333333333333 L 124.0 120.0 L 123.0 120.0 L 122.0 120.0 L 121.0 120.0 L 120.0 120.0 L 119.0 120.0 L 118.0 120.0 L 117.0 120.0 L 116.0 120.0 L 115.0 120.0 L 114.0 120.0 L 113.0 120.0 L 112.0 120.0 L 111.0 120.0 L 110.0 120.0 L 109.0 120.0 L 108.0 120.0 L 107.0 120.0 L 106.0 120.0 L 105.0 120.0 L 104.0 120.0 L 103.0 120.0 L 102.0 120.0 L 101.0 120.0 L 100.0 120.0 L 99.0 120.0 L 98.0 120.0 L 97.0 120.0 L 96.0 120.0 L 95.0 120.0 L 94.0 120.0 L 93.0 120.0 L 92.0 120.0 L 91.0 120.0 L 90.0 120.0 L 89.0 120.0 L 88.0 120.0 L 87.0 120.0 L 86.0 120.0 L 85.0 120.0 L 84.0 120.0 L 83.0 120.0 L 82.0 120.0 L 81.0 120.0 L 80.0 120.0 L 79.0 120.0 L 78.0 120.0 L 77.0 120.0 L 76.0 120.0 L 75.0 120.0 L 74.0 120.0 L 73.0 120.0 L 72.0 120.0 L 71.0 120.0 L 70.0 120.0 L 69.0 120.0 L 68.0 120.0 L 67.0 120.0 L 66.0 120.0 L 65.0 120.0 L 64.0 120.0 L 63.0 120.0 L 62.0 120.0 L 61.0 120.0 L 60.0 120.0 L 59.0 120.0 L 58.0 120.0 L 57.0 120.0 L 56.0 120.0 L 55.0 120.0 L 54.0 120.0 L 53.0 120.0 L 52.0 120.0 L 51.0 120.0 L 50.0 120.0 L 49.0 120.0 L 48.0 120.0 L 47.0 120.0 L 46.0 120.0 L 45.0 120.0 L 44.0 120.0 L 43.0 120.0 L 42.0 120.0 L 41.0 120.0 L 40.0 120.0 L 39.0 120.0 L 38.0 120.0 L 37.0 120.0 L 36.0 120.0 L 35.0 120.0 L 34.0 120.0 L 33.0 120.0 L 32.0 120.0 L 31.0 120.0 L 30.0 120.0 L 29.0 120.0 L 28.0 120.0 L 27.0 120.0 L 26.0 120.0 L 25.0 120.0 L 24.0 120.0 L 23.0 120.0 L 22.0 120.0 L 21.0 120.0 L 20.0 120.0 L 19.0 120.0 L 18.0 120.0 L 17.0 120.0 L 16.0 120.0 L 15.0 120.0 L 14.0 120.0 L 13.0 120.0 L 12.0 120.0 L 11.0 120.0 L 10.0 120.0 L 9.0 120.0 L 8.0 120.0 L 7.0 120.0 L 6.0 120.0 L 5.0 120.0 L 4.333333333333333 120.33333333333333 L 4.0 121.0 L 4.0 122.0 L 4.333333333333333 122.66666666666667 L 5.0 123.0 L 6.0 123.0 L 7.0 123.0 L 8.0 123.0 L 9.0 123.0 L 10.0 123.0 L 11.0 123.0 L 12.0 123.0 L 13.0 123.0 L 14.0 123.0 L 15.0 123.0 L 16.0 123.0 L 17.0 123.0 L 18.0 123.0 L 19.0 123.0 L 20.0 123.0 L 21.0 123.0 L 22.0 123.0 L 23.0 123.0 L 24.0 123.0 L 25.0 123.0 L 26.0 123.0 L 27.0 123.0 L 28.0 123.0 L 29.0 123.0 L 30.0 123.0 L 31.0 123.0 L 32.0 123.0 L 33.0 123.0 L 34.0 123.0 L 35.0 123.0 L 36.0 123.0 L 37.0 123.0 L 38.0 123.0 L 38.5 123.0 Z" stroke="none" fill="rgb(165,124,98)" />
<path d="M 9.5 125.0 L 10.0 125.0 L 11.0 125.0 L 12.0 125.0 L 13.0 125.0 L 14.0 125.0 L 15.0 125.0 L 16.0 125.0 L 17.0 125.0 L 18.0 125.0 L 19.0 125.0 L 20.0 125.0 L 21.0 125.0 L 22.0 125.0 L 23.0 125.0 L 24.0 125.0 L 25.0 125.0 L 26.0 125.0 L 27.0 125.0 L 28.0 125.0 L 29.0 125.0 L 30.0 125.0 L 31.0 125.0 L 32.0 125.0 L 33.0 125.0 L 34.0 125.0 L 35.0 125.0 L 36.0 125.0 L 37.0 125.0 L 38.0 125.0 L 39.0 125.0 L 40.0 125.0 L 41.0 125.0 L 42.0 125.0 L 43.0 125.0 L 44.0 125.0 L 45.0 125.0 L 46.0 125.0 L 47.0 125.0 L 48.0 125.0 L 49.0 125.0 L 50.0 125.0 L 51.0 125.0 L 52.0 125.0 L 53.0 125.0 L 54.0 125.0 L 55.0 125.0 L 56.0 125.0 L 57.0 125.0 L 58.0 125.0 L 59.0 125.0 L 60.0 125.0 L 61.0 125.0 L 62.0 125.0 L 63.0 125.0 L 64.0 125.0 L 65.0 125.0 L 66.0 125.0 L 67.0 125.0 L 68.0 125.0 L 69.0 125.0 L 70.0 125.0 L 71.0 125.0 L 72.0 125.0 L 73.0 125.0 L 74.0 125.0 L 75.0 125.0 L 76.0 125.0 L 77.0 125.0 L 78.0 125.0 L 79.0 125.0 L 80.0 125.0 L 81.0 125.0 L 82.0 125.0 L 83.0 125.0 L 84.0 125.0 L 85.0 125.0 L 86.0 125.0 L 87.0 125.0 L 88.0 125.0 L 89.0 125.0 L 90.0 125.0 L 91.0 125.0 L 92.0 125.0 L 93.0 125.0 L 94.0 125.0 L 95.0 125.0 L 96.0 125.0 L 97.0 125.0 L 98.0 125.0 L 99.0 125.0 L 100.0 125.0 L 101.0 125.0 L 102.0 125.0 L 103.0 125.0 L 104.0 125.0 L 105.0 125.0 L 106.0 125.0 L 107.0 125.0 L 108.0 125.0 L 109.0 125.0 L 110.0 125.0 L 111.0 125.0 L 112.0 125.0 L 113.0 125.0 L 114.0 125.0 L 115.0 125.0 L 116.0 125.0 L 117.0 125.0 L 118.0 125.0 L 119.0 125.0 L 120.0 125.0 L 121.0 125.0 L 122.0 125.0 L 123.0 125.0 L 124.0 125.0 L 124.66666666666667 124.66666666666667 L 125.0 124.0 L 124.66666666666667 123.33333333333333 L 124.0 123.0 L 123.0 123.0 L 122.0 123.0 L 121.0 123.0 L 120.0 123.0 L 119.0 123.0 L 118.0 123.0 L 117.0 123.0 L 116.0 123.0 L 115.0 123.0 L 114.0 123.0 L 113.0 123.0 L 112.0 123.0 L 111.0 123.0 L 110.0 123.0 L 109.0 123.0 L 108.0 123.0 L 107.0 123.0 L 106.0 123.0 L 105.0 123.0 L 104.0 123.0 L 103.0 123.0 L 102.0 123.0 L 101.0 123.0 L 100.0 123.0 L 99.0 123.0 L 98.0 123.0 L 97.0 123.0 L 96.0 123.0 L 95.0 123.0 L 94.0 123.0 L 93.0 123.0 L 92.0 123.0 L 91.0 123.0 L 90.0 123.0 L 89.0 123.0 L 88.0 123.0 L 87.0 123.0 L 86.0 123.0 L 85.0 123.0 L 84.0 123.0 L 83.0 123.0 L 82.0 123.0 L 81.0 123.0 L 80.0 123.0 L 79.0 123.0 L 78.0 123.0 L 77.0 123.0 L 76.0 123.0 L 75.0 123.0 L 74.0 123.0 L 73.0 123.0 L 72.0 123.0 L 71.0 123.0 L 70.0 123.0 L 69.0 123.0 L 68.0 123.0 L 67.0 123.0 L 66.0 123.0 L 65.0 123.0 L 64.0 123.0 L 63.0 123.0 L 62.0 123.0 L 61.0 123.0 L 60.0 123.0 L 59.0 123.0 L 58.0 123.0 L 57.0 123.0 L 56.0 123.0 L 55.0 123.0 L 54.0 123.0 L 53.0 123.0 L 52.0 123.0 L 51.0 123.0 L 50.0 123.0 L 49.0 123.0 L 48.0 123.0 L 47.0 123.0 L 46.0 123.0 L 45.0 123.0 L 44.0 123.0 L 43.0 123.0 L 42.0 123.0 L 41.0 123.0 L 40.0 123.0 L 39.0 123.0 L 38.0 123.0 L 37.0 123.0 L 36.0 123.0 L 35.0 123.0 L 34.0 123.0 L 33.0 123.0 L 32.0 123.0 L 31.0 123.0 L 30.0 123.0 L 29.0 123.0 L 28.0 123.0 L 27.0 123.0 L 26.0 123.0 L 25.0 123.0 L 24.0 123.0 L 23.0 123.0 L 22.0 123.0 L 21.0 123.0 L 20.0 123.0 L 19.0 123.0 L 18.0 123.0 L 17.0 123.0 L 16.0 123.0 L 15.0 123.0 L 14.0 123.0 L 13.0 123.0 L 12.0 123.0 L 11.0 123.0 L 10.0 123.0 L 9.0 123.0 L 8.0 123.0 L 7.0 123.0 L 6.0 123.0 L 5.0 123.0 L 4.333333333333333 123.33333333333333 L 4.0 124.0 L 4.333333333333333 124.66666666666667 L 5.0 125.0 L 6.0 125.0 L 7.0 125.0 L 8.0 125.0 L 8.5 125.0 Z" stroke="none" fill="rgb(164,123,98)" />
</svg>
