<?xml version="1.0" encoding="UTF-8" standalone="no"?>
<!DOCTYPE svg PUBLIC "-//W3C//DTD SVG 1.1//EN"
"http://www.w3.org/Graphics/SVG/1.1/DTD/svg11.dtd">
<svg width="128" height="128" xmlns="http://www.w3.org/2000/svg" version="1.1">
<path d="M 101.5 128.0 L 102.0 128.0 L 103.0 128.0 L 104.0 128.0 L 105.0 128.0 L 106.0 128.0 L 107.0 128.0 L 108.0 128.0 L 109.0 128.0 L 110.0 128.0 L 111.0 128.0 L 112.0 128.0 L 113.0 128.0 L 114.0 128.0 L 115.0 128.0 L 116.0 128.0 L 117.0 128.0 L 118.0 128.0 L 119.0 128.0 L 120.0 128.0 L 121.0 128.0 L 122.0 128.0 L 123.0 128.0 L 124.0 128.0 L 125.0 128.0 L 126.0 128.0 L 127.0 128.0 L 127.66666666666667 127.66666666666667 L 128.0 127.0 L 128.0 126.0 L 128.0 125.0 L 128.0 124.0 L 128.0 123.0 L 128.0 122.0 L 128.0 121.0 L 128.0 120.0 L 128.0 119.0 L 128.0 118.0 L 128.0 117.0 L 128.0 116.0 L 128.0 115.0 L 128.0 114.0 L 128.0 113.0 L 128.0 112.0 L 128.0 111.0 L 128.0 110.0 L 128.0 109.0 L 128.0 108.0 L 128.0 107.0 L 128.0 106.0 L 128.0 105.0 L 128.0 104.0 L 128.0 103.0 L 128.0 102.0 L 128.0 101.0 L 128.0 100.0 L 128.0 99.0 L 128.0 98.0 L 128.0 97.0 L 128.0 96.0 L 128.0 95.0 L 128.0 94.0 L 128.0 93.0 L 128.0 92.0 L 128.0 91.0 L 128.0 90.0 L 128.0 89.0 L 128.0 88.0 L 128.0 87.0 L 128.0 86.0 L 128.0 85.0 L 128.0 84.0 L 128.0 83.0 L 128.0 82.0 L 128.0 81.0 L 128.0 80.0 L 128.0 79.0 L 128.0 78.0 L 128.0 77.0 L 128.0 76.0 L 128.0 75.0 L 128.0 74.0 L 128.0 73.0 L 128.0 72.0 L 128.0 71.0 L 128.0 70.0 L 128.0 69.0 L 128.0 68.0 L 128.0 67.0 L 128.0 66.0 L 128.0 65.0 L 128.0 64.0 L 128.0 63.0 L 128.0 62.0 L 128.0 61.0 L 128.0 60.0 L 128.0 59.0 L 128.0 58.0 L 128.0 57.0 L 128.0 56.0 L 128.0 55.0 L 128.0 54.0 L 128.0 53.0 L 128.0 52.0 L 128.0 51.0 L 128.0 50.0 L 128.0 49.0 L 128.0 48.0 L 128.0 47.0 L 128.0 46.0 L 128.0 45.0 L 128.0 44.0 L 128.0 43.0 L 128.0 42.0 L 128.0 41.0 L 128.0 40.0 L 128.0 39.0 L 128.0 38.0 L 128.0 37.0 L 128.0 36.0 L 128.0 35.0 L 128.0 34.0 L 128.0 33.0 L 128.0 32.0 L 128.0 31.0 L 128.0 30.0 L 128.0 29.0 L 128.0 28.0 L 128.0 27.0 L 128.0 26.0 L 128.0 25.0 L 128.0 24.0 L 128.0 23.0 L 128.0 22.0 L 128.0 21.0 L 128.0 20.0 L 128.0 19.0 L 128.0 18.0 L 128.0 17.0 L 128.0 16.0 L 128.0 15.0 L 128.0 14.0 L 128.0 13.0 L 128.0 12.0 L 128.0 11.0 L 128.0 10.0 L 128.0 9.0 L 128.0 8.0 L 128.0 7.0 L 128.0 6.0 L 128.0 5.0 L 128.0 4.0 L 128.0 3.0 L 128.0 2.0 L 128.0 1.0 L 127.66666666666667 0.3333333333333333 L 127.0 0.0 L 126.0 0.0 L 125.0 0.0 L 124.0 0.0 L 123.0 0.0 L 122.0 0.0 L 121.0 0.0 L 120.0 0.0 L 119.0 0.0 L 118.0 0.0 L 117.0 0.0 L 116.0 0.0 L 115.0 0.0 L 114.0 0.0 L 113.0 0.0 L 112.0 0.0 L 111.0 0.0 L 110.0 0.0 L 109.0 0.0 L 108.0 0.0 L 107.0 0.0 L 106.0 0.0 L 105.0 0.0 L 104.0 0.0 L 103.0 0.0 L 102.0 0.0 L 101.0 0.0 L 100.0 0.0 L 99.0 0.0 L 98.0 0.0 L 97.0 0.0 L 96.0 0.0 L 95.0 0.0 L 94.0 0.0 L 93.0 0.0 L 92.0 0.0 L 91.0 0.0 L 90.0 0.0 L 89.0 0.0 L 88.0 0.0 L 87.0 0.0 L 86.0 0.0 L 85.0 0.0 L 84.0 0.0 L 83.0 0.0 L 82.0 0.0 L 81.0 0.0 L 80.0 0.0 L 79.0 0.0 L 78.0 0.0 L 77.0 0.0 L 76.0 0.0 L 75.0 0.0 L 74.0 0.0 L 73.0 0.0 L 72.0 0.0 L 71.0 0.0 L 70.0 0.0 L 69.0 0.0 L 68.0 0.0 L 67.0 0.0 L 66.0 0.0 L 65.0 0.0 L 64.0 0.0 L 63.0 0.0 L 62.0 0.0 L 61.0 0.0 L 60.0 0.0 L 59.0 0.0 L 58.0 0.0 L 57.0 0.0 L 56.0 0.0 L 55.0 0.0 L 54.0 0.0 L 53.0 0.0 L 52.0 0.0 L 51.0 0.0 L 50.0 0.0 L 49.0 0.0 L 48.0 0.0 L 47.0 0.0 L 46.0 0.0 L 45.0 0.0 L 44.0 0.0 L 43.0 0.0 L 42.0 0.0 L 41.0 0.0 L 40.0 0.0 L 39.0 0.0 L 38.0 0.0 L 37.0 0.0 L 36.0 0.0 L 35.0 0.0 L 34.0 0.0 L 33.0 0.0 L 32.0 0.0 L 31.0 0.0 L 30.0 0.0 L 29.0 0.0 L 28.0 0.0 L 27.0 0.0 L 26.0 0.0 L 25.0 0.0 L 24.0 0.0 L 23.0 0.0 L 22.0 0.0 L 21.0 0.0 L 20.0 0.0 L 19.0 0.0 L 18.0 0.0 L 17.0 0.0 L 16.0 0.0 L 15.0 0.0 L 14.0 0.0 L 13.0 0.0 L 12.0 0.0 L 11.0 0.0 L 10.0 0.0 L 9.0 0.0 L 8.0 0.0 L 7.0 0.0 L 6.0 0.0 L 5.0 0.0 L 4.0 0.0 L 3.0 0.0 L 2.0 0.0 L 1.0 0.0 L 0.3333333333333333 0.3333333333333333 L 0.0 1.0 L 0.0 2.0 L 0.0 3.0 L 0.0 4.0 L 0.0 5.0 L 0.0 6.0 L 0.0 7.0 L 0.0 8.0 L 0.0 9.0 L 0.0 10.0 L 0.0 11.0 L 0.0 12.0 L 0.0 13.0 L 0.0 14.0 L 0.0 15.0 L 0.0 16.0 L 0.0 17.0 L 0.0 18.0 L 0.0 19.0 L 0.0 20.0 L 0.0 21.0 L 0.0 22.0 L 0.0 23.0 L 0.0 24.0 L 0.0 25.0 L 0.0 26.0 L 0.0 27.0 L 0.0 28.0 L 0.0 29.0 L 0.0 30.0 L 0.0 31.0 L 0.0 32.0 L 0.0 33.0 L 0.0 34.0 L 0.0 35.0 L 0.0 36.0 L 0.0 37.0 L 0.0 38.0 L 0.0 39.0 L 0.0 40.0 L 0.0 41.0 L 0.0 42.0 L 0.0 43.0 L 0.0 44.0 L 0.0 45.0 L 0.0 46.0 L 0.0 47.0 L 0.0 48.0 L 0.0 49.0 L 0.0 50.0 L 0.0 51.0 L 0.0 52.0 L 0.0 53.0 L 0.0 54.0 L 0.0 55.0 L 0.0 56.0 L 0.0 57.0 L 0.0 58.0 L 0.0 59.0 L 0.0 60.0 L 0.0 61.0 L 0.0 62.0 L 0.0 63.0 L 0.0 64.0 L 0.0 65.0 L 0.0 66.0 L 0.0 67.0 L 0.0 68.0 L 0.0 69.0 L 0.0 70.0 L 0.0 71.0 L 0.0 72.0 L 0.0 73.0 L 0.0 74.0 L 0.0 75.0 L 0.0 76.0 L 0.0 77.0 L 0.0 78.0 L 0.0 79.0 L 0.0 80.0 L 0.0 81.0 L 0.0 82.0 L 0.0 83.0 L 0.0 84.0 L 0.0 85.0 L 0.0 86.0 L 0.0 87.0 L 0.0 88.0 L 0.0 89.0 L 0.0 90.0 L 0.0 91.0 L 0.0 92.0 L 0.0 93.0 L 0.0 94.0 L 0.0 95.0 L 0.0 96.0 L 0.0 97.0 L 0.0 98.0 L 0.0 99.0 L 0.0 100.0 L 0.0 101.0 L 0.0 102.0 L 0.0 103.0 L 0.0 104.0 L 0.0 105.0 L 0.0 106.0 L 0.0 107.0 L 0.0 108.0 L 0.0 109.0 L 0.0 110.0 L 0.0 111.0 L 0.0 112.0 L 0.0 113.0 L 0.0 114.0 L 0.0 115.0 L 0.0 116.0 L 0.0 117.0 L 0.0 118.0 L 0.0 119.0 L 0.0 120.0 L 0.0 121.0 L 0.0 122.0 L 0.0 123.0 L 0.0 124.0 L 0.0 125.0 L 0.0 126.0 L 0.0 127.0 L 0.3333333333333333 127.66666666666667 L 1.0 128.0 L 2.0 128.0 L 3.0 128.0 L 4.0 128.0 L 5.0 128.0 L 6.0 128.0 L 7.0 128.0 L 8.0 128.0 L 9.0 128.0 L 10.0 128.0 L 11.0 128.0 L 12.0 128.0 L 13.0 128.0 L 14.0 128.0 L 15.0 128.0 L 16.0 128.0 L 17.0 128.0 L 18.0 128.0 L 19.0 128.0 L 20.0 128.0 L 21.0 128.0 L 22.0 128.0 L 23.0 128.0 L 24.0 128.0 L 25.0 128.0 L 26.0 128.0 L 27.0 128.0 L 28.0 128.0 L 29.0 128.0 L 30.0 128.0 L 31.0 128.0 L 32.0 128.0 L 33.0 128.0 L 34.0 128.0 L 35.0 128.0 L 36.0 128.0 L 37.0 128.0 L 38.0 128.0 L 39.0 128.0 L 40.0 128.0 L 41.0 128.0 L 42.0 128.0 L 43.0 128.0 L 44.0 128.0 L 45.0 128.0 L 46.0 128.0 L 47.0 128.0 L 48.0 128.0 L 49.0 128.0 L 50.0 128.0 L 51.0 128.0 L 52.0 128.0 L 53.0 128.0 L 54.0 128.0 L 55.0 128.0 L 56.0 128.0 L 57.0 128.0 L 58.0 128.0 L 59.0 128.0 L 60.0 128.0 L 61.0 128.0 L 62.0 128.0 L 63.0 128.0 L 64.0 128.0 L 65.0 128.0 L 66.0 128.0 L 67.0 128.0 L 68.0 128.0 L 69.0 128.0 L 70.0 128.0 L 71.0 128.0 L 72.0 128.0 L 73.0 128.0 L 74.0 128.0 L 75.0 128.0 L 76.0 128.0 L 77.0 128.0 L 78.0 128.0 L 79.0 128.0 L 80.0 128.0 L 81.0 128.0 L 82.0 128.0 L 83.0 128.0 L 84.0 128.0 L 85.0 128.0 L 86.0 128.0 L 87.0 128.0 L 88.0 128.0 L 89.0 128.0 L 90.0 128.0 L 91.0 128.0 L 92.0 128.0 L 93.0 128.0 L 94.0 128.0 L 95.0 128.0 L 96.0 128.0 L 97.0 128.0 L 98.0 128.0 L 99.0 128.0 L 100.0 128.0 L 100.5 128.0 Z" stroke="none" fill="rgb(255,255,255)" />
<path d="M 110.5 124.0 L 111.0 124.0 L 112.0 124.0 L 113.0 124.0 L 114.0 124.0 L 115.0 124.0 L 116.0 124.0 L 117.0 124.0 L 118.0 124.0 L 119.0 124.0 L 120.0 124.0 L 121.0 124.0 L 122.0 124.0 L 123.0 123.66666666666667 L 123.66666666666667 123.0 L 124.0 122.0 L 124.0 121.0 L 124.0 120.0 L 124.0 119.0 L 124.0 118.0 L 124.0 117.0 L 124.0 116.0 L 124.0 115.0 L 124.0 114.0 L 124.0 113.0 L 124.0 112.0 L 124.0 111.0 L 124.0 110.0 L 124.0 109.0 L 124.0 108.0 L 124.0 107.0 L 124.0 106.0 L 124.0 105.0 L 124.0 104.0 L 124.0 103.0 L 124.0 102.0 L 124.0 101.0 L 124.0 100.0 L 124.0 99.0 L 124.0 98.0 L 124.0 97.0 L 124.0 96.0 L 124.0 95.0 L 124.0 94.0 L 124.0 93.0 L 124.0 92.0 L 124.0 91.0 L 124.0 90.0 L 124.0 89.0 L 124.0 88.0 L 124.0 87.0 L 124.0 86.0 L 124.0 85.0 L 124.0 84.0 L 124.0 83.0 L 124.0 82.0 L 124.0 81.0 L 124.0 80.0 L 124.0 79.0 L 124.0 78.0 L 124.0 77.0 L 124.0 76.0 L 124.0 75.0 L 124.0 74.0 L 124.0 73.0 L 124.0 72.0 L 124.0 71.0 L 124.0 70.0 L 124.0 69.0 L 124.0 68.0 L 124.0 67.0 L 124.0 66.0 L 124.0 65.0 L 124.0 64.0 L 124.0 63.0 L 124.0 62.0 L 124.0 61.0 L 124.0 60.0 L 124.0 59.0 L 124.0 58.0 L 124.0 57.0 L 124.0 56.0 L 124.0 55.0 L 124.0 54.0 L 124.0 53.0 L 124.0 52.0 L 124.0 51.0 L 124.0 50.0 L 124.0 49.0 L 124.0 48.0 L 124.0 47.0 L 124.0 46.0 L 124.0 45.0 L 124.0 44.0 L 124.0 43.0 L 123.66666666666667 42.0 L 123.0 41.0 L 122.0 40.333333333333336 L 121.0 40.0 L 120.0 40.0 L 119.0 40.0 L 118.0 40.0 L 117.0 40.0 L 116.0 40.0 L 115.0 40.0 L 114.0 40.0 L 113.0 40.0 L 112.0 40.0 L 111.0 40.0 L 110.0 40.0 L 109.0 40.0 L 108.0 40.0 L 107.0 40.0 L 106.0 40.0 L 105.0 40.0 L 104.0 40.0 L 103.0 40.0 L 102.0 40.0 L 101.0 40.0 L 100.0 40.0 L 99.0 40.0 L 98.0 40.0 L 97.0 40.0 L 96.0 40.0 L 95.0 40.0 L 94.0 40.0 L 93.0 40.0 L 92.0 40.0 L 91.0 40.0 L 90.0 40.0 L 89.0 40.0 L 88.0 40.0 L 87.0 40.0 L 86.0 40.0 L 85.0 40.0 L 84.0 40.0 L 83.0 40.0 L 82.0 40.0 L 81.0 40.0 L 80.0 40.0 L 79.0 40.0 L 78.0 40.0 L 77.0 40.0 L 76.0 40.0 L 75.0 40.0 L 74.0 40.0 L 73.0 40.0 L 72.0 40.0 L 71.0 40.0 L 70.0 40.0 L 69.0 40.0 L 68.0 40.0 L 67.0 40.0 L 66.0 40.0 L 65.0 40.0 L 64.0 40.0 L 63.0 40.0 L 62.0 40.0 L 61.0 40.0 L 60.0 40.0 L 59.0 40.0 L 58.0 40.0 L 57.0 40.0 L 56.0 40.0 L 55.0 40.0 L 54.0 40.0 L 53.0 40.0 L 52.0 40.0 L 51.0 40.0 L 50.0 40.0 L 49.0 40.0 L 48.0 40.0 L 47.0 40.0 L 46.0 40.0 L 45.0 40.0 L 44.0 40.0 L 43.0 40.0 L 42.0 40.0 L 41.0 40.0 L 40.0 40.0 L 39.0 40.0 L 38.0 40.0 L 37.0 40.0 L 36.0 40.0 L 35.0 40.0 L 34.0 40.0 L 33.0 40.0 L 32.0 40.0 L 31.0 40.0 L 30.0 40.0 L 29.0 40.0 L 28.0 40.0 L 27.0 40.0 L 26.0 40.0 L 25.0 40.0 L 24.0 40.0 L 23.0 40.0 L 22.0 40.0 L 21.0 40.0 L 20.0 40.0 L 19.0 40.0 L 18.0 40.0 L 17.0 40.0 L 16.0 40.0 L 15.0 40.0 L 14.0 40.0 L 13.0 40.0 L 12.0 40.0 L 11.0 40.0 L 10.0 40.0 L 9.0 40.0 L 8.0 40.0 L 7.0 40.0 L 6.0 40.333333333333336 L 5.0 41.0 L 4.333333333333333 42.0 L 4.0 43.0 L 4.0 44.0 L 4.0 45.0 L 4.0 46.0 L 4.0 47.0 L 4.0 48.0 L 4.0 49.0 L 4.0 50.0 L 4.0 51.0 L 4.0 52.0 L 4.0 53.0 L 4.0 54.0 L 4.0 55.0 L 4.0 56.0 L 4.0 57.0 L 4.0 58.0 L 4.0 59.0 L 4.0 60.0 L 4.0 61.0 L 4.0 62.0 L 4.0 63.0 L 4.0 64.0 L 4.0 65.0 L 4.0 66.0 L 4.0 67.0 L 4.0 68.0 L 4.0 69.0 L 4.0 70.0 L 4.0 71.0 L 4.0 72.0 L 4.0 73.0 L 4.0 74.0 L 4.0 75.0 L 4.0 76.0 L 4.0 77.0 L 4.0 78.0 L 4.0 79.0 L 4.0 80.0 L 4.0 81.0 L 4.0 82.0 L 4.0 83.0 L 4.0 84.0 L 4.0 85.0 L 4.0 86.0 L 4.0 87.0 L 4.0 88.0 L 4.0 89.0 L 4.0 90.0 L 4.0 91.0 L 4.0 92.0 L 4.0 93.0 L 4.0 94.0 L 4.0 95.0 L 4.0 96.0 L 4.0 97.0 L 4.0 98.0 L 4.0 99.0 L 4.0 100.0 L 4.0 101.0 L 4.0 102.0 L 4.0 103.0 L 4.0 104.0 L 4.0 105.0 L 4.0 106.0 L 4.0 107.0 L 4.0 108.0 L 4.0 109.0 L 4.0 110.0 L 4.0 111.0 L 4.0 112.0 L 4.0 113.0 L 4.0 114.0 L 4.0 115.0 L 4.0 116.0 L 4.0 117.0 L 4.0 118.0 L 4.0 119.0 L 4.0 120.0 L 4.0 121.0 L 4.0 122.0 L 4.333333333333333 123.0 L 5.0 123.66666666666667 L 6.0 124.0 L 7.0 124.0 L 8.0 124.0 L 9.0 124.0 L 10.0 124.0 L 11.0 124.0 L 12.0 124.0 L 13.0 124.0 L 14.0 124.0 L 15.0 124.0 L 16.0 124.0 L 17.0 124.0 L 18.0 124.0 L 19.0 124.0 L 20.0 124.0 L 21.0 124.0 L 22.0 124.0 L 23.0 124.0 L 24.0 124.0 L 25.0 124.0 L 26.0 124.0 L 27.0 124.0 L 28.0 124.0 L 29.0 124.0 L 30.0 124.0 L 31.0 124.0 L 32.0 124.0 L 33.0 124.0 L 34.0 124.0 L 35.0 124.0 L 36.0 124.0 L 37.0 124.0 L 38.0 124.0 L 39.0 124.0 L 40.0 124.0 L 41.0 124.0 L 42.0 124.0 L 43.0 124.0 L 44.0 124.0 L 45.0 124.0 L 46.0 124.0 L 47.0 124.0 L 48.0 124.0 L 49.0 124.0 L 50.0 124.0 L 51.0 124.0 L 52.0 124.0 L 53.0 124.0 L 54.0 124.0 L 55.0 124.0 L 56.0 124.0 L 57.0 124.0 L 58.0 124.0 L 59.0 124.0 L 60.0 124.0 L 61.0 124.0 L 62.0 124.0 L 63.0 124.0 L 64.0 124.0 L 65.0 124.0 L 66.0 124.0 L 67.0 124.0 L 68.0 124.0 L 69.0 124.0 L 70.0 124.0 L 71.0 124.0 L 72.0 124.0 L 73.0 124.0 L 74.0 124.0 L 75.0 124.0 L 76.0 124.0 L 77.0 124.0 L 78.0 124.0 L 79.0 124.0 L 80.0 124.0 L 81.0 124.0 L 82.0 124.0 L 83.0 124.0 L 84.0 124.0 L 85.0 124.0 L 86.0 124.0 L 87.0 124.0 L 88.0 124.0 L 89.0 124.0 L 90.0 124.0 L 91.0 124.0 L 92.0 124.0 L 93.0 124.0 L 94.0 124.0 L 95.0 124.0 L 96.0 124.0 L 97.0 124.0 L 98.0 124.0 L 99.0 124.0 L 100.0 124.0 L 101.0 124.0 L 102.0 124.0 L 103.0 124.0 L 104.0 124.0 L 105.0 124.0 L 106.0 124.0 L 107.0 124.0 L 108.0 124.0 L 109.0 124.0 L 109.5 124.0 Z" stroke="none" fill="rgb(130,174,192)" />
<path d="M 95.5 113.5 L 96.0 114.0 L 96.66666666666667 115.0 L 97.0 116.0 L 97.0 117.0 L 97.0 118.0 L 97.33333333333333 118.66666666666667 L 98.0 119.0 L 99.0 119.0 L 100.0 119.0 L 101.0 119.0 L 102.0 119.0 L 103.0 119.0 L 104.0 119.0 L 105.0 119.0 L 106.0 119.0 L 107.0 119.0 L 108.0 119.0 L 109.0 119.0 L 110.0 119.0 L 111.0 119.0 L 112.0 119.0 L 113.0 119.0 L 114.0 119.0 L 115.0 119.0 L 116.0 119.0 L 117.0 119.0 L 118.0 119.0 L 119.0 118.66666666666667 L 119.66666666666667 118.0 L 120.0 117.0 L 120.0 116.0 L 120.0 115.0 L 120.0 114.0 L 120.0 113.0 L 120.0 112.0 L 120.0 111.0 L 120.0 110.0 L 120.0 109.0 L 120.0 108.0 L 120.0 107.0 L 120.0 106.0 L 120.0 105.0 L 120.0 104.0 L 120.0 103.0 L 120.0 102.0 L 120.0 101.0 L 120.0 100.0 L 120.0 99.0 L 120.0 98.0 L 120.0 97.0 L 120.0 96.0 L 120.0 95.0 L 120.0 94.0 L 120.0 93.0 L 120.0 92.0 L 120.0 91.0 L 120.0 90.0 L 120.0 89.0 L 120.0 88.0 L 120.0 87.0 L 120.0 86.0 L 120.0 85.0 L 120.0 84.0 L 120.0 83.0 L 120.0 82.0 L 120.0 81.0 L 120.0 80.0 L 120.0 79.0 L 120.0 78.0 L 120.0 77.0 L 120.0 76.0 L 120.0 75.0 L 120.0 74.0 L 120.0 73.0 L 120.0 72.0 L 120.0 71.0 L 120.0 70.0 L 120.0 69.0 L 120.0 68.0 L 120.0 67.0 L 120.0 66.0 L 120.0 65.0 L 120.0 64.0 L 120.0 63.0 L 120.0 62.0 L 120.0 61.0 L 120.0 60.0 L 120.0 59.0 L 120.0 58.0 L 120.0 57.0 L 120.0 56.0 L 120.0 55.0 L 120.0 54.0 L 120.0 53.0 L 120.0 52.0 L 120.0 51.0 L 120.0 50.0 L 120.0 49.0 L 120.0 48.0 L 119.66666666666667 47.0 L 119.0 46.0 L 118.0 45.333333333333336 L 117.0 45.0 L 116.0 45.0 L 115.0 45.0 L 114.0 45.0 L 113.0 45.0 L 112.0 45.0 L 111.0 45.0 L 110.0 45.0 L 109.0 45.0 L 108.0 45.0 L 107.0 45.0 L 106.0 45.0 L 105.0 45.0 L 104.0 45.0 L 103.0 45.0 L 102.0 45.0 L 101.0 45.0 L 100.0 45.0 L 99.0 45.0 L 98.0 45.0 L 97.0 45.0 L 96.0 45.0 L 95.0 45.0 L 94.0 45.0 L 93.0 45.0 L 92.0 45.0 L 91.0 45.0 L 90.0 45.0 L 89.0 45.0 L 88.0 45.0 L 87.0 45.0 L 86.0 45.0 L 85.0 45.0 L 84.0 45.0 L 83.0 45.0 L 82.0 45.0 L 81.0 45.0 L 80.0 45.0 L 79.0 45.0 L 78.0 45.0 L 77.0 45.0 L 76.0 45.0 L 75.0 45.0 L 74.0 45.0 L 73.0 45.0 L 72.0 45.0 L 71.0 45.0 L 70.0 45.0 L 69.0 45.0 L 68.0 45.0 L 67.0 45.0 L 66.0 45.0 L 65.0 45.0 L 64.0 45.0 L 63.0 45.0 L 62.0 45.0 L 61.0 45.0 L 60.0 45.0 L 59.0 45.0 L 58.0 45.0 L 57.0 45.0 L 56.0 45.0 L 55.0 45.0 L 54.0 45.0 L 53.0 45.0 L 52.0 45.0 L 51.0 45.0 L 50.0 45.0 L 49.0 45.0 L 48.0 45.0 L 47.0 45.0 L 46.0 45.0 L 45.0 45.0 L 44.0 45.0 L 43.0 45.0 L 42.0 45.0 L 41.0 45.0 L 40.0 45.0 L 39.0 45.0 L 38.0 45.0 L 37.0 45.0 L 36.0 45.0 L 35.0 45.0 L 34.0 45.0 L 33.0 45.0 L 32.0 45.0 L 31.0 45.0 L 30.0 45.0 L 29.0 45.0 L 28.0 45.0 L 27.0 45.0 L 26.0 45.0 L 25.0 45.0 L 24.0 45.0 L 23.0 45.0 L 22.0 45.0 L 21.0 45.0 L 20.0 45.0 L 19.0 45.0 L 18.0 45.0 L 17.0 45.0 L 16.0 45.0 L 15.0 45.0 L 14.0 45.0 L 13.0 45.0 L 12.0 45.0 L 11.0 45.0 L 10.0 45.333333333333336 L 9.333333333333334 46.0 L 9.0 47.0 L 9.0 48.0 L 9.0 49.0 L 9.0 50.0 L 9.0 51.0 L 9.0 52.0 L 9.0 53.0 L 9.0 54.0 L 9.0 55.0 L 9.0 56.0 L 9.0 57.0 L 9.0 58.0 L 9.0 59.0 L 9.0 60.0 L 9.0 61.0 L 9.0 62.0 L 9.0 63.0 L 9.0 64.0 L 9.0 65.0 L 9.0 66.0 L 9.0 67.0 L 9.0 68.0 L 9.0 69.0 L 9.0 70.0 L 9.0 71.0 L 9.0 72.0 L 9.0 73.0 L 9.0 74.0 L 9.0 75.0 L 9.0 76.0 L 9.0 77.0 L 9.0 78.0 L 9.0 79.0 L 9.0 80.0 L 9.0 81.0 L 9.0 82.0 L 9.0 83.0 L 9.0 84.0 L 9.0 85.0 L 9.0 86.0 L 9.0 87.0 L 9.0 88.0 L 9.0 89.0 L 9.0 90.0 L 9.0 91.0 L 9.0 92.0 L 9.0 93.0 L 9.0 94.0 L 9.0 95.0 L 9.0 96.0 L 9.0 97.0 L 9.0 98.0 L 9.0 99.0 L 9.0 100.0 L 9.0 101.0 L 9.0 102.0 L 9.0 103.0 L 9.0 104.0 L 9.0 105.0 L 9.0 106.0 L 9.0 107.0 L 9.0 108.0 L 9.0 109.0 L 9.0 110.0 L 9.0 111.0 L 9.0 112.0 L 9.0 113.0 L 9.0 114.0 L 9.0 115.0 L 9.0 116.0 L 9.0 117.0 L 9.333333333333334 118.0 L 10.0 118.66666666666667 L 10.666666666666666 118.66666666666667 L 11.0 118.0 L 11.0 117.0 L 11.333333333333334 116.0 L 12.0 115.0 L 13.0 114.0 L 14.0 113.0 L 15.0 112.66666666666667 L 16.0 112.66666666666667 L 17.0 113.0 L 18.0 113.33333333333333 L 19.0 113.66666666666667 L 20.0 114.0 L 21.0 114.0 L 22.0 114.0 L 23.0 114.33333333333333 L 24.0 114.66666666666667 L 25.0 115.0 L 26.0 115.0 L 27.0 115.0 L 28.0 115.0 L 29.0 115.0 L 30.0 115.0 L 31.0 115.33333333333333 L 32.0 115.66666666666667 L 33.0 116.0 L 34.0 116.0 L 35.0 116.0 L 36.0 116.0 L 37.0 116.0 L 38.0 116.0 L 39.0 116.0 L 40.0 116.0 L 41.0 116.0 L 42.0 116.0 L 43.0 116.0 L 44.0 116.0 L 45.0 116.33333333333333 L 46.0 116.66666666666667 L 47.0 117.0 L 48.0 117.0 L 49.0 117.0 L 50.0 117.0 L 51.0 117.0 L 52.0 117.0 L 53.0 117.0 L 54.0 117.0 L 55.0 117.0 L 56.0 117.0 L 57.0 117.0 L 58.0 117.0 L 59.0 117.0 L 60.0 117.0 L 61.0 117.0 L 62.0 117.0 L 63.0 117.0 L 64.0 117.0 L 65.0 117.0 L 66.0 117.0 L 67.0 117.0 L 68.0 117.0 L 69.0 117.0 L 70.0 117.0 L 71.0 117.0 L 72.0 117.0 L 73.0 117.0 L 74.0 117.0 L 75.0 117.0 L 76.0 117.0 L 77.0 117.0 L 78.0 116.66666666666667 L 79.0 116.33333333333333 L 80.0 116.0 L 81.0 116.0 L 82.0 116.0 L 83.0 116.0 L 84.0 116.0 L 85.0 116.0 L 86.0 115.66666666666667 L 87.0 115.33333333333333 L 88.0 115.0 L 89.0 115.0 L 90.0 114.66666666666667 L 91.0 114.33333333333333 L 92.0 114.0 L 93.0 113.66666666666667 L 94.0 113.33333333333333 L 94.5 113.0 Z" stroke="none" fill="rgb(33,33,33)" />
<path d="M 59.5 113.0 L 60.0 113.0 L 61.0 113.0 L 62.0 113.0 L 63.0 113.0 L 64.0 113.0 L 65.0 113.0 L 66.0 113.0 L 67.0 113.0 L 68.0 113.0 L 69.0 113.0 L 70.0 113.0 L 71.0 113.0 L 72.0 113.0 L 73.0 113.0 L 74.0 113.0 L 75.0 113.0 L 76.0 113.0 L 77.0 112.66666666666667 L 78.0 112.33333333333333 L 79.0 112.0 L 80.0 112.0 L 81.0 112.0 L 82.0 112.0 L 83.0 112.0 L 84.0 112.0 L 85.0 111.66666666666667 L 86.0 111.33333333333333 L 87.0 111.0 L 88.0 111.0 L 89.0 110.66666666666667 L 90.0 110.0 L 91.0 109.0 L 92.0 108.0 L 93.0 107.0 L 93.66666666666667 106.0 L 94.0 105.0 L 94.0 104.0 L 94.33333333333333 103.0 L 94.66666666666667 102.0 L 95.0 101.0 L 95.0 100.0 L 95.0 99.0 L 95.0 98.0 L 95.0 97.0 L 95.0 96.0 L 95.0 95.0 L 95.0 94.0 L 95.0 93.0 L 95.0 92.0 L 95.0 91.0 L 95.0 90.0 L 95.0 89.0 L 95.0 88.0 L 95.0 87.0 L 95.0 86.0 L 95.0 85.0 L 95.0 84.0 L 95.0 83.0 L 95.0 82.0 L 95.0 81.0 L 95.0 80.0 L 95.0 79.0 L 95.0 78.0 L 95.0 77.0 L 95.0 76.0 L 95.0 75.0 L 95.0 74.0 L 95.0 73.0 L 95.0 72.0 L 95.0 71.0 L 95.0 70.0 L 95.0 69.0 L 95.0 68.0 L 94.66666666666667 67.0 L 94.33333333333333 66.0 L 94.0 65.0 L 94.0 64.0 L 94.0 63.0 L 94.0 62.0 L 94.0 61.0 L 93.66666666666667 60.0 L 93.33333333333333 59.0 L 93.0 58.0 L 93.0 57.0 L 92.66666666666667 56.0 L 92.0 55.0 L 91.0 54.0 L 90.0 53.333333333333336 L 89.0 53.0 L 88.0 52.666666666666664 L 87.0 52.333333333333336 L 86.0 52.0 L 85.0 52.0 L 84.0 52.0 L 83.0 52.0 L 82.0 52.0 L 81.0 51.666666666666664 L 80.0 51.333333333333336 L 79.0 51.0 L 78.0 51.0 L 77.0 51.0 L 76.0 51.0 L 75.0 51.0 L 74.0 51.0 L 73.0 51.0 L 72.0 51.0 L 71.0 51.0 L 70.0 51.0 L 69.0 51.0 L 68.0 51.0 L 67.0 51.0 L 66.0 51.0 L 65.0 51.0 L 64.0 51.0 L 63.0 51.0 L 62.0 51.0 L 61.0 51.0 L 60.0 51.0 L 59.0 51.0 L 58.0 51.0 L 57.0 51.0 L 56.0 51.0 L 55.0 51.0 L 54.0 51.0 L 53.0 51.0 L 52.0 51.0 L 51.0 51.0 L 50.0 51.0 L 49.0 51.0 L 48.0 51.0 L 47.0 51.0 L 46.0 51.0 L 45.0 51.0 L 44.0 51.0 L 43.0 51.0 L 42.0 51.333333333333336 L 41.0 51.666666666666664 L 40.0 52.0 L 39.0 52.0 L 38.0 52.0 L 37.0 52.0 L 36.0 52.0 L 35.0 52.0 L 34.0 52.0 L 33.0 52.0 L 32.0 52.0 L 31.0 52.0 L 30.0 52.0 L 29.0 52.333333333333336 L 28.0 52.666666666666664 L 27.0 53.0 L 26.0 53.0 L 25.0 53.0 L 24.0 53.0 L 23.0 53.0 L 22.0 53.0 L 21.0 53.333333333333336 L 20.0 53.666666666666664 L 19.0 54.333333333333336 L 18.0 55.0 L 17.333333333333332 56.0 L 17.0 57.0 L 17.0 58.0 L 16.666666666666668 59.0 L 16.333333333333332 60.0 L 16.0 61.0 L 16.0 62.0 L 16.0 63.0 L 16.0 64.0 L 16.0 65.0 L 15.666666666666666 66.0 L 15.333333333333334 67.0 L 15.0 68.0 L 15.0 69.0 L 15.0 70.0 L 15.0 71.0 L 15.0 72.0 L 15.0 73.0 L 15.0 74.0 L 15.0 75.0 L 15.0 76.0 L 15.0 77.0 L 15.0 78.0 L 15.0 79.0 L 15.0 80.0 L 15.0 81.0 L 15.0 82.0 L 15.0 83.0 L 15.0 84.0 L 15.0 85.0 L 15.0 86.0 L 15.0 87.0 L 15.0 88.0 L 15.0 89.0 L 15.0 90.0 L 15.0 91.0 L 15.0 92.0 L 15.0 93.0 L 15.0 94.0 L 15.0 95.0 L 15.0 96.0 L 15.0 97.0 L 15.0 98.0 L 15.0 99.0 L 15.0 100.0 L 15.0 101.0 L 15.333333333333334 102.0 L 15.666666666666666 103.0 L 16.0 104.0 L 16.0 105.0 L 16.333333333333332 106.0 L 17.0 107.0 L 18.0 108.0 L 19.0 109.0 L 20.0 109.66666666666667 L 21.0 110.0 L 22.0 110.0 L 23.0 110.33333333333333 L 24.0 110.66666666666667 L 25.0 111.0 L 26.0 111.0 L 27.0 111.0 L 28.0 111.0 L 29.0 111.0 L 30.0 111.0 L 31.0 111.33333333333333 L 32.0 111.66666666666667 L 33.0 112.0 L 34.0 112.0 L 35.0 112.0 L 36.0 112.0 L 37.0 112.0 L 38.0 112.0 L 39.0 112.0 L 40.0 112.0 L 41.0 112.0 L 42.0 112.0 L 43.0 112.0 L 44.0 112.0 L 45.0 112.33333333333333 L 46.0 112.66666666666667 L 47.0 113.0 L 48.0 113.0 L 49.0 113.0 L 50.0 113.0 L 51.0 113.0 L 52.0 113.0 L 53.0 113.0 L 54.0 113.0 L 55.0 113.0 L 56.0 113.0 L 57.0 113.0 L 58.0 113.0 L 58.5 113.0 Z" stroke="none" fill="rgb(47,120,137)" />
<path d="M 88.5 16.5 L 89.0 16.0 L 89.66666666666667 15.0 L 90.0 14.0 L 90.0 13.0 L 89.66666666666667 12.333333333333334 L 89.0 12.0 L 88.0 12.0 L 87.0 12.333333333333334 L 86.0 13.0 L 85.0 14.0 L 84.0 15.0 L 83.33333333333333 16.0 L 82.66666666666667 17.0 L 82.0 18.0 L 81.0 19.0 L 80.0 20.0 L 79.0 21.0 L 78.0 22.0 L 77.0 23.0 L 76.0 24.0 L 75.33333333333333 25.0 L 74.66666666666667 26.0 L 74.0 27.0 L 73.0 28.0 L 72.0 29.0 L 71.0 30.0 L 70.0 31.0 L 69.0 32.0 L 68.0 33.0 L 67.33333333333333 34.0 L 66.66666666666667 35.0 L 66.0 35.666666666666664 L 65.0 36.0 L 64.0 36.0 L 63.0 35.666666666666664 L 62.0 35.0 L 61.0 34.0 L 60.0 33.0 L 59.0 32.0 L 58.0 31.0 L 57.0 30.0 L 56.0 29.0 L 55.0 28.0 L 54.333333333333336 27.0 L 53.666666666666664 26.0 L 53.0 25.0 L 52.0 24.0 L 51.0 23.0 L 50.0 22.0 L 49.0 21.0 L 48.0 20.0 L 47.0 19.0 L 46.333333333333336 18.0 L 45.666666666666664 17.0 L 45.0 16.0 L 44.0 15.0 L 43.0 14.0 L 42.0 13.0 L 41.0 12.333333333333334 L 40.0 12.0 L 39.0 12.0 L 38.333333333333336 12.333333333333334 L 38.0 13.0 L 38.333333333333336 14.0 L 38.666666666666664 15.0 L 39.333333333333336 16.0 L 40.0 17.0 L 41.0 18.0 L 42.0 19.0 L 42.666666666666664 20.0 L 43.333333333333336 21.0 L 44.0 22.0 L 45.0 23.0 L 46.0 24.0 L 46.666666666666664 25.0 L 47.333333333333336 26.0 L 48.0 27.0 L 49.0 28.0 L 50.0 29.0 L 50.666666666666664 30.0 L 51.333333333333336 31.0 L 52.0 32.0 L 53.0 33.0 L 53.666666666666664 34.0 L 54.333333333333336 35.0 L 54.333333333333336 36.0 L 54.0 36.666666666666664 L 53.0 37.0 L 52.0 37.333333333333336 L 51.0 37.666666666666664 L 50.333333333333336 38.333333333333336 L 50.0 39.0 L 50.333333333333336 39.666666666666664 L 51.0 40.0 L 52.0 40.0 L 53.0 40.0 L 54.0 40.0 L 55.0 40.0 L 56.0 40.0 L 57.0 40.0 L 58.0 40.0 L 59.0 40.0 L 60.0 40.0 L 61.0 40.0 L 62.0 40.0 L 63.0 40.0 L 64.0 40.0 L 65.0 40.0 L 66.0 40.0 L 67.0 40.0 L 68.0 40.0 L 69.0 40.0 L 70.0 40.0 L 71.0 40.0 L 72.0 40.0 L 73.0 40.0 L 74.0 40.0 L 75.0 40.0 L 76.0 40.0 L 77.0 40.0 L 78.0 40.0 L 79.0 40.0 L 80.0 40.0 L 80.66666666666667 39.666666666666664 L 80.66666666666667 39.0 L 80.0 38.333333333333336 L 79.0 37.666666666666664 L 78.0 37.333333333333336 L 77.0 37.0 L 76.0 37.0 L 75.0 36.666666666666664 L 74.33333333333333 36.0 L 74.0 35.0 L 74.33333333333333 34.0 L 75.0 33.0 L 76.0 32.0 L 77.0 31.0 L 77.66666666666667 30.0 L 78.33333333333333 29.0 L 79.0 28.0 L 80.0 27.0 L 81.0 26.0 L 82.0 25.0 L 82.66666666666667 24.0 L 83.33333333333333 23.0 L 84.0 22.0 L 85.0 21.0 L 86.0 20.0 L 86.66666666666667 19.0 L 87.33333333333333 18.0 L 87.5 17.5 Z" stroke="none" fill="rgb(69,90,100)" />
<path d="M 95.5 119.0 L 96.0 119.0 L 96.66666666666667 118.66666666666667 L 97.0 118.0 L 97.0 117.0 L 97.0 116.0 L 97.0 115.0 L 96.66666666666667 114.0 L 96.0 113.0 L 95.0 112.33333333333333 L 94.0 112.33333333333333 L 93.0 113.0 L 92.0 113.66666666666667 L 91.0 114.0 L 90.0 114.33333333333333 L 89.0 114.66666666666667 L 88.0 115.0 L 87.0 115.0 L 86.0 115.33333333333333 L 85.0 115.66666666666667 L 84.0 116.0 L 83.0 116.0 L 82.0 116.0 L 81.0 116.0 L 80.0 116.0 L 79.0 116.0 L 78.0 116.33333333333333 L 77.0 116.66666666666667 L 76.0 117.0 L 75.0 117.0 L 74.0 117.0 L 73.0 117.0 L 72.0 117.0 L 71.0 117.0 L 70.0 117.0 L 69.0 117.0 L 68.0 117.0 L 67.0 117.0 L 66.0 117.0 L 65.0 117.0 L 64.0 117.0 L 63.0 117.0 L 62.0 117.0 L 61.0 117.0 L 60.0 117.0 L 59.0 117.0 L 58.0 117.0 L 57.0 117.0 L 56.0 117.0 L 55.0 117.0 L 54.0 117.0 L 53.0 117.0 L 52.0 117.0 L 51.0 117.0 L 50.0 117.0 L 49.0 117.0 L 48.0 117.0 L 47.0 116.66666666666667 L 46.0 116.33333333333333 L 45.0 116.0 L 44.0 116.0 L 43.0 116.0 L 42.0 116.0 L 41.0 116.0 L 40.0 116.0 L 39.0 116.0 L 38.0 116.0 L 37.0 116.0 L 36.0 116.0 L 35.0 116.0 L 34.0 116.0 L 33.0 115.66666666666667 L 32.0 115.33333333333333 L 31.0 115.0 L 30.0 115.0 L 29.0 115.0 L 28.0 115.0 L 27.0 115.0 L 26.0 115.0 L 25.0 114.66666666666667 L 24.0 114.33333333333333 L 23.0 114.0 L 22.0 114.0 L 21.0 114.0 L 20.0 113.66666666666667 L 19.0 113.33333333333333 L 18.0 113.0 L 17.0 112.66666666666667 L 16.0 112.33333333333333 L 15.0 112.0 L 14.0 112.33333333333333 L 13.0 113.0 L 12.0 114.0 L 11.333333333333334 115.0 L 11.0 116.0 L 11.0 117.0 L 11.0 118.0 L 11.333333333333334 118.66666666666667 L 12.0 119.0 L 13.0 119.0 L 14.0 119.0 L 15.0 119.0 L 16.0 119.0 L 17.0 119.0 L 18.0 119.0 L 19.0 119.0 L 20.0 119.0 L 21.0 119.0 L 22.0 119.0 L 23.0 119.0 L 24.0 119.0 L 25.0 119.0 L 26.0 119.0 L 27.0 119.0 L 28.0 119.0 L 29.0 119.0 L 30.0 119.0 L 31.0 119.0 L 32.0 119.0 L 33.0 119.0 L 34.0 119.0 L 35.0 119.0 L 36.0 119.0 L 37.0 119.0 L 38.0 119.0 L 39.0 119.0 L 40.0 119.0 L 41.0 119.0 L 42.0 119.0 L 43.0 119.0 L 44.0 119.0 L 45.0 119.0 L 46.0 119.0 L 47.0 119.0 L 48.0 119.0 L 49.0 119.0 L 50.0 119.0 L 51.0 119.0 L 52.0 119.0 L 53.0 119.0 L 54.0 119.0 L 55.0 119.0 L 56.0 119.0 L 57.0 119.0 L 58.0 119.0 L 59.0 119.0 L 60.0 119.0 L 61.0 119.0 L 62.0 119.0 L 63.0 119.0 L 64.0 119.0 L 65.0 119.0 L 66.0 119.0 L 67.0 119.0 L 68.0 119.0 L 69.0 119.0 L 70.0 119.0 L 71.0 119.0 L 72.0 119.0 L 73.0 119.0 L 74.0 119.0 L 75.0 119.0 L 76.0 119.0 L 77.0 119.0 L 78.0 119.0 L 79.0 119.0 L 80.0 119.0 L 81.0 119.0 L 82.0 119.0 L 83.0 119.0 L 84.0 119.0 L 85.0 119.0 L 86.0 119.0 L 87.0 119.0 L 88.0 119.0 L 89.0 119.0 L 90.0 119.0 L 91.0 119.0 L 92.0 119.0 L 93.0 119.0 L 94.0 119.0 L 94.5 119.0 Z" stroke="none" fill="rgb(185,228,234)" />
<path d="M 104.5 116.0 L 105.0 116.0 L 106.0 116.0 L 107.0 116.0 L 108.0 116.0 L 109.0 116.0 L 110.0 116.0 L 111.0 116.0 L 112.0 116.0 L 113.0 116.0 L 114.0 116.0 L 115.0 116.0 L 116.0 115.66666666666667 L 116.66666666666667 115.0 L 117.0 114.0 L 117.0 113.0 L 117.0 112.0 L 117.0 111.0 L 117.0 110.0 L 117.0 109.0 L 117.0 108.0 L 117.0 107.0 L 117.0 106.0 L 117.0 105.0 L 117.0 104.0 L 117.0 103.0 L 117.0 102.0 L 117.0 101.0 L 117.0 100.0 L 117.0 99.0 L 117.0 98.0 L 117.0 97.0 L 117.0 96.0 L 117.0 95.0 L 117.0 94.0 L 117.0 93.0 L 117.0 92.0 L 117.0 91.0 L 116.66666666666667 90.0 L 116.0 89.33333333333333 L 115.0 89.0 L 114.0 89.0 L 113.0 89.0 L 112.0 89.0 L 111.0 89.0 L 110.0 89.0 L 109.0 89.0 L 108.0 89.0 L 107.0 89.0 L 106.0 89.0 L 105.0 89.0 L 104.0 89.0 L 103.0 89.0 L 102.33333333333333 89.33333333333333 L 102.0 90.0 L 102.0 91.0 L 102.0 92.0 L 102.0 93.0 L 102.0 94.0 L 102.0 95.0 L 102.0 96.0 L 102.0 97.0 L 102.0 98.0 L 102.0 99.0 L 102.0 100.0 L 102.0 101.0 L 102.0 102.0 L 102.0 103.0 L 102.0 104.0 L 102.0 105.0 L 102.0 106.0 L 102.0 107.0 L 102.0 108.0 L 102.0 109.0 L 102.0 110.0 L 102.0 111.0 L 102.0 112.0 L 102.0 113.0 L 102.0 114.0 L 102.0 115.0 L 102.33333333333333 115.66666666666667 L 103.0 116.0 L 103.5 116.0 Z" stroke="none" fill="rgb(69,90,100)" />
<path d="M 110.5 75.5 L 111.0 76.0 L 112.0 77.0 L 113.0 78.0 L 114.0 78.66666666666667 L 115.0 79.0 L 115.66666666666667 78.66666666666667 L 116.0 78.0 L 116.0 77.0 L 116.0 76.0 L 116.0 75.0 L 116.0 74.0 L 115.66666666666667 73.0 L 115.0 72.0 L 114.0 71.0 L 113.0 70.0 L 112.0 69.33333333333333 L 111.0 69.0 L 110.0 69.0 L 109.0 69.33333333333333 L 108.0 69.66666666666667 L 107.0 70.0 L 106.33333333333333 70.33333333333333 L 106.0 71.0 L 106.33333333333333 72.0 L 107.0 72.66666666666667 L 108.0 73.33333333333333 L 109.0 74.0 L 109.5 74.5 Z" stroke="none" fill="rgb(69,90,100)" />
<path d="M 107.5 65.0 L 107.66666666666667 64.66666666666667 L 108.0 64.0 L 107.66666666666667 63.0 L 107.33333333333333 62.0 L 107.0 61.0 L 107.0 60.0 L 107.0 59.0 L 107.0 58.0 L 107.33333333333333 57.0 L 107.66666666666667 56.0 L 108.0 55.0 L 108.0 54.0 L 107.66666666666667 53.0 L 107.0 52.333333333333336 L 106.0 52.333333333333336 L 105.0 53.0 L 104.0 54.0 L 103.33333333333333 55.0 L 103.0 56.0 L 103.0 57.0 L 103.0 58.0 L 103.0 59.0 L 103.0 60.0 L 103.0 61.0 L 103.33333333333333 62.0 L 104.0 63.0 L 105.0 64.0 L 106.0 64.66666666666667 L 106.5 65.0 Z" stroke="none" fill="rgb(69,90,100)" />
<path d="M 112.5 64.5 L 113.0 64.0 L 114.0 63.0 L 115.0 62.0 L 115.66666666666667 61.0 L 116.0 60.0 L 116.0 59.0 L 116.0 58.0 L 116.0 57.0 L 116.0 56.0 L 115.66666666666667 55.0 L 115.0 54.0 L 114.0 53.333333333333336 L 113.0 53.0 L 112.0 53.0 L 111.33333333333333 53.333333333333336 L 111.0 54.0 L 111.0 55.0 L 111.0 56.0 L 111.0 57.0 L 111.0 58.0 L 111.0 59.0 L 111.0 60.0 L 111.0 61.0 L 111.0 62.0 L 111.0 63.0 L 111.0 64.0 L 111.33333333333333 64.66666666666667 L 111.5 65.0 Z" stroke="none" fill="rgb(69,90,100)" />
<path d="M 110.5 83.0 L 111.0 83.0 L 112.0 82.66666666666667 L 112.66666666666667 82.0 L 112.66666666666667 81.0 L 112.0 80.33333333333333 L 111.0 79.66666666666667 L 110.0 79.33333333333333 L 109.0 78.66666666666667 L 108.0 78.0 L 107.0 77.0 L 106.0 76.0 L 105.0 75.33333333333333 L 104.0 75.0 L 103.33333333333333 75.33333333333333 L 103.0 76.0 L 103.0 77.0 L 103.0 78.0 L 103.0 79.0 L 103.33333333333333 80.0 L 104.0 81.0 L 105.0 82.0 L 106.0 82.66666666666667 L 107.0 83.0 L 108.0 83.0 L 109.0 83.0 L 109.5 83.0 Z" stroke="none" fill="rgb(69,90,100)" />
<path d="M 106.5 77.5 L 107.0 78.0 L 108.0 78.66666666666667 L 109.0 79.33333333333333 L 110.0 79.66666666666667 L 111.0 80.33333333333333 L 112.0 80.66666666666667 L 113.0 81.0 L 114.0 80.66666666666667 L 114.66666666666667 80.0 L 114.66666666666667 79.0 L 114.0 78.0 L 113.0 77.0 L 112.0 76.0 L 111.0 75.0 L 110.0 74.0 L 109.0 73.33333333333333 L 108.0 72.66666666666667 L 107.0 72.33333333333333 L 106.0 72.33333333333333 L 105.33333333333333 73.0 L 105.0 74.0 L 105.0 75.0 L 105.33333333333333 76.0 L 105.5 76.5 Z" stroke="none" fill="rgb(130,174,192)" />
<path d="M 108.5 64.0 L 109.0 64.0 L 110.0 64.0 L 110.66666666666667 63.666666666666664 L 111.0 63.0 L 111.0 62.0 L 111.0 61.0 L 111.0 60.0 L 111.0 59.0 L 111.0 58.0 L 111.0 57.0 L 111.0 56.0 L 111.0 55.0 L 110.66666666666667 54.0 L 110.0 53.333333333333336 L 109.0 53.0 L 108.33333333333333 53.333333333333336 L 108.0 54.0 L 107.66666666666667 55.0 L 107.33333333333333 56.0 L 107.0 57.0 L 107.0 58.0 L 107.0 59.0 L 107.0 60.0 L 107.0 61.0 L 107.0 62.0 L 107.33333333333333 63.0 L 107.5 63.5 Z" stroke="none" fill="rgb(130,174,192)" />
<path d="M 23.5 64.0 L 24.0 64.0 L 25.0 64.0 L 26.0 64.0 L 27.0 64.0 L 28.0 64.0 L 29.0 64.0 L 30.0 64.0 L 31.0 64.0 L 32.0 64.33333333333333 L 33.0 64.66666666666667 L 34.0 65.0 L 35.0 64.66666666666667 L 35.666666666666664 64.0 L 36.0 63.0 L 35.666666666666664 62.333333333333336 L 35.0 62.0 L 34.0 62.0 L 33.0 62.0 L 32.0 62.0 L 31.0 62.0 L 30.0 62.0 L 29.0 62.0 L 28.0 62.0 L 27.0 62.0 L 26.0 62.0 L 25.0 62.0 L 24.0 62.0 L 23.0 62.0 L 22.0 62.0 L 21.333333333333332 62.333333333333336 L 21.0 63.0 L 21.333333333333332 63.666666666666664 L 22.0 64.0 L 22.5 64.0 Z" stroke="none" fill="rgb(103,156,169)" />
<path d="M 30.5 60.0 L 31.0 60.0 L 32.0 60.0 L 33.0 60.0 L 34.0 60.0 L 35.0 60.0 L 36.0 60.0 L 36.666666666666664 59.666666666666664 L 37.0 59.0 L 36.666666666666664 58.0 L 36.0 57.333333333333336 L 35.0 57.0 L 34.0 57.0 L 33.0 57.0 L 32.0 57.0 L 31.0 57.0 L 30.0 57.0 L 29.0 57.0 L 28.0 57.0 L 27.0 57.0 L 26.0 57.333333333333336 L 25.333333333333332 58.0 L 25.0 59.0 L 25.333333333333332 59.666666666666664 L 26.0 60.0 L 27.0 60.0 L 28.0 60.0 L 29.0 60.0 L 29.5 60.0 Z" stroke="none" fill="rgb(125,169,182)" />
<path d="M 23.5 62.0 L 24.0 62.0 L 25.0 62.0 L 26.0 62.0 L 27.0 62.0 L 28.0 62.0 L 29.0 62.0 L 30.0 62.0 L 31.0 62.0 L 32.0 62.0 L 33.0 62.0 L 34.0 62.0 L 35.0 62.0 L 36.0 62.0 L 36.666666666666664 61.666666666666664 L 37.0 61.0 L 36.666666666666664 60.333333333333336 L 36.0 60.0 L 35.0 60.0 L 34.0 60.0 L 33.0 60.0 L 32.0 60.0 L 31.0 60.0 L 30.0 60.0 L 29.0 60.0 L 28.0 60.0 L 27.0 60.0 L 26.0 60.0 L 25.0 60.0 L 24.0 60.0 L 23.333333333333332 60.333333333333336 L 23.0 61.0 L 23.0 61.5 Z" stroke="none" fill="rgb(115,163,175)" />
<path d="M 33.0 65.5 L 33.0 65.0 L 32.666666666666664 64.33333333333333 L 32.0 64.0 L 31.0 64.0 L 30.0 64.0 L 29.0 64.0 L 28.0 64.0 L 27.0 64.0 L 26.0 64.0 L 25.0 64.0 L 24.0 64.0 L 23.0 64.0 L 22.0 64.0 L 21.0 64.0 L 20.333333333333332 64.33333333333333 L 20.0 65.0 L 20.333333333333332 65.66666666666667 L 21.0 66.0 L 22.0 66.0 L 23.0 66.0 L 24.0 66.0 L 25.0 66.0 L 26.0 66.0 L 27.0 66.0 L 28.0 66.0 L 29.0 66.0 L 30.0 66.33333333333333 L 31.0 66.66666666666667 L 32.0 66.66666666666667 L 32.5 66.5 Z" stroke="none" fill="rgb(92,149,162)" />
<path d="M 24.5 68.0 L 25.0 68.0 L 26.0 68.0 L 27.0 68.33333333333333 L 28.0 68.66666666666667 L 29.0 69.0 L 30.0 68.66666666666667 L 30.666666666666668 68.0 L 31.0 67.0 L 30.666666666666668 66.33333333333333 L 30.0 66.0 L 29.0 66.0 L 28.0 66.0 L 27.0 66.0 L 26.0 66.0 L 25.0 66.0 L 24.0 66.0 L 23.0 66.0 L 22.0 66.0 L 21.0 66.0 L 20.333333333333332 66.33333333333333 L 20.0 67.0 L 20.333333333333332 67.66666666666667 L 21.0 68.0 L 22.0 68.0 L 23.0 68.0 L 23.5 68.0 Z" stroke="none" fill="rgb(81,142,156)" />
<path d="M 24.5 70.0 L 25.0 70.0 L 26.0 70.0 L 27.0 70.0 L 27.666666666666668 69.66666666666667 L 28.0 69.0 L 27.666666666666668 68.33333333333333 L 27.0 68.0 L 26.0 68.0 L 25.0 68.0 L 24.0 68.0 L 23.0 68.0 L 22.0 68.0 L 21.0 68.0 L 20.333333333333332 68.33333333333333 L 20.0 69.0 L 20.333333333333332 69.66666666666667 L 21.0 70.0 L 22.0 70.0 L 23.0 70.0 L 23.5 70.0 Z" stroke="none" fill="rgb(70,135,150)" />
<path d="M 23.5 72.0 L 24.0 72.0 L 25.0 72.0 L 26.0 72.0 L 26.666666666666668 71.66666666666667 L 27.0 71.0 L 26.666666666666668 70.33333333333333 L 26.0 70.0 L 25.0 70.0 L 24.0 70.0 L 23.0 70.0 L 22.0 70.0 L 21.0 70.0 L 20.333333333333332 70.33333333333333 L 20.0 71.0 L 20.333333333333332 71.66666666666667 L 21.0 72.0 L 22.0 72.0 L 22.5 72.0 Z" stroke="none" fill="rgb(57,127,143)" />
<path d="M 111.0 65.5 L 111.0 65.0 L 110.66666666666667 64.33333333333333 L 110.0 64.0 L 109.0 64.0 L 108.33333333333333 64.33333333333333 L 108.0 65.0 L 108.33333333333333 65.66666666666667 L 109.0 66.0 L 110.0 66.0 L 110.5 66.0 Z" stroke="none" fill="rgb(39,44,46)" />
<path d="M 49.5 40.0 L 49.666666666666664 39.666666666666664 L 49.666666666666664 39.333333333333336 L 49.333333333333336 39.333333333333336 L 49.0 39.5 Z" stroke="none" fill="rgb(0,0,0)" />
<path d="M 35.0 56.5 L 34.666666666666664 56.333333333333336 L 34.333333333333336 56.333333333333336 L 34.333333333333336 56.666666666666664 L 34.5 57.0 Z" stroke="none" fill="rgb(130,174,192)" />
</svg>
