<?xml version="1.0" encoding="UTF-8" standalone="no"?>
<!DOCTYPE svg PUBLIC "-//W3C//DTD SVG 1.1//EN"
"http://www.w3.org/Graphics/SVG/1.1/DTD/svg11.dtd">
<svg width="128" height="128" xmlns="http://www.w3.org/2000/svg" version="1.1">
<path d="M 26.5 128.0 L 27.0 128.0 L 28.0 128.0 L 29.0 128.0 L 30.0 128.0 L 31.0 128.0 L 32.0 128.0 L 33.0 128.0 L 34.0 128.0 L 35.0 128.0 L 36.0 128.0 L 37.0 128.0 L 38.0 128.0 L 39.0 128.0 L 40.0 128.0 L 41.0 128.0 L 42.0 128.0 L 43.0 128.0 L 44.0 128.0 L 45.0 128.0 L 46.0 128.0 L 47.0 128.0 L 48.0 128.0 L 49.0 128.0 L 50.0 128.0 L 51.0 128.0 L 52.0 128.0 L 53.0 128.0 L 54.0 128.0 L 55.0 128.0 L 56.0 128.0 L 57.0 128.0 L 58.0 128.0 L 59.0 128.0 L 60.0 128.0 L 61.0 128.0 L 62.0 128.0 L 63.0 128.0 L 64.0 128.0 L 65.0 128.0 L 66.0 128.0 L 67.0 128.0 L 68.0 128.0 L 69.0 128.0 L 70.0 128.0 L 71.0 128.0 L 72.0 128.0 L 73.0 128.0 L 74.0 128.0 L 75.0 128.0 L 76.0 128.0 L 77.0 128.0 L 78.0 128.0 L 79.0 128.0 L 80.0 128.0 L 81.0 128.0 L 82.0 128.0 L 83.0 128.0 L 84.0 128.0 L 85.0 128.0 L 86.0 128.0 L 87.0 128.0 L 88.0 128.0 L 89.0 128.0 L 90.0 128.0 L 91.0 128.0 L 92.0 128.0 L 93.0 128.0 L 94.0 128.0 L 95.0 128.0 L 96.0 128.0 L 97.0 128.0 L 98.0 128.0 L 99.0 128.0 L 100.0 128.0 L 101.0 128.0 L 102.0 128.0 L 103.0 128.0 L 104.0 128.0 L 105.0 128.0 L 106.0 128.0 L 107.0 128.0 L 108.0 128.0 L 109.0 128.0 L 110.0 128.0 L 111.0 128.0 L 112.0 128.0 L 113.0 128.0 L 114.0 128.0 L 115.0 128.0 L 116.0 128.0 L 117.0 128.0 L 118.0 128.0 L 119.0 128.0 L 120.0 128.0 L 121.0 128.0 L 122.0 128.0 L 123.0 128.0 L 124.0 128.0 L 125.0 128.0 L 126.0 128.0 L 127.0 128.0 L 127.66666666666667 127.66666666666667 L 128.0 127.0 L 128.0 126.0 L 128.0 125.0 L 128.0 124.0 L 128.0 123.0 L 128.0 122.0 L 128.0 121.0 L 128.0 120.0 L 128.0 119.0 L 128.0 118.0 L 128.0 117.0 L 128.0 116.0 L 128.0 115.0 L 128.0 114.0 L 128.0 113.0 L 128.0 112.0 L 128.0 111.0 L 128.0 110.0 L 128.0 109.0 L 128.0 108.0 L 128.0 107.0 L 128.0 106.0 L 128.0 105.0 L 128.0 104.0 L 128.0 103.0 L 128.0 102.0 L 128.0 101.0 L 128.0 100.0 L 128.0 99.0 L 128.0 98.0 L 128.0 97.0 L 128.0 96.0 L 128.0 95.0 L 128.0 94.0 L 128.0 93.0 L 128.0 92.0 L 128.0 91.0 L 128.0 90.0 L 128.0 89.0 L 128.0 88.0 L 128.0 87.0 L 128.0 86.0 L 128.0 85.0 L 128.0 84.0 L 128.0 83.0 L 128.0 82.0 L 128.0 81.0 L 128.0 80.0 L 128.0 79.0 L 128.0 78.0 L 128.0 77.0 L 128.0 76.0 L 128.0 75.0 L 128.0 74.0 L 128.0 73.0 L 128.0 72.0 L 128.0 71.0 L 128.0 70.0 L 128.0 69.0 L 128.0 68.0 L 128.0 67.0 L 128.0 66.0 L 128.0 65.0 L 128.0 64.0 L 128.0 63.0 L 128.0 62.0 L 128.0 61.0 L 128.0 60.0 L 128.0 59.0 L 128.0 58.0 L 128.0 57.0 L 128.0 56.0 L 128.0 55.0 L 128.0 54.0 L 128.0 53.0 L 128.0 52.0 L 128.0 51.0 L 128.0 50.0 L 128.0 49.0 L 128.0 48.0 L 128.0 47.0 L 128.0 46.0 L 128.0 45.0 L 128.0 44.0 L 128.0 43.0 L 128.0 42.0 L 128.0 41.0 L 128.0 40.0 L 128.0 39.0 L 128.0 38.0 L 128.0 37.0 L 128.0 36.0 L 128.0 35.0 L 128.0 34.0 L 128.0 33.0 L 128.0 32.0 L 128.0 31.0 L 128.0 30.0 L 128.0 29.0 L 128.0 28.0 L 128.0 27.0 L 128.0 26.0 L 128.0 25.0 L 128.0 24.0 L 128.0 23.0 L 128.0 22.0 L 128.0 21.0 L 128.0 20.0 L 128.0 19.0 L 128.0 18.0 L 128.0 17.0 L 128.0 16.0 L 128.0 15.0 L 128.0 14.0 L 128.0 13.0 L 128.0 12.0 L 128.0 11.0 L 128.0 10.0 L 128.0 9.0 L 128.0 8.0 L 128.0 7.0 L 128.0 6.0 L 128.0 5.0 L 128.0 4.0 L 128.0 3.0 L 128.0 2.0 L 128.0 1.0 L 127.66666666666667 0.3333333333333333 L 127.0 0.0 L 126.0 0.0 L 125.0 0.0 L 124.0 0.0 L 123.0 0.0 L 122.0 0.0 L 121.0 0.0 L 120.0 0.0 L 119.0 0.0 L 118.0 0.0 L 117.0 0.0 L 116.0 0.0 L 115.0 0.0 L 114.0 0.0 L 113.0 0.0 L 112.0 0.0 L 111.0 0.0 L 110.0 0.0 L 109.0 0.0 L 108.0 0.0 L 107.0 0.0 L 106.0 0.0 L 105.0 0.0 L 104.0 0.0 L 103.0 0.0 L 102.0 0.0 L 101.0 0.0 L 100.0 0.0 L 99.0 0.0 L 98.0 0.0 L 97.0 0.0 L 96.0 0.0 L 95.0 0.0 L 94.0 0.0 L 93.0 0.0 L 92.0 0.0 L 91.0 0.0 L 90.0 0.0 L 89.0 0.0 L 88.0 0.0 L 87.0 0.0 L 86.0 0.0 L 85.0 0.0 L 84.0 0.0 L 83.0 0.0 L 82.0 0.0 L 81.0 0.0 L 80.0 0.0 L 79.0 0.0 L 78.0 0.0 L 77.0 0.0 L 76.0 0.0 L 75.0 0.0 L 74.0 0.0 L 73.0 0.0 L 72.0 0.0 L 71.0 0.0 L 70.0 0.0 L 69.0 0.0 L 68.0 0.0 L 67.0 0.0 L 66.0 0.0 L 65.0 0.0 L 64.0 0.0 L 63.0 0.0 L 62.0 0.0 L 61.0 0.0 L 60.0 0.0 L 59.0 0.0 L 58.0 0.0 L 57.0 0.0 L 56.0 0.0 L 55.0 0.0 L 54.0 0.0 L 53.0 0.0 L 52.0 0.0 L 51.0 0.0 L 50.0 0.0 L 49.0 0.0 L 48.0 0.0 L 47.0 0.0 L 46.0 0.0 L 45.0 0.0 L 44.0 0.0 L 43.0 0.0 L 42.0 0.0 L 41.0 0.0 L 40.0 0.0 L 39.0 0.0 L 38.0 0.0 L 37.0 0.0 L 36.0 0.0 L 35.0 0.0 L 34.0 0.0 L 33.0 0.0 L 32.0 0.0 L 31.0 0.0 L 30.0 0.0 L 29.0 0.0 L 28.0 0.0 L 27.0 0.0 L 26.0 0.0 L 25.0 0.0 L 24.0 0.0 L 23.0 0.0 L 22.0 0.0 L 21.0 0.0 L 20.0 0.0 L 19.0 0.0 L 18.0 0.0 L 17.0 0.0 L 16.0 0.0 L 15.0 0.0 L 14.0 0.0 L 13.0 0.0 L 12.0 0.0 L 11.0 0.0 L 10.0 0.0 L 9.0 0.0 L 8.0 0.0 L 7.0 0.0 L 6.0 0.0 L 5.0 0.0 L 4.0 0.0 L 3.0 0.0 L 2.0 0.0 L 1.0 0.0 L 0.3333333333333333 0.3333333333333333 L 0.0 1.0 L 0.0 2.0 L 0.0 3.0 L 0.0 4.0 L 0.0 5.0 L 0.0 6.0 L 0.0 7.0 L 0.0 8.0 L 0.0 9.0 L 0.0 10.0 L 0.0 11.0 L 0.0 12.0 L 0.0 13.0 L 0.0 14.0 L 0.0 15.0 L 0.0 16.0 L 0.0 17.0 L 0.0 18.0 L 0.0 19.0 L 0.0 20.0 L 0.0 21.0 L 0.0 22.0 L 0.0 23.0 L 0.0 24.0 L 0.0 25.0 L 0.0 26.0 L 0.0 27.0 L 0.0 28.0 L 0.0 29.0 L 0.0 30.0 L 0.0 31.0 L 0.0 32.0 L 0.0 33.0 L 0.0 34.0 L 0.0 35.0 L 0.0 36.0 L 0.0 37.0 L 0.0 38.0 L 0.0 39.0 L 0.0 40.0 L 0.0 41.0 L 0.0 42.0 L 0.0 43.0 L 0.0 44.0 L 0.0 45.0 L 0.0 46.0 L 0.0 47.0 L 0.0 48.0 L 0.0 49.0 L 0.0 50.0 L 0.0 51.0 L 0.0 52.0 L 0.0 53.0 L 0.0 54.0 L 0.0 55.0 L 0.0 56.0 L 0.0 57.0 L 0.0 58.0 L 0.0 59.0 L 0.0 60.0 L 0.0 61.0 L 0.0 62.0 L 0.0 63.0 L 0.0 64.0 L 0.0 65.0 L 0.0 66.0 L 0.0 67.0 L 0.0 68.0 L 0.0 69.0 L 0.0 70.0 L 0.0 71.0 L 0.0 72.0 L 0.0 73.0 L 0.0 74.0 L 0.0 75.0 L 0.0 76.0 L 0.0 77.0 L 0.0 78.0 L 0.0 79.0 L 0.0 80.0 L 0.0 81.0 L 0.0 82.0 L 0.0 83.0 L 0.0 84.0 L 0.0 85.0 L 0.0 86.0 L 0.0 87.0 L 0.0 88.0 L 0.0 89.0 L 0.0 90.0 L 0.0 91.0 L 0.0 92.0 L 0.0 93.0 L 0.0 94.0 L 0.0 95.0 L 0.0 96.0 L 0.0 97.0 L 0.0 98.0 L 0.0 99.0 L 0.0 100.0 L 0.0 101.0 L 0.0 102.0 L 0.0 103.0 L 0.0 104.0 L 0.0 105.0 L 0.0 106.0 L 0.0 107.0 L 0.0 108.0 L 0.0 109.0 L 0.0 110.0 L 0.0 111.0 L 0.0 112.0 L 0.0 113.0 L 0.0 114.0 L 0.0 115.0 L 0.0 116.0 L 0.0 117.0 L 0.0 118.0 L 0.0 119.0 L 0.0 120.0 L 0.0 121.0 L 0.0 122.0 L 0.0 123.0 L 0.0 124.0 L 0.0 125.0 L 0.0 126.0 L 0.0 127.0 L 0.3333333333333333 127.66666666666667 L 1.0 128.0 L 2.0 128.0 L 3.0 128.0 L 4.0 128.0 L 5.0 128.0 L 6.0 128.0 L 7.0 128.0 L 8.0 128.0 L 9.0 128.0 L 10.0 128.0 L 11.0 128.0 L 12.0 128.0 L 13.0 128.0 L 14.0 128.0 L 15.0 128.0 L 16.0 128.0 L 17.0 128.0 L 18.0 128.0 L 19.0 128.0 L 20.0 128.0 L 21.0 128.0 L 22.0 128.0 L 23.0 128.0 L 24.0 128.0 L 25.0 128.0 L 25.5 128.0 Z" stroke="none" fill="rgb(0,0,0)" />
<path d="M 18.5 10.5 L 19.0 10.333333333333334 L 20.0 10.0 L 21.0 9.666666666666666 L 22.0 9.0 L 23.0 8.0 L 24.0 7.0 L 24.666666666666668 6.0 L 25.0 5.0 L 24.666666666666668 4.333333333333333 L 24.0 4.0 L 23.0 4.0 L 22.0 4.0 L 21.0 4.0 L 20.0 4.0 L 19.0 4.333333333333333 L 18.0 4.666666666666667 L 17.0 5.333333333333333 L 16.0 5.666666666666667 L 15.0 6.333333333333333 L 14.0 7.0 L 13.333333333333334 8.0 L 13.0 9.0 L 13.0 10.0 L 13.333333333333334 11.0 L 14.0 11.666666666666666 L 15.0 12.0 L 16.0 11.666666666666666 L 17.0 11.333333333333334 L 17.5 11.0 Z" stroke="none" fill="rgb(136,178,81)" />
<path d="M 21.5 15.5 L 22.0 15.333333333333334 L 23.0 14.666666666666666 L 24.0 14.333333333333334 L 25.0 13.666666666666666 L 26.0 13.0 L 27.0 12.0 L 28.0 11.0 L 29.0 10.0 L 30.0 9.0 L 30.666666666666668 8.0 L 31.0 7.0 L 31.0 6.0 L 30.666666666666668 5.0 L 30.0 4.333333333333333 L 29.0 4.0 L 28.0 4.0 L 27.0 4.0 L 26.0 4.333333333333333 L 25.0 5.0 L 24.0 6.0 L 23.0 7.0 L 22.0 8.0 L 21.0 9.0 L 20.0 9.666666666666666 L 19.0 10.0 L 18.0 10.333333333333334 L 17.0 10.666666666666666 L 16.0 11.333333333333334 L 15.333333333333334 12.0 L 15.0 13.0 L 15.0 14.0 L 15.0 15.0 L 15.333333333333334 16.0 L 16.0 16.666666666666668 L 17.0 17.0 L 18.0 16.666666666666668 L 19.0 16.333333333333332 L 20.0 16.0 L 20.5 16.0 Z" stroke="none" fill="rgb(120,77,48)" />
<path d="M 21.5 26.0 L 22.0 26.0 L 23.0 25.666666666666668 L 24.0 25.333333333333332 L 25.0 25.0 L 26.0 24.666666666666668 L 27.0 24.333333333333332 L 28.0 23.666666666666668 L 29.0 23.333333333333332 L 30.0 22.666666666666668 L 31.0 22.0 L 32.0 21.333333333333332 L 33.0 20.666666666666668 L 34.0 20.333333333333332 L 35.0 19.666666666666668 L 36.0 19.0 L 37.0 18.0 L 38.0 17.0 L 39.0 16.0 L 40.0 15.0 L 41.0 14.0 L 41.666666666666664 13.0 L 42.0 12.0 L 41.666666666666664 11.0 L 41.0 10.0 L 40.0 9.0 L 39.0 8.0 L 38.0 7.333333333333333 L 37.0 6.666666666666667 L 36.0 6.333333333333333 L 35.0 5.666666666666667 L 34.0 5.333333333333333 L 33.0 5.0 L 32.0 5.333333333333333 L 31.333333333333332 6.0 L 30.666666666666668 7.0 L 30.0 8.0 L 29.0 9.0 L 28.0 10.0 L 27.0 11.0 L 26.0 12.0 L 25.0 13.0 L 24.0 13.666666666666666 L 23.0 14.333333333333334 L 22.0 14.666666666666666 L 21.0 15.333333333333334 L 20.0 15.666666666666666 L 19.0 16.0 L 18.0 16.333333333333332 L 17.0 16.666666666666668 L 16.0 17.333333333333332 L 15.333333333333334 18.0 L 15.0 19.0 L 15.0 20.0 L 15.0 21.0 L 15.0 22.0 L 15.0 23.0 L 14.666666666666666 24.0 L 14.0 25.0 L 13.0 25.333333333333332 L 12.0 25.0 L 11.333333333333334 24.0 L 11.0 23.0 L 11.0 22.0 L 11.0 21.0 L 11.0 20.0 L 11.0 19.0 L 11.0 18.0 L 11.0 17.0 L 10.666666666666666 16.333333333333332 L 10.0 16.0 L 9.0 16.0 L 8.0 16.333333333333332 L 7.333333333333333 17.0 L 7.0 18.0 L 7.0 19.0 L 7.0 20.0 L 6.666666666666667 21.0 L 6.333333333333333 22.0 L 6.0 23.0 L 6.0 24.0 L 6.0 25.0 L 6.0 26.0 L 6.333333333333333 27.0 L 7.0 27.666666666666668 L 8.0 28.0 L 9.0 28.0 L 10.0 28.0 L 11.0 28.0 L 12.0 28.0 L 13.0 28.0 L 14.0 28.0 L 15.0 28.0 L 16.0 27.666666666666668 L 17.0 27.333333333333332 L 18.0 27.0 L 19.0 27.0 L 20.0 26.666666666666668 L 20.5 26.5 Z" stroke="none" fill="rgb(124,179,66)" />
<path d="M 10.5 16.5 L 11.0 16.666666666666668 L 12.0 17.0 L 12.666666666666666 16.666666666666668 L 12.666666666666666 16.0 L 12.0 15.0 L 11.666666666666666 14.0 L 11.666666666666666 13.0 L 11.666666666666666 12.0 L 11.0 11.333333333333334 L 10.0 11.333333333333334 L 9.333333333333334 12.0 L 9.0 13.0 L 9.0 14.0 L 9.0 15.0 L 9.333333333333334 15.666666666666666 L 9.5 16.0 Z" stroke="none" fill="rgb(120,77,48)" />
<path d="M 13.5 17.5 L 14.0 17.666666666666668 L 15.0 18.0 L 15.666666666666666 17.666666666666668 L 16.0 17.0 L 15.666666666666666 16.0 L 15.333333333333334 15.0 L 15.0 14.0 L 15.0 13.0 L 14.666666666666666 12.0 L 14.0 11.333333333333334 L 13.0 11.333333333333334 L 12.0 12.0 L 11.333333333333334 13.0 L 11.0 14.0 L 11.333333333333334 15.0 L 12.0 16.0 L 12.5 16.5 Z" stroke="none" fill="rgb(165,95,62)" />
<path d="M 21.5 48.0 L 22.0 48.0 L 23.0 47.666666666666664 L 24.0 47.333333333333336 L 25.0 47.0 L 26.0 47.0 L 27.0 47.0 L 28.0 46.666666666666664 L 29.0 46.333333333333336 L 30.0 46.0 L 31.0 45.666666666666664 L 32.0 45.333333333333336 L 33.0 44.666666666666664 L 34.0 44.333333333333336 L 35.0 44.0 L 36.0 43.666666666666664 L 37.0 43.333333333333336 L 38.0 42.666666666666664 L 39.0 42.333333333333336 L 40.0 41.666666666666664 L 41.0 41.0 L 42.0 40.333333333333336 L 43.0 39.666666666666664 L 44.0 39.0 L 45.0 38.333333333333336 L 46.0 37.666666666666664 L 47.0 37.0 L 48.0 36.0 L 49.0 35.0 L 50.0 34.0 L 51.0 33.333333333333336 L 51.666666666666664 32.666666666666664 L 52.0 32.0 L 52.0 31.0 L 52.0 30.0 L 51.666666666666664 29.333333333333332 L 51.0 29.0 L 50.0 29.333333333333332 L 49.0 29.666666666666668 L 48.0 30.0 L 47.0 29.666666666666668 L 46.0 29.333333333333332 L 45.0 29.0 L 44.0 28.666666666666668 L 43.0 28.0 L 42.333333333333336 27.0 L 42.0 26.0 L 41.666666666666664 25.0 L 41.0 24.0 L 40.666666666666664 23.0 L 41.0 22.0 L 42.0 21.0 L 42.666666666666664 20.0 L 43.333333333333336 19.0 L 44.0 18.333333333333332 L 45.0 18.0 L 45.666666666666664 17.666666666666668 L 46.0 17.0 L 46.0 16.0 L 45.666666666666664 15.0 L 45.0 14.0 L 44.0 13.0 L 43.0 12.333333333333334 L 42.0 12.333333333333334 L 41.0 13.0 L 40.0 14.0 L 39.0 15.0 L 38.0 16.0 L 37.0 17.0 L 36.0 18.0 L 35.0 19.0 L 34.0 19.666666666666668 L 33.0 20.333333333333332 L 32.0 20.666666666666668 L 31.0 21.333333333333332 L 30.0 22.0 L 29.0 22.666666666666668 L 28.0 23.333333333333332 L 27.0 23.666666666666668 L 26.0 24.333333333333332 L 25.0 24.666666666666668 L 24.0 25.0 L 23.0 25.333333333333332 L 22.0 25.666666666666668 L 21.0 26.0 L 20.0 26.333333333333332 L 19.0 26.666666666666668 L 18.0 27.0 L 17.0 27.0 L 16.0 27.333333333333332 L 15.0 27.666666666666668 L 14.0 28.0 L 13.0 28.0 L 12.0 28.0 L 11.0 28.0 L 10.0 28.0 L 9.0 28.0 L 8.0 28.0 L 7.333333333333333 28.333333333333332 L 7.0 29.0 L 7.0 30.0 L 7.0 31.0 L 7.0 32.0 L 7.333333333333333 33.0 L 8.0 33.666666666666664 L 9.0 34.0 L 10.0 33.666666666666664 L 11.0 33.333333333333336 L 12.0 33.0 L 13.0 33.0 L 14.0 33.0 L 15.0 33.333333333333336 L 16.0 34.0 L 16.666666666666668 35.0 L 17.0 36.0 L 17.333333333333332 37.0 L 18.0 38.0 L 18.666666666666668 39.0 L 18.666666666666668 40.0 L 18.0 41.0 L 17.333333333333332 42.0 L 17.0 43.0 L 16.666666666666668 44.0 L 16.0 45.0 L 15.333333333333334 46.0 L 15.333333333333334 47.0 L 16.0 47.666666666666664 L 17.0 48.0 L 18.0 48.0 L 19.0 48.0 L 20.0 48.0 L 20.5 48.0 Z" stroke="none" fill="rgb(255,214,0)" />
<path d="M 59.0 41.5 L 59.333333333333336 41.0 L 60.0 40.0 L 60.666666666666664 39.0 L 61.0 38.0 L 61.0 37.0 L 61.333333333333336 36.0 L 61.666666666666664 35.0 L 62.0 34.0 L 62.0 33.0 L 62.0 32.0 L 62.0 31.0 L 62.0 30.0 L 62.0 29.0 L 61.666666666666664 28.0 L 61.333333333333336 27.0 L 61.0 26.0 L 61.0 25.0 L 60.666666666666664 24.0 L 60.333333333333336 23.0 L 59.666666666666664 22.0 L 59.333333333333336 21.0 L 58.666666666666664 20.0 L 58.0 19.0 L 57.0 18.0 L 56.0 17.333333333333332 L 55.0 16.666666666666668 L 54.0 16.333333333333332 L 53.0 16.0 L 52.333333333333336 16.333333333333332 L 52.0 17.0 L 52.0 18.0 L 52.333333333333336 19.0 L 52.666666666666664 20.0 L 53.333333333333336 21.0 L 53.666666666666664 22.0 L 54.333333333333336 23.0 L 54.666666666666664 24.0 L 55.333333333333336 25.0 L 55.666666666666664 26.0 L 56.0 27.0 L 56.333333333333336 28.0 L 56.666666666666664 29.0 L 57.0 30.0 L 57.0 31.0 L 57.0 32.0 L 57.0 33.0 L 57.0 34.0 L 57.0 35.0 L 57.0 36.0 L 57.0 37.0 L 57.0 38.0 L 57.0 39.0 L 57.0 40.0 L 57.0 41.0 L 57.333333333333336 41.666666666666664 L 58.0 42.0 L 58.5 42.0 Z" stroke="none" fill="rgb(176,190,197)" />
<path d="M 98.5 20.5 L 99.0 20.666666666666668 L 99.66666666666667 20.666666666666668 L 100.0 20.0 L 100.33333333333333 19.0 L 101.0 18.333333333333332 L 101.66666666666667 17.666666666666668 L 102.0 17.0 L 101.66666666666667 16.333333333333332 L 101.0 16.0 L 100.0 16.0 L 99.0 16.333333333333332 L 98.0 17.0 L 97.33333333333333 18.0 L 97.33333333333333 19.0 L 97.5 19.5 Z" stroke="none" fill="rgb(120,77,48)" />
<path d="M 107.5 20.5 L 108.0 20.666666666666668 L 109.0 21.0 L 110.0 21.0 L 111.0 21.333333333333332 L 112.0 21.666666666666668 L 113.0 22.0 L 114.0 22.0 L 115.0 22.0 L 116.0 21.666666666666668 L 116.66666666666667 21.0 L 116.66666666666667 20.0 L 116.0 19.0 L 115.0 18.333333333333332 L 114.0 17.666666666666668 L 113.0 17.333333333333332 L 112.0 16.666666666666668 L 111.0 16.333333333333332 L 110.0 16.0 L 109.0 16.0 L 108.0 16.0 L 107.0 16.0 L 106.0 16.0 L 105.0 16.0 L 104.33333333333333 16.333333333333332 L 104.0 17.0 L 104.33333333333333 18.0 L 104.66666666666667 19.0 L 105.33333333333333 19.666666666666668 L 106.0 20.0 L 106.5 20.0 Z" stroke="none" fill="rgb(136,178,81)" />
<path d="M 11.5 25.5 L 12.0 25.666666666666668 L 13.0 26.0 L 14.0 25.666666666666668 L 14.666666666666666 25.0 L 15.0 24.0 L 15.0 23.0 L 15.0 22.0 L 15.0 21.0 L 15.0 20.0 L 15.0 19.0 L 14.666666666666666 18.0 L 14.0 17.333333333333332 L 13.0 17.0 L 12.0 17.0 L 11.333333333333334 17.333333333333332 L 11.0 18.0 L 11.0 19.0 L 11.0 20.0 L 11.0 21.0 L 11.0 22.0 L 11.0 23.0 L 11.0 24.0 L 11.0 24.5 Z" stroke="none" fill="rgb(203,254,143)" />
<path d="M 104.5 20.5 L 104.66666666666667 20.0 L 105.0 19.0 L 104.66666666666667 18.0 L 104.0 17.333333333333332 L 103.0 17.0 L 102.0 17.333333333333332 L 101.0 17.666666666666668 L 100.33333333333333 18.333333333333332 L 100.0 19.0 L 100.0 20.0 L 100.0 21.0 L 100.33333333333333 22.0 L 101.0 22.666666666666668 L 102.0 22.666666666666668 L 103.0 22.0 L 103.5 21.5 Z" stroke="none" fill="rgb(165,95,62)" />
<path d="M 50.5 29.5 L 50.666666666666664 29.0 L 51.0 28.0 L 51.0 27.0 L 51.0 26.0 L 50.666666666666664 25.0 L 50.333333333333336 24.0 L 49.666666666666664 23.0 L 49.333333333333336 22.0 L 48.666666666666664 21.0 L 48.333333333333336 20.0 L 47.666666666666664 19.0 L 47.0 18.333333333333332 L 46.0 18.0 L 45.0 18.0 L 44.0 18.0 L 43.333333333333336 18.333333333333332 L 42.666666666666664 19.0 L 42.0 20.0 L 41.0 21.0 L 40.333333333333336 22.0 L 40.0 23.0 L 40.333333333333336 24.0 L 41.0 25.0 L 41.666666666666664 26.0 L 42.0 27.0 L 42.333333333333336 28.0 L 43.0 28.666666666666668 L 44.0 29.0 L 45.0 29.333333333333332 L 46.0 29.666666666666668 L 47.0 30.0 L 48.0 30.0 L 49.0 30.0 L 49.5 30.0 Z" stroke="none" fill="rgb(244,81,30)" />
<path d="M 68.0 33.5 L 68.0 33.0 L 68.0 32.0 L 68.0 31.0 L 68.0 30.0 L 68.0 29.0 L 68.0 28.0 L 68.0 27.0 L 68.0 26.0 L 68.0 25.0 L 68.0 24.0 L 67.66666666666667 23.0 L 67.33333333333333 22.0 L 66.66666666666667 21.0 L 66.0 20.0 L 65.0 19.0 L 64.0 18.333333333333332 L 63.0 18.0 L 62.0 18.0 L 61.0 18.0 L 60.333333333333336 18.333333333333332 L 60.0 19.0 L 60.333333333333336 20.0 L 61.0 21.0 L 62.0 22.0 L 62.666666666666664 23.0 L 63.0 24.0 L 63.333333333333336 25.0 L 63.666666666666664 26.0 L 64.0 27.0 L 64.0 28.0 L 64.0 29.0 L 64.0 30.0 L 64.0 31.0 L 64.0 32.0 L 64.0 33.0 L 64.0 34.0 L 64.0 35.0 L 64.33333333333333 35.666666666666664 L 65.0 36.0 L 66.0 35.666666666666664 L 67.0 35.0 L 67.5 34.5 Z" stroke="none" fill="rgb(176,190,197)" />
<path d="M 88.5 27.5 L 89.0 28.0 L 90.0 29.0 L 91.0 29.666666666666668 L 92.0 30.333333333333332 L 93.0 31.0 L 94.0 31.666666666666668 L 95.0 32.333333333333336 L 96.0 32.666666666666664 L 97.0 33.333333333333336 L 98.0 33.666666666666664 L 99.0 34.0 L 100.0 34.333333333333336 L 101.0 34.666666666666664 L 102.0 35.0 L 103.0 35.333333333333336 L 104.0 35.666666666666664 L 105.0 36.0 L 106.0 36.0 L 107.0 36.333333333333336 L 108.0 36.666666666666664 L 109.0 37.0 L 110.0 37.0 L 111.0 37.0 L 112.0 37.333333333333336 L 113.0 37.666666666666664 L 114.0 38.0 L 115.0 38.0 L 116.0 38.0 L 117.0 38.0 L 118.0 38.0 L 119.0 38.0 L 120.0 38.0 L 121.0 38.0 L 122.0 38.0 L 123.0 38.0 L 124.0 38.0 L 124.66666666666667 37.666666666666664 L 125.0 37.0 L 124.66666666666667 36.0 L 124.33333333333333 35.0 L 124.0 34.0 L 124.0 33.0 L 124.0 32.0 L 124.0 31.0 L 123.66666666666667 30.0 L 123.33333333333333 29.0 L 123.0 28.0 L 122.66666666666667 27.0 L 122.0 26.333333333333332 L 121.0 26.0 L 120.0 26.333333333333332 L 119.0 26.666666666666668 L 118.0 27.0 L 117.0 27.0 L 116.0 27.0 L 115.0 27.0 L 114.0 27.0 L 113.0 27.0 L 112.0 27.0 L 111.0 27.0 L 110.0 27.0 L 109.0 26.666666666666668 L 108.0 26.333333333333332 L 107.0 26.0 L 106.0 25.666666666666668 L 105.0 25.333333333333332 L 104.0 24.666666666666668 L 103.0 24.0 L 102.0 23.0 L 101.0 22.0 L 100.0 21.0 L 99.0 20.0 L 98.0 19.0 L 97.0 18.333333333333332 L 96.0 18.0 L 95.0 18.333333333333332 L 94.0 18.666666666666668 L 93.0 19.333333333333332 L 92.0 20.0 L 91.0 21.0 L 90.0 22.0 L 89.0 23.0 L 88.33333333333333 24.0 L 88.0 25.0 L 88.0 26.0 L 88.0 26.5 Z" stroke="none" fill="rgb(124,179,66)" />
<path d="M 114.5 27.0 L 115.0 27.0 L 116.0 27.0 L 117.0 27.0 L 118.0 27.0 L 119.0 27.0 L 120.0 26.666666666666668 L 120.66666666666667 26.0 L 121.0 25.0 L 121.0 24.0 L 120.66666666666667 23.0 L 120.0 22.0 L 119.0 21.333333333333332 L 118.0 21.0 L 117.0 21.0 L 116.0 21.333333333333332 L 115.0 21.666666666666668 L 114.0 22.0 L 113.0 21.666666666666668 L 112.0 21.333333333333332 L 111.0 21.0 L 110.0 21.0 L 109.0 20.666666666666668 L 108.0 20.333333333333332 L 107.0 20.0 L 106.0 20.0 L 105.0 20.0 L 104.0 20.333333333333332 L 103.0 21.0 L 102.33333333333333 22.0 L 102.0 23.0 L 102.33333333333333 24.0 L 103.0 24.666666666666668 L 104.0 25.333333333333332 L 105.0 25.666666666666668 L 106.0 26.0 L 107.0 26.333333333333332 L 108.0 26.666666666666668 L 109.0 27.0 L 110.0 27.0 L 111.0 27.0 L 112.0 27.0 L 113.0 27.0 L 113.5 27.0 Z" stroke="none" fill="rgb(120,77,48)" />
<path d="M 47.5 25.0 L 47.666666666666664 24.666666666666668 L 48.0 24.0 L 47.666666666666664 23.0 L 47.0 22.333333333333332 L 46.0 22.0 L 45.333333333333336 22.333333333333332 L 45.0 23.0 L 45.333333333333336 24.0 L 46.0 24.666666666666668 L 46.5 25.0 Z" stroke="none" fill="rgb(255,214,0)" />
<path d="M 94.5 30.0 L 95.0 29.666666666666668 L 96.0 29.0 L 97.0 28.0 L 98.0 27.0 L 99.0 26.0 L 99.66666666666667 25.0 L 100.0 24.0 L 99.66666666666667 23.0 L 99.0 22.333333333333332 L 98.0 22.0 L 97.0 22.0 L 96.0 22.333333333333332 L 95.0 22.666666666666668 L 94.0 23.333333333333332 L 93.33333333333333 24.0 L 93.0 25.0 L 93.0 26.0 L 93.0 27.0 L 93.0 28.0 L 93.33333333333333 29.0 L 93.5 29.5 Z" stroke="none" fill="rgb(203,254,143)" />
<path d="M 74.5 50.5 L 75.0 50.666666666666664 L 76.0 51.0 L 76.66666666666667 50.666666666666664 L 77.0 50.0 L 77.0 49.0 L 77.0 48.0 L 77.0 47.0 L 77.0 46.0 L 77.0 45.0 L 77.0 44.0 L 77.0 43.0 L 77.0 42.0 L 77.0 41.0 L 77.0 40.0 L 77.33333333333333 39.0 L 77.66666666666667 38.0 L 78.0 37.0 L 78.33333333333333 36.0 L 78.66666666666667 35.0 L 79.33333333333333 34.0 L 79.66666666666667 33.0 L 80.33333333333333 32.0 L 80.66666666666667 31.0 L 81.33333333333333 30.0 L 82.0 29.0 L 82.66666666666667 28.0 L 83.0 27.0 L 83.0 26.0 L 82.66666666666667 25.333333333333332 L 82.0 25.0 L 81.0 25.333333333333332 L 80.0 25.666666666666668 L 79.0 26.333333333333332 L 78.0 27.0 L 77.0 28.0 L 76.0 29.0 L 75.0 30.0 L 74.33333333333333 31.0 L 73.66666666666667 32.0 L 73.33333333333333 33.0 L 73.0 34.0 L 73.0 35.0 L 73.0 36.0 L 72.66666666666667 37.0 L 72.33333333333333 38.0 L 72.0 39.0 L 72.0 40.0 L 72.0 41.0 L 72.0 42.0 L 72.33333333333333 43.0 L 72.66666666666667 44.0 L 73.0 45.0 L 73.0 46.0 L 73.33333333333333 47.0 L 73.66666666666667 48.0 L 74.0 49.0 L 74.0 49.5 Z" stroke="none" fill="rgb(176,190,197)" />
<path d="M 37.0 34.5 L 37.0 34.0 L 37.0 33.0 L 37.0 32.0 L 36.666666666666664 31.0 L 36.0 30.0 L 35.333333333333336 29.0 L 35.0 28.0 L 34.666666666666664 27.333333333333332 L 34.0 27.0 L 33.0 27.0 L 32.0 27.0 L 31.0 27.0 L 30.0 27.0 L 29.0 27.0 L 28.0 27.0 L 27.0 27.333333333333332 L 26.333333333333332 28.0 L 25.666666666666668 29.0 L 25.0 30.0 L 24.0 31.0 L 23.333333333333332 32.0 L 23.333333333333332 33.0 L 24.0 34.0 L 24.666666666666668 35.0 L 25.0 36.0 L 25.0 37.0 L 25.333333333333332 38.0 L 26.0 38.666666666666664 L 27.0 39.0 L 28.0 39.0 L 29.0 39.0 L 30.0 39.333333333333336 L 31.0 39.666666666666664 L 32.0 40.0 L 33.0 39.666666666666664 L 34.0 39.0 L 34.666666666666664 38.0 L 35.333333333333336 37.0 L 36.0 36.0 L 36.5 35.5 Z" stroke="none" fill="rgb(244,81,30)" />
<path d="M 105.5 58.0 L 106.0 58.0 L 107.0 58.0 L 108.0 58.0 L 109.0 58.0 L 110.0 58.0 L 111.0 58.0 L 112.0 58.0 L 113.0 58.0 L 114.0 58.0 L 115.0 58.0 L 116.0 58.333333333333336 L 117.0 58.666666666666664 L 118.0 59.0 L 119.0 58.666666666666664 L 119.66666666666667 58.0 L 120.0 57.0 L 120.0 56.0 L 119.66666666666667 55.333333333333336 L 119.0 55.333333333333336 L 118.0 55.333333333333336 L 117.0 55.0 L 116.33333333333333 54.0 L 115.66666666666667 53.0 L 115.0 52.0 L 114.33333333333333 51.0 L 114.33333333333333 50.0 L 114.66666666666667 49.0 L 115.0 48.0 L 115.0 47.0 L 115.33333333333333 46.0 L 116.0 45.0 L 117.0 44.333333333333336 L 118.0 44.0 L 119.0 44.0 L 120.0 43.666666666666664 L 121.0 43.666666666666664 L 122.0 44.0 L 123.0 44.666666666666664 L 123.66666666666667 44.666666666666664 L 124.0 44.0 L 124.0 43.0 L 124.0 42.0 L 124.33333333333333 41.0 L 124.66666666666667 40.0 L 125.0 39.0 L 124.66666666666667 38.333333333333336 L 124.0 38.0 L 123.0 38.0 L 122.0 38.0 L 121.0 38.0 L 120.0 38.0 L 119.0 38.0 L 118.0 38.0 L 117.0 38.0 L 116.0 38.0 L 115.0 38.0 L 114.0 37.666666666666664 L 113.0 37.333333333333336 L 112.0 37.0 L 111.0 37.0 L 110.0 37.0 L 109.0 36.666666666666664 L 108.0 36.333333333333336 L 107.0 36.0 L 106.0 36.0 L 105.0 35.666666666666664 L 104.0 35.333333333333336 L 103.0 35.0 L 102.0 34.666666666666664 L 101.0 34.333333333333336 L 100.0 34.0 L 99.0 33.666666666666664 L 98.0 33.333333333333336 L 97.0 32.666666666666664 L 96.0 32.333333333333336 L 95.0 31.666666666666668 L 94.0 31.0 L 93.0 30.333333333333332 L 92.0 29.666666666666668 L 91.0 29.0 L 90.0 28.0 L 89.0 27.333333333333332 L 88.0 27.0 L 87.0 27.0 L 86.0 27.333333333333332 L 85.33333333333333 28.0 L 84.66666666666667 29.0 L 84.33333333333333 30.0 L 84.0 31.0 L 84.0 32.0 L 84.33333333333333 32.666666666666664 L 85.0 33.0 L 86.0 32.666666666666664 L 87.0 32.666666666666664 L 87.66666666666667 33.0 L 88.33333333333333 34.0 L 89.0 35.0 L 90.0 36.0 L 90.33333333333333 37.0 L 90.33333333333333 38.0 L 90.0 39.0 L 90.0 40.0 L 89.66666666666667 41.0 L 89.0 42.0 L 88.0 43.0 L 87.0 43.666666666666664 L 86.0 44.0 L 85.0 44.333333333333336 L 84.0 44.666666666666664 L 83.0 44.666666666666664 L 82.0 44.333333333333336 L 81.0 44.0 L 80.33333333333333 44.333333333333336 L 80.0 45.0 L 80.33333333333333 46.0 L 81.0 47.0 L 82.0 48.0 L 83.0 49.0 L 84.0 50.0 L 85.0 50.666666666666664 L 86.0 51.333333333333336 L 87.0 51.666666666666664 L 88.0 52.333333333333336 L 89.0 52.666666666666664 L 90.0 53.333333333333336 L 91.0 53.666666666666664 L 92.0 54.333333333333336 L 93.0 54.666666666666664 L 94.0 55.0 L 95.0 55.333333333333336 L 96.0 55.666666666666664 L 97.0 56.0 L 98.0 56.333333333333336 L 99.0 56.666666666666664 L 100.0 57.0 L 101.0 57.0 L 102.0 57.333333333333336 L 103.0 57.666666666666664 L 104.0 58.0 L 104.5 58.0 Z" stroke="none" fill="rgb(255,214,0)" />
<path d="M 31.5 35.0 L 32.0 34.666666666666664 L 32.666666666666664 34.0 L 33.0 33.0 L 32.666666666666664 32.0 L 32.0 31.333333333333332 L 31.0 31.0 L 30.0 31.0 L 29.0 31.333333333333332 L 28.333333333333332 32.0 L 28.0 33.0 L 28.333333333333332 34.0 L 29.0 34.666666666666664 L 30.0 35.0 L 30.5 35.0 Z" stroke="none" fill="rgb(255,214,0)" />
<path d="M 88.5 43.5 L 89.0 43.0 L 89.66666666666667 42.0 L 90.0 41.0 L 90.0 40.0 L 90.33333333333333 39.0 L 90.66666666666667 38.0 L 91.0 37.0 L 90.66666666666667 36.0 L 90.0 35.0 L 89.0 34.0 L 88.33333333333333 33.0 L 87.66666666666667 32.333333333333336 L 87.0 32.0 L 86.0 32.333333333333336 L 85.0 32.666666666666664 L 84.0 33.333333333333336 L 83.0 34.0 L 82.33333333333333 35.0 L 82.0 36.0 L 81.66666666666667 37.0 L 81.33333333333333 38.0 L 81.0 39.0 L 81.0 40.0 L 81.0 41.0 L 81.0 42.0 L 81.0 43.0 L 81.33333333333333 44.0 L 82.0 44.666666666666664 L 83.0 45.0 L 84.0 45.0 L 85.0 44.666666666666664 L 86.0 44.333333333333336 L 87.0 44.0 L 87.5 44.0 Z" stroke="none" fill="rgb(244,81,30)" />
<path d="M 10.5 41.5 L 10.666666666666666 42.0 L 11.333333333333334 43.0 L 12.0 44.0 L 13.0 45.0 L 14.0 45.666666666666664 L 15.0 46.0 L 16.0 45.666666666666664 L 16.666666666666668 45.0 L 17.0 44.0 L 17.333333333333332 43.0 L 18.0 42.0 L 18.666666666666668 41.0 L 19.0 40.0 L 19.0 39.0 L 18.666666666666668 38.0 L 18.0 37.0 L 17.333333333333332 36.0 L 17.0 35.0 L 16.666666666666668 34.0 L 16.0 33.333333333333336 L 15.0 33.0 L 14.0 33.0 L 13.0 33.0 L 12.0 33.0 L 11.0 33.0 L 10.0 33.333333333333336 L 9.333333333333334 34.0 L 9.0 35.0 L 9.0 36.0 L 9.0 37.0 L 9.0 38.0 L 9.333333333333334 39.0 L 9.666666666666666 40.0 L 10.0 40.5 Z" stroke="none" fill="rgb(244,81,30)" />
<path d="M 23.5 55.0 L 24.0 54.666666666666664 L 25.0 54.333333333333336 L 26.0 54.0 L 27.0 54.0 L 28.0 54.0 L 29.0 54.0 L 30.0 53.666666666666664 L 31.0 53.333333333333336 L 32.0 53.0 L 33.0 52.666666666666664 L 34.0 52.333333333333336 L 35.0 52.0 L 36.0 51.666666666666664 L 37.0 51.333333333333336 L 38.0 50.666666666666664 L 39.0 50.333333333333336 L 40.0 49.666666666666664 L 41.0 49.333333333333336 L 42.0 48.666666666666664 L 43.0 48.333333333333336 L 44.0 47.666666666666664 L 45.0 47.333333333333336 L 46.0 46.666666666666664 L 47.0 46.0 L 48.0 45.0 L 49.0 44.333333333333336 L 50.0 43.666666666666664 L 51.0 43.333333333333336 L 51.666666666666664 42.666666666666664 L 52.0 42.0 L 52.0 41.0 L 52.0 40.0 L 52.0 39.0 L 52.0 38.0 L 52.0 37.0 L 52.0 36.0 L 52.0 35.0 L 52.0 34.0 L 51.666666666666664 33.333333333333336 L 51.0 33.0 L 50.0 33.333333333333336 L 49.0 34.0 L 48.0 35.0 L 47.0 36.0 L 46.0 37.0 L 45.0 37.666666666666664 L 44.0 38.333333333333336 L 43.0 39.0 L 42.0 39.666666666666664 L 41.0 40.333333333333336 L 40.0 41.0 L 39.0 41.666666666666664 L 38.0 42.333333333333336 L 37.0 42.666666666666664 L 36.0 43.333333333333336 L 35.0 43.666666666666664 L 34.0 44.0 L 33.0 44.333333333333336 L 32.0 44.666666666666664 L 31.0 45.333333333333336 L 30.0 45.666666666666664 L 29.0 46.0 L 28.0 46.333333333333336 L 27.0 46.666666666666664 L 26.0 47.0 L 25.0 47.0 L 24.0 47.0 L 23.0 47.333333333333336 L 22.0 47.666666666666664 L 21.0 48.0 L 20.0 48.0 L 19.0 48.0 L 18.0 48.0 L 17.0 48.0 L 16.333333333333332 48.333333333333336 L 16.0 49.0 L 16.333333333333332 50.0 L 17.0 50.666666666666664 L 18.0 51.333333333333336 L 19.0 52.0 L 20.0 53.0 L 21.0 54.0 L 22.0 54.666666666666664 L 22.5 55.0 Z" stroke="none" fill="rgb(124,179,66)" />
<path d="M 85.5 39.5 L 85.66666666666667 39.0 L 86.0 38.0 L 86.0 37.0 L 85.66666666666667 36.333333333333336 L 85.0 36.0 L 84.33333333333333 36.333333333333336 L 83.66666666666667 37.0 L 83.33333333333333 38.0 L 83.0 39.0 L 83.33333333333333 39.666666666666664 L 84.0 40.0 L 84.5 40.0 Z" stroke="none" fill="rgb(255,214,0)" />
<path d="M 14.0 39.5 L 14.0 39.0 L 14.0 38.0 L 13.666666666666666 37.333333333333336 L 13.0 37.0 L 12.333333333333334 37.333333333333336 L 12.0 38.0 L 12.0 39.0 L 12.333333333333334 39.666666666666664 L 13.0 40.0 L 13.5 40.0 Z" stroke="none" fill="rgb(255,214,0)" />
<path d="M 105.5 51.5 L 106.0 51.0 L 106.66666666666667 50.0 L 107.0 49.0 L 107.0 48.0 L 107.33333333333333 47.0 L 107.66666666666667 46.0 L 108.0 45.0 L 108.0 44.0 L 107.66666666666667 43.0 L 107.0 42.0 L 106.0 41.0 L 105.0 40.0 L 104.0 39.333333333333336 L 103.0 39.0 L 102.0 39.333333333333336 L 101.0 39.666666666666664 L 100.0 40.0 L 99.0 40.0 L 98.0 40.0 L 97.0 40.333333333333336 L 96.33333333333333 41.0 L 96.0 42.0 L 96.0 43.0 L 95.66666666666667 44.0 L 95.33333333333333 45.0 L 95.0 46.0 L 95.0 47.0 L 95.33333333333333 48.0 L 96.0 49.0 L 96.66666666666667 50.0 L 97.33333333333333 51.0 L 98.0 51.666666666666664 L 99.0 52.0 L 100.0 52.0 L 101.0 52.0 L 102.0 52.0 L 103.0 52.0 L 104.0 52.0 L 104.5 52.0 Z" stroke="none" fill="rgb(244,81,30)" />
<path d="M 5.5 54.5 L 6.0 55.0 L 6.666666666666667 56.0 L 7.333333333333333 57.0 L 8.0 58.0 L 9.0 59.0 L 10.0 59.666666666666664 L 11.0 60.333333333333336 L 12.0 60.666666666666664 L 13.0 61.333333333333336 L 14.0 61.666666666666664 L 15.0 62.0 L 16.0 62.0 L 17.0 62.0 L 18.0 62.0 L 19.0 62.0 L 20.0 62.0 L 20.666666666666668 61.666666666666664 L 21.0 61.0 L 20.666666666666668 60.0 L 20.0 59.333333333333336 L 19.0 58.666666666666664 L 18.0 58.0 L 17.0 57.333333333333336 L 16.0 56.666666666666664 L 15.0 56.0 L 14.0 55.0 L 13.0 54.0 L 12.0 53.0 L 11.333333333333334 52.0 L 10.666666666666666 51.0 L 10.0 50.0 L 9.333333333333334 49.0 L 8.666666666666666 48.0 L 8.333333333333334 47.0 L 7.666666666666667 46.0 L 7.333333333333333 45.0 L 7.0 44.0 L 6.666666666666667 43.0 L 6.0 42.333333333333336 L 5.0 42.0 L 4.333333333333333 42.333333333333336 L 3.6666666666666665 43.0 L 3.3333333333333335 44.0 L 3.0 45.0 L 3.0 46.0 L 3.3333333333333335 47.0 L 3.6666666666666665 48.0 L 4.0 49.0 L 4.0 50.0 L 4.0 51.0 L 4.333333333333333 52.0 L 4.666666666666667 53.0 L 5.0 53.5 Z" stroke="none" fill="rgb(176,190,197)" />
<path d="M 40.5 54.0 L 41.0 54.0 L 42.0 53.666666666666664 L 43.0 53.333333333333336 L 44.0 52.666666666666664 L 45.0 52.0 L 46.0 51.333333333333336 L 47.0 50.666666666666664 L 48.0 50.333333333333336 L 49.0 49.666666666666664 L 50.0 49.333333333333336 L 50.666666666666664 48.666666666666664 L 51.333333333333336 48.0 L 51.666666666666664 47.0 L 52.0 46.0 L 52.0 45.0 L 52.0 44.0 L 51.666666666666664 43.333333333333336 L 51.0 43.0 L 50.0 43.333333333333336 L 49.0 43.666666666666664 L 48.0 44.333333333333336 L 47.0 45.0 L 46.0 46.0 L 45.0 46.666666666666664 L 44.0 47.333333333333336 L 43.0 47.666666666666664 L 42.0 48.333333333333336 L 41.0 48.666666666666664 L 40.0 49.333333333333336 L 39.0 49.666666666666664 L 38.0 50.333333333333336 L 37.0 50.666666666666664 L 36.0 51.333333333333336 L 35.0 51.666666666666664 L 34.0 52.0 L 33.0 52.333333333333336 L 32.0 52.666666666666664 L 31.0 53.0 L 30.0 53.333333333333336 L 29.0 53.666666666666664 L 28.0 54.0 L 27.0 54.0 L 26.0 54.0 L 25.0 54.0 L 24.333333333333332 54.333333333333336 L 24.0 55.0 L 24.333333333333332 56.0 L 25.0 57.0 L 26.0 57.666666666666664 L 27.0 58.333333333333336 L 28.0 58.666666666666664 L 29.0 58.666666666666664 L 30.0 58.333333333333336 L 31.0 57.666666666666664 L 32.0 57.333333333333336 L 33.0 57.0 L 34.0 56.666666666666664 L 35.0 56.333333333333336 L 36.0 56.0 L 37.0 55.666666666666664 L 38.0 55.333333333333336 L 39.0 54.666666666666664 L 39.5 54.5 Z" stroke="none" fill="rgb(255,214,0)" />
<path d="M 121.0 54.5 L 121.33333333333333 54.0 L 121.66666666666667 53.0 L 122.33333333333333 52.0 L 122.66666666666667 51.0 L 123.0 50.0 L 123.0 49.0 L 123.33333333333333 48.0 L 123.66666666666667 47.0 L 124.0 46.0 L 123.66666666666667 45.0 L 123.0 44.0 L 122.0 43.333333333333336 L 121.0 43.0 L 120.0 43.333333333333336 L 119.0 43.666666666666664 L 118.0 44.0 L 117.0 44.0 L 116.0 44.333333333333336 L 115.33333333333333 45.0 L 115.0 46.0 L 115.0 47.0 L 114.66666666666667 48.0 L 114.33333333333333 49.0 L 114.0 50.0 L 114.0 51.0 L 114.33333333333333 52.0 L 115.0 53.0 L 115.66666666666667 54.0 L 116.33333333333333 55.0 L 117.0 55.666666666666664 L 118.0 56.0 L 119.0 55.666666666666664 L 120.0 55.333333333333336 L 120.5 55.0 Z" stroke="none" fill="rgb(244,81,30)" />
<path d="M 100.5 48.0 L 101.0 48.0 L 102.0 48.0 L 103.0 47.666666666666664 L 103.66666666666667 47.0 L 104.0 46.0 L 103.66666666666667 45.0 L 103.0 44.333333333333336 L 102.0 44.0 L 101.0 44.0 L 100.0 44.0 L 99.33333333333333 44.333333333333336 L 99.0 45.0 L 99.0 46.0 L 99.33333333333333 47.0 L 99.5 47.5 Z" stroke="none" fill="rgb(255,214,0)" />
<path d="M 120.5 51.0 L 120.66666666666667 50.666666666666664 L 121.0 50.0 L 121.0 49.0 L 121.0 48.0 L 120.66666666666667 47.333333333333336 L 120.0 47.0 L 119.33333333333333 47.333333333333336 L 118.66666666666667 48.0 L 118.33333333333333 49.0 L 118.33333333333333 50.0 L 119.0 50.666666666666664 L 119.5 51.0 Z" stroke="none" fill="rgb(255,214,0)" />
<path d="M 107.5 65.0 L 108.0 65.0 L 109.0 65.0 L 110.0 65.33333333333333 L 111.0 65.66666666666667 L 112.0 66.0 L 113.0 65.66666666666667 L 114.0 65.0 L 115.0 64.0 L 116.0 63.0 L 117.0 62.0 L 117.66666666666667 61.0 L 118.0 60.0 L 117.66666666666667 59.0 L 117.0 58.333333333333336 L 116.0 58.0 L 115.0 58.0 L 114.0 58.0 L 113.0 58.0 L 112.0 58.0 L 111.0 58.0 L 110.0 58.0 L 109.0 58.0 L 108.0 58.0 L 107.0 58.0 L 106.0 58.0 L 105.0 58.0 L 104.0 57.666666666666664 L 103.0 57.333333333333336 L 102.0 57.0 L 101.0 57.0 L 100.0 56.666666666666664 L 99.0 56.333333333333336 L 98.0 56.0 L 97.0 55.666666666666664 L 96.0 55.333333333333336 L 95.0 55.0 L 94.0 54.666666666666664 L 93.0 54.333333333333336 L 92.0 53.666666666666664 L 91.0 53.333333333333336 L 90.0 52.666666666666664 L 89.0 52.333333333333336 L 88.0 51.666666666666664 L 87.0 51.333333333333336 L 86.0 50.666666666666664 L 85.0 50.0 L 84.0 49.0 L 83.0 48.333333333333336 L 82.0 48.0 L 81.0 48.0 L 80.33333333333333 48.333333333333336 L 80.0 49.0 L 80.0 50.0 L 80.0 51.0 L 80.33333333333333 52.0 L 80.66666666666667 53.0 L 81.0 54.0 L 81.0 55.0 L 81.33333333333333 56.0 L 82.0 57.0 L 83.0 57.666666666666664 L 84.0 58.333333333333336 L 85.0 59.0 L 86.0 59.666666666666664 L 87.0 60.0 L 88.0 60.333333333333336 L 89.0 60.666666666666664 L 90.0 61.333333333333336 L 91.0 61.666666666666664 L 92.0 62.333333333333336 L 93.0 62.666666666666664 L 94.0 63.0 L 95.0 63.333333333333336 L 96.0 63.666666666666664 L 97.0 64.0 L 98.0 64.0 L 99.0 64.33333333333333 L 100.0 64.66666666666667 L 101.0 65.0 L 102.0 65.0 L 103.0 65.0 L 104.0 65.0 L 105.0 65.0 L 106.0 65.0 L 106.5 65.0 Z" stroke="none" fill="rgb(124,179,66)" />
<path d="M 49.5 58.0 L 49.666666666666664 57.666666666666664 L 50.0 57.0 L 50.0 56.0 L 50.0 55.0 L 50.0 54.0 L 50.333333333333336 53.0 L 50.666666666666664 52.0 L 51.0 51.0 L 51.0 50.0 L 50.666666666666664 49.333333333333336 L 50.0 49.0 L 49.0 49.333333333333336 L 48.0 49.666666666666664 L 47.0 50.333333333333336 L 46.0 50.666666666666664 L 45.0 51.333333333333336 L 44.0 52.0 L 43.0 52.666666666666664 L 42.0 53.333333333333336 L 41.0 53.666666666666664 L 40.0 54.0 L 39.0 54.333333333333336 L 38.0 54.666666666666664 L 37.0 55.333333333333336 L 36.0 55.666666666666664 L 35.0 56.0 L 34.0 56.333333333333336 L 33.0 56.666666666666664 L 32.0 57.0 L 31.0 57.333333333333336 L 30.0 57.666666666666664 L 29.333333333333332 58.333333333333336 L 29.0 59.0 L 29.333333333333332 59.666666666666664 L 30.0 60.333333333333336 L 31.0 60.666666666666664 L 32.0 61.333333333333336 L 33.0 62.0 L 34.0 62.666666666666664 L 35.0 63.333333333333336 L 36.0 63.666666666666664 L 37.0 63.666666666666664 L 38.0 63.0 L 39.0 62.333333333333336 L 40.0 62.0 L 41.0 62.0 L 42.0 61.666666666666664 L 43.0 61.333333333333336 L 44.0 60.666666666666664 L 45.0 60.333333333333336 L 46.0 59.666666666666664 L 47.0 59.0 L 48.0 58.333333333333336 L 48.5 58.0 Z" stroke="none" fill="rgb(124,179,66)" />
<path d="M 39.5 68.5 L 40.0 69.0 L 41.0 69.66666666666667 L 42.0 70.0 L 43.0 69.66666666666667 L 44.0 69.33333333333333 L 45.0 69.0 L 46.0 68.66666666666667 L 47.0 68.33333333333333 L 48.0 67.66666666666667 L 49.0 67.33333333333333 L 50.0 66.66666666666667 L 50.666666666666664 66.0 L 51.0 65.0 L 51.0 64.0 L 50.666666666666664 63.0 L 50.333333333333336 62.0 L 50.0 61.0 L 50.0 60.0 L 50.0 59.0 L 49.666666666666664 58.333333333333336 L 49.0 58.0 L 48.0 58.0 L 47.0 58.333333333333336 L 46.0 59.0 L 45.0 59.666666666666664 L 44.0 60.333333333333336 L 43.0 60.666666666666664 L 42.0 61.333333333333336 L 41.0 61.666666666666664 L 40.0 62.0 L 39.0 62.0 L 38.0 62.333333333333336 L 37.333333333333336 63.0 L 37.0 64.0 L 37.333333333333336 65.0 L 37.666666666666664 66.0 L 38.333333333333336 67.0 L 38.5 67.5 Z" stroke="none" fill="rgb(120,77,48)" />
<path d="M 103.5 69.0 L 104.0 69.0 L 105.0 69.33333333333333 L 106.0 69.66666666666667 L 107.0 70.0 L 108.0 70.0 L 109.0 69.66666666666667 L 110.0 69.0 L 111.0 68.0 L 111.66666666666667 67.0 L 111.66666666666667 66.0 L 111.0 65.33333333333333 L 110.0 65.0 L 109.0 65.0 L 108.0 65.0 L 107.0 65.0 L 106.0 65.0 L 105.0 65.0 L 104.0 65.0 L 103.0 65.0 L 102.0 65.0 L 101.0 64.66666666666667 L 100.0 64.33333333333333 L 99.0 64.0 L 98.0 64.0 L 97.0 63.666666666666664 L 96.0 63.333333333333336 L 95.0 63.0 L 94.0 62.666666666666664 L 93.0 62.333333333333336 L 92.0 61.666666666666664 L 91.0 61.333333333333336 L 90.0 60.666666666666664 L 89.0 60.333333333333336 L 88.0 60.0 L 87.0 59.666666666666664 L 86.0 59.0 L 85.0 58.333333333333336 L 84.0 58.0 L 83.0 58.333333333333336 L 82.33333333333333 59.0 L 82.0 60.0 L 82.0 61.0 L 82.33333333333333 62.0 L 83.0 63.0 L 84.0 63.666666666666664 L 85.0 64.0 L 86.0 64.33333333333333 L 87.0 64.66666666666667 L 88.0 65.0 L 89.0 65.33333333333333 L 90.0 65.66666666666667 L 91.0 66.33333333333333 L 92.0 66.66666666666667 L 93.0 67.0 L 94.0 67.33333333333333 L 95.0 67.66666666666667 L 96.0 68.0 L 97.0 68.0 L 98.0 68.33333333333333 L 99.0 68.66666666666667 L 100.0 69.0 L 101.0 69.0 L 102.0 69.0 L 102.5 69.0 Z" stroke="none" fill="rgb(255,214,0)" />
<path d="M 123.0 67.5 L 123.0 67.0 L 123.0 66.0 L 123.0 65.0 L 123.0 64.0 L 122.66666666666667 63.333333333333336 L 122.0 63.0 L 121.0 63.333333333333336 L 120.33333333333333 64.0 L 119.66666666666667 65.0 L 119.0 66.0 L 118.0 67.0 L 117.0 68.0 L 116.0 69.0 L 115.0 70.0 L 114.0 71.0 L 113.0 71.66666666666667 L 112.0 72.33333333333333 L 111.0 72.66666666666667 L 110.0 73.33333333333333 L 109.0 73.66666666666667 L 108.0 74.33333333333333 L 107.0 74.66666666666667 L 106.0 75.0 L 105.33333333333333 75.33333333333333 L 105.0 76.0 L 105.0 77.0 L 105.33333333333333 77.66666666666667 L 106.0 78.0 L 107.0 78.0 L 108.0 78.0 L 109.0 78.0 L 110.0 78.0 L 111.0 78.0 L 112.0 78.0 L 113.0 77.66666666666667 L 114.0 77.33333333333333 L 115.0 77.0 L 116.0 76.66666666666667 L 117.0 76.0 L 118.0 75.33333333333333 L 119.0 74.66666666666667 L 120.0 74.0 L 120.66666666666667 73.0 L 121.33333333333333 72.0 L 121.66666666666667 71.0 L 122.0 70.0 L 122.33333333333333 69.0 L 122.5 68.5 Z" stroke="none" fill="rgb(176,190,197)" />
<path d="M 91.5 74.0 L 92.0 74.33333333333333 L 93.0 74.66666666666667 L 94.0 75.0 L 95.0 75.0 L 96.0 75.0 L 97.0 75.0 L 98.0 75.33333333333333 L 99.0 75.66666666666667 L 100.0 76.0 L 101.0 75.66666666666667 L 102.0 75.0 L 103.0 74.0 L 104.0 73.33333333333333 L 105.0 72.66666666666667 L 106.0 72.0 L 106.66666666666667 71.0 L 106.66666666666667 70.0 L 106.0 69.33333333333333 L 105.0 69.0 L 104.0 69.0 L 103.0 69.0 L 102.0 69.0 L 101.0 69.0 L 100.0 68.66666666666667 L 99.0 68.33333333333333 L 98.0 68.0 L 97.0 68.0 L 96.0 67.66666666666667 L 95.0 67.33333333333333 L 94.0 67.0 L 93.0 66.66666666666667 L 92.0 66.33333333333333 L 91.0 65.66666666666667 L 90.0 65.33333333333333 L 89.0 65.0 L 88.0 64.66666666666667 L 87.0 64.33333333333333 L 86.0 64.0 L 85.0 64.0 L 84.0 64.0 L 83.33333333333333 64.33333333333333 L 83.0 65.0 L 83.33333333333333 66.0 L 83.66666666666667 67.0 L 84.0 68.0 L 84.0 69.0 L 84.33333333333333 70.0 L 85.0 71.0 L 86.0 72.0 L 87.0 72.66666666666667 L 88.0 73.0 L 89.0 73.33333333333333 L 90.0 73.66666666666667 L 90.5 74.0 Z" stroke="none" fill="rgb(124,179,66)" />
<path d="M 59.5 109.0 L 60.0 109.0 L 61.0 109.0 L 62.0 109.0 L 63.0 108.66666666666667 L 64.0 108.33333333333333 L 65.0 108.0 L 66.0 107.66666666666667 L 67.0 107.0 L 68.0 106.0 L 68.66666666666667 105.0 L 69.33333333333333 104.0 L 69.66666666666667 103.0 L 70.0 102.0 L 70.0 101.0 L 70.0 100.0 L 70.0 99.0 L 70.0 98.0 L 70.0 97.0 L 70.0 96.0 L 69.66666666666667 95.0 L 69.33333333333333 94.0 L 68.66666666666667 93.0 L 68.33333333333333 92.0 L 67.66666666666667 91.0 L 67.33333333333333 90.0 L 66.66666666666667 89.0 L 66.0 88.0 L 65.33333333333333 87.0 L 64.66666666666667 86.0 L 64.0 85.0 L 63.333333333333336 84.0 L 62.666666666666664 83.0 L 62.0 82.0 L 61.333333333333336 81.0 L 60.666666666666664 80.0 L 60.0 79.0 L 59.333333333333336 78.0 L 58.666666666666664 77.0 L 58.0 76.0 L 57.0 75.0 L 56.333333333333336 74.0 L 55.666666666666664 73.0 L 55.0 72.0 L 54.333333333333336 71.0 L 53.666666666666664 70.0 L 53.333333333333336 69.0 L 52.666666666666664 68.0 L 52.333333333333336 67.0 L 51.666666666666664 66.33333333333333 L 51.0 66.0 L 50.0 66.33333333333333 L 49.0 66.66666666666667 L 48.0 67.33333333333333 L 47.0 67.66666666666667 L 46.0 68.33333333333333 L 45.0 68.66666666666667 L 44.0 69.0 L 43.0 69.33333333333333 L 42.0 69.66666666666667 L 41.333333333333336 70.33333333333333 L 41.0 71.0 L 41.333333333333336 72.0 L 41.666666666666664 73.0 L 42.333333333333336 74.0 L 42.666666666666664 75.0 L 43.0 76.0 L 43.333333333333336 77.0 L 43.666666666666664 78.0 L 44.0 79.0 L 44.333333333333336 80.0 L 44.666666666666664 81.0 L 45.0 82.0 L 45.333333333333336 83.0 L 45.666666666666664 84.0 L 46.0 85.0 L 46.0 86.0 L 46.0 87.0 L 46.333333333333336 88.0 L 46.666666666666664 89.0 L 47.0 90.0 L 47.0 91.0 L 47.333333333333336 92.0 L 47.666666666666664 93.0 L 48.0 94.0 L 48.0 95.0 L 48.333333333333336 96.0 L 48.666666666666664 97.0 L 49.0 98.0 L 49.333333333333336 99.0 L 49.666666666666664 100.0 L 50.0 101.0 L 50.333333333333336 102.0 L 50.666666666666664 103.0 L 51.333333333333336 104.0 L 52.0 105.0 L 53.0 106.0 L 54.0 107.0 L 55.0 107.66666666666667 L 56.0 108.33333333333333 L 57.0 108.66666666666667 L 58.0 109.0 L 58.5 109.0 Z" stroke="none" fill="rgb(230,164,103)" />
<path d="M 88.5 82.0 L 89.0 82.0 L 90.0 82.33333333333333 L 91.0 82.66666666666667 L 92.0 83.0 L 93.0 83.33333333333333 L 94.0 83.66666666666667 L 95.0 83.66666666666667 L 95.66666666666667 83.0 L 96.33333333333333 82.0 L 96.66666666666667 81.0 L 97.33333333333333 80.0 L 98.0 79.0 L 99.0 78.0 L 99.66666666666667 77.0 L 99.66666666666667 76.0 L 99.0 75.33333333333333 L 98.0 75.0 L 97.0 75.0 L 96.0 75.0 L 95.0 75.0 L 94.0 74.66666666666667 L 93.0 74.33333333333333 L 92.0 74.0 L 91.0 73.66666666666667 L 90.0 73.33333333333333 L 89.0 73.0 L 88.0 72.66666666666667 L 87.0 72.33333333333333 L 86.0 72.0 L 85.33333333333333 72.33333333333333 L 85.0 73.0 L 85.0 74.0 L 85.0 75.0 L 85.0 76.0 L 85.0 77.0 L 85.0 78.0 L 85.0 79.0 L 85.0 80.0 L 85.33333333333333 80.66666666666667 L 86.0 81.0 L 87.0 81.33333333333333 L 87.5 81.5 Z" stroke="none" fill="rgb(120,77,48)" />
<path d="M 81.5 124.0 L 82.0 124.0 L 83.0 124.0 L 84.0 123.66666666666667 L 85.0 123.33333333333333 L 86.0 122.66666666666667 L 87.0 122.0 L 87.66666666666667 121.0 L 88.33333333333333 120.0 L 88.66666666666667 119.0 L 89.0 118.0 L 89.33333333333333 117.0 L 89.66666666666667 116.0 L 90.0 115.0 L 90.0 114.0 L 90.33333333333333 113.0 L 90.66666666666667 112.0 L 91.0 111.0 L 91.0 110.0 L 91.0 109.0 L 91.0 108.0 L 91.0 107.0 L 91.33333333333333 106.0 L 91.66666666666667 105.0 L 92.0 104.0 L 92.0 103.0 L 92.0 102.0 L 92.0 101.0 L 92.0 100.0 L 92.0 99.0 L 92.33333333333333 98.0 L 92.66666666666667 97.0 L 93.0 96.0 L 93.0 95.0 L 93.0 94.0 L 93.0 93.0 L 93.0 92.0 L 93.33333333333333 91.0 L 93.66666666666667 90.0 L 94.0 89.0 L 94.0 88.0 L 94.33333333333333 87.0 L 94.66666666666667 86.0 L 95.0 85.0 L 94.66666666666667 84.0 L 94.0 83.33333333333333 L 93.0 83.0 L 92.0 82.66666666666667 L 91.0 82.33333333333333 L 90.0 82.0 L 89.0 81.66666666666667 L 88.0 81.33333333333333 L 87.0 81.0 L 86.0 81.0 L 85.0 81.0 L 84.33333333333333 81.33333333333333 L 83.66666666666667 82.0 L 83.33333333333333 83.0 L 83.0 84.0 L 82.66666666666667 85.0 L 82.33333333333333 86.0 L 81.66666666666667 87.0 L 81.33333333333333 88.0 L 80.66666666666667 89.0 L 80.33333333333333 90.0 L 79.66666666666667 91.0 L 79.33333333333333 92.0 L 78.66666666666667 93.0 L 78.33333333333333 94.0 L 77.66666666666667 95.0 L 77.0 96.0 L 76.33333333333333 97.0 L 75.66666666666667 98.0 L 75.33333333333333 99.0 L 74.66666666666667 100.0 L 74.33333333333333 101.0 L 73.66666666666667 102.0 L 73.33333333333333 103.0 L 72.66666666666667 104.0 L 72.33333333333333 105.0 L 71.66666666666667 106.0 L 71.33333333333333 107.0 L 71.0 108.0 L 70.66666666666667 109.0 L 70.33333333333333 110.0 L 70.0 111.0 L 70.0 112.0 L 70.0 113.0 L 70.0 114.0 L 70.0 115.0 L 70.0 116.0 L 70.0 117.0 L 70.0 118.0 L 70.33333333333333 119.0 L 70.66666666666667 120.0 L 71.33333333333333 121.0 L 72.0 122.0 L 73.0 122.66666666666667 L 74.0 123.33333333333333 L 75.0 123.66666666666667 L 76.0 124.0 L 77.0 124.0 L 78.0 124.0 L 79.0 124.0 L 80.0 124.0 L 80.5 124.0 Z" stroke="none" fill="rgb(230,164,103)" />
<path d="M 58.5 102.5 L 58.666666666666664 102.0 L 59.0 101.0 L 59.0 100.0 L 58.666666666666664 99.0 L 58.333333333333336 98.0 L 58.0 97.0 L 57.666666666666664 96.0 L 57.333333333333336 95.0 L 56.666666666666664 94.0 L 56.0 93.0 L 55.0 92.0 L 54.0 91.33333333333333 L 53.0 91.0 L 52.333333333333336 91.33333333333333 L 52.0 92.0 L 52.0 93.0 L 52.0 94.0 L 52.0 95.0 L 52.0 96.0 L 52.0 97.0 L 52.0 98.0 L 52.333333333333336 99.0 L 52.666666666666664 100.0 L 53.333333333333336 101.0 L 54.0 102.0 L 55.0 102.66666666666667 L 56.0 103.0 L 57.0 103.0 L 57.5 103.0 Z" stroke="none" fill="rgb(255,204,128)" />
<path d="M 75.5 113.0 L 76.0 113.0 L 77.0 112.66666666666667 L 78.0 112.0 L 78.66666666666667 111.0 L 79.0 110.0 L 79.0 109.0 L 79.0 108.0 L 79.0 107.0 L 79.0 106.0 L 78.66666666666667 105.33333333333333 L 78.0 105.0 L 77.0 105.0 L 76.0 105.0 L 75.0 105.33333333333333 L 74.33333333333333 106.0 L 74.0 107.0 L 73.66666666666667 108.0 L 73.33333333333333 109.0 L 73.0 110.0 L 73.0 111.0 L 73.33333333333333 112.0 L 74.0 112.66666666666667 L 74.5 113.0 Z" stroke="none" fill="rgb(255,204,128)" />
</svg>
