<?xml version="1.0" encoding="UTF-8" standalone="no"?>
<!DOCTYPE svg PUBLIC "-//W3C//DTD SVG 1.1//EN"
"http://www.w3.org/Graphics/SVG/1.1/DTD/svg11.dtd">
<svg width="128" height="128" xmlns="http://www.w3.org/2000/svg" version="1.1">
<path d="M 26.5 128.0 L 27.0 128.0 L 28.0 128.0 L 29.0 128.0 L 30.0 128.0 L 31.0 128.0 L 32.0 128.0 L 33.0 128.0 L 34.0 128.0 L 35.0 128.0 L 36.0 128.0 L 37.0 128.0 L 38.0 128.0 L 39.0 128.0 L 40.0 128.0 L 41.0 128.0 L 42.0 128.0 L 43.0 128.0 L 44.0 128.0 L 45.0 128.0 L 46.0 128.0 L 47.0 128.0 L 48.0 128.0 L 49.0 128.0 L 50.0 128.0 L 51.0 128.0 L 52.0 128.0 L 53.0 128.0 L 54.0 128.0 L 55.0 128.0 L 56.0 128.0 L 57.0 128.0 L 58.0 128.0 L 59.0 128.0 L 60.0 128.0 L 61.0 128.0 L 62.0 128.0 L 63.0 128.0 L 64.0 128.0 L 65.0 128.0 L 66.0 128.0 L 67.0 128.0 L 68.0 128.0 L 69.0 128.0 L 70.0 128.0 L 71.0 128.0 L 72.0 128.0 L 73.0 128.0 L 74.0 128.0 L 75.0 128.0 L 76.0 128.0 L 77.0 128.0 L 78.0 128.0 L 79.0 128.0 L 80.0 128.0 L 81.0 128.0 L 82.0 128.0 L 83.0 128.0 L 84.0 128.0 L 85.0 128.0 L 86.0 128.0 L 87.0 128.0 L 88.0 128.0 L 89.0 128.0 L 90.0 128.0 L 91.0 128.0 L 92.0 128.0 L 93.0 128.0 L 94.0 128.0 L 95.0 128.0 L 96.0 128.0 L 97.0 128.0 L 98.0 128.0 L 99.0 128.0 L 100.0 128.0 L 101.0 128.0 L 102.0 128.0 L 103.0 128.0 L 104.0 128.0 L 105.0 128.0 L 106.0 128.0 L 107.0 128.0 L 108.0 128.0 L 109.0 128.0 L 110.0 128.0 L 111.0 128.0 L 112.0 128.0 L 113.0 128.0 L 114.0 128.0 L 115.0 128.0 L 116.0 128.0 L 117.0 128.0 L 118.0 128.0 L 119.0 128.0 L 120.0 128.0 L 121.0 128.0 L 122.0 128.0 L 123.0 128.0 L 124.0 128.0 L 125.0 128.0 L 126.0 128.0 L 127.0 128.0 L 127.66666666666667 127.66666666666667 L 128.0 127.0 L 128.0 126.0 L 128.0 125.0 L 128.0 124.0 L 128.0 123.0 L 128.0 122.0 L 128.0 121.0 L 128.0 120.0 L 128.0 119.0 L 128.0 118.0 L 128.0 117.0 L 128.0 116.0 L 128.0 115.0 L 128.0 114.0 L 128.0 113.0 L 128.0 112.0 L 128.0 111.0 L 128.0 110.0 L 128.0 109.0 L 128.0 108.0 L 128.0 107.0 L 128.0 106.0 L 128.0 105.0 L 128.0 104.0 L 128.0 103.0 L 128.0 102.0 L 128.0 101.0 L 128.0 100.0 L 128.0 99.0 L 128.0 98.0 L 128.0 97.0 L 128.0 96.0 L 128.0 95.0 L 128.0 94.0 L 128.0 93.0 L 128.0 92.0 L 128.0 91.0 L 128.0 90.0 L 128.0 89.0 L 128.0 88.0 L 128.0 87.0 L 128.0 86.0 L 128.0 85.0 L 128.0 84.0 L 128.0 83.0 L 128.0 82.0 L 128.0 81.0 L 128.0 80.0 L 128.0 79.0 L 128.0 78.0 L 128.0 77.0 L 128.0 76.0 L 128.0 75.0 L 128.0 74.0 L 128.0 73.0 L 128.0 72.0 L 128.0 71.0 L 128.0 70.0 L 128.0 69.0 L 128.0 68.0 L 128.0 67.0 L 128.0 66.0 L 128.0 65.0 L 128.0 64.0 L 128.0 63.0 L 128.0 62.0 L 128.0 61.0 L 128.0 60.0 L 128.0 59.0 L 128.0 58.0 L 128.0 57.0 L 128.0 56.0 L 128.0 55.0 L 128.0 54.0 L 128.0 53.0 L 128.0 52.0 L 128.0 51.0 L 128.0 50.0 L 128.0 49.0 L 128.0 48.0 L 128.0 47.0 L 128.0 46.0 L 128.0 45.0 L 128.0 44.0 L 128.0 43.0 L 128.0 42.0 L 128.0 41.0 L 128.0 40.0 L 128.0 39.0 L 128.0 38.0 L 128.0 37.0 L 128.0 36.0 L 128.0 35.0 L 128.0 34.0 L 128.0 33.0 L 128.0 32.0 L 128.0 31.0 L 128.0 30.0 L 128.0 29.0 L 128.0 28.0 L 128.0 27.0 L 128.0 26.0 L 128.0 25.0 L 128.0 24.0 L 128.0 23.0 L 128.0 22.0 L 128.0 21.0 L 128.0 20.0 L 128.0 19.0 L 128.0 18.0 L 128.0 17.0 L 128.0 16.0 L 128.0 15.0 L 128.0 14.0 L 128.0 13.0 L 128.0 12.0 L 128.0 11.0 L 128.0 10.0 L 128.0 9.0 L 128.0 8.0 L 128.0 7.0 L 128.0 6.0 L 128.0 5.0 L 128.0 4.0 L 128.0 3.0 L 128.0 2.0 L 128.0 1.0 L 127.66666666666667 0.3333333333333333 L 127.0 0.0 L 126.0 0.0 L 125.0 0.0 L 124.0 0.0 L 123.0 0.0 L 122.0 0.0 L 121.0 0.0 L 120.0 0.0 L 119.0 0.0 L 118.0 0.0 L 117.0 0.0 L 116.0 0.0 L 115.0 0.0 L 114.0 0.0 L 113.0 0.0 L 112.0 0.0 L 111.0 0.0 L 110.0 0.0 L 109.0 0.0 L 108.0 0.0 L 107.0 0.0 L 106.0 0.0 L 105.0 0.0 L 104.0 0.0 L 103.0 0.0 L 102.0 0.0 L 101.0 0.0 L 100.0 0.0 L 99.0 0.0 L 98.0 0.0 L 97.0 0.0 L 96.0 0.0 L 95.0 0.0 L 94.0 0.0 L 93.0 0.0 L 92.0 0.0 L 91.0 0.0 L 90.0 0.0 L 89.0 0.0 L 88.0 0.0 L 87.0 0.0 L 86.0 0.0 L 85.0 0.0 L 84.0 0.0 L 83.0 0.0 L 82.0 0.0 L 81.0 0.0 L 80.0 0.0 L 79.0 0.0 L 78.0 0.0 L 77.0 0.0 L 76.0 0.0 L 75.0 0.0 L 74.0 0.0 L 73.0 0.0 L 72.0 0.0 L 71.0 0.0 L 70.0 0.0 L 69.0 0.0 L 68.0 0.0 L 67.0 0.0 L 66.0 0.0 L 65.0 0.0 L 64.0 0.0 L 63.0 0.0 L 62.0 0.0 L 61.0 0.0 L 60.0 0.0 L 59.0 0.0 L 58.0 0.0 L 57.0 0.0 L 56.0 0.0 L 55.0 0.0 L 54.0 0.0 L 53.0 0.0 L 52.0 0.0 L 51.0 0.0 L 50.0 0.0 L 49.0 0.0 L 48.0 0.0 L 47.0 0.0 L 46.0 0.0 L 45.0 0.0 L 44.0 0.0 L 43.0 0.0 L 42.0 0.0 L 41.0 0.0 L 40.0 0.0 L 39.0 0.0 L 38.0 0.0 L 37.0 0.0 L 36.0 0.0 L 35.0 0.0 L 34.0 0.0 L 33.0 0.0 L 32.0 0.0 L 31.0 0.0 L 30.0 0.0 L 29.0 0.0 L 28.0 0.0 L 27.0 0.0 L 26.0 0.0 L 25.0 0.0 L 24.0 0.0 L 23.0 0.0 L 22.0 0.0 L 21.0 0.0 L 20.0 0.0 L 19.0 0.0 L 18.0 0.0 L 17.0 0.0 L 16.0 0.0 L 15.0 0.0 L 14.0 0.0 L 13.0 0.0 L 12.0 0.0 L 11.0 0.0 L 10.0 0.0 L 9.0 0.0 L 8.0 0.0 L 7.0 0.0 L 6.0 0.0 L 5.0 0.0 L 4.0 0.0 L 3.0 0.0 L 2.0 0.0 L 1.0 0.0 L 0.3333333333333333 0.3333333333333333 L 0.0 1.0 L 0.0 2.0 L 0.0 3.0 L 0.0 4.0 L 0.0 5.0 L 0.0 6.0 L 0.0 7.0 L 0.0 8.0 L 0.0 9.0 L 0.0 10.0 L 0.0 11.0 L 0.0 12.0 L 0.0 13.0 L 0.0 14.0 L 0.0 15.0 L 0.0 16.0 L 0.0 17.0 L 0.0 18.0 L 0.0 19.0 L 0.0 20.0 L 0.0 21.0 L 0.0 22.0 L 0.0 23.0 L 0.0 24.0 L 0.0 25.0 L 0.0 26.0 L 0.0 27.0 L 0.0 28.0 L 0.0 29.0 L 0.0 30.0 L 0.0 31.0 L 0.0 32.0 L 0.0 33.0 L 0.0 34.0 L 0.0 35.0 L 0.0 36.0 L 0.0 37.0 L 0.0 38.0 L 0.0 39.0 L 0.0 40.0 L 0.0 41.0 L 0.0 42.0 L 0.0 43.0 L 0.0 44.0 L 0.0 45.0 L 0.0 46.0 L 0.0 47.0 L 0.0 48.0 L 0.0 49.0 L 0.0 50.0 L 0.0 51.0 L 0.0 52.0 L 0.0 53.0 L 0.0 54.0 L 0.0 55.0 L 0.0 56.0 L 0.0 57.0 L 0.0 58.0 L 0.0 59.0 L 0.0 60.0 L 0.0 61.0 L 0.0 62.0 L 0.0 63.0 L 0.0 64.0 L 0.0 65.0 L 0.0 66.0 L 0.0 67.0 L 0.0 68.0 L 0.0 69.0 L 0.0 70.0 L 0.0 71.0 L 0.0 72.0 L 0.0 73.0 L 0.0 74.0 L 0.0 75.0 L 0.0 76.0 L 0.0 77.0 L 0.0 78.0 L 0.0 79.0 L 0.0 80.0 L 0.0 81.0 L 0.0 82.0 L 0.0 83.0 L 0.0 84.0 L 0.0 85.0 L 0.0 86.0 L 0.0 87.0 L 0.0 88.0 L 0.0 89.0 L 0.0 90.0 L 0.0 91.0 L 0.0 92.0 L 0.0 93.0 L 0.0 94.0 L 0.0 95.0 L 0.0 96.0 L 0.0 97.0 L 0.0 98.0 L 0.0 99.0 L 0.0 100.0 L 0.0 101.0 L 0.0 102.0 L 0.0 103.0 L 0.0 104.0 L 0.0 105.0 L 0.0 106.0 L 0.0 107.0 L 0.0 108.0 L 0.0 109.0 L 0.0 110.0 L 0.0 111.0 L 0.0 112.0 L 0.0 113.0 L 0.0 114.0 L 0.0 115.0 L 0.0 116.0 L 0.0 117.0 L 0.0 118.0 L 0.0 119.0 L 0.0 120.0 L 0.0 121.0 L 0.0 122.0 L 0.0 123.0 L 0.0 124.0 L 0.0 125.0 L 0.0 126.0 L 0.0 127.0 L 0.3333333333333333 127.66666666666667 L 1.0 128.0 L 2.0 128.0 L 3.0 128.0 L 4.0 128.0 L 5.0 128.0 L 6.0 128.0 L 7.0 128.0 L 8.0 128.0 L 9.0 128.0 L 10.0 128.0 L 11.0 128.0 L 12.0 128.0 L 13.0 128.0 L 14.0 128.0 L 15.0 128.0 L 16.0 128.0 L 17.0 128.0 L 18.0 128.0 L 19.0 128.0 L 20.0 128.0 L 21.0 128.0 L 22.0 128.0 L 23.0 128.0 L 24.0 128.0 L 25.0 128.0 L 25.5 128.0 Z" stroke="none" fill="rgb(0,0,0)" />
<path d="M 23.5 45.5 L 23.666666666666668 45.0 L 24.0 44.0 L 24.0 43.0 L 24.333333333333332 42.0 L 24.666666666666668 41.0 L 25.333333333333332 40.0 L 25.666666666666668 39.0 L 26.0 38.0 L 26.333333333333332 37.0 L 26.666666666666668 36.0 L 27.333333333333332 35.0 L 27.666666666666668 34.0 L 28.333333333333332 33.0 L 29.0 32.0 L 30.0 31.0 L 30.666666666666668 30.0 L 31.0 29.0 L 31.333333333333332 28.0 L 31.666666666666668 27.0 L 32.0 26.0 L 32.333333333333336 25.0 L 33.0 24.0 L 34.0 23.0 L 35.0 22.0 L 36.0 21.0 L 36.666666666666664 20.0 L 37.333333333333336 19.0 L 38.0 18.333333333333332 L 39.0 18.0 L 40.0 17.666666666666668 L 41.0 17.0 L 42.0 16.333333333333332 L 42.666666666666664 15.666666666666666 L 43.333333333333336 15.0 L 44.0 14.0 L 45.0 13.333333333333334 L 46.0 12.666666666666666 L 47.0 12.333333333333334 L 48.0 11.666666666666666 L 49.0 11.333333333333334 L 50.0 11.0 L 51.0 11.0 L 52.0 11.0 L 53.0 11.0 L 53.666666666666664 10.666666666666666 L 54.333333333333336 10.0 L 55.0 9.666666666666666 L 56.0 9.666666666666666 L 57.0 10.0 L 58.0 10.0 L 59.0 10.0 L 60.0 10.0 L 60.666666666666664 9.666666666666666 L 61.333333333333336 9.0 L 62.0 8.333333333333334 L 63.0 8.0 L 64.0 8.0 L 65.0 8.0 L 66.0 8.0 L 67.0 8.0 L 68.0 8.0 L 69.0 8.0 L 70.0 8.0 L 71.0 8.0 L 72.0 8.333333333333334 L 73.0 8.666666666666666 L 74.0 9.0 L 75.0 9.333333333333334 L 76.0 10.0 L 77.0 10.666666666666666 L 78.0 11.0 L 79.0 11.0 L 80.0 11.333333333333334 L 81.0 12.0 L 82.0 13.0 L 83.0 13.666666666666666 L 84.0 14.0 L 85.0 14.333333333333334 L 86.0 15.0 L 87.0 15.666666666666666 L 88.0 16.333333333333332 L 89.0 17.0 L 90.0 18.0 L 91.0 19.0 L 92.0 20.0 L 93.0 21.0 L 94.0 22.0 L 95.0 23.0 L 96.0 24.0 L 97.0 25.0 L 98.0 26.0 L 99.0 27.0 L 100.0 28.0 L 101.0 29.0 L 102.0 30.0 L 103.0 31.0 L 103.66666666666667 32.0 L 104.33333333333333 33.0 L 104.66666666666667 34.0 L 105.33333333333333 35.0 L 105.66666666666667 36.0 L 106.33333333333333 37.0 L 106.66666666666667 38.0 L 107.0 39.0 L 107.33333333333333 40.0 L 107.66666666666667 41.0 L 108.33333333333333 41.666666666666664 L 109.0 42.0 L 109.66666666666667 41.666666666666664 L 110.0 41.0 L 109.66666666666667 40.0 L 109.33333333333333 39.0 L 109.0 38.0 L 109.0 37.0 L 108.66666666666667 36.0 L 108.33333333333333 35.0 L 108.0 34.0 L 107.66666666666667 33.0 L 107.33333333333333 32.0 L 107.0 31.0 L 106.66666666666667 30.0 L 106.33333333333333 29.0 L 105.66666666666667 28.0 L 105.33333333333333 27.0 L 104.66666666666667 26.0 L 104.33333333333333 25.0 L 103.66666666666667 24.0 L 103.33333333333333 23.0 L 102.66666666666667 22.0 L 102.0 21.0 L 101.33333333333333 20.0 L 100.66666666666667 19.0 L 100.0 18.0 L 99.0 17.0 L 98.0 16.0 L 97.0 15.0 L 96.0 14.0 L 95.0 13.333333333333334 L 94.0 12.666666666666666 L 93.0 12.0 L 92.0 11.333333333333334 L 91.0 10.666666666666666 L 90.0 10.0 L 89.0 9.333333333333334 L 88.0 8.666666666666666 L 87.0 8.333333333333334 L 86.0 8.0 L 85.0 7.666666666666667 L 84.0 7.333333333333333 L 83.0 7.0 L 82.0 6.666666666666667 L 81.0 6.333333333333333 L 80.0 6.0 L 79.0 5.666666666666667 L 78.0 5.333333333333333 L 77.0 5.0 L 76.0 5.0 L 75.0 5.0 L 74.0 5.0 L 73.0 4.666666666666667 L 72.0 4.333333333333333 L 71.0 4.0 L 70.0 4.0 L 69.0 4.0 L 68.0 4.0 L 67.0 4.0 L 66.0 4.0 L 65.0 4.0 L 64.0 4.0 L 63.0 4.0 L 62.0 4.0 L 61.0 4.0 L 60.0 4.0 L 59.0 4.0 L 58.0 4.0 L 57.0 4.0 L 56.0 4.333333333333333 L 55.0 4.666666666666667 L 54.0 5.0 L 53.0 5.0 L 52.0 5.0 L 51.0 5.0 L 50.0 5.333333333333333 L 49.0 5.666666666666667 L 48.0 6.0 L 47.0 6.333333333333333 L 46.0 6.666666666666667 L 45.0 7.0 L 44.0 7.333333333333333 L 43.0 7.666666666666667 L 42.0 8.0 L 41.0 8.333333333333334 L 40.0 8.666666666666666 L 39.0 9.333333333333334 L 38.0 10.0 L 37.0 10.666666666666666 L 36.0 11.333333333333334 L 35.0 12.0 L 34.0 12.666666666666666 L 33.0 13.333333333333334 L 32.0 14.0 L 31.0 15.0 L 30.0 16.0 L 29.0 17.0 L 28.0 18.0 L 27.333333333333332 19.0 L 26.666666666666668 20.0 L 26.0 21.0 L 25.333333333333332 22.0 L 24.666666666666668 23.0 L 24.333333333333332 24.0 L 23.666666666666668 25.0 L 23.333333333333332 26.0 L 22.666666666666668 27.0 L 22.333333333333332 28.0 L 21.666666666666668 29.0 L 21.333333333333332 30.0 L 20.666666666666668 31.0 L 20.333333333333332 32.0 L 20.0 33.0 L 20.0 34.0 L 19.666666666666668 35.0 L 19.333333333333332 36.0 L 19.0 37.0 L 19.0 38.0 L 18.666666666666668 39.0 L 18.333333333333332 40.0 L 18.0 41.0 L 18.0 42.0 L 18.333333333333332 43.0 L 19.0 44.0 L 20.0 45.0 L 21.0 45.666666666666664 L 22.0 46.0 L 22.5 46.0 Z" stroke="none" fill="rgb(85,65,56)" />
<path d="M 101.5 34.5 L 101.66666666666667 35.0 L 102.33333333333333 36.0 L 102.66666666666667 37.0 L 103.33333333333333 38.0 L 103.66666666666667 39.0 L 104.0 40.0 L 104.33333333333333 41.0 L 104.66666666666667 42.0 L 105.0 43.0 L 105.33333333333333 44.0 L 105.66666666666667 45.0 L 106.0 46.0 L 106.0 47.0 L 106.0 48.0 L 106.33333333333333 49.0 L 106.66666666666667 50.0 L 107.0 51.0 L 107.0 52.0 L 107.0 53.0 L 107.0 54.0 L 107.0 55.0 L 107.0 56.0 L 107.0 57.0 L 107.0 58.0 L 107.0 59.0 L 107.0 60.0 L 107.0 61.0 L 107.0 62.0 L 107.0 63.0 L 107.0 64.0 L 107.0 65.0 L 107.0 66.0 L 107.0 67.0 L 107.0 68.0 L 107.0 69.0 L 107.0 70.0 L 107.0 71.0 L 107.0 72.0 L 106.66666666666667 73.0 L 106.0 74.0 L 105.33333333333333 75.0 L 105.0 76.0 L 105.0 77.0 L 105.0 78.0 L 105.33333333333333 79.0 L 106.0 79.66666666666667 L 107.0 80.0 L 107.66666666666667 79.66666666666667 L 108.0 79.0 L 108.0 78.0 L 108.0 77.0 L 108.0 76.0 L 108.33333333333333 75.0 L 108.66666666666667 74.0 L 109.0 73.0 L 109.33333333333333 72.0 L 109.66666666666667 71.0 L 110.0 70.0 L 110.0 69.0 L 110.0 68.0 L 110.0 67.0 L 110.0 66.0 L 110.0 65.0 L 110.0 64.0 L 110.0 63.0 L 110.0 62.0 L 110.0 61.0 L 110.0 60.0 L 110.0 59.0 L 110.0 58.0 L 110.0 57.0 L 110.0 56.0 L 110.0 55.0 L 110.0 54.0 L 110.0 53.0 L 110.0 52.0 L 110.0 51.0 L 109.66666666666667 50.0 L 109.33333333333333 49.0 L 109.0 48.0 L 109.0 47.0 L 109.0 46.0 L 108.66666666666667 45.0 L 108.33333333333333 44.0 L 108.0 43.0 L 108.0 42.0 L 108.0 41.0 L 107.66666666666667 40.0 L 107.33333333333333 39.0 L 107.0 38.0 L 106.66666666666667 37.0 L 106.33333333333333 36.0 L 105.66666666666667 35.0 L 105.33333333333333 34.0 L 104.66666666666667 33.0 L 104.33333333333333 32.0 L 103.66666666666667 31.0 L 103.0 30.0 L 102.0 29.0 L 101.0 28.0 L 100.0 27.0 L 99.0 26.0 L 98.0 25.0 L 97.0 24.0 L 96.0 23.0 L 95.0 22.0 L 94.0 21.0 L 93.0 20.0 L 92.0 19.0 L 91.0 18.0 L 90.0 17.0 L 89.0 16.333333333333332 L 88.0 15.666666666666666 L 87.0 15.0 L 86.0 14.333333333333334 L 85.0 14.0 L 84.0 13.666666666666666 L 83.0 13.0 L 82.0 12.0 L 81.0 11.333333333333334 L 80.0 11.0 L 79.0 11.0 L 78.0 10.666666666666666 L 77.0 10.0 L 76.0 9.333333333333334 L 75.0 9.0 L 74.0 8.666666666666666 L 73.0 8.333333333333334 L 72.0 8.0 L 71.0 8.0 L 70.0 8.0 L 69.0 8.0 L 68.0 8.0 L 67.0 8.0 L 66.0 8.0 L 65.0 8.0 L 64.0 8.0 L 63.0 8.0 L 62.0 8.0 L 61.333333333333336 8.333333333333334 L 61.0 9.0 L 61.333333333333336 9.666666666666666 L 62.0 10.0 L 63.0 9.666666666666666 L 64.0 9.666666666666666 L 65.0 10.0 L 66.0 10.666666666666666 L 67.0 11.0 L 68.0 11.0 L 69.0 11.0 L 70.0 11.0 L 71.0 11.333333333333334 L 72.0 11.666666666666666 L 73.0 12.0 L 74.0 12.333333333333334 L 75.0 12.666666666666666 L 76.0 13.0 L 77.0 13.333333333333334 L 78.0 13.666666666666666 L 79.0 14.333333333333334 L 80.0 14.666666666666666 L 81.0 15.333333333333334 L 82.0 15.666666666666666 L 83.0 16.333333333333332 L 84.0 17.0 L 85.0 17.666666666666668 L 86.0 18.333333333333332 L 87.0 19.0 L 88.0 20.0 L 89.0 21.0 L 90.0 22.0 L 91.0 23.0 L 92.0 24.0 L 93.0 25.0 L 94.0 26.0 L 95.0 27.0 L 96.0 28.0 L 97.0 29.0 L 98.0 30.0 L 99.0 31.0 L 100.0 32.0 L 100.66666666666667 33.0 L 101.0 33.5 Z" stroke="none" fill="rgb(76,57,48)" />
<path d="M 55.5 11.0 L 55.666666666666664 10.666666666666666 L 56.0 10.0 L 55.666666666666664 9.333333333333334 L 55.0 9.0 L 54.333333333333336 9.333333333333334 L 54.0 10.0 L 54.333333333333336 10.666666666666666 L 54.5 11.0 Z" stroke="none" fill="rgb(76,57,48)" />
<path d="M 66.0 11.5 L 66.0 11.0 L 65.66666666666667 10.0 L 65.0 9.333333333333334 L 64.0 9.0 L 63.333333333333336 9.333333333333334 L 63.0 10.0 L 63.333333333333336 11.0 L 64.0 11.666666666666666 L 65.0 12.0 L 65.5 12.0 Z" stroke="none" fill="rgb(74,55,46)" />
<path d="M 62.5 15.0 L 63.0 15.0 L 63.666666666666664 14.666666666666666 L 64.0 14.0 L 64.0 13.0 L 64.0 12.0 L 63.666666666666664 11.0 L 63.0 10.333333333333334 L 62.0 10.0 L 61.0 10.0 L 60.0 10.0 L 59.0 10.0 L 58.0 10.0 L 57.0 10.0 L 56.0 10.333333333333334 L 55.0 10.666666666666666 L 54.333333333333336 11.333333333333334 L 54.333333333333336 11.666666666666666 L 55.0 12.0 L 56.0 12.0 L 57.0 12.0 L 58.0 12.0 L 59.0 12.333333333333334 L 60.0 13.0 L 61.0 14.0 L 61.5 14.5 Z" stroke="none" fill="rgb(71,53,44)" />
<path d="M 48.5 14.5 L 48.666666666666664 14.0 L 49.333333333333336 13.0 L 49.666666666666664 12.0 L 49.666666666666664 11.333333333333334 L 49.0 11.0 L 48.0 11.333333333333334 L 47.0 11.666666666666666 L 46.0 12.333333333333334 L 45.0 12.666666666666666 L 44.0 13.333333333333334 L 43.333333333333336 14.0 L 43.333333333333336 15.0 L 44.0 15.666666666666666 L 45.0 16.0 L 46.0 16.0 L 47.0 15.666666666666666 L 47.5 15.5 Z" stroke="none" fill="rgb(76,57,48)" />
<path d="M 54.0 12.5 L 54.0 12.0 L 53.666666666666664 11.333333333333334 L 53.0 11.0 L 52.0 11.0 L 51.0 11.0 L 50.0 11.333333333333334 L 49.333333333333336 12.0 L 49.333333333333336 13.0 L 50.0 13.666666666666666 L 51.0 14.0 L 52.0 13.666666666666666 L 53.0 13.333333333333334 L 53.5 13.0 Z" stroke="none" fill="rgb(74,55,46)" />
<path d="M 105.5 74.0 L 106.0 74.0 L 106.66666666666667 73.66666666666667 L 107.0 73.0 L 107.0 72.0 L 107.0 71.0 L 107.0 70.0 L 107.0 69.0 L 107.0 68.0 L 107.0 67.0 L 107.0 66.0 L 107.0 65.0 L 107.0 64.0 L 107.0 63.0 L 107.0 62.0 L 107.0 61.0 L 107.0 60.0 L 107.0 59.0 L 107.0 58.0 L 107.0 57.0 L 107.0 56.0 L 107.0 55.0 L 107.0 54.0 L 107.0 53.0 L 107.0 52.0 L 107.0 51.0 L 107.0 50.0 L 106.66666666666667 49.0 L 106.33333333333333 48.0 L 106.0 47.0 L 106.0 46.0 L 106.0 45.0 L 105.66666666666667 44.0 L 105.33333333333333 43.0 L 105.0 42.0 L 104.66666666666667 41.0 L 104.33333333333333 40.0 L 104.0 39.0 L 103.66666666666667 38.0 L 103.33333333333333 37.0 L 102.66666666666667 36.0 L 102.33333333333333 35.0 L 101.66666666666667 34.0 L 101.33333333333333 33.0 L 100.66666666666667 32.0 L 100.0 31.0 L 99.0 30.0 L 98.0 29.0 L 97.0 28.0 L 96.0 27.0 L 95.0 26.0 L 94.0 25.0 L 93.0 24.0 L 92.0 23.0 L 91.0 22.0 L 90.0 21.0 L 89.0 20.0 L 88.0 19.0 L 87.0 18.333333333333332 L 86.0 17.666666666666668 L 85.0 17.0 L 84.0 16.333333333333332 L 83.0 15.666666666666666 L 82.0 15.333333333333334 L 81.0 14.666666666666666 L 80.0 14.333333333333334 L 79.0 13.666666666666666 L 78.0 13.333333333333334 L 77.0 13.0 L 76.0 12.666666666666666 L 75.0 12.333333333333334 L 74.0 12.0 L 73.0 11.666666666666666 L 72.0 11.333333333333334 L 71.0 11.0 L 70.0 11.0 L 69.0 11.0 L 68.0 11.0 L 67.0 11.0 L 66.33333333333333 11.333333333333334 L 66.0 12.0 L 66.33333333333333 12.666666666666666 L 67.0 13.0 L 68.0 13.0 L 69.0 13.333333333333334 L 70.0 14.0 L 71.0 15.0 L 72.0 15.666666666666666 L 73.0 16.0 L 74.0 16.333333333333332 L 75.0 16.666666666666668 L 76.0 17.333333333333332 L 77.0 17.666666666666668 L 78.0 18.0 L 79.0 18.333333333333332 L 80.0 19.0 L 81.0 19.666666666666668 L 82.0 20.333333333333332 L 83.0 21.0 L 84.0 21.666666666666668 L 85.0 22.333333333333332 L 86.0 23.0 L 87.0 24.0 L 88.0 25.0 L 89.0 26.0 L 90.0 27.0 L 91.0 28.0 L 92.0 29.0 L 93.0 30.0 L 94.0 31.0 L 95.0 32.0 L 96.0 33.0 L 97.0 34.0 L 97.66666666666667 35.0 L 98.33333333333333 36.0 L 98.66666666666667 37.0 L 99.33333333333333 38.0 L 99.66666666666667 39.0 L 100.33333333333333 40.0 L 100.66666666666667 41.0 L 101.0 42.0 L 101.33333333333333 43.0 L 101.66666666666667 44.0 L 102.0 45.0 L 102.33333333333333 46.0 L 102.66666666666667 47.0 L 103.0 48.0 L 103.0 49.0 L 103.0 50.0 L 103.33333333333333 51.0 L 103.66666666666667 52.0 L 104.0 53.0 L 104.0 54.0 L 104.0 55.0 L 104.0 56.0 L 104.0 57.0 L 104.0 58.0 L 104.0 59.0 L 104.0 60.0 L 104.0 61.0 L 104.0 62.0 L 104.0 63.0 L 104.0 64.0 L 103.66666666666667 65.0 L 103.33333333333333 66.0 L 103.0 67.0 L 103.0 68.0 L 103.0 69.0 L 103.0 70.0 L 103.0 71.0 L 103.33333333333333 72.0 L 104.0 73.0 L 104.5 73.5 Z" stroke="none" fill="rgb(68,51,42)" />
<path d="M 23.5 73.0 L 24.0 73.0 L 24.666666666666668 72.66666666666667 L 25.333333333333332 72.0 L 25.666666666666668 71.0 L 26.0 70.0 L 26.0 69.0 L 26.0 68.0 L 26.0 67.0 L 26.0 66.0 L 26.0 65.0 L 25.666666666666668 64.0 L 25.333333333333332 63.0 L 25.0 62.0 L 25.0 61.0 L 25.0 60.0 L 25.0 59.0 L 25.0 58.0 L 25.0 57.0 L 25.0 56.0 L 25.0 55.0 L 25.333333333333332 54.0 L 25.666666666666668 53.0 L 26.0 52.0 L 26.0 51.0 L 26.0 50.0 L 26.0 49.0 L 26.333333333333332 48.0 L 26.666666666666668 47.0 L 27.0 46.0 L 27.333333333333332 45.0 L 27.666666666666668 44.0 L 28.0 43.0 L 28.333333333333332 42.0 L 28.666666666666668 41.0 L 29.0 40.0 L 29.333333333333332 39.0 L 29.666666666666668 38.0 L 30.333333333333332 37.0 L 30.666666666666668 36.0 L 31.0 35.0 L 31.333333333333332 34.0 L 32.0 33.0 L 32.666666666666664 32.0 L 33.333333333333336 31.0 L 33.666666666666664 30.0 L 34.0 29.0 L 34.333333333333336 28.0 L 35.0 27.0 L 36.0 26.0 L 37.0 25.0 L 38.0 24.0 L 39.0 23.333333333333332 L 40.0 23.0 L 41.0 22.666666666666668 L 41.666666666666664 22.0 L 42.333333333333336 21.0 L 43.0 20.333333333333332 L 44.0 20.0 L 45.0 19.666666666666668 L 46.0 19.333333333333332 L 47.0 18.666666666666668 L 48.0 18.333333333333332 L 49.0 17.666666666666668 L 50.0 17.333333333333332 L 51.0 16.666666666666668 L 52.0 16.333333333333332 L 53.0 16.0 L 53.666666666666664 15.666666666666666 L 54.333333333333336 15.0 L 55.0 14.666666666666666 L 56.0 14.666666666666666 L 57.0 15.0 L 58.0 15.0 L 58.666666666666664 14.666666666666666 L 59.333333333333336 14.0 L 59.666666666666664 13.0 L 59.666666666666664 12.333333333333334 L 59.0 12.0 L 58.0 12.0 L 57.0 12.0 L 56.0 12.0 L 55.0 12.0 L 54.0 12.333333333333334 L 53.0 12.666666666666666 L 52.0 13.333333333333334 L 51.0 13.666666666666666 L 50.0 14.0 L 49.0 14.0 L 48.0 14.333333333333334 L 47.0 15.0 L 46.0 15.666666666666666 L 45.0 16.333333333333332 L 44.0 17.0 L 43.0 17.666666666666668 L 42.0 18.333333333333332 L 41.0 19.0 L 40.0 19.666666666666668 L 39.0 20.333333333333332 L 38.0 21.0 L 37.0 22.0 L 36.0 23.0 L 35.0 24.0 L 34.0 25.0 L 33.333333333333336 26.0 L 32.666666666666664 27.0 L 32.0 28.0 L 31.0 29.0 L 30.0 30.0 L 29.0 31.0 L 28.333333333333332 32.0 L 27.666666666666668 33.0 L 27.333333333333332 34.0 L 26.666666666666668 35.0 L 26.333333333333332 36.0 L 26.0 37.0 L 25.666666666666668 38.0 L 25.333333333333332 39.0 L 24.666666666666668 40.0 L 24.333333333333332 41.0 L 24.0 42.0 L 24.0 43.0 L 23.666666666666668 44.0 L 23.0 45.0 L 22.333333333333332 46.0 L 22.0 47.0 L 22.0 48.0 L 22.0 49.0 L 22.0 50.0 L 22.0 51.0 L 22.0 52.0 L 22.0 53.0 L 22.0 54.0 L 22.0 55.0 L 22.0 56.0 L 22.0 57.0 L 22.0 58.0 L 22.0 59.0 L 22.0 60.0 L 22.0 61.0 L 22.0 62.0 L 22.0 63.0 L 22.0 64.0 L 22.0 65.0 L 22.0 66.0 L 22.0 67.0 L 22.0 68.0 L 22.0 69.0 L 22.0 70.0 L 22.0 71.0 L 22.333333333333332 72.0 L 22.5 72.5 Z" stroke="none" fill="rgb(68,51,42)" />
<path d="M 65.5 14.5 L 66.0 14.666666666666666 L 67.0 15.0 L 68.0 15.0 L 69.0 15.0 L 70.0 15.0 L 70.66666666666667 14.666666666666666 L 70.66666666666667 14.0 L 70.0 13.333333333333334 L 69.0 13.0 L 68.0 13.0 L 67.0 12.666666666666666 L 66.0 12.333333333333334 L 65.0 12.0 L 64.33333333333333 12.333333333333334 L 64.0 13.0 L 64.33333333333333 13.666666666666666 L 64.5 14.0 Z" stroke="none" fill="rgb(66,49,39)" />
<path d="M 49.5 14.0 L 49.666666666666664 13.666666666666666 L 49.666666666666664 13.333333333333334 L 49.333333333333336 13.333333333333334 L 49.0 13.5 Z" stroke="none" fill="rgb(71,53,44)" />
<path d="M 59.5 14.0 L 60.0 14.0 L 60.666666666666664 13.666666666666666 L 60.666666666666664 13.333333333333334 L 60.0 13.0 L 59.333333333333336 13.333333333333334 L 59.0 13.5 Z" stroke="none" fill="rgb(66,49,39)" />
<path d="M 56.0 15.5 L 56.0 15.0 L 55.666666666666664 14.333333333333334 L 55.0 14.0 L 54.333333333333336 14.333333333333334 L 54.0 15.0 L 54.333333333333336 15.666666666666666 L 55.0 16.0 L 55.5 16.0 Z" stroke="none" fill="rgb(66,49,39)" />
<path d="M 59.5 16.0 L 60.0 16.0 L 61.0 15.666666666666666 L 61.666666666666664 15.0 L 61.666666666666664 14.333333333333334 L 61.0 14.0 L 60.0 14.0 L 59.333333333333336 14.333333333333334 L 59.0 15.0 L 59.0 15.5 Z" stroke="none" fill="rgb(63,46,37)" />
<path d="M 58.5 46.0 L 59.0 46.333333333333336 L 60.0 46.666666666666664 L 61.0 47.0 L 62.0 47.0 L 63.0 47.0 L 64.0 47.0 L 65.0 47.0 L 66.0 47.0 L 67.0 47.0 L 68.0 47.0 L 69.0 47.0 L 70.0 47.0 L 71.0 47.0 L 72.0 47.0 L 73.0 47.0 L 74.0 47.0 L 75.0 47.0 L 76.0 47.0 L 77.0 47.0 L 78.0 47.0 L 79.0 46.666666666666664 L 80.0 46.333333333333336 L 81.0 46.0 L 82.0 46.0 L 83.0 46.0 L 84.0 46.0 L 85.0 46.0 L 86.0 45.666666666666664 L 87.0 45.333333333333336 L 88.0 45.0 L 89.0 45.0 L 90.0 45.0 L 91.0 45.0 L 92.0 45.333333333333336 L 93.0 46.0 L 94.0 47.0 L 95.0 48.0 L 96.0 49.0 L 96.66666666666667 50.0 L 97.33333333333333 51.0 L 97.66666666666667 52.0 L 98.0 53.0 L 98.0 54.0 L 98.33333333333333 55.0 L 98.66666666666667 56.0 L 99.0 57.0 L 99.0 58.0 L 99.33333333333333 59.0 L 99.66666666666667 60.0 L 100.0 61.0 L 100.0 62.0 L 100.33333333333333 63.0 L 100.66666666666667 64.0 L 101.33333333333333 65.0 L 102.0 65.66666666666667 L 103.0 66.0 L 103.66666666666667 65.66666666666667 L 104.0 65.0 L 104.0 64.0 L 104.0 63.0 L 104.0 62.0 L 104.0 61.0 L 104.0 60.0 L 104.0 59.0 L 104.0 58.0 L 104.0 57.0 L 104.0 56.0 L 104.0 55.0 L 104.0 54.0 L 104.0 53.0 L 104.0 52.0 L 103.66666666666667 51.0 L 103.33333333333333 50.0 L 103.0 49.0 L 103.0 48.0 L 103.0 47.0 L 102.66666666666667 46.0 L 102.33333333333333 45.0 L 102.0 44.0 L 101.66666666666667 43.0 L 101.33333333333333 42.0 L 101.0 41.0 L 100.66666666666667 40.0 L 100.33333333333333 39.0 L 99.66666666666667 38.0 L 99.33333333333333 37.0 L 98.66666666666667 36.0 L 98.33333333333333 35.0 L 97.66666666666667 34.0 L 97.0 33.0 L 96.0 32.0 L 95.0 31.0 L 94.0 30.0 L 93.0 29.0 L 92.0 28.0 L 91.0 27.0 L 90.0 26.0 L 89.0 25.0 L 88.0 24.0 L 87.0 23.0 L 86.0 22.333333333333332 L 85.0 21.666666666666668 L 84.0 21.0 L 83.0 20.333333333333332 L 82.0 19.666666666666668 L 81.0 19.0 L 80.0 18.333333333333332 L 79.0 18.0 L 78.0 17.666666666666668 L 77.0 17.333333333333332 L 76.0 16.666666666666668 L 75.0 16.333333333333332 L 74.0 16.0 L 73.0 15.666666666666666 L 72.0 15.333333333333334 L 71.0 15.0 L 70.0 15.0 L 69.0 15.0 L 68.0 15.0 L 67.0 14.666666666666666 L 66.0 14.333333333333334 L 65.0 14.0 L 64.0 14.333333333333334 L 63.0 14.666666666666666 L 62.0 15.0 L 61.0 15.333333333333334 L 60.0 15.333333333333334 L 59.0 15.333333333333334 L 58.0 15.0 L 57.0 15.0 L 56.0 15.333333333333334 L 55.0 15.666666666666666 L 54.0 16.333333333333332 L 53.0 16.666666666666668 L 52.0 17.333333333333332 L 51.0 17.666666666666668 L 50.0 18.333333333333332 L 49.0 18.666666666666668 L 48.0 19.333333333333332 L 47.0 19.666666666666668 L 46.0 20.333333333333332 L 45.0 20.666666666666668 L 44.0 21.333333333333332 L 43.0 22.0 L 42.0 23.0 L 41.0 23.666666666666668 L 40.0 24.333333333333332 L 39.0 25.0 L 38.0 26.0 L 37.0 27.0 L 36.0 28.0 L 35.333333333333336 29.0 L 34.666666666666664 30.0 L 34.0 31.0 L 33.333333333333336 32.0 L 32.666666666666664 33.0 L 32.0 34.0 L 31.0 35.0 L 30.333333333333332 36.0 L 29.666666666666668 37.0 L 29.333333333333332 38.0 L 29.0 39.0 L 28.666666666666668 40.0 L 28.333333333333332 41.0 L 28.0 42.0 L 27.666666666666668 43.0 L 27.333333333333332 44.0 L 27.0 45.0 L 26.666666666666668 46.0 L 26.333333333333332 47.0 L 26.0 48.0 L 26.0 49.0 L 26.0 50.0 L 26.0 51.0 L 25.666666666666668 52.0 L 25.333333333333332 53.0 L 25.0 54.0 L 25.0 55.0 L 25.0 56.0 L 25.0 57.0 L 25.0 58.0 L 25.0 59.0 L 25.0 60.0 L 25.0 61.0 L 25.0 62.0 L 25.0 63.0 L 25.333333333333332 63.666666666666664 L 26.0 64.0 L 27.0 63.666666666666664 L 27.666666666666668 63.0 L 28.0 62.0 L 28.0 61.0 L 28.333333333333332 60.0 L 28.666666666666668 59.0 L 29.0 58.0 L 29.0 57.0 L 29.333333333333332 56.0 L 29.666666666666668 55.0 L 30.0 54.0 L 30.0 53.0 L 30.333333333333332 52.0 L 30.666666666666668 51.0 L 31.333333333333332 50.0 L 32.0 49.0 L 33.0 48.0 L 34.0 47.0 L 35.0 46.0 L 36.0 45.333333333333336 L 37.0 45.0 L 38.0 45.0 L 39.0 45.0 L 40.0 45.0 L 41.0 45.0 L 42.0 45.0 L 43.0 45.0 L 44.0 45.0 L 45.0 45.0 L 46.0 45.333333333333336 L 47.0 45.666666666666664 L 48.0 46.0 L 49.0 46.0 L 50.0 46.0 L 51.0 46.0 L 52.0 46.0 L 53.0 46.0 L 54.0 46.0 L 55.0 46.0 L 56.0 46.0 L 57.0 46.0 L 57.5 46.0 Z" stroke="none" fill="rgb(60,44,35)" />
<path d="M 44.0 15.5 L 43.666666666666664 15.333333333333334 L 43.333333333333336 15.333333333333334 L 43.333333333333336 15.666666666666666 L 43.5 16.0 Z" stroke="none" fill="rgb(74,55,46)" />
<path d="M 42.5 17.5 L 42.666666666666664 17.0 L 42.666666666666664 16.333333333333332 L 42.0 16.0 L 41.0 16.333333333333332 L 40.333333333333336 17.0 L 40.333333333333336 17.666666666666668 L 41.0 18.0 L 41.5 18.0 Z" stroke="none" fill="rgb(74,55,46)" />
<path d="M 43.5 18.0 L 44.0 17.666666666666668 L 44.666666666666664 17.0 L 44.666666666666664 16.333333333333332 L 44.0 16.0 L 43.0 16.333333333333332 L 42.333333333333336 17.0 L 42.333333333333336 17.666666666666668 L 42.5 18.0 Z" stroke="none" fill="rgb(71,53,44)" />
<path d="M 52.5 17.5 L 53.0 17.333333333333332 L 53.666666666666664 16.666666666666668 L 53.666666666666664 16.333333333333332 L 53.0 16.0 L 52.0 16.0 L 51.0 16.333333333333332 L 50.0 16.666666666666668 L 49.0 17.333333333333332 L 48.0 17.666666666666668 L 47.0 18.333333333333332 L 46.0 18.666666666666668 L 45.0 19.333333333333332 L 44.333333333333336 20.0 L 44.333333333333336 20.666666666666668 L 45.0 21.0 L 46.0 20.666666666666668 L 47.0 20.333333333333332 L 48.0 19.666666666666668 L 49.0 19.333333333333332 L 50.0 18.666666666666668 L 51.0 18.333333333333332 L 51.5 18.0 Z" stroke="none" fill="rgb(63,46,37)" />
<path d="M 39.0 18.5 L 39.0 18.0 L 38.666666666666664 17.333333333333332 L 38.0 17.333333333333332 L 37.333333333333336 18.0 L 37.333333333333336 18.666666666666668 L 38.0 19.0 L 38.5 19.0 Z" stroke="none" fill="rgb(76,57,48)" />
<path d="M 39.5 19.0 L 39.666666666666664 18.666666666666668 L 39.666666666666664 18.333333333333332 L 39.333333333333336 18.333333333333332 L 39.0 18.5 Z" stroke="none" fill="rgb(74,55,46)" />
<path d="M 40.5 20.0 L 41.0 19.666666666666668 L 41.666666666666664 19.0 L 41.666666666666664 18.333333333333332 L 41.0 18.0 L 40.0 18.333333333333332 L 39.333333333333336 19.0 L 39.333333333333336 19.666666666666668 L 39.5 20.0 Z" stroke="none" fill="rgb(71,53,44)" />
<path d="M 35.5 24.5 L 36.0 24.0 L 37.0 23.0 L 38.0 22.0 L 38.666666666666664 21.0 L 39.0 20.0 L 38.666666666666664 19.333333333333332 L 38.0 19.0 L 37.0 19.333333333333332 L 36.0 20.0 L 35.0 21.0 L 34.0 22.0 L 33.0 23.0 L 32.333333333333336 24.0 L 32.0 25.0 L 32.333333333333336 25.666666666666668 L 33.0 26.0 L 34.0 25.666666666666668 L 34.5 25.5 Z" stroke="none" fill="rgb(74,55,46)" />
<path d="M 42.5 21.0 L 43.0 21.0 L 43.666666666666664 20.666666666666668 L 44.0 20.0 L 43.666666666666664 19.333333333333332 L 43.0 19.333333333333332 L 42.333333333333336 20.0 L 42.0 20.5 Z" stroke="none" fill="rgb(66,49,39)" />
<path d="M 41.5 24.0 L 42.0 23.666666666666668 L 43.0 23.0 L 43.666666666666664 22.0 L 43.666666666666664 21.333333333333332 L 43.0 21.0 L 42.0 21.333333333333332 L 41.0 22.0 L 40.333333333333336 23.0 L 40.333333333333336 23.666666666666668 L 40.5 24.0 Z" stroke="none" fill="rgb(63,46,37)" />
<path d="M 38.5 26.5 L 39.0 26.0 L 39.666666666666664 25.0 L 40.0 24.0 L 40.0 23.0 L 39.666666666666664 22.333333333333332 L 39.0 22.333333333333332 L 38.0 23.0 L 37.0 24.0 L 36.0 25.0 L 35.0 26.0 L 34.333333333333336 27.0 L 34.0 28.0 L 34.333333333333336 28.666666666666668 L 35.0 29.0 L 36.0 28.666666666666668 L 37.0 28.0 L 37.5 27.5 Z" stroke="none" fill="rgb(66,49,39)" />
<path d="M 33.0 27.5 L 33.0 27.0 L 32.666666666666664 26.333333333333332 L 32.0 26.333333333333332 L 31.333333333333332 27.0 L 31.0 28.0 L 31.333333333333332 28.666666666666668 L 32.0 28.666666666666668 L 32.5 28.5 Z" stroke="none" fill="rgb(71,53,44)" />
<path d="M 34.5 31.5 L 34.666666666666664 31.0 L 35.0 30.0 L 34.666666666666664 29.333333333333332 L 34.0 29.333333333333332 L 33.333333333333336 30.0 L 33.0 31.0 L 33.333333333333336 31.666666666666668 L 33.5 32.0 Z" stroke="none" fill="rgb(63,46,37)" />
<path d="M 33.0 33.5 L 33.0 33.0 L 32.666666666666664 32.333333333333336 L 32.0 32.333333333333336 L 31.333333333333332 33.0 L 31.0 34.0 L 31.333333333333332 34.666666666666664 L 32.0 34.666666666666664 L 32.5 34.5 Z" stroke="none" fill="rgb(63,46,37)" />
<path d="M 109.5 50.5 L 110.0 50.666666666666664 L 110.66666666666667 50.666666666666664 L 111.0 50.0 L 111.0 49.0 L 111.0 48.0 L 111.0 47.0 L 110.66666666666667 46.0 L 110.33333333333333 45.0 L 110.0 44.0 L 109.66666666666667 43.0 L 109.0 42.333333333333336 L 108.33333333333333 42.333333333333336 L 108.0 43.0 L 108.0 44.0 L 108.33333333333333 45.0 L 108.66666666666667 46.0 L 109.0 47.0 L 109.0 48.0 L 109.0 49.0 L 109.0 49.5 Z" stroke="none" fill="rgb(82,63,54)" />
<path d="M 29.5 106.5 L 30.0 107.0 L 30.666666666666668 108.0 L 31.333333333333332 109.0 L 32.0 110.0 L 33.0 111.0 L 34.0 112.0 L 35.0 113.0 L 36.0 114.0 L 37.0 114.66666666666667 L 38.0 115.33333333333333 L 39.0 116.0 L 40.0 116.66666666666667 L 41.0 117.33333333333333 L 42.0 118.0 L 43.0 118.66666666666667 L 44.0 119.33333333333333 L 45.0 119.66666666666667 L 46.0 120.33333333333333 L 47.0 120.66666666666667 L 48.0 121.0 L 49.0 121.33333333333333 L 50.0 121.66666666666667 L 51.0 122.0 L 52.0 122.33333333333333 L 53.0 122.66666666666667 L 54.0 123.0 L 55.0 123.0 L 56.0 123.0 L 57.0 123.0 L 58.0 123.33333333333333 L 59.0 123.66666666666667 L 60.0 124.0 L 61.0 124.0 L 62.0 124.0 L 63.0 124.0 L 64.0 124.0 L 65.0 124.0 L 66.0 124.0 L 67.0 124.0 L 68.0 124.0 L 69.0 123.66666666666667 L 70.0 123.33333333333333 L 71.0 123.0 L 72.0 123.0 L 73.0 123.0 L 74.0 123.0 L 75.0 122.66666666666667 L 76.0 122.33333333333333 L 77.0 122.0 L 78.0 121.66666666666667 L 79.0 121.33333333333333 L 80.0 121.0 L 81.0 120.66666666666667 L 82.0 120.33333333333333 L 83.0 119.66666666666667 L 84.0 119.33333333333333 L 85.0 118.66666666666667 L 86.0 118.0 L 87.0 117.33333333333333 L 88.0 116.66666666666667 L 89.0 116.0 L 90.0 115.33333333333333 L 91.0 114.66666666666667 L 92.0 114.0 L 93.0 113.0 L 94.0 112.0 L 95.0 111.0 L 96.0 110.0 L 96.66666666666667 109.0 L 97.33333333333333 108.0 L 98.0 107.0 L 99.0 106.0 L 99.66666666666667 105.0 L 100.33333333333333 104.0 L 100.66666666666667 103.0 L 101.33333333333333 102.0 L 101.66666666666667 101.0 L 102.33333333333333 100.0 L 102.66666666666667 99.0 L 103.33333333333333 98.0 L 103.66666666666667 97.0 L 104.0 96.0 L 104.33333333333333 95.0 L 105.0 94.0 L 105.66666666666667 93.0 L 105.66666666666667 92.0 L 105.66666666666667 91.0 L 105.66666666666667 90.0 L 106.0 89.0 L 106.33333333333333 88.0 L 106.66666666666667 87.0 L 107.0 86.0 L 107.0 85.0 L 107.0 84.0 L 107.0 83.0 L 107.0 82.0 L 107.0 81.0 L 106.66666666666667 80.0 L 106.0 79.0 L 105.33333333333333 78.0 L 105.0 77.0 L 105.33333333333333 76.0 L 105.66666666666667 75.0 L 105.66666666666667 74.0 L 105.0 73.0 L 104.0 72.0 L 103.33333333333333 71.0 L 103.0 70.0 L 103.0 69.0 L 103.0 68.0 L 103.0 67.0 L 102.66666666666667 66.0 L 102.0 65.0 L 101.33333333333333 64.0 L 100.66666666666667 63.0 L 100.33333333333333 62.0 L 100.0 61.0 L 100.0 60.0 L 99.66666666666667 59.0 L 99.33333333333333 58.0 L 99.0 57.0 L 99.0 56.0 L 98.66666666666667 55.0 L 98.33333333333333 54.0 L 98.0 53.0 L 98.0 52.0 L 97.66666666666667 51.0 L 97.33333333333333 50.0 L 96.66666666666667 49.0 L 96.0 48.0 L 95.0 47.0 L 94.0 46.0 L 93.0 45.333333333333336 L 92.0 45.0 L 91.0 45.0 L 90.0 45.0 L 89.0 45.0 L 88.0 45.0 L 87.0 45.0 L 86.0 45.333333333333336 L 85.0 45.666666666666664 L 84.0 46.0 L 83.0 46.0 L 82.0 46.0 L 81.0 46.0 L 80.0 46.0 L 79.0 46.333333333333336 L 78.0 46.666666666666664 L 77.0 47.0 L 76.0 47.0 L 75.0 47.0 L 74.0 47.0 L 73.0 47.0 L 72.0 47.0 L 71.0 47.0 L 70.0 47.0 L 69.0 47.0 L 68.0 47.0 L 67.0 47.0 L 66.0 47.0 L 65.0 47.0 L 64.0 47.0 L 63.0 47.0 L 62.0 47.0 L 61.0 46.666666666666664 L 60.0 46.333333333333336 L 59.0 46.0 L 58.0 46.0 L 57.0 46.0 L 56.0 46.0 L 55.0 46.0 L 54.0 46.0 L 53.0 46.0 L 52.0 46.0 L 51.0 46.0 L 50.0 46.0 L 49.0 46.0 L 48.0 45.666666666666664 L 47.0 45.333333333333336 L 46.0 45.0 L 45.0 45.0 L 44.0 45.0 L 43.0 45.0 L 42.0 45.0 L 41.0 45.0 L 40.0 45.0 L 39.0 45.0 L 38.0 45.0 L 37.0 45.0 L 36.0 45.0 L 35.0 45.333333333333336 L 34.0 46.0 L 33.0 47.0 L 32.0 48.0 L 31.333333333333332 49.0 L 30.666666666666668 50.0 L 30.333333333333332 51.0 L 30.0 52.0 L 30.0 53.0 L 29.666666666666668 54.0 L 29.333333333333332 55.0 L 29.0 56.0 L 29.0 57.0 L 28.666666666666668 58.0 L 28.333333333333332 59.0 L 28.0 60.0 L 28.0 61.0 L 27.666666666666668 62.0 L 27.0 63.0 L 26.333333333333332 64.0 L 26.0 65.0 L 26.0 66.0 L 26.0 67.0 L 26.0 68.0 L 26.0 69.0 L 25.666666666666668 70.0 L 25.333333333333332 71.0 L 24.666666666666668 72.0 L 24.333333333333332 73.0 L 24.0 74.0 L 23.666666666666668 75.0 L 23.333333333333332 76.0 L 23.0 77.0 L 23.0 78.0 L 22.666666666666668 79.0 L 22.0 80.0 L 21.333333333333332 81.0 L 21.0 82.0 L 21.0 83.0 L 21.0 84.0 L 21.0 85.0 L 21.333333333333332 86.0 L 21.666666666666668 87.0 L 22.0 88.0 L 22.0 89.0 L 22.333333333333332 90.0 L 22.666666666666668 91.0 L 23.0 92.0 L 23.0 93.0 L 23.333333333333332 94.0 L 23.666666666666668 95.0 L 24.0 96.0 L 24.333333333333332 97.0 L 24.666666666666668 98.0 L 25.333333333333332 99.0 L 25.666666666666668 100.0 L 26.333333333333332 101.0 L 26.666666666666668 102.0 L 27.333333333333332 103.0 L 27.666666666666668 104.0 L 28.333333333333332 105.0 L 28.5 105.5 Z" stroke="none" fill="rgb(165,108,67)" />
<path d="M 42.5 81.0 L 43.0 81.0 L 44.0 81.0 L 45.0 81.0 L 46.0 80.66666666666667 L 47.0 80.0 L 48.0 79.0 L 48.666666666666664 78.0 L 49.0 77.0 L 49.0 76.0 L 49.0 75.0 L 49.0 74.0 L 49.0 73.0 L 48.666666666666664 72.0 L 48.0 71.0 L 47.0 70.0 L 46.0 69.0 L 45.0 68.0 L 44.666666666666664 67.0 L 45.0 66.33333333333333 L 46.0 66.0 L 47.0 66.33333333333333 L 48.0 66.66666666666667 L 49.0 67.0 L 50.0 67.0 L 51.0 67.0 L 52.0 66.66666666666667 L 52.666666666666664 66.0 L 53.0 65.0 L 52.666666666666664 64.0 L 52.0 63.0 L 51.0 62.0 L 50.0 61.333333333333336 L 49.0 60.666666666666664 L 48.0 60.333333333333336 L 47.0 60.0 L 46.0 60.0 L 45.0 60.0 L 44.0 60.0 L 43.0 60.0 L 42.0 60.0 L 41.0 60.0 L 40.0 60.0 L 39.0 60.0 L 38.0 60.333333333333336 L 37.0 60.666666666666664 L 36.0 61.333333333333336 L 35.0 62.0 L 34.0 63.0 L 33.333333333333336 64.0 L 33.0 65.0 L 33.0 66.0 L 33.333333333333336 66.66666666666667 L 34.0 67.0 L 35.0 67.0 L 36.0 67.0 L 37.0 67.0 L 38.0 67.0 L 39.0 66.66666666666667 L 40.0 66.33333333333333 L 41.0 66.33333333333333 L 41.333333333333336 67.0 L 41.0 68.0 L 40.0 68.66666666666667 L 39.0 69.33333333333333 L 38.0 70.0 L 37.333333333333336 71.0 L 37.0 72.0 L 36.666666666666664 73.0 L 36.333333333333336 74.0 L 36.0 75.0 L 36.0 76.0 L 36.333333333333336 77.0 L 37.0 78.0 L 38.0 79.0 L 39.0 80.0 L 40.0 80.66666666666667 L 41.0 81.0 L 41.5 81.0 Z" stroke="none" fill="rgb(66,49,44)" />
<path d="M 88.5 81.0 L 89.0 80.66666666666667 L 90.0 80.0 L 90.66666666666667 79.0 L 91.33333333333333 78.0 L 91.66666666666667 77.0 L 92.0 76.0 L 92.0 75.0 L 92.0 74.0 L 91.66666666666667 73.0 L 91.33333333333333 72.0 L 90.66666666666667 71.0 L 90.0 70.0 L 89.0 69.0 L 88.0 68.0 L 87.66666666666667 67.0 L 88.0 66.33333333333333 L 89.0 66.0 L 90.0 66.33333333333333 L 91.0 66.66666666666667 L 92.0 67.0 L 93.0 67.0 L 94.0 67.0 L 94.66666666666667 66.66666666666667 L 95.0 66.0 L 95.0 65.0 L 94.66666666666667 64.0 L 94.0 63.0 L 93.0 62.0 L 92.0 61.0 L 91.0 60.333333333333336 L 90.0 60.0 L 89.0 60.0 L 88.0 60.0 L 87.0 60.0 L 86.0 60.0 L 85.0 60.0 L 84.0 60.0 L 83.0 60.0 L 82.0 60.0 L 81.0 60.333333333333336 L 80.0 60.666666666666664 L 79.0 61.333333333333336 L 78.0 61.666666666666664 L 77.0 62.333333333333336 L 76.33333333333333 63.0 L 75.66666666666667 64.0 L 75.33333333333333 65.0 L 75.33333333333333 66.0 L 76.0 66.66666666666667 L 77.0 67.0 L 78.0 67.0 L 79.0 67.0 L 80.0 67.0 L 81.0 67.0 L 82.0 67.33333333333333 L 82.33333333333333 68.0 L 82.0 69.0 L 81.0 70.0 L 80.0 71.0 L 79.33333333333333 72.0 L 79.0 73.0 L 79.0 74.0 L 79.0 75.0 L 79.0 76.0 L 79.33333333333333 77.0 L 80.0 78.0 L 81.0 79.0 L 82.0 80.0 L 83.0 80.66666666666667 L 84.0 81.0 L 85.0 81.0 L 86.0 81.0 L 87.0 81.0 L 87.5 81.0 Z" stroke="none" fill="rgb(66,49,44)" />
<path d="M 21.5 92.5 L 22.0 92.66666666666667 L 22.666666666666668 92.66666666666667 L 23.0 92.0 L 23.0 91.0 L 22.666666666666668 90.0 L 22.333333333333332 89.0 L 22.0 88.0 L 22.0 87.0 L 21.666666666666668 86.0 L 21.333333333333332 85.0 L 21.0 84.0 L 21.0 83.0 L 21.333333333333332 82.0 L 22.0 81.0 L 22.666666666666668 80.0 L 23.0 79.0 L 23.0 78.0 L 23.0 77.0 L 23.0 76.0 L 22.666666666666668 75.0 L 22.0 74.0 L 21.0 73.0 L 20.0 72.0 L 19.0 71.0 L 18.0 70.33333333333333 L 17.0 70.0 L 16.333333333333332 70.33333333333333 L 15.666666666666666 71.0 L 15.333333333333334 72.0 L 14.666666666666666 73.0 L 14.333333333333334 74.0 L 14.0 75.0 L 14.0 76.0 L 14.0 77.0 L 14.0 78.0 L 14.0 79.0 L 14.0 80.0 L 14.0 81.0 L 14.0 82.0 L 14.333333333333334 83.0 L 14.666666666666666 84.0 L 15.0 85.0 L 15.333333333333334 86.0 L 15.666666666666666 87.0 L 16.333333333333332 88.0 L 17.0 89.0 L 18.0 90.0 L 19.0 91.0 L 20.0 91.66666666666667 L 20.5 92.0 Z" stroke="none" fill="rgb(122,76,50)" />
<path d="M 110.5 89.5 L 111.0 89.0 L 111.66666666666667 88.0 L 112.33333333333333 87.0 L 112.66666666666667 86.0 L 113.0 85.0 L 113.33333333333333 84.0 L 113.66666666666667 83.0 L 114.0 82.0 L 114.0 81.0 L 114.0 80.0 L 114.0 79.0 L 114.0 78.0 L 114.0 77.0 L 114.0 76.0 L 114.0 75.0 L 113.66666666666667 74.0 L 113.33333333333333 73.0 L 112.66666666666667 72.0 L 112.33333333333333 71.0 L 111.66666666666667 70.33333333333333 L 111.0 70.0 L 110.0 70.33333333333333 L 109.33333333333333 71.0 L 109.0 72.0 L 108.66666666666667 73.0 L 108.33333333333333 74.0 L 108.0 75.0 L 108.0 76.0 L 108.0 77.0 L 108.0 78.0 L 107.66666666666667 79.0 L 107.33333333333333 80.0 L 107.0 81.0 L 107.0 82.0 L 107.0 83.0 L 107.0 84.0 L 107.0 85.0 L 106.66666666666667 86.0 L 106.33333333333333 87.0 L 106.0 88.0 L 105.66666666666667 89.0 L 105.33333333333333 90.0 L 105.0 91.0 L 105.33333333333333 91.66666666666667 L 106.0 92.0 L 107.0 92.0 L 108.0 91.66666666666667 L 109.0 91.0 L 109.5 90.5 Z" stroke="none" fill="rgb(122,76,50)" />
<path d="M 59.5 90.5 L 60.0 91.0 L 61.0 91.66666666666667 L 62.0 92.0 L 63.0 92.0 L 64.0 92.0 L 65.0 92.0 L 66.0 92.0 L 67.0 91.66666666666667 L 68.0 91.0 L 69.0 90.0 L 69.66666666666667 89.0 L 70.0 88.0 L 69.66666666666667 87.33333333333333 L 69.0 87.0 L 68.0 87.0 L 67.0 87.0 L 66.0 87.0 L 65.0 87.0 L 64.0 87.0 L 63.0 87.0 L 62.0 87.0 L 61.0 87.0 L 60.0 87.0 L 59.0 87.0 L 58.333333333333336 87.33333333333333 L 58.0 88.0 L 58.333333333333336 89.0 L 58.5 89.5 Z" stroke="none" fill="rgb(135,83,52)" />
<path d="M 62.5 107.0 L 63.0 107.0 L 64.0 107.0 L 65.0 107.0 L 66.0 107.0 L 67.0 107.0 L 68.0 107.0 L 69.0 107.0 L 70.0 106.66666666666667 L 71.0 106.33333333333333 L 72.0 105.66666666666667 L 73.0 105.33333333333333 L 74.0 104.66666666666667 L 75.0 104.0 L 76.0 103.0 L 77.0 102.0 L 78.0 101.0 L 78.66666666666667 100.0 L 79.0 99.0 L 78.66666666666667 98.0 L 78.0 97.33333333333333 L 77.0 97.0 L 76.0 97.0 L 75.0 97.33333333333333 L 74.0 97.66666666666667 L 73.0 98.0 L 72.0 98.0 L 71.0 98.0 L 70.0 98.0 L 69.0 98.0 L 68.0 98.0 L 67.0 98.0 L 66.0 98.0 L 65.0 98.0 L 64.0 98.0 L 63.0 98.0 L 62.0 98.0 L 61.0 98.0 L 60.0 98.0 L 59.0 98.0 L 58.0 98.0 L 57.0 98.0 L 56.0 97.66666666666667 L 55.0 97.33333333333333 L 54.0 97.0 L 53.0 97.0 L 52.0 97.0 L 51.0 97.0 L 50.0 97.33333333333333 L 49.333333333333336 98.0 L 49.0 99.0 L 49.333333333333336 100.0 L 50.0 101.0 L 51.0 102.0 L 52.0 103.0 L 53.0 103.66666666666667 L 54.0 104.33333333333333 L 55.0 104.66666666666667 L 56.0 105.33333333333333 L 57.0 105.66666666666667 L 58.0 106.0 L 59.0 106.0 L 60.0 106.33333333333333 L 61.0 106.66666666666667 L 61.5 107.0 Z" stroke="none" fill="rgb(71,53,48)" />
</svg>
