<?xml version="1.0" encoding="UTF-8" standalone="no"?>
<!DOCTYPE svg PUBLIC "-//W3C//DTD SVG 1.1//EN"
"http://www.w3.org/Graphics/SVG/1.1/DTD/svg11.dtd">
<svg width="128" height="128" xmlns="http://www.w3.org/2000/svg" version="1.1">
<path d="M 88.5 128.0 L 89.0 128.0 L 90.0 128.0 L 91.0 128.0 L 92.0 128.0 L 93.0 128.0 L 94.0 128.0 L 95.0 128.0 L 96.0 128.0 L 97.0 128.0 L 98.0 128.0 L 99.0 128.0 L 100.0 128.0 L 101.0 128.0 L 102.0 128.0 L 103.0 128.0 L 104.0 128.0 L 105.0 128.0 L 106.0 128.0 L 107.0 128.0 L 108.0 128.0 L 109.0 128.0 L 110.0 128.0 L 111.0 128.0 L 112.0 128.0 L 113.0 128.0 L 114.0 128.0 L 115.0 128.0 L 116.0 128.0 L 117.0 128.0 L 118.0 128.0 L 119.0 128.0 L 120.0 128.0 L 121.0 128.0 L 122.0 128.0 L 123.0 128.0 L 124.0 128.0 L 125.0 128.0 L 126.0 128.0 L 127.0 128.0 L 127.66666666666667 127.66666666666667 L 128.0 127.0 L 128.0 126.0 L 128.0 125.0 L 128.0 124.0 L 128.0 123.0 L 128.0 122.0 L 128.0 121.0 L 128.0 120.0 L 128.0 119.0 L 128.0 118.0 L 128.0 117.0 L 128.0 116.0 L 128.0 115.0 L 128.0 114.0 L 128.0 113.0 L 128.0 112.0 L 128.0 111.0 L 128.0 110.0 L 128.0 109.0 L 128.0 108.0 L 128.0 107.0 L 128.0 106.0 L 128.0 105.0 L 128.0 104.0 L 128.0 103.0 L 128.0 102.0 L 128.0 101.0 L 128.0 100.0 L 128.0 99.0 L 128.0 98.0 L 128.0 97.0 L 128.0 96.0 L 128.0 95.0 L 128.0 94.0 L 128.0 93.0 L 128.0 92.0 L 128.0 91.0 L 128.0 90.0 L 128.0 89.0 L 128.0 88.0 L 128.0 87.0 L 128.0 86.0 L 128.0 85.0 L 128.0 84.0 L 128.0 83.0 L 128.0 82.0 L 128.0 81.0 L 128.0 80.0 L 128.0 79.0 L 128.0 78.0 L 128.0 77.0 L 128.0 76.0 L 128.0 75.0 L 128.0 74.0 L 128.0 73.0 L 128.0 72.0 L 128.0 71.0 L 128.0 70.0 L 128.0 69.0 L 128.0 68.0 L 128.0 67.0 L 128.0 66.0 L 128.0 65.0 L 128.0 64.0 L 128.0 63.0 L 128.0 62.0 L 128.0 61.0 L 128.0 60.0 L 128.0 59.0 L 128.0 58.0 L 128.0 57.0 L 128.0 56.0 L 128.0 55.0 L 128.0 54.0 L 128.0 53.0 L 128.0 52.0 L 128.0 51.0 L 128.0 50.0 L 128.0 49.0 L 128.0 48.0 L 128.0 47.0 L 128.0 46.0 L 128.0 45.0 L 128.0 44.0 L 128.0 43.0 L 128.0 42.0 L 128.0 41.0 L 128.0 40.0 L 128.0 39.0 L 128.0 38.0 L 128.0 37.0 L 128.0 36.0 L 128.0 35.0 L 128.0 34.0 L 128.0 33.0 L 128.0 32.0 L 128.0 31.0 L 128.0 30.0 L 128.0 29.0 L 128.0 28.0 L 128.0 27.0 L 128.0 26.0 L 128.0 25.0 L 128.0 24.0 L 128.0 23.0 L 128.0 22.0 L 128.0 21.0 L 128.0 20.0 L 128.0 19.0 L 128.0 18.0 L 128.0 17.0 L 128.0 16.0 L 128.0 15.0 L 128.0 14.0 L 128.0 13.0 L 128.0 12.0 L 128.0 11.0 L 128.0 10.0 L 128.0 9.0 L 128.0 8.0 L 128.0 7.0 L 128.0 6.0 L 128.0 5.0 L 128.0 4.0 L 128.0 3.0 L 128.0 2.0 L 128.0 1.0 L 127.66666666666667 0.3333333333333333 L 127.0 0.0 L 126.0 0.0 L 125.0 0.0 L 124.0 0.0 L 123.0 0.0 L 122.0 0.0 L 121.0 0.0 L 120.0 0.0 L 119.0 0.0 L 118.0 0.0 L 117.0 0.0 L 116.0 0.0 L 115.0 0.0 L 114.0 0.0 L 113.0 0.0 L 112.0 0.0 L 111.0 0.0 L 110.0 0.0 L 109.0 0.0 L 108.0 0.0 L 107.0 0.0 L 106.0 0.0 L 105.0 0.0 L 104.0 0.0 L 103.0 0.0 L 102.0 0.0 L 101.0 0.0 L 100.0 0.0 L 99.0 0.0 L 98.0 0.0 L 97.0 0.0 L 96.0 0.0 L 95.0 0.0 L 94.0 0.0 L 93.0 0.0 L 92.0 0.0 L 91.0 0.0 L 90.0 0.0 L 89.0 0.0 L 88.0 0.0 L 87.0 0.0 L 86.0 0.0 L 85.0 0.0 L 84.0 0.0 L 83.0 0.0 L 82.0 0.0 L 81.0 0.0 L 80.0 0.0 L 79.0 0.0 L 78.0 0.0 L 77.0 0.0 L 76.0 0.0 L 75.0 0.0 L 74.0 0.0 L 73.0 0.0 L 72.0 0.0 L 71.0 0.0 L 70.0 0.0 L 69.0 0.0 L 68.0 0.0 L 67.0 0.0 L 66.0 0.0 L 65.0 0.0 L 64.0 0.0 L 63.0 0.0 L 62.0 0.0 L 61.0 0.0 L 60.0 0.0 L 59.0 0.0 L 58.0 0.0 L 57.0 0.0 L 56.0 0.0 L 55.0 0.0 L 54.0 0.0 L 53.0 0.0 L 52.0 0.0 L 51.0 0.0 L 50.0 0.0 L 49.0 0.0 L 48.0 0.0 L 47.0 0.0 L 46.0 0.0 L 45.0 0.0 L 44.0 0.0 L 43.0 0.0 L 42.0 0.0 L 41.0 0.0 L 40.0 0.0 L 39.0 0.0 L 38.0 0.0 L 37.0 0.0 L 36.0 0.0 L 35.0 0.0 L 34.0 0.0 L 33.0 0.0 L 32.0 0.0 L 31.0 0.0 L 30.0 0.0 L 29.0 0.0 L 28.0 0.0 L 27.0 0.0 L 26.0 0.0 L 25.0 0.0 L 24.0 0.0 L 23.0 0.0 L 22.0 0.0 L 21.0 0.0 L 20.0 0.0 L 19.0 0.0 L 18.0 0.0 L 17.0 0.0 L 16.0 0.0 L 15.0 0.0 L 14.0 0.0 L 13.0 0.0 L 12.0 0.0 L 11.0 0.0 L 10.0 0.0 L 9.0 0.0 L 8.0 0.0 L 7.0 0.0 L 6.0 0.0 L 5.0 0.0 L 4.0 0.0 L 3.0 0.0 L 2.0 0.0 L 1.0 0.0 L 0.3333333333333333 0.3333333333333333 L 0.0 1.0 L 0.0 2.0 L 0.0 3.0 L 0.0 4.0 L 0.0 5.0 L 0.0 6.0 L 0.0 7.0 L 0.0 8.0 L 0.0 9.0 L 0.0 10.0 L 0.0 11.0 L 0.0 12.0 L 0.0 13.0 L 0.0 14.0 L 0.0 15.0 L 0.0 16.0 L 0.0 17.0 L 0.0 18.0 L 0.0 19.0 L 0.0 20.0 L 0.0 21.0 L 0.0 22.0 L 0.0 23.0 L 0.0 24.0 L 0.0 25.0 L 0.0 26.0 L 0.0 27.0 L 0.0 28.0 L 0.0 29.0 L 0.0 30.0 L 0.0 31.0 L 0.0 32.0 L 0.0 33.0 L 0.0 34.0 L 0.0 35.0 L 0.0 36.0 L 0.0 37.0 L 0.0 38.0 L 0.0 39.0 L 0.0 40.0 L 0.0 41.0 L 0.0 42.0 L 0.0 43.0 L 0.0 44.0 L 0.0 45.0 L 0.0 46.0 L 0.0 47.0 L 0.0 48.0 L 0.0 49.0 L 0.0 50.0 L 0.0 51.0 L 0.0 52.0 L 0.0 53.0 L 0.0 54.0 L 0.0 55.0 L 0.0 56.0 L 0.0 57.0 L 0.0 58.0 L 0.0 59.0 L 0.0 60.0 L 0.0 61.0 L 0.0 62.0 L 0.0 63.0 L 0.0 64.0 L 0.0 65.0 L 0.0 66.0 L 0.0 67.0 L 0.0 68.0 L 0.0 69.0 L 0.0 70.0 L 0.0 71.0 L 0.0 72.0 L 0.0 73.0 L 0.0 74.0 L 0.0 75.0 L 0.0 76.0 L 0.0 77.0 L 0.0 78.0 L 0.0 79.0 L 0.0 80.0 L 0.0 81.0 L 0.0 82.0 L 0.0 83.0 L 0.0 84.0 L 0.0 85.0 L 0.0 86.0 L 0.0 87.0 L 0.0 88.0 L 0.0 89.0 L 0.0 90.0 L 0.0 91.0 L 0.0 92.0 L 0.0 93.0 L 0.0 94.0 L 0.0 95.0 L 0.0 96.0 L 0.0 97.0 L 0.0 98.0 L 0.0 99.0 L 0.0 100.0 L 0.0 101.0 L 0.0 102.0 L 0.0 103.0 L 0.0 104.0 L 0.0 105.0 L 0.0 106.0 L 0.0 107.0 L 0.0 108.0 L 0.0 109.0 L 0.0 110.0 L 0.0 111.0 L 0.0 112.0 L 0.0 113.0 L 0.0 114.0 L 0.0 115.0 L 0.0 116.0 L 0.0 117.0 L 0.0 118.0 L 0.0 119.0 L 0.0 120.0 L 0.0 121.0 L 0.0 122.0 L 0.0 123.0 L 0.0 124.0 L 0.0 125.0 L 0.0 126.0 L 0.0 127.0 L 0.3333333333333333 127.66666666666667 L 1.0 128.0 L 2.0 128.0 L 3.0 128.0 L 4.0 128.0 L 5.0 128.0 L 6.0 128.0 L 7.0 128.0 L 8.0 128.0 L 9.0 128.0 L 10.0 128.0 L 11.0 128.0 L 12.0 128.0 L 13.0 128.0 L 14.0 128.0 L 15.0 128.0 L 16.0 128.0 L 17.0 128.0 L 18.0 128.0 L 19.0 128.0 L 20.0 128.0 L 21.0 128.0 L 22.0 128.0 L 23.0 128.0 L 24.0 128.0 L 25.0 128.0 L 26.0 128.0 L 27.0 128.0 L 28.0 128.0 L 29.0 128.0 L 30.0 128.0 L 31.0 128.0 L 32.0 128.0 L 33.0 128.0 L 34.0 128.0 L 35.0 128.0 L 36.0 128.0 L 37.0 128.0 L 38.0 128.0 L 39.0 128.0 L 40.0 128.0 L 41.0 128.0 L 42.0 128.0 L 43.0 128.0 L 44.0 128.0 L 45.0 128.0 L 46.0 128.0 L 47.0 128.0 L 48.0 128.0 L 49.0 128.0 L 50.0 128.0 L 51.0 128.0 L 52.0 128.0 L 53.0 128.0 L 54.0 128.0 L 55.0 128.0 L 56.0 128.0 L 57.0 128.0 L 58.0 128.0 L 59.0 128.0 L 60.0 128.0 L 61.0 128.0 L 62.0 128.0 L 63.0 128.0 L 64.0 128.0 L 65.0 128.0 L 66.0 128.0 L 67.0 128.0 L 68.0 128.0 L 69.0 128.0 L 70.0 128.0 L 71.0 128.0 L 72.0 128.0 L 73.0 128.0 L 74.0 128.0 L 75.0 128.0 L 76.0 128.0 L 77.0 128.0 L 78.0 128.0 L 79.0 128.0 L 80.0 128.0 L 81.0 128.0 L 82.0 128.0 L 83.0 128.0 L 84.0 128.0 L 85.0 128.0 L 86.0 128.0 L 87.0 128.0 L 87.5 128.0 Z" stroke="none" fill="rgb(255,255,255)" />
<path d="M 59.5 96.0 L 60.0 96.0 L 61.0 96.0 L 62.0 96.0 L 63.0 96.0 L 64.0 96.0 L 65.0 96.0 L 66.0 96.0 L 67.0 96.0 L 68.0 96.0 L 69.0 96.0 L 70.0 96.0 L 71.0 96.0 L 72.0 96.33333333333333 L 73.0 96.66666666666667 L 74.0 96.66666666666667 L 75.0 96.33333333333333 L 75.66666666666667 95.66666666666667 L 76.33333333333333 95.0 L 77.0 94.33333333333333 L 78.0 93.66666666666667 L 79.0 93.33333333333333 L 80.0 92.66666666666667 L 81.0 92.33333333333333 L 82.0 92.0 L 82.66666666666667 91.66666666666667 L 83.33333333333333 91.0 L 84.0 90.33333333333333 L 84.66666666666667 89.66666666666667 L 85.33333333333333 89.0 L 86.0 88.0 L 87.0 87.0 L 88.0 86.0 L 89.0 85.0 L 89.66666666666667 84.0 L 90.33333333333333 83.0 L 91.0 82.0 L 91.66666666666667 81.0 L 92.33333333333333 80.0 L 92.66666666666667 79.0 L 93.33333333333333 78.0 L 93.66666666666667 77.0 L 94.33333333333333 76.0 L 94.66666666666667 75.0 L 95.33333333333333 74.0 L 95.66666666666667 73.0 L 96.0 72.0 L 96.0 71.0 L 96.33333333333333 70.0 L 96.66666666666667 69.0 L 97.0 68.0 L 97.0 67.0 L 97.0 66.0 L 96.66666666666667 65.0 L 96.0 64.0 L 95.33333333333333 63.0 L 95.0 62.0 L 95.0 61.0 L 95.0 60.0 L 95.0 59.0 L 95.0 58.0 L 95.0 57.0 L 95.0 56.0 L 95.0 55.0 L 95.0 54.0 L 95.0 53.0 L 95.0 52.0 L 95.0 51.0 L 94.66666666666667 50.0 L 94.0 49.0 L 93.0 48.333333333333336 L 92.0 48.0 L 91.0 48.0 L 90.0 48.0 L 89.0 48.0 L 88.0 48.0 L 87.33333333333333 48.333333333333336 L 87.0 49.0 L 86.66666666666667 50.0 L 86.0 51.0 L 85.0 51.333333333333336 L 84.0 51.333333333333336 L 83.0 51.0 L 82.0 51.0 L 81.0 51.0 L 80.0 51.0 L 79.0 51.0 L 78.0 51.0 L 77.0 51.333333333333336 L 76.0 51.666666666666664 L 75.0 52.0 L 74.0 51.666666666666664 L 73.33333333333333 51.0 L 73.33333333333333 50.0 L 74.0 49.0 L 75.0 48.333333333333336 L 76.0 47.666666666666664 L 76.66666666666667 47.0 L 76.66666666666667 46.0 L 76.0 45.333333333333336 L 75.0 45.0 L 74.0 45.0 L 73.0 45.0 L 72.0 45.0 L 71.0 45.0 L 70.0 45.0 L 69.0 45.0 L 68.0 45.0 L 67.0 45.0 L 66.0 45.0 L 65.0 45.0 L 64.0 45.0 L 63.0 45.0 L 62.0 45.0 L 61.0 45.0 L 60.0 45.0 L 59.0 45.0 L 58.0 45.0 L 57.0 45.0 L 56.0 45.0 L 55.0 45.333333333333336 L 54.333333333333336 46.0 L 54.0 47.0 L 54.333333333333336 48.0 L 55.0 49.0 L 55.333333333333336 50.0 L 55.0 51.0 L 54.0 51.333333333333336 L 53.0 51.333333333333336 L 52.0 51.0 L 51.0 51.0 L 50.0 51.0 L 49.0 51.0 L 48.0 51.0 L 47.0 51.0 L 46.0 51.333333333333336 L 45.0 51.666666666666664 L 44.0 52.0 L 43.0 51.666666666666664 L 42.0 51.0 L 41.333333333333336 50.0 L 41.0 49.0 L 40.666666666666664 48.333333333333336 L 40.0 48.0 L 39.0 48.0 L 38.0 48.0 L 37.0 48.333333333333336 L 36.0 49.0 L 35.333333333333336 50.0 L 35.0 51.0 L 35.0 52.0 L 35.0 53.0 L 35.0 54.0 L 35.0 55.0 L 35.0 56.0 L 34.666666666666664 57.0 L 34.333333333333336 58.0 L 34.0 59.0 L 34.0 60.0 L 33.666666666666664 61.0 L 33.333333333333336 62.0 L 33.0 63.0 L 33.0 64.0 L 32.666666666666664 65.0 L 32.333333333333336 66.0 L 32.0 67.0 L 32.0 68.0 L 32.0 69.0 L 32.0 70.0 L 32.0 71.0 L 32.0 72.0 L 32.333333333333336 73.0 L 32.666666666666664 74.0 L 33.333333333333336 75.0 L 33.666666666666664 76.0 L 34.333333333333336 77.0 L 34.666666666666664 78.0 L 35.333333333333336 79.0 L 35.666666666666664 80.0 L 36.333333333333336 81.0 L 37.0 82.0 L 38.0 83.0 L 39.0 84.0 L 39.666666666666664 85.0 L 40.333333333333336 86.0 L 41.0 87.0 L 42.0 88.0 L 43.0 89.0 L 44.0 90.0 L 45.0 91.0 L 46.0 91.66666666666667 L 47.0 92.0 L 48.0 92.33333333333333 L 49.0 92.66666666666667 L 50.0 93.33333333333333 L 51.0 93.66666666666667 L 52.0 94.33333333333333 L 53.0 95.0 L 53.666666666666664 96.0 L 54.333333333333336 96.66666666666667 L 55.0 96.66666666666667 L 56.0 96.33333333333333 L 57.0 96.0 L 58.0 96.0 L 58.5 96.0 Z" stroke="none" fill="rgb(186,141,104)" />
<path d="M 23.5 54.5 L 24.0 54.0 L 25.0 53.333333333333336 L 26.0 52.666666666666664 L 27.0 52.333333333333336 L 28.0 51.666666666666664 L 29.0 51.333333333333336 L 30.0 51.0 L 31.0 50.666666666666664 L 32.0 50.333333333333336 L 33.0 50.0 L 34.0 50.0 L 35.0 50.0 L 36.0 49.666666666666664 L 37.0 49.0 L 38.0 48.333333333333336 L 39.0 48.0 L 40.0 48.333333333333336 L 41.0 48.666666666666664 L 42.0 49.0 L 43.0 48.666666666666664 L 44.0 48.333333333333336 L 45.0 47.666666666666664 L 46.0 47.333333333333336 L 47.0 47.0 L 48.0 47.0 L 49.0 47.0 L 50.0 47.0 L 51.0 47.0 L 52.0 47.0 L 53.0 47.0 L 54.0 46.666666666666664 L 55.0 46.0 L 56.0 45.333333333333336 L 57.0 45.0 L 58.0 45.0 L 59.0 45.0 L 60.0 45.0 L 61.0 45.0 L 62.0 45.0 L 63.0 45.0 L 64.0 45.0 L 65.0 45.0 L 66.0 45.0 L 67.0 45.0 L 68.0 45.0 L 69.0 45.0 L 70.0 45.0 L 71.0 45.0 L 72.0 45.0 L 73.0 45.0 L 74.0 45.0 L 75.0 45.333333333333336 L 76.0 46.0 L 77.0 46.666666666666664 L 78.0 47.0 L 79.0 47.0 L 80.0 47.0 L 81.0 47.0 L 82.0 47.0 L 83.0 47.333333333333336 L 84.0 48.0 L 85.0 48.666666666666664 L 86.0 49.0 L 87.0 48.666666666666664 L 88.0 48.333333333333336 L 89.0 48.0 L 90.0 48.0 L 91.0 48.0 L 92.0 48.333333333333336 L 93.0 49.0 L 94.0 49.666666666666664 L 95.0 50.0 L 96.0 50.0 L 97.0 50.0 L 98.0 50.333333333333336 L 99.0 50.666666666666664 L 100.0 51.333333333333336 L 101.0 52.0 L 102.0 52.666666666666664 L 103.0 53.333333333333336 L 104.0 54.0 L 105.0 55.0 L 106.0 55.666666666666664 L 107.0 56.333333333333336 L 108.0 56.666666666666664 L 109.0 56.666666666666664 L 109.66666666666667 56.0 L 110.0 55.0 L 110.0 54.0 L 110.0 53.0 L 110.0 52.0 L 110.0 51.0 L 109.66666666666667 50.0 L 109.0 49.333333333333336 L 108.0 49.0 L 107.0 49.0 L 106.0 48.666666666666664 L 105.0 48.333333333333336 L 104.0 47.666666666666664 L 103.0 47.333333333333336 L 102.0 46.666666666666664 L 101.0 46.333333333333336 L 100.0 46.0 L 99.0 45.666666666666664 L 98.0 45.333333333333336 L 97.0 44.666666666666664 L 96.0 44.333333333333336 L 95.0 44.0 L 94.0 44.0 L 93.0 43.666666666666664 L 92.0 43.333333333333336 L 91.0 43.0 L 90.0 42.666666666666664 L 89.0 42.333333333333336 L 88.0 42.0 L 87.0 41.666666666666664 L 86.33333333333333 41.0 L 86.33333333333333 40.0 L 86.66666666666667 39.0 L 87.0 38.0 L 87.33333333333333 37.0 L 87.66666666666667 36.0 L 88.0 35.0 L 88.0 34.0 L 88.0 33.0 L 88.0 32.0 L 88.0 31.0 L 88.0 30.0 L 88.0 29.0 L 88.0 28.0 L 88.0 27.0 L 87.66666666666667 26.0 L 87.33333333333333 25.0 L 87.0 24.0 L 86.66666666666667 23.0 L 86.33333333333333 22.0 L 85.66666666666667 21.0 L 85.33333333333333 20.0 L 84.66666666666667 19.0 L 84.0 18.0 L 83.33333333333333 17.0 L 82.66666666666667 16.0 L 82.0 15.0 L 81.0 14.333333333333334 L 80.0 14.333333333333334 L 79.33333333333333 15.0 L 78.66666666666667 16.0 L 78.33333333333333 17.0 L 77.66666666666667 18.0 L 77.33333333333333 19.0 L 77.0 20.0 L 77.0 21.0 L 77.33333333333333 21.666666666666668 L 78.0 22.333333333333332 L 78.66666666666667 23.0 L 79.33333333333333 24.0 L 79.66666666666667 25.0 L 80.0 26.0 L 80.33333333333333 27.0 L 80.66666666666667 28.0 L 81.0 29.0 L 81.0 30.0 L 81.0 31.0 L 81.0 32.0 L 81.0 33.0 L 81.0 34.0 L 80.66666666666667 35.0 L 80.33333333333333 36.0 L 79.66666666666667 37.0 L 79.33333333333333 38.0 L 78.66666666666667 39.0 L 78.0 39.666666666666664 L 77.0 40.0 L 76.0 39.666666666666664 L 75.33333333333333 39.0 L 74.66666666666667 38.0 L 74.33333333333333 37.0 L 73.66666666666667 36.333333333333336 L 73.0 36.0 L 72.0 36.0 L 71.0 36.0 L 70.0 36.0 L 69.0 36.0 L 68.0 36.0 L 67.0 36.0 L 66.0 36.0 L 65.0 36.0 L 64.0 36.0 L 63.0 36.0 L 62.0 36.0 L 61.0 36.0 L 60.0 36.0 L 59.0 36.0 L 58.0 36.0 L 57.0 36.0 L 56.0 36.0 L 55.0 36.0 L 54.333333333333336 36.333333333333336 L 54.0 37.0 L 54.0 38.0 L 53.666666666666664 39.0 L 53.0 39.666666666666664 L 52.0 40.0 L 51.0 40.0 L 50.0 39.666666666666664 L 49.333333333333336 39.0 L 48.666666666666664 38.0 L 48.333333333333336 37.0 L 48.0 36.0 L 47.666666666666664 35.0 L 47.333333333333336 34.0 L 47.0 33.0 L 47.0 32.0 L 47.0 31.0 L 47.0 30.0 L 47.333333333333336 29.0 L 47.666666666666664 28.0 L 48.0 27.0 L 48.333333333333336 26.0 L 48.666666666666664 25.0 L 49.333333333333336 24.0 L 49.666666666666664 23.0 L 50.333333333333336 22.0 L 51.0 21.333333333333332 L 51.666666666666664 20.666666666666668 L 52.0 20.0 L 51.666666666666664 19.0 L 51.333333333333336 18.0 L 51.0 17.0 L 50.666666666666664 16.0 L 50.0 15.0 L 49.0 14.333333333333334 L 48.0 14.333333333333334 L 47.0 15.0 L 46.0 16.0 L 45.0 17.0 L 44.0 18.0 L 43.333333333333336 19.0 L 42.666666666666664 20.0 L 42.333333333333336 21.0 L 42.0 22.0 L 41.666666666666664 23.0 L 41.333333333333336 24.0 L 41.0 25.0 L 41.0 26.0 L 40.666666666666664 27.0 L 40.333333333333336 28.0 L 40.0 29.0 L 40.0 30.0 L 40.0 31.0 L 40.0 32.0 L 40.0 33.0 L 40.0 34.0 L 40.333333333333336 35.0 L 40.666666666666664 36.0 L 41.0 37.0 L 41.0 38.0 L 41.333333333333336 39.0 L 41.666666666666664 40.0 L 41.666666666666664 41.0 L 41.0 41.666666666666664 L 40.0 42.0 L 39.0 42.333333333333336 L 38.0 42.666666666666664 L 37.0 43.0 L 36.0 43.0 L 35.0 43.333333333333336 L 34.0 43.666666666666664 L 33.0 44.333333333333336 L 32.0 44.666666666666664 L 31.0 45.0 L 30.0 45.333333333333336 L 29.0 45.666666666666664 L 28.0 46.0 L 27.0 46.333333333333336 L 26.0 46.666666666666664 L 25.0 47.333333333333336 L 24.0 47.666666666666664 L 23.0 48.333333333333336 L 22.0 48.666666666666664 L 21.0 49.0 L 20.0 49.0 L 19.0 49.333333333333336 L 18.333333333333332 50.0 L 17.666666666666668 51.0 L 17.333333333333332 52.0 L 17.333333333333332 53.0 L 17.666666666666668 54.0 L 18.0 55.0 L 18.333333333333332 56.0 L 19.0 56.666666666666664 L 20.0 56.666666666666664 L 21.0 56.0 L 22.0 55.333333333333336 L 22.5 55.0 Z" stroke="none" fill="rgb(255,234,0)" />
<path d="M 53.5 40.0 L 53.666666666666664 39.666666666666664 L 54.0 39.0 L 54.0 38.0 L 54.333333333333336 37.0 L 55.0 36.333333333333336 L 56.0 36.0 L 57.0 36.0 L 58.0 36.0 L 59.0 36.0 L 60.0 36.0 L 61.0 36.0 L 62.0 36.0 L 63.0 36.0 L 64.0 36.0 L 65.0 36.0 L 66.0 36.0 L 67.0 36.0 L 68.0 36.0 L 69.0 36.0 L 70.0 36.0 L 71.0 36.0 L 72.0 36.0 L 73.0 36.333333333333336 L 73.66666666666667 37.0 L 74.33333333333333 38.0 L 74.66666666666667 39.0 L 75.33333333333333 39.666666666666664 L 76.0 40.0 L 77.0 40.0 L 78.0 40.0 L 78.66666666666667 39.666666666666664 L 79.33333333333333 39.0 L 79.66666666666667 38.0 L 80.33333333333333 37.0 L 80.66666666666667 36.0 L 81.0 35.0 L 81.0 34.0 L 81.0 33.0 L 81.0 32.0 L 81.0 31.0 L 81.0 30.0 L 81.0 29.0 L 81.0 28.0 L 80.66666666666667 27.0 L 80.33333333333333 26.0 L 80.0 25.0 L 79.66666666666667 24.0 L 79.33333333333333 23.0 L 78.66666666666667 22.333333333333332 L 78.0 22.0 L 77.33333333333333 22.333333333333332 L 76.66666666666667 23.0 L 76.0 23.666666666666668 L 75.0 24.0 L 74.0 24.0 L 73.0 24.0 L 72.0 24.0 L 71.0 24.0 L 70.0 24.0 L 69.0 24.0 L 68.0 24.0 L 67.0 24.0 L 66.0 24.0 L 65.0 24.0 L 64.0 24.0 L 63.0 24.0 L 62.0 24.0 L 61.0 24.0 L 60.0 24.0 L 59.0 24.0 L 58.0 24.0 L 57.0 24.0 L 56.0 24.0 L 55.0 24.0 L 54.0 24.0 L 53.0 23.666666666666668 L 52.333333333333336 23.0 L 52.0 22.0 L 51.666666666666664 21.333333333333332 L 51.0 21.0 L 50.333333333333336 21.333333333333332 L 49.666666666666664 22.0 L 49.333333333333336 23.0 L 48.666666666666664 24.0 L 48.333333333333336 25.0 L 48.0 26.0 L 47.666666666666664 27.0 L 47.333333333333336 28.0 L 47.0 29.0 L 47.0 30.0 L 47.0 31.0 L 47.0 32.0 L 47.0 33.0 L 47.0 34.0 L 47.333333333333336 35.0 L 47.666666666666664 36.0 L 48.0 37.0 L 48.333333333333336 38.0 L 48.666666666666664 39.0 L 49.333333333333336 39.666666666666664 L 50.0 40.0 L 51.0 40.0 L 52.0 40.0 L 52.5 40.0 Z" stroke="none" fill="rgb(255,243,0)" />
<path d="M 58.5 24.0 L 59.0 24.0 L 60.0 24.0 L 61.0 24.0 L 62.0 24.0 L 63.0 24.0 L 64.0 24.0 L 65.0 24.0 L 66.0 24.0 L 67.0 24.0 L 68.0 24.0 L 69.0 24.0 L 70.0 24.0 L 71.0 24.0 L 72.0 24.0 L 73.0 24.0 L 74.0 24.0 L 74.66666666666667 23.666666666666668 L 75.0 23.0 L 75.0 22.0 L 75.0 21.0 L 75.0 20.0 L 75.0 19.0 L 75.0 18.0 L 75.0 17.0 L 75.0 16.0 L 75.0 15.0 L 75.0 14.0 L 75.0 13.0 L 75.0 12.0 L 75.0 11.0 L 75.0 10.0 L 75.0 9.0 L 75.0 8.0 L 75.0 7.0 L 74.66666666666667 6.0 L 74.0 5.0 L 73.0 4.333333333333333 L 72.0 4.0 L 71.0 4.0 L 70.0 4.0 L 69.0 4.0 L 68.0 4.0 L 67.0 4.0 L 66.0 4.0 L 65.0 4.0 L 64.0 4.0 L 63.0 4.0 L 62.0 4.0 L 61.0 4.0 L 60.0 4.0 L 59.0 4.0 L 58.0 4.0 L 57.0 4.0 L 56.0 4.0 L 55.0 4.333333333333333 L 54.333333333333336 5.0 L 54.0 6.0 L 54.0 7.0 L 54.0 8.0 L 54.0 9.0 L 54.0 10.0 L 54.0 11.0 L 54.0 12.0 L 54.0 13.0 L 54.0 14.0 L 54.0 15.0 L 54.0 16.0 L 54.0 17.0 L 54.0 18.0 L 54.0 19.0 L 54.0 20.0 L 54.0 21.0 L 54.0 22.0 L 54.333333333333336 23.0 L 55.0 23.666666666666668 L 56.0 24.0 L 57.0 24.0 L 57.5 24.0 Z" stroke="none" fill="rgb(255,251,0)" />
<path d="M 75.0 106.5 L 75.0 106.0 L 75.0 105.0 L 75.33333333333333 104.0 L 75.66666666666667 103.0 L 76.0 102.0 L 76.0 101.0 L 76.33333333333333 100.0 L 76.66666666666667 99.0 L 77.0 98.0 L 77.0 97.0 L 76.66666666666667 96.33333333333333 L 76.0 96.0 L 75.0 96.0 L 74.33333333333333 96.33333333333333 L 74.0 97.0 L 74.0 98.0 L 74.0 99.0 L 73.66666666666667 100.0 L 73.33333333333333 101.0 L 73.0 102.0 L 72.66666666666667 103.0 L 72.0 104.0 L 71.0 105.0 L 70.0 106.0 L 69.0 107.0 L 68.0 107.66666666666667 L 67.0 108.0 L 66.0 108.0 L 65.0 108.0 L 64.0 108.0 L 63.0 108.0 L 62.0 108.0 L 61.0 108.0 L 60.0 107.66666666666667 L 59.0 107.0 L 58.0 106.0 L 57.0 105.0 L 56.333333333333336 104.0 L 55.666666666666664 103.0 L 55.333333333333336 102.0 L 55.0 101.0 L 55.0 100.0 L 55.0 99.0 L 55.0 98.0 L 54.666666666666664 97.0 L 54.0 96.33333333333333 L 53.0 96.0 L 52.0 96.33333333333333 L 51.333333333333336 97.0 L 51.0 98.0 L 51.333333333333336 99.0 L 51.666666666666664 100.0 L 52.0 101.0 L 52.333333333333336 102.0 L 52.666666666666664 103.0 L 53.0 104.0 L 53.0 105.0 L 53.333333333333336 106.0 L 53.666666666666664 107.0 L 54.0 108.0 L 54.0 109.0 L 54.333333333333336 110.0 L 54.666666666666664 111.0 L 55.0 112.0 L 55.0 113.0 L 55.333333333333336 114.0 L 56.0 114.66666666666667 L 57.0 114.66666666666667 L 58.0 114.33333333333333 L 59.0 114.0 L 60.0 114.0 L 61.0 114.0 L 62.0 114.0 L 63.0 114.0 L 64.0 114.0 L 65.0 114.0 L 66.0 114.0 L 67.0 114.0 L 68.0 114.0 L 69.0 114.0 L 70.0 114.33333333333333 L 71.0 114.66666666666667 L 72.0 114.66666666666667 L 72.66666666666667 114.0 L 73.0 113.0 L 73.0 112.0 L 73.33333333333333 111.0 L 73.66666666666667 110.0 L 74.0 109.0 L 74.33333333333333 108.0 L 74.5 107.5 Z" stroke="none" fill="rgb(61,128,255)" />
<path d="M 101.5 47.0 L 102.0 47.333333333333336 L 103.0 47.666666666666664 L 104.0 48.333333333333336 L 105.0 48.666666666666664 L 106.0 49.0 L 106.66666666666667 48.666666666666664 L 107.0 48.0 L 107.0 47.0 L 107.0 46.0 L 107.0 45.0 L 107.0 44.0 L 107.0 43.0 L 107.0 42.0 L 107.0 41.0 L 106.66666666666667 40.0 L 106.33333333333333 39.0 L 106.0 38.0 L 106.0 37.0 L 105.66666666666667 36.0 L 105.33333333333333 35.0 L 105.0 34.0 L 105.0 33.0 L 104.66666666666667 32.0 L 104.33333333333333 31.0 L 103.66666666666667 30.0 L 103.33333333333333 29.0 L 102.66666666666667 28.0 L 102.33333333333333 27.0 L 101.66666666666667 26.0 L 101.33333333333333 25.0 L 100.66666666666667 24.0 L 100.0 23.0 L 99.33333333333333 22.0 L 98.66666666666667 21.0 L 98.0 20.0 L 97.0 19.0 L 96.0 18.0 L 95.0 17.0 L 94.0 16.0 L 93.0 15.333333333333334 L 92.0 15.0 L 91.33333333333333 15.333333333333334 L 91.0 16.0 L 91.0 17.0 L 91.33333333333333 18.0 L 91.66666666666667 19.0 L 92.33333333333333 20.0 L 92.66666666666667 21.0 L 93.0 22.0 L 93.33333333333333 23.0 L 93.66666666666667 24.0 L 94.0 25.0 L 94.0 26.0 L 94.0 27.0 L 94.33333333333333 28.0 L 94.66666666666667 29.0 L 95.0 30.0 L 95.0 31.0 L 95.0 32.0 L 95.0 33.0 L 94.66666666666667 34.0 L 94.33333333333333 35.0 L 94.0 36.0 L 94.0 37.0 L 93.66666666666667 38.0 L 93.33333333333333 39.0 L 93.0 40.0 L 93.0 41.0 L 93.0 42.0 L 93.33333333333333 43.0 L 94.0 43.666666666666664 L 95.0 44.333333333333336 L 96.0 44.666666666666664 L 97.0 45.333333333333336 L 98.0 45.666666666666664 L 99.0 46.0 L 100.0 46.333333333333336 L 100.5 46.5 Z" stroke="none" fill="rgb(255,216,0)" />
<path d="M 23.5 48.5 L 24.0 48.333333333333336 L 25.0 47.666666666666664 L 26.0 47.333333333333336 L 27.0 46.666666666666664 L 28.0 46.333333333333336 L 29.0 46.0 L 30.0 45.666666666666664 L 31.0 45.333333333333336 L 32.0 45.0 L 33.0 44.666666666666664 L 34.0 44.333333333333336 L 34.666666666666664 43.666666666666664 L 35.0 43.0 L 35.0 42.0 L 35.0 41.0 L 35.0 40.0 L 35.0 39.0 L 34.666666666666664 38.0 L 34.333333333333336 37.0 L 34.0 36.0 L 34.0 35.0 L 34.0 34.0 L 34.0 33.0 L 34.0 32.0 L 34.0 31.0 L 34.0 30.0 L 34.0 29.0 L 34.0 28.0 L 34.0 27.0 L 34.0 26.0 L 34.333333333333336 25.0 L 34.666666666666664 24.0 L 35.0 23.0 L 35.333333333333336 22.0 L 35.666666666666664 21.0 L 36.0 20.0 L 36.333333333333336 19.0 L 37.0 18.0 L 37.666666666666664 17.0 L 38.0 16.0 L 37.666666666666664 15.333333333333334 L 37.0 15.0 L 36.0 15.333333333333334 L 35.0 16.0 L 34.0 17.0 L 33.0 18.0 L 32.0 19.0 L 31.0 20.0 L 30.0 21.0 L 29.333333333333332 22.0 L 28.666666666666668 23.0 L 28.0 24.0 L 27.333333333333332 25.0 L 26.666666666666668 26.0 L 26.333333333333332 27.0 L 25.666666666666668 28.0 L 25.333333333333332 29.0 L 24.666666666666668 30.0 L 24.333333333333332 31.0 L 24.0 32.0 L 23.666666666666668 33.0 L 23.333333333333332 34.0 L 23.0 35.0 L 22.666666666666668 36.0 L 22.333333333333332 37.0 L 22.0 38.0 L 22.0 39.0 L 22.0 40.0 L 21.666666666666668 41.0 L 21.333333333333332 42.0 L 21.0 43.0 L 21.0 44.0 L 21.0 45.0 L 21.0 46.0 L 21.0 47.0 L 21.0 48.0 L 21.333333333333332 48.666666666666664 L 22.0 49.0 L 22.5 49.0 Z" stroke="none" fill="rgb(255,216,0)" />
<path d="M 91.5 43.5 L 92.0 43.666666666666664 L 93.0 44.0 L 93.66666666666667 43.666666666666664 L 93.66666666666667 43.0 L 93.33333333333333 42.0 L 93.0 41.0 L 93.33333333333333 40.0 L 93.66666666666667 39.0 L 94.0 38.0 L 94.0 37.0 L 94.33333333333333 36.0 L 94.66666666666667 35.0 L 95.0 34.0 L 95.0 33.0 L 95.0 32.0 L 95.0 31.0 L 95.0 30.0 L 95.0 29.0 L 94.66666666666667 28.0 L 94.33333333333333 27.0 L 94.0 26.0 L 94.0 25.0 L 94.0 24.0 L 93.66666666666667 23.0 L 93.33333333333333 22.0 L 93.0 21.0 L 92.66666666666667 20.0 L 92.33333333333333 19.0 L 91.66666666666667 18.0 L 91.33333333333333 17.0 L 91.0 16.0 L 90.66666666666667 15.0 L 90.0 14.0 L 89.0 13.0 L 88.0 12.333333333333334 L 87.0 11.666666666666666 L 86.0 11.333333333333334 L 85.0 10.666666666666666 L 84.0 10.333333333333334 L 83.0 10.0 L 82.0 10.333333333333334 L 81.0 11.0 L 80.33333333333333 12.0 L 80.0 13.0 L 80.33333333333333 14.0 L 81.0 15.0 L 82.0 16.0 L 82.66666666666667 17.0 L 83.33333333333333 18.0 L 84.0 19.0 L 84.66666666666667 20.0 L 85.33333333333333 21.0 L 85.66666666666667 22.0 L 86.33333333333333 23.0 L 86.66666666666667 24.0 L 87.0 25.0 L 87.33333333333333 26.0 L 87.66666666666667 27.0 L 88.0 28.0 L 88.0 29.0 L 88.0 30.0 L 88.0 31.0 L 88.0 32.0 L 88.0 33.0 L 88.0 34.0 L 87.66666666666667 35.0 L 87.33333333333333 36.0 L 87.0 37.0 L 86.66666666666667 38.0 L 86.33333333333333 39.0 L 86.0 40.0 L 86.0 41.0 L 86.33333333333333 41.666666666666664 L 87.0 42.0 L 88.0 42.333333333333336 L 89.0 42.666666666666664 L 90.0 43.0 L 90.5 43.0 Z" stroke="none" fill="rgb(255,225,0)" />
<path d="M 40.5 42.0 L 41.0 42.0 L 41.666666666666664 41.666666666666664 L 42.0 41.0 L 42.0 40.0 L 41.666666666666664 39.0 L 41.333333333333336 38.0 L 41.0 37.0 L 41.0 36.0 L 40.666666666666664 35.0 L 40.333333333333336 34.0 L 40.0 33.0 L 40.0 32.0 L 40.0 31.0 L 40.0 30.0 L 40.333333333333336 29.0 L 40.666666666666664 28.0 L 41.0 27.0 L 41.0 26.0 L 41.333333333333336 25.0 L 41.666666666666664 24.0 L 42.0 23.0 L 42.333333333333336 22.0 L 42.666666666666664 21.0 L 43.333333333333336 20.0 L 44.0 19.0 L 45.0 18.0 L 46.0 17.0 L 47.0 16.0 L 48.0 15.0 L 48.666666666666664 14.0 L 49.0 13.0 L 48.666666666666664 12.0 L 48.0 11.0 L 47.0 10.333333333333334 L 46.0 10.0 L 45.0 10.333333333333334 L 44.0 10.666666666666666 L 43.0 11.333333333333334 L 42.0 11.666666666666666 L 41.0 12.333333333333334 L 40.0 12.666666666666666 L 39.0 13.333333333333334 L 38.333333333333336 14.0 L 38.0 15.0 L 37.666666666666664 16.0 L 37.0 17.0 L 36.333333333333336 18.0 L 36.0 19.0 L 35.666666666666664 20.0 L 35.333333333333336 21.0 L 35.0 22.0 L 34.666666666666664 23.0 L 34.333333333333336 24.0 L 34.0 25.0 L 34.0 26.0 L 34.0 27.0 L 34.0 28.0 L 34.0 29.0 L 34.0 30.0 L 34.0 31.0 L 34.0 32.0 L 34.0 33.0 L 34.0 34.0 L 34.0 35.0 L 34.0 36.0 L 34.0 37.0 L 34.333333333333336 38.0 L 34.666666666666664 39.0 L 35.0 40.0 L 35.0 41.0 L 35.0 42.0 L 35.333333333333336 42.666666666666664 L 36.0 43.0 L 37.0 43.0 L 38.0 43.0 L 39.0 42.666666666666664 L 39.5 42.5 Z" stroke="none" fill="rgb(255,225,0)" />
<path d="M 72.5 104.5 L 72.66666666666667 104.0 L 73.0 103.0 L 73.33333333333333 102.0 L 73.66666666666667 101.0 L 74.0 100.0 L 74.0 99.0 L 74.0 98.0 L 73.66666666666667 97.0 L 73.0 96.33333333333333 L 72.0 96.0 L 71.0 96.0 L 70.0 96.0 L 69.0 96.0 L 68.0 96.0 L 67.0 96.0 L 66.0 96.0 L 65.0 96.0 L 64.0 96.0 L 63.0 96.0 L 62.0 96.0 L 61.0 96.0 L 60.0 96.0 L 59.0 96.0 L 58.0 96.0 L 57.0 96.0 L 56.0 96.0 L 55.333333333333336 96.33333333333333 L 55.0 97.0 L 55.0 98.0 L 55.0 99.0 L 55.0 100.0 L 55.0 101.0 L 55.0 102.0 L 55.333333333333336 103.0 L 55.666666666666664 104.0 L 56.333333333333336 105.0 L 57.0 106.0 L 58.0 107.0 L 59.0 107.66666666666667 L 60.0 108.0 L 61.0 108.0 L 62.0 108.0 L 63.0 108.0 L 64.0 108.0 L 65.0 108.0 L 66.0 108.0 L 67.0 108.0 L 68.0 108.0 L 69.0 107.66666666666667 L 70.0 107.0 L 71.0 106.0 L 71.5 105.5 Z" stroke="none" fill="rgb(152,104,80)" />
<path d="M 91.5 113.5 L 92.0 113.66666666666667 L 92.66666666666667 113.66666666666667 L 93.0 113.0 L 93.0 112.0 L 93.0 111.0 L 93.0 110.0 L 93.0 109.0 L 93.0 108.0 L 93.0 107.0 L 93.0 106.0 L 93.0 105.0 L 93.0 104.0 L 93.0 103.0 L 93.0 102.0 L 93.0 101.0 L 92.66666666666667 100.0 L 92.0 99.0 L 91.0 98.33333333333333 L 90.0 98.0 L 89.0 98.0 L 88.0 97.66666666666667 L 87.0 97.33333333333333 L 86.0 97.0 L 85.0 97.0 L 84.0 97.33333333333333 L 83.33333333333333 98.0 L 83.0 99.0 L 83.0 100.0 L 83.0 101.0 L 82.66666666666667 102.0 L 82.33333333333333 103.0 L 82.0 104.0 L 82.0 105.0 L 81.66666666666667 106.0 L 81.33333333333333 107.0 L 81.0 108.0 L 81.0 109.0 L 80.66666666666667 110.0 L 80.33333333333333 111.0 L 80.0 112.0 L 80.33333333333333 112.66666666666667 L 81.0 113.0 L 82.0 113.0 L 83.0 113.0 L 84.0 113.0 L 85.0 113.0 L 86.0 113.0 L 87.0 113.0 L 88.0 113.0 L 89.0 113.0 L 90.0 113.0 L 90.5 113.0 Z" stroke="none" fill="rgb(255,251,0)" />
<path d="M 24.5 124.0 L 25.0 124.0 L 26.0 124.0 L 27.0 124.0 L 28.0 124.0 L 28.666666666666668 123.66666666666667 L 29.0 123.0 L 29.0 122.0 L 29.0 121.0 L 29.0 120.0 L 29.0 119.0 L 29.0 118.0 L 29.0 117.0 L 29.0 116.0 L 29.0 115.0 L 28.666666666666668 114.33333333333333 L 28.0 114.0 L 27.0 114.0 L 26.0 114.0 L 25.0 114.0 L 24.0 114.0 L 23.0 114.0 L 22.0 114.0 L 21.0 114.0 L 20.0 114.0 L 19.0 114.0 L 18.0 114.0 L 17.0 114.0 L 16.0 114.0 L 15.0 114.0 L 14.0 114.0 L 13.0 114.33333333333333 L 12.333333333333334 115.0 L 12.0 116.0 L 12.0 117.0 L 12.0 118.0 L 12.0 119.0 L 12.0 120.0 L 12.0 121.0 L 12.0 122.0 L 12.0 123.0 L 12.333333333333334 123.66666666666667 L 13.0 124.0 L 14.0 124.0 L 15.0 124.0 L 16.0 124.0 L 17.0 124.0 L 18.0 124.0 L 19.0 124.0 L 20.0 124.0 L 21.0 124.0 L 22.0 124.0 L 23.0 124.0 L 23.5 124.0 Z" stroke="none" fill="rgb(55,119,255)" />
<path d="M 111.5 124.0 L 112.0 124.0 L 113.0 124.0 L 114.0 124.0 L 115.0 124.0 L 115.66666666666667 123.66666666666667 L 116.0 123.0 L 116.0 122.0 L 116.0 121.0 L 116.0 120.0 L 116.0 119.0 L 116.0 118.0 L 116.0 117.0 L 116.0 116.0 L 115.66666666666667 115.0 L 115.0 114.33333333333333 L 114.0 114.0 L 113.0 114.0 L 112.0 114.0 L 111.0 114.0 L 110.0 114.0 L 109.0 114.0 L 108.0 114.0 L 107.0 114.0 L 106.0 114.0 L 105.0 114.0 L 104.0 114.0 L 103.0 114.0 L 102.0 114.0 L 101.0 114.0 L 100.0 114.0 L 99.33333333333333 114.33333333333333 L 99.0 115.0 L 99.0 116.0 L 99.0 117.0 L 99.0 118.0 L 99.0 119.0 L 99.0 120.0 L 99.0 121.0 L 99.0 122.0 L 99.0 123.0 L 99.33333333333333 123.66666666666667 L 100.0 124.0 L 101.0 124.0 L 102.0 124.0 L 103.0 124.0 L 104.0 124.0 L 105.0 124.0 L 106.0 124.0 L 107.0 124.0 L 108.0 124.0 L 109.0 124.0 L 110.0 124.0 L 110.5 124.0 Z" stroke="none" fill="rgb(55,119,255)" />
<path d="M 43.5 113.0 L 44.0 113.0 L 45.0 113.0 L 46.0 113.0 L 47.0 113.0 L 47.666666666666664 112.66666666666667 L 48.0 112.0 L 48.0 111.0 L 47.666666666666664 110.0 L 47.333333333333336 109.0 L 47.0 108.0 L 47.0 107.0 L 46.666666666666664 106.0 L 46.333333333333336 105.0 L 46.0 104.0 L 46.0 103.0 L 45.666666666666664 102.0 L 45.333333333333336 101.0 L 45.0 100.0 L 45.0 99.0 L 44.666666666666664 98.0 L 44.0 97.33333333333333 L 43.0 97.0 L 42.0 97.0 L 41.0 97.0 L 40.0 97.33333333333333 L 39.0 97.66666666666667 L 38.0 98.0 L 37.0 98.33333333333333 L 36.333333333333336 99.0 L 36.0 100.0 L 36.0 101.0 L 36.0 102.0 L 36.0 103.0 L 36.0 104.0 L 36.0 105.0 L 36.0 106.0 L 36.0 107.0 L 36.0 108.0 L 36.0 109.0 L 36.0 110.0 L 36.0 111.0 L 36.0 112.0 L 36.333333333333336 112.66666666666667 L 37.0 113.0 L 38.0 113.0 L 39.0 113.0 L 40.0 113.0 L 41.0 113.0 L 42.0 113.0 L 42.5 113.0 Z" stroke="none" fill="rgb(255,251,0)" />
<path d="M 91.5 124.0 L 91.66666666666667 123.66666666666667 L 92.0 123.0 L 92.0 122.0 L 92.0 121.0 L 92.0 120.0 L 92.33333333333333 119.0 L 92.66666666666667 118.0 L 93.0 117.0 L 93.0 116.0 L 93.0 115.0 L 92.66666666666667 114.0 L 92.0 113.33333333333333 L 91.0 113.0 L 90.0 113.0 L 89.0 113.0 L 88.0 113.0 L 87.0 113.0 L 86.0 113.0 L 85.0 113.0 L 84.0 113.0 L 83.0 113.0 L 82.0 113.0 L 81.0 113.0 L 80.0 113.33333333333333 L 79.33333333333333 114.0 L 79.0 115.0 L 79.0 116.0 L 79.0 117.0 L 78.66666666666667 118.0 L 78.33333333333333 119.0 L 78.0 120.0 L 78.0 121.0 L 78.0 122.0 L 78.0 123.0 L 78.33333333333333 123.66666666666667 L 79.0 124.0 L 80.0 124.0 L 81.0 124.0 L 82.0 124.0 L 83.0 124.0 L 84.0 124.0 L 85.0 124.0 L 86.0 124.0 L 87.0 124.0 L 88.0 124.0 L 89.0 124.0 L 90.0 124.0 L 90.5 124.0 Z" stroke="none" fill="rgb(255,243,0)" />
<path d="M 43.5 124.0 L 44.0 124.0 L 45.0 124.0 L 46.0 124.0 L 47.0 124.0 L 48.0 124.0 L 49.0 124.0 L 50.0 124.0 L 50.666666666666664 123.66666666666667 L 51.0 123.0 L 50.666666666666664 122.0 L 50.333333333333336 121.0 L 50.0 120.0 L 50.0 119.0 L 49.666666666666664 118.0 L 49.333333333333336 117.0 L 49.0 116.0 L 49.0 115.0 L 48.666666666666664 114.0 L 48.0 113.33333333333333 L 47.0 113.0 L 46.0 113.0 L 45.0 113.0 L 44.0 113.0 L 43.0 113.0 L 42.0 113.0 L 41.0 113.0 L 40.0 113.0 L 39.0 113.0 L 38.0 113.0 L 37.0 113.0 L 36.333333333333336 113.33333333333333 L 36.0 114.0 L 36.0 115.0 L 36.0 116.0 L 36.0 117.0 L 36.0 118.0 L 36.0 119.0 L 36.0 120.0 L 36.0 121.0 L 36.0 122.0 L 36.0 123.0 L 36.333333333333336 123.66666666666667 L 37.0 124.0 L 38.0 124.0 L 39.0 124.0 L 40.0 124.0 L 41.0 124.0 L 42.0 124.0 L 42.5 124.0 Z" stroke="none" fill="rgb(255,243,0)" />
<path d="M 59.5 83.0 L 60.0 83.0 L 61.0 83.33333333333333 L 62.0 83.66666666666667 L 63.0 84.0 L 64.0 84.0 L 65.0 84.0 L 66.0 84.0 L 67.0 84.0 L 68.0 84.0 L 69.0 83.66666666666667 L 70.0 83.33333333333333 L 71.0 82.66666666666667 L 72.0 82.0 L 73.0 81.0 L 74.0 80.0 L 74.66666666666667 79.0 L 75.0 78.0 L 75.0 77.0 L 74.66666666666667 76.33333333333333 L 74.0 76.0 L 73.0 76.0 L 72.0 76.33333333333333 L 71.0 76.66666666666667 L 70.0 77.0 L 69.0 77.0 L 68.0 77.0 L 67.0 77.0 L 66.0 77.0 L 65.0 77.0 L 64.0 77.0 L 63.0 77.0 L 62.0 77.0 L 61.0 77.0 L 60.0 77.0 L 59.0 76.66666666666667 L 58.0 76.33333333333333 L 57.0 76.0 L 56.0 76.0 L 55.0 76.0 L 54.0 76.0 L 53.333333333333336 76.33333333333333 L 53.0 77.0 L 53.0 78.0 L 53.333333333333336 79.0 L 54.0 80.0 L 55.0 81.0 L 56.0 81.66666666666667 L 57.0 82.33333333333333 L 58.0 82.66666666666667 L 58.5 83.0 Z" stroke="none" fill="rgb(94,64,55)" />
<path d="M 24.5 114.0 L 25.0 114.0 L 26.0 114.0 L 27.0 114.0 L 28.0 114.0 L 29.0 114.0 L 29.666666666666668 113.66666666666667 L 30.0 113.0 L 29.666666666666668 112.0 L 29.333333333333332 111.0 L 29.0 110.0 L 29.0 109.0 L 29.0 108.0 L 29.0 107.0 L 29.0 106.0 L 29.0 105.0 L 29.0 104.0 L 29.0 103.0 L 29.0 102.0 L 28.666666666666668 101.33333333333333 L 28.0 101.0 L 27.0 101.33333333333333 L 26.0 101.66666666666667 L 25.0 102.33333333333333 L 24.0 102.66666666666667 L 23.0 103.33333333333333 L 22.0 103.66666666666667 L 21.0 104.33333333333333 L 20.0 105.0 L 19.0 106.0 L 18.0 106.66666666666667 L 17.0 107.33333333333333 L 16.333333333333332 108.0 L 15.666666666666666 109.0 L 15.0 110.0 L 14.0 111.0 L 13.333333333333334 112.0 L 13.0 113.0 L 13.333333333333334 113.66666666666667 L 14.0 114.0 L 15.0 114.0 L 16.0 114.0 L 17.0 114.0 L 18.0 114.0 L 19.0 114.0 L 20.0 114.0 L 21.0 114.0 L 22.0 114.0 L 23.0 114.0 L 23.5 114.0 Z" stroke="none" fill="rgb(61,128,255)" />
<path d="M 88.5 90.0 L 89.0 89.66666666666667 L 90.0 89.33333333333333 L 91.0 88.66666666666667 L 92.0 88.33333333333333 L 93.0 87.66666666666667 L 94.0 87.66666666666667 L 95.0 87.66666666666667 L 96.0 87.66666666666667 L 97.0 87.33333333333333 L 98.0 87.0 L 99.0 87.0 L 100.0 86.66666666666667 L 101.0 86.33333333333333 L 102.0 85.66666666666667 L 102.66666666666667 85.0 L 103.0 84.0 L 102.66666666666667 83.33333333333333 L 102.0 83.0 L 101.0 83.0 L 100.0 83.0 L 99.0 82.66666666666667 L 98.0 82.0 L 97.0 81.0 L 96.33333333333333 80.0 L 96.0 79.0 L 96.33333333333333 78.0 L 97.0 77.0 L 98.0 76.33333333333333 L 98.66666666666667 75.66666666666667 L 99.0 75.0 L 99.33333333333333 74.0 L 99.66666666666667 73.0 L 100.0 72.0 L 100.0 71.0 L 99.66666666666667 70.33333333333333 L 99.0 70.33333333333333 L 98.0 71.0 L 97.0 71.66666666666667 L 96.0 72.33333333333333 L 95.33333333333333 73.0 L 94.66666666666667 74.0 L 94.33333333333333 75.0 L 93.66666666666667 76.0 L 93.33333333333333 77.0 L 92.66666666666667 78.0 L 92.33333333333333 79.0 L 91.66666666666667 80.0 L 91.0 81.0 L 90.33333333333333 82.0 L 89.66666666666667 83.0 L 89.0 84.0 L 88.0 85.0 L 87.0 86.0 L 86.0 87.0 L 85.33333333333333 88.0 L 85.0 89.0 L 85.33333333333333 89.66666666666667 L 86.0 90.0 L 87.0 90.0 L 87.5 90.0 Z" stroke="none" fill="rgb(85,58,48)" />
<path d="M 65.5 124.0 L 66.0 124.0 L 67.0 124.0 L 68.0 124.0 L 69.0 124.0 L 69.66666666666667 123.66666666666667 L 70.0 123.0 L 70.33333333333333 122.0 L 70.66666666666667 121.0 L 71.0 120.0 L 71.0 119.0 L 71.33333333333333 118.0 L 71.66666666666667 117.0 L 72.0 116.0 L 71.66666666666667 115.0 L 71.0 114.33333333333333 L 70.0 114.0 L 69.0 114.0 L 68.0 114.0 L 67.0 114.0 L 66.0 114.0 L 65.0 114.0 L 64.0 114.0 L 63.0 114.0 L 62.0 114.0 L 61.0 114.0 L 60.0 114.0 L 59.0 114.0 L 58.0 114.0 L 57.333333333333336 114.33333333333333 L 57.0 115.0 L 57.0 116.0 L 57.0 117.0 L 57.0 118.0 L 57.0 119.0 L 57.333333333333336 120.0 L 57.666666666666664 121.0 L 58.0 122.0 L 58.0 123.0 L 58.333333333333336 123.66666666666667 L 59.0 124.0 L 60.0 124.0 L 61.0 124.0 L 62.0 124.0 L 63.0 124.0 L 64.0 124.0 L 64.5 124.0 Z" stroke="none" fill="rgb(55,119,255)" />
<path d="M 36.5 88.5 L 37.0 88.66666666666667 L 38.0 89.33333333333333 L 39.0 89.66666666666667 L 40.0 90.0 L 41.0 90.0 L 42.0 90.0 L 42.666666666666664 89.66666666666667 L 43.0 89.0 L 42.666666666666664 88.0 L 42.0 87.0 L 41.0 86.0 L 40.333333333333336 85.0 L 39.666666666666664 84.0 L 39.0 83.0 L 38.0 82.0 L 37.0 81.0 L 36.333333333333336 80.0 L 35.666666666666664 79.0 L 35.333333333333336 78.0 L 34.666666666666664 77.0 L 34.333333333333336 76.0 L 33.666666666666664 75.0 L 33.333333333333336 74.0 L 32.666666666666664 73.0 L 32.0 72.33333333333333 L 31.0 72.0 L 30.0 72.0 L 29.333333333333332 72.33333333333333 L 29.0 73.0 L 29.333333333333332 74.0 L 30.0 75.0 L 31.0 76.0 L 31.666666666666668 77.0 L 32.0 78.0 L 32.0 79.0 L 32.0 80.0 L 31.666666666666668 81.0 L 31.0 82.0 L 30.0 82.66666666666667 L 29.0 83.0 L 28.0 83.0 L 27.0 83.0 L 26.0 83.0 L 25.333333333333332 83.33333333333333 L 25.0 84.0 L 25.333333333333332 85.0 L 26.0 85.66666666666667 L 27.0 86.33333333333333 L 28.0 86.66666666666667 L 29.0 87.0 L 30.0 87.0 L 31.0 87.33333333333333 L 32.0 87.66666666666667 L 33.0 87.66666666666667 L 34.0 87.66666666666667 L 35.0 87.66666666666667 L 35.5 88.0 Z" stroke="none" fill="rgb(85,58,48)" />
<path d="M 107.5 114.0 L 108.0 114.0 L 109.0 114.0 L 110.0 114.0 L 111.0 114.0 L 112.0 114.0 L 113.0 114.0 L 113.66666666666667 113.66666666666667 L 114.0 113.0 L 114.0 112.0 L 113.66666666666667 111.0 L 113.0 110.0 L 112.0 109.0 L 111.0 108.0 L 110.0 107.0 L 109.0 106.0 L 108.0 105.33333333333333 L 107.0 104.66666666666667 L 106.0 104.33333333333333 L 105.0 103.66666666666667 L 104.0 103.33333333333333 L 103.0 102.66666666666667 L 102.0 102.33333333333333 L 101.0 102.0 L 100.0 102.0 L 99.33333333333333 102.33333333333333 L 99.0 103.0 L 99.0 104.0 L 99.0 105.0 L 99.0 106.0 L 99.0 107.0 L 99.0 108.0 L 99.0 109.0 L 99.0 110.0 L 99.0 111.0 L 99.0 112.0 L 99.0 113.0 L 99.33333333333333 113.66666666666667 L 100.0 114.0 L 101.0 114.0 L 102.0 114.0 L 103.0 114.0 L 104.0 114.0 L 105.0 114.0 L 106.0 114.0 L 106.5 114.0 Z" stroke="none" fill="rgb(61,128,255)" />
<path d="M 52.5 113.0 L 53.0 113.0 L 54.0 113.0 L 54.666666666666664 112.66666666666667 L 55.0 112.0 L 55.0 111.0 L 54.666666666666664 110.0 L 54.333333333333336 109.0 L 54.0 108.0 L 54.0 107.0 L 53.666666666666664 106.0 L 53.333333333333336 105.0 L 53.0 104.0 L 53.0 103.0 L 52.666666666666664 102.0 L 52.333333333333336 101.0 L 52.0 100.0 L 51.666666666666664 99.0 L 51.333333333333336 98.0 L 50.666666666666664 97.0 L 50.0 96.33333333333333 L 49.0 96.0 L 48.0 96.0 L 47.0 96.0 L 46.0 96.33333333333333 L 45.333333333333336 97.0 L 45.0 98.0 L 45.0 99.0 L 45.0 100.0 L 45.0 101.0 L 45.333333333333336 102.0 L 45.666666666666664 103.0 L 46.0 104.0 L 46.0 105.0 L 46.333333333333336 106.0 L 46.666666666666664 107.0 L 47.0 108.0 L 47.0 109.0 L 47.333333333333336 110.0 L 47.666666666666664 111.0 L 48.0 112.0 L 48.0 113.0 L 48.333333333333336 113.66666666666667 L 49.0 113.66666666666667 L 50.0 113.33333333333333 L 51.0 113.0 L 51.5 113.0 Z" stroke="none" fill="rgb(255,140,0)" />
<path d="M 78.5 113.5 L 79.0 113.66666666666667 L 79.66666666666667 113.66666666666667 L 80.0 113.0 L 80.33333333333333 112.0 L 80.66666666666667 111.0 L 81.0 110.0 L 81.0 109.0 L 81.33333333333333 108.0 L 81.66666666666667 107.0 L 82.0 106.0 L 82.0 105.0 L 82.33333333333333 104.0 L 82.66666666666667 103.0 L 83.0 102.0 L 83.0 101.0 L 83.0 100.0 L 83.0 99.0 L 83.0 98.0 L 82.66666666666667 97.33333333333333 L 82.0 96.66666666666667 L 81.0 96.33333333333333 L 80.0 96.0 L 79.0 96.0 L 78.0 96.33333333333333 L 77.33333333333333 97.0 L 76.66666666666667 98.0 L 76.33333333333333 99.0 L 76.0 100.0 L 76.0 101.0 L 75.66666666666667 102.0 L 75.33333333333333 103.0 L 75.0 104.0 L 75.0 105.0 L 74.66666666666667 106.0 L 74.33333333333333 107.0 L 74.0 108.0 L 73.66666666666667 109.0 L 73.33333333333333 110.0 L 73.0 111.0 L 73.0 112.0 L 73.33333333333333 112.66666666666667 L 74.0 113.0 L 75.0 113.0 L 76.0 113.0 L 77.0 113.0 L 77.5 113.0 Z" stroke="none" fill="rgb(255,140,0)" />
<path d="M 32.5 66.5 L 32.666666666666664 66.0 L 33.0 65.0 L 33.0 64.0 L 33.333333333333336 63.0 L 33.666666666666664 62.0 L 34.0 61.0 L 34.0 60.0 L 34.333333333333336 59.0 L 34.666666666666664 58.0 L 35.0 57.0 L 35.0 56.0 L 35.0 55.0 L 35.0 54.0 L 35.0 53.0 L 35.0 52.0 L 35.0 51.0 L 34.666666666666664 50.333333333333336 L 34.0 50.0 L 33.0 50.0 L 32.0 50.0 L 31.0 50.333333333333336 L 30.0 50.666666666666664 L 29.0 51.0 L 28.0 51.333333333333336 L 27.0 51.666666666666664 L 26.333333333333332 52.333333333333336 L 26.0 53.0 L 26.0 54.0 L 26.333333333333332 55.0 L 27.0 55.666666666666664 L 28.0 56.333333333333336 L 28.666666666666668 57.0 L 29.0 58.0 L 29.0 59.0 L 29.0 60.0 L 29.0 61.0 L 29.0 62.0 L 29.333333333333332 63.0 L 29.666666666666668 64.0 L 30.0 65.0 L 30.333333333333332 66.0 L 31.0 66.66666666666667 L 31.5 67.0 Z" stroke="none" fill="rgb(85,58,48)" />
<path d="M 36.0 113.5 L 36.0 113.0 L 36.0 112.0 L 36.0 111.0 L 36.0 110.0 L 36.0 109.0 L 36.0 108.0 L 36.0 107.0 L 36.0 106.0 L 36.0 105.0 L 36.0 104.0 L 36.0 103.0 L 36.0 102.0 L 36.0 101.0 L 35.666666666666664 100.0 L 35.0 99.33333333333333 L 34.0 99.0 L 33.0 99.33333333333333 L 32.0 99.66666666666667 L 31.0 100.0 L 30.0 100.33333333333333 L 29.333333333333332 101.0 L 29.0 102.0 L 29.0 103.0 L 29.0 104.0 L 29.0 105.0 L 29.0 106.0 L 29.0 107.0 L 29.0 108.0 L 29.0 109.0 L 29.0 110.0 L 29.0 111.0 L 29.333333333333332 112.0 L 30.0 112.66666666666667 L 31.0 113.0 L 32.0 113.0 L 33.0 113.0 L 34.0 113.33333333333333 L 35.0 113.66666666666667 L 35.5 114.0 Z" stroke="none" fill="rgb(255,140,0)" />
<path d="M 99.0 63.5 L 99.0 63.0 L 99.33333333333333 62.0 L 99.66666666666667 61.0 L 100.33333333333333 60.0 L 101.0 59.333333333333336 L 102.0 59.0 L 102.66666666666667 58.666666666666664 L 103.0 58.0 L 103.0 57.0 L 103.0 56.0 L 102.66666666666667 55.0 L 102.33333333333333 54.0 L 102.0 53.0 L 101.66666666666667 52.0 L 101.0 51.333333333333336 L 100.0 50.666666666666664 L 99.0 50.333333333333336 L 98.0 50.0 L 97.0 50.0 L 96.0 50.0 L 95.33333333333333 50.333333333333336 L 95.0 51.0 L 95.0 52.0 L 95.0 53.0 L 95.0 54.0 L 95.0 55.0 L 95.0 56.0 L 95.0 57.0 L 95.0 58.0 L 95.0 59.0 L 95.0 60.0 L 95.0 61.0 L 95.0 62.0 L 95.0 63.0 L 95.33333333333333 64.0 L 96.0 64.66666666666667 L 97.0 65.0 L 98.0 64.66666666666667 L 98.5 64.5 Z" stroke="none" fill="rgb(85,58,48)" />
<path d="M 27.5 74.5 L 28.0 75.0 L 29.0 75.66666666666667 L 30.0 76.0 L 30.666666666666668 75.66666666666667 L 30.666666666666668 75.0 L 30.0 74.0 L 29.666666666666668 73.0 L 29.666666666666668 72.0 L 29.666666666666668 71.0 L 29.333333333333332 70.0 L 28.666666666666668 69.0 L 28.0 68.0 L 27.333333333333332 67.0 L 26.666666666666668 66.0 L 26.333333333333332 65.0 L 26.0 64.0 L 26.0 63.0 L 26.0 62.0 L 26.0 61.0 L 26.0 60.0 L 26.333333333333332 59.0 L 26.666666666666668 58.0 L 27.0 57.0 L 27.0 56.0 L 26.666666666666668 55.0 L 26.333333333333332 54.0 L 25.666666666666668 53.333333333333336 L 25.0 53.0 L 24.0 53.333333333333336 L 23.333333333333332 54.0 L 23.0 55.0 L 23.0 56.0 L 23.0 57.0 L 23.0 58.0 L 23.0 59.0 L 23.0 60.0 L 23.0 61.0 L 23.0 62.0 L 23.0 63.0 L 23.0 64.0 L 23.0 65.0 L 23.0 66.0 L 23.0 67.0 L 23.333333333333332 68.0 L 23.666666666666668 69.0 L 24.333333333333332 70.0 L 24.666666666666668 71.0 L 25.333333333333332 72.0 L 26.0 73.0 L 26.5 73.5 Z" stroke="none" fill="rgb(94,64,55)" />
<path d="M 107.0 62.5 L 107.0 62.0 L 106.66666666666667 61.0 L 106.33333333333333 60.0 L 106.0 59.0 L 106.0 58.0 L 106.0 57.0 L 106.0 56.0 L 105.66666666666667 55.0 L 105.0 54.0 L 104.0 53.333333333333336 L 103.0 53.0 L 102.33333333333333 53.333333333333336 L 102.0 54.0 L 102.33333333333333 55.0 L 102.66666666666667 56.0 L 103.0 57.0 L 102.66666666666667 58.0 L 102.33333333333333 59.0 L 102.0 60.0 L 102.0 61.0 L 102.0 62.0 L 102.0 63.0 L 102.0 64.0 L 102.0 65.0 L 101.66666666666667 66.0 L 101.33333333333333 67.0 L 101.0 68.0 L 100.66666666666667 69.0 L 100.33333333333333 70.0 L 100.0 71.0 L 99.66666666666667 72.0 L 99.0 73.0 L 98.33333333333333 74.0 L 98.33333333333333 74.66666666666667 L 99.0 75.0 L 100.0 74.66666666666667 L 101.0 74.0 L 102.0 73.0 L 102.66666666666667 72.0 L 103.33333333333333 71.0 L 104.0 70.0 L 104.66666666666667 69.0 L 105.33333333333333 68.0 L 105.66666666666667 67.0 L 106.0 66.0 L 106.0 65.0 L 106.33333333333333 64.0 L 106.5 63.5 Z" stroke="none" fill="rgb(94,64,55)" />
<path d="M 95.5 113.0 L 96.0 113.0 L 97.0 113.33333333333333 L 98.0 113.66666666666667 L 98.66666666666667 113.66666666666667 L 99.0 113.0 L 99.0 112.0 L 99.0 111.0 L 99.0 110.0 L 99.0 109.0 L 99.0 108.0 L 99.0 107.0 L 99.0 106.0 L 99.0 105.0 L 99.0 104.0 L 99.0 103.0 L 99.0 102.0 L 98.66666666666667 101.0 L 98.0 100.33333333333333 L 97.0 100.0 L 96.0 99.66666666666667 L 95.0 99.33333333333333 L 94.0 99.0 L 93.33333333333333 99.33333333333333 L 93.0 100.0 L 93.0 101.0 L 93.0 102.0 L 93.0 103.0 L 93.0 104.0 L 93.0 105.0 L 93.0 106.0 L 93.0 107.0 L 93.0 108.0 L 93.0 109.0 L 93.0 110.0 L 93.0 111.0 L 93.0 112.0 L 93.33333333333333 112.66666666666667 L 94.0 113.0 L 94.5 113.0 Z" stroke="none" fill="rgb(255,140,0)" />
<path d="M 56.5 124.0 L 57.0 124.0 L 57.666666666666664 123.66666666666667 L 58.0 123.0 L 58.0 122.0 L 58.0 121.0 L 57.666666666666664 120.0 L 57.333333333333336 119.0 L 57.0 118.0 L 57.0 117.0 L 57.0 116.0 L 56.666666666666664 115.0 L 56.0 114.0 L 55.0 113.33333333333333 L 54.0 113.0 L 53.0 113.0 L 52.0 113.0 L 51.0 113.0 L 50.0 113.0 L 49.333333333333336 113.33333333333333 L 49.0 114.0 L 49.0 115.0 L 49.0 116.0 L 49.0 117.0 L 49.333333333333336 118.0 L 49.666666666666664 119.0 L 50.0 120.0 L 50.0 121.0 L 50.333333333333336 122.0 L 50.666666666666664 123.0 L 51.333333333333336 123.66666666666667 L 52.0 124.0 L 53.0 124.0 L 54.0 124.0 L 55.0 124.0 L 55.5 124.0 Z" stroke="none" fill="rgb(255,128,0)" />
<path d="M 78.0 123.5 L 78.0 123.0 L 78.0 122.0 L 78.0 121.0 L 78.33333333333333 120.0 L 78.66666666666667 119.0 L 79.0 118.0 L 79.0 117.0 L 79.0 116.0 L 79.0 115.0 L 79.0 114.0 L 78.66666666666667 113.33333333333333 L 78.0 113.0 L 77.0 113.0 L 76.0 113.0 L 75.0 113.0 L 74.0 113.0 L 73.0 113.33333333333333 L 72.33333333333333 114.0 L 72.0 115.0 L 71.66666666666667 116.0 L 71.33333333333333 117.0 L 71.0 118.0 L 71.0 119.0 L 70.66666666666667 120.0 L 70.33333333333333 121.0 L 70.0 122.0 L 70.0 123.0 L 70.33333333333333 123.66666666666667 L 71.0 124.0 L 72.0 124.0 L 73.0 124.0 L 74.0 124.0 L 75.0 124.0 L 76.0 124.0 L 77.0 124.0 L 77.5 124.0 Z" stroke="none" fill="rgb(255,128,0)" />
<path d="M 53.0 61.5 L 53.0 61.0 L 53.0 60.0 L 53.0 59.0 L 53.0 58.0 L 53.0 57.0 L 52.666666666666664 56.0 L 52.0 55.0 L 51.0 54.333333333333336 L 50.0 54.0 L 49.0 54.0 L 48.0 54.0 L 47.0 54.0 L 46.0 54.333333333333336 L 45.0 55.0 L 44.333333333333336 56.0 L 44.0 57.0 L 44.0 58.0 L 44.0 59.0 L 44.0 60.0 L 44.333333333333336 61.0 L 45.0 62.0 L 46.0 63.0 L 47.0 63.666666666666664 L 48.0 64.0 L 49.0 64.0 L 50.0 64.0 L 51.0 63.666666666666664 L 52.0 63.0 L 52.5 62.5 Z" stroke="none" fill="rgb(73,54,46)" />
<path d="M 81.5 64.0 L 82.0 63.666666666666664 L 83.0 63.0 L 83.66666666666667 62.0 L 84.0 61.0 L 84.0 60.0 L 84.0 59.0 L 84.0 58.0 L 84.0 57.0 L 83.66666666666667 56.0 L 83.0 55.0 L 82.0 54.333333333333336 L 81.0 54.0 L 80.0 54.0 L 79.0 54.0 L 78.0 54.333333333333336 L 77.0 54.666666666666664 L 76.0 55.333333333333336 L 75.33333333333333 56.0 L 75.0 57.0 L 75.0 58.0 L 75.0 59.0 L 75.0 60.0 L 75.33333333333333 61.0 L 76.0 62.0 L 77.0 63.0 L 78.0 63.666666666666664 L 79.0 64.0 L 80.0 64.0 L 80.5 64.0 Z" stroke="none" fill="rgb(73,54,46)" />
<path d="M 36.0 123.5 L 36.0 123.0 L 36.0 122.0 L 36.0 121.0 L 36.0 120.0 L 36.0 119.0 L 36.0 118.0 L 36.0 117.0 L 36.0 116.0 L 36.0 115.0 L 35.666666666666664 114.0 L 35.0 113.33333333333333 L 34.0 113.0 L 33.0 113.0 L 32.0 113.0 L 31.0 113.0 L 30.0 113.33333333333333 L 29.333333333333332 114.0 L 29.0 115.0 L 29.0 116.0 L 29.0 117.0 L 29.0 118.0 L 29.0 119.0 L 29.0 120.0 L 29.0 121.0 L 29.0 122.0 L 29.0 123.0 L 29.333333333333332 123.66666666666667 L 30.0 124.0 L 31.0 124.0 L 32.0 124.0 L 33.0 124.0 L 34.0 124.0 L 35.0 124.0 L 35.5 124.0 Z" stroke="none" fill="rgb(255,128,0)" />
<path d="M 95.5 124.0 L 96.0 124.0 L 97.0 124.0 L 98.0 124.0 L 98.66666666666667 123.66666666666667 L 99.0 123.0 L 99.0 122.0 L 99.0 121.0 L 99.0 120.0 L 99.0 119.0 L 99.0 118.0 L 99.0 117.0 L 99.0 116.0 L 99.0 115.0 L 98.66666666666667 114.0 L 98.0 113.33333333333333 L 97.0 113.0 L 96.0 113.0 L 95.0 113.0 L 94.0 113.0 L 93.33333333333333 113.33333333333333 L 93.0 114.0 L 93.0 115.0 L 93.0 116.0 L 92.66666666666667 117.0 L 92.33333333333333 118.0 L 92.0 119.0 L 92.0 120.0 L 92.0 121.0 L 92.0 122.0 L 92.0 123.0 L 92.33333333333333 123.66666666666667 L 93.0 124.0 L 94.0 124.0 L 94.5 124.0 Z" stroke="none" fill="rgb(255,128,0)" />
<path d="M 52.5 24.5 L 53.0 24.666666666666668 L 54.0 24.666666666666668 L 54.666666666666664 24.0 L 54.666666666666664 23.0 L 54.333333333333336 22.0 L 54.0 21.0 L 54.0 20.0 L 54.0 19.0 L 54.0 18.0 L 54.0 17.0 L 54.0 16.0 L 54.0 15.0 L 54.0 14.0 L 54.0 13.0 L 54.0 12.0 L 54.0 11.0 L 54.0 10.0 L 54.0 9.0 L 53.666666666666664 8.333333333333334 L 53.0 8.0 L 52.0 8.333333333333334 L 51.0 8.666666666666666 L 50.0 9.0 L 49.0 9.0 L 48.0 9.333333333333334 L 47.333333333333336 10.0 L 47.333333333333336 11.0 L 48.0 12.0 L 48.666666666666664 13.0 L 49.0 14.0 L 49.333333333333336 15.0 L 50.0 16.0 L 50.666666666666664 17.0 L 51.0 18.0 L 51.333333333333336 19.0 L 51.666666666666664 20.0 L 52.0 21.0 L 52.0 22.0 L 52.0 23.0 L 52.0 23.5 Z" stroke="none" fill="rgb(246,212,0)" />
<path d="M 53.5 52.0 L 54.0 52.0 L 55.0 51.666666666666664 L 55.666666666666664 51.0 L 56.0 50.0 L 55.666666666666664 49.0 L 55.0 48.0 L 54.0 47.333333333333336 L 53.0 47.0 L 52.0 47.0 L 51.0 47.0 L 50.0 47.0 L 49.0 47.0 L 48.0 47.0 L 47.0 47.0 L 46.0 47.0 L 45.0 47.333333333333336 L 44.0 47.666666666666664 L 43.0 48.333333333333336 L 42.0 48.666666666666664 L 41.333333333333336 49.333333333333336 L 41.0 50.0 L 41.333333333333336 51.0 L 42.0 51.666666666666664 L 43.0 52.0 L 44.0 52.0 L 45.0 52.0 L 46.0 51.666666666666664 L 47.0 51.333333333333336 L 48.0 51.0 L 49.0 51.0 L 50.0 51.0 L 51.0 51.0 L 52.0 51.333333333333336 L 52.5 51.5 Z" stroke="none" fill="rgb(98,63,49)" />
<path d="M 76.5 24.0 L 76.66666666666667 23.666666666666668 L 77.0 23.0 L 77.0 22.0 L 77.0 21.0 L 77.33333333333333 20.0 L 77.66666666666667 19.0 L 78.33333333333333 18.0 L 78.66666666666667 17.0 L 79.33333333333333 16.0 L 79.66666666666667 15.0 L 80.0 14.0 L 80.33333333333333 13.0 L 81.0 12.0 L 81.66666666666667 11.0 L 81.66666666666667 10.0 L 81.0 9.333333333333334 L 80.0 9.0 L 79.0 9.0 L 78.0 8.666666666666666 L 77.0 8.333333333333334 L 76.0 8.0 L 75.33333333333333 8.333333333333334 L 75.0 9.0 L 75.0 10.0 L 75.0 11.0 L 75.0 12.0 L 75.0 13.0 L 75.0 14.0 L 75.0 15.0 L 75.0 16.0 L 75.0 17.0 L 75.0 18.0 L 75.0 19.0 L 75.0 20.0 L 75.0 21.0 L 75.0 22.0 L 75.0 23.0 L 75.33333333333333 23.666666666666668 L 75.5 24.0 Z" stroke="none" fill="rgb(246,212,0)" />
<path d="M 82.5 51.0 L 83.0 51.333333333333336 L 84.0 51.666666666666664 L 85.0 52.0 L 86.0 51.666666666666664 L 86.66666666666667 51.0 L 87.0 50.0 L 86.66666666666667 49.333333333333336 L 86.0 48.666666666666664 L 85.0 48.0 L 84.0 47.333333333333336 L 83.0 47.0 L 82.0 47.0 L 81.0 47.0 L 80.0 47.0 L 79.0 47.0 L 78.0 47.0 L 77.0 47.0 L 76.0 47.333333333333336 L 75.0 47.666666666666664 L 74.0 48.333333333333336 L 73.0 49.0 L 72.33333333333333 50.0 L 72.33333333333333 51.0 L 73.0 51.666666666666664 L 74.0 52.0 L 75.0 52.0 L 76.0 52.0 L 77.0 51.666666666666664 L 78.0 51.333333333333336 L 79.0 51.0 L 80.0 51.0 L 81.0 51.0 L 81.5 51.0 Z" stroke="none" fill="rgb(98,63,49)" />
<path d="M 30.5 72.0 L 31.0 72.0 L 31.666666666666668 71.66666666666667 L 32.0 71.0 L 32.0 70.0 L 32.0 69.0 L 32.0 68.0 L 31.666666666666668 67.0 L 31.0 66.0 L 30.333333333333332 65.0 L 30.0 64.0 L 29.666666666666668 63.0 L 29.333333333333332 62.0 L 29.0 61.0 L 29.0 60.0 L 29.0 59.0 L 29.0 58.0 L 29.0 57.0 L 28.666666666666668 56.333333333333336 L 28.0 56.0 L 27.333333333333332 56.333333333333336 L 26.666666666666668 57.0 L 26.333333333333332 58.0 L 26.0 59.0 L 26.0 60.0 L 26.0 61.0 L 26.0 62.0 L 26.0 63.0 L 26.0 64.0 L 26.0 65.0 L 26.333333333333332 66.0 L 26.666666666666668 67.0 L 27.333333333333332 68.0 L 28.0 69.0 L 28.666666666666668 70.0 L 29.333333333333332 71.0 L 29.5 71.5 Z" stroke="none" fill="rgb(152,104,80)" />
<path d="M 98.5 71.5 L 99.0 71.0 L 100.0 70.33333333333333 L 100.66666666666667 69.66666666666667 L 101.0 69.0 L 101.33333333333333 68.0 L 101.66666666666667 67.0 L 102.0 66.0 L 102.0 65.0 L 102.0 64.0 L 102.0 63.0 L 102.0 62.0 L 102.0 61.0 L 102.0 60.0 L 101.66666666666667 59.333333333333336 L 101.0 59.0 L 100.33333333333333 59.333333333333336 L 99.66666666666667 60.0 L 99.33333333333333 61.0 L 99.0 62.0 L 98.66666666666667 63.0 L 98.0 64.0 L 97.33333333333333 65.0 L 97.0 66.0 L 97.0 67.0 L 96.66666666666667 68.0 L 96.33333333333333 69.0 L 96.0 70.0 L 96.0 71.0 L 96.33333333333333 71.66666666666667 L 97.0 72.0 L 97.5 72.0 Z" stroke="none" fill="rgb(152,104,80)" />
<path d="M 43.5 95.0 L 44.0 95.0 L 45.0 95.0 L 46.0 95.33333333333333 L 47.0 95.66666666666667 L 48.0 96.0 L 49.0 96.33333333333333 L 50.0 96.66666666666667 L 51.0 97.0 L 52.0 96.66666666666667 L 53.0 96.33333333333333 L 53.666666666666664 95.66666666666667 L 53.666666666666664 95.0 L 53.0 94.33333333333333 L 52.0 93.66666666666667 L 51.0 93.33333333333333 L 50.0 92.66666666666667 L 49.0 92.33333333333333 L 48.0 92.0 L 47.0 92.0 L 46.0 92.0 L 45.0 92.0 L 44.0 92.0 L 43.0 92.0 L 42.0 91.66666666666667 L 41.0 91.33333333333333 L 40.0 91.0 L 39.333333333333336 91.33333333333333 L 39.0 92.0 L 39.333333333333336 93.0 L 40.0 93.66666666666667 L 41.0 94.0 L 42.0 94.33333333333333 L 42.5 94.5 Z" stroke="none" fill="rgb(106,74,62)" />
<path d="M 78.5 96.5 L 79.0 96.33333333333333 L 80.0 96.0 L 81.0 95.66666666666667 L 82.0 95.33333333333333 L 83.0 95.0 L 84.0 95.0 L 85.0 94.66666666666667 L 86.0 94.33333333333333 L 87.0 94.0 L 88.0 93.66666666666667 L 89.0 93.33333333333333 L 89.66666666666667 92.66666666666667 L 90.0 92.0 L 89.66666666666667 91.33333333333333 L 89.0 91.0 L 88.0 91.0 L 87.0 91.33333333333333 L 86.0 91.66666666666667 L 85.0 92.0 L 84.0 92.0 L 83.0 92.0 L 82.0 92.0 L 81.0 92.0 L 80.0 92.33333333333333 L 79.0 92.66666666666667 L 78.0 93.33333333333333 L 77.0 93.66666666666667 L 76.33333333333333 94.33333333333333 L 76.0 95.0 L 76.33333333333333 96.0 L 77.0 96.66666666666667 L 77.5 97.0 Z" stroke="none" fill="rgb(106,74,62)" />
<path d="M 33.5 89.5 L 34.0 90.0 L 35.0 90.66666666666667 L 36.0 91.33333333333333 L 37.0 91.66666666666667 L 38.0 92.0 L 39.0 91.66666666666667 L 40.0 91.66666666666667 L 41.0 91.66666666666667 L 42.0 92.0 L 43.0 92.0 L 44.0 92.0 L 45.0 92.0 L 45.666666666666664 91.66666666666667 L 45.666666666666664 91.0 L 45.0 90.0 L 44.0 89.33333333333333 L 43.0 89.33333333333333 L 42.0 89.66666666666667 L 41.0 90.0 L 40.0 89.66666666666667 L 39.0 89.33333333333333 L 38.0 88.66666666666667 L 37.0 88.33333333333333 L 36.0 87.66666666666667 L 35.0 87.33333333333333 L 34.0 87.0 L 33.333333333333336 87.33333333333333 L 33.0 88.0 L 33.0 88.5 Z" stroke="none" fill="rgb(94,64,55)" />
<path d="M 94.5 89.5 L 94.66666666666667 89.0 L 95.0 88.0 L 94.66666666666667 87.33333333333333 L 94.0 87.0 L 93.0 87.33333333333333 L 92.0 87.66666666666667 L 91.0 88.33333333333333 L 90.0 88.66666666666667 L 89.0 89.33333333333333 L 88.0 89.66666666666667 L 87.0 90.0 L 86.0 90.0 L 85.0 90.0 L 84.0 90.0 L 83.33333333333333 90.33333333333333 L 83.0 91.0 L 83.33333333333333 91.66666666666667 L 84.0 92.0 L 85.0 92.0 L 86.0 92.0 L 87.0 91.66666666666667 L 88.0 91.33333333333333 L 89.0 91.33333333333333 L 90.0 91.66666666666667 L 91.0 91.66666666666667 L 92.0 91.33333333333333 L 93.0 90.66666666666667 L 93.5 90.5 Z" stroke="none" fill="rgb(94,64,55)" />
<path d="M 61.5 72.0 L 62.0 72.0 L 63.0 72.0 L 64.0 72.0 L 65.0 72.0 L 66.0 72.0 L 67.0 71.66666666666667 L 67.66666666666667 71.0 L 68.0 70.0 L 68.0 69.0 L 67.66666666666667 68.33333333333333 L 67.0 68.0 L 66.0 68.0 L 65.0 68.0 L 64.0 68.0 L 63.0 68.0 L 62.0 68.0 L 61.0 68.0 L 60.333333333333336 68.33333333333333 L 60.0 69.0 L 60.0 70.0 L 60.333333333333336 71.0 L 60.5 71.5 Z" stroke="none" fill="rgb(152,104,80)" />
<path d="M 98.5 83.0 L 99.0 83.0 L 100.0 83.0 L 101.0 83.0 L 102.0 83.0 L 102.66666666666667 82.66666666666667 L 103.0 82.0 L 102.66666666666667 81.33333333333333 L 102.0 80.66666666666667 L 101.0 80.33333333333333 L 100.0 79.66666666666667 L 99.33333333333333 79.0 L 99.0 78.0 L 99.0 77.0 L 98.66666666666667 76.33333333333333 L 98.0 76.0 L 97.0 76.33333333333333 L 96.33333333333333 77.0 L 96.0 78.0 L 96.0 79.0 L 96.0 80.0 L 96.33333333333333 81.0 L 97.0 82.0 L 97.5 82.5 Z" stroke="none" fill="rgb(106,74,62)" />
<path d="M 31.5 82.5 L 31.666666666666668 82.0 L 32.0 81.0 L 32.0 80.0 L 32.0 79.0 L 32.0 78.0 L 31.666666666666668 77.0 L 31.0 76.33333333333333 L 30.0 76.0 L 29.333333333333332 76.33333333333333 L 29.0 77.0 L 29.0 78.0 L 28.666666666666668 79.0 L 28.0 79.66666666666667 L 27.0 80.33333333333333 L 26.333333333333332 81.0 L 26.0 82.0 L 26.333333333333332 82.66666666666667 L 27.0 83.0 L 28.0 83.0 L 29.0 83.0 L 30.0 83.0 L 30.5 83.0 Z" stroke="none" fill="rgb(106,74,62)" />
<path d="M 23.0 63.5 L 23.0 63.0 L 23.0 62.0 L 23.0 61.0 L 23.0 60.0 L 23.0 59.0 L 23.0 58.0 L 23.0 57.0 L 23.0 56.0 L 22.666666666666668 55.333333333333336 L 22.0 55.0 L 21.0 55.333333333333336 L 20.333333333333332 56.0 L 20.0 57.0 L 20.0 58.0 L 20.333333333333332 59.0 L 20.666666666666668 60.0 L 21.0 61.0 L 21.0 62.0 L 21.333333333333332 63.0 L 22.0 63.666666666666664 L 22.5 64.0 Z" stroke="none" fill="rgb(106,74,62)" />
<path d="M 108.0 59.5 L 108.0 59.0 L 108.0 58.0 L 108.0 57.0 L 107.66666666666667 56.333333333333336 L 107.0 56.0 L 106.33333333333333 56.333333333333336 L 106.0 57.0 L 106.0 58.0 L 106.0 59.0 L 106.0 60.0 L 106.33333333333333 60.666666666666664 L 107.0 60.666666666666664 L 107.5 60.5 Z" stroke="none" fill="rgb(106,74,62)" />
<path d="M 76.0 28.5 L 76.0 28.0 L 75.66666666666667 27.333333333333332 L 75.0 27.0 L 74.33333333333333 27.333333333333332 L 74.0 28.0 L 74.0 29.0 L 74.33333333333333 29.666666666666668 L 75.0 29.666666666666668 L 75.5 29.5 Z" stroke="none" fill="rgb(255,234,0)" />
<path d="M 53.5 30.0 L 54.0 30.0 L 54.666666666666664 29.666666666666668 L 55.0 29.0 L 54.666666666666664 28.333333333333332 L 54.0 28.0 L 53.333333333333336 28.333333333333332 L 53.0 29.0 L 53.0 29.5 Z" stroke="none" fill="rgb(255,234,0)" />
<path d="M 26.0 82.5 L 26.0 82.0 L 25.666666666666668 81.33333333333333 L 25.0 81.0 L 24.333333333333332 81.33333333333333 L 24.0 82.0 L 24.333333333333332 82.66666666666667 L 25.0 83.0 L 25.5 83.0 Z" stroke="none" fill="rgb(0,0,0)" />
<path d="M 23.0 66.5 L 23.0 66.0 L 23.0 65.0 L 22.666666666666668 64.33333333333333 L 22.333333333333332 64.33333333333333 L 22.0 65.0 L 22.0 66.0 L 22.333333333333332 66.66666666666667 L 22.5 67.0 Z" stroke="none" fill="rgb(0,0,0)" />
<path d="M 103.5 83.0 L 103.66666666666667 82.66666666666667 L 104.0 82.0 L 103.66666666666667 81.33333333333333 L 103.33333333333333 81.33333333333333 L 103.0 82.0 L 103.0 82.5 Z" stroke="none" fill="rgb(0,0,0)" />
<path d="M 89.5 14.0 L 89.66666666666667 13.666666666666666 L 89.66666666666667 13.333333333333334 L 89.33333333333333 13.333333333333334 L 89.0 13.5 Z" stroke="none" fill="rgb(0,0,0)" />
<path d="M 91.0 14.5 L 90.66666666666667 14.333333333333334 L 90.33333333333333 14.333333333333334 L 90.33333333333333 14.666666666666666 L 90.5 15.0 Z" stroke="none" fill="rgb(0,0,0)" />
<path d="M 20.5 60.0 L 20.666666666666668 59.666666666666664 L 20.666666666666668 59.333333333333336 L 20.333333333333332 59.333333333333336 L 20.0 59.5 Z" stroke="none" fill="rgb(0,0,0)" />
<path d="M 22.0 63.5 L 21.666666666666668 63.333333333333336 L 21.333333333333332 63.333333333333336 L 21.333333333333332 63.666666666666664 L 21.5 64.0 Z" stroke="none" fill="rgb(0,0,0)" />
<path d="M 106.5 64.0 L 106.66666666666667 63.666666666666664 L 106.66666666666667 63.333333333333336 L 106.33333333333333 63.333333333333336 L 106.0 63.5 Z" stroke="none" fill="rgb(0,0,0)" />
<path d="M 24.0 68.5 L 23.666666666666668 68.33333333333333 L 23.333333333333332 68.33333333333333 L 23.333333333333332 68.66666666666667 L 23.5 69.0 Z" stroke="none" fill="rgb(0,0,0)" />
<path d="M 28.5 76.0 L 28.666666666666668 75.66666666666667 L 28.666666666666668 75.33333333333333 L 28.333333333333332 75.33333333333333 L 28.0 75.5 Z" stroke="none" fill="rgb(0,0,0)" />
<path d="M 99.5 76.0 L 99.66666666666667 75.66666666666667 L 99.66666666666667 75.33333333333333 L 99.33333333333333 75.33333333333333 L 99.0 75.5 Z" stroke="none" fill="rgb(0,0,0)" />
<path d="M 31.5 77.0 L 31.666666666666668 76.66666666666667 L 31.666666666666668 76.33333333333333 L 31.333333333333332 76.33333333333333 L 31.0 76.5 Z" stroke="none" fill="rgb(94,64,55)" />
<path d="M 38.5 93.0 L 38.666666666666664 92.66666666666667 L 38.666666666666664 92.33333333333333 L 38.333333333333336 92.33333333333333 L 38.0 92.5 Z" stroke="none" fill="rgb(0,0,0)" />
<path d="M 44.5 98.0 L 44.666666666666664 97.66666666666667 L 44.666666666666664 97.33333333333333 L 44.333333333333336 97.33333333333333 L 44.0 97.5 Z" stroke="none" fill="rgb(0,0,0)" />
<path d="M 83.5 98.0 L 83.66666666666667 97.66666666666667 L 83.66666666666667 97.33333333333333 L 83.33333333333333 97.33333333333333 L 83.0 97.5 Z" stroke="none" fill="rgb(0,0,0)" />
<path d="M 36.5 99.0 L 36.666666666666664 98.66666666666667 L 36.666666666666664 98.33333333333333 L 36.333333333333336 98.33333333333333 L 36.0 98.5 Z" stroke="none" fill="rgb(0,0,0)" />
<path d="M 36.0 99.5 L 35.666666666666664 99.33333333333333 L 35.333333333333336 99.33333333333333 L 35.333333333333336 99.66666666666667 L 35.5 100.0 Z" stroke="none" fill="rgb(0,0,0)" />
<path d="M 92.5 100.0 L 92.66666666666667 99.66666666666667 L 92.66666666666667 99.33333333333333 L 92.33333333333333 99.33333333333333 L 92.0 99.5 Z" stroke="none" fill="rgb(0,0,0)" />
<path d="M 100.0 101.5 L 99.66666666666667 101.33333333333333 L 99.33333333333333 101.33333333333333 L 99.33333333333333 101.66666666666667 L 99.5 102.0 Z" stroke="none" fill="rgb(0,0,0)" />
<path d="M 115.0 113.5 L 114.66666666666667 113.33333333333333 L 114.33333333333333 113.33333333333333 L 114.33333333333333 113.66666666666667 L 114.5 114.0 Z" stroke="none" fill="rgb(0,0,0)" />
</svg>
