<?xml version="1.0" encoding="UTF-8" standalone="no"?>
<!DOCTYPE svg PUBLIC "-//W3C//DTD SVG 1.1//EN"
"http://www.w3.org/Graphics/SVG/1.1/DTD/svg11.dtd">
<svg width="128" height="128" xmlns="http://www.w3.org/2000/svg" version="1.1">
<path d="M 26.5 128.0 L 27.0 128.0 L 28.0 128.0 L 29.0 128.0 L 30.0 128.0 L 31.0 128.0 L 32.0 128.0 L 33.0 128.0 L 34.0 128.0 L 35.0 128.0 L 36.0 128.0 L 37.0 128.0 L 38.0 128.0 L 39.0 128.0 L 40.0 128.0 L 41.0 128.0 L 42.0 128.0 L 43.0 128.0 L 44.0 128.0 L 45.0 128.0 L 46.0 128.0 L 47.0 128.0 L 48.0 128.0 L 49.0 128.0 L 50.0 128.0 L 51.0 128.0 L 52.0 128.0 L 53.0 128.0 L 54.0 128.0 L 55.0 128.0 L 56.0 128.0 L 57.0 128.0 L 58.0 128.0 L 59.0 128.0 L 60.0 128.0 L 61.0 128.0 L 62.0 128.0 L 63.0 128.0 L 64.0 128.0 L 65.0 128.0 L 66.0 128.0 L 67.0 128.0 L 68.0 128.0 L 69.0 128.0 L 70.0 128.0 L 71.0 128.0 L 72.0 128.0 L 73.0 128.0 L 74.0 128.0 L 75.0 128.0 L 76.0 128.0 L 77.0 128.0 L 78.0 128.0 L 79.0 128.0 L 80.0 128.0 L 81.0 128.0 L 82.0 128.0 L 83.0 128.0 L 84.0 128.0 L 85.0 128.0 L 86.0 128.0 L 87.0 128.0 L 88.0 128.0 L 89.0 128.0 L 90.0 128.0 L 91.0 128.0 L 92.0 128.0 L 93.0 128.0 L 94.0 128.0 L 95.0 128.0 L 96.0 128.0 L 97.0 128.0 L 98.0 128.0 L 99.0 128.0 L 100.0 128.0 L 101.0 128.0 L 102.0 128.0 L 103.0 128.0 L 104.0 128.0 L 105.0 128.0 L 106.0 128.0 L 107.0 128.0 L 108.0 128.0 L 109.0 128.0 L 110.0 128.0 L 111.0 128.0 L 112.0 128.0 L 113.0 128.0 L 114.0 128.0 L 115.0 128.0 L 116.0 128.0 L 117.0 128.0 L 118.0 128.0 L 119.0 128.0 L 120.0 128.0 L 121.0 128.0 L 122.0 128.0 L 123.0 128.0 L 124.0 128.0 L 125.0 128.0 L 126.0 128.0 L 127.0 128.0 L 127.66666666666667 127.66666666666667 L 128.0 127.0 L 128.0 126.0 L 128.0 125.0 L 128.0 124.0 L 128.0 123.0 L 128.0 122.0 L 128.0 121.0 L 128.0 120.0 L 128.0 119.0 L 128.0 118.0 L 128.0 117.0 L 128.0 116.0 L 128.0 115.0 L 128.0 114.0 L 128.0 113.0 L 128.0 112.0 L 128.0 111.0 L 128.0 110.0 L 128.0 109.0 L 128.0 108.0 L 128.0 107.0 L 128.0 106.0 L 128.0 105.0 L 128.0 104.0 L 128.0 103.0 L 128.0 102.0 L 128.0 101.0 L 128.0 100.0 L 128.0 99.0 L 128.0 98.0 L 128.0 97.0 L 128.0 96.0 L 128.0 95.0 L 128.0 94.0 L 128.0 93.0 L 128.0 92.0 L 128.0 91.0 L 128.0 90.0 L 128.0 89.0 L 128.0 88.0 L 128.0 87.0 L 128.0 86.0 L 128.0 85.0 L 128.0 84.0 L 128.0 83.0 L 128.0 82.0 L 128.0 81.0 L 128.0 80.0 L 128.0 79.0 L 128.0 78.0 L 128.0 77.0 L 128.0 76.0 L 128.0 75.0 L 128.0 74.0 L 128.0 73.0 L 128.0 72.0 L 128.0 71.0 L 128.0 70.0 L 128.0 69.0 L 128.0 68.0 L 128.0 67.0 L 128.0 66.0 L 128.0 65.0 L 128.0 64.0 L 128.0 63.0 L 128.0 62.0 L 128.0 61.0 L 128.0 60.0 L 128.0 59.0 L 128.0 58.0 L 128.0 57.0 L 128.0 56.0 L 128.0 55.0 L 128.0 54.0 L 128.0 53.0 L 128.0 52.0 L 128.0 51.0 L 128.0 50.0 L 128.0 49.0 L 128.0 48.0 L 128.0 47.0 L 128.0 46.0 L 128.0 45.0 L 128.0 44.0 L 128.0 43.0 L 128.0 42.0 L 128.0 41.0 L 128.0 40.0 L 128.0 39.0 L 128.0 38.0 L 128.0 37.0 L 128.0 36.0 L 128.0 35.0 L 128.0 34.0 L 128.0 33.0 L 128.0 32.0 L 128.0 31.0 L 128.0 30.0 L 128.0 29.0 L 128.0 28.0 L 128.0 27.0 L 128.0 26.0 L 128.0 25.0 L 128.0 24.0 L 128.0 23.0 L 128.0 22.0 L 128.0 21.0 L 128.0 20.0 L 128.0 19.0 L 128.0 18.0 L 128.0 17.0 L 128.0 16.0 L 128.0 15.0 L 128.0 14.0 L 128.0 13.0 L 128.0 12.0 L 128.0 11.0 L 128.0 10.0 L 128.0 9.0 L 128.0 8.0 L 128.0 7.0 L 128.0 6.0 L 128.0 5.0 L 128.0 4.0 L 128.0 3.0 L 128.0 2.0 L 128.0 1.0 L 127.66666666666667 0.3333333333333333 L 127.0 0.0 L 126.0 0.0 L 125.0 0.0 L 124.0 0.0 L 123.0 0.0 L 122.0 0.0 L 121.0 0.0 L 120.0 0.0 L 119.0 0.0 L 118.0 0.0 L 117.0 0.0 L 116.0 0.0 L 115.0 0.0 L 114.0 0.0 L 113.0 0.0 L 112.0 0.0 L 111.0 0.0 L 110.0 0.0 L 109.0 0.0 L 108.0 0.0 L 107.0 0.0 L 106.0 0.0 L 105.0 0.0 L 104.0 0.0 L 103.0 0.0 L 102.0 0.0 L 101.0 0.0 L 100.0 0.0 L 99.0 0.0 L 98.0 0.0 L 97.0 0.0 L 96.0 0.0 L 95.0 0.0 L 94.0 0.0 L 93.0 0.0 L 92.0 0.0 L 91.0 0.0 L 90.0 0.0 L 89.0 0.0 L 88.0 0.0 L 87.0 0.0 L 86.0 0.0 L 85.0 0.0 L 84.0 0.0 L 83.0 0.0 L 82.0 0.0 L 81.0 0.0 L 80.0 0.0 L 79.0 0.0 L 78.0 0.0 L 77.0 0.0 L 76.0 0.0 L 75.0 0.0 L 74.0 0.0 L 73.0 0.0 L 72.0 0.0 L 71.0 0.0 L 70.0 0.0 L 69.0 0.0 L 68.0 0.0 L 67.0 0.0 L 66.0 0.0 L 65.0 0.0 L 64.0 0.0 L 63.0 0.0 L 62.0 0.0 L 61.0 0.0 L 60.0 0.0 L 59.0 0.0 L 58.0 0.0 L 57.0 0.0 L 56.0 0.0 L 55.0 0.0 L 54.0 0.0 L 53.0 0.0 L 52.0 0.0 L 51.0 0.0 L 50.0 0.0 L 49.0 0.0 L 48.0 0.0 L 47.0 0.0 L 46.0 0.0 L 45.0 0.0 L 44.0 0.0 L 43.0 0.0 L 42.0 0.0 L 41.0 0.0 L 40.0 0.0 L 39.0 0.0 L 38.0 0.0 L 37.0 0.0 L 36.0 0.0 L 35.0 0.0 L 34.0 0.0 L 33.0 0.0 L 32.0 0.0 L 31.0 0.0 L 30.0 0.0 L 29.0 0.0 L 28.0 0.0 L 27.0 0.0 L 26.0 0.0 L 25.0 0.0 L 24.0 0.0 L 23.0 0.0 L 22.0 0.0 L 21.0 0.0 L 20.0 0.0 L 19.0 0.0 L 18.0 0.0 L 17.0 0.0 L 16.0 0.0 L 15.0 0.0 L 14.0 0.0 L 13.0 0.0 L 12.0 0.0 L 11.0 0.0 L 10.0 0.0 L 9.0 0.0 L 8.0 0.0 L 7.0 0.0 L 6.0 0.0 L 5.0 0.0 L 4.0 0.0 L 3.0 0.0 L 2.0 0.0 L 1.0 0.0 L 0.3333333333333333 0.3333333333333333 L 0.0 1.0 L 0.0 2.0 L 0.0 3.0 L 0.0 4.0 L 0.0 5.0 L 0.0 6.0 L 0.0 7.0 L 0.0 8.0 L 0.0 9.0 L 0.0 10.0 L 0.0 11.0 L 0.0 12.0 L 0.0 13.0 L 0.0 14.0 L 0.0 15.0 L 0.0 16.0 L 0.0 17.0 L 0.0 18.0 L 0.0 19.0 L 0.0 20.0 L 0.0 21.0 L 0.0 22.0 L 0.0 23.0 L 0.0 24.0 L 0.0 25.0 L 0.0 26.0 L 0.0 27.0 L 0.0 28.0 L 0.0 29.0 L 0.0 30.0 L 0.0 31.0 L 0.0 32.0 L 0.0 33.0 L 0.0 34.0 L 0.0 35.0 L 0.0 36.0 L 0.0 37.0 L 0.0 38.0 L 0.0 39.0 L 0.0 40.0 L 0.0 41.0 L 0.0 42.0 L 0.0 43.0 L 0.0 44.0 L 0.0 45.0 L 0.0 46.0 L 0.0 47.0 L 0.0 48.0 L 0.0 49.0 L 0.0 50.0 L 0.0 51.0 L 0.0 52.0 L 0.0 53.0 L 0.0 54.0 L 0.0 55.0 L 0.0 56.0 L 0.0 57.0 L 0.0 58.0 L 0.0 59.0 L 0.0 60.0 L 0.0 61.0 L 0.0 62.0 L 0.0 63.0 L 0.0 64.0 L 0.0 65.0 L 0.0 66.0 L 0.0 67.0 L 0.0 68.0 L 0.0 69.0 L 0.0 70.0 L 0.0 71.0 L 0.0 72.0 L 0.0 73.0 L 0.0 74.0 L 0.0 75.0 L 0.0 76.0 L 0.0 77.0 L 0.0 78.0 L 0.0 79.0 L 0.0 80.0 L 0.0 81.0 L 0.0 82.0 L 0.0 83.0 L 0.0 84.0 L 0.0 85.0 L 0.0 86.0 L 0.0 87.0 L 0.0 88.0 L 0.0 89.0 L 0.0 90.0 L 0.0 91.0 L 0.0 92.0 L 0.0 93.0 L 0.0 94.0 L 0.0 95.0 L 0.0 96.0 L 0.0 97.0 L 0.0 98.0 L 0.0 99.0 L 0.0 100.0 L 0.0 101.0 L 0.0 102.0 L 0.0 103.0 L 0.0 104.0 L 0.0 105.0 L 0.0 106.0 L 0.0 107.0 L 0.0 108.0 L 0.0 109.0 L 0.0 110.0 L 0.0 111.0 L 0.0 112.0 L 0.0 113.0 L 0.0 114.0 L 0.0 115.0 L 0.0 116.0 L 0.0 117.0 L 0.0 118.0 L 0.0 119.0 L 0.0 120.0 L 0.0 121.0 L 0.0 122.0 L 0.0 123.0 L 0.0 124.0 L 0.0 125.0 L 0.0 126.0 L 0.0 127.0 L 0.3333333333333333 127.66666666666667 L 1.0 128.0 L 2.0 128.0 L 3.0 128.0 L 4.0 128.0 L 5.0 128.0 L 6.0 128.0 L 7.0 128.0 L 8.0 128.0 L 9.0 128.0 L 10.0 128.0 L 11.0 128.0 L 12.0 128.0 L 13.0 128.0 L 14.0 128.0 L 15.0 128.0 L 16.0 128.0 L 17.0 128.0 L 18.0 128.0 L 19.0 128.0 L 20.0 128.0 L 21.0 128.0 L 22.0 128.0 L 23.0 128.0 L 24.0 128.0 L 25.0 128.0 L 25.5 128.0 Z" stroke="none" fill="rgb(0,0,0)" />
<path d="M 21.5 19.0 L 22.0 19.0 L 23.0 19.0 L 24.0 18.666666666666668 L 25.0 18.333333333333332 L 26.0 18.0 L 27.0 18.0 L 28.0 18.0 L 29.0 18.0 L 30.0 18.0 L 31.0 18.0 L 32.0 18.0 L 33.0 18.0 L 34.0 18.0 L 35.0 18.0 L 36.0 18.0 L 37.0 18.333333333333332 L 38.0 18.666666666666668 L 39.0 19.0 L 39.666666666666664 18.666666666666668 L 40.333333333333336 18.0 L 40.666666666666664 17.0 L 40.666666666666664 16.0 L 40.0 15.333333333333334 L 39.0 15.0 L 38.0 15.0 L 37.0 15.0 L 36.0 15.0 L 35.0 15.0 L 34.0 15.0 L 33.0 15.0 L 32.0 15.0 L 31.0 15.0 L 30.0 15.0 L 29.0 15.0 L 28.0 15.0 L 27.0 15.0 L 26.0 15.0 L 25.0 15.0 L 24.0 15.0 L 23.0 15.0 L 22.0 15.0 L 21.0 15.0 L 20.0 15.0 L 19.0 15.333333333333334 L 18.0 15.666666666666666 L 17.0 16.0 L 16.0 16.0 L 15.0 16.333333333333332 L 14.0 16.666666666666668 L 13.0 17.0 L 12.0 17.333333333333332 L 11.0 17.666666666666668 L 10.0 18.333333333333332 L 9.0 18.666666666666668 L 8.0 19.0 L 7.0 19.0 L 6.0 19.0 L 5.0 19.333333333333332 L 4.333333333333333 20.0 L 4.0 21.0 L 4.0 22.0 L 4.0 23.0 L 4.0 24.0 L 4.0 25.0 L 4.0 26.0 L 4.0 27.0 L 4.0 28.0 L 4.0 29.0 L 4.0 30.0 L 4.0 31.0 L 4.0 32.0 L 4.0 33.0 L 4.0 34.0 L 4.0 35.0 L 4.0 36.0 L 4.0 37.0 L 4.0 38.0 L 4.0 39.0 L 4.0 40.0 L 4.0 41.0 L 4.0 42.0 L 4.0 43.0 L 4.0 44.0 L 4.0 45.0 L 4.0 46.0 L 4.0 47.0 L 4.0 48.0 L 4.0 49.0 L 4.0 50.0 L 4.0 51.0 L 4.0 52.0 L 4.0 53.0 L 4.0 54.0 L 4.0 55.0 L 4.0 56.0 L 4.0 57.0 L 4.0 58.0 L 4.0 59.0 L 4.0 60.0 L 4.0 61.0 L 4.0 62.0 L 4.0 63.0 L 4.0 64.0 L 4.0 65.0 L 4.0 66.0 L 4.333333333333333 66.66666666666667 L 5.0 67.0 L 5.666666666666667 66.66666666666667 L 6.333333333333333 66.0 L 7.0 65.33333333333333 L 8.0 65.0 L 8.666666666666666 64.66666666666667 L 9.0 64.0 L 9.0 63.0 L 9.0 62.0 L 9.0 61.0 L 9.0 60.0 L 9.0 59.0 L 9.0 58.0 L 9.0 57.0 L 9.0 56.0 L 9.0 55.0 L 9.0 54.0 L 9.0 53.0 L 9.0 52.0 L 9.0 51.0 L 9.0 50.0 L 9.0 49.0 L 9.0 48.0 L 9.0 47.0 L 9.0 46.0 L 9.0 45.0 L 9.0 44.0 L 9.0 43.0 L 9.0 42.0 L 9.0 41.0 L 9.0 40.0 L 9.0 39.0 L 9.0 38.0 L 9.0 37.0 L 9.0 36.0 L 9.0 35.0 L 9.0 34.0 L 9.0 33.0 L 9.0 32.0 L 9.0 31.0 L 9.0 30.0 L 9.0 29.0 L 9.0 28.0 L 9.0 27.0 L 9.0 26.0 L 9.0 25.0 L 9.0 24.0 L 9.333333333333334 23.0 L 10.0 22.333333333333332 L 11.0 22.0 L 12.0 21.666666666666668 L 13.0 21.333333333333332 L 14.0 20.666666666666668 L 15.0 20.333333333333332 L 16.0 20.0 L 17.0 20.0 L 18.0 19.666666666666668 L 19.0 19.333333333333332 L 20.0 19.0 L 20.5 19.0 Z" stroke="none" fill="rgb(207,207,207)" />
<path d="M 46.5 20.0 L 47.0 20.0 L 48.0 20.0 L 49.0 20.333333333333332 L 50.0 21.0 L 51.0 21.666666666666668 L 52.0 22.0 L 53.0 22.0 L 54.0 22.0 L 55.0 22.0 L 55.666666666666664 21.666666666666668 L 56.333333333333336 21.0 L 56.666666666666664 20.0 L 56.666666666666664 19.0 L 56.0 18.333333333333332 L 55.0 18.0 L 54.0 17.666666666666668 L 53.0 17.333333333333332 L 52.0 17.0 L 51.0 17.0 L 50.0 16.666666666666668 L 49.0 16.333333333333332 L 48.0 16.0 L 47.0 16.0 L 46.0 16.0 L 45.0 16.0 L 44.0 16.0 L 43.0 16.0 L 42.0 16.0 L 41.0 16.333333333333332 L 40.333333333333336 17.0 L 40.0 18.0 L 40.333333333333336 18.666666666666668 L 41.0 19.0 L 42.0 19.0 L 43.0 19.0 L 44.0 19.333333333333332 L 45.0 19.666666666666668 L 45.5 20.0 Z" stroke="none" fill="rgb(203,203,203)" />
<path d="M 21.5 44.5 L 21.666666666666668 44.0 L 22.333333333333332 43.0 L 23.0 42.0 L 24.0 41.0 L 24.666666666666668 40.0 L 25.333333333333332 39.0 L 26.0 38.0 L 26.666666666666668 37.0 L 27.333333333333332 36.0 L 28.0 35.0 L 29.0 34.0 L 29.666666666666668 33.0 L 30.333333333333332 32.0 L 31.0 31.0 L 31.666666666666668 30.0 L 32.333333333333336 29.0 L 33.0 28.0 L 33.666666666666664 27.0 L 34.333333333333336 26.0 L 35.0 25.0 L 36.0 24.0 L 36.666666666666664 23.0 L 37.333333333333336 22.0 L 38.0 21.0 L 38.666666666666664 20.0 L 38.666666666666664 19.0 L 38.0 18.333333333333332 L 37.0 18.0 L 36.0 18.0 L 35.0 18.0 L 34.0 18.0 L 33.0 18.0 L 32.0 18.0 L 31.0 18.0 L 30.0 18.0 L 29.0 18.0 L 28.0 18.0 L 27.0 18.0 L 26.0 18.0 L 25.0 18.0 L 24.0 18.333333333333332 L 23.0 18.666666666666668 L 22.0 19.0 L 21.0 19.0 L 20.0 19.0 L 19.0 19.0 L 18.0 19.333333333333332 L 17.0 19.666666666666668 L 16.0 20.0 L 15.0 20.0 L 14.0 20.333333333333332 L 13.0 20.666666666666668 L 12.0 21.333333333333332 L 11.0 21.666666666666668 L 10.0 22.0 L 9.333333333333334 22.333333333333332 L 9.0 23.0 L 9.0 24.0 L 9.0 25.0 L 9.0 26.0 L 9.0 27.0 L 9.0 28.0 L 9.0 29.0 L 9.0 30.0 L 9.0 31.0 L 9.0 32.0 L 9.0 33.0 L 9.0 34.0 L 9.0 35.0 L 9.0 36.0 L 9.0 37.0 L 9.0 38.0 L 9.0 39.0 L 9.0 40.0 L 9.0 41.0 L 9.0 42.0 L 9.0 43.0 L 9.0 44.0 L 9.0 45.0 L 9.0 46.0 L 9.0 47.0 L 9.0 48.0 L 9.0 49.0 L 9.0 50.0 L 9.0 51.0 L 9.0 52.0 L 9.0 53.0 L 9.0 54.0 L 9.0 55.0 L 9.0 56.0 L 9.0 57.0 L 9.0 58.0 L 9.0 59.0 L 9.333333333333334 59.666666666666664 L 10.0 59.666666666666664 L 11.0 59.0 L 12.0 58.0 L 12.666666666666666 57.0 L 13.333333333333334 56.0 L 14.0 55.0 L 14.666666666666666 54.0 L 15.333333333333334 53.0 L 16.0 52.0 L 17.0 51.0 L 17.666666666666668 50.0 L 18.333333333333332 49.0 L 19.0 48.0 L 19.666666666666668 47.0 L 20.333333333333332 46.0 L 20.5 45.5 Z" stroke="none" fill="rgb(241,241,241)" />
<path d="M 23.0 62.5 L 23.333333333333332 62.0 L 24.0 61.0 L 24.666666666666668 60.0 L 25.333333333333332 59.0 L 26.0 58.0 L 27.0 57.0 L 27.666666666666668 56.0 L 28.333333333333332 55.0 L 29.0 54.0 L 29.666666666666668 53.0 L 30.333333333333332 52.0 L 31.0 51.0 L 32.0 50.0 L 32.666666666666664 49.0 L 33.333333333333336 48.0 L 34.0 47.0 L 34.666666666666664 46.0 L 35.333333333333336 45.0 L 36.0 44.0 L 36.666666666666664 43.0 L 37.333333333333336 42.0 L 38.0 41.0 L 39.0 40.0 L 39.666666666666664 39.0 L 40.333333333333336 38.0 L 41.0 37.0 L 41.666666666666664 36.0 L 42.333333333333336 35.0 L 43.0 34.0 L 44.0 33.0 L 44.666666666666664 32.0 L 45.333333333333336 31.0 L 46.0 30.0 L 46.666666666666664 29.0 L 47.333333333333336 28.0 L 48.0 27.0 L 48.666666666666664 26.0 L 49.333333333333336 25.0 L 50.0 24.0 L 50.666666666666664 23.0 L 51.0 22.0 L 50.666666666666664 21.0 L 50.0 20.333333333333332 L 49.0 20.0 L 48.0 20.0 L 47.0 20.0 L 46.0 19.666666666666668 L 45.0 19.333333333333332 L 44.0 19.0 L 43.0 19.0 L 42.0 19.0 L 41.0 19.0 L 40.0 19.0 L 39.0 19.333333333333332 L 38.0 20.0 L 37.333333333333336 21.0 L 36.666666666666664 22.0 L 36.0 23.0 L 35.0 24.0 L 34.333333333333336 25.0 L 33.666666666666664 26.0 L 33.0 27.0 L 32.333333333333336 28.0 L 31.666666666666668 29.0 L 31.0 30.0 L 30.333333333333332 31.0 L 29.666666666666668 32.0 L 29.0 33.0 L 28.0 34.0 L 27.333333333333332 35.0 L 26.666666666666668 36.0 L 26.0 37.0 L 25.333333333333332 38.0 L 24.666666666666668 39.0 L 24.0 40.0 L 23.0 41.0 L 22.333333333333332 42.0 L 21.666666666666668 43.0 L 21.0 44.0 L 20.333333333333332 45.0 L 19.666666666666668 46.0 L 19.0 47.0 L 18.333333333333332 48.0 L 17.666666666666668 49.0 L 17.0 50.0 L 16.0 51.0 L 15.333333333333334 52.0 L 14.666666666666666 53.0 L 14.0 54.0 L 13.333333333333334 55.0 L 12.666666666666666 56.0 L 12.0 57.0 L 11.0 58.0 L 10.0 59.0 L 9.333333333333334 60.0 L 9.0 61.0 L 9.0 62.0 L 9.0 63.0 L 8.666666666666666 64.0 L 8.333333333333334 65.0 L 8.0 66.0 L 8.0 67.0 L 8.0 68.0 L 8.0 69.0 L 8.0 70.0 L 8.0 71.0 L 8.0 72.0 L 8.0 73.0 L 8.0 74.0 L 8.0 75.0 L 8.0 76.0 L 8.0 77.0 L 8.0 78.0 L 8.0 79.0 L 8.333333333333334 80.0 L 9.0 80.66666666666667 L 10.0 80.66666666666667 L 10.666666666666666 80.0 L 11.333333333333334 79.0 L 12.0 78.0 L 12.666666666666666 77.0 L 13.333333333333334 76.0 L 14.0 75.0 L 15.0 74.0 L 15.666666666666666 73.0 L 16.333333333333332 72.0 L 17.0 71.0 L 17.666666666666668 70.0 L 18.333333333333332 69.0 L 19.0 68.0 L 20.0 67.0 L 20.666666666666668 66.0 L 21.333333333333332 65.0 L 22.0 64.0 L 22.5 63.5 Z" stroke="none" fill="rgb(238,238,238)" />
<path d="M 63.5 25.0 L 64.0 25.0 L 65.0 25.0 L 66.0 25.333333333333332 L 67.0 25.666666666666668 L 68.0 26.0 L 68.66666666666667 25.666666666666668 L 69.33333333333333 25.0 L 69.66666666666667 24.0 L 69.66666666666667 23.0 L 69.0 22.333333333333332 L 68.0 21.666666666666668 L 67.0 21.333333333333332 L 66.0 21.0 L 65.0 20.666666666666668 L 64.0 20.333333333333332 L 63.0 20.0 L 62.0 20.0 L 61.0 19.666666666666668 L 60.0 19.333333333333332 L 59.0 19.0 L 58.0 19.0 L 57.0 19.333333333333332 L 56.333333333333336 20.0 L 56.0 21.0 L 56.333333333333336 22.0 L 57.0 22.666666666666668 L 58.0 23.333333333333332 L 59.0 23.666666666666668 L 60.0 24.0 L 61.0 24.0 L 62.0 24.333333333333332 L 62.5 24.5 Z" stroke="none" fill="rgb(200,200,200)" />
<path d="M 20.5 81.5 L 21.0 81.0 L 21.666666666666668 80.0 L 22.333333333333332 79.0 L 23.0 78.0 L 23.666666666666668 77.0 L 24.333333333333332 76.0 L 25.0 75.0 L 25.666666666666668 74.0 L 26.333333333333332 73.0 L 27.0 72.0 L 28.0 71.0 L 28.666666666666668 70.0 L 29.333333333333332 69.0 L 30.0 68.0 L 30.666666666666668 67.0 L 31.333333333333332 66.0 L 32.0 65.0 L 33.0 64.0 L 33.666666666666664 63.0 L 34.333333333333336 62.0 L 35.0 61.0 L 35.666666666666664 60.0 L 36.333333333333336 59.0 L 37.0 58.0 L 37.666666666666664 57.0 L 38.333333333333336 56.0 L 39.0 55.0 L 40.0 54.0 L 40.666666666666664 53.0 L 41.333333333333336 52.0 L 42.0 51.0 L 42.666666666666664 50.0 L 43.333333333333336 49.0 L 44.0 48.0 L 45.0 47.0 L 45.666666666666664 46.0 L 46.0 45.0 L 46.0 44.0 L 46.333333333333336 43.0 L 46.666666666666664 42.0 L 47.0 41.0 L 47.0 40.0 L 47.333333333333336 39.0 L 48.0 38.0 L 49.0 37.0 L 50.0 36.0 L 51.0 35.333333333333336 L 52.0 34.666666666666664 L 53.0 34.333333333333336 L 54.0 34.0 L 54.666666666666664 33.666666666666664 L 55.0 33.0 L 55.333333333333336 32.0 L 56.0 31.0 L 56.666666666666664 30.0 L 57.333333333333336 29.0 L 58.0 28.0 L 59.0 27.0 L 59.666666666666664 26.0 L 60.0 25.0 L 59.666666666666664 24.0 L 59.0 23.333333333333332 L 58.0 22.666666666666668 L 57.0 22.333333333333332 L 56.0 22.0 L 55.0 22.0 L 54.0 22.0 L 53.0 22.0 L 52.0 22.0 L 51.0 22.333333333333332 L 50.0 23.0 L 49.333333333333336 24.0 L 48.666666666666664 25.0 L 48.0 26.0 L 47.333333333333336 27.0 L 46.666666666666664 28.0 L 46.0 29.0 L 45.333333333333336 30.0 L 44.666666666666664 31.0 L 44.0 32.0 L 43.0 33.0 L 42.333333333333336 34.0 L 41.666666666666664 35.0 L 41.0 36.0 L 40.333333333333336 37.0 L 39.666666666666664 38.0 L 39.0 39.0 L 38.0 40.0 L 37.333333333333336 41.0 L 36.666666666666664 42.0 L 36.0 43.0 L 35.333333333333336 44.0 L 34.666666666666664 45.0 L 34.0 46.0 L 33.333333333333336 47.0 L 32.666666666666664 48.0 L 32.0 49.0 L 31.0 50.0 L 30.333333333333332 51.0 L 29.666666666666668 52.0 L 29.0 53.0 L 28.333333333333332 54.0 L 27.666666666666668 55.0 L 27.0 56.0 L 26.0 57.0 L 25.333333333333332 58.0 L 24.666666666666668 59.0 L 24.0 60.0 L 23.333333333333332 61.0 L 22.666666666666668 62.0 L 22.0 63.0 L 21.333333333333332 64.0 L 20.666666666666668 65.0 L 20.0 66.0 L 19.0 67.0 L 18.333333333333332 68.0 L 17.666666666666668 69.0 L 17.0 70.0 L 16.333333333333332 71.0 L 15.666666666666666 72.0 L 15.0 73.0 L 14.0 74.0 L 13.333333333333334 75.0 L 12.666666666666666 76.0 L 12.0 77.0 L 11.333333333333334 78.0 L 10.666666666666666 79.0 L 10.0 80.0 L 9.333333333333334 81.0 L 9.0 82.0 L 9.0 83.0 L 9.0 84.0 L 9.0 85.0 L 9.0 86.0 L 9.0 87.0 L 9.0 88.0 L 9.0 89.0 L 8.666666666666666 90.0 L 8.333333333333334 91.0 L 8.0 92.0 L 8.0 93.0 L 8.0 94.0 L 8.0 95.0 L 8.333333333333334 95.66666666666667 L 9.0 96.0 L 10.0 95.66666666666667 L 11.0 95.0 L 11.666666666666666 94.0 L 12.333333333333334 93.0 L 13.0 92.0 L 13.666666666666666 91.0 L 14.333333333333334 90.0 L 15.0 89.0 L 16.0 88.0 L 16.666666666666668 87.0 L 17.333333333333332 86.0 L 18.0 85.0 L 18.666666666666668 84.0 L 19.333333333333332 83.0 L 19.5 82.5 Z" stroke="none" fill="rgb(235,235,235)" />
<path d="M 123.5 36.0 L 123.66666666666667 35.666666666666664 L 124.0 35.0 L 124.0 34.0 L 124.0 33.0 L 124.0 32.0 L 124.0 31.0 L 124.0 30.0 L 124.0 29.0 L 124.0 28.0 L 124.0 27.0 L 124.0 26.0 L 124.0 25.0 L 124.0 24.0 L 124.0 23.0 L 123.66666666666667 22.333333333333332 L 123.0 22.0 L 122.0 22.333333333333332 L 121.0 23.0 L 120.33333333333333 24.0 L 119.66666666666667 25.0 L 119.33333333333333 26.0 L 119.0 27.0 L 119.0 28.0 L 119.33333333333333 29.0 L 119.66666666666667 30.0 L 120.0 31.0 L 120.0 32.0 L 120.0 33.0 L 120.0 34.0 L 120.0 35.0 L 120.0 36.0 L 120.0 37.0 L 120.33333333333333 37.666666666666664 L 121.0 37.666666666666664 L 122.0 37.0 L 122.5 36.5 Z" stroke="none" fill="rgb(175,175,175)" />
<path d="M 79.5 29.0 L 80.0 29.0 L 80.66666666666667 28.666666666666668 L 81.33333333333333 28.0 L 81.66666666666667 27.0 L 81.66666666666667 26.0 L 81.0 25.333333333333332 L 80.0 25.0 L 79.0 24.666666666666668 L 78.0 24.333333333333332 L 77.0 24.0 L 76.0 24.0 L 75.0 23.666666666666668 L 74.0 23.333333333333332 L 73.0 23.0 L 72.0 23.0 L 71.0 23.0 L 70.0 23.333333333333332 L 69.33333333333333 24.0 L 69.0 25.0 L 69.33333333333333 26.0 L 70.0 26.666666666666668 L 71.0 27.0 L 72.0 27.0 L 73.0 27.333333333333332 L 74.0 28.0 L 75.0 28.666666666666668 L 76.0 29.0 L 77.0 29.0 L 78.0 29.0 L 78.5 29.0 Z" stroke="none" fill="rgb(195,195,195)" />
<path d="M 59.5 33.0 L 60.0 33.0 L 61.0 33.0 L 62.0 33.0 L 63.0 32.666666666666664 L 64.0 32.0 L 64.66666666666667 31.0 L 65.33333333333333 30.0 L 66.0 29.0 L 67.0 28.0 L 67.66666666666667 27.0 L 67.66666666666667 26.0 L 67.0 25.333333333333332 L 66.0 25.0 L 65.0 25.0 L 64.0 24.666666666666668 L 63.0 24.333333333333332 L 62.0 24.0 L 61.0 24.0 L 60.333333333333336 24.333333333333332 L 59.666666666666664 25.0 L 59.0 26.0 L 58.0 27.0 L 57.333333333333336 28.0 L 56.666666666666664 29.0 L 56.0 30.0 L 55.333333333333336 31.0 L 55.0 32.0 L 55.333333333333336 32.666666666666664 L 56.0 33.0 L 57.0 33.0 L 58.0 33.0 L 58.5 33.0 Z" stroke="none" fill="rgb(232,232,232)" />
<path d="M 114.5 30.0 L 115.0 29.666666666666668 L 116.0 29.666666666666668 L 117.0 29.666666666666668 L 118.0 29.666666666666668 L 118.66666666666667 29.0 L 119.0 28.0 L 119.33333333333333 27.0 L 119.66666666666667 26.0 L 120.0 25.0 L 119.66666666666667 24.333333333333332 L 119.0 24.0 L 118.0 24.333333333333332 L 117.0 24.666666666666668 L 116.0 25.0 L 115.0 25.333333333333332 L 114.0 25.666666666666668 L 113.0 26.0 L 112.0 26.0 L 111.0 26.333333333333332 L 110.0 26.666666666666668 L 109.0 27.0 L 108.0 27.333333333333332 L 107.0 28.0 L 106.33333333333333 29.0 L 106.0 30.0 L 106.33333333333333 30.666666666666668 L 107.0 31.0 L 108.0 31.333333333333332 L 109.0 31.666666666666668 L 110.0 31.666666666666668 L 111.0 31.333333333333332 L 112.0 30.666666666666668 L 113.0 30.333333333333332 L 113.5 30.0 Z" stroke="none" fill="rgb(180,180,180)" />
<path d="M 65.5 34.5 L 66.0 34.666666666666664 L 67.0 35.333333333333336 L 68.0 35.666666666666664 L 69.0 36.0 L 70.0 35.666666666666664 L 71.0 35.0 L 72.0 34.0 L 72.66666666666667 33.0 L 73.33333333333333 32.0 L 74.0 31.0 L 74.66666666666667 30.0 L 75.0 29.0 L 74.66666666666667 28.0 L 74.0 27.333333333333332 L 73.0 27.0 L 72.0 27.0 L 71.0 26.666666666666668 L 70.0 26.333333333333332 L 69.0 26.0 L 68.0 26.333333333333332 L 67.0 27.0 L 66.0 28.0 L 65.33333333333333 29.0 L 64.66666666666667 30.0 L 64.0 31.0 L 63.333333333333336 32.0 L 63.0 33.0 L 63.333333333333336 33.666666666666664 L 64.0 34.0 L 64.5 34.0 Z" stroke="none" fill="rgb(229,229,229)" />
<path d="M 85.5 31.0 L 86.0 31.0 L 87.0 31.0 L 88.0 31.0 L 89.0 31.0 L 90.0 31.0 L 91.0 31.0 L 92.0 31.0 L 93.0 31.0 L 94.0 31.0 L 94.66666666666667 30.666666666666668 L 95.33333333333333 30.0 L 95.66666666666667 29.0 L 95.66666666666667 28.0 L 95.0 27.333333333333332 L 94.0 27.0 L 93.0 27.0 L 92.0 27.0 L 91.0 27.0 L 90.0 26.666666666666668 L 89.0 26.333333333333332 L 88.0 26.0 L 87.0 26.0 L 86.0 26.0 L 85.0 26.0 L 84.0 26.0 L 83.0 26.0 L 82.0 26.333333333333332 L 81.33333333333333 27.0 L 81.0 28.0 L 81.33333333333333 29.0 L 82.0 29.666666666666668 L 83.0 30.333333333333332 L 84.0 30.666666666666668 L 84.5 31.0 Z" stroke="none" fill="rgb(190,190,190)" />
<path d="M 98.5 32.0 L 99.0 32.0 L 100.0 32.0 L 101.0 32.0 L 102.0 32.333333333333336 L 103.0 32.666666666666664 L 104.0 32.666666666666664 L 105.0 32.333333333333336 L 105.66666666666667 31.666666666666668 L 106.0 31.0 L 106.0 30.0 L 106.0 29.0 L 105.66666666666667 28.333333333333332 L 105.0 28.0 L 104.0 28.0 L 103.0 28.0 L 102.0 28.0 L 101.0 28.0 L 100.0 28.0 L 99.0 28.0 L 98.0 28.0 L 97.0 28.0 L 96.0 28.333333333333332 L 95.33333333333333 29.0 L 95.0 30.0 L 95.0 31.0 L 95.33333333333333 31.666666666666668 L 96.0 32.0 L 97.0 32.0 L 97.5 32.0 Z" stroke="none" fill="rgb(185,185,185)" />
<path d="M 74.5 40.5 L 75.0 41.0 L 76.0 41.666666666666664 L 77.0 42.0 L 78.0 41.666666666666664 L 78.66666666666667 41.0 L 79.33333333333333 40.0 L 80.0 39.0 L 80.66666666666667 38.0 L 81.33333333333333 37.0 L 82.0 36.0 L 82.66666666666667 35.0 L 83.33333333333333 34.0 L 84.0 33.0 L 84.66666666666667 32.0 L 84.66666666666667 31.0 L 84.0 30.333333333333332 L 83.0 29.666666666666668 L 82.0 29.333333333333332 L 81.0 29.0 L 80.0 29.0 L 79.0 29.0 L 78.0 29.0 L 77.0 29.0 L 76.0 29.0 L 75.0 29.333333333333332 L 74.0 30.0 L 73.33333333333333 31.0 L 72.66666666666667 32.0 L 72.0 33.0 L 71.0 34.0 L 70.33333333333333 35.0 L 70.0 36.0 L 70.33333333333333 36.666666666666664 L 71.0 37.333333333333336 L 72.0 38.0 L 73.0 39.0 L 73.5 39.5 Z" stroke="none" fill="rgb(224,224,224)" />
<path d="M 72.5 94.5 L 73.0 94.0 L 73.66666666666667 93.0 L 74.33333333333333 92.0 L 75.0 91.0 L 75.66666666666667 90.0 L 76.33333333333333 89.0 L 77.0 88.0 L 77.66666666666667 87.0 L 78.33333333333333 86.0 L 79.0 85.0 L 80.0 84.0 L 80.66666666666667 83.0 L 81.33333333333333 82.0 L 82.0 81.0 L 82.66666666666667 80.0 L 83.33333333333333 79.0 L 84.0 78.0 L 85.0 77.0 L 85.66666666666667 76.0 L 86.33333333333333 75.0 L 87.0 74.0 L 87.66666666666667 73.0 L 88.33333333333333 72.0 L 89.0 71.0 L 89.66666666666667 70.0 L 90.33333333333333 69.0 L 91.0 68.0 L 92.0 67.0 L 92.66666666666667 66.0 L 93.33333333333333 65.0 L 94.0 64.0 L 94.66666666666667 63.0 L 95.33333333333333 62.0 L 96.0 61.0 L 96.66666666666667 60.0 L 97.33333333333333 59.0 L 98.0 58.0 L 99.0 57.0 L 99.66666666666667 56.0 L 100.33333333333333 55.0 L 101.0 54.0 L 101.66666666666667 53.0 L 102.33333333333333 52.0 L 103.0 51.0 L 104.0 50.0 L 104.66666666666667 49.0 L 105.33333333333333 48.0 L 106.0 47.0 L 106.66666666666667 46.0 L 107.33333333333333 45.0 L 108.0 44.0 L 108.66666666666667 43.0 L 109.33333333333333 42.0 L 110.0 41.0 L 111.0 40.0 L 111.66666666666667 39.0 L 112.33333333333333 38.0 L 113.0 37.0 L 113.66666666666667 36.0 L 114.33333333333333 35.0 L 115.0 34.0 L 116.0 33.0 L 116.66666666666667 32.0 L 117.0 31.0 L 117.0 30.0 L 116.66666666666667 29.333333333333332 L 116.0 29.0 L 115.0 29.333333333333332 L 114.0 29.666666666666668 L 113.0 30.0 L 112.0 30.333333333333332 L 111.0 30.666666666666668 L 110.0 31.333333333333332 L 109.0 32.0 L 108.33333333333333 33.0 L 107.66666666666667 34.0 L 107.0 35.0 L 106.0 36.0 L 105.33333333333333 37.0 L 104.66666666666667 38.0 L 104.0 39.0 L 103.33333333333333 40.0 L 102.66666666666667 41.0 L 102.0 42.0 L 101.33333333333333 43.0 L 100.66666666666667 44.0 L 100.0 45.0 L 99.0 46.0 L 98.33333333333333 47.0 L 97.66666666666667 48.0 L 97.0 49.0 L 96.33333333333333 50.0 L 95.66666666666667 51.0 L 95.0 52.0 L 94.0 53.0 L 93.33333333333333 54.0 L 92.66666666666667 55.0 L 92.0 56.0 L 91.33333333333333 57.0 L 90.66666666666667 58.0 L 90.0 59.0 L 89.33333333333333 60.0 L 88.66666666666667 61.0 L 88.0 62.0 L 87.0 63.0 L 86.33333333333333 64.0 L 85.66666666666667 65.0 L 85.0 66.0 L 84.33333333333333 67.0 L 83.66666666666667 68.0 L 83.0 69.0 L 82.0 70.0 L 81.33333333333333 71.0 L 80.66666666666667 72.0 L 80.0 73.0 L 79.33333333333333 74.0 L 78.66666666666667 75.0 L 78.0 76.0 L 77.33333333333333 77.0 L 76.66666666666667 78.0 L 76.0 79.0 L 75.0 80.0 L 74.33333333333333 81.0 L 73.66666666666667 82.0 L 73.0 83.0 L 72.33333333333333 84.0 L 71.66666666666667 85.0 L 71.0 86.0 L 70.33333333333333 87.0 L 70.0 88.0 L 70.0 89.0 L 70.0 90.0 L 69.66666666666667 91.0 L 69.0 92.0 L 68.0 93.0 L 67.0 94.0 L 66.0 94.66666666666667 L 65.0 95.33333333333333 L 64.0 96.0 L 63.0 97.0 L 62.333333333333336 98.0 L 61.666666666666664 99.0 L 61.333333333333336 100.0 L 61.0 101.0 L 61.333333333333336 101.66666666666667 L 62.0 102.33333333333333 L 63.0 103.0 L 64.0 103.66666666666667 L 65.0 104.0 L 66.0 104.0 L 66.66666666666667 103.66666666666667 L 67.0 103.0 L 67.33333333333333 102.0 L 68.0 101.0 L 68.66666666666667 100.0 L 69.33333333333333 99.0 L 70.0 98.0 L 70.66666666666667 97.0 L 71.33333333333333 96.0 L 71.5 95.5 Z" stroke="none" fill="rgb(207,207,207)" />
<path d="M 105.5 56.5 L 105.66666666666667 56.0 L 106.33333333333333 55.0 L 107.0 54.0 L 107.66666666666667 53.0 L 108.33333333333333 52.0 L 109.0 51.0 L 110.0 50.0 L 110.66666666666667 49.0 L 111.33333333333333 48.0 L 112.0 47.0 L 112.66666666666667 46.0 L 113.33333333333333 45.0 L 114.0 44.0 L 115.0 43.0 L 115.66666666666667 42.0 L 116.33333333333333 41.0 L 117.0 40.0 L 117.66666666666667 39.0 L 118.33333333333333 38.0 L 119.0 37.333333333333336 L 119.66666666666667 36.666666666666664 L 120.0 36.0 L 120.0 35.0 L 120.0 34.0 L 120.0 33.0 L 120.0 32.0 L 120.0 31.0 L 120.0 30.0 L 119.66666666666667 29.333333333333332 L 119.0 29.0 L 118.0 29.333333333333332 L 117.33333333333333 30.0 L 116.66666666666667 31.0 L 116.0 32.0 L 115.0 33.0 L 114.33333333333333 34.0 L 113.66666666666667 35.0 L 113.0 36.0 L 112.33333333333333 37.0 L 111.66666666666667 38.0 L 111.0 39.0 L 110.0 40.0 L 109.33333333333333 41.0 L 108.66666666666667 42.0 L 108.0 43.0 L 107.33333333333333 44.0 L 106.66666666666667 45.0 L 106.0 46.0 L 105.33333333333333 47.0 L 104.66666666666667 48.0 L 104.0 49.0 L 103.0 50.0 L 102.33333333333333 51.0 L 101.66666666666667 52.0 L 101.0 53.0 L 100.33333333333333 54.0 L 99.66666666666667 55.0 L 99.0 56.0 L 98.0 57.0 L 97.33333333333333 58.0 L 96.66666666666667 59.0 L 96.0 60.0 L 95.33333333333333 61.0 L 94.66666666666667 62.0 L 94.0 63.0 L 93.33333333333333 64.0 L 92.66666666666667 65.0 L 92.0 66.0 L 91.0 67.0 L 90.33333333333333 68.0 L 89.66666666666667 69.0 L 89.0 70.0 L 88.33333333333333 71.0 L 87.66666666666667 72.0 L 87.0 73.0 L 86.33333333333333 74.0 L 85.66666666666667 75.0 L 85.0 76.0 L 84.0 77.0 L 83.33333333333333 78.0 L 82.66666666666667 79.0 L 82.0 80.0 L 81.33333333333333 81.0 L 80.66666666666667 82.0 L 80.0 83.0 L 79.0 84.0 L 78.33333333333333 85.0 L 77.66666666666667 86.0 L 77.0 87.0 L 76.33333333333333 88.0 L 75.66666666666667 89.0 L 75.0 90.0 L 74.33333333333333 91.0 L 73.66666666666667 92.0 L 73.0 93.0 L 72.0 94.0 L 71.33333333333333 95.0 L 70.66666666666667 96.0 L 70.0 97.0 L 69.33333333333333 98.0 L 68.66666666666667 99.0 L 68.0 100.0 L 67.33333333333333 101.0 L 67.0 102.0 L 67.0 103.0 L 67.33333333333333 103.66666666666667 L 68.0 104.0 L 69.0 104.0 L 70.0 104.0 L 71.0 104.0 L 72.0 103.66666666666667 L 72.66666666666667 103.0 L 73.33333333333333 102.0 L 74.0 101.0 L 74.66666666666667 100.0 L 75.33333333333333 99.0 L 76.0 98.0 L 76.66666666666667 97.0 L 77.33333333333333 96.0 L 78.0 95.0 L 79.0 94.0 L 79.66666666666667 93.0 L 80.33333333333333 92.0 L 81.0 91.0 L 81.66666666666667 90.0 L 82.33333333333333 89.0 L 83.0 88.0 L 83.66666666666667 87.0 L 84.33333333333333 86.0 L 85.0 85.0 L 86.0 84.0 L 86.66666666666667 83.0 L 87.33333333333333 82.0 L 88.0 81.0 L 88.66666666666667 80.0 L 89.33333333333333 79.0 L 90.0 78.0 L 91.0 77.0 L 91.66666666666667 76.0 L 92.33333333333333 75.0 L 93.0 74.0 L 93.66666666666667 73.0 L 94.33333333333333 72.0 L 95.0 71.0 L 95.66666666666667 70.0 L 96.33333333333333 69.0 L 97.0 68.0 L 98.0 67.0 L 98.66666666666667 66.0 L 99.33333333333333 65.0 L 100.0 64.0 L 100.66666666666667 63.0 L 101.33333333333333 62.0 L 102.0 61.0 L 103.0 60.0 L 103.66666666666667 59.0 L 104.33333333333333 58.0 L 104.5 57.5 Z" stroke="none" fill="rgb(203,203,203)" />
<path d="M 91.0 38.5 L 91.33333333333333 38.0 L 92.0 37.0 L 93.0 36.0 L 93.66666666666667 35.0 L 94.33333333333333 34.0 L 94.66666666666667 33.0 L 95.0 32.0 L 94.66666666666667 31.333333333333332 L 94.0 31.0 L 93.0 31.0 L 92.0 31.0 L 91.0 31.0 L 90.0 31.0 L 89.0 31.0 L 88.0 31.0 L 87.0 31.0 L 86.0 31.0 L 85.0 31.333333333333332 L 84.0 32.0 L 83.33333333333333 33.0 L 82.66666666666667 34.0 L 82.0 35.0 L 81.33333333333333 36.0 L 80.66666666666667 37.0 L 80.0 38.0 L 79.33333333333333 39.0 L 78.66666666666667 40.0 L 78.33333333333333 41.0 L 78.0 42.0 L 78.33333333333333 43.0 L 79.0 44.0 L 79.66666666666667 45.0 L 80.0 46.0 L 80.33333333333333 47.0 L 80.66666666666667 48.0 L 81.33333333333333 49.0 L 82.0 49.666666666666664 L 83.0 49.666666666666664 L 83.66666666666667 49.0 L 84.33333333333333 48.0 L 85.0 47.0 L 86.0 46.0 L 86.66666666666667 45.0 L 87.33333333333333 44.0 L 88.0 43.0 L 88.66666666666667 42.0 L 89.33333333333333 41.0 L 90.0 40.0 L 90.5 39.5 Z" stroke="none" fill="rgb(219,219,219)" />
<path d="M 72.0 85.5 L 72.33333333333333 85.0 L 73.0 84.0 L 73.66666666666667 83.0 L 74.33333333333333 82.0 L 75.0 81.0 L 76.0 80.0 L 76.66666666666667 79.0 L 77.33333333333333 78.0 L 78.0 77.0 L 78.66666666666667 76.0 L 79.33333333333333 75.0 L 80.0 74.0 L 80.66666666666667 73.0 L 81.33333333333333 72.0 L 82.0 71.0 L 83.0 70.0 L 83.66666666666667 69.0 L 84.33333333333333 68.0 L 85.0 67.0 L 85.66666666666667 66.0 L 86.33333333333333 65.0 L 87.0 64.0 L 88.0 63.0 L 88.66666666666667 62.0 L 89.33333333333333 61.0 L 90.0 60.0 L 90.66666666666667 59.0 L 91.33333333333333 58.0 L 92.0 57.0 L 92.66666666666667 56.0 L 93.33333333333333 55.0 L 94.0 54.0 L 95.0 53.0 L 95.66666666666667 52.0 L 96.33333333333333 51.0 L 97.0 50.0 L 97.66666666666667 49.0 L 98.33333333333333 48.0 L 99.0 47.0 L 100.0 46.0 L 100.66666666666667 45.0 L 101.33333333333333 44.0 L 102.0 43.0 L 102.66666666666667 42.0 L 103.33333333333333 41.0 L 104.0 40.0 L 104.66666666666667 39.0 L 105.33333333333333 38.0 L 106.0 37.0 L 107.0 36.0 L 107.66666666666667 35.0 L 108.33333333333333 34.0 L 108.66666666666667 33.0 L 109.0 32.0 L 108.66666666666667 31.333333333333332 L 108.0 31.0 L 107.0 31.0 L 106.0 31.333333333333332 L 105.0 31.666666666666668 L 104.0 32.333333333333336 L 103.33333333333333 33.0 L 102.66666666666667 34.0 L 102.0 35.0 L 101.33333333333333 36.0 L 100.66666666666667 37.0 L 100.0 38.0 L 99.0 39.0 L 98.33333333333333 40.0 L 97.66666666666667 41.0 L 97.0 42.0 L 96.33333333333333 43.0 L 95.66666666666667 44.0 L 95.0 45.0 L 94.33333333333333 46.0 L 93.66666666666667 47.0 L 93.0 48.0 L 92.0 49.0 L 91.33333333333333 50.0 L 90.66666666666667 51.0 L 90.0 52.0 L 89.33333333333333 53.0 L 88.66666666666667 54.0 L 88.0 55.0 L 87.33333333333333 56.0 L 86.66666666666667 57.0 L 86.0 58.0 L 85.0 59.0 L 84.33333333333333 60.0 L 83.66666666666667 61.0 L 83.0 62.0 L 82.33333333333333 63.0 L 81.66666666666667 64.0 L 81.0 65.0 L 80.0 66.0 L 79.33333333333333 67.0 L 78.66666666666667 68.0 L 78.0 69.0 L 77.33333333333333 70.0 L 76.66666666666667 71.0 L 76.0 72.0 L 75.33333333333333 73.0 L 74.66666666666667 74.0 L 74.0 75.0 L 73.0 76.0 L 72.33333333333333 77.0 L 71.66666666666667 78.0 L 71.0 79.0 L 70.33333333333333 80.0 L 69.66666666666667 81.0 L 69.0 82.0 L 68.33333333333333 83.0 L 68.0 84.0 L 68.33333333333333 85.0 L 69.0 86.0 L 70.0 86.66666666666667 L 71.0 86.66666666666667 L 71.5 86.5 Z" stroke="none" fill="rgb(210,210,210)" />
<path d="M 101.0 37.5 L 101.33333333333333 37.0 L 102.0 36.0 L 102.66666666666667 35.0 L 103.0 34.0 L 103.0 33.0 L 102.66666666666667 32.333333333333336 L 102.0 32.0 L 101.0 32.0 L 100.0 32.0 L 99.0 32.0 L 98.0 32.0 L 97.0 32.0 L 96.0 32.0 L 95.0 32.333333333333336 L 94.33333333333333 33.0 L 93.66666666666667 34.0 L 93.0 35.0 L 92.0 36.0 L 91.33333333333333 37.0 L 90.66666666666667 38.0 L 90.0 39.0 L 89.33333333333333 40.0 L 88.66666666666667 41.0 L 88.0 42.0 L 87.33333333333333 43.0 L 86.66666666666667 44.0 L 86.0 45.0 L 85.0 46.0 L 84.33333333333333 47.0 L 83.66666666666667 48.0 L 83.0 49.0 L 82.33333333333333 50.0 L 82.0 51.0 L 82.0 52.0 L 82.0 53.0 L 82.0 54.0 L 82.0 55.0 L 82.0 56.0 L 82.0 57.0 L 82.0 58.0 L 81.66666666666667 59.0 L 81.0 60.0 L 80.33333333333333 61.0 L 79.66666666666667 62.0 L 79.0 63.0 L 78.0 64.0 L 77.0 65.0 L 76.0 66.0 L 75.0 67.0 L 74.0 67.66666666666667 L 73.0 68.33333333333333 L 72.0 69.0 L 71.0 70.0 L 70.0 71.0 L 69.33333333333333 72.0 L 69.0 73.0 L 69.0 74.0 L 68.66666666666667 75.0 L 68.0 75.66666666666667 L 67.0 76.0 L 66.0 76.0 L 65.0 76.0 L 64.0 76.33333333333333 L 63.333333333333336 77.0 L 62.666666666666664 78.0 L 62.333333333333336 79.0 L 62.0 80.0 L 62.333333333333336 80.66666666666667 L 63.0 81.33333333333333 L 64.0 81.66666666666667 L 65.0 82.33333333333333 L 66.0 83.0 L 67.0 83.66666666666667 L 68.0 83.66666666666667 L 69.0 83.0 L 69.66666666666667 82.0 L 70.33333333333333 81.0 L 71.0 80.0 L 71.66666666666667 79.0 L 72.33333333333333 78.0 L 73.0 77.0 L 74.0 76.0 L 74.66666666666667 75.0 L 75.33333333333333 74.0 L 76.0 73.0 L 76.66666666666667 72.0 L 77.33333333333333 71.0 L 78.0 70.0 L 78.66666666666667 69.0 L 79.33333333333333 68.0 L 80.0 67.0 L 81.0 66.0 L 81.66666666666667 65.0 L 82.33333333333333 64.0 L 83.0 63.0 L 83.66666666666667 62.0 L 84.33333333333333 61.0 L 85.0 60.0 L 86.0 59.0 L 86.66666666666667 58.0 L 87.33333333333333 57.0 L 88.0 56.0 L 88.66666666666667 55.0 L 89.33333333333333 54.0 L 90.0 53.0 L 90.66666666666667 52.0 L 91.33333333333333 51.0 L 92.0 50.0 L 93.0 49.0 L 93.66666666666667 48.0 L 94.33333333333333 47.0 L 95.0 46.0 L 95.66666666666667 45.0 L 96.33333333333333 44.0 L 97.0 43.0 L 97.66666666666667 42.0 L 98.33333333333333 41.0 L 99.0 40.0 L 100.0 39.0 L 100.5 38.5 Z" stroke="none" fill="rgb(213,214,214)" />
<path d="M 59.5 74.0 L 60.0 74.33333333333333 L 61.0 74.66666666666667 L 62.0 75.33333333333333 L 63.0 75.66666666666667 L 64.0 76.0 L 65.0 76.0 L 66.0 76.0 L 67.0 76.0 L 68.0 76.0 L 68.66666666666667 75.66666666666667 L 69.0 75.0 L 69.0 74.0 L 69.33333333333333 73.0 L 70.0 72.0 L 71.0 71.0 L 72.0 70.0 L 73.0 69.0 L 74.0 68.33333333333333 L 75.0 67.66666666666667 L 76.0 67.0 L 77.0 66.0 L 78.0 65.0 L 79.0 64.0 L 79.66666666666667 63.0 L 80.33333333333333 62.0 L 81.0 61.0 L 81.66666666666667 60.0 L 82.0 59.0 L 82.0 58.0 L 82.0 57.0 L 82.0 56.0 L 82.0 55.0 L 82.0 54.0 L 82.0 53.0 L 82.0 52.0 L 82.0 51.0 L 82.0 50.0 L 81.66666666666667 49.0 L 81.33333333333333 48.0 L 80.66666666666667 47.0 L 80.33333333333333 46.0 L 80.0 45.0 L 79.66666666666667 44.0 L 79.0 43.0 L 78.0 42.333333333333336 L 77.0 41.666666666666664 L 76.0 41.0 L 75.0 40.0 L 74.0 39.0 L 73.0 38.0 L 72.0 37.333333333333336 L 71.0 36.666666666666664 L 70.0 36.333333333333336 L 69.0 35.666666666666664 L 68.0 35.333333333333336 L 67.0 34.666666666666664 L 66.0 34.333333333333336 L 65.0 34.0 L 64.0 33.666666666666664 L 63.0 33.333333333333336 L 62.0 33.0 L 61.0 33.0 L 60.0 33.0 L 59.0 33.0 L 58.0 33.0 L 57.0 33.0 L 56.0 33.0 L 55.0 33.333333333333336 L 54.0 33.666666666666664 L 53.0 34.0 L 52.0 34.333333333333336 L 51.0 34.666666666666664 L 50.0 35.333333333333336 L 49.0 36.0 L 48.0 37.0 L 47.333333333333336 38.0 L 47.0 39.0 L 47.0 40.0 L 46.666666666666664 41.0 L 46.333333333333336 42.0 L 46.0 43.0 L 46.0 44.0 L 46.0 45.0 L 46.333333333333336 45.666666666666664 L 47.0 46.0 L 48.0 46.0 L 49.0 46.333333333333336 L 50.0 46.666666666666664 L 51.0 47.333333333333336 L 52.0 47.666666666666664 L 53.0 48.0 L 54.0 48.0 L 55.0 48.0 L 56.0 48.0 L 57.0 48.0 L 57.666666666666664 47.666666666666664 L 58.333333333333336 47.0 L 59.0 46.0 L 60.0 45.0 L 61.0 44.333333333333336 L 62.0 44.333333333333336 L 63.0 44.666666666666664 L 64.0 45.0 L 65.0 45.0 L 66.0 45.333333333333336 L 67.0 46.0 L 68.0 47.0 L 68.66666666666667 48.0 L 69.33333333333333 49.0 L 69.66666666666667 50.0 L 70.0 51.0 L 70.0 52.0 L 70.0 53.0 L 69.66666666666667 54.0 L 69.0 55.0 L 68.0 56.0 L 67.0 57.0 L 66.0 58.0 L 65.0 59.0 L 64.0 60.0 L 63.0 61.0 L 62.0 62.0 L 61.0 63.0 L 60.0 64.0 L 59.333333333333336 65.0 L 59.0 66.0 L 59.0 67.0 L 58.666666666666664 68.0 L 58.333333333333336 69.0 L 58.0 70.0 L 58.0 71.0 L 58.0 72.0 L 58.0 73.0 L 58.333333333333336 73.66666666666667 L 58.5 74.0 Z" stroke="none" fill="rgb(0,113,188)" />
<path d="M 121.5 56.5 L 121.66666666666667 56.0 L 122.33333333333333 55.0 L 123.0 54.333333333333336 L 123.66666666666667 53.666666666666664 L 124.0 53.0 L 124.0 52.0 L 124.0 51.0 L 124.0 50.0 L 124.0 49.0 L 124.0 48.0 L 124.0 47.0 L 124.0 46.0 L 124.0 45.0 L 124.0 44.0 L 124.0 43.0 L 124.0 42.0 L 124.0 41.0 L 124.0 40.0 L 124.0 39.0 L 124.0 38.0 L 124.0 37.0 L 123.66666666666667 36.333333333333336 L 123.0 36.0 L 122.0 36.333333333333336 L 121.0 37.0 L 120.33333333333333 38.0 L 120.0 39.0 L 120.0 40.0 L 120.0 41.0 L 120.0 42.0 L 120.0 43.0 L 120.0 44.0 L 120.0 45.0 L 120.0 46.0 L 120.0 47.0 L 120.0 48.0 L 120.0 49.0 L 120.0 50.0 L 120.0 51.0 L 120.0 52.0 L 120.0 53.0 L 120.0 54.0 L 120.0 55.0 L 120.0 56.0 L 120.33333333333333 56.666666666666664 L 120.5 57.0 Z" stroke="none" fill="rgb(170,170,170)" />
<path d="M 103.0 68.5 L 103.33333333333333 68.0 L 104.0 67.0 L 104.66666666666667 66.0 L 105.33333333333333 65.0 L 106.0 64.0 L 107.0 63.0 L 107.66666666666667 62.0 L 108.33333333333333 61.0 L 109.0 60.0 L 109.66666666666667 59.0 L 110.33333333333333 58.0 L 111.0 57.0 L 112.0 56.0 L 112.66666666666667 55.0 L 113.33333333333333 54.0 L 114.0 53.0 L 114.66666666666667 52.0 L 115.33333333333333 51.0 L 116.0 50.0 L 116.66666666666667 49.0 L 117.33333333333333 48.0 L 118.0 47.0 L 119.0 46.333333333333336 L 119.66666666666667 45.666666666666664 L 120.0 45.0 L 120.0 44.0 L 120.0 43.0 L 120.0 42.0 L 120.0 41.0 L 120.0 40.0 L 120.0 39.0 L 120.0 38.0 L 119.66666666666667 37.333333333333336 L 119.0 37.0 L 118.33333333333333 37.333333333333336 L 117.66666666666667 38.0 L 117.0 39.0 L 116.33333333333333 40.0 L 115.66666666666667 41.0 L 115.0 42.0 L 114.0 43.0 L 113.33333333333333 44.0 L 112.66666666666667 45.0 L 112.0 46.0 L 111.33333333333333 47.0 L 110.66666666666667 48.0 L 110.0 49.0 L 109.0 50.0 L 108.33333333333333 51.0 L 107.66666666666667 52.0 L 107.0 53.0 L 106.33333333333333 54.0 L 105.66666666666667 55.0 L 105.0 56.0 L 104.33333333333333 57.0 L 103.66666666666667 58.0 L 103.0 59.0 L 102.0 60.0 L 101.33333333333333 61.0 L 100.66666666666667 62.0 L 100.0 63.0 L 99.33333333333333 64.0 L 98.66666666666667 65.0 L 98.0 66.0 L 97.0 67.0 L 96.33333333333333 68.0 L 95.66666666666667 69.0 L 95.0 70.0 L 94.33333333333333 71.0 L 93.66666666666667 72.0 L 93.0 73.0 L 92.33333333333333 74.0 L 91.66666666666667 75.0 L 91.0 76.0 L 90.0 77.0 L 89.33333333333333 78.0 L 88.66666666666667 79.0 L 88.0 80.0 L 87.33333333333333 81.0 L 86.66666666666667 82.0 L 86.0 83.0 L 85.0 84.0 L 84.33333333333333 85.0 L 83.66666666666667 86.0 L 83.0 87.0 L 82.33333333333333 88.0 L 81.66666666666667 89.0 L 81.0 90.0 L 80.33333333333333 91.0 L 79.66666666666667 92.0 L 79.0 93.0 L 78.0 94.0 L 77.33333333333333 95.0 L 76.66666666666667 96.0 L 76.0 97.0 L 75.33333333333333 98.0 L 74.66666666666667 99.0 L 74.0 100.0 L 73.33333333333333 101.0 L 72.66666666666667 102.0 L 72.0 103.0 L 71.33333333333333 104.0 L 71.33333333333333 105.0 L 72.0 105.66666666666667 L 73.0 106.0 L 74.0 106.0 L 75.0 106.0 L 76.0 106.0 L 76.66666666666667 105.66666666666667 L 77.33333333333333 105.0 L 78.0 104.0 L 78.66666666666667 103.0 L 79.33333333333333 102.0 L 80.0 101.0 L 80.66666666666667 100.0 L 81.33333333333333 99.0 L 82.0 98.0 L 83.0 97.0 L 83.66666666666667 96.0 L 84.33333333333333 95.0 L 85.0 94.0 L 85.66666666666667 93.0 L 86.33333333333333 92.0 L 87.0 91.0 L 88.0 90.0 L 88.66666666666667 89.0 L 89.33333333333333 88.0 L 90.0 87.0 L 90.66666666666667 86.0 L 91.33333333333333 85.0 L 92.0 84.0 L 92.66666666666667 83.0 L 93.33333333333333 82.0 L 94.0 81.0 L 95.0 80.0 L 95.66666666666667 79.0 L 96.33333333333333 78.0 L 97.0 77.0 L 97.66666666666667 76.0 L 98.33333333333333 75.0 L 99.0 74.0 L 100.0 73.0 L 100.66666666666667 72.0 L 101.33333333333333 71.0 L 102.0 70.0 L 102.5 69.5 Z" stroke="none" fill="rgb(200,200,200)" />
<path d="M 57.5 54.5 L 57.666666666666664 54.0 L 58.333333333333336 53.0 L 59.0 52.0 L 60.0 51.0 L 60.666666666666664 50.0 L 61.333333333333336 49.0 L 62.0 48.0 L 62.666666666666664 47.0 L 63.0 46.0 L 63.0 45.0 L 62.666666666666664 44.333333333333336 L 62.0 44.0 L 61.0 44.0 L 60.0 44.333333333333336 L 59.0 45.0 L 58.333333333333336 46.0 L 57.666666666666664 47.0 L 57.0 47.666666666666664 L 56.0 48.0 L 55.0 48.0 L 54.0 48.0 L 53.0 48.0 L 52.0 48.333333333333336 L 51.333333333333336 49.0 L 50.666666666666664 50.0 L 50.0 51.0 L 49.0 52.0 L 48.333333333333336 53.0 L 47.666666666666664 54.0 L 47.0 55.0 L 46.333333333333336 56.0 L 45.666666666666664 57.0 L 45.0 58.0 L 44.333333333333336 59.0 L 43.666666666666664 60.0 L 43.0 61.0 L 42.0 62.0 L 41.333333333333336 63.0 L 40.666666666666664 64.0 L 40.0 65.0 L 39.333333333333336 66.0 L 38.666666666666664 67.0 L 38.0 68.0 L 37.0 69.0 L 36.333333333333336 70.0 L 35.666666666666664 71.0 L 35.0 72.0 L 34.333333333333336 73.0 L 33.666666666666664 74.0 L 33.0 75.0 L 32.333333333333336 76.0 L 31.666666666666668 77.0 L 31.0 78.0 L 30.0 79.0 L 29.333333333333332 80.0 L 28.666666666666668 81.0 L 28.0 82.0 L 27.333333333333332 83.0 L 26.666666666666668 84.0 L 26.0 85.0 L 25.0 86.0 L 24.333333333333332 87.0 L 23.666666666666668 88.0 L 23.0 89.0 L 22.333333333333332 90.0 L 21.666666666666668 91.0 L 21.0 92.0 L 20.333333333333332 93.0 L 19.666666666666668 94.0 L 19.333333333333332 95.0 L 19.333333333333332 95.66666666666667 L 20.0 96.0 L 21.0 96.0 L 22.0 96.0 L 23.0 96.0 L 24.0 96.0 L 25.0 96.0 L 26.0 96.0 L 27.0 96.0 L 28.0 96.0 L 28.666666666666668 95.66666666666667 L 29.333333333333332 95.0 L 29.666666666666668 94.0 L 30.333333333333332 93.0 L 31.0 92.0 L 31.666666666666668 91.0 L 32.333333333333336 90.0 L 33.0 89.0 L 33.666666666666664 88.0 L 34.333333333333336 87.0 L 35.0 86.0 L 36.0 85.0 L 36.666666666666664 84.0 L 37.333333333333336 83.0 L 38.0 82.0 L 38.666666666666664 81.0 L 39.333333333333336 80.0 L 40.0 79.0 L 40.666666666666664 78.0 L 41.333333333333336 77.0 L 42.0 76.0 L 43.0 75.0 L 43.666666666666664 74.0 L 44.333333333333336 73.0 L 45.0 72.0 L 45.666666666666664 71.0 L 46.333333333333336 70.0 L 47.0 69.0 L 48.0 68.0 L 48.666666666666664 67.0 L 49.333333333333336 66.0 L 50.0 65.0 L 50.666666666666664 64.0 L 51.333333333333336 63.0 L 52.0 62.0 L 52.666666666666664 61.0 L 53.333333333333336 60.0 L 54.0 59.0 L 55.0 58.0 L 55.666666666666664 57.0 L 56.333333333333336 56.0 L 56.5 55.5 Z" stroke="none" fill="rgb(229,229,229)" />
<path d="M 57.5 72.0 L 57.666666666666664 71.66666666666667 L 58.0 71.0 L 58.333333333333336 70.0 L 58.666666666666664 69.0 L 59.0 68.0 L 59.0 67.0 L 59.333333333333336 66.0 L 60.0 65.0 L 61.0 64.0 L 62.0 63.0 L 63.0 62.0 L 64.0 61.0 L 65.0 60.0 L 66.0 59.0 L 67.0 58.0 L 68.0 57.0 L 69.0 56.0 L 69.66666666666667 55.0 L 70.0 54.0 L 70.0 53.0 L 70.0 52.0 L 70.0 51.0 L 70.0 50.0 L 69.66666666666667 49.0 L 69.33333333333333 48.0 L 68.66666666666667 47.0 L 68.0 46.0 L 67.0 45.333333333333336 L 66.0 44.666666666666664 L 65.0 44.333333333333336 L 64.0 44.333333333333336 L 63.333333333333336 45.0 L 62.666666666666664 46.0 L 62.0 47.0 L 61.333333333333336 48.0 L 60.666666666666664 49.0 L 60.0 50.0 L 59.0 51.0 L 58.333333333333336 52.0 L 57.666666666666664 53.0 L 57.0 54.0 L 56.333333333333336 55.0 L 55.666666666666664 56.0 L 55.0 57.0 L 54.0 58.0 L 53.333333333333336 59.0 L 52.666666666666664 60.0 L 52.0 61.0 L 51.333333333333336 62.0 L 50.666666666666664 63.0 L 50.0 64.0 L 49.333333333333336 65.0 L 48.666666666666664 66.0 L 48.0 67.0 L 47.0 68.0 L 46.333333333333336 69.0 L 45.666666666666664 70.0 L 45.0 71.0 L 44.333333333333336 72.0 L 43.666666666666664 73.0 L 43.0 74.0 L 42.0 75.0 L 41.333333333333336 76.0 L 40.666666666666664 77.0 L 40.0 78.0 L 39.333333333333336 79.0 L 38.666666666666664 80.0 L 38.0 81.0 L 37.333333333333336 82.0 L 36.666666666666664 83.0 L 36.0 84.0 L 35.0 85.0 L 34.333333333333336 86.0 L 33.666666666666664 87.0 L 33.0 88.0 L 32.333333333333336 89.0 L 31.666666666666668 90.0 L 31.0 91.0 L 30.333333333333332 92.0 L 29.666666666666668 93.0 L 29.333333333333332 94.0 L 29.0 95.0 L 29.333333333333332 95.66666666666667 L 30.0 96.0 L 31.0 96.33333333333333 L 32.0 96.66666666666667 L 33.0 97.0 L 34.0 97.0 L 35.0 97.0 L 36.0 97.0 L 37.0 97.0 L 38.0 97.0 L 39.0 97.0 L 39.666666666666664 96.66666666666667 L 40.0 96.0 L 40.333333333333336 95.0 L 41.0 94.0 L 42.0 93.0 L 42.666666666666664 92.0 L 43.333333333333336 91.0 L 44.0 90.0 L 44.666666666666664 89.0 L 45.333333333333336 88.0 L 46.0 87.0 L 47.0 86.0 L 47.666666666666664 85.0 L 48.333333333333336 84.0 L 49.0 83.0 L 49.666666666666664 82.0 L 50.333333333333336 81.0 L 51.0 80.0 L 51.666666666666664 79.0 L 52.333333333333336 78.0 L 53.0 77.0 L 54.0 76.0 L 54.666666666666664 75.0 L 55.333333333333336 74.0 L 56.0 73.0 L 56.5 72.5 Z" stroke="none" fill="rgb(224,224,224)" />
<path d="M 24.0 88.5 L 24.333333333333332 88.0 L 25.0 87.0 L 26.0 86.0 L 26.666666666666668 85.0 L 27.333333333333332 84.0 L 28.0 83.0 L 28.666666666666668 82.0 L 29.333333333333332 81.0 L 30.0 80.0 L 31.0 79.0 L 31.666666666666668 78.0 L 32.333333333333336 77.0 L 33.0 76.0 L 33.666666666666664 75.0 L 34.333333333333336 74.0 L 35.0 73.0 L 35.666666666666664 72.0 L 36.333333333333336 71.0 L 37.0 70.0 L 38.0 69.0 L 38.666666666666664 68.0 L 39.333333333333336 67.0 L 40.0 66.0 L 40.666666666666664 65.0 L 41.333333333333336 64.0 L 42.0 63.0 L 43.0 62.0 L 43.666666666666664 61.0 L 44.333333333333336 60.0 L 45.0 59.0 L 45.666666666666664 58.0 L 46.333333333333336 57.0 L 47.0 56.0 L 47.666666666666664 55.0 L 48.333333333333336 54.0 L 49.0 53.0 L 50.0 52.0 L 50.666666666666664 51.0 L 51.333333333333336 50.0 L 51.666666666666664 49.0 L 52.0 48.0 L 51.666666666666664 47.333333333333336 L 51.0 46.666666666666664 L 50.0 46.333333333333336 L 49.0 46.0 L 48.0 46.0 L 47.0 46.0 L 46.0 46.0 L 45.0 46.333333333333336 L 44.0 47.0 L 43.333333333333336 48.0 L 42.666666666666664 49.0 L 42.0 50.0 L 41.333333333333336 51.0 L 40.666666666666664 52.0 L 40.0 53.0 L 39.0 54.0 L 38.333333333333336 55.0 L 37.666666666666664 56.0 L 37.0 57.0 L 36.333333333333336 58.0 L 35.666666666666664 59.0 L 35.0 60.0 L 34.333333333333336 61.0 L 33.666666666666664 62.0 L 33.0 63.0 L 32.0 64.0 L 31.333333333333332 65.0 L 30.666666666666668 66.0 L 30.0 67.0 L 29.333333333333332 68.0 L 28.666666666666668 69.0 L 28.0 70.0 L 27.0 71.0 L 26.333333333333332 72.0 L 25.666666666666668 73.0 L 25.0 74.0 L 24.333333333333332 75.0 L 23.666666666666668 76.0 L 23.0 77.0 L 22.333333333333332 78.0 L 21.666666666666668 79.0 L 21.0 80.0 L 20.0 81.0 L 19.333333333333332 82.0 L 18.666666666666668 83.0 L 18.0 84.0 L 17.333333333333332 85.0 L 16.666666666666668 86.0 L 16.0 87.0 L 15.0 88.0 L 14.333333333333334 89.0 L 13.666666666666666 90.0 L 13.0 91.0 L 12.333333333333334 92.0 L 11.666666666666666 93.0 L 11.0 94.0 L 10.0 95.0 L 9.333333333333334 96.0 L 9.0 97.0 L 9.0 98.0 L 9.333333333333334 98.66666666666667 L 10.0 99.0 L 11.0 99.0 L 12.0 99.0 L 13.0 99.0 L 14.0 98.66666666666667 L 15.0 98.66666666666667 L 16.0 98.66666666666667 L 17.0 98.66666666666667 L 18.0 98.0 L 18.666666666666668 97.0 L 19.333333333333332 96.0 L 19.666666666666668 95.0 L 20.333333333333332 94.0 L 21.0 93.0 L 21.666666666666668 92.0 L 22.333333333333332 91.0 L 23.0 90.0 L 23.5 89.5 Z" stroke="none" fill="rgb(232,232,232)" />
<path d="M 107.0 74.5 L 107.33333333333333 74.0 L 108.0 73.0 L 109.0 72.0 L 109.66666666666667 71.0 L 110.33333333333333 70.0 L 111.0 69.0 L 111.66666666666667 68.0 L 112.33333333333333 67.0 L 113.0 66.0 L 114.0 65.0 L 114.66666666666667 64.0 L 115.33333333333333 63.0 L 116.0 62.0 L 116.66666666666667 61.0 L 117.33333333333333 60.0 L 118.0 59.0 L 119.0 58.333333333333336 L 119.66666666666667 57.666666666666664 L 120.0 57.0 L 120.0 56.0 L 120.0 55.0 L 120.0 54.0 L 120.0 53.0 L 120.0 52.0 L 120.0 51.0 L 120.0 50.0 L 120.0 49.0 L 120.0 48.0 L 120.0 47.0 L 119.66666666666667 46.333333333333336 L 119.0 46.0 L 118.0 46.333333333333336 L 117.33333333333333 47.0 L 116.66666666666667 48.0 L 116.0 49.0 L 115.33333333333333 50.0 L 114.66666666666667 51.0 L 114.0 52.0 L 113.33333333333333 53.0 L 112.66666666666667 54.0 L 112.0 55.0 L 111.0 56.0 L 110.33333333333333 57.0 L 109.66666666666667 58.0 L 109.0 59.0 L 108.33333333333333 60.0 L 107.66666666666667 61.0 L 107.0 62.0 L 106.0 63.0 L 105.33333333333333 64.0 L 104.66666666666667 65.0 L 104.0 66.0 L 103.33333333333333 67.0 L 102.66666666666667 68.0 L 102.0 69.0 L 101.33333333333333 70.0 L 100.66666666666667 71.0 L 100.0 72.0 L 99.0 73.0 L 98.33333333333333 74.0 L 97.66666666666667 75.0 L 97.0 76.0 L 96.33333333333333 77.0 L 95.66666666666667 78.0 L 95.0 79.0 L 94.0 80.0 L 93.33333333333333 81.0 L 92.66666666666667 82.0 L 92.0 83.0 L 91.33333333333333 84.0 L 90.66666666666667 85.0 L 90.0 86.0 L 89.33333333333333 87.0 L 88.66666666666667 88.0 L 88.0 89.0 L 87.0 90.0 L 86.33333333333333 91.0 L 85.66666666666667 92.0 L 85.0 93.0 L 84.33333333333333 94.0 L 83.66666666666667 95.0 L 83.0 96.0 L 82.0 97.0 L 81.33333333333333 98.0 L 80.66666666666667 99.0 L 80.0 100.0 L 79.33333333333333 101.0 L 78.66666666666667 102.0 L 78.0 103.0 L 77.33333333333333 104.0 L 77.0 105.0 L 77.33333333333333 106.0 L 78.0 106.66666666666667 L 79.0 107.0 L 80.0 107.0 L 81.0 107.33333333333333 L 82.0 107.66666666666667 L 83.0 108.0 L 83.66666666666667 107.66666666666667 L 84.33333333333333 107.0 L 85.0 106.0 L 85.66666666666667 105.0 L 86.33333333333333 104.0 L 87.0 103.0 L 87.66666666666667 102.0 L 88.33333333333333 101.0 L 89.0 100.0 L 90.0 99.0 L 90.66666666666667 98.0 L 91.33333333333333 97.0 L 92.0 96.0 L 92.66666666666667 95.0 L 93.33333333333333 94.0 L 94.0 93.0 L 94.66666666666667 92.0 L 95.33333333333333 91.0 L 96.0 90.0 L 97.0 89.0 L 97.66666666666667 88.0 L 98.33333333333333 87.0 L 99.0 86.0 L 99.66666666666667 85.0 L 100.33333333333333 84.0 L 101.0 83.0 L 102.0 82.0 L 102.66666666666667 81.0 L 103.33333333333333 80.0 L 104.0 79.0 L 104.66666666666667 78.0 L 105.33333333333333 77.0 L 106.0 76.0 L 106.5 75.5 Z" stroke="none" fill="rgb(195,195,195)" />
<path d="M 123.5 75.0 L 123.66666666666667 74.66666666666667 L 124.0 74.0 L 124.0 73.0 L 124.0 72.0 L 124.0 71.0 L 124.0 70.0 L 124.0 69.0 L 124.0 68.0 L 124.0 67.0 L 124.0 66.0 L 124.0 65.0 L 124.0 64.0 L 124.0 63.0 L 124.0 62.0 L 124.0 61.0 L 124.0 60.0 L 124.0 59.0 L 124.0 58.0 L 124.0 57.0 L 124.0 56.0 L 124.0 55.0 L 123.66666666666667 54.333333333333336 L 123.0 54.0 L 122.33333333333333 54.333333333333336 L 121.66666666666667 55.0 L 121.0 56.0 L 120.33333333333333 57.0 L 120.0 58.0 L 120.0 59.0 L 120.0 60.0 L 120.0 61.0 L 120.0 62.0 L 120.0 63.0 L 120.0 64.0 L 120.0 65.0 L 120.0 66.0 L 120.0 67.0 L 120.0 68.0 L 120.0 69.0 L 120.0 70.0 L 120.0 71.0 L 120.0 72.0 L 120.0 73.0 L 120.0 74.0 L 120.0 75.0 L 120.33333333333333 75.66666666666667 L 121.0 76.0 L 122.0 75.66666666666667 L 122.5 75.5 Z" stroke="none" fill="rgb(163,163,163)" />
<path d="M 95.5 101.5 L 96.0 101.0 L 96.66666666666667 100.0 L 97.33333333333333 99.0 L 98.0 98.0 L 98.66666666666667 97.0 L 99.33333333333333 96.0 L 100.0 95.0 L 101.0 94.0 L 101.66666666666667 93.0 L 102.33333333333333 92.0 L 103.0 91.0 L 103.66666666666667 90.0 L 104.33333333333333 89.0 L 105.0 88.0 L 105.66666666666667 87.0 L 106.33333333333333 86.0 L 107.0 85.0 L 108.0 84.0 L 108.66666666666667 83.0 L 109.33333333333333 82.0 L 110.0 81.0 L 110.66666666666667 80.0 L 111.33333333333333 79.0 L 112.0 78.0 L 113.0 77.0 L 113.66666666666667 76.0 L 114.33333333333333 75.0 L 115.0 74.0 L 115.66666666666667 73.0 L 116.33333333333333 72.0 L 117.0 71.0 L 117.66666666666667 70.0 L 118.33333333333333 69.0 L 119.0 68.33333333333333 L 119.66666666666667 67.66666666666667 L 120.0 67.0 L 120.0 66.0 L 120.0 65.0 L 120.0 64.0 L 120.0 63.0 L 120.0 62.0 L 120.0 61.0 L 120.0 60.0 L 120.0 59.0 L 119.66666666666667 58.333333333333336 L 119.0 58.0 L 118.0 58.333333333333336 L 117.33333333333333 59.0 L 116.66666666666667 60.0 L 116.0 61.0 L 115.33333333333333 62.0 L 114.66666666666667 63.0 L 114.0 64.0 L 113.0 65.0 L 112.33333333333333 66.0 L 111.66666666666667 67.0 L 111.0 68.0 L 110.33333333333333 69.0 L 109.66666666666667 70.0 L 109.0 71.0 L 108.0 72.0 L 107.33333333333333 73.0 L 106.66666666666667 74.0 L 106.0 75.0 L 105.33333333333333 76.0 L 104.66666666666667 77.0 L 104.0 78.0 L 103.33333333333333 79.0 L 102.66666666666667 80.0 L 102.0 81.0 L 101.0 82.0 L 100.33333333333333 83.0 L 99.66666666666667 84.0 L 99.0 85.0 L 98.33333333333333 86.0 L 97.66666666666667 87.0 L 97.0 88.0 L 96.0 89.0 L 95.33333333333333 90.0 L 94.66666666666667 91.0 L 94.0 92.0 L 93.33333333333333 93.0 L 92.66666666666667 94.0 L 92.0 95.0 L 91.33333333333333 96.0 L 90.66666666666667 97.0 L 90.0 98.0 L 89.0 99.0 L 88.33333333333333 100.0 L 87.66666666666667 101.0 L 87.0 102.0 L 86.33333333333333 103.0 L 85.66666666666667 104.0 L 85.0 105.0 L 84.33333333333333 106.0 L 84.0 107.0 L 84.0 108.0 L 84.33333333333333 108.66666666666667 L 85.0 109.0 L 86.0 109.0 L 87.0 109.0 L 88.0 109.0 L 89.0 109.0 L 90.0 109.0 L 90.66666666666667 108.66666666666667 L 91.33333333333333 108.0 L 91.66666666666667 107.0 L 92.33333333333333 106.0 L 93.0 105.0 L 93.66666666666667 104.0 L 94.33333333333333 103.0 L 94.5 102.5 Z" stroke="none" fill="rgb(190,190,190)" />
<path d="M 7.5 91.0 L 8.0 91.0 L 8.666666666666666 90.66666666666667 L 9.0 90.0 L 9.0 89.0 L 9.0 88.0 L 9.0 87.0 L 9.0 86.0 L 9.0 85.0 L 9.0 84.0 L 9.0 83.0 L 9.0 82.0 L 9.0 81.0 L 8.666666666666666 80.0 L 8.333333333333334 79.0 L 8.0 78.0 L 8.0 77.0 L 8.0 76.0 L 8.0 75.0 L 8.0 74.0 L 8.0 73.0 L 8.0 72.0 L 8.0 71.0 L 8.0 70.0 L 8.0 69.0 L 8.0 68.0 L 8.0 67.0 L 8.0 66.0 L 7.666666666666667 65.33333333333333 L 7.0 65.0 L 6.333333333333333 65.33333333333333 L 5.666666666666667 66.0 L 5.0 67.0 L 4.333333333333333 68.0 L 4.0 69.0 L 4.0 70.0 L 4.0 71.0 L 4.0 72.0 L 4.0 73.0 L 4.0 74.0 L 4.0 75.0 L 4.0 76.0 L 4.0 77.0 L 4.0 78.0 L 4.0 79.0 L 4.0 80.0 L 4.0 81.0 L 4.0 82.0 L 4.0 83.0 L 4.0 84.0 L 4.0 85.0 L 4.0 86.0 L 4.0 87.0 L 4.0 88.0 L 4.0 89.0 L 4.0 90.0 L 4.0 91.0 L 4.0 92.0 L 4.333333333333333 92.66666666666667 L 5.0 93.0 L 5.666666666666667 92.66666666666667 L 6.333333333333333 92.0 L 6.5 91.5 Z" stroke="none" fill="rgb(203,203,203)" />
<path d="M 95.5 109.5 L 96.0 109.66666666666667 L 97.0 110.0 L 98.0 110.0 L 98.66666666666667 109.66666666666667 L 99.0 109.0 L 99.33333333333333 108.0 L 100.0 107.0 L 100.66666666666667 106.0 L 101.33333333333333 105.0 L 102.0 104.0 L 102.66666666666667 103.0 L 103.33333333333333 102.0 L 104.0 101.0 L 105.0 100.0 L 105.66666666666667 99.0 L 106.33333333333333 98.0 L 107.0 97.0 L 107.66666666666667 96.0 L 108.33333333333333 95.0 L 109.0 94.0 L 110.0 93.0 L 110.66666666666667 92.0 L 111.33333333333333 91.0 L 112.0 90.0 L 112.66666666666667 89.0 L 113.33333333333333 88.0 L 114.0 87.0 L 114.66666666666667 86.0 L 115.33333333333333 85.0 L 116.0 84.0 L 117.0 83.0 L 117.66666666666667 82.0 L 118.33333333333333 81.0 L 119.0 80.33333333333333 L 119.66666666666667 79.66666666666667 L 120.0 79.0 L 120.33333333333333 78.0 L 120.66666666666667 77.0 L 120.66666666666667 76.0 L 120.33333333333333 75.0 L 120.0 74.0 L 120.0 73.0 L 120.0 72.0 L 120.0 71.0 L 120.0 70.0 L 120.0 69.0 L 119.66666666666667 68.33333333333333 L 119.0 68.0 L 118.33333333333333 68.33333333333333 L 117.66666666666667 69.0 L 117.0 70.0 L 116.33333333333333 71.0 L 115.66666666666667 72.0 L 115.0 73.0 L 114.33333333333333 74.0 L 113.66666666666667 75.0 L 113.0 76.0 L 112.0 77.0 L 111.33333333333333 78.0 L 110.66666666666667 79.0 L 110.0 80.0 L 109.33333333333333 81.0 L 108.66666666666667 82.0 L 108.0 83.0 L 107.0 84.0 L 106.33333333333333 85.0 L 105.66666666666667 86.0 L 105.0 87.0 L 104.33333333333333 88.0 L 103.66666666666667 89.0 L 103.0 90.0 L 102.33333333333333 91.0 L 101.66666666666667 92.0 L 101.0 93.0 L 100.0 94.0 L 99.33333333333333 95.0 L 98.66666666666667 96.0 L 98.0 97.0 L 97.33333333333333 98.0 L 96.66666666666667 99.0 L 96.0 100.0 L 95.0 101.0 L 94.33333333333333 102.0 L 93.66666666666667 103.0 L 93.0 104.0 L 92.33333333333333 105.0 L 91.66666666666667 106.0 L 91.33333333333333 107.0 L 91.0 108.0 L 91.33333333333333 108.66666666666667 L 92.0 109.0 L 93.0 109.0 L 94.0 109.0 L 94.5 109.0 Z" stroke="none" fill="rgb(185,185,185)" />
<path d="M 59.5 82.0 L 60.0 81.66666666666667 L 61.0 81.33333333333333 L 61.666666666666664 80.66666666666667 L 62.333333333333336 80.0 L 62.666666666666664 79.0 L 63.333333333333336 78.0 L 63.666666666666664 77.0 L 63.666666666666664 76.0 L 63.0 75.33333333333333 L 62.0 74.66666666666667 L 61.0 74.33333333333333 L 60.0 74.0 L 59.0 73.66666666666667 L 58.333333333333336 73.0 L 57.666666666666664 72.33333333333333 L 57.0 72.0 L 56.0 72.33333333333333 L 55.333333333333336 73.0 L 54.666666666666664 74.0 L 54.0 75.0 L 53.0 76.0 L 52.333333333333336 77.0 L 51.666666666666664 78.0 L 51.0 79.0 L 50.333333333333336 80.0 L 49.666666666666664 81.0 L 49.0 82.0 L 48.333333333333336 83.0 L 47.666666666666664 84.0 L 47.0 85.0 L 46.0 86.0 L 45.333333333333336 87.0 L 44.666666666666664 88.0 L 44.0 89.0 L 43.333333333333336 90.0 L 42.666666666666664 91.0 L 42.0 92.0 L 41.0 93.0 L 40.333333333333336 94.0 L 40.0 95.0 L 40.0 96.0 L 40.333333333333336 96.66666666666667 L 41.0 97.0 L 42.0 97.0 L 43.0 97.0 L 44.0 97.33333333333333 L 45.0 98.0 L 46.0 98.66666666666667 L 47.0 99.0 L 48.0 99.0 L 48.666666666666664 98.66666666666667 L 49.333333333333336 98.0 L 50.0 97.0 L 50.666666666666664 96.0 L 51.333333333333336 95.0 L 52.0 94.0 L 52.666666666666664 93.0 L 53.333333333333336 92.0 L 54.0 91.0 L 55.0 90.0 L 56.0 89.33333333333333 L 56.666666666666664 88.66666666666667 L 57.0 88.0 L 57.0 87.0 L 57.0 86.0 L 57.0 85.0 L 57.333333333333336 84.0 L 58.0 83.0 L 58.5 82.5 Z" stroke="none" fill="rgb(219,219,219)" />
<path d="M 124.0 90.5 L 124.0 90.0 L 124.0 89.0 L 124.0 88.0 L 124.0 87.0 L 124.0 86.0 L 124.0 85.0 L 124.0 84.0 L 124.0 83.0 L 124.0 82.0 L 124.0 81.0 L 124.0 80.0 L 124.0 79.0 L 124.0 78.0 L 124.0 77.0 L 124.0 76.0 L 123.66666666666667 75.33333333333333 L 123.0 75.0 L 122.0 75.33333333333333 L 121.0 76.0 L 120.33333333333333 77.0 L 120.0 78.0 L 120.0 79.0 L 120.0 80.0 L 120.0 81.0 L 120.0 82.0 L 120.0 83.0 L 120.0 84.0 L 120.0 85.0 L 120.0 86.0 L 120.0 87.0 L 120.0 88.0 L 120.0 89.0 L 120.0 90.0 L 120.0 91.0 L 120.0 92.0 L 120.33333333333333 92.66666666666667 L 121.0 93.0 L 121.66666666666667 92.66666666666667 L 122.33333333333333 92.0 L 123.0 91.33333333333333 L 123.5 91.0 Z" stroke="none" fill="rgb(156,156,156)" />
<path d="M 110.0 102.5 L 110.33333333333333 102.0 L 111.0 101.0 L 112.0 100.0 L 112.66666666666667 99.0 L 113.33333333333333 98.0 L 114.0 97.0 L 114.66666666666667 96.0 L 115.33333333333333 95.0 L 116.0 94.0 L 116.66666666666667 93.0 L 117.33333333333333 92.0 L 118.0 91.0 L 119.0 90.33333333333333 L 119.66666666666667 89.66666666666667 L 120.0 89.0 L 120.0 88.0 L 120.0 87.0 L 120.0 86.0 L 120.0 85.0 L 120.0 84.0 L 120.0 83.0 L 120.0 82.0 L 120.0 81.0 L 119.66666666666667 80.33333333333333 L 119.0 80.0 L 118.33333333333333 80.33333333333333 L 117.66666666666667 81.0 L 117.0 82.0 L 116.0 83.0 L 115.33333333333333 84.0 L 114.66666666666667 85.0 L 114.0 86.0 L 113.33333333333333 87.0 L 112.66666666666667 88.0 L 112.0 89.0 L 111.33333333333333 90.0 L 110.66666666666667 91.0 L 110.0 92.0 L 109.0 93.0 L 108.33333333333333 94.0 L 107.66666666666667 95.0 L 107.0 96.0 L 106.33333333333333 97.0 L 105.66666666666667 98.0 L 105.0 99.0 L 104.0 100.0 L 103.33333333333333 101.0 L 102.66666666666667 102.0 L 102.0 103.0 L 101.33333333333333 104.0 L 100.66666666666667 105.0 L 100.0 106.0 L 99.33333333333333 107.0 L 99.0 108.0 L 99.33333333333333 108.66666666666667 L 100.0 109.0 L 101.0 109.0 L 102.0 109.0 L 103.0 109.0 L 104.0 109.0 L 105.0 109.0 L 105.66666666666667 108.66666666666667 L 106.33333333333333 108.0 L 107.0 107.0 L 107.66666666666667 106.0 L 108.33333333333333 105.0 L 109.0 104.0 L 109.5 103.5 Z" stroke="none" fill="rgb(180,180,180)" />
<path d="M 59.5 92.5 L 60.0 93.0 L 61.0 93.66666666666667 L 62.0 94.0 L 63.0 94.33333333333333 L 64.0 94.66666666666667 L 65.0 95.0 L 66.0 95.0 L 67.0 94.66666666666667 L 68.0 94.0 L 69.0 93.0 L 69.66666666666667 92.0 L 70.0 91.0 L 70.0 90.0 L 70.0 89.0 L 70.0 88.0 L 70.0 87.0 L 69.66666666666667 86.0 L 69.0 85.0 L 68.0 84.0 L 67.0 83.0 L 66.0 82.33333333333333 L 65.0 81.66666666666667 L 64.0 81.33333333333333 L 63.0 81.0 L 62.0 81.0 L 61.0 81.0 L 60.0 81.33333333333333 L 59.0 81.66666666666667 L 58.0 82.33333333333333 L 57.333333333333336 83.0 L 57.0 84.0 L 57.0 85.0 L 57.0 86.0 L 57.0 87.0 L 57.0 88.0 L 57.0 89.0 L 57.333333333333336 90.0 L 58.0 91.0 L 58.5 91.5 Z" stroke="none" fill="rgb(0,113,188)" />
<path d="M 58.0 98.5 L 58.333333333333336 98.0 L 59.0 97.0 L 59.666666666666664 96.0 L 60.333333333333336 95.0 L 60.666666666666664 94.0 L 60.666666666666664 93.0 L 60.0 92.0 L 59.0 91.0 L 58.0 90.0 L 57.0 89.33333333333333 L 56.0 89.0 L 55.0 89.33333333333333 L 54.0 90.0 L 53.333333333333336 91.0 L 52.666666666666664 92.0 L 52.0 93.0 L 51.333333333333336 94.0 L 50.666666666666664 95.0 L 50.0 96.0 L 49.333333333333336 97.0 L 49.0 98.0 L 49.333333333333336 98.66666666666667 L 50.0 99.0 L 51.0 99.0 L 52.0 99.33333333333333 L 53.0 99.66666666666667 L 54.0 100.33333333333333 L 55.0 100.66666666666667 L 56.0 101.0 L 56.666666666666664 100.66666666666667 L 57.333333333333336 100.0 L 57.5 99.5 Z" stroke="none" fill="rgb(213,214,214)" />
<path d="M 116.5 107.0 L 116.66666666666667 106.66666666666667 L 117.0 106.0 L 117.33333333333333 105.0 L 118.0 104.0 L 119.0 103.33333333333333 L 119.66666666666667 102.66666666666667 L 120.0 102.0 L 120.0 101.0 L 120.0 100.0 L 120.0 99.0 L 120.0 98.0 L 120.0 97.0 L 120.0 96.0 L 120.33333333333333 95.0 L 120.66666666666667 94.0 L 120.66666666666667 93.0 L 120.33333333333333 92.0 L 120.0 91.0 L 119.66666666666667 90.33333333333333 L 119.0 90.0 L 118.0 90.33333333333333 L 117.33333333333333 91.0 L 116.66666666666667 92.0 L 116.0 93.0 L 115.33333333333333 94.0 L 114.66666666666667 95.0 L 114.0 96.0 L 113.33333333333333 97.0 L 112.66666666666667 98.0 L 112.0 99.0 L 111.0 100.0 L 110.33333333333333 101.0 L 109.66666666666667 102.0 L 109.0 103.0 L 108.33333333333333 104.0 L 107.66666666666667 105.0 L 107.0 106.0 L 106.33333333333333 107.0 L 106.0 108.0 L 106.33333333333333 108.66666666666667 L 107.0 109.0 L 108.0 109.33333333333333 L 109.0 109.66666666666667 L 110.0 109.66666666666667 L 111.0 109.33333333333333 L 112.0 108.66666666666667 L 113.0 108.33333333333333 L 114.0 108.0 L 115.0 107.66666666666667 L 115.5 107.5 Z" stroke="none" fill="rgb(175,175,175)" />
<path d="M 10.5 105.0 L 11.0 104.66666666666667 L 12.0 104.33333333333333 L 13.0 103.66666666666667 L 14.0 103.33333333333333 L 14.666666666666666 102.66666666666667 L 15.0 102.0 L 15.333333333333334 101.0 L 15.666666666666666 100.0 L 16.0 99.0 L 15.666666666666666 98.33333333333333 L 15.0 98.0 L 14.0 98.33333333333333 L 13.0 98.66666666666667 L 12.0 99.0 L 11.0 99.0 L 10.0 98.66666666666667 L 9.333333333333334 98.0 L 9.0 97.0 L 8.666666666666666 96.0 L 8.333333333333334 95.0 L 8.0 94.0 L 8.0 93.0 L 8.0 92.0 L 7.666666666666667 91.33333333333333 L 7.0 91.0 L 6.333333333333333 91.33333333333333 L 5.666666666666667 92.0 L 5.0 93.0 L 4.333333333333333 94.0 L 4.0 95.0 L 4.0 96.0 L 4.0 97.0 L 4.0 98.0 L 4.0 99.0 L 4.0 100.0 L 4.0 101.0 L 4.0 102.0 L 4.0 103.0 L 4.0 104.0 L 4.0 105.0 L 4.0 106.0 L 4.333333333333333 106.66666666666667 L 5.0 107.0 L 6.0 107.0 L 7.0 106.66666666666667 L 8.0 106.33333333333333 L 9.0 105.66666666666667 L 9.5 105.5 Z" stroke="none" fill="rgb(200,200,200)" />
<path d="M 122.5 109.0 L 123.0 108.66666666666667 L 123.66666666666667 108.0 L 124.0 107.0 L 124.0 106.0 L 124.0 105.0 L 124.0 104.0 L 124.0 103.0 L 124.0 102.0 L 124.0 101.0 L 124.0 100.0 L 124.0 99.0 L 124.0 98.0 L 124.0 97.0 L 124.0 96.0 L 124.0 95.0 L 124.0 94.0 L 124.0 93.0 L 124.0 92.0 L 123.66666666666667 91.33333333333333 L 123.0 91.0 L 122.33333333333333 91.33333333333333 L 121.66666666666667 92.0 L 121.0 93.0 L 120.33333333333333 94.0 L 120.0 95.0 L 120.0 96.0 L 120.0 97.0 L 120.0 98.0 L 120.0 99.0 L 120.0 100.0 L 120.0 101.0 L 120.0 102.0 L 120.0 103.0 L 119.66666666666667 104.0 L 119.0 105.0 L 118.0 105.66666666666667 L 117.0 106.33333333333333 L 116.0 106.66666666666667 L 115.0 107.33333333333333 L 114.0 107.66666666666667 L 113.0 108.0 L 112.0 108.33333333333333 L 111.0 108.66666666666667 L 110.0 109.33333333333333 L 109.0 110.0 L 108.33333333333333 111.0 L 108.0 112.0 L 108.33333333333333 112.66666666666667 L 109.0 113.0 L 110.0 113.0 L 111.0 113.0 L 112.0 113.0 L 113.0 113.0 L 114.0 112.66666666666667 L 115.0 112.33333333333333 L 116.0 112.0 L 117.0 111.66666666666667 L 118.0 111.33333333333333 L 119.0 110.66666666666667 L 120.0 110.33333333333333 L 121.0 109.66666666666667 L 121.5 109.5 Z" stroke="none" fill="rgb(150,150,150)" />
<path d="M 59.5 101.0 L 60.0 101.0 L 61.0 100.66666666666667 L 61.666666666666664 100.0 L 62.333333333333336 99.0 L 63.0 98.0 L 64.0 97.0 L 64.66666666666667 96.0 L 64.66666666666667 95.0 L 64.0 94.33333333333333 L 63.0 94.0 L 62.0 94.0 L 61.0 94.0 L 60.333333333333336 94.33333333333333 L 59.666666666666664 95.0 L 59.0 96.0 L 58.333333333333336 97.0 L 57.666666666666664 98.0 L 57.333333333333336 99.0 L 57.0 100.0 L 57.333333333333336 100.66666666666667 L 58.0 101.0 L 58.5 101.0 Z" stroke="none" fill="rgb(210,210,210)" />
<path d="M 24.5 101.0 L 25.0 101.0 L 26.0 101.0 L 27.0 101.0 L 28.0 101.0 L 29.0 101.0 L 29.666666666666668 100.66666666666667 L 30.333333333333332 100.0 L 31.0 99.0 L 31.666666666666668 98.0 L 32.0 97.0 L 31.666666666666668 96.33333333333333 L 31.0 96.0 L 30.0 96.0 L 29.0 96.0 L 28.0 96.0 L 27.0 96.0 L 26.0 96.0 L 25.0 96.0 L 24.0 96.0 L 23.0 96.0 L 22.0 96.0 L 21.0 96.0 L 20.0 96.0 L 19.0 96.33333333333333 L 18.0 97.0 L 17.0 98.0 L 16.0 99.0 L 15.333333333333334 100.0 L 15.0 101.0 L 15.333333333333334 101.66666666666667 L 16.0 102.0 L 17.0 102.0 L 18.0 102.0 L 19.0 102.0 L 20.0 102.0 L 21.0 101.66666666666667 L 22.0 101.33333333333333 L 23.0 101.0 L 23.5 101.0 Z" stroke="none" fill="rgb(195,195,195)" />
<path d="M 37.5 101.0 L 38.0 101.0 L 39.0 101.33333333333333 L 40.0 101.66666666666667 L 41.0 102.0 L 42.0 102.0 L 43.0 102.0 L 44.0 101.66666666666667 L 45.0 101.0 L 45.666666666666664 100.0 L 46.0 99.0 L 45.666666666666664 98.0 L 45.0 97.33333333333333 L 44.0 97.0 L 43.0 97.0 L 42.0 97.0 L 41.0 97.0 L 40.0 97.0 L 39.0 97.0 L 38.0 97.0 L 37.0 97.0 L 36.0 97.0 L 35.0 97.0 L 34.0 97.0 L 33.0 97.0 L 32.0 97.33333333333333 L 31.0 98.0 L 30.333333333333332 99.0 L 30.0 100.0 L 30.333333333333332 100.66666666666667 L 31.0 101.0 L 32.0 101.0 L 33.0 101.0 L 34.0 101.0 L 35.0 101.0 L 36.0 101.0 L 36.5 101.0 Z" stroke="none" fill="rgb(190,190,190)" />
<path d="M 50.5 104.0 L 51.0 104.0 L 52.0 104.0 L 53.0 104.0 L 54.0 104.0 L 54.666666666666664 103.66666666666667 L 55.0 103.0 L 55.0 102.0 L 55.0 101.0 L 54.666666666666664 100.33333333333333 L 54.0 99.66666666666667 L 53.0 99.33333333333333 L 52.0 99.0 L 51.0 99.0 L 50.0 99.0 L 49.0 99.0 L 48.0 99.0 L 47.0 99.0 L 46.0 99.33333333333333 L 45.0 100.0 L 44.333333333333336 101.0 L 44.333333333333336 102.0 L 45.0 102.66666666666667 L 46.0 103.0 L 47.0 103.0 L 48.0 103.33333333333333 L 49.0 103.66666666666667 L 49.5 104.0 Z" stroke="none" fill="rgb(185,185,185)" />
<path d="M 56.5 105.0 L 57.0 105.33333333333333 L 58.0 105.66666666666667 L 59.0 106.0 L 60.0 106.33333333333333 L 61.0 106.66666666666667 L 62.0 107.0 L 62.666666666666664 106.66666666666667 L 63.333333333333336 106.0 L 63.666666666666664 105.0 L 64.0 104.0 L 63.666666666666664 103.0 L 63.0 102.33333333333333 L 62.0 101.66666666666667 L 61.0 101.33333333333333 L 60.0 101.0 L 59.0 101.0 L 58.0 101.0 L 57.0 101.0 L 56.0 101.0 L 55.333333333333336 101.33333333333333 L 55.0 102.0 L 55.0 103.0 L 55.0 104.0 L 55.333333333333336 104.66666666666667 L 55.5 105.0 Z" stroke="none" fill="rgb(180,180,180)" />
<path d="M 120.0 104.5 L 120.0 104.0 L 119.66666666666667 103.33333333333333 L 119.0 103.0 L 118.0 103.33333333333333 L 117.33333333333333 104.0 L 117.0 105.0 L 117.33333333333333 105.66666666666667 L 118.0 106.0 L 119.0 105.66666666666667 L 119.5 105.5 Z" stroke="none" fill="rgb(170,170,170)" />
<path d="M 69.5 109.0 L 70.0 109.0 L 71.0 108.66666666666667 L 72.0 108.0 L 72.66666666666667 107.0 L 72.66666666666667 106.0 L 72.0 105.0 L 71.0 104.33333333333333 L 70.0 104.0 L 69.0 104.0 L 68.0 104.0 L 67.0 104.0 L 66.0 104.0 L 65.0 104.0 L 64.0 104.33333333333333 L 63.333333333333336 105.0 L 63.0 106.0 L 63.333333333333336 107.0 L 64.0 107.66666666666667 L 65.0 108.33333333333333 L 66.0 108.66666666666667 L 67.0 109.0 L 68.0 109.0 L 68.5 109.0 Z" stroke="none" fill="rgb(175,175,175)" />
<path d="M 75.5 111.0 L 76.0 111.0 L 77.0 111.0 L 78.0 111.0 L 79.0 111.33333333333333 L 80.0 112.0 L 81.0 112.66666666666667 L 82.0 113.0 L 83.0 113.0 L 83.66666666666667 112.66666666666667 L 83.66666666666667 112.0 L 83.66666666666667 111.0 L 83.66666666666667 110.0 L 84.0 109.0 L 83.66666666666667 108.33333333333333 L 83.0 107.66666666666667 L 82.0 107.33333333333333 L 81.0 107.0 L 80.0 107.0 L 79.0 106.66666666666667 L 78.0 106.33333333333333 L 77.0 106.0 L 76.0 106.0 L 75.0 106.0 L 74.0 106.0 L 73.0 106.33333333333333 L 72.0 107.0 L 71.33333333333333 108.0 L 71.33333333333333 109.0 L 72.0 109.66666666666667 L 73.0 110.0 L 74.0 110.33333333333333 L 74.5 110.5 Z" stroke="none" fill="rgb(170,170,170)" />
<path d="M 91.5 114.0 L 92.0 114.0 L 93.0 114.0 L 94.0 114.0 L 95.0 113.66666666666667 L 95.66666666666667 113.0 L 96.33333333333333 112.0 L 96.66666666666667 111.0 L 96.66666666666667 110.0 L 96.0 109.33333333333333 L 95.0 109.0 L 94.0 109.0 L 93.0 109.0 L 92.0 109.0 L 91.0 109.0 L 90.0 109.0 L 89.0 109.0 L 88.0 109.0 L 87.0 109.0 L 86.0 109.0 L 85.0 109.0 L 84.0 109.33333333333333 L 83.33333333333333 110.0 L 83.0 111.0 L 83.33333333333333 112.0 L 84.0 112.66666666666667 L 85.0 113.0 L 86.0 113.33333333333333 L 87.0 113.66666666666667 L 88.0 114.0 L 89.0 114.0 L 90.0 114.0 L 90.5 114.0 Z" stroke="none" fill="rgb(163,163,163)" />
<path d="M 100.5 115.0 L 101.0 115.0 L 102.0 115.0 L 103.0 115.0 L 104.0 114.66666666666667 L 105.0 114.33333333333333 L 106.0 114.0 L 107.0 114.0 L 107.66666666666667 113.66666666666667 L 108.0 113.0 L 108.33333333333333 112.0 L 108.66666666666667 111.0 L 109.0 110.0 L 108.66666666666667 109.33333333333333 L 108.0 109.0 L 107.0 109.0 L 106.0 109.0 L 105.0 109.0 L 104.0 109.0 L 103.0 109.0 L 102.0 109.0 L 101.0 109.0 L 100.0 109.0 L 99.0 109.33333333333333 L 98.0 109.66666666666667 L 97.0 110.33333333333333 L 96.33333333333333 111.0 L 95.66666666666667 112.0 L 95.33333333333333 113.0 L 95.0 114.0 L 95.33333333333333 114.66666666666667 L 96.0 115.0 L 97.0 115.0 L 98.0 115.0 L 99.0 115.0 L 99.5 115.0 Z" stroke="none" fill="rgb(156,156,156)" />
</svg>
