<?xml version="1.0" encoding="UTF-8" standalone="no"?>
<!DOCTYPE svg PUBLIC "-//W3C//DTD SVG 1.1//EN"
"http://www.w3.org/Graphics/SVG/1.1/DTD/svg11.dtd">
<svg width="128" height="128" xmlns="http://www.w3.org/2000/svg" version="1.1">
<path d="M 40.5 128.0 L 41.0 128.0 L 42.0 128.0 L 43.0 128.0 L 44.0 128.0 L 45.0 128.0 L 46.0 128.0 L 47.0 128.0 L 48.0 128.0 L 49.0 128.0 L 50.0 128.0 L 51.0 128.0 L 52.0 128.0 L 53.0 128.0 L 54.0 128.0 L 55.0 128.0 L 56.0 128.0 L 57.0 128.0 L 58.0 128.0 L 59.0 128.0 L 60.0 128.0 L 61.0 128.0 L 62.0 128.0 L 63.0 128.0 L 64.0 128.0 L 65.0 128.0 L 66.0 128.0 L 67.0 128.0 L 68.0 128.0 L 69.0 128.0 L 70.0 128.0 L 71.0 128.0 L 72.0 128.0 L 73.0 128.0 L 74.0 128.0 L 75.0 128.0 L 76.0 128.0 L 77.0 128.0 L 78.0 128.0 L 79.0 128.0 L 80.0 128.0 L 81.0 128.0 L 82.0 128.0 L 83.0 128.0 L 84.0 128.0 L 85.0 128.0 L 86.0 128.0 L 87.0 128.0 L 88.0 128.0 L 89.0 128.0 L 90.0 128.0 L 91.0 128.0 L 92.0 128.0 L 93.0 128.0 L 94.0 128.0 L 95.0 128.0 L 96.0 128.0 L 97.0 128.0 L 98.0 128.0 L 99.0 128.0 L 100.0 128.0 L 101.0 128.0 L 102.0 128.0 L 103.0 128.0 L 104.0 128.0 L 105.0 128.0 L 106.0 128.0 L 107.0 128.0 L 108.0 128.0 L 109.0 128.0 L 110.0 128.0 L 111.0 128.0 L 112.0 128.0 L 113.0 128.0 L 114.0 128.0 L 115.0 128.0 L 116.0 128.0 L 117.0 128.0 L 118.0 128.0 L 119.0 128.0 L 120.0 128.0 L 121.0 128.0 L 122.0 128.0 L 123.0 128.0 L 124.0 128.0 L 125.0 128.0 L 126.0 128.0 L 127.0 128.0 L 127.66666666666667 127.66666666666667 L 128.0 127.0 L 128.0 126.0 L 128.0 125.0 L 128.0 124.0 L 128.0 123.0 L 128.0 122.0 L 128.0 121.0 L 128.0 120.0 L 128.0 119.0 L 128.0 118.0 L 128.0 117.0 L 128.0 116.0 L 128.0 115.0 L 128.0 114.0 L 128.0 113.0 L 128.0 112.0 L 128.0 111.0 L 128.0 110.0 L 128.0 109.0 L 128.0 108.0 L 128.0 107.0 L 128.0 106.0 L 128.0 105.0 L 128.0 104.0 L 128.0 103.0 L 128.0 102.0 L 128.0 101.0 L 128.0 100.0 L 128.0 99.0 L 128.0 98.0 L 128.0 97.0 L 128.0 96.0 L 128.0 95.0 L 128.0 94.0 L 128.0 93.0 L 128.0 92.0 L 128.0 91.0 L 128.0 90.0 L 128.0 89.0 L 128.0 88.0 L 128.0 87.0 L 128.0 86.0 L 128.0 85.0 L 128.0 84.0 L 128.0 83.0 L 128.0 82.0 L 128.0 81.0 L 128.0 80.0 L 128.0 79.0 L 128.0 78.0 L 128.0 77.0 L 128.0 76.0 L 128.0 75.0 L 128.0 74.0 L 128.0 73.0 L 128.0 72.0 L 128.0 71.0 L 128.0 70.0 L 128.0 69.0 L 128.0 68.0 L 128.0 67.0 L 128.0 66.0 L 128.0 65.0 L 128.0 64.0 L 128.0 63.0 L 128.0 62.0 L 128.0 61.0 L 128.0 60.0 L 128.0 59.0 L 128.0 58.0 L 128.0 57.0 L 128.0 56.0 L 128.0 55.0 L 128.0 54.0 L 128.0 53.0 L 128.0 52.0 L 128.0 51.0 L 128.0 50.0 L 128.0 49.0 L 128.0 48.0 L 128.0 47.0 L 128.0 46.0 L 128.0 45.0 L 128.0 44.0 L 128.0 43.0 L 128.0 42.0 L 128.0 41.0 L 128.0 40.0 L 128.0 39.0 L 128.0 38.0 L 128.0 37.0 L 128.0 36.0 L 128.0 35.0 L 128.0 34.0 L 128.0 33.0 L 128.0 32.0 L 128.0 31.0 L 128.0 30.0 L 128.0 29.0 L 128.0 28.0 L 128.0 27.0 L 128.0 26.0 L 128.0 25.0 L 128.0 24.0 L 128.0 23.0 L 128.0 22.0 L 128.0 21.0 L 128.0 20.0 L 128.0 19.0 L 128.0 18.0 L 128.0 17.0 L 128.0 16.0 L 128.0 15.0 L 128.0 14.0 L 128.0 13.0 L 128.0 12.0 L 128.0 11.0 L 128.0 10.0 L 128.0 9.0 L 128.0 8.0 L 128.0 7.0 L 128.0 6.0 L 128.0 5.0 L 128.0 4.0 L 128.0 3.0 L 128.0 2.0 L 128.0 1.0 L 127.66666666666667 0.3333333333333333 L 127.0 0.0 L 126.0 0.0 L 125.0 0.0 L 124.0 0.0 L 123.0 0.0 L 122.0 0.0 L 121.0 0.0 L 120.0 0.0 L 119.0 0.0 L 118.0 0.0 L 117.0 0.0 L 116.0 0.0 L 115.0 0.0 L 114.0 0.0 L 113.0 0.0 L 112.0 0.0 L 111.0 0.0 L 110.0 0.0 L 109.0 0.0 L 108.0 0.0 L 107.0 0.0 L 106.0 0.0 L 105.0 0.0 L 104.0 0.0 L 103.0 0.0 L 102.0 0.0 L 101.0 0.0 L 100.0 0.0 L 99.0 0.0 L 98.0 0.0 L 97.0 0.0 L 96.0 0.0 L 95.0 0.0 L 94.0 0.0 L 93.0 0.0 L 92.0 0.0 L 91.0 0.0 L 90.0 0.0 L 89.0 0.0 L 88.0 0.0 L 87.0 0.0 L 86.0 0.0 L 85.0 0.0 L 84.0 0.0 L 83.0 0.0 L 82.0 0.0 L 81.0 0.0 L 80.0 0.0 L 79.0 0.0 L 78.0 0.0 L 77.0 0.0 L 76.0 0.0 L 75.0 0.0 L 74.0 0.0 L 73.0 0.0 L 72.0 0.0 L 71.0 0.0 L 70.0 0.0 L 69.0 0.0 L 68.0 0.0 L 67.0 0.0 L 66.0 0.0 L 65.0 0.0 L 64.0 0.0 L 63.0 0.0 L 62.0 0.0 L 61.0 0.0 L 60.0 0.0 L 59.0 0.0 L 58.0 0.0 L 57.0 0.0 L 56.0 0.0 L 55.0 0.0 L 54.0 0.0 L 53.0 0.0 L 52.0 0.0 L 51.0 0.0 L 50.0 0.0 L 49.0 0.0 L 48.0 0.0 L 47.0 0.0 L 46.0 0.0 L 45.0 0.0 L 44.0 0.0 L 43.0 0.0 L 42.0 0.0 L 41.0 0.0 L 40.0 0.0 L 39.0 0.0 L 38.0 0.0 L 37.0 0.0 L 36.0 0.0 L 35.0 0.0 L 34.0 0.0 L 33.0 0.0 L 32.0 0.0 L 31.0 0.0 L 30.0 0.0 L 29.0 0.0 L 28.0 0.0 L 27.0 0.0 L 26.0 0.0 L 25.0 0.0 L 24.0 0.0 L 23.0 0.0 L 22.0 0.0 L 21.0 0.0 L 20.0 0.0 L 19.0 0.0 L 18.0 0.0 L 17.0 0.0 L 16.0 0.0 L 15.0 0.0 L 14.0 0.0 L 13.0 0.0 L 12.0 0.0 L 11.0 0.0 L 10.0 0.0 L 9.0 0.0 L 8.0 0.0 L 7.0 0.0 L 6.0 0.0 L 5.0 0.0 L 4.0 0.0 L 3.0 0.0 L 2.0 0.0 L 1.0 0.0 L 0.3333333333333333 0.3333333333333333 L 0.0 1.0 L 0.0 2.0 L 0.0 3.0 L 0.0 4.0 L 0.0 5.0 L 0.0 6.0 L 0.0 7.0 L 0.0 8.0 L 0.0 9.0 L 0.0 10.0 L 0.0 11.0 L 0.0 12.0 L 0.0 13.0 L 0.0 14.0 L 0.0 15.0 L 0.0 16.0 L 0.0 17.0 L 0.0 18.0 L 0.0 19.0 L 0.0 20.0 L 0.0 21.0 L 0.0 22.0 L 0.0 23.0 L 0.0 24.0 L 0.0 25.0 L 0.0 26.0 L 0.0 27.0 L 0.0 28.0 L 0.0 29.0 L 0.0 30.0 L 0.0 31.0 L 0.0 32.0 L 0.0 33.0 L 0.0 34.0 L 0.0 35.0 L 0.0 36.0 L 0.0 37.0 L 0.0 38.0 L 0.0 39.0 L 0.0 40.0 L 0.0 41.0 L 0.0 42.0 L 0.0 43.0 L 0.0 44.0 L 0.0 45.0 L 0.0 46.0 L 0.0 47.0 L 0.0 48.0 L 0.0 49.0 L 0.0 50.0 L 0.0 51.0 L 0.0 52.0 L 0.0 53.0 L 0.0 54.0 L 0.0 55.0 L 0.0 56.0 L 0.0 57.0 L 0.0 58.0 L 0.0 59.0 L 0.0 60.0 L 0.0 61.0 L 0.0 62.0 L 0.0 63.0 L 0.0 64.0 L 0.0 65.0 L 0.0 66.0 L 0.0 67.0 L 0.0 68.0 L 0.0 69.0 L 0.0 70.0 L 0.0 71.0 L 0.0 72.0 L 0.0 73.0 L 0.0 74.0 L 0.0 75.0 L 0.0 76.0 L 0.0 77.0 L 0.0 78.0 L 0.0 79.0 L 0.0 80.0 L 0.0 81.0 L 0.0 82.0 L 0.0 83.0 L 0.0 84.0 L 0.0 85.0 L 0.0 86.0 L 0.0 87.0 L 0.0 88.0 L 0.0 89.0 L 0.0 90.0 L 0.0 91.0 L 0.0 92.0 L 0.0 93.0 L 0.0 94.0 L 0.0 95.0 L 0.0 96.0 L 0.0 97.0 L 0.0 98.0 L 0.0 99.0 L 0.0 100.0 L 0.0 101.0 L 0.0 102.0 L 0.0 103.0 L 0.0 104.0 L 0.0 105.0 L 0.0 106.0 L 0.0 107.0 L 0.0 108.0 L 0.0 109.0 L 0.0 110.0 L 0.0 111.0 L 0.0 112.0 L 0.0 113.0 L 0.0 114.0 L 0.0 115.0 L 0.0 116.0 L 0.0 117.0 L 0.0 118.0 L 0.0 119.0 L 0.0 120.0 L 0.0 121.0 L 0.0 122.0 L 0.0 123.0 L 0.0 124.0 L 0.0 125.0 L 0.0 126.0 L 0.0 127.0 L 0.3333333333333333 127.66666666666667 L 1.0 128.0 L 2.0 128.0 L 3.0 128.0 L 4.0 128.0 L 5.0 128.0 L 6.0 128.0 L 7.0 128.0 L 8.0 128.0 L 9.0 128.0 L 10.0 128.0 L 11.0 128.0 L 12.0 128.0 L 13.0 128.0 L 14.0 128.0 L 15.0 128.0 L 16.0 128.0 L 17.0 128.0 L 18.0 128.0 L 19.0 128.0 L 20.0 128.0 L 21.0 128.0 L 22.0 128.0 L 23.0 128.0 L 24.0 128.0 L 25.0 128.0 L 26.0 128.0 L 27.0 128.0 L 28.0 128.0 L 29.0 128.0 L 30.0 128.0 L 31.0 128.0 L 32.0 128.0 L 33.0 128.0 L 34.0 128.0 L 35.0 128.0 L 36.0 128.0 L 37.0 128.0 L 38.0 128.0 L 39.0 128.0 L 39.5 128.0 Z" stroke="none" fill="rgb(255,255,255)" />
<path d="M 103.0 70.5 L 103.33333333333333 70.0 L 103.66666666666667 69.0 L 104.33333333333333 68.0 L 104.66666666666667 67.0 L 105.33333333333333 66.0 L 105.66666666666667 65.0 L 106.33333333333333 64.0 L 106.66666666666667 63.0 L 107.0 62.0 L 107.33333333333333 61.0 L 107.66666666666667 60.0 L 108.0 59.0 L 108.0 58.0 L 108.0 57.0 L 108.33333333333333 56.0 L 108.66666666666667 55.0 L 109.0 54.0 L 109.0 53.0 L 109.0 52.0 L 109.0 51.0 L 109.0 50.0 L 109.0 49.0 L 109.0 48.0 L 109.0 47.0 L 109.0 46.0 L 109.0 45.0 L 109.0 44.0 L 109.0 43.0 L 109.0 42.0 L 109.0 41.0 L 109.0 40.0 L 108.66666666666667 39.0 L 108.33333333333333 38.0 L 108.0 37.0 L 108.0 36.0 L 108.0 35.0 L 107.66666666666667 34.0 L 107.33333333333333 33.0 L 107.0 32.0 L 107.0 31.0 L 106.66666666666667 30.0 L 106.0 29.0 L 105.33333333333333 28.0 L 104.66666666666667 27.0 L 104.33333333333333 26.0 L 103.66666666666667 25.0 L 103.33333333333333 24.0 L 103.0 23.0 L 102.66666666666667 22.0 L 102.0 21.0 L 101.0 20.0 L 100.0 19.0 L 99.0 18.0 L 98.33333333333333 17.0 L 97.66666666666667 16.0 L 97.0 15.0 L 96.0 14.0 L 95.33333333333333 13.0 L 94.66666666666667 12.333333333333334 L 94.0 12.0 L 93.0 11.666666666666666 L 92.0 11.0 L 91.0 10.0 L 90.33333333333333 9.0 L 89.66666666666667 8.333333333333334 L 89.0 8.0 L 88.0 7.666666666666667 L 87.0 7.0 L 86.0 6.0 L 85.0 5.333333333333333 L 84.0 4.666666666666667 L 83.0 4.333333333333333 L 82.0 4.0 L 81.0 4.0 L 80.0 4.0 L 79.0 3.6666666666666665 L 78.0 3.3333333333333335 L 77.0 3.0 L 76.0 2.6666666666666665 L 75.0 2.3333333333333335 L 74.0 2.0 L 73.0 2.0 L 72.0 2.0 L 71.0 2.3333333333333335 L 70.0 2.6666666666666665 L 69.0 3.0 L 68.0 2.6666666666666665 L 67.0 2.3333333333333335 L 66.0 1.6666666666666667 L 65.0 1.3333333333333333 L 64.0 1.0 L 63.0 1.3333333333333333 L 62.0 1.6666666666666667 L 61.0 2.0 L 60.0 2.3333333333333335 L 59.0 2.6666666666666665 L 58.0 3.0 L 57.0 2.6666666666666665 L 56.0 2.3333333333333335 L 55.0 2.0 L 54.0 2.0 L 53.0 2.0 L 52.0 2.3333333333333335 L 51.0 2.6666666666666665 L 50.0 3.3333333333333335 L 49.0 3.6666666666666665 L 48.0 4.0 L 47.0 4.0 L 46.0 4.0 L 45.0 4.333333333333333 L 44.0 5.0 L 43.0 6.0 L 42.0 6.666666666666667 L 41.0 7.333333333333333 L 40.0 7.666666666666667 L 39.0 8.333333333333334 L 38.0 9.0 L 37.0 10.0 L 36.0 11.0 L 35.0 11.666666666666666 L 34.0 12.333333333333334 L 33.0 13.0 L 32.0 14.0 L 31.0 15.0 L 30.0 16.0 L 29.333333333333332 17.0 L 28.666666666666668 18.0 L 28.0 19.0 L 27.0 20.0 L 26.0 21.0 L 25.333333333333332 22.0 L 24.666666666666668 23.0 L 24.333333333333332 24.0 L 23.666666666666668 25.0 L 23.333333333333332 26.0 L 22.666666666666668 27.0 L 22.333333333333332 28.0 L 21.666666666666668 29.0 L 21.333333333333332 30.0 L 21.0 31.0 L 21.0 32.0 L 20.666666666666668 33.0 L 20.333333333333332 34.0 L 20.0 35.0 L 20.0 36.0 L 19.666666666666668 37.0 L 19.333333333333332 38.0 L 19.0 39.0 L 19.0 40.0 L 19.0 41.0 L 19.0 42.0 L 19.0 43.0 L 19.0 44.0 L 19.0 45.0 L 19.0 46.0 L 19.0 47.0 L 19.0 48.0 L 19.0 49.0 L 19.0 50.0 L 19.0 51.0 L 19.0 52.0 L 19.0 53.0 L 19.0 54.0 L 19.0 55.0 L 19.333333333333332 56.0 L 19.666666666666668 57.0 L 20.0 58.0 L 20.0 59.0 L 20.333333333333332 60.0 L 20.666666666666668 61.0 L 21.0 62.0 L 21.333333333333332 63.0 L 21.666666666666668 64.0 L 22.333333333333332 65.0 L 22.666666666666668 66.0 L 23.0 67.0 L 23.333333333333332 68.0 L 24.0 69.0 L 24.666666666666668 70.0 L 25.333333333333332 71.0 L 25.666666666666668 72.0 L 26.333333333333332 73.0 L 27.0 74.0 L 28.0 75.0 L 28.666666666666668 76.0 L 29.333333333333332 77.0 L 30.0 78.0 L 31.0 79.0 L 32.0 80.0 L 33.0 81.0 L 34.0 81.66666666666667 L 35.0 82.33333333333333 L 36.0 83.0 L 37.0 84.0 L 38.0 84.66666666666667 L 39.0 85.33333333333333 L 40.0 85.66666666666667 L 41.0 86.33333333333333 L 42.0 86.66666666666667 L 43.0 87.0 L 44.0 87.0 L 44.666666666666664 86.66666666666667 L 44.666666666666664 86.0 L 44.0 85.0 L 43.0 84.0 L 42.0 83.0 L 41.0 82.0 L 40.0 81.0 L 39.0 80.33333333333333 L 38.0 80.0 L 37.0 79.66666666666667 L 36.0 79.0 L 35.0 78.0 L 34.0 77.0 L 33.0 76.0 L 32.0 75.0 L 31.333333333333332 74.0 L 30.666666666666668 73.0 L 30.0 72.0 L 29.0 71.0 L 28.333333333333332 70.0 L 27.666666666666668 69.0 L 27.333333333333332 68.0 L 26.666666666666668 67.0 L 26.333333333333332 66.0 L 25.666666666666668 65.0 L 25.333333333333332 64.0 L 24.666666666666668 63.0 L 24.333333333333332 62.0 L 23.666666666666668 61.0 L 23.333333333333332 60.0 L 23.0 59.0 L 23.0 58.0 L 22.666666666666668 57.0 L 22.333333333333332 56.0 L 22.0 55.0 L 22.0 54.0 L 22.0 53.0 L 22.0 52.0 L 21.666666666666668 51.0 L 21.333333333333332 50.0 L 21.0 49.0 L 21.0 48.0 L 21.0 47.0 L 21.0 46.0 L 21.0 45.0 L 21.333333333333332 44.0 L 21.666666666666668 43.0 L 22.0 42.0 L 22.0 41.0 L 22.0 40.0 L 22.0 39.0 L 22.333333333333332 38.0 L 22.666666666666668 37.0 L 23.0 36.0 L 23.0 35.0 L 23.333333333333332 34.0 L 23.666666666666668 33.0 L 24.333333333333332 32.0 L 24.666666666666668 31.0 L 25.0 30.0 L 25.333333333333332 29.0 L 26.0 28.0 L 26.666666666666668 27.0 L 27.333333333333332 26.0 L 27.666666666666668 25.0 L 28.333333333333332 24.0 L 29.0 23.0 L 29.666666666666668 22.0 L 30.333333333333332 21.0 L 31.0 20.0 L 32.0 19.0 L 33.0 18.0 L 34.0 17.0 L 35.0 16.0 L 36.0 15.0 L 37.0 14.0 L 38.0 13.333333333333334 L 39.0 12.666666666666666 L 40.0 12.0 L 41.0 11.333333333333334 L 42.0 10.666666666666666 L 43.0 10.333333333333334 L 44.0 9.666666666666666 L 45.0 9.333333333333334 L 46.0 8.666666666666666 L 47.0 8.333333333333334 L 48.0 7.666666666666667 L 49.0 7.333333333333333 L 50.0 6.666666666666667 L 51.0 6.333333333333333 L 52.0 6.0 L 53.0 6.0 L 54.0 5.666666666666667 L 55.0 5.333333333333333 L 56.0 5.0 L 57.0 5.0 L 58.0 5.0 L 59.0 5.0 L 60.0 5.0 L 61.0 4.666666666666667 L 62.0 4.333333333333333 L 63.0 4.0 L 64.0 4.0 L 65.0 4.0 L 66.0 4.333333333333333 L 67.0 4.666666666666667 L 68.0 5.0 L 69.0 5.0 L 70.0 5.0 L 71.0 5.0 L 72.0 5.0 L 73.0 5.333333333333333 L 74.0 5.666666666666667 L 75.0 6.0 L 76.0 6.333333333333333 L 77.0 6.666666666666667 L 78.0 7.0 L 79.0 7.333333333333333 L 80.0 7.666666666666667 L 81.0 8.333333333333334 L 82.0 8.666666666666666 L 83.0 9.333333333333334 L 84.0 9.666666666666666 L 85.0 10.333333333333334 L 86.0 10.666666666666666 L 87.0 11.333333333333334 L 88.0 12.0 L 89.0 13.0 L 90.0 13.666666666666666 L 91.0 14.333333333333334 L 92.0 15.0 L 93.0 16.0 L 94.0 17.0 L 95.0 18.0 L 96.0 19.0 L 96.66666666666667 20.0 L 97.33333333333333 21.0 L 98.0 22.0 L 99.0 23.0 L 99.66666666666667 24.0 L 100.33333333333333 25.0 L 100.66666666666667 26.0 L 101.33333333333333 27.0 L 101.66666666666667 28.0 L 102.33333333333333 29.0 L 102.66666666666667 30.0 L 103.33333333333333 31.0 L 103.66666666666667 32.0 L 104.0 33.0 L 104.33333333333333 34.0 L 104.66666666666667 35.0 L 105.0 36.0 L 105.0 37.0 L 105.33333333333333 38.0 L 105.66666666666667 39.0 L 106.0 40.0 L 106.0 41.0 L 106.0 42.0 L 106.0 43.0 L 106.0 44.0 L 106.0 45.0 L 106.0 46.0 L 106.0 47.0 L 106.0 48.0 L 106.0 49.0 L 106.0 50.0 L 106.0 51.0 L 106.0 52.0 L 106.0 53.0 L 106.0 54.0 L 105.66666666666667 55.0 L 105.33333333333333 56.0 L 105.0 57.0 L 105.0 58.0 L 104.66666666666667 59.0 L 104.33333333333333 60.0 L 104.0 61.0 L 103.66666666666667 62.0 L 103.33333333333333 63.0 L 102.66666666666667 64.0 L 102.33333333333333 65.0 L 101.66666666666667 66.0 L 101.33333333333333 67.0 L 100.66666666666667 68.0 L 100.0 69.0 L 99.33333333333333 70.0 L 98.66666666666667 71.0 L 98.0 72.0 L 97.0 73.0 L 96.33333333333333 74.0 L 95.66666666666667 75.0 L 95.0 76.0 L 94.0 77.0 L 93.0 78.0 L 92.0 78.66666666666667 L 91.0 79.33333333333333 L 90.0 80.0 L 89.0 81.0 L 88.0 82.0 L 87.0 83.0 L 86.0 84.0 L 85.0 85.0 L 84.33333333333333 86.0 L 84.33333333333333 86.66666666666667 L 85.0 87.0 L 86.0 86.66666666666667 L 87.0 86.33333333333333 L 88.0 85.66666666666667 L 89.0 85.0 L 90.0 84.33333333333333 L 91.0 83.66666666666667 L 92.0 83.0 L 93.0 82.0 L 94.0 81.0 L 95.0 80.33333333333333 L 96.0 79.66666666666667 L 96.66666666666667 79.0 L 97.33333333333333 78.0 L 98.0 77.0 L 99.0 76.0 L 100.0 75.0 L 100.66666666666667 74.0 L 101.33333333333333 73.0 L 102.0 72.0 L 102.5 71.5 Z" stroke="none" fill="rgb(61,56,56)" />
<path d="M 23.5 61.5 L 23.666666666666668 62.0 L 24.333333333333332 63.0 L 24.666666666666668 64.0 L 25.333333333333332 65.0 L 25.666666666666668 66.0 L 26.333333333333332 67.0 L 26.666666666666668 68.0 L 27.333333333333332 69.0 L 27.666666666666668 70.0 L 28.333333333333332 71.0 L 29.0 72.0 L 30.0 73.0 L 30.666666666666668 74.0 L 31.333333333333332 75.0 L 32.0 76.0 L 33.0 77.0 L 34.0 78.0 L 35.0 79.0 L 36.0 79.66666666666667 L 37.0 80.0 L 37.666666666666664 79.66666666666667 L 38.0 79.0 L 37.666666666666664 78.0 L 37.0 77.0 L 36.0 76.0 L 35.0 75.0 L 34.0 74.0 L 33.0 73.0 L 32.333333333333336 72.0 L 31.666666666666668 71.0 L 31.0 70.0 L 30.333333333333332 69.0 L 29.666666666666668 68.0 L 29.0 67.0 L 28.333333333333332 66.0 L 27.666666666666668 65.0 L 27.333333333333332 64.0 L 26.666666666666668 63.0 L 26.333333333333332 62.0 L 26.0 61.0 L 25.666666666666668 60.0 L 25.333333333333332 59.0 L 25.0 58.0 L 25.0 57.0 L 24.666666666666668 56.0 L 24.333333333333332 55.0 L 24.0 54.0 L 24.0 53.0 L 24.0 52.0 L 24.0 51.0 L 24.0 50.0 L 23.666666666666668 49.0 L 23.333333333333332 48.0 L 23.0 47.0 L 23.333333333333332 46.0 L 23.666666666666668 45.0 L 24.0 44.0 L 24.0 43.0 L 24.0 42.0 L 24.0 41.0 L 24.0 40.0 L 24.0 39.0 L 24.333333333333332 38.0 L 24.666666666666668 37.0 L 25.0 36.0 L 25.333333333333332 35.0 L 25.666666666666668 34.0 L 26.0 33.0 L 26.333333333333332 32.0 L 26.666666666666668 31.0 L 27.333333333333332 30.0 L 27.666666666666668 29.0 L 28.333333333333332 28.0 L 29.0 27.0 L 29.666666666666668 26.0 L 30.333333333333332 25.0 L 31.0 24.0 L 31.666666666666668 23.0 L 32.333333333333336 22.0 L 33.0 21.0 L 34.0 20.0 L 35.0 19.0 L 36.0 18.0 L 37.0 17.0 L 38.0 16.0 L 39.0 15.333333333333334 L 40.0 14.666666666666666 L 41.0 14.0 L 42.0 13.333333333333334 L 43.0 12.666666666666666 L 44.0 12.0 L 45.0 11.333333333333334 L 46.0 10.666666666666666 L 47.0 10.333333333333334 L 48.0 9.666666666666666 L 49.0 9.333333333333334 L 50.0 9.0 L 51.0 8.666666666666666 L 52.0 8.333333333333334 L 53.0 8.0 L 54.0 8.0 L 55.0 7.666666666666667 L 56.0 7.333333333333333 L 57.0 7.0 L 58.0 7.0 L 59.0 7.0 L 60.0 7.0 L 61.0 7.0 L 62.0 7.0 L 63.0 6.666666666666667 L 64.0 6.666666666666667 L 65.0 6.666666666666667 L 66.0 7.0 L 67.0 7.0 L 68.0 7.0 L 69.0 7.0 L 70.0 7.0 L 71.0 7.0 L 72.0 7.333333333333333 L 73.0 7.666666666666667 L 74.0 8.0 L 75.0 8.0 L 76.0 8.333333333333334 L 77.0 8.666666666666666 L 78.0 9.333333333333334 L 79.0 9.666666666666666 L 80.0 10.0 L 81.0 10.333333333333334 L 82.0 10.666666666666666 L 83.0 11.333333333333334 L 84.0 12.0 L 85.0 12.666666666666666 L 86.0 13.333333333333334 L 87.0 14.0 L 88.0 14.666666666666666 L 89.0 15.333333333333334 L 90.0 16.0 L 91.0 17.0 L 92.0 18.0 L 93.0 19.0 L 94.0 20.0 L 94.66666666666667 21.0 L 95.33333333333333 22.0 L 96.0 23.0 L 97.0 24.0 L 97.66666666666667 25.0 L 98.33333333333333 26.0 L 98.66666666666667 27.0 L 99.33333333333333 28.0 L 99.66666666666667 29.0 L 100.33333333333333 30.0 L 100.66666666666667 31.0 L 101.33333333333333 32.0 L 101.66666666666667 33.0 L 102.33333333333333 34.0 L 102.66666666666667 35.0 L 103.0 36.0 L 103.0 37.0 L 103.33333333333333 38.0 L 103.66666666666667 39.0 L 104.0 40.0 L 104.0 41.0 L 104.0 42.0 L 104.0 43.0 L 104.0 44.0 L 104.0 45.0 L 104.0 46.0 L 104.0 47.0 L 104.0 48.0 L 104.0 49.0 L 104.0 50.0 L 104.0 51.0 L 104.0 52.0 L 104.0 53.0 L 104.0 54.0 L 103.66666666666667 55.0 L 103.33333333333333 56.0 L 103.0 57.0 L 102.66666666666667 58.0 L 102.33333333333333 59.0 L 102.0 60.0 L 101.66666666666667 61.0 L 101.33333333333333 62.0 L 100.66666666666667 63.0 L 100.33333333333333 64.0 L 99.66666666666667 65.0 L 99.33333333333333 66.0 L 98.66666666666667 67.0 L 98.33333333333333 68.0 L 97.66666666666667 69.0 L 97.0 70.0 L 96.0 71.0 L 95.33333333333333 72.0 L 94.66666666666667 73.0 L 94.0 74.0 L 93.0 75.0 L 92.0 76.0 L 91.33333333333333 77.0 L 91.0 78.0 L 91.33333333333333 78.66666666666667 L 92.0 79.0 L 93.0 78.66666666666667 L 94.0 78.0 L 95.0 77.0 L 95.66666666666667 76.0 L 96.33333333333333 75.0 L 97.0 74.0 L 98.0 73.0 L 98.66666666666667 72.0 L 99.33333333333333 71.0 L 100.0 70.0 L 100.66666666666667 69.0 L 101.33333333333333 68.0 L 101.66666666666667 67.0 L 102.33333333333333 66.0 L 102.66666666666667 65.0 L 103.33333333333333 64.0 L 103.66666666666667 63.0 L 104.0 62.0 L 104.33333333333333 61.0 L 104.66666666666667 60.0 L 105.0 59.0 L 105.0 58.0 L 105.33333333333333 57.0 L 105.66666666666667 56.0 L 106.0 55.0 L 106.0 54.0 L 106.0 53.0 L 106.0 52.0 L 106.0 51.0 L 106.0 50.0 L 106.0 49.0 L 106.0 48.0 L 106.0 47.0 L 106.0 46.0 L 106.0 45.0 L 106.0 44.0 L 106.0 43.0 L 106.0 42.0 L 106.0 41.0 L 106.0 40.0 L 106.0 39.0 L 105.66666666666667 38.0 L 105.33333333333333 37.0 L 105.0 36.0 L 105.0 35.0 L 104.66666666666667 34.0 L 104.33333333333333 33.0 L 104.0 32.0 L 103.66666666666667 31.0 L 103.33333333333333 30.0 L 102.66666666666667 29.0 L 102.33333333333333 28.0 L 101.66666666666667 27.0 L 101.33333333333333 26.0 L 100.66666666666667 25.0 L 100.33333333333333 24.0 L 99.66666666666667 23.0 L 99.0 22.0 L 98.0 21.0 L 97.33333333333333 20.0 L 96.66666666666667 19.0 L 96.0 18.0 L 95.0 17.0 L 94.0 16.0 L 93.0 15.0 L 92.0 14.333333333333334 L 91.0 13.666666666666666 L 90.0 13.0 L 89.0 12.0 L 88.0 11.333333333333334 L 87.0 10.666666666666666 L 86.0 10.333333333333334 L 85.0 9.666666666666666 L 84.0 9.333333333333334 L 83.0 8.666666666666666 L 82.0 8.333333333333334 L 81.0 7.666666666666667 L 80.0 7.333333333333333 L 79.0 7.0 L 78.0 6.666666666666667 L 77.0 6.333333333333333 L 76.0 6.0 L 75.0 5.666666666666667 L 74.0 5.333333333333333 L 73.0 5.0 L 72.0 5.0 L 71.0 4.666666666666667 L 70.0 4.333333333333333 L 69.0 4.333333333333333 L 68.0 4.333333333333333 L 67.0 4.333333333333333 L 66.0 4.0 L 65.0 4.0 L 64.0 4.0 L 63.0 4.0 L 62.0 4.0 L 61.0 4.333333333333333 L 60.0 4.333333333333333 L 59.0 4.333333333333333 L 58.0 4.333333333333333 L 57.0 4.666666666666667 L 56.0 5.0 L 55.0 5.0 L 54.0 5.333333333333333 L 53.0 5.666666666666667 L 52.0 6.0 L 51.0 6.0 L 50.0 6.333333333333333 L 49.0 6.666666666666667 L 48.0 7.333333333333333 L 47.0 7.666666666666667 L 46.0 8.333333333333334 L 45.0 8.666666666666666 L 44.0 9.333333333333334 L 43.0 9.666666666666666 L 42.0 10.333333333333334 L 41.0 10.666666666666666 L 40.0 11.333333333333334 L 39.0 12.0 L 38.0 12.666666666666666 L 37.0 13.333333333333334 L 36.0 14.0 L 35.0 15.0 L 34.0 16.0 L 33.0 17.0 L 32.0 18.0 L 31.0 19.0 L 30.333333333333332 20.0 L 29.666666666666668 21.0 L 29.0 22.0 L 28.333333333333332 23.0 L 27.666666666666668 24.0 L 27.333333333333332 25.0 L 26.666666666666668 26.0 L 26.0 27.0 L 25.333333333333332 28.0 L 25.0 29.0 L 24.666666666666668 30.0 L 24.333333333333332 31.0 L 23.666666666666668 32.0 L 23.333333333333332 33.0 L 23.0 34.0 L 23.0 35.0 L 22.666666666666668 36.0 L 22.333333333333332 37.0 L 22.0 38.0 L 22.0 39.0 L 22.0 40.0 L 22.0 41.0 L 21.666666666666668 42.0 L 21.333333333333332 43.0 L 21.0 44.0 L 21.0 45.0 L 21.0 46.0 L 21.0 47.0 L 21.0 48.0 L 21.0 49.0 L 21.0 50.0 L 21.333333333333332 51.0 L 21.666666666666668 52.0 L 22.0 53.0 L 22.0 54.0 L 22.0 55.0 L 22.0 56.0 L 22.333333333333332 57.0 L 22.666666666666668 58.0 L 23.0 59.0 L 23.0 60.0 L 23.0 60.5 Z" stroke="none" fill="rgb(57,53,53)" />
<path d="M 23.5 49.5 L 23.666666666666668 50.0 L 24.0 51.0 L 24.0 52.0 L 24.0 53.0 L 24.0 54.0 L 24.0 55.0 L 24.333333333333332 56.0 L 24.666666666666668 57.0 L 25.0 58.0 L 25.0 59.0 L 25.333333333333332 60.0 L 25.666666666666668 61.0 L 26.0 62.0 L 26.333333333333332 63.0 L 26.666666666666668 64.0 L 27.333333333333332 65.0 L 27.666666666666668 66.0 L 28.333333333333332 67.0 L 29.0 68.0 L 29.666666666666668 69.0 L 30.333333333333332 70.0 L 31.0 71.0 L 31.666666666666668 72.0 L 32.333333333333336 73.0 L 33.0 74.0 L 34.0 75.0 L 35.0 75.66666666666667 L 35.666666666666664 75.66666666666667 L 36.0 75.0 L 35.666666666666664 74.0 L 35.333333333333336 73.0 L 34.666666666666664 72.0 L 34.333333333333336 71.0 L 34.0 70.0 L 33.666666666666664 69.0 L 33.333333333333336 68.0 L 32.666666666666664 67.0 L 32.0 66.0 L 31.0 65.0 L 30.333333333333332 64.0 L 29.666666666666668 63.0 L 29.333333333333332 62.0 L 29.0 61.0 L 28.666666666666668 60.0 L 28.333333333333332 59.0 L 28.0 58.0 L 27.666666666666668 57.0 L 27.333333333333332 56.0 L 27.0 55.0 L 27.0 54.0 L 27.0 53.0 L 26.666666666666668 52.0 L 26.333333333333332 51.0 L 26.0 50.0 L 26.0 49.0 L 26.0 48.0 L 26.0 47.0 L 26.0 46.0 L 26.0 45.0 L 26.0 44.0 L 26.333333333333332 43.0 L 26.666666666666668 42.0 L 27.0 41.0 L 27.0 40.0 L 27.0 39.0 L 27.333333333333332 38.0 L 27.666666666666668 37.0 L 28.0 36.0 L 28.333333333333332 35.0 L 28.666666666666668 34.0 L 29.0 33.0 L 29.333333333333332 32.0 L 29.666666666666668 31.0 L 30.333333333333332 30.0 L 31.0 29.0 L 31.666666666666668 28.0 L 32.333333333333336 27.0 L 32.666666666666664 26.0 L 33.333333333333336 25.0 L 34.0 24.0 L 35.0 23.0 L 36.0 22.0 L 37.0 21.0 L 38.0 20.0 L 39.0 19.0 L 40.0 18.0 L 41.0 17.333333333333332 L 42.0 16.666666666666668 L 43.0 16.0 L 44.0 15.333333333333334 L 45.0 14.666666666666666 L 46.0 14.0 L 47.0 13.333333333333334 L 48.0 12.666666666666666 L 49.0 12.333333333333334 L 50.0 12.0 L 51.0 11.666666666666666 L 52.0 11.333333333333334 L 53.0 11.0 L 54.0 10.666666666666666 L 55.0 10.333333333333334 L 56.0 10.0 L 57.0 10.0 L 58.0 10.0 L 59.0 9.666666666666666 L 60.0 9.333333333333334 L 61.0 9.0 L 62.0 9.0 L 63.0 9.0 L 64.0 9.0 L 65.0 9.0 L 66.0 9.0 L 67.0 9.0 L 68.0 9.333333333333334 L 69.0 9.666666666666666 L 70.0 10.0 L 71.0 10.0 L 72.0 10.0 L 73.0 10.333333333333334 L 74.0 10.666666666666666 L 75.0 11.0 L 76.0 11.333333333333334 L 77.0 11.666666666666666 L 78.0 12.333333333333334 L 79.0 12.666666666666666 L 80.0 13.333333333333334 L 81.0 13.666666666666666 L 82.0 14.333333333333334 L 83.0 14.666666666666666 L 84.0 15.333333333333334 L 85.0 16.0 L 86.0 16.666666666666668 L 87.0 17.333333333333332 L 88.0 18.0 L 89.0 19.0 L 90.0 20.0 L 91.0 21.0 L 92.0 22.0 L 93.0 23.0 L 93.66666666666667 24.0 L 94.33333333333333 25.0 L 95.0 26.0 L 95.66666666666667 27.0 L 96.33333333333333 28.0 L 96.66666666666667 29.0 L 97.33333333333333 30.0 L 97.66666666666667 31.0 L 98.33333333333333 32.0 L 98.66666666666667 33.0 L 99.33333333333333 34.0 L 99.66666666666667 35.0 L 100.0 36.0 L 100.33333333333333 37.0 L 100.66666666666667 38.0 L 101.0 39.0 L 101.0 40.0 L 101.0 41.0 L 101.0 42.0 L 101.33333333333333 43.0 L 101.66666666666667 44.0 L 102.0 45.0 L 102.0 46.0 L 102.0 47.0 L 102.0 48.0 L 101.66666666666667 49.0 L 101.33333333333333 50.0 L 101.0 51.0 L 101.0 52.0 L 101.0 53.0 L 101.0 54.0 L 100.66666666666667 55.0 L 100.33333333333333 56.0 L 100.0 57.0 L 100.0 58.0 L 99.66666666666667 59.0 L 99.33333333333333 60.0 L 98.66666666666667 61.0 L 98.33333333333333 62.0 L 97.66666666666667 63.0 L 97.0 64.0 L 96.33333333333333 65.0 L 95.66666666666667 66.0 L 95.33333333333333 67.0 L 95.0 68.0 L 94.66666666666667 69.0 L 94.33333333333333 70.0 L 93.66666666666667 71.0 L 93.33333333333333 72.0 L 93.0 73.0 L 93.0 74.0 L 93.33333333333333 74.66666666666667 L 94.0 74.66666666666667 L 94.66666666666667 74.0 L 95.33333333333333 73.0 L 96.0 72.0 L 97.0 71.0 L 97.66666666666667 70.0 L 98.33333333333333 69.0 L 98.66666666666667 68.0 L 99.33333333333333 67.0 L 99.66666666666667 66.0 L 100.33333333333333 65.0 L 100.66666666666667 64.0 L 101.33333333333333 63.0 L 101.66666666666667 62.0 L 102.0 61.0 L 102.33333333333333 60.0 L 102.66666666666667 59.0 L 103.0 58.0 L 103.33333333333333 57.0 L 103.66666666666667 56.0 L 104.0 55.0 L 104.0 54.0 L 104.0 53.0 L 104.0 52.0 L 104.0 51.0 L 104.0 50.0 L 104.0 49.0 L 104.0 48.0 L 104.0 47.0 L 104.0 46.0 L 104.0 45.0 L 104.0 44.0 L 104.0 43.0 L 104.0 42.0 L 104.0 41.0 L 104.0 40.0 L 104.0 39.0 L 103.66666666666667 38.0 L 103.33333333333333 37.0 L 103.0 36.0 L 103.0 35.0 L 102.66666666666667 34.0 L 102.33333333333333 33.0 L 101.66666666666667 32.0 L 101.33333333333333 31.0 L 100.66666666666667 30.0 L 100.33333333333333 29.0 L 99.66666666666667 28.0 L 99.33333333333333 27.0 L 98.66666666666667 26.0 L 98.33333333333333 25.0 L 97.66666666666667 24.0 L 97.0 23.0 L 96.0 22.0 L 95.33333333333333 21.0 L 94.66666666666667 20.0 L 94.0 19.0 L 93.0 18.0 L 92.0 17.0 L 91.0 16.0 L 90.0 15.333333333333334 L 89.0 14.666666666666666 L 88.0 14.0 L 87.0 13.333333333333334 L 86.0 12.666666666666666 L 85.0 12.0 L 84.0 11.333333333333334 L 83.0 10.666666666666666 L 82.0 10.333333333333334 L 81.0 10.0 L 80.0 9.666666666666666 L 79.0 9.333333333333334 L 78.0 8.666666666666666 L 77.0 8.333333333333334 L 76.0 8.0 L 75.0 8.0 L 74.0 7.666666666666667 L 73.0 7.333333333333333 L 72.0 7.0 L 71.0 7.0 L 70.0 7.0 L 69.0 7.0 L 68.0 7.0 L 67.0 7.0 L 66.0 6.666666666666667 L 65.0 6.333333333333333 L 64.0 6.0 L 63.0 6.333333333333333 L 62.0 6.666666666666667 L 61.0 7.0 L 60.0 7.0 L 59.0 7.0 L 58.0 7.0 L 57.0 7.0 L 56.0 7.0 L 55.0 7.333333333333333 L 54.0 7.666666666666667 L 53.0 8.0 L 52.0 8.0 L 51.0 8.333333333333334 L 50.0 8.666666666666666 L 49.0 9.0 L 48.0 9.333333333333334 L 47.0 9.666666666666666 L 46.0 10.333333333333334 L 45.0 10.666666666666666 L 44.0 11.333333333333334 L 43.0 12.0 L 42.0 12.666666666666666 L 41.0 13.333333333333334 L 40.0 14.0 L 39.0 14.666666666666666 L 38.0 15.333333333333334 L 37.0 16.0 L 36.0 17.0 L 35.0 18.0 L 34.0 19.0 L 33.0 20.0 L 32.333333333333336 21.0 L 31.666666666666668 22.0 L 31.0 23.0 L 30.333333333333332 24.0 L 29.666666666666668 25.0 L 29.0 26.0 L 28.333333333333332 27.0 L 27.666666666666668 28.0 L 27.333333333333332 29.0 L 26.666666666666668 30.0 L 26.333333333333332 31.0 L 26.0 32.0 L 25.666666666666668 33.0 L 25.333333333333332 34.0 L 25.0 35.0 L 24.666666666666668 36.0 L 24.333333333333332 37.0 L 24.0 38.0 L 24.0 39.0 L 24.0 40.0 L 24.0 41.0 L 24.0 42.0 L 24.0 43.0 L 23.666666666666668 44.0 L 23.333333333333332 45.0 L 23.0 46.0 L 23.0 47.0 L 23.0 48.0 L 23.0 48.5 Z" stroke="none" fill="rgb(54,50,49)" />
<path d="M 58.5 41.0 L 59.0 40.666666666666664 L 60.0 40.0 L 61.0 39.333333333333336 L 62.0 38.666666666666664 L 63.0 38.333333333333336 L 64.0 38.0 L 65.0 38.0 L 66.0 38.0 L 67.0 38.0 L 68.0 38.0 L 69.0 38.333333333333336 L 70.0 39.0 L 71.0 39.666666666666664 L 72.0 40.333333333333336 L 73.0 40.666666666666664 L 74.0 41.0 L 75.0 41.0 L 76.0 41.0 L 77.0 41.0 L 78.0 41.0 L 79.0 41.0 L 80.0 41.0 L 81.0 40.666666666666664 L 82.0 40.666666666666664 L 83.0 41.0 L 84.0 41.666666666666664 L 85.0 42.333333333333336 L 86.0 42.666666666666664 L 87.0 43.333333333333336 L 88.0 44.0 L 89.0 45.0 L 89.66666666666667 46.0 L 90.0 47.0 L 90.33333333333333 48.0 L 91.0 49.0 L 92.0 50.0 L 92.66666666666667 51.0 L 93.0 52.0 L 93.0 53.0 L 93.0 54.0 L 93.0 55.0 L 93.0 56.0 L 93.0 57.0 L 93.0 58.0 L 93.33333333333333 59.0 L 93.66666666666667 60.0 L 94.33333333333333 61.0 L 94.66666666666667 62.0 L 95.0 63.0 L 95.0 64.0 L 95.33333333333333 64.66666666666667 L 96.0 65.0 L 97.0 64.66666666666667 L 97.66666666666667 64.0 L 98.33333333333333 63.0 L 98.66666666666667 62.0 L 99.33333333333333 61.0 L 99.66666666666667 60.0 L 100.0 59.0 L 100.0 58.0 L 100.33333333333333 57.0 L 100.66666666666667 56.0 L 101.0 55.0 L 101.0 54.0 L 101.0 53.0 L 101.0 52.0 L 101.33333333333333 51.0 L 101.66666666666667 50.0 L 102.0 49.0 L 102.0 48.0 L 102.0 47.0 L 102.0 46.0 L 102.0 45.0 L 102.0 44.0 L 101.66666666666667 43.0 L 101.33333333333333 42.0 L 101.0 41.0 L 101.0 40.0 L 101.0 39.0 L 101.0 38.0 L 100.66666666666667 37.0 L 100.33333333333333 36.0 L 100.0 35.0 L 99.66666666666667 34.0 L 99.33333333333333 33.0 L 98.66666666666667 32.0 L 98.33333333333333 31.0 L 97.66666666666667 30.0 L 97.33333333333333 29.0 L 96.66666666666667 28.0 L 96.33333333333333 27.0 L 95.66666666666667 26.0 L 95.0 25.0 L 94.33333333333333 24.0 L 93.66666666666667 23.0 L 93.0 22.0 L 92.0 21.0 L 91.0 20.0 L 90.0 19.0 L 89.0 18.0 L 88.0 17.333333333333332 L 87.0 16.666666666666668 L 86.0 16.0 L 85.0 15.333333333333334 L 84.0 14.666666666666666 L 83.0 14.333333333333334 L 82.0 13.666666666666666 L 81.0 13.333333333333334 L 80.0 12.666666666666666 L 79.0 12.333333333333334 L 78.0 11.666666666666666 L 77.0 11.333333333333334 L 76.0 11.0 L 75.0 10.666666666666666 L 74.0 10.333333333333334 L 73.0 10.0 L 72.0 10.0 L 71.0 10.0 L 70.0 9.666666666666666 L 69.0 9.333333333333334 L 68.0 9.0 L 67.0 9.0 L 66.0 9.0 L 65.0 9.0 L 64.0 9.0 L 63.0 9.0 L 62.0 9.0 L 61.0 9.0 L 60.0 9.0 L 59.0 9.333333333333334 L 58.0 9.666666666666666 L 57.0 10.0 L 56.0 10.0 L 55.0 10.0 L 54.0 10.333333333333334 L 53.0 10.666666666666666 L 52.0 11.0 L 51.0 11.333333333333334 L 50.0 11.666666666666666 L 49.0 12.0 L 48.0 12.333333333333334 L 47.0 12.666666666666666 L 46.0 13.333333333333334 L 45.0 14.0 L 44.0 14.666666666666666 L 43.0 15.333333333333334 L 42.0 16.0 L 41.0 16.666666666666668 L 40.0 17.333333333333332 L 39.0 18.0 L 38.0 19.0 L 37.0 20.0 L 36.0 21.0 L 35.0 22.0 L 34.0 23.0 L 33.333333333333336 24.0 L 32.666666666666664 25.0 L 32.333333333333336 26.0 L 31.666666666666668 27.0 L 31.0 28.0 L 30.333333333333332 29.0 L 29.666666666666668 30.0 L 29.333333333333332 31.0 L 29.0 32.0 L 28.666666666666668 33.0 L 28.333333333333332 34.0 L 28.0 35.0 L 27.666666666666668 36.0 L 27.333333333333332 37.0 L 27.0 38.0 L 27.0 39.0 L 27.0 40.0 L 26.666666666666668 41.0 L 26.333333333333332 42.0 L 26.0 43.0 L 26.0 44.0 L 26.0 45.0 L 26.0 46.0 L 26.0 47.0 L 26.0 48.0 L 26.0 49.0 L 26.0 50.0 L 26.0 51.0 L 26.333333333333332 52.0 L 26.666666666666668 53.0 L 27.0 54.0 L 27.0 55.0 L 27.0 56.0 L 27.333333333333332 57.0 L 27.666666666666668 58.0 L 28.0 59.0 L 28.333333333333332 60.0 L 28.666666666666668 61.0 L 29.0 62.0 L 29.333333333333332 63.0 L 29.666666666666668 64.0 L 30.333333333333332 65.0 L 31.0 66.0 L 32.0 66.66666666666667 L 32.666666666666664 66.66666666666667 L 33.0 66.0 L 33.333333333333336 65.0 L 33.666666666666664 64.0 L 34.0 63.0 L 34.0 62.0 L 34.0 61.0 L 34.0 60.0 L 34.0 59.0 L 34.0 58.0 L 34.0 57.0 L 34.333333333333336 56.0 L 35.0 55.0 L 35.666666666666664 54.0 L 36.333333333333336 53.0 L 36.666666666666664 52.0 L 37.0 51.0 L 37.0 50.0 L 37.0 49.0 L 37.333333333333336 48.0 L 38.0 47.0 L 39.0 46.0 L 40.0 45.0 L 41.0 44.0 L 42.0 43.333333333333336 L 43.0 43.0 L 44.0 43.0 L 45.0 43.0 L 46.0 43.0 L 47.0 43.0 L 48.0 43.0 L 49.0 43.0 L 50.0 43.0 L 51.0 42.666666666666664 L 52.0 42.0 L 53.0 41.333333333333336 L 54.0 41.0 L 55.0 41.0 L 56.0 41.0 L 57.0 41.0 L 57.5 41.0 Z" stroke="none" fill="rgb(49,45,45)" />
<path d="M 59.5 95.0 L 60.0 95.0 L 61.0 95.0 L 62.0 95.0 L 63.0 95.0 L 64.0 95.0 L 65.0 95.0 L 66.0 95.0 L 67.0 95.0 L 68.0 95.0 L 69.0 95.0 L 70.0 94.66666666666667 L 71.0 94.66666666666667 L 72.0 94.66666666666667 L 73.0 95.0 L 74.0 95.0 L 75.0 95.0 L 75.66666666666667 94.66666666666667 L 76.33333333333333 94.0 L 77.0 93.33333333333333 L 77.66666666666667 92.66666666666667 L 78.33333333333333 92.0 L 79.0 91.0 L 80.0 90.33333333333333 L 81.0 89.66666666666667 L 82.0 89.0 L 83.0 88.0 L 84.0 87.0 L 85.0 86.0 L 86.0 85.0 L 87.0 84.0 L 88.0 83.0 L 89.0 82.0 L 90.0 81.0 L 90.66666666666667 80.0 L 91.0 79.0 L 91.33333333333333 78.0 L 92.0 77.0 L 92.66666666666667 76.0 L 93.0 75.0 L 93.0 74.0 L 93.33333333333333 73.0 L 93.66666666666667 72.0 L 94.33333333333333 71.0 L 94.66666666666667 70.0 L 95.0 69.0 L 95.33333333333333 68.0 L 95.66666666666667 67.0 L 96.0 66.0 L 95.66666666666667 65.0 L 95.33333333333333 64.0 L 95.0 63.0 L 95.0 62.0 L 94.66666666666667 61.0 L 94.33333333333333 60.0 L 93.66666666666667 59.0 L 93.33333333333333 58.0 L 93.0 57.0 L 93.0 56.0 L 93.0 55.0 L 93.0 54.0 L 93.0 53.0 L 93.0 52.0 L 93.0 51.0 L 92.66666666666667 50.0 L 92.0 49.0 L 91.0 48.0 L 90.33333333333333 47.0 L 90.0 46.0 L 89.66666666666667 45.0 L 89.0 44.0 L 88.0 43.333333333333336 L 87.0 42.666666666666664 L 86.0 42.333333333333336 L 85.0 41.666666666666664 L 84.0 41.0 L 83.0 40.333333333333336 L 82.0 40.0 L 81.0 40.333333333333336 L 80.0 40.666666666666664 L 79.0 41.0 L 78.0 41.0 L 77.0 41.0 L 76.0 41.0 L 75.0 41.0 L 74.0 40.666666666666664 L 73.0 40.333333333333336 L 72.0 39.666666666666664 L 71.0 39.0 L 70.0 38.333333333333336 L 69.0 38.0 L 68.0 38.0 L 67.0 38.0 L 66.0 38.0 L 65.0 38.0 L 64.0 38.0 L 63.0 38.0 L 62.0 38.333333333333336 L 61.0 38.666666666666664 L 60.0 39.333333333333336 L 59.0 40.0 L 58.0 40.666666666666664 L 57.0 41.0 L 56.0 41.0 L 55.0 41.0 L 54.0 41.0 L 53.0 41.0 L 52.0 41.333333333333336 L 51.0 42.0 L 50.0 42.666666666666664 L 49.0 43.0 L 48.0 43.0 L 47.0 43.0 L 46.0 43.0 L 45.0 43.0 L 44.0 43.0 L 43.0 43.0 L 42.0 43.0 L 41.0 43.333333333333336 L 40.0 44.0 L 39.0 45.0 L 38.0 46.0 L 37.333333333333336 47.0 L 37.0 48.0 L 37.0 49.0 L 37.0 50.0 L 36.666666666666664 51.0 L 36.333333333333336 52.0 L 35.666666666666664 53.0 L 35.0 54.0 L 34.333333333333336 55.0 L 34.0 56.0 L 34.0 57.0 L 34.0 58.0 L 34.0 59.0 L 34.0 60.0 L 34.0 61.0 L 34.0 62.0 L 33.666666666666664 63.0 L 33.333333333333336 64.0 L 33.0 65.0 L 33.0 66.0 L 33.0 67.0 L 33.0 68.0 L 33.333333333333336 69.0 L 33.666666666666664 70.0 L 34.0 71.0 L 34.333333333333336 72.0 L 34.666666666666664 73.0 L 35.333333333333336 74.0 L 35.666666666666664 75.0 L 36.0 76.0 L 36.333333333333336 77.0 L 37.0 78.0 L 37.666666666666664 79.0 L 38.333333333333336 80.0 L 39.0 81.0 L 40.0 82.0 L 41.0 83.0 L 42.0 84.0 L 43.0 85.0 L 44.0 86.0 L 45.0 87.0 L 46.0 88.0 L 47.0 89.0 L 48.0 90.0 L 49.0 90.66666666666667 L 50.0 91.33333333333333 L 51.0 92.0 L 52.0 92.66666666666667 L 53.0 93.0 L 54.0 93.33333333333333 L 55.0 93.66666666666667 L 56.0 94.0 L 57.0 94.0 L 58.0 94.33333333333333 L 58.5 94.5 Z" stroke="none" fill="rgb(249,221,189)" />
<path d="M 39.5 124.0 L 40.0 124.0 L 41.0 124.0 L 42.0 124.0 L 43.0 124.0 L 44.0 124.0 L 45.0 124.0 L 46.0 124.0 L 47.0 124.0 L 48.0 124.0 L 49.0 124.0 L 50.0 124.0 L 51.0 124.0 L 52.0 124.0 L 53.0 124.0 L 54.0 124.0 L 55.0 124.0 L 56.0 124.0 L 57.0 124.0 L 58.0 124.0 L 59.0 124.0 L 60.0 124.0 L 61.0 124.0 L 62.0 124.0 L 63.0 124.0 L 64.0 124.0 L 65.0 124.0 L 66.0 124.0 L 67.0 124.0 L 68.0 124.0 L 69.0 124.0 L 70.0 124.0 L 71.0 124.0 L 72.0 124.0 L 73.0 124.0 L 74.0 124.0 L 75.0 124.0 L 76.0 124.0 L 77.0 124.0 L 78.0 124.0 L 79.0 124.0 L 80.0 124.0 L 81.0 124.0 L 82.0 124.0 L 83.0 124.0 L 84.0 124.0 L 85.0 124.0 L 86.0 124.0 L 87.0 124.0 L 88.0 124.0 L 89.0 124.0 L 90.0 124.0 L 91.0 124.0 L 92.0 124.0 L 93.0 124.0 L 94.0 124.0 L 95.0 124.0 L 96.0 124.0 L 97.0 124.0 L 98.0 124.0 L 99.0 124.0 L 100.0 124.0 L 101.0 124.0 L 102.0 124.0 L 103.0 124.0 L 104.0 124.0 L 105.0 124.0 L 106.0 124.0 L 107.0 124.0 L 108.0 124.0 L 109.0 124.0 L 110.0 124.0 L 111.0 124.0 L 112.0 124.0 L 113.0 124.0 L 114.0 124.0 L 114.66666666666667 123.66666666666667 L 115.0 123.0 L 115.0 122.0 L 115.0 121.0 L 115.0 120.0 L 114.66666666666667 119.33333333333333 L 114.0 119.0 L 113.0 119.0 L 112.0 119.0 L 111.0 119.0 L 110.0 119.0 L 109.0 119.0 L 108.0 119.0 L 107.0 119.0 L 106.0 119.0 L 105.0 119.0 L 104.0 119.0 L 103.0 119.0 L 102.0 119.0 L 101.0 119.0 L 100.0 119.0 L 99.0 119.0 L 98.0 119.0 L 97.0 119.0 L 96.0 119.0 L 95.0 119.0 L 94.0 119.0 L 93.0 119.0 L 92.0 119.0 L 91.0 119.0 L 90.0 119.0 L 89.0 119.0 L 88.0 119.0 L 87.0 119.0 L 86.0 119.0 L 85.0 119.0 L 84.0 119.0 L 83.0 119.0 L 82.0 119.0 L 81.0 119.0 L 80.0 119.0 L 79.0 119.0 L 78.0 119.0 L 77.0 119.0 L 76.0 119.0 L 75.0 119.0 L 74.0 119.0 L 73.0 119.0 L 72.0 119.0 L 71.0 119.0 L 70.0 119.0 L 69.0 119.0 L 68.0 119.0 L 67.0 119.0 L 66.0 119.0 L 65.0 119.0 L 64.0 119.0 L 63.0 119.0 L 62.0 119.0 L 61.0 119.0 L 60.0 119.0 L 59.0 119.0 L 58.0 119.0 L 57.0 119.0 L 56.0 119.0 L 55.0 119.0 L 54.0 119.0 L 53.0 119.0 L 52.0 119.0 L 51.0 119.0 L 50.0 119.0 L 49.0 119.0 L 48.0 119.0 L 47.0 119.0 L 46.0 119.0 L 45.0 119.0 L 44.0 119.0 L 43.0 119.0 L 42.0 119.0 L 41.0 119.0 L 40.0 119.0 L 39.0 119.0 L 38.0 119.0 L 37.0 119.0 L 36.0 119.0 L 35.0 119.0 L 34.0 119.0 L 33.0 119.0 L 32.0 119.0 L 31.0 119.0 L 30.0 119.0 L 29.0 119.0 L 28.0 119.0 L 27.0 119.0 L 26.0 119.0 L 25.0 119.0 L 24.0 119.0 L 23.0 119.0 L 22.0 119.0 L 21.0 119.0 L 20.0 119.0 L 19.0 119.0 L 18.0 119.0 L 17.0 119.0 L 16.0 119.0 L 15.0 119.0 L 14.0 119.0 L 13.333333333333334 119.33333333333333 L 13.0 120.0 L 13.0 121.0 L 13.0 122.0 L 13.0 123.0 L 13.333333333333334 123.66666666666667 L 14.0 124.0 L 15.0 124.0 L 16.0 124.0 L 17.0 124.0 L 18.0 124.0 L 19.0 124.0 L 20.0 124.0 L 21.0 124.0 L 22.0 124.0 L 23.0 124.0 L 24.0 124.0 L 25.0 124.0 L 26.0 124.0 L 27.0 124.0 L 28.0 124.0 L 29.0 124.0 L 30.0 124.0 L 31.0 124.0 L 32.0 124.0 L 33.0 124.0 L 34.0 124.0 L 35.0 124.0 L 36.0 124.0 L 37.0 124.0 L 38.0 124.0 L 38.5 124.0 Z" stroke="none" fill="rgb(84,15,236)" />
<path d="M 95.5 112.0 L 96.0 112.0 L 97.0 112.0 L 98.0 112.0 L 99.0 112.0 L 100.0 112.0 L 101.0 112.0 L 102.0 112.0 L 103.0 112.0 L 104.0 112.0 L 105.0 112.0 L 106.0 112.0 L 107.0 112.0 L 108.0 112.0 L 109.0 112.0 L 110.0 112.0 L 111.0 112.0 L 111.66666666666667 111.66666666666667 L 112.0 111.0 L 112.0 110.0 L 111.66666666666667 109.0 L 111.0 108.0 L 110.0 107.33333333333333 L 109.0 107.0 L 108.0 107.0 L 107.0 107.0 L 106.0 107.0 L 105.0 107.0 L 104.0 107.0 L 103.0 107.0 L 102.0 107.0 L 101.0 107.0 L 100.0 107.0 L 99.0 107.0 L 98.0 107.0 L 97.0 107.0 L 96.0 107.0 L 95.0 107.0 L 94.0 107.0 L 93.0 107.0 L 92.0 107.0 L 91.0 107.0 L 90.0 107.0 L 89.0 107.0 L 88.0 107.0 L 87.0 107.0 L 86.0 107.0 L 85.0 107.0 L 84.0 107.0 L 83.0 107.0 L 82.0 107.0 L 81.0 107.0 L 80.0 107.0 L 79.0 107.0 L 78.0 107.0 L 77.0 107.0 L 76.0 107.0 L 75.0 107.0 L 74.0 107.0 L 73.0 107.0 L 72.0 107.0 L 71.0 107.0 L 70.0 107.33333333333333 L 69.0 107.66666666666667 L 68.0 108.0 L 67.0 108.0 L 66.0 108.0 L 65.0 108.0 L 64.0 108.0 L 63.0 108.0 L 62.0 108.0 L 61.0 108.0 L 60.0 107.66666666666667 L 59.0 107.33333333333333 L 58.0 107.0 L 57.0 107.0 L 56.0 107.0 L 55.0 107.0 L 54.0 107.0 L 53.0 107.0 L 52.0 107.0 L 51.0 107.0 L 50.0 107.0 L 49.0 107.0 L 48.0 107.0 L 47.0 107.0 L 46.0 107.0 L 45.0 107.0 L 44.0 107.0 L 43.0 107.0 L 42.0 107.0 L 41.0 107.0 L 40.0 107.0 L 39.0 107.0 L 38.0 107.0 L 37.0 107.0 L 36.0 107.0 L 35.0 107.0 L 34.0 107.0 L 33.0 107.0 L 32.0 107.0 L 31.0 107.0 L 30.0 107.0 L 29.0 107.0 L 28.0 107.0 L 27.0 107.0 L 26.0 107.0 L 25.0 107.0 L 24.0 107.0 L 23.0 107.0 L 22.0 107.0 L 21.0 107.0 L 20.0 107.0 L 19.0 107.0 L 18.0 107.33333333333333 L 17.0 108.0 L 16.333333333333332 109.0 L 16.0 110.0 L 16.0 111.0 L 16.333333333333332 111.66666666666667 L 17.0 112.0 L 18.0 112.0 L 19.0 112.0 L 20.0 112.0 L 21.0 112.0 L 22.0 112.0 L 23.0 112.0 L 24.0 112.0 L 25.0 112.0 L 26.0 112.0 L 27.0 112.0 L 28.0 112.0 L 29.0 112.0 L 30.0 112.0 L 31.0 112.0 L 32.0 112.0 L 33.0 112.0 L 34.0 112.0 L 35.0 112.0 L 36.0 112.0 L 37.0 112.0 L 38.0 112.0 L 39.0 112.0 L 40.0 112.0 L 41.0 112.0 L 42.0 112.0 L 43.0 112.0 L 44.0 112.0 L 45.0 112.0 L 46.0 112.0 L 47.0 112.0 L 48.0 112.0 L 49.0 112.0 L 50.0 112.0 L 51.0 112.0 L 52.0 112.0 L 53.0 112.0 L 54.0 112.0 L 55.0 112.0 L 56.0 112.0 L 57.0 112.0 L 58.0 112.0 L 59.0 112.0 L 60.0 112.0 L 61.0 112.0 L 62.0 112.0 L 63.0 112.0 L 64.0 112.0 L 65.0 112.0 L 66.0 112.0 L 67.0 112.0 L 68.0 112.0 L 69.0 112.0 L 70.0 112.0 L 71.0 112.0 L 72.0 112.0 L 73.0 112.0 L 74.0 112.0 L 75.0 112.0 L 76.0 112.0 L 77.0 112.0 L 78.0 112.0 L 79.0 112.0 L 80.0 112.0 L 81.0 112.0 L 82.0 112.0 L 83.0 112.0 L 84.0 112.0 L 85.0 112.0 L 86.0 112.0 L 87.0 112.0 L 88.0 112.0 L 89.0 112.0 L 90.0 112.0 L 91.0 112.0 L 92.0 112.0 L 93.0 112.0 L 94.0 112.0 L 94.5 112.0 Z" stroke="none" fill="rgb(92,23,245)" />
<path d="M 26.5 116.0 L 27.0 116.0 L 28.0 116.0 L 29.0 116.0 L 30.0 116.0 L 31.0 116.0 L 32.0 116.0 L 33.0 116.0 L 34.0 116.0 L 35.0 116.0 L 36.0 116.0 L 37.0 116.0 L 38.0 116.0 L 39.0 116.0 L 40.0 116.0 L 41.0 116.0 L 42.0 116.0 L 43.0 116.0 L 44.0 116.0 L 45.0 116.0 L 46.0 116.0 L 47.0 116.0 L 48.0 116.0 L 49.0 116.0 L 50.0 116.0 L 51.0 116.0 L 52.0 116.0 L 53.0 116.0 L 54.0 116.0 L 55.0 116.0 L 56.0 116.0 L 57.0 116.0 L 58.0 116.0 L 59.0 116.0 L 60.0 116.0 L 61.0 116.0 L 62.0 116.0 L 63.0 116.0 L 64.0 116.0 L 65.0 116.0 L 66.0 116.0 L 67.0 116.0 L 68.0 116.0 L 69.0 116.0 L 70.0 116.0 L 71.0 116.0 L 72.0 116.0 L 73.0 116.0 L 74.0 116.0 L 75.0 116.0 L 76.0 116.0 L 77.0 116.0 L 78.0 116.0 L 79.0 116.0 L 80.0 116.0 L 81.0 116.0 L 82.0 116.0 L 83.0 116.0 L 84.0 116.0 L 85.0 116.0 L 86.0 116.0 L 87.0 116.0 L 88.0 116.0 L 89.0 116.0 L 90.0 116.0 L 91.0 116.0 L 92.0 116.0 L 93.0 116.0 L 94.0 116.0 L 95.0 116.0 L 96.0 116.0 L 97.0 116.0 L 98.0 116.0 L 99.0 116.0 L 100.0 116.0 L 101.0 116.0 L 102.0 116.0 L 103.0 116.0 L 104.0 116.0 L 105.0 116.0 L 106.0 116.0 L 107.0 116.0 L 108.0 116.0 L 109.0 116.0 L 110.0 116.0 L 111.0 116.0 L 112.0 116.0 L 113.0 116.0 L 113.66666666666667 115.66666666666667 L 114.0 115.0 L 114.0 114.0 L 113.66666666666667 113.0 L 113.0 112.33333333333333 L 112.0 112.0 L 111.0 112.0 L 110.0 112.0 L 109.0 112.0 L 108.0 112.0 L 107.0 112.0 L 106.0 112.0 L 105.0 112.0 L 104.0 112.0 L 103.0 112.0 L 102.0 112.0 L 101.0 112.0 L 100.0 112.0 L 99.0 112.0 L 98.0 112.0 L 97.0 112.0 L 96.0 112.0 L 95.0 112.0 L 94.0 112.0 L 93.0 112.0 L 92.0 112.0 L 91.0 112.0 L 90.0 112.0 L 89.0 112.0 L 88.0 112.0 L 87.0 112.0 L 86.0 112.0 L 85.0 112.0 L 84.0 112.0 L 83.0 112.0 L 82.0 112.0 L 81.0 112.0 L 80.0 112.0 L 79.0 112.0 L 78.0 112.0 L 77.0 112.0 L 76.0 112.0 L 75.0 112.0 L 74.0 112.0 L 73.0 112.0 L 72.0 112.0 L 71.0 112.0 L 70.0 112.0 L 69.0 112.0 L 68.0 112.0 L 67.0 112.0 L 66.0 112.0 L 65.0 112.0 L 64.0 112.0 L 63.0 112.0 L 62.0 112.0 L 61.0 112.0 L 60.0 112.0 L 59.0 112.0 L 58.0 112.0 L 57.0 112.0 L 56.0 112.0 L 55.0 112.0 L 54.0 112.0 L 53.0 112.0 L 52.0 112.0 L 51.0 112.0 L 50.0 112.0 L 49.0 112.0 L 48.0 112.0 L 47.0 112.0 L 46.0 112.0 L 45.0 112.0 L 44.0 112.0 L 43.0 112.0 L 42.0 112.0 L 41.0 112.0 L 40.0 112.0 L 39.0 112.0 L 38.0 112.0 L 37.0 112.0 L 36.0 112.0 L 35.0 112.0 L 34.0 112.0 L 33.0 112.0 L 32.0 112.0 L 31.0 112.0 L 30.0 112.0 L 29.0 112.0 L 28.0 112.0 L 27.0 112.0 L 26.0 112.0 L 25.0 112.0 L 24.0 112.0 L 23.0 112.0 L 22.0 112.0 L 21.0 112.0 L 20.0 112.0 L 19.0 112.0 L 18.0 112.0 L 17.0 112.0 L 16.0 112.0 L 15.0 112.33333333333333 L 14.333333333333334 113.0 L 14.0 114.0 L 14.0 115.0 L 14.333333333333334 115.66666666666667 L 15.0 116.0 L 16.0 116.0 L 17.0 116.0 L 18.0 116.0 L 19.0 116.0 L 20.0 116.0 L 21.0 116.0 L 22.0 116.0 L 23.0 116.0 L 24.0 116.0 L 25.0 116.0 L 25.5 116.0 Z" stroke="none" fill="rgb(89,20,242)" />
<path d="M 100.5 88.0 L 101.0 87.66666666666667 L 102.0 87.33333333333333 L 103.0 86.66666666666667 L 103.66666666666667 86.0 L 104.0 85.0 L 104.33333333333333 84.0 L 104.66666666666667 83.0 L 105.0 82.0 L 105.33333333333333 81.0 L 106.0 80.0 L 107.0 79.0 L 108.0 78.0 L 108.66666666666667 77.0 L 109.33333333333333 76.0 L 109.66666666666667 75.0 L 110.0 74.0 L 110.0 73.0 L 110.0 72.0 L 110.0 71.0 L 110.33333333333333 70.0 L 111.0 69.0 L 112.0 68.0 L 112.66666666666667 67.0 L 113.0 66.0 L 113.0 65.0 L 113.0 64.0 L 113.0 63.0 L 112.66666666666667 62.0 L 112.66666666666667 61.0 L 113.0 60.0 L 114.0 59.0 L 114.66666666666667 58.0 L 115.0 57.0 L 115.0 56.0 L 115.0 55.0 L 115.0 54.0 L 114.66666666666667 53.0 L 114.33333333333333 52.0 L 114.0 51.0 L 114.0 50.0 L 114.0 49.0 L 114.0 48.0 L 114.0 47.0 L 114.0 46.0 L 114.0 45.0 L 114.0 44.0 L 113.66666666666667 43.333333333333336 L 113.0 43.0 L 112.33333333333333 43.333333333333336 L 112.0 44.0 L 112.0 45.0 L 112.0 46.0 L 112.0 47.0 L 112.0 48.0 L 112.0 49.0 L 112.0 50.0 L 112.0 51.0 L 112.0 52.0 L 111.66666666666667 53.0 L 111.33333333333333 54.0 L 111.0 55.0 L 111.0 56.0 L 111.0 57.0 L 110.66666666666667 58.0 L 110.33333333333333 59.0 L 110.0 60.0 L 109.66666666666667 61.0 L 109.33333333333333 62.0 L 109.0 63.0 L 108.66666666666667 64.0 L 108.33333333333333 65.0 L 107.66666666666667 66.0 L 107.33333333333333 67.0 L 106.66666666666667 68.0 L 106.33333333333333 69.0 L 105.66666666666667 70.0 L 105.33333333333333 71.0 L 104.66666666666667 72.0 L 104.0 73.0 L 103.33333333333333 74.0 L 102.66666666666667 75.0 L 102.0 76.0 L 101.0 77.0 L 100.0 78.0 L 99.0 79.0 L 98.0 80.0 L 97.0 81.0 L 96.0 82.0 L 95.0 83.0 L 94.0 84.0 L 93.0 85.0 L 92.0 85.66666666666667 L 91.0 86.33333333333333 L 90.0 87.0 L 89.0 87.66666666666667 L 88.0 88.33333333333333 L 87.0 88.66666666666667 L 86.0 89.33333333333333 L 85.0 89.66666666666667 L 84.0 90.33333333333333 L 83.0 90.66666666666667 L 82.0 91.33333333333333 L 81.0 91.66666666666667 L 80.0 92.0 L 79.0 92.0 L 78.0 92.33333333333333 L 77.0 92.66666666666667 L 76.33333333333333 93.33333333333333 L 76.0 94.0 L 76.33333333333333 94.66666666666667 L 77.0 95.0 L 78.0 95.0 L 79.0 95.33333333333333 L 80.0 95.66666666666667 L 81.0 96.0 L 82.0 96.0 L 83.0 96.0 L 84.0 96.0 L 85.0 96.0 L 86.0 96.0 L 87.0 96.0 L 88.0 95.66666666666667 L 89.0 95.33333333333333 L 90.0 95.0 L 91.0 95.0 L 92.0 95.0 L 93.0 95.0 L 94.0 94.66666666666667 L 95.0 94.0 L 96.0 93.0 L 96.66666666666667 92.0 L 97.0 91.0 L 97.33333333333333 90.0 L 98.0 89.33333333333333 L 99.0 88.66666666666667 L 99.5 88.5 Z" stroke="none" fill="rgb(69,65,64)" />
<path d="M 95.5 119.0 L 96.0 119.0 L 97.0 119.0 L 98.0 119.0 L 99.0 119.0 L 100.0 119.0 L 101.0 119.0 L 102.0 119.0 L 103.0 119.0 L 104.0 119.0 L 105.0 119.0 L 106.0 119.0 L 107.0 119.0 L 108.0 119.0 L 109.0 119.0 L 110.0 119.0 L 111.0 119.0 L 112.0 119.0 L 113.0 119.0 L 114.0 119.0 L 114.66666666666667 118.66666666666667 L 115.0 118.0 L 115.0 117.0 L 114.66666666666667 116.33333333333333 L 114.0 116.0 L 113.0 116.0 L 112.0 116.0 L 111.0 116.0 L 110.0 116.0 L 109.0 116.0 L 108.0 116.0 L 107.0 116.0 L 106.0 116.0 L 105.0 116.0 L 104.0 116.0 L 103.0 116.0 L 102.0 116.0 L 101.0 116.0 L 100.0 116.0 L 99.0 116.0 L 98.0 116.0 L 97.0 116.0 L 96.0 116.0 L 95.0 116.0 L 94.0 116.0 L 93.0 116.0 L 92.0 116.0 L 91.0 116.0 L 90.0 116.0 L 89.0 116.0 L 88.0 116.0 L 87.0 116.0 L 86.0 116.0 L 85.0 116.0 L 84.0 116.0 L 83.0 116.0 L 82.0 116.0 L 81.0 116.0 L 80.0 116.0 L 79.0 116.0 L 78.0 116.0 L 77.0 116.0 L 76.0 116.0 L 75.0 116.0 L 74.0 116.0 L 73.0 116.0 L 72.0 116.0 L 71.0 116.0 L 70.0 116.0 L 69.0 116.0 L 68.0 116.0 L 67.0 116.0 L 66.0 116.0 L 65.0 116.0 L 64.0 116.0 L 63.0 116.0 L 62.0 116.0 L 61.0 116.0 L 60.0 116.0 L 59.0 116.0 L 58.0 116.0 L 57.0 116.0 L 56.0 116.0 L 55.0 116.0 L 54.0 116.0 L 53.0 116.0 L 52.0 116.0 L 51.0 116.0 L 50.0 116.0 L 49.0 116.0 L 48.0 116.0 L 47.0 116.0 L 46.0 116.0 L 45.0 116.0 L 44.0 116.0 L 43.0 116.0 L 42.0 116.0 L 41.0 116.0 L 40.0 116.0 L 39.0 116.0 L 38.0 116.0 L 37.0 116.0 L 36.0 116.0 L 35.0 116.0 L 34.0 116.0 L 33.0 116.0 L 32.0 116.0 L 31.0 116.0 L 30.0 116.0 L 29.0 116.0 L 28.0 116.0 L 27.0 116.0 L 26.0 116.0 L 25.0 116.0 L 24.0 116.0 L 23.0 116.0 L 22.0 116.0 L 21.0 116.0 L 20.0 116.0 L 19.0 116.0 L 18.0 116.0 L 17.0 116.0 L 16.0 116.0 L 15.0 116.0 L 14.0 116.0 L 13.333333333333334 116.33333333333333 L 13.0 117.0 L 13.0 118.0 L 13.333333333333334 118.66666666666667 L 14.0 119.0 L 15.0 119.0 L 16.0 119.0 L 17.0 119.0 L 18.0 119.0 L 19.0 119.0 L 20.0 119.0 L 21.0 119.0 L 22.0 119.0 L 23.0 119.0 L 24.0 119.0 L 25.0 119.0 L 26.0 119.0 L 27.0 119.0 L 28.0 119.0 L 29.0 119.0 L 30.0 119.0 L 31.0 119.0 L 32.0 119.0 L 33.0 119.0 L 34.0 119.0 L 35.0 119.0 L 36.0 119.0 L 37.0 119.0 L 38.0 119.0 L 39.0 119.0 L 40.0 119.0 L 41.0 119.0 L 42.0 119.0 L 43.0 119.0 L 44.0 119.0 L 45.0 119.0 L 46.0 119.0 L 47.0 119.0 L 48.0 119.0 L 49.0 119.0 L 50.0 119.0 L 51.0 119.0 L 52.0 119.0 L 53.0 119.0 L 54.0 119.0 L 55.0 119.0 L 56.0 119.0 L 57.0 119.0 L 58.0 119.0 L 59.0 119.0 L 60.0 119.0 L 61.0 119.0 L 62.0 119.0 L 63.0 119.0 L 64.0 119.0 L 65.0 119.0 L 66.0 119.0 L 67.0 119.0 L 68.0 119.0 L 69.0 119.0 L 70.0 119.0 L 71.0 119.0 L 72.0 119.0 L 73.0 119.0 L 74.0 119.0 L 75.0 119.0 L 76.0 119.0 L 77.0 119.0 L 78.0 119.0 L 79.0 119.0 L 80.0 119.0 L 81.0 119.0 L 82.0 119.0 L 83.0 119.0 L 84.0 119.0 L 85.0 119.0 L 86.0 119.0 L 87.0 119.0 L 88.0 119.0 L 89.0 119.0 L 90.0 119.0 L 91.0 119.0 L 92.0 119.0 L 93.0 119.0 L 94.0 119.0 L 94.5 119.0 Z" stroke="none" fill="rgb(86,17,239)" />
<path d="M 24.5 86.5 L 25.0 87.0 L 26.0 87.66666666666667 L 27.0 88.0 L 28.0 88.33333333333333 L 29.0 88.66666666666667 L 30.0 89.33333333333333 L 30.666666666666668 90.0 L 31.333333333333332 91.0 L 31.666666666666668 92.0 L 32.333333333333336 93.0 L 33.0 94.0 L 34.0 94.66666666666667 L 35.0 95.0 L 36.0 95.0 L 37.0 95.0 L 38.0 95.0 L 39.0 95.33333333333333 L 40.0 95.66666666666667 L 41.0 96.0 L 42.0 96.0 L 43.0 96.0 L 44.0 96.0 L 45.0 96.0 L 46.0 96.0 L 47.0 96.0 L 48.0 96.0 L 49.0 96.0 L 50.0 96.0 L 51.0 96.0 L 52.0 96.0 L 53.0 95.66666666666667 L 54.0 95.33333333333333 L 54.666666666666664 94.66666666666667 L 55.0 94.0 L 54.666666666666664 93.33333333333333 L 54.0 93.0 L 53.0 93.0 L 52.0 93.0 L 51.0 93.0 L 50.0 93.0 L 49.0 92.66666666666667 L 48.0 92.33333333333333 L 47.0 91.66666666666667 L 46.0 91.33333333333333 L 45.0 90.66666666666667 L 44.0 90.33333333333333 L 43.0 89.66666666666667 L 42.0 89.33333333333333 L 41.0 88.66666666666667 L 40.0 88.33333333333333 L 39.0 87.66666666666667 L 38.0 87.0 L 37.0 86.33333333333333 L 36.0 85.66666666666667 L 35.0 85.0 L 34.0 84.0 L 33.0 83.33333333333333 L 32.0 82.66666666666667 L 31.0 82.0 L 30.0 81.0 L 29.0 80.0 L 28.333333333333332 79.0 L 27.666666666666668 78.0 L 27.0 77.0 L 26.0 76.0 L 25.0 75.0 L 24.333333333333332 74.0 L 23.666666666666668 73.0 L 23.333333333333332 72.0 L 22.666666666666668 71.0 L 22.0 70.0 L 21.333333333333332 69.0 L 20.666666666666668 68.0 L 20.333333333333332 67.0 L 20.0 66.0 L 19.666666666666668 65.0 L 19.333333333333332 64.0 L 18.666666666666668 63.0 L 18.333333333333332 62.0 L 18.0 61.0 L 17.666666666666668 60.0 L 17.333333333333332 59.0 L 17.0 58.0 L 17.0 57.0 L 17.0 56.0 L 16.666666666666668 55.0 L 16.333333333333332 54.0 L 15.666666666666666 53.333333333333336 L 15.0 53.0 L 14.0 53.333333333333336 L 13.333333333333334 54.0 L 13.0 55.0 L 13.0 56.0 L 13.0 57.0 L 13.333333333333334 58.0 L 13.666666666666666 59.0 L 14.333333333333334 60.0 L 15.0 61.0 L 15.666666666666666 62.0 L 15.666666666666666 63.0 L 15.333333333333334 64.0 L 15.0 65.0 L 15.0 66.0 L 15.333333333333334 67.0 L 15.666666666666666 68.0 L 16.333333333333332 69.0 L 17.0 70.0 L 17.666666666666668 71.0 L 18.0 72.0 L 18.0 73.0 L 18.0 74.0 L 18.333333333333332 75.0 L 18.666666666666668 76.0 L 19.333333333333332 77.0 L 20.0 78.0 L 21.0 79.0 L 22.0 80.0 L 22.666666666666668 81.0 L 23.333333333333332 82.0 L 23.666666666666668 83.0 L 24.0 84.0 L 24.0 85.0 L 24.0 85.5 Z" stroke="none" fill="rgb(69,65,64)" />
<path d="M 42.5 90.0 L 43.0 90.33333333333333 L 44.0 90.66666666666667 L 45.0 91.33333333333333 L 46.0 91.66666666666667 L 47.0 92.33333333333333 L 48.0 92.66666666666667 L 49.0 93.0 L 50.0 93.0 L 51.0 93.0 L 51.666666666666664 92.66666666666667 L 51.666666666666664 92.0 L 51.0 91.33333333333333 L 50.0 90.66666666666667 L 49.0 90.0 L 48.0 89.0 L 47.0 88.0 L 46.0 87.33333333333333 L 45.0 87.0 L 44.0 87.0 L 43.0 86.66666666666667 L 42.0 86.33333333333333 L 41.0 85.66666666666667 L 40.0 85.33333333333333 L 39.0 84.66666666666667 L 38.0 84.0 L 37.0 83.0 L 36.0 82.33333333333333 L 35.0 81.66666666666667 L 34.0 81.0 L 33.0 80.0 L 32.0 79.0 L 31.0 78.0 L 30.0 77.0 L 29.333333333333332 76.0 L 28.666666666666668 75.0 L 28.0 74.0 L 27.0 73.0 L 26.333333333333332 72.0 L 25.666666666666668 71.0 L 25.333333333333332 70.0 L 24.666666666666668 69.0 L 24.0 68.0 L 23.333333333333332 67.0 L 23.0 66.0 L 22.666666666666668 65.0 L 22.333333333333332 64.0 L 21.666666666666668 63.0 L 21.333333333333332 62.0 L 21.0 61.0 L 20.666666666666668 60.0 L 20.333333333333332 59.0 L 20.0 58.0 L 20.0 57.0 L 19.666666666666668 56.0 L 19.333333333333332 55.0 L 19.0 54.0 L 19.0 53.0 L 19.0 52.0 L 19.0 51.0 L 19.0 50.0 L 19.0 49.0 L 19.0 48.0 L 19.0 47.0 L 19.0 46.0 L 19.0 45.0 L 19.0 44.0 L 19.0 43.0 L 19.0 42.0 L 19.0 41.0 L 19.0 40.0 L 19.333333333333332 39.0 L 19.666666666666668 38.0 L 20.0 37.0 L 20.0 36.0 L 20.333333333333332 35.0 L 20.666666666666668 34.0 L 21.0 33.0 L 20.666666666666668 32.333333333333336 L 20.0 32.0 L 19.0 32.0 L 18.0 32.333333333333336 L 17.333333333333332 33.0 L 17.0 34.0 L 17.0 35.0 L 17.0 36.0 L 16.666666666666668 37.0 L 16.333333333333332 38.0 L 16.0 39.0 L 15.666666666666666 40.0 L 15.333333333333334 41.0 L 15.0 42.0 L 15.0 43.0 L 15.333333333333334 44.0 L 15.666666666666666 45.0 L 16.0 46.0 L 16.0 47.0 L 16.0 48.0 L 15.666666666666666 49.0 L 15.0 50.0 L 14.333333333333334 51.0 L 14.0 52.0 L 14.333333333333334 52.666666666666664 L 15.0 53.333333333333336 L 15.666666666666666 54.0 L 16.333333333333332 55.0 L 16.666666666666668 56.0 L 17.0 57.0 L 17.0 58.0 L 17.0 59.0 L 17.333333333333332 60.0 L 17.666666666666668 61.0 L 18.0 62.0 L 18.333333333333332 63.0 L 18.666666666666668 64.0 L 19.333333333333332 65.0 L 19.666666666666668 66.0 L 20.0 67.0 L 20.333333333333332 68.0 L 20.666666666666668 69.0 L 21.333333333333332 70.0 L 22.0 71.0 L 22.666666666666668 72.0 L 23.333333333333332 73.0 L 23.666666666666668 74.0 L 24.333333333333332 75.0 L 25.0 76.0 L 26.0 77.0 L 27.0 78.0 L 27.666666666666668 79.0 L 28.333333333333332 80.0 L 29.0 81.0 L 30.0 82.0 L 31.0 82.66666666666667 L 32.0 83.33333333333333 L 33.0 84.0 L 34.0 85.0 L 35.0 85.66666666666667 L 36.0 86.33333333333333 L 37.0 87.0 L 38.0 87.66666666666667 L 39.0 88.33333333333333 L 40.0 88.66666666666667 L 41.0 89.33333333333333 L 41.5 89.5 Z" stroke="none" fill="rgb(64,60,60)" />
<path d="M 110.0 61.5 L 110.0 61.0 L 110.33333333333333 60.0 L 110.66666666666667 59.0 L 111.0 58.0 L 111.0 57.0 L 111.0 56.0 L 111.33333333333333 55.0 L 111.66666666666667 54.0 L 112.0 53.0 L 112.0 52.0 L 112.0 51.0 L 112.0 50.0 L 112.0 49.0 L 112.0 48.0 L 112.0 47.0 L 112.0 46.0 L 112.0 45.0 L 112.33333333333333 44.0 L 112.66666666666667 43.0 L 113.0 42.0 L 112.66666666666667 41.0 L 112.33333333333333 40.0 L 112.0 39.0 L 112.0 38.0 L 112.0 37.0 L 112.0 36.0 L 112.0 35.0 L 111.66666666666667 34.0 L 111.33333333333333 33.0 L 110.66666666666667 32.0 L 110.0 31.333333333333332 L 109.0 30.666666666666668 L 108.0 30.333333333333332 L 107.33333333333333 30.333333333333332 L 107.0 31.0 L 107.0 32.0 L 107.0 33.0 L 107.33333333333333 34.0 L 107.66666666666667 35.0 L 108.0 36.0 L 108.0 37.0 L 108.0 38.0 L 108.33333333333333 39.0 L 108.66666666666667 40.0 L 109.0 41.0 L 109.0 42.0 L 109.0 43.0 L 109.0 44.0 L 109.0 45.0 L 109.0 46.0 L 109.0 47.0 L 109.0 48.0 L 109.0 49.0 L 109.0 50.0 L 109.0 51.0 L 109.0 52.0 L 109.0 53.0 L 108.66666666666667 54.0 L 108.33333333333333 55.0 L 108.0 56.0 L 108.0 57.0 L 108.0 58.0 L 107.66666666666667 59.0 L 107.33333333333333 60.0 L 107.0 61.0 L 106.66666666666667 62.0 L 106.33333333333333 63.0 L 105.66666666666667 64.0 L 105.33333333333333 65.0 L 104.66666666666667 66.0 L 104.33333333333333 67.0 L 103.66666666666667 68.0 L 103.33333333333333 69.0 L 102.66666666666667 70.0 L 102.0 71.0 L 101.33333333333333 72.0 L 100.66666666666667 73.0 L 100.0 74.0 L 99.0 75.0 L 98.0 76.0 L 97.33333333333333 77.0 L 96.66666666666667 78.0 L 96.0 79.0 L 95.0 79.66666666666667 L 94.0 80.33333333333333 L 93.0 81.0 L 92.0 82.0 L 91.0 83.0 L 90.0 83.66666666666667 L 89.0 84.33333333333333 L 88.0 85.0 L 87.0 85.66666666666667 L 86.0 86.33333333333333 L 85.0 86.66666666666667 L 84.0 87.0 L 83.0 87.33333333333333 L 82.0 88.0 L 81.0 89.0 L 80.0 89.66666666666667 L 79.0 90.33333333333333 L 78.33333333333333 91.0 L 78.33333333333333 91.66666666666667 L 79.0 92.0 L 80.0 92.0 L 81.0 92.0 L 82.0 91.66666666666667 L 83.0 91.33333333333333 L 84.0 90.66666666666667 L 85.0 90.33333333333333 L 86.0 89.66666666666667 L 87.0 89.33333333333333 L 88.0 88.66666666666667 L 89.0 88.33333333333333 L 90.0 87.66666666666667 L 91.0 87.0 L 92.0 86.33333333333333 L 93.0 85.66666666666667 L 94.0 85.0 L 95.0 84.0 L 96.0 83.0 L 97.0 82.0 L 98.0 81.0 L 99.0 80.0 L 100.0 79.0 L 101.0 78.0 L 102.0 77.0 L 102.66666666666667 76.0 L 103.33333333333333 75.0 L 104.0 74.0 L 104.66666666666667 73.0 L 105.33333333333333 72.0 L 105.66666666666667 71.0 L 106.33333333333333 70.0 L 106.66666666666667 69.0 L 107.33333333333333 68.0 L 107.66666666666667 67.0 L 108.33333333333333 66.0 L 108.66666666666667 65.0 L 109.0 64.0 L 109.33333333333333 63.0 L 109.5 62.5 Z" stroke="none" fill="rgb(64,60,60)" />
<path d="M 72.0 104.5 L 72.33333333333333 104.0 L 72.66666666666667 103.0 L 73.0 102.0 L 73.0 101.0 L 73.0 100.0 L 73.0 99.0 L 73.0 98.0 L 73.0 97.0 L 73.0 96.0 L 72.66666666666667 95.0 L 72.0 94.33333333333333 L 71.0 94.0 L 70.0 94.33333333333333 L 69.0 94.66666666666667 L 68.0 95.0 L 67.0 95.0 L 66.0 95.0 L 65.0 95.0 L 64.0 95.0 L 63.0 95.0 L 62.0 95.0 L 61.0 95.0 L 60.0 94.66666666666667 L 59.0 94.33333333333333 L 58.0 94.0 L 57.0 94.0 L 56.0 94.0 L 55.333333333333336 94.33333333333333 L 55.0 95.0 L 55.0 96.0 L 55.0 97.0 L 55.0 98.0 L 55.0 99.0 L 55.0 100.0 L 55.0 101.0 L 55.0 102.0 L 55.333333333333336 103.0 L 55.666666666666664 104.0 L 56.333333333333336 105.0 L 57.0 106.0 L 58.0 107.0 L 59.0 107.66666666666667 L 60.0 108.0 L 61.0 108.0 L 62.0 108.0 L 63.0 108.0 L 64.0 108.0 L 65.0 108.0 L 66.0 108.0 L 67.0 108.0 L 68.0 108.0 L 69.0 108.0 L 70.0 107.66666666666667 L 70.66666666666667 107.0 L 71.33333333333333 106.0 L 71.5 105.5 Z" stroke="none" fill="rgb(237,195,146)" />
<path d="M 43.5 107.0 L 44.0 107.0 L 45.0 107.0 L 46.0 107.0 L 47.0 107.0 L 48.0 107.0 L 49.0 107.0 L 50.0 107.0 L 51.0 107.0 L 52.0 107.0 L 53.0 107.0 L 54.0 107.0 L 55.0 107.0 L 56.0 107.0 L 57.0 107.0 L 57.666666666666664 106.66666666666667 L 57.666666666666664 106.0 L 57.0 105.0 L 56.333333333333336 104.0 L 55.666666666666664 103.0 L 55.0 102.33333333333333 L 54.0 102.0 L 53.0 102.0 L 52.0 102.0 L 51.0 102.0 L 50.0 102.0 L 49.0 102.0 L 48.0 102.0 L 47.0 102.0 L 46.0 102.0 L 45.0 102.0 L 44.0 102.0 L 43.0 102.0 L 42.0 102.0 L 41.0 102.0 L 40.0 102.0 L 39.0 102.0 L 38.0 102.0 L 37.0 102.0 L 36.0 102.0 L 35.0 102.0 L 34.0 102.0 L 33.0 102.0 L 32.0 102.0 L 31.0 102.0 L 30.0 102.0 L 29.0 101.66666666666667 L 28.0 101.33333333333333 L 27.0 101.0 L 26.0 101.33333333333333 L 25.0 101.66666666666667 L 24.0 102.33333333333333 L 23.0 102.66666666666667 L 22.0 103.33333333333333 L 21.0 104.0 L 20.333333333333332 105.0 L 20.0 106.0 L 20.333333333333332 106.66666666666667 L 21.0 107.0 L 22.0 107.0 L 23.0 107.0 L 24.0 107.0 L 25.0 107.0 L 26.0 107.0 L 27.0 107.0 L 28.0 107.0 L 29.0 107.0 L 30.0 107.0 L 31.0 107.0 L 32.0 107.0 L 33.0 107.0 L 34.0 107.0 L 35.0 107.0 L 36.0 107.0 L 37.0 107.0 L 38.0 107.0 L 39.0 107.0 L 40.0 107.0 L 41.0 107.0 L 42.0 107.0 L 42.5 107.0 Z" stroke="none" fill="rgb(95,25,248)" />
<path d="M 95.5 107.0 L 96.0 107.0 L 97.0 107.0 L 98.0 107.0 L 99.0 107.0 L 100.0 107.0 L 101.0 107.0 L 102.0 107.0 L 103.0 107.0 L 104.0 107.0 L 105.0 107.0 L 106.0 107.0 L 107.0 107.0 L 108.0 107.0 L 108.66666666666667 106.66666666666667 L 108.66666666666667 106.0 L 108.0 105.33333333333333 L 107.0 104.66666666666667 L 106.0 104.0 L 105.0 103.33333333333333 L 104.0 102.66666666666667 L 103.0 102.0 L 102.0 101.33333333333333 L 101.0 101.0 L 100.0 101.33333333333333 L 99.0 101.66666666666667 L 98.0 102.0 L 97.0 102.0 L 96.0 102.0 L 95.0 102.0 L 94.0 102.0 L 93.0 102.0 L 92.0 102.0 L 91.0 102.0 L 90.0 102.0 L 89.0 102.0 L 88.0 102.0 L 87.0 102.0 L 86.0 102.0 L 85.0 102.0 L 84.0 102.0 L 83.0 102.0 L 82.0 102.0 L 81.0 102.0 L 80.0 102.0 L 79.0 102.0 L 78.0 102.0 L 77.0 102.0 L 76.0 102.0 L 75.0 102.0 L 74.0 102.0 L 73.0 102.33333333333333 L 72.33333333333333 103.0 L 71.66666666666667 104.0 L 71.33333333333333 105.0 L 71.0 106.0 L 71.33333333333333 106.66666666666667 L 72.0 107.0 L 73.0 107.0 L 74.0 107.0 L 75.0 107.0 L 76.0 107.0 L 77.0 107.0 L 78.0 107.0 L 79.0 107.0 L 80.0 107.0 L 81.0 107.0 L 82.0 107.0 L 83.0 107.0 L 84.0 107.0 L 85.0 107.0 L 86.0 107.0 L 87.0 107.0 L 88.0 107.0 L 89.0 107.0 L 90.0 107.0 L 91.0 107.0 L 92.0 107.0 L 93.0 107.0 L 94.0 107.0 L 94.5 107.0 Z" stroke="none" fill="rgb(95,25,248)" />
<path d="M 75.5 102.0 L 76.0 102.0 L 77.0 102.0 L 78.0 102.0 L 79.0 102.0 L 80.0 102.0 L 81.0 102.0 L 82.0 102.0 L 83.0 102.0 L 84.0 102.0 L 85.0 102.0 L 86.0 102.0 L 87.0 102.0 L 88.0 102.0 L 89.0 102.0 L 90.0 102.0 L 91.0 102.0 L 92.0 102.0 L 93.0 102.0 L 94.0 102.0 L 95.0 102.0 L 96.0 102.0 L 97.0 102.0 L 98.0 102.0 L 99.0 102.0 L 99.66666666666667 101.66666666666667 L 100.0 101.0 L 99.66666666666667 100.33333333333333 L 99.0 100.0 L 98.0 99.66666666666667 L 97.0 99.33333333333333 L 96.0 98.66666666666667 L 95.0 98.33333333333333 L 94.0 98.0 L 93.0 98.0 L 92.0 97.66666666666667 L 91.0 97.33333333333333 L 90.0 97.0 L 89.0 96.66666666666667 L 88.0 96.33333333333333 L 87.0 96.0 L 86.0 96.0 L 85.0 96.0 L 84.0 96.0 L 83.0 96.0 L 82.0 96.0 L 81.0 95.66666666666667 L 80.0 95.33333333333333 L 79.0 95.0 L 78.0 95.0 L 77.0 95.0 L 76.0 95.0 L 75.0 95.0 L 74.0 95.0 L 73.33333333333333 95.33333333333333 L 73.0 96.0 L 73.0 97.0 L 73.0 98.0 L 73.0 99.0 L 73.0 100.0 L 73.0 101.0 L 73.33333333333333 101.66666666666667 L 74.0 102.0 L 74.5 102.0 Z" stroke="none" fill="rgb(98,28,252)" />
<path d="M 40.5 102.0 L 41.0 102.0 L 42.0 102.0 L 43.0 102.0 L 44.0 102.0 L 45.0 102.0 L 46.0 102.0 L 47.0 102.0 L 48.0 102.0 L 49.0 102.0 L 50.0 102.0 L 51.0 102.0 L 52.0 102.0 L 53.0 102.0 L 54.0 102.0 L 54.666666666666664 101.66666666666667 L 55.0 101.0 L 55.0 100.0 L 55.0 99.0 L 55.0 98.0 L 55.0 97.0 L 55.0 96.0 L 54.666666666666664 95.33333333333333 L 54.0 95.0 L 53.0 95.33333333333333 L 52.0 95.66666666666667 L 51.0 96.0 L 50.0 96.0 L 49.0 96.0 L 48.0 96.0 L 47.0 96.0 L 46.0 96.0 L 45.0 96.0 L 44.0 96.0 L 43.0 96.0 L 42.0 96.0 L 41.0 96.0 L 40.0 96.33333333333333 L 39.0 96.66666666666667 L 38.0 97.0 L 37.0 97.0 L 36.0 97.33333333333333 L 35.0 97.66666666666667 L 34.0 98.0 L 33.0 98.33333333333333 L 32.0 98.66666666666667 L 31.0 99.0 L 30.0 99.33333333333333 L 29.0 99.66666666666667 L 28.333333333333332 100.33333333333333 L 28.0 101.0 L 28.333333333333332 101.66666666666667 L 29.0 102.0 L 30.0 102.0 L 31.0 102.0 L 32.0 102.0 L 33.0 102.0 L 34.0 102.0 L 35.0 102.0 L 36.0 102.0 L 37.0 102.0 L 38.0 102.0 L 39.0 102.0 L 39.5 102.0 Z" stroke="none" fill="rgb(98,28,252)" />
<path d="M 59.5 83.0 L 60.0 83.0 L 61.0 83.0 L 62.0 83.0 L 63.0 83.0 L 64.0 83.0 L 65.0 83.0 L 66.0 83.0 L 67.0 83.0 L 68.0 83.0 L 69.0 83.0 L 70.0 83.0 L 71.0 82.66666666666667 L 72.0 82.0 L 73.0 81.0 L 74.0 80.0 L 74.66666666666667 79.0 L 75.0 78.0 L 74.66666666666667 77.0 L 74.0 76.33333333333333 L 73.0 76.0 L 72.0 76.33333333333333 L 71.0 76.66666666666667 L 70.0 77.0 L 69.0 77.0 L 68.0 77.0 L 67.0 77.0 L 66.0 77.0 L 65.0 77.0 L 64.0 77.0 L 63.0 77.0 L 62.0 77.0 L 61.0 77.0 L 60.0 77.0 L 59.0 76.66666666666667 L 58.0 76.33333333333333 L 57.0 76.0 L 56.0 76.0 L 55.0 76.0 L 54.0 76.33333333333333 L 53.333333333333336 77.0 L 53.333333333333336 78.0 L 54.0 79.0 L 55.0 80.0 L 56.0 81.0 L 57.0 81.66666666666667 L 58.0 82.33333333333333 L 58.5 82.5 Z" stroke="none" fill="rgb(69,65,64)" />
<path d="M 81.5 64.0 L 82.0 63.666666666666664 L 83.0 63.0 L 84.0 62.0 L 84.66666666666667 61.0 L 85.0 60.0 L 85.0 59.0 L 85.0 58.0 L 84.66666666666667 57.0 L 84.0 56.0 L 83.0 55.0 L 82.0 54.333333333333336 L 81.0 54.0 L 80.0 54.0 L 79.0 54.0 L 78.0 54.333333333333336 L 77.0 55.0 L 76.33333333333333 56.0 L 76.0 57.0 L 76.0 58.0 L 76.0 59.0 L 76.0 60.0 L 76.0 61.0 L 76.33333333333333 62.0 L 77.0 63.0 L 78.0 63.666666666666664 L 79.0 64.0 L 80.0 64.0 L 80.5 64.0 Z" stroke="none" fill="rgb(49,45,45)" />
<path d="M 52.0 61.5 L 52.0 61.0 L 52.0 60.0 L 52.0 59.0 L 52.0 58.0 L 52.0 57.0 L 51.666666666666664 56.0 L 51.0 55.0 L 50.0 54.333333333333336 L 49.0 54.0 L 48.0 54.0 L 47.0 54.0 L 46.0 54.333333333333336 L 45.0 55.0 L 44.333333333333336 56.0 L 43.666666666666664 57.0 L 43.333333333333336 58.0 L 43.0 59.0 L 43.0 60.0 L 43.333333333333336 61.0 L 44.0 62.0 L 45.0 63.0 L 46.0 63.666666666666664 L 47.0 64.0 L 48.0 64.0 L 49.0 64.0 L 50.0 63.666666666666664 L 51.0 63.0 L 51.5 62.5 Z" stroke="none" fill="rgb(49,45,45)" />
<path d="M 82.5 51.0 L 83.0 51.0 L 84.0 51.0 L 85.0 51.0 L 86.0 51.0 L 86.66666666666667 50.666666666666664 L 86.66666666666667 50.0 L 86.0 49.0 L 85.0 48.0 L 84.0 47.333333333333336 L 83.0 47.0 L 82.0 47.0 L 81.0 47.0 L 80.0 47.0 L 79.0 47.0 L 78.0 47.0 L 77.0 47.333333333333336 L 76.0 47.666666666666664 L 75.0 48.333333333333336 L 74.0 49.0 L 73.33333333333333 50.0 L 73.33333333333333 51.0 L 74.0 51.666666666666664 L 75.0 52.0 L 76.0 52.0 L 77.0 51.666666666666664 L 78.0 51.333333333333336 L 79.0 51.0 L 80.0 51.0 L 81.0 51.0 L 81.5 51.0 Z" stroke="none" fill="rgb(69,65,64)" />
<path d="M 49.5 51.0 L 50.0 51.0 L 51.0 51.333333333333336 L 52.0 51.666666666666664 L 53.0 52.0 L 54.0 51.666666666666664 L 54.666666666666664 51.0 L 54.666666666666664 50.0 L 54.0 49.0 L 53.0 48.0 L 52.0 47.333333333333336 L 51.0 47.0 L 50.0 47.0 L 49.0 47.0 L 48.0 47.0 L 47.0 47.0 L 46.0 47.0 L 45.0 47.333333333333336 L 44.0 47.666666666666664 L 43.0 48.333333333333336 L 42.333333333333336 49.0 L 42.0 50.0 L 42.333333333333336 50.666666666666664 L 43.0 51.0 L 44.0 51.0 L 45.0 51.0 L 46.0 51.0 L 47.0 51.0 L 48.0 51.0 L 48.5 51.0 Z" stroke="none" fill="rgb(69,65,64)" />
<path d="M 61.5 72.0 L 62.0 72.0 L 63.0 72.0 L 64.0 72.0 L 65.0 72.0 L 66.0 72.0 L 67.0 71.66666666666667 L 67.66666666666667 71.0 L 68.0 70.0 L 68.0 69.0 L 67.66666666666667 68.33333333333333 L 67.0 68.0 L 66.0 68.0 L 65.0 68.0 L 64.0 68.0 L 63.0 68.0 L 62.0 68.0 L 61.0 68.0 L 60.333333333333336 68.33333333333333 L 60.0 69.0 L 60.0 70.0 L 60.333333333333336 71.0 L 60.5 71.5 Z" stroke="none" fill="rgb(218,167,137)" />
<path d="M 107.0 29.5 L 107.0 29.0 L 107.0 28.0 L 107.0 27.0 L 107.0 26.0 L 106.66666666666667 25.0 L 106.33333333333333 24.0 L 105.66666666666667 23.333333333333332 L 105.0 23.0 L 104.0 23.0 L 103.33333333333333 23.333333333333332 L 103.0 24.0 L 103.33333333333333 25.0 L 103.66666666666667 26.0 L 104.33333333333333 27.0 L 104.66666666666667 28.0 L 105.33333333333333 29.0 L 106.0 29.666666666666668 L 106.5 30.0 Z" stroke="none" fill="rgb(64,60,60)" />
<path d="M 99.5 19.5 L 100.0 20.0 L 101.0 20.666666666666668 L 101.66666666666667 20.666666666666668 L 102.0 20.0 L 102.0 19.0 L 102.0 18.0 L 101.66666666666667 17.0 L 101.0 16.0 L 100.0 15.333333333333334 L 99.0 15.0 L 98.33333333333333 15.333333333333334 L 98.0 16.0 L 98.0 17.0 L 98.33333333333333 18.0 L 98.5 18.5 Z" stroke="none" fill="rgb(64,60,60)" />
<path d="M 15.5 50.0 L 15.666666666666666 49.666666666666664 L 16.0 49.0 L 16.0 48.0 L 16.0 47.0 L 16.0 46.0 L 16.0 45.0 L 15.666666666666666 44.333333333333336 L 15.0 44.0 L 14.0 44.333333333333336 L 13.333333333333334 45.0 L 13.0 46.0 L 13.333333333333334 47.0 L 13.666666666666666 48.0 L 14.0 49.0 L 14.333333333333334 49.666666666666664 L 14.5 50.0 Z" stroke="none" fill="rgb(69,65,64)" />
<path d="M 30.0 16.5 L 30.0 16.0 L 29.666666666666668 15.333333333333334 L 29.0 15.333333333333334 L 28.0 15.666666666666666 L 27.0 16.333333333333332 L 26.333333333333332 17.0 L 26.0 18.0 L 26.0 19.0 L 26.333333333333332 19.666666666666668 L 27.0 20.0 L 28.0 19.666666666666668 L 28.666666666666668 19.0 L 29.333333333333332 18.0 L 29.5 17.5 Z" stroke="none" fill="rgb(64,60,60)" />
<path d="M 21.5 30.0 L 21.666666666666668 29.666666666666668 L 22.333333333333332 29.0 L 22.666666666666668 28.0 L 23.333333333333332 27.0 L 23.666666666666668 26.0 L 24.0 25.0 L 23.666666666666668 24.333333333333332 L 23.0 24.0 L 22.0 24.333333333333332 L 21.333333333333332 25.0 L 21.0 26.0 L 21.0 27.0 L 21.0 28.0 L 21.0 29.0 L 21.0 29.5 Z" stroke="none" fill="rgb(64,60,60)" />
<path d="M 91.5 11.5 L 92.0 11.666666666666666 L 93.0 12.0 L 93.66666666666667 11.666666666666666 L 94.0 11.0 L 93.66666666666667 10.0 L 93.0 9.0 L 92.0 8.333333333333334 L 91.0 8.333333333333334 L 90.33333333333333 9.0 L 90.33333333333333 10.0 L 90.5 10.5 Z" stroke="none" fill="rgb(64,60,60)" />
<path d="M 37.0 10.5 L 37.0 10.0 L 36.666666666666664 9.333333333333334 L 36.0 9.0 L 35.0 9.333333333333334 L 34.0 10.0 L 33.333333333333336 11.0 L 33.0 12.0 L 33.333333333333336 12.666666666666666 L 34.0 12.666666666666666 L 35.0 12.333333333333334 L 36.0 11.666666666666666 L 36.5 11.5 Z" stroke="none" fill="rgb(64,60,60)" />
<path d="M 37.5 10.0 L 38.0 9.666666666666666 L 38.666666666666664 9.0 L 38.666666666666664 8.333333333333334 L 38.0 8.0 L 37.0 8.0 L 36.333333333333336 8.333333333333334 L 36.333333333333336 9.0 L 36.5 9.5 Z" stroke="none" fill="rgb(0,0,0)" />
<path d="M 23.5 24.0 L 24.0 24.0 L 24.666666666666668 23.666666666666668 L 25.0 23.0 L 24.666666666666668 22.333333333333332 L 24.0 22.333333333333332 L 23.0 22.666666666666668 L 22.333333333333332 23.333333333333332 L 22.333333333333332 23.666666666666668 L 22.5 24.0 Z" stroke="none" fill="rgb(0,0,0)" />
<path d="M 21.0 31.5 L 21.0 31.0 L 20.666666666666668 30.333333333333332 L 20.0 30.333333333333332 L 19.0 30.666666666666668 L 18.333333333333332 31.333333333333332 L 18.333333333333332 31.666666666666668 L 19.0 32.0 L 20.0 32.0 L 20.5 32.0 Z" stroke="none" fill="rgb(0,0,0)" />
<path d="M 17.0 37.5 L 17.0 37.0 L 17.0 36.0 L 17.0 35.0 L 16.666666666666668 34.333333333333336 L 16.333333333333332 34.333333333333336 L 16.0 35.0 L 16.0 36.0 L 16.0 37.0 L 16.333333333333332 37.666666666666664 L 16.5 38.0 Z" stroke="none" fill="rgb(0,0,0)" />
<path d="M 43.5 6.5 L 43.666666666666664 6.0 L 43.666666666666664 5.333333333333333 L 43.0 5.0 L 42.333333333333336 5.333333333333333 L 42.0 6.0 L 42.333333333333336 6.666666666666667 L 42.5 7.0 Z" stroke="none" fill="rgb(0,0,0)" />
<path d="M 30.5 16.0 L 31.0 15.666666666666666 L 31.666666666666668 15.0 L 31.666666666666668 14.333333333333334 L 31.0 14.0 L 30.333333333333332 14.333333333333334 L 30.0 15.0 L 30.0 15.5 Z" stroke="none" fill="rgb(0,0,0)" />
<path d="M 97.5 16.0 L 97.66666666666667 15.666666666666666 L 98.0 15.0 L 97.66666666666667 14.333333333333334 L 97.0 14.0 L 96.33333333333333 14.333333333333334 L 96.33333333333333 15.0 L 96.5 15.5 Z" stroke="none" fill="rgb(0,0,0)" />
<path d="M 15.0 43.5 L 15.0 43.0 L 14.666666666666666 42.333333333333336 L 14.333333333333334 42.333333333333336 L 14.0 43.0 L 14.333333333333334 43.666666666666664 L 14.5 44.0 Z" stroke="none" fill="rgb(0,0,0)" />
<path d="M 114.5 47.0 L 114.66666666666667 46.666666666666664 L 115.0 46.0 L 114.66666666666667 45.333333333333336 L 114.33333333333333 45.333333333333336 L 114.0 46.0 L 114.0 46.5 Z" stroke="none" fill="rgb(0,0,0)" />
<path d="M 16.0 63.5 L 16.0 63.0 L 15.666666666666666 62.333333333333336 L 15.333333333333334 62.333333333333336 L 15.0 63.0 L 15.333333333333334 63.666666666666664 L 15.5 64.0 Z" stroke="none" fill="rgb(0,0,0)" />
<path d="M 62.5 2.0 L 62.666666666666664 1.6666666666666667 L 62.666666666666664 1.3333333333333333 L 62.333333333333336 1.3333333333333333 L 62.0 1.5 Z" stroke="none" fill="rgb(0,0,0)" />
<path d="M 65.5 2.0 L 65.66666666666667 1.6666666666666667 L 65.66666666666667 1.3333333333333333 L 65.33333333333333 1.3333333333333333 L 65.0 1.5 Z" stroke="none" fill="rgb(0,0,0)" />
<path d="M 57.0 2.5 L 56.666666666666664 2.3333333333333335 L 56.333333333333336 2.3333333333333335 L 56.333333333333336 2.6666666666666665 L 56.5 3.0 Z" stroke="none" fill="rgb(0,0,0)" />
<path d="M 68.0 2.5 L 67.66666666666667 2.3333333333333335 L 67.33333333333333 2.3333333333333335 L 67.33333333333333 2.6666666666666665 L 67.5 3.0 Z" stroke="none" fill="rgb(0,0,0)" />
<path d="M 76.0 2.5 L 75.66666666666667 2.3333333333333335 L 75.33333333333333 2.3333333333333335 L 75.33333333333333 2.6666666666666665 L 75.5 3.0 Z" stroke="none" fill="rgb(0,0,0)" />
<path d="M 44.5 5.0 L 44.666666666666664 4.666666666666667 L 44.666666666666664 4.333333333333333 L 44.333333333333336 4.333333333333333 L 44.0 4.5 Z" stroke="none" fill="rgb(0,0,0)" />
<path d="M 83.5 5.0 L 83.66666666666667 4.666666666666667 L 83.66666666666667 4.333333333333333 L 83.33333333333333 4.333333333333333 L 83.0 4.5 Z" stroke="none" fill="rgb(0,0,0)" />
<path d="M 85.5 6.0 L 85.66666666666667 5.666666666666667 L 85.66666666666667 5.333333333333333 L 85.33333333333333 5.333333333333333 L 85.0 5.5 Z" stroke="none" fill="rgb(0,0,0)" />
<path d="M 90.5 9.0 L 90.66666666666667 8.666666666666666 L 90.66666666666667 8.333333333333334 L 90.33333333333333 8.333333333333334 L 90.0 8.5 Z" stroke="none" fill="rgb(0,0,0)" />
<path d="M 34.5 10.0 L 34.666666666666664 9.666666666666666 L 34.666666666666664 9.333333333333334 L 34.333333333333336 9.333333333333334 L 34.0 9.5 Z" stroke="none" fill="rgb(0,0,0)" />
<path d="M 94.0 9.5 L 93.66666666666667 9.333333333333334 L 93.33333333333333 9.333333333333334 L 93.33333333333333 9.666666666666666 L 93.5 10.0 Z" stroke="none" fill="rgb(0,0,0)" />
<path d="M 94.5 12.0 L 94.66666666666667 11.666666666666666 L 94.66666666666667 11.333333333333334 L 94.33333333333333 11.333333333333334 L 94.0 11.5 Z" stroke="none" fill="rgb(0,0,0)" />
<path d="M 28.5 16.0 L 28.666666666666668 15.666666666666666 L 28.666666666666668 15.333333333333334 L 28.333333333333332 15.333333333333334 L 28.0 15.5 Z" stroke="none" fill="rgb(0,0,0)" />
<path d="M 26.5 21.0 L 26.666666666666668 20.666666666666668 L 26.666666666666668 20.333333333333332 L 26.333333333333332 20.333333333333332 L 26.0 20.5 Z" stroke="none" fill="rgb(0,0,0)" />
<path d="M 103.5 23.0 L 103.66666666666667 22.666666666666668 L 103.66666666666667 22.333333333333332 L 103.33333333333333 22.333333333333332 L 103.0 22.5 Z" stroke="none" fill="rgb(0,0,0)" />
<path d="M 17.5 33.0 L 17.666666666666668 32.666666666666664 L 17.666666666666668 32.333333333333336 L 17.333333333333332 32.333333333333336 L 17.0 32.5 Z" stroke="none" fill="rgb(0,0,0)" />
<path d="M 114.0 42.5 L 113.66666666666667 42.333333333333336 L 113.33333333333333 42.333333333333336 L 113.33333333333333 42.666666666666664 L 113.5 43.0 Z" stroke="none" fill="rgb(0,0,0)" />
<path d="M 13.5 54.0 L 13.666666666666666 53.666666666666664 L 13.666666666666666 53.333333333333336 L 13.333333333333334 53.333333333333336 L 13.0 53.5 Z" stroke="none" fill="rgb(0,0,0)" />
<path d="M 23.5 83.0 L 23.666666666666668 82.66666666666667 L 23.666666666666668 82.33333333333333 L 23.333333333333332 82.33333333333333 L 23.0 82.5 Z" stroke="none" fill="rgb(0,0,0)" />
<path d="M 32.0 91.5 L 31.666666666666668 91.33333333333333 L 31.333333333333332 91.33333333333333 L 31.333333333333332 91.66666666666667 L 31.5 92.0 Z" stroke="none" fill="rgb(0,0,0)" />
<path d="M 19.5 107.0 L 19.666666666666668 106.66666666666667 L 19.666666666666668 106.33333333333333 L 19.333333333333332 106.33333333333333 L 19.0 106.5 Z" stroke="none" fill="rgb(0,0,0)" />
<path d="M 15.5 112.0 L 15.666666666666666 111.66666666666667 L 15.666666666666666 111.33333333333333 L 15.333333333333334 111.33333333333333 L 15.0 111.5 Z" stroke="none" fill="rgb(0,0,0)" />
<path d="M 112.5 112.0 L 112.66666666666667 111.66666666666667 L 112.66666666666667 111.33333333333333 L 112.33333333333333 111.33333333333333 L 112.0 111.5 Z" stroke="none" fill="rgb(0,0,0)" />
</svg>
