<?xml version="1.0" encoding="UTF-8" standalone="no"?>
<!DOCTYPE svg PUBLIC "-//W3C//DTD SVG 1.1//EN"
"http://www.w3.org/Graphics/SVG/1.1/DTD/svg11.dtd">
<svg width="128" height="128" xmlns="http://www.w3.org/2000/svg" version="1.1">
<path d="M 88.5 128.0 L 89.0 128.0 L 90.0 128.0 L 91.0 128.0 L 92.0 128.0 L 93.0 128.0 L 94.0 128.0 L 95.0 128.0 L 96.0 128.0 L 97.0 128.0 L 98.0 128.0 L 99.0 128.0 L 100.0 128.0 L 101.0 128.0 L 102.0 128.0 L 103.0 128.0 L 104.0 128.0 L 105.0 128.0 L 106.0 128.0 L 107.0 128.0 L 108.0 128.0 L 109.0 128.0 L 110.0 128.0 L 111.0 128.0 L 112.0 128.0 L 113.0 128.0 L 114.0 128.0 L 115.0 128.0 L 116.0 128.0 L 117.0 128.0 L 118.0 128.0 L 119.0 128.0 L 120.0 128.0 L 121.0 128.0 L 122.0 128.0 L 123.0 128.0 L 124.0 128.0 L 125.0 128.0 L 126.0 128.0 L 127.0 128.0 L 127.66666666666667 127.66666666666667 L 128.0 127.0 L 128.0 126.0 L 128.0 125.0 L 128.0 124.0 L 128.0 123.0 L 128.0 122.0 L 128.0 121.0 L 128.0 120.0 L 128.0 119.0 L 128.0 118.0 L 128.0 117.0 L 128.0 116.0 L 128.0 115.0 L 128.0 114.0 L 128.0 113.0 L 128.0 112.0 L 128.0 111.0 L 128.0 110.0 L 128.0 109.0 L 128.0 108.0 L 128.0 107.0 L 128.0 106.0 L 128.0 105.0 L 128.0 104.0 L 128.0 103.0 L 128.0 102.0 L 128.0 101.0 L 128.0 100.0 L 128.0 99.0 L 128.0 98.0 L 128.0 97.0 L 128.0 96.0 L 128.0 95.0 L 128.0 94.0 L 128.0 93.0 L 128.0 92.0 L 128.0 91.0 L 128.0 90.0 L 128.0 89.0 L 128.0 88.0 L 128.0 87.0 L 128.0 86.0 L 128.0 85.0 L 128.0 84.0 L 128.0 83.0 L 128.0 82.0 L 128.0 81.0 L 128.0 80.0 L 128.0 79.0 L 128.0 78.0 L 128.0 77.0 L 128.0 76.0 L 128.0 75.0 L 128.0 74.0 L 128.0 73.0 L 128.0 72.0 L 128.0 71.0 L 128.0 70.0 L 128.0 69.0 L 128.0 68.0 L 128.0 67.0 L 128.0 66.0 L 128.0 65.0 L 128.0 64.0 L 128.0 63.0 L 128.0 62.0 L 128.0 61.0 L 128.0 60.0 L 128.0 59.0 L 128.0 58.0 L 128.0 57.0 L 128.0 56.0 L 128.0 55.0 L 128.0 54.0 L 128.0 53.0 L 128.0 52.0 L 128.0 51.0 L 128.0 50.0 L 128.0 49.0 L 128.0 48.0 L 128.0 47.0 L 128.0 46.0 L 128.0 45.0 L 128.0 44.0 L 128.0 43.0 L 128.0 42.0 L 128.0 41.0 L 128.0 40.0 L 128.0 39.0 L 128.0 38.0 L 128.0 37.0 L 128.0 36.0 L 128.0 35.0 L 128.0 34.0 L 128.0 33.0 L 128.0 32.0 L 128.0 31.0 L 128.0 30.0 L 128.0 29.0 L 128.0 28.0 L 128.0 27.0 L 128.0 26.0 L 128.0 25.0 L 128.0 24.0 L 128.0 23.0 L 128.0 22.0 L 128.0 21.0 L 128.0 20.0 L 128.0 19.0 L 128.0 18.0 L 128.0 17.0 L 128.0 16.0 L 128.0 15.0 L 128.0 14.0 L 128.0 13.0 L 128.0 12.0 L 128.0 11.0 L 128.0 10.0 L 128.0 9.0 L 128.0 8.0 L 128.0 7.0 L 128.0 6.0 L 128.0 5.0 L 128.0 4.0 L 128.0 3.0 L 128.0 2.0 L 128.0 1.0 L 127.66666666666667 0.3333333333333333 L 127.0 0.0 L 126.0 0.0 L 125.0 0.0 L 124.0 0.0 L 123.0 0.0 L 122.0 0.0 L 121.0 0.0 L 120.0 0.0 L 119.0 0.0 L 118.0 0.0 L 117.0 0.0 L 116.0 0.0 L 115.0 0.0 L 114.0 0.0 L 113.0 0.0 L 112.0 0.0 L 111.0 0.0 L 110.0 0.0 L 109.0 0.0 L 108.0 0.0 L 107.0 0.0 L 106.0 0.0 L 105.0 0.0 L 104.0 0.0 L 103.0 0.0 L 102.0 0.0 L 101.0 0.0 L 100.0 0.0 L 99.0 0.0 L 98.0 0.0 L 97.0 0.0 L 96.0 0.0 L 95.0 0.0 L 94.0 0.0 L 93.0 0.0 L 92.0 0.0 L 91.0 0.0 L 90.0 0.0 L 89.0 0.0 L 88.0 0.0 L 87.0 0.0 L 86.0 0.0 L 85.0 0.0 L 84.0 0.0 L 83.0 0.0 L 82.0 0.0 L 81.0 0.0 L 80.0 0.0 L 79.0 0.0 L 78.0 0.0 L 77.0 0.0 L 76.0 0.0 L 75.0 0.0 L 74.0 0.0 L 73.0 0.0 L 72.0 0.0 L 71.0 0.0 L 70.0 0.0 L 69.0 0.0 L 68.0 0.0 L 67.0 0.0 L 66.0 0.0 L 65.0 0.0 L 64.0 0.0 L 63.0 0.0 L 62.0 0.0 L 61.0 0.0 L 60.0 0.0 L 59.0 0.0 L 58.0 0.0 L 57.0 0.0 L 56.0 0.0 L 55.0 0.0 L 54.0 0.0 L 53.0 0.0 L 52.0 0.0 L 51.0 0.0 L 50.0 0.0 L 49.0 0.0 L 48.0 0.0 L 47.0 0.0 L 46.0 0.0 L 45.0 0.0 L 44.0 0.0 L 43.0 0.0 L 42.0 0.0 L 41.0 0.0 L 40.0 0.0 L 39.0 0.0 L 38.0 0.0 L 37.0 0.0 L 36.0 0.0 L 35.0 0.0 L 34.0 0.0 L 33.0 0.0 L 32.0 0.0 L 31.0 0.0 L 30.0 0.0 L 29.0 0.0 L 28.0 0.0 L 27.0 0.0 L 26.0 0.0 L 25.0 0.0 L 24.0 0.0 L 23.0 0.0 L 22.0 0.0 L 21.0 0.0 L 20.0 0.0 L 19.0 0.0 L 18.0 0.0 L 17.0 0.0 L 16.0 0.0 L 15.0 0.0 L 14.0 0.0 L 13.0 0.0 L 12.0 0.0 L 11.0 0.0 L 10.0 0.0 L 9.0 0.0 L 8.0 0.0 L 7.0 0.0 L 6.0 0.0 L 5.0 0.0 L 4.0 0.0 L 3.0 0.0 L 2.0 0.0 L 1.0 0.0 L 0.3333333333333333 0.3333333333333333 L 0.0 1.0 L 0.0 2.0 L 0.0 3.0 L 0.0 4.0 L 0.0 5.0 L 0.0 6.0 L 0.0 7.0 L 0.0 8.0 L 0.0 9.0 L 0.0 10.0 L 0.0 11.0 L 0.0 12.0 L 0.0 13.0 L 0.0 14.0 L 0.0 15.0 L 0.0 16.0 L 0.0 17.0 L 0.0 18.0 L 0.0 19.0 L 0.0 20.0 L 0.0 21.0 L 0.0 22.0 L 0.0 23.0 L 0.0 24.0 L 0.0 25.0 L 0.0 26.0 L 0.0 27.0 L 0.0 28.0 L 0.0 29.0 L 0.0 30.0 L 0.0 31.0 L 0.0 32.0 L 0.0 33.0 L 0.0 34.0 L 0.0 35.0 L 0.0 36.0 L 0.0 37.0 L 0.0 38.0 L 0.0 39.0 L 0.0 40.0 L 0.0 41.0 L 0.0 42.0 L 0.0 43.0 L 0.0 44.0 L 0.0 45.0 L 0.0 46.0 L 0.0 47.0 L 0.0 48.0 L 0.0 49.0 L 0.0 50.0 L 0.0 51.0 L 0.0 52.0 L 0.0 53.0 L 0.0 54.0 L 0.0 55.0 L 0.0 56.0 L 0.0 57.0 L 0.0 58.0 L 0.0 59.0 L 0.0 60.0 L 0.0 61.0 L 0.0 62.0 L 0.0 63.0 L 0.0 64.0 L 0.0 65.0 L 0.0 66.0 L 0.0 67.0 L 0.0 68.0 L 0.0 69.0 L 0.0 70.0 L 0.0 71.0 L 0.0 72.0 L 0.0 73.0 L 0.0 74.0 L 0.0 75.0 L 0.0 76.0 L 0.0 77.0 L 0.0 78.0 L 0.0 79.0 L 0.0 80.0 L 0.0 81.0 L 0.0 82.0 L 0.0 83.0 L 0.0 84.0 L 0.0 85.0 L 0.0 86.0 L 0.0 87.0 L 0.0 88.0 L 0.0 89.0 L 0.0 90.0 L 0.0 91.0 L 0.0 92.0 L 0.0 93.0 L 0.0 94.0 L 0.0 95.0 L 0.0 96.0 L 0.0 97.0 L 0.0 98.0 L 0.0 99.0 L 0.0 100.0 L 0.0 101.0 L 0.0 102.0 L 0.0 103.0 L 0.0 104.0 L 0.0 105.0 L 0.0 106.0 L 0.0 107.0 L 0.0 108.0 L 0.0 109.0 L 0.0 110.0 L 0.0 111.0 L 0.0 112.0 L 0.0 113.0 L 0.0 114.0 L 0.0 115.0 L 0.0 116.0 L 0.0 117.0 L 0.0 118.0 L 0.0 119.0 L 0.0 120.0 L 0.0 121.0 L 0.0 122.0 L 0.0 123.0 L 0.0 124.0 L 0.0 125.0 L 0.0 126.0 L 0.0 127.0 L 0.3333333333333333 127.66666666666667 L 1.0 128.0 L 2.0 128.0 L 3.0 128.0 L 4.0 128.0 L 5.0 128.0 L 6.0 128.0 L 7.0 128.0 L 8.0 128.0 L 9.0 128.0 L 10.0 128.0 L 11.0 128.0 L 12.0 128.0 L 13.0 128.0 L 14.0 128.0 L 15.0 128.0 L 16.0 128.0 L 17.0 128.0 L 18.0 128.0 L 19.0 128.0 L 20.0 128.0 L 21.0 128.0 L 22.0 128.0 L 23.0 128.0 L 24.0 128.0 L 25.0 128.0 L 26.0 128.0 L 27.0 128.0 L 28.0 128.0 L 29.0 128.0 L 30.0 128.0 L 31.0 128.0 L 32.0 128.0 L 33.0 128.0 L 34.0 128.0 L 35.0 128.0 L 36.0 128.0 L 37.0 128.0 L 38.0 128.0 L 39.0 128.0 L 40.0 128.0 L 41.0 128.0 L 42.0 128.0 L 43.0 128.0 L 44.0 128.0 L 45.0 128.0 L 46.0 128.0 L 47.0 128.0 L 48.0 128.0 L 49.0 128.0 L 50.0 128.0 L 51.0 128.0 L 52.0 128.0 L 53.0 128.0 L 54.0 128.0 L 55.0 128.0 L 56.0 128.0 L 57.0 128.0 L 58.0 128.0 L 59.0 128.0 L 60.0 128.0 L 61.0 128.0 L 62.0 128.0 L 63.0 128.0 L 64.0 128.0 L 65.0 128.0 L 66.0 128.0 L 67.0 128.0 L 68.0 128.0 L 69.0 128.0 L 70.0 128.0 L 71.0 128.0 L 72.0 128.0 L 73.0 128.0 L 74.0 128.0 L 75.0 128.0 L 76.0 128.0 L 77.0 128.0 L 78.0 128.0 L 79.0 128.0 L 80.0 128.0 L 81.0 128.0 L 82.0 128.0 L 83.0 128.0 L 84.0 128.0 L 85.0 128.0 L 86.0 128.0 L 87.0 128.0 L 87.5 128.0 Z" stroke="none" fill="rgb(0,0,0)" />
<path d="M 21.5 28.0 L 22.0 28.0 L 23.0 28.0 L 24.0 28.0 L 25.0 28.0 L 26.0 28.0 L 27.0 28.0 L 28.0 28.0 L 29.0 28.0 L 30.0 28.0 L 31.0 28.0 L 32.0 28.0 L 33.0 28.0 L 34.0 28.0 L 35.0 28.0 L 35.666666666666664 27.666666666666668 L 36.0 27.0 L 36.0 26.0 L 36.333333333333336 25.0 L 37.0 24.0 L 37.666666666666664 23.0 L 38.0 22.0 L 38.0 21.0 L 38.0 20.0 L 38.0 19.0 L 38.0 18.0 L 38.0 17.0 L 38.0 16.0 L 38.0 15.0 L 37.666666666666664 14.0 L 37.333333333333336 13.0 L 36.666666666666664 12.0 L 36.333333333333336 11.0 L 35.666666666666664 10.0 L 35.0 9.0 L 34.0 8.0 L 33.0 7.0 L 32.0 6.0 L 31.0 5.0 L 30.0 4.333333333333333 L 29.0 3.6666666666666665 L 28.0 3.3333333333333335 L 27.0 3.0 L 26.0 3.0 L 25.0 3.3333333333333335 L 24.0 4.0 L 23.0 4.666666666666667 L 22.0 5.333333333333333 L 21.0 6.0 L 20.0 7.0 L 19.0 8.0 L 18.333333333333332 9.0 L 17.666666666666668 10.0 L 17.0 11.0 L 16.333333333333332 12.0 L 16.0 13.0 L 15.666666666666666 14.0 L 15.333333333333334 15.0 L 15.0 16.0 L 15.0 17.0 L 15.0 18.0 L 15.0 19.0 L 15.0 20.0 L 15.333333333333334 21.0 L 15.666666666666666 22.0 L 16.0 23.0 L 16.333333333333332 24.0 L 16.666666666666668 25.0 L 17.0 26.0 L 17.0 27.0 L 17.333333333333332 27.666666666666668 L 18.0 28.0 L 19.0 28.0 L 20.0 28.0 L 20.5 28.0 Z" stroke="none" fill="rgb(135,91,82)" />
<path d="M 97.5 27.0 L 98.0 27.0 L 99.0 27.0 L 100.0 27.0 L 101.0 27.0 L 102.0 27.0 L 103.0 27.0 L 104.0 27.0 L 105.0 27.0 L 106.0 27.0 L 107.0 27.0 L 108.0 27.0 L 109.0 27.0 L 110.0 27.0 L 110.66666666666667 26.666666666666668 L 110.66666666666667 26.0 L 110.66666666666667 25.0 L 110.66666666666667 24.0 L 111.33333333333333 23.0 L 111.66666666666667 22.0 L 112.0 21.0 L 112.0 20.0 L 112.0 19.0 L 112.0 18.0 L 112.0 17.0 L 112.0 16.0 L 112.0 15.0 L 112.0 14.0 L 111.66666666666667 13.0 L 111.33333333333333 12.0 L 110.66666666666667 11.0 L 110.0 10.0 L 109.33333333333333 9.0 L 108.66666666666667 8.0 L 108.0 7.0 L 107.0 6.0 L 106.0 5.333333333333333 L 105.0 4.666666666666667 L 104.0 4.0 L 103.0 3.3333333333333335 L 102.0 3.0 L 101.0 3.0 L 100.0 3.0 L 99.0 3.3333333333333335 L 98.0 4.0 L 97.0 4.666666666666667 L 96.0 5.333333333333333 L 95.0 6.0 L 94.0 7.0 L 93.33333333333333 8.0 L 92.66666666666667 9.0 L 92.0 10.0 L 91.33333333333333 11.0 L 90.66666666666667 12.0 L 90.33333333333333 13.0 L 90.0 14.0 L 89.66666666666667 15.0 L 89.33333333333333 16.0 L 89.0 17.0 L 89.0 18.0 L 89.33333333333333 19.0 L 89.66666666666667 20.0 L 90.0 21.0 L 90.33333333333333 22.0 L 90.66666666666667 23.0 L 91.33333333333333 24.0 L 91.66666666666667 25.0 L 92.0 26.0 L 92.33333333333333 26.666666666666668 L 93.0 27.0 L 94.0 27.0 L 95.0 27.0 L 96.0 27.0 L 96.5 27.0 Z" stroke="none" fill="rgb(135,91,82)" />
<path d="M 53.5 45.5 L 54.0 45.0 L 54.666666666666664 44.0 L 55.333333333333336 43.0 L 56.0 42.0 L 57.0 41.0 L 58.0 40.0 L 59.0 39.0 L 60.0 38.0 L 61.0 37.0 L 62.0 36.0 L 63.0 35.0 L 64.0 34.666666666666664 L 65.0 35.0 L 66.0 36.0 L 67.0 37.0 L 68.0 38.0 L 69.0 39.0 L 70.0 40.0 L 71.0 41.0 L 72.0 42.0 L 73.0 43.0 L 74.0 44.0 L 74.66666666666667 45.0 L 75.33333333333333 46.0 L 76.0 47.0 L 77.0 48.0 L 78.0 49.0 L 79.0 50.0 L 79.66666666666667 51.0 L 80.33333333333333 52.0 L 81.0 53.0 L 82.0 54.0 L 83.0 55.0 L 84.0 56.0 L 84.66666666666667 57.0 L 85.33333333333333 58.0 L 86.0 59.0 L 87.0 60.0 L 88.0 61.0 L 89.0 61.666666666666664 L 90.0 62.0 L 90.66666666666667 61.666666666666664 L 91.0 61.0 L 91.0 60.0 L 91.0 59.0 L 91.33333333333333 58.0 L 91.66666666666667 57.0 L 91.66666666666667 56.0 L 91.0 55.0 L 90.0 54.0 L 89.0 53.0 L 88.0 52.0 L 87.33333333333333 51.0 L 86.66666666666667 50.0 L 86.0 49.0 L 85.0 48.0 L 84.0 47.0 L 83.33333333333333 46.0 L 82.66666666666667 45.0 L 82.0 44.0 L 81.0 43.0 L 80.0 42.0 L 79.33333333333333 41.0 L 78.66666666666667 40.0 L 78.0 39.0 L 77.0 38.0 L 76.0 37.0 L 75.33333333333333 36.0 L 74.66666666666667 35.0 L 74.0 34.0 L 73.0 33.0 L 72.0 32.0 L 71.33333333333333 31.0 L 70.66666666666667 30.0 L 70.33333333333333 29.0 L 70.0 28.0 L 70.0 27.0 L 70.0 26.0 L 70.0 25.0 L 70.0 24.0 L 70.0 23.0 L 70.0 22.0 L 70.0 21.0 L 69.66666666666667 20.0 L 69.33333333333333 19.0 L 68.66666666666667 18.0 L 68.0 17.333333333333332 L 67.0 17.0 L 66.0 16.666666666666668 L 65.0 16.333333333333332 L 64.0 16.0 L 63.0 16.333333333333332 L 62.0 16.666666666666668 L 61.0 17.0 L 60.0 17.333333333333332 L 59.0 18.0 L 58.333333333333336 19.0 L 58.0 20.0 L 58.0 21.0 L 58.0 22.0 L 58.0 23.0 L 58.0 24.0 L 58.0 25.0 L 58.0 26.0 L 58.0 27.0 L 58.0 28.0 L 57.666666666666664 29.0 L 57.0 30.0 L 56.333333333333336 31.0 L 55.666666666666664 32.0 L 55.0 33.0 L 54.0 34.0 L 53.0 35.0 L 52.333333333333336 36.0 L 51.666666666666664 37.0 L 51.0 38.0 L 50.0 39.0 L 49.0 40.0 L 48.333333333333336 41.0 L 47.666666666666664 42.0 L 47.0 43.0 L 46.0 44.0 L 45.333333333333336 45.0 L 44.666666666666664 46.0 L 44.0 47.0 L 43.0 48.0 L 42.0 49.0 L 41.333333333333336 50.0 L 40.666666666666664 51.0 L 40.0 52.0 L 39.0 53.0 L 38.0 54.0 L 37.333333333333336 55.0 L 37.0 56.0 L 37.0 57.0 L 37.0 58.0 L 37.0 59.0 L 37.0 60.0 L 37.0 61.0 L 37.0 62.0 L 37.0 63.0 L 37.333333333333336 63.666666666666664 L 38.0 64.0 L 39.0 63.666666666666664 L 39.666666666666664 63.0 L 40.333333333333336 62.0 L 41.0 61.0 L 42.0 60.0 L 42.666666666666664 59.0 L 43.333333333333336 58.0 L 44.0 57.0 L 45.0 56.0 L 46.0 55.0 L 46.666666666666664 54.0 L 47.333333333333336 53.0 L 48.0 52.0 L 49.0 51.0 L 50.0 50.0 L 50.666666666666664 49.0 L 51.333333333333336 48.0 L 52.0 47.0 L 52.5 46.5 Z" stroke="none" fill="rgb(135,91,82)" />
<path d="M 105.5 31.0 L 106.0 31.0 L 107.0 31.0 L 108.0 31.0 L 109.0 31.0 L 110.0 31.0 L 111.0 31.0 L 111.66666666666667 30.666666666666668 L 112.0 30.0 L 112.0 29.0 L 111.66666666666667 28.0 L 111.0 27.333333333333332 L 110.0 27.0 L 109.0 27.0 L 108.0 27.0 L 107.0 27.0 L 106.0 27.0 L 105.0 27.0 L 104.0 27.0 L 103.0 27.0 L 102.0 27.0 L 101.0 27.0 L 100.0 27.0 L 99.0 27.0 L 98.0 27.0 L 97.0 27.0 L 96.0 27.0 L 95.0 27.0 L 94.0 27.0 L 93.0 27.0 L 92.0 27.333333333333332 L 91.0 27.666666666666668 L 90.33333333333333 28.333333333333332 L 90.0 29.0 L 90.33333333333333 30.0 L 91.0 30.666666666666668 L 92.0 31.0 L 93.0 31.0 L 94.0 31.0 L 95.0 31.0 L 96.0 31.0 L 97.0 31.0 L 98.0 31.0 L 99.0 31.0 L 100.0 31.0 L 101.0 31.0 L 102.0 31.0 L 103.0 31.0 L 104.0 31.0 L 104.5 31.0 Z" stroke="none" fill="rgb(183,146,119)" />
<path d="M 32.5 31.0 L 33.0 31.0 L 34.0 31.0 L 35.0 31.0 L 36.0 31.0 L 36.666666666666664 30.666666666666668 L 37.0 30.0 L 37.0 29.0 L 36.666666666666664 28.333333333333332 L 36.0 28.0 L 35.0 28.0 L 34.0 28.0 L 33.0 28.0 L 32.0 28.0 L 31.0 28.0 L 30.0 28.0 L 29.0 28.0 L 28.0 28.0 L 27.0 28.0 L 26.0 28.0 L 25.0 28.0 L 24.0 28.0 L 23.0 28.0 L 22.0 28.0 L 21.0 28.0 L 20.0 28.0 L 19.0 28.0 L 18.0 28.0 L 17.0 28.0 L 16.333333333333332 28.333333333333332 L 16.0 29.0 L 16.333333333333332 30.0 L 17.0 30.666666666666668 L 18.0 31.0 L 19.0 31.0 L 20.0 31.0 L 21.0 31.0 L 22.0 31.0 L 23.0 31.0 L 24.0 31.0 L 25.0 31.0 L 26.0 31.0 L 27.0 31.0 L 28.0 31.0 L 29.0 31.0 L 30.0 31.0 L 31.0 31.0 L 31.5 31.0 Z" stroke="none" fill="rgb(183,146,119)" />
<path d="M 23.5 58.0 L 24.0 58.0 L 25.0 58.0 L 26.0 58.0 L 27.0 58.0 L 28.0 58.0 L 29.0 58.0 L 30.0 58.0 L 31.0 58.0 L 32.0 58.0 L 33.0 58.0 L 34.0 58.0 L 35.0 58.0 L 36.0 58.0 L 36.666666666666664 57.666666666666664 L 37.0 57.0 L 37.0 56.0 L 37.0 55.0 L 37.0 54.0 L 37.0 53.0 L 37.0 52.0 L 37.0 51.0 L 37.0 50.0 L 37.0 49.0 L 37.0 48.0 L 37.0 47.0 L 37.0 46.0 L 37.0 45.0 L 37.0 44.0 L 37.0 43.0 L 37.0 42.0 L 37.0 41.0 L 37.0 40.0 L 37.0 39.0 L 37.0 38.0 L 37.0 37.0 L 37.0 36.0 L 37.0 35.0 L 37.0 34.0 L 37.0 33.0 L 37.0 32.0 L 36.666666666666664 31.333333333333332 L 36.0 31.0 L 35.0 31.0 L 34.0 31.0 L 33.0 31.0 L 32.0 31.0 L 31.0 31.0 L 30.0 31.0 L 29.0 31.0 L 28.0 31.0 L 27.0 31.0 L 26.0 31.0 L 25.0 31.0 L 24.0 31.0 L 23.0 31.0 L 22.0 31.0 L 21.0 31.0 L 20.0 31.0 L 19.0 31.0 L 18.0 31.0 L 17.0 31.0 L 16.333333333333332 31.333333333333332 L 16.0 32.0 L 16.0 33.0 L 16.0 34.0 L 16.0 35.0 L 16.0 36.0 L 16.0 37.0 L 16.0 38.0 L 16.0 39.0 L 16.0 40.0 L 16.0 41.0 L 16.0 42.0 L 16.0 43.0 L 16.0 44.0 L 16.0 45.0 L 16.0 46.0 L 16.0 47.0 L 16.0 48.0 L 16.0 49.0 L 16.0 50.0 L 16.0 51.0 L 16.0 52.0 L 16.0 53.0 L 16.0 54.0 L 16.0 55.0 L 16.0 56.0 L 16.333333333333332 57.0 L 17.0 57.666666666666664 L 18.0 58.0 L 19.0 58.0 L 20.0 58.0 L 21.0 58.0 L 22.0 58.0 L 22.5 58.0 Z" stroke="none" fill="rgb(228,197,176)" />
<path d="M 105.5 57.0 L 106.0 57.0 L 107.0 57.0 L 108.0 57.0 L 109.0 57.0 L 110.0 57.333333333333336 L 111.0 57.666666666666664 L 111.66666666666667 57.666666666666664 L 112.0 57.0 L 112.0 56.0 L 112.0 55.0 L 112.0 54.0 L 112.0 53.0 L 112.0 52.0 L 112.0 51.0 L 112.0 50.0 L 112.0 49.0 L 112.0 48.0 L 112.0 47.0 L 112.0 46.0 L 112.0 45.0 L 112.0 44.0 L 112.0 43.0 L 112.0 42.0 L 112.0 41.0 L 112.0 40.0 L 112.0 39.0 L 112.0 38.0 L 112.0 37.0 L 112.0 36.0 L 112.0 35.0 L 112.0 34.0 L 112.0 33.0 L 112.0 32.0 L 111.66666666666667 31.333333333333332 L 111.0 31.0 L 110.0 31.0 L 109.0 31.0 L 108.0 31.0 L 107.0 31.0 L 106.0 31.0 L 105.0 31.0 L 104.0 31.0 L 103.0 31.0 L 102.0 31.0 L 101.0 31.0 L 100.0 31.0 L 99.0 31.0 L 98.0 31.0 L 97.0 31.0 L 96.0 31.0 L 95.0 31.0 L 94.0 31.0 L 93.0 31.0 L 92.0 31.0 L 91.0 31.0 L 90.33333333333333 31.333333333333332 L 90.0 32.0 L 90.0 33.0 L 90.0 34.0 L 90.0 35.0 L 90.0 36.0 L 90.0 37.0 L 90.0 38.0 L 90.0 39.0 L 90.0 40.0 L 90.0 41.0 L 90.0 42.0 L 90.0 43.0 L 90.0 44.0 L 90.0 45.0 L 90.0 46.0 L 90.0 47.0 L 90.0 48.0 L 90.0 49.0 L 90.0 50.0 L 90.0 51.0 L 90.0 52.0 L 90.0 53.0 L 90.0 54.0 L 90.33333333333333 55.0 L 91.0 56.0 L 92.0 56.666666666666664 L 93.0 57.0 L 94.0 57.0 L 95.0 57.0 L 96.0 57.0 L 97.0 57.0 L 98.0 57.0 L 99.0 57.0 L 100.0 57.0 L 101.0 57.0 L 102.0 57.0 L 103.0 57.0 L 104.0 57.0 L 104.5 57.0 Z" stroke="none" fill="rgb(228,197,176)" />
<path d="M 72.5 88.0 L 73.0 88.0 L 74.0 88.0 L 75.0 88.0 L 76.0 88.0 L 77.0 88.0 L 78.0 88.0 L 79.0 88.0 L 80.0 88.0 L 81.0 88.0 L 82.0 88.0 L 83.0 88.0 L 84.0 88.0 L 85.0 88.0 L 86.0 88.0 L 87.0 88.0 L 88.0 88.0 L 89.0 88.0 L 89.66666666666667 87.66666666666667 L 90.0 87.0 L 90.0 86.0 L 90.0 85.0 L 90.0 84.0 L 90.0 83.0 L 90.0 82.0 L 90.0 81.0 L 90.0 80.0 L 90.0 79.0 L 90.0 78.0 L 90.0 77.0 L 90.0 76.0 L 90.0 75.0 L 90.0 74.0 L 90.0 73.0 L 90.0 72.0 L 90.0 71.0 L 90.0 70.0 L 90.0 69.0 L 90.0 68.0 L 90.0 67.0 L 90.0 66.0 L 90.0 65.0 L 90.0 64.0 L 90.0 63.0 L 89.66666666666667 62.0 L 89.0 61.0 L 88.0 60.0 L 87.0 59.0 L 86.0 58.0 L 85.33333333333333 57.0 L 84.66666666666667 56.0 L 84.0 55.0 L 83.0 54.0 L 82.0 53.0 L 81.0 52.0 L 80.33333333333333 51.0 L 79.66666666666667 50.0 L 79.0 49.0 L 78.0 48.0 L 77.0 47.0 L 76.0 46.0 L 75.33333333333333 45.0 L 74.66666666666667 44.0 L 74.0 43.0 L 73.0 42.0 L 72.0 41.0 L 71.0 40.0 L 70.0 39.0 L 69.0 38.0 L 68.0 37.0 L 67.0 36.0 L 66.0 35.0 L 65.0 34.333333333333336 L 64.0 34.0 L 63.0 34.333333333333336 L 62.0 35.0 L 61.0 36.0 L 60.0 37.0 L 59.0 38.0 L 58.0 39.0 L 57.0 40.0 L 56.0 41.0 L 55.333333333333336 42.0 L 54.666666666666664 43.0 L 54.0 44.0 L 53.0 45.0 L 52.0 46.0 L 51.333333333333336 47.0 L 50.666666666666664 48.0 L 50.0 49.0 L 49.0 50.0 L 48.0 51.0 L 47.333333333333336 52.0 L 46.666666666666664 53.0 L 46.0 54.0 L 45.0 55.0 L 44.0 56.0 L 43.333333333333336 57.0 L 42.666666666666664 58.0 L 42.0 59.0 L 41.0 60.0 L 40.333333333333336 61.0 L 39.666666666666664 62.0 L 39.0 63.0 L 38.333333333333336 64.0 L 37.666666666666664 65.0 L 37.333333333333336 66.0 L 37.0 67.0 L 37.0 68.0 L 37.0 69.0 L 37.0 70.0 L 37.0 71.0 L 37.0 72.0 L 37.0 73.0 L 37.0 74.0 L 37.0 75.0 L 37.0 76.0 L 37.0 77.0 L 37.0 78.0 L 37.0 79.0 L 37.0 80.0 L 37.0 81.0 L 37.0 82.0 L 37.0 83.0 L 37.0 84.0 L 37.0 85.0 L 37.0 86.0 L 37.333333333333336 87.0 L 38.0 87.66666666666667 L 39.0 88.0 L 40.0 88.0 L 41.0 88.0 L 42.0 88.0 L 43.0 88.0 L 44.0 88.0 L 45.0 88.0 L 46.0 88.0 L 47.0 88.0 L 48.0 88.0 L 49.0 88.0 L 50.0 88.0 L 51.0 88.0 L 52.0 88.0 L 53.0 88.0 L 54.0 88.0 L 55.0 88.0 L 56.0 88.0 L 57.0 88.0 L 58.0 88.0 L 59.0 88.0 L 60.0 88.0 L 61.0 88.0 L 62.0 88.0 L 63.0 88.0 L 64.0 88.0 L 65.0 88.0 L 66.0 88.0 L 67.0 88.0 L 68.0 88.0 L 69.0 88.0 L 70.0 88.0 L 71.0 88.0 L 71.5 88.0 Z" stroke="none" fill="rgb(228,197,176)" />
<path d="M 104.0 49.5 L 104.0 49.0 L 104.0 48.0 L 104.0 47.0 L 104.0 46.0 L 104.0 45.0 L 104.0 44.0 L 104.0 43.0 L 104.0 42.0 L 104.0 41.0 L 104.0 40.0 L 104.0 39.0 L 104.0 38.0 L 104.0 37.0 L 103.66666666666667 36.333333333333336 L 103.0 36.0 L 102.0 36.0 L 101.0 36.0 L 100.0 36.0 L 99.33333333333333 36.333333333333336 L 99.0 37.0 L 99.0 38.0 L 99.0 39.0 L 99.0 40.0 L 99.0 41.0 L 99.0 42.0 L 99.0 43.0 L 99.0 44.0 L 99.0 45.0 L 99.0 46.0 L 99.0 47.0 L 99.0 48.0 L 99.0 49.0 L 99.33333333333333 49.666666666666664 L 100.0 50.0 L 101.0 50.0 L 102.0 50.0 L 103.0 50.0 L 103.5 50.0 Z" stroke="none" fill="rgb(105,118,156)" />
<path d="M 27.5 51.0 L 28.0 51.0 L 28.666666666666668 50.666666666666664 L 29.0 50.0 L 29.0 49.0 L 29.0 48.0 L 29.0 47.0 L 29.0 46.0 L 29.0 45.0 L 29.0 44.0 L 29.0 43.0 L 29.0 42.0 L 29.0 41.0 L 29.0 40.0 L 29.0 39.0 L 29.0 38.0 L 28.666666666666668 37.333333333333336 L 28.0 37.0 L 27.0 37.0 L 26.0 37.0 L 25.333333333333332 37.333333333333336 L 25.0 38.0 L 25.0 39.0 L 25.0 40.0 L 25.0 41.0 L 25.0 42.0 L 25.0 43.0 L 25.0 44.0 L 25.0 45.0 L 25.0 46.0 L 25.0 47.0 L 25.0 48.0 L 25.0 49.0 L 25.0 50.0 L 25.333333333333332 50.666666666666664 L 26.0 51.0 L 26.5 51.0 Z" stroke="none" fill="rgb(105,118,156)" />
<path d="M 57.5 58.0 L 58.0 58.0 L 59.0 58.0 L 59.666666666666664 57.666666666666664 L 60.333333333333336 57.0 L 61.0 56.0 L 62.0 55.0 L 62.666666666666664 54.0 L 63.0 53.0 L 62.666666666666664 52.0 L 62.0 51.333333333333336 L 61.0 51.0 L 60.0 51.0 L 59.0 51.0 L 58.0 51.333333333333336 L 57.0 51.666666666666664 L 56.0 52.333333333333336 L 55.0 52.666666666666664 L 54.0 53.333333333333336 L 53.0 54.0 L 52.0 55.0 L 51.333333333333336 56.0 L 51.0 57.0 L 51.333333333333336 57.666666666666664 L 52.0 58.0 L 53.0 58.0 L 54.0 58.0 L 55.0 58.0 L 56.0 58.0 L 56.5 58.0 Z" stroke="none" fill="rgb(80,70,68)" />
<path d="M 59.5 85.0 L 60.0 85.33333333333333 L 61.0 85.66666666666667 L 62.0 86.0 L 63.0 86.0 L 64.0 86.0 L 65.0 86.0 L 66.0 86.0 L 67.0 86.0 L 68.0 86.0 L 69.0 86.0 L 70.0 86.0 L 71.0 85.66666666666667 L 72.0 85.33333333333333 L 73.0 84.66666666666667 L 74.0 84.0 L 75.0 83.0 L 76.0 82.0 L 77.0 81.0 L 78.0 80.0 L 79.0 79.0 L 79.66666666666667 78.0 L 80.33333333333333 77.0 L 80.66666666666667 76.0 L 81.33333333333333 75.0 L 81.66666666666667 74.0 L 82.0 73.0 L 82.0 72.0 L 82.0 71.0 L 82.0 70.0 L 82.0 69.0 L 82.0 68.0 L 82.0 67.0 L 82.0 66.0 L 82.0 65.0 L 81.66666666666667 64.0 L 81.33333333333333 63.0 L 81.0 62.0 L 81.0 61.0 L 80.66666666666667 60.0 L 80.33333333333333 59.0 L 79.66666666666667 58.0 L 79.0 57.0 L 78.0 56.0 L 77.0 55.0 L 76.0 54.0 L 75.0 53.333333333333336 L 74.0 52.666666666666664 L 73.0 52.333333333333336 L 72.0 51.666666666666664 L 71.0 51.333333333333336 L 70.0 51.0 L 69.0 51.0 L 68.0 51.0 L 67.0 51.0 L 66.33333333333333 51.333333333333336 L 66.0 52.0 L 66.0 53.0 L 66.0 54.0 L 66.33333333333333 55.0 L 67.0 56.0 L 68.0 57.0 L 69.0 57.666666666666664 L 70.0 58.0 L 71.0 58.0 L 72.0 58.0 L 73.0 58.0 L 74.0 58.0 L 75.0 58.0 L 76.0 58.333333333333336 L 77.0 59.0 L 77.66666666666667 60.0 L 78.0 61.0 L 77.66666666666667 62.0 L 77.33333333333333 63.0 L 76.66666666666667 64.0 L 76.33333333333333 65.0 L 75.66666666666667 66.0 L 75.33333333333333 67.0 L 75.0 68.0 L 75.0 69.0 L 75.33333333333333 70.0 L 75.66666666666667 71.0 L 76.33333333333333 72.0 L 77.0 73.0 L 77.66666666666667 74.0 L 78.0 75.0 L 77.66666666666667 76.0 L 77.0 77.0 L 76.0 77.66666666666667 L 75.0 78.0 L 74.0 78.0 L 73.0 78.0 L 72.0 78.0 L 71.0 78.0 L 70.0 78.33333333333333 L 69.0 79.0 L 68.0 80.0 L 67.33333333333333 81.0 L 66.66666666666667 82.0 L 66.0 83.0 L 65.0 83.33333333333333 L 64.0 83.0 L 63.0 82.0 L 62.0 81.0 L 61.0 80.0 L 60.0 79.0 L 59.0 78.0 L 58.0 77.33333333333333 L 57.0 77.0 L 56.0 77.0 L 55.0 77.0 L 54.0 77.0 L 53.0 77.0 L 52.0 76.66666666666667 L 51.0 76.0 L 50.333333333333336 75.0 L 50.333333333333336 74.0 L 50.666666666666664 73.0 L 51.333333333333336 72.0 L 52.0 71.0 L 52.666666666666664 70.0 L 53.0 69.0 L 53.0 68.0 L 53.0 67.0 L 53.0 66.0 L 52.666666666666664 65.0 L 52.0 64.0 L 51.0 63.0 L 50.0 62.333333333333336 L 49.0 62.0 L 48.0 62.0 L 47.333333333333336 62.333333333333336 L 47.0 63.0 L 47.0 64.0 L 46.666666666666664 65.0 L 46.333333333333336 66.0 L 46.0 67.0 L 46.0 68.0 L 46.0 69.0 L 46.0 70.0 L 46.0 71.0 L 46.0 72.0 L 46.0 73.0 L 46.333333333333336 74.0 L 46.666666666666664 75.0 L 47.333333333333336 76.0 L 48.0 77.0 L 48.666666666666664 78.0 L 49.333333333333336 79.0 L 50.0 80.0 L 51.0 81.0 L 52.0 82.0 L 53.0 83.0 L 54.0 83.66666666666667 L 55.0 84.0 L 56.0 84.33333333333333 L 57.0 84.66666666666667 L 58.0 85.0 L 58.5 85.0 Z" stroke="none" fill="rgb(80,70,68)" />
<path d="M 59.5 79.5 L 60.0 80.0 L 61.0 81.0 L 62.0 82.0 L 63.0 83.0 L 64.0 83.66666666666667 L 65.0 84.0 L 66.0 83.66666666666667 L 66.66666666666667 83.0 L 67.33333333333333 82.0 L 68.0 81.0 L 69.0 80.0 L 70.0 79.0 L 71.0 78.33333333333333 L 72.0 78.0 L 73.0 78.0 L 74.0 78.0 L 75.0 78.0 L 76.0 78.0 L 77.0 77.66666666666667 L 77.66666666666667 77.0 L 78.0 76.0 L 78.0 75.0 L 78.0 74.0 L 77.66666666666667 73.0 L 77.0 72.0 L 76.33333333333333 71.0 L 75.66666666666667 70.0 L 75.33333333333333 69.0 L 75.33333333333333 68.0 L 75.66666666666667 67.0 L 76.33333333333333 66.0 L 76.66666666666667 65.0 L 77.33333333333333 64.0 L 77.66666666666667 63.0 L 78.0 62.0 L 78.0 61.0 L 78.0 60.0 L 77.66666666666667 59.0 L 77.0 58.333333333333336 L 76.0 58.0 L 75.0 58.0 L 74.0 58.0 L 73.0 58.0 L 72.0 58.0 L 71.0 58.0 L 70.0 57.666666666666664 L 69.0 57.0 L 68.0 56.0 L 67.0 55.0 L 66.33333333333333 54.0 L 65.66666666666667 53.333333333333336 L 65.0 53.0 L 64.0 53.0 L 63.0 53.333333333333336 L 62.0 54.0 L 61.0 55.0 L 60.333333333333336 56.0 L 59.666666666666664 57.0 L 59.0 57.666666666666664 L 58.0 58.0 L 57.0 58.0 L 56.0 58.0 L 55.0 58.0 L 54.0 58.0 L 53.0 58.0 L 52.0 58.0 L 51.0 58.333333333333336 L 50.333333333333336 59.0 L 50.0 60.0 L 50.0 61.0 L 50.0 62.0 L 50.333333333333336 63.0 L 51.0 64.0 L 52.0 65.0 L 52.666666666666664 66.0 L 53.0 67.0 L 53.0 68.0 L 52.666666666666664 69.0 L 52.0 70.0 L 51.333333333333336 71.0 L 50.666666666666664 72.0 L 50.333333333333336 73.0 L 50.0 74.0 L 50.0 75.0 L 50.333333333333336 76.0 L 51.0 76.66666666666667 L 52.0 77.0 L 53.0 77.0 L 54.0 77.0 L 55.0 77.0 L 56.0 77.0 L 57.0 77.33333333333333 L 58.0 78.0 L 58.5 78.5 Z" stroke="none" fill="rgb(255,210,36)" />
<path d="M 95.5 124.0 L 96.0 124.0 L 97.0 124.0 L 98.0 124.0 L 99.0 124.0 L 100.0 124.0 L 101.0 124.0 L 102.0 124.0 L 103.0 124.0 L 104.0 124.0 L 105.0 124.0 L 106.0 124.0 L 107.0 124.0 L 108.0 124.0 L 109.0 124.0 L 110.0 124.0 L 110.66666666666667 123.66666666666667 L 111.0 123.0 L 111.0 122.0 L 111.0 121.0 L 111.0 120.0 L 111.0 119.0 L 111.0 118.0 L 111.0 117.0 L 111.0 116.0 L 111.0 115.0 L 111.0 114.0 L 111.0 113.0 L 111.0 112.0 L 111.0 111.0 L 111.0 110.0 L 111.0 109.0 L 111.0 108.0 L 111.0 107.0 L 111.0 106.0 L 111.0 105.0 L 111.0 104.0 L 111.0 103.0 L 111.0 102.0 L 111.0 101.0 L 111.0 100.0 L 111.0 99.0 L 111.0 98.0 L 111.0 97.0 L 111.0 96.0 L 111.0 95.0 L 111.0 94.0 L 111.0 93.0 L 111.0 92.0 L 111.0 91.0 L 111.0 90.0 L 111.0 89.0 L 111.0 88.0 L 111.0 87.0 L 111.0 86.0 L 111.0 85.0 L 111.0 84.0 L 111.33333333333333 83.0 L 111.66666666666667 82.0 L 112.0 81.0 L 112.0 80.0 L 112.0 79.0 L 112.0 78.0 L 112.0 77.0 L 112.0 76.0 L 112.0 75.0 L 112.0 74.0 L 112.0 73.0 L 112.0 72.0 L 112.0 71.0 L 112.0 70.0 L 112.0 69.0 L 112.0 68.0 L 112.0 67.0 L 112.0 66.0 L 112.0 65.0 L 112.0 64.0 L 112.0 63.0 L 112.0 62.0 L 112.0 61.0 L 112.0 60.0 L 112.0 59.0 L 111.66666666666667 58.0 L 111.0 57.333333333333336 L 110.0 57.0 L 109.0 57.0 L 108.0 57.0 L 107.0 57.0 L 106.0 57.0 L 105.0 57.0 L 104.0 57.0 L 103.0 57.0 L 102.0 57.0 L 101.0 57.0 L 100.0 57.0 L 99.0 57.0 L 98.0 57.0 L 97.0 57.0 L 96.0 57.0 L 95.0 57.0 L 94.0 57.0 L 93.0 57.0 L 92.0 57.0 L 91.33333333333333 57.333333333333336 L 91.0 58.0 L 91.0 59.0 L 91.0 60.0 L 90.66666666666667 61.0 L 90.33333333333333 62.0 L 90.0 63.0 L 90.0 64.0 L 90.0 65.0 L 90.0 66.0 L 90.0 67.0 L 90.0 68.0 L 90.0 69.0 L 90.0 70.0 L 90.0 71.0 L 90.0 72.0 L 90.0 73.0 L 90.0 74.0 L 90.0 75.0 L 90.0 76.0 L 90.0 77.0 L 90.0 78.0 L 90.0 79.0 L 90.0 80.0 L 90.0 81.0 L 90.0 82.0 L 90.0 83.0 L 90.0 84.0 L 90.0 85.0 L 90.0 86.0 L 89.66666666666667 87.0 L 89.0 87.66666666666667 L 88.0 88.0 L 87.0 88.0 L 86.0 88.0 L 85.0 88.0 L 84.0 88.0 L 83.0 88.0 L 82.0 88.0 L 81.0 88.0 L 80.0 88.0 L 79.0 88.0 L 78.0 88.0 L 77.0 88.0 L 76.0 88.0 L 75.0 88.0 L 74.0 88.0 L 73.0 88.0 L 72.0 88.0 L 71.0 88.0 L 70.0 88.0 L 69.0 88.0 L 68.0 88.0 L 67.0 88.0 L 66.0 88.0 L 65.0 88.0 L 64.0 88.0 L 63.0 88.0 L 62.0 88.0 L 61.0 88.0 L 60.0 88.0 L 59.0 88.0 L 58.0 88.0 L 57.0 88.0 L 56.0 88.0 L 55.0 88.0 L 54.0 88.0 L 53.0 88.0 L 52.0 88.0 L 51.0 88.0 L 50.0 88.0 L 49.0 88.0 L 48.0 88.0 L 47.0 88.0 L 46.0 88.0 L 45.0 88.0 L 44.0 88.0 L 43.0 88.0 L 42.0 88.0 L 41.0 88.0 L 40.0 88.0 L 39.0 87.66666666666667 L 38.0 87.0 L 37.333333333333336 86.0 L 37.0 85.0 L 37.0 84.0 L 37.0 83.0 L 37.0 82.0 L 37.0 81.0 L 37.0 80.0 L 37.0 79.0 L 37.0 78.0 L 37.0 77.0 L 37.0 76.0 L 37.0 75.0 L 37.0 74.0 L 37.0 73.0 L 37.0 72.0 L 37.0 71.0 L 37.0 70.0 L 37.0 69.0 L 37.0 68.0 L 37.333333333333336 67.0 L 37.666666666666664 66.0 L 38.0 65.0 L 37.666666666666664 64.0 L 37.333333333333336 63.0 L 37.0 62.0 L 37.0 61.0 L 37.0 60.0 L 37.0 59.0 L 36.666666666666664 58.333333333333336 L 36.0 58.0 L 35.0 58.0 L 34.0 58.0 L 33.0 58.0 L 32.0 58.0 L 31.0 58.0 L 30.0 58.0 L 29.0 58.0 L 28.0 58.0 L 27.0 58.0 L 26.0 58.0 L 25.0 58.0 L 24.0 58.0 L 23.0 58.0 L 22.0 58.0 L 21.0 58.0 L 20.0 58.0 L 19.0 58.0 L 18.0 58.0 L 17.333333333333332 58.333333333333336 L 17.0 59.0 L 17.0 60.0 L 17.0 61.0 L 17.0 62.0 L 17.0 63.0 L 17.0 64.0 L 17.0 65.0 L 17.0 66.0 L 17.0 67.0 L 17.0 68.0 L 17.0 69.0 L 17.0 70.0 L 17.0 71.0 L 17.0 72.0 L 17.0 73.0 L 17.0 74.0 L 17.0 75.0 L 17.0 76.0 L 17.0 77.0 L 17.0 78.0 L 17.0 79.0 L 17.0 80.0 L 17.0 81.0 L 17.0 82.0 L 17.0 83.0 L 17.0 84.0 L 17.0 85.0 L 17.0 86.0 L 17.0 87.0 L 17.0 88.0 L 17.0 89.0 L 17.0 90.0 L 17.0 91.0 L 17.0 92.0 L 17.0 93.0 L 17.0 94.0 L 17.0 95.0 L 17.0 96.0 L 17.0 97.0 L 17.0 98.0 L 17.0 99.0 L 17.0 100.0 L 17.0 101.0 L 17.0 102.0 L 17.0 103.0 L 17.0 104.0 L 17.0 105.0 L 17.0 106.0 L 17.0 107.0 L 17.0 108.0 L 17.0 109.0 L 17.0 110.0 L 17.0 111.0 L 17.0 112.0 L 17.0 113.0 L 17.0 114.0 L 17.0 115.0 L 17.0 116.0 L 17.0 117.0 L 17.0 118.0 L 17.0 119.0 L 17.0 120.0 L 17.0 121.0 L 17.0 122.0 L 17.0 123.0 L 17.333333333333332 123.66666666666667 L 18.0 124.0 L 19.0 124.0 L 20.0 124.0 L 21.0 124.0 L 22.0 124.0 L 23.0 124.0 L 24.0 124.0 L 25.0 124.0 L 26.0 124.0 L 27.0 124.0 L 28.0 124.0 L 29.0 124.0 L 30.0 124.0 L 31.0 124.0 L 32.0 124.0 L 33.0 124.0 L 34.0 124.0 L 35.0 124.0 L 36.0 124.0 L 37.0 124.0 L 37.666666666666664 123.66666666666667 L 38.0 123.0 L 38.0 122.0 L 38.0 121.0 L 38.0 120.0 L 38.0 119.0 L 38.0 118.0 L 38.0 117.0 L 38.0 116.0 L 38.0 115.0 L 38.0 114.0 L 38.0 113.0 L 38.0 112.0 L 38.0 111.0 L 38.0 110.0 L 38.0 109.0 L 38.0 108.0 L 38.0 107.0 L 38.0 106.0 L 38.0 105.0 L 38.0 104.0 L 38.0 103.0 L 38.0 102.0 L 38.333333333333336 101.0 L 38.666666666666664 100.0 L 39.0 99.0 L 39.333333333333336 98.0 L 40.0 97.0 L 41.0 96.33333333333333 L 42.0 95.66666666666667 L 43.0 95.33333333333333 L 44.0 95.0 L 45.0 95.0 L 46.0 95.0 L 47.0 95.0 L 48.0 95.0 L 49.0 95.33333333333333 L 50.0 96.0 L 51.0 97.0 L 51.666666666666664 98.0 L 52.0 99.0 L 52.0 100.0 L 52.0 101.0 L 52.0 102.0 L 52.0 103.0 L 52.0 104.0 L 52.0 105.0 L 52.0 106.0 L 52.0 107.0 L 52.0 108.0 L 52.0 109.0 L 52.0 110.0 L 52.0 111.0 L 52.0 112.0 L 52.0 113.0 L 52.0 114.0 L 52.0 115.0 L 52.0 116.0 L 52.0 117.0 L 52.0 118.0 L 52.0 119.0 L 52.0 120.0 L 52.0 121.0 L 52.0 122.0 L 52.0 123.0 L 52.333333333333336 123.66666666666667 L 53.0 124.0 L 54.0 124.0 L 55.0 124.0 L 56.0 124.0 L 57.0 124.0 L 57.666666666666664 123.66666666666667 L 58.0 123.0 L 58.0 122.0 L 58.0 121.0 L 58.0 120.0 L 58.0 119.0 L 58.0 118.0 L 58.0 117.0 L 58.0 116.0 L 58.0 115.0 L 58.0 114.0 L 58.0 113.0 L 58.0 112.0 L 58.0 111.0 L 58.0 110.0 L 58.0 109.0 L 58.0 108.0 L 58.0 107.0 L 58.0 106.0 L 58.0 105.0 L 58.0 104.0 L 58.0 103.0 L 58.0 102.0 L 58.0 101.0 L 58.0 100.0 L 58.0 99.0 L 58.333333333333336 98.0 L 59.0 97.0 L 60.0 96.0 L 61.0 95.33333333333333 L 62.0 94.66666666666667 L 63.0 94.33333333333333 L 64.0 94.0 L 65.0 94.0 L 66.0 94.0 L 67.0 94.33333333333333 L 68.0 95.0 L 69.0 96.0 L 70.0 97.0 L 71.0 98.0 L 71.66666666666667 99.0 L 72.0 100.0 L 72.0 101.0 L 72.0 102.0 L 72.0 103.0 L 72.0 104.0 L 72.0 105.0 L 72.0 106.0 L 72.0 107.0 L 72.0 108.0 L 72.0 109.0 L 72.0 110.0 L 72.0 111.0 L 72.0 112.0 L 72.0 113.0 L 72.0 114.0 L 72.0 115.0 L 72.0 116.0 L 72.0 117.0 L 72.0 118.0 L 72.0 119.0 L 72.0 120.0 L 72.0 121.0 L 72.0 122.0 L 72.0 123.0 L 72.33333333333333 123.66666666666667 L 73.0 124.0 L 74.0 124.0 L 75.0 124.0 L 76.0 124.0 L 76.66666666666667 123.66666666666667 L 77.0 123.0 L 77.0 122.0 L 77.0 121.0 L 77.0 120.0 L 77.0 119.0 L 77.0 118.0 L 77.0 117.0 L 77.0 116.0 L 77.0 115.0 L 77.0 114.0 L 77.0 113.0 L 77.0 112.0 L 77.0 111.0 L 77.0 110.0 L 77.0 109.0 L 77.0 108.0 L 77.0 107.0 L 77.0 106.0 L 77.0 105.0 L 77.0 104.0 L 77.0 103.0 L 77.0 102.0 L 77.0 101.0 L 77.0 100.0 L 77.33333333333333 99.0 L 78.0 98.0 L 79.0 97.0 L 80.0 96.0 L 81.0 95.33333333333333 L 82.0 94.66666666666667 L 83.0 94.33333333333333 L 84.0 94.0 L 85.0 94.0 L 86.0 94.33333333333333 L 87.0 95.0 L 88.0 96.0 L 89.0 97.0 L 90.0 98.0 L 90.66666666666667 99.0 L 91.0 100.0 L 91.0 101.0 L 91.0 102.0 L 91.0 103.0 L 91.0 104.0 L 91.0 105.0 L 91.0 106.0 L 91.0 107.0 L 91.0 108.0 L 91.0 109.0 L 91.0 110.0 L 91.0 111.0 L 91.0 112.0 L 91.0 113.0 L 91.0 114.0 L 91.0 115.0 L 91.0 116.0 L 91.0 117.0 L 91.0 118.0 L 91.0 119.0 L 91.0 120.0 L 91.0 121.0 L 91.0 122.0 L 91.0 123.0 L 91.33333333333333 123.66666666666667 L 92.0 124.0 L 93.0 124.0 L 94.0 124.0 L 94.5 124.0 Z" stroke="none" fill="rgb(183,146,119)" />
<path d="M 113.5 124.0 L 114.0 124.0 L 115.0 124.0 L 115.66666666666667 123.66666666666667 L 116.0 123.0 L 116.0 122.0 L 116.0 121.0 L 116.0 120.0 L 116.0 119.0 L 116.0 118.0 L 116.0 117.0 L 116.0 116.0 L 116.0 115.0 L 116.0 114.0 L 116.0 113.0 L 116.0 112.0 L 116.0 111.0 L 116.0 110.0 L 116.0 109.0 L 116.0 108.0 L 116.0 107.0 L 116.0 106.0 L 116.0 105.0 L 116.0 104.0 L 116.0 103.0 L 116.0 102.0 L 116.0 101.0 L 116.0 100.0 L 116.0 99.0 L 116.0 98.0 L 116.0 97.0 L 116.33333333333333 96.0 L 116.66666666666667 95.0 L 117.0 94.0 L 117.0 93.0 L 117.0 92.0 L 117.0 91.0 L 117.0 90.0 L 117.0 89.0 L 117.0 88.0 L 117.0 87.0 L 117.0 86.0 L 117.0 85.0 L 117.0 84.0 L 117.0 83.0 L 117.0 82.0 L 117.0 81.0 L 117.0 80.0 L 117.0 79.0 L 117.0 78.0 L 117.0 77.0 L 117.0 76.0 L 117.0 75.0 L 117.0 74.0 L 117.0 73.0 L 117.0 72.0 L 117.0 71.0 L 117.0 70.0 L 117.0 69.0 L 117.0 68.0 L 117.0 67.0 L 117.0 66.0 L 117.0 65.0 L 117.0 64.0 L 117.0 63.0 L 117.0 62.0 L 117.0 61.0 L 117.0 60.0 L 117.0 59.0 L 117.0 58.0 L 116.66666666666667 57.333333333333336 L 116.0 57.0 L 115.0 57.0 L 114.0 57.0 L 113.0 57.0 L 112.33333333333333 57.333333333333336 L 112.0 58.0 L 112.0 59.0 L 112.0 60.0 L 112.0 61.0 L 112.0 62.0 L 112.0 63.0 L 112.0 64.0 L 112.0 65.0 L 112.0 66.0 L 112.0 67.0 L 112.0 68.0 L 112.0 69.0 L 112.0 70.0 L 112.0 71.0 L 112.0 72.0 L 112.0 73.0 L 112.0 74.0 L 112.0 75.0 L 112.0 76.0 L 112.0 77.0 L 112.0 78.0 L 112.0 79.0 L 112.0 80.0 L 111.66666666666667 81.0 L 111.33333333333333 82.0 L 111.0 83.0 L 111.0 84.0 L 111.0 85.0 L 111.0 86.0 L 111.0 87.0 L 111.0 88.0 L 111.0 89.0 L 111.0 90.0 L 111.0 91.0 L 111.0 92.0 L 111.0 93.0 L 111.0 94.0 L 111.0 95.0 L 111.0 96.0 L 111.0 97.0 L 111.0 98.0 L 111.0 99.0 L 111.0 100.0 L 111.0 101.0 L 111.0 102.0 L 111.0 103.0 L 111.0 104.0 L 111.0 105.0 L 111.0 106.0 L 111.0 107.0 L 111.0 108.0 L 111.0 109.0 L 111.0 110.0 L 111.0 111.0 L 111.0 112.0 L 111.0 113.0 L 111.0 114.0 L 111.0 115.0 L 111.0 116.0 L 111.0 117.0 L 111.0 118.0 L 111.0 119.0 L 111.0 120.0 L 111.0 121.0 L 111.0 122.0 L 111.0 123.0 L 111.33333333333333 123.66666666666667 L 112.0 124.0 L 112.5 124.0 Z" stroke="none" fill="rgb(135,91,82)" />
<path d="M 11.5 124.0 L 12.0 124.0 L 13.0 124.0 L 14.0 124.0 L 15.0 124.0 L 16.0 124.0 L 16.666666666666668 123.66666666666667 L 17.0 123.0 L 17.0 122.0 L 17.0 121.0 L 17.0 120.0 L 17.0 119.0 L 17.0 118.0 L 17.0 117.0 L 17.0 116.0 L 17.0 115.0 L 17.0 114.0 L 17.0 113.0 L 17.0 112.0 L 17.0 111.0 L 17.0 110.0 L 17.0 109.0 L 17.0 108.0 L 17.0 107.0 L 17.0 106.0 L 17.0 105.0 L 17.0 104.0 L 17.0 103.0 L 17.0 102.0 L 17.0 101.0 L 17.0 100.0 L 17.0 99.0 L 17.0 98.0 L 17.0 97.0 L 17.0 96.0 L 17.0 95.0 L 17.0 94.0 L 17.0 93.0 L 17.0 92.0 L 17.0 91.0 L 17.0 90.0 L 17.0 89.0 L 17.0 88.0 L 17.0 87.0 L 17.0 86.0 L 17.0 85.0 L 17.0 84.0 L 17.0 83.0 L 17.0 82.0 L 17.0 81.0 L 17.0 80.0 L 17.0 79.0 L 17.0 78.0 L 17.0 77.0 L 17.0 76.0 L 17.0 75.0 L 17.0 74.0 L 17.0 73.0 L 17.0 72.0 L 17.0 71.0 L 17.0 70.0 L 17.0 69.0 L 17.0 68.0 L 17.0 67.0 L 17.0 66.0 L 17.0 65.0 L 17.0 64.0 L 17.0 63.0 L 17.0 62.0 L 17.0 61.0 L 17.0 60.0 L 16.666666666666668 59.0 L 16.0 58.333333333333336 L 15.0 58.0 L 14.0 58.0 L 13.0 58.0 L 12.0 58.333333333333336 L 11.333333333333334 59.0 L 11.0 60.0 L 11.0 61.0 L 11.0 62.0 L 11.0 63.0 L 11.0 64.0 L 11.0 65.0 L 11.0 66.0 L 11.0 67.0 L 11.0 68.0 L 11.0 69.0 L 11.0 70.0 L 11.0 71.0 L 11.0 72.0 L 11.0 73.0 L 11.0 74.0 L 11.0 75.0 L 11.0 76.0 L 11.0 77.0 L 11.0 78.0 L 11.0 79.0 L 11.0 80.0 L 11.0 81.0 L 11.0 82.0 L 11.0 83.0 L 11.0 84.0 L 11.0 85.0 L 11.0 86.0 L 11.0 87.0 L 11.0 88.0 L 11.0 89.0 L 11.0 90.0 L 11.0 91.0 L 11.0 92.0 L 11.0 93.0 L 11.0 94.0 L 11.0 95.0 L 11.0 96.0 L 11.0 97.0 L 11.0 98.0 L 11.0 99.0 L 11.0 100.0 L 11.0 101.0 L 11.0 102.0 L 11.0 103.0 L 11.0 104.0 L 11.0 105.0 L 11.0 106.0 L 11.0 107.0 L 11.0 108.0 L 11.0 109.0 L 11.0 110.0 L 11.0 111.0 L 11.0 112.0 L 11.0 113.0 L 11.0 114.0 L 11.0 115.0 L 11.0 116.0 L 11.0 117.0 L 11.0 118.0 L 11.0 119.0 L 11.0 120.0 L 11.0 121.0 L 11.0 122.0 L 11.0 123.0 L 11.0 123.5 Z" stroke="none" fill="rgb(135,91,82)" />
<path d="M 103.5 93.0 L 104.0 93.0 L 105.0 93.0 L 106.0 93.0 L 106.66666666666667 92.66666666666667 L 107.0 92.0 L 107.0 91.0 L 107.0 90.0 L 107.0 89.0 L 107.0 88.0 L 107.0 87.0 L 107.0 86.0 L 107.0 85.0 L 107.0 84.0 L 107.0 83.0 L 107.0 82.0 L 107.0 81.0 L 107.0 80.0 L 107.0 79.0 L 107.0 78.0 L 107.0 77.0 L 107.0 76.0 L 107.0 75.0 L 107.0 74.0 L 107.0 73.0 L 107.0 72.0 L 107.0 71.0 L 107.0 70.0 L 107.0 69.0 L 107.0 68.0 L 107.0 67.0 L 107.0 66.0 L 107.0 65.0 L 107.0 64.0 L 107.0 63.0 L 107.0 62.0 L 106.66666666666667 61.333333333333336 L 106.0 61.0 L 105.0 61.0 L 104.0 61.0 L 103.0 61.0 L 102.0 61.0 L 101.0 61.0 L 100.0 61.0 L 99.0 61.0 L 98.0 61.0 L 97.0 61.0 L 96.0 61.0 L 95.33333333333333 61.333333333333336 L 95.0 62.0 L 95.0 63.0 L 95.0 64.0 L 95.0 65.0 L 95.0 66.0 L 95.0 67.0 L 95.0 68.0 L 95.0 69.0 L 95.0 70.0 L 95.0 71.0 L 95.0 72.0 L 95.0 73.0 L 95.0 74.0 L 95.0 75.0 L 95.0 76.0 L 95.0 77.0 L 95.0 78.0 L 95.0 79.0 L 95.0 80.0 L 95.0 81.0 L 95.0 82.0 L 95.0 83.0 L 95.0 84.0 L 95.0 85.0 L 95.0 86.0 L 95.0 87.0 L 95.0 88.0 L 95.0 89.0 L 95.0 90.0 L 95.0 91.0 L 95.0 92.0 L 95.33333333333333 92.66666666666667 L 96.0 93.0 L 97.0 93.0 L 98.0 93.0 L 99.0 93.0 L 100.0 93.0 L 101.0 93.0 L 102.0 93.0 L 102.5 93.0 Z" stroke="none" fill="rgb(228,197,176)" />
<path d="M 59.5 70.5 L 60.0 71.0 L 60.666666666666664 72.0 L 61.333333333333336 73.0 L 62.0 73.66666666666667 L 63.0 74.0 L 64.0 74.0 L 65.0 74.0 L 66.0 74.0 L 67.0 74.0 L 67.66666666666667 73.66666666666667 L 68.33333333333333 73.0 L 68.66666666666667 72.0 L 69.33333333333333 71.0 L 69.66666666666667 70.0 L 70.0 69.0 L 70.0 68.0 L 70.0 67.0 L 70.0 66.0 L 69.66666666666667 65.0 L 69.0 64.0 L 68.0 63.0 L 67.0 62.333333333333336 L 66.0 62.0 L 65.0 62.0 L 64.0 62.0 L 63.0 62.0 L 62.0 62.0 L 61.0 62.333333333333336 L 60.333333333333336 63.0 L 59.666666666666664 64.0 L 59.333333333333336 65.0 L 59.0 66.0 L 59.0 67.0 L 59.0 68.0 L 59.0 69.0 L 59.0 69.5 Z" stroke="none" fill="rgb(80,70,68)" />
<path d="M 24.5 95.0 L 25.0 95.0 L 26.0 95.0 L 27.0 95.0 L 28.0 95.0 L 29.0 95.0 L 30.0 95.0 L 31.0 95.0 L 32.0 95.0 L 32.666666666666664 94.66666666666667 L 33.0 94.0 L 33.0 93.0 L 33.0 92.0 L 33.0 91.0 L 33.0 90.0 L 33.0 89.0 L 33.0 88.0 L 33.0 87.0 L 33.0 86.0 L 33.0 85.0 L 33.0 84.0 L 33.0 83.0 L 33.0 82.0 L 33.0 81.0 L 33.0 80.0 L 33.0 79.0 L 33.0 78.0 L 33.0 77.0 L 33.0 76.0 L 33.0 75.0 L 33.0 74.0 L 33.0 73.0 L 33.0 72.0 L 33.0 71.0 L 33.0 70.0 L 33.0 69.0 L 33.0 68.0 L 33.0 67.0 L 33.0 66.0 L 33.0 65.0 L 33.0 64.0 L 32.666666666666664 63.333333333333336 L 32.0 63.0 L 31.0 63.0 L 30.0 63.0 L 29.0 63.0 L 28.0 63.0 L 27.0 63.0 L 26.0 63.0 L 25.0 63.0 L 24.0 63.0 L 23.0 63.0 L 22.0 63.0 L 21.0 63.0 L 20.333333333333332 63.333333333333336 L 20.0 64.0 L 20.0 65.0 L 20.0 66.0 L 20.0 67.0 L 20.0 68.0 L 20.0 69.0 L 20.0 70.0 L 20.0 71.0 L 20.0 72.0 L 20.0 73.0 L 20.0 74.0 L 20.0 75.0 L 20.0 76.0 L 20.0 77.0 L 20.0 78.0 L 20.0 79.0 L 20.0 80.0 L 20.0 81.0 L 20.0 82.0 L 20.0 83.0 L 20.0 84.0 L 20.0 85.0 L 20.0 86.0 L 20.0 87.0 L 20.0 88.0 L 20.0 89.0 L 20.0 90.0 L 20.0 91.0 L 20.0 92.0 L 20.0 93.0 L 20.0 94.0 L 20.333333333333332 94.66666666666667 L 21.0 95.0 L 22.0 95.0 L 23.0 95.0 L 23.5 95.0 Z" stroke="none" fill="rgb(228,197,176)" />
<path d="M 103.0 83.5 L 103.0 83.0 L 103.0 82.0 L 103.0 81.0 L 103.0 80.0 L 103.0 79.0 L 103.0 78.0 L 103.0 77.0 L 103.0 76.0 L 103.0 75.0 L 103.0 74.0 L 103.0 73.0 L 103.0 72.0 L 103.0 71.0 L 103.0 70.0 L 102.66666666666667 69.33333333333333 L 102.0 69.0 L 101.0 69.0 L 100.0 69.0 L 99.33333333333333 69.33333333333333 L 99.0 70.0 L 99.0 71.0 L 99.0 72.0 L 99.0 73.0 L 99.0 74.0 L 99.0 75.0 L 99.0 76.0 L 99.0 77.0 L 99.0 78.0 L 99.0 79.0 L 99.0 80.0 L 99.0 81.0 L 99.0 82.0 L 99.0 83.0 L 99.33333333333333 83.66666666666667 L 100.0 84.0 L 101.0 84.0 L 102.0 84.0 L 102.5 84.0 Z" stroke="none" fill="rgb(105,118,156)" />
<path d="M 27.5 86.0 L 28.0 86.0 L 28.666666666666668 85.66666666666667 L 29.0 85.0 L 29.0 84.0 L 29.0 83.0 L 29.0 82.0 L 29.0 81.0 L 29.0 80.0 L 29.0 79.0 L 29.0 78.0 L 29.0 77.0 L 29.0 76.0 L 29.0 75.0 L 29.0 74.0 L 29.0 73.0 L 29.0 72.0 L 28.666666666666668 71.33333333333333 L 28.0 71.0 L 27.0 71.0 L 26.0 71.0 L 25.333333333333332 71.33333333333333 L 25.0 72.0 L 25.0 73.0 L 25.0 74.0 L 25.0 75.0 L 25.0 76.0 L 25.0 77.0 L 25.0 78.0 L 25.0 79.0 L 25.0 80.0 L 25.0 81.0 L 25.0 82.0 L 25.0 83.0 L 25.0 84.0 L 25.0 85.0 L 25.333333333333332 85.66666666666667 L 26.0 86.0 L 26.5 86.0 Z" stroke="none" fill="rgb(105,118,156)" />
<path d="M 60.5 124.0 L 61.0 124.0 L 62.0 124.0 L 63.0 124.0 L 64.0 124.0 L 65.0 124.0 L 66.0 124.0 L 67.0 124.0 L 68.0 124.0 L 69.0 124.0 L 70.0 124.0 L 71.0 124.0 L 71.66666666666667 123.66666666666667 L 72.0 123.0 L 72.0 122.0 L 72.0 121.0 L 72.0 120.0 L 72.0 119.0 L 72.0 118.0 L 72.0 117.0 L 72.0 116.0 L 72.0 115.0 L 72.0 114.0 L 72.0 113.0 L 72.0 112.0 L 72.0 111.0 L 72.0 110.0 L 72.0 109.0 L 72.0 108.0 L 72.0 107.0 L 72.0 106.0 L 72.0 105.0 L 72.0 104.0 L 72.0 103.0 L 72.0 102.0 L 72.0 101.0 L 72.0 100.0 L 72.0 99.0 L 71.66666666666667 98.0 L 71.0 97.0 L 70.0 96.0 L 69.0 95.0 L 68.0 94.33333333333333 L 67.0 94.0 L 66.0 94.0 L 65.0 94.0 L 64.0 94.0 L 63.0 94.0 L 62.0 94.33333333333333 L 61.0 94.66666666666667 L 60.0 95.33333333333333 L 59.0 96.0 L 58.333333333333336 97.0 L 58.0 98.0 L 58.0 99.0 L 58.0 100.0 L 58.0 101.0 L 58.0 102.0 L 58.0 103.0 L 58.0 104.0 L 58.0 105.0 L 58.0 106.0 L 58.0 107.0 L 58.0 108.0 L 58.0 109.0 L 58.0 110.0 L 58.0 111.0 L 58.0 112.0 L 58.0 113.0 L 58.0 114.0 L 58.0 115.0 L 58.0 116.0 L 58.0 117.0 L 58.0 118.0 L 58.0 119.0 L 58.0 120.0 L 58.0 121.0 L 58.0 122.0 L 58.0 123.0 L 58.333333333333336 123.66666666666667 L 59.0 124.0 L 59.5 124.0 Z" stroke="none" fill="rgb(134,92,80)" />
<path d="M 81.5 124.0 L 82.0 124.0 L 83.0 124.0 L 84.0 124.0 L 85.0 124.0 L 86.0 124.0 L 87.0 124.0 L 88.0 124.0 L 89.0 124.0 L 90.0 124.0 L 90.66666666666667 123.66666666666667 L 91.0 123.0 L 91.0 122.0 L 91.0 121.0 L 91.0 120.0 L 91.0 119.0 L 91.0 118.0 L 91.0 117.0 L 91.0 116.0 L 91.0 115.0 L 91.0 114.0 L 91.0 113.0 L 91.0 112.0 L 91.0 111.0 L 91.0 110.0 L 91.0 109.0 L 91.0 108.0 L 91.0 107.0 L 91.0 106.0 L 91.0 105.0 L 91.0 104.0 L 91.0 103.0 L 91.0 102.0 L 91.0 101.0 L 91.0 100.0 L 91.0 99.0 L 90.66666666666667 98.0 L 90.0 97.0 L 89.0 96.0 L 88.0 95.0 L 87.0 94.33333333333333 L 86.0 94.0 L 85.0 94.0 L 84.0 94.0 L 83.0 94.0 L 82.0 94.33333333333333 L 81.0 94.66666666666667 L 80.0 95.33333333333333 L 79.0 96.0 L 78.0 97.0 L 77.33333333333333 98.0 L 77.0 99.0 L 77.0 100.0 L 77.0 101.0 L 77.0 102.0 L 77.0 103.0 L 77.0 104.0 L 77.0 105.0 L 77.0 106.0 L 77.0 107.0 L 77.0 108.0 L 77.0 109.0 L 77.0 110.0 L 77.0 111.0 L 77.0 112.0 L 77.0 113.0 L 77.0 114.0 L 77.0 115.0 L 77.0 116.0 L 77.0 117.0 L 77.0 118.0 L 77.0 119.0 L 77.0 120.0 L 77.0 121.0 L 77.0 122.0 L 77.0 123.0 L 77.33333333333333 123.66666666666667 L 78.0 124.0 L 79.0 124.0 L 80.0 124.0 L 80.5 124.0 Z" stroke="none" fill="rgb(134,92,80)" />
<path d="M 39.5 124.0 L 40.0 124.0 L 41.0 124.0 L 42.0 124.0 L 43.0 124.0 L 44.0 124.0 L 45.0 124.0 L 46.0 124.0 L 47.0 124.0 L 48.0 124.0 L 49.0 124.0 L 50.0 124.0 L 51.0 124.0 L 51.666666666666664 123.66666666666667 L 52.0 123.0 L 52.0 122.0 L 52.0 121.0 L 52.0 120.0 L 52.0 119.0 L 52.0 118.0 L 52.0 117.0 L 52.0 116.0 L 52.0 115.0 L 52.0 114.0 L 52.0 113.0 L 52.0 112.0 L 52.0 111.0 L 52.0 110.0 L 52.0 109.0 L 52.0 108.0 L 52.0 107.0 L 52.0 106.0 L 52.0 105.0 L 52.0 104.0 L 52.0 103.0 L 52.0 102.0 L 52.0 101.0 L 52.0 100.0 L 52.0 99.0 L 52.0 98.0 L 51.666666666666664 97.0 L 51.0 96.0 L 50.0 95.33333333333333 L 49.0 95.0 L 48.0 95.0 L 47.0 95.0 L 46.0 95.0 L 45.0 95.0 L 44.0 95.0 L 43.0 95.0 L 42.0 95.33333333333333 L 41.0 95.66666666666667 L 40.0 96.33333333333333 L 39.333333333333336 97.0 L 39.0 98.0 L 38.666666666666664 99.0 L 38.333333333333336 100.0 L 38.0 101.0 L 38.0 102.0 L 38.0 103.0 L 38.0 104.0 L 38.0 105.0 L 38.0 106.0 L 38.0 107.0 L 38.0 108.0 L 38.0 109.0 L 38.0 110.0 L 38.0 111.0 L 38.0 112.0 L 38.0 113.0 L 38.0 114.0 L 38.0 115.0 L 38.0 116.0 L 38.0 117.0 L 38.0 118.0 L 38.0 119.0 L 38.0 120.0 L 38.0 121.0 L 38.0 122.0 L 38.0 123.0 L 38.333333333333336 123.66666666666667 L 38.5 124.0 Z" stroke="none" fill="rgb(134,92,80)" />
</svg>
