<?xml version="1.0" encoding="UTF-8" standalone="no"?>
<!DOCTYPE svg PUBLIC "-//W3C//DTD SVG 1.1//EN"
"http://www.w3.org/Graphics/SVG/1.1/DTD/svg11.dtd">
<svg width="128" height="128" xmlns="http://www.w3.org/2000/svg" version="1.1">
<path d="M 88.5 128.0 L 89.0 128.0 L 90.0 128.0 L 91.0 128.0 L 92.0 128.0 L 93.0 128.0 L 94.0 128.0 L 95.0 128.0 L 96.0 128.0 L 97.0 128.0 L 98.0 128.0 L 99.0 128.0 L 100.0 128.0 L 101.0 128.0 L 102.0 128.0 L 103.0 128.0 L 104.0 128.0 L 105.0 128.0 L 106.0 128.0 L 107.0 128.0 L 108.0 128.0 L 109.0 128.0 L 110.0 128.0 L 111.0 128.0 L 112.0 128.0 L 113.0 128.0 L 114.0 128.0 L 115.0 128.0 L 116.0 128.0 L 117.0 128.0 L 118.0 128.0 L 119.0 128.0 L 120.0 128.0 L 121.0 128.0 L 122.0 128.0 L 123.0 128.0 L 124.0 128.0 L 125.0 128.0 L 126.0 128.0 L 127.0 128.0 L 127.66666666666667 127.66666666666667 L 128.0 127.0 L 128.0 126.0 L 128.0 125.0 L 128.0 124.0 L 128.0 123.0 L 128.0 122.0 L 128.0 121.0 L 128.0 120.0 L 128.0 119.0 L 128.0 118.0 L 128.0 117.0 L 128.0 116.0 L 128.0 115.0 L 128.0 114.0 L 128.0 113.0 L 128.0 112.0 L 128.0 111.0 L 128.0 110.0 L 128.0 109.0 L 128.0 108.0 L 128.0 107.0 L 128.0 106.0 L 128.0 105.0 L 128.0 104.0 L 128.0 103.0 L 128.0 102.0 L 128.0 101.0 L 128.0 100.0 L 128.0 99.0 L 128.0 98.0 L 128.0 97.0 L 128.0 96.0 L 128.0 95.0 L 128.0 94.0 L 128.0 93.0 L 128.0 92.0 L 128.0 91.0 L 128.0 90.0 L 128.0 89.0 L 128.0 88.0 L 128.0 87.0 L 128.0 86.0 L 128.0 85.0 L 128.0 84.0 L 128.0 83.0 L 128.0 82.0 L 128.0 81.0 L 128.0 80.0 L 128.0 79.0 L 128.0 78.0 L 128.0 77.0 L 128.0 76.0 L 128.0 75.0 L 128.0 74.0 L 128.0 73.0 L 128.0 72.0 L 128.0 71.0 L 128.0 70.0 L 128.0 69.0 L 128.0 68.0 L 128.0 67.0 L 128.0 66.0 L 128.0 65.0 L 128.0 64.0 L 128.0 63.0 L 128.0 62.0 L 128.0 61.0 L 128.0 60.0 L 128.0 59.0 L 128.0 58.0 L 128.0 57.0 L 128.0 56.0 L 128.0 55.0 L 128.0 54.0 L 128.0 53.0 L 128.0 52.0 L 128.0 51.0 L 128.0 50.0 L 128.0 49.0 L 128.0 48.0 L 128.0 47.0 L 128.0 46.0 L 128.0 45.0 L 128.0 44.0 L 128.0 43.0 L 128.0 42.0 L 128.0 41.0 L 128.0 40.0 L 128.0 39.0 L 128.0 38.0 L 128.0 37.0 L 128.0 36.0 L 128.0 35.0 L 128.0 34.0 L 128.0 33.0 L 128.0 32.0 L 128.0 31.0 L 128.0 30.0 L 128.0 29.0 L 128.0 28.0 L 128.0 27.0 L 128.0 26.0 L 128.0 25.0 L 128.0 24.0 L 128.0 23.0 L 128.0 22.0 L 128.0 21.0 L 128.0 20.0 L 128.0 19.0 L 128.0 18.0 L 128.0 17.0 L 128.0 16.0 L 128.0 15.0 L 128.0 14.0 L 128.0 13.0 L 128.0 12.0 L 128.0 11.0 L 128.0 10.0 L 128.0 9.0 L 128.0 8.0 L 128.0 7.0 L 128.0 6.0 L 128.0 5.0 L 128.0 4.0 L 128.0 3.0 L 128.0 2.0 L 128.0 1.0 L 127.66666666666667 0.3333333333333333 L 127.0 0.0 L 126.0 0.0 L 125.0 0.0 L 124.0 0.0 L 123.0 0.0 L 122.0 0.0 L 121.0 0.0 L 120.0 0.0 L 119.0 0.0 L 118.0 0.0 L 117.0 0.0 L 116.0 0.0 L 115.0 0.0 L 114.0 0.0 L 113.0 0.0 L 112.0 0.0 L 111.0 0.0 L 110.0 0.0 L 109.0 0.0 L 108.0 0.0 L 107.0 0.0 L 106.0 0.0 L 105.0 0.0 L 104.0 0.0 L 103.0 0.0 L 102.0 0.0 L 101.0 0.0 L 100.0 0.0 L 99.0 0.0 L 98.0 0.0 L 97.0 0.0 L 96.0 0.0 L 95.0 0.0 L 94.0 0.0 L 93.0 0.0 L 92.0 0.0 L 91.0 0.0 L 90.0 0.0 L 89.0 0.0 L 88.0 0.0 L 87.0 0.0 L 86.0 0.0 L 85.0 0.0 L 84.0 0.0 L 83.0 0.0 L 82.0 0.0 L 81.0 0.0 L 80.0 0.0 L 79.0 0.0 L 78.0 0.0 L 77.0 0.0 L 76.0 0.0 L 75.0 0.0 L 74.0 0.0 L 73.0 0.0 L 72.0 0.0 L 71.0 0.0 L 70.0 0.0 L 69.0 0.0 L 68.0 0.0 L 67.0 0.0 L 66.0 0.0 L 65.0 0.0 L 64.0 0.0 L 63.0 0.0 L 62.0 0.0 L 61.0 0.0 L 60.0 0.0 L 59.0 0.0 L 58.0 0.0 L 57.0 0.0 L 56.0 0.0 L 55.0 0.0 L 54.0 0.0 L 53.0 0.0 L 52.0 0.0 L 51.0 0.0 L 50.0 0.0 L 49.0 0.0 L 48.0 0.0 L 47.0 0.0 L 46.0 0.0 L 45.0 0.0 L 44.0 0.0 L 43.0 0.0 L 42.0 0.0 L 41.0 0.0 L 40.0 0.0 L 39.0 0.0 L 38.0 0.0 L 37.0 0.0 L 36.0 0.0 L 35.0 0.0 L 34.0 0.0 L 33.0 0.0 L 32.0 0.0 L 31.0 0.0 L 30.0 0.0 L 29.0 0.0 L 28.0 0.0 L 27.0 0.0 L 26.0 0.0 L 25.0 0.0 L 24.0 0.0 L 23.0 0.0 L 22.0 0.0 L 21.0 0.0 L 20.0 0.0 L 19.0 0.0 L 18.0 0.0 L 17.0 0.0 L 16.0 0.0 L 15.0 0.0 L 14.0 0.0 L 13.0 0.0 L 12.0 0.0 L 11.0 0.0 L 10.0 0.0 L 9.0 0.0 L 8.0 0.0 L 7.0 0.0 L 6.0 0.0 L 5.0 0.0 L 4.0 0.0 L 3.0 0.0 L 2.0 0.0 L 1.0 0.0 L 0.3333333333333333 0.3333333333333333 L 0.0 1.0 L 0.0 2.0 L 0.0 3.0 L 0.0 4.0 L 0.0 5.0 L 0.0 6.0 L 0.0 7.0 L 0.0 8.0 L 0.0 9.0 L 0.0 10.0 L 0.0 11.0 L 0.0 12.0 L 0.0 13.0 L 0.0 14.0 L 0.0 15.0 L 0.0 16.0 L 0.0 17.0 L 0.0 18.0 L 0.0 19.0 L 0.0 20.0 L 0.0 21.0 L 0.0 22.0 L 0.0 23.0 L 0.0 24.0 L 0.0 25.0 L 0.0 26.0 L 0.0 27.0 L 0.0 28.0 L 0.0 29.0 L 0.0 30.0 L 0.0 31.0 L 0.0 32.0 L 0.0 33.0 L 0.0 34.0 L 0.0 35.0 L 0.0 36.0 L 0.0 37.0 L 0.0 38.0 L 0.0 39.0 L 0.0 40.0 L 0.0 41.0 L 0.0 42.0 L 0.0 43.0 L 0.0 44.0 L 0.0 45.0 L 0.0 46.0 L 0.0 47.0 L 0.0 48.0 L 0.0 49.0 L 0.0 50.0 L 0.0 51.0 L 0.0 52.0 L 0.0 53.0 L 0.0 54.0 L 0.0 55.0 L 0.0 56.0 L 0.0 57.0 L 0.0 58.0 L 0.0 59.0 L 0.0 60.0 L 0.0 61.0 L 0.0 62.0 L 0.0 63.0 L 0.0 64.0 L 0.0 65.0 L 0.0 66.0 L 0.0 67.0 L 0.0 68.0 L 0.0 69.0 L 0.0 70.0 L 0.0 71.0 L 0.0 72.0 L 0.0 73.0 L 0.0 74.0 L 0.0 75.0 L 0.0 76.0 L 0.0 77.0 L 0.0 78.0 L 0.0 79.0 L 0.0 80.0 L 0.0 81.0 L 0.0 82.0 L 0.0 83.0 L 0.0 84.0 L 0.0 85.0 L 0.0 86.0 L 0.0 87.0 L 0.0 88.0 L 0.0 89.0 L 0.0 90.0 L 0.0 91.0 L 0.0 92.0 L 0.0 93.0 L 0.0 94.0 L 0.0 95.0 L 0.0 96.0 L 0.0 97.0 L 0.0 98.0 L 0.0 99.0 L 0.0 100.0 L 0.0 101.0 L 0.0 102.0 L 0.0 103.0 L 0.0 104.0 L 0.0 105.0 L 0.0 106.0 L 0.0 107.0 L 0.0 108.0 L 0.0 109.0 L 0.0 110.0 L 0.0 111.0 L 0.0 112.0 L 0.0 113.0 L 0.0 114.0 L 0.0 115.0 L 0.0 116.0 L 0.0 117.0 L 0.0 118.0 L 0.0 119.0 L 0.0 120.0 L 0.0 121.0 L 0.0 122.0 L 0.0 123.0 L 0.0 124.0 L 0.0 125.0 L 0.0 126.0 L 0.0 127.0 L 0.3333333333333333 127.66666666666667 L 1.0 128.0 L 2.0 128.0 L 3.0 128.0 L 4.0 128.0 L 5.0 128.0 L 6.0 128.0 L 7.0 128.0 L 8.0 128.0 L 9.0 128.0 L 10.0 128.0 L 11.0 128.0 L 12.0 128.0 L 13.0 128.0 L 14.0 128.0 L 15.0 128.0 L 16.0 128.0 L 17.0 128.0 L 18.0 128.0 L 19.0 128.0 L 20.0 128.0 L 21.0 128.0 L 22.0 128.0 L 23.0 128.0 L 24.0 128.0 L 25.0 128.0 L 26.0 128.0 L 27.0 128.0 L 28.0 128.0 L 29.0 128.0 L 30.0 128.0 L 31.0 128.0 L 32.0 128.0 L 33.0 128.0 L 34.0 128.0 L 35.0 128.0 L 36.0 128.0 L 37.0 128.0 L 38.0 128.0 L 39.0 128.0 L 40.0 128.0 L 41.0 128.0 L 42.0 128.0 L 43.0 128.0 L 44.0 128.0 L 45.0 128.0 L 46.0 128.0 L 47.0 128.0 L 48.0 128.0 L 49.0 128.0 L 50.0 128.0 L 51.0 128.0 L 52.0 128.0 L 53.0 128.0 L 54.0 128.0 L 55.0 128.0 L 56.0 128.0 L 57.0 128.0 L 58.0 128.0 L 59.0 128.0 L 60.0 128.0 L 61.0 128.0 L 62.0 128.0 L 63.0 128.0 L 64.0 128.0 L 65.0 128.0 L 66.0 128.0 L 67.0 128.0 L 68.0 128.0 L 69.0 128.0 L 70.0 128.0 L 71.0 128.0 L 72.0 128.0 L 73.0 128.0 L 74.0 128.0 L 75.0 128.0 L 76.0 128.0 L 77.0 128.0 L 78.0 128.0 L 79.0 128.0 L 80.0 128.0 L 81.0 128.0 L 82.0 128.0 L 83.0 128.0 L 84.0 128.0 L 85.0 128.0 L 86.0 128.0 L 87.0 128.0 L 87.5 128.0 Z" stroke="none" fill="rgb(0,0,0)" />
<path d="M 64.5 16.0 L 65.0 15.666666666666666 L 65.66666666666667 15.0 L 66.0 14.0 L 66.0 13.0 L 66.0 12.0 L 66.0 11.0 L 65.66666666666667 10.0 L 65.33333333333333 9.0 L 64.66666666666667 8.0 L 64.0 7.0 L 63.0 6.0 L 62.0 5.333333333333333 L 61.0 5.0 L 60.0 4.666666666666667 L 59.0 4.333333333333333 L 58.0 4.0 L 57.333333333333336 4.333333333333333 L 57.0 5.0 L 57.0 6.0 L 56.666666666666664 7.0 L 56.333333333333336 8.0 L 55.666666666666664 9.0 L 55.0 10.0 L 54.0 11.0 L 53.0 12.0 L 52.0 12.666666666666666 L 51.0 12.666666666666666 L 50.333333333333336 12.0 L 50.0 11.0 L 50.333333333333336 10.0 L 51.0 9.0 L 52.0 8.0 L 52.666666666666664 7.0 L 52.666666666666664 6.0 L 52.0 5.333333333333333 L 51.0 5.0 L 50.0 5.333333333333333 L 49.0 6.0 L 48.0 7.0 L 47.333333333333336 8.0 L 47.0 9.0 L 47.0 10.0 L 46.666666666666664 11.0 L 46.333333333333336 12.0 L 46.0 13.0 L 46.0 14.0 L 46.333333333333336 14.666666666666666 L 47.0 15.0 L 48.0 15.0 L 49.0 15.0 L 50.0 15.333333333333334 L 51.0 15.666666666666666 L 52.0 16.0 L 53.0 16.0 L 54.0 16.0 L 55.0 16.0 L 56.0 16.0 L 57.0 16.0 L 58.0 16.0 L 59.0 16.0 L 60.0 16.0 L 61.0 16.0 L 62.0 16.0 L 63.0 16.0 L 63.5 16.0 Z" stroke="none" fill="rgb(219,12,41)" />
<path d="M 54.0 8.5 L 54.0 8.0 L 53.666666666666664 7.333333333333333 L 53.0 7.0 L 52.0 7.333333333333333 L 51.0 8.0 L 50.333333333333336 9.0 L 50.0 10.0 L 50.333333333333336 10.666666666666666 L 51.0 11.0 L 52.0 10.666666666666666 L 53.0 10.0 L 53.5 9.5 Z" stroke="none" fill="rgb(255,255,255)" />
<path d="M 54.5 11.5 L 55.0 11.0 L 55.666666666666664 10.0 L 56.0 9.0 L 55.666666666666664 8.333333333333334 L 55.0 8.0 L 54.0 8.333333333333334 L 53.0 9.0 L 52.0 10.0 L 51.0 10.666666666666666 L 50.333333333333336 11.333333333333334 L 50.0 12.0 L 50.333333333333336 12.666666666666666 L 51.0 13.0 L 52.0 13.0 L 53.0 12.666666666666666 L 53.5 12.5 Z" stroke="none" fill="rgb(255,76,50)" />
<path d="M 21.5 104.0 L 22.0 104.0 L 23.0 104.0 L 24.0 104.0 L 25.0 104.0 L 26.0 104.0 L 27.0 104.0 L 28.0 104.0 L 29.0 104.0 L 30.0 104.0 L 31.0 104.0 L 32.0 104.0 L 33.0 104.0 L 34.0 104.0 L 35.0 104.0 L 36.0 104.0 L 37.0 104.0 L 38.0 104.0 L 39.0 104.0 L 40.0 104.0 L 41.0 104.0 L 42.0 104.0 L 43.0 104.0 L 44.0 104.0 L 45.0 104.0 L 46.0 104.0 L 47.0 104.0 L 48.0 104.0 L 49.0 104.0 L 50.0 104.0 L 51.0 104.0 L 52.0 104.0 L 53.0 104.0 L 54.0 104.0 L 55.0 104.0 L 56.0 104.0 L 57.0 104.0 L 58.0 104.0 L 59.0 104.0 L 60.0 104.0 L 61.0 104.0 L 62.0 104.0 L 63.0 104.0 L 64.0 104.0 L 65.0 104.0 L 66.0 104.0 L 67.0 104.0 L 68.0 104.0 L 69.0 104.0 L 70.0 104.0 L 71.0 104.0 L 72.0 104.0 L 73.0 104.0 L 74.0 104.0 L 75.0 104.0 L 76.0 104.0 L 77.0 104.0 L 78.0 104.0 L 79.0 104.0 L 80.0 104.0 L 81.0 104.0 L 82.0 104.0 L 83.0 104.0 L 84.0 104.0 L 85.0 104.0 L 86.0 104.0 L 87.0 104.0 L 88.0 104.0 L 89.0 104.0 L 90.0 104.0 L 91.0 104.0 L 92.0 104.0 L 93.0 104.0 L 94.0 104.0 L 95.0 104.0 L 96.0 104.0 L 97.0 104.0 L 98.0 104.0 L 99.0 104.0 L 100.0 104.0 L 101.0 104.0 L 102.0 104.0 L 103.0 104.0 L 104.0 104.0 L 105.0 104.0 L 106.0 104.0 L 107.0 104.0 L 108.0 104.0 L 109.0 104.0 L 109.66666666666667 103.66666666666667 L 110.0 103.0 L 110.0 102.0 L 109.66666666666667 101.0 L 109.33333333333333 100.0 L 108.66666666666667 99.0 L 108.33333333333333 98.0 L 108.0 97.0 L 108.0 96.0 L 108.0 95.0 L 108.0 94.0 L 108.0 93.0 L 108.0 92.0 L 108.0 91.0 L 108.0 90.0 L 108.0 89.0 L 108.0 88.0 L 108.0 87.0 L 108.0 86.0 L 108.0 85.0 L 108.0 84.0 L 108.0 83.0 L 108.0 82.0 L 108.0 81.0 L 108.0 80.0 L 108.0 79.0 L 108.0 78.0 L 108.0 77.0 L 108.0 76.0 L 108.0 75.0 L 108.0 74.0 L 108.33333333333333 73.0 L 108.66666666666667 72.0 L 109.0 71.0 L 109.0 70.0 L 109.0 69.0 L 109.0 68.0 L 109.0 67.0 L 109.0 66.0 L 108.66666666666667 65.0 L 108.33333333333333 64.0 L 108.0 63.0 L 108.0 62.0 L 108.0 61.0 L 108.0 60.0 L 108.0 59.0 L 108.0 58.0 L 108.0 57.0 L 108.0 56.0 L 108.0 55.0 L 108.0 54.0 L 108.0 53.0 L 108.0 52.0 L 108.0 51.0 L 108.0 50.0 L 107.66666666666667 49.0 L 107.33333333333333 48.0 L 107.0 47.0 L 107.0 46.0 L 106.66666666666667 45.0 L 106.33333333333333 44.0 L 105.66666666666667 43.0 L 105.33333333333333 42.0 L 104.66666666666667 41.0 L 104.33333333333333 40.0 L 103.66666666666667 39.0 L 103.33333333333333 38.0 L 102.66666666666667 37.0 L 102.0 36.0 L 101.33333333333333 35.0 L 100.66666666666667 34.0 L 100.0 33.0 L 99.0 32.0 L 98.0 31.0 L 97.0 30.0 L 96.0 29.0 L 95.0 28.0 L 94.0 27.0 L 93.0 26.0 L 92.0 25.0 L 91.0 24.333333333333332 L 90.0 23.666666666666668 L 89.0 23.0 L 88.0 22.333333333333332 L 87.0 21.666666666666668 L 86.0 21.333333333333332 L 85.0 20.666666666666668 L 84.0 20.333333333333332 L 83.0 19.666666666666668 L 82.0 19.333333333333332 L 81.0 18.666666666666668 L 80.0 18.333333333333332 L 79.0 18.0 L 78.0 17.666666666666668 L 77.0 17.333333333333332 L 76.0 17.0 L 75.0 16.666666666666668 L 74.0 16.333333333333332 L 73.0 16.0 L 72.0 16.0 L 71.0 15.666666666666666 L 70.0 15.333333333333334 L 69.0 15.0 L 68.0 15.0 L 67.0 15.0 L 66.0 15.0 L 65.0 15.333333333333334 L 64.0 15.666666666666666 L 63.0 16.0 L 62.0 16.0 L 61.0 16.0 L 60.0 16.0 L 59.0 16.0 L 58.0 16.0 L 57.0 16.0 L 56.0 16.0 L 55.0 16.0 L 54.0 16.0 L 53.0 16.0 L 52.0 15.666666666666666 L 51.0 15.333333333333334 L 50.0 15.0 L 49.0 15.0 L 48.0 15.0 L 47.0 15.0 L 46.0 15.0 L 45.0 15.0 L 44.0 15.0 L 43.0 15.0 L 42.0 15.333333333333334 L 41.0 15.666666666666666 L 40.0 16.0 L 39.0 16.0 L 38.0 16.333333333333332 L 37.0 16.666666666666668 L 36.0 17.0 L 35.0 17.333333333333332 L 34.0 17.666666666666668 L 33.0 18.333333333333332 L 32.0 18.666666666666668 L 31.0 19.0 L 30.0 19.333333333333332 L 29.0 19.666666666666668 L 28.0 20.333333333333332 L 27.0 21.0 L 26.0 21.666666666666668 L 25.0 22.333333333333332 L 24.0 23.0 L 23.0 23.666666666666668 L 22.0 24.333333333333332 L 21.0 25.0 L 20.0 26.0 L 19.0 27.0 L 18.0 28.0 L 17.0 29.0 L 16.0 30.0 L 15.0 31.0 L 14.0 32.0 L 13.333333333333334 33.0 L 12.666666666666666 34.0 L 12.0 35.0 L 11.333333333333334 36.0 L 10.666666666666666 37.0 L 10.333333333333334 38.0 L 9.666666666666666 39.0 L 9.333333333333334 40.0 L 8.666666666666666 41.0 L 8.333333333333334 42.0 L 8.0 43.0 L 7.666666666666667 44.0 L 7.333333333333333 45.0 L 7.0 46.0 L 7.0 47.0 L 6.666666666666667 48.0 L 6.333333333333333 49.0 L 6.0 50.0 L 6.0 51.0 L 6.0 52.0 L 6.0 53.0 L 6.0 54.0 L 6.0 55.0 L 6.0 56.0 L 6.0 57.0 L 6.0 58.0 L 6.0 59.0 L 6.0 60.0 L 6.0 61.0 L 6.0 62.0 L 6.0 63.0 L 6.0 64.0 L 6.0 65.0 L 6.0 66.0 L 6.0 67.0 L 6.0 68.0 L 6.0 69.0 L 6.0 70.0 L 6.0 71.0 L 6.0 72.0 L 6.0 73.0 L 6.0 74.0 L 6.0 75.0 L 6.0 76.0 L 6.0 77.0 L 6.0 78.0 L 6.0 79.0 L 6.0 80.0 L 6.0 81.0 L 6.0 82.0 L 6.0 83.0 L 6.0 84.0 L 6.0 85.0 L 6.0 86.0 L 6.0 87.0 L 6.0 88.0 L 6.0 89.0 L 6.0 90.0 L 6.0 91.0 L 6.0 92.0 L 6.0 93.0 L 6.0 94.0 L 6.0 95.0 L 6.0 96.0 L 6.0 97.0 L 6.0 98.0 L 5.666666666666667 99.0 L 5.0 100.0 L 4.333333333333333 101.0 L 4.0 102.0 L 4.0 103.0 L 4.333333333333333 103.66666666666667 L 5.0 104.0 L 6.0 104.0 L 7.0 104.0 L 8.0 104.0 L 9.0 104.0 L 10.0 104.0 L 11.0 104.0 L 12.0 104.0 L 13.0 104.0 L 14.0 104.0 L 15.0 104.0 L 16.0 104.0 L 17.0 104.0 L 18.0 104.0 L 19.0 104.0 L 20.0 104.0 L 20.5 104.0 Z" stroke="none" fill="rgb(202,202,202)" />
<path d="M 23.5 52.0 L 24.0 52.0 L 25.0 52.0 L 26.0 52.0 L 27.0 52.0 L 28.0 52.0 L 29.0 52.0 L 30.0 52.0 L 31.0 52.0 L 32.0 52.0 L 33.0 52.0 L 34.0 52.0 L 35.0 52.0 L 36.0 52.0 L 37.0 52.0 L 38.0 52.0 L 39.0 52.0 L 40.0 52.0 L 41.0 52.0 L 42.0 52.0 L 43.0 52.0 L 44.0 52.0 L 45.0 52.0 L 46.0 52.0 L 47.0 52.0 L 48.0 52.0 L 49.0 52.0 L 50.0 52.0 L 51.0 52.0 L 52.0 52.0 L 53.0 52.0 L 54.0 52.0 L 55.0 52.0 L 56.0 52.0 L 57.0 52.0 L 58.0 52.0 L 59.0 52.0 L 60.0 52.0 L 61.0 52.0 L 62.0 52.0 L 63.0 52.0 L 64.0 52.0 L 65.0 52.0 L 66.0 52.0 L 67.0 52.0 L 68.0 52.0 L 69.0 52.0 L 70.0 52.0 L 71.0 52.0 L 72.0 52.0 L 73.0 52.0 L 74.0 52.0 L 75.0 52.0 L 76.0 52.0 L 77.0 52.0 L 78.0 52.0 L 79.0 52.0 L 80.0 52.0 L 81.0 52.0 L 82.0 52.0 L 83.0 52.0 L 84.0 52.0 L 85.0 52.0 L 86.0 52.0 L 87.0 52.0 L 88.0 52.0 L 89.0 52.0 L 90.0 52.0 L 91.0 52.0 L 92.0 52.0 L 93.0 52.0 L 94.0 52.0 L 95.0 52.0 L 96.0 52.0 L 97.0 52.0 L 98.0 52.0 L 99.0 52.0 L 100.0 52.0 L 101.0 52.0 L 102.0 52.0 L 102.66666666666667 51.666666666666664 L 103.0 51.0 L 103.0 50.0 L 103.0 49.0 L 102.66666666666667 48.0 L 102.33333333333333 47.0 L 102.0 46.0 L 101.66666666666667 45.0 L 101.33333333333333 44.0 L 100.66666666666667 43.0 L 100.33333333333333 42.0 L 99.66666666666667 41.0 L 99.0 40.0 L 98.33333333333333 39.0 L 97.66666666666667 38.0 L 97.0 37.0 L 96.0 36.0 L 95.0 35.0 L 94.0 34.0 L 93.0 33.0 L 92.0 32.0 L 91.0 31.0 L 90.0 30.0 L 89.0 29.333333333333332 L 88.0 28.666666666666668 L 87.0 28.0 L 86.0 27.333333333333332 L 85.0 26.666666666666668 L 84.0 26.0 L 83.0 25.333333333333332 L 82.0 24.666666666666668 L 81.0 24.333333333333332 L 80.0 23.666666666666668 L 79.0 23.333333333333332 L 78.0 22.666666666666668 L 77.0 22.333333333333332 L 76.0 21.666666666666668 L 75.0 21.333333333333332 L 74.0 21.0 L 73.0 20.666666666666668 L 72.0 20.333333333333332 L 71.0 20.0 L 70.0 19.666666666666668 L 69.0 19.333333333333332 L 68.0 19.0 L 67.0 19.0 L 66.0 19.0 L 65.0 18.666666666666668 L 64.0 18.333333333333332 L 63.0 18.0 L 62.0 18.0 L 61.0 18.0 L 60.0 18.0 L 59.0 18.0 L 58.0 18.0 L 57.0 18.0 L 56.0 18.0 L 55.0 18.0 L 54.0 18.333333333333332 L 53.0 18.666666666666668 L 52.0 19.0 L 51.0 19.0 L 50.0 19.0 L 49.0 19.0 L 48.0 19.0 L 47.0 19.0 L 46.0 19.333333333333332 L 45.0 19.666666666666668 L 44.0 20.0 L 43.0 20.0 L 42.0 20.333333333333332 L 41.0 20.666666666666668 L 40.0 21.0 L 39.0 21.0 L 38.0 21.333333333333332 L 37.0 21.666666666666668 L 36.0 22.333333333333332 L 35.0 22.666666666666668 L 34.0 23.333333333333332 L 33.0 23.666666666666668 L 32.0 24.333333333333332 L 31.0 24.666666666666668 L 30.0 25.333333333333332 L 29.0 25.666666666666668 L 28.0 26.333333333333332 L 27.0 27.0 L 26.0 28.0 L 25.0 28.666666666666668 L 24.0 29.333333333333332 L 23.0 30.0 L 22.0 31.0 L 21.0 32.0 L 20.0 33.0 L 19.333333333333332 34.0 L 18.666666666666668 35.0 L 18.0 36.0 L 17.333333333333332 37.0 L 16.666666666666668 38.0 L 16.0 39.0 L 15.333333333333334 40.0 L 14.666666666666666 41.0 L 14.333333333333334 42.0 L 13.666666666666666 43.0 L 13.333333333333334 44.0 L 13.0 45.0 L 12.666666666666666 46.0 L 12.333333333333334 47.0 L 12.0 48.0 L 12.0 49.0 L 12.0 50.0 L 12.333333333333334 51.0 L 13.0 51.666666666666664 L 14.0 52.0 L 15.0 52.0 L 16.0 52.0 L 17.0 52.0 L 18.0 52.0 L 19.0 52.0 L 20.0 52.0 L 21.0 52.0 L 22.0 52.0 L 22.5 52.0 Z" stroke="none" fill="rgb(254,218,139)" />
<path d="M 23.5 48.0 L 24.0 48.0 L 25.0 48.0 L 26.0 48.0 L 27.0 48.0 L 28.0 48.0 L 29.0 48.0 L 30.0 48.0 L 31.0 48.0 L 32.0 48.0 L 33.0 48.0 L 34.0 48.0 L 35.0 48.0 L 36.0 48.0 L 37.0 48.0 L 38.0 48.0 L 39.0 48.0 L 40.0 48.0 L 41.0 48.0 L 42.0 48.0 L 43.0 48.0 L 44.0 48.0 L 45.0 48.0 L 46.0 48.0 L 47.0 48.0 L 48.0 48.0 L 49.0 48.0 L 50.0 48.0 L 51.0 48.0 L 52.0 48.0 L 53.0 48.0 L 54.0 48.0 L 55.0 48.0 L 56.0 48.0 L 57.0 48.0 L 58.0 48.0 L 59.0 48.0 L 60.0 48.0 L 61.0 48.0 L 62.0 48.0 L 63.0 48.0 L 64.0 48.0 L 65.0 48.0 L 66.0 48.0 L 67.0 48.0 L 68.0 48.0 L 69.0 48.0 L 70.0 48.0 L 71.0 48.0 L 72.0 48.0 L 73.0 48.0 L 74.0 48.0 L 75.0 48.0 L 76.0 48.0 L 77.0 48.0 L 78.0 48.0 L 79.0 48.0 L 80.0 48.0 L 81.0 48.0 L 82.0 48.0 L 83.0 48.0 L 84.0 48.0 L 85.0 48.0 L 86.0 48.0 L 87.0 48.0 L 88.0 48.0 L 89.0 48.0 L 90.0 48.0 L 91.0 48.0 L 92.0 48.0 L 93.0 48.0 L 94.0 48.0 L 95.0 48.0 L 96.0 48.0 L 97.0 48.0 L 97.66666666666667 47.666666666666664 L 98.0 47.0 L 97.66666666666667 46.0 L 97.33333333333333 45.0 L 96.66666666666667 44.0 L 96.33333333333333 43.0 L 95.66666666666667 42.0 L 95.33333333333333 41.0 L 94.66666666666667 40.0 L 94.33333333333333 39.0 L 93.66666666666667 38.0 L 93.0 37.0 L 92.0 36.0 L 91.0 35.0 L 90.0 34.0 L 89.0 33.0 L 88.0 32.0 L 87.0 31.0 L 86.0 30.333333333333332 L 85.0 29.666666666666668 L 84.0 29.0 L 83.0 28.333333333333332 L 82.0 27.666666666666668 L 81.0 27.0 L 80.0 26.333333333333332 L 79.0 25.666666666666668 L 78.0 25.333333333333332 L 77.0 25.0 L 76.0 24.666666666666668 L 75.0 24.333333333333332 L 74.0 23.666666666666668 L 73.0 23.333333333333332 L 72.0 23.0 L 71.0 22.666666666666668 L 70.0 22.333333333333332 L 69.0 22.0 L 68.0 22.0 L 67.0 22.0 L 66.0 21.666666666666668 L 65.0 21.333333333333332 L 64.0 21.0 L 63.0 21.0 L 62.0 21.0 L 61.0 21.0 L 60.0 21.0 L 59.0 21.0 L 58.0 21.0 L 57.0 21.0 L 56.0 21.0 L 55.0 21.0 L 54.0 21.0 L 53.0 21.0 L 52.0 21.0 L 51.0 21.0 L 50.0 21.333333333333332 L 49.0 21.666666666666668 L 48.0 22.0 L 47.0 22.0 L 46.0 22.0 L 45.0 22.0 L 44.0 22.333333333333332 L 43.0 22.666666666666668 L 42.0 23.0 L 41.0 23.333333333333332 L 40.0 23.666666666666668 L 39.0 24.0 L 38.0 24.333333333333332 L 37.0 24.666666666666668 L 36.0 25.333333333333332 L 35.0 25.666666666666668 L 34.0 26.333333333333332 L 33.0 26.666666666666668 L 32.0 27.333333333333332 L 31.0 28.0 L 30.0 29.0 L 29.0 29.666666666666668 L 28.0 30.333333333333332 L 27.0 31.0 L 26.0 32.0 L 25.0 33.0 L 24.0 34.0 L 23.0 35.0 L 22.0 36.0 L 21.0 37.0 L 20.333333333333332 38.0 L 19.666666666666668 39.0 L 19.0 40.0 L 18.333333333333332 41.0 L 17.666666666666668 42.0 L 17.333333333333332 43.0 L 16.666666666666668 44.0 L 16.333333333333332 45.0 L 16.0 46.0 L 16.0 47.0 L 16.333333333333332 47.666666666666664 L 17.0 48.0 L 18.0 48.0 L 19.0 48.0 L 20.0 48.0 L 21.0 48.0 L 22.0 48.0 L 22.5 48.0 Z" stroke="none" fill="rgb(255,176,41)" />
<path d="M 53.5 38.5 L 53.666666666666664 39.0 L 54.333333333333336 40.0 L 54.666666666666664 41.0 L 55.0 42.0 L 55.333333333333336 43.0 L 56.0 43.666666666666664 L 57.0 44.0 L 57.666666666666664 43.666666666666664 L 58.333333333333336 43.0 L 58.666666666666664 42.0 L 59.0 41.0 L 59.0 40.0 L 59.333333333333336 39.0 L 59.666666666666664 38.0 L 60.0 37.0 L 60.0 36.0 L 60.333333333333336 35.0 L 60.666666666666664 34.0 L 61.0 33.0 L 61.333333333333336 32.0 L 61.666666666666664 31.0 L 62.0 30.0 L 62.0 29.0 L 62.0 28.0 L 62.0 27.0 L 62.0 26.0 L 61.666666666666664 25.333333333333332 L 61.0 25.0 L 60.0 25.0 L 59.0 25.0 L 58.0 25.0 L 57.0 25.0 L 56.0 25.0 L 55.0 25.0 L 54.0 25.0 L 53.0 25.0 L 52.0 25.0 L 51.0 25.0 L 50.0 25.0 L 49.333333333333336 25.333333333333332 L 49.0 26.0 L 49.0 27.0 L 49.333333333333336 28.0 L 49.666666666666664 29.0 L 50.333333333333336 30.0 L 50.666666666666664 31.0 L 51.0 32.0 L 51.333333333333336 33.0 L 51.666666666666664 34.0 L 52.333333333333336 35.0 L 52.666666666666664 36.0 L 53.0 37.0 L 53.0 37.5 Z" stroke="none" fill="rgb(255,214,28)" />
<path d="M 37.5 36.5 L 38.0 36.666666666666664 L 39.0 37.333333333333336 L 40.0 38.0 L 41.0 39.0 L 42.0 39.666666666666664 L 43.0 40.333333333333336 L 44.0 41.0 L 45.0 42.0 L 46.0 43.0 L 47.0 43.666666666666664 L 48.0 44.333333333333336 L 49.0 44.666666666666664 L 50.0 45.0 L 50.666666666666664 44.666666666666664 L 51.0 44.0 L 51.0 43.0 L 50.666666666666664 42.0 L 50.333333333333336 41.0 L 49.666666666666664 40.0 L 49.333333333333336 39.0 L 49.0 38.0 L 48.666666666666664 37.0 L 48.333333333333336 36.0 L 47.666666666666664 35.0 L 47.333333333333336 34.0 L 46.666666666666664 33.0 L 46.333333333333336 32.0 L 46.0 31.0 L 45.666666666666664 30.0 L 45.333333333333336 29.0 L 44.666666666666664 28.0 L 44.0 27.333333333333332 L 43.0 27.0 L 42.0 27.0 L 41.0 27.333333333333332 L 40.0 27.666666666666668 L 39.0 28.333333333333332 L 38.0 28.666666666666668 L 37.0 29.333333333333332 L 36.0 29.666666666666668 L 35.0 30.333333333333332 L 34.333333333333336 31.0 L 34.0 32.0 L 34.333333333333336 33.0 L 35.0 34.0 L 36.0 35.0 L 36.5 35.5 Z" stroke="none" fill="rgb(255,214,28)" />
<path d="M 65.5 45.0 L 66.0 44.666666666666664 L 67.0 44.0 L 68.0 43.0 L 69.0 42.0 L 70.0 41.0 L 71.0 40.0 L 72.0 39.0 L 73.0 38.0 L 74.0 37.0 L 75.0 36.0 L 76.0 35.0 L 77.0 34.0 L 77.66666666666667 33.0 L 78.0 32.0 L 77.66666666666667 31.0 L 77.0 30.333333333333332 L 76.0 29.666666666666668 L 75.0 29.333333333333332 L 74.0 28.666666666666668 L 73.0 28.333333333333332 L 72.0 27.666666666666668 L 71.0 27.333333333333332 L 70.0 27.0 L 69.0 27.0 L 68.0 27.0 L 67.33333333333333 27.333333333333332 L 67.0 28.0 L 66.66666666666667 29.0 L 66.33333333333333 30.0 L 66.0 31.0 L 66.0 32.0 L 65.66666666666667 33.0 L 65.33333333333333 34.0 L 65.0 35.0 L 65.0 36.0 L 64.66666666666667 37.0 L 64.33333333333333 38.0 L 64.0 39.0 L 64.0 40.0 L 63.666666666666664 41.0 L 63.333333333333336 42.0 L 63.0 43.0 L 63.0 44.0 L 63.333333333333336 44.666666666666664 L 64.0 45.0 L 64.5 45.0 Z" stroke="none" fill="rgb(255,214,28)" />
<path d="M 37.5 46.0 L 38.0 46.0 L 39.0 46.0 L 40.0 46.0 L 41.0 46.0 L 41.666666666666664 45.666666666666664 L 42.0 45.0 L 41.666666666666664 44.0 L 41.0 43.0 L 40.0 42.333333333333336 L 39.0 41.666666666666664 L 38.0 41.0 L 37.0 40.0 L 36.0 39.0 L 35.0 38.333333333333336 L 34.0 37.666666666666664 L 33.0 37.0 L 32.0 36.0 L 31.0 35.333333333333336 L 30.0 35.0 L 29.0 35.333333333333336 L 28.0 36.0 L 27.0 37.0 L 26.0 38.0 L 25.333333333333332 39.0 L 24.666666666666668 40.0 L 24.0 41.0 L 23.333333333333332 42.0 L 22.666666666666668 43.0 L 22.333333333333332 44.0 L 22.0 45.0 L 22.333333333333332 45.666666666666664 L 23.0 46.0 L 24.0 46.0 L 25.0 46.0 L 26.0 46.0 L 27.0 46.0 L 28.0 46.0 L 29.0 46.0 L 30.0 46.0 L 31.0 46.0 L 32.0 46.0 L 33.0 46.0 L 34.0 46.0 L 35.0 46.0 L 36.0 46.0 L 36.5 46.0 Z" stroke="none" fill="rgb(255,214,28)" />
<path d="M 91.5 46.0 L 91.66666666666667 45.666666666666664 L 92.0 45.0 L 91.66666666666667 44.0 L 91.0 43.0 L 90.0 42.0 L 89.33333333333333 41.0 L 88.66666666666667 40.0 L 88.0 39.0 L 87.0 38.0 L 86.0 37.0 L 85.0 36.333333333333336 L 84.0 35.666666666666664 L 83.0 35.333333333333336 L 82.0 35.333333333333336 L 81.0 36.0 L 80.0 37.0 L 79.0 38.0 L 78.0 38.666666666666664 L 77.0 39.333333333333336 L 76.0 40.0 L 75.0 41.0 L 74.0 42.0 L 73.0 43.0 L 72.33333333333333 44.0 L 72.0 45.0 L 72.33333333333333 45.666666666666664 L 73.0 46.0 L 74.0 46.0 L 75.0 46.0 L 76.0 46.0 L 77.0 46.0 L 78.0 46.0 L 79.0 46.0 L 80.0 46.0 L 81.0 46.0 L 82.0 46.0 L 83.0 46.0 L 84.0 46.0 L 85.0 46.0 L 86.0 46.0 L 87.0 46.0 L 88.0 46.0 L 89.0 46.0 L 90.0 46.0 L 90.5 46.0 Z" stroke="none" fill="rgb(255,214,28)" />
<path d="M 57.5 97.0 L 58.0 97.0 L 59.0 97.0 L 60.0 97.0 L 61.0 97.0 L 62.0 97.0 L 63.0 97.0 L 64.0 97.0 L 65.0 97.0 L 66.0 97.0 L 67.0 97.0 L 68.0 97.0 L 69.0 97.0 L 70.0 97.0 L 71.0 97.0 L 72.0 97.0 L 73.0 97.0 L 74.0 97.0 L 75.0 97.0 L 76.0 97.0 L 77.0 97.0 L 78.0 97.0 L 79.0 97.0 L 80.0 97.0 L 81.0 97.0 L 82.0 97.0 L 83.0 97.0 L 84.0 97.0 L 85.0 97.0 L 86.0 97.0 L 87.0 97.0 L 88.0 97.0 L 89.0 97.0 L 90.0 97.0 L 91.0 97.0 L 92.0 97.0 L 93.0 97.0 L 94.0 97.0 L 95.0 97.0 L 96.0 97.0 L 97.0 97.0 L 98.0 97.0 L 99.0 97.0 L 100.0 97.0 L 101.0 97.0 L 102.0 97.0 L 102.66666666666667 96.66666666666667 L 103.0 96.0 L 103.0 95.0 L 103.0 94.0 L 103.0 93.0 L 103.0 92.0 L 103.0 91.0 L 103.0 90.0 L 103.0 89.0 L 103.0 88.0 L 103.0 87.0 L 103.0 86.0 L 103.0 85.0 L 103.0 84.0 L 103.0 83.0 L 103.0 82.0 L 103.0 81.0 L 103.0 80.0 L 103.0 79.0 L 103.0 78.0 L 103.0 77.0 L 103.0 76.0 L 103.0 75.0 L 103.0 74.0 L 103.0 73.0 L 103.0 72.0 L 103.0 71.0 L 103.0 70.0 L 103.0 69.0 L 103.0 68.0 L 103.0 67.0 L 103.0 66.0 L 103.0 65.0 L 103.0 64.0 L 103.0 63.0 L 103.0 62.0 L 103.0 61.0 L 103.0 60.0 L 103.0 59.0 L 103.0 58.0 L 103.0 57.0 L 103.0 56.0 L 103.0 55.0 L 103.0 54.0 L 102.66666666666667 53.0 L 102.0 52.333333333333336 L 101.0 52.0 L 100.0 52.0 L 99.0 52.0 L 98.0 52.0 L 97.0 52.0 L 96.0 52.0 L 95.0 52.0 L 94.0 52.0 L 93.0 52.0 L 92.0 52.0 L 91.0 52.0 L 90.0 52.0 L 89.0 52.0 L 88.0 52.0 L 87.0 52.0 L 86.0 52.0 L 85.0 52.0 L 84.0 52.0 L 83.0 52.0 L 82.0 52.0 L 81.0 52.0 L 80.0 52.0 L 79.0 52.0 L 78.0 52.0 L 77.0 52.0 L 76.0 52.0 L 75.0 52.0 L 74.0 52.0 L 73.0 52.0 L 72.0 52.0 L 71.0 52.0 L 70.0 52.0 L 69.0 52.0 L 68.0 52.0 L 67.0 52.0 L 66.0 52.0 L 65.0 52.0 L 64.0 52.0 L 63.0 52.0 L 62.0 52.0 L 61.0 52.0 L 60.0 52.0 L 59.0 52.0 L 58.0 52.0 L 57.0 52.0 L 56.0 52.0 L 55.0 52.0 L 54.0 52.0 L 53.0 52.0 L 52.0 52.0 L 51.0 52.0 L 50.0 52.0 L 49.0 52.0 L 48.0 52.0 L 47.0 52.0 L 46.0 52.0 L 45.0 52.0 L 44.0 52.0 L 43.0 52.0 L 42.0 52.0 L 41.0 52.0 L 40.0 52.0 L 39.0 52.0 L 38.0 52.0 L 37.0 52.0 L 36.0 52.0 L 35.0 52.0 L 34.0 52.0 L 33.0 52.0 L 32.0 52.0 L 31.0 52.0 L 30.0 52.0 L 29.0 52.0 L 28.0 52.0 L 27.0 52.0 L 26.0 52.0 L 25.0 52.0 L 24.0 52.0 L 23.0 52.0 L 22.0 52.0 L 21.0 52.0 L 20.0 52.0 L 19.0 52.0 L 18.0 52.0 L 17.0 52.0 L 16.0 52.0 L 15.0 52.0 L 14.0 52.0 L 13.0 52.0 L 12.333333333333334 52.333333333333336 L 12.0 53.0 L 12.0 54.0 L 12.0 55.0 L 12.0 56.0 L 12.0 57.0 L 12.0 58.0 L 12.0 59.0 L 12.0 60.0 L 12.0 61.0 L 12.0 62.0 L 12.0 63.0 L 12.0 64.0 L 12.0 65.0 L 12.0 66.0 L 12.0 67.0 L 12.0 68.0 L 12.0 69.0 L 12.0 70.0 L 12.0 71.0 L 12.0 72.0 L 12.0 73.0 L 12.0 74.0 L 12.0 75.0 L 12.0 76.0 L 12.0 77.0 L 12.0 78.0 L 12.0 79.0 L 12.0 80.0 L 12.0 81.0 L 12.0 82.0 L 12.0 83.0 L 12.0 84.0 L 12.0 85.0 L 12.0 86.0 L 12.0 87.0 L 12.0 88.0 L 12.0 89.0 L 12.0 90.0 L 12.0 91.0 L 12.0 92.0 L 12.0 93.0 L 12.0 94.0 L 12.0 95.0 L 12.0 96.0 L 12.333333333333334 96.66666666666667 L 13.0 97.0 L 14.0 97.0 L 15.0 97.0 L 16.0 97.0 L 17.0 97.0 L 18.0 97.0 L 19.0 97.0 L 20.0 97.0 L 21.0 97.0 L 22.0 97.0 L 23.0 97.0 L 24.0 97.0 L 25.0 97.0 L 26.0 97.0 L 27.0 97.0 L 28.0 97.0 L 29.0 97.0 L 30.0 97.0 L 31.0 97.0 L 32.0 97.0 L 33.0 97.0 L 34.0 97.0 L 35.0 97.0 L 36.0 97.0 L 37.0 97.0 L 38.0 97.0 L 39.0 97.0 L 40.0 97.0 L 41.0 97.0 L 42.0 97.0 L 43.0 97.0 L 44.0 97.0 L 45.0 97.0 L 46.0 97.0 L 47.0 97.0 L 48.0 97.0 L 49.0 97.0 L 50.0 97.0 L 51.0 97.0 L 52.0 97.0 L 53.0 97.0 L 54.0 97.0 L 55.0 97.0 L 56.0 97.0 L 56.5 97.0 Z" stroke="none" fill="rgb(111,113,119)" />
<path d="M 72.5 95.0 L 73.0 95.0 L 74.0 95.0 L 75.0 95.0 L 76.0 95.0 L 77.0 95.0 L 78.0 95.0 L 79.0 95.0 L 80.0 95.0 L 81.0 95.0 L 82.0 95.0 L 83.0 95.0 L 84.0 95.0 L 85.0 95.0 L 86.0 95.0 L 87.0 95.0 L 88.0 95.0 L 89.0 95.0 L 90.0 95.0 L 91.0 95.0 L 92.0 95.0 L 93.0 95.0 L 94.0 95.0 L 95.0 95.0 L 96.0 95.0 L 97.0 95.0 L 98.0 95.0 L 99.0 94.66666666666667 L 99.66666666666667 94.0 L 100.0 93.0 L 100.0 92.0 L 100.0 91.0 L 100.0 90.0 L 100.0 89.0 L 100.0 88.0 L 100.0 87.0 L 100.0 86.0 L 100.0 85.0 L 100.0 84.0 L 100.0 83.0 L 100.0 82.0 L 100.0 81.0 L 100.0 80.0 L 100.0 79.0 L 100.0 78.0 L 100.0 77.0 L 100.0 76.0 L 100.0 75.0 L 100.0 74.0 L 100.0 73.0 L 100.0 72.0 L 100.0 71.0 L 100.0 70.0 L 100.0 69.0 L 100.0 68.0 L 100.0 67.0 L 100.0 66.0 L 100.0 65.0 L 100.0 64.0 L 100.0 63.0 L 100.0 62.0 L 100.0 61.0 L 100.0 60.0 L 100.0 59.0 L 100.0 58.0 L 100.0 57.0 L 100.0 56.0 L 99.66666666666667 55.333333333333336 L 99.0 55.0 L 98.0 55.0 L 97.0 55.0 L 96.0 55.0 L 95.0 55.0 L 94.0 55.0 L 93.0 55.0 L 92.0 55.0 L 91.0 55.0 L 90.0 55.0 L 89.0 55.0 L 88.0 55.0 L 87.0 55.0 L 86.0 55.0 L 85.0 55.0 L 84.0 55.0 L 83.0 55.0 L 82.0 55.0 L 81.0 55.0 L 80.0 55.0 L 79.0 55.0 L 78.0 55.0 L 77.0 55.0 L 76.0 55.0 L 75.0 55.0 L 74.0 55.0 L 73.0 55.0 L 72.0 55.0 L 71.0 55.0 L 70.0 55.0 L 69.0 55.0 L 68.0 55.0 L 67.0 55.0 L 66.0 55.0 L 65.0 55.0 L 64.0 55.0 L 63.0 55.0 L 62.0 55.0 L 61.0 55.0 L 60.0 55.0 L 59.0 55.0 L 58.0 55.0 L 57.0 55.0 L 56.0 55.0 L 55.0 55.0 L 54.0 55.0 L 53.0 55.0 L 52.0 55.0 L 51.0 55.0 L 50.0 55.0 L 49.0 55.0 L 48.0 55.0 L 47.0 55.0 L 46.0 55.0 L 45.0 55.0 L 44.0 55.0 L 43.0 55.0 L 42.0 55.0 L 41.0 55.0 L 40.0 55.0 L 39.0 55.0 L 38.0 55.0 L 37.0 55.0 L 36.0 55.0 L 35.0 55.0 L 34.0 55.0 L 33.0 55.0 L 32.0 55.0 L 31.0 55.0 L 30.0 55.0 L 29.0 55.0 L 28.0 55.0 L 27.0 55.0 L 26.0 55.0 L 25.0 55.0 L 24.0 55.0 L 23.0 55.0 L 22.0 55.0 L 21.0 55.0 L 20.0 55.0 L 19.0 55.0 L 18.0 55.0 L 17.0 55.0 L 16.0 55.0 L 15.333333333333334 55.333333333333336 L 15.0 56.0 L 15.0 57.0 L 15.0 58.0 L 15.0 59.0 L 15.0 60.0 L 15.0 61.0 L 15.0 62.0 L 15.0 63.0 L 15.0 64.0 L 15.0 65.0 L 15.0 66.0 L 15.0 67.0 L 15.0 68.0 L 15.0 69.0 L 15.0 70.0 L 15.0 71.0 L 15.0 72.0 L 15.0 73.0 L 15.0 74.0 L 15.0 75.0 L 15.0 76.0 L 15.0 77.0 L 15.0 78.0 L 15.0 79.0 L 15.0 80.0 L 15.0 81.0 L 15.0 82.0 L 15.0 83.0 L 15.0 84.0 L 15.0 85.0 L 15.0 86.0 L 15.0 87.0 L 15.0 88.0 L 15.0 89.0 L 15.0 90.0 L 15.0 91.0 L 15.0 92.0 L 15.0 93.0 L 15.333333333333334 93.66666666666667 L 16.0 94.33333333333333 L 17.0 94.66666666666667 L 18.0 95.0 L 19.0 95.0 L 20.0 95.0 L 21.0 95.0 L 22.0 95.0 L 23.0 95.0 L 24.0 95.0 L 25.0 95.0 L 26.0 95.0 L 27.0 95.0 L 28.0 95.0 L 29.0 95.0 L 30.0 95.0 L 31.0 95.0 L 32.0 95.0 L 33.0 95.0 L 34.0 95.0 L 35.0 95.0 L 36.0 95.0 L 37.0 95.0 L 38.0 95.0 L 39.0 95.0 L 40.0 95.0 L 41.0 95.0 L 42.0 95.0 L 43.0 95.0 L 44.0 95.0 L 45.0 95.0 L 46.0 95.0 L 47.0 95.0 L 48.0 95.0 L 49.0 95.0 L 50.0 95.0 L 51.0 95.0 L 52.0 95.0 L 53.0 95.0 L 54.0 95.0 L 55.0 95.0 L 56.0 95.0 L 57.0 95.0 L 58.0 95.0 L 59.0 95.0 L 60.0 95.0 L 61.0 95.0 L 62.0 95.0 L 63.0 95.0 L 64.0 95.0 L 65.0 95.0 L 66.0 95.0 L 67.0 95.0 L 68.0 95.0 L 69.0 95.0 L 70.0 95.0 L 71.0 95.0 L 71.5 95.0 Z" stroke="none" fill="rgb(58,56,57)" />
<path d="M 30.5 60.0 L 31.0 60.0 L 32.0 60.0 L 33.0 60.0 L 34.0 60.0 L 35.0 60.0 L 36.0 60.0 L 37.0 60.0 L 38.0 59.666666666666664 L 38.666666666666664 59.0 L 38.666666666666664 58.0 L 38.0 57.333333333333336 L 37.0 57.0 L 36.0 57.0 L 35.0 57.0 L 34.0 57.0 L 33.0 57.0 L 32.0 57.0 L 31.0 57.0 L 30.0 57.333333333333336 L 29.333333333333332 58.0 L 29.0 59.0 L 29.333333333333332 59.666666666666664 L 29.5 60.0 Z" stroke="none" fill="rgb(77,139,40)" />
<path d="M 56.5 61.0 L 57.0 61.0 L 58.0 61.0 L 59.0 61.0 L 60.0 61.0 L 61.0 61.0 L 62.0 60.666666666666664 L 62.666666666666664 60.0 L 63.0 59.0 L 62.666666666666664 58.0 L 62.0 57.333333333333336 L 61.0 57.0 L 60.0 57.0 L 59.0 57.0 L 58.0 57.0 L 57.0 57.0 L 56.0 57.0 L 55.0 57.0 L 54.0 57.0 L 53.0 57.333333333333336 L 52.333333333333336 58.0 L 52.333333333333336 59.0 L 53.0 60.0 L 54.0 60.666666666666664 L 55.0 61.0 L 55.5 61.0 Z" stroke="none" fill="rgb(89,92,96)" />
<path d="M 24.5 92.0 L 25.0 92.0 L 26.0 92.0 L 27.0 92.0 L 28.0 92.0 L 28.666666666666668 91.66666666666667 L 29.333333333333332 91.0 L 30.0 90.33333333333333 L 31.0 90.0 L 32.0 89.66666666666667 L 33.0 89.33333333333333 L 34.0 89.33333333333333 L 35.0 90.0 L 36.0 91.0 L 37.0 91.66666666666667 L 38.0 92.0 L 39.0 92.0 L 40.0 92.0 L 41.0 92.0 L 42.0 92.0 L 43.0 91.66666666666667 L 43.666666666666664 91.0 L 44.0 90.0 L 44.0 89.0 L 43.666666666666664 88.0 L 43.333333333333336 87.0 L 43.0 86.0 L 43.0 85.0 L 42.666666666666664 84.0 L 42.333333333333336 83.0 L 42.0 82.0 L 42.0 81.0 L 42.0 80.0 L 42.0 79.0 L 42.0 78.0 L 42.0 77.0 L 42.0 76.0 L 42.0 75.0 L 42.0 74.0 L 42.0 73.0 L 42.0 72.0 L 42.0 71.0 L 42.0 70.0 L 42.333333333333336 69.0 L 42.666666666666664 68.0 L 43.0 67.0 L 43.0 66.0 L 43.0 65.0 L 43.0 64.0 L 43.333333333333336 63.0 L 43.666666666666664 62.0 L 44.0 61.0 L 44.0 60.0 L 44.0 59.0 L 43.666666666666664 58.333333333333336 L 43.0 58.0 L 42.0 58.0 L 41.0 58.0 L 40.0 58.0 L 39.0 58.333333333333336 L 38.0 59.0 L 37.0 59.666666666666664 L 36.0 60.0 L 35.0 60.0 L 34.0 60.0 L 33.0 60.0 L 32.0 60.0 L 31.0 60.0 L 30.0 59.666666666666664 L 29.0 59.333333333333336 L 28.0 58.666666666666664 L 27.0 58.333333333333336 L 26.0 58.0 L 25.0 58.0 L 24.0 58.0 L 23.0 58.333333333333336 L 22.0 59.0 L 21.333333333333332 60.0 L 20.666666666666668 61.0 L 20.333333333333332 62.0 L 20.0 63.0 L 19.666666666666668 64.0 L 19.333333333333332 65.0 L 19.0 66.0 L 19.0 67.0 L 19.0 68.0 L 18.666666666666668 69.0 L 18.333333333333332 70.0 L 18.0 71.0 L 18.0 72.0 L 18.0 73.0 L 18.0 74.0 L 18.0 75.0 L 18.0 76.0 L 18.0 77.0 L 18.0 78.0 L 18.0 79.0 L 18.0 80.0 L 18.333333333333332 81.0 L 18.666666666666668 82.0 L 19.0 83.0 L 19.0 84.0 L 19.333333333333332 85.0 L 19.666666666666668 86.0 L 20.333333333333332 87.0 L 20.666666666666668 88.0 L 21.333333333333332 89.0 L 21.666666666666668 90.0 L 22.333333333333332 91.0 L 23.0 91.66666666666667 L 23.5 92.0 Z" stroke="none" fill="rgb(255,255,255)" />
<path d="M 59.5 91.0 L 60.0 91.0 L 61.0 91.0 L 62.0 91.0 L 63.0 91.0 L 64.0 91.0 L 65.0 91.0 L 66.0 91.0 L 67.0 91.0 L 68.0 91.0 L 68.66666666666667 90.66666666666667 L 69.0 90.0 L 69.0 89.0 L 69.33333333333333 88.0 L 69.66666666666667 87.0 L 70.0 86.0 L 70.0 85.0 L 70.0 84.0 L 70.0 83.0 L 70.0 82.0 L 70.0 81.0 L 70.0 80.0 L 70.0 79.0 L 70.0 78.0 L 70.0 77.0 L 70.0 76.0 L 70.0 75.0 L 70.0 74.0 L 70.0 73.0 L 70.0 72.0 L 70.0 71.0 L 70.0 70.0 L 70.0 69.0 L 70.0 68.0 L 70.0 67.0 L 69.66666666666667 66.0 L 69.33333333333333 65.0 L 69.0 64.0 L 69.0 63.0 L 69.0 62.0 L 68.66666666666667 61.0 L 68.33333333333333 60.0 L 67.66666666666667 59.0 L 67.0 58.333333333333336 L 66.0 58.0 L 65.0 58.0 L 64.0 58.0 L 63.333333333333336 58.333333333333336 L 62.666666666666664 59.0 L 62.0 60.0 L 61.0 60.666666666666664 L 60.0 61.0 L 59.0 61.0 L 58.0 61.0 L 57.0 61.0 L 56.0 61.0 L 55.0 60.666666666666664 L 54.0 60.0 L 53.0 59.0 L 52.0 58.333333333333336 L 51.0 58.0 L 50.0 58.0 L 49.0 58.0 L 48.0 58.0 L 47.333333333333336 58.333333333333336 L 46.666666666666664 59.0 L 46.333333333333336 60.0 L 46.0 61.0 L 46.0 62.0 L 45.666666666666664 63.0 L 45.333333333333336 64.0 L 45.0 65.0 L 45.0 66.0 L 45.0 67.0 L 45.0 68.0 L 44.666666666666664 69.0 L 44.333333333333336 70.0 L 44.0 71.0 L 44.0 72.0 L 44.0 73.0 L 44.0 74.0 L 44.0 75.0 L 44.0 76.0 L 44.0 77.0 L 44.0 78.0 L 44.0 79.0 L 44.0 80.0 L 44.0 81.0 L 44.333333333333336 82.0 L 44.666666666666664 83.0 L 45.0 84.0 L 45.0 85.0 L 45.0 86.0 L 45.333333333333336 87.0 L 45.666666666666664 88.0 L 46.0 89.0 L 46.333333333333336 90.0 L 47.0 90.66666666666667 L 48.0 91.0 L 49.0 91.0 L 50.0 91.0 L 51.0 91.0 L 52.0 91.0 L 53.0 91.0 L 54.0 91.0 L 55.0 91.0 L 56.0 91.0 L 57.0 91.0 L 58.0 91.0 L 58.5 91.0 Z" stroke="none" fill="rgb(255,255,255)" />
<path d="M 72.5 91.0 L 73.0 91.0 L 74.0 91.0 L 75.0 91.0 L 76.0 91.0 L 77.0 91.0 L 78.0 91.0 L 79.0 90.66666666666667 L 80.0 90.0 L 81.0 89.33333333333333 L 82.0 89.0 L 83.0 89.0 L 84.0 89.0 L 85.0 89.0 L 86.0 89.33333333333333 L 87.0 90.0 L 88.0 90.66666666666667 L 89.0 91.0 L 90.0 91.0 L 91.0 91.0 L 92.0 90.66666666666667 L 92.66666666666667 90.0 L 93.33333333333333 89.0 L 93.66666666666667 88.0 L 94.33333333333333 87.0 L 94.66666666666667 86.0 L 95.33333333333333 85.0 L 95.66666666666667 84.0 L 96.0 83.0 L 96.0 82.0 L 96.33333333333333 81.0 L 96.66666666666667 80.0 L 97.0 79.0 L 97.0 78.0 L 97.0 77.0 L 97.0 76.0 L 97.0 75.0 L 97.0 74.0 L 97.0 73.0 L 96.66666666666667 72.0 L 96.33333333333333 71.0 L 96.0 70.0 L 96.0 69.0 L 96.0 68.0 L 96.0 67.0 L 95.66666666666667 66.0 L 95.33333333333333 65.0 L 95.0 64.0 L 94.66666666666667 63.0 L 94.33333333333333 62.0 L 94.0 61.0 L 93.66666666666667 60.0 L 93.0 59.0 L 92.0 58.333333333333336 L 91.0 58.0 L 90.0 58.0 L 89.0 58.333333333333336 L 88.0 59.0 L 87.0 60.0 L 86.0 60.666666666666664 L 85.0 61.0 L 84.0 61.0 L 83.0 61.0 L 82.0 61.0 L 81.0 60.666666666666664 L 80.0 60.333333333333336 L 79.0 59.666666666666664 L 78.0 59.333333333333336 L 77.0 58.666666666666664 L 76.0 58.333333333333336 L 75.0 58.0 L 74.0 58.0 L 73.0 58.0 L 72.0 58.0 L 71.33333333333333 58.333333333333336 L 71.0 59.0 L 71.0 60.0 L 71.0 61.0 L 71.0 62.0 L 71.0 63.0 L 71.33333333333333 64.0 L 71.66666666666667 65.0 L 72.0 66.0 L 72.0 67.0 L 72.0 68.0 L 72.0 69.0 L 72.0 70.0 L 72.0 71.0 L 72.33333333333333 72.0 L 72.66666666666667 73.0 L 73.0 74.0 L 73.0 75.0 L 73.0 76.0 L 73.0 77.0 L 73.0 78.0 L 73.0 79.0 L 73.0 80.0 L 73.0 81.0 L 72.66666666666667 82.0 L 72.33333333333333 83.0 L 72.0 84.0 L 72.0 85.0 L 72.0 86.0 L 71.66666666666667 87.0 L 71.33333333333333 88.0 L 71.0 89.0 L 71.0 90.0 L 71.33333333333333 90.66666666666667 L 71.5 91.0 Z" stroke="none" fill="rgb(255,255,255)" />
<path d="M 82.5 61.0 L 83.0 61.0 L 84.0 61.0 L 85.0 61.0 L 86.0 61.0 L 87.0 60.666666666666664 L 87.66666666666667 60.0 L 87.66666666666667 59.0 L 87.0 58.333333333333336 L 86.0 58.0 L 85.0 58.0 L 84.0 58.0 L 83.0 58.0 L 82.0 58.0 L 81.0 58.0 L 80.0 58.0 L 79.0 58.0 L 78.33333333333333 58.333333333333336 L 78.0 59.0 L 78.33333333333333 59.666666666666664 L 79.0 60.333333333333336 L 80.0 60.666666666666664 L 81.0 61.0 L 81.5 61.0 Z" stroke="none" fill="rgb(255,195,34)" />
<path d="M 110.5 73.5 L 111.0 74.0 L 112.0 74.66666666666667 L 113.0 75.33333333333333 L 114.0 75.66666666666667 L 115.0 76.0 L 116.0 76.0 L 117.0 76.0 L 118.0 76.0 L 119.0 76.0 L 120.0 75.66666666666667 L 121.0 75.33333333333333 L 122.0 74.66666666666667 L 123.0 74.0 L 123.66666666666667 73.0 L 124.0 72.0 L 124.33333333333333 71.0 L 124.66666666666667 70.0 L 125.0 69.0 L 125.0 68.0 L 125.0 67.0 L 124.66666666666667 66.0 L 124.33333333333333 65.0 L 124.0 64.0 L 123.66666666666667 63.0 L 123.0 62.0 L 122.0 61.333333333333336 L 121.0 60.666666666666664 L 120.0 60.333333333333336 L 119.0 60.0 L 118.0 60.0 L 117.0 60.0 L 116.0 60.0 L 115.0 60.0 L 114.0 60.0 L 113.0 60.333333333333336 L 112.0 61.0 L 111.0 62.0 L 110.0 63.0 L 109.33333333333333 64.0 L 109.0 65.0 L 109.0 66.0 L 109.0 67.0 L 109.0 68.0 L 109.0 69.0 L 109.0 70.0 L 109.0 71.0 L 109.33333333333333 72.0 L 109.5 72.5 Z" stroke="none" fill="rgb(219,12,41)" />
<path d="M 115.0 66.5 L 115.33333333333333 66.0 L 115.66666666666667 65.0 L 116.0 64.0 L 115.66666666666667 63.333333333333336 L 115.0 63.0 L 114.0 63.0 L 113.0 63.333333333333336 L 112.0 64.0 L 111.33333333333333 65.0 L 111.0 66.0 L 111.0 67.0 L 111.33333333333333 68.0 L 112.0 68.66666666666667 L 113.0 68.66666666666667 L 114.0 68.0 L 114.5 67.5 Z" stroke="none" fill="rgb(255,255,255)" />
<path d="M 91.0 74.5 L 91.33333333333333 74.0 L 91.66666666666667 73.0 L 92.33333333333333 72.0 L 93.0 71.0 L 93.66666666666667 70.0 L 94.0 69.0 L 94.0 68.0 L 94.0 67.0 L 93.66666666666667 66.0 L 93.0 65.33333333333333 L 92.0 65.0 L 91.0 65.0 L 90.0 65.0 L 89.0 65.0 L 88.0 65.0 L 87.0 64.66666666666667 L 86.0 64.33333333333333 L 85.0 64.0 L 84.0 64.0 L 83.0 64.0 L 82.0 64.33333333333333 L 81.0 64.66666666666667 L 80.0 65.0 L 79.0 65.0 L 78.0 65.0 L 77.0 65.0 L 76.33333333333333 65.33333333333333 L 76.0 66.0 L 76.0 67.0 L 76.0 68.0 L 76.0 69.0 L 76.0 70.0 L 76.0 71.0 L 76.0 72.0 L 76.0 73.0 L 76.0 74.0 L 76.33333333333333 74.66666666666667 L 77.0 75.0 L 78.0 75.0 L 79.0 74.66666666666667 L 80.0 74.0 L 81.0 73.33333333333333 L 82.0 73.33333333333333 L 82.66666666666667 74.0 L 82.66666666666667 75.0 L 82.33333333333333 76.0 L 82.0 77.0 L 81.66666666666667 78.0 L 81.33333333333333 79.0 L 81.0 80.0 L 81.0 81.0 L 81.0 82.0 L 81.0 83.0 L 81.0 84.0 L 81.0 85.0 L 81.33333333333333 85.66666666666667 L 82.0 86.0 L 83.0 86.0 L 84.0 86.0 L 85.0 86.0 L 86.0 86.0 L 87.0 86.0 L 88.0 86.0 L 89.0 85.66666666666667 L 89.66666666666667 85.0 L 90.0 84.0 L 90.0 83.0 L 90.0 82.0 L 90.0 81.0 L 90.0 80.0 L 90.0 79.0 L 90.0 78.0 L 90.0 77.0 L 90.33333333333333 76.0 L 90.5 75.5 Z" stroke="none" fill="rgb(255,43,38)" />
<path d="M 39.5 70.5 L 39.666666666666664 70.0 L 40.0 69.0 L 40.0 68.0 L 39.666666666666664 67.0 L 39.0 66.33333333333333 L 38.0 66.0 L 37.0 66.0 L 36.0 66.0 L 35.0 66.0 L 34.0 66.0 L 33.0 65.66666666666667 L 32.0 65.33333333333333 L 31.0 65.0 L 30.0 65.0 L 29.0 65.0 L 28.0 65.0 L 27.0 65.33333333333333 L 26.0 65.66666666666667 L 25.0 66.0 L 24.0 66.0 L 23.0 66.0 L 22.333333333333332 66.33333333333333 L 21.666666666666668 67.0 L 21.333333333333332 68.0 L 21.0 69.0 L 21.0 70.0 L 21.0 71.0 L 21.0 72.0 L 21.0 73.0 L 21.0 74.0 L 21.333333333333332 75.0 L 22.0 75.66666666666667 L 23.0 76.0 L 24.0 75.66666666666667 L 25.0 75.0 L 26.0 74.0 L 27.0 73.66666666666667 L 28.0 74.0 L 28.333333333333332 75.0 L 28.333333333333332 76.0 L 28.0 77.0 L 27.666666666666668 78.0 L 27.333333333333332 79.0 L 27.0 80.0 L 27.0 81.0 L 27.0 82.0 L 27.0 83.0 L 27.0 84.0 L 27.0 85.0 L 27.333333333333332 85.66666666666667 L 28.0 86.0 L 29.0 86.0 L 30.0 86.0 L 31.0 86.0 L 32.0 86.0 L 33.0 86.0 L 34.0 86.0 L 35.0 85.66666666666667 L 35.666666666666664 85.0 L 36.0 84.0 L 36.0 83.0 L 36.0 82.0 L 36.0 81.0 L 36.0 80.0 L 36.0 79.0 L 36.0 78.0 L 36.333333333333336 77.0 L 36.666666666666664 76.0 L 37.0 75.0 L 37.333333333333336 74.0 L 37.666666666666664 73.0 L 38.333333333333336 72.0 L 38.5 71.5 Z" stroke="none" fill="rgb(255,43,38)" />
<path d="M 59.5 86.0 L 60.0 86.0 L 61.0 86.0 L 61.666666666666664 85.66666666666667 L 62.333333333333336 85.0 L 62.666666666666664 84.0 L 63.0 83.0 L 63.0 82.0 L 63.0 81.0 L 63.0 80.0 L 63.0 79.0 L 63.0 78.0 L 63.0 77.0 L 63.333333333333336 76.0 L 63.666666666666664 75.0 L 64.33333333333333 74.0 L 64.66666666666667 73.0 L 65.33333333333333 72.0 L 65.66666666666667 71.0 L 66.33333333333333 70.0 L 66.66666666666667 69.0 L 67.0 68.0 L 66.66666666666667 67.0 L 66.0 66.33333333333333 L 65.0 66.0 L 64.0 66.0 L 63.0 66.0 L 62.0 66.0 L 61.0 66.0 L 60.0 65.66666666666667 L 59.0 65.33333333333333 L 58.0 65.0 L 57.0 65.0 L 56.0 65.0 L 55.0 65.0 L 54.0 65.33333333333333 L 53.0 65.66666666666667 L 52.0 66.0 L 51.0 66.0 L 50.0 66.0 L 49.0 66.33333333333333 L 48.333333333333336 67.0 L 48.0 68.0 L 48.0 69.0 L 48.0 70.0 L 48.0 71.0 L 48.0 72.0 L 48.0 73.0 L 48.333333333333336 74.0 L 49.0 74.66666666666667 L 50.0 75.0 L 51.0 75.0 L 52.0 74.66666666666667 L 53.0 74.0 L 54.0 73.66666666666667 L 55.0 74.0 L 55.333333333333336 75.0 L 55.333333333333336 76.0 L 55.0 77.0 L 54.666666666666664 78.0 L 54.333333333333336 79.0 L 54.0 80.0 L 54.0 81.0 L 54.0 82.0 L 54.0 83.0 L 54.0 84.0 L 54.0 85.0 L 54.333333333333336 85.66666666666667 L 55.0 86.0 L 56.0 86.0 L 57.0 86.0 L 58.0 86.0 L 58.5 86.0 Z" stroke="none" fill="rgb(255,43,38)" />
<path d="M 110.5 90.0 L 111.0 90.0 L 112.0 90.0 L 112.66666666666667 89.66666666666667 L 113.0 89.0 L 113.0 88.0 L 113.0 87.0 L 113.0 86.0 L 113.0 85.0 L 113.0 84.0 L 113.0 83.0 L 113.0 82.0 L 113.33333333333333 81.0 L 113.66666666666667 80.0 L 114.0 79.0 L 114.0 78.0 L 114.0 77.0 L 114.0 76.0 L 113.66666666666667 75.33333333333333 L 113.0 74.66666666666667 L 112.0 74.0 L 111.0 73.0 L 110.0 72.33333333333333 L 109.0 72.0 L 108.33333333333333 72.33333333333333 L 108.0 73.0 L 108.0 74.0 L 108.0 75.0 L 108.0 76.0 L 108.0 77.0 L 108.0 78.0 L 108.0 79.0 L 108.0 80.0 L 108.0 81.0 L 108.0 82.0 L 108.0 83.0 L 108.0 84.0 L 108.0 85.0 L 108.0 86.0 L 108.0 87.0 L 108.0 88.0 L 108.0 89.0 L 108.33333333333333 89.66666666666667 L 109.0 90.0 L 109.5 90.0 Z" stroke="none" fill="rgb(0,0,0)" />
<path d="M 110.5 97.0 L 111.0 97.0 L 112.0 97.0 L 113.0 97.0 L 114.0 97.0 L 115.0 97.0 L 116.0 97.0 L 117.0 97.0 L 118.0 96.66666666666667 L 118.66666666666667 96.0 L 119.33333333333333 95.0 L 119.66666666666667 94.0 L 120.0 93.0 L 120.0 92.0 L 120.0 91.0 L 120.0 90.0 L 120.0 89.0 L 120.0 88.0 L 120.0 87.0 L 120.0 86.0 L 120.0 85.0 L 120.0 84.0 L 120.0 83.0 L 120.0 82.0 L 120.0 81.0 L 120.0 80.0 L 120.0 79.0 L 120.0 78.0 L 120.0 77.0 L 119.66666666666667 76.33333333333333 L 119.0 76.0 L 118.0 76.0 L 117.0 76.0 L 116.0 76.0 L 115.0 76.0 L 114.33333333333333 76.33333333333333 L 114.0 77.0 L 114.0 78.0 L 113.66666666666667 79.0 L 113.33333333333333 80.0 L 113.0 81.0 L 113.0 82.0 L 113.0 83.0 L 113.0 84.0 L 113.0 85.0 L 113.0 86.0 L 113.0 87.0 L 113.0 88.0 L 112.66666666666667 89.0 L 112.0 89.66666666666667 L 111.0 90.0 L 110.0 90.0 L 109.0 90.0 L 108.33333333333333 90.33333333333333 L 108.0 91.0 L 108.0 92.0 L 108.0 93.0 L 108.0 94.0 L 108.0 95.0 L 108.0 96.0 L 108.33333333333333 96.66666666666667 L 109.0 97.0 L 109.5 97.0 Z" stroke="none" fill="rgb(154,154,154)" />
<path d="M 30.5 92.0 L 31.0 92.0 L 32.0 92.0 L 33.0 92.0 L 34.0 92.0 L 35.0 92.0 L 36.0 92.0 L 36.666666666666664 91.66666666666667 L 36.666666666666664 91.0 L 36.0 90.0 L 35.0 89.33333333333333 L 34.0 89.0 L 33.0 89.0 L 32.0 89.33333333333333 L 31.0 89.66666666666667 L 30.0 90.0 L 29.333333333333332 90.33333333333333 L 29.0 91.0 L 29.333333333333332 91.66666666666667 L 29.5 92.0 Z" stroke="none" fill="rgb(255,176,41)" />
<path d="M 85.5 92.0 L 86.0 92.0 L 87.0 92.0 L 87.66666666666667 91.66666666666667 L 88.0 91.0 L 87.66666666666667 90.0 L 87.0 89.33333333333333 L 86.0 89.0 L 85.0 89.0 L 84.0 89.0 L 83.0 89.0 L 82.0 89.0 L 81.0 89.0 L 80.0 89.33333333333333 L 79.33333333333333 90.0 L 79.0 91.0 L 79.33333333333333 91.66666666666667 L 80.0 92.0 L 81.0 92.0 L 82.0 92.0 L 83.0 92.0 L 84.0 92.0 L 84.5 92.0 Z" stroke="none" fill="rgb(157,92,172)" />
<path d="M 95.5 121.0 L 96.0 121.0 L 97.0 121.0 L 98.0 121.0 L 99.0 121.0 L 100.0 121.0 L 101.0 121.0 L 102.0 121.0 L 103.0 121.0 L 104.0 121.0 L 105.0 121.0 L 106.0 121.0 L 107.0 121.0 L 108.0 121.0 L 109.0 120.66666666666667 L 110.0 120.33333333333333 L 110.66666666666667 119.66666666666667 L 111.0 119.0 L 111.0 118.0 L 111.0 117.0 L 111.0 116.0 L 111.0 115.0 L 111.0 114.0 L 111.33333333333333 113.0 L 111.66666666666667 112.0 L 112.0 111.0 L 112.0 110.0 L 112.0 109.0 L 112.0 108.0 L 112.0 107.0 L 111.66666666666667 106.0 L 111.33333333333333 105.0 L 110.66666666666667 104.33333333333333 L 110.0 104.0 L 109.0 104.0 L 108.0 104.0 L 107.0 104.0 L 106.0 104.0 L 105.0 104.0 L 104.0 104.0 L 103.0 104.0 L 102.0 104.0 L 101.0 104.0 L 100.0 104.0 L 99.0 104.0 L 98.0 104.0 L 97.0 104.0 L 96.0 104.0 L 95.0 104.0 L 94.0 104.0 L 93.0 104.0 L 92.0 104.0 L 91.0 104.0 L 90.0 104.0 L 89.0 104.0 L 88.0 104.0 L 87.0 104.0 L 86.0 104.0 L 85.0 104.0 L 84.0 104.0 L 83.0 104.0 L 82.0 104.0 L 81.0 104.0 L 80.0 104.0 L 79.0 104.0 L 78.0 104.0 L 77.0 104.0 L 76.0 104.0 L 75.0 104.0 L 74.0 104.0 L 73.0 104.0 L 72.0 104.0 L 71.0 104.0 L 70.0 104.0 L 69.0 104.0 L 68.0 104.0 L 67.0 104.0 L 66.0 104.0 L 65.0 104.0 L 64.0 104.0 L 63.0 104.0 L 62.0 104.0 L 61.0 104.0 L 60.0 104.0 L 59.0 104.0 L 58.0 104.0 L 57.0 104.0 L 56.0 104.0 L 55.0 104.0 L 54.0 104.0 L 53.0 104.0 L 52.0 104.0 L 51.0 104.0 L 50.0 104.0 L 49.0 104.0 L 48.0 104.0 L 47.0 104.0 L 46.0 104.0 L 45.0 104.0 L 44.0 104.0 L 43.0 104.0 L 42.0 104.0 L 41.0 104.0 L 40.0 104.0 L 39.0 104.0 L 38.0 104.0 L 37.0 104.0 L 36.0 104.0 L 35.0 104.0 L 34.0 104.0 L 33.0 104.0 L 32.0 104.0 L 31.0 104.0 L 30.0 104.0 L 29.0 104.0 L 28.0 104.0 L 27.0 104.0 L 26.0 104.0 L 25.0 104.0 L 24.0 104.0 L 23.0 104.0 L 22.0 104.0 L 21.0 104.0 L 20.0 104.0 L 19.0 104.0 L 18.0 104.0 L 17.0 104.0 L 16.0 104.0 L 15.0 104.0 L 14.0 104.0 L 13.0 104.0 L 12.0 104.0 L 11.0 104.0 L 10.0 104.0 L 9.0 104.0 L 8.0 104.0 L 7.0 104.0 L 6.0 104.0 L 5.0 104.0 L 4.0 104.33333333333333 L 3.3333333333333335 105.0 L 3.0 106.0 L 2.6666666666666665 107.0 L 2.3333333333333335 108.0 L 2.0 109.0 L 2.0 110.0 L 2.0 111.0 L 2.0 112.0 L 2.0 113.0 L 2.0 114.0 L 2.0 115.0 L 2.3333333333333335 116.0 L 2.6666666666666665 117.0 L 3.0 118.0 L 3.0 119.0 L 3.0 120.0 L 3.0 121.0 L 3.3333333333333335 121.66666666666667 L 4.0 122.0 L 5.0 122.0 L 6.0 122.0 L 7.0 122.0 L 8.0 122.0 L 9.0 122.0 L 10.0 122.0 L 11.0 122.0 L 12.0 122.0 L 13.0 122.0 L 14.0 122.0 L 15.0 122.0 L 16.0 122.0 L 17.0 122.0 L 18.0 122.0 L 19.0 122.0 L 20.0 122.0 L 21.0 122.0 L 22.0 122.0 L 23.0 122.0 L 24.0 122.0 L 25.0 122.0 L 26.0 122.0 L 27.0 122.0 L 28.0 122.0 L 29.0 122.0 L 30.0 122.0 L 31.0 122.0 L 32.0 122.0 L 33.0 122.0 L 34.0 122.0 L 35.0 122.0 L 36.0 122.0 L 37.0 122.0 L 38.0 122.0 L 39.0 122.0 L 40.0 122.0 L 41.0 122.0 L 42.0 122.0 L 43.0 122.0 L 44.0 122.0 L 45.0 122.0 L 46.0 122.0 L 47.0 122.0 L 48.0 122.0 L 49.0 122.0 L 50.0 122.0 L 51.0 122.0 L 52.0 122.0 L 53.0 122.0 L 54.0 122.0 L 55.0 122.0 L 56.0 122.0 L 57.0 122.0 L 58.0 122.0 L 59.0 122.0 L 60.0 122.0 L 61.0 122.0 L 62.0 122.0 L 63.0 122.0 L 64.0 122.0 L 65.0 122.0 L 66.0 122.0 L 67.0 122.0 L 68.0 122.0 L 69.0 122.0 L 70.0 122.0 L 71.0 122.0 L 72.0 122.0 L 73.0 122.0 L 74.0 122.0 L 75.0 122.0 L 76.0 122.0 L 77.0 122.0 L 78.0 122.0 L 79.0 122.0 L 80.0 122.0 L 81.0 122.0 L 82.0 122.0 L 83.0 122.0 L 84.0 122.0 L 85.0 122.0 L 86.0 122.0 L 87.0 122.0 L 88.0 122.0 L 89.0 121.66666666666667 L 90.0 121.33333333333333 L 91.0 121.0 L 92.0 121.0 L 93.0 121.0 L 94.0 121.0 L 94.5 121.0 Z" stroke="none" fill="rgb(154,154,154)" />
<path d="M 95.5 117.0 L 96.0 117.0 L 97.0 117.0 L 98.0 117.0 L 99.0 117.0 L 100.0 117.0 L 101.0 117.0 L 102.0 117.0 L 103.0 117.0 L 104.0 117.0 L 105.0 116.66666666666667 L 105.66666666666667 116.0 L 106.0 115.0 L 106.0 114.0 L 106.0 113.0 L 106.0 112.0 L 106.0 111.0 L 106.0 110.0 L 106.0 109.0 L 105.66666666666667 108.0 L 105.0 107.33333333333333 L 104.0 107.0 L 103.0 107.0 L 102.0 107.0 L 101.0 107.0 L 100.0 107.0 L 99.0 107.0 L 98.0 107.0 L 97.0 107.0 L 96.0 107.0 L 95.0 107.0 L 94.0 107.0 L 93.0 107.0 L 92.0 107.0 L 91.0 107.0 L 90.0 107.0 L 89.0 107.0 L 88.0 107.0 L 87.0 107.0 L 86.0 107.0 L 85.0 107.0 L 84.0 107.0 L 83.0 107.0 L 82.0 107.0 L 81.0 107.0 L 80.0 107.0 L 79.0 107.0 L 78.0 107.0 L 77.0 107.0 L 76.0 107.0 L 75.0 107.33333333333333 L 74.0 107.66666666666667 L 73.0 108.0 L 72.0 108.0 L 71.0 108.0 L 70.0 108.0 L 69.0 108.0 L 68.0 108.0 L 67.0 108.0 L 66.0 108.0 L 65.0 108.0 L 64.0 108.0 L 63.0 108.0 L 62.0 108.0 L 61.0 108.0 L 60.0 108.0 L 59.0 108.0 L 58.0 108.0 L 57.0 108.0 L 56.0 108.0 L 55.0 108.0 L 54.0 108.0 L 53.0 108.0 L 52.0 108.0 L 51.0 108.0 L 50.0 108.0 L 49.0 108.0 L 48.0 108.0 L 47.0 108.0 L 46.0 108.0 L 45.0 108.0 L 44.0 108.0 L 43.0 108.0 L 42.0 108.0 L 41.0 108.0 L 40.0 108.0 L 39.0 108.0 L 38.0 108.0 L 37.0 108.0 L 36.0 108.0 L 35.0 108.0 L 34.0 108.0 L 33.0 108.0 L 32.0 108.0 L 31.0 108.0 L 30.0 108.0 L 29.0 108.0 L 28.0 108.0 L 27.0 108.0 L 26.0 108.0 L 25.0 108.0 L 24.0 108.0 L 23.0 108.0 L 22.0 108.0 L 21.0 108.0 L 20.0 108.0 L 19.0 108.0 L 18.0 108.0 L 17.0 108.0 L 16.0 108.0 L 15.0 108.0 L 14.0 108.0 L 13.0 108.0 L 12.0 108.0 L 11.0 108.0 L 10.0 108.0 L 9.0 108.33333333333333 L 8.333333333333334 109.0 L 8.0 110.0 L 8.0 111.0 L 8.0 112.0 L 8.0 113.0 L 8.0 114.0 L 8.0 115.0 L 8.333333333333334 116.0 L 9.0 116.66666666666667 L 10.0 117.0 L 11.0 117.0 L 12.0 117.0 L 13.0 117.0 L 14.0 117.0 L 15.0 117.0 L 16.0 117.0 L 17.0 117.0 L 18.0 117.0 L 19.0 117.0 L 20.0 117.0 L 21.0 117.0 L 22.0 117.0 L 23.0 117.0 L 24.0 117.0 L 25.0 117.0 L 26.0 117.0 L 27.0 117.0 L 28.0 117.0 L 29.0 117.0 L 30.0 117.0 L 31.0 117.0 L 32.0 117.0 L 33.0 117.0 L 34.0 117.0 L 35.0 117.0 L 36.0 117.0 L 37.0 117.0 L 38.0 117.0 L 39.0 117.0 L 40.0 117.0 L 41.0 117.0 L 42.0 117.0 L 43.0 117.0 L 44.0 117.0 L 45.0 117.0 L 46.0 117.0 L 47.0 117.0 L 48.0 117.0 L 49.0 117.0 L 50.0 117.0 L 51.0 117.0 L 52.0 117.0 L 53.0 117.0 L 54.0 117.0 L 55.0 117.0 L 56.0 117.0 L 57.0 117.0 L 58.0 117.0 L 59.0 117.0 L 60.0 117.0 L 61.0 117.0 L 62.0 117.0 L 63.0 117.0 L 64.0 117.0 L 65.0 117.0 L 66.0 117.0 L 67.0 117.0 L 68.0 117.0 L 69.0 117.0 L 70.0 117.0 L 71.0 117.0 L 72.0 117.0 L 73.0 117.0 L 74.0 117.0 L 75.0 117.0 L 76.0 117.0 L 77.0 117.0 L 78.0 117.0 L 79.0 117.0 L 80.0 117.0 L 81.0 117.0 L 82.0 117.0 L 83.0 117.0 L 84.0 117.0 L 85.0 117.0 L 86.0 117.0 L 87.0 117.0 L 88.0 117.0 L 89.0 117.0 L 90.0 117.0 L 91.0 117.0 L 92.0 117.0 L 93.0 117.0 L 94.0 117.0 L 94.5 117.0 Z" stroke="none" fill="rgb(133,133,134)" />
</svg>
