<?xml version="1.0" encoding="UTF-8" standalone="no"?>
<!DOCTYPE svg PUBLIC "-//W3C//DTD SVG 1.1//EN"
"http://www.w3.org/Graphics/SVG/1.1/DTD/svg11.dtd">
<svg width="128" height="128" xmlns="http://www.w3.org/2000/svg" version="1.1">
<path d="M 26.5 128.0 L 27.0 128.0 L 28.0 128.0 L 29.0 128.0 L 30.0 128.0 L 31.0 128.0 L 32.0 128.0 L 33.0 128.0 L 34.0 128.0 L 35.0 128.0 L 36.0 128.0 L 37.0 128.0 L 38.0 128.0 L 39.0 128.0 L 40.0 128.0 L 41.0 128.0 L 42.0 128.0 L 43.0 128.0 L 44.0 128.0 L 45.0 128.0 L 46.0 128.0 L 47.0 128.0 L 48.0 128.0 L 49.0 128.0 L 50.0 128.0 L 51.0 128.0 L 52.0 128.0 L 53.0 128.0 L 54.0 128.0 L 55.0 128.0 L 56.0 128.0 L 57.0 128.0 L 58.0 128.0 L 59.0 128.0 L 60.0 128.0 L 61.0 128.0 L 62.0 128.0 L 63.0 128.0 L 64.0 128.0 L 65.0 128.0 L 66.0 128.0 L 67.0 128.0 L 68.0 128.0 L 69.0 128.0 L 70.0 128.0 L 71.0 128.0 L 72.0 128.0 L 73.0 128.0 L 74.0 128.0 L 75.0 128.0 L 76.0 128.0 L 77.0 128.0 L 78.0 128.0 L 79.0 128.0 L 80.0 128.0 L 81.0 128.0 L 82.0 128.0 L 83.0 128.0 L 84.0 128.0 L 85.0 128.0 L 86.0 128.0 L 87.0 128.0 L 88.0 128.0 L 89.0 128.0 L 90.0 128.0 L 91.0 128.0 L 92.0 128.0 L 93.0 128.0 L 94.0 128.0 L 95.0 128.0 L 96.0 128.0 L 97.0 128.0 L 98.0 128.0 L 99.0 128.0 L 100.0 128.0 L 101.0 128.0 L 102.0 128.0 L 103.0 128.0 L 104.0 128.0 L 105.0 128.0 L 106.0 128.0 L 107.0 128.0 L 108.0 128.0 L 109.0 128.0 L 110.0 128.0 L 111.0 128.0 L 112.0 128.0 L 113.0 128.0 L 114.0 128.0 L 115.0 128.0 L 116.0 128.0 L 117.0 128.0 L 118.0 128.0 L 119.0 128.0 L 120.0 128.0 L 121.0 128.0 L 122.0 128.0 L 123.0 128.0 L 124.0 128.0 L 125.0 128.0 L 126.0 128.0 L 127.0 128.0 L 127.66666666666667 127.66666666666667 L 128.0 127.0 L 128.0 126.0 L 128.0 125.0 L 128.0 124.0 L 128.0 123.0 L 128.0 122.0 L 128.0 121.0 L 128.0 120.0 L 128.0 119.0 L 128.0 118.0 L 128.0 117.0 L 128.0 116.0 L 128.0 115.0 L 128.0 114.0 L 128.0 113.0 L 128.0 112.0 L 128.0 111.0 L 128.0 110.0 L 128.0 109.0 L 128.0 108.0 L 128.0 107.0 L 128.0 106.0 L 128.0 105.0 L 128.0 104.0 L 128.0 103.0 L 128.0 102.0 L 128.0 101.0 L 128.0 100.0 L 128.0 99.0 L 128.0 98.0 L 128.0 97.0 L 128.0 96.0 L 128.0 95.0 L 128.0 94.0 L 128.0 93.0 L 128.0 92.0 L 128.0 91.0 L 128.0 90.0 L 128.0 89.0 L 128.0 88.0 L 128.0 87.0 L 128.0 86.0 L 128.0 85.0 L 128.0 84.0 L 128.0 83.0 L 128.0 82.0 L 128.0 81.0 L 128.0 80.0 L 128.0 79.0 L 128.0 78.0 L 128.0 77.0 L 128.0 76.0 L 128.0 75.0 L 128.0 74.0 L 128.0 73.0 L 128.0 72.0 L 128.0 71.0 L 128.0 70.0 L 128.0 69.0 L 128.0 68.0 L 128.0 67.0 L 128.0 66.0 L 128.0 65.0 L 128.0 64.0 L 128.0 63.0 L 128.0 62.0 L 128.0 61.0 L 128.0 60.0 L 128.0 59.0 L 128.0 58.0 L 128.0 57.0 L 128.0 56.0 L 128.0 55.0 L 128.0 54.0 L 128.0 53.0 L 128.0 52.0 L 128.0 51.0 L 128.0 50.0 L 128.0 49.0 L 128.0 48.0 L 128.0 47.0 L 128.0 46.0 L 128.0 45.0 L 128.0 44.0 L 128.0 43.0 L 128.0 42.0 L 128.0 41.0 L 128.0 40.0 L 128.0 39.0 L 128.0 38.0 L 128.0 37.0 L 128.0 36.0 L 128.0 35.0 L 128.0 34.0 L 128.0 33.0 L 128.0 32.0 L 128.0 31.0 L 128.0 30.0 L 128.0 29.0 L 128.0 28.0 L 128.0 27.0 L 128.0 26.0 L 128.0 25.0 L 128.0 24.0 L 128.0 23.0 L 128.0 22.0 L 128.0 21.0 L 128.0 20.0 L 128.0 19.0 L 128.0 18.0 L 128.0 17.0 L 128.0 16.0 L 128.0 15.0 L 128.0 14.0 L 128.0 13.0 L 128.0 12.0 L 128.0 11.0 L 128.0 10.0 L 128.0 9.0 L 128.0 8.0 L 128.0 7.0 L 128.0 6.0 L 128.0 5.0 L 128.0 4.0 L 128.0 3.0 L 128.0 2.0 L 128.0 1.0 L 127.66666666666667 0.3333333333333333 L 127.0 0.0 L 126.0 0.0 L 125.0 0.0 L 124.0 0.0 L 123.0 0.0 L 122.0 0.0 L 121.0 0.0 L 120.0 0.0 L 119.0 0.0 L 118.0 0.0 L 117.0 0.0 L 116.0 0.0 L 115.0 0.0 L 114.0 0.0 L 113.0 0.0 L 112.0 0.0 L 111.0 0.0 L 110.0 0.0 L 109.0 0.0 L 108.0 0.0 L 107.0 0.0 L 106.0 0.0 L 105.0 0.0 L 104.0 0.0 L 103.0 0.0 L 102.0 0.0 L 101.0 0.0 L 100.0 0.0 L 99.0 0.0 L 98.0 0.0 L 97.0 0.0 L 96.0 0.0 L 95.0 0.0 L 94.0 0.0 L 93.0 0.0 L 92.0 0.0 L 91.0 0.0 L 90.0 0.0 L 89.0 0.0 L 88.0 0.0 L 87.0 0.0 L 86.0 0.0 L 85.0 0.0 L 84.0 0.0 L 83.0 0.0 L 82.0 0.0 L 81.0 0.0 L 80.0 0.0 L 79.0 0.0 L 78.0 0.0 L 77.0 0.0 L 76.0 0.0 L 75.0 0.0 L 74.0 0.0 L 73.0 0.0 L 72.0 0.0 L 71.0 0.0 L 70.0 0.0 L 69.0 0.0 L 68.0 0.0 L 67.0 0.0 L 66.0 0.0 L 65.0 0.0 L 64.0 0.0 L 63.0 0.0 L 62.0 0.0 L 61.0 0.0 L 60.0 0.0 L 59.0 0.0 L 58.0 0.0 L 57.0 0.0 L 56.0 0.0 L 55.0 0.0 L 54.0 0.0 L 53.0 0.0 L 52.0 0.0 L 51.0 0.0 L 50.0 0.0 L 49.0 0.0 L 48.0 0.0 L 47.0 0.0 L 46.0 0.0 L 45.0 0.0 L 44.0 0.0 L 43.0 0.0 L 42.0 0.0 L 41.0 0.0 L 40.0 0.0 L 39.0 0.0 L 38.0 0.0 L 37.0 0.0 L 36.0 0.0 L 35.0 0.0 L 34.0 0.0 L 33.0 0.0 L 32.0 0.0 L 31.0 0.0 L 30.0 0.0 L 29.0 0.0 L 28.0 0.0 L 27.0 0.0 L 26.0 0.0 L 25.0 0.0 L 24.0 0.0 L 23.0 0.0 L 22.0 0.0 L 21.0 0.0 L 20.0 0.0 L 19.0 0.0 L 18.0 0.0 L 17.0 0.0 L 16.0 0.0 L 15.0 0.0 L 14.0 0.0 L 13.0 0.0 L 12.0 0.0 L 11.0 0.0 L 10.0 0.0 L 9.0 0.0 L 8.0 0.0 L 7.0 0.0 L 6.0 0.0 L 5.0 0.0 L 4.0 0.0 L 3.0 0.0 L 2.0 0.0 L 1.0 0.0 L 0.3333333333333333 0.3333333333333333 L 0.0 1.0 L 0.0 2.0 L 0.0 3.0 L 0.0 4.0 L 0.0 5.0 L 0.0 6.0 L 0.0 7.0 L 0.0 8.0 L 0.0 9.0 L 0.0 10.0 L 0.0 11.0 L 0.0 12.0 L 0.0 13.0 L 0.0 14.0 L 0.0 15.0 L 0.0 16.0 L 0.0 17.0 L 0.0 18.0 L 0.0 19.0 L 0.0 20.0 L 0.0 21.0 L 0.0 22.0 L 0.0 23.0 L 0.0 24.0 L 0.0 25.0 L 0.0 26.0 L 0.0 27.0 L 0.0 28.0 L 0.0 29.0 L 0.0 30.0 L 0.0 31.0 L 0.0 32.0 L 0.0 33.0 L 0.0 34.0 L 0.0 35.0 L 0.0 36.0 L 0.0 37.0 L 0.0 38.0 L 0.0 39.0 L 0.0 40.0 L 0.0 41.0 L 0.0 42.0 L 0.0 43.0 L 0.0 44.0 L 0.0 45.0 L 0.0 46.0 L 0.0 47.0 L 0.0 48.0 L 0.0 49.0 L 0.0 50.0 L 0.0 51.0 L 0.0 52.0 L 0.0 53.0 L 0.0 54.0 L 0.0 55.0 L 0.0 56.0 L 0.0 57.0 L 0.0 58.0 L 0.0 59.0 L 0.0 60.0 L 0.0 61.0 L 0.0 62.0 L 0.0 63.0 L 0.0 64.0 L 0.0 65.0 L 0.0 66.0 L 0.0 67.0 L 0.0 68.0 L 0.0 69.0 L 0.0 70.0 L 0.0 71.0 L 0.0 72.0 L 0.0 73.0 L 0.0 74.0 L 0.0 75.0 L 0.0 76.0 L 0.0 77.0 L 0.0 78.0 L 0.0 79.0 L 0.0 80.0 L 0.0 81.0 L 0.0 82.0 L 0.0 83.0 L 0.0 84.0 L 0.0 85.0 L 0.0 86.0 L 0.0 87.0 L 0.0 88.0 L 0.0 89.0 L 0.0 90.0 L 0.0 91.0 L 0.0 92.0 L 0.0 93.0 L 0.0 94.0 L 0.0 95.0 L 0.0 96.0 L 0.0 97.0 L 0.0 98.0 L 0.0 99.0 L 0.0 100.0 L 0.0 101.0 L 0.0 102.0 L 0.0 103.0 L 0.0 104.0 L 0.0 105.0 L 0.0 106.0 L 0.0 107.0 L 0.0 108.0 L 0.0 109.0 L 0.0 110.0 L 0.0 111.0 L 0.0 112.0 L 0.0 113.0 L 0.0 114.0 L 0.0 115.0 L 0.0 116.0 L 0.0 117.0 L 0.0 118.0 L 0.0 119.0 L 0.0 120.0 L 0.0 121.0 L 0.0 122.0 L 0.0 123.0 L 0.0 124.0 L 0.0 125.0 L 0.0 126.0 L 0.0 127.0 L 0.3333333333333333 127.66666666666667 L 1.0 128.0 L 2.0 128.0 L 3.0 128.0 L 4.0 128.0 L 5.0 128.0 L 6.0 128.0 L 7.0 128.0 L 8.0 128.0 L 9.0 128.0 L 10.0 128.0 L 11.0 128.0 L 12.0 128.0 L 13.0 128.0 L 14.0 128.0 L 15.0 128.0 L 16.0 128.0 L 17.0 128.0 L 18.0 128.0 L 19.0 128.0 L 20.0 128.0 L 21.0 128.0 L 22.0 128.0 L 23.0 128.0 L 24.0 128.0 L 25.0 128.0 L 25.5 128.0 Z" stroke="none" fill="rgb(0,0,0)" />
<path d="M 21.0 37.5 L 21.333333333333332 37.0 L 22.0 36.0 L 23.0 35.0 L 24.0 34.0 L 25.0 33.0 L 26.0 32.0 L 27.0 31.0 L 28.0 30.0 L 29.0 29.333333333333332 L 30.0 28.666666666666668 L 31.0 28.333333333333332 L 32.0 28.333333333333332 L 33.0 29.0 L 34.0 30.0 L 35.0 31.0 L 36.0 31.666666666666668 L 37.0 31.666666666666668 L 37.666666666666664 31.0 L 38.0 30.0 L 37.666666666666664 29.0 L 37.333333333333336 28.0 L 37.0 27.0 L 37.0 26.0 L 36.666666666666664 25.0 L 36.333333333333336 24.0 L 35.666666666666664 23.333333333333332 L 35.0 22.666666666666668 L 34.0 22.333333333333332 L 33.0 22.0 L 32.0 21.666666666666668 L 31.0 21.333333333333332 L 30.0 21.0 L 29.0 20.666666666666668 L 28.0 20.333333333333332 L 27.0 19.666666666666668 L 26.0 19.333333333333332 L 25.0 18.666666666666668 L 24.0 18.0 L 23.0 17.333333333333332 L 22.0 16.666666666666668 L 21.0 16.0 L 20.0 15.333333333333334 L 19.0 14.666666666666666 L 18.0 14.0 L 17.0 13.0 L 16.0 12.333333333333334 L 15.0 11.666666666666666 L 14.0 11.0 L 13.0 10.0 L 12.0 9.0 L 11.0 8.0 L 10.0 7.0 L 9.0 6.333333333333333 L 8.0 6.0 L 7.0 6.0 L 6.0 6.333333333333333 L 5.333333333333333 7.0 L 5.0 8.0 L 5.0 9.0 L 5.0 10.0 L 5.0 11.0 L 5.0 12.0 L 5.0 13.0 L 5.0 14.0 L 5.0 15.0 L 5.0 16.0 L 5.0 17.0 L 5.0 18.0 L 5.0 19.0 L 5.333333333333333 20.0 L 5.666666666666667 21.0 L 6.0 22.0 L 6.0 23.0 L 6.0 24.0 L 6.0 25.0 L 6.333333333333333 26.0 L 6.666666666666667 27.0 L 7.0 28.0 L 7.0 29.0 L 7.333333333333333 30.0 L 7.666666666666667 31.0 L 8.0 32.0 L 8.333333333333334 33.0 L 8.666666666666666 34.0 L 9.0 35.0 L 9.333333333333334 36.0 L 9.666666666666666 37.0 L 10.333333333333334 38.0 L 10.666666666666666 39.0 L 11.333333333333334 40.0 L 11.666666666666666 41.0 L 12.333333333333334 42.0 L 13.0 43.0 L 13.666666666666666 44.0 L 14.333333333333334 44.666666666666664 L 15.0 45.0 L 16.0 44.666666666666664 L 16.666666666666668 44.0 L 17.333333333333332 43.0 L 18.0 42.0 L 18.666666666666668 41.0 L 19.333333333333332 40.0 L 20.0 39.0 L 20.5 38.5 Z" stroke="none" fill="rgb(121,45,133)" />
<path d="M 95.5 110.5 L 96.0 110.33333333333333 L 97.0 109.66666666666667 L 98.0 109.0 L 99.0 108.0 L 100.0 107.33333333333333 L 101.0 106.66666666666667 L 102.0 106.0 L 103.0 105.0 L 104.0 104.0 L 105.0 103.0 L 105.66666666666667 102.0 L 106.33333333333333 101.0 L 107.0 100.0 L 108.0 99.0 L 108.66666666666667 98.0 L 109.33333333333333 97.0 L 109.66666666666667 96.0 L 110.33333333333333 95.0 L 111.0 94.0 L 111.66666666666667 93.0 L 112.0 92.0 L 112.33333333333333 91.0 L 112.66666666666667 90.0 L 113.33333333333333 89.0 L 113.66666666666667 88.0 L 114.0 87.0 L 114.33333333333333 86.0 L 114.66666666666667 85.0 L 115.0 84.0 L 115.0 83.0 L 115.33333333333333 82.0 L 115.66666666666667 81.0 L 116.0 80.0 L 116.0 79.0 L 116.0 78.0 L 116.0 77.0 L 116.33333333333333 76.0 L 116.66666666666667 75.0 L 117.0 74.0 L 117.0 73.0 L 117.0 72.0 L 117.0 71.0 L 117.0 70.0 L 117.0 69.0 L 117.0 68.0 L 117.0 67.0 L 117.0 66.0 L 117.0 65.0 L 117.0 64.0 L 117.0 63.0 L 117.0 62.0 L 116.66666666666667 61.0 L 116.33333333333333 60.0 L 116.0 59.0 L 116.0 58.0 L 116.0 57.0 L 116.0 56.0 L 115.66666666666667 55.0 L 115.33333333333333 54.0 L 115.0 53.0 L 114.66666666666667 52.0 L 114.33333333333333 51.0 L 114.0 50.0 L 113.66666666666667 49.0 L 113.33333333333333 48.0 L 113.0 47.0 L 113.33333333333333 46.0 L 114.0 45.0 L 114.66666666666667 44.0 L 115.33333333333333 43.0 L 115.66666666666667 42.0 L 116.33333333333333 41.0 L 116.66666666666667 40.0 L 117.33333333333333 39.0 L 117.66666666666667 38.0 L 118.33333333333333 37.0 L 118.66666666666667 36.0 L 119.0 35.0 L 119.33333333333333 34.0 L 119.66666666666667 33.0 L 120.0 32.0 L 120.33333333333333 31.0 L 120.66666666666667 30.0 L 121.0 29.0 L 121.0 28.0 L 121.33333333333333 27.0 L 121.66666666666667 26.0 L 122.0 25.0 L 122.0 24.0 L 122.0 23.0 L 122.0 22.0 L 122.33333333333333 21.0 L 122.66666666666667 20.0 L 123.0 19.0 L 123.0 18.0 L 123.0 17.0 L 123.0 16.0 L 123.0 15.0 L 123.0 14.0 L 123.0 13.0 L 123.0 12.0 L 123.0 11.0 L 123.0 10.0 L 123.0 9.0 L 123.0 8.0 L 122.66666666666667 7.333333333333333 L 122.0 7.0 L 121.0 7.0 L 120.0 7.0 L 119.0 7.0 L 118.0 7.333333333333333 L 117.0 8.0 L 116.0 9.0 L 115.0 10.0 L 114.0 11.0 L 113.0 12.0 L 112.0 12.666666666666666 L 111.0 13.333333333333334 L 110.0 14.0 L 109.0 15.0 L 108.0 15.666666666666666 L 107.0 16.333333333333332 L 106.0 17.0 L 105.0 17.666666666666668 L 104.0 18.333333333333332 L 103.0 18.666666666666668 L 102.0 19.333333333333332 L 101.0 19.666666666666668 L 100.0 20.333333333333332 L 99.0 20.666666666666668 L 98.0 21.333333333333332 L 97.0 21.666666666666668 L 96.0 22.0 L 95.0 22.333333333333332 L 94.0 22.666666666666668 L 93.0 23.0 L 92.33333333333333 23.333333333333332 L 92.0 24.0 L 92.33333333333333 25.0 L 93.0 25.666666666666668 L 94.0 26.333333333333332 L 95.0 27.0 L 96.0 28.0 L 97.0 28.666666666666668 L 98.0 29.333333333333332 L 99.0 30.0 L 100.0 31.0 L 101.0 32.0 L 102.0 33.0 L 103.0 34.0 L 104.0 35.0 L 105.0 36.0 L 106.0 37.0 L 106.66666666666667 38.0 L 107.0 39.0 L 107.33333333333333 40.0 L 107.66666666666667 41.0 L 108.33333333333333 42.0 L 108.66666666666667 43.0 L 109.33333333333333 44.0 L 109.66666666666667 45.0 L 110.33333333333333 46.0 L 110.66666666666667 47.0 L 111.0 48.0 L 111.0 49.0 L 111.33333333333333 50.0 L 111.66666666666667 51.0 L 112.0 52.0 L 112.0 53.0 L 112.33333333333333 54.0 L 112.66666666666667 55.0 L 113.0 56.0 L 113.0 57.0 L 113.0 58.0 L 113.0 59.0 L 113.33333333333333 60.0 L 113.66666666666667 61.0 L 114.0 62.0 L 114.0 63.0 L 114.0 64.0 L 114.0 65.0 L 114.0 66.0 L 114.0 67.0 L 114.0 68.0 L 114.0 69.0 L 114.0 70.0 L 114.0 71.0 L 114.0 72.0 L 114.0 73.0 L 114.0 74.0 L 114.0 75.0 L 113.66666666666667 76.0 L 113.33333333333333 77.0 L 113.0 78.0 L 112.66666666666667 79.0 L 112.33333333333333 80.0 L 112.0 81.0 L 111.66666666666667 82.0 L 111.33333333333333 83.0 L 111.0 84.0 L 110.66666666666667 85.0 L 110.33333333333333 86.0 L 109.66666666666667 87.0 L 109.33333333333333 88.0 L 108.66666666666667 89.0 L 108.33333333333333 90.0 L 107.66666666666667 91.0 L 107.0 92.0 L 106.33333333333333 93.0 L 105.66666666666667 94.0 L 105.0 95.0 L 104.0 96.0 L 103.0 97.0 L 102.33333333333333 98.0 L 101.66666666666667 99.0 L 101.0 100.0 L 100.0 101.0 L 99.0 102.0 L 98.0 103.0 L 97.0 104.0 L 96.0 105.0 L 95.0 106.0 L 94.0 106.66666666666667 L 93.0 107.33333333333333 L 92.0 107.66666666666667 L 91.0 108.33333333333333 L 90.0 109.0 L 89.0 109.66666666666667 L 88.0 110.33333333333333 L 87.0 110.66666666666667 L 86.0 111.33333333333333 L 85.0 111.66666666666667 L 84.0 112.0 L 83.0 112.33333333333333 L 82.0 112.66666666666667 L 81.0 113.0 L 80.0 113.33333333333333 L 79.0 113.66666666666667 L 78.0 114.0 L 77.0 114.33333333333333 L 76.0 114.66666666666667 L 75.0 115.0 L 74.0 115.0 L 73.0 115.0 L 72.0 115.0 L 71.0 115.0 L 70.0 115.0 L 69.0 115.0 L 68.0 115.0 L 67.0 115.0 L 66.0 115.0 L 65.0 115.0 L 64.0 115.0 L 63.0 115.0 L 62.0 115.0 L 61.0 115.0 L 60.0 115.0 L 59.0 115.0 L 58.0 115.0 L 57.0 115.0 L 56.0 115.0 L 55.0 115.0 L 54.0 115.0 L 53.0 115.0 L 52.0 114.66666666666667 L 51.0 114.33333333333333 L 50.0 114.0 L 49.0 114.0 L 48.0 114.0 L 47.0 113.66666666666667 L 46.0 113.33333333333333 L 45.0 112.66666666666667 L 44.0 112.33333333333333 L 43.0 112.0 L 42.0 112.0 L 41.0 112.0 L 40.0 111.66666666666667 L 39.0 111.33333333333333 L 38.0 110.66666666666667 L 37.0 110.33333333333333 L 36.0 110.0 L 35.333333333333336 110.33333333333333 L 35.0 111.0 L 35.333333333333336 112.0 L 36.0 112.66666666666667 L 37.0 113.33333333333333 L 38.0 113.66666666666667 L 39.0 114.33333333333333 L 40.0 114.66666666666667 L 41.0 115.0 L 42.0 115.33333333333333 L 43.0 115.66666666666667 L 44.0 116.0 L 45.0 116.33333333333333 L 46.0 116.66666666666667 L 47.0 117.0 L 48.0 117.33333333333333 L 49.0 117.66666666666667 L 50.0 118.0 L 51.0 118.0 L 52.0 118.33333333333333 L 53.0 118.66666666666667 L 54.0 119.0 L 55.0 119.0 L 56.0 119.0 L 57.0 119.0 L 58.0 119.0 L 59.0 119.0 L 60.0 119.0 L 61.0 119.0 L 62.0 119.0 L 63.0 119.0 L 64.0 119.0 L 65.0 119.0 L 66.0 119.0 L 67.0 119.0 L 68.0 119.0 L 69.0 119.0 L 70.0 119.0 L 71.0 119.0 L 72.0 119.0 L 73.0 119.0 L 74.0 118.66666666666667 L 75.0 118.33333333333333 L 76.0 118.0 L 77.0 118.0 L 78.0 118.0 L 79.0 117.66666666666667 L 80.0 117.33333333333333 L 81.0 117.0 L 82.0 117.0 L 83.0 116.66666666666667 L 84.0 116.33333333333333 L 85.0 115.66666666666667 L 86.0 115.33333333333333 L 87.0 115.0 L 88.0 114.66666666666667 L 89.0 114.33333333333333 L 90.0 113.66666666666667 L 91.0 113.33333333333333 L 92.0 112.66666666666667 L 93.0 112.33333333333333 L 94.0 111.66666666666667 L 94.5 111.5 Z" stroke="none" fill="rgb(121,45,133)" />
<path d="M 38.5 27.5 L 39.0 28.0 L 40.0 28.666666666666668 L 41.0 29.0 L 42.0 28.666666666666668 L 42.666666666666664 28.0 L 43.0 27.0 L 43.0 26.0 L 42.666666666666664 25.0 L 42.0 24.0 L 41.0 23.0 L 40.0 22.333333333333332 L 39.0 22.0 L 38.0 22.333333333333332 L 37.0 23.0 L 36.333333333333336 24.0 L 36.333333333333336 25.0 L 37.0 26.0 L 37.5 26.5 Z" stroke="none" fill="rgb(143,38,153)" />
<path d="M 95.5 106.5 L 96.0 106.0 L 97.0 105.0 L 98.0 104.0 L 99.0 103.0 L 100.0 102.0 L 101.0 101.0 L 101.66666666666667 100.0 L 102.33333333333333 99.0 L 103.0 98.0 L 104.0 97.0 L 105.0 96.0 L 105.66666666666667 95.0 L 106.33333333333333 94.0 L 107.0 93.0 L 107.66666666666667 92.0 L 108.33333333333333 91.0 L 108.66666666666667 90.0 L 109.33333333333333 89.0 L 109.66666666666667 88.0 L 110.33333333333333 87.0 L 110.66666666666667 86.0 L 111.0 85.0 L 111.33333333333333 84.0 L 111.66666666666667 83.0 L 112.0 82.0 L 112.33333333333333 81.0 L 112.66666666666667 80.0 L 113.0 79.0 L 113.33333333333333 78.0 L 113.66666666666667 77.0 L 114.0 76.0 L 114.0 75.0 L 114.0 74.0 L 114.0 73.0 L 114.0 72.0 L 114.0 71.0 L 114.0 70.0 L 114.0 69.0 L 114.0 68.0 L 114.0 67.0 L 114.0 66.0 L 114.0 65.0 L 114.0 64.0 L 114.0 63.0 L 114.0 62.0 L 114.0 61.0 L 113.66666666666667 60.0 L 113.33333333333333 59.0 L 113.0 58.0 L 113.0 57.0 L 113.0 56.0 L 113.0 55.0 L 112.66666666666667 54.0 L 112.0 53.0 L 111.0 52.0 L 110.0 51.0 L 109.0 50.0 L 108.0 49.0 L 107.0 48.0 L 106.0 47.0 L 105.0 46.0 L 104.0 45.0 L 103.0 44.0 L 102.0 43.0 L 101.0 42.0 L 100.0 41.0 L 99.0 40.0 L 98.0 39.0 L 97.0 38.0 L 96.0 37.0 L 95.0 36.0 L 94.0 35.0 L 93.0 34.0 L 92.0 33.333333333333336 L 91.0 32.666666666666664 L 90.0 32.0 L 89.0 31.0 L 88.0 30.333333333333332 L 87.0 29.666666666666668 L 86.0 29.333333333333332 L 85.0 28.666666666666668 L 84.0 28.0 L 83.0 27.333333333333332 L 82.0 27.0 L 81.0 26.666666666666668 L 80.0 26.333333333333332 L 79.0 25.666666666666668 L 78.0 25.333333333333332 L 77.0 25.0 L 76.0 24.666666666666668 L 75.0 24.333333333333332 L 74.0 24.0 L 73.0 24.0 L 72.0 24.0 L 71.0 24.0 L 70.0 24.0 L 69.0 24.0 L 68.0 24.0 L 67.0 24.0 L 66.0 24.0 L 65.0 24.0 L 64.0 24.0 L 63.0 24.0 L 62.0 24.0 L 61.0 24.0 L 60.0 24.0 L 59.0 24.0 L 58.0 24.0 L 57.0 24.0 L 56.0 24.333333333333332 L 55.0 24.666666666666668 L 54.0 25.0 L 53.0 25.0 L 52.0 25.333333333333332 L 51.0 25.666666666666668 L 50.0 26.0 L 49.0 26.333333333333332 L 48.0 26.666666666666668 L 47.0 27.0 L 46.0 27.0 L 45.0 27.333333333333332 L 44.0 28.0 L 43.0 28.666666666666668 L 42.0 29.0 L 41.0 29.333333333333332 L 40.0 30.0 L 39.0 30.666666666666668 L 38.0 31.333333333333332 L 37.0 32.0 L 36.0 33.0 L 35.0 34.0 L 34.0 35.0 L 33.0 36.0 L 32.0 37.0 L 31.0 38.0 L 30.0 39.0 L 29.0 40.0 L 28.0 41.0 L 27.0 42.0 L 26.333333333333332 43.0 L 25.666666666666668 44.0 L 25.0 45.0 L 24.333333333333332 46.0 L 23.666666666666668 47.0 L 23.333333333333332 48.0 L 23.0 49.0 L 22.666666666666668 50.0 L 22.333333333333332 51.0 L 21.666666666666668 52.0 L 21.333333333333332 53.0 L 21.0 54.0 L 21.0 55.0 L 20.666666666666668 56.0 L 20.333333333333332 57.0 L 20.0 58.0 L 20.0 59.0 L 20.0 60.0 L 19.666666666666668 61.0 L 19.333333333333332 62.0 L 19.0 63.0 L 19.0 64.0 L 19.0 65.0 L 19.0 66.0 L 19.0 67.0 L 19.0 68.0 L 19.0 69.0 L 19.0 70.0 L 19.0 71.0 L 19.0 72.0 L 19.0 73.0 L 19.0 74.0 L 19.0 75.0 L 19.0 76.0 L 19.0 77.0 L 19.0 78.0 L 19.333333333333332 79.0 L 19.666666666666668 80.0 L 20.0 81.0 L 20.333333333333332 82.0 L 20.666666666666668 83.0 L 21.0 84.0 L 21.333333333333332 85.0 L 21.666666666666668 86.0 L 22.333333333333332 87.0 L 22.666666666666668 88.0 L 23.333333333333332 89.0 L 23.666666666666668 90.0 L 24.333333333333332 91.0 L 24.666666666666668 92.0 L 25.333333333333332 93.0 L 26.0 94.0 L 26.666666666666668 95.0 L 27.333333333333332 96.0 L 28.0 97.0 L 29.0 98.0 L 30.0 99.0 L 31.0 100.0 L 32.0 101.0 L 33.0 102.0 L 34.0 103.0 L 35.0 104.0 L 36.0 105.0 L 37.0 106.0 L 38.0 107.0 L 39.0 108.0 L 40.0 109.0 L 41.0 110.0 L 42.0 111.0 L 43.0 112.0 L 44.0 112.66666666666667 L 45.0 113.33333333333333 L 46.0 113.66666666666667 L 47.0 114.0 L 48.0 114.0 L 49.0 114.0 L 50.0 114.33333333333333 L 51.0 114.66666666666667 L 52.0 115.0 L 53.0 115.0 L 54.0 115.0 L 55.0 115.0 L 56.0 115.0 L 57.0 115.0 L 58.0 115.0 L 59.0 115.0 L 60.0 115.0 L 61.0 115.0 L 62.0 115.0 L 63.0 115.0 L 64.0 115.0 L 65.0 115.0 L 66.0 115.0 L 67.0 115.0 L 68.0 115.0 L 69.0 115.0 L 70.0 115.0 L 71.0 115.0 L 72.0 115.0 L 73.0 115.0 L 74.0 115.0 L 75.0 115.0 L 76.0 115.0 L 77.0 114.66666666666667 L 78.0 114.33333333333333 L 79.0 114.0 L 80.0 113.66666666666667 L 81.0 113.33333333333333 L 82.0 113.0 L 83.0 112.66666666666667 L 84.0 112.33333333333333 L 85.0 112.0 L 86.0 111.66666666666667 L 87.0 111.33333333333333 L 88.0 110.66666666666667 L 89.0 110.33333333333333 L 90.0 109.66666666666667 L 91.0 109.0 L 92.0 108.33333333333333 L 93.0 107.66666666666667 L 94.0 107.33333333333333 L 94.5 107.0 Z" stroke="none" fill="rgb(224,11,227)" />
<path d="M 38.5 30.5 L 39.0 30.666666666666668 L 40.0 30.666666666666668 L 40.666666666666664 30.0 L 40.666666666666664 29.0 L 40.0 28.0 L 39.0 27.0 L 38.0 26.333333333333332 L 37.0 26.333333333333332 L 36.333333333333336 27.0 L 36.333333333333336 28.0 L 37.0 29.0 L 37.5 29.5 Z" stroke="none" fill="rgb(173,28,180)" />
<path d="M 44.0 26.5 L 43.666666666666664 26.333333333333332 L 43.333333333333336 26.333333333333332 L 43.333333333333336 26.666666666666668 L 43.5 27.0 Z" stroke="none" fill="rgb(202,18,207)" />
<path d="M 101.5 36.5 L 102.0 37.0 L 103.0 38.0 L 104.0 39.0 L 105.0 40.0 L 105.66666666666667 41.0 L 106.33333333333333 42.0 L 106.66666666666667 43.0 L 107.33333333333333 44.0 L 107.66666666666667 45.0 L 108.33333333333333 46.0 L 108.66666666666667 47.0 L 109.33333333333333 48.0 L 110.0 48.666666666666664 L 110.66666666666667 48.666666666666664 L 111.0 48.0 L 111.0 47.0 L 110.66666666666667 46.0 L 110.33333333333333 45.0 L 109.66666666666667 44.0 L 109.33333333333333 43.0 L 108.66666666666667 42.0 L 108.33333333333333 41.0 L 107.66666666666667 40.0 L 107.33333333333333 39.0 L 107.0 38.0 L 106.66666666666667 37.0 L 106.0 36.0 L 105.0 35.0 L 104.0 34.0 L 103.0 33.0 L 102.0 32.0 L 101.0 31.0 L 100.0 30.0 L 99.0 29.333333333333332 L 98.0 28.666666666666668 L 97.0 28.0 L 96.0 27.0 L 95.0 26.333333333333332 L 94.0 26.0 L 93.33333333333333 26.333333333333332 L 93.0 27.0 L 93.33333333333333 28.0 L 94.0 29.0 L 95.0 30.0 L 96.0 31.0 L 97.0 32.0 L 98.0 33.0 L 99.0 34.0 L 100.0 35.0 L 100.5 35.5 Z" stroke="none" fill="rgb(143,38,153)" />
<path d="M 23.5 101.5 L 24.0 102.0 L 25.0 103.0 L 26.0 104.0 L 27.0 105.0 L 28.0 106.0 L 29.0 107.0 L 30.0 108.0 L 31.0 109.0 L 32.0 110.0 L 33.0 111.0 L 34.0 111.66666666666667 L 34.666666666666664 111.66666666666667 L 35.333333333333336 111.0 L 36.0 110.66666666666667 L 37.0 110.66666666666667 L 38.0 111.33333333333333 L 39.0 111.66666666666667 L 40.0 112.0 L 41.0 112.0 L 42.0 112.0 L 42.666666666666664 111.66666666666667 L 42.666666666666664 111.0 L 42.0 110.0 L 41.0 109.0 L 40.0 108.0 L 39.0 107.0 L 38.0 106.0 L 37.0 105.0 L 36.0 104.0 L 35.0 103.0 L 34.0 102.0 L 33.0 101.0 L 32.0 100.0 L 31.0 99.0 L 30.0 98.0 L 29.0 97.0 L 28.0 96.0 L 27.333333333333332 95.0 L 26.666666666666668 94.0 L 26.0 93.0 L 25.333333333333332 92.0 L 24.666666666666668 91.0 L 24.333333333333332 90.0 L 23.666666666666668 89.0 L 23.333333333333332 88.0 L 22.666666666666668 87.0 L 22.333333333333332 86.0 L 21.666666666666668 85.0 L 21.333333333333332 84.0 L 21.0 83.0 L 20.666666666666668 82.0 L 20.333333333333332 81.0 L 20.0 80.0 L 19.666666666666668 79.0 L 19.333333333333332 78.0 L 19.0 77.0 L 19.0 76.0 L 19.0 75.0 L 19.0 74.0 L 19.0 73.0 L 19.0 72.0 L 19.0 71.0 L 19.0 70.0 L 19.0 69.0 L 19.0 68.0 L 19.0 67.0 L 19.0 66.0 L 19.0 65.0 L 19.0 64.0 L 19.333333333333332 63.0 L 19.666666666666668 62.0 L 20.0 61.0 L 20.0 60.0 L 20.0 59.0 L 20.333333333333332 58.0 L 20.666666666666668 57.0 L 21.0 56.0 L 21.0 55.0 L 21.333333333333332 54.0 L 21.666666666666668 53.0 L 22.333333333333332 52.0 L 22.666666666666668 51.0 L 23.0 50.0 L 23.333333333333332 49.0 L 23.666666666666668 48.0 L 24.333333333333332 47.0 L 25.0 46.0 L 25.666666666666668 45.0 L 26.333333333333332 44.0 L 27.0 43.0 L 28.0 42.0 L 29.0 41.0 L 30.0 40.0 L 31.0 39.0 L 32.0 38.0 L 33.0 37.0 L 34.0 36.0 L 35.0 35.0 L 35.666666666666664 34.0 L 36.0 33.0 L 36.0 32.0 L 35.666666666666664 31.0 L 35.0 30.0 L 34.0 29.0 L 33.0 28.0 L 32.0 27.333333333333332 L 31.0 27.333333333333332 L 30.0 28.0 L 29.0 28.666666666666668 L 28.0 29.333333333333332 L 27.0 30.0 L 26.0 31.0 L 25.0 32.0 L 24.0 33.0 L 23.0 34.0 L 22.0 35.0 L 21.333333333333332 36.0 L 20.666666666666668 37.0 L 20.0 38.0 L 19.333333333333332 39.0 L 18.666666666666668 40.0 L 18.0 41.0 L 17.333333333333332 42.0 L 16.666666666666668 43.0 L 16.0 44.0 L 15.333333333333334 45.0 L 14.666666666666666 46.0 L 14.333333333333334 47.0 L 14.0 48.0 L 13.666666666666666 49.0 L 13.333333333333334 50.0 L 13.0 51.0 L 12.666666666666666 52.0 L 12.333333333333334 53.0 L 12.0 54.0 L 12.0 55.0 L 11.666666666666666 56.0 L 11.333333333333334 57.0 L 11.0 58.0 L 11.0 59.0 L 11.0 60.0 L 11.0 61.0 L 11.0 62.0 L 11.0 63.0 L 11.0 64.0 L 11.0 65.0 L 11.0 66.0 L 11.0 67.0 L 11.0 68.0 L 11.0 69.0 L 11.0 70.0 L 11.0 71.0 L 11.0 72.0 L 11.0 73.0 L 11.0 74.0 L 11.0 75.0 L 11.0 76.0 L 11.0 77.0 L 11.0 78.0 L 11.333333333333334 79.0 L 11.666666666666666 80.0 L 12.0 81.0 L 12.0 82.0 L 12.0 83.0 L 12.333333333333334 84.0 L 12.666666666666666 85.0 L 13.0 86.0 L 13.333333333333334 87.0 L 13.666666666666666 88.0 L 14.0 89.0 L 14.333333333333334 90.0 L 14.666666666666666 91.0 L 15.333333333333334 92.0 L 15.666666666666666 93.0 L 16.333333333333332 94.0 L 17.0 95.0 L 18.0 96.0 L 19.0 97.0 L 20.0 98.0 L 21.0 99.0 L 22.0 100.0 L 22.5 100.5 Z" stroke="none" fill="rgb(143,38,153)" />
<path d="M 43.5 29.0 L 44.0 28.666666666666668 L 44.666666666666664 28.0 L 44.666666666666664 27.333333333333332 L 44.0 27.0 L 43.0 27.333333333333332 L 42.333333333333336 28.0 L 42.333333333333336 28.666666666666668 L 42.5 29.0 Z" stroke="none" fill="rgb(217,13,220)" />
<path d="M 24.5 80.5 L 24.666666666666668 81.0 L 25.0 82.0 L 25.333333333333332 83.0 L 25.666666666666668 84.0 L 26.333333333333332 85.0 L 26.666666666666668 86.0 L 27.333333333333332 87.0 L 27.666666666666668 88.0 L 28.333333333333332 89.0 L 28.666666666666668 90.0 L 29.333333333333332 91.0 L 30.0 92.0 L 31.0 93.0 L 31.666666666666668 94.0 L 32.333333333333336 95.0 L 33.0 96.0 L 34.0 97.0 L 35.0 98.0 L 36.0 99.0 L 37.0 100.0 L 38.0 100.66666666666667 L 39.0 101.33333333333333 L 40.0 102.0 L 41.0 102.66666666666667 L 42.0 103.33333333333333 L 43.0 103.66666666666667 L 44.0 104.33333333333333 L 45.0 104.66666666666667 L 46.0 105.33333333333333 L 47.0 105.66666666666667 L 48.0 106.33333333333333 L 49.0 106.66666666666667 L 50.0 107.0 L 51.0 107.33333333333333 L 52.0 107.66666666666667 L 53.0 108.0 L 54.0 108.0 L 55.0 108.33333333333333 L 56.0 108.66666666666667 L 57.0 109.0 L 58.0 109.0 L 59.0 109.0 L 60.0 109.0 L 61.0 109.0 L 62.0 109.0 L 63.0 109.0 L 64.0 109.0 L 65.0 109.0 L 66.0 109.0 L 67.0 109.0 L 68.0 109.0 L 69.0 109.0 L 70.0 109.0 L 71.0 109.0 L 72.0 108.66666666666667 L 73.0 108.33333333333333 L 74.0 108.0 L 75.0 107.66666666666667 L 76.0 107.33333333333333 L 77.0 107.0 L 78.0 106.66666666666667 L 79.0 106.33333333333333 L 80.0 106.0 L 81.0 105.66666666666667 L 82.0 105.33333333333333 L 83.0 104.66666666666667 L 84.0 104.33333333333333 L 85.0 103.66666666666667 L 86.0 103.0 L 87.0 102.33333333333333 L 88.0 101.66666666666667 L 89.0 101.0 L 90.0 100.0 L 91.0 99.0 L 92.0 98.0 L 93.0 97.0 L 94.0 96.0 L 95.0 95.0 L 96.0 94.0 L 96.66666666666667 93.0 L 97.33333333333333 92.0 L 98.0 91.0 L 98.66666666666667 90.0 L 99.33333333333333 89.0 L 99.66666666666667 88.0 L 100.33333333333333 87.0 L 100.66666666666667 86.0 L 101.33333333333333 85.0 L 101.66666666666667 84.0 L 102.0 83.0 L 102.33333333333333 82.0 L 102.66666666666667 81.0 L 103.0 80.0 L 103.33333333333333 79.0 L 103.66666666666667 78.0 L 104.0 77.0 L 104.0 76.0 L 104.0 75.0 L 104.0 74.0 L 104.33333333333333 73.0 L 104.66666666666667 72.0 L 105.0 71.0 L 105.0 70.0 L 105.0 69.0 L 105.0 68.0 L 105.0 67.0 L 105.0 66.0 L 104.66666666666667 65.0 L 104.33333333333333 64.0 L 104.0 63.0 L 104.0 62.0 L 104.0 61.0 L 104.0 60.0 L 103.66666666666667 59.0 L 103.33333333333333 58.0 L 103.0 57.0 L 103.0 56.0 L 102.66666666666667 55.0 L 102.33333333333333 54.0 L 101.66666666666667 53.0 L 101.33333333333333 52.0 L 101.0 51.0 L 100.66666666666667 50.0 L 100.0 49.0 L 99.33333333333333 48.0 L 98.66666666666667 47.0 L 98.33333333333333 46.0 L 97.66666666666667 45.0 L 97.0 44.0 L 96.0 43.0 L 95.33333333333333 42.0 L 94.66666666666667 41.0 L 94.0 40.0 L 93.0 39.0 L 92.0 38.0 L 91.0 37.333333333333336 L 90.0 36.666666666666664 L 89.0 36.0 L 88.0 35.0 L 87.0 34.333333333333336 L 86.0 33.666666666666664 L 85.0 33.333333333333336 L 84.0 32.666666666666664 L 83.0 32.333333333333336 L 82.0 31.666666666666668 L 81.0 31.333333333333332 L 80.0 30.666666666666668 L 79.0 30.333333333333332 L 78.0 30.0 L 77.0 29.666666666666668 L 76.0 29.333333333333332 L 75.0 29.0 L 74.0 28.666666666666668 L 73.0 28.333333333333332 L 72.0 28.0 L 71.0 28.0 L 70.0 28.0 L 69.0 28.0 L 68.0 27.666666666666668 L 67.0 27.333333333333332 L 66.0 27.0 L 65.0 27.0 L 64.0 27.0 L 63.0 27.0 L 62.0 27.0 L 61.0 27.333333333333332 L 60.0 27.666666666666668 L 59.0 28.0 L 58.0 28.0 L 57.0 28.0 L 56.0 28.0 L 55.0 28.333333333333332 L 54.0 28.666666666666668 L 53.0 29.0 L 52.0 29.0 L 51.0 29.333333333333332 L 50.0 29.666666666666668 L 49.0 30.0 L 48.0 30.333333333333332 L 47.0 30.666666666666668 L 46.0 31.333333333333332 L 45.0 31.666666666666668 L 44.0 32.333333333333336 L 43.0 32.666666666666664 L 42.0 33.333333333333336 L 41.0 34.0 L 40.0 34.666666666666664 L 39.0 35.333333333333336 L 38.0 36.0 L 37.0 37.0 L 36.0 38.0 L 35.0 39.0 L 34.0 40.0 L 33.0 41.0 L 32.0 42.0 L 31.333333333333332 43.0 L 30.666666666666668 44.0 L 30.0 45.0 L 29.333333333333332 46.0 L 28.666666666666668 47.0 L 28.0 48.0 L 27.333333333333332 49.0 L 26.666666666666668 50.0 L 26.333333333333332 51.0 L 26.0 52.0 L 25.666666666666668 53.0 L 25.333333333333332 54.0 L 25.0 55.0 L 24.666666666666668 56.0 L 24.333333333333332 57.0 L 24.0 58.0 L 24.0 59.0 L 23.666666666666668 60.0 L 23.333333333333332 61.0 L 23.0 62.0 L 23.0 63.0 L 23.0 64.0 L 23.0 65.0 L 23.0 66.0 L 23.0 67.0 L 23.0 68.0 L 23.0 69.0 L 23.0 70.0 L 23.0 71.0 L 23.0 72.0 L 23.0 73.0 L 23.0 74.0 L 23.0 75.0 L 23.333333333333332 76.0 L 23.666666666666668 77.0 L 24.0 78.0 L 24.0 79.0 L 24.0 79.5 Z" stroke="none" fill="rgb(227,10,229)" />
<path d="M 39.0 30.5 L 38.666666666666664 30.333333333333332 L 38.333333333333336 30.333333333333332 L 38.333333333333336 30.666666666666668 L 38.5 31.0 Z" stroke="none" fill="rgb(217,13,220)" />
<path d="M 53.5 105.0 L 54.0 105.33333333333333 L 55.0 105.66666666666667 L 56.0 106.0 L 57.0 106.0 L 58.0 106.0 L 59.0 106.0 L 60.0 106.0 L 61.0 106.0 L 62.0 106.0 L 63.0 106.0 L 64.0 106.0 L 65.0 106.0 L 66.0 106.0 L 67.0 106.0 L 68.0 106.0 L 69.0 106.0 L 70.0 106.0 L 71.0 106.0 L 72.0 105.66666666666667 L 73.0 105.33333333333333 L 74.0 105.0 L 75.0 105.0 L 76.0 104.66666666666667 L 77.0 104.33333333333333 L 78.0 103.66666666666667 L 79.0 103.33333333333333 L 80.0 103.0 L 81.0 102.66666666666667 L 82.0 102.33333333333333 L 83.0 101.66666666666667 L 84.0 101.0 L 85.0 100.33333333333333 L 86.0 99.66666666666667 L 87.0 99.0 L 88.0 98.0 L 89.0 97.0 L 90.0 96.0 L 91.0 95.0 L 92.0 94.0 L 93.0 93.0 L 94.0 92.0 L 94.66666666666667 91.0 L 95.33333333333333 90.0 L 96.0 89.0 L 96.66666666666667 88.0 L 97.33333333333333 87.0 L 97.66666666666667 86.0 L 98.33333333333333 85.0 L 98.66666666666667 84.0 L 99.0 83.0 L 99.33333333333333 82.0 L 99.66666666666667 81.0 L 100.0 80.0 L 100.33333333333333 79.0 L 100.66666666666667 78.0 L 101.0 77.0 L 101.0 76.0 L 101.33333333333333 75.0 L 101.66666666666667 74.0 L 102.0 73.0 L 102.0 72.0 L 102.0 71.0 L 102.0 70.0 L 102.0 69.0 L 102.0 68.0 L 102.0 67.0 L 102.0 66.0 L 102.0 65.0 L 102.0 64.0 L 101.66666666666667 63.0 L 101.33333333333333 62.0 L 101.0 61.0 L 101.0 60.0 L 101.0 59.0 L 100.66666666666667 58.0 L 100.33333333333333 57.0 L 100.0 56.0 L 99.66666666666667 55.0 L 99.33333333333333 54.0 L 98.66666666666667 53.0 L 98.33333333333333 52.0 L 97.66666666666667 51.0 L 97.33333333333333 50.0 L 96.66666666666667 49.0 L 96.33333333333333 48.0 L 95.66666666666667 47.0 L 95.0 46.0 L 94.0 45.0 L 93.33333333333333 44.0 L 92.66666666666667 43.0 L 92.0 42.0 L 91.0 41.0 L 90.0 40.0 L 89.0 39.333333333333336 L 88.0 38.666666666666664 L 87.0 38.0 L 86.0 37.0 L 85.0 36.333333333333336 L 84.0 35.666666666666664 L 83.0 35.333333333333336 L 82.0 34.666666666666664 L 81.0 34.333333333333336 L 80.0 33.666666666666664 L 79.0 33.333333333333336 L 78.0 32.666666666666664 L 77.0 32.333333333333336 L 76.0 32.0 L 75.0 32.0 L 74.0 31.666666666666668 L 73.0 31.333333333333332 L 72.0 31.0 L 71.0 31.0 L 70.0 30.666666666666668 L 69.0 30.333333333333332 L 68.0 30.0 L 67.0 30.0 L 66.0 30.0 L 65.0 30.0 L 64.0 30.0 L 63.0 30.0 L 62.0 30.0 L 61.0 30.0 L 60.0 30.0 L 59.0 30.333333333333332 L 58.0 30.666666666666668 L 57.0 31.0 L 56.0 31.0 L 55.0 31.0 L 54.0 31.333333333333332 L 53.0 31.666666666666668 L 52.0 32.0 L 51.0 32.333333333333336 L 50.0 32.666666666666664 L 49.0 33.0 L 48.0 33.333333333333336 L 47.0 33.666666666666664 L 46.0 34.333333333333336 L 45.0 34.666666666666664 L 44.0 35.333333333333336 L 43.0 36.0 L 42.0 36.666666666666664 L 41.0 37.333333333333336 L 40.0 38.0 L 39.0 39.0 L 38.0 40.0 L 37.0 41.0 L 36.0 42.0 L 35.0 43.0 L 34.0 44.0 L 33.0 45.0 L 32.333333333333336 46.0 L 31.666666666666668 47.0 L 31.333333333333332 48.0 L 30.666666666666668 49.0 L 30.333333333333332 50.0 L 29.666666666666668 51.0 L 29.333333333333332 52.0 L 28.666666666666668 53.0 L 28.333333333333332 54.0 L 28.0 55.0 L 27.666666666666668 56.0 L 27.333333333333332 57.0 L 27.0 58.0 L 26.666666666666668 59.0 L 26.333333333333332 60.0 L 26.0 61.0 L 26.0 62.0 L 26.0 63.0 L 26.0 64.0 L 26.0 65.0 L 26.0 66.0 L 26.0 67.0 L 26.0 68.0 L 26.0 69.0 L 26.0 70.0 L 26.0 71.0 L 26.0 72.0 L 26.0 73.0 L 26.0 74.0 L 26.0 75.0 L 26.0 76.0 L 26.333333333333332 77.0 L 26.666666666666668 78.0 L 27.0 79.0 L 27.333333333333332 80.0 L 27.666666666666668 81.0 L 28.0 82.0 L 28.333333333333332 83.0 L 28.666666666666668 84.0 L 29.333333333333332 85.0 L 29.666666666666668 86.0 L 30.333333333333332 87.0 L 30.666666666666668 88.0 L 31.333333333333332 89.0 L 32.0 90.0 L 32.666666666666664 91.0 L 33.333333333333336 92.0 L 34.0 93.0 L 35.0 94.0 L 36.0 95.0 L 37.0 96.0 L 38.0 97.0 L 39.0 98.0 L 40.0 98.66666666666667 L 41.0 99.33333333333333 L 42.0 100.0 L 43.0 100.66666666666667 L 44.0 101.33333333333333 L 45.0 101.66666666666667 L 46.0 102.33333333333333 L 47.0 102.66666666666667 L 48.0 103.33333333333333 L 49.0 103.66666666666667 L 50.0 104.0 L 51.0 104.33333333333333 L 52.0 104.66666666666667 L 52.5 105.0 Z" stroke="none" fill="rgb(229,9,231)" />
<path d="M 37.5 32.0 L 37.666666666666664 31.666666666666668 L 37.666666666666664 31.333333333333332 L 37.333333333333336 31.333333333333332 L 37.0 31.5 Z" stroke="none" fill="rgb(217,13,220)" />
<path d="M 37.0 32.5 L 36.666666666666664 32.333333333333336 L 36.333333333333336 32.333333333333336 L 36.333333333333336 32.666666666666664 L 36.5 33.0 Z" stroke="none" fill="rgb(217,13,220)" />
<path d="M 53.5 40.5 L 54.0 40.333333333333336 L 55.0 40.0 L 56.0 39.666666666666664 L 57.0 39.333333333333336 L 58.0 39.0 L 59.0 39.0 L 60.0 39.0 L 61.0 39.0 L 62.0 38.666666666666664 L 63.0 38.333333333333336 L 64.0 38.333333333333336 L 65.0 38.666666666666664 L 66.0 39.0 L 67.0 39.0 L 68.0 39.0 L 69.0 39.0 L 70.0 39.333333333333336 L 71.0 39.666666666666664 L 72.0 40.0 L 73.0 40.333333333333336 L 74.0 40.666666666666664 L 75.0 41.0 L 76.0 41.333333333333336 L 77.0 41.666666666666664 L 78.0 42.333333333333336 L 79.0 43.0 L 80.0 43.666666666666664 L 81.0 44.333333333333336 L 82.0 45.0 L 83.0 46.0 L 84.0 47.0 L 85.0 48.0 L 86.0 49.0 L 87.0 50.0 L 87.66666666666667 51.0 L 88.33333333333333 52.0 L 89.0 53.0 L 89.66666666666667 54.0 L 90.33333333333333 55.0 L 90.66666666666667 56.0 L 91.33333333333333 57.0 L 92.0 58.0 L 92.66666666666667 59.0 L 93.0 60.0 L 93.0 61.0 L 93.0 62.0 L 93.0 63.0 L 93.0 64.0 L 93.0 65.0 L 93.33333333333333 66.0 L 93.66666666666667 67.0 L 94.0 68.0 L 94.0 69.0 L 93.66666666666667 70.0 L 93.33333333333333 71.0 L 93.0 72.0 L 93.0 73.0 L 93.0 74.0 L 92.66666666666667 75.0 L 92.33333333333333 76.0 L 92.0 77.0 L 91.66666666666667 78.0 L 91.33333333333333 79.0 L 91.0 80.0 L 90.66666666666667 81.0 L 90.0 82.0 L 89.33333333333333 83.0 L 88.66666666666667 84.0 L 88.0 85.0 L 87.33333333333333 86.0 L 86.66666666666667 87.0 L 86.0 88.0 L 85.33333333333333 89.0 L 85.0 90.0 L 85.0 91.0 L 84.66666666666667 92.0 L 84.0 93.0 L 83.33333333333333 94.0 L 83.0 95.0 L 83.33333333333333 95.66666666666667 L 84.0 96.0 L 85.0 95.66666666666667 L 86.0 95.0 L 87.0 94.0 L 88.0 93.0 L 89.0 92.0 L 90.0 91.0 L 90.66666666666667 90.0 L 91.33333333333333 89.0 L 92.0 88.0 L 92.66666666666667 87.0 L 93.33333333333333 86.0 L 93.66666666666667 85.0 L 94.33333333333333 84.0 L 94.66666666666667 83.0 L 95.33333333333333 82.0 L 95.66666666666667 81.0 L 96.0 80.0 L 96.33333333333333 79.0 L 96.66666666666667 78.0 L 97.0 77.0 L 97.0 76.0 L 97.33333333333333 75.0 L 97.66666666666667 74.0 L 98.0 73.0 L 98.0 72.0 L 98.0 71.0 L 98.0 70.0 L 98.0 69.0 L 98.0 68.0 L 98.0 67.0 L 98.0 66.0 L 98.0 65.0 L 98.0 64.0 L 97.66666666666667 63.0 L 97.33333333333333 62.0 L 97.0 61.0 L 97.0 60.0 L 97.0 59.0 L 96.66666666666667 58.0 L 96.33333333333333 57.0 L 95.66666666666667 56.0 L 95.33333333333333 55.0 L 95.0 54.0 L 94.66666666666667 53.0 L 94.0 52.0 L 93.33333333333333 51.0 L 92.66666666666667 50.0 L 92.33333333333333 49.0 L 91.66666666666667 48.0 L 91.0 47.0 L 90.0 46.0 L 89.0 45.0 L 88.0 44.0 L 87.0 43.0 L 86.0 42.0 L 85.0 41.0 L 84.0 40.333333333333336 L 83.0 39.666666666666664 L 82.0 39.333333333333336 L 81.0 38.666666666666664 L 80.0 38.333333333333336 L 79.0 37.666666666666664 L 78.0 37.333333333333336 L 77.0 36.666666666666664 L 76.0 36.333333333333336 L 75.0 36.0 L 74.0 35.666666666666664 L 73.0 35.333333333333336 L 72.0 35.0 L 71.0 35.0 L 70.0 35.0 L 69.0 34.666666666666664 L 68.0 34.333333333333336 L 67.0 34.0 L 66.0 34.0 L 65.0 34.0 L 64.0 34.0 L 63.0 34.0 L 62.0 34.0 L 61.0 34.0 L 60.0 34.0 L 59.0 34.333333333333336 L 58.0 34.666666666666664 L 57.0 35.0 L 56.0 35.0 L 55.0 35.0 L 54.0 35.333333333333336 L 53.0 35.666666666666664 L 52.0 36.0 L 51.0 36.333333333333336 L 50.0 36.666666666666664 L 49.0 37.333333333333336 L 48.0 37.666666666666664 L 47.0 38.333333333333336 L 46.0 38.666666666666664 L 45.0 39.333333333333336 L 44.0 40.0 L 43.0 40.666666666666664 L 42.0 41.333333333333336 L 41.0 42.0 L 40.0 43.0 L 39.0 44.0 L 38.0 45.0 L 37.333333333333336 46.0 L 36.666666666666664 47.0 L 36.0 48.0 L 35.333333333333336 49.0 L 34.666666666666664 50.0 L 34.0 51.0 L 33.333333333333336 52.0 L 32.666666666666664 53.0 L 32.333333333333336 54.0 L 32.0 55.0 L 31.666666666666668 56.0 L 31.333333333333332 57.0 L 31.0 58.0 L 30.666666666666668 59.0 L 30.333333333333332 60.0 L 30.0 61.0 L 30.0 62.0 L 30.0 63.0 L 30.0 64.0 L 30.0 65.0 L 30.0 66.0 L 30.0 67.0 L 30.0 68.0 L 30.0 69.0 L 30.0 70.0 L 30.0 71.0 L 30.0 72.0 L 30.0 73.0 L 30.0 74.0 L 30.0 75.0 L 30.0 76.0 L 30.333333333333332 77.0 L 30.666666666666668 78.0 L 31.0 79.0 L 31.333333333333332 80.0 L 31.666666666666668 81.0 L 32.333333333333336 82.0 L 32.666666666666664 83.0 L 33.333333333333336 84.0 L 33.666666666666664 85.0 L 34.333333333333336 86.0 L 34.666666666666664 87.0 L 35.333333333333336 88.0 L 36.0 89.0 L 37.0 90.0 L 37.666666666666664 91.0 L 38.333333333333336 92.0 L 39.0 93.0 L 40.0 93.66666666666667 L 41.0 94.33333333333333 L 42.0 95.0 L 43.0 96.0 L 44.0 96.66666666666667 L 45.0 97.0 L 46.0 97.0 L 46.666666666666664 96.66666666666667 L 46.666666666666664 96.0 L 46.0 95.0 L 45.0 94.0 L 44.333333333333336 93.0 L 44.0 92.0 L 44.0 91.0 L 43.666666666666664 90.0 L 43.0 89.0 L 42.0 88.0 L 41.0 87.0 L 40.0 86.0 L 39.333333333333336 85.0 L 38.666666666666664 84.0 L 38.0 83.0 L 37.333333333333336 82.0 L 36.666666666666664 81.0 L 36.333333333333336 80.0 L 36.0 79.0 L 35.666666666666664 78.0 L 35.333333333333336 77.0 L 35.0 76.0 L 35.0 75.0 L 34.666666666666664 74.0 L 34.333333333333336 73.0 L 34.0 72.0 L 34.0 71.0 L 34.0 70.0 L 34.0 69.0 L 34.0 68.0 L 34.0 67.0 L 34.0 66.0 L 34.0 65.0 L 34.0 64.0 L 34.333333333333336 63.0 L 35.0 62.333333333333336 L 35.666666666666664 61.666666666666664 L 36.0 61.0 L 36.333333333333336 60.0 L 36.666666666666664 59.0 L 37.0 58.0 L 37.0 57.0 L 37.0 56.0 L 37.333333333333336 55.0 L 37.666666666666664 54.0 L 38.333333333333336 53.0 L 39.0 52.0 L 40.0 51.0 L 41.0 50.0 L 41.666666666666664 49.0 L 42.333333333333336 48.0 L 43.0 47.0 L 44.0 46.333333333333336 L 45.0 45.666666666666664 L 46.0 45.0 L 47.0 44.0 L 48.0 43.333333333333336 L 49.0 42.666666666666664 L 50.0 42.333333333333336 L 51.0 41.666666666666664 L 52.0 41.333333333333336 L 52.5 41.0 Z" stroke="none" fill="rgb(232,8,234)" />
<path d="M 53.5 46.5 L 54.0 46.333333333333336 L 55.0 46.0 L 56.0 45.666666666666664 L 57.0 45.333333333333336 L 58.0 45.0 L 59.0 44.666666666666664 L 60.0 44.333333333333336 L 61.0 44.0 L 62.0 44.0 L 63.0 44.0 L 64.0 44.0 L 65.0 44.0 L 66.0 44.0 L 67.0 44.333333333333336 L 68.0 44.666666666666664 L 69.0 45.0 L 70.0 45.0 L 71.0 45.333333333333336 L 72.0 45.666666666666664 L 73.0 46.333333333333336 L 74.0 46.666666666666664 L 75.0 47.333333333333336 L 76.0 47.666666666666664 L 77.0 48.333333333333336 L 78.0 49.0 L 79.0 50.0 L 80.0 51.0 L 81.0 52.0 L 82.0 53.0 L 83.0 54.0 L 83.66666666666667 55.0 L 84.33333333333333 56.0 L 84.66666666666667 57.0 L 85.33333333333333 58.0 L 86.0 58.666666666666664 L 87.0 59.0 L 88.0 58.666666666666664 L 89.0 58.333333333333336 L 90.0 58.0 L 91.0 58.0 L 91.66666666666667 57.666666666666664 L 91.66666666666667 57.0 L 91.33333333333333 56.0 L 90.66666666666667 55.0 L 90.33333333333333 54.0 L 89.66666666666667 53.0 L 89.0 52.0 L 88.33333333333333 51.0 L 87.66666666666667 50.0 L 87.0 49.0 L 86.0 48.0 L 85.0 47.0 L 84.0 46.0 L 83.0 45.0 L 82.0 44.333333333333336 L 81.0 43.666666666666664 L 80.0 43.0 L 79.0 42.333333333333336 L 78.0 41.666666666666664 L 77.0 41.333333333333336 L 76.0 41.0 L 75.0 40.666666666666664 L 74.0 40.333333333333336 L 73.0 40.0 L 72.0 39.666666666666664 L 71.0 39.333333333333336 L 70.0 39.0 L 69.0 39.0 L 68.0 39.0 L 67.0 39.0 L 66.0 38.666666666666664 L 65.0 38.333333333333336 L 64.0 38.0 L 63.0 38.0 L 62.0 38.333333333333336 L 61.0 38.666666666666664 L 60.0 39.0 L 59.0 39.0 L 58.0 39.0 L 57.0 39.0 L 56.0 39.333333333333336 L 55.0 39.666666666666664 L 54.0 40.0 L 53.0 40.333333333333336 L 52.0 40.666666666666664 L 51.0 41.333333333333336 L 50.0 41.666666666666664 L 49.0 42.333333333333336 L 48.0 42.666666666666664 L 47.0 43.333333333333336 L 46.0 44.0 L 45.0 45.0 L 44.0 45.666666666666664 L 43.0 46.333333333333336 L 42.333333333333336 47.0 L 41.666666666666664 48.0 L 41.0 49.0 L 40.0 50.0 L 39.0 51.0 L 38.333333333333336 52.0 L 37.666666666666664 53.0 L 37.333333333333336 54.0 L 36.666666666666664 55.0 L 36.333333333333336 56.0 L 36.333333333333336 57.0 L 37.0 57.666666666666664 L 38.0 58.0 L 39.0 58.0 L 40.0 58.0 L 41.0 58.0 L 42.0 58.0 L 42.666666666666664 57.666666666666664 L 43.0 57.0 L 43.333333333333336 56.0 L 44.0 55.0 L 44.666666666666664 54.0 L 45.333333333333336 53.0 L 46.0 52.0 L 47.0 51.0 L 48.0 50.0 L 49.0 49.333333333333336 L 50.0 48.666666666666664 L 51.0 48.0 L 52.0 47.333333333333336 L 52.5 47.0 Z" stroke="none" fill="rgb(235,7,237)" />
<path d="M 53.5 53.0 L 54.0 52.666666666666664 L 55.0 52.333333333333336 L 56.0 51.666666666666664 L 57.0 51.333333333333336 L 58.0 50.666666666666664 L 59.0 50.333333333333336 L 60.0 50.0 L 61.0 50.0 L 62.0 50.0 L 63.0 50.0 L 64.0 50.0 L 65.0 50.0 L 66.0 50.0 L 67.0 50.0 L 68.0 50.333333333333336 L 69.0 50.666666666666664 L 70.0 51.0 L 71.0 51.333333333333336 L 72.0 51.666666666666664 L 73.0 52.333333333333336 L 74.0 53.0 L 75.0 54.0 L 76.0 55.0 L 77.0 56.0 L 78.0 57.0 L 79.0 58.0 L 79.66666666666667 59.0 L 80.33333333333333 60.0 L 81.0 60.666666666666664 L 82.0 61.0 L 83.0 61.0 L 84.0 60.666666666666664 L 85.0 60.0 L 85.66666666666667 59.0 L 85.66666666666667 58.0 L 85.33333333333333 57.0 L 84.66666666666667 56.0 L 84.33333333333333 55.0 L 83.66666666666667 54.0 L 83.0 53.0 L 82.0 52.0 L 81.0 51.0 L 80.0 50.0 L 79.0 49.0 L 78.0 48.333333333333336 L 77.0 47.666666666666664 L 76.0 47.333333333333336 L 75.0 46.666666666666664 L 74.0 46.333333333333336 L 73.0 45.666666666666664 L 72.0 45.333333333333336 L 71.0 45.0 L 70.0 45.0 L 69.0 44.666666666666664 L 68.0 44.333333333333336 L 67.0 44.0 L 66.0 44.0 L 65.0 44.0 L 64.0 44.0 L 63.0 44.0 L 62.0 44.0 L 61.0 44.0 L 60.0 44.0 L 59.0 44.333333333333336 L 58.0 44.666666666666664 L 57.0 45.0 L 56.0 45.333333333333336 L 55.0 45.666666666666664 L 54.0 46.0 L 53.0 46.333333333333336 L 52.0 46.666666666666664 L 51.0 47.333333333333336 L 50.0 48.0 L 49.0 48.666666666666664 L 48.0 49.333333333333336 L 47.0 50.0 L 46.0 51.0 L 45.333333333333336 52.0 L 44.666666666666664 53.0 L 44.0 54.0 L 43.333333333333336 55.0 L 43.0 56.0 L 43.0 57.0 L 43.0 58.0 L 43.333333333333336 59.0 L 44.0 59.666666666666664 L 45.0 60.0 L 46.0 60.0 L 47.0 59.666666666666664 L 47.666666666666664 59.0 L 48.333333333333336 58.0 L 49.0 57.0 L 50.0 56.0 L 51.0 55.0 L 52.0 54.0 L 52.5 53.5 Z" stroke="none" fill="rgb(239,5,241)" />
<path d="M 57.5 59.0 L 58.0 58.666666666666664 L 59.0 58.333333333333336 L 60.0 57.666666666666664 L 61.0 57.333333333333336 L 62.0 57.0 L 63.0 57.0 L 64.0 57.0 L 65.0 57.0 L 66.0 57.333333333333336 L 67.0 57.666666666666664 L 68.0 58.0 L 69.0 58.333333333333336 L 70.0 59.0 L 71.0 60.0 L 72.0 61.0 L 73.0 62.0 L 73.66666666666667 63.0 L 74.33333333333333 64.0 L 75.0 64.66666666666667 L 76.0 65.0 L 77.0 64.66666666666667 L 78.0 64.33333333333333 L 79.0 63.666666666666664 L 80.0 63.0 L 80.66666666666667 62.0 L 81.0 61.0 L 80.66666666666667 60.0 L 80.33333333333333 59.0 L 79.66666666666667 58.0 L 79.0 57.0 L 78.0 56.0 L 77.0 55.0 L 76.0 54.0 L 75.0 53.0 L 74.0 52.333333333333336 L 73.0 51.666666666666664 L 72.0 51.333333333333336 L 71.0 51.0 L 70.0 50.666666666666664 L 69.0 50.333333333333336 L 68.0 50.0 L 67.0 50.0 L 66.0 50.0 L 65.0 50.0 L 64.0 50.0 L 63.0 50.0 L 62.0 50.0 L 61.0 50.0 L 60.0 50.0 L 59.0 50.0 L 58.0 50.333333333333336 L 57.0 50.666666666666664 L 56.0 51.333333333333336 L 55.0 51.666666666666664 L 54.0 52.333333333333336 L 53.0 52.666666666666664 L 52.0 53.333333333333336 L 51.0 54.0 L 50.0 55.0 L 49.0 56.0 L 48.333333333333336 57.0 L 47.666666666666664 58.0 L 47.333333333333336 59.0 L 47.0 60.0 L 47.333333333333336 61.0 L 48.0 61.666666666666664 L 49.0 62.333333333333336 L 50.0 63.0 L 51.0 63.666666666666664 L 52.0 64.0 L 53.0 63.666666666666664 L 54.0 63.0 L 54.666666666666664 62.0 L 55.333333333333336 61.0 L 56.0 60.0 L 56.5 59.5 Z" stroke="none" fill="rgb(244,4,245)" />
<path d="M 59.5 79.0 L 60.0 79.33333333333333 L 61.0 79.66666666666667 L 62.0 80.0 L 63.0 80.0 L 64.0 80.0 L 65.0 80.0 L 66.0 79.66666666666667 L 67.0 79.33333333333333 L 68.0 79.0 L 69.0 78.66666666666667 L 70.0 78.33333333333333 L 71.0 77.66666666666667 L 72.0 77.33333333333333 L 72.66666666666667 76.66666666666667 L 73.0 76.0 L 73.0 75.0 L 73.0 74.0 L 72.66666666666667 73.0 L 72.0 72.0 L 71.33333333333333 71.0 L 71.33333333333333 70.0 L 72.0 69.0 L 73.0 68.0 L 74.0 67.0 L 74.66666666666667 66.0 L 75.0 65.0 L 74.66666666666667 64.0 L 74.33333333333333 63.0 L 73.66666666666667 62.0 L 73.0 61.0 L 72.0 60.0 L 71.0 59.0 L 70.0 58.333333333333336 L 69.0 58.0 L 68.0 57.666666666666664 L 67.0 57.333333333333336 L 66.0 57.0 L 65.0 57.0 L 64.0 57.0 L 63.0 57.0 L 62.0 57.0 L 61.0 57.0 L 60.0 57.333333333333336 L 59.0 57.666666666666664 L 58.0 58.333333333333336 L 57.0 58.666666666666664 L 56.0 59.333333333333336 L 55.333333333333336 60.0 L 54.666666666666664 61.0 L 54.0 62.0 L 53.333333333333336 63.0 L 53.0 64.0 L 53.333333333333336 65.0 L 54.0 66.0 L 55.0 67.0 L 56.0 68.0 L 57.0 69.0 L 58.0 70.0 L 58.333333333333336 71.0 L 58.0 72.0 L 57.0 73.0 L 56.333333333333336 74.0 L 56.0 75.0 L 56.0 76.0 L 56.0 77.0 L 56.333333333333336 77.66666666666667 L 57.0 78.33333333333333 L 58.0 78.66666666666667 L 58.5 79.0 Z" stroke="none" fill="rgb(250,2,250)" />
<path d="M 55.5 79.5 L 55.666666666666664 79.0 L 56.0 78.0 L 56.0 77.0 L 56.0 76.0 L 56.333333333333336 75.0 L 57.0 74.0 L 58.0 73.0 L 58.666666666666664 72.0 L 59.0 71.0 L 58.666666666666664 70.0 L 58.0 69.0 L 57.0 68.0 L 56.0 67.0 L 55.0 66.0 L 54.0 65.0 L 53.0 64.33333333333333 L 52.0 63.666666666666664 L 51.0 63.0 L 50.0 62.333333333333336 L 49.0 61.666666666666664 L 48.0 61.0 L 47.0 60.333333333333336 L 46.0 60.0 L 45.0 59.666666666666664 L 44.0 59.0 L 43.0 58.333333333333336 L 42.0 58.0 L 41.0 58.0 L 40.0 58.0 L 39.0 58.0 L 38.0 58.0 L 37.0 58.333333333333336 L 36.333333333333336 59.0 L 36.0 60.0 L 36.0 61.0 L 36.0 62.0 L 36.333333333333336 62.666666666666664 L 37.0 63.333333333333336 L 38.0 64.0 L 39.0 64.66666666666667 L 40.0 65.0 L 41.0 65.33333333333333 L 42.0 66.0 L 42.666666666666664 67.0 L 42.666666666666664 68.0 L 42.333333333333336 69.0 L 42.0 70.0 L 41.666666666666664 71.0 L 41.333333333333336 72.0 L 41.0 73.0 L 41.0 74.0 L 41.0 75.0 L 41.0 76.0 L 41.0 77.0 L 41.333333333333336 78.0 L 42.0 79.0 L 43.0 80.0 L 44.0 81.0 L 45.0 82.0 L 46.0 82.66666666666667 L 47.0 83.0 L 48.0 83.0 L 49.0 83.0 L 50.0 83.0 L 51.0 83.0 L 52.0 82.66666666666667 L 53.0 82.0 L 54.0 81.0 L 54.5 80.5 Z" stroke="none" fill="rgb(66,43,13)" />
<path d="M 77.5 82.0 L 78.0 82.0 L 79.0 82.0 L 80.0 82.0 L 81.0 82.33333333333333 L 82.0 82.66666666666667 L 83.0 83.0 L 84.0 82.66666666666667 L 85.0 82.0 L 86.0 81.0 L 87.0 80.0 L 87.66666666666667 79.0 L 88.0 78.0 L 88.0 77.0 L 88.0 76.0 L 88.0 75.0 L 88.0 74.0 L 88.0 73.0 L 88.0 72.0 L 88.0 71.0 L 88.0 70.0 L 88.0 69.0 L 88.0 68.0 L 88.33333333333333 67.0 L 89.0 66.0 L 90.0 65.33333333333333 L 91.0 64.66666666666667 L 92.0 64.33333333333333 L 92.66666666666667 63.666666666666664 L 93.0 63.0 L 93.0 62.0 L 93.0 61.0 L 93.0 60.0 L 93.0 59.0 L 92.66666666666667 58.333333333333336 L 92.0 58.0 L 91.0 58.0 L 90.0 58.0 L 89.0 58.0 L 88.0 58.333333333333336 L 87.0 58.666666666666664 L 86.0 59.0 L 85.0 59.333333333333336 L 84.0 60.0 L 83.0 60.666666666666664 L 82.0 61.0 L 81.0 61.333333333333336 L 80.0 62.0 L 79.0 63.0 L 78.0 63.666666666666664 L 77.0 64.33333333333333 L 76.0 64.66666666666667 L 75.0 65.33333333333333 L 74.0 66.0 L 73.0 67.0 L 72.0 68.0 L 71.33333333333333 69.0 L 71.0 70.0 L 71.0 71.0 L 71.33333333333333 72.0 L 72.0 73.0 L 72.66666666666667 74.0 L 73.0 75.0 L 73.0 76.0 L 73.0 77.0 L 73.33333333333333 78.0 L 74.0 79.0 L 75.0 80.0 L 76.0 81.0 L 76.5 81.5 Z" stroke="none" fill="rgb(66,43,13)" />
<path d="M 39.5 86.5 L 40.0 87.0 L 41.0 88.0 L 42.0 89.0 L 43.0 89.66666666666667 L 44.0 89.66666666666667 L 45.0 89.0 L 46.0 88.33333333333333 L 47.0 88.0 L 47.666666666666664 87.66666666666667 L 48.0 87.0 L 47.666666666666664 86.0 L 47.0 85.0 L 46.333333333333336 84.0 L 46.0 83.0 L 45.666666666666664 82.0 L 45.0 81.0 L 44.0 80.0 L 43.0 79.0 L 42.0 78.0 L 41.333333333333336 77.0 L 41.0 76.0 L 41.0 75.0 L 41.0 74.0 L 40.666666666666664 73.0 L 40.333333333333336 72.0 L 40.0 71.0 L 39.666666666666664 70.0 L 39.333333333333336 69.0 L 39.0 68.0 L 39.333333333333336 67.0 L 39.666666666666664 66.0 L 39.666666666666664 65.0 L 39.0 64.0 L 38.0 63.333333333333336 L 37.0 62.666666666666664 L 36.0 62.333333333333336 L 35.0 62.0 L 34.333333333333336 62.333333333333336 L 34.0 63.0 L 34.0 64.0 L 34.0 65.0 L 34.0 66.0 L 34.0 67.0 L 34.0 68.0 L 34.0 69.0 L 34.0 70.0 L 34.0 71.0 L 34.0 72.0 L 34.0 73.0 L 34.333333333333336 74.0 L 34.666666666666664 75.0 L 35.0 76.0 L 35.0 77.0 L 35.333333333333336 78.0 L 35.666666666666664 79.0 L 36.0 80.0 L 36.333333333333336 81.0 L 36.666666666666664 82.0 L 37.333333333333336 83.0 L 38.0 84.0 L 38.666666666666664 85.0 L 39.0 85.5 Z" stroke="none" fill="rgb(235,7,237)" />
<path d="M 91.0 81.5 L 91.0 81.0 L 91.33333333333333 80.0 L 91.66666666666667 79.0 L 92.0 78.0 L 92.33333333333333 77.0 L 92.66666666666667 76.0 L 93.0 75.0 L 93.0 74.0 L 93.0 73.0 L 93.33333333333333 72.0 L 93.66666666666667 71.0 L 94.0 70.0 L 94.0 69.0 L 94.0 68.0 L 94.0 67.0 L 93.66666666666667 66.0 L 93.33333333333333 65.0 L 92.66666666666667 64.33333333333333 L 92.0 64.0 L 91.0 64.33333333333333 L 90.0 64.66666666666667 L 89.0 65.33333333333333 L 88.33333333333333 66.0 L 88.0 67.0 L 88.0 68.0 L 88.0 69.0 L 88.0 70.0 L 88.0 71.0 L 88.0 72.0 L 88.0 73.0 L 88.0 74.0 L 88.0 75.0 L 88.0 76.0 L 88.0 77.0 L 87.66666666666667 78.0 L 87.0 79.0 L 86.0 80.0 L 85.0 81.0 L 84.0 82.0 L 83.0 83.0 L 82.0 84.0 L 81.33333333333333 85.0 L 81.0 86.0 L 81.33333333333333 87.0 L 82.0 88.0 L 83.0 89.0 L 84.0 89.66666666666667 L 85.0 89.66666666666667 L 86.0 89.0 L 86.66666666666667 88.0 L 87.33333333333333 87.0 L 88.0 86.0 L 88.66666666666667 85.0 L 89.33333333333333 84.0 L 90.0 83.0 L 90.5 82.5 Z" stroke="none" fill="rgb(235,7,237)" />
<path d="M 39.5 70.5 L 39.666666666666664 71.0 L 40.0 72.0 L 40.333333333333336 72.66666666666667 L 41.0 72.66666666666667 L 41.666666666666664 72.0 L 42.0 71.0 L 42.333333333333336 70.0 L 42.666666666666664 69.0 L 43.0 68.0 L 43.0 67.0 L 42.666666666666664 66.0 L 42.0 65.33333333333333 L 41.0 65.0 L 40.0 65.33333333333333 L 39.333333333333336 66.0 L 39.0 67.0 L 39.0 68.0 L 39.0 69.0 L 39.0 69.5 Z" stroke="none" fill="rgb(239,5,241)" />
<path d="M 44.5 73.0 L 45.0 73.0 L 46.0 73.0 L 47.0 73.0 L 48.0 72.66666666666667 L 48.666666666666664 72.0 L 49.0 71.0 L 49.0 70.0 L 48.666666666666664 69.0 L 48.0 68.33333333333333 L 47.0 68.0 L 46.0 68.33333333333333 L 45.0 68.66666666666667 L 44.333333333333336 69.33333333333333 L 44.0 70.0 L 44.0 71.0 L 44.0 72.0 L 44.0 72.5 Z" stroke="none" fill="rgb(135,94,35)" />
<path d="M 79.5 73.0 L 80.0 73.0 L 80.66666666666667 72.66666666666667 L 81.0 72.0 L 81.0 71.0 L 81.0 70.0 L 81.0 69.0 L 80.66666666666667 68.33333333333333 L 80.0 68.0 L 79.0 68.0 L 78.0 68.33333333333333 L 77.33333333333333 69.0 L 77.0 70.0 L 77.0 71.0 L 77.0 72.0 L 77.33333333333333 72.66666666666667 L 78.0 73.0 L 78.5 73.0 Z" stroke="none" fill="rgb(135,94,35)" />
<path d="M 76.5 82.5 L 76.66666666666667 82.0 L 76.66666666666667 81.0 L 76.0 80.0 L 75.0 79.0 L 74.0 78.0 L 73.0 77.33333333333333 L 72.0 77.0 L 71.0 77.33333333333333 L 70.0 77.66666666666667 L 69.0 78.33333333333333 L 68.0 78.66666666666667 L 67.0 79.0 L 66.0 79.33333333333333 L 65.0 79.66666666666667 L 64.0 80.0 L 63.0 80.0 L 62.0 79.66666666666667 L 61.0 79.33333333333333 L 60.0 79.0 L 59.0 78.66666666666667 L 58.0 78.33333333333333 L 57.0 78.0 L 56.0 78.33333333333333 L 55.0 79.0 L 54.0 80.0 L 53.0 81.0 L 52.333333333333336 82.0 L 52.333333333333336 83.0 L 53.0 84.0 L 54.0 84.66666666666667 L 55.0 85.33333333333333 L 56.0 85.66666666666667 L 57.0 86.0 L 58.0 86.33333333333333 L 59.0 86.66666666666667 L 60.0 87.0 L 61.0 87.0 L 62.0 87.0 L 63.0 87.0 L 64.0 87.0 L 65.0 87.0 L 66.0 87.0 L 67.0 87.0 L 68.0 86.66666666666667 L 69.0 86.33333333333333 L 70.0 86.0 L 71.0 85.66666666666667 L 72.0 85.33333333333333 L 73.0 84.66666666666667 L 74.0 84.33333333333333 L 75.0 83.66666666666667 L 75.5 83.5 Z" stroke="none" fill="rgb(244,4,245)" />
<path d="M 59.5 89.0 L 60.0 89.33333333333333 L 61.0 89.66666666666667 L 62.0 90.0 L 63.0 90.0 L 64.0 90.0 L 65.0 90.0 L 66.0 90.0 L 67.0 90.0 L 68.0 90.0 L 69.0 90.0 L 70.0 90.0 L 71.0 90.0 L 72.0 90.0 L 73.0 90.0 L 74.0 89.66666666666667 L 75.0 89.33333333333333 L 76.0 89.0 L 77.0 89.0 L 78.0 88.66666666666667 L 79.0 88.33333333333333 L 80.0 88.0 L 80.66666666666667 87.66666666666667 L 81.0 87.0 L 81.33333333333333 86.0 L 82.0 85.0 L 82.66666666666667 84.0 L 82.66666666666667 83.0 L 82.0 82.33333333333333 L 81.0 82.0 L 80.0 82.0 L 79.0 82.0 L 78.0 82.0 L 77.0 82.0 L 76.0 82.33333333333333 L 75.0 83.0 L 74.0 83.66666666666667 L 73.0 84.33333333333333 L 72.0 84.66666666666667 L 71.0 85.33333333333333 L 70.0 85.66666666666667 L 69.0 86.0 L 68.0 86.33333333333333 L 67.0 86.66666666666667 L 66.0 87.0 L 65.0 87.0 L 64.0 87.0 L 63.0 87.0 L 62.0 87.0 L 61.0 87.0 L 60.0 86.66666666666667 L 59.0 86.33333333333333 L 58.0 86.0 L 57.0 85.66666666666667 L 56.0 85.33333333333333 L 55.0 84.66666666666667 L 54.0 84.0 L 53.0 83.33333333333333 L 52.0 83.0 L 51.0 83.0 L 50.0 83.0 L 49.0 83.0 L 48.0 83.0 L 47.0 83.0 L 46.333333333333336 83.33333333333333 L 46.0 84.0 L 46.333333333333336 85.0 L 47.0 86.0 L 47.666666666666664 87.0 L 48.333333333333336 87.66666666666667 L 49.0 88.0 L 50.0 88.0 L 51.0 88.0 L 52.0 88.33333333333333 L 53.0 88.66666666666667 L 54.0 89.0 L 55.0 89.0 L 56.0 89.0 L 57.0 89.0 L 58.0 89.0 L 58.5 89.0 Z" stroke="none" fill="rgb(239,5,241)" />
<path d="M 59.5 102.0 L 60.0 102.0 L 61.0 102.0 L 62.0 102.0 L 63.0 102.0 L 64.0 102.0 L 65.0 102.0 L 66.0 102.0 L 67.0 102.0 L 68.0 102.0 L 69.0 102.0 L 70.0 102.0 L 71.0 102.0 L 72.0 102.0 L 73.0 102.0 L 74.0 101.66666666666667 L 75.0 101.33333333333333 L 76.0 100.66666666666667 L 77.0 100.33333333333333 L 78.0 99.66666666666667 L 79.0 99.33333333333333 L 80.0 98.66666666666667 L 81.0 98.33333333333333 L 82.0 97.66666666666667 L 82.66666666666667 97.0 L 83.0 96.0 L 83.33333333333333 95.0 L 84.0 94.0 L 84.66666666666667 93.0 L 85.0 92.0 L 85.0 91.0 L 84.66666666666667 90.0 L 84.0 89.0 L 83.0 88.0 L 82.0 87.33333333333333 L 81.0 87.33333333333333 L 80.0 87.66666666666667 L 79.0 88.0 L 78.0 88.33333333333333 L 77.0 88.66666666666667 L 76.0 89.0 L 75.0 89.0 L 74.0 89.33333333333333 L 73.0 89.66666666666667 L 72.0 90.0 L 71.0 90.0 L 70.0 90.0 L 69.0 90.0 L 68.0 90.0 L 67.0 90.0 L 66.0 90.0 L 65.0 90.0 L 64.0 90.0 L 63.0 90.0 L 62.0 89.66666666666667 L 61.0 89.33333333333333 L 60.0 89.0 L 59.0 89.0 L 58.0 89.0 L 57.0 89.0 L 56.0 89.0 L 55.0 89.0 L 54.0 88.66666666666667 L 53.0 88.33333333333333 L 52.0 88.0 L 51.0 88.0 L 50.0 88.0 L 49.0 88.0 L 48.0 88.0 L 47.0 88.0 L 46.0 88.0 L 45.0 88.33333333333333 L 44.333333333333336 89.0 L 44.0 90.0 L 44.0 91.0 L 44.0 92.0 L 44.0 93.0 L 44.333333333333336 94.0 L 45.0 95.0 L 46.0 96.0 L 47.0 97.0 L 48.0 98.0 L 49.0 98.66666666666667 L 50.0 99.33333333333333 L 51.0 99.66666666666667 L 52.0 100.33333333333333 L 53.0 100.66666666666667 L 54.0 101.0 L 55.0 101.0 L 56.0 101.33333333333333 L 57.0 101.66666666666667 L 58.0 102.0 L 58.5 102.0 Z" stroke="none" fill="rgb(66,43,13)" />
</svg>
