<?xml version="1.0" encoding="UTF-8" standalone="no"?>
<!DOCTYPE svg PUBLIC "-//W3C//DTD SVG 1.1//EN"
"http://www.w3.org/Graphics/SVG/1.1/DTD/svg11.dtd">
<svg width="128" height="128" xmlns="http://www.w3.org/2000/svg" version="1.1">
<path d="M 88.5 128.0 L 89.0 128.0 L 90.0 128.0 L 91.0 128.0 L 92.0 128.0 L 93.0 128.0 L 94.0 128.0 L 95.0 128.0 L 96.0 128.0 L 97.0 128.0 L 98.0 128.0 L 99.0 128.0 L 100.0 128.0 L 101.0 128.0 L 102.0 128.0 L 103.0 128.0 L 104.0 128.0 L 105.0 128.0 L 106.0 128.0 L 107.0 128.0 L 108.0 128.0 L 109.0 128.0 L 110.0 128.0 L 111.0 128.0 L 112.0 128.0 L 113.0 128.0 L 114.0 128.0 L 115.0 128.0 L 116.0 128.0 L 117.0 128.0 L 118.0 128.0 L 119.0 128.0 L 120.0 128.0 L 121.0 128.0 L 122.0 128.0 L 123.0 128.0 L 124.0 128.0 L 125.0 128.0 L 126.0 128.0 L 127.0 128.0 L 127.66666666666667 127.66666666666667 L 128.0 127.0 L 128.0 126.0 L 128.0 125.0 L 128.0 124.0 L 128.0 123.0 L 128.0 122.0 L 128.0 121.0 L 128.0 120.0 L 128.0 119.0 L 128.0 118.0 L 128.0 117.0 L 128.0 116.0 L 128.0 115.0 L 128.0 114.0 L 128.0 113.0 L 128.0 112.0 L 128.0 111.0 L 128.0 110.0 L 128.0 109.0 L 128.0 108.0 L 128.0 107.0 L 128.0 106.0 L 128.0 105.0 L 128.0 104.0 L 128.0 103.0 L 128.0 102.0 L 128.0 101.0 L 128.0 100.0 L 128.0 99.0 L 128.0 98.0 L 128.0 97.0 L 128.0 96.0 L 128.0 95.0 L 128.0 94.0 L 128.0 93.0 L 128.0 92.0 L 128.0 91.0 L 128.0 90.0 L 128.0 89.0 L 128.0 88.0 L 128.0 87.0 L 128.0 86.0 L 128.0 85.0 L 128.0 84.0 L 128.0 83.0 L 128.0 82.0 L 128.0 81.0 L 128.0 80.0 L 128.0 79.0 L 128.0 78.0 L 128.0 77.0 L 128.0 76.0 L 128.0 75.0 L 128.0 74.0 L 128.0 73.0 L 128.0 72.0 L 128.0 71.0 L 128.0 70.0 L 128.0 69.0 L 128.0 68.0 L 128.0 67.0 L 128.0 66.0 L 128.0 65.0 L 128.0 64.0 L 128.0 63.0 L 128.0 62.0 L 128.0 61.0 L 128.0 60.0 L 128.0 59.0 L 128.0 58.0 L 128.0 57.0 L 128.0 56.0 L 128.0 55.0 L 128.0 54.0 L 128.0 53.0 L 128.0 52.0 L 128.0 51.0 L 128.0 50.0 L 128.0 49.0 L 128.0 48.0 L 128.0 47.0 L 128.0 46.0 L 128.0 45.0 L 128.0 44.0 L 128.0 43.0 L 128.0 42.0 L 128.0 41.0 L 128.0 40.0 L 128.0 39.0 L 128.0 38.0 L 128.0 37.0 L 128.0 36.0 L 128.0 35.0 L 128.0 34.0 L 128.0 33.0 L 128.0 32.0 L 128.0 31.0 L 128.0 30.0 L 128.0 29.0 L 128.0 28.0 L 128.0 27.0 L 128.0 26.0 L 128.0 25.0 L 128.0 24.0 L 128.0 23.0 L 128.0 22.0 L 128.0 21.0 L 128.0 20.0 L 128.0 19.0 L 128.0 18.0 L 128.0 17.0 L 128.0 16.0 L 128.0 15.0 L 128.0 14.0 L 128.0 13.0 L 128.0 12.0 L 128.0 11.0 L 128.0 10.0 L 128.0 9.0 L 128.0 8.0 L 128.0 7.0 L 128.0 6.0 L 128.0 5.0 L 128.0 4.0 L 128.0 3.0 L 128.0 2.0 L 128.0 1.0 L 127.66666666666667 0.3333333333333333 L 127.0 0.0 L 126.0 0.0 L 125.0 0.0 L 124.0 0.0 L 123.0 0.0 L 122.0 0.0 L 121.0 0.0 L 120.0 0.0 L 119.0 0.0 L 118.0 0.0 L 117.0 0.0 L 116.0 0.0 L 115.0 0.0 L 114.0 0.0 L 113.0 0.0 L 112.0 0.0 L 111.0 0.0 L 110.0 0.0 L 109.0 0.0 L 108.0 0.0 L 107.0 0.0 L 106.0 0.0 L 105.0 0.0 L 104.0 0.0 L 103.0 0.0 L 102.0 0.0 L 101.0 0.0 L 100.0 0.0 L 99.0 0.0 L 98.0 0.0 L 97.0 0.0 L 96.0 0.0 L 95.0 0.0 L 94.0 0.0 L 93.0 0.0 L 92.0 0.0 L 91.0 0.0 L 90.0 0.0 L 89.0 0.0 L 88.0 0.0 L 87.0 0.0 L 86.0 0.0 L 85.0 0.0 L 84.0 0.0 L 83.0 0.0 L 82.0 0.0 L 81.0 0.0 L 80.0 0.0 L 79.0 0.0 L 78.0 0.0 L 77.0 0.0 L 76.0 0.0 L 75.0 0.0 L 74.0 0.0 L 73.0 0.0 L 72.0 0.0 L 71.0 0.0 L 70.0 0.0 L 69.0 0.0 L 68.0 0.0 L 67.0 0.0 L 66.0 0.0 L 65.0 0.0 L 64.0 0.0 L 63.0 0.0 L 62.0 0.0 L 61.0 0.0 L 60.0 0.0 L 59.0 0.0 L 58.0 0.0 L 57.0 0.0 L 56.0 0.0 L 55.0 0.0 L 54.0 0.0 L 53.0 0.0 L 52.0 0.0 L 51.0 0.0 L 50.0 0.0 L 49.0 0.0 L 48.0 0.0 L 47.0 0.0 L 46.0 0.0 L 45.0 0.0 L 44.0 0.0 L 43.0 0.0 L 42.0 0.0 L 41.0 0.0 L 40.0 0.0 L 39.0 0.0 L 38.0 0.0 L 37.0 0.0 L 36.0 0.0 L 35.0 0.0 L 34.0 0.0 L 33.0 0.0 L 32.0 0.0 L 31.0 0.0 L 30.0 0.0 L 29.0 0.0 L 28.0 0.0 L 27.0 0.0 L 26.0 0.0 L 25.0 0.0 L 24.0 0.0 L 23.0 0.0 L 22.0 0.0 L 21.0 0.0 L 20.0 0.0 L 19.0 0.0 L 18.0 0.0 L 17.0 0.0 L 16.0 0.0 L 15.0 0.0 L 14.0 0.0 L 13.0 0.0 L 12.0 0.0 L 11.0 0.0 L 10.0 0.0 L 9.0 0.0 L 8.0 0.0 L 7.0 0.0 L 6.0 0.0 L 5.0 0.0 L 4.0 0.0 L 3.0 0.0 L 2.0 0.0 L 1.0 0.0 L 0.3333333333333333 0.3333333333333333 L 0.0 1.0 L 0.0 2.0 L 0.0 3.0 L 0.0 4.0 L 0.0 5.0 L 0.0 6.0 L 0.0 7.0 L 0.0 8.0 L 0.0 9.0 L 0.0 10.0 L 0.0 11.0 L 0.0 12.0 L 0.0 13.0 L 0.0 14.0 L 0.0 15.0 L 0.0 16.0 L 0.0 17.0 L 0.0 18.0 L 0.0 19.0 L 0.0 20.0 L 0.0 21.0 L 0.0 22.0 L 0.0 23.0 L 0.0 24.0 L 0.0 25.0 L 0.0 26.0 L 0.0 27.0 L 0.0 28.0 L 0.0 29.0 L 0.0 30.0 L 0.0 31.0 L 0.0 32.0 L 0.0 33.0 L 0.0 34.0 L 0.0 35.0 L 0.0 36.0 L 0.0 37.0 L 0.0 38.0 L 0.0 39.0 L 0.0 40.0 L 0.0 41.0 L 0.0 42.0 L 0.0 43.0 L 0.0 44.0 L 0.0 45.0 L 0.0 46.0 L 0.0 47.0 L 0.0 48.0 L 0.0 49.0 L 0.0 50.0 L 0.0 51.0 L 0.0 52.0 L 0.0 53.0 L 0.0 54.0 L 0.0 55.0 L 0.0 56.0 L 0.0 57.0 L 0.0 58.0 L 0.0 59.0 L 0.0 60.0 L 0.0 61.0 L 0.0 62.0 L 0.0 63.0 L 0.0 64.0 L 0.0 65.0 L 0.0 66.0 L 0.0 67.0 L 0.0 68.0 L 0.0 69.0 L 0.0 70.0 L 0.0 71.0 L 0.0 72.0 L 0.0 73.0 L 0.0 74.0 L 0.0 75.0 L 0.0 76.0 L 0.0 77.0 L 0.0 78.0 L 0.0 79.0 L 0.0 80.0 L 0.0 81.0 L 0.0 82.0 L 0.0 83.0 L 0.0 84.0 L 0.0 85.0 L 0.0 86.0 L 0.0 87.0 L 0.0 88.0 L 0.0 89.0 L 0.0 90.0 L 0.0 91.0 L 0.0 92.0 L 0.0 93.0 L 0.0 94.0 L 0.0 95.0 L 0.0 96.0 L 0.0 97.0 L 0.0 98.0 L 0.0 99.0 L 0.0 100.0 L 0.0 101.0 L 0.0 102.0 L 0.0 103.0 L 0.0 104.0 L 0.0 105.0 L 0.0 106.0 L 0.0 107.0 L 0.0 108.0 L 0.0 109.0 L 0.0 110.0 L 0.0 111.0 L 0.0 112.0 L 0.0 113.0 L 0.0 114.0 L 0.0 115.0 L 0.0 116.0 L 0.0 117.0 L 0.0 118.0 L 0.0 119.0 L 0.0 120.0 L 0.0 121.0 L 0.0 122.0 L 0.0 123.0 L 0.0 124.0 L 0.0 125.0 L 0.0 126.0 L 0.0 127.0 L 0.3333333333333333 127.66666666666667 L 1.0 128.0 L 2.0 128.0 L 3.0 128.0 L 4.0 128.0 L 5.0 128.0 L 6.0 128.0 L 7.0 128.0 L 8.0 128.0 L 9.0 128.0 L 10.0 128.0 L 11.0 128.0 L 12.0 128.0 L 13.0 128.0 L 14.0 128.0 L 15.0 128.0 L 16.0 128.0 L 17.0 128.0 L 18.0 128.0 L 19.0 128.0 L 20.0 128.0 L 21.0 128.0 L 22.0 128.0 L 23.0 128.0 L 24.0 128.0 L 25.0 128.0 L 26.0 128.0 L 27.0 128.0 L 28.0 128.0 L 29.0 128.0 L 30.0 128.0 L 31.0 128.0 L 32.0 128.0 L 33.0 128.0 L 34.0 128.0 L 35.0 128.0 L 36.0 128.0 L 37.0 128.0 L 38.0 128.0 L 39.0 128.0 L 40.0 128.0 L 41.0 128.0 L 42.0 128.0 L 43.0 128.0 L 44.0 128.0 L 45.0 128.0 L 46.0 128.0 L 47.0 128.0 L 48.0 128.0 L 49.0 128.0 L 50.0 128.0 L 51.0 128.0 L 52.0 128.0 L 53.0 128.0 L 54.0 128.0 L 55.0 128.0 L 56.0 128.0 L 57.0 128.0 L 58.0 128.0 L 59.0 128.0 L 60.0 128.0 L 61.0 128.0 L 62.0 128.0 L 63.0 128.0 L 64.0 128.0 L 65.0 128.0 L 66.0 128.0 L 67.0 128.0 L 68.0 128.0 L 69.0 128.0 L 70.0 128.0 L 71.0 128.0 L 72.0 128.0 L 73.0 128.0 L 74.0 128.0 L 75.0 128.0 L 76.0 128.0 L 77.0 128.0 L 78.0 128.0 L 79.0 128.0 L 80.0 128.0 L 81.0 128.0 L 82.0 128.0 L 83.0 128.0 L 84.0 128.0 L 85.0 128.0 L 86.0 128.0 L 87.0 128.0 L 87.5 128.0 Z" stroke="none" fill="rgb(0,0,0)" />
<path d="M 36.5 24.0 L 37.0 24.0 L 38.0 24.0 L 38.666666666666664 23.666666666666668 L 39.0 23.0 L 39.0 22.0 L 39.0 21.0 L 39.0 20.0 L 38.666666666666664 19.333333333333332 L 38.0 19.0 L 37.0 19.0 L 36.0 19.0 L 35.333333333333336 19.333333333333332 L 34.666666666666664 20.0 L 34.333333333333336 21.0 L 34.333333333333336 22.0 L 34.666666666666664 23.0 L 35.333333333333336 23.666666666666668 L 35.5 24.0 Z" stroke="none" fill="rgb(255,255,255)" />
<path d="M 75.5 60.5 L 75.66666666666667 61.0 L 76.0 62.0 L 76.33333333333333 63.0 L 76.66666666666667 64.0 L 77.0 65.0 L 77.0 66.0 L 77.33333333333333 67.0 L 78.0 68.0 L 79.0 69.0 L 80.0 70.0 L 81.0 71.0 L 82.0 71.66666666666667 L 83.0 72.0 L 84.0 71.66666666666667 L 84.66666666666667 71.0 L 85.33333333333333 70.0 L 85.66666666666667 69.0 L 86.0 68.0 L 86.33333333333333 67.0 L 86.66666666666667 66.0 L 87.33333333333333 65.0 L 87.66666666666667 64.0 L 88.0 63.0 L 87.66666666666667 62.0 L 87.0 61.0 L 86.33333333333333 60.0 L 85.66666666666667 59.0 L 85.0 58.0 L 84.33333333333333 57.0 L 83.66666666666667 56.0 L 83.33333333333333 55.0 L 82.66666666666667 54.0 L 82.0 53.0 L 81.33333333333333 52.0 L 80.66666666666667 51.0 L 80.33333333333333 50.0 L 79.66666666666667 49.0 L 79.33333333333333 48.0 L 78.66666666666667 47.0 L 78.0 46.0 L 77.33333333333333 45.0 L 76.66666666666667 44.0 L 76.33333333333333 43.0 L 75.66666666666667 42.0 L 75.0 41.0 L 74.33333333333333 40.0 L 73.66666666666667 39.0 L 73.0 38.0 L 72.33333333333333 37.0 L 71.66666666666667 36.0 L 71.33333333333333 35.0 L 70.66666666666667 34.0 L 70.0 33.0 L 69.33333333333333 32.0 L 68.66666666666667 31.0 L 68.0 30.0 L 67.33333333333333 29.0 L 66.66666666666667 28.0 L 66.0 27.333333333333332 L 65.0 27.0 L 64.0 27.333333333333332 L 63.333333333333336 28.0 L 63.0 29.0 L 63.0 30.0 L 63.0 31.0 L 63.333333333333336 32.0 L 63.666666666666664 33.0 L 64.33333333333333 34.0 L 64.66666666666667 35.0 L 65.33333333333333 36.0 L 65.66666666666667 37.0 L 66.33333333333333 38.0 L 66.66666666666667 39.0 L 67.0 40.0 L 67.33333333333333 41.0 L 67.66666666666667 42.0 L 68.33333333333333 43.0 L 68.66666666666667 44.0 L 69.33333333333333 45.0 L 69.66666666666667 46.0 L 70.33333333333333 47.0 L 70.66666666666667 48.0 L 71.33333333333333 49.0 L 71.66666666666667 50.0 L 72.33333333333333 51.0 L 72.66666666666667 52.0 L 73.0 53.0 L 73.0 54.0 L 73.33333333333333 55.0 L 73.66666666666667 56.0 L 74.0 57.0 L 74.0 58.0 L 74.33333333333333 59.0 L 74.5 59.5 Z" stroke="none" fill="rgb(113,122,124)" />
<path d="M 59.5 84.5 L 59.666666666666664 84.0 L 60.0 83.0 L 60.0 82.0 L 60.333333333333336 81.0 L 61.0 80.0 L 61.666666666666664 79.0 L 62.333333333333336 78.0 L 63.0 77.0 L 63.666666666666664 76.0 L 64.33333333333333 75.0 L 65.0 74.0 L 66.0 73.0 L 66.66666666666667 72.0 L 67.33333333333333 71.0 L 68.0 70.0 L 68.66666666666667 69.0 L 69.0 68.0 L 69.0 67.0 L 69.0 66.0 L 69.0 65.0 L 69.33333333333333 64.0 L 69.66666666666667 63.0 L 70.33333333333333 62.0 L 70.66666666666667 61.0 L 71.33333333333333 60.0 L 72.0 59.0 L 73.0 58.333333333333336 L 73.66666666666667 57.666666666666664 L 74.0 57.0 L 74.0 56.0 L 73.66666666666667 55.0 L 73.33333333333333 54.0 L 73.0 53.0 L 73.0 52.0 L 72.66666666666667 51.0 L 72.33333333333333 50.0 L 71.66666666666667 49.0 L 71.33333333333333 48.0 L 70.66666666666667 47.0 L 70.33333333333333 46.0 L 69.66666666666667 45.0 L 69.33333333333333 44.0 L 68.66666666666667 43.0 L 68.33333333333333 42.0 L 67.66666666666667 41.0 L 67.33333333333333 40.0 L 67.0 39.0 L 66.66666666666667 38.0 L 66.33333333333333 37.0 L 65.66666666666667 36.0 L 65.33333333333333 35.0 L 64.66666666666667 34.0 L 64.33333333333333 33.0 L 63.666666666666664 32.0 L 63.333333333333336 31.0 L 63.0 30.0 L 63.0 29.0 L 62.666666666666664 28.333333333333332 L 62.0 28.0 L 61.333333333333336 28.333333333333332 L 60.666666666666664 29.0 L 60.0 30.0 L 59.333333333333336 31.0 L 58.666666666666664 32.0 L 58.333333333333336 33.0 L 57.666666666666664 34.0 L 57.333333333333336 35.0 L 56.666666666666664 36.0 L 56.333333333333336 37.0 L 56.0 38.0 L 56.0 39.0 L 56.0 40.0 L 56.0 41.0 L 56.0 42.0 L 56.333333333333336 43.0 L 56.666666666666664 44.0 L 57.0 45.0 L 57.0 46.0 L 57.0 47.0 L 57.0 48.0 L 57.333333333333336 49.0 L 57.666666666666664 50.0 L 58.0 51.0 L 58.0 52.0 L 58.0 53.0 L 58.0 54.0 L 58.333333333333336 55.0 L 58.666666666666664 56.0 L 59.0 57.0 L 59.0 58.0 L 59.0 59.0 L 59.0 60.0 L 59.0 61.0 L 59.0 62.0 L 59.0 63.0 L 59.0 64.0 L 59.0 65.0 L 59.0 66.0 L 59.0 67.0 L 58.666666666666664 68.0 L 58.333333333333336 69.0 L 57.666666666666664 70.0 L 57.333333333333336 71.0 L 57.0 72.0 L 56.666666666666664 73.0 L 56.333333333333336 74.0 L 55.666666666666664 75.0 L 55.333333333333336 76.0 L 55.0 77.0 L 55.0 78.0 L 55.0 79.0 L 55.0 80.0 L 55.0 81.0 L 55.0 82.0 L 55.0 83.0 L 55.0 84.0 L 55.333333333333336 84.66666666666667 L 56.0 85.0 L 57.0 85.0 L 58.0 85.0 L 58.5 85.0 Z" stroke="none" fill="rgb(192,192,192)" />
<path d="M 88.5 34.5 L 89.0 34.0 L 89.66666666666667 33.0 L 89.66666666666667 32.0 L 89.0 31.333333333333332 L 88.0 31.0 L 87.0 31.0 L 86.0 31.333333333333332 L 85.33333333333333 32.0 L 85.33333333333333 33.0 L 86.0 34.0 L 87.0 34.666666666666664 L 87.5 35.0 Z" stroke="none" fill="rgb(255,255,255)" />
<path d="M 40.0 40.5 L 40.0 40.0 L 40.0 39.0 L 39.666666666666664 38.333333333333336 L 39.0 38.0 L 38.0 37.666666666666664 L 37.0 37.0 L 36.333333333333336 36.0 L 35.666666666666664 35.333333333333336 L 35.0 35.0 L 34.333333333333336 35.333333333333336 L 33.666666666666664 36.0 L 33.0 37.0 L 32.0 37.666666666666664 L 31.0 38.0 L 30.333333333333332 38.333333333333336 L 30.0 39.0 L 30.0 40.0 L 30.333333333333332 40.666666666666664 L 31.0 41.333333333333336 L 31.666666666666668 42.0 L 32.0 43.0 L 32.0 44.0 L 32.333333333333336 44.666666666666664 L 33.0 45.0 L 34.0 45.0 L 35.0 45.0 L 36.0 45.0 L 37.0 45.0 L 38.0 45.0 L 38.666666666666664 44.666666666666664 L 39.0 44.0 L 39.0 43.0 L 39.333333333333336 42.0 L 39.5 41.5 Z" stroke="none" fill="rgb(255,255,255)" />
<path d="M 57.5 95.5 L 58.0 95.0 L 59.0 94.0 L 60.0 93.0 L 61.0 92.0 L 62.0 91.0 L 63.0 90.0 L 64.0 89.0 L 65.0 88.0 L 66.0 87.33333333333333 L 67.0 86.66666666666667 L 68.0 86.33333333333333 L 69.0 86.0 L 70.0 85.66666666666667 L 71.0 85.33333333333333 L 72.0 84.66666666666667 L 73.0 84.0 L 74.0 83.0 L 75.0 82.33333333333333 L 76.0 81.66666666666667 L 77.0 81.0 L 78.0 80.0 L 79.0 79.0 L 80.0 78.0 L 81.0 77.0 L 82.0 76.0 L 82.66666666666667 75.0 L 83.0 74.0 L 83.0 73.0 L 82.66666666666667 72.0 L 82.0 71.0 L 81.0 70.0 L 80.0 69.0 L 79.0 68.0 L 78.0 67.0 L 77.33333333333333 66.0 L 77.0 65.0 L 77.0 64.0 L 76.66666666666667 63.0 L 76.33333333333333 62.0 L 76.0 61.0 L 75.66666666666667 60.0 L 75.0 59.0 L 74.0 58.333333333333336 L 73.0 58.0 L 72.0 58.333333333333336 L 71.33333333333333 59.0 L 70.66666666666667 60.0 L 70.33333333333333 61.0 L 69.66666666666667 62.0 L 69.33333333333333 63.0 L 69.0 64.0 L 69.0 65.0 L 69.0 66.0 L 69.0 67.0 L 68.66666666666667 68.0 L 68.0 69.0 L 67.33333333333333 70.0 L 66.66666666666667 71.0 L 66.0 72.0 L 65.0 73.0 L 64.33333333333333 74.0 L 63.666666666666664 75.0 L 63.0 76.0 L 62.333333333333336 77.0 L 61.666666666666664 78.0 L 61.0 79.0 L 60.333333333333336 80.0 L 60.0 81.0 L 60.0 82.0 L 59.666666666666664 83.0 L 59.0 84.0 L 58.0 84.66666666666667 L 57.0 85.0 L 56.0 84.66666666666667 L 55.333333333333336 84.0 L 55.0 83.0 L 55.0 82.0 L 55.0 81.0 L 55.0 80.0 L 55.0 79.0 L 55.0 78.0 L 55.333333333333336 77.0 L 55.666666666666664 76.0 L 56.333333333333336 75.0 L 56.666666666666664 74.0 L 57.0 73.0 L 57.333333333333336 72.0 L 57.666666666666664 71.0 L 58.333333333333336 70.0 L 58.666666666666664 69.0 L 59.0 68.0 L 59.0 67.0 L 59.0 66.0 L 59.0 65.0 L 59.0 64.0 L 59.0 63.0 L 59.0 62.0 L 59.0 61.0 L 59.0 60.0 L 59.0 59.0 L 59.0 58.0 L 59.0 57.0 L 59.0 56.0 L 58.666666666666664 55.0 L 58.333333333333336 54.0 L 58.0 53.0 L 58.0 52.0 L 58.0 51.0 L 58.0 50.0 L 57.666666666666664 49.0 L 57.333333333333336 48.0 L 57.0 47.0 L 57.0 46.0 L 57.0 45.0 L 57.0 44.0 L 56.666666666666664 43.0 L 56.333333333333336 42.0 L 56.0 41.0 L 56.0 40.0 L 55.666666666666664 39.333333333333336 L 55.0 39.0 L 54.0 39.333333333333336 L 53.0 40.0 L 52.0 41.0 L 51.333333333333336 42.0 L 50.666666666666664 43.0 L 50.0 44.0 L 49.0 45.0 L 48.0 46.0 L 47.0 47.0 L 46.333333333333336 48.0 L 46.0 49.0 L 46.0 50.0 L 46.0 51.0 L 46.333333333333336 52.0 L 46.666666666666664 53.0 L 47.0 54.0 L 47.0 55.0 L 47.0 56.0 L 47.0 57.0 L 47.333333333333336 58.0 L 47.666666666666664 59.0 L 48.0 60.0 L 48.333333333333336 61.0 L 48.666666666666664 62.0 L 49.0 63.0 L 49.0 64.0 L 49.0 65.0 L 49.0 66.0 L 49.0 67.0 L 49.0 68.0 L 48.666666666666664 69.0 L 48.333333333333336 70.0 L 47.666666666666664 71.0 L 47.333333333333336 72.0 L 47.0 73.0 L 46.666666666666664 74.0 L 46.333333333333336 75.0 L 45.666666666666664 76.0 L 45.333333333333336 77.0 L 45.0 78.0 L 44.666666666666664 79.0 L 44.333333333333336 80.0 L 44.0 81.0 L 44.0 82.0 L 44.0 83.0 L 44.0 84.0 L 44.333333333333336 85.0 L 44.666666666666664 86.0 L 45.333333333333336 87.0 L 45.666666666666664 88.0 L 46.0 89.0 L 46.333333333333336 90.0 L 46.666666666666664 91.0 L 47.0 92.0 L 47.0 93.0 L 47.0 94.0 L 47.333333333333336 95.0 L 48.0 96.0 L 48.666666666666664 97.0 L 49.333333333333336 97.66666666666667 L 50.0 98.0 L 51.0 98.0 L 52.0 98.33333333333333 L 53.0 98.66666666666667 L 54.0 99.0 L 54.666666666666664 98.66666666666667 L 55.333333333333336 98.0 L 56.0 97.0 L 56.5 96.5 Z" stroke="none" fill="rgb(158,162,163)" />
<path d="M 99.0 51.5 L 99.0 51.0 L 99.33333333333333 50.0 L 100.0 49.0 L 100.66666666666667 48.0 L 101.0 47.0 L 100.66666666666667 46.333333333333336 L 100.0 46.0 L 99.0 45.666666666666664 L 98.0 45.0 L 97.33333333333333 44.0 L 96.66666666666667 43.333333333333336 L 96.0 43.0 L 95.0 43.333333333333336 L 94.33333333333333 44.0 L 93.66666666666667 45.0 L 93.0 45.666666666666664 L 92.0 46.0 L 91.33333333333333 46.333333333333336 L 91.0 47.0 L 91.33333333333333 48.0 L 92.0 49.0 L 92.66666666666667 50.0 L 93.0 51.0 L 93.33333333333333 51.666666666666664 L 94.0 52.0 L 95.0 52.0 L 96.0 52.0 L 97.0 52.0 L 98.0 52.0 L 98.5 52.0 Z" stroke="none" fill="rgb(255,255,255)" />
<path d="M 13.5 49.5 L 13.666666666666666 49.0 L 14.0 48.0 L 14.0 47.0 L 13.666666666666666 46.333333333333336 L 13.0 46.0 L 12.0 46.0 L 11.0 46.0 L 10.333333333333334 46.333333333333336 L 10.0 47.0 L 10.0 48.0 L 10.333333333333334 49.0 L 11.0 49.666666666666664 L 12.0 50.0 L 12.5 50.0 Z" stroke="none" fill="rgb(255,255,255)" />
<path d="M 33.5 93.5 L 34.0 93.66666666666667 L 35.0 94.33333333333333 L 36.0 94.66666666666667 L 37.0 95.0 L 37.666666666666664 94.66666666666667 L 38.333333333333336 94.0 L 39.0 93.0 L 40.0 92.66666666666667 L 40.666666666666664 93.0 L 41.0 94.0 L 41.0 95.0 L 41.333333333333336 96.0 L 42.0 96.66666666666667 L 43.0 97.0 L 44.0 96.66666666666667 L 44.666666666666664 96.0 L 45.333333333333336 95.0 L 46.0 94.33333333333333 L 46.666666666666664 93.66666666666667 L 47.0 93.0 L 47.0 92.0 L 47.0 91.0 L 46.666666666666664 90.0 L 46.333333333333336 89.0 L 46.0 88.0 L 45.666666666666664 87.0 L 45.333333333333336 86.0 L 44.666666666666664 85.0 L 44.333333333333336 84.0 L 44.0 83.0 L 44.0 82.0 L 44.333333333333336 81.0 L 44.666666666666664 80.0 L 45.0 79.0 L 45.333333333333336 78.0 L 45.666666666666664 77.0 L 46.333333333333336 76.0 L 46.666666666666664 75.0 L 47.0 74.0 L 47.333333333333336 73.0 L 47.666666666666664 72.0 L 48.333333333333336 71.0 L 48.666666666666664 70.0 L 49.0 69.0 L 49.0 68.0 L 49.0 67.0 L 49.0 66.0 L 49.0 65.0 L 49.0 64.0 L 49.0 63.0 L 49.0 62.0 L 48.666666666666664 61.0 L 48.333333333333336 60.0 L 48.0 59.0 L 47.666666666666664 58.0 L 47.333333333333336 57.0 L 47.0 56.0 L 47.0 55.0 L 47.0 54.0 L 47.0 53.0 L 46.666666666666664 52.0 L 46.333333333333336 51.0 L 45.666666666666664 50.333333333333336 L 45.0 50.0 L 44.333333333333336 50.333333333333336 L 43.666666666666664 51.0 L 43.333333333333336 52.0 L 43.0 53.0 L 42.666666666666664 54.0 L 42.333333333333336 55.0 L 41.666666666666664 56.0 L 41.333333333333336 57.0 L 41.0 58.0 L 40.666666666666664 59.0 L 40.333333333333336 60.0 L 39.666666666666664 61.0 L 39.333333333333336 62.0 L 39.0 63.0 L 38.666666666666664 64.0 L 38.333333333333336 65.0 L 37.666666666666664 66.0 L 37.333333333333336 67.0 L 36.666666666666664 68.0 L 36.333333333333336 69.0 L 35.666666666666664 70.0 L 35.333333333333336 71.0 L 34.666666666666664 72.0 L 34.333333333333336 73.0 L 33.666666666666664 74.0 L 33.333333333333336 75.0 L 32.666666666666664 76.0 L 32.333333333333336 77.0 L 31.666666666666668 78.0 L 31.333333333333332 79.0 L 30.666666666666668 80.0 L 30.333333333333332 81.0 L 29.666666666666668 82.0 L 29.333333333333332 83.0 L 28.666666666666668 84.0 L 28.333333333333332 85.0 L 27.666666666666668 86.0 L 27.333333333333332 87.0 L 27.0 88.0 L 27.333333333333332 89.0 L 28.0 89.66666666666667 L 29.0 90.33333333333333 L 30.0 91.0 L 31.0 91.66666666666667 L 32.0 92.33333333333333 L 32.5 92.5 Z" stroke="none" fill="rgb(192,192,192)" />
<path d="M 113.5 56.0 L 114.0 56.0 L 114.66666666666667 55.666666666666664 L 115.0 55.0 L 115.0 54.0 L 115.0 53.0 L 115.0 52.0 L 114.66666666666667 51.333333333333336 L 114.0 51.0 L 113.0 51.0 L 112.0 51.0 L 111.33333333333333 51.333333333333336 L 111.0 52.0 L 111.0 53.0 L 111.0 54.0 L 111.0 55.0 L 111.33333333333333 55.666666666666664 L 112.0 56.0 L 112.5 56.0 Z" stroke="none" fill="rgb(255,255,255)" />
<path d="M 20.5 64.0 L 21.0 64.0 L 22.0 63.666666666666664 L 22.666666666666668 63.0 L 23.0 62.0 L 23.0 61.0 L 23.0 60.0 L 22.666666666666668 59.0 L 22.0 58.333333333333336 L 21.0 58.0 L 20.0 58.333333333333336 L 19.0 58.666666666666664 L 18.333333333333332 59.333333333333336 L 18.0 60.0 L 18.0 61.0 L 18.0 62.0 L 18.333333333333332 63.0 L 19.0 63.666666666666664 L 19.5 64.0 Z" stroke="none" fill="rgb(255,255,255)" />
<path d="M 72.5 111.5 L 73.0 111.33333333333333 L 74.0 111.0 L 74.66666666666667 110.66666666666667 L 75.33333333333333 110.0 L 76.0 109.0 L 77.0 108.33333333333333 L 78.0 108.0 L 78.66666666666667 107.66666666666667 L 79.0 107.0 L 79.33333333333333 106.0 L 79.66666666666667 105.0 L 80.0 104.0 L 79.66666666666667 103.0 L 79.0 102.33333333333333 L 78.0 102.0 L 77.0 102.0 L 76.0 102.0 L 75.0 102.0 L 74.0 102.0 L 73.0 102.0 L 72.0 102.0 L 71.0 102.0 L 70.0 102.0 L 69.0 102.0 L 68.0 102.0 L 67.0 102.0 L 66.0 101.66666666666667 L 65.66666666666667 101.0 L 66.0 100.33333333333333 L 67.0 99.66666666666667 L 68.0 99.0 L 69.0 98.33333333333333 L 70.0 97.66666666666667 L 71.0 97.33333333333333 L 72.0 96.66666666666667 L 73.0 96.33333333333333 L 74.0 96.0 L 75.0 95.66666666666667 L 76.0 95.33333333333333 L 77.0 94.66666666666667 L 78.0 94.33333333333333 L 79.0 93.66666666666667 L 80.0 93.0 L 81.0 92.33333333333333 L 82.0 91.66666666666667 L 83.0 91.33333333333333 L 84.0 90.66666666666667 L 85.0 90.33333333333333 L 86.0 89.66666666666667 L 87.0 89.66666666666667 L 88.0 89.66666666666667 L 89.0 89.66666666666667 L 90.0 89.0 L 91.0 88.33333333333333 L 92.0 88.0 L 93.0 88.33333333333333 L 94.0 88.66666666666667 L 95.0 89.0 L 95.66666666666667 88.66666666666667 L 96.0 88.0 L 96.0 87.0 L 96.0 86.0 L 96.0 85.0 L 95.66666666666667 84.0 L 95.33333333333333 83.0 L 95.0 82.0 L 94.66666666666667 81.0 L 94.33333333333333 80.0 L 94.0 79.0 L 93.66666666666667 78.0 L 93.33333333333333 77.0 L 93.0 76.0 L 93.0 75.0 L 92.66666666666667 74.0 L 92.33333333333333 73.0 L 92.0 72.0 L 92.0 71.0 L 92.0 70.0 L 91.66666666666667 69.0 L 91.33333333333333 68.0 L 91.0 67.0 L 91.0 66.0 L 90.66666666666667 65.0 L 90.0 64.0 L 89.0 63.333333333333336 L 88.0 63.333333333333336 L 87.33333333333333 64.0 L 86.66666666666667 65.0 L 86.33333333333333 66.0 L 86.0 67.0 L 85.66666666666667 68.0 L 85.33333333333333 69.0 L 84.66666666666667 70.0 L 84.0 71.0 L 83.33333333333333 72.0 L 83.0 73.0 L 82.66666666666667 74.0 L 82.0 75.0 L 81.0 76.0 L 80.0 77.0 L 79.0 78.0 L 78.0 79.0 L 77.0 80.0 L 76.0 81.0 L 75.0 81.66666666666667 L 74.0 82.33333333333333 L 73.0 83.0 L 72.0 84.0 L 71.0 84.66666666666667 L 70.0 85.33333333333333 L 69.0 85.66666666666667 L 68.0 86.0 L 67.0 86.33333333333333 L 66.0 86.66666666666667 L 65.0 87.33333333333333 L 64.0 88.0 L 63.0 89.0 L 62.0 90.0 L 61.0 91.0 L 60.0 92.0 L 59.0 93.0 L 58.0 94.0 L 57.0 95.0 L 56.0 96.0 L 55.333333333333336 97.0 L 54.666666666666664 98.0 L 54.0 99.0 L 53.0 100.0 L 52.0 100.66666666666667 L 51.0 101.0 L 50.0 101.33333333333333 L 49.0 102.0 L 48.0 103.0 L 47.0 103.66666666666667 L 46.0 104.0 L 45.0 104.0 L 44.0 104.0 L 43.0 104.0 L 42.0 104.33333333333333 L 41.0 104.66666666666667 L 40.0 105.33333333333333 L 39.0 106.0 L 38.0 106.66666666666667 L 37.0 107.33333333333333 L 36.0 107.66666666666667 L 35.0 108.0 L 34.0 108.33333333333333 L 33.333333333333336 109.0 L 33.0 110.0 L 33.333333333333336 111.0 L 34.0 111.66666666666667 L 35.0 112.0 L 36.0 112.0 L 37.0 112.0 L 38.0 112.0 L 39.0 112.0 L 40.0 112.0 L 41.0 112.33333333333333 L 42.0 112.66666666666667 L 43.0 113.0 L 44.0 113.0 L 45.0 113.0 L 46.0 113.0 L 47.0 113.0 L 48.0 113.0 L 49.0 113.0 L 50.0 113.0 L 51.0 113.0 L 52.0 113.0 L 53.0 113.0 L 54.0 113.0 L 55.0 113.0 L 56.0 113.0 L 57.0 113.0 L 58.0 113.0 L 59.0 113.0 L 60.0 113.0 L 61.0 113.0 L 62.0 113.0 L 63.0 113.0 L 64.0 113.0 L 65.0 112.66666666666667 L 66.0 112.33333333333333 L 67.0 112.0 L 68.0 112.0 L 69.0 112.0 L 70.0 112.0 L 71.0 112.0 L 71.5 112.0 Z" stroke="none" fill="rgb(192,192,192)" />
<path d="M 114.5 69.0 L 115.0 68.66666666666667 L 115.66666666666667 68.0 L 116.0 67.0 L 116.0 66.0 L 116.0 65.0 L 115.66666666666667 64.33333333333333 L 115.0 64.0 L 114.0 64.0 L 113.0 64.0 L 112.0 64.0 L 111.33333333333333 64.33333333333333 L 111.0 65.0 L 111.0 66.0 L 111.0 67.0 L 111.33333333333333 68.0 L 112.0 68.66666666666667 L 113.0 69.0 L 113.5 69.0 Z" stroke="none" fill="rgb(255,255,255)" />
<path d="M 95.5 117.0 L 96.0 117.0 L 97.0 117.0 L 98.0 117.0 L 99.0 117.0 L 100.0 117.0 L 101.0 116.66666666666667 L 102.0 116.33333333333333 L 103.0 116.0 L 103.66666666666667 115.66666666666667 L 104.0 115.0 L 104.0 114.0 L 104.0 113.0 L 104.0 112.0 L 104.0 111.0 L 104.33333333333333 110.0 L 104.66666666666667 109.0 L 105.0 108.0 L 105.0 107.0 L 105.0 106.0 L 105.33333333333333 105.0 L 105.66666666666667 104.0 L 106.0 103.0 L 106.33333333333333 102.0 L 107.0 101.66666666666667 L 107.66666666666667 102.0 L 108.33333333333333 103.0 L 108.66666666666667 104.0 L 109.0 105.0 L 109.33333333333333 106.0 L 109.66666666666667 107.0 L 110.0 108.0 L 110.0 109.0 L 110.33333333333333 110.0 L 110.66666666666667 111.0 L 111.0 112.0 L 111.0 113.0 L 111.33333333333333 114.0 L 112.0 114.66666666666667 L 113.0 115.0 L 113.66666666666667 114.66666666666667 L 114.0 114.0 L 114.0 113.0 L 114.0 112.0 L 114.0 111.0 L 114.33333333333333 110.0 L 114.66666666666667 109.0 L 115.0 108.0 L 115.0 107.0 L 115.0 106.0 L 115.33333333333333 105.0 L 115.66666666666667 104.0 L 116.0 103.0 L 116.0 102.0 L 116.0 101.0 L 115.66666666666667 100.0 L 115.0 99.0 L 114.33333333333333 98.0 L 113.66666666666667 97.0 L 113.33333333333333 96.0 L 112.66666666666667 95.0 L 112.33333333333333 94.0 L 111.66666666666667 93.0 L 111.33333333333333 92.0 L 110.66666666666667 91.0 L 110.0 90.0 L 109.33333333333333 89.0 L 108.66666666666667 88.0 L 108.0 87.0 L 107.0 86.0 L 106.0 85.0 L 105.0 84.0 L 104.33333333333333 83.0 L 103.66666666666667 82.0 L 103.33333333333333 81.0 L 102.66666666666667 80.0 L 102.33333333333333 79.0 L 101.66666666666667 78.0 L 101.0 77.0 L 100.33333333333333 76.0 L 99.66666666666667 75.0 L 99.0 74.0 L 98.0 73.0 L 97.33333333333333 72.0 L 96.66666666666667 71.0 L 96.33333333333333 70.0 L 95.66666666666667 69.0 L 95.0 68.0 L 94.33333333333333 67.0 L 93.66666666666667 66.0 L 93.0 65.33333333333333 L 92.0 65.0 L 91.33333333333333 65.33333333333333 L 91.0 66.0 L 91.0 67.0 L 91.0 68.0 L 91.33333333333333 69.0 L 91.66666666666667 70.0 L 92.0 71.0 L 92.0 72.0 L 92.0 73.0 L 92.33333333333333 74.0 L 92.66666666666667 75.0 L 93.0 76.0 L 93.0 77.0 L 93.33333333333333 78.0 L 93.66666666666667 79.0 L 94.0 80.0 L 94.33333333333333 81.0 L 94.66666666666667 82.0 L 95.0 83.0 L 95.33333333333333 84.0 L 95.66666666666667 85.0 L 96.0 86.0 L 96.0 87.0 L 95.66666666666667 88.0 L 95.0 88.33333333333333 L 94.0 88.33333333333333 L 93.0 88.0 L 92.0 88.0 L 91.0 88.0 L 90.0 88.33333333333333 L 89.33333333333333 89.0 L 88.66666666666667 90.0 L 88.33333333333333 91.0 L 87.66666666666667 92.0 L 87.33333333333333 93.0 L 86.66666666666667 94.0 L 86.0 95.0 L 85.33333333333333 96.0 L 84.66666666666667 97.0 L 84.0 98.0 L 83.0 99.0 L 82.33333333333333 100.0 L 81.66666666666667 101.0 L 81.0 102.0 L 80.33333333333333 103.0 L 79.66666666666667 104.0 L 79.33333333333333 105.0 L 79.0 106.0 L 78.66666666666667 107.0 L 78.33333333333333 108.0 L 78.0 109.0 L 78.33333333333333 110.0 L 78.66666666666667 111.0 L 79.33333333333333 112.0 L 79.66666666666667 113.0 L 80.0 114.0 L 80.33333333333333 115.0 L 81.0 116.0 L 82.0 117.0 L 83.0 117.66666666666667 L 84.0 118.0 L 85.0 118.0 L 86.0 118.0 L 87.0 117.66666666666667 L 88.0 117.33333333333333 L 89.0 117.0 L 90.0 117.0 L 91.0 117.0 L 92.0 117.0 L 93.0 117.0 L 94.0 117.0 L 94.5 117.0 Z" stroke="none" fill="rgb(113,122,124)" />
<path d="M 11.5 75.5 L 11.666666666666666 75.0 L 12.0 74.0 L 11.666666666666666 73.0 L 11.0 72.33333333333333 L 10.0 72.0 L 9.0 72.0 L 8.333333333333334 72.33333333333333 L 8.0 73.0 L 8.0 74.0 L 8.0 75.0 L 8.333333333333334 75.66666666666667 L 9.0 76.0 L 10.0 76.0 L 10.5 76.0 Z" stroke="none" fill="rgb(255,255,255)" />
<path d="M 24.5 99.5 L 25.0 99.0 L 25.666666666666668 98.0 L 26.333333333333332 97.0 L 26.666666666666668 96.0 L 27.0 95.0 L 27.0 94.0 L 27.0 93.0 L 27.0 92.0 L 27.0 91.0 L 26.666666666666668 90.0 L 26.0 89.0 L 25.0 88.33333333333333 L 24.0 88.0 L 23.0 88.33333333333333 L 22.0 89.0 L 21.0 90.0 L 20.0 91.0 L 19.0 92.0 L 18.0 93.0 L 17.333333333333332 94.0 L 16.666666666666668 95.0 L 16.0 96.0 L 15.0 97.0 L 14.0 98.0 L 13.0 99.0 L 12.0 100.0 L 11.0 101.0 L 10.333333333333334 102.0 L 9.666666666666666 103.0 L 9.0 104.0 L 8.0 105.0 L 7.0 106.0 L 6.0 107.0 L 5.333333333333333 108.0 L 4.666666666666667 109.0 L 4.333333333333333 110.0 L 4.0 111.0 L 4.333333333333333 112.0 L 5.0 113.0 L 6.0 113.66666666666667 L 7.0 114.0 L 8.0 114.0 L 8.666666666666666 113.66666666666667 L 9.0 113.0 L 9.333333333333334 112.0 L 10.0 111.33333333333333 L 11.0 110.66666666666667 L 12.0 110.33333333333333 L 13.0 110.0 L 14.0 109.66666666666667 L 15.0 109.33333333333333 L 16.0 109.0 L 17.0 108.66666666666667 L 18.0 108.0 L 19.0 107.0 L 19.666666666666668 106.0 L 20.333333333333332 105.0 L 21.0 104.0 L 22.0 103.0 L 22.666666666666668 102.0 L 23.333333333333332 101.0 L 23.5 100.5 Z" stroke="none" fill="rgb(192,192,192)" />
<path d="M 75.5 102.0 L 76.0 102.0 L 77.0 102.0 L 78.0 102.33333333333333 L 79.0 102.66666666666667 L 80.0 103.0 L 81.0 102.66666666666667 L 81.66666666666667 102.0 L 82.33333333333333 101.0 L 83.0 100.0 L 84.0 99.0 L 84.66666666666667 98.0 L 85.33333333333333 97.0 L 86.0 96.0 L 86.66666666666667 95.0 L 87.33333333333333 94.0 L 87.66666666666667 93.0 L 88.33333333333333 92.0 L 88.66666666666667 91.0 L 88.66666666666667 90.0 L 88.0 89.33333333333333 L 87.0 89.0 L 86.0 89.33333333333333 L 85.0 89.66666666666667 L 84.0 90.33333333333333 L 83.0 90.66666666666667 L 82.0 91.33333333333333 L 81.0 91.66666666666667 L 80.0 92.33333333333333 L 79.0 93.0 L 78.0 93.66666666666667 L 77.0 94.33333333333333 L 76.0 94.66666666666667 L 75.0 95.33333333333333 L 74.0 95.66666666666667 L 73.0 96.0 L 72.0 96.33333333333333 L 71.0 96.66666666666667 L 70.0 97.33333333333333 L 69.0 97.66666666666667 L 68.0 98.33333333333333 L 67.0 99.0 L 66.0 99.66666666666667 L 65.33333333333333 100.33333333333333 L 65.0 101.0 L 65.33333333333333 101.66666666666667 L 66.0 102.0 L 67.0 102.0 L 68.0 102.0 L 69.0 102.0 L 70.0 102.0 L 71.0 102.0 L 72.0 102.0 L 73.0 102.0 L 74.0 102.0 L 74.5 102.0 Z" stroke="none" fill="rgb(158,162,163)" />
<path d="M 37.5 116.0 L 38.0 116.0 L 39.0 116.0 L 40.0 116.0 L 41.0 116.33333333333333 L 42.0 116.66666666666667 L 43.0 117.0 L 44.0 117.0 L 45.0 117.0 L 46.0 117.0 L 47.0 117.0 L 48.0 117.0 L 49.0 117.0 L 50.0 117.0 L 51.0 117.0 L 52.0 117.0 L 53.0 117.0 L 54.0 117.0 L 55.0 117.0 L 56.0 117.0 L 57.0 117.0 L 58.0 117.33333333333333 L 59.0 117.66666666666667 L 60.0 118.0 L 61.0 118.0 L 62.0 118.0 L 63.0 118.0 L 64.0 118.0 L 65.0 118.0 L 66.0 118.0 L 67.0 118.0 L 68.0 118.0 L 69.0 118.0 L 70.0 118.0 L 71.0 118.0 L 72.0 118.0 L 72.66666666666667 117.66666666666667 L 73.33333333333333 117.0 L 73.66666666666667 116.0 L 74.0 115.0 L 74.0 114.0 L 74.0 113.0 L 74.0 112.0 L 73.66666666666667 111.33333333333333 L 73.0 111.0 L 72.0 111.33333333333333 L 71.0 111.66666666666667 L 70.0 112.0 L 69.0 112.0 L 68.0 112.0 L 67.0 112.0 L 66.0 112.0 L 65.0 112.33333333333333 L 64.0 112.66666666666667 L 63.0 113.0 L 62.0 113.0 L 61.0 113.0 L 60.0 113.0 L 59.0 113.0 L 58.0 113.0 L 57.0 113.0 L 56.0 113.0 L 55.0 113.0 L 54.0 113.0 L 53.0 113.0 L 52.0 113.0 L 51.0 113.0 L 50.0 113.0 L 49.0 113.0 L 48.0 113.0 L 47.0 113.0 L 46.0 113.0 L 45.0 113.0 L 44.0 113.0 L 43.0 112.66666666666667 L 42.0 112.33333333333333 L 41.0 112.0 L 40.0 112.0 L 39.0 112.0 L 38.0 112.0 L 37.0 112.0 L 36.0 112.0 L 35.0 111.66666666666667 L 34.0 111.0 L 33.666666666666664 110.0 L 33.666666666666664 109.0 L 34.0 108.0 L 34.0 107.0 L 34.333333333333336 106.0 L 34.666666666666664 105.0 L 35.0 104.0 L 35.333333333333336 103.0 L 35.666666666666664 102.0 L 36.0 101.0 L 36.333333333333336 100.0 L 36.666666666666664 99.0 L 37.0 98.0 L 37.0 97.0 L 37.0 96.0 L 36.666666666666664 95.0 L 36.0 94.33333333333333 L 35.0 93.66666666666667 L 34.0 93.0 L 33.0 92.33333333333333 L 32.0 91.66666666666667 L 31.0 91.0 L 30.0 90.33333333333333 L 29.0 90.0 L 28.0 90.33333333333333 L 27.333333333333332 91.0 L 27.0 92.0 L 27.0 93.0 L 27.0 94.0 L 27.0 95.0 L 27.333333333333332 96.0 L 27.666666666666668 97.0 L 28.0 98.0 L 28.0 99.0 L 28.0 100.0 L 28.0 101.0 L 28.0 102.0 L 28.0 103.0 L 28.0 104.0 L 28.0 105.0 L 28.0 106.0 L 27.666666666666668 107.0 L 27.333333333333332 108.0 L 27.0 109.0 L 27.333333333333332 109.66666666666667 L 28.0 110.0 L 29.0 110.33333333333333 L 29.666666666666668 111.0 L 30.0 112.0 L 30.0 113.0 L 30.333333333333332 114.0 L 31.0 114.66666666666667 L 32.0 115.0 L 33.0 115.0 L 34.0 115.0 L 35.0 115.33333333333333 L 36.0 115.66666666666667 L 36.5 116.0 Z" stroke="none" fill="rgb(113,122,124)" />
<path d="M 116.5 114.0 L 117.0 114.0 L 118.0 114.0 L 119.0 114.0 L 120.0 114.0 L 121.0 114.0 L 122.0 113.66666666666667 L 122.66666666666667 113.0 L 123.0 112.0 L 123.0 111.0 L 123.0 110.0 L 123.0 109.0 L 123.0 108.0 L 123.0 107.0 L 123.0 106.0 L 123.0 105.0 L 123.0 104.0 L 122.66666666666667 103.0 L 122.33333333333333 102.0 L 122.0 101.0 L 122.0 100.0 L 121.66666666666667 99.0 L 121.33333333333333 98.0 L 121.0 97.0 L 121.0 96.0 L 121.0 95.0 L 121.0 94.0 L 120.66666666666667 93.0 L 120.33333333333333 92.0 L 119.66666666666667 91.33333333333333 L 119.0 91.0 L 118.0 91.33333333333333 L 117.33333333333333 92.0 L 117.0 93.0 L 117.0 94.0 L 117.0 95.0 L 116.66666666666667 96.0 L 116.33333333333333 97.0 L 116.0 98.0 L 116.0 99.0 L 116.0 100.0 L 116.0 101.0 L 116.0 102.0 L 115.66666666666667 103.0 L 115.33333333333333 104.0 L 115.0 105.0 L 115.0 106.0 L 115.0 107.0 L 114.66666666666667 108.0 L 114.33333333333333 109.0 L 114.0 110.0 L 114.0 111.0 L 114.0 112.0 L 114.0 113.0 L 114.33333333333333 113.66666666666667 L 115.0 114.0 L 115.5 114.0 Z" stroke="none" fill="rgb(54,124,45)" />
<path d="M 40.5 105.5 L 41.0 105.33333333333333 L 42.0 104.66666666666667 L 43.0 104.33333333333333 L 44.0 104.0 L 45.0 104.0 L 46.0 104.0 L 47.0 104.0 L 48.0 103.66666666666667 L 49.0 103.0 L 50.0 102.0 L 50.666666666666664 101.0 L 50.666666666666664 100.0 L 50.333333333333336 99.0 L 49.666666666666664 98.0 L 49.333333333333336 97.0 L 48.666666666666664 96.0 L 48.0 95.0 L 47.0 94.33333333333333 L 46.0 94.0 L 45.333333333333336 94.33333333333333 L 44.666666666666664 95.0 L 44.0 96.0 L 43.0 96.33333333333333 L 42.0 96.0 L 41.333333333333336 95.0 L 41.0 94.0 L 41.0 93.0 L 40.666666666666664 92.33333333333333 L 40.0 92.0 L 39.0 92.33333333333333 L 38.333333333333336 93.0 L 37.666666666666664 94.0 L 37.333333333333336 95.0 L 37.0 96.0 L 37.0 97.0 L 36.666666666666664 98.0 L 36.333333333333336 99.0 L 36.0 100.0 L 35.666666666666664 101.0 L 35.333333333333336 102.0 L 35.0 103.0 L 34.666666666666664 104.0 L 34.333333333333336 105.0 L 34.0 106.0 L 34.0 107.0 L 34.333333333333336 107.66666666666667 L 35.0 108.0 L 36.0 108.0 L 37.0 107.66666666666667 L 38.0 107.33333333333333 L 39.0 106.66666666666667 L 39.5 106.5 Z" stroke="none" fill="rgb(54,124,45)" />
<path d="M 24.5 112.0 L 25.0 112.0 L 26.0 112.0 L 27.0 111.66666666666667 L 27.666666666666668 111.0 L 27.666666666666668 110.0 L 27.666666666666668 109.0 L 27.666666666666668 108.0 L 28.0 107.0 L 28.0 106.0 L 28.0 105.0 L 28.0 104.0 L 28.0 103.0 L 28.0 102.0 L 28.0 101.0 L 28.0 100.0 L 28.0 99.0 L 28.0 98.0 L 28.0 97.0 L 27.666666666666668 96.33333333333333 L 27.0 96.0 L 26.333333333333332 96.33333333333333 L 25.666666666666668 97.0 L 25.0 98.0 L 24.0 99.0 L 23.333333333333332 100.0 L 22.666666666666668 101.0 L 22.0 102.0 L 21.0 103.0 L 20.333333333333332 104.0 L 19.666666666666668 105.0 L 19.0 106.0 L 18.0 107.0 L 17.0 108.0 L 16.0 108.66666666666667 L 15.0 109.0 L 14.0 109.33333333333333 L 13.0 109.66666666666667 L 12.0 110.0 L 11.0 110.33333333333333 L 10.0 110.66666666666667 L 9.333333333333334 111.33333333333333 L 9.0 112.0 L 9.333333333333334 112.66666666666667 L 10.0 113.0 L 11.0 113.0 L 12.0 113.0 L 13.0 113.0 L 14.0 113.0 L 15.0 113.0 L 16.0 113.0 L 17.0 112.66666666666667 L 18.0 112.33333333333333 L 19.0 112.0 L 20.0 112.0 L 21.0 112.0 L 22.0 112.0 L 23.0 112.0 L 23.5 112.0 Z" stroke="none" fill="rgb(158,162,163)" />
<path d="M 53.5 100.5 L 53.666666666666664 100.0 L 53.666666666666664 99.0 L 53.0 98.33333333333333 L 52.0 98.0 L 51.0 98.0 L 50.333333333333336 98.33333333333333 L 50.0 99.0 L 50.333333333333336 100.0 L 51.0 100.66666666666667 L 52.0 101.0 L 52.5 101.0 Z" stroke="none" fill="rgb(113,122,124)" />
<path d="M 107.5 116.0 L 108.0 116.0 L 109.0 116.0 L 110.0 116.0 L 111.0 116.0 L 111.66666666666667 115.66666666666667 L 112.0 115.0 L 111.66666666666667 114.0 L 111.33333333333333 113.0 L 111.0 112.0 L 111.0 111.0 L 110.66666666666667 110.0 L 110.33333333333333 109.0 L 110.0 108.0 L 110.0 107.0 L 109.66666666666667 106.0 L 109.33333333333333 105.0 L 109.0 104.0 L 108.66666666666667 103.0 L 108.33333333333333 102.0 L 107.66666666666667 101.33333333333333 L 107.0 101.0 L 106.33333333333333 101.33333333333333 L 106.0 102.0 L 105.66666666666667 103.0 L 105.33333333333333 104.0 L 105.0 105.0 L 105.0 106.0 L 105.0 107.0 L 104.66666666666667 108.0 L 104.33333333333333 109.0 L 104.0 110.0 L 104.0 111.0 L 104.0 112.0 L 104.0 113.0 L 104.0 114.0 L 104.0 115.0 L 104.33333333333333 115.66666666666667 L 105.0 116.0 L 106.0 116.0 L 106.5 116.0 Z" stroke="none" fill="rgb(54,124,45)" />
<path d="M 78.5 120.0 L 79.0 120.0 L 80.0 120.0 L 81.0 119.66666666666667 L 82.0 119.0 L 82.66666666666667 118.0 L 82.66666666666667 117.0 L 82.0 116.0 L 81.0 115.0 L 80.33333333333333 114.0 L 80.0 113.0 L 79.66666666666667 112.0 L 79.33333333333333 111.0 L 78.66666666666667 110.0 L 78.33333333333333 109.0 L 77.66666666666667 108.33333333333333 L 77.0 108.0 L 76.0 108.33333333333333 L 75.33333333333333 109.0 L 74.66666666666667 110.0 L 74.33333333333333 111.0 L 74.0 112.0 L 74.0 113.0 L 74.0 114.0 L 73.66666666666667 115.0 L 73.33333333333333 116.0 L 73.0 117.0 L 73.0 118.0 L 73.33333333333333 118.66666666666667 L 74.0 119.33333333333333 L 75.0 119.66666666666667 L 76.0 120.0 L 77.0 120.0 L 77.5 120.0 Z" stroke="none" fill="rgb(54,124,45)" />
<path d="M 95.5 122.0 L 96.0 122.0 L 97.0 122.0 L 98.0 122.0 L 99.0 122.0 L 100.0 121.66666666666667 L 101.0 121.33333333333333 L 102.0 121.0 L 103.0 121.0 L 104.0 121.0 L 105.0 120.66666666666667 L 106.0 120.33333333333333 L 107.0 120.0 L 108.0 120.0 L 109.0 119.66666666666667 L 110.0 119.33333333333333 L 111.0 119.0 L 112.0 118.66666666666667 L 113.0 118.33333333333333 L 114.0 118.0 L 115.0 117.66666666666667 L 116.0 117.33333333333333 L 117.0 117.0 L 118.0 116.66666666666667 L 119.0 116.33333333333333 L 120.0 115.66666666666667 L 120.66666666666667 115.0 L 120.66666666666667 114.33333333333333 L 120.0 114.0 L 119.0 114.0 L 118.0 114.0 L 117.0 114.0 L 116.0 114.0 L 115.0 114.0 L 114.0 114.33333333333333 L 113.0 114.66666666666667 L 112.0 115.33333333333333 L 111.0 115.66666666666667 L 110.0 116.0 L 109.0 116.0 L 108.0 116.0 L 107.0 116.0 L 106.0 116.0 L 105.0 116.0 L 104.0 116.0 L 103.0 116.0 L 102.0 116.0 L 101.0 116.33333333333333 L 100.0 116.66666666666667 L 99.0 117.0 L 98.0 117.0 L 97.0 117.0 L 96.0 117.0 L 95.0 117.0 L 94.0 117.0 L 93.0 117.0 L 92.0 117.0 L 91.0 117.0 L 90.0 117.0 L 89.0 117.0 L 88.0 117.0 L 87.0 117.33333333333333 L 86.0 117.66666666666667 L 85.0 118.0 L 84.0 118.0 L 83.0 118.0 L 82.0 118.33333333333333 L 81.0 119.0 L 80.0 119.66666666666667 L 79.0 120.0 L 78.0 120.0 L 77.0 120.0 L 76.0 119.66666666666667 L 75.0 119.33333333333333 L 74.0 118.66666666666667 L 73.0 118.33333333333333 L 72.0 118.0 L 71.0 118.0 L 70.0 118.0 L 69.0 118.0 L 68.0 118.0 L 67.0 118.0 L 66.0 118.0 L 65.0 118.0 L 64.0 118.0 L 63.0 118.0 L 62.0 118.0 L 61.0 118.0 L 60.0 117.66666666666667 L 59.0 117.33333333333333 L 58.0 117.0 L 57.0 117.0 L 56.0 117.0 L 55.0 117.0 L 54.0 117.0 L 53.0 117.0 L 52.0 117.0 L 51.0 117.0 L 50.0 117.0 L 49.0 117.0 L 48.0 117.0 L 47.0 117.0 L 46.0 117.0 L 45.0 117.0 L 44.0 117.0 L 43.0 116.66666666666667 L 42.0 116.33333333333333 L 41.0 116.0 L 40.0 116.0 L 39.0 116.0 L 38.0 116.0 L 37.0 115.66666666666667 L 36.0 115.33333333333333 L 35.0 115.0 L 34.0 115.0 L 33.0 115.0 L 32.0 114.66666666666667 L 31.0 114.0 L 30.333333333333332 113.0 L 30.0 112.0 L 30.0 111.0 L 29.666666666666668 110.33333333333333 L 29.0 110.0 L 28.0 110.33333333333333 L 27.0 111.0 L 26.0 111.66666666666667 L 25.0 112.0 L 24.0 112.0 L 23.0 112.0 L 22.0 112.0 L 21.0 112.0 L 20.0 112.0 L 19.0 112.0 L 18.0 112.0 L 17.0 112.33333333333333 L 16.0 112.66666666666667 L 15.0 113.0 L 14.0 113.0 L 13.0 113.0 L 12.0 113.0 L 11.0 113.0 L 10.0 113.0 L 9.0 113.33333333333333 L 8.333333333333334 114.0 L 8.333333333333334 115.0 L 9.0 115.66666666666667 L 10.0 116.0 L 11.0 116.33333333333333 L 12.0 116.66666666666667 L 13.0 117.0 L 14.0 117.33333333333333 L 15.0 117.66666666666667 L 16.0 118.0 L 17.0 118.33333333333333 L 18.0 118.66666666666667 L 19.0 119.0 L 20.0 119.0 L 21.0 119.33333333333333 L 22.0 119.66666666666667 L 23.0 120.0 L 24.0 120.0 L 25.0 120.33333333333333 L 26.0 120.66666666666667 L 27.0 121.0 L 28.0 121.0 L 29.0 121.0 L 30.0 121.33333333333333 L 31.0 121.66666666666667 L 32.0 122.0 L 33.0 122.0 L 34.0 122.0 L 35.0 122.0 L 36.0 122.0 L 37.0 122.33333333333333 L 38.0 122.66666666666667 L 39.0 123.0 L 40.0 123.0 L 41.0 123.0 L 42.0 123.0 L 43.0 123.0 L 44.0 123.0 L 45.0 123.33333333333333 L 46.0 123.66666666666667 L 47.0 124.0 L 48.0 124.0 L 49.0 124.0 L 50.0 124.0 L 51.0 124.0 L 52.0 124.0 L 53.0 124.0 L 54.0 124.0 L 55.0 124.0 L 56.0 124.0 L 57.0 124.0 L 58.0 124.0 L 59.0 124.0 L 60.0 124.0 L 61.0 124.0 L 62.0 124.0 L 63.0 124.0 L 64.0 124.0 L 65.0 124.0 L 66.0 124.0 L 67.0 124.0 L 68.0 124.0 L 69.0 124.0 L 70.0 124.0 L 71.0 124.0 L 72.0 124.0 L 73.0 124.0 L 74.0 124.0 L 75.0 124.0 L 76.0 124.0 L 77.0 124.0 L 78.0 124.0 L 79.0 124.0 L 80.0 124.0 L 81.0 124.0 L 82.0 124.0 L 83.0 124.0 L 84.0 124.0 L 85.0 124.0 L 86.0 123.66666666666667 L 87.0 123.33333333333333 L 88.0 123.0 L 89.0 123.0 L 90.0 123.0 L 91.0 123.0 L 92.0 123.0 L 93.0 123.0 L 94.0 122.66666666666667 L 94.5 122.5 Z" stroke="none" fill="rgb(185,206,70)" />
</svg>
