<?xml version="1.0" encoding="UTF-8" standalone="no"?>
<!DOCTYPE svg PUBLIC "-//W3C//DTD SVG 1.1//EN"
"http://www.w3.org/Graphics/SVG/1.1/DTD/svg11.dtd">
<svg width="128" height="128" xmlns="http://www.w3.org/2000/svg" version="1.1">
<path d="M 26.5 128.0 L 27.0 128.0 L 28.0 128.0 L 29.0 128.0 L 30.0 128.0 L 31.0 128.0 L 32.0 128.0 L 33.0 128.0 L 34.0 128.0 L 35.0 128.0 L 36.0 128.0 L 37.0 128.0 L 38.0 128.0 L 39.0 128.0 L 40.0 128.0 L 41.0 128.0 L 42.0 128.0 L 43.0 128.0 L 44.0 128.0 L 45.0 128.0 L 46.0 128.0 L 47.0 128.0 L 48.0 128.0 L 49.0 128.0 L 50.0 128.0 L 51.0 128.0 L 52.0 128.0 L 53.0 128.0 L 54.0 128.0 L 55.0 128.0 L 56.0 128.0 L 57.0 128.0 L 58.0 128.0 L 59.0 128.0 L 60.0 128.0 L 61.0 128.0 L 62.0 128.0 L 63.0 128.0 L 64.0 128.0 L 65.0 128.0 L 66.0 128.0 L 67.0 128.0 L 68.0 128.0 L 69.0 128.0 L 70.0 128.0 L 71.0 128.0 L 72.0 128.0 L 73.0 128.0 L 74.0 128.0 L 75.0 128.0 L 76.0 128.0 L 77.0 128.0 L 78.0 128.0 L 79.0 128.0 L 80.0 128.0 L 81.0 128.0 L 82.0 128.0 L 83.0 128.0 L 84.0 128.0 L 85.0 128.0 L 86.0 128.0 L 87.0 128.0 L 88.0 128.0 L 89.0 128.0 L 90.0 128.0 L 91.0 128.0 L 92.0 128.0 L 93.0 128.0 L 94.0 128.0 L 95.0 128.0 L 96.0 128.0 L 97.0 128.0 L 98.0 128.0 L 99.0 128.0 L 100.0 128.0 L 101.0 128.0 L 102.0 128.0 L 103.0 128.0 L 104.0 128.0 L 105.0 128.0 L 106.0 128.0 L 107.0 128.0 L 108.0 128.0 L 109.0 128.0 L 110.0 128.0 L 111.0 128.0 L 112.0 128.0 L 113.0 128.0 L 114.0 128.0 L 115.0 128.0 L 116.0 128.0 L 117.0 128.0 L 118.0 128.0 L 119.0 128.0 L 120.0 128.0 L 121.0 128.0 L 122.0 128.0 L 123.0 128.0 L 124.0 128.0 L 125.0 128.0 L 126.0 128.0 L 127.0 128.0 L 127.66666666666667 127.66666666666667 L 128.0 127.0 L 128.0 126.0 L 128.0 125.0 L 128.0 124.0 L 128.0 123.0 L 128.0 122.0 L 128.0 121.0 L 128.0 120.0 L 128.0 119.0 L 128.0 118.0 L 128.0 117.0 L 128.0 116.0 L 128.0 115.0 L 128.0 114.0 L 128.0 113.0 L 128.0 112.0 L 128.0 111.0 L 128.0 110.0 L 128.0 109.0 L 128.0 108.0 L 128.0 107.0 L 128.0 106.0 L 128.0 105.0 L 128.0 104.0 L 128.0 103.0 L 128.0 102.0 L 128.0 101.0 L 128.0 100.0 L 128.0 99.0 L 128.0 98.0 L 128.0 97.0 L 128.0 96.0 L 128.0 95.0 L 128.0 94.0 L 128.0 93.0 L 128.0 92.0 L 128.0 91.0 L 128.0 90.0 L 128.0 89.0 L 128.0 88.0 L 128.0 87.0 L 128.0 86.0 L 128.0 85.0 L 128.0 84.0 L 128.0 83.0 L 128.0 82.0 L 128.0 81.0 L 128.0 80.0 L 128.0 79.0 L 128.0 78.0 L 128.0 77.0 L 128.0 76.0 L 128.0 75.0 L 128.0 74.0 L 128.0 73.0 L 128.0 72.0 L 128.0 71.0 L 128.0 70.0 L 128.0 69.0 L 128.0 68.0 L 128.0 67.0 L 128.0 66.0 L 128.0 65.0 L 128.0 64.0 L 128.0 63.0 L 128.0 62.0 L 128.0 61.0 L 128.0 60.0 L 128.0 59.0 L 128.0 58.0 L 128.0 57.0 L 128.0 56.0 L 128.0 55.0 L 128.0 54.0 L 128.0 53.0 L 128.0 52.0 L 128.0 51.0 L 128.0 50.0 L 128.0 49.0 L 128.0 48.0 L 128.0 47.0 L 128.0 46.0 L 128.0 45.0 L 128.0 44.0 L 128.0 43.0 L 128.0 42.0 L 128.0 41.0 L 128.0 40.0 L 128.0 39.0 L 128.0 38.0 L 128.0 37.0 L 128.0 36.0 L 128.0 35.0 L 128.0 34.0 L 128.0 33.0 L 128.0 32.0 L 128.0 31.0 L 128.0 30.0 L 128.0 29.0 L 128.0 28.0 L 128.0 27.0 L 128.0 26.0 L 128.0 25.0 L 128.0 24.0 L 128.0 23.0 L 128.0 22.0 L 128.0 21.0 L 128.0 20.0 L 128.0 19.0 L 128.0 18.0 L 128.0 17.0 L 128.0 16.0 L 128.0 15.0 L 128.0 14.0 L 128.0 13.0 L 128.0 12.0 L 128.0 11.0 L 128.0 10.0 L 128.0 9.0 L 128.0 8.0 L 128.0 7.0 L 128.0 6.0 L 128.0 5.0 L 128.0 4.0 L 128.0 3.0 L 128.0 2.0 L 128.0 1.0 L 127.66666666666667 0.3333333333333333 L 127.0 0.0 L 126.0 0.0 L 125.0 0.0 L 124.0 0.0 L 123.0 0.0 L 122.0 0.0 L 121.0 0.0 L 120.0 0.0 L 119.0 0.0 L 118.0 0.0 L 117.0 0.0 L 116.0 0.0 L 115.0 0.0 L 114.0 0.0 L 113.0 0.0 L 112.0 0.0 L 111.0 0.0 L 110.0 0.0 L 109.0 0.0 L 108.0 0.0 L 107.0 0.0 L 106.0 0.0 L 105.0 0.0 L 104.0 0.0 L 103.0 0.0 L 102.0 0.0 L 101.0 0.0 L 100.0 0.0 L 99.0 0.0 L 98.0 0.0 L 97.0 0.0 L 96.0 0.0 L 95.0 0.0 L 94.0 0.0 L 93.0 0.0 L 92.0 0.0 L 91.0 0.0 L 90.0 0.0 L 89.0 0.0 L 88.0 0.0 L 87.0 0.0 L 86.0 0.0 L 85.0 0.0 L 84.0 0.0 L 83.0 0.0 L 82.0 0.0 L 81.0 0.0 L 80.0 0.0 L 79.0 0.0 L 78.0 0.0 L 77.0 0.0 L 76.0 0.0 L 75.0 0.0 L 74.0 0.0 L 73.0 0.0 L 72.0 0.0 L 71.0 0.0 L 70.0 0.0 L 69.0 0.0 L 68.0 0.0 L 67.0 0.0 L 66.0 0.0 L 65.0 0.0 L 64.0 0.0 L 63.0 0.0 L 62.0 0.0 L 61.0 0.0 L 60.0 0.0 L 59.0 0.0 L 58.0 0.0 L 57.0 0.0 L 56.0 0.0 L 55.0 0.0 L 54.0 0.0 L 53.0 0.0 L 52.0 0.0 L 51.0 0.0 L 50.0 0.0 L 49.0 0.0 L 48.0 0.0 L 47.0 0.0 L 46.0 0.0 L 45.0 0.0 L 44.0 0.0 L 43.0 0.0 L 42.0 0.0 L 41.0 0.0 L 40.0 0.0 L 39.0 0.0 L 38.0 0.0 L 37.0 0.0 L 36.0 0.0 L 35.0 0.0 L 34.0 0.0 L 33.0 0.0 L 32.0 0.0 L 31.0 0.0 L 30.0 0.0 L 29.0 0.0 L 28.0 0.0 L 27.0 0.0 L 26.0 0.0 L 25.0 0.0 L 24.0 0.0 L 23.0 0.0 L 22.0 0.0 L 21.0 0.0 L 20.0 0.0 L 19.0 0.0 L 18.0 0.0 L 17.0 0.0 L 16.0 0.0 L 15.0 0.0 L 14.0 0.0 L 13.0 0.0 L 12.0 0.0 L 11.0 0.0 L 10.0 0.0 L 9.0 0.0 L 8.0 0.0 L 7.0 0.0 L 6.0 0.0 L 5.0 0.0 L 4.0 0.0 L 3.0 0.0 L 2.0 0.0 L 1.0 0.0 L 0.3333333333333333 0.3333333333333333 L 0.0 1.0 L 0.0 2.0 L 0.0 3.0 L 0.0 4.0 L 0.0 5.0 L 0.0 6.0 L 0.0 7.0 L 0.0 8.0 L 0.0 9.0 L 0.0 10.0 L 0.0 11.0 L 0.0 12.0 L 0.0 13.0 L 0.0 14.0 L 0.0 15.0 L 0.0 16.0 L 0.0 17.0 L 0.0 18.0 L 0.0 19.0 L 0.0 20.0 L 0.0 21.0 L 0.0 22.0 L 0.0 23.0 L 0.0 24.0 L 0.0 25.0 L 0.0 26.0 L 0.0 27.0 L 0.0 28.0 L 0.0 29.0 L 0.0 30.0 L 0.0 31.0 L 0.0 32.0 L 0.0 33.0 L 0.0 34.0 L 0.0 35.0 L 0.0 36.0 L 0.0 37.0 L 0.0 38.0 L 0.0 39.0 L 0.0 40.0 L 0.0 41.0 L 0.0 42.0 L 0.0 43.0 L 0.0 44.0 L 0.0 45.0 L 0.0 46.0 L 0.0 47.0 L 0.0 48.0 L 0.0 49.0 L 0.0 50.0 L 0.0 51.0 L 0.0 52.0 L 0.0 53.0 L 0.0 54.0 L 0.0 55.0 L 0.0 56.0 L 0.0 57.0 L 0.0 58.0 L 0.0 59.0 L 0.0 60.0 L 0.0 61.0 L 0.0 62.0 L 0.0 63.0 L 0.0 64.0 L 0.0 65.0 L 0.0 66.0 L 0.0 67.0 L 0.0 68.0 L 0.0 69.0 L 0.0 70.0 L 0.0 71.0 L 0.0 72.0 L 0.0 73.0 L 0.0 74.0 L 0.0 75.0 L 0.0 76.0 L 0.0 77.0 L 0.0 78.0 L 0.0 79.0 L 0.0 80.0 L 0.0 81.0 L 0.0 82.0 L 0.0 83.0 L 0.0 84.0 L 0.0 85.0 L 0.0 86.0 L 0.0 87.0 L 0.0 88.0 L 0.0 89.0 L 0.0 90.0 L 0.0 91.0 L 0.0 92.0 L 0.0 93.0 L 0.0 94.0 L 0.0 95.0 L 0.0 96.0 L 0.0 97.0 L 0.0 98.0 L 0.0 99.0 L 0.0 100.0 L 0.0 101.0 L 0.0 102.0 L 0.0 103.0 L 0.0 104.0 L 0.0 105.0 L 0.0 106.0 L 0.0 107.0 L 0.0 108.0 L 0.0 109.0 L 0.0 110.0 L 0.0 111.0 L 0.0 112.0 L 0.0 113.0 L 0.0 114.0 L 0.0 115.0 L 0.0 116.0 L 0.0 117.0 L 0.0 118.0 L 0.0 119.0 L 0.0 120.0 L 0.0 121.0 L 0.0 122.0 L 0.0 123.0 L 0.0 124.0 L 0.0 125.0 L 0.0 126.0 L 0.0 127.0 L 0.3333333333333333 127.66666666666667 L 1.0 128.0 L 2.0 128.0 L 3.0 128.0 L 4.0 128.0 L 5.0 128.0 L 6.0 128.0 L 7.0 128.0 L 8.0 128.0 L 9.0 128.0 L 10.0 128.0 L 11.0 128.0 L 12.0 128.0 L 13.0 128.0 L 14.0 128.0 L 15.0 128.0 L 16.0 128.0 L 17.0 128.0 L 18.0 128.0 L 19.0 128.0 L 20.0 128.0 L 21.0 128.0 L 22.0 128.0 L 23.0 128.0 L 24.0 128.0 L 25.0 128.0 L 25.5 128.0 Z" stroke="none" fill="rgb(0,0,0)" />
<path d="M 95.5 116.0 L 96.0 115.66666666666667 L 97.0 115.33333333333333 L 98.0 114.66666666666667 L 99.0 114.0 L 100.0 113.33333333333333 L 101.0 112.66666666666667 L 102.0 112.0 L 103.0 111.0 L 104.0 110.0 L 105.0 109.0 L 106.0 108.0 L 107.0 107.0 L 108.0 106.0 L 109.0 105.0 L 110.0 104.0 L 111.0 103.0 L 112.0 102.0 L 112.66666666666667 101.0 L 113.33333333333333 100.0 L 114.0 99.0 L 114.66666666666667 98.0 L 115.33333333333333 97.0 L 115.66666666666667 96.0 L 116.33333333333333 95.0 L 117.0 94.0 L 117.66666666666667 93.0 L 118.33333333333333 92.0 L 118.66666666666667 91.0 L 119.33333333333333 90.0 L 119.66666666666667 89.0 L 120.0 88.0 L 120.33333333333333 87.0 L 120.66666666666667 86.0 L 121.0 85.0 L 121.33333333333333 84.0 L 121.66666666666667 83.0 L 122.0 82.0 L 122.33333333333333 81.0 L 122.66666666666667 80.0 L 123.0 79.0 L 123.0 78.0 L 123.0 77.0 L 123.33333333333333 76.0 L 123.66666666666667 75.0 L 124.0 74.0 L 124.0 73.0 L 124.0 72.0 L 124.0 71.0 L 124.0 70.0 L 124.0 69.0 L 124.0 68.0 L 124.0 67.0 L 124.0 66.0 L 124.0 65.0 L 124.0 64.0 L 124.0 63.0 L 124.0 62.0 L 124.0 61.0 L 124.0 60.0 L 124.0 59.0 L 124.0 58.0 L 124.0 57.0 L 124.0 56.0 L 124.0 55.0 L 124.0 54.0 L 123.66666666666667 53.0 L 123.33333333333333 52.0 L 123.0 51.0 L 123.0 50.0 L 123.0 49.0 L 122.66666666666667 48.0 L 122.33333333333333 47.0 L 122.0 46.0 L 121.66666666666667 45.0 L 121.33333333333333 44.0 L 121.0 43.0 L 120.66666666666667 42.0 L 120.33333333333333 41.0 L 120.0 40.0 L 119.66666666666667 39.0 L 119.33333333333333 38.0 L 118.66666666666667 37.0 L 118.33333333333333 36.0 L 117.66666666666667 35.0 L 117.0 34.0 L 116.33333333333333 33.0 L 115.66666666666667 32.0 L 115.33333333333333 31.0 L 114.66666666666667 30.0 L 114.0 29.0 L 113.33333333333333 28.0 L 112.66666666666667 27.0 L 112.0 26.0 L 111.0 25.0 L 110.0 24.0 L 109.0 23.0 L 108.0 22.0 L 107.0 21.0 L 106.0 20.0 L 105.0 19.0 L 104.0 18.0 L 103.0 17.0 L 102.0 16.0 L 101.0 15.333333333333334 L 100.0 14.666666666666666 L 99.0 14.0 L 98.0 13.333333333333334 L 97.0 12.666666666666666 L 96.0 12.333333333333334 L 95.0 11.666666666666666 L 94.0 11.0 L 93.0 10.333333333333334 L 92.0 9.666666666666666 L 91.0 9.333333333333334 L 90.0 8.666666666666666 L 89.0 8.333333333333334 L 88.0 8.0 L 87.0 7.666666666666667 L 86.0 7.333333333333333 L 85.0 7.0 L 84.0 6.666666666666667 L 83.0 6.333333333333333 L 82.0 6.0 L 81.0 5.666666666666667 L 80.0 5.333333333333333 L 79.0 5.0 L 78.0 5.0 L 77.0 5.0 L 76.0 4.666666666666667 L 75.0 4.333333333333333 L 74.0 4.0 L 73.0 4.0 L 72.0 4.0 L 71.0 4.0 L 70.0 4.0 L 69.0 4.0 L 68.0 4.0 L 67.0 4.0 L 66.0 4.0 L 65.0 4.0 L 64.0 4.0 L 63.0 4.0 L 62.0 4.0 L 61.0 4.0 L 60.0 4.0 L 59.0 4.0 L 58.0 4.0 L 57.0 4.0 L 56.0 4.0 L 55.0 4.0 L 54.0 4.0 L 53.0 4.333333333333333 L 52.0 4.666666666666667 L 51.0 5.0 L 50.0 5.0 L 49.0 5.0 L 48.0 5.333333333333333 L 47.0 5.666666666666667 L 46.0 6.0 L 45.0 6.333333333333333 L 44.0 6.666666666666667 L 43.0 7.0 L 42.0 7.333333333333333 L 41.0 7.666666666666667 L 40.0 8.0 L 39.0 8.333333333333334 L 38.0 8.666666666666666 L 37.0 9.333333333333334 L 36.0 9.666666666666666 L 35.0 10.333333333333334 L 34.0 11.0 L 33.0 11.666666666666666 L 32.0 12.333333333333334 L 31.0 12.666666666666666 L 30.0 13.333333333333334 L 29.0 14.0 L 28.0 14.666666666666666 L 27.0 15.333333333333334 L 26.0 16.0 L 25.333333333333332 17.0 L 25.333333333333332 17.666666666666668 L 26.0 18.0 L 27.0 18.0 L 28.0 17.666666666666668 L 29.0 17.0 L 30.0 16.333333333333332 L 31.0 15.666666666666666 L 32.0 15.0 L 33.0 14.333333333333334 L 34.0 13.666666666666666 L 35.0 13.333333333333334 L 36.0 12.666666666666666 L 37.0 12.333333333333334 L 38.0 11.666666666666666 L 39.0 11.333333333333334 L 40.0 11.0 L 41.0 10.666666666666666 L 42.0 10.333333333333334 L 43.0 10.0 L 44.0 9.666666666666666 L 45.0 9.666666666666666 L 46.0 9.666666666666666 L 47.0 10.0 L 48.0 10.0 L 49.0 10.0 L 50.0 10.0 L 50.666666666666664 9.666666666666666 L 51.333333333333336 9.0 L 52.0 8.333333333333334 L 53.0 8.0 L 54.0 8.0 L 55.0 7.666666666666667 L 56.0 7.333333333333333 L 57.0 7.0 L 58.0 7.0 L 59.0 7.0 L 60.0 7.0 L 61.0 7.0 L 62.0 7.0 L 63.0 7.0 L 64.0 7.0 L 65.0 7.0 L 66.0 7.0 L 67.0 7.0 L 68.0 7.0 L 69.0 7.333333333333333 L 70.0 7.666666666666667 L 71.0 8.0 L 72.0 8.0 L 73.0 8.333333333333334 L 74.0 8.666666666666666 L 75.0 9.0 L 76.0 9.333333333333334 L 77.0 9.666666666666666 L 78.0 10.0 L 79.0 10.333333333333334 L 80.0 10.666666666666666 L 81.0 11.333333333333334 L 82.0 11.666666666666666 L 83.0 12.333333333333334 L 84.0 12.666666666666666 L 85.0 13.333333333333334 L 86.0 13.666666666666666 L 87.0 14.333333333333334 L 88.0 14.666666666666666 L 89.0 15.333333333333334 L 90.0 16.0 L 91.0 16.666666666666668 L 92.0 17.333333333333332 L 93.0 18.0 L 94.0 19.0 L 95.0 20.0 L 96.0 20.666666666666668 L 97.0 21.333333333333332 L 98.0 22.0 L 99.0 23.0 L 100.0 24.0 L 101.0 25.0 L 102.0 26.0 L 103.0 27.0 L 104.0 28.0 L 105.0 29.0 L 105.66666666666667 30.0 L 106.33333333333333 31.0 L 107.0 32.0 L 107.66666666666667 33.0 L 108.33333333333333 34.0 L 108.66666666666667 35.0 L 109.33333333333333 36.0 L 109.66666666666667 37.0 L 110.33333333333333 38.0 L 110.66666666666667 39.0 L 111.33333333333333 40.0 L 111.66666666666667 41.0 L 112.33333333333333 42.0 L 112.66666666666667 43.0 L 113.0 44.0 L 113.33333333333333 45.0 L 113.66666666666667 46.0 L 114.0 47.0 L 114.0 48.0 L 114.33333333333333 49.0 L 114.66666666666667 50.0 L 115.0 51.0 L 115.0 52.0 L 115.0 53.0 L 115.0 54.0 L 115.33333333333333 55.0 L 115.66666666666667 56.0 L 116.0 57.0 L 116.0 58.0 L 116.0 59.0 L 116.0 60.0 L 116.0 61.0 L 116.0 62.0 L 116.0 63.0 L 116.0 64.0 L 116.0 65.0 L 116.0 66.0 L 116.0 67.0 L 116.0 68.0 L 116.0 69.0 L 116.0 70.0 L 116.0 71.0 L 116.0 72.0 L 116.0 73.0 L 115.66666666666667 74.0 L 115.0 75.0 L 114.33333333333333 76.0 L 114.0 77.0 L 114.0 78.0 L 114.0 79.0 L 113.66666666666667 80.0 L 113.33333333333333 81.0 L 112.66666666666667 82.0 L 112.33333333333333 83.0 L 112.0 84.0 L 111.66666666666667 85.0 L 111.33333333333333 86.0 L 110.66666666666667 87.0 L 110.33333333333333 88.0 L 109.66666666666667 89.0 L 109.0 90.0 L 108.33333333333333 91.0 L 107.66666666666667 92.0 L 107.33333333333333 93.0 L 106.66666666666667 94.0 L 106.0 95.0 L 105.0 95.66666666666667 L 104.0 95.66666666666667 L 103.0 95.0 L 102.0 94.0 L 101.0 93.0 L 100.0 92.0 L 99.0 91.0 L 98.0 90.0 L 97.0 89.0 L 96.0 88.0 L 95.0 87.0 L 94.0 86.0 L 93.0 85.0 L 92.0 84.0 L 91.0 83.0 L 90.0 82.0 L 89.0 81.0 L 88.0 80.0 L 87.0 79.0 L 86.0 78.0 L 85.0 77.0 L 84.0 76.0 L 83.0 75.0 L 82.0 74.0 L 81.0 73.0 L 80.0 72.0 L 79.0 71.0 L 78.0 70.0 L 77.0 69.0 L 76.0 68.0 L 75.0 67.0 L 74.0 66.0 L 73.0 65.0 L 72.0 64.0 L 71.0 63.0 L 70.0 62.0 L 69.0 61.0 L 68.0 60.0 L 67.0 59.0 L 66.0 58.0 L 65.0 57.0 L 64.0 56.0 L 63.0 55.0 L 62.0 54.0 L 61.0 53.0 L 60.0 52.0 L 59.0 51.0 L 58.0 50.0 L 57.0 49.0 L 56.0 48.0 L 55.0 47.0 L 54.0 46.0 L 53.0 45.0 L 52.0 44.0 L 51.0 43.0 L 50.0 42.0 L 49.0 41.0 L 48.0 40.0 L 47.0 39.0 L 46.0 38.0 L 45.0 37.0 L 44.0 36.0 L 43.0 35.0 L 42.0 34.0 L 41.0 33.0 L 40.0 32.0 L 39.0 31.0 L 38.0 30.0 L 37.0 29.0 L 36.0 28.0 L 35.0 27.0 L 34.0 26.333333333333332 L 33.0 26.0 L 32.0 26.0 L 31.333333333333332 26.333333333333332 L 31.0 27.0 L 31.333333333333332 28.0 L 32.0 29.0 L 33.0 30.0 L 34.0 31.0 L 35.0 32.0 L 36.0 33.0 L 37.0 34.0 L 38.0 35.0 L 39.0 36.0 L 40.0 37.0 L 41.0 38.0 L 42.0 39.0 L 43.0 40.0 L 44.0 41.0 L 45.0 42.0 L 46.0 43.0 L 47.0 44.0 L 48.0 45.0 L 49.0 46.0 L 50.0 47.0 L 51.0 48.0 L 52.0 49.0 L 53.0 50.0 L 54.0 51.0 L 55.0 52.0 L 56.0 53.0 L 57.0 54.0 L 58.0 55.0 L 59.0 56.0 L 60.0 57.0 L 61.0 58.0 L 62.0 59.0 L 63.0 60.0 L 64.0 61.0 L 65.0 62.0 L 66.0 63.0 L 67.0 64.0 L 68.0 65.0 L 69.0 66.0 L 70.0 67.0 L 71.0 68.0 L 72.0 69.0 L 73.0 70.0 L 74.0 71.0 L 75.0 72.0 L 76.0 73.0 L 77.0 74.0 L 78.0 75.0 L 79.0 76.0 L 80.0 77.0 L 81.0 78.0 L 82.0 79.0 L 83.0 80.0 L 84.0 81.0 L 85.0 82.0 L 86.0 83.0 L 87.0 84.0 L 88.0 85.0 L 89.0 86.0 L 90.0 87.0 L 91.0 88.0 L 92.0 89.0 L 93.0 90.0 L 94.0 91.0 L 95.0 92.0 L 96.0 93.0 L 97.0 94.0 L 98.0 95.0 L 99.0 96.0 L 100.0 97.0 L 101.0 97.66666666666667 L 102.0 98.33333333333333 L 102.33333333333333 99.0 L 102.0 100.0 L 101.0 101.0 L 100.0 102.0 L 99.0 103.0 L 98.0 104.0 L 97.0 105.0 L 96.0 106.0 L 95.0 107.0 L 94.0 108.0 L 93.0 109.0 L 92.0 109.66666666666667 L 91.0 110.33333333333333 L 90.0 110.66666666666667 L 89.0 111.33333333333333 L 88.0 112.0 L 87.0 112.66666666666667 L 86.0 113.33333333333333 L 85.0 113.66666666666667 L 84.0 114.33333333333333 L 83.0 114.66666666666667 L 82.0 115.0 L 81.0 115.33333333333333 L 80.0 115.66666666666667 L 79.0 116.33333333333333 L 78.0 116.66666666666667 L 77.0 117.0 L 76.0 117.33333333333333 L 75.0 117.66666666666667 L 74.0 118.0 L 73.0 118.0 L 72.0 118.33333333333333 L 71.0 118.66666666666667 L 70.0 119.0 L 69.0 119.0 L 68.0 119.0 L 67.0 119.0 L 66.0 119.0 L 65.0 119.0 L 64.0 119.0 L 63.0 119.0 L 62.0 119.0 L 61.0 119.0 L 60.0 119.0 L 59.0 119.0 L 58.0 119.0 L 57.0 119.0 L 56.0 119.0 L 55.0 119.0 L 54.0 119.0 L 53.0 118.66666666666667 L 52.0 118.33333333333333 L 51.0 118.0 L 50.0 118.0 L 49.0 118.0 L 48.0 118.0 L 47.0 117.66666666666667 L 46.0 117.33333333333333 L 45.0 117.0 L 44.0 117.0 L 43.0 116.66666666666667 L 42.0 116.33333333333333 L 41.0 116.0 L 40.0 115.66666666666667 L 39.0 115.33333333333333 L 38.0 114.66666666666667 L 37.0 114.33333333333333 L 36.0 113.66666666666667 L 35.0 113.33333333333333 L 34.0 112.66666666666667 L 33.0 112.33333333333333 L 32.0 111.66666666666667 L 31.0 111.33333333333333 L 30.0 110.66666666666667 L 29.0 110.0 L 28.0 109.33333333333333 L 27.0 108.66666666666667 L 26.0 108.0 L 25.0 107.0 L 24.0 106.0 L 23.0 105.0 L 22.0 104.0 L 21.0 103.0 L 20.0 102.0 L 19.0 101.0 L 18.0 100.0 L 17.0 99.33333333333333 L 16.0 99.0 L 15.333333333333334 99.33333333333333 L 15.0 100.0 L 15.333333333333334 101.0 L 16.0 102.0 L 17.0 103.0 L 18.0 104.0 L 19.0 105.0 L 20.0 106.0 L 21.0 107.0 L 22.0 108.0 L 23.0 109.0 L 24.0 110.0 L 25.0 111.0 L 26.0 112.0 L 27.0 112.66666666666667 L 28.0 113.33333333333333 L 29.0 114.0 L 30.0 114.66666666666667 L 31.0 115.33333333333333 L 32.0 115.66666666666667 L 33.0 116.33333333333333 L 34.0 117.0 L 35.0 117.66666666666667 L 36.0 118.33333333333333 L 37.0 118.66666666666667 L 38.0 119.33333333333333 L 39.0 119.66666666666667 L 40.0 120.0 L 41.0 120.33333333333333 L 42.0 120.66666666666667 L 43.0 121.0 L 44.0 121.33333333333333 L 45.0 121.66666666666667 L 46.0 122.0 L 47.0 122.33333333333333 L 48.0 122.66666666666667 L 49.0 123.0 L 50.0 123.0 L 51.0 123.0 L 52.0 123.33333333333333 L 53.0 123.66666666666667 L 54.0 124.0 L 55.0 124.0 L 56.0 124.0 L 57.0 124.0 L 58.0 124.0 L 59.0 124.0 L 60.0 124.0 L 61.0 124.0 L 62.0 124.33333333333333 L 63.0 124.66666666666667 L 64.0 125.0 L 65.0 124.66666666666667 L 66.0 124.33333333333333 L 67.0 124.0 L 68.0 124.0 L 69.0 124.0 L 70.0 124.0 L 71.0 124.0 L 72.0 124.0 L 73.0 124.0 L 74.0 124.0 L 75.0 123.66666666666667 L 76.0 123.33333333333333 L 77.0 123.0 L 78.0 123.0 L 79.0 123.0 L 80.0 122.66666666666667 L 81.0 122.33333333333333 L 82.0 122.0 L 83.0 121.66666666666667 L 84.0 121.33333333333333 L 85.0 121.0 L 86.0 120.66666666666667 L 87.0 120.33333333333333 L 88.0 120.0 L 89.0 119.66666666666667 L 90.0 119.33333333333333 L 91.0 118.66666666666667 L 92.0 118.33333333333333 L 93.0 117.66666666666667 L 94.0 117.0 L 94.5 116.5 Z" stroke="none" fill="rgb(204,51,51)" />
<path d="M 84.5 18.5 L 85.0 18.666666666666668 L 86.0 19.333333333333332 L 87.0 19.666666666666668 L 88.0 20.333333333333332 L 89.0 21.0 L 90.0 21.666666666666668 L 91.0 22.333333333333332 L 92.0 23.0 L 93.0 24.0 L 94.0 24.666666666666668 L 95.0 25.333333333333332 L 96.0 26.0 L 97.0 27.0 L 98.0 28.0 L 99.0 29.0 L 100.0 30.0 L 101.0 31.0 L 102.0 32.0 L 103.0 33.0 L 104.0 34.0 L 105.0 35.0 L 105.66666666666667 36.0 L 106.33333333333333 37.0 L 106.66666666666667 38.0 L 107.0 39.0 L 107.33333333333333 40.0 L 108.0 41.0 L 108.66666666666667 42.0 L 109.33333333333333 43.0 L 109.66666666666667 44.0 L 110.33333333333333 45.0 L 110.66666666666667 46.0 L 111.0 47.0 L 111.33333333333333 48.0 L 111.66666666666667 49.0 L 112.0 50.0 L 112.0 51.0 L 112.0 52.0 L 112.33333333333333 53.0 L 112.66666666666667 54.0 L 113.0 55.0 L 113.0 56.0 L 113.0 57.0 L 113.0 58.0 L 113.0 59.0 L 113.33333333333333 60.0 L 113.66666666666667 61.0 L 114.0 62.0 L 114.0 63.0 L 114.0 64.0 L 114.0 65.0 L 114.0 66.0 L 114.0 67.0 L 114.0 68.0 L 114.0 69.0 L 114.0 70.0 L 114.0 71.0 L 114.0 72.0 L 114.0 73.0 L 114.0 74.0 L 114.0 75.0 L 114.33333333333333 75.66666666666667 L 115.0 75.66666666666667 L 115.66666666666667 75.0 L 116.0 74.0 L 116.0 73.0 L 116.0 72.0 L 116.0 71.0 L 116.0 70.0 L 116.0 69.0 L 116.0 68.0 L 116.0 67.0 L 116.0 66.0 L 116.0 65.0 L 116.0 64.0 L 116.0 63.0 L 116.0 62.0 L 116.0 61.0 L 116.0 60.0 L 116.0 59.0 L 116.0 58.0 L 116.0 57.0 L 116.0 56.0 L 115.66666666666667 55.0 L 115.33333333333333 54.0 L 115.0 53.0 L 115.0 52.0 L 115.0 51.0 L 115.0 50.0 L 114.66666666666667 49.0 L 114.33333333333333 48.0 L 114.0 47.0 L 114.0 46.0 L 113.66666666666667 45.0 L 113.33333333333333 44.0 L 113.0 43.0 L 112.66666666666667 42.0 L 112.33333333333333 41.0 L 111.66666666666667 40.0 L 111.33333333333333 39.0 L 110.66666666666667 38.0 L 110.33333333333333 37.0 L 109.66666666666667 36.0 L 109.33333333333333 35.0 L 108.66666666666667 34.0 L 108.33333333333333 33.0 L 107.66666666666667 32.0 L 107.0 31.0 L 106.33333333333333 30.0 L 105.66666666666667 29.0 L 105.0 28.0 L 104.0 27.0 L 103.0 26.0 L 102.0 25.0 L 101.0 24.0 L 100.0 23.0 L 99.0 22.0 L 98.0 21.333333333333332 L 97.0 20.666666666666668 L 96.0 20.0 L 95.0 19.0 L 94.0 18.0 L 93.0 17.333333333333332 L 92.0 16.666666666666668 L 91.0 16.0 L 90.0 15.333333333333334 L 89.0 14.666666666666666 L 88.0 14.333333333333334 L 87.0 13.666666666666666 L 86.0 13.333333333333334 L 85.0 12.666666666666666 L 84.0 12.333333333333334 L 83.0 11.666666666666666 L 82.0 11.333333333333334 L 81.0 10.666666666666666 L 80.0 10.333333333333334 L 79.0 10.0 L 78.0 9.666666666666666 L 77.0 9.333333333333334 L 76.0 9.0 L 75.0 8.666666666666666 L 74.0 8.333333333333334 L 73.0 8.0 L 72.0 8.0 L 71.0 7.666666666666667 L 70.0 7.333333333333333 L 69.0 7.0 L 68.0 7.0 L 67.0 7.0 L 66.0 7.0 L 65.0 7.0 L 64.0 7.0 L 63.0 7.0 L 62.0 7.0 L 61.0 7.0 L 60.0 7.0 L 59.0 7.0 L 58.0 7.0 L 57.0 7.0 L 56.0 7.0 L 55.0 7.333333333333333 L 54.0 7.666666666666667 L 53.0 8.0 L 52.0 8.0 L 51.333333333333336 8.333333333333334 L 51.0 9.0 L 51.333333333333336 10.0 L 51.666666666666664 11.0 L 51.666666666666664 12.0 L 51.333333333333336 13.0 L 51.0 14.0 L 51.333333333333336 14.666666666666666 L 52.0 15.0 L 53.0 15.0 L 54.0 15.0 L 55.0 15.0 L 56.0 15.0 L 57.0 15.0 L 58.0 15.0 L 59.0 14.666666666666666 L 60.0 14.333333333333334 L 61.0 14.0 L 62.0 14.0 L 63.0 14.0 L 64.0 14.0 L 65.0 14.0 L 66.0 14.0 L 67.0 14.0 L 68.0 14.0 L 69.0 14.0 L 70.0 14.0 L 71.0 14.0 L 72.0 14.333333333333334 L 73.0 14.666666666666666 L 74.0 15.0 L 75.0 15.0 L 76.0 15.0 L 77.0 15.333333333333334 L 78.0 15.666666666666666 L 79.0 16.0 L 80.0 16.333333333333332 L 81.0 16.666666666666668 L 82.0 17.333333333333332 L 83.0 17.666666666666668 L 83.5 18.0 Z" stroke="none" fill="rgb(244,67,54)" />
<path d="M 21.5 104.5 L 22.0 105.0 L 23.0 106.0 L 24.0 107.0 L 25.0 108.0 L 26.0 108.66666666666667 L 27.0 109.33333333333333 L 28.0 110.0 L 29.0 110.66666666666667 L 30.0 111.33333333333333 L 31.0 111.66666666666667 L 32.0 112.33333333333333 L 33.0 112.66666666666667 L 34.0 113.33333333333333 L 35.0 113.66666666666667 L 36.0 114.33333333333333 L 37.0 114.66666666666667 L 38.0 115.33333333333333 L 39.0 115.66666666666667 L 40.0 116.0 L 41.0 116.33333333333333 L 42.0 116.66666666666667 L 43.0 117.0 L 44.0 117.0 L 45.0 117.33333333333333 L 46.0 117.66666666666667 L 47.0 118.0 L 48.0 118.0 L 49.0 118.0 L 50.0 118.0 L 51.0 118.33333333333333 L 52.0 118.66666666666667 L 53.0 119.0 L 54.0 119.0 L 55.0 119.0 L 56.0 119.0 L 57.0 119.0 L 58.0 119.0 L 59.0 119.0 L 60.0 119.0 L 61.0 119.0 L 62.0 119.0 L 63.0 119.0 L 64.0 119.0 L 65.0 119.0 L 66.0 119.0 L 67.0 119.0 L 68.0 119.0 L 69.0 119.0 L 70.0 119.0 L 71.0 119.0 L 72.0 118.66666666666667 L 73.0 118.33333333333333 L 74.0 118.0 L 75.0 118.0 L 76.0 117.66666666666667 L 77.0 117.33333333333333 L 78.0 117.0 L 79.0 116.66666666666667 L 80.0 116.33333333333333 L 81.0 115.66666666666667 L 82.0 115.33333333333333 L 83.0 115.0 L 84.0 114.66666666666667 L 85.0 114.33333333333333 L 86.0 113.66666666666667 L 87.0 113.33333333333333 L 88.0 112.66666666666667 L 89.0 112.0 L 90.0 111.33333333333333 L 91.0 110.66666666666667 L 92.0 110.33333333333333 L 93.0 109.66666666666667 L 94.0 109.0 L 95.0 108.0 L 96.0 107.0 L 97.0 106.0 L 98.0 105.0 L 99.0 104.0 L 100.0 103.0 L 101.0 102.0 L 102.0 101.0 L 102.66666666666667 100.0 L 103.0 99.0 L 102.66666666666667 98.33333333333333 L 102.0 97.66666666666667 L 101.0 97.0 L 100.0 96.0 L 99.0 95.0 L 98.0 94.0 L 97.0 93.0 L 96.0 92.0 L 95.0 91.0 L 94.0 90.0 L 93.0 89.0 L 92.0 88.0 L 91.0 87.0 L 90.0 86.0 L 89.0 85.0 L 88.0 84.0 L 87.0 83.0 L 86.0 82.0 L 85.0 81.0 L 84.0 80.0 L 83.0 79.0 L 82.0 78.0 L 81.0 77.0 L 80.0 76.0 L 79.0 75.0 L 78.0 74.0 L 77.0 73.0 L 76.0 72.0 L 75.0 71.0 L 74.0 70.0 L 73.0 69.0 L 72.0 68.0 L 71.0 67.0 L 70.0 66.0 L 69.0 65.0 L 68.0 64.0 L 67.0 63.0 L 66.0 62.0 L 65.0 61.0 L 64.0 60.0 L 63.0 59.0 L 62.0 58.0 L 61.0 57.0 L 60.0 56.0 L 59.0 55.0 L 58.0 54.0 L 57.0 53.0 L 56.0 52.0 L 55.0 51.0 L 54.0 50.0 L 53.0 49.0 L 52.0 48.0 L 51.0 47.0 L 50.0 46.0 L 49.0 45.0 L 48.0 44.0 L 47.0 43.0 L 46.0 42.0 L 45.0 41.0 L 44.0 40.0 L 43.0 39.0 L 42.0 38.0 L 41.0 37.0 L 40.0 36.0 L 39.0 35.0 L 38.0 34.0 L 37.0 33.0 L 36.0 32.0 L 35.0 31.0 L 34.0 30.0 L 33.0 29.0 L 32.0 28.0 L 31.666666666666668 27.0 L 32.0 26.333333333333332 L 33.0 26.0 L 33.666666666666664 25.666666666666668 L 34.333333333333336 25.0 L 35.0 24.0 L 36.0 23.333333333333332 L 37.0 22.666666666666668 L 38.0 22.0 L 39.0 21.333333333333332 L 40.0 20.666666666666668 L 41.0 20.333333333333332 L 42.0 19.666666666666668 L 43.0 19.333333333333332 L 44.0 18.666666666666668 L 44.666666666666664 18.0 L 45.0 17.0 L 44.666666666666664 16.333333333333332 L 44.0 16.0 L 43.0 16.333333333333332 L 42.0 16.666666666666668 L 41.0 17.333333333333332 L 40.0 17.666666666666668 L 39.0 18.333333333333332 L 38.0 18.666666666666668 L 37.0 19.333333333333332 L 36.0 20.0 L 35.0 20.666666666666668 L 34.0 21.333333333333332 L 33.0 22.0 L 32.0 22.666666666666668 L 31.0 23.333333333333332 L 30.0 24.0 L 29.0 25.0 L 28.0 26.0 L 27.0 27.0 L 26.0 28.0 L 25.0 29.0 L 24.0 30.0 L 23.0 31.0 L 22.0 32.0 L 21.333333333333332 33.0 L 20.666666666666668 34.0 L 20.0 35.0 L 19.333333333333332 36.0 L 18.666666666666668 37.0 L 18.0 38.0 L 17.0 39.0 L 16.0 40.0 L 15.0 40.666666666666664 L 14.0 40.666666666666664 L 13.333333333333334 40.0 L 13.0 39.0 L 13.333333333333334 38.0 L 13.666666666666666 37.0 L 14.333333333333334 36.0 L 14.666666666666666 35.0 L 15.333333333333334 34.0 L 16.0 33.0 L 16.666666666666668 32.0 L 17.333333333333332 31.0 L 18.0 30.0 L 19.0 29.0 L 20.0 28.0 L 21.0 27.0 L 22.0 26.0 L 23.0 25.0 L 24.0 24.0 L 25.0 23.0 L 26.0 22.0 L 27.0 21.0 L 28.0 20.333333333333332 L 29.0 19.666666666666668 L 30.0 19.0 L 31.0 18.0 L 32.0 17.333333333333332 L 33.0 16.666666666666668 L 34.0 16.333333333333332 L 35.0 15.666666666666666 L 36.0 15.333333333333334 L 37.0 14.666666666666666 L 38.0 14.0 L 39.0 13.333333333333334 L 40.0 13.0 L 41.0 12.666666666666666 L 42.0 12.333333333333334 L 43.0 11.666666666666666 L 44.0 11.333333333333334 L 45.0 11.0 L 45.666666666666664 10.666666666666666 L 46.0 10.0 L 45.666666666666664 9.333333333333334 L 45.0 9.0 L 44.0 9.333333333333334 L 43.0 9.666666666666666 L 42.0 10.0 L 41.0 10.333333333333334 L 40.0 10.666666666666666 L 39.0 11.0 L 38.0 11.333333333333334 L 37.0 11.666666666666666 L 36.0 12.333333333333334 L 35.0 12.666666666666666 L 34.0 13.333333333333334 L 33.0 13.666666666666666 L 32.0 14.333333333333334 L 31.0 15.0 L 30.0 15.666666666666666 L 29.0 16.333333333333332 L 28.0 17.0 L 27.0 17.666666666666668 L 26.0 18.0 L 25.0 18.333333333333332 L 24.0 19.0 L 23.0 20.0 L 22.0 21.0 L 21.0 22.0 L 20.0 23.0 L 19.0 24.0 L 18.0 25.0 L 17.0 26.0 L 16.0 27.0 L 15.333333333333334 28.0 L 14.666666666666666 29.0 L 14.0 30.0 L 13.333333333333334 31.0 L 12.666666666666666 32.0 L 12.0 33.0 L 11.0 34.0 L 10.333333333333334 35.0 L 9.666666666666666 36.0 L 9.333333333333334 37.0 L 8.666666666666666 38.0 L 8.333333333333334 39.0 L 8.0 40.0 L 7.666666666666667 41.0 L 7.333333333333333 42.0 L 6.666666666666667 43.0 L 6.333333333333333 44.0 L 6.0 45.0 L 6.0 46.0 L 5.666666666666667 47.0 L 5.333333333333333 48.0 L 5.0 49.0 L 5.0 50.0 L 4.666666666666667 51.0 L 4.333333333333333 52.0 L 4.0 53.0 L 4.0 54.0 L 4.0 55.0 L 4.0 56.0 L 4.0 57.0 L 4.0 58.0 L 4.0 59.0 L 4.0 60.0 L 4.0 61.0 L 4.0 62.0 L 4.0 63.0 L 4.0 64.0 L 4.0 65.0 L 4.0 66.0 L 4.0 67.0 L 4.0 68.0 L 4.0 69.0 L 4.0 70.0 L 4.0 71.0 L 4.0 72.0 L 4.0 73.0 L 4.333333333333333 74.0 L 4.666666666666667 75.0 L 5.0 76.0 L 5.0 77.0 L 5.333333333333333 78.0 L 5.666666666666667 79.0 L 6.0 80.0 L 6.333333333333333 81.0 L 6.666666666666667 82.0 L 7.0 83.0 L 7.333333333333333 84.0 L 7.666666666666667 85.0 L 8.333333333333334 86.0 L 8.666666666666666 87.0 L 9.333333333333334 88.0 L 9.666666666666666 89.0 L 10.333333333333334 90.0 L 10.666666666666666 91.0 L 11.333333333333334 92.0 L 12.0 93.0 L 12.666666666666666 94.0 L 13.333333333333334 95.0 L 13.666666666666666 96.0 L 14.333333333333334 97.0 L 15.0 98.0 L 16.0 99.0 L 17.0 100.0 L 18.0 101.0 L 19.0 102.0 L 20.0 103.0 L 20.5 103.5 Z" stroke="none" fill="rgb(244,67,54)" />
<path d="M 21.0 34.5 L 21.333333333333332 34.0 L 22.0 33.0 L 23.0 32.0 L 24.0 31.0 L 25.0 30.0 L 26.0 29.0 L 27.0 28.0 L 28.0 27.0 L 29.0 26.0 L 30.0 25.0 L 31.0 24.0 L 32.0 23.333333333333332 L 33.0 22.666666666666668 L 34.0 22.0 L 35.0 21.333333333333332 L 36.0 20.666666666666668 L 37.0 20.0 L 38.0 19.333333333333332 L 39.0 18.666666666666668 L 40.0 18.333333333333332 L 41.0 17.666666666666668 L 42.0 17.333333333333332 L 43.0 16.666666666666668 L 44.0 16.666666666666668 L 45.0 16.666666666666668 L 46.0 17.0 L 47.0 17.0 L 48.0 17.0 L 49.0 16.666666666666668 L 50.0 16.333333333333332 L 50.666666666666664 15.666666666666666 L 51.0 15.0 L 51.333333333333336 14.0 L 51.666666666666664 13.0 L 52.0 12.0 L 52.0 11.0 L 51.666666666666664 10.333333333333334 L 51.0 10.0 L 50.0 10.0 L 49.0 10.0 L 48.0 10.0 L 47.0 10.0 L 46.0 10.333333333333334 L 45.0 10.666666666666666 L 44.0 11.0 L 43.0 11.333333333333334 L 42.0 11.666666666666666 L 41.0 12.333333333333334 L 40.0 12.666666666666666 L 39.0 13.0 L 38.0 13.333333333333334 L 37.0 14.0 L 36.0 14.666666666666666 L 35.0 15.333333333333334 L 34.0 15.666666666666666 L 33.0 16.333333333333332 L 32.0 16.666666666666668 L 31.0 17.333333333333332 L 30.0 18.0 L 29.0 19.0 L 28.0 19.666666666666668 L 27.0 20.333333333333332 L 26.0 21.0 L 25.0 22.0 L 24.0 23.0 L 23.0 24.0 L 22.0 25.0 L 21.0 26.0 L 20.0 27.0 L 19.0 28.0 L 18.0 29.0 L 17.333333333333332 30.0 L 16.666666666666668 31.0 L 16.0 32.0 L 15.333333333333334 33.0 L 14.666666666666666 34.0 L 14.333333333333334 35.0 L 13.666666666666666 36.0 L 13.333333333333334 37.0 L 13.0 38.0 L 13.0 39.0 L 13.0 40.0 L 13.333333333333334 41.0 L 14.0 41.666666666666664 L 15.0 41.666666666666664 L 16.0 41.0 L 17.0 40.0 L 18.0 39.0 L 18.666666666666668 38.0 L 19.333333333333332 37.0 L 20.0 36.0 L 20.5 35.5 Z" stroke="none" fill="rgb(255,137,127)" />
<path d="M 88.5 24.0 L 89.0 24.333333333333332 L 90.0 24.666666666666668 L 91.0 25.333333333333332 L 92.0 26.0 L 93.0 27.0 L 94.0 27.666666666666668 L 95.0 28.333333333333332 L 96.0 29.0 L 97.0 30.0 L 98.0 31.0 L 99.0 32.0 L 100.0 33.0 L 101.0 34.0 L 102.0 35.0 L 103.0 36.0 L 104.0 37.0 L 105.0 38.0 L 106.0 38.666666666666664 L 106.66666666666667 38.666666666666664 L 107.0 38.0 L 106.66666666666667 37.0 L 106.33333333333333 36.0 L 105.66666666666667 35.0 L 105.0 34.0 L 104.0 33.0 L 103.0 32.0 L 102.0 31.0 L 101.0 30.0 L 100.0 29.0 L 99.0 28.0 L 98.0 27.0 L 97.0 26.0 L 96.0 25.333333333333332 L 95.0 24.666666666666668 L 94.0 24.0 L 93.0 23.0 L 92.0 22.333333333333332 L 91.0 21.666666666666668 L 90.0 21.0 L 89.0 20.333333333333332 L 88.0 19.666666666666668 L 87.0 19.333333333333332 L 86.0 18.666666666666668 L 85.0 18.333333333333332 L 84.0 17.666666666666668 L 83.0 17.333333333333332 L 82.0 16.666666666666668 L 81.0 16.333333333333332 L 80.0 16.0 L 79.0 15.666666666666666 L 78.0 15.333333333333334 L 77.0 15.0 L 76.0 15.0 L 75.0 15.0 L 74.0 14.666666666666666 L 73.0 14.333333333333334 L 72.0 14.0 L 71.0 14.0 L 70.0 14.0 L 69.0 14.0 L 68.0 14.0 L 67.0 14.0 L 66.0 14.0 L 65.0 14.0 L 64.0 14.0 L 63.0 14.0 L 62.0 14.0 L 61.0 14.0 L 60.0 14.0 L 59.0 14.333333333333334 L 58.0 14.666666666666666 L 57.0 15.0 L 56.0 15.0 L 55.0 15.0 L 54.0 15.0 L 53.0 15.0 L 52.0 15.0 L 51.0 15.333333333333334 L 50.0 15.666666666666666 L 49.0 16.333333333333332 L 48.0 16.666666666666668 L 47.0 17.0 L 46.0 17.0 L 45.0 17.333333333333332 L 44.0 18.0 L 43.0 18.666666666666668 L 42.0 19.333333333333332 L 41.0 19.666666666666668 L 40.0 20.333333333333332 L 39.0 20.666666666666668 L 38.0 21.333333333333332 L 37.0 22.0 L 36.0 22.666666666666668 L 35.0 23.333333333333332 L 34.333333333333336 24.0 L 34.0 25.0 L 34.0 26.0 L 34.333333333333336 27.0 L 35.0 28.0 L 36.0 28.666666666666668 L 37.0 28.666666666666668 L 38.0 28.0 L 39.0 27.0 L 40.0 26.333333333333332 L 41.0 25.666666666666668 L 42.0 25.333333333333332 L 43.0 24.666666666666668 L 44.0 24.333333333333332 L 45.0 23.666666666666668 L 46.0 23.333333333333332 L 47.0 22.666666666666668 L 48.0 22.333333333333332 L 49.0 21.666666666666668 L 50.0 21.333333333333332 L 51.0 21.0 L 52.0 20.666666666666668 L 53.0 20.333333333333332 L 54.0 20.0 L 55.0 20.0 L 56.0 19.666666666666668 L 57.0 19.333333333333332 L 58.0 19.0 L 59.0 19.0 L 60.0 19.0 L 61.0 19.0 L 62.0 19.0 L 63.0 19.0 L 64.0 18.666666666666668 L 65.0 18.333333333333332 L 66.0 18.0 L 67.0 18.0 L 68.0 18.0 L 69.0 18.0 L 70.0 18.0 L 71.0 18.0 L 72.0 18.0 L 73.0 18.333333333333332 L 74.0 18.666666666666668 L 75.0 19.0 L 76.0 19.0 L 77.0 19.333333333333332 L 78.0 19.666666666666668 L 79.0 20.0 L 80.0 20.0 L 81.0 20.333333333333332 L 82.0 20.666666666666668 L 83.0 21.333333333333332 L 84.0 21.666666666666668 L 85.0 22.333333333333332 L 86.0 22.666666666666668 L 87.0 23.333333333333332 L 87.5 23.5 Z" stroke="none" fill="rgb(35,31,32)" />
<path d="M 110.0 89.5 L 110.33333333333333 89.0 L 110.66666666666667 88.0 L 111.33333333333333 87.0 L 111.66666666666667 86.0 L 112.0 85.0 L 112.33333333333333 84.0 L 112.66666666666667 83.0 L 113.33333333333333 82.0 L 113.66666666666667 81.0 L 114.0 80.0 L 114.0 79.0 L 114.0 78.0 L 114.0 77.0 L 114.0 76.0 L 114.0 75.0 L 114.0 74.0 L 114.0 73.0 L 114.0 72.0 L 114.0 71.0 L 114.0 70.0 L 114.0 69.0 L 114.0 68.0 L 114.0 67.0 L 114.0 66.0 L 114.0 65.0 L 114.0 64.0 L 114.0 63.0 L 114.0 62.0 L 114.0 61.0 L 113.66666666666667 60.0 L 113.33333333333333 59.0 L 113.0 58.0 L 113.0 57.0 L 113.0 56.0 L 113.0 55.0 L 113.0 54.0 L 112.66666666666667 53.0 L 112.33333333333333 52.0 L 112.0 51.0 L 112.0 50.0 L 112.0 49.0 L 111.66666666666667 48.0 L 111.33333333333333 47.0 L 111.0 46.0 L 110.66666666666667 45.0 L 110.33333333333333 44.0 L 109.66666666666667 43.0 L 109.33333333333333 42.0 L 108.66666666666667 41.0 L 108.0 40.0 L 107.0 39.0 L 106.0 38.0 L 105.0 37.0 L 104.0 36.0 L 103.0 35.0 L 102.0 34.0 L 101.0 33.0 L 100.0 32.0 L 99.0 31.0 L 98.0 30.0 L 97.0 29.0 L 96.0 28.333333333333332 L 95.0 27.666666666666668 L 94.0 27.0 L 93.0 26.0 L 92.0 25.333333333333332 L 91.0 24.666666666666668 L 90.0 24.333333333333332 L 89.0 23.666666666666668 L 88.0 23.333333333333332 L 87.0 22.666666666666668 L 86.0 22.333333333333332 L 85.0 21.666666666666668 L 84.0 21.333333333333332 L 83.0 20.666666666666668 L 82.0 20.333333333333332 L 81.0 20.0 L 80.0 20.0 L 79.0 19.666666666666668 L 78.0 19.333333333333332 L 77.0 19.0 L 76.0 19.0 L 75.0 18.666666666666668 L 74.0 18.333333333333332 L 73.0 18.0 L 72.0 18.0 L 71.0 18.0 L 70.0 18.0 L 69.0 18.0 L 68.0 18.0 L 67.0 18.0 L 66.0 18.0 L 65.0 18.0 L 64.0 18.333333333333332 L 63.0 18.666666666666668 L 62.0 19.0 L 61.0 19.0 L 60.0 19.0 L 59.0 19.0 L 58.0 19.0 L 57.0 19.0 L 56.0 19.333333333333332 L 55.0 19.666666666666668 L 54.0 20.0 L 53.0 20.0 L 52.0 20.333333333333332 L 51.0 20.666666666666668 L 50.0 21.0 L 49.0 21.333333333333332 L 48.0 21.666666666666668 L 47.0 22.333333333333332 L 46.0 22.666666666666668 L 45.0 23.333333333333332 L 44.0 23.666666666666668 L 43.0 24.333333333333332 L 42.0 24.666666666666668 L 41.0 25.333333333333332 L 40.0 25.666666666666668 L 39.0 26.333333333333332 L 38.0 27.0 L 37.333333333333336 28.0 L 37.0 29.0 L 37.333333333333336 30.0 L 38.0 31.0 L 39.0 32.0 L 40.0 33.0 L 41.0 34.0 L 42.0 35.0 L 43.0 36.0 L 44.0 37.0 L 45.0 38.0 L 46.0 39.0 L 47.0 40.0 L 48.0 41.0 L 49.0 42.0 L 50.0 43.0 L 51.0 44.0 L 52.0 45.0 L 53.0 46.0 L 54.0 47.0 L 55.0 47.666666666666664 L 55.666666666666664 47.666666666666664 L 56.0 47.0 L 56.333333333333336 46.0 L 57.0 45.333333333333336 L 58.0 44.666666666666664 L 59.0 44.333333333333336 L 60.0 43.666666666666664 L 60.666666666666664 43.0 L 61.0 42.0 L 60.666666666666664 41.0 L 60.0 40.0 L 59.0 39.0 L 58.0 38.0 L 57.0 37.0 L 56.333333333333336 36.0 L 56.0 35.0 L 56.333333333333336 34.0 L 56.666666666666664 33.0 L 57.0 32.0 L 57.333333333333336 31.0 L 58.0 30.0 L 59.0 29.0 L 60.0 28.0 L 61.0 27.333333333333332 L 62.0 26.666666666666668 L 63.0 26.333333333333332 L 64.0 26.0 L 65.0 26.0 L 66.0 26.333333333333332 L 67.0 27.0 L 68.0 28.0 L 69.0 29.0 L 70.0 30.0 L 70.66666666666667 31.0 L 71.0 32.0 L 71.0 33.0 L 71.0 34.0 L 71.0 35.0 L 71.0 36.0 L 70.66666666666667 37.0 L 70.0 38.0 L 69.0 39.0 L 68.0 40.0 L 67.33333333333333 41.0 L 67.0 42.0 L 67.33333333333333 42.666666666666664 L 68.0 43.0 L 69.0 43.0 L 70.0 43.333333333333336 L 71.0 43.666666666666664 L 72.0 44.0 L 73.0 44.333333333333336 L 74.0 44.666666666666664 L 75.0 45.333333333333336 L 76.0 45.666666666666664 L 77.0 46.333333333333336 L 78.0 46.666666666666664 L 79.0 47.333333333333336 L 80.0 48.0 L 81.0 49.0 L 82.0 50.0 L 83.0 51.0 L 83.66666666666667 52.0 L 84.0 53.0 L 84.0 54.0 L 84.0 55.0 L 83.66666666666667 56.0 L 83.33333333333333 57.0 L 83.0 58.0 L 82.66666666666667 59.0 L 82.33333333333333 60.0 L 82.0 61.0 L 82.0 62.0 L 81.66666666666667 63.0 L 81.0 64.0 L 80.0 65.0 L 79.0 65.33333333333333 L 78.0 65.0 L 77.0 64.0 L 76.33333333333333 63.0 L 76.33333333333333 62.0 L 76.66666666666667 61.0 L 77.0 60.0 L 77.33333333333333 59.0 L 77.66666666666667 58.0 L 78.0 57.0 L 78.0 56.0 L 78.0 55.0 L 78.0 54.0 L 77.66666666666667 53.0 L 77.0 52.333333333333336 L 76.0 52.0 L 75.0 52.0 L 74.0 52.0 L 73.33333333333333 52.333333333333336 L 73.0 53.0 L 73.0 54.0 L 73.0 55.0 L 73.0 56.0 L 73.0 57.0 L 73.0 58.0 L 73.0 59.0 L 73.0 60.0 L 73.0 61.0 L 73.0 62.0 L 73.0 63.0 L 73.0 64.0 L 73.0 65.0 L 73.33333333333333 66.0 L 74.0 67.0 L 75.0 68.0 L 76.0 69.0 L 77.0 70.0 L 78.0 71.0 L 79.0 72.0 L 80.0 73.0 L 81.0 74.0 L 82.0 75.0 L 83.0 76.0 L 84.0 77.0 L 85.0 78.0 L 86.0 79.0 L 87.0 80.0 L 88.0 81.0 L 89.0 82.0 L 90.0 83.0 L 91.0 84.0 L 92.0 85.0 L 93.0 86.0 L 94.0 87.0 L 95.0 88.0 L 96.0 89.0 L 97.0 90.0 L 98.0 91.0 L 99.0 92.0 L 100.0 93.0 L 101.0 94.0 L 102.0 95.0 L 103.0 96.0 L 104.0 96.66666666666667 L 105.0 96.66666666666667 L 106.0 96.0 L 106.66666666666667 95.0 L 107.33333333333333 94.0 L 107.66666666666667 93.0 L 108.33333333333333 92.0 L 109.0 91.0 L 109.5 90.5 Z" stroke="none" fill="rgb(65,64,66)" />
<path d="M 66.5 59.5 L 67.0 60.0 L 68.0 61.0 L 69.0 62.0 L 70.0 63.0 L 71.0 64.0 L 72.0 64.66666666666667 L 72.66666666666667 64.66666666666667 L 73.0 64.0 L 73.0 63.0 L 73.0 62.0 L 73.0 61.0 L 73.0 60.0 L 73.0 59.0 L 73.0 58.0 L 73.0 57.0 L 73.0 56.0 L 73.0 55.0 L 73.0 54.0 L 73.33333333333333 53.0 L 74.0 52.333333333333336 L 75.0 52.0 L 76.0 52.333333333333336 L 77.0 53.0 L 77.66666666666667 54.0 L 78.0 55.0 L 78.0 56.0 L 77.66666666666667 57.0 L 77.33333333333333 58.0 L 77.0 59.0 L 76.66666666666667 60.0 L 76.33333333333333 61.0 L 76.0 62.0 L 76.0 63.0 L 76.33333333333333 64.0 L 77.0 65.0 L 78.0 65.66666666666667 L 79.0 66.0 L 80.0 65.66666666666667 L 81.0 65.0 L 81.66666666666667 64.0 L 82.0 63.0 L 82.0 62.0 L 82.33333333333333 61.0 L 82.66666666666667 60.0 L 83.0 59.0 L 83.33333333333333 58.0 L 83.66666666666667 57.0 L 84.0 56.0 L 84.0 55.0 L 84.0 54.0 L 84.0 53.0 L 84.0 52.0 L 83.66666666666667 51.0 L 83.0 50.0 L 82.0 49.0 L 81.0 48.0 L 80.0 47.333333333333336 L 79.0 46.666666666666664 L 78.0 46.333333333333336 L 77.0 45.666666666666664 L 76.0 45.333333333333336 L 75.0 44.666666666666664 L 74.0 44.333333333333336 L 73.0 44.0 L 72.0 43.666666666666664 L 71.0 43.333333333333336 L 70.0 43.0 L 69.0 43.0 L 68.0 42.666666666666664 L 67.66666666666667 42.0 L 68.0 41.0 L 69.0 40.0 L 70.0 39.0 L 70.66666666666667 38.0 L 71.0 37.0 L 71.0 36.0 L 71.0 35.0 L 71.0 34.0 L 71.0 33.0 L 71.0 32.0 L 71.0 31.0 L 70.66666666666667 30.0 L 70.0 29.0 L 69.0 28.0 L 68.0 27.0 L 67.0 26.333333333333332 L 66.0 26.0 L 65.0 26.0 L 64.0 26.0 L 63.0 26.0 L 62.0 26.333333333333332 L 61.0 26.666666666666668 L 60.0 27.333333333333332 L 59.0 28.0 L 58.0 29.0 L 57.333333333333336 30.0 L 57.0 31.0 L 56.666666666666664 32.0 L 56.333333333333336 33.0 L 56.0 34.0 L 56.0 35.0 L 56.0 36.0 L 56.333333333333336 37.0 L 57.0 38.0 L 58.0 39.0 L 59.0 40.0 L 60.0 41.0 L 60.333333333333336 42.0 L 60.0 43.0 L 59.0 43.666666666666664 L 58.0 44.333333333333336 L 57.0 44.666666666666664 L 56.333333333333336 45.333333333333336 L 56.0 46.0 L 56.0 47.0 L 56.0 48.0 L 56.333333333333336 49.0 L 57.0 50.0 L 58.0 51.0 L 59.0 52.0 L 60.0 53.0 L 61.0 54.0 L 62.0 55.0 L 63.0 56.0 L 64.0 57.0 L 65.0 58.0 L 65.5 58.5 Z" stroke="none" fill="rgb(250,250,250)" />
<path d="M 23.5 93.5 L 24.0 94.0 L 24.666666666666668 95.0 L 25.333333333333332 96.0 L 26.0 97.0 L 27.0 98.0 L 28.0 99.0 L 29.0 100.0 L 30.0 101.0 L 31.0 102.0 L 32.0 103.0 L 33.0 104.0 L 34.0 105.0 L 35.0 105.66666666666667 L 36.0 106.33333333333333 L 37.0 106.66666666666667 L 38.0 107.0 L 38.666666666666664 106.66666666666667 L 38.666666666666664 106.0 L 38.0 105.0 L 37.0 104.0 L 36.0 103.0 L 35.0 102.0 L 34.0 101.0 L 33.0 100.0 L 32.0 99.0 L 31.0 98.0 L 30.0 97.0 L 29.0 96.0 L 28.333333333333332 95.0 L 27.666666666666668 94.0 L 27.0 93.0 L 26.0 92.0 L 25.333333333333332 91.0 L 24.666666666666668 90.0 L 24.333333333333332 89.0 L 23.666666666666668 88.0 L 23.333333333333332 87.0 L 22.666666666666668 86.0 L 22.333333333333332 85.0 L 21.666666666666668 84.0 L 21.333333333333332 83.0 L 20.666666666666668 82.0 L 20.333333333333332 81.0 L 20.0 80.0 L 20.0 79.0 L 19.666666666666668 78.0 L 19.333333333333332 77.0 L 19.0 76.0 L 19.0 75.0 L 18.666666666666668 74.0 L 18.333333333333332 73.0 L 18.0 72.0 L 18.0 71.0 L 18.0 70.0 L 18.0 69.0 L 18.0 68.0 L 18.0 67.0 L 18.0 66.0 L 18.333333333333332 65.0 L 18.666666666666668 64.0 L 19.0 63.0 L 19.0 62.0 L 19.0 61.0 L 19.0 60.0 L 19.0 59.0 L 19.0 58.0 L 19.333333333333332 57.0 L 19.666666666666668 56.0 L 20.0 55.0 L 20.0 54.0 L 20.333333333333332 53.0 L 20.666666666666668 52.0 L 21.0 51.0 L 21.333333333333332 50.0 L 21.666666666666668 49.0 L 22.0 48.0 L 22.333333333333332 47.0 L 22.666666666666668 46.0 L 23.333333333333332 45.0 L 23.666666666666668 44.0 L 24.333333333333332 43.0 L 25.0 42.0 L 26.0 41.0 L 26.666666666666668 40.0 L 27.0 39.0 L 27.333333333333332 38.0 L 27.666666666666668 37.0 L 27.666666666666668 36.0 L 27.0 35.0 L 26.0 34.333333333333336 L 25.0 34.0 L 24.0 34.333333333333336 L 23.0 35.0 L 22.0 36.0 L 21.333333333333332 37.0 L 20.666666666666668 38.0 L 20.333333333333332 39.0 L 19.666666666666668 40.0 L 19.333333333333332 41.0 L 18.666666666666668 42.0 L 18.333333333333332 43.0 L 17.666666666666668 44.0 L 17.333333333333332 45.0 L 17.0 46.0 L 16.666666666666668 47.0 L 16.333333333333332 48.0 L 16.0 49.0 L 16.0 50.0 L 15.666666666666666 51.0 L 15.333333333333334 52.0 L 15.0 53.0 L 15.0 54.0 L 15.0 55.0 L 15.0 56.0 L 15.0 57.0 L 14.666666666666666 58.0 L 14.333333333333334 59.0 L 14.0 60.0 L 14.0 61.0 L 14.0 62.0 L 14.0 63.0 L 14.0 64.0 L 14.0 65.0 L 14.0 66.0 L 14.0 67.0 L 14.0 68.0 L 14.0 69.0 L 14.0 70.0 L 14.0 71.0 L 14.0 72.0 L 14.333333333333334 73.0 L 14.666666666666666 74.0 L 15.0 75.0 L 15.0 76.0 L 15.0 77.0 L 15.333333333333334 78.0 L 15.666666666666666 79.0 L 16.0 80.0 L 16.333333333333332 81.0 L 16.666666666666668 82.0 L 17.333333333333332 83.0 L 17.666666666666668 84.0 L 18.333333333333332 85.0 L 18.666666666666668 86.0 L 19.333333333333332 87.0 L 19.666666666666668 88.0 L 20.333333333333332 89.0 L 21.0 90.0 L 21.666666666666668 91.0 L 22.333333333333332 92.0 L 22.5 92.5 Z" stroke="none" fill="rgb(35,31,32)" />
<path d="M 40.5 52.5 L 41.0 53.0 L 42.0 54.0 L 43.0 55.0 L 44.0 56.0 L 45.0 57.0 L 46.0 58.0 L 47.0 59.0 L 48.0 60.0 L 49.0 61.0 L 50.0 62.0 L 51.0 62.666666666666664 L 52.0 63.333333333333336 L 53.0 64.0 L 54.0 64.66666666666667 L 55.0 65.0 L 55.666666666666664 64.66666666666667 L 55.666666666666664 64.0 L 55.0 63.0 L 54.0 62.0 L 53.0 61.0 L 52.0 60.0 L 51.0 59.0 L 50.0 58.0 L 49.0 57.0 L 48.0 56.0 L 47.0 55.0 L 46.0 54.0 L 45.0 53.0 L 44.0 52.0 L 43.0 51.0 L 42.0 50.0 L 41.0 49.0 L 40.0 48.0 L 39.0 47.0 L 38.0 46.0 L 37.0 45.0 L 36.0 44.0 L 35.0 43.0 L 34.0 42.0 L 33.0 41.0 L 32.0 40.0 L 31.0 39.0 L 30.0 38.0 L 29.0 37.333333333333336 L 28.0 37.0 L 27.333333333333332 37.333333333333336 L 27.0 38.0 L 27.0 39.0 L 27.333333333333332 40.0 L 28.0 41.0 L 29.0 42.0 L 30.0 43.0 L 31.0 44.0 L 32.0 45.0 L 33.0 46.0 L 34.0 47.0 L 35.0 47.666666666666664 L 36.0 48.333333333333336 L 37.0 49.0 L 38.0 50.0 L 39.0 51.0 L 39.5 51.5 Z" stroke="none" fill="rgb(42,38,39)" />
<path d="M 33.5 101.5 L 34.0 102.0 L 35.0 103.0 L 36.0 104.0 L 37.0 105.0 L 38.0 106.0 L 39.0 107.0 L 40.0 108.0 L 41.0 108.66666666666667 L 42.0 109.33333333333333 L 43.0 109.66666666666667 L 44.0 110.33333333333333 L 45.0 110.66666666666667 L 46.0 111.0 L 47.0 111.33333333333333 L 48.0 111.66666666666667 L 49.0 112.0 L 50.0 112.0 L 51.0 112.0 L 52.0 112.33333333333333 L 53.0 112.66666666666667 L 54.0 113.0 L 55.0 113.0 L 56.0 113.0 L 57.0 113.0 L 58.0 113.0 L 59.0 113.33333333333333 L 60.0 113.66666666666667 L 61.0 114.0 L 62.0 114.0 L 63.0 114.0 L 64.0 114.0 L 65.0 114.0 L 66.0 114.0 L 67.0 114.0 L 68.0 114.0 L 69.0 114.0 L 70.0 114.0 L 71.0 114.0 L 72.0 114.0 L 73.0 114.0 L 74.0 114.0 L 75.0 114.0 L 76.0 113.66666666666667 L 77.0 113.33333333333333 L 78.0 113.0 L 79.0 113.0 L 80.0 112.66666666666667 L 81.0 112.33333333333333 L 82.0 112.0 L 83.0 111.66666666666667 L 84.0 111.33333333333333 L 85.0 111.0 L 86.0 110.66666666666667 L 87.0 110.33333333333333 L 88.0 109.66666666666667 L 89.0 109.33333333333333 L 90.0 108.66666666666667 L 91.0 108.33333333333333 L 92.0 107.66666666666667 L 93.0 107.0 L 94.0 106.0 L 94.66666666666667 105.0 L 95.0 104.0 L 94.66666666666667 103.0 L 94.0 102.0 L 93.0 101.0 L 92.0 100.0 L 91.0 99.0 L 90.0 98.0 L 89.0 97.0 L 88.0 96.0 L 87.0 95.0 L 86.0 94.0 L 85.0 93.0 L 84.0 92.0 L 83.0 91.33333333333333 L 82.0 91.0 L 81.33333333333333 91.33333333333333 L 81.0 92.0 L 81.33333333333333 93.0 L 82.0 94.0 L 82.66666666666667 95.0 L 83.33333333333333 96.0 L 83.66666666666667 97.0 L 84.0 98.0 L 84.0 99.0 L 83.66666666666667 100.0 L 83.0 101.0 L 82.0 101.66666666666667 L 81.0 101.66666666666667 L 80.0 101.0 L 79.0 100.0 L 78.0 99.0 L 77.0 98.0 L 76.33333333333333 97.0 L 75.66666666666667 96.0 L 75.0 95.0 L 74.0 94.0 L 73.33333333333333 93.0 L 72.66666666666667 92.0 L 72.0 91.0 L 71.33333333333333 90.0 L 70.66666666666667 89.0 L 70.0 88.0 L 69.33333333333333 87.0 L 68.66666666666667 86.0 L 68.0 85.0 L 67.33333333333333 84.0 L 66.66666666666667 83.0 L 66.33333333333333 82.0 L 66.0 81.0 L 66.0 80.0 L 66.33333333333333 79.0 L 66.66666666666667 78.0 L 67.0 77.0 L 66.66666666666667 76.0 L 66.0 75.0 L 65.0 74.33333333333333 L 64.0 74.0 L 63.0 74.33333333333333 L 62.0 75.0 L 61.0 76.0 L 60.0 77.0 L 59.0 78.0 L 58.0 79.0 L 57.0 80.0 L 56.333333333333336 81.0 L 56.0 82.0 L 56.0 83.0 L 56.0 84.0 L 56.0 85.0 L 56.0 86.0 L 56.333333333333336 87.0 L 56.666666666666664 88.0 L 57.0 89.0 L 57.0 90.0 L 57.333333333333336 91.0 L 57.666666666666664 92.0 L 58.0 93.0 L 58.0 94.0 L 58.333333333333336 95.0 L 58.666666666666664 96.0 L 59.0 97.0 L 59.0 98.0 L 58.666666666666664 99.0 L 58.0 100.0 L 57.0 100.66666666666667 L 56.0 101.0 L 55.0 100.66666666666667 L 54.0 100.0 L 53.0 99.0 L 52.333333333333336 98.0 L 52.0 97.0 L 51.666666666666664 96.0 L 51.333333333333336 95.0 L 51.0 94.0 L 51.0 93.0 L 50.666666666666664 92.0 L 50.333333333333336 91.0 L 50.0 90.0 L 50.0 89.0 L 49.666666666666664 88.0 L 49.333333333333336 87.0 L 49.0 86.0 L 49.0 85.0 L 49.0 84.0 L 49.0 83.0 L 49.0 82.0 L 49.0 81.0 L 49.333333333333336 80.0 L 50.0 79.0 L 50.666666666666664 78.0 L 51.333333333333336 77.0 L 52.0 76.0 L 53.0 75.0 L 54.0 74.0 L 55.0 73.0 L 55.666666666666664 72.0 L 56.333333333333336 71.0 L 57.0 70.0 L 58.0 69.33333333333333 L 58.666666666666664 68.66666666666667 L 58.666666666666664 68.0 L 58.0 67.0 L 57.0 66.0 L 56.0 65.33333333333333 L 55.0 64.66666666666667 L 54.0 64.0 L 53.0 63.333333333333336 L 52.0 63.0 L 51.0 63.333333333333336 L 50.0 63.666666666666664 L 49.0 64.0 L 48.0 64.33333333333333 L 47.0 64.66666666666667 L 46.0 65.0 L 45.0 65.33333333333333 L 44.0 65.66666666666667 L 43.0 66.0 L 42.0 66.0 L 41.0 66.0 L 40.0 66.0 L 39.0 66.0 L 38.0 65.66666666666667 L 37.0 65.0 L 36.666666666666664 64.0 L 37.0 63.0 L 38.0 62.333333333333336 L 39.0 61.666666666666664 L 40.0 61.333333333333336 L 41.0 61.0 L 42.0 60.666666666666664 L 43.0 60.333333333333336 L 44.0 60.0 L 45.0 60.0 L 46.0 59.666666666666664 L 46.666666666666664 59.0 L 46.666666666666664 58.0 L 46.0 57.0 L 45.0 56.0 L 44.0 55.0 L 43.0 54.0 L 42.0 53.0 L 41.0 52.0 L 40.0 51.0 L 39.0 50.0 L 38.0 49.0 L 37.0 48.333333333333336 L 36.0 47.666666666666664 L 35.0 47.0 L 34.0 46.0 L 33.0 45.0 L 32.0 44.0 L 31.0 43.0 L 30.0 42.0 L 29.0 41.0 L 28.0 40.333333333333336 L 27.0 40.0 L 26.0 40.333333333333336 L 25.0 41.0 L 24.333333333333332 42.0 L 23.666666666666668 43.0 L 23.333333333333332 44.0 L 22.666666666666668 45.0 L 22.333333333333332 46.0 L 22.0 47.0 L 21.666666666666668 48.0 L 21.333333333333332 49.0 L 21.0 50.0 L 20.666666666666668 51.0 L 20.333333333333332 52.0 L 20.0 53.0 L 20.0 54.0 L 19.666666666666668 55.0 L 19.333333333333332 56.0 L 19.0 57.0 L 19.0 58.0 L 19.0 59.0 L 19.0 60.0 L 19.0 61.0 L 19.0 62.0 L 18.666666666666668 63.0 L 18.333333333333332 64.0 L 18.0 65.0 L 18.0 66.0 L 18.0 67.0 L 18.0 68.0 L 18.0 69.0 L 18.0 70.0 L 18.0 71.0 L 18.0 72.0 L 18.0 73.0 L 18.333333333333332 74.0 L 18.666666666666668 75.0 L 19.0 76.0 L 19.0 77.0 L 19.333333333333332 78.0 L 19.666666666666668 79.0 L 20.0 80.0 L 20.0 81.0 L 20.333333333333332 82.0 L 20.666666666666668 83.0 L 21.333333333333332 84.0 L 21.666666666666668 85.0 L 22.333333333333332 86.0 L 22.666666666666668 87.0 L 23.333333333333332 88.0 L 23.666666666666668 89.0 L 24.333333333333332 90.0 L 24.666666666666668 91.0 L 25.333333333333332 92.0 L 26.0 93.0 L 27.0 94.0 L 27.666666666666668 95.0 L 28.333333333333332 96.0 L 29.0 97.0 L 30.0 98.0 L 31.0 99.0 L 32.0 100.0 L 32.5 100.5 Z" stroke="none" fill="rgb(65,64,66)" />
<path d="M 39.5 66.0 L 40.0 66.0 L 41.0 66.0 L 42.0 66.0 L 43.0 66.0 L 44.0 66.0 L 45.0 65.66666666666667 L 46.0 65.33333333333333 L 47.0 65.0 L 48.0 64.66666666666667 L 49.0 64.33333333333333 L 50.0 64.0 L 50.666666666666664 63.666666666666664 L 51.0 63.0 L 50.666666666666664 62.0 L 50.0 61.0 L 49.0 60.0 L 48.0 59.333333333333336 L 47.0 59.0 L 46.0 59.333333333333336 L 45.0 59.666666666666664 L 44.0 60.0 L 43.0 60.0 L 42.0 60.333333333333336 L 41.0 60.666666666666664 L 40.0 61.0 L 39.0 61.333333333333336 L 38.0 61.666666666666664 L 37.0 62.333333333333336 L 36.333333333333336 63.0 L 36.0 64.0 L 36.333333333333336 65.0 L 37.0 65.66666666666667 L 38.0 66.0 L 38.5 66.0 Z" stroke="none" fill="rgb(250,250,250)" />
<path d="M 59.0 99.5 L 59.0 99.0 L 59.0 98.0 L 59.0 97.0 L 59.0 96.0 L 58.666666666666664 95.0 L 58.333333333333336 94.0 L 58.0 93.0 L 58.0 92.0 L 57.666666666666664 91.0 L 57.333333333333336 90.0 L 57.0 89.0 L 57.0 88.0 L 56.666666666666664 87.0 L 56.333333333333336 86.0 L 56.0 85.0 L 56.0 84.0 L 56.0 83.0 L 56.333333333333336 82.0 L 57.0 81.0 L 58.0 80.0 L 59.0 79.0 L 60.0 78.0 L 61.0 77.0 L 62.0 76.0 L 63.0 75.0 L 63.666666666666664 74.0 L 63.666666666666664 73.0 L 63.0 72.0 L 62.0 71.0 L 61.0 70.0 L 60.0 69.33333333333333 L 59.0 69.0 L 58.0 69.0 L 57.0 69.33333333333333 L 56.333333333333336 70.0 L 55.666666666666664 71.0 L 55.0 72.0 L 54.0 73.0 L 53.0 74.0 L 52.0 75.0 L 51.333333333333336 76.0 L 50.666666666666664 77.0 L 50.0 78.0 L 49.333333333333336 79.0 L 49.0 80.0 L 49.0 81.0 L 49.0 82.0 L 49.0 83.0 L 49.0 84.0 L 49.0 85.0 L 49.0 86.0 L 49.0 87.0 L 49.333333333333336 88.0 L 49.666666666666664 89.0 L 50.0 90.0 L 50.0 91.0 L 50.333333333333336 92.0 L 50.666666666666664 93.0 L 51.0 94.0 L 51.0 95.0 L 51.333333333333336 96.0 L 51.666666666666664 97.0 L 52.0 98.0 L 52.333333333333336 99.0 L 53.0 100.0 L 54.0 100.66666666666667 L 55.0 101.0 L 56.0 101.0 L 57.0 101.0 L 58.0 100.66666666666667 L 58.5 100.5 Z" stroke="none" fill="rgb(250,250,250)" />
<path d="M 75.5 96.5 L 75.66666666666667 97.0 L 76.33333333333333 98.0 L 77.0 99.0 L 78.0 100.0 L 79.0 101.0 L 80.0 101.66666666666667 L 81.0 102.0 L 82.0 102.0 L 83.0 101.66666666666667 L 83.66666666666667 101.0 L 84.0 100.0 L 84.0 99.0 L 84.0 98.0 L 84.0 97.0 L 83.66666666666667 96.0 L 83.33333333333333 95.0 L 82.66666666666667 94.0 L 82.0 93.0 L 81.33333333333333 92.0 L 81.0 91.0 L 80.66666666666667 90.0 L 80.0 89.0 L 79.0 88.0 L 78.0 87.0 L 77.0 86.0 L 76.0 85.0 L 75.0 84.0 L 74.0 83.0 L 73.0 82.0 L 72.0 81.0 L 71.0 80.0 L 70.0 79.0 L 69.0 78.0 L 68.0 77.33333333333333 L 67.0 77.33333333333333 L 66.33333333333333 78.0 L 66.0 79.0 L 66.0 80.0 L 66.0 81.0 L 66.0 82.0 L 66.33333333333333 83.0 L 66.66666666666667 84.0 L 67.33333333333333 85.0 L 68.0 86.0 L 68.66666666666667 87.0 L 69.33333333333333 88.0 L 70.0 89.0 L 70.66666666666667 90.0 L 71.33333333333333 91.0 L 72.0 92.0 L 72.66666666666667 93.0 L 73.33333333333333 94.0 L 74.0 95.0 L 74.5 95.5 Z" stroke="none" fill="rgb(250,250,250)" />
</svg>
