<?xml version="1.0" encoding="UTF-8" standalone="no"?>
<!DOCTYPE svg PUBLIC "-//W3C//DTD SVG 1.1//EN"
"http://www.w3.org/Graphics/SVG/1.1/DTD/svg11.dtd">
<svg width="128" height="128" xmlns="http://www.w3.org/2000/svg" version="1.1">
<path d="M 88.5 128.0 L 89.0 128.0 L 90.0 128.0 L 91.0 128.0 L 92.0 128.0 L 93.0 128.0 L 94.0 128.0 L 95.0 128.0 L 96.0 128.0 L 97.0 128.0 L 98.0 128.0 L 99.0 128.0 L 100.0 128.0 L 101.0 128.0 L 102.0 128.0 L 103.0 128.0 L 104.0 128.0 L 105.0 128.0 L 106.0 128.0 L 107.0 128.0 L 108.0 128.0 L 109.0 128.0 L 110.0 128.0 L 111.0 128.0 L 112.0 128.0 L 113.0 128.0 L 114.0 128.0 L 115.0 128.0 L 116.0 128.0 L 117.0 128.0 L 118.0 128.0 L 119.0 128.0 L 120.0 128.0 L 121.0 128.0 L 122.0 128.0 L 123.0 128.0 L 124.0 128.0 L 125.0 128.0 L 126.0 128.0 L 127.0 128.0 L 127.66666666666667 127.66666666666667 L 128.0 127.0 L 128.0 126.0 L 128.0 125.0 L 128.0 124.0 L 128.0 123.0 L 128.0 122.0 L 128.0 121.0 L 128.0 120.0 L 128.0 119.0 L 128.0 118.0 L 128.0 117.0 L 128.0 116.0 L 128.0 115.0 L 128.0 114.0 L 128.0 113.0 L 128.0 112.0 L 128.0 111.0 L 128.0 110.0 L 128.0 109.0 L 128.0 108.0 L 128.0 107.0 L 128.0 106.0 L 128.0 105.0 L 128.0 104.0 L 128.0 103.0 L 128.0 102.0 L 128.0 101.0 L 128.0 100.0 L 128.0 99.0 L 128.0 98.0 L 128.0 97.0 L 128.0 96.0 L 128.0 95.0 L 128.0 94.0 L 128.0 93.0 L 128.0 92.0 L 128.0 91.0 L 128.0 90.0 L 128.0 89.0 L 128.0 88.0 L 128.0 87.0 L 128.0 86.0 L 128.0 85.0 L 128.0 84.0 L 128.0 83.0 L 128.0 82.0 L 128.0 81.0 L 128.0 80.0 L 128.0 79.0 L 128.0 78.0 L 128.0 77.0 L 128.0 76.0 L 128.0 75.0 L 128.0 74.0 L 128.0 73.0 L 128.0 72.0 L 128.0 71.0 L 128.0 70.0 L 128.0 69.0 L 128.0 68.0 L 128.0 67.0 L 128.0 66.0 L 128.0 65.0 L 128.0 64.0 L 128.0 63.0 L 128.0 62.0 L 128.0 61.0 L 128.0 60.0 L 128.0 59.0 L 128.0 58.0 L 128.0 57.0 L 128.0 56.0 L 128.0 55.0 L 128.0 54.0 L 128.0 53.0 L 128.0 52.0 L 128.0 51.0 L 128.0 50.0 L 128.0 49.0 L 128.0 48.0 L 128.0 47.0 L 128.0 46.0 L 128.0 45.0 L 128.0 44.0 L 128.0 43.0 L 128.0 42.0 L 128.0 41.0 L 128.0 40.0 L 128.0 39.0 L 128.0 38.0 L 128.0 37.0 L 128.0 36.0 L 128.0 35.0 L 128.0 34.0 L 128.0 33.0 L 128.0 32.0 L 128.0 31.0 L 128.0 30.0 L 128.0 29.0 L 128.0 28.0 L 128.0 27.0 L 128.0 26.0 L 128.0 25.0 L 128.0 24.0 L 128.0 23.0 L 128.0 22.0 L 128.0 21.0 L 128.0 20.0 L 128.0 19.0 L 128.0 18.0 L 128.0 17.0 L 128.0 16.0 L 128.0 15.0 L 128.0 14.0 L 128.0 13.0 L 128.0 12.0 L 128.0 11.0 L 128.0 10.0 L 128.0 9.0 L 128.0 8.0 L 128.0 7.0 L 128.0 6.0 L 128.0 5.0 L 128.0 4.0 L 128.0 3.0 L 128.0 2.0 L 128.0 1.0 L 127.66666666666667 0.3333333333333333 L 127.0 0.0 L 126.0 0.0 L 125.0 0.0 L 124.0 0.0 L 123.0 0.0 L 122.0 0.0 L 121.0 0.0 L 120.0 0.0 L 119.0 0.0 L 118.0 0.0 L 117.0 0.0 L 116.0 0.0 L 115.0 0.0 L 114.0 0.0 L 113.0 0.0 L 112.0 0.0 L 111.0 0.0 L 110.0 0.0 L 109.0 0.0 L 108.0 0.0 L 107.0 0.0 L 106.0 0.0 L 105.0 0.0 L 104.0 0.0 L 103.0 0.0 L 102.0 0.0 L 101.0 0.0 L 100.0 0.0 L 99.0 0.0 L 98.0 0.0 L 97.0 0.0 L 96.0 0.0 L 95.0 0.0 L 94.0 0.0 L 93.0 0.0 L 92.0 0.0 L 91.0 0.0 L 90.0 0.0 L 89.0 0.0 L 88.0 0.0 L 87.0 0.0 L 86.0 0.0 L 85.0 0.0 L 84.0 0.0 L 83.0 0.0 L 82.0 0.0 L 81.0 0.0 L 80.0 0.0 L 79.0 0.0 L 78.0 0.0 L 77.0 0.0 L 76.0 0.0 L 75.0 0.0 L 74.0 0.0 L 73.0 0.0 L 72.0 0.0 L 71.0 0.0 L 70.0 0.0 L 69.0 0.0 L 68.0 0.0 L 67.0 0.0 L 66.0 0.0 L 65.0 0.0 L 64.0 0.0 L 63.0 0.0 L 62.0 0.0 L 61.0 0.0 L 60.0 0.0 L 59.0 0.0 L 58.0 0.0 L 57.0 0.0 L 56.0 0.0 L 55.0 0.0 L 54.0 0.0 L 53.0 0.0 L 52.0 0.0 L 51.0 0.0 L 50.0 0.0 L 49.0 0.0 L 48.0 0.0 L 47.0 0.0 L 46.0 0.0 L 45.0 0.0 L 44.0 0.0 L 43.0 0.0 L 42.0 0.0 L 41.0 0.0 L 40.0 0.0 L 39.0 0.0 L 38.0 0.0 L 37.0 0.0 L 36.0 0.0 L 35.0 0.0 L 34.0 0.0 L 33.0 0.0 L 32.0 0.0 L 31.0 0.0 L 30.0 0.0 L 29.0 0.0 L 28.0 0.0 L 27.0 0.0 L 26.0 0.0 L 25.0 0.0 L 24.0 0.0 L 23.0 0.0 L 22.0 0.0 L 21.0 0.0 L 20.0 0.0 L 19.0 0.0 L 18.0 0.0 L 17.0 0.0 L 16.0 0.0 L 15.0 0.0 L 14.0 0.0 L 13.0 0.0 L 12.0 0.0 L 11.0 0.0 L 10.0 0.0 L 9.0 0.0 L 8.0 0.0 L 7.0 0.0 L 6.0 0.0 L 5.0 0.0 L 4.0 0.0 L 3.0 0.0 L 2.0 0.0 L 1.0 0.0 L 0.3333333333333333 0.3333333333333333 L 0.0 1.0 L 0.0 2.0 L 0.0 3.0 L 0.0 4.0 L 0.0 5.0 L 0.0 6.0 L 0.0 7.0 L 0.0 8.0 L 0.0 9.0 L 0.0 10.0 L 0.0 11.0 L 0.0 12.0 L 0.0 13.0 L 0.0 14.0 L 0.0 15.0 L 0.0 16.0 L 0.0 17.0 L 0.0 18.0 L 0.0 19.0 L 0.0 20.0 L 0.0 21.0 L 0.0 22.0 L 0.0 23.0 L 0.0 24.0 L 0.0 25.0 L 0.0 26.0 L 0.0 27.0 L 0.0 28.0 L 0.0 29.0 L 0.0 30.0 L 0.0 31.0 L 0.0 32.0 L 0.0 33.0 L 0.0 34.0 L 0.0 35.0 L 0.0 36.0 L 0.0 37.0 L 0.0 38.0 L 0.0 39.0 L 0.0 40.0 L 0.0 41.0 L 0.0 42.0 L 0.0 43.0 L 0.0 44.0 L 0.0 45.0 L 0.0 46.0 L 0.0 47.0 L 0.0 48.0 L 0.0 49.0 L 0.0 50.0 L 0.0 51.0 L 0.0 52.0 L 0.0 53.0 L 0.0 54.0 L 0.0 55.0 L 0.0 56.0 L 0.0 57.0 L 0.0 58.0 L 0.0 59.0 L 0.0 60.0 L 0.0 61.0 L 0.0 62.0 L 0.0 63.0 L 0.0 64.0 L 0.0 65.0 L 0.0 66.0 L 0.0 67.0 L 0.0 68.0 L 0.0 69.0 L 0.0 70.0 L 0.0 71.0 L 0.0 72.0 L 0.0 73.0 L 0.0 74.0 L 0.0 75.0 L 0.0 76.0 L 0.0 77.0 L 0.0 78.0 L 0.0 79.0 L 0.0 80.0 L 0.0 81.0 L 0.0 82.0 L 0.0 83.0 L 0.0 84.0 L 0.0 85.0 L 0.0 86.0 L 0.0 87.0 L 0.0 88.0 L 0.0 89.0 L 0.0 90.0 L 0.0 91.0 L 0.0 92.0 L 0.0 93.0 L 0.0 94.0 L 0.0 95.0 L 0.0 96.0 L 0.0 97.0 L 0.0 98.0 L 0.0 99.0 L 0.0 100.0 L 0.0 101.0 L 0.0 102.0 L 0.0 103.0 L 0.0 104.0 L 0.0 105.0 L 0.0 106.0 L 0.0 107.0 L 0.0 108.0 L 0.0 109.0 L 0.0 110.0 L 0.0 111.0 L 0.0 112.0 L 0.0 113.0 L 0.0 114.0 L 0.0 115.0 L 0.0 116.0 L 0.0 117.0 L 0.0 118.0 L 0.0 119.0 L 0.0 120.0 L 0.0 121.0 L 0.0 122.0 L 0.0 123.0 L 0.0 124.0 L 0.0 125.0 L 0.0 126.0 L 0.0 127.0 L 0.3333333333333333 127.66666666666667 L 1.0 128.0 L 2.0 128.0 L 3.0 128.0 L 4.0 128.0 L 5.0 128.0 L 6.0 128.0 L 7.0 128.0 L 8.0 128.0 L 9.0 128.0 L 10.0 128.0 L 11.0 128.0 L 12.0 128.0 L 13.0 128.0 L 14.0 128.0 L 15.0 128.0 L 16.0 128.0 L 17.0 128.0 L 18.0 128.0 L 19.0 128.0 L 20.0 128.0 L 21.0 128.0 L 22.0 128.0 L 23.0 128.0 L 24.0 128.0 L 25.0 128.0 L 26.0 128.0 L 27.0 128.0 L 28.0 128.0 L 29.0 128.0 L 30.0 128.0 L 31.0 128.0 L 32.0 128.0 L 33.0 128.0 L 34.0 128.0 L 35.0 128.0 L 36.0 128.0 L 37.0 128.0 L 38.0 128.0 L 39.0 128.0 L 40.0 128.0 L 41.0 128.0 L 42.0 128.0 L 43.0 128.0 L 44.0 128.0 L 45.0 128.0 L 46.0 128.0 L 47.0 128.0 L 48.0 128.0 L 49.0 128.0 L 50.0 128.0 L 51.0 128.0 L 52.0 128.0 L 53.0 128.0 L 54.0 128.0 L 55.0 128.0 L 56.0 128.0 L 57.0 128.0 L 58.0 128.0 L 59.0 128.0 L 60.0 128.0 L 61.0 128.0 L 62.0 128.0 L 63.0 128.0 L 64.0 128.0 L 65.0 128.0 L 66.0 128.0 L 67.0 128.0 L 68.0 128.0 L 69.0 128.0 L 70.0 128.0 L 71.0 128.0 L 72.0 128.0 L 73.0 128.0 L 74.0 128.0 L 75.0 128.0 L 76.0 128.0 L 77.0 128.0 L 78.0 128.0 L 79.0 128.0 L 80.0 128.0 L 81.0 128.0 L 82.0 128.0 L 83.0 128.0 L 84.0 128.0 L 85.0 128.0 L 86.0 128.0 L 87.0 128.0 L 87.5 128.0 Z" stroke="none" fill="rgb(0,0,0)" />
<path d="M 55.5 6.0 L 56.0 6.333333333333333 L 57.0 6.666666666666667 L 58.0 7.333333333333333 L 59.0 8.0 L 60.0 8.666666666666666 L 61.0 9.333333333333334 L 62.0 10.0 L 63.0 11.0 L 64.0 12.0 L 65.0 12.666666666666666 L 65.66666666666667 12.666666666666666 L 66.0 12.0 L 65.66666666666667 11.0 L 65.33333333333333 10.0 L 64.66666666666667 9.0 L 64.0 8.0 L 63.0 7.333333333333333 L 62.0 6.666666666666667 L 61.0 6.0 L 60.0 5.333333333333333 L 59.0 5.0 L 58.0 4.666666666666667 L 57.0 4.333333333333333 L 56.0 4.0 L 55.0 4.0 L 54.0 4.0 L 53.0 4.0 L 52.0 4.0 L 51.0 4.0 L 50.333333333333336 4.333333333333333 L 50.0 5.0 L 50.333333333333336 5.666666666666667 L 51.0 6.0 L 52.0 6.0 L 53.0 6.0 L 54.0 6.0 L 54.5 6.0 Z" stroke="none" fill="rgb(105,73,62)" />
<path d="M 85.5 31.5 L 85.66666666666667 31.0 L 86.0 30.0 L 86.0 29.0 L 85.66666666666667 28.0 L 85.33333333333333 27.0 L 85.0 26.0 L 84.66666666666667 25.0 L 84.33333333333333 24.0 L 83.66666666666667 23.0 L 83.33333333333333 22.0 L 82.66666666666667 21.0 L 82.33333333333333 20.0 L 81.66666666666667 19.0 L 81.33333333333333 18.0 L 80.66666666666667 17.0 L 80.0 16.0 L 79.33333333333333 15.0 L 79.0 14.0 L 79.33333333333333 13.0 L 80.0 12.0 L 81.0 11.0 L 82.0 10.0 L 83.0 9.0 L 84.0 8.0 L 84.66666666666667 7.0 L 85.0 6.0 L 84.66666666666667 5.333333333333333 L 84.0 5.0 L 83.0 5.0 L 82.0 5.333333333333333 L 81.0 5.666666666666667 L 80.0 6.333333333333333 L 79.0 7.0 L 78.0 7.666666666666667 L 77.0 8.0 L 76.0 8.0 L 75.0 8.333333333333334 L 74.0 9.0 L 73.0 10.0 L 72.33333333333333 11.0 L 72.0 12.0 L 72.0 13.0 L 72.0 14.0 L 72.0 15.0 L 72.0 16.0 L 72.33333333333333 17.0 L 72.66666666666667 18.0 L 73.0 19.0 L 73.33333333333333 20.0 L 73.66666666666667 21.0 L 74.0 22.0 L 74.33333333333333 23.0 L 74.66666666666667 24.0 L 75.0 25.0 L 75.33333333333333 26.0 L 75.33333333333333 27.0 L 75.33333333333333 28.0 L 75.33333333333333 29.0 L 75.66666666666667 30.0 L 76.33333333333333 31.0 L 77.0 32.0 L 77.66666666666667 33.0 L 78.33333333333333 34.0 L 79.0 35.0 L 80.0 35.666666666666664 L 81.0 35.666666666666664 L 82.0 35.0 L 83.0 34.0 L 84.0 33.0 L 84.5 32.5 Z" stroke="none" fill="rgb(255,202,40)" />
<path d="M 39.5 42.5 L 40.0 42.0 L 41.0 41.0 L 42.0 40.0 L 43.0 39.333333333333336 L 44.0 38.666666666666664 L 45.0 38.333333333333336 L 46.0 37.666666666666664 L 47.0 37.333333333333336 L 48.0 37.0 L 49.0 37.333333333333336 L 50.0 38.0 L 51.0 38.666666666666664 L 51.666666666666664 38.666666666666664 L 52.0 38.0 L 52.0 37.0 L 51.666666666666664 36.0 L 51.0 35.0 L 50.0 34.0 L 49.0 33.0 L 48.0 32.0 L 47.0 31.0 L 46.0 30.0 L 45.0 29.0 L 44.333333333333336 28.0 L 44.0 27.0 L 44.0 26.0 L 44.0 25.0 L 44.0 24.0 L 44.0 23.0 L 44.333333333333336 22.0 L 44.666666666666664 21.0 L 45.333333333333336 20.0 L 46.0 19.0 L 47.0 18.0 L 48.0 17.0 L 49.0 16.0 L 50.0 15.333333333333334 L 51.0 15.333333333333334 L 52.0 15.666666666666666 L 53.0 16.0 L 54.0 16.333333333333332 L 55.0 17.0 L 56.0 18.0 L 57.0 19.0 L 58.0 20.0 L 59.0 20.666666666666668 L 60.0 21.0 L 61.0 20.666666666666668 L 62.0 20.666666666666668 L 62.666666666666664 21.0 L 63.0 22.0 L 63.0 23.0 L 63.0 24.0 L 63.0 25.0 L 63.0 26.0 L 63.0 27.0 L 63.0 28.0 L 62.666666666666664 29.0 L 62.333333333333336 30.0 L 61.666666666666664 31.0 L 61.333333333333336 32.0 L 61.0 33.0 L 61.333333333333336 34.0 L 62.0 34.666666666666664 L 63.0 35.0 L 64.0 34.666666666666664 L 64.66666666666667 34.0 L 65.0 33.0 L 65.33333333333333 32.0 L 65.66666666666667 31.0 L 66.0 30.0 L 66.33333333333333 29.0 L 66.66666666666667 28.0 L 67.0 27.0 L 67.0 26.0 L 67.33333333333333 25.0 L 67.66666666666667 24.0 L 68.0 23.0 L 68.0 22.0 L 68.0 21.0 L 68.0 20.0 L 67.66666666666667 19.0 L 67.33333333333333 18.0 L 67.0 17.0 L 67.0 16.0 L 66.66666666666667 15.0 L 66.33333333333333 14.0 L 65.66666666666667 13.0 L 65.0 12.0 L 64.0 11.0 L 63.0 10.0 L 62.0 9.333333333333334 L 61.0 8.666666666666666 L 60.0 8.0 L 59.0 7.333333333333333 L 58.0 6.666666666666667 L 57.0 6.333333333333333 L 56.0 6.0 L 55.0 6.0 L 54.0 6.0 L 53.0 6.0 L 52.0 6.0 L 51.0 6.0 L 50.0 6.333333333333333 L 49.0 6.666666666666667 L 48.0 7.0 L 47.0 7.333333333333333 L 46.0 7.666666666666667 L 45.0 8.333333333333334 L 44.0 9.0 L 43.0 9.666666666666666 L 42.0 10.333333333333334 L 41.333333333333336 11.0 L 40.666666666666664 12.0 L 40.333333333333336 13.0 L 39.666666666666664 14.0 L 39.333333333333336 15.0 L 39.0 16.0 L 38.666666666666664 17.0 L 38.333333333333336 18.0 L 38.0 19.0 L 38.0 20.0 L 38.0 21.0 L 38.0 22.0 L 38.333333333333336 23.0 L 38.666666666666664 24.0 L 39.0 25.0 L 38.666666666666664 26.0 L 38.333333333333336 27.0 L 37.666666666666664 28.0 L 37.0 29.0 L 36.333333333333336 30.0 L 36.0 31.0 L 36.0 32.0 L 35.666666666666664 33.0 L 35.333333333333336 34.0 L 35.0 35.0 L 35.0 36.0 L 35.0 37.0 L 35.0 38.0 L 35.333333333333336 39.0 L 35.666666666666664 40.0 L 36.333333333333336 41.0 L 37.0 42.0 L 38.0 42.666666666666664 L 38.5 43.0 Z" stroke="none" fill="rgb(84,57,48)" />
<path d="M 43.5 10.0 L 43.666666666666664 9.666666666666666 L 44.0 9.0 L 44.0 8.0 L 43.666666666666664 7.333333333333333 L 43.0 7.333333333333333 L 42.333333333333336 8.0 L 42.0 9.0 L 42.333333333333336 9.666666666666666 L 42.5 10.0 Z" stroke="none" fill="rgb(105,73,62)" />
<path d="M 45.5 8.0 L 45.666666666666664 7.666666666666667 L 45.666666666666664 7.333333333333333 L 45.333333333333336 7.333333333333333 L 45.0 7.5 Z" stroke="none" fill="rgb(96,64,53)" />
<path d="M 44.5 9.0 L 44.666666666666664 8.666666666666666 L 44.666666666666664 8.333333333333334 L 44.333333333333336 8.333333333333334 L 44.0 8.5 Z" stroke="none" fill="rgb(96,64,53)" />
<path d="M 53.5 36.0 L 54.0 36.0 L 55.0 36.0 L 56.0 36.0 L 57.0 36.333333333333336 L 58.0 36.666666666666664 L 59.0 37.0 L 59.666666666666664 36.666666666666664 L 60.0 36.0 L 60.0 35.0 L 60.333333333333336 34.0 L 61.0 33.0 L 61.666666666666664 32.0 L 62.333333333333336 31.0 L 62.666666666666664 30.0 L 63.0 29.0 L 63.0 28.0 L 63.0 27.0 L 63.0 26.0 L 63.0 25.0 L 63.0 24.0 L 63.0 23.0 L 63.0 22.0 L 63.0 21.0 L 62.666666666666664 20.333333333333332 L 62.0 20.0 L 61.0 20.333333333333332 L 60.0 20.333333333333332 L 59.0 20.0 L 58.0 19.0 L 57.0 18.0 L 56.0 17.0 L 55.0 16.333333333333332 L 54.0 16.0 L 53.0 15.666666666666666 L 52.0 15.333333333333334 L 51.0 15.0 L 50.0 15.0 L 49.0 15.333333333333334 L 48.0 16.0 L 47.0 17.0 L 46.0 18.0 L 45.333333333333336 19.0 L 44.666666666666664 20.0 L 44.333333333333336 21.0 L 44.0 22.0 L 44.0 23.0 L 44.0 24.0 L 44.0 25.0 L 44.0 26.0 L 44.0 27.0 L 44.0 28.0 L 44.333333333333336 29.0 L 45.0 30.0 L 46.0 31.0 L 47.0 32.0 L 48.0 33.0 L 49.0 34.0 L 50.0 35.0 L 51.0 35.666666666666664 L 52.0 36.0 L 52.5 36.0 Z" stroke="none" fill="rgb(255,202,40)" />
<path d="M 59.5 24.0 L 59.666666666666664 23.666666666666668 L 60.0 23.0 L 60.0 22.0 L 59.666666666666664 21.333333333333332 L 59.0 21.0 L 58.333333333333336 21.333333333333332 L 58.0 22.0 L 58.0 23.0 L 58.333333333333336 23.666666666666668 L 58.5 24.0 Z" stroke="none" fill="rgb(67,66,64)" />
<path d="M 49.5 25.0 L 49.666666666666664 24.666666666666668 L 50.0 24.0 L 49.666666666666664 23.0 L 49.0 22.333333333333332 L 48.0 22.333333333333332 L 47.333333333333336 23.0 L 47.0 24.0 L 47.333333333333336 24.666666666666668 L 48.0 25.0 L 48.5 25.0 Z" stroke="none" fill="rgb(67,66,64)" />
<path d="M 56.5 31.0 L 56.666666666666664 30.666666666666668 L 57.0 30.0 L 56.666666666666664 29.333333333333332 L 56.0 29.0 L 55.0 29.0 L 54.333333333333336 29.333333333333332 L 54.0 30.0 L 54.333333333333336 30.666666666666668 L 55.0 31.0 L 55.5 31.0 Z" stroke="none" fill="rgb(126,93,58)" />
<path d="M 75.5 33.5 L 75.66666666666667 34.0 L 76.33333333333333 35.0 L 77.0 36.0 L 78.0 36.666666666666664 L 79.0 37.0 L 79.66666666666667 36.666666666666664 L 80.0 36.0 L 79.66666666666667 35.0 L 79.0 34.0 L 78.33333333333333 33.0 L 77.66666666666667 32.0 L 77.0 31.0 L 76.33333333333333 30.0 L 75.66666666666667 29.333333333333332 L 75.0 29.0 L 74.33333333333333 29.333333333333332 L 74.0 30.0 L 74.0 31.0 L 74.33333333333333 32.0 L 74.5 32.5 Z" stroke="none" fill="rgb(254,195,30)" />
<path d="M 34.5 35.0 L 35.0 34.666666666666664 L 35.666666666666664 34.0 L 36.0 33.0 L 36.0 32.0 L 36.0 31.0 L 35.666666666666664 30.333333333333332 L 35.0 30.333333333333332 L 34.333333333333336 31.0 L 34.0 32.0 L 34.0 33.0 L 34.0 34.0 L 34.0 34.5 Z" stroke="none" fill="rgb(96,64,53)" />
<path d="M 76.5 39.0 L 77.0 38.666666666666664 L 77.66666666666667 38.0 L 78.0 37.0 L 77.66666666666667 36.0 L 77.0 35.0 L 76.33333333333333 34.0 L 75.66666666666667 33.0 L 75.0 32.0 L 74.33333333333333 31.0 L 73.66666666666667 30.333333333333332 L 73.0 30.0 L 72.0 30.333333333333332 L 71.33333333333333 31.0 L 71.33333333333333 32.0 L 72.0 33.0 L 72.66666666666667 34.0 L 73.33333333333333 35.0 L 74.0 36.0 L 74.66666666666667 37.0 L 75.33333333333333 38.0 L 75.5 38.5 Z" stroke="none" fill="rgb(254,188,17)" />
<path d="M 73.5 41.0 L 74.0 40.666666666666664 L 75.0 40.333333333333336 L 75.66666666666667 39.666666666666664 L 76.0 39.0 L 75.66666666666667 38.0 L 75.33333333333333 37.0 L 74.66666666666667 36.0 L 74.0 35.0 L 73.33333333333333 34.0 L 72.66666666666667 33.0 L 72.0 32.0 L 71.0 31.333333333333332 L 70.0 31.333333333333332 L 69.0 31.666666666666668 L 68.0 32.333333333333336 L 67.33333333333333 33.0 L 67.33333333333333 34.0 L 68.0 35.0 L 69.0 36.0 L 70.0 37.0 L 70.66666666666667 38.0 L 71.33333333333333 39.0 L 72.0 40.0 L 72.5 40.5 Z" stroke="none" fill="rgb(255,181,4)" />
<path d="M 62.0 34.5 L 61.666666666666664 34.0 L 61.0 33.333333333333336 L 60.333333333333336 33.333333333333336 L 60.0 34.0 L 60.333333333333336 34.666666666666664 L 61.0 35.0 L 61.5 35.0 Z" stroke="none" fill="rgb(96,64,53)" />
<path d="M 61.5 40.0 L 62.0 40.0 L 63.0 40.0 L 64.0 40.0 L 65.0 40.0 L 66.0 40.0 L 67.0 39.666666666666664 L 68.0 39.333333333333336 L 69.0 39.0 L 70.0 39.0 L 70.66666666666667 38.666666666666664 L 71.0 38.0 L 70.66666666666667 37.0 L 70.0 36.0 L 69.0 35.0 L 68.0 34.0 L 67.0 33.333333333333336 L 66.0 33.0 L 65.0 33.333333333333336 L 64.0 34.0 L 63.0 34.666666666666664 L 62.0 35.0 L 61.0 35.0 L 60.333333333333336 35.333333333333336 L 60.0 36.0 L 60.0 37.0 L 60.0 38.0 L 60.333333333333336 39.0 L 60.5 39.5 Z" stroke="none" fill="rgb(193,28,0)" />
<path d="M 37.5 45.0 L 37.666666666666664 44.666666666666664 L 38.0 44.0 L 37.666666666666664 43.333333333333336 L 37.0 42.666666666666664 L 36.0 42.0 L 35.0 41.0 L 34.666666666666664 40.0 L 34.666666666666664 39.0 L 35.0 38.0 L 35.0 37.0 L 35.0 36.0 L 34.666666666666664 35.0 L 34.0 34.333333333333336 L 33.0 34.0 L 32.333333333333336 34.333333333333336 L 32.0 35.0 L 32.0 36.0 L 32.0 37.0 L 32.0 38.0 L 32.0 39.0 L 32.0 40.0 L 32.0 41.0 L 32.333333333333336 42.0 L 32.666666666666664 43.0 L 33.333333333333336 44.0 L 34.0 44.666666666666664 L 35.0 45.0 L 36.0 45.0 L 36.5 45.0 Z" stroke="none" fill="rgb(105,73,62)" />
<path d="M 40.5 45.0 L 41.0 45.0 L 42.0 44.666666666666664 L 43.0 44.333333333333336 L 44.0 44.0 L 45.0 44.0 L 46.0 44.0 L 47.0 43.666666666666664 L 48.0 43.333333333333336 L 49.0 43.0 L 50.0 43.0 L 51.0 43.0 L 52.0 42.666666666666664 L 53.0 42.333333333333336 L 53.666666666666664 41.666666666666664 L 53.666666666666664 41.0 L 53.0 40.0 L 52.0 39.0 L 51.0 38.0 L 50.0 37.0 L 49.0 36.333333333333336 L 48.0 36.333333333333336 L 47.0 36.666666666666664 L 46.0 37.333333333333336 L 45.0 37.666666666666664 L 44.0 38.333333333333336 L 43.0 38.666666666666664 L 42.0 39.333333333333336 L 41.0 40.0 L 40.0 41.0 L 39.333333333333336 42.0 L 39.0 43.0 L 39.333333333333336 44.0 L 39.5 44.5 Z" stroke="none" fill="rgb(193,28,0)" />
<path d="M 56.5 40.0 L 57.0 39.666666666666664 L 57.666666666666664 39.0 L 58.0 38.0 L 58.0 37.0 L 57.666666666666664 36.333333333333336 L 57.0 36.0 L 56.0 36.0 L 55.0 36.0 L 54.0 36.0 L 53.0 36.0 L 52.333333333333336 36.333333333333336 L 52.0 37.0 L 52.0 38.0 L 52.0 39.0 L 52.333333333333336 40.0 L 53.0 40.666666666666664 L 54.0 40.666666666666664 L 55.0 40.333333333333336 L 55.5 40.0 Z" stroke="none" fill="rgb(230,151,0)" />
<path d="M 58.5 39.0 L 59.0 39.0 L 59.666666666666664 38.666666666666664 L 60.0 38.0 L 59.666666666666664 37.333333333333336 L 59.0 37.0 L 58.333333333333336 37.333333333333336 L 58.0 38.0 L 58.0 38.5 Z" stroke="none" fill="rgb(255,181,4)" />
<path d="M 34.5 41.5 L 35.0 42.0 L 36.0 42.666666666666664 L 37.0 43.0 L 37.666666666666664 42.666666666666664 L 37.666666666666664 42.0 L 37.0 41.0 L 36.333333333333336 40.0 L 35.666666666666664 39.333333333333336 L 35.0 39.0 L 34.333333333333336 39.333333333333336 L 34.0 40.0 L 34.0 40.5 Z" stroke="none" fill="rgb(96,64,53)" />
<path d="M 54.5 43.5 L 55.0 43.666666666666664 L 56.0 44.0 L 57.0 43.666666666666664 L 58.0 43.333333333333336 L 59.0 43.0 L 60.0 43.333333333333336 L 61.0 43.666666666666664 L 61.666666666666664 43.666666666666664 L 62.0 43.0 L 62.0 42.0 L 62.0 41.0 L 61.666666666666664 40.0 L 61.0 39.333333333333336 L 60.0 39.0 L 59.0 39.0 L 58.0 39.0 L 57.0 39.333333333333336 L 56.0 39.666666666666664 L 55.0 40.0 L 54.333333333333336 40.333333333333336 L 54.0 41.0 L 54.0 42.0 L 54.0 42.5 Z" stroke="none" fill="rgb(254,188,17)" />
<path d="M 72.5 42.0 L 72.66666666666667 41.666666666666664 L 73.0 41.0 L 72.66666666666667 40.0 L 72.0 39.333333333333336 L 71.0 39.0 L 70.0 39.0 L 69.0 39.0 L 68.0 39.0 L 67.0 39.333333333333336 L 66.0 39.666666666666664 L 65.0 40.0 L 64.0 40.0 L 63.0 40.0 L 62.333333333333336 40.333333333333336 L 62.0 41.0 L 62.0 42.0 L 62.0 43.0 L 62.333333333333336 43.666666666666664 L 63.0 43.666666666666664 L 64.0 43.333333333333336 L 65.0 43.0 L 66.0 43.0 L 67.0 43.0 L 68.0 42.666666666666664 L 69.0 42.333333333333336 L 70.0 42.0 L 71.0 42.0 L 71.5 42.0 Z" stroke="none" fill="rgb(207,28,0)" />
<path d="M 42.5 47.5 L 43.0 47.666666666666664 L 44.0 47.666666666666664 L 45.0 47.333333333333336 L 46.0 47.0 L 47.0 47.0 L 48.0 46.666666666666664 L 49.0 46.333333333333336 L 50.0 46.0 L 51.0 46.0 L 52.0 46.0 L 53.0 45.666666666666664 L 54.0 45.333333333333336 L 54.666666666666664 44.666666666666664 L 55.0 44.0 L 54.666666666666664 43.0 L 54.0 42.333333333333336 L 53.0 42.0 L 52.0 42.333333333333336 L 51.0 42.666666666666664 L 50.0 43.0 L 49.0 43.0 L 48.0 43.0 L 47.0 43.333333333333336 L 46.0 43.666666666666664 L 45.0 44.0 L 44.0 44.0 L 43.0 44.0 L 42.0 44.333333333333336 L 41.333333333333336 45.0 L 41.333333333333336 46.0 L 41.5 46.5 Z" stroke="none" fill="rgb(207,28,0)" />
<path d="M 53.5 53.0 L 54.0 53.0 L 55.0 52.666666666666664 L 56.0 52.333333333333336 L 57.0 52.0 L 58.0 52.0 L 59.0 52.0 L 60.0 51.666666666666664 L 61.0 51.333333333333336 L 62.0 51.0 L 63.0 51.0 L 64.0 51.0 L 65.0 51.0 L 66.0 50.666666666666664 L 67.0 50.333333333333336 L 68.0 50.0 L 69.0 50.0 L 69.66666666666667 49.666666666666664 L 70.0 49.0 L 70.0 48.0 L 70.0 47.0 L 70.33333333333333 46.0 L 71.0 45.0 L 71.66666666666667 44.0 L 72.0 43.0 L 71.66666666666667 42.333333333333336 L 71.0 42.0 L 70.0 42.0 L 69.0 42.0 L 68.0 42.333333333333336 L 67.0 42.666666666666664 L 66.0 43.0 L 65.0 43.0 L 64.0 43.0 L 63.0 43.333333333333336 L 62.0 44.0 L 61.0 45.0 L 60.0 45.666666666666664 L 59.0 45.666666666666664 L 58.0 45.0 L 57.0 44.333333333333336 L 56.0 44.0 L 55.0 44.333333333333336 L 54.0 44.666666666666664 L 53.0 45.333333333333336 L 52.0 45.666666666666664 L 51.0 46.0 L 50.0 46.0 L 49.0 46.0 L 48.0 46.333333333333336 L 47.0 46.666666666666664 L 46.0 47.0 L 45.0 47.0 L 44.333333333333336 47.333333333333336 L 44.0 48.0 L 44.333333333333336 49.0 L 45.0 49.666666666666664 L 46.0 50.0 L 47.0 50.333333333333336 L 47.666666666666664 51.0 L 48.333333333333336 52.0 L 49.0 53.0 L 50.0 53.666666666666664 L 51.0 53.666666666666664 L 52.0 53.333333333333336 L 52.5 53.0 Z" stroke="none" fill="rgb(220,28,0)" />
<path d="M 38.5 44.0 L 38.666666666666664 43.666666666666664 L 38.666666666666664 43.333333333333336 L 38.333333333333336 43.333333333333336 L 38.0 43.5 Z" stroke="none" fill="rgb(96,64,53)" />
<path d="M 62.0 44.5 L 61.666666666666664 44.0 L 61.0 43.333333333333336 L 60.0 43.0 L 59.0 43.0 L 58.0 43.0 L 57.333333333333336 43.333333333333336 L 57.0 44.0 L 57.333333333333336 45.0 L 58.0 45.666666666666664 L 59.0 46.0 L 60.0 46.0 L 61.0 45.666666666666664 L 61.5 45.5 Z" stroke="none" fill="rgb(254,195,30)" />
<path d="M 44.5 50.5 L 44.666666666666664 50.0 L 44.666666666666664 49.0 L 44.0 48.0 L 43.0 47.0 L 42.0 46.0 L 41.0 45.0 L 40.0 44.333333333333336 L 39.0 44.0 L 38.0 44.333333333333336 L 37.333333333333336 45.0 L 37.333333333333336 46.0 L 38.0 47.0 L 39.0 48.0 L 40.0 49.0 L 41.0 50.0 L 42.0 50.666666666666664 L 43.0 51.0 L 43.5 51.0 Z" stroke="none" fill="rgb(255,181,4)" />
<path d="M 40.5 54.0 L 41.0 53.666666666666664 L 42.0 53.0 L 42.666666666666664 52.0 L 42.666666666666664 51.0 L 42.0 50.0 L 41.0 49.0 L 40.0 48.0 L 39.0 47.0 L 38.0 46.0 L 37.0 45.333333333333336 L 36.0 45.0 L 35.333333333333336 45.333333333333336 L 34.666666666666664 46.0 L 34.333333333333336 47.0 L 34.0 48.0 L 34.333333333333336 49.0 L 35.0 50.0 L 36.0 51.0 L 37.0 52.0 L 38.0 53.0 L 39.0 53.666666666666664 L 39.5 54.0 Z" stroke="none" fill="rgb(254,188,17)" />
<path d="M 44.5 63.5 L 45.0 64.0 L 46.0 65.0 L 47.0 65.66666666666667 L 47.666666666666664 65.66666666666667 L 48.0 65.0 L 48.0 64.0 L 47.666666666666664 63.0 L 47.0 62.0 L 46.0 61.0 L 45.0 60.0 L 44.0 59.0 L 43.0 58.0 L 42.0 57.0 L 41.333333333333336 56.0 L 40.666666666666664 55.0 L 40.0 54.0 L 39.0 53.0 L 38.0 52.0 L 37.0 51.0 L 36.0 50.0 L 35.0 49.0 L 34.0 48.333333333333336 L 33.0 48.333333333333336 L 32.333333333333336 49.0 L 32.0 50.0 L 32.333333333333336 51.0 L 33.0 52.0 L 34.0 53.0 L 35.0 54.0 L 36.0 55.0 L 37.0 56.0 L 38.0 57.0 L 39.0 58.0 L 40.0 59.0 L 41.0 60.0 L 42.0 61.0 L 43.0 62.0 L 43.5 62.5 Z" stroke="none" fill="rgb(254,195,30)" />
<path d="M 42.5 78.0 L 43.0 78.0 L 43.666666666666664 77.66666666666667 L 44.333333333333336 77.0 L 44.666666666666664 76.0 L 45.0 75.0 L 45.0 74.0 L 45.333333333333336 73.0 L 46.0 72.33333333333333 L 46.666666666666664 71.66666666666667 L 47.333333333333336 71.0 L 47.666666666666664 70.0 L 48.0 69.0 L 48.0 68.0 L 48.0 67.0 L 47.666666666666664 66.0 L 47.0 65.0 L 46.0 64.0 L 45.0 63.0 L 44.0 62.0 L 43.0 61.0 L 42.0 60.0 L 41.0 59.0 L 40.0 58.0 L 39.0 57.0 L 38.0 56.0 L 37.0 55.0 L 36.0 54.0 L 35.0 53.0 L 34.0 52.0 L 33.0 51.0 L 32.0 50.333333333333336 L 31.0 50.333333333333336 L 30.0 51.0 L 29.333333333333332 52.0 L 29.0 53.0 L 29.0 54.0 L 29.0 55.0 L 29.0 56.0 L 29.333333333333332 57.0 L 30.0 58.0 L 31.0 59.0 L 32.0 60.0 L 33.0 60.666666666666664 L 34.0 61.333333333333336 L 35.0 62.0 L 36.0 63.0 L 37.0 63.666666666666664 L 38.0 64.33333333333333 L 39.0 65.0 L 40.0 66.0 L 41.0 67.0 L 42.0 68.0 L 42.666666666666664 69.0 L 42.666666666666664 70.0 L 42.333333333333336 71.0 L 42.0 72.0 L 42.0 73.0 L 42.0 74.0 L 41.666666666666664 75.0 L 41.333333333333336 76.0 L 41.333333333333336 77.0 L 41.5 77.5 Z" stroke="none" fill="rgb(255,202,40)" />
<path d="M 57.5 57.0 L 58.0 56.666666666666664 L 59.0 56.333333333333336 L 60.0 56.0 L 61.0 56.0 L 62.0 56.0 L 63.0 55.666666666666664 L 64.0 55.333333333333336 L 65.0 55.0 L 66.0 55.0 L 67.0 55.0 L 67.66666666666667 54.666666666666664 L 68.33333333333333 54.0 L 68.66666666666667 53.0 L 69.0 52.0 L 69.0 51.0 L 68.66666666666667 50.333333333333336 L 68.0 50.0 L 67.0 50.0 L 66.0 50.333333333333336 L 65.0 50.666666666666664 L 64.0 51.0 L 63.0 51.0 L 62.0 51.0 L 61.0 51.0 L 60.0 51.333333333333336 L 59.0 51.666666666666664 L 58.0 52.0 L 57.0 52.0 L 56.0 52.0 L 55.0 52.333333333333336 L 54.0 52.666666666666664 L 53.0 53.0 L 52.0 53.0 L 51.333333333333336 53.333333333333336 L 51.0 54.0 L 51.0 55.0 L 51.333333333333336 56.0 L 52.0 56.666666666666664 L 53.0 57.0 L 54.0 57.0 L 55.0 57.0 L 56.0 57.0 L 56.5 57.0 Z" stroke="none" fill="rgb(207,28,0)" />
<path d="M 56.5 66.0 L 57.0 66.0 L 58.0 65.66666666666667 L 59.0 65.33333333333333 L 60.0 65.0 L 61.0 65.0 L 62.0 65.0 L 63.0 64.66666666666667 L 64.0 64.33333333333333 L 65.0 64.0 L 66.0 64.0 L 67.0 64.0 L 68.0 63.666666666666664 L 69.0 63.333333333333336 L 70.0 63.0 L 70.66666666666667 62.666666666666664 L 70.66666666666667 62.0 L 70.33333333333333 61.0 L 69.66666666666667 60.0 L 69.33333333333333 59.0 L 68.66666666666667 58.0 L 68.33333333333333 57.0 L 68.0 56.0 L 67.66666666666667 55.333333333333336 L 67.0 55.0 L 66.0 55.0 L 65.0 55.0 L 64.0 55.0 L 63.0 55.333333333333336 L 62.0 55.666666666666664 L 61.0 56.0 L 60.0 56.0 L 59.0 56.0 L 58.0 56.333333333333336 L 57.0 56.666666666666664 L 56.0 57.0 L 55.0 57.0 L 54.0 57.0 L 53.0 57.333333333333336 L 52.333333333333336 58.0 L 52.0 59.0 L 52.0 60.0 L 51.666666666666664 61.0 L 51.333333333333336 62.0 L 51.0 63.0 L 50.666666666666664 64.0 L 50.333333333333336 65.0 L 50.0 66.0 L 50.333333333333336 66.66666666666667 L 51.0 67.0 L 52.0 67.0 L 53.0 66.66666666666667 L 54.0 66.33333333333333 L 55.0 66.0 L 55.5 66.0 Z" stroke="none" fill="rgb(193,28,0)" />
<path d="M 59.5 72.0 L 60.0 72.0 L 61.0 72.0 L 62.0 71.66666666666667 L 63.0 71.33333333333333 L 64.0 71.33333333333333 L 65.0 71.66666666666667 L 66.0 72.0 L 67.0 71.66666666666667 L 68.0 71.0 L 69.0 70.33333333333333 L 70.0 69.66666666666667 L 71.0 69.66666666666667 L 72.0 70.0 L 73.0 70.66666666666667 L 74.0 71.0 L 74.66666666666667 70.66666666666667 L 75.33333333333333 70.0 L 76.0 69.33333333333333 L 77.0 68.66666666666667 L 77.66666666666667 68.0 L 77.66666666666667 67.0 L 77.0 66.33333333333333 L 76.0 65.66666666666667 L 75.0 65.0 L 74.0 64.33333333333333 L 73.0 63.666666666666664 L 72.0 63.333333333333336 L 71.0 63.0 L 70.0 63.0 L 69.0 63.0 L 68.0 63.333333333333336 L 67.0 63.666666666666664 L 66.0 64.0 L 65.0 64.0 L 64.0 64.0 L 63.0 64.33333333333333 L 62.0 64.66666666666667 L 61.0 65.0 L 60.0 65.0 L 59.0 65.0 L 58.0 65.33333333333333 L 57.0 65.66666666666667 L 56.0 66.0 L 55.0 66.0 L 54.0 66.0 L 53.0 66.33333333333333 L 52.0 66.66666666666667 L 51.0 67.0 L 50.333333333333336 67.33333333333333 L 50.0 68.0 L 49.666666666666664 69.0 L 49.333333333333336 70.0 L 49.0 71.0 L 49.333333333333336 72.0 L 50.0 72.66666666666667 L 51.0 73.0 L 52.0 73.0 L 53.0 73.0 L 54.0 73.0 L 55.0 73.0 L 56.0 72.66666666666667 L 57.0 72.33333333333333 L 58.0 72.0 L 58.5 72.0 Z" stroke="none" fill="rgb(207,28,0)" />
<path d="M 106.0 76.5 L 106.33333333333333 76.0 L 106.66666666666667 75.0 L 107.0 74.0 L 107.0 73.0 L 107.0 72.0 L 107.0 71.0 L 106.66666666666667 70.0 L 106.33333333333333 69.0 L 106.0 68.0 L 105.66666666666667 67.0 L 105.0 66.0 L 104.0 65.33333333333333 L 103.0 64.66666666666667 L 102.0 64.33333333333333 L 101.0 64.0 L 100.0 64.0 L 99.0 64.0 L 98.0 64.0 L 97.0 64.0 L 96.0 64.0 L 95.0 64.33333333333333 L 94.33333333333333 65.0 L 94.0 66.0 L 94.33333333333333 67.0 L 95.0 68.0 L 96.0 69.0 L 97.0 70.0 L 98.0 71.0 L 99.0 72.0 L 99.66666666666667 73.0 L 100.33333333333333 74.0 L 101.0 75.0 L 102.0 76.0 L 102.66666666666667 77.0 L 103.33333333333333 77.66666666666667 L 104.0 78.0 L 105.0 77.66666666666667 L 105.5 77.5 Z" stroke="none" fill="rgb(142,32,2)" />
<path d="M 93.5 73.5 L 94.0 74.0 L 95.0 75.0 L 96.0 76.0 L 97.0 77.0 L 97.66666666666667 78.0 L 98.33333333333333 79.0 L 99.0 80.0 L 99.66666666666667 81.0 L 100.33333333333333 82.0 L 100.66666666666667 83.0 L 101.33333333333333 84.0 L 101.66666666666667 85.0 L 102.33333333333333 86.0 L 102.66666666666667 87.0 L 103.0 88.0 L 103.33333333333333 89.0 L 103.66666666666667 90.0 L 104.0 91.0 L 104.33333333333333 91.66666666666667 L 105.0 92.0 L 106.0 92.0 L 107.0 91.66666666666667 L 108.0 91.0 L 108.66666666666667 90.0 L 109.0 89.0 L 108.66666666666667 88.0 L 108.0 87.0 L 107.33333333333333 86.0 L 107.0 85.0 L 106.66666666666667 84.0 L 106.33333333333333 83.0 L 105.66666666666667 82.0 L 105.33333333333333 81.0 L 104.66666666666667 80.33333333333333 L 104.0 79.66666666666667 L 103.33333333333333 79.0 L 103.0 78.0 L 103.0 77.0 L 102.66666666666667 76.0 L 102.0 75.0 L 101.0 74.0 L 100.33333333333333 73.0 L 99.66666666666667 72.0 L 99.0 71.0 L 98.0 70.0 L 97.0 69.0 L 96.0 68.0 L 95.0 67.0 L 94.0 66.33333333333333 L 93.0 66.33333333333333 L 92.33333333333333 67.0 L 92.0 68.0 L 92.0 69.0 L 92.0 70.0 L 92.0 71.0 L 92.33333333333333 72.0 L 92.5 72.5 Z" stroke="none" fill="rgb(152,32,2)" />
<path d="M 59.5 100.5 L 60.0 100.66666666666667 L 61.0 101.33333333333333 L 62.0 102.0 L 63.0 103.0 L 64.0 103.66666666666667 L 65.0 104.0 L 66.0 104.0 L 67.0 104.0 L 68.0 104.0 L 69.0 104.0 L 69.66666666666667 103.66666666666667 L 69.66666666666667 103.0 L 69.0 102.33333333333333 L 68.0 101.66666666666667 L 67.66666666666667 101.0 L 68.0 100.0 L 69.0 99.0 L 70.0 98.66666666666667 L 70.66666666666667 99.0 L 71.0 100.0 L 71.33333333333333 100.66666666666667 L 71.66666666666667 100.66666666666667 L 72.0 100.0 L 72.0 99.0 L 72.0 98.0 L 72.0 97.0 L 72.0 96.0 L 72.0 95.0 L 72.0 94.0 L 72.0 93.0 L 72.0 92.0 L 72.0 91.0 L 71.66666666666667 90.0 L 71.0 89.0 L 70.33333333333333 88.0 L 70.0 87.0 L 70.0 86.0 L 70.0 85.0 L 70.0 84.0 L 69.66666666666667 83.0 L 69.33333333333333 82.0 L 69.33333333333333 81.0 L 69.66666666666667 80.0 L 70.0 79.0 L 70.33333333333333 78.0 L 71.0 77.0 L 72.0 76.0 L 73.0 75.0 L 74.0 74.0 L 75.0 73.33333333333333 L 76.0 73.0 L 77.0 73.0 L 78.0 72.66666666666667 L 79.0 72.66666666666667 L 80.0 73.0 L 81.0 74.0 L 82.0 75.0 L 83.0 76.0 L 84.0 76.66666666666667 L 85.0 77.0 L 86.0 77.0 L 87.0 77.0 L 88.0 76.66666666666667 L 88.66666666666667 76.0 L 89.0 75.0 L 88.66666666666667 74.33333333333333 L 88.0 74.0 L 87.0 73.66666666666667 L 86.66666666666667 73.0 L 86.66666666666667 72.0 L 87.0 71.0 L 87.0 70.0 L 86.66666666666667 69.33333333333333 L 86.0 69.0 L 85.0 68.66666666666667 L 84.0 68.33333333333333 L 83.0 68.0 L 82.0 68.0 L 81.0 68.0 L 80.0 68.0 L 79.0 68.0 L 78.0 68.0 L 77.33333333333333 68.33333333333333 L 77.0 69.0 L 76.66666666666667 70.0 L 76.0 70.66666666666667 L 75.0 71.0 L 74.0 71.0 L 73.0 71.0 L 72.0 71.33333333333333 L 71.0 71.66666666666667 L 70.0 72.33333333333333 L 69.0 73.0 L 68.0 74.0 L 67.33333333333333 75.0 L 67.0 76.0 L 67.0 77.0 L 67.0 78.0 L 67.0 79.0 L 67.0 80.0 L 67.0 81.0 L 67.0 82.0 L 67.0 83.0 L 66.66666666666667 84.0 L 66.0 84.33333333333333 L 65.33333333333333 84.0 L 65.0 83.0 L 64.66666666666667 82.0 L 64.33333333333333 81.0 L 64.0 80.0 L 64.33333333333333 79.0 L 64.66666666666667 78.0 L 65.0 77.0 L 65.0 76.0 L 65.0 75.0 L 65.33333333333333 74.0 L 65.66666666666667 73.0 L 65.66666666666667 72.0 L 65.0 71.33333333333333 L 64.0 71.0 L 63.0 71.0 L 62.0 71.33333333333333 L 61.0 71.66666666666667 L 60.0 72.0 L 59.0 72.0 L 58.0 72.0 L 57.0 72.0 L 56.0 72.33333333333333 L 55.0 72.66666666666667 L 54.0 73.0 L 53.0 73.0 L 52.0 73.0 L 51.0 73.33333333333333 L 50.333333333333336 74.0 L 50.0 75.0 L 50.333333333333336 76.0 L 50.666666666666664 77.0 L 51.333333333333336 78.0 L 51.666666666666664 79.0 L 52.0 80.0 L 52.333333333333336 81.0 L 52.333333333333336 82.0 L 52.333333333333336 83.0 L 52.0 84.0 L 52.0 85.0 L 52.0 86.0 L 51.666666666666664 87.0 L 51.333333333333336 88.0 L 51.0 89.0 L 50.666666666666664 90.0 L 50.333333333333336 91.0 L 49.666666666666664 92.0 L 49.333333333333336 93.0 L 48.666666666666664 94.0 L 48.0 95.0 L 47.333333333333336 96.0 L 46.666666666666664 97.0 L 46.0 98.0 L 45.333333333333336 99.0 L 44.666666666666664 100.0 L 44.0 101.0 L 43.0 102.0 L 42.0 103.0 L 41.0 104.0 L 40.0 104.66666666666667 L 39.0 105.33333333333333 L 38.0 106.0 L 37.333333333333336 107.0 L 37.0 108.0 L 37.333333333333336 108.66666666666667 L 38.0 109.0 L 39.0 109.0 L 40.0 109.0 L 41.0 109.0 L 42.0 109.0 L 43.0 108.66666666666667 L 44.0 108.0 L 45.0 107.0 L 46.0 106.0 L 46.666666666666664 105.0 L 47.333333333333336 104.0 L 48.0 103.0 L 48.666666666666664 102.0 L 49.333333333333336 101.0 L 50.0 100.0 L 51.0 99.0 L 52.0 98.33333333333333 L 53.0 97.66666666666667 L 54.0 97.0 L 55.0 96.33333333333333 L 56.0 96.0 L 57.0 96.33333333333333 L 57.666666666666664 97.0 L 58.0 98.0 L 58.0 99.0 L 58.333333333333336 99.66666666666667 L 58.5 100.0 Z" stroke="none" fill="rgb(220,28,0)" />
<path d="M 70.5 72.5 L 71.0 72.33333333333333 L 72.0 71.66666666666667 L 72.66666666666667 71.0 L 72.66666666666667 70.0 L 72.0 69.33333333333333 L 71.0 69.0 L 70.0 69.33333333333333 L 69.0 69.66666666666667 L 68.0 70.33333333333333 L 67.0 71.0 L 66.0 72.0 L 65.33333333333333 73.0 L 65.0 74.0 L 65.33333333333333 75.0 L 66.0 75.66666666666667 L 67.0 75.66666666666667 L 68.0 75.0 L 69.0 74.0 L 69.5 73.5 Z" stroke="none" fill="rgb(255,181,4)" />
<path d="M 77.0 70.5 L 77.0 70.0 L 76.66666666666667 69.33333333333333 L 76.0 69.0 L 75.33333333333333 69.33333333333333 L 75.0 70.0 L 75.33333333333333 70.66666666666667 L 76.0 71.0 L 76.5 71.0 Z" stroke="none" fill="rgb(237,91,1)" />
<path d="M 87.5 74.0 L 88.0 74.33333333333333 L 89.0 74.66666666666667 L 90.0 75.0 L 90.66666666666667 74.66666666666667 L 91.0 74.0 L 91.0 73.0 L 91.0 72.0 L 90.66666666666667 71.0 L 90.0 70.0 L 89.0 69.33333333333333 L 88.0 69.0 L 87.33333333333333 69.33333333333333 L 87.0 70.0 L 86.66666666666667 71.0 L 86.33333333333333 72.0 L 86.0 73.0 L 86.33333333333333 73.66666666666667 L 86.5 74.0 Z" stroke="none" fill="rgb(254,142,0)" />
<path d="M 100.5 95.0 L 101.0 95.0 L 102.0 94.66666666666667 L 103.0 94.0 L 103.66666666666667 93.0 L 104.0 92.0 L 104.0 91.0 L 104.0 90.0 L 103.66666666666667 89.0 L 103.33333333333333 88.0 L 103.0 87.0 L 102.66666666666667 86.0 L 102.33333333333333 85.0 L 101.66666666666667 84.0 L 101.33333333333333 83.0 L 100.66666666666667 82.0 L 100.33333333333333 81.0 L 99.66666666666667 80.0 L 99.0 79.0 L 98.33333333333333 78.0 L 97.66666666666667 77.0 L 97.0 76.0 L 96.0 75.0 L 95.0 74.0 L 94.0 73.0 L 93.0 72.0 L 92.0 71.33333333333333 L 91.33333333333333 71.33333333333333 L 91.0 72.0 L 91.0 73.0 L 91.0 74.0 L 91.0 75.0 L 91.33333333333333 76.0 L 92.0 77.0 L 92.66666666666667 78.0 L 93.33333333333333 79.0 L 94.0 80.0 L 95.0 81.0 L 95.66666666666667 82.0 L 96.33333333333333 83.0 L 96.66666666666667 84.0 L 97.33333333333333 85.0 L 97.66666666666667 86.0 L 98.33333333333333 87.0 L 98.66666666666667 88.0 L 99.0 89.0 L 99.33333333333333 90.0 L 99.66666666666667 91.0 L 100.0 92.0 L 100.0 93.0 L 100.0 94.0 L 100.0 94.5 Z" stroke="none" fill="rgb(160,32,2)" />
<path d="M 95.5 102.5 L 96.0 102.66666666666667 L 96.66666666666667 102.66666666666667 L 97.0 102.0 L 97.0 101.0 L 97.0 100.0 L 97.0 99.0 L 97.0 98.0 L 97.0 97.0 L 96.66666666666667 96.0 L 96.33333333333333 95.0 L 96.0 94.0 L 96.0 93.0 L 96.0 92.0 L 95.66666666666667 91.0 L 95.33333333333333 90.0 L 95.0 89.0 L 94.66666666666667 88.0 L 94.33333333333333 87.0 L 93.66666666666667 86.0 L 93.33333333333333 85.0 L 92.66666666666667 84.0 L 92.0 83.0 L 91.33333333333333 82.0 L 90.66666666666667 81.0 L 90.0 80.0 L 89.0 79.0 L 88.33333333333333 78.0 L 87.66666666666667 77.33333333333333 L 87.0 77.0 L 86.0 77.0 L 85.0 76.66666666666667 L 84.0 76.0 L 83.0 75.0 L 82.0 74.0 L 81.0 73.0 L 80.0 72.33333333333333 L 79.0 72.0 L 78.0 72.33333333333333 L 77.0 72.66666666666667 L 76.0 73.0 L 75.0 73.0 L 74.0 73.33333333333333 L 73.0 74.0 L 72.0 75.0 L 71.0 76.0 L 70.33333333333333 77.0 L 70.0 78.0 L 70.33333333333333 78.66666666666667 L 71.0 79.0 L 72.0 79.0 L 73.0 79.33333333333333 L 74.0 79.66666666666667 L 75.0 80.0 L 76.0 80.33333333333333 L 77.0 81.0 L 78.0 81.66666666666667 L 79.0 82.33333333333333 L 80.0 83.0 L 81.0 84.0 L 82.0 85.0 L 82.66666666666667 86.0 L 83.33333333333333 86.66666666666667 L 84.0 87.0 L 85.0 87.0 L 86.0 86.66666666666667 L 87.0 86.66666666666667 L 87.66666666666667 87.0 L 88.33333333333333 88.0 L 89.0 89.0 L 89.66666666666667 90.0 L 90.0 91.0 L 90.33333333333333 92.0 L 90.66666666666667 93.0 L 91.33333333333333 94.0 L 92.0 95.0 L 92.66666666666667 96.0 L 93.0 97.0 L 93.33333333333333 98.0 L 93.66666666666667 99.0 L 94.33333333333333 100.0 L 94.66666666666667 101.0 L 95.0 101.5 Z" stroke="none" fill="rgb(177,32,2)" />
<path d="M 65.5 85.5 L 66.0 85.66666666666667 L 66.66666666666667 85.66666666666667 L 67.0 85.0 L 67.0 84.0 L 67.0 83.0 L 67.0 82.0 L 67.0 81.0 L 67.0 80.0 L 67.0 79.0 L 67.0 78.0 L 67.0 77.0 L 66.66666666666667 76.0 L 66.0 75.33333333333333 L 65.33333333333333 75.33333333333333 L 65.0 76.0 L 64.66666666666667 77.0 L 64.33333333333333 78.0 L 64.0 79.0 L 64.0 80.0 L 64.0 81.0 L 64.33333333333333 82.0 L 64.66666666666667 83.0 L 65.0 84.0 L 65.0 84.5 Z" stroke="none" fill="rgb(254,142,0)" />
<path d="M 88.5 79.5 L 89.0 80.0 L 90.0 81.0 L 90.66666666666667 82.0 L 91.33333333333333 83.0 L 92.0 84.0 L 92.66666666666667 85.0 L 93.33333333333333 86.0 L 93.66666666666667 87.0 L 94.33333333333333 88.0 L 94.66666666666667 89.0 L 95.0 90.0 L 95.33333333333333 91.0 L 95.66666666666667 92.0 L 96.0 93.0 L 96.0 94.0 L 96.0 95.0 L 96.33333333333333 96.0 L 96.66666666666667 97.0 L 97.0 98.0 L 97.0 99.0 L 97.0 100.0 L 97.0 101.0 L 97.0 102.0 L 97.0 103.0 L 97.0 104.0 L 97.33333333333333 105.0 L 98.0 105.66666666666667 L 99.0 105.66666666666667 L 99.66666666666667 105.0 L 100.33333333333333 104.0 L 100.66666666666667 103.0 L 101.0 102.0 L 101.0 101.0 L 101.0 100.0 L 101.0 99.0 L 101.0 98.0 L 101.0 97.0 L 101.0 96.0 L 100.66666666666667 95.0 L 100.33333333333333 94.0 L 100.0 93.0 L 100.0 92.0 L 100.0 91.0 L 99.66666666666667 90.0 L 99.33333333333333 89.0 L 99.0 88.0 L 98.66666666666667 87.0 L 98.33333333333333 86.0 L 97.66666666666667 85.0 L 97.33333333333333 84.0 L 96.66666666666667 83.0 L 96.33333333333333 82.0 L 95.66666666666667 81.0 L 95.0 80.0 L 94.0 79.0 L 93.33333333333333 78.0 L 92.66666666666667 77.0 L 92.0 76.0 L 91.0 75.33333333333333 L 90.0 75.0 L 89.0 75.33333333333333 L 88.33333333333333 76.0 L 88.0 77.0 L 88.0 78.0 L 88.0 78.5 Z" stroke="none" fill="rgb(168,32,2)" />
<path d="M 76.5 86.5 L 77.0 86.66666666666667 L 78.0 87.33333333333333 L 79.0 88.0 L 80.0 88.66666666666667 L 81.0 89.0 L 82.0 88.66666666666667 L 82.66666666666667 88.0 L 83.0 87.0 L 83.0 86.0 L 82.66666666666667 85.0 L 82.0 84.0 L 81.0 83.0 L 80.0 82.33333333333333 L 79.0 81.66666666666667 L 78.0 81.0 L 77.0 80.33333333333333 L 76.0 80.0 L 75.0 79.66666666666667 L 74.0 79.33333333333333 L 73.0 79.0 L 72.0 79.0 L 71.0 79.0 L 70.0 79.33333333333333 L 69.33333333333333 80.0 L 69.0 81.0 L 69.0 82.0 L 69.33333333333333 83.0 L 70.0 83.66666666666667 L 71.0 84.0 L 72.0 84.0 L 73.0 84.33333333333333 L 74.0 84.66666666666667 L 75.0 85.33333333333333 L 75.5 85.5 Z" stroke="none" fill="rgb(168,32,2)" />
<path d="M 107.5 87.5 L 108.0 87.66666666666667 L 108.66666666666667 87.66666666666667 L 109.0 87.0 L 109.0 86.0 L 109.0 85.0 L 109.0 84.0 L 109.0 83.0 L 108.66666666666667 82.0 L 108.0 81.0 L 107.0 80.33333333333333 L 106.0 80.0 L 105.33333333333333 80.33333333333333 L 105.0 81.0 L 105.33333333333333 82.0 L 105.66666666666667 83.0 L 106.33333333333333 84.0 L 106.66666666666667 85.0 L 107.0 86.0 L 107.0 86.5 Z" stroke="none" fill="rgb(142,32,2)" />
<path d="M 78.5 109.5 L 79.0 109.0 L 80.0 108.33333333333333 L 81.0 107.66666666666667 L 81.66666666666667 107.0 L 82.33333333333333 106.0 L 82.66666666666667 105.0 L 83.0 104.0 L 83.0 103.0 L 83.33333333333333 102.0 L 84.0 101.0 L 84.66666666666667 100.0 L 85.0 99.0 L 85.0 98.0 L 84.66666666666667 97.0 L 84.0 96.0 L 83.33333333333333 95.0 L 82.66666666666667 94.0 L 82.0 93.0 L 81.33333333333333 92.0 L 81.0 91.0 L 81.0 90.0 L 80.66666666666667 89.0 L 80.0 88.0 L 79.0 87.33333333333333 L 78.0 86.66666666666667 L 77.0 86.0 L 76.0 85.33333333333333 L 75.0 84.66666666666667 L 74.0 84.33333333333333 L 73.0 84.0 L 72.0 84.0 L 71.0 84.0 L 70.33333333333333 84.33333333333333 L 70.0 85.0 L 70.0 86.0 L 70.0 87.0 L 70.0 88.0 L 70.33333333333333 89.0 L 71.0 89.66666666666667 L 72.0 90.0 L 73.0 90.0 L 74.0 90.33333333333333 L 75.0 91.0 L 76.0 92.0 L 76.66666666666667 93.0 L 77.33333333333333 94.0 L 77.66666666666667 95.0 L 78.33333333333333 96.0 L 78.66666666666667 97.0 L 79.0 98.0 L 79.0 99.0 L 79.0 100.0 L 78.66666666666667 101.0 L 78.33333333333333 102.0 L 78.0 103.0 L 77.66666666666667 104.0 L 77.0 105.0 L 76.33333333333333 106.0 L 75.66666666666667 107.0 L 75.0 107.66666666666667 L 74.0 108.33333333333333 L 73.0 109.0 L 72.0 109.66666666666667 L 71.0 110.0 L 70.0 110.33333333333333 L 69.0 110.66666666666667 L 68.0 111.0 L 67.0 111.0 L 66.0 110.66666666666667 L 65.0 110.33333333333333 L 64.0 110.0 L 63.0 110.0 L 62.0 110.0 L 61.333333333333336 110.33333333333333 L 60.666666666666664 111.0 L 60.333333333333336 112.0 L 60.0 113.0 L 60.333333333333336 113.66666666666667 L 61.0 114.33333333333333 L 62.0 114.66666666666667 L 63.0 115.0 L 64.0 115.0 L 65.0 115.0 L 66.0 115.0 L 67.0 115.0 L 68.0 115.0 L 69.0 115.0 L 70.0 115.0 L 71.0 115.33333333333333 L 72.0 115.66666666666667 L 73.0 115.66666666666667 L 73.66666666666667 115.0 L 74.33333333333333 114.0 L 75.0 113.0 L 76.0 112.0 L 77.0 111.0 L 77.5 110.5 Z" stroke="none" fill="rgb(160,32,2)" />
<path d="M 85.5 90.0 L 86.0 89.66666666666667 L 87.0 89.0 L 87.66666666666667 88.0 L 88.0 87.0 L 87.66666666666667 86.33333333333333 L 87.0 86.0 L 86.0 86.33333333333333 L 85.0 86.66666666666667 L 84.0 87.0 L 83.0 87.33333333333333 L 82.0 88.0 L 81.0 89.0 L 80.33333333333333 90.0 L 80.33333333333333 91.0 L 81.0 91.66666666666667 L 82.0 91.66666666666667 L 83.0 91.33333333333333 L 84.0 90.66666666666667 L 84.5 90.5 Z" stroke="none" fill="rgb(255,181,4)" />
<path d="M 85.5 93.5 L 86.0 93.33333333333333 L 87.0 92.66666666666667 L 88.0 92.33333333333333 L 89.0 91.66666666666667 L 89.66666666666667 91.0 L 90.0 90.0 L 89.66666666666667 89.0 L 89.0 88.33333333333333 L 88.0 88.0 L 87.0 88.33333333333333 L 86.0 89.0 L 85.0 89.66666666666667 L 84.0 90.33333333333333 L 83.0 90.66666666666667 L 82.0 91.33333333333333 L 81.33333333333333 92.0 L 81.33333333333333 93.0 L 82.0 93.66666666666667 L 83.0 94.0 L 84.0 94.0 L 84.5 94.0 Z" stroke="none" fill="rgb(254,188,17)" />
<path d="M 78.0 104.5 L 78.0 104.0 L 78.33333333333333 103.0 L 78.66666666666667 102.0 L 79.0 101.0 L 79.0 100.0 L 79.0 99.0 L 79.0 98.0 L 79.0 97.0 L 78.66666666666667 96.0 L 78.33333333333333 95.0 L 77.66666666666667 94.0 L 77.33333333333333 93.0 L 76.66666666666667 92.0 L 76.0 91.0 L 75.0 90.33333333333333 L 74.0 90.0 L 73.0 90.0 L 72.33333333333333 90.33333333333333 L 72.0 91.0 L 72.0 92.0 L 72.0 93.0 L 72.0 94.0 L 72.0 95.0 L 72.0 96.0 L 72.0 97.0 L 72.0 98.0 L 72.0 99.0 L 72.0 100.0 L 72.33333333333333 101.0 L 72.33333333333333 102.0 L 72.0 103.0 L 71.0 103.66666666666667 L 70.0 104.0 L 69.0 104.0 L 68.0 104.0 L 67.0 104.0 L 66.0 104.0 L 65.0 103.66666666666667 L 64.0 103.0 L 63.0 102.0 L 62.0 101.33333333333333 L 61.0 100.66666666666667 L 60.0 100.33333333333333 L 59.0 100.0 L 58.0 100.33333333333333 L 57.0 100.66666666666667 L 56.333333333333336 101.33333333333333 L 56.0 102.0 L 56.333333333333336 103.0 L 56.666666666666664 104.0 L 57.333333333333336 105.0 L 57.666666666666664 106.0 L 58.333333333333336 107.0 L 59.0 108.0 L 60.0 109.0 L 61.0 109.66666666666667 L 62.0 110.0 L 63.0 110.0 L 64.0 110.33333333333333 L 65.0 110.66666666666667 L 66.0 111.0 L 67.0 111.0 L 68.0 111.0 L 69.0 111.0 L 70.0 110.66666666666667 L 71.0 110.33333333333333 L 72.0 110.0 L 73.0 109.66666666666667 L 74.0 109.0 L 75.0 108.33333333333333 L 75.66666666666667 107.66666666666667 L 76.33333333333333 107.0 L 77.0 106.0 L 77.5 105.5 Z" stroke="none" fill="rgb(152,32,2)" />
<path d="M 84.5 97.0 L 85.0 96.66666666666667 L 86.0 96.33333333333333 L 87.0 95.66666666666667 L 88.0 95.33333333333333 L 89.0 94.66666666666667 L 90.0 94.33333333333333 L 90.66666666666667 93.66666666666667 L 91.0 93.0 L 90.66666666666667 92.0 L 90.0 91.33333333333333 L 89.0 91.33333333333333 L 88.0 91.66666666666667 L 87.0 92.33333333333333 L 86.0 92.66666666666667 L 85.0 93.33333333333333 L 84.0 93.66666666666667 L 83.33333333333333 94.33333333333333 L 83.0 95.0 L 83.33333333333333 96.0 L 83.5 96.5 Z" stroke="none" fill="rgb(254,195,30)" />
<path d="M 95.5 116.5 L 96.0 117.0 L 97.0 117.66666666666667 L 98.0 118.0 L 99.0 118.0 L 100.0 117.66666666666667 L 100.66666666666667 117.0 L 101.0 116.0 L 101.0 115.0 L 101.0 114.0 L 101.0 113.0 L 100.66666666666667 112.0 L 100.33333333333333 111.0 L 99.66666666666667 110.0 L 99.33333333333333 109.0 L 98.66666666666667 108.0 L 98.33333333333333 107.0 L 98.0 106.0 L 97.66666666666667 105.0 L 97.33333333333333 104.0 L 96.66666666666667 103.0 L 96.0 102.0 L 95.33333333333333 101.0 L 94.66666666666667 100.0 L 94.33333333333333 99.0 L 93.66666666666667 98.0 L 93.33333333333333 97.0 L 93.0 96.0 L 92.66666666666667 95.0 L 92.0 94.33333333333333 L 91.0 94.0 L 90.0 94.0 L 89.0 94.33333333333333 L 88.0 94.66666666666667 L 87.0 95.33333333333333 L 86.0 95.66666666666667 L 85.33333333333333 96.33333333333333 L 85.0 97.0 L 85.0 98.0 L 85.0 99.0 L 85.33333333333333 100.0 L 86.0 101.0 L 87.0 102.0 L 88.0 103.0 L 88.66666666666667 104.0 L 89.33333333333333 105.0 L 90.0 106.0 L 90.66666666666667 107.0 L 91.0 108.0 L 91.33333333333333 109.0 L 91.66666666666667 110.0 L 92.0 111.0 L 92.33333333333333 112.0 L 92.66666666666667 113.0 L 93.33333333333333 114.0 L 94.0 115.0 L 94.5 115.5 Z" stroke="none" fill="rgb(255,202,40)" />
<path d="M 58.0 100.5 L 58.0 100.0 L 58.333333333333336 99.0 L 58.666666666666664 98.0 L 58.666666666666664 97.0 L 58.0 96.33333333333333 L 57.0 96.0 L 56.0 96.0 L 55.0 96.0 L 54.0 96.33333333333333 L 53.333333333333336 97.0 L 53.0 98.0 L 53.333333333333336 98.66666666666667 L 54.0 99.33333333333333 L 55.0 100.0 L 56.0 100.66666666666667 L 57.0 101.0 L 57.5 101.0 Z" stroke="none" fill="rgb(255,181,4)" />
<path d="M 52.0 104.5 L 52.0 104.0 L 52.0 103.0 L 52.0 102.0 L 52.333333333333336 101.0 L 52.666666666666664 100.0 L 53.0 99.0 L 52.666666666666664 98.33333333333333 L 52.0 98.0 L 51.0 98.33333333333333 L 50.0 99.0 L 49.333333333333336 100.0 L 48.666666666666664 101.0 L 48.0 102.0 L 47.333333333333336 103.0 L 46.666666666666664 104.0 L 46.0 105.0 L 45.0 106.0 L 44.0 107.0 L 43.0 108.0 L 42.0 108.66666666666667 L 41.0 109.0 L 40.0 109.0 L 39.0 109.0 L 38.0 109.0 L 37.0 109.0 L 36.333333333333336 109.33333333333333 L 36.0 110.0 L 36.333333333333336 111.0 L 37.0 112.0 L 37.666666666666664 113.0 L 38.333333333333336 113.66666666666667 L 39.0 114.0 L 40.0 114.0 L 41.0 114.0 L 42.0 114.0 L 43.0 113.66666666666667 L 43.666666666666664 113.0 L 44.333333333333336 112.0 L 45.0 111.33333333333333 L 46.0 111.0 L 47.0 111.0 L 48.0 110.66666666666667 L 48.666666666666664 110.0 L 49.0 109.0 L 49.0 108.0 L 49.333333333333336 107.0 L 50.0 106.0 L 51.0 105.33333333333333 L 51.5 105.0 Z" stroke="none" fill="rgb(254,142,0)" />
<path d="M 68.5 102.5 L 69.0 102.66666666666667 L 70.0 103.0 L 70.66666666666667 102.66666666666667 L 71.0 102.0 L 71.0 101.0 L 71.0 100.0 L 71.0 99.0 L 70.66666666666667 98.33333333333333 L 70.0 98.0 L 69.0 98.33333333333333 L 68.0 99.0 L 67.33333333333333 100.0 L 67.0 101.0 L 67.33333333333333 101.66666666666667 L 67.5 102.0 Z" stroke="none" fill="rgb(254,142,0)" />
<path d="M 52.5 102.0 L 53.0 102.0 L 54.0 101.66666666666667 L 55.0 101.33333333333333 L 55.666666666666664 100.66666666666667 L 55.666666666666664 100.0 L 55.0 99.33333333333333 L 54.0 99.0 L 53.0 99.33333333333333 L 52.333333333333336 100.0 L 52.0 101.0 L 52.0 101.5 Z" stroke="none" fill="rgb(220,28,0)" />
<path d="M 85.5 107.0 L 86.0 107.0 L 86.66666666666667 106.66666666666667 L 87.33333333333333 106.0 L 88.0 105.0 L 88.66666666666667 104.0 L 88.66666666666667 103.0 L 88.0 102.0 L 87.0 101.0 L 86.0 100.33333333333333 L 85.0 100.0 L 84.0 100.33333333333333 L 83.33333333333333 101.0 L 83.0 102.0 L 83.0 103.0 L 82.66666666666667 104.0 L 82.33333333333333 105.0 L 82.0 106.0 L 82.33333333333333 106.66666666666667 L 83.0 107.0 L 84.0 107.0 L 84.5 107.0 Z" stroke="none" fill="rgb(168,32,2)" />
<path d="M 56.5 108.0 L 57.0 108.0 L 57.666666666666664 107.66666666666667 L 58.0 107.0 L 58.0 106.0 L 57.666666666666664 105.0 L 57.333333333333336 104.0 L 56.666666666666664 103.0 L 56.333333333333336 102.0 L 55.666666666666664 101.33333333333333 L 55.0 101.0 L 54.0 101.33333333333333 L 53.0 101.66666666666667 L 52.333333333333336 102.33333333333333 L 52.0 103.0 L 52.0 104.0 L 52.0 105.0 L 52.333333333333336 106.0 L 52.666666666666664 107.0 L 53.333333333333336 108.0 L 54.0 108.66666666666667 L 55.0 108.66666666666667 L 55.5 108.5 Z" stroke="none" fill="rgb(160,32,2)" />
<path d="M 72.5 103.5 L 72.66666666666667 103.0 L 73.0 102.0 L 72.66666666666667 101.33333333333333 L 72.0 101.0 L 71.33333333333333 101.33333333333333 L 70.66666666666667 102.0 L 70.33333333333333 103.0 L 70.33333333333333 103.66666666666667 L 71.0 104.0 L 71.5 104.0 Z" stroke="none" fill="rgb(142,32,2)" />
<path d="M 87.5 108.0 L 88.0 108.0 L 89.0 108.0 L 90.0 108.0 L 90.66666666666667 107.66666666666667 L 91.0 107.0 L 90.66666666666667 106.0 L 90.0 105.0 L 89.0 104.33333333333333 L 88.0 104.33333333333333 L 87.33333333333333 105.0 L 87.0 106.0 L 87.0 107.0 L 87.0 107.5 Z" stroke="none" fill="rgb(177,32,2)" />
<path d="M 52.5 114.0 L 53.0 114.0 L 53.666666666666664 113.66666666666667 L 54.0 113.0 L 54.333333333333336 112.0 L 54.666666666666664 111.0 L 55.0 110.0 L 54.666666666666664 109.0 L 54.0 108.0 L 53.333333333333336 107.0 L 52.666666666666664 106.0 L 52.0 105.33333333333333 L 51.0 105.0 L 50.0 105.33333333333333 L 49.333333333333336 106.0 L 49.0 107.0 L 49.0 108.0 L 49.0 109.0 L 49.333333333333336 110.0 L 49.666666666666664 111.0 L 50.333333333333336 112.0 L 51.0 113.0 L 51.5 113.5 Z" stroke="none" fill="rgb(168,32,2)" />
<path d="M 58.5 118.0 L 58.666666666666664 117.66666666666667 L 59.0 117.0 L 59.333333333333336 116.0 L 59.666666666666664 115.0 L 60.0 114.0 L 60.333333333333336 113.0 L 60.666666666666664 112.0 L 61.0 111.0 L 61.0 110.0 L 60.666666666666664 109.0 L 60.0 108.0 L 59.0 107.33333333333333 L 58.0 107.33333333333333 L 57.0 107.66666666666667 L 56.0 108.0 L 55.333333333333336 108.33333333333333 L 55.0 109.0 L 54.666666666666664 110.0 L 54.333333333333336 111.0 L 54.0 112.0 L 53.666666666666664 113.0 L 53.333333333333336 114.0 L 53.0 115.0 L 53.0 116.0 L 53.0 117.0 L 53.333333333333336 117.66666666666667 L 54.0 118.0 L 55.0 118.0 L 56.0 118.0 L 57.0 118.0 L 57.5 118.0 Z" stroke="none" fill="rgb(240,166,2)" />
<path d="M 36.5 122.5 L 36.666666666666664 122.0 L 37.0 121.0 L 36.666666666666664 120.0 L 36.0 119.0 L 35.333333333333336 118.0 L 34.666666666666664 117.0 L 34.333333333333336 116.0 L 33.666666666666664 115.0 L 33.333333333333336 114.0 L 33.0 113.0 L 33.0 112.0 L 32.666666666666664 111.0 L 32.0 110.0 L 31.0 109.33333333333333 L 30.0 109.0 L 29.0 109.0 L 28.0 109.0 L 27.333333333333332 109.33333333333333 L 27.0 110.0 L 27.0 111.0 L 27.333333333333332 112.0 L 27.666666666666668 113.0 L 28.0 114.0 L 28.333333333333332 115.0 L 28.666666666666668 116.0 L 29.333333333333332 117.0 L 29.666666666666668 118.0 L 30.333333333333332 119.0 L 30.666666666666668 120.0 L 31.333333333333332 121.0 L 31.666666666666668 122.0 L 32.333333333333336 122.66666666666667 L 33.0 123.0 L 34.0 123.0 L 35.0 123.0 L 35.5 123.0 Z" stroke="none" fill="rgb(152,32,2)" />
<path d="M 36.5 113.0 L 37.0 113.0 L 37.666666666666664 112.66666666666667 L 37.666666666666664 112.0 L 37.0 111.0 L 36.0 110.33333333333333 L 35.0 109.66666666666667 L 34.0 109.33333333333333 L 33.0 109.0 L 32.333333333333336 109.33333333333333 L 32.0 110.0 L 32.333333333333336 111.0 L 33.0 111.66666666666667 L 34.0 112.0 L 35.0 112.33333333333333 L 35.5 112.5 Z" stroke="none" fill="rgb(220,28,0)" />
<path d="M 24.5 120.5 L 25.0 120.66666666666667 L 26.0 121.33333333333333 L 27.0 122.0 L 28.0 122.66666666666667 L 29.0 123.0 L 30.0 123.0 L 31.0 123.0 L 31.666666666666668 122.66666666666667 L 32.0 122.0 L 31.666666666666668 121.0 L 31.333333333333332 120.0 L 30.666666666666668 119.0 L 30.333333333333332 118.0 L 29.666666666666668 117.0 L 29.333333333333332 116.0 L 28.666666666666668 115.0 L 28.333333333333332 114.0 L 28.0 113.0 L 27.666666666666668 112.0 L 27.333333333333332 111.0 L 26.666666666666668 110.33333333333333 L 26.0 110.0 L 25.0 110.0 L 24.333333333333332 110.33333333333333 L 23.666666666666668 111.0 L 23.333333333333332 112.0 L 23.0 113.0 L 23.0 114.0 L 23.0 115.0 L 23.0 116.0 L 23.0 117.0 L 23.0 118.0 L 23.333333333333332 119.0 L 23.5 119.5 Z" stroke="none" fill="rgb(142,32,2)" />
<path d="M 46.0 111.5 L 46.0 111.0 L 45.666666666666664 110.33333333333333 L 45.0 110.33333333333333 L 44.333333333333336 111.0 L 44.0 112.0 L 44.333333333333336 112.66666666666667 L 45.0 112.66666666666667 L 45.5 112.5 Z" stroke="none" fill="rgb(220,28,0)" />
<path d="M 43.5 116.5 L 43.666666666666664 117.0 L 44.333333333333336 117.66666666666667 L 45.0 118.0 L 46.0 118.0 L 47.0 117.66666666666667 L 48.0 117.33333333333333 L 49.0 116.66666666666667 L 50.0 116.66666666666667 L 51.0 116.66666666666667 L 52.0 117.0 L 52.666666666666664 116.66666666666667 L 53.0 116.0 L 53.0 115.0 L 52.666666666666664 114.0 L 52.0 113.0 L 51.0 112.0 L 50.333333333333336 111.0 L 49.666666666666664 110.33333333333333 L 49.0 110.0 L 48.0 110.33333333333333 L 47.0 110.66666666666667 L 46.0 111.33333333333333 L 45.0 112.0 L 44.0 112.66666666666667 L 43.0 113.33333333333333 L 42.333333333333336 114.0 L 42.333333333333336 115.0 L 42.5 115.5 Z" stroke="none" fill="rgb(177,32,2)" />
<path d="M 95.5 123.0 L 96.0 123.33333333333333 L 97.0 123.66666666666667 L 98.0 124.0 L 99.0 124.0 L 100.0 124.0 L 101.0 124.0 L 102.0 124.0 L 103.0 124.0 L 104.0 124.0 L 105.0 124.0 L 106.0 124.0 L 106.66666666666667 123.66666666666667 L 107.0 123.0 L 107.0 122.0 L 106.66666666666667 121.0 L 106.0 120.0 L 105.33333333333333 119.0 L 104.66666666666667 118.0 L 104.0 117.0 L 103.0 116.33333333333333 L 102.0 116.0 L 101.0 116.33333333333333 L 100.0 117.0 L 99.0 117.66666666666667 L 98.0 117.66666666666667 L 97.0 117.0 L 96.0 116.0 L 95.0 115.0 L 94.0 114.0 L 93.33333333333333 113.0 L 92.66666666666667 112.0 L 92.0 111.33333333333333 L 91.0 111.0 L 90.33333333333333 111.33333333333333 L 90.0 112.0 L 90.0 113.0 L 90.0 114.0 L 90.0 115.0 L 90.0 116.0 L 90.0 117.0 L 90.33333333333333 118.0 L 90.66666666666667 119.0 L 91.0 120.0 L 91.33333333333333 120.66666666666667 L 92.0 121.0 L 93.0 121.33333333333333 L 94.0 122.0 L 94.5 122.5 Z" stroke="none" fill="rgb(222,45,0)" />
<path d="M 40.5 121.0 L 40.666666666666664 120.66666666666667 L 41.0 120.0 L 40.666666666666664 119.0 L 40.0 118.0 L 39.333333333333336 117.0 L 38.666666666666664 116.0 L 38.333333333333336 115.0 L 38.0 114.0 L 37.666666666666664 113.33333333333333 L 37.0 112.66666666666667 L 36.0 112.33333333333333 L 35.0 112.0 L 34.0 112.0 L 33.333333333333336 112.33333333333333 L 33.0 113.0 L 33.0 114.0 L 33.333333333333336 115.0 L 33.666666666666664 116.0 L 34.333333333333336 117.0 L 34.666666666666664 118.0 L 35.333333333333336 119.0 L 36.0 120.0 L 36.666666666666664 121.0 L 37.333333333333336 121.66666666666667 L 38.0 122.0 L 39.0 121.66666666666667 L 39.5 121.5 Z" stroke="none" fill="rgb(160,32,2)" />
<path d="M 43.5 119.5 L 43.666666666666664 119.0 L 44.0 118.0 L 44.0 117.0 L 43.666666666666664 116.0 L 43.0 115.0 L 42.0 114.33333333333333 L 41.0 114.0 L 40.0 114.0 L 39.0 114.0 L 38.333333333333336 114.33333333333333 L 38.0 115.0 L 38.333333333333336 116.0 L 38.666666666666664 117.0 L 39.333333333333336 118.0 L 40.0 119.0 L 41.0 119.66666666666667 L 42.0 120.0 L 42.5 120.0 Z" stroke="none" fill="rgb(168,32,2)" />
<path d="M 69.5 118.0 L 70.0 118.0 L 71.0 117.66666666666667 L 71.66666666666667 117.0 L 72.0 116.0 L 71.66666666666667 115.33333333333333 L 71.0 115.0 L 70.0 115.0 L 69.0 115.0 L 68.0 115.0 L 67.0 115.0 L 66.0 115.0 L 65.0 115.0 L 64.0 115.0 L 63.0 114.66666666666667 L 62.0 114.33333333333333 L 61.0 114.0 L 60.0 114.33333333333333 L 59.333333333333336 115.0 L 59.0 116.0 L 59.0 117.0 L 59.333333333333336 118.0 L 60.0 118.66666666666667 L 61.0 119.0 L 62.0 119.0 L 63.0 119.0 L 64.0 119.0 L 65.0 119.0 L 66.0 119.0 L 67.0 119.0 L 68.0 118.66666666666667 L 68.5 118.5 Z" stroke="none" fill="rgb(168,32,2)" />
<path d="M 56.5 124.0 L 57.0 124.0 L 58.0 124.0 L 59.0 124.0 L 60.0 124.0 L 60.666666666666664 123.66666666666667 L 61.0 123.0 L 61.0 122.0 L 61.0 121.0 L 61.0 120.0 L 60.666666666666664 119.0 L 60.0 118.33333333333333 L 59.0 118.0 L 58.0 118.0 L 57.0 118.0 L 56.0 118.0 L 55.0 118.0 L 54.0 117.66666666666667 L 53.0 117.33333333333333 L 52.0 117.0 L 51.0 117.33333333333333 L 50.333333333333336 118.0 L 50.0 119.0 L 50.0 120.0 L 50.0 121.0 L 50.0 122.0 L 50.0 123.0 L 50.333333333333336 123.66666666666667 L 51.0 124.0 L 52.0 124.0 L 53.0 124.0 L 54.0 124.0 L 55.0 124.0 L 55.5 124.0 Z" stroke="none" fill="rgb(180,19,1)" />
</svg>
