<?xml version="1.0" encoding="UTF-8" standalone="no"?>
<!DOCTYPE svg PUBLIC "-//W3C//DTD SVG 1.1//EN"
"http://www.w3.org/Graphics/SVG/1.1/DTD/svg11.dtd">
<svg width="128" height="128" xmlns="http://www.w3.org/2000/svg" version="1.1">
<path d="M 26.5 128.0 L 27.0 128.0 L 28.0 128.0 L 29.0 128.0 L 30.0 128.0 L 31.0 128.0 L 32.0 128.0 L 33.0 128.0 L 34.0 128.0 L 35.0 128.0 L 36.0 128.0 L 37.0 128.0 L 38.0 128.0 L 39.0 128.0 L 40.0 128.0 L 41.0 128.0 L 42.0 128.0 L 43.0 128.0 L 44.0 128.0 L 45.0 128.0 L 46.0 128.0 L 47.0 128.0 L 48.0 128.0 L 49.0 128.0 L 50.0 128.0 L 51.0 128.0 L 52.0 128.0 L 53.0 128.0 L 54.0 128.0 L 55.0 128.0 L 56.0 128.0 L 57.0 128.0 L 58.0 128.0 L 59.0 128.0 L 60.0 128.0 L 61.0 128.0 L 62.0 128.0 L 63.0 128.0 L 64.0 128.0 L 65.0 128.0 L 66.0 128.0 L 67.0 128.0 L 68.0 128.0 L 69.0 128.0 L 70.0 128.0 L 71.0 128.0 L 72.0 128.0 L 73.0 128.0 L 74.0 128.0 L 75.0 128.0 L 76.0 128.0 L 77.0 128.0 L 78.0 128.0 L 79.0 128.0 L 80.0 128.0 L 81.0 128.0 L 82.0 128.0 L 83.0 128.0 L 84.0 128.0 L 85.0 128.0 L 86.0 128.0 L 87.0 128.0 L 88.0 128.0 L 89.0 128.0 L 90.0 128.0 L 91.0 128.0 L 92.0 128.0 L 93.0 128.0 L 94.0 128.0 L 95.0 128.0 L 96.0 128.0 L 97.0 128.0 L 98.0 128.0 L 99.0 128.0 L 100.0 128.0 L 101.0 128.0 L 102.0 128.0 L 103.0 128.0 L 104.0 128.0 L 105.0 128.0 L 106.0 128.0 L 107.0 128.0 L 108.0 128.0 L 109.0 128.0 L 110.0 128.0 L 111.0 128.0 L 112.0 128.0 L 113.0 128.0 L 114.0 128.0 L 115.0 128.0 L 116.0 128.0 L 117.0 128.0 L 118.0 128.0 L 119.0 128.0 L 120.0 128.0 L 121.0 128.0 L 122.0 128.0 L 123.0 128.0 L 124.0 128.0 L 125.0 128.0 L 126.0 128.0 L 127.0 128.0 L 127.66666666666667 127.66666666666667 L 128.0 127.0 L 128.0 126.0 L 128.0 125.0 L 128.0 124.0 L 128.0 123.0 L 128.0 122.0 L 128.0 121.0 L 128.0 120.0 L 128.0 119.0 L 128.0 118.0 L 128.0 117.0 L 128.0 116.0 L 128.0 115.0 L 128.0 114.0 L 128.0 113.0 L 128.0 112.0 L 128.0 111.0 L 128.0 110.0 L 128.0 109.0 L 128.0 108.0 L 128.0 107.0 L 128.0 106.0 L 128.0 105.0 L 128.0 104.0 L 128.0 103.0 L 128.0 102.0 L 128.0 101.0 L 128.0 100.0 L 128.0 99.0 L 128.0 98.0 L 128.0 97.0 L 128.0 96.0 L 128.0 95.0 L 128.0 94.0 L 128.0 93.0 L 128.0 92.0 L 128.0 91.0 L 128.0 90.0 L 128.0 89.0 L 128.0 88.0 L 128.0 87.0 L 128.0 86.0 L 128.0 85.0 L 128.0 84.0 L 128.0 83.0 L 128.0 82.0 L 128.0 81.0 L 128.0 80.0 L 128.0 79.0 L 128.0 78.0 L 128.0 77.0 L 128.0 76.0 L 128.0 75.0 L 128.0 74.0 L 128.0 73.0 L 128.0 72.0 L 128.0 71.0 L 128.0 70.0 L 128.0 69.0 L 128.0 68.0 L 128.0 67.0 L 128.0 66.0 L 128.0 65.0 L 128.0 64.0 L 128.0 63.0 L 128.0 62.0 L 128.0 61.0 L 128.0 60.0 L 128.0 59.0 L 128.0 58.0 L 128.0 57.0 L 128.0 56.0 L 128.0 55.0 L 128.0 54.0 L 128.0 53.0 L 128.0 52.0 L 128.0 51.0 L 128.0 50.0 L 128.0 49.0 L 128.0 48.0 L 128.0 47.0 L 128.0 46.0 L 128.0 45.0 L 128.0 44.0 L 128.0 43.0 L 128.0 42.0 L 128.0 41.0 L 128.0 40.0 L 128.0 39.0 L 128.0 38.0 L 128.0 37.0 L 128.0 36.0 L 128.0 35.0 L 128.0 34.0 L 128.0 33.0 L 128.0 32.0 L 128.0 31.0 L 128.0 30.0 L 128.0 29.0 L 128.0 28.0 L 128.0 27.0 L 128.0 26.0 L 128.0 25.0 L 128.0 24.0 L 128.0 23.0 L 128.0 22.0 L 128.0 21.0 L 128.0 20.0 L 128.0 19.0 L 128.0 18.0 L 128.0 17.0 L 128.0 16.0 L 128.0 15.0 L 128.0 14.0 L 128.0 13.0 L 128.0 12.0 L 128.0 11.0 L 128.0 10.0 L 128.0 9.0 L 128.0 8.0 L 128.0 7.0 L 128.0 6.0 L 128.0 5.0 L 128.0 4.0 L 128.0 3.0 L 128.0 2.0 L 128.0 1.0 L 127.66666666666667 0.3333333333333333 L 127.0 0.0 L 126.0 0.0 L 125.0 0.0 L 124.0 0.0 L 123.0 0.0 L 122.0 0.0 L 121.0 0.0 L 120.0 0.0 L 119.0 0.0 L 118.0 0.0 L 117.0 0.0 L 116.0 0.0 L 115.0 0.0 L 114.0 0.0 L 113.0 0.0 L 112.0 0.0 L 111.0 0.0 L 110.0 0.0 L 109.0 0.0 L 108.0 0.0 L 107.0 0.0 L 106.0 0.0 L 105.0 0.0 L 104.0 0.0 L 103.0 0.0 L 102.0 0.0 L 101.0 0.0 L 100.0 0.0 L 99.0 0.0 L 98.0 0.0 L 97.0 0.0 L 96.0 0.0 L 95.0 0.0 L 94.0 0.0 L 93.0 0.0 L 92.0 0.0 L 91.0 0.0 L 90.0 0.0 L 89.0 0.0 L 88.0 0.0 L 87.0 0.0 L 86.0 0.0 L 85.0 0.0 L 84.0 0.0 L 83.0 0.0 L 82.0 0.0 L 81.0 0.0 L 80.0 0.0 L 79.0 0.0 L 78.0 0.0 L 77.0 0.0 L 76.0 0.0 L 75.0 0.0 L 74.0 0.0 L 73.0 0.0 L 72.0 0.0 L 71.0 0.0 L 70.0 0.0 L 69.0 0.0 L 68.0 0.0 L 67.0 0.0 L 66.0 0.0 L 65.0 0.0 L 64.0 0.0 L 63.0 0.0 L 62.0 0.0 L 61.0 0.0 L 60.0 0.0 L 59.0 0.0 L 58.0 0.0 L 57.0 0.0 L 56.0 0.0 L 55.0 0.0 L 54.0 0.0 L 53.0 0.0 L 52.0 0.0 L 51.0 0.0 L 50.0 0.0 L 49.0 0.0 L 48.0 0.0 L 47.0 0.0 L 46.0 0.0 L 45.0 0.0 L 44.0 0.0 L 43.0 0.0 L 42.0 0.0 L 41.0 0.0 L 40.0 0.0 L 39.0 0.0 L 38.0 0.0 L 37.0 0.0 L 36.0 0.0 L 35.0 0.0 L 34.0 0.0 L 33.0 0.0 L 32.0 0.0 L 31.0 0.0 L 30.0 0.0 L 29.0 0.0 L 28.0 0.0 L 27.0 0.0 L 26.0 0.0 L 25.0 0.0 L 24.0 0.0 L 23.0 0.0 L 22.0 0.0 L 21.0 0.0 L 20.0 0.0 L 19.0 0.0 L 18.0 0.0 L 17.0 0.0 L 16.0 0.0 L 15.0 0.0 L 14.0 0.0 L 13.0 0.0 L 12.0 0.0 L 11.0 0.0 L 10.0 0.0 L 9.0 0.0 L 8.0 0.0 L 7.0 0.0 L 6.0 0.0 L 5.0 0.0 L 4.0 0.0 L 3.0 0.0 L 2.0 0.0 L 1.0 0.0 L 0.3333333333333333 0.3333333333333333 L 0.0 1.0 L 0.0 2.0 L 0.0 3.0 L 0.0 4.0 L 0.0 5.0 L 0.0 6.0 L 0.0 7.0 L 0.0 8.0 L 0.0 9.0 L 0.0 10.0 L 0.0 11.0 L 0.0 12.0 L 0.0 13.0 L 0.0 14.0 L 0.0 15.0 L 0.0 16.0 L 0.0 17.0 L 0.0 18.0 L 0.0 19.0 L 0.0 20.0 L 0.0 21.0 L 0.0 22.0 L 0.0 23.0 L 0.0 24.0 L 0.0 25.0 L 0.0 26.0 L 0.0 27.0 L 0.0 28.0 L 0.0 29.0 L 0.0 30.0 L 0.0 31.0 L 0.0 32.0 L 0.0 33.0 L 0.0 34.0 L 0.0 35.0 L 0.0 36.0 L 0.0 37.0 L 0.0 38.0 L 0.0 39.0 L 0.0 40.0 L 0.0 41.0 L 0.0 42.0 L 0.0 43.0 L 0.0 44.0 L 0.0 45.0 L 0.0 46.0 L 0.0 47.0 L 0.0 48.0 L 0.0 49.0 L 0.0 50.0 L 0.0 51.0 L 0.0 52.0 L 0.0 53.0 L 0.0 54.0 L 0.0 55.0 L 0.0 56.0 L 0.0 57.0 L 0.0 58.0 L 0.0 59.0 L 0.0 60.0 L 0.0 61.0 L 0.0 62.0 L 0.0 63.0 L 0.0 64.0 L 0.0 65.0 L 0.0 66.0 L 0.0 67.0 L 0.0 68.0 L 0.0 69.0 L 0.0 70.0 L 0.0 71.0 L 0.0 72.0 L 0.0 73.0 L 0.0 74.0 L 0.0 75.0 L 0.0 76.0 L 0.0 77.0 L 0.0 78.0 L 0.0 79.0 L 0.0 80.0 L 0.0 81.0 L 0.0 82.0 L 0.0 83.0 L 0.0 84.0 L 0.0 85.0 L 0.0 86.0 L 0.0 87.0 L 0.0 88.0 L 0.0 89.0 L 0.0 90.0 L 0.0 91.0 L 0.0 92.0 L 0.0 93.0 L 0.0 94.0 L 0.0 95.0 L 0.0 96.0 L 0.0 97.0 L 0.0 98.0 L 0.0 99.0 L 0.0 100.0 L 0.0 101.0 L 0.0 102.0 L 0.0 103.0 L 0.0 104.0 L 0.0 105.0 L 0.0 106.0 L 0.0 107.0 L 0.0 108.0 L 0.0 109.0 L 0.0 110.0 L 0.0 111.0 L 0.0 112.0 L 0.0 113.0 L 0.0 114.0 L 0.0 115.0 L 0.0 116.0 L 0.0 117.0 L 0.0 118.0 L 0.0 119.0 L 0.0 120.0 L 0.0 121.0 L 0.0 122.0 L 0.0 123.0 L 0.0 124.0 L 0.0 125.0 L 0.0 126.0 L 0.0 127.0 L 0.3333333333333333 127.66666666666667 L 1.0 128.0 L 2.0 128.0 L 3.0 128.0 L 4.0 128.0 L 5.0 128.0 L 6.0 128.0 L 7.0 128.0 L 8.0 128.0 L 9.0 128.0 L 10.0 128.0 L 11.0 128.0 L 12.0 128.0 L 13.0 128.0 L 14.0 128.0 L 15.0 128.0 L 16.0 128.0 L 17.0 128.0 L 18.0 128.0 L 19.0 128.0 L 20.0 128.0 L 21.0 128.0 L 22.0 128.0 L 23.0 128.0 L 24.0 128.0 L 25.0 128.0 L 25.5 128.0 Z" stroke="none" fill="rgb(0,0,0)" />
<path d="M 68.5 103.0 L 69.0 103.0 L 70.0 103.0 L 71.0 103.0 L 72.0 103.0 L 73.0 103.0 L 74.0 103.0 L 75.0 103.0 L 76.0 103.0 L 77.0 102.66666666666667 L 78.0 102.33333333333333 L 79.0 102.0 L 80.0 102.0 L 81.0 102.0 L 82.0 101.66666666666667 L 83.0 101.33333333333333 L 84.0 101.0 L 85.0 100.66666666666667 L 86.0 100.33333333333333 L 87.0 100.0 L 88.0 99.66666666666667 L 89.0 99.33333333333333 L 90.0 99.0 L 91.0 98.66666666666667 L 92.0 98.33333333333333 L 93.0 97.66666666666667 L 94.0 97.33333333333333 L 95.0 96.66666666666667 L 96.0 96.0 L 97.0 95.33333333333333 L 98.0 94.66666666666667 L 99.0 94.0 L 100.0 93.33333333333333 L 101.0 92.66666666666667 L 102.0 92.0 L 103.0 91.0 L 104.0 90.33333333333333 L 105.0 89.66666666666667 L 106.0 89.0 L 107.0 88.0 L 108.0 87.0 L 109.0 86.0 L 110.0 85.0 L 111.0 84.0 L 112.0 83.0 L 113.0 82.33333333333333 L 114.0 81.66666666666667 L 115.0 81.0 L 116.0 80.0 L 117.0 79.0 L 118.0 78.33333333333333 L 119.0 77.66666666666667 L 120.0 77.0 L 121.0 76.33333333333333 L 122.0 75.66666666666667 L 123.0 75.0 L 123.66666666666667 74.0 L 124.0 73.0 L 124.33333333333333 72.0 L 124.66666666666667 71.0 L 124.66666666666667 70.0 L 124.33333333333333 69.0 L 124.0 68.0 L 123.66666666666667 67.0 L 123.33333333333333 66.0 L 122.66666666666667 65.0 L 122.33333333333333 64.0 L 121.66666666666667 63.0 L 121.0 62.0 L 120.0 61.0 L 119.33333333333333 60.0 L 118.66666666666667 59.0 L 118.0 58.0 L 117.33333333333333 57.0 L 116.66666666666667 56.0 L 116.0 55.0 L 115.0 54.0 L 114.33333333333333 53.0 L 113.66666666666667 52.0 L 113.0 51.0 L 112.0 50.0 L 111.0 49.0 L 110.33333333333333 48.0 L 109.66666666666667 47.0 L 109.0 46.0 L 108.0 45.0 L 107.0 44.0 L 106.0 43.0 L 105.0 42.0 L 104.0 41.0 L 103.0 40.0 L 102.0 39.0 L 101.0 38.0 L 100.0 37.0 L 99.0 36.0 L 98.0 35.0 L 97.0 34.333333333333336 L 96.0 33.666666666666664 L 95.0 33.0 L 94.0 32.0 L 93.0 31.333333333333332 L 92.0 30.666666666666668 L 91.0 30.333333333333332 L 90.0 29.666666666666668 L 89.0 29.333333333333332 L 88.0 28.666666666666668 L 87.0 28.333333333333332 L 86.0 28.0 L 85.0 27.666666666666668 L 84.0 27.333333333333332 L 83.0 27.0 L 82.0 27.0 L 81.0 27.0 L 80.0 27.0 L 79.0 27.0 L 78.0 27.0 L 77.0 27.0 L 76.0 27.0 L 75.0 27.0 L 74.0 27.0 L 73.0 27.0 L 72.0 27.333333333333332 L 71.0 27.666666666666668 L 70.0 28.0 L 69.0 28.333333333333332 L 68.0 28.666666666666668 L 67.0 29.333333333333332 L 66.0 29.666666666666668 L 65.0 30.333333333333332 L 64.0 30.333333333333332 L 63.0 30.333333333333332 L 62.0 29.666666666666668 L 61.0 29.333333333333332 L 60.0 28.666666666666668 L 59.0 28.333333333333332 L 58.0 28.0 L 57.0 27.666666666666668 L 56.0 27.333333333333332 L 55.0 27.0 L 54.0 27.0 L 53.0 27.0 L 52.0 27.0 L 51.0 27.0 L 50.0 27.0 L 49.0 27.0 L 48.0 27.0 L 47.0 27.0 L 46.0 27.0 L 45.0 27.0 L 44.0 27.333333333333332 L 43.0 27.666666666666668 L 42.0 28.0 L 41.0 28.333333333333332 L 40.0 28.666666666666668 L 39.0 29.333333333333332 L 38.0 29.666666666666668 L 37.0 30.333333333333332 L 36.0 30.666666666666668 L 35.0 31.333333333333332 L 34.0 32.0 L 33.0 33.0 L 32.0 33.666666666666664 L 31.0 34.333333333333336 L 30.0 35.0 L 29.0 36.0 L 28.0 37.0 L 27.0 38.0 L 26.0 39.0 L 25.0 40.0 L 24.0 41.0 L 23.0 42.0 L 22.0 43.0 L 21.0 44.0 L 20.0 45.0 L 19.0 46.0 L 18.333333333333332 47.0 L 17.666666666666668 48.0 L 17.0 49.0 L 16.0 50.0 L 15.0 51.0 L 14.333333333333334 52.0 L 13.666666666666666 53.0 L 13.0 54.0 L 12.0 55.0 L 11.333333333333334 56.0 L 10.666666666666666 57.0 L 10.0 58.0 L 9.333333333333334 59.0 L 8.666666666666666 60.0 L 8.0 61.0 L 7.0 62.0 L 6.333333333333333 63.0 L 5.666666666666667 64.0 L 5.333333333333333 65.0 L 4.666666666666667 66.0 L 4.333333333333333 67.0 L 4.0 68.0 L 4.0 69.0 L 4.0 70.0 L 4.0 71.0 L 4.0 72.0 L 4.0 73.0 L 4.333333333333333 74.0 L 5.0 75.0 L 6.0 75.66666666666667 L 7.0 76.33333333333333 L 8.0 77.0 L 9.0 77.66666666666667 L 10.0 78.33333333333333 L 11.0 79.0 L 12.0 80.0 L 13.0 81.0 L 14.0 81.66666666666667 L 15.0 82.33333333333333 L 16.0 83.0 L 17.0 84.0 L 18.0 85.0 L 19.0 86.0 L 20.0 87.0 L 21.0 88.0 L 22.0 89.0 L 23.0 89.66666666666667 L 24.0 90.33333333333333 L 25.0 91.0 L 26.0 92.0 L 27.0 92.66666666666667 L 28.0 93.33333333333333 L 29.0 94.0 L 30.0 94.66666666666667 L 31.0 95.33333333333333 L 32.0 96.0 L 33.0 96.66666666666667 L 34.0 97.33333333333333 L 35.0 97.66666666666667 L 36.0 98.33333333333333 L 37.0 98.66666666666667 L 38.0 99.0 L 39.0 99.33333333333333 L 40.0 99.66666666666667 L 41.0 100.0 L 42.0 100.33333333333333 L 43.0 100.66666666666667 L 44.0 101.0 L 45.0 101.33333333333333 L 46.0 101.66666666666667 L 47.0 102.0 L 48.0 102.0 L 49.0 102.0 L 50.0 102.33333333333333 L 51.0 102.66666666666667 L 52.0 103.0 L 53.0 103.0 L 54.0 103.0 L 55.0 103.0 L 56.0 103.0 L 57.0 103.0 L 58.0 103.0 L 59.0 103.0 L 60.0 103.0 L 61.0 103.0 L 62.0 103.0 L 63.0 103.0 L 64.0 103.0 L 65.0 103.0 L 66.0 103.0 L 67.0 103.0 L 67.5 103.0 Z" stroke="none" fill="rgb(239,77,143)" />
<path d="M 53.5 50.0 L 54.0 50.0 L 55.0 50.0 L 56.0 49.666666666666664 L 57.0 49.333333333333336 L 58.0 49.0 L 59.0 49.0 L 60.0 49.0 L 61.0 49.0 L 62.0 49.0 L 63.0 49.0 L 64.0 49.0 L 65.0 49.0 L 66.0 49.0 L 67.0 49.0 L 68.0 49.0 L 69.0 49.0 L 70.0 49.0 L 71.0 49.0 L 72.0 49.0 L 73.0 49.0 L 74.0 49.0 L 75.0 49.333333333333336 L 76.0 49.666666666666664 L 77.0 50.0 L 78.0 50.0 L 79.0 50.0 L 80.0 50.333333333333336 L 81.0 50.666666666666664 L 82.0 51.0 L 83.0 51.0 L 84.0 51.0 L 84.66666666666667 50.666666666666664 L 84.66666666666667 50.0 L 84.0 49.333333333333336 L 83.0 48.666666666666664 L 82.0 48.333333333333336 L 81.0 48.0 L 80.0 47.666666666666664 L 79.0 47.333333333333336 L 78.0 47.0 L 77.0 47.0 L 76.0 46.666666666666664 L 75.0 46.333333333333336 L 74.0 46.0 L 73.0 46.0 L 72.0 46.0 L 71.0 46.0 L 70.0 46.0 L 69.0 46.0 L 68.0 46.0 L 67.0 46.0 L 66.0 46.0 L 65.0 46.0 L 64.0 46.0 L 63.0 46.0 L 62.0 46.0 L 61.0 46.0 L 60.0 46.0 L 59.0 46.0 L 58.0 46.0 L 57.0 46.0 L 56.0 46.0 L 55.0 46.333333333333336 L 54.0 46.666666666666664 L 53.0 47.0 L 52.0 47.0 L 51.0 47.333333333333336 L 50.0 47.666666666666664 L 49.0 48.0 L 48.0 48.333333333333336 L 47.0 48.666666666666664 L 46.0 49.0 L 45.333333333333336 49.333333333333336 L 45.0 50.0 L 45.333333333333336 50.666666666666664 L 46.0 51.0 L 47.0 51.0 L 48.0 51.0 L 49.0 50.666666666666664 L 50.0 50.333333333333336 L 51.0 50.0 L 52.0 50.0 L 52.5 50.0 Z" stroke="none" fill="rgb(190,189,189)" />
<path d="M 57.5 59.0 L 58.0 59.0 L 59.0 59.0 L 60.0 59.0 L 61.0 59.0 L 62.0 59.0 L 63.0 59.0 L 64.0 59.0 L 65.0 59.0 L 66.0 59.0 L 67.0 59.0 L 68.0 59.0 L 69.0 59.0 L 70.0 59.0 L 71.0 59.0 L 72.0 59.0 L 73.0 59.0 L 74.0 59.0 L 75.0 59.0 L 76.0 59.0 L 77.0 59.0 L 78.0 59.0 L 79.0 59.0 L 80.0 59.0 L 81.0 59.0 L 82.0 58.666666666666664 L 83.0 58.333333333333336 L 84.0 58.0 L 85.0 58.0 L 86.0 58.0 L 87.0 58.0 L 88.0 57.666666666666664 L 89.0 57.333333333333336 L 90.0 57.0 L 91.0 57.0 L 92.0 56.666666666666664 L 92.66666666666667 56.0 L 92.66666666666667 55.0 L 92.0 54.0 L 91.0 53.333333333333336 L 90.0 52.666666666666664 L 89.0 52.333333333333336 L 88.0 52.0 L 87.0 51.666666666666664 L 86.0 51.333333333333336 L 85.0 51.0 L 84.0 51.0 L 83.0 51.0 L 82.0 50.666666666666664 L 81.0 50.333333333333336 L 80.0 50.0 L 79.0 50.0 L 78.0 50.0 L 77.0 49.666666666666664 L 76.0 49.333333333333336 L 75.0 49.0 L 74.0 49.0 L 73.0 49.0 L 72.0 49.0 L 71.0 49.0 L 70.0 49.0 L 69.0 49.0 L 68.0 49.0 L 67.0 49.0 L 66.0 49.0 L 65.0 49.0 L 64.0 49.0 L 63.0 49.0 L 62.0 49.0 L 61.0 49.0 L 60.0 49.0 L 59.0 49.0 L 58.0 49.0 L 57.0 49.0 L 56.0 49.333333333333336 L 55.0 49.666666666666664 L 54.0 50.0 L 53.0 50.0 L 52.0 50.0 L 51.0 50.0 L 50.0 50.0 L 49.0 50.333333333333336 L 48.0 50.666666666666664 L 47.0 51.0 L 46.0 51.0 L 45.0 51.0 L 44.0 51.333333333333336 L 43.0 51.666666666666664 L 42.0 52.0 L 41.0 52.333333333333336 L 40.0 52.666666666666664 L 39.0 53.0 L 38.0 53.333333333333336 L 37.0 53.666666666666664 L 36.333333333333336 54.333333333333336 L 36.0 55.0 L 36.333333333333336 55.666666666666664 L 37.0 56.0 L 38.0 56.333333333333336 L 39.0 56.666666666666664 L 40.0 57.0 L 41.0 57.0 L 42.0 57.0 L 43.0 57.333333333333336 L 44.0 57.666666666666664 L 45.0 58.0 L 46.0 58.0 L 47.0 58.0 L 48.0 58.0 L 49.0 58.0 L 50.0 58.333333333333336 L 51.0 58.666666666666664 L 52.0 59.0 L 53.0 59.0 L 54.0 59.0 L 55.0 59.0 L 56.0 59.0 L 56.5 59.0 Z" stroke="none" fill="rgb(255,255,255)" />
<path d="M 59.5 78.0 L 60.0 78.0 L 61.0 78.0 L 62.0 78.0 L 63.0 78.0 L 64.0 78.0 L 65.0 78.0 L 66.0 78.0 L 67.0 78.0 L 68.0 78.0 L 69.0 78.0 L 70.0 78.0 L 71.0 78.0 L 72.0 78.0 L 73.0 78.0 L 74.0 78.0 L 75.0 78.0 L 76.0 78.0 L 77.0 78.0 L 78.0 78.0 L 79.0 78.0 L 80.0 78.0 L 81.0 78.0 L 82.0 78.0 L 83.0 78.0 L 84.0 78.0 L 85.0 78.0 L 86.0 78.0 L 87.0 78.0 L 88.0 77.66666666666667 L 89.0 77.33333333333333 L 90.0 77.0 L 91.0 77.0 L 92.0 77.0 L 93.0 76.66666666666667 L 94.0 76.33333333333333 L 95.0 76.0 L 96.0 76.0 L 97.0 76.0 L 98.0 75.66666666666667 L 99.0 75.33333333333333 L 100.0 75.0 L 101.0 75.0 L 102.0 74.66666666666667 L 103.0 74.33333333333333 L 104.0 74.0 L 105.0 73.66666666666667 L 106.0 73.33333333333333 L 107.0 73.0 L 108.0 72.66666666666667 L 109.0 72.33333333333333 L 110.0 71.66666666666667 L 110.66666666666667 71.0 L 111.0 70.0 L 110.66666666666667 69.0 L 110.0 68.0 L 109.0 67.0 L 108.0 66.0 L 107.0 65.0 L 106.0 64.0 L 105.0 63.0 L 104.0 62.0 L 103.0 61.0 L 102.0 60.333333333333336 L 101.0 59.666666666666664 L 100.0 59.0 L 99.0 58.0 L 98.0 57.333333333333336 L 97.0 56.666666666666664 L 96.0 56.333333333333336 L 95.0 56.0 L 94.0 56.0 L 93.0 56.0 L 92.0 56.333333333333336 L 91.0 56.666666666666664 L 90.0 57.0 L 89.0 57.0 L 88.0 57.333333333333336 L 87.0 57.666666666666664 L 86.0 58.0 L 85.0 58.0 L 84.0 58.0 L 83.0 58.0 L 82.0 58.333333333333336 L 81.0 58.666666666666664 L 80.0 59.0 L 79.0 59.0 L 78.0 59.0 L 77.0 59.0 L 76.0 59.0 L 75.0 59.0 L 74.0 59.0 L 73.0 59.0 L 72.0 59.0 L 71.0 59.0 L 70.0 59.0 L 69.0 59.0 L 68.0 59.0 L 67.0 59.0 L 66.0 59.0 L 65.0 59.0 L 64.0 59.0 L 63.0 59.0 L 62.0 59.0 L 61.0 59.0 L 60.0 59.0 L 59.0 59.0 L 58.0 59.0 L 57.0 59.0 L 56.0 59.0 L 55.0 59.0 L 54.0 59.0 L 53.0 59.0 L 52.0 58.666666666666664 L 51.0 58.333333333333336 L 50.0 58.0 L 49.0 58.0 L 48.0 58.0 L 47.0 58.0 L 46.0 58.0 L 45.0 57.666666666666664 L 44.0 57.333333333333336 L 43.0 57.0 L 42.0 57.0 L 41.0 57.0 L 40.0 56.666666666666664 L 39.0 56.333333333333336 L 38.0 56.0 L 37.0 56.0 L 36.0 56.0 L 35.0 56.0 L 34.0 56.0 L 33.0 56.0 L 32.0 56.333333333333336 L 31.0 57.0 L 30.0 57.666666666666664 L 29.0 58.333333333333336 L 28.0 59.0 L 27.0 60.0 L 26.0 60.666666666666664 L 25.0 61.333333333333336 L 24.0 62.0 L 23.0 63.0 L 22.0 64.0 L 21.0 65.0 L 20.0 66.0 L 19.0 67.0 L 18.0 68.0 L 17.333333333333332 69.0 L 17.333333333333332 70.0 L 18.0 71.0 L 19.0 71.66666666666667 L 20.0 72.0 L 21.0 72.33333333333333 L 22.0 72.66666666666667 L 23.0 73.0 L 24.0 73.33333333333333 L 25.0 73.66666666666667 L 26.0 74.0 L 27.0 74.33333333333333 L 28.0 74.66666666666667 L 29.0 75.0 L 30.0 75.0 L 31.0 75.0 L 32.0 75.33333333333333 L 33.0 75.66666666666667 L 34.0 76.0 L 35.0 76.0 L 36.0 76.0 L 37.0 76.33333333333333 L 38.0 76.66666666666667 L 39.0 77.0 L 40.0 77.0 L 41.0 77.0 L 42.0 77.0 L 43.0 77.0 L 44.0 77.0 L 45.0 77.33333333333333 L 46.0 77.66666666666667 L 47.0 78.0 L 48.0 78.0 L 49.0 78.0 L 50.0 78.0 L 51.0 78.0 L 52.0 78.0 L 53.0 78.0 L 54.0 78.0 L 55.0 78.0 L 56.0 78.0 L 57.0 78.0 L 58.0 78.0 L 58.5 78.0 Z" stroke="none" fill="rgb(62,39,35)" />
<path d="M 59.5 90.0 L 60.0 90.0 L 61.0 90.0 L 62.0 90.0 L 63.0 90.0 L 64.0 90.0 L 65.0 90.0 L 66.0 90.0 L 67.0 90.0 L 68.0 90.0 L 69.0 90.0 L 70.0 90.0 L 71.0 90.0 L 72.0 90.0 L 73.0 90.0 L 74.0 90.0 L 75.0 89.66666666666667 L 76.0 89.33333333333333 L 77.0 89.0 L 78.0 88.66666666666667 L 79.0 88.33333333333333 L 80.0 87.66666666666667 L 81.0 87.0 L 81.66666666666667 86.0 L 82.0 85.0 L 82.0 84.0 L 82.0 83.0 L 81.66666666666667 82.33333333333333 L 81.0 82.0 L 80.0 82.0 L 79.0 82.0 L 78.0 82.0 L 77.0 82.0 L 76.0 82.0 L 75.0 82.0 L 74.0 82.0 L 73.0 82.0 L 72.0 82.0 L 71.0 82.0 L 70.0 82.0 L 69.0 82.0 L 68.0 82.0 L 67.0 82.0 L 66.0 82.0 L 65.0 82.0 L 64.0 82.0 L 63.0 82.0 L 62.0 82.0 L 61.0 82.0 L 60.0 82.0 L 59.0 82.0 L 58.0 82.0 L 57.0 82.0 L 56.0 82.0 L 55.0 81.66666666666667 L 54.0 81.33333333333333 L 53.0 81.0 L 52.0 81.0 L 51.0 81.0 L 50.0 81.0 L 49.0 81.0 L 48.0 81.0 L 47.0 81.33333333333333 L 46.333333333333336 82.0 L 46.0 83.0 L 46.0 84.0 L 46.0 85.0 L 46.333333333333336 86.0 L 47.0 86.66666666666667 L 48.0 87.33333333333333 L 49.0 87.66666666666667 L 50.0 88.33333333333333 L 51.0 88.66666666666667 L 52.0 89.0 L 53.0 89.0 L 54.0 89.33333333333333 L 55.0 89.66666666666667 L 56.0 90.0 L 57.0 90.0 L 58.0 90.0 L 58.5 90.0 Z" stroke="none" fill="rgb(255,128,171)" />
</svg>
