<?xml version="1.0" encoding="UTF-8" standalone="no"?>
<!DOCTYPE svg PUBLIC "-//W3C//DTD SVG 1.1//EN"
"http://www.w3.org/Graphics/SVG/1.1/DTD/svg11.dtd">
<svg width="128" height="128" xmlns="http://www.w3.org/2000/svg" version="1.1">
<path d="M 108.5 128.0 L 109.0 128.0 L 110.0 128.0 L 111.0 128.0 L 112.0 128.0 L 113.0 128.0 L 114.0 128.0 L 115.0 128.0 L 116.0 128.0 L 117.0 128.0 L 118.0 128.0 L 119.0 128.0 L 120.0 128.0 L 121.0 128.0 L 122.0 128.0 L 123.0 128.0 L 124.0 128.0 L 125.0 128.0 L 126.0 128.0 L 127.0 128.0 L 127.66666666666667 127.66666666666667 L 128.0 127.0 L 128.0 126.0 L 128.0 125.0 L 128.0 124.0 L 128.0 123.0 L 128.0 122.0 L 128.0 121.0 L 128.0 120.0 L 128.0 119.0 L 128.0 118.0 L 128.0 117.0 L 128.0 116.0 L 128.0 115.0 L 128.0 114.0 L 128.0 113.0 L 128.0 112.0 L 128.0 111.0 L 128.0 110.0 L 128.0 109.0 L 128.0 108.0 L 128.0 107.0 L 128.0 106.0 L 128.0 105.0 L 128.0 104.0 L 128.0 103.0 L 128.0 102.0 L 128.0 101.0 L 128.0 100.0 L 128.0 99.0 L 128.0 98.0 L 128.0 97.0 L 128.0 96.0 L 128.0 95.0 L 128.0 94.0 L 128.0 93.0 L 128.0 92.0 L 128.0 91.0 L 128.0 90.0 L 128.0 89.0 L 128.0 88.0 L 128.0 87.0 L 128.0 86.0 L 128.0 85.0 L 128.0 84.0 L 128.0 83.0 L 128.0 82.0 L 128.0 81.0 L 128.0 80.0 L 128.0 79.0 L 128.0 78.0 L 128.0 77.0 L 128.0 76.0 L 128.0 75.0 L 128.0 74.0 L 128.0 73.0 L 128.0 72.0 L 128.0 71.0 L 128.0 70.0 L 128.0 69.0 L 128.0 68.0 L 128.0 67.0 L 128.0 66.0 L 128.0 65.0 L 128.0 64.0 L 128.0 63.0 L 128.0 62.0 L 128.0 61.0 L 128.0 60.0 L 128.0 59.0 L 128.0 58.0 L 128.0 57.0 L 128.0 56.0 L 128.0 55.0 L 128.0 54.0 L 128.0 53.0 L 128.0 52.0 L 128.0 51.0 L 128.0 50.0 L 128.0 49.0 L 128.0 48.0 L 128.0 47.0 L 128.0 46.0 L 128.0 45.0 L 128.0 44.0 L 128.0 43.0 L 128.0 42.0 L 128.0 41.0 L 128.0 40.0 L 128.0 39.0 L 128.0 38.0 L 128.0 37.0 L 128.0 36.0 L 128.0 35.0 L 128.0 34.0 L 128.0 33.0 L 128.0 32.0 L 128.0 31.0 L 128.0 30.0 L 128.0 29.0 L 128.0 28.0 L 128.0 27.0 L 128.0 26.0 L 128.0 25.0 L 128.0 24.0 L 128.0 23.0 L 128.0 22.0 L 128.0 21.0 L 128.0 20.0 L 128.0 19.0 L 128.0 18.0 L 128.0 17.0 L 128.0 16.0 L 128.0 15.0 L 128.0 14.0 L 128.0 13.0 L 128.0 12.0 L 128.0 11.0 L 128.0 10.0 L 128.0 9.0 L 128.0 8.0 L 128.0 7.0 L 128.0 6.0 L 128.0 5.0 L 128.0 4.0 L 128.0 3.0 L 128.0 2.0 L 128.0 1.0 L 127.66666666666667 0.3333333333333333 L 127.0 0.0 L 126.0 0.0 L 125.0 0.0 L 124.0 0.0 L 123.0 0.0 L 122.0 0.0 L 121.0 0.0 L 120.0 0.0 L 119.0 0.0 L 118.0 0.0 L 117.0 0.0 L 116.0 0.0 L 115.0 0.0 L 114.0 0.0 L 113.0 0.0 L 112.0 0.0 L 111.0 0.0 L 110.0 0.0 L 109.0 0.0 L 108.0 0.0 L 107.0 0.0 L 106.0 0.0 L 105.0 0.0 L 104.0 0.0 L 103.0 0.0 L 102.0 0.0 L 101.0 0.0 L 100.0 0.0 L 99.0 0.0 L 98.0 0.0 L 97.0 0.0 L 96.0 0.0 L 95.0 0.0 L 94.0 0.0 L 93.0 0.0 L 92.0 0.0 L 91.0 0.0 L 90.0 0.0 L 89.0 0.0 L 88.0 0.0 L 87.0 0.0 L 86.0 0.0 L 85.0 0.0 L 84.0 0.0 L 83.0 0.0 L 82.0 0.0 L 81.0 0.0 L 80.0 0.0 L 79.0 0.0 L 78.0 0.0 L 77.0 0.0 L 76.0 0.0 L 75.0 0.0 L 74.0 0.0 L 73.0 0.0 L 72.0 0.0 L 71.0 0.0 L 70.0 0.0 L 69.0 0.0 L 68.0 0.0 L 67.0 0.0 L 66.0 0.0 L 65.0 0.0 L 64.0 0.0 L 63.0 0.0 L 62.0 0.0 L 61.0 0.0 L 60.0 0.0 L 59.0 0.0 L 58.0 0.0 L 57.0 0.0 L 56.0 0.0 L 55.0 0.0 L 54.0 0.0 L 53.0 0.0 L 52.0 0.0 L 51.0 0.0 L 50.0 0.0 L 49.0 0.0 L 48.0 0.0 L 47.0 0.0 L 46.0 0.0 L 45.0 0.0 L 44.0 0.0 L 43.0 0.0 L 42.0 0.0 L 41.0 0.0 L 40.0 0.0 L 39.0 0.0 L 38.0 0.0 L 37.0 0.0 L 36.0 0.0 L 35.0 0.0 L 34.0 0.0 L 33.0 0.0 L 32.0 0.0 L 31.0 0.0 L 30.0 0.0 L 29.0 0.0 L 28.0 0.0 L 27.0 0.0 L 26.0 0.0 L 25.0 0.0 L 24.0 0.0 L 23.0 0.0 L 22.0 0.0 L 21.0 0.0 L 20.0 0.0 L 19.0 0.0 L 18.0 0.0 L 17.0 0.0 L 16.0 0.0 L 15.0 0.0 L 14.0 0.0 L 13.0 0.0 L 12.0 0.0 L 11.0 0.0 L 10.0 0.0 L 9.0 0.0 L 8.0 0.0 L 7.0 0.0 L 6.0 0.0 L 5.0 0.0 L 4.0 0.0 L 3.0 0.0 L 2.0 0.0 L 1.0 0.0 L 0.3333333333333333 0.3333333333333333 L 0.0 1.0 L 0.0 2.0 L 0.0 3.0 L 0.0 4.0 L 0.0 5.0 L 0.0 6.0 L 0.0 7.0 L 0.0 8.0 L 0.0 9.0 L 0.0 10.0 L 0.0 11.0 L 0.0 12.0 L 0.0 13.0 L 0.0 14.0 L 0.0 15.0 L 0.0 16.0 L 0.0 17.0 L 0.0 18.0 L 0.0 19.0 L 0.0 20.0 L 0.0 21.0 L 0.0 22.0 L 0.0 23.0 L 0.0 24.0 L 0.0 25.0 L 0.0 26.0 L 0.0 27.0 L 0.0 28.0 L 0.0 29.0 L 0.0 30.0 L 0.0 31.0 L 0.0 32.0 L 0.0 33.0 L 0.0 34.0 L 0.0 35.0 L 0.0 36.0 L 0.0 37.0 L 0.0 38.0 L 0.0 39.0 L 0.0 40.0 L 0.0 41.0 L 0.0 42.0 L 0.0 43.0 L 0.0 44.0 L 0.0 45.0 L 0.0 46.0 L 0.0 47.0 L 0.0 48.0 L 0.0 49.0 L 0.0 50.0 L 0.0 51.0 L 0.0 52.0 L 0.0 53.0 L 0.0 54.0 L 0.0 55.0 L 0.0 56.0 L 0.0 57.0 L 0.0 58.0 L 0.0 59.0 L 0.0 60.0 L 0.0 61.0 L 0.0 62.0 L 0.0 63.0 L 0.0 64.0 L 0.0 65.0 L 0.0 66.0 L 0.0 67.0 L 0.0 68.0 L 0.0 69.0 L 0.0 70.0 L 0.0 71.0 L 0.0 72.0 L 0.0 73.0 L 0.0 74.0 L 0.0 75.0 L 0.0 76.0 L 0.0 77.0 L 0.0 78.0 L 0.0 79.0 L 0.0 80.0 L 0.0 81.0 L 0.0 82.0 L 0.0 83.0 L 0.0 84.0 L 0.0 85.0 L 0.0 86.0 L 0.0 87.0 L 0.0 88.0 L 0.0 89.0 L 0.0 90.0 L 0.0 91.0 L 0.0 92.0 L 0.0 93.0 L 0.0 94.0 L 0.0 95.0 L 0.0 96.0 L 0.0 97.0 L 0.0 98.0 L 0.0 99.0 L 0.0 100.0 L 0.0 101.0 L 0.0 102.0 L 0.0 103.0 L 0.0 104.0 L 0.0 105.0 L 0.0 106.0 L 0.0 107.0 L 0.0 108.0 L 0.0 109.0 L 0.0 110.0 L 0.0 111.0 L 0.0 112.0 L 0.0 113.0 L 0.0 114.0 L 0.0 115.0 L 0.0 116.0 L 0.0 117.0 L 0.0 118.0 L 0.0 119.0 L 0.0 120.0 L 0.0 121.0 L 0.0 122.0 L 0.0 123.0 L 0.0 124.0 L 0.0 125.0 L 0.0 126.0 L 0.0 127.0 L 0.3333333333333333 127.66666666666667 L 1.0 128.0 L 2.0 128.0 L 3.0 128.0 L 4.0 128.0 L 5.0 128.0 L 6.0 128.0 L 7.0 128.0 L 8.0 128.0 L 9.0 128.0 L 10.0 128.0 L 11.0 128.0 L 12.0 128.0 L 13.0 128.0 L 14.0 128.0 L 15.0 128.0 L 16.0 128.0 L 17.0 128.0 L 18.0 128.0 L 19.0 128.0 L 20.0 128.0 L 21.0 128.0 L 22.0 128.0 L 23.0 128.0 L 24.0 128.0 L 25.0 128.0 L 26.0 128.0 L 27.0 128.0 L 28.0 128.0 L 29.0 128.0 L 30.0 128.0 L 31.0 128.0 L 32.0 128.0 L 33.0 128.0 L 34.0 128.0 L 35.0 128.0 L 36.0 128.0 L 37.0 128.0 L 38.0 128.0 L 39.0 128.0 L 40.0 128.0 L 41.0 128.0 L 42.0 128.0 L 43.0 128.0 L 44.0 128.0 L 45.0 128.0 L 46.0 128.0 L 47.0 128.0 L 48.0 128.0 L 49.0 128.0 L 50.0 128.0 L 51.0 128.0 L 52.0 128.0 L 53.0 128.0 L 54.0 128.0 L 55.0 128.0 L 56.0 128.0 L 57.0 128.0 L 58.0 128.0 L 59.0 128.0 L 60.0 128.0 L 61.0 128.0 L 62.0 128.0 L 63.0 128.0 L 64.0 128.0 L 65.0 128.0 L 66.0 128.0 L 67.0 128.0 L 68.0 128.0 L 69.0 128.0 L 70.0 128.0 L 71.0 128.0 L 72.0 128.0 L 73.0 128.0 L 74.0 128.0 L 75.0 128.0 L 76.0 128.0 L 77.0 128.0 L 78.0 128.0 L 79.0 128.0 L 80.0 128.0 L 81.0 128.0 L 82.0 128.0 L 83.0 128.0 L 84.0 128.0 L 85.0 128.0 L 86.0 128.0 L 87.0 128.0 L 88.0 128.0 L 89.0 128.0 L 90.0 128.0 L 91.0 128.0 L 92.0 128.0 L 93.0 128.0 L 94.0 128.0 L 95.0 128.0 L 96.0 128.0 L 97.0 128.0 L 98.0 128.0 L 99.0 128.0 L 100.0 128.0 L 101.0 128.0 L 102.0 128.0 L 103.0 128.0 L 104.0 128.0 L 105.0 128.0 L 106.0 128.0 L 107.0 128.0 L 107.5 128.0 Z" stroke="none" fill="rgb(255,255,255)" />
<path d="M 59.0 117.5 L 59.0 117.0 L 59.0 116.0 L 59.0 115.0 L 59.0 114.0 L 59.0 113.0 L 59.0 112.0 L 59.0 111.0 L 59.0 110.0 L 59.0 109.0 L 59.0 108.0 L 59.333333333333336 107.0 L 59.666666666666664 106.0 L 60.0 105.0 L 60.0 104.0 L 60.333333333333336 103.0 L 60.666666666666664 102.0 L 61.0 101.0 L 61.0 100.0 L 61.333333333333336 99.0 L 61.666666666666664 98.0 L 62.333333333333336 97.0 L 62.666666666666664 96.0 L 63.333333333333336 95.0 L 63.666666666666664 94.0 L 64.33333333333333 93.0 L 64.66666666666667 92.0 L 65.33333333333333 91.0 L 66.0 90.0 L 67.0 89.0 L 68.0 88.0 L 69.0 87.0 L 70.0 86.0 L 71.0 85.33333333333333 L 72.0 84.66666666666667 L 73.0 84.0 L 74.0 83.0 L 75.0 82.33333333333333 L 76.0 81.66666666666667 L 77.0 81.33333333333333 L 78.0 80.66666666666667 L 79.0 80.33333333333333 L 80.0 79.66666666666667 L 81.0 79.0 L 82.0 78.33333333333333 L 83.0 77.66666666666667 L 84.0 77.0 L 85.0 76.33333333333333 L 86.0 75.66666666666667 L 87.0 75.0 L 88.0 74.0 L 89.0 73.0 L 90.0 72.0 L 91.0 71.0 L 92.0 70.0 L 93.0 69.0 L 94.0 68.0 L 95.0 67.33333333333333 L 95.66666666666667 66.66666666666667 L 96.0 66.0 L 96.33333333333333 65.0 L 96.66666666666667 64.0 L 97.0 63.0 L 96.66666666666667 62.0 L 96.33333333333333 61.0 L 96.0 60.0 L 95.66666666666667 59.0 L 95.33333333333333 58.0 L 95.0 57.0 L 95.0 56.0 L 95.0 55.0 L 94.66666666666667 54.0 L 94.0 53.0 L 93.33333333333333 52.0 L 93.0 51.0 L 93.0 50.0 L 92.66666666666667 49.0 L 92.33333333333333 48.0 L 92.0 47.0 L 92.0 46.0 L 91.66666666666667 45.0 L 91.33333333333333 44.0 L 91.0 43.0 L 91.0 42.0 L 90.66666666666667 41.0 L 90.33333333333333 40.0 L 89.66666666666667 39.0 L 89.0 38.0 L 88.0 37.0 L 87.0 36.333333333333336 L 86.0 36.0 L 85.0 36.0 L 84.0 36.0 L 83.0 36.0 L 82.0 36.0 L 81.0 36.0 L 80.0 36.333333333333336 L 79.0 36.666666666666664 L 78.0 37.0 L 77.0 37.0 L 76.0 37.0 L 75.0 37.0 L 74.0 37.0 L 73.0 37.0 L 72.0 37.0 L 71.0 37.0 L 70.0 37.0 L 69.0 37.0 L 68.0 37.0 L 67.0 37.0 L 66.0 37.0 L 65.0 37.0 L 64.0 37.0 L 63.0 37.0 L 62.0 37.0 L 61.0 37.0 L 60.0 37.0 L 59.0 37.0 L 58.0 37.0 L 57.0 37.0 L 56.0 37.0 L 55.0 37.0 L 54.0 36.666666666666664 L 53.0 36.333333333333336 L 52.0 36.0 L 51.0 36.0 L 50.0 36.0 L 49.0 36.0 L 48.0 36.0 L 47.0 36.0 L 46.0 36.0 L 45.0 36.0 L 44.0 36.0 L 43.0 36.0 L 42.0 36.0 L 41.0 36.333333333333336 L 40.0 36.666666666666664 L 39.0 37.333333333333336 L 38.333333333333336 38.0 L 38.0 39.0 L 37.666666666666664 40.0 L 37.333333333333336 41.0 L 37.0 42.0 L 36.666666666666664 43.0 L 36.333333333333336 44.0 L 36.0 45.0 L 36.0 46.0 L 35.666666666666664 47.0 L 35.333333333333336 48.0 L 35.0 49.0 L 35.0 50.0 L 34.666666666666664 51.0 L 34.333333333333336 52.0 L 34.0 53.0 L 34.333333333333336 54.0 L 35.0 54.666666666666664 L 36.0 55.0 L 37.0 55.0 L 38.0 55.333333333333336 L 39.0 55.666666666666664 L 40.0 56.333333333333336 L 41.0 56.666666666666664 L 42.0 57.333333333333336 L 43.0 57.666666666666664 L 44.0 58.333333333333336 L 45.0 59.0 L 46.0 59.666666666666664 L 47.0 60.333333333333336 L 48.0 60.666666666666664 L 49.0 61.0 L 50.0 61.333333333333336 L 50.666666666666664 62.0 L 51.0 63.0 L 51.333333333333336 64.0 L 52.0 65.0 L 53.0 66.0 L 53.666666666666664 67.0 L 54.0 68.0 L 54.333333333333336 69.0 L 54.666666666666664 70.0 L 55.0 71.0 L 55.333333333333336 72.0 L 55.666666666666664 73.0 L 56.0 74.0 L 56.0 75.0 L 56.0 76.0 L 56.333333333333336 76.66666666666667 L 57.0 77.0 L 58.0 77.0 L 59.0 77.0 L 60.0 77.0 L 61.0 77.0 L 62.0 77.0 L 63.0 77.0 L 64.0 77.0 L 65.0 77.0 L 66.0 77.0 L 67.0 77.0 L 68.0 77.0 L 69.0 77.0 L 70.0 77.0 L 71.0 77.0 L 72.0 76.66666666666667 L 73.0 76.33333333333333 L 74.0 76.33333333333333 L 74.66666666666667 77.0 L 74.66666666666667 78.0 L 74.0 79.0 L 73.0 80.0 L 72.0 81.0 L 71.0 82.0 L 70.0 82.66666666666667 L 69.0 83.0 L 68.0 83.33333333333333 L 67.0 83.66666666666667 L 66.0 84.0 L 65.0 84.0 L 64.0 84.0 L 63.0 83.66666666666667 L 62.0 83.33333333333333 L 61.0 83.0 L 60.0 83.0 L 59.0 82.66666666666667 L 58.0 82.33333333333333 L 57.0 82.33333333333333 L 56.333333333333336 83.0 L 56.0 84.0 L 55.666666666666664 85.0 L 55.333333333333336 86.0 L 54.666666666666664 87.0 L 54.333333333333336 88.0 L 53.666666666666664 89.0 L 53.0 90.0 L 52.0 91.0 L 51.333333333333336 92.0 L 51.0 93.0 L 51.333333333333336 93.66666666666667 L 52.0 94.33333333333333 L 53.0 94.66666666666667 L 54.0 95.0 L 55.0 95.33333333333333 L 55.666666666666664 96.0 L 56.0 97.0 L 56.0 98.0 L 56.0 99.0 L 56.0 100.0 L 56.0 101.0 L 56.0 102.0 L 55.666666666666664 103.0 L 55.0 103.33333333333333 L 54.333333333333336 103.0 L 54.0 102.0 L 53.666666666666664 101.33333333333333 L 53.0 101.0 L 52.0 101.33333333333333 L 51.333333333333336 102.0 L 50.666666666666664 103.0 L 50.333333333333336 104.0 L 50.0 105.0 L 50.0 106.0 L 50.0 107.0 L 50.0 108.0 L 50.0 109.0 L 50.0 110.0 L 50.0 111.0 L 50.0 112.0 L 50.333333333333336 113.0 L 50.666666666666664 114.0 L 51.333333333333336 115.0 L 51.666666666666664 116.0 L 52.333333333333336 117.0 L 53.0 117.66666666666667 L 54.0 117.66666666666667 L 55.0 117.33333333333333 L 56.0 117.0 L 57.0 117.33333333333333 L 58.0 117.66666666666667 L 58.5 118.0 Z" stroke="none" fill="rgb(112,83,74)" />
<path d="M 21.5 88.5 L 22.0 88.33333333333333 L 23.0 87.66666666666667 L 24.0 87.0 L 25.0 86.0 L 26.0 85.0 L 27.0 84.0 L 28.0 83.0 L 29.0 82.0 L 30.0 81.0 L 31.0 80.0 L 31.666666666666668 79.0 L 32.0 78.0 L 32.333333333333336 77.0 L 32.666666666666664 76.0 L 33.0 75.0 L 33.0 74.0 L 32.666666666666664 73.0 L 32.333333333333336 72.0 L 31.666666666666668 71.0 L 31.333333333333332 70.0 L 31.0 69.0 L 30.666666666666668 68.0 L 30.0 67.0 L 29.0 66.0 L 28.333333333333332 65.0 L 27.666666666666668 64.0 L 27.333333333333332 63.0 L 26.666666666666668 62.0 L 26.333333333333332 61.0 L 26.0 60.0 L 26.0 59.0 L 26.333333333333332 58.0 L 27.0 57.0 L 28.0 56.0 L 28.666666666666668 55.0 L 28.666666666666668 54.0 L 28.333333333333332 53.0 L 28.0 52.0 L 28.0 51.0 L 28.0 50.0 L 28.0 49.0 L 28.0 48.0 L 28.0 47.0 L 28.0 46.0 L 28.0 45.0 L 28.0 44.0 L 28.0 43.0 L 28.0 42.0 L 28.0 41.0 L 28.0 40.0 L 28.0 39.0 L 28.0 38.0 L 28.0 37.0 L 28.0 36.0 L 28.0 35.0 L 28.0 34.0 L 28.333333333333332 33.0 L 28.666666666666668 32.0 L 29.0 31.0 L 29.0 30.0 L 29.333333333333332 29.0 L 29.666666666666668 28.0 L 30.0 27.0 L 30.333333333333332 26.0 L 30.666666666666668 25.0 L 31.0 24.0 L 31.333333333333332 23.0 L 31.666666666666668 22.0 L 32.333333333333336 21.0 L 32.666666666666664 20.0 L 33.333333333333336 19.0 L 34.0 18.0 L 35.0 17.0 L 36.0 16.0 L 37.0 15.0 L 38.0 14.0 L 39.0 13.0 L 40.0 12.0 L 41.0 11.0 L 42.0 10.333333333333334 L 43.0 9.666666666666666 L 44.0 9.0 L 45.0 8.333333333333334 L 46.0 7.666666666666667 L 47.0 7.333333333333333 L 48.0 7.0 L 49.0 6.666666666666667 L 49.666666666666664 6.0 L 50.0 5.0 L 49.666666666666664 4.0 L 49.0 3.3333333333333335 L 48.0 3.0 L 47.0 3.0 L 46.0 3.0 L 45.0 3.0 L 44.0 3.0 L 43.0 3.0 L 42.0 3.0 L 41.0 3.0 L 40.0 3.0 L 39.0 3.0 L 38.0 3.0 L 37.0 3.0 L 36.0 3.0 L 35.0 3.0 L 34.0 3.0 L 33.0 3.0 L 32.0 3.0 L 31.0 3.0 L 30.0 3.0 L 29.0 3.0 L 28.0 3.0 L 27.0 3.0 L 26.0 3.0 L 25.0 3.0 L 24.0 3.0 L 23.0 3.0 L 22.0 3.0 L 21.0 3.0 L 20.0 3.0 L 19.0 3.0 L 18.0 3.0 L 17.0 3.0 L 16.0 3.0 L 15.0 3.0 L 14.0 3.0 L 13.0 3.0 L 12.333333333333334 3.3333333333333335 L 12.0 4.0 L 12.333333333333334 5.0 L 12.666666666666666 6.0 L 13.333333333333334 7.0 L 14.0 8.0 L 14.666666666666666 9.0 L 15.333333333333334 10.0 L 15.666666666666666 11.0 L 16.333333333333332 12.0 L 16.666666666666668 13.0 L 17.0 14.0 L 17.333333333333332 15.0 L 17.666666666666668 16.0 L 18.0 17.0 L 18.0 18.0 L 18.333333333333332 19.0 L 18.666666666666668 20.0 L 19.0 21.0 L 19.0 22.0 L 18.666666666666668 23.0 L 18.333333333333332 24.0 L 18.0 25.0 L 18.0 26.0 L 17.666666666666668 27.0 L 17.333333333333332 28.0 L 17.0 29.0 L 16.666666666666668 30.0 L 16.333333333333332 31.0 L 15.666666666666666 32.0 L 15.333333333333334 33.0 L 14.666666666666666 34.0 L 14.0 35.0 L 13.333333333333334 36.0 L 12.666666666666666 37.0 L 12.0 38.0 L 11.0 39.0 L 10.0 40.0 L 9.0 41.0 L 8.0 42.0 L 7.0 43.0 L 6.0 44.0 L 5.0 44.666666666666664 L 4.333333333333333 45.333333333333336 L 4.0 46.0 L 4.0 47.0 L 4.0 48.0 L 4.0 49.0 L 4.0 50.0 L 4.0 51.0 L 4.0 52.0 L 4.0 53.0 L 4.0 54.0 L 4.0 55.0 L 4.0 56.0 L 4.0 57.0 L 4.0 58.0 L 4.0 59.0 L 4.0 60.0 L 4.0 61.0 L 4.0 62.0 L 4.0 63.0 L 4.0 64.0 L 4.0 65.0 L 4.0 66.0 L 4.0 67.0 L 4.0 68.0 L 4.0 69.0 L 4.0 70.0 L 4.0 71.0 L 4.0 72.0 L 4.0 73.0 L 4.0 74.0 L 4.0 75.0 L 4.0 76.0 L 4.0 77.0 L 4.0 78.0 L 4.0 79.0 L 4.0 80.0 L 4.0 81.0 L 4.0 82.0 L 4.0 83.0 L 4.0 84.0 L 4.0 85.0 L 4.0 86.0 L 4.0 87.0 L 4.0 88.0 L 4.0 89.0 L 4.0 90.0 L 4.0 91.0 L 4.0 92.0 L 4.0 93.0 L 4.0 94.0 L 4.0 95.0 L 4.0 96.0 L 4.0 97.0 L 4.0 98.0 L 4.0 99.0 L 4.0 100.0 L 4.333333333333333 100.66666666666667 L 5.0 101.0 L 5.666666666666667 100.66666666666667 L 6.333333333333333 100.0 L 7.0 99.0 L 8.0 98.0 L 9.0 97.0 L 10.0 96.0 L 11.0 95.0 L 12.0 94.0 L 13.0 93.33333333333333 L 14.0 92.66666666666667 L 15.0 92.33333333333333 L 16.0 91.66666666666667 L 17.0 91.0 L 18.0 90.33333333333333 L 19.0 89.66666666666667 L 20.0 89.33333333333333 L 20.5 89.0 Z" stroke="none" fill="rgb(131,211,247)" />
<path d="M 58.5 37.0 L 59.0 37.0 L 60.0 37.0 L 61.0 37.0 L 62.0 37.0 L 63.0 37.0 L 64.0 37.0 L 65.0 37.0 L 66.0 37.0 L 67.0 37.0 L 68.0 37.0 L 69.0 37.0 L 70.0 37.0 L 71.0 37.0 L 72.0 37.0 L 73.0 37.0 L 74.0 37.0 L 75.0 37.0 L 76.0 37.0 L 77.0 37.0 L 78.0 37.0 L 79.0 37.0 L 80.0 36.666666666666664 L 81.0 36.333333333333336 L 82.0 36.0 L 83.0 36.0 L 84.0 36.0 L 85.0 36.0 L 86.0 36.333333333333336 L 87.0 37.0 L 88.0 38.0 L 89.0 39.0 L 89.66666666666667 40.0 L 90.33333333333333 41.0 L 90.66666666666667 42.0 L 91.0 43.0 L 91.0 44.0 L 91.33333333333333 45.0 L 91.66666666666667 46.0 L 92.0 47.0 L 92.0 48.0 L 92.33333333333333 49.0 L 92.66666666666667 50.0 L 93.0 51.0 L 93.0 52.0 L 93.33333333333333 53.0 L 94.0 53.666666666666664 L 95.0 54.0 L 95.66666666666667 53.666666666666664 L 96.0 53.0 L 95.66666666666667 52.0 L 95.33333333333333 51.0 L 95.0 50.0 L 95.0 49.0 L 95.0 48.0 L 95.0 47.0 L 95.0 46.0 L 95.0 45.0 L 95.33333333333333 44.0 L 96.0 43.333333333333336 L 96.66666666666667 42.666666666666664 L 97.0 42.0 L 96.66666666666667 41.0 L 96.0 40.0 L 95.33333333333333 39.0 L 94.66666666666667 38.0 L 94.33333333333333 37.0 L 93.66666666666667 36.0 L 93.0 35.0 L 92.0 34.0 L 91.33333333333333 33.0 L 90.66666666666667 32.0 L 90.0 31.0 L 89.0 30.0 L 88.0 29.0 L 87.0 28.0 L 86.0 27.0 L 85.66666666666667 26.0 L 86.0 25.0 L 86.66666666666667 24.0 L 86.66666666666667 23.0 L 86.0 22.0 L 85.0 21.0 L 84.0 20.0 L 83.0 19.0 L 82.0 18.0 L 81.0 17.333333333333332 L 80.0 16.666666666666668 L 79.0 16.333333333333332 L 78.0 15.666666666666666 L 77.0 15.333333333333334 L 76.0 14.666666666666666 L 75.0 14.333333333333334 L 74.0 13.666666666666666 L 73.0 13.333333333333334 L 72.0 13.0 L 71.0 13.0 L 70.0 12.666666666666666 L 69.0 12.333333333333334 L 68.0 12.0 L 67.0 12.0 L 66.0 12.0 L 65.0 12.0 L 64.0 12.0 L 63.0 12.0 L 62.0 12.0 L 61.0 12.0 L 60.0 12.0 L 59.0 12.333333333333334 L 58.0 12.666666666666666 L 57.0 13.0 L 56.0 13.0 L 55.0 13.333333333333334 L 54.0 13.666666666666666 L 53.0 14.333333333333334 L 52.0 14.666666666666666 L 51.0 15.333333333333334 L 50.0 15.666666666666666 L 49.0 16.333333333333332 L 48.0 16.666666666666668 L 47.0 17.333333333333332 L 46.0 18.0 L 45.0 19.0 L 44.0 20.0 L 43.0 21.0 L 42.0 22.0 L 41.0 23.0 L 40.333333333333336 24.0 L 39.666666666666664 25.0 L 39.0 26.0 L 38.333333333333336 27.0 L 37.666666666666664 28.0 L 37.333333333333336 29.0 L 36.666666666666664 30.0 L 36.333333333333336 31.0 L 35.666666666666664 32.0 L 35.333333333333336 33.0 L 35.0 34.0 L 34.666666666666664 35.0 L 34.333333333333336 36.0 L 34.0 37.0 L 34.0 38.0 L 34.0 39.0 L 33.666666666666664 40.0 L 33.333333333333336 41.0 L 33.0 42.0 L 33.0 43.0 L 33.0 44.0 L 33.0 45.0 L 33.0 46.0 L 33.0 47.0 L 33.0 48.0 L 33.0 49.0 L 33.0 50.0 L 33.0 51.0 L 33.333333333333336 51.666666666666664 L 34.0 52.0 L 34.666666666666664 51.666666666666664 L 35.0 51.0 L 35.0 50.0 L 35.333333333333336 49.0 L 35.666666666666664 48.0 L 36.0 47.0 L 36.0 46.0 L 36.333333333333336 45.0 L 36.666666666666664 44.0 L 37.0 43.0 L 37.333333333333336 42.0 L 37.666666666666664 41.0 L 38.0 40.0 L 38.333333333333336 39.0 L 39.0 38.0 L 40.0 37.333333333333336 L 41.0 36.666666666666664 L 42.0 36.333333333333336 L 43.0 36.0 L 44.0 36.0 L 45.0 36.0 L 46.0 36.0 L 47.0 36.0 L 48.0 36.0 L 49.0 36.0 L 50.0 36.0 L 51.0 36.0 L 52.0 36.333333333333336 L 53.0 36.666666666666664 L 54.0 37.0 L 55.0 37.0 L 56.0 37.0 L 57.0 37.0 L 57.5 37.0 Z" stroke="none" fill="rgb(35,32,32)" />
<path d="M 110.5 101.5 L 111.0 101.33333333333333 L 112.0 100.66666666666667 L 113.0 100.33333333333333 L 114.0 99.66666666666667 L 115.0 99.0 L 116.0 98.0 L 117.0 97.0 L 118.0 96.0 L 119.0 95.0 L 120.0 94.0 L 121.0 93.0 L 122.0 92.0 L 123.0 91.33333333333333 L 123.66666666666667 90.66666666666667 L 124.0 90.0 L 124.0 89.0 L 124.0 88.0 L 124.0 87.0 L 124.0 86.0 L 124.0 85.0 L 124.0 84.0 L 124.0 83.0 L 124.0 82.0 L 124.0 81.0 L 124.0 80.0 L 124.0 79.0 L 124.0 78.0 L 124.0 77.0 L 124.0 76.0 L 124.0 75.0 L 124.0 74.0 L 124.0 73.0 L 124.0 72.0 L 124.0 71.0 L 124.0 70.0 L 124.0 69.0 L 124.0 68.0 L 124.0 67.0 L 124.0 66.0 L 124.0 65.0 L 124.0 64.0 L 124.0 63.0 L 124.0 62.0 L 124.0 61.0 L 124.0 60.0 L 124.0 59.0 L 124.0 58.0 L 124.0 57.0 L 124.0 56.0 L 124.0 55.0 L 124.0 54.0 L 124.0 53.0 L 124.0 52.0 L 124.0 51.0 L 124.0 50.0 L 124.0 49.0 L 124.0 48.0 L 124.0 47.0 L 124.0 46.0 L 124.0 45.0 L 124.0 44.0 L 124.0 43.0 L 124.0 42.0 L 123.66666666666667 41.0 L 123.0 40.0 L 122.0 39.0 L 121.0 38.0 L 120.0 37.0 L 119.0 36.0 L 118.0 35.0 L 117.0 34.0 L 116.0 33.0 L 115.0 32.333333333333336 L 114.0 31.666666666666668 L 113.0 31.0 L 112.0 30.0 L 111.0 29.333333333333332 L 110.0 28.666666666666668 L 109.0 28.333333333333332 L 108.0 27.666666666666668 L 107.0 27.333333333333332 L 106.0 27.0 L 105.0 27.0 L 104.33333333333333 27.333333333333332 L 104.0 28.0 L 104.0 29.0 L 104.33333333333333 30.0 L 104.66666666666667 31.0 L 105.0 32.0 L 105.0 33.0 L 105.0 34.0 L 105.0 35.0 L 105.0 36.0 L 105.0 37.0 L 105.0 38.0 L 105.0 39.0 L 105.0 40.0 L 104.66666666666667 41.0 L 104.33333333333333 42.0 L 104.0 43.0 L 103.66666666666667 44.0 L 103.33333333333333 45.0 L 102.66666666666667 46.0 L 102.0 47.0 L 101.0 48.0 L 100.33333333333333 49.0 L 100.0 50.0 L 100.0 51.0 L 100.0 52.0 L 100.0 53.0 L 100.0 54.0 L 100.0 55.0 L 100.0 56.0 L 100.33333333333333 57.0 L 100.66666666666667 58.0 L 101.0 59.0 L 101.33333333333333 60.0 L 101.66666666666667 61.0 L 102.0 62.0 L 102.0 63.0 L 102.0 64.0 L 101.66666666666667 65.0 L 101.33333333333333 66.0 L 100.66666666666667 67.0 L 100.0 68.0 L 99.0 69.0 L 98.0 70.0 L 97.0 71.0 L 96.0 72.0 L 95.33333333333333 73.0 L 94.66666666666667 74.0 L 94.33333333333333 75.0 L 93.66666666666667 76.0 L 93.33333333333333 77.0 L 92.66666666666667 78.0 L 92.33333333333333 79.0 L 91.66666666666667 80.0 L 91.0 81.0 L 90.0 82.0 L 89.33333333333333 83.0 L 88.66666666666667 84.0 L 88.0 85.0 L 87.0 86.0 L 86.0 87.0 L 85.0 88.0 L 84.0 89.0 L 83.33333333333333 90.0 L 83.0 91.0 L 83.0 92.0 L 83.33333333333333 93.0 L 84.0 93.66666666666667 L 85.0 94.33333333333333 L 86.0 95.0 L 87.0 96.0 L 88.0 97.0 L 89.0 98.0 L 90.0 99.0 L 91.0 100.0 L 92.0 101.0 L 93.0 101.66666666666667 L 94.0 102.0 L 95.0 102.33333333333333 L 96.0 102.66666666666667 L 97.0 103.33333333333333 L 98.0 104.0 L 99.0 104.66666666666667 L 100.0 105.0 L 101.0 105.33333333333333 L 102.0 106.0 L 103.0 106.66666666666667 L 104.0 107.0 L 105.0 107.0 L 105.66666666666667 106.66666666666667 L 106.0 106.0 L 106.0 105.0 L 106.33333333333333 104.0 L 107.0 103.33333333333333 L 108.0 102.66666666666667 L 109.0 102.33333333333333 L 109.5 102.0 Z" stroke="none" fill="rgb(165,224,251)" />
<path d="M 88.5 17.5 L 89.0 18.0 L 90.0 19.0 L 91.0 20.0 L 92.0 21.0 L 92.66666666666667 22.0 L 93.33333333333333 22.666666666666668 L 94.0 23.0 L 95.0 23.0 L 96.0 23.0 L 96.66666666666667 22.666666666666668 L 97.0 22.0 L 96.66666666666667 21.0 L 96.33333333333333 20.0 L 95.66666666666667 19.0 L 95.0 18.0 L 94.33333333333333 17.0 L 93.66666666666667 16.0 L 93.0 15.0 L 92.0 14.0 L 91.0 13.0 L 90.0 12.0 L 89.0 11.0 L 88.0 10.333333333333334 L 87.0 9.666666666666666 L 86.0 9.0 L 85.0 8.333333333333334 L 84.0 7.666666666666667 L 83.0 7.333333333333333 L 82.0 6.666666666666667 L 81.0 6.333333333333333 L 80.0 6.0 L 79.0 5.666666666666667 L 78.0 5.333333333333333 L 77.0 5.0 L 76.0 4.666666666666667 L 75.0 4.333333333333333 L 74.0 4.0 L 73.0 4.0 L 72.0 4.0 L 71.0 4.0 L 70.0 4.0 L 69.0 4.0 L 68.0 3.6666666666666665 L 67.0 3.3333333333333335 L 66.0 3.0 L 65.0 3.0 L 64.0 3.0 L 63.0 3.0 L 62.0 3.0 L 61.0 3.3333333333333335 L 60.0 3.6666666666666665 L 59.0 4.0 L 58.0 4.0 L 57.0 4.0 L 56.0 4.0 L 55.0 4.0 L 54.0 4.0 L 53.0 4.333333333333333 L 52.0 4.666666666666667 L 51.0 5.0 L 50.0 5.333333333333333 L 49.0 6.0 L 48.0 6.666666666666667 L 47.0 7.0 L 46.0 7.333333333333333 L 45.0 7.666666666666667 L 44.0 8.333333333333334 L 43.0 9.0 L 42.0 9.666666666666666 L 41.0 10.333333333333334 L 40.0 11.0 L 39.0 12.0 L 38.0 13.0 L 37.0 14.0 L 36.0 15.0 L 35.0 16.0 L 34.0 17.0 L 33.333333333333336 18.0 L 32.666666666666664 19.0 L 32.333333333333336 20.0 L 31.666666666666668 21.0 L 31.333333333333332 22.0 L 31.0 23.0 L 30.666666666666668 24.0 L 30.333333333333332 25.0 L 30.0 26.0 L 29.666666666666668 27.0 L 29.333333333333332 28.0 L 29.0 29.0 L 29.0 30.0 L 28.666666666666668 31.0 L 28.333333333333332 32.0 L 28.0 33.0 L 28.0 34.0 L 28.0 35.0 L 28.333333333333332 35.666666666666664 L 28.666666666666668 35.666666666666664 L 29.0 35.0 L 29.333333333333332 34.0 L 29.666666666666668 33.0 L 30.333333333333332 32.0 L 30.666666666666668 31.0 L 31.0 30.0 L 31.333333333333332 29.0 L 31.666666666666668 28.0 L 32.333333333333336 27.0 L 32.666666666666664 26.0 L 33.333333333333336 25.0 L 34.0 24.0 L 34.666666666666664 23.0 L 35.333333333333336 22.0 L 36.0 21.0 L 37.0 20.0 L 38.0 19.0 L 39.0 18.0 L 40.0 17.0 L 41.0 16.0 L 42.0 15.0 L 43.0 14.0 L 44.0 13.0 L 45.0 12.333333333333334 L 46.0 11.666666666666666 L 47.0 11.0 L 48.0 10.333333333333334 L 49.0 9.666666666666666 L 50.0 9.333333333333334 L 51.0 8.666666666666666 L 52.0 8.333333333333334 L 53.0 8.0 L 54.0 7.666666666666667 L 55.0 7.333333333333333 L 56.0 7.0 L 57.0 7.0 L 58.0 6.666666666666667 L 59.0 6.333333333333333 L 60.0 6.0 L 61.0 6.0 L 62.0 6.0 L 63.0 6.0 L 64.0 6.0 L 65.0 6.0 L 66.0 6.0 L 67.0 6.0 L 68.0 6.0 L 69.0 6.333333333333333 L 70.0 6.666666666666667 L 71.0 7.0 L 72.0 7.0 L 73.0 7.333333333333333 L 74.0 7.666666666666667 L 75.0 8.0 L 76.0 8.333333333333334 L 77.0 8.666666666666666 L 78.0 9.333333333333334 L 79.0 9.666666666666666 L 80.0 10.333333333333334 L 81.0 11.0 L 82.0 11.666666666666666 L 83.0 12.333333333333334 L 84.0 13.0 L 85.0 14.0 L 86.0 15.0 L 87.0 16.0 L 87.5 16.5 Z" stroke="none" fill="rgb(66,63,62)" />
<path d="M 84.5 16.5 L 85.0 17.0 L 86.0 18.0 L 87.0 19.0 L 88.0 20.0 L 89.0 21.0 L 90.0 22.0 L 91.0 22.666666666666668 L 92.0 23.0 L 92.66666666666667 22.666666666666668 L 93.0 22.0 L 92.66666666666667 21.0 L 92.0 20.0 L 91.0 19.0 L 90.0 18.0 L 89.0 17.0 L 88.0 16.0 L 87.0 15.0 L 86.0 14.0 L 85.0 13.0 L 84.0 12.333333333333334 L 83.0 11.666666666666666 L 82.0 11.0 L 81.0 10.333333333333334 L 80.0 9.666666666666666 L 79.0 9.333333333333334 L 78.0 8.666666666666666 L 77.0 8.333333333333334 L 76.0 8.0 L 75.0 7.666666666666667 L 74.0 7.333333333333333 L 73.0 7.0 L 72.0 7.0 L 71.0 6.666666666666667 L 70.0 6.333333333333333 L 69.0 6.0 L 68.0 6.0 L 67.0 6.0 L 66.0 6.0 L 65.0 6.0 L 64.0 6.0 L 63.0 6.0 L 62.0 6.0 L 61.0 6.0 L 60.0 6.0 L 59.0 6.0 L 58.0 6.333333333333333 L 57.0 6.666666666666667 L 56.0 7.0 L 55.0 7.0 L 54.0 7.333333333333333 L 53.0 7.666666666666667 L 52.0 8.0 L 51.0 8.333333333333334 L 50.0 8.666666666666666 L 49.0 9.333333333333334 L 48.0 9.666666666666666 L 47.0 10.333333333333334 L 46.0 11.0 L 45.0 11.666666666666666 L 44.0 12.333333333333334 L 43.0 13.0 L 42.0 14.0 L 41.0 15.0 L 40.0 16.0 L 39.0 17.0 L 38.0 18.0 L 37.0 19.0 L 36.0 20.0 L 35.333333333333336 21.0 L 34.666666666666664 22.0 L 34.0 23.0 L 33.333333333333336 24.0 L 32.666666666666664 25.0 L 32.333333333333336 26.0 L 31.666666666666668 27.0 L 31.333333333333332 28.0 L 31.0 29.0 L 30.666666666666668 30.0 L 30.333333333333332 31.0 L 29.666666666666668 32.0 L 29.333333333333332 33.0 L 29.0 34.0 L 28.666666666666668 35.0 L 28.333333333333332 36.0 L 28.0 37.0 L 28.0 38.0 L 28.0 39.0 L 28.0 40.0 L 28.0 41.0 L 28.0 42.0 L 28.0 43.0 L 28.0 44.0 L 28.0 45.0 L 28.0 46.0 L 28.0 47.0 L 28.0 48.0 L 28.0 49.0 L 28.0 50.0 L 28.0 51.0 L 28.0 52.0 L 28.0 53.0 L 28.333333333333332 53.666666666666664 L 29.0 54.0 L 29.666666666666668 53.666666666666664 L 30.0 53.0 L 30.333333333333332 52.0 L 30.666666666666668 51.0 L 31.0 50.0 L 31.0 49.0 L 31.0 48.0 L 31.0 47.0 L 31.0 46.0 L 31.0 45.0 L 30.666666666666668 44.0 L 30.333333333333332 43.0 L 30.0 42.0 L 30.0 41.0 L 30.0 40.0 L 30.333333333333332 39.0 L 30.666666666666668 38.0 L 31.0 37.0 L 31.0 36.0 L 31.333333333333332 35.0 L 31.666666666666668 34.0 L 32.0 33.0 L 32.333333333333336 32.0 L 32.666666666666664 31.0 L 33.333333333333336 30.0 L 33.666666666666664 29.0 L 34.333333333333336 28.0 L 34.666666666666664 27.0 L 35.333333333333336 26.0 L 36.0 25.0 L 36.666666666666664 24.0 L 37.333333333333336 23.0 L 38.0 22.0 L 39.0 21.0 L 40.0 20.0 L 41.0 19.0 L 42.0 18.0 L 43.0 17.0 L 44.0 16.0 L 45.0 15.0 L 46.0 14.333333333333334 L 47.0 13.666666666666666 L 48.0 13.0 L 49.0 12.333333333333334 L 50.0 11.666666666666666 L 51.0 11.333333333333334 L 52.0 10.666666666666666 L 53.0 10.333333333333334 L 54.0 10.0 L 55.0 9.666666666666666 L 56.0 9.333333333333334 L 57.0 9.0 L 58.0 9.0 L 59.0 8.666666666666666 L 60.0 8.333333333333334 L 61.0 8.0 L 62.0 8.0 L 63.0 8.0 L 64.0 8.0 L 65.0 8.0 L 66.0 8.0 L 67.0 8.0 L 68.0 8.333333333333334 L 69.0 8.666666666666666 L 70.0 9.0 L 71.0 9.0 L 72.0 9.333333333333334 L 73.0 9.666666666666666 L 74.0 10.0 L 75.0 10.333333333333334 L 76.0 10.666666666666666 L 77.0 11.333333333333334 L 78.0 11.666666666666666 L 79.0 12.333333333333334 L 80.0 13.0 L 81.0 13.666666666666666 L 82.0 14.333333333333334 L 83.0 15.0 L 83.5 15.5 Z" stroke="none" fill="rgb(58,54,53)" />
<path d="M 123.5 41.0 L 123.66666666666667 40.666666666666664 L 124.0 40.0 L 124.0 39.0 L 124.0 38.0 L 124.0 37.0 L 124.0 36.0 L 124.0 35.0 L 124.0 34.0 L 124.0 33.0 L 124.0 32.0 L 124.0 31.0 L 124.0 30.0 L 124.0 29.0 L 124.0 28.0 L 124.0 27.0 L 124.0 26.0 L 124.0 25.0 L 124.0 24.0 L 124.0 23.0 L 124.0 22.0 L 124.0 21.0 L 124.0 20.0 L 124.0 19.0 L 124.0 18.0 L 124.0 17.0 L 124.0 16.0 L 124.0 15.0 L 124.0 14.0 L 124.0 13.0 L 124.0 12.0 L 124.0 11.0 L 124.0 10.0 L 124.0 9.0 L 124.0 8.0 L 124.0 7.0 L 124.0 6.0 L 124.0 5.0 L 124.0 4.0 L 123.66666666666667 3.3333333333333335 L 123.0 3.0 L 122.0 3.0 L 121.0 3.0 L 120.0 3.0 L 119.0 3.0 L 118.0 3.0 L 117.0 3.0 L 116.0 3.0 L 115.0 3.0 L 114.0 3.0 L 113.0 3.0 L 112.0 3.0 L 111.0 3.0 L 110.0 3.0 L 109.0 3.0 L 108.0 3.0 L 107.0 3.0 L 106.0 3.0 L 105.0 3.0 L 104.0 3.0 L 103.0 3.0 L 102.0 3.0 L 101.0 3.0 L 100.0 3.0 L 99.0 3.0 L 98.0 3.0 L 97.0 3.0 L 96.0 3.0 L 95.0 3.0 L 94.0 3.0 L 93.0 3.0 L 92.0 3.0 L 91.0 3.0 L 90.0 3.0 L 89.0 3.0 L 88.0 3.0 L 87.33333333333333 3.3333333333333335 L 87.0 4.0 L 87.33333333333333 5.0 L 88.0 6.0 L 89.0 7.0 L 90.0 8.0 L 91.0 9.0 L 92.0 10.0 L 93.0 11.0 L 94.0 12.0 L 95.0 13.0 L 96.0 14.0 L 97.0 15.0 L 97.66666666666667 16.0 L 98.33333333333333 17.0 L 99.0 18.0 L 99.66666666666667 19.0 L 100.33333333333333 20.0 L 100.66666666666667 21.0 L 101.33333333333333 22.0 L 101.66666666666667 23.0 L 102.33333333333333 24.0 L 102.66666666666667 25.0 L 103.33333333333333 26.0 L 104.0 26.666666666666668 L 105.0 27.0 L 106.0 27.333333333333332 L 107.0 27.666666666666668 L 108.0 28.333333333333332 L 109.0 28.666666666666668 L 110.0 29.333333333333332 L 111.0 30.0 L 112.0 31.0 L 113.0 31.666666666666668 L 114.0 32.333333333333336 L 115.0 33.0 L 116.0 34.0 L 117.0 35.0 L 118.0 36.0 L 119.0 37.0 L 120.0 38.0 L 121.0 39.0 L 122.0 40.0 L 122.5 40.5 Z" stroke="none" fill="rgb(59,188,247)" />
<path d="M 72.5 117.0 L 73.0 117.33333333333333 L 74.0 117.66666666666667 L 75.0 117.66666666666667 L 75.66666666666667 117.0 L 76.33333333333333 116.0 L 76.66666666666667 115.0 L 77.0 114.0 L 77.33333333333333 113.0 L 77.66666666666667 112.0 L 78.0 111.0 L 78.0 110.0 L 78.0 109.0 L 78.0 108.0 L 78.0 107.0 L 78.0 106.0 L 78.0 105.0 L 77.66666666666667 104.0 L 77.33333333333333 103.0 L 76.66666666666667 102.0 L 76.0 101.0 L 75.0 100.0 L 74.33333333333333 99.0 L 74.0 98.0 L 74.0 97.0 L 74.33333333333333 96.0 L 75.0 95.33333333333333 L 76.0 94.66666666666667 L 77.0 94.33333333333333 L 78.0 93.66666666666667 L 79.0 93.33333333333333 L 80.0 92.66666666666667 L 81.0 92.33333333333333 L 82.0 92.0 L 82.66666666666667 91.66666666666667 L 83.33333333333333 91.0 L 84.0 90.0 L 85.0 89.0 L 86.0 88.0 L 87.0 87.0 L 88.0 86.0 L 88.66666666666667 85.0 L 89.33333333333333 84.0 L 90.0 83.0 L 91.0 82.0 L 91.66666666666667 81.0 L 92.33333333333333 80.0 L 92.66666666666667 79.0 L 93.33333333333333 78.0 L 93.66666666666667 77.0 L 94.33333333333333 76.0 L 94.66666666666667 75.0 L 95.33333333333333 74.0 L 96.0 73.0 L 96.66666666666667 72.0 L 96.66666666666667 71.0 L 96.33333333333333 70.0 L 96.0 69.0 L 96.0 68.0 L 95.66666666666667 67.33333333333333 L 95.0 67.0 L 94.0 67.33333333333333 L 93.0 68.0 L 92.0 69.0 L 91.0 70.0 L 90.0 71.0 L 89.0 72.0 L 88.0 73.0 L 87.0 74.0 L 86.0 75.0 L 85.0 75.66666666666667 L 84.0 76.33333333333333 L 83.0 77.0 L 82.0 77.66666666666667 L 81.0 78.33333333333333 L 80.0 79.0 L 79.0 79.66666666666667 L 78.0 80.33333333333333 L 77.0 80.66666666666667 L 76.0 81.33333333333333 L 75.0 81.66666666666667 L 74.0 82.33333333333333 L 73.0 83.0 L 72.0 84.0 L 71.0 84.66666666666667 L 70.0 85.33333333333333 L 69.0 86.0 L 68.0 87.0 L 67.0 88.0 L 66.0 89.0 L 65.33333333333333 90.0 L 64.66666666666667 91.0 L 64.33333333333333 92.0 L 63.666666666666664 93.0 L 63.333333333333336 94.0 L 62.666666666666664 95.0 L 62.333333333333336 96.0 L 61.666666666666664 97.0 L 61.333333333333336 98.0 L 61.0 99.0 L 61.0 100.0 L 60.666666666666664 101.0 L 60.333333333333336 102.0 L 60.0 103.0 L 60.0 104.0 L 59.666666666666664 105.0 L 59.333333333333336 106.0 L 59.0 107.0 L 59.0 108.0 L 59.0 109.0 L 59.0 110.0 L 59.0 111.0 L 59.0 112.0 L 59.0 113.0 L 59.0 114.0 L 59.0 115.0 L 59.0 116.0 L 59.333333333333336 116.66666666666667 L 60.0 117.0 L 61.0 117.0 L 62.0 117.0 L 63.0 117.0 L 64.0 117.0 L 65.0 117.0 L 66.0 117.0 L 67.0 117.0 L 68.0 117.0 L 69.0 117.0 L 70.0 117.0 L 71.0 117.0 L 71.5 117.0 Z" stroke="none" fill="rgb(162,143,137)" />
<path d="M 33.0 36.5 L 33.0 36.0 L 33.333333333333336 35.0 L 33.666666666666664 34.0 L 34.0 33.0 L 34.333333333333336 32.0 L 34.666666666666664 31.0 L 35.333333333333336 30.0 L 35.666666666666664 29.0 L 36.333333333333336 28.0 L 36.666666666666664 27.0 L 37.333333333333336 26.0 L 38.0 25.0 L 39.0 24.0 L 39.666666666666664 23.0 L 40.333333333333336 22.0 L 41.0 21.0 L 42.0 20.0 L 43.0 19.0 L 44.0 18.0 L 45.0 17.333333333333332 L 46.0 16.666666666666668 L 47.0 16.0 L 48.0 15.333333333333334 L 49.0 14.666666666666666 L 50.0 14.0 L 51.0 13.333333333333334 L 52.0 13.0 L 53.0 12.666666666666666 L 54.0 12.333333333333334 L 55.0 11.666666666666666 L 56.0 11.333333333333334 L 57.0 11.0 L 58.0 11.0 L 59.0 11.0 L 60.0 10.666666666666666 L 61.0 10.333333333333334 L 62.0 10.0 L 63.0 10.0 L 64.0 10.0 L 65.0 10.0 L 66.0 10.0 L 67.0 10.333333333333334 L 68.0 10.666666666666666 L 69.0 11.0 L 70.0 11.0 L 71.0 11.0 L 72.0 11.333333333333334 L 73.0 11.666666666666666 L 74.0 12.333333333333334 L 75.0 12.666666666666666 L 76.0 13.0 L 77.0 13.333333333333334 L 78.0 14.0 L 79.0 14.666666666666666 L 80.0 15.333333333333334 L 81.0 16.0 L 82.0 16.666666666666668 L 83.0 17.333333333333332 L 84.0 18.0 L 85.0 19.0 L 86.0 20.0 L 87.0 21.0 L 87.66666666666667 22.0 L 88.33333333333333 22.666666666666668 L 89.0 23.0 L 90.0 23.0 L 90.66666666666667 22.666666666666668 L 90.66666666666667 22.0 L 90.0 21.0 L 89.0 20.0 L 88.0 19.0 L 87.0 18.0 L 86.0 17.0 L 85.0 16.0 L 84.0 15.0 L 83.0 14.333333333333334 L 82.0 13.666666666666666 L 81.0 13.0 L 80.0 12.333333333333334 L 79.0 11.666666666666666 L 78.0 11.333333333333334 L 77.0 10.666666666666666 L 76.0 10.333333333333334 L 75.0 10.0 L 74.0 9.666666666666666 L 73.0 9.333333333333334 L 72.0 9.0 L 71.0 9.0 L 70.0 8.666666666666666 L 69.0 8.333333333333334 L 68.0 8.0 L 67.0 8.0 L 66.0 8.0 L 65.0 8.0 L 64.0 8.0 L 63.0 8.0 L 62.0 8.0 L 61.0 8.0 L 60.0 8.0 L 59.0 8.333333333333334 L 58.0 8.666666666666666 L 57.0 9.0 L 56.0 9.0 L 55.0 9.333333333333334 L 54.0 9.666666666666666 L 53.0 10.0 L 52.0 10.333333333333334 L 51.0 10.666666666666666 L 50.0 11.333333333333334 L 49.0 11.666666666666666 L 48.0 12.333333333333334 L 47.0 13.0 L 46.0 13.666666666666666 L 45.0 14.333333333333334 L 44.0 15.0 L 43.0 16.0 L 42.0 17.0 L 41.0 18.0 L 40.0 19.0 L 39.0 20.0 L 38.0 21.0 L 37.333333333333336 22.0 L 36.666666666666664 23.0 L 36.0 24.0 L 35.333333333333336 25.0 L 34.666666666666664 26.0 L 34.333333333333336 27.0 L 33.666666666666664 28.0 L 33.333333333333336 29.0 L 32.666666666666664 30.0 L 32.333333333333336 31.0 L 32.0 32.0 L 31.666666666666668 33.0 L 31.333333333333332 34.0 L 31.0 35.0 L 31.0 36.0 L 30.666666666666668 37.0 L 30.333333333333332 38.0 L 30.0 39.0 L 30.0 40.0 L 30.0 41.0 L 30.0 42.0 L 30.0 43.0 L 30.333333333333332 43.666666666666664 L 31.0 43.666666666666664 L 31.666666666666668 43.0 L 32.0 42.0 L 32.0 41.0 L 32.0 40.0 L 32.0 39.0 L 32.333333333333336 38.0 L 32.5 37.5 Z" stroke="none" fill="rgb(51,46,45)" />
<path d="M 55.0 87.5 L 55.333333333333336 87.0 L 55.666666666666664 86.0 L 56.0 85.0 L 56.333333333333336 84.0 L 56.666666666666664 83.0 L 56.666666666666664 82.0 L 56.0 81.0 L 55.0 80.0 L 54.0 79.0 L 53.333333333333336 78.0 L 53.333333333333336 77.0 L 54.0 76.33333333333333 L 55.0 76.0 L 55.666666666666664 75.66666666666667 L 56.0 75.0 L 56.0 74.0 L 56.0 73.0 L 55.666666666666664 72.0 L 55.333333333333336 71.0 L 55.0 70.0 L 54.666666666666664 69.0 L 54.333333333333336 68.0 L 54.0 67.0 L 53.666666666666664 66.0 L 53.0 65.0 L 52.0 64.33333333333333 L 51.0 64.0 L 50.0 64.0 L 49.0 64.0 L 48.0 64.0 L 47.0 64.0 L 46.0 63.666666666666664 L 45.0 63.0 L 44.0 62.0 L 43.666666666666664 61.0 L 44.0 60.333333333333336 L 45.0 60.0 L 45.666666666666664 59.666666666666664 L 45.666666666666664 59.0 L 45.0 58.333333333333336 L 44.0 57.666666666666664 L 43.0 57.333333333333336 L 42.0 56.666666666666664 L 41.0 56.333333333333336 L 40.0 55.666666666666664 L 39.0 55.333333333333336 L 38.0 55.0 L 37.0 55.0 L 36.0 55.0 L 35.0 55.0 L 34.0 55.333333333333336 L 33.333333333333336 56.0 L 33.0 57.0 L 33.0 58.0 L 32.666666666666664 59.0 L 32.333333333333336 60.0 L 32.0 61.0 L 31.666666666666668 62.0 L 31.333333333333332 63.0 L 31.0 64.0 L 31.0 65.0 L 31.0 66.0 L 31.0 67.0 L 31.0 68.0 L 31.0 69.0 L 31.0 70.0 L 31.333333333333332 71.0 L 31.666666666666668 72.0 L 32.333333333333336 73.0 L 32.666666666666664 74.0 L 33.0 75.0 L 33.333333333333336 76.0 L 34.0 77.0 L 34.666666666666664 78.0 L 35.333333333333336 79.0 L 35.666666666666664 80.0 L 36.333333333333336 81.0 L 37.0 82.0 L 37.666666666666664 83.0 L 38.0 84.0 L 38.333333333333336 85.0 L 39.0 86.0 L 40.0 87.0 L 41.0 88.0 L 42.0 89.0 L 43.0 89.66666666666667 L 44.0 90.33333333333333 L 45.0 91.0 L 46.0 91.66666666666667 L 47.0 92.33333333333333 L 48.0 93.0 L 49.0 93.66666666666667 L 50.0 94.0 L 50.666666666666664 93.66666666666667 L 51.333333333333336 93.0 L 52.0 92.0 L 53.0 91.0 L 53.666666666666664 90.0 L 54.333333333333336 89.0 L 54.5 88.5 Z" stroke="none" fill="rgb(176,161,156)" />
<path d="M 68.5 12.5 L 69.0 12.666666666666666 L 70.0 13.0 L 71.0 13.0 L 72.0 13.333333333333334 L 73.0 13.666666666666666 L 74.0 14.333333333333334 L 75.0 14.666666666666666 L 76.0 15.333333333333334 L 77.0 15.666666666666666 L 78.0 16.333333333333332 L 79.0 16.666666666666668 L 80.0 17.333333333333332 L 81.0 18.0 L 82.0 19.0 L 83.0 20.0 L 84.0 21.0 L 85.0 22.0 L 86.0 22.666666666666668 L 87.0 23.0 L 87.66666666666667 22.666666666666668 L 88.0 22.0 L 87.66666666666667 21.0 L 87.0 20.0 L 86.0 19.0 L 85.0 18.0 L 84.0 17.333333333333332 L 83.0 16.666666666666668 L 82.0 16.0 L 81.0 15.333333333333334 L 80.0 14.666666666666666 L 79.0 14.0 L 78.0 13.333333333333334 L 77.0 13.0 L 76.0 12.666666666666666 L 75.0 12.333333333333334 L 74.0 11.666666666666666 L 73.0 11.333333333333334 L 72.0 11.0 L 71.0 11.0 L 70.0 11.0 L 69.0 10.666666666666666 L 68.0 10.333333333333334 L 67.0 10.0 L 66.0 10.0 L 65.0 10.0 L 64.0 10.0 L 63.0 10.0 L 62.0 10.0 L 61.0 10.0 L 60.0 10.333333333333334 L 59.0 10.666666666666666 L 58.0 11.0 L 57.0 11.0 L 56.0 11.0 L 55.0 11.333333333333334 L 54.0 11.666666666666666 L 53.0 12.333333333333334 L 52.0 12.666666666666666 L 51.0 13.0 L 50.0 13.333333333333334 L 49.0 14.0 L 48.0 14.666666666666666 L 47.0 15.333333333333334 L 46.0 16.0 L 45.0 16.666666666666668 L 44.0 17.333333333333332 L 43.0 18.0 L 42.0 19.0 L 41.0 20.0 L 40.333333333333336 21.0 L 39.666666666666664 22.0 L 39.0 23.0 L 38.0 24.0 L 37.333333333333336 25.0 L 36.666666666666664 26.0 L 36.333333333333336 27.0 L 35.666666666666664 28.0 L 35.333333333333336 29.0 L 34.666666666666664 30.0 L 34.333333333333336 31.0 L 34.0 32.0 L 33.666666666666664 33.0 L 33.333333333333336 34.0 L 33.0 35.0 L 32.666666666666664 36.0 L 32.333333333333336 37.0 L 32.0 38.0 L 32.0 39.0 L 32.0 40.0 L 32.0 41.0 L 31.666666666666668 42.0 L 31.333333333333332 43.0 L 31.0 44.0 L 31.0 45.0 L 31.0 46.0 L 31.0 47.0 L 31.0 48.0 L 31.0 49.0 L 31.0 50.0 L 31.333333333333332 51.0 L 31.666666666666668 52.0 L 32.0 53.0 L 32.333333333333336 54.0 L 33.0 54.666666666666664 L 34.0 55.0 L 34.666666666666664 54.666666666666664 L 34.666666666666664 54.0 L 34.333333333333336 53.0 L 33.666666666666664 52.0 L 33.333333333333336 51.0 L 33.0 50.0 L 33.0 49.0 L 33.0 48.0 L 33.0 47.0 L 33.0 46.0 L 33.0 45.0 L 33.0 44.0 L 33.0 43.0 L 33.333333333333336 42.0 L 33.666666666666664 41.0 L 34.0 40.0 L 34.0 39.0 L 34.0 38.0 L 34.333333333333336 37.0 L 34.666666666666664 36.0 L 35.0 35.0 L 35.333333333333336 34.0 L 35.666666666666664 33.0 L 36.333333333333336 32.0 L 36.666666666666664 31.0 L 37.333333333333336 30.0 L 37.666666666666664 29.0 L 38.333333333333336 28.0 L 39.0 27.0 L 39.666666666666664 26.0 L 40.333333333333336 25.0 L 41.0 24.0 L 42.0 23.0 L 43.0 22.0 L 44.0 21.0 L 45.0 20.0 L 46.0 19.0 L 47.0 18.0 L 48.0 17.333333333333332 L 49.0 16.666666666666668 L 50.0 16.333333333333332 L 51.0 15.666666666666666 L 52.0 15.333333333333334 L 53.0 14.666666666666666 L 54.0 14.333333333333334 L 55.0 13.666666666666666 L 56.0 13.333333333333334 L 57.0 13.0 L 58.0 13.0 L 59.0 12.666666666666666 L 60.0 12.333333333333334 L 61.0 12.0 L 62.0 12.0 L 63.0 12.0 L 64.0 12.0 L 65.0 12.0 L 66.0 12.0 L 67.0 12.0 L 67.5 12.0 Z" stroke="none" fill="rgb(44,39,38)" />
<path d="M 39.5 124.0 L 40.0 124.0 L 41.0 124.0 L 42.0 124.0 L 43.0 124.0 L 44.0 124.0 L 45.0 124.0 L 46.0 124.0 L 47.0 124.0 L 48.0 124.0 L 49.0 124.0 L 50.0 124.0 L 51.0 124.0 L 52.0 124.0 L 53.0 124.0 L 54.0 124.0 L 54.666666666666664 123.66666666666667 L 55.0 123.0 L 55.0 122.0 L 54.666666666666664 121.0 L 54.333333333333336 120.0 L 54.0 119.0 L 53.666666666666664 118.0 L 53.0 117.0 L 52.333333333333336 116.0 L 51.666666666666664 115.0 L 51.333333333333336 114.0 L 50.666666666666664 113.0 L 50.333333333333336 112.0 L 50.0 111.0 L 50.0 110.0 L 50.0 109.0 L 50.0 108.0 L 50.0 107.0 L 50.0 106.0 L 50.333333333333336 105.0 L 50.666666666666664 104.0 L 51.333333333333336 103.0 L 52.0 102.0 L 53.0 101.33333333333333 L 53.666666666666664 100.66666666666667 L 54.0 100.0 L 54.0 99.0 L 54.0 98.0 L 54.0 97.0 L 54.0 96.0 L 53.666666666666664 95.0 L 53.0 94.33333333333333 L 52.0 94.0 L 51.0 94.0 L 50.0 94.0 L 49.0 94.33333333333333 L 48.0 95.0 L 47.0 96.0 L 46.0 97.0 L 45.0 98.0 L 44.0 98.66666666666667 L 43.0 99.33333333333333 L 42.0 100.0 L 41.0 101.0 L 40.0 102.0 L 39.0 103.0 L 38.0 103.33333333333333 L 37.333333333333336 103.0 L 37.0 102.0 L 36.666666666666664 101.33333333333333 L 36.0 101.0 L 35.333333333333336 101.33333333333333 L 35.0 102.0 L 35.0 103.0 L 35.0 104.0 L 35.0 105.0 L 35.0 106.0 L 35.333333333333336 107.0 L 35.666666666666664 108.0 L 36.0 109.0 L 35.666666666666664 110.0 L 35.0 110.66666666666667 L 34.0 111.33333333333333 L 33.333333333333336 112.0 L 32.666666666666664 113.0 L 32.333333333333336 114.0 L 32.0 115.0 L 32.0 116.0 L 31.666666666666668 117.0 L 31.333333333333332 118.0 L 31.0 119.0 L 31.0 120.0 L 31.0 121.0 L 31.0 122.0 L 31.0 123.0 L 31.333333333333332 123.66666666666667 L 32.0 124.0 L 33.0 124.0 L 34.0 124.0 L 35.0 124.0 L 36.0 124.0 L 37.0 124.0 L 38.0 124.0 L 38.5 124.0 Z" stroke="none" fill="rgb(236,239,241)" />
<path d="M 24.5 92.5 L 25.0 92.33333333333333 L 26.0 91.66666666666667 L 27.0 91.33333333333333 L 28.0 90.66666666666667 L 29.0 90.33333333333333 L 30.0 89.66666666666667 L 31.0 89.33333333333333 L 32.0 88.66666666666667 L 33.0 88.33333333333333 L 34.0 87.66666666666667 L 35.0 87.33333333333333 L 36.0 86.66666666666667 L 37.0 86.0 L 37.666666666666664 85.0 L 38.0 84.0 L 38.0 83.0 L 37.666666666666664 82.0 L 37.0 81.0 L 36.333333333333336 80.0 L 35.666666666666664 79.0 L 35.333333333333336 78.0 L 34.666666666666664 77.0 L 34.0 76.33333333333333 L 33.0 76.0 L 32.333333333333336 76.33333333333333 L 32.0 77.0 L 31.666666666666668 78.0 L 31.0 79.0 L 30.0 80.0 L 29.0 81.0 L 28.0 82.0 L 27.0 83.0 L 26.0 84.0 L 25.0 85.0 L 24.0 86.0 L 23.0 87.0 L 22.0 87.66666666666667 L 21.0 88.33333333333333 L 20.0 88.66666666666667 L 19.0 89.33333333333333 L 18.0 89.66666666666667 L 17.0 90.33333333333333 L 16.0 91.0 L 15.0 91.66666666666667 L 14.0 92.33333333333333 L 13.0 92.66666666666667 L 12.0 93.33333333333333 L 11.0 94.0 L 10.0 95.0 L 9.0 96.0 L 8.0 97.0 L 7.0 98.0 L 6.333333333333333 99.0 L 5.666666666666667 100.0 L 5.333333333333333 101.0 L 4.666666666666667 102.0 L 4.333333333333333 103.0 L 4.0 104.0 L 4.0 105.0 L 4.0 106.0 L 4.0 107.0 L 4.0 108.0 L 4.0 109.0 L 4.0 110.0 L 4.0 111.0 L 4.0 112.0 L 4.0 113.0 L 4.0 114.0 L 4.0 115.0 L 4.0 116.0 L 4.0 117.0 L 4.0 118.0 L 4.0 119.0 L 4.0 120.0 L 4.0 121.0 L 4.0 122.0 L 4.0 123.0 L 4.333333333333333 123.66666666666667 L 5.0 124.0 L 6.0 124.0 L 7.0 124.0 L 8.0 124.0 L 9.0 124.0 L 10.0 124.0 L 11.0 124.0 L 12.0 124.0 L 12.666666666666666 123.66666666666667 L 13.0 123.0 L 13.0 122.0 L 13.0 121.0 L 13.0 120.0 L 13.0 119.0 L 13.0 118.0 L 13.0 117.0 L 13.333333333333334 116.0 L 13.666666666666666 115.0 L 14.0 114.0 L 14.0 113.0 L 13.666666666666666 112.0 L 13.333333333333334 111.0 L 13.0 110.0 L 13.0 109.0 L 13.0 108.0 L 13.333333333333334 107.0 L 13.666666666666666 106.0 L 14.0 105.0 L 14.0 104.0 L 14.333333333333334 103.0 L 14.666666666666666 102.0 L 15.333333333333334 101.0 L 16.0 100.0 L 17.0 99.0 L 18.0 98.0 L 19.0 97.0 L 20.0 96.0 L 21.0 95.0 L 22.0 94.33333333333333 L 23.0 93.66666666666667 L 23.5 93.5 Z" stroke="none" fill="rgb(211,239,252)" />
<path d="M 95.5 108.0 L 96.0 107.66666666666667 L 97.0 107.33333333333333 L 98.0 106.66666666666667 L 98.66666666666667 106.0 L 99.0 105.0 L 98.66666666666667 104.0 L 98.0 103.33333333333333 L 97.0 102.66666666666667 L 96.0 102.33333333333333 L 95.0 102.0 L 94.0 101.66666666666667 L 93.0 101.0 L 92.0 100.0 L 91.0 99.0 L 90.0 98.0 L 89.0 97.0 L 88.0 96.0 L 87.0 95.0 L 86.0 94.33333333333333 L 85.0 93.66666666666667 L 84.0 93.0 L 83.0 92.33333333333333 L 82.0 92.0 L 81.0 92.0 L 80.0 92.33333333333333 L 79.0 92.66666666666667 L 78.0 93.33333333333333 L 77.0 93.66666666666667 L 76.0 94.33333333333333 L 75.0 94.66666666666667 L 74.33333333333333 95.33333333333333 L 74.0 96.0 L 74.0 97.0 L 74.0 98.0 L 74.0 99.0 L 74.33333333333333 100.0 L 75.0 101.0 L 76.0 102.0 L 76.66666666666667 103.0 L 77.33333333333333 104.0 L 77.66666666666667 105.0 L 78.0 106.0 L 78.0 107.0 L 78.0 108.0 L 78.0 109.0 L 78.0 110.0 L 77.66666666666667 111.0 L 77.33333333333333 112.0 L 77.0 113.0 L 76.66666666666667 114.0 L 76.33333333333333 115.0 L 75.66666666666667 116.0 L 75.33333333333333 117.0 L 74.66666666666667 118.0 L 74.33333333333333 119.0 L 73.66666666666667 120.0 L 73.33333333333333 121.0 L 73.0 122.0 L 73.0 123.0 L 73.33333333333333 123.66666666666667 L 74.0 124.0 L 75.0 124.0 L 76.0 124.0 L 77.0 124.0 L 78.0 124.0 L 79.0 124.0 L 80.0 124.0 L 81.0 124.0 L 81.66666666666667 123.66666666666667 L 82.0 123.0 L 82.33333333333333 122.0 L 82.66666666666667 121.0 L 83.33333333333333 120.0 L 83.66666666666667 119.0 L 84.33333333333333 118.0 L 85.0 117.0 L 86.0 116.0 L 87.0 115.0 L 88.0 114.33333333333333 L 89.0 114.0 L 90.0 114.0 L 91.0 114.0 L 91.66666666666667 113.66666666666667 L 92.0 113.0 L 92.0 112.0 L 92.33333333333333 111.0 L 93.0 110.0 L 94.0 109.0 L 94.5 108.5 Z" stroke="none" fill="rgb(244,245,247)" />
<path d="M 95.5 124.0 L 96.0 124.0 L 97.0 124.0 L 98.0 124.0 L 99.0 124.0 L 100.0 124.0 L 101.0 124.0 L 102.0 124.0 L 103.0 124.0 L 104.0 124.0 L 105.0 124.0 L 106.0 124.0 L 107.0 124.0 L 108.0 124.0 L 109.0 124.0 L 110.0 124.0 L 111.0 124.0 L 112.0 124.0 L 112.66666666666667 123.66666666666667 L 113.0 123.0 L 113.0 122.0 L 113.0 121.0 L 113.33333333333333 120.0 L 113.66666666666667 119.0 L 113.66666666666667 118.0 L 113.33333333333333 117.0 L 113.0 116.0 L 112.66666666666667 115.0 L 112.33333333333333 114.0 L 111.66666666666667 113.0 L 111.0 112.0 L 110.0 111.0 L 109.0 110.0 L 108.0 109.0 L 107.0 108.0 L 106.0 107.33333333333333 L 105.0 107.0 L 104.0 106.66666666666667 L 103.0 106.0 L 102.0 105.33333333333333 L 101.0 105.0 L 100.0 105.0 L 99.0 105.33333333333333 L 98.0 106.0 L 97.0 106.66666666666667 L 96.0 107.33333333333333 L 95.0 107.66666666666667 L 94.0 108.33333333333333 L 93.0 109.0 L 92.33333333333333 110.0 L 92.0 111.0 L 92.0 112.0 L 91.66666666666667 113.0 L 91.33333333333333 114.0 L 91.0 115.0 L 90.66666666666667 116.0 L 90.0 116.33333333333333 L 89.33333333333333 116.0 L 89.0 115.0 L 88.66666666666667 114.33333333333333 L 88.0 114.0 L 87.0 114.33333333333333 L 86.0 115.0 L 85.0 116.0 L 84.33333333333333 117.0 L 83.66666666666667 118.0 L 83.33333333333333 119.0 L 82.66666666666667 120.0 L 82.33333333333333 121.0 L 82.0 122.0 L 82.0 123.0 L 82.33333333333333 123.66666666666667 L 83.0 124.0 L 84.0 124.0 L 85.0 124.0 L 86.0 124.0 L 87.0 124.0 L 88.0 124.0 L 89.0 124.0 L 90.0 124.0 L 91.0 124.0 L 92.0 124.0 L 93.0 124.0 L 94.0 124.0 L 94.5 124.0 Z" stroke="none" fill="rgb(236,239,241)" />
<path d="M 24.5 103.5 L 25.0 103.33333333333333 L 26.0 103.0 L 27.0 102.66666666666667 L 28.0 102.33333333333333 L 29.0 101.66666666666667 L 30.0 101.33333333333333 L 31.0 100.66666666666667 L 32.0 100.33333333333333 L 33.0 100.0 L 34.0 100.0 L 35.0 99.66666666666667 L 36.0 99.33333333333333 L 37.0 98.66666666666667 L 38.0 98.0 L 39.0 97.0 L 40.0 96.0 L 41.0 95.0 L 42.0 94.33333333333333 L 43.0 93.66666666666667 L 44.0 93.0 L 45.0 92.33333333333333 L 45.666666666666664 91.66666666666667 L 45.666666666666664 91.0 L 45.0 90.33333333333333 L 44.0 89.66666666666667 L 43.0 89.0 L 42.0 88.0 L 41.0 87.0 L 40.0 86.0 L 39.0 85.33333333333333 L 38.0 85.0 L 37.0 85.33333333333333 L 36.0 86.0 L 35.0 86.66666666666667 L 34.0 87.33333333333333 L 33.0 87.66666666666667 L 32.0 88.33333333333333 L 31.0 88.66666666666667 L 30.0 89.33333333333333 L 29.0 89.66666666666667 L 28.0 90.33333333333333 L 27.0 90.66666666666667 L 26.0 91.33333333333333 L 25.0 91.66666666666667 L 24.0 92.33333333333333 L 23.0 93.0 L 22.0 93.66666666666667 L 21.0 94.33333333333333 L 20.0 95.0 L 19.0 96.0 L 18.0 97.0 L 17.0 98.0 L 16.0 99.0 L 15.333333333333334 100.0 L 14.666666666666666 101.0 L 14.333333333333334 102.0 L 14.0 103.0 L 14.0 104.0 L 13.666666666666666 105.0 L 13.333333333333334 106.0 L 13.0 107.0 L 13.0 108.0 L 13.0 109.0 L 13.0 110.0 L 13.0 111.0 L 13.333333333333334 112.0 L 14.0 112.66666666666667 L 15.0 112.66666666666667 L 16.0 112.0 L 16.666666666666668 111.0 L 17.0 110.0 L 17.333333333333332 109.0 L 18.0 108.0 L 19.0 107.33333333333333 L 20.0 106.66666666666667 L 21.0 106.0 L 22.0 105.33333333333333 L 23.0 104.66666666666667 L 23.5 104.5 Z" stroke="none" fill="rgb(255,255,255)" />
<path d="M 26.5 124.0 L 27.0 124.0 L 28.0 124.0 L 29.0 124.0 L 30.0 124.0 L 30.666666666666668 123.66666666666667 L 31.0 123.0 L 31.0 122.0 L 31.0 121.0 L 31.0 120.0 L 31.333333333333332 119.0 L 31.666666666666668 118.0 L 32.0 117.0 L 32.0 116.0 L 32.333333333333336 115.0 L 32.666666666666664 114.0 L 33.333333333333336 113.0 L 34.0 112.0 L 35.0 111.33333333333333 L 35.666666666666664 110.66666666666667 L 36.0 110.0 L 36.0 109.0 L 36.0 108.0 L 35.666666666666664 107.0 L 35.333333333333336 106.0 L 35.0 105.0 L 35.0 104.0 L 35.0 103.0 L 34.666666666666664 102.33333333333333 L 34.0 102.0 L 33.0 102.0 L 32.0 102.33333333333333 L 31.0 102.66666666666667 L 30.0 103.33333333333333 L 29.0 103.66666666666667 L 28.0 104.33333333333333 L 27.0 104.66666666666667 L 26.0 105.33333333333333 L 25.0 105.66666666666667 L 24.0 106.33333333333333 L 23.0 107.0 L 22.0 108.0 L 21.0 108.66666666666667 L 20.0 109.33333333333333 L 19.0 110.0 L 18.333333333333332 111.0 L 17.666666666666668 112.0 L 17.0 113.0 L 16.333333333333332 114.0 L 15.666666666666666 115.0 L 15.333333333333334 116.0 L 15.0 117.0 L 15.0 118.0 L 15.0 119.0 L 15.0 120.0 L 15.0 121.0 L 15.0 122.0 L 15.0 123.0 L 15.333333333333334 123.66666666666667 L 16.0 124.0 L 17.0 124.0 L 18.0 124.0 L 19.0 124.0 L 20.0 124.0 L 21.0 124.0 L 22.0 124.0 L 23.0 124.0 L 24.0 124.0 L 25.0 124.0 L 25.5 124.0 Z" stroke="none" fill="rgb(244,245,247)" />
<path d="M 122.5 112.5 L 123.0 112.0 L 123.66666666666667 111.0 L 124.0 110.0 L 124.0 109.0 L 124.0 108.0 L 124.0 107.0 L 124.0 106.0 L 124.0 105.0 L 124.0 104.0 L 124.0 103.0 L 124.0 102.0 L 124.0 101.0 L 124.0 100.0 L 124.0 99.0 L 124.0 98.0 L 124.0 97.0 L 124.0 96.0 L 124.0 95.0 L 124.0 94.0 L 124.0 93.0 L 124.0 92.0 L 123.66666666666667 91.33333333333333 L 123.0 91.0 L 122.0 91.33333333333333 L 121.0 92.0 L 120.0 93.0 L 119.0 94.0 L 118.0 95.0 L 117.0 96.0 L 116.0 97.0 L 115.0 98.0 L 114.0 99.0 L 113.0 99.66666666666667 L 112.0 100.33333333333333 L 111.0 100.66666666666667 L 110.0 101.33333333333333 L 109.0 101.66666666666667 L 108.0 102.33333333333333 L 107.0 102.66666666666667 L 106.33333333333333 103.33333333333333 L 106.0 104.0 L 106.0 105.0 L 106.33333333333333 106.0 L 107.0 106.66666666666667 L 108.0 107.33333333333333 L 109.0 108.0 L 110.0 109.0 L 111.0 110.0 L 112.0 111.0 L 113.0 112.0 L 113.66666666666667 113.0 L 114.33333333333333 114.0 L 115.0 115.0 L 116.0 115.66666666666667 L 117.0 115.66666666666667 L 118.0 115.33333333333333 L 119.0 114.66666666666667 L 120.0 114.0 L 121.0 113.33333333333333 L 121.5 113.0 Z" stroke="none" fill="rgb(59,188,247)" />
<path d="M 101.5 48.5 L 101.66666666666667 48.0 L 101.66666666666667 47.0 L 101.33333333333333 46.0 L 101.0 45.0 L 101.0 44.0 L 101.0 43.0 L 101.0 42.0 L 100.66666666666667 41.0 L 100.33333333333333 40.0 L 100.0 39.0 L 100.0 38.0 L 100.0 37.0 L 100.0 36.0 L 100.0 35.0 L 100.0 34.0 L 100.0 33.0 L 99.66666666666667 32.0 L 99.33333333333333 31.0 L 99.0 30.0 L 99.0 29.0 L 98.66666666666667 28.0 L 98.33333333333333 27.0 L 98.0 26.0 L 98.0 25.0 L 97.66666666666667 24.0 L 97.0 23.333333333333332 L 96.0 23.0 L 95.0 23.0 L 94.0 23.0 L 93.0 23.333333333333332 L 92.0 23.666666666666668 L 91.33333333333333 24.333333333333332 L 91.0 25.0 L 91.33333333333333 26.0 L 92.0 27.0 L 92.66666666666667 28.0 L 93.33333333333333 29.0 L 93.66666666666667 30.0 L 94.33333333333333 31.0 L 94.66666666666667 32.0 L 95.0 33.0 L 95.33333333333333 34.0 L 95.66666666666667 35.0 L 96.0 36.0 L 96.0 37.0 L 96.33333333333333 38.0 L 96.66666666666667 39.0 L 97.0 40.0 L 97.0 41.0 L 97.0 42.0 L 97.0 43.0 L 97.33333333333333 44.0 L 97.66666666666667 45.0 L 98.0 46.0 L 98.33333333333333 47.0 L 98.66666666666667 48.0 L 99.33333333333333 48.666666666666664 L 100.0 49.0 L 100.5 49.0 Z" stroke="none" fill="rgb(128,126,125)" />
<path d="M 59.5 83.0 L 60.0 83.0 L 61.0 83.33333333333333 L 62.0 83.66666666666667 L 63.0 84.0 L 64.0 84.0 L 65.0 84.0 L 66.0 84.0 L 67.0 84.0 L 68.0 83.66666666666667 L 69.0 83.33333333333333 L 70.0 83.0 L 71.0 82.66666666666667 L 72.0 82.0 L 73.0 81.0 L 74.0 80.0 L 74.66666666666667 79.0 L 75.0 78.0 L 75.0 77.0 L 74.66666666666667 76.33333333333333 L 74.0 76.0 L 73.0 76.0 L 72.0 76.33333333333333 L 71.0 76.66666666666667 L 70.0 77.0 L 69.0 77.0 L 68.0 77.0 L 67.0 77.0 L 66.0 77.0 L 65.0 77.0 L 64.0 77.0 L 63.0 77.0 L 62.0 77.0 L 61.0 77.0 L 60.0 77.0 L 59.0 77.0 L 58.0 77.0 L 57.333333333333336 77.33333333333333 L 57.0 78.0 L 57.0 79.0 L 57.0 80.0 L 57.0 81.0 L 57.333333333333336 82.0 L 58.0 82.66666666666667 L 58.5 83.0 Z" stroke="none" fill="rgb(26,23,23)" />
<path d="M 65.5 124.0 L 66.0 124.0 L 67.0 124.0 L 68.0 124.0 L 69.0 124.0 L 70.0 124.0 L 71.0 124.0 L 72.0 124.0 L 72.66666666666667 123.66666666666667 L 73.0 123.0 L 73.33333333333333 122.0 L 73.66666666666667 121.0 L 74.33333333333333 120.0 L 74.66666666666667 119.0 L 74.66666666666667 118.0 L 74.0 117.33333333333333 L 73.0 117.0 L 72.0 117.0 L 71.0 117.0 L 70.0 117.0 L 69.0 117.0 L 68.0 117.0 L 67.0 117.0 L 66.0 117.0 L 65.0 117.0 L 64.0 117.0 L 63.0 117.0 L 62.0 117.0 L 61.0 117.0 L 60.0 117.0 L 59.333333333333336 117.33333333333333 L 59.0 118.0 L 59.0 119.0 L 59.0 120.0 L 59.0 121.0 L 59.0 122.0 L 59.0 123.0 L 59.333333333333336 123.66666666666667 L 60.0 124.0 L 61.0 124.0 L 62.0 124.0 L 63.0 124.0 L 64.0 124.0 L 64.5 124.0 Z" stroke="none" fill="rgb(154,135,129)" />
<path d="M 91.5 34.5 L 92.0 35.0 L 93.0 36.0 L 93.66666666666667 37.0 L 94.33333333333333 38.0 L 94.66666666666667 39.0 L 95.33333333333333 40.0 L 96.0 40.666666666666664 L 96.66666666666667 40.666666666666664 L 97.0 40.0 L 97.0 39.0 L 96.66666666666667 38.0 L 96.33333333333333 37.0 L 96.0 36.0 L 96.0 35.0 L 95.66666666666667 34.0 L 95.33333333333333 33.0 L 95.0 32.0 L 94.66666666666667 31.0 L 94.33333333333333 30.0 L 93.66666666666667 29.0 L 93.33333333333333 28.0 L 92.66666666666667 27.0 L 92.0 26.0 L 91.66666666666667 25.0 L 92.0 24.333333333333332 L 92.66666666666667 23.666666666666668 L 92.66666666666667 23.333333333333332 L 92.0 23.0 L 91.0 23.0 L 90.0 23.0 L 89.0 23.0 L 88.0 23.0 L 87.0 23.333333333333332 L 86.0 24.0 L 85.33333333333333 25.0 L 85.0 26.0 L 85.33333333333333 27.0 L 86.0 28.0 L 87.0 29.0 L 88.0 30.0 L 89.0 31.0 L 90.0 32.0 L 90.66666666666667 33.0 L 91.0 33.5 Z" stroke="none" fill="rgb(113,113,113)" />
<path d="M 40.5 53.0 L 41.0 53.0 L 42.0 53.0 L 43.0 53.0 L 44.0 53.0 L 45.0 53.0 L 46.0 52.666666666666664 L 47.0 52.333333333333336 L 48.0 52.0 L 49.0 52.0 L 50.0 52.333333333333336 L 51.0 52.666666666666664 L 52.0 53.0 L 53.0 53.0 L 54.0 53.0 L 54.666666666666664 52.666666666666664 L 55.0 52.0 L 55.0 51.0 L 54.666666666666664 50.0 L 54.0 49.0 L 53.0 48.333333333333336 L 52.0 47.666666666666664 L 51.0 47.333333333333336 L 50.0 47.0 L 49.0 47.0 L 48.0 47.0 L 47.0 47.0 L 46.0 47.333333333333336 L 45.0 47.666666666666664 L 44.0 48.0 L 43.0 48.333333333333336 L 42.0 48.666666666666664 L 41.0 49.333333333333336 L 40.333333333333336 50.0 L 40.0 51.0 L 40.0 52.0 L 40.0 52.5 Z" stroke="none" fill="rgb(26,23,23)" />
<path d="M 40.5 102.5 L 41.0 102.0 L 42.0 101.0 L 43.0 100.0 L 44.0 99.33333333333333 L 45.0 98.66666666666667 L 46.0 98.0 L 47.0 97.0 L 48.0 96.0 L 48.666666666666664 95.0 L 49.0 94.0 L 48.666666666666664 93.0 L 48.0 92.33333333333333 L 47.0 92.0 L 46.0 92.0 L 45.0 92.0 L 44.0 92.33333333333333 L 43.0 93.0 L 42.0 93.66666666666667 L 41.0 94.33333333333333 L 40.0 95.0 L 39.0 96.0 L 38.0 97.0 L 37.333333333333336 98.0 L 37.0 99.0 L 37.0 100.0 L 37.0 101.0 L 37.0 102.0 L 37.0 103.0 L 37.333333333333336 103.66666666666667 L 38.0 104.0 L 39.0 103.66666666666667 L 39.5 103.5 Z" stroke="none" fill="rgb(244,245,247)" />
<path d="M 87.5 53.0 L 87.66666666666667 52.666666666666664 L 88.0 52.0 L 88.0 51.0 L 87.66666666666667 50.0 L 87.0 49.333333333333336 L 86.0 48.666666666666664 L 85.0 48.0 L 84.0 47.333333333333336 L 83.0 47.0 L 82.0 47.0 L 81.0 47.0 L 80.0 47.0 L 79.0 47.333333333333336 L 78.0 47.666666666666664 L 77.0 48.0 L 76.0 48.333333333333336 L 75.0 48.666666666666664 L 74.0 49.333333333333336 L 73.33333333333333 50.0 L 73.0 51.0 L 73.0 52.0 L 73.33333333333333 52.666666666666664 L 74.0 53.0 L 75.0 53.0 L 76.0 53.0 L 77.0 53.0 L 78.0 52.666666666666664 L 79.0 52.333333333333336 L 80.0 52.0 L 81.0 52.0 L 82.0 52.0 L 83.0 52.333333333333336 L 84.0 52.666666666666664 L 85.0 53.0 L 86.0 53.0 L 86.5 53.0 Z" stroke="none" fill="rgb(26,23,23)" />
<path d="M 26.5 62.5 L 26.666666666666668 63.0 L 27.333333333333332 64.0 L 27.666666666666668 65.0 L 28.333333333333332 66.0 L 29.0 67.0 L 30.0 67.66666666666667 L 30.666666666666668 67.66666666666667 L 31.0 67.0 L 31.0 66.0 L 31.0 65.0 L 31.333333333333332 64.0 L 31.666666666666668 63.0 L 32.0 62.0 L 32.333333333333336 61.0 L 32.666666666666664 60.0 L 33.0 59.0 L 33.0 58.0 L 33.333333333333336 57.0 L 33.666666666666664 56.0 L 33.666666666666664 55.0 L 33.0 54.333333333333336 L 32.0 54.0 L 31.0 54.0 L 30.0 54.0 L 29.0 54.333333333333336 L 28.0 55.0 L 27.0 56.0 L 26.333333333333332 57.0 L 26.0 58.0 L 26.0 59.0 L 26.0 60.0 L 26.0 61.0 L 26.0 61.5 Z" stroke="none" fill="rgb(145,142,141)" />
<path d="M 30.0 103.5 L 30.333333333333332 103.0 L 31.0 102.33333333333333 L 32.0 102.0 L 33.0 102.0 L 34.0 102.0 L 35.0 101.66666666666667 L 36.0 101.33333333333333 L 36.666666666666664 100.66666666666667 L 37.0 100.0 L 36.666666666666664 99.33333333333333 L 36.0 99.0 L 35.0 99.33333333333333 L 34.0 99.66666666666667 L 33.0 100.0 L 32.0 100.0 L 31.0 100.33333333333333 L 30.0 100.66666666666667 L 29.0 101.33333333333333 L 28.0 101.66666666666667 L 27.0 102.33333333333333 L 26.0 102.66666666666667 L 25.0 103.0 L 24.0 103.33333333333333 L 23.0 104.0 L 22.0 104.66666666666667 L 21.0 105.33333333333333 L 20.0 106.0 L 19.0 106.66666666666667 L 18.0 107.33333333333333 L 17.333333333333332 108.0 L 17.0 109.0 L 17.333333333333332 109.66666666666667 L 18.0 109.66666666666667 L 19.0 109.33333333333333 L 20.0 108.66666666666667 L 21.0 108.0 L 22.0 107.0 L 23.0 106.33333333333333 L 24.0 106.0 L 25.0 106.0 L 26.0 105.66666666666667 L 27.0 105.33333333333333 L 28.0 104.66666666666667 L 29.0 104.33333333333333 L 29.5 104.0 Z" stroke="none" fill="rgb(225,230,233)" />
<path d="M 106.5 108.5 L 107.0 109.0 L 108.0 110.0 L 109.0 111.0 L 110.0 112.0 L 111.0 113.0 L 111.66666666666667 114.0 L 112.33333333333333 115.0 L 112.66666666666667 116.0 L 113.0 117.0 L 113.33333333333333 118.0 L 114.0 119.0 L 114.33333333333333 120.0 L 114.33333333333333 121.0 L 114.0 122.0 L 114.0 123.0 L 114.33333333333333 123.66666666666667 L 115.0 124.0 L 115.66666666666667 123.66666666666667 L 116.0 123.0 L 116.0 122.0 L 116.0 121.0 L 116.0 120.0 L 116.0 119.0 L 116.0 118.0 L 116.0 117.0 L 116.0 116.0 L 115.66666666666667 115.0 L 115.0 114.0 L 114.33333333333333 113.0 L 113.66666666666667 112.0 L 113.0 111.0 L 112.0 110.0 L 111.0 109.0 L 110.0 108.0 L 109.0 107.33333333333333 L 108.0 106.66666666666667 L 107.0 106.33333333333333 L 106.33333333333333 106.33333333333333 L 106.0 107.0 L 106.0 107.5 Z" stroke="none" fill="rgb(209,215,219)" />
<path d="M 98.5 70.5 L 99.0 70.0 L 100.0 69.0 L 100.66666666666667 68.0 L 101.33333333333333 67.0 L 101.66666666666667 66.0 L 102.0 65.0 L 102.0 64.0 L 102.0 63.0 L 102.0 62.0 L 102.0 61.0 L 101.66666666666667 60.0 L 101.0 59.333333333333336 L 100.0 59.0 L 99.0 59.333333333333336 L 98.33333333333333 60.0 L 97.66666666666667 61.0 L 97.33333333333333 62.0 L 96.66666666666667 63.0 L 96.33333333333333 64.0 L 96.0 65.0 L 96.0 66.0 L 96.0 67.0 L 96.0 68.0 L 96.0 69.0 L 96.0 70.0 L 96.33333333333333 70.66666666666667 L 97.0 71.0 L 97.5 71.0 Z" stroke="none" fill="rgb(133,115,109)" />
<path d="M 14.5 124.0 L 14.666666666666666 123.66666666666667 L 15.0 123.0 L 15.0 122.0 L 15.0 121.0 L 15.0 120.0 L 15.0 119.0 L 15.0 118.0 L 15.333333333333334 117.0 L 15.666666666666666 116.0 L 16.333333333333332 115.0 L 17.0 114.0 L 17.666666666666668 113.0 L 18.333333333333332 112.0 L 19.0 111.0 L 19.666666666666668 110.0 L 19.666666666666668 109.33333333333333 L 19.0 109.0 L 18.0 109.33333333333333 L 17.0 110.0 L 16.0 111.0 L 15.0 112.0 L 14.333333333333334 113.0 L 13.666666666666666 114.0 L 13.333333333333334 115.0 L 13.0 116.0 L 13.0 117.0 L 13.0 118.0 L 13.0 119.0 L 13.0 120.0 L 13.0 121.0 L 13.0 122.0 L 13.0 123.0 L 13.333333333333334 123.66666666666667 L 13.5 124.0 Z" stroke="none" fill="rgb(236,239,241)" />
<path d="M 75.5 62.5 L 76.0 62.666666666666664 L 77.0 63.333333333333336 L 78.0 63.666666666666664 L 79.0 64.0 L 80.0 64.0 L 81.0 64.0 L 82.0 64.0 L 83.0 63.666666666666664 L 84.0 63.0 L 84.66666666666667 62.0 L 85.0 61.0 L 84.66666666666667 60.333333333333336 L 84.0 60.0 L 83.0 60.0 L 82.0 60.0 L 81.0 60.0 L 80.0 60.0 L 79.0 60.0 L 78.0 60.0 L 77.0 60.0 L 76.0 60.0 L 75.33333333333333 60.333333333333336 L 75.0 61.0 L 75.0 61.5 Z" stroke="none" fill="rgb(26,23,23)" />
<path d="M 99.5 51.0 L 99.66666666666667 50.666666666666664 L 100.0 50.0 L 99.66666666666667 49.0 L 99.33333333333333 48.0 L 98.66666666666667 47.0 L 98.33333333333333 46.0 L 98.0 45.0 L 97.66666666666667 44.0 L 97.0 43.333333333333336 L 96.0 43.0 L 95.33333333333333 43.333333333333336 L 95.0 44.0 L 95.0 45.0 L 95.0 46.0 L 95.0 47.0 L 95.0 48.0 L 95.0 49.0 L 95.0 50.0 L 95.0 51.0 L 95.33333333333333 51.666666666666664 L 96.0 51.666666666666664 L 97.0 51.333333333333336 L 98.0 51.0 L 98.5 51.0 Z" stroke="none" fill="rgb(44,39,38)" />
<path d="M 99.5 59.5 L 100.0 59.333333333333336 L 100.66666666666667 58.666666666666664 L 101.0 58.0 L 100.66666666666667 57.0 L 100.33333333333333 56.0 L 100.0 55.0 L 100.0 54.0 L 100.0 53.0 L 100.0 52.0 L 99.66666666666667 51.333333333333336 L 99.0 51.0 L 98.33333333333333 51.333333333333336 L 98.0 52.0 L 98.0 53.0 L 98.0 54.0 L 97.66666666666667 55.0 L 97.33333333333333 56.0 L 97.0 57.0 L 96.66666666666667 58.0 L 96.33333333333333 59.0 L 96.0 60.0 L 96.0 61.0 L 96.33333333333333 61.666666666666664 L 97.0 62.0 L 97.66666666666667 61.666666666666664 L 98.33333333333333 61.0 L 98.5 60.5 Z" stroke="none" fill="rgb(58,54,53)" />
<path d="M 40.5 122.0 L 40.666666666666664 121.66666666666667 L 41.0 121.0 L 40.666666666666664 120.0 L 40.333333333333336 119.0 L 40.0 118.0 L 39.666666666666664 117.0 L 39.0 116.0 L 38.333333333333336 115.0 L 38.0 114.0 L 38.0 113.0 L 38.0 112.0 L 37.666666666666664 111.0 L 37.0 110.33333333333333 L 36.0 110.33333333333333 L 35.333333333333336 111.0 L 35.333333333333336 112.0 L 35.666666666666664 113.0 L 36.0 114.0 L 36.0 115.0 L 36.333333333333336 116.0 L 36.666666666666664 117.0 L 37.333333333333336 118.0 L 37.666666666666664 119.0 L 38.333333333333336 120.0 L 38.666666666666664 121.0 L 39.333333333333336 121.66666666666667 L 39.5 122.0 Z" stroke="none" fill="rgb(225,230,233)" />
<path d="M 56.5 124.0 L 57.0 124.0 L 58.0 124.0 L 58.666666666666664 123.66666666666667 L 59.0 123.0 L 59.0 122.0 L 59.0 121.0 L 59.0 120.0 L 59.0 119.0 L 58.666666666666664 118.0 L 58.0 117.33333333333333 L 57.0 117.0 L 56.0 117.0 L 55.0 117.0 L 54.333333333333336 117.33333333333333 L 54.0 118.0 L 54.0 119.0 L 54.0 120.0 L 54.333333333333336 121.0 L 54.666666666666664 122.0 L 55.0 123.0 L 55.333333333333336 123.66666666666667 L 55.5 124.0 Z" stroke="none" fill="rgb(97,72,64)" />
<path d="M 61.5 72.0 L 62.0 72.0 L 63.0 72.0 L 64.0 72.0 L 65.0 72.0 L 66.0 72.0 L 67.0 71.66666666666667 L 67.66666666666667 71.0 L 68.0 70.0 L 68.0 69.0 L 67.66666666666667 68.33333333333333 L 67.0 68.0 L 66.0 68.0 L 65.0 68.0 L 64.0 68.0 L 63.0 68.0 L 62.0 68.0 L 61.0 68.0 L 60.333333333333336 68.33333333333333 L 60.0 69.0 L 60.0 70.0 L 60.333333333333336 71.0 L 60.5 71.5 Z" stroke="none" fill="rgb(44,39,38)" />
<path d="M 49.5 64.0 L 50.0 64.0 L 50.666666666666664 63.666666666666664 L 51.0 63.0 L 50.666666666666664 62.0 L 50.0 61.333333333333336 L 49.0 60.666666666666664 L 48.0 60.333333333333336 L 47.0 60.0 L 46.0 60.0 L 45.0 60.0 L 44.0 60.0 L 43.333333333333336 60.333333333333336 L 43.0 61.0 L 43.333333333333336 62.0 L 44.0 63.0 L 45.0 63.666666666666664 L 46.0 64.0 L 47.0 64.0 L 48.0 64.0 L 48.5 64.0 Z" stroke="none" fill="rgb(128,126,125)" />
<path d="M 98.0 55.5 L 98.0 55.0 L 98.0 54.0 L 98.0 53.0 L 98.0 52.0 L 97.66666666666667 51.333333333333336 L 97.0 51.0 L 96.33333333333333 51.333333333333336 L 96.0 52.0 L 95.66666666666667 53.0 L 95.33333333333333 54.0 L 95.0 55.0 L 95.0 56.0 L 95.0 57.0 L 95.0 58.0 L 95.33333333333333 58.666666666666664 L 96.0 59.0 L 96.66666666666667 58.666666666666664 L 97.0 58.0 L 97.33333333333333 57.0 L 97.5 56.5 Z" stroke="none" fill="rgb(51,46,45)" />
<path d="M 57.0 81.5 L 57.0 81.0 L 57.0 80.0 L 57.0 79.0 L 57.0 78.0 L 56.666666666666664 77.0 L 56.0 76.33333333333333 L 55.0 76.0 L 54.0 76.0 L 53.333333333333336 76.33333333333333 L 53.0 77.0 L 53.0 78.0 L 53.333333333333336 79.0 L 54.0 80.0 L 55.0 81.0 L 56.0 81.66666666666667 L 56.5 82.0 Z" stroke="none" fill="rgb(128,126,125)" />
<path d="M 56.0 101.5 L 56.0 101.0 L 56.0 100.0 L 56.0 99.0 L 56.0 98.0 L 56.0 97.0 L 56.0 96.0 L 55.666666666666664 95.33333333333333 L 55.0 95.0 L 54.333333333333336 95.33333333333333 L 54.0 96.0 L 54.0 97.0 L 54.0 98.0 L 54.0 99.0 L 54.0 100.0 L 54.0 101.0 L 54.333333333333336 101.66666666666667 L 55.0 102.0 L 55.5 102.0 Z" stroke="none" fill="rgb(79,59,53)" />
<path d="M 24.0 106.5 L 23.666666666666668 106.33333333333333 L 23.0 106.0 L 22.0 106.33333333333333 L 21.0 107.0 L 20.333333333333332 108.0 L 20.333333333333332 108.66666666666667 L 21.0 109.0 L 22.0 108.66666666666667 L 23.0 108.0 L 23.5 107.5 Z" stroke="none" fill="rgb(236,239,241)" />
<path d="M 91.0 116.5 L 91.0 116.0 L 91.0 115.0 L 90.66666666666667 114.33333333333333 L 90.0 114.0 L 89.33333333333333 114.33333333333333 L 89.0 115.0 L 89.0 116.0 L 89.0 117.0 L 89.33333333333333 117.66666666666667 L 90.0 117.66666666666667 L 90.5 117.5 Z" stroke="none" fill="rgb(209,215,219)" />
<path d="M 113.5 123.0 L 113.66666666666667 122.66666666666667 L 114.33333333333333 122.0 L 114.66666666666667 121.0 L 115.0 120.0 L 114.66666666666667 119.33333333333333 L 114.0 119.0 L 113.33333333333333 119.33333333333333 L 113.0 120.0 L 113.0 121.0 L 113.0 122.0 L 113.0 122.5 Z" stroke="none" fill="rgb(225,230,233)" />
<path d="M 88.5 122.5 L 88.66666666666667 122.0 L 89.0 121.0 L 88.66666666666667 120.33333333333333 L 88.0 120.0 L 87.33333333333333 120.33333333333333 L 86.66666666666667 121.0 L 86.33333333333333 122.0 L 86.33333333333333 122.66666666666667 L 87.0 123.0 L 87.5 123.0 Z" stroke="none" fill="rgb(225,230,233)" />
<path d="M 30.5 54.0 L 31.0 54.0 L 31.666666666666668 53.666666666666664 L 32.0 53.0 L 32.0 52.0 L 31.666666666666668 51.333333333333336 L 31.0 51.0 L 30.333333333333332 51.333333333333336 L 30.0 52.0 L 30.0 53.0 L 30.0 53.5 Z" stroke="none" fill="rgb(51,46,45)" />
<path d="M 52.0 61.5 L 52.0 61.0 L 51.666666666666664 60.333333333333336 L 51.0 60.0 L 50.333333333333336 60.333333333333336 L 50.0 61.0 L 50.333333333333336 61.666666666666664 L 51.0 62.0 L 51.5 62.0 Z" stroke="none" fill="rgb(26,23,23)" />
<path d="M 56.0 103.5 L 56.0 103.0 L 55.666666666666664 102.33333333333333 L 55.0 102.0 L 54.333333333333336 102.33333333333333 L 54.0 103.0 L 54.333333333333336 103.66666666666667 L 55.0 104.0 L 55.5 104.0 Z" stroke="none" fill="rgb(97,72,64)" />
<path d="M 72.5 104.0 L 73.0 104.0 L 73.66666666666667 103.66666666666667 L 74.0 103.0 L 73.66666666666667 102.33333333333333 L 73.0 102.0 L 72.33333333333333 102.33333333333333 L 72.0 103.0 L 72.0 103.5 Z" stroke="none" fill="rgb(154,135,129)" />
<path d="M 5.0 102.5 L 5.0 102.0 L 4.666666666666667 101.33333333333333 L 4.333333333333333 101.33333333333333 L 4.0 102.0 L 4.333333333333333 102.66666666666667 L 4.5 103.0 Z" stroke="none" fill="rgb(0,0,0)" />
<path d="M 31.5 103.0 L 31.666666666666668 102.66666666666667 L 31.666666666666668 102.33333333333333 L 31.0 102.0 L 30.333333333333332 102.33333333333333 L 30.333333333333332 102.66666666666667 L 30.5 103.0 Z" stroke="none" fill="rgb(236,239,241)" />
<path d="M 98.0 23.5 L 97.66666666666667 23.333333333333332 L 97.33333333333333 23.333333333333332 L 97.33333333333333 23.666666666666668 L 97.5 24.0 Z" stroke="none" fill="rgb(0,0,0)" />
<path d="M 25.0 105.5 L 24.666666666666668 105.33333333333333 L 24.333333333333332 105.33333333333333 L 24.333333333333332 105.66666666666667 L 24.5 106.0 Z" stroke="none" fill="rgb(236,239,241)" />
<path d="M 91.5 110.0 L 91.66666666666667 109.66666666666667 L 91.66666666666667 109.33333333333333 L 91.33333333333333 109.33333333333333 L 91.0 109.5 Z" stroke="none" fill="rgb(225,230,233)" />
<path d="M 113.5 124.0 L 113.66666666666667 123.66666666666667 L 113.66666666666667 123.33333333333333 L 113.33333333333333 123.33333333333333 L 113.0 123.5 Z" stroke="none" fill="rgb(0,0,0)" />
</svg>
