<?xml version="1.0" encoding="UTF-8" standalone="no"?>
<!DOCTYPE svg PUBLIC "-//W3C//DTD SVG 1.1//EN"
"http://www.w3.org/Graphics/SVG/1.1/DTD/svg11.dtd">
<svg width="128" height="128" xmlns="http://www.w3.org/2000/svg" version="1.1">
<path d="M 104.5 128.0 L 105.0 128.0 L 106.0 128.0 L 107.0 128.0 L 108.0 128.0 L 109.0 128.0 L 110.0 128.0 L 111.0 128.0 L 112.0 128.0 L 113.0 128.0 L 114.0 128.0 L 115.0 128.0 L 116.0 128.0 L 117.0 128.0 L 118.0 128.0 L 119.0 128.0 L 120.0 128.0 L 121.0 128.0 L 122.0 128.0 L 123.0 128.0 L 124.0 128.0 L 125.0 128.0 L 126.0 128.0 L 127.0 128.0 L 127.66666666666667 127.66666666666667 L 128.0 127.0 L 128.0 126.0 L 128.0 125.0 L 128.0 124.0 L 128.0 123.0 L 128.0 122.0 L 128.0 121.0 L 128.0 120.0 L 128.0 119.0 L 128.0 118.0 L 128.0 117.0 L 128.0 116.0 L 128.0 115.0 L 128.0 114.0 L 128.0 113.0 L 128.0 112.0 L 128.0 111.0 L 128.0 110.0 L 128.0 109.0 L 128.0 108.0 L 128.0 107.0 L 128.0 106.0 L 128.0 105.0 L 128.0 104.0 L 128.0 103.0 L 128.0 102.0 L 128.0 101.0 L 128.0 100.0 L 128.0 99.0 L 128.0 98.0 L 128.0 97.0 L 128.0 96.0 L 128.0 95.0 L 128.0 94.0 L 128.0 93.0 L 128.0 92.0 L 128.0 91.0 L 128.0 90.0 L 128.0 89.0 L 128.0 88.0 L 128.0 87.0 L 128.0 86.0 L 128.0 85.0 L 128.0 84.0 L 128.0 83.0 L 128.0 82.0 L 128.0 81.0 L 128.0 80.0 L 128.0 79.0 L 128.0 78.0 L 128.0 77.0 L 128.0 76.0 L 128.0 75.0 L 128.0 74.0 L 128.0 73.0 L 128.0 72.0 L 128.0 71.0 L 128.0 70.0 L 128.0 69.0 L 128.0 68.0 L 128.0 67.0 L 128.0 66.0 L 128.0 65.0 L 128.0 64.0 L 128.0 63.0 L 128.0 62.0 L 128.0 61.0 L 128.0 60.0 L 128.0 59.0 L 128.0 58.0 L 128.0 57.0 L 128.0 56.0 L 128.0 55.0 L 128.0 54.0 L 128.0 53.0 L 128.0 52.0 L 128.0 51.0 L 128.0 50.0 L 128.0 49.0 L 128.0 48.0 L 128.0 47.0 L 128.0 46.0 L 128.0 45.0 L 128.0 44.0 L 128.0 43.0 L 128.0 42.0 L 128.0 41.0 L 128.0 40.0 L 128.0 39.0 L 128.0 38.0 L 128.0 37.0 L 128.0 36.0 L 128.0 35.0 L 128.0 34.0 L 128.0 33.0 L 128.0 32.0 L 128.0 31.0 L 128.0 30.0 L 128.0 29.0 L 128.0 28.0 L 128.0 27.0 L 128.0 26.0 L 128.0 25.0 L 128.0 24.0 L 128.0 23.0 L 128.0 22.0 L 128.0 21.0 L 128.0 20.0 L 128.0 19.0 L 128.0 18.0 L 128.0 17.0 L 128.0 16.0 L 128.0 15.0 L 128.0 14.0 L 128.0 13.0 L 128.0 12.0 L 128.0 11.0 L 128.0 10.0 L 128.0 9.0 L 128.0 8.0 L 128.0 7.0 L 128.0 6.0 L 128.0 5.0 L 128.0 4.0 L 128.0 3.0 L 128.0 2.0 L 128.0 1.0 L 127.66666666666667 0.3333333333333333 L 127.0 0.0 L 126.0 0.0 L 125.0 0.0 L 124.0 0.0 L 123.0 0.0 L 122.0 0.0 L 121.0 0.0 L 120.0 0.0 L 119.0 0.0 L 118.0 0.0 L 117.0 0.0 L 116.0 0.0 L 115.0 0.0 L 114.0 0.0 L 113.0 0.0 L 112.0 0.0 L 111.0 0.0 L 110.0 0.0 L 109.0 0.0 L 108.0 0.0 L 107.0 0.0 L 106.0 0.0 L 105.0 0.0 L 104.0 0.0 L 103.0 0.0 L 102.0 0.0 L 101.0 0.0 L 100.0 0.0 L 99.0 0.0 L 98.0 0.0 L 97.0 0.0 L 96.0 0.0 L 95.0 0.0 L 94.0 0.0 L 93.0 0.0 L 92.0 0.0 L 91.0 0.0 L 90.0 0.0 L 89.0 0.0 L 88.0 0.0 L 87.0 0.0 L 86.0 0.0 L 85.0 0.0 L 84.0 0.0 L 83.0 0.0 L 82.0 0.0 L 81.0 0.0 L 80.0 0.0 L 79.0 0.0 L 78.0 0.0 L 77.0 0.0 L 76.0 0.0 L 75.0 0.0 L 74.0 0.0 L 73.0 0.0 L 72.0 0.0 L 71.0 0.0 L 70.0 0.0 L 69.0 0.0 L 68.0 0.0 L 67.0 0.0 L 66.0 0.0 L 65.0 0.0 L 64.0 0.0 L 63.0 0.0 L 62.0 0.0 L 61.0 0.0 L 60.0 0.0 L 59.0 0.0 L 58.0 0.0 L 57.0 0.0 L 56.0 0.0 L 55.0 0.0 L 54.0 0.0 L 53.0 0.0 L 52.0 0.0 L 51.0 0.0 L 50.0 0.0 L 49.0 0.0 L 48.0 0.0 L 47.0 0.0 L 46.0 0.0 L 45.0 0.0 L 44.0 0.0 L 43.0 0.0 L 42.0 0.0 L 41.0 0.0 L 40.0 0.0 L 39.0 0.0 L 38.0 0.0 L 37.0 0.0 L 36.0 0.0 L 35.0 0.0 L 34.0 0.0 L 33.0 0.0 L 32.0 0.0 L 31.0 0.0 L 30.0 0.0 L 29.0 0.0 L 28.0 0.0 L 27.0 0.0 L 26.0 0.0 L 25.0 0.0 L 24.0 0.0 L 23.0 0.0 L 22.0 0.0 L 21.0 0.0 L 20.0 0.0 L 19.0 0.0 L 18.0 0.0 L 17.0 0.0 L 16.0 0.0 L 15.0 0.0 L 14.0 0.0 L 13.0 0.0 L 12.0 0.0 L 11.0 0.0 L 10.0 0.0 L 9.0 0.0 L 8.0 0.0 L 7.0 0.0 L 6.0 0.0 L 5.0 0.0 L 4.0 0.0 L 3.0 0.0 L 2.0 0.0 L 1.0 0.0 L 0.3333333333333333 0.3333333333333333 L 0.0 1.0 L 0.0 2.0 L 0.0 3.0 L 0.0 4.0 L 0.0 5.0 L 0.0 6.0 L 0.0 7.0 L 0.0 8.0 L 0.0 9.0 L 0.0 10.0 L 0.0 11.0 L 0.0 12.0 L 0.0 13.0 L 0.0 14.0 L 0.0 15.0 L 0.0 16.0 L 0.0 17.0 L 0.0 18.0 L 0.0 19.0 L 0.0 20.0 L 0.0 21.0 L 0.0 22.0 L 0.0 23.0 L 0.0 24.0 L 0.0 25.0 L 0.0 26.0 L 0.0 27.0 L 0.0 28.0 L 0.0 29.0 L 0.0 30.0 L 0.0 31.0 L 0.0 32.0 L 0.0 33.0 L 0.0 34.0 L 0.0 35.0 L 0.0 36.0 L 0.0 37.0 L 0.0 38.0 L 0.0 39.0 L 0.0 40.0 L 0.0 41.0 L 0.0 42.0 L 0.0 43.0 L 0.0 44.0 L 0.0 45.0 L 0.0 46.0 L 0.0 47.0 L 0.0 48.0 L 0.0 49.0 L 0.0 50.0 L 0.0 51.0 L 0.0 52.0 L 0.0 53.0 L 0.0 54.0 L 0.0 55.0 L 0.0 56.0 L 0.0 57.0 L 0.0 58.0 L 0.0 59.0 L 0.0 60.0 L 0.0 61.0 L 0.0 62.0 L 0.0 63.0 L 0.0 64.0 L 0.0 65.0 L 0.0 66.0 L 0.0 67.0 L 0.0 68.0 L 0.0 69.0 L 0.0 70.0 L 0.0 71.0 L 0.0 72.0 L 0.0 73.0 L 0.0 74.0 L 0.0 75.0 L 0.0 76.0 L 0.0 77.0 L 0.0 78.0 L 0.0 79.0 L 0.0 80.0 L 0.0 81.0 L 0.0 82.0 L 0.0 83.0 L 0.0 84.0 L 0.0 85.0 L 0.0 86.0 L 0.0 87.0 L 0.0 88.0 L 0.0 89.0 L 0.0 90.0 L 0.0 91.0 L 0.0 92.0 L 0.0 93.0 L 0.0 94.0 L 0.0 95.0 L 0.0 96.0 L 0.0 97.0 L 0.0 98.0 L 0.0 99.0 L 0.0 100.0 L 0.0 101.0 L 0.0 102.0 L 0.0 103.0 L 0.0 104.0 L 0.0 105.0 L 0.0 106.0 L 0.0 107.0 L 0.0 108.0 L 0.0 109.0 L 0.0 110.0 L 0.0 111.0 L 0.0 112.0 L 0.0 113.0 L 0.0 114.0 L 0.0 115.0 L 0.0 116.0 L 0.0 117.0 L 0.0 118.0 L 0.0 119.0 L 0.0 120.0 L 0.0 121.0 L 0.0 122.0 L 0.0 123.0 L 0.0 124.0 L 0.0 125.0 L 0.0 126.0 L 0.0 127.0 L 0.3333333333333333 127.66666666666667 L 1.0 128.0 L 2.0 128.0 L 3.0 128.0 L 4.0 128.0 L 5.0 128.0 L 6.0 128.0 L 7.0 128.0 L 8.0 128.0 L 9.0 128.0 L 10.0 128.0 L 11.0 128.0 L 12.0 128.0 L 13.0 128.0 L 14.0 128.0 L 15.0 128.0 L 16.0 128.0 L 17.0 128.0 L 18.0 128.0 L 19.0 128.0 L 20.0 128.0 L 21.0 128.0 L 22.0 128.0 L 23.0 128.0 L 24.0 128.0 L 25.0 128.0 L 26.0 128.0 L 27.0 128.0 L 28.0 128.0 L 29.0 128.0 L 30.0 128.0 L 31.0 128.0 L 32.0 128.0 L 33.0 128.0 L 34.0 128.0 L 35.0 128.0 L 36.0 128.0 L 37.0 128.0 L 38.0 128.0 L 39.0 128.0 L 40.0 128.0 L 41.0 128.0 L 42.0 128.0 L 43.0 128.0 L 44.0 128.0 L 45.0 128.0 L 46.0 128.0 L 47.0 128.0 L 48.0 128.0 L 49.0 128.0 L 50.0 128.0 L 51.0 128.0 L 52.0 128.0 L 53.0 128.0 L 54.0 128.0 L 55.0 128.0 L 56.0 128.0 L 57.0 128.0 L 58.0 128.0 L 59.0 128.0 L 60.0 128.0 L 61.0 128.0 L 62.0 128.0 L 63.0 128.0 L 64.0 128.0 L 65.0 128.0 L 66.0 128.0 L 67.0 128.0 L 68.0 128.0 L 69.0 128.0 L 70.0 128.0 L 71.0 128.0 L 72.0 128.0 L 73.0 128.0 L 74.0 128.0 L 75.0 128.0 L 76.0 128.0 L 77.0 128.0 L 78.0 128.0 L 79.0 128.0 L 80.0 128.0 L 81.0 128.0 L 82.0 128.0 L 83.0 128.0 L 84.0 128.0 L 85.0 128.0 L 86.0 128.0 L 87.0 128.0 L 88.0 128.0 L 89.0 128.0 L 90.0 128.0 L 91.0 128.0 L 92.0 128.0 L 93.0 128.0 L 94.0 128.0 L 95.0 128.0 L 96.0 128.0 L 97.0 128.0 L 98.0 128.0 L 99.0 128.0 L 100.0 128.0 L 101.0 128.0 L 102.0 128.0 L 103.0 128.0 L 103.5 128.0 Z" stroke="none" fill="rgb(0,0,0)" />
<path d="M 88.5 60.0 L 89.0 60.0 L 90.0 60.0 L 91.0 60.0 L 92.0 60.0 L 93.0 60.0 L 94.0 60.0 L 95.0 60.0 L 96.0 60.0 L 97.0 60.0 L 98.0 60.0 L 99.0 59.666666666666664 L 100.0 59.0 L 101.0 58.0 L 102.0 57.0 L 103.0 56.0 L 103.66666666666667 55.0 L 104.0 54.0 L 104.0 53.0 L 104.0 52.0 L 104.0 51.0 L 104.0 50.0 L 104.0 49.0 L 104.0 48.0 L 104.0 47.0 L 104.0 46.0 L 104.0 45.0 L 104.0 44.0 L 104.0 43.0 L 104.0 42.0 L 104.0 41.0 L 104.0 40.0 L 104.0 39.0 L 104.0 38.0 L 104.0 37.0 L 104.0 36.0 L 104.0 35.0 L 104.0 34.0 L 104.0 33.0 L 104.0 32.0 L 104.0 31.0 L 104.0 30.0 L 104.0 29.0 L 104.0 28.0 L 104.0 27.0 L 104.0 26.0 L 104.0 25.0 L 104.0 24.0 L 104.0 23.0 L 104.0 22.0 L 104.0 21.0 L 104.0 20.0 L 104.0 19.0 L 104.0 18.0 L 104.0 17.0 L 104.0 16.0 L 103.66666666666667 15.0 L 103.33333333333333 14.0 L 102.66666666666667 13.0 L 102.0 12.333333333333334 L 101.0 11.666666666666666 L 100.0 11.333333333333334 L 99.0 10.666666666666666 L 98.0 10.333333333333334 L 97.0 10.0 L 96.0 10.0 L 95.0 10.0 L 94.0 10.0 L 93.0 10.0 L 92.0 10.0 L 91.0 10.0 L 90.0 10.0 L 89.0 10.0 L 88.0 10.0 L 87.0 10.0 L 86.0 10.0 L 85.0 10.0 L 84.0 10.0 L 83.0 10.0 L 82.0 10.0 L 81.0 10.0 L 80.0 10.0 L 79.0 10.0 L 78.0 10.0 L 77.0 10.0 L 76.0 10.0 L 75.0 10.0 L 74.0 10.0 L 73.0 10.0 L 72.0 10.0 L 71.0 10.0 L 70.0 10.0 L 69.0 10.0 L 68.0 10.0 L 67.0 10.0 L 66.0 10.0 L 65.0 10.0 L 64.0 10.0 L 63.0 10.0 L 62.0 10.0 L 61.0 10.0 L 60.0 10.0 L 59.0 10.0 L 58.0 10.0 L 57.0 10.0 L 56.0 10.0 L 55.0 10.0 L 54.0 10.0 L 53.0 10.0 L 52.0 10.0 L 51.0 10.0 L 50.0 10.0 L 49.0 10.0 L 48.0 10.0 L 47.0 10.0 L 46.0 10.0 L 45.0 10.0 L 44.0 10.0 L 43.0 10.0 L 42.0 10.0 L 41.0 10.0 L 40.0 10.0 L 39.0 10.0 L 38.0 10.0 L 37.0 10.0 L 36.0 10.0 L 35.0 10.0 L 34.0 10.0 L 33.0 10.0 L 32.0 10.333333333333334 L 31.0 10.666666666666666 L 30.0 11.0 L 29.0 11.333333333333334 L 28.0 12.0 L 27.333333333333332 13.0 L 26.666666666666668 14.0 L 26.333333333333332 15.0 L 25.666666666666668 16.0 L 25.333333333333332 17.0 L 25.0 18.0 L 25.0 19.0 L 25.0 20.0 L 25.0 21.0 L 25.0 22.0 L 25.0 23.0 L 25.0 24.0 L 25.0 25.0 L 25.0 26.0 L 25.0 27.0 L 25.0 28.0 L 25.0 29.0 L 25.0 30.0 L 25.0 31.0 L 25.0 32.0 L 25.0 33.0 L 25.0 34.0 L 25.0 35.0 L 25.0 36.0 L 25.0 37.0 L 25.0 38.0 L 25.0 39.0 L 25.0 40.0 L 25.0 41.0 L 25.0 42.0 L 25.0 43.0 L 25.0 44.0 L 25.0 45.0 L 25.0 46.0 L 25.0 47.0 L 25.0 48.0 L 25.0 49.0 L 25.0 50.0 L 25.0 51.0 L 25.0 52.0 L 25.0 53.0 L 25.333333333333332 54.0 L 26.0 55.0 L 27.0 56.0 L 28.0 57.0 L 29.0 58.0 L 30.0 58.666666666666664 L 31.0 59.333333333333336 L 32.0 59.666666666666664 L 33.0 60.0 L 34.0 60.0 L 35.0 60.0 L 36.0 60.0 L 37.0 60.0 L 38.0 60.0 L 39.0 60.0 L 40.0 60.0 L 41.0 60.0 L 42.0 60.0 L 42.666666666666664 59.666666666666664 L 43.0 59.0 L 43.333333333333336 58.0 L 44.0 57.0 L 45.0 56.333333333333336 L 46.0 56.0 L 47.0 56.333333333333336 L 48.0 57.0 L 48.666666666666664 58.0 L 49.0 59.0 L 49.333333333333336 59.666666666666664 L 50.0 60.0 L 51.0 60.0 L 52.0 60.0 L 53.0 60.0 L 54.0 60.0 L 55.0 60.0 L 56.0 60.0 L 57.0 60.0 L 58.0 60.0 L 59.0 60.0 L 60.0 60.0 L 61.0 60.0 L 62.0 60.0 L 63.0 60.0 L 64.0 60.0 L 65.0 60.0 L 66.0 60.0 L 67.0 60.0 L 68.0 60.0 L 69.0 60.0 L 70.0 60.0 L 71.0 60.0 L 72.0 60.0 L 73.0 60.0 L 74.0 60.0 L 75.0 60.0 L 76.0 60.0 L 77.0 60.0 L 78.0 60.0 L 79.0 60.0 L 80.0 60.0 L 80.66666666666667 59.666666666666664 L 81.33333333333333 59.0 L 81.66666666666667 58.0 L 82.33333333333333 57.0 L 83.0 56.333333333333336 L 84.0 56.0 L 85.0 56.333333333333336 L 86.0 57.0 L 86.66666666666667 58.0 L 87.33333333333333 59.0 L 87.5 59.5 Z" stroke="none" fill="rgb(185,228,234)" />
<path d="M 40.5 42.5 L 40.666666666666664 42.0 L 41.0 41.0 L 40.666666666666664 40.0 L 40.0 39.0 L 39.333333333333336 38.0 L 38.666666666666664 37.0 L 38.333333333333336 36.0 L 38.0 35.0 L 38.0 34.0 L 38.0 33.0 L 38.0 32.0 L 38.0 31.0 L 38.0 30.0 L 38.0 29.0 L 38.333333333333336 28.0 L 39.0 27.0 L 40.0 26.0 L 41.0 25.333333333333332 L 42.0 24.666666666666668 L 43.0 24.333333333333332 L 44.0 24.0 L 45.0 24.0 L 46.0 24.0 L 47.0 24.0 L 48.0 24.333333333333332 L 49.0 25.0 L 50.0 26.0 L 51.0 27.0 L 51.666666666666664 28.0 L 52.0 29.0 L 52.0 30.0 L 52.0 31.0 L 52.0 32.0 L 52.0 33.0 L 52.0 34.0 L 52.0 35.0 L 51.666666666666664 36.0 L 51.333333333333336 37.0 L 50.666666666666664 38.0 L 50.333333333333336 39.0 L 50.0 40.0 L 50.0 41.0 L 50.333333333333336 41.666666666666664 L 51.0 42.333333333333336 L 52.0 43.0 L 53.0 43.666666666666664 L 54.0 44.0 L 54.666666666666664 43.666666666666664 L 55.0 43.0 L 55.0 42.0 L 55.0 41.0 L 55.0 40.0 L 55.0 39.0 L 55.0 38.0 L 55.0 37.0 L 55.0 36.0 L 55.0 35.0 L 55.0 34.0 L 55.0 33.0 L 55.0 32.0 L 55.0 31.0 L 55.0 30.0 L 55.0 29.0 L 55.0 28.0 L 55.0 27.0 L 55.0 26.0 L 55.0 25.0 L 55.0 24.0 L 55.0 23.0 L 55.0 22.0 L 54.666666666666664 21.333333333333332 L 54.0 21.0 L 53.0 21.0 L 52.0 21.0 L 51.0 21.0 L 50.0 21.0 L 49.0 21.0 L 48.0 21.0 L 47.0 21.0 L 46.0 21.0 L 45.0 21.0 L 44.0 21.0 L 43.0 21.0 L 42.0 21.0 L 41.0 21.0 L 40.0 21.0 L 39.0 21.0 L 38.0 21.0 L 37.0 21.0 L 36.0 21.0 L 35.333333333333336 21.333333333333332 L 35.0 22.0 L 35.0 23.0 L 35.0 24.0 L 35.0 25.0 L 35.0 26.0 L 35.0 27.0 L 35.0 28.0 L 35.0 29.0 L 35.0 30.0 L 35.0 31.0 L 35.0 32.0 L 35.0 33.0 L 35.0 34.0 L 35.0 35.0 L 35.0 36.0 L 35.0 37.0 L 35.0 38.0 L 35.0 39.0 L 35.0 40.0 L 35.0 41.0 L 35.0 42.0 L 35.0 43.0 L 35.333333333333336 43.666666666666664 L 36.0 44.0 L 37.0 43.666666666666664 L 38.0 43.333333333333336 L 39.0 43.0 L 39.5 43.0 Z" stroke="none" fill="rgb(255,255,255)" />
<path d="M 63.5 23.0 L 64.0 23.0 L 65.0 23.0 L 66.0 23.0 L 67.0 23.0 L 68.0 23.0 L 69.0 23.0 L 70.0 23.0 L 71.0 23.0 L 72.0 23.0 L 73.0 23.0 L 74.0 23.0 L 75.0 23.0 L 76.0 23.0 L 77.0 23.0 L 78.0 23.0 L 79.0 23.0 L 79.66666666666667 22.666666666666668 L 80.0 22.0 L 79.66666666666667 21.333333333333332 L 79.0 21.0 L 78.0 21.0 L 77.0 21.0 L 76.0 21.0 L 75.0 21.0 L 74.0 21.0 L 73.0 21.0 L 72.0 21.0 L 71.0 21.0 L 70.0 21.0 L 69.0 21.0 L 68.0 21.0 L 67.0 21.0 L 66.0 21.0 L 65.0 21.0 L 64.0 21.0 L 63.0 21.0 L 62.0 21.0 L 61.333333333333336 21.333333333333332 L 61.0 22.0 L 61.333333333333336 22.666666666666668 L 62.0 23.0 L 62.5 23.0 Z" stroke="none" fill="rgb(130,174,192)" />
<path d="M 53.5 47.0 L 54.0 47.0 L 54.666666666666664 46.666666666666664 L 55.0 46.0 L 55.0 45.0 L 54.666666666666664 44.333333333333336 L 54.0 43.666666666666664 L 53.0 43.0 L 52.0 42.333333333333336 L 51.0 41.666666666666664 L 50.333333333333336 41.0 L 50.333333333333336 40.0 L 50.666666666666664 39.0 L 51.333333333333336 38.0 L 51.666666666666664 37.0 L 52.0 36.0 L 52.0 35.0 L 52.0 34.0 L 52.0 33.0 L 52.0 32.0 L 52.0 31.0 L 52.0 30.0 L 52.0 29.0 L 52.0 28.0 L 51.666666666666664 27.0 L 51.0 26.0 L 50.0 25.0 L 49.0 24.333333333333332 L 48.0 24.0 L 47.0 24.0 L 46.0 24.0 L 45.0 24.0 L 44.0 24.0 L 43.0 24.0 L 42.0 24.333333333333332 L 41.0 24.666666666666668 L 40.0 25.333333333333332 L 39.0 26.0 L 38.333333333333336 27.0 L 38.0 28.0 L 38.0 29.0 L 38.0 30.0 L 38.0 31.0 L 38.0 32.0 L 38.0 33.0 L 38.0 34.0 L 38.0 35.0 L 38.0 36.0 L 38.333333333333336 37.0 L 38.666666666666664 38.0 L 39.333333333333336 39.0 L 40.0 40.0 L 40.333333333333336 41.0 L 40.0 42.0 L 39.0 42.666666666666664 L 38.0 43.0 L 37.0 43.333333333333336 L 36.0 43.666666666666664 L 35.333333333333336 44.333333333333336 L 35.0 45.0 L 35.0 46.0 L 35.333333333333336 46.666666666666664 L 36.0 47.0 L 37.0 47.0 L 38.0 47.0 L 39.0 47.0 L 40.0 47.0 L 41.0 47.0 L 42.0 47.0 L 43.0 47.0 L 44.0 47.0 L 45.0 47.0 L 46.0 47.0 L 47.0 47.0 L 48.0 47.0 L 49.0 47.0 L 50.0 47.0 L 51.0 47.0 L 52.0 47.0 L 52.5 47.0 Z" stroke="none" fill="rgb(30,136,229)" />
<path d="M 64.5 31.0 L 65.0 31.0 L 66.0 31.0 L 67.0 31.0 L 68.0 31.0 L 69.0 31.0 L 70.0 31.0 L 71.0 31.0 L 72.0 31.0 L 73.0 31.0 L 74.0 31.0 L 75.0 31.0 L 76.0 31.0 L 77.0 31.0 L 78.0 31.0 L 79.0 31.0 L 80.0 31.0 L 81.0 31.0 L 82.0 31.0 L 83.0 31.0 L 84.0 31.0 L 85.0 31.0 L 85.66666666666667 30.666666666666668 L 86.0 30.0 L 85.66666666666667 29.333333333333332 L 85.0 29.0 L 84.0 29.0 L 83.0 29.0 L 82.0 29.0 L 81.0 29.0 L 80.0 29.0 L 79.0 29.0 L 78.0 29.0 L 77.0 29.0 L 76.0 29.0 L 75.0 29.0 L 74.0 29.0 L 73.0 29.0 L 72.0 29.0 L 71.0 29.0 L 70.0 29.0 L 69.0 29.0 L 68.0 29.0 L 67.0 29.0 L 66.0 29.0 L 65.0 29.0 L 64.0 29.0 L 63.0 29.0 L 62.0 29.0 L 61.333333333333336 29.333333333333332 L 61.0 30.0 L 61.333333333333336 30.666666666666668 L 62.0 31.0 L 63.0 31.0 L 63.5 31.0 Z" stroke="none" fill="rgb(130,174,192)" />
<path d="M 73.5 39.0 L 74.0 39.0 L 75.0 39.0 L 76.0 39.0 L 77.0 39.0 L 77.66666666666667 38.666666666666664 L 78.0 38.0 L 77.66666666666667 37.333333333333336 L 77.0 37.0 L 76.0 37.0 L 75.0 37.0 L 74.0 37.0 L 73.0 37.0 L 72.0 37.0 L 71.0 37.0 L 70.0 37.0 L 69.0 37.0 L 68.0 37.0 L 67.0 37.0 L 66.0 37.0 L 65.0 37.0 L 64.0 37.0 L 63.0 37.0 L 62.0 37.0 L 61.333333333333336 37.333333333333336 L 61.0 38.0 L 61.333333333333336 38.666666666666664 L 62.0 39.0 L 63.0 39.0 L 64.0 39.0 L 65.0 39.0 L 66.0 39.0 L 67.0 39.0 L 68.0 39.0 L 69.0 39.0 L 70.0 39.0 L 71.0 39.0 L 72.0 39.0 L 72.5 39.0 Z" stroke="none" fill="rgb(130,174,192)" />
<path d="M 62.5 47.0 L 63.0 47.0 L 64.0 47.0 L 65.0 47.0 L 66.0 47.0 L 67.0 47.0 L 68.0 47.0 L 69.0 47.0 L 70.0 47.0 L 71.0 47.0 L 72.0 47.0 L 73.0 47.0 L 73.66666666666667 46.666666666666664 L 74.0 46.0 L 73.66666666666667 45.333333333333336 L 73.0 45.0 L 72.0 45.0 L 71.0 45.0 L 70.0 45.0 L 69.0 45.0 L 68.0 45.0 L 67.0 45.0 L 66.0 45.0 L 65.0 45.0 L 64.0 45.0 L 63.0 45.0 L 62.0 45.0 L 61.333333333333336 45.333333333333336 L 61.0 46.0 L 61.333333333333336 46.666666666666664 L 61.5 47.0 Z" stroke="none" fill="rgb(130,174,192)" />
<path d="M 23.0 75.5 L 23.333333333333332 75.0 L 23.666666666666668 74.0 L 24.333333333333332 73.0 L 24.666666666666668 72.0 L 25.0 71.0 L 24.666666666666668 70.0 L 24.333333333333332 69.0 L 23.666666666666668 68.0 L 23.333333333333332 67.0 L 23.0 66.0 L 23.0 65.0 L 23.0 64.0 L 23.0 63.0 L 23.0 62.0 L 23.0 61.0 L 23.0 60.0 L 23.0 59.0 L 23.333333333333332 58.0 L 23.666666666666668 57.0 L 24.0 56.0 L 24.333333333333332 55.0 L 24.666666666666668 54.0 L 25.0 53.0 L 25.0 52.0 L 25.0 51.0 L 25.0 50.0 L 25.0 49.0 L 25.0 48.0 L 24.666666666666668 47.333333333333336 L 24.0 47.0 L 23.0 47.0 L 22.0 47.0 L 21.0 47.0 L 20.0 47.0 L 19.0 47.0 L 18.0 47.0 L 17.0 47.333333333333336 L 16.0 47.666666666666664 L 15.0 48.333333333333336 L 14.0 49.0 L 13.0 50.0 L 12.0 51.0 L 11.333333333333334 52.0 L 11.0 53.0 L 10.666666666666666 54.0 L 10.333333333333334 55.0 L 10.0 56.0 L 10.0 57.0 L 10.0 58.0 L 10.0 59.0 L 10.0 60.0 L 10.0 61.0 L 10.0 62.0 L 10.0 63.0 L 10.0 64.0 L 10.0 65.0 L 10.0 66.0 L 10.0 67.0 L 10.0 68.0 L 10.333333333333334 69.0 L 10.666666666666666 70.0 L 11.0 71.0 L 11.333333333333334 72.0 L 12.0 73.0 L 13.0 74.0 L 14.0 75.0 L 15.0 75.66666666666667 L 16.0 76.0 L 17.0 76.0 L 18.0 76.0 L 19.0 76.33333333333333 L 20.0 76.66666666666667 L 21.0 77.0 L 22.0 76.66666666666667 L 22.5 76.5 Z" stroke="none" fill="rgb(97,97,97)" />
<path d="M 105.5 72.5 L 105.66666666666667 73.0 L 106.33333333333333 74.0 L 107.0 75.0 L 108.0 76.0 L 109.0 76.66666666666667 L 110.0 77.0 L 111.0 77.0 L 112.0 76.66666666666667 L 113.0 76.33333333333333 L 114.0 76.0 L 115.0 75.66666666666667 L 116.0 75.0 L 117.0 74.0 L 117.66666666666667 73.0 L 118.33333333333333 72.0 L 118.66666666666667 71.0 L 119.33333333333333 70.0 L 119.66666666666667 69.0 L 120.0 68.0 L 120.0 67.0 L 120.0 66.0 L 120.0 65.0 L 120.0 64.0 L 120.0 63.0 L 120.0 62.0 L 120.0 61.0 L 120.0 60.0 L 120.0 59.0 L 120.0 58.0 L 120.0 57.0 L 120.0 56.0 L 119.66666666666667 55.0 L 119.33333333333333 54.0 L 118.66666666666667 53.0 L 118.33333333333333 52.0 L 117.66666666666667 51.0 L 117.0 50.0 L 116.0 49.0 L 115.0 48.333333333333336 L 114.0 47.666666666666664 L 113.0 47.333333333333336 L 112.0 47.0 L 111.0 47.0 L 110.0 47.0 L 109.0 47.0 L 108.0 47.0 L 107.0 47.0 L 106.0 47.0 L 105.0 47.0 L 104.33333333333333 47.333333333333336 L 104.0 48.0 L 104.0 49.0 L 104.0 50.0 L 104.0 51.0 L 104.0 52.0 L 104.33333333333333 53.0 L 105.0 54.0 L 105.66666666666667 55.0 L 106.33333333333333 56.0 L 106.66666666666667 57.0 L 107.0 58.0 L 107.0 59.0 L 107.0 60.0 L 107.0 61.0 L 107.0 62.0 L 107.0 63.0 L 107.0 64.0 L 107.0 65.0 L 107.0 66.0 L 107.0 67.0 L 106.66666666666667 68.0 L 106.0 69.0 L 105.33333333333333 70.0 L 105.0 71.0 L 105.0 71.5 Z" stroke="none" fill="rgb(97,97,97)" />
<path d="M 20.5 54.5 L 20.666666666666668 54.0 L 21.333333333333332 53.0 L 21.666666666666668 52.0 L 22.0 51.0 L 22.0 50.0 L 21.666666666666668 49.333333333333336 L 21.0 49.0 L 20.0 49.0 L 19.0 49.0 L 18.0 49.333333333333336 L 17.0 49.666666666666664 L 16.0 50.333333333333336 L 15.0 51.0 L 14.333333333333334 52.0 L 14.0 53.0 L 14.0 54.0 L 14.333333333333334 54.666666666666664 L 15.0 55.0 L 16.0 55.0 L 17.0 55.0 L 18.0 55.0 L 19.0 55.0 L 19.5 55.0 Z" stroke="none" fill="rgb(130,174,192)" />
<path d="M 107.0 68.5 L 107.0 68.0 L 107.0 67.0 L 107.0 66.0 L 107.0 65.0 L 107.0 64.0 L 107.0 63.0 L 107.0 62.0 L 107.0 61.0 L 107.0 60.0 L 107.0 59.0 L 107.0 58.0 L 107.0 57.0 L 106.66666666666667 56.0 L 106.33333333333333 55.0 L 105.66666666666667 54.0 L 105.0 53.333333333333336 L 104.33333333333333 53.333333333333336 L 103.66666666666667 54.0 L 103.0 55.0 L 102.0 56.0 L 101.0 57.0 L 100.0 58.0 L 99.0 59.0 L 98.0 59.666666666666664 L 97.0 60.0 L 96.0 60.0 L 95.0 60.0 L 94.0 60.0 L 93.0 60.0 L 92.0 60.0 L 91.0 60.0 L 90.0 60.0 L 89.0 60.0 L 88.33333333333333 60.333333333333336 L 88.0 61.0 L 88.0 62.0 L 88.0 63.0 L 88.33333333333333 63.666666666666664 L 89.0 64.33333333333333 L 90.0 64.66666666666667 L 91.0 65.0 L 92.0 64.66666666666667 L 93.0 64.33333333333333 L 94.0 64.0 L 95.0 64.0 L 96.0 64.0 L 97.0 64.0 L 98.0 64.33333333333333 L 99.0 65.0 L 100.0 66.0 L 101.0 67.0 L 102.0 68.0 L 103.0 69.0 L 104.0 69.66666666666667 L 105.0 70.0 L 106.0 69.66666666666667 L 106.5 69.5 Z" stroke="none" fill="rgb(33,33,33)" />
<path d="M 26.5 69.5 L 27.0 69.0 L 28.0 68.0 L 29.0 67.0 L 30.0 66.0 L 31.0 65.33333333333333 L 32.0 65.0 L 33.0 64.66666666666667 L 34.0 64.33333333333333 L 35.0 64.0 L 36.0 64.0 L 37.0 64.0 L 38.0 64.0 L 39.0 64.0 L 40.0 64.0 L 41.0 64.0 L 41.666666666666664 63.666666666666664 L 42.0 63.0 L 42.0 62.0 L 42.0 61.0 L 41.666666666666664 60.333333333333336 L 41.0 60.0 L 40.0 60.0 L 39.0 60.0 L 38.0 60.0 L 37.0 60.0 L 36.0 60.0 L 35.0 60.0 L 34.0 60.0 L 33.0 59.666666666666664 L 32.0 59.333333333333336 L 31.0 58.666666666666664 L 30.0 58.0 L 29.0 57.0 L 28.0 56.0 L 27.0 55.0 L 26.0 54.333333333333336 L 25.0 54.0 L 24.333333333333332 54.333333333333336 L 24.0 55.0 L 23.666666666666668 56.0 L 23.333333333333332 57.0 L 23.0 58.0 L 23.0 59.0 L 23.0 60.0 L 23.0 61.0 L 23.0 62.0 L 23.0 63.0 L 23.0 64.0 L 23.0 65.0 L 23.0 66.0 L 23.0 67.0 L 23.333333333333332 68.0 L 23.666666666666668 69.0 L 24.333333333333332 69.66666666666667 L 25.0 70.0 L 25.5 70.0 Z" stroke="none" fill="rgb(33,33,33)" />
<path d="M 43.5 66.5 L 44.0 66.66666666666667 L 45.0 67.0 L 46.0 67.0 L 47.0 67.0 L 48.0 67.0 L 48.666666666666664 66.66666666666667 L 49.0 66.0 L 49.0 65.0 L 49.0 64.0 L 49.0 63.0 L 49.0 62.0 L 49.0 61.0 L 49.0 60.0 L 49.0 59.0 L 49.0 58.0 L 48.666666666666664 57.0 L 48.0 56.333333333333336 L 47.0 56.0 L 46.0 56.0 L 45.0 56.0 L 44.0 56.333333333333336 L 43.333333333333336 57.0 L 43.0 58.0 L 42.666666666666664 59.0 L 42.333333333333336 60.0 L 42.0 61.0 L 42.0 62.0 L 42.0 63.0 L 42.0 64.0 L 42.333333333333336 65.0 L 42.5 65.5 Z" stroke="none" fill="rgb(97,97,97)" />
<path d="M 81.5 66.5 L 82.0 66.66666666666667 L 83.0 67.0 L 84.0 67.0 L 85.0 67.0 L 86.0 67.0 L 87.0 67.0 L 87.66666666666667 66.66666666666667 L 88.0 66.0 L 88.0 65.0 L 88.0 64.0 L 88.0 63.0 L 88.0 62.0 L 88.0 61.0 L 88.0 60.0 L 87.66666666666667 59.0 L 87.33333333333333 58.0 L 86.66666666666667 57.0 L 86.0 56.333333333333336 L 85.0 56.0 L 84.0 56.0 L 83.0 56.0 L 82.33333333333333 56.333333333333336 L 81.66666666666667 57.0 L 81.33333333333333 58.0 L 81.0 59.0 L 81.0 60.0 L 81.0 61.0 L 81.0 62.0 L 81.0 63.0 L 81.0 64.0 L 81.0 65.0 L 81.0 65.5 Z" stroke="none" fill="rgb(97,97,97)" />
<path d="M 53.5 64.5 L 54.0 64.33333333333333 L 55.0 64.0 L 56.0 64.0 L 57.0 64.0 L 58.0 64.0 L 59.0 64.0 L 60.0 64.0 L 61.0 64.0 L 62.0 64.0 L 63.0 64.0 L 64.0 64.0 L 65.0 64.0 L 66.0 64.0 L 67.0 64.0 L 68.0 64.0 L 69.0 64.0 L 70.0 64.0 L 71.0 64.0 L 72.0 64.0 L 73.0 64.0 L 74.0 64.0 L 75.0 64.0 L 76.0 64.0 L 77.0 64.0 L 78.0 64.0 L 79.0 64.0 L 80.0 64.0 L 80.66666666666667 63.666666666666664 L 81.0 63.0 L 81.0 62.0 L 81.0 61.0 L 80.66666666666667 60.333333333333336 L 80.0 60.0 L 79.0 60.0 L 78.0 60.0 L 77.0 60.0 L 76.0 60.0 L 75.0 60.0 L 74.0 60.0 L 73.0 60.0 L 72.0 60.0 L 71.0 60.0 L 70.0 60.0 L 69.0 60.0 L 68.0 60.0 L 67.0 60.0 L 66.0 60.0 L 65.0 60.0 L 64.0 60.0 L 63.0 60.0 L 62.0 60.0 L 61.0 60.0 L 60.0 60.0 L 59.0 60.0 L 58.0 60.0 L 57.0 60.0 L 56.0 60.0 L 55.0 60.0 L 54.0 60.0 L 53.0 60.0 L 52.0 60.0 L 51.0 60.0 L 50.0 60.0 L 49.333333333333336 60.333333333333336 L 49.0 61.0 L 49.0 62.0 L 49.0 63.0 L 49.333333333333336 63.666666666666664 L 50.0 64.33333333333333 L 51.0 64.66666666666667 L 52.0 65.0 L 52.5 65.0 Z" stroke="none" fill="rgb(33,33,33)" />
<path d="M 59.5 89.0 L 60.0 89.0 L 61.0 89.0 L 62.0 89.0 L 63.0 89.0 L 64.0 89.0 L 65.0 89.0 L 66.0 89.0 L 67.0 89.0 L 68.0 89.0 L 69.0 89.0 L 70.0 89.0 L 71.0 89.0 L 72.0 89.0 L 73.0 89.0 L 74.0 89.0 L 75.0 89.0 L 76.0 89.0 L 77.0 89.0 L 78.0 89.0 L 79.0 89.0 L 80.0 89.0 L 81.0 89.0 L 82.0 89.0 L 83.0 89.0 L 84.0 89.0 L 85.0 89.0 L 86.0 89.0 L 87.0 89.0 L 88.0 89.0 L 89.0 89.0 L 90.0 89.0 L 91.0 89.0 L 92.0 89.0 L 93.0 89.0 L 94.0 89.0 L 95.0 89.0 L 96.0 89.0 L 97.0 89.0 L 98.0 89.0 L 99.0 89.0 L 100.0 89.0 L 101.0 89.0 L 102.0 89.0 L 103.0 89.0 L 104.0 89.0 L 105.0 89.0 L 106.0 89.0 L 107.0 89.33333333333333 L 108.0 89.66666666666667 L 109.0 89.66666666666667 L 110.0 89.0 L 111.0 88.0 L 111.66666666666667 87.0 L 112.0 86.0 L 112.0 85.0 L 112.0 84.0 L 111.66666666666667 83.0 L 111.33333333333333 82.0 L 111.0 81.0 L 110.66666666666667 80.0 L 110.0 79.0 L 109.33333333333333 78.0 L 109.0 77.0 L 108.66666666666667 76.0 L 108.0 75.0 L 107.0 74.0 L 106.33333333333333 73.0 L 105.66666666666667 72.0 L 105.33333333333333 71.0 L 104.66666666666667 70.0 L 104.0 69.0 L 103.0 68.0 L 102.0 67.0 L 101.0 66.0 L 100.0 65.0 L 99.0 64.33333333333333 L 98.0 64.0 L 97.0 64.0 L 96.0 64.0 L 95.0 64.0 L 94.0 64.0 L 93.0 64.0 L 92.0 64.33333333333333 L 91.0 64.66666666666667 L 90.0 65.33333333333333 L 89.0 65.66666666666667 L 88.0 66.33333333333333 L 87.0 66.66666666666667 L 86.0 67.0 L 85.0 67.0 L 84.0 67.0 L 83.0 66.66666666666667 L 82.0 66.0 L 81.33333333333333 65.0 L 80.66666666666667 64.33333333333333 L 80.0 64.0 L 79.0 64.0 L 78.0 64.0 L 77.0 64.0 L 76.0 64.0 L 75.0 64.0 L 74.0 64.0 L 73.0 64.0 L 72.0 64.0 L 71.0 64.0 L 70.0 64.0 L 69.0 64.0 L 68.0 64.0 L 67.0 64.0 L 66.0 64.0 L 65.0 64.0 L 64.0 64.0 L 63.0 64.0 L 62.0 64.0 L 61.0 64.0 L 60.0 64.0 L 59.0 64.0 L 58.0 64.0 L 57.0 64.0 L 56.0 64.0 L 55.0 64.0 L 54.0 64.0 L 53.0 64.33333333333333 L 52.0 64.66666666666667 L 51.0 65.33333333333333 L 50.0 66.0 L 49.0 66.66666666666667 L 48.0 67.0 L 47.0 67.0 L 46.0 67.0 L 45.0 66.66666666666667 L 44.0 66.0 L 43.0 65.0 L 42.0 64.33333333333333 L 41.0 64.0 L 40.0 64.0 L 39.0 64.0 L 38.0 64.0 L 37.0 64.0 L 36.0 64.0 L 35.0 64.0 L 34.0 64.0 L 33.0 64.33333333333333 L 32.0 64.66666666666667 L 31.0 65.0 L 30.0 65.33333333333333 L 29.0 66.0 L 28.0 67.0 L 27.0 68.0 L 26.0 69.0 L 25.333333333333332 70.0 L 24.666666666666668 71.0 L 24.333333333333332 72.0 L 23.666666666666668 73.0 L 23.333333333333332 74.0 L 22.666666666666668 75.0 L 22.0 76.0 L 21.333333333333332 77.0 L 20.666666666666668 78.0 L 20.0 79.0 L 19.333333333333332 80.0 L 18.666666666666668 81.0 L 18.333333333333332 82.0 L 18.0 83.0 L 18.0 84.0 L 18.0 85.0 L 18.0 86.0 L 18.333333333333332 87.0 L 19.0 88.0 L 20.0 88.66666666666667 L 21.0 89.0 L 22.0 89.0 L 23.0 89.0 L 24.0 89.0 L 25.0 89.0 L 26.0 89.0 L 27.0 89.0 L 28.0 89.0 L 29.0 89.0 L 30.0 89.0 L 31.0 89.0 L 32.0 89.0 L 33.0 89.0 L 34.0 89.0 L 35.0 89.0 L 36.0 89.0 L 37.0 89.0 L 38.0 89.0 L 39.0 89.0 L 40.0 89.0 L 41.0 89.0 L 42.0 89.0 L 43.0 89.0 L 44.0 89.0 L 45.0 89.0 L 46.0 89.0 L 47.0 89.0 L 48.0 89.0 L 49.0 89.0 L 50.0 89.0 L 51.0 89.0 L 52.0 89.0 L 53.0 89.0 L 54.0 89.0 L 55.0 89.0 L 56.0 89.0 L 57.0 89.0 L 58.0 89.0 L 58.5 89.0 Z" stroke="none" fill="rgb(255,255,255)" />
<path d="M 50.5 66.5 L 50.666666666666664 66.0 L 51.0 65.0 L 50.666666666666664 64.33333333333333 L 50.0 64.0 L 49.333333333333336 64.33333333333333 L 49.0 65.0 L 49.0 66.0 L 49.333333333333336 66.66666666666667 L 49.5 67.0 Z" stroke="none" fill="rgb(185,228,234)" />
<path d="M 88.5 66.0 L 89.0 66.0 L 89.66666666666667 65.66666666666667 L 90.0 65.0 L 89.66666666666667 64.33333333333333 L 89.0 64.0 L 88.33333333333333 64.33333333333333 L 88.0 65.0 L 88.0 65.5 Z" stroke="none" fill="rgb(185,228,234)" />
<path d="M 17.5 80.0 L 18.0 80.0 L 19.0 80.0 L 20.0 79.66666666666667 L 20.666666666666668 79.0 L 21.0 78.0 L 20.666666666666668 77.0 L 20.0 76.33333333333333 L 19.0 76.0 L 18.0 76.0 L 17.0 76.0 L 16.0 76.33333333333333 L 15.333333333333334 77.0 L 15.0 78.0 L 15.0 79.0 L 15.333333333333334 79.66666666666667 L 16.0 80.0 L 16.5 80.0 Z" stroke="none" fill="rgb(66,66,66)" />
<path d="M 114.5 80.0 L 114.66666666666667 79.66666666666667 L 115.0 79.0 L 115.0 78.0 L 114.66666666666667 77.0 L 114.0 76.33333333333333 L 113.0 76.0 L 112.0 76.33333333333333 L 111.0 76.66666666666667 L 110.0 77.0 L 109.33333333333333 77.33333333333333 L 109.0 78.0 L 109.33333333333333 79.0 L 110.0 79.66666666666667 L 111.0 80.0 L 112.0 80.0 L 113.0 80.0 L 113.5 80.0 Z" stroke="none" fill="rgb(66,66,66)" />
<path d="M 26.5 118.5 L 26.666666666666668 118.0 L 26.666666666666668 117.0 L 26.333333333333332 116.0 L 26.0 115.0 L 26.0 114.0 L 25.666666666666668 113.0 L 25.0 112.0 L 24.0 111.0 L 23.0 110.33333333333333 L 22.0 109.66666666666667 L 21.0 109.33333333333333 L 20.0 109.0 L 19.0 109.33333333333333 L 18.0 110.0 L 17.0 110.33333333333333 L 16.333333333333332 110.0 L 16.0 109.0 L 15.666666666666666 108.0 L 15.333333333333334 107.0 L 15.0 106.0 L 15.0 105.0 L 15.0 104.0 L 15.333333333333334 103.0 L 15.666666666666666 102.0 L 16.0 101.0 L 16.0 100.0 L 16.333333333333332 99.0 L 16.666666666666668 98.0 L 17.333333333333332 97.0 L 17.666666666666668 96.0 L 18.333333333333332 95.0 L 19.0 94.33333333333333 L 19.666666666666668 93.66666666666667 L 20.0 93.0 L 20.333333333333332 92.0 L 20.666666666666668 91.0 L 21.0 90.0 L 20.666666666666668 89.0 L 20.0 88.0 L 19.0 87.0 L 18.333333333333332 86.0 L 18.0 85.0 L 18.0 84.0 L 18.333333333333332 83.0 L 18.666666666666668 82.0 L 19.0 81.0 L 18.666666666666668 80.33333333333333 L 18.0 80.0 L 17.0 80.0 L 16.0 80.0 L 15.0 80.33333333333333 L 14.0 81.0 L 13.0 82.0 L 12.333333333333334 83.0 L 11.666666666666666 84.0 L 11.0 85.0 L 10.333333333333334 86.0 L 9.666666666666666 87.0 L 9.0 88.0 L 8.333333333333334 89.0 L 7.666666666666667 90.0 L 7.333333333333333 91.0 L 7.0 92.0 L 6.666666666666667 93.0 L 6.333333333333333 94.0 L 6.0 95.0 L 5.666666666666667 96.0 L 5.333333333333333 97.0 L 5.0 98.0 L 5.0 99.0 L 5.0 100.0 L 5.0 101.0 L 5.0 102.0 L 5.0 103.0 L 5.0 104.0 L 5.0 105.0 L 5.0 106.0 L 5.0 107.0 L 5.0 108.0 L 5.0 109.0 L 5.0 110.0 L 5.0 111.0 L 5.333333333333333 112.0 L 5.666666666666667 113.0 L 6.0 114.0 L 6.0 115.0 L 6.333333333333333 116.0 L 6.666666666666667 117.0 L 7.0 118.0 L 7.333333333333333 119.0 L 7.666666666666667 120.0 L 8.333333333333334 121.0 L 9.0 122.0 L 10.0 122.66666666666667 L 11.0 123.33333333333333 L 12.0 123.66666666666667 L 13.0 124.0 L 14.0 124.0 L 15.0 124.0 L 16.0 124.0 L 17.0 123.66666666666667 L 18.0 123.33333333333333 L 19.0 122.66666666666667 L 20.0 122.33333333333333 L 21.0 121.66666666666667 L 22.0 121.33333333333333 L 23.0 120.66666666666667 L 24.0 120.0 L 25.0 119.33333333333333 L 25.5 119.0 Z" stroke="none" fill="rgb(97,97,97)" />
<path d="M 104.5 119.0 L 105.0 119.33333333333333 L 106.0 120.0 L 107.0 120.66666666666667 L 108.0 121.33333333333333 L 109.0 121.66666666666667 L 110.0 122.33333333333333 L 111.0 122.66666666666667 L 112.0 123.33333333333333 L 113.0 123.66666666666667 L 114.0 124.0 L 115.0 124.0 L 116.0 124.0 L 117.0 124.0 L 118.0 123.66666666666667 L 119.0 123.33333333333333 L 120.0 122.66666666666667 L 120.66666666666667 122.0 L 121.33333333333333 121.0 L 122.0 120.0 L 122.66666666666667 119.0 L 123.0 118.0 L 123.33333333333333 117.0 L 123.66666666666667 116.0 L 124.0 115.0 L 124.0 114.0 L 124.33333333333333 113.0 L 124.66666666666667 112.0 L 125.0 111.0 L 125.0 110.0 L 125.0 109.0 L 125.0 108.0 L 125.0 107.0 L 125.0 106.0 L 125.0 105.0 L 125.0 104.0 L 125.0 103.0 L 125.0 102.0 L 125.0 101.0 L 125.0 100.0 L 125.0 99.0 L 124.66666666666667 98.0 L 124.33333333333333 97.0 L 124.0 96.0 L 124.0 95.0 L 123.66666666666667 94.0 L 123.33333333333333 93.0 L 122.66666666666667 92.0 L 122.33333333333333 91.0 L 121.66666666666667 90.0 L 121.33333333333333 89.0 L 120.66666666666667 88.0 L 120.33333333333333 87.0 L 119.66666666666667 86.0 L 119.0 85.0 L 118.33333333333333 84.0 L 117.66666666666667 83.0 L 117.0 82.0 L 116.0 81.0 L 115.0 80.33333333333333 L 114.0 80.0 L 113.0 80.0 L 112.0 80.0 L 111.33333333333333 80.33333333333333 L 111.0 81.0 L 111.0 82.0 L 111.33333333333333 83.0 L 111.66666666666667 84.0 L 112.0 85.0 L 111.66666666666667 86.0 L 111.0 87.0 L 110.0 88.0 L 109.33333333333333 89.0 L 109.0 90.0 L 109.33333333333333 91.0 L 109.66666666666667 92.0 L 110.33333333333333 93.0 L 111.0 94.0 L 111.66666666666667 95.0 L 112.33333333333333 96.0 L 112.66666666666667 97.0 L 113.33333333333333 98.0 L 113.66666666666667 99.0 L 114.0 100.0 L 114.0 101.0 L 114.0 102.0 L 114.33333333333333 103.0 L 114.66666666666667 104.0 L 115.0 105.0 L 114.66666666666667 106.0 L 114.33333333333333 107.0 L 114.0 108.0 L 114.0 109.0 L 113.66666666666667 110.0 L 113.0 110.33333333333333 L 112.0 110.33333333333333 L 111.0 110.0 L 110.0 110.0 L 109.0 110.0 L 108.0 110.0 L 107.0 110.33333333333333 L 106.0 110.66666666666667 L 105.33333333333333 111.33333333333333 L 104.66666666666667 112.0 L 104.33333333333333 113.0 L 104.0 114.0 L 104.0 115.0 L 104.0 116.0 L 104.0 117.0 L 104.0 118.0 L 104.0 118.5 Z" stroke="none" fill="rgb(97,97,97)" />
<path d="M 59.5 96.0 L 60.0 96.0 L 61.0 96.0 L 62.0 96.0 L 63.0 96.0 L 64.0 96.0 L 65.0 96.0 L 66.0 96.0 L 67.0 96.0 L 68.0 96.0 L 69.0 96.0 L 70.0 96.0 L 71.0 96.0 L 72.0 96.0 L 73.0 96.0 L 74.0 96.0 L 75.0 96.0 L 76.0 96.0 L 77.0 96.0 L 78.0 96.0 L 79.0 96.0 L 80.0 96.0 L 81.0 96.0 L 82.0 96.0 L 83.0 96.0 L 84.0 96.0 L 85.0 96.0 L 86.0 96.0 L 87.0 96.0 L 88.0 96.0 L 89.0 96.0 L 90.0 96.0 L 91.0 96.0 L 92.0 96.0 L 93.0 96.0 L 94.0 96.0 L 95.0 96.0 L 96.0 96.0 L 97.0 96.0 L 98.0 96.0 L 99.0 96.0 L 100.0 96.0 L 101.0 96.0 L 102.0 96.0 L 103.0 96.0 L 104.0 96.0 L 105.0 96.0 L 106.0 96.0 L 107.0 96.0 L 108.0 96.0 L 109.0 95.66666666666667 L 110.0 95.0 L 110.66666666666667 94.0 L 110.66666666666667 93.0 L 110.33333333333333 92.0 L 109.66666666666667 91.0 L 109.0 90.0 L 108.0 89.33333333333333 L 107.0 89.0 L 106.0 89.0 L 105.0 89.0 L 104.0 89.0 L 103.0 89.0 L 102.0 89.0 L 101.0 89.0 L 100.0 89.0 L 99.0 89.0 L 98.0 89.0 L 97.0 89.0 L 96.0 89.0 L 95.0 89.0 L 94.0 89.0 L 93.0 89.0 L 92.0 89.0 L 91.0 89.0 L 90.0 89.0 L 89.0 89.0 L 88.0 89.0 L 87.0 89.0 L 86.0 89.0 L 85.0 89.0 L 84.0 89.0 L 83.0 89.0 L 82.0 89.0 L 81.0 89.0 L 80.0 89.0 L 79.0 89.0 L 78.0 89.0 L 77.0 89.0 L 76.0 89.0 L 75.0 89.0 L 74.0 89.0 L 73.0 89.0 L 72.0 89.0 L 71.0 89.0 L 70.0 89.0 L 69.0 89.0 L 68.0 89.0 L 67.0 89.0 L 66.0 89.0 L 65.0 89.0 L 64.0 89.0 L 63.0 89.0 L 62.0 89.0 L 61.0 89.0 L 60.0 89.0 L 59.0 89.0 L 58.0 89.0 L 57.0 89.0 L 56.0 89.0 L 55.0 89.0 L 54.0 89.0 L 53.0 89.0 L 52.0 89.0 L 51.0 89.0 L 50.0 89.0 L 49.0 89.0 L 48.0 89.0 L 47.0 89.0 L 46.0 89.0 L 45.0 89.0 L 44.0 89.0 L 43.0 89.0 L 42.0 89.0 L 41.0 89.0 L 40.0 89.0 L 39.0 89.0 L 38.0 89.0 L 37.0 89.0 L 36.0 89.0 L 35.0 89.0 L 34.0 89.0 L 33.0 89.0 L 32.0 89.0 L 31.0 89.0 L 30.0 89.0 L 29.0 89.0 L 28.0 89.0 L 27.0 89.0 L 26.0 89.0 L 25.0 89.0 L 24.0 89.0 L 23.0 89.0 L 22.0 89.0 L 21.333333333333332 89.33333333333333 L 20.666666666666668 90.0 L 20.333333333333332 91.0 L 20.0 92.0 L 20.0 93.0 L 20.0 94.0 L 20.333333333333332 95.0 L 21.0 95.66666666666667 L 22.0 96.0 L 23.0 96.0 L 24.0 96.0 L 25.0 96.0 L 26.0 96.0 L 27.0 96.0 L 28.0 96.0 L 29.0 96.0 L 30.0 96.0 L 31.0 96.0 L 32.0 96.0 L 33.0 96.0 L 34.0 96.0 L 35.0 96.0 L 36.0 96.0 L 37.0 96.0 L 38.0 96.0 L 39.0 96.0 L 40.0 96.0 L 41.0 96.0 L 42.0 96.0 L 43.0 96.0 L 44.0 96.0 L 45.0 96.0 L 46.0 96.0 L 47.0 96.0 L 48.0 96.0 L 49.0 96.0 L 50.0 96.0 L 51.0 96.0 L 52.0 96.0 L 53.0 96.0 L 54.0 96.0 L 55.0 96.0 L 56.0 96.0 L 57.0 96.0 L 58.0 96.0 L 58.5 96.0 Z" stroke="none" fill="rgb(185,228,234)" />
<path d="M 11.5 101.5 L 11.666666666666666 101.0 L 12.333333333333334 100.0 L 12.666666666666666 99.0 L 13.0 98.0 L 13.0 97.0 L 13.0 96.0 L 13.0 95.0 L 13.0 94.0 L 13.0 93.0 L 13.0 92.0 L 12.666666666666666 91.33333333333333 L 12.0 91.0 L 11.0 91.33333333333333 L 10.333333333333334 92.0 L 9.666666666666666 93.0 L 9.333333333333334 94.0 L 9.0 95.0 L 8.666666666666666 96.0 L 8.333333333333334 97.0 L 8.0 98.0 L 8.0 99.0 L 8.0 100.0 L 8.0 101.0 L 8.333333333333334 101.66666666666667 L 9.0 102.0 L 10.0 102.0 L 10.5 102.0 Z" stroke="none" fill="rgb(130,174,192)" />
<path d="M 24.5 106.5 L 24.666666666666668 106.0 L 25.0 105.0 L 24.666666666666668 104.0 L 24.0 103.0 L 23.666666666666668 102.0 L 23.666666666666668 101.0 L 24.0 100.0 L 24.0 99.0 L 23.666666666666668 98.0 L 23.333333333333332 97.0 L 22.666666666666668 96.33333333333333 L 22.0 95.66666666666667 L 21.0 95.0 L 20.0 94.33333333333333 L 19.0 94.0 L 18.333333333333332 94.33333333333333 L 17.666666666666668 95.0 L 17.333333333333332 96.0 L 16.666666666666668 97.0 L 16.333333333333332 98.0 L 16.0 99.0 L 16.0 100.0 L 15.666666666666666 101.0 L 15.333333333333334 102.0 L 15.0 103.0 L 15.0 104.0 L 15.0 105.0 L 15.0 106.0 L 15.0 107.0 L 15.333333333333334 108.0 L 15.666666666666666 109.0 L 16.0 110.0 L 16.333333333333332 110.66666666666667 L 17.0 111.0 L 18.0 110.66666666666667 L 19.0 110.0 L 20.0 109.33333333333333 L 21.0 108.66666666666667 L 22.0 108.0 L 23.0 107.33333333333333 L 23.5 107.0 Z" stroke="none" fill="rgb(0,0,0)" />
<path d="M 110.5 110.0 L 111.0 110.33333333333333 L 112.0 110.66666666666667 L 113.0 111.0 L 113.66666666666667 110.66666666666667 L 114.0 110.0 L 114.0 109.0 L 114.33333333333333 108.0 L 114.66666666666667 107.0 L 115.0 106.0 L 115.0 105.0 L 115.0 104.0 L 114.66666666666667 103.0 L 114.33333333333333 102.0 L 114.0 101.0 L 114.0 100.0 L 114.0 99.0 L 113.66666666666667 98.0 L 113.33333333333333 97.0 L 112.66666666666667 96.0 L 112.33333333333333 95.0 L 111.66666666666667 94.33333333333333 L 111.0 94.0 L 110.0 94.33333333333333 L 109.0 95.0 L 108.0 95.66666666666667 L 107.33333333333333 96.33333333333333 L 107.0 97.0 L 107.0 98.0 L 107.0 99.0 L 107.0 100.0 L 107.0 101.0 L 106.66666666666667 102.0 L 106.0 103.0 L 105.33333333333333 104.0 L 105.0 105.0 L 105.33333333333333 106.0 L 106.0 106.66666666666667 L 107.0 107.33333333333333 L 108.0 108.0 L 108.66666666666667 109.0 L 109.33333333333333 109.66666666666667 L 109.5 110.0 Z" stroke="none" fill="rgb(0,0,0)" />
<path d="M 95.5 106.0 L 96.0 106.0 L 97.0 106.0 L 98.0 106.0 L 99.0 106.33333333333333 L 100.0 107.0 L 101.0 107.66666666666667 L 102.0 108.0 L 103.0 107.66666666666667 L 104.0 107.0 L 104.66666666666667 106.0 L 105.33333333333333 105.0 L 106.0 104.0 L 106.66666666666667 103.0 L 107.0 102.0 L 107.0 101.0 L 107.0 100.0 L 107.0 99.0 L 107.0 98.0 L 107.0 97.0 L 106.66666666666667 96.33333333333333 L 106.0 96.0 L 105.0 96.0 L 104.0 96.0 L 103.0 96.0 L 102.0 96.0 L 101.0 96.0 L 100.0 96.0 L 99.0 96.0 L 98.0 96.0 L 97.0 96.0 L 96.0 96.0 L 95.0 96.0 L 94.0 96.0 L 93.0 96.0 L 92.0 96.0 L 91.0 96.0 L 90.0 96.0 L 89.0 96.0 L 88.0 96.0 L 87.0 96.0 L 86.0 96.0 L 85.0 96.0 L 84.0 96.0 L 83.0 96.0 L 82.0 96.0 L 81.0 96.0 L 80.0 96.0 L 79.0 96.0 L 78.0 96.0 L 77.0 96.0 L 76.0 96.0 L 75.0 96.0 L 74.0 96.0 L 73.0 96.0 L 72.0 96.0 L 71.0 96.0 L 70.0 96.0 L 69.0 96.0 L 68.0 96.0 L 67.0 96.0 L 66.0 96.0 L 65.0 96.0 L 64.0 96.0 L 63.0 96.0 L 62.0 96.0 L 61.0 96.0 L 60.0 96.0 L 59.0 96.0 L 58.0 96.0 L 57.0 96.0 L 56.0 96.0 L 55.0 96.0 L 54.0 96.0 L 53.0 96.0 L 52.0 96.0 L 51.0 96.0 L 50.0 96.0 L 49.0 96.0 L 48.0 96.0 L 47.0 96.0 L 46.0 96.0 L 45.0 96.0 L 44.0 96.0 L 43.0 96.0 L 42.0 96.0 L 41.0 96.0 L 40.0 96.0 L 39.0 96.0 L 38.0 96.0 L 37.0 96.0 L 36.0 96.0 L 35.0 96.0 L 34.0 96.0 L 33.0 96.0 L 32.0 96.0 L 31.0 96.0 L 30.0 96.0 L 29.0 96.0 L 28.0 96.0 L 27.0 96.0 L 26.0 96.0 L 25.0 96.0 L 24.0 96.0 L 23.333333333333332 96.33333333333333 L 23.0 97.0 L 23.333333333333332 98.0 L 23.666666666666668 99.0 L 23.666666666666668 100.0 L 23.333333333333332 101.0 L 23.0 102.0 L 23.333333333333332 103.0 L 24.0 104.0 L 25.0 105.0 L 26.0 106.0 L 27.0 107.0 L 28.0 107.66666666666667 L 29.0 108.0 L 29.666666666666668 107.66666666666667 L 30.333333333333332 107.0 L 31.0 106.33333333333333 L 32.0 106.0 L 33.0 106.0 L 34.0 106.0 L 35.0 106.0 L 36.0 106.0 L 37.0 106.0 L 38.0 106.0 L 39.0 106.0 L 40.0 106.0 L 41.0 106.0 L 42.0 106.0 L 43.0 106.0 L 44.0 106.0 L 45.0 106.0 L 46.0 106.0 L 47.0 106.0 L 48.0 106.0 L 49.0 106.0 L 50.0 106.0 L 51.0 106.0 L 52.0 106.0 L 53.0 106.0 L 54.0 106.0 L 55.0 106.0 L 56.0 106.0 L 57.0 106.0 L 58.0 106.0 L 59.0 106.0 L 60.0 106.0 L 61.0 106.0 L 62.0 106.0 L 63.0 106.0 L 64.0 106.0 L 65.0 106.0 L 66.0 106.0 L 67.0 106.0 L 68.0 106.0 L 69.0 106.0 L 70.0 106.0 L 71.0 106.0 L 72.0 106.0 L 73.0 106.0 L 74.0 106.0 L 75.0 106.0 L 76.0 106.0 L 77.0 106.0 L 78.0 106.0 L 79.0 106.0 L 80.0 106.0 L 81.0 106.0 L 82.0 106.0 L 83.0 106.0 L 84.0 106.0 L 85.0 106.0 L 86.0 106.0 L 87.0 106.0 L 88.0 106.0 L 89.0 106.0 L 90.0 106.0 L 91.0 106.0 L 92.0 106.0 L 93.0 106.0 L 94.0 106.0 L 94.5 106.0 Z" stroke="none" fill="rgb(130,174,192)" />
<path d="M 88.5 103.0 L 89.0 103.0 L 90.0 103.0 L 91.0 103.0 L 92.0 103.0 L 93.0 103.0 L 94.0 103.0 L 95.0 103.0 L 96.0 103.0 L 97.0 103.0 L 98.0 103.0 L 99.0 103.0 L 100.0 103.0 L 101.0 103.0 L 102.0 103.0 L 103.0 103.0 L 103.66666666666667 102.66666666666667 L 104.0 102.0 L 103.66666666666667 101.33333333333333 L 103.0 101.0 L 102.0 101.0 L 101.0 101.0 L 100.0 101.0 L 99.0 101.0 L 98.0 101.0 L 97.0 101.0 L 96.0 101.0 L 95.0 101.0 L 94.0 101.0 L 93.0 101.0 L 92.0 101.0 L 91.0 101.0 L 90.0 101.0 L 89.0 101.0 L 88.0 101.0 L 87.0 101.0 L 86.0 101.0 L 85.0 101.0 L 84.0 101.0 L 83.0 101.0 L 82.0 101.0 L 81.0 101.0 L 80.0 101.0 L 79.0 101.0 L 78.0 101.0 L 77.0 101.0 L 76.0 101.0 L 75.0 101.0 L 74.0 101.0 L 73.0 101.0 L 72.0 101.0 L 71.0 101.0 L 70.0 101.0 L 69.0 101.0 L 68.0 101.0 L 67.0 101.0 L 66.0 101.0 L 65.0 101.0 L 64.0 101.0 L 63.0 101.0 L 62.0 101.0 L 61.0 101.0 L 60.0 101.0 L 59.0 101.0 L 58.0 101.0 L 57.0 101.0 L 56.0 101.0 L 55.0 101.0 L 54.0 101.0 L 53.0 101.0 L 52.0 101.0 L 51.0 101.0 L 50.0 101.0 L 49.0 101.0 L 48.0 101.0 L 47.0 101.0 L 46.0 101.0 L 45.0 101.0 L 44.0 101.0 L 43.0 101.0 L 42.0 101.0 L 41.0 101.0 L 40.0 101.0 L 39.0 101.0 L 38.0 101.0 L 37.0 101.0 L 36.0 101.0 L 35.0 101.0 L 34.0 101.0 L 33.0 101.0 L 32.0 101.0 L 31.0 101.0 L 30.0 101.0 L 29.0 101.0 L 28.0 101.0 L 27.333333333333332 101.33333333333333 L 27.0 102.0 L 27.333333333333332 102.66666666666667 L 28.0 103.0 L 29.0 103.0 L 30.0 103.0 L 31.0 103.0 L 32.0 103.0 L 33.0 103.0 L 34.0 103.0 L 35.0 103.0 L 36.0 103.0 L 37.0 103.0 L 38.0 103.0 L 39.0 103.0 L 40.0 103.0 L 41.0 103.0 L 42.0 103.0 L 43.0 103.0 L 44.0 103.0 L 45.0 103.0 L 46.0 103.0 L 47.0 103.0 L 48.0 103.0 L 49.0 103.0 L 50.0 103.0 L 51.0 103.0 L 52.0 103.0 L 53.0 103.0 L 54.0 103.0 L 55.0 103.0 L 56.0 103.0 L 57.0 103.0 L 58.0 103.0 L 59.0 103.0 L 60.0 103.0 L 61.0 103.0 L 62.0 103.0 L 63.0 103.0 L 64.0 103.0 L 65.0 103.0 L 66.0 103.0 L 67.0 103.0 L 68.0 103.0 L 69.0 103.0 L 70.0 103.0 L 71.0 103.0 L 72.0 103.0 L 73.0 103.0 L 74.0 103.0 L 75.0 103.0 L 76.0 103.0 L 77.0 103.0 L 78.0 103.0 L 79.0 103.0 L 80.0 103.0 L 81.0 103.0 L 82.0 103.0 L 83.0 103.0 L 84.0 103.0 L 85.0 103.0 L 86.0 103.0 L 87.0 103.0 L 87.5 103.0 Z" stroke="none" fill="rgb(185,228,234)" />
<path d="M 26.5 117.0 L 27.0 117.0 L 28.0 117.0 L 29.0 116.66666666666667 L 30.0 116.0 L 31.0 115.33333333333333 L 32.0 114.66666666666667 L 32.666666666666664 114.0 L 33.0 113.0 L 32.666666666666664 112.0 L 32.0 111.0 L 31.0 110.0 L 30.0 109.0 L 29.0 108.0 L 28.0 107.0 L 27.0 106.0 L 26.0 105.33333333333333 L 25.0 105.33333333333333 L 24.0 106.0 L 23.0 106.66666666666667 L 22.0 107.33333333333333 L 21.333333333333332 108.0 L 21.0 109.0 L 21.333333333333332 109.66666666666667 L 22.0 110.33333333333333 L 23.0 111.0 L 24.0 112.0 L 25.0 113.0 L 25.666666666666668 114.0 L 26.0 115.0 L 26.0 116.0 L 26.0 116.5 Z" stroke="none" fill="rgb(66,66,66)" />
<path d="M 95.5 108.0 L 96.0 108.0 L 97.0 108.0 L 98.0 108.0 L 99.0 108.0 L 100.0 108.0 L 100.66666666666667 107.66666666666667 L 100.66666666666667 107.0 L 100.0 106.33333333333333 L 99.0 106.0 L 98.0 106.0 L 97.0 106.0 L 96.0 106.0 L 95.0 106.0 L 94.0 106.0 L 93.0 106.0 L 92.0 106.0 L 91.0 106.0 L 90.0 106.0 L 89.0 106.0 L 88.0 106.0 L 87.0 106.0 L 86.0 106.0 L 85.0 106.0 L 84.0 106.0 L 83.0 106.0 L 82.0 106.0 L 81.0 106.0 L 80.0 106.0 L 79.0 106.0 L 78.0 106.0 L 77.0 106.0 L 76.0 106.0 L 75.0 106.0 L 74.0 106.0 L 73.0 106.0 L 72.0 106.0 L 71.0 106.0 L 70.0 106.0 L 69.0 106.0 L 68.0 106.0 L 67.0 106.0 L 66.0 106.0 L 65.0 106.0 L 64.0 106.0 L 63.0 106.0 L 62.0 106.0 L 61.0 106.0 L 60.0 106.0 L 59.0 106.0 L 58.0 106.0 L 57.0 106.0 L 56.0 106.0 L 55.0 106.0 L 54.0 106.0 L 53.0 106.0 L 52.0 106.0 L 51.0 106.0 L 50.0 106.0 L 49.0 106.0 L 48.0 106.0 L 47.0 106.0 L 46.0 106.0 L 45.0 106.0 L 44.0 106.0 L 43.0 106.0 L 42.0 106.0 L 41.0 106.0 L 40.0 106.0 L 39.0 106.0 L 38.0 106.0 L 37.0 106.0 L 36.0 106.0 L 35.0 106.0 L 34.0 106.0 L 33.0 106.0 L 32.0 106.0 L 31.0 106.0 L 30.333333333333332 106.33333333333333 L 30.0 107.0 L 30.333333333333332 107.66666666666667 L 31.0 108.0 L 32.0 108.0 L 33.0 108.0 L 34.0 108.0 L 35.0 108.0 L 36.0 108.0 L 37.0 108.0 L 38.0 108.0 L 39.0 108.0 L 40.0 108.0 L 41.0 108.0 L 42.0 108.0 L 43.0 108.0 L 44.0 108.0 L 45.0 108.0 L 46.0 108.0 L 47.0 108.0 L 48.0 108.0 L 49.0 108.0 L 50.0 108.0 L 51.0 108.0 L 52.0 108.0 L 53.0 108.0 L 54.0 108.0 L 55.0 108.0 L 56.0 108.0 L 57.0 108.0 L 58.0 108.0 L 59.0 108.0 L 60.0 108.0 L 61.0 108.0 L 62.0 108.0 L 63.0 108.0 L 64.0 108.0 L 65.0 108.0 L 66.0 108.0 L 67.0 108.0 L 68.0 108.0 L 69.0 108.0 L 70.0 108.0 L 71.0 108.0 L 72.0 108.0 L 73.0 108.0 L 74.0 108.0 L 75.0 108.0 L 76.0 108.0 L 77.0 108.0 L 78.0 108.0 L 79.0 108.0 L 80.0 108.0 L 81.0 108.0 L 82.0 108.0 L 83.0 108.0 L 84.0 108.0 L 85.0 108.0 L 86.0 108.0 L 87.0 108.0 L 88.0 108.0 L 89.0 108.0 L 90.0 108.0 L 91.0 108.0 L 92.0 108.0 L 93.0 108.0 L 94.0 108.0 L 94.5 108.0 Z" stroke="none" fill="rgb(185,228,234)" />
<path d="M 104.0 117.5 L 104.0 117.0 L 104.0 116.0 L 104.0 115.0 L 104.33333333333333 114.0 L 104.66666666666667 113.0 L 105.33333333333333 112.0 L 106.0 111.33333333333333 L 107.0 110.66666666666667 L 108.0 110.33333333333333 L 108.66666666666667 109.66666666666667 L 109.0 109.0 L 108.66666666666667 108.0 L 108.0 107.33333333333333 L 107.0 106.66666666666667 L 106.0 106.33333333333333 L 105.0 106.0 L 104.0 106.33333333333333 L 103.0 107.0 L 102.0 107.66666666666667 L 101.0 108.33333333333333 L 100.0 109.0 L 99.0 110.0 L 98.0 111.0 L 97.33333333333333 112.0 L 97.0 113.0 L 97.33333333333333 114.0 L 98.0 114.66666666666667 L 99.0 115.33333333333333 L 100.0 116.0 L 101.0 116.66666666666667 L 102.0 117.33333333333333 L 103.0 117.66666666666667 L 103.5 118.0 Z" stroke="none" fill="rgb(66,66,66)" />
<path d="M 35.0 112.5 L 35.333333333333336 112.0 L 36.0 111.33333333333333 L 37.0 111.0 L 38.0 111.0 L 39.0 111.0 L 40.0 111.0 L 41.0 111.0 L 42.0 111.0 L 43.0 111.0 L 44.0 111.0 L 45.0 111.0 L 46.0 111.0 L 47.0 111.0 L 48.0 111.0 L 49.0 111.0 L 50.0 111.0 L 51.0 111.0 L 52.0 111.0 L 53.0 111.0 L 54.0 111.0 L 55.0 111.0 L 56.0 111.0 L 57.0 111.0 L 58.0 111.0 L 59.0 111.0 L 60.0 111.0 L 61.0 111.0 L 62.0 111.0 L 63.0 111.0 L 64.0 111.0 L 65.0 111.0 L 66.0 111.0 L 67.0 111.0 L 68.0 111.0 L 69.0 111.0 L 70.0 111.0 L 71.0 111.0 L 72.0 111.0 L 73.0 111.0 L 74.0 111.0 L 75.0 111.0 L 76.0 111.0 L 77.0 111.0 L 78.0 111.0 L 79.0 111.0 L 80.0 111.0 L 81.0 111.0 L 82.0 111.0 L 83.0 111.0 L 84.0 111.0 L 85.0 111.0 L 86.0 111.0 L 87.0 111.0 L 88.0 111.0 L 89.0 111.0 L 90.0 111.0 L 91.0 111.0 L 92.0 111.0 L 93.0 111.0 L 94.0 111.33333333333333 L 94.66666666666667 112.0 L 95.33333333333333 112.66666666666667 L 96.0 113.0 L 97.0 112.66666666666667 L 98.0 112.0 L 99.0 111.0 L 100.0 110.0 L 100.66666666666667 109.0 L 100.66666666666667 108.33333333333333 L 100.0 108.0 L 99.0 108.0 L 98.0 108.0 L 97.0 108.0 L 96.0 108.0 L 95.0 108.0 L 94.0 108.0 L 93.0 108.0 L 92.0 108.0 L 91.0 108.0 L 90.0 108.0 L 89.0 108.0 L 88.0 108.0 L 87.0 108.0 L 86.0 108.0 L 85.0 108.0 L 84.0 108.0 L 83.0 108.0 L 82.0 108.0 L 81.0 108.0 L 80.0 108.0 L 79.0 108.0 L 78.0 108.0 L 77.0 108.0 L 76.0 108.0 L 75.0 108.0 L 74.0 108.0 L 73.0 108.0 L 72.0 108.0 L 71.0 108.0 L 70.0 108.0 L 69.0 108.0 L 68.0 108.0 L 67.0 108.0 L 66.0 108.0 L 65.0 108.0 L 64.0 108.0 L 63.0 108.0 L 62.0 108.0 L 61.0 108.0 L 60.0 108.0 L 59.0 108.0 L 58.0 108.0 L 57.0 108.0 L 56.0 108.0 L 55.0 108.0 L 54.0 108.0 L 53.0 108.0 L 52.0 108.0 L 51.0 108.0 L 50.0 108.0 L 49.0 108.0 L 48.0 108.0 L 47.0 108.0 L 46.0 108.0 L 45.0 108.0 L 44.0 108.0 L 43.0 108.0 L 42.0 108.0 L 41.0 108.0 L 40.0 108.0 L 39.0 108.0 L 38.0 108.0 L 37.0 108.0 L 36.0 108.0 L 35.0 108.0 L 34.0 108.0 L 33.0 108.0 L 32.0 108.0 L 31.0 108.0 L 30.0 108.0 L 29.333333333333332 108.33333333333333 L 29.333333333333332 109.0 L 30.0 110.0 L 31.0 111.0 L 32.0 112.0 L 33.0 112.66666666666667 L 34.0 113.0 L 34.5 113.0 Z" stroke="none" fill="rgb(82,146,160)" />
<path d="M 91.5 113.0 L 92.0 113.0 L 93.0 113.0 L 94.0 113.0 L 94.66666666666667 112.66666666666667 L 95.0 112.0 L 94.66666666666667 111.33333333333333 L 94.0 111.0 L 93.0 111.0 L 92.0 111.0 L 91.0 111.0 L 90.0 111.0 L 89.0 111.0 L 88.0 111.0 L 87.0 111.0 L 86.0 111.0 L 85.0 111.0 L 84.0 111.0 L 83.0 111.0 L 82.0 111.0 L 81.0 111.0 L 80.0 111.0 L 79.0 111.0 L 78.0 111.0 L 77.0 111.0 L 76.0 111.0 L 75.0 111.0 L 74.0 111.0 L 73.0 111.0 L 72.0 111.0 L 71.0 111.0 L 70.0 111.0 L 69.0 111.0 L 68.0 111.0 L 67.0 111.0 L 66.0 111.0 L 65.0 111.0 L 64.0 111.0 L 63.0 111.0 L 62.0 111.0 L 61.0 111.0 L 60.0 111.0 L 59.0 111.0 L 58.0 111.0 L 57.0 111.0 L 56.0 111.0 L 55.0 111.0 L 54.0 111.0 L 53.0 111.0 L 52.0 111.0 L 51.0 111.0 L 50.0 111.0 L 49.0 111.0 L 48.0 111.0 L 47.0 111.0 L 46.0 111.0 L 45.0 111.0 L 44.0 111.0 L 43.0 111.0 L 42.0 111.0 L 41.0 111.0 L 40.0 111.0 L 39.0 111.0 L 38.0 111.0 L 37.0 111.0 L 36.0 111.0 L 35.333333333333336 111.33333333333333 L 35.0 112.0 L 35.333333333333336 112.66666666666667 L 36.0 113.0 L 37.0 113.0 L 38.0 113.0 L 39.0 113.0 L 40.0 113.0 L 41.0 113.0 L 42.0 113.0 L 43.0 113.0 L 44.0 113.0 L 45.0 113.0 L 46.0 113.0 L 47.0 113.0 L 48.0 113.0 L 49.0 113.0 L 50.0 113.0 L 51.0 113.0 L 52.0 113.0 L 53.0 113.0 L 54.0 113.0 L 55.0 113.0 L 56.0 113.0 L 57.0 113.0 L 58.0 113.0 L 59.0 113.0 L 60.0 113.0 L 61.0 113.0 L 62.0 113.0 L 63.0 113.0 L 64.0 113.0 L 65.0 113.0 L 66.0 113.0 L 67.0 113.0 L 68.0 113.0 L 69.0 113.0 L 70.0 113.0 L 71.0 113.0 L 72.0 113.0 L 73.0 113.0 L 74.0 113.0 L 75.0 113.0 L 76.0 113.0 L 77.0 113.0 L 78.0 113.0 L 79.0 113.0 L 80.0 113.0 L 81.0 113.0 L 82.0 113.0 L 83.0 113.0 L 84.0 113.0 L 85.0 113.0 L 86.0 113.0 L 87.0 113.0 L 88.0 113.0 L 89.0 113.0 L 90.0 113.0 L 90.5 113.0 Z" stroke="none" fill="rgb(185,228,234)" />
<path d="M 78.5 116.0 L 79.0 116.0 L 80.0 116.0 L 81.0 116.0 L 82.0 116.0 L 83.0 116.0 L 84.0 116.0 L 85.0 116.0 L 86.0 116.0 L 87.0 116.0 L 88.0 116.0 L 89.0 116.0 L 90.0 116.0 L 91.0 116.0 L 92.0 116.0 L 93.0 116.0 L 94.0 115.66666666666667 L 95.0 115.33333333333333 L 96.0 114.66666666666667 L 96.66666666666667 114.0 L 96.66666666666667 113.33333333333333 L 96.0 113.0 L 95.0 113.0 L 94.0 113.0 L 93.0 113.0 L 92.0 113.0 L 91.0 113.0 L 90.0 113.0 L 89.0 113.0 L 88.0 113.0 L 87.0 113.0 L 86.0 113.0 L 85.0 113.0 L 84.0 113.0 L 83.0 113.0 L 82.0 113.0 L 81.0 113.0 L 80.0 113.0 L 79.0 113.0 L 78.0 113.0 L 77.0 113.0 L 76.0 113.0 L 75.0 113.0 L 74.0 113.0 L 73.0 113.0 L 72.0 113.0 L 71.0 113.0 L 70.0 113.0 L 69.0 113.0 L 68.0 113.0 L 67.0 113.0 L 66.0 113.0 L 65.0 113.0 L 64.0 113.0 L 63.0 113.0 L 62.0 113.0 L 61.0 113.0 L 60.0 113.0 L 59.0 113.0 L 58.0 113.0 L 57.0 113.0 L 56.0 113.0 L 55.0 113.0 L 54.0 113.0 L 53.0 113.0 L 52.0 113.0 L 51.0 113.0 L 50.0 113.0 L 49.0 113.0 L 48.0 113.0 L 47.0 113.0 L 46.0 113.0 L 45.0 113.0 L 44.0 113.0 L 43.0 113.0 L 42.0 113.0 L 41.0 113.0 L 40.0 113.0 L 39.0 113.0 L 38.0 113.0 L 37.0 113.0 L 36.0 113.0 L 35.0 113.0 L 34.0 113.0 L 33.333333333333336 113.33333333333333 L 33.333333333333336 114.0 L 34.0 115.0 L 35.0 115.66666666666667 L 36.0 116.0 L 37.0 116.0 L 38.0 116.0 L 39.0 116.0 L 40.0 116.0 L 41.0 116.0 L 42.0 116.0 L 43.0 116.0 L 44.0 116.0 L 45.0 116.0 L 46.0 116.0 L 47.0 116.0 L 48.0 116.0 L 49.0 116.0 L 50.0 116.0 L 51.0 116.0 L 52.0 116.0 L 53.0 116.0 L 54.0 116.0 L 55.0 116.0 L 56.0 116.0 L 57.0 116.0 L 58.0 116.0 L 59.0 116.0 L 60.0 116.0 L 61.0 116.0 L 62.0 116.0 L 63.0 116.0 L 64.0 116.0 L 65.0 116.0 L 66.0 116.0 L 67.0 116.0 L 68.0 116.0 L 69.0 116.0 L 70.0 116.0 L 71.0 116.0 L 72.0 116.0 L 73.0 116.0 L 74.0 116.0 L 75.0 116.0 L 76.0 116.0 L 77.0 116.0 L 77.5 116.0 Z" stroke="none" fill="rgb(47,120,137)" />
</svg>
