<?xml version="1.0" encoding="UTF-8" standalone="no"?>
<!DOCTYPE svg PUBLIC "-//W3C//DTD SVG 1.1//EN"
"http://www.w3.org/Graphics/SVG/1.1/DTD/svg11.dtd">
<svg width="128" height="128" xmlns="http://www.w3.org/2000/svg" version="1.1">
<path d="M 5.5 128.0 L 6.0 128.0 L 7.0 128.0 L 8.0 128.0 L 9.0 128.0 L 10.0 128.0 L 11.0 128.0 L 12.0 128.0 L 13.0 128.0 L 14.0 128.0 L 15.0 128.0 L 16.0 128.0 L 17.0 128.0 L 18.0 128.0 L 19.0 128.0 L 20.0 128.0 L 21.0 128.0 L 22.0 128.0 L 23.0 128.0 L 24.0 128.0 L 25.0 128.0 L 26.0 128.0 L 27.0 128.0 L 28.0 128.0 L 29.0 128.0 L 30.0 128.0 L 31.0 128.0 L 32.0 128.0 L 33.0 128.0 L 34.0 128.0 L 35.0 128.0 L 36.0 128.0 L 37.0 128.0 L 38.0 128.0 L 39.0 128.0 L 40.0 128.0 L 41.0 128.0 L 42.0 128.0 L 43.0 128.0 L 44.0 128.0 L 45.0 128.0 L 46.0 128.0 L 47.0 128.0 L 48.0 128.0 L 49.0 128.0 L 50.0 128.0 L 51.0 128.0 L 52.0 128.0 L 53.0 128.0 L 54.0 128.0 L 55.0 128.0 L 56.0 128.0 L 57.0 128.0 L 58.0 128.0 L 59.0 128.0 L 60.0 128.0 L 61.0 128.0 L 62.0 128.0 L 63.0 128.0 L 64.0 128.0 L 65.0 128.0 L 66.0 128.0 L 67.0 128.0 L 68.0 128.0 L 69.0 128.0 L 70.0 128.0 L 71.0 128.0 L 72.0 128.0 L 73.0 128.0 L 74.0 128.0 L 75.0 128.0 L 76.0 128.0 L 77.0 128.0 L 78.0 128.0 L 79.0 128.0 L 80.0 128.0 L 81.0 128.0 L 82.0 128.0 L 83.0 128.0 L 84.0 128.0 L 85.0 128.0 L 86.0 128.0 L 87.0 128.0 L 88.0 128.0 L 89.0 128.0 L 90.0 128.0 L 91.0 128.0 L 92.0 128.0 L 93.0 128.0 L 94.0 128.0 L 95.0 128.0 L 96.0 128.0 L 97.0 128.0 L 98.0 128.0 L 99.0 128.0 L 100.0 128.0 L 101.0 128.0 L 102.0 128.0 L 103.0 128.0 L 104.0 128.0 L 105.0 128.0 L 106.0 128.0 L 107.0 128.0 L 108.0 128.0 L 109.0 128.0 L 110.0 128.0 L 111.0 128.0 L 112.0 128.0 L 113.0 128.0 L 114.0 128.0 L 115.0 128.0 L 116.0 128.0 L 117.0 128.0 L 118.0 128.0 L 119.0 128.0 L 120.0 128.0 L 121.0 128.0 L 122.0 128.0 L 123.0 128.0 L 124.0 128.0 L 125.0 128.0 L 126.0 128.0 L 127.0 128.0 L 127.66666666666667 127.66666666666667 L 128.0 127.0 L 128.0 126.0 L 128.0 125.0 L 128.0 124.0 L 128.0 123.0 L 128.0 122.0 L 128.0 121.0 L 128.0 120.0 L 128.0 119.0 L 128.0 118.0 L 128.0 117.0 L 128.0 116.0 L 128.0 115.0 L 128.0 114.0 L 128.0 113.0 L 128.0 112.0 L 128.0 111.0 L 128.0 110.0 L 128.0 109.0 L 128.0 108.0 L 128.0 107.0 L 128.0 106.0 L 128.0 105.0 L 128.0 104.0 L 128.0 103.0 L 128.0 102.0 L 128.0 101.0 L 128.0 100.0 L 128.0 99.0 L 128.0 98.0 L 128.0 97.0 L 128.0 96.0 L 128.0 95.0 L 128.0 94.0 L 128.0 93.0 L 128.0 92.0 L 128.0 91.0 L 128.0 90.0 L 128.0 89.0 L 128.0 88.0 L 128.0 87.0 L 128.0 86.0 L 128.0 85.0 L 128.0 84.0 L 128.0 83.0 L 128.0 82.0 L 128.0 81.0 L 128.0 80.0 L 128.0 79.0 L 128.0 78.0 L 128.0 77.0 L 128.0 76.0 L 128.0 75.0 L 128.0 74.0 L 128.0 73.0 L 128.0 72.0 L 128.0 71.0 L 128.0 70.0 L 128.0 69.0 L 128.0 68.0 L 128.0 67.0 L 128.0 66.0 L 128.0 65.0 L 128.0 64.0 L 128.0 63.0 L 128.0 62.0 L 128.0 61.0 L 128.0 60.0 L 128.0 59.0 L 128.0 58.0 L 128.0 57.0 L 128.0 56.0 L 128.0 55.0 L 128.0 54.0 L 128.0 53.0 L 128.0 52.0 L 128.0 51.0 L 128.0 50.0 L 128.0 49.0 L 128.0 48.0 L 128.0 47.0 L 128.0 46.0 L 128.0 45.0 L 128.0 44.0 L 128.0 43.0 L 128.0 42.0 L 128.0 41.0 L 128.0 40.0 L 128.0 39.0 L 128.0 38.0 L 128.0 37.0 L 128.0 36.0 L 128.0 35.0 L 128.0 34.0 L 128.0 33.0 L 128.0 32.0 L 128.0 31.0 L 128.0 30.0 L 128.0 29.0 L 128.0 28.0 L 128.0 27.0 L 128.0 26.0 L 128.0 25.0 L 128.0 24.0 L 128.0 23.0 L 128.0 22.0 L 128.0 21.0 L 128.0 20.0 L 128.0 19.0 L 128.0 18.0 L 128.0 17.0 L 128.0 16.0 L 128.0 15.0 L 128.0 14.0 L 128.0 13.0 L 128.0 12.0 L 128.0 11.0 L 128.0 10.0 L 128.0 9.0 L 128.0 8.0 L 128.0 7.0 L 128.0 6.0 L 128.0 5.0 L 128.0 4.0 L 128.0 3.0 L 128.0 2.0 L 128.0 1.0 L 127.66666666666667 0.3333333333333333 L 127.0 0.0 L 126.0 0.0 L 125.0 0.0 L 124.0 0.0 L 123.0 0.0 L 122.0 0.0 L 121.0 0.0 L 120.0 0.0 L 119.0 0.0 L 118.0 0.0 L 117.0 0.0 L 116.0 0.0 L 115.0 0.0 L 114.0 0.0 L 113.0 0.0 L 112.0 0.0 L 111.0 0.0 L 110.0 0.0 L 109.0 0.0 L 108.0 0.0 L 107.0 0.0 L 106.0 0.0 L 105.0 0.0 L 104.0 0.0 L 103.0 0.0 L 102.0 0.0 L 101.0 0.0 L 100.0 0.0 L 99.0 0.0 L 98.0 0.0 L 97.0 0.0 L 96.0 0.0 L 95.0 0.0 L 94.0 0.0 L 93.0 0.0 L 92.0 0.0 L 91.0 0.0 L 90.0 0.0 L 89.0 0.0 L 88.0 0.0 L 87.0 0.0 L 86.0 0.0 L 85.0 0.0 L 84.0 0.0 L 83.0 0.0 L 82.0 0.0 L 81.0 0.0 L 80.0 0.0 L 79.0 0.0 L 78.0 0.0 L 77.0 0.0 L 76.0 0.0 L 75.0 0.0 L 74.0 0.0 L 73.0 0.0 L 72.0 0.0 L 71.0 0.0 L 70.0 0.0 L 69.0 0.0 L 68.0 0.0 L 67.0 0.0 L 66.0 0.0 L 65.0 0.0 L 64.0 0.0 L 63.0 0.0 L 62.0 0.0 L 61.0 0.0 L 60.0 0.0 L 59.0 0.0 L 58.0 0.0 L 57.0 0.0 L 56.0 0.0 L 55.0 0.0 L 54.0 0.0 L 53.0 0.0 L 52.0 0.0 L 51.0 0.0 L 50.0 0.0 L 49.0 0.0 L 48.0 0.0 L 47.0 0.0 L 46.0 0.0 L 45.0 0.0 L 44.0 0.0 L 43.0 0.0 L 42.0 0.0 L 41.0 0.0 L 40.0 0.0 L 39.0 0.0 L 38.0 0.0 L 37.0 0.0 L 36.0 0.0 L 35.0 0.0 L 34.0 0.0 L 33.0 0.0 L 32.0 0.0 L 31.0 0.0 L 30.0 0.0 L 29.0 0.0 L 28.0 0.0 L 27.0 0.0 L 26.0 0.0 L 25.0 0.0 L 24.0 0.0 L 23.0 0.0 L 22.0 0.0 L 21.0 0.0 L 20.0 0.0 L 19.0 0.0 L 18.0 0.0 L 17.0 0.0 L 16.0 0.0 L 15.0 0.0 L 14.0 0.0 L 13.0 0.0 L 12.0 0.0 L 11.0 0.0 L 10.0 0.0 L 9.0 0.0 L 8.0 0.0 L 7.0 0.0 L 6.0 0.0 L 5.0 0.0 L 4.0 0.0 L 3.0 0.0 L 2.0 0.0 L 1.0 0.0 L 0.3333333333333333 0.3333333333333333 L 0.0 1.0 L 0.0 2.0 L 0.0 3.0 L 0.0 4.0 L 0.0 5.0 L 0.0 6.0 L 0.0 7.0 L 0.0 8.0 L 0.0 9.0 L 0.0 10.0 L 0.0 11.0 L 0.0 12.0 L 0.0 13.0 L 0.0 14.0 L 0.0 15.0 L 0.0 16.0 L 0.0 17.0 L 0.0 18.0 L 0.0 19.0 L 0.0 20.0 L 0.0 21.0 L 0.0 22.0 L 0.0 23.0 L 0.0 24.0 L 0.0 25.0 L 0.0 26.0 L 0.0 27.0 L 0.0 28.0 L 0.0 29.0 L 0.0 30.0 L 0.0 31.0 L 0.0 32.0 L 0.0 33.0 L 0.0 34.0 L 0.0 35.0 L 0.0 36.0 L 0.0 37.0 L 0.0 38.0 L 0.0 39.0 L 0.0 40.0 L 0.0 41.0 L 0.0 42.0 L 0.0 43.0 L 0.0 44.0 L 0.0 45.0 L 0.0 46.0 L 0.0 47.0 L 0.0 48.0 L 0.0 49.0 L 0.0 50.0 L 0.0 51.0 L 0.0 52.0 L 0.0 53.0 L 0.0 54.0 L 0.0 55.0 L 0.0 56.0 L 0.0 57.0 L 0.0 58.0 L 0.0 59.0 L 0.0 60.0 L 0.0 61.0 L 0.0 62.0 L 0.0 63.0 L 0.0 64.0 L 0.0 65.0 L 0.0 66.0 L 0.0 67.0 L 0.0 68.0 L 0.0 69.0 L 0.0 70.0 L 0.0 71.0 L 0.0 72.0 L 0.0 73.0 L 0.0 74.0 L 0.0 75.0 L 0.0 76.0 L 0.0 77.0 L 0.0 78.0 L 0.0 79.0 L 0.0 80.0 L 0.0 81.0 L 0.0 82.0 L 0.0 83.0 L 0.0 84.0 L 0.0 85.0 L 0.0 86.0 L 0.0 87.0 L 0.0 88.0 L 0.0 89.0 L 0.0 90.0 L 0.0 91.0 L 0.0 92.0 L 0.0 93.0 L 0.0 94.0 L 0.0 95.0 L 0.0 96.0 L 0.0 97.0 L 0.0 98.0 L 0.0 99.0 L 0.0 100.0 L 0.0 101.0 L 0.0 102.0 L 0.0 103.0 L 0.0 104.0 L 0.0 105.0 L 0.0 106.0 L 0.0 107.0 L 0.0 108.0 L 0.0 109.0 L 0.0 110.0 L 0.0 111.0 L 0.0 112.0 L 0.0 113.0 L 0.0 114.0 L 0.0 115.0 L 0.0 116.0 L 0.0 117.0 L 0.0 118.0 L 0.0 119.0 L 0.0 120.0 L 0.0 121.0 L 0.0 122.0 L 0.0 123.0 L 0.0 124.0 L 0.0 125.0 L 0.0 126.0 L 0.0 127.0 L 0.3333333333333333 127.66666666666667 L 1.0 128.0 L 2.0 128.0 L 3.0 128.0 L 4.0 128.0 L 4.5 128.0 Z" stroke="none" fill="rgb(0,0,0)" />
<path d="M 64.5 75.5 L 65.0 75.33333333333333 L 66.0 75.0 L 67.0 75.0 L 68.0 75.0 L 69.0 75.0 L 70.0 74.66666666666667 L 71.0 74.33333333333333 L 72.0 74.0 L 73.0 73.66666666666667 L 74.0 73.33333333333333 L 75.0 73.0 L 76.0 73.0 L 76.66666666666667 72.66666666666667 L 77.0 72.0 L 77.0 71.0 L 77.0 70.0 L 77.0 69.0 L 77.0 68.0 L 77.0 67.0 L 77.0 66.0 L 77.0 65.0 L 77.0 64.0 L 77.0 63.0 L 77.0 62.0 L 77.0 61.0 L 77.0 60.0 L 76.66666666666667 59.0 L 76.0 58.333333333333336 L 75.0 58.0 L 74.0 58.0 L 73.0 58.0 L 72.0 58.0 L 71.0 58.0 L 70.0 57.666666666666664 L 69.0 57.333333333333336 L 68.0 56.666666666666664 L 67.0 56.0 L 66.66666666666667 55.0 L 67.0 54.333333333333336 L 68.0 54.0 L 68.66666666666667 53.666666666666664 L 68.66666666666667 53.0 L 68.0 52.0 L 67.33333333333333 51.0 L 67.33333333333333 50.0 L 68.0 49.333333333333336 L 69.0 49.0 L 69.66666666666667 48.666666666666664 L 69.66666666666667 48.0 L 69.0 47.333333333333336 L 68.0 47.0 L 67.0 47.0 L 66.0 47.0 L 65.0 47.0 L 64.0 47.0 L 63.0 47.0 L 62.0 47.0 L 61.0 47.0 L 60.0 47.0 L 59.0 47.0 L 58.0 47.0 L 57.333333333333336 47.333333333333336 L 57.0 48.0 L 57.333333333333336 48.666666666666664 L 58.0 49.333333333333336 L 59.0 50.0 L 59.666666666666664 51.0 L 60.333333333333336 52.0 L 60.666666666666664 53.0 L 61.0 54.0 L 60.666666666666664 55.0 L 60.0 56.0 L 59.0 56.666666666666664 L 58.0 57.333333333333336 L 57.0 58.0 L 56.0 58.666666666666664 L 55.0 59.0 L 54.0 59.0 L 53.0 59.0 L 52.333333333333336 59.333333333333336 L 52.0 60.0 L 52.0 61.0 L 51.666666666666664 62.0 L 51.333333333333336 63.0 L 51.0 64.0 L 51.0 65.0 L 51.0 66.0 L 51.0 67.0 L 51.0 68.0 L 51.0 69.0 L 51.0 70.0 L 51.333333333333336 71.0 L 52.0 72.0 L 53.0 72.66666666666667 L 54.0 73.33333333333333 L 55.0 73.66666666666667 L 56.0 74.0 L 57.0 74.33333333333333 L 58.0 74.66666666666667 L 59.0 75.0 L 60.0 75.33333333333333 L 61.0 75.66666666666667 L 62.0 76.0 L 63.0 76.0 L 63.5 76.0 Z" stroke="none" fill="rgb(255,202,40)" />
<path d="M 21.5 79.5 L 21.666666666666668 80.0 L 22.0 81.0 L 22.333333333333332 81.66666666666667 L 23.0 82.0 L 24.0 82.0 L 25.0 82.0 L 26.0 82.0 L 27.0 82.0 L 28.0 82.0 L 29.0 82.0 L 30.0 81.66666666666667 L 31.0 81.33333333333333 L 32.0 80.66666666666667 L 33.0 80.0 L 33.666666666666664 79.0 L 34.333333333333336 78.0 L 35.0 77.0 L 36.0 76.0 L 37.0 75.0 L 38.0 74.0 L 39.0 73.0 L 40.0 72.0 L 41.0 71.0 L 42.0 70.0 L 43.0 69.0 L 43.666666666666664 68.0 L 44.333333333333336 67.0 L 45.0 66.0 L 45.666666666666664 65.0 L 46.333333333333336 64.0 L 47.0 63.0 L 47.666666666666664 62.0 L 48.333333333333336 61.0 L 49.0 60.0 L 50.0 59.0 L 50.666666666666664 58.0 L 50.666666666666664 57.0 L 50.0 56.0 L 49.666666666666664 55.0 L 50.0 54.333333333333336 L 50.666666666666664 53.666666666666664 L 51.0 53.0 L 50.666666666666664 52.0 L 50.333333333333336 51.0 L 50.333333333333336 50.0 L 51.0 49.333333333333336 L 51.666666666666664 48.666666666666664 L 51.666666666666664 48.0 L 51.0 47.333333333333336 L 50.0 47.0 L 49.0 47.0 L 48.0 47.0 L 47.0 47.0 L 46.0 46.666666666666664 L 45.0 46.333333333333336 L 44.0 46.333333333333336 L 43.333333333333336 47.0 L 42.666666666666664 48.0 L 42.333333333333336 49.0 L 41.666666666666664 50.0 L 41.333333333333336 51.0 L 40.666666666666664 52.0 L 40.333333333333336 53.0 L 39.666666666666664 54.0 L 39.333333333333336 55.0 L 39.0 56.0 L 38.666666666666664 57.0 L 38.333333333333336 58.0 L 37.666666666666664 59.0 L 37.0 60.0 L 36.0 61.0 L 35.0 62.0 L 34.333333333333336 63.0 L 33.666666666666664 64.0 L 33.0 65.0 L 32.0 66.0 L 31.0 67.0 L 30.0 68.0 L 29.0 69.0 L 28.0 70.0 L 27.0 70.66666666666667 L 26.0 71.0 L 25.0 71.0 L 24.0 71.0 L 23.0 71.33333333333333 L 22.0 71.66666666666667 L 21.0 72.0 L 20.0 72.33333333333333 L 19.0 73.0 L 18.0 74.0 L 17.0 75.0 L 16.0 75.66666666666667 L 15.333333333333334 76.33333333333333 L 14.666666666666666 77.0 L 14.333333333333334 78.0 L 14.333333333333334 79.0 L 15.0 80.0 L 16.0 80.66666666666667 L 17.0 81.0 L 18.0 80.66666666666667 L 19.0 80.0 L 20.0 79.33333333333333 L 20.5 79.0 Z" stroke="none" fill="rgb(255,202,40)" />
<path d="M 96.5 60.5 L 97.0 60.0 L 98.0 59.0 L 99.0 58.333333333333336 L 99.66666666666667 57.666666666666664 L 100.0 57.0 L 100.33333333333333 56.0 L 101.0 55.0 L 101.66666666666667 54.0 L 102.33333333333333 53.0 L 102.66666666666667 52.0 L 103.33333333333333 51.0 L 104.0 50.0 L 104.66666666666667 49.0 L 105.0 48.0 L 104.66666666666667 47.333333333333336 L 104.0 47.0 L 103.0 47.0 L 102.0 47.0 L 101.0 47.0 L 100.0 47.0 L 99.0 47.0 L 98.0 47.0 L 97.0 47.0 L 96.0 47.333333333333336 L 95.0 48.0 L 94.33333333333333 49.0 L 93.66666666666667 50.0 L 93.0 51.0 L 92.0 52.0 L 91.0 53.0 L 90.0 54.0 L 89.0 54.333333333333336 L 88.0 54.0 L 87.33333333333333 53.0 L 86.66666666666667 52.0 L 86.0 51.0 L 85.33333333333333 50.0 L 84.66666666666667 49.0 L 84.33333333333333 48.0 L 83.66666666666667 47.333333333333336 L 83.0 47.0 L 82.0 47.0 L 81.0 47.0 L 80.0 47.0 L 79.0 47.0 L 78.0 47.0 L 77.0 47.0 L 76.33333333333333 47.333333333333336 L 76.0 48.0 L 76.0 49.0 L 76.33333333333333 50.0 L 77.0 51.0 L 78.0 52.0 L 78.33333333333333 53.0 L 78.33333333333333 54.0 L 78.0 55.0 L 78.0 56.0 L 78.0 57.0 L 78.0 58.0 L 78.33333333333333 59.0 L 79.0 60.0 L 79.66666666666667 61.0 L 80.33333333333333 62.0 L 81.0 63.0 L 81.66666666666667 64.0 L 82.33333333333333 65.0 L 83.0 66.0 L 84.0 67.0 L 85.0 68.0 L 86.0 68.66666666666667 L 87.0 69.0 L 88.0 69.0 L 89.0 68.66666666666667 L 90.0 68.0 L 91.0 67.0 L 92.0 66.0 L 92.66666666666667 65.0 L 93.33333333333333 64.0 L 94.0 63.0 L 95.0 62.0 L 95.5 61.5 Z" stroke="none" fill="rgb(255,202,40)" />
<path d="M 102.5 66.0 L 103.0 66.0 L 104.0 66.0 L 105.0 66.0 L 106.0 66.33333333333333 L 107.0 66.66666666666667 L 108.0 67.0 L 109.0 67.0 L 109.66666666666667 66.66666666666667 L 110.0 66.0 L 109.66666666666667 65.0 L 109.33333333333333 64.0 L 108.66666666666667 63.0 L 108.0 62.0 L 107.0 61.0 L 106.0 60.333333333333336 L 105.0 59.666666666666664 L 104.0 59.333333333333336 L 103.0 59.0 L 102.0 58.666666666666664 L 101.0 58.333333333333336 L 100.0 58.0 L 99.0 58.0 L 98.0 58.333333333333336 L 97.0 59.0 L 96.0 60.0 L 95.0 61.0 L 94.0 62.0 L 93.33333333333333 63.0 L 92.66666666666667 64.0 L 92.0 65.0 L 91.0 66.0 L 90.0 67.0 L 89.0 68.0 L 88.0 68.66666666666667 L 87.0 68.66666666666667 L 86.0 68.0 L 85.0 67.0 L 84.0 66.0 L 83.0 65.0 L 82.33333333333333 64.0 L 81.66666666666667 63.0 L 81.0 62.0 L 80.33333333333333 61.0 L 79.66666666666667 60.0 L 79.0 59.0 L 78.0 58.333333333333336 L 77.33333333333333 58.333333333333336 L 77.0 59.0 L 77.0 60.0 L 77.0 61.0 L 77.0 62.0 L 77.0 63.0 L 77.0 64.0 L 77.0 65.0 L 77.0 66.0 L 77.0 67.0 L 77.0 68.0 L 77.0 69.0 L 77.0 70.0 L 77.0 71.0 L 77.0 72.0 L 77.33333333333333 72.66666666666667 L 78.0 73.0 L 79.0 73.0 L 80.0 73.33333333333333 L 81.0 73.66666666666667 L 82.0 74.0 L 83.0 74.0 L 84.0 74.0 L 85.0 74.0 L 86.0 74.0 L 87.0 74.0 L 88.0 74.0 L 89.0 73.66666666666667 L 90.0 73.33333333333333 L 91.0 72.66666666666667 L 92.0 72.33333333333333 L 93.0 71.66666666666667 L 94.0 71.33333333333333 L 95.0 70.66666666666667 L 96.0 70.0 L 97.0 69.0 L 98.0 68.33333333333333 L 99.0 67.66666666666667 L 100.0 67.0 L 101.0 66.33333333333333 L 101.5 66.0 Z" stroke="none" fill="rgb(179,70,189)" />
<path d="M 57.5 34.5 L 58.0 35.0 L 59.0 36.0 L 60.0 36.666666666666664 L 61.0 37.0 L 62.0 37.0 L 63.0 37.0 L 64.0 37.0 L 65.0 37.0 L 66.0 37.0 L 67.0 37.333333333333336 L 68.0 37.666666666666664 L 68.66666666666667 37.666666666666664 L 69.0 37.0 L 69.33333333333333 36.0 L 70.0 35.0 L 71.0 34.0 L 72.0 33.0 L 73.0 32.0 L 73.66666666666667 31.0 L 74.0 30.0 L 74.0 29.0 L 74.0 28.0 L 74.0 27.0 L 74.0 26.0 L 74.0 25.0 L 74.0 24.0 L 74.0 23.0 L 74.0 22.0 L 74.0 21.0 L 73.66666666666667 20.333333333333332 L 73.0 20.0 L 72.33333333333333 20.333333333333332 L 71.66666666666667 21.0 L 71.33333333333333 22.0 L 71.0 23.0 L 70.66666666666667 24.0 L 70.0 24.666666666666668 L 69.0 24.666666666666668 L 68.66666666666667 24.0 L 68.66666666666667 23.0 L 69.0 22.0 L 69.0 21.0 L 69.0 20.0 L 69.0 19.0 L 68.66666666666667 18.0 L 68.0 17.333333333333332 L 67.0 16.666666666666668 L 66.0 16.333333333333332 L 65.0 15.666666666666666 L 64.0 15.333333333333334 L 63.0 14.666666666666666 L 62.0 14.333333333333334 L 61.0 14.0 L 60.0 14.0 L 59.0 14.333333333333334 L 58.0 15.0 L 57.0 16.0 L 56.0 17.0 L 55.0 18.0 L 54.333333333333336 19.0 L 54.0 20.0 L 54.0 21.0 L 54.0 22.0 L 54.0 23.0 L 54.0 24.0 L 54.0 25.0 L 54.0 26.0 L 54.0 27.0 L 54.0 28.0 L 54.0 29.0 L 54.0 30.0 L 54.333333333333336 31.0 L 55.0 32.0 L 56.0 33.0 L 56.5 33.5 Z" stroke="none" fill="rgb(255,202,40)" />
<path d="M 88.5 114.5 L 89.0 114.33333333333333 L 90.0 114.0 L 91.0 114.0 L 92.0 114.0 L 93.0 114.0 L 94.0 113.66666666666667 L 95.0 113.0 L 95.66666666666667 112.0 L 96.33333333333333 111.0 L 97.0 110.0 L 98.0 109.0 L 99.0 108.33333333333333 L 99.66666666666667 107.66666666666667 L 100.0 107.0 L 99.66666666666667 106.33333333333333 L 99.0 106.0 L 98.0 106.0 L 97.0 106.0 L 96.0 106.0 L 95.0 106.0 L 94.0 106.0 L 93.0 106.0 L 92.0 106.0 L 91.0 106.0 L 90.0 106.33333333333333 L 89.0 106.66666666666667 L 88.0 107.0 L 87.0 107.0 L 86.0 107.0 L 85.0 107.33333333333333 L 84.0 108.0 L 83.33333333333333 109.0 L 82.66666666666667 110.0 L 82.0 111.0 L 81.0 111.33333333333333 L 80.0 111.33333333333333 L 79.0 111.0 L 78.0 111.33333333333333 L 77.33333333333333 112.0 L 77.0 113.0 L 77.0 114.0 L 76.66666666666667 115.0 L 76.0 115.66666666666667 L 75.0 116.33333333333333 L 74.0 116.66666666666667 L 73.0 117.0 L 72.0 117.0 L 71.0 117.0 L 70.0 117.0 L 69.0 117.0 L 68.0 117.33333333333333 L 67.0 117.66666666666667 L 66.0 118.33333333333333 L 65.0 119.0 L 64.0 119.66666666666667 L 63.0 120.33333333333333 L 62.0 120.66666666666667 L 61.0 121.33333333333333 L 60.0 121.66666666666667 L 59.0 122.33333333333333 L 58.333333333333336 123.0 L 58.333333333333336 124.0 L 59.0 124.66666666666667 L 60.0 125.0 L 61.0 125.0 L 62.0 125.0 L 63.0 125.0 L 64.0 125.0 L 65.0 125.0 L 66.0 125.0 L 67.0 125.0 L 68.0 125.0 L 69.0 125.0 L 70.0 125.0 L 71.0 125.0 L 71.66666666666667 124.66666666666667 L 72.33333333333333 124.0 L 73.0 123.33333333333333 L 74.0 122.66666666666667 L 75.0 122.33333333333333 L 76.0 121.66666666666667 L 77.0 121.33333333333333 L 78.0 120.66666666666667 L 79.0 120.0 L 80.0 119.33333333333333 L 81.0 118.66666666666667 L 82.0 118.33333333333333 L 83.0 117.66666666666667 L 84.0 117.0 L 85.0 116.33333333333333 L 86.0 115.66666666666667 L 87.0 115.33333333333333 L 87.5 115.0 Z" stroke="none" fill="rgb(182,134,255)" />
<path d="M 48.5 47.0 L 49.0 47.0 L 50.0 47.333333333333336 L 51.0 48.0 L 51.666666666666664 49.0 L 52.333333333333336 49.666666666666664 L 53.0 50.0 L 53.666666666666664 49.666666666666664 L 54.333333333333336 49.0 L 55.0 48.666666666666664 L 56.0 48.666666666666664 L 56.666666666666664 48.666666666666664 L 57.333333333333336 48.0 L 58.0 47.333333333333336 L 59.0 47.0 L 60.0 47.0 L 61.0 47.0 L 62.0 47.0 L 63.0 47.0 L 64.0 47.0 L 65.0 47.0 L 66.0 47.0 L 67.0 47.0 L 68.0 47.333333333333336 L 69.0 48.0 L 70.0 48.666666666666664 L 71.0 48.666666666666664 L 72.0 48.666666666666664 L 73.0 48.666666666666664 L 74.0 49.0 L 75.0 49.0 L 75.66666666666667 48.666666666666664 L 76.33333333333333 48.0 L 77.0 47.333333333333336 L 78.0 47.0 L 79.0 47.0 L 80.0 47.0 L 81.0 47.0 L 82.0 47.0 L 82.66666666666667 46.666666666666664 L 83.0 46.0 L 83.0 45.0 L 82.66666666666667 44.0 L 82.0 43.0 L 81.0 42.333333333333336 L 80.0 41.666666666666664 L 79.0 41.333333333333336 L 78.0 41.0 L 77.0 41.0 L 76.0 41.0 L 75.0 41.0 L 74.0 41.0 L 73.0 41.0 L 72.0 41.0 L 71.0 41.0 L 70.0 41.0 L 69.0 41.0 L 68.0 41.0 L 67.0 41.0 L 66.0 41.0 L 65.0 41.0 L 64.0 41.0 L 63.0 41.0 L 62.0 41.0 L 61.0 41.0 L 60.0 41.0 L 59.0 41.0 L 58.0 41.0 L 57.0 41.0 L 56.0 40.666666666666664 L 55.0 40.333333333333336 L 54.0 40.0 L 53.0 40.0 L 52.0 40.0 L 51.0 40.0 L 50.0 40.333333333333336 L 49.0 40.666666666666664 L 48.0 41.333333333333336 L 47.0 42.0 L 46.0 43.0 L 45.333333333333336 44.0 L 45.0 45.0 L 45.0 46.0 L 45.333333333333336 46.666666666666664 L 46.0 47.0 L 47.0 47.0 L 47.5 47.0 Z" stroke="none" fill="rgb(255,192,23)" />
<path d="M 47.5 42.5 L 48.0 42.0 L 49.0 41.333333333333336 L 50.0 40.666666666666664 L 51.0 40.333333333333336 L 52.0 40.0 L 53.0 40.0 L 54.0 40.0 L 55.0 39.666666666666664 L 56.0 39.333333333333336 L 57.0 39.0 L 58.0 39.0 L 59.0 38.666666666666664 L 59.666666666666664 38.0 L 60.0 37.0 L 59.666666666666664 36.0 L 59.0 35.0 L 58.0 34.0 L 57.0 33.0 L 56.0 32.0 L 55.0 31.0 L 54.333333333333336 30.0 L 54.0 29.0 L 54.0 28.0 L 54.0 27.0 L 54.0 26.0 L 54.0 25.0 L 54.0 24.0 L 54.0 23.0 L 54.0 22.0 L 54.0 21.0 L 54.333333333333336 20.0 L 54.666666666666664 19.0 L 54.666666666666664 18.0 L 54.0 17.0 L 53.0 16.0 L 52.0 15.0 L 51.0 14.333333333333334 L 50.0 14.0 L 49.333333333333336 14.333333333333334 L 49.0 15.0 L 49.0 16.0 L 49.0 17.0 L 49.0 18.0 L 49.0 19.0 L 48.666666666666664 20.0 L 48.333333333333336 21.0 L 48.0 22.0 L 48.0 23.0 L 48.0 24.0 L 47.666666666666664 25.0 L 47.333333333333336 26.0 L 47.0 27.0 L 46.666666666666664 28.0 L 46.0 29.0 L 45.333333333333336 30.0 L 44.666666666666664 31.0 L 44.333333333333336 32.0 L 43.666666666666664 33.0 L 43.333333333333336 34.0 L 42.666666666666664 35.0 L 42.333333333333336 36.0 L 42.0 37.0 L 42.0 38.0 L 42.0 39.0 L 42.0 40.0 L 42.0 41.0 L 42.0 42.0 L 42.0 43.0 L 42.333333333333336 44.0 L 42.666666666666664 45.0 L 43.333333333333336 45.666666666666664 L 44.0 46.0 L 44.666666666666664 45.666666666666664 L 45.333333333333336 45.0 L 46.0 44.0 L 46.5 43.5 Z" stroke="none" fill="rgb(179,70,189)" />
<path d="M 88.0 51.5 L 88.33333333333333 51.0 L 88.66666666666667 50.0 L 89.0 49.0 L 89.33333333333333 48.0 L 89.66666666666667 47.0 L 90.0 46.0 L 90.0 45.0 L 89.66666666666667 44.0 L 89.33333333333333 43.0 L 88.66666666666667 42.0 L 88.33333333333333 41.0 L 87.66666666666667 40.333333333333336 L 87.0 39.666666666666664 L 86.0 39.0 L 85.0 38.333333333333336 L 84.0 38.0 L 83.0 37.666666666666664 L 82.0 37.333333333333336 L 81.0 36.666666666666664 L 80.0 36.333333333333336 L 79.0 35.666666666666664 L 78.0 35.0 L 77.33333333333333 34.0 L 77.0 33.0 L 77.0 32.0 L 77.33333333333333 31.0 L 77.66666666666667 30.0 L 78.0 29.0 L 78.33333333333333 28.0 L 78.66666666666667 27.0 L 79.0 26.0 L 79.33333333333333 25.0 L 79.66666666666667 24.0 L 80.0 23.0 L 80.0 22.0 L 80.0 21.0 L 80.0 20.0 L 80.0 19.0 L 80.0 18.0 L 79.66666666666667 17.0 L 79.33333333333333 16.0 L 79.0 15.0 L 78.66666666666667 14.333333333333334 L 78.0 14.0 L 77.0 14.333333333333334 L 76.33333333333333 15.0 L 75.66666666666667 16.0 L 75.0 16.666666666666668 L 74.0 17.333333333333332 L 73.33333333333333 18.0 L 73.0 19.0 L 73.33333333333333 20.0 L 73.66666666666667 21.0 L 74.0 22.0 L 74.0 23.0 L 74.0 24.0 L 74.0 25.0 L 74.0 26.0 L 74.0 27.0 L 74.0 28.0 L 74.0 29.0 L 73.66666666666667 30.0 L 73.0 31.0 L 72.0 32.0 L 71.0 33.0 L 70.0 34.0 L 69.33333333333333 35.0 L 69.0 36.0 L 69.0 37.0 L 69.33333333333333 38.0 L 70.0 38.666666666666664 L 71.0 39.0 L 72.0 39.0 L 73.0 39.333333333333336 L 74.0 40.0 L 75.0 40.666666666666664 L 76.0 41.0 L 77.0 41.0 L 78.0 41.333333333333336 L 79.0 41.666666666666664 L 80.0 42.333333333333336 L 81.0 43.0 L 82.0 44.0 L 82.66666666666667 45.0 L 83.0 46.0 L 83.33333333333333 47.0 L 83.66666666666667 48.0 L 84.33333333333333 49.0 L 84.66666666666667 50.0 L 85.33333333333333 51.0 L 86.0 51.666666666666664 L 87.0 52.0 L 87.5 52.0 Z" stroke="none" fill="rgb(179,70,189)" />
<path d="M 65.5 111.0 L 65.66666666666667 110.66666666666667 L 66.0 110.0 L 66.0 109.0 L 66.33333333333333 108.0 L 66.66666666666667 107.0 L 67.0 106.0 L 67.0 105.0 L 67.0 104.0 L 67.0 103.0 L 67.33333333333333 102.0 L 67.66666666666667 101.0 L 68.33333333333333 100.0 L 68.66666666666667 99.0 L 69.33333333333333 98.0 L 69.66666666666667 97.0 L 70.0 96.0 L 69.66666666666667 95.33333333333333 L 69.0 95.0 L 68.0 95.33333333333333 L 67.0 96.0 L 66.0 96.66666666666667 L 65.0 97.33333333333333 L 64.0 98.0 L 63.0 99.0 L 62.0 100.0 L 61.0 100.66666666666667 L 60.0 101.0 L 59.0 101.0 L 58.333333333333336 101.33333333333333 L 58.0 102.0 L 57.666666666666664 103.0 L 57.0 103.33333333333333 L 56.0 103.33333333333333 L 55.0 103.33333333333333 L 54.333333333333336 104.0 L 53.666666666666664 105.0 L 53.0 105.33333333333333 L 52.0 105.33333333333333 L 51.0 105.33333333333333 L 50.0 105.66666666666667 L 49.0 106.33333333333333 L 48.0 107.0 L 47.333333333333336 108.0 L 47.0 109.0 L 47.0 110.0 L 47.333333333333336 111.0 L 47.666666666666664 112.0 L 48.0 113.0 L 48.333333333333336 114.0 L 48.666666666666664 115.0 L 49.333333333333336 116.0 L 49.666666666666664 117.0 L 50.333333333333336 118.0 L 51.0 118.66666666666667 L 52.0 118.66666666666667 L 53.0 118.0 L 54.0 117.0 L 55.0 116.33333333333333 L 56.0 115.66666666666667 L 57.0 115.33333333333333 L 58.0 114.66666666666667 L 59.0 114.33333333333333 L 60.0 113.66666666666667 L 61.0 113.0 L 62.0 112.33333333333333 L 63.0 111.66666666666667 L 64.0 111.33333333333333 L 64.5 111.0 Z" stroke="none" fill="rgb(164,103,254)" />
<path d="M 61.5 88.0 L 61.666666666666664 87.66666666666667 L 62.0 87.0 L 62.0 86.0 L 62.333333333333336 85.0 L 63.0 84.0 L 64.0 83.0 L 65.0 82.0 L 66.0 81.0 L 67.0 80.33333333333333 L 68.0 80.0 L 69.0 79.66666666666667 L 70.0 79.0 L 71.0 78.0 L 72.0 77.33333333333333 L 73.0 76.66666666666667 L 74.0 76.33333333333333 L 75.0 75.66666666666667 L 76.0 75.33333333333333 L 76.66666666666667 74.66666666666667 L 77.0 74.0 L 76.66666666666667 73.33333333333333 L 76.0 73.0 L 75.0 73.0 L 74.0 73.0 L 73.0 73.33333333333333 L 72.0 73.66666666666667 L 71.0 74.0 L 70.0 74.33333333333333 L 69.0 74.66666666666667 L 68.0 75.0 L 67.0 75.0 L 66.0 75.0 L 65.0 75.0 L 64.0 75.33333333333333 L 63.0 75.66666666666667 L 62.0 76.0 L 61.333333333333336 76.33333333333333 L 61.0 77.0 L 60.666666666666664 78.0 L 60.0 79.0 L 59.0 79.66666666666667 L 58.0 80.0 L 57.0 80.0 L 56.0 80.33333333333333 L 55.0 81.0 L 54.333333333333336 82.0 L 53.666666666666664 83.0 L 53.0 83.33333333333333 L 52.0 83.33333333333333 L 51.0 83.0 L 50.0 83.33333333333333 L 49.333333333333336 84.0 L 48.666666666666664 85.0 L 48.0 85.66666666666667 L 47.0 86.0 L 46.333333333333336 86.33333333333333 L 46.0 87.0 L 46.0 88.0 L 46.0 89.0 L 46.0 90.0 L 46.333333333333336 90.66666666666667 L 47.0 91.0 L 48.0 91.0 L 49.0 91.33333333333333 L 50.0 92.0 L 51.0 92.66666666666667 L 52.0 93.0 L 53.0 93.0 L 53.666666666666664 92.66666666666667 L 53.666666666666664 92.0 L 53.0 91.0 L 52.666666666666664 90.0 L 53.0 89.33333333333333 L 54.0 89.33333333333333 L 55.0 90.0 L 56.0 90.66666666666667 L 57.0 91.0 L 57.666666666666664 90.66666666666667 L 58.0 90.0 L 57.666666666666664 89.0 L 57.666666666666664 88.0 L 58.0 87.0 L 59.0 86.66666666666667 L 60.0 87.0 L 60.5 87.5 Z" stroke="none" fill="rgb(231,145,229)" />
<path d="M 89.5 120.0 L 90.0 120.0 L 91.0 120.0 L 92.0 120.0 L 93.0 120.0 L 94.0 120.0 L 95.0 119.66666666666667 L 96.0 119.33333333333333 L 97.0 119.0 L 98.0 118.66666666666667 L 99.0 118.33333333333333 L 100.0 117.66666666666667 L 101.0 117.0 L 102.0 116.33333333333333 L 103.0 115.66666666666667 L 103.66666666666667 115.0 L 104.33333333333333 114.0 L 105.0 113.0 L 105.66666666666667 112.0 L 106.33333333333333 111.0 L 106.66666666666667 110.0 L 107.33333333333333 109.0 L 107.66666666666667 108.0 L 108.0 107.0 L 108.0 106.0 L 108.0 105.0 L 107.66666666666667 104.33333333333333 L 107.0 104.33333333333333 L 106.0 104.66666666666667 L 105.0 105.33333333333333 L 104.0 105.66666666666667 L 103.0 106.0 L 102.0 106.0 L 101.0 106.33333333333333 L 100.0 107.0 L 99.0 107.66666666666667 L 98.0 108.33333333333333 L 97.0 109.0 L 96.33333333333333 110.0 L 95.66666666666667 111.0 L 95.0 112.0 L 94.0 113.0 L 93.0 113.66666666666667 L 92.0 114.0 L 91.0 114.0 L 90.0 114.0 L 89.0 114.0 L 88.0 114.33333333333333 L 87.0 114.66666666666667 L 86.0 115.33333333333333 L 85.0 115.66666666666667 L 84.0 116.33333333333333 L 83.0 117.0 L 82.0 117.66666666666667 L 81.0 118.33333333333333 L 80.0 118.66666666666667 L 79.0 119.33333333333333 L 78.0 120.0 L 77.0 120.66666666666667 L 76.0 121.33333333333333 L 75.0 121.66666666666667 L 74.0 122.33333333333333 L 73.0 122.66666666666667 L 72.33333333333333 123.33333333333333 L 72.0 124.0 L 72.33333333333333 124.66666666666667 L 73.0 125.0 L 74.0 124.66666666666667 L 75.0 124.33333333333333 L 76.0 123.66666666666667 L 77.0 123.33333333333333 L 78.0 122.66666666666667 L 79.0 122.33333333333333 L 80.0 121.66666666666667 L 81.0 121.0 L 82.0 120.0 L 83.0 119.33333333333333 L 84.0 119.0 L 85.0 119.33333333333333 L 86.0 119.66666666666667 L 87.0 120.0 L 88.0 120.0 L 88.5 120.0 Z" stroke="none" fill="rgb(192,149,255)" />
<path d="M 47.5 102.0 L 48.0 102.0 L 49.0 102.0 L 50.0 102.0 L 50.666666666666664 101.66666666666667 L 51.333333333333336 101.0 L 52.0 100.0 L 53.0 99.33333333333333 L 54.0 99.0 L 55.0 99.0 L 56.0 99.0 L 56.666666666666664 98.66666666666667 L 57.0 98.0 L 57.333333333333336 97.0 L 58.0 96.33333333333333 L 59.0 96.0 L 60.0 96.0 L 61.0 96.0 L 62.0 95.66666666666667 L 62.666666666666664 95.0 L 63.333333333333336 94.0 L 64.0 93.0 L 65.0 92.33333333333333 L 66.0 92.0 L 67.0 91.66666666666667 L 68.0 91.0 L 69.0 90.0 L 70.0 89.33333333333333 L 71.0 88.66666666666667 L 72.0 88.0 L 73.0 87.33333333333333 L 74.0 86.66666666666667 L 75.0 86.33333333333333 L 75.66666666666667 85.66666666666667 L 76.33333333333333 85.0 L 76.66666666666667 84.0 L 77.0 83.0 L 77.0 82.0 L 77.0 81.0 L 76.66666666666667 80.33333333333333 L 76.0 80.0 L 75.0 80.33333333333333 L 74.0 80.66666666666667 L 73.0 81.33333333333333 L 72.0 81.66666666666667 L 71.0 82.33333333333333 L 70.0 83.0 L 69.0 83.66666666666667 L 68.0 84.33333333333333 L 67.0 84.66666666666667 L 66.33333333333333 85.33333333333333 L 65.66666666666667 86.0 L 65.0 87.0 L 64.0 87.66666666666667 L 63.0 88.0 L 62.0 88.0 L 61.333333333333336 88.33333333333333 L 60.666666666666664 89.0 L 60.0 89.66666666666667 L 59.0 90.0 L 58.0 90.33333333333333 L 57.0 90.66666666666667 L 56.333333333333336 91.33333333333333 L 55.666666666666664 92.0 L 55.0 92.66666666666667 L 54.0 93.0 L 53.0 93.0 L 52.0 93.33333333333333 L 51.333333333333336 94.0 L 51.0 95.0 L 50.666666666666664 96.0 L 50.0 96.66666666666667 L 49.0 96.66666666666667 L 48.0 96.33333333333333 L 47.0 96.33333333333333 L 46.333333333333336 97.0 L 46.0 98.0 L 46.0 99.0 L 46.0 100.0 L 46.0 101.0 L 46.333333333333336 101.66666666666667 L 46.5 102.0 Z" stroke="none" fill="rgb(201,126,240)" />
<path d="M 61.5 101.0 L 62.0 100.66666666666667 L 63.0 100.0 L 64.0 99.0 L 65.0 98.0 L 66.0 97.33333333333333 L 67.0 96.66666666666667 L 68.0 96.0 L 69.0 95.33333333333333 L 69.66666666666667 94.66666666666667 L 70.33333333333333 94.0 L 71.0 93.33333333333333 L 72.0 92.66666666666667 L 73.0 92.0 L 73.66666666666667 91.0 L 74.33333333333333 90.0 L 74.66666666666667 89.0 L 75.0 88.0 L 75.0 87.0 L 74.66666666666667 86.33333333333333 L 74.0 86.33333333333333 L 73.0 86.66666666666667 L 72.0 87.33333333333333 L 71.0 88.0 L 70.0 88.66666666666667 L 69.0 89.33333333333333 L 68.0 90.0 L 67.0 91.0 L 66.0 91.66666666666667 L 65.0 92.0 L 64.0 92.33333333333333 L 63.333333333333336 93.0 L 62.666666666666664 94.0 L 62.0 95.0 L 61.0 95.66666666666667 L 60.0 96.0 L 59.0 96.0 L 58.0 96.0 L 57.333333333333336 96.33333333333333 L 57.0 97.0 L 56.666666666666664 98.0 L 56.0 98.66666666666667 L 55.0 99.0 L 54.0 99.0 L 53.0 99.0 L 52.0 99.33333333333333 L 51.333333333333336 100.0 L 50.666666666666664 101.0 L 50.0 101.66666666666667 L 49.0 102.0 L 48.0 102.0 L 47.0 102.0 L 46.333333333333336 102.33333333333333 L 46.0 103.0 L 46.0 104.0 L 46.0 105.0 L 46.0 106.0 L 46.333333333333336 107.0 L 47.0 107.66666666666667 L 48.0 107.66666666666667 L 49.0 107.0 L 50.0 106.33333333333333 L 51.0 106.0 L 52.0 106.0 L 53.0 106.0 L 53.666666666666664 105.66666666666667 L 54.333333333333336 105.0 L 55.0 104.33333333333333 L 56.0 104.33333333333333 L 57.0 104.66666666666667 L 58.0 105.0 L 58.666666666666664 104.66666666666667 L 59.0 104.0 L 58.666666666666664 103.0 L 58.666666666666664 102.0 L 59.0 101.33333333333333 L 60.0 101.0 L 60.5 101.0 Z" stroke="none" fill="rgb(183,115,244)" />
<path d="M 68.5 14.0 L 69.0 13.666666666666666 L 70.0 13.0 L 71.0 12.333333333333334 L 71.66666666666667 11.666666666666666 L 72.33333333333333 11.0 L 72.66666666666667 10.0 L 73.33333333333333 9.0 L 73.66666666666667 8.0 L 73.66666666666667 7.0 L 73.0 6.0 L 72.0 5.333333333333333 L 71.0 5.0 L 70.0 5.0 L 69.33333333333333 5.333333333333333 L 68.66666666666667 6.0 L 68.0 7.0 L 67.0 8.0 L 66.0 8.666666666666666 L 65.0 9.0 L 64.0 9.0 L 63.0 9.0 L 62.0 8.666666666666666 L 61.0 8.0 L 60.333333333333336 7.0 L 59.666666666666664 6.0 L 59.0 5.333333333333333 L 58.0 5.0 L 57.0 5.0 L 56.0 5.333333333333333 L 55.0 6.0 L 54.333333333333336 7.0 L 54.333333333333336 8.0 L 54.666666666666664 9.0 L 55.333333333333336 10.0 L 56.0 11.0 L 57.0 12.0 L 58.0 13.0 L 59.0 13.666666666666666 L 60.0 14.0 L 61.0 14.333333333333334 L 62.0 14.666666666666666 L 63.0 15.333333333333334 L 64.0 15.666666666666666 L 65.0 15.666666666666666 L 66.0 15.0 L 67.0 14.333333333333334 L 67.5 14.0 Z" stroke="none" fill="rgb(199,103,211)" />
<path d="M 58.5 123.5 L 59.0 123.0 L 60.0 122.33333333333333 L 61.0 121.66666666666667 L 62.0 121.33333333333333 L 63.0 120.66666666666667 L 64.0 120.33333333333333 L 65.0 119.66666666666667 L 66.0 119.0 L 67.0 118.33333333333333 L 68.0 117.66666666666667 L 68.66666666666667 117.0 L 68.66666666666667 116.0 L 68.0 115.0 L 67.33333333333333 114.0 L 67.0 113.0 L 66.66666666666667 112.0 L 66.0 111.33333333333333 L 65.0 111.0 L 64.0 111.0 L 63.0 111.33333333333333 L 62.0 111.66666666666667 L 61.0 112.33333333333333 L 60.0 113.0 L 59.0 113.66666666666667 L 58.0 114.33333333333333 L 57.0 114.66666666666667 L 56.0 115.33333333333333 L 55.0 115.66666666666667 L 54.0 116.33333333333333 L 53.0 117.0 L 52.333333333333336 118.0 L 52.0 119.0 L 52.333333333333336 120.0 L 53.0 121.0 L 54.0 122.0 L 55.0 122.66666666666667 L 56.0 123.33333333333333 L 57.0 123.66666666666667 L 57.5 124.0 Z" stroke="none" fill="rgb(173,118,255)" />
<path d="M 56.5 80.5 L 57.0 80.33333333333333 L 58.0 80.0 L 59.0 80.0 L 60.0 79.66666666666667 L 60.666666666666664 79.0 L 61.0 78.0 L 61.0 77.0 L 61.0 76.0 L 60.666666666666664 75.33333333333333 L 60.0 75.0 L 59.0 74.66666666666667 L 58.0 74.33333333333333 L 57.0 74.0 L 56.0 73.66666666666667 L 55.0 73.33333333333333 L 54.0 72.66666666666667 L 53.0 72.0 L 52.0 71.33333333333333 L 51.0 71.0 L 50.333333333333336 71.33333333333333 L 50.0 72.0 L 49.666666666666664 73.0 L 49.333333333333336 74.0 L 49.0 75.0 L 48.666666666666664 76.0 L 48.333333333333336 77.0 L 48.0 78.0 L 48.0 79.0 L 47.666666666666664 80.0 L 47.333333333333336 81.0 L 47.0 82.0 L 47.0 83.0 L 47.333333333333336 84.0 L 48.0 84.66666666666667 L 49.0 84.66666666666667 L 50.0 84.0 L 51.0 83.66666666666667 L 52.0 83.66666666666667 L 53.0 84.0 L 53.666666666666664 83.66666666666667 L 54.333333333333336 83.0 L 55.0 82.0 L 55.5 81.5 Z" stroke="none" fill="rgb(246,155,225)" />
<path d="M 83.0 110.5 L 83.33333333333333 110.0 L 84.0 109.0 L 85.0 108.0 L 86.0 107.33333333333333 L 86.66666666666667 106.66666666666667 L 87.0 106.0 L 87.0 105.0 L 87.0 104.0 L 86.66666666666667 103.0 L 86.33333333333333 102.0 L 85.66666666666667 101.0 L 85.0 100.0 L 84.0 99.33333333333333 L 83.0 99.33333333333333 L 82.0 100.0 L 81.33333333333333 101.0 L 80.66666666666667 102.0 L 80.33333333333333 103.0 L 79.66666666666667 104.0 L 79.0 104.33333333333333 L 78.0 104.33333333333333 L 77.0 104.0 L 76.0 104.0 L 75.0 104.33333333333333 L 74.33333333333333 105.0 L 74.0 106.0 L 74.0 107.0 L 74.33333333333333 108.0 L 74.66666666666667 109.0 L 75.0 110.0 L 75.33333333333333 111.0 L 76.0 111.66666666666667 L 77.0 112.0 L 78.0 111.66666666666667 L 79.0 111.66666666666667 L 80.0 111.66666666666667 L 81.0 112.0 L 82.0 111.66666666666667 L 82.5 111.5 Z" stroke="none" fill="rgb(173,118,255)" />
<path d="M 82.5 100.5 L 83.0 100.0 L 83.66666666666667 99.0 L 83.66666666666667 98.0 L 83.0 97.0 L 82.33333333333333 96.0 L 82.0 95.0 L 82.0 94.0 L 82.33333333333333 93.0 L 82.66666666666667 92.0 L 83.0 91.0 L 82.66666666666667 90.33333333333333 L 82.0 90.0 L 81.0 90.33333333333333 L 80.0 90.66666666666667 L 79.0 91.33333333333333 L 78.0 92.0 L 77.33333333333333 93.0 L 76.66666666666667 94.0 L 76.33333333333333 95.0 L 75.66666666666667 96.0 L 75.33333333333333 97.0 L 75.0 98.0 L 74.66666666666667 99.0 L 74.33333333333333 100.0 L 74.0 101.0 L 74.0 102.0 L 74.0 103.0 L 74.33333333333333 103.66666666666667 L 75.0 104.0 L 76.0 104.0 L 77.0 104.33333333333333 L 78.0 104.66666666666667 L 79.0 105.0 L 79.66666666666667 104.66666666666667 L 80.33333333333333 104.0 L 80.66666666666667 103.0 L 81.33333333333333 102.0 L 81.5 101.5 Z" stroke="none" fill="rgb(164,103,254)" />
<path d="M 93.5 42.0 L 94.0 42.0 L 95.0 41.666666666666664 L 96.0 41.333333333333336 L 97.0 41.0 L 98.0 41.0 L 99.0 41.0 L 100.0 41.0 L 101.0 41.0 L 102.0 41.0 L 103.0 41.0 L 103.66666666666667 40.666666666666664 L 104.0 40.0 L 103.66666666666667 39.0 L 103.0 38.0 L 102.0 37.0 L 101.0 36.0 L 100.0 35.0 L 99.0 34.333333333333336 L 98.0 34.333333333333336 L 97.0 34.666666666666664 L 96.0 34.666666666666664 L 95.33333333333333 34.0 L 95.0 33.0 L 94.66666666666667 32.0 L 94.0 31.333333333333332 L 93.0 31.0 L 92.0 31.0 L 91.33333333333333 31.333333333333332 L 91.0 32.0 L 91.0 33.0 L 91.0 34.0 L 91.0 35.0 L 91.0 36.0 L 91.0 37.0 L 91.0 38.0 L 91.33333333333333 39.0 L 91.66666666666667 40.0 L 92.33333333333333 41.0 L 92.5 41.5 Z" stroke="none" fill="rgb(254,183,8)" />
<path d="M 69.5 19.0 L 70.0 19.333333333333332 L 71.0 19.666666666666668 L 72.0 20.0 L 72.66666666666667 19.666666666666668 L 73.33333333333333 19.0 L 74.0 18.0 L 75.0 17.333333333333332 L 75.66666666666667 16.666666666666668 L 76.33333333333333 16.0 L 77.0 15.0 L 77.66666666666667 14.0 L 78.0 13.0 L 78.0 12.0 L 77.66666666666667 11.0 L 77.0 10.0 L 76.33333333333333 9.0 L 75.66666666666667 8.0 L 75.0 7.333333333333333 L 74.0 7.333333333333333 L 73.33333333333333 8.0 L 72.66666666666667 9.0 L 72.33333333333333 10.0 L 71.66666666666667 11.0 L 71.0 11.666666666666666 L 70.0 12.333333333333334 L 69.0 13.0 L 68.0 13.666666666666666 L 67.0 14.0 L 66.0 14.333333333333334 L 65.33333333333333 15.0 L 65.33333333333333 16.0 L 66.0 16.666666666666668 L 67.0 17.333333333333332 L 68.0 18.0 L 68.5 18.5 Z" stroke="none" fill="rgb(191,89,200)" />
<path d="M 72.5 82.0 L 73.0 81.66666666666667 L 74.0 81.33333333333333 L 75.0 80.66666666666667 L 76.0 80.33333333333333 L 76.66666666666667 79.66666666666667 L 77.0 79.0 L 77.0 78.0 L 77.0 77.0 L 77.0 76.0 L 76.66666666666667 75.33333333333333 L 76.0 75.0 L 75.0 75.33333333333333 L 74.0 75.66666666666667 L 73.0 76.33333333333333 L 72.0 76.66666666666667 L 71.0 77.33333333333333 L 70.0 78.0 L 69.0 79.0 L 68.0 79.66666666666667 L 67.0 80.0 L 66.0 80.33333333333333 L 65.0 81.0 L 64.0 82.0 L 63.0 83.0 L 62.333333333333336 84.0 L 62.0 85.0 L 62.333333333333336 85.66666666666667 L 63.0 86.33333333333333 L 64.0 86.66666666666667 L 65.0 87.0 L 65.66666666666667 86.66666666666667 L 66.33333333333333 86.0 L 67.0 85.33333333333333 L 68.0 84.66666666666667 L 69.0 84.33333333333333 L 70.0 83.66666666666667 L 71.0 83.0 L 71.5 82.5 Z" stroke="none" fill="rgb(217,135,232)" />
<path d="M 59.5 41.0 L 60.0 41.0 L 61.0 41.0 L 62.0 41.0 L 63.0 41.0 L 64.0 41.0 L 65.0 41.0 L 66.0 41.0 L 67.0 41.0 L 68.0 41.0 L 69.0 41.0 L 70.0 41.0 L 71.0 41.0 L 72.0 41.0 L 73.0 41.0 L 74.0 41.0 L 74.66666666666667 40.666666666666664 L 74.66666666666667 40.0 L 74.0 39.333333333333336 L 73.0 39.0 L 72.0 39.0 L 71.0 38.666666666666664 L 70.0 38.333333333333336 L 69.0 37.666666666666664 L 68.0 37.333333333333336 L 67.0 37.0 L 66.0 37.0 L 65.0 37.0 L 64.0 37.0 L 63.0 37.0 L 62.0 37.0 L 61.0 37.0 L 60.0 37.333333333333336 L 59.0 38.0 L 58.0 38.666666666666664 L 57.0 39.0 L 56.0 39.0 L 55.333333333333336 39.333333333333336 L 55.0 40.0 L 55.333333333333336 40.666666666666664 L 56.0 41.0 L 57.0 41.0 L 58.0 41.0 L 58.5 41.0 Z" stroke="none" fill="rgb(254,183,8)" />
<path d="M 55.5 18.0 L 56.0 17.666666666666668 L 57.0 17.0 L 58.0 16.0 L 58.666666666666664 15.0 L 59.0 14.0 L 58.666666666666664 13.0 L 58.0 12.0 L 57.0 11.0 L 56.0 10.0 L 55.333333333333336 9.0 L 54.666666666666664 8.333333333333334 L 54.0 8.0 L 53.0 8.333333333333334 L 52.0 9.0 L 51.333333333333336 10.0 L 50.666666666666664 11.0 L 50.333333333333336 12.0 L 50.0 13.0 L 50.333333333333336 14.0 L 51.0 15.0 L 52.0 16.0 L 53.0 17.0 L 54.0 17.666666666666668 L 54.5 18.0 Z" stroke="none" fill="rgb(191,89,200)" />
<path d="M 76.0 54.5 L 76.33333333333333 54.0 L 77.0 53.0 L 77.66666666666667 52.0 L 77.66666666666667 51.0 L 77.0 50.0 L 76.0 49.333333333333336 L 75.0 49.0 L 74.0 48.666666666666664 L 73.0 48.333333333333336 L 72.0 48.0 L 71.0 48.333333333333336 L 70.0 48.666666666666664 L 69.0 49.0 L 68.0 49.0 L 67.33333333333333 49.333333333333336 L 67.0 50.0 L 67.0 51.0 L 67.33333333333333 52.0 L 68.0 53.0 L 69.0 54.0 L 70.0 54.666666666666664 L 71.0 55.0 L 72.0 54.666666666666664 L 73.0 54.666666666666664 L 74.0 54.666666666666664 L 75.0 55.0 L 75.5 55.0 Z" stroke="none" fill="rgb(217,135,232)" />
<path d="M 98.5 47.0 L 99.0 47.0 L 100.0 47.0 L 101.0 47.0 L 102.0 47.0 L 103.0 47.0 L 104.0 47.0 L 104.66666666666667 46.666666666666664 L 105.0 46.0 L 105.0 45.0 L 105.0 44.0 L 105.0 43.0 L 105.0 42.0 L 104.66666666666667 41.333333333333336 L 104.0 41.0 L 103.0 41.0 L 102.0 41.0 L 101.0 41.0 L 100.0 41.0 L 99.0 41.0 L 98.0 41.0 L 97.0 41.0 L 96.0 41.0 L 95.33333333333333 41.333333333333336 L 95.0 42.0 L 95.33333333333333 43.0 L 95.66666666666667 44.0 L 96.33333333333333 45.0 L 96.66666666666667 46.0 L 97.33333333333333 46.666666666666664 L 97.5 47.0 Z" stroke="none" fill="rgb(255,192,23)" />
<path d="M 51.5 53.0 L 51.666666666666664 52.666666666666664 L 52.333333333333336 52.0 L 53.0 51.666666666666664 L 54.0 52.0 L 55.0 53.0 L 56.0 54.0 L 57.0 54.666666666666664 L 58.0 55.0 L 59.0 54.666666666666664 L 60.0 54.0 L 60.666666666666664 53.0 L 60.666666666666664 52.0 L 60.333333333333336 51.0 L 59.666666666666664 50.0 L 59.0 49.333333333333336 L 58.0 49.0 L 57.0 48.666666666666664 L 56.0 48.333333333333336 L 55.0 48.0 L 54.333333333333336 48.333333333333336 L 53.666666666666664 49.0 L 53.0 49.333333333333336 L 52.0 49.333333333333336 L 51.0 49.0 L 50.333333333333336 49.333333333333336 L 50.0 50.0 L 50.0 51.0 L 50.333333333333336 52.0 L 50.5 52.5 Z" stroke="none" fill="rgb(217,135,232)" />
<path d="M 62.5 9.0 L 63.0 9.0 L 64.0 9.0 L 65.0 9.0 L 66.0 9.0 L 67.0 8.666666666666666 L 68.0 8.0 L 68.66666666666667 7.0 L 69.0 6.0 L 69.0 5.0 L 68.66666666666667 4.333333333333333 L 68.0 4.0 L 67.0 4.0 L 66.0 4.0 L 65.0 4.0 L 64.0 4.0 L 63.0 4.0 L 62.0 4.0 L 61.0 4.0 L 60.0 4.0 L 59.333333333333336 4.333333333333333 L 59.0 5.0 L 59.333333333333336 6.0 L 59.666666666666664 7.0 L 60.333333333333336 8.0 L 61.0 8.666666666666666 L 61.5 9.0 Z" stroke="none" fill="rgb(208,119,218)" />
<path d="M 49.5 97.0 L 50.0 97.0 L 51.0 97.0 L 51.666666666666664 96.66666666666667 L 51.666666666666664 96.0 L 51.666666666666664 95.0 L 51.666666666666664 94.0 L 51.666666666666664 93.0 L 51.0 92.0 L 50.0 91.33333333333333 L 49.0 91.0 L 48.0 91.0 L 47.0 91.33333333333333 L 46.333333333333336 92.0 L 46.0 93.0 L 46.0 94.0 L 46.0 95.0 L 46.333333333333336 95.66666666666667 L 47.0 96.33333333333333 L 48.0 96.66666666666667 L 48.5 97.0 Z" stroke="none" fill="rgb(217,135,232)" />
<path d="M 55.5 56.5 L 56.0 57.0 L 57.0 57.666666666666664 L 57.666666666666664 57.666666666666664 L 58.0 57.0 L 58.0 56.0 L 57.666666666666664 55.0 L 57.0 54.0 L 56.0 53.0 L 55.0 52.0 L 54.0 51.333333333333336 L 53.0 51.0 L 52.333333333333336 51.333333333333336 L 52.0 52.0 L 52.333333333333336 53.0 L 53.0 54.0 L 54.0 55.0 L 54.5 55.5 Z" stroke="none" fill="rgb(172,93,207)" />
<path d="M 55.0 58.5 L 54.666666666666664 58.0 L 54.666666666666664 57.0 L 54.666666666666664 56.0 L 54.666666666666664 55.0 L 54.0 54.0 L 53.0 53.333333333333336 L 52.0 53.0 L 51.333333333333336 53.333333333333336 L 51.0 54.0 L 51.0 55.0 L 51.0 56.0 L 51.0 57.0 L 51.0 58.0 L 51.333333333333336 58.666666666666664 L 52.0 59.0 L 53.0 59.0 L 54.0 59.0 L 54.5 59.0 Z" stroke="none" fill="rgb(199,103,211)" />
<path d="M 73.5 58.0 L 74.0 58.0 L 74.66666666666667 57.666666666666664 L 74.66666666666667 57.0 L 74.0 56.0 L 73.0 55.333333333333336 L 72.0 55.0 L 71.0 54.666666666666664 L 70.0 54.333333333333336 L 69.0 54.333333333333336 L 68.33333333333333 55.0 L 68.0 56.0 L 68.33333333333333 57.0 L 69.0 57.666666666666664 L 70.0 58.0 L 71.0 58.0 L 72.0 58.0 L 72.5 58.0 Z" stroke="none" fill="rgb(163,77,185)" />
<path d="M 99.0 33.5 L 99.0 33.0 L 99.0 32.0 L 98.66666666666667 31.333333333333332 L 98.0 31.0 L 97.0 31.0 L 96.0 31.0 L 95.33333333333333 31.333333333333332 L 94.66666666666667 32.0 L 94.33333333333333 33.0 L 94.33333333333333 34.0 L 94.66666666666667 35.0 L 95.33333333333333 35.666666666666664 L 96.0 35.666666666666664 L 97.0 35.333333333333336 L 98.0 34.666666666666664 L 98.5 34.5 Z" stroke="none" fill="rgb(230,152,1)" />
<path d="M 75.5 57.5 L 76.0 57.666666666666664 L 77.0 58.0 L 77.66666666666667 57.666666666666664 L 78.0 57.0 L 78.0 56.0 L 78.33333333333333 55.0 L 78.66666666666667 54.0 L 79.0 53.0 L 78.66666666666667 52.333333333333336 L 78.0 52.0 L 77.0 52.333333333333336 L 76.33333333333333 53.0 L 75.66666666666667 54.0 L 75.33333333333333 55.0 L 75.0 56.0 L 75.0 56.5 Z" stroke="none" fill="rgb(208,119,218)" />
<path d="M 18.5 82.5 L 19.0 82.66666666666667 L 20.0 83.0 L 21.0 82.66666666666667 L 21.666666666666668 82.0 L 22.0 81.0 L 22.0 80.0 L 22.0 79.0 L 21.666666666666668 78.33333333333333 L 21.0 78.33333333333333 L 20.0 78.66666666666667 L 19.0 79.33333333333333 L 18.333333333333332 80.0 L 18.0 81.0 L 18.0 81.5 Z" stroke="none" fill="rgb(230,152,1)" />
<path d="M 59.5 90.0 L 60.0 90.0 L 60.666666666666664 89.66666666666667 L 61.0 89.0 L 61.0 88.0 L 60.666666666666664 87.0 L 60.0 86.33333333333333 L 59.0 86.0 L 58.0 86.33333333333333 L 57.333333333333336 87.0 L 57.0 88.0 L 57.333333333333336 89.0 L 58.0 89.66666666666667 L 58.5 90.0 Z" stroke="none" fill="rgb(217,135,232)" />
<path d="M 65.5 32.0 L 66.0 32.0 L 66.66666666666667 31.666666666666668 L 67.0 31.0 L 66.66666666666667 30.333333333333332 L 66.0 30.0 L 65.0 30.0 L 64.0 30.0 L 63.0 30.0 L 62.0 30.0 L 61.333333333333336 30.333333333333332 L 61.0 31.0 L 61.333333333333336 31.666666666666668 L 62.0 32.0 L 63.0 32.0 L 64.0 32.0 L 64.5 32.0 Z" stroke="none" fill="rgb(118,86,67)" />
<path d="M 54.5 93.0 L 55.0 93.0 L 55.666666666666664 92.66666666666667 L 56.0 92.0 L 56.0 91.0 L 55.666666666666664 90.0 L 55.0 89.33333333333333 L 54.0 89.0 L 53.0 89.0 L 52.333333333333336 89.33333333333333 L 52.0 90.0 L 52.333333333333336 91.0 L 53.0 92.0 L 53.5 92.5 Z" stroke="none" fill="rgb(217,135,232)" />
<path d="M 51.5 56.5 L 51.666666666666664 56.0 L 51.666666666666664 55.0 L 51.0 54.0 L 50.0 53.333333333333336 L 49.0 53.0 L 48.333333333333336 53.333333333333336 L 48.0 54.0 L 48.333333333333336 55.0 L 49.0 56.0 L 50.0 56.666666666666664 L 50.5 57.0 Z" stroke="none" fill="rgb(208,119,218)" />
<path d="M 62.0 54.5 L 61.666666666666664 54.0 L 61.0 53.333333333333336 L 60.0 53.333333333333336 L 59.0 54.0 L 58.333333333333336 55.0 L 58.0 56.0 L 58.333333333333336 56.666666666666664 L 59.0 57.0 L 60.0 56.666666666666664 L 61.0 56.0 L 61.5 55.5 Z" stroke="none" fill="rgb(208,119,218)" />
<path d="M 67.5 57.0 L 67.66666666666667 56.666666666666664 L 68.33333333333333 56.0 L 68.66666666666667 55.0 L 68.66666666666667 54.333333333333336 L 68.0 53.666666666666664 L 67.0 53.333333333333336 L 66.0 53.0 L 65.33333333333333 53.333333333333336 L 65.0 54.0 L 65.33333333333333 55.0 L 66.0 56.0 L 66.5 56.5 Z" stroke="none" fill="rgb(208,119,218)" />
<path d="M 70.5 22.0 L 71.0 22.0 L 71.66666666666667 21.666666666666668 L 72.0 21.0 L 71.66666666666667 20.0 L 71.0 19.333333333333332 L 70.0 19.0 L 69.33333333333333 19.333333333333332 L 69.0 20.0 L 69.0 21.0 L 69.33333333333333 21.666666666666668 L 69.5 22.0 Z" stroke="none" fill="rgb(118,86,67)" />
<path d="M 68.5 25.0 L 69.0 25.0 L 70.0 25.0 L 70.66666666666667 24.666666666666668 L 71.0 24.0 L 71.0 23.0 L 70.66666666666667 22.333333333333332 L 70.0 22.0 L 69.0 22.333333333333332 L 68.33333333333333 23.0 L 68.0 24.0 L 68.0 24.5 Z" stroke="none" fill="rgb(66,65,64)" />
<path d="M 57.5 25.0 L 58.0 25.0 L 59.0 24.666666666666668 L 59.666666666666664 24.0 L 59.666666666666664 23.0 L 59.0 22.333333333333332 L 58.0 22.0 L 57.333333333333336 22.333333333333332 L 57.0 23.0 L 57.0 24.0 L 57.0 24.5 Z" stroke="none" fill="rgb(66,65,64)" />
<path d="M 56.5 59.0 L 56.666666666666664 58.666666666666664 L 57.0 58.0 L 56.666666666666664 57.0 L 56.0 56.333333333333336 L 55.0 56.0 L 54.333333333333336 56.333333333333336 L 54.0 57.0 L 54.333333333333336 58.0 L 55.0 58.666666666666664 L 55.5 59.0 Z" stroke="none" fill="rgb(163,77,185)" />
<path d="M 73.5 56.5 L 74.0 56.666666666666664 L 74.66666666666667 56.666666666666664 L 75.0 56.0 L 74.66666666666667 55.0 L 74.0 54.333333333333336 L 73.0 54.0 L 72.33333333333333 54.333333333333336 L 72.33333333333333 55.0 L 72.5 55.5 Z" stroke="none" fill="rgb(172,93,207)" />
<path d="M 62.5 88.0 L 63.0 88.0 L 64.0 88.0 L 64.66666666666667 87.66666666666667 L 64.66666666666667 87.0 L 64.0 86.33333333333333 L 63.0 86.0 L 62.333333333333336 86.33333333333333 L 62.0 87.0 L 62.0 87.5 Z" stroke="none" fill="rgb(163,77,185)" />
<path d="M 75.5 58.0 L 75.66666666666667 57.666666666666664 L 75.66666666666667 57.333333333333336 L 75.33333333333333 57.333333333333336 L 75.0 57.5 Z" stroke="none" fill="rgb(243,179,74)" />
<path d="M 77.0 58.5 L 76.66666666666667 58.333333333333336 L 76.33333333333333 58.333333333333336 L 76.33333333333333 58.666666666666664 L 76.5 59.0 Z" stroke="none" fill="rgb(243,179,74)" />
<path d="M 25.0 76.5 L 24.666666666666668 76.33333333333333 L 24.333333333333332 76.33333333333333 L 24.333333333333332 76.66666666666667 L 24.5 77.0 Z" stroke="none" fill="rgb(0,0,0)" />
<path d="M 70.5 94.0 L 70.66666666666667 93.66666666666667 L 70.66666666666667 93.33333333333333 L 70.33333333333333 93.33333333333333 L 70.0 93.5 Z" stroke="none" fill="rgb(173,118,255)" />
</svg>
