<?xml version="1.0" encoding="UTF-8" standalone="no"?>
<!DOCTYPE svg PUBLIC "-//W3C//DTD SVG 1.1//EN"
"http://www.w3.org/Graphics/SVG/1.1/DTD/svg11.dtd">
<svg width="128" height="128" xmlns="http://www.w3.org/2000/svg" version="1.1">
<path d="M 88.5 128.0 L 89.0 128.0 L 90.0 128.0 L 91.0 128.0 L 92.0 128.0 L 93.0 128.0 L 94.0 128.0 L 95.0 128.0 L 96.0 128.0 L 97.0 128.0 L 98.0 128.0 L 99.0 128.0 L 100.0 128.0 L 101.0 128.0 L 102.0 128.0 L 103.0 128.0 L 104.0 128.0 L 105.0 128.0 L 106.0 128.0 L 107.0 128.0 L 108.0 128.0 L 109.0 128.0 L 110.0 128.0 L 111.0 128.0 L 112.0 128.0 L 113.0 128.0 L 114.0 128.0 L 115.0 128.0 L 116.0 128.0 L 117.0 128.0 L 118.0 128.0 L 119.0 128.0 L 120.0 128.0 L 121.0 128.0 L 122.0 128.0 L 123.0 128.0 L 124.0 128.0 L 125.0 128.0 L 126.0 128.0 L 127.0 128.0 L 127.66666666666667 127.66666666666667 L 128.0 127.0 L 128.0 126.0 L 128.0 125.0 L 128.0 124.0 L 128.0 123.0 L 128.0 122.0 L 128.0 121.0 L 128.0 120.0 L 128.0 119.0 L 128.0 118.0 L 128.0 117.0 L 128.0 116.0 L 128.0 115.0 L 128.0 114.0 L 128.0 113.0 L 128.0 112.0 L 128.0 111.0 L 128.0 110.0 L 128.0 109.0 L 128.0 108.0 L 128.0 107.0 L 128.0 106.0 L 128.0 105.0 L 128.0 104.0 L 128.0 103.0 L 128.0 102.0 L 128.0 101.0 L 128.0 100.0 L 128.0 99.0 L 128.0 98.0 L 128.0 97.0 L 128.0 96.0 L 128.0 95.0 L 128.0 94.0 L 128.0 93.0 L 128.0 92.0 L 128.0 91.0 L 128.0 90.0 L 128.0 89.0 L 128.0 88.0 L 128.0 87.0 L 128.0 86.0 L 128.0 85.0 L 128.0 84.0 L 128.0 83.0 L 128.0 82.0 L 128.0 81.0 L 128.0 80.0 L 128.0 79.0 L 128.0 78.0 L 128.0 77.0 L 128.0 76.0 L 128.0 75.0 L 128.0 74.0 L 128.0 73.0 L 128.0 72.0 L 128.0 71.0 L 128.0 70.0 L 128.0 69.0 L 128.0 68.0 L 128.0 67.0 L 128.0 66.0 L 128.0 65.0 L 128.0 64.0 L 128.0 63.0 L 128.0 62.0 L 128.0 61.0 L 128.0 60.0 L 128.0 59.0 L 128.0 58.0 L 128.0 57.0 L 128.0 56.0 L 128.0 55.0 L 128.0 54.0 L 128.0 53.0 L 128.0 52.0 L 128.0 51.0 L 128.0 50.0 L 128.0 49.0 L 128.0 48.0 L 128.0 47.0 L 128.0 46.0 L 128.0 45.0 L 128.0 44.0 L 128.0 43.0 L 128.0 42.0 L 128.0 41.0 L 128.0 40.0 L 128.0 39.0 L 128.0 38.0 L 128.0 37.0 L 128.0 36.0 L 128.0 35.0 L 128.0 34.0 L 128.0 33.0 L 128.0 32.0 L 128.0 31.0 L 128.0 30.0 L 128.0 29.0 L 128.0 28.0 L 128.0 27.0 L 128.0 26.0 L 128.0 25.0 L 128.0 24.0 L 128.0 23.0 L 128.0 22.0 L 128.0 21.0 L 128.0 20.0 L 128.0 19.0 L 128.0 18.0 L 128.0 17.0 L 128.0 16.0 L 128.0 15.0 L 128.0 14.0 L 128.0 13.0 L 128.0 12.0 L 128.0 11.0 L 128.0 10.0 L 128.0 9.0 L 128.0 8.0 L 128.0 7.0 L 128.0 6.0 L 128.0 5.0 L 128.0 4.0 L 128.0 3.0 L 128.0 2.0 L 128.0 1.0 L 127.66666666666667 0.3333333333333333 L 127.0 0.0 L 126.0 0.0 L 125.0 0.0 L 124.0 0.0 L 123.0 0.0 L 122.0 0.0 L 121.0 0.0 L 120.0 0.0 L 119.0 0.0 L 118.0 0.0 L 117.0 0.0 L 116.0 0.0 L 115.0 0.0 L 114.0 0.0 L 113.0 0.0 L 112.0 0.0 L 111.0 0.0 L 110.0 0.0 L 109.0 0.0 L 108.0 0.0 L 107.0 0.0 L 106.0 0.0 L 105.0 0.0 L 104.0 0.0 L 103.0 0.0 L 102.0 0.0 L 101.0 0.0 L 100.0 0.0 L 99.0 0.0 L 98.0 0.0 L 97.0 0.0 L 96.0 0.0 L 95.0 0.0 L 94.0 0.0 L 93.0 0.0 L 92.0 0.0 L 91.0 0.0 L 90.0 0.0 L 89.0 0.0 L 88.0 0.0 L 87.0 0.0 L 86.0 0.0 L 85.0 0.0 L 84.0 0.0 L 83.0 0.0 L 82.0 0.0 L 81.0 0.0 L 80.0 0.0 L 79.0 0.0 L 78.0 0.0 L 77.0 0.0 L 76.0 0.0 L 75.0 0.0 L 74.0 0.0 L 73.0 0.0 L 72.0 0.0 L 71.0 0.0 L 70.0 0.0 L 69.0 0.0 L 68.0 0.0 L 67.0 0.0 L 66.0 0.0 L 65.0 0.0 L 64.0 0.0 L 63.0 0.0 L 62.0 0.0 L 61.0 0.0 L 60.0 0.0 L 59.0 0.0 L 58.0 0.0 L 57.0 0.0 L 56.0 0.0 L 55.0 0.0 L 54.0 0.0 L 53.0 0.0 L 52.0 0.0 L 51.0 0.0 L 50.0 0.0 L 49.0 0.0 L 48.0 0.0 L 47.0 0.0 L 46.0 0.0 L 45.0 0.0 L 44.0 0.0 L 43.0 0.0 L 42.0 0.0 L 41.0 0.0 L 40.0 0.0 L 39.0 0.0 L 38.0 0.0 L 37.0 0.0 L 36.0 0.0 L 35.0 0.0 L 34.0 0.0 L 33.0 0.0 L 32.0 0.0 L 31.0 0.0 L 30.0 0.0 L 29.0 0.0 L 28.0 0.0 L 27.0 0.0 L 26.0 0.0 L 25.0 0.0 L 24.0 0.0 L 23.0 0.0 L 22.0 0.0 L 21.0 0.0 L 20.0 0.0 L 19.0 0.0 L 18.0 0.0 L 17.0 0.0 L 16.0 0.0 L 15.0 0.0 L 14.0 0.0 L 13.0 0.0 L 12.0 0.0 L 11.0 0.0 L 10.0 0.0 L 9.0 0.0 L 8.0 0.0 L 7.0 0.0 L 6.0 0.0 L 5.0 0.0 L 4.0 0.0 L 3.0 0.0 L 2.0 0.0 L 1.0 0.0 L 0.3333333333333333 0.3333333333333333 L 0.0 1.0 L 0.0 2.0 L 0.0 3.0 L 0.0 4.0 L 0.0 5.0 L 0.0 6.0 L 0.0 7.0 L 0.0 8.0 L 0.0 9.0 L 0.0 10.0 L 0.0 11.0 L 0.0 12.0 L 0.0 13.0 L 0.0 14.0 L 0.0 15.0 L 0.0 16.0 L 0.0 17.0 L 0.0 18.0 L 0.0 19.0 L 0.0 20.0 L 0.0 21.0 L 0.0 22.0 L 0.0 23.0 L 0.0 24.0 L 0.0 25.0 L 0.0 26.0 L 0.0 27.0 L 0.0 28.0 L 0.0 29.0 L 0.0 30.0 L 0.0 31.0 L 0.0 32.0 L 0.0 33.0 L 0.0 34.0 L 0.0 35.0 L 0.0 36.0 L 0.0 37.0 L 0.0 38.0 L 0.0 39.0 L 0.0 40.0 L 0.0 41.0 L 0.0 42.0 L 0.0 43.0 L 0.0 44.0 L 0.0 45.0 L 0.0 46.0 L 0.0 47.0 L 0.0 48.0 L 0.0 49.0 L 0.0 50.0 L 0.0 51.0 L 0.0 52.0 L 0.0 53.0 L 0.0 54.0 L 0.0 55.0 L 0.0 56.0 L 0.0 57.0 L 0.0 58.0 L 0.0 59.0 L 0.0 60.0 L 0.0 61.0 L 0.0 62.0 L 0.0 63.0 L 0.0 64.0 L 0.0 65.0 L 0.0 66.0 L 0.0 67.0 L 0.0 68.0 L 0.0 69.0 L 0.0 70.0 L 0.0 71.0 L 0.0 72.0 L 0.0 73.0 L 0.0 74.0 L 0.0 75.0 L 0.0 76.0 L 0.0 77.0 L 0.0 78.0 L 0.0 79.0 L 0.0 80.0 L 0.0 81.0 L 0.0 82.0 L 0.0 83.0 L 0.0 84.0 L 0.0 85.0 L 0.0 86.0 L 0.0 87.0 L 0.0 88.0 L 0.0 89.0 L 0.0 90.0 L 0.0 91.0 L 0.0 92.0 L 0.0 93.0 L 0.0 94.0 L 0.0 95.0 L 0.0 96.0 L 0.0 97.0 L 0.0 98.0 L 0.0 99.0 L 0.0 100.0 L 0.0 101.0 L 0.0 102.0 L 0.0 103.0 L 0.0 104.0 L 0.0 105.0 L 0.0 106.0 L 0.0 107.0 L 0.0 108.0 L 0.0 109.0 L 0.0 110.0 L 0.0 111.0 L 0.0 112.0 L 0.0 113.0 L 0.0 114.0 L 0.0 115.0 L 0.0 116.0 L 0.0 117.0 L 0.0 118.0 L 0.0 119.0 L 0.0 120.0 L 0.0 121.0 L 0.0 122.0 L 0.0 123.0 L 0.0 124.0 L 0.0 125.0 L 0.0 126.0 L 0.0 127.0 L 0.3333333333333333 127.66666666666667 L 1.0 128.0 L 2.0 128.0 L 3.0 128.0 L 4.0 128.0 L 5.0 128.0 L 6.0 128.0 L 7.0 128.0 L 8.0 128.0 L 9.0 128.0 L 10.0 128.0 L 11.0 128.0 L 12.0 128.0 L 13.0 128.0 L 14.0 128.0 L 15.0 128.0 L 16.0 128.0 L 17.0 128.0 L 18.0 128.0 L 19.0 128.0 L 20.0 128.0 L 21.0 128.0 L 22.0 128.0 L 23.0 128.0 L 24.0 128.0 L 25.0 128.0 L 26.0 128.0 L 27.0 128.0 L 28.0 128.0 L 29.0 128.0 L 30.0 128.0 L 31.0 128.0 L 32.0 128.0 L 33.0 128.0 L 34.0 128.0 L 35.0 128.0 L 36.0 128.0 L 37.0 128.0 L 38.0 128.0 L 39.0 128.0 L 40.0 128.0 L 41.0 128.0 L 42.0 128.0 L 43.0 128.0 L 44.0 128.0 L 45.0 128.0 L 46.0 128.0 L 47.0 128.0 L 48.0 128.0 L 49.0 128.0 L 50.0 128.0 L 51.0 128.0 L 52.0 128.0 L 53.0 128.0 L 54.0 128.0 L 55.0 128.0 L 56.0 128.0 L 57.0 128.0 L 58.0 128.0 L 59.0 128.0 L 60.0 128.0 L 61.0 128.0 L 62.0 128.0 L 63.0 128.0 L 64.0 128.0 L 65.0 128.0 L 66.0 128.0 L 67.0 128.0 L 68.0 128.0 L 69.0 128.0 L 70.0 128.0 L 71.0 128.0 L 72.0 128.0 L 73.0 128.0 L 74.0 128.0 L 75.0 128.0 L 76.0 128.0 L 77.0 128.0 L 78.0 128.0 L 79.0 128.0 L 80.0 128.0 L 81.0 128.0 L 82.0 128.0 L 83.0 128.0 L 84.0 128.0 L 85.0 128.0 L 86.0 128.0 L 87.0 128.0 L 87.5 128.0 Z" stroke="none" fill="rgb(255,255,255)" />
<path d="M 72.5 87.5 L 73.0 87.0 L 74.0 86.0 L 75.0 85.0 L 76.0 84.0 L 76.66666666666667 83.0 L 77.0 82.0 L 76.66666666666667 81.33333333333333 L 76.0 81.0 L 75.0 81.0 L 74.0 81.0 L 73.0 81.0 L 72.0 81.0 L 71.0 81.0 L 70.0 81.0 L 69.0 80.66666666666667 L 68.0 80.33333333333333 L 67.0 80.0 L 66.0 79.66666666666667 L 65.0 79.33333333333333 L 64.0 79.0 L 63.0 79.0 L 62.0 79.0 L 61.0 79.33333333333333 L 60.0 80.0 L 59.0 81.0 L 58.0 81.66666666666667 L 57.0 82.33333333333333 L 56.0 82.66666666666667 L 55.0 83.0 L 54.0 83.0 L 53.0 83.0 L 52.0 83.0 L 51.0 83.0 L 50.0 83.0 L 49.0 83.0 L 48.0 83.0 L 47.0 83.0 L 46.0 82.66666666666667 L 45.0 82.33333333333333 L 44.0 82.0 L 43.0 81.66666666666667 L 42.0 81.0 L 41.0 80.0 L 40.0 79.0 L 39.333333333333336 78.0 L 39.333333333333336 77.0 L 40.0 76.33333333333333 L 41.0 76.0 L 42.0 76.0 L 43.0 76.33333333333333 L 44.0 76.66666666666667 L 45.0 77.0 L 46.0 77.0 L 47.0 77.0 L 48.0 77.0 L 49.0 77.0 L 50.0 77.0 L 51.0 77.0 L 52.0 77.0 L 53.0 77.0 L 54.0 77.0 L 55.0 77.0 L 56.0 77.0 L 56.666666666666664 76.66666666666667 L 57.0 76.0 L 57.0 75.0 L 56.666666666666664 74.0 L 56.0 73.0 L 55.0 72.0 L 54.0 71.33333333333333 L 53.0 71.0 L 52.0 71.33333333333333 L 51.0 71.66666666666667 L 50.0 72.0 L 49.0 72.0 L 48.0 71.66666666666667 L 47.0 71.0 L 46.333333333333336 70.0 L 46.333333333333336 69.0 L 47.0 68.33333333333333 L 48.0 68.0 L 49.0 68.0 L 50.0 68.0 L 51.0 68.0 L 51.666666666666664 67.66666666666667 L 51.666666666666664 67.0 L 51.333333333333336 66.0 L 51.0 65.0 L 51.0 64.0 L 50.666666666666664 63.0 L 50.0 62.0 L 49.333333333333336 61.0 L 49.0 60.0 L 49.0 59.0 L 49.0 58.0 L 49.0 57.0 L 49.0 56.0 L 49.333333333333336 55.0 L 49.666666666666664 54.0 L 50.0 53.0 L 50.0 52.0 L 50.0 51.0 L 50.333333333333336 50.0 L 50.666666666666664 49.0 L 51.0 48.0 L 51.0 47.0 L 51.0 46.0 L 50.666666666666664 45.0 L 50.0 44.333333333333336 L 49.0 44.0 L 48.0 44.333333333333336 L 47.0 44.666666666666664 L 46.0 45.0 L 45.0 45.333333333333336 L 44.0 45.666666666666664 L 43.0 46.0 L 42.0 46.0 L 41.0 46.0 L 40.0 46.0 L 39.333333333333336 46.333333333333336 L 39.0 47.0 L 39.333333333333336 48.0 L 40.0 49.0 L 41.0 50.0 L 41.333333333333336 51.0 L 41.0 52.0 L 40.0 52.666666666666664 L 39.0 53.0 L 38.333333333333336 53.333333333333336 L 38.0 54.0 L 38.0 55.0 L 38.333333333333336 56.0 L 38.666666666666664 57.0 L 39.0 58.0 L 39.0 59.0 L 38.666666666666664 60.0 L 38.0 61.0 L 37.0 62.0 L 36.0 63.0 L 35.0 63.666666666666664 L 34.0 63.666666666666664 L 33.0 63.333333333333336 L 32.0 62.666666666666664 L 31.0 62.0 L 30.333333333333332 61.0 L 30.0 60.0 L 30.0 59.0 L 30.0 58.0 L 30.333333333333332 57.0 L 30.666666666666668 56.0 L 31.0 55.0 L 31.0 54.0 L 30.666666666666668 53.333333333333336 L 30.0 53.0 L 29.0 53.0 L 28.0 52.666666666666664 L 27.333333333333332 52.0 L 27.333333333333332 51.0 L 28.0 50.0 L 29.0 49.333333333333336 L 30.0 48.666666666666664 L 31.0 48.0 L 31.666666666666668 47.0 L 31.666666666666668 46.0 L 31.0 45.333333333333336 L 30.0 45.0 L 29.0 45.0 L 28.0 45.0 L 27.0 44.666666666666664 L 26.0 44.333333333333336 L 25.0 44.0 L 24.0 44.0 L 23.333333333333332 44.333333333333336 L 23.0 45.0 L 23.0 46.0 L 22.666666666666668 47.0 L 22.333333333333332 48.0 L 22.0 49.0 L 21.666666666666668 50.0 L 21.333333333333332 51.0 L 21.0 52.0 L 21.0 53.0 L 20.666666666666668 54.0 L 20.333333333333332 55.0 L 20.0 56.0 L 19.666666666666668 57.0 L 19.333333333333332 58.0 L 19.0 59.0 L 19.0 60.0 L 18.666666666666668 61.0 L 18.0 62.0 L 17.333333333333332 63.0 L 17.0 64.0 L 17.0 65.0 L 17.0 66.0 L 17.0 67.0 L 17.333333333333332 68.0 L 17.666666666666668 69.0 L 18.0 70.0 L 18.0 71.0 L 18.0 72.0 L 18.333333333333332 73.0 L 18.666666666666668 74.0 L 19.0 75.0 L 19.333333333333332 76.0 L 19.666666666666668 77.0 L 20.333333333333332 78.0 L 20.666666666666668 79.0 L 21.333333333333332 80.0 L 21.666666666666668 81.0 L 22.333333333333332 82.0 L 23.0 83.0 L 24.0 84.0 L 25.0 85.0 L 26.0 86.0 L 27.0 87.0 L 28.0 88.0 L 29.0 89.0 L 30.0 90.0 L 31.0 90.66666666666667 L 32.0 91.33333333333333 L 33.0 91.66666666666667 L 34.0 92.33333333333333 L 35.0 93.0 L 36.0 93.66666666666667 L 37.0 94.0 L 38.0 94.0 L 39.0 94.33333333333333 L 40.0 94.66666666666667 L 41.0 95.33333333333333 L 42.0 96.0 L 43.0 96.66666666666667 L 44.0 96.66666666666667 L 45.0 96.33333333333333 L 46.0 96.0 L 47.0 96.0 L 48.0 96.0 L 49.0 96.0 L 50.0 96.0 L 51.0 96.0 L 52.0 96.0 L 53.0 96.0 L 54.0 96.0 L 55.0 96.0 L 56.0 96.0 L 57.0 95.66666666666667 L 58.0 95.33333333333333 L 59.0 95.0 L 60.0 95.0 L 61.0 95.0 L 62.0 95.0 L 63.0 95.0 L 64.0 95.0 L 65.0 95.0 L 65.66666666666667 94.66666666666667 L 66.0 94.0 L 66.33333333333333 93.0 L 67.0 92.33333333333333 L 68.0 91.66666666666667 L 69.0 91.0 L 70.0 90.0 L 71.0 89.0 L 71.5 88.5 Z" stroke="none" fill="rgb(255,202,39)" />
<path d="M 21.5 36.5 L 22.0 36.666666666666664 L 23.0 37.0 L 24.0 37.0 L 25.0 37.0 L 26.0 37.0 L 27.0 37.0 L 28.0 37.333333333333336 L 29.0 38.0 L 30.0 38.666666666666664 L 31.0 39.0 L 32.0 39.0 L 33.0 39.0 L 34.0 39.0 L 35.0 39.0 L 36.0 39.0 L 37.0 39.0 L 38.0 39.0 L 39.0 39.0 L 40.0 39.0 L 41.0 39.333333333333336 L 42.0 40.0 L 43.0 40.666666666666664 L 44.0 40.666666666666664 L 45.0 40.333333333333336 L 46.0 40.0 L 47.0 40.0 L 48.0 40.0 L 49.0 40.0 L 50.0 40.0 L 51.0 40.0 L 52.0 40.0 L 53.0 40.333333333333336 L 54.0 40.666666666666664 L 55.0 40.666666666666664 L 56.0 40.333333333333336 L 57.0 39.666666666666664 L 58.0 39.0 L 59.0 38.0 L 60.0 37.0 L 61.0 36.333333333333336 L 62.0 35.666666666666664 L 63.0 35.333333333333336 L 64.0 34.666666666666664 L 65.0 34.333333333333336 L 66.0 33.666666666666664 L 67.0 33.333333333333336 L 68.0 33.0 L 69.0 33.0 L 70.0 33.0 L 71.0 32.666666666666664 L 72.0 32.333333333333336 L 73.0 32.0 L 74.0 32.0 L 75.0 32.0 L 76.0 32.0 L 77.0 32.0 L 78.0 32.0 L 79.0 32.333333333333336 L 80.0 32.666666666666664 L 81.0 33.333333333333336 L 82.0 33.666666666666664 L 83.0 34.0 L 84.0 34.0 L 84.66666666666667 33.666666666666664 L 85.0 33.0 L 85.0 32.0 L 85.0 31.0 L 85.0 30.0 L 85.0 29.0 L 85.0 28.0 L 85.0 27.0 L 84.66666666666667 26.0 L 84.0 25.0 L 83.33333333333333 24.0 L 82.66666666666667 23.333333333333332 L 82.0 23.0 L 81.0 23.333333333333332 L 80.0 24.0 L 79.0 24.666666666666668 L 78.0 25.0 L 77.0 25.333333333333332 L 76.0 25.666666666666668 L 75.0 26.0 L 74.0 26.333333333333332 L 73.0 26.666666666666668 L 72.0 27.0 L 71.0 27.0 L 70.0 27.0 L 69.0 27.333333333333332 L 68.0 27.666666666666668 L 67.0 28.0 L 66.0 28.0 L 65.0 28.0 L 64.0 28.0 L 63.0 28.0 L 62.0 28.0 L 61.0 28.0 L 60.0 28.0 L 59.0 28.0 L 58.0 28.0 L 57.0 28.0 L 56.0 28.0 L 55.0 28.0 L 54.0 28.0 L 53.0 28.0 L 52.0 28.0 L 51.0 28.0 L 50.0 28.0 L 49.0 28.0 L 48.0 28.0 L 47.0 28.0 L 46.0 28.0 L 45.0 28.0 L 44.0 28.0 L 43.0 28.0 L 42.0 28.0 L 41.0 28.0 L 40.0 28.0 L 39.0 28.0 L 38.0 27.666666666666668 L 37.0 27.333333333333332 L 36.0 27.0 L 35.0 27.0 L 34.0 27.0 L 33.0 27.0 L 32.0 27.0 L 31.0 26.666666666666668 L 30.0 26.333333333333332 L 29.0 26.0 L 28.0 26.0 L 27.0 26.0 L 26.0 26.0 L 25.0 25.666666666666668 L 24.0 25.333333333333332 L 23.0 25.0 L 22.0 24.666666666666668 L 21.0 24.333333333333332 L 20.0 23.666666666666668 L 19.0 23.333333333333332 L 18.0 23.333333333333332 L 17.333333333333332 24.0 L 16.666666666666668 25.0 L 16.0 26.0 L 15.333333333333334 27.0 L 15.333333333333334 28.0 L 15.333333333333334 29.0 L 15.333333333333334 30.0 L 15.333333333333334 31.0 L 15.666666666666666 32.0 L 16.333333333333332 33.0 L 17.0 34.0 L 18.0 34.666666666666664 L 19.0 35.0 L 20.0 35.333333333333336 L 20.5 35.5 Z" stroke="none" fill="rgb(64,64,66)" />
<path d="M 26.5 19.5 L 27.0 20.0 L 28.0 21.0 L 29.0 21.666666666666668 L 30.0 22.333333333333332 L 31.0 22.666666666666668 L 32.0 23.333333333333332 L 33.0 23.666666666666668 L 34.0 24.0 L 35.0 24.333333333333332 L 36.0 24.666666666666668 L 37.0 25.0 L 38.0 25.333333333333332 L 39.0 25.666666666666668 L 40.0 26.0 L 41.0 26.0 L 42.0 26.0 L 43.0 26.0 L 44.0 26.333333333333332 L 45.0 27.0 L 46.0 27.666666666666668 L 47.0 28.0 L 48.0 28.0 L 49.0 28.0 L 50.0 28.0 L 51.0 28.0 L 52.0 28.0 L 53.0 28.0 L 53.666666666666664 27.666666666666668 L 54.333333333333336 27.0 L 55.0 26.333333333333332 L 56.0 26.0 L 57.0 26.0 L 58.0 26.0 L 59.0 26.0 L 60.0 25.666666666666668 L 61.0 25.333333333333332 L 62.0 25.0 L 63.0 24.666666666666668 L 64.0 24.333333333333332 L 65.0 24.0 L 66.0 23.666666666666668 L 67.0 23.333333333333332 L 68.0 22.666666666666668 L 69.0 22.333333333333332 L 70.0 21.666666666666668 L 71.0 21.0 L 72.0 20.0 L 73.0 19.333333333333332 L 74.0 18.666666666666668 L 74.66666666666667 18.0 L 75.33333333333333 17.0 L 76.0 16.0 L 76.66666666666667 15.0 L 77.0 14.0 L 77.0 13.0 L 76.66666666666667 12.0 L 76.0 11.0 L 75.0 10.333333333333334 L 74.0 10.0 L 73.0 10.333333333333334 L 72.33333333333333 11.0 L 71.66666666666667 12.0 L 71.0 13.0 L 70.33333333333333 14.0 L 69.66666666666667 15.0 L 69.0 15.666666666666666 L 68.0 16.333333333333332 L 67.0 17.0 L 66.0 18.0 L 65.0 18.666666666666668 L 64.0 19.333333333333332 L 63.0 19.666666666666668 L 62.0 20.333333333333332 L 61.0 20.666666666666668 L 60.0 21.0 L 59.0 21.333333333333332 L 58.0 21.666666666666668 L 57.0 22.0 L 56.0 22.0 L 55.0 22.0 L 54.0 22.333333333333332 L 53.0 22.666666666666668 L 52.0 23.0 L 51.0 23.0 L 50.0 23.0 L 49.0 23.0 L 48.0 23.0 L 47.0 23.0 L 46.0 22.666666666666668 L 45.0 22.333333333333332 L 44.0 22.0 L 43.0 22.0 L 42.0 22.0 L 41.0 21.666666666666668 L 40.0 21.333333333333332 L 39.0 21.0 L 38.0 20.666666666666668 L 37.0 20.333333333333332 L 36.0 19.666666666666668 L 35.0 19.333333333333332 L 34.0 18.666666666666668 L 33.0 18.0 L 32.0 17.333333333333332 L 31.0 16.666666666666668 L 30.0 16.0 L 29.333333333333332 15.0 L 28.666666666666668 14.0 L 28.0 13.0 L 27.333333333333332 12.0 L 26.666666666666668 11.0 L 26.333333333333332 10.0 L 25.666666666666668 9.333333333333334 L 25.0 9.0 L 24.333333333333332 9.333333333333334 L 23.666666666666668 10.0 L 23.0 11.0 L 22.333333333333332 12.0 L 22.0 13.0 L 22.0 14.0 L 22.333333333333332 15.0 L 22.666666666666668 16.0 L 23.333333333333332 17.0 L 24.0 18.0 L 25.0 18.666666666666668 L 25.5 19.0 Z" stroke="none" fill="rgb(91,91,91)" />
<path d="M 57.5 65.5 L 57.666666666666664 66.0 L 58.0 67.0 L 58.333333333333336 68.0 L 59.0 69.0 L 60.0 70.0 L 61.0 71.0 L 62.0 71.66666666666667 L 63.0 72.33333333333333 L 64.0 72.66666666666667 L 65.0 73.33333333333333 L 66.0 73.66666666666667 L 67.0 74.0 L 68.0 74.33333333333333 L 69.0 74.66666666666667 L 70.0 75.0 L 71.0 75.0 L 72.0 75.0 L 73.0 75.0 L 74.0 75.0 L 75.0 75.0 L 76.0 75.0 L 77.0 75.0 L 78.0 75.0 L 79.0 75.0 L 80.0 74.66666666666667 L 81.0 74.33333333333333 L 82.0 73.66666666666667 L 82.66666666666667 73.0 L 83.0 72.0 L 82.66666666666667 71.0 L 82.33333333333333 70.0 L 82.33333333333333 69.0 L 82.66666666666667 68.0 L 83.0 67.0 L 83.0 66.0 L 83.0 65.0 L 83.0 64.0 L 82.66666666666667 63.0 L 82.33333333333333 62.0 L 82.0 61.0 L 81.66666666666667 60.0 L 81.33333333333333 59.0 L 81.0 58.0 L 80.66666666666667 57.0 L 80.33333333333333 56.0 L 80.0 55.0 L 80.0 54.0 L 79.66666666666667 53.0 L 79.33333333333333 52.0 L 79.0 51.0 L 79.0 50.0 L 78.66666666666667 49.0 L 78.33333333333333 48.0 L 78.0 47.0 L 77.66666666666667 46.0 L 77.0 45.333333333333336 L 76.0 45.0 L 75.0 45.0 L 74.0 45.333333333333336 L 73.0 45.666666666666664 L 72.33333333333333 46.333333333333336 L 72.0 47.0 L 72.33333333333333 48.0 L 73.0 48.666666666666664 L 74.0 49.333333333333336 L 75.0 50.0 L 75.33333333333333 51.0 L 75.0 52.0 L 74.0 52.666666666666664 L 73.0 52.666666666666664 L 72.0 52.333333333333336 L 71.0 52.0 L 70.0 52.0 L 69.0 52.0 L 68.0 52.0 L 67.0 52.0 L 66.0 52.0 L 65.0 52.0 L 64.0 52.0 L 63.0 52.0 L 62.0 52.333333333333336 L 61.0 52.666666666666664 L 60.0 52.666666666666664 L 59.0 52.0 L 58.666666666666664 51.0 L 59.0 50.0 L 60.0 49.0 L 61.0 48.333333333333336 L 62.0 48.0 L 63.0 47.666666666666664 L 63.666666666666664 47.0 L 63.666666666666664 46.0 L 63.0 45.333333333333336 L 62.0 45.0 L 61.0 45.333333333333336 L 60.0 45.666666666666664 L 59.0 46.0 L 58.0 46.333333333333336 L 57.333333333333336 47.0 L 56.666666666666664 48.0 L 56.333333333333336 49.0 L 56.0 50.0 L 56.0 51.0 L 55.666666666666664 52.0 L 55.333333333333336 53.0 L 55.0 54.0 L 55.0 55.0 L 55.0 56.0 L 55.0 57.0 L 55.0 58.0 L 55.0 59.0 L 55.0 60.0 L 55.333333333333336 61.0 L 55.666666666666664 62.0 L 56.333333333333336 63.0 L 56.666666666666664 64.0 L 57.0 64.5 Z" stroke="none" fill="rgb(247,226,163)" />
<path d="M 30.5 17.0 L 31.0 17.333333333333332 L 32.0 18.0 L 33.0 18.666666666666668 L 34.0 19.333333333333332 L 35.0 19.666666666666668 L 36.0 20.333333333333332 L 37.0 20.666666666666668 L 38.0 21.0 L 39.0 21.333333333333332 L 40.0 21.666666666666668 L 41.0 22.0 L 42.0 22.0 L 43.0 22.0 L 44.0 22.333333333333332 L 45.0 22.666666666666668 L 46.0 23.0 L 47.0 23.0 L 48.0 23.0 L 49.0 23.0 L 50.0 23.0 L 51.0 23.0 L 52.0 23.0 L 53.0 23.0 L 54.0 22.666666666666668 L 55.0 22.333333333333332 L 56.0 22.0 L 57.0 22.0 L 58.0 22.0 L 59.0 21.666666666666668 L 60.0 21.333333333333332 L 61.0 21.0 L 62.0 20.666666666666668 L 63.0 20.333333333333332 L 64.0 19.666666666666668 L 65.0 19.333333333333332 L 66.0 18.666666666666668 L 67.0 18.0 L 68.0 17.0 L 69.0 16.333333333333332 L 69.66666666666667 15.666666666666666 L 70.33333333333333 15.0 L 71.0 14.0 L 71.66666666666667 13.0 L 72.33333333333333 12.0 L 73.0 11.0 L 73.66666666666667 10.0 L 73.66666666666667 9.0 L 73.0 8.0 L 72.0 7.0 L 71.0 6.333333333333333 L 70.0 5.666666666666667 L 69.0 5.333333333333333 L 68.0 5.0 L 67.33333333333333 5.333333333333333 L 67.0 6.0 L 66.66666666666667 7.0 L 66.33333333333333 8.0 L 66.0 9.0 L 65.66666666666667 10.0 L 65.0 11.0 L 64.0 12.0 L 63.0 13.0 L 62.0 14.0 L 61.0 15.0 L 60.0 15.666666666666666 L 59.0 16.333333333333332 L 58.0 16.666666666666668 L 57.0 17.0 L 56.0 17.0 L 55.0 17.0 L 54.0 17.0 L 53.0 17.0 L 52.0 17.0 L 51.0 17.0 L 50.0 17.0 L 49.0 17.0 L 48.0 17.0 L 47.0 17.0 L 46.0 17.0 L 45.0 17.0 L 44.0 17.0 L 43.0 17.0 L 42.0 17.0 L 41.0 16.666666666666668 L 40.0 16.333333333333332 L 39.0 15.666666666666666 L 38.0 15.0 L 37.0 14.0 L 36.0 13.0 L 35.0 12.0 L 34.0 11.0 L 33.333333333333336 10.0 L 33.0 9.0 L 32.666666666666664 8.0 L 32.666666666666664 7.0 L 32.666666666666664 6.0 L 33.0 5.0 L 32.666666666666664 4.333333333333333 L 32.0 4.0 L 31.0 4.333333333333333 L 30.0 4.666666666666667 L 29.0 5.333333333333333 L 28.0 5.666666666666667 L 27.0 6.333333333333333 L 26.333333333333332 7.0 L 26.0 8.0 L 26.0 9.0 L 26.0 10.0 L 26.333333333333332 11.0 L 26.666666666666668 12.0 L 27.333333333333332 13.0 L 28.0 14.0 L 28.666666666666668 15.0 L 29.333333333333332 16.0 L 29.5 16.5 Z" stroke="none" fill="rgb(98,98,98)" />
<path d="M 91.5 74.5 L 92.0 74.0 L 93.0 73.0 L 93.66666666666667 72.0 L 94.33333333333333 71.0 L 95.0 70.0 L 95.66666666666667 69.0 L 96.0 68.0 L 96.0 67.0 L 96.0 66.0 L 95.66666666666667 65.33333333333333 L 95.0 65.0 L 94.0 65.33333333333333 L 93.0 66.0 L 92.0 66.66666666666667 L 91.0 67.33333333333333 L 90.0 67.66666666666667 L 89.0 68.0 L 88.0 68.33333333333333 L 87.0 69.0 L 86.0 70.0 L 85.0 71.0 L 84.0 71.66666666666667 L 83.0 72.33333333333333 L 82.0 73.0 L 81.0 73.66666666666667 L 80.0 74.33333333333333 L 79.0 74.66666666666667 L 78.0 75.0 L 77.0 75.0 L 76.0 75.0 L 75.0 75.0 L 74.0 75.0 L 73.0 75.0 L 72.0 75.0 L 71.0 75.0 L 70.0 74.66666666666667 L 69.0 74.33333333333333 L 68.0 74.0 L 67.0 73.66666666666667 L 66.0 73.33333333333333 L 65.0 72.66666666666667 L 64.0 72.33333333333333 L 63.0 71.66666666666667 L 62.0 71.0 L 61.0 70.33333333333333 L 60.0 70.0 L 59.0 69.66666666666667 L 58.0 69.33333333333333 L 57.0 69.0 L 56.0 68.66666666666667 L 55.0 68.33333333333333 L 54.0 68.0 L 53.0 68.0 L 52.333333333333336 68.33333333333333 L 52.333333333333336 69.0 L 52.666666666666664 70.0 L 53.333333333333336 71.0 L 54.0 72.0 L 55.0 73.0 L 56.0 74.0 L 56.666666666666664 75.0 L 57.333333333333336 75.66666666666667 L 58.0 76.33333333333333 L 59.0 77.0 L 60.0 78.0 L 61.0 78.66666666666667 L 62.0 79.0 L 63.0 79.0 L 64.0 79.0 L 65.0 78.66666666666667 L 66.0 78.33333333333333 L 67.0 78.0 L 68.0 78.0 L 69.0 78.0 L 70.0 78.0 L 71.0 78.0 L 72.0 78.0 L 73.0 78.0 L 74.0 78.0 L 75.0 78.0 L 76.0 78.0 L 77.0 78.0 L 78.0 78.0 L 79.0 78.0 L 80.0 78.0 L 81.0 77.66666666666667 L 82.0 77.33333333333333 L 83.0 77.0 L 84.0 77.33333333333333 L 85.0 77.66666666666667 L 86.0 78.0 L 87.0 77.66666666666667 L 88.0 77.0 L 89.0 76.33333333333333 L 90.0 75.66666666666667 L 90.5 75.5 Z" stroke="none" fill="rgb(172,171,171)" />
<path d="M 95.5 111.5 L 96.0 112.0 L 96.66666666666667 113.0 L 97.33333333333333 114.0 L 97.66666666666667 115.0 L 98.33333333333333 116.0 L 99.0 117.0 L 100.0 117.66666666666667 L 101.0 118.33333333333333 L 102.0 118.66666666666667 L 103.0 119.0 L 104.0 119.0 L 105.0 119.0 L 106.0 119.0 L 107.0 119.0 L 108.0 119.0 L 109.0 119.0 L 110.0 119.0 L 111.0 119.0 L 112.0 118.66666666666667 L 113.0 118.33333333333333 L 113.66666666666667 117.66666666666667 L 113.66666666666667 117.0 L 113.66666666666667 116.0 L 113.66666666666667 115.0 L 113.66666666666667 114.0 L 113.0 113.0 L 112.0 112.0 L 111.0 111.0 L 110.0 110.0 L 109.0 109.33333333333333 L 108.0 109.0 L 107.0 108.66666666666667 L 106.0 108.0 L 105.33333333333333 107.0 L 105.0 106.0 L 105.0 105.0 L 104.66666666666667 104.0 L 104.33333333333333 103.0 L 103.66666666666667 102.0 L 103.33333333333333 101.0 L 102.66666666666667 100.0 L 102.0 99.0 L 101.0 98.0 L 100.33333333333333 97.0 L 99.66666666666667 96.0 L 99.33333333333333 95.0 L 98.66666666666667 94.33333333333333 L 98.0 94.0 L 97.0 94.33333333333333 L 96.0 94.66666666666667 L 95.0 95.33333333333333 L 94.0 96.0 L 93.33333333333333 97.0 L 92.66666666666667 98.0 L 92.33333333333333 99.0 L 92.0 100.0 L 92.0 101.0 L 92.0 102.0 L 92.0 103.0 L 92.33333333333333 104.0 L 92.66666666666667 105.0 L 93.0 106.0 L 93.0 107.0 L 93.0 108.0 L 93.33333333333333 109.0 L 94.0 110.0 L 94.5 110.5 Z" stroke="none" fill="rgb(255,202,39)" />
<path d="M 104.5 97.5 L 105.0 97.0 L 106.0 96.0 L 107.0 95.0 L 108.0 94.66666666666667 L 109.0 95.0 L 109.66666666666667 96.0 L 110.0 97.0 L 110.0 98.0 L 110.0 99.0 L 110.0 100.0 L 110.0 101.0 L 110.33333333333333 101.66666666666667 L 111.0 102.0 L 112.0 102.33333333333333 L 113.0 103.0 L 114.0 103.66666666666667 L 115.0 104.33333333333333 L 115.66666666666667 105.0 L 116.33333333333333 105.66666666666667 L 117.0 106.33333333333333 L 117.66666666666667 107.0 L 118.0 108.0 L 118.33333333333333 108.66666666666667 L 119.0 109.0 L 120.0 108.66666666666667 L 121.0 108.0 L 122.0 107.33333333333333 L 122.66666666666667 106.66666666666667 L 123.0 106.0 L 123.0 105.0 L 123.0 104.0 L 122.66666666666667 103.0 L 122.33333333333333 102.0 L 121.66666666666667 101.0 L 121.33333333333333 100.0 L 121.0 99.0 L 120.66666666666667 98.0 L 120.33333333333333 97.0 L 119.66666666666667 96.33333333333333 L 119.0 95.66666666666667 L 118.0 95.0 L 117.33333333333333 94.0 L 116.66666666666667 93.0 L 116.33333333333333 92.0 L 115.66666666666667 91.33333333333333 L 115.0 90.66666666666667 L 114.0 90.0 L 113.33333333333333 89.0 L 113.0 88.0 L 113.0 87.0 L 112.66666666666667 86.0 L 112.0 85.33333333333333 L 111.0 85.0 L 110.0 85.0 L 109.0 85.0 L 108.0 85.33333333333333 L 107.0 85.66666666666667 L 106.0 86.33333333333333 L 105.0 87.0 L 104.0 88.0 L 103.0 89.0 L 102.0 89.66666666666667 L 101.0 90.33333333333333 L 100.0 91.0 L 99.0 91.66666666666667 L 98.33333333333333 92.33333333333333 L 98.0 93.0 L 98.33333333333333 94.0 L 98.66666666666667 95.0 L 99.33333333333333 96.0 L 99.66666666666667 97.0 L 100.33333333333333 98.0 L 101.0 99.0 L 102.0 99.66666666666667 L 102.66666666666667 99.66666666666667 L 103.33333333333333 99.0 L 103.5 98.5 Z" stroke="none" fill="rgb(253,189,19)" />
<path d="M 37.5 108.0 L 38.0 108.0 L 39.0 108.0 L 40.0 108.0 L 41.0 108.0 L 42.0 108.0 L 43.0 108.0 L 44.0 108.0 L 44.666666666666664 107.66666666666667 L 45.0 107.0 L 45.0 106.0 L 45.0 105.0 L 44.666666666666664 104.0 L 44.333333333333336 103.0 L 44.0 102.0 L 44.0 101.0 L 44.0 100.0 L 44.0 99.0 L 44.0 98.0 L 43.666666666666664 97.0 L 43.0 96.0 L 42.0 95.33333333333333 L 41.0 94.66666666666667 L 40.0 94.33333333333333 L 39.0 94.0 L 38.0 94.0 L 37.0 94.0 L 36.0 94.0 L 35.0 94.0 L 34.0 94.0 L 33.0 94.0 L 32.0 94.0 L 31.0 93.66666666666667 L 30.0 93.33333333333333 L 29.0 93.0 L 28.0 92.66666666666667 L 27.0 92.33333333333333 L 26.0 91.66666666666667 L 25.0 91.33333333333333 L 24.0 91.0 L 23.0 91.0 L 22.0 91.0 L 21.333333333333332 91.33333333333333 L 21.0 92.0 L 21.333333333333332 93.0 L 21.666666666666668 94.0 L 22.0 95.0 L 22.333333333333332 96.0 L 23.0 97.0 L 23.666666666666668 98.0 L 24.0 99.0 L 24.333333333333332 100.0 L 24.666666666666668 101.0 L 25.0 102.0 L 25.333333333333332 103.0 L 25.666666666666668 104.0 L 26.0 105.0 L 26.0 106.0 L 26.0 107.0 L 26.333333333333332 108.0 L 27.0 108.66666666666667 L 28.0 108.66666666666667 L 29.0 108.33333333333333 L 30.0 108.0 L 31.0 108.0 L 32.0 108.0 L 33.0 108.0 L 34.0 108.0 L 35.0 108.0 L 36.0 108.0 L 36.5 108.0 Z" stroke="none" fill="rgb(115,115,115)" />
<path d="M 72.5 109.0 L 73.0 108.66666666666667 L 74.0 108.33333333333333 L 74.66666666666667 107.66666666666667 L 75.0 107.0 L 74.66666666666667 106.0 L 74.66666666666667 105.0 L 74.66666666666667 104.0 L 75.0 103.0 L 75.0 102.0 L 75.33333333333333 101.0 L 75.66666666666667 100.0 L 76.0 99.0 L 76.33333333333333 98.0 L 77.0 97.0 L 77.66666666666667 96.0 L 78.0 95.0 L 78.33333333333333 94.0 L 78.66666666666667 93.0 L 79.0 92.0 L 78.66666666666667 91.33333333333333 L 78.0 91.0 L 77.0 91.0 L 76.0 91.33333333333333 L 75.0 91.66666666666667 L 74.0 92.33333333333333 L 73.0 92.66666666666667 L 72.0 93.33333333333333 L 71.0 93.66666666666667 L 70.0 94.0 L 69.0 94.0 L 68.0 94.0 L 67.0 94.0 L 66.0 94.33333333333333 L 65.0 94.66666666666667 L 64.0 95.0 L 63.0 95.0 L 62.0 95.0 L 61.0 95.0 L 60.0 95.0 L 59.0 95.0 L 58.0 95.0 L 57.0 95.33333333333333 L 56.333333333333336 96.0 L 56.0 97.0 L 56.0 98.0 L 56.0 99.0 L 56.0 100.0 L 56.0 101.0 L 56.0 102.0 L 56.0 103.0 L 55.666666666666664 104.0 L 55.333333333333336 105.0 L 55.0 106.0 L 55.333333333333336 107.0 L 56.0 107.66666666666667 L 57.0 108.0 L 58.0 108.0 L 59.0 108.0 L 60.0 108.0 L 61.0 108.0 L 62.0 108.0 L 63.0 108.0 L 64.0 108.0 L 65.0 108.0 L 66.0 108.0 L 67.0 108.0 L 68.0 108.0 L 69.0 108.0 L 70.0 108.0 L 71.0 108.33333333333333 L 71.5 108.5 Z" stroke="none" fill="rgb(115,115,115)" />
<path d="M 92.0 101.5 L 92.0 101.0 L 92.33333333333333 100.0 L 92.66666666666667 99.0 L 93.33333333333333 98.0 L 93.66666666666667 97.0 L 94.0 96.0 L 94.0 95.0 L 93.66666666666667 94.0 L 93.0 93.0 L 92.33333333333333 92.0 L 91.66666666666667 91.0 L 91.33333333333333 90.0 L 91.0 89.0 L 90.66666666666667 88.0 L 90.33333333333333 87.0 L 89.66666666666667 86.33333333333333 L 89.0 85.66666666666667 L 88.33333333333333 85.0 L 87.66666666666667 84.0 L 87.66666666666667 83.0 L 87.66666666666667 82.0 L 87.66666666666667 81.0 L 87.0 80.0 L 86.0 79.33333333333333 L 85.0 79.0 L 84.0 79.33333333333333 L 83.0 79.66666666666667 L 82.0 80.0 L 81.0 80.33333333333333 L 80.0 80.66666666666667 L 79.0 81.0 L 78.0 81.33333333333333 L 77.0 82.0 L 76.33333333333333 83.0 L 76.33333333333333 84.0 L 77.0 85.0 L 78.0 86.0 L 78.66666666666667 87.0 L 79.0 88.0 L 79.0 89.0 L 79.0 90.0 L 79.0 91.0 L 78.66666666666667 92.0 L 78.33333333333333 93.0 L 78.0 94.0 L 77.66666666666667 95.0 L 77.33333333333333 96.0 L 77.33333333333333 96.66666666666667 L 78.0 97.0 L 79.0 97.0 L 80.0 97.0 L 81.0 97.0 L 82.0 97.0 L 83.0 97.33333333333333 L 84.0 97.66666666666667 L 85.0 98.33333333333333 L 86.0 98.66666666666667 L 87.0 99.33333333333333 L 88.0 99.66666666666667 L 89.0 100.33333333333333 L 90.0 101.0 L 91.0 101.66666666666667 L 91.5 102.0 Z" stroke="none" fill="rgb(255,255,255)" />
<path d="M 24.5 108.0 L 25.0 108.0 L 25.666666666666668 107.66666666666667 L 26.0 107.0 L 26.0 106.0 L 26.0 105.0 L 26.0 104.0 L 25.666666666666668 103.0 L 25.333333333333332 102.0 L 25.0 101.0 L 24.666666666666668 100.0 L 24.333333333333332 99.0 L 24.0 98.0 L 23.666666666666668 97.33333333333333 L 23.0 97.0 L 22.0 97.0 L 21.0 97.0 L 20.0 97.0 L 19.0 97.0 L 18.0 97.0 L 17.0 97.0 L 16.0 97.0 L 15.0 97.33333333333333 L 14.0 97.66666666666667 L 13.0 98.0 L 12.0 98.33333333333333 L 11.0 98.66666666666667 L 10.0 99.33333333333333 L 9.0 99.66666666666667 L 8.0 100.33333333333333 L 7.0 101.0 L 6.0 102.0 L 5.0 103.0 L 4.333333333333333 104.0 L 4.0 105.0 L 4.0 106.0 L 4.333333333333333 107.0 L 4.666666666666667 108.0 L 5.333333333333333 109.0 L 6.0 110.0 L 7.0 111.0 L 8.0 111.66666666666667 L 9.0 112.0 L 10.0 112.0 L 11.0 112.0 L 12.0 112.0 L 13.0 112.0 L 14.0 111.66666666666667 L 15.0 111.0 L 16.0 110.33333333333333 L 17.0 109.66666666666667 L 18.0 109.33333333333333 L 19.0 109.0 L 20.0 108.66666666666667 L 21.0 108.33333333333333 L 22.0 108.0 L 23.0 108.0 L 23.5 108.0 Z" stroke="none" fill="rgb(129,129,129)" />
<path d="M 87.0 37.5 L 87.0 37.0 L 86.66666666666667 36.0 L 86.0 35.0 L 85.0 34.333333333333336 L 84.0 34.0 L 83.0 33.666666666666664 L 82.0 33.333333333333336 L 81.0 32.666666666666664 L 80.0 32.333333333333336 L 79.0 32.0 L 78.0 32.0 L 77.0 32.0 L 76.0 32.0 L 75.0 32.0 L 74.0 32.0 L 73.0 32.0 L 72.0 32.0 L 71.0 32.333333333333336 L 70.0 32.666666666666664 L 69.0 33.0 L 68.0 33.0 L 67.0 33.0 L 66.0 33.333333333333336 L 65.0 33.666666666666664 L 64.0 34.333333333333336 L 63.0 34.666666666666664 L 62.0 35.333333333333336 L 61.0 35.666666666666664 L 60.0 36.333333333333336 L 59.0 37.0 L 58.333333333333336 38.0 L 58.333333333333336 39.0 L 58.666666666666664 40.0 L 59.333333333333336 41.0 L 60.0 42.0 L 61.0 42.666666666666664 L 62.0 42.666666666666664 L 63.0 42.0 L 64.0 41.333333333333336 L 65.0 40.666666666666664 L 66.0 40.333333333333336 L 67.0 39.666666666666664 L 68.0 39.333333333333336 L 69.0 39.0 L 70.0 38.666666666666664 L 71.0 38.333333333333336 L 72.0 38.0 L 73.0 38.0 L 74.0 38.0 L 75.0 38.0 L 76.0 38.0 L 77.0 38.333333333333336 L 78.0 38.666666666666664 L 79.0 39.0 L 80.0 39.333333333333336 L 81.0 39.666666666666664 L 82.0 40.333333333333336 L 83.0 41.0 L 84.0 41.666666666666664 L 84.66666666666667 41.666666666666664 L 85.33333333333333 41.0 L 85.66666666666667 40.0 L 86.33333333333333 39.0 L 86.5 38.5 Z" stroke="none" fill="rgb(220,220,220)" />
<path d="M 78.5 108.5 L 79.0 108.66666666666667 L 80.0 109.33333333333333 L 81.0 109.66666666666667 L 82.0 110.33333333333333 L 83.0 111.0 L 84.0 111.66666666666667 L 85.0 112.0 L 86.0 112.0 L 87.0 112.0 L 88.0 112.0 L 89.0 112.0 L 90.0 111.66666666666667 L 91.0 111.0 L 92.0 110.0 L 92.66666666666667 109.0 L 93.0 108.0 L 93.0 107.0 L 93.0 106.0 L 93.0 105.0 L 92.66666666666667 104.0 L 92.33333333333333 103.0 L 91.66666666666667 102.0 L 91.0 101.0 L 90.0 100.33333333333333 L 89.0 99.66666666666667 L 88.0 99.33333333333333 L 87.0 98.66666666666667 L 86.0 98.33333333333333 L 85.0 97.66666666666667 L 84.0 97.33333333333333 L 83.0 97.0 L 82.0 97.0 L 81.0 97.0 L 80.0 97.0 L 79.0 97.0 L 78.0 97.0 L 77.0 97.0 L 76.33333333333333 97.33333333333333 L 76.0 98.0 L 75.66666666666667 99.0 L 75.33333333333333 100.0 L 75.0 101.0 L 75.0 102.0 L 74.66666666666667 103.0 L 74.33333333333333 104.0 L 74.0 105.0 L 74.33333333333333 106.0 L 75.0 106.66666666666667 L 76.0 107.33333333333333 L 77.0 107.66666666666667 L 77.5 108.0 Z" stroke="none" fill="rgb(129,129,129)" />
<path d="M 52.5 124.0 L 53.0 124.0 L 53.666666666666664 123.66666666666667 L 54.0 123.0 L 54.0 122.0 L 54.0 121.0 L 54.0 120.0 L 54.0 119.0 L 54.333333333333336 118.0 L 54.666666666666664 117.0 L 55.0 116.0 L 55.0 115.0 L 55.0 114.0 L 55.0 113.0 L 55.0 112.0 L 55.0 111.0 L 55.0 110.0 L 55.333333333333336 109.0 L 55.666666666666664 108.0 L 55.666666666666664 107.0 L 55.333333333333336 106.0 L 54.666666666666664 105.33333333333333 L 54.0 105.0 L 53.0 105.0 L 52.0 105.0 L 51.0 105.0 L 50.0 105.0 L 49.0 105.0 L 48.0 105.0 L 47.0 105.0 L 46.0 105.0 L 45.333333333333336 105.33333333333333 L 45.0 106.0 L 45.0 107.0 L 45.0 108.0 L 45.0 109.0 L 45.0 110.0 L 45.0 111.0 L 45.0 112.0 L 45.0 113.0 L 45.0 114.0 L 45.0 115.0 L 45.0 116.0 L 45.333333333333336 117.0 L 45.666666666666664 118.0 L 46.0 119.0 L 46.0 120.0 L 46.0 121.0 L 46.0 122.0 L 46.0 123.0 L 46.333333333333336 123.66666666666667 L 47.0 124.0 L 48.0 124.0 L 49.0 124.0 L 50.0 124.0 L 51.0 124.0 L 51.5 124.0 Z" stroke="none" fill="rgb(188,188,188)" />
<path d="M 110.5 111.5 L 111.0 112.0 L 112.0 113.0 L 113.0 114.0 L 114.0 115.0 L 115.0 115.66666666666667 L 116.0 116.0 L 117.0 115.66666666666667 L 118.0 115.33333333333333 L 119.0 114.66666666666667 L 119.66666666666667 114.0 L 120.0 113.0 L 119.66666666666667 112.33333333333333 L 119.0 112.33333333333333 L 118.0 112.66666666666667 L 117.0 113.0 L 116.0 112.66666666666667 L 115.66666666666667 112.0 L 115.66666666666667 111.0 L 115.66666666666667 110.33333333333333 L 115.0 110.0 L 114.0 110.0 L 113.0 109.66666666666667 L 112.66666666666667 109.0 L 113.0 108.0 L 114.0 107.0 L 115.0 106.33333333333333 L 115.66666666666667 105.66666666666667 L 116.33333333333333 105.0 L 116.66666666666667 104.0 L 117.0 103.0 L 116.66666666666667 102.33333333333333 L 116.0 102.33333333333333 L 115.0 103.0 L 114.0 104.0 L 113.0 105.0 L 112.0 105.66666666666667 L 111.0 106.0 L 110.0 105.66666666666667 L 109.33333333333333 105.0 L 109.0 104.0 L 109.0 103.0 L 109.0 102.0 L 108.66666666666667 101.33333333333333 L 108.0 101.0 L 107.0 101.0 L 106.0 100.66666666666667 L 105.33333333333333 100.0 L 105.33333333333333 99.0 L 106.0 98.0 L 107.0 97.0 L 108.0 96.0 L 109.0 95.0 L 110.0 94.0 L 110.66666666666667 93.0 L 111.0 92.0 L 110.66666666666667 91.33333333333333 L 110.0 91.0 L 109.33333333333333 91.33333333333333 L 108.66666666666667 92.0 L 108.0 93.0 L 107.0 94.0 L 106.0 95.0 L 105.0 96.0 L 104.0 97.0 L 103.33333333333333 98.0 L 103.0 99.0 L 103.0 100.0 L 103.0 101.0 L 103.33333333333333 102.0 L 103.66666666666667 103.0 L 104.33333333333333 104.0 L 104.66666666666667 105.0 L 105.0 106.0 L 105.0 107.0 L 105.33333333333333 108.0 L 106.0 108.66666666666667 L 107.0 109.0 L 108.0 109.33333333333333 L 109.0 110.0 L 109.5 110.5 Z" stroke="none" fill="rgb(240,169,4)" />
<path d="M 100.5 91.5 L 101.0 91.0 L 102.0 90.33333333333333 L 103.0 89.66666666666667 L 104.0 89.0 L 105.0 88.0 L 105.66666666666667 87.0 L 106.0 86.0 L 105.66666666666667 85.0 L 105.0 84.0 L 104.0 83.0 L 103.0 82.33333333333333 L 102.0 81.66666666666667 L 101.0 81.0 L 100.0 80.33333333333333 L 99.0 80.0 L 98.0 80.0 L 97.0 80.33333333333333 L 96.0 81.0 L 95.0 82.0 L 94.0 83.0 L 93.0 83.66666666666667 L 92.0 84.33333333333333 L 91.0 85.0 L 90.33333333333333 86.0 L 90.0 87.0 L 90.33333333333333 88.0 L 90.66666666666667 89.0 L 91.0 90.0 L 91.33333333333333 91.0 L 91.66666666666667 92.0 L 92.33333333333333 93.0 L 93.0 94.0 L 94.0 94.66666666666667 L 95.0 95.0 L 96.0 95.0 L 97.0 94.66666666666667 L 97.66666666666667 94.0 L 98.33333333333333 93.0 L 99.0 92.33333333333333 L 99.5 92.0 Z" stroke="none" fill="rgb(254,151,4)" />
<path d="M 65.5 47.0 L 66.0 47.0 L 67.0 47.0 L 68.0 47.0 L 69.0 47.0 L 70.0 47.0 L 71.0 47.0 L 72.0 46.666666666666664 L 73.0 46.333333333333336 L 74.0 45.666666666666664 L 75.0 45.333333333333336 L 76.0 45.0 L 77.0 45.0 L 78.0 44.666666666666664 L 79.0 44.333333333333336 L 80.0 43.666666666666664 L 81.0 43.0 L 82.0 42.333333333333336 L 83.0 42.0 L 83.66666666666667 41.666666666666664 L 83.66666666666667 41.0 L 83.0 40.333333333333336 L 82.0 39.666666666666664 L 81.0 39.333333333333336 L 80.0 39.0 L 79.0 38.666666666666664 L 78.0 38.333333333333336 L 77.0 38.0 L 76.0 38.0 L 75.0 38.0 L 74.0 38.0 L 73.0 38.0 L 72.0 38.0 L 71.0 38.0 L 70.0 38.333333333333336 L 69.0 38.666666666666664 L 68.0 39.0 L 67.0 39.333333333333336 L 66.0 39.666666666666664 L 65.0 40.333333333333336 L 64.0 40.666666666666664 L 63.0 41.333333333333336 L 62.0 42.0 L 61.333333333333336 43.0 L 61.0 44.0 L 61.333333333333336 44.666666666666664 L 62.0 45.333333333333336 L 63.0 46.0 L 64.0 46.666666666666664 L 64.5 47.0 Z" stroke="none" fill="rgb(188,188,188)" />
<path d="M 17.5 63.0 L 18.0 62.666666666666664 L 18.666666666666668 62.0 L 19.0 61.0 L 19.0 60.0 L 19.333333333333332 59.0 L 19.666666666666668 58.0 L 20.0 57.0 L 20.333333333333332 56.0 L 20.666666666666668 55.0 L 21.0 54.0 L 21.0 53.0 L 21.333333333333332 52.0 L 21.666666666666668 51.0 L 22.0 50.0 L 22.333333333333332 49.0 L 22.666666666666668 48.0 L 23.0 47.0 L 23.0 46.0 L 23.0 45.0 L 22.666666666666668 44.0 L 22.0 43.333333333333336 L 21.0 42.666666666666664 L 20.0 42.333333333333336 L 19.0 42.0 L 18.0 41.666666666666664 L 17.0 41.333333333333336 L 16.0 41.0 L 15.0 41.0 L 14.333333333333334 41.333333333333336 L 14.0 42.0 L 14.0 43.0 L 14.0 44.0 L 14.0 45.0 L 14.0 46.0 L 14.0 47.0 L 14.0 48.0 L 14.0 49.0 L 14.0 50.0 L 14.0 51.0 L 14.0 52.0 L 14.0 53.0 L 14.0 54.0 L 14.0 55.0 L 14.0 56.0 L 14.333333333333334 57.0 L 14.666666666666666 58.0 L 15.333333333333334 59.0 L 15.666666666666666 60.0 L 16.0 61.0 L 16.333333333333332 62.0 L 16.5 62.5 Z" stroke="none" fill="rgb(100,71,60)" />
<path d="M 91.5 114.0 L 92.0 114.0 L 93.0 114.0 L 94.0 114.0 L 95.0 114.0 L 96.0 114.0 L 96.66666666666667 113.66666666666667 L 97.0 113.0 L 96.66666666666667 112.0 L 96.0 111.0 L 95.0 110.0 L 94.0 109.33333333333333 L 93.0 109.0 L 92.0 109.33333333333333 L 91.0 110.0 L 90.0 111.0 L 89.0 111.66666666666667 L 88.0 112.0 L 87.0 112.0 L 86.0 112.0 L 85.0 111.66666666666667 L 84.0 111.0 L 83.0 110.33333333333333 L 82.0 109.66666666666667 L 81.0 109.33333333333333 L 80.0 108.66666666666667 L 79.0 108.33333333333333 L 78.0 107.66666666666667 L 77.0 107.33333333333333 L 76.0 107.0 L 75.0 107.33333333333333 L 74.0 107.66666666666667 L 73.0 108.33333333333333 L 72.33333333333333 109.0 L 72.0 110.0 L 71.66666666666667 111.0 L 71.33333333333333 112.0 L 71.0 113.0 L 71.33333333333333 113.66666666666667 L 72.0 114.0 L 73.0 114.0 L 74.0 114.0 L 75.0 114.0 L 76.0 114.0 L 77.0 114.0 L 78.0 114.0 L 79.0 114.0 L 80.0 114.0 L 81.0 114.0 L 82.0 114.0 L 83.0 114.0 L 84.0 114.0 L 85.0 114.0 L 86.0 114.0 L 87.0 114.0 L 88.0 114.0 L 89.0 114.0 L 90.0 114.0 L 90.5 114.0 Z" stroke="none" fill="rgb(91,91,91)" />
<path d="M 59.5 81.5 L 60.0 81.0 L 60.666666666666664 80.0 L 61.0 79.0 L 60.666666666666664 78.0 L 60.0 77.0 L 59.0 76.33333333333333 L 58.0 76.0 L 57.0 76.33333333333333 L 56.0 76.66666666666667 L 55.0 77.0 L 54.0 77.0 L 53.0 77.0 L 52.0 77.0 L 51.0 77.0 L 50.0 77.0 L 49.0 77.0 L 48.0 77.0 L 47.0 77.0 L 46.0 77.0 L 45.0 76.66666666666667 L 44.0 76.33333333333333 L 43.0 76.0 L 42.0 76.0 L 41.0 76.0 L 40.0 76.0 L 39.333333333333336 76.33333333333333 L 39.0 77.0 L 39.0 78.0 L 39.333333333333336 79.0 L 40.0 80.0 L 41.0 81.0 L 42.0 81.66666666666667 L 43.0 82.0 L 44.0 82.33333333333333 L 45.0 82.66666666666667 L 46.0 83.0 L 47.0 83.0 L 48.0 83.0 L 49.0 83.0 L 50.0 83.0 L 51.0 83.0 L 52.0 83.0 L 53.0 83.0 L 54.0 83.0 L 55.0 83.0 L 56.0 83.0 L 57.0 82.66666666666667 L 58.0 82.33333333333333 L 58.5 82.0 Z" stroke="none" fill="rgb(122,88,69)" />
<path d="M 24.5 114.0 L 25.0 114.0 L 26.0 114.0 L 27.0 114.0 L 28.0 114.0 L 28.666666666666668 113.66666666666667 L 29.0 113.0 L 29.0 112.0 L 28.666666666666668 111.0 L 28.333333333333332 110.0 L 27.666666666666668 109.0 L 27.0 108.33333333333333 L 26.0 108.0 L 25.0 108.0 L 24.0 108.0 L 23.0 108.0 L 22.0 108.0 L 21.0 108.0 L 20.0 108.33333333333333 L 19.0 108.66666666666667 L 18.0 109.0 L 17.0 109.33333333333333 L 16.0 109.66666666666667 L 15.0 110.33333333333333 L 14.0 111.0 L 13.0 111.66666666666667 L 12.0 112.0 L 11.0 112.0 L 10.0 112.0 L 9.0 111.66666666666667 L 8.0 111.0 L 7.0 110.0 L 6.0 109.33333333333333 L 5.0 109.0 L 4.333333333333333 109.33333333333333 L 4.0 110.0 L 4.0 111.0 L 4.0 112.0 L 4.0 113.0 L 4.333333333333333 113.66666666666667 L 5.0 114.0 L 6.0 114.0 L 7.0 114.0 L 8.0 114.0 L 9.0 114.0 L 10.0 114.0 L 11.0 114.0 L 12.0 114.0 L 13.0 114.0 L 14.0 114.0 L 15.0 114.0 L 16.0 114.0 L 17.0 114.0 L 18.0 114.0 L 19.0 114.0 L 20.0 114.0 L 21.0 114.0 L 22.0 114.0 L 23.0 114.0 L 23.5 114.0 Z" stroke="none" fill="rgb(91,91,91)" />
<path d="M 94.5 124.0 L 95.0 124.0 L 95.66666666666667 123.66666666666667 L 96.0 123.0 L 96.0 122.0 L 96.0 121.0 L 95.66666666666667 120.33333333333333 L 95.0 120.0 L 94.0 120.0 L 93.0 120.0 L 92.0 120.0 L 91.0 120.0 L 90.0 120.0 L 89.0 120.0 L 88.0 120.0 L 87.0 120.0 L 86.0 120.0 L 85.0 120.0 L 84.0 120.0 L 83.0 120.0 L 82.0 120.0 L 81.0 120.0 L 80.0 120.0 L 79.0 120.0 L 78.0 120.0 L 77.0 120.0 L 76.0 120.0 L 75.0 120.0 L 74.0 120.0 L 73.0 120.0 L 72.0 120.0 L 71.0 120.0 L 70.0 120.0 L 69.0 120.33333333333333 L 68.0 121.0 L 67.33333333333333 122.0 L 67.0 123.0 L 67.33333333333333 123.66666666666667 L 68.0 124.0 L 69.0 124.0 L 70.0 124.0 L 71.0 124.0 L 72.0 124.0 L 73.0 124.0 L 74.0 124.0 L 75.0 124.0 L 76.0 124.0 L 77.0 124.0 L 78.0 124.0 L 79.0 124.0 L 80.0 124.0 L 81.0 124.0 L 82.0 124.0 L 83.0 124.0 L 84.0 124.0 L 85.0 124.0 L 86.0 124.0 L 87.0 124.0 L 88.0 124.0 L 89.0 124.0 L 90.0 124.0 L 91.0 124.0 L 92.0 124.0 L 93.0 124.0 L 93.5 124.0 Z" stroke="none" fill="rgb(72,71,71)" />
<path d="M 71.5 25.0 L 72.0 24.666666666666668 L 73.0 24.333333333333332 L 74.0 23.666666666666668 L 75.0 23.0 L 76.0 22.333333333333332 L 77.0 21.666666666666668 L 78.0 21.0 L 79.0 20.0 L 79.66666666666667 19.0 L 80.0 18.0 L 79.66666666666667 17.0 L 79.33333333333333 16.0 L 78.66666666666667 15.0 L 78.0 14.333333333333334 L 77.0 14.333333333333334 L 76.0 15.0 L 75.33333333333333 16.0 L 74.66666666666667 17.0 L 74.0 18.0 L 73.0 18.666666666666668 L 72.0 19.333333333333332 L 71.0 20.0 L 70.0 21.0 L 69.0 21.666666666666668 L 68.0 22.333333333333332 L 67.0 22.666666666666668 L 66.0 23.333333333333332 L 65.0 23.666666666666668 L 64.0 24.0 L 63.0 24.333333333333332 L 62.0 24.666666666666668 L 61.0 25.0 L 60.0 25.333333333333332 L 59.0 25.666666666666668 L 58.0 26.0 L 57.0 26.0 L 56.0 26.0 L 55.0 26.0 L 54.333333333333336 26.333333333333332 L 54.0 27.0 L 54.333333333333336 27.666666666666668 L 55.0 28.0 L 56.0 28.0 L 57.0 28.0 L 58.0 28.0 L 59.0 28.0 L 60.0 28.0 L 61.0 28.0 L 62.0 28.0 L 63.0 28.0 L 64.0 28.0 L 65.0 28.0 L 66.0 28.0 L 67.0 28.0 L 68.0 28.0 L 69.0 27.666666666666668 L 69.66666666666667 27.0 L 70.33333333333333 26.0 L 70.5 25.5 Z" stroke="none" fill="rgb(84,84,84)" />
<path d="M 55.5 12.0 L 56.0 11.666666666666666 L 56.666666666666664 11.0 L 57.0 10.0 L 57.0 9.0 L 57.0 8.0 L 57.0 7.0 L 57.0 6.0 L 56.666666666666664 5.0 L 56.0 4.333333333333333 L 55.0 4.0 L 54.0 4.0 L 53.0 4.0 L 52.0 4.0 L 51.0 4.0 L 50.0 4.333333333333333 L 49.0 4.666666666666667 L 48.0 4.666666666666667 L 47.0 4.333333333333333 L 46.0 4.0 L 45.0 4.0 L 44.0 4.0 L 43.0 4.0 L 42.333333333333336 4.333333333333333 L 42.0 5.0 L 42.0 6.0 L 42.0 7.0 L 42.0 8.0 L 42.0 9.0 L 42.333333333333336 10.0 L 43.0 11.0 L 44.0 11.666666666666666 L 45.0 12.0 L 46.0 12.0 L 47.0 12.0 L 48.0 12.0 L 49.0 12.333333333333334 L 50.0 12.666666666666666 L 51.0 13.0 L 52.0 13.0 L 53.0 12.666666666666666 L 54.0 12.333333333333334 L 54.5 12.0 Z" stroke="none" fill="rgb(115,115,115)" />
<path d="M 84.0 62.5 L 84.33333333333333 62.0 L 84.66666666666667 61.0 L 85.0 60.0 L 85.0 59.0 L 85.33333333333333 58.0 L 85.66666666666667 57.0 L 86.0 56.0 L 86.0 55.0 L 86.0 54.0 L 86.0 53.0 L 86.0 52.0 L 86.0 51.0 L 86.0 50.0 L 86.0 49.0 L 86.0 48.0 L 86.0 47.0 L 86.33333333333333 46.0 L 86.66666666666667 45.0 L 86.66666666666667 44.0 L 86.0 43.0 L 85.0 42.333333333333336 L 84.0 42.0 L 83.0 42.0 L 82.0 42.0 L 81.0 42.333333333333336 L 80.33333333333333 43.0 L 80.0 44.0 L 80.0 45.0 L 80.0 46.0 L 80.0 47.0 L 80.0 48.0 L 79.66666666666667 49.0 L 79.33333333333333 50.0 L 79.0 51.0 L 79.0 52.0 L 79.33333333333333 53.0 L 79.66666666666667 54.0 L 80.0 55.0 L 80.0 56.0 L 80.33333333333333 57.0 L 80.66666666666667 58.0 L 81.0 59.0 L 81.33333333333333 60.0 L 81.66666666666667 61.0 L 82.0 62.0 L 82.33333333333333 62.666666666666664 L 83.0 63.0 L 83.5 63.0 Z" stroke="none" fill="rgb(187,177,172)" />
<path d="M 72.0 62.5 L 72.0 62.0 L 72.0 61.0 L 72.0 60.0 L 72.0 59.0 L 71.66666666666667 58.0 L 71.33333333333333 57.0 L 70.66666666666667 56.0 L 70.0 55.333333333333336 L 69.0 54.666666666666664 L 68.0 54.333333333333336 L 67.0 54.0 L 66.0 54.0 L 65.0 54.0 L 64.0 54.333333333333336 L 63.0 54.666666666666664 L 62.0 55.333333333333336 L 61.333333333333336 56.0 L 60.666666666666664 57.0 L 60.333333333333336 58.0 L 60.0 59.0 L 60.0 60.0 L 60.0 61.0 L 60.0 62.0 L 60.333333333333336 63.0 L 61.0 64.0 L 62.0 65.0 L 63.0 65.66666666666667 L 64.0 66.0 L 65.0 66.0 L 66.0 66.0 L 67.0 66.0 L 68.0 66.0 L 69.0 65.66666666666667 L 70.0 65.0 L 71.0 64.0 L 71.5 63.5 Z" stroke="none" fill="rgb(172,171,171)" />
<path d="M 42.5 16.5 L 43.0 16.666666666666668 L 44.0 17.0 L 45.0 17.0 L 46.0 17.0 L 47.0 17.0 L 48.0 17.0 L 49.0 17.0 L 50.0 17.0 L 51.0 17.0 L 52.0 17.0 L 53.0 17.0 L 54.0 17.0 L 55.0 16.666666666666668 L 56.0 16.333333333333332 L 57.0 15.666666666666666 L 58.0 15.0 L 59.0 14.0 L 59.666666666666664 13.0 L 60.0 12.0 L 60.0 11.0 L 59.666666666666664 10.333333333333334 L 59.0 10.0 L 58.0 10.0 L 57.0 10.333333333333334 L 56.0 11.0 L 55.0 11.666666666666666 L 54.0 12.0 L 53.0 12.333333333333334 L 52.0 12.666666666666666 L 51.0 12.666666666666666 L 50.0 12.333333333333334 L 49.0 12.0 L 48.0 12.0 L 47.0 12.0 L 46.0 12.0 L 45.0 12.0 L 44.0 12.0 L 43.0 12.0 L 42.0 11.666666666666666 L 41.0 11.333333333333334 L 40.0 11.0 L 39.333333333333336 11.333333333333334 L 39.0 12.0 L 39.333333333333336 13.0 L 40.0 14.0 L 41.0 15.0 L 41.5 15.5 Z" stroke="none" fill="rgb(129,129,129)" />
<path d="M 21.5 21.5 L 22.0 21.666666666666668 L 23.0 22.333333333333332 L 24.0 23.0 L 25.0 23.666666666666668 L 26.0 24.333333333333332 L 27.0 25.0 L 28.0 25.666666666666668 L 29.0 26.333333333333332 L 30.0 26.666666666666668 L 31.0 27.0 L 32.0 27.0 L 33.0 27.0 L 34.0 27.0 L 35.0 27.0 L 36.0 27.333333333333332 L 37.0 27.666666666666668 L 38.0 28.0 L 39.0 28.0 L 40.0 28.0 L 41.0 28.0 L 42.0 28.0 L 43.0 28.0 L 44.0 28.0 L 45.0 28.0 L 45.666666666666664 27.666666666666668 L 45.666666666666664 27.0 L 45.0 26.333333333333332 L 44.0 26.0 L 43.0 26.0 L 42.0 26.0 L 41.0 26.0 L 40.0 25.666666666666668 L 39.0 25.333333333333332 L 38.0 25.0 L 37.0 24.666666666666668 L 36.0 24.333333333333332 L 35.0 24.0 L 34.0 23.666666666666668 L 33.0 23.333333333333332 L 32.0 22.666666666666668 L 31.0 22.333333333333332 L 30.0 21.666666666666668 L 29.0 21.0 L 28.0 20.0 L 27.0 19.333333333333332 L 26.0 18.666666666666668 L 25.0 18.0 L 24.0 17.0 L 23.333333333333332 16.0 L 22.666666666666668 15.333333333333334 L 22.0 15.0 L 21.0 15.333333333333334 L 20.333333333333332 16.0 L 19.666666666666668 17.0 L 19.333333333333332 18.0 L 19.333333333333332 19.0 L 20.0 20.0 L 20.5 20.5 Z" stroke="none" fill="rgb(84,84,84)" />
<path d="M 111.5 124.0 L 112.0 124.0 L 113.0 124.0 L 114.0 124.0 L 115.0 124.0 L 116.0 124.0 L 116.66666666666667 123.66666666666667 L 117.0 123.0 L 117.0 122.0 L 117.0 121.0 L 117.0 120.0 L 116.66666666666667 119.0 L 116.0 118.33333333333333 L 115.0 118.0 L 114.0 118.33333333333333 L 113.0 119.0 L 112.0 120.0 L 111.0 121.0 L 110.0 121.66666666666667 L 109.0 122.0 L 108.0 122.0 L 107.0 122.0 L 106.0 122.0 L 105.0 122.0 L 104.0 122.0 L 103.0 121.66666666666667 L 102.0 121.33333333333333 L 101.0 120.66666666666667 L 100.0 120.0 L 99.0 119.33333333333333 L 98.0 119.0 L 97.0 119.33333333333333 L 96.33333333333333 120.0 L 96.0 121.0 L 96.0 122.0 L 96.0 123.0 L 96.33333333333333 123.66666666666667 L 97.0 124.0 L 98.0 124.0 L 99.0 124.0 L 100.0 124.0 L 101.0 124.0 L 102.0 124.0 L 103.0 124.0 L 104.0 124.0 L 105.0 124.0 L 106.0 124.0 L 107.0 124.0 L 108.0 124.0 L 109.0 124.0 L 110.0 124.0 L 110.5 124.0 Z" stroke="none" fill="rgb(98,98,98)" />
<path d="M 52.5 105.0 L 53.0 105.0 L 54.0 105.0 L 55.0 105.0 L 55.666666666666664 104.66666666666667 L 56.0 104.0 L 56.0 103.0 L 56.0 102.0 L 56.0 101.0 L 56.0 100.0 L 56.0 99.0 L 56.0 98.0 L 56.0 97.0 L 55.666666666666664 96.33333333333333 L 55.0 96.0 L 54.0 96.0 L 53.0 96.0 L 52.0 96.0 L 51.0 96.0 L 50.0 96.0 L 49.0 96.0 L 48.0 96.0 L 47.0 96.0 L 46.0 96.0 L 45.0 96.0 L 44.333333333333336 96.33333333333333 L 44.0 97.0 L 44.0 98.0 L 44.0 99.0 L 44.0 100.0 L 44.0 101.0 L 44.0 102.0 L 44.0 103.0 L 44.333333333333336 104.0 L 45.0 104.66666666666667 L 46.0 105.0 L 47.0 105.0 L 48.0 105.0 L 49.0 105.0 L 50.0 105.0 L 51.0 105.0 L 51.5 105.0 Z" stroke="none" fill="rgb(229,150,0)" />
<path d="M 34.5 12.5 L 35.0 13.0 L 36.0 14.0 L 37.0 15.0 L 38.0 15.666666666666666 L 39.0 16.333333333333332 L 40.0 16.666666666666668 L 41.0 17.0 L 42.0 17.0 L 42.666666666666664 16.666666666666668 L 42.666666666666664 16.0 L 42.0 15.0 L 41.0 14.0 L 40.666666666666664 13.0 L 41.0 12.333333333333334 L 42.0 12.0 L 43.0 12.0 L 43.666666666666664 11.666666666666666 L 43.666666666666664 11.0 L 43.0 10.0 L 42.333333333333336 9.0 L 42.0 8.0 L 42.0 7.0 L 42.0 6.0 L 42.0 5.0 L 41.666666666666664 4.333333333333333 L 41.0 4.0 L 40.0 4.0 L 39.0 4.0 L 38.0 4.0 L 37.0 4.0 L 36.0 4.0 L 35.0 4.0 L 34.0 4.0 L 33.333333333333336 4.333333333333333 L 32.666666666666664 5.0 L 32.333333333333336 6.0 L 32.0 7.0 L 32.333333333333336 8.0 L 32.666666666666664 9.0 L 33.0 10.0 L 33.333333333333336 11.0 L 33.5 11.5 Z" stroke="none" fill="rgb(107,107,107)" />
<path d="M 78.5 117.0 L 79.0 117.0 L 80.0 117.0 L 81.0 117.0 L 82.0 117.0 L 83.0 117.0 L 84.0 117.0 L 85.0 117.0 L 86.0 117.0 L 87.0 117.0 L 88.0 117.0 L 89.0 117.0 L 90.0 117.0 L 91.0 117.0 L 92.0 117.0 L 93.0 117.0 L 94.0 117.0 L 95.0 117.33333333333333 L 95.66666666666667 118.0 L 96.0 119.0 L 96.33333333333333 119.66666666666667 L 97.0 119.66666666666667 L 98.0 119.33333333333333 L 98.66666666666667 118.66666666666667 L 99.0 118.0 L 99.0 117.0 L 98.66666666666667 116.0 L 98.33333333333333 115.0 L 97.66666666666667 114.33333333333333 L 97.0 114.0 L 96.0 114.0 L 95.0 114.0 L 94.0 114.0 L 93.0 114.0 L 92.0 114.0 L 91.0 114.0 L 90.0 114.0 L 89.0 114.0 L 88.0 114.0 L 87.0 114.0 L 86.0 114.0 L 85.0 114.0 L 84.0 114.0 L 83.0 114.0 L 82.0 114.0 L 81.0 114.0 L 80.0 114.0 L 79.0 114.0 L 78.0 114.0 L 77.0 114.0 L 76.0 114.0 L 75.0 114.0 L 74.0 114.0 L 73.0 114.0 L 72.0 114.0 L 71.33333333333333 114.33333333333333 L 71.0 115.0 L 71.0 116.0 L 71.33333333333333 116.66666666666667 L 72.0 117.0 L 73.0 117.0 L 74.0 117.0 L 75.0 117.0 L 76.0 117.0 L 77.0 117.0 L 77.5 117.0 Z" stroke="none" fill="rgb(84,84,84)" />
<path d="M 40.5 46.0 L 41.0 46.0 L 42.0 46.0 L 43.0 46.0 L 44.0 46.0 L 45.0 45.666666666666664 L 46.0 45.333333333333336 L 47.0 45.0 L 47.666666666666664 44.666666666666664 L 48.0 44.0 L 47.666666666666664 43.333333333333336 L 47.0 42.666666666666664 L 46.0 42.333333333333336 L 45.0 41.666666666666664 L 44.0 41.0 L 43.0 40.0 L 42.0 39.333333333333336 L 41.0 39.0 L 40.0 39.0 L 39.0 39.0 L 38.0 39.0 L 37.0 39.0 L 36.0 39.0 L 35.0 39.0 L 34.0 39.0 L 33.0 39.0 L 32.0 39.0 L 31.333333333333332 39.333333333333336 L 31.0 40.0 L 31.0 41.0 L 31.333333333333332 42.0 L 31.666666666666668 43.0 L 32.333333333333336 44.0 L 33.0 45.0 L 34.0 46.0 L 35.0 46.666666666666664 L 36.0 47.0 L 37.0 47.0 L 38.0 47.0 L 39.0 46.666666666666664 L 39.5 46.5 Z" stroke="none" fill="rgb(107,107,107)" />
<path d="M 91.0 63.5 L 91.33333333333333 63.0 L 91.66666666666667 62.0 L 92.0 61.0 L 92.0 60.0 L 92.0 59.0 L 92.0 58.0 L 92.33333333333333 57.0 L 92.66666666666667 56.0 L 92.66666666666667 55.0 L 92.33333333333333 54.0 L 91.66666666666667 53.0 L 91.33333333333333 52.0 L 91.0 51.0 L 91.0 50.0 L 91.0 49.0 L 90.66666666666667 48.0 L 90.0 47.0 L 89.0 46.0 L 88.0 45.333333333333336 L 87.0 45.0 L 86.33333333333333 45.333333333333336 L 86.0 46.0 L 86.0 47.0 L 86.0 48.0 L 86.0 49.0 L 86.0 50.0 L 86.0 51.0 L 86.0 52.0 L 86.0 53.0 L 86.0 54.0 L 86.0 55.0 L 86.0 56.0 L 86.33333333333333 57.0 L 87.0 58.0 L 87.66666666666667 59.0 L 88.0 60.0 L 88.0 61.0 L 88.0 62.0 L 88.0 63.0 L 88.0 64.0 L 88.0 65.0 L 88.0 66.0 L 88.33333333333333 66.66666666666667 L 89.0 67.0 L 89.66666666666667 66.66666666666667 L 90.0 66.0 L 90.33333333333333 65.0 L 90.5 64.5 Z" stroke="none" fill="rgb(241,241,241)" />
<path d="M 22.5 123.0 L 23.0 123.0 L 24.0 123.0 L 25.0 123.0 L 26.0 123.0 L 27.0 123.0 L 28.0 123.0 L 29.0 123.0 L 30.0 123.33333333333333 L 31.0 123.66666666666667 L 32.0 124.0 L 32.666666666666664 123.66666666666667 L 33.0 123.0 L 32.666666666666664 122.0 L 32.333333333333336 121.0 L 31.666666666666668 120.33333333333333 L 31.0 120.0 L 30.0 120.0 L 29.0 120.0 L 28.0 120.0 L 27.0 120.0 L 26.0 120.0 L 25.0 120.0 L 24.0 120.0 L 23.0 120.0 L 22.0 120.0 L 21.0 120.0 L 20.0 120.0 L 19.0 120.0 L 18.0 120.0 L 17.0 120.0 L 16.0 120.0 L 15.0 120.0 L 14.0 120.0 L 13.0 120.0 L 12.0 120.0 L 11.0 120.0 L 10.0 120.0 L 9.0 120.0 L 8.0 120.0 L 7.0 120.0 L 6.0 120.0 L 5.0 120.0 L 4.333333333333333 120.33333333333333 L 4.0 121.0 L 4.0 122.0 L 4.333333333333333 122.66666666666667 L 5.0 123.0 L 6.0 123.0 L 7.0 123.0 L 8.0 123.0 L 9.0 123.0 L 10.0 123.0 L 11.0 123.0 L 12.0 123.0 L 13.0 123.0 L 14.0 123.0 L 15.0 123.0 L 16.0 123.0 L 17.0 123.0 L 18.0 123.0 L 19.0 123.0 L 20.0 123.0 L 21.0 123.0 L 21.5 123.0 Z" stroke="none" fill="rgb(72,71,71)" />
<path d="M 64.5 12.5 L 65.0 12.0 L 65.66666666666667 11.0 L 66.0 10.0 L 66.33333333333333 9.0 L 66.66666666666667 8.0 L 67.0 7.0 L 67.0 6.0 L 66.66666666666667 5.0 L 66.0 4.333333333333333 L 65.0 4.0 L 64.0 4.0 L 63.0 4.0 L 62.0 3.6666666666666665 L 61.0 3.3333333333333335 L 60.0 3.0 L 59.0 3.3333333333333335 L 58.0 3.6666666666666665 L 57.333333333333336 4.333333333333333 L 57.0 5.0 L 57.0 6.0 L 57.0 7.0 L 57.0 8.0 L 57.0 9.0 L 57.333333333333336 9.666666666666666 L 58.0 10.0 L 59.0 10.333333333333334 L 59.666666666666664 11.0 L 59.666666666666664 12.0 L 59.0 13.0 L 58.0 14.0 L 57.0 15.0 L 56.0 15.666666666666666 L 55.333333333333336 16.333333333333332 L 55.333333333333336 16.666666666666668 L 56.0 17.0 L 57.0 17.0 L 58.0 17.0 L 59.0 16.666666666666668 L 60.0 16.333333333333332 L 61.0 15.666666666666666 L 62.0 15.0 L 63.0 14.0 L 63.5 13.5 Z" stroke="none" fill="rgb(107,107,107)" />
<path d="M 61.5 53.0 L 62.0 52.666666666666664 L 63.0 52.333333333333336 L 64.0 52.0 L 65.0 52.0 L 66.0 52.0 L 67.0 52.0 L 68.0 52.0 L 69.0 52.0 L 70.0 52.0 L 71.0 52.333333333333336 L 72.0 52.666666666666664 L 73.0 53.0 L 74.0 53.0 L 75.0 52.666666666666664 L 75.66666666666667 52.0 L 76.0 51.0 L 75.66666666666667 50.0 L 75.0 49.333333333333336 L 74.0 48.666666666666664 L 73.0 48.0 L 72.0 47.333333333333336 L 71.0 47.0 L 70.0 47.0 L 69.0 47.0 L 68.0 47.0 L 67.0 47.0 L 66.0 47.0 L 65.0 47.0 L 64.0 47.0 L 63.0 47.333333333333336 L 62.0 47.666666666666664 L 61.0 48.0 L 60.0 48.333333333333336 L 59.0 49.0 L 58.333333333333336 50.0 L 58.0 51.0 L 58.333333333333336 52.0 L 59.0 52.666666666666664 L 60.0 53.0 L 60.5 53.0 Z" stroke="none" fill="rgb(187,177,172)" />
<path d="M 17.5 120.0 L 18.0 120.0 L 19.0 120.0 L 20.0 120.0 L 21.0 120.0 L 22.0 120.0 L 23.0 120.0 L 24.0 120.0 L 25.0 120.0 L 26.0 120.0 L 27.0 120.0 L 28.0 120.0 L 29.0 120.0 L 30.0 120.0 L 30.666666666666668 119.66666666666667 L 31.0 119.0 L 30.666666666666668 118.0 L 30.0 117.33333333333333 L 29.0 117.0 L 28.0 117.0 L 27.0 117.0 L 26.0 117.0 L 25.0 117.0 L 24.0 117.0 L 23.0 117.0 L 22.0 117.0 L 21.0 117.0 L 20.0 117.0 L 19.0 117.0 L 18.0 117.0 L 17.0 117.0 L 16.0 117.0 L 15.0 117.0 L 14.0 117.0 L 13.0 117.0 L 12.0 117.0 L 11.0 117.0 L 10.0 117.0 L 9.0 117.0 L 8.0 117.0 L 7.0 117.0 L 6.0 117.0 L 5.0 117.0 L 4.333333333333333 117.33333333333333 L 4.0 118.0 L 4.0 119.0 L 4.333333333333333 119.66666666666667 L 5.0 120.0 L 6.0 120.0 L 7.0 120.0 L 8.0 120.0 L 9.0 120.0 L 10.0 120.0 L 11.0 120.0 L 12.0 120.0 L 13.0 120.0 L 14.0 120.0 L 15.0 120.0 L 16.0 120.0 L 16.5 120.0 Z" stroke="none" fill="rgb(79,79,79)" />
<path d="M 95.5 120.0 L 95.66666666666667 119.66666666666667 L 96.0 119.0 L 96.0 118.0 L 95.66666666666667 117.33333333333333 L 95.0 117.0 L 94.0 117.0 L 93.0 117.0 L 92.0 117.0 L 91.0 117.0 L 90.0 117.0 L 89.0 117.0 L 88.0 117.0 L 87.0 117.0 L 86.0 117.0 L 85.0 117.0 L 84.0 117.0 L 83.0 117.0 L 82.0 117.0 L 81.0 117.0 L 80.0 117.0 L 79.0 117.0 L 78.0 117.0 L 77.0 117.0 L 76.0 117.0 L 75.0 117.0 L 74.0 117.0 L 73.0 117.0 L 72.0 117.0 L 71.0 117.0 L 70.0 117.33333333333333 L 69.33333333333333 118.0 L 69.0 119.0 L 69.33333333333333 119.66666666666667 L 70.0 120.0 L 71.0 120.0 L 72.0 120.0 L 73.0 120.0 L 74.0 120.0 L 75.0 120.0 L 76.0 120.0 L 77.0 120.0 L 78.0 120.0 L 79.0 120.0 L 80.0 120.0 L 81.0 120.0 L 82.0 120.0 L 83.0 120.0 L 84.0 120.0 L 85.0 120.0 L 86.0 120.0 L 87.0 120.0 L 88.0 120.0 L 89.0 120.0 L 90.0 120.0 L 91.0 120.0 L 92.0 120.0 L 93.0 120.0 L 94.0 120.0 L 94.5 120.0 Z" stroke="none" fill="rgb(79,79,79)" />
<path d="M 40.5 53.0 L 41.0 52.666666666666664 L 41.666666666666664 52.0 L 42.0 51.0 L 41.666666666666664 50.0 L 41.0 49.0 L 40.0 48.0 L 39.0 47.333333333333336 L 38.0 47.0 L 37.0 47.0 L 36.0 46.666666666666664 L 35.0 46.333333333333336 L 34.0 46.333333333333336 L 33.0 46.666666666666664 L 32.0 47.0 L 31.0 47.333333333333336 L 30.0 48.0 L 29.0 48.666666666666664 L 28.0 49.333333333333336 L 27.333333333333332 50.0 L 27.0 51.0 L 27.0 52.0 L 27.333333333333332 52.666666666666664 L 28.0 53.0 L 29.0 53.0 L 30.0 53.333333333333336 L 30.666666666666668 54.0 L 31.333333333333332 54.666666666666664 L 32.0 54.666666666666664 L 33.0 54.333333333333336 L 34.0 54.0 L 35.0 54.0 L 36.0 54.0 L 37.0 54.0 L 38.0 53.666666666666664 L 39.0 53.333333333333336 L 39.5 53.0 Z" stroke="none" fill="rgb(100,71,60)" />
<path d="M 10.5 40.5 L 11.0 40.666666666666664 L 12.0 41.0 L 13.0 41.0 L 14.0 41.0 L 14.666666666666666 40.666666666666664 L 15.0 40.0 L 15.0 39.0 L 15.0 38.0 L 14.666666666666666 37.0 L 14.333333333333334 36.0 L 14.0 35.0 L 14.333333333333334 34.0 L 15.0 33.333333333333336 L 15.666666666666666 32.666666666666664 L 16.0 32.0 L 16.0 31.0 L 16.0 30.0 L 16.0 29.0 L 15.666666666666666 28.0 L 15.0 27.333333333333332 L 14.0 27.333333333333332 L 13.0 27.666666666666668 L 12.0 28.0 L 11.0 28.333333333333332 L 10.0 28.666666666666668 L 9.333333333333334 29.333333333333332 L 9.0 30.0 L 8.666666666666666 31.0 L 8.333333333333334 32.0 L 8.0 33.0 L 8.0 34.0 L 8.0 35.0 L 8.0 36.0 L 8.0 37.0 L 8.0 38.0 L 8.0 39.0 L 8.333333333333334 39.666666666666664 L 9.0 40.0 L 9.5 40.0 Z" stroke="none" fill="rgb(84,84,84)" />
<path d="M 66.5 113.0 L 67.0 113.0 L 68.0 113.0 L 69.0 113.0 L 70.0 113.0 L 71.0 112.66666666666667 L 71.66666666666667 112.0 L 72.0 111.0 L 72.0 110.0 L 72.0 109.0 L 71.66666666666667 108.33333333333333 L 71.0 108.0 L 70.0 108.0 L 69.0 108.0 L 68.0 108.0 L 67.0 108.0 L 66.0 108.0 L 65.0 108.0 L 64.0 108.0 L 63.0 108.0 L 62.0 108.0 L 61.0 108.0 L 60.0 108.0 L 59.0 108.0 L 58.0 108.0 L 57.0 108.0 L 56.0 108.0 L 55.333333333333336 108.33333333333333 L 55.0 109.0 L 55.0 110.0 L 55.0 111.0 L 55.0 112.0 L 55.333333333333336 112.66666666666667 L 56.0 113.0 L 57.0 113.0 L 58.0 113.0 L 59.0 113.0 L 60.0 113.0 L 61.0 113.0 L 62.0 113.0 L 63.0 113.0 L 64.0 113.0 L 65.0 113.0 L 65.5 113.0 Z" stroke="none" fill="rgb(107,107,107)" />
<path d="M 24.5 117.0 L 25.0 117.0 L 26.0 117.0 L 27.0 117.0 L 28.0 117.0 L 29.0 117.0 L 29.666666666666668 116.66666666666667 L 30.0 116.0 L 29.666666666666668 115.0 L 29.0 114.33333333333333 L 28.0 114.0 L 27.0 114.0 L 26.0 114.0 L 25.0 114.0 L 24.0 114.0 L 23.0 114.0 L 22.0 114.0 L 21.0 114.0 L 20.0 114.0 L 19.0 114.0 L 18.0 114.0 L 17.0 114.0 L 16.0 114.0 L 15.0 114.0 L 14.0 114.0 L 13.0 114.0 L 12.0 114.0 L 11.0 114.0 L 10.0 114.0 L 9.0 114.0 L 8.0 114.0 L 7.0 114.0 L 6.0 114.0 L 5.0 114.0 L 4.333333333333333 114.33333333333333 L 4.0 115.0 L 4.0 116.0 L 4.333333333333333 116.66666666666667 L 5.0 117.0 L 6.0 117.0 L 7.0 117.0 L 8.0 117.0 L 9.0 117.0 L 10.0 117.0 L 11.0 117.0 L 12.0 117.0 L 13.0 117.0 L 14.0 117.0 L 15.0 117.0 L 16.0 117.0 L 17.0 117.0 L 18.0 117.0 L 19.0 117.0 L 20.0 117.0 L 21.0 117.0 L 22.0 117.0 L 23.0 117.0 L 23.5 117.0 Z" stroke="none" fill="rgb(84,84,84)" />
<path d="M 36.5 113.0 L 37.0 113.0 L 38.0 113.0 L 39.0 113.0 L 40.0 113.0 L 41.0 113.0 L 42.0 113.0 L 43.0 113.0 L 44.0 113.0 L 44.666666666666664 112.66666666666667 L 45.0 112.0 L 45.0 111.0 L 45.0 110.0 L 45.0 109.0 L 44.666666666666664 108.33333333333333 L 44.0 108.0 L 43.0 108.0 L 42.0 108.0 L 41.0 108.0 L 40.0 108.0 L 39.0 108.0 L 38.0 108.0 L 37.0 108.0 L 36.0 108.0 L 35.0 108.0 L 34.0 108.0 L 33.0 108.0 L 32.0 108.0 L 31.0 108.0 L 30.0 108.0 L 29.0 108.0 L 28.333333333333332 108.33333333333333 L 28.0 109.0 L 28.0 110.0 L 28.333333333333332 111.0 L 28.666666666666668 112.0 L 29.333333333333332 112.66666666666667 L 30.0 113.0 L 31.0 113.0 L 32.0 113.0 L 33.0 113.0 L 34.0 113.0 L 35.0 113.0 L 35.5 113.0 Z" stroke="none" fill="rgb(107,107,107)" />
<path d="M 35.5 64.0 L 36.0 63.666666666666664 L 37.0 63.0 L 38.0 62.0 L 38.666666666666664 61.0 L 39.0 60.0 L 39.0 59.0 L 39.0 58.0 L 39.0 57.0 L 38.666666666666664 56.0 L 38.333333333333336 55.0 L 37.666666666666664 54.333333333333336 L 37.0 54.0 L 36.0 54.0 L 35.0 54.0 L 34.0 54.0 L 33.0 54.0 L 32.0 54.333333333333336 L 31.0 55.0 L 30.333333333333332 56.0 L 30.0 57.0 L 30.0 58.0 L 30.0 59.0 L 30.0 60.0 L 30.0 61.0 L 30.333333333333332 62.0 L 31.0 62.666666666666664 L 32.0 63.333333333333336 L 33.0 63.666666666666664 L 34.0 64.0 L 34.5 64.0 Z" stroke="none" fill="rgb(64,64,66)" />
<path d="M 23.5 43.5 L 24.0 43.666666666666664 L 25.0 44.333333333333336 L 26.0 44.666666666666664 L 27.0 45.0 L 28.0 45.0 L 29.0 45.0 L 30.0 45.333333333333336 L 31.0 46.0 L 32.0 46.666666666666664 L 33.0 47.0 L 33.666666666666664 46.666666666666664 L 34.0 46.0 L 33.666666666666664 45.0 L 33.0 44.0 L 32.333333333333336 43.0 L 31.666666666666668 42.0 L 31.333333333333332 41.0 L 31.0 40.0 L 30.666666666666668 39.0 L 30.0 38.0 L 29.0 37.333333333333336 L 28.0 37.0 L 27.0 37.0 L 26.0 37.0 L 25.0 37.0 L 24.0 37.0 L 23.0 37.0 L 22.333333333333332 37.333333333333336 L 22.0 38.0 L 22.0 39.0 L 22.0 40.0 L 22.333333333333332 41.0 L 22.666666666666668 42.0 L 23.0 42.5 Z" stroke="none" fill="rgb(98,98,98)" />
<path d="M 24.5 91.5 L 25.0 91.66666666666667 L 26.0 92.33333333333333 L 27.0 92.66666666666667 L 28.0 93.0 L 29.0 93.33333333333333 L 30.0 93.66666666666667 L 31.0 94.0 L 32.0 94.0 L 33.0 94.0 L 34.0 94.0 L 35.0 94.0 L 35.666666666666664 93.66666666666667 L 35.666666666666664 93.0 L 35.0 92.33333333333333 L 34.0 91.66666666666667 L 33.0 91.33333333333333 L 32.0 90.66666666666667 L 31.0 90.0 L 30.0 89.0 L 29.0 88.0 L 28.0 87.0 L 27.0 86.0 L 26.0 85.0 L 25.0 84.33333333333333 L 24.0 84.33333333333333 L 23.0 84.66666666666667 L 22.0 85.33333333333333 L 21.333333333333332 86.0 L 21.0 87.0 L 21.0 88.0 L 21.0 89.0 L 21.333333333333332 90.0 L 22.0 90.66666666666667 L 23.0 91.0 L 23.5 91.0 Z" stroke="none" fill="rgb(64,64,66)" />
<path d="M 75.5 92.0 L 76.0 91.66666666666667 L 77.0 91.33333333333333 L 78.0 91.0 L 78.66666666666667 90.66666666666667 L 79.0 90.0 L 79.0 89.0 L 79.0 88.0 L 79.0 87.0 L 78.66666666666667 86.0 L 78.0 85.0 L 77.0 84.33333333333333 L 76.0 84.0 L 75.0 84.33333333333333 L 74.0 85.0 L 73.0 86.0 L 72.0 87.0 L 71.0 88.0 L 70.0 89.0 L 69.0 90.0 L 68.0 91.0 L 67.0 91.66666666666667 L 66.33333333333333 92.33333333333333 L 66.0 93.0 L 66.33333333333333 93.66666666666667 L 67.0 94.0 L 68.0 94.0 L 69.0 94.0 L 70.0 94.0 L 71.0 94.0 L 72.0 93.66666666666667 L 73.0 93.33333333333333 L 74.0 92.66666666666667 L 74.5 92.5 Z" stroke="none" fill="rgb(64,64,66)" />
<path d="M 53.5 49.5 L 54.0 50.0 L 55.0 50.666666666666664 L 55.666666666666664 50.666666666666664 L 56.333333333333336 50.0 L 56.666666666666664 49.0 L 57.333333333333336 48.0 L 58.0 47.0 L 59.0 46.333333333333336 L 60.0 46.0 L 60.666666666666664 45.666666666666664 L 61.0 45.0 L 61.0 44.0 L 61.0 43.0 L 60.666666666666664 42.0 L 60.0 41.0 L 59.333333333333336 40.0 L 58.666666666666664 39.333333333333336 L 58.0 39.0 L 57.0 39.333333333333336 L 56.0 39.666666666666664 L 55.0 40.333333333333336 L 54.0 41.0 L 53.333333333333336 42.0 L 52.666666666666664 43.0 L 52.0 44.0 L 51.333333333333336 45.0 L 51.0 46.0 L 51.0 47.0 L 51.333333333333336 47.666666666666664 L 52.0 48.333333333333336 L 52.5 48.5 Z" stroke="none" fill="rgb(209,209,209)" />
<path d="M 91.5 39.0 L 91.66666666666667 38.666666666666664 L 92.0 38.0 L 92.0 37.0 L 92.0 36.0 L 92.0 35.0 L 92.0 34.0 L 92.0 33.0 L 92.0 32.0 L 91.66666666666667 31.0 L 91.33333333333333 30.0 L 91.0 29.0 L 90.66666666666667 28.333333333333332 L 90.0 28.0 L 89.0 27.666666666666668 L 88.0 27.333333333333332 L 87.0 27.0 L 86.0 27.0 L 85.33333333333333 27.333333333333332 L 85.0 28.0 L 85.0 29.0 L 85.0 30.0 L 85.0 31.0 L 85.0 32.0 L 85.0 33.0 L 85.0 34.0 L 85.33333333333333 35.0 L 86.0 36.0 L 87.0 37.0 L 88.0 38.0 L 89.0 38.666666666666664 L 90.0 39.0 L 90.5 39.0 Z" stroke="none" fill="rgb(84,84,84)" />
<path d="M 91.5 48.0 L 92.0 47.666666666666664 L 93.0 47.0 L 94.0 46.0 L 94.66666666666667 45.0 L 95.0 44.0 L 94.66666666666667 43.0 L 94.33333333333333 42.0 L 93.66666666666667 41.0 L 93.0 40.0 L 92.0 39.333333333333336 L 91.0 39.0 L 90.0 38.666666666666664 L 89.0 38.0 L 88.0 37.333333333333336 L 87.0 37.333333333333336 L 86.33333333333333 38.0 L 85.66666666666667 39.0 L 85.33333333333333 40.0 L 85.0 41.0 L 85.0 42.0 L 85.33333333333333 43.0 L 86.0 44.0 L 87.0 45.0 L 88.0 46.0 L 89.0 47.0 L 90.0 47.666666666666664 L 90.5 48.0 Z" stroke="none" fill="rgb(209,209,209)" />
<path d="M 61.5 117.0 L 62.0 117.0 L 63.0 117.0 L 64.0 117.0 L 65.0 117.0 L 66.0 117.0 L 67.0 117.0 L 68.0 117.33333333333333 L 69.0 117.66666666666667 L 70.0 117.66666666666667 L 70.66666666666667 117.0 L 71.0 116.0 L 71.0 115.0 L 71.0 114.0 L 70.66666666666667 113.33333333333333 L 70.0 113.0 L 69.0 113.0 L 68.0 113.0 L 67.0 113.0 L 66.0 113.0 L 65.0 113.0 L 64.0 113.0 L 63.0 113.0 L 62.0 113.0 L 61.0 113.0 L 60.0 113.0 L 59.0 113.0 L 58.0 113.0 L 57.0 113.0 L 56.0 113.0 L 55.333333333333336 113.33333333333333 L 55.0 114.0 L 55.0 115.0 L 55.0 116.0 L 55.333333333333336 116.66666666666667 L 56.0 117.0 L 57.0 117.0 L 58.0 117.0 L 59.0 117.0 L 60.0 117.0 L 60.5 117.0 Z" stroke="none" fill="rgb(98,98,98)" />
<path d="M 53.5 65.5 L 54.0 65.66666666666667 L 55.0 66.33333333333333 L 56.0 66.66666666666667 L 57.0 67.0 L 57.666666666666664 66.66666666666667 L 58.0 66.0 L 57.666666666666664 65.0 L 57.333333333333336 64.0 L 56.666666666666664 63.0 L 56.333333333333336 62.0 L 55.666666666666664 61.0 L 55.333333333333336 60.0 L 55.0 59.0 L 54.666666666666664 58.0 L 54.0 57.0 L 53.0 56.0 L 52.0 55.0 L 51.0 54.333333333333336 L 50.0 54.0 L 49.333333333333336 54.333333333333336 L 49.0 55.0 L 49.0 56.0 L 49.0 57.0 L 49.0 58.0 L 49.0 59.0 L 49.0 60.0 L 49.0 61.0 L 49.333333333333336 62.0 L 50.0 63.0 L 50.666666666666664 64.0 L 51.333333333333336 64.66666666666667 L 52.0 65.0 L 52.5 65.0 Z" stroke="none" fill="rgb(188,188,188)" />
<path d="M 18.0 71.5 L 18.0 71.0 L 18.0 70.0 L 18.0 69.0 L 17.666666666666668 68.0 L 17.333333333333332 67.0 L 17.0 66.0 L 17.0 65.0 L 17.0 64.0 L 17.0 63.0 L 16.666666666666668 62.0 L 16.333333333333332 61.0 L 16.0 60.0 L 15.666666666666666 59.0 L 15.333333333333334 58.0 L 14.666666666666666 57.0 L 14.0 56.333333333333336 L 13.0 56.0 L 12.333333333333334 56.333333333333336 L 12.0 57.0 L 12.0 58.0 L 12.0 59.0 L 12.0 60.0 L 12.0 61.0 L 12.0 62.0 L 12.0 63.0 L 12.0 64.0 L 12.0 65.0 L 12.0 66.0 L 12.333333333333334 67.0 L 12.666666666666666 68.0 L 13.333333333333334 69.0 L 14.0 70.0 L 15.0 71.0 L 16.0 71.66666666666667 L 17.0 72.0 L 17.5 72.0 Z" stroke="none" fill="rgb(229,150,0)" />
<path d="M 87.5 69.5 L 88.0 69.0 L 88.66666666666667 68.0 L 88.66666666666667 67.0 L 88.33333333333333 66.0 L 88.0 65.0 L 88.0 64.0 L 88.0 63.0 L 88.0 62.0 L 88.0 61.0 L 88.0 60.0 L 88.0 59.0 L 87.66666666666667 58.0 L 87.0 57.333333333333336 L 86.0 57.0 L 85.33333333333333 57.333333333333336 L 85.0 58.0 L 85.0 59.0 L 84.66666666666667 60.0 L 84.33333333333333 61.0 L 83.66666666666667 62.0 L 83.33333333333333 63.0 L 83.0 64.0 L 83.0 65.0 L 83.0 66.0 L 82.66666666666667 67.0 L 82.33333333333333 68.0 L 82.0 69.0 L 82.0 70.0 L 82.33333333333333 71.0 L 83.0 71.66666666666667 L 84.0 72.0 L 85.0 71.66666666666667 L 86.0 71.0 L 86.5 70.5 Z" stroke="none" fill="rgb(234,204,145)" />
<path d="M 76.5 81.5 L 77.0 81.66666666666667 L 78.0 81.66666666666667 L 79.0 81.33333333333333 L 80.0 81.0 L 81.0 80.66666666666667 L 82.0 80.33333333333333 L 83.0 80.0 L 84.0 79.66666666666667 L 85.0 79.33333333333333 L 85.66666666666667 78.66666666666667 L 85.66666666666667 78.0 L 85.0 77.33333333333333 L 84.0 77.0 L 83.0 77.0 L 82.0 77.0 L 81.0 77.33333333333333 L 80.0 77.66666666666667 L 79.0 78.0 L 78.0 78.0 L 77.0 78.0 L 76.0 78.0 L 75.0 78.0 L 74.0 78.0 L 73.0 78.0 L 72.0 78.0 L 71.0 78.0 L 70.0 78.0 L 69.0 78.0 L 68.0 78.0 L 67.0 78.0 L 66.0 78.0 L 65.33333333333333 78.33333333333333 L 65.0 79.0 L 65.33333333333333 79.66666666666667 L 66.0 80.0 L 67.0 80.33333333333333 L 68.0 80.66666666666667 L 69.0 81.0 L 70.0 81.0 L 71.0 81.0 L 72.0 81.0 L 73.0 81.0 L 74.0 81.0 L 75.0 81.0 L 75.5 81.0 Z" stroke="none" fill="rgb(159,159,158)" />
<path d="M 96.5 61.5 L 97.0 61.333333333333336 L 97.66666666666667 60.666666666666664 L 98.0 60.0 L 98.0 59.0 L 98.0 58.0 L 98.0 57.0 L 98.0 56.0 L 98.0 55.0 L 98.0 54.0 L 98.0 53.0 L 98.0 52.0 L 97.66666666666667 51.333333333333336 L 97.0 51.0 L 96.33333333333333 51.333333333333336 L 95.66666666666667 52.0 L 95.0 53.0 L 94.0 54.0 L 93.0 55.0 L 92.33333333333333 56.0 L 92.0 57.0 L 92.0 58.0 L 92.0 59.0 L 92.0 60.0 L 91.66666666666667 61.0 L 91.33333333333333 62.0 L 90.66666666666667 63.0 L 90.33333333333333 64.0 L 90.0 65.0 L 90.33333333333333 65.66666666666667 L 91.0 65.66666666666667 L 92.0 65.0 L 93.0 64.33333333333333 L 94.0 63.666666666666664 L 95.0 63.0 L 95.5 62.5 Z" stroke="none" fill="rgb(188,188,188)" />
<path d="M 16.5 41.5 L 17.0 41.666666666666664 L 18.0 42.0 L 19.0 42.333333333333336 L 20.0 42.666666666666664 L 21.0 43.333333333333336 L 22.0 43.666666666666664 L 23.0 44.0 L 23.666666666666668 43.666666666666664 L 23.666666666666668 43.0 L 23.333333333333332 42.0 L 22.666666666666668 41.0 L 22.333333333333332 40.0 L 22.0 39.0 L 22.0 38.0 L 22.0 37.0 L 21.666666666666668 36.0 L 21.0 35.333333333333336 L 20.0 35.0 L 19.0 34.666666666666664 L 18.0 34.0 L 17.0 33.333333333333336 L 16.0 33.0 L 15.0 33.0 L 14.333333333333334 33.333333333333336 L 14.0 34.0 L 14.0 35.0 L 14.0 36.0 L 14.333333333333334 37.0 L 14.666666666666666 38.0 L 15.0 39.0 L 15.0 40.0 L 15.333333333333334 40.666666666666664 L 15.5 41.0 Z" stroke="none" fill="rgb(91,91,91)" />
<path d="M 43.5 117.0 L 44.0 117.0 L 44.666666666666664 116.66666666666667 L 45.0 116.0 L 45.0 115.0 L 45.0 114.0 L 44.666666666666664 113.33333333333333 L 44.0 113.0 L 43.0 113.0 L 42.0 113.0 L 41.0 113.0 L 40.0 113.0 L 39.0 113.0 L 38.0 113.0 L 37.0 113.0 L 36.0 113.0 L 35.0 113.0 L 34.0 113.0 L 33.0 113.0 L 32.0 113.0 L 31.0 113.0 L 30.0 113.0 L 29.333333333333332 113.33333333333333 L 29.0 114.0 L 29.333333333333332 115.0 L 29.666666666666668 116.0 L 30.333333333333332 116.66666666666667 L 31.0 117.0 L 32.0 117.0 L 33.0 117.0 L 34.0 117.0 L 35.0 117.0 L 36.0 117.0 L 37.0 117.0 L 38.0 117.0 L 39.0 117.0 L 40.0 117.0 L 41.0 117.0 L 42.0 117.0 L 42.5 117.0 Z" stroke="none" fill="rgb(98,98,98)" />
<path d="M 113.5 110.0 L 114.0 110.33333333333333 L 114.66666666666667 111.0 L 115.0 112.0 L 115.33333333333333 112.66666666666667 L 116.0 113.0 L 117.0 113.0 L 118.0 113.0 L 119.0 113.0 L 120.0 113.0 L 121.0 112.66666666666667 L 122.0 112.0 L 123.0 111.0 L 123.66666666666667 110.0 L 124.0 109.0 L 123.66666666666667 108.0 L 123.0 107.33333333333333 L 122.0 107.0 L 121.0 107.33333333333333 L 120.0 107.33333333333333 L 119.33333333333333 107.0 L 118.66666666666667 106.33333333333333 L 118.0 106.0 L 117.0 106.0 L 116.0 106.0 L 115.0 106.0 L 114.0 106.33333333333333 L 113.0 107.0 L 112.33333333333333 108.0 L 112.0 109.0 L 112.33333333333333 109.66666666666667 L 112.5 110.0 Z" stroke="none" fill="rgb(255,202,39)" />
<path d="M 87.5 84.5 L 87.66666666666667 85.0 L 88.33333333333333 85.66666666666667 L 89.0 86.0 L 90.0 86.0 L 91.0 85.66666666666667 L 92.0 85.0 L 93.0 84.33333333333333 L 94.0 83.66666666666667 L 95.0 83.0 L 96.0 82.0 L 97.0 81.0 L 97.66666666666667 80.0 L 98.0 79.0 L 97.66666666666667 78.0 L 97.0 77.33333333333333 L 96.0 77.0 L 95.0 77.0 L 94.0 77.33333333333333 L 93.0 78.0 L 92.0 79.0 L 91.0 80.0 L 90.0 80.66666666666667 L 89.0 81.0 L 88.0 81.33333333333333 L 87.33333333333333 82.0 L 87.0 83.0 L 87.0 83.5 Z" stroke="none" fill="rgb(172,171,171)" />
<path d="M 101.5 121.5 L 102.0 121.66666666666667 L 103.0 122.0 L 104.0 122.0 L 105.0 122.0 L 106.0 122.0 L 107.0 122.0 L 108.0 122.0 L 109.0 122.0 L 110.0 122.0 L 111.0 121.66666666666667 L 112.0 121.0 L 113.0 120.0 L 113.66666666666667 119.0 L 113.66666666666667 118.33333333333333 L 113.0 118.0 L 112.0 118.33333333333333 L 111.0 118.66666666666667 L 110.0 119.0 L 109.0 119.0 L 108.0 119.0 L 107.0 119.0 L 106.0 119.0 L 105.0 119.0 L 104.0 119.0 L 103.0 118.66666666666667 L 102.0 118.33333333333333 L 101.0 117.66666666666667 L 100.0 117.33333333333333 L 99.33333333333333 117.33333333333333 L 99.0 118.0 L 99.33333333333333 119.0 L 99.66666666666667 120.0 L 100.33333333333333 120.66666666666667 L 100.5 121.0 Z" stroke="none" fill="rgb(64,64,66)" />
<path d="M 111.5 106.0 L 112.0 106.0 L 113.0 105.66666666666667 L 113.66666666666667 105.0 L 114.0 104.0 L 113.66666666666667 103.0 L 113.0 102.0 L 112.0 101.33333333333333 L 111.0 100.66666666666667 L 110.33333333333333 100.0 L 110.0 99.0 L 110.0 98.0 L 110.0 97.0 L 110.0 96.0 L 109.66666666666667 95.33333333333333 L 109.0 95.0 L 108.0 95.33333333333333 L 107.0 96.0 L 106.0 97.0 L 105.33333333333333 98.0 L 105.0 99.0 L 105.0 100.0 L 105.33333333333333 100.66666666666667 L 106.0 101.0 L 107.0 101.0 L 108.0 101.33333333333333 L 108.66666666666667 102.0 L 108.66666666666667 103.0 L 108.33333333333333 104.0 L 108.33333333333333 105.0 L 109.0 105.66666666666667 L 110.0 106.0 L 110.5 106.0 Z" stroke="none" fill="rgb(255,202,39)" />
<path d="M 40.5 120.0 L 41.0 120.0 L 42.0 120.0 L 43.0 120.0 L 44.0 120.0 L 45.0 120.0 L 45.666666666666664 119.66666666666667 L 46.0 119.0 L 46.0 118.0 L 45.666666666666664 117.33333333333333 L 45.0 117.0 L 44.0 117.0 L 43.0 117.0 L 42.0 117.0 L 41.0 117.0 L 40.0 117.0 L 39.0 117.0 L 38.0 117.0 L 37.0 117.0 L 36.0 117.0 L 35.0 117.0 L 34.0 117.0 L 33.0 117.0 L 32.0 117.0 L 31.0 117.0 L 30.333333333333332 117.33333333333333 L 30.333333333333332 118.0 L 30.666666666666668 119.0 L 31.333333333333332 119.66666666666667 L 32.0 120.0 L 33.0 120.0 L 34.0 120.0 L 35.0 120.0 L 36.0 120.0 L 37.0 120.0 L 38.0 120.0 L 39.0 120.0 L 39.5 120.0 Z" stroke="none" fill="rgb(91,91,91)" />
<path d="M 80.5 24.5 L 81.0 24.0 L 81.66666666666667 23.0 L 82.0 22.0 L 81.66666666666667 21.0 L 81.33333333333333 20.0 L 80.66666666666667 19.333333333333332 L 80.0 19.0 L 79.0 19.333333333333332 L 78.0 20.0 L 77.0 21.0 L 76.0 21.666666666666668 L 75.0 22.333333333333332 L 74.0 23.0 L 73.0 23.666666666666668 L 72.0 24.333333333333332 L 71.0 24.666666666666668 L 70.33333333333333 25.333333333333332 L 70.0 26.0 L 70.33333333333333 26.666666666666668 L 71.0 27.0 L 72.0 27.0 L 73.0 27.0 L 74.0 26.666666666666668 L 75.0 26.333333333333332 L 76.0 26.0 L 77.0 25.666666666666668 L 78.0 25.333333333333332 L 79.0 25.0 L 79.5 25.0 Z" stroke="none" fill="rgb(79,79,79)" />
<path d="M 62.5 120.0 L 63.0 120.0 L 64.0 120.0 L 65.0 120.0 L 66.0 120.0 L 67.0 120.0 L 68.0 120.0 L 68.66666666666667 119.66666666666667 L 69.0 119.0 L 69.0 118.0 L 68.66666666666667 117.33333333333333 L 68.0 117.0 L 67.0 117.0 L 66.0 117.0 L 65.0 117.0 L 64.0 117.0 L 63.0 117.0 L 62.0 117.0 L 61.0 117.0 L 60.0 117.0 L 59.0 117.0 L 58.0 117.0 L 57.0 117.0 L 56.0 117.0 L 55.0 117.0 L 54.333333333333336 117.33333333333333 L 54.0 118.0 L 54.0 119.0 L 54.333333333333336 119.66666666666667 L 55.0 120.0 L 56.0 120.0 L 57.0 120.0 L 58.0 120.0 L 59.0 120.0 L 60.0 120.0 L 61.0 120.0 L 61.5 120.0 Z" stroke="none" fill="rgb(91,91,91)" />
<path d="M 94.5 54.5 L 95.0 54.0 L 95.66666666666667 53.0 L 96.33333333333333 52.0 L 96.66666666666667 51.0 L 97.0 50.0 L 97.0 49.0 L 97.0 48.0 L 96.66666666666667 47.0 L 96.33333333333333 46.0 L 95.66666666666667 45.333333333333336 L 95.0 45.0 L 94.0 45.333333333333336 L 93.0 46.0 L 92.0 47.0 L 91.33333333333333 48.0 L 91.0 49.0 L 91.0 50.0 L 91.0 51.0 L 91.0 52.0 L 91.33333333333333 53.0 L 91.66666666666667 54.0 L 92.33333333333333 54.666666666666664 L 93.0 55.0 L 93.5 55.0 Z" stroke="none" fill="rgb(199,199,198)" />
<path d="M 24.5 124.0 L 25.0 124.0 L 26.0 124.0 L 27.0 124.0 L 28.0 124.0 L 29.0 124.0 L 30.0 124.0 L 30.666666666666668 123.66666666666667 L 30.666666666666668 123.33333333333333 L 30.0 123.0 L 29.0 123.0 L 28.0 123.0 L 27.0 123.0 L 26.0 123.0 L 25.0 123.0 L 24.0 123.0 L 23.0 123.0 L 22.0 123.0 L 21.0 123.0 L 20.0 123.0 L 19.0 123.0 L 18.0 123.0 L 17.0 123.0 L 16.0 123.0 L 15.0 123.0 L 14.0 123.0 L 13.0 123.0 L 12.0 123.0 L 11.0 123.0 L 10.0 123.0 L 9.0 123.0 L 8.0 123.0 L 7.0 123.0 L 6.0 123.0 L 5.0 123.0 L 4.333333333333333 123.33333333333333 L 4.333333333333333 123.66666666666667 L 5.0 124.0 L 6.0 124.0 L 7.0 124.0 L 8.0 124.0 L 9.0 124.0 L 10.0 124.0 L 11.0 124.0 L 12.0 124.0 L 13.0 124.0 L 14.0 124.0 L 15.0 124.0 L 16.0 124.0 L 17.0 124.0 L 18.0 124.0 L 19.0 124.0 L 20.0 124.0 L 21.0 124.0 L 22.0 124.0 L 23.0 124.0 L 23.5 124.0 Z" stroke="none" fill="rgb(0,0,0)" />
<path d="M 52.5 56.5 L 53.0 57.0 L 54.0 57.666666666666664 L 54.666666666666664 57.666666666666664 L 55.0 57.0 L 55.0 56.0 L 55.0 55.0 L 55.333333333333336 54.0 L 55.666666666666664 53.0 L 56.0 52.0 L 55.666666666666664 51.0 L 55.0 50.0 L 54.0 49.0 L 53.0 48.333333333333336 L 52.0 48.0 L 51.0 48.333333333333336 L 50.333333333333336 49.0 L 50.0 50.0 L 50.0 51.0 L 50.0 52.0 L 50.0 53.0 L 50.333333333333336 54.0 L 51.0 55.0 L 51.5 55.5 Z" stroke="none" fill="rgb(199,199,198)" />
<path d="M 92.5 79.5 L 93.0 79.0 L 94.0 78.0 L 94.66666666666667 77.0 L 94.66666666666667 76.0 L 94.0 75.0 L 93.0 74.33333333333333 L 92.0 74.0 L 91.0 74.33333333333333 L 90.0 75.0 L 89.0 75.66666666666667 L 88.0 76.33333333333333 L 87.0 77.0 L 86.33333333333333 78.0 L 86.0 79.0 L 86.33333333333333 80.0 L 87.0 80.66666666666667 L 88.0 81.0 L 89.0 81.0 L 90.0 81.0 L 91.0 80.66666666666667 L 91.5 80.5 Z" stroke="none" fill="rgb(199,199,198)" />
<path d="M 95.5 37.5 L 95.66666666666667 37.0 L 96.0 36.0 L 96.0 35.0 L 96.0 34.0 L 96.0 33.0 L 95.66666666666667 32.0 L 95.0 31.0 L 94.0 30.0 L 93.0 29.333333333333332 L 92.0 29.0 L 91.33333333333333 29.333333333333332 L 91.0 30.0 L 91.33333333333333 31.0 L 91.66666666666667 32.0 L 92.0 33.0 L 92.0 34.0 L 92.0 35.0 L 92.0 36.0 L 92.0 37.0 L 92.0 38.0 L 92.0 39.0 L 92.33333333333333 39.666666666666664 L 93.0 39.666666666666664 L 94.0 39.0 L 94.5 38.5 Z" stroke="none" fill="rgb(79,79,79)" />
<path d="M 45.5 42.5 L 46.0 42.666666666666664 L 47.0 43.333333333333336 L 48.0 43.666666666666664 L 49.0 44.333333333333336 L 50.0 44.666666666666664 L 51.0 45.0 L 52.0 44.666666666666664 L 52.666666666666664 44.0 L 53.333333333333336 43.0 L 53.666666666666664 42.0 L 54.0 41.0 L 53.666666666666664 40.333333333333336 L 53.0 40.0 L 52.0 40.0 L 51.0 40.0 L 50.0 40.0 L 49.0 40.0 L 48.0 40.0 L 47.0 40.0 L 46.0 40.0 L 45.0 40.0 L 44.333333333333336 40.333333333333336 L 44.0 41.0 L 44.333333333333336 41.666666666666664 L 44.5 42.0 Z" stroke="none" fill="rgb(115,115,115)" />
<path d="M 5.5 38.5 L 6.0 38.666666666666664 L 7.0 39.0 L 7.666666666666667 38.666666666666664 L 8.0 38.0 L 8.0 37.0 L 8.0 36.0 L 8.0 35.0 L 8.0 34.0 L 8.333333333333334 33.0 L 8.666666666666666 32.0 L 9.0 31.0 L 8.666666666666666 30.333333333333332 L 8.0 30.0 L 7.0 30.0 L 6.0 30.333333333333332 L 5.0 31.0 L 4.333333333333333 32.0 L 4.0 33.0 L 4.0 34.0 L 4.0 35.0 L 4.0 36.0 L 4.0 37.0 L 4.333333333333333 37.666666666666664 L 4.5 38.0 Z" stroke="none" fill="rgb(79,79,79)" />
<path d="M 62.5 122.0 L 63.0 122.0 L 64.0 122.0 L 65.0 122.0 L 66.0 122.0 L 67.0 122.0 L 68.0 121.66666666666667 L 68.66666666666667 121.0 L 68.66666666666667 120.33333333333333 L 68.0 120.0 L 67.0 120.0 L 66.0 120.0 L 65.0 120.0 L 64.0 120.0 L 63.0 120.0 L 62.0 120.0 L 61.0 120.0 L 60.0 120.0 L 59.0 120.0 L 58.0 120.0 L 57.0 120.0 L 56.0 120.0 L 55.0 120.0 L 54.333333333333336 120.33333333333333 L 54.0 121.0 L 54.333333333333336 121.66666666666667 L 55.0 122.0 L 56.0 122.0 L 57.0 122.0 L 58.0 122.0 L 59.0 122.0 L 60.0 122.0 L 61.0 122.0 L 61.5 122.0 Z" stroke="none" fill="rgb(84,84,84)" />
<path d="M 23.5 25.5 L 24.0 25.666666666666668 L 25.0 26.0 L 26.0 26.0 L 27.0 26.0 L 27.666666666666668 25.666666666666668 L 27.666666666666668 25.0 L 27.0 24.333333333333332 L 26.0 23.666666666666668 L 25.0 23.0 L 24.0 22.333333333333332 L 23.0 21.666666666666668 L 22.0 21.0 L 21.0 20.333333333333332 L 20.0 20.0 L 19.0 20.333333333333332 L 18.333333333333332 21.0 L 18.0 22.0 L 18.333333333333332 23.0 L 19.0 23.666666666666668 L 20.0 24.333333333333332 L 21.0 24.666666666666668 L 22.0 25.0 L 22.5 25.0 Z" stroke="none" fill="rgb(79,79,79)" />
<path d="M 33.5 122.0 L 34.0 122.0 L 35.0 122.0 L 36.0 122.0 L 37.0 122.0 L 38.0 122.0 L 39.0 122.0 L 40.0 122.0 L 41.0 122.0 L 42.0 122.0 L 43.0 122.0 L 44.0 122.0 L 45.0 122.0 L 45.666666666666664 121.66666666666667 L 46.0 121.0 L 45.666666666666664 120.33333333333333 L 45.0 120.0 L 44.0 120.0 L 43.0 120.0 L 42.0 120.0 L 41.0 120.0 L 40.0 120.0 L 39.0 120.0 L 38.0 120.0 L 37.0 120.0 L 36.0 120.0 L 35.0 120.0 L 34.0 120.0 L 33.0 120.0 L 32.333333333333336 120.33333333333333 L 32.0 121.0 L 32.333333333333336 121.66666666666667 L 32.5 122.0 Z" stroke="none" fill="rgb(84,84,84)" />
<path d="M 36.5 124.0 L 37.0 124.0 L 38.0 124.0 L 39.0 124.0 L 40.0 124.0 L 41.0 124.0 L 42.0 124.0 L 43.0 124.0 L 44.0 124.0 L 45.0 124.0 L 45.666666666666664 123.66666666666667 L 46.0 123.0 L 45.666666666666664 122.33333333333333 L 45.0 122.0 L 44.0 122.0 L 43.0 122.0 L 42.0 122.0 L 41.0 122.0 L 40.0 122.0 L 39.0 122.0 L 38.0 122.0 L 37.0 122.0 L 36.0 122.0 L 35.0 122.0 L 34.0 122.0 L 33.333333333333336 122.33333333333333 L 33.0 123.0 L 33.333333333333336 123.66666666666667 L 34.0 124.0 L 35.0 124.0 L 35.5 124.0 Z" stroke="none" fill="rgb(79,79,79)" />
<path d="M 56.5 124.0 L 57.0 124.0 L 58.0 124.0 L 59.0 124.0 L 60.0 124.0 L 61.0 124.0 L 62.0 124.0 L 63.0 124.0 L 64.0 124.0 L 65.0 124.0 L 66.0 124.0 L 66.66666666666667 123.66666666666667 L 67.0 123.0 L 66.66666666666667 122.33333333333333 L 66.0 122.0 L 65.0 122.0 L 64.0 122.0 L 63.0 122.0 L 62.0 122.0 L 61.0 122.0 L 60.0 122.0 L 59.0 122.0 L 58.0 122.0 L 57.0 122.0 L 56.0 122.0 L 55.0 122.0 L 54.333333333333336 122.33333333333333 L 54.0 123.0 L 54.333333333333336 123.66666666666667 L 55.0 124.0 L 55.5 124.0 Z" stroke="none" fill="rgb(79,79,79)" />
<path d="M 92.5 67.0 L 93.0 66.66666666666667 L 94.0 66.0 L 95.0 65.33333333333333 L 96.0 65.0 L 96.66666666666667 64.66666666666667 L 97.33333333333333 64.0 L 97.66666666666667 63.0 L 98.0 62.0 L 97.66666666666667 61.333333333333336 L 97.0 61.0 L 96.0 61.333333333333336 L 95.0 62.0 L 94.0 63.0 L 93.0 63.666666666666664 L 92.0 64.33333333333333 L 91.0 65.0 L 90.0 66.0 L 89.33333333333333 67.0 L 89.33333333333333 67.66666666666667 L 90.0 68.0 L 91.0 67.66666666666667 L 91.5 67.5 Z" stroke="none" fill="rgb(187,177,172)" />
<path d="M 50.5 72.0 L 51.0 72.0 L 52.0 71.66666666666667 L 52.666666666666664 71.0 L 53.0 70.0 L 52.666666666666664 69.0 L 52.0 68.33333333333333 L 51.0 68.0 L 50.0 68.0 L 49.0 68.0 L 48.0 68.0 L 47.0 68.0 L 46.333333333333336 68.33333333333333 L 46.0 69.0 L 46.0 70.0 L 46.333333333333336 71.0 L 47.0 71.66666666666667 L 48.0 72.0 L 49.0 72.0 L 49.5 72.0 Z" stroke="none" fill="rgb(229,150,0)" />
<path d="M 56.5 69.0 L 57.0 69.33333333333333 L 58.0 69.66666666666667 L 59.0 70.0 L 59.666666666666664 69.66666666666667 L 59.666666666666664 69.0 L 59.0 68.0 L 58.0 67.33333333333333 L 57.0 66.66666666666667 L 56.0 66.33333333333333 L 55.0 65.66666666666667 L 54.0 65.33333333333333 L 53.0 65.0 L 52.0 65.0 L 51.333333333333336 65.33333333333333 L 51.0 66.0 L 51.333333333333336 67.0 L 52.0 67.66666666666667 L 53.0 68.0 L 54.0 68.33333333333333 L 55.0 68.66666666666667 L 55.5 69.0 Z" stroke="none" fill="rgb(187,177,172)" />
<path d="M 77.5 46.5 L 77.66666666666667 47.0 L 78.0 48.0 L 78.33333333333333 49.0 L 79.0 49.666666666666664 L 79.66666666666667 49.666666666666664 L 80.0 49.0 L 80.0 48.0 L 80.0 47.0 L 80.0 46.0 L 80.0 45.0 L 79.66666666666667 44.333333333333336 L 79.0 44.0 L 78.0 44.333333333333336 L 77.33333333333333 45.0 L 77.0 45.5 Z" stroke="none" fill="rgb(172,171,171)" />
<path d="M 114.5 118.0 L 115.0 118.0 L 115.66666666666667 117.66666666666667 L 116.0 117.0 L 115.66666666666667 116.0 L 115.0 115.33333333333333 L 114.0 115.0 L 113.33333333333333 115.33333333333333 L 113.0 116.0 L 113.33333333333333 117.0 L 113.5 117.5 Z" stroke="none" fill="rgb(253,189,19)" />
<path d="M 5.0 108.5 L 5.0 108.0 L 4.666666666666667 107.33333333333333 L 4.333333333333333 107.33333333333333 L 4.0 108.0 L 4.333333333333333 108.66666666666667 L 4.5 109.0 Z" stroke="none" fill="rgb(0,0,0)" />
<path d="M 56.5 5.0 L 56.666666666666664 4.666666666666667 L 56.666666666666664 4.333333333333333 L 56.333333333333336 4.333333333333333 L 56.0 4.5 Z" stroke="none" fill="rgb(0,0,0)" />
<path d="M 66.5 5.0 L 66.66666666666667 4.666666666666667 L 66.66666666666667 4.333333333333333 L 66.33333333333333 4.333333333333333 L 66.0 4.5 Z" stroke="none" fill="rgb(0,0,0)" />
<path d="M 25.5 9.0 L 25.666666666666668 8.666666666666666 L 25.666666666666668 8.333333333333334 L 25.333333333333332 8.333333333333334 L 25.0 8.5 Z" stroke="none" fill="rgb(0,0,0)" />
<path d="M 21.5 15.0 L 21.666666666666668 14.666666666666666 L 21.666666666666668 14.333333333333334 L 21.333333333333332 14.333333333333334 L 21.0 14.5 Z" stroke="none" fill="rgb(0,0,0)" />
<path d="M 19.5 20.0 L 19.666666666666668 19.666666666666668 L 19.666666666666668 19.333333333333332 L 19.333333333333332 19.333333333333332 L 19.0 19.5 Z" stroke="none" fill="rgb(0,0,0)" />
<path d="M 17.5 24.0 L 17.666666666666668 23.666666666666668 L 17.666666666666668 23.333333333333332 L 17.333333333333332 23.333333333333332 L 17.0 23.5 Z" stroke="none" fill="rgb(0,0,0)" />
<path d="M 8.5 30.0 L 8.666666666666666 29.666666666666668 L 8.666666666666666 29.333333333333332 L 8.333333333333334 29.333333333333332 L 8.0 29.5 Z" stroke="none" fill="rgb(0,0,0)" />
<path d="M 97.5 51.0 L 97.66666666666667 50.666666666666664 L 97.66666666666667 50.333333333333336 L 97.33333333333333 50.333333333333336 L 97.0 50.5 Z" stroke="none" fill="rgb(0,0,0)" />
<path d="M 13.5 56.0 L 13.666666666666666 55.666666666666664 L 13.666666666666666 55.333333333333336 L 13.333333333333334 55.333333333333336 L 13.0 55.5 Z" stroke="none" fill="rgb(0,0,0)" />
<path d="M 96.5 66.0 L 96.66666666666667 65.66666666666667 L 96.66666666666667 65.33333333333333 L 96.33333333333333 65.33333333333333 L 96.0 65.5 Z" stroke="none" fill="rgb(0,0,0)" />
<path d="M 21.5 91.0 L 21.666666666666668 90.66666666666667 L 21.666666666666668 90.33333333333333 L 21.333333333333332 90.33333333333333 L 21.0 90.5 Z" stroke="none" fill="rgb(0,0,0)" />
<path d="M 95.0 95.5 L 94.66666666666667 95.33333333333333 L 94.33333333333333 95.33333333333333 L 94.33333333333333 95.66666666666667 L 94.5 96.0 Z" stroke="none" fill="rgb(0,0,0)" />
<path d="M 115.0 96.5 L 114.66666666666667 96.33333333333333 L 114.33333333333333 96.33333333333333 L 114.33333333333333 96.66666666666667 L 114.5 97.0 Z" stroke="none" fill="rgb(240,169,4)" />
<path d="M 114.0 97.5 L 113.66666666666667 97.33333333333333 L 113.33333333333333 97.33333333333333 L 113.33333333333333 97.66666666666667 L 113.5 98.0 Z" stroke="none" fill="rgb(240,169,4)" />
<path d="M 117.0 109.5 L 116.66666666666667 109.33333333333333 L 116.33333333333333 109.33333333333333 L 116.33333333333333 109.66666666666667 L 116.5 110.0 Z" stroke="none" fill="rgb(240,169,4)" />
<path d="M 122.5 112.0 L 122.66666666666667 111.66666666666667 L 122.66666666666667 111.33333333333333 L 122.33333333333333 111.33333333333333 L 122.0 111.5 Z" stroke="none" fill="rgb(0,0,0)" />
<path d="M 99.5 120.0 L 99.66666666666667 119.66666666666667 L 99.66666666666667 119.33333333333333 L 99.33333333333333 119.33333333333333 L 99.0 119.5 Z" stroke="none" fill="rgb(84,84,84)" />
</svg>
