<?xml version="1.0" encoding="UTF-8" standalone="no"?>
<!DOCTYPE svg PUBLIC "-//W3C//DTD SVG 1.1//EN"
"http://www.w3.org/Graphics/SVG/1.1/DTD/svg11.dtd">
<svg width="128" height="128" xmlns="http://www.w3.org/2000/svg" version="1.1">
<path d="M 26.5 128.0 L 27.0 128.0 L 28.0 128.0 L 29.0 128.0 L 30.0 128.0 L 31.0 128.0 L 32.0 128.0 L 33.0 128.0 L 34.0 128.0 L 35.0 128.0 L 36.0 128.0 L 37.0 128.0 L 38.0 128.0 L 39.0 128.0 L 40.0 128.0 L 41.0 128.0 L 42.0 128.0 L 43.0 128.0 L 44.0 128.0 L 45.0 128.0 L 46.0 128.0 L 47.0 128.0 L 48.0 128.0 L 49.0 128.0 L 50.0 128.0 L 51.0 128.0 L 52.0 128.0 L 53.0 128.0 L 54.0 128.0 L 55.0 128.0 L 56.0 128.0 L 57.0 128.0 L 58.0 128.0 L 59.0 128.0 L 60.0 128.0 L 61.0 128.0 L 62.0 128.0 L 63.0 128.0 L 64.0 128.0 L 65.0 128.0 L 66.0 128.0 L 67.0 128.0 L 68.0 128.0 L 69.0 128.0 L 70.0 128.0 L 71.0 128.0 L 72.0 128.0 L 73.0 128.0 L 74.0 128.0 L 75.0 128.0 L 76.0 128.0 L 77.0 128.0 L 78.0 128.0 L 79.0 128.0 L 80.0 128.0 L 81.0 128.0 L 82.0 128.0 L 83.0 128.0 L 84.0 128.0 L 85.0 128.0 L 86.0 128.0 L 87.0 128.0 L 88.0 128.0 L 89.0 128.0 L 90.0 128.0 L 91.0 128.0 L 92.0 128.0 L 93.0 128.0 L 94.0 128.0 L 95.0 128.0 L 96.0 128.0 L 97.0 128.0 L 98.0 128.0 L 99.0 128.0 L 100.0 128.0 L 101.0 128.0 L 102.0 128.0 L 103.0 128.0 L 104.0 128.0 L 105.0 128.0 L 106.0 128.0 L 107.0 128.0 L 108.0 128.0 L 109.0 128.0 L 110.0 128.0 L 111.0 128.0 L 112.0 128.0 L 113.0 128.0 L 114.0 128.0 L 115.0 128.0 L 116.0 128.0 L 117.0 128.0 L 118.0 128.0 L 119.0 128.0 L 120.0 128.0 L 121.0 128.0 L 122.0 128.0 L 123.0 128.0 L 124.0 128.0 L 125.0 128.0 L 126.0 128.0 L 127.0 128.0 L 127.66666666666667 127.66666666666667 L 128.0 127.0 L 128.0 126.0 L 128.0 125.0 L 128.0 124.0 L 128.0 123.0 L 128.0 122.0 L 128.0 121.0 L 128.0 120.0 L 128.0 119.0 L 128.0 118.0 L 128.0 117.0 L 128.0 116.0 L 128.0 115.0 L 128.0 114.0 L 128.0 113.0 L 128.0 112.0 L 128.0 111.0 L 128.0 110.0 L 128.0 109.0 L 128.0 108.0 L 128.0 107.0 L 128.0 106.0 L 128.0 105.0 L 128.0 104.0 L 128.0 103.0 L 128.0 102.0 L 128.0 101.0 L 128.0 100.0 L 128.0 99.0 L 128.0 98.0 L 128.0 97.0 L 128.0 96.0 L 128.0 95.0 L 128.0 94.0 L 128.0 93.0 L 128.0 92.0 L 128.0 91.0 L 128.0 90.0 L 128.0 89.0 L 128.0 88.0 L 128.0 87.0 L 128.0 86.0 L 128.0 85.0 L 128.0 84.0 L 128.0 83.0 L 128.0 82.0 L 128.0 81.0 L 128.0 80.0 L 128.0 79.0 L 128.0 78.0 L 128.0 77.0 L 128.0 76.0 L 128.0 75.0 L 128.0 74.0 L 128.0 73.0 L 128.0 72.0 L 128.0 71.0 L 128.0 70.0 L 128.0 69.0 L 128.0 68.0 L 128.0 67.0 L 128.0 66.0 L 128.0 65.0 L 128.0 64.0 L 128.0 63.0 L 128.0 62.0 L 128.0 61.0 L 128.0 60.0 L 128.0 59.0 L 128.0 58.0 L 128.0 57.0 L 128.0 56.0 L 128.0 55.0 L 128.0 54.0 L 128.0 53.0 L 128.0 52.0 L 128.0 51.0 L 128.0 50.0 L 128.0 49.0 L 128.0 48.0 L 128.0 47.0 L 128.0 46.0 L 128.0 45.0 L 128.0 44.0 L 128.0 43.0 L 128.0 42.0 L 128.0 41.0 L 128.0 40.0 L 128.0 39.0 L 128.0 38.0 L 128.0 37.0 L 128.0 36.0 L 128.0 35.0 L 128.0 34.0 L 128.0 33.0 L 128.0 32.0 L 128.0 31.0 L 128.0 30.0 L 128.0 29.0 L 128.0 28.0 L 128.0 27.0 L 128.0 26.0 L 128.0 25.0 L 128.0 24.0 L 128.0 23.0 L 128.0 22.0 L 128.0 21.0 L 128.0 20.0 L 128.0 19.0 L 128.0 18.0 L 128.0 17.0 L 128.0 16.0 L 128.0 15.0 L 128.0 14.0 L 128.0 13.0 L 128.0 12.0 L 128.0 11.0 L 128.0 10.0 L 128.0 9.0 L 128.0 8.0 L 128.0 7.0 L 128.0 6.0 L 128.0 5.0 L 128.0 4.0 L 128.0 3.0 L 128.0 2.0 L 128.0 1.0 L 127.66666666666667 0.3333333333333333 L 127.0 0.0 L 126.0 0.0 L 125.0 0.0 L 124.0 0.0 L 123.0 0.0 L 122.0 0.0 L 121.0 0.0 L 120.0 0.0 L 119.0 0.0 L 118.0 0.0 L 117.0 0.0 L 116.0 0.0 L 115.0 0.0 L 114.0 0.0 L 113.0 0.0 L 112.0 0.0 L 111.0 0.0 L 110.0 0.0 L 109.0 0.0 L 108.0 0.0 L 107.0 0.0 L 106.0 0.0 L 105.0 0.0 L 104.0 0.0 L 103.0 0.0 L 102.0 0.0 L 101.0 0.0 L 100.0 0.0 L 99.0 0.0 L 98.0 0.0 L 97.0 0.0 L 96.0 0.0 L 95.0 0.0 L 94.0 0.0 L 93.0 0.0 L 92.0 0.0 L 91.0 0.0 L 90.0 0.0 L 89.0 0.0 L 88.0 0.0 L 87.0 0.0 L 86.0 0.0 L 85.0 0.0 L 84.0 0.0 L 83.0 0.0 L 82.0 0.0 L 81.0 0.0 L 80.0 0.0 L 79.0 0.0 L 78.0 0.0 L 77.0 0.0 L 76.0 0.0 L 75.0 0.0 L 74.0 0.0 L 73.0 0.0 L 72.0 0.0 L 71.0 0.0 L 70.0 0.0 L 69.0 0.0 L 68.0 0.0 L 67.0 0.0 L 66.0 0.0 L 65.0 0.0 L 64.0 0.0 L 63.0 0.0 L 62.0 0.0 L 61.0 0.0 L 60.0 0.0 L 59.0 0.0 L 58.0 0.0 L 57.0 0.0 L 56.0 0.0 L 55.0 0.0 L 54.0 0.0 L 53.0 0.0 L 52.0 0.0 L 51.0 0.0 L 50.0 0.0 L 49.0 0.0 L 48.0 0.0 L 47.0 0.0 L 46.0 0.0 L 45.0 0.0 L 44.0 0.0 L 43.0 0.0 L 42.0 0.0 L 41.0 0.0 L 40.0 0.0 L 39.0 0.0 L 38.0 0.0 L 37.0 0.0 L 36.0 0.0 L 35.0 0.0 L 34.0 0.0 L 33.0 0.0 L 32.0 0.0 L 31.0 0.0 L 30.0 0.0 L 29.0 0.0 L 28.0 0.0 L 27.0 0.0 L 26.0 0.0 L 25.0 0.0 L 24.0 0.0 L 23.0 0.0 L 22.0 0.0 L 21.0 0.0 L 20.0 0.0 L 19.0 0.0 L 18.0 0.0 L 17.0 0.0 L 16.0 0.0 L 15.0 0.0 L 14.0 0.0 L 13.0 0.0 L 12.0 0.0 L 11.0 0.0 L 10.0 0.0 L 9.0 0.0 L 8.0 0.0 L 7.0 0.0 L 6.0 0.0 L 5.0 0.0 L 4.0 0.0 L 3.0 0.0 L 2.0 0.0 L 1.0 0.0 L 0.3333333333333333 0.3333333333333333 L 0.0 1.0 L 0.0 2.0 L 0.0 3.0 L 0.0 4.0 L 0.0 5.0 L 0.0 6.0 L 0.0 7.0 L 0.0 8.0 L 0.0 9.0 L 0.0 10.0 L 0.0 11.0 L 0.0 12.0 L 0.0 13.0 L 0.0 14.0 L 0.0 15.0 L 0.0 16.0 L 0.0 17.0 L 0.0 18.0 L 0.0 19.0 L 0.0 20.0 L 0.0 21.0 L 0.0 22.0 L 0.0 23.0 L 0.0 24.0 L 0.0 25.0 L 0.0 26.0 L 0.0 27.0 L 0.0 28.0 L 0.0 29.0 L 0.0 30.0 L 0.0 31.0 L 0.0 32.0 L 0.0 33.0 L 0.0 34.0 L 0.0 35.0 L 0.0 36.0 L 0.0 37.0 L 0.0 38.0 L 0.0 39.0 L 0.0 40.0 L 0.0 41.0 L 0.0 42.0 L 0.0 43.0 L 0.0 44.0 L 0.0 45.0 L 0.0 46.0 L 0.0 47.0 L 0.0 48.0 L 0.0 49.0 L 0.0 50.0 L 0.0 51.0 L 0.0 52.0 L 0.0 53.0 L 0.0 54.0 L 0.0 55.0 L 0.0 56.0 L 0.0 57.0 L 0.0 58.0 L 0.0 59.0 L 0.0 60.0 L 0.0 61.0 L 0.0 62.0 L 0.0 63.0 L 0.0 64.0 L 0.0 65.0 L 0.0 66.0 L 0.0 67.0 L 0.0 68.0 L 0.0 69.0 L 0.0 70.0 L 0.0 71.0 L 0.0 72.0 L 0.0 73.0 L 0.0 74.0 L 0.0 75.0 L 0.0 76.0 L 0.0 77.0 L 0.0 78.0 L 0.0 79.0 L 0.0 80.0 L 0.0 81.0 L 0.0 82.0 L 0.0 83.0 L 0.0 84.0 L 0.0 85.0 L 0.0 86.0 L 0.0 87.0 L 0.0 88.0 L 0.0 89.0 L 0.0 90.0 L 0.0 91.0 L 0.0 92.0 L 0.0 93.0 L 0.0 94.0 L 0.0 95.0 L 0.0 96.0 L 0.0 97.0 L 0.0 98.0 L 0.0 99.0 L 0.0 100.0 L 0.0 101.0 L 0.0 102.0 L 0.0 103.0 L 0.0 104.0 L 0.0 105.0 L 0.0 106.0 L 0.0 107.0 L 0.0 108.0 L 0.0 109.0 L 0.0 110.0 L 0.0 111.0 L 0.0 112.0 L 0.0 113.0 L 0.0 114.0 L 0.0 115.0 L 0.0 116.0 L 0.0 117.0 L 0.0 118.0 L 0.0 119.0 L 0.0 120.0 L 0.0 121.0 L 0.0 122.0 L 0.0 123.0 L 0.0 124.0 L 0.0 125.0 L 0.0 126.0 L 0.0 127.0 L 0.3333333333333333 127.66666666666667 L 1.0 128.0 L 2.0 128.0 L 3.0 128.0 L 4.0 128.0 L 5.0 128.0 L 6.0 128.0 L 7.0 128.0 L 8.0 128.0 L 9.0 128.0 L 10.0 128.0 L 11.0 128.0 L 12.0 128.0 L 13.0 128.0 L 14.0 128.0 L 15.0 128.0 L 16.0 128.0 L 17.0 128.0 L 18.0 128.0 L 19.0 128.0 L 20.0 128.0 L 21.0 128.0 L 22.0 128.0 L 23.0 128.0 L 24.0 128.0 L 25.0 128.0 L 25.5 128.0 Z" stroke="none" fill="rgb(255,255,255)" />
<path d="M 21.5 82.5 L 21.666666666666668 82.0 L 22.333333333333332 81.0 L 22.666666666666668 80.0 L 23.0 79.0 L 23.333333333333332 78.0 L 23.666666666666668 77.0 L 24.0 76.0 L 24.333333333333332 75.0 L 24.666666666666668 74.0 L 25.0 73.0 L 25.0 72.0 L 25.0 71.0 L 25.0 70.0 L 25.0 69.0 L 25.0 68.0 L 25.333333333333332 67.0 L 26.0 66.0 L 27.0 65.0 L 28.0 64.0 L 29.0 63.0 L 30.0 62.333333333333336 L 31.0 61.666666666666664 L 32.0 61.0 L 33.0 60.0 L 34.0 59.333333333333336 L 35.0 58.666666666666664 L 36.0 58.0 L 37.0 57.333333333333336 L 38.0 56.666666666666664 L 39.0 56.333333333333336 L 40.0 55.666666666666664 L 41.0 55.0 L 42.0 54.333333333333336 L 43.0 53.666666666666664 L 44.0 53.333333333333336 L 45.0 52.666666666666664 L 46.0 52.333333333333336 L 47.0 51.666666666666664 L 48.0 51.333333333333336 L 49.0 50.666666666666664 L 50.0 50.333333333333336 L 51.0 49.666666666666664 L 52.0 49.333333333333336 L 53.0 49.0 L 54.0 48.666666666666664 L 55.0 48.333333333333336 L 56.0 48.0 L 57.0 48.333333333333336 L 57.333333333333336 49.0 L 57.333333333333336 50.0 L 56.666666666666664 51.0 L 56.333333333333336 52.0 L 55.666666666666664 53.0 L 55.333333333333336 54.0 L 55.0 55.0 L 55.0 56.0 L 55.0 57.0 L 55.333333333333336 57.666666666666664 L 56.0 58.0 L 57.0 58.0 L 58.0 58.0 L 59.0 58.0 L 60.0 58.0 L 61.0 58.0 L 62.0 58.0 L 63.0 57.666666666666664 L 64.0 57.333333333333336 L 65.0 57.0 L 66.0 57.0 L 67.0 56.666666666666664 L 68.0 56.333333333333336 L 69.0 56.0 L 70.0 55.666666666666664 L 71.0 55.333333333333336 L 72.0 55.0 L 73.0 54.666666666666664 L 74.0 54.333333333333336 L 75.0 54.0 L 76.0 53.666666666666664 L 77.0 53.333333333333336 L 78.0 52.666666666666664 L 79.0 52.333333333333336 L 80.0 51.666666666666664 L 81.0 51.333333333333336 L 82.0 50.666666666666664 L 83.0 50.333333333333336 L 84.0 49.666666666666664 L 85.0 49.333333333333336 L 86.0 48.666666666666664 L 87.0 48.333333333333336 L 88.0 47.666666666666664 L 89.0 47.333333333333336 L 90.0 46.666666666666664 L 91.0 46.0 L 92.0 45.666666666666664 L 92.66666666666667 46.0 L 93.0 47.0 L 93.33333333333333 48.0 L 93.66666666666667 49.0 L 94.0 50.0 L 94.33333333333333 51.0 L 94.66666666666667 52.0 L 95.0 53.0 L 95.33333333333333 54.0 L 95.66666666666667 55.0 L 96.33333333333333 56.0 L 96.66666666666667 57.0 L 97.33333333333333 58.0 L 97.66666666666667 59.0 L 98.33333333333333 60.0 L 99.0 61.0 L 99.66666666666667 62.0 L 100.33333333333333 63.0 L 101.0 64.0 L 102.0 65.0 L 103.0 66.0 L 103.66666666666667 67.0 L 104.33333333333333 68.0 L 104.66666666666667 69.0 L 105.0 70.0 L 105.0 71.0 L 105.0 72.0 L 105.0 73.0 L 105.0 74.0 L 105.0 75.0 L 105.0 76.0 L 105.33333333333333 77.0 L 105.66666666666667 78.0 L 106.0 79.0 L 106.0 80.0 L 106.33333333333333 81.0 L 107.0 81.66666666666667 L 108.0 82.0 L 109.0 81.66666666666667 L 109.66666666666667 81.0 L 110.0 80.0 L 110.0 79.0 L 110.0 78.0 L 110.0 77.0 L 110.0 76.0 L 110.33333333333333 75.0 L 111.0 74.0 L 112.0 73.66666666666667 L 113.0 74.0 L 114.0 75.0 L 114.66666666666667 76.0 L 115.33333333333333 77.0 L 116.0 77.66666666666667 L 117.0 78.0 L 118.0 77.66666666666667 L 118.66666666666667 77.0 L 119.33333333333333 76.0 L 119.66666666666667 75.0 L 120.33333333333333 74.0 L 120.66666666666667 73.0 L 121.0 72.0 L 121.33333333333333 71.0 L 121.66666666666667 70.0 L 122.0 69.0 L 122.33333333333333 68.0 L 122.66666666666667 67.0 L 123.0 66.0 L 123.0 65.0 L 122.66666666666667 64.0 L 122.33333333333333 63.0 L 121.66666666666667 62.0 L 121.33333333333333 61.0 L 121.0 60.0 L 120.66666666666667 59.0 L 120.33333333333333 58.0 L 119.66666666666667 57.0 L 119.33333333333333 56.0 L 118.66666666666667 55.0 L 118.33333333333333 54.0 L 117.66666666666667 53.0 L 117.33333333333333 52.0 L 116.66666666666667 51.0 L 116.33333333333333 50.0 L 115.66666666666667 49.0 L 115.0 48.0 L 114.0 47.0 L 113.33333333333333 46.0 L 112.66666666666667 45.0 L 112.0 44.0 L 111.0 43.0 L 110.0 42.0 L 109.0 41.0 L 108.0 40.0 L 107.0 39.333333333333336 L 106.0 38.666666666666664 L 105.0 38.0 L 104.0 37.333333333333336 L 103.0 36.666666666666664 L 102.0 36.333333333333336 L 101.0 35.666666666666664 L 100.0 35.333333333333336 L 99.0 34.666666666666664 L 98.0 34.333333333333336 L 97.0 33.666666666666664 L 96.0 33.333333333333336 L 95.0 32.666666666666664 L 94.0 32.0 L 93.0 31.0 L 92.0 30.0 L 91.0 29.0 L 90.0 28.0 L 89.0 27.0 L 88.0 26.0 L 87.0 25.0 L 86.0 24.0 L 85.0 23.0 L 84.0 22.333333333333332 L 83.0 21.666666666666668 L 82.0 21.0 L 81.0 20.0 L 80.0 19.0 L 79.0 18.333333333333332 L 78.0 17.666666666666668 L 77.0 17.333333333333332 L 76.0 16.666666666666668 L 75.0 16.0 L 74.0 15.333333333333334 L 73.0 14.666666666666666 L 72.0 14.333333333333334 L 71.0 13.666666666666666 L 70.0 13.333333333333334 L 69.0 13.0 L 68.0 12.666666666666666 L 67.0 12.333333333333334 L 66.0 11.666666666666666 L 65.0 11.333333333333334 L 64.0 11.0 L 63.0 10.666666666666666 L 62.0 10.333333333333334 L 61.0 10.0 L 60.0 10.0 L 59.0 10.0 L 58.0 10.0 L 57.0 10.0 L 56.0 10.0 L 55.0 10.0 L 54.0 10.0 L 53.0 10.0 L 52.0 10.0 L 51.0 9.666666666666666 L 50.0 9.0 L 49.0 8.0 L 48.0 7.0 L 47.0 6.333333333333333 L 46.0 6.0 L 45.0 6.0 L 44.0 6.333333333333333 L 43.0 6.666666666666667 L 42.0 7.0 L 41.0 7.333333333333333 L 40.0 7.666666666666667 L 39.0 8.0 L 38.0 8.333333333333334 L 37.0 8.666666666666666 L 36.0 9.333333333333334 L 35.0 9.666666666666666 L 34.0 10.333333333333334 L 33.0 11.0 L 32.0 11.666666666666666 L 31.0 12.333333333333334 L 30.0 12.666666666666666 L 29.0 13.333333333333334 L 28.0 13.666666666666666 L 27.0 14.333333333333334 L 26.0 14.666666666666666 L 25.0 15.333333333333334 L 24.333333333333332 16.0 L 23.666666666666668 17.0 L 23.0 18.0 L 22.0 19.0 L 21.0 20.0 L 20.0 21.0 L 19.0 21.666666666666668 L 18.0 22.0 L 17.0 22.0 L 16.0 22.0 L 15.333333333333334 22.333333333333332 L 15.0 23.0 L 15.333333333333334 24.0 L 15.666666666666666 25.0 L 15.666666666666666 26.0 L 15.0 27.0 L 14.333333333333334 28.0 L 13.666666666666666 29.0 L 13.0 30.0 L 12.0 31.0 L 11.0 32.0 L 10.333333333333334 33.0 L 9.666666666666666 34.0 L 9.333333333333334 35.0 L 8.666666666666666 36.0 L 8.333333333333334 37.0 L 7.666666666666667 38.0 L 7.333333333333333 39.0 L 7.0 40.0 L 7.0 41.0 L 6.666666666666667 42.0 L 6.333333333333333 43.0 L 6.0 44.0 L 6.0 45.0 L 6.0 46.0 L 6.0 47.0 L 6.0 48.0 L 6.0 49.0 L 6.0 50.0 L 6.0 51.0 L 6.0 52.0 L 6.333333333333333 53.0 L 6.666666666666667 54.0 L 7.0 55.0 L 7.0 56.0 L 7.0 57.0 L 7.0 58.0 L 7.333333333333333 59.0 L 7.666666666666667 60.0 L 8.333333333333334 61.0 L 8.666666666666666 62.0 L 9.333333333333334 63.0 L 10.0 64.0 L 11.0 65.0 L 12.0 66.0 L 13.0 67.0 L 14.0 68.0 L 15.0 69.0 L 15.666666666666666 70.0 L 16.0 71.0 L 16.333333333333332 72.0 L 16.666666666666668 73.0 L 17.0 74.0 L 17.0 75.0 L 17.0 76.0 L 17.0 77.0 L 17.0 78.0 L 17.333333333333332 79.0 L 17.666666666666668 80.0 L 18.0 81.0 L 18.0 82.0 L 18.333333333333332 83.0 L 19.0 83.66666666666667 L 20.0 83.66666666666667 L 20.5 83.5 Z" stroke="none" fill="rgb(84,57,48)" />
<path d="M 59.5 124.0 L 60.0 124.0 L 61.0 124.0 L 62.0 124.0 L 63.0 124.0 L 64.0 124.0 L 65.0 124.0 L 66.0 124.0 L 67.0 124.0 L 68.0 124.0 L 69.0 124.0 L 70.0 124.0 L 71.0 124.0 L 72.0 124.0 L 73.0 124.0 L 74.0 123.66666666666667 L 75.0 123.33333333333333 L 76.0 123.0 L 77.0 122.66666666666667 L 78.0 122.33333333333333 L 79.0 122.0 L 80.0 121.66666666666667 L 81.0 121.33333333333333 L 82.0 121.0 L 83.0 120.66666666666667 L 84.0 120.33333333333333 L 85.0 119.66666666666667 L 86.0 119.33333333333333 L 87.0 118.66666666666667 L 88.0 118.0 L 89.0 117.33333333333333 L 90.0 116.66666666666667 L 91.0 116.0 L 92.0 115.0 L 93.0 114.0 L 94.0 113.33333333333333 L 95.0 112.66666666666667 L 96.0 112.0 L 96.66666666666667 111.0 L 97.33333333333333 110.0 L 98.0 109.0 L 99.0 108.0 L 100.0 107.0 L 100.66666666666667 106.0 L 101.33333333333333 105.0 L 102.0 104.0 L 103.0 103.0 L 104.0 102.0 L 104.66666666666667 101.0 L 105.0 100.0 L 105.0 99.0 L 105.0 98.0 L 105.33333333333333 97.0 L 106.0 96.33333333333333 L 106.66666666666667 95.66666666666667 L 106.66666666666667 95.0 L 106.66666666666667 94.0 L 106.66666666666667 93.0 L 107.0 92.0 L 107.33333333333333 91.0 L 107.66666666666667 90.0 L 108.0 89.0 L 108.0 88.0 L 108.0 87.0 L 108.0 86.0 L 108.0 85.0 L 108.0 84.0 L 108.0 83.0 L 107.66666666666667 82.0 L 107.0 81.0 L 106.33333333333333 80.0 L 106.0 79.0 L 106.0 78.0 L 105.66666666666667 77.0 L 105.33333333333333 76.0 L 105.0 75.0 L 105.0 74.0 L 105.0 73.0 L 105.0 72.0 L 105.0 71.0 L 105.0 70.0 L 105.0 69.0 L 104.66666666666667 68.0 L 104.33333333333333 67.0 L 103.66666666666667 66.0 L 103.0 65.0 L 102.0 64.0 L 101.0 63.0 L 100.33333333333333 62.0 L 99.66666666666667 61.0 L 99.0 60.0 L 98.33333333333333 59.0 L 97.66666666666667 58.0 L 97.33333333333333 57.0 L 96.66666666666667 56.0 L 96.33333333333333 55.0 L 95.66666666666667 54.0 L 95.33333333333333 53.0 L 95.0 52.0 L 94.66666666666667 51.0 L 94.33333333333333 50.0 L 94.0 49.0 L 93.66666666666667 48.0 L 93.33333333333333 47.0 L 93.0 46.0 L 92.66666666666667 45.333333333333336 L 92.0 45.0 L 91.0 45.333333333333336 L 90.0 46.0 L 89.0 46.666666666666664 L 88.0 47.333333333333336 L 87.0 47.666666666666664 L 86.0 48.333333333333336 L 85.0 48.666666666666664 L 84.0 49.333333333333336 L 83.0 49.666666666666664 L 82.0 50.333333333333336 L 81.0 50.666666666666664 L 80.0 51.333333333333336 L 79.0 51.666666666666664 L 78.0 52.333333333333336 L 77.0 52.666666666666664 L 76.0 53.333333333333336 L 75.0 53.666666666666664 L 74.0 54.0 L 73.0 54.333333333333336 L 72.0 54.666666666666664 L 71.0 55.0 L 70.0 55.333333333333336 L 69.0 55.666666666666664 L 68.0 56.0 L 67.0 56.333333333333336 L 66.0 56.666666666666664 L 65.0 57.0 L 64.0 57.0 L 63.0 57.333333333333336 L 62.0 57.666666666666664 L 61.0 58.0 L 60.0 58.0 L 59.0 58.0 L 58.0 58.0 L 57.0 58.0 L 56.0 57.666666666666664 L 55.333333333333336 57.0 L 55.0 56.0 L 55.333333333333336 55.0 L 55.666666666666664 54.0 L 56.333333333333336 53.0 L 56.666666666666664 52.0 L 57.333333333333336 51.0 L 57.666666666666664 50.0 L 58.0 49.0 L 57.666666666666664 48.0 L 57.0 47.333333333333336 L 56.0 47.333333333333336 L 55.0 47.666666666666664 L 54.0 48.333333333333336 L 53.0 48.666666666666664 L 52.0 49.0 L 51.0 49.333333333333336 L 50.0 49.666666666666664 L 49.0 50.333333333333336 L 48.0 50.666666666666664 L 47.0 51.333333333333336 L 46.0 51.666666666666664 L 45.0 52.333333333333336 L 44.0 52.666666666666664 L 43.0 53.333333333333336 L 42.0 53.666666666666664 L 41.0 54.333333333333336 L 40.0 55.0 L 39.0 55.666666666666664 L 38.0 56.333333333333336 L 37.0 56.666666666666664 L 36.0 57.333333333333336 L 35.0 58.0 L 34.0 58.666666666666664 L 33.0 59.333333333333336 L 32.0 60.0 L 31.0 61.0 L 30.0 61.666666666666664 L 29.0 62.333333333333336 L 28.0 63.0 L 27.0 64.0 L 26.0 65.0 L 25.333333333333332 66.0 L 25.0 67.0 L 25.0 68.0 L 25.0 69.0 L 25.0 70.0 L 25.0 71.0 L 25.0 72.0 L 24.666666666666668 73.0 L 24.333333333333332 74.0 L 24.0 75.0 L 23.666666666666668 76.0 L 23.333333333333332 77.0 L 23.0 78.0 L 22.666666666666668 79.0 L 22.333333333333332 80.0 L 21.666666666666668 81.0 L 21.0 82.0 L 20.333333333333332 83.0 L 20.0 84.0 L 20.0 85.0 L 20.0 86.0 L 20.0 87.0 L 20.0 88.0 L 20.0 89.0 L 20.0 90.0 L 20.333333333333332 91.0 L 20.666666666666668 92.0 L 21.333333333333332 93.0 L 21.666666666666668 94.0 L 22.0 95.0 L 22.0 96.0 L 22.333333333333332 97.0 L 22.666666666666668 98.0 L 23.0 99.0 L 23.333333333333332 100.0 L 24.0 101.0 L 25.0 102.0 L 26.0 103.0 L 26.666666666666668 104.0 L 27.333333333333332 105.0 L 28.0 106.0 L 29.0 107.0 L 30.0 108.0 L 30.666666666666668 109.0 L 31.333333333333332 110.0 L 31.666666666666668 111.0 L 32.333333333333336 112.0 L 33.0 113.0 L 34.0 114.0 L 35.0 114.66666666666667 L 36.0 115.33333333333333 L 37.0 116.0 L 38.0 117.0 L 39.0 117.66666666666667 L 40.0 118.33333333333333 L 41.0 118.66666666666667 L 42.0 119.33333333333333 L 43.0 119.66666666666667 L 44.0 120.33333333333333 L 45.0 120.66666666666667 L 46.0 121.33333333333333 L 47.0 121.66666666666667 L 48.0 122.0 L 49.0 122.33333333333333 L 50.0 122.66666666666667 L 51.0 123.0 L 52.0 123.0 L 53.0 123.33333333333333 L 54.0 123.66666666666667 L 55.0 124.0 L 56.0 124.0 L 57.0 124.0 L 58.0 124.0 L 58.5 124.0 Z" stroke="none" fill="rgb(255,202,40)" />
<path d="M 88.5 17.5 L 89.0 18.0 L 90.0 19.0 L 91.0 20.0 L 92.0 21.0 L 93.0 22.0 L 94.0 23.0 L 95.0 24.0 L 96.0 25.0 L 97.0 25.666666666666668 L 98.0 26.0 L 99.0 25.666666666666668 L 100.0 25.333333333333332 L 101.0 25.333333333333332 L 102.0 25.666666666666668 L 103.0 26.333333333333332 L 104.0 26.666666666666668 L 105.0 27.333333333333332 L 106.0 28.0 L 107.0 28.666666666666668 L 108.0 29.333333333333332 L 109.0 30.0 L 110.0 31.0 L 111.0 31.666666666666668 L 112.0 32.333333333333336 L 113.0 33.0 L 114.0 34.0 L 115.0 35.0 L 116.0 36.0 L 117.0 37.0 L 117.66666666666667 38.0 L 118.33333333333333 39.0 L 119.0 40.0 L 120.0 41.0 L 121.0 42.0 L 121.66666666666667 43.0 L 122.33333333333333 44.0 L 123.0 44.666666666666664 L 123.66666666666667 44.666666666666664 L 124.0 44.0 L 123.66666666666667 43.0 L 123.33333333333333 42.0 L 123.0 41.0 L 123.0 40.0 L 122.66666666666667 39.0 L 122.33333333333333 38.0 L 121.66666666666667 37.0 L 121.33333333333333 36.0 L 121.0 35.0 L 120.66666666666667 34.0 L 120.33333333333333 33.0 L 119.66666666666667 32.0 L 119.0 31.0 L 118.33333333333333 30.0 L 117.66666666666667 29.0 L 117.0 28.0 L 116.0 27.0 L 115.0 26.0 L 114.0 25.0 L 113.0 24.333333333333332 L 112.0 23.666666666666668 L 111.0 23.0 L 110.0 22.333333333333332 L 109.0 21.666666666666668 L 108.0 21.333333333333332 L 107.0 21.0 L 106.0 20.666666666666668 L 105.0 20.333333333333332 L 104.0 20.0 L 103.0 20.0 L 102.0 20.0 L 101.0 20.0 L 100.0 19.666666666666668 L 99.0 19.0 L 98.33333333333333 18.0 L 97.66666666666667 17.0 L 97.0 16.0 L 96.33333333333333 15.0 L 95.66666666666667 14.0 L 95.0 13.0 L 94.0 12.0 L 93.0 11.333333333333334 L 92.0 10.666666666666666 L 91.0 10.0 L 90.0 9.0 L 89.0 8.333333333333334 L 88.0 7.666666666666667 L 87.0 7.333333333333333 L 86.0 6.666666666666667 L 85.0 6.333333333333333 L 84.0 6.0 L 83.0 5.666666666666667 L 82.0 5.333333333333333 L 81.0 5.0 L 80.0 5.0 L 79.0 4.666666666666667 L 78.0 4.333333333333333 L 77.0 4.0 L 76.0 4.0 L 75.0 4.0 L 74.0 3.6666666666666665 L 73.0 3.3333333333333335 L 72.0 3.0 L 71.0 3.0 L 70.0 3.0 L 69.0 3.0 L 68.0 3.0 L 67.0 3.0 L 66.0 3.0 L 65.0 3.0 L 64.0 3.0 L 63.333333333333336 3.3333333333333335 L 63.0 4.0 L 63.333333333333336 4.666666666666667 L 64.0 5.0 L 65.0 5.333333333333333 L 66.0 5.666666666666667 L 67.0 6.0 L 68.0 6.333333333333333 L 69.0 6.666666666666667 L 70.0 7.333333333333333 L 71.0 7.666666666666667 L 72.0 8.333333333333334 L 73.0 8.666666666666666 L 74.0 9.0 L 75.0 9.333333333333334 L 76.0 9.666666666666666 L 77.0 10.333333333333334 L 78.0 11.0 L 79.0 11.666666666666666 L 80.0 12.333333333333334 L 81.0 12.666666666666666 L 82.0 13.333333333333334 L 83.0 14.0 L 84.0 14.666666666666666 L 85.0 15.333333333333334 L 86.0 16.0 L 87.0 16.666666666666668 L 87.5 17.0 Z" stroke="none" fill="rgb(109,76,65)" />
<path d="M 62.5 108.0 L 63.0 108.0 L 64.0 108.0 L 65.0 108.0 L 66.0 108.0 L 67.0 108.0 L 68.0 108.0 L 69.0 108.0 L 70.0 107.66666666666667 L 71.0 107.33333333333333 L 72.0 107.0 L 73.0 106.66666666666667 L 74.0 106.0 L 75.0 105.33333333333333 L 76.0 104.66666666666667 L 77.0 104.0 L 78.0 103.0 L 78.66666666666667 102.0 L 79.0 101.0 L 79.0 100.0 L 78.66666666666667 99.0 L 78.0 98.33333333333333 L 77.0 98.0 L 76.0 98.0 L 75.0 98.33333333333333 L 74.0 98.66666666666667 L 73.0 99.0 L 72.0 99.0 L 71.0 99.0 L 70.0 99.0 L 69.0 99.0 L 68.0 99.0 L 67.0 99.0 L 66.0 99.0 L 65.0 99.0 L 64.0 99.0 L 63.0 99.0 L 62.0 99.0 L 61.0 99.0 L 60.0 99.0 L 59.0 99.0 L 58.0 99.0 L 57.0 99.0 L 56.0 98.66666666666667 L 55.0 98.33333333333333 L 54.0 98.0 L 53.0 98.0 L 52.0 98.0 L 51.0 98.0 L 50.0 98.33333333333333 L 49.333333333333336 99.0 L 49.0 100.0 L 49.333333333333336 101.0 L 50.0 102.0 L 51.0 103.0 L 52.0 104.0 L 53.0 105.0 L 54.0 105.66666666666667 L 55.0 106.0 L 56.0 106.33333333333333 L 57.0 106.66666666666667 L 58.0 107.0 L 59.0 107.33333333333333 L 60.0 107.66666666666667 L 61.0 108.0 L 61.5 108.0 Z" stroke="none" fill="rgb(121,85,72)" />
<path d="M 105.5 30.5 L 106.0 30.666666666666668 L 107.0 31.333333333333332 L 108.0 32.0 L 109.0 33.0 L 110.0 33.666666666666664 L 111.0 34.333333333333336 L 112.0 35.0 L 113.0 36.0 L 114.0 37.0 L 115.0 38.0 L 116.0 39.0 L 116.66666666666667 40.0 L 117.33333333333333 41.0 L 118.0 42.0 L 119.0 43.0 L 119.66666666666667 44.0 L 120.33333333333333 45.0 L 121.0 46.0 L 121.66666666666667 47.0 L 122.33333333333333 48.0 L 123.0 48.666666666666664 L 123.66666666666667 48.666666666666664 L 124.0 48.0 L 124.0 47.0 L 124.0 46.0 L 123.66666666666667 45.0 L 123.0 44.0 L 122.33333333333333 43.0 L 121.66666666666667 42.0 L 121.0 41.0 L 120.0 40.0 L 119.0 39.0 L 118.33333333333333 38.0 L 117.66666666666667 37.0 L 117.0 36.0 L 116.0 35.0 L 115.0 34.0 L 114.0 33.0 L 113.0 32.333333333333336 L 112.0 31.666666666666668 L 111.0 31.0 L 110.0 30.0 L 109.0 29.333333333333332 L 108.0 28.666666666666668 L 107.0 28.0 L 106.0 27.333333333333332 L 105.0 26.666666666666668 L 104.0 26.333333333333332 L 103.0 25.666666666666668 L 102.0 25.333333333333332 L 101.0 25.0 L 100.0 25.0 L 99.0 25.333333333333332 L 98.0 25.333333333333332 L 97.0 25.0 L 96.0 24.0 L 95.0 23.0 L 94.0 22.0 L 93.0 21.0 L 92.0 20.0 L 91.0 19.0 L 90.0 18.0 L 89.0 17.333333333333332 L 88.0 16.666666666666668 L 87.0 16.0 L 86.0 15.333333333333334 L 85.0 14.666666666666666 L 84.0 14.0 L 83.0 13.333333333333334 L 82.0 12.666666666666666 L 81.0 12.333333333333334 L 80.0 11.666666666666666 L 79.0 11.0 L 78.0 10.333333333333334 L 77.0 9.666666666666666 L 76.0 9.333333333333334 L 75.0 9.0 L 74.0 8.666666666666666 L 73.0 8.333333333333334 L 72.0 7.666666666666667 L 71.0 7.333333333333333 L 70.0 6.666666666666667 L 69.0 6.333333333333333 L 68.0 6.0 L 67.0 5.666666666666667 L 66.0 5.333333333333333 L 65.0 5.0 L 64.0 4.666666666666667 L 63.0 4.333333333333333 L 62.0 4.0 L 61.0 4.0 L 60.333333333333336 4.333333333333333 L 60.0 5.0 L 60.333333333333336 5.666666666666667 L 61.0 6.0 L 62.0 6.0 L 63.0 6.333333333333333 L 64.0 6.666666666666667 L 65.0 7.0 L 66.0 7.333333333333333 L 67.0 7.666666666666667 L 68.0 8.0 L 69.0 8.333333333333334 L 70.0 8.666666666666666 L 71.0 9.333333333333334 L 72.0 9.666666666666666 L 73.0 10.333333333333334 L 74.0 10.666666666666666 L 75.0 11.333333333333334 L 76.0 11.666666666666666 L 77.0 12.333333333333334 L 78.0 12.666666666666666 L 79.0 13.333333333333334 L 80.0 14.0 L 81.0 14.666666666666666 L 82.0 15.333333333333334 L 83.0 15.666666666666666 L 84.0 16.333333333333332 L 85.0 17.0 L 86.0 18.0 L 87.0 18.666666666666668 L 88.0 19.333333333333332 L 89.0 20.0 L 90.0 21.0 L 91.0 22.0 L 92.0 23.0 L 93.0 24.0 L 94.0 25.0 L 95.0 26.0 L 95.66666666666667 27.0 L 96.33333333333333 28.0 L 97.0 28.666666666666668 L 98.0 29.0 L 98.66666666666667 28.666666666666668 L 99.33333333333333 28.0 L 100.0 27.666666666666668 L 101.0 27.666666666666668 L 102.0 28.333333333333332 L 103.0 28.666666666666668 L 104.0 29.333333333333332 L 104.5 29.5 Z" stroke="none" fill="rgb(104,72,62)" />
<path d="M 88.5 27.5 L 89.0 28.0 L 90.0 29.0 L 91.0 30.0 L 92.0 31.0 L 93.0 32.0 L 94.0 32.666666666666664 L 95.0 33.0 L 95.66666666666667 32.666666666666664 L 95.66666666666667 32.0 L 95.0 31.0 L 94.33333333333333 30.0 L 93.66666666666667 29.0 L 93.0 28.0 L 92.0 27.0 L 91.33333333333333 26.0 L 90.66666666666667 25.0 L 90.0 24.0 L 89.0 23.0 L 88.0 22.0 L 87.0 21.333333333333332 L 86.0 20.666666666666668 L 85.0 20.0 L 84.0 19.0 L 83.0 18.0 L 82.0 17.333333333333332 L 81.0 16.666666666666668 L 80.0 16.0 L 79.0 15.333333333333334 L 78.0 14.666666666666666 L 77.0 14.333333333333334 L 76.0 13.666666666666666 L 75.0 13.333333333333334 L 74.0 12.666666666666666 L 73.0 12.333333333333334 L 72.0 11.666666666666666 L 71.0 11.333333333333334 L 70.0 10.666666666666666 L 69.0 10.333333333333334 L 68.0 10.0 L 67.0 9.666666666666666 L 66.0 9.333333333333334 L 65.0 8.666666666666666 L 64.0 8.333333333333334 L 63.0 8.0 L 62.0 8.0 L 61.0 8.0 L 60.0 8.0 L 59.0 8.0 L 58.0 7.666666666666667 L 57.0 7.333333333333333 L 56.0 7.0 L 55.0 7.0 L 54.0 6.666666666666667 L 53.0 6.333333333333333 L 52.0 6.0 L 51.0 6.0 L 50.0 6.0 L 49.0 6.333333333333333 L 48.333333333333336 7.0 L 48.333333333333336 8.0 L 49.0 8.666666666666666 L 50.0 8.666666666666666 L 51.0 8.333333333333334 L 52.0 8.0 L 53.0 8.333333333333334 L 54.0 9.0 L 55.0 9.666666666666666 L 56.0 10.0 L 57.0 10.0 L 58.0 10.0 L 59.0 10.0 L 60.0 10.0 L 61.0 10.333333333333334 L 62.0 10.666666666666666 L 63.0 11.0 L 64.0 11.333333333333334 L 65.0 11.666666666666666 L 66.0 12.333333333333334 L 67.0 12.666666666666666 L 68.0 13.0 L 69.0 13.333333333333334 L 70.0 13.666666666666666 L 71.0 14.333333333333334 L 72.0 14.666666666666666 L 73.0 15.333333333333334 L 74.0 16.0 L 75.0 16.666666666666668 L 76.0 17.333333333333332 L 77.0 17.666666666666668 L 78.0 18.333333333333332 L 79.0 19.0 L 80.0 20.0 L 81.0 21.0 L 82.0 21.666666666666668 L 83.0 22.333333333333332 L 84.0 23.0 L 85.0 24.0 L 86.0 25.0 L 87.0 26.0 L 87.5 26.5 Z" stroke="none" fill="rgb(92,63,53)" />
<path d="M 20.5 97.5 L 21.0 98.0 L 22.0 98.66666666666667 L 22.666666666666668 98.66666666666667 L 23.0 98.0 L 22.666666666666668 97.0 L 22.333333333333332 96.0 L 22.0 95.0 L 22.0 94.0 L 21.666666666666668 93.0 L 21.333333333333332 92.0 L 20.666666666666668 91.0 L 20.333333333333332 90.0 L 20.0 89.0 L 20.0 88.0 L 20.0 87.0 L 20.0 86.0 L 20.0 85.0 L 19.666666666666668 84.0 L 19.0 83.0 L 18.333333333333332 82.0 L 18.0 81.0 L 18.0 80.0 L 17.666666666666668 79.0 L 17.333333333333332 78.0 L 17.0 77.0 L 17.0 76.0 L 17.0 75.0 L 17.0 74.0 L 17.0 73.0 L 16.666666666666668 72.33333333333333 L 16.0 72.0 L 15.0 72.33333333333333 L 14.0 73.0 L 13.333333333333334 74.0 L 12.666666666666666 75.0 L 12.333333333333334 76.0 L 12.0 77.0 L 12.0 78.0 L 12.0 79.0 L 11.666666666666666 80.0 L 11.333333333333334 81.0 L 11.0 82.0 L 11.0 83.0 L 11.0 84.0 L 11.0 85.0 L 11.333333333333334 86.0 L 11.666666666666666 87.0 L 12.0 88.0 L 12.333333333333334 89.0 L 13.0 90.0 L 13.666666666666666 91.0 L 14.333333333333334 92.0 L 15.0 93.0 L 16.0 93.66666666666667 L 17.0 94.33333333333333 L 18.0 95.0 L 19.0 96.0 L 19.5 96.5 Z" stroke="none" fill="rgb(229,150,0)" />
<path d="M 110.5 94.5 L 111.0 94.33333333333333 L 112.0 94.0 L 112.66666666666667 93.66666666666667 L 113.33333333333333 93.0 L 114.0 92.0 L 114.66666666666667 91.0 L 115.33333333333333 90.0 L 115.66666666666667 89.0 L 116.33333333333333 88.0 L 116.66666666666667 87.0 L 117.0 86.0 L 117.0 85.0 L 117.0 84.0 L 117.0 83.0 L 117.0 82.0 L 117.0 81.0 L 117.0 80.0 L 117.0 79.0 L 116.66666666666667 78.0 L 116.0 77.0 L 115.33333333333333 76.0 L 114.66666666666667 75.0 L 114.0 74.0 L 113.0 73.33333333333333 L 112.0 73.0 L 111.0 73.33333333333333 L 110.33333333333333 74.0 L 110.0 75.0 L 110.0 76.0 L 110.0 77.0 L 110.0 78.0 L 110.0 79.0 L 109.66666666666667 80.0 L 109.0 81.0 L 108.33333333333333 82.0 L 108.0 83.0 L 108.0 84.0 L 108.0 85.0 L 108.0 86.0 L 108.0 87.0 L 108.0 88.0 L 107.66666666666667 89.0 L 107.33333333333333 90.0 L 107.0 91.0 L 106.66666666666667 92.0 L 106.33333333333333 93.0 L 106.0 94.0 L 106.33333333333333 95.0 L 107.0 95.66666666666667 L 108.0 96.0 L 109.0 95.66666666666667 L 109.5 95.5 Z" stroke="none" fill="rgb(229,150,0)" />
<path d="M 84.5 20.5 L 85.0 20.666666666666668 L 86.0 21.333333333333332 L 87.0 22.0 L 88.0 23.0 L 89.0 24.0 L 90.0 24.666666666666668 L 91.0 25.0 L 92.0 25.333333333333332 L 92.66666666666667 26.0 L 93.33333333333333 27.0 L 94.0 28.0 L 95.0 29.0 L 95.66666666666667 30.0 L 96.33333333333333 30.666666666666668 L 97.0 31.0 L 98.0 30.666666666666668 L 98.66666666666667 30.0 L 98.66666666666667 29.333333333333332 L 98.0 28.666666666666668 L 97.0 28.0 L 96.33333333333333 27.0 L 95.66666666666667 26.0 L 95.0 25.0 L 94.0 24.0 L 93.0 23.0 L 92.0 22.0 L 91.0 21.0 L 90.0 20.0 L 89.0 19.333333333333332 L 88.0 18.666666666666668 L 87.0 18.0 L 86.0 17.0 L 85.0 16.333333333333332 L 84.0 15.666666666666666 L 83.0 15.333333333333334 L 82.0 14.666666666666666 L 81.0 14.0 L 80.0 13.333333333333334 L 79.0 12.666666666666666 L 78.0 12.333333333333334 L 77.0 11.666666666666666 L 76.0 11.333333333333334 L 75.0 10.666666666666666 L 74.0 10.333333333333334 L 73.0 9.666666666666666 L 72.0 9.333333333333334 L 71.0 8.666666666666666 L 70.0 8.333333333333334 L 69.0 8.0 L 68.0 7.666666666666667 L 67.0 7.333333333333333 L 66.0 7.0 L 65.0 6.666666666666667 L 64.0 6.333333333333333 L 63.0 6.0 L 62.0 6.0 L 61.0 5.666666666666667 L 60.0 5.0 L 59.0 4.333333333333333 L 58.0 4.0 L 57.0 4.0 L 56.333333333333336 4.333333333333333 L 56.0 5.0 L 56.333333333333336 5.666666666666667 L 57.0 6.333333333333333 L 58.0 7.0 L 59.0 7.666666666666667 L 60.0 8.0 L 61.0 8.0 L 62.0 8.0 L 63.0 8.333333333333334 L 64.0 8.666666666666666 L 65.0 9.333333333333334 L 66.0 9.666666666666666 L 67.0 10.0 L 68.0 10.333333333333334 L 69.0 10.666666666666666 L 70.0 11.333333333333334 L 71.0 11.666666666666666 L 72.0 12.333333333333334 L 73.0 12.666666666666666 L 74.0 13.333333333333334 L 75.0 13.666666666666666 L 76.0 14.333333333333334 L 77.0 14.666666666666666 L 78.0 15.333333333333334 L 79.0 16.0 L 80.0 16.666666666666668 L 81.0 17.333333333333332 L 82.0 18.0 L 83.0 19.0 L 83.5 19.5 Z" stroke="none" fill="rgb(100,69,59)" />
<path d="M 88.5 87.0 L 89.0 86.66666666666667 L 90.0 86.0 L 91.0 85.0 L 91.66666666666667 84.0 L 92.0 83.0 L 92.0 82.0 L 92.0 81.0 L 92.0 80.0 L 92.0 79.0 L 92.0 78.0 L 91.66666666666667 77.0 L 91.0 76.0 L 90.0 75.0 L 89.0 74.33333333333333 L 88.0 74.0 L 87.0 74.0 L 86.0 74.0 L 85.0 74.0 L 84.0 74.0 L 83.0 74.33333333333333 L 82.0 75.0 L 81.0 76.0 L 80.33333333333333 77.0 L 80.0 78.0 L 79.66666666666667 79.0 L 79.33333333333333 80.0 L 79.0 81.0 L 79.0 82.0 L 79.33333333333333 83.0 L 80.0 84.0 L 81.0 85.0 L 82.0 86.0 L 83.0 86.66666666666667 L 84.0 87.0 L 85.0 87.0 L 86.0 87.0 L 87.0 87.0 L 87.5 87.0 Z" stroke="none" fill="rgb(64,64,64)" />
<path d="M 42.5 87.0 L 43.0 87.0 L 44.0 87.0 L 45.0 86.66666666666667 L 46.0 86.0 L 47.0 85.0 L 47.666666666666664 84.0 L 48.0 83.0 L 48.0 82.0 L 48.0 81.0 L 48.0 80.0 L 48.0 79.0 L 48.0 78.0 L 47.666666666666664 77.0 L 47.0 76.0 L 46.0 75.0 L 45.0 74.33333333333333 L 44.0 74.0 L 43.0 74.0 L 42.0 74.0 L 41.0 74.0 L 40.0 74.0 L 39.0 74.33333333333333 L 38.0 75.0 L 37.0 76.0 L 36.333333333333336 77.0 L 36.0 78.0 L 36.0 79.0 L 36.0 80.0 L 36.0 81.0 L 36.0 82.0 L 36.0 83.0 L 36.333333333333336 84.0 L 37.0 85.0 L 38.0 86.0 L 39.0 86.66666666666667 L 40.0 87.0 L 41.0 87.0 L 41.5 87.0 Z" stroke="none" fill="rgb(64,64,64)" />
<path d="M 91.5 71.0 L 92.0 71.0 L 93.0 71.0 L 94.0 71.0 L 94.66666666666667 70.66666666666667 L 95.0 70.0 L 95.0 69.0 L 94.66666666666667 68.0 L 94.0 67.0 L 93.0 66.0 L 92.0 65.33333333333333 L 91.0 64.66666666666667 L 90.0 64.33333333333333 L 89.0 64.0 L 88.0 64.0 L 87.0 64.0 L 86.0 64.0 L 85.0 64.0 L 84.0 64.0 L 83.0 64.0 L 82.0 64.33333333333333 L 81.0 64.66666666666667 L 80.0 65.0 L 79.0 65.33333333333333 L 78.0 66.0 L 77.0 67.0 L 76.0 68.0 L 75.33333333333333 69.0 L 75.0 70.0 L 75.33333333333333 70.66666666666667 L 76.0 71.0 L 77.0 71.0 L 78.0 71.0 L 79.0 71.0 L 80.0 71.0 L 81.0 71.0 L 82.0 71.0 L 83.0 70.66666666666667 L 84.0 70.33333333333333 L 85.0 70.0 L 86.0 70.0 L 87.0 70.0 L 88.0 70.0 L 89.0 70.33333333333333 L 90.0 70.66666666666667 L 90.5 71.0 Z" stroke="none" fill="rgb(109,76,65)" />
<path d="M 39.5 71.0 L 40.0 71.0 L 41.0 70.66666666666667 L 42.0 70.33333333333333 L 43.0 70.0 L 44.0 70.0 L 45.0 70.0 L 46.0 70.33333333333333 L 47.0 70.66666666666667 L 48.0 71.0 L 49.0 71.0 L 50.0 71.0 L 51.0 71.0 L 51.666666666666664 70.66666666666667 L 52.0 70.0 L 52.0 69.0 L 51.666666666666664 68.0 L 51.0 67.0 L 50.0 66.0 L 49.0 65.33333333333333 L 48.0 64.66666666666667 L 47.0 64.33333333333333 L 46.0 64.0 L 45.0 64.0 L 44.0 64.0 L 43.0 64.0 L 42.0 64.0 L 41.0 64.0 L 40.0 64.0 L 39.0 64.33333333333333 L 38.0 64.66666666666667 L 37.0 65.0 L 36.0 65.33333333333333 L 35.0 66.0 L 34.0 67.0 L 33.0 68.0 L 32.333333333333336 69.0 L 32.333333333333336 70.0 L 33.0 70.66666666666667 L 34.0 71.0 L 35.0 71.0 L 36.0 71.0 L 37.0 71.0 L 38.0 71.0 L 38.5 71.0 Z" stroke="none" fill="rgb(109,76,65)" />
<path d="M 24.5 109.5 L 25.0 109.66666666666667 L 26.0 110.33333333333333 L 27.0 110.66666666666667 L 28.0 111.33333333333333 L 29.0 111.66666666666667 L 30.0 112.0 L 31.0 112.0 L 31.666666666666668 111.66666666666667 L 32.0 111.0 L 31.666666666666668 110.0 L 31.333333333333332 109.0 L 30.666666666666668 108.0 L 30.0 107.0 L 29.0 106.0 L 28.0 105.0 L 27.333333333333332 104.0 L 26.666666666666668 103.0 L 26.0 102.0 L 25.0 101.0 L 24.0 100.0 L 23.0 99.0 L 22.0 98.0 L 21.0 97.0 L 20.0 96.0 L 19.0 95.0 L 18.0 94.33333333333333 L 17.0 94.0 L 16.333333333333332 94.33333333333333 L 16.0 95.0 L 16.0 96.0 L 16.0 97.0 L 16.333333333333332 98.0 L 16.666666666666668 99.0 L 17.0 100.0 L 17.333333333333332 101.0 L 17.666666666666668 102.0 L 18.333333333333332 103.0 L 19.0 104.0 L 20.0 105.0 L 21.0 106.0 L 22.0 107.0 L 23.0 108.0 L 23.5 108.5 Z" stroke="none" fill="rgb(109,76,65)" />
<path d="M 121.5 57.5 L 121.66666666666667 58.0 L 122.0 59.0 L 122.33333333333333 60.0 L 123.0 60.666666666666664 L 123.66666666666667 60.666666666666664 L 124.0 60.0 L 124.0 59.0 L 124.0 58.0 L 123.66666666666667 57.0 L 123.33333333333333 56.0 L 122.66666666666667 55.0 L 122.33333333333333 54.0 L 121.66666666666667 53.0 L 121.33333333333333 52.0 L 120.66666666666667 51.0 L 120.0 50.0 L 119.33333333333333 49.0 L 118.66666666666667 48.0 L 118.0 47.0 L 117.33333333333333 46.0 L 116.66666666666667 45.0 L 116.0 44.0 L 115.0 43.0 L 114.33333333333333 42.0 L 113.66666666666667 41.0 L 113.0 40.0 L 112.0 39.0 L 111.0 38.333333333333336 L 110.0 37.666666666666664 L 109.0 37.0 L 108.0 36.0 L 107.0 35.0 L 106.0 34.333333333333336 L 105.0 33.666666666666664 L 104.0 33.333333333333336 L 103.0 32.666666666666664 L 102.0 32.0 L 101.0 31.333333333333332 L 100.0 30.666666666666668 L 99.0 30.333333333333332 L 98.0 30.333333333333332 L 97.33333333333333 31.0 L 97.33333333333333 32.0 L 98.0 32.666666666666664 L 99.0 33.333333333333336 L 100.0 33.666666666666664 L 101.0 34.333333333333336 L 102.0 34.666666666666664 L 103.0 35.333333333333336 L 104.0 36.0 L 105.0 36.666666666666664 L 106.0 37.333333333333336 L 107.0 38.0 L 108.0 39.0 L 109.0 40.0 L 110.0 41.0 L 111.0 42.0 L 112.0 43.0 L 113.0 44.0 L 114.0 45.0 L 114.66666666666667 46.0 L 115.33333333333333 47.0 L 116.0 48.0 L 116.66666666666667 49.0 L 117.33333333333333 50.0 L 118.0 51.0 L 118.66666666666667 52.0 L 119.33333333333333 53.0 L 119.66666666666667 54.0 L 120.33333333333333 55.0 L 120.66666666666667 56.0 L 121.0 56.5 Z" stroke="none" fill="rgb(92,63,53)" />
<path d="M 121.5 62.5 L 121.66666666666667 63.0 L 122.33333333333333 63.666666666666664 L 123.0 64.0 L 123.66666666666667 63.666666666666664 L 124.0 63.0 L 124.0 62.0 L 123.66666666666667 61.0 L 123.0 60.0 L 122.33333333333333 59.0 L 122.0 58.0 L 121.66666666666667 57.0 L 121.33333333333333 56.0 L 120.66666666666667 55.0 L 120.33333333333333 54.0 L 119.66666666666667 53.0 L 119.33333333333333 52.0 L 118.66666666666667 51.0 L 118.0 50.0 L 117.33333333333333 49.0 L 116.66666666666667 48.0 L 116.0 47.0 L 115.33333333333333 46.0 L 114.66666666666667 45.0 L 114.0 44.0 L 113.0 43.0 L 112.0 42.0 L 111.0 41.0 L 110.0 40.0 L 109.0 39.0 L 108.0 38.0 L 107.0 37.333333333333336 L 106.0 36.666666666666664 L 105.0 36.0 L 104.0 35.333333333333336 L 103.0 34.666666666666664 L 102.0 34.333333333333336 L 101.0 33.666666666666664 L 100.0 33.333333333333336 L 99.0 32.666666666666664 L 98.0 32.333333333333336 L 97.0 32.0 L 96.33333333333333 32.333333333333336 L 96.0 33.0 L 96.33333333333333 33.666666666666664 L 97.0 34.333333333333336 L 98.0 34.666666666666664 L 99.0 35.333333333333336 L 100.0 35.666666666666664 L 101.0 36.333333333333336 L 102.0 36.666666666666664 L 103.0 37.333333333333336 L 104.0 38.0 L 105.0 38.666666666666664 L 106.0 39.333333333333336 L 107.0 40.0 L 108.0 41.0 L 109.0 42.0 L 110.0 43.0 L 111.0 44.0 L 112.0 45.0 L 112.66666666666667 46.0 L 113.33333333333333 47.0 L 114.0 48.0 L 115.0 49.0 L 115.66666666666667 50.0 L 116.33333333333333 51.0 L 116.66666666666667 52.0 L 117.33333333333333 53.0 L 117.66666666666667 54.0 L 118.33333333333333 55.0 L 118.66666666666667 56.0 L 119.33333333333333 57.0 L 119.66666666666667 58.0 L 120.33333333333333 59.0 L 120.66666666666667 60.0 L 121.0 61.0 L 121.0 61.5 Z" stroke="none" fill="rgb(88,60,51)" />
<path d="M 109.5 35.5 L 110.0 36.0 L 111.0 37.0 L 112.0 38.0 L 113.0 39.0 L 114.0 40.0 L 115.0 41.0 L 116.0 42.0 L 116.66666666666667 43.0 L 117.33333333333333 44.0 L 118.0 45.0 L 119.0 46.0 L 119.66666666666667 47.0 L 120.33333333333333 48.0 L 120.66666666666667 49.0 L 121.33333333333333 50.0 L 122.0 51.0 L 122.66666666666667 52.0 L 123.33333333333333 53.0 L 124.0 53.666666666666664 L 124.66666666666667 53.666666666666664 L 125.0 53.0 L 125.0 52.0 L 124.66666666666667 51.0 L 124.33333333333333 50.0 L 123.66666666666667 49.0 L 123.0 48.0 L 122.33333333333333 47.0 L 121.66666666666667 46.0 L 121.0 45.0 L 120.33333333333333 44.0 L 119.66666666666667 43.0 L 119.0 42.0 L 118.0 41.0 L 117.33333333333333 40.0 L 116.66666666666667 39.0 L 116.0 38.0 L 115.0 37.0 L 114.0 36.0 L 113.0 35.0 L 112.0 34.333333333333336 L 111.0 33.666666666666664 L 110.0 33.0 L 109.0 32.0 L 108.0 31.333333333333332 L 107.0 30.666666666666668 L 106.0 30.0 L 105.0 29.333333333333332 L 104.0 28.666666666666668 L 103.0 28.333333333333332 L 102.0 27.666666666666668 L 101.0 27.333333333333332 L 100.0 27.0 L 99.33333333333333 27.333333333333332 L 99.0 28.0 L 99.33333333333333 28.666666666666668 L 100.0 29.333333333333332 L 101.0 29.666666666666668 L 102.0 30.333333333333332 L 103.0 31.0 L 104.0 31.666666666666668 L 105.0 32.333333333333336 L 106.0 33.0 L 107.0 33.666666666666664 L 108.0 34.333333333333336 L 108.5 34.5 Z" stroke="none" fill="rgb(100,69,59)" />
<path d="M 101.5 32.5 L 102.0 32.666666666666664 L 103.0 33.333333333333336 L 104.0 33.666666666666664 L 105.0 34.333333333333336 L 106.0 35.0 L 107.0 36.0 L 108.0 37.0 L 109.0 37.666666666666664 L 110.0 38.333333333333336 L 111.0 39.0 L 112.0 40.0 L 113.0 41.0 L 113.66666666666667 42.0 L 114.33333333333333 43.0 L 115.0 44.0 L 116.0 45.0 L 116.66666666666667 46.0 L 117.33333333333333 47.0 L 118.0 48.0 L 118.66666666666667 49.0 L 119.33333333333333 50.0 L 120.0 51.0 L 120.66666666666667 52.0 L 121.33333333333333 53.0 L 121.66666666666667 54.0 L 122.33333333333333 55.0 L 122.66666666666667 56.0 L 123.33333333333333 56.666666666666664 L 124.0 57.0 L 124.66666666666667 56.666666666666664 L 125.0 56.0 L 125.0 55.0 L 124.66666666666667 54.0 L 124.0 53.0 L 123.33333333333333 52.0 L 122.66666666666667 51.0 L 122.0 50.0 L 121.33333333333333 49.0 L 120.66666666666667 48.0 L 120.33333333333333 47.0 L 119.66666666666667 46.0 L 119.0 45.0 L 118.0 44.0 L 117.33333333333333 43.0 L 116.66666666666667 42.0 L 116.0 41.0 L 115.0 40.0 L 114.0 39.0 L 113.0 38.0 L 112.0 37.0 L 111.0 36.0 L 110.0 35.0 L 109.0 34.333333333333336 L 108.0 33.666666666666664 L 107.0 33.0 L 106.0 32.333333333333336 L 105.0 31.666666666666668 L 104.0 31.0 L 103.0 30.333333333333332 L 102.0 29.666666666666668 L 101.0 29.333333333333332 L 100.0 29.0 L 99.33333333333333 29.333333333333332 L 99.0 30.0 L 99.33333333333333 30.666666666666668 L 100.0 31.333333333333332 L 100.5 31.5 Z" stroke="none" fill="rgb(95,66,56)" />
<path d="M 110.0 102.5 L 110.33333333333333 102.0 L 110.66666666666667 101.0 L 111.33333333333333 100.0 L 111.66666666666667 99.0 L 112.0 98.0 L 112.0 97.0 L 112.0 96.0 L 112.0 95.0 L 111.66666666666667 94.33333333333333 L 111.0 94.0 L 110.0 94.33333333333333 L 109.0 95.0 L 108.33333333333333 96.0 L 108.0 97.0 L 107.66666666666667 98.0 L 107.0 99.0 L 106.0 100.0 L 105.33333333333333 101.0 L 104.66666666666667 102.0 L 104.0 103.0 L 103.0 104.0 L 102.0 105.0 L 101.0 105.66666666666667 L 100.0 106.33333333333333 L 99.0 107.0 L 98.0 108.0 L 97.33333333333333 109.0 L 97.0 110.0 L 97.33333333333333 110.66666666666667 L 98.0 111.0 L 99.0 111.0 L 100.0 110.66666666666667 L 101.0 110.33333333333333 L 102.0 109.66666666666667 L 103.0 109.0 L 104.0 108.33333333333333 L 105.0 107.66666666666667 L 106.0 107.0 L 107.0 106.0 L 108.0 105.0 L 109.0 104.0 L 109.5 103.5 Z" stroke="none" fill="rgb(109,76,65)" />
<path d="M 8.5 66.5 L 9.0 67.0 L 10.0 68.0 L 10.666666666666666 69.0 L 11.333333333333334 69.66666666666667 L 12.0 70.33333333333333 L 13.0 71.0 L 14.0 71.66666666666667 L 15.0 72.0 L 15.666666666666666 71.66666666666667 L 16.0 71.0 L 16.0 70.0 L 15.666666666666666 69.0 L 15.0 68.0 L 14.0 67.0 L 13.0 66.0 L 12.0 65.0 L 11.0 64.0 L 10.0 63.0 L 9.333333333333334 62.0 L 8.666666666666666 61.0 L 8.333333333333334 60.0 L 7.666666666666667 59.0 L 7.333333333333333 58.0 L 7.0 57.0 L 6.666666666666667 56.0 L 6.0 55.333333333333336 L 5.0 55.0 L 4.333333333333333 55.333333333333336 L 4.0 56.0 L 4.0 57.0 L 4.0 58.0 L 4.333333333333333 59.0 L 4.666666666666667 60.0 L 5.0 61.0 L 5.333333333333333 61.666666666666664 L 6.0 62.333333333333336 L 6.666666666666667 63.0 L 7.333333333333333 64.0 L 7.666666666666667 65.0 L 8.0 65.5 Z" stroke="none" fill="rgb(92,63,53)" />
<path d="M 59.5 91.5 L 60.0 92.0 L 61.0 92.66666666666667 L 62.0 93.0 L 63.0 93.0 L 64.0 93.0 L 65.0 93.0 L 66.0 93.0 L 67.0 92.66666666666667 L 68.0 92.0 L 69.0 91.0 L 69.66666666666667 90.0 L 70.0 89.0 L 69.66666666666667 88.0 L 69.0 87.33333333333333 L 68.0 87.0 L 67.0 87.0 L 66.0 87.0 L 65.0 87.0 L 64.0 87.0 L 63.0 87.0 L 62.0 87.0 L 61.0 87.0 L 60.0 87.0 L 59.0 87.0 L 58.333333333333336 87.33333333333333 L 58.0 88.0 L 58.0 89.0 L 58.333333333333336 90.0 L 58.5 90.5 Z" stroke="none" fill="rgb(229,150,0)" />
<path d="M 5.5 64.5 L 6.0 65.0 L 6.666666666666667 66.0 L 7.333333333333333 67.0 L 8.0 68.0 L 8.666666666666666 69.0 L 9.333333333333334 70.0 L 10.0 71.0 L 11.0 72.0 L 12.0 73.0 L 13.0 73.66666666666667 L 14.0 73.66666666666667 L 14.666666666666666 73.0 L 14.666666666666666 72.0 L 14.0 71.0 L 13.0 70.33333333333333 L 12.0 69.66666666666667 L 11.333333333333334 69.0 L 10.666666666666666 68.0 L 10.0 67.0 L 9.0 66.0 L 8.333333333333334 65.0 L 7.666666666666667 64.0 L 7.333333333333333 63.0 L 6.666666666666667 62.333333333333336 L 6.0 62.0 L 5.333333333333333 62.333333333333336 L 5.0 63.0 L 5.0 63.5 Z" stroke="none" fill="rgb(95,66,56)" />
<path d="M 17.5 21.5 L 18.0 21.666666666666668 L 19.0 22.0 L 20.0 21.666666666666668 L 20.666666666666668 21.0 L 20.666666666666668 20.0 L 20.0 19.0 L 19.333333333333332 18.0 L 18.666666666666668 17.333333333333332 L 18.0 17.0 L 17.0 16.666666666666668 L 16.0 16.333333333333332 L 15.0 16.0 L 14.0 15.666666666666666 L 13.0 15.333333333333334 L 12.0 15.0 L 11.333333333333334 15.333333333333334 L 11.0 16.0 L 11.0 17.0 L 11.333333333333334 17.666666666666668 L 12.0 18.0 L 13.0 18.0 L 14.0 18.333333333333332 L 15.0 19.0 L 16.0 20.0 L 16.5 20.5 Z" stroke="none" fill="rgb(109,76,65)" />
<path d="M 16.5 26.5 L 16.666666666666668 26.0 L 16.666666666666668 25.0 L 16.0 24.0 L 15.333333333333334 23.0 L 15.333333333333334 22.0 L 15.666666666666666 21.0 L 16.0 20.0 L 15.666666666666666 19.0 L 15.0 18.0 L 14.0 17.333333333333332 L 13.0 17.333333333333332 L 12.333333333333334 18.0 L 12.0 19.0 L 12.0 20.0 L 12.0 21.0 L 12.0 22.0 L 12.333333333333334 23.0 L 12.666666666666666 24.0 L 13.333333333333334 25.0 L 14.0 26.0 L 15.0 26.666666666666668 L 15.5 27.0 Z" stroke="none" fill="rgb(104,72,62)" />
<path d="M 5.5 67.5 L 6.0 68.0 L 6.666666666666667 69.0 L 7.333333333333333 70.0 L 8.0 71.0 L 9.0 72.0 L 10.0 73.0 L 11.0 74.0 L 12.0 74.66666666666667 L 12.666666666666666 74.66666666666667 L 13.0 74.0 L 12.666666666666666 73.0 L 12.0 72.0 L 11.0 71.0 L 10.0 70.0 L 9.333333333333334 69.0 L 8.666666666666666 68.0 L 8.0 67.0 L 7.333333333333333 66.0 L 6.666666666666667 65.0 L 6.0 64.33333333333333 L 5.0 64.0 L 4.333333333333333 64.33333333333333 L 4.0 65.0 L 4.333333333333333 66.0 L 4.5 66.5 Z" stroke="none" fill="rgb(100,69,59)" />
<path d="M 6.5 73.5 L 7.0 73.66666666666667 L 8.0 74.33333333333333 L 9.0 74.66666666666667 L 10.0 75.33333333333333 L 11.0 75.66666666666667 L 12.0 76.0 L 12.666666666666666 75.66666666666667 L 12.666666666666666 75.0 L 12.0 74.0 L 11.0 73.0 L 10.0 72.0 L 9.0 71.0 L 8.0 70.0 L 7.333333333333333 69.0 L 6.666666666666667 68.33333333333333 L 6.0 68.0 L 5.333333333333333 68.33333333333333 L 5.0 69.0 L 5.333333333333333 70.0 L 5.666666666666667 71.0 L 6.0 72.0 L 6.0 72.5 Z" stroke="none" fill="rgb(104,72,62)" />
<path d="M 8.5 78.5 L 8.666666666666666 79.0 L 9.333333333333334 80.0 L 10.0 80.66666666666667 L 11.0 81.0 L 11.666666666666666 80.66666666666667 L 12.0 80.0 L 12.0 79.0 L 12.0 78.0 L 12.0 77.0 L 11.666666666666666 76.0 L 11.0 75.33333333333333 L 10.0 74.66666666666667 L 9.0 74.33333333333333 L 8.0 74.0 L 7.333333333333333 74.33333333333333 L 7.0 75.0 L 7.333333333333333 76.0 L 7.666666666666667 77.0 L 8.0 77.5 Z" stroke="none" fill="rgb(109,76,65)" />
<path d="M 5.0 54.5 L 5.333333333333333 54.0 L 5.666666666666667 53.0 L 6.0 52.0 L 6.0 51.0 L 6.0 50.0 L 6.0 49.0 L 6.0 48.0 L 6.0 47.0 L 6.0 46.0 L 6.0 45.0 L 6.0 44.0 L 5.666666666666667 43.333333333333336 L 5.333333333333333 43.333333333333336 L 5.0 44.0 L 5.0 45.0 L 4.666666666666667 46.0 L 4.333333333333333 47.0 L 4.0 48.0 L 4.0 49.0 L 4.0 50.0 L 4.0 51.0 L 4.0 52.0 L 4.0 53.0 L 4.0 54.0 L 4.333333333333333 54.666666666666664 L 4.5 55.0 Z" stroke="none" fill="rgb(0,0,0)" />
<path d="M 95.5 32.0 L 96.0 32.0 L 96.66666666666667 31.666666666666668 L 96.66666666666667 31.0 L 96.33333333333333 30.0 L 95.66666666666667 29.0 L 95.0 28.0 L 94.0 27.0 L 93.33333333333333 26.0 L 92.66666666666667 25.333333333333332 L 92.0 25.0 L 91.33333333333333 25.333333333333332 L 91.0 26.0 L 91.33333333333333 27.0 L 92.0 28.0 L 93.0 29.0 L 93.66666666666667 30.0 L 94.33333333333333 31.0 L 94.5 31.5 Z" stroke="none" fill="rgb(95,66,56)" />
<path d="M 20.5 19.5 L 21.0 19.666666666666668 L 22.0 19.666666666666668 L 23.0 19.0 L 23.666666666666668 18.0 L 24.0 17.0 L 23.666666666666668 16.333333333333332 L 23.0 16.0 L 22.0 16.0 L 21.0 16.0 L 20.0 16.333333333333332 L 19.333333333333332 17.0 L 19.333333333333332 18.0 L 19.5 18.5 Z" stroke="none" fill="rgb(0,0,0)" />
<path d="M 56.5 7.5 L 57.0 7.666666666666667 L 58.0 8.0 L 58.666666666666664 7.666666666666667 L 58.666666666666664 7.0 L 58.0 6.333333333333333 L 57.0 5.666666666666667 L 56.0 5.333333333333333 L 55.0 5.0 L 54.0 5.0 L 53.333333333333336 5.333333333333333 L 53.0 6.0 L 53.333333333333336 6.666666666666667 L 54.0 7.0 L 55.0 7.0 L 55.5 7.0 Z" stroke="none" fill="rgb(95,66,56)" />
<path d="M 101.5 106.0 L 102.0 105.66666666666667 L 103.0 105.0 L 104.0 104.0 L 104.66666666666667 103.0 L 105.0 102.0 L 104.66666666666667 101.33333333333333 L 104.0 101.33333333333333 L 103.0 102.0 L 102.0 103.0 L 101.33333333333333 104.0 L 101.0 105.0 L 101.0 105.5 Z" stroke="none" fill="rgb(104,72,62)" />
<path d="M 55.0 9.5 L 54.666666666666664 9.0 L 54.0 8.333333333333334 L 53.0 8.0 L 52.0 8.0 L 51.0 8.0 L 50.333333333333336 8.333333333333334 L 50.0 9.0 L 50.333333333333336 9.666666666666666 L 51.0 10.0 L 52.0 10.0 L 53.0 10.0 L 54.0 10.0 L 54.5 10.0 Z" stroke="none" fill="rgb(88,60,51)" />
<path d="M 49.5 6.5 L 50.0 6.333333333333333 L 51.0 6.0 L 52.0 6.0 L 52.666666666666664 5.666666666666667 L 52.666666666666664 5.333333333333333 L 52.0 5.0 L 51.0 5.0 L 50.0 5.0 L 49.0 5.0 L 48.0 5.333333333333333 L 47.333333333333336 6.0 L 47.333333333333336 6.666666666666667 L 48.0 7.0 L 48.5 7.0 Z" stroke="none" fill="rgb(0,0,0)" />
<path d="M 108.0 98.5 L 108.0 98.0 L 108.0 97.0 L 107.66666666666667 96.33333333333333 L 107.33333333333333 96.33333333333333 L 106.66666666666667 97.0 L 106.0 98.0 L 105.33333333333333 99.0 L 105.0 100.0 L 105.33333333333333 100.66666666666667 L 106.0 100.66666666666667 L 107.0 100.0 L 107.5 99.5 Z" stroke="none" fill="rgb(104,72,62)" />
<path d="M 4.5 64.0 L 4.666666666666667 63.666666666666664 L 5.0 63.0 L 5.0 62.0 L 5.0 61.0 L 5.0 60.0 L 4.666666666666667 59.333333333333336 L 4.333333333333333 59.333333333333336 L 4.0 60.0 L 4.0 61.0 L 4.0 62.0 L 4.0 63.0 L 4.0 63.5 Z" stroke="none" fill="rgb(0,0,0)" />
<path d="M 7.0 55.5 L 7.0 55.0 L 7.0 54.0 L 6.666666666666667 53.333333333333336 L 6.0 53.0 L 5.333333333333333 53.333333333333336 L 5.0 54.0 L 5.333333333333333 55.0 L 6.0 55.666666666666664 L 6.5 56.0 Z" stroke="none" fill="rgb(88,60,51)" />
<path d="M 107.0 97.5 L 107.0 97.0 L 106.66666666666667 96.33333333333333 L 106.0 96.0 L 105.33333333333333 96.33333333333333 L 105.0 97.0 L 105.0 98.0 L 105.33333333333333 98.66666666666667 L 106.0 98.66666666666667 L 106.5 98.5 Z" stroke="none" fill="rgb(100,69,59)" />
<path d="M 18.0 21.5 L 17.666666666666668 21.0 L 17.0 20.333333333333332 L 16.0 20.333333333333332 L 15.333333333333334 21.0 L 15.333333333333334 21.666666666666668 L 16.0 22.0 L 17.0 22.0 L 17.5 22.0 Z" stroke="none" fill="rgb(92,63,53)" />
<path d="M 55.5 5.0 L 55.666666666666664 4.666666666666667 L 55.666666666666664 4.333333333333333 L 55.0 4.0 L 54.0 4.0 L 53.333333333333336 4.333333333333333 L 53.333333333333336 4.666666666666667 L 54.0 5.0 L 54.5 5.0 Z" stroke="none" fill="rgb(0,0,0)" />
<path d="M 61.5 4.0 L 62.0 4.0 L 62.666666666666664 3.6666666666666665 L 62.666666666666664 3.3333333333333335 L 62.0 3.0 L 61.333333333333336 3.3333333333333335 L 61.0 3.5 Z" stroke="none" fill="rgb(0,0,0)" />
<path d="M 7.0 42.5 L 7.0 42.0 L 6.666666666666667 41.333333333333336 L 6.333333333333333 41.333333333333336 L 6.0 42.0 L 6.333333333333333 42.666666666666664 L 6.5 43.0 Z" stroke="none" fill="rgb(0,0,0)" />
<path d="M 4.0 56.5 L 4.0 56.0 L 3.6666666666666665 55.333333333333336 L 3.3333333333333335 55.333333333333336 L 3.0 56.0 L 3.3333333333333335 56.666666666666664 L 3.5 57.0 Z" stroke="none" fill="rgb(0,0,0)" />
<path d="M 60.0 4.5 L 59.666666666666664 4.333333333333333 L 59.333333333333336 4.333333333333333 L 59.333333333333336 4.666666666666667 L 59.5 5.0 Z" stroke="none" fill="rgb(0,0,0)" />
<path d="M 19.5 19.0 L 19.666666666666668 18.666666666666668 L 19.666666666666668 18.333333333333332 L 19.333333333333332 18.333333333333332 L 19.0 18.5 Z" stroke="none" fill="rgb(100,69,59)" />
<path d="M 20.5 20.0 L 20.666666666666668 19.666666666666668 L 20.666666666666668 19.333333333333332 L 20.333333333333332 19.333333333333332 L 20.0 19.5 Z" stroke="none" fill="rgb(92,63,53)" />
<path d="M 12.5 24.0 L 12.666666666666666 23.666666666666668 L 12.666666666666666 23.333333333333332 L 12.333333333333334 23.333333333333332 L 12.0 23.5 Z" stroke="none" fill="rgb(0,0,0)" />
<path d="M 14.5 27.0 L 14.666666666666666 26.666666666666668 L 14.666666666666666 26.333333333333332 L 14.333333333333334 26.333333333333332 L 14.0 26.5 Z" stroke="none" fill="rgb(0,0,0)" />
<path d="M 7.5 39.0 L 7.666666666666667 38.666666666666664 L 7.666666666666667 38.333333333333336 L 7.333333333333333 38.333333333333336 L 7.0 38.5 Z" stroke="none" fill="rgb(0,0,0)" />
<path d="M 124.5 51.0 L 124.66666666666667 50.666666666666664 L 124.66666666666667 50.333333333333336 L 124.33333333333333 50.333333333333336 L 124.0 50.5 Z" stroke="none" fill="rgb(0,0,0)" />
<path d="M 5.0 66.5 L 4.666666666666667 66.33333333333333 L 4.333333333333333 66.33333333333333 L 4.333333333333333 66.66666666666667 L 4.5 67.0 Z" stroke="none" fill="rgb(0,0,0)" />
<path d="M 5.5 68.0 L 5.666666666666667 67.66666666666667 L 5.666666666666667 67.33333333333333 L 5.333333333333333 67.33333333333333 L 5.0 67.5 Z" stroke="none" fill="rgb(0,0,0)" />
<path d="M 6.0 70.5 L 5.666666666666667 70.33333333333333 L 5.333333333333333 70.33333333333333 L 5.333333333333333 70.66666666666667 L 5.5 71.0 Z" stroke="none" fill="rgb(0,0,0)" />
<path d="M 6.5 74.0 L 6.666666666666667 73.66666666666667 L 6.666666666666667 73.33333333333333 L 6.333333333333333 73.33333333333333 L 6.0 73.5 Z" stroke="none" fill="rgb(0,0,0)" />
<path d="M 112.5 95.0 L 112.66666666666667 94.66666666666667 L 112.66666666666667 94.33333333333333 L 112.33333333333333 94.33333333333333 L 112.0 94.5 Z" stroke="none" fill="rgb(0,0,0)" />
<path d="M 22.0 106.5 L 21.666666666666668 106.33333333333333 L 21.333333333333332 106.33333333333333 L 21.333333333333332 106.66666666666667 L 21.5 107.0 Z" stroke="none" fill="rgb(0,0,0)" />
<path d="M 96.5 112.0 L 96.66666666666667 111.66666666666667 L 96.66666666666667 111.33333333333333 L 96.33333333333333 111.33333333333333 L 96.0 111.5 Z" stroke="none" fill="rgb(0,0,0)" />
</svg>
