<?xml version="1.0" encoding="UTF-8" standalone="no"?>
<!DOCTYPE svg PUBLIC "-//W3C//DTD SVG 1.1//EN"
"http://www.w3.org/Graphics/SVG/1.1/DTD/svg11.dtd">
<svg width="128" height="128" xmlns="http://www.w3.org/2000/svg" version="1.1">
<path d="M 104.5 128.0 L 105.0 128.0 L 106.0 128.0 L 107.0 128.0 L 108.0 128.0 L 109.0 128.0 L 110.0 128.0 L 111.0 128.0 L 112.0 128.0 L 113.0 128.0 L 114.0 128.0 L 115.0 128.0 L 116.0 128.0 L 117.0 128.0 L 118.0 128.0 L 119.0 128.0 L 120.0 128.0 L 121.0 128.0 L 122.0 128.0 L 123.0 128.0 L 124.0 128.0 L 125.0 128.0 L 126.0 128.0 L 127.0 128.0 L 127.66666666666667 127.66666666666667 L 128.0 127.0 L 128.0 126.0 L 128.0 125.0 L 128.0 124.0 L 128.0 123.0 L 128.0 122.0 L 128.0 121.0 L 128.0 120.0 L 128.0 119.0 L 128.0 118.0 L 128.0 117.0 L 128.0 116.0 L 128.0 115.0 L 128.0 114.0 L 128.0 113.0 L 128.0 112.0 L 128.0 111.0 L 128.0 110.0 L 128.0 109.0 L 128.0 108.0 L 128.0 107.0 L 128.0 106.0 L 128.0 105.0 L 128.0 104.0 L 128.0 103.0 L 128.0 102.0 L 128.0 101.0 L 128.0 100.0 L 128.0 99.0 L 128.0 98.0 L 128.0 97.0 L 128.0 96.0 L 128.0 95.0 L 128.0 94.0 L 128.0 93.0 L 128.0 92.0 L 128.0 91.0 L 128.0 90.0 L 128.0 89.0 L 128.0 88.0 L 128.0 87.0 L 128.0 86.0 L 128.0 85.0 L 128.0 84.0 L 128.0 83.0 L 128.0 82.0 L 128.0 81.0 L 128.0 80.0 L 128.0 79.0 L 128.0 78.0 L 128.0 77.0 L 128.0 76.0 L 128.0 75.0 L 128.0 74.0 L 128.0 73.0 L 128.0 72.0 L 128.0 71.0 L 128.0 70.0 L 128.0 69.0 L 128.0 68.0 L 128.0 67.0 L 128.0 66.0 L 128.0 65.0 L 128.0 64.0 L 128.0 63.0 L 128.0 62.0 L 128.0 61.0 L 128.0 60.0 L 128.0 59.0 L 128.0 58.0 L 128.0 57.0 L 128.0 56.0 L 128.0 55.0 L 128.0 54.0 L 128.0 53.0 L 128.0 52.0 L 128.0 51.0 L 128.0 50.0 L 128.0 49.0 L 128.0 48.0 L 128.0 47.0 L 128.0 46.0 L 128.0 45.0 L 128.0 44.0 L 128.0 43.0 L 128.0 42.0 L 128.0 41.0 L 128.0 40.0 L 128.0 39.0 L 128.0 38.0 L 128.0 37.0 L 128.0 36.0 L 128.0 35.0 L 128.0 34.0 L 128.0 33.0 L 128.0 32.0 L 128.0 31.0 L 128.0 30.0 L 128.0 29.0 L 128.0 28.0 L 128.0 27.0 L 128.0 26.0 L 128.0 25.0 L 128.0 24.0 L 128.0 23.0 L 128.0 22.0 L 128.0 21.0 L 128.0 20.0 L 128.0 19.0 L 128.0 18.0 L 128.0 17.0 L 128.0 16.0 L 128.0 15.0 L 128.0 14.0 L 128.0 13.0 L 128.0 12.0 L 128.0 11.0 L 128.0 10.0 L 128.0 9.0 L 128.0 8.0 L 128.0 7.0 L 128.0 6.0 L 128.0 5.0 L 128.0 4.0 L 128.0 3.0 L 128.0 2.0 L 128.0 1.0 L 127.66666666666667 0.3333333333333333 L 127.0 0.0 L 126.0 0.0 L 125.0 0.0 L 124.0 0.0 L 123.0 0.0 L 122.0 0.0 L 121.0 0.0 L 120.0 0.0 L 119.0 0.0 L 118.0 0.0 L 117.0 0.0 L 116.0 0.0 L 115.0 0.0 L 114.0 0.0 L 113.0 0.0 L 112.0 0.0 L 111.0 0.0 L 110.0 0.0 L 109.0 0.0 L 108.0 0.0 L 107.0 0.0 L 106.0 0.0 L 105.0 0.0 L 104.0 0.0 L 103.0 0.0 L 102.0 0.0 L 101.0 0.0 L 100.0 0.0 L 99.0 0.0 L 98.0 0.0 L 97.0 0.0 L 96.0 0.0 L 95.0 0.0 L 94.0 0.0 L 93.0 0.0 L 92.0 0.0 L 91.0 0.0 L 90.0 0.0 L 89.0 0.0 L 88.0 0.0 L 87.0 0.0 L 86.0 0.0 L 85.0 0.0 L 84.0 0.0 L 83.0 0.0 L 82.0 0.0 L 81.0 0.0 L 80.0 0.0 L 79.0 0.0 L 78.0 0.0 L 77.0 0.0 L 76.0 0.0 L 75.0 0.0 L 74.0 0.0 L 73.0 0.0 L 72.0 0.0 L 71.0 0.0 L 70.0 0.0 L 69.0 0.0 L 68.0 0.0 L 67.0 0.0 L 66.0 0.0 L 65.0 0.0 L 64.0 0.0 L 63.0 0.0 L 62.0 0.0 L 61.0 0.0 L 60.0 0.0 L 59.0 0.0 L 58.0 0.0 L 57.0 0.0 L 56.0 0.0 L 55.0 0.0 L 54.0 0.0 L 53.0 0.0 L 52.0 0.0 L 51.0 0.0 L 50.0 0.0 L 49.0 0.0 L 48.0 0.0 L 47.0 0.0 L 46.0 0.0 L 45.0 0.0 L 44.0 0.0 L 43.0 0.0 L 42.0 0.0 L 41.0 0.0 L 40.0 0.0 L 39.0 0.0 L 38.0 0.0 L 37.0 0.0 L 36.0 0.0 L 35.0 0.0 L 34.0 0.0 L 33.0 0.0 L 32.0 0.0 L 31.0 0.0 L 30.0 0.0 L 29.0 0.0 L 28.0 0.0 L 27.0 0.0 L 26.0 0.0 L 25.0 0.0 L 24.0 0.0 L 23.0 0.0 L 22.0 0.0 L 21.0 0.0 L 20.0 0.0 L 19.0 0.0 L 18.0 0.0 L 17.0 0.0 L 16.0 0.0 L 15.0 0.0 L 14.0 0.0 L 13.0 0.0 L 12.0 0.0 L 11.0 0.0 L 10.0 0.0 L 9.0 0.0 L 8.0 0.0 L 7.0 0.0 L 6.0 0.0 L 5.0 0.0 L 4.0 0.0 L 3.0 0.0 L 2.0 0.0 L 1.0 0.0 L 0.3333333333333333 0.3333333333333333 L 0.0 1.0 L 0.0 2.0 L 0.0 3.0 L 0.0 4.0 L 0.0 5.0 L 0.0 6.0 L 0.0 7.0 L 0.0 8.0 L 0.0 9.0 L 0.0 10.0 L 0.0 11.0 L 0.0 12.0 L 0.0 13.0 L 0.0 14.0 L 0.0 15.0 L 0.0 16.0 L 0.0 17.0 L 0.0 18.0 L 0.0 19.0 L 0.0 20.0 L 0.0 21.0 L 0.0 22.0 L 0.0 23.0 L 0.0 24.0 L 0.0 25.0 L 0.0 26.0 L 0.0 27.0 L 0.0 28.0 L 0.0 29.0 L 0.0 30.0 L 0.0 31.0 L 0.0 32.0 L 0.0 33.0 L 0.0 34.0 L 0.0 35.0 L 0.0 36.0 L 0.0 37.0 L 0.0 38.0 L 0.0 39.0 L 0.0 40.0 L 0.0 41.0 L 0.0 42.0 L 0.0 43.0 L 0.0 44.0 L 0.0 45.0 L 0.0 46.0 L 0.0 47.0 L 0.0 48.0 L 0.0 49.0 L 0.0 50.0 L 0.0 51.0 L 0.0 52.0 L 0.0 53.0 L 0.0 54.0 L 0.0 55.0 L 0.0 56.0 L 0.0 57.0 L 0.0 58.0 L 0.0 59.0 L 0.0 60.0 L 0.0 61.0 L 0.0 62.0 L 0.0 63.0 L 0.0 64.0 L 0.0 65.0 L 0.0 66.0 L 0.0 67.0 L 0.0 68.0 L 0.0 69.0 L 0.0 70.0 L 0.0 71.0 L 0.0 72.0 L 0.0 73.0 L 0.0 74.0 L 0.0 75.0 L 0.0 76.0 L 0.0 77.0 L 0.0 78.0 L 0.0 79.0 L 0.0 80.0 L 0.0 81.0 L 0.0 82.0 L 0.0 83.0 L 0.0 84.0 L 0.0 85.0 L 0.0 86.0 L 0.0 87.0 L 0.0 88.0 L 0.0 89.0 L 0.0 90.0 L 0.0 91.0 L 0.0 92.0 L 0.0 93.0 L 0.0 94.0 L 0.0 95.0 L 0.0 96.0 L 0.0 97.0 L 0.0 98.0 L 0.0 99.0 L 0.0 100.0 L 0.0 101.0 L 0.0 102.0 L 0.0 103.0 L 0.0 104.0 L 0.0 105.0 L 0.0 106.0 L 0.0 107.0 L 0.0 108.0 L 0.0 109.0 L 0.0 110.0 L 0.0 111.0 L 0.0 112.0 L 0.0 113.0 L 0.0 114.0 L 0.0 115.0 L 0.0 116.0 L 0.0 117.0 L 0.0 118.0 L 0.0 119.0 L 0.0 120.0 L 0.0 121.0 L 0.0 122.0 L 0.0 123.0 L 0.0 124.0 L 0.0 125.0 L 0.0 126.0 L 0.0 127.0 L 0.3333333333333333 127.66666666666667 L 1.0 128.0 L 2.0 128.0 L 3.0 128.0 L 4.0 128.0 L 5.0 128.0 L 6.0 128.0 L 7.0 128.0 L 8.0 128.0 L 9.0 128.0 L 10.0 128.0 L 11.0 128.0 L 12.0 128.0 L 13.0 128.0 L 14.0 128.0 L 15.0 128.0 L 16.0 128.0 L 17.0 128.0 L 18.0 128.0 L 19.0 128.0 L 20.0 128.0 L 21.0 128.0 L 22.0 128.0 L 23.0 128.0 L 24.0 128.0 L 25.0 128.0 L 26.0 128.0 L 27.0 128.0 L 28.0 128.0 L 29.0 128.0 L 30.0 128.0 L 31.0 128.0 L 32.0 128.0 L 33.0 128.0 L 34.0 128.0 L 35.0 128.0 L 36.0 128.0 L 37.0 128.0 L 38.0 128.0 L 39.0 128.0 L 40.0 128.0 L 41.0 128.0 L 42.0 128.0 L 43.0 128.0 L 44.0 128.0 L 45.0 128.0 L 46.0 128.0 L 47.0 128.0 L 48.0 128.0 L 49.0 128.0 L 50.0 128.0 L 51.0 128.0 L 52.0 128.0 L 53.0 128.0 L 54.0 128.0 L 55.0 128.0 L 56.0 128.0 L 57.0 128.0 L 58.0 128.0 L 59.0 128.0 L 60.0 128.0 L 61.0 128.0 L 62.0 128.0 L 63.0 128.0 L 64.0 128.0 L 65.0 128.0 L 66.0 128.0 L 67.0 128.0 L 68.0 128.0 L 69.0 128.0 L 70.0 128.0 L 71.0 128.0 L 72.0 128.0 L 73.0 128.0 L 74.0 128.0 L 75.0 128.0 L 76.0 128.0 L 77.0 128.0 L 78.0 128.0 L 79.0 128.0 L 80.0 128.0 L 81.0 128.0 L 82.0 128.0 L 83.0 128.0 L 84.0 128.0 L 85.0 128.0 L 86.0 128.0 L 87.0 128.0 L 88.0 128.0 L 89.0 128.0 L 90.0 128.0 L 91.0 128.0 L 92.0 128.0 L 93.0 128.0 L 94.0 128.0 L 95.0 128.0 L 96.0 128.0 L 97.0 128.0 L 98.0 128.0 L 99.0 128.0 L 100.0 128.0 L 101.0 128.0 L 102.0 128.0 L 103.0 128.0 L 103.5 128.0 Z" stroke="none" fill="rgb(255,255,255)" />
<path d="M 26.5 121.5 L 27.0 121.66666666666667 L 28.0 122.0 L 29.0 122.0 L 30.0 122.0 L 31.0 122.0 L 32.0 122.33333333333333 L 33.0 122.66666666666667 L 34.0 123.0 L 35.0 123.0 L 36.0 123.0 L 37.0 123.0 L 38.0 123.0 L 39.0 123.0 L 40.0 123.33333333333333 L 41.0 123.66666666666667 L 42.0 124.0 L 43.0 124.0 L 44.0 124.0 L 45.0 124.0 L 46.0 124.0 L 47.0 124.0 L 48.0 124.0 L 49.0 124.0 L 50.0 124.33333333333333 L 51.0 124.66666666666667 L 52.0 125.0 L 53.0 125.0 L 54.0 125.0 L 55.0 125.0 L 56.0 125.0 L 57.0 125.0 L 58.0 125.0 L 59.0 125.0 L 60.0 125.0 L 61.0 125.0 L 62.0 125.0 L 63.0 125.0 L 64.0 124.66666666666667 L 65.0 124.33333333333333 L 66.0 124.0 L 67.0 124.0 L 68.0 124.0 L 69.0 123.66666666666667 L 70.0 123.33333333333333 L 71.0 122.66666666666667 L 72.0 122.33333333333333 L 73.0 121.66666666666667 L 74.0 121.33333333333333 L 75.0 120.66666666666667 L 76.0 120.0 L 77.0 119.0 L 78.0 118.33333333333333 L 79.0 117.66666666666667 L 80.0 117.0 L 81.0 116.33333333333333 L 82.0 115.66666666666667 L 83.0 115.0 L 84.0 114.0 L 85.0 113.33333333333333 L 86.0 112.66666666666667 L 87.0 112.0 L 88.0 111.0 L 89.0 110.0 L 90.0 109.33333333333333 L 91.0 108.66666666666667 L 92.0 108.0 L 93.0 107.0 L 94.0 106.33333333333333 L 95.0 105.66666666666667 L 96.0 105.0 L 97.0 104.0 L 98.0 103.0 L 99.0 102.33333333333333 L 100.0 101.66666666666667 L 101.0 101.0 L 102.0 100.0 L 103.0 99.0 L 104.0 98.33333333333333 L 105.0 97.66666666666667 L 105.66666666666667 97.0 L 106.33333333333333 96.0 L 106.66666666666667 95.0 L 107.33333333333333 94.0 L 107.66666666666667 93.0 L 108.0 92.0 L 108.0 91.0 L 108.0 90.0 L 108.0 89.0 L 108.0 88.0 L 108.0 87.0 L 107.66666666666667 86.33333333333333 L 107.0 86.0 L 106.33333333333333 86.33333333333333 L 106.0 87.0 L 106.0 88.0 L 105.66666666666667 89.0 L 105.33333333333333 90.0 L 104.66666666666667 91.0 L 104.0 92.0 L 103.0 93.0 L 102.0 93.66666666666667 L 101.0 94.0 L 100.0 94.0 L 99.0 93.66666666666667 L 98.0 93.0 L 97.0 92.0 L 96.0 91.0 L 95.0 90.0 L 94.33333333333333 89.0 L 93.66666666666667 88.0 L 93.0 87.0 L 92.33333333333333 86.0 L 92.0 85.0 L 92.0 84.0 L 92.0 83.0 L 92.0 82.0 L 92.0 81.0 L 92.0 80.0 L 92.33333333333333 79.0 L 92.66666666666667 78.0 L 92.66666666666667 77.0 L 92.0 76.33333333333333 L 91.0 76.33333333333333 L 90.0 76.66666666666667 L 89.0 77.33333333333333 L 88.0 78.0 L 87.0 79.0 L 86.0 79.66666666666667 L 85.0 80.33333333333333 L 84.0 81.0 L 83.0 81.66666666666667 L 82.0 82.33333333333333 L 81.0 82.66666666666667 L 80.0 83.33333333333333 L 79.0 84.0 L 78.0 84.66666666666667 L 77.0 85.33333333333333 L 76.0 85.66666666666667 L 75.0 86.33333333333333 L 74.0 87.0 L 73.0 87.66666666666667 L 72.0 88.33333333333333 L 71.0 88.66666666666667 L 70.0 89.33333333333333 L 69.0 89.66666666666667 L 68.0 90.33333333333333 L 67.0 91.0 L 66.0 91.66666666666667 L 65.0 92.33333333333333 L 64.0 92.66666666666667 L 63.333333333333336 93.33333333333333 L 62.666666666666664 94.0 L 62.0 95.0 L 61.0 96.0 L 60.333333333333336 97.0 L 59.666666666666664 98.0 L 59.333333333333336 99.0 L 58.666666666666664 100.0 L 58.333333333333336 101.0 L 57.666666666666664 102.0 L 57.333333333333336 103.0 L 56.666666666666664 104.0 L 56.333333333333336 105.0 L 56.0 106.0 L 55.666666666666664 107.0 L 55.0 107.33333333333333 L 54.333333333333336 107.0 L 54.0 106.0 L 54.0 105.0 L 54.0 104.0 L 54.0 103.0 L 54.0 102.0 L 54.0 101.0 L 54.0 100.0 L 54.333333333333336 99.0 L 54.666666666666664 98.0 L 55.333333333333336 97.0 L 56.0 96.0 L 56.666666666666664 95.0 L 57.0 94.0 L 56.666666666666664 93.0 L 56.0 92.33333333333333 L 55.0 92.0 L 54.0 91.66666666666667 L 53.0 91.33333333333333 L 52.0 91.0 L 51.0 91.0 L 50.0 91.0 L 49.0 90.66666666666667 L 48.0 90.33333333333333 L 47.0 90.0 L 46.0 90.0 L 45.0 90.0 L 44.0 89.66666666666667 L 43.0 89.33333333333333 L 42.0 89.0 L 41.0 89.0 L 40.0 88.66666666666667 L 39.0 88.33333333333333 L 38.0 88.0 L 37.0 88.0 L 36.0 88.0 L 35.0 87.66666666666667 L 34.0 87.33333333333333 L 33.0 87.0 L 32.0 87.0 L 31.0 86.66666666666667 L 30.0 86.33333333333333 L 29.0 86.0 L 28.0 86.0 L 27.0 86.0 L 26.0 86.0 L 25.0 86.0 L 24.0 86.0 L 23.0 86.0 L 22.0 86.0 L 21.0 86.0 L 20.0 86.0 L 19.0 86.0 L 18.0 86.0 L 17.0 86.0 L 16.0 86.33333333333333 L 15.0 86.66666666666667 L 14.0 87.0 L 13.0 87.33333333333333 L 12.0 88.0 L 11.0 89.0 L 10.0 90.0 L 9.333333333333334 91.0 L 8.666666666666666 92.0 L 8.333333333333334 93.0 L 8.0 94.0 L 7.666666666666667 95.0 L 7.333333333333333 96.0 L 7.0 97.0 L 7.0 98.0 L 7.0 99.0 L 7.0 100.0 L 7.0 101.0 L 7.0 102.0 L 7.0 103.0 L 7.0 104.0 L 7.0 105.0 L 7.0 106.0 L 7.0 107.0 L 7.0 108.0 L 7.333333333333333 109.0 L 7.666666666666667 110.0 L 8.333333333333334 111.0 L 8.666666666666666 112.0 L 9.333333333333334 113.0 L 10.0 114.0 L 11.0 115.0 L 12.0 116.0 L 13.0 117.0 L 14.0 117.66666666666667 L 15.0 118.33333333333333 L 16.0 118.66666666666667 L 17.0 119.33333333333333 L 18.0 119.66666666666667 L 19.0 120.0 L 20.0 120.0 L 21.0 120.33333333333333 L 22.0 120.66666666666667 L 23.0 121.0 L 24.0 121.0 L 25.0 121.0 L 25.5 121.0 Z" stroke="none" fill="rgb(247,140,31)" />
<path d="M 107.0 85.5 L 107.0 85.0 L 107.33333333333333 84.0 L 107.66666666666667 83.0 L 108.33333333333333 82.0 L 108.66666666666667 81.0 L 109.0 80.0 L 109.33333333333333 79.0 L 109.66666666666667 78.0 L 110.33333333333333 77.0 L 110.66666666666667 76.0 L 111.0 75.0 L 111.33333333333333 74.0 L 111.66666666666667 73.0 L 112.0 72.0 L 112.0 71.0 L 112.0 70.0 L 112.0 69.0 L 112.0 68.0 L 112.0 67.0 L 112.0 66.0 L 112.0 65.0 L 112.0 64.0 L 112.0 63.0 L 112.0 62.0 L 111.66666666666667 61.0 L 111.33333333333333 60.0 L 111.0 59.0 L 111.0 58.0 L 111.0 57.0 L 111.0 56.0 L 110.66666666666667 55.0 L 110.33333333333333 54.0 L 110.0 53.0 L 110.0 52.0 L 110.0 51.0 L 109.66666666666667 50.0 L 109.33333333333333 49.0 L 109.0 48.0 L 108.66666666666667 47.0 L 108.33333333333333 46.0 L 107.66666666666667 45.0 L 107.0 44.0 L 106.0 43.0 L 105.0 42.0 L 104.0 41.0 L 103.0 40.0 L 102.0 39.0 L 101.0 38.0 L 100.0 37.0 L 99.0 36.333333333333336 L 98.0 35.666666666666664 L 97.0 35.333333333333336 L 96.0 34.666666666666664 L 95.0 34.333333333333336 L 94.0 34.0 L 93.0 33.666666666666664 L 92.0 33.333333333333336 L 91.0 33.0 L 90.0 32.666666666666664 L 89.0 32.333333333333336 L 88.0 32.0 L 87.0 32.0 L 86.0 32.0 L 85.0 32.0 L 84.0 32.0 L 83.0 32.0 L 82.33333333333333 32.333333333333336 L 82.0 33.0 L 82.0 34.0 L 82.0 35.0 L 82.0 36.0 L 82.33333333333333 37.0 L 83.0 38.0 L 84.0 39.0 L 85.0 40.0 L 86.0 40.666666666666664 L 87.0 40.666666666666664 L 88.0 40.333333333333336 L 89.0 40.333333333333336 L 90.0 40.666666666666664 L 91.0 41.0 L 92.0 41.333333333333336 L 93.0 42.0 L 94.0 43.0 L 95.0 44.0 L 95.33333333333333 45.0 L 95.0 45.666666666666664 L 94.0 45.666666666666664 L 93.0 45.333333333333336 L 92.0 45.0 L 91.0 45.0 L 90.0 45.0 L 89.0 45.0 L 88.0 45.333333333333336 L 87.0 45.666666666666664 L 86.0 46.0 L 85.0 46.0 L 84.0 46.0 L 83.0 46.0 L 82.0 46.0 L 81.0 46.0 L 80.0 46.333333333333336 L 79.0 46.666666666666664 L 78.0 47.0 L 77.0 47.0 L 76.33333333333333 47.333333333333336 L 76.0 48.0 L 76.0 49.0 L 76.0 50.0 L 76.33333333333333 51.0 L 77.0 52.0 L 77.66666666666667 53.0 L 77.66666666666667 54.0 L 77.33333333333333 55.0 L 77.0 56.0 L 77.33333333333333 57.0 L 78.0 58.0 L 79.0 59.0 L 80.0 60.0 L 81.0 60.666666666666664 L 82.0 61.0 L 83.0 61.0 L 84.0 61.0 L 85.0 60.666666666666664 L 86.0 60.333333333333336 L 87.0 60.0 L 88.0 60.0 L 89.0 60.0 L 90.0 60.333333333333336 L 91.0 61.0 L 92.0 62.0 L 93.0 63.0 L 94.0 64.0 L 94.33333333333333 65.0 L 94.0 66.0 L 93.0 66.66666666666667 L 92.0 67.0 L 91.0 67.33333333333333 L 90.0 67.66666666666667 L 89.0 68.0 L 88.0 68.0 L 87.0 68.0 L 86.0 68.0 L 85.0 68.0 L 84.0 68.0 L 83.0 68.0 L 82.0 68.0 L 81.0 68.0 L 80.0 68.33333333333333 L 79.0 68.66666666666667 L 78.0 69.33333333333333 L 77.33333333333333 70.0 L 77.0 71.0 L 77.0 72.0 L 77.33333333333333 73.0 L 78.0 73.66666666666667 L 79.0 74.0 L 80.0 74.33333333333333 L 81.0 74.66666666666667 L 82.0 75.0 L 83.0 75.0 L 84.0 75.0 L 85.0 75.0 L 86.0 75.0 L 87.0 75.0 L 88.0 75.0 L 89.0 75.0 L 90.0 75.0 L 91.0 75.33333333333333 L 91.66666666666667 76.0 L 92.0 77.0 L 92.0 78.0 L 92.0 79.0 L 92.0 80.0 L 92.0 81.0 L 92.0 82.0 L 92.0 83.0 L 92.0 84.0 L 92.0 85.0 L 92.0 86.0 L 92.33333333333333 87.0 L 93.0 88.0 L 93.66666666666667 89.0 L 94.33333333333333 90.0 L 95.0 91.0 L 96.0 92.0 L 97.0 93.0 L 98.0 93.66666666666667 L 99.0 94.0 L 100.0 93.66666666666667 L 101.0 93.0 L 102.0 92.66666666666667 L 103.0 92.66666666666667 L 104.0 92.66666666666667 L 104.66666666666667 92.0 L 105.33333333333333 91.0 L 105.66666666666667 90.0 L 106.0 89.0 L 106.0 88.0 L 106.33333333333333 87.0 L 106.5 86.5 Z" stroke="none" fill="rgb(255,202,40)" />
<path d="M 88.5 32.5 L 89.0 32.666666666666664 L 90.0 33.0 L 91.0 33.333333333333336 L 92.0 33.666666666666664 L 93.0 34.0 L 94.0 34.333333333333336 L 95.0 34.666666666666664 L 96.0 35.333333333333336 L 97.0 35.666666666666664 L 98.0 36.333333333333336 L 99.0 37.0 L 100.0 38.0 L 101.0 39.0 L 102.0 40.0 L 103.0 41.0 L 104.0 42.0 L 105.0 42.666666666666664 L 106.0 43.0 L 106.66666666666667 42.666666666666664 L 107.0 42.0 L 107.0 41.0 L 107.0 40.0 L 107.0 39.0 L 107.0 38.0 L 107.0 37.0 L 107.0 36.0 L 107.0 35.0 L 107.0 34.0 L 107.0 33.0 L 107.0 32.0 L 107.0 31.0 L 107.0 30.0 L 107.0 29.0 L 107.0 28.0 L 107.0 27.0 L 107.0 26.0 L 107.0 25.0 L 107.0 24.0 L 107.0 23.0 L 107.0 22.0 L 107.0 21.0 L 107.0 20.0 L 107.0 19.0 L 107.0 18.0 L 107.0 17.0 L 107.0 16.0 L 107.0 15.0 L 107.0 14.0 L 107.0 13.0 L 107.0 12.0 L 107.0 11.0 L 107.0 10.0 L 106.66666666666667 9.0 L 106.0 8.0 L 105.0 7.333333333333333 L 104.0 7.0 L 103.0 7.0 L 102.0 6.666666666666667 L 101.0 6.333333333333333 L 100.0 6.0 L 99.0 6.0 L 98.0 5.666666666666667 L 97.0 5.333333333333333 L 96.0 5.0 L 95.0 5.0 L 94.0 4.666666666666667 L 93.0 4.333333333333333 L 92.0 4.0 L 91.0 4.0 L 90.0 3.6666666666666665 L 89.0 3.3333333333333335 L 88.0 3.0 L 87.0 3.3333333333333335 L 86.0 3.6666666666666665 L 85.0 4.0 L 84.0 4.333333333333333 L 83.0 5.0 L 82.33333333333333 6.0 L 82.0 7.0 L 82.0 8.0 L 82.0 9.0 L 82.0 10.0 L 82.0 11.0 L 82.0 12.0 L 82.0 13.0 L 82.0 14.0 L 82.0 15.0 L 81.66666666666667 16.0 L 81.33333333333333 17.0 L 81.0 18.0 L 81.0 19.0 L 81.0 20.0 L 81.0 21.0 L 81.0 22.0 L 81.0 23.0 L 81.0 24.0 L 81.0 25.0 L 81.0 26.0 L 81.0 27.0 L 81.0 28.0 L 81.0 29.0 L 81.0 30.0 L 81.0 31.0 L 81.33333333333333 31.666666666666668 L 82.0 32.0 L 83.0 32.0 L 84.0 32.0 L 85.0 32.0 L 86.0 32.0 L 87.0 32.0 L 87.5 32.0 Z" stroke="none" fill="rgb(158,158,158)" />
<path d="M 82.0 35.5 L 82.0 35.0 L 82.0 34.0 L 82.0 33.0 L 81.66666666666667 32.0 L 81.33333333333333 31.0 L 81.0 30.0 L 81.0 29.0 L 81.0 28.0 L 81.0 27.0 L 81.0 26.0 L 81.0 25.0 L 81.0 24.0 L 81.0 23.0 L 81.0 22.0 L 81.0 21.0 L 81.0 20.0 L 81.0 19.0 L 81.33333333333333 18.0 L 81.66666666666667 17.0 L 82.0 16.0 L 82.0 15.0 L 82.0 14.0 L 82.0 13.0 L 82.0 12.0 L 82.0 11.0 L 82.0 10.0 L 82.0 9.0 L 82.0 8.0 L 82.33333333333333 7.0 L 83.0 6.0 L 83.66666666666667 5.0 L 84.0 4.0 L 83.66666666666667 3.3333333333333335 L 83.0 3.0 L 82.0 3.3333333333333335 L 81.0 3.6666666666666665 L 80.0 4.333333333333333 L 79.0 5.0 L 78.33333333333333 6.0 L 78.0 7.0 L 77.66666666666667 8.0 L 77.33333333333333 9.0 L 77.0 10.0 L 77.0 11.0 L 77.0 12.0 L 77.0 13.0 L 77.0 14.0 L 77.0 15.0 L 77.0 16.0 L 77.0 17.0 L 77.0 18.0 L 77.0 19.0 L 77.0 20.0 L 77.0 21.0 L 77.0 22.0 L 77.0 23.0 L 77.0 24.0 L 77.0 25.0 L 77.0 26.0 L 76.66666666666667 27.0 L 76.33333333333333 28.0 L 76.0 29.0 L 76.0 30.0 L 76.0 31.0 L 76.0 32.0 L 76.0 33.0 L 76.0 34.0 L 76.0 35.0 L 76.0 36.0 L 76.0 37.0 L 76.0 38.0 L 76.0 39.0 L 76.0 40.0 L 76.0 41.0 L 76.0 42.0 L 76.0 43.0 L 76.0 44.0 L 76.0 45.0 L 76.0 46.0 L 76.33333333333333 46.666666666666664 L 77.0 47.0 L 78.0 47.0 L 79.0 47.0 L 79.66666666666667 46.666666666666664 L 80.0 46.0 L 80.0 45.0 L 80.0 44.0 L 80.0 43.0 L 80.0 42.0 L 80.0 41.0 L 80.0 40.0 L 80.0 39.0 L 80.0 38.0 L 80.33333333333333 37.0 L 81.0 36.333333333333336 L 81.5 36.0 Z" stroke="none" fill="rgb(117,117,117)" />
<path d="M 78.5 69.5 L 79.0 69.33333333333333 L 79.66666666666667 68.66666666666667 L 80.0 68.0 L 80.0 67.0 L 79.66666666666667 66.0 L 79.33333333333333 65.0 L 79.0 64.0 L 79.0 63.0 L 79.33333333333333 62.0 L 80.0 61.333333333333336 L 80.66666666666667 60.666666666666664 L 80.66666666666667 60.0 L 80.0 59.0 L 79.0 58.0 L 78.0 57.0 L 77.66666666666667 56.0 L 77.66666666666667 55.0 L 78.0 54.0 L 78.0 53.0 L 77.66666666666667 52.0 L 77.0 51.333333333333336 L 76.0 51.333333333333336 L 75.33333333333333 52.0 L 75.0 53.0 L 75.0 54.0 L 75.0 55.0 L 75.0 56.0 L 75.0 57.0 L 75.0 58.0 L 75.0 59.0 L 75.0 60.0 L 75.0 61.0 L 75.0 62.0 L 75.0 63.0 L 75.0 64.0 L 75.0 65.0 L 75.0 66.0 L 75.0 67.0 L 75.33333333333333 68.0 L 76.0 69.0 L 77.0 69.66666666666667 L 77.5 70.0 Z" stroke="none" fill="rgb(117,117,117)" />
<path d="M 91.0 67.5 L 91.0 67.0 L 91.0 66.0 L 91.0 65.0 L 90.66666666666667 64.0 L 90.0 63.333333333333336 L 89.0 62.666666666666664 L 88.0 62.333333333333336 L 87.0 62.0 L 86.0 61.666666666666664 L 85.0 61.333333333333336 L 84.0 61.0 L 83.0 61.0 L 82.0 61.0 L 81.0 61.0 L 80.0 61.0 L 79.33333333333333 61.333333333333336 L 79.0 62.0 L 79.0 63.0 L 79.0 64.0 L 79.0 65.0 L 79.33333333333333 66.0 L 79.66666666666667 67.0 L 80.33333333333333 67.66666666666667 L 81.0 68.0 L 82.0 68.0 L 83.0 68.0 L 84.0 68.0 L 85.0 68.0 L 86.0 68.0 L 87.0 68.0 L 88.0 68.0 L 89.0 68.0 L 90.0 68.0 L 90.5 68.0 Z" stroke="none" fill="rgb(158,158,158)" />
<path d="M 59.0 100.5 L 59.333333333333336 100.0 L 59.666666666666664 99.0 L 60.333333333333336 98.0 L 61.0 97.0 L 62.0 96.0 L 62.666666666666664 95.0 L 62.666666666666664 94.0 L 62.0 93.33333333333333 L 61.0 93.0 L 60.0 93.0 L 59.0 93.0 L 58.0 93.33333333333333 L 57.0 94.0 L 56.0 95.0 L 55.333333333333336 96.0 L 54.666666666666664 97.0 L 54.333333333333336 98.0 L 54.0 99.0 L 54.0 100.0 L 54.0 101.0 L 54.0 102.0 L 54.0 103.0 L 54.0 104.0 L 54.0 105.0 L 54.0 106.0 L 54.0 107.0 L 54.333333333333336 107.66666666666667 L 55.0 108.0 L 55.666666666666664 107.66666666666667 L 56.0 107.0 L 56.333333333333336 106.0 L 56.666666666666664 105.0 L 57.333333333333336 104.0 L 57.666666666666664 103.0 L 58.333333333333336 102.0 L 58.5 101.5 Z" stroke="none" fill="rgb(199,113,25)" />
<path d="M 91.0 44.5 L 90.66666666666667 44.0 L 90.0 43.333333333333336 L 89.0 42.666666666666664 L 88.0 42.0 L 87.0 41.0 L 86.0 40.0 L 85.0 39.0 L 84.0 38.0 L 83.0 37.0 L 82.0 36.333333333333336 L 81.0 36.0 L 80.33333333333333 36.333333333333336 L 80.0 37.0 L 80.0 38.0 L 80.0 39.0 L 80.0 40.0 L 80.0 41.0 L 80.0 42.0 L 80.0 43.0 L 80.0 44.0 L 80.0 45.0 L 80.33333333333333 45.666666666666664 L 81.0 46.0 L 82.0 46.0 L 83.0 46.0 L 84.0 46.0 L 85.0 46.0 L 86.0 46.0 L 87.0 46.0 L 88.0 45.666666666666664 L 89.0 45.333333333333336 L 90.0 45.0 L 90.5 45.0 Z" stroke="none" fill="rgb(158,158,158)" />
<path d="M 92.5 67.0 L 93.0 67.0 L 94.0 66.66666666666667 L 94.66666666666667 66.0 L 95.0 65.0 L 94.66666666666667 64.0 L 94.0 63.0 L 93.0 62.0 L 92.0 61.0 L 91.0 60.333333333333336 L 90.0 60.0 L 89.0 60.0 L 88.0 60.0 L 87.0 60.0 L 86.0 60.0 L 85.33333333333333 60.333333333333336 L 85.0 61.0 L 85.33333333333333 61.666666666666664 L 86.0 62.0 L 87.0 62.333333333333336 L 88.0 62.666666666666664 L 89.0 63.333333333333336 L 90.0 64.0 L 90.66666666666667 65.0 L 91.0 66.0 L 91.33333333333333 66.66666666666667 L 91.5 67.0 Z" stroke="none" fill="rgb(117,117,117)" />
<path d="M 91.5 45.0 L 92.0 45.333333333333336 L 93.0 45.666666666666664 L 94.0 46.0 L 95.0 46.0 L 96.0 46.0 L 96.66666666666667 45.666666666666664 L 96.66666666666667 45.0 L 96.0 44.0 L 95.0 43.0 L 94.0 42.0 L 93.0 41.333333333333336 L 92.0 41.0 L 91.0 40.666666666666664 L 90.0 40.333333333333336 L 89.0 40.0 L 88.0 40.0 L 87.33333333333333 40.333333333333336 L 87.0 41.0 L 87.33333333333333 42.0 L 88.0 42.666666666666664 L 89.0 43.333333333333336 L 90.0 44.0 L 90.5 44.5 Z" stroke="none" fill="rgb(117,117,117)" />
<path d="M 100.5 57.0 L 100.66666666666667 56.666666666666664 L 100.66666666666667 56.0 L 100.0 55.0 L 99.0 54.333333333333336 L 98.0 53.666666666666664 L 97.0 53.333333333333336 L 96.0 52.666666666666664 L 95.0 52.333333333333336 L 94.0 52.0 L 93.0 52.0 L 92.33333333333333 52.333333333333336 L 92.0 53.0 L 92.33333333333333 53.666666666666664 L 93.0 54.333333333333336 L 94.0 54.666666666666664 L 95.0 55.333333333333336 L 96.0 55.666666666666664 L 97.0 56.333333333333336 L 98.0 56.666666666666664 L 99.0 57.0 L 99.5 57.0 Z" stroke="none" fill="rgb(237,166,1)" />
<path d="M 91.5 13.5 L 91.66666666666667 13.0 L 92.0 12.0 L 92.0 11.0 L 91.66666666666667 10.0 L 91.0 9.333333333333334 L 90.0 9.0 L 89.0 9.0 L 88.0 9.333333333333334 L 87.33333333333333 10.0 L 87.0 11.0 L 87.0 12.0 L 87.33333333333333 13.0 L 88.0 13.666666666666666 L 89.0 14.0 L 90.0 14.0 L 90.5 14.0 Z" stroke="none" fill="rgb(66,66,66)" />
<path d="M 95.5 79.0 L 96.0 79.0 L 97.0 79.0 L 97.66666666666667 78.66666666666667 L 97.66666666666667 78.0 L 97.0 77.33333333333333 L 96.0 76.66666666666667 L 95.0 76.33333333333333 L 94.0 76.0 L 93.33333333333333 76.33333333333333 L 93.0 77.0 L 93.33333333333333 78.0 L 94.0 78.66666666666667 L 94.5 79.0 Z" stroke="none" fill="rgb(237,166,1)" />
<path d="M 75.5 52.0 L 75.66666666666667 51.666666666666664 L 76.0 51.0 L 76.0 50.0 L 76.0 49.0 L 76.0 48.0 L 75.66666666666667 47.333333333333336 L 75.33333333333333 47.333333333333336 L 75.0 48.0 L 75.0 49.0 L 75.0 50.0 L 75.0 51.0 L 75.0 51.5 Z" stroke="none" fill="rgb(0,0,0)" />
<path d="M 102.5 94.0 L 102.66666666666667 93.66666666666667 L 103.0 93.0 L 102.66666666666667 92.33333333333333 L 102.0 92.0 L 101.0 92.33333333333333 L 100.33333333333333 93.0 L 100.33333333333333 93.66666666666667 L 101.0 94.0 L 101.5 94.0 Z" stroke="none" fill="rgb(75,43,9)" />
<path d="M 57.5 94.0 L 58.0 93.66666666666667 L 58.666666666666664 93.0 L 58.666666666666664 92.33333333333333 L 58.0 92.0 L 57.0 92.0 L 56.333333333333336 92.33333333333333 L 56.333333333333336 93.0 L 56.5 93.5 Z" stroke="none" fill="rgb(0,0,0)" />
<path d="M 53.5 112.0 L 54.0 112.0 L 54.666666666666664 111.66666666666667 L 55.0 111.0 L 54.666666666666664 110.33333333333333 L 54.0 110.0 L 53.333333333333336 110.33333333333333 L 53.0 111.0 L 53.0 111.5 Z" stroke="none" fill="rgb(232,132,29)" />
<path d="M 85.5 4.0 L 86.0 4.0 L 86.66666666666667 3.6666666666666665 L 86.66666666666667 3.3333333333333335 L 86.0 3.0 L 85.0 3.0 L 84.33333333333333 3.3333333333333335 L 84.33333333333333 3.6666666666666665 L 84.5 4.0 Z" stroke="none" fill="rgb(0,0,0)" />
<path d="M 107.0 43.5 L 106.66666666666667 43.333333333333336 L 106.33333333333333 43.333333333333336 L 106.33333333333333 43.666666666666664 L 106.5 44.0 Z" stroke="none" fill="rgb(0,0,0)" />
<path d="M 62.5 94.0 L 62.666666666666664 93.66666666666667 L 62.666666666666664 93.33333333333333 L 62.333333333333336 93.33333333333333 L 62.0 93.5 Z" stroke="none" fill="rgb(0,0,0)" />
</svg>
