<?xml version="1.0" encoding="UTF-8" standalone="no"?>
<!DOCTYPE svg PUBLIC "-//W3C//DTD SVG 1.1//EN"
"http://www.w3.org/Graphics/SVG/1.1/DTD/svg11.dtd">
<svg width="128" height="128" xmlns="http://www.w3.org/2000/svg" version="1.1">
<path d="M 101.5 128.0 L 102.0 128.0 L 103.0 128.0 L 104.0 128.0 L 105.0 128.0 L 106.0 128.0 L 107.0 128.0 L 108.0 128.0 L 109.0 128.0 L 110.0 128.0 L 111.0 128.0 L 112.0 128.0 L 113.0 128.0 L 114.0 128.0 L 115.0 128.0 L 116.0 128.0 L 117.0 128.0 L 118.0 128.0 L 119.0 128.0 L 120.0 128.0 L 121.0 128.0 L 122.0 128.0 L 123.0 128.0 L 124.0 128.0 L 125.0 128.0 L 126.0 128.0 L 127.0 128.0 L 127.66666666666667 127.66666666666667 L 128.0 127.0 L 128.0 126.0 L 128.0 125.0 L 128.0 124.0 L 128.0 123.0 L 128.0 122.0 L 128.0 121.0 L 128.0 120.0 L 128.0 119.0 L 128.0 118.0 L 128.0 117.0 L 128.0 116.0 L 128.0 115.0 L 128.0 114.0 L 128.0 113.0 L 128.0 112.0 L 128.0 111.0 L 128.0 110.0 L 128.0 109.0 L 128.0 108.0 L 128.0 107.0 L 128.0 106.0 L 128.0 105.0 L 128.0 104.0 L 128.0 103.0 L 128.0 102.0 L 128.0 101.0 L 128.0 100.0 L 128.0 99.0 L 128.0 98.0 L 128.0 97.0 L 128.0 96.0 L 128.0 95.0 L 128.0 94.0 L 128.0 93.0 L 128.0 92.0 L 128.0 91.0 L 128.0 90.0 L 128.0 89.0 L 128.0 88.0 L 128.0 87.0 L 128.0 86.0 L 128.0 85.0 L 128.0 84.0 L 128.0 83.0 L 128.0 82.0 L 128.0 81.0 L 128.0 80.0 L 128.0 79.0 L 128.0 78.0 L 128.0 77.0 L 128.0 76.0 L 128.0 75.0 L 128.0 74.0 L 128.0 73.0 L 128.0 72.0 L 128.0 71.0 L 128.0 70.0 L 128.0 69.0 L 128.0 68.0 L 128.0 67.0 L 128.0 66.0 L 128.0 65.0 L 128.0 64.0 L 128.0 63.0 L 128.0 62.0 L 128.0 61.0 L 128.0 60.0 L 128.0 59.0 L 128.0 58.0 L 128.0 57.0 L 128.0 56.0 L 128.0 55.0 L 128.0 54.0 L 128.0 53.0 L 128.0 52.0 L 128.0 51.0 L 128.0 50.0 L 128.0 49.0 L 128.0 48.0 L 128.0 47.0 L 128.0 46.0 L 128.0 45.0 L 128.0 44.0 L 128.0 43.0 L 128.0 42.0 L 128.0 41.0 L 128.0 40.0 L 128.0 39.0 L 128.0 38.0 L 128.0 37.0 L 128.0 36.0 L 128.0 35.0 L 128.0 34.0 L 128.0 33.0 L 128.0 32.0 L 128.0 31.0 L 128.0 30.0 L 128.0 29.0 L 128.0 28.0 L 128.0 27.0 L 128.0 26.0 L 128.0 25.0 L 128.0 24.0 L 128.0 23.0 L 128.0 22.0 L 128.0 21.0 L 128.0 20.0 L 128.0 19.0 L 128.0 18.0 L 128.0 17.0 L 128.0 16.0 L 128.0 15.0 L 128.0 14.0 L 128.0 13.0 L 128.0 12.0 L 128.0 11.0 L 128.0 10.0 L 128.0 9.0 L 128.0 8.0 L 128.0 7.0 L 128.0 6.0 L 128.0 5.0 L 128.0 4.0 L 128.0 3.0 L 128.0 2.0 L 128.0 1.0 L 127.66666666666667 0.3333333333333333 L 127.0 0.0 L 126.0 0.0 L 125.0 0.0 L 124.0 0.0 L 123.0 0.0 L 122.0 0.0 L 121.0 0.0 L 120.0 0.0 L 119.0 0.0 L 118.0 0.0 L 117.0 0.0 L 116.0 0.0 L 115.0 0.0 L 114.0 0.0 L 113.0 0.0 L 112.0 0.0 L 111.0 0.0 L 110.0 0.0 L 109.0 0.0 L 108.0 0.0 L 107.0 0.0 L 106.0 0.0 L 105.0 0.0 L 104.0 0.0 L 103.0 0.0 L 102.0 0.0 L 101.0 0.0 L 100.0 0.0 L 99.0 0.0 L 98.0 0.0 L 97.0 0.0 L 96.0 0.0 L 95.0 0.0 L 94.0 0.0 L 93.0 0.0 L 92.0 0.0 L 91.0 0.0 L 90.0 0.0 L 89.0 0.0 L 88.0 0.0 L 87.0 0.0 L 86.0 0.0 L 85.0 0.0 L 84.0 0.0 L 83.0 0.0 L 82.0 0.0 L 81.0 0.0 L 80.0 0.0 L 79.0 0.0 L 78.0 0.0 L 77.0 0.0 L 76.0 0.0 L 75.0 0.0 L 74.0 0.0 L 73.0 0.0 L 72.0 0.0 L 71.0 0.0 L 70.0 0.0 L 69.0 0.0 L 68.0 0.0 L 67.0 0.0 L 66.0 0.0 L 65.0 0.0 L 64.0 0.0 L 63.0 0.0 L 62.0 0.0 L 61.0 0.0 L 60.0 0.0 L 59.0 0.0 L 58.0 0.0 L 57.0 0.0 L 56.0 0.0 L 55.0 0.0 L 54.0 0.0 L 53.0 0.0 L 52.0 0.0 L 51.0 0.0 L 50.0 0.0 L 49.0 0.0 L 48.0 0.0 L 47.0 0.0 L 46.0 0.0 L 45.0 0.0 L 44.0 0.0 L 43.0 0.0 L 42.0 0.0 L 41.0 0.0 L 40.0 0.0 L 39.0 0.0 L 38.0 0.0 L 37.0 0.0 L 36.0 0.0 L 35.0 0.0 L 34.0 0.0 L 33.0 0.0 L 32.0 0.0 L 31.0 0.0 L 30.0 0.0 L 29.0 0.0 L 28.0 0.0 L 27.0 0.0 L 26.0 0.0 L 25.0 0.0 L 24.0 0.0 L 23.0 0.0 L 22.0 0.0 L 21.0 0.0 L 20.0 0.0 L 19.0 0.0 L 18.0 0.0 L 17.0 0.0 L 16.0 0.0 L 15.0 0.0 L 14.0 0.0 L 13.0 0.0 L 12.0 0.0 L 11.0 0.0 L 10.0 0.0 L 9.0 0.0 L 8.0 0.0 L 7.0 0.0 L 6.0 0.0 L 5.0 0.0 L 4.0 0.0 L 3.0 0.0 L 2.0 0.0 L 1.0 0.0 L 0.3333333333333333 0.3333333333333333 L 0.0 1.0 L 0.0 2.0 L 0.0 3.0 L 0.0 4.0 L 0.0 5.0 L 0.0 6.0 L 0.0 7.0 L 0.0 8.0 L 0.0 9.0 L 0.0 10.0 L 0.0 11.0 L 0.0 12.0 L 0.0 13.0 L 0.0 14.0 L 0.0 15.0 L 0.0 16.0 L 0.0 17.0 L 0.0 18.0 L 0.0 19.0 L 0.0 20.0 L 0.0 21.0 L 0.0 22.0 L 0.0 23.0 L 0.0 24.0 L 0.0 25.0 L 0.0 26.0 L 0.0 27.0 L 0.0 28.0 L 0.0 29.0 L 0.0 30.0 L 0.0 31.0 L 0.0 32.0 L 0.0 33.0 L 0.0 34.0 L 0.0 35.0 L 0.0 36.0 L 0.0 37.0 L 0.0 38.0 L 0.0 39.0 L 0.0 40.0 L 0.0 41.0 L 0.0 42.0 L 0.0 43.0 L 0.0 44.0 L 0.0 45.0 L 0.0 46.0 L 0.0 47.0 L 0.0 48.0 L 0.0 49.0 L 0.0 50.0 L 0.0 51.0 L 0.0 52.0 L 0.0 53.0 L 0.0 54.0 L 0.0 55.0 L 0.0 56.0 L 0.0 57.0 L 0.0 58.0 L 0.0 59.0 L 0.0 60.0 L 0.0 61.0 L 0.0 62.0 L 0.0 63.0 L 0.0 64.0 L 0.0 65.0 L 0.0 66.0 L 0.0 67.0 L 0.0 68.0 L 0.0 69.0 L 0.0 70.0 L 0.0 71.0 L 0.0 72.0 L 0.0 73.0 L 0.0 74.0 L 0.0 75.0 L 0.0 76.0 L 0.0 77.0 L 0.0 78.0 L 0.0 79.0 L 0.0 80.0 L 0.0 81.0 L 0.0 82.0 L 0.0 83.0 L 0.0 84.0 L 0.0 85.0 L 0.0 86.0 L 0.0 87.0 L 0.0 88.0 L 0.0 89.0 L 0.0 90.0 L 0.0 91.0 L 0.0 92.0 L 0.0 93.0 L 0.0 94.0 L 0.0 95.0 L 0.0 96.0 L 0.0 97.0 L 0.0 98.0 L 0.0 99.0 L 0.0 100.0 L 0.0 101.0 L 0.0 102.0 L 0.0 103.0 L 0.0 104.0 L 0.0 105.0 L 0.0 106.0 L 0.0 107.0 L 0.0 108.0 L 0.0 109.0 L 0.0 110.0 L 0.0 111.0 L 0.0 112.0 L 0.0 113.0 L 0.0 114.0 L 0.0 115.0 L 0.0 116.0 L 0.0 117.0 L 0.0 118.0 L 0.0 119.0 L 0.0 120.0 L 0.0 121.0 L 0.0 122.0 L 0.0 123.0 L 0.0 124.0 L 0.0 125.0 L 0.0 126.0 L 0.0 127.0 L 0.3333333333333333 127.66666666666667 L 1.0 128.0 L 2.0 128.0 L 3.0 128.0 L 4.0 128.0 L 5.0 128.0 L 6.0 128.0 L 7.0 128.0 L 8.0 128.0 L 9.0 128.0 L 10.0 128.0 L 11.0 128.0 L 12.0 128.0 L 13.0 128.0 L 14.0 128.0 L 15.0 128.0 L 16.0 128.0 L 17.0 128.0 L 18.0 128.0 L 19.0 128.0 L 20.0 128.0 L 21.0 128.0 L 22.0 128.0 L 23.0 128.0 L 24.0 128.0 L 25.0 128.0 L 26.0 128.0 L 27.0 128.0 L 28.0 128.0 L 29.0 128.0 L 30.0 128.0 L 31.0 128.0 L 32.0 128.0 L 33.0 128.0 L 34.0 128.0 L 35.0 128.0 L 36.0 128.0 L 37.0 128.0 L 38.0 128.0 L 39.0 128.0 L 40.0 128.0 L 41.0 128.0 L 42.0 128.0 L 43.0 128.0 L 44.0 128.0 L 45.0 128.0 L 46.0 128.0 L 47.0 128.0 L 48.0 128.0 L 49.0 128.0 L 50.0 128.0 L 51.0 128.0 L 52.0 128.0 L 53.0 128.0 L 54.0 128.0 L 55.0 128.0 L 56.0 128.0 L 57.0 128.0 L 58.0 128.0 L 59.0 128.0 L 60.0 128.0 L 61.0 128.0 L 62.0 128.0 L 63.0 128.0 L 64.0 128.0 L 65.0 128.0 L 66.0 128.0 L 67.0 128.0 L 68.0 128.0 L 69.0 128.0 L 70.0 128.0 L 71.0 128.0 L 72.0 128.0 L 73.0 128.0 L 74.0 128.0 L 75.0 128.0 L 76.0 128.0 L 77.0 128.0 L 78.0 128.0 L 79.0 128.0 L 80.0 128.0 L 81.0 128.0 L 82.0 128.0 L 83.0 128.0 L 84.0 128.0 L 85.0 128.0 L 86.0 128.0 L 87.0 128.0 L 88.0 128.0 L 89.0 128.0 L 90.0 128.0 L 91.0 128.0 L 92.0 128.0 L 93.0 128.0 L 94.0 128.0 L 95.0 128.0 L 96.0 128.0 L 97.0 128.0 L 98.0 128.0 L 99.0 128.0 L 100.0 128.0 L 100.5 128.0 Z" stroke="none" fill="rgb(255,255,255)" />
<path d="M 72.5 91.0 L 73.0 91.0 L 74.0 91.0 L 75.0 91.0 L 76.0 91.0 L 77.0 91.0 L 78.0 91.0 L 79.0 91.0 L 80.0 91.0 L 81.0 91.0 L 82.0 91.0 L 83.0 91.0 L 84.0 91.0 L 85.0 91.0 L 86.0 91.0 L 87.0 91.0 L 88.0 91.0 L 89.0 91.0 L 90.0 91.0 L 91.0 91.0 L 92.0 91.0 L 93.0 91.0 L 94.0 91.0 L 95.0 91.0 L 96.0 91.33333333333333 L 97.0 92.0 L 98.0 93.0 L 98.66666666666667 94.0 L 99.0 95.0 L 99.33333333333333 96.0 L 99.66666666666667 97.0 L 100.0 98.0 L 100.0 99.0 L 100.33333333333333 100.0 L 100.66666666666667 101.0 L 101.0 102.0 L 101.33333333333333 103.0 L 101.66666666666667 104.0 L 102.0 105.0 L 102.33333333333333 106.0 L 102.66666666666667 107.0 L 103.0 108.0 L 103.33333333333333 109.0 L 103.66666666666667 110.0 L 104.33333333333333 111.0 L 105.0 111.66666666666667 L 106.0 112.0 L 107.0 112.0 L 108.0 112.0 L 109.0 112.0 L 110.0 112.0 L 111.0 112.0 L 112.0 112.0 L 113.0 111.66666666666667 L 114.0 111.33333333333333 L 115.0 111.0 L 116.0 110.66666666666667 L 117.0 110.0 L 118.0 109.0 L 118.66666666666667 108.0 L 119.0 107.0 L 119.33333333333333 106.0 L 119.66666666666667 105.0 L 120.0 104.0 L 120.0 103.0 L 120.0 102.0 L 120.0 101.0 L 120.0 100.0 L 120.0 99.0 L 120.0 98.0 L 120.0 97.0 L 120.0 96.0 L 120.0 95.0 L 120.0 94.0 L 120.0 93.0 L 120.0 92.0 L 120.0 91.0 L 120.0 90.0 L 120.0 89.0 L 120.0 88.0 L 120.0 87.0 L 120.0 86.0 L 120.0 85.0 L 120.0 84.0 L 120.0 83.0 L 120.0 82.0 L 120.0 81.0 L 120.0 80.0 L 120.0 79.0 L 120.0 78.0 L 120.0 77.0 L 120.0 76.0 L 120.0 75.0 L 119.66666666666667 74.0 L 119.0 73.0 L 118.0 72.0 L 117.0 71.0 L 116.0 70.33333333333333 L 115.0 70.0 L 114.0 70.0 L 113.0 70.0 L 112.0 70.0 L 111.0 70.0 L 110.0 70.0 L 109.0 70.0 L 108.0 70.0 L 107.0 70.0 L 106.0 70.0 L 105.0 70.0 L 104.0 70.0 L 103.0 70.0 L 102.0 70.0 L 101.33333333333333 70.33333333333333 L 101.0 71.0 L 101.0 72.0 L 101.0 73.0 L 101.0 74.0 L 101.0 75.0 L 101.0 76.0 L 101.0 77.0 L 100.66666666666667 78.0 L 100.0 79.0 L 99.0 80.0 L 98.0 81.0 L 97.0 82.0 L 96.0 83.0 L 95.0 83.66666666666667 L 94.0 84.0 L 93.0 84.0 L 92.0 84.0 L 91.0 84.0 L 90.0 84.0 L 89.0 84.0 L 88.0 84.0 L 87.0 84.0 L 86.0 84.0 L 85.0 84.0 L 84.0 84.0 L 83.0 84.0 L 82.0 84.0 L 81.0 84.0 L 80.0 84.0 L 79.0 84.0 L 78.0 84.0 L 77.0 84.0 L 76.0 84.0 L 75.0 84.0 L 74.0 84.0 L 73.0 84.0 L 72.0 84.0 L 71.0 84.0 L 70.0 84.33333333333333 L 69.0 84.66666666666667 L 68.0 85.0 L 67.0 85.0 L 66.0 85.0 L 65.0 85.0 L 64.0 85.0 L 63.0 85.0 L 62.0 85.0 L 61.0 85.0 L 60.0 85.0 L 59.0 84.66666666666667 L 58.0 84.0 L 57.0 83.33333333333333 L 56.0 83.0 L 55.0 83.0 L 54.0 83.0 L 53.0 83.0 L 52.0 83.0 L 51.0 83.0 L 50.0 83.0 L 49.0 83.0 L 48.0 83.0 L 47.0 83.0 L 46.0 83.0 L 45.0 83.0 L 44.0 83.0 L 43.0 83.0 L 42.0 83.0 L 41.0 83.0 L 40.0 83.0 L 39.0 83.0 L 38.0 83.0 L 37.0 83.0 L 36.0 83.0 L 35.0 83.0 L 34.0 83.0 L 33.0 83.0 L 32.0 82.66666666666667 L 31.0 82.0 L 30.0 81.0 L 29.0 80.0 L 28.0 79.0 L 27.333333333333332 78.0 L 27.0 77.0 L 27.0 76.0 L 27.0 75.0 L 27.0 74.0 L 27.0 73.0 L 27.0 72.0 L 27.0 71.0 L 26.666666666666668 70.33333333333333 L 26.0 70.0 L 25.0 70.0 L 24.0 70.0 L 23.0 70.0 L 22.0 70.0 L 21.0 70.0 L 20.0 70.0 L 19.0 70.0 L 18.0 70.0 L 17.0 70.0 L 16.0 70.0 L 15.0 70.0 L 14.0 70.0 L 13.0 70.0 L 12.0 70.33333333333333 L 11.0 71.0 L 10.0 72.0 L 9.333333333333334 73.0 L 8.666666666666666 74.0 L 8.333333333333334 75.0 L 8.0 76.0 L 8.0 77.0 L 8.0 78.0 L 8.0 79.0 L 8.0 80.0 L 8.0 81.0 L 8.0 82.0 L 8.0 83.0 L 8.0 84.0 L 8.0 85.0 L 8.0 86.0 L 8.0 87.0 L 8.0 88.0 L 8.0 89.0 L 8.0 90.0 L 8.0 91.0 L 8.0 92.0 L 8.0 93.0 L 8.0 94.0 L 8.0 95.0 L 8.0 96.0 L 8.0 97.0 L 8.0 98.0 L 8.0 99.0 L 8.0 100.0 L 8.0 101.0 L 8.0 102.0 L 8.0 103.0 L 8.0 104.0 L 8.333333333333334 105.0 L 8.666666666666666 106.0 L 9.0 107.0 L 9.333333333333334 108.0 L 10.0 109.0 L 11.0 110.0 L 12.0 110.66666666666667 L 13.0 111.0 L 14.0 111.33333333333333 L 15.0 111.66666666666667 L 16.0 112.0 L 17.0 112.0 L 18.0 112.0 L 19.0 112.0 L 20.0 112.0 L 21.0 112.0 L 22.0 112.0 L 23.0 111.66666666666667 L 24.0 111.0 L 24.666666666666668 110.0 L 25.0 109.0 L 25.333333333333332 108.0 L 25.666666666666668 107.0 L 26.0 106.0 L 26.0 105.0 L 26.333333333333332 104.0 L 26.666666666666668 103.0 L 27.0 102.0 L 27.333333333333332 101.0 L 28.0 100.0 L 28.666666666666668 99.0 L 29.0 98.0 L 29.0 97.0 L 29.0 96.0 L 29.0 95.0 L 29.333333333333332 94.0 L 30.0 93.0 L 31.0 92.33333333333333 L 32.0 91.66666666666667 L 33.0 91.33333333333333 L 34.0 91.0 L 35.0 91.0 L 36.0 91.0 L 37.0 91.0 L 38.0 91.0 L 39.0 91.0 L 40.0 91.0 L 41.0 91.0 L 42.0 91.0 L 43.0 91.0 L 44.0 91.0 L 45.0 91.0 L 46.0 91.0 L 47.0 91.0 L 48.0 91.0 L 49.0 91.0 L 50.0 91.0 L 51.0 91.0 L 52.0 91.0 L 53.0 91.0 L 54.0 91.0 L 55.0 91.0 L 56.0 91.0 L 57.0 91.0 L 58.0 91.0 L 59.0 91.0 L 60.0 91.0 L 61.0 91.0 L 62.0 91.0 L 63.0 91.0 L 64.0 91.0 L 65.0 91.0 L 66.0 91.0 L 67.0 91.0 L 68.0 91.0 L 69.0 91.0 L 70.0 91.0 L 71.0 91.0 L 71.5 91.0 Z" stroke="none" fill="rgb(144,164,174)" />
<path d="M 26.5 124.0 L 27.0 124.0 L 28.0 124.0 L 29.0 124.0 L 30.0 124.0 L 31.0 124.0 L 32.0 124.0 L 33.0 124.0 L 34.0 124.0 L 35.0 124.0 L 36.0 124.0 L 37.0 124.0 L 38.0 124.0 L 39.0 124.0 L 40.0 124.0 L 41.0 124.0 L 42.0 124.0 L 43.0 124.0 L 44.0 124.0 L 45.0 124.0 L 46.0 124.0 L 47.0 124.0 L 48.0 124.0 L 49.0 124.0 L 50.0 124.0 L 51.0 124.0 L 52.0 124.0 L 53.0 124.0 L 54.0 124.0 L 55.0 124.0 L 56.0 124.0 L 57.0 124.0 L 58.0 124.0 L 59.0 124.0 L 60.0 124.0 L 61.0 124.0 L 62.0 124.0 L 63.0 124.0 L 64.0 124.0 L 65.0 124.0 L 66.0 124.0 L 67.0 124.0 L 68.0 124.0 L 69.0 124.0 L 70.0 124.0 L 71.0 124.0 L 72.0 124.0 L 73.0 124.0 L 74.0 124.0 L 75.0 124.0 L 76.0 124.0 L 77.0 124.0 L 78.0 124.0 L 79.0 124.0 L 80.0 124.0 L 81.0 124.0 L 82.0 124.0 L 83.0 124.0 L 84.0 124.0 L 85.0 124.0 L 86.0 124.0 L 87.0 124.0 L 88.0 124.0 L 89.0 124.0 L 90.0 124.0 L 91.0 124.0 L 92.0 124.0 L 93.0 124.0 L 94.0 124.0 L 95.0 124.0 L 96.0 124.0 L 97.0 124.0 L 98.0 124.0 L 99.0 124.0 L 100.0 124.0 L 101.0 124.0 L 102.0 124.0 L 103.0 124.0 L 104.0 124.0 L 105.0 123.66666666666667 L 106.0 123.0 L 106.66666666666667 122.0 L 107.0 121.0 L 107.0 120.0 L 107.0 119.0 L 107.0 118.0 L 106.66666666666667 117.0 L 106.33333333333333 116.0 L 106.0 115.0 L 105.66666666666667 114.0 L 105.33333333333333 113.0 L 105.0 112.0 L 104.66666666666667 111.0 L 104.33333333333333 110.0 L 103.66666666666667 109.0 L 103.33333333333333 108.0 L 103.0 107.0 L 102.66666666666667 106.0 L 102.33333333333333 105.0 L 102.0 104.0 L 101.66666666666667 103.0 L 101.33333333333333 102.0 L 101.0 101.0 L 100.66666666666667 100.0 L 100.0 99.33333333333333 L 99.0 99.0 L 98.0 99.0 L 97.33333333333333 99.33333333333333 L 97.0 100.0 L 97.0 101.0 L 97.0 102.0 L 97.0 103.0 L 97.0 104.0 L 97.0 105.0 L 97.33333333333333 106.0 L 97.66666666666667 107.0 L 98.0 108.0 L 98.0 109.0 L 98.0 110.0 L 98.33333333333333 111.0 L 98.66666666666667 112.0 L 99.0 113.0 L 99.0 114.0 L 99.0 115.0 L 99.0 116.0 L 98.66666666666667 117.0 L 98.0 118.0 L 97.0 118.66666666666667 L 96.0 119.0 L 95.0 119.0 L 94.0 119.0 L 93.0 119.0 L 92.0 119.0 L 91.0 119.0 L 90.0 119.0 L 89.0 119.0 L 88.0 119.0 L 87.0 119.0 L 86.0 119.0 L 85.0 119.0 L 84.0 119.0 L 83.0 119.0 L 82.0 119.0 L 81.0 119.0 L 80.0 119.0 L 79.0 119.0 L 78.0 119.0 L 77.0 119.0 L 76.0 119.0 L 75.0 119.0 L 74.0 119.0 L 73.0 119.0 L 72.0 119.0 L 71.0 119.0 L 70.0 119.0 L 69.0 119.0 L 68.0 119.0 L 67.0 119.0 L 66.0 119.0 L 65.0 119.0 L 64.0 119.0 L 63.0 119.0 L 62.0 119.0 L 61.0 119.0 L 60.0 119.0 L 59.0 119.0 L 58.0 119.0 L 57.0 119.0 L 56.0 119.0 L 55.0 119.0 L 54.0 119.0 L 53.0 119.0 L 52.0 119.0 L 51.0 119.0 L 50.0 119.0 L 49.0 119.0 L 48.0 119.0 L 47.0 119.0 L 46.0 119.0 L 45.0 119.0 L 44.0 119.0 L 43.0 119.0 L 42.0 119.0 L 41.0 119.0 L 40.0 119.0 L 39.0 119.0 L 38.0 119.0 L 37.0 119.0 L 36.0 119.0 L 35.0 119.0 L 34.0 119.0 L 33.0 119.0 L 32.0 119.0 L 31.0 118.66666666666667 L 30.0 118.0 L 29.333333333333332 117.0 L 29.0 116.0 L 29.0 115.0 L 29.0 114.0 L 29.333333333333332 113.0 L 29.666666666666668 112.0 L 30.0 111.0 L 30.0 110.0 L 30.0 109.0 L 30.333333333333332 108.0 L 30.666666666666668 107.0 L 31.0 106.0 L 31.0 105.0 L 31.0 104.0 L 31.0 103.0 L 31.0 102.0 L 31.0 101.0 L 31.0 100.0 L 30.666666666666668 99.0 L 30.0 98.33333333333333 L 29.0 98.33333333333333 L 28.0 99.0 L 27.333333333333332 100.0 L 27.0 101.0 L 26.666666666666668 102.0 L 26.333333333333332 103.0 L 26.0 104.0 L 26.0 105.0 L 25.666666666666668 106.0 L 25.333333333333332 107.0 L 25.0 108.0 L 24.666666666666668 109.0 L 24.0 110.0 L 23.333333333333332 111.0 L 23.0 112.0 L 22.666666666666668 113.0 L 22.333333333333332 114.0 L 22.0 115.0 L 21.666666666666668 116.0 L 21.333333333333332 117.0 L 21.0 118.0 L 21.0 119.0 L 21.0 120.0 L 21.0 121.0 L 21.333333333333332 122.0 L 22.0 123.0 L 23.0 123.66666666666667 L 24.0 124.0 L 25.0 124.0 L 25.5 124.0 Z" stroke="none" fill="rgb(97,97,97)" />
<path d="M 95.5 119.0 L 96.0 119.0 L 97.0 119.0 L 98.0 118.66666666666667 L 98.66666666666667 118.0 L 99.0 117.0 L 99.0 116.0 L 99.0 115.0 L 99.0 114.0 L 99.0 113.0 L 99.0 112.0 L 98.66666666666667 111.0 L 98.33333333333333 110.0 L 98.0 109.0 L 98.0 108.0 L 98.0 107.0 L 97.66666666666667 106.0 L 97.33333333333333 105.0 L 97.0 104.0 L 97.0 103.0 L 97.0 102.0 L 97.0 101.0 L 97.33333333333333 100.0 L 98.0 99.33333333333333 L 99.0 99.0 L 99.66666666666667 98.66666666666667 L 100.0 98.0 L 100.0 97.0 L 99.66666666666667 96.0 L 99.33333333333333 95.0 L 99.0 94.0 L 98.66666666666667 93.0 L 98.0 92.0 L 97.0 91.33333333333333 L 96.0 91.0 L 95.0 91.0 L 94.0 91.0 L 93.0 91.0 L 92.0 91.0 L 91.0 91.0 L 90.0 91.0 L 89.0 91.0 L 88.0 91.0 L 87.0 91.0 L 86.0 91.0 L 85.0 91.0 L 84.0 91.0 L 83.0 91.0 L 82.0 91.0 L 81.0 91.0 L 80.0 91.0 L 79.0 91.0 L 78.0 91.0 L 77.0 91.0 L 76.0 91.0 L 75.0 91.0 L 74.0 91.0 L 73.0 91.0 L 72.0 91.0 L 71.0 91.0 L 70.0 91.0 L 69.0 91.0 L 68.0 91.0 L 67.0 91.0 L 66.0 91.0 L 65.0 91.0 L 64.0 91.0 L 63.0 91.0 L 62.0 91.0 L 61.0 91.0 L 60.0 91.0 L 59.0 91.0 L 58.0 91.0 L 57.0 91.0 L 56.0 91.0 L 55.0 91.0 L 54.0 91.0 L 53.0 91.0 L 52.0 91.0 L 51.0 91.0 L 50.0 91.0 L 49.0 91.0 L 48.0 91.0 L 47.0 91.0 L 46.0 91.0 L 45.0 91.0 L 44.0 91.0 L 43.0 91.0 L 42.0 91.0 L 41.0 91.0 L 40.0 91.0 L 39.0 91.0 L 38.0 91.0 L 37.0 91.0 L 36.0 91.0 L 35.0 91.0 L 34.0 91.0 L 33.0 91.0 L 32.0 91.33333333333333 L 31.0 91.66666666666667 L 30.0 92.33333333333333 L 29.333333333333332 93.0 L 29.0 94.0 L 29.0 95.0 L 29.0 96.0 L 29.0 97.0 L 29.333333333333332 98.0 L 30.0 99.0 L 30.666666666666668 100.0 L 31.0 101.0 L 31.0 102.0 L 31.0 103.0 L 31.0 104.0 L 31.0 105.0 L 30.666666666666668 106.0 L 30.333333333333332 107.0 L 30.0 108.0 L 30.0 109.0 L 30.0 110.0 L 29.666666666666668 111.0 L 29.333333333333332 112.0 L 29.0 113.0 L 29.0 114.0 L 29.0 115.0 L 29.0 116.0 L 29.0 117.0 L 29.333333333333332 118.0 L 30.0 118.66666666666667 L 31.0 119.0 L 32.0 119.0 L 33.0 119.0 L 34.0 119.0 L 35.0 119.0 L 36.0 119.0 L 37.0 119.0 L 38.0 119.0 L 39.0 119.0 L 40.0 119.0 L 41.0 119.0 L 42.0 119.0 L 43.0 119.0 L 44.0 119.0 L 45.0 119.0 L 46.0 119.0 L 47.0 119.0 L 48.0 119.0 L 49.0 119.0 L 50.0 119.0 L 51.0 119.0 L 52.0 119.0 L 53.0 119.0 L 54.0 119.0 L 55.0 119.0 L 56.0 119.0 L 57.0 119.0 L 58.0 119.0 L 59.0 119.0 L 60.0 119.0 L 61.0 119.0 L 62.0 119.0 L 63.0 119.0 L 64.0 119.0 L 65.0 119.0 L 66.0 119.0 L 67.0 119.0 L 68.0 119.0 L 69.0 119.0 L 70.0 119.0 L 71.0 119.0 L 72.0 119.0 L 73.0 119.0 L 74.0 119.0 L 75.0 119.0 L 76.0 119.0 L 77.0 119.0 L 78.0 119.0 L 79.0 119.0 L 80.0 119.0 L 81.0 119.0 L 82.0 119.0 L 83.0 119.0 L 84.0 119.0 L 85.0 119.0 L 86.0 119.0 L 87.0 119.0 L 88.0 119.0 L 89.0 119.0 L 90.0 119.0 L 91.0 119.0 L 92.0 119.0 L 93.0 119.0 L 94.0 119.0 L 94.5 119.0 Z" stroke="none" fill="rgb(33,33,33)" />
<path d="M 59.5 69.0 L 60.0 69.0 L 61.0 69.0 L 62.0 69.0 L 63.0 69.0 L 64.0 69.0 L 65.0 69.0 L 66.0 69.0 L 67.0 69.0 L 68.0 69.0 L 69.0 69.0 L 70.0 69.0 L 71.0 69.0 L 72.0 69.0 L 73.0 69.0 L 74.0 69.0 L 75.0 69.0 L 76.0 69.0 L 77.0 69.0 L 78.0 69.0 L 79.0 69.0 L 80.0 69.0 L 81.0 69.0 L 82.0 69.0 L 83.0 69.0 L 84.0 69.0 L 85.0 69.0 L 86.0 69.0 L 87.0 69.0 L 88.0 69.0 L 89.0 69.0 L 90.0 69.0 L 91.0 69.0 L 92.0 69.0 L 93.0 69.0 L 94.0 69.0 L 95.0 69.0 L 96.0 68.66666666666667 L 96.66666666666667 68.0 L 97.0 67.0 L 97.0 66.0 L 97.0 65.0 L 96.66666666666667 64.0 L 96.33333333333333 63.0 L 96.0 62.0 L 96.33333333333333 61.0 L 96.66666666666667 60.0 L 97.0 59.0 L 97.0 58.0 L 96.66666666666667 57.0 L 96.33333333333333 56.0 L 96.0 55.0 L 96.0 54.0 L 95.66666666666667 53.0 L 95.33333333333333 52.0 L 95.0 51.0 L 94.66666666666667 50.0 L 94.33333333333333 49.0 L 94.0 48.0 L 94.0 47.0 L 93.66666666666667 46.0 L 93.33333333333333 45.0 L 93.0 44.0 L 92.66666666666667 43.0 L 92.33333333333333 42.0 L 91.66666666666667 41.0 L 91.0 40.0 L 90.0 39.333333333333336 L 89.0 39.0 L 88.0 39.0 L 87.0 39.0 L 86.0 39.0 L 85.0 39.0 L 84.0 39.0 L 83.0 39.0 L 82.0 39.0 L 81.0 39.0 L 80.0 39.0 L 79.0 39.0 L 78.0 39.0 L 77.0 39.0 L 76.0 39.0 L 75.0 39.0 L 74.0 39.0 L 73.0 39.0 L 72.0 39.0 L 71.0 39.0 L 70.0 39.0 L 69.0 39.0 L 68.0 39.0 L 67.0 39.0 L 66.0 39.0 L 65.0 39.0 L 64.0 39.0 L 63.0 39.0 L 62.0 39.0 L 61.0 39.0 L 60.0 39.0 L 59.0 39.0 L 58.0 39.0 L 57.0 39.0 L 56.0 39.0 L 55.0 39.0 L 54.0 39.0 L 53.0 39.0 L 52.0 39.0 L 51.0 39.0 L 50.0 39.0 L 49.0 39.0 L 48.0 39.0 L 47.0 39.0 L 46.0 39.0 L 45.0 39.0 L 44.0 39.0 L 43.0 39.0 L 42.0 39.0 L 41.0 39.0 L 40.0 39.333333333333336 L 39.0 39.666666666666664 L 38.0 40.333333333333336 L 37.333333333333336 41.0 L 37.0 42.0 L 37.0 43.0 L 37.0 44.0 L 36.666666666666664 45.0 L 36.333333333333336 46.0 L 36.0 47.0 L 35.666666666666664 48.0 L 35.333333333333336 49.0 L 35.0 50.0 L 35.0 51.0 L 34.666666666666664 52.0 L 34.333333333333336 53.0 L 34.0 54.0 L 34.0 55.0 L 33.666666666666664 56.0 L 33.333333333333336 57.0 L 33.0 58.0 L 33.0 59.0 L 33.0 60.0 L 32.666666666666664 61.0 L 32.333333333333336 62.0 L 32.0 63.0 L 32.0 64.0 L 32.0 65.0 L 32.0 66.0 L 32.0 67.0 L 32.0 68.0 L 32.333333333333336 68.66666666666667 L 33.0 69.0 L 34.0 69.0 L 35.0 69.0 L 36.0 69.0 L 37.0 69.0 L 38.0 69.0 L 39.0 69.0 L 40.0 69.0 L 41.0 69.0 L 42.0 69.0 L 43.0 69.0 L 44.0 69.0 L 45.0 69.0 L 46.0 69.0 L 47.0 69.0 L 48.0 69.0 L 49.0 69.0 L 50.0 69.0 L 51.0 69.0 L 52.0 69.0 L 53.0 69.0 L 54.0 69.0 L 55.0 69.0 L 56.0 69.0 L 57.0 69.0 L 58.0 69.0 L 58.5 69.0 Z" stroke="none" fill="rgb(144,164,174)" />
<path d="M 68.5 85.0 L 69.0 85.0 L 70.0 84.66666666666667 L 71.0 84.33333333333333 L 72.0 84.0 L 73.0 84.0 L 74.0 84.0 L 75.0 84.0 L 76.0 84.0 L 77.0 84.0 L 78.0 84.0 L 79.0 84.0 L 80.0 84.0 L 81.0 84.0 L 82.0 84.0 L 83.0 84.0 L 84.0 84.0 L 85.0 84.0 L 86.0 84.0 L 87.0 84.0 L 88.0 84.0 L 89.0 84.0 L 90.0 84.0 L 91.0 84.0 L 92.0 84.0 L 93.0 84.0 L 94.0 84.0 L 95.0 84.0 L 96.0 83.66666666666667 L 97.0 83.0 L 98.0 82.0 L 99.0 81.0 L 100.0 80.0 L 100.66666666666667 79.0 L 101.0 78.0 L 101.0 77.0 L 101.0 76.0 L 101.0 75.0 L 101.0 74.0 L 101.0 73.0 L 101.0 72.0 L 101.33333333333333 71.0 L 101.66666666666667 70.0 L 101.66666666666667 69.0 L 101.0 68.0 L 100.0 67.0 L 99.33333333333333 66.0 L 99.0 65.0 L 99.0 64.0 L 98.66666666666667 63.0 L 98.33333333333333 62.0 L 98.0 61.0 L 97.66666666666667 60.333333333333336 L 97.0 60.0 L 96.33333333333333 60.333333333333336 L 96.0 61.0 L 96.0 62.0 L 96.0 63.0 L 96.33333333333333 64.0 L 96.66666666666667 65.0 L 97.0 66.0 L 96.66666666666667 67.0 L 96.0 68.0 L 95.0 68.66666666666667 L 94.0 69.0 L 93.0 69.0 L 92.0 69.0 L 91.0 69.0 L 90.0 69.0 L 89.0 69.0 L 88.0 69.0 L 87.0 69.0 L 86.0 69.0 L 85.0 69.0 L 84.0 69.0 L 83.0 69.0 L 82.0 69.0 L 81.0 69.0 L 80.0 69.0 L 79.0 69.0 L 78.0 69.0 L 77.0 69.0 L 76.0 69.0 L 75.0 69.0 L 74.0 69.0 L 73.0 69.0 L 72.0 69.0 L 71.0 69.0 L 70.0 69.0 L 69.0 69.0 L 68.0 69.0 L 67.0 69.0 L 66.0 69.0 L 65.0 69.0 L 64.0 69.0 L 63.0 69.0 L 62.0 69.0 L 61.0 69.0 L 60.0 69.0 L 59.0 69.0 L 58.0 69.0 L 57.0 69.0 L 56.0 69.0 L 55.0 69.0 L 54.0 69.0 L 53.0 69.0 L 52.0 69.0 L 51.0 69.0 L 50.0 69.0 L 49.0 69.0 L 48.0 69.0 L 47.0 69.0 L 46.0 69.0 L 45.0 69.0 L 44.0 69.0 L 43.0 69.0 L 42.0 69.0 L 41.0 69.0 L 40.0 69.0 L 39.0 69.0 L 38.0 69.0 L 37.0 69.0 L 36.0 69.0 L 35.0 69.0 L 34.0 69.0 L 33.0 68.66666666666667 L 32.333333333333336 68.0 L 32.0 67.0 L 32.0 66.0 L 32.0 65.0 L 32.0 64.0 L 32.333333333333336 63.0 L 32.666666666666664 62.0 L 33.0 61.0 L 33.0 60.0 L 33.0 59.0 L 33.0 58.0 L 32.666666666666664 57.333333333333336 L 32.0 57.0 L 31.333333333333332 57.333333333333336 L 31.0 58.0 L 30.666666666666668 59.0 L 30.333333333333332 60.0 L 30.0 61.0 L 30.0 62.0 L 29.666666666666668 63.0 L 29.333333333333332 64.0 L 29.0 65.0 L 28.666666666666668 66.0 L 28.333333333333332 67.0 L 28.0 68.0 L 27.666666666666668 69.0 L 27.333333333333332 70.0 L 27.0 71.0 L 27.0 72.0 L 27.0 73.0 L 27.0 74.0 L 27.0 75.0 L 27.0 76.0 L 27.0 77.0 L 27.0 78.0 L 27.333333333333332 79.0 L 28.0 80.0 L 29.0 81.0 L 30.0 82.0 L 31.0 82.66666666666667 L 32.0 83.0 L 33.0 83.0 L 34.0 83.0 L 35.0 83.0 L 36.0 83.0 L 37.0 83.0 L 38.0 83.0 L 39.0 83.0 L 40.0 83.0 L 41.0 83.0 L 42.0 83.0 L 43.0 83.0 L 44.0 83.0 L 45.0 83.0 L 46.0 83.0 L 47.0 83.0 L 48.0 83.0 L 49.0 83.0 L 50.0 83.0 L 51.0 83.0 L 52.0 83.0 L 53.0 83.0 L 54.0 83.0 L 55.0 83.0 L 56.0 83.33333333333333 L 57.0 84.0 L 58.0 84.66666666666667 L 59.0 85.0 L 60.0 85.0 L 61.0 85.0 L 62.0 85.0 L 63.0 85.0 L 64.0 85.0 L 65.0 85.0 L 66.0 85.0 L 67.0 85.0 L 67.5 85.0 Z" stroke="none" fill="rgb(96,125,139)" />
<path d="M 88.5 37.0 L 89.0 37.0 L 90.0 37.0 L 90.66666666666667 36.666666666666664 L 91.33333333333333 36.0 L 91.66666666666667 35.0 L 92.0 34.0 L 92.0 33.0 L 92.0 32.0 L 92.0 31.0 L 92.0 30.0 L 92.0 29.0 L 91.66666666666667 28.0 L 91.33333333333333 27.0 L 91.0 26.0 L 91.0 25.0 L 91.0 24.0 L 91.0 23.0 L 91.0 22.0 L 91.0 21.0 L 91.0 20.0 L 91.0 19.0 L 91.0 18.0 L 91.0 17.0 L 91.0 16.0 L 91.0 15.0 L 91.0 14.0 L 91.0 13.0 L 91.0 12.0 L 90.66666666666667 11.333333333333334 L 90.0 11.0 L 89.0 11.0 L 88.0 11.0 L 87.0 11.0 L 86.0 11.0 L 85.0 11.0 L 84.0 11.0 L 83.0 11.0 L 82.0 11.0 L 81.0 11.0 L 80.0 11.0 L 79.0 11.0 L 78.0 11.0 L 77.0 11.0 L 76.0 11.0 L 75.0 11.0 L 74.0 11.0 L 73.0 11.0 L 72.0 11.0 L 71.0 11.0 L 70.0 11.0 L 69.0 11.0 L 68.0 11.0 L 67.0 11.0 L 66.0 11.0 L 65.0 11.0 L 64.0 11.0 L 63.0 11.0 L 62.0 11.0 L 61.0 11.0 L 60.0 11.0 L 59.0 11.0 L 58.0 11.0 L 57.0 11.0 L 56.0 11.0 L 55.0 11.0 L 54.0 11.0 L 53.0 11.0 L 52.0 11.0 L 51.0 11.0 L 50.0 11.0 L 49.0 11.0 L 48.0 11.0 L 47.0 11.0 L 46.0 11.0 L 45.0 11.0 L 44.0 11.0 L 43.0 11.0 L 42.0 11.0 L 41.0 11.0 L 40.0 11.333333333333334 L 39.333333333333336 12.0 L 39.0 13.0 L 39.0 14.0 L 39.0 15.0 L 39.0 16.0 L 39.0 17.0 L 39.0 18.0 L 39.0 19.0 L 39.0 20.0 L 39.0 21.0 L 39.333333333333336 22.0 L 39.666666666666664 23.0 L 40.0 24.0 L 40.0 25.0 L 40.0 26.0 L 40.0 27.0 L 40.0 28.0 L 40.0 29.0 L 40.0 30.0 L 40.0 31.0 L 40.0 32.0 L 40.0 33.0 L 40.0 34.0 L 40.0 35.0 L 40.333333333333336 36.0 L 41.0 36.666666666666664 L 42.0 37.0 L 43.0 37.0 L 44.0 37.0 L 45.0 37.0 L 46.0 37.0 L 47.0 37.0 L 48.0 37.0 L 49.0 37.0 L 50.0 37.0 L 51.0 37.0 L 52.0 37.0 L 53.0 37.0 L 54.0 37.0 L 55.0 37.0 L 56.0 37.0 L 57.0 37.0 L 58.0 37.0 L 59.0 37.0 L 60.0 37.0 L 61.0 37.0 L 62.0 37.0 L 63.0 37.0 L 64.0 37.0 L 65.0 37.0 L 66.0 37.0 L 67.0 37.0 L 68.0 37.0 L 69.0 37.0 L 70.0 37.0 L 71.0 37.0 L 72.0 37.0 L 73.0 37.0 L 74.0 37.0 L 75.0 37.0 L 76.0 37.0 L 77.0 37.0 L 78.0 37.0 L 79.0 37.0 L 80.0 37.0 L 81.0 37.0 L 82.0 37.0 L 83.0 37.0 L 84.0 37.0 L 85.0 37.0 L 86.0 37.0 L 87.0 37.0 L 87.5 37.0 Z" stroke="none" fill="rgb(238,238,238)" />
<path d="M 35.5 113.0 L 36.0 113.0 L 37.0 113.0 L 38.0 113.0 L 39.0 113.0 L 40.0 113.0 L 41.0 113.0 L 42.0 113.0 L 43.0 113.0 L 44.0 113.0 L 45.0 113.0 L 46.0 113.0 L 47.0 113.0 L 48.0 113.0 L 49.0 113.0 L 50.0 113.0 L 51.0 113.0 L 52.0 113.0 L 53.0 113.0 L 54.0 113.0 L 55.0 113.0 L 56.0 113.0 L 57.0 113.0 L 58.0 113.0 L 59.0 113.0 L 60.0 113.0 L 61.0 113.0 L 62.0 113.0 L 63.0 113.0 L 64.0 113.0 L 65.0 113.0 L 66.0 113.0 L 67.0 113.0 L 68.0 113.0 L 69.0 113.0 L 70.0 113.0 L 71.0 113.0 L 72.0 113.0 L 72.66666666666667 112.66666666666667 L 73.33333333333333 112.0 L 74.0 111.33333333333333 L 75.0 110.66666666666667 L 76.0 110.33333333333333 L 77.0 109.66666666666667 L 78.0 109.33333333333333 L 79.0 108.66666666666667 L 80.0 108.33333333333333 L 81.0 107.66666666666667 L 82.0 107.33333333333333 L 83.0 106.66666666666667 L 84.0 106.33333333333333 L 85.0 105.66666666666667 L 86.0 105.66666666666667 L 87.0 105.66666666666667 L 88.0 106.33333333333333 L 89.0 106.66666666666667 L 90.0 107.33333333333333 L 91.0 107.66666666666667 L 92.0 108.0 L 93.0 108.0 L 93.66666666666667 107.66666666666667 L 94.0 107.0 L 94.0 106.0 L 94.0 105.0 L 94.0 104.0 L 94.0 103.0 L 94.0 102.0 L 94.0 101.0 L 93.66666666666667 100.33333333333333 L 93.0 100.0 L 92.0 100.0 L 91.0 100.0 L 90.0 100.0 L 89.0 100.0 L 88.0 100.0 L 87.0 100.0 L 86.0 100.0 L 85.0 100.0 L 84.0 100.0 L 83.0 100.0 L 82.0 100.0 L 81.0 100.0 L 80.0 100.0 L 79.0 100.0 L 78.0 100.0 L 77.0 100.0 L 76.0 100.0 L 75.0 100.0 L 74.0 100.0 L 73.0 100.0 L 72.0 100.0 L 71.0 100.0 L 70.0 100.0 L 69.0 100.0 L 68.0 100.0 L 67.0 100.0 L 66.0 100.0 L 65.0 99.66666666666667 L 64.0 99.33333333333333 L 63.0 99.0 L 62.0 99.0 L 61.0 99.0 L 60.0 99.0 L 59.0 99.0 L 58.0 99.0 L 57.0 99.0 L 56.0 99.0 L 55.0 99.0 L 54.0 99.0 L 53.0 99.0 L 52.0 99.0 L 51.0 99.0 L 50.0 99.0 L 49.0 99.0 L 48.0 99.0 L 47.0 99.0 L 46.0 99.0 L 45.0 99.0 L 44.0 99.0 L 43.0 99.0 L 42.0 99.33333333333333 L 41.0 99.66666666666667 L 40.0 100.0 L 39.0 100.0 L 38.0 100.0 L 37.0 100.33333333333333 L 36.333333333333336 101.0 L 35.666666666666664 102.0 L 35.333333333333336 103.0 L 35.0 104.0 L 34.666666666666664 105.0 L 34.333333333333336 106.0 L 34.0 107.0 L 34.0 108.0 L 33.666666666666664 109.0 L 33.333333333333336 110.0 L 33.0 111.0 L 33.0 112.0 L 33.333333333333336 112.66666666666667 L 34.0 113.0 L 34.5 113.0 Z" stroke="none" fill="rgb(255,255,255)" />
<path d="M 23.5 70.0 L 24.0 70.0 L 25.0 70.0 L 26.0 70.0 L 27.0 70.0 L 27.666666666666668 69.66666666666667 L 28.0 69.0 L 28.333333333333332 68.0 L 28.666666666666668 67.0 L 29.0 66.0 L 29.333333333333332 65.0 L 29.666666666666668 64.0 L 30.0 63.0 L 30.0 62.0 L 30.333333333333332 61.0 L 30.666666666666668 60.0 L 31.0 59.0 L 31.333333333333332 58.0 L 32.0 57.333333333333336 L 33.0 57.0 L 33.666666666666664 56.666666666666664 L 34.0 56.0 L 34.0 55.0 L 34.333333333333336 54.0 L 34.666666666666664 53.0 L 35.0 52.0 L 35.0 51.0 L 35.333333333333336 50.0 L 35.666666666666664 49.0 L 36.0 48.0 L 36.333333333333336 47.0 L 36.666666666666664 46.0 L 37.0 45.0 L 37.0 44.0 L 37.0 43.0 L 37.0 42.0 L 36.666666666666664 41.0 L 36.0 40.0 L 35.0 39.333333333333336 L 34.0 39.0 L 33.0 39.0 L 32.0 39.0 L 31.0 39.0 L 30.0 39.0 L 29.0 39.0 L 28.0 39.0 L 27.0 39.0 L 26.0 39.0 L 25.0 39.0 L 24.0 39.0 L 23.0 39.0 L 22.0 39.0 L 21.0 39.333333333333336 L 20.0 40.0 L 19.0 41.0 L 18.0 42.0 L 17.333333333333332 43.0 L 16.666666666666668 44.0 L 16.333333333333332 45.0 L 16.0 46.0 L 15.666666666666666 47.0 L 15.333333333333334 48.0 L 15.0 49.0 L 14.666666666666666 50.0 L 14.333333333333334 51.0 L 14.0 52.0 L 14.0 53.0 L 13.666666666666666 54.0 L 13.333333333333334 55.0 L 13.0 56.0 L 12.666666666666666 57.0 L 12.333333333333334 58.0 L 12.0 59.0 L 11.666666666666666 60.0 L 11.333333333333334 61.0 L 11.0 62.0 L 11.0 63.0 L 10.666666666666666 64.0 L 10.333333333333334 65.0 L 10.0 66.0 L 9.666666666666666 67.0 L 9.333333333333334 68.0 L 9.0 69.0 L 9.0 70.0 L 9.0 71.0 L 9.0 72.0 L 9.333333333333334 72.66666666666667 L 10.0 72.66666666666667 L 11.0 72.0 L 12.0 71.0 L 13.0 70.33333333333333 L 14.0 70.0 L 15.0 70.0 L 16.0 70.0 L 17.0 70.0 L 18.0 70.0 L 19.0 70.0 L 20.0 70.0 L 21.0 70.0 L 22.0 70.0 L 22.5 70.0 Z" stroke="none" fill="rgb(207,216,220)" />
<path d="M 105.5 70.0 L 106.0 70.0 L 107.0 70.0 L 108.0 70.0 L 109.0 70.0 L 110.0 70.0 L 111.0 70.0 L 112.0 70.0 L 113.0 70.0 L 114.0 70.0 L 115.0 70.33333333333333 L 116.0 71.0 L 117.0 72.0 L 118.0 72.66666666666667 L 118.66666666666667 72.66666666666667 L 119.0 72.0 L 119.0 71.0 L 119.0 70.0 L 119.0 69.0 L 118.66666666666667 68.0 L 118.33333333333333 67.0 L 118.0 66.0 L 117.66666666666667 65.0 L 117.33333333333333 64.0 L 116.66666666666667 63.0 L 116.33333333333333 62.0 L 116.0 61.0 L 115.66666666666667 60.0 L 115.33333333333333 59.0 L 114.66666666666667 58.0 L 114.33333333333333 57.0 L 114.0 56.0 L 113.66666666666667 55.0 L 113.33333333333333 54.0 L 112.66666666666667 53.0 L 112.33333333333333 52.0 L 112.0 51.0 L 111.66666666666667 50.0 L 111.33333333333333 49.0 L 110.66666666666667 48.0 L 110.33333333333333 47.0 L 110.0 46.0 L 109.66666666666667 45.0 L 109.33333333333333 44.0 L 108.66666666666667 43.0 L 108.33333333333333 42.0 L 107.66666666666667 41.0 L 107.0 40.333333333333336 L 106.0 39.666666666666664 L 105.0 39.333333333333336 L 104.0 39.0 L 103.0 39.0 L 102.0 39.0 L 101.0 39.0 L 100.0 39.333333333333336 L 99.0 39.666666666666664 L 98.0 40.0 L 97.0 40.0 L 96.0 40.0 L 95.0 40.0 L 94.0 40.0 L 93.0 40.333333333333336 L 92.33333333333333 41.0 L 92.0 42.0 L 92.33333333333333 43.0 L 92.66666666666667 44.0 L 93.0 45.0 L 93.33333333333333 46.0 L 93.66666666666667 47.0 L 94.0 48.0 L 94.0 49.0 L 94.33333333333333 50.0 L 94.66666666666667 51.0 L 95.0 52.0 L 95.33333333333333 53.0 L 95.66666666666667 54.0 L 96.0 55.0 L 96.0 56.0 L 96.33333333333333 57.0 L 96.66666666666667 58.0 L 97.0 59.0 L 97.33333333333333 60.0 L 97.66666666666667 61.0 L 98.0 62.0 L 98.33333333333333 63.0 L 98.66666666666667 64.0 L 99.0 65.0 L 99.0 66.0 L 99.33333333333333 67.0 L 100.0 68.0 L 101.0 69.0 L 102.0 69.66666666666667 L 103.0 70.0 L 104.0 70.0 L 104.5 70.0 Z" stroke="none" fill="rgb(207,216,220)" />
<path d="M 72.5 11.0 L 73.0 11.0 L 74.0 11.0 L 75.0 11.0 L 76.0 11.0 L 77.0 11.0 L 78.0 11.0 L 79.0 11.0 L 80.0 11.0 L 81.0 11.0 L 82.0 11.0 L 83.0 11.0 L 84.0 11.0 L 85.0 11.0 L 86.0 11.0 L 87.0 11.0 L 88.0 11.0 L 89.0 11.0 L 90.0 11.0 L 90.66666666666667 10.666666666666666 L 91.0 10.0 L 90.66666666666667 9.0 L 90.33333333333333 8.0 L 89.66666666666667 7.333333333333333 L 89.0 7.0 L 88.0 7.0 L 87.0 7.0 L 86.0 7.0 L 85.0 7.0 L 84.0 7.0 L 83.0 7.0 L 82.0 7.0 L 81.0 7.0 L 80.0 7.0 L 79.0 7.0 L 78.0 7.0 L 77.0 7.0 L 76.0 7.0 L 75.0 7.0 L 74.0 7.0 L 73.0 7.0 L 72.0 7.0 L 71.0 7.0 L 70.0 7.0 L 69.0 7.0 L 68.0 7.0 L 67.0 7.0 L 66.0 7.0 L 65.0 7.0 L 64.0 7.0 L 63.0 7.0 L 62.0 7.0 L 61.0 7.0 L 60.0 7.0 L 59.0 7.0 L 58.0 7.0 L 57.0 7.0 L 56.0 7.0 L 55.0 7.0 L 54.0 7.0 L 53.0 7.0 L 52.0 7.0 L 51.0 7.0 L 50.0 7.0 L 49.0 7.0 L 48.0 7.0 L 47.0 7.0 L 46.0 7.0 L 45.0 7.0 L 44.0 7.0 L 43.0 7.0 L 42.0 7.0 L 41.0 7.0 L 40.0 7.0 L 39.0 7.0 L 38.333333333333336 7.333333333333333 L 38.0 8.0 L 38.0 9.0 L 38.333333333333336 10.0 L 39.0 10.666666666666666 L 40.0 11.0 L 41.0 11.0 L 42.0 11.0 L 43.0 11.0 L 44.0 11.0 L 45.0 11.0 L 46.0 11.0 L 47.0 11.0 L 48.0 11.0 L 49.0 11.0 L 50.0 11.0 L 51.0 11.0 L 52.0 11.0 L 53.0 11.0 L 54.0 11.0 L 55.0 11.0 L 56.0 11.0 L 57.0 11.0 L 58.0 11.0 L 59.0 11.0 L 60.0 11.0 L 61.0 11.0 L 62.0 11.0 L 63.0 11.0 L 64.0 11.0 L 65.0 11.0 L 66.0 11.0 L 67.0 11.0 L 68.0 11.0 L 69.0 11.0 L 70.0 11.0 L 71.0 11.0 L 71.5 11.0 Z" stroke="none" fill="rgb(232,232,232)" />
<path d="M 55.5 7.0 L 56.0 7.0 L 57.0 7.0 L 58.0 7.0 L 59.0 7.0 L 60.0 7.0 L 61.0 7.0 L 62.0 7.0 L 63.0 7.0 L 64.0 7.0 L 65.0 7.0 L 66.0 7.0 L 67.0 7.0 L 68.0 7.0 L 69.0 7.0 L 70.0 7.0 L 71.0 7.0 L 72.0 7.0 L 73.0 7.0 L 74.0 7.0 L 75.0 7.0 L 76.0 7.0 L 77.0 7.0 L 78.0 7.0 L 79.0 7.0 L 80.0 7.0 L 81.0 7.0 L 82.0 7.0 L 83.0 7.0 L 84.0 7.0 L 85.0 7.0 L 86.0 7.0 L 87.0 7.0 L 88.0 7.0 L 89.0 7.0 L 89.66666666666667 6.666666666666667 L 90.0 6.0 L 89.66666666666667 5.0 L 89.0 4.333333333333333 L 88.0 4.0 L 87.0 4.0 L 86.0 4.0 L 85.0 4.0 L 84.0 4.0 L 83.0 4.0 L 82.0 4.0 L 81.0 4.0 L 80.0 4.0 L 79.0 4.0 L 78.0 4.0 L 77.0 4.0 L 76.0 4.0 L 75.0 4.0 L 74.0 4.0 L 73.0 4.0 L 72.0 4.0 L 71.0 4.0 L 70.0 4.0 L 69.0 4.0 L 68.0 4.0 L 67.0 4.0 L 66.0 4.0 L 65.0 4.0 L 64.0 4.0 L 63.0 4.0 L 62.0 4.0 L 61.0 4.0 L 60.0 4.0 L 59.0 4.0 L 58.0 4.0 L 57.0 4.0 L 56.0 4.0 L 55.0 4.0 L 54.0 4.0 L 53.0 4.0 L 52.0 4.0 L 51.0 4.0 L 50.0 4.0 L 49.0 4.0 L 48.0 4.0 L 47.0 4.0 L 46.0 4.0 L 45.0 4.0 L 44.0 4.0 L 43.0 4.0 L 42.0 4.0 L 41.0 4.0 L 40.0 4.0 L 39.0 4.0 L 38.333333333333336 4.333333333333333 L 38.0 5.0 L 38.0 6.0 L 38.333333333333336 6.666666666666667 L 39.0 7.0 L 40.0 7.0 L 41.0 7.0 L 42.0 7.0 L 43.0 7.0 L 44.0 7.0 L 45.0 7.0 L 46.0 7.0 L 47.0 7.0 L 48.0 7.0 L 49.0 7.0 L 50.0 7.0 L 51.0 7.0 L 52.0 7.0 L 53.0 7.0 L 54.0 7.0 L 54.5 7.0 Z" stroke="none" fill="rgb(228,228,228)" />
<path d="M 37.5 41.0 L 38.0 40.666666666666664 L 39.0 40.333333333333336 L 39.666666666666664 39.666666666666664 L 40.0 39.0 L 40.333333333333336 38.0 L 40.666666666666664 37.0 L 40.666666666666664 36.0 L 40.333333333333336 35.0 L 40.0 34.0 L 40.0 33.0 L 40.0 32.0 L 40.0 31.0 L 40.0 30.0 L 40.0 29.0 L 40.0 28.0 L 40.0 27.0 L 40.0 26.0 L 40.0 25.0 L 40.0 24.0 L 40.0 23.0 L 39.666666666666664 22.333333333333332 L 39.0 22.0 L 38.333333333333336 22.333333333333332 L 38.0 23.0 L 38.0 24.0 L 38.0 25.0 L 38.0 26.0 L 37.666666666666664 27.0 L 37.0 28.0 L 36.0 28.666666666666668 L 35.0 29.0 L 34.0 29.0 L 33.0 29.0 L 32.0 29.333333333333332 L 31.0 29.666666666666668 L 30.0 30.333333333333332 L 29.0 31.0 L 28.333333333333332 32.0 L 28.0 33.0 L 28.0 34.0 L 28.0 35.0 L 27.666666666666668 36.0 L 27.333333333333332 37.0 L 27.0 38.0 L 27.333333333333332 38.666666666666664 L 28.0 39.0 L 29.0 39.0 L 30.0 39.0 L 31.0 39.0 L 32.0 39.0 L 33.0 39.0 L 34.0 39.333333333333336 L 35.0 40.0 L 36.0 40.666666666666664 L 36.5 41.0 Z" stroke="none" fill="rgb(65,66,66)" />
<path d="M 87.5 39.0 L 88.0 39.0 L 89.0 39.0 L 89.66666666666667 38.666666666666664 L 90.0 38.0 L 89.66666666666667 37.333333333333336 L 89.0 37.0 L 88.0 37.0 L 87.0 37.0 L 86.0 37.0 L 85.0 37.0 L 84.0 37.0 L 83.0 37.0 L 82.0 37.0 L 81.0 37.0 L 80.0 37.0 L 79.0 37.0 L 78.0 37.0 L 77.0 37.0 L 76.0 37.0 L 75.0 37.0 L 74.0 37.0 L 73.0 37.0 L 72.0 37.0 L 71.0 37.0 L 70.0 37.0 L 69.0 37.0 L 68.0 37.0 L 67.0 37.0 L 66.0 37.0 L 65.0 37.0 L 64.0 37.0 L 63.0 37.0 L 62.0 37.0 L 61.0 37.0 L 60.0 37.0 L 59.0 37.0 L 58.0 37.0 L 57.0 37.0 L 56.0 37.0 L 55.0 37.0 L 54.0 37.0 L 53.0 37.0 L 52.0 37.0 L 51.0 37.0 L 50.0 37.0 L 49.0 37.0 L 48.0 37.0 L 47.0 37.0 L 46.0 37.0 L 45.0 37.0 L 44.0 37.0 L 43.0 37.0 L 42.0 37.0 L 41.0 37.0 L 40.333333333333336 37.333333333333336 L 40.0 38.0 L 40.333333333333336 38.666666666666664 L 41.0 39.0 L 42.0 39.0 L 43.0 39.0 L 44.0 39.0 L 45.0 39.0 L 46.0 39.0 L 47.0 39.0 L 48.0 39.0 L 49.0 39.0 L 50.0 39.0 L 51.0 39.0 L 52.0 39.0 L 53.0 39.0 L 54.0 39.0 L 55.0 39.0 L 56.0 39.0 L 57.0 39.0 L 58.0 39.0 L 59.0 39.0 L 60.0 39.0 L 61.0 39.0 L 62.0 39.0 L 63.0 39.0 L 64.0 39.0 L 65.0 39.0 L 66.0 39.0 L 67.0 39.0 L 68.0 39.0 L 69.0 39.0 L 70.0 39.0 L 71.0 39.0 L 72.0 39.0 L 73.0 39.0 L 74.0 39.0 L 75.0 39.0 L 76.0 39.0 L 77.0 39.0 L 78.0 39.0 L 79.0 39.0 L 80.0 39.0 L 81.0 39.0 L 82.0 39.0 L 83.0 39.0 L 84.0 39.0 L 85.0 39.0 L 86.0 39.0 L 86.5 39.0 Z" stroke="none" fill="rgb(189,189,189)" />
<path d="M 33.5 29.0 L 34.0 29.0 L 35.0 29.0 L 36.0 29.0 L 37.0 28.666666666666668 L 37.666666666666664 28.0 L 38.0 27.0 L 38.0 26.0 L 38.0 25.0 L 38.0 24.0 L 38.333333333333336 23.0 L 38.666666666666664 22.0 L 39.0 21.0 L 39.0 20.0 L 39.0 19.0 L 39.0 18.0 L 39.0 17.0 L 39.0 16.0 L 39.0 15.0 L 39.0 14.0 L 38.666666666666664 13.333333333333334 L 38.0 13.0 L 37.0 13.0 L 36.0 13.0 L 35.0 13.333333333333334 L 34.333333333333336 14.0 L 34.0 15.0 L 33.666666666666664 16.0 L 33.333333333333336 17.0 L 33.0 18.0 L 33.0 19.0 L 33.0 20.0 L 33.0 21.0 L 32.666666666666664 22.0 L 32.333333333333336 23.0 L 32.0 24.0 L 32.0 25.0 L 32.0 26.0 L 32.0 27.0 L 32.0 28.0 L 32.333333333333336 28.666666666666668 L 32.5 29.0 Z" stroke="none" fill="rgb(117,117,117)" />
<path d="M 100.5 39.5 L 100.66666666666667 39.0 L 101.0 38.0 L 100.66666666666667 37.0 L 100.33333333333333 36.0 L 100.0 35.0 L 100.0 34.0 L 100.0 33.0 L 99.66666666666667 32.0 L 99.0 31.0 L 98.0 30.333333333333332 L 97.0 30.0 L 96.0 30.0 L 95.0 30.0 L 94.0 30.0 L 93.0 30.0 L 92.33333333333333 30.333333333333332 L 92.0 31.0 L 92.0 32.0 L 92.0 33.0 L 91.66666666666667 34.0 L 91.33333333333333 35.0 L 90.66666666666667 36.0 L 90.33333333333333 37.0 L 90.0 38.0 L 90.0 39.0 L 90.33333333333333 40.0 L 91.0 40.666666666666664 L 92.0 41.0 L 93.0 40.666666666666664 L 94.0 40.333333333333336 L 95.0 40.0 L 96.0 40.0 L 97.0 40.0 L 98.0 40.0 L 99.0 40.0 L 99.5 40.0 Z" stroke="none" fill="rgb(65,66,66)" />
<path d="M 84.5 111.5 L 85.0 111.33333333333333 L 86.0 111.0 L 87.0 111.0 L 88.0 110.66666666666667 L 89.0 110.33333333333333 L 90.0 110.0 L 91.0 109.66666666666667 L 91.66666666666667 109.0 L 91.66666666666667 108.0 L 91.0 107.33333333333333 L 90.0 106.66666666666667 L 89.0 106.33333333333333 L 88.0 105.66666666666667 L 87.0 105.33333333333333 L 86.0 105.0 L 85.0 105.33333333333333 L 84.0 105.66666666666667 L 83.0 106.33333333333333 L 82.0 106.66666666666667 L 81.0 107.33333333333333 L 80.0 107.66666666666667 L 79.0 108.33333333333333 L 78.0 108.66666666666667 L 77.0 109.33333333333333 L 76.0 109.66666666666667 L 75.0 110.33333333333333 L 74.0 110.66666666666667 L 73.33333333333333 111.33333333333333 L 73.0 112.0 L 73.33333333333333 112.66666666666667 L 74.0 113.0 L 75.0 113.0 L 76.0 113.0 L 77.0 113.0 L 78.0 113.0 L 79.0 113.0 L 80.0 112.66666666666667 L 81.0 112.33333333333333 L 82.0 112.0 L 83.0 112.0 L 83.5 112.0 Z" stroke="none" fill="rgb(189,189,189)" />
<path d="M 92.5 100.0 L 92.66666666666667 99.66666666666667 L 93.0 99.0 L 93.0 98.0 L 93.0 97.0 L 92.66666666666667 96.33333333333333 L 92.0 96.0 L 91.0 96.0 L 90.0 96.0 L 89.0 96.0 L 88.0 96.0 L 87.0 96.0 L 86.0 96.0 L 85.0 96.0 L 84.0 96.0 L 83.0 96.0 L 82.0 96.0 L 81.0 96.0 L 80.0 96.0 L 79.0 96.0 L 78.0 96.0 L 77.0 96.0 L 76.0 96.0 L 75.0 96.0 L 74.0 96.0 L 73.0 96.0 L 72.0 96.0 L 71.0 96.0 L 70.0 96.0 L 69.0 96.0 L 68.0 96.0 L 67.0 96.0 L 66.0 96.0 L 65.0 96.0 L 64.33333333333333 96.33333333333333 L 64.0 97.0 L 64.33333333333333 97.66666666666667 L 65.0 98.0 L 66.0 98.0 L 67.0 98.0 L 68.0 98.0 L 69.0 98.0 L 70.0 98.0 L 71.0 98.0 L 72.0 98.0 L 73.0 98.0 L 74.0 98.0 L 75.0 98.0 L 76.0 98.0 L 77.0 98.0 L 78.0 98.0 L 79.0 98.0 L 80.0 98.0 L 81.0 98.0 L 82.0 98.0 L 83.0 98.0 L 84.0 98.0 L 85.0 98.0 L 86.0 98.0 L 87.0 98.33333333333333 L 88.0 99.0 L 89.0 99.66666666666667 L 90.0 100.0 L 91.0 100.0 L 91.5 100.0 Z" stroke="none" fill="rgb(189,189,189)" />
<path d="M 94.5 30.0 L 95.0 30.0 L 96.0 30.0 L 96.66666666666667 29.666666666666668 L 96.66666666666667 29.0 L 96.33333333333333 28.0 L 96.0 27.0 L 96.0 26.0 L 96.0 25.0 L 96.0 24.0 L 96.0 23.0 L 95.66666666666667 22.0 L 95.33333333333333 21.0 L 95.0 20.0 L 95.0 19.0 L 95.0 18.0 L 95.0 17.0 L 95.0 16.0 L 94.66666666666667 15.0 L 94.33333333333333 14.0 L 93.66666666666667 13.333333333333334 L 93.0 13.0 L 92.0 13.0 L 91.33333333333333 13.333333333333334 L 91.0 14.0 L 91.0 15.0 L 91.0 16.0 L 91.0 17.0 L 91.0 18.0 L 91.0 19.0 L 91.0 20.0 L 91.0 21.0 L 91.0 22.0 L 91.0 23.0 L 91.0 24.0 L 91.0 25.0 L 91.0 26.0 L 91.0 27.0 L 91.33333333333333 28.0 L 92.0 29.0 L 93.0 29.666666666666668 L 93.5 30.0 Z" stroke="none" fill="rgb(117,117,117)" />
<path d="M 74.5 100.0 L 75.0 100.0 L 76.0 100.0 L 77.0 100.0 L 78.0 100.0 L 79.0 100.0 L 80.0 100.0 L 81.0 100.0 L 82.0 100.0 L 83.0 100.0 L 84.0 100.0 L 85.0 100.0 L 86.0 100.0 L 87.0 100.0 L 88.0 100.0 L 88.66666666666667 99.66666666666667 L 88.66666666666667 99.0 L 88.0 98.33333333333333 L 87.0 98.0 L 86.0 98.0 L 85.0 98.0 L 84.0 98.0 L 83.0 98.0 L 82.0 98.0 L 81.0 98.0 L 80.0 98.0 L 79.0 98.0 L 78.0 98.0 L 77.0 98.0 L 76.0 98.0 L 75.0 98.0 L 74.0 98.0 L 73.0 98.0 L 72.0 98.0 L 71.0 98.0 L 70.0 98.0 L 69.0 98.0 L 68.0 98.0 L 67.0 98.0 L 66.0 98.0 L 65.0 98.0 L 64.33333333333333 98.33333333333333 L 64.0 99.0 L 64.33333333333333 99.66666666666667 L 65.0 100.0 L 66.0 100.0 L 67.0 100.0 L 68.0 100.0 L 69.0 100.0 L 70.0 100.0 L 71.0 100.0 L 72.0 100.0 L 73.0 100.0 L 73.5 100.0 Z" stroke="none" fill="rgb(221,221,221)" />
<path d="M 110.5 83.0 L 111.0 83.0 L 112.0 82.66666666666667 L 112.66666666666667 82.0 L 113.0 81.0 L 113.0 80.0 L 113.0 79.0 L 113.0 78.0 L 112.66666666666667 77.0 L 112.0 76.33333333333333 L 111.0 76.0 L 110.0 76.0 L 109.0 76.0 L 108.0 76.33333333333333 L 107.33333333333333 77.0 L 106.66666666666667 78.0 L 106.33333333333333 79.0 L 106.33333333333333 80.0 L 107.0 81.0 L 108.0 82.0 L 109.0 82.66666666666667 L 109.5 83.0 Z" stroke="none" fill="rgb(153,211,92)" />
<path d="M 39.5 100.0 L 40.0 100.0 L 41.0 100.0 L 41.666666666666664 99.66666666666667 L 42.0 99.0 L 41.666666666666664 98.0 L 41.0 97.33333333333333 L 40.0 97.0 L 39.0 97.0 L 38.0 97.0 L 37.333333333333336 97.33333333333333 L 37.0 98.0 L 37.333333333333336 99.0 L 38.0 99.66666666666667 L 38.5 100.0 Z" stroke="none" fill="rgb(189,189,189)" />
<path d="M 8.5 75.0 L 8.666666666666666 74.66666666666667 L 9.0 74.0 L 9.0 73.0 L 8.666666666666666 72.33333333333333 L 8.333333333333334 72.33333333333333 L 8.0 73.0 L 8.0 74.0 L 8.0 74.5 Z" stroke="none" fill="rgb(0,0,0)" />
<path d="M 40.0 11.5 L 39.666666666666664 11.333333333333334 L 39.333333333333336 11.333333333333334 L 39.333333333333336 11.666666666666666 L 39.5 12.0 Z" stroke="none" fill="rgb(0,0,0)" />
<path d="M 93.0 29.5 L 92.66666666666667 29.333333333333332 L 92.33333333333333 29.333333333333332 L 92.33333333333333 29.666666666666668 L 92.5 30.0 Z" stroke="none" fill="rgb(106,108,109)" />
<path d="M 120.0 73.5 L 119.66666666666667 73.33333333333333 L 119.33333333333333 73.33333333333333 L 119.33333333333333 73.66666666666667 L 119.5 74.0 Z" stroke="none" fill="rgb(0,0,0)" />
<path d="M 38.0 99.5 L 37.666666666666664 99.33333333333333 L 37.333333333333336 99.33333333333333 L 37.333333333333336 99.66666666666667 L 37.5 100.0 Z" stroke="none" fill="rgb(238,238,238)" />
</svg>
