<?xml version="1.0" encoding="UTF-8" standalone="no"?>
<!DOCTYPE svg PUBLIC "-//W3C//DTD SVG 1.1//EN"
"http://www.w3.org/Graphics/SVG/1.1/DTD/svg11.dtd">
<svg width="128" height="128" xmlns="http://www.w3.org/2000/svg" version="1.1">
<path d="M 104.5 128.0 L 105.0 128.0 L 106.0 128.0 L 107.0 128.0 L 108.0 128.0 L 109.0 128.0 L 110.0 128.0 L 111.0 128.0 L 112.0 128.0 L 113.0 128.0 L 114.0 128.0 L 115.0 128.0 L 116.0 128.0 L 117.0 128.0 L 118.0 128.0 L 119.0 128.0 L 120.0 128.0 L 121.0 128.0 L 122.0 128.0 L 123.0 128.0 L 124.0 128.0 L 125.0 128.0 L 126.0 128.0 L 127.0 128.0 L 127.66666666666667 127.66666666666667 L 128.0 127.0 L 128.0 126.0 L 128.0 125.0 L 128.0 124.0 L 128.0 123.0 L 128.0 122.0 L 128.0 121.0 L 128.0 120.0 L 128.0 119.0 L 128.0 118.0 L 128.0 117.0 L 128.0 116.0 L 128.0 115.0 L 128.0 114.0 L 128.0 113.0 L 128.0 112.0 L 128.0 111.0 L 128.0 110.0 L 128.0 109.0 L 128.0 108.0 L 128.0 107.0 L 128.0 106.0 L 128.0 105.0 L 128.0 104.0 L 128.0 103.0 L 128.0 102.0 L 128.0 101.0 L 128.0 100.0 L 128.0 99.0 L 128.0 98.0 L 128.0 97.0 L 128.0 96.0 L 128.0 95.0 L 128.0 94.0 L 128.0 93.0 L 128.0 92.0 L 128.0 91.0 L 128.0 90.0 L 128.0 89.0 L 128.0 88.0 L 128.0 87.0 L 128.0 86.0 L 128.0 85.0 L 128.0 84.0 L 128.0 83.0 L 128.0 82.0 L 128.0 81.0 L 128.0 80.0 L 128.0 79.0 L 128.0 78.0 L 128.0 77.0 L 128.0 76.0 L 128.0 75.0 L 128.0 74.0 L 128.0 73.0 L 128.0 72.0 L 128.0 71.0 L 128.0 70.0 L 128.0 69.0 L 128.0 68.0 L 128.0 67.0 L 128.0 66.0 L 128.0 65.0 L 128.0 64.0 L 128.0 63.0 L 128.0 62.0 L 128.0 61.0 L 128.0 60.0 L 128.0 59.0 L 128.0 58.0 L 128.0 57.0 L 128.0 56.0 L 128.0 55.0 L 128.0 54.0 L 128.0 53.0 L 128.0 52.0 L 128.0 51.0 L 128.0 50.0 L 128.0 49.0 L 128.0 48.0 L 128.0 47.0 L 128.0 46.0 L 128.0 45.0 L 128.0 44.0 L 128.0 43.0 L 128.0 42.0 L 128.0 41.0 L 128.0 40.0 L 128.0 39.0 L 128.0 38.0 L 128.0 37.0 L 128.0 36.0 L 128.0 35.0 L 128.0 34.0 L 128.0 33.0 L 128.0 32.0 L 128.0 31.0 L 128.0 30.0 L 128.0 29.0 L 128.0 28.0 L 128.0 27.0 L 128.0 26.0 L 128.0 25.0 L 128.0 24.0 L 128.0 23.0 L 128.0 22.0 L 128.0 21.0 L 128.0 20.0 L 128.0 19.0 L 128.0 18.0 L 128.0 17.0 L 128.0 16.0 L 128.0 15.0 L 128.0 14.0 L 128.0 13.0 L 128.0 12.0 L 128.0 11.0 L 128.0 10.0 L 128.0 9.0 L 128.0 8.0 L 128.0 7.0 L 128.0 6.0 L 128.0 5.0 L 128.0 4.0 L 128.0 3.0 L 128.0 2.0 L 128.0 1.0 L 127.66666666666667 0.3333333333333333 L 127.0 0.0 L 126.0 0.0 L 125.0 0.0 L 124.0 0.0 L 123.0 0.0 L 122.0 0.0 L 121.0 0.0 L 120.0 0.0 L 119.0 0.0 L 118.0 0.0 L 117.0 0.0 L 116.0 0.0 L 115.0 0.0 L 114.0 0.0 L 113.0 0.0 L 112.0 0.0 L 111.0 0.0 L 110.0 0.0 L 109.0 0.0 L 108.0 0.0 L 107.0 0.0 L 106.0 0.0 L 105.0 0.0 L 104.0 0.0 L 103.0 0.0 L 102.0 0.0 L 101.0 0.0 L 100.0 0.0 L 99.0 0.0 L 98.0 0.0 L 97.0 0.0 L 96.0 0.0 L 95.0 0.0 L 94.0 0.0 L 93.0 0.0 L 92.0 0.0 L 91.0 0.0 L 90.0 0.0 L 89.0 0.0 L 88.0 0.0 L 87.0 0.0 L 86.0 0.0 L 85.0 0.0 L 84.0 0.0 L 83.0 0.0 L 82.0 0.0 L 81.0 0.0 L 80.0 0.0 L 79.0 0.0 L 78.0 0.0 L 77.0 0.0 L 76.0 0.0 L 75.0 0.0 L 74.0 0.0 L 73.0 0.0 L 72.0 0.0 L 71.0 0.0 L 70.0 0.0 L 69.0 0.0 L 68.0 0.0 L 67.0 0.0 L 66.0 0.0 L 65.0 0.0 L 64.0 0.0 L 63.0 0.0 L 62.0 0.0 L 61.0 0.0 L 60.0 0.0 L 59.0 0.0 L 58.0 0.0 L 57.0 0.0 L 56.0 0.0 L 55.0 0.0 L 54.0 0.0 L 53.0 0.0 L 52.0 0.0 L 51.0 0.0 L 50.0 0.0 L 49.0 0.0 L 48.0 0.0 L 47.0 0.0 L 46.0 0.0 L 45.0 0.0 L 44.0 0.0 L 43.0 0.0 L 42.0 0.0 L 41.0 0.0 L 40.0 0.0 L 39.0 0.0 L 38.0 0.0 L 37.0 0.0 L 36.0 0.0 L 35.0 0.0 L 34.0 0.0 L 33.0 0.0 L 32.0 0.0 L 31.0 0.0 L 30.0 0.0 L 29.0 0.0 L 28.0 0.0 L 27.0 0.0 L 26.0 0.0 L 25.0 0.0 L 24.0 0.0 L 23.0 0.0 L 22.0 0.0 L 21.0 0.0 L 20.0 0.0 L 19.0 0.0 L 18.0 0.0 L 17.0 0.0 L 16.0 0.0 L 15.0 0.0 L 14.0 0.0 L 13.0 0.0 L 12.0 0.0 L 11.0 0.0 L 10.0 0.0 L 9.0 0.0 L 8.0 0.0 L 7.0 0.0 L 6.0 0.0 L 5.0 0.0 L 4.0 0.0 L 3.0 0.0 L 2.0 0.0 L 1.0 0.0 L 0.3333333333333333 0.3333333333333333 L 0.0 1.0 L 0.0 2.0 L 0.0 3.0 L 0.0 4.0 L 0.0 5.0 L 0.0 6.0 L 0.0 7.0 L 0.0 8.0 L 0.0 9.0 L 0.0 10.0 L 0.0 11.0 L 0.0 12.0 L 0.0 13.0 L 0.0 14.0 L 0.0 15.0 L 0.0 16.0 L 0.0 17.0 L 0.0 18.0 L 0.0 19.0 L 0.0 20.0 L 0.0 21.0 L 0.0 22.0 L 0.0 23.0 L 0.0 24.0 L 0.0 25.0 L 0.0 26.0 L 0.0 27.0 L 0.0 28.0 L 0.0 29.0 L 0.0 30.0 L 0.0 31.0 L 0.0 32.0 L 0.0 33.0 L 0.0 34.0 L 0.0 35.0 L 0.0 36.0 L 0.0 37.0 L 0.0 38.0 L 0.0 39.0 L 0.0 40.0 L 0.0 41.0 L 0.0 42.0 L 0.0 43.0 L 0.0 44.0 L 0.0 45.0 L 0.0 46.0 L 0.0 47.0 L 0.0 48.0 L 0.0 49.0 L 0.0 50.0 L 0.0 51.0 L 0.0 52.0 L 0.0 53.0 L 0.0 54.0 L 0.0 55.0 L 0.0 56.0 L 0.0 57.0 L 0.0 58.0 L 0.0 59.0 L 0.0 60.0 L 0.0 61.0 L 0.0 62.0 L 0.0 63.0 L 0.0 64.0 L 0.0 65.0 L 0.0 66.0 L 0.0 67.0 L 0.0 68.0 L 0.0 69.0 L 0.0 70.0 L 0.0 71.0 L 0.0 72.0 L 0.0 73.0 L 0.0 74.0 L 0.0 75.0 L 0.0 76.0 L 0.0 77.0 L 0.0 78.0 L 0.0 79.0 L 0.0 80.0 L 0.0 81.0 L 0.0 82.0 L 0.0 83.0 L 0.0 84.0 L 0.0 85.0 L 0.0 86.0 L 0.0 87.0 L 0.0 88.0 L 0.0 89.0 L 0.0 90.0 L 0.0 91.0 L 0.0 92.0 L 0.0 93.0 L 0.0 94.0 L 0.0 95.0 L 0.0 96.0 L 0.0 97.0 L 0.0 98.0 L 0.0 99.0 L 0.0 100.0 L 0.0 101.0 L 0.0 102.0 L 0.0 103.0 L 0.0 104.0 L 0.0 105.0 L 0.0 106.0 L 0.0 107.0 L 0.0 108.0 L 0.0 109.0 L 0.0 110.0 L 0.0 111.0 L 0.0 112.0 L 0.0 113.0 L 0.0 114.0 L 0.0 115.0 L 0.0 116.0 L 0.0 117.0 L 0.0 118.0 L 0.0 119.0 L 0.0 120.0 L 0.0 121.0 L 0.0 122.0 L 0.0 123.0 L 0.0 124.0 L 0.0 125.0 L 0.0 126.0 L 0.0 127.0 L 0.3333333333333333 127.66666666666667 L 1.0 128.0 L 2.0 128.0 L 3.0 128.0 L 4.0 128.0 L 5.0 128.0 L 6.0 128.0 L 7.0 128.0 L 8.0 128.0 L 9.0 128.0 L 10.0 128.0 L 11.0 128.0 L 12.0 128.0 L 13.0 128.0 L 14.0 128.0 L 15.0 128.0 L 16.0 128.0 L 17.0 128.0 L 18.0 128.0 L 19.0 128.0 L 20.0 128.0 L 21.0 128.0 L 22.0 128.0 L 23.0 128.0 L 24.0 128.0 L 25.0 128.0 L 26.0 128.0 L 27.0 128.0 L 28.0 128.0 L 29.0 128.0 L 30.0 128.0 L 31.0 128.0 L 32.0 128.0 L 33.0 128.0 L 34.0 128.0 L 35.0 128.0 L 36.0 128.0 L 37.0 128.0 L 38.0 128.0 L 39.0 128.0 L 40.0 128.0 L 41.0 128.0 L 42.0 128.0 L 43.0 128.0 L 44.0 128.0 L 45.0 128.0 L 46.0 128.0 L 47.0 128.0 L 48.0 128.0 L 49.0 128.0 L 50.0 128.0 L 51.0 128.0 L 52.0 128.0 L 53.0 128.0 L 54.0 128.0 L 55.0 128.0 L 56.0 128.0 L 57.0 128.0 L 58.0 128.0 L 59.0 128.0 L 60.0 128.0 L 61.0 128.0 L 62.0 128.0 L 63.0 128.0 L 64.0 128.0 L 65.0 128.0 L 66.0 128.0 L 67.0 128.0 L 68.0 128.0 L 69.0 128.0 L 70.0 128.0 L 71.0 128.0 L 72.0 128.0 L 73.0 128.0 L 74.0 128.0 L 75.0 128.0 L 76.0 128.0 L 77.0 128.0 L 78.0 128.0 L 79.0 128.0 L 80.0 128.0 L 81.0 128.0 L 82.0 128.0 L 83.0 128.0 L 84.0 128.0 L 85.0 128.0 L 86.0 128.0 L 87.0 128.0 L 88.0 128.0 L 89.0 128.0 L 90.0 128.0 L 91.0 128.0 L 92.0 128.0 L 93.0 128.0 L 94.0 128.0 L 95.0 128.0 L 96.0 128.0 L 97.0 128.0 L 98.0 128.0 L 99.0 128.0 L 100.0 128.0 L 101.0 128.0 L 102.0 128.0 L 103.0 128.0 L 103.5 128.0 Z" stroke="none" fill="rgb(0,0,0)" />
<path d="M 26.5 115.5 L 27.0 115.0 L 28.0 114.0 L 28.666666666666668 113.0 L 29.333333333333332 112.0 L 29.666666666666668 111.0 L 30.333333333333332 110.0 L 30.666666666666668 109.0 L 31.0 108.0 L 31.0 107.0 L 31.0 106.0 L 31.0 105.0 L 31.333333333333332 104.0 L 32.0 103.0 L 33.0 102.0 L 34.0 101.33333333333333 L 35.0 101.0 L 36.0 101.0 L 37.0 101.0 L 38.0 101.0 L 39.0 101.0 L 40.0 101.0 L 41.0 100.66666666666667 L 42.0 100.0 L 42.666666666666664 99.0 L 43.333333333333336 98.0 L 43.666666666666664 97.0 L 44.0 96.0 L 44.0 95.0 L 44.0 94.0 L 44.0 93.0 L 44.0 92.0 L 44.333333333333336 91.0 L 45.0 90.0 L 46.0 89.0 L 47.0 88.0 L 48.0 87.33333333333333 L 49.0 86.66666666666667 L 50.0 86.33333333333333 L 51.0 86.0 L 52.0 86.0 L 53.0 86.0 L 54.0 86.0 L 55.0 86.0 L 56.0 85.66666666666667 L 57.0 85.0 L 58.0 84.33333333333333 L 59.0 83.66666666666667 L 60.0 83.0 L 61.0 82.0 L 62.0 81.0 L 63.0 80.0 L 64.0 79.0 L 65.0 78.33333333333333 L 66.0 78.0 L 67.0 78.0 L 68.0 78.0 L 69.0 78.33333333333333 L 70.0 78.66666666666667 L 71.0 79.0 L 72.0 79.0 L 73.0 79.33333333333333 L 74.0 79.66666666666667 L 75.0 80.0 L 76.0 80.0 L 77.0 80.0 L 78.0 80.0 L 79.0 80.0 L 80.0 80.0 L 81.0 80.0 L 82.0 80.0 L 83.0 80.0 L 84.0 80.0 L 85.0 80.0 L 86.0 80.0 L 87.0 80.0 L 88.0 80.0 L 89.0 80.0 L 90.0 80.0 L 91.0 79.66666666666667 L 92.0 79.33333333333333 L 93.0 79.0 L 94.0 78.66666666666667 L 95.0 78.33333333333333 L 96.0 78.0 L 97.0 77.66666666666667 L 98.0 77.33333333333333 L 99.0 76.66666666666667 L 100.0 76.33333333333333 L 101.0 75.66666666666667 L 102.0 75.0 L 103.0 74.0 L 104.0 73.0 L 105.0 72.0 L 106.0 71.0 L 107.0 70.0 L 108.0 69.0 L 109.0 68.0 L 110.0 67.0 L 111.0 66.0 L 112.0 65.0 L 112.66666666666667 64.0 L 113.33333333333333 63.0 L 113.66666666666667 62.0 L 114.33333333333333 61.0 L 114.66666666666667 60.0 L 115.33333333333333 59.0 L 115.66666666666667 58.0 L 116.33333333333333 57.0 L 116.66666666666667 56.0 L 117.33333333333333 55.0 L 117.66666666666667 54.0 L 118.0 53.0 L 118.0 52.0 L 118.33333333333333 51.0 L 118.66666666666667 50.0 L 119.0 49.0 L 119.0 48.0 L 119.0 47.0 L 119.0 46.0 L 119.0 45.0 L 119.0 44.0 L 119.0 43.0 L 119.0 42.0 L 119.0 41.0 L 119.0 40.0 L 119.0 39.0 L 118.66666666666667 38.0 L 118.33333333333333 37.0 L 118.0 36.0 L 118.0 35.0 L 118.0 34.0 L 118.0 33.0 L 117.66666666666667 32.0 L 117.33333333333333 31.0 L 117.0 30.0 L 116.66666666666667 29.0 L 116.33333333333333 28.0 L 116.0 27.0 L 116.0 26.0 L 116.0 25.0 L 115.66666666666667 24.0 L 115.33333333333333 23.0 L 114.66666666666667 22.0 L 114.0 21.0 L 113.33333333333333 20.0 L 112.66666666666667 19.0 L 112.0 18.0 L 111.0 17.0 L 110.0 16.0 L 109.0 15.0 L 108.0 14.0 L 107.0 13.0 L 106.0 12.0 L 105.0 11.333333333333334 L 104.0 10.666666666666666 L 103.0 10.0 L 102.0 9.333333333333334 L 101.0 8.666666666666666 L 100.0 8.333333333333334 L 99.0 7.666666666666667 L 98.0 7.333333333333333 L 97.0 6.666666666666667 L 96.0 6.333333333333333 L 95.0 5.666666666666667 L 94.0 5.333333333333333 L 93.0 5.0 L 92.0 5.0 L 91.0 4.666666666666667 L 90.0 4.333333333333333 L 89.0 4.0 L 88.0 4.0 L 87.0 4.0 L 86.0 4.0 L 85.0 4.0 L 84.0 4.0 L 83.0 4.0 L 82.0 3.6666666666666665 L 81.0 3.3333333333333335 L 80.0 3.3333333333333335 L 79.0 3.6666666666666665 L 78.0 4.0 L 77.0 4.0 L 76.0 4.0 L 75.0 4.0 L 74.0 4.0 L 73.0 4.0 L 72.0 4.333333333333333 L 71.0 4.666666666666667 L 70.0 5.0 L 69.0 5.0 L 68.0 5.333333333333333 L 67.0 5.666666666666667 L 66.0 6.0 L 65.0 6.333333333333333 L 64.0 6.666666666666667 L 63.0 7.333333333333333 L 62.0 7.666666666666667 L 61.0 8.333333333333334 L 60.0 9.0 L 59.0 9.666666666666666 L 58.0 10.333333333333334 L 57.0 11.0 L 56.0 12.0 L 55.0 13.0 L 54.0 14.0 L 53.0 15.0 L 52.0 16.0 L 51.0 17.0 L 50.0 18.0 L 49.333333333333336 19.0 L 48.666666666666664 20.0 L 48.0 21.0 L 47.333333333333336 22.0 L 46.666666666666664 23.0 L 46.333333333333336 24.0 L 45.666666666666664 25.0 L 45.333333333333336 26.0 L 45.0 27.0 L 44.666666666666664 28.0 L 44.333333333333336 29.0 L 44.0 30.0 L 43.666666666666664 31.0 L 43.333333333333336 32.0 L 43.0 33.0 L 43.0 34.0 L 43.0 35.0 L 42.666666666666664 36.0 L 42.333333333333336 37.0 L 42.0 38.0 L 42.0 39.0 L 42.0 40.0 L 42.0 41.0 L 42.0 42.0 L 42.0 43.0 L 42.0 44.0 L 42.0 45.0 L 42.0 46.0 L 42.333333333333336 47.0 L 42.666666666666664 48.0 L 43.0 49.0 L 43.0 50.0 L 43.0 51.0 L 43.333333333333336 52.0 L 43.666666666666664 53.0 L 44.0 54.0 L 44.0 55.0 L 44.333333333333336 56.0 L 44.333333333333336 57.0 L 44.0 58.0 L 43.0 59.0 L 42.0 60.0 L 41.0 61.0 L 40.0 62.0 L 39.0 63.0 L 38.0 64.0 L 37.0 65.0 L 36.0 66.0 L 35.0 67.0 L 34.0 68.0 L 33.0 69.0 L 32.0 70.0 L 31.0 71.0 L 30.0 72.0 L 29.0 73.0 L 28.0 74.0 L 27.0 75.0 L 26.0 76.0 L 25.0 77.0 L 24.0 78.0 L 23.0 79.0 L 22.0 80.0 L 21.0 80.66666666666667 L 20.0 81.33333333333333 L 19.0 82.0 L 18.0 83.0 L 17.0 84.0 L 16.0 85.0 L 15.0 86.0 L 14.0 87.0 L 13.0 88.0 L 12.0 89.0 L 11.0 90.0 L 10.0 91.0 L 9.0 92.0 L 8.0 93.0 L 7.333333333333333 94.0 L 6.666666666666667 95.0 L 6.0 96.0 L 5.333333333333333 97.0 L 5.0 98.0 L 5.0 99.0 L 5.0 100.0 L 5.0 101.0 L 5.0 102.0 L 5.0 103.0 L 5.0 104.0 L 5.0 105.0 L 5.0 106.0 L 5.0 107.0 L 5.0 108.0 L 5.0 109.0 L 5.0 110.0 L 5.0 111.0 L 5.333333333333333 112.0 L 6.0 112.66666666666667 L 7.0 112.66666666666667 L 8.0 112.0 L 9.0 111.0 L 10.0 110.0 L 11.0 109.0 L 12.0 108.0 L 13.0 107.0 L 14.0 106.0 L 15.0 105.0 L 16.0 104.0 L 17.0 103.0 L 18.0 102.0 L 19.0 101.0 L 20.0 100.0 L 21.0 99.0 L 22.0 98.0 L 23.0 97.0 L 24.0 96.0 L 25.0 95.0 L 26.0 94.0 L 27.0 93.0 L 28.0 92.0 L 29.0 91.0 L 30.0 90.0 L 31.0 89.0 L 32.0 88.0 L 33.0 87.0 L 34.0 86.0 L 35.0 85.0 L 36.0 84.0 L 37.0 83.0 L 38.0 82.0 L 39.0 81.0 L 40.0 80.0 L 41.0 79.0 L 42.0 78.0 L 43.0 77.0 L 44.0 76.0 L 45.0 75.0 L 46.0 74.0 L 47.0 73.0 L 48.0 72.0 L 49.0 71.33333333333333 L 50.0 70.66666666666667 L 51.0 70.33333333333333 L 52.0 70.0 L 53.0 70.33333333333333 L 53.333333333333336 71.0 L 53.0 72.0 L 52.0 73.0 L 51.0 74.0 L 50.0 75.0 L 49.0 76.0 L 48.0 77.0 L 47.0 78.0 L 46.0 79.0 L 45.0 80.0 L 44.0 81.0 L 43.0 82.0 L 42.0 83.0 L 41.0 84.0 L 40.0 85.0 L 39.0 86.0 L 38.0 87.0 L 37.0 88.0 L 36.0 89.0 L 35.0 90.0 L 34.0 91.0 L 33.0 92.0 L 32.0 93.0 L 31.0 94.0 L 30.0 95.0 L 29.0 96.0 L 28.0 97.0 L 27.0 98.0 L 26.0 99.0 L 25.0 100.0 L 24.0 101.0 L 23.333333333333332 102.0 L 22.666666666666668 103.0 L 22.0 104.0 L 21.0 105.0 L 20.0 106.0 L 19.0 107.0 L 18.0 108.0 L 17.0 109.0 L 16.0 110.0 L 15.0 111.0 L 14.0 112.0 L 13.0 113.0 L 12.0 114.0 L 11.0 115.0 L 10.0 116.0 L 9.333333333333334 117.0 L 9.0 118.0 L 9.333333333333334 118.66666666666667 L 10.0 119.0 L 11.0 119.0 L 12.0 119.0 L 13.0 119.0 L 14.0 119.0 L 15.0 119.0 L 16.0 119.0 L 17.0 119.0 L 18.0 119.0 L 19.0 119.0 L 20.0 119.0 L 21.0 119.0 L 22.0 119.0 L 23.0 118.66666666666667 L 24.0 118.0 L 25.0 117.0 L 25.5 116.5 Z" stroke="none" fill="rgb(255,202,40)" />
<path d="M 57.5 55.0 L 57.666666666666664 54.666666666666664 L 58.0 54.0 L 58.0 53.0 L 58.0 52.0 L 58.0 51.0 L 58.0 50.0 L 57.666666666666664 49.0 L 57.333333333333336 48.0 L 57.0 47.0 L 57.0 46.0 L 57.0 45.0 L 57.0 44.0 L 57.0 43.0 L 57.0 42.0 L 57.0 41.0 L 57.0 40.0 L 57.0 39.0 L 57.333333333333336 38.0 L 57.666666666666664 37.0 L 58.0 36.0 L 58.0 35.0 L 58.333333333333336 34.0 L 58.666666666666664 33.0 L 59.333333333333336 32.0 L 59.666666666666664 31.0 L 60.333333333333336 30.0 L 60.666666666666664 29.0 L 61.333333333333336 28.0 L 62.0 27.0 L 63.0 26.0 L 63.666666666666664 25.0 L 64.33333333333333 24.0 L 64.66666666666667 23.0 L 65.0 22.0 L 65.0 21.0 L 64.66666666666667 20.333333333333332 L 64.0 20.0 L 63.0 20.0 L 62.0 20.0 L 61.0 20.0 L 60.0 20.333333333333332 L 59.0 21.0 L 58.0 22.0 L 57.0 23.0 L 56.0 24.0 L 55.0 25.0 L 54.0 26.0 L 53.333333333333336 27.0 L 53.0 28.0 L 52.666666666666664 29.0 L 52.333333333333336 30.0 L 52.0 31.0 L 52.0 32.0 L 51.666666666666664 33.0 L 51.333333333333336 34.0 L 51.0 35.0 L 51.0 36.0 L 51.0 37.0 L 51.0 38.0 L 51.0 39.0 L 51.0 40.0 L 51.0 41.0 L 51.0 42.0 L 51.0 43.0 L 51.0 44.0 L 51.0 45.0 L 51.0 46.0 L 51.0 47.0 L 51.0 48.0 L 51.0 49.0 L 51.0 50.0 L 51.333333333333336 51.0 L 52.0 52.0 L 53.0 53.0 L 54.0 54.0 L 55.0 54.666666666666664 L 56.0 55.0 L 56.5 55.0 Z" stroke="none" fill="rgb(255,245,157)" />
<path d="M 59.5 91.0 L 60.0 90.66666666666667 L 61.0 90.33333333333333 L 62.0 89.66666666666667 L 63.0 89.33333333333333 L 64.0 88.66666666666667 L 65.0 88.0 L 66.0 87.0 L 67.0 86.0 L 68.0 85.0 L 69.0 84.0 L 70.0 83.0 L 71.0 82.66666666666667 L 72.0 82.66666666666667 L 73.0 83.0 L 74.0 83.0 L 75.0 83.33333333333333 L 76.0 83.66666666666667 L 77.0 84.0 L 78.0 84.0 L 79.0 84.0 L 80.0 84.33333333333333 L 81.0 84.66666666666667 L 82.0 85.0 L 83.0 85.0 L 84.0 85.0 L 85.0 85.0 L 86.0 85.0 L 87.0 85.0 L 88.0 85.0 L 89.0 85.0 L 90.0 85.0 L 91.0 84.66666666666667 L 92.0 84.33333333333333 L 93.0 84.0 L 94.0 84.0 L 95.0 84.0 L 96.0 83.66666666666667 L 97.0 83.33333333333333 L 98.0 83.0 L 99.0 83.0 L 100.0 82.66666666666667 L 101.0 82.33333333333333 L 102.0 81.66666666666667 L 103.0 81.33333333333333 L 104.0 80.66666666666667 L 105.0 80.33333333333333 L 106.0 79.66666666666667 L 107.0 79.0 L 108.0 78.33333333333333 L 109.0 77.66666666666667 L 110.0 77.0 L 111.0 76.0 L 112.0 75.33333333333333 L 113.0 74.66666666666667 L 113.66666666666667 74.0 L 114.33333333333333 73.0 L 115.0 72.0 L 116.0 71.0 L 117.0 70.0 L 117.66666666666667 69.0 L 118.33333333333333 68.0 L 118.66666666666667 67.0 L 119.33333333333333 66.0 L 119.66666666666667 65.0 L 120.33333333333333 64.0 L 120.66666666666667 63.0 L 121.0 62.0 L 121.33333333333333 61.0 L 121.66666666666667 60.0 L 122.0 59.0 L 122.33333333333333 58.0 L 122.66666666666667 57.0 L 123.0 56.0 L 123.0 55.0 L 123.0 54.0 L 123.0 53.0 L 123.0 52.0 L 123.0 51.0 L 123.0 50.0 L 123.0 49.0 L 123.0 48.0 L 123.0 47.0 L 123.0 46.0 L 123.0 45.0 L 123.0 44.0 L 123.0 43.0 L 123.0 42.0 L 123.0 41.0 L 123.0 40.0 L 122.66666666666667 39.0 L 122.33333333333333 38.0 L 122.0 37.0 L 122.0 36.0 L 121.66666666666667 35.0 L 121.33333333333333 34.0 L 121.0 33.0 L 120.66666666666667 32.0 L 120.33333333333333 31.0 L 120.0 30.0 L 119.66666666666667 29.0 L 119.33333333333333 28.0 L 118.66666666666667 27.0 L 118.33333333333333 26.0 L 117.66666666666667 25.333333333333332 L 117.0 25.0 L 116.33333333333333 25.333333333333332 L 116.0 26.0 L 116.0 27.0 L 116.0 28.0 L 116.33333333333333 29.0 L 116.66666666666667 30.0 L 117.0 31.0 L 117.33333333333333 32.0 L 117.66666666666667 33.0 L 118.0 34.0 L 118.0 35.0 L 118.0 36.0 L 118.0 37.0 L 118.33333333333333 38.0 L 118.66666666666667 39.0 L 119.0 40.0 L 119.0 41.0 L 119.0 42.0 L 119.0 43.0 L 119.0 44.0 L 119.0 45.0 L 119.0 46.0 L 119.0 47.0 L 119.0 48.0 L 118.66666666666667 49.0 L 118.33333333333333 50.0 L 118.0 51.0 L 118.0 52.0 L 117.66666666666667 53.0 L 117.33333333333333 54.0 L 116.66666666666667 55.0 L 116.33333333333333 56.0 L 115.66666666666667 57.0 L 115.33333333333333 58.0 L 114.66666666666667 59.0 L 114.33333333333333 60.0 L 113.66666666666667 61.0 L 113.33333333333333 62.0 L 112.66666666666667 63.0 L 112.0 64.0 L 111.0 65.0 L 110.0 66.0 L 109.0 67.0 L 108.0 68.0 L 107.0 69.0 L 106.0 70.0 L 105.0 71.0 L 104.0 72.0 L 103.0 73.0 L 102.0 74.0 L 101.0 75.0 L 100.0 75.66666666666667 L 99.0 76.33333333333333 L 98.0 76.66666666666667 L 97.0 77.33333333333333 L 96.0 77.66666666666667 L 95.0 78.0 L 94.0 78.33333333333333 L 93.0 78.66666666666667 L 92.0 79.0 L 91.0 79.33333333333333 L 90.0 79.66666666666667 L 89.0 80.0 L 88.0 80.0 L 87.0 80.0 L 86.0 80.0 L 85.0 80.0 L 84.0 80.0 L 83.0 80.0 L 82.0 80.0 L 81.0 80.0 L 80.0 80.0 L 79.0 80.0 L 78.0 80.0 L 77.0 80.0 L 76.0 80.0 L 75.0 79.66666666666667 L 74.0 79.33333333333333 L 73.0 79.0 L 72.0 79.0 L 71.0 78.66666666666667 L 70.0 78.33333333333333 L 69.0 78.0 L 68.0 78.0 L 67.0 78.0 L 66.0 78.0 L 65.0 78.0 L 64.0 78.33333333333333 L 63.0 79.0 L 62.0 80.0 L 61.0 81.0 L 60.0 82.0 L 59.0 83.0 L 58.0 83.66666666666667 L 57.0 84.33333333333333 L 56.0 85.0 L 55.0 85.66666666666667 L 54.0 86.0 L 53.0 86.0 L 52.0 86.0 L 51.0 86.0 L 50.0 86.0 L 49.0 86.33333333333333 L 48.0 86.66666666666667 L 47.0 87.33333333333333 L 46.0 88.0 L 45.0 89.0 L 44.333333333333336 90.0 L 44.0 91.0 L 44.0 92.0 L 44.0 93.0 L 44.0 94.0 L 44.0 95.0 L 43.666666666666664 96.0 L 43.333333333333336 97.0 L 42.666666666666664 98.0 L 42.0 99.0 L 41.0 100.0 L 40.0 100.66666666666667 L 39.0 101.0 L 38.0 101.0 L 37.0 101.0 L 36.0 101.0 L 35.0 101.0 L 34.0 101.0 L 33.0 101.33333333333333 L 32.0 102.0 L 31.333333333333332 103.0 L 31.0 104.0 L 31.0 105.0 L 31.0 106.0 L 31.0 107.0 L 30.666666666666668 108.0 L 30.333333333333332 109.0 L 29.666666666666668 110.0 L 29.333333333333332 111.0 L 28.666666666666668 112.0 L 28.0 113.0 L 27.0 114.0 L 26.0 115.0 L 25.0 116.0 L 24.0 117.0 L 23.0 118.0 L 22.0 118.66666666666667 L 21.0 119.0 L 20.0 119.0 L 19.0 119.0 L 18.0 119.0 L 17.0 119.0 L 16.0 119.0 L 15.0 119.0 L 14.0 119.0 L 13.0 119.0 L 12.0 119.0 L 11.0 119.0 L 10.0 119.0 L 9.333333333333334 119.33333333333333 L 9.0 120.0 L 9.333333333333334 120.66666666666667 L 10.0 121.33333333333333 L 11.0 122.0 L 12.0 122.66666666666667 L 13.0 123.33333333333333 L 14.0 123.66666666666667 L 15.0 124.0 L 16.0 124.0 L 17.0 124.0 L 18.0 124.0 L 19.0 124.0 L 20.0 124.33333333333333 L 21.0 124.66666666666667 L 22.0 124.66666666666667 L 23.0 124.33333333333333 L 24.0 124.0 L 25.0 124.0 L 26.0 124.0 L 27.0 124.0 L 28.0 123.66666666666667 L 29.0 123.0 L 30.0 122.0 L 31.0 121.0 L 32.0 120.0 L 33.0 119.0 L 33.666666666666664 118.0 L 34.333333333333336 117.0 L 34.666666666666664 116.0 L 35.333333333333336 115.0 L 35.666666666666664 114.0 L 36.0 113.0 L 36.0 112.0 L 36.0 111.0 L 36.0 110.0 L 36.333333333333336 109.0 L 36.666666666666664 108.0 L 37.333333333333336 107.0 L 38.0 106.33333333333333 L 39.0 105.66666666666667 L 40.0 105.66666666666667 L 41.0 105.66666666666667 L 42.0 106.0 L 43.0 106.0 L 44.0 106.0 L 45.0 106.0 L 46.0 105.66666666666667 L 47.0 105.0 L 48.0 104.0 L 48.666666666666664 103.0 L 49.0 102.0 L 49.0 101.0 L 49.0 100.0 L 49.0 99.0 L 49.0 98.0 L 49.333333333333336 97.0 L 49.666666666666664 96.0 L 50.333333333333336 95.0 L 51.0 94.0 L 52.0 93.0 L 53.0 92.0 L 54.0 91.33333333333333 L 55.0 91.0 L 56.0 91.0 L 57.0 91.0 L 58.0 91.0 L 58.5 91.0 Z" stroke="none" fill="rgb(158,116,11)" />
<path d="M 85.0 35.5 L 85.33333333333333 35.0 L 86.0 34.333333333333336 L 87.0 33.666666666666664 L 88.0 33.333333333333336 L 89.0 32.666666666666664 L 90.0 32.333333333333336 L 91.0 32.0 L 92.0 32.0 L 93.0 32.0 L 94.0 32.333333333333336 L 95.0 32.666666666666664 L 95.66666666666667 32.666666666666664 L 96.0 32.0 L 95.66666666666667 31.0 L 95.0 30.0 L 94.0 29.0 L 93.0 28.0 L 92.0 27.333333333333332 L 91.0 26.666666666666668 L 90.0 26.333333333333332 L 89.0 26.0 L 88.0 26.0 L 87.0 26.0 L 86.0 26.0 L 85.0 26.333333333333332 L 84.0 26.666666666666668 L 83.0 27.0 L 82.0 27.333333333333332 L 81.0 28.0 L 80.0 29.0 L 79.0 30.0 L 78.33333333333333 31.0 L 77.66666666666667 32.0 L 77.33333333333333 33.0 L 77.0 34.0 L 77.0 35.0 L 77.0 36.0 L 77.0 37.0 L 77.0 38.0 L 77.0 39.0 L 77.33333333333333 40.0 L 78.0 41.0 L 79.0 42.0 L 80.0 43.0 L 81.0 44.0 L 82.0 44.666666666666664 L 82.66666666666667 44.666666666666664 L 83.0 44.0 L 82.66666666666667 43.0 L 82.33333333333333 42.0 L 82.0 41.0 L 82.33333333333333 40.0 L 82.66666666666667 39.0 L 83.33333333333333 38.0 L 84.0 37.0 L 84.5 36.5 Z" stroke="none" fill="rgb(158,116,11)" />
<path d="M 91.5 45.0 L 92.0 44.666666666666664 L 93.0 44.0 L 94.0 43.0 L 94.66666666666667 42.0 L 95.33333333333333 41.0 L 95.66666666666667 40.0 L 96.33333333333333 39.0 L 96.66666666666667 38.0 L 97.0 37.0 L 97.0 36.0 L 96.66666666666667 35.0 L 96.33333333333333 34.0 L 95.66666666666667 33.0 L 95.0 32.333333333333336 L 94.0 32.0 L 93.0 32.0 L 92.0 32.0 L 91.0 32.0 L 90.0 32.0 L 89.0 32.333333333333336 L 88.0 32.666666666666664 L 87.0 33.333333333333336 L 86.0 33.666666666666664 L 85.33333333333333 34.333333333333336 L 84.66666666666667 35.0 L 84.0 36.0 L 83.33333333333333 37.0 L 82.66666666666667 38.0 L 82.33333333333333 39.0 L 82.0 40.0 L 82.0 41.0 L 82.0 42.0 L 82.33333333333333 43.0 L 82.66666666666667 44.0 L 83.33333333333333 45.0 L 84.0 45.666666666666664 L 85.0 46.0 L 86.0 46.0 L 87.0 46.0 L 88.0 46.0 L 89.0 45.666666666666664 L 90.0 45.333333333333336 L 90.5 45.0 Z" stroke="none" fill="rgb(0,0,0)" />
<path d="M 33.5 79.0 L 34.0 79.0 L 35.0 78.66666666666667 L 36.0 78.0 L 37.0 77.0 L 38.0 76.0 L 39.0 75.0 L 40.0 74.0 L 41.0 73.0 L 42.0 72.0 L 43.0 71.0 L 43.666666666666664 70.0 L 44.333333333333336 69.0 L 45.0 68.0 L 46.0 67.0 L 46.666666666666664 66.0 L 47.0 65.0 L 47.0 64.0 L 47.0 63.0 L 46.666666666666664 62.333333333333336 L 46.0 62.0 L 45.0 62.333333333333336 L 44.0 63.0 L 43.0 64.0 L 42.0 65.0 L 41.0 66.0 L 40.0 67.0 L 39.0 68.0 L 38.0 69.0 L 37.0 70.0 L 36.0 71.0 L 35.0 72.0 L 34.333333333333336 73.0 L 33.666666666666664 74.0 L 33.333333333333336 75.0 L 32.666666666666664 76.0 L 32.333333333333336 77.0 L 32.0 78.0 L 32.333333333333336 78.66666666666667 L 32.5 79.0 Z" stroke="none" fill="rgb(255,245,157)" />
<path d="M 24.5 101.5 L 25.0 101.0 L 26.0 100.0 L 27.0 99.0 L 28.0 98.0 L 29.0 97.0 L 30.0 96.0 L 31.0 95.0 L 32.0 94.0 L 33.0 93.0 L 34.0 92.0 L 35.0 91.0 L 36.0 90.0 L 37.0 89.0 L 38.0 88.0 L 39.0 87.0 L 40.0 86.0 L 41.0 85.0 L 42.0 84.0 L 43.0 83.0 L 44.0 82.0 L 45.0 81.0 L 46.0 80.0 L 47.0 79.0 L 48.0 78.0 L 49.0 77.0 L 50.0 76.0 L 51.0 75.0 L 52.0 74.0 L 53.0 73.0 L 53.666666666666664 72.0 L 54.0 71.0 L 53.666666666666664 70.33333333333333 L 53.0 70.0 L 52.0 70.0 L 51.0 70.0 L 50.0 70.33333333333333 L 49.0 70.66666666666667 L 48.0 71.33333333333333 L 47.0 72.0 L 46.0 73.0 L 45.0 74.0 L 44.0 75.0 L 43.0 76.0 L 42.0 77.0 L 41.0 78.0 L 40.0 79.0 L 39.0 80.0 L 38.0 81.0 L 37.0 82.0 L 36.0 83.0 L 35.0 84.0 L 34.0 85.0 L 33.0 86.0 L 32.0 87.0 L 31.0 88.0 L 30.0 89.0 L 29.0 90.0 L 28.0 91.0 L 27.0 92.0 L 26.0 93.0 L 25.0 94.0 L 24.0 95.0 L 23.0 96.0 L 22.0 97.0 L 21.0 98.0 L 20.0 99.0 L 19.0 100.0 L 18.0 101.0 L 17.0 102.0 L 16.0 103.0 L 15.0 104.0 L 14.0 105.0 L 13.0 106.0 L 12.0 107.0 L 11.0 108.0 L 10.0 109.0 L 9.0 110.0 L 8.0 111.0 L 7.0 112.0 L 6.0 113.0 L 5.333333333333333 114.0 L 5.333333333333333 115.0 L 6.0 116.0 L 6.666666666666667 117.0 L 7.333333333333333 118.0 L 8.0 118.66666666666667 L 8.666666666666666 118.66666666666667 L 9.333333333333334 118.0 L 10.0 117.0 L 11.0 116.0 L 12.0 115.0 L 13.0 114.0 L 14.0 113.0 L 15.0 112.0 L 16.0 111.0 L 17.0 110.0 L 18.0 109.0 L 19.0 108.0 L 20.0 107.0 L 21.0 106.0 L 22.0 105.0 L 22.666666666666668 104.0 L 23.333333333333332 103.0 L 23.5 102.5 Z" stroke="none" fill="rgb(219,160,16)" />
</svg>
