<?xml version="1.0" encoding="UTF-8" standalone="no"?>
<!DOCTYPE svg PUBLIC "-//W3C//DTD SVG 1.1//EN"
"http://www.w3.org/Graphics/SVG/1.1/DTD/svg11.dtd">
<svg width="128" height="128" xmlns="http://www.w3.org/2000/svg" version="1.1">
<path d="M 26.5 128.0 L 27.0 128.0 L 28.0 128.0 L 29.0 128.0 L 30.0 128.0 L 31.0 128.0 L 32.0 128.0 L 33.0 128.0 L 34.0 128.0 L 35.0 128.0 L 36.0 128.0 L 37.0 128.0 L 38.0 128.0 L 39.0 128.0 L 40.0 128.0 L 41.0 128.0 L 42.0 128.0 L 43.0 128.0 L 44.0 128.0 L 45.0 128.0 L 46.0 128.0 L 47.0 128.0 L 48.0 128.0 L 49.0 128.0 L 50.0 128.0 L 51.0 128.0 L 52.0 128.0 L 53.0 128.0 L 54.0 128.0 L 55.0 128.0 L 56.0 128.0 L 57.0 128.0 L 58.0 128.0 L 59.0 128.0 L 60.0 128.0 L 61.0 128.0 L 62.0 128.0 L 63.0 128.0 L 64.0 128.0 L 65.0 128.0 L 66.0 128.0 L 67.0 128.0 L 68.0 128.0 L 69.0 128.0 L 70.0 128.0 L 71.0 128.0 L 72.0 128.0 L 73.0 128.0 L 74.0 128.0 L 75.0 128.0 L 76.0 128.0 L 77.0 128.0 L 78.0 128.0 L 79.0 128.0 L 80.0 128.0 L 81.0 128.0 L 82.0 128.0 L 83.0 128.0 L 84.0 128.0 L 85.0 128.0 L 86.0 128.0 L 87.0 128.0 L 88.0 128.0 L 89.0 128.0 L 90.0 128.0 L 91.0 128.0 L 92.0 128.0 L 93.0 128.0 L 94.0 128.0 L 95.0 128.0 L 96.0 128.0 L 97.0 128.0 L 98.0 128.0 L 99.0 128.0 L 100.0 128.0 L 101.0 128.0 L 102.0 128.0 L 103.0 128.0 L 104.0 128.0 L 105.0 128.0 L 106.0 128.0 L 107.0 128.0 L 108.0 128.0 L 109.0 128.0 L 110.0 128.0 L 111.0 128.0 L 112.0 128.0 L 113.0 128.0 L 114.0 128.0 L 115.0 128.0 L 116.0 128.0 L 117.0 128.0 L 118.0 128.0 L 119.0 128.0 L 120.0 128.0 L 121.0 128.0 L 122.0 128.0 L 123.0 128.0 L 124.0 128.0 L 125.0 128.0 L 126.0 128.0 L 127.0 128.0 L 127.66666666666667 127.66666666666667 L 128.0 127.0 L 128.0 126.0 L 128.0 125.0 L 128.0 124.0 L 128.0 123.0 L 128.0 122.0 L 128.0 121.0 L 128.0 120.0 L 128.0 119.0 L 128.0 118.0 L 128.0 117.0 L 128.0 116.0 L 128.0 115.0 L 128.0 114.0 L 128.0 113.0 L 128.0 112.0 L 128.0 111.0 L 128.0 110.0 L 128.0 109.0 L 128.0 108.0 L 128.0 107.0 L 128.0 106.0 L 128.0 105.0 L 128.0 104.0 L 128.0 103.0 L 128.0 102.0 L 128.0 101.0 L 128.0 100.0 L 128.0 99.0 L 128.0 98.0 L 128.0 97.0 L 128.0 96.0 L 128.0 95.0 L 128.0 94.0 L 128.0 93.0 L 128.0 92.0 L 128.0 91.0 L 128.0 90.0 L 128.0 89.0 L 128.0 88.0 L 128.0 87.0 L 128.0 86.0 L 128.0 85.0 L 128.0 84.0 L 128.0 83.0 L 128.0 82.0 L 128.0 81.0 L 128.0 80.0 L 128.0 79.0 L 128.0 78.0 L 128.0 77.0 L 128.0 76.0 L 128.0 75.0 L 128.0 74.0 L 128.0 73.0 L 128.0 72.0 L 128.0 71.0 L 128.0 70.0 L 128.0 69.0 L 128.0 68.0 L 128.0 67.0 L 128.0 66.0 L 128.0 65.0 L 128.0 64.0 L 128.0 63.0 L 128.0 62.0 L 128.0 61.0 L 128.0 60.0 L 128.0 59.0 L 128.0 58.0 L 128.0 57.0 L 128.0 56.0 L 128.0 55.0 L 128.0 54.0 L 128.0 53.0 L 128.0 52.0 L 128.0 51.0 L 128.0 50.0 L 128.0 49.0 L 128.0 48.0 L 128.0 47.0 L 128.0 46.0 L 128.0 45.0 L 128.0 44.0 L 128.0 43.0 L 128.0 42.0 L 128.0 41.0 L 128.0 40.0 L 128.0 39.0 L 128.0 38.0 L 128.0 37.0 L 128.0 36.0 L 128.0 35.0 L 128.0 34.0 L 128.0 33.0 L 128.0 32.0 L 128.0 31.0 L 128.0 30.0 L 128.0 29.0 L 128.0 28.0 L 128.0 27.0 L 128.0 26.0 L 128.0 25.0 L 128.0 24.0 L 128.0 23.0 L 128.0 22.0 L 128.0 21.0 L 128.0 20.0 L 128.0 19.0 L 128.0 18.0 L 128.0 17.0 L 128.0 16.0 L 128.0 15.0 L 128.0 14.0 L 128.0 13.0 L 128.0 12.0 L 128.0 11.0 L 128.0 10.0 L 128.0 9.0 L 128.0 8.0 L 128.0 7.0 L 128.0 6.0 L 128.0 5.0 L 128.0 4.0 L 128.0 3.0 L 128.0 2.0 L 128.0 1.0 L 127.66666666666667 0.3333333333333333 L 127.0 0.0 L 126.0 0.0 L 125.0 0.0 L 124.0 0.0 L 123.0 0.0 L 122.0 0.0 L 121.0 0.0 L 120.0 0.0 L 119.0 0.0 L 118.0 0.0 L 117.0 0.0 L 116.0 0.0 L 115.0 0.0 L 114.0 0.0 L 113.0 0.0 L 112.0 0.0 L 111.0 0.0 L 110.0 0.0 L 109.0 0.0 L 108.0 0.0 L 107.0 0.0 L 106.0 0.0 L 105.0 0.0 L 104.0 0.0 L 103.0 0.0 L 102.0 0.0 L 101.0 0.0 L 100.0 0.0 L 99.0 0.0 L 98.0 0.0 L 97.0 0.0 L 96.0 0.0 L 95.0 0.0 L 94.0 0.0 L 93.0 0.0 L 92.0 0.0 L 91.0 0.0 L 90.0 0.0 L 89.0 0.0 L 88.0 0.0 L 87.0 0.0 L 86.0 0.0 L 85.0 0.0 L 84.0 0.0 L 83.0 0.0 L 82.0 0.0 L 81.0 0.0 L 80.0 0.0 L 79.0 0.0 L 78.0 0.0 L 77.0 0.0 L 76.0 0.0 L 75.0 0.0 L 74.0 0.0 L 73.0 0.0 L 72.0 0.0 L 71.0 0.0 L 70.0 0.0 L 69.0 0.0 L 68.0 0.0 L 67.0 0.0 L 66.0 0.0 L 65.0 0.0 L 64.0 0.0 L 63.0 0.0 L 62.0 0.0 L 61.0 0.0 L 60.0 0.0 L 59.0 0.0 L 58.0 0.0 L 57.0 0.0 L 56.0 0.0 L 55.0 0.0 L 54.0 0.0 L 53.0 0.0 L 52.0 0.0 L 51.0 0.0 L 50.0 0.0 L 49.0 0.0 L 48.0 0.0 L 47.0 0.0 L 46.0 0.0 L 45.0 0.0 L 44.0 0.0 L 43.0 0.0 L 42.0 0.0 L 41.0 0.0 L 40.0 0.0 L 39.0 0.0 L 38.0 0.0 L 37.0 0.0 L 36.0 0.0 L 35.0 0.0 L 34.0 0.0 L 33.0 0.0 L 32.0 0.0 L 31.0 0.0 L 30.0 0.0 L 29.0 0.0 L 28.0 0.0 L 27.0 0.0 L 26.0 0.0 L 25.0 0.0 L 24.0 0.0 L 23.0 0.0 L 22.0 0.0 L 21.0 0.0 L 20.0 0.0 L 19.0 0.0 L 18.0 0.0 L 17.0 0.0 L 16.0 0.0 L 15.0 0.0 L 14.0 0.0 L 13.0 0.0 L 12.0 0.0 L 11.0 0.0 L 10.0 0.0 L 9.0 0.0 L 8.0 0.0 L 7.0 0.0 L 6.0 0.0 L 5.0 0.0 L 4.0 0.0 L 3.0 0.0 L 2.0 0.0 L 1.0 0.0 L 0.3333333333333333 0.3333333333333333 L 0.0 1.0 L 0.0 2.0 L 0.0 3.0 L 0.0 4.0 L 0.0 5.0 L 0.0 6.0 L 0.0 7.0 L 0.0 8.0 L 0.0 9.0 L 0.0 10.0 L 0.0 11.0 L 0.0 12.0 L 0.0 13.0 L 0.0 14.0 L 0.0 15.0 L 0.0 16.0 L 0.0 17.0 L 0.0 18.0 L 0.0 19.0 L 0.0 20.0 L 0.0 21.0 L 0.0 22.0 L 0.0 23.0 L 0.0 24.0 L 0.0 25.0 L 0.0 26.0 L 0.0 27.0 L 0.0 28.0 L 0.0 29.0 L 0.0 30.0 L 0.0 31.0 L 0.0 32.0 L 0.0 33.0 L 0.0 34.0 L 0.0 35.0 L 0.0 36.0 L 0.0 37.0 L 0.0 38.0 L 0.0 39.0 L 0.0 40.0 L 0.0 41.0 L 0.0 42.0 L 0.0 43.0 L 0.0 44.0 L 0.0 45.0 L 0.0 46.0 L 0.0 47.0 L 0.0 48.0 L 0.0 49.0 L 0.0 50.0 L 0.0 51.0 L 0.0 52.0 L 0.0 53.0 L 0.0 54.0 L 0.0 55.0 L 0.0 56.0 L 0.0 57.0 L 0.0 58.0 L 0.0 59.0 L 0.0 60.0 L 0.0 61.0 L 0.0 62.0 L 0.0 63.0 L 0.0 64.0 L 0.0 65.0 L 0.0 66.0 L 0.0 67.0 L 0.0 68.0 L 0.0 69.0 L 0.0 70.0 L 0.0 71.0 L 0.0 72.0 L 0.0 73.0 L 0.0 74.0 L 0.0 75.0 L 0.0 76.0 L 0.0 77.0 L 0.0 78.0 L 0.0 79.0 L 0.0 80.0 L 0.0 81.0 L 0.0 82.0 L 0.0 83.0 L 0.0 84.0 L 0.0 85.0 L 0.0 86.0 L 0.0 87.0 L 0.0 88.0 L 0.0 89.0 L 0.0 90.0 L 0.0 91.0 L 0.0 92.0 L 0.0 93.0 L 0.0 94.0 L 0.0 95.0 L 0.0 96.0 L 0.0 97.0 L 0.0 98.0 L 0.0 99.0 L 0.0 100.0 L 0.0 101.0 L 0.0 102.0 L 0.0 103.0 L 0.0 104.0 L 0.0 105.0 L 0.0 106.0 L 0.0 107.0 L 0.0 108.0 L 0.0 109.0 L 0.0 110.0 L 0.0 111.0 L 0.0 112.0 L 0.0 113.0 L 0.0 114.0 L 0.0 115.0 L 0.0 116.0 L 0.0 117.0 L 0.0 118.0 L 0.0 119.0 L 0.0 120.0 L 0.0 121.0 L 0.0 122.0 L 0.0 123.0 L 0.0 124.0 L 0.0 125.0 L 0.0 126.0 L 0.0 127.0 L 0.3333333333333333 127.66666666666667 L 1.0 128.0 L 2.0 128.0 L 3.0 128.0 L 4.0 128.0 L 5.0 128.0 L 6.0 128.0 L 7.0 128.0 L 8.0 128.0 L 9.0 128.0 L 10.0 128.0 L 11.0 128.0 L 12.0 128.0 L 13.0 128.0 L 14.0 128.0 L 15.0 128.0 L 16.0 128.0 L 17.0 128.0 L 18.0 128.0 L 19.0 128.0 L 20.0 128.0 L 21.0 128.0 L 22.0 128.0 L 23.0 128.0 L 24.0 128.0 L 25.0 128.0 L 25.5 128.0 Z" stroke="none" fill="rgb(255,255,255)" />
<path d="M 123.5 91.0 L 124.0 91.0 L 124.66666666666667 90.66666666666667 L 125.0 90.0 L 125.0 89.0 L 125.0 88.0 L 125.0 87.0 L 125.0 86.0 L 125.0 85.0 L 125.0 84.0 L 125.0 83.0 L 125.0 82.0 L 125.0 81.0 L 125.0 80.0 L 125.0 79.0 L 125.0 78.0 L 125.0 77.0 L 125.0 76.0 L 125.0 75.0 L 125.0 74.0 L 124.66666666666667 73.33333333333333 L 124.0 73.0 L 123.0 73.0 L 122.0 73.0 L 121.0 73.0 L 120.0 73.0 L 119.0 73.0 L 118.0 73.0 L 117.0 73.0 L 116.0 73.0 L 115.0 72.66666666666667 L 114.0 72.33333333333333 L 113.0 72.0 L 112.0 71.66666666666667 L 111.0 71.33333333333333 L 110.0 71.0 L 109.0 70.66666666666667 L 108.0 70.33333333333333 L 107.0 69.66666666666667 L 106.0 69.33333333333333 L 105.0 68.66666666666667 L 104.0 68.0 L 103.0 67.0 L 102.0 66.0 L 101.0 65.0 L 100.0 64.0 L 99.33333333333333 63.0 L 99.33333333333333 62.0 L 100.0 61.0 L 101.0 60.0 L 102.0 59.333333333333336 L 103.0 59.0 L 104.0 59.333333333333336 L 105.0 59.666666666666664 L 106.0 60.0 L 107.0 60.333333333333336 L 108.0 60.666666666666664 L 109.0 61.0 L 110.0 61.0 L 111.0 61.0 L 112.0 61.0 L 113.0 61.333333333333336 L 114.0 61.666666666666664 L 115.0 62.0 L 116.0 62.0 L 117.0 62.0 L 118.0 62.0 L 119.0 62.0 L 120.0 62.0 L 121.0 62.0 L 122.0 62.0 L 123.0 62.0 L 124.0 62.0 L 124.66666666666667 61.666666666666664 L 125.0 61.0 L 125.0 60.0 L 125.0 59.0 L 125.0 58.0 L 125.0 57.0 L 125.0 56.0 L 125.0 55.0 L 125.0 54.0 L 124.66666666666667 53.333333333333336 L 124.0 53.0 L 123.0 53.0 L 122.0 53.0 L 121.0 53.0 L 120.0 53.0 L 119.0 53.0 L 118.0 53.0 L 117.0 52.666666666666664 L 116.0 52.333333333333336 L 115.0 51.666666666666664 L 114.0 51.0 L 113.0 50.0 L 112.0 49.0 L 111.66666666666667 48.0 L 112.0 47.0 L 113.0 46.0 L 114.0 45.333333333333336 L 115.0 45.0 L 116.0 45.0 L 117.0 45.0 L 118.0 45.0 L 119.0 45.0 L 120.0 45.0 L 121.0 45.0 L 122.0 45.0 L 123.0 45.0 L 124.0 45.0 L 124.66666666666667 44.666666666666664 L 125.0 44.0 L 125.0 43.0 L 125.0 42.0 L 125.0 41.0 L 125.0 40.0 L 125.0 39.0 L 125.0 38.0 L 125.0 37.0 L 125.0 36.0 L 125.0 35.0 L 125.0 34.0 L 125.0 33.0 L 125.0 32.0 L 125.0 31.0 L 125.0 30.0 L 125.0 29.0 L 125.0 28.0 L 125.0 27.0 L 125.0 26.0 L 125.0 25.0 L 125.0 24.0 L 125.0 23.0 L 125.0 22.0 L 125.0 21.0 L 125.0 20.0 L 125.0 19.0 L 125.0 18.0 L 125.0 17.0 L 125.0 16.0 L 125.0 15.0 L 125.0 14.0 L 125.0 13.0 L 125.0 12.0 L 125.0 11.0 L 125.0 10.0 L 125.0 9.0 L 125.0 8.0 L 125.0 7.0 L 125.0 6.0 L 125.0 5.0 L 124.66666666666667 4.333333333333333 L 124.0 4.0 L 123.0 4.0 L 122.0 4.0 L 121.0 4.0 L 120.0 4.0 L 119.0 4.0 L 118.0 4.0 L 117.0 4.0 L 116.0 4.0 L 115.0 4.0 L 114.0 4.0 L 113.0 4.0 L 112.0 4.0 L 111.0 4.0 L 110.0 4.0 L 109.0 4.0 L 108.0 4.0 L 107.0 4.0 L 106.0 4.0 L 105.0 4.0 L 104.0 4.0 L 103.0 4.0 L 102.0 4.0 L 101.0 4.0 L 100.0 4.0 L 99.0 4.0 L 98.0 4.0 L 97.0 4.0 L 96.0 4.0 L 95.0 4.0 L 94.0 4.0 L 93.0 4.0 L 92.0 4.0 L 91.0 4.0 L 90.0 4.0 L 89.0 4.0 L 88.0 4.0 L 87.0 4.333333333333333 L 86.0 4.666666666666667 L 85.0 5.0 L 84.0 5.0 L 83.0 5.0 L 82.0 5.333333333333333 L 81.0 6.0 L 80.0 6.666666666666667 L 79.0 7.333333333333333 L 78.0 7.666666666666667 L 77.0 8.333333333333334 L 76.0 8.666666666666666 L 75.0 9.333333333333334 L 74.0 9.666666666666666 L 73.0 10.333333333333334 L 72.0 11.0 L 71.0 12.0 L 70.0 12.666666666666666 L 69.0 13.333333333333334 L 68.0 14.0 L 67.33333333333333 15.0 L 66.66666666666667 16.0 L 66.33333333333333 17.0 L 66.0 18.0 L 66.0 19.0 L 65.66666666666667 20.0 L 65.33333333333333 21.0 L 65.0 22.0 L 65.0 23.0 L 65.0 24.0 L 64.66666666666667 25.0 L 64.33333333333333 26.0 L 64.0 27.0 L 64.0 28.0 L 64.0 29.0 L 64.0 30.0 L 64.0 31.0 L 63.666666666666664 32.0 L 63.333333333333336 33.0 L 63.333333333333336 34.0 L 63.666666666666664 35.0 L 64.0 36.0 L 64.33333333333333 37.0 L 64.66666666666667 38.0 L 65.0 39.0 L 65.0 40.0 L 65.33333333333333 41.0 L 65.66666666666667 42.0 L 66.0 43.0 L 66.33333333333333 44.0 L 66.66666666666667 45.0 L 67.33333333333333 46.0 L 67.66666666666667 47.0 L 68.0 48.0 L 68.33333333333333 49.0 L 68.66666666666667 50.0 L 69.0 51.0 L 69.33333333333333 52.0 L 69.66666666666667 53.0 L 70.33333333333333 54.0 L 70.66666666666667 55.0 L 71.33333333333333 56.0 L 72.0 57.0 L 72.66666666666667 58.0 L 73.33333333333333 59.0 L 73.66666666666667 60.0 L 74.33333333333333 61.0 L 74.66666666666667 62.0 L 75.33333333333333 63.0 L 76.0 64.0 L 76.66666666666667 65.0 L 77.33333333333333 66.0 L 77.66666666666667 67.0 L 77.66666666666667 68.0 L 77.0 69.0 L 76.0 70.0 L 75.0 71.0 L 74.0 72.0 L 73.0 73.0 L 72.0 74.0 L 71.0 75.0 L 70.0 75.66666666666667 L 69.0 76.33333333333333 L 68.0 77.0 L 67.0 77.66666666666667 L 66.0 78.33333333333333 L 65.0 78.66666666666667 L 64.0 79.0 L 63.0 79.33333333333333 L 62.0 79.66666666666667 L 61.0 80.0 L 60.0 80.0 L 59.0 80.33333333333333 L 58.0 80.66666666666667 L 57.0 81.0 L 56.0 81.33333333333333 L 55.0 81.66666666666667 L 54.0 82.33333333333333 L 53.333333333333336 83.0 L 53.0 84.0 L 53.333333333333336 85.0 L 54.0 86.0 L 55.0 87.0 L 56.0 88.0 L 57.0 89.0 L 58.0 90.0 L 59.0 91.0 L 60.0 92.0 L 61.0 93.0 L 62.0 94.0 L 63.0 95.0 L 64.0 96.0 L 65.0 97.0 L 65.66666666666667 98.0 L 66.0 99.0 L 66.0 100.0 L 65.66666666666667 101.0 L 65.33333333333333 102.0 L 65.33333333333333 103.0 L 65.66666666666667 104.0 L 66.33333333333333 105.0 L 67.0 106.0 L 68.0 106.66666666666667 L 69.0 107.0 L 70.0 107.0 L 71.0 107.0 L 72.0 107.0 L 72.66666666666667 106.66666666666667 L 73.0 106.0 L 73.0 105.0 L 73.0 104.0 L 73.0 103.0 L 73.0 102.0 L 73.0 101.0 L 73.0 100.0 L 73.0 99.0 L 73.0 98.0 L 73.33333333333333 97.0 L 74.0 96.33333333333333 L 74.66666666666667 95.66666666666667 L 75.0 95.0 L 75.0 94.0 L 75.0 93.0 L 75.0 92.0 L 75.0 91.0 L 74.66666666666667 90.0 L 74.33333333333333 89.0 L 74.0 88.0 L 74.33333333333333 87.0 L 75.0 86.66666666666667 L 76.0 87.0 L 77.0 87.66666666666667 L 78.0 88.0 L 79.0 87.66666666666667 L 80.0 87.0 L 81.0 86.0 L 82.0 85.0 L 83.0 84.0 L 84.0 83.0 L 85.0 82.0 L 86.0 81.0 L 87.0 80.0 L 87.66666666666667 79.0 L 88.0 78.0 L 88.33333333333333 77.0 L 89.0 76.0 L 89.66666666666667 75.0 L 90.33333333333333 74.0 L 90.66666666666667 73.0 L 91.0 72.0 L 91.0 71.0 L 91.0 70.0 L 90.66666666666667 69.0 L 90.33333333333333 68.0 L 90.33333333333333 67.0 L 91.0 66.66666666666667 L 92.0 67.0 L 93.0 68.0 L 94.0 69.0 L 94.66666666666667 70.0 L 95.33333333333333 71.0 L 95.66666666666667 72.0 L 96.0 73.0 L 96.0 74.0 L 96.0 75.0 L 96.0 76.0 L 96.0 77.0 L 96.0 78.0 L 96.0 79.0 L 96.0 80.0 L 96.0 81.0 L 96.0 82.0 L 96.0 83.0 L 96.0 84.0 L 96.33333333333333 84.66666666666667 L 97.0 85.33333333333333 L 98.0 85.66666666666667 L 99.0 86.33333333333333 L 100.0 86.66666666666667 L 101.0 87.33333333333333 L 102.0 88.0 L 103.0 89.0 L 104.0 89.66666666666667 L 105.0 90.0 L 106.0 90.0 L 107.0 90.0 L 108.0 90.0 L 109.0 90.0 L 110.0 90.0 L 111.0 90.33333333333333 L 112.0 90.66666666666667 L 113.0 91.0 L 114.0 91.0 L 115.0 91.0 L 116.0 91.0 L 117.0 91.0 L 118.0 91.0 L 119.0 91.0 L 120.0 91.0 L 121.0 91.0 L 122.0 91.0 L 122.5 91.0 Z" stroke="none" fill="rgb(112,83,74)" />
<path d="M 95.0 100.5 L 95.33333333333333 100.0 L 96.0 99.33333333333333 L 97.0 99.0 L 98.0 98.66666666666667 L 99.0 98.33333333333333 L 100.0 98.0 L 101.0 98.0 L 102.0 97.66666666666667 L 103.0 97.33333333333333 L 104.0 97.0 L 104.66666666666667 96.66666666666667 L 105.0 96.0 L 105.0 95.0 L 105.0 94.0 L 105.0 93.0 L 105.0 92.0 L 105.0 91.0 L 104.66666666666667 90.0 L 104.0 89.0 L 103.0 88.0 L 102.0 87.33333333333333 L 101.0 86.66666666666667 L 100.0 86.33333333333333 L 99.0 85.66666666666667 L 98.0 85.33333333333333 L 97.0 84.66666666666667 L 96.0 84.33333333333333 L 95.0 83.66666666666667 L 94.0 83.0 L 93.0 82.0 L 92.0 81.33333333333333 L 91.0 80.66666666666667 L 90.0 80.0 L 89.0 79.33333333333333 L 88.0 79.0 L 87.0 79.33333333333333 L 86.0 80.0 L 85.0 81.0 L 84.0 82.0 L 83.0 83.0 L 82.0 84.0 L 81.0 85.0 L 80.0 86.0 L 79.0 87.0 L 78.33333333333333 88.0 L 78.0 89.0 L 78.0 90.0 L 78.0 91.0 L 78.0 92.0 L 78.0 93.0 L 78.0 94.0 L 78.0 95.0 L 78.0 96.0 L 78.0 97.0 L 78.0 98.0 L 78.0 99.0 L 78.33333333333333 100.0 L 78.66666666666667 101.0 L 79.33333333333333 102.0 L 80.0 102.66666666666667 L 81.0 103.0 L 82.0 103.0 L 83.0 102.66666666666667 L 84.0 102.33333333333333 L 85.0 102.0 L 86.0 101.66666666666667 L 87.0 101.33333333333333 L 88.0 101.0 L 89.0 101.0 L 90.0 100.66666666666667 L 91.0 100.33333333333333 L 92.0 100.33333333333333 L 93.0 100.66666666666667 L 94.0 101.0 L 94.5 101.0 Z" stroke="none" fill="rgb(35,32,32)" />
<path d="M 66.5 78.5 L 67.0 78.33333333333333 L 68.0 77.66666666666667 L 69.0 77.0 L 70.0 76.33333333333333 L 71.0 75.66666666666667 L 72.0 75.0 L 73.0 74.0 L 74.0 73.0 L 75.0 72.0 L 76.0 71.0 L 77.0 70.0 L 77.66666666666667 69.0 L 78.0 68.0 L 78.0 67.0 L 77.66666666666667 66.0 L 77.33333333333333 65.0 L 76.66666666666667 64.0 L 76.0 63.0 L 75.33333333333333 62.0 L 74.66666666666667 61.0 L 74.33333333333333 60.0 L 73.66666666666667 59.0 L 73.33333333333333 58.0 L 72.66666666666667 57.0 L 72.0 56.0 L 71.33333333333333 55.0 L 70.66666666666667 54.0 L 70.33333333333333 53.0 L 69.66666666666667 52.0 L 69.0 51.333333333333336 L 68.0 51.0 L 67.0 51.0 L 66.0 51.0 L 65.0 50.666666666666664 L 64.0 50.333333333333336 L 63.0 50.0 L 62.0 49.666666666666664 L 61.0 49.0 L 60.0 48.0 L 59.0 47.333333333333336 L 58.0 47.0 L 57.333333333333336 47.333333333333336 L 57.0 48.0 L 57.0 49.0 L 57.0 50.0 L 57.0 51.0 L 57.0 52.0 L 57.333333333333336 53.0 L 57.666666666666664 54.0 L 58.0 55.0 L 58.0 56.0 L 58.0 57.0 L 58.0 58.0 L 58.333333333333336 59.0 L 58.666666666666664 60.0 L 59.0 61.0 L 59.0 62.0 L 59.0 63.0 L 59.333333333333336 64.0 L 59.666666666666664 65.0 L 60.0 66.0 L 60.0 67.0 L 60.333333333333336 68.0 L 60.666666666666664 69.0 L 61.0 70.0 L 61.0 71.0 L 61.333333333333336 72.0 L 61.666666666666664 73.0 L 62.0 74.0 L 62.0 75.0 L 62.333333333333336 76.0 L 62.666666666666664 77.0 L 63.0 78.0 L 63.333333333333336 78.66666666666667 L 64.0 79.0 L 65.0 79.0 L 65.5 79.0 Z" stroke="none" fill="rgb(35,32,32)" />
<path d="M 23.5 62.5 L 23.666666666666668 63.0 L 24.333333333333332 64.0 L 24.666666666666668 65.0 L 25.333333333333332 66.0 L 26.0 67.0 L 26.666666666666668 68.0 L 27.333333333333332 69.0 L 28.0 70.0 L 29.0 71.0 L 30.0 72.0 L 31.0 73.0 L 31.666666666666668 74.0 L 31.666666666666668 75.0 L 31.0 76.0 L 30.333333333333332 77.0 L 30.333333333333332 78.0 L 31.0 78.66666666666667 L 32.0 79.0 L 33.0 79.0 L 34.0 79.0 L 35.0 79.33333333333333 L 36.0 79.66666666666667 L 37.0 80.0 L 38.0 80.0 L 39.0 80.33333333333333 L 40.0 80.66666666666667 L 41.0 81.0 L 42.0 81.0 L 43.0 81.0 L 44.0 81.0 L 44.666666666666664 80.66666666666667 L 45.0 80.0 L 45.0 79.0 L 44.666666666666664 78.0 L 44.333333333333336 77.0 L 44.0 76.0 L 44.0 75.0 L 43.666666666666664 74.0 L 43.333333333333336 73.0 L 43.0 72.0 L 43.0 71.0 L 42.666666666666664 70.0 L 42.333333333333336 69.0 L 42.0 68.0 L 42.0 67.0 L 41.666666666666664 66.33333333333333 L 41.0 66.0 L 40.0 66.33333333333333 L 39.0 67.0 L 38.0 68.0 L 37.0 69.0 L 36.0 69.33333333333333 L 35.0 69.0 L 34.0 68.0 L 33.0 67.0 L 32.333333333333336 66.0 L 31.666666666666668 65.0 L 31.0 64.0 L 30.0 63.0 L 29.333333333333332 62.0 L 28.666666666666668 61.0 L 28.333333333333332 60.0 L 27.666666666666668 59.0 L 27.333333333333332 58.0 L 26.666666666666668 57.0 L 26.333333333333332 56.0 L 25.666666666666668 55.0 L 25.333333333333332 54.0 L 25.0 53.0 L 24.666666666666668 52.0 L 24.333333333333332 51.0 L 24.0 50.0 L 23.666666666666668 49.0 L 23.333333333333332 48.0 L 23.0 47.0 L 23.0 46.0 L 23.0 45.0 L 22.666666666666668 44.0 L 22.333333333333332 43.0 L 22.0 42.0 L 22.0 41.0 L 22.0 40.0 L 22.0 39.0 L 22.0 38.0 L 22.0 37.0 L 22.0 36.0 L 22.0 35.0 L 22.0 34.0 L 21.666666666666668 33.333333333333336 L 21.0 33.0 L 20.0 33.0 L 19.0 33.0 L 18.0 33.0 L 17.333333333333332 33.333333333333336 L 17.0 34.0 L 17.0 35.0 L 17.0 36.0 L 17.0 37.0 L 17.0 38.0 L 17.0 39.0 L 17.0 40.0 L 17.0 41.0 L 17.0 42.0 L 17.0 43.0 L 17.333333333333332 44.0 L 17.666666666666668 45.0 L 18.0 46.0 L 18.0 47.0 L 18.0 48.0 L 18.333333333333332 49.0 L 18.666666666666668 50.0 L 19.0 51.0 L 19.0 52.0 L 19.333333333333332 53.0 L 19.666666666666668 54.0 L 20.0 55.0 L 20.333333333333332 56.0 L 20.666666666666668 57.0 L 21.333333333333332 58.0 L 21.666666666666668 59.0 L 22.0 60.0 L 22.333333333333332 61.0 L 22.5 61.5 Z" stroke="none" fill="rgb(176,190,197)" />
<path d="M 58.5 25.5 L 58.666666666666664 26.0 L 59.0 27.0 L 59.333333333333336 28.0 L 59.666666666666664 29.0 L 60.0 30.0 L 60.333333333333336 31.0 L 60.666666666666664 32.0 L 61.333333333333336 32.666666666666664 L 62.0 33.0 L 63.0 33.0 L 63.666666666666664 32.666666666666664 L 64.0 32.0 L 64.0 31.0 L 64.0 30.0 L 64.0 29.0 L 64.0 28.0 L 64.33333333333333 27.0 L 64.66666666666667 26.0 L 65.0 25.0 L 65.0 24.0 L 65.0 23.0 L 65.33333333333333 22.0 L 65.66666666666667 21.0 L 66.0 20.0 L 66.0 19.0 L 66.33333333333333 18.0 L 66.66666666666667 17.0 L 67.33333333333333 16.0 L 68.0 15.0 L 69.0 14.0 L 70.0 13.333333333333334 L 71.0 12.666666666666666 L 72.0 12.0 L 73.0 11.0 L 74.0 10.333333333333334 L 75.0 9.666666666666666 L 76.0 9.333333333333334 L 77.0 8.666666666666666 L 78.0 8.333333333333334 L 79.0 7.666666666666667 L 80.0 7.333333333333333 L 81.0 6.666666666666667 L 81.66666666666667 6.0 L 82.0 5.0 L 81.66666666666667 4.333333333333333 L 81.0 4.0 L 80.0 4.0 L 79.0 4.0 L 78.0 4.0 L 77.0 4.0 L 76.0 4.0 L 75.0 4.0 L 74.0 4.0 L 73.0 4.0 L 72.0 4.0 L 71.0 4.0 L 70.0 4.0 L 69.0 4.0 L 68.0 4.0 L 67.0 4.0 L 66.0 4.0 L 65.0 4.0 L 64.0 4.0 L 63.0 4.0 L 62.0 4.0 L 61.0 4.0 L 60.0 4.0 L 59.0 4.0 L 58.0 4.0 L 57.0 4.0 L 56.0 4.0 L 55.333333333333336 4.333333333333333 L 55.0 5.0 L 54.666666666666664 6.0 L 54.333333333333336 7.0 L 54.0 8.0 L 54.0 9.0 L 54.0 10.0 L 54.0 11.0 L 54.0 12.0 L 54.0 13.0 L 54.0 14.0 L 54.0 15.0 L 54.0 16.0 L 54.0 17.0 L 54.0 18.0 L 54.333333333333336 18.666666666666668 L 55.0 19.0 L 56.0 19.333333333333332 L 56.666666666666664 20.0 L 57.333333333333336 21.0 L 57.666666666666664 22.0 L 58.0 23.0 L 58.0 24.0 L 58.0 24.5 Z" stroke="none" fill="rgb(35,32,32)" />
<path d="M 113.5 108.5 L 114.0 108.66666666666667 L 115.0 109.0 L 116.0 109.0 L 117.0 109.0 L 118.0 109.0 L 119.0 109.0 L 120.0 109.0 L 121.0 109.0 L 122.0 109.0 L 123.0 109.0 L 124.0 109.0 L 124.66666666666667 108.66666666666667 L 125.0 108.0 L 125.0 107.0 L 125.0 106.0 L 125.0 105.0 L 125.0 104.0 L 125.0 103.0 L 125.0 102.0 L 125.0 101.0 L 125.0 100.0 L 125.0 99.0 L 125.0 98.0 L 125.0 97.0 L 125.0 96.0 L 125.0 95.0 L 125.0 94.0 L 125.0 93.0 L 125.0 92.0 L 124.66666666666667 91.33333333333333 L 124.0 91.0 L 123.0 91.0 L 122.0 91.0 L 121.0 91.0 L 120.0 91.0 L 119.0 91.0 L 118.0 91.0 L 117.0 91.0 L 116.0 91.0 L 115.0 91.0 L 114.0 91.0 L 113.0 90.66666666666667 L 112.0 90.33333333333333 L 111.0 90.0 L 110.0 90.0 L 109.0 90.0 L 108.0 90.0 L 107.0 90.0 L 106.0 90.0 L 105.33333333333333 90.33333333333333 L 105.0 91.0 L 105.0 92.0 L 105.0 93.0 L 105.0 94.0 L 105.0 95.0 L 104.66666666666667 96.0 L 104.33333333333333 97.0 L 104.33333333333333 98.0 L 104.66666666666667 99.0 L 105.33333333333333 100.0 L 105.66666666666667 101.0 L 106.33333333333333 102.0 L 107.0 103.0 L 107.66666666666667 104.0 L 108.33333333333333 105.0 L 109.0 106.0 L 110.0 106.66666666666667 L 111.0 107.33333333333333 L 112.0 107.66666666666667 L 112.5 108.0 Z" stroke="none" fill="rgb(60,43,36)" />
<path d="M 59.0 80.5 L 59.0 80.0 L 59.0 79.0 L 59.0 78.0 L 58.666666666666664 77.0 L 58.333333333333336 76.0 L 58.0 75.0 L 58.0 74.0 L 57.666666666666664 73.0 L 57.333333333333336 72.0 L 57.0 71.0 L 57.0 70.0 L 56.666666666666664 69.0 L 56.333333333333336 68.0 L 56.0 67.0 L 56.0 66.0 L 56.0 65.0 L 55.666666666666664 64.0 L 55.333333333333336 63.0 L 55.0 62.0 L 55.0 61.0 L 55.0 60.0 L 54.666666666666664 59.0 L 54.333333333333336 58.0 L 54.0 57.0 L 54.0 56.0 L 54.0 55.0 L 54.0 54.0 L 53.666666666666664 53.0 L 53.333333333333336 52.0 L 53.0 51.0 L 53.0 50.0 L 53.0 49.0 L 53.0 48.0 L 52.666666666666664 47.0 L 52.333333333333336 46.0 L 52.0 45.0 L 52.0 44.0 L 52.0 43.0 L 52.333333333333336 42.0 L 52.666666666666664 41.0 L 53.0 40.0 L 52.666666666666664 39.0 L 52.333333333333336 38.0 L 52.0 37.0 L 52.0 36.0 L 52.0 35.0 L 52.0 34.0 L 52.0 33.0 L 52.0 32.0 L 52.0 31.0 L 52.0 30.0 L 52.0 29.0 L 51.666666666666664 28.0 L 51.0 27.0 L 50.333333333333336 26.0 L 50.0 25.0 L 50.0 24.0 L 50.0 23.0 L 50.0 22.0 L 50.0 21.0 L 50.0 20.0 L 50.0 19.0 L 50.0 18.0 L 50.0 17.0 L 50.0 16.0 L 50.0 15.0 L 50.0 14.0 L 50.0 13.0 L 50.0 12.0 L 50.0 11.0 L 50.0 10.0 L 50.0 9.0 L 50.0 8.0 L 50.0 7.0 L 50.0 6.0 L 50.0 5.0 L 49.666666666666664 4.333333333333333 L 49.0 4.0 L 48.0 4.0 L 47.333333333333336 4.333333333333333 L 47.0 5.0 L 47.0 6.0 L 46.666666666666664 7.0 L 46.333333333333336 8.0 L 46.0 9.0 L 46.0 10.0 L 46.0 11.0 L 46.0 12.0 L 46.0 13.0 L 46.333333333333336 14.0 L 46.666666666666664 15.0 L 47.0 16.0 L 47.0 17.0 L 47.0 18.0 L 47.0 19.0 L 47.0 20.0 L 47.0 21.0 L 47.0 22.0 L 47.0 23.0 L 47.0 24.0 L 47.0 25.0 L 47.0 26.0 L 47.0 27.0 L 47.0 28.0 L 47.0 29.0 L 47.0 30.0 L 47.0 31.0 L 47.0 32.0 L 47.333333333333336 33.0 L 47.666666666666664 34.0 L 48.0 35.0 L 48.0 36.0 L 48.0 37.0 L 48.0 38.0 L 48.0 39.0 L 48.0 40.0 L 48.0 41.0 L 48.0 42.0 L 48.333333333333336 43.0 L 48.666666666666664 44.0 L 49.0 45.0 L 49.0 46.0 L 49.0 47.0 L 49.0 48.0 L 49.0 49.0 L 49.333333333333336 50.0 L 49.666666666666664 51.0 L 50.0 52.0 L 50.0 53.0 L 50.0 54.0 L 50.0 55.0 L 50.333333333333336 56.0 L 50.666666666666664 57.0 L 51.0 58.0 L 51.0 59.0 L 51.0 60.0 L 51.333333333333336 61.0 L 51.666666666666664 62.0 L 52.0 63.0 L 52.0 64.0 L 52.0 65.0 L 52.333333333333336 66.0 L 52.666666666666664 67.0 L 53.0 68.0 L 53.0 69.0 L 53.0 70.0 L 53.333333333333336 71.0 L 53.666666666666664 72.0 L 54.0 73.0 L 54.0 74.0 L 54.333333333333336 75.0 L 54.666666666666664 76.0 L 55.0 77.0 L 55.0 78.0 L 55.333333333333336 79.0 L 55.666666666666664 80.0 L 56.333333333333336 80.66666666666667 L 57.0 81.0 L 58.0 81.0 L 58.5 81.0 Z" stroke="none" fill="rgb(46,43,42)" />
<path d="M 51.5 83.0 L 52.0 83.0 L 53.0 83.0 L 53.666666666666664 82.66666666666667 L 53.666666666666664 82.0 L 53.333333333333336 81.0 L 53.0 80.0 L 52.666666666666664 79.0 L 52.333333333333336 78.0 L 52.0 77.0 L 52.0 76.0 L 51.666666666666664 75.0 L 51.333333333333336 74.0 L 51.0 73.0 L 51.0 72.0 L 50.666666666666664 71.0 L 50.333333333333336 70.0 L 50.0 69.0 L 50.0 68.0 L 49.666666666666664 67.0 L 49.333333333333336 66.0 L 49.0 65.0 L 49.0 64.0 L 49.0 63.0 L 48.666666666666664 62.0 L 48.333333333333336 61.0 L 48.0 60.0 L 48.0 59.0 L 48.0 58.0 L 48.0 57.0 L 47.666666666666664 56.0 L 47.333333333333336 55.0 L 47.0 54.0 L 47.0 53.0 L 47.0 52.0 L 47.0 51.0 L 46.666666666666664 50.0 L 46.333333333333336 49.0 L 46.0 48.0 L 46.0 47.0 L 46.0 46.0 L 46.0 45.0 L 46.0 44.0 L 45.666666666666664 43.0 L 45.333333333333336 42.0 L 45.0 41.0 L 45.0 40.0 L 45.0 39.0 L 45.0 38.0 L 45.0 37.0 L 45.0 36.0 L 44.666666666666664 35.0 L 44.333333333333336 34.0 L 44.0 33.0 L 44.0 32.0 L 44.0 31.0 L 44.0 30.0 L 44.0 29.0 L 44.0 28.0 L 44.0 27.0 L 44.0 26.0 L 44.0 25.0 L 44.0 24.0 L 44.0 23.0 L 44.0 22.0 L 44.0 21.0 L 43.666666666666664 20.0 L 43.333333333333336 19.0 L 43.0 18.0 L 43.0 17.0 L 43.0 16.0 L 43.0 15.0 L 43.0 14.0 L 43.0 13.0 L 43.0 12.0 L 43.0 11.0 L 43.0 10.0 L 43.0 9.0 L 43.0 8.0 L 43.0 7.0 L 43.0 6.0 L 43.0 5.0 L 42.666666666666664 4.333333333333333 L 42.0 4.0 L 41.0 4.0 L 40.333333333333336 4.333333333333333 L 40.0 5.0 L 40.0 6.0 L 40.0 7.0 L 40.0 8.0 L 40.0 9.0 L 40.0 10.0 L 40.0 11.0 L 40.0 12.0 L 40.0 13.0 L 40.0 14.0 L 40.0 15.0 L 40.0 16.0 L 40.0 17.0 L 40.0 18.0 L 40.0 19.0 L 40.0 20.0 L 40.0 21.0 L 40.0 22.0 L 40.0 23.0 L 40.0 24.0 L 40.0 25.0 L 40.0 26.0 L 40.0 27.0 L 40.333333333333336 28.0 L 40.666666666666664 29.0 L 41.0 30.0 L 41.0 31.0 L 41.0 32.0 L 41.0 33.0 L 41.0 34.0 L 41.0 35.0 L 41.0 36.0 L 41.0 37.0 L 41.0 38.0 L 41.333333333333336 39.0 L 41.666666666666664 40.0 L 42.0 41.0 L 42.0 42.0 L 42.0 43.0 L 42.0 44.0 L 42.0 45.0 L 42.0 46.0 L 42.333333333333336 47.0 L 42.666666666666664 48.0 L 43.0 49.0 L 43.0 50.0 L 43.0 51.0 L 43.0 52.0 L 43.333333333333336 53.0 L 43.666666666666664 54.0 L 44.0 55.0 L 44.0 56.0 L 44.0 57.0 L 44.0 58.0 L 44.333333333333336 59.0 L 44.666666666666664 60.0 L 45.0 61.0 L 45.0 62.0 L 45.0 63.0 L 45.333333333333336 64.0 L 45.666666666666664 65.0 L 46.0 66.0 L 46.0 67.0 L 46.0 68.0 L 46.333333333333336 69.0 L 46.666666666666664 70.0 L 47.0 71.0 L 47.0 72.0 L 47.333333333333336 73.0 L 47.666666666666664 74.0 L 48.0 75.0 L 48.0 76.0 L 48.0 77.0 L 48.333333333333336 78.0 L 48.666666666666664 79.0 L 49.0 80.0 L 49.333333333333336 81.0 L 49.666666666666664 82.0 L 50.333333333333336 82.66666666666667 L 50.5 83.0 Z" stroke="none" fill="rgb(56,52,52)" />
<path d="M 44.5 35.5 L 44.666666666666664 36.0 L 45.0 37.0 L 45.0 38.0 L 45.0 39.0 L 45.0 40.0 L 45.0 41.0 L 45.0 42.0 L 45.333333333333336 43.0 L 45.666666666666664 44.0 L 46.0 45.0 L 46.0 46.0 L 46.0 47.0 L 46.0 48.0 L 46.0 49.0 L 46.333333333333336 50.0 L 46.666666666666664 51.0 L 47.0 52.0 L 47.0 53.0 L 47.0 54.0 L 47.0 55.0 L 47.333333333333336 56.0 L 47.666666666666664 57.0 L 48.0 58.0 L 48.0 59.0 L 48.0 60.0 L 48.0 61.0 L 48.333333333333336 62.0 L 48.666666666666664 63.0 L 49.0 64.0 L 49.0 65.0 L 49.0 66.0 L 49.333333333333336 67.0 L 49.666666666666664 68.0 L 50.0 69.0 L 50.0 70.0 L 50.333333333333336 71.0 L 50.666666666666664 72.0 L 51.0 73.0 L 51.0 74.0 L 51.333333333333336 75.0 L 51.666666666666664 76.0 L 52.0 77.0 L 52.0 78.0 L 52.333333333333336 79.0 L 52.666666666666664 80.0 L 53.0 81.0 L 53.333333333333336 81.66666666666667 L 54.0 82.0 L 55.0 82.0 L 55.666666666666664 81.66666666666667 L 56.0 81.0 L 56.0 80.0 L 55.666666666666664 79.0 L 55.333333333333336 78.0 L 55.0 77.0 L 55.0 76.0 L 54.666666666666664 75.0 L 54.333333333333336 74.0 L 54.0 73.0 L 54.0 72.0 L 53.666666666666664 71.0 L 53.333333333333336 70.0 L 53.0 69.0 L 53.0 68.0 L 53.0 67.0 L 52.666666666666664 66.0 L 52.333333333333336 65.0 L 52.0 64.0 L 52.0 63.0 L 52.0 62.0 L 51.666666666666664 61.0 L 51.333333333333336 60.0 L 51.0 59.0 L 51.0 58.0 L 51.0 57.0 L 50.666666666666664 56.0 L 50.333333333333336 55.0 L 50.0 54.0 L 50.0 53.0 L 50.0 52.0 L 50.0 51.0 L 49.666666666666664 50.0 L 49.333333333333336 49.0 L 49.0 48.0 L 49.0 47.0 L 49.0 46.0 L 49.0 45.0 L 49.0 44.0 L 48.666666666666664 43.0 L 48.333333333333336 42.0 L 48.0 41.0 L 48.0 40.0 L 48.0 39.0 L 48.0 38.0 L 48.0 37.0 L 48.0 36.0 L 48.0 35.0 L 48.0 34.0 L 47.666666666666664 33.0 L 47.333333333333336 32.0 L 47.0 31.0 L 47.0 30.0 L 47.0 29.0 L 47.0 28.0 L 47.0 27.0 L 47.0 26.0 L 47.0 25.0 L 47.0 24.0 L 47.0 23.0 L 47.0 22.0 L 47.0 21.0 L 47.0 20.0 L 47.0 19.0 L 47.0 18.0 L 47.0 17.0 L 47.0 16.0 L 47.0 15.0 L 46.666666666666664 14.0 L 46.333333333333336 13.0 L 46.0 12.0 L 46.0 11.0 L 46.0 10.0 L 46.333333333333336 9.0 L 46.666666666666664 8.0 L 47.0 7.0 L 47.0 6.0 L 47.0 5.0 L 46.666666666666664 4.333333333333333 L 46.0 4.0 L 45.0 4.0 L 44.0 4.0 L 43.333333333333336 4.333333333333333 L 43.0 5.0 L 43.0 6.0 L 43.0 7.0 L 43.0 8.0 L 43.0 9.0 L 43.0 10.0 L 43.0 11.0 L 43.0 12.0 L 43.0 13.0 L 43.0 14.0 L 43.0 15.0 L 43.0 16.0 L 43.0 17.0 L 43.0 18.0 L 43.0 19.0 L 43.333333333333336 20.0 L 43.666666666666664 21.0 L 44.0 22.0 L 44.0 23.0 L 44.0 24.0 L 44.0 25.0 L 44.0 26.0 L 44.0 27.0 L 44.0 28.0 L 44.0 29.0 L 44.0 30.0 L 44.0 31.0 L 44.0 32.0 L 44.0 33.0 L 44.0 34.0 L 44.0 34.5 Z" stroke="none" fill="rgb(51,48,47)" />
<path d="M 75.5 108.5 L 76.0 108.0 L 76.66666666666667 107.0 L 77.0 106.0 L 76.66666666666667 105.33333333333333 L 76.0 105.33333333333333 L 75.0 105.66666666666667 L 74.0 106.33333333333333 L 73.0 106.66666666666667 L 72.0 107.0 L 71.0 107.0 L 70.0 107.0 L 69.0 106.66666666666667 L 68.0 106.0 L 67.0 105.0 L 66.33333333333333 104.0 L 65.66666666666667 103.0 L 65.0 102.33333333333333 L 64.0 102.33333333333333 L 63.0 102.66666666666667 L 62.0 103.0 L 61.0 102.66666666666667 L 60.0 102.0 L 59.333333333333336 101.0 L 59.0 100.0 L 59.0 99.0 L 59.0 98.0 L 59.0 97.0 L 58.666666666666664 96.0 L 58.333333333333336 95.0 L 58.0 94.0 L 57.666666666666664 93.0 L 57.0 92.0 L 56.0 91.0 L 55.0 90.0 L 54.0 89.0 L 53.0 88.33333333333333 L 52.0 88.0 L 51.333333333333336 88.33333333333333 L 51.0 89.0 L 51.333333333333336 90.0 L 52.0 91.0 L 53.0 92.0 L 54.0 93.0 L 54.666666666666664 94.0 L 55.0 95.0 L 55.333333333333336 96.0 L 55.666666666666664 97.0 L 56.0 98.0 L 56.0 99.0 L 56.0 100.0 L 55.666666666666664 101.0 L 55.0 102.0 L 54.0 103.0 L 53.0 104.0 L 52.0 104.66666666666667 L 51.0 105.0 L 50.0 104.66666666666667 L 49.0 104.0 L 48.333333333333336 103.0 L 48.333333333333336 102.0 L 48.666666666666664 101.0 L 49.333333333333336 100.0 L 49.666666666666664 99.0 L 50.0 98.0 L 49.666666666666664 97.33333333333333 L 49.0 97.0 L 48.0 97.33333333333333 L 47.0 98.0 L 46.0 99.0 L 45.333333333333336 100.0 L 45.0 101.0 L 45.0 102.0 L 45.0 103.0 L 45.0 104.0 L 45.0 105.0 L 45.333333333333336 106.0 L 46.0 107.0 L 47.0 107.66666666666667 L 48.0 108.0 L 49.0 108.0 L 50.0 108.0 L 51.0 108.0 L 52.0 108.0 L 53.0 108.0 L 54.0 108.0 L 55.0 107.66666666666667 L 56.0 107.33333333333333 L 57.0 106.66666666666667 L 58.0 106.33333333333333 L 59.0 106.0 L 60.0 106.0 L 61.0 106.33333333333333 L 62.0 107.0 L 63.0 108.0 L 64.0 109.0 L 65.0 110.0 L 66.0 110.66666666666667 L 67.0 110.66666666666667 L 68.0 110.33333333333333 L 69.0 110.0 L 70.0 110.0 L 71.0 110.0 L 72.0 110.0 L 73.0 110.0 L 74.0 109.66666666666667 L 74.5 109.5 Z" stroke="none" fill="rgb(75,48,40)" />
<path d="M 53.5 41.5 L 54.0 42.0 L 55.0 43.0 L 55.666666666666664 44.0 L 56.333333333333336 45.0 L 57.0 46.0 L 58.0 47.0 L 59.0 48.0 L 60.0 49.0 L 61.0 49.666666666666664 L 62.0 50.0 L 63.0 50.333333333333336 L 64.0 50.666666666666664 L 65.0 51.0 L 66.0 51.0 L 67.0 51.0 L 68.0 51.0 L 68.66666666666667 50.666666666666664 L 69.0 50.0 L 68.66666666666667 49.0 L 68.33333333333333 48.0 L 68.0 47.0 L 67.66666666666667 46.0 L 67.33333333333333 45.0 L 66.66666666666667 44.0 L 66.33333333333333 43.0 L 66.0 42.0 L 65.66666666666667 41.0 L 65.33333333333333 40.0 L 65.0 39.0 L 65.0 38.0 L 64.66666666666667 37.0 L 64.33333333333333 36.0 L 64.0 35.0 L 63.666666666666664 34.0 L 63.0 33.333333333333336 L 62.0 32.666666666666664 L 61.333333333333336 32.0 L 60.666666666666664 31.0 L 60.333333333333336 30.0 L 60.0 29.0 L 59.666666666666664 28.0 L 59.333333333333336 27.0 L 59.0 26.0 L 58.666666666666664 25.0 L 58.333333333333336 24.0 L 58.0 23.0 L 58.0 22.0 L 57.666666666666664 21.0 L 57.333333333333336 20.0 L 56.666666666666664 19.333333333333332 L 56.0 19.0 L 55.333333333333336 19.333333333333332 L 54.666666666666664 20.0 L 54.333333333333336 21.0 L 53.666666666666664 22.0 L 53.333333333333336 23.0 L 53.0 24.0 L 52.666666666666664 25.0 L 52.333333333333336 26.0 L 52.0 27.0 L 52.0 28.0 L 52.0 29.0 L 52.0 30.0 L 52.0 31.0 L 52.0 32.0 L 52.0 33.0 L 52.0 34.0 L 52.0 35.0 L 52.0 36.0 L 52.0 37.0 L 52.0 38.0 L 52.333333333333336 39.0 L 52.666666666666664 40.0 L 53.0 40.5 Z" stroke="none" fill="rgb(60,43,36)" />
<path d="M 95.5 124.0 L 96.0 124.0 L 97.0 124.0 L 98.0 124.0 L 99.0 124.0 L 100.0 124.0 L 101.0 124.0 L 102.0 124.0 L 103.0 124.0 L 104.0 124.0 L 105.0 124.0 L 106.0 124.0 L 107.0 124.0 L 108.0 124.0 L 109.0 124.0 L 110.0 124.0 L 111.0 124.0 L 112.0 124.0 L 113.0 124.0 L 114.0 124.0 L 115.0 124.0 L 116.0 124.0 L 117.0 124.0 L 118.0 124.0 L 119.0 124.0 L 120.0 124.0 L 121.0 124.0 L 122.0 124.0 L 123.0 124.0 L 124.0 124.0 L 124.66666666666667 123.66666666666667 L 125.0 123.0 L 125.0 122.0 L 125.0 121.0 L 125.0 120.0 L 125.0 119.0 L 124.66666666666667 118.33333333333333 L 124.0 118.0 L 123.0 118.0 L 122.0 118.0 L 121.0 118.0 L 120.0 118.0 L 119.0 118.0 L 118.0 118.0 L 117.0 118.0 L 116.0 118.0 L 115.0 118.0 L 114.0 118.0 L 113.0 118.0 L 112.0 118.0 L 111.0 118.0 L 110.0 118.0 L 109.0 118.0 L 108.0 118.0 L 107.0 118.0 L 106.0 118.0 L 105.0 118.0 L 104.0 118.0 L 103.0 118.0 L 102.0 118.0 L 101.0 118.0 L 100.0 118.0 L 99.0 118.0 L 98.0 118.0 L 97.0 118.0 L 96.0 118.0 L 95.0 118.0 L 94.0 118.0 L 93.0 118.0 L 92.0 118.0 L 91.0 118.0 L 90.0 118.0 L 89.0 118.0 L 88.0 117.66666666666667 L 87.0 117.33333333333333 L 86.0 117.33333333333333 L 85.33333333333333 118.0 L 84.66666666666667 119.0 L 84.33333333333333 120.0 L 83.66666666666667 121.0 L 83.33333333333333 122.0 L 83.0 123.0 L 83.33333333333333 123.66666666666667 L 84.0 124.0 L 85.0 124.0 L 86.0 124.0 L 87.0 124.0 L 88.0 124.0 L 89.0 124.0 L 90.0 124.0 L 91.0 124.0 L 92.0 124.0 L 93.0 124.0 L 94.0 124.0 L 94.5 124.0 Z" stroke="none" fill="rgb(84,15,236)" />
<path d="M 108.5 71.0 L 109.0 71.0 L 110.0 71.33333333333333 L 111.0 71.66666666666667 L 112.0 72.0 L 113.0 72.33333333333333 L 114.0 72.66666666666667 L 115.0 73.0 L 116.0 73.0 L 117.0 73.0 L 118.0 73.0 L 119.0 73.0 L 120.0 73.0 L 121.0 73.0 L 122.0 73.0 L 123.0 73.0 L 124.0 73.0 L 124.66666666666667 72.66666666666667 L 125.0 72.0 L 125.0 71.0 L 125.0 70.0 L 125.0 69.0 L 125.0 68.0 L 125.0 67.0 L 125.0 66.0 L 125.0 65.0 L 125.0 64.0 L 125.0 63.0 L 124.66666666666667 62.333333333333336 L 124.0 62.0 L 123.0 62.0 L 122.0 62.0 L 121.0 62.0 L 120.0 62.0 L 119.0 62.0 L 118.0 62.0 L 117.0 62.0 L 116.0 62.0 L 115.0 61.666666666666664 L 114.0 61.333333333333336 L 113.0 61.0 L 112.0 61.0 L 111.0 61.0 L 110.0 61.0 L 109.0 60.666666666666664 L 108.0 60.333333333333336 L 107.0 60.0 L 106.0 59.666666666666664 L 105.0 59.333333333333336 L 104.0 59.0 L 103.0 59.0 L 102.0 59.0 L 101.0 59.333333333333336 L 100.0 60.0 L 99.33333333333333 61.0 L 99.0 62.0 L 99.0 63.0 L 99.33333333333333 64.0 L 100.0 65.0 L 101.0 66.0 L 102.0 67.0 L 103.0 68.0 L 104.0 68.66666666666667 L 105.0 69.33333333333333 L 106.0 69.66666666666667 L 107.0 70.33333333333333 L 107.5 70.5 Z" stroke="none" fill="rgb(26,23,23)" />
<path d="M 91.5 38.0 L 92.0 38.0 L 93.0 38.0 L 94.0 37.666666666666664 L 95.0 37.0 L 96.0 36.0 L 97.0 35.0 L 97.66666666666667 34.0 L 98.33333333333333 33.0 L 98.66666666666667 32.0 L 99.0 31.0 L 99.0 30.0 L 99.0 29.0 L 99.0 28.0 L 99.0 27.0 L 98.66666666666667 26.0 L 98.33333333333333 25.0 L 97.66666666666667 24.0 L 97.0 23.0 L 96.0 22.0 L 95.0 21.0 L 94.0 20.333333333333332 L 93.0 20.0 L 92.0 20.0 L 91.0 20.0 L 90.0 20.0 L 89.0 20.0 L 88.0 20.0 L 87.0 20.333333333333332 L 86.0 20.666666666666668 L 85.0 21.333333333333332 L 84.0 22.0 L 83.0 23.0 L 82.33333333333333 24.0 L 82.0 25.0 L 82.0 26.0 L 82.0 27.0 L 82.0 28.0 L 82.0 29.0 L 82.0 30.0 L 82.0 31.0 L 82.0 32.0 L 82.33333333333333 33.0 L 83.0 34.0 L 84.0 35.0 L 85.0 36.0 L 86.0 36.666666666666664 L 87.0 37.333333333333336 L 88.0 37.666666666666664 L 89.0 38.0 L 90.0 38.0 L 90.5 38.0 Z" stroke="none" fill="rgb(26,23,23)" />
<path d="M 95.5 118.0 L 96.0 118.0 L 97.0 118.0 L 98.0 118.0 L 99.0 118.0 L 100.0 118.0 L 101.0 118.0 L 102.0 118.0 L 103.0 118.0 L 104.0 118.0 L 105.0 118.0 L 106.0 118.0 L 107.0 118.0 L 108.0 118.0 L 109.0 118.0 L 110.0 118.0 L 111.0 118.0 L 112.0 118.0 L 113.0 118.0 L 114.0 118.0 L 115.0 118.0 L 116.0 118.0 L 117.0 118.0 L 118.0 118.0 L 119.0 118.0 L 120.0 118.0 L 121.0 118.0 L 122.0 118.0 L 123.0 118.0 L 124.0 118.0 L 124.66666666666667 117.66666666666667 L 125.0 117.0 L 125.0 116.0 L 125.0 115.0 L 125.0 114.0 L 125.0 113.0 L 124.66666666666667 112.33333333333333 L 124.0 112.0 L 123.0 112.0 L 122.0 112.0 L 121.0 112.0 L 120.0 112.0 L 119.0 112.0 L 118.0 112.0 L 117.0 112.0 L 116.0 112.0 L 115.0 112.0 L 114.0 112.0 L 113.0 112.0 L 112.0 112.0 L 111.0 112.0 L 110.0 112.0 L 109.0 112.0 L 108.0 112.0 L 107.0 112.0 L 106.0 112.0 L 105.0 112.0 L 104.0 112.0 L 103.0 112.0 L 102.0 112.0 L 101.0 112.0 L 100.0 112.0 L 99.0 112.0 L 98.0 112.0 L 97.0 112.0 L 96.0 112.0 L 95.0 112.0 L 94.0 112.0 L 93.0 112.0 L 92.0 112.0 L 91.0 111.66666666666667 L 90.0 111.33333333333333 L 89.0 111.33333333333333 L 88.33333333333333 112.0 L 88.0 113.0 L 87.66666666666667 114.0 L 87.0 115.0 L 86.33333333333333 116.0 L 86.33333333333333 117.0 L 87.0 117.66666666666667 L 88.0 118.0 L 89.0 118.0 L 90.0 118.0 L 91.0 118.0 L 92.0 118.0 L 93.0 118.0 L 94.0 118.0 L 94.5 118.0 Z" stroke="none" fill="rgb(88,19,241)" />
<path d="M 43.5 109.5 L 44.0 110.0 L 45.0 111.0 L 46.0 112.0 L 47.0 113.0 L 48.0 114.0 L 49.0 115.0 L 50.0 116.0 L 51.0 117.0 L 51.666666666666664 118.0 L 52.333333333333336 119.0 L 53.0 119.66666666666667 L 54.0 120.0 L 55.0 120.0 L 56.0 120.0 L 57.0 120.0 L 58.0 120.0 L 59.0 120.0 L 60.0 120.0 L 61.0 119.66666666666667 L 61.666666666666664 119.0 L 61.666666666666664 118.0 L 61.0 117.0 L 60.0 116.0 L 59.0 115.0 L 58.0 114.0 L 57.0 113.0 L 56.0 112.0 L 55.333333333333336 111.0 L 54.666666666666664 110.0 L 54.333333333333336 109.0 L 53.666666666666664 108.33333333333333 L 53.0 108.0 L 52.0 108.0 L 51.0 108.0 L 50.0 108.0 L 49.0 108.0 L 48.0 107.66666666666667 L 47.0 107.0 L 46.0 106.0 L 45.333333333333336 105.0 L 45.0 104.0 L 45.0 103.0 L 45.0 102.0 L 45.0 101.0 L 44.666666666666664 100.0 L 44.0 99.0 L 43.0 98.0 L 42.0 97.0 L 41.0 96.0 L 40.0 95.0 L 39.0 94.33333333333333 L 38.0 94.33333333333333 L 37.333333333333336 95.0 L 37.0 96.0 L 37.0 97.0 L 36.666666666666664 98.0 L 36.333333333333336 99.0 L 36.0 100.0 L 36.0 101.0 L 36.333333333333336 102.0 L 37.0 102.66666666666667 L 38.0 103.33333333333333 L 39.0 104.0 L 40.0 105.0 L 41.0 106.0 L 42.0 107.0 L 42.666666666666664 108.0 L 43.0 108.5 Z" stroke="none" fill="rgb(95,68,59)" />
<path d="M 58.5 96.5 L 58.666666666666664 97.0 L 59.0 98.0 L 59.0 99.0 L 59.0 100.0 L 59.0 101.0 L 59.333333333333336 102.0 L 60.0 102.66666666666667 L 61.0 103.0 L 62.0 103.0 L 63.0 103.0 L 64.0 102.66666666666667 L 65.0 102.33333333333333 L 65.66666666666667 101.66666666666667 L 66.0 101.0 L 66.0 100.0 L 66.0 99.0 L 66.0 98.0 L 65.66666666666667 97.0 L 65.0 96.0 L 64.0 95.0 L 63.0 94.0 L 62.0 93.0 L 61.0 92.0 L 60.0 91.0 L 59.0 90.0 L 58.0 89.0 L 57.0 88.0 L 56.0 87.0 L 55.0 86.0 L 54.0 85.0 L 53.333333333333336 84.0 L 52.666666666666664 83.33333333333333 L 52.0 83.0 L 51.0 83.0 L 50.0 83.33333333333333 L 49.0 83.66666666666667 L 48.0 84.33333333333333 L 47.0 84.66666666666667 L 46.0 85.33333333333333 L 45.0 85.66666666666667 L 44.333333333333336 86.33333333333333 L 44.0 87.0 L 44.333333333333336 88.0 L 45.0 89.0 L 46.0 90.0 L 47.0 91.0 L 48.0 92.0 L 49.0 93.0 L 50.0 94.0 L 51.0 95.0 L 52.0 96.0 L 53.0 97.0 L 54.0 98.0 L 55.0 98.66666666666667 L 55.666666666666664 98.66666666666667 L 56.0 98.0 L 56.0 97.0 L 55.666666666666664 96.0 L 55.333333333333336 95.0 L 55.0 94.0 L 55.333333333333336 93.0 L 56.0 92.66666666666667 L 57.0 93.0 L 57.666666666666664 94.0 L 58.0 95.0 L 58.0 95.5 Z" stroke="none" fill="rgb(105,77,68)" />
<path d="M 95.5 112.0 L 96.0 112.0 L 97.0 112.0 L 98.0 112.0 L 99.0 112.0 L 100.0 112.0 L 101.0 112.0 L 102.0 112.0 L 103.0 112.0 L 104.0 112.0 L 105.0 112.0 L 106.0 112.0 L 107.0 112.0 L 108.0 112.0 L 109.0 112.0 L 110.0 112.0 L 111.0 112.0 L 112.0 112.0 L 113.0 112.0 L 114.0 112.0 L 115.0 112.0 L 116.0 112.0 L 117.0 112.0 L 118.0 112.0 L 119.0 112.0 L 120.0 112.0 L 121.0 112.0 L 122.0 112.0 L 123.0 112.0 L 124.0 112.0 L 124.66666666666667 111.66666666666667 L 125.0 111.0 L 124.66666666666667 110.0 L 124.0 109.33333333333333 L 123.0 109.0 L 122.0 109.0 L 121.0 109.0 L 120.0 109.0 L 119.0 109.0 L 118.0 109.0 L 117.0 109.0 L 116.0 109.0 L 115.0 108.66666666666667 L 114.0 108.33333333333333 L 113.0 107.66666666666667 L 112.0 107.33333333333333 L 111.0 106.66666666666667 L 110.0 106.0 L 109.0 105.33333333333333 L 108.0 105.0 L 107.0 105.0 L 106.0 105.0 L 105.0 105.0 L 104.0 105.0 L 103.0 105.0 L 102.0 105.0 L 101.0 105.0 L 100.0 105.0 L 99.0 105.0 L 98.0 105.0 L 97.0 105.0 L 96.0 105.0 L 95.0 105.0 L 94.0 105.0 L 93.0 105.0 L 92.33333333333333 105.33333333333333 L 91.66666666666667 106.0 L 91.33333333333333 107.0 L 90.66666666666667 108.0 L 90.33333333333333 109.0 L 90.0 110.0 L 90.0 111.0 L 90.33333333333333 111.66666666666667 L 91.0 112.0 L 92.0 112.0 L 93.0 112.0 L 94.0 112.0 L 94.5 112.0 Z" stroke="none" fill="rgb(92,23,245)" />
<path d="M 88.5 15.0 L 89.0 15.0 L 90.0 15.0 L 91.0 15.0 L 92.0 15.0 L 93.0 15.0 L 94.0 15.0 L 95.0 15.0 L 96.0 15.0 L 97.0 15.333333333333334 L 98.0 15.666666666666666 L 99.0 16.0 L 100.0 16.0 L 101.0 16.0 L 102.0 16.0 L 103.0 15.666666666666666 L 103.66666666666667 15.0 L 104.0 14.0 L 103.66666666666667 13.0 L 103.0 12.0 L 102.0 11.0 L 101.0 10.0 L 100.0 9.333333333333334 L 99.0 8.666666666666666 L 98.0 8.333333333333334 L 97.0 8.0 L 96.0 8.0 L 95.0 8.0 L 94.0 8.0 L 93.0 8.0 L 92.0 8.0 L 91.0 8.0 L 90.0 8.0 L 89.0 8.0 L 88.0 8.0 L 87.0 8.0 L 86.0 8.0 L 85.0 8.0 L 84.0 8.333333333333334 L 83.0 8.666666666666666 L 82.0 9.333333333333334 L 81.0 9.666666666666666 L 80.0 10.333333333333334 L 79.0 11.0 L 78.33333333333333 12.0 L 77.66666666666667 13.0 L 77.33333333333333 14.0 L 77.33333333333333 15.0 L 78.0 15.666666666666666 L 79.0 16.0 L 80.0 16.0 L 81.0 16.0 L 82.0 16.0 L 83.0 16.0 L 84.0 16.0 L 85.0 15.666666666666666 L 86.0 15.333333333333334 L 87.0 15.0 L 87.5 15.0 Z" stroke="none" fill="rgb(26,23,23)" />
<path d="M 57.5 73.5 L 57.666666666666664 74.0 L 58.0 75.0 L 58.0 76.0 L 58.333333333333336 77.0 L 58.666666666666664 78.0 L 59.0 79.0 L 59.333333333333336 79.66666666666667 L 60.0 80.0 L 61.0 80.0 L 62.0 80.0 L 62.666666666666664 79.66666666666667 L 63.0 79.0 L 63.0 78.0 L 63.0 77.0 L 62.666666666666664 76.0 L 62.333333333333336 75.0 L 62.0 74.0 L 62.0 73.0 L 61.666666666666664 72.0 L 61.333333333333336 71.0 L 61.0 70.0 L 61.0 69.0 L 60.666666666666664 68.0 L 60.333333333333336 67.0 L 60.0 66.0 L 60.0 65.0 L 59.666666666666664 64.0 L 59.333333333333336 63.0 L 59.0 62.0 L 59.0 61.0 L 59.0 60.0 L 58.666666666666664 59.0 L 58.333333333333336 58.0 L 58.0 57.0 L 58.0 56.0 L 58.0 55.0 L 58.0 54.0 L 57.666666666666664 53.0 L 57.333333333333336 52.0 L 57.0 51.0 L 57.0 50.0 L 57.0 49.0 L 57.333333333333336 48.0 L 57.666666666666664 47.0 L 57.666666666666664 46.0 L 57.0 45.0 L 56.333333333333336 44.0 L 55.666666666666664 43.0 L 55.0 42.0 L 54.0 41.333333333333336 L 53.0 41.0 L 52.333333333333336 41.333333333333336 L 52.0 42.0 L 52.0 43.0 L 52.0 44.0 L 52.0 45.0 L 52.0 46.0 L 52.333333333333336 47.0 L 52.666666666666664 48.0 L 53.0 49.0 L 53.0 50.0 L 53.0 51.0 L 53.0 52.0 L 53.333333333333336 53.0 L 53.666666666666664 54.0 L 54.0 55.0 L 54.0 56.0 L 54.0 57.0 L 54.0 58.0 L 54.333333333333336 59.0 L 54.666666666666664 60.0 L 55.0 61.0 L 55.0 62.0 L 55.0 63.0 L 55.333333333333336 64.0 L 55.666666666666664 65.0 L 56.0 66.0 L 56.0 67.0 L 56.0 68.0 L 56.333333333333336 69.0 L 56.666666666666664 70.0 L 57.0 71.0 L 57.0 72.0 L 57.0 72.5 Z" stroke="none" fill="rgb(41,37,37)" />
<path d="M 40.5 96.5 L 41.0 97.0 L 42.0 98.0 L 43.0 99.0 L 44.0 99.66666666666667 L 45.0 100.0 L 46.0 99.66666666666667 L 47.0 99.0 L 48.0 98.66666666666667 L 48.666666666666664 99.0 L 48.666666666666664 100.0 L 48.333333333333336 101.0 L 48.0 102.0 L 48.0 103.0 L 48.333333333333336 104.0 L 49.0 104.66666666666667 L 50.0 105.0 L 51.0 105.0 L 52.0 105.0 L 53.0 104.66666666666667 L 54.0 104.0 L 55.0 103.0 L 55.666666666666664 102.0 L 56.0 101.0 L 56.0 100.0 L 55.666666666666664 99.0 L 55.0 98.0 L 54.0 97.0 L 53.0 96.0 L 52.0 95.0 L 51.0 94.0 L 50.0 93.0 L 49.0 92.0 L 48.0 91.0 L 47.0 90.0 L 46.0 89.0 L 45.0 88.0 L 44.0 87.33333333333333 L 43.0 87.33333333333333 L 42.0 88.0 L 41.0 89.0 L 40.0 90.0 L 39.333333333333336 91.0 L 38.666666666666664 92.0 L 38.333333333333336 93.0 L 38.333333333333336 94.0 L 39.0 95.0 L 39.5 95.5 Z" stroke="none" fill="rgb(100,72,63)" />
<path d="M 78.0 116.5 L 78.0 116.0 L 78.33333333333333 115.0 L 78.66666666666667 114.0 L 79.33333333333333 113.0 L 79.66666666666667 112.0 L 80.0 111.0 L 80.33333333333333 110.0 L 80.66666666666667 109.0 L 81.0 108.0 L 81.33333333333333 107.0 L 81.66666666666667 106.0 L 82.0 105.0 L 82.0 104.0 L 81.66666666666667 103.33333333333333 L 81.0 103.0 L 80.0 103.33333333333333 L 79.0 103.66666666666667 L 78.0 104.33333333333333 L 77.33333333333333 105.0 L 76.66666666666667 106.0 L 76.0 107.0 L 75.0 108.0 L 74.0 109.0 L 73.33333333333333 110.0 L 72.66666666666667 111.0 L 72.0 112.0 L 71.0 113.0 L 70.0 114.0 L 69.0 115.0 L 68.33333333333333 116.0 L 68.0 117.0 L 68.0 118.0 L 68.0 119.0 L 68.0 120.0 L 68.0 121.0 L 68.0 122.0 L 68.0 123.0 L 68.33333333333333 123.66666666666667 L 69.0 124.0 L 70.0 124.0 L 71.0 124.0 L 72.0 124.0 L 73.0 124.0 L 74.0 124.0 L 75.0 124.0 L 75.66666666666667 123.66666666666667 L 76.0 123.0 L 76.0 122.0 L 76.33333333333333 121.0 L 76.66666666666667 120.0 L 77.0 119.0 L 77.33333333333333 118.0 L 77.5 117.5 Z" stroke="none" fill="rgb(71,26,171)" />
<path d="M 36.5 124.0 L 37.0 124.0 L 37.666666666666664 123.66666666666667 L 38.0 123.0 L 38.0 122.0 L 38.0 121.0 L 38.0 120.0 L 38.0 119.0 L 38.0 118.0 L 38.0 117.0 L 38.0 116.0 L 38.0 115.0 L 38.0 114.0 L 38.0 113.0 L 38.333333333333336 112.0 L 38.666666666666664 111.0 L 39.0 110.0 L 39.0 109.0 L 38.666666666666664 108.0 L 38.0 107.33333333333333 L 37.0 107.0 L 36.0 107.0 L 35.0 107.33333333333333 L 34.0 108.0 L 33.0 109.0 L 32.0 110.0 L 31.333333333333332 111.0 L 30.666666666666668 112.0 L 30.333333333333332 113.0 L 29.666666666666668 114.0 L 29.333333333333332 115.0 L 28.666666666666668 116.0 L 28.333333333333332 117.0 L 27.666666666666668 118.0 L 27.0 119.0 L 26.333333333333332 120.0 L 25.666666666666668 121.0 L 25.333333333333332 122.0 L 25.0 123.0 L 25.333333333333332 123.66666666666667 L 26.0 124.0 L 27.0 124.0 L 28.0 124.0 L 29.0 124.0 L 30.0 124.0 L 31.0 124.0 L 32.0 124.0 L 33.0 124.0 L 34.0 124.0 L 35.0 124.0 L 35.5 124.0 Z" stroke="none" fill="rgb(97,27,251)" />
<path d="M 66.5 118.5 L 67.0 118.33333333333333 L 67.66666666666667 117.66666666666667 L 68.33333333333333 117.0 L 69.0 116.0 L 69.66666666666667 115.0 L 69.66666666666667 114.0 L 69.0 113.0 L 68.0 112.0 L 67.0 111.0 L 66.0 110.0 L 65.0 109.0 L 64.0 108.0 L 63.0 107.0 L 62.0 106.33333333333333 L 61.0 106.0 L 60.0 106.0 L 59.0 106.0 L 58.0 106.0 L 57.0 106.33333333333333 L 56.0 106.66666666666667 L 55.0 107.33333333333333 L 54.333333333333336 108.0 L 54.0 109.0 L 54.333333333333336 110.0 L 54.666666666666664 111.0 L 55.333333333333336 112.0 L 56.0 113.0 L 57.0 114.0 L 58.0 115.0 L 59.0 116.0 L 60.0 117.0 L 61.0 118.0 L 62.0 118.66666666666667 L 63.0 119.0 L 64.0 119.0 L 65.0 119.0 L 65.5 119.0 Z" stroke="none" fill="rgb(100,72,63)" />
<path d="M 55.0 20.5 L 55.0 20.0 L 54.666666666666664 19.0 L 54.333333333333336 18.0 L 54.0 17.0 L 54.0 16.0 L 54.0 15.0 L 54.0 14.0 L 54.0 13.0 L 54.0 12.0 L 54.0 11.0 L 54.0 10.0 L 54.0 9.0 L 54.333333333333336 8.0 L 54.666666666666664 7.0 L 55.0 6.0 L 55.0 5.0 L 54.666666666666664 4.333333333333333 L 54.0 4.0 L 53.0 4.0 L 52.0 4.0 L 51.0 4.0 L 50.333333333333336 4.333333333333333 L 50.0 5.0 L 50.0 6.0 L 50.0 7.0 L 50.0 8.0 L 50.0 9.0 L 50.0 10.0 L 50.0 11.0 L 50.0 12.0 L 50.0 13.0 L 50.0 14.0 L 50.0 15.0 L 50.0 16.0 L 50.0 17.0 L 50.0 18.0 L 50.0 19.0 L 50.0 20.0 L 50.0 21.0 L 50.0 22.0 L 50.0 23.0 L 50.0 24.0 L 50.0 25.0 L 50.0 26.0 L 50.333333333333336 27.0 L 51.0 27.666666666666668 L 51.666666666666664 27.666666666666668 L 52.333333333333336 27.0 L 52.666666666666664 26.0 L 53.0 25.0 L 53.333333333333336 24.0 L 53.666666666666664 23.0 L 54.333333333333336 22.0 L 54.5 21.5 Z" stroke="none" fill="rgb(41,37,37)" />
<path d="M 116.5 53.0 L 117.0 53.0 L 118.0 53.0 L 119.0 53.0 L 120.0 53.0 L 121.0 53.0 L 122.0 53.0 L 123.0 53.0 L 124.0 53.0 L 124.66666666666667 52.666666666666664 L 125.0 52.0 L 125.0 51.0 L 125.0 50.0 L 125.0 49.0 L 125.0 48.0 L 125.0 47.0 L 125.0 46.0 L 124.66666666666667 45.333333333333336 L 124.0 45.0 L 123.0 45.0 L 122.0 45.0 L 121.0 45.0 L 120.0 45.0 L 119.0 45.0 L 118.0 45.0 L 117.0 45.0 L 116.0 45.0 L 115.0 45.0 L 114.0 45.0 L 113.0 45.333333333333336 L 112.0 46.0 L 111.33333333333333 47.0 L 111.0 48.0 L 111.33333333333333 49.0 L 112.0 50.0 L 113.0 51.0 L 114.0 51.666666666666664 L 115.0 52.333333333333336 L 115.5 52.5 Z" stroke="none" fill="rgb(51,38,32)" />
<path d="M 43.5 124.0 L 44.0 124.0 L 45.0 124.0 L 46.0 124.0 L 46.666666666666664 123.66666666666667 L 47.0 123.0 L 47.0 122.0 L 47.0 121.0 L 47.0 120.0 L 47.0 119.0 L 47.0 118.0 L 46.666666666666664 117.0 L 46.0 116.33333333333333 L 45.0 115.66666666666667 L 44.0 115.0 L 43.0 114.0 L 42.0 113.0 L 41.0 112.0 L 40.0 111.33333333333333 L 39.0 111.0 L 38.333333333333336 111.33333333333333 L 38.0 112.0 L 38.0 113.0 L 38.0 114.0 L 38.0 115.0 L 38.0 116.0 L 38.0 117.0 L 38.0 118.0 L 38.0 119.0 L 38.0 120.0 L 38.0 121.0 L 38.0 122.0 L 38.0 123.0 L 38.333333333333336 123.66666666666667 L 39.0 124.0 L 40.0 124.0 L 41.0 124.0 L 42.0 124.0 L 42.5 124.0 Z" stroke="none" fill="rgb(92,23,245)" />
<path d="M 107.5 105.0 L 107.66666666666667 104.66666666666667 L 108.0 104.0 L 107.66666666666667 103.0 L 107.0 102.0 L 106.33333333333333 101.0 L 105.66666666666667 100.0 L 105.33333333333333 99.0 L 104.66666666666667 98.0 L 104.0 97.33333333333333 L 103.0 97.0 L 102.0 97.33333333333333 L 101.0 97.66666666666667 L 100.0 98.0 L 99.0 98.0 L 98.0 98.33333333333333 L 97.0 98.66666666666667 L 96.0 99.0 L 95.33333333333333 99.33333333333333 L 94.66666666666667 100.0 L 94.33333333333333 101.0 L 93.66666666666667 102.0 L 93.33333333333333 103.0 L 93.0 104.0 L 93.33333333333333 104.66666666666667 L 94.0 105.0 L 95.0 105.0 L 96.0 105.0 L 97.0 105.0 L 98.0 105.0 L 99.0 105.0 L 100.0 105.0 L 101.0 105.0 L 102.0 105.0 L 103.0 105.0 L 104.0 105.0 L 105.0 105.0 L 106.0 105.0 L 106.5 105.0 Z" stroke="none" fill="rgb(97,27,251)" />
<path d="M 40.5 112.5 L 41.0 113.0 L 42.0 114.0 L 43.0 115.0 L 44.0 115.66666666666667 L 45.0 116.33333333333333 L 46.0 117.0 L 47.0 117.66666666666667 L 48.0 118.0 L 49.0 118.0 L 50.0 118.0 L 51.0 118.0 L 51.666666666666664 117.66666666666667 L 51.666666666666664 117.0 L 51.0 116.0 L 50.0 115.0 L 49.0 114.0 L 48.0 113.0 L 47.0 112.0 L 46.0 111.0 L 45.0 110.0 L 44.0 109.0 L 43.333333333333336 108.0 L 42.666666666666664 107.0 L 42.0 106.0 L 41.0 105.0 L 40.0 104.0 L 39.0 103.33333333333333 L 38.0 103.0 L 37.333333333333336 103.33333333333333 L 37.0 104.0 L 37.0 105.0 L 37.0 106.0 L 37.333333333333336 107.0 L 38.0 108.0 L 38.666666666666664 109.0 L 39.0 110.0 L 39.333333333333336 111.0 L 39.5 111.5 Z" stroke="none" fill="rgb(90,65,57)" />
<path d="M 88.0 109.5 L 88.0 109.0 L 88.0 108.0 L 88.33333333333333 107.0 L 88.66666666666667 106.0 L 89.0 105.0 L 89.33333333333333 104.0 L 89.66666666666667 103.0 L 90.0 102.0 L 89.66666666666667 101.33333333333333 L 89.0 101.0 L 88.33333333333333 101.33333333333333 L 87.66666666666667 102.0 L 87.33333333333333 103.0 L 87.0 104.0 L 86.66666666666667 105.0 L 86.33333333333333 106.0 L 86.0 107.0 L 85.66666666666667 108.0 L 85.33333333333333 109.0 L 84.66666666666667 110.0 L 84.33333333333333 111.0 L 84.0 112.0 L 83.66666666666667 113.0 L 83.33333333333333 114.0 L 83.0 115.0 L 82.66666666666667 116.0 L 82.33333333333333 117.0 L 82.0 118.0 L 81.66666666666667 119.0 L 81.33333333333333 120.0 L 81.0 121.0 L 81.0 122.0 L 81.0 123.0 L 81.33333333333333 123.66666666666667 L 82.0 124.0 L 82.66666666666667 123.66666666666667 L 83.33333333333333 123.0 L 83.66666666666667 122.0 L 84.33333333333333 121.0 L 84.66666666666667 120.0 L 85.33333333333333 119.0 L 85.66666666666667 118.0 L 86.0 117.0 L 86.0 116.0 L 86.0 115.0 L 86.33333333333333 114.0 L 86.66666666666667 113.0 L 87.0 112.0 L 87.33333333333333 111.0 L 87.5 110.5 Z" stroke="none" fill="rgb(82,23,212)" />
<path d="M 88.0 102.5 L 88.0 102.0 L 87.66666666666667 101.33333333333333 L 87.0 101.0 L 86.0 101.33333333333333 L 85.33333333333333 102.0 L 85.0 103.0 L 84.66666666666667 104.0 L 84.33333333333333 105.0 L 83.66666666666667 106.0 L 83.33333333333333 107.0 L 83.0 108.0 L 82.66666666666667 109.0 L 82.33333333333333 110.0 L 82.0 111.0 L 81.66666666666667 112.0 L 81.33333333333333 113.0 L 81.0 114.0 L 80.66666666666667 115.0 L 80.33333333333333 116.0 L 80.0 117.0 L 79.66666666666667 118.0 L 79.33333333333333 119.0 L 79.0 120.0 L 78.66666666666667 121.0 L 78.33333333333333 122.0 L 78.0 123.0 L 78.33333333333333 123.66666666666667 L 79.0 124.0 L 80.0 124.0 L 80.66666666666667 123.66666666666667 L 81.0 123.0 L 81.0 122.0 L 81.33333333333333 121.0 L 81.66666666666667 120.0 L 82.0 119.0 L 82.33333333333333 118.0 L 82.66666666666667 117.0 L 83.0 116.0 L 83.33333333333333 115.0 L 83.66666666666667 114.0 L 84.0 113.0 L 84.33333333333333 112.0 L 84.66666666666667 111.0 L 85.33333333333333 110.0 L 85.66666666666667 109.0 L 86.0 108.0 L 86.33333333333333 107.0 L 86.66666666666667 106.0 L 87.0 105.0 L 87.33333333333333 104.0 L 87.5 103.5 Z" stroke="none" fill="rgb(79,25,198)" />
<path d="M 78.0 123.5 L 78.33333333333333 123.0 L 78.66666666666667 122.0 L 79.0 121.0 L 79.33333333333333 120.0 L 79.66666666666667 119.0 L 80.0 118.0 L 80.33333333333333 117.0 L 80.66666666666667 116.0 L 81.0 115.0 L 81.33333333333333 114.0 L 81.66666666666667 113.0 L 82.0 112.0 L 82.33333333333333 111.0 L 82.66666666666667 110.0 L 83.0 109.0 L 83.33333333333333 108.0 L 83.66666666666667 107.0 L 84.33333333333333 106.0 L 84.66666666666667 105.0 L 85.0 104.0 L 85.0 103.0 L 84.66666666666667 102.33333333333333 L 84.0 102.0 L 83.0 102.33333333333333 L 82.33333333333333 103.0 L 82.0 104.0 L 81.66666666666667 105.0 L 81.33333333333333 106.0 L 81.0 107.0 L 80.66666666666667 108.0 L 80.33333333333333 109.0 L 80.0 110.0 L 79.66666666666667 111.0 L 79.33333333333333 112.0 L 78.66666666666667 113.0 L 78.33333333333333 114.0 L 78.0 115.0 L 77.66666666666667 116.0 L 77.33333333333333 117.0 L 77.0 118.0 L 76.66666666666667 119.0 L 76.33333333333333 120.0 L 76.0 121.0 L 76.0 122.0 L 76.0 123.0 L 76.33333333333333 123.66666666666667 L 77.0 124.0 L 77.5 124.0 Z" stroke="none" fill="rgb(75,25,184)" />
<path d="M 56.5 124.0 L 57.0 124.0 L 58.0 124.0 L 59.0 124.0 L 60.0 124.0 L 61.0 124.0 L 62.0 124.0 L 63.0 124.0 L 64.0 124.0 L 65.0 124.0 L 66.0 124.0 L 67.0 124.0 L 67.66666666666667 123.66666666666667 L 68.0 123.0 L 68.0 122.0 L 68.0 121.0 L 68.0 120.0 L 68.0 119.0 L 67.66666666666667 118.33333333333333 L 67.0 118.0 L 66.0 118.33333333333333 L 65.0 118.66666666666667 L 64.0 119.0 L 63.0 119.0 L 62.0 119.0 L 61.0 119.33333333333333 L 60.0 119.66666666666667 L 59.0 120.0 L 58.0 120.0 L 57.0 120.0 L 56.0 120.0 L 55.0 120.0 L 54.333333333333336 120.33333333333333 L 54.0 121.0 L 54.0 122.0 L 54.0 123.0 L 54.333333333333336 123.66666666666667 L 55.0 124.0 L 55.5 124.0 Z" stroke="none" fill="rgb(84,15,236)" />
<path d="M 75.5 97.0 L 76.0 97.33333333333333 L 77.0 97.66666666666667 L 77.66666666666667 97.66666666666667 L 78.0 97.0 L 78.0 96.0 L 78.0 95.0 L 78.0 94.0 L 78.0 93.0 L 78.0 92.0 L 78.0 91.0 L 78.0 90.0 L 78.0 89.0 L 77.66666666666667 88.0 L 77.0 87.0 L 76.0 86.0 L 75.0 85.0 L 74.0 84.0 L 73.0 83.0 L 72.0 82.33333333333333 L 71.0 82.0 L 70.33333333333333 82.33333333333333 L 70.0 83.0 L 70.33333333333333 84.0 L 71.0 85.0 L 72.0 86.0 L 73.0 87.0 L 73.66666666666667 88.0 L 74.0 89.0 L 74.33333333333333 90.0 L 74.66666666666667 91.0 L 75.0 92.0 L 75.0 93.0 L 75.0 94.0 L 75.0 95.0 L 75.0 96.0 L 75.0 96.5 Z" stroke="none" fill="rgb(75,48,40)" />
<path d="M 87.5 115.5 L 87.66666666666667 115.0 L 88.0 114.0 L 88.33333333333333 113.0 L 89.0 112.0 L 89.66666666666667 111.0 L 90.33333333333333 110.0 L 90.66666666666667 109.0 L 91.33333333333333 108.0 L 91.66666666666667 107.0 L 92.33333333333333 106.0 L 92.66666666666667 105.0 L 93.33333333333333 104.0 L 93.66666666666667 103.0 L 94.0 102.0 L 93.66666666666667 101.0 L 93.0 100.33333333333333 L 92.0 100.0 L 91.0 100.0 L 90.33333333333333 100.33333333333333 L 90.0 101.0 L 89.66666666666667 102.0 L 89.33333333333333 103.0 L 89.0 104.0 L 88.66666666666667 105.0 L 88.33333333333333 106.0 L 88.0 107.0 L 88.0 108.0 L 87.66666666666667 109.0 L 87.33333333333333 110.0 L 87.0 111.0 L 86.66666666666667 112.0 L 86.33333333333333 113.0 L 86.0 114.0 L 86.0 115.0 L 86.33333333333333 115.66666666666667 L 86.5 116.0 Z" stroke="none" fill="rgb(88,25,225)" />
<path d="M 92.5 82.5 L 93.0 83.0 L 94.0 83.66666666666667 L 95.0 84.0 L 95.66666666666667 83.66666666666667 L 96.0 83.0 L 96.0 82.0 L 96.0 81.0 L 95.66666666666667 80.0 L 95.0 79.0 L 94.33333333333333 78.0 L 94.0 77.0 L 93.66666666666667 76.0 L 93.33333333333333 75.0 L 92.66666666666667 74.0 L 92.0 73.33333333333333 L 91.0 73.0 L 90.33333333333333 73.33333333333333 L 89.66666666666667 74.0 L 89.0 75.0 L 88.33333333333333 76.0 L 88.0 77.0 L 88.0 78.0 L 88.33333333333333 79.0 L 89.0 80.0 L 90.0 80.66666666666667 L 91.0 81.33333333333333 L 91.5 81.5 Z" stroke="none" fill="rgb(90,65,57)" />
<path d="M 91.5 73.5 L 92.0 74.0 L 92.66666666666667 75.0 L 93.33333333333333 76.0 L 93.66666666666667 77.0 L 94.0 78.0 L 94.33333333333333 79.0 L 95.0 79.66666666666667 L 95.66666666666667 79.66666666666667 L 96.0 79.0 L 96.0 78.0 L 96.0 77.0 L 96.0 76.0 L 96.0 75.0 L 95.66666666666667 74.0 L 95.0 73.0 L 94.33333333333333 72.0 L 93.66666666666667 71.0 L 93.66666666666667 70.0 L 93.66666666666667 69.0 L 93.66666666666667 68.0 L 93.0 67.0 L 92.0 66.0 L 91.0 65.33333333333333 L 90.0 65.0 L 89.33333333333333 65.33333333333333 L 89.0 66.0 L 89.33333333333333 67.0 L 89.66666666666667 68.0 L 90.33333333333333 69.0 L 90.66666666666667 70.0 L 91.0 71.0 L 91.0 72.0 L 91.0 72.5 Z" stroke="none" fill="rgb(100,72,63)" />
<path d="M 49.5 124.0 L 50.0 124.0 L 51.0 124.0 L 52.0 124.0 L 53.0 124.0 L 53.666666666666664 123.66666666666667 L 54.0 123.0 L 54.0 122.0 L 54.0 121.0 L 53.666666666666664 120.0 L 53.0 119.0 L 52.0 118.33333333333333 L 51.0 118.0 L 50.0 118.0 L 49.0 118.0 L 48.0 118.0 L 47.333333333333336 118.33333333333333 L 47.0 119.0 L 47.0 120.0 L 47.0 121.0 L 47.0 122.0 L 47.0 123.0 L 47.333333333333336 123.66666666666667 L 48.0 124.0 L 48.5 124.0 Z" stroke="none" fill="rgb(88,19,241)" />
<path d="M 69.0 96.5 L 69.0 96.0 L 69.0 95.0 L 69.0 94.0 L 69.0 93.0 L 68.66666666666667 92.0 L 68.33333333333333 91.0 L 67.66666666666667 90.0 L 67.0 89.0 L 66.0 88.0 L 65.0 87.0 L 64.0 86.33333333333333 L 63.0 86.0 L 62.333333333333336 86.33333333333333 L 62.0 87.0 L 62.333333333333336 88.0 L 63.0 89.0 L 64.0 90.0 L 64.66666666666667 91.0 L 65.0 92.0 L 65.33333333333333 93.0 L 65.66666666666667 94.0 L 66.0 95.0 L 66.33333333333333 96.0 L 67.0 96.66666666666667 L 68.0 97.0 L 68.5 97.0 Z" stroke="none" fill="rgb(75,48,40)" />
<path d="M 75.0 105.5 L 75.0 105.0 L 75.0 104.0 L 75.0 103.0 L 75.0 102.0 L 75.0 101.0 L 75.0 100.0 L 75.0 99.0 L 75.0 98.0 L 75.0 97.0 L 74.66666666666667 96.33333333333333 L 74.0 96.0 L 73.33333333333333 96.33333333333333 L 73.0 97.0 L 73.0 98.0 L 73.0 99.0 L 73.0 100.0 L 73.0 101.0 L 73.0 102.0 L 73.0 103.0 L 73.0 104.0 L 73.0 105.0 L 73.0 106.0 L 73.33333333333333 106.66666666666667 L 74.0 106.66666666666667 L 74.5 106.5 Z" stroke="none" fill="rgb(105,77,68)" />
<path d="M 78.0 104.5 L 78.0 104.0 L 77.66666666666667 103.0 L 77.33333333333333 102.0 L 77.33333333333333 101.0 L 77.66666666666667 100.0 L 78.0 99.0 L 77.66666666666667 98.0 L 77.0 97.33333333333333 L 76.0 97.0 L 75.33333333333333 97.33333333333333 L 75.0 98.0 L 75.0 99.0 L 75.0 100.0 L 75.0 101.0 L 75.0 102.0 L 75.0 103.0 L 75.0 104.0 L 75.0 105.0 L 75.33333333333333 105.66666666666667 L 76.0 105.66666666666667 L 77.0 105.33333333333333 L 77.5 105.0 Z" stroke="none" fill="rgb(100,72,63)" />
<path d="M 69.5 114.0 L 70.0 114.0 L 71.0 113.66666666666667 L 72.0 113.0 L 72.66666666666667 112.0 L 73.0 111.0 L 72.66666666666667 110.33333333333333 L 72.0 110.0 L 71.0 110.0 L 70.0 110.0 L 69.0 110.0 L 68.0 110.0 L 67.33333333333333 110.33333333333333 L 67.0 111.0 L 67.33333333333333 112.0 L 68.0 113.0 L 68.5 113.5 Z" stroke="none" fill="rgb(105,77,68)" />
<path d="M 95.5 74.0 L 95.66666666666667 73.66666666666667 L 96.0 73.0 L 96.0 72.0 L 95.66666666666667 71.0 L 95.33333333333333 70.0 L 94.66666666666667 69.33333333333333 L 94.0 69.0 L 93.33333333333333 69.33333333333333 L 93.0 70.0 L 93.33333333333333 71.0 L 93.66666666666667 72.0 L 94.33333333333333 73.0 L 94.5 73.5 Z" stroke="none" fill="rgb(105,77,68)" />
<path d="M 78.5 104.0 L 79.0 104.0 L 79.66666666666667 103.66666666666667 L 80.0 103.0 L 79.66666666666667 102.0 L 79.33333333333333 101.0 L 78.66666666666667 100.33333333333333 L 78.0 100.0 L 77.33333333333333 100.33333333333333 L 77.0 101.0 L 77.0 102.0 L 77.33333333333333 103.0 L 77.5 103.5 Z" stroke="none" fill="rgb(95,68,59)" />
<path d="M 82.5 5.0 L 83.0 5.0 L 84.0 5.0 L 85.0 5.0 L 86.0 5.0 L 86.66666666666667 4.666666666666667 L 86.66666666666667 4.333333333333333 L 86.0 4.0 L 85.0 4.0 L 84.0 4.0 L 83.0 4.0 L 82.33333333333333 4.333333333333333 L 82.0 4.5 Z" stroke="none" fill="rgb(0,0,0)" />
<path d="M 36.5 103.0 L 36.666666666666664 102.66666666666667 L 36.666666666666664 102.33333333333333 L 36.333333333333336 102.33333333333333 L 36.0 102.5 Z" stroke="none" fill="rgb(0,0,0)" />
<path d="M 125.0 109.5 L 124.66666666666667 109.33333333333333 L 124.33333333333333 109.33333333333333 L 124.33333333333333 109.66666666666667 L 124.5 110.0 Z" stroke="none" fill="rgb(0,0,0)" />
</svg>
