<?xml version="1.0" encoding="UTF-8" standalone="no"?>
<!DOCTYPE svg PUBLIC "-//W3C//DTD SVG 1.1//EN"
"http://www.w3.org/Graphics/SVG/1.1/DTD/svg11.dtd">
<svg width="128" height="128" xmlns="http://www.w3.org/2000/svg" version="1.1">
<path d="M 26.5 128.0 L 27.0 128.0 L 28.0 128.0 L 29.0 128.0 L 30.0 128.0 L 31.0 128.0 L 32.0 128.0 L 33.0 128.0 L 34.0 128.0 L 35.0 128.0 L 36.0 128.0 L 37.0 128.0 L 38.0 128.0 L 39.0 128.0 L 40.0 128.0 L 41.0 128.0 L 42.0 128.0 L 43.0 128.0 L 44.0 128.0 L 45.0 128.0 L 46.0 128.0 L 47.0 128.0 L 48.0 128.0 L 49.0 128.0 L 50.0 128.0 L 51.0 128.0 L 52.0 128.0 L 53.0 128.0 L 54.0 128.0 L 55.0 128.0 L 56.0 128.0 L 57.0 128.0 L 58.0 128.0 L 59.0 128.0 L 60.0 128.0 L 61.0 128.0 L 62.0 128.0 L 63.0 128.0 L 64.0 128.0 L 65.0 128.0 L 66.0 128.0 L 67.0 128.0 L 68.0 128.0 L 69.0 128.0 L 70.0 128.0 L 71.0 128.0 L 72.0 128.0 L 73.0 128.0 L 74.0 128.0 L 75.0 128.0 L 76.0 128.0 L 77.0 128.0 L 78.0 128.0 L 79.0 128.0 L 80.0 128.0 L 81.0 128.0 L 82.0 128.0 L 83.0 128.0 L 84.0 128.0 L 85.0 128.0 L 86.0 128.0 L 87.0 128.0 L 88.0 128.0 L 89.0 128.0 L 90.0 128.0 L 91.0 128.0 L 92.0 128.0 L 93.0 128.0 L 94.0 128.0 L 95.0 128.0 L 96.0 128.0 L 97.0 128.0 L 98.0 128.0 L 99.0 128.0 L 100.0 128.0 L 101.0 128.0 L 102.0 128.0 L 103.0 128.0 L 104.0 128.0 L 105.0 128.0 L 106.0 128.0 L 107.0 128.0 L 108.0 128.0 L 109.0 128.0 L 110.0 128.0 L 111.0 128.0 L 112.0 128.0 L 113.0 128.0 L 114.0 128.0 L 115.0 128.0 L 116.0 128.0 L 117.0 128.0 L 118.0 128.0 L 119.0 128.0 L 120.0 128.0 L 121.0 128.0 L 122.0 128.0 L 123.0 128.0 L 124.0 128.0 L 125.0 128.0 L 126.0 128.0 L 127.0 128.0 L 127.66666666666667 127.66666666666667 L 128.0 127.0 L 128.0 126.0 L 128.0 125.0 L 128.0 124.0 L 128.0 123.0 L 128.0 122.0 L 128.0 121.0 L 128.0 120.0 L 128.0 119.0 L 128.0 118.0 L 128.0 117.0 L 128.0 116.0 L 128.0 115.0 L 128.0 114.0 L 128.0 113.0 L 128.0 112.0 L 128.0 111.0 L 128.0 110.0 L 128.0 109.0 L 128.0 108.0 L 128.0 107.0 L 128.0 106.0 L 128.0 105.0 L 128.0 104.0 L 128.0 103.0 L 128.0 102.0 L 128.0 101.0 L 128.0 100.0 L 128.0 99.0 L 128.0 98.0 L 128.0 97.0 L 128.0 96.0 L 128.0 95.0 L 128.0 94.0 L 128.0 93.0 L 128.0 92.0 L 128.0 91.0 L 128.0 90.0 L 128.0 89.0 L 128.0 88.0 L 128.0 87.0 L 128.0 86.0 L 128.0 85.0 L 128.0 84.0 L 128.0 83.0 L 128.0 82.0 L 128.0 81.0 L 128.0 80.0 L 128.0 79.0 L 128.0 78.0 L 128.0 77.0 L 128.0 76.0 L 128.0 75.0 L 128.0 74.0 L 128.0 73.0 L 128.0 72.0 L 128.0 71.0 L 128.0 70.0 L 128.0 69.0 L 128.0 68.0 L 128.0 67.0 L 128.0 66.0 L 128.0 65.0 L 128.0 64.0 L 128.0 63.0 L 128.0 62.0 L 128.0 61.0 L 128.0 60.0 L 128.0 59.0 L 128.0 58.0 L 128.0 57.0 L 128.0 56.0 L 128.0 55.0 L 128.0 54.0 L 128.0 53.0 L 128.0 52.0 L 128.0 51.0 L 128.0 50.0 L 128.0 49.0 L 128.0 48.0 L 128.0 47.0 L 128.0 46.0 L 128.0 45.0 L 128.0 44.0 L 128.0 43.0 L 128.0 42.0 L 128.0 41.0 L 128.0 40.0 L 128.0 39.0 L 128.0 38.0 L 128.0 37.0 L 128.0 36.0 L 128.0 35.0 L 128.0 34.0 L 128.0 33.0 L 128.0 32.0 L 128.0 31.0 L 128.0 30.0 L 128.0 29.0 L 128.0 28.0 L 128.0 27.0 L 128.0 26.0 L 128.0 25.0 L 128.0 24.0 L 128.0 23.0 L 128.0 22.0 L 128.0 21.0 L 128.0 20.0 L 128.0 19.0 L 128.0 18.0 L 128.0 17.0 L 128.0 16.0 L 128.0 15.0 L 128.0 14.0 L 128.0 13.0 L 128.0 12.0 L 128.0 11.0 L 128.0 10.0 L 128.0 9.0 L 128.0 8.0 L 128.0 7.0 L 128.0 6.0 L 128.0 5.0 L 128.0 4.0 L 128.0 3.0 L 128.0 2.0 L 128.0 1.0 L 127.66666666666667 0.3333333333333333 L 127.0 0.0 L 126.0 0.0 L 125.0 0.0 L 124.0 0.0 L 123.0 0.0 L 122.0 0.0 L 121.0 0.0 L 120.0 0.0 L 119.0 0.0 L 118.0 0.0 L 117.0 0.0 L 116.0 0.0 L 115.0 0.0 L 114.0 0.0 L 113.0 0.0 L 112.0 0.0 L 111.0 0.0 L 110.0 0.0 L 109.0 0.0 L 108.0 0.0 L 107.0 0.0 L 106.0 0.0 L 105.0 0.0 L 104.0 0.0 L 103.0 0.0 L 102.0 0.0 L 101.0 0.0 L 100.0 0.0 L 99.0 0.0 L 98.0 0.0 L 97.0 0.0 L 96.0 0.0 L 95.0 0.0 L 94.0 0.0 L 93.0 0.0 L 92.0 0.0 L 91.0 0.0 L 90.0 0.0 L 89.0 0.0 L 88.0 0.0 L 87.0 0.0 L 86.0 0.0 L 85.0 0.0 L 84.0 0.0 L 83.0 0.0 L 82.0 0.0 L 81.0 0.0 L 80.0 0.0 L 79.0 0.0 L 78.0 0.0 L 77.0 0.0 L 76.0 0.0 L 75.0 0.0 L 74.0 0.0 L 73.0 0.0 L 72.0 0.0 L 71.0 0.0 L 70.0 0.0 L 69.0 0.0 L 68.0 0.0 L 67.0 0.0 L 66.0 0.0 L 65.0 0.0 L 64.0 0.0 L 63.0 0.0 L 62.0 0.0 L 61.0 0.0 L 60.0 0.0 L 59.0 0.0 L 58.0 0.0 L 57.0 0.0 L 56.0 0.0 L 55.0 0.0 L 54.0 0.0 L 53.0 0.0 L 52.0 0.0 L 51.0 0.0 L 50.0 0.0 L 49.0 0.0 L 48.0 0.0 L 47.0 0.0 L 46.0 0.0 L 45.0 0.0 L 44.0 0.0 L 43.0 0.0 L 42.0 0.0 L 41.0 0.0 L 40.0 0.0 L 39.0 0.0 L 38.0 0.0 L 37.0 0.0 L 36.0 0.0 L 35.0 0.0 L 34.0 0.0 L 33.0 0.0 L 32.0 0.0 L 31.0 0.0 L 30.0 0.0 L 29.0 0.0 L 28.0 0.0 L 27.0 0.0 L 26.0 0.0 L 25.0 0.0 L 24.0 0.0 L 23.0 0.0 L 22.0 0.0 L 21.0 0.0 L 20.0 0.0 L 19.0 0.0 L 18.0 0.0 L 17.0 0.0 L 16.0 0.0 L 15.0 0.0 L 14.0 0.0 L 13.0 0.0 L 12.0 0.0 L 11.0 0.0 L 10.0 0.0 L 9.0 0.0 L 8.0 0.0 L 7.0 0.0 L 6.0 0.0 L 5.0 0.0 L 4.0 0.0 L 3.0 0.0 L 2.0 0.0 L 1.0 0.0 L 0.3333333333333333 0.3333333333333333 L 0.0 1.0 L 0.0 2.0 L 0.0 3.0 L 0.0 4.0 L 0.0 5.0 L 0.0 6.0 L 0.0 7.0 L 0.0 8.0 L 0.0 9.0 L 0.0 10.0 L 0.0 11.0 L 0.0 12.0 L 0.0 13.0 L 0.0 14.0 L 0.0 15.0 L 0.0 16.0 L 0.0 17.0 L 0.0 18.0 L 0.0 19.0 L 0.0 20.0 L 0.0 21.0 L 0.0 22.0 L 0.0 23.0 L 0.0 24.0 L 0.0 25.0 L 0.0 26.0 L 0.0 27.0 L 0.0 28.0 L 0.0 29.0 L 0.0 30.0 L 0.0 31.0 L 0.0 32.0 L 0.0 33.0 L 0.0 34.0 L 0.0 35.0 L 0.0 36.0 L 0.0 37.0 L 0.0 38.0 L 0.0 39.0 L 0.0 40.0 L 0.0 41.0 L 0.0 42.0 L 0.0 43.0 L 0.0 44.0 L 0.0 45.0 L 0.0 46.0 L 0.0 47.0 L 0.0 48.0 L 0.0 49.0 L 0.0 50.0 L 0.0 51.0 L 0.0 52.0 L 0.0 53.0 L 0.0 54.0 L 0.0 55.0 L 0.0 56.0 L 0.0 57.0 L 0.0 58.0 L 0.0 59.0 L 0.0 60.0 L 0.0 61.0 L 0.0 62.0 L 0.0 63.0 L 0.0 64.0 L 0.0 65.0 L 0.0 66.0 L 0.0 67.0 L 0.0 68.0 L 0.0 69.0 L 0.0 70.0 L 0.0 71.0 L 0.0 72.0 L 0.0 73.0 L 0.0 74.0 L 0.0 75.0 L 0.0 76.0 L 0.0 77.0 L 0.0 78.0 L 0.0 79.0 L 0.0 80.0 L 0.0 81.0 L 0.0 82.0 L 0.0 83.0 L 0.0 84.0 L 0.0 85.0 L 0.0 86.0 L 0.0 87.0 L 0.0 88.0 L 0.0 89.0 L 0.0 90.0 L 0.0 91.0 L 0.0 92.0 L 0.0 93.0 L 0.0 94.0 L 0.0 95.0 L 0.0 96.0 L 0.0 97.0 L 0.0 98.0 L 0.0 99.0 L 0.0 100.0 L 0.0 101.0 L 0.0 102.0 L 0.0 103.0 L 0.0 104.0 L 0.0 105.0 L 0.0 106.0 L 0.0 107.0 L 0.0 108.0 L 0.0 109.0 L 0.0 110.0 L 0.0 111.0 L 0.0 112.0 L 0.0 113.0 L 0.0 114.0 L 0.0 115.0 L 0.0 116.0 L 0.0 117.0 L 0.0 118.0 L 0.0 119.0 L 0.0 120.0 L 0.0 121.0 L 0.0 122.0 L 0.0 123.0 L 0.0 124.0 L 0.0 125.0 L 0.0 126.0 L 0.0 127.0 L 0.3333333333333333 127.66666666666667 L 1.0 128.0 L 2.0 128.0 L 3.0 128.0 L 4.0 128.0 L 5.0 128.0 L 6.0 128.0 L 7.0 128.0 L 8.0 128.0 L 9.0 128.0 L 10.0 128.0 L 11.0 128.0 L 12.0 128.0 L 13.0 128.0 L 14.0 128.0 L 15.0 128.0 L 16.0 128.0 L 17.0 128.0 L 18.0 128.0 L 19.0 128.0 L 20.0 128.0 L 21.0 128.0 L 22.0 128.0 L 23.0 128.0 L 24.0 128.0 L 25.0 128.0 L 25.5 128.0 Z" stroke="none" fill="rgb(255,255,255)" />
<path d="M 59.5 122.0 L 60.0 122.0 L 61.0 122.0 L 62.0 122.0 L 63.0 122.0 L 64.0 122.0 L 65.0 122.0 L 66.0 122.0 L 67.0 122.0 L 68.0 122.0 L 69.0 122.0 L 70.0 122.0 L 71.0 122.0 L 72.0 122.0 L 73.0 122.0 L 74.0 122.0 L 75.0 122.0 L 76.0 122.0 L 77.0 121.66666666666667 L 78.0 121.33333333333333 L 79.0 121.0 L 80.0 121.0 L 81.0 120.66666666666667 L 82.0 120.33333333333333 L 83.0 120.0 L 84.0 119.66666666666667 L 85.0 119.33333333333333 L 86.0 119.0 L 87.0 118.66666666666667 L 88.0 118.33333333333333 L 89.0 117.66666666666667 L 90.0 117.33333333333333 L 91.0 116.66666666666667 L 92.0 116.0 L 93.0 115.33333333333333 L 93.66666666666667 114.66666666666667 L 94.33333333333333 114.0 L 95.0 113.0 L 96.0 112.0 L 97.0 111.0 L 98.0 110.0 L 99.0 109.0 L 99.66666666666667 108.0 L 100.0 107.0 L 99.66666666666667 106.0 L 99.66666666666667 105.0 L 99.66666666666667 104.0 L 100.0 103.0 L 100.0 102.0 L 100.33333333333333 101.0 L 100.66666666666667 100.0 L 101.0 99.0 L 101.0 98.0 L 101.0 97.0 L 101.0 96.0 L 101.0 95.0 L 101.0 94.0 L 100.66666666666667 93.0 L 100.33333333333333 92.0 L 100.0 91.0 L 100.0 90.0 L 100.0 89.0 L 99.66666666666667 88.0 L 99.0 87.33333333333333 L 98.0 87.33333333333333 L 97.0 87.66666666666667 L 96.0 88.0 L 95.0 87.66666666666667 L 94.0 87.33333333333333 L 93.0 86.66666666666667 L 92.0 86.0 L 91.0 85.33333333333333 L 90.0 85.0 L 89.0 85.0 L 88.0 85.0 L 87.0 85.0 L 86.0 85.0 L 85.0 85.0 L 84.0 85.0 L 83.0 85.0 L 82.0 85.33333333333333 L 81.0 85.66666666666667 L 80.0 86.0 L 79.0 86.0 L 78.0 86.0 L 77.0 86.0 L 76.0 86.0 L 75.0 86.33333333333333 L 74.33333333333333 87.0 L 74.0 88.0 L 74.33333333333333 89.0 L 75.0 90.0 L 76.0 90.66666666666667 L 77.0 91.33333333333333 L 78.0 92.0 L 79.0 93.0 L 80.0 94.0 L 81.0 95.0 L 82.0 96.0 L 82.66666666666667 97.0 L 83.33333333333333 98.0 L 83.66666666666667 99.0 L 84.0 100.0 L 84.0 101.0 L 83.66666666666667 102.0 L 83.0 103.0 L 82.0 103.66666666666667 L 81.0 104.0 L 80.0 104.0 L 79.0 103.66666666666667 L 78.0 103.0 L 77.0 102.0 L 76.0 101.0 L 75.0 100.0 L 74.0 99.0 L 73.0 98.0 L 72.0 97.0 L 71.0 96.33333333333333 L 70.0 96.0 L 69.0 96.0 L 68.0 96.0 L 67.0 96.0 L 66.0 96.0 L 65.0 96.0 L 64.0 96.33333333333333 L 63.333333333333336 97.0 L 63.0 98.0 L 63.0 99.0 L 63.0 100.0 L 63.0 101.0 L 62.666666666666664 102.0 L 62.333333333333336 103.0 L 61.666666666666664 104.0 L 61.0 105.0 L 60.0 106.0 L 59.0 107.0 L 58.0 107.66666666666667 L 57.0 108.0 L 56.0 107.66666666666667 L 55.0 107.0 L 54.0 106.0 L 53.0 105.0 L 52.333333333333336 104.0 L 52.333333333333336 103.0 L 52.666666666666664 102.0 L 53.0 101.0 L 53.333333333333336 100.0 L 53.666666666666664 99.0 L 54.0 98.0 L 54.333333333333336 97.0 L 54.666666666666664 96.0 L 55.0 95.0 L 54.666666666666664 94.0 L 54.0 93.0 L 53.0 92.33333333333333 L 52.0 92.0 L 51.0 92.0 L 50.0 92.0 L 49.0 92.0 L 48.0 92.0 L 47.0 92.0 L 46.0 92.0 L 45.0 92.0 L 44.0 92.0 L 43.0 92.0 L 42.0 91.66666666666667 L 41.0 91.33333333333333 L 40.0 90.66666666666667 L 39.0 90.0 L 38.333333333333336 89.0 L 38.0 88.0 L 38.333333333333336 87.0 L 39.0 86.0 L 40.0 85.33333333333333 L 41.0 84.66666666666667 L 42.0 84.33333333333333 L 43.0 84.0 L 44.0 84.0 L 45.0 84.0 L 46.0 84.0 L 47.0 84.0 L 48.0 84.0 L 49.0 84.0 L 50.0 84.0 L 51.0 83.66666666666667 L 51.666666666666664 83.0 L 52.0 82.0 L 52.0 81.0 L 52.0 80.0 L 52.0 79.0 L 52.0 78.0 L 51.666666666666664 77.0 L 51.0 76.33333333333333 L 50.0 76.0 L 49.0 76.0 L 48.0 75.66666666666667 L 47.0 75.33333333333333 L 46.0 74.66666666666667 L 45.0 74.0 L 44.0 73.0 L 43.333333333333336 72.0 L 43.333333333333336 71.0 L 44.0 70.0 L 45.0 69.33333333333333 L 46.0 69.0 L 47.0 69.0 L 48.0 69.0 L 49.0 69.0 L 50.0 69.33333333333333 L 51.0 69.66666666666667 L 52.0 70.0 L 53.0 70.0 L 54.0 70.33333333333333 L 55.0 70.66666666666667 L 56.0 71.0 L 57.0 70.66666666666667 L 57.666666666666664 70.0 L 58.333333333333336 69.0 L 59.0 68.0 L 59.666666666666664 67.0 L 60.333333333333336 66.0 L 60.666666666666664 65.0 L 60.666666666666664 64.0 L 60.0 63.333333333333336 L 59.0 62.666666666666664 L 58.0 62.333333333333336 L 57.0 62.0 L 56.0 61.666666666666664 L 55.0 61.0 L 54.0 60.0 L 53.0 59.0 L 52.333333333333336 58.0 L 52.333333333333336 57.0 L 53.0 56.0 L 54.0 55.0 L 55.0 54.333333333333336 L 56.0 54.0 L 57.0 54.0 L 58.0 54.333333333333336 L 59.0 54.666666666666664 L 60.0 55.0 L 61.0 55.333333333333336 L 62.0 55.666666666666664 L 63.0 56.333333333333336 L 64.0 56.666666666666664 L 65.0 57.0 L 65.66666666666667 56.666666666666664 L 66.33333333333333 56.0 L 66.66666666666667 55.0 L 67.33333333333333 54.0 L 67.66666666666667 53.0 L 68.33333333333333 52.0 L 68.66666666666667 51.0 L 68.66666666666667 50.0 L 68.0 49.0 L 67.0 48.0 L 66.33333333333333 47.0 L 66.33333333333333 46.0 L 66.66666666666667 45.0 L 67.0 44.0 L 67.33333333333333 43.0 L 68.0 42.333333333333336 L 69.0 41.666666666666664 L 70.0 41.666666666666664 L 71.0 41.666666666666664 L 72.0 41.666666666666664 L 72.66666666666667 41.0 L 73.33333333333333 40.0 L 73.66666666666667 39.0 L 74.0 38.0 L 74.0 37.0 L 74.33333333333333 36.0 L 74.66666666666667 35.0 L 75.0 34.0 L 75.0 33.0 L 75.0 32.0 L 75.0 31.0 L 75.0 30.0 L 75.0 29.0 L 75.0 28.0 L 75.0 27.0 L 75.0 26.0 L 74.66666666666667 25.0 L 74.33333333333333 24.0 L 74.0 23.0 L 74.0 22.0 L 73.66666666666667 21.0 L 73.33333333333333 20.0 L 72.66666666666667 19.0 L 72.33333333333333 18.0 L 71.66666666666667 17.0 L 71.0 16.0 L 70.33333333333333 15.0 L 69.66666666666667 14.0 L 69.0 13.0 L 68.0 12.0 L 67.0 11.0 L 66.0 10.333333333333334 L 65.0 9.666666666666666 L 64.0 9.0 L 63.0 8.333333333333334 L 62.0 7.666666666666667 L 61.0 7.333333333333333 L 60.0 7.0 L 59.0 6.666666666666667 L 58.0 6.333333333333333 L 57.0 6.0 L 56.0 6.0 L 55.0 5.666666666666667 L 54.0 5.333333333333333 L 53.0 5.0 L 52.0 5.0 L 51.0 5.0 L 50.0 5.0 L 49.0 5.0 L 48.0 5.0 L 47.0 5.0 L 46.0 5.0 L 45.0 5.0 L 44.0 5.0 L 43.0 5.0 L 42.0 5.333333333333333 L 41.0 5.666666666666667 L 40.0 6.0 L 39.0 6.0 L 38.0 6.0 L 37.0 6.333333333333333 L 36.0 6.666666666666667 L 35.0 7.333333333333333 L 34.0 7.666666666666667 L 33.0 8.333333333333334 L 32.0 8.666666666666666 L 31.0 9.333333333333334 L 30.0 10.0 L 29.0 10.666666666666666 L 28.0 11.333333333333334 L 27.333333333333332 12.0 L 26.666666666666668 13.0 L 26.0 14.0 L 25.333333333333332 15.0 L 24.666666666666668 16.0 L 24.333333333333332 17.0 L 23.666666666666668 18.0 L 23.333333333333332 19.0 L 22.666666666666668 20.0 L 22.333333333333332 21.0 L 22.0 22.0 L 22.0 23.0 L 22.0 24.0 L 22.0 25.0 L 22.0 26.0 L 22.0 27.0 L 22.0 28.0 L 22.0 29.0 L 22.0 30.0 L 22.333333333333332 30.666666666666668 L 23.0 31.0 L 24.0 31.0 L 25.0 31.333333333333332 L 26.0 32.0 L 27.0 33.0 L 27.666666666666668 34.0 L 28.0 35.0 L 27.666666666666668 36.0 L 27.333333333333332 37.0 L 27.0 38.0 L 27.333333333333332 38.666666666666664 L 28.0 39.333333333333336 L 29.0 40.0 L 30.0 40.666666666666664 L 31.0 41.0 L 32.0 41.333333333333336 L 33.0 41.666666666666664 L 34.0 42.0 L 35.0 42.0 L 36.0 42.333333333333336 L 37.0 42.666666666666664 L 38.0 43.333333333333336 L 39.0 43.666666666666664 L 40.0 43.666666666666664 L 41.0 43.333333333333336 L 42.0 43.333333333333336 L 43.0 44.0 L 44.0 45.0 L 44.666666666666664 46.0 L 45.0 47.0 L 45.0 48.0 L 45.0 49.0 L 45.0 50.0 L 45.0 51.0 L 44.666666666666664 52.0 L 44.333333333333336 53.0 L 43.666666666666664 54.0 L 43.333333333333336 55.0 L 42.666666666666664 56.0 L 42.0 57.0 L 41.333333333333336 58.0 L 40.666666666666664 59.0 L 40.0 60.0 L 39.333333333333336 61.0 L 38.666666666666664 62.0 L 38.333333333333336 63.0 L 37.666666666666664 64.0 L 37.0 65.0 L 36.333333333333336 66.0 L 35.666666666666664 67.0 L 35.0 68.0 L 34.333333333333336 69.0 L 33.666666666666664 70.0 L 33.333333333333336 71.0 L 32.666666666666664 72.0 L 32.333333333333336 73.0 L 31.666666666666668 74.0 L 31.333333333333332 75.0 L 30.666666666666668 76.0 L 30.333333333333332 77.0 L 30.0 78.0 L 29.666666666666668 79.0 L 29.333333333333332 80.0 L 29.0 81.0 L 29.0 82.0 L 28.666666666666668 83.0 L 28.333333333333332 84.0 L 28.0 85.0 L 28.0 86.0 L 28.0 87.0 L 28.0 88.0 L 28.0 89.0 L 28.0 90.0 L 28.0 91.0 L 28.0 92.0 L 28.0 93.0 L 28.0 94.0 L 28.0 95.0 L 28.0 96.0 L 28.0 97.0 L 28.0 98.0 L 28.333333333333332 99.0 L 28.666666666666668 100.0 L 29.333333333333332 101.0 L 29.666666666666668 102.0 L 30.333333333333332 103.0 L 30.666666666666668 104.0 L 31.333333333333332 105.0 L 32.0 106.0 L 33.0 107.0 L 34.0 108.0 L 34.666666666666664 109.0 L 35.333333333333336 110.0 L 36.0 111.0 L 37.0 112.0 L 38.0 113.0 L 39.0 114.0 L 40.0 115.0 L 41.0 116.0 L 42.0 117.0 L 43.0 117.66666666666667 L 44.0 118.33333333333333 L 45.0 118.66666666666667 L 46.0 119.33333333333333 L 47.0 119.66666666666667 L 48.0 120.0 L 49.0 120.33333333333333 L 50.0 120.66666666666667 L 51.0 121.0 L 52.0 121.33333333333333 L 53.0 121.66666666666667 L 54.0 122.0 L 55.0 122.0 L 56.0 122.0 L 57.0 122.0 L 58.0 122.0 L 58.5 122.0 Z" stroke="none" fill="rgb(190,208,74)" />
<path d="M 59.5 95.0 L 59.666666666666664 94.66666666666667 L 60.333333333333336 94.0 L 61.0 93.33333333333333 L 62.0 92.66666666666667 L 63.0 92.0 L 64.0 91.33333333333333 L 65.0 90.66666666666667 L 66.0 90.33333333333333 L 67.0 90.0 L 68.0 90.0 L 69.0 90.0 L 70.0 90.0 L 71.0 90.33333333333333 L 72.0 90.66666666666667 L 73.0 91.0 L 74.0 90.66666666666667 L 74.66666666666667 90.0 L 74.66666666666667 89.0 L 74.66666666666667 88.0 L 74.66666666666667 87.0 L 75.0 86.0 L 75.0 85.0 L 75.33333333333333 84.0 L 76.0 83.0 L 77.0 82.0 L 77.66666666666667 81.0 L 78.0 80.0 L 78.33333333333333 79.0 L 79.0 78.0 L 80.0 77.33333333333333 L 81.0 77.0 L 82.0 76.66666666666667 L 83.0 76.33333333333333 L 84.0 76.0 L 85.0 76.0 L 86.0 76.0 L 87.0 76.0 L 88.0 76.0 L 89.0 76.33333333333333 L 90.0 76.66666666666667 L 91.0 77.0 L 92.0 77.0 L 92.66666666666667 76.66666666666667 L 92.66666666666667 76.0 L 92.0 75.0 L 91.0 74.33333333333333 L 90.0 73.66666666666667 L 89.0 73.33333333333333 L 88.0 72.66666666666667 L 87.0 72.33333333333333 L 86.0 71.66666666666667 L 85.0 71.33333333333333 L 84.0 71.0 L 83.0 71.0 L 82.0 70.66666666666667 L 81.0 70.33333333333333 L 80.0 70.0 L 79.0 70.0 L 78.0 70.0 L 77.0 70.0 L 76.0 70.0 L 75.0 70.0 L 74.0 69.66666666666667 L 73.0 69.33333333333333 L 72.0 69.0 L 71.0 69.0 L 70.0 69.0 L 69.0 69.0 L 68.0 69.33333333333333 L 67.0 69.66666666666667 L 66.0 70.0 L 65.0 70.0 L 64.0 70.0 L 63.0 70.0 L 62.0 70.0 L 61.0 70.33333333333333 L 60.0 70.66666666666667 L 59.0 71.0 L 58.0 71.0 L 57.0 71.33333333333333 L 56.0 71.66666666666667 L 55.333333333333336 72.33333333333333 L 54.666666666666664 73.0 L 54.333333333333336 74.0 L 53.666666666666664 75.0 L 53.0 76.0 L 52.333333333333336 77.0 L 52.0 78.0 L 52.0 79.0 L 52.0 80.0 L 52.0 81.0 L 51.666666666666664 82.0 L 51.333333333333336 83.0 L 51.0 84.0 L 51.0 85.0 L 51.0 86.0 L 51.0 87.0 L 51.0 88.0 L 51.333333333333336 89.0 L 51.666666666666664 90.0 L 52.0 91.0 L 52.333333333333336 92.0 L 53.0 93.0 L 54.0 94.0 L 55.0 94.66666666666667 L 56.0 95.0 L 57.0 95.0 L 58.0 95.0 L 58.5 95.0 Z" stroke="none" fill="rgb(150,168,32)" />
<path d="M 24.5 99.5 L 24.666666666666668 100.0 L 25.333333333333332 101.0 L 25.666666666666668 102.0 L 26.333333333333332 103.0 L 26.666666666666668 104.0 L 27.333333333333332 105.0 L 28.0 106.0 L 29.0 107.0 L 29.666666666666668 108.0 L 30.333333333333332 109.0 L 31.0 110.0 L 32.0 111.0 L 33.0 112.0 L 34.0 112.66666666666667 L 35.0 113.33333333333333 L 36.0 114.0 L 37.0 115.0 L 38.0 115.66666666666667 L 39.0 116.33333333333333 L 40.0 116.66666666666667 L 41.0 117.0 L 41.666666666666664 116.66666666666667 L 41.666666666666664 116.0 L 41.0 115.0 L 40.0 114.0 L 39.0 113.0 L 38.0 112.0 L 37.0 111.0 L 36.0 110.0 L 35.333333333333336 109.0 L 34.666666666666664 108.0 L 34.0 107.0 L 33.0 106.0 L 32.0 105.0 L 31.333333333333332 104.0 L 30.666666666666668 103.0 L 30.333333333333332 102.0 L 29.666666666666668 101.0 L 29.333333333333332 100.0 L 28.666666666666668 99.0 L 28.333333333333332 98.0 L 28.0 97.0 L 28.0 96.0 L 28.0 95.0 L 28.0 94.0 L 28.0 93.0 L 28.0 92.0 L 28.0 91.0 L 28.0 90.0 L 28.0 89.0 L 28.0 88.0 L 28.0 87.0 L 28.0 86.0 L 28.333333333333332 85.0 L 28.666666666666668 84.0 L 29.0 83.0 L 29.0 82.0 L 29.333333333333332 81.0 L 29.666666666666668 80.0 L 30.0 79.0 L 30.333333333333332 78.0 L 30.666666666666668 77.0 L 31.333333333333332 76.0 L 31.666666666666668 75.0 L 32.333333333333336 74.0 L 32.666666666666664 73.0 L 33.333333333333336 72.0 L 33.666666666666664 71.0 L 34.333333333333336 70.0 L 35.0 69.0 L 35.666666666666664 68.0 L 36.333333333333336 67.0 L 37.0 66.0 L 37.666666666666664 65.0 L 38.333333333333336 64.0 L 38.666666666666664 63.0 L 39.333333333333336 62.0 L 40.0 61.0 L 40.666666666666664 60.0 L 41.333333333333336 59.0 L 42.0 58.0 L 42.666666666666664 57.0 L 43.333333333333336 56.0 L 43.666666666666664 55.0 L 44.333333333333336 54.0 L 44.666666666666664 53.0 L 45.0 52.0 L 45.0 51.0 L 45.0 50.0 L 45.0 49.0 L 45.0 48.0 L 45.0 47.0 L 45.0 46.0 L 44.666666666666664 45.0 L 44.0 44.0 L 43.0 43.333333333333336 L 42.0 43.0 L 41.0 43.0 L 40.333333333333336 43.333333333333336 L 40.0 44.0 L 40.0 45.0 L 40.0 46.0 L 40.0 47.0 L 39.666666666666664 48.0 L 39.333333333333336 49.0 L 38.666666666666664 50.0 L 38.0 51.0 L 37.333333333333336 52.0 L 36.666666666666664 53.0 L 36.333333333333336 54.0 L 35.666666666666664 55.0 L 35.0 56.0 L 34.333333333333336 57.0 L 33.666666666666664 58.0 L 33.0 59.0 L 32.333333333333336 60.0 L 31.666666666666668 61.0 L 31.0 62.0 L 30.0 63.0 L 29.333333333333332 64.0 L 28.666666666666668 65.0 L 28.333333333333332 66.0 L 27.666666666666668 67.0 L 27.333333333333332 68.0 L 26.666666666666668 69.0 L 26.333333333333332 70.0 L 25.666666666666668 71.0 L 25.333333333333332 72.0 L 24.666666666666668 73.0 L 24.333333333333332 74.0 L 24.0 75.0 L 23.666666666666668 76.0 L 23.333333333333332 77.0 L 23.0 78.0 L 23.0 79.0 L 23.0 80.0 L 22.666666666666668 81.0 L 22.333333333333332 82.0 L 22.0 83.0 L 22.0 84.0 L 22.0 85.0 L 22.0 86.0 L 22.0 87.0 L 22.0 88.0 L 22.0 89.0 L 22.0 90.0 L 22.0 91.0 L 22.0 92.0 L 22.333333333333332 93.0 L 22.666666666666668 94.0 L 23.0 95.0 L 23.333333333333332 96.0 L 23.666666666666668 97.0 L 24.0 98.0 L 24.0 98.5 Z" stroke="none" fill="rgb(228,221,162)" />
<path d="M 23.5 41.5 L 24.0 41.0 L 25.0 40.0 L 26.0 39.0 L 27.0 38.0 L 27.666666666666668 37.0 L 28.333333333333332 36.0 L 28.666666666666668 35.0 L 28.666666666666668 34.0 L 28.0 33.0 L 27.0 32.0 L 26.0 31.333333333333332 L 25.0 31.0 L 24.0 31.0 L 23.0 31.333333333333332 L 22.0 32.0 L 21.0 32.666666666666664 L 20.0 33.333333333333336 L 19.0 34.0 L 18.0 35.0 L 17.0 35.666666666666664 L 16.0 36.333333333333336 L 15.0 36.666666666666664 L 14.0 37.333333333333336 L 13.0 37.666666666666664 L 12.0 38.333333333333336 L 11.0 38.666666666666664 L 10.0 39.0 L 9.0 39.0 L 8.0 39.333333333333336 L 7.0 39.666666666666664 L 6.0 40.0 L 5.0 40.0 L 4.333333333333333 40.333333333333336 L 4.0 41.0 L 4.333333333333333 42.0 L 5.0 42.666666666666664 L 6.0 43.0 L 7.0 43.0 L 8.0 43.0 L 9.0 43.0 L 10.0 43.333333333333336 L 10.333333333333334 44.0 L 10.0 45.0 L 9.0 46.0 L 8.0 46.666666666666664 L 7.333333333333333 47.333333333333336 L 7.0 48.0 L 7.0 49.0 L 7.333333333333333 49.666666666666664 L 8.0 50.0 L 9.0 49.666666666666664 L 10.0 49.333333333333336 L 11.0 48.666666666666664 L 12.0 48.333333333333336 L 13.0 47.666666666666664 L 14.0 47.333333333333336 L 15.0 46.666666666666664 L 16.0 46.333333333333336 L 17.0 45.666666666666664 L 18.0 45.333333333333336 L 19.0 44.666666666666664 L 20.0 44.0 L 21.0 43.333333333333336 L 22.0 42.666666666666664 L 22.5 42.5 Z" stroke="none" fill="rgb(238,109,51)" />
<path d="M 104.5 114.0 L 105.0 114.0 L 106.0 114.0 L 107.0 114.0 L 108.0 113.66666666666667 L 109.0 113.33333333333333 L 110.0 112.66666666666667 L 111.0 112.33333333333333 L 112.0 111.66666666666667 L 113.0 111.33333333333333 L 114.0 110.66666666666667 L 115.0 110.0 L 116.0 109.33333333333333 L 117.0 108.66666666666667 L 117.66666666666667 108.0 L 118.33333333333333 107.0 L 119.0 106.0 L 119.66666666666667 105.0 L 120.33333333333333 104.0 L 120.66666666666667 103.0 L 121.33333333333333 102.0 L 121.66666666666667 101.0 L 122.0 100.0 L 121.66666666666667 99.33333333333333 L 121.0 99.0 L 120.0 99.33333333333333 L 119.0 100.0 L 118.0 101.0 L 117.0 102.0 L 116.0 102.66666666666667 L 115.0 103.33333333333333 L 114.0 104.0 L 113.0 104.66666666666667 L 112.0 105.0 L 111.0 105.33333333333333 L 110.0 105.66666666666667 L 109.0 106.0 L 108.0 106.0 L 107.0 106.0 L 106.0 106.0 L 105.0 106.0 L 104.0 106.0 L 103.0 106.33333333333333 L 102.0 106.66666666666667 L 101.0 107.0 L 100.0 107.33333333333333 L 99.0 108.0 L 98.0 109.0 L 97.0 110.0 L 96.0 111.0 L 95.0 112.0 L 94.33333333333333 113.0 L 94.0 114.0 L 94.33333333333333 114.66666666666667 L 95.0 115.0 L 96.0 115.0 L 97.0 115.0 L 98.0 115.0 L 99.0 115.0 L 100.0 115.0 L 101.0 115.0 L 102.0 115.0 L 103.0 114.66666666666667 L 103.5 114.5 Z" stroke="none" fill="rgb(228,221,162)" />
<path d="M 123.0 96.5 L 123.0 96.0 L 123.0 95.0 L 123.33333333333333 94.0 L 123.66666666666667 93.0 L 124.0 92.0 L 124.0 91.0 L 123.66666666666667 90.0 L 123.33333333333333 89.0 L 122.66666666666667 88.33333333333333 L 122.0 88.0 L 121.0 88.0 L 120.0 88.33333333333333 L 119.33333333333333 89.0 L 118.66666666666667 90.0 L 118.33333333333333 91.0 L 117.66666666666667 92.0 L 117.0 93.0 L 116.0 94.0 L 115.0 94.66666666666667 L 114.0 95.33333333333333 L 113.0 95.66666666666667 L 112.0 96.0 L 111.0 96.0 L 110.0 96.33333333333333 L 109.0 96.66666666666667 L 108.0 97.0 L 107.33333333333333 97.33333333333333 L 106.66666666666667 98.0 L 106.33333333333333 99.0 L 105.66666666666667 100.0 L 105.33333333333333 101.0 L 104.66666666666667 102.0 L 104.0 103.0 L 103.33333333333333 104.0 L 103.0 105.0 L 103.33333333333333 105.66666666666667 L 104.0 106.0 L 105.0 106.0 L 106.0 106.0 L 107.0 106.0 L 108.0 106.0 L 109.0 106.0 L 110.0 106.0 L 111.0 105.66666666666667 L 112.0 105.33333333333333 L 113.0 105.0 L 114.0 104.66666666666667 L 115.0 104.0 L 116.0 103.33333333333333 L 117.0 102.66666666666667 L 118.0 102.0 L 119.0 101.0 L 120.0 100.0 L 121.0 99.33333333333333 L 121.66666666666667 98.66666666666667 L 122.33333333333333 98.0 L 122.5 97.5 Z" stroke="none" fill="rgb(150,168,32)" />
<path d="M 75.5 86.0 L 76.0 86.0 L 77.0 86.0 L 78.0 86.0 L 79.0 86.0 L 80.0 86.0 L 81.0 86.0 L 82.0 85.66666666666667 L 83.0 85.33333333333333 L 84.0 85.0 L 85.0 85.0 L 86.0 85.0 L 87.0 85.0 L 88.0 85.0 L 89.0 85.0 L 90.0 85.33333333333333 L 91.0 86.0 L 92.0 86.66666666666667 L 93.0 87.33333333333333 L 94.0 87.66666666666667 L 95.0 88.0 L 96.0 88.0 L 97.0 88.0 L 97.66666666666667 87.66666666666667 L 98.0 87.0 L 98.0 86.0 L 97.66666666666667 85.0 L 97.0 84.0 L 96.0 83.0 L 95.0 82.0 L 94.0 81.0 L 93.0 80.33333333333333 L 92.0 79.66666666666667 L 91.0 79.33333333333333 L 90.0 79.0 L 89.0 79.0 L 88.0 79.0 L 87.0 79.0 L 86.0 79.0 L 85.0 79.0 L 84.0 79.0 L 83.0 79.0 L 82.0 79.33333333333333 L 81.0 79.66666666666667 L 80.0 80.0 L 79.0 80.0 L 78.0 80.33333333333333 L 77.0 81.0 L 76.0 82.0 L 75.33333333333333 83.0 L 75.0 84.0 L 75.0 85.0 L 75.0 85.5 Z" stroke="none" fill="rgb(228,221,162)" />
<path d="M 78.5 104.0 L 79.0 104.0 L 80.0 104.0 L 81.0 104.0 L 82.0 104.0 L 83.0 103.66666666666667 L 83.66666666666667 103.0 L 84.0 102.0 L 84.0 101.0 L 84.0 100.0 L 84.0 99.0 L 83.66666666666667 98.0 L 83.33333333333333 97.0 L 82.66666666666667 96.0 L 82.0 95.0 L 81.0 94.0 L 80.0 93.0 L 79.0 92.0 L 78.0 91.33333333333333 L 77.0 90.66666666666667 L 76.0 90.33333333333333 L 75.0 90.0 L 74.0 90.33333333333333 L 73.33333333333333 91.0 L 73.0 92.0 L 72.66666666666667 93.0 L 72.0 94.0 L 71.33333333333333 95.0 L 71.0 96.0 L 71.33333333333333 97.0 L 72.0 98.0 L 73.0 99.0 L 74.0 100.0 L 75.0 101.0 L 76.0 102.0 L 77.0 103.0 L 77.5 103.5 Z" stroke="none" fill="rgb(228,221,162)" />
<path d="M 52.5 105.5 L 53.0 106.0 L 54.0 107.0 L 55.0 107.66666666666667 L 56.0 108.0 L 57.0 108.0 L 58.0 108.0 L 59.0 107.66666666666667 L 60.0 107.0 L 61.0 106.0 L 61.666666666666664 105.0 L 62.333333333333336 104.0 L 62.666666666666664 103.0 L 63.0 102.0 L 63.0 101.0 L 63.0 100.0 L 63.0 99.0 L 63.0 98.0 L 63.0 97.0 L 62.666666666666664 96.0 L 62.0 95.33333333333333 L 61.0 95.0 L 60.0 95.0 L 59.0 95.0 L 58.0 95.0 L 57.0 95.0 L 56.0 95.0 L 55.0 95.33333333333333 L 54.333333333333336 96.0 L 54.0 97.0 L 53.666666666666664 98.0 L 53.333333333333336 99.0 L 53.0 100.0 L 52.666666666666664 101.0 L 52.333333333333336 102.0 L 52.0 103.0 L 52.0 104.0 L 52.0 104.5 Z" stroke="none" fill="rgb(228,221,162)" />
<path d="M 45.5 92.0 L 46.0 92.0 L 47.0 92.0 L 48.0 92.0 L 49.0 92.0 L 50.0 92.0 L 51.0 92.0 L 51.666666666666664 91.66666666666667 L 52.0 91.0 L 52.0 90.0 L 51.666666666666664 89.0 L 51.333333333333336 88.0 L 51.0 87.0 L 51.0 86.0 L 51.0 85.0 L 50.666666666666664 84.33333333333333 L 50.0 84.0 L 49.0 84.0 L 48.0 84.0 L 47.0 84.0 L 46.0 84.0 L 45.0 84.0 L 44.0 84.0 L 43.0 84.0 L 42.0 84.0 L 41.0 84.33333333333333 L 40.0 84.66666666666667 L 39.0 85.33333333333333 L 38.333333333333336 86.0 L 38.0 87.0 L 38.0 88.0 L 38.0 89.0 L 38.333333333333336 90.0 L 39.0 90.66666666666667 L 40.0 91.33333333333333 L 41.0 91.66666666666667 L 42.0 92.0 L 43.0 92.0 L 44.0 92.0 L 44.5 92.0 Z" stroke="none" fill="rgb(228,221,162)" />
<path d="M 57.5 62.5 L 58.0 62.666666666666664 L 59.0 63.333333333333336 L 60.0 63.666666666666664 L 61.0 64.0 L 61.666666666666664 63.666666666666664 L 62.333333333333336 63.0 L 62.666666666666664 62.0 L 63.333333333333336 61.0 L 64.0 60.0 L 64.66666666666667 59.0 L 65.0 58.0 L 64.66666666666667 57.0 L 64.0 56.333333333333336 L 63.0 55.666666666666664 L 62.0 55.333333333333336 L 61.0 55.0 L 60.0 54.666666666666664 L 59.0 54.333333333333336 L 58.0 54.0 L 57.0 54.0 L 56.0 54.0 L 55.0 54.0 L 54.0 54.333333333333336 L 53.0 55.0 L 52.333333333333336 56.0 L 52.0 57.0 L 52.0 58.0 L 52.333333333333336 59.0 L 53.0 60.0 L 54.0 61.0 L 55.0 61.666666666666664 L 56.0 62.0 L 56.5 62.0 Z" stroke="none" fill="rgb(228,221,162)" />
<path d="M 88.5 79.0 L 89.0 79.0 L 90.0 79.33333333333333 L 91.0 79.66666666666667 L 92.0 80.33333333333333 L 93.0 81.0 L 94.0 82.0 L 95.0 83.0 L 96.0 84.0 L 97.0 84.66666666666667 L 97.66666666666667 84.66666666666667 L 98.0 84.0 L 98.0 83.0 L 97.66666666666667 82.0 L 97.33333333333333 81.0 L 96.66666666666667 80.0 L 96.0 79.33333333333333 L 95.0 78.66666666666667 L 94.0 78.0 L 93.0 77.33333333333333 L 92.0 77.0 L 91.0 76.66666666666667 L 90.0 76.33333333333333 L 89.0 76.0 L 88.0 76.0 L 87.0 76.0 L 86.0 76.0 L 85.0 76.0 L 84.0 76.0 L 83.0 76.0 L 82.0 76.33333333333333 L 81.0 76.66666666666667 L 80.0 77.0 L 79.0 77.33333333333333 L 78.0 78.0 L 77.33333333333333 79.0 L 77.33333333333333 79.66666666666667 L 78.0 80.0 L 79.0 80.0 L 80.0 80.0 L 81.0 80.0 L 82.0 79.66666666666667 L 83.0 79.33333333333333 L 84.0 79.0 L 85.0 79.0 L 86.0 79.0 L 87.0 79.0 L 87.5 79.0 Z" stroke="none" fill="rgb(190,208,74)" />
<path d="M 55.0 73.5 L 55.333333333333336 73.0 L 55.666666666666664 72.0 L 55.666666666666664 71.0 L 55.0 70.33333333333333 L 54.0 70.0 L 53.0 70.0 L 52.0 69.66666666666667 L 51.0 69.33333333333333 L 50.0 69.0 L 49.0 69.0 L 48.0 69.0 L 47.0 69.0 L 46.0 69.0 L 45.0 69.0 L 44.0 69.33333333333333 L 43.333333333333336 70.0 L 43.0 71.0 L 43.0 72.0 L 43.333333333333336 73.0 L 44.0 74.0 L 45.0 74.66666666666667 L 46.0 75.33333333333333 L 47.0 75.66666666666667 L 48.0 76.0 L 49.0 76.0 L 50.0 76.33333333333333 L 51.0 76.66666666666667 L 52.0 77.0 L 53.0 76.66666666666667 L 53.666666666666664 76.0 L 54.333333333333336 75.0 L 54.5 74.5 Z" stroke="none" fill="rgb(228,221,162)" />
<path d="M 71.5 95.5 L 72.0 95.0 L 72.66666666666667 94.0 L 73.0 93.0 L 73.0 92.0 L 72.66666666666667 91.0 L 72.0 90.33333333333333 L 71.0 90.0 L 70.0 90.0 L 69.0 90.0 L 68.0 90.0 L 67.0 90.0 L 66.0 90.0 L 65.0 90.33333333333333 L 64.0 90.66666666666667 L 63.0 91.33333333333333 L 62.0 92.0 L 61.0 92.66666666666667 L 60.333333333333336 93.33333333333333 L 60.0 94.0 L 60.333333333333336 94.66666666666667 L 61.0 95.33333333333333 L 62.0 96.0 L 63.0 96.66666666666667 L 64.0 96.66666666666667 L 65.0 96.33333333333333 L 66.0 96.0 L 67.0 96.0 L 68.0 96.0 L 69.0 96.0 L 70.0 96.0 L 70.5 96.0 Z" stroke="none" fill="rgb(112,133,59)" />
<path d="M 50.5 28.0 L 51.0 28.0 L 52.0 28.0 L 53.0 28.0 L 54.0 27.666666666666668 L 55.0 27.0 L 56.0 26.0 L 56.666666666666664 25.0 L 57.0 24.0 L 57.0 23.0 L 57.0 22.0 L 56.666666666666664 21.0 L 56.0 20.333333333333332 L 55.0 20.0 L 54.0 20.0 L 53.0 20.0 L 52.0 20.0 L 51.0 20.0 L 50.0 20.333333333333332 L 49.0 21.0 L 48.333333333333336 22.0 L 48.0 23.0 L 48.0 24.0 L 48.0 25.0 L 48.333333333333336 26.0 L 49.0 27.0 L 49.5 27.5 Z" stroke="none" fill="rgb(50,50,52)" />
<path d="M 104.5 103.5 L 104.66666666666667 103.0 L 105.33333333333333 102.0 L 105.66666666666667 101.0 L 106.33333333333333 100.0 L 106.66666666666667 99.0 L 107.0 98.0 L 106.66666666666667 97.0 L 106.0 96.33333333333333 L 105.0 95.66666666666667 L 104.0 95.33333333333333 L 103.0 95.0 L 102.0 95.0 L 101.33333333333333 95.33333333333333 L 101.0 96.0 L 101.0 97.0 L 101.0 98.0 L 100.66666666666667 99.0 L 100.33333333333333 100.0 L 100.0 101.0 L 100.0 102.0 L 99.66666666666667 103.0 L 99.33333333333333 104.0 L 99.0 105.0 L 99.33333333333333 106.0 L 100.0 106.66666666666667 L 101.0 107.0 L 102.0 107.0 L 102.66666666666667 106.66666666666667 L 103.0 106.0 L 103.33333333333333 105.0 L 103.5 104.5 Z" stroke="none" fill="rgb(112,133,59)" />
<path d="M 42.5 16.0 L 43.0 15.666666666666666 L 43.666666666666664 15.0 L 44.0 14.0 L 44.0 13.0 L 44.0 12.0 L 44.0 11.0 L 43.666666666666664 10.0 L 43.0 9.333333333333334 L 42.0 9.0 L 41.0 9.0 L 40.0 9.333333333333334 L 39.0 10.0 L 38.0 11.0 L 37.333333333333336 12.0 L 37.0 13.0 L 37.0 14.0 L 37.333333333333336 15.0 L 38.0 15.666666666666666 L 39.0 16.0 L 40.0 16.0 L 41.0 16.0 L 41.5 16.0 Z" stroke="none" fill="rgb(50,50,52)" />
<path d="M 68.5 50.0 L 69.0 49.666666666666664 L 69.66666666666667 49.0 L 70.33333333333333 48.0 L 70.66666666666667 47.0 L 71.33333333333333 46.0 L 71.66666666666667 45.0 L 72.0 44.0 L 72.0 43.0 L 71.66666666666667 42.0 L 71.0 41.333333333333336 L 70.0 41.0 L 69.0 41.333333333333336 L 68.0 41.666666666666664 L 67.33333333333333 42.333333333333336 L 67.0 43.0 L 66.66666666666667 44.0 L 66.33333333333333 45.0 L 66.0 46.0 L 66.0 47.0 L 66.33333333333333 48.0 L 67.0 49.0 L 67.5 49.5 Z" stroke="none" fill="rgb(228,221,162)" />
<path d="M 94.0 77.5 L 94.0 77.0 L 93.66666666666667 76.33333333333333 L 93.33333333333333 76.33333333333333 L 93.0 77.0 L 93.33333333333333 77.66666666666667 L 93.5 78.0 Z" stroke="none" fill="rgb(0,0,0)" />
<path d="M 99.0 86.5 L 99.0 86.0 L 98.66666666666667 85.33333333333333 L 98.33333333333333 85.33333333333333 L 98.0 86.0 L 98.33333333333333 86.66666666666667 L 98.5 87.0 Z" stroke="none" fill="rgb(0,0,0)" />
<path d="M 107.5 97.0 L 107.66666666666667 96.66666666666667 L 107.66666666666667 96.33333333333333 L 107.0 96.0 L 106.33333333333333 96.33333333333333 L 106.33333333333333 96.66666666666667 L 106.5 97.0 Z" stroke="none" fill="rgb(0,0,0)" />
<path d="M 22.5 32.0 L 22.666666666666668 31.666666666666668 L 22.666666666666668 31.333333333333332 L 22.333333333333332 31.333333333333332 L 22.0 31.5 Z" stroke="none" fill="rgb(0,0,0)" />
<path d="M 4.0 41.5 L 3.6666666666666665 41.333333333333336 L 3.3333333333333335 41.333333333333336 L 3.3333333333333335 41.666666666666664 L 3.5 42.0 Z" stroke="none" fill="rgb(0,0,0)" />
<path d="M 72.5 42.0 L 72.66666666666667 41.666666666666664 L 72.66666666666667 41.333333333333336 L 72.33333333333333 41.333333333333336 L 72.0 41.5 Z" stroke="none" fill="rgb(0,0,0)" />
<path d="M 12.5 43.0 L 12.666666666666666 42.666666666666664 L 12.666666666666666 42.333333333333336 L 12.333333333333334 42.333333333333336 L 12.0 42.5 Z" stroke="none" fill="rgb(255,255,255)" />
<path d="M 7.0 49.5 L 6.666666666666667 49.333333333333336 L 6.333333333333333 49.333333333333336 L 6.333333333333333 49.666666666666664 L 6.5 50.0 Z" stroke="none" fill="rgb(0,0,0)" />
<path d="M 56.5 72.0 L 56.666666666666664 71.66666666666667 L 56.666666666666664 71.33333333333333 L 56.333333333333336 71.33333333333333 L 56.0 71.5 Z" stroke="none" fill="rgb(255,255,255)" />
<path d="M 94.5 79.0 L 94.66666666666667 78.66666666666667 L 94.66666666666667 78.33333333333333 L 94.33333333333333 78.33333333333333 L 94.0 78.5 Z" stroke="none" fill="rgb(0,0,0)" />
<path d="M 122.5 98.0 L 122.66666666666667 97.66666666666667 L 122.66666666666667 97.33333333333333 L 122.33333333333333 97.33333333333333 L 122.0 97.5 Z" stroke="none" fill="rgb(0,0,0)" />
</svg>
