<?xml version="1.0" encoding="UTF-8" standalone="no"?>
<!DOCTYPE svg PUBLIC "-//W3C//DTD SVG 1.1//EN"
"http://www.w3.org/Graphics/SVG/1.1/DTD/svg11.dtd">
<svg width="128" height="128" xmlns="http://www.w3.org/2000/svg" version="1.1">
<path d="M 101.5 128.0 L 102.0 128.0 L 103.0 128.0 L 104.0 128.0 L 105.0 128.0 L 106.0 128.0 L 107.0 128.0 L 108.0 128.0 L 109.0 128.0 L 110.0 128.0 L 111.0 128.0 L 112.0 128.0 L 113.0 128.0 L 114.0 128.0 L 115.0 128.0 L 116.0 128.0 L 117.0 128.0 L 118.0 128.0 L 119.0 128.0 L 120.0 128.0 L 121.0 128.0 L 122.0 128.0 L 123.0 128.0 L 124.0 128.0 L 125.0 128.0 L 126.0 128.0 L 127.0 128.0 L 127.66666666666667 127.66666666666667 L 128.0 127.0 L 128.0 126.0 L 128.0 125.0 L 128.0 124.0 L 128.0 123.0 L 128.0 122.0 L 128.0 121.0 L 128.0 120.0 L 128.0 119.0 L 128.0 118.0 L 128.0 117.0 L 128.0 116.0 L 128.0 115.0 L 128.0 114.0 L 128.0 113.0 L 128.0 112.0 L 128.0 111.0 L 128.0 110.0 L 128.0 109.0 L 128.0 108.0 L 128.0 107.0 L 128.0 106.0 L 128.0 105.0 L 128.0 104.0 L 128.0 103.0 L 128.0 102.0 L 128.0 101.0 L 128.0 100.0 L 128.0 99.0 L 128.0 98.0 L 128.0 97.0 L 128.0 96.0 L 128.0 95.0 L 128.0 94.0 L 128.0 93.0 L 128.0 92.0 L 128.0 91.0 L 128.0 90.0 L 128.0 89.0 L 128.0 88.0 L 128.0 87.0 L 128.0 86.0 L 128.0 85.0 L 128.0 84.0 L 128.0 83.0 L 128.0 82.0 L 128.0 81.0 L 128.0 80.0 L 128.0 79.0 L 128.0 78.0 L 128.0 77.0 L 128.0 76.0 L 128.0 75.0 L 128.0 74.0 L 128.0 73.0 L 128.0 72.0 L 128.0 71.0 L 128.0 70.0 L 128.0 69.0 L 128.0 68.0 L 128.0 67.0 L 128.0 66.0 L 128.0 65.0 L 128.0 64.0 L 128.0 63.0 L 128.0 62.0 L 128.0 61.0 L 128.0 60.0 L 128.0 59.0 L 128.0 58.0 L 128.0 57.0 L 128.0 56.0 L 128.0 55.0 L 128.0 54.0 L 128.0 53.0 L 128.0 52.0 L 128.0 51.0 L 128.0 50.0 L 128.0 49.0 L 128.0 48.0 L 128.0 47.0 L 128.0 46.0 L 128.0 45.0 L 128.0 44.0 L 128.0 43.0 L 128.0 42.0 L 128.0 41.0 L 128.0 40.0 L 128.0 39.0 L 128.0 38.0 L 128.0 37.0 L 128.0 36.0 L 128.0 35.0 L 128.0 34.0 L 128.0 33.0 L 128.0 32.0 L 128.0 31.0 L 128.0 30.0 L 128.0 29.0 L 128.0 28.0 L 128.0 27.0 L 128.0 26.0 L 128.0 25.0 L 128.0 24.0 L 128.0 23.0 L 128.0 22.0 L 128.0 21.0 L 128.0 20.0 L 128.0 19.0 L 128.0 18.0 L 128.0 17.0 L 128.0 16.0 L 128.0 15.0 L 128.0 14.0 L 128.0 13.0 L 128.0 12.0 L 128.0 11.0 L 128.0 10.0 L 128.0 9.0 L 128.0 8.0 L 128.0 7.0 L 128.0 6.0 L 128.0 5.0 L 128.0 4.0 L 128.0 3.0 L 128.0 2.0 L 128.0 1.0 L 127.66666666666667 0.3333333333333333 L 127.0 0.0 L 126.0 0.0 L 125.0 0.0 L 124.0 0.0 L 123.0 0.0 L 122.0 0.0 L 121.0 0.0 L 120.0 0.0 L 119.0 0.0 L 118.0 0.0 L 117.0 0.0 L 116.0 0.0 L 115.0 0.0 L 114.0 0.0 L 113.0 0.0 L 112.0 0.0 L 111.0 0.0 L 110.0 0.0 L 109.0 0.0 L 108.0 0.0 L 107.0 0.0 L 106.0 0.0 L 105.0 0.0 L 104.0 0.0 L 103.0 0.0 L 102.0 0.0 L 101.0 0.0 L 100.0 0.0 L 99.0 0.0 L 98.0 0.0 L 97.0 0.0 L 96.0 0.0 L 95.0 0.0 L 94.0 0.0 L 93.0 0.0 L 92.0 0.0 L 91.0 0.0 L 90.0 0.0 L 89.0 0.0 L 88.0 0.0 L 87.0 0.0 L 86.0 0.0 L 85.0 0.0 L 84.0 0.0 L 83.0 0.0 L 82.0 0.0 L 81.0 0.0 L 80.0 0.0 L 79.0 0.0 L 78.0 0.0 L 77.0 0.0 L 76.0 0.0 L 75.0 0.0 L 74.0 0.0 L 73.0 0.0 L 72.0 0.0 L 71.0 0.0 L 70.0 0.0 L 69.0 0.0 L 68.0 0.0 L 67.0 0.0 L 66.0 0.0 L 65.0 0.0 L 64.0 0.0 L 63.0 0.0 L 62.0 0.0 L 61.0 0.0 L 60.0 0.0 L 59.0 0.0 L 58.0 0.0 L 57.0 0.0 L 56.0 0.0 L 55.0 0.0 L 54.0 0.0 L 53.0 0.0 L 52.0 0.0 L 51.0 0.0 L 50.0 0.0 L 49.0 0.0 L 48.0 0.0 L 47.0 0.0 L 46.0 0.0 L 45.0 0.0 L 44.0 0.0 L 43.0 0.0 L 42.0 0.0 L 41.0 0.0 L 40.0 0.0 L 39.0 0.0 L 38.0 0.0 L 37.0 0.0 L 36.0 0.0 L 35.0 0.0 L 34.0 0.0 L 33.0 0.0 L 32.0 0.0 L 31.0 0.0 L 30.0 0.0 L 29.0 0.0 L 28.0 0.0 L 27.0 0.0 L 26.0 0.0 L 25.0 0.0 L 24.0 0.0 L 23.0 0.0 L 22.0 0.0 L 21.0 0.0 L 20.0 0.0 L 19.0 0.0 L 18.0 0.0 L 17.0 0.0 L 16.0 0.0 L 15.0 0.0 L 14.0 0.0 L 13.0 0.0 L 12.0 0.0 L 11.0 0.0 L 10.0 0.0 L 9.0 0.0 L 8.0 0.0 L 7.0 0.0 L 6.0 0.0 L 5.0 0.0 L 4.0 0.0 L 3.0 0.0 L 2.0 0.0 L 1.0 0.0 L 0.3333333333333333 0.3333333333333333 L 0.0 1.0 L 0.0 2.0 L 0.0 3.0 L 0.0 4.0 L 0.0 5.0 L 0.0 6.0 L 0.0 7.0 L 0.0 8.0 L 0.0 9.0 L 0.0 10.0 L 0.0 11.0 L 0.0 12.0 L 0.0 13.0 L 0.0 14.0 L 0.0 15.0 L 0.0 16.0 L 0.0 17.0 L 0.0 18.0 L 0.0 19.0 L 0.0 20.0 L 0.0 21.0 L 0.0 22.0 L 0.0 23.0 L 0.0 24.0 L 0.0 25.0 L 0.0 26.0 L 0.0 27.0 L 0.0 28.0 L 0.0 29.0 L 0.0 30.0 L 0.0 31.0 L 0.0 32.0 L 0.0 33.0 L 0.0 34.0 L 0.0 35.0 L 0.0 36.0 L 0.0 37.0 L 0.0 38.0 L 0.0 39.0 L 0.0 40.0 L 0.0 41.0 L 0.0 42.0 L 0.0 43.0 L 0.0 44.0 L 0.0 45.0 L 0.0 46.0 L 0.0 47.0 L 0.0 48.0 L 0.0 49.0 L 0.0 50.0 L 0.0 51.0 L 0.0 52.0 L 0.0 53.0 L 0.0 54.0 L 0.0 55.0 L 0.0 56.0 L 0.0 57.0 L 0.0 58.0 L 0.0 59.0 L 0.0 60.0 L 0.0 61.0 L 0.0 62.0 L 0.0 63.0 L 0.0 64.0 L 0.0 65.0 L 0.0 66.0 L 0.0 67.0 L 0.0 68.0 L 0.0 69.0 L 0.0 70.0 L 0.0 71.0 L 0.0 72.0 L 0.0 73.0 L 0.0 74.0 L 0.0 75.0 L 0.0 76.0 L 0.0 77.0 L 0.0 78.0 L 0.0 79.0 L 0.0 80.0 L 0.0 81.0 L 0.0 82.0 L 0.0 83.0 L 0.0 84.0 L 0.0 85.0 L 0.0 86.0 L 0.0 87.0 L 0.0 88.0 L 0.0 89.0 L 0.0 90.0 L 0.0 91.0 L 0.0 92.0 L 0.0 93.0 L 0.0 94.0 L 0.0 95.0 L 0.0 96.0 L 0.0 97.0 L 0.0 98.0 L 0.0 99.0 L 0.0 100.0 L 0.0 101.0 L 0.0 102.0 L 0.0 103.0 L 0.0 104.0 L 0.0 105.0 L 0.0 106.0 L 0.0 107.0 L 0.0 108.0 L 0.0 109.0 L 0.0 110.0 L 0.0 111.0 L 0.0 112.0 L 0.0 113.0 L 0.0 114.0 L 0.0 115.0 L 0.0 116.0 L 0.0 117.0 L 0.0 118.0 L 0.0 119.0 L 0.0 120.0 L 0.0 121.0 L 0.0 122.0 L 0.0 123.0 L 0.0 124.0 L 0.0 125.0 L 0.0 126.0 L 0.0 127.0 L 0.3333333333333333 127.66666666666667 L 1.0 128.0 L 2.0 128.0 L 3.0 128.0 L 4.0 128.0 L 5.0 128.0 L 6.0 128.0 L 7.0 128.0 L 8.0 128.0 L 9.0 128.0 L 10.0 128.0 L 11.0 128.0 L 12.0 128.0 L 13.0 128.0 L 14.0 128.0 L 15.0 128.0 L 16.0 128.0 L 17.0 128.0 L 18.0 128.0 L 19.0 128.0 L 20.0 128.0 L 21.0 128.0 L 22.0 128.0 L 23.0 128.0 L 24.0 128.0 L 25.0 128.0 L 26.0 128.0 L 27.0 128.0 L 28.0 128.0 L 29.0 128.0 L 30.0 128.0 L 31.0 128.0 L 32.0 128.0 L 33.0 128.0 L 34.0 128.0 L 35.0 128.0 L 36.0 128.0 L 37.0 128.0 L 38.0 128.0 L 39.0 128.0 L 40.0 128.0 L 41.0 128.0 L 42.0 128.0 L 43.0 128.0 L 44.0 128.0 L 45.0 128.0 L 46.0 128.0 L 47.0 128.0 L 48.0 128.0 L 49.0 128.0 L 50.0 128.0 L 51.0 128.0 L 52.0 128.0 L 53.0 128.0 L 54.0 128.0 L 55.0 128.0 L 56.0 128.0 L 57.0 128.0 L 58.0 128.0 L 59.0 128.0 L 60.0 128.0 L 61.0 128.0 L 62.0 128.0 L 63.0 128.0 L 64.0 128.0 L 65.0 128.0 L 66.0 128.0 L 67.0 128.0 L 68.0 128.0 L 69.0 128.0 L 70.0 128.0 L 71.0 128.0 L 72.0 128.0 L 73.0 128.0 L 74.0 128.0 L 75.0 128.0 L 76.0 128.0 L 77.0 128.0 L 78.0 128.0 L 79.0 128.0 L 80.0 128.0 L 81.0 128.0 L 82.0 128.0 L 83.0 128.0 L 84.0 128.0 L 85.0 128.0 L 86.0 128.0 L 87.0 128.0 L 88.0 128.0 L 89.0 128.0 L 90.0 128.0 L 91.0 128.0 L 92.0 128.0 L 93.0 128.0 L 94.0 128.0 L 95.0 128.0 L 96.0 128.0 L 97.0 128.0 L 98.0 128.0 L 99.0 128.0 L 100.0 128.0 L 100.5 128.0 Z" stroke="none" fill="rgb(255,255,255)" />
<path d="M 26.5 119.5 L 27.0 119.66666666666667 L 28.0 120.0 L 29.0 120.0 L 30.0 120.0 L 31.0 120.0 L 32.0 120.0 L 33.0 120.0 L 34.0 120.0 L 35.0 120.0 L 36.0 120.0 L 37.0 120.0 L 38.0 120.0 L 39.0 120.0 L 40.0 120.0 L 41.0 119.66666666666667 L 42.0 119.33333333333333 L 43.0 119.0 L 44.0 118.66666666666667 L 45.0 118.33333333333333 L 46.0 117.66666666666667 L 47.0 117.33333333333333 L 48.0 116.66666666666667 L 49.0 116.33333333333333 L 50.0 115.66666666666667 L 51.0 115.0 L 52.0 114.0 L 53.0 113.0 L 53.666666666666664 112.0 L 54.333333333333336 111.0 L 55.0 110.0 L 56.0 109.0 L 56.666666666666664 108.0 L 57.333333333333336 107.0 L 58.0 106.0 L 58.666666666666664 105.0 L 59.333333333333336 104.0 L 59.666666666666664 103.0 L 60.333333333333336 102.0 L 60.666666666666664 101.0 L 61.333333333333336 100.0 L 61.666666666666664 99.0 L 62.333333333333336 98.0 L 62.666666666666664 97.0 L 63.333333333333336 96.0 L 63.666666666666664 95.0 L 64.0 94.0 L 64.33333333333333 93.0 L 64.66666666666667 92.0 L 65.33333333333333 91.0 L 65.66666666666667 90.0 L 66.33333333333333 89.0 L 66.66666666666667 88.0 L 67.0 87.0 L 67.33333333333333 86.0 L 67.66666666666667 85.0 L 68.33333333333333 84.0 L 68.66666666666667 83.0 L 69.0 82.0 L 69.33333333333333 81.0 L 69.66666666666667 80.0 L 70.33333333333333 79.0 L 70.66666666666667 78.0 L 71.0 77.0 L 71.33333333333333 76.0 L 71.66666666666667 75.0 L 72.33333333333333 74.0 L 72.66666666666667 73.0 L 73.0 72.0 L 73.33333333333333 71.0 L 73.66666666666667 70.0 L 74.33333333333333 69.0 L 74.66666666666667 68.0 L 75.0 67.0 L 75.33333333333333 66.0 L 75.66666666666667 65.0 L 76.33333333333333 64.0 L 76.66666666666667 63.0 L 77.0 62.0 L 77.33333333333333 61.0 L 77.66666666666667 60.0 L 78.33333333333333 59.0 L 78.66666666666667 58.0 L 79.0 57.0 L 79.33333333333333 56.0 L 79.66666666666667 55.0 L 80.33333333333333 54.0 L 80.66666666666667 53.0 L 81.0 52.0 L 81.33333333333333 51.0 L 81.66666666666667 50.0 L 82.33333333333333 49.0 L 82.66666666666667 48.0 L 83.0 47.0 L 83.33333333333333 46.0 L 83.66666666666667 45.0 L 84.33333333333333 44.0 L 84.66666666666667 43.0 L 85.0 42.0 L 85.33333333333333 41.0 L 85.66666666666667 40.0 L 86.0 39.0 L 86.33333333333333 38.0 L 86.66666666666667 37.0 L 87.33333333333333 36.0 L 87.66666666666667 35.0 L 88.0 34.0 L 88.33333333333333 33.0 L 88.66666666666667 32.0 L 89.33333333333333 31.0 L 89.66666666666667 30.0 L 90.0 29.0 L 90.33333333333333 28.0 L 90.66666666666667 27.0 L 91.33333333333333 26.0 L 91.66666666666667 25.0 L 92.33333333333333 24.0 L 93.0 23.666666666666668 L 93.66666666666667 24.0 L 94.33333333333333 25.0 L 95.0 26.0 L 96.0 27.0 L 97.0 28.0 L 98.0 29.0 L 99.0 29.666666666666668 L 100.0 30.333333333333332 L 101.0 31.0 L 102.0 31.666666666666668 L 103.0 31.666666666666668 L 104.0 31.333333333333332 L 105.0 31.0 L 106.0 30.666666666666668 L 107.0 30.0 L 107.66666666666667 29.0 L 108.0 28.0 L 108.0 27.0 L 108.0 26.0 L 108.0 25.0 L 108.0 24.0 L 108.0 23.0 L 107.66666666666667 22.0 L 107.0 21.0 L 106.0 20.0 L 105.0 19.0 L 104.33333333333333 18.0 L 103.66666666666667 17.0 L 103.33333333333333 16.0 L 102.66666666666667 15.0 L 102.33333333333333 14.0 L 101.66666666666667 13.0 L 101.33333333333333 12.0 L 100.66666666666667 11.0 L 100.0 10.0 L 99.0 9.333333333333334 L 98.0 8.666666666666666 L 97.0 8.333333333333334 L 96.0 8.0 L 95.0 7.666666666666667 L 94.0 7.333333333333333 L 93.0 7.0 L 92.0 7.0 L 91.0 7.0 L 90.0 7.0 L 89.0 7.0 L 88.0 7.333333333333333 L 87.0 7.666666666666667 L 86.0 8.0 L 85.0 8.333333333333334 L 84.0 9.0 L 83.0 10.0 L 82.33333333333333 11.0 L 81.66666666666667 12.0 L 81.33333333333333 13.0 L 80.66666666666667 14.0 L 80.33333333333333 15.0 L 79.66666666666667 16.0 L 79.0 17.0 L 78.33333333333333 18.0 L 77.66666666666667 19.0 L 77.33333333333333 20.0 L 76.66666666666667 21.0 L 76.33333333333333 22.0 L 76.0 23.0 L 76.0 24.0 L 76.33333333333333 25.0 L 77.0 25.666666666666668 L 78.0 26.333333333333332 L 79.0 27.0 L 80.0 28.0 L 80.66666666666667 29.0 L 81.0 30.0 L 81.0 31.0 L 80.66666666666667 32.0 L 80.0 33.0 L 79.0 34.0 L 78.0 35.0 L 77.0 35.666666666666664 L 76.0 36.0 L 75.0 35.666666666666664 L 74.0 35.333333333333336 L 73.0 34.666666666666664 L 72.0 34.333333333333336 L 71.0 34.0 L 70.0 34.333333333333336 L 69.33333333333333 35.0 L 69.0 36.0 L 69.0 37.0 L 69.33333333333333 37.666666666666664 L 70.0 38.333333333333336 L 71.0 38.666666666666664 L 72.0 39.333333333333336 L 73.0 40.0 L 74.0 41.0 L 74.66666666666667 42.0 L 75.0 43.0 L 75.0 44.0 L 74.66666666666667 45.0 L 74.0 46.0 L 73.0 47.0 L 72.0 48.0 L 71.0 48.666666666666664 L 70.0 49.0 L 69.0 49.0 L 68.0 48.666666666666664 L 67.0 48.333333333333336 L 66.0 47.666666666666664 L 65.0 47.333333333333336 L 64.0 47.0 L 63.0 47.333333333333336 L 62.333333333333336 48.0 L 62.0 49.0 L 62.0 50.0 L 62.333333333333336 50.666666666666664 L 63.0 51.0 L 64.0 51.333333333333336 L 65.0 51.666666666666664 L 66.0 52.333333333333336 L 67.0 53.0 L 68.0 54.0 L 68.66666666666667 55.0 L 69.0 56.0 L 69.0 57.0 L 69.0 58.0 L 68.66666666666667 59.0 L 68.0 60.0 L 67.0 61.0 L 66.0 61.666666666666664 L 65.0 62.0 L 64.0 62.0 L 63.0 62.0 L 62.0 62.0 L 61.0 61.666666666666664 L 60.0 61.0 L 59.0 60.0 L 58.0 59.333333333333336 L 57.0 59.0 L 56.333333333333336 59.333333333333336 L 55.666666666666664 60.0 L 55.333333333333336 61.0 L 54.666666666666664 62.0 L 54.333333333333336 63.0 L 54.0 64.0 L 54.333333333333336 64.66666666666667 L 55.0 65.0 L 56.0 65.0 L 57.0 65.0 L 58.0 65.0 L 59.0 65.33333333333333 L 60.0 66.0 L 61.0 67.0 L 62.0 68.0 L 62.666666666666664 69.0 L 63.0 70.0 L 63.0 71.0 L 62.666666666666664 72.0 L 62.0 73.0 L 61.0 74.0 L 60.0 75.0 L 59.0 75.66666666666667 L 58.0 76.0 L 57.0 76.0 L 56.0 75.66666666666667 L 55.0 75.33333333333333 L 54.0 74.66666666666667 L 53.0 74.0 L 52.0 73.0 L 51.0 72.33333333333333 L 50.0 72.0 L 49.333333333333336 72.33333333333333 L 48.666666666666664 73.0 L 48.333333333333336 74.0 L 47.666666666666664 75.0 L 47.333333333333336 76.0 L 46.666666666666664 77.0 L 46.0 77.33333333333333 L 45.333333333333336 77.0 L 45.0 76.0 L 45.0 75.0 L 45.333333333333336 74.0 L 45.666666666666664 73.0 L 46.0 72.0 L 46.0 71.0 L 46.0 70.0 L 46.333333333333336 69.0 L 46.666666666666664 68.0 L 47.0 67.0 L 47.333333333333336 66.0 L 47.666666666666664 65.0 L 48.0 64.0 L 48.333333333333336 63.0 L 48.666666666666664 62.0 L 49.333333333333336 61.0 L 49.666666666666664 60.0 L 50.333333333333336 59.0 L 50.666666666666664 58.0 L 51.333333333333336 57.0 L 51.666666666666664 56.0 L 52.333333333333336 55.0 L 52.666666666666664 54.0 L 53.0 53.0 L 53.0 52.0 L 53.0 51.0 L 53.0 50.0 L 53.0 49.0 L 53.0 48.0 L 52.666666666666664 47.0 L 52.0 46.0 L 51.333333333333336 45.0 L 50.666666666666664 44.0 L 50.0 43.333333333333336 L 49.0 42.666666666666664 L 48.0 42.0 L 47.0 41.333333333333336 L 46.0 41.0 L 45.0 40.666666666666664 L 44.0 40.333333333333336 L 43.0 39.666666666666664 L 42.0 39.333333333333336 L 41.0 39.0 L 40.0 39.0 L 39.0 38.666666666666664 L 38.0 38.333333333333336 L 37.0 38.0 L 36.0 38.0 L 35.0 38.0 L 34.0 38.0 L 33.0 38.0 L 32.0 38.0 L 31.0 38.0 L 30.0 38.0 L 29.0 38.0 L 28.0 38.0 L 27.0 38.0 L 26.0 38.0 L 25.0 38.0 L 24.0 38.0 L 23.0 38.0 L 22.0 38.0 L 21.0 38.0 L 20.0 38.0 L 19.0 38.333333333333336 L 18.0 38.666666666666664 L 17.0 39.0 L 16.0 39.0 L 15.0 39.333333333333336 L 14.0 39.666666666666664 L 13.0 40.0 L 12.0 40.333333333333336 L 11.0 40.666666666666664 L 10.0 41.333333333333336 L 9.0 42.0 L 8.0 42.666666666666664 L 7.0 43.333333333333336 L 6.0 44.0 L 5.333333333333333 45.0 L 4.666666666666667 46.0 L 4.333333333333333 47.0 L 4.0 48.0 L 4.0 49.0 L 4.0 50.0 L 4.0 51.0 L 4.0 52.0 L 4.0 53.0 L 4.0 54.0 L 4.333333333333333 55.0 L 5.0 56.0 L 6.0 57.0 L 6.666666666666667 58.0 L 7.333333333333333 59.0 L 8.0 60.0 L 8.666666666666666 61.0 L 9.333333333333334 62.0 L 9.666666666666666 63.0 L 10.333333333333334 64.0 L 10.666666666666666 65.0 L 11.333333333333334 66.0 L 11.666666666666666 67.0 L 12.0 68.0 L 12.0 69.0 L 12.0 70.0 L 12.0 71.0 L 11.666666666666666 72.0 L 11.333333333333334 73.0 L 11.0 74.0 L 11.0 75.0 L 11.0 76.0 L 11.0 77.0 L 11.0 78.0 L 11.0 79.0 L 11.0 80.0 L 11.0 81.0 L 11.0 82.0 L 11.0 83.0 L 11.0 84.0 L 11.0 85.0 L 10.666666666666666 86.0 L 10.333333333333334 87.0 L 10.0 88.0 L 10.0 89.0 L 10.0 90.0 L 10.0 91.0 L 10.333333333333334 92.0 L 10.666666666666666 93.0 L 11.0 94.0 L 11.0 95.0 L 11.0 96.0 L 11.0 97.0 L 11.0 98.0 L 11.0 99.0 L 11.0 100.0 L 11.0 101.0 L 11.333333333333334 102.0 L 11.666666666666666 103.0 L 12.0 104.0 L 12.0 105.0 L 12.333333333333334 106.0 L 12.666666666666666 107.0 L 13.333333333333334 108.0 L 13.666666666666666 109.0 L 14.333333333333334 110.0 L 14.666666666666666 111.0 L 15.333333333333334 112.0 L 16.0 113.0 L 17.0 114.0 L 18.0 115.0 L 19.0 115.66666666666667 L 20.0 116.33333333333333 L 21.0 117.0 L 22.0 117.66666666666667 L 23.0 118.33333333333333 L 24.0 118.66666666666667 L 25.0 119.0 L 25.5 119.0 Z" stroke="none" fill="rgb(255,202,40)" />
<path d="M 24.0 111.5 L 24.0 111.0 L 23.666666666666668 110.0 L 23.333333333333332 109.0 L 22.666666666666668 108.0 L 22.333333333333332 107.0 L 22.0 106.0 L 22.0 105.0 L 22.0 104.0 L 22.0 103.0 L 22.0 102.0 L 22.0 101.0 L 22.0 100.0 L 22.0 99.0 L 22.0 98.0 L 22.0 97.0 L 22.0 96.0 L 22.0 95.0 L 22.0 94.0 L 22.0 93.0 L 22.0 92.0 L 22.0 91.0 L 22.0 90.0 L 22.333333333333332 89.0 L 22.666666666666668 88.0 L 23.0 87.0 L 23.0 86.0 L 23.333333333333332 85.0 L 23.666666666666668 84.0 L 24.0 83.0 L 24.0 82.0 L 24.333333333333332 81.0 L 24.666666666666668 80.0 L 25.0 79.0 L 25.333333333333332 78.0 L 25.666666666666668 77.0 L 26.0 76.0 L 26.333333333333332 75.0 L 26.666666666666668 74.0 L 27.333333333333332 73.0 L 27.666666666666668 72.0 L 28.0 71.0 L 28.0 70.0 L 28.0 69.0 L 28.0 68.0 L 28.0 67.0 L 28.0 66.0 L 28.0 65.0 L 27.666666666666668 64.0 L 27.0 63.0 L 26.0 62.333333333333336 L 25.0 62.0 L 24.0 62.0 L 23.0 61.666666666666664 L 22.0 61.333333333333336 L 21.0 61.0 L 20.0 61.0 L 19.0 61.0 L 18.0 61.0 L 17.0 61.0 L 16.333333333333332 61.333333333333336 L 16.0 62.0 L 16.0 63.0 L 16.0 64.0 L 16.0 65.0 L 16.0 66.0 L 16.333333333333332 67.0 L 16.666666666666668 68.0 L 17.0 69.0 L 17.0 70.0 L 17.0 71.0 L 17.0 72.0 L 17.0 73.0 L 17.0 74.0 L 17.0 75.0 L 17.0 76.0 L 17.0 77.0 L 17.0 78.0 L 17.0 79.0 L 17.0 80.0 L 16.666666666666668 81.0 L 16.333333333333332 82.0 L 16.0 83.0 L 16.0 84.0 L 16.0 85.0 L 16.0 86.0 L 16.0 87.0 L 16.0 88.0 L 16.0 89.0 L 16.0 90.0 L 16.0 91.0 L 16.0 92.0 L 16.0 93.0 L 16.0 94.0 L 16.0 95.0 L 16.0 96.0 L 16.0 97.0 L 16.0 98.0 L 16.0 99.0 L 16.0 100.0 L 16.333333333333332 101.0 L 16.666666666666668 102.0 L 17.0 103.0 L 17.333333333333332 104.0 L 17.666666666666668 105.0 L 18.333333333333332 106.0 L 18.666666666666668 107.0 L 19.333333333333332 108.0 L 20.0 109.0 L 21.0 110.0 L 22.0 111.0 L 23.0 111.66666666666667 L 23.5 112.0 Z" stroke="none" fill="rgb(255,249,196)" />
<path d="M 23.5 55.0 L 24.0 55.333333333333336 L 25.0 55.666666666666664 L 26.0 56.0 L 27.0 56.0 L 28.0 56.0 L 29.0 56.0 L 30.0 56.0 L 31.0 56.0 L 32.0 56.0 L 33.0 56.0 L 34.0 56.0 L 35.0 56.0 L 36.0 56.0 L 37.0 55.666666666666664 L 38.0 55.333333333333336 L 39.0 55.0 L 40.0 54.666666666666664 L 41.0 54.333333333333336 L 42.0 53.666666666666664 L 43.0 53.0 L 44.0 52.0 L 44.666666666666664 51.0 L 45.0 50.0 L 45.0 49.0 L 45.0 48.0 L 44.666666666666664 47.0 L 44.0 46.0 L 43.0 45.0 L 42.0 44.333333333333336 L 41.0 43.666666666666664 L 40.0 43.333333333333336 L 39.0 43.0 L 38.0 42.666666666666664 L 37.0 42.333333333333336 L 36.0 42.0 L 35.0 42.0 L 34.0 42.0 L 33.0 42.0 L 32.0 42.0 L 31.0 42.0 L 30.0 42.0 L 29.0 42.0 L 28.0 42.0 L 27.0 42.0 L 26.0 42.0 L 25.0 42.0 L 24.0 42.0 L 23.0 42.333333333333336 L 22.0 42.666666666666664 L 21.0 43.0 L 20.0 43.0 L 19.0 43.0 L 18.0 43.333333333333336 L 17.0 43.666666666666664 L 16.0 44.333333333333336 L 15.0 44.666666666666664 L 14.0 45.333333333333336 L 13.0 46.0 L 12.333333333333334 47.0 L 12.0 48.0 L 12.0 49.0 L 12.0 50.0 L 12.333333333333334 51.0 L 13.0 52.0 L 14.0 52.666666666666664 L 15.0 53.333333333333336 L 16.0 53.666666666666664 L 17.0 54.0 L 18.0 54.333333333333336 L 19.0 54.666666666666664 L 20.0 55.0 L 21.0 55.0 L 22.0 55.0 L 22.5 55.0 Z" stroke="none" fill="rgb(221,115,65)" />
<path d="M 117.5 37.0 L 118.0 37.0 L 119.0 37.0 L 120.0 37.0 L 121.0 37.0 L 122.0 37.0 L 123.0 37.0 L 123.66666666666667 36.666666666666664 L 124.33333333333333 36.0 L 124.66666666666667 35.0 L 124.66666666666667 34.0 L 124.33333333333333 33.0 L 123.66666666666667 32.0 L 123.0 31.333333333333332 L 122.0 30.666666666666668 L 121.0 30.0 L 120.0 29.0 L 119.33333333333333 28.0 L 118.66666666666667 27.0 L 118.33333333333333 26.0 L 117.66666666666667 25.0 L 117.0 24.333333333333332 L 116.0 23.666666666666668 L 115.0 23.333333333333332 L 114.0 22.666666666666668 L 113.0 22.333333333333332 L 112.0 22.0 L 111.0 22.0 L 110.0 22.0 L 109.0 22.0 L 108.33333333333333 22.333333333333332 L 108.0 23.0 L 108.0 24.0 L 108.0 25.0 L 108.0 26.0 L 108.0 27.0 L 107.66666666666667 28.0 L 107.0 29.0 L 106.0 30.0 L 105.0 30.666666666666668 L 104.0 31.0 L 103.33333333333333 31.333333333333332 L 103.0 32.0 L 103.33333333333333 33.0 L 104.0 34.0 L 105.0 34.666666666666664 L 106.0 35.0 L 107.0 35.333333333333336 L 108.0 35.666666666666664 L 109.0 36.0 L 110.0 36.333333333333336 L 111.0 36.666666666666664 L 112.0 37.0 L 113.0 37.0 L 114.0 37.0 L 115.0 37.0 L 116.0 37.0 L 116.5 37.0 Z" stroke="none" fill="rgb(97,97,97)" />
<path d="M 59.5 76.0 L 60.0 75.66666666666667 L 61.0 75.0 L 62.0 74.0 L 62.666666666666664 73.0 L 63.0 72.0 L 63.0 71.0 L 63.0 70.0 L 63.0 69.0 L 62.666666666666664 68.0 L 62.0 67.0 L 61.0 66.0 L 60.0 65.33333333333333 L 59.0 65.0 L 58.0 65.0 L 57.0 65.0 L 56.0 65.0 L 55.0 65.0 L 54.0 65.0 L 53.0 65.33333333333333 L 52.0 66.0 L 51.333333333333336 67.0 L 51.0 68.0 L 51.0 69.0 L 51.0 70.0 L 51.0 71.0 L 51.0 72.0 L 51.333333333333336 73.0 L 52.0 74.0 L 53.0 74.66666666666667 L 54.0 75.33333333333333 L 55.0 75.66666666666667 L 56.0 76.0 L 57.0 76.0 L 58.0 76.0 L 58.5 76.0 Z" stroke="none" fill="rgb(251,140,0)" />
<path d="M 57.5 59.5 L 58.0 60.0 L 59.0 61.0 L 60.0 61.666666666666664 L 61.0 62.0 L 62.0 62.0 L 63.0 62.0 L 64.0 62.0 L 65.0 62.0 L 66.0 62.0 L 67.0 61.666666666666664 L 68.0 61.0 L 68.66666666666667 60.0 L 69.0 59.0 L 69.0 58.0 L 69.0 57.0 L 69.0 56.0 L 69.0 55.0 L 68.66666666666667 54.0 L 68.0 53.0 L 67.0 52.333333333333336 L 66.0 51.666666666666664 L 65.0 51.333333333333336 L 64.0 51.0 L 63.0 51.0 L 62.0 51.333333333333336 L 61.0 51.666666666666664 L 60.0 52.0 L 59.0 52.333333333333336 L 58.333333333333336 53.0 L 57.666666666666664 54.0 L 57.333333333333336 55.0 L 57.0 56.0 L 57.0 57.0 L 57.0 58.0 L 57.0 58.5 Z" stroke="none" fill="rgb(251,140,0)" />
<path d="M 65.5 48.0 L 66.0 48.333333333333336 L 67.0 48.666666666666664 L 68.0 49.0 L 69.0 49.0 L 70.0 49.0 L 71.0 49.0 L 72.0 48.666666666666664 L 73.0 48.0 L 74.0 47.0 L 74.66666666666667 46.0 L 75.0 45.0 L 75.0 44.0 L 75.0 43.0 L 75.0 42.0 L 74.66666666666667 41.0 L 74.0 40.0 L 73.0 39.333333333333336 L 72.0 38.666666666666664 L 71.0 38.333333333333336 L 70.0 38.0 L 69.0 38.0 L 68.0 38.0 L 67.0 38.333333333333336 L 66.0 38.666666666666664 L 65.33333333333333 39.333333333333336 L 64.66666666666667 40.0 L 64.33333333333333 41.0 L 64.0 42.0 L 64.0 43.0 L 64.0 44.0 L 64.0 45.0 L 64.0 46.0 L 64.33333333333333 47.0 L 64.5 47.5 Z" stroke="none" fill="rgb(251,140,0)" />
<path d="M 74.5 36.0 L 75.0 36.0 L 76.0 36.0 L 77.0 36.0 L 78.0 35.666666666666664 L 79.0 35.0 L 80.0 34.0 L 80.66666666666667 33.0 L 81.0 32.0 L 81.0 31.0 L 81.0 30.0 L 81.0 29.0 L 80.66666666666667 28.0 L 80.0 27.0 L 79.0 26.333333333333332 L 78.0 25.666666666666668 L 77.0 25.333333333333332 L 76.0 25.0 L 75.0 25.0 L 74.0 25.0 L 73.0 25.333333333333332 L 72.0 26.0 L 71.0 27.0 L 70.33333333333333 28.0 L 70.0 29.0 L 70.0 30.0 L 70.0 31.0 L 70.0 32.0 L 70.33333333333333 33.0 L 71.0 34.0 L 72.0 34.666666666666664 L 73.0 35.333333333333336 L 73.5 35.5 Z" stroke="none" fill="rgb(251,140,0)" />
<path d="M 62.0 51.5 L 62.0 51.0 L 61.666666666666664 50.333333333333336 L 61.333333333333336 50.333333333333336 L 61.0 51.0 L 61.333333333333336 51.666666666666664 L 61.5 52.0 Z" stroke="none" fill="rgb(0,0,0)" />
<path d="M 51.0 71.5 L 51.0 71.0 L 50.666666666666664 70.33333333333333 L 50.333333333333336 70.33333333333333 L 50.0 71.0 L 50.333333333333336 71.66666666666667 L 50.5 72.0 Z" stroke="none" fill="rgb(0,0,0)" />
<path d="M 75.5 25.0 L 75.66666666666667 24.666666666666668 L 75.66666666666667 24.333333333333332 L 75.33333333333333 24.333333333333332 L 75.0 24.5 Z" stroke="none" fill="rgb(0,0,0)" />
<path d="M 71.0 33.5 L 70.66666666666667 33.333333333333336 L 70.33333333333333 33.333333333333336 L 70.33333333333333 33.666666666666664 L 70.5 34.0 Z" stroke="none" fill="rgb(0,0,0)" />
<path d="M 68.5 38.0 L 68.66666666666667 37.666666666666664 L 68.66666666666667 37.333333333333336 L 68.33333333333333 37.333333333333336 L 68.0 37.5 Z" stroke="none" fill="rgb(0,0,0)" />
<path d="M 63.5 47.0 L 63.666666666666664 46.666666666666664 L 63.666666666666664 46.333333333333336 L 63.333333333333336 46.333333333333336 L 63.0 46.5 Z" stroke="none" fill="rgb(0,0,0)" />
<path d="M 44.5 81.0 L 44.666666666666664 80.66666666666667 L 44.666666666666664 80.33333333333333 L 44.333333333333336 80.33333333333333 L 44.0 80.5 Z" stroke="none" fill="rgb(255,255,255)" />
</svg>
