<?xml version="1.0" encoding="UTF-8" standalone="no"?>
<!DOCTYPE svg PUBLIC "-//W3C//DTD SVG 1.1//EN"
"http://www.w3.org/Graphics/SVG/1.1/DTD/svg11.dtd">
<svg width="128" height="128" xmlns="http://www.w3.org/2000/svg" version="1.1">
<path d="M 70.5 128.0 L 71.0 128.0 L 72.0 128.0 L 73.0 128.0 L 74.0 128.0 L 75.0 128.0 L 76.0 128.0 L 77.0 128.0 L 78.0 128.0 L 79.0 128.0 L 80.0 128.0 L 81.0 128.0 L 82.0 128.0 L 83.0 128.0 L 84.0 128.0 L 85.0 128.0 L 86.0 128.0 L 87.0 128.0 L 88.0 128.0 L 89.0 128.0 L 90.0 128.0 L 91.0 128.0 L 92.0 128.0 L 93.0 128.0 L 94.0 128.0 L 95.0 128.0 L 96.0 128.0 L 97.0 128.0 L 98.0 128.0 L 99.0 128.0 L 100.0 128.0 L 101.0 128.0 L 102.0 128.0 L 103.0 128.0 L 104.0 128.0 L 105.0 128.0 L 106.0 128.0 L 107.0 128.0 L 108.0 128.0 L 109.0 128.0 L 110.0 128.0 L 111.0 128.0 L 112.0 128.0 L 113.0 128.0 L 114.0 128.0 L 115.0 128.0 L 116.0 128.0 L 117.0 128.0 L 118.0 128.0 L 119.0 128.0 L 120.0 128.0 L 121.0 128.0 L 122.0 128.0 L 123.0 128.0 L 124.0 128.0 L 125.0 128.0 L 126.0 128.0 L 127.0 128.0 L 127.66666666666667 127.66666666666667 L 128.0 127.0 L 128.0 126.0 L 128.0 125.0 L 128.0 124.0 L 128.0 123.0 L 128.0 122.0 L 128.0 121.0 L 128.0 120.0 L 128.0 119.0 L 128.0 118.0 L 128.0 117.0 L 128.0 116.0 L 128.0 115.0 L 128.0 114.0 L 128.0 113.0 L 128.0 112.0 L 128.0 111.0 L 128.0 110.0 L 128.0 109.0 L 128.0 108.0 L 128.0 107.0 L 128.0 106.0 L 128.0 105.0 L 128.0 104.0 L 128.0 103.0 L 128.0 102.0 L 128.0 101.0 L 128.0 100.0 L 128.0 99.0 L 128.0 98.0 L 128.0 97.0 L 128.0 96.0 L 128.0 95.0 L 128.0 94.0 L 128.0 93.0 L 128.0 92.0 L 128.0 91.0 L 128.0 90.0 L 128.0 89.0 L 128.0 88.0 L 128.0 87.0 L 128.0 86.0 L 128.0 85.0 L 128.0 84.0 L 128.0 83.0 L 128.0 82.0 L 128.0 81.0 L 128.0 80.0 L 128.0 79.0 L 128.0 78.0 L 128.0 77.0 L 128.0 76.0 L 128.0 75.0 L 128.0 74.0 L 128.0 73.0 L 128.0 72.0 L 128.0 71.0 L 128.0 70.0 L 128.0 69.0 L 128.0 68.0 L 128.0 67.0 L 128.0 66.0 L 128.0 65.0 L 128.0 64.0 L 128.0 63.0 L 128.0 62.0 L 128.0 61.0 L 128.0 60.0 L 128.0 59.0 L 128.0 58.0 L 128.0 57.0 L 128.0 56.0 L 128.0 55.0 L 128.0 54.0 L 128.0 53.0 L 128.0 52.0 L 128.0 51.0 L 128.0 50.0 L 128.0 49.0 L 128.0 48.0 L 128.0 47.0 L 128.0 46.0 L 128.0 45.0 L 128.0 44.0 L 128.0 43.0 L 128.0 42.0 L 128.0 41.0 L 128.0 40.0 L 128.0 39.0 L 128.0 38.0 L 128.0 37.0 L 128.0 36.0 L 128.0 35.0 L 128.0 34.0 L 128.0 33.0 L 128.0 32.0 L 128.0 31.0 L 128.0 30.0 L 128.0 29.0 L 128.0 28.0 L 128.0 27.0 L 128.0 26.0 L 128.0 25.0 L 128.0 24.0 L 128.0 23.0 L 128.0 22.0 L 128.0 21.0 L 128.0 20.0 L 128.0 19.0 L 128.0 18.0 L 128.0 17.0 L 128.0 16.0 L 128.0 15.0 L 128.0 14.0 L 128.0 13.0 L 128.0 12.0 L 128.0 11.0 L 128.0 10.0 L 128.0 9.0 L 128.0 8.0 L 128.0 7.0 L 128.0 6.0 L 128.0 5.0 L 128.0 4.0 L 128.0 3.0 L 128.0 2.0 L 128.0 1.0 L 127.66666666666667 0.3333333333333333 L 127.0 0.0 L 126.0 0.0 L 125.0 0.0 L 124.0 0.0 L 123.0 0.0 L 122.0 0.0 L 121.0 0.0 L 120.0 0.0 L 119.0 0.0 L 118.0 0.0 L 117.0 0.0 L 116.0 0.0 L 115.0 0.0 L 114.0 0.0 L 113.0 0.0 L 112.0 0.0 L 111.0 0.0 L 110.0 0.0 L 109.0 0.0 L 108.0 0.0 L 107.0 0.0 L 106.0 0.0 L 105.0 0.0 L 104.0 0.0 L 103.0 0.0 L 102.0 0.0 L 101.0 0.0 L 100.0 0.0 L 99.0 0.0 L 98.0 0.0 L 97.0 0.0 L 96.0 0.0 L 95.0 0.0 L 94.0 0.0 L 93.0 0.0 L 92.0 0.0 L 91.0 0.0 L 90.0 0.0 L 89.0 0.0 L 88.0 0.0 L 87.0 0.0 L 86.0 0.0 L 85.0 0.0 L 84.0 0.0 L 83.0 0.0 L 82.0 0.0 L 81.0 0.0 L 80.0 0.0 L 79.0 0.0 L 78.0 0.0 L 77.0 0.0 L 76.0 0.0 L 75.0 0.0 L 74.0 0.0 L 73.0 0.0 L 72.0 0.0 L 71.0 0.0 L 70.0 0.0 L 69.0 0.0 L 68.0 0.0 L 67.0 0.0 L 66.0 0.0 L 65.0 0.0 L 64.0 0.0 L 63.0 0.0 L 62.0 0.0 L 61.0 0.0 L 60.0 0.0 L 59.0 0.0 L 58.0 0.0 L 57.0 0.0 L 56.0 0.0 L 55.0 0.0 L 54.0 0.0 L 53.0 0.0 L 52.0 0.0 L 51.0 0.0 L 50.0 0.0 L 49.0 0.0 L 48.0 0.0 L 47.0 0.0 L 46.0 0.0 L 45.0 0.0 L 44.0 0.0 L 43.0 0.0 L 42.0 0.0 L 41.0 0.0 L 40.0 0.0 L 39.0 0.0 L 38.0 0.0 L 37.0 0.0 L 36.0 0.0 L 35.0 0.0 L 34.0 0.0 L 33.0 0.0 L 32.0 0.0 L 31.0 0.0 L 30.0 0.0 L 29.0 0.0 L 28.0 0.0 L 27.0 0.0 L 26.0 0.0 L 25.0 0.0 L 24.0 0.0 L 23.0 0.0 L 22.0 0.0 L 21.0 0.0 L 20.0 0.0 L 19.0 0.0 L 18.0 0.0 L 17.0 0.0 L 16.0 0.0 L 15.0 0.0 L 14.0 0.0 L 13.0 0.0 L 12.0 0.0 L 11.0 0.0 L 10.0 0.0 L 9.0 0.0 L 8.0 0.0 L 7.0 0.0 L 6.0 0.0 L 5.0 0.0 L 4.0 0.0 L 3.0 0.0 L 2.0 0.0 L 1.0 0.0 L 0.3333333333333333 0.3333333333333333 L 0.0 1.0 L 0.0 2.0 L 0.0 3.0 L 0.0 4.0 L 0.0 5.0 L 0.0 6.0 L 0.0 7.0 L 0.0 8.0 L 0.0 9.0 L 0.0 10.0 L 0.0 11.0 L 0.0 12.0 L 0.0 13.0 L 0.0 14.0 L 0.0 15.0 L 0.0 16.0 L 0.0 17.0 L 0.0 18.0 L 0.0 19.0 L 0.0 20.0 L 0.0 21.0 L 0.0 22.0 L 0.0 23.0 L 0.0 24.0 L 0.0 25.0 L 0.0 26.0 L 0.0 27.0 L 0.0 28.0 L 0.0 29.0 L 0.0 30.0 L 0.0 31.0 L 0.0 32.0 L 0.0 33.0 L 0.0 34.0 L 0.0 35.0 L 0.0 36.0 L 0.0 37.0 L 0.0 38.0 L 0.0 39.0 L 0.0 40.0 L 0.0 41.0 L 0.0 42.0 L 0.0 43.0 L 0.0 44.0 L 0.0 45.0 L 0.0 46.0 L 0.0 47.0 L 0.0 48.0 L 0.0 49.0 L 0.0 50.0 L 0.0 51.0 L 0.0 52.0 L 0.0 53.0 L 0.0 54.0 L 0.0 55.0 L 0.0 56.0 L 0.0 57.0 L 0.0 58.0 L 0.0 59.0 L 0.0 60.0 L 0.0 61.0 L 0.0 62.0 L 0.0 63.0 L 0.0 64.0 L 0.0 65.0 L 0.0 66.0 L 0.0 67.0 L 0.0 68.0 L 0.0 69.0 L 0.0 70.0 L 0.0 71.0 L 0.0 72.0 L 0.0 73.0 L 0.0 74.0 L 0.0 75.0 L 0.0 76.0 L 0.0 77.0 L 0.0 78.0 L 0.0 79.0 L 0.0 80.0 L 0.0 81.0 L 0.0 82.0 L 0.0 83.0 L 0.0 84.0 L 0.0 85.0 L 0.0 86.0 L 0.0 87.0 L 0.0 88.0 L 0.0 89.0 L 0.0 90.0 L 0.0 91.0 L 0.0 92.0 L 0.0 93.0 L 0.0 94.0 L 0.0 95.0 L 0.0 96.0 L 0.0 97.0 L 0.0 98.0 L 0.0 99.0 L 0.0 100.0 L 0.0 101.0 L 0.0 102.0 L 0.0 103.0 L 0.0 104.0 L 0.0 105.0 L 0.0 106.0 L 0.0 107.0 L 0.0 108.0 L 0.0 109.0 L 0.0 110.0 L 0.0 111.0 L 0.0 112.0 L 0.0 113.0 L 0.0 114.0 L 0.0 115.0 L 0.0 116.0 L 0.0 117.0 L 0.0 118.0 L 0.0 119.0 L 0.0 120.0 L 0.0 121.0 L 0.0 122.0 L 0.0 123.0 L 0.0 124.0 L 0.0 125.0 L 0.0 126.0 L 0.0 127.0 L 0.3333333333333333 127.66666666666667 L 1.0 128.0 L 2.0 128.0 L 3.0 128.0 L 4.0 128.0 L 5.0 128.0 L 6.0 128.0 L 7.0 128.0 L 8.0 128.0 L 9.0 128.0 L 10.0 128.0 L 11.0 128.0 L 12.0 128.0 L 13.0 128.0 L 14.0 128.0 L 15.0 128.0 L 16.0 128.0 L 17.0 128.0 L 18.0 128.0 L 19.0 128.0 L 20.0 128.0 L 21.0 128.0 L 22.0 128.0 L 23.0 128.0 L 24.0 128.0 L 25.0 128.0 L 26.0 128.0 L 27.0 128.0 L 28.0 128.0 L 29.0 128.0 L 30.0 128.0 L 31.0 128.0 L 32.0 128.0 L 33.0 128.0 L 34.0 128.0 L 35.0 128.0 L 36.0 128.0 L 37.0 128.0 L 38.0 128.0 L 39.0 128.0 L 40.0 128.0 L 41.0 128.0 L 42.0 128.0 L 43.0 128.0 L 44.0 128.0 L 45.0 128.0 L 46.0 128.0 L 47.0 128.0 L 48.0 128.0 L 49.0 128.0 L 50.0 128.0 L 51.0 128.0 L 52.0 128.0 L 53.0 128.0 L 54.0 128.0 L 55.0 128.0 L 56.0 128.0 L 57.0 128.0 L 58.0 128.0 L 59.0 128.0 L 60.0 128.0 L 61.0 128.0 L 62.0 128.0 L 63.0 128.0 L 64.0 128.0 L 65.0 128.0 L 66.0 128.0 L 67.0 128.0 L 68.0 128.0 L 69.0 128.0 L 69.5 128.0 Z" stroke="none" fill="rgb(0,0,0)" />
<path d="M 78.5 109.5 L 79.0 109.0 L 80.0 108.0 L 81.0 107.0 L 82.0 106.0 L 83.0 105.0 L 84.0 104.0 L 85.0 103.0 L 86.0 102.0 L 87.0 101.0 L 88.0 100.0 L 89.0 99.0 L 90.0 98.0 L 91.0 97.0 L 92.0 96.0 L 93.0 95.0 L 94.0 94.0 L 95.0 93.0 L 96.0 92.0 L 97.0 91.0 L 98.0 90.0 L 99.0 89.33333333333333 L 100.0 88.66666666666667 L 101.0 88.0 L 102.0 87.0 L 103.0 86.0 L 104.0 85.0 L 105.0 84.33333333333333 L 106.0 83.66666666666667 L 107.0 83.0 L 108.0 82.0 L 109.0 81.0 L 110.0 80.33333333333333 L 111.0 79.66666666666667 L 112.0 79.0 L 113.0 78.0 L 114.0 77.33333333333333 L 115.0 76.66666666666667 L 116.0 76.0 L 117.0 75.0 L 118.0 74.33333333333333 L 118.66666666666667 73.66666666666667 L 119.0 73.0 L 119.0 72.0 L 119.0 71.0 L 119.0 70.0 L 119.0 69.0 L 118.66666666666667 68.0 L 118.33333333333333 67.0 L 117.66666666666667 66.0 L 117.0 65.33333333333333 L 116.0 65.33333333333333 L 115.0 66.0 L 114.0 67.0 L 113.0 68.0 L 112.0 69.0 L 111.0 70.0 L 110.0 71.0 L 109.0 72.0 L 108.0 73.0 L 107.0 74.0 L 106.0 75.0 L 105.0 76.0 L 104.0 77.0 L 103.0 78.0 L 102.0 79.0 L 101.0 80.0 L 100.0 81.0 L 99.0 82.0 L 98.0 83.0 L 97.0 84.0 L 96.0 84.66666666666667 L 95.0 85.33333333333333 L 94.0 86.0 L 93.0 87.0 L 92.0 88.0 L 91.0 89.0 L 90.0 90.0 L 89.0 91.0 L 88.0 92.0 L 87.0 93.0 L 86.0 94.0 L 85.0 95.0 L 84.0 96.0 L 83.0 97.0 L 82.0 98.0 L 81.0 99.0 L 80.0 100.0 L 79.0 100.66666666666667 L 78.0 101.33333333333333 L 77.0 102.0 L 76.0 103.0 L 75.0 103.66666666666667 L 74.0 104.0 L 73.0 104.0 L 72.0 103.66666666666667 L 71.66666666666667 103.0 L 71.66666666666667 102.0 L 72.33333333333333 101.0 L 73.0 100.0 L 74.0 99.0 L 75.0 98.0 L 76.0 97.0 L 77.0 96.0 L 78.0 95.0 L 79.0 94.0 L 80.0 93.0 L 81.0 92.33333333333333 L 82.0 91.66666666666667 L 83.0 91.0 L 84.0 90.0 L 85.0 89.0 L 86.0 88.0 L 87.0 87.0 L 88.0 86.0 L 89.0 85.0 L 90.0 84.0 L 91.0 83.0 L 92.0 82.0 L 93.0 81.0 L 94.0 80.0 L 95.0 79.0 L 96.0 78.0 L 97.0 77.0 L 98.0 76.0 L 99.0 75.0 L 100.0 74.0 L 101.0 73.0 L 102.0 72.0 L 103.0 71.0 L 104.0 70.0 L 105.0 69.0 L 106.0 68.0 L 107.0 67.0 L 108.0 66.0 L 109.0 65.0 L 110.0 64.0 L 111.0 63.0 L 112.0 62.0 L 113.0 61.0 L 113.66666666666667 60.0 L 114.0 59.0 L 114.0 58.0 L 113.66666666666667 57.333333333333336 L 113.0 56.666666666666664 L 112.0 56.333333333333336 L 111.0 56.0 L 110.0 55.666666666666664 L 109.0 55.333333333333336 L 108.0 55.0 L 107.0 55.0 L 106.0 55.333333333333336 L 105.33333333333333 56.0 L 104.66666666666667 57.0 L 104.0 58.0 L 103.0 59.0 L 102.0 60.0 L 101.0 61.0 L 100.0 62.0 L 99.33333333333333 63.0 L 98.66666666666667 64.0 L 98.0 65.0 L 97.0 66.0 L 96.0 67.0 L 95.0 68.0 L 94.0 69.0 L 93.0 70.0 L 92.0 71.0 L 91.0 72.0 L 90.0 73.0 L 89.0 74.0 L 88.0 75.0 L 87.0 76.0 L 86.0 77.0 L 85.0 78.0 L 84.0 79.0 L 83.0 80.0 L 82.0 81.0 L 81.0 82.0 L 80.0 83.0 L 79.0 84.0 L 78.0 85.0 L 77.0 86.0 L 76.0 87.0 L 75.0 88.0 L 74.0 89.0 L 73.0 90.0 L 72.0 91.0 L 71.0 92.0 L 70.0 92.66666666666667 L 69.0 93.33333333333333 L 68.0 94.0 L 67.0 94.66666666666667 L 66.0 95.33333333333333 L 65.0 95.66666666666667 L 64.0 96.0 L 63.0 96.0 L 62.0 95.66666666666667 L 61.666666666666664 95.0 L 62.0 94.0 L 63.0 93.0 L 64.0 92.0 L 65.0 91.0 L 66.0 90.0 L 67.0 89.0 L 68.0 88.0 L 69.0 87.0 L 70.0 86.0 L 71.0 85.33333333333333 L 72.0 84.66666666666667 L 73.0 84.0 L 74.0 83.0 L 75.0 82.0 L 76.0 81.0 L 77.0 80.0 L 78.0 79.0 L 79.0 78.0 L 80.0 77.0 L 81.0 76.0 L 82.0 75.0 L 83.0 74.0 L 84.0 73.0 L 84.66666666666667 72.0 L 85.33333333333333 71.0 L 86.0 70.0 L 87.0 69.0 L 88.0 68.0 L 89.0 67.0 L 90.0 66.0 L 91.0 65.0 L 92.0 64.0 L 93.0 63.0 L 94.0 62.0 L 95.0 61.0 L 96.0 60.0 L 97.0 59.0 L 98.0 58.0 L 99.0 57.0 L 100.0 56.0 L 101.0 55.0 L 101.66666666666667 54.0 L 102.0 53.0 L 101.66666666666667 52.0 L 101.0 51.0 L 100.0 50.333333333333336 L 99.0 50.0 L 98.0 50.0 L 97.0 50.333333333333336 L 96.0 50.666666666666664 L 95.0 51.333333333333336 L 94.0 51.666666666666664 L 93.0 52.333333333333336 L 92.0 53.0 L 91.33333333333333 54.0 L 90.66666666666667 55.0 L 90.0 56.0 L 89.0 57.0 L 88.0 58.0 L 87.0 59.0 L 86.0 60.0 L 85.0 61.0 L 84.0 62.0 L 83.0 63.0 L 82.0 64.0 L 81.0 65.0 L 80.0 66.0 L 79.0 67.0 L 78.0 68.0 L 77.0 69.0 L 76.33333333333333 70.0 L 75.66666666666667 71.0 L 75.0 72.0 L 74.0 73.0 L 73.0 74.0 L 72.0 75.0 L 71.0 76.0 L 70.0 76.66666666666667 L 69.0 77.33333333333333 L 68.0 78.0 L 67.0 79.0 L 66.0 79.66666666666667 L 65.0 80.33333333333333 L 64.0 81.0 L 63.0 82.0 L 62.0 83.0 L 61.0 84.0 L 60.0 85.0 L 59.0 85.66666666666667 L 58.0 86.33333333333333 L 57.0 87.0 L 56.0 88.0 L 55.0 89.0 L 54.0 89.66666666666667 L 53.0 90.33333333333333 L 52.0 91.0 L 51.0 92.0 L 50.0 93.0 L 49.0 93.66666666666667 L 48.0 94.33333333333333 L 47.0 95.0 L 46.333333333333336 96.0 L 46.0 97.0 L 46.0 98.0 L 46.0 99.0 L 46.0 100.0 L 46.0 101.0 L 46.0 102.0 L 46.0 103.0 L 46.0 104.0 L 46.0 105.0 L 46.0 106.0 L 46.333333333333336 107.0 L 46.666666666666664 108.0 L 47.333333333333336 109.0 L 47.666666666666664 110.0 L 48.333333333333336 111.0 L 49.0 112.0 L 50.0 113.0 L 51.0 114.0 L 52.0 115.0 L 53.0 116.0 L 54.0 117.0 L 55.0 118.0 L 56.0 119.0 L 57.0 119.66666666666667 L 58.0 120.33333333333333 L 59.0 121.0 L 60.0 121.66666666666667 L 61.0 122.33333333333333 L 62.0 123.0 L 63.0 123.66666666666667 L 64.0 124.0 L 65.0 124.33333333333333 L 66.0 124.66666666666667 L 67.0 125.0 L 68.0 125.0 L 69.0 124.66666666666667 L 70.0 124.33333333333333 L 71.0 124.0 L 72.0 123.66666666666667 L 73.0 123.33333333333333 L 73.66666666666667 122.66666666666667 L 74.0 122.0 L 74.0 121.0 L 74.0 120.0 L 74.0 119.0 L 74.33333333333333 118.0 L 74.66666666666667 117.0 L 75.0 116.0 L 75.0 115.0 L 75.33333333333333 114.0 L 75.66666666666667 113.0 L 76.33333333333333 112.0 L 77.0 111.0 L 77.5 110.5 Z" stroke="none" fill="rgb(255,237,196)" />
<path d="M 6.5 63.5 L 7.0 63.666666666666664 L 8.0 64.0 L 9.0 64.0 L 10.0 64.0 L 11.0 64.0 L 12.0 63.666666666666664 L 13.0 63.333333333333336 L 14.0 62.666666666666664 L 15.0 62.0 L 16.0 61.333333333333336 L 17.0 60.666666666666664 L 18.0 60.0 L 19.0 59.333333333333336 L 20.0 58.666666666666664 L 21.0 58.0 L 22.0 57.0 L 23.0 56.333333333333336 L 24.0 55.666666666666664 L 25.0 55.0 L 26.0 54.0 L 27.0 53.0 L 28.0 52.0 L 29.0 51.0 L 30.0 50.0 L 31.0 49.333333333333336 L 32.0 48.666666666666664 L 33.0 48.0 L 34.0 47.0 L 35.0 46.0 L 36.0 45.0 L 37.0 44.333333333333336 L 37.666666666666664 43.666666666666664 L 38.0 43.0 L 38.0 42.0 L 38.0 41.0 L 37.666666666666664 40.333333333333336 L 37.0 40.0 L 36.0 40.0 L 35.0 40.0 L 34.0 40.0 L 33.0 40.0 L 32.0 40.0 L 31.0 40.0 L 30.0 40.0 L 29.0 40.0 L 28.0 40.0 L 27.0 40.0 L 26.333333333333332 40.333333333333336 L 26.0 41.0 L 26.0 42.0 L 26.0 43.0 L 26.0 44.0 L 26.0 45.0 L 26.0 46.0 L 25.666666666666668 47.0 L 25.0 48.0 L 24.0 48.333333333333336 L 23.0 48.0 L 22.333333333333332 47.0 L 22.0 46.0 L 22.0 45.0 L 22.0 44.0 L 22.0 43.0 L 22.0 42.0 L 22.0 41.0 L 21.666666666666668 40.333333333333336 L 21.0 40.0 L 20.0 40.0 L 19.0 40.0 L 18.0 40.0 L 17.0 40.0 L 16.0 40.0 L 15.0 40.0 L 14.0 40.0 L 13.333333333333334 40.333333333333336 L 13.0 41.0 L 13.0 42.0 L 13.0 43.0 L 13.0 44.0 L 13.0 45.0 L 13.0 46.0 L 13.0 47.0 L 13.333333333333334 48.0 L 14.0 48.666666666666664 L 15.0 49.0 L 16.0 49.333333333333336 L 16.333333333333332 50.0 L 16.0 51.0 L 15.0 51.666666666666664 L 14.0 52.0 L 13.333333333333334 52.333333333333336 L 13.0 53.0 L 13.0 54.0 L 13.0 55.0 L 12.666666666666666 56.0 L 12.0 57.0 L 11.0 57.333333333333336 L 10.333333333333334 57.0 L 10.0 56.0 L 10.0 55.0 L 10.0 54.0 L 10.0 53.0 L 10.0 52.0 L 10.0 51.0 L 10.0 50.0 L 10.0 49.0 L 10.0 48.0 L 10.0 47.0 L 10.0 46.0 L 10.0 45.0 L 10.0 44.0 L 10.0 43.0 L 10.0 42.0 L 10.0 41.0 L 10.0 40.0 L 10.0 39.0 L 10.0 38.0 L 10.0 37.0 L 10.0 36.0 L 10.0 35.0 L 10.0 34.0 L 10.0 33.0 L 10.0 32.0 L 10.0 31.0 L 10.0 30.0 L 10.0 29.0 L 10.0 28.0 L 10.0 27.0 L 10.0 26.0 L 10.0 25.0 L 10.0 24.0 L 10.0 23.0 L 10.0 22.0 L 10.0 21.0 L 10.0 20.0 L 10.0 19.0 L 10.0 18.0 L 10.0 17.0 L 10.0 16.0 L 10.0 15.0 L 10.0 14.0 L 10.0 13.0 L 10.0 12.0 L 10.0 11.0 L 10.333333333333334 10.0 L 11.0 9.333333333333334 L 12.0 9.0 L 13.0 9.0 L 14.0 9.0 L 15.0 8.666666666666666 L 16.0 8.333333333333334 L 17.0 8.0 L 18.0 8.0 L 19.0 8.0 L 20.0 8.0 L 21.0 8.0 L 22.0 8.0 L 23.0 8.0 L 24.0 8.0 L 25.0 8.0 L 26.0 8.0 L 27.0 8.0 L 28.0 8.0 L 29.0 8.0 L 30.0 8.0 L 31.0 8.0 L 32.0 8.0 L 33.0 8.0 L 34.0 8.0 L 35.0 8.0 L 36.0 8.0 L 37.0 8.0 L 38.0 8.333333333333334 L 39.0 8.666666666666666 L 40.0 9.0 L 41.0 9.0 L 42.0 9.0 L 43.0 9.0 L 44.0 9.0 L 45.0 9.0 L 46.0 9.0 L 47.0 9.333333333333334 L 48.0 9.666666666666666 L 49.0 10.0 L 50.0 10.0 L 51.0 10.0 L 52.0 10.0 L 53.0 10.0 L 54.0 10.0 L 55.0 10.333333333333334 L 56.0 10.666666666666666 L 57.0 11.0 L 58.0 11.0 L 59.0 11.333333333333334 L 60.0 12.0 L 60.333333333333336 13.0 L 60.0 13.666666666666666 L 59.0 14.0 L 58.0 14.0 L 57.0 14.0 L 56.0 14.0 L 55.0 14.0 L 54.0 14.0 L 53.0 14.0 L 52.0 14.333333333333334 L 51.333333333333336 15.0 L 51.0 16.0 L 50.666666666666664 17.0 L 50.0 17.666666666666668 L 49.0 17.666666666666668 L 48.0 17.0 L 47.666666666666664 16.0 L 47.666666666666664 15.0 L 47.666666666666664 14.0 L 47.0 13.333333333333334 L 46.0 13.0 L 45.0 13.0 L 44.0 13.0 L 43.0 13.0 L 42.0 13.0 L 41.0 13.0 L 40.333333333333336 13.333333333333334 L 40.0 14.0 L 40.0 15.0 L 40.0 16.0 L 40.0 17.0 L 40.0 18.0 L 40.0 19.0 L 40.0 20.0 L 40.0 21.0 L 40.333333333333336 21.666666666666668 L 41.0 22.0 L 42.0 22.0 L 43.0 22.0 L 44.0 22.0 L 45.0 22.0 L 46.0 22.0 L 47.0 22.0 L 48.0 22.0 L 49.0 22.333333333333332 L 50.0 23.0 L 50.333333333333336 24.0 L 50.0 25.0 L 49.0 25.666666666666668 L 48.0 26.0 L 47.0 26.0 L 46.0 26.0 L 45.0 26.0 L 44.0 26.0 L 43.0 26.0 L 42.0 26.0 L 41.0 26.0 L 40.333333333333336 26.333333333333332 L 40.0 27.0 L 40.0 28.0 L 40.0 29.0 L 40.0 30.0 L 40.0 31.0 L 40.0 32.0 L 40.0 33.0 L 40.0 34.0 L 40.0 35.0 L 40.0 36.0 L 40.0 37.0 L 40.0 38.0 L 40.333333333333336 38.666666666666664 L 41.0 39.0 L 42.0 38.666666666666664 L 43.0 38.333333333333336 L 44.0 38.0 L 45.0 37.666666666666664 L 45.666666666666664 37.0 L 46.333333333333336 36.0 L 47.0 35.0 L 48.0 34.0 L 49.0 33.0 L 50.0 32.0 L 51.0 31.0 L 52.0 30.0 L 53.0 29.0 L 54.0 28.0 L 55.0 27.0 L 56.0 26.0 L 57.0 25.0 L 58.0 24.0 L 59.0 23.0 L 60.0 22.0 L 61.0 21.0 L 62.0 20.0 L 62.666666666666664 19.0 L 63.333333333333336 18.0 L 64.0 17.0 L 64.66666666666667 16.0 L 65.0 15.0 L 65.0 14.0 L 65.0 13.0 L 65.0 12.0 L 65.0 11.0 L 64.66666666666667 10.0 L 64.0 9.333333333333334 L 63.0 8.666666666666666 L 62.0 8.333333333333334 L 61.0 8.0 L 60.0 7.666666666666667 L 59.0 7.333333333333333 L 58.0 7.0 L 57.0 7.0 L 56.0 6.666666666666667 L 55.0 6.333333333333333 L 54.0 6.0 L 53.0 6.0 L 52.0 6.0 L 51.0 6.0 L 50.0 5.666666666666667 L 49.0 5.333333333333333 L 48.0 5.0 L 47.0 5.0 L 46.0 5.0 L 45.0 5.0 L 44.0 5.0 L 43.0 4.666666666666667 L 42.0 4.333333333333333 L 41.0 4.0 L 40.0 4.0 L 39.0 4.0 L 38.0 4.0 L 37.0 4.0 L 36.0 4.0 L 35.0 4.0 L 34.0 4.0 L 33.0 4.0 L 32.0 4.0 L 31.0 3.6666666666666665 L 30.0 3.3333333333333335 L 29.0 3.0 L 28.0 3.0 L 27.0 3.0 L 26.0 3.0 L 25.0 3.0 L 24.0 3.0 L 23.0 3.0 L 22.0 3.0 L 21.0 3.0 L 20.0 3.0 L 19.0 3.0 L 18.0 3.0 L 17.0 3.0 L 16.0 3.0 L 15.0 3.0 L 14.0 3.0 L 13.0 3.0 L 12.0 3.3333333333333335 L 11.0 3.6666666666666665 L 10.0 4.0 L 9.0 4.0 L 8.0 4.333333333333333 L 7.0 5.0 L 6.333333333333333 6.0 L 6.0 7.0 L 5.666666666666667 8.0 L 5.333333333333333 9.0 L 5.0 10.0 L 5.0 11.0 L 5.0 12.0 L 5.0 13.0 L 5.0 14.0 L 5.0 15.0 L 5.0 16.0 L 5.0 17.0 L 5.0 18.0 L 5.0 19.0 L 5.0 20.0 L 5.0 21.0 L 5.0 22.0 L 5.0 23.0 L 5.0 24.0 L 5.0 25.0 L 5.0 26.0 L 5.0 27.0 L 5.0 28.0 L 4.666666666666667 29.0 L 4.333333333333333 30.0 L 4.0 31.0 L 4.0 32.0 L 4.0 33.0 L 4.0 34.0 L 4.0 35.0 L 4.0 36.0 L 4.0 37.0 L 4.0 38.0 L 4.0 39.0 L 4.0 40.0 L 4.0 41.0 L 4.0 42.0 L 4.0 43.0 L 4.0 44.0 L 4.0 45.0 L 4.0 46.0 L 4.0 47.0 L 4.0 48.0 L 4.0 49.0 L 4.0 50.0 L 4.0 51.0 L 4.0 52.0 L 4.0 53.0 L 4.0 54.0 L 4.0 55.0 L 4.333333333333333 56.0 L 4.666666666666667 57.0 L 5.0 58.0 L 5.0 59.0 L 5.0 60.0 L 5.333333333333333 61.0 L 5.666666666666667 62.0 L 6.0 62.5 Z" stroke="none" fill="rgb(147,118,114)" />
<path d="M 53.5 74.0 L 54.0 74.0 L 55.0 74.0 L 56.0 74.0 L 57.0 74.0 L 58.0 74.0 L 59.0 74.0 L 60.0 74.0 L 61.0 74.0 L 62.0 74.0 L 63.0 74.0 L 64.0 73.66666666666667 L 65.0 73.33333333333333 L 66.0 73.0 L 67.0 73.0 L 68.0 72.66666666666667 L 69.0 72.33333333333333 L 70.0 71.66666666666667 L 71.0 71.0 L 72.0 70.0 L 72.66666666666667 69.0 L 72.66666666666667 68.0 L 72.66666666666667 67.0 L 73.0 66.0 L 73.66666666666667 65.0 L 74.33333333333333 64.0 L 75.0 63.0 L 76.0 62.333333333333336 L 76.66666666666667 61.666666666666664 L 77.0 61.0 L 77.0 60.0 L 77.0 59.0 L 77.0 58.0 L 77.0 57.0 L 77.0 56.0 L 77.0 55.0 L 77.0 54.0 L 77.0 53.0 L 77.0 52.0 L 77.0 51.0 L 77.0 50.0 L 77.0 49.0 L 76.66666666666667 48.0 L 76.33333333333333 47.0 L 76.0 46.0 L 75.66666666666667 45.0 L 75.0 44.0 L 74.33333333333333 43.0 L 73.66666666666667 42.0 L 73.0 41.0 L 72.0 40.0 L 71.0 39.0 L 70.0 38.333333333333336 L 69.0 37.666666666666664 L 68.0 37.333333333333336 L 67.0 36.666666666666664 L 66.0 36.333333333333336 L 65.0 35.666666666666664 L 64.0 35.333333333333336 L 63.0 35.0 L 62.0 35.0 L 61.0 34.666666666666664 L 60.0 34.333333333333336 L 59.0 34.0 L 58.0 34.0 L 57.0 34.0 L 56.0 34.0 L 55.0 34.0 L 54.0 34.0 L 53.0 34.333333333333336 L 52.0 34.666666666666664 L 51.0 35.0 L 50.0 35.0 L 49.0 35.333333333333336 L 48.0 35.666666666666664 L 47.0 36.0 L 46.0 36.333333333333336 L 45.0 37.0 L 44.0 38.0 L 43.0 39.0 L 42.0 40.0 L 41.0 41.0 L 40.0 42.0 L 39.0 43.0 L 38.0 44.0 L 37.333333333333336 45.0 L 36.666666666666664 46.0 L 36.333333333333336 47.0 L 35.666666666666664 48.0 L 35.333333333333336 49.0 L 35.0 50.0 L 35.0 51.0 L 35.0 52.0 L 35.0 53.0 L 35.0 54.0 L 35.0 55.0 L 35.0 56.0 L 35.0 57.0 L 35.0 58.0 L 35.0 59.0 L 35.333333333333336 60.0 L 35.666666666666664 61.0 L 36.333333333333336 62.0 L 36.666666666666664 63.0 L 37.333333333333336 64.0 L 38.0 65.0 L 39.0 66.0 L 40.0 67.0 L 41.0 68.0 L 42.0 69.0 L 43.0 70.0 L 44.0 71.0 L 45.0 71.66666666666667 L 46.0 72.33333333333333 L 47.0 72.66666666666667 L 48.0 73.0 L 49.0 73.33333333333333 L 50.0 73.66666666666667 L 51.0 74.0 L 52.0 74.0 L 52.5 74.0 Z" stroke="none" fill="rgb(247,200,118)" />
<path d="M 47.5 26.0 L 48.0 26.0 L 49.0 26.0 L 50.0 25.666666666666668 L 50.666666666666664 25.0 L 51.0 24.0 L 50.666666666666664 23.0 L 50.0 22.333333333333332 L 49.0 22.0 L 48.0 22.0 L 47.0 22.0 L 46.0 22.0 L 45.0 22.0 L 44.0 22.0 L 43.0 22.0 L 42.0 22.0 L 41.0 21.666666666666668 L 40.333333333333336 21.0 L 40.0 20.0 L 40.0 19.0 L 40.0 18.0 L 40.0 17.0 L 40.0 16.0 L 40.0 15.0 L 40.333333333333336 14.0 L 41.0 13.333333333333334 L 42.0 13.0 L 43.0 13.0 L 44.0 13.0 L 45.0 13.0 L 46.0 13.333333333333334 L 47.0 13.666666666666666 L 48.0 14.0 L 49.0 14.333333333333334 L 50.0 14.666666666666666 L 51.0 15.0 L 52.0 14.666666666666666 L 53.0 14.333333333333334 L 54.0 14.0 L 55.0 14.0 L 56.0 14.0 L 57.0 14.0 L 58.0 14.0 L 59.0 14.0 L 60.0 14.0 L 60.666666666666664 13.666666666666666 L 61.0 13.0 L 60.666666666666664 12.0 L 60.0 11.333333333333334 L 59.0 11.0 L 58.0 11.0 L 57.0 10.666666666666666 L 56.0 10.333333333333334 L 55.0 10.0 L 54.0 10.0 L 53.0 10.0 L 52.0 10.0 L 51.0 10.0 L 50.0 10.0 L 49.0 9.666666666666666 L 48.0 9.333333333333334 L 47.0 9.0 L 46.0 9.0 L 45.0 9.0 L 44.0 9.0 L 43.0 9.0 L 42.0 9.0 L 41.0 9.0 L 40.0 8.666666666666666 L 39.0 8.333333333333334 L 38.0 8.0 L 37.0 8.0 L 36.0 8.0 L 35.0 8.0 L 34.0 8.0 L 33.0 8.0 L 32.0 8.0 L 31.0 8.0 L 30.0 8.0 L 29.0 8.0 L 28.0 8.0 L 27.0 8.0 L 26.0 8.0 L 25.0 8.0 L 24.0 8.0 L 23.0 8.0 L 22.0 8.0 L 21.0 8.0 L 20.0 8.0 L 19.0 8.0 L 18.0 8.0 L 17.0 8.0 L 16.0 8.0 L 15.0 8.333333333333334 L 14.0 8.666666666666666 L 13.0 9.0 L 12.0 9.0 L 11.0 9.0 L 10.333333333333334 9.333333333333334 L 10.0 10.0 L 10.0 11.0 L 10.0 12.0 L 10.0 13.0 L 10.0 14.0 L 10.0 15.0 L 10.0 16.0 L 10.0 17.0 L 10.0 18.0 L 10.0 19.0 L 10.0 20.0 L 10.0 21.0 L 10.0 22.0 L 10.0 23.0 L 10.0 24.0 L 10.0 25.0 L 10.0 26.0 L 10.0 27.0 L 10.0 28.0 L 10.0 29.0 L 10.0 30.0 L 10.0 31.0 L 10.0 32.0 L 10.0 33.0 L 10.0 34.0 L 10.0 35.0 L 10.0 36.0 L 10.0 37.0 L 10.0 38.0 L 10.0 39.0 L 10.0 40.0 L 10.0 41.0 L 10.0 42.0 L 10.0 43.0 L 10.0 44.0 L 10.0 45.0 L 10.0 46.0 L 10.0 47.0 L 10.0 48.0 L 10.0 49.0 L 10.0 50.0 L 10.0 51.0 L 10.0 52.0 L 10.0 53.0 L 10.0 54.0 L 10.0 55.0 L 10.0 56.0 L 10.0 57.0 L 10.333333333333334 57.666666666666664 L 11.0 58.0 L 12.0 57.666666666666664 L 12.666666666666666 57.0 L 13.0 56.0 L 13.0 55.0 L 13.0 54.0 L 13.333333333333334 53.0 L 13.666666666666666 52.0 L 14.0 51.0 L 14.0 50.0 L 14.0 49.0 L 13.666666666666666 48.0 L 13.333333333333334 47.0 L 13.0 46.0 L 13.0 45.0 L 13.0 44.0 L 13.0 43.0 L 13.0 42.0 L 13.333333333333334 41.0 L 14.0 40.333333333333336 L 15.0 40.0 L 16.0 40.0 L 17.0 40.0 L 18.0 40.0 L 19.0 40.0 L 20.0 40.0 L 21.0 40.333333333333336 L 21.666666666666668 41.0 L 22.0 42.0 L 22.0 43.0 L 22.0 44.0 L 22.0 45.0 L 22.0 46.0 L 22.0 47.0 L 22.333333333333332 48.0 L 23.0 48.666666666666664 L 24.0 49.0 L 25.0 48.666666666666664 L 25.666666666666668 48.0 L 26.0 47.0 L 26.0 46.0 L 26.0 45.0 L 26.0 44.0 L 26.0 43.0 L 26.0 42.0 L 26.333333333333332 41.0 L 27.0 40.333333333333336 L 28.0 40.0 L 29.0 40.0 L 30.0 40.0 L 31.0 40.0 L 32.0 40.0 L 33.0 40.0 L 34.0 40.0 L 35.0 40.0 L 36.0 40.0 L 37.0 40.333333333333336 L 38.0 40.666666666666664 L 39.0 40.666666666666664 L 39.666666666666664 40.0 L 40.0 39.0 L 40.0 38.0 L 40.0 37.0 L 40.0 36.0 L 40.0 35.0 L 40.0 34.0 L 40.0 33.0 L 40.0 32.0 L 40.0 31.0 L 40.0 30.0 L 40.0 29.0 L 40.0 28.0 L 40.333333333333336 27.0 L 41.0 26.333333333333332 L 42.0 26.0 L 43.0 26.0 L 44.0 26.0 L 45.0 26.0 L 46.0 26.0 L 46.5 26.0 Z" stroke="none" fill="rgb(123,94,90)" />
<path d="M 103.5 78.5 L 104.0 78.0 L 105.0 77.0 L 106.0 76.0 L 107.0 75.0 L 108.0 74.0 L 109.0 73.0 L 110.0 72.0 L 111.0 71.0 L 112.0 70.0 L 113.0 69.0 L 114.0 68.0 L 115.0 67.0 L 115.66666666666667 66.0 L 116.0 65.0 L 116.0 64.0 L 116.0 63.0 L 116.0 62.0 L 116.0 61.0 L 115.66666666666667 60.333333333333336 L 115.0 60.0 L 114.0 60.0 L 113.0 60.333333333333336 L 112.0 61.0 L 111.0 62.0 L 110.0 63.0 L 109.0 64.0 L 108.0 65.0 L 107.0 66.0 L 106.0 67.0 L 105.0 68.0 L 104.0 69.0 L 103.0 70.0 L 102.0 71.0 L 101.0 72.0 L 100.0 73.0 L 99.0 74.0 L 98.0 75.0 L 97.0 76.0 L 96.0 77.0 L 95.0 78.0 L 94.0 79.0 L 93.0 80.0 L 92.0 81.0 L 91.0 82.0 L 90.0 83.0 L 89.0 84.0 L 88.0 85.0 L 87.0 86.0 L 86.0 87.0 L 85.0 88.0 L 84.0 89.0 L 83.0 90.0 L 82.0 91.0 L 81.0 91.66666666666667 L 80.0 92.33333333333333 L 79.0 93.0 L 78.0 94.0 L 77.0 95.0 L 76.0 96.0 L 75.0 97.0 L 74.0 98.0 L 73.0 99.0 L 72.33333333333333 100.0 L 71.66666666666667 101.0 L 71.33333333333333 102.0 L 71.0 103.0 L 71.33333333333333 103.66666666666667 L 72.0 104.0 L 73.0 104.0 L 74.0 104.0 L 75.0 104.0 L 76.0 103.66666666666667 L 77.0 103.0 L 78.0 102.0 L 79.0 101.33333333333333 L 80.0 100.66666666666667 L 81.0 100.0 L 82.0 99.0 L 83.0 98.0 L 84.0 97.0 L 85.0 96.0 L 86.0 95.0 L 87.0 94.0 L 88.0 93.0 L 89.0 92.0 L 90.0 91.0 L 91.0 90.0 L 92.0 89.0 L 93.0 88.0 L 94.0 87.0 L 95.0 86.0 L 96.0 85.33333333333333 L 97.0 84.66666666666667 L 98.0 84.0 L 99.0 83.0 L 100.0 82.0 L 101.0 81.0 L 102.0 80.0 L 102.5 79.5 Z" stroke="none" fill="rgb(250,201,109)" />
<path d="M 106.5 114.5 L 107.0 115.0 L 108.0 116.0 L 109.0 117.0 L 110.0 118.0 L 111.0 119.0 L 112.0 120.0 L 113.0 121.0 L 114.0 122.0 L 115.0 123.0 L 116.0 123.66666666666667 L 117.0 124.33333333333333 L 118.0 124.66666666666667 L 119.0 125.0 L 120.0 125.0 L 121.0 125.0 L 122.0 125.0 L 123.0 124.66666666666667 L 123.66666666666667 124.0 L 124.0 123.0 L 124.0 122.0 L 124.0 121.0 L 124.0 120.0 L 123.66666666666667 119.0 L 123.0 118.0 L 122.0 117.0 L 121.0 116.0 L 120.0 115.0 L 119.0 114.0 L 118.0 113.0 L 117.33333333333333 112.0 L 116.66666666666667 111.0 L 116.0 110.0 L 115.0 109.0 L 114.0 108.0 L 113.0 107.0 L 112.0 106.0 L 111.0 105.0 L 110.0 104.0 L 109.0 103.0 L 108.0 102.0 L 107.0 101.0 L 106.0 100.0 L 105.0 99.0 L 104.0 98.0 L 103.0 97.0 L 102.0 96.0 L 101.0 95.33333333333333 L 100.0 95.0 L 99.0 94.66666666666667 L 98.0 94.33333333333333 L 97.0 94.33333333333333 L 96.0 95.0 L 95.0 96.0 L 94.0 97.0 L 93.33333333333333 98.0 L 93.33333333333333 99.0 L 93.66666666666667 100.0 L 94.0 101.0 L 94.33333333333333 102.0 L 95.0 103.0 L 96.0 104.0 L 97.0 105.0 L 98.0 106.0 L 99.0 107.0 L 100.0 108.0 L 101.0 109.0 L 102.0 110.0 L 103.0 111.0 L 104.0 112.0 L 105.0 113.0 L 105.5 113.5 Z" stroke="none" fill="rgb(224,194,144)" />
<path d="M 78.5 85.5 L 79.0 85.0 L 80.0 84.0 L 81.0 83.0 L 82.0 82.0 L 83.0 81.0 L 84.0 80.0 L 85.0 79.0 L 86.0 78.0 L 87.0 77.0 L 88.0 76.0 L 89.0 75.0 L 90.0 74.0 L 91.0 73.0 L 92.0 72.0 L 93.0 71.0 L 94.0 70.0 L 95.0 69.0 L 96.0 68.0 L 97.0 67.0 L 98.0 66.0 L 98.66666666666667 65.0 L 99.33333333333333 64.0 L 100.0 63.0 L 101.0 62.0 L 102.0 61.0 L 103.0 60.0 L 104.0 59.0 L 104.66666666666667 58.0 L 105.33333333333333 57.0 L 105.66666666666667 56.0 L 106.0 55.0 L 106.0 54.0 L 105.66666666666667 53.0 L 105.0 52.333333333333336 L 104.0 52.333333333333336 L 103.0 52.666666666666664 L 102.0 53.333333333333336 L 101.0 54.0 L 100.0 55.0 L 99.0 56.0 L 98.0 57.0 L 97.0 58.0 L 96.0 59.0 L 95.0 60.0 L 94.0 61.0 L 93.0 62.0 L 92.0 63.0 L 91.0 64.0 L 90.0 65.0 L 89.0 66.0 L 88.0 67.0 L 87.0 68.0 L 86.0 69.0 L 85.33333333333333 70.0 L 84.66666666666667 71.0 L 84.0 72.0 L 83.0 73.0 L 82.0 74.0 L 81.0 75.0 L 80.0 76.0 L 79.0 77.0 L 78.0 78.0 L 77.0 79.0 L 76.0 80.0 L 75.0 81.0 L 74.0 82.0 L 73.0 83.0 L 72.0 84.0 L 71.0 84.66666666666667 L 70.0 85.33333333333333 L 69.0 86.0 L 68.0 87.0 L 67.0 88.0 L 66.0 89.0 L 65.0 90.0 L 64.0 91.0 L 63.0 92.0 L 62.0 93.0 L 61.333333333333336 94.0 L 61.0 95.0 L 61.333333333333336 95.66666666666667 L 62.0 96.0 L 63.0 96.0 L 64.0 96.0 L 65.0 96.0 L 66.0 95.66666666666667 L 67.0 95.33333333333333 L 68.0 94.66666666666667 L 69.0 94.0 L 70.0 93.33333333333333 L 71.0 92.66666666666667 L 72.0 92.0 L 73.0 91.0 L 74.0 90.0 L 75.0 89.0 L 76.0 88.0 L 77.0 87.0 L 77.5 86.5 Z" stroke="none" fill="rgb(250,201,109)" />
<path d="M 81.5 114.5 L 81.66666666666667 114.0 L 82.33333333333333 113.0 L 83.0 112.0 L 84.0 111.0 L 85.0 110.0 L 86.0 109.0 L 87.0 108.0 L 88.0 107.0 L 89.0 106.0 L 90.0 105.0 L 91.0 104.0 L 92.0 103.0 L 93.0 102.0 L 93.66666666666667 101.0 L 94.0 100.0 L 94.0 99.0 L 94.33333333333333 98.0 L 95.0 97.0 L 96.0 96.0 L 97.0 95.33333333333333 L 98.0 95.0 L 99.0 95.0 L 100.0 95.0 L 101.0 94.66666666666667 L 102.0 94.0 L 103.0 93.0 L 104.0 92.0 L 105.0 91.0 L 106.0 90.0 L 107.0 89.33333333333333 L 108.0 88.66666666666667 L 109.0 88.0 L 110.0 87.0 L 111.0 86.0 L 112.0 85.0 L 113.0 84.33333333333333 L 114.0 83.66666666666667 L 115.0 83.0 L 116.0 82.0 L 117.0 81.0 L 118.0 80.0 L 118.66666666666667 79.0 L 119.0 78.0 L 119.0 77.0 L 119.0 76.0 L 119.0 75.0 L 118.66666666666667 74.33333333333333 L 118.0 74.0 L 117.0 74.33333333333333 L 116.0 75.0 L 115.0 76.0 L 114.0 76.66666666666667 L 113.0 77.33333333333333 L 112.0 78.0 L 111.0 79.0 L 110.0 79.66666666666667 L 109.0 80.33333333333333 L 108.0 81.0 L 107.0 82.0 L 106.0 83.0 L 105.0 83.66666666666667 L 104.0 84.33333333333333 L 103.0 85.0 L 102.0 86.0 L 101.0 87.0 L 100.0 88.0 L 99.0 88.66666666666667 L 98.0 89.33333333333333 L 97.0 90.0 L 96.0 91.0 L 95.0 92.0 L 94.0 93.0 L 93.0 94.0 L 92.0 95.0 L 91.0 96.0 L 90.0 97.0 L 89.0 98.0 L 88.0 99.0 L 87.0 100.0 L 86.0 101.0 L 85.0 102.0 L 84.0 103.0 L 83.0 104.0 L 82.0 105.0 L 81.0 106.0 L 80.0 107.0 L 79.0 108.0 L 78.0 109.0 L 77.0 110.0 L 76.33333333333333 111.0 L 75.66666666666667 112.0 L 75.33333333333333 113.0 L 75.0 114.0 L 75.0 115.0 L 74.66666666666667 116.0 L 74.33333333333333 117.0 L 74.0 118.0 L 74.0 119.0 L 74.0 120.0 L 74.33333333333333 120.66666666666667 L 75.0 120.66666666666667 L 76.0 120.0 L 77.0 119.0 L 78.0 118.0 L 79.0 117.0 L 80.0 116.0 L 80.5 115.5 Z" stroke="none" fill="rgb(250,201,109)" />
<path d="M 40.5 75.5 L 41.0 76.0 L 42.0 76.66666666666667 L 43.0 77.33333333333333 L 44.0 77.66666666666667 L 45.0 78.0 L 46.0 78.33333333333333 L 47.0 78.66666666666667 L 48.0 79.0 L 49.0 79.33333333333333 L 50.0 79.66666666666667 L 51.0 80.0 L 52.0 80.0 L 53.0 80.0 L 54.0 80.0 L 55.0 80.0 L 56.0 80.0 L 57.0 80.0 L 58.0 80.0 L 59.0 80.0 L 60.0 80.0 L 61.0 80.0 L 62.0 79.66666666666667 L 63.0 79.33333333333333 L 64.0 79.0 L 65.0 78.66666666666667 L 66.0 78.33333333333333 L 67.0 77.66666666666667 L 68.0 77.33333333333333 L 68.66666666666667 76.66666666666667 L 69.0 76.0 L 69.0 75.0 L 68.66666666666667 74.0 L 68.0 73.33333333333333 L 67.0 73.0 L 66.0 73.0 L 65.0 73.0 L 64.0 73.33333333333333 L 63.0 73.66666666666667 L 62.0 74.0 L 61.0 74.0 L 60.0 74.0 L 59.0 74.0 L 58.0 74.0 L 57.0 74.0 L 56.0 74.0 L 55.0 74.0 L 54.0 74.0 L 53.0 74.0 L 52.0 74.0 L 51.0 73.66666666666667 L 50.0 73.33333333333333 L 49.0 73.0 L 48.0 72.66666666666667 L 47.0 72.33333333333333 L 46.0 71.66666666666667 L 45.0 71.0 L 44.0 70.0 L 43.0 69.0 L 42.0 68.0 L 41.0 67.0 L 40.0 66.0 L 39.0 65.0 L 38.0 64.0 L 37.333333333333336 63.0 L 36.666666666666664 62.0 L 36.333333333333336 61.0 L 35.666666666666664 60.333333333333336 L 35.0 60.0 L 34.333333333333336 60.333333333333336 L 34.0 61.0 L 34.0 62.0 L 34.0 63.0 L 34.0 64.0 L 34.333333333333336 65.0 L 34.666666666666664 66.0 L 35.0 67.0 L 35.333333333333336 68.0 L 35.666666666666664 69.0 L 36.333333333333336 70.0 L 36.666666666666664 71.0 L 37.333333333333336 72.0 L 38.0 73.0 L 39.0 74.0 L 39.5 74.5 Z" stroke="none" fill="rgb(255,166,43)" />
<path d="M 53.5 108.5 L 54.0 109.0 L 55.0 110.0 L 56.0 111.0 L 57.0 112.0 L 58.0 113.0 L 59.0 114.0 L 60.0 115.0 L 61.0 115.66666666666667 L 62.0 116.0 L 63.0 116.0 L 64.0 116.0 L 65.0 116.0 L 65.66666666666667 115.66666666666667 L 66.0 115.0 L 66.0 114.0 L 66.0 113.0 L 66.0 112.0 L 65.66666666666667 111.0 L 65.0 110.0 L 64.0 109.0 L 63.0 108.0 L 62.0 107.0 L 61.0 106.0 L 60.0 105.0 L 59.0 104.0 L 58.0 103.33333333333333 L 57.0 103.0 L 56.0 103.0 L 55.0 103.0 L 54.0 103.33333333333333 L 53.333333333333336 104.0 L 53.0 105.0 L 53.0 106.0 L 53.0 107.0 L 53.0 107.5 Z" stroke="none" fill="rgb(191,145,119)" />
<path d="M 17.5 23.0 L 18.0 23.0 L 19.0 23.0 L 20.0 23.0 L 21.0 23.0 L 22.0 22.666666666666668 L 22.666666666666668 22.0 L 23.0 21.0 L 23.0 20.0 L 23.0 19.0 L 23.0 18.0 L 23.0 17.0 L 23.0 16.0 L 23.0 15.0 L 23.0 14.0 L 23.0 13.0 L 22.666666666666668 12.333333333333334 L 22.0 12.0 L 21.0 12.0 L 20.0 12.0 L 19.0 12.0 L 18.0 12.0 L 17.0 12.0 L 16.0 12.0 L 15.0 12.0 L 14.0 12.333333333333334 L 13.333333333333334 13.0 L 13.0 14.0 L 13.0 15.0 L 13.0 16.0 L 13.0 17.0 L 13.0 18.0 L 13.333333333333334 19.0 L 14.0 20.0 L 15.0 21.0 L 16.0 22.0 L 16.5 22.5 Z" stroke="none" fill="rgb(147,118,114)" />
<path d="M 27.5 22.0 L 28.0 22.0 L 29.0 22.0 L 30.0 22.0 L 31.0 22.0 L 32.0 22.0 L 33.0 22.0 L 34.0 22.0 L 35.0 22.0 L 35.666666666666664 21.666666666666668 L 36.0 21.0 L 36.0 20.0 L 36.0 19.0 L 36.0 18.0 L 36.0 17.0 L 36.0 16.0 L 36.0 15.0 L 36.0 14.0 L 36.0 13.0 L 35.666666666666664 12.333333333333334 L 35.0 12.0 L 34.0 12.0 L 33.0 12.0 L 32.0 12.0 L 31.0 12.0 L 30.0 12.0 L 29.0 12.0 L 28.0 12.0 L 27.333333333333332 12.333333333333334 L 27.0 13.0 L 27.0 14.0 L 27.0 15.0 L 27.0 16.0 L 27.0 17.0 L 26.666666666666668 18.0 L 26.333333333333332 19.0 L 26.0 20.0 L 26.0 21.0 L 26.333333333333332 21.666666666666668 L 26.5 22.0 Z" stroke="none" fill="rgb(147,118,114)" />
<path d="M 22.0 35.5 L 22.0 35.0 L 22.0 34.0 L 22.0 33.0 L 22.0 32.0 L 22.0 31.0 L 22.0 30.0 L 22.0 29.0 L 22.0 28.0 L 22.0 27.0 L 21.666666666666668 26.333333333333332 L 21.0 26.0 L 20.0 26.0 L 19.0 26.0 L 18.0 26.0 L 17.0 26.0 L 16.0 26.0 L 15.0 26.0 L 14.0 26.0 L 13.333333333333334 26.333333333333332 L 13.0 27.0 L 13.0 28.0 L 13.0 29.0 L 13.0 30.0 L 13.0 31.0 L 13.0 32.0 L 13.0 33.0 L 13.0 34.0 L 13.0 35.0 L 13.333333333333334 35.666666666666664 L 14.0 36.0 L 14.666666666666666 35.666666666666664 L 15.0 35.0 L 14.666666666666666 34.0 L 14.666666666666666 33.0 L 15.0 32.0 L 16.0 31.333333333333332 L 17.0 31.333333333333332 L 18.0 32.0 L 18.333333333333332 33.0 L 18.333333333333332 34.0 L 18.0 35.0 L 18.333333333333332 36.0 L 19.0 36.666666666666664 L 20.0 37.0 L 21.0 36.666666666666664 L 21.5 36.5 Z" stroke="none" fill="rgb(147,118,114)" />
<path d="M 40.5 60.5 L 41.0 61.0 L 42.0 61.666666666666664 L 43.0 62.0 L 44.0 62.0 L 44.666666666666664 61.666666666666664 L 45.0 61.0 L 45.0 60.0 L 45.0 59.0 L 45.0 58.0 L 45.0 57.0 L 45.0 56.0 L 45.0 55.0 L 45.0 54.0 L 45.0 53.0 L 45.0 52.0 L 45.0 51.0 L 45.0 50.0 L 45.0 49.0 L 45.0 48.0 L 44.666666666666664 47.0 L 44.0 46.333333333333336 L 43.0 46.0 L 42.0 46.333333333333336 L 41.0 47.0 L 40.0 48.0 L 39.333333333333336 49.0 L 39.0 50.0 L 39.0 51.0 L 39.0 52.0 L 39.0 53.0 L 39.0 54.0 L 39.0 55.0 L 39.0 56.0 L 39.0 57.0 L 39.0 58.0 L 39.333333333333336 59.0 L 39.5 59.5 Z" stroke="none" fill="rgb(254,255,253)" />
<path d="M 26.5 36.0 L 27.0 36.0 L 28.0 36.0 L 29.0 36.0 L 30.0 36.0 L 31.0 36.0 L 32.0 36.0 L 33.0 36.0 L 34.0 36.0 L 35.0 36.0 L 35.666666666666664 35.666666666666664 L 36.0 35.0 L 36.0 34.0 L 36.0 33.0 L 36.0 32.0 L 36.0 31.0 L 35.666666666666664 30.333333333333332 L 35.0 30.0 L 34.0 30.0 L 33.0 30.333333333333332 L 32.0 31.0 L 31.0 31.666666666666668 L 30.0 31.666666666666668 L 29.333333333333332 31.0 L 29.0 30.0 L 29.333333333333332 29.0 L 29.666666666666668 28.0 L 30.0 27.0 L 29.666666666666668 26.333333333333332 L 29.0 26.0 L 28.0 26.0 L 27.0 26.0 L 26.333333333333332 26.333333333333332 L 26.0 27.0 L 26.0 28.0 L 26.0 29.0 L 26.0 30.0 L 26.0 31.0 L 26.0 32.0 L 26.0 33.0 L 26.0 34.0 L 26.0 35.0 L 26.0 35.5 Z" stroke="none" fill="rgb(147,118,114)" />
<path d="M 73.5 74.5 L 74.0 74.0 L 75.0 73.0 L 75.66666666666667 72.0 L 76.0 71.0 L 76.0 70.0 L 75.66666666666667 69.33333333333333 L 75.0 69.0 L 74.0 69.0 L 73.0 69.0 L 72.0 69.33333333333333 L 71.0 70.0 L 70.0 71.0 L 69.0 71.66666666666667 L 68.33333333333333 72.33333333333333 L 68.0 73.0 L 68.33333333333333 74.0 L 68.66666666666667 75.0 L 69.0 76.0 L 69.33333333333333 76.66666666666667 L 70.0 77.0 L 71.0 76.66666666666667 L 72.0 76.0 L 72.5 75.5 Z" stroke="none" fill="rgb(224,194,144)" />
<path d="M 32.5 31.5 L 33.0 31.0 L 34.0 30.333333333333332 L 35.0 30.0 L 35.666666666666664 29.666666666666668 L 36.0 29.0 L 36.0 28.0 L 36.0 27.0 L 35.666666666666664 26.333333333333332 L 35.0 26.0 L 34.333333333333336 26.333333333333332 L 34.0 27.0 L 33.666666666666664 28.0 L 33.0 28.333333333333332 L 32.0 28.0 L 31.0 27.333333333333332 L 30.0 27.333333333333332 L 29.333333333333332 28.0 L 29.0 29.0 L 29.0 30.0 L 29.0 31.0 L 29.333333333333332 31.666666666666668 L 30.0 32.0 L 31.0 32.0 L 31.5 32.0 Z" stroke="none" fill="rgb(94,67,61)" />
<path d="M 73.5 69.0 L 74.0 69.0 L 75.0 68.66666666666667 L 75.66666666666667 68.0 L 76.0 67.0 L 76.33333333333333 66.0 L 76.66666666666667 65.0 L 77.0 64.0 L 77.0 63.0 L 76.66666666666667 62.333333333333336 L 76.0 62.0 L 75.0 62.333333333333336 L 74.33333333333333 63.0 L 73.66666666666667 64.0 L 73.0 65.0 L 72.33333333333333 66.0 L 72.0 67.0 L 72.33333333333333 68.0 L 72.5 68.5 Z" stroke="none" fill="rgb(255,166,43)" />
<path d="M 43.5 39.5 L 43.666666666666664 39.0 L 44.0 38.0 L 43.666666666666664 37.333333333333336 L 43.0 37.333333333333336 L 42.0 38.0 L 41.0 38.666666666666664 L 40.0 39.333333333333336 L 39.0 40.0 L 38.333333333333336 41.0 L 38.0 42.0 L 38.0 43.0 L 38.333333333333336 43.666666666666664 L 39.0 43.666666666666664 L 40.0 43.0 L 41.0 42.0 L 42.0 41.0 L 42.5 40.5 Z" stroke="none" fill="rgb(224,194,144)" />
<path d="M 19.0 33.5 L 19.0 33.0 L 18.666666666666668 32.0 L 18.0 31.333333333333332 L 17.0 31.0 L 16.0 31.0 L 15.0 31.333333333333332 L 14.333333333333334 32.0 L 14.0 33.0 L 14.333333333333334 34.0 L 15.0 34.666666666666664 L 16.0 35.0 L 17.0 35.0 L 18.0 34.666666666666664 L 18.5 34.5 Z" stroke="none" fill="rgb(94,67,61)" />
<path d="M 49.5 18.0 L 50.0 18.0 L 50.666666666666664 17.666666666666668 L 51.0 17.0 L 51.0 16.0 L 50.666666666666664 15.0 L 50.0 14.333333333333334 L 49.0 14.0 L 48.0 14.333333333333334 L 47.333333333333336 15.0 L 47.0 16.0 L 47.333333333333336 17.0 L 48.0 17.666666666666668 L 48.5 18.0 Z" stroke="none" fill="rgb(94,67,61)" />
<path d="M 55.5 22.0 L 56.0 21.666666666666668 L 56.666666666666664 21.0 L 57.0 20.0 L 56.666666666666664 19.0 L 56.0 18.333333333333332 L 55.0 18.0 L 54.0 18.333333333333332 L 53.333333333333336 19.0 L 53.0 20.0 L 53.333333333333336 21.0 L 54.0 21.666666666666668 L 54.5 22.0 Z" stroke="none" fill="rgb(94,67,61)" />
<path d="M 17.0 50.5 L 17.0 50.0 L 16.666666666666668 49.333333333333336 L 16.0 49.0 L 15.0 49.0 L 14.333333333333334 49.333333333333336 L 14.0 50.0 L 14.0 51.0 L 14.333333333333334 51.666666666666664 L 15.0 52.0 L 16.0 51.666666666666664 L 16.5 51.5 Z" stroke="none" fill="rgb(94,67,61)" />
<path d="M 15.5 37.0 L 16.0 37.0 L 17.0 37.0 L 18.0 37.0 L 18.666666666666668 36.666666666666664 L 18.666666666666668 36.0 L 18.0 35.333333333333336 L 17.0 35.0 L 16.0 35.0 L 15.333333333333334 35.333333333333336 L 15.0 36.0 L 15.0 36.5 Z" stroke="none" fill="rgb(135,106,102)" />
<path d="M 14.5 23.0 L 15.0 23.0 L 16.0 23.0 L 16.666666666666668 22.666666666666668 L 16.666666666666668 22.0 L 16.0 21.333333333333332 L 15.0 21.0 L 14.333333333333334 21.333333333333332 L 14.0 22.0 L 14.0 22.5 Z" stroke="none" fill="rgb(135,106,102)" />
<path d="M 14.5 21.0 L 14.666666666666666 20.666666666666668 L 14.666666666666666 20.333333333333332 L 14.333333333333334 20.333333333333332 L 14.0 20.5 Z" stroke="none" fill="rgb(94,67,61)" />
</svg>
