<?xml version="1.0" encoding="UTF-8" standalone="no"?>
<!DOCTYPE svg PUBLIC "-//W3C//DTD SVG 1.1//EN"
"http://www.w3.org/Graphics/SVG/1.1/DTD/svg11.dtd">
<svg width="128" height="128" xmlns="http://www.w3.org/2000/svg" version="1.1">
<path d="M 26.5 128.0 L 27.0 128.0 L 28.0 128.0 L 29.0 128.0 L 30.0 128.0 L 31.0 128.0 L 32.0 128.0 L 33.0 128.0 L 34.0 128.0 L 35.0 128.0 L 36.0 128.0 L 37.0 128.0 L 38.0 128.0 L 39.0 128.0 L 40.0 128.0 L 41.0 128.0 L 42.0 128.0 L 43.0 128.0 L 44.0 128.0 L 45.0 128.0 L 46.0 128.0 L 47.0 128.0 L 48.0 128.0 L 49.0 128.0 L 50.0 128.0 L 51.0 128.0 L 52.0 128.0 L 53.0 128.0 L 54.0 128.0 L 55.0 128.0 L 56.0 128.0 L 57.0 128.0 L 58.0 128.0 L 59.0 128.0 L 60.0 128.0 L 61.0 128.0 L 62.0 128.0 L 63.0 128.0 L 64.0 128.0 L 65.0 128.0 L 66.0 128.0 L 67.0 128.0 L 68.0 128.0 L 69.0 128.0 L 70.0 128.0 L 71.0 128.0 L 72.0 128.0 L 73.0 128.0 L 74.0 128.0 L 75.0 128.0 L 76.0 128.0 L 77.0 128.0 L 78.0 128.0 L 79.0 128.0 L 80.0 128.0 L 81.0 128.0 L 82.0 128.0 L 83.0 128.0 L 84.0 128.0 L 85.0 128.0 L 86.0 128.0 L 87.0 128.0 L 88.0 128.0 L 89.0 128.0 L 90.0 128.0 L 91.0 128.0 L 92.0 128.0 L 93.0 128.0 L 94.0 128.0 L 95.0 128.0 L 96.0 128.0 L 97.0 128.0 L 98.0 128.0 L 99.0 128.0 L 100.0 128.0 L 101.0 128.0 L 102.0 128.0 L 103.0 128.0 L 104.0 128.0 L 105.0 128.0 L 106.0 128.0 L 107.0 128.0 L 108.0 128.0 L 109.0 128.0 L 110.0 128.0 L 111.0 128.0 L 112.0 128.0 L 113.0 128.0 L 114.0 128.0 L 115.0 128.0 L 116.0 128.0 L 117.0 128.0 L 118.0 128.0 L 119.0 128.0 L 120.0 128.0 L 121.0 128.0 L 122.0 128.0 L 123.0 128.0 L 124.0 128.0 L 125.0 128.0 L 126.0 128.0 L 127.0 128.0 L 127.66666666666667 127.66666666666667 L 128.0 127.0 L 128.0 126.0 L 128.0 125.0 L 128.0 124.0 L 128.0 123.0 L 128.0 122.0 L 128.0 121.0 L 128.0 120.0 L 128.0 119.0 L 128.0 118.0 L 128.0 117.0 L 128.0 116.0 L 128.0 115.0 L 128.0 114.0 L 128.0 113.0 L 128.0 112.0 L 128.0 111.0 L 128.0 110.0 L 128.0 109.0 L 128.0 108.0 L 128.0 107.0 L 128.0 106.0 L 128.0 105.0 L 128.0 104.0 L 128.0 103.0 L 128.0 102.0 L 128.0 101.0 L 128.0 100.0 L 128.0 99.0 L 128.0 98.0 L 128.0 97.0 L 128.0 96.0 L 128.0 95.0 L 128.0 94.0 L 128.0 93.0 L 128.0 92.0 L 128.0 91.0 L 128.0 90.0 L 128.0 89.0 L 128.0 88.0 L 128.0 87.0 L 128.0 86.0 L 128.0 85.0 L 128.0 84.0 L 128.0 83.0 L 128.0 82.0 L 128.0 81.0 L 128.0 80.0 L 128.0 79.0 L 128.0 78.0 L 128.0 77.0 L 128.0 76.0 L 128.0 75.0 L 128.0 74.0 L 128.0 73.0 L 128.0 72.0 L 128.0 71.0 L 128.0 70.0 L 128.0 69.0 L 128.0 68.0 L 128.0 67.0 L 128.0 66.0 L 128.0 65.0 L 128.0 64.0 L 128.0 63.0 L 128.0 62.0 L 128.0 61.0 L 128.0 60.0 L 128.0 59.0 L 128.0 58.0 L 128.0 57.0 L 128.0 56.0 L 128.0 55.0 L 128.0 54.0 L 128.0 53.0 L 128.0 52.0 L 128.0 51.0 L 128.0 50.0 L 128.0 49.0 L 128.0 48.0 L 128.0 47.0 L 128.0 46.0 L 128.0 45.0 L 128.0 44.0 L 128.0 43.0 L 128.0 42.0 L 128.0 41.0 L 128.0 40.0 L 128.0 39.0 L 128.0 38.0 L 128.0 37.0 L 128.0 36.0 L 128.0 35.0 L 128.0 34.0 L 128.0 33.0 L 128.0 32.0 L 128.0 31.0 L 128.0 30.0 L 128.0 29.0 L 128.0 28.0 L 128.0 27.0 L 128.0 26.0 L 128.0 25.0 L 128.0 24.0 L 128.0 23.0 L 128.0 22.0 L 128.0 21.0 L 128.0 20.0 L 128.0 19.0 L 128.0 18.0 L 128.0 17.0 L 128.0 16.0 L 128.0 15.0 L 128.0 14.0 L 128.0 13.0 L 128.0 12.0 L 128.0 11.0 L 128.0 10.0 L 128.0 9.0 L 128.0 8.0 L 128.0 7.0 L 128.0 6.0 L 128.0 5.0 L 128.0 4.0 L 128.0 3.0 L 128.0 2.0 L 128.0 1.0 L 127.66666666666667 0.3333333333333333 L 127.0 0.0 L 126.0 0.0 L 125.0 0.0 L 124.0 0.0 L 123.0 0.0 L 122.0 0.0 L 121.0 0.0 L 120.0 0.0 L 119.0 0.0 L 118.0 0.0 L 117.0 0.0 L 116.0 0.0 L 115.0 0.0 L 114.0 0.0 L 113.0 0.0 L 112.0 0.0 L 111.0 0.0 L 110.0 0.0 L 109.0 0.0 L 108.0 0.0 L 107.0 0.0 L 106.0 0.0 L 105.0 0.0 L 104.0 0.0 L 103.0 0.0 L 102.0 0.0 L 101.0 0.0 L 100.0 0.0 L 99.0 0.0 L 98.0 0.0 L 97.0 0.0 L 96.0 0.0 L 95.0 0.0 L 94.0 0.0 L 93.0 0.0 L 92.0 0.0 L 91.0 0.0 L 90.0 0.0 L 89.0 0.0 L 88.0 0.0 L 87.0 0.0 L 86.0 0.0 L 85.0 0.0 L 84.0 0.0 L 83.0 0.0 L 82.0 0.0 L 81.0 0.0 L 80.0 0.0 L 79.0 0.0 L 78.0 0.0 L 77.0 0.0 L 76.0 0.0 L 75.0 0.0 L 74.0 0.0 L 73.0 0.0 L 72.0 0.0 L 71.0 0.0 L 70.0 0.0 L 69.0 0.0 L 68.0 0.0 L 67.0 0.0 L 66.0 0.0 L 65.0 0.0 L 64.0 0.0 L 63.0 0.0 L 62.0 0.0 L 61.0 0.0 L 60.0 0.0 L 59.0 0.0 L 58.0 0.0 L 57.0 0.0 L 56.0 0.0 L 55.0 0.0 L 54.0 0.0 L 53.0 0.0 L 52.0 0.0 L 51.0 0.0 L 50.0 0.0 L 49.0 0.0 L 48.0 0.0 L 47.0 0.0 L 46.0 0.0 L 45.0 0.0 L 44.0 0.0 L 43.0 0.0 L 42.0 0.0 L 41.0 0.0 L 40.0 0.0 L 39.0 0.0 L 38.0 0.0 L 37.0 0.0 L 36.0 0.0 L 35.0 0.0 L 34.0 0.0 L 33.0 0.0 L 32.0 0.0 L 31.0 0.0 L 30.0 0.0 L 29.0 0.0 L 28.0 0.0 L 27.0 0.0 L 26.0 0.0 L 25.0 0.0 L 24.0 0.0 L 23.0 0.0 L 22.0 0.0 L 21.0 0.0 L 20.0 0.0 L 19.0 0.0 L 18.0 0.0 L 17.0 0.0 L 16.0 0.0 L 15.0 0.0 L 14.0 0.0 L 13.0 0.0 L 12.0 0.0 L 11.0 0.0 L 10.0 0.0 L 9.0 0.0 L 8.0 0.0 L 7.0 0.0 L 6.0 0.0 L 5.0 0.0 L 4.0 0.0 L 3.0 0.0 L 2.0 0.0 L 1.0 0.0 L 0.3333333333333333 0.3333333333333333 L 0.0 1.0 L 0.0 2.0 L 0.0 3.0 L 0.0 4.0 L 0.0 5.0 L 0.0 6.0 L 0.0 7.0 L 0.0 8.0 L 0.0 9.0 L 0.0 10.0 L 0.0 11.0 L 0.0 12.0 L 0.0 13.0 L 0.0 14.0 L 0.0 15.0 L 0.0 16.0 L 0.0 17.0 L 0.0 18.0 L 0.0 19.0 L 0.0 20.0 L 0.0 21.0 L 0.0 22.0 L 0.0 23.0 L 0.0 24.0 L 0.0 25.0 L 0.0 26.0 L 0.0 27.0 L 0.0 28.0 L 0.0 29.0 L 0.0 30.0 L 0.0 31.0 L 0.0 32.0 L 0.0 33.0 L 0.0 34.0 L 0.0 35.0 L 0.0 36.0 L 0.0 37.0 L 0.0 38.0 L 0.0 39.0 L 0.0 40.0 L 0.0 41.0 L 0.0 42.0 L 0.0 43.0 L 0.0 44.0 L 0.0 45.0 L 0.0 46.0 L 0.0 47.0 L 0.0 48.0 L 0.0 49.0 L 0.0 50.0 L 0.0 51.0 L 0.0 52.0 L 0.0 53.0 L 0.0 54.0 L 0.0 55.0 L 0.0 56.0 L 0.0 57.0 L 0.0 58.0 L 0.0 59.0 L 0.0 60.0 L 0.0 61.0 L 0.0 62.0 L 0.0 63.0 L 0.0 64.0 L 0.0 65.0 L 0.0 66.0 L 0.0 67.0 L 0.0 68.0 L 0.0 69.0 L 0.0 70.0 L 0.0 71.0 L 0.0 72.0 L 0.0 73.0 L 0.0 74.0 L 0.0 75.0 L 0.0 76.0 L 0.0 77.0 L 0.0 78.0 L 0.0 79.0 L 0.0 80.0 L 0.0 81.0 L 0.0 82.0 L 0.0 83.0 L 0.0 84.0 L 0.0 85.0 L 0.0 86.0 L 0.0 87.0 L 0.0 88.0 L 0.0 89.0 L 0.0 90.0 L 0.0 91.0 L 0.0 92.0 L 0.0 93.0 L 0.0 94.0 L 0.0 95.0 L 0.0 96.0 L 0.0 97.0 L 0.0 98.0 L 0.0 99.0 L 0.0 100.0 L 0.0 101.0 L 0.0 102.0 L 0.0 103.0 L 0.0 104.0 L 0.0 105.0 L 0.0 106.0 L 0.0 107.0 L 0.0 108.0 L 0.0 109.0 L 0.0 110.0 L 0.0 111.0 L 0.0 112.0 L 0.0 113.0 L 0.0 114.0 L 0.0 115.0 L 0.0 116.0 L 0.0 117.0 L 0.0 118.0 L 0.0 119.0 L 0.0 120.0 L 0.0 121.0 L 0.0 122.0 L 0.0 123.0 L 0.0 124.0 L 0.0 125.0 L 0.0 126.0 L 0.0 127.0 L 0.3333333333333333 127.66666666666667 L 1.0 128.0 L 2.0 128.0 L 3.0 128.0 L 4.0 128.0 L 5.0 128.0 L 6.0 128.0 L 7.0 128.0 L 8.0 128.0 L 9.0 128.0 L 10.0 128.0 L 11.0 128.0 L 12.0 128.0 L 13.0 128.0 L 14.0 128.0 L 15.0 128.0 L 16.0 128.0 L 17.0 128.0 L 18.0 128.0 L 19.0 128.0 L 20.0 128.0 L 21.0 128.0 L 22.0 128.0 L 23.0 128.0 L 24.0 128.0 L 25.0 128.0 L 25.5 128.0 Z" stroke="none" fill="rgb(255,255,255)" />
<path d="M 101.5 108.5 L 102.0 108.0 L 102.66666666666667 107.0 L 103.33333333333333 106.0 L 104.0 105.0 L 104.66666666666667 104.0 L 105.33333333333333 103.0 L 105.66666666666667 102.0 L 106.0 101.0 L 106.33333333333333 100.0 L 106.66666666666667 99.0 L 107.33333333333333 98.0 L 108.0 97.0 L 108.66666666666667 96.0 L 108.66666666666667 95.0 L 108.33333333333333 94.0 L 108.33333333333333 93.0 L 108.66666666666667 92.0 L 109.0 91.0 L 109.0 90.0 L 109.0 89.0 L 109.33333333333333 88.0 L 109.66666666666667 87.0 L 110.0 86.0 L 110.0 85.0 L 110.0 84.0 L 110.0 83.0 L 110.0 82.0 L 110.33333333333333 81.0 L 110.66666666666667 80.0 L 111.0 79.0 L 111.0 78.0 L 111.0 77.0 L 111.0 76.0 L 111.0 75.0 L 111.33333333333333 74.0 L 111.66666666666667 73.0 L 112.0 72.0 L 112.0 71.0 L 112.0 70.0 L 112.0 69.0 L 112.0 68.0 L 112.0 67.0 L 112.0 66.0 L 112.0 65.0 L 112.0 64.0 L 112.0 63.0 L 112.0 62.0 L 112.0 61.0 L 112.0 60.0 L 112.0 59.0 L 112.0 58.0 L 111.66666666666667 57.0 L 111.33333333333333 56.0 L 111.0 55.0 L 111.0 54.0 L 111.0 53.0 L 111.0 52.0 L 111.0 51.0 L 111.0 50.0 L 110.66666666666667 49.0 L 110.33333333333333 48.0 L 110.0 47.0 L 110.0 46.0 L 109.66666666666667 45.0 L 109.33333333333333 44.0 L 109.0 43.0 L 109.0 42.0 L 108.66666666666667 41.0 L 108.33333333333333 40.0 L 107.66666666666667 39.0 L 107.33333333333333 38.0 L 107.0 37.0 L 106.66666666666667 36.0 L 106.33333333333333 35.0 L 105.66666666666667 34.0 L 105.0 33.0 L 104.33333333333333 32.0 L 103.66666666666667 31.0 L 103.0 30.0 L 102.33333333333333 29.0 L 101.66666666666667 28.0 L 101.0 27.0 L 100.0 26.0 L 99.0 25.0 L 98.0 24.0 L 97.0 23.0 L 96.0 22.0 L 95.0 21.333333333333332 L 94.0 20.666666666666668 L 93.0 20.0 L 92.0 19.333333333333332 L 91.0 18.666666666666668 L 90.0 18.333333333333332 L 89.0 17.666666666666668 L 88.0 17.333333333333332 L 87.0 16.666666666666668 L 86.0 16.333333333333332 L 85.0 16.0 L 84.0 16.0 L 83.33333333333333 16.333333333333332 L 83.0 17.0 L 83.0 18.0 L 83.0 19.0 L 83.0 20.0 L 83.0 21.0 L 83.0 22.0 L 83.0 23.0 L 83.0 24.0 L 83.0 25.0 L 83.0 26.0 L 83.0 27.0 L 82.66666666666667 28.0 L 82.33333333333333 29.0 L 81.66666666666667 30.0 L 81.0 31.0 L 80.0 32.0 L 79.33333333333333 33.0 L 78.66666666666667 34.0 L 78.0 35.0 L 77.0 36.0 L 76.0 37.0 L 75.0 37.666666666666664 L 74.0 38.333333333333336 L 73.0 38.666666666666664 L 72.0 39.333333333333336 L 71.0 39.666666666666664 L 70.0 40.0 L 69.0 40.0 L 68.0 40.0 L 67.0 40.0 L 66.0 40.0 L 65.0 40.0 L 64.0 40.0 L 63.0 40.0 L 62.0 40.0 L 61.0 39.666666666666664 L 60.0 39.333333333333336 L 59.0 39.0 L 58.0 39.0 L 57.0 38.666666666666664 L 56.0 38.0 L 55.0 37.0 L 54.0 36.0 L 53.0 35.0 L 52.333333333333336 34.0 L 51.666666666666664 33.0 L 51.0 32.0 L 50.333333333333336 31.0 L 50.0 30.0 L 50.333333333333336 29.0 L 51.0 28.666666666666668 L 52.0 28.666666666666668 L 53.0 29.0 L 54.0 29.333333333333332 L 55.0 29.666666666666668 L 56.0 30.0 L 57.0 30.0 L 58.0 30.0 L 59.0 30.0 L 60.0 30.0 L 61.0 30.0 L 62.0 30.0 L 63.0 30.0 L 64.0 30.0 L 65.0 30.0 L 66.0 29.666666666666668 L 67.0 29.0 L 68.0 28.0 L 68.66666666666667 27.0 L 69.33333333333333 26.0 L 69.66666666666667 25.0 L 70.0 24.0 L 70.0 23.0 L 70.0 22.0 L 70.0 21.0 L 69.66666666666667 20.0 L 69.33333333333333 19.0 L 69.0 18.0 L 68.66666666666667 17.0 L 68.0 16.333333333333332 L 67.0 15.666666666666666 L 66.0 15.333333333333334 L 65.0 14.666666666666666 L 64.0 14.333333333333334 L 63.0 14.0 L 62.0 14.0 L 61.0 14.0 L 60.0 14.0 L 59.0 14.0 L 58.0 14.0 L 57.0 14.0 L 56.0 14.0 L 55.0 14.333333333333334 L 54.0 14.666666666666666 L 53.0 15.0 L 52.0 15.0 L 51.0 15.0 L 50.0 15.0 L 49.0 15.0 L 48.0 15.0 L 47.0 15.0 L 46.0 15.0 L 45.0 15.0 L 44.0 15.333333333333334 L 43.0 15.666666666666666 L 42.0 16.0 L 41.0 16.333333333333332 L 40.0 16.666666666666668 L 39.0 17.333333333333332 L 38.0 17.666666666666668 L 37.0 18.333333333333332 L 36.0 19.0 L 35.0 19.666666666666668 L 34.0 20.333333333333332 L 33.0 21.0 L 32.0 22.0 L 31.0 23.0 L 30.0 24.0 L 29.0 25.0 L 28.0 26.0 L 27.0 27.0 L 26.0 28.0 L 25.0 29.0 L 24.333333333333332 30.0 L 23.666666666666668 31.0 L 23.0 32.0 L 22.333333333333332 33.0 L 21.666666666666668 34.0 L 21.333333333333332 35.0 L 20.666666666666668 36.0 L 20.333333333333332 37.0 L 20.0 38.0 L 19.666666666666668 39.0 L 19.333333333333332 40.0 L 19.0 41.0 L 18.666666666666668 42.0 L 18.333333333333332 43.0 L 18.0 44.0 L 18.0 45.0 L 17.666666666666668 46.0 L 17.333333333333332 47.0 L 17.0 48.0 L 17.0 49.0 L 17.0 50.0 L 16.666666666666668 51.0 L 16.333333333333332 52.0 L 16.0 53.0 L 16.0 54.0 L 16.0 55.0 L 16.0 56.0 L 16.0 57.0 L 16.0 58.0 L 16.0 59.0 L 16.0 60.0 L 16.0 61.0 L 16.0 62.0 L 16.0 63.0 L 16.0 64.0 L 16.0 65.0 L 16.0 66.0 L 16.0 67.0 L 16.0 68.0 L 16.0 69.0 L 16.0 70.0 L 16.0 71.0 L 16.0 72.0 L 16.0 73.0 L 16.0 74.0 L 16.333333333333332 75.0 L 16.666666666666668 76.0 L 17.0 77.0 L 17.0 78.0 L 17.0 79.0 L 17.0 80.0 L 17.0 81.0 L 17.0 82.0 L 17.333333333333332 83.0 L 17.666666666666668 84.0 L 18.0 85.0 L 18.0 86.0 L 18.0 87.0 L 18.0 88.0 L 18.333333333333332 89.0 L 18.666666666666668 90.0 L 19.0 91.0 L 19.0 92.0 L 19.333333333333332 93.0 L 19.666666666666668 94.0 L 20.0 95.0 L 20.0 96.0 L 20.0 97.0 L 20.333333333333332 98.0 L 20.666666666666668 99.0 L 21.0 100.0 L 21.333333333333332 101.0 L 21.666666666666668 102.0 L 22.333333333333332 103.0 L 22.666666666666668 104.0 L 23.333333333333332 105.0 L 24.0 106.0 L 24.666666666666668 107.0 L 25.333333333333332 108.0 L 26.0 109.0 L 27.0 110.0 L 28.0 111.0 L 29.0 112.0 L 30.0 113.0 L 31.0 114.0 L 32.0 115.0 L 33.0 115.66666666666667 L 34.0 116.33333333333333 L 35.0 116.66666666666667 L 36.0 117.33333333333333 L 37.0 118.0 L 38.0 118.66666666666667 L 39.0 119.0 L 40.0 119.33333333333333 L 41.0 119.66666666666667 L 42.0 120.33333333333333 L 43.0 120.66666666666667 L 44.0 121.0 L 45.0 121.0 L 46.0 121.33333333333333 L 47.0 121.66666666666667 L 48.0 122.0 L 49.0 122.0 L 50.0 122.0 L 51.0 122.33333333333333 L 52.0 122.66666666666667 L 53.0 123.0 L 54.0 123.0 L 55.0 123.0 L 56.0 123.0 L 57.0 123.0 L 58.0 123.0 L 59.0 123.0 L 60.0 123.0 L 61.0 123.0 L 62.0 123.0 L 63.0 123.0 L 64.0 123.0 L 65.0 123.0 L 66.0 123.0 L 67.0 123.0 L 68.0 123.0 L 69.0 123.0 L 70.0 123.0 L 71.0 123.0 L 72.0 123.0 L 73.0 123.0 L 74.0 123.0 L 75.0 123.0 L 76.0 122.66666666666667 L 77.0 122.33333333333333 L 78.0 122.0 L 79.0 122.0 L 80.0 122.0 L 81.0 121.66666666666667 L 82.0 121.33333333333333 L 83.0 121.0 L 84.0 120.66666666666667 L 85.0 120.33333333333333 L 86.0 120.0 L 87.0 119.66666666666667 L 88.0 119.33333333333333 L 89.0 118.66666666666667 L 90.0 118.33333333333333 L 91.0 117.66666666666667 L 92.0 117.33333333333333 L 93.0 116.66666666666667 L 94.0 116.0 L 95.0 115.0 L 96.0 114.33333333333333 L 97.0 113.66666666666667 L 98.0 113.0 L 99.0 112.0 L 99.66666666666667 111.0 L 100.33333333333333 110.0 L 100.5 109.5 Z" stroke="none" fill="rgb(186,141,104)" />
<path d="M 53.5 36.5 L 54.0 37.0 L 55.0 38.0 L 56.0 38.666666666666664 L 57.0 39.0 L 58.0 39.0 L 59.0 39.333333333333336 L 60.0 39.666666666666664 L 61.0 40.0 L 62.0 40.0 L 63.0 40.0 L 64.0 40.0 L 65.0 40.0 L 66.0 40.0 L 67.0 40.0 L 68.0 40.0 L 69.0 40.0 L 70.0 40.0 L 71.0 40.0 L 72.0 39.666666666666664 L 73.0 39.333333333333336 L 74.0 38.666666666666664 L 75.0 38.333333333333336 L 76.0 37.666666666666664 L 77.0 37.0 L 78.0 36.0 L 78.66666666666667 35.0 L 79.33333333333333 34.0 L 80.0 33.0 L 81.0 32.0 L 81.66666666666667 31.0 L 82.33333333333333 30.0 L 82.66666666666667 29.0 L 83.0 28.0 L 83.0 27.0 L 83.0 26.0 L 83.0 25.0 L 83.0 24.0 L 82.66666666666667 23.0 L 82.0 22.0 L 81.0 21.0 L 80.0 20.0 L 79.0 19.333333333333332 L 78.0 18.666666666666668 L 77.0 18.333333333333332 L 76.0 17.666666666666668 L 75.0 17.333333333333332 L 74.0 16.666666666666668 L 73.0 16.333333333333332 L 72.0 16.0 L 71.0 15.666666666666666 L 70.0 15.333333333333334 L 69.0 15.0 L 68.33333333333333 15.333333333333334 L 68.0 16.0 L 68.33333333333333 17.0 L 68.66666666666667 18.0 L 69.0 19.0 L 69.33333333333333 20.0 L 69.66666666666667 21.0 L 70.0 22.0 L 70.0 23.0 L 69.66666666666667 24.0 L 69.33333333333333 25.0 L 68.66666666666667 26.0 L 68.0 27.0 L 67.0 28.0 L 66.0 29.0 L 65.0 29.666666666666668 L 64.0 30.0 L 63.0 30.0 L 62.0 30.0 L 61.0 30.0 L 60.0 30.0 L 59.0 30.0 L 58.0 30.0 L 57.0 30.0 L 56.0 29.666666666666668 L 55.0 29.333333333333332 L 54.0 29.0 L 53.0 28.666666666666668 L 52.0 28.333333333333332 L 51.0 28.0 L 50.333333333333336 28.333333333333332 L 50.0 29.0 L 50.0 30.0 L 50.0 31.0 L 50.333333333333336 32.0 L 51.0 33.0 L 51.666666666666664 34.0 L 52.333333333333336 35.0 L 52.5 35.5 Z" stroke="none" fill="rgb(84,57,48)" />
<path d="M 68.0 15.5 L 68.0 15.0 L 67.66666666666667 14.0 L 67.66666666666667 13.0 L 68.0 12.333333333333334 L 69.0 12.0 L 70.0 12.0 L 71.0 12.333333333333334 L 72.0 12.666666666666666 L 73.0 13.333333333333334 L 74.0 13.666666666666666 L 75.0 14.333333333333334 L 76.0 14.666666666666666 L 77.0 15.333333333333334 L 78.0 16.0 L 79.0 17.0 L 80.0 17.666666666666668 L 81.0 18.0 L 82.0 18.0 L 82.66666666666667 17.666666666666668 L 83.0 17.0 L 83.0 16.0 L 82.66666666666667 15.0 L 82.0 14.0 L 81.0 13.333333333333334 L 80.0 13.0 L 79.0 12.666666666666666 L 78.0 12.0 L 77.0 11.333333333333334 L 76.0 10.666666666666666 L 75.0 10.333333333333334 L 74.0 9.666666666666666 L 73.0 9.333333333333334 L 72.0 9.0 L 71.0 9.0 L 70.0 8.666666666666666 L 69.0 8.333333333333334 L 68.0 8.0 L 67.0 8.0 L 66.0 8.0 L 65.0 8.0 L 64.0 8.0 L 63.0 8.0 L 62.0 8.0 L 61.0 8.0 L 60.0 8.0 L 59.0 8.333333333333334 L 58.0 8.666666666666666 L 57.0 9.0 L 56.0 9.0 L 55.0 9.0 L 54.0 9.333333333333334 L 53.0 9.666666666666666 L 52.0 10.333333333333334 L 51.0 10.666666666666666 L 50.0 11.333333333333334 L 49.0 11.666666666666666 L 48.0 12.333333333333334 L 47.333333333333336 13.0 L 47.0 14.0 L 47.333333333333336 14.666666666666666 L 48.0 15.0 L 49.0 15.0 L 50.0 15.0 L 51.0 15.0 L 52.0 15.0 L 53.0 15.0 L 54.0 15.0 L 55.0 14.666666666666666 L 56.0 14.333333333333334 L 57.0 14.0 L 58.0 14.0 L 59.0 14.0 L 60.0 14.0 L 61.0 14.0 L 62.0 14.0 L 63.0 14.333333333333334 L 64.0 14.666666666666666 L 65.0 15.333333333333334 L 66.0 15.666666666666666 L 67.0 16.0 L 67.5 16.0 Z" stroke="none" fill="rgb(98,68,57)" />
<path d="M 72.5 104.0 L 73.0 103.66666666666667 L 74.0 103.0 L 75.0 102.0 L 76.0 101.0 L 76.66666666666667 100.0 L 77.0 99.0 L 76.66666666666667 98.0 L 76.0 97.33333333333333 L 75.0 97.0 L 74.0 97.0 L 73.0 97.0 L 72.0 97.33333333333333 L 71.0 97.66666666666667 L 70.0 98.0 L 69.0 98.0 L 68.0 98.0 L 67.0 98.0 L 66.0 98.0 L 65.0 98.0 L 64.0 98.0 L 63.0 98.0 L 62.0 98.0 L 61.0 98.0 L 60.0 97.66666666666667 L 59.0 97.33333333333333 L 58.0 97.0 L 57.0 97.0 L 56.0 97.0 L 55.0 97.0 L 54.0 97.0 L 53.0 97.0 L 52.0 97.33333333333333 L 51.333333333333336 98.0 L 51.333333333333336 99.0 L 52.0 100.0 L 53.0 101.0 L 54.0 102.0 L 55.0 102.66666666666667 L 56.0 103.33333333333333 L 57.0 103.66666666666667 L 58.0 104.0 L 59.0 104.33333333333333 L 60.0 104.66666666666667 L 61.0 105.0 L 62.0 105.0 L 63.0 105.0 L 64.0 105.0 L 65.0 105.0 L 66.0 105.0 L 67.0 105.0 L 68.0 105.0 L 69.0 105.0 L 70.0 104.66666666666667 L 71.0 104.33333333333333 L 71.5 104.0 Z" stroke="none" fill="rgb(93,64,55)" />
<path d="M 42.5 83.0 L 43.0 83.0 L 44.0 83.0 L 45.0 83.0 L 46.0 82.66666666666667 L 47.0 82.0 L 47.666666666666664 81.0 L 48.0 80.0 L 48.0 79.0 L 48.0 78.0 L 48.0 77.0 L 48.0 76.0 L 48.0 75.0 L 48.0 74.0 L 47.666666666666664 73.0 L 47.0 72.0 L 46.0 71.33333333333333 L 45.0 70.66666666666667 L 44.0 70.33333333333333 L 43.0 70.0 L 42.0 70.33333333333333 L 41.0 70.66666666666667 L 40.0 71.0 L 39.0 71.33333333333333 L 38.0 72.0 L 37.0 73.0 L 36.333333333333336 74.0 L 36.0 75.0 L 36.0 76.0 L 36.0 77.0 L 36.0 78.0 L 36.0 79.0 L 36.333333333333336 80.0 L 37.0 81.0 L 38.0 82.0 L 39.0 82.66666666666667 L 40.0 83.0 L 41.0 83.0 L 41.5 83.0 Z" stroke="none" fill="rgb(73,54,46)" />
<path d="M 88.5 83.0 L 89.0 83.0 L 90.0 82.66666666666667 L 91.0 82.0 L 91.66666666666667 81.0 L 92.0 80.0 L 92.0 79.0 L 92.0 78.0 L 92.0 77.0 L 92.0 76.0 L 92.0 75.0 L 91.66666666666667 74.0 L 91.0 73.0 L 90.0 72.0 L 89.0 71.0 L 88.0 70.33333333333333 L 87.0 70.0 L 86.0 70.0 L 85.0 70.33333333333333 L 84.0 70.66666666666667 L 83.0 71.33333333333333 L 82.0 72.0 L 81.0 73.0 L 80.33333333333333 74.0 L 80.0 75.0 L 80.0 76.0 L 80.0 77.0 L 80.0 78.0 L 80.0 79.0 L 80.33333333333333 80.0 L 81.0 81.0 L 82.0 82.0 L 83.0 82.66666666666667 L 84.0 83.0 L 85.0 83.0 L 86.0 83.0 L 87.0 83.0 L 87.5 83.0 Z" stroke="none" fill="rgb(73,54,46)" />
<path d="M 110.5 95.0 L 111.0 94.66666666666667 L 112.0 94.0 L 113.0 93.0 L 113.66666666666667 92.0 L 114.33333333333333 91.0 L 114.66666666666667 90.0 L 115.33333333333333 89.0 L 115.66666666666667 88.0 L 116.0 87.0 L 116.0 86.0 L 116.0 85.0 L 116.0 84.0 L 116.0 83.0 L 116.0 82.0 L 116.0 81.0 L 116.0 80.0 L 116.0 79.0 L 116.0 78.0 L 115.66666666666667 77.0 L 115.33333333333333 76.0 L 114.66666666666667 75.0 L 114.0 74.0 L 113.0 73.33333333333333 L 112.0 73.0 L 111.33333333333333 73.33333333333333 L 111.0 74.0 L 111.0 75.0 L 111.0 76.0 L 111.0 77.0 L 111.0 78.0 L 110.66666666666667 79.0 L 110.33333333333333 80.0 L 110.0 81.0 L 110.0 82.0 L 110.0 83.0 L 110.0 84.0 L 110.0 85.0 L 109.66666666666667 86.0 L 109.33333333333333 87.0 L 109.0 88.0 L 109.0 89.0 L 109.0 90.0 L 108.66666666666667 91.0 L 108.33333333333333 92.0 L 108.0 93.0 L 108.0 94.0 L 108.33333333333333 94.66666666666667 L 109.0 95.0 L 109.5 95.0 Z" stroke="none" fill="rgb(153,103,79)" />
<path d="M 20.0 95.5 L 20.0 95.0 L 20.0 94.0 L 19.666666666666668 93.0 L 19.333333333333332 92.0 L 19.0 91.0 L 19.0 90.0 L 18.666666666666668 89.0 L 18.333333333333332 88.0 L 18.0 87.0 L 18.0 86.0 L 18.0 85.0 L 18.0 84.0 L 17.666666666666668 83.0 L 17.333333333333332 82.0 L 17.0 81.0 L 17.0 80.0 L 17.0 79.0 L 17.0 78.0 L 17.0 77.0 L 17.0 76.0 L 16.666666666666668 75.0 L 16.0 74.33333333333333 L 15.0 74.0 L 14.0 74.33333333333333 L 13.333333333333334 75.0 L 12.666666666666666 76.0 L 12.333333333333334 77.0 L 12.0 78.0 L 12.0 79.0 L 12.0 80.0 L 12.0 81.0 L 12.0 82.0 L 12.0 83.0 L 12.0 84.0 L 12.0 85.0 L 12.0 86.0 L 12.0 87.0 L 12.333333333333334 88.0 L 12.666666666666666 89.0 L 13.333333333333334 90.0 L 13.666666666666666 91.0 L 14.333333333333334 92.0 L 15.0 93.0 L 16.0 94.0 L 17.0 94.66666666666667 L 18.0 95.33333333333333 L 19.0 95.66666666666667 L 19.5 96.0 Z" stroke="none" fill="rgb(153,103,79)" />
<path d="M 72.5 9.5 L 73.0 9.666666666666666 L 74.0 10.0 L 74.66666666666667 9.666666666666666 L 75.0 9.0 L 74.66666666666667 8.0 L 74.0 7.0 L 73.0 6.333333333333333 L 72.0 6.0 L 71.0 5.666666666666667 L 70.0 5.333333333333333 L 69.0 5.0 L 68.0 5.0 L 67.0 5.0 L 66.0 5.0 L 65.0 5.0 L 64.0 5.0 L 63.0 5.0 L 62.0 5.0 L 61.0 5.0 L 60.0 5.0 L 59.0 5.0 L 58.333333333333336 5.333333333333333 L 58.0 6.0 L 58.333333333333336 7.0 L 59.0 7.666666666666667 L 60.0 8.0 L 61.0 8.0 L 62.0 8.0 L 63.0 8.0 L 64.0 8.0 L 65.0 8.0 L 66.0 8.0 L 67.0 8.0 L 68.0 8.333333333333334 L 69.0 8.666666666666666 L 70.0 9.0 L 71.0 9.0 L 71.5 9.0 Z" stroke="none" fill="rgb(106,74,63)" />
<path d="M 69.5 86.5 L 69.66666666666667 86.0 L 70.0 85.0 L 70.0 84.0 L 69.66666666666667 83.33333333333333 L 69.0 83.0 L 68.0 83.0 L 67.0 83.0 L 66.0 83.0 L 65.0 83.0 L 64.0 83.0 L 63.0 83.0 L 62.0 83.0 L 61.0 83.0 L 60.0 83.0 L 59.0 83.0 L 58.333333333333336 83.33333333333333 L 58.0 84.0 L 58.333333333333336 85.0 L 59.0 86.0 L 60.0 87.0 L 61.0 87.66666666666667 L 62.0 88.0 L 63.0 88.0 L 64.0 88.0 L 65.0 88.0 L 66.0 88.0 L 67.0 88.0 L 68.0 87.66666666666667 L 68.5 87.5 Z" stroke="none" fill="rgb(153,103,79)" />
<path d="M 78.5 18.0 L 79.0 18.0 L 79.66666666666667 17.666666666666668 L 79.66666666666667 17.0 L 79.0 16.0 L 78.0 15.333333333333334 L 77.0 14.666666666666666 L 76.0 14.333333333333334 L 75.0 13.666666666666666 L 74.0 13.333333333333334 L 73.0 12.666666666666666 L 72.0 12.333333333333334 L 71.0 12.0 L 70.0 12.0 L 69.0 12.0 L 68.0 12.0 L 67.33333333333333 12.333333333333334 L 67.0 13.0 L 67.33333333333333 14.0 L 68.0 14.666666666666666 L 69.0 15.0 L 70.0 14.666666666666666 L 71.0 14.666666666666666 L 72.0 14.666666666666666 L 73.0 15.333333333333334 L 74.0 15.666666666666666 L 75.0 16.333333333333332 L 76.0 16.666666666666668 L 77.0 17.333333333333332 L 77.5 17.5 Z" stroke="none" fill="rgb(90,62,53)" />
<path d="M 78.5 19.5 L 79.0 20.0 L 80.0 21.0 L 81.0 22.0 L 82.0 22.666666666666668 L 82.66666666666667 22.666666666666668 L 83.0 22.0 L 82.66666666666667 21.0 L 82.0 20.0 L 81.0 19.0 L 80.0 18.333333333333332 L 79.0 17.666666666666668 L 78.0 17.333333333333332 L 77.0 16.666666666666668 L 76.0 16.333333333333332 L 75.0 15.666666666666666 L 74.0 15.333333333333334 L 73.0 14.666666666666666 L 72.0 14.333333333333334 L 71.0 14.0 L 70.33333333333333 14.333333333333334 L 70.0 15.0 L 70.33333333333333 15.666666666666666 L 71.0 16.0 L 72.0 16.333333333333332 L 73.0 16.666666666666668 L 74.0 17.333333333333332 L 75.0 17.666666666666668 L 76.0 18.333333333333332 L 77.0 18.666666666666668 L 77.5 19.0 Z" stroke="none" fill="rgb(88,60,50)" />
<path d="M 80.0 12.5 L 80.0 12.0 L 79.66666666666667 11.0 L 79.0 10.0 L 78.0 9.333333333333334 L 77.0 9.0 L 76.0 9.0 L 75.33333333333333 9.333333333333334 L 75.0 10.0 L 75.33333333333333 10.666666666666666 L 76.0 11.333333333333334 L 77.0 12.0 L 78.0 12.666666666666666 L 79.0 13.0 L 79.5 13.0 Z" stroke="none" fill="rgb(103,72,61)" />
<path d="M 81.5 20.5 L 82.0 20.666666666666668 L 82.66666666666667 20.666666666666668 L 83.0 20.0 L 83.0 19.0 L 82.66666666666667 18.333333333333332 L 82.0 18.0 L 81.0 18.0 L 80.33333333333333 18.333333333333332 L 80.33333333333333 19.0 L 80.5 19.5 Z" stroke="none" fill="rgb(90,62,53)" />
<path d="M 59.0 8.5 L 59.0 8.0 L 58.666666666666664 7.333333333333333 L 58.0 7.0 L 57.0 7.0 L 56.333333333333336 7.333333333333333 L 56.0 8.0 L 56.333333333333336 8.666666666666666 L 57.0 9.0 L 58.0 9.0 L 58.5 9.0 Z" stroke="none" fill="rgb(103,72,61)" />
<path d="M 55.5 9.0 L 55.666666666666664 8.666666666666666 L 56.0 8.0 L 55.666666666666664 7.333333333333333 L 55.0 7.0 L 54.333333333333336 7.333333333333333 L 54.0 8.0 L 54.333333333333336 8.666666666666666 L 54.5 9.0 Z" stroke="none" fill="rgb(0,0,0)" />
<path d="M 53.5 10.0 L 53.666666666666664 9.666666666666666 L 54.0 9.0 L 53.666666666666664 8.333333333333334 L 53.0 8.0 L 52.333333333333336 8.333333333333334 L 52.0 9.0 L 52.333333333333336 9.666666666666666 L 52.5 10.0 Z" stroke="none" fill="rgb(103,72,61)" />
<path d="M 57.5 7.0 L 57.666666666666664 6.666666666666667 L 57.666666666666664 6.333333333333333 L 57.0 6.0 L 56.333333333333336 6.333333333333333 L 56.333333333333336 6.666666666666667 L 56.5 7.0 Z" stroke="none" fill="rgb(0,0,0)" />
<path d="M 75.5 9.0 L 76.0 9.0 L 76.66666666666667 8.666666666666666 L 76.66666666666667 8.333333333333334 L 76.0 8.0 L 75.33333333333333 8.333333333333334 L 75.0 8.5 Z" stroke="none" fill="rgb(0,0,0)" />
<path d="M 52.0 10.5 L 51.666666666666664 10.333333333333334 L 51.0 10.0 L 50.333333333333336 10.333333333333334 L 50.333333333333336 10.666666666666666 L 51.0 11.0 L 51.5 11.0 Z" stroke="none" fill="rgb(100,70,59)" />
<path d="M 75.0 7.5 L 74.66666666666667 7.333333333333333 L 74.33333333333333 7.333333333333333 L 74.33333333333333 7.666666666666667 L 74.5 8.0 Z" stroke="none" fill="rgb(0,0,0)" />
<path d="M 51.5 10.0 L 51.666666666666664 9.666666666666666 L 51.666666666666664 9.333333333333334 L 51.333333333333336 9.333333333333334 L 51.0 9.5 Z" stroke="none" fill="rgb(0,0,0)" />
<path d="M 49.5 12.0 L 49.666666666666664 11.666666666666666 L 49.666666666666664 11.333333333333334 L 49.333333333333336 11.333333333333334 L 49.0 11.5 Z" stroke="none" fill="rgb(0,0,0)" />
<path d="M 81.0 12.5 L 80.66666666666667 12.333333333333334 L 80.33333333333333 12.333333333333334 L 80.33333333333333 12.666666666666666 L 80.5 13.0 Z" stroke="none" fill="rgb(0,0,0)" />
<path d="M 81.5 14.0 L 81.66666666666667 13.666666666666666 L 81.66666666666667 13.333333333333334 L 81.33333333333333 13.333333333333334 L 81.0 13.5 Z" stroke="none" fill="rgb(0,0,0)" />
<path d="M 83.5 16.0 L 83.66666666666667 15.666666666666666 L 83.66666666666667 15.333333333333334 L 83.33333333333333 15.333333333333334 L 83.0 15.5 Z" stroke="none" fill="rgb(0,0,0)" />
<path d="M 15.5 74.0 L 15.666666666666666 73.66666666666667 L 15.666666666666666 73.33333333333333 L 15.333333333333334 73.33333333333333 L 15.0 73.5 Z" stroke="none" fill="rgb(0,0,0)" />
</svg>
