<?xml version="1.0" encoding="UTF-8" standalone="no"?>
<!DOCTYPE svg PUBLIC "-//W3C//DTD SVG 1.1//EN"
"http://www.w3.org/Graphics/SVG/1.1/DTD/svg11.dtd">
<svg width="128" height="128" xmlns="http://www.w3.org/2000/svg" version="1.1">
<path d="M 26.5 128.0 L 27.0 128.0 L 28.0 128.0 L 29.0 128.0 L 30.0 128.0 L 31.0 128.0 L 32.0 128.0 L 33.0 128.0 L 34.0 128.0 L 35.0 128.0 L 36.0 128.0 L 37.0 128.0 L 38.0 128.0 L 39.0 128.0 L 40.0 128.0 L 41.0 128.0 L 42.0 128.0 L 43.0 128.0 L 44.0 128.0 L 45.0 128.0 L 46.0 128.0 L 47.0 128.0 L 48.0 128.0 L 49.0 128.0 L 50.0 128.0 L 51.0 128.0 L 52.0 128.0 L 53.0 128.0 L 54.0 128.0 L 55.0 128.0 L 56.0 128.0 L 57.0 128.0 L 58.0 128.0 L 59.0 128.0 L 60.0 128.0 L 61.0 128.0 L 62.0 128.0 L 63.0 128.0 L 64.0 128.0 L 65.0 128.0 L 66.0 128.0 L 67.0 128.0 L 68.0 128.0 L 69.0 128.0 L 70.0 128.0 L 71.0 128.0 L 72.0 128.0 L 73.0 128.0 L 74.0 128.0 L 75.0 128.0 L 76.0 128.0 L 77.0 128.0 L 78.0 128.0 L 79.0 128.0 L 80.0 128.0 L 81.0 128.0 L 82.0 128.0 L 83.0 128.0 L 84.0 128.0 L 85.0 128.0 L 86.0 128.0 L 87.0 128.0 L 88.0 128.0 L 89.0 128.0 L 90.0 128.0 L 91.0 128.0 L 92.0 128.0 L 93.0 128.0 L 94.0 128.0 L 95.0 128.0 L 96.0 128.0 L 97.0 128.0 L 98.0 128.0 L 99.0 128.0 L 100.0 128.0 L 101.0 128.0 L 102.0 128.0 L 103.0 128.0 L 104.0 128.0 L 105.0 128.0 L 106.0 128.0 L 107.0 128.0 L 108.0 128.0 L 109.0 128.0 L 110.0 128.0 L 111.0 128.0 L 112.0 128.0 L 113.0 128.0 L 114.0 128.0 L 115.0 128.0 L 116.0 128.0 L 117.0 128.0 L 118.0 128.0 L 119.0 128.0 L 120.0 128.0 L 121.0 128.0 L 122.0 128.0 L 123.0 128.0 L 124.0 128.0 L 125.0 128.0 L 126.0 128.0 L 127.0 128.0 L 127.66666666666667 127.66666666666667 L 128.0 127.0 L 128.0 126.0 L 128.0 125.0 L 128.0 124.0 L 128.0 123.0 L 128.0 122.0 L 128.0 121.0 L 128.0 120.0 L 128.0 119.0 L 128.0 118.0 L 128.0 117.0 L 128.0 116.0 L 128.0 115.0 L 128.0 114.0 L 128.0 113.0 L 128.0 112.0 L 128.0 111.0 L 128.0 110.0 L 128.0 109.0 L 128.0 108.0 L 128.0 107.0 L 128.0 106.0 L 128.0 105.0 L 128.0 104.0 L 128.0 103.0 L 128.0 102.0 L 128.0 101.0 L 128.0 100.0 L 128.0 99.0 L 128.0 98.0 L 128.0 97.0 L 128.0 96.0 L 128.0 95.0 L 128.0 94.0 L 128.0 93.0 L 128.0 92.0 L 128.0 91.0 L 128.0 90.0 L 128.0 89.0 L 128.0 88.0 L 128.0 87.0 L 128.0 86.0 L 128.0 85.0 L 128.0 84.0 L 128.0 83.0 L 128.0 82.0 L 128.0 81.0 L 128.0 80.0 L 128.0 79.0 L 128.0 78.0 L 128.0 77.0 L 128.0 76.0 L 128.0 75.0 L 128.0 74.0 L 128.0 73.0 L 128.0 72.0 L 128.0 71.0 L 128.0 70.0 L 128.0 69.0 L 128.0 68.0 L 128.0 67.0 L 128.0 66.0 L 128.0 65.0 L 128.0 64.0 L 128.0 63.0 L 128.0 62.0 L 128.0 61.0 L 128.0 60.0 L 128.0 59.0 L 128.0 58.0 L 128.0 57.0 L 128.0 56.0 L 128.0 55.0 L 128.0 54.0 L 128.0 53.0 L 128.0 52.0 L 128.0 51.0 L 128.0 50.0 L 128.0 49.0 L 128.0 48.0 L 128.0 47.0 L 128.0 46.0 L 128.0 45.0 L 128.0 44.0 L 128.0 43.0 L 128.0 42.0 L 128.0 41.0 L 128.0 40.0 L 128.0 39.0 L 128.0 38.0 L 128.0 37.0 L 128.0 36.0 L 128.0 35.0 L 128.0 34.0 L 128.0 33.0 L 128.0 32.0 L 128.0 31.0 L 128.0 30.0 L 128.0 29.0 L 128.0 28.0 L 128.0 27.0 L 128.0 26.0 L 128.0 25.0 L 128.0 24.0 L 128.0 23.0 L 128.0 22.0 L 128.0 21.0 L 128.0 20.0 L 128.0 19.0 L 128.0 18.0 L 128.0 17.0 L 128.0 16.0 L 128.0 15.0 L 128.0 14.0 L 128.0 13.0 L 128.0 12.0 L 128.0 11.0 L 128.0 10.0 L 128.0 9.0 L 128.0 8.0 L 128.0 7.0 L 128.0 6.0 L 128.0 5.0 L 128.0 4.0 L 128.0 3.0 L 128.0 2.0 L 128.0 1.0 L 127.66666666666667 0.3333333333333333 L 127.0 0.0 L 126.0 0.0 L 125.0 0.0 L 124.0 0.0 L 123.0 0.0 L 122.0 0.0 L 121.0 0.0 L 120.0 0.0 L 119.0 0.0 L 118.0 0.0 L 117.0 0.0 L 116.0 0.0 L 115.0 0.0 L 114.0 0.0 L 113.0 0.0 L 112.0 0.0 L 111.0 0.0 L 110.0 0.0 L 109.0 0.0 L 108.0 0.0 L 107.0 0.0 L 106.0 0.0 L 105.0 0.0 L 104.0 0.0 L 103.0 0.0 L 102.0 0.0 L 101.0 0.0 L 100.0 0.0 L 99.0 0.0 L 98.0 0.0 L 97.0 0.0 L 96.0 0.0 L 95.0 0.0 L 94.0 0.0 L 93.0 0.0 L 92.0 0.0 L 91.0 0.0 L 90.0 0.0 L 89.0 0.0 L 88.0 0.0 L 87.0 0.0 L 86.0 0.0 L 85.0 0.0 L 84.0 0.0 L 83.0 0.0 L 82.0 0.0 L 81.0 0.0 L 80.0 0.0 L 79.0 0.0 L 78.0 0.0 L 77.0 0.0 L 76.0 0.0 L 75.0 0.0 L 74.0 0.0 L 73.0 0.0 L 72.0 0.0 L 71.0 0.0 L 70.0 0.0 L 69.0 0.0 L 68.0 0.0 L 67.0 0.0 L 66.0 0.0 L 65.0 0.0 L 64.0 0.0 L 63.0 0.0 L 62.0 0.0 L 61.0 0.0 L 60.0 0.0 L 59.0 0.0 L 58.0 0.0 L 57.0 0.0 L 56.0 0.0 L 55.0 0.0 L 54.0 0.0 L 53.0 0.0 L 52.0 0.0 L 51.0 0.0 L 50.0 0.0 L 49.0 0.0 L 48.0 0.0 L 47.0 0.0 L 46.0 0.0 L 45.0 0.0 L 44.0 0.0 L 43.0 0.0 L 42.0 0.0 L 41.0 0.0 L 40.0 0.0 L 39.0 0.0 L 38.0 0.0 L 37.0 0.0 L 36.0 0.0 L 35.0 0.0 L 34.0 0.0 L 33.0 0.0 L 32.0 0.0 L 31.0 0.0 L 30.0 0.0 L 29.0 0.0 L 28.0 0.0 L 27.0 0.0 L 26.0 0.0 L 25.0 0.0 L 24.0 0.0 L 23.0 0.0 L 22.0 0.0 L 21.0 0.0 L 20.0 0.0 L 19.0 0.0 L 18.0 0.0 L 17.0 0.0 L 16.0 0.0 L 15.0 0.0 L 14.0 0.0 L 13.0 0.0 L 12.0 0.0 L 11.0 0.0 L 10.0 0.0 L 9.0 0.0 L 8.0 0.0 L 7.0 0.0 L 6.0 0.0 L 5.0 0.0 L 4.0 0.0 L 3.0 0.0 L 2.0 0.0 L 1.0 0.0 L 0.3333333333333333 0.3333333333333333 L 0.0 1.0 L 0.0 2.0 L 0.0 3.0 L 0.0 4.0 L 0.0 5.0 L 0.0 6.0 L 0.0 7.0 L 0.0 8.0 L 0.0 9.0 L 0.0 10.0 L 0.0 11.0 L 0.0 12.0 L 0.0 13.0 L 0.0 14.0 L 0.0 15.0 L 0.0 16.0 L 0.0 17.0 L 0.0 18.0 L 0.0 19.0 L 0.0 20.0 L 0.0 21.0 L 0.0 22.0 L 0.0 23.0 L 0.0 24.0 L 0.0 25.0 L 0.0 26.0 L 0.0 27.0 L 0.0 28.0 L 0.0 29.0 L 0.0 30.0 L 0.0 31.0 L 0.0 32.0 L 0.0 33.0 L 0.0 34.0 L 0.0 35.0 L 0.0 36.0 L 0.0 37.0 L 0.0 38.0 L 0.0 39.0 L 0.0 40.0 L 0.0 41.0 L 0.0 42.0 L 0.0 43.0 L 0.0 44.0 L 0.0 45.0 L 0.0 46.0 L 0.0 47.0 L 0.0 48.0 L 0.0 49.0 L 0.0 50.0 L 0.0 51.0 L 0.0 52.0 L 0.0 53.0 L 0.0 54.0 L 0.0 55.0 L 0.0 56.0 L 0.0 57.0 L 0.0 58.0 L 0.0 59.0 L 0.0 60.0 L 0.0 61.0 L 0.0 62.0 L 0.0 63.0 L 0.0 64.0 L 0.0 65.0 L 0.0 66.0 L 0.0 67.0 L 0.0 68.0 L 0.0 69.0 L 0.0 70.0 L 0.0 71.0 L 0.0 72.0 L 0.0 73.0 L 0.0 74.0 L 0.0 75.0 L 0.0 76.0 L 0.0 77.0 L 0.0 78.0 L 0.0 79.0 L 0.0 80.0 L 0.0 81.0 L 0.0 82.0 L 0.0 83.0 L 0.0 84.0 L 0.0 85.0 L 0.0 86.0 L 0.0 87.0 L 0.0 88.0 L 0.0 89.0 L 0.0 90.0 L 0.0 91.0 L 0.0 92.0 L 0.0 93.0 L 0.0 94.0 L 0.0 95.0 L 0.0 96.0 L 0.0 97.0 L 0.0 98.0 L 0.0 99.0 L 0.0 100.0 L 0.0 101.0 L 0.0 102.0 L 0.0 103.0 L 0.0 104.0 L 0.0 105.0 L 0.0 106.0 L 0.0 107.0 L 0.0 108.0 L 0.0 109.0 L 0.0 110.0 L 0.0 111.0 L 0.0 112.0 L 0.0 113.0 L 0.0 114.0 L 0.0 115.0 L 0.0 116.0 L 0.0 117.0 L 0.0 118.0 L 0.0 119.0 L 0.0 120.0 L 0.0 121.0 L 0.0 122.0 L 0.0 123.0 L 0.0 124.0 L 0.0 125.0 L 0.0 126.0 L 0.0 127.0 L 0.3333333333333333 127.66666666666667 L 1.0 128.0 L 2.0 128.0 L 3.0 128.0 L 4.0 128.0 L 5.0 128.0 L 6.0 128.0 L 7.0 128.0 L 8.0 128.0 L 9.0 128.0 L 10.0 128.0 L 11.0 128.0 L 12.0 128.0 L 13.0 128.0 L 14.0 128.0 L 15.0 128.0 L 16.0 128.0 L 17.0 128.0 L 18.0 128.0 L 19.0 128.0 L 20.0 128.0 L 21.0 128.0 L 22.0 128.0 L 23.0 128.0 L 24.0 128.0 L 25.0 128.0 L 25.5 128.0 Z" stroke="none" fill="rgb(0,0,0)" />
<path d="M 123.5 11.5 L 124.0 11.333333333333334 L 124.66666666666667 10.666666666666666 L 125.33333333333333 10.0 L 125.66666666666667 9.0 L 126.0 8.0 L 126.0 7.0 L 126.0 6.0 L 126.0 5.0 L 125.66666666666667 4.0 L 125.33333333333333 3.0 L 124.66666666666667 2.3333333333333335 L 124.0 1.6666666666666667 L 123.0 1.3333333333333333 L 122.0 1.0 L 121.0 1.0 L 120.0 1.0 L 119.0 1.3333333333333333 L 118.0 1.6666666666666667 L 117.0 2.3333333333333335 L 116.33333333333333 3.0 L 116.0 4.0 L 116.0 5.0 L 116.0 6.0 L 116.0 7.0 L 116.0 8.0 L 116.33333333333333 9.0 L 117.0 10.0 L 118.0 11.0 L 119.0 11.666666666666666 L 120.0 12.0 L 121.0 12.0 L 122.0 12.0 L 122.5 12.0 Z" stroke="none" fill="rgb(201,55,55)" />
<path d="M 117.5 12.0 L 118.0 12.0 L 118.66666666666667 11.666666666666666 L 118.66666666666667 11.0 L 118.0 10.0 L 117.0 9.0 L 116.0 8.333333333333334 L 115.0 8.0 L 114.0 8.333333333333334 L 113.0 8.666666666666666 L 112.33333333333333 9.333333333333334 L 112.0 10.0 L 112.33333333333333 10.666666666666666 L 113.0 11.0 L 114.0 11.333333333333334 L 115.0 11.666666666666666 L 116.0 12.0 L 116.5 12.0 Z" stroke="none" fill="rgb(255,68,68)" />
<path d="M 21.5 20.0 L 22.0 20.0 L 23.0 20.0 L 24.0 20.0 L 25.0 20.0 L 26.0 20.0 L 27.0 20.0 L 28.0 20.0 L 29.0 19.666666666666668 L 30.0 19.0 L 30.666666666666668 18.0 L 31.0 17.0 L 31.0 16.0 L 31.0 15.0 L 31.0 14.0 L 31.0 13.0 L 30.666666666666668 12.0 L 30.0 11.0 L 29.0 10.333333333333334 L 28.0 10.0 L 27.0 10.0 L 26.0 10.0 L 25.0 10.0 L 24.0 10.0 L 23.0 10.0 L 22.0 10.0 L 21.0 10.0 L 20.0 10.0 L 19.0 10.333333333333334 L 18.0 11.0 L 17.333333333333332 12.0 L 17.0 13.0 L 17.0 14.0 L 17.0 15.0 L 17.0 16.0 L 17.0 17.0 L 17.333333333333332 18.0 L 18.0 19.0 L 19.0 19.666666666666668 L 20.0 20.0 L 20.5 20.0 Z" stroke="none" fill="rgb(255,0,162)" />
<path d="M 106.5 16.0 L 107.0 16.0 L 108.0 16.0 L 109.0 16.333333333333332 L 110.0 16.666666666666668 L 111.0 17.0 L 112.0 17.0 L 113.0 17.0 L 114.0 17.0 L 115.0 17.0 L 116.0 17.333333333333332 L 117.0 17.666666666666668 L 118.0 17.666666666666668 L 118.66666666666667 17.0 L 119.0 16.0 L 119.0 15.0 L 119.0 14.0 L 119.0 13.0 L 118.66666666666667 12.333333333333334 L 118.0 12.0 L 117.0 12.0 L 116.0 11.666666666666666 L 115.0 11.333333333333334 L 114.0 11.0 L 113.0 11.0 L 112.0 11.0 L 111.0 11.0 L 110.0 11.0 L 109.0 11.333333333333334 L 108.0 11.666666666666666 L 107.0 12.333333333333334 L 106.0 12.666666666666666 L 105.0 13.333333333333334 L 104.33333333333333 14.0 L 104.0 15.0 L 104.33333333333333 15.666666666666666 L 105.0 16.0 L 105.5 16.0 Z" stroke="none" fill="rgb(255,154,157)" />
<path d="M 72.5 24.5 L 73.0 24.0 L 74.0 23.0 L 75.0 22.333333333333332 L 76.0 21.666666666666668 L 77.0 21.0 L 78.0 20.0 L 78.66666666666667 19.0 L 79.33333333333333 18.0 L 79.66666666666667 17.0 L 80.0 16.0 L 80.0 15.0 L 80.0 14.0 L 80.0 13.0 L 79.66666666666667 12.333333333333334 L 79.0 12.0 L 78.0 12.0 L 77.0 12.0 L 76.0 12.0 L 75.0 12.0 L 74.0 12.0 L 73.0 12.333333333333334 L 72.0 12.666666666666666 L 71.0 13.333333333333334 L 70.0 14.0 L 69.0 15.0 L 68.0 16.0 L 67.0 17.0 L 66.0 18.0 L 65.33333333333333 19.0 L 65.0 20.0 L 65.0 21.0 L 65.0 22.0 L 65.0 23.0 L 65.33333333333333 24.0 L 66.0 24.666666666666668 L 67.0 25.333333333333332 L 68.0 25.666666666666668 L 69.0 25.666666666666668 L 70.0 25.333333333333332 L 71.0 25.0 L 71.5 25.0 Z" stroke="none" fill="rgb(0,238,255)" />
<path d="M 110.5 22.0 L 111.0 22.0 L 112.0 22.333333333333332 L 113.0 22.666666666666668 L 114.0 23.0 L 115.0 23.0 L 116.0 23.0 L 116.66666666666667 22.666666666666668 L 117.33333333333333 22.0 L 117.66666666666667 21.0 L 118.0 20.0 L 118.0 19.0 L 117.66666666666667 18.0 L 117.0 17.333333333333332 L 116.0 17.0 L 115.0 17.0 L 114.0 17.0 L 113.0 17.0 L 112.0 17.0 L 111.0 16.666666666666668 L 110.0 16.333333333333332 L 109.0 16.0 L 108.0 16.0 L 107.0 16.0 L 106.0 16.0 L 105.0 16.0 L 104.0 16.0 L 103.0 16.0 L 102.0 16.0 L 101.0 16.0 L 100.0 16.333333333333332 L 99.0 16.666666666666668 L 98.0 17.333333333333332 L 97.0 17.666666666666668 L 96.33333333333333 18.333333333333332 L 96.0 19.0 L 96.33333333333333 19.666666666666668 L 97.0 20.0 L 98.0 20.333333333333332 L 99.0 20.666666666666668 L 100.0 21.0 L 101.0 21.0 L 102.0 21.0 L 103.0 21.0 L 104.0 21.0 L 105.0 21.333333333333332 L 106.0 21.666666666666668 L 107.0 22.0 L 108.0 22.0 L 109.0 22.0 L 109.5 22.0 Z" stroke="none" fill="rgb(255,68,68)" />
<path d="M 50.5 31.0 L 51.0 31.0 L 52.0 31.0 L 53.0 30.666666666666668 L 54.0 30.0 L 54.666666666666664 29.0 L 55.0 28.0 L 55.0 27.0 L 55.0 26.0 L 55.0 25.0 L 54.666666666666664 24.0 L 54.333333333333336 23.0 L 53.666666666666664 22.0 L 53.0 21.333333333333332 L 52.0 20.666666666666668 L 51.0 20.333333333333332 L 50.0 20.0 L 49.0 20.0 L 48.0 20.0 L 47.0 20.0 L 46.0 20.333333333333332 L 45.0 21.0 L 44.333333333333336 22.0 L 44.0 23.0 L 44.0 24.0 L 44.0 25.0 L 44.333333333333336 26.0 L 44.666666666666664 27.0 L 45.333333333333336 28.0 L 46.0 29.0 L 47.0 30.0 L 48.0 30.666666666666668 L 49.0 31.0 L 49.5 31.0 Z" stroke="none" fill="rgb(255,68,68)" />
<path d="M 88.5 25.0 L 89.0 25.0 L 90.0 25.0 L 91.0 25.0 L 92.0 25.333333333333332 L 93.0 25.666666666666668 L 94.0 26.0 L 95.0 26.0 L 96.0 26.0 L 97.0 26.0 L 98.0 26.0 L 99.0 26.0 L 100.0 26.333333333333332 L 101.0 26.666666666666668 L 102.0 27.0 L 103.0 27.0 L 104.0 27.0 L 105.0 27.0 L 106.0 27.0 L 107.0 27.333333333333332 L 108.0 27.666666666666668 L 109.0 28.0 L 110.0 28.0 L 111.0 28.0 L 112.0 28.0 L 113.0 28.333333333333332 L 114.0 28.666666666666668 L 115.0 29.0 L 115.66666666666667 28.666666666666668 L 116.0 28.0 L 116.0 27.0 L 116.33333333333333 26.0 L 116.66666666666667 25.0 L 117.0 24.0 L 116.66666666666667 23.333333333333332 L 116.0 23.0 L 115.0 23.0 L 114.0 22.666666666666668 L 113.0 22.333333333333332 L 112.0 22.0 L 111.0 22.0 L 110.0 22.0 L 109.0 22.0 L 108.0 22.0 L 107.0 21.666666666666668 L 106.0 21.333333333333332 L 105.0 21.0 L 104.0 21.0 L 103.0 21.0 L 102.0 21.0 L 101.0 21.0 L 100.0 20.666666666666668 L 99.0 20.333333333333332 L 98.0 20.0 L 97.0 20.0 L 96.0 20.0 L 95.0 20.0 L 94.0 20.0 L 93.0 20.333333333333332 L 92.0 20.666666666666668 L 91.0 21.333333333333332 L 90.0 21.666666666666668 L 89.0 22.333333333333332 L 88.33333333333333 23.0 L 88.0 24.0 L 88.0 24.5 Z" stroke="none" fill="rgb(255,154,157)" />
<path d="M 56.5 27.0 L 57.0 27.0 L 58.0 27.0 L 59.0 26.666666666666668 L 59.666666666666664 26.0 L 59.666666666666664 25.333333333333332 L 59.0 25.0 L 58.0 25.0 L 57.0 25.0 L 56.0 25.0 L 55.333333333333336 25.333333333333332 L 55.0 26.0 L 55.333333333333336 26.666666666666668 L 55.5 27.0 Z" stroke="none" fill="rgb(244,165,36)" />
<path d="M 59.5 29.0 L 60.0 29.0 L 61.0 28.666666666666668 L 62.0 28.333333333333332 L 63.0 28.0 L 64.0 28.0 L 65.0 28.333333333333332 L 66.0 28.666666666666668 L 67.0 29.0 L 68.0 29.0 L 69.0 29.0 L 70.0 29.0 L 71.0 29.0 L 72.0 29.0 L 73.0 29.333333333333332 L 74.0 29.666666666666668 L 75.0 30.0 L 76.0 30.0 L 76.66666666666667 29.666666666666668 L 77.0 29.0 L 76.66666666666667 28.333333333333332 L 76.0 27.666666666666668 L 75.0 27.333333333333332 L 74.0 27.0 L 73.0 27.0 L 72.0 27.0 L 71.0 27.0 L 70.0 26.666666666666668 L 69.0 26.0 L 68.0 25.333333333333332 L 67.0 25.0 L 66.0 25.333333333333332 L 65.0 25.666666666666668 L 64.0 26.0 L 63.0 26.0 L 62.0 26.0 L 61.0 26.0 L 60.0 26.0 L 59.0 26.333333333333332 L 58.0 26.666666666666668 L 57.0 27.0 L 56.0 27.0 L 55.333333333333336 27.333333333333332 L 55.0 28.0 L 55.333333333333336 28.666666666666668 L 56.0 29.0 L 57.0 29.0 L 58.0 29.0 L 58.5 29.0 Z" stroke="none" fill="rgb(245,183,41)" />
<path d="M 78.5 29.0 L 79.0 29.0 L 79.66666666666667 28.666666666666668 L 80.0 28.0 L 79.66666666666667 27.333333333333332 L 79.0 26.666666666666668 L 78.0 26.333333333333332 L 77.0 26.0 L 76.0 26.0 L 75.0 26.0 L 74.0 25.666666666666668 L 73.0 25.333333333333332 L 72.0 25.0 L 71.0 25.0 L 70.0 25.0 L 69.33333333333333 25.333333333333332 L 69.0 26.0 L 69.33333333333333 26.666666666666668 L 70.0 27.0 L 71.0 27.0 L 72.0 27.0 L 73.0 27.0 L 74.0 27.333333333333332 L 75.0 27.666666666666668 L 76.0 28.333333333333332 L 77.0 28.666666666666668 L 77.5 29.0 Z" stroke="none" fill="rgb(244,165,36)" />
<path d="M 105.5 32.5 L 106.0 32.666666666666664 L 107.0 33.0 L 108.0 33.0 L 109.0 33.0 L 110.0 33.0 L 111.0 33.0 L 112.0 33.333333333333336 L 113.0 33.666666666666664 L 114.0 33.666666666666664 L 114.66666666666667 33.0 L 115.0 32.0 L 115.0 31.0 L 115.0 30.0 L 114.66666666666667 29.0 L 114.0 28.333333333333332 L 113.0 28.0 L 112.0 28.0 L 111.0 28.0 L 110.0 28.0 L 109.0 27.666666666666668 L 108.0 27.333333333333332 L 107.0 27.0 L 106.0 27.0 L 105.0 27.0 L 104.0 27.0 L 103.0 27.0 L 102.0 26.666666666666668 L 101.0 26.333333333333332 L 100.0 26.0 L 99.0 26.0 L 98.0 26.0 L 97.0 26.0 L 96.0 26.0 L 95.0 26.0 L 94.0 25.666666666666668 L 93.0 25.333333333333332 L 92.0 25.0 L 91.0 25.0 L 90.0 25.0 L 89.0 25.0 L 88.0 25.0 L 87.0 25.0 L 86.0 25.0 L 85.0 25.0 L 84.0 25.333333333333332 L 83.0 25.666666666666668 L 82.0 26.333333333333332 L 81.0 27.0 L 80.33333333333333 28.0 L 80.33333333333333 28.666666666666668 L 81.0 29.0 L 82.0 29.0 L 83.0 29.0 L 84.0 29.333333333333332 L 85.0 29.666666666666668 L 86.0 30.0 L 87.0 30.0 L 88.0 30.0 L 89.0 30.0 L 90.0 30.0 L 91.0 30.333333333333332 L 92.0 30.666666666666668 L 93.0 31.0 L 94.0 31.0 L 95.0 31.0 L 96.0 31.0 L 97.0 31.0 L 98.0 31.333333333333332 L 99.0 31.666666666666668 L 100.0 32.0 L 101.0 32.0 L 102.0 32.0 L 103.0 32.0 L 104.0 32.0 L 104.5 32.0 Z" stroke="none" fill="rgb(255,68,68)" />
<path d="M 23.0 48.5 L 23.333333333333332 48.0 L 24.0 47.0 L 25.0 46.0 L 25.666666666666668 45.0 L 26.333333333333332 44.0 L 27.0 43.0 L 28.0 42.0 L 29.0 41.0 L 30.0 40.0 L 31.0 39.0 L 32.0 38.0 L 33.0 37.333333333333336 L 34.0 36.666666666666664 L 35.0 36.0 L 36.0 35.0 L 37.0 34.333333333333336 L 38.0 33.666666666666664 L 39.0 33.333333333333336 L 40.0 32.666666666666664 L 41.0 32.333333333333336 L 42.0 31.666666666666668 L 43.0 31.333333333333332 L 44.0 30.666666666666668 L 45.0 30.333333333333332 L 45.666666666666664 29.666666666666668 L 46.0 29.0 L 45.666666666666664 28.333333333333332 L 45.0 28.0 L 44.0 28.0 L 43.0 28.333333333333332 L 42.0 28.666666666666668 L 41.0 29.0 L 40.0 29.333333333333332 L 39.0 29.666666666666668 L 38.0 30.333333333333332 L 37.0 30.666666666666668 L 36.0 31.333333333333332 L 35.0 31.666666666666668 L 34.0 32.333333333333336 L 33.0 33.0 L 32.0 33.666666666666664 L 31.0 34.333333333333336 L 30.0 35.0 L 29.0 36.0 L 28.0 36.666666666666664 L 27.0 37.333333333333336 L 26.0 38.0 L 25.0 39.0 L 24.0 40.0 L 23.0 41.0 L 22.333333333333332 42.0 L 21.666666666666668 43.0 L 21.0 44.0 L 20.0 45.0 L 19.333333333333332 46.0 L 18.666666666666668 47.0 L 18.333333333333332 48.0 L 17.666666666666668 49.0 L 17.333333333333332 50.0 L 16.666666666666668 51.0 L 16.333333333333332 52.0 L 15.666666666666666 53.0 L 15.333333333333334 54.0 L 14.666666666666666 55.0 L 14.333333333333334 56.0 L 14.0 57.0 L 13.666666666666666 58.0 L 13.333333333333334 59.0 L 13.0 60.0 L 13.0 61.0 L 13.0 62.0 L 12.666666666666666 63.0 L 12.333333333333334 64.0 L 12.0 65.0 L 12.0 66.0 L 12.0 67.0 L 12.0 68.0 L 12.0 69.0 L 12.0 70.0 L 12.0 71.0 L 12.0 72.0 L 12.0 73.0 L 12.0 74.0 L 12.0 75.0 L 12.0 76.0 L 12.0 77.0 L 12.0 78.0 L 12.0 79.0 L 12.0 80.0 L 12.0 81.0 L 12.0 82.0 L 12.0 83.0 L 12.0 84.0 L 12.0 85.0 L 12.0 86.0 L 12.333333333333334 87.0 L 12.666666666666666 88.0 L 13.0 89.0 L 13.0 90.0 L 13.333333333333334 91.0 L 13.666666666666666 92.0 L 14.0 93.0 L 14.333333333333334 94.0 L 14.666666666666666 95.0 L 15.333333333333334 95.66666666666667 L 16.0 96.0 L 17.0 96.0 L 18.0 96.0 L 18.666666666666668 95.66666666666667 L 19.0 95.0 L 18.666666666666668 94.0 L 18.333333333333332 93.0 L 18.0 92.0 L 17.666666666666668 91.0 L 17.666666666666668 90.0 L 17.666666666666668 89.0 L 17.666666666666668 88.0 L 17.333333333333332 87.0 L 16.666666666666668 86.0 L 16.333333333333332 85.0 L 15.666666666666666 84.0 L 15.333333333333334 83.0 L 15.0 82.0 L 15.0 81.0 L 15.0 80.0 L 15.0 79.0 L 15.0 78.0 L 15.0 77.0 L 15.0 76.0 L 15.0 75.0 L 15.0 74.0 L 15.0 73.0 L 15.0 72.0 L 15.0 71.0 L 15.0 70.0 L 15.0 69.0 L 15.333333333333334 68.0 L 15.666666666666666 67.0 L 16.0 66.0 L 16.0 65.0 L 16.0 64.0 L 16.333333333333332 63.0 L 16.666666666666668 62.0 L 17.0 61.0 L 17.333333333333332 60.0 L 17.666666666666668 59.0 L 18.0 58.0 L 18.333333333333332 57.0 L 18.666666666666668 56.0 L 19.333333333333332 55.0 L 19.666666666666668 54.0 L 20.333333333333332 53.0 L 20.666666666666668 52.0 L 21.333333333333332 51.0 L 22.0 50.0 L 22.5 49.5 Z" stroke="none" fill="rgb(244,165,36)" />
<path d="M 53.5 38.0 L 54.0 37.666666666666664 L 55.0 37.333333333333336 L 56.0 37.0 L 57.0 37.0 L 58.0 37.0 L 59.0 36.666666666666664 L 60.0 36.333333333333336 L 61.0 36.0 L 62.0 36.0 L 63.0 36.0 L 64.0 36.0 L 65.0 36.0 L 66.0 36.0 L 67.0 36.0 L 68.0 36.333333333333336 L 69.0 36.666666666666664 L 70.0 37.0 L 71.0 37.0 L 72.0 37.0 L 73.0 37.333333333333336 L 74.0 37.666666666666664 L 75.0 38.0 L 76.0 38.333333333333336 L 77.0 38.666666666666664 L 78.0 39.333333333333336 L 79.0 39.666666666666664 L 80.0 40.333333333333336 L 81.0 40.666666666666664 L 82.0 41.0 L 82.66666666666667 40.666666666666664 L 82.66666666666667 40.0 L 82.0 39.0 L 81.0 38.0 L 80.0 37.0 L 79.33333333333333 36.0 L 78.66666666666667 35.0 L 78.0 34.0 L 77.33333333333333 33.0 L 76.66666666666667 32.0 L 76.33333333333333 31.0 L 75.66666666666667 30.333333333333332 L 75.0 29.666666666666668 L 74.0 29.333333333333332 L 73.0 29.0 L 72.0 29.0 L 71.0 29.0 L 70.0 29.0 L 69.0 29.0 L 68.0 29.0 L 67.0 28.666666666666668 L 66.0 28.333333333333332 L 65.0 28.0 L 64.0 28.0 L 63.0 28.0 L 62.0 28.0 L 61.0 28.333333333333332 L 60.0 28.666666666666668 L 59.0 29.0 L 58.0 29.0 L 57.0 29.0 L 56.0 29.0 L 55.0 29.0 L 54.0 29.333333333333332 L 53.0 30.0 L 52.0 30.666666666666668 L 51.0 31.0 L 50.0 31.0 L 49.0 31.0 L 48.0 31.0 L 47.0 31.333333333333332 L 46.0 31.666666666666668 L 45.0 32.333333333333336 L 44.0 32.666666666666664 L 43.0 33.333333333333336 L 42.0 33.666666666666664 L 41.0 34.333333333333336 L 40.0 34.666666666666664 L 39.0 35.333333333333336 L 38.0 35.666666666666664 L 37.0 36.333333333333336 L 36.0 37.0 L 35.0 38.0 L 34.0 39.0 L 33.0 39.666666666666664 L 32.0 40.333333333333336 L 31.0 41.0 L 30.0 42.0 L 29.0 43.0 L 28.333333333333332 44.0 L 27.666666666666668 45.0 L 27.0 46.0 L 26.0 47.0 L 25.333333333333332 48.0 L 24.666666666666668 49.0 L 24.0 50.0 L 23.333333333333332 51.0 L 22.666666666666668 52.0 L 22.333333333333332 53.0 L 21.666666666666668 54.0 L 21.333333333333332 55.0 L 20.666666666666668 56.0 L 20.333333333333332 57.0 L 20.0 58.0 L 19.666666666666668 59.0 L 19.333333333333332 60.0 L 19.0 61.0 L 18.666666666666668 62.0 L 18.333333333333332 63.0 L 18.0 64.0 L 18.0 65.0 L 18.0 66.0 L 17.666666666666668 67.0 L 17.333333333333332 68.0 L 17.0 69.0 L 17.0 70.0 L 17.0 71.0 L 17.0 72.0 L 17.333333333333332 72.66666666666667 L 18.0 72.66666666666667 L 19.0 72.0 L 20.0 71.33333333333333 L 20.666666666666668 70.66666666666667 L 21.333333333333332 70.0 L 22.0 69.0 L 23.0 68.0 L 24.0 67.0 L 25.0 66.0 L 26.0 65.33333333333333 L 27.0 65.0 L 28.0 64.66666666666667 L 29.0 64.33333333333333 L 30.0 64.0 L 31.0 64.0 L 32.0 64.0 L 33.0 64.0 L 33.666666666666664 63.666666666666664 L 34.0 63.0 L 33.666666666666664 62.333333333333336 L 33.0 62.0 L 32.0 61.666666666666664 L 31.0 61.333333333333336 L 30.0 61.0 L 29.0 60.666666666666664 L 28.333333333333332 60.0 L 28.333333333333332 59.0 L 28.666666666666668 58.0 L 29.333333333333332 57.0 L 30.0 56.0 L 30.666666666666668 55.0 L 31.333333333333332 54.0 L 32.0 53.0 L 33.0 52.0 L 33.666666666666664 51.0 L 34.333333333333336 50.0 L 35.0 49.0 L 36.0 48.0 L 37.0 47.0 L 38.0 46.0 L 39.0 45.333333333333336 L 40.0 44.666666666666664 L 41.0 44.0 L 42.0 43.0 L 43.0 42.333333333333336 L 44.0 41.666666666666664 L 45.0 41.333333333333336 L 46.0 40.666666666666664 L 47.0 40.333333333333336 L 48.0 39.666666666666664 L 49.0 39.333333333333336 L 50.0 39.0 L 51.0 38.666666666666664 L 52.0 38.333333333333336 L 52.5 38.0 Z" stroke="none" fill="rgb(248,197,44)" />
<path d="M 23.0 52.5 L 23.333333333333332 52.0 L 24.0 51.0 L 24.666666666666668 50.0 L 25.333333333333332 49.0 L 26.0 48.0 L 27.0 47.0 L 27.666666666666668 46.0 L 28.333333333333332 45.0 L 29.0 44.0 L 30.0 43.0 L 31.0 42.0 L 32.0 41.0 L 33.0 40.333333333333336 L 34.0 39.666666666666664 L 35.0 39.0 L 36.0 38.0 L 37.0 37.0 L 38.0 36.333333333333336 L 39.0 35.666666666666664 L 40.0 35.333333333333336 L 41.0 34.666666666666664 L 42.0 34.333333333333336 L 43.0 33.666666666666664 L 44.0 33.333333333333336 L 45.0 32.666666666666664 L 46.0 32.333333333333336 L 47.0 31.666666666666668 L 47.666666666666664 31.0 L 47.666666666666664 30.0 L 47.0 29.333333333333332 L 46.0 29.333333333333332 L 45.0 29.666666666666668 L 44.0 30.333333333333332 L 43.0 30.666666666666668 L 42.0 31.333333333333332 L 41.0 31.666666666666668 L 40.0 32.333333333333336 L 39.0 32.666666666666664 L 38.0 33.333333333333336 L 37.0 33.666666666666664 L 36.0 34.333333333333336 L 35.0 35.0 L 34.0 36.0 L 33.0 36.666666666666664 L 32.0 37.333333333333336 L 31.0 38.0 L 30.0 39.0 L 29.0 40.0 L 28.0 41.0 L 27.0 42.0 L 26.333333333333332 43.0 L 25.666666666666668 44.0 L 25.0 45.0 L 24.0 46.0 L 23.333333333333332 47.0 L 22.666666666666668 48.0 L 22.0 49.0 L 21.333333333333332 50.0 L 20.666666666666668 51.0 L 20.333333333333332 52.0 L 19.666666666666668 53.0 L 19.333333333333332 54.0 L 18.666666666666668 55.0 L 18.333333333333332 56.0 L 18.0 57.0 L 17.666666666666668 58.0 L 17.333333333333332 59.0 L 17.0 60.0 L 16.666666666666668 61.0 L 16.333333333333332 62.0 L 16.0 63.0 L 16.0 64.0 L 16.0 65.0 L 15.666666666666666 66.0 L 15.333333333333334 67.0 L 15.0 68.0 L 15.0 69.0 L 15.0 70.0 L 15.0 71.0 L 15.0 72.0 L 15.0 73.0 L 15.0 74.0 L 15.0 75.0 L 15.0 76.0 L 15.0 77.0 L 15.0 78.0 L 15.0 79.0 L 15.0 80.0 L 15.0 81.0 L 15.0 82.0 L 15.0 83.0 L 15.333333333333334 84.0 L 15.666666666666666 85.0 L 16.333333333333332 85.66666666666667 L 17.0 86.0 L 17.666666666666668 85.66666666666667 L 18.0 85.0 L 18.333333333333332 84.0 L 18.666666666666668 83.0 L 19.0 82.0 L 19.0 81.0 L 19.0 80.0 L 19.0 79.0 L 19.0 78.0 L 19.333333333333332 77.0 L 19.666666666666668 76.0 L 20.0 75.0 L 20.0 74.0 L 20.0 73.0 L 20.0 72.0 L 19.666666666666668 71.33333333333333 L 19.0 71.33333333333333 L 18.0 71.33333333333333 L 17.333333333333332 71.0 L 17.0 70.0 L 17.333333333333332 69.0 L 17.666666666666668 68.0 L 18.0 67.0 L 18.0 66.0 L 18.0 65.0 L 18.333333333333332 64.0 L 18.666666666666668 63.0 L 19.0 62.0 L 19.333333333333332 61.0 L 19.666666666666668 60.0 L 20.0 59.0 L 20.333333333333332 58.0 L 20.666666666666668 57.0 L 21.333333333333332 56.0 L 21.666666666666668 55.0 L 22.333333333333332 54.0 L 22.5 53.5 Z" stroke="none" fill="rgb(245,183,41)" />
<path d="M 91.5 36.0 L 92.0 36.0 L 93.0 36.333333333333336 L 94.0 36.666666666666664 L 95.0 37.0 L 96.0 37.0 L 97.0 37.0 L 98.0 37.0 L 99.0 37.0 L 100.0 37.333333333333336 L 101.0 37.666666666666664 L 102.0 38.0 L 103.0 38.0 L 104.0 38.0 L 105.0 38.0 L 106.0 38.0 L 107.0 38.333333333333336 L 108.0 38.666666666666664 L 109.0 39.0 L 110.0 39.0 L 111.0 39.0 L 112.0 39.0 L 112.66666666666667 38.666666666666664 L 113.33333333333333 38.0 L 113.66666666666667 37.0 L 114.0 36.0 L 114.0 35.0 L 113.66666666666667 34.0 L 113.0 33.333333333333336 L 112.0 33.0 L 111.0 33.0 L 110.0 33.0 L 109.0 33.0 L 108.0 33.0 L 107.0 32.666666666666664 L 106.0 32.333333333333336 L 105.0 32.0 L 104.0 32.0 L 103.0 32.0 L 102.0 32.0 L 101.0 32.0 L 100.0 31.666666666666668 L 99.0 31.333333333333332 L 98.0 31.0 L 97.0 31.0 L 96.0 31.0 L 95.0 31.0 L 94.0 31.0 L 93.0 30.666666666666668 L 92.0 30.333333333333332 L 91.0 30.0 L 90.0 30.0 L 89.0 30.0 L 88.0 30.0 L 87.0 30.0 L 86.0 29.666666666666668 L 85.0 29.333333333333332 L 84.0 29.0 L 83.0 29.0 L 82.0 29.0 L 81.0 29.0 L 80.0 29.0 L 79.0 29.0 L 78.0 29.0 L 77.0 29.333333333333332 L 76.33333333333333 30.0 L 76.0 31.0 L 76.33333333333333 32.0 L 76.66666666666667 33.0 L 77.33333333333333 34.0 L 78.0 34.666666666666664 L 79.0 35.0 L 80.0 35.0 L 81.0 35.0 L 82.0 35.0 L 83.0 35.0 L 84.0 35.0 L 85.0 35.0 L 86.0 35.333333333333336 L 87.0 35.666666666666664 L 88.0 36.0 L 89.0 36.0 L 90.0 36.0 L 90.5 36.0 Z" stroke="none" fill="rgb(255,154,157)" />
<path d="M 87.5 41.0 L 88.0 41.0 L 89.0 41.0 L 90.0 41.0 L 91.0 41.333333333333336 L 92.0 41.666666666666664 L 93.0 42.0 L 94.0 42.0 L 95.0 42.0 L 96.0 42.0 L 97.0 42.0 L 98.0 42.333333333333336 L 99.0 42.666666666666664 L 100.0 43.0 L 101.0 43.0 L 102.0 43.0 L 103.0 43.0 L 104.0 43.0 L 105.0 43.333333333333336 L 106.0 43.666666666666664 L 107.0 44.0 L 108.0 44.0 L 109.0 44.333333333333336 L 110.0 44.666666666666664 L 111.0 45.0 L 111.66666666666667 44.666666666666664 L 112.0 44.0 L 112.0 43.0 L 112.33333333333333 42.0 L 112.66666666666667 41.0 L 112.66666666666667 40.0 L 112.0 39.333333333333336 L 111.0 39.0 L 110.0 39.0 L 109.0 38.666666666666664 L 108.0 38.333333333333336 L 107.0 38.0 L 106.0 38.0 L 105.0 38.0 L 104.0 38.0 L 103.0 38.0 L 102.0 37.666666666666664 L 101.0 37.333333333333336 L 100.0 37.0 L 99.0 37.0 L 98.0 37.0 L 97.0 37.0 L 96.0 37.0 L 95.0 36.666666666666664 L 94.0 36.333333333333336 L 93.0 36.0 L 92.0 36.0 L 91.0 36.0 L 90.0 36.0 L 89.0 36.0 L 88.0 35.666666666666664 L 87.0 35.333333333333336 L 86.0 35.0 L 85.0 35.0 L 84.0 35.0 L 83.0 35.0 L 82.0 35.0 L 81.0 35.0 L 80.0 35.0 L 79.33333333333333 35.333333333333336 L 79.0 36.0 L 79.33333333333333 37.0 L 80.0 38.0 L 81.0 39.0 L 82.0 40.0 L 83.0 40.666666666666664 L 84.0 41.0 L 85.0 41.0 L 86.0 41.0 L 86.5 41.0 Z" stroke="none" fill="rgb(255,68,68)" />
<path d="M 62.5 44.0 L 63.0 44.0 L 64.0 44.0 L 65.0 44.0 L 66.0 44.0 L 67.0 44.333333333333336 L 68.0 44.666666666666664 L 69.0 45.0 L 70.0 45.0 L 71.0 45.0 L 72.0 45.333333333333336 L 73.0 45.666666666666664 L 74.0 46.333333333333336 L 75.0 46.666666666666664 L 76.0 47.0 L 77.0 47.333333333333336 L 78.0 48.0 L 79.0 48.666666666666664 L 80.0 49.333333333333336 L 81.0 50.0 L 82.0 50.666666666666664 L 83.0 51.333333333333336 L 84.0 52.0 L 85.0 53.0 L 86.0 53.666666666666664 L 87.0 54.333333333333336 L 88.0 55.0 L 89.0 56.0 L 90.0 57.0 L 91.0 58.0 L 92.0 59.0 L 92.66666666666667 60.0 L 93.33333333333333 61.0 L 93.66666666666667 62.0 L 94.0 63.0 L 93.66666666666667 64.0 L 93.33333333333333 65.0 L 93.0 66.0 L 93.33333333333333 67.0 L 93.66666666666667 68.0 L 94.0 69.0 L 94.0 70.0 L 94.33333333333333 71.0 L 94.66666666666667 72.0 L 95.0 73.0 L 95.0 74.0 L 95.0 75.0 L 95.0 76.0 L 95.0 77.0 L 94.66666666666667 78.0 L 94.33333333333333 79.0 L 94.0 80.0 L 94.0 81.0 L 94.0 82.0 L 93.66666666666667 83.0 L 93.33333333333333 84.0 L 93.0 85.0 L 92.66666666666667 86.0 L 92.33333333333333 87.0 L 92.0 88.0 L 92.0 89.0 L 92.33333333333333 89.66666666666667 L 93.0 90.0 L 94.0 90.33333333333333 L 95.0 90.66666666666667 L 96.0 91.0 L 97.0 91.0 L 98.0 91.0 L 99.0 91.0 L 99.66666666666667 90.66666666666667 L 100.0 90.0 L 100.33333333333333 89.0 L 100.66666666666667 88.0 L 101.33333333333333 87.0 L 101.66666666666667 86.0 L 102.0 85.0 L 101.66666666666667 84.0 L 101.0 83.0 L 100.33333333333333 82.0 L 100.0 81.0 L 100.0 80.0 L 100.0 79.0 L 100.0 78.0 L 100.0 77.0 L 100.33333333333333 76.0 L 101.0 75.0 L 102.0 74.0 L 102.66666666666667 73.0 L 103.0 72.0 L 102.66666666666667 71.0 L 102.33333333333333 70.0 L 102.0 69.0 L 102.0 68.0 L 102.0 67.0 L 101.66666666666667 66.0 L 101.33333333333333 65.0 L 101.0 64.0 L 101.0 63.0 L 100.66666666666667 62.0 L 100.33333333333333 61.0 L 99.66666666666667 60.0 L 99.33333333333333 59.0 L 98.66666666666667 58.0 L 98.33333333333333 57.0 L 97.66666666666667 56.0 L 97.33333333333333 55.0 L 97.0 54.0 L 96.66666666666667 53.0 L 96.0 52.0 L 95.0 51.0 L 94.0 50.0 L 93.0 49.333333333333336 L 92.0 48.666666666666664 L 91.0 48.333333333333336 L 90.0 47.666666666666664 L 89.0 47.0 L 88.0 46.0 L 87.0 45.0 L 86.0 44.0 L 85.0 43.0 L 84.0 42.0 L 83.0 41.333333333333336 L 82.0 40.666666666666664 L 81.0 40.333333333333336 L 80.0 39.666666666666664 L 79.0 39.333333333333336 L 78.0 38.666666666666664 L 77.0 38.333333333333336 L 76.0 38.0 L 75.0 37.666666666666664 L 74.0 37.333333333333336 L 73.0 37.0 L 72.0 37.0 L 71.0 37.0 L 70.0 36.666666666666664 L 69.0 36.333333333333336 L 68.0 36.0 L 67.0 36.0 L 66.0 36.0 L 65.0 36.0 L 64.0 36.0 L 63.0 36.0 L 62.0 36.0 L 61.0 36.0 L 60.0 36.0 L 59.0 36.333333333333336 L 58.0 36.666666666666664 L 57.0 37.0 L 56.0 37.0 L 55.0 37.0 L 54.0 37.333333333333336 L 53.0 37.666666666666664 L 52.0 38.0 L 51.0 38.333333333333336 L 50.0 38.666666666666664 L 49.0 39.0 L 48.0 39.333333333333336 L 47.0 39.666666666666664 L 46.0 40.333333333333336 L 45.0 40.666666666666664 L 44.0 41.333333333333336 L 43.0 41.666666666666664 L 42.0 42.333333333333336 L 41.0 43.0 L 40.0 44.0 L 39.0 44.666666666666664 L 38.0 45.333333333333336 L 37.0 46.0 L 36.0 47.0 L 35.0 48.0 L 34.333333333333336 49.0 L 33.666666666666664 50.0 L 33.0 51.0 L 32.0 52.0 L 31.333333333333332 53.0 L 30.666666666666668 54.0 L 30.0 55.0 L 29.333333333333332 56.0 L 28.666666666666668 57.0 L 28.333333333333332 58.0 L 28.0 59.0 L 28.0 60.0 L 28.333333333333332 60.666666666666664 L 29.0 61.0 L 30.0 61.333333333333336 L 31.0 61.666666666666664 L 32.0 62.0 L 33.0 62.0 L 34.0 62.0 L 34.666666666666664 61.666666666666664 L 35.333333333333336 61.0 L 35.666666666666664 60.0 L 36.333333333333336 59.0 L 37.0 58.0 L 38.0 57.0 L 39.0 56.0 L 40.0 55.333333333333336 L 41.0 54.666666666666664 L 42.0 54.333333333333336 L 43.0 54.0 L 43.666666666666664 53.666666666666664 L 44.0 53.0 L 44.333333333333336 52.0 L 45.0 51.0 L 46.0 50.0 L 47.0 49.333333333333336 L 48.0 48.666666666666664 L 49.0 48.333333333333336 L 50.0 47.666666666666664 L 51.0 47.333333333333336 L 52.0 46.666666666666664 L 53.0 46.333333333333336 L 54.0 46.0 L 55.0 45.666666666666664 L 56.0 45.333333333333336 L 57.0 45.0 L 58.0 45.0 L 59.0 44.666666666666664 L 60.0 44.333333333333336 L 61.0 44.0 L 61.5 44.0 Z" stroke="none" fill="rgb(250,209,46)" />
<path d="M 91.5 49.0 L 92.0 49.0 L 93.0 48.666666666666664 L 94.0 48.333333333333336 L 95.0 48.0 L 96.0 48.0 L 97.0 48.0 L 98.0 48.0 L 99.0 48.333333333333336 L 100.0 48.666666666666664 L 101.0 49.0 L 102.0 49.0 L 103.0 49.0 L 104.0 49.0 L 105.0 49.0 L 106.0 49.333333333333336 L 107.0 49.666666666666664 L 108.0 50.0 L 109.0 50.0 L 110.0 49.666666666666664 L 110.66666666666667 49.0 L 111.0 48.0 L 111.0 47.0 L 111.0 46.0 L 110.66666666666667 45.0 L 110.0 44.333333333333336 L 109.0 44.0 L 108.0 44.0 L 107.0 43.666666666666664 L 106.0 43.333333333333336 L 105.0 43.0 L 104.0 43.0 L 103.0 43.0 L 102.0 43.0 L 101.0 43.0 L 100.0 42.666666666666664 L 99.0 42.333333333333336 L 98.0 42.0 L 97.0 42.0 L 96.0 42.0 L 95.0 42.0 L 94.0 42.0 L 93.0 41.666666666666664 L 92.0 41.333333333333336 L 91.0 41.0 L 90.0 41.0 L 89.0 41.0 L 88.0 41.0 L 87.0 41.0 L 86.0 41.0 L 85.0 41.0 L 84.0 41.0 L 83.33333333333333 41.333333333333336 L 83.33333333333333 42.0 L 84.0 43.0 L 85.0 44.0 L 86.0 45.0 L 87.0 46.0 L 88.0 47.0 L 89.0 47.666666666666664 L 90.0 48.333333333333336 L 90.5 48.5 Z" stroke="none" fill="rgb(255,154,157)" />
<path d="M 59.5 106.0 L 60.0 106.0 L 61.0 106.0 L 62.0 106.0 L 63.0 106.0 L 64.0 106.0 L 65.0 106.0 L 66.0 106.0 L 67.0 106.0 L 68.0 106.0 L 69.0 106.0 L 70.0 105.66666666666667 L 71.0 105.33333333333333 L 72.0 105.0 L 73.0 105.0 L 74.0 104.66666666666667 L 75.0 104.33333333333333 L 76.0 103.66666666666667 L 77.0 103.33333333333333 L 78.0 102.66666666666667 L 79.0 102.33333333333333 L 80.0 101.66666666666667 L 81.0 101.33333333333333 L 82.0 100.66666666666667 L 83.0 100.0 L 84.0 99.0 L 85.0 98.0 L 85.66666666666667 97.0 L 85.66666666666667 96.0 L 85.0 95.33333333333333 L 84.0 95.0 L 83.0 95.33333333333333 L 82.0 95.66666666666667 L 81.0 96.0 L 80.0 96.0 L 79.0 96.0 L 78.0 96.0 L 77.0 96.0 L 76.0 96.0 L 75.33333333333333 96.33333333333333 L 75.0 97.0 L 75.0 98.0 L 74.66666666666667 99.0 L 74.0 100.0 L 73.0 101.0 L 72.0 102.0 L 71.0 103.0 L 70.0 103.66666666666667 L 69.0 104.0 L 68.0 104.0 L 67.0 104.0 L 66.0 104.0 L 65.0 104.0 L 64.0 104.0 L 63.0 103.66666666666667 L 62.0 103.0 L 61.666666666666664 102.0 L 62.0 101.0 L 63.0 100.33333333333333 L 64.0 99.66666666666667 L 65.0 99.33333333333333 L 66.0 99.0 L 67.0 98.66666666666667 L 68.0 98.0 L 68.66666666666667 97.0 L 68.66666666666667 96.0 L 68.0 95.33333333333333 L 67.0 94.66666666666667 L 66.0 94.0 L 65.33333333333333 93.0 L 65.0 92.0 L 65.33333333333333 91.0 L 66.0 90.33333333333333 L 67.0 89.66666666666667 L 67.66666666666667 89.0 L 68.0 88.0 L 68.0 87.0 L 67.66666666666667 86.0 L 67.0 85.33333333333333 L 66.0 84.66666666666667 L 65.0 84.33333333333333 L 64.0 84.0 L 63.0 83.66666666666667 L 62.0 83.0 L 61.333333333333336 82.0 L 61.333333333333336 81.0 L 62.0 80.33333333333333 L 63.0 79.66666666666667 L 64.0 79.33333333333333 L 65.0 79.0 L 66.0 79.0 L 67.0 79.0 L 68.0 79.0 L 69.0 79.33333333333333 L 70.0 79.66666666666667 L 71.0 80.33333333333333 L 72.0 81.0 L 73.0 82.0 L 73.66666666666667 83.0 L 74.0 84.0 L 74.0 85.0 L 74.0 86.0 L 74.0 87.0 L 74.0 88.0 L 74.0 89.0 L 74.33333333333333 89.66666666666667 L 75.0 90.0 L 76.0 90.0 L 77.0 90.0 L 78.0 90.0 L 79.0 90.0 L 80.0 90.0 L 81.0 90.33333333333333 L 82.0 90.66666666666667 L 83.0 91.0 L 84.0 91.0 L 85.0 91.0 L 86.0 91.0 L 87.0 91.0 L 88.0 91.0 L 89.0 91.0 L 90.0 91.0 L 91.0 91.0 L 91.66666666666667 90.66666666666667 L 92.0 90.0 L 92.0 89.0 L 92.33333333333333 88.0 L 92.66666666666667 87.0 L 93.0 86.0 L 93.33333333333333 85.0 L 93.66666666666667 84.0 L 94.0 83.0 L 94.0 82.0 L 94.0 81.0 L 94.33333333333333 80.0 L 94.66666666666667 79.0 L 95.0 78.0 L 95.0 77.0 L 95.0 76.0 L 95.0 75.0 L 95.0 74.0 L 95.0 73.0 L 95.0 72.0 L 94.66666666666667 71.0 L 94.33333333333333 70.0 L 94.0 69.0 L 94.0 68.0 L 93.66666666666667 67.33333333333333 L 93.0 67.0 L 92.0 67.0 L 91.0 67.0 L 90.0 67.0 L 89.0 66.66666666666667 L 88.0 66.33333333333333 L 87.0 65.66666666666667 L 86.0 65.0 L 85.0 64.0 L 84.0 63.333333333333336 L 83.0 63.0 L 82.0 63.0 L 81.0 63.333333333333336 L 80.0 64.0 L 79.0 65.0 L 78.0 66.0 L 77.0 66.66666666666667 L 76.0 67.0 L 75.0 66.66666666666667 L 74.0 66.0 L 73.0 65.0 L 72.33333333333333 64.0 L 72.0 63.0 L 72.0 62.0 L 72.33333333333333 61.0 L 72.66666666666667 60.0 L 73.33333333333333 59.0 L 74.0 58.0 L 75.0 57.0 L 76.0 56.0 L 77.0 55.333333333333336 L 78.0 54.666666666666664 L 79.0 54.333333333333336 L 80.0 54.0 L 81.0 54.0 L 82.0 54.0 L 83.0 54.0 L 84.0 54.0 L 84.66666666666667 53.666666666666664 L 85.0 53.0 L 84.66666666666667 52.0 L 84.0 51.333333333333336 L 83.0 50.666666666666664 L 82.0 50.0 L 81.0 49.333333333333336 L 80.0 48.666666666666664 L 79.0 48.0 L 78.0 47.333333333333336 L 77.0 47.0 L 76.0 46.666666666666664 L 75.0 46.333333333333336 L 74.0 45.666666666666664 L 73.0 45.333333333333336 L 72.0 45.0 L 71.0 45.0 L 70.0 45.0 L 69.0 44.666666666666664 L 68.0 44.333333333333336 L 67.0 44.0 L 66.0 44.0 L 65.0 44.0 L 64.0 44.0 L 63.0 44.0 L 62.0 44.0 L 61.0 44.0 L 60.0 44.0 L 59.0 44.333333333333336 L 58.0 44.666666666666664 L 57.0 45.0 L 56.0 45.0 L 55.0 45.333333333333336 L 54.0 45.666666666666664 L 53.0 46.0 L 52.0 46.333333333333336 L 51.0 46.666666666666664 L 50.0 47.333333333333336 L 49.0 47.666666666666664 L 48.0 48.333333333333336 L 47.0 48.666666666666664 L 46.0 49.333333333333336 L 45.0 50.0 L 44.333333333333336 51.0 L 44.0 52.0 L 44.333333333333336 52.666666666666664 L 45.0 53.0 L 46.0 53.0 L 47.0 53.0 L 48.0 53.333333333333336 L 49.0 53.666666666666664 L 50.0 54.333333333333336 L 51.0 55.0 L 52.0 56.0 L 53.0 57.0 L 54.0 58.0 L 55.0 59.0 L 55.666666666666664 60.0 L 56.0 61.0 L 56.0 62.0 L 56.0 63.0 L 56.0 64.0 L 55.666666666666664 65.0 L 55.0 66.0 L 54.0 66.66666666666667 L 53.0 67.0 L 52.0 66.66666666666667 L 51.0 66.33333333333333 L 50.0 65.66666666666667 L 49.0 65.0 L 48.0 64.0 L 47.0 63.333333333333336 L 46.0 63.0 L 45.0 63.0 L 44.333333333333336 63.333333333333336 L 44.0 64.0 L 44.333333333333336 65.0 L 45.0 66.0 L 45.666666666666664 67.0 L 46.333333333333336 68.0 L 47.0 69.0 L 47.666666666666664 70.0 L 48.333333333333336 71.0 L 48.666666666666664 72.0 L 49.0 73.0 L 49.0 74.0 L 49.0 75.0 L 49.0 76.0 L 49.0 77.0 L 48.666666666666664 78.0 L 48.333333333333336 79.0 L 47.666666666666664 80.0 L 47.333333333333336 81.0 L 46.666666666666664 82.0 L 46.0 83.0 L 45.0 84.0 L 44.0 84.66666666666667 L 43.0 85.33333333333333 L 42.0 85.66666666666667 L 41.0 86.33333333333333 L 40.0 86.66666666666667 L 39.0 87.33333333333333 L 38.0 87.66666666666667 L 37.0 88.0 L 36.333333333333336 88.33333333333333 L 36.0 89.0 L 36.333333333333336 90.0 L 36.666666666666664 91.0 L 37.333333333333336 92.0 L 38.0 93.0 L 38.666666666666664 94.0 L 39.333333333333336 95.0 L 40.0 96.0 L 41.0 97.0 L 42.0 98.0 L 43.0 99.0 L 44.0 99.66666666666667 L 45.0 100.33333333333333 L 46.0 101.0 L 47.0 101.66666666666667 L 48.0 102.33333333333333 L 49.0 102.66666666666667 L 50.0 103.33333333333333 L 51.0 103.66666666666667 L 52.0 104.0 L 53.0 104.33333333333333 L 54.0 104.66666666666667 L 55.0 105.0 L 56.0 105.33333333333333 L 57.0 105.66666666666667 L 58.0 106.0 L 58.5 106.0 Z" stroke="none" fill="rgb(253,222,48)" />
<path d="M 105.5 55.5 L 106.0 55.666666666666664 L 107.0 56.0 L 107.66666666666667 55.666666666666664 L 108.33333333333333 55.0 L 108.66666666666667 54.0 L 109.0 53.0 L 109.33333333333333 52.0 L 109.66666666666667 51.0 L 109.66666666666667 50.333333333333336 L 109.0 50.0 L 108.0 49.666666666666664 L 107.0 49.333333333333336 L 106.0 49.0 L 105.0 49.0 L 104.0 49.0 L 103.0 49.0 L 102.0 49.0 L 101.0 48.666666666666664 L 100.0 48.333333333333336 L 99.0 48.0 L 98.0 48.0 L 97.0 48.0 L 96.0 48.0 L 95.0 48.0 L 94.0 48.0 L 93.33333333333333 48.333333333333336 L 93.0 49.0 L 93.33333333333333 50.0 L 94.0 51.0 L 95.0 52.0 L 96.0 52.666666666666664 L 97.0 53.0 L 98.0 53.0 L 99.0 53.333333333333336 L 100.0 53.666666666666664 L 101.0 54.0 L 102.0 54.333333333333336 L 103.0 54.666666666666664 L 104.0 55.0 L 104.5 55.0 Z" stroke="none" fill="rgb(255,68,68)" />
<path d="M 110.5 55.5 L 111.0 55.666666666666664 L 112.0 56.0 L 112.66666666666667 55.666666666666664 L 112.66666666666667 55.0 L 112.33333333333333 54.0 L 111.66666666666667 53.0 L 111.33333333333333 52.0 L 110.66666666666667 51.333333333333336 L 110.0 51.0 L 109.33333333333333 51.333333333333336 L 109.0 52.0 L 109.0 53.0 L 109.33333333333333 54.0 L 109.5 54.5 Z" stroke="none" fill="rgb(235,144,2)" />
<path d="M 39.5 67.0 L 40.0 67.0 L 41.0 66.66666666666667 L 42.0 66.0 L 43.0 65.33333333333333 L 43.666666666666664 64.66666666666667 L 44.333333333333336 64.0 L 45.0 63.333333333333336 L 46.0 63.333333333333336 L 47.0 64.0 L 48.0 65.0 L 49.0 65.66666666666667 L 50.0 66.33333333333333 L 51.0 66.66666666666667 L 52.0 67.0 L 53.0 67.0 L 54.0 67.0 L 55.0 66.66666666666667 L 55.666666666666664 66.0 L 56.0 65.0 L 56.0 64.0 L 56.0 63.0 L 56.0 62.0 L 56.0 61.0 L 56.0 60.0 L 55.666666666666664 59.0 L 55.0 58.0 L 54.0 57.0 L 53.0 56.0 L 52.0 55.0 L 51.0 54.333333333333336 L 50.0 53.666666666666664 L 49.0 53.333333333333336 L 48.0 53.0 L 47.0 53.0 L 46.0 53.0 L 45.0 53.0 L 44.0 53.333333333333336 L 43.0 53.666666666666664 L 42.0 54.0 L 41.0 54.333333333333336 L 40.0 54.666666666666664 L 39.0 55.333333333333336 L 38.0 56.0 L 37.0 57.0 L 36.333333333333336 58.0 L 35.666666666666664 59.0 L 35.333333333333336 60.0 L 34.666666666666664 61.0 L 34.333333333333336 62.0 L 34.0 63.0 L 34.0 64.0 L 34.333333333333336 65.0 L 35.0 66.0 L 36.0 66.66666666666667 L 37.0 67.0 L 38.0 67.0 L 38.5 67.0 Z" stroke="none" fill="rgb(67,44,13)" />
<path d="M 91.5 67.0 L 92.0 67.0 L 92.66666666666667 66.66666666666667 L 93.33333333333333 66.0 L 93.66666666666667 65.0 L 94.0 64.0 L 94.0 63.0 L 94.0 62.0 L 93.66666666666667 61.0 L 93.33333333333333 60.0 L 92.66666666666667 59.0 L 92.0 58.0 L 91.0 57.0 L 90.0 56.0 L 89.0 55.0 L 88.0 54.333333333333336 L 87.0 53.666666666666664 L 86.0 53.333333333333336 L 85.0 53.333333333333336 L 84.0 53.666666666666664 L 83.0 54.0 L 82.0 54.0 L 81.0 54.0 L 80.0 54.0 L 79.0 54.0 L 78.0 54.333333333333336 L 77.0 54.666666666666664 L 76.0 55.333333333333336 L 75.0 56.0 L 74.0 57.0 L 73.33333333333333 58.0 L 72.66666666666667 59.0 L 72.33333333333333 60.0 L 72.0 61.0 L 72.0 62.0 L 72.0 63.0 L 72.0 64.0 L 72.33333333333333 65.0 L 73.0 66.0 L 74.0 66.66666666666667 L 75.0 67.0 L 76.0 67.0 L 77.0 67.0 L 78.0 66.66666666666667 L 79.0 66.0 L 80.0 65.0 L 81.0 64.0 L 82.0 63.333333333333336 L 83.0 63.333333333333336 L 84.0 64.0 L 85.0 65.0 L 86.0 65.66666666666667 L 87.0 66.33333333333333 L 88.0 66.66666666666667 L 89.0 67.0 L 90.0 67.0 L 90.5 67.0 Z" stroke="none" fill="rgb(67,44,13)" />
<path d="M 108.5 71.0 L 109.0 71.0 L 109.66666666666667 70.66666666666667 L 110.0 70.0 L 110.0 69.0 L 110.0 68.0 L 110.0 67.0 L 109.66666666666667 66.0 L 109.33333333333333 65.0 L 109.0 64.0 L 109.0 63.0 L 108.66666666666667 62.0 L 108.33333333333333 61.0 L 108.0 60.0 L 107.66666666666667 59.0 L 107.33333333333333 58.0 L 107.0 57.0 L 106.66666666666667 56.0 L 106.0 55.333333333333336 L 105.0 55.0 L 104.0 54.666666666666664 L 103.0 54.333333333333336 L 102.0 54.0 L 101.0 53.666666666666664 L 100.0 53.333333333333336 L 99.0 53.0 L 98.0 53.0 L 97.33333333333333 53.333333333333336 L 97.0 54.0 L 97.0 55.0 L 97.33333333333333 56.0 L 97.66666666666667 57.0 L 98.33333333333333 58.0 L 98.66666666666667 59.0 L 99.33333333333333 60.0 L 99.66666666666667 61.0 L 100.33333333333333 62.0 L 100.66666666666667 63.0 L 101.0 64.0 L 101.0 65.0 L 101.33333333333333 66.0 L 101.66666666666667 67.0 L 102.0 68.0 L 102.0 69.0 L 102.0 70.0 L 102.33333333333333 71.0 L 103.0 71.66666666666667 L 104.0 72.0 L 105.0 72.0 L 106.0 71.66666666666667 L 107.0 71.33333333333333 L 107.5 71.0 Z" stroke="none" fill="rgb(248,197,44)" />
<path d="M 110.5 61.5 L 111.0 61.666666666666664 L 112.0 61.666666666666664 L 113.0 61.333333333333336 L 114.0 61.0 L 115.0 60.666666666666664 L 116.0 60.333333333333336 L 117.0 59.666666666666664 L 118.0 59.0 L 119.0 58.0 L 120.0 57.0 L 120.66666666666667 56.0 L 121.0 55.0 L 121.0 54.0 L 120.66666666666667 53.333333333333336 L 120.0 53.0 L 119.0 53.0 L 118.0 53.0 L 117.0 53.0 L 116.0 53.333333333333336 L 115.0 53.666666666666664 L 114.0 54.333333333333336 L 113.0 55.0 L 112.0 56.0 L 111.0 57.0 L 110.33333333333333 58.0 L 110.0 59.0 L 110.0 60.0 L 110.0 60.5 Z" stroke="none" fill="rgb(2,203,0)" />
<path d="M 109.5 58.0 L 110.0 58.0 L 111.0 57.666666666666664 L 111.66666666666667 57.0 L 111.66666666666667 56.0 L 111.0 55.0 L 110.0 54.333333333333336 L 109.0 54.0 L 108.33333333333333 54.333333333333336 L 108.0 55.0 L 108.33333333333333 56.0 L 108.66666666666667 57.0 L 109.0 57.5 Z" stroke="none" fill="rgb(244,165,36)" />
<path d="M 108.5 62.5 L 108.66666666666667 63.0 L 109.0 64.0 L 109.0 65.0 L 109.33333333333333 66.0 L 109.66666666666667 67.0 L 110.0 68.0 L 110.0 69.0 L 110.33333333333333 69.66666666666667 L 111.0 70.0 L 111.66666666666667 69.66666666666667 L 112.0 69.0 L 112.0 68.0 L 112.0 67.0 L 112.0 66.0 L 112.0 65.0 L 112.0 64.0 L 112.0 63.0 L 111.66666666666667 62.0 L 111.0 61.0 L 110.33333333333333 60.0 L 110.0 59.0 L 109.66666666666667 58.0 L 109.33333333333333 57.0 L 108.66666666666667 56.333333333333336 L 108.0 56.0 L 107.33333333333333 56.333333333333336 L 107.0 57.0 L 107.0 58.0 L 107.33333333333333 59.0 L 107.66666666666667 60.0 L 108.0 61.0 L 108.0 61.5 Z" stroke="none" fill="rgb(245,183,41)" />
<path d="M 116.0 72.5 L 116.0 72.0 L 116.0 71.0 L 115.66666666666667 70.0 L 115.33333333333333 69.0 L 115.0 68.0 L 115.0 67.0 L 115.0 66.0 L 115.0 65.0 L 115.0 64.0 L 114.66666666666667 63.0 L 114.33333333333333 62.0 L 113.66666666666667 61.333333333333336 L 113.0 61.0 L 112.33333333333333 61.333333333333336 L 112.0 62.0 L 112.0 63.0 L 112.0 64.0 L 112.0 65.0 L 112.0 66.0 L 112.0 67.0 L 112.0 68.0 L 112.0 69.0 L 112.0 70.0 L 112.33333333333333 71.0 L 113.0 72.0 L 114.0 72.66666666666667 L 115.0 73.0 L 115.5 73.0 Z" stroke="none" fill="rgb(235,144,2)" />
<path d="M 24.5 79.5 L 25.0 80.0 L 25.666666666666668 81.0 L 26.0 82.0 L 26.0 83.0 L 26.333333333333332 84.0 L 27.0 84.66666666666667 L 28.0 85.0 L 29.0 85.0 L 30.0 85.33333333333333 L 30.666666666666668 86.0 L 31.333333333333332 86.66666666666667 L 32.0 87.0 L 33.0 87.0 L 34.0 87.0 L 35.0 87.0 L 36.0 87.0 L 37.0 87.0 L 38.0 86.66666666666667 L 39.0 86.0 L 40.0 85.33333333333333 L 41.0 84.66666666666667 L 42.0 84.0 L 43.0 83.0 L 44.0 82.0 L 44.666666666666664 81.0 L 45.333333333333336 80.0 L 45.666666666666664 79.0 L 46.0 78.0 L 46.0 77.0 L 46.0 76.0 L 46.0 75.0 L 46.0 74.0 L 46.0 73.0 L 46.0 72.0 L 45.666666666666664 71.0 L 45.0 70.0 L 44.333333333333336 69.0 L 43.666666666666664 68.0 L 43.0 67.0 L 42.0 66.33333333333333 L 41.0 66.33333333333333 L 40.0 66.66666666666667 L 39.0 67.0 L 38.0 67.0 L 37.0 66.66666666666667 L 36.0 66.0 L 35.0 65.0 L 34.0 64.33333333333333 L 33.0 64.0 L 32.0 64.0 L 31.0 64.0 L 30.0 64.0 L 29.0 64.0 L 28.0 64.33333333333333 L 27.0 64.66666666666667 L 26.0 65.0 L 25.0 65.33333333333333 L 24.0 66.0 L 23.0 67.0 L 22.0 68.0 L 21.333333333333332 69.0 L 20.666666666666668 70.0 L 20.333333333333332 71.0 L 20.0 72.0 L 20.0 73.0 L 20.0 74.0 L 20.0 75.0 L 20.333333333333332 75.66666666666667 L 21.0 76.33333333333333 L 22.0 77.0 L 23.0 78.0 L 23.5 78.5 Z" stroke="none" fill="rgb(247,184,68)" />
<path d="M 95.5 98.5 L 95.66666666666667 98.0 L 96.0 97.0 L 95.66666666666667 96.33333333333333 L 95.0 96.0 L 94.0 96.0 L 93.0 96.0 L 92.0 96.0 L 91.0 96.0 L 90.0 96.0 L 89.0 96.0 L 88.0 96.0 L 87.0 96.0 L 86.0 96.33333333333333 L 85.0 97.0 L 84.0 98.0 L 83.0 99.0 L 82.0 100.0 L 81.0 100.66666666666667 L 80.0 101.33333333333333 L 79.0 101.66666666666667 L 78.0 102.33333333333333 L 77.0 102.66666666666667 L 76.0 103.33333333333333 L 75.0 103.66666666666667 L 74.0 104.33333333333333 L 73.0 104.66666666666667 L 72.0 105.0 L 71.0 105.0 L 70.0 105.33333333333333 L 69.0 105.66666666666667 L 68.0 106.0 L 67.0 106.0 L 66.0 106.0 L 65.0 106.0 L 64.0 106.0 L 63.0 106.0 L 62.0 106.0 L 61.0 106.0 L 60.0 106.0 L 59.0 106.0 L 58.0 105.66666666666667 L 57.0 105.33333333333333 L 56.0 105.0 L 55.0 104.66666666666667 L 54.0 104.33333333333333 L 53.0 104.0 L 52.0 103.66666666666667 L 51.0 103.33333333333333 L 50.0 102.66666666666667 L 49.0 102.33333333333333 L 48.0 101.66666666666667 L 47.0 101.0 L 46.0 100.33333333333333 L 45.0 99.66666666666667 L 44.0 99.0 L 43.0 98.0 L 42.0 97.0 L 41.0 96.0 L 40.0 95.0 L 39.333333333333336 94.0 L 38.666666666666664 93.0 L 38.0 92.0 L 37.333333333333336 91.0 L 36.666666666666664 90.0 L 36.666666666666664 89.0 L 37.0 88.33333333333333 L 38.0 88.0 L 39.0 87.66666666666667 L 40.0 87.33333333333333 L 41.0 86.66666666666667 L 42.0 86.33333333333333 L 43.0 85.66666666666667 L 44.0 85.33333333333333 L 45.0 84.66666666666667 L 46.0 84.0 L 46.666666666666664 83.0 L 47.333333333333336 82.0 L 47.666666666666664 81.0 L 48.333333333333336 80.0 L 48.666666666666664 79.0 L 49.0 78.0 L 49.0 77.0 L 49.0 76.0 L 49.0 75.0 L 49.0 74.0 L 49.0 73.0 L 49.0 72.0 L 48.666666666666664 71.0 L 48.333333333333336 70.0 L 47.666666666666664 69.0 L 47.0 68.0 L 46.333333333333336 67.0 L 45.666666666666664 66.0 L 45.0 65.33333333333333 L 44.0 65.0 L 43.0 65.0 L 42.333333333333336 65.33333333333333 L 42.0 66.0 L 42.333333333333336 67.0 L 43.0 68.0 L 43.666666666666664 69.0 L 44.333333333333336 70.0 L 45.0 71.0 L 45.666666666666664 72.0 L 46.0 73.0 L 46.0 74.0 L 46.0 75.0 L 46.0 76.0 L 46.0 77.0 L 45.666666666666664 78.0 L 45.333333333333336 79.0 L 44.666666666666664 80.0 L 44.0 81.0 L 43.0 82.0 L 42.0 83.0 L 41.0 84.0 L 40.0 84.66666666666667 L 39.0 85.33333333333333 L 38.0 86.0 L 37.0 86.66666666666667 L 36.0 87.0 L 35.0 87.0 L 34.0 87.0 L 33.0 87.0 L 32.0 87.0 L 31.0 87.33333333333333 L 30.0 87.66666666666667 L 29.0 88.0 L 28.0 88.33333333333333 L 27.333333333333332 89.0 L 27.333333333333332 90.0 L 27.666666666666668 91.0 L 28.333333333333332 92.0 L 28.666666666666668 93.0 L 29.333333333333332 94.0 L 29.666666666666668 95.0 L 30.333333333333332 96.0 L 31.0 97.0 L 31.666666666666668 98.0 L 32.333333333333336 99.0 L 33.0 100.0 L 34.0 101.0 L 35.0 102.0 L 36.0 103.0 L 37.0 104.0 L 38.0 105.0 L 39.0 106.0 L 40.0 106.66666666666667 L 41.0 107.33333333333333 L 42.0 108.0 L 43.0 108.66666666666667 L 44.0 109.33333333333333 L 45.0 109.66666666666667 L 46.0 110.33333333333333 L 47.0 110.66666666666667 L 48.0 111.33333333333333 L 49.0 111.66666666666667 L 50.0 112.0 L 51.0 112.33333333333333 L 52.0 112.66666666666667 L 53.0 113.0 L 54.0 113.0 L 55.0 113.33333333333333 L 56.0 113.66666666666667 L 57.0 114.0 L 58.0 114.0 L 59.0 114.0 L 60.0 114.0 L 61.0 114.0 L 62.0 114.0 L 63.0 114.0 L 64.0 114.0 L 65.0 114.0 L 66.0 114.0 L 67.0 114.0 L 68.0 114.0 L 69.0 114.0 L 70.0 114.0 L 71.0 113.66666666666667 L 72.0 113.33333333333333 L 73.0 113.0 L 74.0 113.0 L 75.0 112.66666666666667 L 76.0 112.33333333333333 L 77.0 112.0 L 78.0 111.66666666666667 L 79.0 111.33333333333333 L 80.0 110.66666666666667 L 81.0 110.33333333333333 L 82.0 109.66666666666667 L 83.0 109.33333333333333 L 84.0 108.66666666666667 L 85.0 108.33333333333333 L 86.0 107.66666666666667 L 87.0 107.0 L 88.0 106.0 L 89.0 105.0 L 90.0 104.33333333333333 L 91.0 103.66666666666667 L 91.66666666666667 103.0 L 92.33333333333333 102.0 L 93.0 101.0 L 94.0 100.0 L 94.5 99.5 Z" stroke="none" fill="rgb(250,209,46)" />
<path d="M 33.5 82.0 L 34.0 82.0 L 35.0 82.0 L 36.0 81.66666666666667 L 37.0 81.33333333333333 L 38.0 80.66666666666667 L 39.0 80.0 L 39.666666666666664 79.0 L 40.333333333333336 78.0 L 40.666666666666664 77.0 L 41.0 76.0 L 41.0 75.0 L 41.0 74.0 L 40.666666666666664 73.0 L 40.333333333333336 72.0 L 39.666666666666664 71.33333333333333 L 39.0 70.66666666666667 L 38.0 70.0 L 37.0 69.33333333333333 L 36.0 69.0 L 35.0 68.66666666666667 L 34.0 68.33333333333333 L 33.0 68.0 L 32.0 68.33333333333333 L 31.0 68.66666666666667 L 30.0 69.0 L 29.0 69.33333333333333 L 28.0 70.0 L 27.0 71.0 L 26.333333333333332 72.0 L 26.0 73.0 L 26.0 74.0 L 26.0 75.0 L 26.0 76.0 L 26.0 77.0 L 26.333333333333332 78.0 L 26.666666666666668 79.0 L 27.333333333333332 80.0 L 28.0 80.66666666666667 L 29.0 81.33333333333333 L 30.0 81.66666666666667 L 31.0 82.0 L 32.0 82.0 L 32.5 82.0 Z" stroke="none" fill="rgb(244,161,85)" />
<path d="M 110.5 94.0 L 111.0 94.0 L 112.0 94.0 L 112.66666666666667 93.66666666666667 L 113.0 93.0 L 113.0 92.0 L 113.0 91.0 L 113.0 90.0 L 113.0 89.0 L 113.0 88.0 L 113.33333333333333 87.0 L 113.66666666666667 86.0 L 114.0 85.0 L 114.0 84.0 L 114.0 83.0 L 114.0 82.0 L 114.0 81.0 L 114.0 80.0 L 114.0 79.0 L 114.0 78.0 L 113.66666666666667 77.0 L 113.33333333333333 76.0 L 113.0 75.0 L 113.33333333333333 74.0 L 113.66666666666667 73.0 L 113.66666666666667 72.0 L 113.0 71.0 L 112.0 70.33333333333333 L 111.0 70.0 L 110.0 70.33333333333333 L 109.0 70.66666666666667 L 108.0 71.0 L 107.0 71.0 L 106.33333333333333 71.33333333333333 L 106.0 72.0 L 106.0 73.0 L 106.33333333333333 74.0 L 106.66666666666667 75.0 L 107.0 76.0 L 107.0 77.0 L 107.33333333333333 78.0 L 108.0 79.0 L 108.66666666666667 80.0 L 108.66666666666667 81.0 L 108.0 82.0 L 107.0 82.66666666666667 L 106.33333333333333 83.33333333333333 L 106.0 84.0 L 106.0 85.0 L 106.0 86.0 L 106.33333333333333 86.66666666666667 L 107.0 87.33333333333333 L 108.0 88.0 L 108.33333333333333 89.0 L 108.0 90.0 L 107.0 90.66666666666667 L 106.33333333333333 91.33333333333333 L 106.0 92.0 L 106.0 93.0 L 106.33333333333333 94.0 L 107.0 94.66666666666667 L 108.0 95.0 L 109.0 94.66666666666667 L 109.5 94.5 Z" stroke="none" fill="rgb(53,136,212)" />
<path d="M 106.0 86.5 L 106.0 86.0 L 106.0 85.0 L 106.0 84.0 L 106.0 83.0 L 105.66666666666667 82.0 L 105.0 81.0 L 104.33333333333333 80.0 L 104.0 79.0 L 104.33333333333333 78.0 L 105.0 77.33333333333333 L 106.0 77.0 L 106.66666666666667 76.66666666666667 L 107.0 76.0 L 107.0 75.0 L 106.66666666666667 74.0 L 106.33333333333333 73.0 L 105.66666666666667 72.33333333333333 L 105.0 72.0 L 104.0 72.0 L 103.0 72.33333333333333 L 102.0 73.0 L 101.0 74.0 L 100.33333333333333 75.0 L 100.0 76.0 L 100.0 77.0 L 100.0 78.0 L 100.0 79.0 L 100.0 80.0 L 100.0 81.0 L 100.0 82.0 L 100.33333333333333 83.0 L 101.0 84.0 L 101.66666666666667 85.0 L 102.33333333333333 85.66666666666667 L 103.0 86.33333333333333 L 104.0 86.66666666666667 L 105.0 87.0 L 105.5 87.0 Z" stroke="none" fill="rgb(38,118,176)" />
<path d="M 120.0 84.5 L 120.0 84.0 L 120.0 83.0 L 120.0 82.0 L 120.0 81.0 L 120.0 80.0 L 120.0 79.0 L 119.66666666666667 78.0 L 119.33333333333333 77.0 L 118.66666666666667 76.0 L 118.33333333333333 75.0 L 117.66666666666667 74.0 L 117.0 73.33333333333333 L 116.0 73.0 L 115.0 73.0 L 114.0 73.0 L 113.33333333333333 73.33333333333333 L 113.0 74.0 L 113.0 75.0 L 113.0 76.0 L 113.33333333333333 77.0 L 113.66666666666667 78.0 L 114.0 79.0 L 114.0 80.0 L 114.0 81.0 L 114.0 82.0 L 114.0 83.0 L 114.0 84.0 L 113.66666666666667 85.0 L 113.33333333333333 86.0 L 113.0 87.0 L 113.0 88.0 L 113.0 89.0 L 113.0 90.0 L 113.0 91.0 L 113.0 92.0 L 113.33333333333333 92.66666666666667 L 114.0 92.66666666666667 L 115.0 92.0 L 116.0 91.0 L 117.0 90.0 L 117.66666666666667 89.0 L 118.33333333333333 88.0 L 118.66666666666667 87.0 L 119.33333333333333 86.0 L 119.5 85.5 Z" stroke="none" fill="rgb(64,156,242)" />
<path d="M 24.5 85.0 L 25.0 85.0 L 25.666666666666668 84.66666666666667 L 26.0 84.0 L 26.0 83.0 L 26.0 82.0 L 26.0 81.0 L 25.666666666666668 80.0 L 25.0 79.0 L 24.0 78.0 L 23.0 77.0 L 22.0 76.33333333333333 L 21.0 76.0 L 20.0 76.0 L 19.333333333333332 76.33333333333333 L 19.0 77.0 L 19.0 78.0 L 19.0 79.0 L 19.0 80.0 L 19.0 81.0 L 19.0 82.0 L 19.333333333333332 83.0 L 19.666666666666668 84.0 L 20.333333333333332 84.66666666666667 L 21.0 85.0 L 22.0 85.0 L 23.0 85.0 L 23.5 85.0 Z" stroke="none" fill="rgb(0,72,255)" />
<path d="M 107.5 83.0 L 108.0 82.66666666666667 L 108.66666666666667 82.0 L 109.0 81.0 L 109.0 80.0 L 108.66666666666667 79.0 L 108.0 78.0 L 107.0 77.33333333333333 L 106.0 77.0 L 105.0 77.0 L 104.33333333333333 77.33333333333333 L 104.0 78.0 L 104.0 79.0 L 104.0 80.0 L 104.33333333333333 81.0 L 105.0 82.0 L 106.0 82.66666666666667 L 106.5 83.0 Z" stroke="none" fill="rgb(248,197,44)" />
<path d="M 75.0 99.5 L 75.0 99.0 L 75.0 98.0 L 75.0 97.0 L 75.0 96.0 L 74.66666666666667 95.0 L 74.0 94.0 L 73.33333333333333 93.0 L 73.0 92.0 L 73.33333333333333 91.0 L 73.66666666666667 90.0 L 74.0 89.0 L 74.0 88.0 L 74.0 87.0 L 74.0 86.0 L 74.0 85.0 L 74.0 84.0 L 74.0 83.0 L 73.66666666666667 82.0 L 73.0 81.0 L 72.0 80.33333333333333 L 71.0 79.66666666666667 L 70.0 79.33333333333333 L 69.0 79.0 L 68.0 79.0 L 67.0 79.0 L 66.0 79.0 L 65.0 79.0 L 64.0 79.0 L 63.0 79.33333333333333 L 62.0 79.66666666666667 L 61.333333333333336 80.33333333333333 L 61.0 81.0 L 61.0 82.0 L 61.333333333333336 83.0 L 62.0 83.66666666666667 L 63.0 84.0 L 64.0 84.33333333333333 L 65.0 84.66666666666667 L 66.0 85.33333333333333 L 67.0 86.0 L 67.66666666666667 87.0 L 67.66666666666667 88.0 L 67.0 89.0 L 66.0 89.66666666666667 L 65.33333333333333 90.33333333333333 L 65.0 91.0 L 65.0 92.0 L 65.0 93.0 L 65.33333333333333 94.0 L 66.0 94.66666666666667 L 67.0 95.33333333333333 L 67.66666666666667 96.0 L 67.66666666666667 97.0 L 67.0 98.0 L 66.0 98.66666666666667 L 65.0 99.0 L 64.0 99.33333333333333 L 63.0 99.66666666666667 L 62.0 100.33333333333333 L 61.333333333333336 101.0 L 61.0 102.0 L 61.333333333333336 103.0 L 62.0 103.66666666666667 L 63.0 104.0 L 64.0 104.0 L 65.0 104.0 L 66.0 104.0 L 67.0 104.0 L 68.0 104.0 L 69.0 104.0 L 70.0 104.0 L 71.0 103.66666666666667 L 72.0 103.0 L 73.0 102.0 L 74.0 101.0 L 74.5 100.5 Z" stroke="none" fill="rgb(67,44,13)" />
<path d="M 20.0 84.5 L 20.0 84.0 L 19.666666666666668 83.33333333333333 L 19.0 83.0 L 18.333333333333332 83.33333333333333 L 18.0 84.0 L 18.333333333333332 84.66666666666667 L 19.0 85.0 L 19.5 85.0 Z" stroke="none" fill="rgb(248,197,44)" />
<path d="M 20.5 89.5 L 21.0 89.33333333333333 L 22.0 89.0 L 23.0 89.0 L 24.0 89.0 L 25.0 89.0 L 26.0 89.0 L 27.0 89.0 L 28.0 88.66666666666667 L 29.0 88.33333333333333 L 30.0 88.0 L 30.666666666666668 87.66666666666667 L 31.0 87.0 L 31.0 86.0 L 30.666666666666668 85.33333333333333 L 30.0 85.0 L 29.0 85.0 L 28.0 84.66666666666667 L 27.0 84.33333333333333 L 26.0 84.33333333333333 L 25.0 84.66666666666667 L 24.0 85.0 L 23.0 85.0 L 22.0 85.0 L 21.0 85.0 L 20.0 85.0 L 19.0 85.0 L 18.0 85.33333333333333 L 17.333333333333332 86.0 L 17.0 87.0 L 17.333333333333332 88.0 L 18.0 89.0 L 19.0 89.66666666666667 L 19.5 90.0 Z" stroke="none" fill="rgb(255,154,157)" />
<path d="M 103.5 91.0 L 104.0 91.0 L 105.0 91.0 L 106.0 91.0 L 107.0 91.0 L 108.0 90.66666666666667 L 108.66666666666667 90.0 L 109.0 89.0 L 108.66666666666667 88.0 L 108.0 87.33333333333333 L 107.0 87.0 L 106.0 87.0 L 105.0 86.66666666666667 L 104.0 86.33333333333333 L 103.0 86.0 L 102.0 86.0 L 101.33333333333333 86.33333333333333 L 100.66666666666667 87.0 L 100.33333333333333 88.0 L 100.0 89.0 L 100.0 90.0 L 100.33333333333333 90.66666666666667 L 101.0 91.0 L 102.0 91.0 L 102.5 91.0 Z" stroke="none" fill="rgb(248,197,44)" />
<path d="M 24.5 105.5 L 25.0 106.0 L 26.0 107.0 L 27.0 108.0 L 28.0 109.0 L 29.0 110.0 L 30.0 111.0 L 31.0 112.0 L 32.0 113.0 L 33.0 114.0 L 34.0 115.0 L 35.0 115.66666666666667 L 36.0 116.33333333333333 L 37.0 116.66666666666667 L 38.0 117.33333333333333 L 39.0 117.66666666666667 L 40.0 118.0 L 41.0 118.33333333333333 L 42.0 118.66666666666667 L 43.0 119.0 L 44.0 119.0 L 44.666666666666664 118.66666666666667 L 44.666666666666664 118.0 L 44.0 117.33333333333333 L 43.0 116.66666666666667 L 42.0 116.33333333333333 L 41.0 115.66666666666667 L 40.0 115.33333333333333 L 39.0 114.66666666666667 L 38.0 114.0 L 37.0 113.33333333333333 L 36.0 112.66666666666667 L 35.0 112.0 L 34.0 111.0 L 33.0 110.0 L 32.0 109.0 L 31.0 108.0 L 30.0 107.0 L 29.0 106.0 L 28.0 105.0 L 27.0 104.0 L 26.333333333333332 103.0 L 25.666666666666668 102.0 L 25.0 101.0 L 24.333333333333332 100.0 L 23.666666666666668 99.0 L 23.333333333333332 98.0 L 22.666666666666668 97.0 L 22.333333333333332 96.0 L 21.666666666666668 95.0 L 21.333333333333332 94.0 L 20.666666666666668 93.0 L 20.333333333333332 92.0 L 20.0 91.0 L 19.666666666666668 90.0 L 19.0 89.33333333333333 L 18.0 89.0 L 17.333333333333332 89.33333333333333 L 17.0 90.0 L 17.333333333333332 91.0 L 17.666666666666668 92.0 L 18.0 93.0 L 18.333333333333332 94.0 L 18.666666666666668 95.0 L 19.0 96.0 L 19.333333333333332 97.0 L 20.0 98.0 L 20.666666666666668 99.0 L 21.333333333333332 100.0 L 21.666666666666668 101.0 L 22.333333333333332 102.0 L 23.0 103.0 L 23.666666666666668 104.0 L 24.0 104.5 Z" stroke="none" fill="rgb(245,183,41)" />
<path d="M 24.5 101.5 L 25.0 102.0 L 25.666666666666668 103.0 L 26.333333333333332 104.0 L 27.0 105.0 L 28.0 106.0 L 29.0 107.0 L 30.0 108.0 L 31.0 109.0 L 32.0 110.0 L 33.0 111.0 L 34.0 112.0 L 35.0 112.66666666666667 L 36.0 113.33333333333333 L 37.0 114.0 L 38.0 114.66666666666667 L 39.0 115.33333333333333 L 40.0 115.66666666666667 L 41.0 116.33333333333333 L 42.0 116.66666666666667 L 43.0 117.33333333333333 L 44.0 118.0 L 45.0 118.66666666666667 L 46.0 119.33333333333333 L 47.0 119.66666666666667 L 48.0 120.0 L 49.0 120.0 L 50.0 120.33333333333333 L 51.0 120.66666666666667 L 52.0 121.0 L 53.0 121.0 L 54.0 121.0 L 55.0 121.0 L 56.0 121.33333333333333 L 57.0 121.66666666666667 L 58.0 122.0 L 59.0 122.0 L 60.0 122.0 L 61.0 122.0 L 62.0 122.0 L 63.0 122.0 L 64.0 122.0 L 65.0 122.0 L 66.0 122.0 L 67.0 122.0 L 68.0 122.0 L 69.0 122.0 L 70.0 121.66666666666667 L 71.0 121.33333333333333 L 72.0 121.0 L 73.0 121.0 L 74.0 121.0 L 75.0 121.0 L 76.0 120.66666666666667 L 77.0 120.33333333333333 L 78.0 120.0 L 79.0 119.66666666666667 L 80.0 119.33333333333333 L 81.0 119.0 L 82.0 118.66666666666667 L 83.0 118.33333333333333 L 84.0 118.0 L 85.0 117.66666666666667 L 86.0 117.33333333333333 L 87.0 116.66666666666667 L 88.0 116.33333333333333 L 89.0 115.66666666666667 L 90.0 115.0 L 91.0 114.33333333333333 L 92.0 113.66666666666667 L 92.66666666666667 113.0 L 93.0 112.0 L 93.0 111.0 L 93.0 110.0 L 93.33333333333333 109.0 L 93.66666666666667 108.0 L 94.33333333333333 107.0 L 95.0 106.0 L 96.0 105.33333333333333 L 97.0 105.33333333333333 L 98.0 106.0 L 99.0 106.66666666666667 L 99.66666666666667 106.66666666666667 L 100.0 106.0 L 100.33333333333333 105.0 L 101.0 104.0 L 101.66666666666667 103.0 L 102.33333333333333 102.0 L 103.0 101.0 L 103.66666666666667 100.0 L 104.33333333333333 99.0 L 104.66666666666667 98.0 L 105.0 97.0 L 105.0 96.0 L 104.66666666666667 95.33333333333333 L 104.0 95.0 L 103.0 95.0 L 102.0 95.0 L 101.0 95.0 L 100.0 95.0 L 99.0 95.0 L 98.0 95.0 L 97.0 95.0 L 96.33333333333333 95.33333333333333 L 96.0 96.0 L 95.66666666666667 97.0 L 95.0 98.0 L 94.0 99.0 L 93.0 100.0 L 92.33333333333333 101.0 L 91.66666666666667 102.0 L 91.0 103.0 L 90.0 103.66666666666667 L 89.0 104.33333333333333 L 88.0 105.0 L 87.0 106.0 L 86.0 107.0 L 85.0 107.66666666666667 L 84.0 108.33333333333333 L 83.0 108.66666666666667 L 82.0 109.33333333333333 L 81.0 109.66666666666667 L 80.0 110.33333333333333 L 79.0 110.66666666666667 L 78.0 111.33333333333333 L 77.0 111.66666666666667 L 76.0 112.0 L 75.0 112.33333333333333 L 74.0 112.66666666666667 L 73.0 113.0 L 72.0 113.0 L 71.0 113.33333333333333 L 70.0 113.66666666666667 L 69.0 114.0 L 68.0 114.0 L 67.0 114.0 L 66.0 114.0 L 65.0 114.0 L 64.0 114.0 L 63.0 114.0 L 62.0 114.0 L 61.0 114.0 L 60.0 114.0 L 59.0 114.0 L 58.0 114.0 L 57.0 113.66666666666667 L 56.0 113.33333333333333 L 55.0 113.0 L 54.0 113.0 L 53.0 112.66666666666667 L 52.0 112.33333333333333 L 51.0 112.0 L 50.0 111.66666666666667 L 49.0 111.33333333333333 L 48.0 110.66666666666667 L 47.0 110.33333333333333 L 46.0 109.66666666666667 L 45.0 109.33333333333333 L 44.0 108.66666666666667 L 43.0 108.0 L 42.0 107.33333333333333 L 41.0 106.66666666666667 L 40.0 106.0 L 39.0 105.0 L 38.0 104.0 L 37.0 103.0 L 36.0 102.0 L 35.0 101.0 L 34.0 100.0 L 33.0 99.0 L 32.333333333333336 98.0 L 31.666666666666668 97.0 L 31.0 96.0 L 30.333333333333332 95.0 L 29.666666666666668 94.0 L 29.333333333333332 93.0 L 28.666666666666668 92.0 L 28.333333333333332 91.0 L 27.666666666666668 90.0 L 27.0 89.33333333333333 L 26.0 89.0 L 25.0 89.0 L 24.0 89.0 L 23.0 89.0 L 22.0 89.0 L 21.0 89.0 L 20.333333333333332 89.33333333333333 L 20.0 90.0 L 20.0 91.0 L 20.0 92.0 L 20.333333333333332 93.0 L 20.666666666666668 94.0 L 21.333333333333332 95.0 L 21.666666666666668 96.0 L 22.333333333333332 97.0 L 22.666666666666668 98.0 L 23.333333333333332 99.0 L 23.666666666666668 100.0 L 24.0 100.5 Z" stroke="none" fill="rgb(248,197,44)" />
<path d="M 75.5 96.0 L 76.0 96.0 L 77.0 96.0 L 78.0 96.0 L 79.0 96.0 L 80.0 96.0 L 81.0 96.0 L 82.0 96.0 L 82.66666666666667 95.66666666666667 L 83.0 95.0 L 83.0 94.0 L 83.0 93.0 L 83.0 92.0 L 82.66666666666667 91.0 L 82.0 90.33333333333333 L 81.0 90.0 L 80.0 90.0 L 79.0 90.0 L 78.0 90.0 L 77.0 90.0 L 76.0 90.0 L 75.0 90.0 L 74.0 90.0 L 73.0 90.33333333333333 L 72.33333333333333 91.0 L 72.33333333333333 92.0 L 72.66666666666667 93.0 L 73.33333333333333 94.0 L 74.0 95.0 L 74.5 95.5 Z" stroke="none" fill="rgb(129,10,145)" />
<path d="M 95.5 96.0 L 95.66666666666667 95.66666666666667 L 96.0 95.0 L 96.0 94.0 L 96.0 93.0 L 96.0 92.0 L 95.66666666666667 91.0 L 95.0 90.33333333333333 L 94.0 90.0 L 93.0 90.0 L 92.0 90.33333333333333 L 91.0 90.66666666666667 L 90.0 91.0 L 89.0 91.0 L 88.0 91.0 L 87.0 91.0 L 86.0 91.0 L 85.0 91.0 L 84.0 91.0 L 83.33333333333333 91.33333333333333 L 83.0 92.0 L 83.0 93.0 L 83.0 94.0 L 83.33333333333333 94.66666666666667 L 84.0 95.33333333333333 L 85.0 95.66666666666667 L 86.0 96.0 L 87.0 96.0 L 88.0 96.0 L 89.0 96.0 L 90.0 96.0 L 91.0 96.0 L 92.0 96.0 L 93.0 96.0 L 94.0 96.0 L 94.5 96.0 Z" stroke="none" fill="rgb(14,84,118)" />
<path d="M 102.5 95.0 L 103.0 95.0 L 104.0 95.33333333333333 L 105.0 95.66666666666667 L 106.0 95.66666666666667 L 106.66666666666667 95.0 L 106.66666666666667 94.0 L 106.33333333333333 93.0 L 106.0 92.0 L 105.66666666666667 91.33333333333333 L 105.0 91.0 L 104.0 91.0 L 103.0 91.0 L 102.0 91.0 L 101.0 91.0 L 100.0 91.0 L 99.0 91.0 L 98.0 91.0 L 97.0 91.0 L 96.33333333333333 91.33333333333333 L 96.0 92.0 L 96.0 93.0 L 96.0 94.0 L 96.33333333333333 94.66666666666667 L 97.0 95.0 L 98.0 95.0 L 99.0 95.0 L 100.0 95.0 L 101.0 95.0 L 101.5 95.0 Z" stroke="none" fill="rgb(38,118,176)" />
<path d="M 110.0 100.5 L 110.33333333333333 100.0 L 110.66666666666667 99.0 L 111.33333333333333 98.0 L 111.66666666666667 97.0 L 112.0 96.0 L 112.0 95.0 L 111.66666666666667 94.33333333333333 L 111.0 94.0 L 110.0 94.0 L 109.0 94.33333333333333 L 108.33333333333333 95.0 L 107.66666666666667 96.0 L 107.0 97.0 L 106.33333333333333 98.0 L 105.66666666666667 99.0 L 105.0 100.0 L 104.33333333333333 101.0 L 103.66666666666667 102.0 L 103.0 103.0 L 102.0 104.0 L 101.0 105.0 L 100.33333333333333 106.0 L 100.0 107.0 L 100.0 108.0 L 100.0 109.0 L 100.0 110.0 L 100.33333333333333 110.66666666666667 L 101.0 111.0 L 102.0 110.66666666666667 L 103.0 110.0 L 104.0 109.0 L 105.0 108.0 L 105.66666666666667 107.0 L 106.33333333333333 106.0 L 107.0 105.0 L 107.66666666666667 104.0 L 108.33333333333333 103.0 L 109.0 102.0 L 109.5 101.5 Z" stroke="none" fill="rgb(235,144,2)" />
<path d="M 107.5 97.5 L 107.66666666666667 97.0 L 108.0 96.0 L 107.66666666666667 95.33333333333333 L 107.0 95.0 L 106.0 95.33333333333333 L 105.33333333333333 96.0 L 104.66666666666667 97.0 L 104.33333333333333 98.0 L 103.66666666666667 99.0 L 103.0 100.0 L 102.33333333333333 101.0 L 101.66666666666667 102.0 L 101.0 103.0 L 100.33333333333333 104.0 L 100.0 105.0 L 100.33333333333333 105.66666666666667 L 101.0 105.66666666666667 L 102.0 105.0 L 103.0 104.0 L 103.66666666666667 103.0 L 104.33333333333333 102.0 L 105.0 101.0 L 105.66666666666667 100.0 L 106.33333333333333 99.0 L 106.5 98.5 Z" stroke="none" fill="rgb(245,183,41)" />
<path d="M 17.5 102.0 L 18.0 102.0 L 19.0 101.66666666666667 L 20.0 101.0 L 20.666666666666668 100.0 L 21.0 99.0 L 20.666666666666668 98.0 L 20.0 97.0 L 19.0 96.33333333333333 L 18.0 96.0 L 17.0 96.0 L 16.0 96.0 L 15.0 96.0 L 14.0 96.0 L 13.0 96.0 L 12.0 96.33333333333333 L 11.0 96.66666666666667 L 10.0 97.0 L 9.333333333333334 97.33333333333333 L 9.0 98.0 L 9.0 99.0 L 9.0 100.0 L 9.333333333333334 101.0 L 10.0 101.66666666666667 L 11.0 102.0 L 12.0 102.0 L 13.0 102.0 L 14.0 102.0 L 15.0 102.0 L 16.0 102.0 L 16.5 102.0 Z" stroke="none" fill="rgb(123,205,236)" />
<path d="M 23.5 107.5 L 24.0 108.0 L 25.0 109.0 L 26.0 109.66666666666667 L 27.0 110.33333333333333 L 28.0 111.0 L 29.0 112.0 L 30.0 112.66666666666667 L 31.0 113.0 L 31.666666666666668 112.66666666666667 L 31.666666666666668 112.0 L 31.0 111.0 L 30.0 110.0 L 29.0 109.0 L 28.0 108.0 L 27.0 107.0 L 26.0 106.0 L 25.0 105.0 L 24.333333333333332 104.0 L 23.666666666666668 103.0 L 23.0 102.0 L 22.333333333333332 101.0 L 21.666666666666668 100.33333333333333 L 21.0 100.0 L 20.0 100.33333333333333 L 19.333333333333332 101.0 L 19.0 102.0 L 19.333333333333332 103.0 L 20.0 104.0 L 21.0 105.0 L 22.0 106.0 L 22.5 106.5 Z" stroke="none" fill="rgb(244,165,36)" />
<path d="M 95.5 116.0 L 96.0 116.0 L 97.0 116.0 L 98.0 116.0 L 99.0 115.66666666666667 L 99.66666666666667 115.0 L 100.0 114.0 L 100.33333333333333 113.0 L 100.66666666666667 112.0 L 100.66666666666667 111.0 L 100.33333333333333 110.0 L 100.0 109.0 L 100.0 108.0 L 99.66666666666667 107.0 L 99.0 106.0 L 98.0 105.33333333333333 L 97.0 105.0 L 96.0 105.0 L 95.0 105.33333333333333 L 94.33333333333333 106.0 L 93.66666666666667 107.0 L 93.33333333333333 108.0 L 93.0 109.0 L 93.0 110.0 L 93.0 111.0 L 93.0 112.0 L 93.0 113.0 L 93.33333333333333 114.0 L 94.0 115.0 L 94.5 115.5 Z" stroke="none" fill="rgb(246,60,189)" />
<path d="M 23.5 121.5 L 23.666666666666668 121.0 L 24.0 120.0 L 24.0 119.0 L 23.666666666666668 118.0 L 23.333333333333332 117.0 L 23.0 116.0 L 22.666666666666668 115.0 L 22.0 114.0 L 21.333333333333332 113.0 L 20.666666666666668 112.33333333333333 L 20.0 111.66666666666667 L 19.0 111.0 L 18.0 110.33333333333333 L 17.0 110.0 L 16.0 110.0 L 15.333333333333334 110.33333333333333 L 15.0 111.0 L 15.0 112.0 L 15.0 113.0 L 15.0 114.0 L 15.0 115.0 L 15.333333333333334 116.0 L 15.666666666666666 117.0 L 16.333333333333332 118.0 L 17.0 119.0 L 18.0 120.0 L 19.0 121.0 L 20.0 121.66666666666667 L 21.0 122.0 L 22.0 122.0 L 22.5 122.0 Z" stroke="none" fill="rgb(0,72,255)" />
<path d="M 48.5 123.5 L 49.0 123.66666666666667 L 50.0 124.0 L 51.0 124.0 L 52.0 124.33333333333333 L 53.0 124.66666666666667 L 54.0 125.0 L 55.0 125.0 L 56.0 125.0 L 57.0 125.0 L 58.0 125.0 L 59.0 125.0 L 60.0 125.0 L 61.0 125.0 L 62.0 125.0 L 63.0 125.0 L 64.0 125.0 L 65.0 125.0 L 66.0 125.0 L 67.0 125.0 L 68.0 125.0 L 69.0 125.0 L 70.0 125.0 L 71.0 125.0 L 72.0 125.0 L 73.0 125.0 L 74.0 124.66666666666667 L 75.0 124.33333333333333 L 76.0 124.0 L 77.0 124.0 L 78.0 124.0 L 79.0 123.66666666666667 L 80.0 123.33333333333333 L 81.0 123.0 L 82.0 122.66666666666667 L 83.0 122.33333333333333 L 84.0 122.0 L 85.0 121.66666666666667 L 86.0 121.33333333333333 L 87.0 120.66666666666667 L 88.0 120.33333333333333 L 89.0 119.66666666666667 L 90.0 119.33333333333333 L 91.0 118.66666666666667 L 92.0 118.33333333333333 L 93.0 117.66666666666667 L 94.0 117.33333333333333 L 94.66666666666667 116.66666666666667 L 95.0 116.0 L 94.66666666666667 115.0 L 94.0 114.0 L 93.0 113.33333333333333 L 92.0 113.33333333333333 L 91.0 113.66666666666667 L 90.0 114.33333333333333 L 89.0 115.0 L 88.0 115.66666666666667 L 87.0 116.33333333333333 L 86.0 116.66666666666667 L 85.0 117.33333333333333 L 84.0 117.66666666666667 L 83.0 118.0 L 82.0 118.33333333333333 L 81.0 118.66666666666667 L 80.0 119.0 L 79.0 119.33333333333333 L 78.0 119.66666666666667 L 77.0 120.0 L 76.0 120.33333333333333 L 75.0 120.66666666666667 L 74.0 121.0 L 73.0 121.0 L 72.0 121.0 L 71.0 121.0 L 70.0 121.33333333333333 L 69.0 121.66666666666667 L 68.0 122.0 L 67.0 122.0 L 66.0 122.0 L 65.0 122.0 L 64.0 122.0 L 63.0 122.0 L 62.0 122.0 L 61.0 122.0 L 60.0 122.0 L 59.0 122.0 L 58.0 121.66666666666667 L 57.0 121.33333333333333 L 56.0 121.0 L 55.0 121.0 L 54.0 121.0 L 53.0 121.0 L 52.0 120.66666666666667 L 51.0 120.33333333333333 L 50.0 120.0 L 49.0 120.0 L 48.0 119.66666666666667 L 47.0 119.33333333333333 L 46.0 119.0 L 45.0 119.0 L 44.0 119.0 L 43.0 118.66666666666667 L 42.0 118.33333333333333 L 41.0 118.0 L 40.0 117.66666666666667 L 39.0 117.33333333333333 L 38.0 116.66666666666667 L 37.0 116.33333333333333 L 36.0 115.66666666666667 L 35.0 115.0 L 34.0 114.33333333333333 L 33.0 113.66666666666667 L 32.0 113.33333333333333 L 31.0 112.66666666666667 L 30.0 112.0 L 29.0 111.0 L 28.0 110.33333333333333 L 27.0 110.0 L 26.333333333333332 110.33333333333333 L 26.0 111.0 L 26.333333333333332 112.0 L 27.0 113.0 L 28.0 113.66666666666667 L 29.0 114.33333333333333 L 30.0 115.0 L 31.0 116.0 L 32.0 116.66666666666667 L 33.0 117.33333333333333 L 34.0 117.66666666666667 L 35.0 118.33333333333333 L 36.0 118.66666666666667 L 37.0 119.33333333333333 L 38.0 119.66666666666667 L 39.0 120.33333333333333 L 40.0 120.66666666666667 L 41.0 121.33333333333333 L 42.0 121.66666666666667 L 43.0 122.0 L 44.0 122.33333333333333 L 45.0 122.66666666666667 L 46.0 123.0 L 47.0 123.0 L 47.5 123.0 Z" stroke="none" fill="rgb(235,144,2)" />
<path d="M 32.5 114.0 L 32.666666666666664 113.66666666666667 L 32.666666666666664 113.33333333333333 L 32.333333333333336 113.33333333333333 L 32.0 113.5 Z" stroke="none" fill="rgb(244,165,36)" />
</svg>
