<?xml version="1.0" encoding="UTF-8" standalone="no"?>
<!DOCTYPE svg PUBLIC "-//W3C//DTD SVG 1.1//EN"
"http://www.w3.org/Graphics/SVG/1.1/DTD/svg11.dtd">
<svg width="128" height="128" xmlns="http://www.w3.org/2000/svg" version="1.1">
<path d="M 88.5 128.0 L 89.0 128.0 L 90.0 128.0 L 91.0 128.0 L 92.0 128.0 L 93.0 128.0 L 94.0 128.0 L 95.0 128.0 L 96.0 128.0 L 97.0 128.0 L 98.0 128.0 L 99.0 128.0 L 100.0 128.0 L 101.0 128.0 L 102.0 128.0 L 103.0 128.0 L 104.0 128.0 L 105.0 128.0 L 106.0 128.0 L 107.0 128.0 L 108.0 128.0 L 109.0 128.0 L 110.0 128.0 L 111.0 128.0 L 112.0 128.0 L 113.0 128.0 L 114.0 128.0 L 115.0 128.0 L 116.0 128.0 L 117.0 128.0 L 118.0 128.0 L 119.0 128.0 L 120.0 128.0 L 121.0 128.0 L 122.0 128.0 L 123.0 128.0 L 124.0 128.0 L 125.0 128.0 L 126.0 128.0 L 127.0 128.0 L 127.66666666666667 127.66666666666667 L 128.0 127.0 L 128.0 126.0 L 128.0 125.0 L 128.0 124.0 L 128.0 123.0 L 128.0 122.0 L 128.0 121.0 L 128.0 120.0 L 128.0 119.0 L 128.0 118.0 L 128.0 117.0 L 128.0 116.0 L 128.0 115.0 L 128.0 114.0 L 128.0 113.0 L 128.0 112.0 L 128.0 111.0 L 128.0 110.0 L 128.0 109.0 L 128.0 108.0 L 128.0 107.0 L 128.0 106.0 L 128.0 105.0 L 128.0 104.0 L 128.0 103.0 L 128.0 102.0 L 128.0 101.0 L 128.0 100.0 L 128.0 99.0 L 128.0 98.0 L 128.0 97.0 L 128.0 96.0 L 128.0 95.0 L 128.0 94.0 L 128.0 93.0 L 128.0 92.0 L 128.0 91.0 L 128.0 90.0 L 128.0 89.0 L 128.0 88.0 L 128.0 87.0 L 128.0 86.0 L 128.0 85.0 L 128.0 84.0 L 128.0 83.0 L 128.0 82.0 L 128.0 81.0 L 128.0 80.0 L 128.0 79.0 L 128.0 78.0 L 128.0 77.0 L 128.0 76.0 L 128.0 75.0 L 128.0 74.0 L 128.0 73.0 L 128.0 72.0 L 128.0 71.0 L 128.0 70.0 L 128.0 69.0 L 128.0 68.0 L 128.0 67.0 L 128.0 66.0 L 128.0 65.0 L 128.0 64.0 L 128.0 63.0 L 128.0 62.0 L 128.0 61.0 L 128.0 60.0 L 128.0 59.0 L 128.0 58.0 L 128.0 57.0 L 128.0 56.0 L 128.0 55.0 L 128.0 54.0 L 128.0 53.0 L 128.0 52.0 L 128.0 51.0 L 128.0 50.0 L 128.0 49.0 L 128.0 48.0 L 128.0 47.0 L 128.0 46.0 L 128.0 45.0 L 128.0 44.0 L 128.0 43.0 L 128.0 42.0 L 128.0 41.0 L 128.0 40.0 L 128.0 39.0 L 128.0 38.0 L 128.0 37.0 L 128.0 36.0 L 128.0 35.0 L 128.0 34.0 L 128.0 33.0 L 128.0 32.0 L 128.0 31.0 L 128.0 30.0 L 128.0 29.0 L 128.0 28.0 L 128.0 27.0 L 128.0 26.0 L 128.0 25.0 L 128.0 24.0 L 128.0 23.0 L 128.0 22.0 L 128.0 21.0 L 128.0 20.0 L 128.0 19.0 L 128.0 18.0 L 128.0 17.0 L 128.0 16.0 L 128.0 15.0 L 128.0 14.0 L 128.0 13.0 L 128.0 12.0 L 128.0 11.0 L 128.0 10.0 L 128.0 9.0 L 128.0 8.0 L 128.0 7.0 L 128.0 6.0 L 128.0 5.0 L 128.0 4.0 L 128.0 3.0 L 128.0 2.0 L 128.0 1.0 L 127.66666666666667 0.3333333333333333 L 127.0 0.0 L 126.0 0.0 L 125.0 0.0 L 124.0 0.0 L 123.0 0.0 L 122.0 0.0 L 121.0 0.0 L 120.0 0.0 L 119.0 0.0 L 118.0 0.0 L 117.0 0.0 L 116.0 0.0 L 115.0 0.0 L 114.0 0.0 L 113.0 0.0 L 112.0 0.0 L 111.0 0.0 L 110.0 0.0 L 109.0 0.0 L 108.0 0.0 L 107.0 0.0 L 106.0 0.0 L 105.0 0.0 L 104.0 0.0 L 103.0 0.0 L 102.0 0.0 L 101.0 0.0 L 100.0 0.0 L 99.0 0.0 L 98.0 0.0 L 97.0 0.0 L 96.0 0.0 L 95.0 0.0 L 94.0 0.0 L 93.0 0.0 L 92.0 0.0 L 91.0 0.0 L 90.0 0.0 L 89.0 0.0 L 88.0 0.0 L 87.0 0.0 L 86.0 0.0 L 85.0 0.0 L 84.0 0.0 L 83.0 0.0 L 82.0 0.0 L 81.0 0.0 L 80.0 0.0 L 79.0 0.0 L 78.0 0.0 L 77.0 0.0 L 76.0 0.0 L 75.0 0.0 L 74.0 0.0 L 73.0 0.0 L 72.0 0.0 L 71.0 0.0 L 70.0 0.0 L 69.0 0.0 L 68.0 0.0 L 67.0 0.0 L 66.0 0.0 L 65.0 0.0 L 64.0 0.0 L 63.0 0.0 L 62.0 0.0 L 61.0 0.0 L 60.0 0.0 L 59.0 0.0 L 58.0 0.0 L 57.0 0.0 L 56.0 0.0 L 55.0 0.0 L 54.0 0.0 L 53.0 0.0 L 52.0 0.0 L 51.0 0.0 L 50.0 0.0 L 49.0 0.0 L 48.0 0.0 L 47.0 0.0 L 46.0 0.0 L 45.0 0.0 L 44.0 0.0 L 43.0 0.0 L 42.0 0.0 L 41.0 0.0 L 40.0 0.0 L 39.0 0.0 L 38.0 0.0 L 37.0 0.0 L 36.0 0.0 L 35.0 0.0 L 34.0 0.0 L 33.0 0.0 L 32.0 0.0 L 31.0 0.0 L 30.0 0.0 L 29.0 0.0 L 28.0 0.0 L 27.0 0.0 L 26.0 0.0 L 25.0 0.0 L 24.0 0.0 L 23.0 0.0 L 22.0 0.0 L 21.0 0.0 L 20.0 0.0 L 19.0 0.0 L 18.0 0.0 L 17.0 0.0 L 16.0 0.0 L 15.0 0.0 L 14.0 0.0 L 13.0 0.0 L 12.0 0.0 L 11.0 0.0 L 10.0 0.0 L 9.0 0.0 L 8.0 0.0 L 7.0 0.0 L 6.0 0.0 L 5.0 0.0 L 4.0 0.0 L 3.0 0.0 L 2.0 0.0 L 1.0 0.0 L 0.3333333333333333 0.3333333333333333 L 0.0 1.0 L 0.0 2.0 L 0.0 3.0 L 0.0 4.0 L 0.0 5.0 L 0.0 6.0 L 0.0 7.0 L 0.0 8.0 L 0.0 9.0 L 0.0 10.0 L 0.0 11.0 L 0.0 12.0 L 0.0 13.0 L 0.0 14.0 L 0.0 15.0 L 0.0 16.0 L 0.0 17.0 L 0.0 18.0 L 0.0 19.0 L 0.0 20.0 L 0.0 21.0 L 0.0 22.0 L 0.0 23.0 L 0.0 24.0 L 0.0 25.0 L 0.0 26.0 L 0.0 27.0 L 0.0 28.0 L 0.0 29.0 L 0.0 30.0 L 0.0 31.0 L 0.0 32.0 L 0.0 33.0 L 0.0 34.0 L 0.0 35.0 L 0.0 36.0 L 0.0 37.0 L 0.0 38.0 L 0.0 39.0 L 0.0 40.0 L 0.0 41.0 L 0.0 42.0 L 0.0 43.0 L 0.0 44.0 L 0.0 45.0 L 0.0 46.0 L 0.0 47.0 L 0.0 48.0 L 0.0 49.0 L 0.0 50.0 L 0.0 51.0 L 0.0 52.0 L 0.0 53.0 L 0.0 54.0 L 0.0 55.0 L 0.0 56.0 L 0.0 57.0 L 0.0 58.0 L 0.0 59.0 L 0.0 60.0 L 0.0 61.0 L 0.0 62.0 L 0.0 63.0 L 0.0 64.0 L 0.0 65.0 L 0.0 66.0 L 0.0 67.0 L 0.0 68.0 L 0.0 69.0 L 0.0 70.0 L 0.0 71.0 L 0.0 72.0 L 0.0 73.0 L 0.0 74.0 L 0.0 75.0 L 0.0 76.0 L 0.0 77.0 L 0.0 78.0 L 0.0 79.0 L 0.0 80.0 L 0.0 81.0 L 0.0 82.0 L 0.0 83.0 L 0.0 84.0 L 0.0 85.0 L 0.0 86.0 L 0.0 87.0 L 0.0 88.0 L 0.0 89.0 L 0.0 90.0 L 0.0 91.0 L 0.0 92.0 L 0.0 93.0 L 0.0 94.0 L 0.0 95.0 L 0.0 96.0 L 0.0 97.0 L 0.0 98.0 L 0.0 99.0 L 0.0 100.0 L 0.0 101.0 L 0.0 102.0 L 0.0 103.0 L 0.0 104.0 L 0.0 105.0 L 0.0 106.0 L 0.0 107.0 L 0.0 108.0 L 0.0 109.0 L 0.0 110.0 L 0.0 111.0 L 0.0 112.0 L 0.0 113.0 L 0.0 114.0 L 0.0 115.0 L 0.0 116.0 L 0.0 117.0 L 0.0 118.0 L 0.0 119.0 L 0.0 120.0 L 0.0 121.0 L 0.0 122.0 L 0.0 123.0 L 0.0 124.0 L 0.0 125.0 L 0.0 126.0 L 0.0 127.0 L 0.3333333333333333 127.66666666666667 L 1.0 128.0 L 2.0 128.0 L 3.0 128.0 L 4.0 128.0 L 5.0 128.0 L 6.0 128.0 L 7.0 128.0 L 8.0 128.0 L 9.0 128.0 L 10.0 128.0 L 11.0 128.0 L 12.0 128.0 L 13.0 128.0 L 14.0 128.0 L 15.0 128.0 L 16.0 128.0 L 17.0 128.0 L 18.0 128.0 L 19.0 128.0 L 20.0 128.0 L 21.0 128.0 L 22.0 128.0 L 23.0 128.0 L 24.0 128.0 L 25.0 128.0 L 26.0 128.0 L 27.0 128.0 L 28.0 128.0 L 29.0 128.0 L 30.0 128.0 L 31.0 128.0 L 32.0 128.0 L 33.0 128.0 L 34.0 128.0 L 35.0 128.0 L 36.0 128.0 L 37.0 128.0 L 38.0 128.0 L 39.0 128.0 L 40.0 128.0 L 41.0 128.0 L 42.0 128.0 L 43.0 128.0 L 44.0 128.0 L 45.0 128.0 L 46.0 128.0 L 47.0 128.0 L 48.0 128.0 L 49.0 128.0 L 50.0 128.0 L 51.0 128.0 L 52.0 128.0 L 53.0 128.0 L 54.0 128.0 L 55.0 128.0 L 56.0 128.0 L 57.0 128.0 L 58.0 128.0 L 59.0 128.0 L 60.0 128.0 L 61.0 128.0 L 62.0 128.0 L 63.0 128.0 L 64.0 128.0 L 65.0 128.0 L 66.0 128.0 L 67.0 128.0 L 68.0 128.0 L 69.0 128.0 L 70.0 128.0 L 71.0 128.0 L 72.0 128.0 L 73.0 128.0 L 74.0 128.0 L 75.0 128.0 L 76.0 128.0 L 77.0 128.0 L 78.0 128.0 L 79.0 128.0 L 80.0 128.0 L 81.0 128.0 L 82.0 128.0 L 83.0 128.0 L 84.0 128.0 L 85.0 128.0 L 86.0 128.0 L 87.0 128.0 L 87.5 128.0 Z" stroke="none" fill="rgb(255,255,255)" />
<path d="M 55.5 64.0 L 56.0 64.33333333333333 L 56.666666666666664 65.0 L 57.333333333333336 65.66666666666667 L 58.0 65.66666666666667 L 59.0 65.33333333333333 L 60.0 65.0 L 61.0 65.0 L 62.0 65.0 L 63.0 65.0 L 64.0 65.0 L 65.0 64.66666666666667 L 66.0 64.33333333333333 L 67.0 64.0 L 68.0 64.0 L 69.0 63.666666666666664 L 70.0 63.333333333333336 L 71.0 63.0 L 72.0 62.666666666666664 L 73.0 62.333333333333336 L 74.0 61.666666666666664 L 75.0 61.0 L 76.0 60.0 L 77.0 59.0 L 78.0 58.0 L 79.0 57.0 L 79.66666666666667 56.0 L 80.33333333333333 55.0 L 80.66666666666667 54.0 L 81.33333333333333 53.0 L 81.66666666666667 52.0 L 82.0 51.0 L 82.33333333333333 50.0 L 82.66666666666667 49.0 L 83.0 48.0 L 83.0 47.0 L 83.33333333333333 46.0 L 83.66666666666667 45.0 L 83.66666666666667 44.0 L 83.33333333333333 43.0 L 83.0 42.0 L 83.0 41.0 L 83.0 40.0 L 82.66666666666667 39.0 L 82.0 38.0 L 81.0 37.0 L 80.33333333333333 36.0 L 79.66666666666667 35.0 L 79.0 34.0 L 78.33333333333333 33.0 L 77.66666666666667 32.0 L 77.33333333333333 31.0 L 77.0 30.0 L 76.66666666666667 29.0 L 76.33333333333333 28.0 L 75.66666666666667 27.0 L 75.0 26.0 L 74.0 25.0 L 73.0 24.333333333333332 L 72.0 24.0 L 71.0 24.0 L 70.0 24.333333333333332 L 69.0 24.666666666666668 L 68.0 25.0 L 67.0 25.333333333333332 L 66.0 25.666666666666668 L 65.0 26.0 L 64.0 26.0 L 63.0 26.333333333333332 L 62.0 26.666666666666668 L 61.0 27.0 L 60.0 27.0 L 59.0 27.0 L 58.0 27.333333333333332 L 57.0 27.666666666666668 L 56.0 28.0 L 55.0 28.0 L 54.0 28.0 L 53.0 28.0 L 52.0 28.0 L 51.0 28.0 L 50.0 28.0 L 49.0 28.0 L 48.0 28.0 L 47.0 28.0 L 46.0 28.0 L 45.0 28.333333333333332 L 44.333333333333336 29.0 L 44.0 30.0 L 43.666666666666664 31.0 L 43.333333333333336 32.0 L 43.0 33.0 L 43.0 34.0 L 43.0 35.0 L 43.0 36.0 L 43.0 37.0 L 42.666666666666664 38.0 L 42.333333333333336 39.0 L 42.0 40.0 L 42.0 41.0 L 42.0 42.0 L 42.0 43.0 L 42.0 44.0 L 41.666666666666664 45.0 L 41.333333333333336 46.0 L 41.0 47.0 L 41.0 48.0 L 41.0 49.0 L 41.0 50.0 L 41.333333333333336 51.0 L 41.666666666666664 52.0 L 42.333333333333336 53.0 L 42.666666666666664 54.0 L 43.333333333333336 55.0 L 43.666666666666664 56.0 L 44.333333333333336 57.0 L 45.0 58.0 L 46.0 59.0 L 47.0 60.0 L 48.0 60.666666666666664 L 49.0 61.333333333333336 L 50.0 62.0 L 51.0 62.666666666666664 L 52.0 63.333333333333336 L 53.0 63.666666666666664 L 54.0 64.0 L 54.5 64.0 Z" stroke="none" fill="rgb(165,108,67)" />
<path d="M 40.5 43.5 L 41.0 43.666666666666664 L 41.666666666666664 43.666666666666664 L 42.0 43.0 L 42.0 42.0 L 42.0 41.0 L 42.0 40.0 L 41.666666666666664 39.0 L 41.333333333333336 38.0 L 40.666666666666664 37.0 L 40.333333333333336 36.0 L 40.0 35.0 L 40.0 34.0 L 40.0 33.0 L 40.0 32.0 L 40.0 31.0 L 40.0 30.0 L 40.0 29.0 L 40.333333333333336 28.0 L 40.666666666666664 27.0 L 41.0 26.0 L 41.333333333333336 25.0 L 41.666666666666664 24.0 L 42.0 23.0 L 42.333333333333336 22.0 L 43.0 21.0 L 43.666666666666664 20.0 L 44.333333333333336 19.0 L 45.0 18.0 L 46.0 17.0 L 47.0 16.0 L 48.0 15.0 L 49.0 14.0 L 50.0 13.333333333333334 L 51.0 12.666666666666666 L 52.0 12.333333333333334 L 53.0 11.666666666666666 L 54.0 11.333333333333334 L 55.0 11.0 L 56.0 11.0 L 57.0 11.0 L 58.0 11.0 L 59.0 11.0 L 60.0 11.0 L 61.0 11.0 L 62.0 11.0 L 63.0 11.0 L 64.0 11.333333333333334 L 65.0 11.666666666666666 L 66.0 12.333333333333334 L 67.0 12.666666666666666 L 68.0 13.333333333333334 L 69.0 14.0 L 70.0 14.666666666666666 L 71.0 15.333333333333334 L 72.0 16.0 L 73.0 17.0 L 74.0 18.0 L 74.66666666666667 19.0 L 75.33333333333333 20.0 L 76.0 21.0 L 76.66666666666667 22.0 L 77.33333333333333 23.0 L 77.66666666666667 24.0 L 78.0 25.0 L 78.33333333333333 26.0 L 78.66666666666667 27.0 L 79.0 28.0 L 79.0 29.0 L 79.0 30.0 L 79.33333333333333 31.0 L 79.66666666666667 32.0 L 80.0 33.0 L 80.0 34.0 L 80.0 35.0 L 80.0 36.0 L 80.33333333333333 37.0 L 81.0 37.666666666666664 L 81.66666666666667 37.666666666666664 L 82.0 37.0 L 82.33333333333333 36.0 L 82.66666666666667 35.0 L 83.0 34.0 L 83.0 33.0 L 83.0 32.0 L 82.66666666666667 31.0 L 82.0 30.0 L 81.66666666666667 29.0 L 81.66666666666667 28.0 L 82.0 27.0 L 81.66666666666667 26.0 L 81.0 25.0 L 80.33333333333333 24.0 L 79.66666666666667 23.0 L 79.33333333333333 22.0 L 78.66666666666667 21.0 L 78.33333333333333 20.0 L 77.66666666666667 19.0 L 77.0 18.0 L 76.33333333333333 17.0 L 75.66666666666667 16.0 L 75.0 15.0 L 74.0 14.0 L 73.0 13.333333333333334 L 72.0 12.666666666666666 L 71.0 12.0 L 70.0 11.333333333333334 L 69.0 10.666666666666666 L 68.0 10.333333333333334 L 67.0 9.666666666666666 L 66.0 9.333333333333334 L 65.0 9.0 L 64.0 9.0 L 63.0 8.666666666666666 L 62.0 8.333333333333334 L 61.0 8.0 L 60.0 8.0 L 59.0 8.0 L 58.0 8.0 L 57.0 8.0 L 56.0 8.333333333333334 L 55.0 8.666666666666666 L 54.0 9.0 L 53.0 9.0 L 52.0 9.333333333333334 L 51.0 9.666666666666666 L 50.0 10.333333333333334 L 49.0 10.666666666666666 L 48.0 11.333333333333334 L 47.0 12.0 L 46.0 13.0 L 45.0 14.0 L 44.0 15.0 L 43.0 16.0 L 42.333333333333336 17.0 L 41.666666666666664 18.0 L 41.333333333333336 19.0 L 40.666666666666664 20.0 L 40.333333333333336 21.0 L 39.666666666666664 22.0 L 39.333333333333336 23.0 L 39.0 24.0 L 39.0 25.0 L 38.666666666666664 26.0 L 38.333333333333336 27.0 L 38.0 28.0 L 38.0 29.0 L 38.0 30.0 L 38.0 31.0 L 38.0 32.0 L 38.0 33.0 L 38.0 34.0 L 38.0 35.0 L 38.0 36.0 L 38.333333333333336 37.0 L 38.666666666666664 38.0 L 39.0 39.0 L 39.0 40.0 L 39.333333333333336 41.0 L 39.666666666666664 42.0 L 40.0 42.5 Z" stroke="none" fill="rgb(71,53,45)" />
<path d="M 58.5 27.5 L 59.0 27.333333333333332 L 60.0 27.0 L 61.0 27.0 L 62.0 27.0 L 63.0 26.666666666666668 L 64.0 26.333333333333332 L 65.0 26.0 L 66.0 26.0 L 67.0 25.666666666666668 L 68.0 25.333333333333332 L 69.0 25.0 L 70.0 24.666666666666668 L 71.0 24.333333333333332 L 72.0 24.333333333333332 L 73.0 25.0 L 74.0 26.0 L 75.0 27.0 L 75.66666666666667 28.0 L 76.33333333333333 29.0 L 76.66666666666667 30.0 L 77.0 31.0 L 77.33333333333333 32.0 L 77.66666666666667 33.0 L 78.33333333333333 34.0 L 79.0 34.666666666666664 L 79.66666666666667 34.666666666666664 L 80.0 34.0 L 80.0 33.0 L 80.0 32.0 L 79.66666666666667 31.0 L 79.33333333333333 30.0 L 79.0 29.0 L 79.0 28.0 L 79.0 27.0 L 78.66666666666667 26.0 L 78.33333333333333 25.0 L 78.0 24.0 L 77.66666666666667 23.0 L 77.33333333333333 22.0 L 76.66666666666667 21.0 L 76.0 20.0 L 75.33333333333333 19.0 L 74.66666666666667 18.0 L 74.0 17.0 L 73.0 16.0 L 72.0 15.333333333333334 L 71.0 14.666666666666666 L 70.0 14.0 L 69.0 13.333333333333334 L 68.0 12.666666666666666 L 67.0 12.333333333333334 L 66.0 11.666666666666666 L 65.0 11.333333333333334 L 64.0 11.0 L 63.0 11.0 L 62.0 11.0 L 61.0 11.0 L 60.0 11.0 L 59.0 11.0 L 58.0 11.0 L 57.0 11.0 L 56.0 11.0 L 55.0 11.0 L 54.0 11.0 L 53.0 11.333333333333334 L 52.0 11.666666666666666 L 51.0 12.333333333333334 L 50.0 12.666666666666666 L 49.0 13.333333333333334 L 48.0 14.0 L 47.0 15.0 L 46.0 16.0 L 45.0 17.0 L 44.333333333333336 18.0 L 43.666666666666664 19.0 L 43.0 20.0 L 42.333333333333336 21.0 L 42.0 22.0 L 41.666666666666664 23.0 L 41.333333333333336 24.0 L 41.0 25.0 L 40.666666666666664 26.0 L 40.333333333333336 27.0 L 40.0 28.0 L 40.0 29.0 L 40.0 30.0 L 40.0 31.0 L 40.0 32.0 L 40.0 33.0 L 40.0 34.0 L 40.0 35.0 L 40.0 36.0 L 40.333333333333336 37.0 L 40.666666666666664 38.0 L 41.333333333333336 38.666666666666664 L 42.0 39.0 L 42.666666666666664 38.666666666666664 L 43.0 38.0 L 43.0 37.0 L 43.0 36.0 L 43.0 35.0 L 43.0 34.0 L 43.333333333333336 33.0 L 43.666666666666664 32.0 L 44.0 31.0 L 44.333333333333336 30.0 L 45.0 29.0 L 46.0 28.333333333333332 L 47.0 28.0 L 48.0 28.0 L 49.0 28.0 L 50.0 28.0 L 51.0 28.0 L 52.0 28.0 L 53.0 28.0 L 54.0 28.0 L 55.0 28.0 L 56.0 28.0 L 57.0 28.0 L 57.5 28.0 Z" stroke="none" fill="rgb(61,45,36)" />
<path d="M 37.5 35.0 L 37.666666666666664 34.666666666666664 L 38.0 34.0 L 38.0 33.0 L 38.0 32.0 L 38.0 31.0 L 38.0 30.0 L 38.0 29.0 L 38.333333333333336 28.0 L 38.666666666666664 27.0 L 39.0 26.0 L 39.0 25.0 L 39.333333333333336 24.0 L 39.666666666666664 23.0 L 40.333333333333336 22.0 L 40.666666666666664 21.0 L 41.333333333333336 20.0 L 41.666666666666664 19.0 L 42.333333333333336 18.0 L 43.0 17.0 L 44.0 16.0 L 45.0 15.0 L 46.0 14.0 L 47.0 13.0 L 48.0 12.0 L 49.0 11.333333333333334 L 50.0 10.666666666666666 L 51.0 10.333333333333334 L 52.0 9.666666666666666 L 53.0 9.333333333333334 L 54.0 9.0 L 55.0 9.0 L 56.0 8.666666666666666 L 57.0 8.333333333333334 L 58.0 8.0 L 59.0 8.0 L 60.0 8.0 L 61.0 8.333333333333334 L 62.0 8.666666666666666 L 63.0 9.0 L 64.0 9.0 L 65.0 9.333333333333334 L 66.0 9.666666666666666 L 67.0 10.333333333333334 L 68.0 10.666666666666666 L 69.0 11.333333333333334 L 70.0 12.0 L 71.0 12.666666666666666 L 72.0 13.333333333333334 L 73.0 14.0 L 74.0 15.0 L 75.0 16.0 L 75.66666666666667 17.0 L 76.33333333333333 18.0 L 77.0 19.0 L 77.66666666666667 20.0 L 78.33333333333333 21.0 L 78.66666666666667 22.0 L 79.33333333333333 23.0 L 79.66666666666667 24.0 L 80.33333333333333 25.0 L 81.0 25.666666666666668 L 81.66666666666667 25.666666666666668 L 82.0 25.0 L 82.0 24.0 L 81.66666666666667 23.0 L 81.33333333333333 22.0 L 81.0 21.0 L 80.66666666666667 20.0 L 80.33333333333333 19.0 L 79.66666666666667 18.0 L 79.33333333333333 17.0 L 78.66666666666667 16.0 L 78.33333333333333 15.0 L 77.66666666666667 14.0 L 77.0 13.0 L 76.0 12.0 L 75.0 11.0 L 74.0 10.0 L 73.0 9.333333333333334 L 72.0 8.666666666666666 L 71.0 8.0 L 70.0 7.333333333333333 L 69.0 7.0 L 68.0 6.666666666666667 L 67.0 6.333333333333333 L 66.0 6.0 L 65.0 6.0 L 64.0 6.0 L 63.0 6.0 L 62.0 6.0 L 61.0 6.0 L 60.0 6.0 L 59.0 6.0 L 58.0 6.0 L 57.0 6.0 L 56.0 6.0 L 55.0 6.0 L 54.0 6.0 L 53.0 6.333333333333333 L 52.0 6.666666666666667 L 51.0 7.0 L 50.0 7.333333333333333 L 49.0 7.666666666666667 L 48.0 8.0 L 47.0 8.333333333333334 L 46.0 9.0 L 45.0 9.666666666666666 L 44.0 10.333333333333334 L 43.0 11.0 L 42.0 12.0 L 41.0 13.0 L 40.0 14.0 L 39.333333333333336 15.0 L 38.666666666666664 16.0 L 38.333333333333336 17.0 L 38.0 18.0 L 37.666666666666664 19.0 L 37.333333333333336 20.0 L 37.0 21.0 L 37.0 22.0 L 36.666666666666664 23.0 L 36.333333333333336 24.0 L 36.0 25.0 L 36.0 26.0 L 36.0 27.0 L 36.0 28.0 L 36.0 29.0 L 36.0 30.0 L 36.0 31.0 L 36.0 32.0 L 36.0 33.0 L 36.333333333333336 34.0 L 36.5 34.5 Z" stroke="none" fill="rgb(84,63,53)" />
<path d="M 59.5 83.0 L 59.666666666666664 82.66666666666667 L 60.0 82.0 L 60.0 81.0 L 60.333333333333336 80.0 L 61.0 79.33333333333333 L 62.0 79.0 L 62.666666666666664 78.66666666666667 L 63.333333333333336 78.0 L 64.0 77.33333333333333 L 65.0 77.0 L 66.0 76.66666666666667 L 67.0 76.33333333333333 L 68.0 76.0 L 69.0 76.0 L 70.0 75.66666666666667 L 71.0 75.0 L 72.0 74.33333333333333 L 73.0 73.66666666666667 L 74.0 73.33333333333333 L 75.0 73.0 L 75.66666666666667 72.66666666666667 L 76.0 72.0 L 76.33333333333333 71.0 L 77.0 70.33333333333333 L 78.0 70.0 L 79.0 70.0 L 80.0 70.0 L 81.0 70.0 L 82.0 70.0 L 82.66666666666667 69.66666666666667 L 83.0 69.0 L 82.66666666666667 68.0 L 82.0 67.33333333333333 L 81.0 67.0 L 80.0 67.0 L 79.0 67.0 L 78.0 66.66666666666667 L 77.0 66.33333333333333 L 76.0 66.0 L 75.0 66.0 L 74.0 66.0 L 73.0 66.0 L 72.33333333333333 66.33333333333333 L 72.0 67.0 L 72.0 68.0 L 71.66666666666667 69.0 L 71.33333333333333 70.0 L 70.66666666666667 71.0 L 70.0 72.0 L 69.0 73.0 L 68.0 73.66666666666667 L 67.0 74.0 L 66.0 74.0 L 65.0 74.0 L 64.0 74.0 L 63.0 74.0 L 62.0 73.66666666666667 L 61.0 73.0 L 60.0 72.0 L 59.0 71.0 L 58.333333333333336 70.0 L 58.0 69.0 L 58.0 68.0 L 58.0 67.0 L 57.666666666666664 66.0 L 57.0 65.33333333333333 L 56.0 65.0 L 55.0 65.0 L 54.0 65.0 L 53.0 65.0 L 52.0 65.0 L 51.0 65.0 L 50.0 65.33333333333333 L 49.0 65.66666666666667 L 48.0 66.0 L 47.0 66.0 L 46.0 66.0 L 45.0 66.0 L 44.0 66.0 L 43.0 66.33333333333333 L 42.0 66.66666666666667 L 41.0 67.33333333333333 L 40.0 67.66666666666667 L 39.0 68.33333333333333 L 38.0 68.66666666666667 L 37.0 69.33333333333333 L 36.0 70.0 L 35.0 71.0 L 34.0 72.0 L 33.333333333333336 73.0 L 32.666666666666664 74.0 L 32.0 75.0 L 31.0 76.0 L 30.333333333333332 77.0 L 29.666666666666668 78.0 L 29.333333333333332 79.0 L 28.666666666666668 80.0 L 28.333333333333332 81.0 L 27.666666666666668 82.0 L 27.333333333333332 83.0 L 26.666666666666668 84.0 L 26.333333333333332 85.0 L 26.0 86.0 L 26.0 87.0 L 26.333333333333332 88.0 L 27.0 88.66666666666667 L 28.0 89.0 L 28.666666666666668 88.66666666666667 L 29.0 88.0 L 29.0 87.0 L 29.0 86.0 L 29.333333333333332 85.0 L 30.0 84.0 L 31.0 83.0 L 32.0 82.0 L 33.0 81.0 L 34.0 80.0 L 35.0 79.33333333333333 L 36.0 79.0 L 37.0 79.0 L 38.0 79.0 L 38.666666666666664 78.66666666666667 L 39.0 78.0 L 39.333333333333336 77.0 L 40.0 76.33333333333333 L 41.0 76.0 L 42.0 76.0 L 43.0 76.0 L 44.0 76.0 L 45.0 76.0 L 46.0 76.0 L 47.0 76.0 L 48.0 76.33333333333333 L 49.0 76.66666666666667 L 50.0 77.33333333333333 L 51.0 78.0 L 52.0 79.0 L 53.0 80.0 L 54.0 81.0 L 55.0 82.0 L 56.0 83.0 L 57.0 83.66666666666667 L 58.0 83.66666666666667 L 58.5 83.5 Z" stroke="none" fill="rgb(0,190,164)" />
<path d="M 55.5 104.5 L 55.666666666666664 105.0 L 56.333333333333336 106.0 L 57.0 107.0 L 58.0 108.0 L 59.0 109.0 L 60.0 109.66666666666667 L 61.0 110.33333333333333 L 62.0 110.66666666666667 L 63.0 111.0 L 64.0 111.33333333333333 L 65.0 111.66666666666667 L 66.0 112.33333333333333 L 67.0 112.66666666666667 L 68.0 113.0 L 69.0 113.0 L 70.0 113.33333333333333 L 71.0 113.66666666666667 L 72.0 113.66666666666667 L 73.0 113.33333333333333 L 74.0 113.0 L 75.0 112.66666666666667 L 76.0 112.33333333333333 L 77.0 111.66666666666667 L 78.0 111.33333333333333 L 79.0 111.33333333333333 L 79.66666666666667 112.0 L 80.0 113.0 L 79.66666666666667 114.0 L 79.33333333333333 115.0 L 79.0 116.0 L 79.33333333333333 116.66666666666667 L 80.0 117.0 L 81.0 117.0 L 82.0 117.0 L 83.0 117.0 L 84.0 117.0 L 85.0 117.0 L 86.0 117.0 L 87.0 117.0 L 88.0 116.66666666666667 L 88.66666666666667 116.0 L 88.66666666666667 115.0 L 88.0 114.0 L 87.33333333333333 113.0 L 87.0 112.0 L 86.66666666666667 111.0 L 86.33333333333333 110.0 L 85.66666666666667 109.33333333333333 L 85.0 108.66666666666667 L 84.0 108.33333333333333 L 83.0 107.66666666666667 L 82.0 107.0 L 81.0 106.33333333333333 L 80.0 105.66666666666667 L 79.0 105.33333333333333 L 78.0 105.0 L 77.0 105.0 L 76.0 104.66666666666667 L 75.0 104.0 L 74.0 103.0 L 73.0 102.0 L 72.0 101.33333333333333 L 71.0 100.66666666666667 L 70.0 100.0 L 69.0 99.33333333333333 L 68.0 98.66666666666667 L 67.0 98.0 L 66.0 97.33333333333333 L 65.0 97.0 L 64.0 96.66666666666667 L 63.0 96.33333333333333 L 62.0 96.0 L 61.0 96.0 L 60.0 96.0 L 59.0 96.0 L 58.0 96.0 L 57.0 96.0 L 56.0 96.0 L 55.333333333333336 96.33333333333333 L 55.0 97.0 L 54.666666666666664 98.0 L 54.333333333333336 99.0 L 54.0 100.0 L 54.0 101.0 L 54.333333333333336 102.0 L 54.666666666666664 103.0 L 55.0 103.5 Z" stroke="none" fill="rgb(188,188,188)" />
<path d="M 39.5 123.0 L 40.0 123.0 L 41.0 123.0 L 42.0 123.33333333333333 L 43.0 123.66666666666667 L 44.0 124.0 L 45.0 124.0 L 46.0 124.0 L 47.0 124.0 L 48.0 124.0 L 49.0 124.0 L 50.0 124.33333333333333 L 51.0 124.66666666666667 L 52.0 125.0 L 53.0 125.0 L 54.0 125.0 L 55.0 125.0 L 56.0 125.0 L 57.0 125.0 L 58.0 125.0 L 59.0 125.0 L 60.0 125.0 L 61.0 125.0 L 62.0 125.0 L 62.666666666666664 124.66666666666667 L 63.0 124.0 L 63.0 123.0 L 63.0 122.0 L 63.0 121.0 L 63.0 120.0 L 63.333333333333336 119.0 L 63.666666666666664 118.0 L 64.0 117.0 L 63.666666666666664 116.0 L 63.0 115.33333333333333 L 62.0 115.0 L 61.0 115.0 L 60.0 114.66666666666667 L 59.0 114.33333333333333 L 58.0 114.0 L 57.0 114.0 L 56.0 114.0 L 55.0 114.0 L 54.0 114.0 L 53.0 114.0 L 52.0 114.0 L 51.0 114.0 L 50.0 114.0 L 49.0 114.0 L 48.0 114.0 L 47.0 114.0 L 46.0 114.0 L 45.0 114.0 L 44.0 114.0 L 43.0 114.0 L 42.0 114.0 L 41.0 114.0 L 40.0 114.0 L 39.0 114.0 L 38.0 114.0 L 37.0 114.0 L 36.0 114.0 L 35.0 114.0 L 34.0 114.0 L 33.0 114.0 L 32.0 114.0 L 31.0 114.0 L 30.0 114.0 L 29.0 114.0 L 28.0 114.0 L 27.0 114.0 L 26.0 114.0 L 25.0 114.0 L 24.0 114.0 L 23.333333333333332 114.33333333333333 L 23.0 115.0 L 23.333333333333332 116.0 L 24.0 117.0 L 25.0 117.66666666666667 L 26.0 118.33333333333333 L 27.0 118.66666666666667 L 28.0 119.33333333333333 L 29.0 119.66666666666667 L 30.0 120.33333333333333 L 31.0 120.66666666666667 L 32.0 121.0 L 33.0 121.33333333333333 L 34.0 121.66666666666667 L 35.0 122.0 L 36.0 122.0 L 37.0 122.33333333333333 L 38.0 122.66666666666667 L 38.5 123.0 Z" stroke="none" fill="rgb(0,160,138)" />
<path d="M 95.5 104.0 L 96.0 104.0 L 97.0 103.66666666666667 L 98.0 103.33333333333333 L 99.0 102.66666666666667 L 100.0 102.33333333333333 L 100.66666666666667 101.66666666666667 L 101.0 101.0 L 101.0 100.0 L 101.0 99.0 L 100.66666666666667 98.0 L 100.0 97.0 L 99.33333333333333 96.0 L 98.66666666666667 95.0 L 98.33333333333333 94.0 L 97.66666666666667 93.0 L 97.33333333333333 92.0 L 96.66666666666667 91.0 L 96.33333333333333 90.0 L 96.33333333333333 89.0 L 97.0 88.33333333333333 L 98.0 88.0 L 99.0 88.0 L 100.0 88.0 L 101.0 88.0 L 101.66666666666667 87.66666666666667 L 102.0 87.0 L 102.0 86.0 L 101.66666666666667 85.0 L 101.33333333333333 84.0 L 101.0 83.0 L 100.66666666666667 82.0 L 100.33333333333333 81.0 L 99.66666666666667 80.0 L 99.0 79.0 L 98.33333333333333 78.0 L 97.66666666666667 77.0 L 97.0 76.0 L 96.0 75.0 L 95.0 74.0 L 94.0 73.33333333333333 L 93.0 73.0 L 92.33333333333333 73.33333333333333 L 92.0 74.0 L 92.0 75.0 L 92.33333333333333 76.0 L 92.66666666666667 77.0 L 93.0 78.0 L 93.0 79.0 L 92.66666666666667 80.0 L 92.33333333333333 81.0 L 92.0 82.0 L 92.0 83.0 L 92.0 84.0 L 92.0 85.0 L 92.0 86.0 L 92.0 87.0 L 92.0 88.0 L 92.0 89.0 L 92.0 90.0 L 91.66666666666667 91.0 L 91.0 92.0 L 90.0 93.0 L 89.0 94.0 L 88.0 95.0 L 87.0 95.66666666666667 L 86.0 96.0 L 85.0 96.0 L 84.0 96.0 L 83.0 96.0 L 82.33333333333333 96.33333333333333 L 82.0 97.0 L 82.0 98.0 L 82.33333333333333 99.0 L 83.0 100.0 L 83.66666666666667 101.0 L 84.0 102.0 L 84.33333333333333 103.0 L 84.66666666666667 104.0 L 85.0 105.0 L 85.33333333333333 106.0 L 86.0 106.66666666666667 L 87.0 107.0 L 88.0 107.0 L 89.0 106.66666666666667 L 90.0 106.33333333333333 L 91.0 106.0 L 92.0 105.66666666666667 L 93.0 105.33333333333333 L 94.0 104.66666666666667 L 94.5 104.5 Z" stroke="none" fill="rgb(0,190,164)" />
<path d="M 26.5 114.0 L 27.0 114.0 L 28.0 114.0 L 29.0 114.0 L 30.0 114.0 L 31.0 114.0 L 32.0 114.0 L 33.0 114.0 L 34.0 114.0 L 35.0 114.0 L 36.0 114.0 L 37.0 114.0 L 38.0 114.0 L 39.0 114.0 L 40.0 114.0 L 41.0 114.0 L 42.0 114.0 L 43.0 114.0 L 44.0 114.0 L 45.0 114.0 L 46.0 114.0 L 47.0 114.0 L 48.0 114.0 L 49.0 114.0 L 50.0 114.0 L 51.0 114.0 L 52.0 114.0 L 53.0 114.0 L 54.0 114.0 L 55.0 114.0 L 55.666666666666664 113.66666666666667 L 55.666666666666664 113.0 L 55.0 112.33333333333333 L 54.0 111.66666666666667 L 53.0 111.33333333333333 L 52.0 110.66666666666667 L 51.0 110.0 L 50.0 109.33333333333333 L 49.0 108.66666666666667 L 48.0 108.33333333333333 L 47.0 107.66666666666667 L 46.0 107.33333333333333 L 45.0 106.66666666666667 L 44.0 106.0 L 43.0 105.33333333333333 L 42.0 104.66666666666667 L 41.0 104.33333333333333 L 40.0 104.0 L 39.0 104.0 L 38.0 104.0 L 37.0 104.0 L 36.0 104.0 L 35.0 104.0 L 34.0 104.0 L 33.0 104.0 L 32.0 104.0 L 31.0 104.0 L 30.0 103.66666666666667 L 29.0 103.0 L 28.0 102.33333333333333 L 27.0 102.33333333333333 L 26.0 102.66666666666667 L 25.0 103.0 L 24.0 103.0 L 23.0 103.0 L 22.0 103.0 L 21.0 103.0 L 20.0 103.0 L 19.333333333333332 103.33333333333333 L 19.0 104.0 L 19.0 105.0 L 19.0 106.0 L 19.0 107.0 L 19.0 108.0 L 19.0 109.0 L 19.333333333333332 110.0 L 19.666666666666668 111.0 L 20.333333333333332 112.0 L 20.666666666666668 113.0 L 21.333333333333332 114.0 L 22.0 114.66666666666667 L 23.0 114.66666666666667 L 24.0 114.33333333333333 L 25.0 114.0 L 25.5 114.0 Z" stroke="none" fill="rgb(1,168,145)" />
<path d="M 77.5 91.0 L 78.0 91.33333333333333 L 79.0 92.0 L 80.0 92.66666666666667 L 81.0 92.66666666666667 L 82.0 92.33333333333333 L 83.0 91.66666666666667 L 84.0 91.0 L 85.0 90.33333333333333 L 86.0 89.66666666666667 L 87.0 89.33333333333333 L 88.0 88.66666666666667 L 89.0 88.0 L 90.0 87.33333333333333 L 91.0 87.0 L 91.66666666666667 86.66666666666667 L 92.0 86.0 L 92.0 85.0 L 92.0 84.0 L 92.0 83.0 L 92.0 82.0 L 91.66666666666667 81.0 L 91.33333333333333 80.0 L 90.66666666666667 79.0 L 90.33333333333333 78.0 L 89.66666666666667 77.0 L 89.33333333333333 76.0 L 88.66666666666667 75.0 L 88.0 74.0 L 87.0 73.0 L 86.0 72.0 L 85.0 71.0 L 84.0 70.33333333333333 L 83.0 70.0 L 82.0 70.0 L 81.0 70.0 L 80.0 70.0 L 79.0 70.0 L 78.0 70.0 L 77.0 70.0 L 76.33333333333333 70.33333333333333 L 76.0 71.0 L 76.0 72.0 L 76.33333333333333 73.0 L 77.0 73.66666666666667 L 78.0 74.0 L 79.0 74.0 L 80.0 74.33333333333333 L 80.33333333333333 75.0 L 80.0 75.66666666666667 L 79.0 76.0 L 78.0 76.0 L 77.0 76.33333333333333 L 76.0 76.66666666666667 L 75.0 77.0 L 74.0 77.33333333333333 L 73.0 77.66666666666667 L 72.0 78.33333333333333 L 71.33333333333333 79.0 L 71.33333333333333 80.0 L 72.0 80.66666666666667 L 73.0 81.0 L 74.0 81.0 L 75.0 81.33333333333333 L 75.66666666666667 82.0 L 76.0 83.0 L 76.0 84.0 L 76.0 85.0 L 76.0 86.0 L 76.0 87.0 L 76.0 88.0 L 76.0 89.0 L 76.0 90.0 L 76.33333333333333 90.66666666666667 L 76.5 91.0 Z" stroke="none" fill="rgb(165,108,67)" />
<path d="M 36.5 94.0 L 37.0 94.0 L 38.0 94.0 L 39.0 94.0 L 40.0 94.0 L 41.0 94.0 L 42.0 94.0 L 43.0 94.0 L 44.0 94.0 L 45.0 94.0 L 46.0 93.66666666666667 L 47.0 93.33333333333333 L 48.0 93.0 L 49.0 93.0 L 49.666666666666664 92.66666666666667 L 50.0 92.0 L 50.0 91.0 L 50.0 90.0 L 50.0 89.0 L 50.0 88.0 L 50.0 87.0 L 49.666666666666664 86.0 L 49.333333333333336 85.0 L 49.0 84.0 L 48.666666666666664 83.0 L 48.0 82.0 L 47.0 81.33333333333333 L 46.0 80.66666666666667 L 45.0 80.33333333333333 L 44.0 79.66666666666667 L 43.0 79.33333333333333 L 42.0 79.0 L 41.0 78.66666666666667 L 40.0 78.33333333333333 L 39.0 78.33333333333333 L 38.0 78.66666666666667 L 37.0 79.0 L 36.0 79.0 L 35.0 79.0 L 34.0 79.33333333333333 L 33.0 80.0 L 32.0 81.0 L 31.0 82.0 L 30.0 83.0 L 29.333333333333332 84.0 L 29.0 85.0 L 29.0 86.0 L 29.0 87.0 L 29.0 88.0 L 29.333333333333332 89.0 L 30.0 90.0 L 31.0 91.0 L 32.0 92.0 L 33.0 92.66666666666667 L 34.0 93.33333333333333 L 35.0 93.66666666666667 L 35.5 94.0 Z" stroke="none" fill="rgb(197,224,165)" />
<path d="M 95.5 113.5 L 96.0 113.33333333333333 L 97.0 113.0 L 98.0 112.66666666666667 L 99.0 112.33333333333333 L 100.0 111.66666666666667 L 101.0 111.33333333333333 L 102.0 111.0 L 103.0 110.66666666666667 L 104.0 110.33333333333333 L 105.0 109.66666666666667 L 105.66666666666667 109.0 L 106.0 108.0 L 106.0 107.0 L 105.66666666666667 106.0 L 105.33333333333333 105.0 L 105.0 104.0 L 105.0 103.0 L 105.0 102.0 L 105.0 101.0 L 105.0 100.0 L 104.66666666666667 99.0 L 104.33333333333333 98.0 L 104.0 97.0 L 104.0 96.0 L 104.0 95.0 L 104.0 94.0 L 103.66666666666667 93.0 L 103.33333333333333 92.0 L 103.0 91.0 L 103.0 90.0 L 103.0 89.0 L 102.66666666666667 88.33333333333333 L 102.0 88.0 L 101.0 88.0 L 100.0 88.0 L 99.0 88.0 L 98.0 88.0 L 97.0 88.0 L 96.33333333333333 88.33333333333333 L 96.0 89.0 L 96.0 90.0 L 96.33333333333333 91.0 L 96.66666666666667 92.0 L 97.33333333333333 93.0 L 97.66666666666667 94.0 L 98.33333333333333 95.0 L 98.66666666666667 96.0 L 99.33333333333333 97.0 L 100.0 98.0 L 100.66666666666667 99.0 L 101.0 100.0 L 100.66666666666667 101.0 L 100.0 101.66666666666667 L 99.0 102.33333333333333 L 98.0 102.66666666666667 L 97.0 103.33333333333333 L 96.0 103.66666666666667 L 95.0 104.0 L 94.0 104.33333333333333 L 93.0 104.66666666666667 L 92.0 105.33333333333333 L 91.0 105.66666666666667 L 90.0 106.0 L 89.0 106.33333333333333 L 88.0 106.66666666666667 L 87.0 107.33333333333333 L 86.33333333333333 108.0 L 86.0 109.0 L 86.0 110.0 L 86.33333333333333 111.0 L 86.66666666666667 112.0 L 87.0 113.0 L 87.33333333333333 114.0 L 88.0 115.0 L 89.0 115.66666666666667 L 90.0 116.0 L 91.0 115.66666666666667 L 92.0 115.33333333333333 L 93.0 114.66666666666667 L 94.0 114.33333333333333 L 94.5 114.0 Z" stroke="none" fill="rgb(1,179,155)" />
<path d="M 78.5 125.0 L 79.0 125.0 L 80.0 125.0 L 81.0 125.0 L 82.0 125.0 L 83.0 125.0 L 83.66666666666667 124.66666666666667 L 84.33333333333333 124.0 L 85.0 123.33333333333333 L 86.0 122.66666666666667 L 87.0 122.33333333333333 L 88.0 121.66666666666667 L 89.0 121.0 L 89.66666666666667 120.0 L 90.0 119.0 L 90.0 118.0 L 90.0 117.0 L 89.66666666666667 116.33333333333333 L 89.0 116.0 L 88.0 116.33333333333333 L 87.0 116.66666666666667 L 86.0 117.0 L 85.0 117.0 L 84.0 117.0 L 83.0 117.0 L 82.0 117.0 L 81.0 117.0 L 80.0 116.66666666666667 L 79.66666666666667 116.0 L 79.66666666666667 115.0 L 80.0 114.0 L 80.0 113.0 L 80.0 112.0 L 79.66666666666667 111.33333333333333 L 79.0 111.0 L 78.0 111.0 L 77.0 111.33333333333333 L 76.0 111.66666666666667 L 75.0 112.33333333333333 L 74.0 112.66666666666667 L 73.0 113.0 L 72.33333333333333 113.33333333333333 L 72.0 114.0 L 72.0 115.0 L 72.0 116.0 L 72.0 117.0 L 72.0 118.0 L 72.0 119.0 L 72.0 120.0 L 72.0 121.0 L 72.0 122.0 L 72.0 123.0 L 72.0 124.0 L 72.33333333333333 124.66666666666667 L 73.0 125.0 L 74.0 125.0 L 75.0 125.0 L 76.0 125.0 L 77.0 125.0 L 77.5 125.0 Z" stroke="none" fill="rgb(165,108,67)" />
<path d="M 76.0 90.5 L 76.0 90.0 L 76.0 89.0 L 76.0 88.0 L 76.0 87.0 L 76.0 86.0 L 76.0 85.0 L 76.0 84.0 L 76.0 83.0 L 76.0 82.0 L 75.66666666666667 81.33333333333333 L 75.0 81.0 L 74.0 81.0 L 73.0 80.66666666666667 L 72.0 80.33333333333333 L 71.0 79.66666666666667 L 70.0 79.33333333333333 L 69.0 79.0 L 68.0 79.0 L 67.0 79.0 L 66.0 79.0 L 65.0 79.0 L 64.0 79.0 L 63.0 79.0 L 62.0 79.0 L 61.0 79.0 L 60.333333333333336 79.33333333333333 L 60.0 80.0 L 60.0 81.0 L 60.0 82.0 L 60.333333333333336 82.66666666666667 L 61.0 83.33333333333333 L 62.0 84.0 L 63.0 85.0 L 63.666666666666664 86.0 L 64.0 87.0 L 64.0 88.0 L 64.0 89.0 L 64.0 90.0 L 64.0 91.0 L 64.33333333333333 92.0 L 65.0 92.66666666666667 L 66.0 93.0 L 67.0 93.33333333333333 L 68.0 93.66666666666667 L 69.0 94.0 L 70.0 93.66666666666667 L 70.66666666666667 93.0 L 71.33333333333333 92.0 L 72.0 91.33333333333333 L 73.0 91.0 L 74.0 91.0 L 75.0 91.0 L 75.5 91.0 Z" stroke="none" fill="rgb(254,249,227)" />
<path d="M 43.5 80.0 L 44.0 80.33333333333333 L 45.0 80.66666666666667 L 46.0 81.33333333333333 L 47.0 82.0 L 48.0 83.0 L 48.666666666666664 84.0 L 49.0 85.0 L 49.333333333333336 86.0 L 49.666666666666664 87.0 L 50.0 88.0 L 50.0 89.0 L 50.0 90.0 L 50.0 91.0 L 50.333333333333336 91.66666666666667 L 51.0 92.0 L 52.0 92.0 L 53.0 92.0 L 54.0 92.0 L 55.0 91.66666666666667 L 56.0 91.33333333333333 L 57.0 91.0 L 57.666666666666664 90.66666666666667 L 58.0 90.0 L 58.0 89.0 L 57.666666666666664 88.0 L 57.333333333333336 87.0 L 57.0 86.0 L 57.0 85.0 L 57.0 84.0 L 56.666666666666664 83.0 L 56.0 82.0 L 55.0 81.0 L 54.0 80.0 L 53.0 79.0 L 52.0 78.0 L 51.0 77.33333333333333 L 50.0 76.66666666666667 L 49.0 76.33333333333333 L 48.0 76.0 L 47.0 76.0 L 46.0 76.0 L 45.0 76.0 L 44.0 76.0 L 43.0 76.0 L 42.0 76.0 L 41.0 76.0 L 40.0 76.0 L 39.333333333333336 76.33333333333333 L 39.0 77.0 L 39.333333333333336 78.0 L 40.0 78.66666666666667 L 41.0 79.0 L 42.0 79.33333333333333 L 42.5 79.5 Z" stroke="none" fill="rgb(254,249,227)" />
<path d="M 43.5 106.5 L 44.0 106.66666666666667 L 45.0 107.33333333333333 L 46.0 107.66666666666667 L 47.0 108.33333333333333 L 48.0 108.66666666666667 L 49.0 109.33333333333333 L 50.0 110.0 L 51.0 110.66666666666667 L 52.0 111.33333333333333 L 53.0 111.66666666666667 L 54.0 112.33333333333333 L 55.0 113.0 L 56.0 113.66666666666667 L 57.0 114.0 L 58.0 114.33333333333333 L 59.0 114.66666666666667 L 60.0 115.0 L 61.0 115.0 L 62.0 115.33333333333333 L 63.0 115.66666666666667 L 64.0 115.66666666666667 L 65.0 115.0 L 66.0 114.33333333333333 L 66.66666666666667 113.66666666666667 L 67.0 113.0 L 66.66666666666667 112.33333333333333 L 66.0 111.66666666666667 L 65.0 111.33333333333333 L 64.0 111.0 L 63.0 110.66666666666667 L 62.0 110.33333333333333 L 61.0 109.66666666666667 L 60.0 109.0 L 59.0 108.0 L 58.0 107.0 L 57.0 106.0 L 56.0 105.0 L 55.0 104.33333333333333 L 54.0 104.0 L 53.0 104.0 L 52.0 104.0 L 51.0 104.0 L 50.0 104.0 L 49.0 104.0 L 48.0 104.0 L 47.0 104.0 L 46.0 104.0 L 45.0 104.0 L 44.0 104.0 L 43.333333333333336 104.33333333333333 L 43.0 105.0 L 43.0 105.5 Z" stroke="none" fill="rgb(141,143,142)" />
<path d="M 95.5 120.5 L 96.0 120.33333333333333 L 97.0 120.0 L 98.0 119.66666666666667 L 99.0 119.33333333333333 L 100.0 118.66666666666667 L 101.0 118.33333333333333 L 102.0 118.0 L 103.0 117.66666666666667 L 104.0 117.33333333333333 L 105.0 116.66666666666667 L 106.0 116.33333333333333 L 107.0 116.0 L 107.66666666666667 115.66666666666667 L 108.0 115.0 L 108.0 114.0 L 108.0 113.0 L 108.0 112.0 L 107.66666666666667 111.0 L 107.33333333333333 110.0 L 106.66666666666667 109.33333333333333 L 106.0 109.0 L 105.0 109.33333333333333 L 104.0 109.66666666666667 L 103.0 110.33333333333333 L 102.0 110.66666666666667 L 101.0 111.0 L 100.0 111.33333333333333 L 99.0 111.66666666666667 L 98.0 112.33333333333333 L 97.0 112.66666666666667 L 96.0 113.0 L 95.0 113.33333333333333 L 94.0 113.66666666666667 L 93.0 114.33333333333333 L 92.0 114.66666666666667 L 91.0 115.33333333333333 L 90.33333333333333 116.0 L 90.0 117.0 L 90.0 118.0 L 90.0 119.0 L 90.0 120.0 L 90.33333333333333 120.66666666666667 L 91.0 121.33333333333333 L 92.0 121.66666666666667 L 93.0 122.0 L 94.0 121.66666666666667 L 94.5 121.5 Z" stroke="none" fill="rgb(1,168,145)" />
<path d="M 59.5 72.5 L 60.0 73.0 L 61.0 73.66666666666667 L 62.0 74.0 L 63.0 74.0 L 64.0 74.0 L 65.0 74.0 L 66.0 74.0 L 67.0 74.0 L 68.0 74.0 L 69.0 73.66666666666667 L 70.0 73.0 L 70.66666666666667 72.0 L 71.33333333333333 71.0 L 71.66666666666667 70.0 L 72.0 69.0 L 72.0 68.0 L 72.0 67.0 L 72.0 66.0 L 72.0 65.0 L 72.0 64.0 L 71.66666666666667 63.333333333333336 L 71.0 63.0 L 70.0 63.0 L 69.0 63.333333333333336 L 68.0 63.666666666666664 L 67.0 64.0 L 66.0 64.0 L 65.0 64.33333333333333 L 64.0 64.66666666666667 L 63.0 65.0 L 62.0 65.0 L 61.0 65.0 L 60.0 65.0 L 59.0 65.0 L 58.333333333333336 65.33333333333333 L 58.0 66.0 L 58.0 67.0 L 58.0 68.0 L 58.0 69.0 L 58.0 70.0 L 58.333333333333336 71.0 L 58.5 71.5 Z" stroke="none" fill="rgb(123,78,52)" />
<path d="M 40.5 96.0 L 41.0 96.0 L 42.0 96.0 L 43.0 96.0 L 44.0 96.0 L 45.0 96.0 L 46.0 96.0 L 47.0 96.33333333333333 L 48.0 96.66666666666667 L 49.0 97.0 L 49.666666666666664 96.66666666666667 L 50.0 96.0 L 50.0 95.0 L 50.0 94.0 L 49.666666666666664 93.33333333333333 L 49.0 93.0 L 48.0 93.0 L 47.0 93.0 L 46.0 93.33333333333333 L 45.0 93.66666666666667 L 44.0 94.0 L 43.0 94.0 L 42.0 94.0 L 41.0 94.0 L 40.0 94.0 L 39.0 94.0 L 38.0 94.0 L 37.0 94.0 L 36.0 93.66666666666667 L 35.0 93.33333333333333 L 34.0 92.66666666666667 L 33.0 92.0 L 32.0 91.0 L 31.0 90.0 L 30.0 89.33333333333333 L 29.0 89.0 L 28.333333333333332 89.33333333333333 L 28.0 90.0 L 28.0 91.0 L 28.0 92.0 L 28.0 93.0 L 28.0 94.0 L 28.0 95.0 L 28.333333333333332 96.0 L 29.0 96.66666666666667 L 30.0 96.66666666666667 L 31.0 96.33333333333333 L 32.0 96.0 L 33.0 96.0 L 34.0 96.0 L 35.0 96.0 L 36.0 96.0 L 37.0 96.0 L 38.0 96.0 L 39.0 96.0 L 39.5 96.0 Z" stroke="none" fill="rgb(177,199,148)" />
<path d="M 75.5 105.0 L 76.0 105.0 L 76.66666666666667 104.66666666666667 L 77.33333333333333 104.0 L 78.0 103.33333333333333 L 78.66666666666667 102.66666666666667 L 79.0 102.0 L 79.0 101.0 L 79.0 100.0 L 79.0 99.0 L 78.66666666666667 98.0 L 78.0 97.0 L 77.0 96.0 L 76.0 95.0 L 75.0 94.33333333333333 L 74.0 93.66666666666667 L 73.0 93.33333333333333 L 72.0 93.0 L 71.0 93.0 L 70.0 93.33333333333333 L 69.0 93.66666666666667 L 68.0 94.0 L 67.0 94.33333333333333 L 66.0 95.0 L 65.33333333333333 96.0 L 65.33333333333333 97.0 L 66.0 98.0 L 67.0 98.66666666666667 L 68.0 99.33333333333333 L 69.0 100.0 L 70.0 100.66666666666667 L 71.0 101.33333333333333 L 72.0 102.0 L 73.0 103.0 L 74.0 104.0 L 74.5 104.5 Z" stroke="none" fill="rgb(1,179,155)" />
<path d="M 40.0 103.5 L 40.333333333333336 103.0 L 41.0 102.0 L 42.0 101.33333333333333 L 43.0 100.66666666666667 L 44.0 100.0 L 45.0 99.33333333333333 L 46.0 98.66666666666667 L 47.0 98.33333333333333 L 47.666666666666664 97.66666666666667 L 48.0 97.0 L 47.666666666666664 96.33333333333333 L 47.0 96.0 L 46.0 96.0 L 45.0 96.0 L 44.0 96.0 L 43.0 96.0 L 42.0 96.0 L 41.0 96.0 L 40.0 96.0 L 39.0 96.0 L 38.0 96.0 L 37.0 96.0 L 36.0 96.0 L 35.0 96.0 L 34.0 96.0 L 33.0 96.0 L 32.0 96.0 L 31.0 96.0 L 30.333333333333332 96.33333333333333 L 30.0 97.0 L 30.333333333333332 98.0 L 30.666666666666668 99.0 L 31.333333333333332 100.0 L 32.0 101.0 L 33.0 102.0 L 34.0 103.0 L 35.0 103.66666666666667 L 36.0 104.0 L 37.0 104.0 L 38.0 104.0 L 39.0 104.0 L 39.5 104.0 Z" stroke="none" fill="rgb(165,188,140)" />
<path d="M 65.5 125.0 L 66.0 125.0 L 67.0 125.0 L 68.0 125.0 L 69.0 125.0 L 70.0 125.0 L 71.0 125.0 L 71.66666666666667 124.66666666666667 L 72.0 124.0 L 72.0 123.0 L 72.0 122.0 L 72.0 121.0 L 72.0 120.0 L 72.0 119.0 L 72.0 118.0 L 72.0 117.0 L 72.0 116.0 L 72.0 115.0 L 71.66666666666667 114.0 L 71.0 113.33333333333333 L 70.0 113.0 L 69.0 113.0 L 68.0 113.0 L 67.0 113.33333333333333 L 66.0 113.66666666666667 L 65.0 114.33333333333333 L 64.33333333333333 115.0 L 64.0 116.0 L 63.666666666666664 117.0 L 63.333333333333336 118.0 L 63.0 119.0 L 63.0 120.0 L 63.0 121.0 L 63.0 122.0 L 63.0 123.0 L 63.0 124.0 L 63.333333333333336 124.66666666666667 L 64.0 125.0 L 64.5 125.0 Z" stroke="none" fill="rgb(149,95,61)" />
<path d="M 24.5 103.0 L 25.0 103.0 L 26.0 103.0 L 26.666666666666668 102.66666666666667 L 27.0 102.0 L 27.0 101.0 L 27.0 100.0 L 27.333333333333332 99.0 L 28.0 98.0 L 28.666666666666668 97.0 L 28.666666666666668 96.0 L 28.333333333333332 95.0 L 28.0 94.0 L 28.0 93.0 L 28.0 92.0 L 28.0 91.0 L 28.0 90.0 L 27.666666666666668 89.0 L 27.0 88.33333333333333 L 26.0 88.0 L 25.0 88.33333333333333 L 24.333333333333332 89.0 L 23.666666666666668 90.0 L 23.333333333333332 91.0 L 22.666666666666668 92.0 L 22.333333333333332 93.0 L 22.0 94.0 L 21.666666666666668 95.0 L 21.333333333333332 96.0 L 20.666666666666668 97.0 L 20.333333333333332 98.0 L 20.0 99.0 L 19.666666666666668 100.0 L 19.333333333333332 101.0 L 19.0 102.0 L 19.333333333333332 102.66666666666667 L 20.0 103.0 L 21.0 103.0 L 22.0 103.0 L 23.0 103.0 L 23.5 103.0 Z" stroke="none" fill="rgb(1,179,155)" />
<path d="M 43.5 104.5 L 44.0 104.33333333333333 L 45.0 104.0 L 46.0 104.0 L 47.0 104.0 L 48.0 104.0 L 49.0 104.0 L 50.0 104.0 L 51.0 104.0 L 52.0 104.0 L 53.0 104.0 L 54.0 104.0 L 54.666666666666664 103.66666666666667 L 55.0 103.0 L 54.666666666666664 102.0 L 54.333333333333336 101.0 L 54.333333333333336 100.0 L 54.666666666666664 99.0 L 55.0 98.0 L 54.666666666666664 97.0 L 54.0 96.33333333333333 L 53.0 96.0 L 52.0 96.0 L 51.0 96.0 L 50.0 96.33333333333333 L 49.0 96.66666666666667 L 48.0 97.33333333333333 L 47.0 97.66666666666667 L 46.0 98.33333333333333 L 45.0 98.66666666666667 L 44.0 99.33333333333333 L 43.0 100.0 L 42.0 100.66666666666667 L 41.0 101.33333333333333 L 40.333333333333336 102.0 L 40.0 103.0 L 40.333333333333336 104.0 L 41.0 104.66666666666667 L 42.0 105.0 L 42.5 105.0 Z" stroke="none" fill="rgb(157,158,156)" />
<path d="M 94.5 123.0 L 95.0 123.33333333333333 L 96.0 124.0 L 97.0 124.66666666666667 L 98.0 125.0 L 99.0 125.0 L 100.0 125.0 L 101.0 125.0 L 102.0 125.0 L 103.0 124.66666666666667 L 104.0 124.33333333333333 L 105.0 123.66666666666667 L 106.0 123.0 L 106.66666666666667 122.0 L 107.0 121.0 L 107.33333333333333 120.0 L 107.66666666666667 119.0 L 108.0 118.0 L 108.0 117.0 L 107.66666666666667 116.33333333333333 L 107.0 116.0 L 106.0 116.0 L 105.0 116.33333333333333 L 104.0 116.66666666666667 L 103.0 117.33333333333333 L 102.0 117.66666666666667 L 101.0 118.0 L 100.0 118.33333333333333 L 99.0 118.66666666666667 L 98.0 119.33333333333333 L 97.0 119.66666666666667 L 96.0 120.0 L 95.0 120.33333333333333 L 94.33333333333333 121.0 L 94.0 122.0 L 94.0 122.5 Z" stroke="none" fill="rgb(0,160,138)" />
<path d="M 88.5 95.5 L 89.0 95.0 L 90.0 94.0 L 91.0 93.0 L 91.66666666666667 92.0 L 92.0 91.0 L 92.0 90.0 L 92.0 89.0 L 92.0 88.0 L 91.66666666666667 87.33333333333333 L 91.0 87.0 L 90.0 87.0 L 89.0 87.33333333333333 L 88.0 88.0 L 87.0 88.66666666666667 L 86.0 89.33333333333333 L 85.0 89.66666666666667 L 84.0 90.33333333333333 L 83.0 91.0 L 82.0 91.66666666666667 L 81.33333333333333 92.33333333333333 L 81.0 93.0 L 81.33333333333333 94.0 L 82.0 95.0 L 83.0 95.66666666666667 L 84.0 96.0 L 85.0 96.0 L 86.0 96.0 L 87.0 96.0 L 87.5 96.0 Z" stroke="none" fill="rgb(149,95,61)" />
<path d="M 91.5 81.0 L 92.0 81.0 L 92.66666666666667 80.66666666666667 L 93.0 80.0 L 93.0 79.0 L 93.0 78.0 L 93.0 77.0 L 92.66666666666667 76.0 L 92.33333333333333 75.0 L 92.0 74.0 L 92.0 73.0 L 91.66666666666667 72.0 L 91.0 71.0 L 90.33333333333333 70.0 L 89.66666666666667 69.0 L 89.0 68.33333333333333 L 88.0 68.0 L 87.0 68.0 L 86.0 68.0 L 85.0 68.0 L 84.0 68.33333333333333 L 83.33333333333333 69.0 L 83.33333333333333 70.0 L 84.0 71.0 L 85.0 72.0 L 86.0 73.0 L 87.0 74.0 L 88.0 75.0 L 88.66666666666667 76.0 L 89.33333333333333 77.0 L 89.66666666666667 78.0 L 90.33333333333333 79.0 L 90.66666666666667 80.0 L 91.0 80.5 Z" stroke="none" fill="rgb(128,210,248)" />
<path d="M 66.5 56.0 L 67.0 55.666666666666664 L 68.0 55.0 L 69.0 54.0 L 69.66666666666667 53.0 L 70.0 52.0 L 70.0 51.0 L 69.66666666666667 50.333333333333336 L 69.0 50.0 L 68.0 50.333333333333336 L 67.0 51.0 L 66.0 51.666666666666664 L 65.0 52.0 L 64.0 52.0 L 63.0 52.0 L 62.0 52.0 L 61.0 52.0 L 60.0 52.0 L 59.0 52.0 L 58.0 52.0 L 57.0 52.0 L 56.333333333333336 52.333333333333336 L 56.0 53.0 L 56.333333333333336 54.0 L 57.0 55.0 L 58.0 55.666666666666664 L 59.0 56.0 L 60.0 56.0 L 61.0 56.0 L 62.0 56.0 L 63.0 56.0 L 64.0 56.0 L 65.0 56.0 L 65.5 56.0 Z" stroke="none" fill="rgb(71,53,45)" />
<path d="M 84.5 109.0 L 85.0 109.0 L 86.0 108.66666666666667 L 86.66666666666667 108.0 L 86.66666666666667 107.0 L 86.0 106.0 L 85.33333333333333 105.0 L 85.0 104.0 L 84.66666666666667 103.0 L 84.33333333333333 102.0 L 84.0 101.0 L 83.66666666666667 100.0 L 83.0 99.0 L 82.0 98.33333333333333 L 81.0 98.0 L 80.0 98.0 L 79.33333333333333 98.33333333333333 L 79.0 99.0 L 79.0 100.0 L 79.0 101.0 L 79.0 102.0 L 79.33333333333333 103.0 L 79.66666666666667 104.0 L 80.0 105.0 L 80.33333333333333 106.0 L 81.0 107.0 L 82.0 107.66666666666667 L 83.0 108.33333333333333 L 83.5 108.5 Z" stroke="none" fill="rgb(14,129,113)" />
<path d="M 59.5 91.0 L 60.0 91.0 L 61.0 91.33333333333333 L 62.0 91.66666666666667 L 63.0 92.0 L 63.666666666666664 91.66666666666667 L 64.0 91.0 L 64.0 90.0 L 64.0 89.0 L 64.0 88.0 L 64.0 87.0 L 64.0 86.0 L 63.666666666666664 85.0 L 63.0 84.0 L 62.0 83.33333333333333 L 61.0 83.0 L 60.0 83.0 L 59.0 83.0 L 58.0 83.33333333333333 L 57.333333333333336 84.0 L 57.0 85.0 L 57.0 86.0 L 57.0 87.0 L 57.333333333333336 88.0 L 57.666666666666664 89.0 L 58.0 90.0 L 58.333333333333336 90.66666666666667 L 58.5 91.0 Z" stroke="none" fill="rgb(223,98,86)" />
<path d="M 75.5 95.5 L 76.0 96.0 L 77.0 97.0 L 78.0 97.66666666666667 L 79.0 98.0 L 80.0 98.0 L 81.0 98.0 L 81.66666666666667 97.66666666666667 L 82.33333333333333 97.0 L 82.66666666666667 96.0 L 82.66666666666667 95.0 L 82.0 94.0 L 81.0 93.0 L 80.0 92.0 L 79.0 91.33333333333333 L 78.0 91.0 L 77.0 91.0 L 76.0 91.0 L 75.0 91.0 L 74.0 91.0 L 73.0 91.0 L 72.0 91.0 L 71.33333333333333 91.33333333333333 L 71.0 92.0 L 71.33333333333333 92.66666666666667 L 72.0 93.33333333333333 L 73.0 93.66666666666667 L 74.0 94.33333333333333 L 74.5 94.5 Z" stroke="none" fill="rgb(8,148,129)" />
<path d="M 88.5 125.0 L 89.0 125.0 L 90.0 125.0 L 91.0 125.0 L 92.0 125.0 L 93.0 125.0 L 94.0 125.0 L 95.0 125.0 L 96.0 125.0 L 96.66666666666667 124.66666666666667 L 96.66666666666667 124.0 L 96.0 123.33333333333333 L 95.0 122.66666666666667 L 94.0 122.33333333333333 L 93.0 121.66666666666667 L 92.0 121.33333333333333 L 91.0 120.66666666666667 L 90.0 120.33333333333333 L 89.0 120.33333333333333 L 88.0 121.0 L 87.0 121.66666666666667 L 86.0 122.33333333333333 L 85.0 122.66666666666667 L 84.33333333333333 123.33333333333333 L 84.0 124.0 L 84.33333333333333 124.66666666666667 L 85.0 125.0 L 86.0 125.0 L 87.0 125.0 L 87.5 125.0 Z" stroke="none" fill="rgb(19,90,80)" />
<path d="M 58.5 95.5 L 59.0 95.66666666666667 L 60.0 96.0 L 61.0 96.0 L 62.0 96.33333333333333 L 63.0 96.66666666666667 L 64.0 97.0 L 65.0 96.66666666666667 L 66.0 96.0 L 67.0 95.0 L 67.66666666666667 94.0 L 67.66666666666667 93.33333333333333 L 67.0 93.0 L 66.0 92.66666666666667 L 65.0 92.33333333333333 L 64.0 92.0 L 63.0 91.66666666666667 L 62.0 91.33333333333333 L 61.0 91.0 L 60.0 91.0 L 59.0 91.0 L 58.333333333333336 91.33333333333333 L 58.0 92.0 L 58.0 93.0 L 58.0 94.0 L 58.0 94.5 Z" stroke="none" fill="rgb(8,148,129)" />
<path d="M 52.5 96.0 L 53.0 96.33333333333333 L 54.0 96.66666666666667 L 55.0 96.66666666666667 L 56.0 96.33333333333333 L 57.0 96.0 L 57.666666666666664 95.66666666666667 L 58.0 95.0 L 58.0 94.0 L 58.0 93.0 L 58.0 92.0 L 57.666666666666664 91.33333333333333 L 57.0 91.0 L 56.0 91.0 L 55.0 91.33333333333333 L 54.0 91.66666666666667 L 53.0 92.0 L 52.0 92.0 L 51.0 92.0 L 50.333333333333336 92.33333333333333 L 50.0 93.0 L 50.0 94.0 L 50.0 95.0 L 50.333333333333336 95.66666666666667 L 51.0 96.0 L 51.5 96.0 Z" stroke="none" fill="rgb(224,222,199)" />
<path d="M 31.5 104.0 L 32.0 104.0 L 33.0 104.0 L 34.0 104.0 L 34.666666666666664 103.66666666666667 L 34.666666666666664 103.0 L 34.0 102.0 L 33.0 101.0 L 32.0 100.0 L 31.333333333333332 99.0 L 30.666666666666668 98.0 L 30.0 97.33333333333333 L 29.0 97.0 L 28.0 97.33333333333333 L 27.333333333333332 98.0 L 27.0 99.0 L 27.0 100.0 L 27.0 101.0 L 27.333333333333332 102.0 L 28.0 103.0 L 29.0 103.66666666666667 L 30.0 104.0 L 30.5 104.0 Z" stroke="none" fill="rgb(8,148,129)" />
<path d="M 75.5 77.0 L 76.0 77.0 L 76.66666666666667 76.66666666666667 L 77.0 76.0 L 77.0 75.0 L 77.0 74.0 L 76.66666666666667 73.33333333333333 L 76.0 73.0 L 75.0 73.0 L 74.0 73.0 L 73.0 73.33333333333333 L 72.0 73.66666666666667 L 71.0 74.33333333333333 L 70.33333333333333 75.0 L 70.0 76.0 L 70.0 77.0 L 70.0 78.0 L 70.0 79.0 L 70.33333333333333 79.66666666666667 L 71.0 79.66666666666667 L 72.0 79.0 L 73.0 78.33333333333333 L 74.0 77.66666666666667 L 74.5 77.5 Z" stroke="none" fill="rgb(94,193,234)" />
<path d="M 69.5 34.5 L 70.0 34.333333333333336 L 71.0 34.0 L 72.0 34.0 L 73.0 34.0 L 74.0 33.666666666666664 L 74.66666666666667 33.0 L 75.0 32.0 L 74.66666666666667 31.333333333333332 L 74.0 31.0 L 73.0 31.0 L 72.0 31.0 L 71.0 31.0 L 70.0 31.0 L 69.0 31.0 L 68.0 31.333333333333332 L 67.0 32.0 L 66.33333333333333 33.0 L 66.0 34.0 L 66.33333333333333 34.666666666666664 L 67.0 35.0 L 68.0 35.0 L 68.5 35.0 Z" stroke="none" fill="rgb(71,53,45)" />
<path d="M 53.5 37.0 L 53.666666666666664 36.666666666666664 L 54.0 36.0 L 53.666666666666664 35.0 L 53.0 34.333333333333336 L 52.0 34.0 L 51.0 34.0 L 50.0 34.0 L 49.0 34.0 L 48.0 34.333333333333336 L 47.0 34.666666666666664 L 46.0 35.333333333333336 L 45.333333333333336 36.0 L 45.0 37.0 L 45.333333333333336 37.666666666666664 L 46.0 38.0 L 47.0 38.0 L 48.0 38.0 L 49.0 37.666666666666664 L 50.0 37.333333333333336 L 51.0 37.0 L 52.0 37.0 L 52.5 37.0 Z" stroke="none" fill="rgb(71,53,45)" />
<path d="M 82.5 39.5 L 82.66666666666667 40.0 L 83.0 41.0 L 83.0 42.0 L 83.0 43.0 L 83.33333333333333 43.666666666666664 L 84.0 44.0 L 84.66666666666667 43.666666666666664 L 85.0 43.0 L 85.0 42.0 L 85.0 41.0 L 85.0 40.0 L 85.0 39.0 L 85.0 38.0 L 85.0 37.0 L 84.66666666666667 36.0 L 84.0 35.333333333333336 L 83.0 35.0 L 82.33333333333333 35.333333333333336 L 82.0 36.0 L 82.0 37.0 L 82.0 38.0 L 82.0 38.5 Z" stroke="none" fill="rgb(123,78,52)" />
<path d="M 40.5 46.0 L 41.0 46.0 L 41.666666666666664 45.666666666666664 L 42.0 45.0 L 41.666666666666664 44.0 L 41.0 43.0 L 40.333333333333336 42.0 L 39.666666666666664 41.0 L 39.333333333333336 40.0 L 39.0 39.0 L 39.0 38.0 L 38.666666666666664 37.333333333333336 L 38.0 37.0 L 37.333333333333336 37.333333333333336 L 37.0 38.0 L 37.333333333333336 39.0 L 37.666666666666664 40.0 L 38.0 41.0 L 38.333333333333336 42.0 L 38.666666666666664 43.0 L 39.0 44.0 L 39.333333333333336 45.0 L 39.5 45.5 Z" stroke="none" fill="rgb(84,63,53)" />
<path d="M 65.5 79.0 L 66.0 79.0 L 67.0 79.0 L 68.0 79.0 L 69.0 79.0 L 69.66666666666667 78.66666666666667 L 70.0 78.0 L 70.0 77.0 L 69.66666666666667 76.0 L 69.0 75.33333333333333 L 68.0 75.33333333333333 L 67.0 75.66666666666667 L 66.0 76.33333333333333 L 65.0 76.66666666666667 L 64.0 77.0 L 63.333333333333336 77.33333333333333 L 63.0 78.0 L 63.333333333333336 78.66666666666667 L 64.0 79.0 L 64.5 79.0 Z" stroke="none" fill="rgb(63,176,226)" />
<path d="M 54.0 43.5 L 54.0 43.0 L 53.666666666666664 42.333333333333336 L 53.0 42.0 L 52.0 42.333333333333336 L 51.0 42.666666666666664 L 50.0 43.0 L 49.0 43.0 L 48.333333333333336 43.333333333333336 L 48.0 44.0 L 48.333333333333336 44.666666666666664 L 49.0 45.0 L 50.0 45.0 L 51.0 45.0 L 52.0 45.0 L 53.0 44.666666666666664 L 53.5 44.5 Z" stroke="none" fill="rgb(71,53,45)" />
<path d="M 39.5 50.0 L 40.0 50.0 L 40.666666666666664 49.666666666666664 L 41.0 49.0 L 41.0 48.0 L 41.0 47.0 L 40.666666666666664 46.0 L 40.0 45.333333333333336 L 39.0 45.0 L 38.333333333333336 45.333333333333336 L 38.0 46.0 L 38.0 47.0 L 38.333333333333336 48.0 L 38.666666666666664 49.0 L 39.0 49.5 Z" stroke="none" fill="rgb(123,78,52)" />
<path d="M 59.5 47.0 L 60.0 47.0 L 61.0 47.0 L 62.0 47.0 L 63.0 47.0 L 63.666666666666664 46.666666666666664 L 64.0 46.0 L 63.666666666666664 45.333333333333336 L 63.0 45.0 L 62.0 45.0 L 61.0 45.0 L 60.0 45.0 L 59.333333333333336 45.333333333333336 L 59.0 46.0 L 59.0 46.5 Z" stroke="none" fill="rgb(123,78,52)" />
<path d="M 77.5 76.0 L 78.0 76.0 L 79.0 76.0 L 80.0 76.0 L 81.0 76.0 L 81.66666666666667 75.66666666666667 L 81.66666666666667 75.0 L 81.0 74.33333333333333 L 80.0 74.0 L 79.0 74.0 L 78.0 74.0 L 77.33333333333333 74.33333333333333 L 77.0 75.0 L 77.0 75.5 Z" stroke="none" fill="rgb(128,210,248)" />
<path d="M 78.5 105.5 L 79.0 105.66666666666667 L 79.66666666666667 105.66666666666667 L 80.0 105.0 L 80.0 104.0 L 79.66666666666667 103.33333333333333 L 79.0 103.0 L 78.0 103.0 L 77.33333333333333 103.33333333333333 L 77.0 104.0 L 77.33333333333333 104.66666666666667 L 77.5 105.0 Z" stroke="none" fill="rgb(1,168,145)" />
<path d="M 81.5 30.5 L 82.0 30.666666666666668 L 82.66666666666667 30.666666666666668 L 83.0 30.0 L 83.0 29.0 L 82.66666666666667 28.333333333333332 L 82.0 28.0 L 81.33333333333333 28.333333333333332 L 81.0 29.0 L 81.0 29.5 Z" stroke="none" fill="rgb(84,63,53)" />
<path d="M 73.5 41.0 L 73.66666666666667 40.666666666666664 L 74.0 40.0 L 73.66666666666667 39.333333333333336 L 73.0 39.0 L 72.0 39.333333333333336 L 71.33333333333333 40.0 L 71.33333333333333 40.666666666666664 L 72.0 41.0 L 72.5 41.0 Z" stroke="none" fill="rgb(71,53,45)" />
<path d="M 78.5 86.0 L 79.0 86.0 L 80.0 85.66666666666667 L 80.66666666666667 85.0 L 80.66666666666667 84.33333333333333 L 80.0 84.0 L 79.0 84.0 L 78.33333333333333 84.33333333333333 L 78.0 85.0 L 78.0 85.5 Z" stroke="none" fill="rgb(149,95,61)" />
<path d="M 39.0 44.5 L 39.0 44.0 L 39.0 43.0 L 38.666666666666664 42.333333333333336 L 38.333333333333336 42.333333333333336 L 38.0 43.0 L 38.0 44.0 L 38.333333333333336 44.666666666666664 L 38.5 45.0 Z" stroke="none" fill="rgb(0,0,0)" />
<path d="M 38.0 36.5 L 38.0 36.0 L 37.666666666666664 35.333333333333336 L 37.333333333333336 35.333333333333336 L 37.0 36.0 L 37.333333333333336 36.666666666666664 L 37.5 37.0 Z" stroke="none" fill="rgb(0,0,0)" />
<path d="M 41.0 50.5 L 40.666666666666664 50.333333333333336 L 40.333333333333336 50.333333333333336 L 40.333333333333336 50.666666666666664 L 40.5 51.0 Z" stroke="none" fill="rgb(0,0,0)" />
<path d="M 84.0 68.5 L 83.66666666666667 68.33333333333333 L 83.33333333333333 68.33333333333333 L 83.33333333333333 68.66666666666667 L 83.5 69.0 Z" stroke="none" fill="rgb(0,0,0)" />
<path d="M 92.5 73.0 L 92.66666666666667 72.66666666666667 L 92.66666666666667 72.33333333333333 L 92.33333333333333 72.33333333333333 L 92.0 72.5 Z" stroke="none" fill="rgb(0,0,0)" />
<path d="M 25.5 88.0 L 25.666666666666668 87.66666666666667 L 25.666666666666668 87.33333333333333 L 25.333333333333332 87.33333333333333 L 25.0 87.5 Z" stroke="none" fill="rgb(0,0,0)" />
<path d="M 58.5 96.0 L 58.666666666666664 95.66666666666667 L 58.666666666666664 95.33333333333333 L 58.333333333333336 95.33333333333333 L 58.0 95.5 Z" stroke="none" fill="rgb(138,202,189)" />
<path d="M 56.0 104.5 L 55.666666666666664 104.33333333333333 L 55.333333333333336 104.33333333333333 L 55.333333333333336 104.66666666666667 L 55.5 105.0 Z" stroke="none" fill="rgb(157,158,156)" />
<path d="M 107.0 108.5 L 106.66666666666667 108.33333333333333 L 106.33333333333333 108.33333333333333 L 106.33333333333333 108.66666666666667 L 106.5 109.0 Z" stroke="none" fill="rgb(0,0,0)" />
</svg>
