<?xml version="1.0" encoding="UTF-8" standalone="no"?>
<!DOCTYPE svg PUBLIC "-//W3C//DTD SVG 1.1//EN"
"http://www.w3.org/Graphics/SVG/1.1/DTD/svg11.dtd">
<svg width="128" height="128" xmlns="http://www.w3.org/2000/svg" version="1.1">
<path d="M 26.5 128.0 L 27.0 128.0 L 28.0 128.0 L 29.0 128.0 L 30.0 128.0 L 31.0 128.0 L 32.0 128.0 L 33.0 128.0 L 34.0 128.0 L 35.0 128.0 L 36.0 128.0 L 37.0 128.0 L 38.0 128.0 L 39.0 128.0 L 40.0 128.0 L 41.0 128.0 L 42.0 128.0 L 43.0 128.0 L 44.0 128.0 L 45.0 128.0 L 46.0 128.0 L 47.0 128.0 L 48.0 128.0 L 49.0 128.0 L 50.0 128.0 L 51.0 128.0 L 52.0 128.0 L 53.0 128.0 L 54.0 128.0 L 55.0 128.0 L 56.0 128.0 L 57.0 128.0 L 58.0 128.0 L 59.0 128.0 L 60.0 128.0 L 61.0 128.0 L 62.0 128.0 L 63.0 128.0 L 64.0 128.0 L 65.0 128.0 L 66.0 128.0 L 67.0 128.0 L 68.0 128.0 L 69.0 128.0 L 70.0 128.0 L 71.0 128.0 L 72.0 128.0 L 73.0 128.0 L 74.0 128.0 L 75.0 128.0 L 76.0 128.0 L 77.0 128.0 L 78.0 128.0 L 79.0 128.0 L 80.0 128.0 L 81.0 128.0 L 82.0 128.0 L 83.0 128.0 L 84.0 128.0 L 85.0 128.0 L 86.0 128.0 L 87.0 128.0 L 88.0 128.0 L 89.0 128.0 L 90.0 128.0 L 91.0 128.0 L 92.0 128.0 L 93.0 128.0 L 94.0 128.0 L 95.0 128.0 L 96.0 128.0 L 97.0 128.0 L 98.0 128.0 L 99.0 128.0 L 100.0 128.0 L 101.0 128.0 L 102.0 128.0 L 103.0 128.0 L 104.0 128.0 L 105.0 128.0 L 106.0 128.0 L 107.0 128.0 L 108.0 128.0 L 109.0 128.0 L 110.0 128.0 L 111.0 128.0 L 112.0 128.0 L 113.0 128.0 L 114.0 128.0 L 115.0 128.0 L 116.0 128.0 L 117.0 128.0 L 118.0 128.0 L 119.0 128.0 L 120.0 128.0 L 121.0 128.0 L 122.0 128.0 L 123.0 128.0 L 124.0 128.0 L 125.0 128.0 L 126.0 128.0 L 127.0 128.0 L 127.66666666666667 127.66666666666667 L 128.0 127.0 L 128.0 126.0 L 128.0 125.0 L 128.0 124.0 L 128.0 123.0 L 128.0 122.0 L 128.0 121.0 L 128.0 120.0 L 128.0 119.0 L 128.0 118.0 L 128.0 117.0 L 128.0 116.0 L 128.0 115.0 L 128.0 114.0 L 128.0 113.0 L 128.0 112.0 L 128.0 111.0 L 128.0 110.0 L 128.0 109.0 L 128.0 108.0 L 128.0 107.0 L 128.0 106.0 L 128.0 105.0 L 128.0 104.0 L 128.0 103.0 L 128.0 102.0 L 128.0 101.0 L 128.0 100.0 L 128.0 99.0 L 128.0 98.0 L 128.0 97.0 L 128.0 96.0 L 128.0 95.0 L 128.0 94.0 L 128.0 93.0 L 128.0 92.0 L 128.0 91.0 L 128.0 90.0 L 128.0 89.0 L 128.0 88.0 L 128.0 87.0 L 128.0 86.0 L 128.0 85.0 L 128.0 84.0 L 128.0 83.0 L 128.0 82.0 L 128.0 81.0 L 128.0 80.0 L 128.0 79.0 L 128.0 78.0 L 128.0 77.0 L 128.0 76.0 L 128.0 75.0 L 128.0 74.0 L 128.0 73.0 L 128.0 72.0 L 128.0 71.0 L 128.0 70.0 L 128.0 69.0 L 128.0 68.0 L 128.0 67.0 L 128.0 66.0 L 128.0 65.0 L 128.0 64.0 L 128.0 63.0 L 128.0 62.0 L 128.0 61.0 L 128.0 60.0 L 128.0 59.0 L 128.0 58.0 L 128.0 57.0 L 128.0 56.0 L 128.0 55.0 L 128.0 54.0 L 128.0 53.0 L 128.0 52.0 L 128.0 51.0 L 128.0 50.0 L 128.0 49.0 L 128.0 48.0 L 128.0 47.0 L 128.0 46.0 L 128.0 45.0 L 128.0 44.0 L 128.0 43.0 L 128.0 42.0 L 128.0 41.0 L 128.0 40.0 L 128.0 39.0 L 128.0 38.0 L 128.0 37.0 L 128.0 36.0 L 128.0 35.0 L 128.0 34.0 L 128.0 33.0 L 128.0 32.0 L 128.0 31.0 L 128.0 30.0 L 128.0 29.0 L 128.0 28.0 L 128.0 27.0 L 128.0 26.0 L 128.0 25.0 L 128.0 24.0 L 128.0 23.0 L 128.0 22.0 L 128.0 21.0 L 128.0 20.0 L 128.0 19.0 L 128.0 18.0 L 128.0 17.0 L 128.0 16.0 L 128.0 15.0 L 128.0 14.0 L 128.0 13.0 L 128.0 12.0 L 128.0 11.0 L 128.0 10.0 L 128.0 9.0 L 128.0 8.0 L 128.0 7.0 L 128.0 6.0 L 128.0 5.0 L 128.0 4.0 L 128.0 3.0 L 128.0 2.0 L 128.0 1.0 L 127.66666666666667 0.3333333333333333 L 127.0 0.0 L 126.0 0.0 L 125.0 0.0 L 124.0 0.0 L 123.0 0.0 L 122.0 0.0 L 121.0 0.0 L 120.0 0.0 L 119.0 0.0 L 118.0 0.0 L 117.0 0.0 L 116.0 0.0 L 115.0 0.0 L 114.0 0.0 L 113.0 0.0 L 112.0 0.0 L 111.0 0.0 L 110.0 0.0 L 109.0 0.0 L 108.0 0.0 L 107.0 0.0 L 106.0 0.0 L 105.0 0.0 L 104.0 0.0 L 103.0 0.0 L 102.0 0.0 L 101.0 0.0 L 100.0 0.0 L 99.0 0.0 L 98.0 0.0 L 97.0 0.0 L 96.0 0.0 L 95.0 0.0 L 94.0 0.0 L 93.0 0.0 L 92.0 0.0 L 91.0 0.0 L 90.0 0.0 L 89.0 0.0 L 88.0 0.0 L 87.0 0.0 L 86.0 0.0 L 85.0 0.0 L 84.0 0.0 L 83.0 0.0 L 82.0 0.0 L 81.0 0.0 L 80.0 0.0 L 79.0 0.0 L 78.0 0.0 L 77.0 0.0 L 76.0 0.0 L 75.0 0.0 L 74.0 0.0 L 73.0 0.0 L 72.0 0.0 L 71.0 0.0 L 70.0 0.0 L 69.0 0.0 L 68.0 0.0 L 67.0 0.0 L 66.0 0.0 L 65.0 0.0 L 64.0 0.0 L 63.0 0.0 L 62.0 0.0 L 61.0 0.0 L 60.0 0.0 L 59.0 0.0 L 58.0 0.0 L 57.0 0.0 L 56.0 0.0 L 55.0 0.0 L 54.0 0.0 L 53.0 0.0 L 52.0 0.0 L 51.0 0.0 L 50.0 0.0 L 49.0 0.0 L 48.0 0.0 L 47.0 0.0 L 46.0 0.0 L 45.0 0.0 L 44.0 0.0 L 43.0 0.0 L 42.0 0.0 L 41.0 0.0 L 40.0 0.0 L 39.0 0.0 L 38.0 0.0 L 37.0 0.0 L 36.0 0.0 L 35.0 0.0 L 34.0 0.0 L 33.0 0.0 L 32.0 0.0 L 31.0 0.0 L 30.0 0.0 L 29.0 0.0 L 28.0 0.0 L 27.0 0.0 L 26.0 0.0 L 25.0 0.0 L 24.0 0.0 L 23.0 0.0 L 22.0 0.0 L 21.0 0.0 L 20.0 0.0 L 19.0 0.0 L 18.0 0.0 L 17.0 0.0 L 16.0 0.0 L 15.0 0.0 L 14.0 0.0 L 13.0 0.0 L 12.0 0.0 L 11.0 0.0 L 10.0 0.0 L 9.0 0.0 L 8.0 0.0 L 7.0 0.0 L 6.0 0.0 L 5.0 0.0 L 4.0 0.0 L 3.0 0.0 L 2.0 0.0 L 1.0 0.0 L 0.3333333333333333 0.3333333333333333 L 0.0 1.0 L 0.0 2.0 L 0.0 3.0 L 0.0 4.0 L 0.0 5.0 L 0.0 6.0 L 0.0 7.0 L 0.0 8.0 L 0.0 9.0 L 0.0 10.0 L 0.0 11.0 L 0.0 12.0 L 0.0 13.0 L 0.0 14.0 L 0.0 15.0 L 0.0 16.0 L 0.0 17.0 L 0.0 18.0 L 0.0 19.0 L 0.0 20.0 L 0.0 21.0 L 0.0 22.0 L 0.0 23.0 L 0.0 24.0 L 0.0 25.0 L 0.0 26.0 L 0.0 27.0 L 0.0 28.0 L 0.0 29.0 L 0.0 30.0 L 0.0 31.0 L 0.0 32.0 L 0.0 33.0 L 0.0 34.0 L 0.0 35.0 L 0.0 36.0 L 0.0 37.0 L 0.0 38.0 L 0.0 39.0 L 0.0 40.0 L 0.0 41.0 L 0.0 42.0 L 0.0 43.0 L 0.0 44.0 L 0.0 45.0 L 0.0 46.0 L 0.0 47.0 L 0.0 48.0 L 0.0 49.0 L 0.0 50.0 L 0.0 51.0 L 0.0 52.0 L 0.0 53.0 L 0.0 54.0 L 0.0 55.0 L 0.0 56.0 L 0.0 57.0 L 0.0 58.0 L 0.0 59.0 L 0.0 60.0 L 0.0 61.0 L 0.0 62.0 L 0.0 63.0 L 0.0 64.0 L 0.0 65.0 L 0.0 66.0 L 0.0 67.0 L 0.0 68.0 L 0.0 69.0 L 0.0 70.0 L 0.0 71.0 L 0.0 72.0 L 0.0 73.0 L 0.0 74.0 L 0.0 75.0 L 0.0 76.0 L 0.0 77.0 L 0.0 78.0 L 0.0 79.0 L 0.0 80.0 L 0.0 81.0 L 0.0 82.0 L 0.0 83.0 L 0.0 84.0 L 0.0 85.0 L 0.0 86.0 L 0.0 87.0 L 0.0 88.0 L 0.0 89.0 L 0.0 90.0 L 0.0 91.0 L 0.0 92.0 L 0.0 93.0 L 0.0 94.0 L 0.0 95.0 L 0.0 96.0 L 0.0 97.0 L 0.0 98.0 L 0.0 99.0 L 0.0 100.0 L 0.0 101.0 L 0.0 102.0 L 0.0 103.0 L 0.0 104.0 L 0.0 105.0 L 0.0 106.0 L 0.0 107.0 L 0.0 108.0 L 0.0 109.0 L 0.0 110.0 L 0.0 111.0 L 0.0 112.0 L 0.0 113.0 L 0.0 114.0 L 0.0 115.0 L 0.0 116.0 L 0.0 117.0 L 0.0 118.0 L 0.0 119.0 L 0.0 120.0 L 0.0 121.0 L 0.0 122.0 L 0.0 123.0 L 0.0 124.0 L 0.0 125.0 L 0.0 126.0 L 0.0 127.0 L 0.3333333333333333 127.66666666666667 L 1.0 128.0 L 2.0 128.0 L 3.0 128.0 L 4.0 128.0 L 5.0 128.0 L 6.0 128.0 L 7.0 128.0 L 8.0 128.0 L 9.0 128.0 L 10.0 128.0 L 11.0 128.0 L 12.0 128.0 L 13.0 128.0 L 14.0 128.0 L 15.0 128.0 L 16.0 128.0 L 17.0 128.0 L 18.0 128.0 L 19.0 128.0 L 20.0 128.0 L 21.0 128.0 L 22.0 128.0 L 23.0 128.0 L 24.0 128.0 L 25.0 128.0 L 25.5 128.0 Z" stroke="none" fill="rgb(0,0,0)" />
<path d="M 72.5 91.0 L 73.0 91.0 L 74.0 91.0 L 75.0 91.0 L 76.0 91.0 L 77.0 91.0 L 78.0 91.0 L 79.0 91.0 L 80.0 91.0 L 81.0 91.0 L 82.0 91.0 L 83.0 91.0 L 84.0 91.0 L 85.0 91.0 L 86.0 91.0 L 87.0 91.0 L 88.0 91.0 L 89.0 91.0 L 90.0 91.0 L 91.0 91.0 L 92.0 91.0 L 93.0 91.0 L 94.0 91.0 L 95.0 91.0 L 96.0 91.0 L 97.0 91.0 L 98.0 91.0 L 99.0 91.0 L 100.0 91.0 L 101.0 91.0 L 102.0 91.0 L 103.0 91.0 L 104.0 91.0 L 105.0 91.0 L 106.0 91.0 L 107.0 91.0 L 108.0 91.0 L 109.0 91.0 L 110.0 91.0 L 111.0 91.0 L 112.0 91.0 L 113.0 91.0 L 114.0 91.0 L 115.0 91.0 L 116.0 91.0 L 117.0 91.0 L 118.0 91.0 L 119.0 91.0 L 120.0 91.0 L 121.0 91.0 L 122.0 91.0 L 123.0 90.66666666666667 L 123.66666666666667 90.0 L 124.0 89.0 L 124.0 88.0 L 124.0 87.0 L 124.0 86.0 L 124.0 85.0 L 124.0 84.0 L 124.0 83.0 L 124.0 82.0 L 124.0 81.0 L 124.0 80.0 L 124.0 79.0 L 124.0 78.0 L 124.0 77.0 L 124.0 76.0 L 124.0 75.0 L 124.0 74.0 L 123.66666666666667 73.0 L 123.33333333333333 72.0 L 123.0 71.0 L 123.0 70.0 L 123.0 69.0 L 123.0 68.0 L 123.0 67.0 L 123.0 66.0 L 123.0 65.0 L 123.0 64.0 L 123.0 63.0 L 123.0 62.0 L 123.0 61.0 L 123.0 60.0 L 123.0 59.0 L 123.0 58.0 L 123.0 57.0 L 122.66666666666667 56.0 L 122.33333333333333 55.0 L 122.0 54.0 L 122.0 53.0 L 122.0 52.0 L 122.0 51.0 L 122.0 50.0 L 122.0 49.0 L 122.0 48.0 L 122.0 47.0 L 122.0 46.0 L 122.0 45.0 L 122.0 44.0 L 122.0 43.0 L 122.0 42.0 L 122.0 41.0 L 122.0 40.0 L 121.66666666666667 39.0 L 121.33333333333333 38.0 L 121.0 37.0 L 121.0 36.0 L 121.0 35.0 L 120.66666666666667 34.333333333333336 L 120.0 33.666666666666664 L 119.0 33.333333333333336 L 118.0 33.0 L 117.0 33.0 L 116.0 33.0 L 115.0 33.0 L 114.0 33.0 L 113.0 33.0 L 112.0 33.0 L 111.0 33.0 L 110.0 33.0 L 109.0 33.0 L 108.0 33.0 L 107.0 33.0 L 106.0 33.0 L 105.0 33.0 L 104.0 33.0 L 103.0 33.0 L 102.0 33.0 L 101.0 33.0 L 100.0 33.0 L 99.0 33.0 L 98.0 33.0 L 97.0 33.0 L 96.0 33.0 L 95.0 33.0 L 94.0 33.0 L 93.0 33.0 L 92.0 33.0 L 91.0 33.0 L 90.0 33.0 L 89.0 33.0 L 88.0 33.0 L 87.0 33.0 L 86.0 33.0 L 85.0 33.0 L 84.0 33.0 L 83.0 33.0 L 82.0 33.0 L 81.0 33.0 L 80.0 33.0 L 79.0 33.0 L 78.0 33.0 L 77.0 33.0 L 76.0 33.0 L 75.0 33.0 L 74.0 33.0 L 73.0 33.0 L 72.0 33.0 L 71.0 33.0 L 70.0 33.0 L 69.0 33.0 L 68.0 33.0 L 67.0 33.0 L 66.0 33.0 L 65.0 33.0 L 64.0 33.0 L 63.0 33.0 L 62.0 33.0 L 61.0 33.0 L 60.0 33.0 L 59.0 33.0 L 58.0 33.0 L 57.0 33.0 L 56.0 33.0 L 55.0 33.0 L 54.0 33.0 L 53.0 33.0 L 52.0 33.0 L 51.0 33.0 L 50.0 33.0 L 49.0 33.0 L 48.0 33.0 L 47.0 33.0 L 46.0 33.0 L 45.0 33.0 L 44.0 33.0 L 43.0 33.0 L 42.0 33.0 L 41.0 33.0 L 40.0 33.0 L 39.0 33.0 L 38.0 33.0 L 37.0 33.0 L 36.0 33.0 L 35.0 33.0 L 34.0 33.0 L 33.0 33.0 L 32.0 33.0 L 31.0 33.0 L 30.0 33.0 L 29.0 33.0 L 28.0 33.0 L 27.0 33.0 L 26.0 33.0 L 25.0 33.0 L 24.0 33.0 L 23.0 33.0 L 22.0 33.0 L 21.0 33.0 L 20.0 33.0 L 19.0 33.0 L 18.0 33.0 L 17.0 33.0 L 16.0 33.0 L 15.0 33.0 L 14.0 33.0 L 13.0 33.0 L 12.0 33.0 L 11.0 33.0 L 10.0 33.0 L 9.0 33.333333333333336 L 8.0 33.666666666666664 L 7.333333333333333 34.333333333333336 L 7.0 35.0 L 7.0 36.0 L 7.0 37.0 L 6.666666666666667 38.0 L 6.333333333333333 39.0 L 6.0 40.0 L 6.0 41.0 L 6.0 42.0 L 6.0 43.0 L 6.0 44.0 L 6.0 45.0 L 6.0 46.0 L 6.0 47.0 L 6.0 48.0 L 6.0 49.0 L 6.0 50.0 L 6.0 51.0 L 6.0 52.0 L 6.0 53.0 L 6.0 54.0 L 5.666666666666667 55.0 L 5.333333333333333 56.0 L 5.0 57.0 L 5.0 58.0 L 5.0 59.0 L 5.0 60.0 L 5.0 61.0 L 5.0 62.0 L 5.0 63.0 L 5.0 64.0 L 5.0 65.0 L 5.0 66.0 L 5.0 67.0 L 5.0 68.0 L 5.0 69.0 L 5.0 70.0 L 5.0 71.0 L 4.666666666666667 72.0 L 4.333333333333333 73.0 L 4.0 74.0 L 4.0 75.0 L 4.0 76.0 L 4.0 77.0 L 4.0 78.0 L 4.0 79.0 L 4.0 80.0 L 4.0 81.0 L 4.0 82.0 L 4.0 83.0 L 4.0 84.0 L 4.0 85.0 L 4.0 86.0 L 4.0 87.0 L 4.0 88.0 L 4.333333333333333 89.0 L 5.0 90.0 L 6.0 90.66666666666667 L 7.0 91.0 L 8.0 91.0 L 9.0 91.0 L 10.0 91.0 L 11.0 91.0 L 12.0 91.0 L 13.0 91.0 L 14.0 91.0 L 15.0 91.0 L 16.0 91.0 L 17.0 91.0 L 18.0 91.0 L 19.0 91.0 L 20.0 91.0 L 21.0 91.0 L 22.0 91.0 L 23.0 91.0 L 24.0 91.0 L 25.0 91.0 L 26.0 91.0 L 27.0 91.0 L 28.0 91.0 L 29.0 91.0 L 30.0 91.0 L 31.0 91.0 L 32.0 91.0 L 33.0 91.0 L 34.0 91.0 L 35.0 91.0 L 36.0 91.0 L 37.0 91.0 L 38.0 91.0 L 39.0 91.0 L 40.0 91.0 L 41.0 91.0 L 42.0 91.0 L 43.0 91.0 L 44.0 91.0 L 45.0 91.0 L 46.0 91.0 L 47.0 91.0 L 48.0 91.0 L 49.0 91.0 L 50.0 91.0 L 51.0 91.0 L 52.0 91.0 L 53.0 91.0 L 54.0 91.0 L 55.0 91.0 L 56.0 91.0 L 57.0 91.0 L 58.0 91.0 L 59.0 91.0 L 60.0 91.0 L 61.0 91.0 L 62.0 91.0 L 63.0 91.0 L 64.0 91.0 L 65.0 91.0 L 66.0 91.0 L 67.0 91.0 L 68.0 91.0 L 69.0 91.0 L 70.0 91.0 L 71.0 91.0 L 71.5 91.0 Z" stroke="none" fill="rgb(195,210,217)" />
<path d="M 15.5 49.0 L 16.0 49.0 L 17.0 49.0 L 18.0 49.0 L 19.0 49.0 L 19.666666666666668 48.666666666666664 L 20.0 48.0 L 20.0 47.0 L 20.0 46.0 L 20.0 45.0 L 20.0 44.0 L 20.0 43.0 L 20.0 42.0 L 19.666666666666668 41.333333333333336 L 19.0 41.0 L 18.0 41.0 L 17.0 41.0 L 16.0 41.0 L 15.0 41.0 L 14.0 41.0 L 13.333333333333334 41.333333333333336 L 13.0 42.0 L 13.0 43.0 L 13.0 44.0 L 13.0 45.0 L 13.0 46.0 L 13.0 47.0 L 13.333333333333334 48.0 L 14.0 48.666666666666664 L 14.5 49.0 Z" stroke="none" fill="rgb(255,255,255)" />
<path d="M 31.0 48.5 L 31.333333333333332 48.0 L 31.666666666666668 47.0 L 32.0 46.0 L 32.0 45.0 L 32.0 44.0 L 32.0 43.0 L 32.0 42.0 L 31.666666666666668 41.333333333333336 L 31.0 41.0 L 30.0 41.0 L 29.0 41.0 L 28.0 41.0 L 27.0 41.0 L 26.0 41.0 L 25.333333333333332 41.333333333333336 L 25.0 42.0 L 25.0 43.0 L 25.0 44.0 L 25.0 45.0 L 25.0 46.0 L 25.0 47.0 L 25.333333333333332 48.0 L 26.0 48.666666666666664 L 27.0 49.0 L 28.0 49.0 L 29.0 49.0 L 30.0 49.0 L 30.5 49.0 Z" stroke="none" fill="rgb(255,255,255)" />
<path d="M 40.5 49.0 L 41.0 49.0 L 42.0 49.0 L 42.666666666666664 48.666666666666664 L 43.0 48.0 L 43.0 47.0 L 43.0 46.0 L 43.0 45.0 L 43.0 44.0 L 43.0 43.0 L 43.0 42.0 L 42.666666666666664 41.333333333333336 L 42.0 41.0 L 41.0 41.0 L 40.0 41.0 L 39.0 41.0 L 38.0 41.0 L 37.0 41.0 L 36.333333333333336 41.333333333333336 L 36.0 42.0 L 36.0 43.0 L 36.0 44.0 L 36.0 45.0 L 36.0 46.0 L 36.0 47.0 L 36.333333333333336 48.0 L 37.0 48.666666666666664 L 38.0 49.0 L 39.0 49.0 L 39.5 49.0 Z" stroke="none" fill="rgb(255,255,255)" />
<path d="M 53.5 49.0 L 53.666666666666664 48.666666666666664 L 54.0 48.0 L 54.0 47.0 L 54.0 46.0 L 54.0 45.0 L 54.0 44.0 L 54.0 43.0 L 54.0 42.0 L 53.666666666666664 41.333333333333336 L 53.0 41.0 L 52.0 41.0 L 51.0 41.0 L 50.0 41.0 L 49.0 41.0 L 48.0 41.0 L 47.333333333333336 41.333333333333336 L 47.0 42.0 L 47.0 43.0 L 47.0 44.0 L 47.0 45.0 L 47.0 46.0 L 47.0 47.0 L 47.333333333333336 48.0 L 48.0 48.666666666666664 L 49.0 49.0 L 50.0 49.0 L 51.0 49.0 L 52.0 49.0 L 52.5 49.0 Z" stroke="none" fill="rgb(255,255,255)" />
<path d="M 62.5 49.0 L 63.0 49.0 L 64.0 49.0 L 64.66666666666667 48.666666666666664 L 65.0 48.0 L 65.0 47.0 L 65.0 46.0 L 65.0 45.0 L 65.0 44.0 L 65.0 43.0 L 65.0 42.0 L 64.66666666666667 41.333333333333336 L 64.0 41.0 L 63.0 41.0 L 62.0 41.0 L 61.0 41.0 L 60.0 41.0 L 59.0 41.0 L 58.333333333333336 41.333333333333336 L 58.0 42.0 L 58.0 43.0 L 58.0 44.0 L 58.0 45.0 L 58.0 46.0 L 58.0 47.0 L 58.333333333333336 48.0 L 59.0 48.666666666666664 L 60.0 49.0 L 61.0 49.0 L 61.5 49.0 Z" stroke="none" fill="rgb(255,255,255)" />
<path d="M 74.5 49.0 L 75.0 49.0 L 76.0 49.0 L 76.66666666666667 48.666666666666664 L 77.0 48.0 L 77.0 47.0 L 77.0 46.0 L 77.0 45.0 L 77.0 44.0 L 77.0 43.0 L 77.0 42.0 L 76.66666666666667 41.333333333333336 L 76.0 41.0 L 75.0 41.0 L 74.0 41.0 L 73.0 41.0 L 72.0 41.0 L 71.0 41.0 L 70.0 41.0 L 69.33333333333333 41.333333333333336 L 69.0 42.0 L 69.0 43.0 L 69.0 44.0 L 69.0 45.0 L 69.0 46.0 L 69.33333333333333 47.0 L 70.0 48.0 L 71.0 48.666666666666664 L 72.0 49.0 L 73.0 49.0 L 73.5 49.0 Z" stroke="none" fill="rgb(255,255,255)" />
<path d="M 87.5 49.0 L 87.66666666666667 48.666666666666664 L 88.0 48.0 L 88.0 47.0 L 88.0 46.0 L 88.0 45.0 L 88.0 44.0 L 88.0 43.0 L 88.0 42.0 L 87.66666666666667 41.333333333333336 L 87.0 41.0 L 86.0 41.0 L 85.0 41.0 L 84.0 41.0 L 83.0 41.0 L 82.0 41.0 L 81.0 41.333333333333336 L 80.33333333333333 42.0 L 80.0 43.0 L 80.0 44.0 L 80.0 45.0 L 80.0 46.0 L 80.33333333333333 47.0 L 81.0 48.0 L 82.0 48.666666666666664 L 83.0 49.0 L 84.0 49.0 L 85.0 49.0 L 86.0 49.0 L 86.5 49.0 Z" stroke="none" fill="rgb(255,255,255)" />
<path d="M 98.5 49.0 L 98.66666666666667 48.666666666666664 L 99.0 48.0 L 99.0 47.0 L 99.0 46.0 L 99.0 45.0 L 99.0 44.0 L 99.0 43.0 L 99.0 42.0 L 98.66666666666667 41.333333333333336 L 98.0 41.0 L 97.0 41.0 L 96.0 41.0 L 95.0 41.0 L 94.0 41.0 L 93.0 41.0 L 92.33333333333333 41.333333333333336 L 92.0 42.0 L 92.0 43.0 L 92.0 44.0 L 92.0 45.0 L 92.0 46.0 L 92.0 47.0 L 92.33333333333333 48.0 L 93.0 48.666666666666664 L 94.0 49.0 L 95.0 49.0 L 96.0 49.0 L 97.0 49.0 L 97.5 49.0 Z" stroke="none" fill="rgb(255,255,255)" />
<path d="M 104.5 48.5 L 105.0 48.666666666666664 L 106.0 49.0 L 107.0 49.0 L 108.0 49.0 L 109.0 49.0 L 110.0 49.0 L 111.0 49.0 L 112.0 49.0 L 113.0 49.0 L 114.0 49.0 L 114.66666666666667 48.666666666666664 L 115.0 48.0 L 115.0 47.0 L 115.0 46.0 L 115.0 45.0 L 115.0 44.0 L 115.0 43.0 L 115.0 42.0 L 114.66666666666667 41.333333333333336 L 114.0 41.0 L 113.0 41.0 L 112.0 41.0 L 111.0 41.0 L 110.0 41.0 L 109.0 41.0 L 108.0 41.0 L 107.0 41.0 L 106.0 41.0 L 105.0 41.0 L 104.0 41.0 L 103.33333333333333 41.333333333333336 L 103.0 42.0 L 103.0 43.0 L 103.0 44.0 L 103.0 45.0 L 103.0 46.0 L 103.33333333333333 47.0 L 103.5 47.5 Z" stroke="none" fill="rgb(255,255,255)" />
<path d="M 14.5 61.0 L 15.0 61.0 L 16.0 61.0 L 17.0 61.0 L 18.0 61.0 L 19.0 61.0 L 20.0 61.0 L 21.0 61.0 L 22.0 61.0 L 23.0 61.0 L 23.666666666666668 60.666666666666664 L 24.0 60.0 L 24.0 59.0 L 24.0 58.0 L 24.0 57.0 L 24.0 56.0 L 24.0 55.0 L 24.0 54.0 L 23.666666666666668 53.0 L 23.0 52.333333333333336 L 22.0 52.0 L 21.0 52.0 L 20.0 52.0 L 19.0 52.0 L 18.0 52.0 L 17.0 52.0 L 16.0 52.0 L 15.0 52.0 L 14.0 52.333333333333336 L 13.0 53.0 L 12.333333333333334 54.0 L 12.0 55.0 L 12.0 56.0 L 12.0 57.0 L 12.0 58.0 L 12.0 59.0 L 12.333333333333334 60.0 L 13.0 60.666666666666664 L 13.5 61.0 Z" stroke="none" fill="rgb(255,255,255)" />
<path d="M 32.5 61.0 L 33.0 61.0 L 34.0 61.0 L 35.0 61.0 L 35.666666666666664 60.666666666666664 L 36.0 60.0 L 36.0 59.0 L 36.0 58.0 L 36.0 57.0 L 36.0 56.0 L 36.0 55.0 L 36.0 54.0 L 35.666666666666664 53.0 L 35.0 52.333333333333336 L 34.0 52.0 L 33.0 52.0 L 32.0 52.0 L 31.0 52.0 L 30.0 52.333333333333336 L 29.333333333333332 53.0 L 29.0 54.0 L 29.0 55.0 L 29.0 56.0 L 29.0 57.0 L 29.0 58.0 L 29.0 59.0 L 29.333333333333332 60.0 L 30.0 60.666666666666664 L 31.0 61.0 L 31.5 61.0 Z" stroke="none" fill="rgb(255,255,255)" />
<path d="M 40.5 60.5 L 41.0 60.666666666666664 L 42.0 61.0 L 43.0 61.0 L 44.0 61.0 L 45.0 61.0 L 46.0 61.0 L 46.666666666666664 60.666666666666664 L 47.0 60.0 L 47.0 59.0 L 47.0 58.0 L 47.0 57.0 L 47.0 56.0 L 47.0 55.0 L 47.0 54.0 L 46.666666666666664 53.0 L 46.0 52.333333333333336 L 45.0 52.0 L 44.0 52.0 L 43.0 52.0 L 42.0 52.0 L 41.0 52.333333333333336 L 40.333333333333336 53.0 L 40.0 54.0 L 40.0 55.0 L 40.0 56.0 L 40.0 57.0 L 40.0 58.0 L 40.0 59.0 L 40.0 59.5 Z" stroke="none" fill="rgb(255,255,255)" />
<path d="M 57.5 61.0 L 58.0 61.0 L 58.666666666666664 60.666666666666664 L 59.0 60.0 L 59.0 59.0 L 59.0 58.0 L 59.0 57.0 L 59.0 56.0 L 59.0 55.0 L 59.0 54.0 L 58.666666666666664 53.0 L 58.0 52.333333333333336 L 57.0 52.0 L 56.0 52.0 L 55.0 52.0 L 54.0 52.0 L 53.0 52.333333333333336 L 52.0 52.666666666666664 L 51.333333333333336 53.333333333333336 L 51.0 54.0 L 51.0 55.0 L 51.0 56.0 L 51.0 57.0 L 51.0 58.0 L 51.333333333333336 59.0 L 52.0 60.0 L 53.0 60.666666666666664 L 54.0 61.0 L 55.0 61.0 L 56.0 61.0 L 56.5 61.0 Z" stroke="none" fill="rgb(255,255,255)" />
<path d="M 69.5 61.0 L 69.66666666666667 60.666666666666664 L 70.0 60.0 L 70.0 59.0 L 70.0 58.0 L 70.0 57.0 L 70.0 56.0 L 70.0 55.0 L 70.0 54.0 L 69.66666666666667 53.0 L 69.0 52.333333333333336 L 68.0 52.0 L 67.0 52.0 L 66.0 52.0 L 65.0 52.0 L 64.0 52.333333333333336 L 63.0 52.666666666666664 L 62.333333333333336 53.333333333333336 L 62.0 54.0 L 62.0 55.0 L 62.0 56.0 L 62.0 57.0 L 62.333333333333336 58.0 L 62.666666666666664 59.0 L 63.333333333333336 60.0 L 64.0 60.666666666666664 L 65.0 61.0 L 66.0 61.0 L 67.0 61.0 L 68.0 61.0 L 68.5 61.0 Z" stroke="none" fill="rgb(255,255,255)" />
<path d="M 78.5 61.0 L 79.0 61.0 L 80.0 61.0 L 80.66666666666667 60.666666666666664 L 81.0 60.0 L 81.0 59.0 L 81.0 58.0 L 81.0 57.0 L 81.0 56.0 L 81.0 55.0 L 81.0 54.0 L 80.66666666666667 53.0 L 80.0 52.333333333333336 L 79.0 52.0 L 78.0 52.0 L 77.0 52.0 L 76.0 52.0 L 75.0 52.333333333333336 L 74.33333333333333 53.0 L 74.0 54.0 L 74.0 55.0 L 74.0 56.0 L 74.0 57.0 L 74.0 58.0 L 74.0 59.0 L 74.33333333333333 60.0 L 75.0 60.666666666666664 L 76.0 61.0 L 77.0 61.0 L 77.5 61.0 Z" stroke="none" fill="rgb(255,255,255)" />
<path d="M 91.5 61.0 L 91.66666666666667 60.666666666666664 L 92.0 60.0 L 92.0 59.0 L 92.0 58.0 L 92.0 57.0 L 92.0 56.0 L 92.0 55.0 L 92.0 54.0 L 91.66666666666667 53.0 L 91.0 52.333333333333336 L 90.0 52.0 L 89.0 52.0 L 88.0 52.0 L 87.0 52.0 L 86.0 52.333333333333336 L 85.33333333333333 53.0 L 85.0 54.0 L 85.0 55.0 L 85.0 56.0 L 85.0 57.0 L 85.0 58.0 L 85.0 59.0 L 85.33333333333333 60.0 L 86.0 60.666666666666664 L 87.0 61.0 L 88.0 61.0 L 89.0 61.0 L 90.0 61.0 L 90.5 61.0 Z" stroke="none" fill="rgb(255,255,255)" />
<path d="M 96.5 60.5 L 97.0 60.666666666666664 L 98.0 61.0 L 99.0 61.0 L 100.0 61.0 L 101.0 61.0 L 102.0 61.0 L 103.0 61.0 L 103.66666666666667 60.666666666666664 L 104.0 60.0 L 104.0 59.0 L 104.0 58.0 L 104.0 57.0 L 104.0 56.0 L 104.0 55.0 L 103.66666666666667 54.0 L 103.0 53.0 L 102.0 52.333333333333336 L 101.0 52.0 L 100.0 52.0 L 99.0 52.0 L 98.0 52.0 L 97.0 52.333333333333336 L 96.33333333333333 53.0 L 96.0 54.0 L 96.0 55.0 L 96.0 56.0 L 96.0 57.0 L 96.0 58.0 L 96.0 59.0 L 96.0 59.5 Z" stroke="none" fill="rgb(255,255,255)" />
<path d="M 108.5 60.5 L 109.0 60.666666666666664 L 110.0 61.0 L 111.0 61.0 L 112.0 61.0 L 113.0 61.0 L 114.0 61.0 L 115.0 61.0 L 115.66666666666667 60.666666666666664 L 116.0 60.0 L 116.0 59.0 L 116.0 58.0 L 116.0 57.0 L 116.0 56.0 L 116.0 55.0 L 115.66666666666667 54.0 L 115.0 53.0 L 114.0 52.333333333333336 L 113.0 52.0 L 112.0 52.0 L 111.0 52.0 L 110.0 52.0 L 109.0 52.333333333333336 L 108.0 53.0 L 107.33333333333333 54.0 L 107.0 55.0 L 107.0 56.0 L 107.0 57.0 L 107.33333333333333 58.0 L 107.66666666666667 59.0 L 108.0 59.5 Z" stroke="none" fill="rgb(255,255,255)" />
<path d="M 18.5 73.0 L 19.0 73.0 L 20.0 73.0 L 21.0 73.0 L 22.0 73.0 L 23.0 73.0 L 24.0 73.0 L 25.0 73.0 L 26.0 73.0 L 27.0 73.0 L 27.666666666666668 72.66666666666667 L 28.0 72.0 L 28.0 71.0 L 28.0 70.0 L 28.0 69.0 L 28.0 68.0 L 28.0 67.0 L 28.0 66.0 L 27.666666666666668 65.0 L 27.0 64.33333333333333 L 26.0 64.0 L 25.0 64.0 L 24.0 64.0 L 23.0 64.0 L 22.0 64.0 L 21.0 64.0 L 20.0 64.0 L 19.0 64.0 L 18.0 64.0 L 17.0 64.0 L 16.0 64.0 L 15.0 64.0 L 14.0 64.0 L 13.0 64.33333333333333 L 12.333333333333334 65.0 L 12.0 66.0 L 12.0 67.0 L 12.0 68.0 L 12.0 69.0 L 12.0 70.0 L 12.333333333333334 71.0 L 13.0 72.0 L 14.0 72.66666666666667 L 15.0 73.0 L 16.0 73.0 L 17.0 73.0 L 17.5 73.0 Z" stroke="none" fill="rgb(255,255,255)" />
<path d="M 110.5 73.0 L 111.0 73.0 L 112.0 73.0 L 113.0 73.0 L 114.0 73.0 L 115.0 73.0 L 115.66666666666667 72.66666666666667 L 116.0 72.0 L 116.0 71.0 L 116.0 70.0 L 116.0 69.0 L 116.0 68.0 L 116.0 67.0 L 116.0 66.0 L 115.66666666666667 65.0 L 115.0 64.33333333333333 L 114.0 64.0 L 113.0 64.0 L 112.0 64.0 L 111.0 64.0 L 110.0 64.0 L 109.0 64.0 L 108.0 64.0 L 107.0 64.0 L 106.0 64.0 L 105.0 64.0 L 104.0 64.0 L 103.0 64.0 L 102.0 64.0 L 101.0 64.0 L 100.0 64.0 L 99.0 64.0 L 98.0 64.0 L 97.0 64.0 L 96.0 64.0 L 95.0 64.0 L 94.0 64.0 L 93.0 64.33333333333333 L 92.33333333333333 65.0 L 92.0 66.0 L 92.0 67.0 L 92.0 68.0 L 92.0 69.0 L 92.0 70.0 L 92.0 71.0 L 92.33333333333333 72.0 L 93.0 72.66666666666667 L 94.0 73.0 L 95.0 73.0 L 96.0 73.0 L 97.0 73.0 L 98.0 73.0 L 99.0 73.0 L 100.0 73.0 L 101.0 73.0 L 102.0 73.0 L 103.0 73.0 L 104.0 73.0 L 105.0 73.0 L 106.0 73.0 L 107.0 73.0 L 108.0 73.0 L 109.0 73.0 L 109.5 73.0 Z" stroke="none" fill="rgb(255,255,255)" />
<path d="M 33.5 71.5 L 34.0 72.0 L 35.0 72.66666666666667 L 36.0 73.0 L 37.0 73.0 L 38.0 73.0 L 39.0 73.0 L 39.666666666666664 72.66666666666667 L 40.0 72.0 L 40.0 71.0 L 40.0 70.0 L 40.0 69.0 L 40.0 68.0 L 40.0 67.0 L 40.0 66.0 L 39.666666666666664 65.33333333333333 L 39.0 65.0 L 38.0 65.0 L 37.0 65.0 L 36.0 65.0 L 35.0 65.0 L 34.0 65.0 L 33.333333333333336 65.33333333333333 L 33.0 66.0 L 33.0 67.0 L 33.0 68.0 L 33.0 69.0 L 33.0 70.0 L 33.0 70.5 Z" stroke="none" fill="rgb(255,255,255)" />
<path d="M 50.5 73.0 L 51.0 73.0 L 51.666666666666664 72.66666666666667 L 52.0 72.0 L 52.0 71.0 L 52.0 70.0 L 52.0 69.0 L 52.0 68.0 L 52.0 67.0 L 52.0 66.0 L 51.666666666666664 65.33333333333333 L 51.0 65.0 L 50.0 65.0 L 49.0 65.0 L 48.0 65.0 L 47.0 65.0 L 46.0 65.0 L 45.333333333333336 65.33333333333333 L 45.0 66.0 L 45.0 67.0 L 45.0 68.0 L 45.0 69.0 L 45.0 70.0 L 45.333333333333336 71.0 L 46.0 72.0 L 47.0 72.66666666666667 L 48.0 73.0 L 49.0 73.0 L 49.5 73.0 Z" stroke="none" fill="rgb(255,255,255)" />
<path d="M 59.5 72.0 L 60.0 72.0 L 61.0 72.33333333333333 L 62.0 72.66666666666667 L 63.0 73.0 L 63.666666666666664 72.66666666666667 L 64.0 72.0 L 64.0 71.0 L 64.0 70.0 L 64.0 69.0 L 64.0 68.0 L 64.0 67.0 L 64.0 66.0 L 63.666666666666664 65.33333333333333 L 63.0 65.0 L 62.0 65.0 L 61.0 65.0 L 60.0 65.0 L 59.0 65.0 L 58.0 65.0 L 57.0 65.33333333333333 L 56.333333333333336 66.0 L 56.0 67.0 L 56.0 68.0 L 56.0 69.0 L 56.333333333333336 70.0 L 57.0 71.0 L 58.0 71.66666666666667 L 58.5 72.0 Z" stroke="none" fill="rgb(255,255,255)" />
<path d="M 75.0 72.5 L 75.0 72.0 L 75.0 71.0 L 75.0 70.0 L 75.0 69.0 L 75.0 68.0 L 75.0 67.0 L 75.0 66.0 L 74.66666666666667 65.33333333333333 L 74.0 65.0 L 73.0 65.0 L 72.0 65.0 L 71.0 65.0 L 70.0 65.0 L 69.0 65.0 L 68.33333333333333 65.33333333333333 L 68.0 66.0 L 68.0 67.0 L 68.0 68.0 L 68.0 69.0 L 68.0 70.0 L 68.33333333333333 71.0 L 69.0 72.0 L 70.0 72.66666666666667 L 71.0 73.0 L 72.0 73.0 L 73.0 73.0 L 74.0 73.0 L 74.5 73.0 Z" stroke="none" fill="rgb(255,255,255)" />
<path d="M 84.5 73.0 L 85.0 73.0 L 86.0 73.0 L 86.66666666666667 72.66666666666667 L 87.0 72.0 L 87.0 71.0 L 87.0 70.0 L 87.0 69.0 L 87.0 68.0 L 87.0 67.0 L 87.0 66.0 L 86.66666666666667 65.33333333333333 L 86.0 65.0 L 85.0 65.0 L 84.0 65.0 L 83.0 65.0 L 82.0 65.0 L 81.0 65.0 L 80.33333333333333 65.33333333333333 L 80.0 66.0 L 80.0 67.0 L 80.0 68.0 L 80.0 69.0 L 80.0 70.0 L 80.33333333333333 71.0 L 81.0 72.0 L 82.0 72.66666666666667 L 83.0 73.0 L 83.5 73.0 Z" stroke="none" fill="rgb(255,255,255)" />
<path d="M 58.5 74.5 L 59.0 74.66666666666667 L 60.0 75.0 L 61.0 75.0 L 62.0 75.0 L 62.666666666666664 74.66666666666667 L 63.0 74.0 L 62.666666666666664 73.0 L 62.0 72.33333333333333 L 61.0 72.0 L 60.0 72.0 L 59.0 72.0 L 58.333333333333336 72.33333333333333 L 58.0 73.0 L 58.0 73.5 Z" stroke="none" fill="rgb(121,165,177)" />
<path d="M 59.5 84.0 L 60.0 84.0 L 61.0 84.0 L 62.0 84.0 L 63.0 84.0 L 64.0 84.0 L 65.0 84.0 L 66.0 84.0 L 67.0 84.0 L 68.0 84.0 L 69.0 84.0 L 70.0 84.0 L 71.0 84.0 L 72.0 84.0 L 73.0 84.0 L 74.0 84.0 L 75.0 84.0 L 76.0 84.0 L 77.0 84.0 L 78.0 84.0 L 79.0 84.0 L 80.0 84.0 L 81.0 84.0 L 82.0 84.0 L 83.0 84.0 L 84.0 84.0 L 85.0 84.0 L 86.0 84.0 L 87.0 84.33333333333333 L 88.0 84.66666666666667 L 89.0 85.0 L 89.66666666666667 84.66666666666667 L 90.0 84.0 L 90.0 83.0 L 90.0 82.0 L 90.0 81.0 L 90.0 80.0 L 90.0 79.0 L 90.0 78.0 L 90.0 77.0 L 89.66666666666667 76.0 L 89.0 75.33333333333333 L 88.0 75.0 L 87.0 75.0 L 86.0 75.0 L 85.0 75.0 L 84.0 75.0 L 83.0 75.0 L 82.0 75.0 L 81.0 75.0 L 80.0 75.0 L 79.0 75.0 L 78.0 75.0 L 77.0 75.0 L 76.0 75.0 L 75.0 75.0 L 74.0 75.0 L 73.0 75.0 L 72.0 75.0 L 71.0 75.0 L 70.0 75.0 L 69.0 75.0 L 68.0 75.0 L 67.0 75.0 L 66.0 75.0 L 65.0 75.0 L 64.0 75.0 L 63.0 75.0 L 62.0 75.0 L 61.0 75.0 L 60.0 75.0 L 59.0 75.33333333333333 L 58.0 75.66666666666667 L 57.0 76.0 L 56.0 76.0 L 55.0 76.0 L 54.0 76.0 L 53.0 76.0 L 52.0 76.0 L 51.0 76.0 L 50.0 76.0 L 49.0 76.0 L 48.0 76.0 L 47.0 76.0 L 46.0 76.0 L 45.0 76.0 L 44.0 76.0 L 43.0 76.0 L 42.0 76.0 L 41.0 76.0 L 40.0 76.0 L 39.0 76.0 L 38.333333333333336 76.33333333333333 L 38.0 77.0 L 38.0 78.0 L 38.0 79.0 L 38.0 80.0 L 38.0 81.0 L 38.0 82.0 L 38.333333333333336 83.0 L 39.0 83.66666666666667 L 40.0 84.0 L 41.0 84.0 L 42.0 84.0 L 43.0 84.0 L 44.0 84.0 L 45.0 84.0 L 46.0 84.0 L 47.0 84.0 L 48.0 84.0 L 49.0 84.0 L 50.0 84.0 L 51.0 84.0 L 52.0 84.0 L 53.0 84.0 L 54.0 84.0 L 55.0 84.0 L 56.0 84.0 L 57.0 84.0 L 58.0 84.0 L 58.5 84.0 Z" stroke="none" fill="rgb(255,255,255)" />
<path d="M 20.0 84.5 L 20.0 84.0 L 20.0 83.0 L 20.0 82.0 L 20.0 81.0 L 20.0 80.0 L 20.0 79.0 L 20.0 78.0 L 19.666666666666668 77.0 L 19.0 76.33333333333333 L 18.0 76.0 L 17.0 76.0 L 16.0 76.0 L 15.0 76.0 L 14.0 76.0 L 13.0 76.0 L 12.0 76.33333333333333 L 11.333333333333334 77.0 L 11.0 78.0 L 11.0 79.0 L 11.0 80.0 L 11.0 81.0 L 11.0 82.0 L 11.333333333333334 83.0 L 12.0 84.0 L 13.0 84.66666666666667 L 14.0 85.0 L 15.0 85.0 L 16.0 85.0 L 17.0 85.0 L 18.0 85.0 L 19.0 85.0 L 19.5 85.0 Z" stroke="none" fill="rgb(255,255,255)" />
<path d="M 33.0 84.5 L 33.0 84.0 L 33.0 83.0 L 33.0 82.0 L 33.0 81.0 L 33.0 80.0 L 33.0 79.0 L 33.0 78.0 L 32.666666666666664 77.0 L 32.0 76.33333333333333 L 31.0 76.0 L 30.0 76.0 L 29.0 76.0 L 28.0 76.0 L 27.0 76.0 L 26.0 76.33333333333333 L 25.333333333333332 77.0 L 25.0 78.0 L 25.0 79.0 L 25.0 80.0 L 25.0 81.0 L 25.0 82.0 L 25.333333333333332 83.0 L 26.0 84.0 L 27.0 84.66666666666667 L 28.0 85.0 L 29.0 85.0 L 30.0 85.0 L 31.0 85.0 L 32.0 85.0 L 32.5 85.0 Z" stroke="none" fill="rgb(255,255,255)" />
<path d="M 97.5 85.0 L 98.0 85.0 L 99.0 85.0 L 100.0 85.0 L 101.0 85.0 L 102.0 85.0 L 102.66666666666667 84.66666666666667 L 103.0 84.0 L 103.0 83.0 L 103.0 82.0 L 103.0 81.0 L 103.0 80.0 L 103.0 79.0 L 103.0 78.0 L 102.66666666666667 77.0 L 102.0 76.33333333333333 L 101.0 76.0 L 100.0 76.0 L 99.0 76.0 L 98.0 76.0 L 97.0 76.0 L 96.0 76.33333333333333 L 95.33333333333333 77.0 L 95.0 78.0 L 95.0 79.0 L 95.0 80.0 L 95.0 81.0 L 95.0 82.0 L 95.33333333333333 83.0 L 96.0 84.0 L 96.5 84.5 Z" stroke="none" fill="rgb(255,255,255)" />
<path d="M 110.5 85.0 L 111.0 85.0 L 112.0 85.0 L 113.0 85.0 L 114.0 85.0 L 115.0 85.0 L 116.0 85.0 L 116.66666666666667 84.66666666666667 L 117.0 84.0 L 117.0 83.0 L 117.0 82.0 L 117.0 81.0 L 117.0 80.0 L 117.0 79.0 L 117.0 78.0 L 116.66666666666667 77.0 L 116.0 76.33333333333333 L 115.0 76.0 L 114.0 76.0 L 113.0 76.0 L 112.0 76.0 L 111.0 76.0 L 110.0 76.0 L 109.0 76.33333333333333 L 108.33333333333333 77.0 L 108.0 78.0 L 108.0 79.0 L 108.0 80.0 L 108.0 81.0 L 108.0 82.0 L 108.33333333333333 83.0 L 109.0 84.0 L 109.5 84.5 Z" stroke="none" fill="rgb(255,255,255)" />
<path d="M 75.5 86.0 L 76.0 86.0 L 77.0 86.0 L 78.0 86.0 L 79.0 86.0 L 80.0 86.0 L 81.0 86.0 L 82.0 86.0 L 83.0 86.0 L 84.0 86.0 L 85.0 86.0 L 86.0 86.0 L 87.0 86.0 L 88.0 86.0 L 88.66666666666667 85.66666666666667 L 88.66666666666667 85.0 L 88.0 84.33333333333333 L 87.0 84.0 L 86.0 84.0 L 85.0 84.0 L 84.0 84.0 L 83.0 84.0 L 82.0 84.0 L 81.0 84.0 L 80.0 84.0 L 79.0 84.0 L 78.0 84.0 L 77.0 84.0 L 76.0 84.0 L 75.0 84.0 L 74.0 84.0 L 73.0 84.0 L 72.0 84.0 L 71.0 84.0 L 70.0 84.0 L 69.0 84.0 L 68.0 84.0 L 67.0 84.0 L 66.0 84.0 L 65.0 84.0 L 64.0 84.0 L 63.0 84.0 L 62.0 84.0 L 61.0 84.0 L 60.0 84.0 L 59.0 84.0 L 58.0 84.0 L 57.0 84.0 L 56.0 84.0 L 55.0 84.0 L 54.0 84.0 L 53.0 84.0 L 52.0 84.0 L 51.0 84.0 L 50.0 84.0 L 49.0 84.0 L 48.0 84.0 L 47.0 84.0 L 46.0 84.0 L 45.0 84.0 L 44.0 84.0 L 43.0 84.0 L 42.0 84.0 L 41.0 84.0 L 40.0 84.0 L 39.333333333333336 84.33333333333333 L 39.0 85.0 L 39.333333333333336 85.66666666666667 L 40.0 86.0 L 41.0 86.0 L 42.0 86.0 L 43.0 86.0 L 44.0 86.0 L 45.0 86.0 L 46.0 86.0 L 47.0 86.0 L 48.0 86.0 L 49.0 86.0 L 50.0 86.0 L 51.0 86.0 L 52.0 86.0 L 53.0 86.0 L 54.0 86.0 L 55.0 86.0 L 56.0 86.0 L 57.0 86.0 L 58.0 86.0 L 59.0 86.0 L 60.0 86.0 L 61.0 86.0 L 62.0 86.0 L 63.0 86.0 L 64.0 86.0 L 65.0 86.0 L 66.0 86.0 L 67.0 86.0 L 68.0 86.0 L 69.0 86.0 L 70.0 86.0 L 71.0 86.0 L 72.0 86.0 L 73.0 86.0 L 74.0 86.0 L 74.5 86.0 Z" stroke="none" fill="rgb(158,188,197)" />
<path d="M 7.5 95.0 L 8.0 95.0 L 9.0 95.0 L 10.0 95.0 L 11.0 95.0 L 12.0 95.0 L 13.0 95.0 L 14.0 95.0 L 15.0 95.0 L 16.0 95.0 L 17.0 95.0 L 18.0 95.0 L 19.0 95.0 L 20.0 95.0 L 21.0 95.0 L 22.0 95.0 L 23.0 95.0 L 24.0 95.0 L 25.0 95.0 L 26.0 95.0 L 27.0 95.0 L 28.0 95.0 L 29.0 95.0 L 30.0 95.0 L 31.0 95.0 L 32.0 95.0 L 33.0 95.0 L 34.0 95.0 L 35.0 95.0 L 36.0 95.0 L 37.0 95.0 L 38.0 95.0 L 39.0 95.0 L 40.0 95.0 L 41.0 95.0 L 42.0 95.0 L 43.0 95.0 L 44.0 95.0 L 45.0 95.0 L 46.0 95.0 L 47.0 95.0 L 48.0 95.0 L 49.0 95.0 L 50.0 95.0 L 51.0 95.0 L 52.0 95.0 L 53.0 95.0 L 54.0 95.0 L 55.0 95.0 L 56.0 95.0 L 57.0 95.0 L 58.0 95.0 L 59.0 95.0 L 60.0 95.0 L 61.0 95.0 L 62.0 95.0 L 63.0 95.0 L 64.0 95.0 L 65.0 95.0 L 66.0 95.0 L 67.0 95.0 L 68.0 95.0 L 69.0 95.0 L 70.0 95.0 L 71.0 95.0 L 72.0 95.0 L 73.0 95.0 L 74.0 95.0 L 75.0 95.0 L 76.0 95.0 L 77.0 95.0 L 78.0 95.0 L 79.0 95.0 L 80.0 95.0 L 81.0 95.0 L 82.0 95.0 L 83.0 95.0 L 84.0 95.0 L 85.0 95.0 L 86.0 95.0 L 87.0 95.0 L 88.0 95.0 L 89.0 95.0 L 90.0 95.0 L 91.0 95.0 L 92.0 95.0 L 93.0 95.0 L 94.0 95.0 L 95.0 95.0 L 96.0 95.0 L 97.0 95.0 L 98.0 95.0 L 99.0 95.0 L 100.0 95.0 L 101.0 95.0 L 102.0 95.0 L 103.0 95.0 L 104.0 95.0 L 105.0 95.0 L 106.0 95.0 L 107.0 95.0 L 108.0 95.0 L 109.0 95.0 L 110.0 95.0 L 111.0 95.0 L 112.0 95.0 L 113.0 95.0 L 114.0 95.0 L 115.0 95.0 L 116.0 95.0 L 117.0 95.0 L 118.0 95.0 L 119.0 95.0 L 120.0 95.0 L 121.0 95.0 L 122.0 94.66666666666667 L 123.0 94.33333333333333 L 123.66666666666667 93.66666666666667 L 124.33333333333333 93.0 L 124.66666666666667 92.0 L 125.0 91.0 L 124.66666666666667 90.33333333333333 L 124.0 90.0 L 123.0 90.33333333333333 L 122.0 90.66666666666667 L 121.0 91.0 L 120.0 91.0 L 119.0 91.0 L 118.0 91.0 L 117.0 91.0 L 116.0 91.0 L 115.0 91.0 L 114.0 91.0 L 113.0 91.0 L 112.0 91.0 L 111.0 91.0 L 110.0 91.0 L 109.0 91.0 L 108.0 91.0 L 107.0 91.0 L 106.0 91.0 L 105.0 91.0 L 104.0 91.0 L 103.0 91.0 L 102.0 91.0 L 101.0 91.0 L 100.0 91.0 L 99.0 91.0 L 98.0 91.0 L 97.0 91.0 L 96.0 91.0 L 95.0 91.0 L 94.0 91.0 L 93.0 91.0 L 92.0 91.0 L 91.0 91.0 L 90.0 91.0 L 89.0 91.0 L 88.0 91.0 L 87.0 91.0 L 86.0 91.0 L 85.0 91.0 L 84.0 91.0 L 83.0 91.0 L 82.0 91.0 L 81.0 91.0 L 80.0 91.0 L 79.0 91.0 L 78.0 91.0 L 77.0 91.0 L 76.0 91.0 L 75.0 91.0 L 74.0 91.0 L 73.0 91.0 L 72.0 91.0 L 71.0 91.0 L 70.0 91.0 L 69.0 91.0 L 68.0 91.0 L 67.0 91.0 L 66.0 91.0 L 65.0 91.0 L 64.0 91.0 L 63.0 91.0 L 62.0 91.0 L 61.0 91.0 L 60.0 91.0 L 59.0 91.0 L 58.0 91.0 L 57.0 91.0 L 56.0 91.0 L 55.0 91.0 L 54.0 91.0 L 53.0 91.0 L 52.0 91.0 L 51.0 91.0 L 50.0 91.0 L 49.0 91.0 L 48.0 91.0 L 47.0 91.0 L 46.0 91.0 L 45.0 91.0 L 44.0 91.0 L 43.0 91.0 L 42.0 91.0 L 41.0 91.0 L 40.0 91.0 L 39.0 91.0 L 38.0 91.0 L 37.0 91.0 L 36.0 91.0 L 35.0 91.0 L 34.0 91.0 L 33.0 91.0 L 32.0 91.0 L 31.0 91.0 L 30.0 91.0 L 29.0 91.0 L 28.0 91.0 L 27.0 91.0 L 26.0 91.0 L 25.0 91.0 L 24.0 91.0 L 23.0 91.0 L 22.0 91.0 L 21.0 91.0 L 20.0 91.0 L 19.0 91.0 L 18.0 91.0 L 17.0 91.0 L 16.0 91.0 L 15.0 91.0 L 14.0 91.0 L 13.0 91.0 L 12.0 91.0 L 11.0 91.0 L 10.0 91.0 L 9.0 91.0 L 8.0 91.0 L 7.0 90.66666666666667 L 6.0 90.33333333333333 L 5.0 90.33333333333333 L 4.333333333333333 91.0 L 4.0 92.0 L 4.0 93.0 L 4.333333333333333 93.66666666666667 L 5.0 94.33333333333333 L 6.0 94.66666666666667 L 6.5 95.0 Z" stroke="none" fill="rgb(47,120,137)" />
</svg>
