<?xml version="1.0" encoding="UTF-8" standalone="no"?>
<!DOCTYPE svg PUBLIC "-//W3C//DTD SVG 1.1//EN"
"http://www.w3.org/Graphics/SVG/1.1/DTD/svg11.dtd">
<svg width="128" height="128" xmlns="http://www.w3.org/2000/svg" version="1.1">
<path d="M 26.5 128.0 L 27.0 128.0 L 28.0 128.0 L 29.0 128.0 L 30.0 128.0 L 31.0 128.0 L 32.0 128.0 L 33.0 128.0 L 34.0 128.0 L 35.0 128.0 L 36.0 128.0 L 37.0 128.0 L 38.0 128.0 L 39.0 128.0 L 40.0 128.0 L 41.0 128.0 L 42.0 128.0 L 43.0 128.0 L 44.0 128.0 L 45.0 128.0 L 46.0 128.0 L 47.0 128.0 L 48.0 128.0 L 49.0 128.0 L 50.0 128.0 L 51.0 128.0 L 52.0 128.0 L 53.0 128.0 L 54.0 128.0 L 55.0 128.0 L 56.0 128.0 L 57.0 128.0 L 58.0 128.0 L 59.0 128.0 L 60.0 128.0 L 61.0 128.0 L 62.0 128.0 L 63.0 128.0 L 64.0 128.0 L 65.0 128.0 L 66.0 128.0 L 67.0 128.0 L 68.0 128.0 L 69.0 128.0 L 70.0 128.0 L 71.0 128.0 L 72.0 128.0 L 73.0 128.0 L 74.0 128.0 L 75.0 128.0 L 76.0 128.0 L 77.0 128.0 L 78.0 128.0 L 79.0 128.0 L 80.0 128.0 L 81.0 128.0 L 82.0 128.0 L 83.0 128.0 L 84.0 128.0 L 85.0 128.0 L 86.0 128.0 L 87.0 128.0 L 88.0 128.0 L 89.0 128.0 L 90.0 128.0 L 91.0 128.0 L 92.0 128.0 L 93.0 128.0 L 94.0 128.0 L 95.0 128.0 L 96.0 128.0 L 97.0 128.0 L 98.0 128.0 L 99.0 128.0 L 100.0 128.0 L 101.0 128.0 L 102.0 128.0 L 103.0 128.0 L 104.0 128.0 L 105.0 128.0 L 106.0 128.0 L 107.0 128.0 L 108.0 128.0 L 109.0 128.0 L 110.0 128.0 L 111.0 128.0 L 112.0 128.0 L 113.0 128.0 L 114.0 128.0 L 115.0 128.0 L 116.0 128.0 L 117.0 128.0 L 118.0 128.0 L 119.0 128.0 L 120.0 128.0 L 121.0 128.0 L 122.0 128.0 L 123.0 128.0 L 124.0 128.0 L 125.0 128.0 L 126.0 128.0 L 127.0 128.0 L 127.66666666666667 127.66666666666667 L 128.0 127.0 L 128.0 126.0 L 128.0 125.0 L 128.0 124.0 L 128.0 123.0 L 128.0 122.0 L 128.0 121.0 L 128.0 120.0 L 128.0 119.0 L 128.0 118.0 L 128.0 117.0 L 128.0 116.0 L 128.0 115.0 L 128.0 114.0 L 128.0 113.0 L 128.0 112.0 L 128.0 111.0 L 128.0 110.0 L 128.0 109.0 L 128.0 108.0 L 128.0 107.0 L 128.0 106.0 L 128.0 105.0 L 128.0 104.0 L 128.0 103.0 L 128.0 102.0 L 128.0 101.0 L 128.0 100.0 L 128.0 99.0 L 128.0 98.0 L 128.0 97.0 L 128.0 96.0 L 128.0 95.0 L 128.0 94.0 L 128.0 93.0 L 128.0 92.0 L 128.0 91.0 L 128.0 90.0 L 128.0 89.0 L 128.0 88.0 L 128.0 87.0 L 128.0 86.0 L 128.0 85.0 L 128.0 84.0 L 128.0 83.0 L 128.0 82.0 L 128.0 81.0 L 128.0 80.0 L 128.0 79.0 L 128.0 78.0 L 128.0 77.0 L 128.0 76.0 L 128.0 75.0 L 128.0 74.0 L 128.0 73.0 L 128.0 72.0 L 128.0 71.0 L 128.0 70.0 L 128.0 69.0 L 128.0 68.0 L 128.0 67.0 L 128.0 66.0 L 128.0 65.0 L 128.0 64.0 L 128.0 63.0 L 128.0 62.0 L 128.0 61.0 L 128.0 60.0 L 128.0 59.0 L 128.0 58.0 L 128.0 57.0 L 128.0 56.0 L 128.0 55.0 L 128.0 54.0 L 128.0 53.0 L 128.0 52.0 L 128.0 51.0 L 128.0 50.0 L 128.0 49.0 L 128.0 48.0 L 128.0 47.0 L 128.0 46.0 L 128.0 45.0 L 128.0 44.0 L 128.0 43.0 L 128.0 42.0 L 128.0 41.0 L 128.0 40.0 L 128.0 39.0 L 128.0 38.0 L 128.0 37.0 L 128.0 36.0 L 128.0 35.0 L 128.0 34.0 L 128.0 33.0 L 128.0 32.0 L 128.0 31.0 L 128.0 30.0 L 128.0 29.0 L 128.0 28.0 L 128.0 27.0 L 128.0 26.0 L 128.0 25.0 L 128.0 24.0 L 128.0 23.0 L 128.0 22.0 L 128.0 21.0 L 128.0 20.0 L 128.0 19.0 L 128.0 18.0 L 128.0 17.0 L 128.0 16.0 L 128.0 15.0 L 128.0 14.0 L 128.0 13.0 L 128.0 12.0 L 128.0 11.0 L 128.0 10.0 L 128.0 9.0 L 128.0 8.0 L 128.0 7.0 L 128.0 6.0 L 128.0 5.0 L 128.0 4.0 L 128.0 3.0 L 128.0 2.0 L 128.0 1.0 L 127.66666666666667 0.3333333333333333 L 127.0 0.0 L 126.0 0.0 L 125.0 0.0 L 124.0 0.0 L 123.0 0.0 L 122.0 0.0 L 121.0 0.0 L 120.0 0.0 L 119.0 0.0 L 118.0 0.0 L 117.0 0.0 L 116.0 0.0 L 115.0 0.0 L 114.0 0.0 L 113.0 0.0 L 112.0 0.0 L 111.0 0.0 L 110.0 0.0 L 109.0 0.0 L 108.0 0.0 L 107.0 0.0 L 106.0 0.0 L 105.0 0.0 L 104.0 0.0 L 103.0 0.0 L 102.0 0.0 L 101.0 0.0 L 100.0 0.0 L 99.0 0.0 L 98.0 0.0 L 97.0 0.0 L 96.0 0.0 L 95.0 0.0 L 94.0 0.0 L 93.0 0.0 L 92.0 0.0 L 91.0 0.0 L 90.0 0.0 L 89.0 0.0 L 88.0 0.0 L 87.0 0.0 L 86.0 0.0 L 85.0 0.0 L 84.0 0.0 L 83.0 0.0 L 82.0 0.0 L 81.0 0.0 L 80.0 0.0 L 79.0 0.0 L 78.0 0.0 L 77.0 0.0 L 76.0 0.0 L 75.0 0.0 L 74.0 0.0 L 73.0 0.0 L 72.0 0.0 L 71.0 0.0 L 70.0 0.0 L 69.0 0.0 L 68.0 0.0 L 67.0 0.0 L 66.0 0.0 L 65.0 0.0 L 64.0 0.0 L 63.0 0.0 L 62.0 0.0 L 61.0 0.0 L 60.0 0.0 L 59.0 0.0 L 58.0 0.0 L 57.0 0.0 L 56.0 0.0 L 55.0 0.0 L 54.0 0.0 L 53.0 0.0 L 52.0 0.0 L 51.0 0.0 L 50.0 0.0 L 49.0 0.0 L 48.0 0.0 L 47.0 0.0 L 46.0 0.0 L 45.0 0.0 L 44.0 0.0 L 43.0 0.0 L 42.0 0.0 L 41.0 0.0 L 40.0 0.0 L 39.0 0.0 L 38.0 0.0 L 37.0 0.0 L 36.0 0.0 L 35.0 0.0 L 34.0 0.0 L 33.0 0.0 L 32.0 0.0 L 31.0 0.0 L 30.0 0.0 L 29.0 0.0 L 28.0 0.0 L 27.0 0.0 L 26.0 0.0 L 25.0 0.0 L 24.0 0.0 L 23.0 0.0 L 22.0 0.0 L 21.0 0.0 L 20.0 0.0 L 19.0 0.0 L 18.0 0.0 L 17.0 0.0 L 16.0 0.0 L 15.0 0.0 L 14.0 0.0 L 13.0 0.0 L 12.0 0.0 L 11.0 0.0 L 10.0 0.0 L 9.0 0.0 L 8.0 0.0 L 7.0 0.0 L 6.0 0.0 L 5.0 0.0 L 4.0 0.0 L 3.0 0.0 L 2.0 0.0 L 1.0 0.0 L 0.3333333333333333 0.3333333333333333 L 0.0 1.0 L 0.0 2.0 L 0.0 3.0 L 0.0 4.0 L 0.0 5.0 L 0.0 6.0 L 0.0 7.0 L 0.0 8.0 L 0.0 9.0 L 0.0 10.0 L 0.0 11.0 L 0.0 12.0 L 0.0 13.0 L 0.0 14.0 L 0.0 15.0 L 0.0 16.0 L 0.0 17.0 L 0.0 18.0 L 0.0 19.0 L 0.0 20.0 L 0.0 21.0 L 0.0 22.0 L 0.0 23.0 L 0.0 24.0 L 0.0 25.0 L 0.0 26.0 L 0.0 27.0 L 0.0 28.0 L 0.0 29.0 L 0.0 30.0 L 0.0 31.0 L 0.0 32.0 L 0.0 33.0 L 0.0 34.0 L 0.0 35.0 L 0.0 36.0 L 0.0 37.0 L 0.0 38.0 L 0.0 39.0 L 0.0 40.0 L 0.0 41.0 L 0.0 42.0 L 0.0 43.0 L 0.0 44.0 L 0.0 45.0 L 0.0 46.0 L 0.0 47.0 L 0.0 48.0 L 0.0 49.0 L 0.0 50.0 L 0.0 51.0 L 0.0 52.0 L 0.0 53.0 L 0.0 54.0 L 0.0 55.0 L 0.0 56.0 L 0.0 57.0 L 0.0 58.0 L 0.0 59.0 L 0.0 60.0 L 0.0 61.0 L 0.0 62.0 L 0.0 63.0 L 0.0 64.0 L 0.0 65.0 L 0.0 66.0 L 0.0 67.0 L 0.0 68.0 L 0.0 69.0 L 0.0 70.0 L 0.0 71.0 L 0.0 72.0 L 0.0 73.0 L 0.0 74.0 L 0.0 75.0 L 0.0 76.0 L 0.0 77.0 L 0.0 78.0 L 0.0 79.0 L 0.0 80.0 L 0.0 81.0 L 0.0 82.0 L 0.0 83.0 L 0.0 84.0 L 0.0 85.0 L 0.0 86.0 L 0.0 87.0 L 0.0 88.0 L 0.0 89.0 L 0.0 90.0 L 0.0 91.0 L 0.0 92.0 L 0.0 93.0 L 0.0 94.0 L 0.0 95.0 L 0.0 96.0 L 0.0 97.0 L 0.0 98.0 L 0.0 99.0 L 0.0 100.0 L 0.0 101.0 L 0.0 102.0 L 0.0 103.0 L 0.0 104.0 L 0.0 105.0 L 0.0 106.0 L 0.0 107.0 L 0.0 108.0 L 0.0 109.0 L 0.0 110.0 L 0.0 111.0 L 0.0 112.0 L 0.0 113.0 L 0.0 114.0 L 0.0 115.0 L 0.0 116.0 L 0.0 117.0 L 0.0 118.0 L 0.0 119.0 L 0.0 120.0 L 0.0 121.0 L 0.0 122.0 L 0.0 123.0 L 0.0 124.0 L 0.0 125.0 L 0.0 126.0 L 0.0 127.0 L 0.3333333333333333 127.66666666666667 L 1.0 128.0 L 2.0 128.0 L 3.0 128.0 L 4.0 128.0 L 5.0 128.0 L 6.0 128.0 L 7.0 128.0 L 8.0 128.0 L 9.0 128.0 L 10.0 128.0 L 11.0 128.0 L 12.0 128.0 L 13.0 128.0 L 14.0 128.0 L 15.0 128.0 L 16.0 128.0 L 17.0 128.0 L 18.0 128.0 L 19.0 128.0 L 20.0 128.0 L 21.0 128.0 L 22.0 128.0 L 23.0 128.0 L 24.0 128.0 L 25.0 128.0 L 25.5 128.0 Z" stroke="none" fill="rgb(0,0,0)" />
<path d="M 53.5 50.5 L 54.0 50.0 L 55.0 49.333333333333336 L 56.0 49.0 L 57.0 49.0 L 58.0 48.666666666666664 L 59.0 48.0 L 59.666666666666664 47.0 L 60.0 46.0 L 60.0 45.0 L 60.0 44.0 L 60.0 43.0 L 60.0 42.0 L 60.0 41.0 L 60.0 40.0 L 60.0 39.0 L 60.0 38.0 L 60.0 37.0 L 60.333333333333336 36.0 L 60.666666666666664 35.0 L 61.0 34.0 L 61.0 33.0 L 61.333333333333336 32.0 L 62.0 31.0 L 63.0 30.0 L 64.0 29.0 L 65.0 28.333333333333332 L 66.0 28.0 L 67.0 28.0 L 68.0 28.0 L 69.0 28.0 L 70.0 28.0 L 71.0 28.0 L 72.0 27.666666666666668 L 73.0 27.333333333333332 L 74.0 27.0 L 75.0 26.666666666666668 L 76.0 26.333333333333332 L 77.0 26.0 L 78.0 25.666666666666668 L 79.0 25.0 L 79.66666666666667 24.0 L 79.66666666666667 23.0 L 79.0 22.333333333333332 L 78.0 21.666666666666668 L 77.33333333333333 21.0 L 77.0 20.0 L 77.0 19.0 L 77.0 18.0 L 77.0 17.0 L 77.33333333333333 16.0 L 77.66666666666667 15.0 L 78.0 14.0 L 78.0 13.0 L 78.0 12.0 L 78.0 11.0 L 78.0 10.0 L 78.0 9.0 L 78.0 8.0 L 77.66666666666667 7.0 L 77.0 6.333333333333333 L 76.0 6.0 L 75.0 6.0 L 74.0 6.0 L 73.0 6.0 L 72.0 6.0 L 71.0 6.0 L 70.33333333333333 6.333333333333333 L 69.66666666666667 7.0 L 69.33333333333333 8.0 L 69.0 9.0 L 69.0 10.0 L 69.0 11.0 L 69.0 12.0 L 69.0 13.0 L 69.0 14.0 L 68.66666666666667 15.0 L 68.33333333333333 16.0 L 67.66666666666667 17.0 L 67.0 17.333333333333332 L 66.33333333333333 17.0 L 66.0 16.0 L 66.0 15.0 L 66.0 14.0 L 66.0 13.0 L 66.0 12.0 L 65.66666666666667 11.0 L 65.33333333333333 10.0 L 65.0 9.0 L 65.0 8.0 L 65.0 7.0 L 65.0 6.0 L 64.66666666666667 5.0 L 64.0 4.333333333333333 L 63.0 4.0 L 62.0 4.0 L 61.0 4.0 L 60.0 4.0 L 59.0 4.0 L 58.0 4.333333333333333 L 57.0 4.666666666666667 L 56.333333333333336 5.333333333333333 L 56.0 6.0 L 56.0 7.0 L 56.0 8.0 L 56.0 9.0 L 56.0 10.0 L 56.0 11.0 L 56.0 12.0 L 56.333333333333336 13.0 L 56.666666666666664 14.0 L 57.0 15.0 L 57.0 16.0 L 57.0 17.0 L 56.666666666666664 18.0 L 56.0 18.333333333333332 L 55.333333333333336 18.0 L 54.666666666666664 17.0 L 54.0 16.0 L 53.0 15.0 L 52.333333333333336 14.0 L 51.666666666666664 13.0 L 51.0 12.0 L 50.333333333333336 11.0 L 49.666666666666664 10.333333333333334 L 49.0 10.0 L 48.0 10.0 L 47.0 10.333333333333334 L 46.0 10.666666666666666 L 45.0 11.0 L 44.0 11.333333333333334 L 43.333333333333336 12.0 L 42.666666666666664 13.0 L 42.333333333333336 14.0 L 42.0 15.0 L 42.0 16.0 L 42.333333333333336 17.0 L 43.0 18.0 L 43.666666666666664 19.0 L 44.333333333333336 20.0 L 45.0 21.0 L 46.0 22.0 L 46.666666666666664 23.0 L 47.333333333333336 24.0 L 48.0 25.0 L 48.666666666666664 26.0 L 49.0 27.0 L 49.0 28.0 L 49.0 29.0 L 48.666666666666664 30.0 L 48.333333333333336 31.0 L 48.0 32.0 L 47.666666666666664 33.0 L 47.333333333333336 34.0 L 46.666666666666664 35.0 L 46.333333333333336 36.0 L 46.0 37.0 L 46.0 38.0 L 46.0 39.0 L 46.0 40.0 L 46.0 41.0 L 46.0 42.0 L 46.0 43.0 L 46.0 44.0 L 46.0 45.0 L 46.0 46.0 L 46.333333333333336 47.0 L 46.666666666666664 48.0 L 47.0 49.0 L 47.333333333333336 50.0 L 48.0 50.666666666666664 L 49.0 51.0 L 50.0 51.0 L 51.0 51.0 L 52.0 51.0 L 52.5 51.0 Z" stroke="none" fill="rgb(244,66,54)" />
<path d="M 30.5 26.0 L 31.0 26.0 L 32.0 26.0 L 33.0 25.666666666666668 L 34.0 25.333333333333332 L 35.0 24.666666666666668 L 36.0 24.666666666666668 L 37.0 25.0 L 37.666666666666664 26.0 L 38.0 27.0 L 38.0 28.0 L 38.0 29.0 L 38.333333333333336 30.0 L 38.666666666666664 31.0 L 39.0 32.0 L 39.0 33.0 L 39.0 34.0 L 39.0 35.0 L 39.0 36.0 L 39.0 37.0 L 39.0 38.0 L 39.0 39.0 L 39.0 40.0 L 39.0 41.0 L 39.0 42.0 L 39.0 43.0 L 39.0 44.0 L 39.0 45.0 L 39.0 46.0 L 39.0 47.0 L 39.0 48.0 L 39.0 49.0 L 39.0 50.0 L 39.0 51.0 L 39.0 52.0 L 39.0 53.0 L 39.0 54.0 L 39.0 55.0 L 39.333333333333336 56.0 L 39.666666666666664 57.0 L 40.0 58.0 L 40.0 59.0 L 40.0 60.0 L 40.333333333333336 61.0 L 40.666666666666664 62.0 L 41.333333333333336 63.0 L 41.666666666666664 64.0 L 42.333333333333336 65.0 L 43.0 66.0 L 44.0 67.0 L 45.0 67.66666666666667 L 46.0 68.0 L 47.0 68.0 L 48.0 68.0 L 49.0 68.0 L 49.666666666666664 67.66666666666667 L 50.0 67.0 L 50.0 66.0 L 49.666666666666664 65.0 L 49.333333333333336 64.0 L 49.0 63.0 L 49.0 62.0 L 49.0 61.0 L 49.0 60.0 L 48.666666666666664 59.0 L 48.333333333333336 58.0 L 48.0 57.0 L 48.0 56.0 L 47.666666666666664 55.0 L 47.333333333333336 54.0 L 47.0 53.0 L 47.0 52.0 L 47.0 51.0 L 47.0 50.0 L 47.0 49.0 L 47.0 48.0 L 46.666666666666664 47.0 L 46.333333333333336 46.0 L 46.0 45.0 L 46.0 44.0 L 46.0 43.0 L 46.0 42.0 L 46.0 41.0 L 46.0 40.0 L 46.0 39.0 L 46.0 38.0 L 46.0 37.0 L 46.0 36.0 L 45.666666666666664 35.0 L 45.333333333333336 34.0 L 45.0 33.0 L 45.0 32.0 L 45.0 31.0 L 45.0 30.0 L 45.0 29.0 L 45.0 28.0 L 45.0 27.0 L 45.0 26.0 L 44.666666666666664 25.0 L 44.333333333333336 24.0 L 43.666666666666664 23.0 L 43.333333333333336 22.0 L 42.666666666666664 21.0 L 42.333333333333336 20.0 L 41.666666666666664 19.0 L 41.0 18.0 L 40.0 17.0 L 39.0 16.333333333333332 L 38.0 15.666666666666666 L 37.0 15.333333333333334 L 36.0 15.0 L 35.333333333333336 15.333333333333334 L 35.0 16.0 L 35.333333333333336 17.0 L 35.666666666666664 18.0 L 36.0 19.0 L 35.666666666666664 20.0 L 35.0 21.0 L 34.0 22.0 L 33.0 22.666666666666668 L 32.0 23.0 L 31.0 22.666666666666668 L 30.333333333333332 22.0 L 30.333333333333332 21.0 L 31.0 20.0 L 32.0 19.0 L 32.666666666666664 18.0 L 33.0 17.0 L 32.666666666666664 16.333333333333332 L 32.0 16.0 L 31.0 16.333333333333332 L 30.0 17.0 L 29.0 17.666666666666668 L 28.333333333333332 18.333333333333332 L 27.666666666666668 19.0 L 27.333333333333332 20.0 L 27.0 21.0 L 27.0 22.0 L 27.0 23.0 L 27.0 24.0 L 27.333333333333332 25.0 L 28.0 25.666666666666668 L 29.0 26.0 L 29.5 26.0 Z" stroke="none" fill="rgb(255,143,140)" />
<path d="M 35.5 21.5 L 35.666666666666664 21.0 L 36.0 20.0 L 36.0 19.0 L 36.0 18.0 L 35.666666666666664 17.333333333333332 L 35.0 17.0 L 34.0 17.0 L 33.0 17.333333333333332 L 32.0 18.0 L 31.0 19.0 L 30.333333333333332 20.0 L 30.0 21.0 L 30.0 22.0 L 30.333333333333332 22.666666666666668 L 31.0 23.0 L 32.0 23.0 L 33.0 23.0 L 34.0 22.666666666666668 L 34.5 22.5 Z" stroke="none" fill="rgb(244,66,54)" />
<path d="M 88.5 28.0 L 89.0 27.666666666666668 L 90.0 27.333333333333332 L 91.0 27.0 L 92.0 26.666666666666668 L 93.0 26.333333333333332 L 94.0 25.666666666666668 L 95.0 25.0 L 95.66666666666667 24.0 L 96.0 23.0 L 96.0 22.0 L 96.33333333333333 21.0 L 96.66666666666667 20.0 L 97.0 19.0 L 96.66666666666667 18.333333333333332 L 96.0 18.0 L 95.0 18.0 L 94.0 18.0 L 93.0 18.0 L 92.0 18.0 L 91.0 18.333333333333332 L 90.0 19.0 L 89.0 19.666666666666668 L 88.0 20.333333333333332 L 87.0 21.0 L 86.0 21.666666666666668 L 85.0 22.0 L 84.0 22.333333333333332 L 83.0 22.666666666666668 L 82.0 23.333333333333332 L 81.0 23.666666666666668 L 80.0 24.0 L 79.0 24.333333333333332 L 78.0 25.0 L 77.0 25.666666666666668 L 76.0 26.0 L 75.0 26.333333333333332 L 74.0 26.666666666666668 L 73.0 27.0 L 72.0 27.333333333333332 L 71.0 27.666666666666668 L 70.0 28.0 L 69.0 28.0 L 68.0 28.0 L 67.0 28.333333333333332 L 66.0 29.0 L 65.0 30.0 L 64.33333333333333 31.0 L 64.0 32.0 L 63.666666666666664 33.0 L 63.333333333333336 34.0 L 63.0 35.0 L 63.0 36.0 L 63.0 37.0 L 63.0 38.0 L 63.0 39.0 L 63.0 40.0 L 63.0 41.0 L 63.0 42.0 L 63.333333333333336 43.0 L 63.666666666666664 44.0 L 64.0 45.0 L 64.0 46.0 L 64.33333333333333 47.0 L 65.0 47.666666666666664 L 66.0 48.0 L 67.0 48.333333333333336 L 68.0 48.666666666666664 L 69.0 49.0 L 70.0 49.0 L 71.0 49.0 L 71.66666666666667 48.666666666666664 L 72.0 48.0 L 72.0 47.0 L 72.0 46.0 L 72.0 45.0 L 72.0 44.0 L 72.0 43.0 L 72.33333333333333 42.0 L 72.66666666666667 41.0 L 73.0 40.0 L 73.33333333333333 39.0 L 73.66666666666667 38.0 L 74.33333333333333 37.0 L 75.0 36.0 L 76.0 35.0 L 77.0 34.333333333333336 L 78.0 33.666666666666664 L 79.0 33.0 L 80.0 32.0 L 81.0 31.333333333333332 L 82.0 30.666666666666668 L 83.0 30.333333333333332 L 84.0 29.666666666666668 L 85.0 29.333333333333332 L 86.0 28.666666666666668 L 87.0 28.333333333333332 L 87.5 28.0 Z" stroke="none" fill="rgb(212,51,48)" />
<path d="M 97.5 32.0 L 98.0 32.0 L 99.0 32.0 L 100.0 31.666666666666668 L 101.0 31.0 L 101.66666666666667 30.0 L 102.0 29.0 L 102.0 28.0 L 102.0 27.0 L 102.0 26.0 L 102.0 25.0 L 102.0 24.0 L 101.66666666666667 23.0 L 101.33333333333333 22.0 L 100.66666666666667 21.333333333333332 L 100.0 20.666666666666668 L 99.0 20.0 L 98.0 19.333333333333332 L 97.0 19.333333333333332 L 96.33333333333333 20.0 L 96.0 21.0 L 96.0 22.0 L 95.66666666666667 23.0 L 95.0 24.0 L 94.0 25.0 L 93.0 25.666666666666668 L 92.0 26.333333333333332 L 91.0 26.666666666666668 L 90.0 27.0 L 89.0 27.333333333333332 L 88.0 27.666666666666668 L 87.0 28.0 L 86.0 28.333333333333332 L 85.0 28.666666666666668 L 84.0 29.333333333333332 L 83.0 29.666666666666668 L 82.0 30.333333333333332 L 81.0 30.666666666666668 L 80.0 31.333333333333332 L 79.0 32.0 L 78.0 33.0 L 77.0 33.666666666666664 L 76.0 34.333333333333336 L 75.0 35.0 L 74.33333333333333 36.0 L 73.66666666666667 37.0 L 73.33333333333333 38.0 L 73.0 39.0 L 72.66666666666667 40.0 L 72.33333333333333 41.0 L 72.0 42.0 L 72.0 43.0 L 72.0 44.0 L 72.0 45.0 L 72.0 46.0 L 72.0 47.0 L 71.66666666666667 48.0 L 71.0 48.666666666666664 L 70.0 49.0 L 69.0 48.666666666666664 L 68.0 48.333333333333336 L 67.0 48.0 L 66.0 47.666666666666664 L 65.0 47.0 L 64.33333333333333 46.0 L 64.0 45.0 L 64.0 44.0 L 63.666666666666664 43.0 L 63.333333333333336 42.0 L 63.0 41.0 L 63.0 40.0 L 63.0 39.0 L 63.0 38.0 L 63.0 37.0 L 63.0 36.0 L 63.333333333333336 35.0 L 63.666666666666664 34.0 L 64.0 33.0 L 64.33333333333333 32.0 L 65.0 31.0 L 66.0 30.0 L 66.66666666666667 29.0 L 67.0 28.0 L 66.66666666666667 27.333333333333332 L 66.0 27.333333333333332 L 65.0 27.666666666666668 L 64.0 28.333333333333332 L 63.0 29.0 L 62.0 30.0 L 61.333333333333336 31.0 L 61.0 32.0 L 61.0 33.0 L 60.666666666666664 34.0 L 60.333333333333336 35.0 L 60.0 36.0 L 60.0 37.0 L 60.0 38.0 L 60.0 39.0 L 60.0 40.0 L 60.0 41.0 L 60.0 42.0 L 60.0 43.0 L 60.0 44.0 L 60.0 45.0 L 59.666666666666664 46.0 L 59.0 47.0 L 58.0 48.0 L 57.0 48.666666666666664 L 56.0 49.0 L 55.0 49.0 L 54.0 49.333333333333336 L 53.0 50.0 L 52.0 50.666666666666664 L 51.0 51.0 L 50.0 51.0 L 49.0 50.666666666666664 L 48.0 50.333333333333336 L 47.333333333333336 50.333333333333336 L 47.0 51.0 L 47.0 52.0 L 47.0 53.0 L 47.0 54.0 L 47.333333333333336 55.0 L 47.666666666666664 56.0 L 48.0 57.0 L 48.0 58.0 L 48.333333333333336 59.0 L 48.666666666666664 60.0 L 49.0 61.0 L 49.0 62.0 L 49.0 63.0 L 49.0 64.0 L 49.333333333333336 65.0 L 49.666666666666664 66.0 L 49.666666666666664 67.0 L 49.333333333333336 68.0 L 49.0 69.0 L 49.0 70.0 L 48.666666666666664 71.0 L 48.0 72.0 L 47.0 73.0 L 46.0 74.0 L 45.0 75.0 L 44.0 76.0 L 43.0 76.66666666666667 L 42.0 77.0 L 41.0 77.0 L 40.0 76.66666666666667 L 39.0 76.33333333333333 L 38.0 76.0 L 37.0 75.66666666666667 L 36.0 75.0 L 35.0 74.0 L 34.0 73.0 L 33.0 72.0 L 32.0 71.0 L 31.333333333333332 70.0 L 30.666666666666668 69.0 L 30.333333333333332 68.0 L 29.666666666666668 67.0 L 29.333333333333332 66.0 L 28.666666666666668 65.33333333333333 L 28.0 65.0 L 27.333333333333332 65.33333333333333 L 27.0 66.0 L 27.0 67.0 L 27.0 68.0 L 27.0 69.0 L 27.0 70.0 L 27.333333333333332 71.0 L 28.0 72.0 L 28.666666666666668 73.0 L 29.333333333333332 74.0 L 30.0 75.0 L 31.0 76.0 L 32.0 77.0 L 33.0 78.0 L 34.0 78.66666666666667 L 35.0 79.33333333333333 L 36.0 79.66666666666667 L 37.0 80.33333333333333 L 38.0 81.0 L 39.0 82.0 L 39.666666666666664 83.0 L 40.0 84.0 L 40.333333333333336 85.0 L 40.666666666666664 86.0 L 41.0 87.0 L 41.0 88.0 L 41.0 89.0 L 41.0 90.0 L 41.0 91.0 L 41.0 92.0 L 40.666666666666664 93.0 L 40.333333333333336 94.0 L 40.0 95.0 L 40.0 96.0 L 40.333333333333336 96.66666666666667 L 41.0 97.0 L 42.0 97.0 L 43.0 96.66666666666667 L 43.666666666666664 96.0 L 44.333333333333336 95.0 L 45.0 94.66666666666667 L 46.0 95.0 L 46.666666666666664 96.0 L 47.333333333333336 97.0 L 48.0 98.0 L 48.666666666666664 99.0 L 49.333333333333336 100.0 L 50.0 101.0 L 51.0 102.0 L 52.0 103.0 L 53.0 104.0 L 54.0 105.0 L 55.0 105.66666666666667 L 56.0 106.33333333333333 L 57.0 106.66666666666667 L 58.0 107.0 L 59.0 107.0 L 60.0 107.0 L 61.0 107.0 L 62.0 107.0 L 62.666666666666664 106.66666666666667 L 63.0 106.0 L 62.666666666666664 105.33333333333333 L 62.0 104.66666666666667 L 61.0 104.33333333333333 L 60.0 104.0 L 59.0 104.0 L 58.0 103.66666666666667 L 57.0 103.0 L 56.0 102.0 L 55.0 101.0 L 54.0 100.0 L 53.0 99.0 L 52.0 98.0 L 51.333333333333336 97.0 L 51.333333333333336 96.0 L 52.0 95.0 L 52.666666666666664 94.0 L 53.0 93.0 L 52.666666666666664 92.33333333333333 L 52.0 91.66666666666667 L 51.0 91.33333333333333 L 50.0 90.66666666666667 L 49.0 90.0 L 48.0 89.0 L 47.0 88.0 L 46.0 87.0 L 45.333333333333336 86.0 L 44.666666666666664 85.0 L 44.333333333333336 84.0 L 44.0 83.0 L 44.0 82.0 L 44.333333333333336 81.0 L 45.0 80.33333333333333 L 46.0 79.66666666666667 L 47.0 79.0 L 48.0 78.0 L 49.0 77.0 L 50.0 76.0 L 50.666666666666664 75.0 L 51.333333333333336 74.0 L 51.666666666666664 73.0 L 52.333333333333336 72.0 L 52.666666666666664 71.0 L 53.0 70.0 L 53.0 69.0 L 53.0 68.0 L 53.0 67.0 L 53.0 66.0 L 53.0 65.0 L 53.333333333333336 64.0 L 53.666666666666664 63.0 L 54.0 62.0 L 53.666666666666664 61.0 L 53.333333333333336 60.0 L 53.0 59.0 L 53.0 58.0 L 53.0 57.0 L 53.0 56.0 L 53.333333333333336 55.0 L 54.0 54.0 L 55.0 53.0 L 56.0 52.333333333333336 L 57.0 51.666666666666664 L 58.0 51.333333333333336 L 59.0 51.0 L 60.0 51.0 L 61.0 51.0 L 62.0 51.0 L 63.0 51.0 L 64.0 51.0 L 65.0 51.0 L 66.0 51.333333333333336 L 67.0 51.666666666666664 L 68.0 52.0 L 69.0 52.333333333333336 L 70.0 53.0 L 71.0 53.666666666666664 L 72.0 54.333333333333336 L 73.0 55.0 L 74.0 56.0 L 75.0 57.0 L 76.0 58.0 L 77.0 59.0 L 78.0 60.0 L 79.0 61.0 L 80.0 62.0 L 81.0 63.0 L 81.66666666666667 64.0 L 82.0 65.0 L 82.0 66.0 L 82.0 67.0 L 82.0 68.0 L 82.0 69.0 L 81.66666666666667 70.0 L 81.33333333333333 71.0 L 80.66666666666667 72.0 L 80.0 73.0 L 79.0 74.0 L 78.33333333333333 75.0 L 77.66666666666667 76.0 L 77.0 77.0 L 76.0 78.0 L 75.33333333333333 79.0 L 75.0 80.0 L 75.33333333333333 80.66666666666667 L 76.0 81.0 L 77.0 81.0 L 78.0 81.0 L 79.0 80.66666666666667 L 80.0 80.66666666666667 L 80.66666666666667 81.0 L 81.0 82.0 L 81.0 83.0 L 81.0 84.0 L 81.0 85.0 L 81.0 86.0 L 81.0 87.0 L 81.0 88.0 L 81.0 89.0 L 81.0 90.0 L 80.66666666666667 91.0 L 80.0 92.0 L 79.33333333333333 93.0 L 79.0 94.0 L 78.66666666666667 95.0 L 78.0 96.0 L 77.0 97.0 L 76.0 98.0 L 75.33333333333333 99.0 L 75.0 100.0 L 75.33333333333333 100.66666666666667 L 76.0 101.0 L 77.0 101.0 L 78.0 101.0 L 79.0 101.0 L 79.66666666666667 100.66666666666667 L 80.33333333333333 100.0 L 81.0 99.0 L 82.0 98.33333333333333 L 83.0 98.33333333333333 L 84.0 99.0 L 85.0 100.0 L 86.0 101.0 L 87.0 101.66666666666667 L 88.0 102.0 L 88.66666666666667 101.66666666666667 L 89.0 101.0 L 88.66666666666667 100.0 L 88.33333333333333 99.0 L 88.0 98.0 L 88.0 97.0 L 88.0 96.0 L 87.66666666666667 95.0 L 87.33333333333333 94.0 L 86.66666666666667 93.0 L 86.33333333333333 92.0 L 85.66666666666667 91.0 L 85.33333333333333 90.0 L 85.0 89.0 L 85.0 88.0 L 85.0 87.0 L 85.0 86.0 L 85.0 85.0 L 85.0 84.0 L 85.0 83.0 L 85.0 82.0 L 85.0 81.0 L 85.0 80.0 L 85.0 79.0 L 85.0 78.0 L 85.0 77.0 L 85.0 76.0 L 85.0 75.0 L 85.0 74.0 L 85.33333333333333 73.0 L 86.0 72.66666666666667 L 87.0 73.0 L 87.66666666666667 74.0 L 88.33333333333333 75.0 L 88.66666666666667 76.0 L 89.0 77.0 L 89.0 78.0 L 89.0 79.0 L 89.0 80.0 L 89.0 81.0 L 89.0 82.0 L 89.33333333333333 83.0 L 90.0 83.66666666666667 L 91.0 83.66666666666667 L 91.66666666666667 83.0 L 92.0 82.0 L 92.0 81.0 L 92.0 80.0 L 92.0 79.0 L 92.0 78.0 L 92.0 77.0 L 92.0 76.0 L 92.0 75.0 L 92.0 74.0 L 92.0 73.0 L 91.66666666666667 72.0 L 91.33333333333333 71.0 L 90.66666666666667 70.0 L 90.33333333333333 69.0 L 89.66666666666667 68.0 L 89.0 67.0 L 88.33333333333333 66.0 L 87.66666666666667 65.0 L 87.0 64.0 L 86.0 63.0 L 85.33333333333333 62.0 L 84.66666666666667 61.0 L 84.33333333333333 60.0 L 83.66666666666667 59.0 L 83.33333333333333 58.0 L 82.66666666666667 57.0 L 82.0 56.0 L 81.0 55.0 L 80.33333333333333 54.0 L 79.66666666666667 53.0 L 79.0 52.0 L 78.0 51.0 L 77.33333333333333 50.0 L 76.66666666666667 49.0 L 76.33333333333333 48.0 L 76.0 47.0 L 76.0 46.0 L 76.33333333333333 45.0 L 76.66666666666667 44.0 L 77.33333333333333 43.0 L 77.66666666666667 42.0 L 78.0 41.0 L 78.33333333333333 40.0 L 79.0 39.0 L 80.0 38.0 L 81.0 37.0 L 82.0 36.0 L 83.0 35.0 L 84.0 34.333333333333336 L 85.0 34.0 L 86.0 33.666666666666664 L 87.0 33.333333333333336 L 88.0 33.0 L 89.0 33.0 L 90.0 32.666666666666664 L 91.0 32.333333333333336 L 92.0 32.0 L 93.0 32.0 L 94.0 32.0 L 95.0 32.0 L 96.0 32.0 L 96.5 32.0 Z" stroke="none" fill="rgb(166,39,20)" />
<path d="M 30.5 69.5 L 30.666666666666668 70.0 L 31.333333333333332 71.0 L 32.0 72.0 L 33.0 73.0 L 34.0 74.0 L 35.0 75.0 L 36.0 75.66666666666667 L 37.0 76.0 L 38.0 76.33333333333333 L 39.0 76.66666666666667 L 40.0 77.0 L 41.0 77.0 L 42.0 77.0 L 43.0 77.0 L 44.0 76.66666666666667 L 45.0 76.0 L 46.0 75.0 L 47.0 74.0 L 48.0 73.0 L 48.666666666666664 72.0 L 49.0 71.0 L 49.0 70.0 L 49.0 69.0 L 48.666666666666664 68.33333333333333 L 48.0 68.0 L 47.0 68.0 L 46.0 67.66666666666667 L 45.0 67.0 L 44.0 66.0 L 43.0 65.0 L 42.333333333333336 64.0 L 41.666666666666664 63.0 L 41.333333333333336 62.0 L 40.666666666666664 61.0 L 40.333333333333336 60.0 L 40.0 59.0 L 40.0 58.0 L 40.0 57.0 L 39.666666666666664 56.0 L 39.333333333333336 55.0 L 39.0 54.0 L 39.0 53.0 L 39.0 52.0 L 39.0 51.0 L 39.0 50.0 L 39.0 49.0 L 39.0 48.0 L 39.0 47.0 L 39.0 46.0 L 39.0 45.0 L 39.0 44.0 L 39.0 43.0 L 39.0 42.0 L 39.0 41.0 L 39.0 40.0 L 39.0 39.0 L 39.0 38.0 L 39.0 37.0 L 39.0 36.0 L 39.0 35.0 L 39.0 34.0 L 39.0 33.0 L 39.0 32.0 L 39.0 31.0 L 38.666666666666664 30.0 L 38.333333333333336 29.0 L 38.0 28.0 L 38.0 27.0 L 38.0 26.0 L 37.666666666666664 25.0 L 37.0 24.333333333333332 L 36.0 24.0 L 35.0 24.333333333333332 L 34.0 24.666666666666668 L 33.0 25.333333333333332 L 32.0 25.666666666666668 L 31.0 26.0 L 30.0 26.0 L 29.333333333333332 26.333333333333332 L 29.0 27.0 L 29.333333333333332 28.0 L 29.666666666666668 29.0 L 30.333333333333332 30.0 L 30.666666666666668 31.0 L 31.333333333333332 32.0 L 31.666666666666668 33.0 L 32.0 34.0 L 32.333333333333336 35.0 L 32.666666666666664 36.0 L 33.0 37.0 L 33.0 38.0 L 33.0 39.0 L 33.0 40.0 L 33.0 41.0 L 33.0 42.0 L 33.0 43.0 L 33.0 44.0 L 32.666666666666664 45.0 L 32.0 46.0 L 31.333333333333332 47.0 L 31.0 48.0 L 30.666666666666668 49.0 L 30.333333333333332 50.0 L 29.666666666666668 51.0 L 29.333333333333332 52.0 L 29.0 53.0 L 28.666666666666668 54.0 L 28.333333333333332 55.0 L 28.0 56.0 L 28.0 57.0 L 28.0 58.0 L 27.666666666666668 59.0 L 27.333333333333332 60.0 L 27.0 61.0 L 27.333333333333332 62.0 L 27.666666666666668 63.0 L 28.0 64.0 L 28.333333333333332 65.0 L 28.666666666666668 66.0 L 29.333333333333332 67.0 L 29.666666666666668 68.0 L 30.0 68.5 Z" stroke="none" fill="rgb(255,106,101)" />
<path d="M 47.0 35.5 L 47.333333333333336 35.0 L 47.666666666666664 34.0 L 48.0 33.0 L 48.333333333333336 32.0 L 48.666666666666664 31.0 L 49.0 30.0 L 49.0 29.0 L 49.0 28.0 L 48.666666666666664 27.333333333333332 L 48.0 27.0 L 47.0 27.0 L 46.0 27.0 L 45.333333333333336 27.333333333333332 L 45.0 28.0 L 45.0 29.0 L 45.0 30.0 L 45.0 31.0 L 45.0 32.0 L 45.0 33.0 L 45.0 34.0 L 45.333333333333336 35.0 L 46.0 35.666666666666664 L 46.5 36.0 Z" stroke="none" fill="rgb(212,51,48)" />
<path d="M 79.5 41.0 L 80.0 41.0 L 81.0 41.0 L 82.0 41.0 L 83.0 41.0 L 83.66666666666667 40.666666666666664 L 84.0 40.0 L 84.33333333333333 39.0 L 84.66666666666667 38.0 L 85.0 37.0 L 85.0 36.0 L 85.0 35.0 L 84.66666666666667 34.333333333333336 L 84.0 34.0 L 83.0 34.333333333333336 L 82.0 35.0 L 81.0 36.0 L 80.0 37.0 L 79.0 38.0 L 78.33333333333333 39.0 L 78.0 40.0 L 78.33333333333333 40.666666666666664 L 78.5 41.0 Z" stroke="none" fill="rgb(244,66,54)" />
<path d="M 23.5 49.0 L 24.0 49.0 L 25.0 49.0 L 26.0 49.0 L 27.0 49.0 L 28.0 48.666666666666664 L 29.0 48.333333333333336 L 30.0 48.0 L 31.0 47.666666666666664 L 32.0 47.0 L 32.666666666666664 46.0 L 33.0 45.0 L 33.0 44.0 L 33.0 43.0 L 33.0 42.0 L 33.0 41.0 L 33.0 40.0 L 33.0 39.0 L 33.0 38.0 L 33.0 37.0 L 33.0 36.0 L 32.666666666666664 35.333333333333336 L 32.0 35.0 L 31.0 35.333333333333336 L 30.0 35.666666666666664 L 29.0 36.333333333333336 L 28.0 36.666666666666664 L 27.0 37.0 L 26.0 37.333333333333336 L 25.0 37.666666666666664 L 24.0 38.0 L 23.0 38.0 L 22.0 38.0 L 21.0 38.0 L 20.0 38.0 L 19.0 37.666666666666664 L 18.0 37.333333333333336 L 17.0 37.0 L 16.0 37.0 L 15.0 37.0 L 14.0 37.333333333333336 L 13.333333333333334 38.0 L 12.666666666666666 39.0 L 12.333333333333334 40.0 L 12.0 41.0 L 12.0 42.0 L 12.0 43.0 L 12.0 44.0 L 12.0 45.0 L 12.0 46.0 L 12.333333333333334 46.666666666666664 L 13.0 47.0 L 14.0 47.333333333333336 L 15.0 47.666666666666664 L 16.0 48.0 L 17.0 48.0 L 18.0 48.333333333333336 L 19.0 48.666666666666664 L 20.0 49.0 L 21.0 49.0 L 22.0 49.0 L 22.5 49.0 Z" stroke="none" fill="rgb(212,51,48)" />
<path d="M 91.5 54.5 L 92.0 54.666666666666664 L 93.0 55.333333333333336 L 94.0 56.0 L 95.0 57.0 L 96.0 57.666666666666664 L 97.0 58.0 L 98.0 58.0 L 98.66666666666667 57.666666666666664 L 99.0 57.0 L 99.0 56.0 L 98.66666666666667 55.0 L 98.33333333333333 54.0 L 98.0 53.0 L 98.0 52.0 L 98.0 51.0 L 97.66666666666667 50.0 L 97.33333333333333 49.0 L 96.66666666666667 48.0 L 96.0 47.0 L 95.0 46.0 L 94.0 45.0 L 93.0 44.0 L 92.0 43.333333333333336 L 91.0 42.666666666666664 L 90.0 42.333333333333336 L 89.0 42.0 L 88.0 41.666666666666664 L 87.0 41.333333333333336 L 86.0 41.0 L 85.0 41.0 L 84.0 41.0 L 83.0 41.0 L 82.0 41.0 L 81.0 41.0 L 80.0 41.0 L 79.0 41.0 L 78.0 41.333333333333336 L 77.33333333333333 42.0 L 76.66666666666667 43.0 L 76.33333333333333 44.0 L 76.0 45.0 L 76.0 46.0 L 76.0 47.0 L 76.0 48.0 L 76.33333333333333 49.0 L 76.66666666666667 50.0 L 77.33333333333333 51.0 L 78.0 52.0 L 79.0 53.0 L 79.66666666666667 54.0 L 80.33333333333333 55.0 L 81.0 55.666666666666664 L 82.0 56.0 L 83.0 55.666666666666664 L 84.0 55.333333333333336 L 85.0 55.0 L 86.0 54.666666666666664 L 87.0 54.333333333333336 L 88.0 54.0 L 89.0 54.0 L 90.0 54.0 L 90.5 54.0 Z" stroke="none" fill="rgb(212,51,48)" />
<path d="M 57.5 66.5 L 58.0 67.0 L 59.0 68.0 L 60.0 69.0 L 61.0 70.0 L 62.0 71.0 L 63.0 72.0 L 64.0 73.0 L 65.0 74.0 L 66.0 75.0 L 67.0 76.0 L 68.0 77.0 L 69.0 78.0 L 69.66666666666667 79.0 L 70.33333333333333 80.0 L 71.0 81.0 L 71.66666666666667 82.0 L 72.33333333333333 83.0 L 72.66666666666667 84.0 L 73.33333333333333 85.0 L 74.0 86.0 L 74.66666666666667 87.0 L 75.33333333333333 88.0 L 75.66666666666667 89.0 L 76.33333333333333 90.0 L 76.66666666666667 91.0 L 77.33333333333333 92.0 L 78.0 92.66666666666667 L 79.0 93.0 L 80.0 92.66666666666667 L 80.66666666666667 92.0 L 81.0 91.0 L 81.0 90.0 L 81.0 89.0 L 81.0 88.0 L 81.0 87.0 L 81.0 86.0 L 81.0 85.0 L 81.0 84.0 L 81.0 83.0 L 81.0 82.0 L 81.0 81.0 L 80.66666666666667 80.33333333333333 L 80.0 80.0 L 79.0 80.33333333333333 L 78.0 80.66666666666667 L 77.0 81.0 L 76.0 80.66666666666667 L 75.66666666666667 80.0 L 76.0 79.0 L 77.0 78.0 L 77.66666666666667 77.0 L 78.33333333333333 76.0 L 79.0 75.0 L 80.0 74.0 L 80.66666666666667 73.0 L 81.33333333333333 72.0 L 81.66666666666667 71.0 L 82.0 70.0 L 82.0 69.0 L 82.0 68.0 L 82.0 67.0 L 82.0 66.0 L 82.0 65.0 L 82.0 64.0 L 81.66666666666667 63.0 L 81.0 62.0 L 80.0 61.0 L 79.0 60.0 L 78.0 59.0 L 77.0 58.0 L 76.0 57.0 L 75.0 56.0 L 74.0 55.0 L 73.0 54.333333333333336 L 72.0 53.666666666666664 L 71.0 53.0 L 70.0 52.333333333333336 L 69.0 52.0 L 68.0 51.666666666666664 L 67.0 51.333333333333336 L 66.0 51.0 L 65.0 51.0 L 64.0 51.0 L 63.0 51.0 L 62.0 51.0 L 61.0 51.0 L 60.0 51.0 L 59.0 51.0 L 58.0 51.0 L 57.0 51.333333333333336 L 56.0 51.666666666666664 L 55.0 52.333333333333336 L 54.0 53.0 L 53.333333333333336 54.0 L 53.0 55.0 L 53.0 56.0 L 53.0 57.0 L 53.0 58.0 L 53.0 59.0 L 53.0 60.0 L 53.333333333333336 61.0 L 53.666666666666664 62.0 L 54.333333333333336 63.0 L 55.0 64.0 L 56.0 65.0 L 56.5 65.5 Z" stroke="none" fill="rgb(254,95,95)" />
<path d="M 84.5 61.5 L 84.66666666666667 62.0 L 85.33333333333333 63.0 L 86.0 64.0 L 87.0 65.0 L 87.66666666666667 66.0 L 88.33333333333333 67.0 L 89.0 68.0 L 89.66666666666667 69.0 L 90.33333333333333 70.0 L 90.66666666666667 71.0 L 91.33333333333333 72.0 L 91.66666666666667 73.0 L 92.0 74.0 L 92.0 75.0 L 92.0 76.0 L 92.0 77.0 L 92.0 78.0 L 92.0 79.0 L 92.0 80.0 L 92.0 81.0 L 91.66666666666667 82.0 L 91.0 82.66666666666667 L 90.0 82.66666666666667 L 89.33333333333333 82.0 L 89.0 81.0 L 89.0 80.0 L 89.0 79.0 L 89.0 78.0 L 89.0 77.0 L 89.0 76.0 L 88.66666666666667 75.0 L 88.33333333333333 74.0 L 87.66666666666667 73.0 L 87.0 72.33333333333333 L 86.0 72.0 L 85.33333333333333 72.33333333333333 L 85.0 73.0 L 85.0 74.0 L 85.0 75.0 L 85.0 76.0 L 85.0 77.0 L 85.0 78.0 L 85.0 79.0 L 85.0 80.0 L 85.0 81.0 L 85.0 82.0 L 85.0 83.0 L 85.0 84.0 L 85.0 85.0 L 85.0 86.0 L 85.0 87.0 L 85.0 88.0 L 85.0 89.0 L 85.0 90.0 L 85.33333333333333 91.0 L 85.66666666666667 92.0 L 86.33333333333333 93.0 L 86.66666666666667 94.0 L 87.33333333333333 94.66666666666667 L 88.0 95.0 L 89.0 95.0 L 90.0 95.0 L 91.0 95.0 L 92.0 94.66666666666667 L 93.0 94.0 L 94.0 93.0 L 95.0 92.0 L 96.0 91.0 L 97.0 90.0 L 98.0 89.0 L 99.0 88.0 L 100.0 87.33333333333333 L 100.66666666666667 86.66666666666667 L 101.33333333333333 86.0 L 101.66666666666667 85.0 L 102.0 84.0 L 102.0 83.0 L 102.0 82.0 L 102.0 81.0 L 102.33333333333333 80.0 L 102.66666666666667 79.0 L 103.0 78.0 L 103.0 77.0 L 103.0 76.0 L 103.0 75.0 L 103.0 74.0 L 103.0 73.0 L 103.0 72.0 L 103.0 71.0 L 103.0 70.0 L 103.0 69.0 L 102.66666666666667 68.0 L 102.33333333333333 67.0 L 102.0 66.0 L 102.0 65.0 L 102.0 64.0 L 101.66666666666667 63.0 L 101.33333333333333 62.0 L 100.66666666666667 61.0 L 100.0 60.0 L 99.0 59.0 L 98.0 58.333333333333336 L 97.0 57.666666666666664 L 96.0 57.0 L 95.0 56.0 L 94.0 55.333333333333336 L 93.0 54.666666666666664 L 92.0 54.333333333333336 L 91.0 54.0 L 90.0 54.0 L 89.0 54.0 L 88.0 54.0 L 87.0 54.0 L 86.0 54.333333333333336 L 85.0 54.666666666666664 L 84.0 55.0 L 83.0 55.333333333333336 L 82.33333333333333 56.0 L 82.33333333333333 57.0 L 82.66666666666667 58.0 L 83.33333333333333 59.0 L 83.66666666666667 60.0 L 84.0 60.5 Z" stroke="none" fill="rgb(254,95,95)" />
<path d="M 59.5 115.5 L 60.0 115.66666666666667 L 61.0 116.33333333333333 L 62.0 116.66666666666667 L 63.0 117.33333333333333 L 64.0 117.66666666666667 L 65.0 118.33333333333333 L 66.0 118.66666666666667 L 67.0 119.0 L 68.0 119.33333333333333 L 69.0 119.66666666666667 L 70.0 120.33333333333333 L 71.0 120.66666666666667 L 72.0 121.33333333333333 L 73.0 121.66666666666667 L 74.0 122.0 L 75.0 122.33333333333333 L 76.0 122.66666666666667 L 77.0 123.0 L 78.0 123.0 L 79.0 123.33333333333333 L 80.0 123.66666666666667 L 81.0 124.0 L 82.0 124.0 L 83.0 124.0 L 84.0 123.66666666666667 L 85.0 123.33333333333333 L 86.0 122.66666666666667 L 87.0 122.0 L 88.0 121.0 L 88.66666666666667 120.0 L 89.0 119.0 L 89.33333333333333 118.0 L 89.66666666666667 117.0 L 90.33333333333333 116.0 L 90.66666666666667 115.0 L 91.33333333333333 114.0 L 91.66666666666667 113.0 L 92.33333333333333 112.0 L 92.66666666666667 111.0 L 93.33333333333333 110.0 L 93.66666666666667 109.0 L 94.0 108.0 L 94.33333333333333 107.0 L 94.66666666666667 106.0 L 95.33333333333333 105.0 L 95.66666666666667 104.0 L 96.0 103.0 L 96.33333333333333 102.0 L 96.66666666666667 101.0 L 97.33333333333333 100.0 L 97.66666666666667 99.0 L 98.0 98.0 L 98.33333333333333 97.0 L 98.66666666666667 96.0 L 99.0 95.0 L 99.33333333333333 94.0 L 99.66666666666667 93.0 L 100.0 92.0 L 100.33333333333333 91.0 L 100.66666666666667 90.0 L 101.0 89.0 L 101.0 88.0 L 100.66666666666667 87.33333333333333 L 100.0 87.0 L 99.0 87.33333333333333 L 98.0 88.0 L 97.0 89.0 L 96.0 90.0 L 95.0 91.0 L 94.0 92.0 L 93.0 93.0 L 92.0 94.0 L 91.0 94.66666666666667 L 90.0 95.0 L 89.0 95.0 L 88.33333333333333 95.33333333333333 L 88.0 96.0 L 88.0 97.0 L 88.0 98.0 L 88.0 99.0 L 87.66666666666667 100.0 L 87.0 100.33333333333333 L 86.0 100.0 L 85.0 99.33333333333333 L 84.0 99.33333333333333 L 83.0 100.0 L 82.0 100.66666666666667 L 81.0 101.0 L 80.0 101.0 L 79.0 101.0 L 78.0 101.0 L 77.0 101.0 L 76.0 100.66666666666667 L 75.66666666666667 100.0 L 76.0 99.0 L 77.0 98.0 L 78.0 97.0 L 78.66666666666667 96.0 L 79.0 95.0 L 79.0 94.0 L 78.66666666666667 93.0 L 78.0 92.0 L 77.33333333333333 91.0 L 76.66666666666667 90.0 L 76.33333333333333 89.0 L 75.66666666666667 88.0 L 75.33333333333333 87.0 L 74.66666666666667 86.0 L 74.0 85.0 L 73.33333333333333 84.0 L 72.66666666666667 83.0 L 72.33333333333333 82.0 L 71.66666666666667 81.0 L 71.0 80.0 L 70.33333333333333 79.0 L 69.66666666666667 78.0 L 69.0 77.0 L 68.0 76.0 L 67.0 75.0 L 66.0 74.0 L 65.0 73.0 L 64.0 72.0 L 63.0 71.0 L 62.0 70.0 L 61.0 69.0 L 60.0 68.0 L 59.0 67.0 L 58.0 66.0 L 57.0 65.0 L 56.0 64.0 L 55.0 63.333333333333336 L 54.0 63.0 L 53.333333333333336 63.333333333333336 L 53.0 64.0 L 53.0 65.0 L 53.0 66.0 L 53.0 67.0 L 53.0 68.0 L 53.0 69.0 L 52.666666666666664 70.0 L 52.333333333333336 71.0 L 51.666666666666664 72.0 L 51.333333333333336 73.0 L 50.666666666666664 74.0 L 50.0 75.0 L 49.0 76.0 L 48.0 77.0 L 47.0 78.0 L 46.0 79.0 L 45.0 79.66666666666667 L 44.333333333333336 80.33333333333333 L 44.0 81.0 L 44.0 82.0 L 44.0 83.0 L 44.0 84.0 L 44.333333333333336 85.0 L 44.666666666666664 86.0 L 45.333333333333336 87.0 L 46.0 88.0 L 47.0 89.0 L 48.0 90.0 L 49.0 90.66666666666667 L 50.0 91.33333333333333 L 51.0 91.66666666666667 L 52.0 92.33333333333333 L 52.333333333333336 93.0 L 52.0 94.0 L 51.333333333333336 95.0 L 51.0 96.0 L 51.0 97.0 L 51.333333333333336 98.0 L 52.0 99.0 L 53.0 100.0 L 54.0 101.0 L 55.0 102.0 L 56.0 103.0 L 57.0 103.66666666666667 L 58.0 104.0 L 59.0 104.0 L 60.0 104.33333333333333 L 61.0 104.66666666666667 L 62.0 105.33333333333333 L 62.333333333333336 106.0 L 62.0 106.66666666666667 L 61.0 107.0 L 60.0 107.0 L 59.0 107.0 L 58.0 106.66666666666667 L 57.0 106.33333333333333 L 56.0 105.66666666666667 L 55.0 105.0 L 54.0 104.0 L 53.0 103.0 L 52.0 102.0 L 51.0 101.0 L 50.0 100.0 L 49.333333333333336 99.0 L 48.666666666666664 98.0 L 48.0 97.0 L 47.333333333333336 96.0 L 46.666666666666664 95.0 L 46.0 94.33333333333333 L 45.0 94.0 L 44.333333333333336 94.33333333333333 L 43.666666666666664 95.0 L 43.0 96.0 L 42.0 96.66666666666667 L 41.0 96.66666666666667 L 40.333333333333336 96.0 L 40.333333333333336 95.0 L 40.666666666666664 94.0 L 41.0 93.0 L 41.0 92.0 L 41.0 91.0 L 41.0 90.0 L 41.0 89.0 L 41.0 88.0 L 41.0 87.0 L 41.0 86.0 L 40.666666666666664 85.0 L 40.333333333333336 84.0 L 40.0 83.0 L 39.666666666666664 82.0 L 39.0 81.0 L 38.0 80.33333333333333 L 37.0 79.66666666666667 L 36.0 79.33333333333333 L 35.0 78.66666666666667 L 34.0 78.0 L 33.0 77.0 L 32.0 76.0 L 31.0 75.0 L 30.0 74.0 L 29.333333333333332 73.0 L 28.666666666666668 72.0 L 28.0 71.33333333333333 L 27.0 71.0 L 26.333333333333332 71.33333333333333 L 26.0 72.0 L 26.0 73.0 L 26.0 74.0 L 26.0 75.0 L 26.0 76.0 L 26.0 77.0 L 26.333333333333332 78.0 L 26.666666666666668 79.0 L 27.0 80.0 L 27.0 81.0 L 27.0 82.0 L 27.333333333333332 83.0 L 27.666666666666668 84.0 L 28.0 85.0 L 28.333333333333332 86.0 L 28.666666666666668 87.0 L 29.333333333333332 88.0 L 29.666666666666668 89.0 L 30.333333333333332 90.0 L 30.666666666666668 91.0 L 31.333333333333332 92.0 L 31.666666666666668 93.0 L 32.333333333333336 94.0 L 33.0 95.0 L 33.666666666666664 96.0 L 34.333333333333336 97.0 L 35.0 98.0 L 36.0 99.0 L 36.666666666666664 100.0 L 37.333333333333336 101.0 L 38.0 102.0 L 39.0 102.66666666666667 L 40.0 103.33333333333333 L 41.0 104.0 L 42.0 105.0 L 43.0 106.0 L 44.0 106.66666666666667 L 45.0 107.33333333333333 L 46.0 108.0 L 47.0 108.66666666666667 L 48.0 109.33333333333333 L 49.0 110.0 L 50.0 110.66666666666667 L 51.0 111.33333333333333 L 52.0 111.66666666666667 L 53.0 112.33333333333333 L 54.0 112.66666666666667 L 55.0 113.33333333333333 L 56.0 113.66666666666667 L 57.0 114.33333333333333 L 58.0 114.66666666666667 L 58.5 115.0 Z" stroke="none" fill="rgb(212,51,48)" />
<path d="M 83.5 100.5 L 83.66666666666667 100.0 L 84.0 99.0 L 83.66666666666667 98.0 L 83.0 97.33333333333333 L 82.0 97.33333333333333 L 81.0 98.0 L 80.33333333333333 99.0 L 80.0 100.0 L 80.33333333333333 100.66666666666667 L 81.0 101.0 L 82.0 101.0 L 82.5 101.0 Z" stroke="none" fill="rgb(254,95,95)" />
</svg>
