<?xml version="1.0" encoding="UTF-8" standalone="no"?>
<!DOCTYPE svg PUBLIC "-//W3C//DTD SVG 1.1//EN"
"http://www.w3.org/Graphics/SVG/1.1/DTD/svg11.dtd">
<svg width="128" height="128" xmlns="http://www.w3.org/2000/svg" version="1.1">
<path d="M 108.5 128.0 L 109.0 128.0 L 110.0 128.0 L 111.0 128.0 L 112.0 128.0 L 113.0 128.0 L 114.0 128.0 L 115.0 128.0 L 116.0 128.0 L 117.0 128.0 L 118.0 128.0 L 119.0 128.0 L 120.0 128.0 L 121.0 128.0 L 122.0 128.0 L 123.0 128.0 L 124.0 128.0 L 125.0 128.0 L 126.0 128.0 L 127.0 128.0 L 127.66666666666667 127.66666666666667 L 128.0 127.0 L 128.0 126.0 L 128.0 125.0 L 128.0 124.0 L 128.0 123.0 L 128.0 122.0 L 128.0 121.0 L 128.0 120.0 L 128.0 119.0 L 128.0 118.0 L 128.0 117.0 L 128.0 116.0 L 128.0 115.0 L 128.0 114.0 L 128.0 113.0 L 128.0 112.0 L 128.0 111.0 L 128.0 110.0 L 128.0 109.0 L 128.0 108.0 L 128.0 107.0 L 128.0 106.0 L 128.0 105.0 L 128.0 104.0 L 128.0 103.0 L 128.0 102.0 L 128.0 101.0 L 128.0 100.0 L 128.0 99.0 L 128.0 98.0 L 128.0 97.0 L 128.0 96.0 L 128.0 95.0 L 128.0 94.0 L 128.0 93.0 L 128.0 92.0 L 128.0 91.0 L 128.0 90.0 L 128.0 89.0 L 128.0 88.0 L 128.0 87.0 L 128.0 86.0 L 128.0 85.0 L 128.0 84.0 L 128.0 83.0 L 128.0 82.0 L 128.0 81.0 L 128.0 80.0 L 128.0 79.0 L 128.0 78.0 L 128.0 77.0 L 128.0 76.0 L 128.0 75.0 L 128.0 74.0 L 128.0 73.0 L 128.0 72.0 L 128.0 71.0 L 128.0 70.0 L 128.0 69.0 L 128.0 68.0 L 128.0 67.0 L 128.0 66.0 L 128.0 65.0 L 128.0 64.0 L 128.0 63.0 L 128.0 62.0 L 128.0 61.0 L 128.0 60.0 L 128.0 59.0 L 128.0 58.0 L 128.0 57.0 L 128.0 56.0 L 128.0 55.0 L 128.0 54.0 L 128.0 53.0 L 128.0 52.0 L 128.0 51.0 L 128.0 50.0 L 128.0 49.0 L 128.0 48.0 L 128.0 47.0 L 128.0 46.0 L 128.0 45.0 L 128.0 44.0 L 128.0 43.0 L 128.0 42.0 L 128.0 41.0 L 128.0 40.0 L 128.0 39.0 L 128.0 38.0 L 128.0 37.0 L 128.0 36.0 L 128.0 35.0 L 128.0 34.0 L 128.0 33.0 L 128.0 32.0 L 128.0 31.0 L 128.0 30.0 L 128.0 29.0 L 128.0 28.0 L 128.0 27.0 L 128.0 26.0 L 128.0 25.0 L 128.0 24.0 L 128.0 23.0 L 128.0 22.0 L 128.0 21.0 L 128.0 20.0 L 128.0 19.0 L 128.0 18.0 L 128.0 17.0 L 128.0 16.0 L 128.0 15.0 L 128.0 14.0 L 128.0 13.0 L 128.0 12.0 L 128.0 11.0 L 128.0 10.0 L 128.0 9.0 L 128.0 8.0 L 128.0 7.0 L 128.0 6.0 L 128.0 5.0 L 128.0 4.0 L 128.0 3.0 L 128.0 2.0 L 128.0 1.0 L 127.66666666666667 0.3333333333333333 L 127.0 0.0 L 126.0 0.0 L 125.0 0.0 L 124.0 0.0 L 123.0 0.0 L 122.0 0.0 L 121.0 0.0 L 120.0 0.0 L 119.0 0.0 L 118.0 0.0 L 117.0 0.0 L 116.0 0.0 L 115.0 0.0 L 114.0 0.0 L 113.0 0.0 L 112.0 0.0 L 111.0 0.0 L 110.0 0.0 L 109.0 0.0 L 108.0 0.0 L 107.0 0.0 L 106.0 0.0 L 105.0 0.0 L 104.0 0.0 L 103.0 0.0 L 102.0 0.0 L 101.0 0.0 L 100.0 0.0 L 99.0 0.0 L 98.0 0.0 L 97.0 0.0 L 96.0 0.0 L 95.0 0.0 L 94.0 0.0 L 93.0 0.0 L 92.0 0.0 L 91.0 0.0 L 90.0 0.0 L 89.0 0.0 L 88.0 0.0 L 87.0 0.0 L 86.0 0.0 L 85.0 0.0 L 84.0 0.0 L 83.0 0.0 L 82.0 0.0 L 81.0 0.0 L 80.0 0.0 L 79.0 0.0 L 78.0 0.0 L 77.0 0.0 L 76.0 0.0 L 75.0 0.0 L 74.0 0.0 L 73.0 0.0 L 72.0 0.0 L 71.0 0.0 L 70.0 0.0 L 69.0 0.0 L 68.0 0.0 L 67.0 0.0 L 66.0 0.0 L 65.0 0.0 L 64.0 0.0 L 63.0 0.0 L 62.0 0.0 L 61.0 0.0 L 60.0 0.0 L 59.0 0.0 L 58.0 0.0 L 57.0 0.0 L 56.0 0.0 L 55.0 0.0 L 54.0 0.0 L 53.0 0.0 L 52.0 0.0 L 51.0 0.0 L 50.0 0.0 L 49.0 0.0 L 48.0 0.0 L 47.0 0.0 L 46.0 0.0 L 45.0 0.0 L 44.0 0.0 L 43.0 0.0 L 42.0 0.0 L 41.0 0.0 L 40.0 0.0 L 39.0 0.0 L 38.0 0.0 L 37.0 0.0 L 36.0 0.0 L 35.0 0.0 L 34.0 0.0 L 33.0 0.0 L 32.0 0.0 L 31.0 0.0 L 30.0 0.0 L 29.0 0.0 L 28.0 0.0 L 27.0 0.0 L 26.0 0.0 L 25.0 0.0 L 24.0 0.0 L 23.0 0.0 L 22.0 0.0 L 21.0 0.0 L 20.0 0.0 L 19.0 0.0 L 18.0 0.0 L 17.0 0.0 L 16.0 0.0 L 15.0 0.0 L 14.0 0.0 L 13.0 0.0 L 12.0 0.0 L 11.0 0.0 L 10.0 0.0 L 9.0 0.0 L 8.0 0.0 L 7.0 0.0 L 6.0 0.0 L 5.0 0.0 L 4.0 0.0 L 3.0 0.0 L 2.0 0.0 L 1.0 0.0 L 0.3333333333333333 0.3333333333333333 L 0.0 1.0 L 0.0 2.0 L 0.0 3.0 L 0.0 4.0 L 0.0 5.0 L 0.0 6.0 L 0.0 7.0 L 0.0 8.0 L 0.0 9.0 L 0.0 10.0 L 0.0 11.0 L 0.0 12.0 L 0.0 13.0 L 0.0 14.0 L 0.0 15.0 L 0.0 16.0 L 0.0 17.0 L 0.0 18.0 L 0.0 19.0 L 0.0 20.0 L 0.0 21.0 L 0.0 22.0 L 0.0 23.0 L 0.0 24.0 L 0.0 25.0 L 0.0 26.0 L 0.0 27.0 L 0.0 28.0 L 0.0 29.0 L 0.0 30.0 L 0.0 31.0 L 0.0 32.0 L 0.0 33.0 L 0.0 34.0 L 0.0 35.0 L 0.0 36.0 L 0.0 37.0 L 0.0 38.0 L 0.0 39.0 L 0.0 40.0 L 0.0 41.0 L 0.0 42.0 L 0.0 43.0 L 0.0 44.0 L 0.0 45.0 L 0.0 46.0 L 0.0 47.0 L 0.0 48.0 L 0.0 49.0 L 0.0 50.0 L 0.0 51.0 L 0.0 52.0 L 0.0 53.0 L 0.0 54.0 L 0.0 55.0 L 0.0 56.0 L 0.0 57.0 L 0.0 58.0 L 0.0 59.0 L 0.0 60.0 L 0.0 61.0 L 0.0 62.0 L 0.0 63.0 L 0.0 64.0 L 0.0 65.0 L 0.0 66.0 L 0.0 67.0 L 0.0 68.0 L 0.0 69.0 L 0.0 70.0 L 0.0 71.0 L 0.0 72.0 L 0.0 73.0 L 0.0 74.0 L 0.0 75.0 L 0.0 76.0 L 0.0 77.0 L 0.0 78.0 L 0.0 79.0 L 0.0 80.0 L 0.0 81.0 L 0.0 82.0 L 0.0 83.0 L 0.0 84.0 L 0.0 85.0 L 0.0 86.0 L 0.0 87.0 L 0.0 88.0 L 0.0 89.0 L 0.0 90.0 L 0.0 91.0 L 0.0 92.0 L 0.0 93.0 L 0.0 94.0 L 0.0 95.0 L 0.0 96.0 L 0.0 97.0 L 0.0 98.0 L 0.0 99.0 L 0.0 100.0 L 0.0 101.0 L 0.0 102.0 L 0.0 103.0 L 0.0 104.0 L 0.0 105.0 L 0.0 106.0 L 0.0 107.0 L 0.0 108.0 L 0.0 109.0 L 0.0 110.0 L 0.0 111.0 L 0.0 112.0 L 0.0 113.0 L 0.0 114.0 L 0.0 115.0 L 0.0 116.0 L 0.0 117.0 L 0.0 118.0 L 0.0 119.0 L 0.0 120.0 L 0.0 121.0 L 0.0 122.0 L 0.0 123.0 L 0.0 124.0 L 0.0 125.0 L 0.0 126.0 L 0.0 127.0 L 0.3333333333333333 127.66666666666667 L 1.0 128.0 L 2.0 128.0 L 3.0 128.0 L 4.0 128.0 L 5.0 128.0 L 6.0 128.0 L 7.0 128.0 L 8.0 128.0 L 9.0 128.0 L 10.0 128.0 L 11.0 128.0 L 12.0 128.0 L 13.0 128.0 L 14.0 128.0 L 15.0 128.0 L 16.0 128.0 L 17.0 128.0 L 18.0 128.0 L 19.0 128.0 L 20.0 128.0 L 21.0 128.0 L 22.0 128.0 L 23.0 128.0 L 24.0 128.0 L 25.0 128.0 L 26.0 128.0 L 27.0 128.0 L 28.0 128.0 L 29.0 128.0 L 30.0 128.0 L 31.0 128.0 L 32.0 128.0 L 33.0 128.0 L 34.0 128.0 L 35.0 128.0 L 36.0 128.0 L 37.0 128.0 L 38.0 128.0 L 39.0 128.0 L 40.0 128.0 L 41.0 128.0 L 42.0 128.0 L 43.0 128.0 L 44.0 128.0 L 45.0 128.0 L 46.0 128.0 L 47.0 128.0 L 48.0 128.0 L 49.0 128.0 L 50.0 128.0 L 51.0 128.0 L 52.0 128.0 L 53.0 128.0 L 54.0 128.0 L 55.0 128.0 L 56.0 128.0 L 57.0 128.0 L 58.0 128.0 L 59.0 128.0 L 60.0 128.0 L 61.0 128.0 L 62.0 128.0 L 63.0 128.0 L 64.0 128.0 L 65.0 128.0 L 66.0 128.0 L 67.0 128.0 L 68.0 128.0 L 69.0 128.0 L 70.0 128.0 L 71.0 128.0 L 72.0 128.0 L 73.0 128.0 L 74.0 128.0 L 75.0 128.0 L 76.0 128.0 L 77.0 128.0 L 78.0 128.0 L 79.0 128.0 L 80.0 128.0 L 81.0 128.0 L 82.0 128.0 L 83.0 128.0 L 84.0 128.0 L 85.0 128.0 L 86.0 128.0 L 87.0 128.0 L 88.0 128.0 L 89.0 128.0 L 90.0 128.0 L 91.0 128.0 L 92.0 128.0 L 93.0 128.0 L 94.0 128.0 L 95.0 128.0 L 96.0 128.0 L 97.0 128.0 L 98.0 128.0 L 99.0 128.0 L 100.0 128.0 L 101.0 128.0 L 102.0 128.0 L 103.0 128.0 L 104.0 128.0 L 105.0 128.0 L 106.0 128.0 L 107.0 128.0 L 107.5 128.0 Z" stroke="none" fill="rgb(0,0,0)" />
<path d="M 105.5 68.5 L 105.66666666666667 68.0 L 106.0 67.0 L 106.33333333333333 66.0 L 107.0 65.0 L 107.66666666666667 64.0 L 108.0 63.0 L 108.0 62.0 L 108.0 61.0 L 108.0 60.0 L 107.66666666666667 59.0 L 107.33333333333333 58.0 L 107.0 57.0 L 107.0 56.0 L 107.0 55.0 L 107.0 54.0 L 106.66666666666667 53.0 L 106.33333333333333 52.0 L 106.33333333333333 51.0 L 106.66666666666667 50.0 L 107.0 49.0 L 107.0 48.0 L 107.0 47.0 L 107.0 46.0 L 107.0 45.0 L 107.0 44.0 L 107.33333333333333 43.0 L 107.66666666666667 42.0 L 108.0 41.0 L 108.0 40.0 L 107.66666666666667 39.0 L 107.0 38.0 L 106.0 37.0 L 105.33333333333333 36.0 L 105.0 35.0 L 104.66666666666667 34.0 L 104.33333333333333 33.0 L 104.0 32.0 L 103.66666666666667 31.0 L 103.33333333333333 30.0 L 102.66666666666667 29.0 L 102.33333333333333 28.0 L 101.66666666666667 27.0 L 101.0 26.0 L 100.33333333333333 25.0 L 99.66666666666667 24.0 L 99.0 23.0 L 98.0 22.0 L 97.33333333333333 21.0 L 96.66666666666667 20.0 L 96.0 19.0 L 95.0 18.333333333333332 L 94.0 17.666666666666668 L 93.0 17.333333333333332 L 92.0 17.333333333333332 L 91.0 17.666666666666668 L 90.0 17.666666666666668 L 89.0 17.0 L 88.0 16.0 L 87.0 15.0 L 86.0 14.0 L 85.0 13.333333333333334 L 84.0 12.666666666666666 L 83.0 12.0 L 82.0 11.333333333333334 L 81.0 10.666666666666666 L 80.0 10.0 L 79.0 9.333333333333334 L 78.0 8.666666666666666 L 77.0 8.333333333333334 L 76.0 7.666666666666667 L 75.0 7.333333333333333 L 74.0 7.0 L 73.0 6.666666666666667 L 72.0 6.333333333333333 L 71.0 6.0 L 70.0 5.666666666666667 L 69.0 5.0 L 68.0 4.333333333333333 L 67.0 4.0 L 66.0 4.0 L 65.0 4.0 L 64.0 4.0 L 63.0 4.333333333333333 L 62.0 4.666666666666667 L 61.0 5.0 L 60.333333333333336 5.333333333333333 L 60.0 6.0 L 60.333333333333336 6.666666666666667 L 61.0 7.0 L 62.0 7.0 L 63.0 7.0 L 64.0 7.0 L 65.0 7.0 L 66.0 7.0 L 67.0 7.333333333333333 L 68.0 7.666666666666667 L 69.0 8.0 L 70.0 8.333333333333334 L 71.0 8.666666666666666 L 72.0 9.333333333333334 L 73.0 9.666666666666666 L 74.0 10.0 L 75.0 10.333333333333334 L 76.0 10.666666666666666 L 77.0 11.333333333333334 L 78.0 12.0 L 79.0 12.666666666666666 L 80.0 13.333333333333334 L 81.0 14.0 L 82.0 15.0 L 83.0 16.0 L 84.0 17.0 L 85.0 18.0 L 86.0 19.0 L 87.0 20.0 L 87.66666666666667 21.0 L 88.33333333333333 21.666666666666668 L 89.0 22.0 L 90.0 21.666666666666668 L 91.0 21.666666666666668 L 92.0 22.0 L 93.0 23.0 L 94.0 24.0 L 95.0 25.0 L 96.0 26.0 L 96.66666666666667 27.0 L 97.33333333333333 28.0 L 98.0 29.0 L 98.66666666666667 30.0 L 99.33333333333333 31.0 L 99.66666666666667 32.0 L 100.33333333333333 33.0 L 100.66666666666667 34.0 L 101.0 35.0 L 101.33333333333333 36.0 L 101.66666666666667 37.0 L 102.0 38.0 L 102.33333333333333 39.0 L 102.66666666666667 40.0 L 103.0 41.0 L 103.0 42.0 L 103.0 43.0 L 103.0 44.0 L 103.0 45.0 L 103.33333333333333 46.0 L 103.66666666666667 47.0 L 104.0 48.0 L 103.66666666666667 49.0 L 103.33333333333333 50.0 L 103.0 51.0 L 103.0 52.0 L 103.0 53.0 L 103.33333333333333 54.0 L 103.66666666666667 55.0 L 104.0 56.0 L 104.0 57.0 L 104.0 58.0 L 104.0 59.0 L 104.0 60.0 L 104.0 61.0 L 104.0 62.0 L 104.0 63.0 L 104.0 64.0 L 103.66666666666667 65.0 L 103.33333333333333 66.0 L 103.0 67.0 L 102.66666666666667 68.0 L 102.33333333333333 69.0 L 102.33333333333333 69.66666666666667 L 103.0 70.0 L 104.0 69.66666666666667 L 104.5 69.5 Z" stroke="none" fill="rgb(58,56,55)" />
<path d="M 72.5 7.0 L 73.0 7.0 L 74.0 7.333333333333333 L 75.0 7.666666666666667 L 76.0 8.333333333333334 L 77.0 8.666666666666666 L 78.0 9.333333333333334 L 79.0 10.0 L 80.0 10.666666666666666 L 81.0 11.333333333333334 L 82.0 12.0 L 83.0 12.666666666666666 L 84.0 13.333333333333334 L 85.0 14.0 L 86.0 15.0 L 87.0 16.0 L 88.0 17.0 L 89.0 18.0 L 90.0 18.666666666666668 L 91.0 18.666666666666668 L 92.0 18.333333333333332 L 93.0 18.0 L 94.0 18.333333333333332 L 95.0 19.0 L 96.0 20.0 L 96.66666666666667 21.0 L 97.33333333333333 22.0 L 98.0 23.0 L 99.0 24.0 L 99.66666666666667 25.0 L 100.33333333333333 26.0 L 101.0 27.0 L 101.66666666666667 28.0 L 102.33333333333333 29.0 L 102.66666666666667 30.0 L 103.33333333333333 31.0 L 103.66666666666667 32.0 L 104.0 33.0 L 104.33333333333333 34.0 L 104.66666666666667 35.0 L 105.0 36.0 L 105.33333333333333 37.0 L 106.0 37.666666666666664 L 106.66666666666667 37.666666666666664 L 107.0 37.0 L 107.0 36.0 L 107.0 35.0 L 107.0 34.0 L 107.0 33.0 L 107.0 32.0 L 106.66666666666667 31.0 L 106.33333333333333 30.0 L 106.0 29.0 L 105.66666666666667 28.0 L 105.33333333333333 27.0 L 105.0 26.0 L 104.66666666666667 25.0 L 104.0 24.0 L 103.33333333333333 23.0 L 102.66666666666667 22.0 L 102.0 21.0 L 101.0 20.333333333333332 L 100.0 19.666666666666668 L 99.0 19.0 L 98.0 18.333333333333332 L 97.0 17.666666666666668 L 96.0 17.0 L 95.0 16.0 L 94.0 15.333333333333334 L 93.0 14.666666666666666 L 92.0 14.0 L 91.33333333333333 13.0 L 90.66666666666667 12.0 L 90.0 11.0 L 89.0 10.0 L 88.0 9.0 L 87.0 8.0 L 86.0 7.333333333333333 L 85.0 6.666666666666667 L 84.0 6.333333333333333 L 83.0 5.666666666666667 L 82.0 5.333333333333333 L 81.0 5.0 L 80.0 5.0 L 79.0 4.666666666666667 L 78.0 4.333333333333333 L 77.0 4.0 L 76.0 4.0 L 75.0 4.0 L 74.0 4.0 L 73.0 4.0 L 72.0 4.0 L 71.0 4.0 L 70.0 4.0 L 69.33333333333333 4.333333333333333 L 69.0 5.0 L 69.33333333333333 5.666666666666667 L 70.0 6.0 L 71.0 6.333333333333333 L 71.5 6.5 Z" stroke="none" fill="rgb(67,65,64)" />
<path d="M 39.5 9.5 L 39.666666666666664 10.0 L 40.333333333333336 11.0 L 41.0 12.0 L 42.0 12.666666666666666 L 43.0 13.333333333333334 L 44.0 13.666666666666666 L 45.0 14.0 L 46.0 14.0 L 47.0 14.0 L 48.0 13.666666666666666 L 49.0 13.333333333333334 L 50.0 13.0 L 51.0 12.666666666666666 L 51.666666666666664 12.0 L 52.0 11.0 L 51.666666666666664 10.333333333333334 L 51.0 10.0 L 50.0 10.333333333333334 L 49.0 10.666666666666666 L 48.0 11.0 L 47.0 11.0 L 46.0 11.0 L 45.0 10.666666666666666 L 44.0 10.0 L 43.0 9.0 L 42.0 8.0 L 41.333333333333336 7.0 L 41.0 6.0 L 40.666666666666664 5.333333333333333 L 40.0 5.0 L 39.0 5.0 L 38.0 5.333333333333333 L 37.333333333333336 6.0 L 37.0 7.0 L 37.0 8.0 L 37.333333333333336 8.666666666666666 L 38.0 9.0 L 38.5 9.0 Z" stroke="none" fill="rgb(58,56,55)" />
<path d="M 37.0 15.5 L 37.0 15.0 L 37.0 14.0 L 37.0 13.0 L 37.0 12.0 L 37.0 11.0 L 37.0 10.0 L 37.0 9.0 L 37.0 8.0 L 37.0 7.0 L 36.666666666666664 6.333333333333333 L 36.0 6.333333333333333 L 35.333333333333336 7.0 L 34.666666666666664 8.0 L 34.333333333333336 9.0 L 34.0 10.0 L 33.666666666666664 11.0 L 33.333333333333336 12.0 L 33.0 13.0 L 33.0 14.0 L 33.0 15.0 L 33.0 16.0 L 33.333333333333336 16.666666666666668 L 34.0 17.0 L 35.0 17.0 L 36.0 16.666666666666668 L 36.5 16.5 Z" stroke="none" fill="rgb(67,65,64)" />
<path d="M 58.5 37.5 L 59.0 37.333333333333336 L 60.0 36.666666666666664 L 61.0 36.333333333333336 L 62.0 35.666666666666664 L 63.0 35.0 L 64.0 34.333333333333336 L 65.0 33.666666666666664 L 66.0 33.333333333333336 L 67.0 33.0 L 68.0 32.666666666666664 L 69.0 32.333333333333336 L 70.0 32.0 L 71.0 32.0 L 72.0 32.0 L 73.0 32.0 L 74.0 32.0 L 75.0 32.0 L 76.0 32.333333333333336 L 77.0 33.0 L 78.0 34.0 L 79.0 35.0 L 80.0 35.666666666666664 L 81.0 36.0 L 82.0 36.0 L 83.0 36.333333333333336 L 84.0 36.666666666666664 L 85.0 37.333333333333336 L 86.0 37.666666666666664 L 87.0 38.333333333333336 L 88.0 39.0 L 89.0 40.0 L 90.0 41.0 L 91.0 42.0 L 91.66666666666667 43.0 L 92.33333333333333 44.0 L 92.66666666666667 45.0 L 93.0 46.0 L 93.0 47.0 L 93.33333333333333 48.0 L 93.66666666666667 49.0 L 94.0 50.0 L 94.0 51.0 L 94.0 52.0 L 94.0 53.0 L 94.0 54.0 L 94.33333333333333 55.0 L 94.66666666666667 56.0 L 95.0 57.0 L 95.0 58.0 L 95.0 59.0 L 95.0 60.0 L 95.0 61.0 L 95.0 62.0 L 95.0 63.0 L 95.33333333333333 64.0 L 96.0 64.66666666666667 L 97.0 65.0 L 97.66666666666667 64.66666666666667 L 98.33333333333333 64.0 L 98.66666666666667 63.0 L 99.33333333333333 62.0 L 99.66666666666667 61.0 L 100.33333333333333 60.0 L 101.0 59.666666666666664 L 101.66666666666667 60.0 L 102.0 61.0 L 102.0 62.0 L 102.0 63.0 L 102.0 64.0 L 101.66666666666667 65.0 L 101.33333333333333 66.0 L 100.66666666666667 67.0 L 100.0 68.0 L 99.0 69.0 L 98.0 70.0 L 97.0 71.0 L 96.33333333333333 72.0 L 96.0 73.0 L 96.33333333333333 73.66666666666667 L 97.0 74.0 L 98.0 74.0 L 99.0 74.0 L 100.0 74.0 L 101.0 74.0 L 101.66666666666667 73.66666666666667 L 102.33333333333333 73.0 L 102.66666666666667 72.0 L 103.0 71.0 L 103.0 70.0 L 103.0 69.0 L 103.0 68.0 L 103.33333333333333 67.0 L 103.66666666666667 66.0 L 104.0 65.0 L 104.0 64.0 L 104.0 63.0 L 104.0 62.0 L 104.0 61.0 L 104.0 60.0 L 104.0 59.0 L 104.0 58.0 L 104.0 57.0 L 104.0 56.0 L 104.0 55.0 L 103.66666666666667 54.0 L 103.33333333333333 53.0 L 103.0 52.0 L 103.33333333333333 51.0 L 103.66666666666667 50.0 L 104.0 49.0 L 104.0 48.0 L 104.0 47.0 L 103.66666666666667 46.0 L 103.33333333333333 45.0 L 103.0 44.0 L 103.0 43.0 L 103.0 42.0 L 103.0 41.0 L 103.0 40.0 L 102.66666666666667 39.0 L 102.33333333333333 38.0 L 102.0 37.0 L 101.66666666666667 36.0 L 101.33333333333333 35.0 L 101.0 34.0 L 100.66666666666667 33.0 L 100.33333333333333 32.0 L 99.66666666666667 31.0 L 99.33333333333333 30.0 L 98.66666666666667 29.0 L 98.0 28.0 L 97.33333333333333 27.0 L 96.66666666666667 26.0 L 96.0 25.0 L 95.0 24.0 L 94.0 23.0 L 93.0 22.0 L 92.0 21.333333333333332 L 91.0 21.0 L 90.0 21.333333333333332 L 89.0 21.333333333333332 L 88.33333333333333 21.0 L 87.66666666666667 20.0 L 87.0 19.0 L 86.0 18.0 L 85.0 17.0 L 84.0 16.0 L 83.0 15.0 L 82.0 14.0 L 81.0 13.333333333333334 L 80.0 12.666666666666666 L 79.0 12.0 L 78.0 11.333333333333334 L 77.0 10.666666666666666 L 76.0 10.333333333333334 L 75.0 10.0 L 74.0 9.666666666666666 L 73.0 9.333333333333334 L 72.0 8.666666666666666 L 71.0 8.333333333333334 L 70.0 8.0 L 69.0 7.666666666666667 L 68.0 7.333333333333333 L 67.0 7.0 L 66.0 7.0 L 65.0 7.0 L 64.0 7.0 L 63.0 7.0 L 62.0 7.0 L 61.0 6.666666666666667 L 60.0 6.333333333333333 L 59.0 6.0 L 58.0 6.0 L 57.0 6.333333333333333 L 56.0 6.666666666666667 L 55.0 7.333333333333333 L 54.0 8.0 L 53.0 9.0 L 52.333333333333336 10.0 L 51.666666666666664 11.0 L 51.0 12.0 L 50.0 12.666666666666666 L 49.0 13.0 L 48.0 13.333333333333334 L 47.0 13.666666666666666 L 46.0 14.0 L 45.0 13.666666666666666 L 44.0 13.333333333333334 L 43.0 12.666666666666666 L 42.0 12.0 L 41.0 11.0 L 40.333333333333336 10.0 L 39.666666666666664 9.0 L 39.0 8.333333333333334 L 38.0 8.333333333333334 L 37.333333333333336 9.0 L 37.0 10.0 L 37.0 11.0 L 37.0 12.0 L 37.0 13.0 L 37.0 14.0 L 37.0 15.0 L 37.333333333333336 16.0 L 37.333333333333336 17.0 L 37.0 17.666666666666668 L 36.0 18.0 L 35.0 18.333333333333332 L 34.0 19.0 L 33.0 20.0 L 32.333333333333336 21.0 L 31.666666666666668 22.0 L 31.333333333333332 23.0 L 31.0 24.0 L 31.0 25.0 L 31.0 26.0 L 31.0 27.0 L 31.0 28.0 L 31.0 29.0 L 31.0 30.0 L 30.666666666666668 31.0 L 30.333333333333332 32.0 L 29.666666666666668 33.0 L 29.333333333333332 34.0 L 28.666666666666668 35.0 L 28.333333333333332 36.0 L 28.0 37.0 L 27.666666666666668 38.0 L 27.333333333333332 39.0 L 27.0 40.0 L 27.0 41.0 L 27.0 42.0 L 27.0 43.0 L 27.0 44.0 L 27.0 45.0 L 27.0 46.0 L 27.0 47.0 L 27.0 48.0 L 27.0 49.0 L 26.666666666666668 50.0 L 26.0 50.666666666666664 L 25.333333333333332 51.333333333333336 L 25.0 52.0 L 25.0 53.0 L 24.666666666666668 54.0 L 24.333333333333332 55.0 L 24.0 56.0 L 24.0 57.0 L 24.0 58.0 L 24.0 59.0 L 24.0 60.0 L 24.0 61.0 L 24.0 62.0 L 24.0 63.0 L 24.333333333333332 64.0 L 25.0 64.66666666666667 L 25.666666666666668 64.66666666666667 L 26.0 64.0 L 26.0 63.0 L 26.0 62.0 L 26.0 61.0 L 26.333333333333332 60.0 L 26.666666666666668 59.0 L 27.0 58.0 L 27.333333333333332 57.0 L 28.0 56.666666666666664 L 28.666666666666668 57.0 L 29.0 58.0 L 29.0 59.0 L 29.0 60.0 L 29.0 61.0 L 29.0 62.0 L 29.333333333333332 63.0 L 29.666666666666668 64.0 L 30.0 65.0 L 30.333333333333332 66.0 L 31.0 66.66666666666667 L 32.0 66.66666666666667 L 32.666666666666664 66.0 L 33.0 65.0 L 33.0 64.0 L 33.333333333333336 63.0 L 33.666666666666664 62.0 L 34.0 61.0 L 34.0 60.0 L 34.333333333333336 59.0 L 34.666666666666664 58.0 L 35.0 57.0 L 35.0 56.0 L 35.0 55.0 L 35.333333333333336 54.0 L 35.666666666666664 53.0 L 36.0 52.0 L 36.0 51.0 L 36.0 50.0 L 36.333333333333336 49.0 L 37.0 48.0 L 38.0 47.333333333333336 L 39.0 47.0 L 40.0 46.666666666666664 L 41.0 46.333333333333336 L 42.0 46.0 L 43.0 45.666666666666664 L 44.0 45.333333333333336 L 45.0 45.0 L 46.0 44.666666666666664 L 47.0 44.333333333333336 L 48.0 43.666666666666664 L 49.0 43.333333333333336 L 50.0 42.666666666666664 L 51.0 42.333333333333336 L 52.0 41.666666666666664 L 53.0 41.333333333333336 L 54.0 40.666666666666664 L 55.0 40.0 L 56.0 39.333333333333336 L 57.0 38.666666666666664 L 57.5 38.5 Z" stroke="none" fill="rgb(49,46,46)" />
<path d="M 5.5 10.5 L 5.666666666666667 10.0 L 6.0 9.0 L 5.666666666666667 8.333333333333334 L 5.0 8.333333333333334 L 4.333333333333333 9.0 L 4.0 10.0 L 4.333333333333333 10.666666666666666 L 4.5 11.0 Z" stroke="none" fill="rgb(146,131,115)" />
<path d="M 4.5 20.0 L 4.666666666666667 19.666666666666668 L 5.0 19.0 L 5.0 18.0 L 5.333333333333333 17.0 L 5.666666666666667 16.0 L 6.333333333333333 15.0 L 6.666666666666667 14.0 L 7.333333333333333 13.0 L 8.0 12.0 L 9.0 11.0 L 10.0 10.333333333333334 L 11.0 10.0 L 12.0 9.666666666666666 L 12.666666666666666 9.0 L 12.666666666666666 8.333333333333334 L 12.0 8.0 L 11.0 8.0 L 10.0 8.0 L 9.0 8.0 L 8.0 8.0 L 7.0 8.333333333333334 L 6.0 9.0 L 5.0 10.0 L 4.333333333333333 11.0 L 4.0 12.0 L 4.0 13.0 L 4.0 14.0 L 4.0 15.0 L 4.0 16.0 L 4.0 17.0 L 4.0 18.0 L 4.0 19.0 L 4.0 19.5 Z" stroke="none" fill="rgb(109,105,102)" />
<path d="M 123.5 15.0 L 123.66666666666667 14.666666666666666 L 124.0 14.0 L 124.0 13.0 L 124.0 12.0 L 124.0 11.0 L 124.0 10.0 L 123.66666666666667 9.0 L 123.0 8.333333333333334 L 122.0 8.0 L 121.0 8.0 L 120.0 8.0 L 119.0 8.0 L 118.0 8.0 L 117.33333333333333 8.333333333333334 L 117.0 9.0 L 117.33333333333333 9.666666666666666 L 118.0 10.333333333333334 L 119.0 10.666666666666666 L 120.0 11.333333333333334 L 121.0 12.0 L 121.66666666666667 13.0 L 122.33333333333333 14.0 L 122.5 14.5 Z" stroke="none" fill="rgb(109,105,102)" />
<path d="M 4.5 47.0 L 4.666666666666667 46.666666666666664 L 5.0 46.0 L 5.0 45.0 L 5.0 44.0 L 5.0 43.0 L 5.0 42.0 L 5.333333333333333 41.0 L 5.666666666666667 40.0 L 6.0 39.0 L 6.0 38.0 L 6.0 37.0 L 6.0 36.0 L 6.0 35.0 L 6.0 34.0 L 6.0 33.0 L 6.0 32.0 L 6.0 31.0 L 6.333333333333333 30.0 L 6.666666666666667 29.0 L 7.0 28.0 L 7.0 27.0 L 7.0 26.0 L 7.0 25.0 L 7.0 24.0 L 7.0 23.0 L 7.0 22.0 L 7.0 21.0 L 7.0 20.0 L 7.333333333333333 19.0 L 7.666666666666667 18.0 L 8.0 17.0 L 8.333333333333334 16.0 L 9.0 15.0 L 10.0 14.0 L 11.0 13.0 L 12.0 12.333333333333334 L 13.0 12.0 L 14.0 12.0 L 15.0 12.0 L 16.0 12.0 L 17.0 12.0 L 18.0 12.0 L 19.0 12.0 L 20.0 12.0 L 21.0 12.0 L 22.0 12.0 L 23.0 12.0 L 24.0 12.0 L 25.0 12.0 L 26.0 12.0 L 27.0 12.0 L 28.0 12.0 L 29.0 12.0 L 30.0 12.0 L 31.0 12.0 L 32.0 12.0 L 33.0 12.0 L 33.666666666666664 11.666666666666666 L 34.0 11.0 L 34.0 10.0 L 33.666666666666664 9.333333333333334 L 33.0 9.0 L 32.0 9.0 L 31.0 9.0 L 30.0 9.0 L 29.0 9.0 L 28.0 9.0 L 27.0 9.0 L 26.0 9.0 L 25.0 9.0 L 24.0 9.0 L 23.0 9.0 L 22.0 9.0 L 21.0 9.0 L 20.0 9.0 L 19.0 9.0 L 18.0 9.0 L 17.0 9.0 L 16.0 9.0 L 15.0 9.0 L 14.0 9.0 L 13.0 9.0 L 12.0 9.333333333333334 L 11.0 9.666666666666666 L 10.0 10.0 L 9.0 10.333333333333334 L 8.0 11.0 L 7.333333333333333 12.0 L 6.666666666666667 13.0 L 6.333333333333333 14.0 L 5.666666666666667 15.0 L 5.333333333333333 16.0 L 5.0 17.0 L 5.0 18.0 L 4.666666666666667 19.0 L 4.333333333333333 20.0 L 4.0 21.0 L 4.0 22.0 L 4.0 23.0 L 4.0 24.0 L 4.0 25.0 L 4.0 26.0 L 4.0 27.0 L 4.0 28.0 L 4.0 29.0 L 4.0 30.0 L 4.0 31.0 L 4.0 32.0 L 4.0 33.0 L 4.0 34.0 L 4.0 35.0 L 4.0 36.0 L 4.0 37.0 L 4.0 38.0 L 4.0 39.0 L 4.0 40.0 L 4.0 41.0 L 4.0 42.0 L 4.0 43.0 L 4.0 44.0 L 4.0 45.0 L 4.0 46.0 L 4.0 46.5 Z" stroke="none" fill="rgb(92,91,90)" />
<path d="M 45.5 11.0 L 46.0 11.0 L 47.0 11.0 L 48.0 11.0 L 49.0 11.0 L 49.666666666666664 10.666666666666666 L 50.0 10.0 L 49.666666666666664 9.333333333333334 L 49.0 9.0 L 48.0 9.0 L 47.0 9.0 L 46.0 9.0 L 45.0 9.0 L 44.333333333333336 9.333333333333334 L 44.0 10.0 L 44.333333333333336 10.666666666666666 L 44.5 11.0 Z" stroke="none" fill="rgb(92,91,90)" />
<path d="M 123.5 32.0 L 123.66666666666667 31.666666666666668 L 124.0 31.0 L 124.0 30.0 L 124.0 29.0 L 124.0 28.0 L 124.0 27.0 L 124.0 26.0 L 124.0 25.0 L 124.0 24.0 L 124.0 23.0 L 124.0 22.0 L 124.0 21.0 L 124.0 20.0 L 124.0 19.0 L 124.0 18.0 L 124.0 17.0 L 124.0 16.0 L 123.66666666666667 15.0 L 123.0 14.0 L 122.33333333333333 13.0 L 121.66666666666667 12.0 L 121.0 11.333333333333334 L 120.0 10.666666666666666 L 119.0 10.333333333333334 L 118.0 9.666666666666666 L 117.0 9.333333333333334 L 116.0 9.0 L 115.0 9.0 L 114.0 9.0 L 113.0 9.0 L 112.0 9.0 L 111.0 9.0 L 110.0 9.0 L 109.0 9.0 L 108.0 9.0 L 107.0 9.0 L 106.0 9.0 L 105.0 9.0 L 104.0 9.0 L 103.0 9.0 L 102.0 9.0 L 101.0 9.0 L 100.0 9.0 L 99.0 9.0 L 98.0 9.0 L 97.0 9.0 L 96.0 9.0 L 95.0 9.0 L 94.0 9.0 L 93.0 9.0 L 92.0 9.0 L 91.0 9.0 L 90.0 9.0 L 89.33333333333333 9.333333333333334 L 89.0 10.0 L 89.33333333333333 11.0 L 90.0 11.666666666666666 L 91.0 12.0 L 92.0 12.0 L 93.0 12.0 L 94.0 12.0 L 95.0 12.0 L 96.0 12.0 L 97.0 12.0 L 98.0 12.0 L 99.0 12.0 L 100.0 12.0 L 101.0 12.0 L 102.0 12.0 L 103.0 12.0 L 104.0 12.0 L 105.0 12.0 L 106.0 12.0 L 107.0 12.0 L 108.0 12.0 L 109.0 12.0 L 110.0 12.0 L 111.0 12.0 L 112.0 12.0 L 113.0 12.0 L 114.0 12.0 L 115.0 12.0 L 116.0 12.0 L 117.0 12.333333333333334 L 118.0 13.0 L 119.0 14.0 L 120.0 15.0 L 120.66666666666667 16.0 L 121.0 17.0 L 121.33333333333333 18.0 L 121.66666666666667 19.0 L 122.0 20.0 L 122.0 21.0 L 122.0 22.0 L 122.0 23.0 L 122.0 24.0 L 122.0 25.0 L 122.0 26.0 L 122.0 27.0 L 122.0 28.0 L 122.0 29.0 L 122.0 30.0 L 122.33333333333333 31.0 L 122.5 31.5 Z" stroke="none" fill="rgb(92,91,90)" />
<path d="M 21.5 16.0 L 22.0 16.0 L 23.0 16.0 L 24.0 16.0 L 25.0 16.0 L 26.0 16.0 L 27.0 16.0 L 28.0 16.0 L 29.0 16.0 L 30.0 16.333333333333332 L 30.666666666666668 17.0 L 31.333333333333332 17.666666666666668 L 32.0 18.0 L 32.666666666666664 17.666666666666668 L 33.0 17.0 L 33.0 16.0 L 33.0 15.0 L 33.0 14.0 L 33.0 13.0 L 32.666666666666664 12.333333333333334 L 32.0 12.0 L 31.0 12.0 L 30.0 12.0 L 29.0 12.0 L 28.0 12.0 L 27.0 12.0 L 26.0 12.0 L 25.0 12.0 L 24.0 12.0 L 23.0 12.0 L 22.0 12.0 L 21.0 12.0 L 20.0 12.0 L 19.0 12.0 L 18.0 12.0 L 17.0 12.0 L 16.0 12.0 L 15.0 12.0 L 14.0 12.0 L 13.0 12.0 L 12.0 12.0 L 11.0 12.333333333333334 L 10.0 13.0 L 9.0 14.0 L 8.333333333333334 15.0 L 8.0 16.0 L 7.666666666666667 17.0 L 7.333333333333333 18.0 L 7.0 19.0 L 7.0 20.0 L 7.0 21.0 L 7.0 22.0 L 7.0 23.0 L 7.0 24.0 L 7.0 25.0 L 7.0 26.0 L 7.0 27.0 L 6.666666666666667 28.0 L 6.333333333333333 29.0 L 6.0 30.0 L 6.0 31.0 L 6.0 32.0 L 6.0 33.0 L 6.0 34.0 L 6.0 35.0 L 6.0 36.0 L 6.0 37.0 L 6.0 38.0 L 5.666666666666667 39.0 L 5.333333333333333 40.0 L 5.0 41.0 L 5.0 42.0 L 5.0 43.0 L 5.0 44.0 L 5.0 45.0 L 4.666666666666667 46.0 L 4.333333333333333 47.0 L 4.0 48.0 L 4.0 49.0 L 4.0 50.0 L 4.0 51.0 L 4.0 52.0 L 4.0 53.0 L 4.0 54.0 L 4.0 55.0 L 4.0 56.0 L 4.0 57.0 L 4.0 58.0 L 4.0 59.0 L 4.0 60.0 L 4.0 61.0 L 4.0 62.0 L 4.0 63.0 L 4.0 64.0 L 4.0 65.0 L 4.0 66.0 L 4.0 67.0 L 4.0 68.0 L 4.0 69.0 L 4.333333333333333 69.66666666666667 L 5.0 70.0 L 5.666666666666667 69.66666666666667 L 6.0 69.0 L 6.0 68.0 L 5.666666666666667 67.0 L 5.333333333333333 66.0 L 5.0 65.0 L 5.0 64.0 L 5.0 63.0 L 5.333333333333333 62.0 L 6.0 61.333333333333336 L 6.666666666666667 60.666666666666664 L 7.0 60.0 L 7.0 59.0 L 7.0 58.0 L 7.0 57.0 L 6.666666666666667 56.0 L 6.333333333333333 55.0 L 6.0 54.0 L 6.0 53.0 L 6.0 52.0 L 6.333333333333333 51.0 L 7.0 50.333333333333336 L 7.666666666666667 49.666666666666664 L 8.0 49.0 L 7.666666666666667 48.0 L 7.333333333333333 47.0 L 7.0 46.0 L 7.0 45.0 L 7.0 44.0 L 7.0 43.0 L 7.0 42.0 L 7.333333333333333 41.0 L 7.666666666666667 40.0 L 8.0 39.0 L 8.0 38.0 L 8.0 37.0 L 8.0 36.0 L 8.0 35.0 L 8.0 34.0 L 8.333333333333334 33.0 L 8.666666666666666 32.0 L 9.0 31.0 L 9.0 30.0 L 9.0 29.0 L 9.0 28.0 L 9.0 27.0 L 9.0 26.0 L 9.0 25.0 L 9.0 24.0 L 9.333333333333334 23.0 L 9.666666666666666 22.0 L 10.0 21.0 L 10.0 20.0 L 10.333333333333334 19.0 L 11.0 18.333333333333332 L 11.666666666666666 17.666666666666668 L 12.333333333333334 17.0 L 13.0 16.333333333333332 L 13.666666666666666 15.666666666666666 L 14.333333333333334 15.0 L 15.0 14.333333333333334 L 16.0 14.333333333333334 L 17.0 15.0 L 18.0 15.666666666666666 L 19.0 16.0 L 20.0 16.0 L 20.5 16.0 Z" stroke="none" fill="rgb(77,77,75)" />
<path d="M 120.5 33.5 L 120.66666666666667 34.0 L 121.0 35.0 L 121.0 36.0 L 121.0 37.0 L 121.0 38.0 L 121.0 39.0 L 121.0 40.0 L 121.33333333333333 41.0 L 121.66666666666667 42.0 L 122.0 43.0 L 122.0 44.0 L 122.0 45.0 L 122.0 46.0 L 122.0 47.0 L 122.0 48.0 L 122.0 49.0 L 122.33333333333333 50.0 L 123.0 50.666666666666664 L 123.66666666666667 50.666666666666664 L 124.0 50.0 L 124.0 49.0 L 124.0 48.0 L 124.0 47.0 L 124.0 46.0 L 124.0 45.0 L 124.0 44.0 L 124.0 43.0 L 124.0 42.0 L 124.0 41.0 L 124.0 40.0 L 124.0 39.0 L 124.0 38.0 L 124.0 37.0 L 124.0 36.0 L 124.0 35.0 L 124.0 34.0 L 124.0 33.0 L 123.66666666666667 32.0 L 123.0 31.0 L 122.33333333333333 30.0 L 122.0 29.0 L 122.0 28.0 L 122.0 27.0 L 122.0 26.0 L 122.0 25.0 L 122.0 24.0 L 122.0 23.0 L 122.0 22.0 L 122.0 21.0 L 122.0 20.0 L 122.0 19.0 L 121.66666666666667 18.0 L 121.33333333333333 17.0 L 121.0 16.0 L 120.66666666666667 15.0 L 120.0 14.0 L 119.0 13.0 L 118.0 12.333333333333334 L 117.0 12.0 L 116.0 12.0 L 115.0 12.0 L 114.0 12.0 L 113.0 12.0 L 112.0 12.0 L 111.0 12.0 L 110.0 12.0 L 109.0 12.0 L 108.0 12.0 L 107.0 12.0 L 106.0 12.0 L 105.0 12.0 L 104.0 12.0 L 103.0 12.0 L 102.0 12.0 L 101.0 12.0 L 100.0 12.0 L 99.0 12.0 L 98.0 12.0 L 97.0 12.0 L 96.0 12.0 L 95.0 12.0 L 94.0 12.0 L 93.0 12.0 L 92.0 12.0 L 91.33333333333333 12.333333333333334 L 91.0 13.0 L 91.33333333333333 14.0 L 92.0 14.666666666666666 L 93.0 15.333333333333334 L 94.0 16.0 L 95.0 17.0 L 96.0 17.666666666666668 L 96.66666666666667 17.666666666666668 L 97.33333333333333 17.0 L 98.0 16.333333333333332 L 99.0 16.0 L 100.0 16.0 L 101.0 16.0 L 102.0 15.666666666666666 L 103.0 15.333333333333334 L 104.0 15.0 L 105.0 15.0 L 106.0 15.0 L 107.0 15.0 L 108.0 15.333333333333334 L 109.0 15.666666666666666 L 110.0 16.0 L 111.0 16.0 L 111.66666666666667 15.666666666666666 L 112.33333333333333 15.0 L 113.0 14.333333333333334 L 114.0 14.333333333333334 L 115.0 14.666666666666666 L 116.0 15.333333333333334 L 117.0 16.0 L 117.66666666666667 17.0 L 118.33333333333333 18.0 L 118.66666666666667 19.0 L 119.0 20.0 L 119.0 21.0 L 119.0 22.0 L 119.0 23.0 L 119.33333333333333 24.0 L 119.66666666666667 25.0 L 120.0 26.0 L 120.0 27.0 L 120.0 28.0 L 120.0 29.0 L 120.0 30.0 L 120.0 31.0 L 120.0 32.0 L 120.0 32.5 Z" stroke="none" fill="rgb(77,77,75)" />
<path d="M 14.5 16.0 L 15.0 16.0 L 16.0 16.0 L 17.0 16.0 L 17.666666666666668 15.666666666666666 L 17.666666666666668 15.0 L 17.0 14.333333333333334 L 16.0 14.0 L 15.0 14.0 L 14.333333333333334 14.333333333333334 L 14.0 15.0 L 14.0 15.5 Z" stroke="none" fill="rgb(67,65,64)" />
<path d="M 122.0 47.5 L 122.0 47.0 L 122.0 46.0 L 122.0 45.0 L 122.0 44.0 L 122.0 43.0 L 122.0 42.0 L 121.66666666666667 41.0 L 121.33333333333333 40.0 L 121.0 39.0 L 121.0 38.0 L 121.0 37.0 L 121.0 36.0 L 121.0 35.0 L 121.0 34.0 L 120.66666666666667 33.0 L 120.33333333333333 32.0 L 120.0 31.0 L 120.0 30.0 L 120.0 29.0 L 120.0 28.0 L 120.0 27.0 L 120.0 26.0 L 120.0 25.0 L 119.66666666666667 24.0 L 119.33333333333333 23.0 L 119.0 22.0 L 119.0 21.0 L 119.0 20.0 L 119.0 19.0 L 118.66666666666667 18.0 L 118.33333333333333 17.0 L 117.66666666666667 16.0 L 117.0 15.333333333333334 L 116.0 14.666666666666666 L 115.0 14.333333333333334 L 114.0 14.0 L 113.0 14.0 L 112.33333333333333 14.333333333333334 L 112.0 15.0 L 112.33333333333333 15.666666666666666 L 113.0 16.0 L 114.0 16.0 L 115.0 16.333333333333332 L 115.66666666666667 17.0 L 116.0 18.0 L 115.66666666666667 19.0 L 115.33333333333333 20.0 L 115.33333333333333 21.0 L 115.66666666666667 22.0 L 116.0 23.0 L 116.33333333333333 24.0 L 116.66666666666667 25.0 L 117.0 26.0 L 117.0 27.0 L 117.0 28.0 L 117.33333333333333 29.0 L 117.66666666666667 30.0 L 118.0 31.0 L 118.0 32.0 L 118.0 33.0 L 118.33333333333333 34.0 L 118.66666666666667 35.0 L 119.0 36.0 L 119.0 37.0 L 119.0 38.0 L 119.0 39.0 L 119.33333333333333 40.0 L 119.66666666666667 41.0 L 120.0 42.0 L 120.0 43.0 L 120.0 44.0 L 120.0 45.0 L 120.0 46.0 L 120.33333333333333 47.0 L 121.0 47.666666666666664 L 121.5 48.0 Z" stroke="none" fill="rgb(67,65,64)" />
<path d="M 107.5 18.0 L 107.66666666666667 17.666666666666668 L 108.33333333333333 17.0 L 108.66666666666667 16.0 L 108.66666666666667 15.333333333333334 L 108.0 15.0 L 107.0 15.0 L 106.0 15.0 L 105.0 15.0 L 104.0 15.0 L 103.0 15.0 L 102.33333333333333 15.333333333333334 L 102.0 16.0 L 102.0 17.0 L 102.33333333333333 17.666666666666668 L 103.0 18.0 L 104.0 18.0 L 105.0 18.0 L 106.0 18.0 L 106.5 18.0 Z" stroke="none" fill="rgb(67,65,64)" />
<path d="M 20.5 20.0 L 21.0 20.0 L 22.0 20.0 L 23.0 20.0 L 24.0 20.0 L 25.0 20.0 L 26.0 20.0 L 27.0 20.0 L 28.0 19.666666666666668 L 29.0 19.0 L 30.0 18.333333333333332 L 30.666666666666668 17.666666666666668 L 31.0 17.0 L 30.666666666666668 16.333333333333332 L 30.0 16.0 L 29.0 16.0 L 28.0 16.0 L 27.0 16.0 L 26.0 16.0 L 25.0 16.0 L 24.0 16.0 L 23.0 16.0 L 22.0 16.0 L 21.0 16.0 L 20.0 16.0 L 19.0 16.0 L 18.0 16.0 L 17.0 16.0 L 16.0 16.0 L 15.0 16.0 L 14.0 16.0 L 13.0 16.0 L 12.333333333333334 16.333333333333332 L 12.0 17.0 L 12.0 18.0 L 12.0 19.0 L 12.333333333333334 19.666666666666668 L 13.0 20.0 L 14.0 20.0 L 15.0 20.0 L 16.0 20.0 L 17.0 20.0 L 18.0 20.0 L 19.0 20.0 L 19.5 20.0 Z" stroke="none" fill="rgb(118,255,3)" />
<path d="M 23.5 69.5 L 24.0 70.0 L 25.0 70.66666666666667 L 25.666666666666668 70.66666666666667 L 26.0 70.0 L 25.666666666666668 69.0 L 25.666666666666668 68.0 L 25.666666666666668 67.0 L 26.0 66.0 L 25.666666666666668 65.0 L 25.0 64.0 L 24.333333333333332 63.0 L 24.0 62.0 L 24.0 61.0 L 24.0 60.0 L 24.0 59.0 L 24.0 58.0 L 24.0 57.0 L 24.333333333333332 56.0 L 24.666666666666668 55.0 L 25.0 54.0 L 25.0 53.0 L 25.333333333333332 52.0 L 26.0 51.333333333333336 L 26.666666666666668 50.666666666666664 L 27.0 50.0 L 27.0 49.0 L 27.0 48.0 L 27.0 47.0 L 27.0 46.0 L 27.0 45.0 L 27.0 44.0 L 27.0 43.0 L 27.0 42.0 L 27.0 41.0 L 27.333333333333332 40.0 L 27.666666666666668 39.0 L 28.0 38.0 L 28.333333333333332 37.0 L 28.666666666666668 36.0 L 29.333333333333332 35.0 L 29.666666666666668 34.0 L 30.333333333333332 33.0 L 30.666666666666668 32.0 L 31.0 31.0 L 31.0 30.0 L 31.0 29.0 L 31.0 28.0 L 31.0 27.0 L 31.0 26.0 L 31.0 25.0 L 31.333333333333332 24.0 L 31.666666666666668 23.0 L 32.333333333333336 22.0 L 33.0 21.0 L 34.0 20.0 L 35.0 19.0 L 36.0 18.333333333333332 L 37.0 18.0 L 37.666666666666664 17.666666666666668 L 38.0 17.0 L 37.666666666666664 16.333333333333332 L 37.0 16.0 L 36.0 16.333333333333332 L 35.0 16.666666666666668 L 34.0 17.0 L 33.0 17.333333333333332 L 32.0 18.0 L 31.0 19.0 L 30.0 20.0 L 29.333333333333332 21.0 L 29.0 22.0 L 28.666666666666668 23.0 L 28.333333333333332 24.0 L 28.0 25.0 L 28.0 26.0 L 28.0 27.0 L 28.0 28.0 L 28.0 29.0 L 28.0 30.0 L 27.666666666666668 31.0 L 27.0 32.0 L 26.333333333333332 33.0 L 25.666666666666668 34.0 L 25.333333333333332 35.0 L 25.0 36.0 L 24.666666666666668 37.0 L 24.333333333333332 38.0 L 24.0 39.0 L 24.0 40.0 L 24.0 41.0 L 24.0 42.0 L 24.0 43.0 L 24.0 44.0 L 24.0 45.0 L 24.0 46.0 L 24.0 47.0 L 23.666666666666668 48.0 L 23.0 49.0 L 22.333333333333332 50.0 L 22.0 51.0 L 22.0 52.0 L 21.666666666666668 53.0 L 21.333333333333332 54.0 L 21.0 55.0 L 21.0 56.0 L 21.0 57.0 L 21.0 58.0 L 21.0 59.0 L 20.666666666666668 60.0 L 20.333333333333332 61.0 L 20.0 62.0 L 20.333333333333332 63.0 L 20.666666666666668 64.0 L 21.333333333333332 65.0 L 21.666666666666668 66.0 L 22.0 67.0 L 22.333333333333332 68.0 L 22.5 68.5 Z" stroke="none" fill="rgb(58,56,55)" />
<path d="M 98.5 19.5 L 99.0 19.666666666666668 L 100.0 20.0 L 101.0 20.0 L 101.66666666666667 19.666666666666668 L 102.0 19.0 L 102.0 18.0 L 102.0 17.0 L 101.66666666666667 16.333333333333332 L 101.0 16.0 L 100.0 16.0 L 99.0 16.0 L 98.0 16.0 L 97.33333333333333 16.333333333333332 L 97.0 17.0 L 97.33333333333333 18.0 L 97.5 18.5 Z" stroke="none" fill="rgb(118,255,3)" />
<path d="M 113.5 20.0 L 114.0 20.0 L 115.0 20.0 L 115.66666666666667 19.666666666666668 L 116.0 19.0 L 116.0 18.0 L 116.0 17.0 L 115.66666666666667 16.333333333333332 L 115.0 16.0 L 114.0 16.0 L 113.0 16.0 L 112.0 16.0 L 111.0 16.0 L 110.0 16.0 L 109.0 16.0 L 108.33333333333333 16.333333333333332 L 108.0 17.0 L 108.0 18.0 L 108.0 19.0 L 108.33333333333333 19.666666666666668 L 109.0 20.0 L 110.0 20.0 L 111.0 20.0 L 112.0 20.0 L 112.5 20.0 Z" stroke="none" fill="rgb(118,255,3)" />
<path d="M 10.0 38.5 L 10.0 38.0 L 10.0 37.0 L 10.0 36.0 L 10.333333333333334 35.0 L 10.666666666666666 34.0 L 11.0 33.0 L 11.0 32.0 L 11.0 31.0 L 11.0 30.0 L 11.333333333333334 29.0 L 11.666666666666666 28.0 L 12.0 27.0 L 12.0 26.0 L 12.333333333333334 25.0 L 12.666666666666666 24.0 L 13.0 23.0 L 13.0 22.0 L 13.0 21.0 L 12.666666666666666 20.0 L 12.333333333333334 19.0 L 11.666666666666666 18.333333333333332 L 11.0 18.0 L 10.333333333333334 18.333333333333332 L 10.0 19.0 L 10.0 20.0 L 9.666666666666666 21.0 L 9.333333333333334 22.0 L 9.0 23.0 L 9.0 24.0 L 9.0 25.0 L 9.0 26.0 L 9.0 27.0 L 9.0 28.0 L 9.0 29.0 L 9.0 30.0 L 8.666666666666666 31.0 L 8.333333333333334 32.0 L 8.0 33.0 L 8.0 34.0 L 8.0 35.0 L 8.0 36.0 L 8.0 37.0 L 8.0 38.0 L 7.666666666666667 39.0 L 7.333333333333333 40.0 L 7.0 41.0 L 7.0 42.0 L 7.0 43.0 L 7.0 44.0 L 7.0 45.0 L 7.0 46.0 L 7.0 47.0 L 7.333333333333333 47.666666666666664 L 8.0 47.666666666666664 L 8.666666666666666 47.0 L 9.0 46.0 L 9.0 45.0 L 9.0 44.0 L 9.0 43.0 L 9.0 42.0 L 9.0 41.0 L 9.333333333333334 40.0 L 9.5 39.5 Z" stroke="none" fill="rgb(67,65,64)" />
<path d="M 23.5 49.5 L 23.666666666666668 49.0 L 24.0 48.0 L 24.0 47.0 L 24.0 46.0 L 24.0 45.0 L 24.0 44.0 L 24.0 43.0 L 24.0 42.0 L 24.0 41.0 L 24.0 40.0 L 24.333333333333332 39.0 L 24.666666666666668 38.0 L 25.0 37.0 L 25.333333333333332 36.0 L 25.666666666666668 35.0 L 26.333333333333332 34.0 L 27.0 33.0 L 27.666666666666668 32.0 L 28.0 31.0 L 28.0 30.0 L 28.0 29.0 L 28.0 28.0 L 28.0 27.0 L 28.0 26.0 L 28.333333333333332 25.0 L 28.666666666666668 24.0 L 29.0 23.0 L 29.333333333333332 22.0 L 30.0 21.0 L 31.0 20.0 L 31.666666666666668 19.0 L 31.666666666666668 18.333333333333332 L 31.0 18.0 L 30.0 18.0 L 29.0 18.333333333333332 L 28.0 19.0 L 27.0 19.666666666666668 L 26.333333333333332 20.333333333333332 L 25.666666666666668 21.0 L 25.333333333333332 22.0 L 24.666666666666668 23.0 L 24.333333333333332 24.0 L 24.0 25.0 L 24.0 26.0 L 23.666666666666668 27.0 L 23.333333333333332 28.0 L 23.0 29.0 L 23.333333333333332 30.0 L 23.666666666666668 31.0 L 24.0 32.0 L 23.666666666666668 33.0 L 23.0 34.0 L 22.333333333333332 35.0 L 21.666666666666668 36.0 L 21.333333333333332 37.0 L 21.0 38.0 L 20.666666666666668 39.0 L 20.333333333333332 40.0 L 20.0 41.0 L 20.0 42.0 L 20.0 43.0 L 20.0 44.0 L 20.333333333333332 45.0 L 20.666666666666668 46.0 L 21.0 47.0 L 21.0 48.0 L 20.666666666666668 49.0 L 20.333333333333332 50.0 L 19.666666666666668 51.0 L 19.333333333333332 52.0 L 19.0 53.0 L 19.0 54.0 L 19.0 55.0 L 19.0 56.0 L 19.0 57.0 L 19.333333333333332 58.0 L 20.0 58.666666666666664 L 20.666666666666668 58.666666666666664 L 21.0 58.0 L 21.0 57.0 L 21.0 56.0 L 21.333333333333332 55.0 L 21.666666666666668 54.0 L 22.0 53.0 L 22.0 52.0 L 22.333333333333332 51.0 L 22.5 50.5 Z" stroke="none" fill="rgb(67,65,64)" />
<path d="M 105.5 28.0 L 106.0 28.0 L 107.0 28.0 L 108.0 28.0 L 109.0 28.0 L 110.0 28.0 L 111.0 28.333333333333332 L 111.66666666666667 29.0 L 112.0 30.0 L 112.0 31.0 L 112.33333333333333 31.666666666666668 L 113.0 32.333333333333336 L 114.0 33.0 L 114.66666666666667 34.0 L 115.33333333333333 35.0 L 115.66666666666667 36.0 L 116.0 37.0 L 116.33333333333333 38.0 L 116.66666666666667 39.0 L 117.0 40.0 L 117.0 41.0 L 117.33333333333333 42.0 L 117.66666666666667 43.0 L 118.0 44.0 L 118.0 45.0 L 118.0 46.0 L 118.33333333333333 47.0 L 118.66666666666667 48.0 L 119.0 49.0 L 119.0 50.0 L 119.0 51.0 L 119.0 52.0 L 119.33333333333333 53.0 L 120.0 53.666666666666664 L 120.66666666666667 53.666666666666664 L 121.0 53.0 L 121.0 52.0 L 121.33333333333333 51.0 L 121.66666666666667 50.0 L 122.0 49.0 L 121.66666666666667 48.0 L 121.0 47.0 L 120.33333333333333 46.0 L 120.0 45.0 L 120.0 44.0 L 120.0 43.0 L 120.0 42.0 L 120.0 41.0 L 119.66666666666667 40.0 L 119.33333333333333 39.0 L 119.0 38.0 L 119.0 37.0 L 119.0 36.0 L 119.0 35.0 L 118.66666666666667 34.0 L 118.33333333333333 33.0 L 118.0 32.0 L 118.0 31.0 L 118.0 30.0 L 117.66666666666667 29.0 L 117.33333333333333 28.0 L 117.0 27.0 L 117.0 26.0 L 117.0 25.0 L 116.66666666666667 24.0 L 116.33333333333333 23.0 L 116.0 22.0 L 115.66666666666667 21.0 L 115.0 20.333333333333332 L 114.0 20.0 L 113.0 20.0 L 112.0 20.0 L 111.0 20.0 L 110.0 20.0 L 109.0 19.666666666666668 L 108.33333333333333 19.0 L 107.66666666666667 18.333333333333332 L 107.0 18.0 L 106.0 18.0 L 105.0 18.0 L 104.0 18.0 L 103.0 18.0 L 102.33333333333333 18.333333333333332 L 101.66666666666667 19.0 L 101.33333333333333 20.0 L 101.33333333333333 21.0 L 102.0 22.0 L 102.66666666666667 23.0 L 103.33333333333333 24.0 L 104.0 25.0 L 104.66666666666667 26.0 L 105.0 27.0 L 105.0 27.5 Z" stroke="none" fill="rgb(58,56,55)" />
<path d="M 21.5 28.0 L 22.0 28.0 L 23.0 28.0 L 23.666666666666668 27.666666666666668 L 24.0 27.0 L 24.0 26.0 L 24.333333333333332 25.0 L 24.666666666666668 24.0 L 25.333333333333332 23.0 L 25.666666666666668 22.0 L 26.0 21.0 L 25.666666666666668 20.333333333333332 L 25.0 20.0 L 24.0 20.0 L 23.0 20.0 L 22.0 20.0 L 21.0 20.0 L 20.0 20.0 L 19.0 20.0 L 18.0 20.0 L 17.0 20.0 L 16.0 20.0 L 15.0 20.0 L 14.0 20.0 L 13.333333333333334 20.333333333333332 L 13.0 21.0 L 13.0 22.0 L 12.666666666666666 23.0 L 12.333333333333334 24.0 L 12.0 25.0 L 12.0 26.0 L 11.666666666666666 27.0 L 11.333333333333334 28.0 L 11.0 29.0 L 11.0 30.0 L 11.0 31.0 L 11.0 32.0 L 10.666666666666666 33.0 L 10.333333333333334 34.0 L 10.0 35.0 L 10.0 36.0 L 10.0 37.0 L 9.666666666666666 38.0 L 9.333333333333334 39.0 L 9.0 40.0 L 9.0 41.0 L 9.0 42.0 L 9.0 43.0 L 9.0 44.0 L 9.0 45.0 L 8.666666666666666 46.0 L 8.333333333333334 47.0 L 8.0 48.0 L 8.0 49.0 L 8.0 50.0 L 8.0 51.0 L 8.0 52.0 L 8.333333333333334 52.666666666666664 L 9.0 52.666666666666664 L 9.666666666666666 52.0 L 10.0 51.0 L 10.0 50.0 L 10.0 49.0 L 10.0 48.0 L 10.0 47.0 L 10.333333333333334 46.0 L 11.0 45.0 L 11.666666666666666 44.0 L 12.0 43.0 L 12.0 42.0 L 12.0 41.0 L 12.0 40.0 L 12.0 39.0 L 12.333333333333334 38.0 L 12.666666666666666 37.0 L 13.0 36.0 L 13.333333333333334 35.0 L 14.0 34.0 L 15.0 33.0 L 16.0 32.333333333333336 L 17.0 32.0 L 18.0 32.0 L 19.0 32.0 L 19.666666666666668 31.666666666666668 L 20.0 31.0 L 20.0 30.0 L 20.333333333333332 29.0 L 20.5 28.5 Z" stroke="none" fill="rgb(58,56,55)" />
<path d="M 23.5 32.0 L 23.666666666666668 31.666666666666668 L 24.0 31.0 L 23.666666666666668 30.0 L 23.333333333333332 29.0 L 22.666666666666668 28.333333333333332 L 22.0 28.0 L 21.0 28.0 L 20.333333333333332 28.333333333333332 L 20.0 29.0 L 20.0 30.0 L 20.0 31.0 L 20.333333333333332 31.666666666666668 L 21.0 32.0 L 22.0 32.0 L 22.5 32.0 Z" stroke="none" fill="rgb(118,255,3)" />
<path d="M 107.5 32.0 L 108.0 32.0 L 109.0 32.0 L 110.0 32.0 L 111.0 32.0 L 111.66666666666667 31.666666666666668 L 112.0 31.0 L 112.0 30.0 L 112.0 29.0 L 111.66666666666667 28.333333333333332 L 111.0 28.0 L 110.0 28.0 L 109.0 28.0 L 108.0 28.0 L 107.0 28.0 L 106.33333333333333 28.333333333333332 L 106.0 29.0 L 106.0 30.0 L 106.33333333333333 31.0 L 106.5 31.5 Z" stroke="none" fill="rgb(118,255,3)" />
<path d="M 19.5 40.0 L 20.0 40.0 L 20.666666666666668 39.666666666666664 L 21.0 39.0 L 21.333333333333332 38.0 L 21.666666666666668 37.0 L 22.333333333333332 36.0 L 23.0 35.0 L 23.666666666666668 34.0 L 24.0 33.0 L 23.666666666666668 32.333333333333336 L 23.0 32.0 L 22.0 32.0 L 21.0 32.0 L 20.0 32.0 L 19.0 32.0 L 18.0 32.0 L 17.0 32.0 L 16.0 32.0 L 15.0 32.333333333333336 L 14.0 33.0 L 13.333333333333334 34.0 L 13.0 35.0 L 12.666666666666666 36.0 L 12.333333333333334 37.0 L 12.0 38.0 L 12.0 39.0 L 12.333333333333334 39.666666666666664 L 13.0 40.0 L 14.0 40.0 L 15.0 40.0 L 16.0 40.0 L 17.0 40.0 L 18.0 40.0 L 18.5 40.0 Z" stroke="none" fill="rgb(49,46,46)" />
<path d="M 59.5 74.0 L 60.0 74.0 L 61.0 74.0 L 62.0 74.0 L 63.0 74.0 L 64.0 74.0 L 65.0 74.0 L 66.0 74.0 L 67.0 74.0 L 68.0 74.0 L 69.0 74.0 L 70.0 74.0 L 71.0 74.0 L 72.0 74.0 L 73.0 74.0 L 74.0 74.0 L 75.0 74.0 L 76.0 74.0 L 77.0 74.0 L 78.0 74.0 L 79.0 74.0 L 80.0 74.0 L 81.0 74.0 L 82.0 74.0 L 83.0 74.0 L 84.0 74.0 L 85.0 74.0 L 86.0 74.0 L 87.0 74.0 L 88.0 74.0 L 89.0 74.0 L 90.0 74.0 L 91.0 74.0 L 92.0 74.0 L 93.0 74.0 L 94.0 74.0 L 95.0 74.0 L 95.66666666666667 73.66666666666667 L 96.33333333333333 73.0 L 96.66666666666667 72.0 L 96.66666666666667 71.0 L 96.66666666666667 70.0 L 96.66666666666667 69.0 L 97.0 68.0 L 97.0 67.0 L 97.0 66.0 L 96.66666666666667 65.0 L 96.0 64.0 L 95.33333333333333 63.0 L 95.0 62.0 L 95.0 61.0 L 95.0 60.0 L 95.0 59.0 L 95.0 58.0 L 95.0 57.0 L 95.0 56.0 L 94.66666666666667 55.0 L 94.33333333333333 54.0 L 94.0 53.0 L 94.0 52.0 L 94.0 51.0 L 94.0 50.0 L 94.0 49.0 L 93.66666666666667 48.0 L 93.33333333333333 47.0 L 93.0 46.0 L 93.0 45.0 L 92.66666666666667 44.0 L 92.33333333333333 43.0 L 91.66666666666667 42.0 L 91.0 41.0 L 90.0 40.0 L 89.0 39.0 L 88.0 38.333333333333336 L 87.0 37.666666666666664 L 86.0 37.333333333333336 L 85.0 36.666666666666664 L 84.0 36.333333333333336 L 83.0 36.0 L 82.0 36.0 L 81.0 35.666666666666664 L 80.0 35.0 L 79.0 34.0 L 78.0 33.0 L 77.0 32.333333333333336 L 76.0 32.0 L 75.0 32.0 L 74.0 32.0 L 73.0 32.0 L 72.0 32.0 L 71.0 32.0 L 70.0 32.0 L 69.0 32.0 L 68.0 32.333333333333336 L 67.0 32.666666666666664 L 66.0 33.0 L 65.0 33.333333333333336 L 64.0 33.666666666666664 L 63.0 34.333333333333336 L 62.0 35.0 L 61.0 35.666666666666664 L 60.0 36.333333333333336 L 59.0 36.666666666666664 L 58.0 37.333333333333336 L 57.0 38.0 L 56.0 38.666666666666664 L 55.0 39.333333333333336 L 54.0 40.0 L 53.0 40.666666666666664 L 52.0 41.333333333333336 L 51.0 41.666666666666664 L 50.0 42.333333333333336 L 49.0 42.666666666666664 L 48.0 43.333333333333336 L 47.0 43.666666666666664 L 46.0 44.333333333333336 L 45.0 44.666666666666664 L 44.0 45.0 L 43.0 45.333333333333336 L 42.0 45.666666666666664 L 41.0 46.0 L 40.0 46.333333333333336 L 39.0 46.666666666666664 L 38.0 47.0 L 37.0 47.333333333333336 L 36.333333333333336 48.0 L 36.0 49.0 L 36.0 50.0 L 36.0 51.0 L 35.666666666666664 52.0 L 35.333333333333336 53.0 L 35.0 54.0 L 35.0 55.0 L 35.0 56.0 L 34.666666666666664 57.0 L 34.333333333333336 58.0 L 34.0 59.0 L 34.0 60.0 L 33.666666666666664 61.0 L 33.333333333333336 62.0 L 33.0 63.0 L 33.0 64.0 L 32.666666666666664 65.0 L 32.333333333333336 66.0 L 32.0 67.0 L 32.0 68.0 L 32.0 69.0 L 32.0 70.0 L 32.0 71.0 L 32.0 72.0 L 32.333333333333336 73.0 L 33.0 73.66666666666667 L 34.0 74.0 L 35.0 74.0 L 36.0 74.0 L 37.0 74.0 L 38.0 74.0 L 39.0 74.0 L 40.0 74.0 L 41.0 74.0 L 42.0 74.0 L 43.0 74.0 L 44.0 74.0 L 45.0 74.0 L 46.0 74.0 L 47.0 74.0 L 48.0 74.0 L 49.0 74.0 L 50.0 74.0 L 51.0 74.0 L 52.0 74.0 L 53.0 74.0 L 54.0 74.0 L 55.0 74.0 L 56.0 74.0 L 57.0 74.0 L 58.0 74.0 L 58.5 74.0 Z" stroke="none" fill="rgb(249,221,189)" />
<path d="M 121.5 66.5 L 121.66666666666667 66.0 L 122.0 65.0 L 122.0 64.0 L 122.0 63.0 L 121.66666666666667 62.0 L 121.0 61.0 L 120.33333333333333 60.0 L 120.0 59.0 L 120.0 58.0 L 120.33333333333333 57.0 L 120.66666666666667 56.0 L 121.0 55.0 L 120.66666666666667 54.0 L 120.0 53.0 L 119.33333333333333 52.0 L 119.0 51.0 L 119.0 50.0 L 119.0 49.0 L 119.0 48.0 L 118.66666666666667 47.0 L 118.33333333333333 46.0 L 118.0 45.0 L 118.0 44.0 L 118.0 43.0 L 117.66666666666667 42.0 L 117.33333333333333 41.0 L 117.0 40.0 L 117.0 39.0 L 116.66666666666667 38.0 L 116.33333333333333 37.0 L 116.0 36.0 L 115.66666666666667 35.0 L 115.33333333333333 34.0 L 114.66666666666667 33.0 L 114.0 32.333333333333336 L 113.0 32.0 L 112.0 32.0 L 111.0 32.0 L 110.0 32.0 L 109.0 32.0 L 108.0 32.0 L 107.33333333333333 32.333333333333336 L 107.0 33.0 L 107.0 34.0 L 107.0 35.0 L 107.0 36.0 L 107.0 37.0 L 107.0 38.0 L 107.33333333333333 39.0 L 108.0 39.666666666666664 L 109.0 40.0 L 110.0 40.0 L 111.0 40.0 L 112.0 40.0 L 113.0 40.0 L 114.0 40.0 L 115.0 40.333333333333336 L 115.66666666666667 41.0 L 116.0 42.0 L 115.66666666666667 43.0 L 115.33333333333333 44.0 L 115.0 45.0 L 115.33333333333333 46.0 L 115.66666666666667 47.0 L 116.0 48.0 L 116.33333333333333 49.0 L 116.66666666666667 50.0 L 117.0 51.0 L 117.0 52.0 L 117.33333333333333 53.0 L 117.66666666666667 54.0 L 118.0 55.0 L 118.0 56.0 L 118.0 57.0 L 118.0 58.0 L 118.33333333333333 59.0 L 118.66666666666667 60.0 L 119.0 61.0 L 119.0 62.0 L 119.0 63.0 L 119.0 64.0 L 119.0 65.0 L 119.33333333333333 66.0 L 120.0 66.66666666666667 L 120.5 67.0 Z" stroke="none" fill="rgb(49,46,46)" />
<path d="M 14.5 44.0 L 15.0 44.0 L 16.0 44.0 L 17.0 44.0 L 18.0 44.0 L 19.0 44.0 L 19.666666666666668 43.666666666666664 L 20.0 43.0 L 20.0 42.0 L 20.0 41.0 L 19.666666666666668 40.333333333333336 L 19.0 40.0 L 18.0 40.0 L 17.0 40.0 L 16.0 40.0 L 15.0 40.0 L 14.0 40.0 L 13.0 40.0 L 12.333333333333334 40.333333333333336 L 12.0 41.0 L 12.0 42.0 L 12.0 43.0 L 12.333333333333334 43.666666666666664 L 13.0 44.0 L 13.5 44.0 Z" stroke="none" fill="rgb(118,255,3)" />
<path d="M 110.5 44.0 L 111.0 44.0 L 112.0 44.0 L 113.0 44.0 L 114.0 44.0 L 115.0 44.0 L 115.66666666666667 43.666666666666664 L 116.0 43.0 L 116.0 42.0 L 116.0 41.0 L 115.66666666666667 40.333333333333336 L 115.0 40.0 L 114.0 40.0 L 113.0 40.0 L 112.0 40.0 L 111.0 40.0 L 110.0 40.0 L 109.0 40.0 L 108.33333333333333 40.333333333333336 L 107.66666666666667 41.0 L 107.33333333333333 42.0 L 107.0 43.0 L 107.33333333333333 43.666666666666664 L 108.0 44.0 L 109.0 44.0 L 109.5 44.0 Z" stroke="none" fill="rgb(118,255,3)" />
<path d="M 8.5 67.0 L 8.666666666666666 66.66666666666667 L 9.333333333333334 66.0 L 9.666666666666666 65.0 L 10.0 64.0 L 10.0 63.0 L 10.0 62.0 L 10.0 61.0 L 10.0 60.0 L 10.333333333333334 59.0 L 10.666666666666666 58.0 L 11.333333333333334 57.0 L 11.666666666666666 56.0 L 12.0 55.0 L 12.0 54.0 L 12.0 53.0 L 12.0 52.0 L 12.0 51.0 L 12.333333333333334 50.0 L 12.666666666666666 49.0 L 13.0 48.0 L 13.333333333333334 47.0 L 13.666666666666666 46.0 L 14.0 45.0 L 13.666666666666666 44.333333333333336 L 13.0 44.0 L 12.0 44.0 L 11.0 44.333333333333336 L 10.333333333333334 45.0 L 10.0 46.0 L 10.0 47.0 L 10.0 48.0 L 10.0 49.0 L 10.0 50.0 L 9.666666666666666 51.0 L 9.333333333333334 52.0 L 9.0 53.0 L 9.0 54.0 L 9.0 55.0 L 9.0 56.0 L 9.0 57.0 L 8.666666666666666 58.0 L 8.333333333333334 59.0 L 8.0 60.0 L 8.0 61.0 L 8.0 62.0 L 8.0 63.0 L 8.0 64.0 L 8.0 65.0 L 8.0 66.0 L 8.0 66.5 Z" stroke="none" fill="rgb(49,46,46)" />
<path d="M 19.5 52.0 L 19.666666666666668 51.666666666666664 L 20.333333333333332 51.0 L 20.666666666666668 50.0 L 21.0 49.0 L 21.0 48.0 L 21.0 47.0 L 21.0 46.0 L 20.666666666666668 45.0 L 20.0 44.333333333333336 L 19.0 44.0 L 18.0 44.0 L 17.0 44.0 L 16.0 44.0 L 15.0 44.0 L 14.333333333333334 44.333333333333336 L 13.666666666666666 45.0 L 13.333333333333334 46.0 L 13.0 47.0 L 12.666666666666666 48.0 L 12.333333333333334 49.0 L 12.0 50.0 L 12.0 51.0 L 12.333333333333334 51.666666666666664 L 13.0 52.0 L 14.0 52.0 L 15.0 52.0 L 16.0 52.0 L 17.0 52.0 L 18.0 52.0 L 18.5 52.0 Z" stroke="none" fill="rgb(39,39,39)" />
<path d="M 107.5 50.5 L 107.66666666666667 51.0 L 108.33333333333333 52.0 L 109.0 52.666666666666664 L 110.0 52.666666666666664 L 111.0 52.333333333333336 L 112.0 52.0 L 113.0 52.333333333333336 L 113.66666666666667 53.0 L 114.33333333333333 54.0 L 114.66666666666667 55.0 L 115.33333333333333 56.0 L 115.66666666666667 57.0 L 116.0 58.0 L 116.0 59.0 L 116.33333333333333 60.0 L 116.66666666666667 61.0 L 117.0 62.0 L 117.0 63.0 L 117.33333333333333 64.0 L 117.66666666666667 65.0 L 118.0 66.0 L 118.0 67.0 L 118.0 68.0 L 118.0 69.0 L 118.33333333333333 70.0 L 119.0 70.66666666666667 L 120.0 70.66666666666667 L 120.66666666666667 70.0 L 121.0 69.0 L 121.0 68.0 L 120.66666666666667 67.0 L 120.0 66.0 L 119.33333333333333 65.0 L 119.0 64.0 L 119.0 63.0 L 119.0 62.0 L 119.0 61.0 L 119.0 60.0 L 118.66666666666667 59.0 L 118.33333333333333 58.0 L 118.0 57.0 L 118.0 56.0 L 118.0 55.0 L 118.0 54.0 L 117.66666666666667 53.0 L 117.33333333333333 52.0 L 117.0 51.0 L 117.0 50.0 L 116.66666666666667 49.0 L 116.33333333333333 48.0 L 116.0 47.0 L 115.66666666666667 46.0 L 115.33333333333333 45.0 L 114.66666666666667 44.333333333333336 L 114.0 44.0 L 113.0 44.0 L 112.0 44.0 L 111.0 44.0 L 110.0 44.0 L 109.0 44.0 L 108.0 44.0 L 107.33333333333333 44.333333333333336 L 107.0 45.0 L 107.0 46.0 L 107.0 47.0 L 107.0 48.0 L 107.0 49.0 L 107.0 49.5 Z" stroke="none" fill="rgb(39,39,39)" />
<path d="M 49.5 51.0 L 50.0 51.0 L 51.0 51.0 L 52.0 51.0 L 53.0 51.0 L 54.0 51.0 L 54.666666666666664 50.666666666666664 L 54.666666666666664 50.0 L 54.0 49.0 L 53.0 48.0 L 52.0 47.333333333333336 L 51.0 47.0 L 50.0 47.0 L 49.0 47.0 L 48.0 47.0 L 47.0 47.0 L 46.0 47.0 L 45.0 47.0 L 44.0 47.333333333333336 L 43.0 47.666666666666664 L 42.0 48.333333333333336 L 41.333333333333336 49.0 L 41.0 50.0 L 41.333333333333336 50.666666666666664 L 42.0 51.0 L 43.0 51.0 L 44.0 51.0 L 45.0 51.0 L 46.0 51.0 L 47.0 51.0 L 48.0 51.0 L 48.5 51.0 Z" stroke="none" fill="rgb(67,65,64)" />
<path d="M 82.5 51.0 L 83.0 51.0 L 84.0 51.0 L 85.0 51.0 L 86.0 51.0 L 86.66666666666667 50.666666666666664 L 87.0 50.0 L 86.66666666666667 49.0 L 86.0 48.0 L 85.0 47.333333333333336 L 84.0 47.0 L 83.0 47.0 L 82.0 47.0 L 81.0 47.0 L 80.0 47.0 L 79.0 47.0 L 78.0 47.0 L 77.0 47.333333333333336 L 76.0 47.666666666666664 L 75.0 48.333333333333336 L 74.33333333333333 49.0 L 74.0 50.0 L 74.33333333333333 50.666666666666664 L 75.0 51.0 L 76.0 51.0 L 77.0 51.0 L 78.0 51.0 L 79.0 51.0 L 80.0 51.0 L 81.0 51.0 L 81.5 51.0 Z" stroke="none" fill="rgb(67,65,64)" />
<path d="M 7.5 55.5 L 8.0 55.333333333333336 L 8.666666666666666 54.666666666666664 L 9.0 54.0 L 8.666666666666666 53.0 L 8.333333333333334 52.0 L 8.0 51.0 L 7.666666666666667 50.333333333333336 L 7.0 50.0 L 6.333333333333333 50.333333333333336 L 6.0 51.0 L 6.0 52.0 L 6.0 53.0 L 6.0 54.0 L 6.0 55.0 L 6.333333333333333 55.666666666666664 L 6.5 56.0 Z" stroke="none" fill="rgb(67,65,64)" />
<path d="M 107.5 59.0 L 108.0 59.0 L 108.66666666666667 58.666666666666664 L 109.0 58.0 L 109.0 57.0 L 109.0 56.0 L 109.0 55.0 L 109.0 54.0 L 109.0 53.0 L 108.66666666666667 52.0 L 108.33333333333333 51.0 L 107.66666666666667 50.333333333333336 L 107.0 50.0 L 106.33333333333333 50.333333333333336 L 106.0 51.0 L 106.0 52.0 L 106.33333333333333 53.0 L 106.66666666666667 54.0 L 107.0 55.0 L 107.0 56.0 L 107.0 57.0 L 107.0 58.0 L 107.0 58.5 Z" stroke="none" fill="rgb(67,65,64)" />
<path d="M 124.0 66.5 L 124.0 66.0 L 124.0 65.0 L 124.0 64.0 L 124.0 63.0 L 124.0 62.0 L 124.0 61.0 L 124.0 60.0 L 124.0 59.0 L 124.0 58.0 L 124.0 57.0 L 124.0 56.0 L 124.0 55.0 L 124.0 54.0 L 124.0 53.0 L 124.0 52.0 L 123.66666666666667 51.0 L 123.0 50.333333333333336 L 122.0 50.0 L 121.33333333333333 50.333333333333336 L 121.0 51.0 L 121.0 52.0 L 121.0 53.0 L 121.0 54.0 L 121.0 55.0 L 121.33333333333333 56.0 L 121.66666666666667 57.0 L 122.0 58.0 L 122.0 59.0 L 122.0 60.0 L 122.0 61.0 L 122.0 62.0 L 122.0 63.0 L 122.0 64.0 L 122.0 65.0 L 122.33333333333333 66.0 L 123.0 66.66666666666667 L 123.5 67.0 Z" stroke="none" fill="rgb(67,65,64)" />
<path d="M 16.5 56.0 L 17.0 56.0 L 18.0 56.0 L 18.666666666666668 55.666666666666664 L 19.0 55.0 L 19.0 54.0 L 19.0 53.0 L 18.666666666666668 52.333333333333336 L 18.0 52.0 L 17.0 52.0 L 16.0 52.0 L 15.0 52.0 L 14.0 52.0 L 13.0 52.0 L 12.333333333333334 52.333333333333336 L 12.0 53.0 L 12.0 54.0 L 12.0 55.0 L 12.333333333333334 55.666666666666664 L 13.0 56.0 L 14.0 56.0 L 15.0 56.0 L 15.5 56.0 Z" stroke="none" fill="rgb(118,255,3)" />
<path d="M 108.5 63.0 L 109.0 63.0 L 110.0 63.0 L 111.0 63.333333333333336 L 112.0 63.666666666666664 L 113.0 64.0 L 114.0 64.0 L 115.0 64.33333333333333 L 115.66666666666667 65.0 L 116.0 66.0 L 115.66666666666667 67.0 L 115.33333333333333 68.0 L 115.33333333333333 69.0 L 115.66666666666667 70.0 L 116.0 71.0 L 116.0 72.0 L 116.0 73.0 L 116.0 74.0 L 115.66666666666667 75.0 L 115.33333333333333 76.0 L 114.66666666666667 77.0 L 114.0 78.0 L 113.0 78.66666666666667 L 112.0 79.0 L 111.0 79.0 L 110.33333333333333 79.33333333333333 L 110.0 80.0 L 110.0 81.0 L 110.0 82.0 L 110.33333333333333 82.66666666666667 L 111.0 83.0 L 112.0 83.0 L 113.0 83.0 L 114.0 82.66666666666667 L 115.0 82.33333333333333 L 116.0 81.66666666666667 L 116.66666666666667 81.0 L 117.33333333333333 80.0 L 117.66666666666667 79.0 L 118.0 78.0 L 118.33333333333333 77.0 L 119.0 76.33333333333333 L 119.66666666666667 75.66666666666667 L 120.0 75.0 L 120.0 74.0 L 120.0 73.0 L 120.0 72.0 L 119.66666666666667 71.0 L 119.0 70.0 L 118.33333333333333 69.0 L 118.0 68.0 L 118.0 67.0 L 118.0 66.0 L 118.0 65.0 L 117.66666666666667 64.0 L 117.33333333333333 63.0 L 117.0 62.0 L 117.0 61.0 L 116.66666666666667 60.0 L 116.33333333333333 59.0 L 116.0 58.0 L 116.0 57.0 L 115.66666666666667 56.0 L 115.33333333333333 55.0 L 114.66666666666667 54.0 L 114.33333333333333 53.0 L 113.66666666666667 52.333333333333336 L 113.0 52.0 L 112.0 52.0 L 111.0 52.0 L 110.0 52.333333333333336 L 109.33333333333333 53.0 L 109.0 54.0 L 109.0 55.0 L 109.0 56.0 L 109.0 57.0 L 108.66666666666667 58.0 L 108.33333333333333 59.0 L 108.0 60.0 L 108.0 61.0 L 108.0 62.0 L 108.0 62.5 Z" stroke="none" fill="rgb(30,30,30)" />
<path d="M 52.0 61.5 L 52.0 61.0 L 52.0 60.0 L 52.0 59.0 L 52.0 58.0 L 52.0 57.0 L 51.666666666666664 56.0 L 51.0 55.0 L 50.0 54.333333333333336 L 49.0 54.0 L 48.0 54.0 L 47.0 54.0 L 46.0 54.0 L 45.0 54.333333333333336 L 44.0 55.0 L 43.333333333333336 56.0 L 43.0 57.0 L 43.0 58.0 L 43.0 59.0 L 43.0 60.0 L 43.333333333333336 61.0 L 44.0 62.0 L 45.0 63.0 L 46.0 63.666666666666664 L 47.0 64.0 L 48.0 64.0 L 49.0 64.0 L 50.0 63.666666666666664 L 51.0 63.0 L 51.5 62.5 Z" stroke="none" fill="rgb(49,46,46)" />
<path d="M 81.5 64.0 L 82.0 64.0 L 83.0 63.666666666666664 L 84.0 63.0 L 84.66666666666667 62.0 L 85.0 61.0 L 85.0 60.0 L 85.0 59.0 L 85.0 58.0 L 85.0 57.0 L 84.66666666666667 56.0 L 84.0 55.0 L 83.0 54.333333333333336 L 82.0 54.0 L 81.0 54.0 L 80.0 54.0 L 79.0 54.0 L 78.0 54.333333333333336 L 77.0 55.0 L 76.33333333333333 56.0 L 76.0 57.0 L 76.0 58.0 L 76.0 59.0 L 76.0 60.0 L 76.33333333333333 61.0 L 77.0 62.0 L 78.0 63.0 L 79.0 63.666666666666664 L 80.0 64.0 L 80.5 64.0 Z" stroke="none" fill="rgb(49,46,46)" />
<path d="M 8.0 61.5 L 8.0 61.0 L 8.333333333333334 60.0 L 8.666666666666666 59.0 L 9.0 58.0 L 9.0 57.0 L 9.0 56.0 L 8.666666666666666 55.333333333333336 L 8.0 55.0 L 7.333333333333333 55.333333333333336 L 7.0 56.0 L 7.0 57.0 L 7.0 58.0 L 7.0 59.0 L 7.0 60.0 L 7.0 61.0 L 7.333333333333333 61.666666666666664 L 7.5 62.0 Z" stroke="none" fill="rgb(58,56,55)" />
<path d="M 11.0 69.5 L 11.333333333333334 69.0 L 11.666666666666666 68.0 L 12.0 67.0 L 12.0 66.0 L 12.0 65.0 L 12.0 64.0 L 12.0 63.0 L 12.0 62.0 L 12.0 61.0 L 12.333333333333334 60.0 L 12.666666666666666 59.0 L 13.0 58.0 L 13.0 57.0 L 12.666666666666666 56.333333333333336 L 12.0 56.0 L 11.333333333333334 56.333333333333336 L 10.666666666666666 57.0 L 10.333333333333334 58.0 L 10.0 59.0 L 10.0 60.0 L 10.0 61.0 L 10.0 62.0 L 10.0 63.0 L 9.666666666666666 64.0 L 9.333333333333334 65.0 L 9.0 66.0 L 9.0 67.0 L 9.0 68.0 L 9.0 69.0 L 9.0 70.0 L 9.333333333333334 70.66666666666667 L 10.0 70.66666666666667 L 10.5 70.5 Z" stroke="none" fill="rgb(39,39,39)" />
<path d="M 17.5 64.0 L 18.0 64.0 L 19.0 64.0 L 20.0 64.0 L 20.666666666666668 63.666666666666664 L 20.666666666666668 63.0 L 20.666666666666668 62.0 L 20.666666666666668 61.0 L 21.0 60.0 L 20.666666666666668 59.0 L 20.0 58.0 L 19.333333333333332 57.0 L 18.666666666666668 56.333333333333336 L 18.0 56.0 L 17.0 56.0 L 16.0 56.0 L 15.0 56.0 L 14.0 56.0 L 13.333333333333334 56.333333333333336 L 13.0 57.0 L 12.666666666666666 58.0 L 12.333333333333334 59.0 L 12.0 60.0 L 12.0 61.0 L 12.0 62.0 L 12.0 63.0 L 12.333333333333334 63.666666666666664 L 13.0 64.0 L 14.0 64.0 L 15.0 64.0 L 16.0 64.0 L 16.5 64.0 Z" stroke="none" fill="rgb(30,30,30)" />
<path d="M 30.5 71.5 L 31.0 71.66666666666667 L 31.666666666666668 71.66666666666667 L 32.0 71.0 L 32.0 70.0 L 32.0 69.0 L 32.0 68.0 L 31.666666666666668 67.0 L 31.0 66.0 L 30.333333333333332 65.0 L 30.0 64.0 L 29.666666666666668 63.0 L 29.333333333333332 62.0 L 29.0 61.0 L 29.0 60.0 L 29.0 59.0 L 29.0 58.0 L 29.0 57.0 L 28.666666666666668 56.333333333333336 L 28.0 56.0 L 27.333333333333332 56.333333333333336 L 27.0 57.0 L 26.666666666666668 58.0 L 26.333333333333332 59.0 L 26.0 60.0 L 26.0 61.0 L 26.0 62.0 L 26.0 63.0 L 26.0 64.0 L 26.0 65.0 L 26.0 66.0 L 26.333333333333332 67.0 L 27.0 68.0 L 28.0 69.0 L 29.0 70.0 L 29.5 70.5 Z" stroke="none" fill="rgb(238,194,141)" />
<path d="M 120.5 61.5 L 121.0 61.666666666666664 L 121.66666666666667 61.666666666666664 L 122.0 61.0 L 122.0 60.0 L 122.0 59.0 L 122.0 58.0 L 122.0 57.0 L 121.66666666666667 56.333333333333336 L 121.0 56.0 L 120.33333333333333 56.333333333333336 L 120.0 57.0 L 120.0 58.0 L 120.0 59.0 L 120.0 60.0 L 120.0 60.5 Z" stroke="none" fill="rgb(58,56,55)" />
<path d="M 98.5 70.5 L 99.0 70.0 L 100.0 69.0 L 100.66666666666667 68.0 L 101.33333333333333 67.0 L 101.66666666666667 66.0 L 102.0 65.0 L 102.0 64.0 L 102.0 63.0 L 102.0 62.0 L 102.0 61.0 L 102.0 60.0 L 101.66666666666667 59.333333333333336 L 101.0 59.0 L 100.33333333333333 59.333333333333336 L 99.66666666666667 60.0 L 99.33333333333333 61.0 L 98.66666666666667 62.0 L 98.33333333333333 63.0 L 97.66666666666667 64.0 L 97.33333333333333 65.0 L 97.0 66.0 L 97.0 67.0 L 96.66666666666667 68.0 L 96.33333333333333 69.0 L 96.0 70.0 L 96.33333333333333 70.66666666666667 L 97.0 71.0 L 97.5 71.0 Z" stroke="none" fill="rgb(238,194,141)" />
<path d="M 8.0 65.5 L 8.0 65.0 L 8.0 64.0 L 8.0 63.0 L 7.666666666666667 62.0 L 7.0 61.333333333333336 L 6.0 61.0 L 5.333333333333333 61.333333333333336 L 5.0 62.0 L 5.0 63.0 L 5.0 64.0 L 5.0 65.0 L 5.0 66.0 L 5.333333333333333 66.66666666666667 L 6.0 66.66666666666667 L 7.0 66.33333333333333 L 7.5 66.0 Z" stroke="none" fill="rgb(67,65,64)" />
<path d="M 106.5 68.0 L 107.0 68.0 L 108.0 68.0 L 109.0 68.0 L 110.0 68.0 L 111.0 68.0 L 112.0 68.0 L 113.0 68.0 L 114.0 68.0 L 115.0 68.0 L 115.66666666666667 67.66666666666667 L 116.0 67.0 L 116.0 66.0 L 116.0 65.0 L 115.66666666666667 64.33333333333333 L 115.0 64.0 L 114.0 64.0 L 113.0 63.666666666666664 L 112.0 63.333333333333336 L 111.0 63.0 L 110.0 63.0 L 109.0 63.0 L 108.0 63.333333333333336 L 107.0 64.0 L 106.33333333333333 65.0 L 106.0 66.0 L 106.0 67.0 L 106.0 67.5 Z" stroke="none" fill="rgb(118,255,3)" />
<path d="M 14.5 68.0 L 15.0 68.0 L 16.0 68.0 L 17.0 68.0 L 18.0 68.0 L 19.0 68.0 L 20.0 68.0 L 21.0 68.0 L 21.666666666666668 67.66666666666667 L 22.0 67.0 L 22.0 66.0 L 21.666666666666668 65.0 L 21.0 64.33333333333333 L 20.0 64.0 L 19.0 64.0 L 18.0 64.0 L 17.0 64.0 L 16.0 64.0 L 15.0 64.0 L 14.0 64.0 L 13.0 64.0 L 12.333333333333334 64.33333333333333 L 12.0 65.0 L 12.0 66.0 L 12.0 67.0 L 12.333333333333334 67.66666666666667 L 13.0 68.0 L 13.5 68.0 Z" stroke="none" fill="rgb(118,255,3)" />
<path d="M 7.0 70.5 L 7.333333333333333 70.0 L 8.0 69.33333333333333 L 8.666666666666666 68.66666666666667 L 9.0 68.0 L 8.666666666666666 67.0 L 8.0 66.33333333333333 L 7.0 66.0 L 6.333333333333333 66.33333333333333 L 6.0 67.0 L 6.0 68.0 L 6.0 69.0 L 6.0 70.0 L 6.333333333333333 70.66666666666667 L 6.5 71.0 Z" stroke="none" fill="rgb(58,56,55)" />
<path d="M 124.0 82.5 L 124.0 82.0 L 124.0 81.0 L 124.0 80.0 L 124.0 79.0 L 124.0 78.0 L 124.0 77.0 L 124.0 76.0 L 124.0 75.0 L 124.0 74.0 L 124.0 73.0 L 124.0 72.0 L 124.0 71.0 L 124.0 70.0 L 124.0 69.0 L 124.0 68.0 L 123.66666666666667 67.0 L 123.0 66.33333333333333 L 122.0 66.0 L 121.33333333333333 66.33333333333333 L 121.0 67.0 L 121.0 68.0 L 121.0 69.0 L 121.33333333333333 70.0 L 121.66666666666667 71.0 L 122.0 72.0 L 122.0 73.0 L 122.0 74.0 L 121.66666666666667 75.0 L 121.33333333333333 76.0 L 121.0 77.0 L 121.0 78.0 L 120.66666666666667 79.0 L 120.33333333333333 80.0 L 120.0 81.0 L 119.66666666666667 82.0 L 119.0 83.0 L 118.0 84.0 L 117.0 85.0 L 116.0 85.66666666666667 L 115.33333333333333 86.33333333333333 L 115.0 87.0 L 115.33333333333333 87.66666666666667 L 116.0 88.0 L 117.0 88.0 L 118.0 88.0 L 118.66666666666667 87.66666666666667 L 119.33333333333333 87.0 L 120.0 86.33333333333333 L 120.66666666666667 85.66666666666667 L 121.33333333333333 85.0 L 122.0 84.0 L 123.0 83.33333333333333 L 123.5 83.0 Z" stroke="none" fill="rgb(58,56,55)" />
<path d="M 26.5 73.5 L 27.0 73.66666666666667 L 28.0 74.0 L 29.0 74.0 L 30.0 74.0 L 31.0 74.0 L 32.0 74.0 L 32.666666666666664 73.66666666666667 L 32.666666666666664 73.0 L 32.0 72.0 L 31.0 71.0 L 30.0 70.0 L 29.0 69.0 L 28.0 68.0 L 27.0 67.33333333333333 L 26.0 67.0 L 25.333333333333332 67.33333333333333 L 25.0 68.0 L 25.333333333333332 69.0 L 25.666666666666668 70.0 L 26.0 71.0 L 26.0 72.0 L 26.0 72.5 Z" stroke="none" fill="rgb(49,46,46)" />
<path d="M 17.5 83.0 L 17.666666666666668 82.66666666666667 L 18.0 82.0 L 18.0 81.0 L 18.0 80.0 L 17.666666666666668 79.33333333333333 L 17.0 79.0 L 16.0 78.66666666666667 L 15.0 78.0 L 14.0 77.0 L 13.333333333333334 76.0 L 13.0 75.0 L 13.0 74.0 L 13.0 73.0 L 13.0 72.0 L 13.0 71.0 L 13.0 70.0 L 13.0 69.0 L 12.666666666666666 68.33333333333333 L 12.0 68.0 L 11.333333333333334 68.33333333333333 L 10.666666666666666 69.0 L 10.333333333333334 70.0 L 10.0 71.0 L 10.0 72.0 L 10.0 73.0 L 10.0 74.0 L 10.0 75.0 L 10.333333333333334 76.0 L 10.666666666666666 77.0 L 11.0 78.0 L 11.333333333333334 79.0 L 11.666666666666666 80.0 L 12.333333333333334 81.0 L 13.0 81.66666666666667 L 14.0 82.33333333333333 L 15.0 82.66666666666667 L 16.0 83.0 L 16.5 83.0 Z" stroke="none" fill="rgb(30,30,30)" />
<path d="M 18.5 79.0 L 18.666666666666668 78.66666666666667 L 19.333333333333332 78.0 L 20.0 77.0 L 21.0 76.33333333333333 L 22.0 75.66666666666667 L 23.0 75.33333333333333 L 24.0 75.0 L 25.0 75.0 L 26.0 75.0 L 26.666666666666668 74.66666666666667 L 27.0 74.0 L 26.666666666666668 73.0 L 26.333333333333332 72.0 L 25.666666666666668 71.0 L 25.0 70.0 L 24.0 69.0 L 23.0 68.33333333333333 L 22.0 68.0 L 21.0 68.0 L 20.0 68.0 L 19.0 68.0 L 18.0 68.0 L 17.0 68.0 L 16.0 68.0 L 15.0 68.0 L 14.0 68.0 L 13.333333333333334 68.33333333333333 L 13.0 69.0 L 13.0 70.0 L 13.0 71.0 L 13.0 72.0 L 13.0 73.0 L 13.0 74.0 L 13.0 75.0 L 13.0 76.0 L 13.333333333333334 77.0 L 14.0 78.0 L 15.0 78.66666666666667 L 16.0 79.0 L 17.0 79.0 L 17.5 79.0 Z" stroke="none" fill="rgb(20,20,20)" />
<path d="M 61.5 72.0 L 62.0 72.0 L 63.0 72.0 L 64.0 72.0 L 65.0 72.0 L 66.0 72.0 L 67.0 71.66666666666667 L 67.66666666666667 71.0 L 68.0 70.0 L 68.0 69.0 L 67.66666666666667 68.33333333333333 L 67.0 68.0 L 66.0 68.0 L 65.0 68.0 L 64.0 68.0 L 63.0 68.0 L 62.0 68.0 L 61.0 68.0 L 60.333333333333336 68.33333333333333 L 60.0 69.0 L 60.0 70.0 L 60.333333333333336 71.0 L 60.5 71.5 Z" stroke="none" fill="rgb(222,170,132)" />
<path d="M 110.5 79.0 L 111.0 79.0 L 112.0 79.0 L 113.0 79.0 L 114.0 78.66666666666667 L 114.66666666666667 78.0 L 115.33333333333333 77.0 L 115.66666666666667 76.0 L 116.0 75.0 L 116.0 74.0 L 116.0 73.0 L 116.0 72.0 L 116.0 71.0 L 116.0 70.0 L 115.66666666666667 69.0 L 115.0 68.33333333333333 L 114.0 68.0 L 113.0 68.0 L 112.0 68.0 L 111.0 68.0 L 110.0 68.0 L 109.0 68.0 L 108.0 68.0 L 107.0 68.0 L 106.0 68.0 L 105.0 68.33333333333333 L 104.0 69.0 L 103.33333333333333 70.0 L 102.66666666666667 71.0 L 102.33333333333333 72.0 L 102.0 73.0 L 102.33333333333333 73.66666666666667 L 103.0 74.0 L 104.0 74.33333333333333 L 105.0 74.66666666666667 L 106.0 75.33333333333333 L 107.0 76.0 L 108.0 77.0 L 109.0 78.0 L 109.5 78.5 Z" stroke="none" fill="rgb(20,20,20)" />
<path d="M 8.5 77.0 L 9.0 76.66666666666667 L 9.666666666666666 76.0 L 10.0 75.0 L 10.0 74.0 L 10.0 73.0 L 10.0 72.0 L 9.666666666666666 71.0 L 9.333333333333334 70.0 L 8.666666666666666 69.33333333333333 L 8.0 69.0 L 7.333333333333333 69.33333333333333 L 7.0 70.0 L 7.0 71.0 L 7.0 72.0 L 7.0 73.0 L 7.0 74.0 L 7.0 75.0 L 7.333333333333333 76.0 L 7.5 76.5 Z" stroke="none" fill="rgb(49,46,46)" />
<path d="M 4.5 80.0 L 5.0 80.33333333333333 L 5.666666666666667 81.0 L 6.0 82.0 L 6.333333333333333 83.0 L 6.666666666666667 84.0 L 7.0 85.0 L 7.333333333333333 86.0 L 8.0 87.0 L 9.0 87.66666666666667 L 10.0 88.0 L 10.666666666666666 87.66666666666667 L 10.666666666666666 87.0 L 10.0 86.0 L 9.333333333333334 85.0 L 8.666666666666666 84.0 L 8.333333333333334 83.0 L 7.666666666666667 82.0 L 7.333333333333333 81.0 L 7.0 80.0 L 7.0 79.0 L 6.666666666666667 78.0 L 6.666666666666667 77.0 L 6.666666666666667 76.0 L 7.0 75.0 L 7.0 74.0 L 7.0 73.0 L 7.0 72.0 L 6.666666666666667 71.0 L 6.0 70.33333333333333 L 5.0 70.0 L 4.333333333333333 70.33333333333333 L 4.0 71.0 L 4.0 72.0 L 4.0 73.0 L 4.0 74.0 L 4.0 75.0 L 4.0 76.0 L 4.0 77.0 L 4.0 78.0 L 4.0 79.0 L 4.0 79.5 Z" stroke="none" fill="rgb(67,65,64)" />
<path d="M 114.5 88.0 L 114.66666666666667 87.66666666666667 L 115.33333333333333 87.0 L 116.0 86.33333333333333 L 117.0 85.66666666666667 L 118.0 85.0 L 119.0 84.0 L 119.66666666666667 83.0 L 120.0 82.0 L 120.33333333333333 81.0 L 120.66666666666667 80.0 L 121.0 79.0 L 121.0 78.0 L 121.33333333333333 77.0 L 121.66666666666667 76.0 L 122.0 75.0 L 122.0 74.0 L 122.0 73.0 L 122.0 72.0 L 122.0 71.0 L 121.66666666666667 70.33333333333333 L 121.0 70.0 L 120.33333333333333 70.33333333333333 L 120.0 71.0 L 120.0 72.0 L 120.0 73.0 L 120.0 74.0 L 120.0 75.0 L 120.0 76.0 L 119.66666666666667 77.0 L 119.33333333333333 78.0 L 119.0 79.0 L 118.66666666666667 80.0 L 118.0 81.0 L 117.33333333333333 82.0 L 116.66666666666667 83.0 L 116.0 83.66666666666667 L 115.0 84.33333333333333 L 114.0 84.66666666666667 L 113.0 85.0 L 112.0 85.0 L 111.0 85.0 L 110.33333333333333 85.33333333333333 L 110.0 86.0 L 110.33333333333333 87.0 L 111.0 87.66666666666667 L 112.0 88.0 L 113.0 88.0 L 113.5 88.0 Z" stroke="none" fill="rgb(49,46,46)" />
<path d="M 59.5 86.0 L 60.0 86.0 L 61.0 86.0 L 62.0 86.0 L 63.0 86.0 L 64.0 86.0 L 65.0 86.0 L 66.0 86.0 L 67.0 86.0 L 68.0 86.0 L 69.0 86.0 L 70.0 86.0 L 71.0 86.0 L 72.0 86.0 L 73.0 86.0 L 74.0 86.0 L 75.0 86.0 L 76.0 86.0 L 77.0 86.0 L 78.0 86.0 L 79.0 86.0 L 80.0 86.0 L 81.0 86.0 L 82.0 86.0 L 83.0 86.0 L 84.0 86.0 L 85.0 86.0 L 86.0 86.0 L 87.0 86.0 L 88.0 86.0 L 89.0 86.0 L 90.0 86.0 L 91.0 86.0 L 92.0 86.0 L 93.0 86.0 L 94.0 86.0 L 95.0 86.0 L 96.0 86.0 L 97.0 86.0 L 98.0 86.0 L 99.0 86.0 L 100.0 86.0 L 101.0 86.0 L 102.0 86.0 L 103.0 86.0 L 104.0 86.0 L 105.0 86.0 L 106.0 86.0 L 107.0 86.0 L 108.0 86.0 L 109.0 86.0 L 109.66666666666667 85.66666666666667 L 110.0 85.0 L 110.0 84.0 L 110.0 83.0 L 110.0 82.0 L 110.0 81.0 L 110.0 80.0 L 110.0 79.0 L 109.66666666666667 78.0 L 109.0 77.0 L 108.0 76.0 L 107.0 75.33333333333333 L 106.0 74.66666666666667 L 105.0 74.33333333333333 L 104.0 74.0 L 103.0 74.0 L 102.0 74.0 L 101.0 74.0 L 100.0 74.0 L 99.0 74.0 L 98.0 74.0 L 97.0 74.0 L 96.0 74.0 L 95.0 74.0 L 94.0 74.0 L 93.0 74.0 L 92.0 74.0 L 91.0 74.0 L 90.0 74.0 L 89.0 74.0 L 88.0 74.0 L 87.0 74.0 L 86.0 74.0 L 85.0 74.0 L 84.0 74.0 L 83.0 74.0 L 82.0 74.0 L 81.0 74.0 L 80.0 74.0 L 79.0 74.0 L 78.0 74.0 L 77.0 74.0 L 76.0 74.0 L 75.0 74.0 L 74.0 74.0 L 73.0 74.0 L 72.0 74.0 L 71.0 74.0 L 70.0 74.0 L 69.0 74.0 L 68.0 74.0 L 67.0 74.0 L 66.0 74.0 L 65.0 74.0 L 64.0 74.0 L 63.0 74.0 L 62.0 74.0 L 61.0 74.0 L 60.0 74.0 L 59.0 74.0 L 58.0 74.0 L 57.0 74.0 L 56.0 74.0 L 55.0 74.0 L 54.0 74.0 L 53.0 74.0 L 52.0 74.0 L 51.0 74.0 L 50.0 74.0 L 49.0 74.0 L 48.0 74.0 L 47.0 74.0 L 46.0 74.0 L 45.0 74.0 L 44.0 74.0 L 43.0 74.0 L 42.0 74.0 L 41.0 74.0 L 40.0 74.0 L 39.0 74.0 L 38.0 74.0 L 37.0 74.0 L 36.0 74.0 L 35.0 74.0 L 34.0 74.0 L 33.0 74.0 L 32.0 74.0 L 31.0 74.0 L 30.0 74.0 L 29.0 74.0 L 28.0 74.0 L 27.0 74.33333333333333 L 26.0 74.66666666666667 L 25.0 75.0 L 24.0 75.0 L 23.0 75.0 L 22.0 75.33333333333333 L 21.0 75.66666666666667 L 20.0 76.33333333333333 L 19.333333333333332 77.0 L 18.666666666666668 78.0 L 18.333333333333332 79.0 L 18.0 80.0 L 18.0 81.0 L 18.0 82.0 L 18.0 83.0 L 18.0 84.0 L 18.0 85.0 L 18.333333333333332 85.66666666666667 L 19.0 86.0 L 20.0 86.0 L 21.0 86.0 L 22.0 86.0 L 23.0 86.0 L 24.0 86.0 L 25.0 86.0 L 26.0 86.0 L 27.0 86.0 L 28.0 86.0 L 29.0 86.0 L 30.0 86.0 L 31.0 86.0 L 32.0 86.0 L 33.0 86.0 L 34.0 86.0 L 35.0 86.0 L 36.0 86.0 L 37.0 86.0 L 38.0 86.0 L 39.0 86.0 L 40.0 86.0 L 41.0 86.0 L 42.0 86.0 L 43.0 86.0 L 44.0 86.0 L 45.0 86.0 L 46.0 86.0 L 47.0 86.0 L 48.0 86.0 L 49.0 86.0 L 50.0 86.0 L 51.0 86.0 L 52.0 86.0 L 53.0 86.0 L 54.0 86.0 L 55.0 86.0 L 56.0 86.0 L 57.0 86.0 L 58.0 86.0 L 58.5 86.0 Z" stroke="none" fill="rgb(70,206,224)" />
<path d="M 13.5 88.0 L 13.666666666666666 87.66666666666667 L 13.666666666666666 87.0 L 13.0 86.0 L 12.0 85.0 L 11.0 84.0 L 10.0 83.0 L 9.333333333333334 82.0 L 8.666666666666666 81.0 L 8.666666666666666 80.0 L 8.666666666666666 79.0 L 9.0 78.0 L 8.666666666666666 77.0 L 8.0 76.33333333333333 L 7.0 76.0 L 6.333333333333333 76.33333333333333 L 6.0 77.0 L 6.333333333333333 78.0 L 6.666666666666667 79.0 L 7.0 80.0 L 7.0 81.0 L 7.333333333333333 82.0 L 7.666666666666667 83.0 L 8.333333333333334 84.0 L 8.666666666666666 85.0 L 9.333333333333334 86.0 L 10.0 87.0 L 11.0 87.66666666666667 L 12.0 88.0 L 12.5 88.0 Z" stroke="none" fill="rgb(58,56,55)" />
<path d="M 14.5 85.0 L 15.0 85.0 L 16.0 85.0 L 17.0 85.0 L 17.666666666666668 84.66666666666667 L 18.0 84.0 L 17.666666666666668 83.33333333333333 L 17.0 83.0 L 16.0 82.66666666666667 L 15.0 82.33333333333333 L 14.0 81.66666666666667 L 13.0 81.0 L 12.333333333333334 80.0 L 11.666666666666666 79.0 L 11.333333333333334 78.0 L 11.0 77.0 L 10.666666666666666 76.33333333333333 L 10.0 76.0 L 9.333333333333334 76.33333333333333 L 9.0 77.0 L 9.0 78.0 L 9.333333333333334 79.0 L 9.666666666666666 80.0 L 10.333333333333334 81.0 L 10.666666666666666 82.0 L 11.333333333333334 83.0 L 12.0 83.66666666666667 L 13.0 84.33333333333333 L 13.5 84.5 Z" stroke="none" fill="rgb(39,39,39)" />
<path d="M 118.5 81.5 L 118.66666666666667 81.0 L 119.0 80.0 L 119.33333333333333 79.0 L 119.66666666666667 78.0 L 120.0 77.0 L 119.66666666666667 76.33333333333333 L 119.0 76.0 L 118.33333333333333 76.33333333333333 L 118.0 77.0 L 117.66666666666667 78.0 L 117.33333333333333 79.0 L 116.66666666666667 80.0 L 116.0 81.0 L 115.0 81.66666666666667 L 114.0 82.33333333333333 L 113.0 82.66666666666667 L 112.0 83.0 L 111.0 83.0 L 110.33333333333333 83.33333333333333 L 110.0 84.0 L 110.33333333333333 84.66666666666667 L 111.0 85.0 L 112.0 85.0 L 113.0 85.0 L 114.0 85.0 L 115.0 84.66666666666667 L 116.0 84.33333333333333 L 116.66666666666667 83.66666666666667 L 117.33333333333333 83.0 L 117.5 82.5 Z" stroke="none" fill="rgb(39,39,39)" />
<path d="M 14.5 88.0 L 15.0 88.0 L 16.0 88.0 L 17.0 88.0 L 17.666666666666668 87.66666666666667 L 18.0 87.0 L 18.0 86.0 L 17.666666666666668 85.33333333333333 L 17.0 85.0 L 16.0 85.0 L 15.0 84.66666666666667 L 14.0 84.33333333333333 L 13.0 83.66666666666667 L 12.0 83.0 L 11.333333333333334 82.0 L 10.666666666666666 81.0 L 10.333333333333334 80.0 L 9.666666666666666 79.33333333333333 L 9.0 79.0 L 8.333333333333334 79.33333333333333 L 8.0 80.0 L 8.333333333333334 81.0 L 8.666666666666666 82.0 L 9.333333333333334 83.0 L 10.0 84.0 L 11.0 85.0 L 12.0 86.0 L 13.0 87.0 L 13.5 87.5 Z" stroke="none" fill="rgb(49,46,46)" />
<path d="M 7.5 88.0 L 8.0 88.0 L 8.666666666666666 87.66666666666667 L 8.666666666666666 87.0 L 8.0 86.0 L 7.333333333333333 85.0 L 7.0 84.0 L 6.666666666666667 83.0 L 6.333333333333333 82.0 L 6.0 81.0 L 5.666666666666667 80.33333333333333 L 5.0 80.0 L 4.333333333333333 80.33333333333333 L 4.0 81.0 L 4.0 82.0 L 4.0 83.0 L 4.0 84.0 L 4.333333333333333 85.0 L 5.0 86.0 L 6.0 87.0 L 6.5 87.5 Z" stroke="none" fill="rgb(77,77,75)" />
<path d="M 122.5 87.5 L 123.0 87.0 L 123.66666666666667 86.0 L 124.0 85.0 L 124.0 84.0 L 123.66666666666667 83.33333333333333 L 123.0 83.0 L 122.0 83.33333333333333 L 121.33333333333333 84.0 L 120.66666666666667 85.0 L 120.33333333333333 86.0 L 120.0 87.0 L 120.33333333333333 87.66666666666667 L 121.0 88.0 L 121.5 88.0 Z" stroke="none" fill="rgb(77,77,75)" />
<path d="M 59.5 94.0 L 60.0 94.0 L 61.0 94.0 L 62.0 94.0 L 63.0 94.0 L 64.0 94.0 L 65.0 94.0 L 66.0 94.0 L 67.0 94.0 L 68.0 94.0 L 69.0 94.0 L 70.0 94.0 L 71.0 94.33333333333333 L 72.0 95.0 L 73.0 95.66666666666667 L 74.0 95.66666666666667 L 75.0 95.33333333333333 L 76.0 95.0 L 77.0 95.0 L 78.0 95.0 L 79.0 95.0 L 80.0 95.0 L 81.0 95.0 L 82.0 95.0 L 83.0 95.0 L 84.0 95.0 L 85.0 95.0 L 86.0 95.0 L 87.0 95.0 L 88.0 95.0 L 89.0 95.0 L 90.0 95.0 L 91.0 95.0 L 92.0 95.0 L 93.0 95.0 L 94.0 95.0 L 95.0 95.0 L 96.0 95.0 L 97.0 95.0 L 98.0 95.0 L 99.0 95.0 L 100.0 95.0 L 101.0 95.0 L 102.0 95.0 L 103.0 95.0 L 104.0 95.0 L 105.0 95.0 L 106.0 95.0 L 107.0 95.0 L 108.0 95.0 L 109.0 95.0 L 109.66666666666667 94.66666666666667 L 110.0 94.0 L 110.0 93.0 L 110.0 92.0 L 110.0 91.0 L 110.0 90.0 L 110.33333333333333 89.0 L 110.66666666666667 88.0 L 110.66666666666667 87.0 L 110.0 86.33333333333333 L 109.0 86.0 L 108.0 86.0 L 107.0 86.0 L 106.0 86.0 L 105.0 86.0 L 104.0 86.0 L 103.0 86.0 L 102.0 86.0 L 101.0 86.0 L 100.0 86.0 L 99.0 86.0 L 98.0 86.0 L 97.0 86.0 L 96.0 86.0 L 95.0 86.0 L 94.0 86.0 L 93.0 86.0 L 92.0 86.0 L 91.0 86.0 L 90.0 86.0 L 89.0 86.0 L 88.0 86.0 L 87.0 86.0 L 86.0 86.0 L 85.0 86.0 L 84.0 86.0 L 83.0 86.0 L 82.0 86.0 L 81.0 86.0 L 80.0 86.0 L 79.0 86.0 L 78.0 86.0 L 77.0 86.0 L 76.0 86.0 L 75.0 86.0 L 74.0 86.0 L 73.0 86.0 L 72.0 86.0 L 71.0 86.0 L 70.0 86.0 L 69.0 86.0 L 68.0 86.0 L 67.0 86.0 L 66.0 86.0 L 65.0 86.0 L 64.0 86.0 L 63.0 86.0 L 62.0 86.0 L 61.0 86.0 L 60.0 86.0 L 59.0 86.0 L 58.0 86.0 L 57.0 86.0 L 56.0 86.0 L 55.0 86.0 L 54.0 86.0 L 53.0 86.0 L 52.0 86.0 L 51.0 86.0 L 50.0 86.0 L 49.0 86.0 L 48.0 86.0 L 47.0 86.0 L 46.0 86.0 L 45.0 86.0 L 44.0 86.0 L 43.0 86.0 L 42.0 86.0 L 41.0 86.0 L 40.0 86.0 L 39.0 86.0 L 38.0 86.0 L 37.0 86.0 L 36.0 86.0 L 35.0 86.0 L 34.0 86.0 L 33.0 86.0 L 32.0 86.0 L 31.0 86.0 L 30.0 86.0 L 29.0 86.0 L 28.0 86.0 L 27.0 86.0 L 26.0 86.0 L 25.0 86.0 L 24.0 86.0 L 23.0 86.0 L 22.0 86.0 L 21.0 86.0 L 20.0 86.0 L 19.0 86.0 L 18.333333333333332 86.33333333333333 L 18.0 87.0 L 18.0 88.0 L 18.0 89.0 L 18.0 90.0 L 18.0 91.0 L 18.0 92.0 L 18.0 93.0 L 18.0 94.0 L 18.333333333333332 94.66666666666667 L 19.0 95.0 L 20.0 95.0 L 21.0 95.0 L 22.0 95.0 L 23.0 95.0 L 24.0 95.0 L 25.0 95.0 L 26.0 95.0 L 27.0 95.0 L 28.0 95.0 L 29.0 95.0 L 30.0 95.0 L 31.0 95.0 L 32.0 95.0 L 33.0 95.0 L 34.0 95.0 L 35.0 95.0 L 36.0 95.0 L 37.0 95.0 L 38.0 95.0 L 39.0 95.0 L 40.0 95.0 L 41.0 95.0 L 42.0 95.0 L 43.0 95.0 L 44.0 95.0 L 45.0 95.0 L 46.0 95.0 L 47.0 95.0 L 48.0 95.0 L 49.0 95.0 L 50.0 95.0 L 51.0 95.0 L 52.0 95.0 L 53.0 95.33333333333333 L 54.0 95.66666666666667 L 55.0 95.66666666666667 L 56.0 95.33333333333333 L 57.0 94.66666666666667 L 58.0 94.33333333333333 L 58.5 94.0 Z" stroke="none" fill="rgb(60,203,222)" />
<path d="M 119.5 87.0 L 119.66666666666667 86.66666666666667 L 119.66666666666667 86.33333333333333 L 119.33333333333333 86.33333333333333 L 119.0 86.5 Z" stroke="none" fill="rgb(67,65,64)" />
<path d="M 72.5 109.0 L 73.0 109.0 L 74.0 109.33333333333333 L 75.0 109.66666666666667 L 75.66666666666667 109.66666666666667 L 76.0 109.0 L 76.0 108.0 L 76.0 107.0 L 76.0 106.0 L 76.0 105.0 L 75.66666666666667 104.0 L 75.33333333333333 103.0 L 75.0 102.0 L 75.0 101.0 L 75.0 100.0 L 75.0 99.0 L 74.66666666666667 98.0 L 74.33333333333333 97.0 L 73.66666666666667 96.0 L 73.0 95.0 L 72.0 94.33333333333333 L 71.0 94.0 L 70.0 94.0 L 69.0 94.0 L 68.0 94.0 L 67.0 94.0 L 66.0 94.0 L 65.0 94.0 L 64.0 94.0 L 63.0 94.0 L 62.0 94.0 L 61.0 94.0 L 60.0 94.0 L 59.0 94.0 L 58.0 94.0 L 57.0 94.33333333333333 L 56.0 94.66666666666667 L 55.0 95.33333333333333 L 54.333333333333336 96.0 L 53.666666666666664 97.0 L 53.333333333333336 98.0 L 53.0 99.0 L 53.0 100.0 L 53.0 101.0 L 53.0 102.0 L 52.666666666666664 103.0 L 52.333333333333336 104.0 L 52.0 105.0 L 52.0 106.0 L 52.0 107.0 L 52.0 108.0 L 52.0 109.0 L 52.333333333333336 109.66666666666667 L 53.0 109.66666666666667 L 54.0 109.33333333333333 L 55.0 109.0 L 56.0 109.0 L 57.0 109.0 L 58.0 109.0 L 59.0 109.0 L 60.0 109.0 L 61.0 109.0 L 62.0 109.0 L 63.0 109.0 L 64.0 109.0 L 65.0 109.0 L 66.0 109.0 L 67.0 109.0 L 68.0 109.0 L 69.0 109.0 L 70.0 109.0 L 71.0 109.0 L 71.5 109.0 Z" stroke="none" fill="rgb(1,180,202)" />
<path d="M 24.5 104.0 L 25.0 104.0 L 26.0 104.0 L 27.0 104.0 L 28.0 104.0 L 29.0 104.0 L 30.0 104.0 L 31.0 104.0 L 32.0 104.0 L 33.0 104.0 L 34.0 104.0 L 35.0 104.0 L 36.0 104.0 L 37.0 104.0 L 38.0 104.0 L 39.0 104.0 L 40.0 104.0 L 41.0 104.0 L 42.0 104.0 L 43.0 104.0 L 44.0 104.0 L 45.0 104.0 L 46.0 104.0 L 47.0 104.0 L 48.0 104.0 L 49.0 104.0 L 50.0 104.0 L 51.0 104.0 L 52.0 104.0 L 52.666666666666664 103.66666666666667 L 53.0 103.0 L 53.0 102.0 L 53.0 101.0 L 53.0 100.0 L 53.333333333333336 99.0 L 53.666666666666664 98.0 L 54.0 97.0 L 54.0 96.0 L 53.666666666666664 95.33333333333333 L 53.0 95.0 L 52.0 95.0 L 51.0 95.0 L 50.0 95.0 L 49.0 95.0 L 48.0 95.0 L 47.0 95.0 L 46.0 95.0 L 45.0 95.0 L 44.0 95.0 L 43.0 95.0 L 42.0 95.0 L 41.0 95.0 L 40.0 95.0 L 39.0 95.0 L 38.0 95.0 L 37.0 95.0 L 36.0 95.0 L 35.0 95.0 L 34.0 95.0 L 33.0 95.0 L 32.0 95.0 L 31.0 95.0 L 30.0 95.0 L 29.0 95.0 L 28.0 95.0 L 27.0 95.0 L 26.0 95.0 L 25.0 95.0 L 24.0 95.0 L 23.0 95.0 L 22.0 95.0 L 21.0 95.0 L 20.0 95.0 L 19.0 95.0 L 18.333333333333332 95.33333333333333 L 18.0 96.0 L 18.0 97.0 L 18.0 98.0 L 18.0 99.0 L 18.0 100.0 L 18.0 101.0 L 18.0 102.0 L 18.0 103.0 L 18.333333333333332 103.66666666666667 L 19.0 104.0 L 20.0 104.0 L 21.0 104.0 L 22.0 104.0 L 23.0 104.0 L 23.5 104.0 Z" stroke="none" fill="rgb(49,201,220)" />
<path d="M 95.5 104.0 L 96.0 104.0 L 97.0 104.0 L 98.0 104.0 L 99.0 104.0 L 100.0 104.0 L 101.0 104.0 L 102.0 104.0 L 103.0 104.0 L 104.0 104.0 L 105.0 104.0 L 106.0 104.0 L 107.0 104.0 L 108.0 104.0 L 109.0 104.0 L 109.66666666666667 103.66666666666667 L 110.33333333333333 103.0 L 110.66666666666667 102.0 L 110.66666666666667 101.0 L 110.33333333333333 100.0 L 110.0 99.0 L 110.0 98.0 L 110.0 97.0 L 110.0 96.0 L 109.66666666666667 95.33333333333333 L 109.0 95.0 L 108.0 95.0 L 107.0 95.0 L 106.0 95.0 L 105.0 95.0 L 104.0 95.0 L 103.0 95.0 L 102.0 95.0 L 101.0 95.0 L 100.0 95.0 L 99.0 95.0 L 98.0 95.0 L 97.0 95.0 L 96.0 95.0 L 95.0 95.0 L 94.0 95.0 L 93.0 95.0 L 92.0 95.0 L 91.0 95.0 L 90.0 95.0 L 89.0 95.0 L 88.0 95.0 L 87.0 95.0 L 86.0 95.0 L 85.0 95.0 L 84.0 95.0 L 83.0 95.0 L 82.0 95.0 L 81.0 95.0 L 80.0 95.0 L 79.0 95.0 L 78.0 95.0 L 77.0 95.0 L 76.0 95.0 L 75.0 95.0 L 74.33333333333333 95.33333333333333 L 74.0 96.0 L 74.0 97.0 L 74.33333333333333 98.0 L 74.66666666666667 99.0 L 75.0 100.0 L 75.0 101.0 L 75.0 102.0 L 75.0 103.0 L 75.33333333333333 103.66666666666667 L 76.0 104.0 L 77.0 104.0 L 78.0 104.0 L 79.0 104.0 L 80.0 104.0 L 81.0 104.0 L 82.0 104.0 L 83.0 104.0 L 84.0 104.0 L 85.0 104.0 L 86.0 104.0 L 87.0 104.0 L 88.0 104.0 L 89.0 104.0 L 90.0 104.0 L 91.0 104.0 L 92.0 104.0 L 93.0 104.0 L 94.0 104.0 L 94.5 104.0 Z" stroke="none" fill="rgb(49,201,220)" />
<path d="M 17.5 111.0 L 17.666666666666668 110.66666666666667 L 18.0 110.0 L 18.0 109.0 L 18.0 108.0 L 18.0 107.0 L 18.0 106.0 L 18.0 105.0 L 18.0 104.0 L 18.0 103.0 L 18.0 102.0 L 18.0 101.0 L 18.0 100.0 L 18.0 99.0 L 18.0 98.0 L 17.666666666666668 97.33333333333333 L 17.0 97.0 L 16.0 97.0 L 15.0 97.0 L 14.0 97.0 L 13.0 97.0 L 12.0 97.33333333333333 L 11.333333333333334 98.0 L 11.0 99.0 L 10.666666666666666 100.0 L 10.0 100.66666666666667 L 9.0 101.0 L 8.0 101.33333333333333 L 7.0 102.0 L 6.333333333333333 103.0 L 6.0 104.0 L 5.666666666666667 105.0 L 5.0 106.0 L 4.333333333333333 107.0 L 4.0 108.0 L 4.0 109.0 L 4.0 110.0 L 4.333333333333333 111.0 L 5.0 112.0 L 6.0 113.0 L 7.0 114.0 L 8.0 114.66666666666667 L 9.0 114.66666666666667 L 10.0 114.33333333333333 L 11.0 114.0 L 11.666666666666666 113.66666666666667 L 12.333333333333334 113.0 L 13.0 112.0 L 14.0 111.33333333333333 L 15.0 111.0 L 16.0 111.0 L 16.5 111.0 Z" stroke="none" fill="rgb(249,221,189)" />
<path d="M 116.5 117.5 L 117.0 118.0 L 118.0 119.0 L 119.0 119.66666666666667 L 120.0 120.0 L 121.0 119.66666666666667 L 121.66666666666667 119.0 L 122.33333333333333 118.0 L 122.66666666666667 117.0 L 123.0 116.0 L 123.0 115.0 L 123.0 114.0 L 123.0 113.0 L 122.66666666666667 112.0 L 122.0 111.0 L 121.33333333333333 110.0 L 121.0 109.0 L 121.0 108.0 L 120.66666666666667 107.0 L 120.0 106.33333333333333 L 119.0 106.0 L 118.0 105.66666666666667 L 117.33333333333333 105.0 L 117.0 104.0 L 116.66666666666667 103.0 L 116.0 102.33333333333333 L 115.0 102.0 L 114.0 102.0 L 113.0 102.0 L 112.0 102.0 L 111.0 102.0 L 110.33333333333333 102.33333333333333 L 110.0 103.0 L 110.0 104.0 L 110.0 105.0 L 110.0 106.0 L 110.0 107.0 L 110.0 108.0 L 110.0 109.0 L 110.0 110.0 L 110.0 111.0 L 110.0 112.0 L 110.0 113.0 L 110.0 114.0 L 110.33333333333333 114.66666666666667 L 111.0 114.66666666666667 L 112.0 114.66666666666667 L 113.0 115.0 L 114.0 116.0 L 115.0 116.66666666666667 L 115.5 117.0 Z" stroke="none" fill="rgb(249,221,189)" />
<path d="M 26.5 114.0 L 27.0 114.0 L 28.0 114.0 L 29.0 114.0 L 30.0 114.0 L 31.0 114.0 L 32.0 114.0 L 33.0 114.0 L 34.0 114.0 L 35.0 114.0 L 36.0 114.0 L 37.0 114.0 L 38.0 114.0 L 39.0 114.0 L 40.0 114.0 L 41.0 114.0 L 42.0 114.0 L 43.0 114.0 L 44.0 114.0 L 45.0 114.0 L 46.0 114.0 L 47.0 114.0 L 48.0 114.0 L 49.0 114.0 L 50.0 114.0 L 51.0 114.0 L 51.666666666666664 113.66666666666667 L 52.333333333333336 113.0 L 52.666666666666664 112.0 L 53.0 111.0 L 52.666666666666664 110.0 L 52.333333333333336 109.0 L 52.0 108.0 L 52.0 107.0 L 52.0 106.0 L 52.0 105.0 L 51.666666666666664 104.33333333333333 L 51.0 104.0 L 50.0 104.0 L 49.0 104.0 L 48.0 104.0 L 47.0 104.0 L 46.0 104.0 L 45.0 104.0 L 44.0 104.0 L 43.0 104.0 L 42.0 104.0 L 41.0 104.0 L 40.0 104.0 L 39.0 104.0 L 38.0 104.0 L 37.0 104.0 L 36.0 104.0 L 35.0 104.0 L 34.0 104.0 L 33.0 104.0 L 32.0 104.0 L 31.0 104.0 L 30.0 104.0 L 29.0 104.0 L 28.0 104.0 L 27.0 104.0 L 26.0 104.0 L 25.0 104.0 L 24.0 104.0 L 23.0 104.0 L 22.0 104.0 L 21.0 104.0 L 20.0 104.0 L 19.0 104.0 L 18.333333333333332 104.33333333333333 L 18.0 105.0 L 18.0 106.0 L 18.0 107.0 L 18.0 108.0 L 18.0 109.0 L 18.0 110.0 L 18.0 111.0 L 18.0 112.0 L 18.0 113.0 L 18.333333333333332 113.66666666666667 L 19.0 114.0 L 20.0 114.0 L 21.0 114.0 L 22.0 114.0 L 23.0 114.0 L 24.0 114.0 L 25.0 114.0 L 25.5 114.0 Z" stroke="none" fill="rgb(38,198,218)" />
<path d="M 95.5 114.0 L 96.0 114.0 L 97.0 114.0 L 98.0 114.0 L 99.0 114.0 L 100.0 114.0 L 101.0 114.0 L 102.0 114.0 L 103.0 114.0 L 104.0 114.0 L 105.0 114.0 L 106.0 114.0 L 107.0 114.0 L 108.0 114.0 L 109.0 114.0 L 109.66666666666667 113.66666666666667 L 110.0 113.0 L 110.0 112.0 L 110.0 111.0 L 110.0 110.0 L 110.0 109.0 L 110.0 108.0 L 110.0 107.0 L 110.0 106.0 L 110.0 105.0 L 109.66666666666667 104.33333333333333 L 109.0 104.0 L 108.0 104.0 L 107.0 104.0 L 106.0 104.0 L 105.0 104.0 L 104.0 104.0 L 103.0 104.0 L 102.0 104.0 L 101.0 104.0 L 100.0 104.0 L 99.0 104.0 L 98.0 104.0 L 97.0 104.0 L 96.0 104.0 L 95.0 104.0 L 94.0 104.0 L 93.0 104.0 L 92.0 104.0 L 91.0 104.0 L 90.0 104.0 L 89.0 104.0 L 88.0 104.0 L 87.0 104.0 L 86.0 104.0 L 85.0 104.0 L 84.0 104.0 L 83.0 104.0 L 82.0 104.0 L 81.0 104.0 L 80.0 104.0 L 79.0 104.0 L 78.0 104.0 L 77.0 104.0 L 76.33333333333333 104.33333333333333 L 76.0 105.0 L 76.0 106.0 L 76.0 107.0 L 76.0 108.0 L 76.0 109.0 L 76.0 110.0 L 76.0 111.0 L 76.0 112.0 L 76.33333333333333 113.0 L 77.0 113.66666666666667 L 78.0 114.0 L 79.0 114.0 L 80.0 114.0 L 81.0 114.0 L 82.0 114.0 L 83.0 114.0 L 84.0 114.0 L 85.0 114.0 L 86.0 114.0 L 87.0 114.0 L 88.0 114.0 L 89.0 114.0 L 90.0 114.0 L 91.0 114.0 L 92.0 114.0 L 93.0 114.0 L 94.0 114.0 L 94.5 114.0 Z" stroke="none" fill="rgb(38,198,218)" />
<path d="M 78.5 124.0 L 78.66666666666667 123.66666666666667 L 79.0 123.0 L 79.0 122.0 L 78.66666666666667 121.0 L 78.33333333333333 120.0 L 78.0 119.0 L 77.66666666666667 118.0 L 77.33333333333333 117.0 L 77.0 116.0 L 77.0 115.0 L 77.0 114.0 L 76.66666666666667 113.0 L 76.33333333333333 112.0 L 76.0 111.0 L 75.66666666666667 110.0 L 75.0 109.33333333333333 L 74.0 109.0 L 73.0 109.0 L 72.0 109.0 L 71.0 109.0 L 70.0 109.0 L 69.0 109.0 L 68.0 109.0 L 67.0 109.0 L 66.0 109.0 L 65.0 109.0 L 64.0 109.0 L 63.0 109.0 L 62.0 109.0 L 61.0 109.0 L 60.0 109.0 L 59.0 109.0 L 58.0 109.0 L 57.0 109.0 L 56.0 109.0 L 55.0 109.0 L 54.0 109.0 L 53.333333333333336 109.33333333333333 L 53.0 110.0 L 52.666666666666664 111.0 L 52.333333333333336 112.0 L 51.666666666666664 113.0 L 51.333333333333336 114.0 L 51.0 115.0 L 51.0 116.0 L 51.0 117.0 L 50.666666666666664 118.0 L 50.333333333333336 119.0 L 50.0 120.0 L 49.666666666666664 121.0 L 49.333333333333336 122.0 L 49.0 123.0 L 49.333333333333336 123.66666666666667 L 50.0 124.0 L 51.0 124.0 L 52.0 124.0 L 53.0 124.0 L 54.0 124.0 L 55.0 124.0 L 56.0 124.0 L 57.0 124.0 L 58.0 124.0 L 59.0 124.0 L 60.0 124.0 L 61.0 124.0 L 62.0 124.0 L 63.0 124.0 L 64.0 124.0 L 65.0 124.0 L 66.0 124.0 L 67.0 124.0 L 68.0 124.0 L 69.0 124.0 L 70.0 124.0 L 71.0 124.0 L 72.0 124.0 L 73.0 124.0 L 74.0 124.0 L 75.0 124.0 L 76.0 124.0 L 77.0 124.0 L 77.5 124.0 Z" stroke="none" fill="rgb(0,165,185)" />
<path d="M 13.5 114.0 L 14.0 114.0 L 15.0 113.66666666666667 L 15.666666666666666 113.0 L 16.0 112.0 L 15.666666666666666 111.0 L 15.0 110.33333333333333 L 14.0 110.33333333333333 L 13.0 111.0 L 12.333333333333334 112.0 L 12.0 113.0 L 12.333333333333334 113.66666666666667 L 12.5 114.0 Z" stroke="none" fill="rgb(243,210,173)" />
<path d="M 17.5 116.0 L 17.666666666666668 115.66666666666667 L 18.0 115.0 L 18.0 114.0 L 18.0 113.0 L 18.0 112.0 L 17.666666666666668 111.33333333333333 L 17.0 111.0 L 16.333333333333332 111.33333333333333 L 15.666666666666666 112.0 L 15.0 113.0 L 14.0 113.66666666666667 L 13.0 114.0 L 12.0 114.0 L 11.333333333333334 114.33333333333333 L 10.666666666666666 115.0 L 10.333333333333334 116.0 L 10.333333333333334 116.66666666666667 L 11.0 117.0 L 12.0 117.0 L 13.0 117.0 L 14.0 116.66666666666667 L 15.0 116.33333333333333 L 16.0 116.0 L 16.5 116.0 Z" stroke="none" fill="rgb(238,194,141)" />
<path d="M 110.5 120.5 L 111.0 120.66666666666667 L 112.0 121.33333333333333 L 113.0 121.66666666666667 L 114.0 122.33333333333333 L 115.0 123.0 L 116.0 123.66666666666667 L 117.0 124.0 L 117.66666666666667 123.66666666666667 L 118.0 123.0 L 118.0 122.0 L 117.66666666666667 121.33333333333333 L 117.0 120.66666666666667 L 116.66666666666667 120.0 L 116.66666666666667 119.0 L 117.0 118.0 L 116.66666666666667 117.33333333333333 L 116.0 117.33333333333333 L 115.0 118.0 L 114.0 118.66666666666667 L 113.0 118.66666666666667 L 112.33333333333333 118.0 L 112.33333333333333 117.0 L 112.66666666666667 116.0 L 113.0 115.0 L 113.0 114.0 L 112.66666666666667 113.33333333333333 L 112.0 113.33333333333333 L 111.0 114.0 L 110.33333333333333 115.0 L 110.0 116.0 L 110.0 117.0 L 110.0 118.0 L 110.0 119.0 L 110.0 119.5 Z" stroke="none" fill="rgb(238,194,141)" />
<path d="M 11.0 115.5 L 11.0 115.0 L 10.666666666666666 114.33333333333333 L 10.0 114.0 L 9.333333333333334 114.33333333333333 L 9.0 115.0 L 9.333333333333334 115.66666666666667 L 10.0 116.0 L 10.5 116.0 Z" stroke="none" fill="rgb(243,210,173)" />
<path d="M 39.5 124.0 L 40.0 124.0 L 41.0 124.0 L 42.0 124.0 L 43.0 124.0 L 44.0 124.0 L 45.0 124.0 L 46.0 124.0 L 47.0 124.0 L 48.0 124.0 L 48.666666666666664 123.66666666666667 L 49.333333333333336 123.0 L 49.666666666666664 122.0 L 50.0 121.0 L 50.333333333333336 120.0 L 50.666666666666664 119.0 L 51.0 118.0 L 51.0 117.0 L 51.0 116.0 L 51.0 115.0 L 50.666666666666664 114.33333333333333 L 50.0 114.0 L 49.0 114.0 L 48.0 114.0 L 47.0 114.0 L 46.0 114.0 L 45.0 114.0 L 44.0 114.0 L 43.0 114.0 L 42.0 114.0 L 41.0 114.0 L 40.0 114.0 L 39.0 114.0 L 38.0 114.0 L 37.0 114.0 L 36.0 114.0 L 35.0 114.0 L 34.0 114.0 L 33.0 114.0 L 32.0 114.0 L 31.0 114.0 L 30.0 114.0 L 29.0 114.0 L 28.0 114.0 L 27.0 114.0 L 26.0 114.0 L 25.0 114.0 L 24.0 114.0 L 23.0 114.0 L 22.0 114.0 L 21.0 114.0 L 20.0 114.0 L 19.0 114.0 L 18.333333333333332 114.33333333333333 L 18.0 115.0 L 18.0 116.0 L 18.0 117.0 L 18.0 118.0 L 18.0 119.0 L 18.0 120.0 L 18.0 121.0 L 18.0 122.0 L 18.0 123.0 L 18.333333333333332 123.66666666666667 L 19.0 124.0 L 20.0 124.0 L 21.0 124.0 L 22.0 124.0 L 23.0 124.0 L 24.0 124.0 L 25.0 124.0 L 26.0 124.0 L 27.0 124.0 L 28.0 124.0 L 29.0 124.0 L 30.0 124.0 L 31.0 124.0 L 32.0 124.0 L 33.0 124.0 L 34.0 124.0 L 35.0 124.0 L 36.0 124.0 L 37.0 124.0 L 38.0 124.0 L 38.5 124.0 Z" stroke="none" fill="rgb(27,195,216)" />
<path d="M 95.5 124.0 L 96.0 124.0 L 97.0 124.0 L 98.0 124.0 L 99.0 124.0 L 100.0 124.0 L 101.0 124.0 L 102.0 124.0 L 103.0 124.0 L 104.0 124.0 L 105.0 124.0 L 106.0 124.0 L 107.0 124.0 L 108.0 124.0 L 109.0 124.0 L 109.66666666666667 123.66666666666667 L 110.0 123.0 L 110.33333333333333 122.0 L 110.66666666666667 121.0 L 110.66666666666667 120.0 L 110.33333333333333 119.0 L 110.0 118.0 L 110.0 117.0 L 110.0 116.0 L 110.0 115.0 L 109.66666666666667 114.33333333333333 L 109.0 114.0 L 108.0 114.0 L 107.0 114.0 L 106.0 114.0 L 105.0 114.0 L 104.0 114.0 L 103.0 114.0 L 102.0 114.0 L 101.0 114.0 L 100.0 114.0 L 99.0 114.0 L 98.0 114.0 L 97.0 114.0 L 96.0 114.0 L 95.0 114.0 L 94.0 114.0 L 93.0 114.0 L 92.0 114.0 L 91.0 114.0 L 90.0 114.0 L 89.0 114.0 L 88.0 114.0 L 87.0 114.0 L 86.0 114.0 L 85.0 114.0 L 84.0 114.0 L 83.0 114.0 L 82.0 114.0 L 81.0 114.0 L 80.0 114.0 L 79.0 114.0 L 78.0 114.0 L 77.33333333333333 114.33333333333333 L 77.0 115.0 L 77.0 116.0 L 77.0 117.0 L 77.33333333333333 118.0 L 77.66666666666667 119.0 L 78.0 120.0 L 78.33333333333333 121.0 L 78.66666666666667 122.0 L 79.0 123.0 L 79.33333333333333 123.66666666666667 L 80.0 124.0 L 81.0 124.0 L 82.0 124.0 L 83.0 124.0 L 84.0 124.0 L 85.0 124.0 L 86.0 124.0 L 87.0 124.0 L 88.0 124.0 L 89.0 124.0 L 90.0 124.0 L 91.0 124.0 L 92.0 124.0 L 93.0 124.0 L 94.0 124.0 L 94.5 124.0 Z" stroke="none" fill="rgb(27,195,216)" />
<path d="M 113.5 119.0 L 114.0 119.0 L 115.0 118.66666666666667 L 115.66666666666667 118.0 L 115.66666666666667 117.0 L 115.0 116.0 L 114.0 115.33333333333333 L 113.0 115.33333333333333 L 112.33333333333333 116.0 L 112.0 117.0 L 112.0 118.0 L 112.33333333333333 118.66666666666667 L 112.5 119.0 Z" stroke="none" fill="rgb(243,210,173)" />
<path d="M 10.5 124.0 L 11.0 124.0 L 12.0 124.0 L 13.0 124.0 L 14.0 124.0 L 15.0 124.0 L 16.0 124.0 L 17.0 124.0 L 17.666666666666668 123.66666666666667 L 18.0 123.0 L 18.0 122.0 L 18.0 121.0 L 17.666666666666668 120.33333333333333 L 17.0 120.0 L 16.0 120.0 L 15.0 120.0 L 14.0 120.0 L 13.0 120.0 L 12.0 120.0 L 11.0 120.0 L 10.0 119.66666666666667 L 9.333333333333334 119.0 L 9.0 118.0 L 8.666666666666666 117.0 L 8.0 116.33333333333333 L 7.0 116.0 L 6.0 116.33333333333333 L 5.333333333333333 117.0 L 5.0 118.0 L 5.0 119.0 L 5.0 120.0 L 5.0 121.0 L 5.0 122.0 L 5.333333333333333 123.0 L 6.0 123.66666666666667 L 7.0 124.0 L 8.0 124.0 L 9.0 124.0 L 9.5 124.0 Z" stroke="none" fill="rgb(246,127,0)" />
<path d="M 8.5 119.5 L 9.0 119.66666666666667 L 10.0 120.0 L 11.0 120.0 L 12.0 120.0 L 13.0 120.0 L 14.0 120.0 L 15.0 120.0 L 16.0 120.0 L 17.0 120.0 L 17.666666666666668 119.66666666666667 L 18.0 119.0 L 18.0 118.0 L 18.0 117.0 L 17.666666666666668 116.33333333333333 L 17.0 116.0 L 16.0 116.0 L 15.0 116.0 L 14.0 116.33333333333333 L 13.0 116.66666666666667 L 12.0 117.0 L 11.0 117.0 L 10.0 117.0 L 9.0 117.33333333333333 L 8.333333333333334 118.0 L 8.0 118.5 Z" stroke="none" fill="rgb(226,70,3)" />
<path d="M 118.5 122.0 L 119.0 122.0 L 119.66666666666667 121.66666666666667 L 120.0 121.0 L 119.66666666666667 120.0 L 119.0 119.0 L 118.0 118.33333333333333 L 117.0 118.33333333333333 L 116.33333333333333 119.0 L 116.0 120.0 L 116.33333333333333 120.66666666666667 L 117.0 121.33333333333333 L 117.5 121.5 Z" stroke="none" fill="rgb(243,210,173)" />
<path d="M 111.5 124.0 L 112.0 124.0 L 113.0 124.0 L 114.0 124.0 L 115.0 124.0 L 115.66666666666667 123.66666666666667 L 115.66666666666667 123.0 L 115.0 122.33333333333333 L 114.0 121.66666666666667 L 113.0 121.33333333333333 L 112.0 121.0 L 111.0 121.0 L 110.33333333333333 121.33333333333333 L 110.0 122.0 L 110.0 123.0 L 110.33333333333333 123.66666666666667 L 110.5 124.0 Z" stroke="none" fill="rgb(246,127,0)" />
<path d="M 121.0 123.5 L 121.0 123.0 L 120.66666666666667 122.33333333333333 L 120.0 122.0 L 119.0 122.0 L 118.33333333333333 122.33333333333333 L 118.0 123.0 L 118.33333333333333 123.66666666666667 L 119.0 124.0 L 120.0 124.0 L 120.5 124.0 Z" stroke="none" fill="rgb(246,127,0)" />
</svg>
