<?xml version="1.0" encoding="UTF-8" standalone="no"?>
<!DOCTYPE svg PUBLIC "-//W3C//DTD SVG 1.1//EN"
"http://www.w3.org/Graphics/SVG/1.1/DTD/svg11.dtd">
<svg width="128" height="128" xmlns="http://www.w3.org/2000/svg" version="1.1">
<path d="M 88.5 128.0 L 89.0 128.0 L 90.0 128.0 L 91.0 128.0 L 92.0 128.0 L 93.0 128.0 L 94.0 128.0 L 95.0 128.0 L 96.0 128.0 L 97.0 128.0 L 98.0 128.0 L 99.0 128.0 L 100.0 128.0 L 101.0 128.0 L 102.0 128.0 L 103.0 128.0 L 104.0 128.0 L 105.0 128.0 L 106.0 128.0 L 107.0 128.0 L 108.0 128.0 L 109.0 128.0 L 110.0 128.0 L 111.0 128.0 L 112.0 128.0 L 113.0 128.0 L 114.0 128.0 L 115.0 128.0 L 116.0 128.0 L 117.0 128.0 L 118.0 128.0 L 119.0 128.0 L 120.0 128.0 L 121.0 128.0 L 122.0 128.0 L 123.0 128.0 L 124.0 128.0 L 125.0 128.0 L 126.0 128.0 L 127.0 128.0 L 127.66666666666667 127.66666666666667 L 128.0 127.0 L 128.0 126.0 L 128.0 125.0 L 128.0 124.0 L 128.0 123.0 L 128.0 122.0 L 128.0 121.0 L 128.0 120.0 L 128.0 119.0 L 128.0 118.0 L 128.0 117.0 L 128.0 116.0 L 128.0 115.0 L 128.0 114.0 L 128.0 113.0 L 128.0 112.0 L 128.0 111.0 L 128.0 110.0 L 128.0 109.0 L 128.0 108.0 L 128.0 107.0 L 128.0 106.0 L 128.0 105.0 L 128.0 104.0 L 128.0 103.0 L 128.0 102.0 L 128.0 101.0 L 128.0 100.0 L 128.0 99.0 L 128.0 98.0 L 128.0 97.0 L 128.0 96.0 L 128.0 95.0 L 128.0 94.0 L 128.0 93.0 L 128.0 92.0 L 128.0 91.0 L 128.0 90.0 L 128.0 89.0 L 128.0 88.0 L 128.0 87.0 L 128.0 86.0 L 128.0 85.0 L 128.0 84.0 L 128.0 83.0 L 128.0 82.0 L 128.0 81.0 L 128.0 80.0 L 128.0 79.0 L 128.0 78.0 L 128.0 77.0 L 128.0 76.0 L 128.0 75.0 L 128.0 74.0 L 128.0 73.0 L 128.0 72.0 L 128.0 71.0 L 128.0 70.0 L 128.0 69.0 L 128.0 68.0 L 128.0 67.0 L 128.0 66.0 L 128.0 65.0 L 128.0 64.0 L 128.0 63.0 L 128.0 62.0 L 128.0 61.0 L 128.0 60.0 L 128.0 59.0 L 128.0 58.0 L 128.0 57.0 L 128.0 56.0 L 128.0 55.0 L 128.0 54.0 L 128.0 53.0 L 128.0 52.0 L 128.0 51.0 L 128.0 50.0 L 128.0 49.0 L 128.0 48.0 L 128.0 47.0 L 128.0 46.0 L 128.0 45.0 L 128.0 44.0 L 128.0 43.0 L 128.0 42.0 L 128.0 41.0 L 128.0 40.0 L 128.0 39.0 L 128.0 38.0 L 128.0 37.0 L 128.0 36.0 L 128.0 35.0 L 128.0 34.0 L 128.0 33.0 L 128.0 32.0 L 128.0 31.0 L 128.0 30.0 L 128.0 29.0 L 128.0 28.0 L 128.0 27.0 L 128.0 26.0 L 128.0 25.0 L 128.0 24.0 L 128.0 23.0 L 128.0 22.0 L 128.0 21.0 L 128.0 20.0 L 128.0 19.0 L 128.0 18.0 L 128.0 17.0 L 128.0 16.0 L 128.0 15.0 L 128.0 14.0 L 128.0 13.0 L 128.0 12.0 L 128.0 11.0 L 128.0 10.0 L 128.0 9.0 L 128.0 8.0 L 128.0 7.0 L 128.0 6.0 L 128.0 5.0 L 128.0 4.0 L 128.0 3.0 L 128.0 2.0 L 128.0 1.0 L 127.66666666666667 0.3333333333333333 L 127.0 0.0 L 126.0 0.0 L 125.0 0.0 L 124.0 0.0 L 123.0 0.0 L 122.0 0.0 L 121.0 0.0 L 120.0 0.0 L 119.0 0.0 L 118.0 0.0 L 117.0 0.0 L 116.0 0.0 L 115.0 0.0 L 114.0 0.0 L 113.0 0.0 L 112.0 0.0 L 111.0 0.0 L 110.0 0.0 L 109.0 0.0 L 108.0 0.0 L 107.0 0.0 L 106.0 0.0 L 105.0 0.0 L 104.0 0.0 L 103.0 0.0 L 102.0 0.0 L 101.0 0.0 L 100.0 0.0 L 99.0 0.0 L 98.0 0.0 L 97.0 0.0 L 96.0 0.0 L 95.0 0.0 L 94.0 0.0 L 93.0 0.0 L 92.0 0.0 L 91.0 0.0 L 90.0 0.0 L 89.0 0.0 L 88.0 0.0 L 87.0 0.0 L 86.0 0.0 L 85.0 0.0 L 84.0 0.0 L 83.0 0.0 L 82.0 0.0 L 81.0 0.0 L 80.0 0.0 L 79.0 0.0 L 78.0 0.0 L 77.0 0.0 L 76.0 0.0 L 75.0 0.0 L 74.0 0.0 L 73.0 0.0 L 72.0 0.0 L 71.0 0.0 L 70.0 0.0 L 69.0 0.0 L 68.0 0.0 L 67.0 0.0 L 66.0 0.0 L 65.0 0.0 L 64.0 0.0 L 63.0 0.0 L 62.0 0.0 L 61.0 0.0 L 60.0 0.0 L 59.0 0.0 L 58.0 0.0 L 57.0 0.0 L 56.0 0.0 L 55.0 0.0 L 54.0 0.0 L 53.0 0.0 L 52.0 0.0 L 51.0 0.0 L 50.0 0.0 L 49.0 0.0 L 48.0 0.0 L 47.0 0.0 L 46.0 0.0 L 45.0 0.0 L 44.0 0.0 L 43.0 0.0 L 42.0 0.0 L 41.0 0.0 L 40.0 0.0 L 39.0 0.0 L 38.0 0.0 L 37.0 0.0 L 36.0 0.0 L 35.0 0.0 L 34.0 0.0 L 33.0 0.0 L 32.0 0.0 L 31.0 0.0 L 30.0 0.0 L 29.0 0.0 L 28.0 0.0 L 27.0 0.0 L 26.0 0.0 L 25.0 0.0 L 24.0 0.0 L 23.0 0.0 L 22.0 0.0 L 21.0 0.0 L 20.0 0.0 L 19.0 0.0 L 18.0 0.0 L 17.0 0.0 L 16.0 0.0 L 15.0 0.0 L 14.0 0.0 L 13.0 0.0 L 12.0 0.0 L 11.0 0.0 L 10.0 0.0 L 9.0 0.0 L 8.0 0.0 L 7.0 0.0 L 6.0 0.0 L 5.0 0.0 L 4.0 0.0 L 3.0 0.0 L 2.0 0.0 L 1.0 0.0 L 0.3333333333333333 0.3333333333333333 L 0.0 1.0 L 0.0 2.0 L 0.0 3.0 L 0.0 4.0 L 0.0 5.0 L 0.0 6.0 L 0.0 7.0 L 0.0 8.0 L 0.0 9.0 L 0.0 10.0 L 0.0 11.0 L 0.0 12.0 L 0.0 13.0 L 0.0 14.0 L 0.0 15.0 L 0.0 16.0 L 0.0 17.0 L 0.0 18.0 L 0.0 19.0 L 0.0 20.0 L 0.0 21.0 L 0.0 22.0 L 0.0 23.0 L 0.0 24.0 L 0.0 25.0 L 0.0 26.0 L 0.0 27.0 L 0.0 28.0 L 0.0 29.0 L 0.0 30.0 L 0.0 31.0 L 0.0 32.0 L 0.0 33.0 L 0.0 34.0 L 0.0 35.0 L 0.0 36.0 L 0.0 37.0 L 0.0 38.0 L 0.0 39.0 L 0.0 40.0 L 0.0 41.0 L 0.0 42.0 L 0.0 43.0 L 0.0 44.0 L 0.0 45.0 L 0.0 46.0 L 0.0 47.0 L 0.0 48.0 L 0.0 49.0 L 0.0 50.0 L 0.0 51.0 L 0.0 52.0 L 0.0 53.0 L 0.0 54.0 L 0.0 55.0 L 0.0 56.0 L 0.0 57.0 L 0.0 58.0 L 0.0 59.0 L 0.0 60.0 L 0.0 61.0 L 0.0 62.0 L 0.0 63.0 L 0.0 64.0 L 0.0 65.0 L 0.0 66.0 L 0.0 67.0 L 0.0 68.0 L 0.0 69.0 L 0.0 70.0 L 0.0 71.0 L 0.0 72.0 L 0.0 73.0 L 0.0 74.0 L 0.0 75.0 L 0.0 76.0 L 0.0 77.0 L 0.0 78.0 L 0.0 79.0 L 0.0 80.0 L 0.0 81.0 L 0.0 82.0 L 0.0 83.0 L 0.0 84.0 L 0.0 85.0 L 0.0 86.0 L 0.0 87.0 L 0.0 88.0 L 0.0 89.0 L 0.0 90.0 L 0.0 91.0 L 0.0 92.0 L 0.0 93.0 L 0.0 94.0 L 0.0 95.0 L 0.0 96.0 L 0.0 97.0 L 0.0 98.0 L 0.0 99.0 L 0.0 100.0 L 0.0 101.0 L 0.0 102.0 L 0.0 103.0 L 0.0 104.0 L 0.0 105.0 L 0.0 106.0 L 0.0 107.0 L 0.0 108.0 L 0.0 109.0 L 0.0 110.0 L 0.0 111.0 L 0.0 112.0 L 0.0 113.0 L 0.0 114.0 L 0.0 115.0 L 0.0 116.0 L 0.0 117.0 L 0.0 118.0 L 0.0 119.0 L 0.0 120.0 L 0.0 121.0 L 0.0 122.0 L 0.0 123.0 L 0.0 124.0 L 0.0 125.0 L 0.0 126.0 L 0.0 127.0 L 0.3333333333333333 127.66666666666667 L 1.0 128.0 L 2.0 128.0 L 3.0 128.0 L 4.0 128.0 L 5.0 128.0 L 6.0 128.0 L 7.0 128.0 L 8.0 128.0 L 9.0 128.0 L 10.0 128.0 L 11.0 128.0 L 12.0 128.0 L 13.0 128.0 L 14.0 128.0 L 15.0 128.0 L 16.0 128.0 L 17.0 128.0 L 18.0 128.0 L 19.0 128.0 L 20.0 128.0 L 21.0 128.0 L 22.0 128.0 L 23.0 128.0 L 24.0 128.0 L 25.0 128.0 L 26.0 128.0 L 27.0 128.0 L 28.0 128.0 L 29.0 128.0 L 30.0 128.0 L 31.0 128.0 L 32.0 128.0 L 33.0 128.0 L 34.0 128.0 L 35.0 128.0 L 36.0 128.0 L 37.0 128.0 L 38.0 128.0 L 39.0 128.0 L 40.0 128.0 L 41.0 128.0 L 42.0 128.0 L 43.0 128.0 L 44.0 128.0 L 45.0 128.0 L 46.0 128.0 L 47.0 128.0 L 48.0 128.0 L 49.0 128.0 L 50.0 128.0 L 51.0 128.0 L 52.0 128.0 L 53.0 128.0 L 54.0 128.0 L 55.0 128.0 L 56.0 128.0 L 57.0 128.0 L 58.0 128.0 L 59.0 128.0 L 60.0 128.0 L 61.0 128.0 L 62.0 128.0 L 63.0 128.0 L 64.0 128.0 L 65.0 128.0 L 66.0 128.0 L 67.0 128.0 L 68.0 128.0 L 69.0 128.0 L 70.0 128.0 L 71.0 128.0 L 72.0 128.0 L 73.0 128.0 L 74.0 128.0 L 75.0 128.0 L 76.0 128.0 L 77.0 128.0 L 78.0 128.0 L 79.0 128.0 L 80.0 128.0 L 81.0 128.0 L 82.0 128.0 L 83.0 128.0 L 84.0 128.0 L 85.0 128.0 L 86.0 128.0 L 87.0 128.0 L 87.5 128.0 Z" stroke="none" fill="rgb(0,0,0)" />
<path d="M 78.5 9.0 L 79.0 9.0 L 80.0 9.0 L 80.66666666666667 8.666666666666666 L 80.66666666666667 8.0 L 80.0 7.0 L 79.0 6.0 L 78.0 5.0 L 77.0 4.333333333333333 L 76.0 4.0 L 75.33333333333333 4.333333333333333 L 75.0 5.0 L 75.33333333333333 6.0 L 76.0 7.0 L 77.0 8.0 L 77.5 8.5 Z" stroke="none" fill="rgb(238,95,16)" />
<path d="M 101.5 86.5 L 102.0 86.0 L 103.0 85.0 L 103.66666666666667 84.0 L 103.66666666666667 83.0 L 103.0 82.33333333333333 L 102.0 82.0 L 101.0 81.66666666666667 L 100.0 81.0 L 99.33333333333333 80.0 L 99.0 79.0 L 99.0 78.0 L 99.33333333333333 77.0 L 100.0 76.0 L 101.0 75.0 L 102.0 74.0 L 103.0 73.0 L 103.66666666666667 72.0 L 104.0 71.0 L 104.33333333333333 70.0 L 105.0 69.0 L 105.66666666666667 68.0 L 106.33333333333333 67.0 L 106.66666666666667 66.0 L 107.0 65.0 L 107.33333333333333 64.0 L 107.66666666666667 63.0 L 108.0 62.0 L 108.0 61.0 L 108.0 60.0 L 108.0 59.0 L 108.0 58.0 L 108.0 57.0 L 108.0 56.0 L 108.0 55.0 L 108.0 54.0 L 108.0 53.0 L 108.0 52.0 L 107.66666666666667 51.0 L 107.33333333333333 50.0 L 106.66666666666667 49.0 L 106.0 48.0 L 105.0 47.0 L 104.33333333333333 46.0 L 104.0 45.0 L 104.0 44.0 L 104.0 43.0 L 104.0 42.0 L 104.0 41.0 L 104.0 40.0 L 104.0 39.0 L 103.66666666666667 38.0 L 103.33333333333333 37.0 L 103.0 36.0 L 103.0 35.0 L 102.66666666666667 34.0 L 102.33333333333333 33.0 L 101.66666666666667 32.0 L 101.33333333333333 31.0 L 100.66666666666667 30.0 L 100.33333333333333 29.0 L 99.66666666666667 28.0 L 99.33333333333333 27.0 L 98.66666666666667 26.0 L 98.0 25.0 L 97.0 24.333333333333332 L 96.0 23.666666666666668 L 95.0 23.0 L 94.0 22.0 L 93.0 21.0 L 92.0 20.0 L 91.0 19.0 L 90.0 18.0 L 89.0 17.0 L 88.0 16.0 L 87.0 15.0 L 86.0 14.0 L 85.0 13.0 L 84.0 12.0 L 83.0 11.0 L 82.0 10.0 L 81.0 9.333333333333334 L 80.0 9.0 L 79.0 8.666666666666666 L 78.0 8.0 L 77.0 7.333333333333333 L 76.0 7.0 L 75.0 7.0 L 74.0 6.666666666666667 L 73.0 6.333333333333333 L 72.0 6.0 L 71.0 6.0 L 70.0 6.0 L 69.0 6.0 L 68.0 6.0 L 67.0 6.0 L 66.0 6.0 L 65.0 6.0 L 64.0 6.0 L 63.0 6.0 L 62.0 6.0 L 61.0 6.0 L 60.0 6.0 L 59.0 6.0 L 58.0 6.0 L 57.0 6.333333333333333 L 56.0 7.0 L 55.0 8.0 L 54.0 9.0 L 53.0 10.0 L 52.0 11.0 L 51.0 12.0 L 50.0 13.0 L 49.0 13.666666666666666 L 48.0 14.0 L 47.0 14.0 L 46.0 14.0 L 45.0 14.0 L 44.0 13.666666666666666 L 43.0 13.333333333333334 L 42.0 12.666666666666666 L 41.0 12.0 L 40.0 11.0 L 39.0 10.333333333333334 L 38.0 10.0 L 37.333333333333336 10.333333333333334 L 36.666666666666664 11.0 L 36.333333333333336 12.0 L 36.0 13.0 L 36.0 14.0 L 36.0 15.0 L 35.666666666666664 16.0 L 35.0 17.0 L 34.0 18.0 L 33.0 19.0 L 32.0 20.0 L 31.0 21.0 L 30.0 22.0 L 29.333333333333332 23.0 L 29.0 24.0 L 29.0 25.0 L 29.0 26.0 L 29.0 27.0 L 29.333333333333332 28.0 L 29.666666666666668 29.0 L 30.333333333333332 30.0 L 30.333333333333332 31.0 L 30.0 32.0 L 29.0 33.0 L 28.0 34.0 L 27.0 35.0 L 26.0 36.0 L 25.333333333333332 37.0 L 25.0 38.0 L 25.0 39.0 L 25.0 40.0 L 25.0 41.0 L 25.0 42.0 L 25.0 43.0 L 25.0 44.0 L 25.0 45.0 L 25.0 46.0 L 25.0 47.0 L 25.0 48.0 L 25.0 49.0 L 25.0 50.0 L 25.0 51.0 L 25.0 52.0 L 25.0 53.0 L 25.0 54.0 L 24.666666666666668 55.0 L 24.333333333333332 56.0 L 24.0 57.0 L 24.0 58.0 L 24.0 59.0 L 24.0 60.0 L 24.0 61.0 L 24.0 62.0 L 23.666666666666668 63.0 L 23.333333333333332 64.0 L 23.0 65.0 L 23.0 66.0 L 23.0 67.0 L 23.0 68.0 L 23.333333333333332 69.0 L 23.666666666666668 70.0 L 24.0 71.0 L 24.333333333333332 72.0 L 25.0 73.0 L 26.0 74.0 L 27.0 75.0 L 28.0 76.0 L 29.0 77.0 L 30.0 78.0 L 30.666666666666668 79.0 L 31.0 80.0 L 30.666666666666668 81.0 L 30.0 82.0 L 29.0 83.0 L 28.0 83.66666666666667 L 27.0 84.0 L 26.333333333333332 84.33333333333333 L 26.0 85.0 L 26.333333333333332 86.0 L 27.0 86.66666666666667 L 28.0 87.0 L 29.0 87.33333333333333 L 30.0 87.66666666666667 L 31.0 88.0 L 32.0 88.33333333333333 L 33.0 89.0 L 34.0 89.66666666666667 L 35.0 90.33333333333333 L 36.0 91.0 L 37.0 91.66666666666667 L 38.0 92.33333333333333 L 39.0 92.66666666666667 L 40.0 93.0 L 41.0 93.33333333333333 L 42.0 93.66666666666667 L 43.0 94.0 L 44.0 94.33333333333333 L 45.0 94.66666666666667 L 46.0 95.0 L 46.666666666666664 94.66666666666667 L 47.0 94.0 L 47.0 93.0 L 47.0 92.0 L 46.666666666666664 91.0 L 46.0 90.0 L 45.0 89.0 L 44.0 88.0 L 43.0 87.0 L 42.0 86.0 L 41.0 85.0 L 40.0 84.0 L 39.0 83.0 L 38.0 82.0 L 37.333333333333336 81.0 L 36.666666666666664 80.0 L 36.0 79.0 L 35.333333333333336 78.0 L 34.666666666666664 77.0 L 34.333333333333336 76.0 L 33.666666666666664 75.0 L 33.333333333333336 74.0 L 32.666666666666664 73.0 L 32.0 72.0 L 31.0 71.0 L 30.0 70.0 L 29.0 69.0 L 28.0 68.0 L 27.333333333333332 67.0 L 26.666666666666668 66.0 L 26.333333333333332 65.0 L 26.0 64.0 L 26.0 63.0 L 26.0 62.0 L 26.0 61.0 L 26.333333333333332 60.0 L 26.666666666666668 59.0 L 27.333333333333332 58.0 L 28.0 57.666666666666664 L 28.666666666666668 58.0 L 29.0 59.0 L 29.0 60.0 L 29.0 61.0 L 29.0 62.0 L 29.333333333333332 63.0 L 29.666666666666668 64.0 L 30.0 65.0 L 30.333333333333332 66.0 L 31.0 66.66666666666667 L 32.0 66.66666666666667 L 32.666666666666664 66.0 L 33.0 65.0 L 33.0 64.0 L 33.333333333333336 63.0 L 33.666666666666664 62.0 L 34.0 61.0 L 34.0 60.0 L 34.333333333333336 59.0 L 34.666666666666664 58.0 L 35.0 57.0 L 35.0 56.0 L 35.0 55.0 L 35.333333333333336 54.0 L 35.666666666666664 53.0 L 36.0 52.0 L 36.0 51.0 L 36.0 50.0 L 36.333333333333336 49.0 L 37.0 48.0 L 38.0 47.333333333333336 L 39.0 47.0 L 40.0 47.0 L 41.0 46.666666666666664 L 42.0 46.333333333333336 L 43.0 45.666666666666664 L 44.0 45.333333333333336 L 45.0 45.0 L 46.0 44.666666666666664 L 47.0 44.333333333333336 L 48.0 43.666666666666664 L 49.0 43.333333333333336 L 50.0 42.666666666666664 L 51.0 42.333333333333336 L 52.0 41.666666666666664 L 53.0 41.333333333333336 L 54.0 40.666666666666664 L 55.0 40.333333333333336 L 56.0 39.666666666666664 L 57.0 39.0 L 58.0 38.0 L 59.0 37.333333333333336 L 60.0 36.666666666666664 L 61.0 36.0 L 62.0 35.333333333333336 L 63.0 34.666666666666664 L 64.0 34.333333333333336 L 65.0 33.666666666666664 L 66.0 33.333333333333336 L 67.0 33.0 L 68.0 32.666666666666664 L 69.0 32.333333333333336 L 70.0 32.0 L 71.0 32.0 L 72.0 32.0 L 73.0 32.0 L 74.0 32.0 L 75.0 32.0 L 76.0 32.333333333333336 L 77.0 33.0 L 78.0 34.0 L 79.0 35.0 L 80.0 35.666666666666664 L 81.0 36.0 L 82.0 36.333333333333336 L 83.0 36.666666666666664 L 84.0 37.0 L 85.0 37.333333333333336 L 86.0 37.666666666666664 L 87.0 38.333333333333336 L 88.0 39.0 L 89.0 40.0 L 90.0 41.0 L 91.0 42.0 L 91.66666666666667 43.0 L 92.0 44.0 L 92.33333333333333 45.0 L 92.66666666666667 46.0 L 93.0 47.0 L 93.33333333333333 48.0 L 93.66666666666667 49.0 L 94.0 50.0 L 94.0 51.0 L 94.0 52.0 L 94.0 53.0 L 94.0 54.0 L 94.33333333333333 55.0 L 94.66666666666667 56.0 L 95.0 57.0 L 95.0 58.0 L 95.0 59.0 L 95.0 60.0 L 95.0 61.0 L 95.0 62.0 L 95.0 63.0 L 95.33333333333333 64.0 L 96.0 64.66666666666667 L 97.0 65.0 L 97.66666666666667 64.66666666666667 L 98.33333333333333 64.0 L 98.66666666666667 63.0 L 99.33333333333333 62.0 L 99.66666666666667 61.0 L 100.33333333333333 60.0 L 101.0 59.666666666666664 L 101.66666666666667 60.0 L 102.0 61.0 L 102.0 62.0 L 102.0 63.0 L 102.0 64.0 L 101.66666666666667 65.0 L 101.33333333333333 66.0 L 100.66666666666667 67.0 L 100.0 68.0 L 99.0 69.0 L 98.0 70.0 L 97.0 71.0 L 96.0 72.0 L 95.33333333333333 73.0 L 94.66666666666667 74.0 L 94.33333333333333 75.0 L 93.66666666666667 76.0 L 93.33333333333333 77.0 L 92.66666666666667 78.0 L 92.33333333333333 79.0 L 91.66666666666667 80.0 L 91.0 81.0 L 90.33333333333333 82.0 L 89.66666666666667 83.0 L 89.0 84.0 L 88.0 85.0 L 87.0 86.0 L 86.0 87.0 L 85.0 88.0 L 84.0 89.0 L 83.33333333333333 90.0 L 83.0 91.0 L 83.33333333333333 91.66666666666667 L 84.0 92.0 L 85.0 92.0 L 86.0 92.33333333333333 L 87.0 92.66666666666667 L 88.0 93.0 L 89.0 93.0 L 90.0 92.66666666666667 L 91.0 92.0 L 92.0 91.33333333333333 L 93.0 90.66666666666667 L 94.0 90.0 L 95.0 89.0 L 96.0 88.33333333333333 L 97.0 88.0 L 98.0 87.66666666666667 L 99.0 87.33333333333333 L 100.0 87.0 L 100.5 87.0 Z" stroke="none" fill="rgb(230,61,0)" />
<path d="M 105.5 35.5 L 105.66666666666667 36.0 L 106.0 37.0 L 106.0 38.0 L 106.33333333333333 38.666666666666664 L 107.0 39.0 L 107.66666666666667 38.666666666666664 L 108.0 38.0 L 108.0 37.0 L 108.0 36.0 L 108.0 35.0 L 107.66666666666667 34.0 L 107.33333333333333 33.0 L 107.0 32.0 L 107.0 31.0 L 106.66666666666667 30.0 L 106.33333333333333 29.0 L 105.66666666666667 28.0 L 105.33333333333333 27.0 L 105.0 26.0 L 104.66666666666667 25.0 L 104.0 24.0 L 103.33333333333333 23.0 L 102.66666666666667 22.0 L 102.0 21.0 L 101.0 20.0 L 100.0 19.0 L 99.0 18.333333333333332 L 98.0 18.0 L 97.33333333333333 18.333333333333332 L 97.0 19.0 L 97.0 20.0 L 97.33333333333333 20.666666666666668 L 98.0 21.333333333333332 L 99.0 22.0 L 99.66666666666667 23.0 L 100.33333333333333 24.0 L 101.0 25.0 L 101.66666666666667 26.0 L 102.33333333333333 27.0 L 103.0 28.0 L 103.66666666666667 29.0 L 104.33333333333333 30.0 L 104.66666666666667 31.0 L 105.0 32.0 L 105.0 33.0 L 105.0 34.0 L 105.0 34.5 Z" stroke="none" fill="rgb(241,107,22)" />
<path d="M 29.5 33.5 L 30.0 33.0 L 30.666666666666668 32.0 L 31.0 31.0 L 30.666666666666668 30.0 L 30.333333333333332 29.0 L 29.666666666666668 28.0 L 29.333333333333332 27.0 L 29.0 26.0 L 29.0 25.0 L 29.0 24.0 L 28.666666666666668 23.0 L 28.0 22.0 L 27.0 21.333333333333332 L 26.0 21.0 L 25.333333333333332 21.333333333333332 L 24.666666666666668 22.0 L 24.333333333333332 23.0 L 24.0 24.0 L 24.0 25.0 L 24.0 26.0 L 24.0 27.0 L 24.0 28.0 L 24.333333333333332 29.0 L 24.666666666666668 30.0 L 25.0 31.0 L 25.0 32.0 L 25.0 33.0 L 25.333333333333332 34.0 L 26.0 34.666666666666664 L 27.0 35.0 L 28.0 34.666666666666664 L 28.5 34.5 Z" stroke="none" fill="rgb(241,107,22)" />
<path d="M 99.5 25.5 L 100.0 26.0 L 101.0 26.666666666666668 L 101.66666666666667 26.666666666666668 L 102.0 26.0 L 101.66666666666667 25.0 L 101.0 24.0 L 100.33333333333333 23.0 L 99.66666666666667 22.0 L 99.0 21.333333333333332 L 98.0 21.0 L 97.33333333333333 21.333333333333332 L 97.0 22.0 L 97.33333333333333 23.0 L 98.0 24.0 L 98.5 24.5 Z" stroke="none" fill="rgb(238,95,16)" />
<path d="M 104.5 47.5 L 105.0 48.0 L 106.0 48.666666666666664 L 106.66666666666667 48.666666666666664 L 107.0 48.0 L 107.0 47.0 L 107.0 46.0 L 107.0 45.0 L 107.0 44.0 L 107.0 43.0 L 107.0 42.0 L 106.66666666666667 41.0 L 106.33333333333333 40.0 L 106.0 39.0 L 106.0 38.0 L 106.0 37.0 L 106.0 36.0 L 105.66666666666667 35.0 L 105.33333333333333 34.0 L 104.66666666666667 33.0 L 104.0 32.0 L 103.33333333333333 31.0 L 102.66666666666667 30.0 L 102.33333333333333 29.0 L 102.0 28.0 L 101.66666666666667 27.0 L 101.0 26.0 L 100.0 25.0 L 99.0 24.0 L 98.0 23.333333333333332 L 97.33333333333333 23.333333333333332 L 97.0 24.0 L 97.33333333333333 25.0 L 98.0 26.0 L 98.66666666666667 27.0 L 99.33333333333333 28.0 L 99.66666666666667 29.0 L 100.33333333333333 30.0 L 100.66666666666667 31.0 L 101.33333333333333 32.0 L 101.66666666666667 33.0 L 102.33333333333333 34.0 L 102.66666666666667 35.0 L 103.0 36.0 L 103.0 37.0 L 103.33333333333333 38.0 L 103.66666666666667 39.0 L 104.0 40.0 L 104.0 41.0 L 104.0 42.0 L 104.0 43.0 L 104.0 44.0 L 104.0 45.0 L 104.0 46.0 L 104.0 46.5 Z" stroke="none" fill="rgb(234,77,8)" />
<path d="M 104.5 33.0 L 104.66666666666667 32.666666666666664 L 105.0 32.0 L 105.0 31.0 L 104.66666666666667 30.0 L 104.33333333333333 29.0 L 103.66666666666667 28.0 L 103.0 27.333333333333332 L 102.33333333333333 27.333333333333332 L 102.0 28.0 L 102.0 29.0 L 102.33333333333333 30.0 L 102.66666666666667 31.0 L 103.33333333333333 32.0 L 103.5 32.5 Z" stroke="none" fill="rgb(238,95,16)" />
<path d="M 59.5 96.0 L 60.0 96.0 L 61.0 96.0 L 62.0 96.0 L 63.0 96.0 L 64.0 96.0 L 65.0 96.0 L 66.0 96.0 L 67.0 96.0 L 68.0 96.0 L 69.0 96.0 L 70.0 96.0 L 71.0 96.0 L 72.0 96.0 L 73.0 96.0 L 74.0 95.66666666666667 L 75.0 95.33333333333333 L 76.0 95.0 L 77.0 95.0 L 78.0 95.0 L 79.0 95.0 L 80.0 95.0 L 81.0 95.0 L 82.0 95.0 L 82.66666666666667 94.66666666666667 L 83.0 94.0 L 83.0 93.0 L 83.0 92.0 L 83.33333333333333 91.0 L 84.0 90.0 L 85.0 89.0 L 86.0 88.0 L 87.0 87.0 L 88.0 86.0 L 89.0 85.0 L 89.66666666666667 84.0 L 90.33333333333333 83.0 L 91.0 82.0 L 91.66666666666667 81.0 L 92.33333333333333 80.0 L 92.66666666666667 79.0 L 93.33333333333333 78.0 L 93.66666666666667 77.0 L 94.33333333333333 76.0 L 94.66666666666667 75.0 L 95.33333333333333 74.0 L 96.0 73.0 L 96.66666666666667 72.0 L 96.66666666666667 71.0 L 96.66666666666667 70.0 L 96.66666666666667 69.0 L 97.0 68.0 L 97.0 67.0 L 97.0 66.0 L 96.66666666666667 65.0 L 96.0 64.0 L 95.33333333333333 63.0 L 95.0 62.0 L 95.0 61.0 L 95.0 60.0 L 95.0 59.0 L 95.0 58.0 L 95.0 57.0 L 95.0 56.0 L 94.66666666666667 55.0 L 94.33333333333333 54.0 L 94.0 53.0 L 94.0 52.0 L 94.0 51.0 L 94.0 50.0 L 94.0 49.0 L 93.66666666666667 48.0 L 93.33333333333333 47.0 L 93.0 46.0 L 92.66666666666667 45.0 L 92.33333333333333 44.0 L 92.0 43.0 L 91.66666666666667 42.0 L 91.0 41.0 L 90.0 40.0 L 89.0 39.0 L 88.0 38.333333333333336 L 87.0 37.666666666666664 L 86.0 37.333333333333336 L 85.0 37.0 L 84.0 36.666666666666664 L 83.0 36.333333333333336 L 82.0 36.0 L 81.0 35.666666666666664 L 80.0 35.0 L 79.0 34.0 L 78.0 33.0 L 77.0 32.333333333333336 L 76.0 32.0 L 75.0 32.0 L 74.0 32.0 L 73.0 32.0 L 72.0 32.0 L 71.0 32.0 L 70.0 32.0 L 69.0 32.0 L 68.0 32.333333333333336 L 67.0 32.666666666666664 L 66.0 33.0 L 65.0 33.333333333333336 L 64.0 33.666666666666664 L 63.0 34.333333333333336 L 62.0 34.666666666666664 L 61.0 35.333333333333336 L 60.0 36.0 L 59.0 36.666666666666664 L 58.0 37.333333333333336 L 57.0 38.0 L 56.0 39.0 L 55.0 39.666666666666664 L 54.0 40.333333333333336 L 53.0 40.666666666666664 L 52.0 41.333333333333336 L 51.0 41.666666666666664 L 50.0 42.333333333333336 L 49.0 42.666666666666664 L 48.0 43.333333333333336 L 47.0 43.666666666666664 L 46.0 44.333333333333336 L 45.0 44.666666666666664 L 44.0 45.0 L 43.0 45.333333333333336 L 42.0 45.666666666666664 L 41.0 46.333333333333336 L 40.0 46.666666666666664 L 39.0 47.0 L 38.0 47.0 L 37.0 47.333333333333336 L 36.333333333333336 48.0 L 36.0 49.0 L 36.0 50.0 L 36.0 51.0 L 35.666666666666664 52.0 L 35.333333333333336 53.0 L 35.0 54.0 L 35.0 55.0 L 35.0 56.0 L 34.666666666666664 57.0 L 34.333333333333336 58.0 L 34.0 59.0 L 34.0 60.0 L 33.666666666666664 61.0 L 33.333333333333336 62.0 L 33.0 63.0 L 33.0 64.0 L 32.666666666666664 65.0 L 32.333333333333336 66.0 L 32.0 67.0 L 32.0 68.0 L 32.0 69.0 L 32.0 70.0 L 32.0 71.0 L 32.0 72.0 L 32.333333333333336 73.0 L 32.666666666666664 74.0 L 33.333333333333336 75.0 L 33.666666666666664 76.0 L 34.333333333333336 77.0 L 34.666666666666664 78.0 L 35.333333333333336 79.0 L 36.0 80.0 L 36.666666666666664 81.0 L 37.333333333333336 82.0 L 38.0 83.0 L 39.0 84.0 L 40.0 85.0 L 41.0 86.0 L 42.0 87.0 L 43.0 88.0 L 44.0 89.0 L 45.0 90.0 L 46.0 91.0 L 47.0 92.0 L 48.0 93.0 L 49.0 94.0 L 50.0 94.66666666666667 L 51.0 95.0 L 52.0 95.0 L 53.0 95.33333333333333 L 54.0 95.66666666666667 L 55.0 96.0 L 56.0 96.0 L 57.0 96.0 L 58.0 96.0 L 58.5 96.0 Z" stroke="none" fill="rgb(249,221,189)" />
<path d="M 108.0 41.5 L 108.0 41.0 L 108.0 40.0 L 107.66666666666667 39.333333333333336 L 107.0 39.0 L 106.33333333333333 39.333333333333336 L 106.0 40.0 L 106.33333333333333 41.0 L 107.0 41.666666666666664 L 107.5 42.0 Z" stroke="none" fill="rgb(238,95,16)" />
<path d="M 49.5 51.0 L 50.0 51.0 L 51.0 51.333333333333336 L 52.0 51.666666666666664 L 53.0 52.0 L 54.0 51.666666666666664 L 54.666666666666664 51.0 L 54.666666666666664 50.0 L 54.0 49.0 L 53.0 48.0 L 52.0 47.333333333333336 L 51.0 47.0 L 50.0 47.0 L 49.0 47.0 L 48.0 47.0 L 47.0 47.0 L 46.0 47.0 L 45.0 47.0 L 44.0 47.333333333333336 L 43.0 47.666666666666664 L 42.0 48.333333333333336 L 41.333333333333336 49.0 L 41.0 50.0 L 41.333333333333336 50.666666666666664 L 42.0 51.0 L 43.0 51.0 L 44.0 51.0 L 45.0 51.0 L 46.0 51.0 L 47.0 51.0 L 48.0 51.0 L 48.5 51.0 Z" stroke="none" fill="rgb(68,66,66)" />
<path d="M 82.5 51.0 L 83.0 51.0 L 84.0 51.333333333333336 L 85.0 51.666666666666664 L 86.0 52.0 L 86.66666666666667 51.666666666666664 L 87.0 51.0 L 87.0 50.0 L 86.66666666666667 49.0 L 86.0 48.0 L 85.0 47.333333333333336 L 84.0 47.0 L 83.0 47.0 L 82.0 47.0 L 81.0 47.0 L 80.0 47.0 L 79.0 47.0 L 78.0 47.0 L 77.0 47.333333333333336 L 76.0 47.666666666666664 L 75.0 48.333333333333336 L 74.0 49.0 L 73.33333333333333 50.0 L 73.33333333333333 51.0 L 74.0 51.666666666666664 L 75.0 52.0 L 76.0 52.0 L 77.0 52.0 L 78.0 51.666666666666664 L 79.0 51.333333333333336 L 80.0 51.0 L 81.0 51.0 L 81.5 51.0 Z" stroke="none" fill="rgb(68,66,66)" />
<path d="M 23.0 50.5 L 23.0 50.0 L 22.666666666666668 49.333333333333336 L 22.0 49.333333333333336 L 21.333333333333332 50.0 L 20.666666666666668 51.0 L 20.333333333333332 52.0 L 20.0 53.0 L 19.666666666666668 54.0 L 19.333333333333332 55.0 L 19.0 56.0 L 19.0 57.0 L 19.333333333333332 57.666666666666664 L 20.0 58.0 L 20.666666666666668 57.666666666666664 L 21.0 57.0 L 21.0 56.0 L 21.333333333333332 55.0 L 21.666666666666668 54.0 L 22.0 53.0 L 22.333333333333332 52.0 L 22.5 51.5 Z" stroke="none" fill="rgb(241,107,22)" />
<path d="M 24.0 63.5 L 24.0 63.0 L 24.0 62.0 L 24.0 61.0 L 24.0 60.0 L 24.0 59.0 L 24.0 58.0 L 24.333333333333332 57.0 L 24.666666666666668 56.0 L 25.0 55.0 L 25.0 54.0 L 25.0 53.0 L 25.0 52.0 L 25.0 51.0 L 24.666666666666668 50.333333333333336 L 24.0 50.0 L 23.0 50.333333333333336 L 22.333333333333332 51.0 L 22.0 52.0 L 21.666666666666668 53.0 L 21.333333333333332 54.0 L 21.0 55.0 L 21.0 56.0 L 20.666666666666668 57.0 L 20.0 58.0 L 19.333333333333332 59.0 L 19.333333333333332 60.0 L 20.0 61.0 L 20.666666666666668 62.0 L 21.333333333333332 63.0 L 22.0 63.666666666666664 L 23.0 64.0 L 23.5 64.0 Z" stroke="none" fill="rgb(238,95,16)" />
<path d="M 52.0 61.5 L 52.0 61.0 L 52.0 60.0 L 52.0 59.0 L 52.0 58.0 L 52.0 57.0 L 51.666666666666664 56.0 L 51.0 55.0 L 50.0 54.333333333333336 L 49.0 54.0 L 48.0 54.0 L 47.0 54.0 L 46.0 54.333333333333336 L 45.0 54.666666666666664 L 44.0 55.333333333333336 L 43.333333333333336 56.0 L 43.0 57.0 L 43.0 58.0 L 43.0 59.0 L 43.0 60.0 L 43.333333333333336 61.0 L 44.0 62.0 L 45.0 63.0 L 46.0 63.666666666666664 L 47.0 64.0 L 48.0 64.0 L 49.0 64.0 L 50.0 63.666666666666664 L 51.0 63.0 L 51.5 62.5 Z" stroke="none" fill="rgb(49,45,45)" />
<path d="M 81.5 64.0 L 82.0 64.0 L 83.0 63.666666666666664 L 84.0 63.0 L 84.66666666666667 62.0 L 85.0 61.0 L 85.0 60.0 L 85.0 59.0 L 85.0 58.0 L 85.0 57.0 L 84.66666666666667 56.0 L 84.0 55.0 L 83.0 54.333333333333336 L 82.0 54.0 L 81.0 54.0 L 80.0 54.0 L 79.0 54.0 L 78.0 54.333333333333336 L 77.0 55.0 L 76.33333333333333 56.0 L 76.0 57.0 L 76.0 58.0 L 76.0 59.0 L 76.0 60.0 L 76.33333333333333 61.0 L 77.0 62.0 L 78.0 63.0 L 79.0 63.666666666666664 L 80.0 64.0 L 80.5 64.0 Z" stroke="none" fill="rgb(49,45,45)" />
<path d="M 30.5 71.5 L 31.0 71.66666666666667 L 31.666666666666668 71.66666666666667 L 32.0 71.0 L 32.0 70.0 L 32.0 69.0 L 32.0 68.0 L 31.666666666666668 67.0 L 31.0 66.0 L 30.333333333333332 65.0 L 30.0 64.0 L 29.666666666666668 63.0 L 29.333333333333332 62.0 L 29.0 61.0 L 29.0 60.0 L 29.0 59.0 L 29.0 58.0 L 28.666666666666668 57.333333333333336 L 28.0 57.0 L 27.333333333333332 57.333333333333336 L 26.666666666666668 58.0 L 26.333333333333332 59.0 L 26.0 60.0 L 26.0 61.0 L 26.0 62.0 L 26.0 63.0 L 26.0 64.0 L 26.0 65.0 L 26.333333333333332 66.0 L 26.666666666666668 67.0 L 27.333333333333332 68.0 L 28.0 69.0 L 29.0 70.0 L 29.5 70.5 Z" stroke="none" fill="rgb(237,195,145)" />
<path d="M 98.5 70.5 L 99.0 70.0 L 100.0 69.0 L 100.66666666666667 68.0 L 101.33333333333333 67.0 L 101.66666666666667 66.0 L 102.0 65.0 L 102.0 64.0 L 102.0 63.0 L 102.0 62.0 L 102.0 61.0 L 102.0 60.0 L 101.66666666666667 59.333333333333336 L 101.0 59.0 L 100.33333333333333 59.333333333333336 L 99.66666666666667 60.0 L 99.33333333333333 61.0 L 98.66666666666667 62.0 L 98.33333333333333 63.0 L 97.66666666666667 64.0 L 97.33333333333333 65.0 L 97.0 66.0 L 97.0 67.0 L 96.66666666666667 68.0 L 96.33333333333333 69.0 L 96.0 70.0 L 96.33333333333333 70.66666666666667 L 97.0 71.0 L 97.5 71.0 Z" stroke="none" fill="rgb(237,195,145)" />
<path d="M 61.5 72.0 L 62.0 72.0 L 63.0 72.0 L 64.0 72.0 L 65.0 72.0 L 66.0 72.0 L 67.0 71.66666666666667 L 67.66666666666667 71.0 L 68.0 70.0 L 68.0 69.0 L 67.66666666666667 68.33333333333333 L 67.0 68.0 L 66.0 68.0 L 65.0 68.0 L 64.0 68.0 L 63.0 68.0 L 62.0 68.0 L 61.0 68.0 L 60.333333333333336 68.33333333333333 L 60.0 69.0 L 60.0 70.0 L 60.333333333333336 71.0 L 60.5 71.5 Z" stroke="none" fill="rgb(219,166,137)" />
<path d="M 59.5 83.0 L 60.0 83.0 L 61.0 83.33333333333333 L 62.0 83.66666666666667 L 63.0 84.0 L 64.0 84.0 L 65.0 84.0 L 66.0 84.0 L 67.0 84.0 L 68.0 84.0 L 69.0 83.66666666666667 L 70.0 83.33333333333333 L 71.0 82.66666666666667 L 72.0 82.0 L 73.0 81.0 L 74.0 80.0 L 74.66666666666667 79.0 L 75.0 78.0 L 75.0 77.0 L 74.66666666666667 76.33333333333333 L 74.0 76.0 L 73.0 76.0 L 72.0 76.33333333333333 L 71.0 76.66666666666667 L 70.0 77.0 L 69.0 77.0 L 68.0 77.0 L 67.0 77.0 L 66.0 77.0 L 65.0 77.0 L 64.0 77.0 L 63.0 77.0 L 62.0 77.0 L 61.0 77.0 L 60.0 77.0 L 59.0 76.66666666666667 L 58.0 76.33333333333333 L 57.0 76.0 L 56.0 76.0 L 55.0 76.0 L 54.0 76.0 L 53.333333333333336 76.33333333333333 L 53.0 77.0 L 53.0 78.0 L 53.333333333333336 79.0 L 54.0 80.0 L 55.0 81.0 L 56.0 81.66666666666667 L 57.0 82.33333333333333 L 58.0 82.66666666666667 L 58.5 83.0 Z" stroke="none" fill="rgb(68,66,66)" />
<path d="M 49.0 93.5 L 48.666666666666664 93.0 L 48.0 92.33333333333333 L 47.333333333333336 92.33333333333333 L 47.0 93.0 L 47.333333333333336 93.66666666666667 L 48.0 94.0 L 48.5 94.0 Z" stroke="none" fill="rgb(241,107,22)" />
<path d="M 87.0 93.5 L 87.0 93.0 L 86.66666666666667 92.33333333333333 L 86.0 92.0 L 85.0 92.0 L 84.0 92.0 L 83.33333333333333 92.33333333333333 L 83.0 93.0 L 83.33333333333333 93.66666666666667 L 84.0 94.0 L 85.0 94.0 L 86.0 94.0 L 86.5 94.0 Z" stroke="none" fill="rgb(241,107,22)" />
<path d="M 49.5 95.0 L 49.666666666666664 94.66666666666667 L 49.666666666666664 94.33333333333333 L 49.0 94.0 L 48.0 94.0 L 47.333333333333336 94.33333333333333 L 47.333333333333336 94.66666666666667 L 48.0 95.0 L 48.5 95.0 Z" stroke="none" fill="rgb(242,123,33)" />
<path d="M 40.5 104.0 L 41.0 104.0 L 42.0 104.0 L 43.0 104.0 L 44.0 104.0 L 45.0 104.0 L 46.0 104.0 L 47.0 104.0 L 48.0 104.0 L 49.0 104.0 L 50.0 104.0 L 51.0 104.0 L 52.0 104.0 L 53.0 104.0 L 54.0 104.0 L 54.666666666666664 103.66666666666667 L 55.0 103.0 L 55.0 102.0 L 55.0 101.0 L 55.0 100.0 L 55.0 99.0 L 55.0 98.0 L 55.0 97.0 L 54.666666666666664 96.0 L 54.0 95.33333333333333 L 53.0 95.0 L 52.0 95.0 L 51.0 95.0 L 50.0 95.0 L 49.0 95.0 L 48.0 95.0 L 47.0 95.0 L 46.0 95.33333333333333 L 45.0 95.66666666666667 L 44.0 96.0 L 43.0 96.0 L 42.0 96.0 L 41.0 96.0 L 40.0 96.33333333333333 L 39.0 96.66666666666667 L 38.0 97.0 L 37.0 97.0 L 36.0 97.33333333333333 L 35.0 97.66666666666667 L 34.0 98.0 L 33.0 98.33333333333333 L 32.0 98.66666666666667 L 31.0 99.0 L 30.0 99.33333333333333 L 29.0 99.66666666666667 L 28.0 100.33333333333333 L 27.0 100.66666666666667 L 26.0 101.33333333333333 L 25.0 101.66666666666667 L 24.333333333333332 102.33333333333333 L 24.0 103.0 L 24.333333333333332 103.66666666666667 L 25.0 104.0 L 26.0 104.0 L 27.0 104.0 L 28.0 104.0 L 29.0 104.0 L 30.0 104.0 L 31.0 104.0 L 32.0 104.0 L 33.0 104.0 L 34.0 104.0 L 35.0 104.0 L 36.0 104.0 L 37.0 104.0 L 38.0 104.0 L 39.0 104.0 L 39.5 104.0 Z" stroke="none" fill="rgb(246,136,32)" />
<path d="M 78.5 104.0 L 79.0 104.0 L 80.0 104.0 L 81.0 104.0 L 82.0 104.0 L 83.0 104.0 L 84.0 104.0 L 85.0 104.0 L 86.0 104.0 L 87.0 104.0 L 88.0 104.0 L 89.0 104.0 L 90.0 104.0 L 91.0 104.0 L 92.0 104.0 L 93.0 104.0 L 94.0 104.0 L 95.0 104.0 L 96.0 104.0 L 97.0 104.0 L 98.0 104.0 L 99.0 104.0 L 100.0 104.0 L 101.0 104.0 L 102.0 104.0 L 102.66666666666667 103.66666666666667 L 103.0 103.0 L 102.66666666666667 102.0 L 102.0 101.33333333333333 L 101.0 100.66666666666667 L 100.0 100.33333333333333 L 99.0 100.0 L 98.0 99.66666666666667 L 97.0 99.33333333333333 L 96.0 99.0 L 95.0 98.66666666666667 L 94.0 98.33333333333333 L 93.0 98.0 L 92.0 97.66666666666667 L 91.0 97.33333333333333 L 90.0 97.0 L 89.0 97.0 L 88.0 96.66666666666667 L 87.0 96.33333333333333 L 86.0 96.0 L 85.0 96.0 L 84.0 95.66666666666667 L 83.0 95.33333333333333 L 82.0 95.0 L 81.0 95.0 L 80.0 95.0 L 79.0 95.0 L 78.0 95.0 L 77.0 95.0 L 76.0 95.0 L 75.0 95.0 L 74.0 95.33333333333333 L 73.33333333333333 96.0 L 73.0 97.0 L 73.0 98.0 L 73.0 99.0 L 73.0 100.0 L 73.0 101.0 L 73.0 102.0 L 73.0 103.0 L 73.33333333333333 103.66666666666667 L 74.0 104.0 L 75.0 104.0 L 76.0 104.0 L 77.0 104.0 L 77.5 104.0 Z" stroke="none" fill="rgb(246,136,32)" />
<path d="M 72.5 105.5 L 72.66666666666667 105.0 L 73.0 104.0 L 73.0 103.0 L 73.0 102.0 L 73.0 101.0 L 73.0 100.0 L 73.0 99.0 L 73.0 98.0 L 73.0 97.0 L 72.66666666666667 96.33333333333333 L 72.0 96.0 L 71.0 96.0 L 70.0 96.0 L 69.0 96.0 L 68.0 96.0 L 67.0 96.0 L 66.0 96.0 L 65.0 96.0 L 64.0 96.0 L 63.0 96.0 L 62.0 96.0 L 61.0 96.0 L 60.0 96.0 L 59.0 96.0 L 58.0 96.0 L 57.0 96.0 L 56.0 96.0 L 55.333333333333336 96.33333333333333 L 55.0 97.0 L 55.0 98.0 L 55.0 99.0 L 55.0 100.0 L 55.0 101.0 L 55.0 102.0 L 55.0 103.0 L 55.0 104.0 L 55.333333333333336 105.0 L 56.0 106.0 L 57.0 106.66666666666667 L 58.0 107.33333333333333 L 59.0 108.0 L 60.0 108.66666666666667 L 61.0 109.0 L 62.0 109.0 L 63.0 109.0 L 64.0 109.0 L 65.0 109.0 L 66.0 109.0 L 67.0 109.0 L 68.0 109.0 L 68.66666666666667 108.66666666666667 L 69.33333333333333 108.0 L 70.0 107.33333333333333 L 71.0 106.66666666666667 L 71.5 106.5 Z" stroke="none" fill="rgb(237,195,145)" />
<path d="M 43.5 109.0 L 44.0 109.0 L 45.0 109.0 L 46.0 109.0 L 47.0 109.0 L 48.0 109.0 L 49.0 109.0 L 50.0 109.0 L 51.0 109.0 L 52.0 109.0 L 53.0 109.0 L 54.0 109.0 L 55.0 109.0 L 56.0 109.0 L 57.0 109.0 L 58.0 109.0 L 59.0 109.0 L 59.666666666666664 108.66666666666667 L 59.666666666666664 108.0 L 59.0 107.33333333333333 L 58.0 106.66666666666667 L 57.0 106.0 L 56.0 105.0 L 55.0 104.33333333333333 L 54.0 104.0 L 53.0 104.0 L 52.0 104.0 L 51.0 104.0 L 50.0 104.0 L 49.0 104.0 L 48.0 104.0 L 47.0 104.0 L 46.0 104.0 L 45.0 104.0 L 44.0 104.0 L 43.0 104.0 L 42.0 104.0 L 41.0 104.0 L 40.0 104.0 L 39.0 104.0 L 38.0 104.0 L 37.0 104.0 L 36.0 104.0 L 35.0 104.0 L 34.0 104.0 L 33.0 104.0 L 32.0 104.0 L 31.0 104.0 L 30.0 104.0 L 29.0 104.0 L 28.0 104.0 L 27.0 104.0 L 26.0 104.0 L 25.0 103.66666666666667 L 24.0 103.33333333333333 L 23.0 103.0 L 22.0 103.33333333333333 L 21.0 104.0 L 20.0 104.66666666666667 L 19.0 105.33333333333333 L 18.0 106.0 L 17.333333333333332 107.0 L 17.0 108.0 L 17.333333333333332 108.66666666666667 L 18.0 109.0 L 19.0 109.0 L 20.0 109.0 L 21.0 109.0 L 22.0 109.0 L 23.0 109.0 L 24.0 109.0 L 25.0 109.0 L 26.0 109.0 L 27.0 109.0 L 28.0 109.0 L 29.0 109.0 L 30.0 109.0 L 31.0 109.0 L 32.0 109.0 L 33.0 109.0 L 34.0 109.0 L 35.0 109.0 L 36.0 109.0 L 37.0 109.0 L 38.0 109.0 L 39.0 109.0 L 40.0 109.0 L 41.0 109.0 L 42.0 109.0 L 42.5 109.0 Z" stroke="none" fill="rgb(244,129,32)" />
<path d="M 95.5 109.0 L 96.0 109.0 L 97.0 109.0 L 98.0 109.0 L 99.0 109.0 L 100.0 109.0 L 101.0 109.0 L 102.0 109.0 L 103.0 109.0 L 104.0 109.0 L 105.0 109.0 L 106.0 109.0 L 107.0 109.0 L 108.0 109.0 L 109.0 109.0 L 110.0 109.0 L 110.66666666666667 108.66666666666667 L 110.66666666666667 108.0 L 110.0 107.0 L 109.0 106.0 L 108.0 105.0 L 107.0 104.33333333333333 L 106.0 103.66666666666667 L 105.0 103.33333333333333 L 104.0 103.0 L 103.0 103.33333333333333 L 102.0 103.66666666666667 L 101.0 104.0 L 100.0 104.0 L 99.0 104.0 L 98.0 104.0 L 97.0 104.0 L 96.0 104.0 L 95.0 104.0 L 94.0 104.0 L 93.0 104.0 L 92.0 104.0 L 91.0 104.0 L 90.0 104.0 L 89.0 104.0 L 88.0 104.0 L 87.0 104.0 L 86.0 104.0 L 85.0 104.0 L 84.0 104.0 L 83.0 104.0 L 82.0 104.0 L 81.0 104.0 L 80.0 104.0 L 79.0 104.0 L 78.0 104.0 L 77.0 104.0 L 76.0 104.0 L 75.0 104.0 L 74.0 104.0 L 73.0 104.33333333333333 L 72.0 105.0 L 71.0 106.0 L 70.0 106.66666666666667 L 69.33333333333333 107.33333333333333 L 69.0 108.0 L 69.33333333333333 108.66666666666667 L 70.0 109.0 L 71.0 109.0 L 72.0 109.0 L 73.0 109.0 L 74.0 109.0 L 75.0 109.0 L 76.0 109.0 L 77.0 109.0 L 78.0 109.0 L 79.0 109.0 L 80.0 109.0 L 81.0 109.0 L 82.0 109.0 L 83.0 109.0 L 84.0 109.0 L 85.0 109.0 L 86.0 109.0 L 87.0 109.0 L 88.0 109.0 L 89.0 109.0 L 90.0 109.0 L 91.0 109.0 L 92.0 109.0 L 93.0 109.0 L 94.0 109.0 L 94.5 109.0 Z" stroke="none" fill="rgb(244,129,32)" />
<path d="M 26.5 114.0 L 27.0 114.0 L 28.0 114.0 L 29.0 114.0 L 30.0 114.0 L 31.0 114.0 L 32.0 114.0 L 33.0 114.0 L 34.0 114.0 L 35.0 114.0 L 36.0 114.0 L 37.0 114.0 L 38.0 114.0 L 39.0 114.0 L 40.0 114.0 L 41.0 114.0 L 42.0 114.0 L 43.0 114.0 L 44.0 114.0 L 45.0 114.0 L 46.0 114.0 L 47.0 114.0 L 48.0 114.0 L 49.0 114.0 L 50.0 114.0 L 51.0 114.0 L 52.0 114.0 L 53.0 114.0 L 54.0 114.0 L 55.0 114.0 L 56.0 114.0 L 57.0 114.0 L 58.0 114.0 L 59.0 114.0 L 60.0 114.0 L 61.0 114.0 L 62.0 114.0 L 63.0 114.0 L 64.0 114.0 L 65.0 114.0 L 66.0 114.0 L 67.0 114.0 L 68.0 114.0 L 69.0 114.0 L 70.0 114.0 L 71.0 114.0 L 72.0 114.0 L 73.0 114.0 L 74.0 114.0 L 75.0 114.0 L 76.0 114.0 L 77.0 114.0 L 78.0 114.0 L 79.0 114.0 L 80.0 114.0 L 81.0 114.0 L 82.0 114.0 L 83.0 114.0 L 84.0 114.0 L 85.0 114.0 L 86.0 114.0 L 87.0 114.0 L 88.0 114.0 L 89.0 114.0 L 90.0 114.0 L 91.0 114.0 L 92.0 114.0 L 93.0 114.0 L 94.0 114.0 L 95.0 114.0 L 96.0 114.0 L 97.0 114.0 L 98.0 114.0 L 99.0 114.0 L 100.0 114.0 L 101.0 114.0 L 102.0 114.0 L 103.0 114.0 L 104.0 114.0 L 105.0 114.0 L 106.0 114.0 L 107.0 114.0 L 108.0 114.0 L 109.0 114.0 L 110.0 114.0 L 111.0 114.0 L 112.0 114.0 L 113.0 114.0 L 113.66666666666667 113.66666666666667 L 114.0 113.0 L 113.66666666666667 112.0 L 113.33333333333333 111.0 L 112.66666666666667 110.0 L 112.0 109.33333333333333 L 111.0 109.0 L 110.0 109.0 L 109.0 109.0 L 108.0 109.0 L 107.0 109.0 L 106.0 109.0 L 105.0 109.0 L 104.0 109.0 L 103.0 109.0 L 102.0 109.0 L 101.0 109.0 L 100.0 109.0 L 99.0 109.0 L 98.0 109.0 L 97.0 109.0 L 96.0 109.0 L 95.0 109.0 L 94.0 109.0 L 93.0 109.0 L 92.0 109.0 L 91.0 109.0 L 90.0 109.0 L 89.0 109.0 L 88.0 109.0 L 87.0 109.0 L 86.0 109.0 L 85.0 109.0 L 84.0 109.0 L 83.0 109.0 L 82.0 109.0 L 81.0 109.0 L 80.0 109.0 L 79.0 109.0 L 78.0 109.0 L 77.0 109.0 L 76.0 109.0 L 75.0 109.0 L 74.0 109.0 L 73.0 109.0 L 72.0 109.0 L 71.0 109.0 L 70.0 109.0 L 69.0 109.0 L 68.0 109.0 L 67.0 109.0 L 66.0 109.0 L 65.0 109.0 L 64.0 109.0 L 63.0 109.0 L 62.0 109.0 L 61.0 109.0 L 60.0 109.0 L 59.0 109.0 L 58.0 109.0 L 57.0 109.0 L 56.0 109.0 L 55.0 109.0 L 54.0 109.0 L 53.0 109.0 L 52.0 109.0 L 51.0 109.0 L 50.0 109.0 L 49.0 109.0 L 48.0 109.0 L 47.0 109.0 L 46.0 109.0 L 45.0 109.0 L 44.0 109.0 L 43.0 109.0 L 42.0 109.0 L 41.0 109.0 L 40.0 109.0 L 39.0 109.0 L 38.0 109.0 L 37.0 109.0 L 36.0 109.0 L 35.0 109.0 L 34.0 109.0 L 33.0 109.0 L 32.0 109.0 L 31.0 109.0 L 30.0 109.0 L 29.0 109.0 L 28.0 109.0 L 27.0 109.0 L 26.0 109.0 L 25.0 109.0 L 24.0 109.0 L 23.0 109.0 L 22.0 109.0 L 21.0 109.0 L 20.0 109.0 L 19.0 109.0 L 18.0 109.0 L 17.0 109.0 L 16.0 109.33333333333333 L 15.0 110.0 L 14.333333333333334 111.0 L 14.0 112.0 L 14.0 113.0 L 14.333333333333334 113.66666666666667 L 15.0 114.0 L 16.0 114.0 L 17.0 114.0 L 18.0 114.0 L 19.0 114.0 L 20.0 114.0 L 21.0 114.0 L 22.0 114.0 L 23.0 114.0 L 24.0 114.0 L 25.0 114.0 L 25.5 114.0 Z" stroke="none" fill="rgb(242,123,33)" />
<path d="M 95.5 119.0 L 96.0 119.0 L 97.0 119.0 L 98.0 119.0 L 99.0 119.0 L 100.0 119.0 L 101.0 119.0 L 102.0 119.0 L 103.0 119.0 L 104.0 119.0 L 105.0 119.0 L 106.0 119.0 L 107.0 119.0 L 108.0 119.0 L 109.0 119.0 L 110.0 119.0 L 111.0 119.0 L 112.0 119.0 L 113.0 119.0 L 114.0 119.0 L 115.0 119.0 L 115.66666666666667 118.66666666666667 L 116.0 118.0 L 115.66666666666667 117.0 L 115.33333333333333 116.0 L 115.0 115.0 L 114.66666666666667 114.33333333333333 L 114.0 114.0 L 113.0 114.0 L 112.0 114.0 L 111.0 114.0 L 110.0 114.0 L 109.0 114.0 L 108.0 114.0 L 107.0 114.0 L 106.0 114.0 L 105.0 114.0 L 104.0 114.0 L 103.0 114.0 L 102.0 114.0 L 101.0 114.0 L 100.0 114.0 L 99.0 114.0 L 98.0 114.0 L 97.0 114.0 L 96.0 114.0 L 95.0 114.0 L 94.0 114.0 L 93.0 114.0 L 92.0 114.0 L 91.0 114.0 L 90.0 114.0 L 89.0 114.0 L 88.0 114.0 L 87.0 114.0 L 86.0 114.0 L 85.0 114.0 L 84.0 114.0 L 83.0 114.0 L 82.0 114.0 L 81.0 114.0 L 80.0 114.0 L 79.0 114.0 L 78.0 114.0 L 77.0 114.0 L 76.0 114.0 L 75.0 114.0 L 74.0 114.0 L 73.0 114.0 L 72.0 114.0 L 71.0 114.0 L 70.0 114.0 L 69.0 114.0 L 68.0 114.0 L 67.0 114.0 L 66.0 114.0 L 65.0 114.0 L 64.0 114.0 L 63.0 114.0 L 62.0 114.0 L 61.0 114.0 L 60.0 114.0 L 59.0 114.0 L 58.0 114.0 L 57.0 114.0 L 56.0 114.0 L 55.0 114.0 L 54.0 114.0 L 53.0 114.0 L 52.0 114.0 L 51.0 114.0 L 50.0 114.0 L 49.0 114.0 L 48.0 114.0 L 47.0 114.0 L 46.0 114.0 L 45.0 114.0 L 44.0 114.0 L 43.0 114.0 L 42.0 114.0 L 41.0 114.0 L 40.0 114.0 L 39.0 114.0 L 38.0 114.0 L 37.0 114.0 L 36.0 114.0 L 35.0 114.0 L 34.0 114.0 L 33.0 114.0 L 32.0 114.0 L 31.0 114.0 L 30.0 114.0 L 29.0 114.0 L 28.0 114.0 L 27.0 114.0 L 26.0 114.0 L 25.0 114.0 L 24.0 114.0 L 23.0 114.0 L 22.0 114.0 L 21.0 114.0 L 20.0 114.0 L 19.0 114.0 L 18.0 114.0 L 17.0 114.0 L 16.0 114.0 L 15.0 114.0 L 14.0 114.0 L 13.333333333333334 114.33333333333333 L 13.0 115.0 L 12.666666666666666 116.0 L 12.333333333333334 117.0 L 12.0 118.0 L 12.333333333333334 118.66666666666667 L 13.0 119.0 L 14.0 119.0 L 15.0 119.0 L 16.0 119.0 L 17.0 119.0 L 18.0 119.0 L 19.0 119.0 L 20.0 119.0 L 21.0 119.0 L 22.0 119.0 L 23.0 119.0 L 24.0 119.0 L 25.0 119.0 L 26.0 119.0 L 27.0 119.0 L 28.0 119.0 L 29.0 119.0 L 30.0 119.0 L 31.0 119.0 L 32.0 119.0 L 33.0 119.0 L 34.0 119.0 L 35.0 119.0 L 36.0 119.0 L 37.0 119.0 L 38.0 119.0 L 39.0 119.0 L 40.0 119.0 L 41.0 119.0 L 42.0 119.0 L 43.0 119.0 L 44.0 119.0 L 45.0 119.0 L 46.0 119.0 L 47.0 119.0 L 48.0 119.0 L 49.0 119.0 L 50.0 119.0 L 51.0 119.0 L 52.0 119.0 L 53.0 119.0 L 54.0 119.0 L 55.0 119.0 L 56.0 119.0 L 57.0 119.0 L 58.0 119.0 L 59.0 119.0 L 60.0 119.0 L 61.0 119.0 L 62.0 119.0 L 63.0 119.0 L 64.0 119.0 L 65.0 119.0 L 66.0 119.0 L 67.0 119.0 L 68.0 119.0 L 69.0 119.0 L 70.0 119.0 L 71.0 119.0 L 72.0 119.0 L 73.0 119.0 L 74.0 119.0 L 75.0 119.0 L 76.0 119.0 L 77.0 119.0 L 78.0 119.0 L 79.0 119.0 L 80.0 119.0 L 81.0 119.0 L 82.0 119.0 L 83.0 119.0 L 84.0 119.0 L 85.0 119.0 L 86.0 119.0 L 87.0 119.0 L 88.0 119.0 L 89.0 119.0 L 90.0 119.0 L 91.0 119.0 L 92.0 119.0 L 93.0 119.0 L 94.0 119.0 L 94.5 119.0 Z" stroke="none" fill="rgb(240,117,34)" />
<path d="M 39.5 124.0 L 40.0 124.0 L 41.0 124.0 L 42.0 124.0 L 43.0 124.0 L 44.0 124.0 L 45.0 124.0 L 46.0 124.0 L 47.0 124.0 L 48.0 124.0 L 49.0 124.0 L 50.0 124.0 L 51.0 124.0 L 52.0 124.0 L 53.0 124.0 L 54.0 124.0 L 55.0 124.0 L 56.0 124.0 L 57.0 124.0 L 58.0 124.0 L 59.0 124.0 L 60.0 124.0 L 61.0 124.0 L 62.0 124.0 L 63.0 124.0 L 64.0 124.0 L 65.0 124.0 L 66.0 124.0 L 67.0 124.0 L 68.0 124.0 L 69.0 124.0 L 70.0 124.0 L 71.0 124.0 L 72.0 124.0 L 73.0 124.0 L 74.0 124.0 L 75.0 124.0 L 76.0 124.0 L 77.0 124.0 L 78.0 124.0 L 79.0 124.0 L 80.0 124.0 L 81.0 124.0 L 82.0 124.0 L 83.0 124.0 L 84.0 124.0 L 85.0 124.0 L 86.0 124.0 L 87.0 124.0 L 88.0 124.0 L 89.0 124.0 L 90.0 124.0 L 91.0 124.0 L 92.0 124.0 L 93.0 124.0 L 94.0 124.0 L 95.0 124.0 L 96.0 124.0 L 97.0 124.0 L 98.0 124.0 L 99.0 124.0 L 100.0 124.0 L 101.0 124.0 L 102.0 124.0 L 103.0 124.0 L 104.0 124.0 L 105.0 124.0 L 106.0 124.0 L 107.0 124.0 L 108.0 124.0 L 109.0 124.0 L 110.0 124.0 L 111.0 124.0 L 112.0 124.0 L 113.0 124.0 L 114.0 124.0 L 115.0 124.0 L 115.66666666666667 123.66666666666667 L 116.0 123.0 L 116.0 122.0 L 116.0 121.0 L 116.0 120.0 L 115.66666666666667 119.33333333333333 L 115.0 119.0 L 114.0 119.0 L 113.0 119.0 L 112.0 119.0 L 111.0 119.0 L 110.0 119.0 L 109.0 119.0 L 108.0 119.0 L 107.0 119.0 L 106.0 119.0 L 105.0 119.0 L 104.0 119.0 L 103.0 119.0 L 102.0 119.0 L 101.0 119.0 L 100.0 119.0 L 99.0 119.0 L 98.0 119.0 L 97.0 119.0 L 96.0 119.0 L 95.0 119.0 L 94.0 119.0 L 93.0 119.0 L 92.0 119.0 L 91.0 119.0 L 90.0 119.0 L 89.0 119.0 L 88.0 119.0 L 87.0 119.0 L 86.0 119.0 L 85.0 119.0 L 84.0 119.0 L 83.0 119.0 L 82.0 119.0 L 81.0 119.0 L 80.0 119.0 L 79.0 119.0 L 78.0 119.0 L 77.0 119.0 L 76.0 119.0 L 75.0 119.0 L 74.0 119.0 L 73.0 119.0 L 72.0 119.0 L 71.0 119.0 L 70.0 119.0 L 69.0 119.0 L 68.0 119.0 L 67.0 119.0 L 66.0 119.0 L 65.0 119.0 L 64.0 119.0 L 63.0 119.0 L 62.0 119.0 L 61.0 119.0 L 60.0 119.0 L 59.0 119.0 L 58.0 119.0 L 57.0 119.0 L 56.0 119.0 L 55.0 119.0 L 54.0 119.0 L 53.0 119.0 L 52.0 119.0 L 51.0 119.0 L 50.0 119.0 L 49.0 119.0 L 48.0 119.0 L 47.0 119.0 L 46.0 119.0 L 45.0 119.0 L 44.0 119.0 L 43.0 119.0 L 42.0 119.0 L 41.0 119.0 L 40.0 119.0 L 39.0 119.0 L 38.0 119.0 L 37.0 119.0 L 36.0 119.0 L 35.0 119.0 L 34.0 119.0 L 33.0 119.0 L 32.0 119.0 L 31.0 119.0 L 30.0 119.0 L 29.0 119.0 L 28.0 119.0 L 27.0 119.0 L 26.0 119.0 L 25.0 119.0 L 24.0 119.0 L 23.0 119.0 L 22.0 119.0 L 21.0 119.0 L 20.0 119.0 L 19.0 119.0 L 18.0 119.0 L 17.0 119.0 L 16.0 119.0 L 15.0 119.0 L 14.0 119.0 L 13.0 119.0 L 12.333333333333334 119.33333333333333 L 12.0 120.0 L 12.0 121.0 L 12.0 122.0 L 12.0 123.0 L 12.333333333333334 123.66666666666667 L 13.0 124.0 L 14.0 124.0 L 15.0 124.0 L 16.0 124.0 L 17.0 124.0 L 18.0 124.0 L 19.0 124.0 L 20.0 124.0 L 21.0 124.0 L 22.0 124.0 L 23.0 124.0 L 24.0 124.0 L 25.0 124.0 L 26.0 124.0 L 27.0 124.0 L 28.0 124.0 L 29.0 124.0 L 30.0 124.0 L 31.0 124.0 L 32.0 124.0 L 33.0 124.0 L 34.0 124.0 L 35.0 124.0 L 36.0 124.0 L 37.0 124.0 L 38.0 124.0 L 38.5 124.0 Z" stroke="none" fill="rgb(237,111,35)" />
</svg>
