<?xml version="1.0" encoding="UTF-8" standalone="no"?>
<!DOCTYPE svg PUBLIC "-//W3C//DTD SVG 1.1//EN"
"http://www.w3.org/Graphics/SVG/1.1/DTD/svg11.dtd">
<svg width="128" height="128" xmlns="http://www.w3.org/2000/svg" version="1.1">
<path d="M 104.5 128.0 L 105.0 128.0 L 106.0 128.0 L 107.0 128.0 L 108.0 128.0 L 109.0 128.0 L 110.0 128.0 L 111.0 128.0 L 112.0 128.0 L 113.0 128.0 L 114.0 128.0 L 115.0 128.0 L 116.0 128.0 L 117.0 128.0 L 118.0 128.0 L 119.0 128.0 L 120.0 128.0 L 121.0 128.0 L 122.0 128.0 L 123.0 128.0 L 124.0 128.0 L 125.0 128.0 L 126.0 128.0 L 127.0 128.0 L 127.66666666666667 127.66666666666667 L 128.0 127.0 L 128.0 126.0 L 128.0 125.0 L 128.0 124.0 L 128.0 123.0 L 128.0 122.0 L 128.0 121.0 L 128.0 120.0 L 128.0 119.0 L 128.0 118.0 L 128.0 117.0 L 128.0 116.0 L 128.0 115.0 L 128.0 114.0 L 128.0 113.0 L 128.0 112.0 L 128.0 111.0 L 128.0 110.0 L 128.0 109.0 L 128.0 108.0 L 128.0 107.0 L 128.0 106.0 L 128.0 105.0 L 128.0 104.0 L 128.0 103.0 L 128.0 102.0 L 128.0 101.0 L 128.0 100.0 L 128.0 99.0 L 128.0 98.0 L 128.0 97.0 L 128.0 96.0 L 128.0 95.0 L 128.0 94.0 L 128.0 93.0 L 128.0 92.0 L 128.0 91.0 L 128.0 90.0 L 128.0 89.0 L 128.0 88.0 L 128.0 87.0 L 128.0 86.0 L 128.0 85.0 L 128.0 84.0 L 128.0 83.0 L 128.0 82.0 L 128.0 81.0 L 128.0 80.0 L 128.0 79.0 L 128.0 78.0 L 128.0 77.0 L 128.0 76.0 L 128.0 75.0 L 128.0 74.0 L 128.0 73.0 L 128.0 72.0 L 128.0 71.0 L 128.0 70.0 L 128.0 69.0 L 128.0 68.0 L 128.0 67.0 L 128.0 66.0 L 128.0 65.0 L 128.0 64.0 L 128.0 63.0 L 128.0 62.0 L 128.0 61.0 L 128.0 60.0 L 128.0 59.0 L 128.0 58.0 L 128.0 57.0 L 128.0 56.0 L 128.0 55.0 L 128.0 54.0 L 128.0 53.0 L 128.0 52.0 L 128.0 51.0 L 128.0 50.0 L 128.0 49.0 L 128.0 48.0 L 128.0 47.0 L 128.0 46.0 L 128.0 45.0 L 128.0 44.0 L 128.0 43.0 L 128.0 42.0 L 128.0 41.0 L 128.0 40.0 L 128.0 39.0 L 128.0 38.0 L 128.0 37.0 L 128.0 36.0 L 128.0 35.0 L 128.0 34.0 L 128.0 33.0 L 128.0 32.0 L 128.0 31.0 L 128.0 30.0 L 128.0 29.0 L 128.0 28.0 L 128.0 27.0 L 128.0 26.0 L 128.0 25.0 L 128.0 24.0 L 128.0 23.0 L 128.0 22.0 L 128.0 21.0 L 128.0 20.0 L 128.0 19.0 L 128.0 18.0 L 128.0 17.0 L 128.0 16.0 L 128.0 15.0 L 128.0 14.0 L 128.0 13.0 L 128.0 12.0 L 128.0 11.0 L 128.0 10.0 L 128.0 9.0 L 128.0 8.0 L 128.0 7.0 L 128.0 6.0 L 128.0 5.0 L 128.0 4.0 L 128.0 3.0 L 128.0 2.0 L 128.0 1.0 L 127.66666666666667 0.3333333333333333 L 127.0 0.0 L 126.0 0.0 L 125.0 0.0 L 124.0 0.0 L 123.0 0.0 L 122.0 0.0 L 121.0 0.0 L 120.0 0.0 L 119.0 0.0 L 118.0 0.0 L 117.0 0.0 L 116.0 0.0 L 115.0 0.0 L 114.0 0.0 L 113.0 0.0 L 112.0 0.0 L 111.0 0.0 L 110.0 0.0 L 109.0 0.0 L 108.0 0.0 L 107.0 0.0 L 106.0 0.0 L 105.0 0.0 L 104.0 0.0 L 103.0 0.0 L 102.0 0.0 L 101.0 0.0 L 100.0 0.0 L 99.0 0.0 L 98.0 0.0 L 97.0 0.0 L 96.0 0.0 L 95.0 0.0 L 94.0 0.0 L 93.0 0.0 L 92.0 0.0 L 91.0 0.0 L 90.0 0.0 L 89.0 0.0 L 88.0 0.0 L 87.0 0.0 L 86.0 0.0 L 85.0 0.0 L 84.0 0.0 L 83.0 0.0 L 82.0 0.0 L 81.0 0.0 L 80.0 0.0 L 79.0 0.0 L 78.0 0.0 L 77.0 0.0 L 76.0 0.0 L 75.0 0.0 L 74.0 0.0 L 73.0 0.0 L 72.0 0.0 L 71.0 0.0 L 70.0 0.0 L 69.0 0.0 L 68.0 0.0 L 67.0 0.0 L 66.0 0.0 L 65.0 0.0 L 64.0 0.0 L 63.0 0.0 L 62.0 0.0 L 61.0 0.0 L 60.0 0.0 L 59.0 0.0 L 58.0 0.0 L 57.0 0.0 L 56.0 0.0 L 55.0 0.0 L 54.0 0.0 L 53.0 0.0 L 52.0 0.0 L 51.0 0.0 L 50.0 0.0 L 49.0 0.0 L 48.0 0.0 L 47.0 0.0 L 46.0 0.0 L 45.0 0.0 L 44.0 0.0 L 43.0 0.0 L 42.0 0.0 L 41.0 0.0 L 40.0 0.0 L 39.0 0.0 L 38.0 0.0 L 37.0 0.0 L 36.0 0.0 L 35.0 0.0 L 34.0 0.0 L 33.0 0.0 L 32.0 0.0 L 31.0 0.0 L 30.0 0.0 L 29.0 0.0 L 28.0 0.0 L 27.0 0.0 L 26.0 0.0 L 25.0 0.0 L 24.0 0.0 L 23.0 0.0 L 22.0 0.0 L 21.0 0.0 L 20.0 0.0 L 19.0 0.0 L 18.0 0.0 L 17.0 0.0 L 16.0 0.0 L 15.0 0.0 L 14.0 0.0 L 13.0 0.0 L 12.0 0.0 L 11.0 0.0 L 10.0 0.0 L 9.0 0.0 L 8.0 0.0 L 7.0 0.0 L 6.0 0.0 L 5.0 0.0 L 4.0 0.0 L 3.0 0.0 L 2.0 0.0 L 1.0 0.0 L 0.3333333333333333 0.3333333333333333 L 0.0 1.0 L 0.0 2.0 L 0.0 3.0 L 0.0 4.0 L 0.0 5.0 L 0.0 6.0 L 0.0 7.0 L 0.0 8.0 L 0.0 9.0 L 0.0 10.0 L 0.0 11.0 L 0.0 12.0 L 0.0 13.0 L 0.0 14.0 L 0.0 15.0 L 0.0 16.0 L 0.0 17.0 L 0.0 18.0 L 0.0 19.0 L 0.0 20.0 L 0.0 21.0 L 0.0 22.0 L 0.0 23.0 L 0.0 24.0 L 0.0 25.0 L 0.0 26.0 L 0.0 27.0 L 0.0 28.0 L 0.0 29.0 L 0.0 30.0 L 0.0 31.0 L 0.0 32.0 L 0.0 33.0 L 0.0 34.0 L 0.0 35.0 L 0.0 36.0 L 0.0 37.0 L 0.0 38.0 L 0.0 39.0 L 0.0 40.0 L 0.0 41.0 L 0.0 42.0 L 0.0 43.0 L 0.0 44.0 L 0.0 45.0 L 0.0 46.0 L 0.0 47.0 L 0.0 48.0 L 0.0 49.0 L 0.0 50.0 L 0.0 51.0 L 0.0 52.0 L 0.0 53.0 L 0.0 54.0 L 0.0 55.0 L 0.0 56.0 L 0.0 57.0 L 0.0 58.0 L 0.0 59.0 L 0.0 60.0 L 0.0 61.0 L 0.0 62.0 L 0.0 63.0 L 0.0 64.0 L 0.0 65.0 L 0.0 66.0 L 0.0 67.0 L 0.0 68.0 L 0.0 69.0 L 0.0 70.0 L 0.0 71.0 L 0.0 72.0 L 0.0 73.0 L 0.0 74.0 L 0.0 75.0 L 0.0 76.0 L 0.0 77.0 L 0.0 78.0 L 0.0 79.0 L 0.0 80.0 L 0.0 81.0 L 0.0 82.0 L 0.0 83.0 L 0.0 84.0 L 0.0 85.0 L 0.0 86.0 L 0.0 87.0 L 0.0 88.0 L 0.0 89.0 L 0.0 90.0 L 0.0 91.0 L 0.0 92.0 L 0.0 93.0 L 0.0 94.0 L 0.0 95.0 L 0.0 96.0 L 0.0 97.0 L 0.0 98.0 L 0.0 99.0 L 0.0 100.0 L 0.0 101.0 L 0.0 102.0 L 0.0 103.0 L 0.0 104.0 L 0.0 105.0 L 0.0 106.0 L 0.0 107.0 L 0.0 108.0 L 0.0 109.0 L 0.0 110.0 L 0.0 111.0 L 0.0 112.0 L 0.0 113.0 L 0.0 114.0 L 0.0 115.0 L 0.0 116.0 L 0.0 117.0 L 0.0 118.0 L 0.0 119.0 L 0.0 120.0 L 0.0 121.0 L 0.0 122.0 L 0.0 123.0 L 0.0 124.0 L 0.0 125.0 L 0.0 126.0 L 0.0 127.0 L 0.3333333333333333 127.66666666666667 L 1.0 128.0 L 2.0 128.0 L 3.0 128.0 L 4.0 128.0 L 5.0 128.0 L 6.0 128.0 L 7.0 128.0 L 8.0 128.0 L 9.0 128.0 L 10.0 128.0 L 11.0 128.0 L 12.0 128.0 L 13.0 128.0 L 14.0 128.0 L 15.0 128.0 L 16.0 128.0 L 17.0 128.0 L 18.0 128.0 L 19.0 128.0 L 20.0 128.0 L 21.0 128.0 L 22.0 128.0 L 23.0 128.0 L 24.0 128.0 L 25.0 128.0 L 26.0 128.0 L 27.0 128.0 L 28.0 128.0 L 29.0 128.0 L 30.0 128.0 L 31.0 128.0 L 32.0 128.0 L 33.0 128.0 L 34.0 128.0 L 35.0 128.0 L 36.0 128.0 L 37.0 128.0 L 38.0 128.0 L 39.0 128.0 L 40.0 128.0 L 41.0 128.0 L 42.0 128.0 L 43.0 128.0 L 44.0 128.0 L 45.0 128.0 L 46.0 128.0 L 47.0 128.0 L 48.0 128.0 L 49.0 128.0 L 50.0 128.0 L 51.0 128.0 L 52.0 128.0 L 53.0 128.0 L 54.0 128.0 L 55.0 128.0 L 56.0 128.0 L 57.0 128.0 L 58.0 128.0 L 59.0 128.0 L 60.0 128.0 L 61.0 128.0 L 62.0 128.0 L 63.0 128.0 L 64.0 128.0 L 65.0 128.0 L 66.0 128.0 L 67.0 128.0 L 68.0 128.0 L 69.0 128.0 L 70.0 128.0 L 71.0 128.0 L 72.0 128.0 L 73.0 128.0 L 74.0 128.0 L 75.0 128.0 L 76.0 128.0 L 77.0 128.0 L 78.0 128.0 L 79.0 128.0 L 80.0 128.0 L 81.0 128.0 L 82.0 128.0 L 83.0 128.0 L 84.0 128.0 L 85.0 128.0 L 86.0 128.0 L 87.0 128.0 L 88.0 128.0 L 89.0 128.0 L 90.0 128.0 L 91.0 128.0 L 92.0 128.0 L 93.0 128.0 L 94.0 128.0 L 95.0 128.0 L 96.0 128.0 L 97.0 128.0 L 98.0 128.0 L 99.0 128.0 L 100.0 128.0 L 101.0 128.0 L 102.0 128.0 L 103.0 128.0 L 103.5 128.0 Z" stroke="none" fill="rgb(255,255,255)" />
<path d="M 95.5 113.5 L 96.0 113.33333333333333 L 97.0 113.0 L 98.0 113.0 L 99.0 113.0 L 100.0 112.66666666666667 L 101.0 112.33333333333333 L 102.0 112.0 L 103.0 112.0 L 104.0 111.66666666666667 L 105.0 111.33333333333333 L 106.0 110.66666666666667 L 107.0 110.33333333333333 L 108.0 109.66666666666667 L 109.0 109.33333333333333 L 110.0 108.66666666666667 L 111.0 108.33333333333333 L 112.0 107.66666666666667 L 113.0 107.33333333333333 L 114.0 106.66666666666667 L 115.0 106.0 L 116.0 105.0 L 117.0 104.0 L 118.0 103.0 L 119.0 102.0 L 120.0 101.0 L 120.66666666666667 100.0 L 121.33333333333333 99.0 L 122.0 98.0 L 122.66666666666667 97.0 L 123.33333333333333 96.0 L 123.66666666666667 95.0 L 124.0 94.0 L 124.0 93.0 L 124.0 92.0 L 124.0 91.0 L 124.0 90.0 L 123.66666666666667 89.0 L 123.33333333333333 88.0 L 123.0 87.0 L 122.66666666666667 86.0 L 122.33333333333333 85.0 L 121.66666666666667 84.0 L 121.33333333333333 83.0 L 120.66666666666667 82.0 L 120.0 81.0 L 119.33333333333333 80.0 L 118.66666666666667 79.0 L 118.0 78.0 L 117.0 77.0 L 116.0 76.0 L 115.0 75.33333333333333 L 114.0 74.66666666666667 L 113.0 74.33333333333333 L 112.0 73.66666666666667 L 111.0 73.33333333333333 L 110.0 72.66666666666667 L 109.0 72.33333333333333 L 108.0 72.0 L 107.0 72.0 L 106.0 72.0 L 105.0 72.0 L 104.0 72.0 L 103.0 72.0 L 102.0 72.33333333333333 L 101.0 73.0 L 100.33333333333333 74.0 L 99.66666666666667 75.0 L 99.33333333333333 76.0 L 99.0 77.0 L 99.0 78.0 L 99.0 79.0 L 99.0 80.0 L 99.33333333333333 81.0 L 99.66666666666667 82.0 L 100.0 83.0 L 100.33333333333333 84.0 L 101.0 85.0 L 101.66666666666667 86.0 L 102.33333333333333 87.0 L 103.0 88.0 L 104.0 89.0 L 105.0 90.0 L 106.0 91.0 L 107.0 92.0 L 108.0 93.0 L 109.0 94.0 L 110.0 95.0 L 111.0 96.0 L 111.66666666666667 97.0 L 112.0 98.0 L 111.66666666666667 99.0 L 111.0 100.0 L 110.0 101.0 L 109.0 102.0 L 108.0 103.0 L 107.0 104.0 L 106.0 104.66666666666667 L 105.0 105.0 L 104.0 105.0 L 103.0 105.0 L 102.0 105.0 L 101.0 104.66666666666667 L 100.0 104.0 L 99.0 103.0 L 98.0 102.0 L 97.0 101.0 L 96.33333333333333 100.0 L 95.66666666666667 99.0 L 95.33333333333333 98.0 L 94.66666666666667 97.0 L 94.33333333333333 96.0 L 93.66666666666667 95.0 L 93.33333333333333 94.0 L 92.66666666666667 93.0 L 92.33333333333333 92.0 L 92.0 91.0 L 92.0 90.0 L 91.66666666666667 89.0 L 91.33333333333333 88.0 L 91.0 87.0 L 90.66666666666667 86.33333333333333 L 90.0 86.0 L 89.0 86.33333333333333 L 88.33333333333333 87.0 L 88.0 88.0 L 88.0 89.0 L 88.0 90.0 L 88.0 91.0 L 88.0 92.0 L 88.0 93.0 L 88.33333333333333 94.0 L 88.66666666666667 95.0 L 89.0 96.0 L 89.0 97.0 L 89.33333333333333 98.0 L 89.66666666666667 99.0 L 90.33333333333333 100.0 L 90.66666666666667 101.0 L 91.0 102.0 L 91.33333333333333 103.0 L 91.66666666666667 104.0 L 92.33333333333333 105.0 L 92.33333333333333 106.0 L 92.0 107.0 L 91.0 107.66666666666667 L 90.0 108.0 L 89.0 108.0 L 88.0 108.0 L 87.0 108.0 L 86.0 108.0 L 85.0 108.0 L 84.0 108.0 L 83.0 108.0 L 82.0 107.66666666666667 L 81.0 107.33333333333333 L 80.0 107.0 L 79.0 106.66666666666667 L 78.0 106.0 L 77.33333333333333 105.0 L 77.0 104.0 L 77.33333333333333 103.0 L 77.66666666666667 102.0 L 78.0 101.0 L 78.0 100.0 L 78.0 99.0 L 78.33333333333333 98.0 L 78.66666666666667 97.0 L 79.0 96.0 L 79.33333333333333 95.0 L 79.66666666666667 94.0 L 80.33333333333333 93.0 L 80.66666666666667 92.0 L 81.33333333333333 91.0 L 82.0 90.0 L 82.66666666666667 89.0 L 83.0 88.0 L 83.33333333333333 87.0 L 84.0 86.0 L 85.0 85.0 L 86.0 84.0 L 87.0 83.0 L 88.0 82.0 L 89.0 81.0 L 90.0 80.0 L 91.0 79.0 L 91.66666666666667 78.0 L 92.33333333333333 77.0 L 93.0 76.0 L 94.0 75.0 L 94.66666666666667 74.0 L 95.33333333333333 73.0 L 96.0 72.0 L 96.66666666666667 71.0 L 97.33333333333333 70.0 L 98.0 69.0 L 98.66666666666667 68.0 L 99.33333333333333 67.0 L 100.0 66.0 L 100.66666666666667 65.0 L 101.33333333333333 64.0 L 102.0 63.0 L 103.0 62.0 L 104.0 61.0 L 105.0 60.333333333333336 L 106.0 60.0 L 107.0 59.666666666666664 L 108.0 59.333333333333336 L 109.0 59.0 L 110.0 58.666666666666664 L 111.0 58.333333333333336 L 112.0 58.0 L 113.0 57.666666666666664 L 114.0 57.333333333333336 L 115.0 56.666666666666664 L 116.0 56.333333333333336 L 117.0 55.666666666666664 L 118.0 55.0 L 118.66666666666667 54.0 L 119.0 53.0 L 119.33333333333333 52.0 L 119.66666666666667 51.0 L 120.0 50.0 L 120.0 49.0 L 120.0 48.0 L 120.0 47.0 L 120.0 46.0 L 119.66666666666667 45.0 L 119.33333333333333 44.0 L 119.0 43.0 L 119.0 42.0 L 118.66666666666667 41.0 L 118.0 40.0 L 117.0 39.333333333333336 L 116.0 39.0 L 115.0 39.0 L 114.33333333333333 39.333333333333336 L 113.66666666666667 40.0 L 113.33333333333333 41.0 L 113.0 42.0 L 113.0 43.0 L 113.0 44.0 L 113.0 45.0 L 113.0 46.0 L 113.0 47.0 L 113.0 48.0 L 113.0 49.0 L 113.0 50.0 L 112.66666666666667 51.0 L 112.0 52.0 L 111.0 53.0 L 110.0 53.666666666666664 L 109.0 54.0 L 108.0 54.0 L 107.0 54.0 L 106.0 53.666666666666664 L 105.0 53.0 L 104.0 52.0 L 103.0 51.0 L 102.33333333333333 50.0 L 102.0 49.0 L 102.0 48.0 L 102.0 47.0 L 102.0 46.0 L 102.0 45.0 L 102.0 44.0 L 102.0 43.0 L 102.0 42.0 L 101.66666666666667 41.333333333333336 L 101.0 41.0 L 100.0 41.0 L 99.0 41.333333333333336 L 98.0 42.0 L 97.33333333333333 43.0 L 97.0 44.0 L 97.0 45.0 L 97.0 46.0 L 96.66666666666667 47.0 L 96.33333333333333 48.0 L 96.0 49.0 L 96.0 50.0 L 96.0 51.0 L 96.0 52.0 L 96.0 53.0 L 96.0 54.0 L 96.0 55.0 L 95.66666666666667 56.0 L 95.0 57.0 L 94.0 57.666666666666664 L 93.0 58.0 L 92.0 58.0 L 91.0 58.0 L 90.0 58.0 L 89.0 58.0 L 88.0 58.0 L 87.0 58.0 L 86.0 58.0 L 85.0 57.666666666666664 L 84.0 57.333333333333336 L 83.0 57.0 L 82.0 56.666666666666664 L 81.0 56.333333333333336 L 80.0 56.0 L 79.0 55.666666666666664 L 78.0 55.333333333333336 L 77.0 54.666666666666664 L 76.0 54.333333333333336 L 75.0 54.0 L 74.0 53.666666666666664 L 73.0 53.333333333333336 L 72.0 52.666666666666664 L 71.0 52.333333333333336 L 70.0 52.0 L 69.0 51.666666666666664 L 68.0 51.333333333333336 L 67.0 51.0 L 66.0 51.0 L 65.0 51.0 L 64.0 51.0 L 63.0 51.0 L 62.0 51.0 L 61.0 51.0 L 60.0 51.0 L 59.0 51.0 L 58.0 51.0 L 57.0 51.0 L 56.0 51.0 L 55.0 51.0 L 54.0 51.333333333333336 L 53.0 51.666666666666664 L 52.0 52.0 L 51.0 52.333333333333336 L 50.0 52.666666666666664 L 49.0 53.333333333333336 L 48.0 54.0 L 47.0 55.0 L 46.0 56.0 L 45.0 57.0 L 44.0 57.666666666666664 L 43.0 58.333333333333336 L 42.333333333333336 59.0 L 41.666666666666664 60.0 L 41.0 60.666666666666664 L 40.0 60.666666666666664 L 39.0 60.0 L 38.333333333333336 59.0 L 37.666666666666664 58.0 L 37.0 57.0 L 36.333333333333336 56.0 L 35.666666666666664 55.0 L 35.333333333333336 54.0 L 35.0 53.0 L 35.0 52.0 L 35.0 51.0 L 35.333333333333336 50.0 L 35.666666666666664 49.0 L 36.0 48.0 L 36.0 47.0 L 36.333333333333336 46.0 L 36.666666666666664 45.0 L 37.0 44.0 L 37.333333333333336 43.0 L 37.666666666666664 42.0 L 38.0 41.0 L 38.333333333333336 40.0 L 38.666666666666664 39.0 L 39.0 38.0 L 39.333333333333336 37.0 L 39.666666666666664 36.0 L 40.0 35.0 L 40.333333333333336 34.0 L 40.666666666666664 33.0 L 41.0 32.0 L 41.0 31.0 L 41.0 30.0 L 41.0 29.0 L 41.0 28.0 L 41.0 27.0 L 41.0 26.0 L 40.666666666666664 25.0 L 40.333333333333336 24.0 L 39.666666666666664 23.0 L 39.0 22.0 L 38.0 21.333333333333332 L 37.0 20.666666666666668 L 36.0 20.333333333333332 L 35.0 20.0 L 34.0 20.0 L 33.333333333333336 20.333333333333332 L 33.0 21.0 L 33.333333333333336 22.0 L 34.0 23.0 L 35.0 24.0 L 35.666666666666664 25.0 L 35.666666666666664 26.0 L 35.0 27.0 L 34.0 27.666666666666668 L 33.0 28.0 L 32.0 28.0 L 31.0 28.0 L 30.0 28.0 L 29.0 28.0 L 28.0 28.0 L 27.0 28.0 L 26.0 28.0 L 25.0 28.0 L 24.0 27.666666666666668 L 23.0 27.333333333333332 L 22.0 27.0 L 21.0 26.666666666666668 L 20.0 26.333333333333332 L 19.0 25.666666666666668 L 18.0 25.0 L 17.0 24.0 L 16.0 23.0 L 15.333333333333334 22.0 L 15.333333333333334 21.0 L 16.0 20.333333333333332 L 17.0 20.0 L 18.0 19.666666666666668 L 19.0 19.333333333333332 L 20.0 19.0 L 20.666666666666668 18.666666666666668 L 21.0 18.0 L 20.666666666666668 17.333333333333332 L 20.0 17.0 L 19.0 17.0 L 18.0 17.0 L 17.0 17.0 L 16.0 17.0 L 15.0 17.0 L 14.0 17.0 L 13.0 17.0 L 12.0 17.333333333333332 L 11.0 17.666666666666668 L 10.0 18.333333333333332 L 9.333333333333334 19.0 L 9.0 20.0 L 9.0 21.0 L 9.0 22.0 L 9.0 23.0 L 9.333333333333334 24.0 L 10.0 25.0 L 11.0 26.0 L 12.0 27.0 L 13.0 28.0 L 14.0 29.0 L 15.0 29.666666666666668 L 16.0 30.333333333333332 L 17.0 30.666666666666668 L 18.0 31.333333333333332 L 19.0 31.666666666666668 L 20.0 32.0 L 21.0 32.333333333333336 L 22.0 32.666666666666664 L 23.0 33.0 L 24.0 33.0 L 25.0 33.333333333333336 L 26.0 33.666666666666664 L 27.0 34.0 L 28.0 34.0 L 29.0 34.0 L 30.0 34.0 L 31.0 34.333333333333336 L 32.0 35.0 L 32.666666666666664 36.0 L 33.0 37.0 L 33.0 38.0 L 32.666666666666664 39.0 L 32.333333333333336 40.0 L 32.0 41.0 L 31.666666666666668 42.0 L 31.333333333333332 43.0 L 31.0 44.0 L 30.666666666666668 45.0 L 30.0 46.0 L 29.0 47.0 L 28.0 47.666666666666664 L 27.0 48.0 L 26.0 48.0 L 25.0 48.0 L 24.0 48.0 L 23.0 48.0 L 22.0 48.0 L 21.0 48.0 L 20.0 47.666666666666664 L 19.0 47.333333333333336 L 18.0 47.0 L 17.0 47.0 L 16.0 47.0 L 15.0 47.0 L 14.0 46.666666666666664 L 13.0 46.333333333333336 L 12.0 46.0 L 11.0 45.666666666666664 L 10.0 45.333333333333336 L 9.0 44.666666666666664 L 8.0 44.333333333333336 L 7.0 43.666666666666664 L 6.0 43.333333333333336 L 5.0 43.333333333333336 L 4.333333333333333 44.0 L 4.0 45.0 L 4.0 46.0 L 4.333333333333333 47.0 L 5.0 48.0 L 6.0 48.666666666666664 L 7.0 49.333333333333336 L 8.0 49.666666666666664 L 9.0 50.0 L 10.0 50.333333333333336 L 11.0 50.666666666666664 L 12.0 51.0 L 13.0 51.333333333333336 L 14.0 51.666666666666664 L 15.0 52.0 L 16.0 52.0 L 17.0 52.0 L 18.0 52.0 L 19.0 52.0 L 20.0 52.0 L 21.0 52.0 L 22.0 52.0 L 23.0 52.0 L 24.0 52.0 L 25.0 52.0 L 26.0 52.0 L 27.0 52.333333333333336 L 27.666666666666668 53.0 L 27.666666666666668 54.0 L 27.0 54.666666666666664 L 26.0 55.333333333333336 L 25.0 55.666666666666664 L 24.0 56.333333333333336 L 23.0 56.666666666666664 L 22.0 57.333333333333336 L 21.0 57.666666666666664 L 20.0 58.333333333333336 L 19.0 59.0 L 18.0 60.0 L 17.0 61.0 L 16.0 62.0 L 15.0 63.0 L 14.333333333333334 64.0 L 14.0 65.0 L 14.0 66.0 L 14.0 67.0 L 14.333333333333334 68.0 L 15.0 68.66666666666667 L 16.0 69.0 L 17.0 68.66666666666667 L 18.0 68.0 L 19.0 67.0 L 20.0 66.0 L 21.0 65.0 L 22.0 64.0 L 23.0 63.0 L 24.0 62.0 L 25.0 61.333333333333336 L 26.0 60.666666666666664 L 27.0 60.333333333333336 L 28.0 60.0 L 29.0 59.666666666666664 L 30.0 59.333333333333336 L 31.0 59.333333333333336 L 32.0 60.0 L 33.0 61.0 L 34.0 62.0 L 34.666666666666664 63.0 L 35.0 64.0 L 34.666666666666664 65.0 L 34.0 66.0 L 33.0 67.0 L 32.0 68.0 L 31.0 69.0 L 30.0 70.0 L 29.333333333333332 71.0 L 28.666666666666668 72.0 L 28.0 73.0 L 27.333333333333332 74.0 L 27.0 75.0 L 27.0 76.0 L 27.333333333333332 76.66666666666667 L 28.0 77.0 L 29.0 77.0 L 30.0 77.0 L 31.0 76.66666666666667 L 32.0 76.0 L 33.0 75.33333333333333 L 34.0 74.66666666666667 L 35.0 74.33333333333333 L 36.0 73.66666666666667 L 37.0 73.33333333333333 L 38.0 73.0 L 39.0 73.0 L 40.0 72.66666666666667 L 41.0 72.33333333333333 L 42.0 72.0 L 43.0 72.0 L 44.0 72.33333333333333 L 45.0 72.66666666666667 L 46.0 73.33333333333333 L 47.0 74.0 L 48.0 75.0 L 49.0 76.0 L 50.0 77.0 L 50.666666666666664 78.0 L 51.0 79.0 L 51.0 80.0 L 51.0 81.0 L 51.0 82.0 L 51.0 83.0 L 51.0 84.0 L 51.0 85.0 L 51.0 86.0 L 51.0 87.0 L 51.0 88.0 L 51.0 89.0 L 51.0 90.0 L 51.0 91.0 L 51.333333333333336 92.0 L 51.666666666666664 93.0 L 52.0 94.0 L 52.0 95.0 L 52.333333333333336 96.0 L 52.666666666666664 97.0 L 53.0 98.0 L 53.333333333333336 99.0 L 53.666666666666664 100.0 L 54.0 101.0 L 54.0 102.0 L 53.666666666666664 103.0 L 53.0 104.0 L 52.0 105.0 L 51.0 106.0 L 50.0 107.0 L 49.0 108.0 L 48.0 108.66666666666667 L 47.0 109.33333333333333 L 46.0 109.66666666666667 L 45.0 109.66666666666667 L 44.0 109.0 L 43.0 108.0 L 42.333333333333336 107.0 L 42.0 106.0 L 41.666666666666664 105.0 L 41.333333333333336 104.0 L 40.666666666666664 103.0 L 40.333333333333336 102.0 L 39.666666666666664 101.0 L 39.0 100.0 L 38.0 99.0 L 37.0 98.0 L 36.0 97.0 L 35.0 96.0 L 34.0 95.0 L 33.0 94.0 L 32.0 93.0 L 31.0 92.0 L 30.0 91.33333333333333 L 29.0 90.66666666666667 L 28.0 90.0 L 27.0 89.33333333333333 L 26.0 89.0 L 25.0 89.0 L 24.0 89.0 L 23.0 89.0 L 22.0 89.0 L 21.0 89.0 L 20.0 89.0 L 19.0 89.0 L 18.0 89.0 L 17.0 89.0 L 16.0 89.0 L 15.0 89.33333333333333 L 14.0 89.66666666666667 L 13.0 90.33333333333333 L 12.0 90.66666666666667 L 11.0 91.0 L 10.0 91.33333333333333 L 9.0 92.0 L 8.333333333333334 93.0 L 7.666666666666667 94.0 L 7.333333333333333 95.0 L 7.0 96.0 L 7.0 97.0 L 7.0 98.0 L 7.0 99.0 L 7.0 100.0 L 7.0 101.0 L 7.0 102.0 L 7.0 103.0 L 7.0 104.0 L 7.0 105.0 L 7.333333333333333 106.0 L 7.666666666666667 107.0 L 8.0 108.0 L 8.333333333333334 109.0 L 8.666666666666666 110.0 L 9.333333333333334 111.0 L 10.0 112.0 L 10.666666666666666 113.0 L 11.333333333333334 114.0 L 12.0 115.0 L 13.0 116.0 L 14.0 117.0 L 15.0 118.0 L 16.0 119.0 L 17.0 119.66666666666667 L 18.0 120.33333333333333 L 19.0 121.0 L 20.0 121.66666666666667 L 21.0 122.33333333333333 L 22.0 122.66666666666667 L 23.0 123.0 L 24.0 123.33333333333333 L 25.0 123.66666666666667 L 26.0 124.0 L 27.0 124.0 L 28.0 124.0 L 29.0 124.33333333333333 L 30.0 124.66666666666667 L 31.0 125.0 L 32.0 124.66666666666667 L 33.0 124.33333333333333 L 34.0 124.0 L 35.0 124.0 L 36.0 124.0 L 37.0 123.66666666666667 L 38.0 123.33333333333333 L 39.0 123.0 L 40.0 122.66666666666667 L 41.0 122.0 L 42.0 121.33333333333333 L 43.0 120.66666666666667 L 44.0 120.33333333333333 L 45.0 119.66666666666667 L 46.0 119.0 L 47.0 118.0 L 48.0 117.33333333333333 L 49.0 116.66666666666667 L 50.0 116.0 L 51.0 115.33333333333333 L 52.0 114.66666666666667 L 53.0 114.0 L 54.0 113.33333333333333 L 55.0 112.66666666666667 L 56.0 112.0 L 57.0 111.33333333333333 L 58.0 110.66666666666667 L 59.0 110.33333333333333 L 60.0 109.66666666666667 L 61.0 109.33333333333333 L 62.0 108.66666666666667 L 63.0 108.33333333333333 L 64.0 108.33333333333333 L 65.0 108.66666666666667 L 66.0 109.0 L 67.0 109.33333333333333 L 68.0 109.66666666666667 L 69.0 110.0 L 70.0 110.33333333333333 L 71.0 110.66666666666667 L 72.0 111.0 L 73.0 111.0 L 74.0 111.33333333333333 L 75.0 111.66666666666667 L 76.0 112.0 L 77.0 112.0 L 78.0 112.33333333333333 L 79.0 112.66666666666667 L 80.0 113.0 L 81.0 113.0 L 82.0 113.0 L 83.0 113.33333333333333 L 84.0 113.66666666666667 L 85.0 114.0 L 86.0 114.0 L 87.0 114.0 L 88.0 114.0 L 89.0 114.0 L 90.0 114.0 L 91.0 114.0 L 92.0 114.0 L 93.0 114.0 L 94.0 114.0 L 94.5 114.0 Z" stroke="none" fill="rgb(188,131,70)" />
<path d="M 101.5 41.5 L 101.66666666666667 42.0 L 102.0 43.0 L 102.0 44.0 L 102.0 45.0 L 102.0 46.0 L 102.0 47.0 L 102.0 48.0 L 102.0 49.0 L 102.0 50.0 L 102.33333333333333 51.0 L 103.0 52.0 L 104.0 53.0 L 105.0 53.666666666666664 L 106.0 54.0 L 107.0 54.0 L 108.0 54.0 L 109.0 54.0 L 110.0 54.0 L 111.0 53.666666666666664 L 112.0 53.0 L 112.66666666666667 52.0 L 113.0 51.0 L 113.0 50.0 L 113.0 49.0 L 113.0 48.0 L 113.0 47.0 L 113.0 46.0 L 113.0 45.0 L 113.0 44.0 L 113.0 43.0 L 113.33333333333333 42.0 L 113.66666666666667 41.0 L 114.33333333333333 40.0 L 115.0 39.333333333333336 L 115.66666666666667 38.666666666666664 L 115.66666666666667 38.0 L 115.0 37.0 L 114.0 36.333333333333336 L 113.0 35.666666666666664 L 112.0 35.333333333333336 L 111.0 35.0 L 110.0 35.333333333333336 L 109.0 35.666666666666664 L 108.0 36.0 L 107.0 36.0 L 106.0 36.0 L 105.0 36.0 L 104.0 35.666666666666664 L 103.66666666666667 35.0 L 104.0 34.0 L 104.66666666666667 33.0 L 105.0 32.0 L 105.0 31.0 L 105.0 30.0 L 104.66666666666667 29.333333333333332 L 104.0 29.0 L 103.0 29.0 L 102.0 29.333333333333332 L 101.0 29.666666666666668 L 100.0 30.333333333333332 L 99.0 30.666666666666668 L 98.0 31.0 L 97.0 31.333333333333332 L 96.0 31.666666666666668 L 95.0 32.0 L 94.0 32.333333333333336 L 93.0 32.666666666666664 L 92.0 33.0 L 91.0 33.0 L 90.0 33.0 L 89.0 33.333333333333336 L 88.0 33.666666666666664 L 87.0 34.0 L 86.0 34.0 L 85.0 34.0 L 84.0 34.0 L 83.0 34.0 L 82.0 34.0 L 81.0 34.0 L 80.0 34.0 L 79.0 34.0 L 78.0 34.0 L 77.0 34.0 L 76.0 34.0 L 75.0 34.0 L 74.0 34.0 L 73.0 34.0 L 72.0 34.0 L 71.0 34.0 L 70.0 34.0 L 69.0 34.0 L 68.0 34.333333333333336 L 67.0 34.666666666666664 L 66.0 35.0 L 65.0 35.0 L 64.0 35.333333333333336 L 63.0 35.666666666666664 L 62.0 36.0 L 61.0 36.333333333333336 L 60.0 36.666666666666664 L 59.0 37.333333333333336 L 58.0 37.666666666666664 L 57.0 38.333333333333336 L 56.0 38.666666666666664 L 55.0 39.333333333333336 L 54.0 40.0 L 53.0 40.666666666666664 L 52.0 41.333333333333336 L 51.0 42.0 L 50.0 42.666666666666664 L 49.0 43.333333333333336 L 48.333333333333336 44.0 L 47.666666666666664 45.0 L 47.333333333333336 46.0 L 47.0 47.0 L 47.0 48.0 L 46.666666666666664 49.0 L 46.333333333333336 50.0 L 46.0 51.0 L 45.666666666666664 52.0 L 45.333333333333336 53.0 L 45.0 54.0 L 45.333333333333336 55.0 L 46.0 55.666666666666664 L 47.0 55.666666666666664 L 48.0 55.0 L 49.0 54.0 L 50.0 53.333333333333336 L 51.0 52.666666666666664 L 52.0 52.333333333333336 L 53.0 52.0 L 54.0 51.666666666666664 L 55.0 51.333333333333336 L 56.0 51.0 L 57.0 51.0 L 58.0 51.0 L 59.0 51.0 L 60.0 51.0 L 61.0 51.0 L 62.0 51.0 L 63.0 51.0 L 64.0 51.0 L 65.0 51.0 L 66.0 51.0 L 67.0 51.333333333333336 L 68.0 51.666666666666664 L 69.0 52.0 L 70.0 52.333333333333336 L 71.0 52.666666666666664 L 72.0 53.333333333333336 L 73.0 53.666666666666664 L 74.0 54.0 L 75.0 54.333333333333336 L 76.0 54.666666666666664 L 77.0 55.333333333333336 L 78.0 55.666666666666664 L 79.0 56.0 L 80.0 56.333333333333336 L 81.0 56.666666666666664 L 82.0 57.0 L 83.0 57.333333333333336 L 84.0 57.666666666666664 L 85.0 58.0 L 86.0 58.0 L 87.0 58.0 L 88.0 58.0 L 89.0 58.0 L 90.0 58.0 L 91.0 58.0 L 92.0 58.0 L 93.0 58.0 L 94.0 58.0 L 95.0 57.666666666666664 L 95.66666666666667 57.0 L 96.0 56.0 L 96.0 55.0 L 96.0 54.0 L 96.0 53.0 L 96.0 52.0 L 96.0 51.0 L 96.0 50.0 L 96.33333333333333 49.0 L 96.66666666666667 48.0 L 97.0 47.0 L 97.0 46.0 L 97.0 45.0 L 97.33333333333333 44.0 L 98.0 43.0 L 99.0 42.0 L 100.0 41.333333333333336 L 100.5 41.0 Z" stroke="none" fill="rgb(229,178,127)" />
<path d="M 88.5 27.0 L 89.0 26.666666666666668 L 90.0 26.333333333333332 L 91.0 26.0 L 92.0 26.0 L 93.0 25.666666666666668 L 94.0 25.333333333333332 L 95.0 24.666666666666668 L 96.0 24.333333333333332 L 97.0 23.666666666666668 L 98.0 23.0 L 99.0 22.0 L 100.0 21.0 L 100.66666666666667 20.0 L 101.0 19.0 L 101.0 18.0 L 101.0 17.0 L 101.0 16.0 L 101.0 15.0 L 100.66666666666667 14.0 L 100.0 13.0 L 99.0 12.0 L 98.0 11.0 L 97.0 10.333333333333334 L 96.0 9.666666666666666 L 95.0 9.333333333333334 L 94.0 9.0 L 93.0 8.666666666666666 L 92.0 8.333333333333334 L 91.0 8.0 L 90.0 8.0 L 89.0 8.0 L 88.0 7.666666666666667 L 87.0 7.333333333333333 L 86.0 7.0 L 85.0 7.0 L 84.0 7.0 L 83.0 7.0 L 82.0 6.666666666666667 L 81.0 6.333333333333333 L 80.0 6.0 L 79.0 6.0 L 78.0 6.0 L 77.0 6.0 L 76.0 5.666666666666667 L 75.0 5.333333333333333 L 74.0 5.0 L 73.0 4.666666666666667 L 72.0 4.333333333333333 L 71.0 4.0 L 70.0 4.0 L 69.0 4.0 L 68.0 4.0 L 67.0 4.0 L 66.0 4.0 L 65.0 4.0 L 64.0 4.0 L 63.0 4.333333333333333 L 62.0 4.666666666666667 L 61.0 5.0 L 60.0 5.0 L 59.0 5.333333333333333 L 58.0 5.666666666666667 L 57.0 6.0 L 56.0 6.333333333333333 L 55.0 6.666666666666667 L 54.0 7.333333333333333 L 53.0 7.666666666666667 L 52.0 8.333333333333334 L 51.0 9.0 L 50.0 10.0 L 49.333333333333336 11.0 L 48.666666666666664 12.0 L 48.333333333333336 13.0 L 47.666666666666664 14.0 L 47.333333333333336 15.0 L 47.0 16.0 L 47.0 17.0 L 47.0 18.0 L 47.0 19.0 L 47.0 20.0 L 47.0 21.0 L 47.0 22.0 L 47.0 23.0 L 47.0 24.0 L 47.0 25.0 L 47.0 26.0 L 47.0 27.0 L 47.0 28.0 L 47.0 29.0 L 47.333333333333336 30.0 L 47.666666666666664 31.0 L 48.0 32.0 L 48.0 33.0 L 48.0 34.0 L 48.0 35.0 L 48.0 36.0 L 48.333333333333336 37.0 L 49.0 37.666666666666664 L 50.0 38.0 L 51.0 37.666666666666664 L 52.0 37.0 L 53.0 36.0 L 54.0 35.0 L 55.0 34.333333333333336 L 56.0 33.666666666666664 L 57.0 33.333333333333336 L 58.0 32.666666666666664 L 59.0 32.333333333333336 L 60.0 31.666666666666668 L 61.0 31.333333333333332 L 62.0 30.666666666666668 L 63.0 30.333333333333332 L 64.0 30.0 L 65.0 30.0 L 66.0 29.666666666666668 L 67.0 29.333333333333332 L 68.0 29.0 L 69.0 29.0 L 70.0 29.0 L 71.0 29.0 L 72.0 29.0 L 73.0 28.666666666666668 L 74.0 28.333333333333332 L 75.0 28.0 L 76.0 28.0 L 77.0 28.0 L 78.0 28.0 L 79.0 28.0 L 80.0 28.0 L 81.0 28.0 L 82.0 28.0 L 83.0 28.0 L 84.0 27.666666666666668 L 85.0 27.333333333333332 L 86.0 27.0 L 87.0 27.0 L 87.5 27.0 Z" stroke="none" fill="rgb(229,178,127)" />
<path d="M 24.5 89.0 L 25.0 89.0 L 26.0 89.33333333333333 L 27.0 90.0 L 28.0 90.66666666666667 L 29.0 91.33333333333333 L 30.0 92.0 L 31.0 93.0 L 32.0 94.0 L 33.0 95.0 L 34.0 96.0 L 35.0 97.0 L 36.0 98.0 L 37.0 99.0 L 38.0 100.0 L 39.0 101.0 L 39.666666666666664 102.0 L 40.333333333333336 103.0 L 40.666666666666664 104.0 L 41.333333333333336 105.0 L 41.666666666666664 106.0 L 42.0 107.0 L 42.333333333333336 108.0 L 43.0 109.0 L 44.0 109.66666666666667 L 45.0 110.0 L 46.0 110.0 L 47.0 109.66666666666667 L 48.0 109.33333333333333 L 49.0 108.66666666666667 L 50.0 108.0 L 51.0 107.0 L 52.0 106.0 L 53.0 105.0 L 53.666666666666664 104.0 L 54.0 103.0 L 54.0 102.0 L 54.0 101.0 L 54.0 100.0 L 53.666666666666664 99.0 L 53.333333333333336 98.0 L 53.0 97.0 L 52.666666666666664 96.0 L 52.333333333333336 95.0 L 52.0 94.0 L 52.0 93.0 L 51.666666666666664 92.0 L 51.333333333333336 91.0 L 51.0 90.0 L 51.0 89.0 L 51.0 88.0 L 51.0 87.0 L 51.0 86.0 L 51.0 85.0 L 51.0 84.0 L 51.0 83.0 L 51.0 82.0 L 51.0 81.0 L 51.0 80.0 L 51.0 79.0 L 51.0 78.0 L 50.666666666666664 77.0 L 50.0 76.0 L 49.0 75.0 L 48.0 74.0 L 47.0 73.33333333333333 L 46.0 72.66666666666667 L 45.0 72.33333333333333 L 44.0 72.0 L 43.0 72.0 L 42.0 72.0 L 41.0 72.0 L 40.0 72.33333333333333 L 39.0 72.66666666666667 L 38.0 73.0 L 37.0 73.0 L 36.0 73.33333333333333 L 35.0 73.66666666666667 L 34.0 74.33333333333333 L 33.0 74.66666666666667 L 32.0 75.33333333333333 L 31.0 76.0 L 30.0 76.66666666666667 L 29.0 77.0 L 28.0 76.66666666666667 L 27.333333333333332 76.0 L 27.333333333333332 75.0 L 28.0 74.0 L 28.666666666666668 73.0 L 29.333333333333332 72.0 L 30.0 71.0 L 31.0 70.0 L 32.0 69.0 L 33.0 68.0 L 34.0 67.0 L 34.666666666666664 66.0 L 35.0 65.0 L 35.0 64.0 L 35.0 63.0 L 34.666666666666664 62.0 L 34.0 61.0 L 33.0 60.0 L 32.0 59.333333333333336 L 31.0 59.0 L 30.0 59.0 L 29.0 59.333333333333336 L 28.0 59.666666666666664 L 27.0 60.0 L 26.0 60.333333333333336 L 25.0 60.666666666666664 L 24.0 61.333333333333336 L 23.0 62.0 L 22.0 63.0 L 21.0 64.0 L 20.0 65.0 L 19.0 66.0 L 18.0 67.0 L 17.0 68.0 L 16.333333333333332 69.0 L 16.0 70.0 L 16.0 71.0 L 16.333333333333332 72.0 L 17.0 72.66666666666667 L 18.0 73.33333333333333 L 19.0 74.0 L 20.0 75.0 L 21.0 76.0 L 22.0 77.0 L 23.0 78.0 L 23.666666666666668 79.0 L 23.666666666666668 80.0 L 23.0 81.0 L 22.0 81.66666666666667 L 21.0 82.33333333333333 L 20.0 83.0 L 19.0 84.0 L 18.0 85.0 L 17.0 85.66666666666667 L 16.0 86.33333333333333 L 15.333333333333334 87.0 L 15.333333333333334 88.0 L 16.0 88.66666666666667 L 17.0 89.0 L 18.0 89.0 L 19.0 89.0 L 20.0 89.0 L 21.0 89.0 L 22.0 89.0 L 23.0 89.0 L 23.5 89.0 Z" stroke="none" fill="rgb(229,178,127)" />
<path d="M 53.5 41.0 L 54.0 40.666666666666664 L 55.0 40.0 L 56.0 39.333333333333336 L 57.0 38.666666666666664 L 58.0 38.333333333333336 L 59.0 37.666666666666664 L 60.0 37.333333333333336 L 61.0 36.666666666666664 L 62.0 36.333333333333336 L 63.0 36.0 L 64.0 35.666666666666664 L 65.0 35.333333333333336 L 66.0 35.0 L 67.0 35.0 L 68.0 34.666666666666664 L 69.0 34.333333333333336 L 70.0 34.0 L 71.0 34.0 L 72.0 34.0 L 73.0 34.0 L 74.0 34.0 L 75.0 34.0 L 76.0 34.0 L 77.0 34.0 L 78.0 34.0 L 79.0 34.0 L 80.0 34.0 L 81.0 34.0 L 82.0 34.0 L 83.0 34.0 L 84.0 34.0 L 85.0 34.0 L 86.0 34.0 L 87.0 34.0 L 88.0 34.0 L 89.0 33.666666666666664 L 90.0 33.333333333333336 L 91.0 33.0 L 92.0 33.0 L 93.0 33.0 L 94.0 32.666666666666664 L 95.0 32.333333333333336 L 96.0 32.0 L 97.0 31.666666666666668 L 98.0 31.333333333333332 L 99.0 31.0 L 100.0 30.666666666666668 L 101.0 30.333333333333332 L 102.0 29.666666666666668 L 103.0 29.333333333333332 L 104.0 29.333333333333332 L 104.66666666666667 30.0 L 105.0 31.0 L 104.66666666666667 32.0 L 104.0 33.0 L 103.33333333333333 34.0 L 103.0 35.0 L 103.33333333333333 35.666666666666664 L 104.0 36.0 L 105.0 36.0 L 106.0 36.0 L 107.0 36.0 L 108.0 36.0 L 109.0 36.0 L 110.0 35.666666666666664 L 110.66666666666667 35.0 L 111.0 34.0 L 111.0 33.0 L 111.0 32.0 L 111.0 31.0 L 111.0 30.0 L 111.0 29.0 L 111.0 28.0 L 111.0 27.0 L 111.0 26.0 L 111.0 25.0 L 111.0 24.0 L 111.0 23.0 L 111.0 22.0 L 111.0 21.0 L 111.0 20.0 L 111.0 19.0 L 111.0 18.0 L 111.0 17.0 L 111.0 16.0 L 111.0 15.0 L 111.0 14.0 L 110.66666666666667 13.0 L 110.33333333333333 12.0 L 109.66666666666667 11.0 L 109.33333333333333 10.0 L 108.66666666666667 9.0 L 108.0 8.333333333333334 L 107.0 7.666666666666667 L 106.0 7.333333333333333 L 105.0 6.666666666666667 L 104.0 6.333333333333333 L 103.0 6.0 L 102.0 6.0 L 101.0 6.0 L 100.0 5.666666666666667 L 99.0 5.333333333333333 L 98.0 5.0 L 97.0 5.0 L 96.0 5.0 L 95.0 5.0 L 94.0 5.0 L 93.0 4.666666666666667 L 92.0 4.333333333333333 L 91.0 4.0 L 90.0 4.0 L 89.0 4.0 L 88.0 4.0 L 87.0 4.0 L 86.0 4.0 L 85.0 4.0 L 84.0 4.0 L 83.0 4.0 L 82.0 4.0 L 81.0 4.0 L 80.0 4.0 L 79.0 4.0 L 78.0 4.0 L 77.0 4.0 L 76.0 4.0 L 75.33333333333333 4.333333333333333 L 75.0 5.0 L 75.33333333333333 5.666666666666667 L 76.0 6.0 L 77.0 6.0 L 78.0 6.0 L 79.0 6.0 L 80.0 6.333333333333333 L 81.0 6.666666666666667 L 82.0 7.0 L 83.0 7.0 L 84.0 7.0 L 85.0 7.0 L 86.0 7.333333333333333 L 87.0 7.666666666666667 L 88.0 8.0 L 89.0 8.0 L 90.0 8.0 L 91.0 8.333333333333334 L 92.0 8.666666666666666 L 93.0 9.0 L 94.0 9.333333333333334 L 95.0 9.666666666666666 L 96.0 10.333333333333334 L 97.0 11.0 L 98.0 12.0 L 99.0 13.0 L 100.0 14.0 L 100.66666666666667 15.0 L 101.0 16.0 L 101.0 17.0 L 101.0 18.0 L 100.66666666666667 19.0 L 100.0 20.0 L 99.0 21.0 L 98.0 22.0 L 97.0 23.0 L 96.0 23.666666666666668 L 95.0 24.333333333333332 L 94.0 24.666666666666668 L 93.0 25.333333333333332 L 92.0 25.666666666666668 L 91.0 26.0 L 90.0 26.0 L 89.0 26.333333333333332 L 88.0 26.666666666666668 L 87.0 27.0 L 86.0 27.0 L 85.0 27.0 L 84.0 27.333333333333332 L 83.0 27.666666666666668 L 82.0 28.0 L 81.0 28.0 L 80.0 28.0 L 79.0 28.0 L 78.0 28.0 L 77.0 28.0 L 76.0 28.0 L 75.0 28.0 L 74.0 28.0 L 73.0 28.333333333333332 L 72.0 28.666666666666668 L 71.0 29.0 L 70.0 29.0 L 69.0 29.0 L 68.0 29.0 L 67.0 29.0 L 66.0 29.333333333333332 L 65.0 29.666666666666668 L 64.0 30.0 L 63.0 30.0 L 62.0 30.333333333333332 L 61.0 30.666666666666668 L 60.0 31.333333333333332 L 59.0 31.666666666666668 L 58.0 32.333333333333336 L 57.0 32.666666666666664 L 56.0 33.333333333333336 L 55.0 33.666666666666664 L 54.0 34.333333333333336 L 53.0 35.0 L 52.0 36.0 L 51.0 37.0 L 50.0 37.666666666666664 L 49.333333333333336 38.333333333333336 L 48.666666666666664 39.0 L 48.333333333333336 40.0 L 48.0 41.0 L 48.333333333333336 42.0 L 49.0 42.666666666666664 L 50.0 43.0 L 51.0 42.666666666666664 L 52.0 42.0 L 52.5 41.5 Z" stroke="none" fill="rgb(188,131,70)" />
<path d="M 59.5 87.5 L 60.0 87.66666666666667 L 61.0 88.0 L 62.0 88.0 L 63.0 88.0 L 64.0 87.66666666666667 L 65.0 87.0 L 66.0 86.0 L 67.0 85.33333333333333 L 68.0 84.66666666666667 L 69.0 84.33333333333333 L 70.0 84.0 L 71.0 84.0 L 72.0 83.66666666666667 L 73.0 83.33333333333333 L 74.0 83.0 L 75.0 83.0 L 76.0 83.0 L 77.0 83.0 L 78.0 82.66666666666667 L 79.0 82.0 L 80.0 81.0 L 81.0 80.0 L 82.0 79.0 L 83.0 78.0 L 84.0 77.0 L 85.0 76.0 L 86.0 75.0 L 86.66666666666667 74.0 L 87.33333333333333 73.0 L 88.0 72.0 L 88.66666666666667 71.0 L 89.0 70.0 L 89.0 69.0 L 89.0 68.0 L 88.66666666666667 67.0 L 88.0 66.33333333333333 L 87.0 66.0 L 86.0 65.66666666666667 L 85.0 65.33333333333333 L 84.0 65.0 L 83.0 64.66666666666667 L 82.0 64.33333333333333 L 81.0 63.666666666666664 L 80.0 63.333333333333336 L 79.0 62.666666666666664 L 78.0 62.333333333333336 L 77.0 61.666666666666664 L 76.0 61.333333333333336 L 75.0 60.666666666666664 L 74.0 60.333333333333336 L 73.0 59.666666666666664 L 72.0 59.333333333333336 L 71.0 58.666666666666664 L 70.0 58.333333333333336 L 69.0 57.666666666666664 L 68.0 57.333333333333336 L 67.0 57.0 L 66.0 56.666666666666664 L 65.0 56.333333333333336 L 64.0 56.0 L 63.0 56.0 L 62.0 56.0 L 61.0 56.0 L 60.0 56.0 L 59.0 56.0 L 58.0 56.0 L 57.0 56.0 L 56.0 56.0 L 55.0 56.0 L 54.0 56.333333333333336 L 53.0 56.666666666666664 L 52.0 57.0 L 51.0 57.333333333333336 L 50.0 57.666666666666664 L 49.0 58.333333333333336 L 48.0 59.0 L 47.0 59.666666666666664 L 46.0 60.333333333333336 L 45.0 61.0 L 44.0 62.0 L 43.0 63.0 L 42.333333333333336 64.0 L 42.0 65.0 L 42.0 66.0 L 42.333333333333336 67.0 L 43.0 67.66666666666667 L 44.0 68.0 L 45.0 68.0 L 46.0 68.0 L 47.0 68.0 L 48.0 68.33333333333333 L 49.0 68.66666666666667 L 50.0 69.33333333333333 L 51.0 69.66666666666667 L 52.0 70.33333333333333 L 53.0 71.0 L 54.0 72.0 L 55.0 73.0 L 56.0 74.0 L 57.0 75.0 L 58.0 76.0 L 58.666666666666664 77.0 L 59.0 78.0 L 59.0 79.0 L 59.0 80.0 L 59.0 81.0 L 59.0 82.0 L 59.0 83.0 L 59.0 84.0 L 59.0 85.0 L 59.0 86.0 L 59.0 86.5 Z" stroke="none" fill="rgb(229,178,127)" />
<path d="M 24.5 119.0 L 25.0 119.0 L 26.0 119.0 L 27.0 119.0 L 28.0 119.0 L 29.0 119.0 L 30.0 119.0 L 31.0 119.0 L 32.0 119.0 L 33.0 118.66666666666667 L 34.0 118.0 L 35.0 117.0 L 35.666666666666664 116.0 L 36.0 115.0 L 36.0 114.0 L 36.0 113.0 L 36.0 112.0 L 36.0 111.0 L 36.0 110.0 L 36.0 109.0 L 36.0 108.0 L 36.0 107.0 L 35.666666666666664 106.0 L 35.333333333333336 105.0 L 35.0 104.0 L 34.666666666666664 103.0 L 34.0 102.0 L 33.0 101.0 L 32.0 100.0 L 31.0 99.0 L 30.0 98.0 L 29.0 97.33333333333333 L 28.0 96.66666666666667 L 27.0 96.0 L 26.0 95.33333333333333 L 25.0 94.66666666666667 L 24.0 94.33333333333333 L 23.0 94.0 L 22.0 94.0 L 21.0 94.0 L 20.0 94.0 L 19.0 94.0 L 18.0 94.33333333333333 L 17.0 94.66666666666667 L 16.0 95.0 L 15.0 95.33333333333333 L 14.0 96.0 L 13.0 97.0 L 12.333333333333334 98.0 L 12.0 99.0 L 12.0 100.0 L 12.0 101.0 L 12.0 102.0 L 12.0 103.0 L 12.0 104.0 L 12.0 105.0 L 12.0 106.0 L 12.0 107.0 L 12.333333333333334 108.0 L 12.666666666666666 109.0 L 13.333333333333334 110.0 L 14.0 111.0 L 15.0 112.0 L 16.0 113.0 L 17.0 114.0 L 18.0 115.0 L 19.0 116.0 L 20.0 117.0 L 21.0 117.66666666666667 L 22.0 118.0 L 23.0 118.33333333333333 L 23.5 118.5 Z" stroke="none" fill="rgb(255,229,127)" />
<path d="M 23.5 48.0 L 24.0 48.0 L 25.0 48.0 L 26.0 48.0 L 27.0 48.0 L 28.0 48.0 L 29.0 47.666666666666664 L 30.0 47.0 L 30.666666666666668 46.0 L 31.0 45.0 L 31.333333333333332 44.0 L 31.666666666666668 43.0 L 32.0 42.0 L 32.333333333333336 41.0 L 32.666666666666664 40.0 L 33.0 39.0 L 33.0 38.0 L 33.0 37.0 L 33.0 36.0 L 32.666666666666664 35.0 L 32.0 34.333333333333336 L 31.0 34.0 L 30.0 34.0 L 29.0 34.0 L 28.0 34.0 L 27.0 33.666666666666664 L 26.0 33.333333333333336 L 25.0 33.0 L 24.0 33.0 L 23.0 32.666666666666664 L 22.0 32.333333333333336 L 21.0 32.0 L 20.0 31.666666666666668 L 19.0 31.333333333333332 L 18.0 30.666666666666668 L 17.0 30.333333333333332 L 16.0 29.666666666666668 L 15.0 29.0 L 14.0 28.0 L 13.0 27.0 L 12.0 26.0 L 11.0 25.0 L 10.0 24.0 L 9.0 23.333333333333332 L 8.0 23.0 L 7.333333333333333 23.333333333333332 L 6.666666666666667 24.0 L 6.333333333333333 25.0 L 6.0 26.0 L 6.0 27.0 L 5.666666666666667 28.0 L 5.333333333333333 29.0 L 5.0 30.0 L 5.0 31.0 L 5.0 32.0 L 5.0 33.0 L 4.666666666666667 34.0 L 4.333333333333333 35.0 L 4.0 36.0 L 4.0 37.0 L 4.0 38.0 L 4.0 39.0 L 4.0 40.0 L 4.0 41.0 L 4.333333333333333 42.0 L 5.0 43.0 L 6.0 43.666666666666664 L 7.0 44.333333333333336 L 8.0 44.666666666666664 L 9.0 45.333333333333336 L 10.0 45.666666666666664 L 11.0 46.0 L 12.0 46.333333333333336 L 13.0 46.666666666666664 L 14.0 47.0 L 15.0 47.0 L 16.0 47.0 L 17.0 47.0 L 18.0 47.333333333333336 L 19.0 47.666666666666664 L 20.0 48.0 L 21.0 48.0 L 22.0 48.0 L 22.5 48.0 Z" stroke="none" fill="rgb(229,178,127)" />
<path d="M 95.5 99.5 L 95.66666666666667 100.0 L 96.33333333333333 101.0 L 97.0 102.0 L 98.0 103.0 L 99.0 104.0 L 100.0 104.66666666666667 L 101.0 105.0 L 102.0 105.0 L 103.0 105.0 L 104.0 105.0 L 105.0 105.0 L 106.0 105.0 L 107.0 104.66666666666667 L 108.0 104.0 L 109.0 103.0 L 110.0 102.0 L 111.0 101.0 L 111.66666666666667 100.0 L 112.0 99.0 L 112.0 98.0 L 112.0 97.0 L 111.66666666666667 96.0 L 111.0 95.0 L 110.0 94.0 L 109.0 93.0 L 108.0 92.0 L 107.0 91.0 L 106.0 90.0 L 105.0 89.0 L 104.0 88.0 L 103.0 87.0 L 102.33333333333333 86.0 L 101.66666666666667 85.0 L 101.0 84.0 L 100.33333333333333 83.0 L 100.0 82.0 L 99.66666666666667 81.0 L 99.33333333333333 80.0 L 99.0 79.0 L 99.0 78.0 L 99.0 77.0 L 98.66666666666667 76.33333333333333 L 98.0 76.0 L 97.33333333333333 76.33333333333333 L 96.66666666666667 77.0 L 96.0 78.0 L 95.33333333333333 79.0 L 94.66666666666667 80.0 L 94.0 81.0 L 93.0 82.0 L 92.0 83.0 L 91.33333333333333 84.0 L 91.0 85.0 L 91.0 86.0 L 91.0 87.0 L 91.0 88.0 L 91.33333333333333 89.0 L 91.66666666666667 90.0 L 92.0 91.0 L 92.0 92.0 L 92.33333333333333 93.0 L 92.66666666666667 94.0 L 93.33333333333333 95.0 L 93.66666666666667 96.0 L 94.33333333333333 97.0 L 94.66666666666667 98.0 L 95.0 98.5 Z" stroke="none" fill="rgb(229,178,127)" />
<path d="M 78.5 107.0 L 79.0 107.0 L 80.0 107.33333333333333 L 81.0 107.66666666666667 L 82.0 108.0 L 83.0 108.0 L 84.0 108.0 L 85.0 108.0 L 86.0 108.0 L 87.0 108.0 L 88.0 108.0 L 89.0 108.0 L 90.0 108.0 L 91.0 108.0 L 92.0 107.66666666666667 L 92.66666666666667 107.0 L 93.0 106.0 L 92.66666666666667 105.0 L 92.33333333333333 104.0 L 91.66666666666667 103.0 L 91.33333333333333 102.0 L 91.0 101.0 L 90.66666666666667 100.0 L 90.33333333333333 99.0 L 89.66666666666667 98.0 L 89.33333333333333 97.0 L 89.0 96.0 L 89.0 95.0 L 88.66666666666667 94.0 L 88.33333333333333 93.0 L 88.0 92.0 L 88.0 91.0 L 88.0 90.0 L 88.0 89.0 L 88.0 88.0 L 87.66666666666667 87.33333333333333 L 87.0 87.0 L 86.0 87.0 L 85.0 87.33333333333333 L 84.0 87.66666666666667 L 83.0 88.33333333333333 L 82.0 89.0 L 81.33333333333333 90.0 L 80.66666666666667 91.0 L 80.33333333333333 92.0 L 79.66666666666667 93.0 L 79.33333333333333 94.0 L 79.0 95.0 L 78.66666666666667 96.0 L 78.33333333333333 97.0 L 78.0 98.0 L 78.0 99.0 L 78.0 100.0 L 77.66666666666667 101.0 L 77.33333333333333 102.0 L 77.0 103.0 L 77.0 104.0 L 77.0 105.0 L 77.33333333333333 106.0 L 77.5 106.5 Z" stroke="none" fill="rgb(229,178,127)" />
<path d="M 5.5 53.5 L 5.666666666666667 54.0 L 6.0 55.0 L 6.0 56.0 L 6.333333333333333 57.0 L 6.666666666666667 58.0 L 7.333333333333333 59.0 L 7.666666666666667 60.0 L 8.333333333333334 61.0 L 8.666666666666666 62.0 L 9.333333333333334 63.0 L 10.0 64.0 L 10.666666666666666 65.0 L 11.333333333333334 66.0 L 12.0 66.66666666666667 L 13.0 67.0 L 13.666666666666666 66.66666666666667 L 14.0 66.0 L 14.333333333333334 65.0 L 15.0 64.0 L 16.0 63.0 L 17.0 62.0 L 18.0 61.0 L 19.0 60.0 L 20.0 59.0 L 21.0 58.333333333333336 L 22.0 57.666666666666664 L 23.0 57.333333333333336 L 24.0 56.666666666666664 L 25.0 56.333333333333336 L 26.0 55.666666666666664 L 27.0 55.333333333333336 L 28.0 54.666666666666664 L 28.666666666666668 54.0 L 28.666666666666668 53.0 L 28.0 52.333333333333336 L 27.0 52.0 L 26.0 52.0 L 25.0 52.0 L 24.0 52.0 L 23.0 52.0 L 22.0 52.0 L 21.0 52.0 L 20.0 52.0 L 19.0 52.0 L 18.0 52.0 L 17.0 52.0 L 16.0 52.0 L 15.0 51.666666666666664 L 14.0 51.333333333333336 L 13.0 51.0 L 12.0 50.666666666666664 L 11.0 50.333333333333336 L 10.0 50.0 L 9.0 49.666666666666664 L 8.0 49.333333333333336 L 7.0 49.0 L 6.0 49.0 L 5.333333333333333 49.333333333333336 L 5.0 50.0 L 5.0 51.0 L 5.0 52.0 L 5.0 52.5 Z" stroke="none" fill="rgb(229,178,127)" />
<path d="M 21.5 27.0 L 22.0 27.333333333333332 L 23.0 27.666666666666668 L 24.0 28.0 L 25.0 28.0 L 26.0 28.0 L 27.0 28.0 L 28.0 28.0 L 29.0 28.0 L 30.0 28.0 L 31.0 28.0 L 32.0 28.0 L 33.0 28.0 L 34.0 28.0 L 35.0 27.666666666666668 L 35.666666666666664 27.0 L 36.0 26.0 L 36.0 25.0 L 35.666666666666664 24.0 L 35.0 23.0 L 34.0 22.0 L 33.0 21.0 L 32.0 20.0 L 31.0 19.0 L 30.0 18.333333333333332 L 29.0 18.0 L 28.0 18.0 L 27.0 18.0 L 26.0 18.0 L 25.0 18.0 L 24.0 18.0 L 23.0 18.0 L 22.0 18.0 L 21.0 18.333333333333332 L 20.0 18.666666666666668 L 19.0 19.0 L 18.0 19.333333333333332 L 17.0 19.666666666666668 L 16.0 20.0 L 15.0 20.333333333333332 L 14.333333333333334 21.0 L 14.333333333333334 22.0 L 15.0 23.0 L 16.0 24.0 L 17.0 25.0 L 18.0 25.666666666666668 L 19.0 26.333333333333332 L 20.0 26.666666666666668 L 20.5 27.0 Z" stroke="none" fill="rgb(229,178,127)" />
<path d="M 75.0 95.5 L 75.33333333333333 95.0 L 75.66666666666667 94.0 L 76.33333333333333 93.0 L 77.0 92.0 L 77.66666666666667 91.0 L 78.0 90.0 L 77.66666666666667 89.0 L 77.0 88.33333333333333 L 76.0 88.0 L 75.0 88.0 L 74.0 88.33333333333333 L 73.0 88.66666666666667 L 72.0 89.0 L 71.0 89.33333333333333 L 70.0 89.66666666666667 L 69.0 90.33333333333333 L 68.0 91.0 L 67.0 92.0 L 66.0 93.0 L 65.33333333333333 94.0 L 64.66666666666667 95.0 L 64.33333333333333 96.0 L 64.0 97.0 L 63.666666666666664 98.0 L 63.333333333333336 99.0 L 63.0 100.0 L 63.333333333333336 101.0 L 64.0 102.0 L 65.0 103.0 L 66.0 104.0 L 67.0 104.66666666666667 L 68.0 105.0 L 69.0 105.0 L 70.0 105.0 L 71.0 105.0 L 72.0 104.66666666666667 L 72.66666666666667 104.0 L 73.0 103.0 L 73.0 102.0 L 73.33333333333333 101.0 L 73.66666666666667 100.0 L 74.0 99.0 L 74.0 98.0 L 74.33333333333333 97.0 L 74.5 96.5 Z" stroke="none" fill="rgb(229,178,127)" />
<path d="M 110.5 88.5 L 111.0 89.0 L 112.0 90.0 L 113.0 90.66666666666667 L 114.0 91.0 L 115.0 91.0 L 116.0 91.0 L 117.0 91.0 L 118.0 91.0 L 118.66666666666667 90.66666666666667 L 119.0 90.0 L 119.0 89.0 L 119.0 88.0 L 119.0 87.0 L 119.0 86.0 L 118.66666666666667 85.0 L 118.33333333333333 84.0 L 117.66666666666667 83.0 L 117.0 82.0 L 116.0 81.0 L 115.0 80.0 L 114.0 79.0 L 113.0 78.0 L 112.0 77.33333333333333 L 111.0 76.66666666666667 L 110.0 76.33333333333333 L 109.0 76.0 L 108.0 76.0 L 107.0 76.0 L 106.0 76.0 L 105.0 76.33333333333333 L 104.33333333333333 77.0 L 104.0 78.0 L 104.0 79.0 L 104.0 80.0 L 104.33333333333333 81.0 L 105.0 82.0 L 105.66666666666667 83.0 L 106.33333333333333 84.0 L 107.0 85.0 L 108.0 86.0 L 109.0 87.0 L 109.5 87.5 Z" stroke="none" fill="rgb(229,178,127)" />
<path d="M 14.5 90.0 L 15.0 89.66666666666667 L 15.666666666666666 89.0 L 15.666666666666666 88.33333333333333 L 15.0 88.0 L 14.0 88.33333333333333 L 13.0 88.66666666666667 L 12.0 89.33333333333333 L 11.333333333333334 90.0 L 11.333333333333334 90.66666666666667 L 12.0 91.0 L 13.0 90.66666666666667 L 13.5 90.5 Z" stroke="none" fill="rgb(0,0,0)" />
<path d="M 46.0 56.5 L 46.0 56.0 L 45.666666666666664 55.333333333333336 L 45.0 55.0 L 44.333333333333336 55.333333333333336 L 43.666666666666664 56.0 L 43.333333333333336 57.0 L 43.333333333333336 57.666666666666664 L 44.0 58.0 L 45.0 57.666666666666664 L 45.5 57.5 Z" stroke="none" fill="rgb(0,0,0)" />
<path d="M 23.5 18.0 L 24.0 18.0 L 24.666666666666668 17.666666666666668 L 24.666666666666668 17.333333333333332 L 24.0 17.0 L 23.0 17.0 L 22.0 17.0 L 21.333333333333332 17.333333333333332 L 21.333333333333332 17.666666666666668 L 22.0 18.0 L 22.5 18.0 Z" stroke="none" fill="rgb(0,0,0)" />
<path d="M 74.5 5.0 L 74.66666666666667 4.666666666666667 L 74.66666666666667 4.333333333333333 L 74.0 4.0 L 73.0 4.0 L 72.33333333333333 4.333333333333333 L 72.33333333333333 4.666666666666667 L 73.0 5.0 L 73.5 5.0 Z" stroke="none" fill="rgb(0,0,0)" />
<path d="M 33.0 20.5 L 33.0 20.0 L 32.666666666666664 19.333333333333332 L 32.0 19.0 L 31.333333333333332 19.333333333333332 L 31.333333333333332 20.0 L 32.0 20.666666666666668 L 32.5 21.0 Z" stroke="none" fill="rgb(0,0,0)" />
<path d="M 49.0 39.5 L 49.0 39.0 L 49.0 38.0 L 48.666666666666664 37.333333333333336 L 48.333333333333336 37.333333333333336 L 48.0 38.0 L 48.0 39.0 L 48.333333333333336 39.666666666666664 L 48.5 40.0 Z" stroke="none" fill="rgb(0,0,0)" />
<path d="M 98.5 76.0 L 99.0 76.0 L 99.66666666666667 75.66666666666667 L 100.0 75.0 L 99.66666666666667 74.33333333333333 L 99.0 74.33333333333333 L 98.33333333333333 75.0 L 98.0 75.5 Z" stroke="none" fill="rgb(0,0,0)" />
<path d="M 8.5 23.0 L 8.666666666666666 22.666666666666668 L 9.0 22.0 L 8.666666666666666 21.333333333333332 L 8.333333333333334 21.333333333333332 L 8.0 22.0 L 8.0 22.5 Z" stroke="none" fill="rgb(0,0,0)" />
<path d="M 5.0 43.5 L 5.0 43.0 L 4.666666666666667 42.333333333333336 L 4.333333333333333 42.333333333333336 L 4.0 43.0 L 4.333333333333333 43.666666666666664 L 4.5 44.0 Z" stroke="none" fill="rgb(0,0,0)" />
<path d="M 48.5 44.0 L 48.666666666666664 43.666666666666664 L 49.0 43.0 L 48.666666666666664 42.333333333333336 L 48.333333333333336 42.333333333333336 L 48.0 43.0 L 48.0 43.5 Z" stroke="none" fill="rgb(0,0,0)" />
<path d="M 91.0 85.5 L 90.66666666666667 85.33333333333333 L 90.0 85.0 L 89.33333333333333 85.33333333333333 L 89.33333333333333 85.66666666666667 L 90.0 86.0 L 90.5 86.0 Z" stroke="none" fill="rgb(0,0,0)" />
<path d="M 87.5 87.0 L 88.0 87.0 L 88.66666666666667 86.66666666666667 L 88.66666666666667 86.33333333333333 L 88.0 86.0 L 87.33333333333333 86.33333333333333 L 87.0 86.5 Z" stroke="none" fill="rgb(0,0,0)" />
<path d="M 116.5 39.0 L 116.66666666666667 38.666666666666664 L 116.66666666666667 38.333333333333336 L 116.33333333333333 38.333333333333336 L 116.0 38.5 Z" stroke="none" fill="rgb(0,0,0)" />
<path d="M 5.5 49.0 L 5.666666666666667 48.666666666666664 L 5.666666666666667 48.333333333333336 L 5.333333333333333 48.333333333333336 L 5.0 48.5 Z" stroke="none" fill="rgb(0,0,0)" />
<path d="M 41.5 55.0 L 41.666666666666664 54.666666666666664 L 41.666666666666664 54.333333333333336 L 41.333333333333336 54.333333333333336 L 41.0 54.5 Z" stroke="none" fill="rgb(0,0,0)" />
<path d="M 14.0 67.5 L 13.666666666666666 67.33333333333333 L 13.333333333333334 67.33333333333333 L 13.333333333333334 67.66666666666667 L 13.5 68.0 Z" stroke="none" fill="rgb(0,0,0)" />
<path d="M 14.5 69.0 L 14.666666666666666 68.66666666666667 L 14.666666666666666 68.33333333333333 L 14.333333333333334 68.33333333333333 L 14.0 68.5 Z" stroke="none" fill="rgb(0,0,0)" />
<path d="M 16.0 69.5 L 15.666666666666666 69.33333333333333 L 15.333333333333334 69.33333333333333 L 15.333333333333334 69.66666666666667 L 15.5 70.0 Z" stroke="none" fill="rgb(0,0,0)" />
<path d="M 101.0 73.5 L 100.66666666666667 73.33333333333333 L 100.33333333333333 73.33333333333333 L 100.33333333333333 73.66666666666667 L 100.5 74.0 Z" stroke="none" fill="rgb(0,0,0)" />
</svg>
