<?xml version="1.0" encoding="UTF-8" standalone="no"?>
<!DOCTYPE svg PUBLIC "-//W3C//DTD SVG 1.1//EN"
"http://www.w3.org/Graphics/SVG/1.1/DTD/svg11.dtd">
<svg width="128" height="128" xmlns="http://www.w3.org/2000/svg" version="1.1">
<path d="M 88.5 128.0 L 89.0 128.0 L 90.0 128.0 L 91.0 128.0 L 92.0 128.0 L 93.0 128.0 L 94.0 128.0 L 95.0 128.0 L 96.0 128.0 L 97.0 128.0 L 98.0 128.0 L 99.0 128.0 L 100.0 128.0 L 101.0 128.0 L 102.0 128.0 L 103.0 128.0 L 104.0 128.0 L 105.0 128.0 L 106.0 128.0 L 107.0 128.0 L 108.0 128.0 L 109.0 128.0 L 110.0 128.0 L 111.0 128.0 L 112.0 128.0 L 113.0 128.0 L 114.0 128.0 L 115.0 128.0 L 116.0 128.0 L 117.0 128.0 L 118.0 128.0 L 119.0 128.0 L 120.0 128.0 L 121.0 128.0 L 122.0 128.0 L 123.0 128.0 L 124.0 128.0 L 125.0 128.0 L 126.0 128.0 L 127.0 128.0 L 127.66666666666667 127.66666666666667 L 128.0 127.0 L 128.0 126.0 L 128.0 125.0 L 128.0 124.0 L 128.0 123.0 L 128.0 122.0 L 128.0 121.0 L 128.0 120.0 L 128.0 119.0 L 128.0 118.0 L 128.0 117.0 L 128.0 116.0 L 128.0 115.0 L 128.0 114.0 L 128.0 113.0 L 128.0 112.0 L 128.0 111.0 L 128.0 110.0 L 128.0 109.0 L 128.0 108.0 L 128.0 107.0 L 128.0 106.0 L 128.0 105.0 L 128.0 104.0 L 128.0 103.0 L 128.0 102.0 L 128.0 101.0 L 128.0 100.0 L 128.0 99.0 L 128.0 98.0 L 128.0 97.0 L 128.0 96.0 L 128.0 95.0 L 128.0 94.0 L 128.0 93.0 L 128.0 92.0 L 128.0 91.0 L 128.0 90.0 L 128.0 89.0 L 128.0 88.0 L 128.0 87.0 L 128.0 86.0 L 128.0 85.0 L 128.0 84.0 L 128.0 83.0 L 128.0 82.0 L 128.0 81.0 L 128.0 80.0 L 128.0 79.0 L 128.0 78.0 L 128.0 77.0 L 128.0 76.0 L 128.0 75.0 L 128.0 74.0 L 128.0 73.0 L 128.0 72.0 L 128.0 71.0 L 128.0 70.0 L 128.0 69.0 L 128.0 68.0 L 128.0 67.0 L 128.0 66.0 L 128.0 65.0 L 128.0 64.0 L 128.0 63.0 L 128.0 62.0 L 128.0 61.0 L 128.0 60.0 L 128.0 59.0 L 128.0 58.0 L 128.0 57.0 L 128.0 56.0 L 128.0 55.0 L 128.0 54.0 L 128.0 53.0 L 128.0 52.0 L 128.0 51.0 L 128.0 50.0 L 128.0 49.0 L 128.0 48.0 L 128.0 47.0 L 128.0 46.0 L 128.0 45.0 L 128.0 44.0 L 128.0 43.0 L 128.0 42.0 L 128.0 41.0 L 128.0 40.0 L 128.0 39.0 L 128.0 38.0 L 128.0 37.0 L 128.0 36.0 L 128.0 35.0 L 128.0 34.0 L 128.0 33.0 L 128.0 32.0 L 128.0 31.0 L 128.0 30.0 L 128.0 29.0 L 128.0 28.0 L 128.0 27.0 L 128.0 26.0 L 128.0 25.0 L 128.0 24.0 L 128.0 23.0 L 128.0 22.0 L 128.0 21.0 L 128.0 20.0 L 128.0 19.0 L 128.0 18.0 L 128.0 17.0 L 128.0 16.0 L 128.0 15.0 L 128.0 14.0 L 128.0 13.0 L 128.0 12.0 L 128.0 11.0 L 128.0 10.0 L 128.0 9.0 L 128.0 8.0 L 128.0 7.0 L 128.0 6.0 L 128.0 5.0 L 128.0 4.0 L 128.0 3.0 L 128.0 2.0 L 128.0 1.0 L 127.66666666666667 0.3333333333333333 L 127.0 0.0 L 126.0 0.0 L 125.0 0.0 L 124.0 0.0 L 123.0 0.0 L 122.0 0.0 L 121.0 0.0 L 120.0 0.0 L 119.0 0.0 L 118.0 0.0 L 117.0 0.0 L 116.0 0.0 L 115.0 0.0 L 114.0 0.0 L 113.0 0.0 L 112.0 0.0 L 111.0 0.0 L 110.0 0.0 L 109.0 0.0 L 108.0 0.0 L 107.0 0.0 L 106.0 0.0 L 105.0 0.0 L 104.0 0.0 L 103.0 0.0 L 102.0 0.0 L 101.0 0.0 L 100.0 0.0 L 99.0 0.0 L 98.0 0.0 L 97.0 0.0 L 96.0 0.0 L 95.0 0.0 L 94.0 0.0 L 93.0 0.0 L 92.0 0.0 L 91.0 0.0 L 90.0 0.0 L 89.0 0.0 L 88.0 0.0 L 87.0 0.0 L 86.0 0.0 L 85.0 0.0 L 84.0 0.0 L 83.0 0.0 L 82.0 0.0 L 81.0 0.0 L 80.0 0.0 L 79.0 0.0 L 78.0 0.0 L 77.0 0.0 L 76.0 0.0 L 75.0 0.0 L 74.0 0.0 L 73.0 0.0 L 72.0 0.0 L 71.0 0.0 L 70.0 0.0 L 69.0 0.0 L 68.0 0.0 L 67.0 0.0 L 66.0 0.0 L 65.0 0.0 L 64.0 0.0 L 63.0 0.0 L 62.0 0.0 L 61.0 0.0 L 60.0 0.0 L 59.0 0.0 L 58.0 0.0 L 57.0 0.0 L 56.0 0.0 L 55.0 0.0 L 54.0 0.0 L 53.0 0.0 L 52.0 0.0 L 51.0 0.0 L 50.0 0.0 L 49.0 0.0 L 48.0 0.0 L 47.0 0.0 L 46.0 0.0 L 45.0 0.0 L 44.0 0.0 L 43.0 0.0 L 42.0 0.0 L 41.0 0.0 L 40.0 0.0 L 39.0 0.0 L 38.0 0.0 L 37.0 0.0 L 36.0 0.0 L 35.0 0.0 L 34.0 0.0 L 33.0 0.0 L 32.0 0.0 L 31.0 0.0 L 30.0 0.0 L 29.0 0.0 L 28.0 0.0 L 27.0 0.0 L 26.0 0.0 L 25.0 0.0 L 24.0 0.0 L 23.0 0.0 L 22.0 0.0 L 21.0 0.0 L 20.0 0.0 L 19.0 0.0 L 18.0 0.0 L 17.0 0.0 L 16.0 0.0 L 15.0 0.0 L 14.0 0.0 L 13.0 0.0 L 12.0 0.0 L 11.0 0.0 L 10.0 0.0 L 9.0 0.0 L 8.0 0.0 L 7.0 0.0 L 6.0 0.0 L 5.0 0.0 L 4.0 0.0 L 3.0 0.0 L 2.0 0.0 L 1.0 0.0 L 0.3333333333333333 0.3333333333333333 L 0.0 1.0 L 0.0 2.0 L 0.0 3.0 L 0.0 4.0 L 0.0 5.0 L 0.0 6.0 L 0.0 7.0 L 0.0 8.0 L 0.0 9.0 L 0.0 10.0 L 0.0 11.0 L 0.0 12.0 L 0.0 13.0 L 0.0 14.0 L 0.0 15.0 L 0.0 16.0 L 0.0 17.0 L 0.0 18.0 L 0.0 19.0 L 0.0 20.0 L 0.0 21.0 L 0.0 22.0 L 0.0 23.0 L 0.0 24.0 L 0.0 25.0 L 0.0 26.0 L 0.0 27.0 L 0.0 28.0 L 0.0 29.0 L 0.0 30.0 L 0.0 31.0 L 0.0 32.0 L 0.0 33.0 L 0.0 34.0 L 0.0 35.0 L 0.0 36.0 L 0.0 37.0 L 0.0 38.0 L 0.0 39.0 L 0.0 40.0 L 0.0 41.0 L 0.0 42.0 L 0.0 43.0 L 0.0 44.0 L 0.0 45.0 L 0.0 46.0 L 0.0 47.0 L 0.0 48.0 L 0.0 49.0 L 0.0 50.0 L 0.0 51.0 L 0.0 52.0 L 0.0 53.0 L 0.0 54.0 L 0.0 55.0 L 0.0 56.0 L 0.0 57.0 L 0.0 58.0 L 0.0 59.0 L 0.0 60.0 L 0.0 61.0 L 0.0 62.0 L 0.0 63.0 L 0.0 64.0 L 0.0 65.0 L 0.0 66.0 L 0.0 67.0 L 0.0 68.0 L 0.0 69.0 L 0.0 70.0 L 0.0 71.0 L 0.0 72.0 L 0.0 73.0 L 0.0 74.0 L 0.0 75.0 L 0.0 76.0 L 0.0 77.0 L 0.0 78.0 L 0.0 79.0 L 0.0 80.0 L 0.0 81.0 L 0.0 82.0 L 0.0 83.0 L 0.0 84.0 L 0.0 85.0 L 0.0 86.0 L 0.0 87.0 L 0.0 88.0 L 0.0 89.0 L 0.0 90.0 L 0.0 91.0 L 0.0 92.0 L 0.0 93.0 L 0.0 94.0 L 0.0 95.0 L 0.0 96.0 L 0.0 97.0 L 0.0 98.0 L 0.0 99.0 L 0.0 100.0 L 0.0 101.0 L 0.0 102.0 L 0.0 103.0 L 0.0 104.0 L 0.0 105.0 L 0.0 106.0 L 0.0 107.0 L 0.0 108.0 L 0.0 109.0 L 0.0 110.0 L 0.0 111.0 L 0.0 112.0 L 0.0 113.0 L 0.0 114.0 L 0.0 115.0 L 0.0 116.0 L 0.0 117.0 L 0.0 118.0 L 0.0 119.0 L 0.0 120.0 L 0.0 121.0 L 0.0 122.0 L 0.0 123.0 L 0.0 124.0 L 0.0 125.0 L 0.0 126.0 L 0.0 127.0 L 0.3333333333333333 127.66666666666667 L 1.0 128.0 L 2.0 128.0 L 3.0 128.0 L 4.0 128.0 L 5.0 128.0 L 6.0 128.0 L 7.0 128.0 L 8.0 128.0 L 9.0 128.0 L 10.0 128.0 L 11.0 128.0 L 12.0 128.0 L 13.0 128.0 L 14.0 128.0 L 15.0 128.0 L 16.0 128.0 L 17.0 128.0 L 18.0 128.0 L 19.0 128.0 L 20.0 128.0 L 21.0 128.0 L 22.0 128.0 L 23.0 128.0 L 24.0 128.0 L 25.0 128.0 L 26.0 128.0 L 27.0 128.0 L 28.0 128.0 L 29.0 128.0 L 30.0 128.0 L 31.0 128.0 L 32.0 128.0 L 33.0 128.0 L 34.0 128.0 L 35.0 128.0 L 36.0 128.0 L 37.0 128.0 L 38.0 128.0 L 39.0 128.0 L 40.0 128.0 L 41.0 128.0 L 42.0 128.0 L 43.0 128.0 L 44.0 128.0 L 45.0 128.0 L 46.0 128.0 L 47.0 128.0 L 48.0 128.0 L 49.0 128.0 L 50.0 128.0 L 51.0 128.0 L 52.0 128.0 L 53.0 128.0 L 54.0 128.0 L 55.0 128.0 L 56.0 128.0 L 57.0 128.0 L 58.0 128.0 L 59.0 128.0 L 60.0 128.0 L 61.0 128.0 L 62.0 128.0 L 63.0 128.0 L 64.0 128.0 L 65.0 128.0 L 66.0 128.0 L 67.0 128.0 L 68.0 128.0 L 69.0 128.0 L 70.0 128.0 L 71.0 128.0 L 72.0 128.0 L 73.0 128.0 L 74.0 128.0 L 75.0 128.0 L 76.0 128.0 L 77.0 128.0 L 78.0 128.0 L 79.0 128.0 L 80.0 128.0 L 81.0 128.0 L 82.0 128.0 L 83.0 128.0 L 84.0 128.0 L 85.0 128.0 L 86.0 128.0 L 87.0 128.0 L 87.5 128.0 Z" stroke="none" fill="rgb(255,255,255)" />
<path d="M 123.5 15.0 L 123.66666666666667 14.666666666666666 L 124.33333333333333 14.0 L 124.66666666666667 13.0 L 125.0 12.0 L 125.0 11.0 L 125.0 10.0 L 125.0 9.0 L 125.0 8.0 L 124.66666666666667 7.0 L 124.0 6.333333333333333 L 123.0 5.666666666666667 L 122.0 5.333333333333333 L 121.0 5.0 L 120.0 5.0 L 119.0 4.666666666666667 L 118.0 4.333333333333333 L 117.0 4.0 L 116.0 4.0 L 115.0 4.0 L 114.0 4.333333333333333 L 113.0 5.0 L 112.33333333333333 6.0 L 112.0 7.0 L 112.0 8.0 L 112.0 9.0 L 112.0 10.0 L 112.0 11.0 L 111.66666666666667 12.0 L 111.33333333333333 13.0 L 111.0 14.0 L 110.66666666666667 15.0 L 110.33333333333333 16.0 L 109.66666666666667 17.0 L 109.33333333333333 18.0 L 108.66666666666667 19.0 L 108.33333333333333 20.0 L 107.66666666666667 21.0 L 107.33333333333333 22.0 L 107.0 23.0 L 107.0 24.0 L 107.0 25.0 L 106.66666666666667 26.0 L 106.33333333333333 27.0 L 105.66666666666667 28.0 L 105.33333333333333 29.0 L 104.66666666666667 30.0 L 104.33333333333333 31.0 L 103.66666666666667 32.0 L 103.33333333333333 33.0 L 102.66666666666667 34.0 L 102.0 35.0 L 101.0 36.0 L 100.33333333333333 37.0 L 99.66666666666667 38.0 L 99.0 39.0 L 98.33333333333333 40.0 L 97.66666666666667 41.0 L 97.0 42.0 L 96.33333333333333 43.0 L 95.66666666666667 44.0 L 95.0 45.0 L 94.33333333333333 46.0 L 93.66666666666667 47.0 L 93.0 48.0 L 92.33333333333333 49.0 L 91.66666666666667 50.0 L 91.33333333333333 51.0 L 90.66666666666667 52.0 L 90.0 53.0 L 89.0 54.0 L 88.0 55.0 L 87.0 56.0 L 86.0 57.0 L 85.0 58.0 L 84.33333333333333 59.0 L 83.66666666666667 60.0 L 83.33333333333333 61.0 L 82.66666666666667 62.0 L 82.0 63.0 L 81.0 64.0 L 80.0 65.0 L 79.0 66.0 L 78.0 67.0 L 77.0 68.0 L 76.0 69.0 L 75.0 70.0 L 74.0 71.0 L 73.0 72.0 L 72.0 73.0 L 71.0 74.0 L 70.0 75.0 L 69.0 76.0 L 68.0 77.0 L 67.0 78.0 L 66.0 79.0 L 65.0 80.0 L 64.0 81.0 L 63.0 82.0 L 62.0 83.0 L 61.0 84.0 L 60.0 84.66666666666667 L 59.0 85.33333333333333 L 58.0 86.0 L 57.0 87.0 L 56.0 88.0 L 55.0 89.0 L 54.0 89.66666666666667 L 53.0 90.33333333333333 L 52.0 91.0 L 51.0 91.66666666666667 L 50.0 92.33333333333333 L 49.0 93.0 L 48.0 94.0 L 47.0 94.66666666666667 L 46.0 95.33333333333333 L 45.0 96.0 L 44.0 97.0 L 43.0 97.66666666666667 L 42.0 98.33333333333333 L 41.0 99.0 L 40.0 99.66666666666667 L 39.0 100.33333333333333 L 38.0 101.0 L 37.0 101.66666666666667 L 36.0 102.0 L 35.0 102.0 L 34.0 102.33333333333333 L 33.333333333333336 103.0 L 32.666666666666664 104.0 L 32.0 105.0 L 31.0 106.0 L 30.0 107.0 L 29.0 107.66666666666667 L 28.0 108.33333333333333 L 27.0 109.0 L 26.0 109.66666666666667 L 25.0 110.33333333333333 L 24.0 110.66666666666667 L 23.0 111.33333333333333 L 22.0 111.66666666666667 L 21.0 112.0 L 20.0 112.33333333333333 L 19.0 112.66666666666667 L 18.0 113.0 L 17.0 113.0 L 16.0 112.66666666666667 L 15.0 112.33333333333333 L 14.0 112.0 L 13.0 112.0 L 12.0 112.33333333333333 L 11.0 112.66666666666667 L 10.0 113.33333333333333 L 9.0 113.66666666666667 L 8.0 113.66666666666667 L 7.0 113.33333333333333 L 6.0 113.0 L 5.0 113.33333333333333 L 4.333333333333333 114.0 L 4.0 115.0 L 4.0 116.0 L 4.0 117.0 L 4.333333333333333 118.0 L 4.666666666666667 119.0 L 5.333333333333333 120.0 L 6.0 120.66666666666667 L 7.0 121.0 L 8.0 121.0 L 9.0 121.0 L 10.0 120.66666666666667 L 11.0 120.33333333333333 L 12.0 120.0 L 13.0 120.0 L 14.0 119.66666666666667 L 15.0 119.33333333333333 L 16.0 119.0 L 17.0 119.0 L 18.0 119.0 L 19.0 119.0 L 20.0 119.0 L 21.0 119.0 L 22.0 119.0 L 23.0 119.0 L 24.0 119.0 L 25.0 119.0 L 26.0 119.0 L 27.0 119.0 L 28.0 119.0 L 29.0 118.66666666666667 L 30.0 118.33333333333333 L 31.0 117.66666666666667 L 32.0 117.33333333333333 L 33.0 116.66666666666667 L 34.0 116.33333333333333 L 35.0 115.66666666666667 L 36.0 115.33333333333333 L 37.0 114.66666666666667 L 38.0 114.0 L 39.0 113.33333333333333 L 40.0 112.66666666666667 L 41.0 112.0 L 42.0 111.33333333333333 L 43.0 110.66666666666667 L 44.0 110.0 L 45.0 109.0 L 46.0 108.0 L 47.0 107.0 L 48.0 106.0 L 49.0 105.0 L 50.0 104.0 L 51.0 103.0 L 52.0 102.0 L 53.0 101.0 L 54.0 100.0 L 55.0 99.0 L 56.0 98.0 L 57.0 97.0 L 58.0 96.0 L 59.0 95.0 L 60.0 94.0 L 61.0 93.0 L 62.0 92.0 L 63.0 91.0 L 64.0 90.0 L 65.0 89.0 L 66.0 88.0 L 67.0 87.0 L 68.0 86.0 L 69.0 85.0 L 70.0 84.0 L 71.0 83.0 L 72.0 82.0 L 73.0 81.0 L 74.0 80.0 L 75.0 79.0 L 76.0 78.0 L 77.0 77.0 L 78.0 76.0 L 78.66666666666667 75.0 L 79.33333333333333 74.0 L 80.0 73.0 L 81.0 72.0 L 82.0 71.0 L 83.0 70.0 L 84.0 69.0 L 85.0 68.0 L 86.0 67.0 L 87.0 66.0 L 88.0 65.0 L 89.0 64.0 L 90.0 63.0 L 91.0 62.0 L 91.66666666666667 61.0 L 92.33333333333333 60.0 L 93.0 59.0 L 94.0 58.0 L 95.0 57.0 L 96.0 56.0 L 96.66666666666667 55.0 L 97.33333333333333 54.0 L 98.0 53.0 L 99.0 52.0 L 99.66666666666667 51.0 L 100.33333333333333 50.0 L 101.0 49.0 L 102.0 48.0 L 102.66666666666667 47.0 L 103.33333333333333 46.0 L 104.0 45.0 L 104.66666666666667 44.0 L 105.33333333333333 43.0 L 106.0 42.0 L 106.66666666666667 41.0 L 107.33333333333333 40.0 L 108.0 39.0 L 108.66666666666667 38.0 L 109.33333333333333 37.0 L 110.0 36.0 L 110.66666666666667 35.0 L 111.33333333333333 34.0 L 112.0 33.0 L 112.66666666666667 32.0 L 113.33333333333333 31.0 L 113.66666666666667 30.0 L 114.33333333333333 29.0 L 115.0 28.0 L 115.66666666666667 27.0 L 116.33333333333333 26.0 L 116.66666666666667 25.0 L 117.33333333333333 24.0 L 118.0 23.0 L 118.66666666666667 22.0 L 119.33333333333333 21.0 L 119.66666666666667 20.0 L 120.33333333333333 19.0 L 120.66666666666667 18.0 L 121.33333333333333 17.0 L 122.0 16.0 L 122.5 15.5 Z" stroke="none" fill="rgb(246,178,59)" />
<path d="M 57.5 79.5 L 58.0 79.0 L 58.666666666666664 78.0 L 58.666666666666664 77.0 L 58.0 76.33333333333333 L 57.0 76.0 L 56.0 76.0 L 55.0 76.0 L 54.0 76.0 L 53.0 76.0 L 52.0 76.0 L 51.0 76.0 L 50.0 76.0 L 49.0 76.0 L 48.0 76.0 L 47.0 75.66666666666667 L 46.333333333333336 75.0 L 46.0 74.0 L 46.0 73.0 L 46.0 72.0 L 46.0 71.0 L 46.0 70.0 L 45.666666666666664 69.0 L 45.0 68.0 L 44.333333333333336 67.0 L 44.333333333333336 66.0 L 45.0 65.0 L 46.0 64.0 L 47.0 63.0 L 48.0 62.0 L 49.0 61.0 L 50.0 60.333333333333336 L 51.0 59.666666666666664 L 52.0 59.0 L 53.0 58.333333333333336 L 54.0 57.666666666666664 L 55.0 57.0 L 56.0 56.333333333333336 L 57.0 55.666666666666664 L 58.0 55.333333333333336 L 59.0 54.666666666666664 L 60.0 54.333333333333336 L 61.0 54.0 L 62.0 53.666666666666664 L 63.0 53.333333333333336 L 64.0 53.0 L 65.0 52.666666666666664 L 66.0 52.333333333333336 L 67.0 52.0 L 68.0 51.666666666666664 L 69.0 51.333333333333336 L 70.0 51.0 L 71.0 51.0 L 72.0 51.0 L 73.0 50.666666666666664 L 74.0 50.333333333333336 L 75.0 50.0 L 76.0 50.0 L 77.0 50.0 L 78.0 50.0 L 79.0 50.0 L 80.0 50.333333333333336 L 81.0 50.666666666666664 L 82.0 50.666666666666664 L 83.0 50.0 L 83.66666666666667 49.0 L 84.0 48.0 L 84.0 47.0 L 83.66666666666667 46.333333333333336 L 83.0 46.0 L 82.0 46.0 L 81.0 46.0 L 80.0 45.666666666666664 L 79.0 45.333333333333336 L 78.0 45.0 L 77.0 45.0 L 76.0 45.0 L 75.0 44.666666666666664 L 74.33333333333333 44.0 L 73.66666666666667 43.0 L 73.33333333333333 42.0 L 73.0 41.0 L 73.0 40.0 L 72.66666666666667 39.0 L 72.0 38.0 L 71.66666666666667 37.0 L 72.0 36.0 L 73.0 35.333333333333336 L 74.0 34.666666666666664 L 75.0 34.0 L 76.0 33.333333333333336 L 77.0 32.666666666666664 L 78.0 32.0 L 79.0 31.333333333333332 L 80.0 30.666666666666668 L 81.0 30.333333333333332 L 82.0 29.666666666666668 L 83.0 29.333333333333332 L 84.0 28.666666666666668 L 85.0 28.333333333333332 L 86.0 27.666666666666668 L 87.0 27.333333333333332 L 88.0 26.666666666666668 L 89.0 26.333333333333332 L 90.0 26.0 L 91.0 25.666666666666668 L 92.0 25.333333333333332 L 93.0 25.0 L 94.0 24.666666666666668 L 95.0 24.333333333333332 L 96.0 24.0 L 97.0 24.0 L 98.0 23.666666666666668 L 99.0 23.333333333333332 L 100.0 23.0 L 101.0 23.0 L 102.0 23.0 L 103.0 23.0 L 104.0 23.0 L 105.0 23.0 L 106.0 23.0 L 107.0 22.666666666666668 L 107.66666666666667 22.0 L 108.0 21.0 L 107.66666666666667 20.0 L 107.0 19.0 L 106.0 18.333333333333332 L 105.0 18.0 L 104.0 18.0 L 103.0 18.0 L 102.0 18.0 L 101.0 18.0 L 100.0 18.0 L 99.0 18.0 L 98.0 18.333333333333332 L 97.0 19.0 L 96.0 19.666666666666668 L 95.0 20.0 L 94.0 20.0 L 93.0 20.0 L 92.0 20.0 L 91.0 20.0 L 90.0 20.333333333333332 L 89.0 20.666666666666668 L 88.0 21.0 L 87.0 21.333333333333332 L 86.0 21.666666666666668 L 85.0 22.0 L 84.0 22.333333333333332 L 83.0 22.666666666666668 L 82.0 23.333333333333332 L 81.0 24.0 L 80.0 24.666666666666668 L 79.0 25.333333333333332 L 78.0 25.666666666666668 L 77.0 26.333333333333332 L 76.0 27.0 L 75.0 28.0 L 74.0 28.666666666666668 L 73.0 29.333333333333332 L 72.0 30.0 L 71.0 31.0 L 70.0 32.0 L 69.0 33.0 L 68.0 34.0 L 67.0 35.0 L 66.33333333333333 36.0 L 66.0 37.0 L 66.33333333333333 38.0 L 67.0 39.0 L 68.0 40.0 L 69.0 41.0 L 70.0 42.0 L 71.0 43.0 L 72.0 44.0 L 72.33333333333333 45.0 L 72.0 46.0 L 71.0 46.666666666666664 L 70.0 47.0 L 69.0 47.0 L 68.0 47.0 L 67.0 47.0 L 66.0 47.0 L 65.0 47.333333333333336 L 64.0 47.666666666666664 L 63.0 48.0 L 62.0 48.0 L 61.0 48.333333333333336 L 60.0 48.666666666666664 L 59.0 49.0 L 58.0 49.333333333333336 L 57.0 49.666666666666664 L 56.0 50.333333333333336 L 55.0 50.666666666666664 L 54.0 51.333333333333336 L 53.0 51.666666666666664 L 52.0 52.333333333333336 L 51.0 53.0 L 50.0 54.0 L 49.0 54.666666666666664 L 48.0 55.333333333333336 L 47.0 56.0 L 46.0 57.0 L 45.0 58.0 L 44.0 59.0 L 43.0 60.0 L 42.0 61.0 L 41.333333333333336 62.0 L 40.666666666666664 63.0 L 40.0 64.0 L 39.333333333333336 65.0 L 38.666666666666664 66.0 L 38.333333333333336 67.0 L 38.0 68.0 L 38.333333333333336 69.0 L 39.0 70.0 L 40.0 71.0 L 41.0 72.0 L 42.0 73.0 L 43.0 74.0 L 43.666666666666664 75.0 L 43.666666666666664 76.0 L 43.0 76.66666666666667 L 42.0 77.0 L 41.0 77.0 L 40.0 77.33333333333333 L 39.0 77.66666666666667 L 38.0 78.0 L 37.0 78.0 L 36.0 78.0 L 35.0 78.33333333333333 L 34.0 78.66666666666667 L 33.0 79.33333333333333 L 32.0 79.66666666666667 L 31.0 80.33333333333333 L 30.0 80.66666666666667 L 29.0 81.33333333333333 L 28.0 82.0 L 27.0 82.66666666666667 L 26.0 83.33333333333333 L 25.0 84.0 L 24.0 85.0 L 23.0 86.0 L 22.0 87.0 L 21.0 88.0 L 20.0 89.0 L 19.0 90.0 L 18.333333333333332 91.0 L 17.666666666666668 92.0 L 17.0 93.0 L 16.333333333333332 94.0 L 16.0 95.0 L 16.0 96.0 L 16.333333333333332 97.0 L 17.0 98.0 L 18.0 99.0 L 19.0 99.66666666666667 L 20.0 100.0 L 21.0 99.66666666666667 L 21.666666666666668 99.0 L 22.0 98.0 L 21.666666666666668 97.0 L 21.0 96.0 L 20.666666666666668 95.0 L 21.0 94.0 L 22.0 93.0 L 23.0 92.0 L 24.0 91.0 L 25.0 90.0 L 26.0 89.33333333333333 L 27.0 88.66666666666667 L 28.0 88.0 L 29.0 87.0 L 30.0 86.33333333333333 L 31.0 85.66666666666667 L 32.0 85.33333333333333 L 33.0 84.66666666666667 L 34.0 84.33333333333333 L 35.0 83.66666666666667 L 36.0 83.33333333333333 L 37.0 83.0 L 38.0 82.66666666666667 L 39.0 82.33333333333333 L 40.0 82.0 L 41.0 81.66666666666667 L 42.0 81.33333333333333 L 43.0 81.0 L 44.0 81.0 L 45.0 81.0 L 46.0 80.66666666666667 L 47.0 80.33333333333333 L 48.0 80.0 L 49.0 80.0 L 50.0 80.0 L 51.0 80.0 L 52.0 80.0 L 53.0 80.0 L 54.0 80.33333333333333 L 55.0 80.66666666666667 L 56.0 80.66666666666667 L 56.5 80.5 Z" stroke="none" fill="rgb(206,113,27)" />
<path d="M 72.5 87.5 L 73.0 87.0 L 74.0 86.0 L 75.0 85.0 L 76.0 84.0 L 77.0 83.0 L 78.0 82.0 L 79.0 81.0 L 80.0 80.0 L 81.0 79.0 L 82.0 78.0 L 82.66666666666667 77.0 L 83.33333333333333 76.0 L 84.0 75.0 L 85.0 74.0 L 86.0 73.0 L 87.0 72.0 L 88.0 71.0 L 89.0 70.0 L 90.0 69.0 L 91.0 68.0 L 91.66666666666667 67.0 L 92.33333333333333 66.0 L 93.0 65.0 L 94.0 64.0 L 95.0 63.0 L 96.0 62.0 L 96.66666666666667 61.0 L 97.33333333333333 60.0 L 98.0 59.0 L 99.0 58.0 L 99.66666666666667 57.0 L 100.33333333333333 56.0 L 101.0 55.0 L 102.0 54.0 L 102.66666666666667 53.0 L 103.33333333333333 52.0 L 104.0 51.0 L 105.0 50.0 L 105.66666666666667 49.0 L 106.33333333333333 48.0 L 107.0 47.0 L 108.0 46.0 L 108.66666666666667 45.0 L 109.33333333333333 44.0 L 110.0 43.0 L 110.66666666666667 42.0 L 111.33333333333333 41.0 L 112.0 40.0 L 112.66666666666667 39.0 L 113.33333333333333 38.0 L 113.66666666666667 37.0 L 114.33333333333333 36.0 L 115.0 35.0 L 115.66666666666667 34.0 L 116.33333333333333 33.0 L 116.66666666666667 32.0 L 117.33333333333333 31.0 L 117.66666666666667 30.0 L 118.33333333333333 29.0 L 118.66666666666667 28.0 L 119.33333333333333 27.0 L 119.66666666666667 26.0 L 120.33333333333333 25.0 L 120.66666666666667 24.0 L 121.33333333333333 23.0 L 121.66666666666667 22.0 L 122.33333333333333 21.0 L 122.66666666666667 20.0 L 123.0 19.0 L 123.33333333333333 18.0 L 123.66666666666667 17.0 L 124.0 16.0 L 123.66666666666667 15.333333333333334 L 123.0 15.0 L 122.0 15.333333333333334 L 121.33333333333333 16.0 L 120.66666666666667 17.0 L 120.33333333333333 18.0 L 119.66666666666667 19.0 L 119.33333333333333 20.0 L 118.66666666666667 21.0 L 118.0 22.0 L 117.33333333333333 23.0 L 116.66666666666667 24.0 L 116.33333333333333 25.0 L 115.66666666666667 26.0 L 115.0 27.0 L 114.33333333333333 28.0 L 113.66666666666667 29.0 L 113.33333333333333 30.0 L 112.66666666666667 31.0 L 112.0 32.0 L 111.33333333333333 33.0 L 110.66666666666667 34.0 L 110.0 35.0 L 109.33333333333333 36.0 L 108.66666666666667 37.0 L 108.0 38.0 L 107.33333333333333 39.0 L 106.66666666666667 40.0 L 106.0 41.0 L 105.33333333333333 42.0 L 104.66666666666667 43.0 L 104.0 44.0 L 103.33333333333333 45.0 L 102.66666666666667 46.0 L 102.0 47.0 L 101.0 48.0 L 100.33333333333333 49.0 L 99.66666666666667 50.0 L 99.0 51.0 L 98.0 52.0 L 97.33333333333333 53.0 L 96.66666666666667 54.0 L 96.0 55.0 L 95.0 56.0 L 94.0 57.0 L 93.0 58.0 L 92.33333333333333 59.0 L 91.66666666666667 60.0 L 91.0 61.0 L 90.0 62.0 L 89.0 63.0 L 88.0 64.0 L 87.0 65.0 L 86.0 66.0 L 85.0 67.0 L 84.0 68.0 L 83.0 69.0 L 82.0 70.0 L 81.0 71.0 L 80.0 72.0 L 79.33333333333333 73.0 L 78.66666666666667 74.0 L 78.0 75.0 L 77.0 76.0 L 76.0 77.0 L 75.0 78.0 L 74.0 79.0 L 73.0 80.0 L 72.0 81.0 L 71.0 82.0 L 70.0 83.0 L 69.0 84.0 L 68.0 85.0 L 67.0 86.0 L 66.0 87.0 L 65.0 88.0 L 64.0 89.0 L 63.0 90.0 L 62.0 91.0 L 61.0 92.0 L 60.0 93.0 L 59.0 94.0 L 58.0 95.0 L 57.0 96.0 L 56.0 97.0 L 55.0 98.0 L 54.0 99.0 L 53.0 100.0 L 52.0 101.0 L 51.0 102.0 L 50.0 103.0 L 49.0 104.0 L 48.0 105.0 L 47.0 106.0 L 46.0 107.0 L 45.0 108.0 L 44.0 109.0 L 43.0 110.0 L 42.0 110.66666666666667 L 41.0 111.33333333333333 L 40.0 112.0 L 39.0 112.66666666666667 L 38.0 113.33333333333333 L 37.0 114.0 L 36.0 114.66666666666667 L 35.0 115.33333333333333 L 34.0 115.66666666666667 L 33.0 116.33333333333333 L 32.0 116.66666666666667 L 31.0 117.33333333333333 L 30.0 117.66666666666667 L 29.0 118.33333333333333 L 28.0 118.66666666666667 L 27.0 119.0 L 26.0 119.0 L 25.0 119.0 L 24.0 119.0 L 23.0 119.0 L 22.0 119.0 L 21.0 119.0 L 20.0 119.0 L 19.0 119.0 L 18.0 119.0 L 17.0 119.0 L 16.0 119.0 L 15.0 119.0 L 14.0 119.33333333333333 L 13.0 119.66666666666667 L 12.0 120.0 L 11.0 120.0 L 10.0 120.33333333333333 L 9.0 120.66666666666667 L 8.0 121.0 L 7.333333333333333 121.33333333333333 L 7.0 122.0 L 7.333333333333333 122.66666666666667 L 8.0 123.0 L 9.0 123.0 L 10.0 123.0 L 11.0 123.0 L 12.0 123.0 L 13.0 123.0 L 14.0 122.66666666666667 L 15.0 122.33333333333333 L 16.0 122.0 L 17.0 122.0 L 18.0 122.33333333333333 L 19.0 122.66666666666667 L 20.0 123.0 L 21.0 123.0 L 22.0 123.0 L 23.0 123.0 L 24.0 122.66666666666667 L 25.0 122.33333333333333 L 26.0 122.0 L 27.0 122.0 L 28.0 122.0 L 29.0 121.66666666666667 L 30.0 121.33333333333333 L 31.0 121.0 L 32.0 120.66666666666667 L 33.0 120.33333333333333 L 34.0 119.66666666666667 L 35.0 119.33333333333333 L 36.0 118.66666666666667 L 37.0 118.33333333333333 L 38.0 117.66666666666667 L 39.0 117.0 L 40.0 116.33333333333333 L 41.0 115.66666666666667 L 42.0 115.0 L 43.0 114.0 L 44.0 113.33333333333333 L 45.0 112.66666666666667 L 46.0 112.0 L 47.0 111.0 L 48.0 110.0 L 49.0 109.0 L 50.0 108.33333333333333 L 51.0 107.66666666666667 L 52.0 107.0 L 53.0 106.0 L 54.0 105.0 L 55.0 104.0 L 56.0 103.0 L 57.0 102.0 L 58.0 101.0 L 59.0 100.0 L 60.0 99.0 L 61.0 98.0 L 62.0 97.0 L 63.0 96.0 L 64.0 95.0 L 65.0 94.0 L 66.0 93.33333333333333 L 67.0 92.66666666666667 L 68.0 92.0 L 69.0 91.0 L 70.0 90.0 L 71.0 89.0 L 71.5 88.5 Z" stroke="none" fill="rgb(227,132,19)" />
<path d="M 24.5 85.5 L 25.0 85.0 L 26.0 84.0 L 27.0 83.33333333333333 L 28.0 82.66666666666667 L 29.0 82.0 L 30.0 81.33333333333333 L 31.0 80.66666666666667 L 32.0 80.33333333333333 L 33.0 79.66666666666667 L 34.0 79.33333333333333 L 35.0 78.66666666666667 L 36.0 78.33333333333333 L 37.0 78.0 L 38.0 78.0 L 39.0 78.0 L 40.0 77.66666666666667 L 41.0 77.33333333333333 L 42.0 77.0 L 43.0 77.0 L 44.0 76.66666666666667 L 44.666666666666664 76.0 L 44.666666666666664 75.0 L 44.0 74.0 L 43.0 73.0 L 42.0 72.0 L 41.0 71.0 L 40.0 70.0 L 39.0 69.0 L 38.666666666666664 68.0 L 38.666666666666664 67.0 L 39.333333333333336 66.0 L 40.0 65.0 L 40.666666666666664 64.0 L 41.333333333333336 63.0 L 42.0 62.0 L 43.0 61.0 L 44.0 60.0 L 45.0 59.0 L 46.0 58.0 L 47.0 57.0 L 48.0 56.0 L 49.0 55.333333333333336 L 50.0 54.666666666666664 L 51.0 54.0 L 52.0 53.0 L 53.0 52.333333333333336 L 54.0 51.666666666666664 L 55.0 51.333333333333336 L 56.0 50.666666666666664 L 57.0 50.333333333333336 L 58.0 49.666666666666664 L 59.0 49.333333333333336 L 60.0 49.0 L 61.0 48.666666666666664 L 62.0 48.333333333333336 L 63.0 48.0 L 64.0 48.0 L 65.0 47.666666666666664 L 66.0 47.333333333333336 L 67.0 47.0 L 68.0 47.0 L 69.0 47.0 L 70.0 47.0 L 71.0 47.0 L 72.0 46.666666666666664 L 72.66666666666667 46.0 L 73.0 45.0 L 72.66666666666667 44.0 L 72.0 43.0 L 71.0 42.0 L 70.0 41.0 L 69.0 40.0 L 68.0 39.0 L 67.0 38.0 L 66.66666666666667 37.0 L 67.0 36.0 L 68.0 35.0 L 69.0 34.0 L 70.0 33.0 L 71.0 32.0 L 72.0 31.0 L 73.0 30.0 L 74.0 29.333333333333332 L 75.0 28.666666666666668 L 76.0 28.0 L 77.0 27.0 L 78.0 26.333333333333332 L 79.0 25.666666666666668 L 80.0 25.333333333333332 L 81.0 24.666666666666668 L 82.0 24.0 L 83.0 23.333333333333332 L 84.0 22.666666666666668 L 85.0 22.333333333333332 L 86.0 22.0 L 87.0 21.666666666666668 L 88.0 21.333333333333332 L 89.0 21.0 L 90.0 20.666666666666668 L 90.66666666666667 20.0 L 90.66666666666667 19.0 L 90.33333333333333 18.0 L 90.0 17.0 L 89.66666666666667 16.0 L 89.0 15.333333333333334 L 88.0 15.0 L 87.0 15.333333333333334 L 86.0 15.666666666666666 L 85.0 16.333333333333332 L 84.0 17.0 L 83.0 17.666666666666668 L 82.0 18.333333333333332 L 81.0 19.0 L 80.0 20.0 L 79.0 20.666666666666668 L 78.0 21.333333333333332 L 77.0 22.0 L 76.0 23.0 L 75.0 24.0 L 74.0 25.0 L 73.0 26.0 L 72.0 27.0 L 71.0 28.0 L 70.0 29.0 L 69.0 30.0 L 68.0 31.0 L 67.0 32.0 L 66.0 33.0 L 65.0 34.0 L 64.0 35.0 L 63.0 36.0 L 62.0 37.0 L 61.0 38.0 L 60.0 39.0 L 59.0 40.0 L 58.0 41.0 L 57.0 42.0 L 56.0 43.0 L 55.0 44.0 L 54.0 45.0 L 53.0 46.0 L 52.0 47.0 L 51.0 48.0 L 50.0 49.0 L 49.0 50.0 L 48.0 51.0 L 47.0 52.0 L 46.0 53.0 L 45.333333333333336 54.0 L 44.666666666666664 55.0 L 44.0 56.0 L 43.0 57.0 L 42.0 58.0 L 41.0 59.0 L 40.0 60.0 L 39.0 61.0 L 38.0 62.0 L 37.333333333333336 63.0 L 36.666666666666664 64.0 L 36.0 65.0 L 35.0 66.0 L 34.0 67.0 L 33.0 68.0 L 32.0 69.0 L 31.0 70.0 L 30.333333333333332 71.0 L 29.666666666666668 72.0 L 29.0 73.0 L 28.0 74.0 L 27.0 75.0 L 26.0 76.0 L 25.333333333333332 77.0 L 24.666666666666668 78.0 L 24.0 79.0 L 23.0 80.0 L 22.0 81.0 L 21.0 82.0 L 20.333333333333332 83.0 L 19.666666666666668 84.0 L 19.0 85.0 L 18.0 86.0 L 17.333333333333332 87.0 L 16.666666666666668 88.0 L 16.0 89.0 L 15.333333333333334 90.0 L 15.0 91.0 L 15.333333333333334 92.0 L 16.0 92.66666666666667 L 17.0 93.0 L 17.666666666666668 92.66666666666667 L 18.333333333333332 92.0 L 19.0 91.0 L 20.0 90.0 L 21.0 89.0 L 22.0 88.0 L 23.0 87.0 L 23.5 86.5 Z" stroke="none" fill="rgb(219,131,22)" />
<path d="M 57.5 76.5 L 58.0 76.66666666666667 L 59.0 77.0 L 59.666666666666664 76.66666666666667 L 60.0 76.0 L 60.333333333333336 75.0 L 60.666666666666664 74.0 L 61.0 73.0 L 61.0 72.0 L 61.0 71.0 L 61.0 70.0 L 61.0 69.0 L 61.0 68.0 L 60.666666666666664 67.0 L 60.333333333333336 66.0 L 60.333333333333336 65.0 L 61.0 64.0 L 62.0 63.333333333333336 L 63.0 63.0 L 64.0 63.0 L 65.0 63.0 L 66.0 62.666666666666664 L 67.0 62.333333333333336 L 68.0 61.666666666666664 L 69.0 61.333333333333336 L 70.0 61.0 L 71.0 60.666666666666664 L 72.0 60.333333333333336 L 73.0 59.666666666666664 L 74.0 59.333333333333336 L 75.0 58.666666666666664 L 76.0 58.0 L 77.0 57.0 L 78.0 56.0 L 78.66666666666667 55.0 L 79.33333333333333 54.0 L 80.0 53.0 L 80.66666666666667 52.0 L 81.0 51.0 L 80.66666666666667 50.333333333333336 L 80.0 50.0 L 79.0 50.0 L 78.0 50.0 L 77.0 50.0 L 76.0 50.0 L 75.0 50.0 L 74.0 50.0 L 73.0 50.333333333333336 L 72.0 50.666666666666664 L 71.0 51.0 L 70.0 51.0 L 69.0 51.0 L 68.0 51.333333333333336 L 67.0 51.666666666666664 L 66.0 52.0 L 65.0 52.333333333333336 L 64.0 52.666666666666664 L 63.0 53.0 L 62.0 53.333333333333336 L 61.0 53.666666666666664 L 60.0 54.0 L 59.0 54.333333333333336 L 58.0 54.666666666666664 L 57.0 55.333333333333336 L 56.0 55.666666666666664 L 55.0 56.333333333333336 L 54.0 57.0 L 53.0 57.666666666666664 L 52.0 58.333333333333336 L 51.0 59.0 L 50.0 59.666666666666664 L 49.0 60.333333333333336 L 48.0 61.0 L 47.0 62.0 L 46.0 63.0 L 45.0 64.0 L 44.0 65.0 L 43.333333333333336 66.0 L 43.333333333333336 67.0 L 44.0 68.0 L 45.0 69.0 L 46.0 70.0 L 47.0 70.66666666666667 L 48.0 70.66666666666667 L 49.0 70.33333333333333 L 50.0 70.33333333333333 L 51.0 71.0 L 52.0 72.0 L 53.0 73.0 L 54.0 74.0 L 55.0 75.0 L 56.0 75.66666666666667 L 56.5 76.0 Z" stroke="none" fill="rgb(253,206,140)" />
<path d="M 24.5 97.5 L 25.0 97.0 L 26.0 96.0 L 27.0 95.66666666666667 L 28.0 96.0 L 29.0 97.0 L 29.666666666666668 98.0 L 30.0 99.0 L 30.0 100.0 L 30.333333333333332 101.0 L 31.0 102.0 L 32.0 102.66666666666667 L 33.0 103.0 L 34.0 102.66666666666667 L 35.0 102.0 L 35.666666666666664 101.0 L 36.333333333333336 100.0 L 36.666666666666664 99.0 L 37.0 98.0 L 37.333333333333336 97.0 L 37.666666666666664 96.0 L 38.0 95.0 L 38.333333333333336 94.0 L 39.0 93.33333333333333 L 40.0 92.66666666666667 L 41.0 92.33333333333333 L 42.0 92.0 L 43.0 92.0 L 44.0 92.0 L 45.0 91.66666666666667 L 46.0 91.33333333333333 L 47.0 90.66666666666667 L 48.0 90.0 L 49.0 89.0 L 50.0 88.33333333333333 L 51.0 87.66666666666667 L 52.0 87.0 L 52.666666666666664 86.0 L 53.0 85.0 L 53.333333333333336 84.0 L 54.0 83.0 L 54.666666666666664 82.0 L 55.0 81.0 L 54.666666666666664 80.33333333333333 L 54.0 80.0 L 53.0 80.0 L 52.0 80.0 L 51.0 80.0 L 50.0 80.0 L 49.0 80.0 L 48.0 80.0 L 47.0 80.0 L 46.0 80.33333333333333 L 45.0 80.66666666666667 L 44.0 81.0 L 43.0 81.0 L 42.0 81.0 L 41.0 81.33333333333333 L 40.0 81.66666666666667 L 39.0 82.0 L 38.0 82.33333333333333 L 37.0 82.66666666666667 L 36.0 83.0 L 35.0 83.33333333333333 L 34.0 83.66666666666667 L 33.0 84.33333333333333 L 32.0 84.66666666666667 L 31.0 85.33333333333333 L 30.0 85.66666666666667 L 29.0 86.33333333333333 L 28.0 87.0 L 27.0 88.0 L 26.0 88.66666666666667 L 25.0 89.33333333333333 L 24.0 90.0 L 23.0 91.0 L 22.0 92.0 L 21.0 93.0 L 20.333333333333332 94.0 L 20.0 95.0 L 20.333333333333332 96.0 L 21.0 97.0 L 22.0 97.66666666666667 L 23.0 98.0 L 23.5 98.0 Z" stroke="none" fill="rgb(253,206,140)" />
<path d="M 88.5 41.5 L 88.66666666666667 41.0 L 89.0 40.0 L 89.33333333333333 39.0 L 89.66666666666667 38.0 L 90.33333333333333 37.0 L 91.0 36.0 L 92.0 35.0 L 93.0 34.0 L 94.0 33.333333333333336 L 95.0 33.0 L 96.0 32.666666666666664 L 97.0 32.0 L 98.0 31.333333333333332 L 99.0 30.666666666666668 L 100.0 30.0 L 101.0 29.333333333333332 L 101.66666666666667 28.666666666666668 L 102.33333333333333 28.0 L 103.0 27.0 L 104.0 26.333333333333332 L 104.66666666666667 25.666666666666668 L 105.0 25.0 L 105.0 24.0 L 105.0 23.0 L 104.66666666666667 22.333333333333332 L 104.0 22.333333333333332 L 103.0 22.666666666666668 L 102.0 23.0 L 101.0 23.0 L 100.0 23.0 L 99.0 23.0 L 98.0 23.333333333333332 L 97.0 23.666666666666668 L 96.0 24.0 L 95.0 24.0 L 94.0 24.333333333333332 L 93.0 24.666666666666668 L 92.0 25.0 L 91.0 25.333333333333332 L 90.0 25.666666666666668 L 89.0 26.0 L 88.0 26.333333333333332 L 87.0 26.666666666666668 L 86.0 27.333333333333332 L 85.0 27.666666666666668 L 84.0 28.333333333333332 L 83.0 28.666666666666668 L 82.0 29.333333333333332 L 81.0 29.666666666666668 L 80.0 30.333333333333332 L 79.0 30.666666666666668 L 78.0 31.333333333333332 L 77.0 32.0 L 76.0 32.666666666666664 L 75.0 33.333333333333336 L 74.0 34.0 L 73.0 34.666666666666664 L 72.0 35.333333333333336 L 71.33333333333333 36.0 L 71.0 37.0 L 71.33333333333333 38.0 L 72.0 39.0 L 73.0 39.666666666666664 L 74.0 39.666666666666664 L 75.0 39.0 L 76.0 38.333333333333336 L 77.0 38.0 L 78.0 38.0 L 79.0 38.333333333333336 L 80.0 39.0 L 81.0 40.0 L 82.0 41.0 L 83.0 42.0 L 84.0 43.0 L 85.0 43.666666666666664 L 86.0 43.666666666666664 L 87.0 43.0 L 87.5 42.5 Z" stroke="none" fill="rgb(253,206,140)" />
<path d="M 91.0 48.5 L 91.33333333333333 48.0 L 92.0 47.0 L 92.66666666666667 46.0 L 93.33333333333333 45.0 L 94.0 44.0 L 94.66666666666667 43.0 L 95.33333333333333 42.0 L 96.0 41.0 L 96.66666666666667 40.0 L 97.33333333333333 39.0 L 97.66666666666667 38.0 L 98.33333333333333 37.0 L 98.66666666666667 36.0 L 99.33333333333333 35.0 L 100.0 34.0 L 100.66666666666667 33.0 L 101.33333333333333 32.0 L 101.66666666666667 31.0 L 102.0 30.0 L 101.66666666666667 29.333333333333332 L 101.0 29.0 L 100.0 29.333333333333332 L 99.0 30.0 L 98.33333333333333 31.0 L 98.0 32.0 L 97.66666666666667 33.0 L 97.33333333333333 34.0 L 96.66666666666667 35.0 L 96.33333333333333 36.0 L 95.66666666666667 37.0 L 95.33333333333333 38.0 L 94.66666666666667 39.0 L 94.0 40.0 L 93.33333333333333 41.0 L 92.66666666666667 42.0 L 92.0 43.0 L 91.33333333333333 44.0 L 90.66666666666667 45.0 L 90.0 46.0 L 89.33333333333333 47.0 L 88.66666666666667 48.0 L 88.0 49.0 L 87.0 50.0 L 86.33333333333333 51.0 L 85.66666666666667 52.0 L 85.0 53.0 L 84.0 54.0 L 83.33333333333333 55.0 L 82.66666666666667 56.0 L 82.0 57.0 L 81.0 58.0 L 80.0 59.0 L 79.0 60.0 L 78.33333333333333 61.0 L 77.66666666666667 62.0 L 77.0 63.0 L 76.0 64.0 L 75.0 65.0 L 74.0 66.0 L 73.0 67.0 L 72.0 68.0 L 71.0 69.0 L 70.0 70.0 L 69.0 71.0 L 68.0 72.0 L 67.0 73.0 L 66.0 74.0 L 65.0 75.0 L 64.0 76.0 L 63.0 77.0 L 62.0 78.0 L 61.0 79.0 L 60.0 79.66666666666667 L 59.0 80.33333333333333 L 58.0 81.0 L 57.0 82.0 L 56.0 83.0 L 55.0 84.0 L 54.0 84.66666666666667 L 53.0 85.33333333333333 L 52.0 86.0 L 51.0 87.0 L 50.0 87.66666666666667 L 49.0 88.33333333333333 L 48.0 89.0 L 47.0 90.0 L 46.0 90.66666666666667 L 45.0 91.33333333333333 L 44.0 91.66666666666667 L 43.0 92.33333333333333 L 42.0 93.0 L 41.0 94.0 L 40.0 94.66666666666667 L 39.0 95.0 L 38.0 95.33333333333333 L 37.333333333333336 96.0 L 37.0 97.0 L 37.333333333333336 97.66666666666667 L 38.0 98.0 L 39.0 97.66666666666667 L 40.0 97.33333333333333 L 41.0 96.66666666666667 L 42.0 96.0 L 43.0 95.33333333333333 L 44.0 94.66666666666667 L 45.0 94.0 L 46.0 93.33333333333333 L 47.0 92.66666666666667 L 48.0 92.0 L 49.0 91.0 L 50.0 90.33333333333333 L 51.0 89.66666666666667 L 52.0 89.0 L 53.0 88.0 L 54.0 87.33333333333333 L 55.0 86.66666666666667 L 56.0 86.0 L 57.0 85.0 L 58.0 84.0 L 59.0 83.0 L 60.0 82.33333333333333 L 61.0 81.66666666666667 L 62.0 81.0 L 63.0 80.0 L 64.0 79.0 L 65.0 78.0 L 66.0 77.0 L 67.0 76.0 L 68.0 75.0 L 69.0 74.0 L 70.0 73.0 L 71.0 72.0 L 72.0 71.0 L 73.0 70.0 L 74.0 69.0 L 75.0 68.0 L 76.0 67.0 L 77.0 66.0 L 78.0 65.0 L 79.0 64.33333333333333 L 80.0 63.666666666666664 L 80.66666666666667 63.0 L 81.0 62.0 L 81.33333333333333 61.0 L 82.0 60.0 L 83.0 59.0 L 84.0 58.0 L 84.66666666666667 57.0 L 85.33333333333333 56.0 L 86.0 55.0 L 87.0 54.0 L 88.0 53.0 L 88.66666666666667 52.0 L 89.33333333333333 51.0 L 90.0 50.0 L 90.5 49.5 Z" stroke="none" fill="rgb(237,163,47)" />
<path d="M 59.5 80.5 L 60.0 80.33333333333333 L 61.0 79.66666666666667 L 62.0 79.0 L 63.0 78.0 L 64.0 77.0 L 65.0 76.0 L 66.0 75.0 L 67.0 74.0 L 68.0 73.0 L 69.0 72.0 L 70.0 71.0 L 71.0 70.0 L 72.0 69.0 L 73.0 68.0 L 74.0 67.0 L 75.0 66.0 L 76.0 65.0 L 77.0 64.0 L 77.66666666666667 63.0 L 78.33333333333333 62.0 L 79.0 61.0 L 80.0 60.0 L 81.0 59.0 L 82.0 58.0 L 82.66666666666667 57.0 L 83.33333333333333 56.0 L 84.0 55.0 L 85.0 54.0 L 85.66666666666667 53.0 L 86.33333333333333 52.0 L 87.0 51.0 L 88.0 50.0 L 88.66666666666667 49.0 L 89.33333333333333 48.0 L 90.0 47.0 L 90.66666666666667 46.0 L 91.33333333333333 45.0 L 92.0 44.0 L 92.66666666666667 43.0 L 93.33333333333333 42.0 L 94.0 41.0 L 94.66666666666667 40.0 L 95.33333333333333 39.0 L 95.66666666666667 38.0 L 96.33333333333333 37.0 L 96.66666666666667 36.0 L 97.33333333333333 35.0 L 97.66666666666667 34.0 L 98.0 33.0 L 98.0 32.0 L 97.66666666666667 31.333333333333332 L 97.0 31.333333333333332 L 96.0 32.0 L 95.33333333333333 33.0 L 95.0 34.0 L 94.66666666666667 35.0 L 94.0 36.0 L 93.33333333333333 37.0 L 92.66666666666667 38.0 L 92.33333333333333 39.0 L 91.66666666666667 40.0 L 91.0 41.0 L 90.33333333333333 42.0 L 89.66666666666667 43.0 L 89.33333333333333 44.0 L 88.66666666666667 45.0 L 88.0 46.0 L 87.0 47.0 L 86.33333333333333 48.0 L 85.66666666666667 49.0 L 85.0 50.0 L 84.33333333333333 51.0 L 83.66666666666667 52.0 L 83.0 53.0 L 82.0 54.0 L 81.0 55.0 L 80.33333333333333 56.0 L 79.66666666666667 57.0 L 79.0 58.0 L 78.0 59.0 L 77.0 60.0 L 76.0 61.0 L 75.0 62.0 L 74.33333333333333 63.0 L 73.66666666666667 64.0 L 73.0 65.0 L 72.0 66.0 L 71.0 67.0 L 70.0 68.0 L 69.0 69.0 L 68.0 70.0 L 67.0 71.0 L 66.0 72.0 L 65.0 73.0 L 64.0 74.0 L 63.0 75.0 L 62.0 75.66666666666667 L 61.0 76.0 L 60.0 76.33333333333333 L 59.0 77.0 L 58.0 78.0 L 57.0 79.0 L 56.0 80.0 L 55.0 81.0 L 54.0 82.0 L 53.333333333333336 83.0 L 53.0 84.0 L 53.333333333333336 84.66666666666667 L 54.0 85.0 L 55.0 84.66666666666667 L 56.0 84.0 L 57.0 83.0 L 58.0 82.0 L 58.5 81.5 Z" stroke="none" fill="rgb(234,156,42)" />
<path d="M 68.5 70.5 L 69.0 70.0 L 70.0 69.0 L 71.0 68.0 L 72.0 67.0 L 73.0 66.0 L 73.66666666666667 65.0 L 74.33333333333333 64.0 L 75.0 63.0 L 76.0 62.0 L 77.0 61.0 L 78.0 60.0 L 79.0 59.0 L 79.66666666666667 58.0 L 80.33333333333333 57.0 L 81.0 56.0 L 82.0 55.0 L 83.0 54.0 L 83.66666666666667 53.0 L 84.33333333333333 52.0 L 85.0 51.0 L 85.66666666666667 50.0 L 86.33333333333333 49.0 L 87.0 48.0 L 88.0 47.0 L 88.66666666666667 46.0 L 89.33333333333333 45.0 L 89.66666666666667 44.0 L 90.33333333333333 43.0 L 91.0 42.0 L 91.66666666666667 41.0 L 92.33333333333333 40.0 L 92.66666666666667 39.0 L 93.33333333333333 38.0 L 94.0 37.0 L 94.66666666666667 36.0 L 95.0 35.0 L 95.0 34.0 L 94.66666666666667 33.333333333333336 L 94.0 33.0 L 93.0 33.333333333333336 L 92.0 34.0 L 91.0 35.0 L 90.33333333333333 36.0 L 89.66666666666667 37.0 L 89.33333333333333 38.0 L 89.0 39.0 L 88.66666666666667 40.0 L 88.0 41.0 L 87.0 42.0 L 86.0 43.0 L 85.0 44.0 L 84.33333333333333 45.0 L 84.0 46.0 L 84.0 47.0 L 83.66666666666667 48.0 L 83.0 49.0 L 82.0 50.0 L 81.0 51.0 L 80.0 52.0 L 79.33333333333333 53.0 L 78.66666666666667 54.0 L 78.0 55.0 L 77.0 56.0 L 76.0 57.0 L 75.0 58.0 L 74.33333333333333 59.0 L 74.0 60.0 L 73.66666666666667 61.0 L 73.0 62.0 L 72.0 63.0 L 71.0 64.0 L 70.0 65.0 L 69.0 66.0 L 68.0 67.0 L 67.0 68.0 L 66.0 69.0 L 65.0 70.0 L 64.0 71.0 L 63.0 72.0 L 62.0 72.66666666666667 L 61.0 73.33333333333333 L 60.333333333333336 74.0 L 60.0 75.0 L 60.333333333333336 75.66666666666667 L 61.0 76.0 L 62.0 76.0 L 63.0 75.66666666666667 L 64.0 75.0 L 65.0 74.0 L 66.0 73.0 L 67.0 72.0 L 67.5 71.5 Z" stroke="none" fill="rgb(231,150,37)" />
<path d="M 105.0 27.5 L 105.0 27.0 L 104.66666666666667 26.333333333333332 L 104.0 26.0 L 103.0 26.333333333333332 L 102.33333333333333 27.0 L 102.0 28.0 L 102.0 29.0 L 101.66666666666667 30.0 L 101.33333333333333 31.0 L 100.66666666666667 32.0 L 100.0 33.0 L 99.33333333333333 34.0 L 98.66666666666667 35.0 L 98.33333333333333 36.0 L 97.66666666666667 37.0 L 97.33333333333333 38.0 L 96.66666666666667 39.0 L 96.0 40.0 L 95.33333333333333 41.0 L 94.66666666666667 42.0 L 94.0 43.0 L 93.33333333333333 44.0 L 92.66666666666667 45.0 L 92.0 46.0 L 91.33333333333333 47.0 L 90.66666666666667 48.0 L 90.0 49.0 L 89.33333333333333 50.0 L 89.0 51.0 L 89.33333333333333 51.666666666666664 L 90.0 51.666666666666664 L 91.0 51.333333333333336 L 91.66666666666667 50.666666666666664 L 92.33333333333333 50.0 L 93.0 49.0 L 93.66666666666667 48.0 L 94.33333333333333 47.0 L 95.0 46.0 L 95.66666666666667 45.0 L 96.33333333333333 44.0 L 97.0 43.0 L 97.66666666666667 42.0 L 98.33333333333333 41.0 L 99.0 40.0 L 99.66666666666667 39.0 L 100.33333333333333 38.0 L 100.66666666666667 37.0 L 101.0 36.0 L 101.33333333333333 35.0 L 101.66666666666667 34.0 L 102.33333333333333 33.0 L 102.66666666666667 32.0 L 103.33333333333333 31.0 L 103.66666666666667 30.0 L 104.33333333333333 29.0 L 104.5 28.5 Z" stroke="none" fill="rgb(241,169,52)" />
<path d="M 83.5 46.0 L 84.0 45.666666666666664 L 84.66666666666667 45.0 L 85.0 44.0 L 84.66666666666667 43.0 L 84.0 42.0 L 83.0 41.0 L 82.0 40.0 L 81.0 39.0 L 80.0 38.333333333333336 L 79.0 38.0 L 78.0 38.0 L 77.0 38.0 L 76.0 38.0 L 75.0 38.333333333333336 L 74.0 39.0 L 73.33333333333333 40.0 L 73.0 41.0 L 73.0 42.0 L 73.33333333333333 43.0 L 74.0 44.0 L 75.0 44.666666666666664 L 76.0 45.0 L 77.0 45.0 L 78.0 45.333333333333336 L 79.0 45.666666666666664 L 80.0 46.0 L 81.0 46.0 L 82.0 46.0 L 82.5 46.0 Z" stroke="none" fill="rgb(252,226,185)" />
<path d="M 32.0 103.5 L 32.0 103.0 L 31.666666666666668 102.33333333333333 L 31.0 102.33333333333333 L 30.0 103.0 L 29.0 104.0 L 28.0 105.0 L 27.0 106.0 L 26.0 107.0 L 25.0 107.66666666666667 L 24.0 108.0 L 23.0 108.33333333333333 L 22.0 108.66666666666667 L 21.0 109.0 L 20.0 109.33333333333333 L 19.0 109.33333333333333 L 18.0 109.33333333333333 L 17.0 108.66666666666667 L 16.333333333333332 108.0 L 15.666666666666666 107.33333333333333 L 15.0 107.0 L 14.333333333333334 107.33333333333333 L 14.0 108.0 L 14.333333333333334 109.0 L 15.0 110.0 L 16.0 110.66666666666667 L 17.0 111.0 L 18.0 111.0 L 19.0 111.0 L 20.0 111.33333333333333 L 21.0 111.66666666666667 L 22.0 112.0 L 23.0 111.66666666666667 L 24.0 111.33333333333333 L 25.0 110.66666666666667 L 26.0 110.33333333333333 L 27.0 109.66666666666667 L 27.666666666666668 109.0 L 28.333333333333332 108.0 L 29.0 107.0 L 30.0 106.0 L 31.0 105.0 L 31.5 104.5 Z" stroke="none" fill="rgb(245,189,100)" />
<path d="M 73.5 72.5 L 74.0 72.0 L 75.0 71.0 L 76.0 70.0 L 77.0 69.0 L 78.0 68.0 L 78.66666666666667 67.0 L 79.0 66.0 L 79.0 65.0 L 78.66666666666667 64.33333333333333 L 78.0 64.33333333333333 L 77.0 65.0 L 76.0 66.0 L 75.0 67.0 L 74.0 68.0 L 73.0 69.0 L 72.0 70.0 L 71.0 71.0 L 70.0 72.0 L 69.0 73.0 L 68.0 74.0 L 67.0 75.0 L 66.0 76.0 L 65.0 77.0 L 64.0 78.0 L 63.0 79.0 L 62.0 80.0 L 61.333333333333336 81.0 L 61.333333333333336 82.0 L 62.0 82.66666666666667 L 63.0 82.66666666666667 L 64.0 82.0 L 65.0 81.0 L 66.0 80.0 L 67.0 79.0 L 68.0 78.0 L 69.0 77.0 L 69.66666666666667 76.0 L 70.33333333333333 75.0 L 71.0 74.0 L 72.0 73.33333333333333 L 72.5 73.0 Z" stroke="none" fill="rgb(241,169,52)" />
<path d="M 52.5 91.5 L 52.666666666666664 91.0 L 53.333333333333336 90.0 L 54.0 89.0 L 54.666666666666664 88.0 L 54.666666666666664 87.33333333333333 L 54.0 87.0 L 53.0 87.33333333333333 L 52.0 88.0 L 51.0 89.0 L 50.0 89.66666666666667 L 49.0 90.33333333333333 L 48.0 91.0 L 47.0 92.0 L 46.0 92.66666666666667 L 45.0 93.33333333333333 L 44.0 94.0 L 43.0 94.66666666666667 L 42.0 95.33333333333333 L 41.0 96.0 L 40.0 96.66666666666667 L 39.0 97.33333333333333 L 38.0 97.66666666666667 L 37.0 98.33333333333333 L 36.333333333333336 99.0 L 36.333333333333336 99.66666666666667 L 37.0 100.0 L 38.0 100.0 L 39.0 99.66666666666667 L 40.0 99.0 L 41.0 98.33333333333333 L 42.0 97.66666666666667 L 43.0 97.0 L 44.0 96.33333333333333 L 45.0 95.66666666666667 L 46.0 95.33333333333333 L 47.0 95.0 L 48.0 94.66666666666667 L 48.666666666666664 94.0 L 49.333333333333336 93.0 L 50.0 92.33333333333333 L 51.0 92.0 L 51.5 92.0 Z" stroke="none" fill="rgb(241,169,52)" />
<path d="M 72.5 63.5 L 73.0 63.0 L 73.66666666666667 62.0 L 74.0 61.0 L 74.0 60.0 L 73.66666666666667 59.333333333333336 L 73.0 59.333333333333336 L 72.0 59.666666666666664 L 71.0 60.333333333333336 L 70.33333333333333 61.0 L 69.66666666666667 62.0 L 69.0 63.0 L 68.0 64.0 L 67.0 65.0 L 66.0 66.0 L 65.0 67.0 L 64.0 68.0 L 63.0 69.0 L 62.0 69.66666666666667 L 61.333333333333336 70.33333333333333 L 61.0 71.0 L 61.0 72.0 L 61.333333333333336 72.66666666666667 L 62.0 73.0 L 63.0 72.66666666666667 L 64.0 72.0 L 65.0 71.0 L 66.0 70.0 L 67.0 69.0 L 68.0 68.0 L 69.0 67.0 L 70.0 66.0 L 71.0 65.0 L 71.5 64.5 Z" stroke="none" fill="rgb(227,143,31)" />
<path d="M 17.5 107.5 L 18.0 107.66666666666667 L 18.666666666666668 107.66666666666667 L 19.0 107.0 L 19.0 106.0 L 19.0 105.0 L 19.0 104.0 L 19.0 103.0 L 18.666666666666668 102.0 L 18.0 101.0 L 17.0 100.0 L 16.0 99.0 L 15.0 98.0 L 14.0 97.33333333333333 L 13.0 97.0 L 12.0 97.0 L 11.0 97.33333333333333 L 10.333333333333334 98.0 L 10.0 99.0 L 10.0 100.0 L 10.333333333333334 100.66666666666667 L 11.0 101.33333333333333 L 12.0 102.0 L 13.0 103.0 L 14.0 104.0 L 15.0 105.0 L 16.0 106.0 L 16.5 106.5 Z" stroke="none" fill="rgb(227,143,31)" />
<path d="M 98.0 18.5 L 98.0 18.0 L 97.66666666666667 17.0 L 97.0 16.0 L 96.0 15.0 L 95.0 14.0 L 94.33333333333333 13.0 L 93.66666666666667 12.333333333333334 L 93.0 12.0 L 92.0 12.0 L 91.0 12.333333333333334 L 90.0 13.0 L 89.33333333333333 14.0 L 89.0 15.0 L 89.33333333333333 16.0 L 89.66666666666667 17.0 L 90.0 18.0 L 90.33333333333333 19.0 L 91.0 19.666666666666668 L 92.0 20.0 L 93.0 20.0 L 94.0 20.0 L 95.0 20.0 L 96.0 20.0 L 97.0 19.666666666666668 L 97.5 19.5 Z" stroke="none" fill="rgb(222,137,28)" />
<path d="M 107.5 20.0 L 108.0 20.0 L 108.66666666666667 19.666666666666668 L 109.0 19.0 L 109.0 18.0 L 109.0 17.0 L 109.0 16.0 L 109.33333333333333 15.0 L 109.66666666666667 14.0 L 110.0 13.0 L 110.0 12.0 L 110.0 11.0 L 110.33333333333333 10.0 L 111.0 9.333333333333334 L 111.66666666666667 8.666666666666666 L 112.0 8.0 L 112.0 7.0 L 111.66666666666667 6.0 L 111.0 5.333333333333333 L 110.0 5.0 L 109.0 5.0 L 108.33333333333333 5.333333333333333 L 108.0 6.0 L 108.0 7.0 L 108.0 8.0 L 108.0 9.0 L 107.66666666666667 10.0 L 107.33333333333333 11.0 L 107.0 12.0 L 107.0 13.0 L 107.0 14.0 L 107.0 15.0 L 106.66666666666667 16.0 L 106.33333333333333 17.0 L 106.0 18.0 L 106.33333333333333 19.0 L 106.5 19.5 Z" stroke="none" fill="rgb(241,169,52)" />
<path d="M 46.5 76.0 L 47.0 76.0 L 48.0 76.0 L 49.0 76.0 L 50.0 76.0 L 51.0 76.0 L 52.0 76.0 L 53.0 76.0 L 54.0 76.0 L 55.0 76.0 L 55.666666666666664 75.66666666666667 L 55.666666666666664 75.0 L 55.0 74.0 L 54.0 73.0 L 53.0 72.0 L 52.0 71.0 L 51.0 70.33333333333333 L 50.0 70.0 L 49.0 70.0 L 48.0 70.33333333333333 L 47.0 71.0 L 46.333333333333336 72.0 L 46.0 73.0 L 46.0 74.0 L 46.0 75.0 L 46.0 75.5 Z" stroke="none" fill="rgb(250,217,170)" />
<path d="M 97.5 17.0 L 98.0 17.0 L 99.0 17.0 L 100.0 17.333333333333332 L 101.0 17.666666666666668 L 102.0 18.0 L 103.0 18.0 L 103.66666666666667 17.666666666666668 L 103.66666666666667 17.0 L 103.0 16.0 L 102.0 15.0 L 101.0 14.0 L 100.0 13.0 L 99.0 12.0 L 98.0 11.0 L 97.0 10.333333333333334 L 96.0 10.0 L 95.0 10.333333333333334 L 94.33333333333333 11.0 L 94.0 12.0 L 94.0 13.0 L 94.33333333333333 14.0 L 95.0 15.0 L 96.0 16.0 L 96.5 16.5 Z" stroke="none" fill="rgb(227,143,31)" />
<path d="M 100.5 14.5 L 101.0 15.0 L 102.0 16.0 L 103.0 17.0 L 104.0 17.666666666666668 L 104.66666666666667 17.666666666666668 L 105.0 17.0 L 105.0 16.0 L 105.0 15.0 L 105.0 14.0 L 104.66666666666667 13.0 L 104.0 12.0 L 103.0 11.0 L 102.0 10.0 L 101.33333333333333 9.0 L 100.66666666666667 8.333333333333334 L 100.0 8.0 L 99.0 8.333333333333334 L 98.0 9.0 L 97.33333333333333 10.0 L 97.33333333333333 11.0 L 98.0 12.0 L 99.0 13.0 L 99.5 13.5 Z" stroke="none" fill="rgb(231,150,37)" />
<path d="M 14.5 98.5 L 15.0 99.0 L 16.0 100.0 L 17.0 101.0 L 18.0 101.66666666666667 L 19.0 102.0 L 19.666666666666668 101.66666666666667 L 20.0 101.0 L 19.666666666666668 100.0 L 19.0 99.0 L 18.0 98.0 L 17.0 97.0 L 16.333333333333332 96.0 L 16.333333333333332 95.0 L 16.666666666666668 94.0 L 16.666666666666668 93.0 L 16.0 92.33333333333333 L 15.0 92.0 L 14.0 92.33333333333333 L 13.0 93.0 L 12.333333333333334 94.0 L 12.0 95.0 L 12.0 96.0 L 12.333333333333334 96.66666666666667 L 13.0 97.33333333333333 L 13.5 97.5 Z" stroke="none" fill="rgb(222,137,28)" />
<path d="M 23.5 107.5 L 24.0 107.66666666666667 L 25.0 108.0 L 26.0 107.66666666666667 L 27.0 107.0 L 28.0 106.0 L 29.0 105.0 L 29.666666666666668 104.0 L 29.666666666666668 103.0 L 29.0 102.0 L 28.0 101.33333333333333 L 27.0 101.33333333333333 L 26.0 102.0 L 25.0 103.0 L 24.0 103.66666666666667 L 23.0 104.0 L 22.0 104.0 L 21.333333333333332 104.33333333333333 L 21.0 105.0 L 21.333333333333332 106.0 L 22.0 106.66666666666667 L 22.5 107.0 Z" stroke="none" fill="rgb(248,212,159)" />
<path d="M 66.5 66.5 L 67.0 66.0 L 68.0 65.0 L 69.0 64.0 L 69.66666666666667 63.0 L 70.0 62.0 L 69.66666666666667 61.333333333333336 L 69.0 61.0 L 68.0 61.333333333333336 L 67.0 61.666666666666664 L 66.0 62.333333333333336 L 65.33333333333333 63.0 L 64.66666666666667 64.0 L 64.0 65.0 L 63.0 66.0 L 62.0 66.66666666666667 L 61.333333333333336 67.33333333333333 L 61.0 68.0 L 61.0 69.0 L 61.333333333333336 69.66666666666667 L 62.0 70.0 L 63.0 69.66666666666667 L 64.0 69.0 L 65.0 68.0 L 65.5 67.5 Z" stroke="none" fill="rgb(222,137,28)" />
<path d="M 14.5 107.0 L 15.0 107.0 L 16.0 107.0 L 16.666666666666668 106.66666666666667 L 16.666666666666668 106.0 L 16.0 105.0 L 15.0 104.0 L 14.0 103.0 L 13.0 102.0 L 12.0 101.33333333333333 L 11.0 101.0 L 10.0 101.0 L 9.0 101.33333333333333 L 8.333333333333334 102.0 L 8.0 103.0 L 8.333333333333334 103.66666666666667 L 9.0 104.0 L 10.0 104.33333333333333 L 11.0 105.0 L 12.0 106.0 L 13.0 106.66666666666667 L 13.5 107.0 Z" stroke="none" fill="rgb(231,150,37)" />
<path d="M 105.0 30.5 L 105.33333333333333 30.0 L 105.66666666666667 29.0 L 106.33333333333333 28.0 L 106.66666666666667 27.0 L 107.0 26.0 L 107.0 25.0 L 107.0 24.0 L 106.66666666666667 23.333333333333332 L 106.0 23.0 L 105.33333333333333 23.333333333333332 L 105.0 24.0 L 105.0 25.0 L 105.0 26.0 L 104.66666666666667 27.0 L 104.33333333333333 28.0 L 103.66666666666667 29.0 L 103.33333333333333 30.0 L 102.66666666666667 31.0 L 102.33333333333333 32.0 L 101.66666666666667 33.0 L 101.33333333333333 34.0 L 101.0 35.0 L 101.33333333333333 35.666666666666664 L 102.0 35.666666666666664 L 102.66666666666667 35.0 L 103.33333333333333 34.0 L 103.66666666666667 33.0 L 104.33333333333333 32.0 L 104.5 31.5 Z" stroke="none" fill="rgb(244,174,56)" />
<path d="M 81.5 62.0 L 82.0 61.666666666666664 L 83.0 61.333333333333336 L 83.66666666666667 60.666666666666664 L 84.33333333333333 60.0 L 85.0 59.0 L 86.0 58.0 L 87.0 57.0 L 88.0 56.0 L 88.66666666666667 55.0 L 89.0 54.0 L 89.0 53.0 L 88.66666666666667 52.333333333333336 L 88.0 52.333333333333336 L 87.0 53.0 L 86.0 54.0 L 85.33333333333333 55.0 L 84.66666666666667 56.0 L 84.0 57.0 L 83.0 58.0 L 82.0 59.0 L 81.33333333333333 60.0 L 81.0 61.0 L 81.0 61.5 Z" stroke="none" fill="rgb(241,169,52)" />
<path d="M 23.5 104.0 L 24.0 104.0 L 24.666666666666668 103.66666666666667 L 25.0 103.0 L 24.666666666666668 102.33333333333333 L 24.0 102.33333333333333 L 23.0 102.33333333333333 L 22.333333333333332 102.0 L 22.333333333333332 101.0 L 23.0 100.0 L 23.666666666666668 99.0 L 23.666666666666668 98.33333333333333 L 23.0 98.0 L 22.0 98.33333333333333 L 21.0 99.0 L 20.333333333333332 100.0 L 19.666666666666668 101.0 L 19.333333333333332 102.0 L 19.0 103.0 L 19.333333333333332 104.0 L 20.0 104.66666666666667 L 21.0 104.66666666666667 L 22.0 104.33333333333333 L 22.5 104.0 Z" stroke="none" fill="rgb(250,217,170)" />
<path d="M 30.5 103.0 L 30.666666666666668 102.66666666666667 L 31.0 102.0 L 30.666666666666668 101.0 L 30.333333333333332 100.0 L 29.666666666666668 99.0 L 29.0 98.0 L 28.0 97.0 L 27.0 96.33333333333333 L 26.0 96.0 L 25.0 96.33333333333333 L 24.333333333333332 97.0 L 24.333333333333332 97.66666666666667 L 25.0 98.0 L 26.0 98.33333333333333 L 26.666666666666668 99.0 L 27.0 100.0 L 27.333333333333332 101.0 L 28.0 102.0 L 29.0 102.66666666666667 L 29.5 103.0 Z" stroke="none" fill="rgb(250,217,170)" />
<path d="M 8.5 112.0 L 9.0 112.0 L 10.0 112.33333333333333 L 11.0 112.66666666666667 L 12.0 112.66666666666667 L 12.666666666666666 112.0 L 12.666666666666666 111.0 L 12.0 110.33333333333333 L 11.0 110.0 L 10.0 110.0 L 9.0 110.0 L 8.0 110.0 L 7.0 110.0 L 6.0 110.33333333333333 L 5.333333333333333 111.0 L 5.0 112.0 L 5.333333333333333 112.66666666666667 L 6.0 113.0 L 7.0 112.66666666666667 L 7.5 112.5 Z" stroke="none" fill="rgb(241,169,52)" />
<path d="M 24.5 103.0 L 25.0 103.0 L 26.0 102.66666666666667 L 26.666666666666668 102.0 L 27.0 101.0 L 27.0 100.0 L 27.0 99.0 L 26.666666666666668 98.33333333333333 L 26.0 98.0 L 25.0 98.0 L 24.0 98.33333333333333 L 23.0 99.0 L 22.333333333333332 100.0 L 22.0 101.0 L 22.0 102.0 L 22.333333333333332 102.66666666666667 L 23.0 103.0 L 23.5 103.0 Z" stroke="none" fill="rgb(252,226,185)" />
<path d="M 13.5 109.0 L 13.666666666666666 108.66666666666667 L 14.0 108.0 L 13.666666666666666 107.0 L 13.0 106.0 L 12.0 105.0 L 11.0 104.33333333333333 L 10.0 104.0 L 9.0 104.0 L 8.0 104.33333333333333 L 7.333333333333333 105.0 L 7.0 106.0 L 7.333333333333333 106.66666666666667 L 8.0 107.0 L 9.0 107.0 L 10.0 107.33333333333333 L 11.0 108.0 L 12.0 108.66666666666667 L 12.5 109.0 Z" stroke="none" fill="rgb(234,156,42)" />
<path d="M 13.5 112.0 L 14.0 112.33333333333333 L 15.0 112.66666666666667 L 16.0 113.0 L 17.0 113.0 L 18.0 113.0 L 19.0 113.0 L 20.0 112.66666666666667 L 20.666666666666668 112.0 L 20.666666666666668 111.33333333333333 L 20.0 111.0 L 19.0 111.0 L 18.0 111.0 L 17.0 110.66666666666667 L 16.0 110.0 L 15.0 109.33333333333333 L 14.0 109.0 L 13.333333333333334 109.33333333333333 L 13.0 110.0 L 13.0 111.0 L 13.0 111.5 Z" stroke="none" fill="rgb(246,185,80)" />
<path d="M 104.5 13.0 L 104.66666666666667 12.666666666666666 L 105.0 12.0 L 105.0 11.0 L 105.0 10.0 L 105.0 9.0 L 105.0 8.0 L 104.66666666666667 7.333333333333333 L 104.0 7.0 L 103.0 7.0 L 102.0 7.333333333333333 L 101.33333333333333 8.0 L 101.0 9.0 L 101.33333333333333 10.0 L 102.0 11.0 L 103.0 12.0 L 103.5 12.5 Z" stroke="none" fill="rgb(234,156,42)" />
<path d="M 110.0 17.5 L 110.33333333333333 17.0 L 110.66666666666667 16.0 L 111.0 15.0 L 111.33333333333333 14.0 L 111.66666666666667 13.0 L 112.0 12.0 L 112.0 11.0 L 112.0 10.0 L 111.66666666666667 9.333333333333334 L 111.0 9.0 L 110.33333333333333 9.333333333333334 L 110.0 10.0 L 110.0 11.0 L 110.0 12.0 L 109.66666666666667 13.0 L 109.33333333333333 14.0 L 109.0 15.0 L 109.0 16.0 L 109.0 17.0 L 109.33333333333333 17.666666666666668 L 109.5 18.0 Z" stroke="none" fill="rgb(244,174,56)" />
<path d="M 7.5 110.0 L 8.0 110.0 L 9.0 110.0 L 10.0 110.0 L 11.0 110.33333333333333 L 12.0 110.66666666666667 L 12.666666666666666 110.66666666666667 L 13.0 110.0 L 12.666666666666666 109.0 L 12.0 108.0 L 11.0 107.33333333333333 L 10.0 107.0 L 9.0 107.0 L 8.0 107.0 L 7.333333333333333 107.33333333333333 L 7.0 108.0 L 7.0 109.0 L 7.0 109.5 Z" stroke="none" fill="rgb(237,163,47)" />
<path d="M 107.5 11.5 L 107.66666666666667 11.0 L 108.0 10.0 L 108.0 9.0 L 108.0 8.0 L 108.0 7.0 L 107.66666666666667 6.333333333333333 L 107.0 6.0 L 106.0 6.0 L 105.33333333333333 6.333333333333333 L 105.0 7.0 L 105.0 8.0 L 105.0 9.0 L 105.0 10.0 L 105.33333333333333 11.0 L 106.0 11.666666666666666 L 106.5 12.0 Z" stroke="none" fill="rgb(237,163,47)" />
<path d="M 62.5 67.0 L 63.0 66.66666666666667 L 64.0 66.0 L 64.66666666666667 65.0 L 65.0 64.0 L 64.66666666666667 63.333333333333336 L 64.0 63.0 L 63.0 63.0 L 62.0 63.0 L 61.0 63.333333333333336 L 60.333333333333336 64.0 L 60.0 65.0 L 60.0 66.0 L 60.333333333333336 66.66666666666667 L 61.0 67.0 L 61.5 67.0 Z" stroke="none" fill="rgb(219,131,22)" />
<path d="M 58.5 86.5 L 58.666666666666664 86.0 L 59.333333333333336 85.0 L 60.0 84.0 L 60.666666666666664 83.0 L 60.666666666666664 82.33333333333333 L 60.0 82.0 L 59.0 82.33333333333333 L 58.0 83.0 L 57.0 84.0 L 56.0 85.0 L 55.333333333333336 86.0 L 55.333333333333336 87.0 L 56.0 87.66666666666667 L 57.0 87.66666666666667 L 57.5 87.5 Z" stroke="none" fill="rgb(241,169,52)" />
<path d="M 107.0 16.5 L 107.0 16.0 L 107.0 15.0 L 107.0 14.0 L 107.0 13.0 L 106.66666666666667 12.0 L 106.0 11.333333333333334 L 105.33333333333333 11.333333333333334 L 105.0 12.0 L 105.0 13.0 L 105.0 14.0 L 105.0 15.0 L 105.0 16.0 L 105.0 17.0 L 105.33333333333333 17.666666666666668 L 106.0 17.666666666666668 L 106.5 17.5 Z" stroke="none" fill="rgb(239,172,71)" />
<path d="M 32.5 105.5 L 32.666666666666664 105.0 L 33.0 104.0 L 32.666666666666664 103.33333333333333 L 32.0 103.33333333333333 L 31.0 104.0 L 30.0 105.0 L 29.0 106.0 L 28.333333333333332 107.0 L 28.333333333333332 107.66666666666667 L 29.0 108.0 L 30.0 107.66666666666667 L 31.0 107.0 L 31.5 106.5 Z" stroke="none" fill="rgb(246,185,80)" />
<path d="M 41.5 94.5 L 42.0 94.0 L 42.666666666666664 93.0 L 42.666666666666664 92.33333333333333 L 42.0 92.0 L 41.0 92.0 L 40.0 92.33333333333333 L 39.0 92.66666666666667 L 38.333333333333336 93.33333333333333 L 38.0 94.0 L 38.333333333333336 94.66666666666667 L 39.0 95.0 L 40.0 95.0 L 40.5 95.0 Z" stroke="none" fill="rgb(234,156,42)" />
<path d="M 80.5 65.5 L 81.0 65.0 L 82.0 64.0 L 82.66666666666667 63.0 L 83.0 62.0 L 82.66666666666667 61.333333333333336 L 82.0 61.333333333333336 L 81.0 62.0 L 80.0 63.0 L 79.33333333333333 64.0 L 79.0 65.0 L 79.33333333333333 65.66666666666667 L 79.5 66.0 Z" stroke="none" fill="rgb(244,174,56)" />
<path d="M 23.5 108.5 L 23.666666666666668 108.0 L 23.666666666666668 107.33333333333333 L 23.0 107.0 L 22.0 107.0 L 21.0 107.0 L 20.0 107.0 L 19.333333333333332 107.33333333333333 L 19.0 108.0 L 19.333333333333332 108.66666666666667 L 20.0 109.0 L 21.0 109.0 L 22.0 109.0 L 22.5 109.0 Z" stroke="none" fill="rgb(246,196,125)" />
<path d="M 27.5 97.5 L 28.0 98.0 L 29.0 98.66666666666667 L 29.666666666666668 98.66666666666667 L 30.0 98.0 L 29.666666666666668 97.0 L 29.0 96.0 L 28.0 95.33333333333333 L 27.0 95.0 L 26.333333333333332 95.33333333333333 L 26.333333333333332 96.0 L 26.5 96.5 Z" stroke="none" fill="rgb(248,212,159)" />
<path d="M 17.5 109.5 L 18.0 109.66666666666667 L 19.0 110.0 L 19.666666666666668 109.66666666666667 L 19.666666666666668 109.0 L 19.0 108.0 L 18.0 107.33333333333333 L 17.0 107.0 L 16.333333333333332 107.33333333333333 L 16.0 108.0 L 16.333333333333332 108.66666666666667 L 16.5 109.0 Z" stroke="none" fill="rgb(242,190,118)" />
<path d="M 11.0 112.5 L 10.666666666666666 112.33333333333333 L 10.0 112.0 L 9.0 112.0 L 8.0 112.0 L 7.333333333333333 112.33333333333333 L 7.0 113.0 L 7.333333333333333 113.66666666666667 L 8.0 114.0 L 9.0 114.0 L 10.0 113.66666666666667 L 10.5 113.5 Z" stroke="none" fill="rgb(244,174,56)" />
<path d="M 5.5 122.0 L 6.0 122.0 L 6.666666666666667 121.66666666666667 L 6.666666666666667 121.0 L 6.0 120.0 L 5.333333333333333 119.0 L 4.666666666666667 118.33333333333333 L 4.333333333333333 118.33333333333333 L 4.0 119.0 L 4.0 120.0 L 4.333333333333333 121.0 L 4.5 121.5 Z" stroke="none" fill="rgb(0,0,0)" />
<path d="M 39.0 100.5 L 38.666666666666664 100.33333333333333 L 38.0 100.0 L 37.0 100.0 L 36.0 100.33333333333333 L 35.333333333333336 101.0 L 35.333333333333336 101.66666666666667 L 36.0 102.0 L 37.0 102.0 L 38.0 101.66666666666667 L 38.5 101.5 Z" stroke="none" fill="rgb(244,174,56)" />
<path d="M 20.5 107.0 L 21.0 107.0 L 21.666666666666668 106.66666666666667 L 21.666666666666668 106.0 L 21.0 105.0 L 20.0 104.33333333333333 L 19.333333333333332 104.33333333333333 L 19.0 105.0 L 19.0 106.0 L 19.333333333333332 106.66666666666667 L 19.5 107.0 Z" stroke="none" fill="rgb(247,206,148)" />
<path d="M 62.0 83.5 L 62.0 83.0 L 61.666666666666664 82.33333333333333 L 61.0 82.33333333333333 L 60.0 83.0 L 59.333333333333336 84.0 L 59.333333333333336 84.66666666666667 L 60.0 85.0 L 61.0 84.66666666666667 L 61.5 84.5 Z" stroke="none" fill="rgb(244,174,56)" />
<path d="M 55.5 89.5 L 55.666666666666664 89.0 L 56.0 88.0 L 55.666666666666664 87.33333333333333 L 55.0 87.33333333333333 L 54.0 88.0 L 53.333333333333336 89.0 L 53.333333333333336 89.66666666666667 L 54.0 90.0 L 54.5 90.0 Z" stroke="none" fill="rgb(244,174,56)" />
<path d="M 100.5 18.0 L 100.66666666666667 17.666666666666668 L 100.66666666666667 17.0 L 100.0 16.333333333333332 L 99.0 16.333333333333332 L 98.33333333333333 17.0 L 98.33333333333333 17.666666666666668 L 99.0 18.0 L 99.5 18.0 Z" stroke="none" fill="rgb(248,212,159)" />
<path d="M 91.0 52.5 L 91.0 52.0 L 90.66666666666667 51.333333333333336 L 90.0 51.333333333333336 L 89.33333333333333 52.0 L 89.0 53.0 L 89.33333333333333 53.666666666666664 L 90.0 53.666666666666664 L 90.5 53.5 Z" stroke="none" fill="rgb(244,174,56)" />
<path d="M 43.5 98.0 L 44.0 97.66666666666667 L 44.666666666666664 97.0 L 44.666666666666664 96.33333333333333 L 44.0 96.0 L 43.0 96.33333333333333 L 42.333333333333336 97.0 L 42.333333333333336 97.66666666666667 L 42.5 98.0 Z" stroke="none" fill="rgb(244,174,56)" />
<path d="M 39.5 100.0 L 40.0 100.0 L 41.0 99.66666666666667 L 41.666666666666664 99.0 L 41.666666666666664 98.33333333333333 L 41.0 98.0 L 40.0 98.33333333333333 L 39.333333333333336 99.0 L 39.0 99.5 Z" stroke="none" fill="rgb(244,174,56)" />
<path d="M 111.5 6.0 L 112.0 6.0 L 112.66666666666667 5.666666666666667 L 112.66666666666667 5.333333333333333 L 112.0 5.0 L 111.33333333333333 5.333333333333333 L 111.0 5.5 Z" stroke="none" fill="rgb(0,0,0)" />
<path d="M 46.5 72.0 L 46.666666666666664 71.66666666666667 L 47.0 71.0 L 46.666666666666664 70.33333333333333 L 46.333333333333336 70.33333333333333 L 46.0 71.0 L 46.0 71.5 Z" stroke="none" fill="rgb(248,212,159)" />
<path d="M 97.5 10.0 L 97.66666666666667 9.666666666666666 L 97.66666666666667 9.333333333333334 L 97.33333333333333 9.333333333333334 L 97.0 9.5 Z" stroke="none" fill="rgb(0,0,0)" />
<path d="M 94.0 11.5 L 93.66666666666667 11.333333333333334 L 93.33333333333333 11.333333333333334 L 93.33333333333333 11.666666666666666 L 93.5 12.0 Z" stroke="none" fill="rgb(0,0,0)" />
<path d="M 125.0 13.5 L 124.66666666666667 13.333333333333334 L 124.33333333333333 13.333333333333334 L 124.33333333333333 13.666666666666666 L 124.5 14.0 Z" stroke="none" fill="rgb(0,0,0)" />
<path d="M 89.0 14.5 L 88.66666666666667 14.333333333333334 L 88.33333333333333 14.333333333333334 L 88.33333333333333 14.666666666666666 L 88.5 15.0 Z" stroke="none" fill="rgb(0,0,0)" />
<path d="M 74.5 45.0 L 74.66666666666667 44.666666666666664 L 74.66666666666667 44.333333333333336 L 74.33333333333333 44.333333333333336 L 74.0 44.5 Z" stroke="none" fill="rgb(247,206,148)" />
<path d="M 51.5 66.0 L 51.666666666666664 65.66666666666667 L 51.666666666666664 65.33333333333333 L 51.333333333333336 65.33333333333333 L 51.0 65.5 Z" stroke="none" fill="rgb(242,190,118)" />
<path d="M 52.5 67.0 L 52.666666666666664 66.66666666666667 L 52.666666666666664 66.33333333333333 L 52.333333333333336 66.33333333333333 L 52.0 66.5 Z" stroke="none" fill="rgb(242,190,118)" />
<path d="M 54.0 67.5 L 53.666666666666664 67.33333333333333 L 53.333333333333336 67.33333333333333 L 53.333333333333336 67.66666666666667 L 53.5 68.0 Z" stroke="none" fill="rgb(242,190,118)" />
<path d="M 54.5 69.0 L 54.666666666666664 68.66666666666667 L 54.666666666666664 68.33333333333333 L 54.333333333333336 68.33333333333333 L 54.0 68.5 Z" stroke="none" fill="rgb(242,190,118)" />
<path d="M 56.0 69.5 L 55.666666666666664 69.33333333333333 L 55.333333333333336 69.33333333333333 L 55.333333333333336 69.66666666666667 L 55.5 70.0 Z" stroke="none" fill="rgb(242,190,118)" />
<path d="M 71.5 74.0 L 71.66666666666667 73.66666666666667 L 71.66666666666667 73.33333333333333 L 71.33333333333333 73.33333333333333 L 71.0 73.5 Z" stroke="none" fill="rgb(244,174,56)" />
<path d="M 70.5 75.0 L 70.66666666666667 74.66666666666667 L 70.66666666666667 74.33333333333333 L 70.33333333333333 74.33333333333333 L 70.0 74.5 Z" stroke="none" fill="rgb(244,174,56)" />
<path d="M 15.0 91.5 L 14.666666666666666 91.33333333333333 L 14.333333333333334 91.33333333333333 L 14.333333333333334 91.66666666666667 L 14.5 92.0 Z" stroke="none" fill="rgb(0,0,0)" />
<path d="M 50.5 92.0 L 50.666666666666664 91.66666666666667 L 50.666666666666664 91.33333333333333 L 50.333333333333336 91.33333333333333 L 50.0 91.5 Z" stroke="none" fill="rgb(244,174,56)" />
<path d="M 49.5 93.0 L 49.666666666666664 92.66666666666667 L 49.666666666666664 92.33333333333333 L 49.333333333333336 92.33333333333333 L 49.0 92.5 Z" stroke="none" fill="rgb(244,174,56)" />
<path d="M 46.5 95.0 L 46.666666666666664 94.66666666666667 L 46.666666666666664 94.33333333333333 L 46.333333333333336 94.33333333333333 L 46.0 94.5 Z" stroke="none" fill="rgb(244,174,56)" />
<path d="M 46.0 95.5 L 45.666666666666664 95.33333333333333 L 45.333333333333336 95.33333333333333 L 45.333333333333336 95.66666666666667 L 45.5 96.0 Z" stroke="none" fill="rgb(244,174,56)" />
<path d="M 11.5 97.0 L 11.666666666666666 96.66666666666667 L 11.666666666666666 96.33333333333333 L 11.333333333333334 96.33333333333333 L 11.0 96.5 Z" stroke="none" fill="rgb(0,0,0)" />
<path d="M 9.5 101.0 L 9.666666666666666 100.66666666666667 L 9.666666666666666 100.33333333333333 L 9.333333333333334 100.33333333333333 L 9.0 100.5 Z" stroke="none" fill="rgb(0,0,0)" />
<path d="M 6.5 110.0 L 6.666666666666667 109.66666666666667 L 6.666666666666667 109.33333333333333 L 6.333333333333333 109.33333333333333 L 6.0 109.5 Z" stroke="none" fill="rgb(0,0,0)" />
<path d="M 4.5 114.0 L 4.666666666666667 113.66666666666667 L 4.666666666666667 113.33333333333333 L 4.333333333333333 113.33333333333333 L 4.0 113.5 Z" stroke="none" fill="rgb(0,0,0)" />
</svg>
