<?xml version="1.0" encoding="UTF-8" standalone="no"?>
<!DOCTYPE svg PUBLIC "-//W3C//DTD SVG 1.1//EN"
"http://www.w3.org/Graphics/SVG/1.1/DTD/svg11.dtd">
<svg width="128" height="128" xmlns="http://www.w3.org/2000/svg" version="1.1">
<path d="M 101.5 128.0 L 102.0 128.0 L 103.0 128.0 L 104.0 128.0 L 105.0 128.0 L 106.0 128.0 L 107.0 128.0 L 108.0 128.0 L 109.0 128.0 L 110.0 128.0 L 111.0 128.0 L 112.0 128.0 L 113.0 128.0 L 114.0 128.0 L 115.0 128.0 L 116.0 128.0 L 117.0 128.0 L 118.0 128.0 L 119.0 128.0 L 120.0 128.0 L 121.0 128.0 L 122.0 128.0 L 123.0 128.0 L 124.0 128.0 L 125.0 128.0 L 126.0 128.0 L 127.0 128.0 L 127.66666666666667 127.66666666666667 L 128.0 127.0 L 128.0 126.0 L 128.0 125.0 L 128.0 124.0 L 128.0 123.0 L 128.0 122.0 L 128.0 121.0 L 128.0 120.0 L 128.0 119.0 L 128.0 118.0 L 128.0 117.0 L 128.0 116.0 L 128.0 115.0 L 128.0 114.0 L 128.0 113.0 L 128.0 112.0 L 128.0 111.0 L 128.0 110.0 L 128.0 109.0 L 128.0 108.0 L 128.0 107.0 L 128.0 106.0 L 128.0 105.0 L 128.0 104.0 L 128.0 103.0 L 128.0 102.0 L 128.0 101.0 L 128.0 100.0 L 128.0 99.0 L 128.0 98.0 L 128.0 97.0 L 128.0 96.0 L 128.0 95.0 L 128.0 94.0 L 128.0 93.0 L 128.0 92.0 L 128.0 91.0 L 128.0 90.0 L 128.0 89.0 L 128.0 88.0 L 128.0 87.0 L 128.0 86.0 L 128.0 85.0 L 128.0 84.0 L 128.0 83.0 L 128.0 82.0 L 128.0 81.0 L 128.0 80.0 L 128.0 79.0 L 128.0 78.0 L 128.0 77.0 L 128.0 76.0 L 128.0 75.0 L 128.0 74.0 L 128.0 73.0 L 128.0 72.0 L 128.0 71.0 L 128.0 70.0 L 128.0 69.0 L 128.0 68.0 L 128.0 67.0 L 128.0 66.0 L 128.0 65.0 L 128.0 64.0 L 128.0 63.0 L 128.0 62.0 L 128.0 61.0 L 128.0 60.0 L 128.0 59.0 L 128.0 58.0 L 128.0 57.0 L 128.0 56.0 L 128.0 55.0 L 128.0 54.0 L 128.0 53.0 L 128.0 52.0 L 128.0 51.0 L 128.0 50.0 L 128.0 49.0 L 128.0 48.0 L 128.0 47.0 L 128.0 46.0 L 128.0 45.0 L 128.0 44.0 L 128.0 43.0 L 128.0 42.0 L 128.0 41.0 L 128.0 40.0 L 128.0 39.0 L 128.0 38.0 L 128.0 37.0 L 128.0 36.0 L 128.0 35.0 L 128.0 34.0 L 128.0 33.0 L 128.0 32.0 L 128.0 31.0 L 128.0 30.0 L 128.0 29.0 L 128.0 28.0 L 128.0 27.0 L 128.0 26.0 L 128.0 25.0 L 128.0 24.0 L 128.0 23.0 L 128.0 22.0 L 128.0 21.0 L 128.0 20.0 L 128.0 19.0 L 128.0 18.0 L 128.0 17.0 L 128.0 16.0 L 128.0 15.0 L 128.0 14.0 L 128.0 13.0 L 128.0 12.0 L 128.0 11.0 L 128.0 10.0 L 128.0 9.0 L 128.0 8.0 L 128.0 7.0 L 128.0 6.0 L 128.0 5.0 L 128.0 4.0 L 128.0 3.0 L 128.0 2.0 L 128.0 1.0 L 127.66666666666667 0.3333333333333333 L 127.0 0.0 L 126.0 0.0 L 125.0 0.0 L 124.0 0.0 L 123.0 0.0 L 122.0 0.0 L 121.0 0.0 L 120.0 0.0 L 119.0 0.0 L 118.0 0.0 L 117.0 0.0 L 116.0 0.0 L 115.0 0.0 L 114.0 0.0 L 113.0 0.0 L 112.0 0.0 L 111.0 0.0 L 110.0 0.0 L 109.0 0.0 L 108.0 0.0 L 107.0 0.0 L 106.0 0.0 L 105.0 0.0 L 104.0 0.0 L 103.0 0.0 L 102.0 0.0 L 101.0 0.0 L 100.0 0.0 L 99.0 0.0 L 98.0 0.0 L 97.0 0.0 L 96.0 0.0 L 95.0 0.0 L 94.0 0.0 L 93.0 0.0 L 92.0 0.0 L 91.0 0.0 L 90.0 0.0 L 89.0 0.0 L 88.0 0.0 L 87.0 0.0 L 86.0 0.0 L 85.0 0.0 L 84.0 0.0 L 83.0 0.0 L 82.0 0.0 L 81.0 0.0 L 80.0 0.0 L 79.0 0.0 L 78.0 0.0 L 77.0 0.0 L 76.0 0.0 L 75.0 0.0 L 74.0 0.0 L 73.0 0.0 L 72.0 0.0 L 71.0 0.0 L 70.0 0.0 L 69.0 0.0 L 68.0 0.0 L 67.0 0.0 L 66.0 0.0 L 65.0 0.0 L 64.0 0.0 L 63.0 0.0 L 62.0 0.0 L 61.0 0.0 L 60.0 0.0 L 59.0 0.0 L 58.0 0.0 L 57.0 0.0 L 56.0 0.0 L 55.0 0.0 L 54.0 0.0 L 53.0 0.0 L 52.0 0.0 L 51.0 0.0 L 50.0 0.0 L 49.0 0.0 L 48.0 0.0 L 47.0 0.0 L 46.0 0.0 L 45.0 0.0 L 44.0 0.0 L 43.0 0.0 L 42.0 0.0 L 41.0 0.0 L 40.0 0.0 L 39.0 0.0 L 38.0 0.0 L 37.0 0.0 L 36.0 0.0 L 35.0 0.0 L 34.0 0.0 L 33.0 0.0 L 32.0 0.0 L 31.0 0.0 L 30.0 0.0 L 29.0 0.0 L 28.0 0.0 L 27.0 0.0 L 26.0 0.0 L 25.0 0.0 L 24.0 0.0 L 23.0 0.0 L 22.0 0.0 L 21.0 0.0 L 20.0 0.0 L 19.0 0.0 L 18.0 0.0 L 17.0 0.0 L 16.0 0.0 L 15.0 0.0 L 14.0 0.0 L 13.0 0.0 L 12.0 0.0 L 11.0 0.0 L 10.0 0.0 L 9.0 0.0 L 8.0 0.0 L 7.0 0.0 L 6.0 0.0 L 5.0 0.0 L 4.0 0.0 L 3.0 0.0 L 2.0 0.0 L 1.0 0.0 L 0.3333333333333333 0.3333333333333333 L 0.0 1.0 L 0.0 2.0 L 0.0 3.0 L 0.0 4.0 L 0.0 5.0 L 0.0 6.0 L 0.0 7.0 L 0.0 8.0 L 0.0 9.0 L 0.0 10.0 L 0.0 11.0 L 0.0 12.0 L 0.0 13.0 L 0.0 14.0 L 0.0 15.0 L 0.0 16.0 L 0.0 17.0 L 0.0 18.0 L 0.0 19.0 L 0.0 20.0 L 0.0 21.0 L 0.0 22.0 L 0.0 23.0 L 0.0 24.0 L 0.0 25.0 L 0.0 26.0 L 0.0 27.0 L 0.0 28.0 L 0.0 29.0 L 0.0 30.0 L 0.0 31.0 L 0.0 32.0 L 0.0 33.0 L 0.0 34.0 L 0.0 35.0 L 0.0 36.0 L 0.0 37.0 L 0.0 38.0 L 0.0 39.0 L 0.0 40.0 L 0.0 41.0 L 0.0 42.0 L 0.0 43.0 L 0.0 44.0 L 0.0 45.0 L 0.0 46.0 L 0.0 47.0 L 0.0 48.0 L 0.0 49.0 L 0.0 50.0 L 0.0 51.0 L 0.0 52.0 L 0.0 53.0 L 0.0 54.0 L 0.0 55.0 L 0.0 56.0 L 0.0 57.0 L 0.0 58.0 L 0.0 59.0 L 0.0 60.0 L 0.0 61.0 L 0.0 62.0 L 0.0 63.0 L 0.0 64.0 L 0.0 65.0 L 0.0 66.0 L 0.0 67.0 L 0.0 68.0 L 0.0 69.0 L 0.0 70.0 L 0.0 71.0 L 0.0 72.0 L 0.0 73.0 L 0.0 74.0 L 0.0 75.0 L 0.0 76.0 L 0.0 77.0 L 0.0 78.0 L 0.0 79.0 L 0.0 80.0 L 0.0 81.0 L 0.0 82.0 L 0.0 83.0 L 0.0 84.0 L 0.0 85.0 L 0.0 86.0 L 0.0 87.0 L 0.0 88.0 L 0.0 89.0 L 0.0 90.0 L 0.0 91.0 L 0.0 92.0 L 0.0 93.0 L 0.0 94.0 L 0.0 95.0 L 0.0 96.0 L 0.0 97.0 L 0.0 98.0 L 0.0 99.0 L 0.0 100.0 L 0.0 101.0 L 0.0 102.0 L 0.0 103.0 L 0.0 104.0 L 0.0 105.0 L 0.0 106.0 L 0.0 107.0 L 0.0 108.0 L 0.0 109.0 L 0.0 110.0 L 0.0 111.0 L 0.0 112.0 L 0.0 113.0 L 0.0 114.0 L 0.0 115.0 L 0.0 116.0 L 0.0 117.0 L 0.0 118.0 L 0.0 119.0 L 0.0 120.0 L 0.0 121.0 L 0.0 122.0 L 0.0 123.0 L 0.0 124.0 L 0.0 125.0 L 0.0 126.0 L 0.0 127.0 L 0.3333333333333333 127.66666666666667 L 1.0 128.0 L 2.0 128.0 L 3.0 128.0 L 4.0 128.0 L 5.0 128.0 L 6.0 128.0 L 7.0 128.0 L 8.0 128.0 L 9.0 128.0 L 10.0 128.0 L 11.0 128.0 L 12.0 128.0 L 13.0 128.0 L 14.0 128.0 L 15.0 128.0 L 16.0 128.0 L 17.0 128.0 L 18.0 128.0 L 19.0 128.0 L 20.0 128.0 L 21.0 128.0 L 22.0 128.0 L 23.0 128.0 L 24.0 128.0 L 25.0 128.0 L 26.0 128.0 L 27.0 128.0 L 28.0 128.0 L 29.0 128.0 L 30.0 128.0 L 31.0 128.0 L 32.0 128.0 L 33.0 128.0 L 34.0 128.0 L 35.0 128.0 L 36.0 128.0 L 37.0 128.0 L 38.0 128.0 L 39.0 128.0 L 40.0 128.0 L 41.0 128.0 L 42.0 128.0 L 43.0 128.0 L 44.0 128.0 L 45.0 128.0 L 46.0 128.0 L 47.0 128.0 L 48.0 128.0 L 49.0 128.0 L 50.0 128.0 L 51.0 128.0 L 52.0 128.0 L 53.0 128.0 L 54.0 128.0 L 55.0 128.0 L 56.0 128.0 L 57.0 128.0 L 58.0 128.0 L 59.0 128.0 L 60.0 128.0 L 61.0 128.0 L 62.0 128.0 L 63.0 128.0 L 64.0 128.0 L 65.0 128.0 L 66.0 128.0 L 67.0 128.0 L 68.0 128.0 L 69.0 128.0 L 70.0 128.0 L 71.0 128.0 L 72.0 128.0 L 73.0 128.0 L 74.0 128.0 L 75.0 128.0 L 76.0 128.0 L 77.0 128.0 L 78.0 128.0 L 79.0 128.0 L 80.0 128.0 L 81.0 128.0 L 82.0 128.0 L 83.0 128.0 L 84.0 128.0 L 85.0 128.0 L 86.0 128.0 L 87.0 128.0 L 88.0 128.0 L 89.0 128.0 L 90.0 128.0 L 91.0 128.0 L 92.0 128.0 L 93.0 128.0 L 94.0 128.0 L 95.0 128.0 L 96.0 128.0 L 97.0 128.0 L 98.0 128.0 L 99.0 128.0 L 100.0 128.0 L 100.5 128.0 Z" stroke="none" fill="rgb(0,0,0)" />
<path d="M 88.5 13.5 L 89.0 14.0 L 90.0 15.0 L 91.0 16.0 L 92.0 17.0 L 93.0 17.666666666666668 L 93.66666666666667 17.666666666666668 L 94.0 17.0 L 93.66666666666667 16.0 L 93.0 15.0 L 92.33333333333333 14.0 L 92.33333333333333 13.0 L 92.66666666666667 12.0 L 92.66666666666667 11.333333333333334 L 92.0 10.666666666666666 L 91.0 10.333333333333334 L 90.0 10.0 L 89.0 10.0 L 88.0 9.666666666666666 L 87.66666666666667 9.0 L 87.66666666666667 8.0 L 88.0 7.0 L 88.0 6.0 L 88.0 5.0 L 87.66666666666667 4.333333333333333 L 87.0 4.333333333333333 L 86.0 5.0 L 85.0 5.666666666666667 L 84.0 6.333333333333333 L 83.0 6.666666666666667 L 82.0 6.666666666666667 L 81.0 6.333333333333333 L 80.0 6.0 L 79.0 5.666666666666667 L 78.0 5.333333333333333 L 77.0 5.0 L 76.0 5.0 L 75.0 4.666666666666667 L 74.0 4.333333333333333 L 73.0 4.0 L 72.0 4.0 L 71.0 4.0 L 70.0 4.0 L 69.0 4.0 L 68.0 4.0 L 67.0 4.0 L 66.0 4.0 L 65.0 4.0 L 64.0 4.0 L 63.0 4.0 L 62.0 4.0 L 61.0 4.0 L 60.0 4.0 L 59.0 4.0 L 58.0 4.0 L 57.0 4.0 L 56.0 4.0 L 55.0 4.0 L 54.0 4.333333333333333 L 53.0 4.666666666666667 L 52.0 5.0 L 51.0 5.0 L 50.0 5.333333333333333 L 49.0 5.666666666666667 L 48.0 6.0 L 47.0 6.333333333333333 L 46.0 6.666666666666667 L 45.0 7.333333333333333 L 44.0 7.666666666666667 L 43.0 8.333333333333334 L 42.0 9.0 L 41.0 9.666666666666666 L 40.0 10.333333333333334 L 39.0 11.0 L 38.0 12.0 L 37.0 12.333333333333334 L 36.0 12.333333333333334 L 35.0 11.666666666666666 L 34.0 11.333333333333334 L 33.0 10.666666666666666 L 32.0 10.333333333333334 L 31.0 10.0 L 30.333333333333332 10.333333333333334 L 30.0 11.0 L 30.333333333333332 12.0 L 30.666666666666668 13.0 L 31.0 14.0 L 31.333333333333332 15.0 L 31.333333333333332 16.0 L 31.0 16.666666666666668 L 30.0 17.0 L 29.0 17.333333333333332 L 28.0 18.0 L 27.0 19.0 L 26.333333333333332 20.0 L 26.0 21.0 L 26.333333333333332 21.666666666666668 L 27.0 22.0 L 28.0 22.0 L 29.0 22.333333333333332 L 29.666666666666668 23.0 L 30.0 24.0 L 30.0 25.0 L 30.333333333333332 25.666666666666668 L 31.0 25.666666666666668 L 31.666666666666668 25.0 L 32.333333333333336 24.0 L 33.0 23.0 L 33.666666666666664 22.0 L 34.333333333333336 21.0 L 35.0 20.0 L 36.0 19.0 L 37.0 18.0 L 38.0 17.0 L 39.0 16.0 L 40.0 15.0 L 41.0 14.0 L 42.0 13.333333333333334 L 43.0 12.666666666666666 L 44.0 12.0 L 45.0 11.333333333333334 L 46.0 10.666666666666666 L 47.0 10.333333333333334 L 48.0 9.666666666666666 L 49.0 9.333333333333334 L 50.0 8.666666666666666 L 51.0 8.333333333333334 L 52.0 8.0 L 53.0 7.666666666666667 L 54.0 7.333333333333333 L 55.0 7.0 L 56.0 7.0 L 57.0 6.666666666666667 L 58.0 6.333333333333333 L 59.0 6.0 L 60.0 6.0 L 61.0 6.0 L 62.0 6.0 L 63.0 6.0 L 64.0 6.0 L 65.0 6.0 L 66.0 6.0 L 67.0 6.0 L 68.0 6.0 L 69.0 6.0 L 70.0 6.0 L 71.0 6.0 L 72.0 6.0 L 73.0 6.333333333333333 L 74.0 6.666666666666667 L 75.0 7.0 L 76.0 7.333333333333333 L 77.0 7.666666666666667 L 78.0 8.0 L 79.0 8.333333333333334 L 80.0 8.666666666666666 L 81.0 9.333333333333334 L 82.0 9.666666666666666 L 83.0 10.333333333333334 L 84.0 10.666666666666666 L 85.0 11.333333333333334 L 86.0 12.0 L 87.0 12.666666666666666 L 87.5 13.0 Z" stroke="none" fill="rgb(189,81,81)" />
<path d="M 88.5 16.5 L 89.0 17.0 L 90.0 18.0 L 91.0 19.0 L 92.0 20.0 L 93.0 21.0 L 94.0 22.0 L 95.0 23.0 L 95.66666666666667 24.0 L 96.33333333333333 25.0 L 96.66666666666667 26.0 L 97.33333333333333 27.0 L 97.66666666666667 28.0 L 98.33333333333333 29.0 L 98.66666666666667 30.0 L 99.33333333333333 31.0 L 100.0 31.666666666666668 L 101.0 31.666666666666668 L 101.66666666666667 31.0 L 101.66666666666667 30.0 L 101.33333333333333 29.0 L 100.66666666666667 28.0 L 100.0 27.0 L 99.0 26.0 L 98.33333333333333 25.0 L 98.0 24.0 L 97.66666666666667 23.0 L 97.33333333333333 22.0 L 96.66666666666667 21.0 L 96.33333333333333 20.0 L 95.66666666666667 19.0 L 95.0 18.333333333333332 L 94.0 17.666666666666668 L 93.0 17.0 L 92.0 16.0 L 91.0 15.0 L 90.0 14.0 L 89.0 13.333333333333334 L 88.0 12.666666666666666 L 87.0 12.0 L 86.0 11.333333333333334 L 85.0 10.666666666666666 L 84.0 10.333333333333334 L 83.0 9.666666666666666 L 82.0 9.333333333333334 L 81.0 8.666666666666666 L 80.0 8.333333333333334 L 79.0 8.0 L 78.0 7.666666666666667 L 77.0 7.333333333333333 L 76.0 7.0 L 75.0 6.666666666666667 L 74.0 6.333333333333333 L 73.0 6.0 L 72.0 6.0 L 71.0 6.0 L 70.0 6.0 L 69.0 6.0 L 68.0 6.0 L 67.0 6.0 L 66.0 6.0 L 65.0 6.0 L 64.0 6.0 L 63.0 6.0 L 62.0 6.0 L 61.0 6.0 L 60.0 6.0 L 59.0 6.0 L 58.0 6.0 L 57.0 6.333333333333333 L 56.0 6.666666666666667 L 55.0 7.0 L 54.0 7.0 L 53.0 7.333333333333333 L 52.0 7.666666666666667 L 51.0 8.0 L 50.0 8.333333333333334 L 49.0 8.666666666666666 L 48.0 9.333333333333334 L 47.0 9.666666666666666 L 46.0 10.333333333333334 L 45.0 10.666666666666666 L 44.0 11.333333333333334 L 43.0 12.0 L 42.0 12.666666666666666 L 41.0 13.333333333333334 L 40.0 14.0 L 39.0 15.0 L 38.0 16.0 L 37.0 17.0 L 36.0 18.0 L 35.0 19.0 L 34.333333333333336 20.0 L 33.666666666666664 21.0 L 33.0 22.0 L 32.333333333333336 23.0 L 31.666666666666668 24.0 L 31.0 25.0 L 30.333333333333332 26.0 L 29.666666666666668 27.0 L 29.333333333333332 28.0 L 28.666666666666668 29.0 L 28.333333333333332 30.0 L 28.0 31.0 L 27.666666666666668 32.0 L 27.333333333333332 33.0 L 27.0 34.0 L 27.0 35.0 L 27.0 36.0 L 26.666666666666668 37.0 L 26.333333333333332 38.0 L 26.0 39.0 L 26.0 40.0 L 26.333333333333332 41.0 L 27.0 41.666666666666664 L 27.666666666666668 41.666666666666664 L 28.0 41.0 L 28.333333333333332 40.0 L 28.666666666666668 39.0 L 29.0 38.0 L 29.0 37.0 L 29.0 36.0 L 29.333333333333332 35.0 L 29.666666666666668 34.0 L 30.0 33.0 L 30.333333333333332 32.0 L 30.666666666666668 31.0 L 31.333333333333332 30.0 L 31.666666666666668 29.0 L 32.333333333333336 28.0 L 32.666666666666664 27.0 L 33.333333333333336 26.0 L 34.0 25.0 L 34.666666666666664 24.0 L 35.333333333333336 23.0 L 36.0 22.0 L 37.0 21.0 L 38.0 20.0 L 39.0 19.0 L 40.0 18.0 L 41.0 17.0 L 42.0 16.0 L 43.0 15.0 L 44.0 14.333333333333334 L 45.0 13.666666666666666 L 46.0 13.333333333333334 L 47.0 12.666666666666666 L 48.0 12.0 L 49.0 11.333333333333334 L 50.0 11.0 L 51.0 10.666666666666666 L 52.0 10.333333333333334 L 53.0 9.666666666666666 L 54.0 9.333333333333334 L 55.0 9.0 L 56.0 9.0 L 57.0 8.666666666666666 L 58.0 8.333333333333334 L 59.0 8.0 L 60.0 8.0 L 61.0 8.0 L 62.0 8.0 L 63.0 8.0 L 64.0 8.0 L 65.0 8.0 L 66.0 8.0 L 67.0 8.0 L 68.0 8.0 L 69.0 8.0 L 70.0 8.0 L 71.0 8.0 L 72.0 8.333333333333334 L 73.0 8.666666666666666 L 74.0 9.0 L 75.0 9.0 L 76.0 9.333333333333334 L 77.0 9.666666666666666 L 78.0 10.0 L 79.0 10.333333333333334 L 80.0 10.666666666666666 L 81.0 11.333333333333334 L 82.0 11.666666666666666 L 83.0 12.333333333333334 L 84.0 13.0 L 85.0 13.666666666666666 L 86.0 14.333333333333334 L 87.0 15.0 L 87.5 15.5 Z" stroke="none" fill="rgb(181,76,76)" />
<path d="M 101.5 48.5 L 101.66666666666667 48.0 L 102.0 47.0 L 102.0 46.0 L 102.0 45.0 L 102.33333333333333 44.0 L 102.66666666666667 43.0 L 102.66666666666667 42.0 L 102.33333333333333 41.0 L 102.0 40.0 L 102.0 39.0 L 101.66666666666667 38.0 L 101.66666666666667 37.0 L 101.66666666666667 36.0 L 101.66666666666667 35.0 L 101.33333333333333 34.0 L 100.66666666666667 33.0 L 100.33333333333333 32.0 L 99.66666666666667 31.0 L 99.33333333333333 30.0 L 98.66666666666667 29.0 L 98.33333333333333 28.0 L 97.66666666666667 27.0 L 97.33333333333333 26.0 L 96.66666666666667 25.0 L 96.33333333333333 24.0 L 95.66666666666667 23.0 L 95.0 22.0 L 94.0 21.0 L 93.0 20.0 L 92.0 19.0 L 91.0 18.0 L 90.0 17.0 L 89.0 16.0 L 88.0 15.0 L 87.0 14.333333333333334 L 86.0 13.666666666666666 L 85.0 13.0 L 84.0 12.333333333333334 L 83.0 11.666666666666666 L 82.0 11.333333333333334 L 81.0 10.666666666666666 L 80.0 10.333333333333334 L 79.0 10.0 L 78.0 9.666666666666666 L 77.0 9.333333333333334 L 76.0 9.0 L 75.0 9.0 L 74.0 8.666666666666666 L 73.0 8.333333333333334 L 72.0 8.0 L 71.0 8.0 L 70.0 8.0 L 69.0 8.0 L 68.0 8.0 L 67.0 8.0 L 66.0 8.0 L 65.0 8.0 L 64.0 8.0 L 63.0 8.0 L 62.0 8.0 L 61.0 8.0 L 60.0 8.0 L 59.0 8.0 L 58.0 8.0 L 57.0 8.333333333333334 L 56.0 8.666666666666666 L 55.0 9.0 L 54.0 9.0 L 53.0 9.333333333333334 L 52.0 9.666666666666666 L 51.0 10.333333333333334 L 50.0 10.666666666666666 L 49.0 11.0 L 48.0 11.333333333333334 L 47.0 12.0 L 46.0 12.666666666666666 L 45.0 13.333333333333334 L 44.0 13.666666666666666 L 43.0 14.333333333333334 L 42.0 15.0 L 41.0 16.0 L 40.0 17.0 L 39.0 18.0 L 38.0 19.0 L 37.0 20.0 L 36.0 21.0 L 35.333333333333336 22.0 L 34.666666666666664 23.0 L 34.0 24.0 L 33.333333333333336 25.0 L 32.666666666666664 26.0 L 32.333333333333336 27.0 L 31.666666666666668 28.0 L 31.333333333333332 29.0 L 30.666666666666668 30.0 L 30.333333333333332 31.0 L 30.0 32.0 L 29.666666666666668 33.0 L 29.333333333333332 34.0 L 29.0 35.0 L 29.0 36.0 L 29.0 37.0 L 28.666666666666668 38.0 L 28.333333333333332 39.0 L 28.0 40.0 L 28.0 41.0 L 28.0 42.0 L 28.0 43.0 L 28.0 44.0 L 28.0 45.0 L 28.0 46.0 L 28.0 47.0 L 28.0 48.0 L 28.0 49.0 L 28.0 50.0 L 28.333333333333332 51.0 L 28.666666666666668 52.0 L 29.0 53.0 L 29.0 54.0 L 29.333333333333332 55.0 L 29.666666666666668 56.0 L 30.0 57.0 L 30.333333333333332 58.0 L 31.0 58.666666666666664 L 31.666666666666668 58.666666666666664 L 32.0 58.0 L 32.0 57.0 L 32.0 56.0 L 32.0 55.0 L 31.666666666666668 54.0 L 31.333333333333332 53.0 L 31.0 52.0 L 31.0 51.0 L 30.666666666666668 50.0 L 30.333333333333332 49.0 L 30.0 48.0 L 30.0 47.0 L 30.0 46.0 L 30.0 45.0 L 30.0 44.0 L 30.0 43.0 L 30.0 42.0 L 30.0 41.0 L 30.333333333333332 40.0 L 30.666666666666668 39.0 L 31.0 38.0 L 31.0 37.0 L 31.0 36.0 L 31.333333333333332 35.0 L 31.666666666666668 34.0 L 32.333333333333336 33.0 L 32.666666666666664 32.0 L 33.0 31.0 L 33.333333333333336 30.0 L 33.666666666666664 29.0 L 34.333333333333336 28.0 L 35.0 27.0 L 35.666666666666664 26.0 L 36.333333333333336 25.0 L 37.0 24.0 L 38.0 23.0 L 39.0 22.0 L 40.0 21.0 L 41.0 20.0 L 42.0 19.0 L 43.0 18.0 L 44.0 17.0 L 45.0 16.333333333333332 L 46.0 15.666666666666666 L 47.0 15.0 L 48.0 14.333333333333334 L 49.0 13.666666666666666 L 50.0 13.333333333333334 L 51.0 12.666666666666666 L 52.0 12.333333333333334 L 53.0 11.666666666666666 L 54.0 11.333333333333334 L 55.0 11.0 L 56.0 11.0 L 57.0 10.666666666666666 L 58.0 10.333333333333334 L 59.0 10.0 L 60.0 10.0 L 61.0 10.0 L 62.0 10.0 L 63.0 10.0 L 64.0 10.0 L 65.0 10.0 L 66.0 10.0 L 67.0 10.0 L 68.0 10.0 L 69.0 10.0 L 70.0 10.0 L 71.0 10.0 L 72.0 10.333333333333334 L 73.0 10.666666666666666 L 74.0 11.0 L 75.0 11.0 L 76.0 11.333333333333334 L 77.0 11.666666666666666 L 78.0 12.333333333333334 L 79.0 12.666666666666666 L 80.0 13.333333333333334 L 81.0 13.666666666666666 L 82.0 14.333333333333334 L 83.0 14.666666666666666 L 84.0 15.333333333333334 L 85.0 16.0 L 86.0 17.0 L 87.0 17.666666666666668 L 88.0 18.333333333333332 L 89.0 19.0 L 90.0 20.0 L 90.66666666666667 21.0 L 91.33333333333333 22.0 L 92.0 23.0 L 93.0 24.0 L 93.66666666666667 25.0 L 94.33333333333333 26.0 L 95.0 27.0 L 95.66666666666667 28.0 L 96.33333333333333 29.0 L 96.66666666666667 30.0 L 97.33333333333333 31.0 L 97.66666666666667 32.0 L 98.0 33.0 L 98.33333333333333 34.0 L 98.66666666666667 35.0 L 99.0 36.0 L 99.0 37.0 L 99.33333333333333 38.0 L 99.66666666666667 39.0 L 100.0 40.0 L 100.0 41.0 L 100.0 42.0 L 100.0 43.0 L 100.0 44.0 L 100.0 45.0 L 100.0 46.0 L 100.0 47.0 L 100.0 48.0 L 100.33333333333333 48.666666666666664 L 100.5 49.0 Z" stroke="none" fill="rgb(174,71,71)" />
<path d="M 84.5 18.5 L 85.0 19.0 L 86.0 20.0 L 87.0 21.0 L 88.0 22.0 L 89.0 23.0 L 90.0 24.0 L 91.0 25.0 L 91.66666666666667 26.0 L 92.33333333333333 27.0 L 93.0 28.0 L 93.66666666666667 29.0 L 94.33333333333333 30.0 L 94.66666666666667 31.0 L 95.0 32.0 L 95.33333333333333 33.0 L 95.66666666666667 34.0 L 96.0 35.0 L 96.33333333333333 36.0 L 96.66666666666667 37.0 L 97.0 38.0 L 97.0 39.0 L 97.33333333333333 40.0 L 97.66666666666667 41.0 L 98.0 42.0 L 98.0 43.0 L 98.0 44.0 L 98.0 45.0 L 98.0 46.0 L 98.0 47.0 L 97.66666666666667 48.0 L 97.33333333333333 49.0 L 97.0 50.0 L 97.0 51.0 L 97.0 52.0 L 96.66666666666667 53.0 L 96.33333333333333 54.0 L 96.0 55.0 L 96.0 56.0 L 96.0 57.0 L 96.33333333333333 57.666666666666664 L 97.0 58.0 L 97.66666666666667 57.666666666666664 L 98.0 57.0 L 98.33333333333333 56.0 L 98.66666666666667 55.0 L 99.0 54.0 L 99.0 53.0 L 99.33333333333333 52.0 L 100.0 51.333333333333336 L 100.66666666666667 50.666666666666664 L 101.0 50.0 L 100.66666666666667 49.0 L 100.33333333333333 48.0 L 100.0 47.0 L 100.0 46.0 L 100.0 45.0 L 100.0 44.0 L 100.0 43.0 L 100.0 42.0 L 100.0 41.0 L 100.0 40.0 L 100.0 39.0 L 99.66666666666667 38.0 L 99.33333333333333 37.0 L 99.0 36.0 L 99.0 35.0 L 98.66666666666667 34.0 L 98.33333333333333 33.0 L 98.0 32.0 L 97.66666666666667 31.0 L 97.33333333333333 30.0 L 96.66666666666667 29.0 L 96.33333333333333 28.0 L 95.66666666666667 27.0 L 95.0 26.0 L 94.33333333333333 25.0 L 93.66666666666667 24.0 L 93.0 23.0 L 92.0 22.0 L 91.33333333333333 21.0 L 90.66666666666667 20.0 L 90.0 19.0 L 89.0 18.333333333333332 L 88.0 17.666666666666668 L 87.0 17.0 L 86.0 16.0 L 85.0 15.333333333333334 L 84.0 14.666666666666666 L 83.0 14.333333333333334 L 82.0 13.666666666666666 L 81.0 13.333333333333334 L 80.0 12.666666666666666 L 79.0 12.333333333333334 L 78.0 11.666666666666666 L 77.0 11.333333333333334 L 76.0 11.0 L 75.0 11.0 L 74.0 10.666666666666666 L 73.0 10.333333333333334 L 72.0 10.0 L 71.0 10.0 L 70.0 10.0 L 69.0 10.0 L 68.0 10.0 L 67.0 10.0 L 66.0 10.0 L 65.0 10.0 L 64.0 10.0 L 63.0 10.0 L 62.0 10.0 L 61.0 10.0 L 60.0 10.0 L 59.0 10.0 L 58.0 10.0 L 57.0 10.333333333333334 L 56.0 10.666666666666666 L 55.0 11.0 L 54.0 11.0 L 53.0 11.333333333333334 L 52.0 11.666666666666666 L 51.0 12.333333333333334 L 50.0 12.666666666666666 L 49.0 13.333333333333334 L 48.0 13.666666666666666 L 47.0 14.333333333333334 L 46.0 15.0 L 45.0 15.666666666666666 L 44.0 16.333333333333332 L 43.0 17.0 L 42.0 18.0 L 41.0 19.0 L 40.0 20.0 L 39.0 21.0 L 38.0 22.0 L 37.0 23.0 L 36.333333333333336 24.0 L 35.666666666666664 25.0 L 35.0 26.0 L 34.333333333333336 27.0 L 33.666666666666664 28.0 L 33.333333333333336 29.0 L 33.0 30.0 L 32.666666666666664 31.0 L 32.333333333333336 32.0 L 31.666666666666668 33.0 L 31.333333333333332 34.0 L 31.0 35.0 L 31.0 36.0 L 31.0 37.0 L 30.666666666666668 38.0 L 30.333333333333332 39.0 L 30.0 40.0 L 30.0 41.0 L 30.0 42.0 L 30.0 43.0 L 30.0 44.0 L 30.0 45.0 L 30.0 46.0 L 30.0 47.0 L 30.0 48.0 L 30.0 49.0 L 30.333333333333332 50.0 L 30.666666666666668 51.0 L 31.0 52.0 L 31.0 53.0 L 31.333333333333332 53.666666666666664 L 32.0 54.0 L 33.0 53.666666666666664 L 33.666666666666664 53.0 L 34.0 52.0 L 34.0 51.0 L 34.0 50.0 L 33.666666666666664 49.0 L 33.333333333333336 48.0 L 32.666666666666664 47.0 L 32.333333333333336 46.0 L 32.0 45.0 L 32.0 44.0 L 32.333333333333336 43.0 L 32.666666666666664 42.0 L 33.0 41.0 L 33.0 40.0 L 33.0 39.0 L 33.0 38.0 L 33.333333333333336 37.0 L 33.666666666666664 36.0 L 34.0 35.0 L 34.333333333333336 34.0 L 34.666666666666664 33.0 L 35.333333333333336 32.0 L 35.666666666666664 31.0 L 36.333333333333336 30.0 L 36.666666666666664 29.0 L 37.333333333333336 28.0 L 38.0 27.0 L 38.666666666666664 26.0 L 39.333333333333336 25.0 L 40.0 24.0 L 41.0 23.0 L 42.0 22.0 L 43.0 21.0 L 44.0 20.0 L 45.0 19.0 L 46.0 18.333333333333332 L 47.0 17.666666666666668 L 48.0 17.0 L 49.0 16.333333333333332 L 50.0 15.666666666666666 L 51.0 15.333333333333334 L 52.0 14.666666666666666 L 53.0 14.333333333333334 L 54.0 14.0 L 55.0 13.666666666666666 L 56.0 13.333333333333334 L 57.0 13.0 L 58.0 13.0 L 59.0 12.666666666666666 L 60.0 12.333333333333334 L 61.0 12.0 L 62.0 12.0 L 63.0 12.0 L 64.0 12.0 L 65.0 12.0 L 66.0 12.0 L 67.0 12.0 L 68.0 12.0 L 69.0 12.0 L 70.0 12.333333333333334 L 71.0 12.666666666666666 L 72.0 13.0 L 73.0 13.0 L 74.0 13.333333333333334 L 75.0 13.666666666666666 L 76.0 14.0 L 77.0 14.333333333333334 L 78.0 14.666666666666666 L 79.0 15.333333333333334 L 80.0 15.666666666666666 L 81.0 16.333333333333332 L 82.0 17.0 L 83.0 17.666666666666668 L 83.5 18.0 Z" stroke="none" fill="rgb(166,66,66)" />
<path d="M 88.5 26.5 L 89.0 27.0 L 89.66666666666667 28.0 L 90.33333333333333 29.0 L 91.0 30.0 L 91.66666666666667 31.0 L 92.33333333333333 32.0 L 92.66666666666667 33.0 L 93.0 34.0 L 93.33333333333333 35.0 L 93.66666666666667 36.0 L 94.0 37.0 L 94.33333333333333 38.0 L 94.66666666666667 39.0 L 95.0 40.0 L 95.0 41.0 L 95.0 42.0 L 95.0 43.0 L 95.0 44.0 L 95.0 45.0 L 95.0 46.0 L 95.0 47.0 L 94.66666666666667 48.0 L 94.33333333333333 49.0 L 94.0 50.0 L 94.0 51.0 L 94.0 52.0 L 94.33333333333333 53.0 L 95.0 53.666666666666664 L 96.0 54.0 L 96.66666666666667 53.666666666666664 L 97.0 53.0 L 97.0 52.0 L 97.0 51.0 L 97.33333333333333 50.0 L 97.66666666666667 49.0 L 98.0 48.0 L 98.0 47.0 L 98.0 46.0 L 98.0 45.0 L 98.0 44.0 L 98.0 43.0 L 98.0 42.0 L 98.0 41.0 L 97.66666666666667 40.0 L 97.33333333333333 39.0 L 97.0 38.0 L 97.0 37.0 L 96.66666666666667 36.0 L 96.33333333333333 35.0 L 96.0 34.0 L 95.66666666666667 33.0 L 95.33333333333333 32.0 L 95.0 31.0 L 94.66666666666667 30.0 L 94.33333333333333 29.0 L 93.66666666666667 28.0 L 93.0 27.0 L 92.33333333333333 26.0 L 91.66666666666667 25.0 L 91.0 24.0 L 90.0 23.0 L 89.0 22.0 L 88.0 21.0 L 87.0 20.0 L 86.0 19.0 L 85.0 18.333333333333332 L 84.0 17.666666666666668 L 83.0 17.0 L 82.0 16.333333333333332 L 81.0 15.666666666666666 L 80.0 15.333333333333334 L 79.0 14.666666666666666 L 78.0 14.333333333333334 L 77.0 14.0 L 76.0 13.666666666666666 L 75.0 13.333333333333334 L 74.0 13.0 L 73.0 13.0 L 72.0 12.666666666666666 L 71.0 12.333333333333334 L 70.0 12.0 L 69.0 12.0 L 68.0 12.0 L 67.0 12.0 L 66.0 12.0 L 65.0 12.0 L 64.0 12.0 L 63.0 12.0 L 62.0 12.0 L 61.0 12.0 L 60.0 12.0 L 59.0 12.333333333333334 L 58.0 12.666666666666666 L 57.0 13.0 L 56.0 13.0 L 55.0 13.333333333333334 L 54.0 13.666666666666666 L 53.0 14.0 L 52.0 14.333333333333334 L 51.0 14.666666666666666 L 50.0 15.333333333333334 L 49.0 15.666666666666666 L 48.0 16.333333333333332 L 47.0 17.0 L 46.0 17.666666666666668 L 45.0 18.333333333333332 L 44.0 19.0 L 43.0 20.0 L 42.0 21.0 L 41.0 22.0 L 40.0 23.0 L 39.333333333333336 24.0 L 38.666666666666664 25.0 L 38.0 26.0 L 37.333333333333336 27.0 L 36.666666666666664 28.0 L 36.333333333333336 29.0 L 35.666666666666664 30.0 L 35.333333333333336 31.0 L 34.666666666666664 32.0 L 34.333333333333336 33.0 L 34.0 34.0 L 33.666666666666664 35.0 L 33.333333333333336 36.0 L 33.0 37.0 L 33.0 38.0 L 33.0 39.0 L 33.0 40.0 L 32.666666666666664 41.0 L 32.333333333333336 42.0 L 32.0 43.0 L 32.0 44.0 L 32.0 45.0 L 32.0 46.0 L 32.333333333333336 47.0 L 32.666666666666664 48.0 L 33.333333333333336 48.666666666666664 L 34.0 49.0 L 34.666666666666664 48.666666666666664 L 35.333333333333336 48.0 L 35.666666666666664 47.0 L 36.0 46.0 L 36.0 45.0 L 35.666666666666664 44.0 L 35.333333333333336 43.0 L 35.0 42.0 L 35.0 41.0 L 35.333333333333336 40.0 L 35.666666666666664 39.0 L 36.0 38.0 L 36.0 37.0 L 36.333333333333336 36.0 L 36.666666666666664 35.0 L 37.333333333333336 34.0 L 37.666666666666664 33.0 L 38.333333333333336 32.0 L 38.666666666666664 31.0 L 39.333333333333336 30.0 L 39.666666666666664 29.0 L 40.333333333333336 28.0 L 41.0 27.0 L 42.0 26.0 L 43.0 25.0 L 44.0 24.0 L 45.0 23.0 L 46.0 22.0 L 47.0 21.0 L 48.0 20.333333333333332 L 49.0 19.666666666666668 L 50.0 19.0 L 51.0 18.333333333333332 L 52.0 17.666666666666668 L 53.0 17.333333333333332 L 54.0 17.0 L 55.0 16.666666666666668 L 56.0 16.333333333333332 L 57.0 16.0 L 58.0 15.666666666666666 L 59.0 15.333333333333334 L 60.0 15.0 L 61.0 15.0 L 62.0 15.0 L 63.0 15.0 L 64.0 15.0 L 65.0 15.0 L 66.0 15.0 L 67.0 15.0 L 68.0 15.0 L 69.0 15.0 L 70.0 15.0 L 71.0 15.333333333333334 L 72.0 15.666666666666666 L 73.0 16.0 L 74.0 16.0 L 75.0 16.333333333333332 L 76.0 16.666666666666668 L 77.0 17.333333333333332 L 78.0 17.666666666666668 L 79.0 18.333333333333332 L 80.0 18.666666666666668 L 81.0 19.333333333333332 L 82.0 20.0 L 83.0 21.0 L 84.0 22.0 L 85.0 23.0 L 86.0 24.0 L 87.0 25.0 L 87.5 25.5 Z" stroke="none" fill="rgb(157,59,59)" />
<path d="M 58.5 18.0 L 59.0 18.0 L 60.0 17.666666666666668 L 61.0 17.333333333333332 L 62.0 17.0 L 63.0 17.0 L 64.0 17.0 L 65.0 17.0 L 66.0 17.0 L 67.0 17.0 L 68.0 17.0 L 69.0 17.333333333333332 L 70.0 17.666666666666668 L 71.0 18.0 L 72.0 18.0 L 73.0 18.333333333333332 L 74.0 18.666666666666668 L 75.0 19.0 L 76.0 19.333333333333332 L 77.0 19.666666666666668 L 78.0 20.333333333333332 L 79.0 21.0 L 80.0 21.666666666666668 L 81.0 22.333333333333332 L 82.0 23.0 L 83.0 24.0 L 84.0 25.0 L 85.0 26.0 L 86.0 27.0 L 87.0 28.0 L 87.66666666666667 29.0 L 88.33333333333333 30.0 L 88.66666666666667 31.0 L 89.33333333333333 32.0 L 89.66666666666667 33.0 L 90.33333333333333 34.0 L 90.66666666666667 35.0 L 91.33333333333333 36.0 L 91.66666666666667 37.0 L 92.0 38.0 L 92.0 39.0 L 92.0 40.0 L 92.33333333333333 41.0 L 92.33333333333333 42.0 L 92.33333333333333 43.0 L 92.0 44.0 L 92.0 45.0 L 92.33333333333333 46.0 L 92.66666666666667 47.0 L 93.0 48.0 L 93.33333333333333 48.666666666666664 L 94.0 49.0 L 94.66666666666667 48.666666666666664 L 95.0 48.0 L 95.0 47.0 L 95.0 46.0 L 95.0 45.0 L 95.0 44.0 L 95.0 43.0 L 95.0 42.0 L 95.0 41.0 L 95.0 40.0 L 95.0 39.0 L 94.66666666666667 38.0 L 94.33333333333333 37.0 L 94.0 36.0 L 93.66666666666667 35.0 L 93.33333333333333 34.0 L 93.0 33.0 L 92.66666666666667 32.0 L 92.33333333333333 31.0 L 91.66666666666667 30.0 L 91.0 29.0 L 90.33333333333333 28.0 L 89.66666666666667 27.0 L 89.0 26.0 L 88.0 25.0 L 87.0 24.0 L 86.0 23.0 L 85.0 22.0 L 84.0 21.0 L 83.0 20.0 L 82.0 19.333333333333332 L 81.0 18.666666666666668 L 80.0 18.333333333333332 L 79.0 17.666666666666668 L 78.0 17.333333333333332 L 77.0 16.666666666666668 L 76.0 16.333333333333332 L 75.0 16.0 L 74.0 16.0 L 73.0 15.666666666666666 L 72.0 15.333333333333334 L 71.0 15.0 L 70.0 15.0 L 69.0 15.0 L 68.0 15.0 L 67.0 15.0 L 66.0 15.0 L 65.0 15.0 L 64.0 15.0 L 63.0 15.0 L 62.0 15.0 L 61.0 15.0 L 60.0 15.0 L 59.0 15.0 L 58.0 15.333333333333334 L 57.0 15.666666666666666 L 56.0 16.0 L 55.0 16.333333333333332 L 54.0 16.666666666666668 L 53.0 17.0 L 52.0 17.333333333333332 L 51.0 17.666666666666668 L 50.0 18.333333333333332 L 49.0 19.0 L 48.0 19.666666666666668 L 47.0 20.333333333333332 L 46.0 21.0 L 45.0 22.0 L 44.0 23.0 L 43.0 24.0 L 42.0 25.0 L 41.0 26.0 L 40.333333333333336 27.0 L 39.666666666666664 28.0 L 39.333333333333336 29.0 L 38.666666666666664 30.0 L 38.333333333333336 31.0 L 37.666666666666664 32.0 L 37.333333333333336 33.0 L 36.666666666666664 34.0 L 36.333333333333336 35.0 L 36.0 36.0 L 36.0 37.0 L 35.666666666666664 38.0 L 35.333333333333336 39.0 L 35.0 40.0 L 35.0 41.0 L 35.0 42.0 L 35.0 43.0 L 35.333333333333336 43.666666666666664 L 36.0 44.0 L 36.666666666666664 43.666666666666664 L 37.0 43.0 L 37.333333333333336 42.0 L 37.666666666666664 41.0 L 38.333333333333336 40.0 L 39.0 39.0 L 39.666666666666664 38.0 L 40.0 37.0 L 39.666666666666664 36.0 L 39.666666666666664 35.0 L 39.666666666666664 34.0 L 40.333333333333336 33.0 L 40.666666666666664 32.0 L 41.333333333333336 31.0 L 42.0 30.0 L 42.666666666666664 29.0 L 43.333333333333336 28.0 L 44.0 27.0 L 45.0 26.0 L 46.0 25.0 L 47.0 24.0 L 48.0 23.333333333333332 L 49.0 22.666666666666668 L 50.0 22.0 L 51.0 21.333333333333332 L 52.0 20.666666666666668 L 53.0 20.333333333333332 L 54.0 19.666666666666668 L 55.0 19.333333333333332 L 56.0 18.666666666666668 L 57.0 18.333333333333332 L 57.5 18.0 Z" stroke="none" fill="rgb(146,54,53)" />
<path d="M 72.5 21.0 L 73.0 21.0 L 74.0 21.333333333333332 L 75.0 21.666666666666668 L 76.0 22.333333333333332 L 77.0 22.666666666666668 L 78.0 23.333333333333332 L 79.0 24.0 L 80.0 25.0 L 81.0 25.666666666666668 L 82.0 26.333333333333332 L 83.0 27.0 L 83.66666666666667 28.0 L 84.33333333333333 29.0 L 85.0 30.0 L 86.0 31.0 L 86.66666666666667 32.0 L 87.33333333333333 33.0 L 87.66666666666667 34.0 L 88.0 35.0 L 88.0 36.0 L 88.33333333333333 37.0 L 89.0 38.0 L 89.66666666666667 39.0 L 90.33333333333333 40.0 L 90.66666666666667 41.0 L 91.0 42.0 L 91.33333333333333 42.666666666666664 L 92.0 43.0 L 92.66666666666667 42.666666666666664 L 93.0 42.0 L 92.66666666666667 41.0 L 92.33333333333333 40.0 L 92.0 39.0 L 92.0 38.0 L 92.0 37.0 L 91.66666666666667 36.0 L 91.33333333333333 35.0 L 90.66666666666667 34.0 L 90.33333333333333 33.0 L 89.66666666666667 32.0 L 89.33333333333333 31.0 L 88.66666666666667 30.0 L 88.33333333333333 29.0 L 87.66666666666667 28.0 L 87.0 27.0 L 86.0 26.0 L 85.0 25.0 L 84.0 24.0 L 83.0 23.0 L 82.0 22.333333333333332 L 81.0 21.666666666666668 L 80.0 21.0 L 79.0 20.333333333333332 L 78.0 19.666666666666668 L 77.0 19.333333333333332 L 76.0 19.0 L 75.0 18.666666666666668 L 74.0 18.333333333333332 L 73.0 18.0 L 72.0 18.0 L 71.0 17.666666666666668 L 70.0 17.333333333333332 L 69.0 17.0 L 68.0 17.0 L 67.0 17.0 L 66.0 17.0 L 65.0 17.0 L 64.0 17.0 L 63.0 17.0 L 62.0 17.0 L 61.0 17.0 L 60.0 17.333333333333332 L 59.0 17.666666666666668 L 58.0 18.0 L 57.0 18.0 L 56.0 18.333333333333332 L 55.0 18.666666666666668 L 54.0 19.333333333333332 L 53.0 19.666666666666668 L 52.0 20.333333333333332 L 51.0 20.666666666666668 L 50.0 21.333333333333332 L 49.0 22.0 L 48.0 22.666666666666668 L 47.0 23.333333333333332 L 46.0 24.0 L 45.0 25.0 L 44.0 26.0 L 43.333333333333336 27.0 L 42.666666666666664 28.0 L 42.0 29.0 L 41.333333333333336 30.0 L 40.666666666666664 31.0 L 40.333333333333336 32.0 L 39.666666666666664 33.0 L 39.333333333333336 34.0 L 39.0 35.0 L 39.333333333333336 36.0 L 40.0 36.666666666666664 L 41.0 36.666666666666664 L 41.666666666666664 36.0 L 42.0 35.0 L 42.333333333333336 34.0 L 43.0 33.0 L 43.666666666666664 32.0 L 44.333333333333336 31.0 L 45.0 30.0 L 46.0 29.0 L 47.0 28.0 L 48.0 27.0 L 49.0 26.0 L 50.0 25.0 L 51.0 24.0 L 52.0 23.333333333333332 L 53.0 22.666666666666668 L 54.0 22.333333333333332 L 55.0 21.666666666666668 L 56.0 21.333333333333332 L 57.0 21.0 L 58.0 20.666666666666668 L 59.0 20.333333333333332 L 60.0 20.0 L 61.0 20.0 L 62.0 20.0 L 63.0 20.0 L 64.0 20.0 L 65.0 20.0 L 66.0 20.0 L 67.0 20.0 L 68.0 20.0 L 69.0 20.0 L 70.0 20.0 L 71.0 20.333333333333332 L 71.5 20.5 Z" stroke="none" fill="rgb(138,47,47)" />
<path d="M 88.0 35.5 L 88.0 35.0 L 88.0 34.0 L 87.66666666666667 33.0 L 87.33333333333333 32.0 L 86.66666666666667 31.0 L 86.0 30.0 L 85.0 29.0 L 84.33333333333333 28.0 L 83.66666666666667 27.0 L 83.0 26.333333333333332 L 82.0 25.666666666666668 L 81.0 25.0 L 80.0 24.0 L 79.0 23.333333333333332 L 78.0 22.666666666666668 L 77.0 22.333333333333332 L 76.0 21.666666666666668 L 75.0 21.333333333333332 L 74.0 21.0 L 73.0 20.666666666666668 L 72.0 20.333333333333332 L 71.0 20.0 L 70.0 20.0 L 69.0 20.0 L 68.0 20.0 L 67.0 20.0 L 66.0 20.0 L 65.0 20.0 L 64.0 20.0 L 63.0 20.0 L 62.0 20.0 L 61.0 20.0 L 60.0 20.0 L 59.0 20.0 L 58.0 20.333333333333332 L 57.0 20.666666666666668 L 56.0 21.0 L 55.0 21.333333333333332 L 54.0 21.666666666666668 L 53.0 22.333333333333332 L 52.0 22.666666666666668 L 51.0 23.333333333333332 L 50.0 24.0 L 49.0 25.0 L 48.0 26.0 L 47.0 27.0 L 46.0 28.0 L 45.0 29.0 L 44.333333333333336 30.0 L 43.666666666666664 31.0 L 43.0 32.0 L 42.333333333333336 33.0 L 42.0 34.0 L 42.333333333333336 34.666666666666664 L 43.0 35.0 L 44.0 35.333333333333336 L 45.0 35.666666666666664 L 46.0 36.0 L 47.0 36.0 L 48.0 36.0 L 49.0 36.0 L 50.0 36.0 L 51.0 36.333333333333336 L 52.0 36.666666666666664 L 53.0 37.0 L 54.0 37.0 L 55.0 37.0 L 56.0 37.0 L 57.0 37.0 L 58.0 37.0 L 59.0 37.0 L 60.0 37.0 L 61.0 37.0 L 62.0 37.0 L 63.0 37.0 L 64.0 37.0 L 65.0 37.0 L 66.0 37.0 L 67.0 37.0 L 68.0 37.0 L 69.0 37.0 L 70.0 37.0 L 71.0 37.0 L 72.0 37.0 L 73.0 37.0 L 74.0 37.0 L 75.0 37.0 L 76.0 37.0 L 77.0 37.0 L 78.0 37.0 L 79.0 37.0 L 80.0 37.0 L 81.0 36.666666666666664 L 82.0 36.333333333333336 L 83.0 36.0 L 84.0 36.0 L 85.0 36.0 L 86.0 36.0 L 87.0 36.0 L 87.5 36.0 Z" stroke="none" fill="rgb(128,40,40)" />
<path d="M 105.0 27.5 L 105.0 27.0 L 104.66666666666667 26.333333333333332 L 104.0 26.0 L 103.0 26.333333333333332 L 102.0 26.666666666666668 L 101.33333333333333 27.333333333333332 L 101.0 28.0 L 101.0 29.0 L 101.33333333333333 29.666666666666668 L 102.0 30.0 L 103.0 29.666666666666668 L 104.0 29.0 L 104.5 28.5 Z" stroke="none" fill="rgb(189,81,81)" />
<path d="M 59.5 96.0 L 60.0 96.0 L 61.0 96.0 L 62.0 96.0 L 63.0 96.0 L 64.0 96.0 L 65.0 96.0 L 66.0 96.0 L 67.0 96.0 L 68.0 96.0 L 69.0 96.0 L 70.0 96.0 L 71.0 96.0 L 72.0 96.33333333333333 L 73.0 96.66666666666667 L 74.0 96.66666666666667 L 75.0 96.33333333333333 L 75.66666666666667 95.66666666666667 L 76.33333333333333 95.0 L 77.0 94.33333333333333 L 78.0 94.0 L 79.0 93.66666666666667 L 80.0 93.33333333333333 L 81.0 92.66666666666667 L 82.0 92.0 L 83.0 91.33333333333333 L 84.0 90.66666666666667 L 85.0 90.0 L 86.0 89.0 L 87.0 88.0 L 88.0 87.0 L 89.0 86.0 L 89.66666666666667 85.0 L 90.33333333333333 84.0 L 91.0 83.0 L 91.66666666666667 82.0 L 92.33333333333333 81.0 L 92.66666666666667 80.0 L 93.33333333333333 79.0 L 93.66666666666667 78.0 L 94.33333333333333 77.0 L 94.66666666666667 76.0 L 95.0 75.0 L 95.33333333333333 74.0 L 95.66666666666667 73.0 L 96.0 72.0 L 96.0 71.0 L 96.33333333333333 70.0 L 96.66666666666667 69.0 L 97.0 68.0 L 97.0 67.0 L 97.0 66.0 L 97.0 65.0 L 97.0 64.0 L 97.0 63.0 L 97.0 62.0 L 97.0 61.0 L 97.0 60.0 L 97.0 59.0 L 96.66666666666667 58.0 L 96.33333333333333 57.0 L 96.0 56.0 L 96.0 55.0 L 95.66666666666667 54.0 L 95.0 53.0 L 94.33333333333333 52.0 L 94.0 51.0 L 94.0 50.0 L 93.66666666666667 49.0 L 93.33333333333333 48.0 L 93.0 47.0 L 92.66666666666667 46.0 L 92.33333333333333 45.0 L 92.0 44.0 L 91.66666666666667 43.0 L 91.33333333333333 42.0 L 91.0 41.0 L 90.66666666666667 40.0 L 90.33333333333333 39.0 L 89.66666666666667 38.0 L 89.0 37.0 L 88.0 36.333333333333336 L 87.0 36.0 L 86.0 36.0 L 85.0 36.0 L 84.0 36.0 L 83.0 36.0 L 82.0 36.0 L 81.0 36.333333333333336 L 80.0 36.666666666666664 L 79.0 37.0 L 78.0 37.0 L 77.0 37.0 L 76.0 37.0 L 75.0 37.0 L 74.0 37.0 L 73.0 37.0 L 72.0 37.0 L 71.0 37.0 L 70.0 37.0 L 69.0 37.0 L 68.0 37.0 L 67.0 37.0 L 66.0 37.0 L 65.0 37.0 L 64.0 37.0 L 63.0 37.0 L 62.0 37.0 L 61.0 37.0 L 60.0 37.0 L 59.0 37.0 L 58.0 37.0 L 57.0 37.0 L 56.0 37.0 L 55.0 37.0 L 54.0 37.0 L 53.0 36.666666666666664 L 52.0 36.333333333333336 L 51.0 36.0 L 50.0 36.0 L 49.0 36.0 L 48.0 36.0 L 47.0 36.0 L 46.0 35.666666666666664 L 45.0 35.333333333333336 L 44.0 35.0 L 43.0 35.0 L 42.0 35.333333333333336 L 41.0 36.0 L 40.0 37.0 L 39.0 38.0 L 38.333333333333336 39.0 L 37.666666666666664 40.0 L 37.333333333333336 41.0 L 37.0 42.0 L 36.666666666666664 43.0 L 36.333333333333336 44.0 L 36.0 45.0 L 35.666666666666664 46.0 L 35.333333333333336 47.0 L 34.666666666666664 48.0 L 34.333333333333336 49.0 L 34.0 50.0 L 34.0 51.0 L 33.666666666666664 52.0 L 33.0 53.0 L 32.333333333333336 54.0 L 32.0 55.0 L 32.0 56.0 L 32.0 57.0 L 32.0 58.0 L 32.0 59.0 L 32.0 60.0 L 31.666666666666668 61.0 L 31.333333333333332 62.0 L 31.0 63.0 L 31.0 64.0 L 31.0 65.0 L 31.0 66.0 L 31.0 67.0 L 31.333333333333332 68.0 L 31.666666666666668 69.0 L 32.0 70.0 L 32.0 71.0 L 32.0 72.0 L 32.333333333333336 73.0 L 32.666666666666664 74.0 L 33.0 75.0 L 33.333333333333336 76.0 L 33.666666666666664 77.0 L 34.333333333333336 78.0 L 34.666666666666664 79.0 L 35.333333333333336 80.0 L 35.666666666666664 81.0 L 36.333333333333336 82.0 L 37.0 83.0 L 37.666666666666664 84.0 L 38.333333333333336 85.0 L 39.0 86.0 L 40.0 87.0 L 41.0 88.0 L 42.0 89.0 L 43.0 90.0 L 44.0 90.66666666666667 L 45.0 91.33333333333333 L 46.0 92.0 L 47.0 92.66666666666667 L 48.0 93.33333333333333 L 49.0 93.66666666666667 L 50.0 94.0 L 51.0 94.33333333333333 L 52.0 95.0 L 53.0 96.0 L 54.0 96.66666666666667 L 55.0 96.66666666666667 L 56.0 96.33333333333333 L 57.0 96.0 L 58.0 96.0 L 58.5 96.0 Z" stroke="none" fill="rgb(130,204,43)" />
<path d="M 23.5 42.0 L 24.0 42.0 L 25.0 41.666666666666664 L 25.666666666666668 41.0 L 26.0 40.0 L 26.333333333333332 39.0 L 26.666666666666668 38.0 L 27.0 37.0 L 26.666666666666668 36.333333333333336 L 26.0 36.0 L 25.0 36.333333333333336 L 24.0 37.0 L 23.333333333333332 38.0 L 23.0 39.0 L 22.666666666666668 40.0 L 22.333333333333332 41.0 L 22.333333333333332 41.666666666666664 L 22.5 42.0 Z" stroke="none" fill="rgb(189,81,81)" />
<path d="M 104.0 42.5 L 104.0 42.0 L 104.33333333333333 41.0 L 104.66666666666667 40.0 L 104.66666666666667 39.0 L 104.33333333333333 38.0 L 103.66666666666667 37.0 L 103.0 36.333333333333336 L 102.0 36.0 L 101.33333333333333 36.333333333333336 L 101.0 37.0 L 101.33333333333333 38.0 L 101.66666666666667 39.0 L 102.0 40.0 L 102.0 41.0 L 102.33333333333333 42.0 L 103.0 42.666666666666664 L 103.5 43.0 Z" stroke="none" fill="rgb(181,76,76)" />
<path d="M 104.5 43.0 L 105.0 43.0 L 105.66666666666667 42.666666666666664 L 106.0 42.0 L 106.0 41.0 L 105.66666666666667 40.333333333333336 L 105.0 40.0 L 104.33333333333333 40.333333333333336 L 104.0 41.0 L 104.0 42.0 L 104.0 42.5 Z" stroke="none" fill="rgb(189,81,81)" />
<path d="M 57.0 63.5 L 57.0 63.0 L 57.0 62.0 L 57.0 61.0 L 57.0 60.0 L 57.0 59.0 L 57.0 58.0 L 57.0 57.0 L 57.0 56.0 L 56.666666666666664 55.0 L 56.333333333333336 54.0 L 55.666666666666664 53.0 L 55.0 52.0 L 54.0 51.0 L 53.0 50.0 L 52.0 49.0 L 51.0 48.333333333333336 L 50.0 47.666666666666664 L 49.0 47.0 L 48.666666666666664 46.0 L 49.0 45.0 L 49.666666666666664 44.0 L 50.0 43.0 L 50.0 42.0 L 49.666666666666664 41.333333333333336 L 49.0 41.0 L 48.0 41.0 L 47.0 41.0 L 46.0 41.0 L 45.0 41.0 L 44.0 41.0 L 43.333333333333336 41.333333333333336 L 43.0 42.0 L 43.0 43.0 L 43.333333333333336 44.0 L 44.0 45.0 L 44.666666666666664 46.0 L 44.666666666666664 47.0 L 44.0 47.666666666666664 L 43.0 48.333333333333336 L 42.0 49.0 L 41.0 49.666666666666664 L 40.0 50.333333333333336 L 39.0 51.0 L 38.333333333333336 52.0 L 38.0 53.0 L 37.666666666666664 54.0 L 37.333333333333336 55.0 L 37.0 56.0 L 37.0 57.0 L 37.0 58.0 L 37.0 59.0 L 37.0 60.0 L 37.0 61.0 L 37.0 62.0 L 37.0 63.0 L 37.333333333333336 64.0 L 38.0 65.0 L 38.666666666666664 66.0 L 39.333333333333336 67.0 L 40.0 68.0 L 41.0 69.0 L 42.0 69.66666666666667 L 43.0 70.0 L 44.0 70.0 L 45.0 70.0 L 46.0 70.0 L 47.0 70.0 L 48.0 70.0 L 49.0 70.0 L 50.0 70.0 L 51.0 69.66666666666667 L 52.0 69.0 L 53.0 68.0 L 54.0 67.0 L 55.0 66.0 L 56.0 65.0 L 56.5 64.5 Z" stroke="none" fill="rgb(112,153,33)" />
<path d="M 27.5 48.0 L 27.666666666666668 47.666666666666664 L 28.0 47.0 L 28.0 46.0 L 28.0 45.0 L 27.666666666666668 44.333333333333336 L 27.0 44.0 L 26.333333333333332 44.333333333333336 L 26.0 45.0 L 26.0 46.0 L 26.333333333333332 47.0 L 26.5 47.5 Z" stroke="none" fill="rgb(181,76,76)" />
<path d="M 91.0 62.5 L 91.0 62.0 L 91.0 61.0 L 91.0 60.0 L 91.0 59.0 L 91.0 58.0 L 91.0 57.0 L 90.66666666666667 56.0 L 90.33333333333333 55.0 L 90.0 54.0 L 89.66666666666667 53.0 L 89.0 52.0 L 88.0 51.0 L 87.0 50.0 L 86.0 49.0 L 85.0 48.333333333333336 L 84.0 48.0 L 83.0 48.0 L 82.0 48.0 L 81.0 48.0 L 80.0 48.0 L 79.0 48.0 L 78.0 48.0 L 77.0 48.333333333333336 L 76.0 48.666666666666664 L 75.0 49.333333333333336 L 74.0 50.0 L 73.0 51.0 L 72.33333333333333 52.0 L 71.66666666666667 53.0 L 71.33333333333333 54.0 L 71.0 55.0 L 71.0 56.0 L 71.0 57.0 L 71.0 58.0 L 71.0 59.0 L 71.0 60.0 L 71.0 61.0 L 71.0 62.0 L 71.0 63.0 L 71.33333333333333 64.0 L 71.66666666666667 65.0 L 72.33333333333333 66.0 L 73.0 67.0 L 74.0 68.0 L 75.0 69.0 L 76.0 69.66666666666667 L 77.0 70.0 L 78.0 70.0 L 79.0 70.0 L 80.0 70.0 L 81.0 70.0 L 82.0 70.0 L 83.0 70.0 L 84.0 70.0 L 85.0 69.66666666666667 L 86.0 69.0 L 87.0 68.0 L 88.0 67.0 L 89.0 66.0 L 89.66666666666667 65.0 L 90.33333333333333 64.0 L 90.5 63.5 Z" stroke="none" fill="rgb(112,153,33)" />
<path d="M 53.0 60.5 L 53.0 60.0 L 53.0 59.0 L 53.0 58.0 L 53.0 57.0 L 53.0 56.0 L 53.0 55.0 L 53.0 54.0 L 52.666666666666664 53.0 L 52.0 52.0 L 51.0 51.0 L 50.0 50.333333333333336 L 49.0 50.0 L 48.0 50.0 L 47.0 50.0 L 46.0 50.0 L 45.0 50.333333333333336 L 44.0 50.666666666666664 L 43.0 51.333333333333336 L 42.0 52.0 L 41.333333333333336 53.0 L 41.0 54.0 L 41.0 55.0 L 41.0 56.0 L 41.0 57.0 L 41.0 58.0 L 41.0 59.0 L 41.333333333333336 60.0 L 42.0 61.0 L 43.0 62.0 L 44.0 62.666666666666664 L 45.0 63.0 L 46.0 63.0 L 47.0 63.0 L 48.0 63.0 L 49.0 63.0 L 50.0 63.0 L 51.0 62.666666666666664 L 52.0 62.0 L 52.5 61.5 Z" stroke="none" fill="rgb(255,255,254)" />
<path d="M 81.5 63.0 L 82.0 63.0 L 83.0 63.0 L 84.0 63.0 L 85.0 62.666666666666664 L 85.66666666666667 62.0 L 86.33333333333333 61.0 L 86.66666666666667 60.0 L 87.0 59.0 L 87.0 58.0 L 87.0 57.0 L 87.0 56.0 L 87.0 55.0 L 87.0 54.0 L 86.66666666666667 53.0 L 86.0 52.0 L 85.0 51.0 L 84.0 50.333333333333336 L 83.0 50.0 L 82.0 50.0 L 81.0 50.0 L 80.0 50.0 L 79.0 50.333333333333336 L 78.0 50.666666666666664 L 77.0 51.333333333333336 L 76.0 52.0 L 75.33333333333333 53.0 L 75.0 54.0 L 75.0 55.0 L 75.0 56.0 L 75.0 57.0 L 75.0 58.0 L 75.0 59.0 L 75.33333333333333 60.0 L 76.0 61.0 L 77.0 62.0 L 78.0 62.666666666666664 L 79.0 63.0 L 80.0 63.0 L 80.5 63.0 Z" stroke="none" fill="rgb(255,255,254)" />
<path d="M 30.5 62.0 L 31.0 62.0 L 31.666666666666668 61.666666666666664 L 32.0 61.0 L 32.0 60.0 L 31.666666666666668 59.0 L 31.0 58.0 L 30.333333333333332 57.0 L 30.0 56.0 L 29.666666666666668 55.0 L 29.333333333333332 54.0 L 29.0 53.0 L 29.0 52.0 L 28.666666666666668 51.333333333333336 L 28.0 51.0 L 27.333333333333332 51.333333333333336 L 27.0 52.0 L 27.0 53.0 L 27.0 54.0 L 27.0 55.0 L 27.333333333333332 56.0 L 27.666666666666668 57.0 L 28.333333333333332 58.0 L 28.666666666666668 59.0 L 29.0 60.0 L 29.333333333333332 61.0 L 29.5 61.5 Z" stroke="none" fill="rgb(181,76,76)" />
<path d="M 99.0 61.5 L 99.0 61.0 L 99.33333333333333 60.0 L 99.66666666666667 59.0 L 100.0 58.0 L 100.33333333333333 57.0 L 100.66666666666667 56.0 L 101.0 55.0 L 101.0 54.0 L 101.0 53.0 L 101.0 52.0 L 100.66666666666667 51.333333333333336 L 100.0 51.0 L 99.33333333333333 51.333333333333336 L 99.0 52.0 L 99.0 53.0 L 98.66666666666667 54.0 L 98.33333333333333 55.0 L 98.0 56.0 L 97.66666666666667 57.0 L 97.33333333333333 58.0 L 97.0 59.0 L 97.0 60.0 L 97.0 61.0 L 97.0 62.0 L 97.33333333333333 62.666666666666664 L 98.0 62.666666666666664 L 98.5 62.5 Z" stroke="none" fill="rgb(174,71,71)" />
<path d="M 29.5 71.5 L 30.0 71.66666666666667 L 31.0 72.0 L 31.666666666666668 71.66666666666667 L 32.0 71.0 L 32.0 70.0 L 32.0 69.0 L 31.666666666666668 68.0 L 31.333333333333332 67.0 L 31.0 66.0 L 31.0 65.0 L 31.0 64.0 L 31.0 63.0 L 30.666666666666668 62.0 L 30.0 61.0 L 29.333333333333332 60.0 L 29.0 59.0 L 28.666666666666668 58.0 L 28.333333333333332 57.0 L 27.666666666666668 56.333333333333336 L 27.0 56.0 L 26.333333333333332 56.333333333333336 L 26.0 57.0 L 26.0 58.0 L 26.0 59.0 L 25.666666666666668 60.0 L 25.333333333333332 61.0 L 25.333333333333332 62.0 L 25.666666666666668 63.0 L 26.0 64.0 L 26.0 65.0 L 26.0 66.0 L 26.333333333333332 67.0 L 26.666666666666668 68.0 L 27.333333333333332 69.0 L 28.0 70.0 L 28.5 70.5 Z" stroke="none" fill="rgb(112,153,33)" />
<path d="M 99.5 70.5 L 100.0 70.0 L 100.66666666666667 69.0 L 101.33333333333333 68.0 L 101.66666666666667 67.0 L 102.0 66.0 L 102.33333333333333 65.0 L 102.66666666666667 64.0 L 103.0 63.0 L 103.0 62.0 L 103.0 61.0 L 102.66666666666667 60.0 L 102.33333333333333 59.0 L 102.0 58.0 L 102.0 57.0 L 101.66666666666667 56.333333333333336 L 101.0 56.0 L 100.33333333333333 56.333333333333336 L 100.0 57.0 L 99.66666666666667 58.0 L 99.33333333333333 59.0 L 99.0 60.0 L 98.66666666666667 61.0 L 98.0 62.0 L 97.33333333333333 63.0 L 97.0 64.0 L 97.0 65.0 L 97.0 66.0 L 97.0 67.0 L 96.66666666666667 68.0 L 96.33333333333333 69.0 L 96.0 70.0 L 96.0 71.0 L 96.33333333333333 71.66666666666667 L 97.0 72.0 L 98.0 71.66666666666667 L 98.5 71.5 Z" stroke="none" fill="rgb(112,153,33)" />
<path d="M 51.5 66.0 L 51.666666666666664 65.66666666666667 L 51.666666666666664 65.33333333333333 L 51.333333333333336 65.33333333333333 L 51.0 65.5 Z" stroke="none" fill="rgb(84,114,26)" />
<path d="M 86.0 65.5 L 85.66666666666667 65.33333333333333 L 85.33333333333333 65.33333333333333 L 85.33333333333333 65.66666666666667 L 85.5 66.0 Z" stroke="none" fill="rgb(84,114,26)" />
<path d="M 45.5 68.0 L 46.0 68.0 L 47.0 68.0 L 48.0 68.0 L 49.0 68.0 L 50.0 67.66666666666667 L 50.666666666666664 67.0 L 50.666666666666664 66.33333333333333 L 50.0 66.0 L 49.0 66.0 L 48.0 66.0 L 47.0 66.0 L 46.0 66.0 L 45.0 66.0 L 44.333333333333336 66.33333333333333 L 44.0 67.0 L 44.333333333333336 67.66666666666667 L 44.5 68.0 Z" stroke="none" fill="rgb(84,114,26)" />
<path d="M 77.5 68.0 L 78.0 68.0 L 79.0 68.0 L 80.0 68.0 L 81.0 68.0 L 82.0 68.0 L 83.0 68.0 L 84.0 67.66666666666667 L 84.66666666666667 67.0 L 84.66666666666667 66.33333333333333 L 84.0 66.0 L 83.0 66.0 L 82.0 66.0 L 81.0 66.0 L 80.0 66.0 L 79.0 66.0 L 78.0 66.0 L 77.33333333333333 66.33333333333333 L 77.0 67.0 L 77.0 67.5 Z" stroke="none" fill="rgb(84,114,26)" />
<path d="M 65.5 71.0 L 66.0 71.0 L 67.0 71.0 L 67.66666666666667 70.66666666666667 L 68.0 70.0 L 67.66666666666667 69.0 L 67.0 68.0 L 66.0 67.33333333333333 L 65.0 67.0 L 64.0 67.0 L 63.0 67.0 L 62.0 67.33333333333333 L 61.0 68.0 L 60.333333333333336 69.0 L 60.0 70.0 L 60.333333333333336 70.66666666666667 L 61.0 71.0 L 62.0 71.0 L 63.0 71.0 L 64.0 71.0 L 64.5 71.0 Z" stroke="none" fill="rgb(84,114,26)" />
<path d="M 42.5 78.0 L 43.0 77.66666666666667 L 43.666666666666664 77.0 L 44.0 76.0 L 43.666666666666664 75.0 L 43.0 74.33333333333333 L 42.0 74.0 L 41.333333333333336 74.33333333333333 L 41.0 75.0 L 41.0 76.0 L 41.333333333333336 77.0 L 41.5 77.5 Z" stroke="none" fill="rgb(112,153,33)" />
<path d="M 85.5 80.5 L 86.0 80.0 L 87.0 79.0 L 87.66666666666667 78.0 L 88.0 77.0 L 88.0 76.0 L 87.66666666666667 75.0 L 87.0 74.33333333333333 L 86.0 74.0 L 85.0 74.0 L 84.0 74.33333333333333 L 83.0 74.66666666666667 L 82.0 75.0 L 81.0 75.33333333333333 L 80.0 75.66666666666667 L 79.0 76.33333333333333 L 78.33333333333333 77.0 L 78.0 78.0 L 78.33333333333333 79.0 L 79.0 80.0 L 80.0 80.66666666666667 L 81.0 81.0 L 82.0 81.0 L 83.0 81.0 L 84.0 81.0 L 84.5 81.0 Z" stroke="none" fill="rgb(112,153,33)" />
<path d="M 59.5 81.5 L 60.0 81.33333333333333 L 61.0 81.0 L 62.0 81.0 L 63.0 81.0 L 64.0 81.0 L 65.0 81.0 L 66.0 81.0 L 67.0 81.0 L 68.0 81.33333333333333 L 69.0 82.0 L 70.0 83.0 L 71.0 84.0 L 72.0 84.66666666666667 L 73.0 85.0 L 73.66666666666667 84.66666666666667 L 74.0 84.0 L 74.0 83.0 L 74.0 82.0 L 74.0 81.0 L 73.66666666666667 80.0 L 73.0 79.0 L 72.0 78.0 L 71.0 77.0 L 70.0 76.33333333333333 L 69.0 75.66666666666667 L 68.0 75.33333333333333 L 67.0 75.0 L 66.0 75.0 L 65.0 75.0 L 64.0 75.0 L 63.0 75.0 L 62.0 75.33333333333333 L 61.0 75.66666666666667 L 60.0 76.0 L 59.0 76.33333333333333 L 58.0 76.66666666666667 L 57.0 77.33333333333333 L 56.0 78.0 L 55.0 79.0 L 54.333333333333336 80.0 L 54.0 81.0 L 54.0 82.0 L 54.0 83.0 L 54.333333333333336 84.0 L 55.0 84.66666666666667 L 56.0 84.66666666666667 L 57.0 84.0 L 58.0 83.0 L 58.5 82.5 Z" stroke="none" fill="rgb(53,52,51)" />
<path d="M 24.5 125.0 L 25.0 125.0 L 25.666666666666668 124.66666666666667 L 26.0 124.0 L 26.333333333333332 123.0 L 27.0 122.33333333333333 L 28.0 122.0 L 29.0 121.66666666666667 L 30.0 121.0 L 31.0 120.33333333333333 L 32.0 119.66666666666667 L 33.0 119.0 L 34.0 118.33333333333333 L 34.666666666666664 117.66666666666667 L 35.333333333333336 117.0 L 36.0 116.0 L 37.0 115.0 L 38.0 114.0 L 39.0 113.0 L 40.0 112.0 L 40.666666666666664 111.0 L 41.0 110.0 L 41.333333333333336 109.0 L 41.666666666666664 108.0 L 42.0 107.0 L 42.0 106.0 L 41.666666666666664 105.0 L 41.0 104.0 L 40.0 103.33333333333333 L 39.0 103.0 L 38.0 103.33333333333333 L 37.0 103.66666666666667 L 36.0 104.33333333333333 L 35.333333333333336 105.0 L 35.0 106.0 L 34.666666666666664 107.0 L 34.333333333333336 108.0 L 34.0 109.0 L 33.666666666666664 110.0 L 33.0 110.33333333333333 L 32.333333333333336 110.0 L 32.0 109.0 L 32.0 108.0 L 31.666666666666668 107.0 L 31.333333333333332 106.0 L 31.0 105.0 L 31.0 104.0 L 31.0 103.0 L 31.0 102.0 L 31.0 101.0 L 31.0 100.0 L 31.0 99.0 L 31.0 98.0 L 31.0 97.0 L 31.0 96.0 L 31.0 95.0 L 31.0 94.0 L 31.0 93.0 L 31.0 92.0 L 31.333333333333332 91.0 L 31.666666666666668 90.0 L 32.0 89.0 L 32.333333333333336 88.0 L 33.0 87.0 L 34.0 86.33333333333333 L 34.666666666666664 85.66666666666667 L 35.0 85.0 L 35.0 84.0 L 35.0 83.0 L 35.0 82.0 L 34.666666666666664 81.0 L 34.0 80.33333333333333 L 33.0 80.0 L 32.0 80.0 L 31.0 80.0 L 30.0 80.0 L 29.0 80.0 L 28.0 80.33333333333333 L 27.0 81.0 L 26.0 81.33333333333333 L 25.0 81.0 L 24.0 80.33333333333333 L 23.0 80.0 L 22.0 80.0 L 21.0 80.33333333333333 L 20.0 80.66666666666667 L 19.0 81.33333333333333 L 18.0 82.0 L 17.333333333333332 83.0 L 17.0 84.0 L 16.666666666666668 85.0 L 16.333333333333332 86.0 L 16.0 87.0 L 16.0 88.0 L 15.666666666666666 89.0 L 15.0 89.66666666666667 L 14.0 90.0 L 13.0 90.33333333333333 L 12.333333333333334 91.0 L 11.666666666666666 92.0 L 11.333333333333334 93.0 L 11.0 94.0 L 11.0 95.0 L 11.0 96.0 L 11.0 97.0 L 11.333333333333334 98.0 L 11.333333333333334 99.0 L 11.0 100.0 L 10.0 101.0 L 9.333333333333334 102.0 L 8.666666666666666 103.0 L 8.333333333333334 104.0 L 8.0 105.0 L 8.0 106.0 L 8.0 107.0 L 8.0 108.0 L 8.0 109.0 L 8.0 110.0 L 8.0 111.0 L 8.333333333333334 112.0 L 8.666666666666666 113.0 L 9.333333333333334 114.0 L 9.666666666666666 115.0 L 10.333333333333334 116.0 L 11.0 117.0 L 11.333333333333334 118.0 L 11.333333333333334 119.0 L 11.0 120.0 L 11.0 121.0 L 11.0 122.0 L 11.0 123.0 L 11.0 124.0 L 11.333333333333334 124.66666666666667 L 12.0 125.0 L 13.0 125.0 L 14.0 125.0 L 15.0 125.0 L 16.0 125.0 L 17.0 125.0 L 18.0 125.0 L 19.0 125.0 L 20.0 125.0 L 21.0 125.0 L 22.0 125.0 L 23.0 125.0 L 23.5 125.0 Z" stroke="none" fill="rgb(130,204,43)" />
<path d="M 95.5 119.0 L 96.0 119.33333333333333 L 97.0 119.66666666666667 L 98.0 120.33333333333333 L 99.0 120.66666666666667 L 100.0 121.33333333333333 L 101.0 122.0 L 102.0 123.0 L 102.66666666666667 124.0 L 103.33333333333333 124.66666666666667 L 104.0 125.0 L 105.0 125.0 L 106.0 125.0 L 107.0 125.0 L 108.0 125.0 L 109.0 125.0 L 110.0 125.0 L 111.0 125.0 L 112.0 125.0 L 113.0 125.0 L 114.0 125.0 L 115.0 125.0 L 116.0 125.0 L 117.0 125.0 L 117.66666666666667 124.66666666666667 L 118.0 124.0 L 118.0 123.0 L 117.66666666666667 122.0 L 117.33333333333333 121.0 L 117.0 120.0 L 117.0 119.0 L 117.33333333333333 118.0 L 117.66666666666667 117.0 L 118.33333333333333 116.0 L 118.66666666666667 115.0 L 119.33333333333333 114.0 L 119.66666666666667 113.0 L 120.0 112.0 L 120.0 111.0 L 120.0 110.0 L 120.0 109.0 L 120.0 108.0 L 120.0 107.0 L 120.0 106.0 L 120.0 105.0 L 120.0 104.0 L 119.66666666666667 103.0 L 119.33333333333333 102.0 L 118.66666666666667 101.0 L 118.0 100.0 L 117.33333333333333 99.0 L 117.0 98.0 L 117.0 97.0 L 117.0 96.0 L 117.0 95.0 L 117.0 94.0 L 117.0 93.0 L 116.66666666666667 92.0 L 116.0 91.33333333333333 L 115.0 90.66666666666667 L 114.0 90.0 L 113.0 89.0 L 112.33333333333333 88.0 L 112.0 87.0 L 112.0 86.0 L 112.0 85.0 L 111.66666666666667 84.0 L 111.33333333333333 83.0 L 110.66666666666667 82.0 L 110.0 81.33333333333333 L 109.0 80.66666666666667 L 108.0 80.33333333333333 L 107.0 80.0 L 106.0 80.0 L 105.0 80.33333333333333 L 104.0 80.66666666666667 L 103.0 81.33333333333333 L 102.0 81.33333333333333 L 101.0 81.0 L 100.0 80.33333333333333 L 99.0 80.0 L 98.0 80.0 L 97.0 80.0 L 96.0 80.0 L 95.0 80.0 L 94.0 80.33333333333333 L 93.33333333333333 81.0 L 93.0 82.0 L 93.0 83.0 L 93.0 84.0 L 93.33333333333333 85.0 L 94.0 86.0 L 95.0 86.66666666666667 L 96.0 87.33333333333333 L 96.66666666666667 88.0 L 97.0 89.0 L 97.0 90.0 L 97.0 91.0 L 97.0 92.0 L 97.0 93.0 L 97.0 94.0 L 97.0 95.0 L 97.0 96.0 L 97.0 97.0 L 97.0 98.0 L 97.0 99.0 L 97.0 100.0 L 97.0 101.0 L 97.0 102.0 L 97.0 103.0 L 97.0 104.0 L 97.0 105.0 L 97.0 106.0 L 96.66666666666667 107.0 L 96.33333333333333 108.0 L 96.0 109.0 L 95.66666666666667 110.0 L 95.0 110.33333333333333 L 94.33333333333333 110.0 L 94.0 109.0 L 94.0 108.0 L 94.0 107.0 L 93.66666666666667 106.0 L 93.0 105.0 L 92.0 104.0 L 91.0 103.33333333333333 L 90.0 103.33333333333333 L 89.0 103.66666666666667 L 88.0 104.33333333333333 L 87.33333333333333 105.0 L 87.0 106.0 L 87.0 107.0 L 87.0 108.0 L 87.33333333333333 109.0 L 87.66666666666667 110.0 L 88.0 111.0 L 88.33333333333333 112.0 L 89.0 113.0 L 90.0 114.0 L 91.0 115.0 L 92.0 116.0 L 93.0 117.0 L 94.0 118.0 L 94.5 118.5 Z" stroke="none" fill="rgb(130,204,43)" />
<path d="M 72.5 86.5 L 72.66666666666667 86.0 L 72.66666666666667 85.0 L 72.0 84.0 L 71.0 83.0 L 70.0 82.0 L 69.0 81.33333333333333 L 68.0 81.0 L 67.0 81.0 L 66.0 81.0 L 65.0 81.0 L 64.0 81.0 L 63.0 81.0 L 62.0 81.0 L 61.0 81.0 L 60.0 81.0 L 59.0 81.33333333333333 L 58.0 82.0 L 57.0 83.0 L 56.333333333333336 84.0 L 56.0 85.0 L 56.333333333333336 85.66666666666667 L 57.0 86.0 L 58.0 86.0 L 59.0 86.33333333333333 L 60.0 86.66666666666667 L 61.0 87.0 L 62.0 87.0 L 63.0 87.0 L 64.0 87.0 L 65.0 87.0 L 66.0 87.0 L 67.0 87.0 L 68.0 87.0 L 69.0 87.0 L 70.0 87.0 L 71.0 87.0 L 71.5 87.0 Z" stroke="none" fill="rgb(239,84,85)" />
<path d="M 78.5 87.0 L 79.0 87.0 L 80.0 87.0 L 80.66666666666667 86.66666666666667 L 81.0 86.0 L 81.0 85.0 L 81.0 84.0 L 80.66666666666667 83.33333333333333 L 80.0 83.0 L 79.0 83.33333333333333 L 78.33333333333333 84.0 L 78.0 85.0 L 78.0 86.0 L 78.0 86.5 Z" stroke="none" fill="rgb(112,153,33)" />
<path d="M 97.5 88.0 L 97.66666666666667 87.66666666666667 L 98.0 87.0 L 97.66666666666667 86.33333333333333 L 97.0 86.0 L 96.33333333333333 86.33333333333333 L 96.0 87.0 L 96.33333333333333 87.66666666666667 L 96.5 88.0 Z" stroke="none" fill="rgb(112,153,33)" />
<path d="M 23.5 90.0 L 24.0 89.66666666666667 L 24.666666666666668 89.0 L 25.0 88.0 L 24.666666666666668 87.33333333333333 L 24.0 87.0 L 23.333333333333332 87.33333333333333 L 23.0 88.0 L 23.0 89.0 L 23.0 89.5 Z" stroke="none" fill="rgb(0,0,0)" />
<path d="M 16.5 90.0 L 16.666666666666668 89.66666666666667 L 16.666666666666668 89.33333333333333 L 16.333333333333332 89.33333333333333 L 16.0 89.5 Z" stroke="none" fill="rgb(124,186,40)" />
<path d="M 104.5 92.0 L 105.0 91.66666666666667 L 105.66666666666667 91.0 L 106.0 90.0 L 105.66666666666667 89.33333333333333 L 105.0 89.0 L 104.33333333333333 89.33333333333333 L 104.0 90.0 L 104.0 91.0 L 104.0 91.5 Z" stroke="none" fill="rgb(0,0,0)" />
<path d="M 18.0 97.5 L 18.0 97.0 L 18.0 96.0 L 17.666666666666668 95.33333333333333 L 17.0 95.0 L 16.333333333333332 95.33333333333333 L 16.0 96.0 L 16.0 97.0 L 16.333333333333332 97.66666666666667 L 17.0 98.0 L 17.5 98.0 Z" stroke="none" fill="rgb(112,153,33)" />
<path d="M 37.5 104.0 L 38.0 103.66666666666667 L 39.0 103.66666666666667 L 40.0 104.0 L 41.0 104.66666666666667 L 42.0 104.66666666666667 L 43.0 104.33333333333333 L 44.0 104.0 L 45.0 104.0 L 46.0 104.0 L 47.0 104.0 L 48.0 104.0 L 49.0 104.0 L 50.0 104.0 L 51.0 104.0 L 52.0 104.0 L 53.0 104.0 L 54.0 104.0 L 54.666666666666664 103.66666666666667 L 55.0 103.0 L 55.0 102.0 L 55.0 101.0 L 55.0 100.0 L 55.0 99.0 L 55.0 98.0 L 54.666666666666664 97.0 L 54.0 96.33333333333333 L 53.0 96.0 L 52.0 96.0 L 51.0 96.0 L 50.0 96.0 L 49.0 96.0 L 48.0 96.33333333333333 L 47.0 96.66666666666667 L 46.0 97.0 L 45.0 97.0 L 44.0 97.0 L 43.0 97.0 L 42.0 97.0 L 41.0 97.33333333333333 L 40.0 97.66666666666667 L 39.0 98.0 L 38.0 98.0 L 37.0 98.33333333333333 L 36.0 98.66666666666667 L 35.0 99.0 L 34.0 99.0 L 33.0 99.33333333333333 L 32.0 99.66666666666667 L 31.333333333333332 100.33333333333333 L 31.0 101.0 L 31.0 102.0 L 31.0 103.0 L 31.333333333333332 103.66666666666667 L 32.0 104.0 L 33.0 104.0 L 34.0 104.33333333333333 L 35.0 104.66666666666667 L 36.0 104.66666666666667 L 36.5 104.5 Z" stroke="none" fill="rgb(0,187,162)" />
<path d="M 72.5 105.5 L 72.66666666666667 105.0 L 73.0 104.0 L 73.33333333333333 103.0 L 73.66666666666667 102.0 L 74.0 101.0 L 74.0 100.0 L 74.0 99.0 L 74.0 98.0 L 73.66666666666667 97.0 L 73.0 96.33333333333333 L 72.0 96.0 L 71.0 96.0 L 70.0 96.0 L 69.0 96.0 L 68.0 96.0 L 67.0 96.0 L 66.0 96.0 L 65.0 96.0 L 64.0 96.0 L 63.0 96.0 L 62.0 96.0 L 61.0 96.0 L 60.0 96.0 L 59.0 96.0 L 58.0 96.0 L 57.0 96.0 L 56.0 96.0 L 55.333333333333336 96.33333333333333 L 55.0 97.0 L 55.0 98.0 L 55.0 99.0 L 55.0 100.0 L 55.0 101.0 L 55.0 102.0 L 55.0 103.0 L 55.333333333333336 104.0 L 56.0 105.0 L 57.0 106.0 L 58.0 107.0 L 59.0 107.66666666666667 L 60.0 108.0 L 61.0 108.0 L 62.0 108.0 L 63.0 108.0 L 64.0 108.0 L 65.0 108.0 L 66.0 108.0 L 67.0 108.0 L 68.0 108.0 L 69.0 108.0 L 70.0 107.66666666666667 L 71.0 107.0 L 71.5 106.5 Z" stroke="none" fill="rgb(112,153,33)" />
<path d="M 78.5 104.0 L 79.0 104.0 L 80.0 104.0 L 81.0 104.0 L 82.0 104.0 L 83.0 104.0 L 84.0 104.0 L 85.0 104.0 L 86.0 104.33333333333333 L 87.0 104.66666666666667 L 88.0 104.66666666666667 L 89.0 104.33333333333333 L 90.0 104.0 L 91.0 104.33333333333333 L 92.0 104.66666666666667 L 93.0 105.0 L 94.0 104.66666666666667 L 95.0 104.33333333333333 L 96.0 104.0 L 96.66666666666667 103.66666666666667 L 97.0 103.0 L 97.0 102.0 L 97.0 101.0 L 96.66666666666667 100.33333333333333 L 96.0 100.0 L 95.0 99.66666666666667 L 94.0 99.33333333333333 L 93.0 99.0 L 92.0 99.0 L 91.0 98.66666666666667 L 90.0 98.33333333333333 L 89.0 98.0 L 88.0 98.0 L 87.0 97.66666666666667 L 86.0 97.33333333333333 L 85.0 97.0 L 84.0 97.0 L 83.0 97.0 L 82.0 97.0 L 81.0 96.66666666666667 L 80.0 96.33333333333333 L 79.0 96.0 L 78.0 96.0 L 77.0 96.0 L 76.0 96.0 L 75.0 96.0 L 74.33333333333333 96.33333333333333 L 74.0 97.0 L 74.0 98.0 L 74.0 99.0 L 74.0 100.0 L 73.66666666666667 101.0 L 73.33333333333333 102.0 L 73.0 103.0 L 73.33333333333333 103.66666666666667 L 74.0 104.0 L 75.0 104.0 L 76.0 104.0 L 77.0 104.0 L 77.5 104.0 Z" stroke="none" fill="rgb(0,187,162)" />
<path d="M 111.5 99.0 L 111.66666666666667 98.66666666666667 L 112.0 98.0 L 111.66666666666667 97.33333333333333 L 111.0 97.0 L 110.33333333333333 97.33333333333333 L 110.0 98.0 L 110.33333333333333 98.66666666666667 L 110.5 99.0 Z" stroke="none" fill="rgb(112,153,33)" />
<path d="M 32.5 108.0 L 33.0 108.0 L 34.0 108.0 L 34.666666666666664 107.66666666666667 L 35.0 107.0 L 35.0 106.0 L 35.0 105.0 L 34.666666666666664 104.33333333333333 L 34.0 104.0 L 33.0 104.0 L 32.0 104.0 L 31.333333333333332 104.33333333333333 L 31.0 105.0 L 31.0 106.0 L 31.333333333333332 107.0 L 31.5 107.5 Z" stroke="none" fill="rgb(0,180,156)" />
<path d="M 83.5 111.0 L 84.0 111.0 L 85.0 111.0 L 86.0 111.0 L 87.0 111.0 L 87.66666666666667 110.66666666666667 L 88.0 110.0 L 87.66666666666667 109.0 L 87.33333333333333 108.0 L 87.0 107.0 L 87.0 106.0 L 87.0 105.0 L 86.66666666666667 104.33333333333333 L 86.0 104.0 L 85.0 104.0 L 84.0 104.0 L 83.0 104.0 L 82.0 104.0 L 81.0 104.0 L 80.0 104.0 L 79.0 104.0 L 78.0 104.0 L 77.0 104.0 L 76.0 104.0 L 75.0 104.0 L 74.0 104.0 L 73.0 104.33333333333333 L 72.0 105.0 L 71.0 106.0 L 70.0 107.0 L 69.0 107.66666666666667 L 68.0 108.0 L 67.0 108.0 L 66.0 108.0 L 65.0 108.0 L 64.0 108.0 L 63.0 108.0 L 62.0 108.0 L 61.0 108.0 L 60.0 107.66666666666667 L 59.0 107.0 L 58.0 106.0 L 57.0 105.0 L 56.0 104.33333333333333 L 55.0 104.0 L 54.0 104.0 L 53.0 104.0 L 52.0 104.0 L 51.0 104.0 L 50.0 104.0 L 49.0 104.0 L 48.0 104.0 L 47.0 104.0 L 46.0 104.0 L 45.0 104.0 L 44.0 104.0 L 43.0 104.0 L 42.333333333333336 104.33333333333333 L 42.0 105.0 L 42.0 106.0 L 41.666666666666664 107.0 L 41.333333333333336 108.0 L 41.0 109.0 L 41.0 110.0 L 41.333333333333336 110.66666666666667 L 42.0 111.0 L 43.0 111.0 L 44.0 111.0 L 45.0 111.0 L 46.0 111.0 L 47.0 111.0 L 48.0 111.0 L 49.0 111.0 L 50.0 111.0 L 51.0 111.0 L 52.0 111.0 L 53.0 111.0 L 54.0 111.0 L 55.0 111.0 L 56.0 111.0 L 57.0 111.0 L 58.0 111.0 L 59.0 111.0 L 60.0 111.0 L 61.0 111.0 L 62.0 111.0 L 63.0 111.0 L 64.0 111.0 L 65.0 111.0 L 66.0 111.0 L 67.0 111.0 L 68.0 111.0 L 69.0 111.0 L 70.0 111.0 L 71.0 111.0 L 72.0 111.0 L 73.0 111.0 L 74.0 111.0 L 75.0 111.0 L 76.0 111.0 L 77.0 111.0 L 78.0 111.0 L 79.0 111.0 L 80.0 111.0 L 81.0 111.0 L 82.0 111.0 L 82.5 111.0 Z" stroke="none" fill="rgb(0,180,156)" />
<path d="M 95.5 108.0 L 96.0 108.0 L 96.66666666666667 107.66666666666667 L 97.0 107.0 L 97.0 106.0 L 97.0 105.0 L 96.66666666666667 104.33333333333333 L 96.0 104.0 L 95.0 104.0 L 94.0 104.33333333333333 L 93.33333333333333 105.0 L 93.33333333333333 106.0 L 93.66666666666667 107.0 L 94.33333333333333 107.66666666666667 L 94.5 108.0 Z" stroke="none" fill="rgb(0,180,156)" />
<path d="M 34.0 110.5 L 34.0 110.0 L 34.0 109.0 L 33.666666666666664 108.33333333333333 L 33.0 108.0 L 32.333333333333336 108.33333333333333 L 32.0 109.0 L 32.0 110.0 L 32.333333333333336 110.66666666666667 L 33.0 111.0 L 33.5 111.0 Z" stroke="none" fill="rgb(112,153,33)" />
<path d="M 95.5 112.0 L 95.66666666666667 111.66666666666667 L 96.0 111.0 L 96.0 110.0 L 96.0 109.0 L 95.66666666666667 108.33333333333333 L 95.0 108.0 L 94.33333333333333 108.33333333333333 L 94.0 109.0 L 94.0 110.0 L 94.33333333333333 111.0 L 94.5 111.5 Z" stroke="none" fill="rgb(112,153,33)" />
<path d="M 44.5 118.0 L 45.0 118.0 L 46.0 118.0 L 47.0 118.0 L 48.0 118.0 L 49.0 118.0 L 50.0 118.0 L 51.0 118.0 L 52.0 118.0 L 53.0 118.0 L 54.0 118.0 L 55.0 118.0 L 56.0 118.0 L 57.0 118.0 L 58.0 118.0 L 59.0 118.0 L 60.0 118.0 L 61.0 118.0 L 62.0 118.0 L 63.0 118.0 L 64.0 118.0 L 65.0 118.0 L 66.0 118.0 L 67.0 118.0 L 68.0 118.0 L 69.0 118.0 L 70.0 118.0 L 71.0 118.0 L 72.0 118.0 L 73.0 118.0 L 74.0 118.0 L 75.0 118.0 L 76.0 118.0 L 77.0 118.0 L 78.0 118.0 L 79.0 118.0 L 80.0 118.0 L 81.0 118.0 L 82.0 118.0 L 83.0 118.0 L 84.0 118.0 L 85.0 118.0 L 86.0 118.0 L 87.0 118.0 L 88.0 118.0 L 89.0 118.0 L 90.0 118.0 L 91.0 118.0 L 92.0 118.0 L 93.0 118.0 L 93.66666666666667 117.66666666666667 L 93.66666666666667 117.0 L 93.0 116.0 L 92.0 115.0 L 91.0 114.0 L 90.0 113.0 L 89.0 112.0 L 88.0 111.33333333333333 L 87.0 111.0 L 86.0 111.0 L 85.0 111.0 L 84.0 111.0 L 83.0 111.0 L 82.0 111.0 L 81.0 111.0 L 80.0 111.0 L 79.0 111.0 L 78.0 111.0 L 77.0 111.0 L 76.0 111.0 L 75.0 111.0 L 74.0 111.0 L 73.0 111.0 L 72.0 111.0 L 71.0 111.0 L 70.0 111.0 L 69.0 111.0 L 68.0 111.0 L 67.0 111.0 L 66.0 111.0 L 65.0 111.0 L 64.0 111.0 L 63.0 111.0 L 62.0 111.0 L 61.0 111.0 L 60.0 111.0 L 59.0 111.0 L 58.0 111.0 L 57.0 111.0 L 56.0 111.0 L 55.0 111.0 L 54.0 111.0 L 53.0 111.0 L 52.0 111.0 L 51.0 111.0 L 50.0 111.0 L 49.0 111.0 L 48.0 111.0 L 47.0 111.0 L 46.0 111.0 L 45.0 111.0 L 44.0 111.0 L 43.0 111.0 L 42.0 111.0 L 41.0 111.0 L 40.0 111.33333333333333 L 39.0 112.0 L 38.0 113.0 L 37.0 114.0 L 36.0 115.0 L 35.333333333333336 116.0 L 35.0 117.0 L 35.333333333333336 117.66666666666667 L 36.0 118.0 L 37.0 118.0 L 38.0 118.0 L 39.0 118.0 L 40.0 118.0 L 41.0 118.0 L 42.0 118.0 L 43.0 118.0 L 43.5 118.0 Z" stroke="none" fill="rgb(0,174,150)" />
<path d="M 109.0 112.5 L 109.0 112.0 L 108.66666666666667 111.33333333333333 L 108.0 111.33333333333333 L 107.33333333333333 112.0 L 107.33333333333333 112.66666666666667 L 108.0 113.0 L 108.5 113.0 Z" stroke="none" fill="rgb(112,153,33)" />
<path d="M 95.5 125.0 L 96.0 125.0 L 97.0 125.0 L 98.0 125.0 L 99.0 125.0 L 100.0 125.0 L 101.0 125.0 L 102.0 125.0 L 102.66666666666667 124.66666666666667 L 103.0 124.0 L 102.66666666666667 123.0 L 102.0 122.0 L 101.0 121.33333333333333 L 100.0 120.66666666666667 L 99.0 120.33333333333333 L 98.0 119.66666666666667 L 97.0 119.33333333333333 L 96.0 118.66666666666667 L 95.0 118.33333333333333 L 94.0 118.0 L 93.0 118.0 L 92.0 118.0 L 91.0 118.0 L 90.0 118.0 L 89.0 118.0 L 88.0 118.0 L 87.0 118.0 L 86.0 118.0 L 85.0 118.0 L 84.0 118.0 L 83.0 118.0 L 82.0 118.0 L 81.0 118.0 L 80.0 118.0 L 79.0 118.0 L 78.0 118.0 L 77.0 118.0 L 76.0 118.0 L 75.0 118.0 L 74.0 118.0 L 73.0 118.0 L 72.0 118.0 L 71.0 118.0 L 70.0 118.0 L 69.0 118.0 L 68.0 118.0 L 67.0 118.0 L 66.0 118.0 L 65.0 118.0 L 64.0 118.0 L 63.0 118.0 L 62.0 118.0 L 61.0 118.0 L 60.0 118.0 L 59.0 118.0 L 58.0 118.0 L 57.0 118.0 L 56.0 118.0 L 55.0 118.0 L 54.0 118.0 L 53.0 118.0 L 52.0 118.0 L 51.0 118.0 L 50.0 118.0 L 49.0 118.0 L 48.0 118.0 L 47.0 118.0 L 46.0 118.0 L 45.0 118.0 L 44.0 118.0 L 43.0 118.0 L 42.0 118.0 L 41.0 118.0 L 40.0 118.0 L 39.0 118.0 L 38.0 118.0 L 37.0 118.0 L 36.0 118.0 L 35.0 118.0 L 34.0 118.0 L 33.0 118.33333333333333 L 32.0 119.0 L 31.0 119.66666666666667 L 30.0 120.33333333333333 L 29.0 121.0 L 28.0 121.66666666666667 L 27.0 122.0 L 26.333333333333332 122.33333333333333 L 26.0 123.0 L 26.0 124.0 L 26.333333333333332 124.66666666666667 L 27.0 125.0 L 28.0 125.0 L 29.0 125.0 L 30.0 125.0 L 31.0 125.0 L 32.0 125.0 L 33.0 125.0 L 34.0 125.0 L 35.0 125.0 L 36.0 125.0 L 37.0 125.0 L 38.0 125.0 L 39.0 125.0 L 40.0 125.0 L 41.0 125.0 L 42.0 125.0 L 43.0 125.0 L 44.0 125.0 L 45.0 125.0 L 46.0 125.0 L 47.0 125.0 L 48.0 125.0 L 49.0 125.0 L 50.0 125.0 L 51.0 125.0 L 52.0 125.0 L 53.0 125.0 L 54.0 125.0 L 55.0 125.0 L 56.0 125.0 L 57.0 125.0 L 58.0 125.0 L 59.0 125.0 L 60.0 125.0 L 61.0 125.0 L 62.0 125.0 L 63.0 125.0 L 64.0 125.0 L 65.0 125.0 L 66.0 125.0 L 67.0 125.0 L 68.0 125.0 L 69.0 125.0 L 70.0 125.0 L 71.0 125.0 L 72.0 125.0 L 73.0 125.0 L 74.0 125.0 L 75.0 125.0 L 76.0 125.0 L 77.0 125.0 L 78.0 125.0 L 79.0 125.0 L 80.0 125.0 L 81.0 125.0 L 82.0 125.0 L 83.0 125.0 L 84.0 125.0 L 85.0 125.0 L 86.0 125.0 L 87.0 125.0 L 88.0 125.0 L 89.0 125.0 L 90.0 125.0 L 91.0 125.0 L 92.0 125.0 L 93.0 125.0 L 94.0 125.0 L 94.5 125.0 Z" stroke="none" fill="rgb(0,167,145)" />
<path d="M 113.0 119.5 L 112.66666666666667 119.33333333333333 L 112.33333333333333 119.33333333333333 L 112.33333333333333 119.66666666666667 L 112.5 120.0 Z" stroke="none" fill="rgb(124,186,40)" />
</svg>
