<?xml version="1.0" encoding="UTF-8" standalone="no"?>
<!DOCTYPE svg PUBLIC "-//W3C//DTD SVG 1.1//EN"
"http://www.w3.org/Graphics/SVG/1.1/DTD/svg11.dtd">
<svg width="128" height="128" xmlns="http://www.w3.org/2000/svg" version="1.1">
<path d="M 88.5 128.0 L 89.0 128.0 L 90.0 128.0 L 91.0 128.0 L 92.0 128.0 L 93.0 128.0 L 94.0 128.0 L 95.0 128.0 L 96.0 128.0 L 97.0 128.0 L 98.0 128.0 L 99.0 128.0 L 100.0 128.0 L 101.0 128.0 L 102.0 128.0 L 103.0 128.0 L 104.0 128.0 L 105.0 128.0 L 106.0 128.0 L 107.0 128.0 L 108.0 128.0 L 109.0 128.0 L 110.0 128.0 L 111.0 128.0 L 112.0 128.0 L 113.0 128.0 L 114.0 128.0 L 115.0 128.0 L 116.0 128.0 L 117.0 128.0 L 118.0 128.0 L 119.0 128.0 L 120.0 128.0 L 121.0 128.0 L 122.0 128.0 L 123.0 128.0 L 124.0 128.0 L 125.0 128.0 L 126.0 128.0 L 127.0 128.0 L 127.66666666666667 127.66666666666667 L 128.0 127.0 L 128.0 126.0 L 128.0 125.0 L 128.0 124.0 L 128.0 123.0 L 128.0 122.0 L 128.0 121.0 L 128.0 120.0 L 128.0 119.0 L 128.0 118.0 L 128.0 117.0 L 128.0 116.0 L 128.0 115.0 L 128.0 114.0 L 128.0 113.0 L 128.0 112.0 L 128.0 111.0 L 128.0 110.0 L 128.0 109.0 L 128.0 108.0 L 128.0 107.0 L 128.0 106.0 L 128.0 105.0 L 128.0 104.0 L 128.0 103.0 L 128.0 102.0 L 128.0 101.0 L 128.0 100.0 L 128.0 99.0 L 128.0 98.0 L 128.0 97.0 L 128.0 96.0 L 128.0 95.0 L 128.0 94.0 L 128.0 93.0 L 128.0 92.0 L 128.0 91.0 L 128.0 90.0 L 128.0 89.0 L 128.0 88.0 L 128.0 87.0 L 128.0 86.0 L 128.0 85.0 L 128.0 84.0 L 128.0 83.0 L 128.0 82.0 L 128.0 81.0 L 128.0 80.0 L 128.0 79.0 L 128.0 78.0 L 128.0 77.0 L 128.0 76.0 L 128.0 75.0 L 128.0 74.0 L 128.0 73.0 L 128.0 72.0 L 128.0 71.0 L 128.0 70.0 L 128.0 69.0 L 128.0 68.0 L 128.0 67.0 L 128.0 66.0 L 128.0 65.0 L 128.0 64.0 L 128.0 63.0 L 128.0 62.0 L 128.0 61.0 L 128.0 60.0 L 128.0 59.0 L 128.0 58.0 L 128.0 57.0 L 128.0 56.0 L 128.0 55.0 L 128.0 54.0 L 128.0 53.0 L 128.0 52.0 L 128.0 51.0 L 128.0 50.0 L 128.0 49.0 L 128.0 48.0 L 128.0 47.0 L 128.0 46.0 L 128.0 45.0 L 128.0 44.0 L 128.0 43.0 L 128.0 42.0 L 128.0 41.0 L 128.0 40.0 L 128.0 39.0 L 128.0 38.0 L 128.0 37.0 L 128.0 36.0 L 128.0 35.0 L 128.0 34.0 L 128.0 33.0 L 128.0 32.0 L 128.0 31.0 L 128.0 30.0 L 128.0 29.0 L 128.0 28.0 L 128.0 27.0 L 128.0 26.0 L 128.0 25.0 L 128.0 24.0 L 128.0 23.0 L 128.0 22.0 L 128.0 21.0 L 128.0 20.0 L 128.0 19.0 L 128.0 18.0 L 128.0 17.0 L 128.0 16.0 L 128.0 15.0 L 128.0 14.0 L 128.0 13.0 L 128.0 12.0 L 128.0 11.0 L 128.0 10.0 L 128.0 9.0 L 128.0 8.0 L 128.0 7.0 L 128.0 6.0 L 128.0 5.0 L 128.0 4.0 L 128.0 3.0 L 128.0 2.0 L 128.0 1.0 L 127.66666666666667 0.3333333333333333 L 127.0 0.0 L 126.0 0.0 L 125.0 0.0 L 124.0 0.0 L 123.0 0.0 L 122.0 0.0 L 121.0 0.0 L 120.0 0.0 L 119.0 0.0 L 118.0 0.0 L 117.0 0.0 L 116.0 0.0 L 115.0 0.0 L 114.0 0.0 L 113.0 0.0 L 112.0 0.0 L 111.0 0.0 L 110.0 0.0 L 109.0 0.0 L 108.0 0.0 L 107.0 0.0 L 106.0 0.0 L 105.0 0.0 L 104.0 0.0 L 103.0 0.0 L 102.0 0.0 L 101.0 0.0 L 100.0 0.0 L 99.0 0.0 L 98.0 0.0 L 97.0 0.0 L 96.0 0.0 L 95.0 0.0 L 94.0 0.0 L 93.0 0.0 L 92.0 0.0 L 91.0 0.0 L 90.0 0.0 L 89.0 0.0 L 88.0 0.0 L 87.0 0.0 L 86.0 0.0 L 85.0 0.0 L 84.0 0.0 L 83.0 0.0 L 82.0 0.0 L 81.0 0.0 L 80.0 0.0 L 79.0 0.0 L 78.0 0.0 L 77.0 0.0 L 76.0 0.0 L 75.0 0.0 L 74.0 0.0 L 73.0 0.0 L 72.0 0.0 L 71.0 0.0 L 70.0 0.0 L 69.0 0.0 L 68.0 0.0 L 67.0 0.0 L 66.0 0.0 L 65.0 0.0 L 64.0 0.0 L 63.0 0.0 L 62.0 0.0 L 61.0 0.0 L 60.0 0.0 L 59.0 0.0 L 58.0 0.0 L 57.0 0.0 L 56.0 0.0 L 55.0 0.0 L 54.0 0.0 L 53.0 0.0 L 52.0 0.0 L 51.0 0.0 L 50.0 0.0 L 49.0 0.0 L 48.0 0.0 L 47.0 0.0 L 46.0 0.0 L 45.0 0.0 L 44.0 0.0 L 43.0 0.0 L 42.0 0.0 L 41.0 0.0 L 40.0 0.0 L 39.0 0.0 L 38.0 0.0 L 37.0 0.0 L 36.0 0.0 L 35.0 0.0 L 34.0 0.0 L 33.0 0.0 L 32.0 0.0 L 31.0 0.0 L 30.0 0.0 L 29.0 0.0 L 28.0 0.0 L 27.0 0.0 L 26.0 0.0 L 25.0 0.0 L 24.0 0.0 L 23.0 0.0 L 22.0 0.0 L 21.0 0.0 L 20.0 0.0 L 19.0 0.0 L 18.0 0.0 L 17.0 0.0 L 16.0 0.0 L 15.0 0.0 L 14.0 0.0 L 13.0 0.0 L 12.0 0.0 L 11.0 0.0 L 10.0 0.0 L 9.0 0.0 L 8.0 0.0 L 7.0 0.0 L 6.0 0.0 L 5.0 0.0 L 4.0 0.0 L 3.0 0.0 L 2.0 0.0 L 1.0 0.0 L 0.3333333333333333 0.3333333333333333 L 0.0 1.0 L 0.0 2.0 L 0.0 3.0 L 0.0 4.0 L 0.0 5.0 L 0.0 6.0 L 0.0 7.0 L 0.0 8.0 L 0.0 9.0 L 0.0 10.0 L 0.0 11.0 L 0.0 12.0 L 0.0 13.0 L 0.0 14.0 L 0.0 15.0 L 0.0 16.0 L 0.0 17.0 L 0.0 18.0 L 0.0 19.0 L 0.0 20.0 L 0.0 21.0 L 0.0 22.0 L 0.0 23.0 L 0.0 24.0 L 0.0 25.0 L 0.0 26.0 L 0.0 27.0 L 0.0 28.0 L 0.0 29.0 L 0.0 30.0 L 0.0 31.0 L 0.0 32.0 L 0.0 33.0 L 0.0 34.0 L 0.0 35.0 L 0.0 36.0 L 0.0 37.0 L 0.0 38.0 L 0.0 39.0 L 0.0 40.0 L 0.0 41.0 L 0.0 42.0 L 0.0 43.0 L 0.0 44.0 L 0.0 45.0 L 0.0 46.0 L 0.0 47.0 L 0.0 48.0 L 0.0 49.0 L 0.0 50.0 L 0.0 51.0 L 0.0 52.0 L 0.0 53.0 L 0.0 54.0 L 0.0 55.0 L 0.0 56.0 L 0.0 57.0 L 0.0 58.0 L 0.0 59.0 L 0.0 60.0 L 0.0 61.0 L 0.0 62.0 L 0.0 63.0 L 0.0 64.0 L 0.0 65.0 L 0.0 66.0 L 0.0 67.0 L 0.0 68.0 L 0.0 69.0 L 0.0 70.0 L 0.0 71.0 L 0.0 72.0 L 0.0 73.0 L 0.0 74.0 L 0.0 75.0 L 0.0 76.0 L 0.0 77.0 L 0.0 78.0 L 0.0 79.0 L 0.0 80.0 L 0.0 81.0 L 0.0 82.0 L 0.0 83.0 L 0.0 84.0 L 0.0 85.0 L 0.0 86.0 L 0.0 87.0 L 0.0 88.0 L 0.0 89.0 L 0.0 90.0 L 0.0 91.0 L 0.0 92.0 L 0.0 93.0 L 0.0 94.0 L 0.0 95.0 L 0.0 96.0 L 0.0 97.0 L 0.0 98.0 L 0.0 99.0 L 0.0 100.0 L 0.0 101.0 L 0.0 102.0 L 0.0 103.0 L 0.0 104.0 L 0.0 105.0 L 0.0 106.0 L 0.0 107.0 L 0.0 108.0 L 0.0 109.0 L 0.0 110.0 L 0.0 111.0 L 0.0 112.0 L 0.0 113.0 L 0.0 114.0 L 0.0 115.0 L 0.0 116.0 L 0.0 117.0 L 0.0 118.0 L 0.0 119.0 L 0.0 120.0 L 0.0 121.0 L 0.0 122.0 L 0.0 123.0 L 0.0 124.0 L 0.0 125.0 L 0.0 126.0 L 0.0 127.0 L 0.3333333333333333 127.66666666666667 L 1.0 128.0 L 2.0 128.0 L 3.0 128.0 L 4.0 128.0 L 5.0 128.0 L 6.0 128.0 L 7.0 128.0 L 8.0 128.0 L 9.0 128.0 L 10.0 128.0 L 11.0 128.0 L 12.0 128.0 L 13.0 128.0 L 14.0 128.0 L 15.0 128.0 L 16.0 128.0 L 17.0 128.0 L 18.0 128.0 L 19.0 128.0 L 20.0 128.0 L 21.0 128.0 L 22.0 128.0 L 23.0 128.0 L 24.0 128.0 L 25.0 128.0 L 26.0 128.0 L 27.0 128.0 L 28.0 128.0 L 29.0 128.0 L 30.0 128.0 L 31.0 128.0 L 32.0 128.0 L 33.0 128.0 L 34.0 128.0 L 35.0 128.0 L 36.0 128.0 L 37.0 128.0 L 38.0 128.0 L 39.0 128.0 L 40.0 128.0 L 41.0 128.0 L 42.0 128.0 L 43.0 128.0 L 44.0 128.0 L 45.0 128.0 L 46.0 128.0 L 47.0 128.0 L 48.0 128.0 L 49.0 128.0 L 50.0 128.0 L 51.0 128.0 L 52.0 128.0 L 53.0 128.0 L 54.0 128.0 L 55.0 128.0 L 56.0 128.0 L 57.0 128.0 L 58.0 128.0 L 59.0 128.0 L 60.0 128.0 L 61.0 128.0 L 62.0 128.0 L 63.0 128.0 L 64.0 128.0 L 65.0 128.0 L 66.0 128.0 L 67.0 128.0 L 68.0 128.0 L 69.0 128.0 L 70.0 128.0 L 71.0 128.0 L 72.0 128.0 L 73.0 128.0 L 74.0 128.0 L 75.0 128.0 L 76.0 128.0 L 77.0 128.0 L 78.0 128.0 L 79.0 128.0 L 80.0 128.0 L 81.0 128.0 L 82.0 128.0 L 83.0 128.0 L 84.0 128.0 L 85.0 128.0 L 86.0 128.0 L 87.0 128.0 L 87.5 128.0 Z" stroke="none" fill="rgb(255,255,255)" />
<path d="M 59.5 74.0 L 60.0 74.0 L 61.0 73.66666666666667 L 62.0 73.33333333333333 L 63.0 73.0 L 64.0 73.33333333333333 L 65.0 73.66666666666667 L 66.0 74.0 L 67.0 74.0 L 68.0 74.0 L 69.0 74.0 L 70.0 74.0 L 71.0 74.0 L 72.0 74.0 L 73.0 74.0 L 74.0 74.0 L 75.0 74.0 L 76.0 74.0 L 77.0 74.0 L 78.0 74.0 L 79.0 74.0 L 80.0 74.0 L 81.0 74.0 L 82.0 74.33333333333333 L 83.0 75.0 L 84.0 76.0 L 85.0 77.0 L 85.66666666666667 78.0 L 86.0 79.0 L 86.0 80.0 L 86.0 81.0 L 86.0 82.0 L 86.0 83.0 L 86.0 84.0 L 86.0 85.0 L 86.0 86.0 L 86.33333333333333 87.0 L 87.0 87.66666666666667 L 88.0 88.0 L 89.0 87.66666666666667 L 90.0 87.33333333333333 L 91.0 86.66666666666667 L 92.0 86.33333333333333 L 93.0 86.0 L 93.66666666666667 85.66666666666667 L 94.0 85.0 L 94.0 84.0 L 94.0 83.0 L 94.0 82.0 L 94.0 81.0 L 94.33333333333333 80.0 L 95.0 79.0 L 96.0 78.0 L 97.0 77.33333333333333 L 98.0 77.0 L 99.0 77.0 L 100.0 77.0 L 101.0 77.0 L 102.0 77.0 L 103.0 77.0 L 104.0 77.0 L 105.0 77.0 L 106.0 77.0 L 107.0 77.0 L 108.0 77.0 L 109.0 77.0 L 110.0 77.0 L 111.0 77.0 L 112.0 77.0 L 113.0 77.0 L 114.0 77.0 L 115.0 77.0 L 116.0 77.0 L 116.66666666666667 76.66666666666667 L 117.0 76.0 L 117.0 75.0 L 117.0 74.0 L 117.0 73.0 L 117.0 72.0 L 117.0 71.0 L 116.66666666666667 70.0 L 116.0 69.0 L 115.0 68.0 L 114.0 67.33333333333333 L 113.0 66.66666666666667 L 112.0 66.33333333333333 L 111.0 65.66666666666667 L 110.0 65.33333333333333 L 109.0 65.0 L 108.0 65.0 L 107.0 65.0 L 106.0 65.0 L 105.0 65.33333333333333 L 104.0 65.66666666666667 L 103.0 66.0 L 102.0 66.0 L 101.0 66.0 L 100.0 66.0 L 99.0 66.0 L 98.0 66.0 L 97.0 66.0 L 96.0 66.0 L 95.0 66.0 L 94.0 66.0 L 93.0 66.0 L 92.0 66.0 L 91.0 66.0 L 90.0 66.0 L 89.0 66.0 L 88.0 66.0 L 87.0 66.0 L 86.0 66.0 L 85.0 66.0 L 84.0 66.0 L 83.0 66.0 L 82.0 66.0 L 81.0 66.0 L 80.0 66.0 L 79.0 66.0 L 78.0 66.0 L 77.0 66.0 L 76.0 66.0 L 75.0 66.0 L 74.0 66.0 L 73.0 66.0 L 72.0 66.0 L 71.0 66.0 L 70.0 66.0 L 69.0 66.0 L 68.0 66.0 L 67.0 66.0 L 66.0 66.0 L 65.0 66.0 L 64.0 66.0 L 63.0 66.0 L 62.0 66.0 L 61.0 66.0 L 60.0 66.0 L 59.0 66.0 L 58.0 66.0 L 57.0 66.0 L 56.0 66.0 L 55.0 66.0 L 54.0 66.0 L 53.0 66.0 L 52.0 66.0 L 51.0 66.0 L 50.0 66.0 L 49.0 66.0 L 48.0 66.0 L 47.0 66.0 L 46.0 66.0 L 45.0 66.0 L 44.0 66.0 L 43.0 66.0 L 42.0 66.0 L 41.0 66.33333333333333 L 40.333333333333336 67.0 L 39.666666666666664 68.0 L 39.0 69.0 L 38.0 70.0 L 37.0 70.66666666666667 L 36.0 71.0 L 35.0 71.0 L 34.0 71.0 L 33.0 71.0 L 32.0 71.0 L 31.0 71.0 L 30.0 71.0 L 29.0 71.0 L 28.0 71.0 L 27.0 71.0 L 26.0 71.0 L 25.0 71.0 L 24.0 71.0 L 23.0 71.0 L 22.0 71.0 L 21.0 71.0 L 20.0 71.0 L 19.0 71.0 L 18.0 70.66666666666667 L 17.0 70.0 L 16.666666666666668 69.0 L 17.0 68.0 L 18.0 67.33333333333333 L 18.666666666666668 66.66666666666667 L 18.666666666666668 66.0 L 18.0 65.33333333333333 L 17.0 65.0 L 16.0 65.0 L 15.0 65.33333333333333 L 14.0 65.66666666666667 L 13.0 66.33333333333333 L 12.0 66.66666666666667 L 11.0 67.33333333333333 L 10.0 68.0 L 9.0 69.0 L 8.333333333333334 70.0 L 8.0 71.0 L 8.0 72.0 L 8.0 73.0 L 8.0 74.0 L 8.333333333333334 75.0 L 9.0 76.0 L 10.0 76.66666666666667 L 11.0 77.0 L 12.0 77.0 L 13.0 77.0 L 14.0 77.0 L 15.0 77.0 L 16.0 77.0 L 17.0 77.0 L 18.0 77.0 L 19.0 77.0 L 20.0 77.0 L 21.0 77.0 L 22.0 77.0 L 23.0 77.0 L 24.0 77.0 L 25.0 77.0 L 26.0 77.0 L 27.0 77.0 L 28.0 77.33333333333333 L 29.0 78.0 L 30.0 79.0 L 30.666666666666668 80.0 L 31.0 81.0 L 31.0 82.0 L 31.333333333333332 83.0 L 31.666666666666668 84.0 L 32.333333333333336 85.0 L 33.0 85.66666666666667 L 34.0 86.33333333333333 L 35.0 86.66666666666667 L 36.0 87.0 L 37.0 87.0 L 37.666666666666664 86.66666666666667 L 38.0 86.0 L 38.0 85.0 L 38.0 84.0 L 38.0 83.0 L 38.0 82.0 L 38.0 81.0 L 38.0 80.0 L 38.0 79.0 L 38.333333333333336 78.0 L 39.0 77.0 L 39.666666666666664 76.0 L 40.333333333333336 75.0 L 41.0 74.0 L 42.0 73.66666666666667 L 43.0 73.66666666666667 L 44.0 74.0 L 45.0 74.0 L 46.0 74.0 L 47.0 74.0 L 48.0 74.0 L 49.0 74.0 L 50.0 74.0 L 51.0 74.0 L 52.0 74.0 L 53.0 74.0 L 54.0 74.0 L 55.0 74.0 L 56.0 74.0 L 57.0 74.0 L 58.0 74.0 L 58.5 74.0 Z" stroke="none" fill="rgb(224,224,224)" />
<path d="M 39.5 124.0 L 40.0 124.0 L 41.0 124.0 L 42.0 124.0 L 43.0 124.0 L 44.0 124.0 L 45.0 124.0 L 46.0 124.0 L 47.0 124.0 L 48.0 124.0 L 49.0 124.0 L 50.0 124.0 L 51.0 124.0 L 52.0 124.0 L 53.0 124.0 L 54.0 124.0 L 55.0 124.0 L 56.0 124.0 L 57.0 124.0 L 58.0 124.0 L 59.0 124.0 L 60.0 124.0 L 61.0 124.0 L 62.0 124.0 L 63.0 124.0 L 64.0 124.0 L 65.0 124.0 L 66.0 124.0 L 67.0 124.0 L 68.0 124.0 L 69.0 124.0 L 70.0 124.0 L 71.0 124.0 L 72.0 124.0 L 73.0 124.0 L 74.0 124.0 L 75.0 124.0 L 76.0 124.0 L 77.0 124.0 L 78.0 124.0 L 79.0 124.0 L 80.0 124.0 L 81.0 124.0 L 82.0 124.0 L 83.0 124.0 L 84.0 124.0 L 85.0 124.0 L 86.0 124.0 L 87.0 124.0 L 88.0 124.0 L 89.0 124.0 L 90.0 124.0 L 91.0 124.0 L 92.0 124.0 L 93.0 124.0 L 94.0 124.0 L 95.0 124.0 L 96.0 124.0 L 97.0 124.0 L 98.0 124.0 L 99.0 124.0 L 100.0 124.0 L 101.0 124.0 L 102.0 123.66666666666667 L 103.0 123.33333333333333 L 104.0 123.0 L 105.0 122.66666666666667 L 106.0 122.33333333333333 L 106.66666666666667 121.66666666666667 L 107.0 121.0 L 106.66666666666667 120.33333333333333 L 106.0 120.0 L 105.0 120.0 L 104.0 120.0 L 103.0 120.0 L 102.0 120.0 L 101.0 120.0 L 100.0 120.0 L 99.0 120.0 L 98.0 120.0 L 97.0 120.0 L 96.0 120.0 L 95.0 120.0 L 94.0 120.0 L 93.0 120.0 L 92.0 120.0 L 91.0 120.0 L 90.0 120.0 L 89.0 120.0 L 88.0 120.0 L 87.0 119.66666666666667 L 86.0 119.33333333333333 L 85.0 119.0 L 84.0 119.0 L 83.0 119.0 L 82.0 119.0 L 81.0 119.0 L 80.0 119.0 L 79.0 119.0 L 78.0 119.0 L 77.0 119.0 L 76.0 119.0 L 75.0 119.0 L 74.0 119.0 L 73.0 119.0 L 72.0 119.0 L 71.0 119.0 L 70.0 119.0 L 69.0 119.0 L 68.0 119.0 L 67.0 119.0 L 66.0 119.0 L 65.0 118.66666666666667 L 64.33333333333333 118.0 L 64.0 117.0 L 64.0 116.0 L 64.0 115.0 L 64.0 114.0 L 64.0 113.0 L 64.0 112.0 L 64.0 111.0 L 64.0 110.0 L 64.0 109.0 L 64.0 108.0 L 64.0 107.0 L 64.0 106.0 L 64.0 105.0 L 64.0 104.0 L 64.0 103.0 L 64.0 102.0 L 64.0 101.0 L 64.0 100.0 L 64.0 99.0 L 64.0 98.0 L 64.0 97.0 L 64.0 96.0 L 64.0 95.0 L 64.0 94.0 L 64.0 93.0 L 64.0 92.0 L 64.0 91.0 L 64.0 90.0 L 64.0 89.0 L 64.0 88.0 L 64.0 87.0 L 64.0 86.0 L 64.0 85.0 L 64.0 84.0 L 64.0 83.0 L 64.0 82.0 L 64.0 81.0 L 64.0 80.0 L 64.0 79.0 L 64.0 78.0 L 64.0 77.0 L 64.33333333333333 76.0 L 64.66666666666667 75.0 L 65.0 74.0 L 64.66666666666667 73.33333333333333 L 64.0 73.0 L 63.0 73.0 L 62.0 73.0 L 61.333333333333336 73.33333333333333 L 61.0 74.0 L 61.0 75.0 L 61.0 76.0 L 61.0 77.0 L 61.0 78.0 L 61.0 79.0 L 61.0 80.0 L 61.0 81.0 L 61.0 82.0 L 61.0 83.0 L 61.0 84.0 L 61.0 85.0 L 61.0 86.0 L 61.0 87.0 L 61.0 88.0 L 61.0 89.0 L 61.0 90.0 L 61.0 91.0 L 61.0 92.0 L 61.0 93.0 L 61.0 94.0 L 61.0 95.0 L 61.0 96.0 L 61.0 97.0 L 61.0 98.0 L 61.0 99.0 L 61.0 100.0 L 61.0 101.0 L 61.0 102.0 L 61.0 103.0 L 61.0 104.0 L 61.0 105.0 L 61.0 106.0 L 61.0 107.0 L 61.0 108.0 L 61.0 109.0 L 61.0 110.0 L 61.0 111.0 L 61.0 112.0 L 61.0 113.0 L 61.0 114.0 L 61.0 115.0 L 61.0 116.0 L 61.0 117.0 L 60.666666666666664 118.0 L 60.0 118.66666666666667 L 59.0 119.0 L 58.0 119.0 L 57.0 119.0 L 56.0 119.0 L 55.0 119.0 L 54.0 119.0 L 53.0 119.0 L 52.0 119.0 L 51.0 119.0 L 50.0 119.0 L 49.0 119.0 L 48.0 119.0 L 47.0 119.0 L 46.0 119.0 L 45.0 119.0 L 44.0 119.0 L 43.0 119.0 L 42.0 118.66666666666667 L 41.0 118.0 L 40.333333333333336 117.0 L 40.0 116.0 L 40.0 115.0 L 40.0 114.0 L 40.0 113.0 L 40.0 112.0 L 40.0 111.0 L 40.0 110.0 L 40.0 109.0 L 40.0 108.0 L 40.0 107.0 L 40.0 106.0 L 40.0 105.0 L 40.0 104.0 L 40.0 103.0 L 40.0 102.0 L 40.0 101.0 L 40.0 100.0 L 40.0 99.0 L 40.0 98.0 L 40.0 97.0 L 40.0 96.0 L 40.0 95.0 L 40.0 94.0 L 40.0 93.0 L 40.0 92.0 L 40.0 91.0 L 40.0 90.0 L 40.0 89.0 L 40.0 88.0 L 40.0 87.0 L 40.0 86.0 L 40.0 85.0 L 40.0 84.0 L 40.0 83.0 L 40.0 82.0 L 40.0 81.0 L 40.0 80.0 L 40.0 79.0 L 40.0 78.0 L 40.0 77.0 L 39.666666666666664 76.33333333333333 L 39.0 76.33333333333333 L 38.333333333333336 77.0 L 38.0 78.0 L 38.0 79.0 L 38.0 80.0 L 38.0 81.0 L 38.0 82.0 L 38.0 83.0 L 38.0 84.0 L 38.0 85.0 L 37.666666666666664 86.0 L 37.333333333333336 87.0 L 37.333333333333336 88.0 L 37.666666666666664 89.0 L 38.0 90.0 L 38.0 91.0 L 38.0 92.0 L 38.0 93.0 L 38.0 94.0 L 38.0 95.0 L 38.0 96.0 L 38.0 97.0 L 38.0 98.0 L 38.0 99.0 L 38.0 100.0 L 38.0 101.0 L 38.0 102.0 L 38.0 103.0 L 38.0 104.0 L 38.0 105.0 L 38.0 106.0 L 38.0 107.0 L 38.0 108.0 L 38.0 109.0 L 38.0 110.0 L 38.0 111.0 L 38.0 112.0 L 38.0 113.0 L 38.0 114.0 L 38.0 115.0 L 38.0 116.0 L 38.0 117.0 L 37.666666666666664 118.0 L 37.0 119.0 L 36.0 119.66666666666667 L 35.0 120.0 L 34.0 120.0 L 33.0 120.0 L 32.0 120.0 L 31.0 120.0 L 30.0 120.0 L 29.0 120.0 L 28.0 120.0 L 27.0 120.0 L 26.0 120.0 L 25.0 120.0 L 24.0 120.0 L 23.0 120.0 L 22.0 120.0 L 21.0 120.0 L 20.0 120.0 L 19.0 120.0 L 18.333333333333332 120.33333333333333 L 18.0 121.0 L 18.333333333333332 121.66666666666667 L 19.0 122.33333333333333 L 20.0 122.66666666666667 L 21.0 123.0 L 22.0 123.33333333333333 L 23.0 123.66666666666667 L 24.0 124.0 L 25.0 124.0 L 26.0 124.0 L 27.0 124.0 L 28.0 124.0 L 29.0 124.0 L 30.0 124.0 L 31.0 124.0 L 32.0 124.0 L 33.0 124.0 L 34.0 124.0 L 35.0 124.0 L 36.0 124.0 L 37.0 124.0 L 38.0 124.0 L 38.5 124.0 Z" stroke="none" fill="rgb(1,87,155)" />
<path d="M 95.5 120.0 L 96.0 120.0 L 97.0 120.0 L 98.0 120.0 L 99.0 120.0 L 100.0 120.0 L 101.0 120.0 L 102.0 120.0 L 103.0 120.0 L 104.0 120.0 L 105.0 120.0 L 106.0 120.33333333333333 L 107.0 120.66666666666667 L 108.0 120.66666666666667 L 109.0 120.33333333333333 L 110.0 119.66666666666667 L 111.0 119.0 L 112.0 118.0 L 113.0 117.0 L 114.0 116.0 L 114.66666666666667 115.0 L 115.33333333333333 114.0 L 115.66666666666667 113.0 L 116.0 112.0 L 116.33333333333333 111.0 L 116.66666666666667 110.0 L 117.0 109.0 L 116.66666666666667 108.0 L 116.0 107.33333333333333 L 115.0 107.0 L 114.0 107.0 L 113.0 107.0 L 112.0 107.0 L 111.0 107.0 L 110.0 107.0 L 109.0 107.0 L 108.0 107.0 L 107.0 107.0 L 106.0 107.0 L 105.0 107.0 L 104.0 107.0 L 103.0 107.0 L 102.0 107.0 L 101.0 107.0 L 100.0 107.0 L 99.0 107.0 L 98.0 107.0 L 97.0 107.0 L 96.0 106.66666666666667 L 95.0 106.0 L 94.33333333333333 105.0 L 93.66666666666667 104.0 L 93.33333333333333 103.0 L 93.0 102.0 L 93.0 101.0 L 93.0 100.0 L 93.0 99.0 L 93.0 98.0 L 93.0 97.0 L 93.0 96.0 L 93.0 95.0 L 93.0 94.0 L 93.0 93.0 L 93.0 92.0 L 93.0 91.0 L 93.0 90.0 L 93.0 89.0 L 93.0 88.0 L 93.0 87.0 L 92.66666666666667 86.33333333333333 L 92.0 86.0 L 91.0 86.33333333333333 L 90.0 86.66666666666667 L 89.0 87.33333333333333 L 88.0 87.33333333333333 L 87.0 87.0 L 86.33333333333333 86.0 L 86.0 85.0 L 86.0 84.0 L 86.0 83.0 L 86.0 82.0 L 86.0 81.0 L 86.0 80.0 L 86.0 79.0 L 86.0 78.0 L 85.66666666666667 77.0 L 85.0 76.0 L 84.0 75.0 L 83.0 74.33333333333333 L 82.0 74.0 L 81.0 74.0 L 80.0 74.0 L 79.0 74.0 L 78.0 74.0 L 77.0 74.0 L 76.0 74.0 L 75.0 74.0 L 74.0 74.0 L 73.0 74.0 L 72.0 74.0 L 71.0 74.0 L 70.0 74.0 L 69.0 74.0 L 68.0 74.0 L 67.0 74.0 L 66.0 74.0 L 65.0 74.33333333333333 L 64.33333333333333 75.0 L 64.0 76.0 L 64.0 77.0 L 64.0 78.0 L 64.0 79.0 L 64.0 80.0 L 64.0 81.0 L 64.0 82.0 L 64.0 83.0 L 64.0 84.0 L 64.0 85.0 L 64.0 86.0 L 64.0 87.0 L 64.0 88.0 L 64.0 89.0 L 64.0 90.0 L 64.0 91.0 L 64.0 92.0 L 64.0 93.0 L 64.0 94.0 L 64.0 95.0 L 64.0 96.0 L 64.0 97.0 L 64.0 98.0 L 64.0 99.0 L 64.0 100.0 L 64.0 101.0 L 64.0 102.0 L 64.0 103.0 L 64.0 104.0 L 64.0 105.0 L 64.0 106.0 L 64.0 107.0 L 64.0 108.0 L 64.0 109.0 L 64.0 110.0 L 64.0 111.0 L 64.0 112.0 L 64.0 113.0 L 64.0 114.0 L 64.0 115.0 L 64.0 116.0 L 64.0 117.0 L 64.0 118.0 L 64.33333333333333 118.66666666666667 L 65.0 119.0 L 66.0 119.0 L 67.0 119.0 L 68.0 119.0 L 69.0 119.0 L 70.0 119.0 L 71.0 119.0 L 72.0 119.0 L 73.0 119.0 L 74.0 119.0 L 75.0 119.0 L 76.0 119.0 L 77.0 119.0 L 78.0 119.0 L 79.0 119.0 L 80.0 119.0 L 81.0 119.0 L 82.0 119.0 L 83.0 119.0 L 84.0 119.0 L 85.0 119.33333333333333 L 86.0 119.66666666666667 L 87.0 120.0 L 88.0 120.0 L 89.0 120.0 L 90.0 120.0 L 91.0 120.0 L 92.0 120.0 L 93.0 120.0 L 94.0 120.0 L 94.5 120.0 Z" stroke="none" fill="rgb(2,136,209)" />
<path d="M 59.5 119.0 L 60.0 119.0 L 60.666666666666664 118.66666666666667 L 61.0 118.0 L 61.0 117.0 L 61.0 116.0 L 61.0 115.0 L 61.0 114.0 L 61.0 113.0 L 61.0 112.0 L 61.0 111.0 L 61.0 110.0 L 61.0 109.0 L 61.0 108.0 L 61.0 107.0 L 61.0 106.0 L 61.0 105.0 L 61.0 104.0 L 61.0 103.0 L 61.0 102.0 L 61.0 101.0 L 61.0 100.0 L 61.0 99.0 L 61.0 98.0 L 61.0 97.0 L 61.0 96.0 L 61.0 95.0 L 61.0 94.0 L 61.0 93.0 L 61.0 92.0 L 61.0 91.0 L 61.0 90.0 L 61.0 89.0 L 61.0 88.0 L 61.0 87.0 L 61.0 86.0 L 61.0 85.0 L 61.0 84.0 L 61.0 83.0 L 61.0 82.0 L 61.0 81.0 L 61.0 80.0 L 61.0 79.0 L 61.0 78.0 L 61.0 77.0 L 61.0 76.0 L 61.0 75.0 L 60.666666666666664 74.33333333333333 L 60.0 74.0 L 59.0 74.0 L 58.0 74.0 L 57.0 74.0 L 56.0 74.0 L 55.0 74.0 L 54.0 74.0 L 53.0 74.0 L 52.0 74.0 L 51.0 74.0 L 50.0 74.0 L 49.0 74.0 L 48.0 74.0 L 47.0 74.0 L 46.0 74.0 L 45.0 74.0 L 44.0 74.0 L 43.0 74.33333333333333 L 42.0 74.66666666666667 L 41.0 75.33333333333333 L 40.333333333333336 76.0 L 40.0 77.0 L 40.0 78.0 L 40.0 79.0 L 40.0 80.0 L 40.0 81.0 L 40.0 82.0 L 40.0 83.0 L 40.0 84.0 L 40.0 85.0 L 40.0 86.0 L 40.0 87.0 L 40.0 88.0 L 40.0 89.0 L 40.0 90.0 L 40.0 91.0 L 40.0 92.0 L 40.0 93.0 L 40.0 94.0 L 40.0 95.0 L 40.0 96.0 L 40.0 97.0 L 40.0 98.0 L 40.0 99.0 L 40.0 100.0 L 40.0 101.0 L 40.0 102.0 L 40.0 103.0 L 40.0 104.0 L 40.0 105.0 L 40.0 106.0 L 40.0 107.0 L 40.0 108.0 L 40.0 109.0 L 40.0 110.0 L 40.0 111.0 L 40.0 112.0 L 40.0 113.0 L 40.0 114.0 L 40.0 115.0 L 40.0 116.0 L 40.0 117.0 L 40.333333333333336 118.0 L 41.0 118.66666666666667 L 42.0 119.0 L 43.0 119.0 L 44.0 119.0 L 45.0 119.0 L 46.0 119.0 L 47.0 119.0 L 48.0 119.0 L 49.0 119.0 L 50.0 119.0 L 51.0 119.0 L 52.0 119.0 L 53.0 119.0 L 54.0 119.0 L 55.0 119.0 L 56.0 119.0 L 57.0 119.0 L 58.0 119.0 L 58.5 119.0 Z" stroke="none" fill="rgb(2,136,209)" />
<path d="M 57.5 55.0 L 58.0 55.0 L 59.0 55.0 L 60.0 55.0 L 61.0 55.0 L 62.0 55.0 L 63.0 55.0 L 64.0 55.0 L 65.0 55.0 L 66.0 55.0 L 67.0 55.0 L 68.0 55.0 L 69.0 55.0 L 70.0 55.0 L 71.0 55.0 L 72.0 54.666666666666664 L 73.0 54.333333333333336 L 73.66666666666667 53.666666666666664 L 74.0 53.0 L 73.66666666666667 52.0 L 73.33333333333333 51.0 L 73.0 50.0 L 72.66666666666667 49.0 L 72.33333333333333 48.0 L 71.66666666666667 47.0 L 71.33333333333333 46.0 L 71.0 45.0 L 71.0 44.0 L 70.66666666666667 43.0 L 70.33333333333333 42.0 L 70.0 41.0 L 70.0 40.0 L 69.66666666666667 39.0 L 69.33333333333333 38.0 L 69.0 37.0 L 69.0 36.0 L 69.0 35.0 L 69.0 34.0 L 69.0 33.0 L 68.66666666666667 32.0 L 68.33333333333333 31.0 L 68.0 30.0 L 68.0 29.0 L 68.0 28.0 L 68.0 27.0 L 68.0 26.0 L 68.0 25.0 L 68.33333333333333 24.0 L 69.0 23.333333333333332 L 70.0 23.0 L 70.66666666666667 22.666666666666668 L 71.0 22.0 L 71.0 21.0 L 71.33333333333333 20.0 L 72.0 19.333333333333332 L 72.66666666666667 18.666666666666668 L 73.0 18.0 L 73.0 17.0 L 73.0 16.0 L 73.33333333333333 15.0 L 74.0 14.333333333333334 L 75.0 13.666666666666666 L 76.0 13.333333333333334 L 76.66666666666667 12.666666666666666 L 76.66666666666667 12.0 L 76.0 11.333333333333334 L 75.0 11.0 L 74.0 11.0 L 73.0 11.0 L 72.0 10.666666666666666 L 71.0 10.333333333333334 L 70.0 10.0 L 69.0 10.0 L 68.0 10.0 L 67.0 10.0 L 66.0 9.666666666666666 L 65.0 9.333333333333334 L 64.0 9.0 L 63.0 9.0 L 62.0 9.0 L 61.0 8.666666666666666 L 60.0 8.333333333333334 L 59.0 8.0 L 58.0 8.0 L 57.0 8.0 L 56.0 8.333333333333334 L 55.333333333333336 9.0 L 55.333333333333336 10.0 L 55.666666666666664 11.0 L 56.0 12.0 L 56.0 13.0 L 56.0 14.0 L 56.0 15.0 L 56.0 16.0 L 56.0 17.0 L 56.0 18.0 L 56.0 19.0 L 56.0 20.0 L 56.0 21.0 L 56.333333333333336 22.0 L 56.666666666666664 23.0 L 57.0 24.0 L 57.0 25.0 L 57.0 26.0 L 57.0 27.0 L 57.0 28.0 L 57.0 29.0 L 57.0 30.0 L 56.666666666666664 31.0 L 56.333333333333336 32.0 L 56.0 33.0 L 56.0 34.0 L 56.0 35.0 L 56.0 36.0 L 56.0 37.0 L 55.666666666666664 38.0 L 55.333333333333336 39.0 L 55.0 40.0 L 55.0 41.0 L 54.666666666666664 42.0 L 54.333333333333336 43.0 L 54.0 44.0 L 54.0 45.0 L 53.666666666666664 46.0 L 53.333333333333336 47.0 L 52.666666666666664 48.0 L 52.333333333333336 49.0 L 52.0 50.0 L 51.666666666666664 51.0 L 51.333333333333336 52.0 L 51.0 53.0 L 51.333333333333336 53.666666666666664 L 52.0 54.0 L 53.0 54.0 L 54.0 54.0 L 55.0 54.0 L 56.0 54.333333333333336 L 56.5 54.5 Z" stroke="none" fill="rgb(96,125,139)" />
<path d="M 24.5 105.0 L 25.0 105.0 L 26.0 105.0 L 27.0 105.0 L 28.0 104.66666666666667 L 28.666666666666668 104.0 L 29.0 103.0 L 29.0 102.0 L 29.0 101.0 L 29.0 100.0 L 29.0 99.0 L 29.0 98.0 L 29.0 97.0 L 29.0 96.0 L 29.0 95.0 L 29.0 94.0 L 29.0 93.0 L 29.0 92.0 L 29.0 91.0 L 29.0 90.0 L 29.0 89.0 L 29.0 88.0 L 29.0 87.0 L 29.0 86.0 L 29.0 85.0 L 29.0 84.0 L 29.0 83.0 L 29.0 82.0 L 29.0 81.0 L 28.666666666666668 80.33333333333333 L 28.0 80.0 L 27.0 80.0 L 26.0 80.0 L 25.0 80.0 L 24.0 80.0 L 23.0 80.0 L 22.0 80.0 L 21.0 80.0 L 20.0 80.0 L 19.0 80.0 L 18.0 80.0 L 17.0 80.0 L 16.0 80.0 L 15.0 80.0 L 14.0 80.0 L 13.0 80.0 L 12.0 80.0 L 11.0 80.0 L 10.0 80.0 L 9.333333333333334 80.33333333333333 L 9.0 81.0 L 8.666666666666666 82.0 L 8.333333333333334 83.0 L 8.0 84.0 L 8.0 85.0 L 8.0 86.0 L 8.0 87.0 L 8.0 88.0 L 8.0 89.0 L 8.0 90.0 L 8.0 91.0 L 8.0 92.0 L 8.0 93.0 L 8.0 94.0 L 8.0 95.0 L 8.0 96.0 L 8.0 97.0 L 8.0 98.0 L 8.0 99.0 L 8.0 100.0 L 8.0 101.0 L 8.0 102.0 L 8.0 103.0 L 8.333333333333334 104.0 L 9.0 104.66666666666667 L 10.0 105.0 L 11.0 105.0 L 12.0 105.0 L 13.0 105.0 L 14.0 105.0 L 15.0 105.0 L 16.0 105.0 L 17.0 105.0 L 18.0 105.0 L 19.0 105.0 L 20.0 105.0 L 21.0 105.0 L 22.0 105.0 L 23.0 105.0 L 23.5 105.0 Z" stroke="none" fill="rgb(186,226,253)" />
<path d="M 59.0 105.5 L 59.0 105.0 L 59.0 104.0 L 59.0 103.0 L 59.0 102.0 L 59.0 101.0 L 59.0 100.0 L 59.0 99.0 L 59.0 98.0 L 59.0 97.0 L 59.0 96.0 L 59.0 95.0 L 59.0 94.0 L 59.0 93.0 L 59.0 92.0 L 59.0 91.0 L 59.0 90.0 L 59.0 89.0 L 59.0 88.0 L 59.0 87.0 L 59.0 86.0 L 59.0 85.0 L 59.0 84.0 L 59.0 83.0 L 59.0 82.0 L 59.0 81.0 L 59.0 80.0 L 59.0 79.0 L 58.666666666666664 78.0 L 58.0 77.33333333333333 L 57.0 77.0 L 56.0 77.0 L 55.0 77.0 L 54.0 77.0 L 53.0 77.0 L 52.0 77.0 L 51.0 77.0 L 50.0 77.0 L 49.0 77.0 L 48.0 77.0 L 47.0 77.0 L 46.0 77.0 L 45.0 77.0 L 44.0 77.0 L 43.0 77.33333333333333 L 42.333333333333336 78.0 L 42.0 79.0 L 42.0 80.0 L 42.0 81.0 L 42.0 82.0 L 42.0 83.0 L 42.0 84.0 L 42.0 85.0 L 42.0 86.0 L 42.0 87.0 L 42.0 88.0 L 42.0 89.0 L 42.0 90.0 L 42.0 91.0 L 42.0 92.0 L 42.0 93.0 L 42.0 94.0 L 42.0 95.0 L 42.0 96.0 L 42.0 97.0 L 42.0 98.0 L 42.0 99.0 L 42.0 100.0 L 42.0 101.0 L 42.0 102.0 L 42.0 103.0 L 42.0 104.0 L 42.0 105.0 L 42.333333333333336 106.0 L 43.0 106.66666666666667 L 44.0 107.0 L 45.0 107.0 L 46.0 107.0 L 47.0 107.0 L 48.0 107.0 L 49.0 107.0 L 50.0 107.0 L 51.0 107.0 L 52.0 107.0 L 53.0 107.0 L 54.0 107.0 L 55.0 107.0 L 56.0 107.0 L 57.0 107.0 L 58.0 106.66666666666667 L 58.5 106.5 Z" stroke="none" fill="rgb(55,71,79)" />
<path d="M 78.5 107.0 L 79.0 107.0 L 80.0 107.0 L 81.0 107.0 L 82.0 106.66666666666667 L 82.66666666666667 106.0 L 83.0 105.0 L 83.0 104.0 L 83.0 103.0 L 83.0 102.0 L 83.0 101.0 L 83.0 100.0 L 83.0 99.0 L 83.0 98.0 L 83.0 97.0 L 83.0 96.0 L 83.0 95.0 L 83.0 94.0 L 83.0 93.0 L 83.0 92.0 L 83.0 91.0 L 83.0 90.0 L 83.0 89.0 L 83.0 88.0 L 83.0 87.0 L 83.0 86.0 L 83.0 85.0 L 83.0 84.0 L 83.0 83.0 L 83.0 82.0 L 83.0 81.0 L 83.0 80.0 L 83.0 79.0 L 82.66666666666667 78.0 L 82.0 77.33333333333333 L 81.0 77.0 L 80.0 77.0 L 79.0 77.0 L 78.0 77.0 L 77.0 77.0 L 76.0 77.0 L 75.0 77.0 L 74.0 77.0 L 73.0 77.0 L 72.0 77.0 L 71.0 77.0 L 70.0 77.0 L 69.0 77.0 L 68.0 77.0 L 67.0 77.33333333333333 L 66.33333333333333 78.0 L 66.0 79.0 L 66.0 80.0 L 66.0 81.0 L 66.0 82.0 L 66.0 83.0 L 66.0 84.0 L 66.0 85.0 L 66.0 86.0 L 66.0 87.0 L 66.0 88.0 L 66.0 89.0 L 66.0 90.0 L 66.0 91.0 L 66.0 92.0 L 66.0 93.0 L 66.0 94.0 L 66.0 95.0 L 66.0 96.0 L 66.0 97.0 L 66.0 98.0 L 66.0 99.0 L 66.0 100.0 L 66.0 101.0 L 66.0 102.0 L 66.0 103.0 L 66.0 104.0 L 66.0 105.0 L 66.33333333333333 106.0 L 67.0 106.66666666666667 L 68.0 107.0 L 69.0 107.0 L 70.0 107.0 L 71.0 107.0 L 72.0 107.0 L 73.0 107.0 L 74.0 107.0 L 75.0 107.0 L 76.0 107.0 L 77.0 107.0 L 77.5 107.0 Z" stroke="none" fill="rgb(55,71,79)" />
<path d="M 26.5 120.0 L 27.0 120.0 L 28.0 120.0 L 29.0 120.0 L 30.0 120.0 L 31.0 120.0 L 32.0 120.0 L 33.0 120.0 L 34.0 120.0 L 35.0 120.0 L 36.0 120.0 L 37.0 119.66666666666667 L 37.666666666666664 119.0 L 38.0 118.0 L 38.0 117.0 L 38.0 116.0 L 38.0 115.0 L 38.0 114.0 L 38.0 113.0 L 38.0 112.0 L 38.0 111.0 L 38.0 110.0 L 38.0 109.0 L 38.0 108.0 L 38.0 107.0 L 38.0 106.0 L 38.0 105.0 L 38.0 104.0 L 38.0 103.0 L 38.0 102.0 L 38.0 101.0 L 38.0 100.0 L 38.0 99.0 L 38.0 98.0 L 38.0 97.0 L 38.0 96.0 L 38.0 95.0 L 38.0 94.0 L 38.0 93.0 L 38.0 92.0 L 38.0 91.0 L 38.0 90.0 L 38.0 89.0 L 37.666666666666664 88.0 L 37.0 87.33333333333333 L 36.0 86.66666666666667 L 35.0 86.33333333333333 L 34.0 85.66666666666667 L 33.0 85.33333333333333 L 32.0 85.0 L 31.333333333333332 85.33333333333333 L 31.0 86.0 L 31.0 87.0 L 31.0 88.0 L 31.0 89.0 L 31.0 90.0 L 31.0 91.0 L 31.0 92.0 L 31.0 93.0 L 31.0 94.0 L 31.0 95.0 L 31.0 96.0 L 31.0 97.0 L 31.0 98.0 L 31.0 99.0 L 31.0 100.0 L 31.0 101.0 L 31.0 102.0 L 31.0 103.0 L 31.0 104.0 L 30.666666666666668 105.0 L 30.0 106.0 L 29.0 107.0 L 28.0 107.66666666666667 L 27.0 108.0 L 26.0 108.0 L 25.0 108.0 L 24.0 108.0 L 23.0 108.0 L 22.0 108.0 L 21.0 108.0 L 20.0 108.0 L 19.0 108.0 L 18.0 108.0 L 17.0 108.0 L 16.0 108.0 L 15.0 108.0 L 14.0 108.0 L 13.0 108.0 L 12.0 108.0 L 11.0 108.0 L 10.0 108.0 L 9.0 108.0 L 8.333333333333334 108.33333333333333 L 8.0 109.0 L 8.0 110.0 L 8.333333333333334 111.0 L 8.666666666666666 112.0 L 9.333333333333334 113.0 L 9.666666666666666 114.0 L 10.333333333333334 115.0 L 11.0 116.0 L 12.0 117.0 L 13.0 118.0 L 14.0 119.0 L 15.0 119.66666666666667 L 16.0 120.33333333333333 L 17.0 120.66666666666667 L 18.0 120.66666666666667 L 19.0 120.33333333333333 L 20.0 120.0 L 21.0 120.0 L 22.0 120.0 L 23.0 120.0 L 24.0 120.0 L 25.0 120.0 L 25.5 120.0 Z" stroke="none" fill="rgb(2,136,209)" />
<path d="M 104.5 104.0 L 105.0 104.0 L 106.0 104.0 L 107.0 104.0 L 108.0 104.0 L 109.0 104.0 L 110.0 104.0 L 111.0 104.0 L 112.0 104.0 L 113.0 104.0 L 114.0 104.0 L 115.0 104.0 L 116.0 104.0 L 116.66666666666667 103.66666666666667 L 117.0 103.0 L 117.0 102.0 L 117.0 101.0 L 117.0 100.0 L 117.0 99.0 L 117.0 98.0 L 117.0 97.0 L 117.0 96.0 L 117.0 95.0 L 117.0 94.0 L 117.0 93.0 L 117.0 92.0 L 117.0 91.0 L 117.0 90.0 L 117.0 89.0 L 117.0 88.0 L 117.0 87.0 L 117.0 86.0 L 117.0 85.0 L 117.0 84.0 L 117.0 83.0 L 117.0 82.0 L 117.0 81.0 L 116.66666666666667 80.33333333333333 L 116.0 80.0 L 115.0 80.0 L 114.0 80.0 L 113.0 80.0 L 112.0 80.0 L 111.0 80.0 L 110.0 80.0 L 109.0 80.0 L 108.0 80.0 L 107.0 80.0 L 106.0 80.0 L 105.0 80.0 L 104.0 80.0 L 103.0 80.0 L 102.0 80.0 L 101.0 80.0 L 100.0 80.0 L 99.0 80.0 L 98.0 80.0 L 97.0 80.0 L 96.33333333333333 80.33333333333333 L 96.0 81.0 L 96.0 82.0 L 96.0 83.0 L 96.0 84.0 L 96.0 85.0 L 96.0 86.0 L 96.0 87.0 L 96.0 88.0 L 96.0 89.0 L 96.0 90.0 L 96.0 91.0 L 96.0 92.0 L 96.0 93.0 L 96.0 94.0 L 96.0 95.0 L 96.0 96.0 L 96.0 97.0 L 96.0 98.0 L 96.0 99.0 L 96.0 100.0 L 96.0 101.0 L 96.0 102.0 L 96.0 103.0 L 96.33333333333333 103.66666666666667 L 97.0 104.0 L 98.0 104.0 L 99.0 104.0 L 100.0 104.0 L 101.0 104.0 L 102.0 104.0 L 103.0 104.0 L 103.5 104.0 Z" stroke="none" fill="rgb(186,226,253)" />
<path d="M 103.5 66.0 L 104.0 66.0 L 104.66666666666667 65.66666666666667 L 105.0 65.0 L 104.66666666666667 64.0 L 104.0 63.333333333333336 L 103.0 63.0 L 102.0 62.666666666666664 L 101.0 62.333333333333336 L 100.0 62.0 L 99.0 62.0 L 98.0 62.0 L 97.0 62.0 L 96.0 62.0 L 95.0 62.0 L 94.0 62.0 L 93.0 62.0 L 92.0 62.0 L 91.0 62.0 L 90.0 62.0 L 89.0 62.0 L 88.0 62.0 L 87.0 62.0 L 86.0 62.0 L 85.0 62.0 L 84.0 62.0 L 83.0 62.0 L 82.0 62.0 L 81.0 62.0 L 80.0 62.0 L 79.0 62.0 L 78.0 62.0 L 77.0 62.0 L 76.0 62.0 L 75.0 62.0 L 74.0 62.0 L 73.0 62.0 L 72.0 62.0 L 71.0 62.0 L 70.0 62.0 L 69.0 62.0 L 68.0 62.0 L 67.0 62.0 L 66.0 62.0 L 65.0 62.0 L 64.0 62.0 L 63.0 62.0 L 62.0 62.0 L 61.0 62.0 L 60.0 62.0 L 59.0 62.0 L 58.0 62.0 L 57.0 62.0 L 56.0 62.0 L 55.0 62.0 L 54.0 62.0 L 53.0 62.0 L 52.0 62.0 L 51.0 62.0 L 50.0 62.0 L 49.0 62.0 L 48.0 62.0 L 47.0 62.0 L 46.0 62.0 L 45.0 62.0 L 44.0 62.0 L 43.0 62.0 L 42.0 62.0 L 41.0 62.0 L 40.0 62.0 L 39.0 62.0 L 38.0 62.0 L 37.0 62.0 L 36.0 62.0 L 35.0 62.0 L 34.0 62.0 L 33.0 62.0 L 32.0 62.0 L 31.0 62.0 L 30.0 62.0 L 29.0 62.0 L 28.0 62.0 L 27.0 62.0 L 26.0 62.0 L 25.0 62.0 L 24.0 62.0 L 23.0 62.333333333333336 L 22.0 62.666666666666664 L 21.333333333333332 63.333333333333336 L 21.0 64.0 L 21.333333333333332 64.66666666666667 L 22.0 65.0 L 23.0 65.0 L 24.0 65.0 L 25.0 65.0 L 26.0 65.0 L 27.0 65.0 L 28.0 65.0 L 29.0 65.0 L 30.0 65.0 L 31.0 65.0 L 32.0 65.0 L 33.0 65.0 L 34.0 65.0 L 35.0 65.0 L 36.0 65.0 L 37.0 65.0 L 38.0 65.33333333333333 L 39.0 66.0 L 40.0 66.66666666666667 L 41.0 66.66666666666667 L 42.0 66.33333333333333 L 43.0 66.0 L 44.0 66.0 L 45.0 66.0 L 46.0 66.0 L 47.0 66.0 L 48.0 66.0 L 49.0 66.0 L 50.0 66.0 L 51.0 66.0 L 52.0 66.0 L 53.0 66.0 L 54.0 66.0 L 55.0 66.0 L 56.0 66.0 L 57.0 66.0 L 58.0 66.0 L 59.0 66.0 L 60.0 66.0 L 61.0 66.0 L 62.0 66.0 L 63.0 66.0 L 64.0 66.0 L 65.0 66.0 L 66.0 66.0 L 67.0 66.0 L 68.0 66.0 L 69.0 66.0 L 70.0 66.0 L 71.0 66.0 L 72.0 66.0 L 73.0 66.0 L 74.0 66.0 L 75.0 66.0 L 76.0 66.0 L 77.0 66.0 L 78.0 66.0 L 79.0 66.0 L 80.0 66.0 L 81.0 66.0 L 82.0 66.0 L 83.0 66.0 L 84.0 66.0 L 85.0 66.0 L 86.0 66.0 L 87.0 66.0 L 88.0 66.0 L 89.0 66.0 L 90.0 66.0 L 91.0 66.0 L 92.0 66.0 L 93.0 66.0 L 94.0 66.0 L 95.0 66.0 L 96.0 66.0 L 97.0 66.0 L 98.0 66.0 L 99.0 66.0 L 100.0 66.0 L 101.0 66.0 L 102.0 66.0 L 102.5 66.0 Z" stroke="none" fill="rgb(130,174,192)" />
<path d="M 46.5 104.0 L 47.0 104.0 L 48.0 104.0 L 49.0 104.0 L 50.0 104.0 L 51.0 104.0 L 52.0 104.0 L 53.0 104.0 L 54.0 104.0 L 55.0 104.0 L 56.0 104.0 L 56.666666666666664 103.66666666666667 L 57.0 103.0 L 57.0 102.0 L 57.0 101.0 L 57.0 100.0 L 57.0 99.0 L 57.0 98.0 L 57.0 97.0 L 57.0 96.0 L 57.0 95.0 L 57.0 94.0 L 57.0 93.0 L 57.0 92.0 L 57.0 91.0 L 57.0 90.0 L 57.0 89.0 L 57.0 88.0 L 57.0 87.0 L 57.0 86.0 L 57.0 85.0 L 57.0 84.0 L 57.0 83.0 L 57.0 82.0 L 57.0 81.0 L 56.666666666666664 80.33333333333333 L 56.0 80.0 L 55.0 80.0 L 54.0 80.0 L 53.0 80.0 L 52.0 80.0 L 51.0 80.0 L 50.0 80.0 L 49.0 80.0 L 48.0 80.0 L 47.0 80.0 L 46.0 80.0 L 45.0 80.0 L 44.333333333333336 80.33333333333333 L 44.0 81.0 L 44.0 82.0 L 44.0 83.0 L 44.0 84.0 L 44.0 85.0 L 44.0 86.0 L 44.0 87.0 L 44.0 88.0 L 44.0 89.0 L 44.0 90.0 L 44.0 91.0 L 44.0 92.0 L 44.0 93.0 L 44.0 94.0 L 44.0 95.0 L 44.0 96.0 L 44.0 97.0 L 44.0 98.0 L 44.0 99.0 L 44.0 100.0 L 44.0 101.0 L 44.0 102.0 L 44.0 103.0 L 44.333333333333336 103.66666666666667 L 45.0 104.0 L 45.5 104.0 Z" stroke="none" fill="rgb(186,226,253)" />
<path d="M 72.5 104.0 L 73.0 104.0 L 74.0 104.0 L 75.0 104.0 L 76.0 104.0 L 77.0 104.0 L 78.0 104.0 L 79.0 104.0 L 80.0 104.0 L 80.66666666666667 103.66666666666667 L 81.0 103.0 L 81.0 102.0 L 81.0 101.0 L 81.0 100.0 L 81.0 99.0 L 81.0 98.0 L 81.0 97.0 L 81.0 96.0 L 81.0 95.0 L 81.0 94.0 L 81.0 93.0 L 81.0 92.0 L 81.0 91.0 L 81.0 90.0 L 81.0 89.0 L 81.0 88.0 L 81.0 87.0 L 81.0 86.0 L 81.0 85.0 L 81.0 84.0 L 81.0 83.0 L 81.0 82.0 L 81.0 81.0 L 80.66666666666667 80.33333333333333 L 80.0 80.0 L 79.0 80.0 L 78.0 80.0 L 77.0 80.0 L 76.0 80.0 L 75.0 80.0 L 74.0 80.0 L 73.0 80.0 L 72.0 80.0 L 71.0 80.0 L 70.0 80.0 L 69.0 80.0 L 68.33333333333333 80.33333333333333 L 68.0 81.0 L 68.0 82.0 L 68.0 83.0 L 68.0 84.0 L 68.0 85.0 L 68.0 86.0 L 68.0 87.0 L 68.0 88.0 L 68.0 89.0 L 68.0 90.0 L 68.0 91.0 L 68.0 92.0 L 68.0 93.0 L 68.0 94.0 L 68.0 95.0 L 68.0 96.0 L 68.0 97.0 L 68.0 98.0 L 68.0 99.0 L 68.0 100.0 L 68.0 101.0 L 68.0 102.0 L 68.0 103.0 L 68.33333333333333 103.66666666666667 L 69.0 104.0 L 70.0 104.0 L 71.0 104.0 L 71.5 104.0 Z" stroke="none" fill="rgb(186,226,253)" />
<path d="M 95.5 107.0 L 96.0 107.0 L 97.0 107.0 L 98.0 107.0 L 99.0 107.0 L 100.0 107.0 L 101.0 107.0 L 102.0 107.0 L 103.0 107.0 L 104.0 107.0 L 105.0 107.0 L 106.0 107.0 L 107.0 107.0 L 108.0 107.0 L 109.0 107.0 L 110.0 107.0 L 111.0 107.0 L 112.0 107.0 L 113.0 107.0 L 114.0 107.0 L 115.0 107.0 L 116.0 107.0 L 116.66666666666667 106.66666666666667 L 117.0 106.0 L 116.66666666666667 105.0 L 116.0 104.33333333333333 L 115.0 104.0 L 114.0 104.0 L 113.0 104.0 L 112.0 104.0 L 111.0 104.0 L 110.0 104.0 L 109.0 104.0 L 108.0 104.0 L 107.0 104.0 L 106.0 104.0 L 105.0 104.0 L 104.0 104.0 L 103.0 104.0 L 102.0 104.0 L 101.0 104.0 L 100.0 104.0 L 99.0 104.0 L 98.0 104.0 L 97.0 103.66666666666667 L 96.33333333333333 103.0 L 96.0 102.0 L 96.0 101.0 L 96.0 100.0 L 96.0 99.0 L 96.0 98.0 L 96.0 97.0 L 96.0 96.0 L 96.0 95.0 L 96.0 94.0 L 96.0 93.0 L 96.0 92.0 L 96.0 91.0 L 96.0 90.0 L 96.0 89.0 L 96.0 88.0 L 96.0 87.0 L 96.0 86.0 L 96.0 85.0 L 96.0 84.0 L 96.0 83.0 L 96.0 82.0 L 96.33333333333333 81.0 L 97.0 80.33333333333333 L 98.0 80.0 L 99.0 80.0 L 100.0 80.0 L 101.0 80.0 L 102.0 80.0 L 103.0 80.0 L 104.0 80.0 L 105.0 80.0 L 106.0 80.0 L 107.0 80.0 L 108.0 80.0 L 109.0 80.0 L 110.0 80.0 L 111.0 80.0 L 112.0 80.0 L 113.0 80.0 L 114.0 80.0 L 115.0 80.0 L 116.0 80.0 L 116.66666666666667 79.66666666666667 L 117.0 79.0 L 117.0 78.0 L 116.66666666666667 77.33333333333333 L 116.0 77.0 L 115.0 77.0 L 114.0 77.0 L 113.0 77.0 L 112.0 77.0 L 111.0 77.0 L 110.0 77.0 L 109.0 77.0 L 108.0 77.0 L 107.0 77.0 L 106.0 77.0 L 105.0 77.0 L 104.0 77.0 L 103.0 77.0 L 102.0 77.0 L 101.0 77.0 L 100.0 77.0 L 99.0 77.0 L 98.0 77.0 L 97.0 77.0 L 96.0 77.33333333333333 L 95.0 78.0 L 94.33333333333333 79.0 L 94.0 80.0 L 94.0 81.0 L 94.0 82.0 L 94.0 83.0 L 94.0 84.0 L 93.66666666666667 85.0 L 93.33333333333333 86.0 L 93.0 87.0 L 93.0 88.0 L 93.0 89.0 L 93.0 90.0 L 93.0 91.0 L 93.0 92.0 L 93.0 93.0 L 93.0 94.0 L 93.0 95.0 L 93.0 96.0 L 93.0 97.0 L 93.0 98.0 L 93.0 99.0 L 93.0 100.0 L 93.0 101.0 L 93.0 102.0 L 93.0 103.0 L 93.33333333333333 104.0 L 93.66666666666667 105.0 L 94.33333333333333 106.0 L 94.5 106.5 Z" stroke="none" fill="rgb(55,71,79)" />
<path d="M 56.5 62.0 L 57.0 62.0 L 58.0 62.0 L 59.0 62.0 L 60.0 62.0 L 61.0 62.0 L 62.0 62.0 L 63.0 62.0 L 64.0 62.0 L 65.0 62.0 L 66.0 62.0 L 67.0 62.0 L 68.0 62.0 L 69.0 62.0 L 70.0 62.0 L 71.0 62.0 L 72.0 62.0 L 73.0 62.0 L 74.0 62.0 L 75.0 62.0 L 76.0 62.0 L 77.0 62.0 L 78.0 62.0 L 79.0 62.0 L 80.0 62.0 L 81.0 62.0 L 82.0 62.0 L 83.0 62.0 L 84.0 62.0 L 85.0 62.0 L 86.0 62.0 L 87.0 62.0 L 88.0 62.0 L 88.66666666666667 61.666666666666664 L 89.0 61.0 L 88.66666666666667 60.0 L 88.33333333333333 59.0 L 87.66666666666667 58.333333333333336 L 87.0 58.0 L 86.0 58.0 L 85.0 58.0 L 84.0 58.0 L 83.0 58.0 L 82.0 58.0 L 81.0 58.0 L 80.0 58.0 L 79.0 58.0 L 78.0 58.0 L 77.0 58.0 L 76.0 58.0 L 75.0 58.0 L 74.0 58.0 L 73.0 58.0 L 72.0 58.0 L 71.0 58.0 L 70.0 58.0 L 69.0 58.0 L 68.0 58.0 L 67.0 58.0 L 66.0 58.0 L 65.0 58.0 L 64.0 58.0 L 63.0 58.0 L 62.0 58.0 L 61.0 58.0 L 60.0 58.0 L 59.0 58.0 L 58.0 58.0 L 57.0 58.0 L 56.0 58.0 L 55.0 58.0 L 54.0 58.0 L 53.0 58.0 L 52.0 58.0 L 51.0 58.0 L 50.0 58.0 L 49.0 58.0 L 48.0 58.0 L 47.0 58.0 L 46.0 58.0 L 45.0 58.0 L 44.0 58.0 L 43.0 58.0 L 42.0 58.0 L 41.0 58.0 L 40.0 58.0 L 39.0 58.0 L 38.0 58.0 L 37.0 58.333333333333336 L 36.333333333333336 59.0 L 36.0 60.0 L 36.0 61.0 L 36.333333333333336 61.666666666666664 L 37.0 62.0 L 38.0 62.0 L 39.0 62.0 L 40.0 62.0 L 41.0 62.0 L 42.0 62.0 L 43.0 62.0 L 44.0 62.0 L 45.0 62.0 L 46.0 62.0 L 47.0 62.0 L 48.0 62.0 L 49.0 62.0 L 50.0 62.0 L 51.0 62.0 L 52.0 62.0 L 53.0 62.0 L 54.0 62.0 L 55.0 62.0 L 55.5 62.0 Z" stroke="none" fill="rgb(96,125,139)" />
<path d="M 24.5 108.0 L 25.0 108.0 L 26.0 108.0 L 27.0 108.0 L 28.0 108.0 L 29.0 107.66666666666667 L 30.0 107.0 L 30.666666666666668 106.0 L 31.0 105.0 L 31.0 104.0 L 31.0 103.0 L 31.0 102.0 L 31.0 101.0 L 31.0 100.0 L 31.0 99.0 L 31.0 98.0 L 31.0 97.0 L 31.0 96.0 L 31.0 95.0 L 31.0 94.0 L 31.0 93.0 L 31.0 92.0 L 31.0 91.0 L 31.0 90.0 L 31.0 89.0 L 31.0 88.0 L 31.0 87.0 L 31.333333333333332 86.0 L 31.666666666666668 85.0 L 32.0 84.0 L 31.666666666666668 83.0 L 31.333333333333332 82.0 L 31.0 81.0 L 31.0 80.0 L 30.666666666666668 79.0 L 30.0 78.0 L 29.0 77.33333333333333 L 28.0 77.0 L 27.0 77.0 L 26.0 77.0 L 25.0 77.0 L 24.0 77.0 L 23.0 77.0 L 22.0 77.0 L 21.0 77.0 L 20.0 77.0 L 19.0 77.0 L 18.0 77.0 L 17.0 77.0 L 16.0 77.0 L 15.0 77.0 L 14.0 77.0 L 13.0 77.0 L 12.0 77.0 L 11.0 77.0 L 10.0 77.0 L 9.333333333333334 77.33333333333333 L 9.0 78.0 L 9.333333333333334 79.0 L 10.0 79.66666666666667 L 11.0 80.0 L 12.0 80.0 L 13.0 80.0 L 14.0 80.0 L 15.0 80.0 L 16.0 80.0 L 17.0 80.0 L 18.0 80.0 L 19.0 80.0 L 20.0 80.0 L 21.0 80.0 L 22.0 80.0 L 23.0 80.0 L 24.0 80.0 L 25.0 80.0 L 26.0 80.0 L 27.0 80.0 L 28.0 80.33333333333333 L 28.666666666666668 81.0 L 29.0 82.0 L 29.0 83.0 L 29.0 84.0 L 29.0 85.0 L 29.0 86.0 L 29.0 87.0 L 29.0 88.0 L 29.0 89.0 L 29.0 90.0 L 29.0 91.0 L 29.0 92.0 L 29.0 93.0 L 29.0 94.0 L 29.0 95.0 L 29.0 96.0 L 29.0 97.0 L 29.0 98.0 L 29.0 99.0 L 29.0 100.0 L 29.0 101.0 L 29.0 102.0 L 28.666666666666668 103.0 L 28.0 104.0 L 27.0 104.66666666666667 L 26.0 105.0 L 25.0 105.0 L 24.0 105.0 L 23.0 105.0 L 22.0 105.0 L 21.0 105.0 L 20.0 105.0 L 19.0 105.0 L 18.0 105.0 L 17.0 105.0 L 16.0 105.0 L 15.0 105.0 L 14.0 105.0 L 13.0 105.0 L 12.0 105.0 L 11.0 105.0 L 10.0 105.0 L 9.0 105.0 L 8.333333333333334 105.33333333333333 L 8.0 106.0 L 8.333333333333334 107.0 L 9.0 107.66666666666667 L 10.0 108.0 L 11.0 108.0 L 12.0 108.0 L 13.0 108.0 L 14.0 108.0 L 15.0 108.0 L 16.0 108.0 L 17.0 108.0 L 18.0 108.0 L 19.0 108.0 L 20.0 108.0 L 21.0 108.0 L 22.0 108.0 L 23.0 108.0 L 23.5 108.0 Z" stroke="none" fill="rgb(55,71,79)" />
<path d="M 71.5 25.5 L 72.0 25.666666666666668 L 73.0 26.333333333333332 L 74.0 26.666666666666668 L 75.0 27.0 L 76.0 27.0 L 77.0 27.0 L 78.0 26.666666666666668 L 79.0 26.333333333333332 L 80.0 26.0 L 81.0 26.0 L 82.0 26.333333333333332 L 82.66666666666667 27.0 L 83.33333333333333 27.666666666666668 L 84.0 28.333333333333332 L 85.0 28.666666666666668 L 86.0 29.0 L 87.0 29.0 L 88.0 29.0 L 89.0 29.0 L 90.0 29.0 L 91.0 28.666666666666668 L 91.66666666666667 28.0 L 92.33333333333333 27.0 L 93.0 26.0 L 93.66666666666667 25.0 L 94.0 24.0 L 93.66666666666667 23.0 L 93.33333333333333 22.0 L 92.66666666666667 21.0 L 92.0 20.0 L 91.0 19.333333333333332 L 90.0 19.0 L 89.0 19.333333333333332 L 88.0 20.0 L 87.0 20.666666666666668 L 86.0 21.333333333333332 L 85.0 21.333333333333332 L 84.33333333333333 21.0 L 83.66666666666667 20.0 L 83.0 19.0 L 82.0 18.0 L 81.0 17.333333333333332 L 80.0 16.666666666666668 L 79.0 16.333333333333332 L 78.0 16.0 L 77.33333333333333 16.333333333333332 L 76.66666666666667 17.0 L 76.0 17.666666666666668 L 75.0 18.333333333333332 L 74.0 18.666666666666668 L 73.0 19.0 L 72.0 19.0 L 71.33333333333333 19.333333333333332 L 71.0 20.0 L 71.0 21.0 L 70.66666666666667 22.0 L 70.33333333333333 23.0 L 70.33333333333333 24.0 L 70.5 24.5 Z" stroke="none" fill="rgb(130,174,192)" />
<path d="M 46.5 20.5 L 47.0 20.666666666666668 L 48.0 21.0 L 49.0 21.333333333333332 L 50.0 21.666666666666668 L 51.0 22.0 L 52.0 21.666666666666668 L 53.0 21.333333333333332 L 54.0 20.666666666666668 L 55.0 20.333333333333332 L 55.666666666666664 19.666666666666668 L 56.0 19.0 L 56.0 18.0 L 56.0 17.0 L 56.0 16.0 L 56.0 15.0 L 56.0 14.0 L 55.666666666666664 13.0 L 55.0 12.0 L 54.0 11.333333333333334 L 53.0 10.666666666666666 L 52.0 10.333333333333334 L 51.0 10.0 L 50.333333333333336 10.333333333333334 L 50.0 11.0 L 50.333333333333336 12.0 L 50.333333333333336 13.0 L 50.0 13.666666666666666 L 49.0 14.333333333333334 L 48.0 14.333333333333334 L 47.0 14.0 L 46.0 13.0 L 45.0 12.0 L 44.0 11.0 L 43.0 10.0 L 42.0 9.333333333333334 L 41.0 9.0 L 40.333333333333336 9.333333333333334 L 39.666666666666664 10.0 L 39.0 10.666666666666666 L 38.0 11.333333333333334 L 37.0 11.666666666666666 L 36.0 12.0 L 35.0 12.0 L 34.333333333333336 12.333333333333334 L 34.0 13.0 L 34.0 14.0 L 34.0 15.0 L 34.0 16.0 L 34.333333333333336 17.0 L 35.0 18.0 L 36.0 18.666666666666668 L 37.0 19.0 L 38.0 19.0 L 39.0 19.0 L 40.0 19.0 L 41.0 19.0 L 42.0 18.666666666666668 L 43.0 18.333333333333332 L 44.0 18.333333333333332 L 45.0 19.0 L 45.5 19.5 Z" stroke="none" fill="rgb(130,174,192)" />
<path d="M 105.5 31.0 L 106.0 31.333333333333332 L 107.0 31.666666666666668 L 108.0 32.0 L 109.0 32.0 L 110.0 32.333333333333336 L 111.0 32.666666666666664 L 112.0 33.0 L 113.0 33.0 L 114.0 33.0 L 115.0 33.333333333333336 L 116.0 33.666666666666664 L 117.0 34.0 L 118.0 34.0 L 119.0 34.0 L 120.0 34.333333333333336 L 121.0 34.666666666666664 L 122.0 35.0 L 123.0 35.0 L 123.66666666666667 34.666666666666664 L 124.0 34.0 L 124.0 33.0 L 124.0 32.0 L 124.0 31.0 L 123.66666666666667 30.333333333333332 L 123.0 29.666666666666668 L 122.0 29.333333333333332 L 121.0 29.0 L 120.0 29.0 L 119.0 29.0 L 118.0 28.666666666666668 L 117.0 28.333333333333332 L 116.0 28.0 L 115.0 28.0 L 114.0 27.666666666666668 L 113.0 27.333333333333332 L 112.0 27.0 L 111.0 27.0 L 110.0 27.0 L 109.0 26.666666666666668 L 108.0 26.333333333333332 L 107.0 26.0 L 106.0 26.0 L 105.0 25.666666666666668 L 104.0 25.333333333333332 L 103.0 25.0 L 102.0 25.0 L 101.0 25.0 L 100.0 24.666666666666668 L 99.0 24.333333333333332 L 98.0 24.0 L 97.0 24.333333333333332 L 96.0 24.333333333333332 L 95.0 24.333333333333332 L 94.0 24.333333333333332 L 93.0 25.0 L 92.33333333333333 26.0 L 92.0 27.0 L 92.33333333333333 28.0 L 93.0 28.666666666666668 L 94.0 29.0 L 95.0 29.0 L 96.0 29.0 L 97.0 29.333333333333332 L 98.0 29.666666666666668 L 99.0 30.0 L 100.0 30.0 L 101.0 30.333333333333332 L 102.0 30.666666666666668 L 103.0 31.0 L 104.0 31.0 L 104.5 31.0 Z" stroke="none" fill="rgb(158,158,158)" />
<path d="M 17.5 12.0 L 18.0 12.0 L 19.0 12.333333333333334 L 20.0 12.666666666666666 L 21.0 13.0 L 22.0 13.0 L 23.0 13.333333333333334 L 24.0 13.666666666666666 L 25.0 14.0 L 26.0 14.0 L 27.0 14.0 L 28.0 14.333333333333334 L 29.0 14.666666666666666 L 30.0 15.0 L 31.0 15.0 L 32.0 15.333333333333334 L 33.0 15.666666666666666 L 33.666666666666664 15.666666666666666 L 34.0 15.0 L 34.0 14.0 L 34.0 13.0 L 34.0 12.0 L 33.666666666666664 11.0 L 33.0 10.333333333333334 L 32.0 10.0 L 31.0 9.666666666666666 L 30.0 9.333333333333334 L 29.0 9.0 L 28.0 9.0 L 27.0 8.666666666666666 L 26.0 8.333333333333334 L 25.0 8.0 L 24.0 8.0 L 23.0 8.0 L 22.0 7.666666666666667 L 21.0 7.333333333333333 L 20.0 7.0 L 19.0 7.0 L 18.0 7.0 L 17.0 6.666666666666667 L 16.0 6.333333333333333 L 15.0 6.0 L 14.0 6.0 L 13.0 5.666666666666667 L 12.0 5.333333333333333 L 11.0 5.0 L 10.0 5.0 L 9.0 5.0 L 8.0 4.666666666666667 L 7.0 4.333333333333333 L 6.0 4.0 L 5.0 4.0 L 4.333333333333333 4.333333333333333 L 4.0 5.0 L 4.0 6.0 L 4.0 7.0 L 4.0 8.0 L 4.333333333333333 8.666666666666666 L 5.0 9.333333333333334 L 6.0 9.666666666666666 L 7.0 10.0 L 8.0 10.0 L 9.0 10.333333333333334 L 10.0 10.666666666666666 L 11.0 11.0 L 12.0 11.0 L 13.0 11.0 L 14.0 11.333333333333334 L 15.0 11.666666666666666 L 16.0 12.0 L 16.5 12.0 Z" stroke="none" fill="rgb(158,158,158)" />
<path d="M 57.5 58.0 L 58.0 58.0 L 59.0 58.0 L 60.0 58.0 L 61.0 58.0 L 62.0 58.0 L 63.0 58.0 L 64.0 58.0 L 65.0 58.0 L 66.0 58.0 L 67.0 58.0 L 68.0 58.0 L 69.0 58.0 L 70.0 58.0 L 71.0 58.0 L 72.0 58.0 L 73.0 58.0 L 74.0 58.0 L 75.0 58.0 L 76.0 58.0 L 76.66666666666667 57.666666666666664 L 76.66666666666667 57.0 L 76.0 56.0 L 75.33333333333333 55.0 L 74.66666666666667 54.333333333333336 L 74.0 54.0 L 73.0 54.0 L 72.0 54.333333333333336 L 71.0 54.666666666666664 L 70.0 55.0 L 69.0 55.0 L 68.0 55.0 L 67.0 55.0 L 66.0 55.0 L 65.0 55.0 L 64.0 55.0 L 63.0 55.0 L 62.0 55.0 L 61.0 55.0 L 60.0 55.0 L 59.0 55.0 L 58.0 54.666666666666664 L 57.0 54.333333333333336 L 56.0 54.0 L 55.0 54.0 L 54.0 54.0 L 53.0 54.0 L 52.0 54.0 L 51.0 54.0 L 50.0 54.333333333333336 L 49.333333333333336 55.0 L 49.0 56.0 L 49.0 57.0 L 49.333333333333336 57.666666666666664 L 50.0 58.0 L 51.0 58.0 L 52.0 58.0 L 53.0 58.0 L 54.0 58.0 L 55.0 58.0 L 56.0 58.0 L 56.5 58.0 Z" stroke="none" fill="rgb(55,71,79)" />
<path d="M 20.5 71.0 L 21.0 71.0 L 22.0 71.0 L 23.0 71.0 L 24.0 71.0 L 25.0 71.0 L 26.0 71.0 L 27.0 71.0 L 28.0 71.0 L 29.0 71.0 L 30.0 71.0 L 31.0 71.0 L 32.0 71.0 L 33.0 71.0 L 34.0 71.0 L 35.0 71.0 L 36.0 71.0 L 37.0 71.0 L 38.0 70.66666666666667 L 39.0 70.0 L 39.666666666666664 69.0 L 40.0 68.0 L 39.666666666666664 67.33333333333333 L 39.0 67.0 L 38.0 67.0 L 37.0 67.0 L 36.0 67.0 L 35.0 67.0 L 34.0 67.0 L 33.0 67.0 L 32.0 67.0 L 31.0 67.0 L 30.0 67.0 L 29.0 67.0 L 28.0 67.0 L 27.0 67.0 L 26.0 67.0 L 25.0 67.0 L 24.0 67.0 L 23.0 67.0 L 22.0 67.0 L 21.0 67.0 L 20.0 67.0 L 19.0 67.0 L 18.0 67.0 L 17.0 67.33333333333333 L 16.333333333333332 68.0 L 16.0 69.0 L 16.333333333333332 70.0 L 17.0 70.66666666666667 L 18.0 71.0 L 19.0 71.0 L 19.5 71.0 Z" stroke="none" fill="rgb(249,249,249)" />
<path d="M 45.5 13.5 L 46.0 13.666666666666666 L 47.0 13.666666666666666 L 48.0 13.0 L 49.0 12.333333333333334 L 49.666666666666664 11.666666666666666 L 50.0 11.0 L 50.0 10.0 L 50.333333333333336 9.0 L 50.666666666666664 8.0 L 50.666666666666664 7.0 L 50.0 6.333333333333333 L 49.0 6.0 L 48.0 6.0 L 47.0 6.0 L 46.0 5.666666666666667 L 45.0 5.333333333333333 L 44.0 5.0 L 43.333333333333336 5.333333333333333 L 43.0 6.0 L 43.333333333333336 7.0 L 43.666666666666664 8.0 L 44.333333333333336 9.0 L 44.333333333333336 10.0 L 44.333333333333336 11.0 L 44.333333333333336 12.0 L 44.5 12.5 Z" stroke="none" fill="rgb(96,125,139)" />
<path d="M 33.5 67.0 L 34.0 67.0 L 35.0 67.0 L 36.0 67.0 L 37.0 67.0 L 38.0 67.0 L 39.0 67.0 L 39.666666666666664 66.66666666666667 L 39.666666666666664 66.0 L 39.0 65.33333333333333 L 38.0 65.0 L 37.0 65.0 L 36.0 65.0 L 35.0 65.0 L 34.0 65.0 L 33.0 65.0 L 32.0 65.0 L 31.0 65.0 L 30.0 65.0 L 29.0 65.0 L 28.0 65.0 L 27.0 65.0 L 26.0 65.0 L 25.0 65.0 L 24.0 65.0 L 23.0 65.0 L 22.0 65.0 L 21.333333333333332 65.33333333333333 L 21.0 66.0 L 21.333333333333332 66.66666666666667 L 22.0 67.0 L 23.0 67.0 L 24.0 67.0 L 25.0 67.0 L 26.0 67.0 L 27.0 67.0 L 28.0 67.0 L 29.0 67.0 L 30.0 67.0 L 31.0 67.0 L 32.0 67.0 L 32.5 67.0 Z" stroke="none" fill="rgb(237,237,237)" />
<path d="M 94.5 24.5 L 95.0 24.666666666666668 L 96.0 25.0 L 97.0 24.666666666666668 L 97.66666666666667 24.0 L 98.0 23.0 L 98.0 22.0 L 97.66666666666667 21.0 L 97.33333333333333 20.0 L 97.0 19.0 L 97.0 18.0 L 96.66666666666667 17.0 L 96.0 16.0 L 95.0 15.333333333333334 L 94.0 15.0 L 93.0 15.0 L 92.33333333333333 15.333333333333334 L 92.0 16.0 L 92.0 17.0 L 92.33333333333333 18.0 L 92.66666666666667 19.0 L 93.0 20.0 L 93.0 21.0 L 93.0 22.0 L 93.33333333333333 23.0 L 93.5 23.5 Z" stroke="none" fill="rgb(96,125,139)" />
<path d="M 37.0 9.5 L 37.0 9.0 L 37.0 8.0 L 37.333333333333336 7.0 L 38.0 6.333333333333333 L 38.666666666666664 5.666666666666667 L 39.0 5.0 L 38.666666666666664 4.333333333333333 L 38.0 4.0 L 37.0 4.0 L 36.0 4.0 L 35.0 4.0 L 34.0 4.0 L 33.0 4.0 L 32.333333333333336 4.333333333333333 L 32.0 5.0 L 32.0 6.0 L 32.0 7.0 L 32.0 8.0 L 32.0 9.0 L 32.333333333333336 10.0 L 33.0 11.0 L 34.0 11.666666666666666 L 35.0 11.666666666666666 L 36.0 11.0 L 36.5 10.5 Z" stroke="none" fill="rgb(96,125,139)" />
<path d="M 81.5 18.5 L 82.0 19.0 L 83.0 19.666666666666668 L 84.0 20.0 L 84.66666666666667 19.666666666666668 L 85.0 19.0 L 85.0 18.0 L 85.33333333333333 17.0 L 86.0 16.333333333333332 L 86.66666666666667 15.666666666666666 L 87.0 15.0 L 86.66666666666667 14.0 L 86.0 13.333333333333334 L 85.0 13.0 L 84.0 13.0 L 83.0 13.0 L 82.0 12.666666666666666 L 81.0 12.333333333333334 L 80.0 12.0 L 79.33333333333333 12.333333333333334 L 79.0 13.0 L 79.33333333333333 14.0 L 80.0 15.0 L 80.66666666666667 16.0 L 81.0 17.0 L 81.0 17.5 Z" stroke="none" fill="rgb(96,125,139)" />
<path d="M 87.5 19.5 L 88.0 19.666666666666668 L 89.0 19.666666666666668 L 90.0 19.666666666666668 L 91.0 20.0 L 92.0 20.666666666666668 L 92.66666666666667 20.666666666666668 L 93.0 20.0 L 93.0 19.0 L 92.66666666666667 18.0 L 92.33333333333333 17.0 L 91.66666666666667 16.333333333333332 L 91.0 15.666666666666666 L 90.0 15.333333333333334 L 89.0 15.0 L 88.0 15.0 L 87.0 15.333333333333334 L 86.0 15.666666666666666 L 85.0 16.333333333333332 L 84.33333333333333 17.0 L 84.33333333333333 18.0 L 85.0 18.666666666666668 L 86.0 19.0 L 86.5 19.0 Z" stroke="none" fill="rgb(55,71,79)" />
<path d="M 39.5 9.0 L 40.0 9.0 L 41.0 9.333333333333334 L 42.0 10.0 L 43.0 10.666666666666666 L 44.0 11.0 L 44.666666666666664 10.666666666666666 L 45.0 10.0 L 44.666666666666664 9.0 L 44.333333333333336 8.0 L 43.666666666666664 7.0 L 43.0 6.333333333333333 L 42.0 5.666666666666667 L 41.0 5.333333333333333 L 40.0 5.0 L 39.0 5.333333333333333 L 38.0 5.666666666666667 L 37.0 6.333333333333333 L 36.333333333333336 7.0 L 36.333333333333336 8.0 L 37.0 8.666666666666666 L 38.0 9.0 L 38.5 9.0 Z" stroke="none" fill="rgb(55,71,79)" />
<path d="M 81.0 16.5 L 81.0 16.0 L 80.66666666666667 15.0 L 80.0 14.0 L 79.0 13.333333333333334 L 78.0 13.0 L 77.0 13.0 L 76.0 13.0 L 75.0 13.333333333333334 L 74.0 13.666666666666666 L 73.0 14.333333333333334 L 72.33333333333333 15.0 L 72.33333333333333 16.0 L 73.0 16.666666666666668 L 74.0 16.666666666666668 L 75.0 16.333333333333332 L 76.0 16.0 L 77.0 16.0 L 78.0 16.333333333333332 L 79.0 16.666666666666668 L 80.0 17.0 L 80.5 17.0 Z" stroke="none" fill="rgb(55,71,79)" />
<path d="M 54.5 12.5 L 55.0 12.666666666666666 L 55.666666666666664 12.666666666666666 L 56.0 12.0 L 56.0 11.0 L 55.666666666666664 10.0 L 55.0 9.0 L 54.0 8.333333333333334 L 53.0 8.0 L 52.0 8.0 L 51.0 8.0 L 50.333333333333336 8.333333333333334 L 50.0 9.0 L 50.333333333333336 9.666666666666666 L 51.0 10.333333333333334 L 52.0 10.666666666666666 L 53.0 11.333333333333334 L 53.5 11.5 Z" stroke="none" fill="rgb(55,71,79)" />
<path d="M 8.5 83.0 L 8.666666666666666 82.66666666666667 L 9.0 82.0 L 9.333333333333334 81.0 L 9.666666666666666 80.0 L 9.666666666666666 79.0 L 9.666666666666666 78.0 L 9.666666666666666 77.0 L 9.666666666666666 76.0 L 9.0 75.33333333333333 L 8.333333333333334 75.33333333333333 L 8.0 76.0 L 8.0 77.0 L 8.0 78.0 L 8.0 79.0 L 8.0 80.0 L 8.0 81.0 L 8.0 82.0 L 8.0 82.5 Z" stroke="none" fill="rgb(0,0,0)" />
<path d="M 37.5 12.5 L 38.0 12.0 L 39.0 11.333333333333334 L 39.666666666666664 10.666666666666666 L 40.0 10.0 L 39.666666666666664 9.333333333333334 L 39.0 9.0 L 38.0 9.0 L 37.0 9.333333333333334 L 36.0 10.0 L 35.333333333333336 11.0 L 35.333333333333336 12.0 L 36.0 12.666666666666666 L 36.5 13.0 Z" stroke="none" fill="rgb(146,203,221)" />
<path d="M 49.5 14.5 L 50.0 14.333333333333334 L 50.666666666666664 13.666666666666666 L 51.0 13.0 L 50.666666666666664 12.333333333333334 L 50.0 12.0 L 49.0 12.0 L 48.0 12.333333333333334 L 47.333333333333336 13.0 L 47.0 14.0 L 47.333333333333336 14.666666666666666 L 48.0 15.0 L 48.5 15.0 Z" stroke="none" fill="rgb(146,203,221)" />
<path d="M 75.5 18.5 L 76.0 18.333333333333332 L 76.66666666666667 17.666666666666668 L 77.0 17.0 L 76.66666666666667 16.333333333333332 L 76.0 16.0 L 75.0 16.0 L 74.0 16.333333333333332 L 73.33333333333333 17.0 L 73.0 18.0 L 73.33333333333333 18.666666666666668 L 74.0 19.0 L 74.5 19.0 Z" stroke="none" fill="rgb(146,203,221)" />
<path d="M 86.5 21.5 L 87.0 21.333333333333332 L 87.66666666666667 20.666666666666668 L 88.0 20.0 L 87.66666666666667 19.333333333333332 L 87.0 19.0 L 86.0 19.0 L 85.0 19.333333333333332 L 84.33333333333333 20.0 L 84.0 21.0 L 84.33333333333333 21.666666666666668 L 85.0 22.0 L 85.5 22.0 Z" stroke="none" fill="rgb(146,203,221)" />
<path d="M 55.5 9.0 L 55.666666666666664 8.666666666666666 L 55.666666666666664 8.0 L 55.0 7.333333333333333 L 54.0 7.0 L 53.0 7.0 L 52.0 7.0 L 51.333333333333336 7.333333333333333 L 51.333333333333336 7.666666666666667 L 52.0 8.0 L 53.0 8.333333333333334 L 54.0 8.666666666666666 L 54.5 9.0 Z" stroke="none" fill="rgb(0,0,0)" />
<path d="M 88.5 15.0 L 89.0 15.333333333333334 L 90.0 15.666666666666666 L 91.0 16.0 L 91.66666666666667 15.666666666666666 L 91.66666666666667 15.0 L 91.0 14.333333333333334 L 90.0 14.0 L 89.0 14.0 L 88.0 14.0 L 87.33333333333333 14.333333333333334 L 87.33333333333333 14.666666666666666 L 87.5 15.0 Z" stroke="none" fill="rgb(0,0,0)" />
<path d="M 21.0 66.5 L 21.0 66.0 L 21.0 65.0 L 20.666666666666668 64.33333333333333 L 20.0 64.0 L 19.0 64.33333333333333 L 18.333333333333332 65.0 L 18.333333333333332 66.0 L 19.0 66.66666666666667 L 20.0 67.0 L 20.5 67.0 Z" stroke="none" fill="rgb(0,0,0)" />
<path d="M 42.5 75.0 L 42.666666666666664 74.66666666666667 L 43.0 74.0 L 42.666666666666664 73.33333333333333 L 42.0 73.0 L 41.0 73.33333333333333 L 40.333333333333336 74.0 L 40.0 75.0 L 40.333333333333336 75.66666666666667 L 41.0 75.66666666666667 L 41.5 75.5 Z" stroke="none" fill="rgb(1,87,155)" />
<path d="M 46.0 16.5 L 45.666666666666664 16.0 L 45.0 15.333333333333334 L 44.333333333333336 15.333333333333334 L 44.0 16.0 L 44.333333333333336 16.666666666666668 L 45.0 17.0 L 45.5 17.0 Z" stroke="none" fill="rgb(146,164,172)" />
<path d="M 41.5 6.0 L 42.0 6.0 L 42.666666666666664 5.666666666666667 L 42.666666666666664 5.333333333333333 L 42.0 5.0 L 41.333333333333336 5.333333333333333 L 41.0 5.5 Z" stroke="none" fill="rgb(0,0,0)" />
<path d="M 78.5 13.0 L 78.66666666666667 12.666666666666666 L 78.66666666666667 12.333333333333334 L 78.0 12.0 L 77.33333333333333 12.333333333333334 L 77.33333333333333 12.666666666666666 L 77.5 13.0 Z" stroke="none" fill="rgb(0,0,0)" />
<path d="M 39.5 5.0 L 39.666666666666664 4.666666666666667 L 39.666666666666664 4.333333333333333 L 39.333333333333336 4.333333333333333 L 39.0 4.5 Z" stroke="none" fill="rgb(0,0,0)" />
<path d="M 48.5 58.0 L 48.666666666666664 57.666666666666664 L 48.666666666666664 57.333333333333336 L 48.333333333333336 57.333333333333336 L 48.0 57.5 Z" stroke="none" fill="rgb(0,0,0)" />
<path d="M 105.5 65.0 L 105.66666666666667 64.66666666666667 L 105.66666666666667 64.33333333333333 L 105.33333333333333 64.33333333333333 L 105.0 64.5 Z" stroke="none" fill="rgb(0,0,0)" />
<path d="M 8.5 105.0 L 8.666666666666666 104.66666666666667 L 8.666666666666666 104.33333333333333 L 8.333333333333334 104.33333333333333 L 8.0 104.5 Z" stroke="none" fill="rgb(0,0,0)" />
<path d="M 117.0 104.5 L 116.66666666666667 104.33333333333333 L 116.33333333333333 104.33333333333333 L 116.33333333333333 104.66666666666667 L 116.5 105.0 Z" stroke="none" fill="rgb(0,0,0)" />
<path d="M 8.5 108.0 L 8.666666666666666 107.66666666666667 L 8.666666666666666 107.33333333333333 L 8.333333333333334 107.33333333333333 L 8.0 107.5 Z" stroke="none" fill="rgb(0,0,0)" />
<path d="M 117.0 107.5 L 116.66666666666667 107.33333333333333 L 116.33333333333333 107.33333333333333 L 116.33333333333333 107.66666666666667 L 116.5 108.0 Z" stroke="none" fill="rgb(0,0,0)" />
<path d="M 17.0 120.5 L 16.666666666666668 120.33333333333333 L 16.333333333333332 120.33333333333333 L 16.333333333333332 120.66666666666667 L 16.5 121.0 Z" stroke="none" fill="rgb(0,0,0)" />
</svg>
