<?xml version="1.0" encoding="UTF-8" standalone="no"?>
<!DOCTYPE svg PUBLIC "-//W3C//DTD SVG 1.1//EN"
"http://www.w3.org/Graphics/SVG/1.1/DTD/svg11.dtd">
<svg width="128" height="128" xmlns="http://www.w3.org/2000/svg" version="1.1">
<path d="M 26.5 128.0 L 27.0 128.0 L 28.0 128.0 L 29.0 128.0 L 30.0 128.0 L 31.0 128.0 L 32.0 128.0 L 33.0 128.0 L 34.0 128.0 L 35.0 128.0 L 36.0 128.0 L 37.0 128.0 L 38.0 128.0 L 39.0 128.0 L 40.0 128.0 L 41.0 128.0 L 42.0 128.0 L 43.0 128.0 L 44.0 128.0 L 45.0 128.0 L 46.0 128.0 L 47.0 128.0 L 48.0 128.0 L 49.0 128.0 L 50.0 128.0 L 51.0 128.0 L 52.0 128.0 L 53.0 128.0 L 54.0 128.0 L 55.0 128.0 L 56.0 128.0 L 57.0 128.0 L 58.0 128.0 L 59.0 128.0 L 60.0 128.0 L 61.0 128.0 L 62.0 128.0 L 63.0 128.0 L 64.0 128.0 L 65.0 128.0 L 66.0 128.0 L 67.0 128.0 L 68.0 128.0 L 69.0 128.0 L 70.0 128.0 L 71.0 128.0 L 72.0 128.0 L 73.0 128.0 L 74.0 128.0 L 75.0 128.0 L 76.0 128.0 L 77.0 128.0 L 78.0 128.0 L 79.0 128.0 L 80.0 128.0 L 81.0 128.0 L 82.0 128.0 L 83.0 128.0 L 84.0 128.0 L 85.0 128.0 L 86.0 128.0 L 87.0 128.0 L 88.0 128.0 L 89.0 128.0 L 90.0 128.0 L 91.0 128.0 L 92.0 128.0 L 93.0 128.0 L 94.0 128.0 L 95.0 128.0 L 96.0 128.0 L 97.0 128.0 L 98.0 128.0 L 99.0 128.0 L 100.0 128.0 L 101.0 128.0 L 102.0 128.0 L 103.0 128.0 L 104.0 128.0 L 105.0 128.0 L 106.0 128.0 L 107.0 128.0 L 108.0 128.0 L 109.0 128.0 L 110.0 128.0 L 111.0 128.0 L 112.0 128.0 L 113.0 128.0 L 114.0 128.0 L 115.0 128.0 L 116.0 128.0 L 117.0 128.0 L 118.0 128.0 L 119.0 128.0 L 120.0 128.0 L 121.0 128.0 L 122.0 128.0 L 123.0 128.0 L 124.0 128.0 L 125.0 128.0 L 126.0 128.0 L 127.0 128.0 L 127.66666666666667 127.66666666666667 L 128.0 127.0 L 128.0 126.0 L 128.0 125.0 L 128.0 124.0 L 128.0 123.0 L 128.0 122.0 L 128.0 121.0 L 128.0 120.0 L 128.0 119.0 L 128.0 118.0 L 128.0 117.0 L 128.0 116.0 L 128.0 115.0 L 128.0 114.0 L 128.0 113.0 L 128.0 112.0 L 128.0 111.0 L 128.0 110.0 L 128.0 109.0 L 128.0 108.0 L 128.0 107.0 L 128.0 106.0 L 128.0 105.0 L 128.0 104.0 L 128.0 103.0 L 128.0 102.0 L 128.0 101.0 L 128.0 100.0 L 128.0 99.0 L 128.0 98.0 L 128.0 97.0 L 128.0 96.0 L 128.0 95.0 L 128.0 94.0 L 128.0 93.0 L 128.0 92.0 L 128.0 91.0 L 128.0 90.0 L 128.0 89.0 L 128.0 88.0 L 128.0 87.0 L 128.0 86.0 L 128.0 85.0 L 128.0 84.0 L 128.0 83.0 L 128.0 82.0 L 128.0 81.0 L 128.0 80.0 L 128.0 79.0 L 128.0 78.0 L 128.0 77.0 L 128.0 76.0 L 128.0 75.0 L 128.0 74.0 L 128.0 73.0 L 128.0 72.0 L 128.0 71.0 L 128.0 70.0 L 128.0 69.0 L 128.0 68.0 L 128.0 67.0 L 128.0 66.0 L 128.0 65.0 L 128.0 64.0 L 128.0 63.0 L 128.0 62.0 L 128.0 61.0 L 128.0 60.0 L 128.0 59.0 L 128.0 58.0 L 128.0 57.0 L 128.0 56.0 L 128.0 55.0 L 128.0 54.0 L 128.0 53.0 L 128.0 52.0 L 128.0 51.0 L 128.0 50.0 L 128.0 49.0 L 128.0 48.0 L 128.0 47.0 L 128.0 46.0 L 128.0 45.0 L 128.0 44.0 L 128.0 43.0 L 128.0 42.0 L 128.0 41.0 L 128.0 40.0 L 128.0 39.0 L 128.0 38.0 L 128.0 37.0 L 128.0 36.0 L 128.0 35.0 L 128.0 34.0 L 128.0 33.0 L 128.0 32.0 L 128.0 31.0 L 128.0 30.0 L 128.0 29.0 L 128.0 28.0 L 128.0 27.0 L 128.0 26.0 L 128.0 25.0 L 128.0 24.0 L 128.0 23.0 L 128.0 22.0 L 128.0 21.0 L 128.0 20.0 L 128.0 19.0 L 128.0 18.0 L 128.0 17.0 L 128.0 16.0 L 128.0 15.0 L 128.0 14.0 L 128.0 13.0 L 128.0 12.0 L 128.0 11.0 L 128.0 10.0 L 128.0 9.0 L 128.0 8.0 L 128.0 7.0 L 128.0 6.0 L 128.0 5.0 L 128.0 4.0 L 128.0 3.0 L 128.0 2.0 L 128.0 1.0 L 127.66666666666667 0.3333333333333333 L 127.0 0.0 L 126.0 0.0 L 125.0 0.0 L 124.0 0.0 L 123.0 0.0 L 122.0 0.0 L 121.0 0.0 L 120.0 0.0 L 119.0 0.0 L 118.0 0.0 L 117.0 0.0 L 116.0 0.0 L 115.0 0.0 L 114.0 0.0 L 113.0 0.0 L 112.0 0.0 L 111.0 0.0 L 110.0 0.0 L 109.0 0.0 L 108.0 0.0 L 107.0 0.0 L 106.0 0.0 L 105.0 0.0 L 104.0 0.0 L 103.0 0.0 L 102.0 0.0 L 101.0 0.0 L 100.0 0.0 L 99.0 0.0 L 98.0 0.0 L 97.0 0.0 L 96.0 0.0 L 95.0 0.0 L 94.0 0.0 L 93.0 0.0 L 92.0 0.0 L 91.0 0.0 L 90.0 0.0 L 89.0 0.0 L 88.0 0.0 L 87.0 0.0 L 86.0 0.0 L 85.0 0.0 L 84.0 0.0 L 83.0 0.0 L 82.0 0.0 L 81.0 0.0 L 80.0 0.0 L 79.0 0.0 L 78.0 0.0 L 77.0 0.0 L 76.0 0.0 L 75.0 0.0 L 74.0 0.0 L 73.0 0.0 L 72.0 0.0 L 71.0 0.0 L 70.0 0.0 L 69.0 0.0 L 68.0 0.0 L 67.0 0.0 L 66.0 0.0 L 65.0 0.0 L 64.0 0.0 L 63.0 0.0 L 62.0 0.0 L 61.0 0.0 L 60.0 0.0 L 59.0 0.0 L 58.0 0.0 L 57.0 0.0 L 56.0 0.0 L 55.0 0.0 L 54.0 0.0 L 53.0 0.0 L 52.0 0.0 L 51.0 0.0 L 50.0 0.0 L 49.0 0.0 L 48.0 0.0 L 47.0 0.0 L 46.0 0.0 L 45.0 0.0 L 44.0 0.0 L 43.0 0.0 L 42.0 0.0 L 41.0 0.0 L 40.0 0.0 L 39.0 0.0 L 38.0 0.0 L 37.0 0.0 L 36.0 0.0 L 35.0 0.0 L 34.0 0.0 L 33.0 0.0 L 32.0 0.0 L 31.0 0.0 L 30.0 0.0 L 29.0 0.0 L 28.0 0.0 L 27.0 0.0 L 26.0 0.0 L 25.0 0.0 L 24.0 0.0 L 23.0 0.0 L 22.0 0.0 L 21.0 0.0 L 20.0 0.0 L 19.0 0.0 L 18.0 0.0 L 17.0 0.0 L 16.0 0.0 L 15.0 0.0 L 14.0 0.0 L 13.0 0.0 L 12.0 0.0 L 11.0 0.0 L 10.0 0.0 L 9.0 0.0 L 8.0 0.0 L 7.0 0.0 L 6.0 0.0 L 5.0 0.0 L 4.0 0.0 L 3.0 0.0 L 2.0 0.0 L 1.0 0.0 L 0.3333333333333333 0.3333333333333333 L 0.0 1.0 L 0.0 2.0 L 0.0 3.0 L 0.0 4.0 L 0.0 5.0 L 0.0 6.0 L 0.0 7.0 L 0.0 8.0 L 0.0 9.0 L 0.0 10.0 L 0.0 11.0 L 0.0 12.0 L 0.0 13.0 L 0.0 14.0 L 0.0 15.0 L 0.0 16.0 L 0.0 17.0 L 0.0 18.0 L 0.0 19.0 L 0.0 20.0 L 0.0 21.0 L 0.0 22.0 L 0.0 23.0 L 0.0 24.0 L 0.0 25.0 L 0.0 26.0 L 0.0 27.0 L 0.0 28.0 L 0.0 29.0 L 0.0 30.0 L 0.0 31.0 L 0.0 32.0 L 0.0 33.0 L 0.0 34.0 L 0.0 35.0 L 0.0 36.0 L 0.0 37.0 L 0.0 38.0 L 0.0 39.0 L 0.0 40.0 L 0.0 41.0 L 0.0 42.0 L 0.0 43.0 L 0.0 44.0 L 0.0 45.0 L 0.0 46.0 L 0.0 47.0 L 0.0 48.0 L 0.0 49.0 L 0.0 50.0 L 0.0 51.0 L 0.0 52.0 L 0.0 53.0 L 0.0 54.0 L 0.0 55.0 L 0.0 56.0 L 0.0 57.0 L 0.0 58.0 L 0.0 59.0 L 0.0 60.0 L 0.0 61.0 L 0.0 62.0 L 0.0 63.0 L 0.0 64.0 L 0.0 65.0 L 0.0 66.0 L 0.0 67.0 L 0.0 68.0 L 0.0 69.0 L 0.0 70.0 L 0.0 71.0 L 0.0 72.0 L 0.0 73.0 L 0.0 74.0 L 0.0 75.0 L 0.0 76.0 L 0.0 77.0 L 0.0 78.0 L 0.0 79.0 L 0.0 80.0 L 0.0 81.0 L 0.0 82.0 L 0.0 83.0 L 0.0 84.0 L 0.0 85.0 L 0.0 86.0 L 0.0 87.0 L 0.0 88.0 L 0.0 89.0 L 0.0 90.0 L 0.0 91.0 L 0.0 92.0 L 0.0 93.0 L 0.0 94.0 L 0.0 95.0 L 0.0 96.0 L 0.0 97.0 L 0.0 98.0 L 0.0 99.0 L 0.0 100.0 L 0.0 101.0 L 0.0 102.0 L 0.0 103.0 L 0.0 104.0 L 0.0 105.0 L 0.0 106.0 L 0.0 107.0 L 0.0 108.0 L 0.0 109.0 L 0.0 110.0 L 0.0 111.0 L 0.0 112.0 L 0.0 113.0 L 0.0 114.0 L 0.0 115.0 L 0.0 116.0 L 0.0 117.0 L 0.0 118.0 L 0.0 119.0 L 0.0 120.0 L 0.0 121.0 L 0.0 122.0 L 0.0 123.0 L 0.0 124.0 L 0.0 125.0 L 0.0 126.0 L 0.0 127.0 L 0.3333333333333333 127.66666666666667 L 1.0 128.0 L 2.0 128.0 L 3.0 128.0 L 4.0 128.0 L 5.0 128.0 L 6.0 128.0 L 7.0 128.0 L 8.0 128.0 L 9.0 128.0 L 10.0 128.0 L 11.0 128.0 L 12.0 128.0 L 13.0 128.0 L 14.0 128.0 L 15.0 128.0 L 16.0 128.0 L 17.0 128.0 L 18.0 128.0 L 19.0 128.0 L 20.0 128.0 L 21.0 128.0 L 22.0 128.0 L 23.0 128.0 L 24.0 128.0 L 25.0 128.0 L 25.5 128.0 Z" stroke="none" fill="rgb(0,0,0)" />
<path d="M 88.5 15.0 L 89.0 15.0 L 90.0 14.666666666666666 L 91.0 14.333333333333334 L 92.0 14.0 L 93.0 13.666666666666666 L 93.66666666666667 13.0 L 94.0 12.0 L 93.66666666666667 11.333333333333334 L 93.0 10.666666666666666 L 92.0 10.333333333333334 L 91.0 9.666666666666666 L 90.0 9.333333333333334 L 89.0 8.666666666666666 L 88.0 8.333333333333334 L 87.0 8.0 L 86.0 7.666666666666667 L 85.0 7.333333333333333 L 84.0 7.0 L 83.0 6.666666666666667 L 82.0 6.333333333333333 L 81.0 6.0 L 80.0 5.666666666666667 L 79.0 5.333333333333333 L 78.0 5.0 L 77.0 5.0 L 76.0 5.0 L 75.0 4.666666666666667 L 74.0 4.333333333333333 L 73.0 4.0 L 72.0 4.0 L 71.0 4.0 L 70.0 4.0 L 69.0 4.0 L 68.0 4.0 L 67.0 4.0 L 66.0 4.0 L 65.0 4.0 L 64.0 4.0 L 63.0 4.0 L 62.0 4.0 L 61.0 4.0 L 60.0 4.0 L 59.0 4.0 L 58.0 4.0 L 57.0 4.0 L 56.0 4.0 L 55.0 4.0 L 54.0 4.333333333333333 L 53.0 5.0 L 52.0 6.0 L 51.0 7.0 L 50.333333333333336 8.0 L 49.666666666666664 9.0 L 49.0 10.0 L 48.333333333333336 11.0 L 47.666666666666664 12.0 L 47.333333333333336 13.0 L 46.666666666666664 14.0 L 46.333333333333336 15.0 L 45.666666666666664 16.0 L 45.333333333333336 17.0 L 45.0 18.0 L 44.666666666666664 19.0 L 44.333333333333336 20.0 L 44.0 21.0 L 43.666666666666664 22.0 L 43.333333333333336 23.0 L 43.0 24.0 L 42.666666666666664 25.0 L 42.333333333333336 26.0 L 42.0 27.0 L 41.666666666666664 28.0 L 41.333333333333336 29.0 L 41.0 30.0 L 40.666666666666664 31.0 L 40.333333333333336 32.0 L 40.0 33.0 L 39.666666666666664 34.0 L 39.333333333333336 35.0 L 38.666666666666664 36.0 L 38.333333333333336 37.0 L 37.666666666666664 38.0 L 37.333333333333336 39.0 L 36.666666666666664 40.0 L 36.0 41.0 L 35.333333333333336 42.0 L 34.666666666666664 43.0 L 34.0 44.0 L 33.333333333333336 45.0 L 33.0 46.0 L 33.0 47.0 L 33.0 48.0 L 33.333333333333336 49.0 L 34.0 50.0 L 35.0 51.0 L 36.0 52.0 L 37.0 53.0 L 38.0 53.666666666666664 L 39.0 53.666666666666664 L 40.0 53.0 L 41.0 52.0 L 41.666666666666664 51.0 L 42.333333333333336 50.0 L 43.0 49.0 L 44.0 48.0 L 45.0 47.0 L 46.0 46.0 L 47.0 45.0 L 48.0 44.0 L 49.0 43.0 L 50.0 42.0 L 51.0 41.0 L 52.0 40.0 L 53.0 39.0 L 54.0 38.0 L 55.0 37.0 L 56.0 36.0 L 57.0 35.333333333333336 L 58.0 34.666666666666664 L 59.0 34.0 L 60.0 33.0 L 61.0 32.0 L 62.0 31.0 L 63.0 30.0 L 64.0 29.333333333333332 L 65.0 28.666666666666668 L 66.0 28.0 L 67.0 27.0 L 68.0 26.333333333333332 L 69.0 25.666666666666668 L 70.0 25.0 L 71.0 24.333333333333332 L 72.0 23.666666666666668 L 73.0 23.0 L 74.0 22.333333333333332 L 75.0 21.666666666666668 L 76.0 21.333333333333332 L 77.0 20.666666666666668 L 78.0 20.333333333333332 L 79.0 19.666666666666668 L 80.0 19.333333333333332 L 81.0 18.666666666666668 L 82.0 18.333333333333332 L 83.0 17.666666666666668 L 84.0 17.333333333333332 L 85.0 16.666666666666668 L 86.0 16.333333333333332 L 87.0 15.666666666666666 L 87.5 15.5 Z" stroke="none" fill="rgb(239,108,50)" />
<path d="M 72.5 86.5 L 73.0 87.0 L 74.0 87.66666666666667 L 75.0 88.33333333333333 L 76.0 88.66666666666667 L 77.0 89.33333333333333 L 78.0 90.0 L 79.0 90.66666666666667 L 80.0 91.33333333333333 L 81.0 91.66666666666667 L 82.0 92.33333333333333 L 83.0 92.66666666666667 L 84.0 93.33333333333333 L 85.0 93.66666666666667 L 86.0 94.33333333333333 L 87.0 94.66666666666667 L 88.0 95.33333333333333 L 89.0 95.66666666666667 L 90.0 96.33333333333333 L 91.0 97.0 L 92.0 97.66666666666667 L 93.0 98.0 L 94.0 98.33333333333333 L 95.0 98.66666666666667 L 96.0 99.33333333333333 L 97.0 99.66666666666667 L 98.0 100.33333333333333 L 99.0 100.66666666666667 L 100.0 101.0 L 101.0 101.33333333333333 L 102.0 101.66666666666667 L 103.0 102.33333333333333 L 104.0 102.66666666666667 L 105.0 103.0 L 106.0 103.33333333333333 L 107.0 104.0 L 108.0 104.66666666666667 L 109.0 105.0 L 109.66666666666667 104.66666666666667 L 110.33333333333333 104.0 L 111.0 103.0 L 111.66666666666667 102.0 L 111.66666666666667 101.0 L 111.0 100.33333333333333 L 110.0 99.66666666666667 L 109.0 99.33333333333333 L 108.0 99.0 L 107.0 98.66666666666667 L 106.0 98.33333333333333 L 105.0 98.0 L 104.0 97.66666666666667 L 103.0 97.33333333333333 L 102.0 96.66666666666667 L 101.0 96.33333333333333 L 100.0 95.66666666666667 L 99.0 95.33333333333333 L 98.0 95.0 L 97.0 94.66666666666667 L 96.0 94.33333333333333 L 95.0 93.66666666666667 L 94.0 93.33333333333333 L 93.0 92.66666666666667 L 92.0 92.33333333333333 L 91.0 91.66666666666667 L 90.0 91.33333333333333 L 89.0 90.66666666666667 L 88.0 90.0 L 87.0 89.33333333333333 L 86.0 88.66666666666667 L 85.0 88.33333333333333 L 84.0 87.66666666666667 L 83.0 87.33333333333333 L 82.0 86.66666666666667 L 81.0 86.33333333333333 L 80.0 85.66666666666667 L 79.0 85.0 L 78.0 84.33333333333333 L 77.0 83.66666666666667 L 76.0 83.33333333333333 L 75.0 82.66666666666667 L 74.0 82.0 L 73.0 81.33333333333333 L 72.0 80.66666666666667 L 71.0 80.0 L 70.0 79.33333333333333 L 69.0 78.66666666666667 L 68.0 78.0 L 67.0 77.33333333333333 L 66.0 76.66666666666667 L 65.0 76.0 L 64.0 75.33333333333333 L 63.0 74.66666666666667 L 62.0 74.0 L 61.0 73.0 L 60.0 72.0 L 59.0 71.0 L 58.0 70.0 L 57.0 69.0 L 56.0 68.0 L 55.666666666666664 67.0 L 56.0 66.0 L 57.0 65.0 L 58.0 64.0 L 59.0 63.0 L 60.0 62.333333333333336 L 61.0 61.666666666666664 L 62.0 61.0 L 63.0 60.333333333333336 L 64.0 59.666666666666664 L 65.0 59.333333333333336 L 66.0 59.0 L 67.0 58.666666666666664 L 68.0 58.333333333333336 L 69.0 58.0 L 70.0 57.666666666666664 L 71.0 57.333333333333336 L 72.0 57.0 L 73.0 57.0 L 74.0 57.0 L 75.0 56.666666666666664 L 76.0 56.333333333333336 L 77.0 56.0 L 78.0 56.0 L 79.0 56.0 L 80.0 56.0 L 81.0 56.0 L 82.0 56.0 L 83.0 56.0 L 84.0 55.666666666666664 L 85.0 55.333333333333336 L 86.0 55.0 L 87.0 55.0 L 88.0 55.0 L 89.0 55.0 L 90.0 55.0 L 91.0 55.0 L 92.0 55.0 L 93.0 55.0 L 94.0 55.0 L 95.0 55.0 L 96.0 55.0 L 97.0 55.0 L 98.0 55.0 L 99.0 55.0 L 100.0 55.0 L 101.0 55.0 L 102.0 55.0 L 103.0 55.0 L 104.0 55.0 L 105.0 55.0 L 106.0 55.333333333333336 L 107.0 55.666666666666664 L 108.0 56.0 L 109.0 56.0 L 110.0 56.0 L 111.0 56.0 L 112.0 56.0 L 113.0 56.333333333333336 L 114.0 56.666666666666664 L 115.0 57.333333333333336 L 116.0 57.666666666666664 L 117.0 58.0 L 118.0 58.0 L 119.0 58.0 L 120.0 58.0 L 121.0 58.0 L 122.0 58.0 L 123.0 58.0 L 123.66666666666667 57.666666666666664 L 124.0 57.0 L 124.0 56.0 L 124.0 55.0 L 123.66666666666667 54.333333333333336 L 123.0 53.666666666666664 L 122.0 53.333333333333336 L 121.0 53.0 L 120.0 53.0 L 119.0 52.666666666666664 L 118.0 52.333333333333336 L 117.0 52.0 L 116.0 52.0 L 115.0 52.0 L 114.0 52.0 L 113.0 52.0 L 112.0 51.666666666666664 L 111.0 51.333333333333336 L 110.0 51.0 L 109.0 51.0 L 108.0 51.0 L 107.0 51.0 L 106.0 51.0 L 105.0 51.0 L 104.0 51.0 L 103.0 51.0 L 102.0 51.0 L 101.0 51.0 L 100.0 51.0 L 99.0 51.0 L 98.0 51.0 L 97.0 51.0 L 96.0 51.0 L 95.0 51.0 L 94.0 51.0 L 93.0 51.0 L 92.0 51.0 L 91.0 51.0 L 90.0 51.0 L 89.0 51.0 L 88.0 51.0 L 87.0 51.0 L 86.0 51.0 L 85.0 51.0 L 84.0 51.0 L 83.0 51.0 L 82.0 51.0 L 81.0 51.0 L 80.0 51.333333333333336 L 79.0 51.666666666666664 L 78.0 52.0 L 77.0 52.0 L 76.0 52.0 L 75.0 52.0 L 74.0 52.0 L 73.0 52.333333333333336 L 72.0 52.666666666666664 L 71.0 53.0 L 70.0 53.0 L 69.0 53.333333333333336 L 68.0 53.666666666666664 L 67.0 54.0 L 66.0 54.0 L 65.0 54.333333333333336 L 64.0 54.666666666666664 L 63.0 55.333333333333336 L 62.0 55.666666666666664 L 61.0 56.333333333333336 L 60.0 56.666666666666664 L 59.0 57.333333333333336 L 58.0 57.666666666666664 L 57.0 58.333333333333336 L 56.0 59.0 L 55.0 60.0 L 54.0 60.666666666666664 L 53.0 61.333333333333336 L 52.0 62.0 L 51.0 63.0 L 50.0 63.666666666666664 L 49.0 63.666666666666664 L 48.0 63.0 L 47.0 62.0 L 46.0 61.0 L 45.0 60.0 L 44.0 59.0 L 43.0 58.0 L 42.666666666666664 57.0 L 43.0 56.0 L 44.0 55.0 L 45.0 54.0 L 45.666666666666664 53.0 L 46.333333333333336 52.0 L 47.0 51.0 L 48.0 50.0 L 49.0 49.0 L 50.0 48.0 L 51.0 47.0 L 52.0 46.0 L 53.0 45.0 L 54.0 44.0 L 55.0 43.0 L 56.0 42.333333333333336 L 57.0 41.666666666666664 L 58.0 41.0 L 59.0 40.0 L 60.0 39.0 L 61.0 38.0 L 62.0 37.0 L 63.0 36.0 L 64.0 35.0 L 65.0 34.333333333333336 L 66.0 33.666666666666664 L 67.0 33.0 L 68.0 32.0 L 69.0 31.0 L 70.0 30.333333333333332 L 71.0 29.666666666666668 L 72.0 29.0 L 73.0 28.333333333333332 L 74.0 27.666666666666668 L 75.0 27.0 L 76.0 26.333333333333332 L 77.0 25.666666666666668 L 78.0 25.333333333333332 L 79.0 24.666666666666668 L 80.0 24.0 L 81.0 23.333333333333332 L 82.0 22.666666666666668 L 83.0 22.333333333333332 L 84.0 21.666666666666668 L 85.0 21.333333333333332 L 86.0 21.0 L 87.0 20.666666666666668 L 88.0 20.333333333333332 L 89.0 19.666666666666668 L 90.0 19.333333333333332 L 91.0 19.0 L 92.0 18.666666666666668 L 93.0 18.333333333333332 L 94.0 18.0 L 95.0 17.666666666666668 L 96.0 17.333333333333332 L 97.0 17.0 L 98.0 17.0 L 99.0 16.666666666666668 L 99.66666666666667 16.0 L 99.66666666666667 15.0 L 99.0 14.0 L 98.0 13.333333333333334 L 97.0 13.0 L 96.0 12.666666666666666 L 95.0 12.333333333333334 L 94.0 12.333333333333334 L 93.0 13.0 L 92.0 13.666666666666666 L 91.0 14.0 L 90.0 14.333333333333334 L 89.0 14.666666666666666 L 88.0 15.0 L 87.0 15.333333333333334 L 86.0 15.666666666666666 L 85.0 16.333333333333332 L 84.0 16.666666666666668 L 83.0 17.333333333333332 L 82.0 17.666666666666668 L 81.0 18.333333333333332 L 80.0 18.666666666666668 L 79.0 19.333333333333332 L 78.0 19.666666666666668 L 77.0 20.333333333333332 L 76.0 20.666666666666668 L 75.0 21.333333333333332 L 74.0 21.666666666666668 L 73.0 22.333333333333332 L 72.0 23.0 L 71.0 23.666666666666668 L 70.0 24.333333333333332 L 69.0 25.0 L 68.0 25.666666666666668 L 67.0 26.333333333333332 L 66.0 27.0 L 65.0 28.0 L 64.0 28.666666666666668 L 63.0 29.333333333333332 L 62.0 30.0 L 61.0 31.0 L 60.0 32.0 L 59.0 33.0 L 58.0 34.0 L 57.0 34.666666666666664 L 56.0 35.333333333333336 L 55.0 36.0 L 54.0 37.0 L 53.0 38.0 L 52.0 39.0 L 51.0 40.0 L 50.0 41.0 L 49.0 42.0 L 48.0 43.0 L 47.0 44.0 L 46.0 45.0 L 45.0 46.0 L 44.0 47.0 L 43.0 48.0 L 42.333333333333336 49.0 L 41.666666666666664 50.0 L 41.0 51.0 L 40.0 52.0 L 39.0 52.666666666666664 L 38.0 52.666666666666664 L 37.0 52.0 L 36.0 51.0 L 35.0 50.0 L 34.0 49.0 L 33.333333333333336 48.0 L 33.0 47.0 L 33.333333333333336 46.0 L 34.0 45.0 L 34.666666666666664 44.0 L 35.333333333333336 43.0 L 36.0 42.0 L 36.666666666666664 41.0 L 37.333333333333336 40.0 L 37.666666666666664 39.0 L 38.333333333333336 38.0 L 38.666666666666664 37.0 L 39.333333333333336 36.0 L 39.666666666666664 35.0 L 40.0 34.0 L 40.333333333333336 33.0 L 40.666666666666664 32.0 L 41.0 31.0 L 41.333333333333336 30.0 L 41.666666666666664 29.0 L 42.0 28.0 L 42.333333333333336 27.0 L 42.666666666666664 26.0 L 43.0 25.0 L 43.333333333333336 24.0 L 43.666666666666664 23.0 L 44.0 22.0 L 44.333333333333336 21.0 L 44.666666666666664 20.0 L 45.0 19.0 L 45.333333333333336 18.0 L 45.666666666666664 17.0 L 46.333333333333336 16.0 L 46.666666666666664 15.0 L 47.333333333333336 14.0 L 47.666666666666664 13.0 L 48.333333333333336 12.0 L 49.0 11.0 L 49.666666666666664 10.0 L 50.333333333333336 9.0 L 51.0 8.0 L 51.666666666666664 7.0 L 51.666666666666664 6.0 L 51.0 5.333333333333333 L 50.0 5.0 L 49.0 5.333333333333333 L 48.0 5.666666666666667 L 47.0 6.333333333333333 L 46.0 7.0 L 45.333333333333336 8.0 L 44.666666666666664 9.0 L 44.0 10.0 L 43.333333333333336 11.0 L 42.666666666666664 12.0 L 42.333333333333336 13.0 L 42.0 14.0 L 41.666666666666664 15.0 L 41.333333333333336 16.0 L 40.666666666666664 17.0 L 40.333333333333336 18.0 L 40.0 19.0 L 40.0 20.0 L 39.666666666666664 21.0 L 39.333333333333336 22.0 L 39.0 23.0 L 38.666666666666664 24.0 L 38.333333333333336 25.0 L 38.0 26.0 L 37.666666666666664 27.0 L 37.333333333333336 28.0 L 37.0 29.0 L 36.666666666666664 30.0 L 36.333333333333336 31.0 L 35.666666666666664 32.0 L 35.333333333333336 33.0 L 34.666666666666664 34.0 L 34.333333333333336 35.0 L 33.666666666666664 36.0 L 33.333333333333336 37.0 L 32.666666666666664 38.0 L 32.0 39.0 L 31.333333333333332 40.0 L 30.666666666666668 41.0 L 30.0 42.0 L 29.0 42.666666666666664 L 28.0 42.666666666666664 L 27.0 42.0 L 26.0 41.0 L 25.333333333333332 40.0 L 24.666666666666668 39.0 L 24.0 38.0 L 23.0 37.0 L 22.0 36.0 L 21.333333333333332 35.0 L 20.666666666666668 34.0 L 20.0 33.0 L 19.0 32.0 L 18.333333333333332 31.0 L 17.666666666666668 30.0 L 17.0 29.0 L 16.0 28.333333333333332 L 15.0 28.0 L 14.0 28.333333333333332 L 13.333333333333334 29.0 L 13.0 30.0 L 13.0 31.0 L 13.0 32.0 L 13.333333333333334 33.0 L 14.0 34.0 L 15.0 35.0 L 16.0 36.0 L 16.666666666666668 37.0 L 17.333333333333332 38.0 L 18.0 39.0 L 19.0 40.0 L 20.0 41.0 L 20.666666666666668 42.0 L 21.333333333333332 43.0 L 22.0 44.0 L 23.0 45.0 L 24.0 46.0 L 24.666666666666668 47.0 L 25.0 48.0 L 24.666666666666668 49.0 L 24.0 50.0 L 23.0 51.0 L 22.0 52.0 L 21.0 53.0 L 20.0 54.0 L 19.0 55.0 L 18.0 56.0 L 17.0 57.0 L 16.0 58.0 L 15.0 59.0 L 14.0 59.666666666666664 L 13.0 60.333333333333336 L 12.0 61.0 L 11.0 61.666666666666664 L 10.0 62.333333333333336 L 9.0 62.666666666666664 L 8.0 63.333333333333336 L 7.0 63.666666666666664 L 6.0 64.33333333333333 L 5.0 64.66666666666667 L 4.0 65.0 L 3.3333333333333335 65.33333333333333 L 3.0 66.0 L 3.0 67.0 L 3.0 68.0 L 3.3333333333333335 68.66666666666667 L 4.0 69.0 L 5.0 69.0 L 6.0 69.0 L 7.0 69.0 L 8.0 68.66666666666667 L 9.0 68.33333333333333 L 10.0 67.66666666666667 L 11.0 67.33333333333333 L 12.0 66.66666666666667 L 13.0 66.33333333333333 L 14.0 65.66666666666667 L 15.0 65.0 L 16.0 64.33333333333333 L 17.0 63.666666666666664 L 18.0 63.0 L 19.0 62.0 L 20.0 61.333333333333336 L 21.0 60.666666666666664 L 22.0 60.0 L 23.0 59.0 L 24.0 58.0 L 25.0 57.0 L 26.0 56.0 L 27.0 55.0 L 28.0 54.0 L 29.0 53.666666666666664 L 30.0 54.0 L 31.0 55.0 L 32.0 56.0 L 33.0 57.0 L 34.0 58.0 L 34.333333333333336 59.0 L 34.0 60.0 L 33.333333333333336 61.0 L 32.666666666666664 62.0 L 32.0 63.0 L 31.333333333333332 64.0 L 30.666666666666668 65.0 L 30.333333333333332 66.0 L 29.666666666666668 67.0 L 29.333333333333332 68.0 L 28.666666666666668 69.0 L 28.0 70.0 L 27.333333333333332 71.0 L 26.666666666666668 72.0 L 26.333333333333332 73.0 L 25.666666666666668 74.0 L 25.333333333333332 75.0 L 25.0 76.0 L 24.666666666666668 77.0 L 24.333333333333332 78.0 L 23.666666666666668 79.0 L 23.333333333333332 80.0 L 23.0 81.0 L 22.666666666666668 82.0 L 22.333333333333332 83.0 L 21.666666666666668 84.0 L 21.333333333333332 85.0 L 21.0 86.0 L 21.0 87.0 L 20.666666666666668 88.0 L 20.333333333333332 89.0 L 20.0 90.0 L 20.0 91.0 L 20.0 92.0 L 19.666666666666668 93.0 L 19.333333333333332 94.0 L 19.0 95.0 L 19.0 96.0 L 19.0 97.0 L 19.0 98.0 L 19.0 99.0 L 19.0 100.0 L 19.0 101.0 L 19.0 102.0 L 19.0 103.0 L 19.0 104.0 L 19.0 105.0 L 19.0 106.0 L 19.333333333333332 107.0 L 20.0 107.66666666666667 L 21.0 108.0 L 22.0 107.66666666666667 L 22.666666666666668 107.0 L 23.0 106.0 L 23.0 105.0 L 23.0 104.0 L 23.0 103.0 L 23.0 102.0 L 23.0 101.0 L 23.0 100.0 L 23.0 99.0 L 23.0 98.0 L 23.333333333333332 97.0 L 23.666666666666668 96.0 L 24.0 95.0 L 24.0 94.0 L 24.0 93.0 L 24.333333333333332 92.0 L 24.666666666666668 91.0 L 25.0 90.0 L 25.0 89.0 L 25.333333333333332 88.0 L 25.666666666666668 87.0 L 26.0 86.0 L 26.333333333333332 85.0 L 26.666666666666668 84.0 L 27.333333333333332 83.0 L 27.666666666666668 82.0 L 28.0 81.0 L 28.333333333333332 80.0 L 28.666666666666668 79.0 L 29.333333333333332 78.0 L 29.666666666666668 77.0 L 30.333333333333332 76.0 L 30.666666666666668 75.0 L 31.333333333333332 74.0 L 31.666666666666668 73.0 L 32.333333333333336 72.0 L 33.0 71.0 L 33.666666666666664 70.0 L 34.333333333333336 69.0 L 34.666666666666664 68.0 L 35.333333333333336 67.0 L 36.0 66.0 L 37.0 65.0 L 38.0 64.0 L 39.0 63.333333333333336 L 40.0 63.333333333333336 L 41.0 64.0 L 42.0 64.66666666666667 L 43.0 65.33333333333333 L 44.0 66.0 L 45.0 67.0 L 46.0 68.0 L 46.333333333333336 69.0 L 46.333333333333336 70.0 L 46.0 71.0 L 46.0 72.0 L 45.666666666666664 73.0 L 45.333333333333336 74.0 L 45.0 75.0 L 45.0 76.0 L 45.0 77.0 L 45.0 78.0 L 44.666666666666664 79.0 L 44.333333333333336 80.0 L 44.0 81.0 L 44.0 82.0 L 44.0 83.0 L 44.0 84.0 L 44.0 85.0 L 44.0 86.0 L 44.0 87.0 L 44.0 88.0 L 44.0 89.0 L 44.0 90.0 L 44.0 91.0 L 44.0 92.0 L 44.333333333333336 93.0 L 44.666666666666664 94.0 L 45.0 95.0 L 45.333333333333336 96.0 L 45.666666666666664 97.0 L 46.0 98.0 L 46.333333333333336 99.0 L 46.666666666666664 100.0 L 47.0 101.0 L 47.333333333333336 102.0 L 47.666666666666664 103.0 L 48.333333333333336 104.0 L 48.666666666666664 105.0 L 49.333333333333336 106.0 L 49.666666666666664 107.0 L 50.333333333333336 108.0 L 51.0 109.0 L 51.666666666666664 110.0 L 52.333333333333336 111.0 L 53.0 112.0 L 53.666666666666664 113.0 L 54.333333333333336 114.0 L 54.666666666666664 115.0 L 55.333333333333336 116.0 L 56.0 117.0 L 57.0 118.0 L 58.0 119.0 L 59.0 120.0 L 60.0 121.0 L 61.0 122.0 L 61.666666666666664 123.0 L 62.0 124.0 L 62.333333333333336 124.66666666666667 L 63.0 125.0 L 64.0 125.0 L 65.0 125.0 L 66.0 125.0 L 67.0 125.0 L 68.0 125.0 L 68.66666666666667 124.66666666666667 L 69.0 124.0 L 68.66666666666667 123.0 L 68.0 122.0 L 67.0 121.0 L 66.0 120.0 L 65.0 119.0 L 64.0 118.0 L 63.0 117.0 L 62.333333333333336 116.0 L 61.666666666666664 115.0 L 61.0 114.0 L 60.0 113.0 L 59.0 112.0 L 58.333333333333336 111.0 L 57.666666666666664 110.0 L 57.0 109.0 L 56.333333333333336 108.0 L 55.666666666666664 107.0 L 55.0 106.0 L 54.333333333333336 105.0 L 53.666666666666664 104.0 L 53.333333333333336 103.0 L 52.666666666666664 102.0 L 52.333333333333336 101.0 L 51.666666666666664 100.0 L 51.333333333333336 99.0 L 50.666666666666664 98.0 L 50.333333333333336 97.0 L 50.0 96.0 L 50.0 95.0 L 49.666666666666664 94.0 L 49.333333333333336 93.0 L 49.0 92.0 L 49.0 91.0 L 49.0 90.0 L 49.0 89.0 L 49.0 88.0 L 49.0 87.0 L 49.0 86.0 L 49.0 85.0 L 49.0 84.0 L 49.0 83.0 L 49.0 82.0 L 49.0 81.0 L 49.0 80.0 L 49.0 79.0 L 49.0 78.0 L 49.0 77.0 L 49.333333333333336 76.0 L 49.666666666666664 75.0 L 50.333333333333336 74.0 L 51.0 73.33333333333333 L 52.0 73.0 L 53.0 73.33333333333333 L 54.0 74.0 L 55.0 75.0 L 56.0 75.66666666666667 L 57.0 76.33333333333333 L 58.0 77.0 L 59.0 77.66666666666667 L 60.0 78.33333333333333 L 61.0 79.0 L 62.0 80.0 L 63.0 80.66666666666667 L 64.0 81.33333333333333 L 65.0 82.0 L 66.0 82.66666666666667 L 67.0 83.33333333333333 L 68.0 83.66666666666667 L 69.0 84.33333333333333 L 70.0 85.0 L 71.0 85.66666666666667 L 71.5 86.0 Z" stroke="none" fill="rgb(45,49,48)" />
<path d="M 21.5 36.5 L 22.0 37.0 L 23.0 38.0 L 24.0 39.0 L 24.666666666666668 40.0 L 25.333333333333332 41.0 L 26.0 42.0 L 27.0 43.0 L 28.0 43.666666666666664 L 29.0 43.666666666666664 L 30.0 43.0 L 30.666666666666668 42.0 L 31.333333333333332 41.0 L 32.0 40.0 L 32.666666666666664 39.0 L 33.333333333333336 38.0 L 33.666666666666664 37.0 L 34.333333333333336 36.0 L 34.666666666666664 35.0 L 35.333333333333336 34.0 L 35.666666666666664 33.0 L 36.333333333333336 32.0 L 36.666666666666664 31.0 L 37.0 30.0 L 37.333333333333336 29.0 L 37.666666666666664 28.0 L 38.0 27.0 L 38.333333333333336 26.0 L 38.666666666666664 25.0 L 39.0 24.0 L 39.333333333333336 23.0 L 39.666666666666664 22.0 L 40.0 21.0 L 40.0 20.0 L 40.333333333333336 19.0 L 40.666666666666664 18.0 L 41.333333333333336 17.0 L 41.666666666666664 16.0 L 42.0 15.0 L 42.333333333333336 14.0 L 42.666666666666664 13.0 L 43.333333333333336 12.0 L 44.0 11.0 L 44.666666666666664 10.0 L 45.333333333333336 9.0 L 45.666666666666664 8.0 L 45.666666666666664 7.0 L 45.0 6.333333333333333 L 44.0 6.0 L 43.0 6.333333333333333 L 42.0 6.666666666666667 L 41.0 7.0 L 40.0 7.333333333333333 L 39.0 7.666666666666667 L 38.0 8.333333333333334 L 37.0 8.666666666666666 L 36.0 9.333333333333334 L 35.0 9.666666666666666 L 34.0 10.333333333333334 L 33.0 10.666666666666666 L 32.0 11.333333333333334 L 31.0 12.0 L 30.0 12.666666666666666 L 29.0 13.333333333333334 L 28.0 14.0 L 27.0 14.666666666666666 L 26.0 15.333333333333334 L 25.0 16.0 L 24.0 17.0 L 23.0 18.0 L 22.0 19.0 L 21.0 20.0 L 20.0 21.0 L 19.0 22.0 L 18.0 23.0 L 17.0 24.0 L 16.333333333333332 25.0 L 16.0 26.0 L 16.0 27.0 L 16.0 28.0 L 16.333333333333332 29.0 L 17.0 30.0 L 17.666666666666668 31.0 L 18.333333333333332 32.0 L 19.0 33.0 L 20.0 34.0 L 20.666666666666668 35.0 L 21.0 35.5 Z" stroke="none" fill="rgb(239,108,50)" />
<path d="M 55.5 60.5 L 56.0 60.0 L 57.0 59.0 L 58.0 58.333333333333336 L 59.0 57.666666666666664 L 60.0 57.333333333333336 L 61.0 56.666666666666664 L 62.0 56.333333333333336 L 63.0 55.666666666666664 L 64.0 55.333333333333336 L 65.0 54.666666666666664 L 66.0 54.333333333333336 L 67.0 54.0 L 68.0 54.0 L 69.0 53.666666666666664 L 70.0 53.333333333333336 L 71.0 53.0 L 72.0 53.0 L 73.0 52.666666666666664 L 74.0 52.333333333333336 L 75.0 52.0 L 76.0 52.0 L 77.0 52.0 L 78.0 52.0 L 79.0 52.0 L 80.0 51.666666666666664 L 81.0 51.333333333333336 L 82.0 51.0 L 83.0 51.0 L 84.0 51.0 L 85.0 51.0 L 86.0 51.0 L 87.0 51.0 L 88.0 51.0 L 89.0 51.0 L 90.0 51.0 L 91.0 51.0 L 92.0 51.0 L 93.0 51.0 L 94.0 51.0 L 95.0 51.0 L 96.0 51.0 L 97.0 51.0 L 98.0 51.0 L 99.0 51.0 L 100.0 51.0 L 101.0 51.0 L 102.0 51.0 L 103.0 51.0 L 104.0 51.0 L 105.0 51.0 L 106.0 51.0 L 107.0 51.0 L 108.0 51.0 L 109.0 51.0 L 110.0 51.333333333333336 L 111.0 51.666666666666664 L 112.0 52.0 L 113.0 52.0 L 114.0 52.0 L 115.0 52.0 L 116.0 52.0 L 117.0 52.0 L 117.66666666666667 51.666666666666664 L 118.0 51.0 L 118.0 50.0 L 118.0 49.0 L 118.0 48.0 L 118.0 47.0 L 118.0 46.0 L 118.0 45.0 L 118.0 44.0 L 118.0 43.0 L 118.0 42.0 L 118.0 41.0 L 118.0 40.0 L 118.0 39.0 L 118.0 38.0 L 117.66666666666667 37.0 L 117.33333333333333 36.0 L 116.66666666666667 35.0 L 116.33333333333333 34.0 L 115.66666666666667 33.0 L 115.33333333333333 32.0 L 114.66666666666667 31.0 L 114.0 30.0 L 113.33333333333333 29.0 L 112.66666666666667 28.0 L 112.0 27.0 L 111.33333333333333 26.0 L 110.66666666666667 25.0 L 110.0 24.0 L 109.0 23.0 L 108.0 22.0 L 107.0 21.0 L 106.0 20.0 L 105.0 19.0 L 104.0 18.0 L 103.0 17.0 L 102.0 16.333333333333332 L 101.0 16.0 L 100.0 16.0 L 99.0 16.333333333333332 L 98.0 16.666666666666668 L 97.0 17.0 L 96.0 17.0 L 95.0 17.333333333333332 L 94.0 17.666666666666668 L 93.0 18.0 L 92.0 18.333333333333332 L 91.0 18.666666666666668 L 90.0 19.0 L 89.0 19.333333333333332 L 88.0 19.666666666666668 L 87.0 20.333333333333332 L 86.0 20.666666666666668 L 85.0 21.0 L 84.0 21.333333333333332 L 83.0 21.666666666666668 L 82.0 22.333333333333332 L 81.0 22.666666666666668 L 80.0 23.333333333333332 L 79.0 24.0 L 78.0 24.666666666666668 L 77.0 25.333333333333332 L 76.0 25.666666666666668 L 75.0 26.333333333333332 L 74.0 27.0 L 73.0 27.666666666666668 L 72.0 28.333333333333332 L 71.0 29.0 L 70.0 29.666666666666668 L 69.0 30.333333333333332 L 68.0 31.0 L 67.0 32.0 L 66.0 33.0 L 65.0 33.666666666666664 L 64.0 34.333333333333336 L 63.0 35.0 L 62.0 36.0 L 61.0 37.0 L 60.0 38.0 L 59.0 39.0 L 58.0 40.0 L 57.0 41.0 L 56.0 41.666666666666664 L 55.0 42.333333333333336 L 54.0 43.0 L 53.0 44.0 L 52.0 45.0 L 51.0 46.0 L 50.0 47.0 L 49.0 48.0 L 48.0 49.0 L 47.0 50.0 L 46.333333333333336 51.0 L 45.666666666666664 52.0 L 45.0 53.0 L 44.0 54.0 L 43.0 55.0 L 42.333333333333336 56.0 L 42.0 57.0 L 42.333333333333336 58.0 L 43.0 59.0 L 44.0 60.0 L 45.0 61.0 L 46.0 62.0 L 47.0 63.0 L 48.0 63.666666666666664 L 49.0 64.0 L 50.0 64.0 L 51.0 63.666666666666664 L 52.0 63.0 L 53.0 62.0 L 54.0 61.333333333333336 L 54.5 61.0 Z" stroke="none" fill="rgb(239,108,50)" />
<path d="M 23.5 51.5 L 24.0 51.0 L 24.666666666666668 50.0 L 25.0 49.0 L 25.0 48.0 L 25.0 47.0 L 24.666666666666668 46.0 L 24.0 45.0 L 23.0 44.0 L 22.0 43.0 L 21.333333333333332 42.0 L 20.666666666666668 41.0 L 20.0 40.0 L 19.0 39.0 L 18.0 38.0 L 17.333333333333332 37.0 L 16.666666666666668 36.0 L 16.0 35.0 L 15.0 34.0 L 14.0 33.0 L 13.0 32.333333333333336 L 12.0 32.333333333333336 L 11.0 33.0 L 10.333333333333334 34.0 L 9.666666666666666 35.0 L 9.333333333333334 36.0 L 8.666666666666666 37.0 L 8.333333333333334 38.0 L 8.0 39.0 L 7.666666666666667 40.0 L 7.333333333333333 41.0 L 6.666666666666667 42.0 L 6.333333333333333 43.0 L 6.0 44.0 L 5.666666666666667 45.0 L 5.333333333333333 46.0 L 5.0 47.0 L 5.0 48.0 L 4.666666666666667 49.0 L 4.333333333333333 50.0 L 4.0 51.0 L 4.0 52.0 L 4.0 53.0 L 3.6666666666666665 54.0 L 3.3333333333333335 55.0 L 3.0 56.0 L 3.0 57.0 L 3.0 58.0 L 3.0 59.0 L 3.0 60.0 L 3.0 61.0 L 3.0 62.0 L 3.0 63.0 L 3.3333333333333335 64.0 L 4.0 64.66666666666667 L 5.0 65.0 L 6.0 64.66666666666667 L 7.0 64.33333333333333 L 8.0 63.666666666666664 L 9.0 63.333333333333336 L 10.0 62.666666666666664 L 11.0 62.333333333333336 L 12.0 61.666666666666664 L 13.0 61.0 L 14.0 60.333333333333336 L 15.0 59.666666666666664 L 16.0 59.0 L 17.0 58.0 L 18.0 57.0 L 19.0 56.0 L 20.0 55.0 L 21.0 54.0 L 22.0 53.0 L 22.5 52.5 Z" stroke="none" fill="rgb(239,108,50)" />
<path d="M 120.5 53.0 L 121.0 53.333333333333336 L 122.0 53.666666666666664 L 123.0 54.0 L 123.66666666666667 53.666666666666664 L 124.0 53.0 L 123.66666666666667 52.0 L 123.33333333333333 51.0 L 123.0 50.0 L 123.0 49.0 L 122.66666666666667 48.0 L 122.33333333333333 47.0 L 122.0 46.0 L 121.66666666666667 45.0 L 121.33333333333333 44.0 L 121.0 43.0 L 120.66666666666667 42.0 L 120.33333333333333 41.0 L 119.66666666666667 40.333333333333336 L 119.0 40.0 L 118.33333333333333 40.333333333333336 L 118.0 41.0 L 118.0 42.0 L 118.0 43.0 L 118.0 44.0 L 118.0 45.0 L 118.0 46.0 L 118.0 47.0 L 118.0 48.0 L 118.0 49.0 L 118.0 50.0 L 118.0 51.0 L 118.0 52.0 L 118.33333333333333 52.666666666666664 L 119.0 53.0 L 119.5 53.0 Z" stroke="none" fill="rgb(220,88,25)" />
<path d="M 24.0 79.5 L 24.333333333333332 79.0 L 24.666666666666668 78.0 L 25.0 77.0 L 25.333333333333332 76.0 L 25.666666666666668 75.0 L 26.333333333333332 74.0 L 26.666666666666668 73.0 L 27.333333333333332 72.0 L 28.0 71.0 L 28.666666666666668 70.0 L 29.333333333333332 69.0 L 29.666666666666668 68.0 L 30.333333333333332 67.0 L 30.666666666666668 66.0 L 31.333333333333332 65.0 L 32.0 64.0 L 32.666666666666664 63.0 L 33.333333333333336 62.0 L 34.0 61.0 L 34.666666666666664 60.0 L 35.0 59.0 L 34.666666666666664 58.0 L 34.0 57.0 L 33.0 56.0 L 32.0 55.0 L 31.0 54.0 L 30.0 53.333333333333336 L 29.0 53.0 L 28.0 53.333333333333336 L 27.0 54.0 L 26.0 55.0 L 25.0 56.0 L 24.0 57.0 L 23.0 58.0 L 22.0 59.0 L 21.0 60.0 L 20.0 60.666666666666664 L 19.0 61.333333333333336 L 18.0 62.0 L 17.0 63.0 L 16.0 63.666666666666664 L 15.0 64.33333333333333 L 14.0 65.0 L 13.0 65.66666666666667 L 12.0 66.33333333333333 L 11.0 66.66666666666667 L 10.0 67.33333333333333 L 9.0 67.66666666666667 L 8.0 68.33333333333333 L 7.0 68.66666666666667 L 6.0 69.0 L 5.0 69.0 L 4.0 69.33333333333333 L 3.3333333333333335 70.0 L 3.0 71.0 L 3.0 72.0 L 3.0 73.0 L 3.3333333333333335 74.0 L 3.6666666666666665 75.0 L 4.0 76.0 L 4.0 77.0 L 4.0 78.0 L 4.333333333333333 79.0 L 4.666666666666667 80.0 L 5.0 81.0 L 5.333333333333333 82.0 L 5.666666666666667 83.0 L 6.0 84.0 L 6.333333333333333 85.0 L 6.666666666666667 86.0 L 7.0 87.0 L 7.333333333333333 88.0 L 7.666666666666667 89.0 L 8.333333333333334 90.0 L 8.666666666666666 91.0 L 9.333333333333334 92.0 L 9.666666666666666 93.0 L 10.333333333333334 94.0 L 10.666666666666666 95.0 L 11.333333333333334 96.0 L 12.0 97.0 L 12.666666666666666 98.0 L 13.333333333333334 99.0 L 14.0 100.0 L 14.666666666666666 101.0 L 15.333333333333334 102.0 L 16.0 103.0 L 17.0 103.66666666666667 L 18.0 104.0 L 18.666666666666668 103.66666666666667 L 19.0 103.0 L 19.0 102.0 L 19.0 101.0 L 19.0 100.0 L 19.0 99.0 L 19.0 98.0 L 19.0 97.0 L 19.0 96.0 L 19.333333333333332 95.0 L 19.666666666666668 94.0 L 20.0 93.0 L 20.0 92.0 L 20.0 91.0 L 20.333333333333332 90.0 L 20.666666666666668 89.0 L 21.0 88.0 L 21.0 87.0 L 21.333333333333332 86.0 L 21.666666666666668 85.0 L 22.333333333333332 84.0 L 22.666666666666668 83.0 L 23.0 82.0 L 23.333333333333332 81.0 L 23.5 80.5 Z" stroke="none" fill="rgb(239,108,50)" />
<path d="M 59.5 72.5 L 60.0 73.0 L 61.0 74.0 L 62.0 74.66666666666667 L 63.0 75.33333333333333 L 64.0 76.0 L 65.0 76.66666666666667 L 66.0 77.33333333333333 L 67.0 78.0 L 68.0 78.66666666666667 L 69.0 79.33333333333333 L 70.0 80.0 L 71.0 80.66666666666667 L 72.0 81.33333333333333 L 73.0 82.0 L 74.0 82.66666666666667 L 75.0 83.33333333333333 L 76.0 83.66666666666667 L 77.0 84.33333333333333 L 78.0 85.0 L 79.0 85.66666666666667 L 80.0 86.33333333333333 L 81.0 86.66666666666667 L 82.0 87.33333333333333 L 83.0 87.66666666666667 L 84.0 88.33333333333333 L 85.0 88.66666666666667 L 86.0 89.33333333333333 L 87.0 90.0 L 88.0 90.66666666666667 L 89.0 91.33333333333333 L 90.0 91.66666666666667 L 91.0 92.33333333333333 L 92.0 92.66666666666667 L 93.0 93.33333333333333 L 94.0 93.66666666666667 L 95.0 94.33333333333333 L 96.0 94.66666666666667 L 97.0 95.0 L 97.66666666666667 94.66666666666667 L 98.0 94.0 L 98.33333333333333 93.0 L 99.0 92.0 L 100.0 91.0 L 101.0 90.0 L 102.0 89.0 L 103.0 88.0 L 103.66666666666667 87.0 L 104.33333333333333 86.0 L 105.0 85.0 L 106.0 84.0 L 106.66666666666667 83.0 L 107.33333333333333 82.0 L 107.66666666666667 81.0 L 108.33333333333333 80.0 L 109.0 79.0 L 109.66666666666667 78.0 L 110.33333333333333 77.0 L 110.66666666666667 76.0 L 111.33333333333333 75.0 L 111.66666666666667 74.0 L 112.33333333333333 73.0 L 112.66666666666667 72.0 L 113.0 71.0 L 113.33333333333333 70.0 L 113.66666666666667 69.0 L 114.0 68.0 L 114.33333333333333 67.0 L 114.66666666666667 66.0 L 115.0 65.0 L 115.33333333333333 64.0 L 115.66666666666667 63.0 L 116.0 62.0 L 116.0 61.0 L 116.33333333333333 60.0 L 116.66666666666667 59.0 L 116.66666666666667 58.0 L 116.0 57.333333333333336 L 115.0 56.666666666666664 L 114.0 56.333333333333336 L 113.0 56.0 L 112.0 56.0 L 111.0 56.0 L 110.0 56.0 L 109.0 56.0 L 108.0 55.666666666666664 L 107.0 55.333333333333336 L 106.0 55.0 L 105.0 55.0 L 104.0 55.0 L 103.0 55.0 L 102.0 55.0 L 101.0 55.0 L 100.0 55.0 L 99.0 55.0 L 98.0 55.0 L 97.0 55.0 L 96.0 55.0 L 95.0 55.0 L 94.0 55.0 L 93.0 55.0 L 92.0 55.0 L 91.0 55.0 L 90.0 55.0 L 89.0 55.0 L 88.0 55.0 L 87.0 55.0 L 86.0 55.0 L 85.0 55.0 L 84.0 55.333333333333336 L 83.0 55.666666666666664 L 82.0 56.0 L 81.0 56.0 L 80.0 56.0 L 79.0 56.0 L 78.0 56.0 L 77.0 56.0 L 76.0 56.0 L 75.0 56.333333333333336 L 74.0 56.666666666666664 L 73.0 57.0 L 72.0 57.0 L 71.0 57.0 L 70.0 57.333333333333336 L 69.0 57.666666666666664 L 68.0 58.0 L 67.0 58.333333333333336 L 66.0 58.666666666666664 L 65.0 59.0 L 64.0 59.333333333333336 L 63.0 59.666666666666664 L 62.0 60.333333333333336 L 61.0 61.0 L 60.0 61.666666666666664 L 59.0 62.333333333333336 L 58.0 63.0 L 57.0 64.0 L 56.0 65.0 L 55.333333333333336 66.0 L 55.0 67.0 L 55.333333333333336 68.0 L 56.0 69.0 L 57.0 70.0 L 58.0 71.0 L 58.5 71.5 Z" stroke="none" fill="rgb(239,108,50)" />
<path d="M 104.5 98.0 L 105.0 98.33333333333333 L 106.0 98.66666666666667 L 107.0 99.0 L 108.0 99.33333333333333 L 109.0 99.66666666666667 L 110.0 100.33333333333333 L 111.0 100.66666666666667 L 112.0 101.0 L 112.66666666666667 100.66666666666667 L 113.33333333333333 100.0 L 114.0 99.0 L 114.66666666666667 98.0 L 115.33333333333333 97.0 L 115.66666666666667 96.0 L 116.33333333333333 95.0 L 116.66666666666667 94.0 L 117.33333333333333 93.0 L 117.66666666666667 92.0 L 118.33333333333333 91.0 L 118.66666666666667 90.0 L 119.33333333333333 89.0 L 119.66666666666667 88.0 L 120.33333333333333 87.0 L 120.66666666666667 86.0 L 121.0 85.0 L 121.33333333333333 84.0 L 121.66666666666667 83.0 L 122.0 82.0 L 122.33333333333333 81.0 L 122.66666666666667 80.0 L 123.0 79.0 L 123.0 78.0 L 123.0 77.0 L 123.33333333333333 76.0 L 123.66666666666667 75.0 L 124.0 74.0 L 124.0 73.0 L 124.0 72.0 L 124.0 71.0 L 124.0 70.0 L 124.33333333333333 69.0 L 124.66666666666667 68.0 L 125.0 67.0 L 125.0 66.0 L 125.0 65.0 L 125.0 64.0 L 125.0 63.0 L 125.0 62.0 L 125.0 61.0 L 125.0 60.0 L 124.66666666666667 59.0 L 124.0 58.333333333333336 L 123.0 58.0 L 122.0 58.0 L 121.0 58.0 L 120.0 58.0 L 119.0 58.0 L 118.0 58.0 L 117.0 58.333333333333336 L 116.33333333333333 59.0 L 116.0 60.0 L 116.0 61.0 L 115.66666666666667 62.0 L 115.33333333333333 63.0 L 115.0 64.0 L 114.66666666666667 65.0 L 114.33333333333333 66.0 L 114.0 67.0 L 113.66666666666667 68.0 L 113.33333333333333 69.0 L 113.0 70.0 L 112.66666666666667 71.0 L 112.33333333333333 72.0 L 111.66666666666667 73.0 L 111.33333333333333 74.0 L 110.66666666666667 75.0 L 110.33333333333333 76.0 L 109.66666666666667 77.0 L 109.0 78.0 L 108.33333333333333 79.0 L 107.66666666666667 80.0 L 107.33333333333333 81.0 L 106.66666666666667 82.0 L 106.0 83.0 L 105.0 84.0 L 104.33333333333333 85.0 L 103.66666666666667 86.0 L 103.0 87.0 L 102.0 88.0 L 101.0 89.0 L 100.0 90.0 L 99.0 91.0 L 98.33333333333333 92.0 L 98.0 93.0 L 98.0 94.0 L 98.33333333333333 95.0 L 99.0 95.66666666666667 L 100.0 96.33333333333333 L 101.0 96.66666666666667 L 102.0 97.33333333333333 L 103.0 97.66666666666667 L 103.5 98.0 Z" stroke="none" fill="rgb(220,88,25)" />
<path d="M 24.5 111.5 L 25.0 111.66666666666667 L 26.0 112.33333333333333 L 27.0 113.0 L 28.0 113.66666666666667 L 29.0 113.66666666666667 L 30.0 113.33333333333333 L 31.0 113.0 L 32.0 113.33333333333333 L 33.0 113.66666666666667 L 34.0 114.0 L 35.0 114.0 L 36.0 114.33333333333333 L 37.0 114.66666666666667 L 38.0 115.0 L 39.0 115.0 L 40.0 115.0 L 41.0 115.0 L 42.0 115.33333333333333 L 43.0 115.66666666666667 L 44.0 116.0 L 45.0 116.0 L 46.0 116.0 L 47.0 116.0 L 48.0 116.0 L 49.0 116.0 L 50.0 116.0 L 51.0 116.0 L 52.0 116.0 L 53.0 116.0 L 54.0 116.0 L 54.666666666666664 115.66666666666667 L 55.0 115.0 L 54.666666666666664 114.0 L 54.333333333333336 113.0 L 53.666666666666664 112.0 L 53.0 111.0 L 52.333333333333336 110.0 L 51.666666666666664 109.0 L 51.0 108.0 L 50.333333333333336 107.0 L 49.666666666666664 106.0 L 49.333333333333336 105.0 L 48.666666666666664 104.0 L 48.333333333333336 103.0 L 47.666666666666664 102.0 L 47.333333333333336 101.0 L 47.0 100.0 L 46.666666666666664 99.0 L 46.333333333333336 98.0 L 46.0 97.0 L 45.666666666666664 96.0 L 45.333333333333336 95.0 L 45.0 94.0 L 44.666666666666664 93.0 L 44.333333333333336 92.0 L 44.0 91.0 L 44.0 90.0 L 44.0 89.0 L 44.0 88.0 L 44.0 87.0 L 44.0 86.0 L 44.0 85.0 L 44.0 84.0 L 44.0 83.0 L 44.0 82.0 L 44.333333333333336 81.0 L 44.666666666666664 80.0 L 45.0 79.0 L 45.0 78.0 L 45.0 77.0 L 45.0 76.0 L 45.333333333333336 75.0 L 45.666666666666664 74.0 L 46.0 73.0 L 46.0 72.0 L 46.333333333333336 71.0 L 46.666666666666664 70.0 L 47.0 69.0 L 46.666666666666664 68.0 L 46.0 67.0 L 45.0 66.0 L 44.0 65.33333333333333 L 43.0 64.66666666666667 L 42.0 64.0 L 41.0 63.0 L 40.0 62.333333333333336 L 39.0 62.333333333333336 L 38.0 63.0 L 37.0 64.0 L 36.0 65.0 L 35.333333333333336 66.0 L 34.666666666666664 67.0 L 34.333333333333336 68.0 L 33.666666666666664 69.0 L 33.0 70.0 L 32.333333333333336 71.0 L 31.666666666666668 72.0 L 31.333333333333332 73.0 L 30.666666666666668 74.0 L 30.333333333333332 75.0 L 29.666666666666668 76.0 L 29.333333333333332 77.0 L 28.666666666666668 78.0 L 28.333333333333332 79.0 L 28.0 80.0 L 27.666666666666668 81.0 L 27.333333333333332 82.0 L 26.666666666666668 83.0 L 26.333333333333332 84.0 L 26.0 85.0 L 25.666666666666668 86.0 L 25.333333333333332 87.0 L 25.0 88.0 L 25.0 89.0 L 24.666666666666668 90.0 L 24.333333333333332 91.0 L 24.0 92.0 L 24.0 93.0 L 24.0 94.0 L 23.666666666666668 95.0 L 23.333333333333332 96.0 L 23.0 97.0 L 23.0 98.0 L 23.0 99.0 L 23.0 100.0 L 23.0 101.0 L 23.0 102.0 L 23.0 103.0 L 23.0 104.0 L 23.0 105.0 L 22.666666666666668 106.0 L 22.333333333333332 107.0 L 22.0 108.0 L 22.333333333333332 109.0 L 23.0 110.0 L 23.5 110.5 Z" stroke="none" fill="rgb(239,108,50)" />
<path d="M 59.5 113.5 L 60.0 114.0 L 61.0 114.66666666666667 L 62.0 115.0 L 63.0 115.0 L 64.0 115.0 L 65.0 114.66666666666667 L 66.0 114.33333333333333 L 67.0 114.0 L 68.0 113.66666666666667 L 69.0 113.33333333333333 L 70.0 113.0 L 71.0 112.66666666666667 L 72.0 112.33333333333333 L 73.0 111.66666666666667 L 74.0 111.33333333333333 L 75.0 110.66666666666667 L 76.0 110.33333333333333 L 77.0 109.66666666666667 L 78.0 109.33333333333333 L 79.0 108.66666666666667 L 80.0 108.33333333333333 L 81.0 107.66666666666667 L 82.0 107.33333333333333 L 83.0 106.66666666666667 L 84.0 106.0 L 85.0 105.33333333333333 L 86.0 104.66666666666667 L 87.0 104.0 L 88.0 103.0 L 89.0 102.0 L 90.0 101.0 L 91.0 100.0 L 91.66666666666667 99.0 L 92.0 98.0 L 91.66666666666667 97.0 L 91.0 96.33333333333333 L 90.0 95.66666666666667 L 89.0 95.33333333333333 L 88.0 94.66666666666667 L 87.0 94.33333333333333 L 86.0 93.66666666666667 L 85.0 93.33333333333333 L 84.0 92.66666666666667 L 83.0 92.33333333333333 L 82.0 91.66666666666667 L 81.0 91.33333333333333 L 80.0 90.66666666666667 L 79.0 90.0 L 78.0 89.33333333333333 L 77.0 88.66666666666667 L 76.0 88.33333333333333 L 75.0 87.66666666666667 L 74.0 87.0 L 73.0 86.33333333333333 L 72.0 85.66666666666667 L 71.0 85.0 L 70.0 84.33333333333333 L 69.0 83.66666666666667 L 68.0 83.33333333333333 L 67.0 82.66666666666667 L 66.0 82.0 L 65.0 81.33333333333333 L 64.0 80.66666666666667 L 63.0 80.0 L 62.0 79.0 L 61.0 78.33333333333333 L 60.0 77.66666666666667 L 59.0 77.0 L 58.0 76.33333333333333 L 57.0 75.66666666666667 L 56.0 75.0 L 55.0 74.0 L 54.0 73.33333333333333 L 53.0 72.66666666666667 L 52.0 72.33333333333333 L 51.0 72.33333333333333 L 50.333333333333336 73.0 L 49.666666666666664 74.0 L 49.333333333333336 75.0 L 49.0 76.0 L 49.0 77.0 L 49.0 78.0 L 49.0 79.0 L 49.0 80.0 L 49.0 81.0 L 49.0 82.0 L 49.0 83.0 L 49.0 84.0 L 49.0 85.0 L 49.0 86.0 L 49.0 87.0 L 49.0 88.0 L 49.0 89.0 L 49.0 90.0 L 49.0 91.0 L 49.0 92.0 L 49.0 93.0 L 49.333333333333336 94.0 L 49.666666666666664 95.0 L 50.0 96.0 L 50.0 97.0 L 50.333333333333336 98.0 L 50.666666666666664 99.0 L 51.333333333333336 100.0 L 51.666666666666664 101.0 L 52.333333333333336 102.0 L 52.666666666666664 103.0 L 53.333333333333336 104.0 L 53.666666666666664 105.0 L 54.333333333333336 106.0 L 55.0 107.0 L 55.666666666666664 108.0 L 56.333333333333336 109.0 L 57.0 110.0 L 57.666666666666664 111.0 L 58.333333333333336 112.0 L 58.5 112.5 Z" stroke="none" fill="rgb(239,108,50)" />
<path d="M 95.5 116.5 L 96.0 116.33333333333333 L 97.0 115.66666666666667 L 98.0 115.33333333333333 L 99.0 114.66666666666667 L 100.0 114.0 L 101.0 113.0 L 102.0 112.0 L 103.0 111.33333333333333 L 104.0 110.66666666666667 L 105.0 110.0 L 106.0 109.0 L 107.0 108.0 L 108.0 107.0 L 108.66666666666667 106.0 L 108.66666666666667 105.0 L 108.0 104.0 L 107.0 103.33333333333333 L 106.0 103.0 L 105.0 102.66666666666667 L 104.0 102.33333333333333 L 103.0 101.66666666666667 L 102.0 101.33333333333333 L 101.0 101.0 L 100.0 100.66666666666667 L 99.0 100.33333333333333 L 98.0 99.66666666666667 L 97.0 99.33333333333333 L 96.0 98.66666666666667 L 95.0 98.33333333333333 L 94.0 98.0 L 93.0 98.0 L 92.0 98.33333333333333 L 91.0 99.0 L 90.0 100.0 L 89.0 101.0 L 88.0 102.0 L 87.0 103.0 L 86.0 104.0 L 85.0 104.66666666666667 L 84.0 105.33333333333333 L 83.0 106.0 L 82.0 106.66666666666667 L 81.0 107.33333333333333 L 80.0 107.66666666666667 L 79.0 108.33333333333333 L 78.0 108.66666666666667 L 77.0 109.33333333333333 L 76.0 109.66666666666667 L 75.0 110.33333333333333 L 74.0 110.66666666666667 L 73.0 111.33333333333333 L 72.0 111.66666666666667 L 71.0 112.33333333333333 L 70.0 112.66666666666667 L 69.0 113.0 L 68.0 113.33333333333333 L 67.0 113.66666666666667 L 66.0 114.0 L 65.0 114.33333333333333 L 64.0 114.66666666666667 L 63.0 115.0 L 62.333333333333336 115.33333333333333 L 62.0 116.0 L 62.333333333333336 117.0 L 63.0 118.0 L 64.0 119.0 L 65.0 120.0 L 66.0 121.0 L 67.0 122.0 L 68.0 123.0 L 69.0 123.66666666666667 L 70.0 124.0 L 71.0 124.0 L 72.0 124.0 L 73.0 124.0 L 74.0 124.0 L 75.0 124.0 L 76.0 124.0 L 77.0 123.66666666666667 L 78.0 123.33333333333333 L 79.0 123.0 L 80.0 123.0 L 81.0 122.66666666666667 L 82.0 122.33333333333333 L 83.0 122.0 L 84.0 122.0 L 85.0 121.66666666666667 L 86.0 121.33333333333333 L 87.0 120.66666666666667 L 88.0 120.33333333333333 L 89.0 120.0 L 90.0 119.66666666666667 L 91.0 119.33333333333333 L 92.0 118.66666666666667 L 93.0 118.33333333333333 L 94.0 117.66666666666667 L 94.5 117.5 Z" stroke="none" fill="rgb(220,88,25)" />
<path d="M 43.5 121.5 L 44.0 121.66666666666667 L 45.0 122.0 L 46.0 122.33333333333333 L 47.0 122.66666666666667 L 48.0 123.0 L 49.0 123.0 L 50.0 123.33333333333333 L 51.0 123.66666666666667 L 52.0 124.0 L 53.0 124.0 L 54.0 124.0 L 55.0 124.0 L 56.0 124.0 L 57.0 124.0 L 58.0 124.33333333333333 L 59.0 124.66666666666667 L 60.0 125.0 L 61.0 125.0 L 61.666666666666664 124.66666666666667 L 62.0 124.0 L 62.0 123.0 L 61.666666666666664 122.0 L 61.0 121.0 L 60.0 120.0 L 59.0 119.0 L 58.0 118.0 L 57.0 117.0 L 56.0 116.33333333333333 L 55.0 116.0 L 54.0 116.0 L 53.0 116.0 L 52.0 116.0 L 51.0 116.0 L 50.0 116.0 L 49.0 116.0 L 48.0 116.0 L 47.0 116.0 L 46.0 116.0 L 45.0 116.0 L 44.0 115.66666666666667 L 43.0 115.33333333333333 L 42.0 115.0 L 41.0 115.0 L 40.0 115.0 L 39.0 115.0 L 38.0 114.66666666666667 L 37.0 114.33333333333333 L 36.0 114.0 L 35.0 114.0 L 34.0 113.66666666666667 L 33.0 113.33333333333333 L 32.0 113.0 L 31.0 113.0 L 30.0 113.0 L 29.333333333333332 113.33333333333333 L 29.0 114.0 L 29.333333333333332 114.66666666666667 L 30.0 115.33333333333333 L 31.0 116.0 L 32.0 116.66666666666667 L 33.0 117.33333333333333 L 34.0 117.66666666666667 L 35.0 118.33333333333333 L 36.0 118.66666666666667 L 37.0 119.33333333333333 L 38.0 119.66666666666667 L 39.0 120.0 L 40.0 120.33333333333333 L 41.0 120.66666666666667 L 42.0 121.0 L 42.5 121.0 Z" stroke="none" fill="rgb(220,88,25)" />
</svg>
