<?xml version="1.0" encoding="UTF-8" standalone="no"?>
<!DOCTYPE svg PUBLIC "-//W3C//DTD SVG 1.1//EN"
"http://www.w3.org/Graphics/SVG/1.1/DTD/svg11.dtd">
<svg width="128" height="128" xmlns="http://www.w3.org/2000/svg" version="1.1">
<path d="M 107.5 128.0 L 108.0 128.0 L 109.0 128.0 L 110.0 128.0 L 111.0 128.0 L 112.0 128.0 L 113.0 128.0 L 114.0 128.0 L 115.0 128.0 L 116.0 128.0 L 117.0 128.0 L 118.0 128.0 L 119.0 128.0 L 120.0 128.0 L 121.0 128.0 L 122.0 128.0 L 123.0 128.0 L 124.0 128.0 L 125.0 128.0 L 126.0 128.0 L 127.0 128.0 L 127.66666666666667 127.66666666666667 L 128.0 127.0 L 128.0 126.0 L 128.0 125.0 L 128.0 124.0 L 128.0 123.0 L 128.0 122.0 L 128.0 121.0 L 128.0 120.0 L 128.0 119.0 L 128.0 118.0 L 128.0 117.0 L 128.0 116.0 L 128.0 115.0 L 128.0 114.0 L 128.0 113.0 L 128.0 112.0 L 128.0 111.0 L 128.0 110.0 L 128.0 109.0 L 128.0 108.0 L 128.0 107.0 L 128.0 106.0 L 128.0 105.0 L 128.0 104.0 L 128.0 103.0 L 128.0 102.0 L 128.0 101.0 L 128.0 100.0 L 128.0 99.0 L 128.0 98.0 L 128.0 97.0 L 128.0 96.0 L 128.0 95.0 L 128.0 94.0 L 128.0 93.0 L 128.0 92.0 L 128.0 91.0 L 128.0 90.0 L 128.0 89.0 L 128.0 88.0 L 128.0 87.0 L 128.0 86.0 L 128.0 85.0 L 128.0 84.0 L 128.0 83.0 L 128.0 82.0 L 128.0 81.0 L 128.0 80.0 L 128.0 79.0 L 128.0 78.0 L 128.0 77.0 L 128.0 76.0 L 128.0 75.0 L 128.0 74.0 L 128.0 73.0 L 128.0 72.0 L 128.0 71.0 L 128.0 70.0 L 128.0 69.0 L 128.0 68.0 L 128.0 67.0 L 128.0 66.0 L 128.0 65.0 L 128.0 64.0 L 128.0 63.0 L 128.0 62.0 L 128.0 61.0 L 128.0 60.0 L 128.0 59.0 L 128.0 58.0 L 128.0 57.0 L 128.0 56.0 L 128.0 55.0 L 128.0 54.0 L 128.0 53.0 L 128.0 52.0 L 128.0 51.0 L 128.0 50.0 L 128.0 49.0 L 128.0 48.0 L 128.0 47.0 L 128.0 46.0 L 128.0 45.0 L 128.0 44.0 L 128.0 43.0 L 128.0 42.0 L 128.0 41.0 L 128.0 40.0 L 128.0 39.0 L 128.0 38.0 L 128.0 37.0 L 128.0 36.0 L 128.0 35.0 L 128.0 34.0 L 128.0 33.0 L 128.0 32.0 L 128.0 31.0 L 128.0 30.0 L 128.0 29.0 L 128.0 28.0 L 128.0 27.0 L 128.0 26.0 L 128.0 25.0 L 128.0 24.0 L 128.0 23.0 L 128.0 22.0 L 128.0 21.0 L 128.0 20.0 L 128.0 19.0 L 128.0 18.0 L 128.0 17.0 L 128.0 16.0 L 128.0 15.0 L 128.0 14.0 L 128.0 13.0 L 128.0 12.0 L 128.0 11.0 L 128.0 10.0 L 128.0 9.0 L 128.0 8.0 L 128.0 7.0 L 128.0 6.0 L 128.0 5.0 L 128.0 4.0 L 128.0 3.0 L 128.0 2.0 L 128.0 1.0 L 127.66666666666667 0.3333333333333333 L 127.0 0.0 L 126.0 0.0 L 125.0 0.0 L 124.0 0.0 L 123.0 0.0 L 122.0 0.0 L 121.0 0.0 L 120.0 0.0 L 119.0 0.0 L 118.0 0.0 L 117.0 0.0 L 116.0 0.0 L 115.0 0.0 L 114.0 0.0 L 113.0 0.0 L 112.0 0.0 L 111.0 0.0 L 110.0 0.0 L 109.0 0.0 L 108.0 0.0 L 107.0 0.0 L 106.0 0.0 L 105.0 0.0 L 104.0 0.0 L 103.0 0.0 L 102.0 0.0 L 101.0 0.0 L 100.0 0.0 L 99.0 0.0 L 98.0 0.0 L 97.0 0.0 L 96.0 0.0 L 95.0 0.0 L 94.0 0.0 L 93.0 0.0 L 92.0 0.0 L 91.0 0.0 L 90.0 0.0 L 89.0 0.0 L 88.0 0.0 L 87.0 0.0 L 86.0 0.0 L 85.0 0.0 L 84.0 0.0 L 83.0 0.0 L 82.0 0.0 L 81.0 0.0 L 80.0 0.0 L 79.0 0.0 L 78.0 0.0 L 77.0 0.0 L 76.0 0.0 L 75.0 0.0 L 74.0 0.0 L 73.0 0.0 L 72.0 0.0 L 71.0 0.0 L 70.0 0.0 L 69.0 0.0 L 68.0 0.0 L 67.0 0.0 L 66.0 0.0 L 65.0 0.0 L 64.0 0.0 L 63.0 0.0 L 62.0 0.0 L 61.0 0.0 L 60.0 0.0 L 59.0 0.0 L 58.0 0.0 L 57.0 0.0 L 56.0 0.0 L 55.0 0.0 L 54.0 0.0 L 53.0 0.0 L 52.0 0.0 L 51.0 0.0 L 50.0 0.0 L 49.0 0.0 L 48.0 0.0 L 47.0 0.0 L 46.0 0.0 L 45.0 0.0 L 44.0 0.0 L 43.0 0.0 L 42.0 0.0 L 41.0 0.0 L 40.0 0.0 L 39.0 0.0 L 38.0 0.0 L 37.0 0.0 L 36.0 0.0 L 35.0 0.0 L 34.0 0.0 L 33.0 0.0 L 32.0 0.0 L 31.0 0.0 L 30.0 0.0 L 29.0 0.0 L 28.0 0.0 L 27.0 0.0 L 26.0 0.0 L 25.0 0.0 L 24.0 0.0 L 23.0 0.0 L 22.0 0.0 L 21.0 0.0 L 20.0 0.0 L 19.0 0.0 L 18.0 0.0 L 17.0 0.0 L 16.0 0.0 L 15.0 0.0 L 14.0 0.0 L 13.0 0.0 L 12.0 0.0 L 11.0 0.0 L 10.0 0.0 L 9.0 0.0 L 8.0 0.0 L 7.0 0.0 L 6.0 0.0 L 5.0 0.0 L 4.0 0.0 L 3.0 0.0 L 2.0 0.0 L 1.0 0.0 L 0.3333333333333333 0.3333333333333333 L 0.0 1.0 L 0.0 2.0 L 0.0 3.0 L 0.0 4.0 L 0.0 5.0 L 0.0 6.0 L 0.0 7.0 L 0.0 8.0 L 0.0 9.0 L 0.0 10.0 L 0.0 11.0 L 0.0 12.0 L 0.0 13.0 L 0.0 14.0 L 0.0 15.0 L 0.0 16.0 L 0.0 17.0 L 0.0 18.0 L 0.0 19.0 L 0.0 20.0 L 0.0 21.0 L 0.0 22.0 L 0.0 23.0 L 0.0 24.0 L 0.0 25.0 L 0.0 26.0 L 0.0 27.0 L 0.0 28.0 L 0.0 29.0 L 0.0 30.0 L 0.0 31.0 L 0.0 32.0 L 0.0 33.0 L 0.0 34.0 L 0.0 35.0 L 0.0 36.0 L 0.0 37.0 L 0.0 38.0 L 0.0 39.0 L 0.0 40.0 L 0.0 41.0 L 0.0 42.0 L 0.0 43.0 L 0.0 44.0 L 0.0 45.0 L 0.0 46.0 L 0.0 47.0 L 0.0 48.0 L 0.0 49.0 L 0.0 50.0 L 0.0 51.0 L 0.0 52.0 L 0.0 53.0 L 0.0 54.0 L 0.0 55.0 L 0.0 56.0 L 0.0 57.0 L 0.0 58.0 L 0.0 59.0 L 0.0 60.0 L 0.0 61.0 L 0.0 62.0 L 0.0 63.0 L 0.0 64.0 L 0.0 65.0 L 0.0 66.0 L 0.0 67.0 L 0.0 68.0 L 0.0 69.0 L 0.0 70.0 L 0.0 71.0 L 0.0 72.0 L 0.0 73.0 L 0.0 74.0 L 0.0 75.0 L 0.0 76.0 L 0.0 77.0 L 0.0 78.0 L 0.0 79.0 L 0.0 80.0 L 0.0 81.0 L 0.0 82.0 L 0.0 83.0 L 0.0 84.0 L 0.0 85.0 L 0.0 86.0 L 0.0 87.0 L 0.0 88.0 L 0.0 89.0 L 0.0 90.0 L 0.0 91.0 L 0.0 92.0 L 0.0 93.0 L 0.0 94.0 L 0.0 95.0 L 0.0 96.0 L 0.0 97.0 L 0.0 98.0 L 0.0 99.0 L 0.0 100.0 L 0.0 101.0 L 0.0 102.0 L 0.0 103.0 L 0.0 104.0 L 0.0 105.0 L 0.0 106.0 L 0.0 107.0 L 0.0 108.0 L 0.0 109.0 L 0.0 110.0 L 0.0 111.0 L 0.0 112.0 L 0.0 113.0 L 0.0 114.0 L 0.0 115.0 L 0.0 116.0 L 0.0 117.0 L 0.0 118.0 L 0.0 119.0 L 0.0 120.0 L 0.0 121.0 L 0.0 122.0 L 0.0 123.0 L 0.0 124.0 L 0.0 125.0 L 0.0 126.0 L 0.0 127.0 L 0.3333333333333333 127.66666666666667 L 1.0 128.0 L 2.0 128.0 L 3.0 128.0 L 4.0 128.0 L 5.0 128.0 L 6.0 128.0 L 7.0 128.0 L 8.0 128.0 L 9.0 128.0 L 10.0 128.0 L 11.0 128.0 L 12.0 128.0 L 13.0 128.0 L 14.0 128.0 L 15.0 128.0 L 16.0 128.0 L 17.0 128.0 L 18.0 128.0 L 19.0 128.0 L 20.0 128.0 L 21.0 128.0 L 22.0 128.0 L 23.0 128.0 L 24.0 128.0 L 25.0 128.0 L 26.0 128.0 L 27.0 128.0 L 28.0 128.0 L 29.0 128.0 L 30.0 128.0 L 31.0 128.0 L 32.0 128.0 L 33.0 128.0 L 34.0 128.0 L 35.0 128.0 L 36.0 128.0 L 37.0 128.0 L 38.0 128.0 L 39.0 128.0 L 40.0 128.0 L 41.0 128.0 L 42.0 128.0 L 43.0 128.0 L 44.0 128.0 L 45.0 128.0 L 46.0 128.0 L 47.0 128.0 L 48.0 128.0 L 49.0 128.0 L 50.0 128.0 L 51.0 128.0 L 52.0 128.0 L 53.0 128.0 L 54.0 128.0 L 55.0 128.0 L 56.0 128.0 L 57.0 128.0 L 58.0 128.0 L 59.0 128.0 L 60.0 128.0 L 61.0 128.0 L 62.0 128.0 L 63.0 128.0 L 64.0 128.0 L 65.0 128.0 L 66.0 128.0 L 67.0 128.0 L 68.0 128.0 L 69.0 128.0 L 70.0 128.0 L 71.0 128.0 L 72.0 128.0 L 73.0 128.0 L 74.0 128.0 L 75.0 128.0 L 76.0 128.0 L 77.0 128.0 L 78.0 128.0 L 79.0 128.0 L 80.0 128.0 L 81.0 128.0 L 82.0 128.0 L 83.0 128.0 L 84.0 128.0 L 85.0 128.0 L 86.0 128.0 L 87.0 128.0 L 88.0 128.0 L 89.0 128.0 L 90.0 128.0 L 91.0 128.0 L 92.0 128.0 L 93.0 128.0 L 94.0 128.0 L 95.0 128.0 L 96.0 128.0 L 97.0 128.0 L 98.0 128.0 L 99.0 128.0 L 100.0 128.0 L 101.0 128.0 L 102.0 128.0 L 103.0 128.0 L 104.0 128.0 L 105.0 128.0 L 106.0 128.0 L 106.5 128.0 Z" stroke="none" fill="rgb(255,255,255)" />
<path d="M 59.5 96.0 L 60.0 96.0 L 61.0 96.0 L 62.0 96.0 L 63.0 96.0 L 64.0 96.0 L 65.0 96.0 L 66.0 96.0 L 67.0 96.0 L 68.0 96.0 L 69.0 96.0 L 70.0 96.0 L 71.0 96.0 L 72.0 96.33333333333333 L 73.0 96.66666666666667 L 74.0 96.66666666666667 L 75.0 96.33333333333333 L 75.66666666666667 95.66666666666667 L 76.33333333333333 95.0 L 77.0 94.33333333333333 L 78.0 93.66666666666667 L 79.0 93.33333333333333 L 80.0 93.0 L 81.0 93.0 L 82.0 93.0 L 83.0 93.0 L 84.0 93.0 L 84.66666666666667 92.66666666666667 L 85.0 92.0 L 85.0 91.0 L 85.0 90.0 L 85.33333333333333 89.0 L 86.0 88.0 L 87.0 87.0 L 88.0 86.0 L 89.0 85.0 L 89.66666666666667 84.0 L 90.33333333333333 83.0 L 91.0 82.0 L 91.66666666666667 81.0 L 92.33333333333333 80.0 L 92.66666666666667 79.0 L 93.33333333333333 78.0 L 93.66666666666667 77.0 L 94.33333333333333 76.0 L 94.66666666666667 75.0 L 95.33333333333333 74.0 L 95.66666666666667 73.0 L 96.0 72.0 L 96.0 71.0 L 96.33333333333333 70.0 L 96.66666666666667 69.0 L 97.0 68.0 L 97.0 67.0 L 97.0 66.0 L 96.66666666666667 65.0 L 96.0 64.0 L 95.33333333333333 63.0 L 95.0 62.0 L 95.0 61.0 L 95.0 60.0 L 95.0 59.0 L 95.0 58.0 L 95.0 57.0 L 95.0 56.0 L 95.0 55.0 L 95.0 54.0 L 95.0 53.0 L 95.0 52.0 L 94.66666666666667 51.0 L 94.0 50.0 L 93.0 49.333333333333336 L 92.0 48.666666666666664 L 91.0 48.333333333333336 L 90.0 47.666666666666664 L 89.0 47.333333333333336 L 88.0 46.666666666666664 L 87.0 46.333333333333336 L 86.0 46.0 L 85.0 45.666666666666664 L 84.0 45.333333333333336 L 83.0 44.666666666666664 L 82.0 44.333333333333336 L 81.0 43.666666666666664 L 80.0 43.333333333333336 L 79.0 43.0 L 78.0 42.666666666666664 L 77.0 42.333333333333336 L 76.0 42.0 L 75.0 41.666666666666664 L 74.0 41.333333333333336 L 73.0 41.0 L 72.0 40.666666666666664 L 71.0 40.333333333333336 L 70.0 40.0 L 69.0 40.0 L 68.0 40.0 L 67.0 40.0 L 66.0 40.0 L 65.0 40.0 L 64.0 40.0 L 63.0 40.333333333333336 L 62.0 40.666666666666664 L 61.0 41.0 L 60.0 41.0 L 59.0 41.0 L 58.0 41.333333333333336 L 57.0 41.666666666666664 L 56.0 42.0 L 55.0 42.0 L 54.0 42.333333333333336 L 53.0 42.666666666666664 L 52.0 43.0 L 51.0 43.0 L 50.0 43.333333333333336 L 49.0 43.666666666666664 L 48.0 44.0 L 47.333333333333336 44.333333333333336 L 47.0 45.0 L 47.333333333333336 45.666666666666664 L 48.0 46.333333333333336 L 49.0 46.666666666666664 L 50.0 47.0 L 51.0 47.333333333333336 L 52.0 48.0 L 53.0 49.0 L 53.666666666666664 50.0 L 53.666666666666664 51.0 L 53.0 51.333333333333336 L 52.0 51.333333333333336 L 51.0 51.0 L 50.0 51.0 L 49.0 51.0 L 48.0 51.0 L 47.0 51.0 L 46.0 51.0 L 45.0 51.0 L 44.0 51.0 L 43.0 51.0 L 42.0 50.666666666666664 L 41.333333333333336 50.0 L 41.0 49.0 L 41.0 48.0 L 40.666666666666664 47.333333333333336 L 40.0 47.333333333333336 L 39.0 47.666666666666664 L 38.0 48.333333333333336 L 37.0 48.666666666666664 L 36.333333333333336 49.333333333333336 L 35.666666666666664 50.0 L 35.333333333333336 51.0 L 35.0 52.0 L 35.0 53.0 L 35.0 54.0 L 35.0 55.0 L 35.0 56.0 L 34.666666666666664 57.0 L 34.333333333333336 58.0 L 34.0 59.0 L 34.0 60.0 L 33.666666666666664 61.0 L 33.333333333333336 62.0 L 33.0 63.0 L 33.0 64.0 L 32.666666666666664 65.0 L 32.333333333333336 66.0 L 32.0 67.0 L 32.0 68.0 L 32.0 69.0 L 32.0 70.0 L 32.0 71.0 L 32.0 72.0 L 32.333333333333336 73.0 L 32.666666666666664 74.0 L 33.333333333333336 75.0 L 33.666666666666664 76.0 L 34.333333333333336 77.0 L 34.666666666666664 78.0 L 35.333333333333336 79.0 L 36.0 80.0 L 36.666666666666664 81.0 L 37.333333333333336 82.0 L 38.0 83.0 L 39.0 84.0 L 40.0 85.0 L 41.0 86.0 L 42.0 87.0 L 43.0 88.0 L 43.666666666666664 89.0 L 44.333333333333336 90.0 L 45.0 91.0 L 46.0 91.66666666666667 L 47.0 92.33333333333333 L 48.0 92.66666666666667 L 49.0 93.0 L 50.0 93.33333333333333 L 51.0 93.66666666666667 L 52.0 94.33333333333333 L 53.0 95.0 L 53.666666666666664 96.0 L 54.333333333333336 96.66666666666667 L 55.0 96.66666666666667 L 56.0 96.33333333333333 L 57.0 96.0 L 58.0 96.0 L 58.5 96.0 Z" stroke="none" fill="rgb(224,187,149)" />
<path d="M 88.5 38.0 L 89.0 38.0 L 90.0 37.666666666666664 L 91.0 37.333333333333336 L 92.0 37.333333333333336 L 93.0 37.666666666666664 L 94.0 38.333333333333336 L 95.0 38.666666666666664 L 96.0 39.333333333333336 L 97.0 39.666666666666664 L 98.0 40.333333333333336 L 99.0 40.666666666666664 L 100.0 41.333333333333336 L 101.0 42.0 L 102.0 42.666666666666664 L 103.0 43.333333333333336 L 104.0 44.0 L 105.0 45.0 L 106.0 45.666666666666664 L 107.0 46.0 L 107.66666666666667 45.666666666666664 L 108.0 45.0 L 108.0 44.0 L 107.66666666666667 43.0 L 107.0 42.0 L 106.0 41.0 L 105.0 40.333333333333336 L 104.0 39.666666666666664 L 103.0 39.0 L 102.66666666666667 38.0 L 103.0 37.333333333333336 L 104.0 37.0 L 105.0 37.0 L 106.0 37.0 L 107.0 37.0 L 108.0 37.0 L 108.66666666666667 36.666666666666664 L 109.0 36.0 L 109.0 35.0 L 108.66666666666667 34.333333333333336 L 108.0 34.0 L 107.0 34.0 L 106.0 34.0 L 105.0 34.0 L 104.0 34.0 L 103.0 34.0 L 102.0 34.0 L 101.0 34.0 L 100.0 34.0 L 99.0 34.0 L 98.0 34.0 L 97.0 34.0 L 96.0 34.0 L 95.0 34.0 L 94.0 34.0 L 93.0 34.0 L 92.0 34.0 L 91.0 34.0 L 90.0 34.0 L 89.0 34.0 L 88.0 34.0 L 87.0 34.0 L 86.0 34.0 L 85.0 34.0 L 84.0 34.0 L 83.0 34.0 L 82.0 34.0 L 81.0 34.0 L 80.0 34.0 L 79.0 34.0 L 78.0 34.0 L 77.0 34.333333333333336 L 76.0 34.666666666666664 L 75.0 35.0 L 74.0 35.333333333333336 L 73.0 35.666666666666664 L 72.0 36.0 L 71.0 36.0 L 70.0 36.0 L 69.0 36.0 L 68.0 36.0 L 67.0 36.0 L 66.0 36.333333333333336 L 65.0 36.666666666666664 L 64.0 37.0 L 63.0 37.0 L 62.0 37.0 L 61.0 37.333333333333336 L 60.0 37.666666666666664 L 59.0 38.0 L 58.0 38.0 L 57.0 38.0 L 56.0 38.0 L 55.0 38.0 L 54.0 38.0 L 53.0 38.333333333333336 L 52.0 38.666666666666664 L 51.0 39.333333333333336 L 50.0 39.666666666666664 L 49.0 40.0 L 48.0 40.333333333333336 L 47.0 40.666666666666664 L 46.0 41.0 L 45.0 41.0 L 44.0 41.333333333333336 L 43.0 41.666666666666664 L 42.0 42.333333333333336 L 41.0 42.666666666666664 L 40.0 43.333333333333336 L 39.0 43.666666666666664 L 38.0 44.333333333333336 L 37.0 44.666666666666664 L 36.0 45.0 L 35.0 45.333333333333336 L 34.0 45.666666666666664 L 33.0 46.333333333333336 L 32.0 47.0 L 31.0 47.666666666666664 L 30.0 48.333333333333336 L 29.0 48.666666666666664 L 28.0 49.333333333333336 L 27.0 49.666666666666664 L 26.0 50.333333333333336 L 25.0 51.0 L 24.0 52.0 L 23.0 52.666666666666664 L 22.333333333333332 53.333333333333336 L 22.0 54.0 L 22.0 55.0 L 22.333333333333332 56.0 L 23.0 57.0 L 24.0 58.0 L 25.0 58.666666666666664 L 26.0 58.666666666666664 L 26.666666666666668 58.0 L 27.333333333333332 57.0 L 28.0 56.333333333333336 L 28.666666666666668 55.666666666666664 L 29.0 55.0 L 29.333333333333332 54.0 L 30.0 53.333333333333336 L 31.0 52.666666666666664 L 32.0 52.333333333333336 L 33.0 51.666666666666664 L 34.0 51.333333333333336 L 35.0 51.0 L 35.666666666666664 50.666666666666664 L 36.333333333333336 50.0 L 37.0 49.333333333333336 L 38.0 48.666666666666664 L 39.0 48.333333333333336 L 40.0 48.0 L 41.0 48.0 L 42.0 48.0 L 43.0 48.0 L 44.0 48.0 L 45.0 47.666666666666664 L 46.0 47.333333333333336 L 46.666666666666664 46.666666666666664 L 47.0 46.0 L 47.333333333333336 45.0 L 48.0 44.333333333333336 L 49.0 44.0 L 50.0 43.666666666666664 L 51.0 43.333333333333336 L 52.0 43.0 L 53.0 43.0 L 54.0 42.666666666666664 L 55.0 42.333333333333336 L 56.0 42.0 L 57.0 42.0 L 58.0 41.666666666666664 L 59.0 41.333333333333336 L 60.0 41.0 L 61.0 41.0 L 62.0 41.0 L 63.0 40.666666666666664 L 64.0 40.333333333333336 L 65.0 40.0 L 66.0 40.0 L 67.0 40.0 L 68.0 40.0 L 69.0 40.0 L 70.0 40.0 L 71.0 39.666666666666664 L 72.0 39.333333333333336 L 73.0 39.0 L 74.0 39.0 L 75.0 39.0 L 76.0 38.666666666666664 L 77.0 38.333333333333336 L 78.0 38.0 L 79.0 38.0 L 80.0 38.0 L 81.0 38.0 L 82.0 38.0 L 83.0 38.0 L 84.0 38.0 L 85.0 38.0 L 86.0 38.0 L 87.0 38.0 L 87.5 38.0 Z" stroke="none" fill="rgb(185,187,189)" />
<path d="M 55.5 112.5 L 56.0 113.0 L 57.0 113.66666666666667 L 58.0 114.0 L 59.0 114.0 L 60.0 114.33333333333333 L 60.666666666666664 115.0 L 61.0 116.0 L 61.0 117.0 L 61.0 118.0 L 61.0 119.0 L 61.0 120.0 L 61.0 121.0 L 61.0 122.0 L 61.0 123.0 L 61.0 124.0 L 61.333333333333336 124.66666666666667 L 62.0 125.0 L 63.0 125.0 L 64.0 125.0 L 65.0 125.0 L 66.0 125.0 L 66.66666666666667 124.66666666666667 L 67.0 124.0 L 67.0 123.0 L 67.0 122.0 L 67.0 121.0 L 67.0 120.0 L 67.0 119.0 L 67.0 118.0 L 67.0 117.0 L 67.0 116.0 L 67.33333333333333 115.0 L 68.0 114.33333333333333 L 69.0 114.0 L 70.0 114.0 L 71.0 114.0 L 72.0 114.0 L 72.66666666666667 113.66666666666667 L 73.33333333333333 113.0 L 74.0 112.33333333333333 L 75.0 111.66666666666667 L 75.66666666666667 111.0 L 76.0 110.0 L 76.33333333333333 109.0 L 77.0 108.0 L 77.66666666666667 107.0 L 78.0 106.0 L 78.0 105.0 L 78.0 104.0 L 78.0 103.0 L 78.0 102.0 L 78.0 101.0 L 78.0 100.0 L 78.0 99.0 L 78.0 98.0 L 78.0 97.0 L 77.66666666666667 96.33333333333333 L 77.0 96.0 L 76.0 96.0 L 75.0 96.0 L 74.33333333333333 96.33333333333333 L 74.0 97.0 L 74.0 98.0 L 74.0 99.0 L 73.66666666666667 100.0 L 73.33333333333333 101.0 L 73.0 102.0 L 72.66666666666667 103.0 L 72.0 104.0 L 71.0 105.0 L 70.0 106.0 L 69.0 107.0 L 68.0 107.66666666666667 L 67.0 108.0 L 66.0 108.0 L 65.0 108.0 L 64.0 108.0 L 63.0 108.0 L 62.0 108.0 L 61.0 108.0 L 60.0 107.66666666666667 L 59.0 107.0 L 58.0 106.0 L 57.0 105.0 L 56.333333333333336 104.0 L 55.666666666666664 103.0 L 55.333333333333336 102.0 L 55.0 101.0 L 55.0 100.0 L 55.0 99.0 L 55.0 98.0 L 54.666666666666664 97.0 L 54.0 96.33333333333333 L 53.0 96.0 L 52.0 96.0 L 51.0 96.0 L 50.333333333333336 96.33333333333333 L 50.0 97.0 L 50.0 98.0 L 50.0 99.0 L 50.0 100.0 L 50.0 101.0 L 50.0 102.0 L 50.0 103.0 L 50.0 104.0 L 50.0 105.0 L 50.0 106.0 L 50.333333333333336 107.0 L 51.0 108.0 L 52.0 109.0 L 53.0 110.0 L 53.666666666666664 111.0 L 54.333333333333336 111.66666666666667 L 54.5 112.0 Z" stroke="none" fill="rgb(185,187,189)" />
<path d="M 88.5 13.0 L 89.0 13.0 L 90.0 13.0 L 91.0 13.0 L 91.66666666666667 12.666666666666666 L 91.66666666666667 12.0 L 91.0 11.333333333333334 L 90.0 10.666666666666666 L 89.0 10.333333333333334 L 88.0 9.666666666666666 L 87.0 9.333333333333334 L 86.0 9.0 L 85.0 9.333333333333334 L 84.0 9.666666666666666 L 83.0 10.0 L 82.0 9.666666666666666 L 81.33333333333333 9.0 L 81.0 8.0 L 80.66666666666667 7.0 L 80.0 6.333333333333333 L 79.0 6.0 L 78.0 6.0 L 77.0 5.666666666666667 L 76.0 5.333333333333333 L 75.0 5.0 L 74.0 4.666666666666667 L 73.0 4.333333333333333 L 72.0 4.0 L 71.0 4.0 L 70.0 4.0 L 69.0 4.0 L 68.0 4.0 L 67.0 4.0 L 66.0 4.0 L 65.0 4.0 L 64.0 4.0 L 63.0 4.0 L 62.0 4.0 L 61.0 4.0 L 60.0 4.0 L 59.0 4.0 L 58.0 4.0 L 57.0 4.0 L 56.0 4.0 L 55.0 4.0 L 54.0 4.333333333333333 L 53.0 4.666666666666667 L 52.0 5.0 L 51.0 5.0 L 50.0 5.0 L 49.0 5.333333333333333 L 48.0 5.666666666666667 L 47.0 6.0 L 46.0 6.0 L 45.0 6.333333333333333 L 44.0 6.666666666666667 L 43.0 7.333333333333333 L 42.0 7.666666666666667 L 41.0 8.0 L 40.0 8.333333333333334 L 39.0 8.666666666666666 L 38.0 9.333333333333334 L 37.0 10.0 L 36.0 10.666666666666666 L 35.333333333333336 11.333333333333334 L 35.0 12.0 L 35.333333333333336 12.666666666666666 L 36.0 13.0 L 37.0 13.0 L 38.0 13.0 L 39.0 13.0 L 40.0 13.0 L 41.0 13.0 L 42.0 13.0 L 43.0 13.0 L 44.0 13.0 L 45.0 13.333333333333334 L 46.0 13.666666666666666 L 47.0 14.0 L 48.0 14.0 L 49.0 14.0 L 50.0 13.666666666666666 L 51.0 13.333333333333334 L 52.0 13.0 L 53.0 13.0 L 54.0 12.666666666666666 L 55.0 12.333333333333334 L 56.0 12.0 L 57.0 12.0 L 58.0 11.666666666666666 L 59.0 11.333333333333334 L 60.0 11.0 L 61.0 11.0 L 62.0 10.666666666666666 L 63.0 10.333333333333334 L 64.0 10.333333333333334 L 64.66666666666667 11.0 L 65.0 12.0 L 65.33333333333333 12.666666666666666 L 66.0 13.0 L 67.0 13.0 L 68.0 13.0 L 69.0 13.0 L 70.0 13.0 L 71.0 13.0 L 72.0 13.0 L 73.0 13.0 L 74.0 13.0 L 75.0 13.0 L 76.0 13.0 L 77.0 13.0 L 78.0 13.0 L 79.0 13.0 L 80.0 13.0 L 81.0 13.0 L 82.0 13.0 L 83.0 13.0 L 84.0 13.0 L 85.0 13.0 L 86.0 13.0 L 87.0 13.0 L 87.5 13.0 Z" stroke="none" fill="rgb(235,235,235)" />
<path d="M 105.0 57.5 L 105.33333333333333 57.0 L 105.66666666666667 56.0 L 106.0 55.0 L 106.33333333333333 54.0 L 106.66666666666667 53.0 L 107.0 52.0 L 107.0 51.0 L 107.0 50.0 L 107.33333333333333 49.0 L 107.66666666666667 48.0 L 107.66666666666667 47.0 L 107.0 46.0 L 106.0 45.0 L 105.0 44.0 L 104.0 43.333333333333336 L 103.0 42.666666666666664 L 102.0 42.0 L 101.0 41.333333333333336 L 100.0 40.666666666666664 L 99.0 40.333333333333336 L 98.0 39.666666666666664 L 97.0 39.333333333333336 L 96.0 38.666666666666664 L 95.0 38.333333333333336 L 94.0 37.666666666666664 L 93.0 37.333333333333336 L 92.0 37.0 L 91.0 37.0 L 90.0 37.333333333333336 L 89.0 37.666666666666664 L 88.0 38.0 L 87.0 38.0 L 86.0 38.0 L 85.0 38.0 L 84.0 38.0 L 83.0 38.0 L 82.0 38.0 L 81.0 38.0 L 80.0 38.0 L 79.0 38.0 L 78.0 38.0 L 77.0 38.0 L 76.0 38.333333333333336 L 75.0 38.666666666666664 L 74.0 39.0 L 73.0 39.0 L 72.0 39.0 L 71.33333333333333 39.333333333333336 L 71.0 40.0 L 71.33333333333333 40.666666666666664 L 72.0 41.0 L 73.0 41.333333333333336 L 74.0 41.666666666666664 L 75.0 42.0 L 76.0 42.333333333333336 L 77.0 42.666666666666664 L 78.0 43.0 L 79.0 43.333333333333336 L 80.0 43.666666666666664 L 81.0 44.333333333333336 L 82.0 44.666666666666664 L 83.0 45.333333333333336 L 84.0 45.666666666666664 L 85.0 46.0 L 86.0 46.333333333333336 L 87.0 46.666666666666664 L 88.0 47.333333333333336 L 89.0 47.666666666666664 L 90.0 48.333333333333336 L 91.0 48.666666666666664 L 92.0 49.333333333333336 L 93.0 50.0 L 94.0 51.0 L 95.0 51.666666666666664 L 96.0 52.333333333333336 L 97.0 52.666666666666664 L 98.0 53.333333333333336 L 99.0 54.0 L 100.0 55.0 L 101.0 56.0 L 102.0 57.0 L 103.0 57.666666666666664 L 104.0 58.0 L 104.5 58.0 Z" stroke="none" fill="rgb(196,198,199)" />
<path d="M 71.5 23.0 L 72.0 23.0 L 73.0 23.0 L 74.0 23.0 L 75.0 23.0 L 76.0 22.666666666666668 L 77.0 22.333333333333332 L 78.0 22.0 L 79.0 22.0 L 80.0 22.0 L 81.0 22.333333333333332 L 82.0 22.666666666666668 L 83.0 23.0 L 84.0 23.0 L 85.0 23.0 L 86.0 23.0 L 87.0 23.0 L 88.0 23.0 L 89.0 23.0 L 89.66666666666667 22.666666666666668 L 90.33333333333333 22.0 L 91.0 21.333333333333332 L 92.0 21.0 L 93.0 21.0 L 94.0 21.0 L 95.0 21.333333333333332 L 96.0 21.666666666666668 L 97.0 22.0 L 98.0 22.0 L 99.0 22.0 L 100.0 22.0 L 101.0 22.0 L 102.0 22.0 L 102.66666666666667 21.666666666666668 L 103.0 21.0 L 102.66666666666667 20.0 L 102.0 19.0 L 101.0 18.333333333333332 L 100.0 18.0 L 99.0 18.333333333333332 L 98.0 18.666666666666668 L 97.0 19.0 L 96.0 19.0 L 95.0 19.0 L 94.0 19.0 L 93.0 19.0 L 92.0 19.0 L 91.0 19.0 L 90.0 19.0 L 89.0 19.0 L 88.0 19.0 L 87.0 19.0 L 86.0 19.0 L 85.0 19.0 L 84.0 19.0 L 83.0 19.0 L 82.0 19.0 L 81.0 19.0 L 80.0 19.0 L 79.0 19.0 L 78.0 19.0 L 77.0 19.0 L 76.0 19.0 L 75.0 19.0 L 74.0 19.0 L 73.0 19.0 L 72.0 19.0 L 71.0 19.0 L 70.0 19.0 L 69.0 19.0 L 68.0 19.0 L 67.0 19.0 L 66.0 19.0 L 65.0 19.0 L 64.0 19.0 L 63.0 19.0 L 62.0 19.0 L 61.0 19.0 L 60.0 19.0 L 59.0 19.0 L 58.0 19.0 L 57.0 19.0 L 56.0 19.0 L 55.0 19.0 L 54.0 19.0 L 53.0 19.0 L 52.0 19.0 L 51.0 19.0 L 50.0 19.0 L 49.0 19.0 L 48.0 18.666666666666668 L 47.0 18.333333333333332 L 46.0 18.0 L 45.0 18.0 L 44.0 18.333333333333332 L 43.0 18.666666666666668 L 42.0 19.333333333333332 L 41.0 19.666666666666668 L 40.333333333333336 20.333333333333332 L 40.0 21.0 L 40.333333333333336 21.666666666666668 L 41.0 22.0 L 42.0 22.0 L 43.0 22.0 L 44.0 22.0 L 45.0 22.0 L 46.0 22.0 L 47.0 22.0 L 48.0 22.0 L 49.0 22.0 L 50.0 22.0 L 51.0 22.0 L 52.0 22.0 L 53.0 22.0 L 54.0 22.0 L 55.0 22.0 L 56.0 22.0 L 57.0 22.0 L 58.0 22.0 L 59.0 22.0 L 60.0 22.0 L 61.0 22.0 L 62.0 22.0 L 63.0 22.0 L 64.0 22.0 L 65.0 22.333333333333332 L 66.0 22.666666666666668 L 67.0 23.0 L 68.0 23.0 L 69.0 23.0 L 70.0 23.0 L 70.5 23.0 Z" stroke="none" fill="rgb(227,227,227)" />
<path d="M 88.5 19.0 L 89.0 19.0 L 90.0 19.0 L 91.0 19.0 L 92.0 19.0 L 93.0 19.0 L 94.0 19.0 L 95.0 19.0 L 96.0 19.0 L 97.0 19.0 L 98.0 19.0 L 99.0 18.666666666666668 L 99.66666666666667 18.0 L 99.66666666666667 17.0 L 99.0 16.333333333333332 L 98.0 15.666666666666666 L 97.0 15.0 L 96.0 14.333333333333334 L 95.0 13.666666666666666 L 94.0 13.333333333333334 L 93.0 13.0 L 92.0 13.0 L 91.0 13.0 L 90.0 13.0 L 89.0 13.0 L 88.0 13.0 L 87.0 13.0 L 86.0 13.0 L 85.0 13.0 L 84.0 13.0 L 83.0 13.0 L 82.0 13.0 L 81.0 13.0 L 80.0 13.0 L 79.0 13.0 L 78.0 13.0 L 77.0 13.0 L 76.0 13.0 L 75.0 13.0 L 74.0 13.0 L 73.0 13.0 L 72.0 13.0 L 71.0 13.0 L 70.0 13.0 L 69.0 13.0 L 68.0 13.0 L 67.0 13.0 L 66.0 13.0 L 65.0 13.0 L 64.0 13.0 L 63.0 13.0 L 62.0 13.0 L 61.0 13.0 L 60.0 13.0 L 59.0 13.333333333333334 L 58.0 13.666666666666666 L 57.0 14.0 L 56.0 14.333333333333334 L 55.0 14.666666666666666 L 54.0 15.0 L 53.0 15.333333333333334 L 52.0 15.666666666666666 L 51.0 16.0 L 50.0 16.333333333333332 L 49.0 16.666666666666668 L 48.0 17.0 L 47.333333333333336 17.333333333333332 L 47.0 18.0 L 47.333333333333336 18.666666666666668 L 48.0 19.0 L 49.0 19.0 L 50.0 19.0 L 51.0 19.0 L 52.0 19.0 L 53.0 19.0 L 54.0 19.0 L 55.0 19.0 L 56.0 19.0 L 57.0 19.0 L 58.0 19.0 L 59.0 19.0 L 60.0 19.0 L 61.0 19.0 L 62.0 19.0 L 63.0 19.0 L 64.0 19.0 L 65.0 19.0 L 66.0 19.0 L 67.0 19.0 L 68.0 19.0 L 69.0 19.0 L 70.0 19.0 L 71.0 19.0 L 72.0 19.0 L 73.0 19.0 L 74.0 19.0 L 75.0 19.0 L 76.0 19.0 L 77.0 19.0 L 78.0 19.0 L 79.0 19.0 L 80.0 19.0 L 81.0 19.0 L 82.0 19.0 L 83.0 19.0 L 84.0 19.0 L 85.0 19.0 L 86.0 19.0 L 87.0 19.0 L 87.5 19.0 Z" stroke="none" fill="rgb(230,230,230)" />
<path d="M 91.5 34.0 L 92.0 34.0 L 93.0 34.0 L 94.0 34.0 L 95.0 34.0 L 96.0 34.0 L 97.0 34.0 L 98.0 34.0 L 99.0 34.0 L 100.0 34.0 L 101.0 34.0 L 102.0 34.0 L 103.0 34.0 L 104.0 34.0 L 105.0 34.0 L 106.0 34.0 L 107.0 34.0 L 108.0 34.0 L 108.66666666666667 33.666666666666664 L 109.0 33.0 L 109.0 32.0 L 109.0 31.0 L 108.66666666666667 30.0 L 108.0 29.333333333333332 L 107.0 29.333333333333332 L 106.0 29.666666666666668 L 105.0 30.0 L 104.0 30.0 L 103.0 30.0 L 102.0 30.0 L 101.0 30.0 L 100.0 30.0 L 99.0 30.0 L 98.0 30.0 L 97.0 30.0 L 96.0 30.0 L 95.0 30.0 L 94.0 30.0 L 93.0 30.0 L 92.0 30.0 L 91.0 30.0 L 90.0 30.0 L 89.0 30.0 L 88.0 30.0 L 87.0 30.0 L 86.0 30.0 L 85.0 30.0 L 84.0 30.0 L 83.0 30.0 L 82.0 30.0 L 81.0 30.0 L 80.0 30.0 L 79.0 30.0 L 78.0 30.0 L 77.0 30.0 L 76.0 30.0 L 75.0 30.0 L 74.0 30.0 L 73.0 30.0 L 72.0 30.0 L 71.0 30.0 L 70.0 30.0 L 69.0 30.0 L 68.0 30.0 L 67.0 30.0 L 66.0 30.0 L 65.0 30.0 L 64.0 30.0 L 63.0 30.0 L 62.0 30.0 L 61.0 29.666666666666668 L 60.0 29.333333333333332 L 59.0 29.0 L 58.0 29.0 L 57.0 29.0 L 56.0 29.333333333333332 L 55.0 29.666666666666668 L 54.0 30.0 L 53.0 30.333333333333332 L 52.0 30.666666666666668 L 51.333333333333336 31.333333333333332 L 51.0 32.0 L 51.333333333333336 32.666666666666664 L 52.0 33.0 L 53.0 33.0 L 54.0 33.0 L 55.0 33.0 L 56.0 33.0 L 57.0 33.0 L 58.0 33.0 L 59.0 33.0 L 60.0 33.0 L 61.0 33.0 L 62.0 33.0 L 63.0 33.0 L 64.0 33.0 L 65.0 33.0 L 66.0 33.0 L 67.0 33.0 L 68.0 33.0 L 69.0 33.0 L 70.0 33.0 L 71.0 33.0 L 72.0 33.0 L 73.0 33.0 L 74.0 33.0 L 75.0 33.0 L 76.0 33.333333333333336 L 77.0 33.666666666666664 L 78.0 34.0 L 79.0 34.0 L 80.0 34.0 L 81.0 34.0 L 82.0 34.0 L 83.0 34.0 L 84.0 34.0 L 85.0 34.0 L 86.0 34.0 L 87.0 34.0 L 88.0 34.0 L 89.0 34.0 L 90.0 34.0 L 90.5 34.0 Z" stroke="none" fill="rgb(215,215,215)" />
<path d="M 68.5 26.5 L 69.0 26.333333333333332 L 70.0 26.0 L 71.0 26.0 L 72.0 26.0 L 73.0 26.0 L 74.0 26.0 L 75.0 26.0 L 76.0 26.0 L 77.0 26.0 L 78.0 26.0 L 78.66666666666667 25.666666666666668 L 79.33333333333333 25.0 L 80.0 24.333333333333332 L 81.0 24.0 L 81.66666666666667 23.666666666666668 L 82.0 23.0 L 81.66666666666667 22.333333333333332 L 81.0 22.0 L 80.0 22.0 L 79.0 22.0 L 78.0 22.0 L 77.0 22.0 L 76.0 22.333333333333332 L 75.0 22.666666666666668 L 74.0 23.0 L 73.0 23.0 L 72.0 23.0 L 71.0 23.0 L 70.0 23.0 L 69.0 23.0 L 68.0 23.0 L 67.0 23.0 L 66.0 23.333333333333332 L 65.0 23.666666666666668 L 64.0 24.333333333333332 L 63.0 24.666666666666668 L 62.0 25.0 L 61.0 25.0 L 60.0 25.333333333333332 L 59.0 25.666666666666668 L 58.0 26.0 L 57.0 26.0 L 56.0 26.333333333333332 L 55.0 26.666666666666668 L 54.0 27.0 L 53.0 27.0 L 52.0 27.0 L 51.0 27.333333333333332 L 50.0 27.666666666666668 L 49.0 28.333333333333332 L 48.0 28.666666666666668 L 47.0 29.0 L 46.0 29.333333333333332 L 45.0 29.666666666666668 L 44.0 30.333333333333332 L 43.0 30.666666666666668 L 42.0 31.0 L 41.0 31.0 L 40.0 31.333333333333332 L 39.0 32.0 L 38.0 32.666666666666664 L 37.0 33.0 L 36.0 33.333333333333336 L 35.0 33.666666666666664 L 34.0 34.0 L 33.0 34.333333333333336 L 32.0 35.0 L 31.0 35.666666666666664 L 30.0 36.333333333333336 L 29.0 36.666666666666664 L 28.0 37.333333333333336 L 27.0 37.666666666666664 L 26.0 38.333333333333336 L 25.0 39.0 L 24.0 39.666666666666664 L 23.0 40.333333333333336 L 22.0 41.0 L 21.0 42.0 L 20.333333333333332 43.0 L 20.0 44.0 L 20.333333333333332 45.0 L 21.0 45.666666666666664 L 22.0 45.666666666666664 L 23.0 45.0 L 24.0 44.333333333333336 L 25.0 43.666666666666664 L 26.0 43.0 L 27.0 42.0 L 28.0 41.333333333333336 L 29.0 40.666666666666664 L 30.0 40.333333333333336 L 31.0 40.0 L 32.0 40.0 L 32.666666666666664 39.666666666666664 L 33.333333333333336 39.0 L 34.0 38.333333333333336 L 35.0 37.666666666666664 L 36.0 37.333333333333336 L 37.0 36.666666666666664 L 38.0 36.333333333333336 L 39.0 36.0 L 40.0 35.666666666666664 L 41.0 35.333333333333336 L 42.0 34.666666666666664 L 43.0 34.333333333333336 L 44.0 34.0 L 45.0 33.666666666666664 L 46.0 33.333333333333336 L 47.0 32.666666666666664 L 48.0 32.333333333333336 L 49.0 32.0 L 50.0 32.0 L 51.0 31.666666666666668 L 52.0 31.333333333333332 L 53.0 30.666666666666668 L 54.0 30.333333333333332 L 55.0 30.0 L 56.0 29.666666666666668 L 57.0 29.333333333333332 L 58.0 29.0 L 59.0 29.0 L 60.0 28.666666666666668 L 61.0 28.333333333333332 L 62.0 28.0 L 63.0 28.0 L 64.0 27.666666666666668 L 65.0 27.333333333333332 L 66.0 27.0 L 67.0 27.0 L 67.5 27.0 Z" stroke="none" fill="rgb(185,187,189)" />
<path d="M 36.5 89.5 L 37.0 89.33333333333333 L 38.0 89.33333333333333 L 39.0 90.0 L 40.0 91.0 L 41.0 92.0 L 42.0 92.66666666666667 L 43.0 93.0 L 43.666666666666664 92.66666666666667 L 44.0 92.0 L 44.0 91.0 L 44.0 90.0 L 44.0 89.0 L 43.666666666666664 88.0 L 43.0 87.0 L 42.0 86.0 L 41.0 85.0 L 40.0 84.0 L 39.0 83.0 L 38.0 82.0 L 37.333333333333336 81.0 L 36.666666666666664 80.0 L 36.0 79.0 L 35.333333333333336 78.0 L 34.666666666666664 77.0 L 34.333333333333336 76.0 L 33.666666666666664 75.0 L 33.333333333333336 74.0 L 32.666666666666664 73.0 L 32.0 72.0 L 31.0 71.0 L 30.0 70.0 L 29.0 69.0 L 28.0 68.0 L 27.333333333333332 67.0 L 26.666666666666668 66.0 L 26.333333333333332 65.0 L 26.0 64.0 L 25.666666666666668 63.0 L 25.0 62.333333333333336 L 24.0 62.0 L 23.333333333333332 62.333333333333336 L 23.0 63.0 L 23.0 64.0 L 23.0 65.0 L 23.0 66.0 L 23.0 67.0 L 23.0 68.0 L 23.0 69.0 L 23.333333333333332 70.0 L 23.666666666666668 71.0 L 24.333333333333332 72.0 L 25.0 73.0 L 26.0 74.0 L 27.0 75.0 L 28.0 76.0 L 29.0 76.66666666666667 L 30.0 77.33333333333333 L 31.0 78.0 L 31.666666666666668 79.0 L 32.0 80.0 L 31.666666666666668 81.0 L 31.0 82.0 L 30.0 82.66666666666667 L 29.0 83.0 L 28.0 83.0 L 27.0 83.0 L 26.0 83.33333333333333 L 25.333333333333332 84.0 L 25.333333333333332 85.0 L 26.0 86.0 L 27.0 86.66666666666667 L 28.0 87.0 L 29.0 87.33333333333333 L 30.0 87.66666666666667 L 31.0 88.0 L 32.0 88.33333333333333 L 33.0 89.0 L 34.0 89.66666666666667 L 35.0 90.0 L 35.5 90.0 Z" stroke="none" fill="rgb(171,135,47)" />
<path d="M 103.0 84.5 L 103.0 84.0 L 102.66666666666667 83.33333333333333 L 102.0 83.0 L 101.0 83.0 L 100.0 83.0 L 99.0 82.66666666666667 L 98.0 82.0 L 97.33333333333333 81.0 L 97.0 80.0 L 97.33333333333333 79.0 L 98.0 78.33333333333333 L 98.66666666666667 77.66666666666667 L 99.33333333333333 77.0 L 100.0 76.0 L 101.0 75.0 L 102.0 74.0 L 103.0 73.0 L 103.66666666666667 72.0 L 104.33333333333333 71.0 L 105.0 70.0 L 105.66666666666667 69.0 L 106.0 68.0 L 106.0 67.0 L 105.66666666666667 66.0 L 105.0 65.0 L 104.33333333333333 64.0 L 103.66666666666667 63.333333333333336 L 103.0 63.0 L 102.33333333333333 63.333333333333336 L 102.0 64.0 L 102.0 65.0 L 101.66666666666667 66.0 L 101.0 67.0 L 100.0 68.0 L 99.0 69.0 L 98.0 70.0 L 97.0 71.0 L 96.0 72.0 L 95.33333333333333 73.0 L 94.66666666666667 74.0 L 94.33333333333333 75.0 L 93.66666666666667 76.0 L 93.33333333333333 77.0 L 92.66666666666667 78.0 L 92.33333333333333 79.0 L 91.66666666666667 80.0 L 91.0 81.0 L 90.33333333333333 82.0 L 89.66666666666667 83.0 L 89.0 84.0 L 88.0 85.0 L 87.0 86.0 L 86.0 87.0 L 85.33333333333333 88.0 L 85.0 89.0 L 85.33333333333333 90.0 L 86.0 91.0 L 87.0 91.66666666666667 L 88.0 92.0 L 89.0 92.0 L 90.0 92.0 L 91.0 91.66666666666667 L 92.0 91.33333333333333 L 93.0 90.66666666666667 L 94.0 90.0 L 95.0 89.0 L 96.0 88.33333333333333 L 97.0 88.0 L 98.0 87.66666666666667 L 99.0 87.33333333333333 L 100.0 87.0 L 101.0 86.66666666666667 L 102.0 86.0 L 102.5 85.5 Z" stroke="none" fill="rgb(171,135,47)" />
<path d="M 95.5 122.0 L 96.0 122.0 L 97.0 122.0 L 98.0 122.0 L 99.0 122.0 L 100.0 122.0 L 101.0 122.0 L 102.0 122.0 L 103.0 122.0 L 104.0 122.0 L 105.0 122.0 L 106.0 122.0 L 107.0 122.0 L 108.0 122.0 L 109.0 122.0 L 110.0 122.0 L 111.0 122.0 L 112.0 122.0 L 113.0 122.0 L 114.0 122.0 L 115.0 122.0 L 116.0 121.66666666666667 L 116.66666666666667 121.0 L 116.66666666666667 120.0 L 116.33333333333333 119.0 L 115.66666666666667 118.33333333333333 L 115.0 118.0 L 114.0 118.0 L 113.0 118.0 L 112.0 118.0 L 111.0 118.0 L 110.0 118.0 L 109.0 118.0 L 108.0 118.0 L 107.0 118.0 L 106.0 118.0 L 105.0 118.0 L 104.0 118.0 L 103.0 118.0 L 102.0 118.0 L 101.0 118.0 L 100.0 118.0 L 99.0 118.0 L 98.0 118.0 L 97.0 118.0 L 96.0 118.0 L 95.0 118.0 L 94.0 118.0 L 93.0 118.0 L 92.0 118.0 L 91.0 118.0 L 90.0 118.0 L 89.0 118.0 L 88.0 118.0 L 87.0 118.0 L 86.0 118.0 L 85.0 118.0 L 84.0 118.0 L 83.0 118.0 L 82.0 118.0 L 81.0 118.0 L 80.0 118.0 L 79.0 118.0 L 78.0 118.0 L 77.0 118.0 L 76.0 118.0 L 75.0 118.0 L 74.0 118.0 L 73.0 118.0 L 72.0 118.0 L 71.0 118.0 L 70.0 118.0 L 69.0 118.0 L 68.0 118.0 L 67.33333333333333 118.33333333333333 L 67.0 119.0 L 67.0 120.0 L 67.0 121.0 L 67.33333333333333 121.66666666666667 L 68.0 122.0 L 69.0 122.0 L 70.0 122.0 L 71.0 122.0 L 72.0 122.0 L 73.0 122.0 L 74.0 122.0 L 75.0 122.0 L 76.0 122.0 L 77.0 122.0 L 78.0 122.0 L 79.0 122.0 L 80.0 122.0 L 81.0 122.0 L 82.0 122.0 L 83.0 122.0 L 84.0 122.0 L 85.0 122.0 L 86.0 122.0 L 87.0 122.0 L 88.0 122.0 L 89.0 122.0 L 90.0 122.0 L 91.0 122.0 L 92.0 122.0 L 93.0 122.0 L 94.0 122.0 L 94.5 122.0 Z" stroke="none" fill="rgb(223,223,223)" />
<path d="M 40.5 122.0 L 41.0 122.0 L 42.0 122.0 L 43.0 122.0 L 44.0 122.0 L 45.0 122.0 L 46.0 122.0 L 47.0 122.0 L 48.0 122.0 L 49.0 122.0 L 50.0 122.0 L 51.0 122.0 L 52.0 122.0 L 53.0 122.0 L 54.0 122.0 L 55.0 122.0 L 56.0 122.0 L 57.0 122.0 L 58.0 122.0 L 59.0 122.0 L 60.0 122.0 L 60.666666666666664 121.66666666666667 L 61.0 121.0 L 61.0 120.0 L 61.0 119.0 L 60.666666666666664 118.33333333333333 L 60.0 118.0 L 59.0 118.0 L 58.0 118.0 L 57.0 118.0 L 56.0 118.0 L 55.0 118.0 L 54.0 118.0 L 53.0 118.0 L 52.0 118.0 L 51.0 118.0 L 50.0 118.0 L 49.0 118.0 L 48.0 118.0 L 47.0 118.0 L 46.0 118.0 L 45.0 118.0 L 44.0 118.0 L 43.0 118.0 L 42.0 118.0 L 41.0 118.0 L 40.0 118.0 L 39.0 118.0 L 38.0 118.0 L 37.0 118.0 L 36.0 118.0 L 35.0 118.0 L 34.0 118.0 L 33.0 118.0 L 32.0 118.0 L 31.0 118.0 L 30.0 118.0 L 29.0 118.0 L 28.0 118.0 L 27.0 118.0 L 26.0 118.0 L 25.0 118.0 L 24.0 118.0 L 23.0 118.0 L 22.0 118.0 L 21.0 118.0 L 20.0 118.0 L 19.0 118.0 L 18.0 118.0 L 17.0 118.0 L 16.0 118.0 L 15.0 118.0 L 14.0 118.0 L 13.0 118.0 L 12.333333333333334 118.33333333333333 L 12.0 119.0 L 12.0 120.0 L 12.0 121.0 L 12.333333333333334 121.66666666666667 L 13.0 122.0 L 14.0 122.0 L 15.0 122.0 L 16.0 122.0 L 17.0 122.0 L 18.0 122.0 L 19.0 122.0 L 20.0 122.0 L 21.0 122.0 L 22.0 122.0 L 23.0 122.0 L 24.0 122.0 L 25.0 122.0 L 26.0 122.0 L 27.0 122.0 L 28.0 122.0 L 29.0 122.0 L 30.0 122.0 L 31.0 122.0 L 32.0 122.0 L 33.0 122.0 L 34.0 122.0 L 35.0 122.0 L 36.0 122.0 L 37.0 122.0 L 38.0 122.0 L 39.0 122.0 L 39.5 122.0 Z" stroke="none" fill="rgb(223,223,223)" />
<path d="M 24.5 118.0 L 25.0 118.0 L 26.0 118.0 L 27.0 118.0 L 28.0 118.0 L 29.0 118.0 L 30.0 118.0 L 31.0 118.0 L 32.0 118.0 L 33.0 118.0 L 34.0 118.0 L 35.0 118.0 L 36.0 118.0 L 37.0 118.0 L 38.0 118.0 L 39.0 118.0 L 40.0 118.0 L 41.0 118.0 L 42.0 118.0 L 43.0 118.0 L 44.0 118.0 L 45.0 118.0 L 46.0 118.0 L 47.0 118.0 L 48.0 118.0 L 49.0 118.0 L 50.0 118.0 L 51.0 118.0 L 52.0 118.0 L 53.0 118.0 L 54.0 118.0 L 55.0 118.0 L 56.0 118.0 L 57.0 118.0 L 58.0 118.0 L 59.0 118.0 L 60.0 118.0 L 60.666666666666664 117.66666666666667 L 61.0 117.0 L 61.0 116.0 L 61.0 115.0 L 60.666666666666664 114.33333333333333 L 60.0 114.0 L 59.0 114.0 L 58.0 114.0 L 57.0 114.0 L 56.0 114.0 L 55.0 114.0 L 54.0 114.0 L 53.0 114.0 L 52.0 114.0 L 51.0 114.0 L 50.0 114.0 L 49.0 114.0 L 48.0 114.0 L 47.0 114.0 L 46.0 114.0 L 45.0 114.0 L 44.0 114.0 L 43.0 114.0 L 42.0 114.0 L 41.0 114.0 L 40.0 114.0 L 39.0 114.0 L 38.0 114.0 L 37.0 114.0 L 36.0 114.0 L 35.0 114.0 L 34.0 114.0 L 33.0 114.0 L 32.0 114.0 L 31.0 114.0 L 30.0 114.0 L 29.0 114.0 L 28.0 114.0 L 27.0 114.0 L 26.0 114.0 L 25.0 114.0 L 24.0 114.0 L 23.0 114.0 L 22.0 114.0 L 21.0 114.0 L 20.0 114.0 L 19.0 114.0 L 18.0 114.0 L 17.0 114.0 L 16.0 114.0 L 15.0 114.0 L 14.0 114.0 L 13.0 114.33333333333333 L 12.333333333333334 115.0 L 12.0 116.0 L 12.0 117.0 L 12.333333333333334 117.66666666666667 L 13.0 118.0 L 14.0 118.0 L 15.0 118.0 L 16.0 118.0 L 17.0 118.0 L 18.0 118.0 L 19.0 118.0 L 20.0 118.0 L 21.0 118.0 L 22.0 118.0 L 23.0 118.0 L 23.5 118.0 Z" stroke="none" fill="rgb(219,219,219)" />
<path d="M 78.5 118.0 L 79.0 118.0 L 80.0 118.0 L 81.0 118.0 L 82.0 118.0 L 83.0 118.0 L 84.0 118.0 L 85.0 118.0 L 86.0 118.0 L 87.0 118.0 L 88.0 118.0 L 89.0 118.0 L 90.0 118.0 L 91.0 118.0 L 92.0 118.0 L 93.0 118.0 L 94.0 118.0 L 95.0 118.0 L 96.0 118.0 L 97.0 118.0 L 98.0 118.0 L 99.0 118.0 L 100.0 118.0 L 101.0 118.0 L 102.0 118.0 L 103.0 118.0 L 104.0 118.0 L 105.0 118.0 L 106.0 118.0 L 107.0 118.0 L 108.0 118.0 L 109.0 118.0 L 110.0 118.0 L 111.0 118.0 L 112.0 118.0 L 113.0 118.0 L 114.0 118.0 L 115.0 118.0 L 115.66666666666667 117.66666666666667 L 116.0 117.0 L 116.0 116.0 L 115.66666666666667 115.0 L 115.0 114.33333333333333 L 114.0 114.0 L 113.0 114.0 L 112.0 114.0 L 111.0 114.0 L 110.0 114.0 L 109.0 114.0 L 108.0 114.0 L 107.0 114.0 L 106.0 114.0 L 105.0 114.0 L 104.0 114.0 L 103.0 114.0 L 102.0 114.0 L 101.0 114.0 L 100.0 114.0 L 99.0 114.0 L 98.0 114.0 L 97.0 114.0 L 96.0 114.0 L 95.0 114.0 L 94.0 114.0 L 93.0 114.0 L 92.0 114.0 L 91.0 114.0 L 90.0 114.0 L 89.0 114.0 L 88.0 114.0 L 87.0 114.0 L 86.0 114.0 L 85.0 114.0 L 84.0 114.0 L 83.0 114.0 L 82.0 114.0 L 81.0 114.0 L 80.0 114.0 L 79.0 114.0 L 78.0 114.0 L 77.0 114.0 L 76.0 114.0 L 75.0 114.0 L 74.0 114.0 L 73.0 114.0 L 72.0 114.0 L 71.0 114.0 L 70.0 114.0 L 69.0 114.0 L 68.0 114.0 L 67.33333333333333 114.33333333333333 L 67.0 115.0 L 67.0 116.0 L 67.0 117.0 L 67.33333333333333 117.66666666666667 L 68.0 118.0 L 69.0 118.0 L 70.0 118.0 L 71.0 118.0 L 72.0 118.0 L 73.0 118.0 L 74.0 118.0 L 75.0 118.0 L 76.0 118.0 L 77.0 118.0 L 77.5 118.0 Z" stroke="none" fill="rgb(219,219,219)" />
<path d="M 105.5 30.0 L 106.0 30.0 L 107.0 29.666666666666668 L 107.66666666666667 29.0 L 108.0 28.0 L 107.66666666666667 27.0 L 107.0 26.333333333333332 L 106.0 26.0 L 105.0 26.0 L 104.0 26.0 L 103.0 26.0 L 102.0 26.0 L 101.0 26.0 L 100.0 26.0 L 99.0 26.0 L 98.0 26.0 L 97.0 26.0 L 96.0 26.0 L 95.0 26.0 L 94.0 26.0 L 93.0 26.0 L 92.0 26.0 L 91.0 26.0 L 90.0 26.0 L 89.0 26.0 L 88.0 26.0 L 87.0 26.0 L 86.0 26.0 L 85.0 26.0 L 84.0 26.0 L 83.0 26.0 L 82.0 26.0 L 81.0 26.0 L 80.0 26.0 L 79.0 26.0 L 78.0 26.0 L 77.0 26.0 L 76.0 26.0 L 75.0 26.0 L 74.0 26.0 L 73.0 26.0 L 72.0 26.0 L 71.0 26.0 L 70.0 26.0 L 69.0 26.0 L 68.0 26.333333333333332 L 67.0 26.666666666666668 L 66.0 27.0 L 65.0 27.0 L 64.0 27.333333333333332 L 63.0 27.666666666666668 L 62.0 28.0 L 61.0 28.0 L 60.333333333333336 28.333333333333332 L 60.0 29.0 L 60.333333333333336 29.666666666666668 L 61.0 30.0 L 62.0 30.0 L 63.0 30.0 L 64.0 30.0 L 65.0 30.0 L 66.0 30.0 L 67.0 30.0 L 68.0 30.0 L 69.0 30.0 L 70.0 30.0 L 71.0 30.0 L 72.0 30.0 L 73.0 30.0 L 74.0 30.0 L 75.0 30.0 L 76.0 30.0 L 77.0 30.0 L 78.0 30.0 L 79.0 30.0 L 80.0 30.0 L 81.0 30.0 L 82.0 30.0 L 83.0 30.0 L 84.0 30.0 L 85.0 30.0 L 86.0 30.0 L 87.0 30.0 L 88.0 30.0 L 89.0 30.0 L 90.0 30.0 L 91.0 30.0 L 92.0 30.0 L 93.0 30.0 L 94.0 30.0 L 95.0 30.0 L 96.0 30.0 L 97.0 30.0 L 98.0 30.0 L 99.0 30.0 L 100.0 30.0 L 101.0 30.0 L 102.0 30.0 L 103.0 30.0 L 104.0 30.0 L 104.5 30.0 Z" stroke="none" fill="rgb(219,219,219)" />
<path d="M 72.5 104.5 L 72.66666666666667 104.0 L 73.0 103.0 L 73.33333333333333 102.0 L 73.66666666666667 101.0 L 74.0 100.0 L 74.0 99.0 L 74.0 98.0 L 73.66666666666667 97.0 L 73.0 96.33333333333333 L 72.0 96.0 L 71.0 96.0 L 70.0 96.0 L 69.0 96.0 L 68.0 96.0 L 67.0 96.0 L 66.0 96.0 L 65.0 96.0 L 64.0 96.0 L 63.0 96.0 L 62.0 96.0 L 61.0 96.0 L 60.0 96.0 L 59.0 96.0 L 58.0 96.0 L 57.0 96.0 L 56.0 96.0 L 55.333333333333336 96.33333333333333 L 55.0 97.0 L 55.0 98.0 L 55.0 99.0 L 55.0 100.0 L 55.0 101.0 L 55.0 102.0 L 55.333333333333336 103.0 L 55.666666666666664 104.0 L 56.333333333333336 105.0 L 57.0 106.0 L 58.0 107.0 L 59.0 107.66666666666667 L 60.0 108.0 L 61.0 108.0 L 62.0 108.0 L 63.0 108.0 L 64.0 108.0 L 65.0 108.0 L 66.0 108.0 L 67.0 108.0 L 68.0 108.0 L 69.0 107.66666666666667 L 70.0 107.0 L 71.0 106.0 L 71.5 105.5 Z" stroke="none" fill="rgb(196,142,106)" />
<path d="M 33.0 25.5 L 33.333333333333336 25.0 L 34.0 24.0 L 35.0 23.333333333333332 L 36.0 22.666666666666668 L 37.0 22.333333333333332 L 38.0 22.0 L 39.0 22.0 L 39.666666666666664 21.666666666666668 L 40.333333333333336 21.0 L 41.0 20.333333333333332 L 42.0 19.666666666666668 L 43.0 19.333333333333332 L 44.0 18.666666666666668 L 45.0 18.333333333333332 L 46.0 18.0 L 47.0 17.666666666666668 L 48.0 17.333333333333332 L 49.0 17.0 L 50.0 16.666666666666668 L 51.0 16.333333333333332 L 52.0 16.0 L 53.0 15.666666666666666 L 54.0 15.333333333333334 L 55.0 15.0 L 56.0 14.666666666666666 L 57.0 14.333333333333334 L 58.0 14.0 L 59.0 13.666666666666666 L 60.0 13.333333333333334 L 61.0 13.0 L 62.0 13.0 L 63.0 13.0 L 64.0 13.0 L 64.66666666666667 12.666666666666666 L 65.33333333333333 12.0 L 65.66666666666667 11.0 L 65.66666666666667 10.333333333333334 L 65.0 10.0 L 64.0 10.0 L 63.0 10.0 L 62.0 10.333333333333334 L 61.0 10.666666666666666 L 60.0 11.0 L 59.0 11.0 L 58.0 11.333333333333334 L 57.0 11.666666666666666 L 56.0 12.0 L 55.0 12.0 L 54.0 12.333333333333334 L 53.0 12.666666666666666 L 52.0 13.0 L 51.0 13.0 L 50.0 13.333333333333334 L 49.0 13.666666666666666 L 48.0 14.0 L 47.0 14.0 L 46.0 14.333333333333334 L 45.0 15.0 L 44.0 15.666666666666666 L 43.0 16.0 L 42.0 16.333333333333332 L 41.0 16.666666666666668 L 40.0 17.333333333333332 L 39.0 17.666666666666668 L 38.0 18.333333333333332 L 37.0 18.666666666666668 L 36.0 19.0 L 35.0 19.333333333333332 L 34.0 19.666666666666668 L 33.0 20.333333333333332 L 32.0 21.0 L 31.0 21.666666666666668 L 30.0 22.333333333333332 L 29.0 22.666666666666668 L 28.0 23.0 L 27.0 23.333333333333332 L 26.0 24.0 L 25.0 25.0 L 24.0 25.666666666666668 L 23.0 26.333333333333332 L 22.0 27.0 L 21.0 28.0 L 20.333333333333332 29.0 L 20.0 30.0 L 20.333333333333332 31.0 L 21.0 31.666666666666668 L 22.0 31.666666666666668 L 23.0 31.0 L 24.0 30.0 L 25.0 29.333333333333332 L 26.0 28.666666666666668 L 27.0 28.333333333333332 L 28.0 27.666666666666668 L 29.0 27.0 L 30.0 26.333333333333332 L 31.0 26.0 L 32.0 26.0 L 32.5 26.0 Z" stroke="none" fill="rgb(185,187,189)" />
<path d="M 24.5 114.0 L 25.0 114.0 L 26.0 114.0 L 27.0 114.0 L 28.0 114.0 L 29.0 114.0 L 30.0 114.0 L 31.0 114.0 L 32.0 114.0 L 33.0 114.0 L 34.0 114.0 L 35.0 114.0 L 36.0 114.0 L 37.0 114.0 L 38.0 114.0 L 39.0 114.0 L 40.0 114.0 L 41.0 114.0 L 42.0 114.0 L 43.0 114.0 L 44.0 114.0 L 45.0 114.0 L 46.0 114.0 L 47.0 114.0 L 48.0 114.0 L 49.0 114.0 L 50.0 114.0 L 51.0 114.0 L 52.0 114.0 L 53.0 114.0 L 54.0 114.0 L 55.0 114.0 L 56.0 114.0 L 56.666666666666664 113.66666666666667 L 56.666666666666664 113.0 L 56.0 112.33333333333333 L 55.0 111.66666666666667 L 54.0 111.33333333333333 L 53.0 110.66666666666667 L 52.0 110.33333333333333 L 51.0 110.0 L 50.0 110.0 L 49.0 110.0 L 48.0 110.0 L 47.0 110.0 L 46.0 110.0 L 45.0 110.0 L 44.0 110.0 L 43.0 110.0 L 42.0 110.0 L 41.0 110.0 L 40.0 110.0 L 39.0 110.0 L 38.0 110.0 L 37.0 110.0 L 36.0 110.0 L 35.0 110.0 L 34.0 110.0 L 33.0 110.0 L 32.0 110.0 L 31.0 110.0 L 30.0 110.0 L 29.0 110.0 L 28.0 110.0 L 27.0 110.0 L 26.0 110.0 L 25.0 110.0 L 24.0 110.0 L 23.0 110.0 L 22.0 110.0 L 21.0 110.0 L 20.0 110.0 L 19.0 110.0 L 18.0 110.0 L 17.0 110.0 L 16.0 110.0 L 15.0 110.33333333333333 L 14.333333333333334 111.0 L 14.0 112.0 L 14.0 113.0 L 14.333333333333334 113.66666666666667 L 15.0 114.0 L 16.0 114.0 L 17.0 114.0 L 18.0 114.0 L 19.0 114.0 L 20.0 114.0 L 21.0 114.0 L 22.0 114.0 L 23.0 114.0 L 23.5 114.0 Z" stroke="none" fill="rgb(215,215,215)" />
<path d="M 91.5 114.0 L 92.0 114.0 L 93.0 114.0 L 94.0 114.0 L 95.0 114.0 L 96.0 114.0 L 97.0 114.0 L 98.0 114.0 L 99.0 114.0 L 100.0 114.0 L 101.0 114.0 L 102.0 114.0 L 103.0 114.0 L 104.0 114.0 L 105.0 114.0 L 106.0 114.0 L 107.0 114.0 L 108.0 114.0 L 109.0 114.0 L 110.0 114.0 L 111.0 114.0 L 112.0 114.0 L 113.0 114.0 L 113.66666666666667 113.66666666666667 L 114.0 113.0 L 114.0 112.0 L 113.66666666666667 111.0 L 113.0 110.33333333333333 L 112.0 110.0 L 111.0 110.0 L 110.0 110.0 L 109.0 110.0 L 108.0 110.0 L 107.0 110.0 L 106.0 110.0 L 105.0 110.0 L 104.0 110.0 L 103.0 110.0 L 102.0 110.0 L 101.0 110.0 L 100.0 110.0 L 99.0 110.0 L 98.0 110.0 L 97.0 110.0 L 96.0 110.0 L 95.0 110.0 L 94.0 110.0 L 93.0 110.0 L 92.0 110.0 L 91.0 110.0 L 90.0 110.0 L 89.0 110.0 L 88.0 110.0 L 87.0 110.0 L 86.0 110.0 L 85.0 110.0 L 84.0 110.0 L 83.0 110.0 L 82.0 110.0 L 81.0 110.0 L 80.0 110.0 L 79.0 110.0 L 78.0 110.0 L 77.0 110.0 L 76.0 110.33333333333333 L 75.0 111.0 L 74.0 111.66666666666667 L 73.33333333333333 112.33333333333333 L 73.0 113.0 L 73.33333333333333 113.66666666666667 L 74.0 114.0 L 75.0 114.0 L 76.0 114.0 L 77.0 114.0 L 78.0 114.0 L 79.0 114.0 L 80.0 114.0 L 81.0 114.0 L 82.0 114.0 L 83.0 114.0 L 84.0 114.0 L 85.0 114.0 L 86.0 114.0 L 87.0 114.0 L 88.0 114.0 L 89.0 114.0 L 90.0 114.0 L 90.5 114.0 Z" stroke="none" fill="rgb(215,215,215)" />
<path d="M 56.5 125.0 L 57.0 125.0 L 58.0 125.0 L 59.0 125.0 L 60.0 125.0 L 60.666666666666664 124.66666666666667 L 61.0 124.0 L 61.0 123.0 L 60.666666666666664 122.33333333333333 L 60.0 122.0 L 59.0 122.0 L 58.0 122.0 L 57.0 122.0 L 56.0 122.0 L 55.0 122.0 L 54.0 122.0 L 53.0 122.0 L 52.0 122.0 L 51.0 122.0 L 50.0 122.0 L 49.0 122.0 L 48.0 122.0 L 47.0 122.0 L 46.0 122.0 L 45.0 122.0 L 44.0 122.0 L 43.0 122.0 L 42.0 122.0 L 41.0 122.0 L 40.0 122.0 L 39.0 122.0 L 38.0 122.0 L 37.0 122.0 L 36.0 122.0 L 35.0 122.0 L 34.0 122.0 L 33.0 122.0 L 32.0 122.0 L 31.0 122.0 L 30.0 122.0 L 29.0 122.0 L 28.0 122.0 L 27.0 122.0 L 26.0 122.0 L 25.0 122.0 L 24.0 122.0 L 23.0 122.0 L 22.0 122.0 L 21.0 122.0 L 20.0 122.0 L 19.0 122.0 L 18.0 122.0 L 17.0 122.0 L 16.0 122.0 L 15.0 122.0 L 14.0 122.0 L 13.0 122.0 L 12.333333333333334 122.33333333333333 L 12.0 123.0 L 12.0 124.0 L 12.333333333333334 124.66666666666667 L 13.0 125.0 L 14.0 125.0 L 15.0 125.0 L 16.0 125.0 L 17.0 125.0 L 18.0 125.0 L 19.0 125.0 L 20.0 125.0 L 21.0 125.0 L 22.0 125.0 L 23.0 125.0 L 24.0 125.0 L 25.0 125.0 L 26.0 125.0 L 27.0 125.0 L 28.0 125.0 L 29.0 125.0 L 30.0 125.0 L 31.0 125.0 L 32.0 125.0 L 33.0 125.0 L 34.0 125.0 L 35.0 125.0 L 36.0 125.0 L 37.0 125.0 L 38.0 125.0 L 39.0 125.0 L 40.0 125.0 L 41.0 125.0 L 42.0 125.0 L 43.0 125.0 L 44.0 125.0 L 45.0 125.0 L 46.0 125.0 L 47.0 125.0 L 48.0 125.0 L 49.0 125.0 L 50.0 125.0 L 51.0 125.0 L 52.0 125.0 L 53.0 125.0 L 54.0 125.0 L 55.0 125.0 L 55.5 125.0 Z" stroke="none" fill="rgb(227,227,227)" />
<path d="M 111.5 125.0 L 112.0 125.0 L 113.0 125.0 L 114.0 125.0 L 115.0 125.0 L 115.66666666666667 124.66666666666667 L 116.0 124.0 L 116.0 123.0 L 115.66666666666667 122.33333333333333 L 115.0 122.0 L 114.0 122.0 L 113.0 122.0 L 112.0 122.0 L 111.0 122.0 L 110.0 122.0 L 109.0 122.0 L 108.0 122.0 L 107.0 122.0 L 106.0 122.0 L 105.0 122.0 L 104.0 122.0 L 103.0 122.0 L 102.0 122.0 L 101.0 122.0 L 100.0 122.0 L 99.0 122.0 L 98.0 122.0 L 97.0 122.0 L 96.0 122.0 L 95.0 122.0 L 94.0 122.0 L 93.0 122.0 L 92.0 122.0 L 91.0 122.0 L 90.0 122.0 L 89.0 122.0 L 88.0 122.0 L 87.0 122.0 L 86.0 122.0 L 85.0 122.0 L 84.0 122.0 L 83.0 122.0 L 82.0 122.0 L 81.0 122.0 L 80.0 122.0 L 79.0 122.0 L 78.0 122.0 L 77.0 122.0 L 76.0 122.0 L 75.0 122.0 L 74.0 122.0 L 73.0 122.0 L 72.0 122.0 L 71.0 122.0 L 70.0 122.0 L 69.0 122.0 L 68.0 122.0 L 67.33333333333333 122.33333333333333 L 67.0 123.0 L 67.0 124.0 L 67.33333333333333 124.66666666666667 L 68.0 125.0 L 69.0 125.0 L 70.0 125.0 L 71.0 125.0 L 72.0 125.0 L 73.0 125.0 L 74.0 125.0 L 75.0 125.0 L 76.0 125.0 L 77.0 125.0 L 78.0 125.0 L 79.0 125.0 L 80.0 125.0 L 81.0 125.0 L 82.0 125.0 L 83.0 125.0 L 84.0 125.0 L 85.0 125.0 L 86.0 125.0 L 87.0 125.0 L 88.0 125.0 L 89.0 125.0 L 90.0 125.0 L 91.0 125.0 L 92.0 125.0 L 93.0 125.0 L 94.0 125.0 L 95.0 125.0 L 96.0 125.0 L 97.0 125.0 L 98.0 125.0 L 99.0 125.0 L 100.0 125.0 L 101.0 125.0 L 102.0 125.0 L 103.0 125.0 L 104.0 125.0 L 105.0 125.0 L 106.0 125.0 L 107.0 125.0 L 108.0 125.0 L 109.0 125.0 L 110.0 125.0 L 110.5 125.0 Z" stroke="none" fill="rgb(227,227,227)" />
<path d="M 53.5 38.0 L 54.0 38.0 L 55.0 38.0 L 56.0 38.0 L 57.0 38.0 L 58.0 38.0 L 59.0 38.0 L 60.0 38.0 L 61.0 37.666666666666664 L 62.0 37.333333333333336 L 63.0 37.0 L 64.0 37.0 L 65.0 37.0 L 66.0 36.666666666666664 L 67.0 36.333333333333336 L 68.0 36.0 L 69.0 36.0 L 70.0 36.0 L 71.0 36.0 L 72.0 36.0 L 73.0 36.0 L 74.0 35.666666666666664 L 75.0 35.333333333333336 L 76.0 35.0 L 76.66666666666667 34.666666666666664 L 77.0 34.0 L 76.66666666666667 33.333333333333336 L 76.0 33.0 L 75.0 33.0 L 74.0 33.0 L 73.0 33.0 L 72.0 33.0 L 71.0 33.0 L 70.0 33.0 L 69.0 33.0 L 68.0 33.0 L 67.0 33.0 L 66.0 33.0 L 65.0 33.0 L 64.0 33.0 L 63.0 33.0 L 62.0 33.0 L 61.0 33.0 L 60.0 33.0 L 59.0 33.0 L 58.0 33.0 L 57.0 33.0 L 56.0 33.0 L 55.0 33.0 L 54.0 33.0 L 53.0 33.0 L 52.0 32.666666666666664 L 51.0 32.333333333333336 L 50.0 32.0 L 49.0 32.0 L 48.0 32.0 L 47.0 32.333333333333336 L 46.0 32.666666666666664 L 45.0 33.333333333333336 L 44.0 33.666666666666664 L 43.0 34.0 L 42.0 34.333333333333336 L 41.0 34.666666666666664 L 40.333333333333336 35.333333333333336 L 40.0 36.0 L 40.333333333333336 36.666666666666664 L 41.0 37.0 L 42.0 37.0 L 43.0 37.0 L 44.0 37.0 L 45.0 37.0 L 46.0 37.0 L 47.0 37.0 L 48.0 37.0 L 49.0 37.0 L 50.0 37.0 L 51.0 37.0 L 52.0 37.333333333333336 L 52.5 37.5 Z" stroke="none" fill="rgb(212,212,212)" />
<path d="M 40.5 110.0 L 41.0 110.0 L 42.0 110.0 L 43.0 110.0 L 44.0 110.0 L 45.0 110.0 L 46.0 110.0 L 47.0 110.0 L 48.0 110.0 L 49.0 110.0 L 50.0 110.0 L 51.0 110.33333333333333 L 52.0 110.66666666666667 L 53.0 111.0 L 53.666666666666664 110.66666666666667 L 53.666666666666664 110.0 L 53.0 109.0 L 52.0 108.0 L 51.0 107.0 L 50.0 106.33333333333333 L 49.0 106.0 L 48.0 106.0 L 47.0 106.0 L 46.0 106.0 L 45.0 106.0 L 44.0 106.0 L 43.0 106.0 L 42.0 106.0 L 41.0 106.0 L 40.0 106.0 L 39.0 106.0 L 38.0 106.0 L 37.0 106.0 L 36.0 106.0 L 35.0 106.0 L 34.0 106.0 L 33.0 106.0 L 32.0 106.0 L 31.0 106.0 L 30.0 106.0 L 29.0 106.0 L 28.0 106.0 L 27.0 106.0 L 26.0 106.0 L 25.0 106.0 L 24.0 106.0 L 23.0 105.66666666666667 L 22.0 105.33333333333333 L 21.0 105.0 L 20.0 105.33333333333333 L 19.0 106.0 L 18.0 107.0 L 17.333333333333332 108.0 L 17.0 109.0 L 17.333333333333332 109.66666666666667 L 18.0 110.0 L 19.0 110.0 L 20.0 110.0 L 21.0 110.0 L 22.0 110.0 L 23.0 110.0 L 24.0 110.0 L 25.0 110.0 L 26.0 110.0 L 27.0 110.0 L 28.0 110.0 L 29.0 110.0 L 30.0 110.0 L 31.0 110.0 L 32.0 110.0 L 33.0 110.0 L 34.0 110.0 L 35.0 110.0 L 36.0 110.0 L 37.0 110.0 L 38.0 110.0 L 39.0 110.0 L 39.5 110.0 Z" stroke="none" fill="rgb(212,212,212)" />
<path d="M 95.5 110.0 L 96.0 110.0 L 97.0 110.0 L 98.0 110.0 L 99.0 110.0 L 100.0 110.0 L 101.0 110.0 L 102.0 110.0 L 103.0 110.0 L 104.0 110.0 L 105.0 110.0 L 106.0 110.0 L 107.0 110.0 L 108.0 110.0 L 109.0 110.0 L 110.0 110.0 L 111.0 110.0 L 111.66666666666667 109.66666666666667 L 111.66666666666667 109.0 L 111.0 108.0 L 110.0 107.0 L 109.0 106.33333333333333 L 108.0 105.66666666666667 L 107.0 105.33333333333333 L 106.0 105.33333333333333 L 105.0 105.66666666666667 L 104.0 106.0 L 103.0 106.0 L 102.0 106.0 L 101.0 106.0 L 100.0 106.0 L 99.0 106.0 L 98.0 106.0 L 97.0 106.0 L 96.0 106.0 L 95.0 106.0 L 94.0 106.0 L 93.0 106.0 L 92.0 106.0 L 91.0 106.0 L 90.0 106.0 L 89.0 106.0 L 88.0 106.0 L 87.0 106.0 L 86.0 106.0 L 85.0 106.0 L 84.0 106.0 L 83.0 106.0 L 82.0 106.0 L 81.0 106.0 L 80.0 106.0 L 79.0 106.0 L 78.0 106.33333333333333 L 77.0 107.0 L 76.33333333333333 108.0 L 76.0 109.0 L 76.33333333333333 109.66666666666667 L 77.0 110.0 L 78.0 110.0 L 79.0 110.0 L 80.0 110.0 L 81.0 110.0 L 82.0 110.0 L 83.0 110.0 L 84.0 110.0 L 85.0 110.0 L 86.0 110.0 L 87.0 110.0 L 88.0 110.0 L 89.0 110.0 L 90.0 110.0 L 91.0 110.0 L 92.0 110.0 L 93.0 110.0 L 94.0 110.0 L 94.5 110.0 Z" stroke="none" fill="rgb(212,212,212)" />
<path d="M 59.5 83.0 L 60.0 83.0 L 61.0 83.33333333333333 L 62.0 83.66666666666667 L 63.0 84.0 L 64.0 84.0 L 65.0 84.0 L 66.0 84.0 L 67.0 84.0 L 68.0 84.0 L 69.0 83.66666666666667 L 70.0 83.33333333333333 L 71.0 82.66666666666667 L 72.0 82.0 L 73.0 81.0 L 74.0 80.0 L 74.66666666666667 79.0 L 75.0 78.0 L 75.0 77.0 L 74.66666666666667 76.33333333333333 L 74.0 76.0 L 73.0 76.0 L 72.0 76.33333333333333 L 71.0 76.66666666666667 L 70.0 77.0 L 69.0 77.0 L 68.0 77.0 L 67.0 77.0 L 66.0 77.0 L 65.0 77.0 L 64.0 77.0 L 63.0 77.0 L 62.0 77.0 L 61.0 77.0 L 60.0 77.0 L 59.0 76.66666666666667 L 58.0 76.33333333333333 L 57.0 76.0 L 56.0 76.0 L 55.0 76.0 L 54.0 76.0 L 53.333333333333336 76.33333333333333 L 53.0 77.0 L 53.0 78.0 L 53.333333333333336 79.0 L 54.0 80.0 L 55.0 81.0 L 56.0 81.66666666666667 L 57.0 82.33333333333333 L 58.0 82.66666666666667 L 58.5 83.0 Z" stroke="none" fill="rgb(109,76,65)" />
<path d="M 33.5 26.0 L 34.0 26.0 L 35.0 26.0 L 36.0 26.0 L 37.0 26.0 L 38.0 26.0 L 39.0 26.0 L 40.0 26.0 L 41.0 26.0 L 42.0 26.0 L 43.0 26.0 L 44.0 26.0 L 45.0 26.0 L 46.0 26.0 L 47.0 26.0 L 48.0 26.0 L 49.0 26.0 L 50.0 26.333333333333332 L 51.0 26.666666666666668 L 52.0 27.0 L 53.0 27.0 L 54.0 27.0 L 55.0 27.0 L 56.0 26.666666666666668 L 57.0 26.333333333333332 L 58.0 26.0 L 59.0 26.0 L 60.0 25.666666666666668 L 61.0 25.333333333333332 L 62.0 25.0 L 63.0 25.0 L 64.0 24.666666666666668 L 65.0 24.333333333333332 L 65.66666666666667 23.666666666666668 L 66.0 23.0 L 65.66666666666667 22.333333333333332 L 65.0 22.0 L 64.0 22.0 L 63.0 22.0 L 62.0 22.0 L 61.0 22.0 L 60.0 22.0 L 59.0 22.0 L 58.0 22.0 L 57.0 22.0 L 56.0 22.0 L 55.0 22.0 L 54.0 22.0 L 53.0 22.0 L 52.0 22.0 L 51.0 22.0 L 50.0 22.0 L 49.0 22.0 L 48.0 22.0 L 47.0 22.0 L 46.0 22.0 L 45.0 22.0 L 44.0 22.0 L 43.0 22.0 L 42.0 22.0 L 41.0 22.0 L 40.0 22.0 L 39.0 22.0 L 38.0 22.0 L 37.0 22.0 L 36.0 22.333333333333332 L 35.0 22.666666666666668 L 34.0 23.333333333333332 L 33.333333333333336 24.0 L 33.0 25.0 L 33.0 25.5 Z" stroke="none" fill="rgb(223,223,223)" />
<path d="M 43.5 106.0 L 44.0 106.0 L 45.0 106.0 L 46.0 106.0 L 47.0 106.0 L 48.0 106.0 L 49.0 106.0 L 49.666666666666664 105.66666666666667 L 50.0 105.0 L 50.0 104.0 L 50.0 103.0 L 49.666666666666664 102.33333333333333 L 49.0 102.0 L 48.0 102.0 L 47.0 102.0 L 46.0 102.0 L 45.0 102.0 L 44.0 102.0 L 43.0 102.0 L 42.0 102.0 L 41.0 102.0 L 40.0 102.0 L 39.0 102.0 L 38.0 102.0 L 37.0 102.0 L 36.0 102.0 L 35.0 102.0 L 34.0 102.0 L 33.0 102.0 L 32.0 102.0 L 31.0 101.66666666666667 L 30.0 101.33333333333333 L 29.0 101.0 L 28.0 101.0 L 27.0 101.33333333333333 L 26.0 101.66666666666667 L 25.0 102.33333333333333 L 24.0 102.66666666666667 L 23.0 103.33333333333333 L 22.333333333333332 104.0 L 22.0 105.0 L 22.333333333333332 105.66666666666667 L 23.0 106.0 L 24.0 106.0 L 25.0 106.0 L 26.0 106.0 L 27.0 106.0 L 28.0 106.0 L 29.0 106.0 L 30.0 106.0 L 31.0 106.0 L 32.0 106.0 L 33.0 106.0 L 34.0 106.0 L 35.0 106.0 L 36.0 106.0 L 37.0 106.0 L 38.0 106.0 L 39.0 106.0 L 40.0 106.0 L 41.0 106.0 L 42.0 106.0 L 42.5 106.0 Z" stroke="none" fill="rgb(208,208,208)" />
<path d="M 78.5 106.0 L 79.0 106.0 L 80.0 106.0 L 81.0 106.0 L 82.0 106.0 L 83.0 106.0 L 84.0 106.0 L 85.0 106.0 L 86.0 106.0 L 87.0 106.0 L 88.0 106.0 L 89.0 106.0 L 90.0 106.0 L 91.0 106.0 L 92.0 106.0 L 93.0 106.0 L 94.0 106.0 L 95.0 106.0 L 96.0 106.0 L 97.0 106.0 L 98.0 106.0 L 99.0 106.0 L 100.0 106.0 L 101.0 106.0 L 102.0 106.0 L 103.0 106.0 L 104.0 106.0 L 105.0 106.0 L 105.66666666666667 105.66666666666667 L 106.0 105.0 L 105.66666666666667 104.33333333333333 L 105.0 103.66666666666667 L 104.0 103.33333333333333 L 103.0 102.66666666666667 L 102.0 102.33333333333333 L 101.0 101.66666666666667 L 100.0 101.33333333333333 L 99.0 101.0 L 98.0 101.0 L 97.0 101.33333333333333 L 96.0 101.66666666666667 L 95.0 102.0 L 94.0 102.0 L 93.0 102.0 L 92.0 102.0 L 91.0 102.0 L 90.0 102.0 L 89.0 102.0 L 88.0 102.0 L 87.0 102.0 L 86.0 102.0 L 85.0 102.0 L 84.0 102.0 L 83.0 102.0 L 82.0 102.0 L 81.0 102.0 L 80.0 102.0 L 79.0 102.0 L 78.33333333333333 102.33333333333333 L 78.0 103.0 L 78.0 104.0 L 78.0 105.0 L 78.0 105.5 Z" stroke="none" fill="rgb(208,208,208)" />
<path d="M 50.5 28.0 L 50.666666666666664 27.666666666666668 L 51.0 27.0 L 50.666666666666664 26.333333333333332 L 50.0 26.0 L 49.0 26.0 L 48.0 26.0 L 47.0 26.0 L 46.0 26.0 L 45.0 26.0 L 44.0 26.0 L 43.0 26.0 L 42.0 26.0 L 41.0 26.0 L 40.0 26.0 L 39.0 26.0 L 38.0 26.0 L 37.0 26.0 L 36.0 26.0 L 35.0 26.0 L 34.0 26.0 L 33.0 26.0 L 32.0 26.0 L 31.0 26.0 L 30.0 26.0 L 29.0 26.333333333333332 L 28.0 27.0 L 27.0 27.666666666666668 L 26.333333333333332 28.333333333333332 L 26.0 29.0 L 26.333333333333332 29.666666666666668 L 27.0 30.0 L 28.0 30.0 L 29.0 30.0 L 30.0 30.0 L 31.0 30.0 L 32.0 30.0 L 33.0 30.0 L 34.0 30.0 L 35.0 30.0 L 36.0 30.0 L 37.0 30.0 L 38.0 30.0 L 39.0 30.333333333333332 L 40.0 30.666666666666668 L 41.0 31.0 L 42.0 31.0 L 43.0 31.0 L 44.0 30.666666666666668 L 45.0 30.333333333333332 L 46.0 29.666666666666668 L 47.0 29.333333333333332 L 48.0 29.0 L 49.0 28.666666666666668 L 49.5 28.5 Z" stroke="none" fill="rgb(219,219,219)" />
<path d="M 88.5 26.0 L 89.0 26.0 L 90.0 26.0 L 91.0 26.0 L 92.0 26.0 L 93.0 26.0 L 94.0 26.0 L 95.0 26.0 L 96.0 26.0 L 97.0 26.0 L 98.0 26.0 L 99.0 26.0 L 100.0 26.0 L 101.0 26.0 L 102.0 26.0 L 103.0 26.0 L 104.0 26.0 L 105.0 26.0 L 105.66666666666667 25.666666666666668 L 106.0 25.0 L 106.0 24.0 L 105.66666666666667 23.333333333333332 L 105.0 22.666666666666668 L 104.0 22.333333333333332 L 103.0 22.0 L 102.0 22.0 L 101.0 22.0 L 100.0 22.0 L 99.0 22.0 L 98.0 22.0 L 97.0 22.0 L 96.0 22.333333333333332 L 95.0 22.666666666666668 L 94.0 23.0 L 93.0 23.0 L 92.0 23.0 L 91.0 23.0 L 90.0 23.0 L 89.0 23.0 L 88.0 23.0 L 87.0 23.0 L 86.0 23.0 L 85.0 23.0 L 84.0 23.0 L 83.0 23.0 L 82.0 23.333333333333332 L 81.0 23.666666666666668 L 80.0 24.0 L 79.33333333333333 24.333333333333332 L 79.0 25.0 L 79.33333333333333 25.666666666666668 L 80.0 26.0 L 81.0 26.0 L 82.0 26.0 L 83.0 26.0 L 84.0 26.0 L 85.0 26.0 L 86.0 26.0 L 87.0 26.0 L 87.5 26.0 Z" stroke="none" fill="rgb(223,223,223)" />
<path d="M 33.5 20.0 L 34.0 20.0 L 35.0 19.666666666666668 L 36.0 19.333333333333332 L 37.0 19.0 L 38.0 18.666666666666668 L 39.0 18.333333333333332 L 40.0 17.666666666666668 L 41.0 17.333333333333332 L 42.0 16.666666666666668 L 43.0 16.333333333333332 L 44.0 16.0 L 45.0 15.666666666666666 L 45.666666666666664 15.0 L 46.0 14.0 L 45.666666666666664 13.333333333333334 L 45.0 13.0 L 44.0 13.0 L 43.0 13.0 L 42.0 13.0 L 41.0 13.0 L 40.0 13.0 L 39.0 13.0 L 38.0 13.0 L 37.0 13.0 L 36.0 13.0 L 35.0 13.0 L 34.0 13.0 L 33.0 13.0 L 32.0 13.333333333333334 L 31.0 14.0 L 30.0 15.0 L 29.0 15.666666666666666 L 28.0 16.333333333333332 L 27.333333333333332 17.0 L 27.333333333333332 18.0 L 28.0 18.666666666666668 L 29.0 19.0 L 30.0 19.0 L 31.0 19.333333333333332 L 32.0 19.666666666666668 L 32.5 20.0 Z" stroke="none" fill="rgb(230,230,230)" />
<path d="M 37.5 102.0 L 38.0 102.0 L 39.0 102.0 L 40.0 102.0 L 41.0 102.0 L 42.0 102.0 L 43.0 102.0 L 44.0 102.0 L 45.0 102.0 L 46.0 102.0 L 47.0 102.0 L 48.0 102.0 L 49.0 102.0 L 49.666666666666664 101.66666666666667 L 50.0 101.0 L 50.0 100.0 L 50.0 99.0 L 50.0 98.0 L 50.0 97.0 L 49.666666666666664 96.33333333333333 L 49.0 96.0 L 48.0 96.33333333333333 L 47.0 96.66666666666667 L 46.0 97.0 L 45.0 97.0 L 44.0 97.0 L 43.0 97.0 L 42.0 97.0 L 41.0 97.33333333333333 L 40.0 97.66666666666667 L 39.0 98.0 L 38.0 98.0 L 37.0 98.33333333333333 L 36.0 98.66666666666667 L 35.0 99.0 L 34.0 99.0 L 33.0 99.33333333333333 L 32.0 99.66666666666667 L 31.0 100.0 L 30.333333333333332 100.33333333333333 L 30.0 101.0 L 30.333333333333332 101.66666666666667 L 31.0 102.0 L 32.0 102.0 L 33.0 102.0 L 34.0 102.0 L 35.0 102.0 L 36.0 102.0 L 36.5 102.0 Z" stroke="none" fill="rgb(203,203,203)" />
<path d="M 40.5 43.5 L 41.0 43.333333333333336 L 42.0 42.666666666666664 L 43.0 42.333333333333336 L 43.666666666666664 41.666666666666664 L 44.0 41.0 L 43.666666666666664 40.333333333333336 L 43.0 40.0 L 42.0 40.0 L 41.0 40.0 L 40.0 40.0 L 39.0 40.0 L 38.0 40.0 L 37.0 40.0 L 36.0 40.0 L 35.0 40.0 L 34.0 40.0 L 33.0 40.0 L 32.0 40.0 L 31.0 40.0 L 30.0 40.0 L 29.0 40.333333333333336 L 28.0 40.666666666666664 L 27.0 41.333333333333336 L 26.0 42.0 L 25.333333333333332 43.0 L 25.0 44.0 L 25.333333333333332 44.666666666666664 L 26.0 45.0 L 27.0 45.0 L 28.0 45.0 L 29.0 45.0 L 30.0 45.0 L 31.0 45.0 L 32.0 45.0 L 33.0 45.333333333333336 L 34.0 45.666666666666664 L 35.0 45.666666666666664 L 36.0 45.333333333333336 L 37.0 45.0 L 38.0 44.666666666666664 L 39.0 44.333333333333336 L 39.5 44.0 Z" stroke="none" fill="rgb(203,203,203)" />
<path d="M 88.5 102.0 L 89.0 102.0 L 90.0 102.0 L 91.0 102.0 L 92.0 102.0 L 93.0 102.0 L 94.0 102.0 L 95.0 102.0 L 96.0 102.0 L 96.66666666666667 101.66666666666667 L 97.0 101.0 L 96.66666666666667 100.33333333333333 L 96.0 100.0 L 95.0 99.66666666666667 L 94.0 99.33333333333333 L 93.0 99.0 L 92.0 98.66666666666667 L 91.0 98.33333333333333 L 90.0 98.0 L 89.0 98.0 L 88.0 98.0 L 87.0 97.66666666666667 L 86.0 97.33333333333333 L 85.0 97.0 L 84.0 97.0 L 83.0 97.0 L 82.0 97.0 L 81.0 96.66666666666667 L 80.0 96.33333333333333 L 79.0 96.0 L 78.33333333333333 96.33333333333333 L 78.0 97.0 L 78.0 98.0 L 78.0 99.0 L 78.0 100.0 L 78.0 101.0 L 78.33333333333333 101.66666666666667 L 79.0 102.0 L 80.0 102.0 L 81.0 102.0 L 82.0 102.0 L 83.0 102.0 L 84.0 102.0 L 85.0 102.0 L 86.0 102.0 L 87.0 102.0 L 87.5 102.0 Z" stroke="none" fill="rgb(203,203,203)" />
<path d="M 81.5 64.0 L 82.0 64.0 L 83.0 63.666666666666664 L 84.0 63.0 L 84.66666666666667 62.0 L 85.0 61.0 L 85.0 60.0 L 85.0 59.0 L 85.0 58.0 L 85.0 57.0 L 84.66666666666667 56.0 L 84.0 55.0 L 83.0 54.333333333333336 L 82.0 54.0 L 81.0 54.0 L 80.0 54.0 L 79.0 54.0 L 78.0 54.333333333333336 L 77.0 55.0 L 76.33333333333333 56.0 L 76.0 57.0 L 76.0 58.0 L 76.0 59.0 L 76.0 60.0 L 76.33333333333333 61.0 L 77.0 62.0 L 78.0 63.0 L 79.0 63.666666666666664 L 80.0 64.0 L 80.5 64.0 Z" stroke="none" fill="rgb(93,64,55)" />
<path d="M 52.0 61.5 L 52.0 61.0 L 52.0 60.0 L 52.0 59.0 L 52.0 58.0 L 52.0 57.0 L 51.666666666666664 56.0 L 51.0 55.0 L 50.0 54.333333333333336 L 49.0 54.0 L 48.0 54.0 L 47.0 54.0 L 46.0 54.333333333333336 L 45.0 54.666666666666664 L 44.0 55.333333333333336 L 43.333333333333336 56.0 L 43.0 57.0 L 43.0 58.0 L 43.0 59.0 L 43.0 60.0 L 43.333333333333336 61.0 L 44.0 62.0 L 45.0 63.0 L 46.0 63.666666666666664 L 47.0 64.0 L 48.0 64.0 L 49.0 64.0 L 50.0 63.666666666666664 L 51.0 63.0 L 51.5 62.5 Z" stroke="none" fill="rgb(93,64,55)" />
<path d="M 32.5 66.5 L 32.666666666666664 66.0 L 33.0 65.0 L 33.0 64.0 L 33.333333333333336 63.0 L 33.666666666666664 62.0 L 34.0 61.0 L 34.0 60.0 L 34.333333333333336 59.0 L 34.666666666666664 58.0 L 35.0 57.0 L 35.0 56.0 L 35.0 55.0 L 35.0 54.0 L 35.0 53.0 L 35.0 52.0 L 34.666666666666664 51.333333333333336 L 34.0 51.0 L 33.0 51.333333333333336 L 32.0 51.666666666666664 L 31.0 52.333333333333336 L 30.0 52.666666666666664 L 29.333333333333332 53.333333333333336 L 29.0 54.0 L 29.0 55.0 L 29.0 56.0 L 29.0 57.0 L 29.0 58.0 L 29.0 59.0 L 29.0 60.0 L 29.0 61.0 L 29.333333333333332 62.0 L 29.666666666666668 63.0 L 30.0 64.0 L 30.0 65.0 L 30.333333333333332 66.0 L 31.0 66.66666666666667 L 31.5 67.0 Z" stroke="none" fill="rgb(171,135,47)" />
<path d="M 33.5 40.0 L 34.0 40.0 L 35.0 40.0 L 36.0 40.0 L 37.0 40.0 L 38.0 40.0 L 39.0 40.0 L 40.0 40.0 L 41.0 40.0 L 42.0 40.0 L 43.0 40.333333333333336 L 44.0 40.666666666666664 L 45.0 41.0 L 46.0 41.0 L 47.0 41.0 L 48.0 40.666666666666664 L 49.0 40.333333333333336 L 50.0 40.0 L 51.0 39.666666666666664 L 52.0 39.333333333333336 L 52.666666666666664 38.666666666666664 L 53.0 38.0 L 52.666666666666664 37.333333333333336 L 52.0 37.0 L 51.0 37.0 L 50.0 37.0 L 49.0 37.0 L 48.0 37.0 L 47.0 37.0 L 46.0 37.0 L 45.0 37.0 L 44.0 37.0 L 43.0 37.0 L 42.0 37.0 L 41.0 36.666666666666664 L 40.0 36.333333333333336 L 39.0 36.0 L 38.0 36.0 L 37.0 36.333333333333336 L 36.0 36.666666666666664 L 35.0 37.333333333333336 L 34.0 37.666666666666664 L 33.333333333333336 38.333333333333336 L 33.0 39.0 L 33.0 39.5 Z" stroke="none" fill="rgb(208,208,208)" />
<path d="M 99.0 63.5 L 99.0 63.0 L 99.33333333333333 62.0 L 99.66666666666667 61.0 L 100.33333333333333 60.0 L 101.0 59.333333333333336 L 102.0 59.0 L 102.66666666666667 58.666666666666664 L 103.0 58.0 L 102.66666666666667 57.0 L 102.0 56.0 L 101.0 55.0 L 100.0 54.0 L 99.0 53.333333333333336 L 98.0 52.666666666666664 L 97.0 52.333333333333336 L 96.0 52.0 L 95.33333333333333 52.333333333333336 L 95.0 53.0 L 95.0 54.0 L 95.0 55.0 L 95.0 56.0 L 95.0 57.0 L 95.0 58.0 L 95.0 59.0 L 95.0 60.0 L 95.0 61.0 L 95.0 62.0 L 95.0 63.0 L 95.33333333333333 64.0 L 96.0 64.66666666666667 L 97.0 65.0 L 98.0 64.66666666666667 L 98.5 64.5 Z" stroke="none" fill="rgb(171,135,47)" />
<path d="M 37.5 33.0 L 38.0 33.0 L 39.0 32.666666666666664 L 39.666666666666664 32.0 L 40.0 31.0 L 39.666666666666664 30.333333333333332 L 39.0 30.0 L 38.0 30.0 L 37.0 30.0 L 36.0 30.0 L 35.0 30.0 L 34.0 30.0 L 33.0 30.0 L 32.0 30.0 L 31.0 30.0 L 30.0 30.0 L 29.0 30.0 L 28.0 30.0 L 27.0 29.666666666666668 L 26.0 29.333333333333332 L 25.0 29.0 L 24.0 29.333333333333332 L 23.0 30.0 L 22.0 31.0 L 21.333333333333332 32.0 L 21.333333333333332 32.666666666666664 L 22.0 33.0 L 23.0 33.0 L 24.0 33.0 L 25.0 33.0 L 26.0 33.0 L 27.0 33.0 L 28.0 33.0 L 29.0 33.0 L 30.0 33.0 L 31.0 33.0 L 32.0 33.333333333333336 L 33.0 33.666666666666664 L 34.0 34.0 L 35.0 34.0 L 36.0 33.666666666666664 L 36.5 33.5 Z" stroke="none" fill="rgb(215,215,215)" />
<path d="M 82.5 51.0 L 83.0 51.0 L 84.0 51.333333333333336 L 85.0 51.666666666666664 L 86.0 52.0 L 86.66666666666667 51.666666666666664 L 87.0 51.0 L 87.0 50.0 L 86.66666666666667 49.0 L 86.0 48.0 L 85.0 47.333333333333336 L 84.0 47.0 L 83.0 47.0 L 82.0 47.0 L 81.0 47.0 L 80.0 47.0 L 79.0 47.0 L 78.0 47.0 L 77.0 47.333333333333336 L 76.0 47.666666666666664 L 75.0 48.333333333333336 L 74.0 49.0 L 73.33333333333333 50.0 L 73.33333333333333 51.0 L 74.0 51.666666666666664 L 75.0 52.0 L 76.0 52.0 L 77.0 52.0 L 78.0 51.666666666666664 L 79.0 51.333333333333336 L 80.0 51.0 L 81.0 51.0 L 81.5 51.0 Z" stroke="none" fill="rgb(171,135,47)" />
<path d="M 26.5 66.5 L 26.666666666666668 67.0 L 27.333333333333332 68.0 L 28.0 69.0 L 29.0 70.0 L 30.0 71.0 L 31.0 71.66666666666667 L 31.666666666666668 71.66666666666667 L 32.0 71.0 L 32.0 70.0 L 32.0 69.0 L 32.0 68.0 L 31.666666666666668 67.0 L 31.0 66.0 L 30.333333333333332 65.0 L 30.0 64.0 L 30.0 63.0 L 29.666666666666668 62.0 L 29.333333333333332 61.0 L 29.0 60.0 L 29.0 59.0 L 29.0 58.0 L 29.0 57.0 L 28.666666666666668 56.333333333333336 L 28.0 56.0 L 27.333333333333332 56.333333333333336 L 26.666666666666668 57.0 L 26.0 58.0 L 25.333333333333332 59.0 L 25.0 60.0 L 25.0 61.0 L 25.0 62.0 L 25.333333333333332 63.0 L 25.666666666666668 64.0 L 26.0 65.0 L 26.0 65.5 Z" stroke="none" fill="rgb(196,142,106)" />
<path d="M 24.5 50.0 L 25.0 50.0 L 26.0 50.0 L 27.0 50.0 L 28.0 49.666666666666664 L 29.0 49.333333333333336 L 30.0 48.666666666666664 L 31.0 48.333333333333336 L 32.0 47.666666666666664 L 33.0 47.0 L 33.666666666666664 46.0 L 33.666666666666664 45.333333333333336 L 33.0 45.0 L 32.0 45.0 L 31.0 45.0 L 30.0 45.0 L 29.0 45.0 L 28.0 45.0 L 27.0 45.0 L 26.0 44.666666666666664 L 25.0 44.333333333333336 L 24.0 44.0 L 23.0 44.333333333333336 L 22.0 45.0 L 21.0 46.0 L 20.333333333333332 47.0 L 20.0 48.0 L 20.333333333333332 49.0 L 21.0 49.666666666666664 L 22.0 50.0 L 23.0 50.0 L 23.5 50.0 Z" stroke="none" fill="rgb(196,198,199)" />
<path d="M 30.5 36.5 L 31.0 36.333333333333336 L 32.0 35.666666666666664 L 32.666666666666664 35.0 L 33.0 34.0 L 32.666666666666664 33.333333333333336 L 32.0 33.0 L 31.0 33.0 L 30.0 33.0 L 29.0 33.0 L 28.0 33.0 L 27.0 33.0 L 26.0 33.0 L 25.0 33.0 L 24.0 33.0 L 23.0 33.0 L 22.0 33.0 L 21.0 33.0 L 20.0 33.0 L 19.333333333333332 33.333333333333336 L 19.0 34.0 L 19.0 35.0 L 19.0 36.0 L 19.333333333333332 36.666666666666664 L 20.0 37.0 L 21.0 37.0 L 22.0 37.0 L 23.0 37.0 L 24.0 37.0 L 25.0 37.333333333333336 L 26.0 37.666666666666664 L 27.0 38.0 L 28.0 37.666666666666664 L 29.0 37.333333333333336 L 29.5 37.0 Z" stroke="none" fill="rgb(212,212,212)" />
<path d="M 49.5 51.0 L 50.0 51.0 L 51.0 51.333333333333336 L 52.0 51.666666666666664 L 53.0 52.0 L 54.0 51.666666666666664 L 54.666666666666664 51.0 L 54.666666666666664 50.0 L 54.0 49.0 L 53.0 48.0 L 52.0 47.333333333333336 L 51.0 47.0 L 50.0 46.666666666666664 L 49.0 46.333333333333336 L 48.0 46.0 L 47.0 46.333333333333336 L 46.0 46.666666666666664 L 45.0 47.333333333333336 L 44.0 47.666666666666664 L 43.0 48.0 L 42.0 48.0 L 41.333333333333336 48.333333333333336 L 41.0 49.0 L 41.0 50.0 L 41.333333333333336 50.666666666666664 L 42.0 51.0 L 43.0 51.0 L 44.0 51.0 L 45.0 51.0 L 46.0 51.0 L 47.0 51.0 L 48.0 51.0 L 48.5 51.0 Z" stroke="none" fill="rgb(171,135,47)" />
<path d="M 98.5 70.5 L 99.0 70.0 L 100.0 69.0 L 101.0 68.0 L 101.66666666666667 67.0 L 102.0 66.0 L 102.0 65.0 L 102.33333333333333 64.0 L 102.66666666666667 63.0 L 102.66666666666667 62.0 L 102.33333333333333 61.0 L 102.0 60.0 L 101.66666666666667 59.333333333333336 L 101.0 59.0 L 100.33333333333333 59.333333333333336 L 99.66666666666667 60.0 L 99.33333333333333 61.0 L 99.0 62.0 L 98.66666666666667 63.0 L 98.0 64.0 L 97.33333333333333 65.0 L 97.0 66.0 L 97.0 67.0 L 96.66666666666667 68.0 L 96.33333333333333 69.0 L 96.0 70.0 L 96.0 71.0 L 96.33333333333333 71.66666666666667 L 97.0 71.66666666666667 L 97.5 71.5 Z" stroke="none" fill="rgb(196,142,106)" />
<path d="M 43.5 95.0 L 44.0 95.0 L 45.0 95.33333333333333 L 46.0 95.66666666666667 L 47.0 96.0 L 48.0 96.0 L 49.0 96.0 L 50.0 96.0 L 51.0 96.0 L 52.0 96.0 L 53.0 96.0 L 53.666666666666664 95.66666666666667 L 53.666666666666664 95.0 L 53.0 94.33333333333333 L 52.0 93.66666666666667 L 51.0 93.33333333333333 L 50.0 93.0 L 49.0 92.66666666666667 L 48.0 92.33333333333333 L 47.0 92.0 L 46.0 92.0 L 45.0 92.0 L 44.0 92.33333333333333 L 43.0 92.66666666666667 L 42.333333333333336 93.33333333333333 L 42.333333333333336 94.0 L 42.5 94.5 Z" stroke="none" fill="rgb(191,159,85)" />
<path d="M 78.5 96.0 L 79.0 96.0 L 80.0 96.0 L 81.0 96.0 L 82.0 95.66666666666667 L 83.0 95.33333333333333 L 84.0 95.0 L 85.0 94.66666666666667 L 86.0 94.33333333333333 L 87.0 94.0 L 88.0 93.66666666666667 L 88.66666666666667 93.0 L 88.66666666666667 92.33333333333333 L 88.0 92.0 L 87.0 92.0 L 86.0 92.0 L 85.0 92.33333333333333 L 84.0 92.66666666666667 L 83.0 93.0 L 82.0 93.0 L 81.0 93.0 L 80.0 93.0 L 79.0 93.0 L 78.0 93.33333333333333 L 77.0 93.66666666666667 L 76.33333333333333 94.33333333333333 L 76.0 95.0 L 76.33333333333333 95.66666666666667 L 77.0 96.0 L 77.5 96.0 Z" stroke="none" fill="rgb(191,159,85)" />
<path d="M 61.5 72.0 L 62.0 72.0 L 63.0 72.0 L 64.0 72.0 L 65.0 72.0 L 66.0 72.0 L 67.0 71.66666666666667 L 67.66666666666667 71.0 L 68.0 70.0 L 68.0 69.0 L 67.66666666666667 68.33333333333333 L 67.0 68.0 L 66.0 68.0 L 65.0 68.0 L 64.0 68.0 L 63.0 68.0 L 62.0 68.0 L 61.0 68.0 L 60.333333333333336 68.33333333333333 L 60.0 69.0 L 60.0 70.0 L 60.333333333333336 71.0 L 60.5 71.5 Z" stroke="none" fill="rgb(196,142,106)" />
<path d="M 26.5 22.5 L 27.0 22.666666666666668 L 28.0 23.0 L 29.0 23.0 L 30.0 22.666666666666668 L 31.0 22.333333333333332 L 32.0 21.666666666666668 L 32.666666666666664 21.0 L 32.666666666666664 20.0 L 32.0 19.333333333333332 L 31.0 19.0 L 30.0 19.0 L 29.0 18.666666666666668 L 28.0 18.333333333333332 L 27.0 18.0 L 26.333333333333332 18.333333333333332 L 25.666666666666668 19.0 L 25.333333333333332 20.0 L 25.0 21.0 L 25.333333333333332 21.666666666666668 L 25.5 22.0 Z" stroke="none" fill="rgb(227,227,227)" />
<path d="M 106.5 42.0 L 107.0 42.0 L 108.0 41.666666666666664 L 108.66666666666667 41.0 L 109.0 40.0 L 109.0 39.0 L 108.66666666666667 38.0 L 108.0 37.333333333333336 L 107.0 37.0 L 106.0 37.0 L 105.0 37.0 L 104.0 37.0 L 103.0 37.0 L 102.33333333333333 37.333333333333336 L 102.0 38.0 L 102.33333333333333 39.0 L 103.0 39.666666666666664 L 104.0 40.333333333333336 L 105.0 41.0 L 105.5 41.5 Z" stroke="none" fill="rgb(196,198,199)" />
<path d="M 30.5 83.0 L 31.0 82.66666666666667 L 31.666666666666668 82.0 L 32.0 81.0 L 32.0 80.0 L 32.0 79.0 L 31.666666666666668 78.0 L 31.0 77.33333333333333 L 30.0 77.0 L 29.333333333333332 77.33333333333333 L 29.0 78.0 L 28.666666666666668 79.0 L 28.0 80.0 L 27.0 80.66666666666667 L 26.333333333333332 81.33333333333333 L 26.0 82.0 L 26.333333333333332 82.66666666666667 L 27.0 83.0 L 28.0 83.0 L 29.0 83.0 L 29.5 83.0 Z" stroke="none" fill="rgb(191,159,85)" />
<path d="M 23.5 40.5 L 24.0 40.333333333333336 L 25.0 39.666666666666664 L 25.666666666666668 39.0 L 26.0 38.0 L 25.666666666666668 37.333333333333336 L 25.0 37.0 L 24.0 37.0 L 23.0 37.0 L 22.0 37.0 L 21.0 37.0 L 20.0 37.0 L 19.333333333333332 37.333333333333336 L 19.0 38.0 L 19.0 39.0 L 19.333333333333332 39.666666666666664 L 20.0 40.0 L 21.0 40.333333333333336 L 22.0 40.666666666666664 L 22.5 41.0 Z" stroke="none" fill="rgb(208,208,208)" />
<path d="M 24.5 62.0 L 24.666666666666668 61.666666666666664 L 25.0 61.0 L 25.0 60.0 L 25.0 59.0 L 24.666666666666668 58.0 L 24.0 57.333333333333336 L 23.333333333333332 57.333333333333336 L 22.666666666666668 58.0 L 22.333333333333332 59.0 L 22.0 60.0 L 22.0 61.0 L 22.0 62.0 L 22.0 63.0 L 22.0 64.0 L 22.0 65.0 L 22.0 66.0 L 22.0 67.0 L 22.333333333333332 67.66666666666667 L 22.666666666666668 67.66666666666667 L 23.0 67.0 L 23.0 66.0 L 23.0 65.0 L 23.0 64.0 L 23.333333333333332 63.0 L 23.5 62.5 Z" stroke="none" fill="rgb(0,0,0)" />
<path d="M 97.5 82.5 L 98.0 82.66666666666667 L 99.0 83.0 L 100.0 83.0 L 101.0 83.0 L 102.0 83.0 L 102.66666666666667 82.66666666666667 L 102.66666666666667 82.0 L 102.0 81.33333333333333 L 101.0 80.66666666666667 L 100.0 80.0 L 99.33333333333333 79.0 L 98.66666666666667 78.33333333333333 L 98.0 78.0 L 97.33333333333333 78.33333333333333 L 97.0 79.0 L 97.0 80.0 L 97.0 81.0 L 97.0 81.5 Z" stroke="none" fill="rgb(191,159,85)" />
<path d="M 39.5 93.5 L 40.0 93.66666666666667 L 41.0 94.0 L 41.666666666666664 93.66666666666667 L 42.0 93.0 L 41.666666666666664 92.0 L 41.0 91.0 L 40.0 90.0 L 39.0 89.33333333333333 L 38.0 89.0 L 37.0 89.0 L 36.333333333333336 89.33333333333333 L 36.0 90.0 L 36.333333333333336 91.0 L 37.0 91.66666666666667 L 38.0 92.33333333333333 L 38.5 92.5 Z" stroke="none" fill="rgb(179,144,64)" />
<path d="M 106.0 65.5 L 106.0 65.0 L 106.0 64.0 L 106.0 63.0 L 105.66666666666667 62.0 L 105.0 61.0 L 104.33333333333333 60.0 L 103.66666666666667 59.333333333333336 L 103.0 59.0 L 102.33333333333333 59.333333333333336 L 102.0 60.0 L 102.0 61.0 L 102.33333333333333 62.0 L 103.0 63.0 L 103.66666666666667 64.0 L 104.33333333333333 65.0 L 105.0 65.66666666666667 L 105.5 66.0 Z" stroke="none" fill="rgb(175,139,54)" />
<path d="M 23.5 26.0 L 24.0 26.0 L 25.0 25.666666666666668 L 26.0 25.0 L 26.666666666666668 24.0 L 27.0 23.0 L 26.666666666666668 22.333333333333332 L 26.0 22.0 L 25.0 22.0 L 24.0 22.0 L 23.0 22.333333333333332 L 22.333333333333332 23.0 L 22.0 24.0 L 22.0 25.0 L 22.333333333333332 25.666666666666668 L 22.5 26.0 Z" stroke="none" fill="rgb(223,223,223)" />
<path d="M 92.5 23.0 L 93.0 23.0 L 94.0 23.0 L 95.0 23.0 L 95.66666666666667 22.666666666666668 L 96.0 22.0 L 95.66666666666667 21.333333333333332 L 95.0 21.0 L 94.0 21.0 L 93.0 21.0 L 92.0 21.0 L 91.0 21.0 L 90.33333333333333 21.333333333333332 L 90.0 22.0 L 90.33333333333333 22.666666666666668 L 91.0 23.0 L 91.5 23.0 Z" stroke="none" fill="rgb(185,187,189)" />
<path d="M 23.5 53.0 L 24.0 52.666666666666664 L 25.0 52.0 L 25.666666666666668 51.0 L 25.666666666666668 50.333333333333336 L 25.0 50.0 L 24.0 50.0 L 23.0 50.0 L 22.0 50.0 L 21.333333333333332 50.333333333333336 L 21.0 51.0 L 21.0 52.0 L 21.333333333333332 52.666666666666664 L 22.0 53.0 L 22.5 53.0 Z" stroke="none" fill="rgb(191,192,193)" />
<path d="M 82.5 10.0 L 83.0 10.0 L 84.0 10.0 L 84.66666666666667 9.666666666666666 L 84.66666666666667 9.0 L 84.0 8.333333333333334 L 83.0 8.0 L 82.0 8.0 L 81.33333333333333 8.333333333333334 L 81.0 9.0 L 81.33333333333333 9.666666666666666 L 81.5 10.0 Z" stroke="none" fill="rgb(196,198,199)" />
<path d="M 68.5 11.0 L 69.0 11.0 L 70.0 11.0 L 71.0 10.666666666666666 L 71.66666666666667 10.0 L 71.66666666666667 9.333333333333334 L 71.0 9.0 L 70.0 9.0 L 69.0 9.0 L 68.33333333333333 9.333333333333334 L 68.0 10.0 L 68.0 10.5 Z" stroke="none" fill="rgb(185,187,189)" />
<path d="M 21.5 42.5 L 21.666666666666668 42.0 L 22.0 41.0 L 21.666666666666668 40.333333333333336 L 21.0 40.0 L 20.0 40.0 L 19.333333333333332 40.333333333333336 L 19.0 41.0 L 19.333333333333332 42.0 L 20.0 42.666666666666664 L 20.5 43.0 Z" stroke="none" fill="rgb(203,203,203)" />
<path d="M 21.5 28.0 L 22.0 27.666666666666668 L 22.666666666666668 27.0 L 22.666666666666668 26.0 L 22.0 25.333333333333332 L 21.333333333333332 25.333333333333332 L 21.0 26.0 L 21.0 27.0 L 21.0 27.5 Z" stroke="none" fill="rgb(0,0,0)" />
<path d="M 106.0 61.5 L 106.0 61.0 L 105.66666666666667 60.0 L 105.0 59.333333333333336 L 104.33333333333333 59.333333333333336 L 104.0 60.0 L 104.33333333333333 61.0 L 105.0 61.666666666666664 L 105.5 62.0 Z" stroke="none" fill="rgb(179,144,64)" />
<path d="M 24.5 84.0 L 25.0 84.0 L 25.666666666666668 83.66666666666667 L 26.0 83.0 L 25.666666666666668 82.33333333333333 L 25.0 82.0 L 24.333333333333332 82.33333333333333 L 24.0 83.0 L 24.0 83.5 Z" stroke="none" fill="rgb(0,0,0)" />
<path d="M 46.0 91.5 L 45.666666666666664 91.0 L 45.0 90.33333333333333 L 44.333333333333336 90.33333333333333 L 44.0 91.0 L 44.333333333333336 91.66666666666667 L 45.0 92.0 L 45.5 92.0 Z" stroke="none" fill="rgb(179,144,64)" />
<path d="M 85.5 92.0 L 86.0 92.0 L 86.66666666666667 91.66666666666667 L 86.66666666666667 91.0 L 86.0 90.33333333333333 L 85.33333333333333 90.33333333333333 L 85.0 91.0 L 85.0 91.5 Z" stroke="none" fill="rgb(179,144,64)" />
<path d="M 33.5 13.0 L 34.0 13.0 L 34.666666666666664 12.666666666666666 L 34.666666666666664 12.333333333333334 L 34.0 12.0 L 33.333333333333336 12.333333333333334 L 33.0 12.5 Z" stroke="none" fill="rgb(0,0,0)" />
<path d="M 21.0 32.5 L 21.0 32.0 L 20.666666666666668 31.333333333333332 L 20.333333333333332 31.333333333333332 L 20.0 32.0 L 20.333333333333332 32.666666666666664 L 20.5 33.0 Z" stroke="none" fill="rgb(0,0,0)" />
<path d="M 20.5 47.0 L 20.666666666666668 46.666666666666664 L 21.0 46.0 L 20.666666666666668 45.333333333333336 L 20.333333333333332 45.333333333333336 L 20.0 46.0 L 20.0 46.5 Z" stroke="none" fill="rgb(0,0,0)" />
<path d="M 104.0 83.5 L 104.0 83.0 L 103.66666666666667 82.33333333333333 L 103.33333333333333 82.33333333333333 L 103.0 83.0 L 103.33333333333333 83.66666666666667 L 103.5 84.0 Z" stroke="none" fill="rgb(0,0,0)" />
<path d="M 54.0 4.5 L 53.666666666666664 4.333333333333333 L 53.333333333333336 4.333333333333333 L 53.333333333333336 4.666666666666667 L 53.5 5.0 Z" stroke="none" fill="rgb(0,0,0)" />
<path d="M 82.0 7.5 L 81.66666666666667 7.333333333333333 L 81.33333333333333 7.333333333333333 L 81.33333333333333 7.666666666666667 L 81.5 8.0 Z" stroke="none" fill="rgb(0,0,0)" />
<path d="M 84.5 9.0 L 84.66666666666667 8.666666666666666 L 84.66666666666667 8.333333333333334 L 84.33333333333333 8.333333333333334 L 84.0 8.5 Z" stroke="none" fill="rgb(0,0,0)" />
<path d="M 92.5 13.0 L 92.66666666666667 12.666666666666666 L 92.66666666666667 12.333333333333334 L 92.33333333333333 12.333333333333334 L 92.0 12.5 Z" stroke="none" fill="rgb(0,0,0)" />
<path d="M 25.0 21.5 L 24.666666666666668 21.333333333333332 L 24.333333333333332 21.333333333333332 L 24.333333333333332 21.666666666666668 L 24.5 22.0 Z" stroke="none" fill="rgb(0,0,0)" />
<path d="M 104.0 21.5 L 103.66666666666667 21.333333333333332 L 103.33333333333333 21.333333333333332 L 103.33333333333333 21.666666666666668 L 103.5 22.0 Z" stroke="none" fill="rgb(0,0,0)" />
<path d="M 104.5 23.0 L 104.66666666666667 22.666666666666668 L 104.66666666666667 22.333333333333332 L 104.33333333333333 22.333333333333332 L 104.0 22.5 Z" stroke="none" fill="rgb(0,0,0)" />
<path d="M 106.5 26.0 L 106.66666666666667 25.666666666666668 L 106.66666666666667 25.333333333333332 L 106.33333333333333 25.333333333333332 L 106.0 25.5 Z" stroke="none" fill="rgb(0,0,0)" />
<path d="M 20.5 29.0 L 20.666666666666668 28.666666666666668 L 20.666666666666668 28.333333333333332 L 20.333333333333332 28.333333333333332 L 20.0 28.5 Z" stroke="none" fill="rgb(0,0,0)" />
<path d="M 108.5 38.0 L 108.66666666666667 37.666666666666664 L 108.66666666666667 37.333333333333336 L 108.33333333333333 37.333333333333336 L 108.0 37.5 Z" stroke="none" fill="rgb(0,0,0)" />
<path d="M 107.5 43.0 L 107.66666666666667 42.666666666666664 L 107.66666666666667 42.333333333333336 L 107.33333333333333 42.333333333333336 L 107.0 42.5 Z" stroke="none" fill="rgb(0,0,0)" />
<path d="M 108.0 46.5 L 107.66666666666667 46.333333333333336 L 107.33333333333333 46.333333333333336 L 107.33333333333333 46.666666666666664 L 107.5 47.0 Z" stroke="none" fill="rgb(0,0,0)" />
<path d="M 104.0 58.5 L 103.66666666666667 58.333333333333336 L 103.33333333333333 58.333333333333336 L 103.33333333333333 58.666666666666664 L 103.5 59.0 Z" stroke="none" fill="rgb(179,144,64)" />
<path d="M 104.5 59.0 L 104.66666666666667 58.666666666666664 L 104.66666666666667 58.333333333333336 L 104.33333333333333 58.333333333333336 L 104.0 58.5 Z" stroke="none" fill="rgb(0,0,0)" />
<path d="M 28.5 77.0 L 28.666666666666668 76.66666666666667 L 28.666666666666668 76.33333333333333 L 28.333333333333332 76.33333333333333 L 28.0 76.5 Z" stroke="none" fill="rgb(0,0,0)" />
<path d="M 99.5 77.0 L 99.66666666666667 76.66666666666667 L 99.66666666666667 76.33333333333333 L 99.33333333333333 76.33333333333333 L 99.0 76.5 Z" stroke="none" fill="rgb(0,0,0)" />
<path d="M 94.0 88.5 L 93.66666666666667 88.33333333333333 L 93.33333333333333 88.33333333333333 L 93.33333333333333 88.66666666666667 L 93.5 89.0 Z" stroke="none" fill="rgb(179,144,64)" />
<path d="M 35.5 91.0 L 35.666666666666664 90.66666666666667 L 35.666666666666664 90.33333333333333 L 35.333333333333336 90.33333333333333 L 35.0 90.5 Z" stroke="none" fill="rgb(0,0,0)" />
<path d="M 38.5 93.0 L 38.666666666666664 92.66666666666667 L 38.666666666666664 92.33333333333333 L 38.333333333333336 92.33333333333333 L 38.0 92.5 Z" stroke="none" fill="rgb(0,0,0)" />
<path d="M 89.5 93.0 L 89.66666666666667 92.66666666666667 L 89.66666666666667 92.33333333333333 L 89.33333333333333 92.33333333333333 L 89.0 92.5 Z" stroke="none" fill="rgb(0,0,0)" />
<path d="M 17.0 109.5 L 16.666666666666668 109.33333333333333 L 16.333333333333332 109.33333333333333 L 16.333333333333332 109.66666666666667 L 16.5 110.0 Z" stroke="none" fill="rgb(0,0,0)" />
<path d="M 14.0 113.5 L 13.666666666666666 113.33333333333333 L 13.333333333333334 113.33333333333333 L 13.333333333333334 113.66666666666667 L 13.5 114.0 Z" stroke="none" fill="rgb(0,0,0)" />
<path d="M 115.0 113.5 L 114.66666666666667 113.33333333333333 L 114.33333333333333 113.33333333333333 L 114.33333333333333 113.66666666666667 L 114.5 114.0 Z" stroke="none" fill="rgb(0,0,0)" />
</svg>
