<?xml version="1.0" encoding="UTF-8" standalone="no"?>
<!DOCTYPE svg PUBLIC "-//W3C//DTD SVG 1.1//EN"
"http://www.w3.org/Graphics/SVG/1.1/DTD/svg11.dtd">
<svg width="128" height="128" xmlns="http://www.w3.org/2000/svg" version="1.1">
<path d="M 26.5 128.0 L 27.0 128.0 L 28.0 128.0 L 29.0 128.0 L 30.0 128.0 L 31.0 128.0 L 32.0 128.0 L 33.0 128.0 L 34.0 128.0 L 35.0 128.0 L 36.0 128.0 L 37.0 128.0 L 38.0 128.0 L 39.0 128.0 L 40.0 128.0 L 41.0 128.0 L 42.0 128.0 L 43.0 128.0 L 44.0 128.0 L 45.0 128.0 L 46.0 128.0 L 47.0 128.0 L 48.0 128.0 L 49.0 128.0 L 50.0 128.0 L 51.0 128.0 L 52.0 128.0 L 53.0 128.0 L 54.0 128.0 L 55.0 128.0 L 56.0 128.0 L 57.0 128.0 L 58.0 128.0 L 59.0 128.0 L 60.0 128.0 L 61.0 128.0 L 62.0 128.0 L 63.0 128.0 L 64.0 128.0 L 65.0 128.0 L 66.0 128.0 L 67.0 128.0 L 68.0 128.0 L 69.0 128.0 L 70.0 128.0 L 71.0 128.0 L 72.0 128.0 L 73.0 128.0 L 74.0 128.0 L 75.0 128.0 L 76.0 128.0 L 77.0 128.0 L 78.0 128.0 L 79.0 128.0 L 80.0 128.0 L 81.0 128.0 L 82.0 128.0 L 83.0 128.0 L 84.0 128.0 L 85.0 128.0 L 86.0 128.0 L 87.0 128.0 L 88.0 128.0 L 89.0 128.0 L 90.0 128.0 L 91.0 128.0 L 92.0 128.0 L 93.0 128.0 L 94.0 128.0 L 95.0 128.0 L 96.0 128.0 L 97.0 128.0 L 98.0 128.0 L 99.0 128.0 L 100.0 128.0 L 101.0 128.0 L 102.0 128.0 L 103.0 128.0 L 104.0 128.0 L 105.0 128.0 L 106.0 128.0 L 107.0 128.0 L 108.0 128.0 L 109.0 128.0 L 110.0 128.0 L 111.0 128.0 L 112.0 128.0 L 113.0 128.0 L 114.0 128.0 L 115.0 128.0 L 116.0 128.0 L 117.0 128.0 L 118.0 128.0 L 119.0 128.0 L 120.0 128.0 L 121.0 128.0 L 122.0 128.0 L 123.0 128.0 L 124.0 128.0 L 125.0 128.0 L 126.0 128.0 L 127.0 128.0 L 127.66666666666667 127.66666666666667 L 128.0 127.0 L 128.0 126.0 L 128.0 125.0 L 128.0 124.0 L 128.0 123.0 L 128.0 122.0 L 128.0 121.0 L 128.0 120.0 L 128.0 119.0 L 128.0 118.0 L 128.0 117.0 L 128.0 116.0 L 128.0 115.0 L 128.0 114.0 L 128.0 113.0 L 128.0 112.0 L 128.0 111.0 L 128.0 110.0 L 128.0 109.0 L 128.0 108.0 L 128.0 107.0 L 128.0 106.0 L 128.0 105.0 L 128.0 104.0 L 128.0 103.0 L 128.0 102.0 L 128.0 101.0 L 128.0 100.0 L 128.0 99.0 L 128.0 98.0 L 128.0 97.0 L 128.0 96.0 L 128.0 95.0 L 128.0 94.0 L 128.0 93.0 L 128.0 92.0 L 128.0 91.0 L 128.0 90.0 L 128.0 89.0 L 128.0 88.0 L 128.0 87.0 L 128.0 86.0 L 128.0 85.0 L 128.0 84.0 L 128.0 83.0 L 128.0 82.0 L 128.0 81.0 L 128.0 80.0 L 128.0 79.0 L 128.0 78.0 L 128.0 77.0 L 128.0 76.0 L 128.0 75.0 L 128.0 74.0 L 128.0 73.0 L 128.0 72.0 L 128.0 71.0 L 128.0 70.0 L 128.0 69.0 L 128.0 68.0 L 128.0 67.0 L 128.0 66.0 L 128.0 65.0 L 128.0 64.0 L 128.0 63.0 L 128.0 62.0 L 128.0 61.0 L 128.0 60.0 L 128.0 59.0 L 128.0 58.0 L 128.0 57.0 L 128.0 56.0 L 128.0 55.0 L 128.0 54.0 L 128.0 53.0 L 128.0 52.0 L 128.0 51.0 L 128.0 50.0 L 128.0 49.0 L 128.0 48.0 L 128.0 47.0 L 128.0 46.0 L 128.0 45.0 L 128.0 44.0 L 128.0 43.0 L 128.0 42.0 L 128.0 41.0 L 128.0 40.0 L 128.0 39.0 L 128.0 38.0 L 128.0 37.0 L 128.0 36.0 L 128.0 35.0 L 128.0 34.0 L 128.0 33.0 L 128.0 32.0 L 128.0 31.0 L 128.0 30.0 L 128.0 29.0 L 128.0 28.0 L 128.0 27.0 L 128.0 26.0 L 128.0 25.0 L 128.0 24.0 L 128.0 23.0 L 128.0 22.0 L 128.0 21.0 L 128.0 20.0 L 128.0 19.0 L 128.0 18.0 L 128.0 17.0 L 128.0 16.0 L 128.0 15.0 L 128.0 14.0 L 128.0 13.0 L 128.0 12.0 L 128.0 11.0 L 128.0 10.0 L 128.0 9.0 L 128.0 8.0 L 128.0 7.0 L 128.0 6.0 L 128.0 5.0 L 128.0 4.0 L 128.0 3.0 L 128.0 2.0 L 128.0 1.0 L 127.66666666666667 0.3333333333333333 L 127.0 0.0 L 126.0 0.0 L 125.0 0.0 L 124.0 0.0 L 123.0 0.0 L 122.0 0.0 L 121.0 0.0 L 120.0 0.0 L 119.0 0.0 L 118.0 0.0 L 117.0 0.0 L 116.0 0.0 L 115.0 0.0 L 114.0 0.0 L 113.0 0.0 L 112.0 0.0 L 111.0 0.0 L 110.0 0.0 L 109.0 0.0 L 108.0 0.0 L 107.0 0.0 L 106.0 0.0 L 105.0 0.0 L 104.0 0.0 L 103.0 0.0 L 102.0 0.0 L 101.0 0.0 L 100.0 0.0 L 99.0 0.0 L 98.0 0.0 L 97.0 0.0 L 96.0 0.0 L 95.0 0.0 L 94.0 0.0 L 93.0 0.0 L 92.0 0.0 L 91.0 0.0 L 90.0 0.0 L 89.0 0.0 L 88.0 0.0 L 87.0 0.0 L 86.0 0.0 L 85.0 0.0 L 84.0 0.0 L 83.0 0.0 L 82.0 0.0 L 81.0 0.0 L 80.0 0.0 L 79.0 0.0 L 78.0 0.0 L 77.0 0.0 L 76.0 0.0 L 75.0 0.0 L 74.0 0.0 L 73.0 0.0 L 72.0 0.0 L 71.0 0.0 L 70.0 0.0 L 69.0 0.0 L 68.0 0.0 L 67.0 0.0 L 66.0 0.0 L 65.0 0.0 L 64.0 0.0 L 63.0 0.0 L 62.0 0.0 L 61.0 0.0 L 60.0 0.0 L 59.0 0.0 L 58.0 0.0 L 57.0 0.0 L 56.0 0.0 L 55.0 0.0 L 54.0 0.0 L 53.0 0.0 L 52.0 0.0 L 51.0 0.0 L 50.0 0.0 L 49.0 0.0 L 48.0 0.0 L 47.0 0.0 L 46.0 0.0 L 45.0 0.0 L 44.0 0.0 L 43.0 0.0 L 42.0 0.0 L 41.0 0.0 L 40.0 0.0 L 39.0 0.0 L 38.0 0.0 L 37.0 0.0 L 36.0 0.0 L 35.0 0.0 L 34.0 0.0 L 33.0 0.0 L 32.0 0.0 L 31.0 0.0 L 30.0 0.0 L 29.0 0.0 L 28.0 0.0 L 27.0 0.0 L 26.0 0.0 L 25.0 0.0 L 24.0 0.0 L 23.0 0.0 L 22.0 0.0 L 21.0 0.0 L 20.0 0.0 L 19.0 0.0 L 18.0 0.0 L 17.0 0.0 L 16.0 0.0 L 15.0 0.0 L 14.0 0.0 L 13.0 0.0 L 12.0 0.0 L 11.0 0.0 L 10.0 0.0 L 9.0 0.0 L 8.0 0.0 L 7.0 0.0 L 6.0 0.0 L 5.0 0.0 L 4.0 0.0 L 3.0 0.0 L 2.0 0.0 L 1.0 0.0 L 0.3333333333333333 0.3333333333333333 L 0.0 1.0 L 0.0 2.0 L 0.0 3.0 L 0.0 4.0 L 0.0 5.0 L 0.0 6.0 L 0.0 7.0 L 0.0 8.0 L 0.0 9.0 L 0.0 10.0 L 0.0 11.0 L 0.0 12.0 L 0.0 13.0 L 0.0 14.0 L 0.0 15.0 L 0.0 16.0 L 0.0 17.0 L 0.0 18.0 L 0.0 19.0 L 0.0 20.0 L 0.0 21.0 L 0.0 22.0 L 0.0 23.0 L 0.0 24.0 L 0.0 25.0 L 0.0 26.0 L 0.0 27.0 L 0.0 28.0 L 0.0 29.0 L 0.0 30.0 L 0.0 31.0 L 0.0 32.0 L 0.0 33.0 L 0.0 34.0 L 0.0 35.0 L 0.0 36.0 L 0.0 37.0 L 0.0 38.0 L 0.0 39.0 L 0.0 40.0 L 0.0 41.0 L 0.0 42.0 L 0.0 43.0 L 0.0 44.0 L 0.0 45.0 L 0.0 46.0 L 0.0 47.0 L 0.0 48.0 L 0.0 49.0 L 0.0 50.0 L 0.0 51.0 L 0.0 52.0 L 0.0 53.0 L 0.0 54.0 L 0.0 55.0 L 0.0 56.0 L 0.0 57.0 L 0.0 58.0 L 0.0 59.0 L 0.0 60.0 L 0.0 61.0 L 0.0 62.0 L 0.0 63.0 L 0.0 64.0 L 0.0 65.0 L 0.0 66.0 L 0.0 67.0 L 0.0 68.0 L 0.0 69.0 L 0.0 70.0 L 0.0 71.0 L 0.0 72.0 L 0.0 73.0 L 0.0 74.0 L 0.0 75.0 L 0.0 76.0 L 0.0 77.0 L 0.0 78.0 L 0.0 79.0 L 0.0 80.0 L 0.0 81.0 L 0.0 82.0 L 0.0 83.0 L 0.0 84.0 L 0.0 85.0 L 0.0 86.0 L 0.0 87.0 L 0.0 88.0 L 0.0 89.0 L 0.0 90.0 L 0.0 91.0 L 0.0 92.0 L 0.0 93.0 L 0.0 94.0 L 0.0 95.0 L 0.0 96.0 L 0.0 97.0 L 0.0 98.0 L 0.0 99.0 L 0.0 100.0 L 0.0 101.0 L 0.0 102.0 L 0.0 103.0 L 0.0 104.0 L 0.0 105.0 L 0.0 106.0 L 0.0 107.0 L 0.0 108.0 L 0.0 109.0 L 0.0 110.0 L 0.0 111.0 L 0.0 112.0 L 0.0 113.0 L 0.0 114.0 L 0.0 115.0 L 0.0 116.0 L 0.0 117.0 L 0.0 118.0 L 0.0 119.0 L 0.0 120.0 L 0.0 121.0 L 0.0 122.0 L 0.0 123.0 L 0.0 124.0 L 0.0 125.0 L 0.0 126.0 L 0.0 127.0 L 0.3333333333333333 127.66666666666667 L 1.0 128.0 L 2.0 128.0 L 3.0 128.0 L 4.0 128.0 L 5.0 128.0 L 6.0 128.0 L 7.0 128.0 L 8.0 128.0 L 9.0 128.0 L 10.0 128.0 L 11.0 128.0 L 12.0 128.0 L 13.0 128.0 L 14.0 128.0 L 15.0 128.0 L 16.0 128.0 L 17.0 128.0 L 18.0 128.0 L 19.0 128.0 L 20.0 128.0 L 21.0 128.0 L 22.0 128.0 L 23.0 128.0 L 24.0 128.0 L 25.0 128.0 L 25.5 128.0 Z" stroke="none" fill="rgb(255,255,255)" />
<path d="M 104.5 108.0 L 105.0 108.0 L 106.0 108.0 L 107.0 108.0 L 108.0 108.0 L 109.0 108.0 L 110.0 108.0 L 111.0 108.0 L 112.0 108.0 L 113.0 108.0 L 114.0 108.0 L 115.0 108.0 L 115.66666666666667 107.66666666666667 L 116.0 107.0 L 116.0 106.0 L 116.0 105.0 L 116.0 104.0 L 116.0 103.0 L 116.0 102.0 L 116.0 101.0 L 116.0 100.0 L 116.0 99.0 L 116.0 98.0 L 116.0 97.0 L 116.0 96.0 L 116.0 95.0 L 116.0 94.0 L 116.0 93.0 L 116.0 92.0 L 116.0 91.0 L 116.0 90.0 L 116.0 89.0 L 116.0 88.0 L 116.0 87.0 L 116.0 86.0 L 116.0 85.0 L 115.66666666666667 84.0 L 115.0 83.0 L 114.0 82.0 L 113.0 81.0 L 112.0 80.0 L 111.0 79.33333333333333 L 110.0 78.66666666666667 L 109.0 78.0 L 108.0 77.0 L 107.0 76.0 L 106.0 75.0 L 105.0 74.0 L 104.0 73.0 L 103.0 72.0 L 102.0 71.0 L 101.0 70.0 L 100.0 69.0 L 99.0 68.0 L 98.0 67.0 L 97.0 66.0 L 96.0 65.0 L 95.0 64.33333333333333 L 94.0 64.33333333333333 L 93.0 65.0 L 92.0 66.0 L 91.0 67.0 L 90.0 68.0 L 89.0 69.0 L 88.0 70.0 L 87.0 71.0 L 86.0 72.0 L 85.0 73.0 L 84.0 74.0 L 83.0 75.0 L 82.0 76.0 L 81.0 77.0 L 80.0 78.0 L 79.0 79.0 L 78.0 80.0 L 77.0 81.0 L 76.0 82.0 L 75.0 83.0 L 74.33333333333333 84.0 L 73.66666666666667 85.0 L 73.33333333333333 86.0 L 73.0 87.0 L 73.0 88.0 L 73.0 89.0 L 73.0 90.0 L 73.0 91.0 L 73.0 92.0 L 73.0 93.0 L 73.0 94.0 L 73.0 95.0 L 73.0 96.0 L 73.0 97.0 L 73.0 98.0 L 73.0 99.0 L 73.0 100.0 L 73.0 101.0 L 73.0 102.0 L 73.0 103.0 L 73.0 104.0 L 73.0 105.0 L 73.0 106.0 L 73.0 107.0 L 73.33333333333333 107.66666666666667 L 74.0 108.0 L 75.0 108.0 L 76.0 108.0 L 77.0 108.0 L 78.0 108.0 L 79.0 108.0 L 80.0 108.0 L 81.0 108.0 L 82.0 108.0 L 83.0 108.0 L 84.0 108.0 L 85.0 108.0 L 86.0 108.0 L 86.66666666666667 107.66666666666667 L 87.0 107.0 L 87.0 106.0 L 87.0 105.0 L 87.0 104.0 L 87.0 103.0 L 87.0 102.0 L 87.0 101.0 L 87.0 100.0 L 87.0 99.0 L 87.0 98.0 L 87.0 97.0 L 87.0 96.0 L 87.0 95.0 L 87.0 94.0 L 87.0 93.0 L 87.0 92.0 L 87.0 91.0 L 87.0 90.0 L 87.0 89.0 L 87.33333333333333 88.0 L 87.66666666666667 87.0 L 88.33333333333333 86.0 L 89.0 85.0 L 90.0 84.33333333333333 L 91.0 83.66666666666667 L 92.0 83.33333333333333 L 93.0 83.0 L 94.0 83.0 L 95.0 83.0 L 96.0 83.0 L 97.0 83.0 L 98.0 83.33333333333333 L 99.0 84.0 L 100.0 85.0 L 100.66666666666667 86.0 L 101.0 87.0 L 101.0 88.0 L 101.0 89.0 L 101.0 90.0 L 101.0 91.0 L 101.0 92.0 L 101.0 93.0 L 101.0 94.0 L 101.0 95.0 L 101.0 96.0 L 101.0 97.0 L 101.0 98.0 L 101.0 99.0 L 101.0 100.0 L 101.0 101.0 L 101.0 102.0 L 101.0 103.0 L 101.0 104.0 L 101.0 105.0 L 101.0 106.0 L 101.0 107.0 L 101.33333333333333 107.66666666666667 L 102.0 108.0 L 103.0 108.0 L 103.5 108.0 Z" stroke="none" fill="rgb(245,225,209)" />
<path d="M 24.5 107.0 L 25.0 107.0 L 25.666666666666668 106.66666666666667 L 26.0 106.0 L 26.0 105.0 L 26.0 104.0 L 26.0 103.0 L 26.0 102.0 L 26.0 101.0 L 26.0 100.0 L 26.0 99.0 L 26.0 98.0 L 26.0 97.0 L 26.0 96.0 L 26.0 95.0 L 26.0 94.0 L 26.0 93.0 L 26.0 92.0 L 26.0 91.0 L 26.0 90.0 L 26.0 89.0 L 26.333333333333332 88.0 L 26.666666666666668 87.0 L 27.333333333333332 86.0 L 28.0 85.0 L 29.0 84.0 L 30.0 83.33333333333333 L 31.0 83.0 L 32.0 82.66666666666667 L 33.0 82.33333333333333 L 34.0 82.0 L 35.0 82.0 L 36.0 82.33333333333333 L 37.0 83.0 L 38.0 84.0 L 39.0 85.0 L 39.666666666666664 86.0 L 40.0 87.0 L 40.0 88.0 L 40.0 89.0 L 40.0 90.0 L 40.0 91.0 L 40.0 92.0 L 40.0 93.0 L 40.0 94.0 L 40.0 95.0 L 40.0 96.0 L 40.0 97.0 L 40.0 98.0 L 40.0 99.0 L 40.0 100.0 L 40.0 101.0 L 40.0 102.0 L 40.0 103.0 L 40.0 104.0 L 40.0 105.0 L 40.0 106.0 L 40.333333333333336 106.66666666666667 L 41.0 107.0 L 42.0 107.0 L 43.0 107.0 L 44.0 107.0 L 45.0 107.0 L 46.0 107.0 L 47.0 107.0 L 48.0 107.0 L 49.0 107.0 L 50.0 107.0 L 51.0 107.0 L 52.0 107.0 L 53.0 107.0 L 54.0 107.0 L 54.666666666666664 106.66666666666667 L 55.0 106.0 L 55.0 105.0 L 55.0 104.0 L 55.0 103.0 L 55.0 102.0 L 55.0 101.0 L 55.0 100.0 L 55.0 99.0 L 55.0 98.0 L 55.0 97.0 L 55.0 96.0 L 55.0 95.0 L 55.0 94.0 L 55.0 93.0 L 55.0 92.0 L 55.0 91.0 L 55.0 90.0 L 55.0 89.0 L 55.0 88.0 L 55.0 87.0 L 55.0 86.0 L 55.0 85.0 L 54.666666666666664 84.0 L 54.0 83.0 L 53.0 82.0 L 52.0 81.0 L 51.0 80.0 L 50.0 79.0 L 49.0 78.0 L 48.0 77.0 L 47.0 76.0 L 46.0 75.0 L 45.0 74.0 L 44.0 73.0 L 43.0 72.0 L 42.0 71.0 L 41.0 70.0 L 40.0 69.0 L 39.0 68.0 L 38.0 67.33333333333333 L 37.0 66.66666666666667 L 36.0 66.0 L 35.0 65.0 L 34.0 64.33333333333333 L 33.0 64.33333333333333 L 32.0 65.0 L 31.0 66.0 L 30.0 67.0 L 29.0 68.0 L 28.0 69.0 L 27.0 70.0 L 26.0 71.0 L 25.0 71.66666666666667 L 24.0 72.33333333333333 L 23.0 73.0 L 22.0 74.0 L 21.0 75.0 L 20.0 76.0 L 19.0 77.0 L 18.0 78.0 L 17.0 79.0 L 16.0 80.0 L 15.0 81.0 L 14.0 82.0 L 13.333333333333334 83.0 L 12.666666666666666 84.0 L 12.333333333333334 85.0 L 12.0 86.0 L 12.0 87.0 L 12.0 88.0 L 12.0 89.0 L 12.0 90.0 L 12.0 91.0 L 12.0 92.0 L 12.0 93.0 L 12.0 94.0 L 12.0 95.0 L 12.0 96.0 L 12.0 97.0 L 12.0 98.0 L 12.0 99.0 L 12.0 100.0 L 12.0 101.0 L 12.0 102.0 L 12.0 103.0 L 12.0 104.0 L 12.0 105.0 L 12.333333333333334 106.0 L 13.0 106.66666666666667 L 14.0 107.0 L 15.0 107.0 L 16.0 107.0 L 17.0 107.0 L 18.0 107.0 L 19.0 107.0 L 20.0 107.0 L 21.0 107.0 L 22.0 107.0 L 23.0 107.0 L 23.5 107.0 Z" stroke="none" fill="rgb(237,224,214)" />
<path d="M 57.5 74.5 L 58.0 74.66666666666667 L 59.0 75.0 L 60.0 75.0 L 61.0 75.0 L 62.0 75.0 L 63.0 75.0 L 64.0 75.0 L 65.0 75.0 L 66.0 75.0 L 67.0 75.0 L 68.0 75.0 L 69.0 75.0 L 70.0 74.66666666666667 L 71.0 74.0 L 72.0 73.0 L 73.0 72.0 L 74.0 71.0 L 75.0 70.0 L 76.0 69.0 L 77.0 68.0 L 78.0 67.0 L 79.0 66.0 L 80.0 65.0 L 81.0 64.0 L 82.0 63.0 L 83.0 62.0 L 84.0 61.0 L 84.66666666666667 60.0 L 84.66666666666667 59.0 L 84.33333333333333 58.0 L 84.0 57.0 L 84.0 56.0 L 84.0 55.0 L 84.0 54.0 L 84.33333333333333 53.0 L 84.66666666666667 52.0 L 84.66666666666667 51.0 L 84.0 50.0 L 83.0 49.0 L 82.0 48.0 L 81.0 47.333333333333336 L 80.0 46.666666666666664 L 79.0 46.0 L 78.0 45.0 L 77.0 44.0 L 76.0 43.0 L 75.0 42.0 L 74.0 41.0 L 73.0 40.0 L 72.0 39.0 L 71.0 38.0 L 70.0 37.0 L 69.0 36.0 L 68.0 35.0 L 67.0 34.0 L 66.0 33.0 L 65.0 32.333333333333336 L 64.0 32.333333333333336 L 63.0 33.0 L 62.0 34.0 L 61.333333333333336 35.0 L 60.666666666666664 36.0 L 60.0 36.666666666666664 L 59.0 37.0 L 58.0 37.333333333333336 L 57.0 38.0 L 56.0 39.0 L 55.0 40.0 L 54.0 41.0 L 53.0 42.0 L 52.0 43.0 L 51.0 44.0 L 50.0 45.0 L 49.0 46.0 L 48.0 47.0 L 47.0 48.0 L 46.0 49.0 L 45.333333333333336 50.0 L 44.666666666666664 51.0 L 44.333333333333336 52.0 L 44.0 53.0 L 44.0 54.0 L 44.0 55.0 L 44.0 56.0 L 44.0 57.0 L 44.0 58.0 L 44.0 59.0 L 44.0 60.0 L 44.333333333333336 61.0 L 45.0 62.0 L 46.0 63.0 L 47.0 64.0 L 48.0 65.0 L 49.0 66.0 L 50.0 67.0 L 51.0 68.0 L 52.0 69.0 L 53.0 70.0 L 54.0 71.0 L 55.0 72.0 L 56.0 73.0 L 56.5 73.5 Z" stroke="none" fill="rgb(255,243,225)" />
<path d="M 53.5 35.5 L 54.0 35.0 L 55.0 34.0 L 56.0 33.0 L 57.0 32.0 L 58.0 31.0 L 59.0 30.0 L 60.0 29.0 L 61.0 28.0 L 62.0 27.0 L 63.0 26.0 L 64.0 25.333333333333332 L 65.0 25.333333333333332 L 66.0 26.0 L 67.0 27.0 L 68.0 28.0 L 69.0 29.0 L 70.0 30.0 L 71.0 31.0 L 72.0 32.0 L 73.0 33.0 L 74.0 34.0 L 75.0 35.0 L 76.0 36.0 L 77.0 37.0 L 78.0 38.0 L 79.0 39.0 L 80.0 40.0 L 81.0 41.0 L 82.0 42.0 L 83.0 43.0 L 84.0 44.0 L 85.0 45.0 L 86.0 46.0 L 87.0 47.0 L 88.0 48.0 L 89.0 48.666666666666664 L 90.0 49.0 L 91.0 49.0 L 92.0 49.0 L 92.66666666666667 48.666666666666664 L 93.0 48.0 L 93.0 47.0 L 92.66666666666667 46.0 L 92.0 45.0 L 91.0 44.0 L 90.0 43.0 L 89.0 42.0 L 88.0 41.0 L 87.0 40.0 L 86.0 39.0 L 85.0 38.0 L 84.0 37.0 L 83.0 36.0 L 82.0 35.0 L 81.0 34.0 L 80.0 33.0 L 79.0 32.0 L 78.0 31.0 L 77.0 30.0 L 76.0 29.0 L 75.0 28.0 L 74.0 27.0 L 73.0 26.0 L 72.0 25.0 L 71.0 24.0 L 70.0 23.0 L 69.0 22.0 L 68.0 21.0 L 67.0 20.333333333333332 L 66.0 20.0 L 65.0 20.0 L 64.0 20.0 L 63.0 20.0 L 62.0 20.333333333333332 L 61.0 21.0 L 60.0 22.0 L 59.0 23.0 L 58.0 24.0 L 57.0 25.0 L 56.0 26.0 L 55.0 27.0 L 54.0 28.0 L 53.0 29.0 L 52.0 30.0 L 51.0 30.333333333333332 L 50.333333333333336 30.0 L 50.0 29.0 L 50.0 28.0 L 50.0 27.0 L 50.0 26.0 L 50.0 25.0 L 49.666666666666664 24.333333333333332 L 49.0 24.0 L 48.0 24.0 L 47.0 24.0 L 46.0 24.0 L 45.0 24.0 L 44.0 24.0 L 43.0 24.0 L 42.0 24.0 L 41.333333333333336 24.333333333333332 L 41.0 25.0 L 41.0 26.0 L 41.0 27.0 L 41.0 28.0 L 41.0 29.0 L 41.0 30.0 L 41.0 31.0 L 41.333333333333336 32.0 L 41.666666666666664 33.0 L 42.0 34.0 L 42.0 35.0 L 42.0 36.0 L 42.0 37.0 L 42.0 38.0 L 41.666666666666664 39.0 L 41.0 40.0 L 40.0 41.0 L 39.0 42.0 L 38.0 43.0 L 37.0 44.0 L 36.0 45.0 L 35.333333333333336 46.0 L 35.0 47.0 L 35.0 48.0 L 35.333333333333336 48.666666666666664 L 36.0 49.0 L 37.0 49.0 L 38.0 49.0 L 39.0 49.0 L 40.0 49.0 L 40.666666666666664 48.666666666666664 L 41.333333333333336 48.0 L 42.0 47.0 L 43.0 46.0 L 44.0 45.0 L 45.0 44.0 L 46.0 43.0 L 47.0 42.0 L 48.0 41.0 L 49.0 40.0 L 50.0 39.0 L 51.0 38.0 L 52.0 37.0 L 52.5 36.5 Z" stroke="none" fill="rgb(220,117,64)" />
<path d="M 59.5 82.0 L 60.0 82.0 L 61.0 82.0 L 62.0 82.0 L 63.0 82.0 L 63.666666666666664 81.66666666666667 L 64.0 81.0 L 64.0 80.0 L 63.666666666666664 79.33333333333333 L 63.0 78.66666666666667 L 62.0 78.0 L 61.0 77.0 L 60.0 76.0 L 59.0 75.0 L 58.0 74.0 L 57.0 73.0 L 56.0 72.0 L 55.0 71.0 L 54.0 70.0 L 53.0 69.0 L 52.0 68.0 L 51.0 67.0 L 50.0 66.0 L 49.0 65.0 L 48.0 64.0 L 47.0 63.0 L 46.0 62.0 L 45.0 61.0 L 44.0 60.0 L 43.0 59.0 L 42.333333333333336 58.0 L 41.666666666666664 57.0 L 41.0 56.0 L 40.0 55.0 L 39.0 54.0 L 38.0 53.0 L 37.0 52.0 L 36.0 51.333333333333336 L 35.0 51.0 L 34.0 51.0 L 33.0 51.0 L 32.0 51.333333333333336 L 31.0 52.0 L 30.0 53.0 L 29.0 54.0 L 28.0 55.0 L 27.0 55.666666666666664 L 26.0 56.333333333333336 L 25.0 57.0 L 24.0 58.0 L 23.0 59.0 L 22.0 60.0 L 21.0 61.0 L 20.0 62.0 L 19.0 63.0 L 18.333333333333332 64.0 L 17.666666666666668 65.0 L 17.0 66.0 L 16.0 67.0 L 15.0 68.0 L 14.0 69.0 L 13.0 70.0 L 12.0 70.66666666666667 L 11.0 71.33333333333333 L 10.0 72.0 L 9.0 73.0 L 8.0 74.0 L 7.0 75.0 L 6.0 76.0 L 5.0 77.0 L 4.0 78.0 L 3.3333333333333335 79.0 L 3.0 80.0 L 3.0 81.0 L 3.3333333333333335 81.66666666666667 L 4.0 82.0 L 5.0 82.0 L 6.0 82.0 L 7.0 82.0 L 8.0 82.0 L 8.666666666666666 81.66666666666667 L 9.333333333333334 81.0 L 10.0 80.0 L 11.0 79.0 L 12.0 78.0 L 13.0 77.0 L 14.0 76.0 L 15.0 75.0 L 16.0 74.0 L 17.0 73.0 L 18.0 72.0 L 19.0 71.0 L 20.0 70.0 L 21.0 69.0 L 22.0 68.0 L 23.0 67.0 L 24.0 66.0 L 25.0 65.0 L 26.0 64.0 L 27.0 63.0 L 28.0 62.0 L 29.0 61.0 L 30.0 60.0 L 31.0 59.0 L 32.0 58.0 L 33.0 57.333333333333336 L 34.0 57.333333333333336 L 35.0 58.0 L 36.0 59.0 L 37.0 60.0 L 38.0 61.0 L 39.0 62.0 L 40.0 63.0 L 41.0 64.0 L 42.0 65.0 L 43.0 66.0 L 44.0 67.0 L 45.0 68.0 L 46.0 69.0 L 47.0 70.0 L 48.0 71.0 L 49.0 72.0 L 50.0 73.0 L 51.0 74.0 L 52.0 75.0 L 53.0 76.0 L 54.0 77.0 L 55.0 78.0 L 56.0 79.0 L 57.0 80.0 L 58.0 81.0 L 58.5 81.5 Z" stroke="none" fill="rgb(186,127,99)" />
<path d="M 68.5 82.0 L 69.0 81.66666666666667 L 70.0 81.0 L 71.0 80.0 L 72.0 79.0 L 73.0 78.0 L 74.0 77.0 L 75.0 76.0 L 76.0 75.0 L 77.0 74.0 L 78.0 73.0 L 79.0 72.0 L 80.0 71.0 L 81.0 70.0 L 82.0 69.0 L 83.0 68.0 L 84.0 67.0 L 85.0 66.0 L 86.0 65.0 L 87.0 64.0 L 88.0 63.0 L 89.0 62.0 L 90.0 61.0 L 91.0 60.0 L 92.0 59.0 L 93.0 58.0 L 94.0 57.333333333333336 L 95.0 57.333333333333336 L 96.0 58.0 L 97.0 59.0 L 98.0 60.0 L 99.0 61.0 L 100.0 62.0 L 101.0 63.0 L 102.0 64.0 L 103.0 65.0 L 104.0 66.0 L 105.0 67.0 L 106.0 68.0 L 107.0 69.0 L 108.0 70.0 L 109.0 71.0 L 110.0 72.0 L 111.0 73.0 L 112.0 74.0 L 113.0 75.0 L 114.0 76.0 L 115.0 77.0 L 116.0 78.0 L 117.0 79.0 L 118.0 80.0 L 119.0 81.0 L 120.0 81.66666666666667 L 121.0 82.0 L 122.0 82.0 L 123.0 82.0 L 124.0 82.0 L 124.66666666666667 81.66666666666667 L 125.0 81.0 L 125.0 80.0 L 124.66666666666667 79.0 L 124.0 78.33333333333333 L 123.0 77.66666666666667 L 122.0 77.0 L 121.0 76.0 L 120.0 75.0 L 119.0 74.0 L 118.0 73.0 L 117.0 72.0 L 116.0 71.0 L 115.0 70.0 L 114.0 69.0 L 113.0 68.0 L 112.0 67.0 L 111.0 66.0 L 110.0 65.0 L 109.0 64.0 L 108.0 63.0 L 107.0 62.0 L 106.0 61.0 L 105.0 60.0 L 104.0 59.0 L 103.0 58.0 L 102.0 57.0 L 101.0 56.0 L 100.0 55.0 L 99.0 54.0 L 98.0 53.0 L 97.0 52.0 L 96.0 51.333333333333336 L 95.0 51.0 L 94.0 51.0 L 93.0 51.333333333333336 L 92.0 52.0 L 91.0 53.0 L 90.0 54.0 L 89.0 55.0 L 88.0 56.0 L 87.0 57.0 L 86.0 58.0 L 85.0 59.0 L 84.0 60.0 L 83.0 61.0 L 82.0 62.0 L 81.0 63.0 L 80.0 64.0 L 79.0 65.0 L 78.0 66.0 L 77.0 67.0 L 76.0 68.0 L 75.0 69.0 L 74.0 70.0 L 73.0 71.0 L 72.0 72.0 L 71.0 73.0 L 70.0 74.0 L 69.0 74.66666666666667 L 68.0 75.33333333333333 L 67.0 76.0 L 66.0 77.0 L 65.0 78.0 L 64.33333333333333 79.0 L 64.0 80.0 L 64.0 81.0 L 64.33333333333333 81.66666666666667 L 65.0 82.0 L 66.0 82.0 L 67.0 82.0 L 67.5 82.0 Z" stroke="none" fill="rgb(197,114,95)" />
<path d="M 91.5 67.5 L 92.0 67.0 L 93.0 66.0 L 94.0 65.33333333333333 L 95.0 65.33333333333333 L 96.0 66.0 L 97.0 67.0 L 98.0 68.0 L 99.0 69.0 L 100.0 70.0 L 101.0 71.0 L 102.0 72.0 L 103.0 73.0 L 104.0 74.0 L 105.0 75.0 L 106.0 76.0 L 107.0 77.0 L 108.0 78.0 L 109.0 78.66666666666667 L 110.0 79.33333333333333 L 111.0 80.0 L 112.0 81.0 L 113.0 82.0 L 114.0 83.0 L 115.0 84.0 L 116.0 85.0 L 117.0 85.66666666666667 L 118.0 86.0 L 118.66666666666667 85.66666666666667 L 119.0 85.0 L 119.0 84.0 L 119.0 83.0 L 118.66666666666667 82.33333333333333 L 118.0 81.66666666666667 L 117.0 81.0 L 116.0 80.0 L 115.0 79.0 L 114.0 78.0 L 113.0 77.0 L 112.0 76.0 L 111.0 75.0 L 110.0 74.0 L 109.0 73.0 L 108.0 72.0 L 107.0 71.0 L 106.0 70.0 L 105.0 69.0 L 104.0 68.0 L 103.0 67.0 L 102.0 66.0 L 101.0 65.0 L 100.0 64.0 L 99.0 63.0 L 98.0 62.0 L 97.0 61.333333333333336 L 96.0 60.666666666666664 L 95.0 60.333333333333336 L 94.0 60.333333333333336 L 93.0 61.0 L 92.0 62.0 L 91.0 63.0 L 90.0 64.0 L 89.0 65.0 L 88.0 66.0 L 87.0 67.0 L 86.0 68.0 L 85.0 69.0 L 84.0 70.0 L 83.0 71.0 L 82.0 72.0 L 81.0 73.0 L 80.0 74.0 L 79.0 75.0 L 78.0 76.0 L 77.0 77.0 L 76.0 78.0 L 75.0 79.0 L 74.0 80.0 L 73.0 80.66666666666667 L 72.0 81.33333333333333 L 71.33333333333333 82.0 L 71.0 83.0 L 71.0 84.0 L 71.33333333333333 85.0 L 72.0 85.66666666666667 L 73.0 86.0 L 73.66666666666667 85.66666666666667 L 74.33333333333333 85.0 L 75.0 84.0 L 76.0 83.0 L 77.0 82.0 L 78.0 81.0 L 79.0 80.0 L 80.0 79.0 L 81.0 78.0 L 82.0 77.0 L 83.0 76.0 L 84.0 75.0 L 85.0 74.0 L 86.0 73.0 L 87.0 72.0 L 88.0 71.0 L 89.0 70.0 L 90.0 69.0 L 90.5 68.5 Z" stroke="none" fill="rgb(211,165,124)" />
<path d="M 103.5 68.5 L 104.0 69.0 L 105.0 70.0 L 106.0 71.0 L 107.0 72.0 L 108.0 73.0 L 109.0 74.0 L 110.0 75.0 L 111.0 76.0 L 112.0 77.0 L 113.0 78.0 L 114.0 79.0 L 115.0 80.0 L 116.0 81.0 L 117.0 81.66666666666667 L 118.0 82.0 L 119.0 82.0 L 119.66666666666667 81.66666666666667 L 119.66666666666667 81.0 L 119.0 80.0 L 118.0 79.0 L 117.0 78.0 L 116.0 77.0 L 115.0 76.0 L 114.0 75.0 L 113.0 74.0 L 112.0 73.0 L 111.0 72.0 L 110.0 71.0 L 109.0 70.0 L 108.0 69.0 L 107.0 68.0 L 106.0 67.0 L 105.0 66.0 L 104.0 65.0 L 103.0 64.0 L 102.0 63.0 L 101.0 62.0 L 100.0 61.0 L 99.0 60.0 L 98.0 59.0 L 97.0 58.0 L 96.0 57.333333333333336 L 95.0 57.0 L 94.0 57.0 L 93.0 57.333333333333336 L 92.0 58.0 L 91.0 59.0 L 90.0 60.0 L 89.0 61.0 L 88.0 62.0 L 87.0 63.0 L 86.0 64.0 L 85.0 65.0 L 84.0 66.0 L 83.0 67.0 L 82.0 68.0 L 81.0 69.0 L 80.0 70.0 L 79.0 71.0 L 78.0 72.0 L 77.0 73.0 L 76.0 74.0 L 75.0 75.0 L 74.0 76.0 L 73.0 77.0 L 72.0 78.0 L 71.0 79.0 L 70.0 80.0 L 69.33333333333333 81.0 L 69.33333333333333 82.0 L 70.0 82.66666666666667 L 71.0 82.66666666666667 L 72.0 82.0 L 73.0 81.33333333333333 L 74.0 80.66666666666667 L 75.0 80.0 L 76.0 79.0 L 77.0 78.0 L 78.0 77.0 L 79.0 76.0 L 80.0 75.0 L 81.0 74.0 L 82.0 73.0 L 83.0 72.0 L 84.0 71.0 L 85.0 70.0 L 86.0 69.0 L 87.0 68.0 L 88.0 67.0 L 89.0 66.0 L 90.0 65.0 L 91.0 64.0 L 92.0 63.0 L 93.0 62.0 L 94.0 61.333333333333336 L 95.0 61.0 L 96.0 61.333333333333336 L 97.0 62.0 L 98.0 63.0 L 99.0 64.0 L 100.0 65.0 L 101.0 66.0 L 102.0 67.0 L 102.5 67.5 Z" stroke="none" fill="rgb(140,66,48)" />
<path d="M 56.5 82.0 L 57.0 82.0 L 58.0 82.0 L 58.666666666666664 81.66666666666667 L 58.666666666666664 81.0 L 58.0 80.0 L 57.0 79.0 L 56.0 78.0 L 55.0 77.0 L 54.0 76.0 L 53.0 75.0 L 52.0 74.0 L 51.0 73.0 L 50.0 72.0 L 49.0 71.0 L 48.0 70.0 L 47.0 69.0 L 46.0 68.0 L 45.0 67.0 L 44.0 66.0 L 43.0 65.0 L 42.0 64.0 L 41.0 63.0 L 40.0 62.0 L 39.0 61.0 L 38.0 60.0 L 37.0 59.0 L 36.0 58.0 L 35.0 57.0 L 34.0 56.333333333333336 L 33.0 56.333333333333336 L 32.0 57.0 L 31.0 58.0 L 30.0 59.0 L 29.0 60.0 L 28.0 61.0 L 27.0 62.0 L 26.0 63.0 L 25.0 64.0 L 24.0 65.0 L 23.0 66.0 L 22.0 67.0 L 21.0 68.0 L 20.0 69.0 L 19.0 70.0 L 18.0 71.0 L 17.0 72.0 L 16.0 73.0 L 15.0 74.0 L 14.0 75.0 L 13.0 76.0 L 12.0 77.0 L 11.0 78.0 L 10.0 79.0 L 9.333333333333334 80.0 L 9.0 81.0 L 9.333333333333334 81.66666666666667 L 10.0 82.0 L 11.0 81.66666666666667 L 12.0 81.0 L 13.0 80.0 L 14.0 79.0 L 15.0 78.0 L 16.0 77.0 L 17.0 76.0 L 18.0 75.0 L 19.0 74.33333333333333 L 20.0 73.66666666666667 L 21.0 73.0 L 22.0 72.0 L 23.0 71.0 L 24.0 70.0 L 25.0 69.0 L 26.0 68.0 L 27.0 67.0 L 28.0 66.0 L 29.0 65.0 L 30.0 64.0 L 31.0 63.0 L 32.0 62.0 L 33.0 61.0 L 34.0 60.666666666666664 L 35.0 61.0 L 36.0 62.0 L 37.0 63.0 L 38.0 64.0 L 39.0 65.0 L 40.0 66.0 L 41.0 67.0 L 42.0 68.0 L 43.0 69.0 L 44.0 70.0 L 45.0 71.0 L 46.0 72.0 L 47.0 73.0 L 48.0 74.0 L 49.0 75.0 L 50.0 76.0 L 51.0 77.0 L 52.0 78.0 L 53.0 79.0 L 54.0 80.0 L 55.0 81.0 L 55.5 81.5 Z" stroke="none" fill="rgb(129,75,55)" />
<path d="M 39.5 69.5 L 40.0 70.0 L 41.0 71.0 L 42.0 72.0 L 43.0 73.0 L 44.0 74.0 L 45.0 75.0 L 46.0 76.0 L 47.0 77.0 L 48.0 78.0 L 49.0 79.0 L 50.0 80.0 L 51.0 81.0 L 52.0 82.0 L 53.0 83.0 L 54.0 84.0 L 55.0 85.0 L 56.0 85.66666666666667 L 57.0 86.0 L 57.666666666666664 85.66666666666667 L 58.0 85.0 L 58.0 84.0 L 58.0 83.0 L 57.666666666666664 82.33333333333333 L 57.0 81.66666666666667 L 56.0 81.0 L 55.0 80.0 L 54.0 79.0 L 53.0 78.0 L 52.0 77.0 L 51.0 76.0 L 50.0 75.0 L 49.0 74.0 L 48.0 73.0 L 47.0 72.0 L 46.0 71.0 L 45.0 70.0 L 44.0 69.0 L 43.0 68.0 L 42.0 67.0 L 41.0 66.0 L 40.0 65.0 L 39.0 64.0 L 38.0 63.0 L 37.0 62.0 L 36.0 61.0 L 35.0 60.333333333333336 L 34.0 60.0 L 33.0 60.333333333333336 L 32.0 61.0 L 31.0 62.0 L 30.0 63.0 L 29.0 64.0 L 28.0 65.0 L 27.0 66.0 L 26.0 67.0 L 25.0 68.0 L 24.0 69.0 L 23.0 70.0 L 22.0 71.0 L 21.0 72.0 L 20.0 73.0 L 19.0 73.66666666666667 L 18.0 74.33333333333333 L 17.0 75.0 L 16.0 76.0 L 15.0 77.0 L 14.0 78.0 L 13.0 79.0 L 12.0 80.0 L 11.0 81.0 L 10.333333333333334 82.0 L 10.0 83.0 L 10.333333333333334 84.0 L 11.0 84.66666666666667 L 12.0 85.0 L 12.666666666666666 84.66666666666667 L 13.333333333333334 84.0 L 14.0 83.0 L 15.0 82.0 L 16.0 81.0 L 17.0 80.0 L 18.0 79.0 L 19.0 78.0 L 20.0 77.0 L 21.0 76.0 L 22.0 75.0 L 23.0 74.0 L 24.0 73.0 L 25.0 72.33333333333333 L 26.0 71.66666666666667 L 27.0 71.0 L 28.0 70.0 L 29.0 69.0 L 30.0 68.0 L 31.0 67.0 L 32.0 66.0 L 33.0 65.33333333333333 L 34.0 65.33333333333333 L 35.0 66.0 L 36.0 66.66666666666667 L 37.0 67.33333333333333 L 38.0 68.0 L 38.5 68.5 Z" stroke="none" fill="rgb(189,177,170)" />
<path d="M 53.5 38.5 L 54.0 38.0 L 55.0 37.0 L 56.0 36.0 L 57.0 35.333333333333336 L 58.0 34.666666666666664 L 59.0 34.0 L 60.0 33.0 L 61.0 32.0 L 62.0 31.0 L 63.0 30.0 L 64.0 29.333333333333332 L 65.0 29.333333333333332 L 66.0 30.0 L 67.0 31.0 L 68.0 32.0 L 69.0 33.0 L 70.0 34.0 L 71.0 34.666666666666664 L 72.0 35.333333333333336 L 73.0 36.0 L 74.0 37.0 L 75.0 38.0 L 76.0 39.0 L 77.0 40.0 L 78.0 41.0 L 79.0 42.0 L 80.0 43.0 L 81.0 44.0 L 82.0 45.0 L 83.0 46.0 L 84.0 47.0 L 85.0 48.0 L 86.0 48.666666666666664 L 87.0 49.0 L 88.0 49.0 L 88.66666666666667 48.666666666666664 L 88.66666666666667 48.0 L 88.0 47.0 L 87.0 46.0 L 86.0 45.0 L 85.0 44.0 L 84.0 43.0 L 83.0 42.0 L 82.0 41.0 L 81.0 40.0 L 80.0 39.0 L 79.0 38.0 L 78.0 37.0 L 77.0 36.0 L 76.0 35.0 L 75.0 34.0 L 74.0 33.0 L 73.0 32.0 L 72.0 31.0 L 71.0 30.0 L 70.0 29.0 L 69.0 28.0 L 68.0 27.0 L 67.0 26.0 L 66.0 25.333333333333332 L 65.0 25.0 L 64.0 25.0 L 63.0 25.333333333333332 L 62.0 26.0 L 61.0 27.0 L 60.0 28.0 L 59.0 29.0 L 58.0 30.0 L 57.0 31.0 L 56.0 32.0 L 55.0 33.0 L 54.0 34.0 L 53.0 35.0 L 52.0 36.0 L 51.0 37.0 L 50.0 38.0 L 49.0 39.0 L 48.0 40.0 L 47.0 41.0 L 46.0 42.0 L 45.0 43.0 L 44.0 44.0 L 43.0 45.0 L 42.0 46.0 L 41.333333333333336 47.0 L 41.0 48.0 L 41.333333333333336 48.666666666666664 L 42.0 49.0 L 43.0 48.666666666666664 L 44.0 48.0 L 45.0 47.0 L 46.0 46.0 L 47.0 45.0 L 48.0 44.0 L 49.0 43.0 L 50.0 42.0 L 51.0 41.0 L 52.0 40.0 L 52.5 39.5 Z" stroke="none" fill="rgb(148,73,39)" />
<path d="M 87.0 51.5 L 87.0 51.0 L 87.0 50.0 L 86.66666666666667 49.0 L 86.0 48.0 L 85.0 47.0 L 84.0 46.0 L 83.0 45.0 L 82.0 44.0 L 81.0 43.0 L 80.0 42.0 L 79.0 41.0 L 78.0 40.0 L 77.0 39.0 L 76.0 38.0 L 75.0 37.0 L 74.0 36.0 L 73.0 35.333333333333336 L 72.0 34.666666666666664 L 71.0 34.0 L 70.0 33.0 L 69.0 32.0 L 68.0 31.0 L 67.0 30.0 L 66.0 29.0 L 65.0 28.333333333333332 L 64.0 28.333333333333332 L 63.0 29.0 L 62.0 30.0 L 61.0 31.0 L 60.0 32.0 L 59.0 33.0 L 58.0 34.0 L 57.0 34.666666666666664 L 56.0 35.333333333333336 L 55.0 36.0 L 54.0 37.0 L 53.0 38.0 L 52.0 39.0 L 51.0 40.0 L 50.0 41.0 L 49.0 42.0 L 48.0 43.0 L 47.0 44.0 L 46.0 45.0 L 45.0 46.0 L 44.0 47.0 L 43.0 48.0 L 42.333333333333336 49.0 L 42.0 50.0 L 42.333333333333336 51.0 L 43.0 51.666666666666664 L 44.0 52.0 L 44.666666666666664 51.666666666666664 L 45.333333333333336 51.0 L 46.0 50.0 L 47.0 49.0 L 48.0 48.0 L 49.0 47.0 L 50.0 46.0 L 51.0 45.0 L 52.0 44.0 L 53.0 43.0 L 54.0 42.0 L 55.0 41.0 L 56.0 40.0 L 57.0 39.0 L 58.0 38.0 L 59.0 37.333333333333336 L 60.0 37.0 L 60.666666666666664 36.666666666666664 L 61.333333333333336 36.0 L 62.0 35.0 L 63.0 34.0 L 64.0 33.333333333333336 L 65.0 33.333333333333336 L 66.0 34.0 L 67.0 35.0 L 68.0 36.0 L 69.0 37.0 L 70.0 38.0 L 71.0 39.0 L 72.0 40.0 L 73.0 41.0 L 74.0 42.0 L 75.0 43.0 L 76.0 44.0 L 77.0 45.0 L 78.0 46.0 L 79.0 46.666666666666664 L 80.0 47.333333333333336 L 81.0 48.0 L 82.0 49.0 L 83.0 50.0 L 84.0 51.0 L 85.0 51.666666666666664 L 86.0 52.0 L 86.5 52.0 Z" stroke="none" fill="rgb(189,167,144)" />
<path d="M 95.5 108.0 L 96.0 108.0 L 97.0 108.0 L 98.0 108.0 L 99.0 108.0 L 100.0 108.0 L 100.66666666666667 107.66666666666667 L 101.0 107.0 L 101.0 106.0 L 101.0 105.0 L 101.0 104.0 L 101.0 103.0 L 101.0 102.0 L 101.0 101.0 L 101.0 100.0 L 100.66666666666667 99.33333333333333 L 100.0 99.0 L 99.0 98.66666666666667 L 98.0 98.0 L 97.66666666666667 97.0 L 98.0 96.33333333333333 L 99.0 96.33333333333333 L 100.0 96.66666666666667 L 100.66666666666667 96.66666666666667 L 101.0 96.0 L 101.0 95.0 L 101.0 94.0 L 101.0 93.0 L 101.0 92.0 L 101.0 91.0 L 101.0 90.0 L 101.0 89.0 L 101.0 88.0 L 101.0 87.0 L 101.0 86.0 L 100.66666666666667 85.0 L 100.0 84.0 L 99.0 83.33333333333333 L 98.0 83.0 L 97.0 83.0 L 96.0 83.0 L 95.0 83.0 L 94.0 83.0 L 93.0 83.0 L 92.0 83.0 L 91.0 83.33333333333333 L 90.0 83.66666666666667 L 89.0 84.33333333333333 L 88.33333333333333 85.0 L 87.66666666666667 86.0 L 87.33333333333333 87.0 L 87.0 88.0 L 87.0 89.0 L 87.0 90.0 L 87.0 91.0 L 87.0 92.0 L 87.0 93.0 L 87.0 94.0 L 87.0 95.0 L 87.0 96.0 L 87.0 97.0 L 87.0 98.0 L 87.0 99.0 L 87.0 100.0 L 87.0 101.0 L 87.0 102.0 L 87.0 103.0 L 87.0 104.0 L 87.0 105.0 L 87.0 106.0 L 87.0 107.0 L 87.33333333333333 107.66666666666667 L 88.0 108.0 L 89.0 108.0 L 90.0 108.0 L 91.0 108.0 L 92.0 108.0 L 93.0 108.0 L 94.0 108.0 L 94.5 108.0 Z" stroke="none" fill="rgb(171,88,50)" />
<path d="M 37.5 107.0 L 38.0 107.0 L 39.0 107.0 L 39.666666666666664 106.66666666666667 L 40.0 106.0 L 40.0 105.0 L 40.0 104.0 L 40.0 103.0 L 40.0 102.0 L 40.0 101.0 L 40.0 100.0 L 40.0 99.0 L 39.666666666666664 98.33333333333333 L 39.0 98.0 L 38.0 98.0 L 37.0 97.66666666666667 L 36.666666666666664 97.0 L 37.0 96.0 L 38.0 95.66666666666667 L 39.0 95.66666666666667 L 39.666666666666664 95.66666666666667 L 40.0 95.0 L 40.0 94.0 L 40.0 93.0 L 40.0 92.0 L 40.0 91.0 L 40.0 90.0 L 40.0 89.0 L 40.0 88.0 L 40.0 87.0 L 40.0 86.0 L 39.666666666666664 85.0 L 39.0 84.0 L 38.0 83.0 L 37.0 82.33333333333333 L 36.0 82.0 L 35.0 82.0 L 34.0 82.0 L 33.0 82.0 L 32.0 82.33333333333333 L 31.0 82.66666666666667 L 30.0 83.0 L 29.0 83.33333333333333 L 28.0 84.0 L 27.333333333333332 85.0 L 26.666666666666668 86.0 L 26.333333333333332 87.0 L 26.0 88.0 L 26.0 89.0 L 26.0 90.0 L 26.0 91.0 L 26.0 92.0 L 26.0 93.0 L 26.0 94.0 L 26.0 95.0 L 26.0 96.0 L 26.0 97.0 L 26.0 98.0 L 26.0 99.0 L 26.0 100.0 L 26.0 101.0 L 26.0 102.0 L 26.0 103.0 L 26.0 104.0 L 26.0 105.0 L 26.0 106.0 L 26.333333333333332 106.66666666666667 L 27.0 107.0 L 28.0 107.0 L 29.0 107.0 L 30.0 107.0 L 31.0 107.0 L 32.0 107.0 L 33.0 107.0 L 34.0 107.0 L 35.0 107.0 L 36.0 107.0 L 36.5 107.0 Z" stroke="none" fill="rgb(134,92,81)" />
<path d="M 57.5 72.0 L 58.0 72.0 L 59.0 72.0 L 60.0 72.0 L 61.0 72.0 L 62.0 72.0 L 63.0 72.0 L 64.0 72.0 L 65.0 72.0 L 66.0 72.0 L 67.0 72.0 L 68.0 72.0 L 69.0 72.0 L 70.0 72.0 L 70.66666666666667 71.66666666666667 L 71.0 71.0 L 71.0 70.0 L 71.0 69.0 L 71.0 68.0 L 71.0 67.0 L 71.0 66.0 L 71.0 65.0 L 71.0 64.0 L 71.0 63.0 L 71.0 62.0 L 71.0 61.0 L 71.0 60.0 L 71.0 59.0 L 71.0 58.0 L 71.0 57.0 L 71.0 56.0 L 71.0 55.0 L 71.0 54.0 L 70.66666666666667 53.0 L 70.33333333333333 52.0 L 69.66666666666667 51.0 L 69.0 50.333333333333336 L 68.0 49.666666666666664 L 67.0 49.333333333333336 L 66.0 49.0 L 65.0 49.0 L 64.0 49.0 L 63.0 49.0 L 62.0 49.333333333333336 L 61.0 49.666666666666664 L 60.0 50.333333333333336 L 59.0 51.0 L 58.0 52.0 L 57.333333333333336 53.0 L 57.0 54.0 L 57.0 55.0 L 57.0 56.0 L 57.0 57.0 L 57.0 58.0 L 57.0 59.0 L 57.0 60.0 L 57.0 61.0 L 57.0 62.0 L 57.0 63.0 L 57.0 64.0 L 57.0 65.0 L 57.0 66.0 L 57.0 67.0 L 57.0 68.0 L 57.0 69.0 L 57.0 70.0 L 57.0 71.0 L 57.0 71.5 Z" stroke="none" fill="rgb(210,120,87)" />
<path d="M 75.5 111.0 L 76.0 111.0 L 77.0 111.0 L 78.0 111.0 L 79.0 111.0 L 80.0 111.0 L 81.0 111.0 L 82.0 111.0 L 83.0 111.0 L 84.0 111.0 L 85.0 111.0 L 86.0 111.0 L 87.0 111.0 L 88.0 111.0 L 89.0 111.0 L 90.0 111.0 L 91.0 111.0 L 92.0 111.0 L 93.0 111.0 L 94.0 111.0 L 95.0 111.0 L 96.0 111.0 L 97.0 111.0 L 98.0 111.0 L 99.0 111.0 L 100.0 111.0 L 101.0 111.0 L 102.0 111.0 L 103.0 111.0 L 104.0 111.0 L 105.0 111.0 L 106.0 111.0 L 107.0 111.0 L 108.0 111.0 L 109.0 111.0 L 110.0 111.0 L 111.0 111.0 L 112.0 111.0 L 113.0 111.0 L 114.0 111.0 L 115.0 111.0 L 116.0 111.0 L 117.0 111.0 L 117.66666666666667 110.66666666666667 L 117.66666666666667 110.0 L 117.0 109.0 L 116.0 108.33333333333333 L 115.0 108.0 L 114.0 108.0 L 113.0 108.0 L 112.0 108.0 L 111.0 108.0 L 110.0 108.0 L 109.0 108.0 L 108.0 108.0 L 107.0 108.0 L 106.0 108.0 L 105.0 108.0 L 104.0 108.0 L 103.0 108.0 L 102.0 108.0 L 101.0 108.0 L 100.0 108.0 L 99.0 108.0 L 98.0 108.0 L 97.0 108.0 L 96.0 108.0 L 95.0 108.0 L 94.0 108.0 L 93.0 108.0 L 92.0 108.0 L 91.0 108.0 L 90.0 108.0 L 89.0 108.0 L 88.0 108.0 L 87.0 108.0 L 86.0 108.0 L 85.0 108.0 L 84.0 108.0 L 83.0 108.0 L 82.0 108.0 L 81.0 108.0 L 80.0 108.0 L 79.0 108.0 L 78.0 108.0 L 77.0 108.0 L 76.0 108.0 L 75.0 108.0 L 74.0 108.0 L 73.0 108.33333333333333 L 72.33333333333333 109.0 L 72.0 110.0 L 72.33333333333333 110.66666666666667 L 73.0 111.0 L 74.0 111.0 L 74.5 111.0 Z" stroke="none" fill="rgb(211,165,124)" />
<path d="M 40.5 110.0 L 41.0 110.0 L 42.0 110.0 L 43.0 110.0 L 44.0 110.0 L 45.0 110.0 L 46.0 110.0 L 47.0 110.0 L 48.0 110.0 L 49.0 110.0 L 50.0 110.0 L 51.0 110.0 L 52.0 110.0 L 53.0 110.0 L 54.0 110.0 L 55.0 110.0 L 55.666666666666664 109.66666666666667 L 56.0 109.0 L 55.666666666666664 108.0 L 55.0 107.33333333333333 L 54.0 107.0 L 53.0 107.0 L 52.0 107.0 L 51.0 107.0 L 50.0 107.0 L 49.0 107.0 L 48.0 107.0 L 47.0 107.0 L 46.0 107.0 L 45.0 107.0 L 44.0 107.0 L 43.0 107.0 L 42.0 107.0 L 41.0 107.0 L 40.0 107.0 L 39.0 107.0 L 38.0 107.0 L 37.0 107.0 L 36.0 107.0 L 35.0 107.0 L 34.0 107.0 L 33.0 107.0 L 32.0 107.0 L 31.0 107.0 L 30.0 107.0 L 29.0 107.0 L 28.0 107.0 L 27.0 107.0 L 26.0 107.0 L 25.0 107.0 L 24.0 107.0 L 23.0 107.0 L 22.0 107.0 L 21.0 107.0 L 20.0 107.0 L 19.0 107.0 L 18.0 107.0 L 17.0 107.0 L 16.0 107.0 L 15.0 107.0 L 14.0 107.0 L 13.0 107.33333333333333 L 12.333333333333334 108.0 L 12.0 109.0 L 12.333333333333334 109.66666666666667 L 13.0 110.0 L 14.0 110.0 L 15.0 110.0 L 16.0 110.0 L 17.0 110.0 L 18.0 110.0 L 19.0 110.0 L 20.0 110.0 L 21.0 110.0 L 22.0 110.0 L 23.0 110.0 L 24.0 110.0 L 25.0 110.0 L 26.0 110.0 L 27.0 110.0 L 28.0 110.0 L 29.0 110.0 L 30.0 110.0 L 31.0 110.0 L 32.0 110.0 L 33.0 110.0 L 34.0 110.0 L 35.0 110.0 L 36.0 110.0 L 37.0 110.0 L 38.0 110.0 L 39.0 110.0 L 39.5 110.0 Z" stroke="none" fill="rgb(189,177,170)" />
<path d="M 110.5 66.5 L 111.0 67.0 L 112.0 68.0 L 113.0 69.0 L 114.0 70.0 L 115.0 71.0 L 116.0 71.66666666666667 L 116.66666666666667 71.66666666666667 L 117.0 71.0 L 117.0 70.0 L 117.0 69.0 L 117.0 68.0 L 117.0 67.0 L 117.0 66.0 L 117.33333333333333 65.0 L 117.66666666666667 64.0 L 118.0 63.0 L 118.0 62.0 L 118.0 61.0 L 118.0 60.0 L 118.0 59.0 L 118.0 58.0 L 117.66666666666667 57.333333333333336 L 117.0 57.0 L 116.0 57.0 L 115.0 57.0 L 114.0 57.0 L 113.0 57.0 L 112.0 57.0 L 111.0 57.0 L 110.0 57.0 L 109.33333333333333 57.333333333333336 L 109.0 58.0 L 109.0 59.0 L 109.0 60.0 L 109.0 61.0 L 109.0 62.0 L 109.0 63.0 L 109.33333333333333 64.0 L 109.66666666666667 65.0 L 110.0 65.5 Z" stroke="none" fill="rgb(171,88,50)" />
<path d="M 17.5 66.5 L 17.666666666666668 66.0 L 18.333333333333332 65.0 L 18.666666666666668 64.0 L 19.0 63.0 L 19.0 62.0 L 19.0 61.0 L 19.0 60.0 L 19.0 59.0 L 19.0 58.0 L 18.666666666666668 57.333333333333336 L 18.0 57.0 L 17.0 57.0 L 16.0 57.0 L 15.0 57.0 L 14.0 57.0 L 13.0 57.0 L 12.0 57.0 L 11.0 57.0 L 10.333333333333334 57.333333333333336 L 10.0 58.0 L 10.0 59.0 L 10.0 60.0 L 10.0 61.0 L 10.0 62.0 L 10.0 63.0 L 10.333333333333334 64.0 L 10.666666666666666 65.0 L 11.0 66.0 L 11.0 67.0 L 11.0 68.0 L 11.0 69.0 L 11.0 70.0 L 11.333333333333334 70.66666666666667 L 12.0 71.0 L 13.0 70.66666666666667 L 14.0 70.0 L 15.0 69.0 L 16.0 68.0 L 16.5 67.5 Z" stroke="none" fill="rgb(171,88,50)" />
<path d="M 116.5 109.5 L 117.0 109.66666666666667 L 118.0 110.0 L 118.66666666666667 109.66666666666667 L 119.0 109.0 L 119.0 108.0 L 119.0 107.0 L 119.0 106.0 L 119.0 105.0 L 119.0 104.0 L 119.0 103.0 L 119.0 102.0 L 119.0 101.0 L 119.0 100.0 L 119.0 99.0 L 119.0 98.0 L 119.0 97.0 L 119.0 96.0 L 119.0 95.0 L 119.0 94.0 L 119.0 93.0 L 119.0 92.0 L 119.0 91.0 L 119.0 90.0 L 119.0 89.0 L 119.0 88.0 L 118.66666666666667 87.0 L 118.0 86.0 L 117.0 85.33333333333333 L 116.33333333333333 85.33333333333333 L 116.0 86.0 L 116.0 87.0 L 116.0 88.0 L 116.0 89.0 L 116.0 90.0 L 116.0 91.0 L 116.0 92.0 L 116.0 93.0 L 116.0 94.0 L 116.0 95.0 L 116.0 96.0 L 116.0 97.0 L 116.0 98.0 L 116.0 99.0 L 116.0 100.0 L 116.0 101.0 L 116.0 102.0 L 116.0 103.0 L 116.0 104.0 L 116.0 105.0 L 116.0 106.0 L 116.0 107.0 L 116.0 108.0 L 116.0 108.5 Z" stroke="none" fill="rgb(95,78,71)" />
<path d="M 58.0 108.5 L 58.0 108.0 L 58.0 107.0 L 58.0 106.0 L 58.0 105.0 L 58.0 104.0 L 58.0 103.0 L 58.0 102.0 L 58.0 101.0 L 58.0 100.0 L 58.0 99.0 L 58.0 98.0 L 58.0 97.0 L 58.0 96.0 L 58.0 95.0 L 58.0 94.0 L 58.0 93.0 L 58.0 92.0 L 58.0 91.0 L 58.0 90.0 L 58.0 89.0 L 58.0 88.0 L 58.0 87.0 L 57.666666666666664 86.33333333333333 L 57.0 85.66666666666667 L 56.0 85.33333333333333 L 55.333333333333336 85.33333333333333 L 55.0 86.0 L 55.0 87.0 L 55.0 88.0 L 55.0 89.0 L 55.0 90.0 L 55.0 91.0 L 55.0 92.0 L 55.0 93.0 L 55.0 94.0 L 55.0 95.0 L 55.0 96.0 L 55.0 97.0 L 55.0 98.0 L 55.0 99.0 L 55.0 100.0 L 55.0 101.0 L 55.0 102.0 L 55.0 103.0 L 55.0 104.0 L 55.0 105.0 L 55.0 106.0 L 55.0 107.0 L 55.333333333333336 108.0 L 56.0 108.66666666666667 L 57.0 109.0 L 57.5 109.0 Z" stroke="none" fill="rgb(95,78,71)" />
<path d="M 65.5 45.0 L 66.0 45.0 L 67.0 45.0 L 67.66666666666667 44.666666666666664 L 68.0 44.0 L 68.0 43.0 L 68.0 42.0 L 68.0 41.0 L 68.0 40.0 L 68.0 39.0 L 67.66666666666667 38.0 L 67.0 37.0 L 66.0 36.333333333333336 L 65.0 36.0 L 64.0 36.0 L 63.0 36.0 L 62.0 36.0 L 61.0 36.333333333333336 L 60.333333333333336 37.0 L 60.0 38.0 L 60.0 39.0 L 60.0 40.0 L 60.0 41.0 L 60.0 42.0 L 60.0 43.0 L 60.0 44.0 L 60.333333333333336 44.666666666666664 L 61.0 45.0 L 62.0 45.0 L 63.0 45.0 L 64.0 45.0 L 64.5 45.0 Z" stroke="none" fill="rgb(167,207,214)" />
<path d="M 91.5 78.0 L 92.0 78.0 L 93.0 78.0 L 94.0 78.0 L 95.0 78.0 L 96.0 78.0 L 97.0 78.0 L 97.66666666666667 77.66666666666667 L 98.0 77.0 L 98.0 76.0 L 98.0 75.0 L 98.0 74.0 L 98.0 73.0 L 98.0 72.0 L 98.0 71.0 L 97.66666666666667 70.0 L 97.0 69.33333333333333 L 96.0 69.0 L 95.0 69.0 L 94.0 69.0 L 93.0 69.0 L 92.0 69.33333333333333 L 91.33333333333333 70.0 L 91.0 71.0 L 91.0 72.0 L 91.0 73.0 L 91.0 74.0 L 90.66666666666667 75.0 L 90.33333333333333 76.0 L 90.0 77.0 L 90.33333333333333 77.66666666666667 L 90.5 78.0 Z" stroke="none" fill="rgb(108,164,174)" />
<path d="M 36.5 78.0 L 36.666666666666664 77.66666666666667 L 37.0 77.0 L 37.0 76.0 L 37.0 75.0 L 37.0 74.0 L 37.0 73.0 L 37.0 72.0 L 37.0 71.0 L 36.666666666666664 70.0 L 36.0 69.33333333333333 L 35.0 69.0 L 34.0 69.0 L 33.0 69.0 L 32.0 69.0 L 31.0 69.33333333333333 L 30.333333333333332 70.0 L 30.0 71.0 L 30.0 72.0 L 30.0 73.0 L 30.0 74.0 L 30.0 75.0 L 30.0 76.0 L 30.0 77.0 L 30.333333333333332 77.66666666666667 L 31.0 78.0 L 32.0 78.0 L 33.0 78.0 L 34.0 78.0 L 35.0 78.0 L 35.5 78.0 Z" stroke="none" fill="rgb(108,164,174)" />
<path d="M 11.5 109.0 L 12.0 108.66666666666667 L 12.666666666666666 108.0 L 13.0 107.0 L 12.666666666666666 106.0 L 12.333333333333334 105.0 L 12.0 104.0 L 12.0 103.0 L 12.0 102.0 L 12.0 101.0 L 12.0 100.0 L 12.0 99.0 L 12.0 98.0 L 12.0 97.0 L 12.0 96.0 L 12.0 95.0 L 12.0 94.0 L 12.0 93.0 L 12.0 92.0 L 12.0 91.0 L 12.0 90.0 L 12.0 89.0 L 12.0 88.0 L 12.0 87.0 L 12.0 86.0 L 11.666666666666666 85.33333333333333 L 11.0 85.33333333333333 L 10.333333333333334 86.0 L 10.0 87.0 L 10.0 88.0 L 10.0 89.0 L 10.0 90.0 L 10.0 91.0 L 10.0 92.0 L 10.0 93.0 L 10.0 94.0 L 10.0 95.0 L 10.0 96.0 L 10.0 97.0 L 10.0 98.0 L 10.0 99.0 L 10.0 100.0 L 10.0 101.0 L 10.0 102.0 L 10.0 103.0 L 10.0 104.0 L 10.0 105.0 L 10.0 106.0 L 10.0 107.0 L 10.333333333333334 108.0 L 10.5 108.5 Z" stroke="none" fill="rgb(95,78,71)" />
<path d="M 72.5 109.0 L 72.66666666666667 108.66666666666667 L 73.0 108.0 L 73.0 107.0 L 73.0 106.0 L 73.0 105.0 L 73.0 104.0 L 73.0 103.0 L 73.0 102.0 L 73.0 101.0 L 73.0 100.0 L 73.0 99.0 L 73.0 98.0 L 73.0 97.0 L 73.0 96.0 L 73.0 95.0 L 73.0 94.0 L 73.0 93.0 L 73.0 92.0 L 73.0 91.0 L 73.0 90.0 L 73.0 89.0 L 73.0 88.0 L 73.0 87.0 L 72.66666666666667 86.33333333333333 L 72.0 86.33333333333333 L 71.33333333333333 87.0 L 71.0 88.0 L 71.0 89.0 L 71.0 90.0 L 71.0 91.0 L 71.0 92.0 L 71.0 93.0 L 71.0 94.0 L 71.0 95.0 L 71.0 96.0 L 71.0 97.0 L 71.0 98.0 L 71.0 99.0 L 71.0 100.0 L 71.0 101.0 L 71.0 102.0 L 71.0 103.0 L 71.0 104.0 L 71.0 105.0 L 71.0 106.0 L 71.0 107.0 L 71.33333333333333 108.0 L 71.5 108.5 Z" stroke="none" fill="rgb(95,78,71)" />
<path d="M 65.5 78.5 L 66.0 78.0 L 67.0 77.0 L 67.66666666666667 76.0 L 67.66666666666667 75.33333333333333 L 67.0 75.0 L 66.0 75.0 L 65.0 75.0 L 64.0 75.0 L 63.0 75.0 L 62.0 75.0 L 61.0 75.0 L 60.0 75.0 L 59.333333333333336 75.33333333333333 L 59.333333333333336 76.0 L 60.0 77.0 L 61.0 78.0 L 62.0 78.66666666666667 L 63.0 79.0 L 64.0 79.0 L 64.5 79.0 Z" stroke="none" fill="rgb(255,255,255)" />
<path d="M 84.5 59.0 L 85.0 59.0 L 86.0 58.666666666666664 L 86.66666666666667 58.0 L 87.0 57.0 L 87.0 56.0 L 87.0 55.0 L 87.0 54.0 L 86.66666666666667 53.0 L 86.0 52.333333333333336 L 85.0 52.0 L 84.33333333333333 52.333333333333336 L 84.0 53.0 L 84.0 54.0 L 84.0 55.0 L 84.0 56.0 L 84.0 57.0 L 84.0 58.0 L 84.0 58.5 Z" stroke="none" fill="rgb(95,78,71)" />
<path d="M 43.5 60.0 L 43.666666666666664 59.666666666666664 L 44.0 59.0 L 44.0 58.0 L 44.0 57.0 L 44.0 56.0 L 44.0 55.0 L 44.0 54.0 L 44.0 53.0 L 43.666666666666664 52.333333333333336 L 43.0 52.0 L 42.333333333333336 52.333333333333336 L 42.0 53.0 L 42.0 54.0 L 42.0 55.0 L 42.0 56.0 L 42.0 57.0 L 42.0 58.0 L 42.333333333333336 59.0 L 42.5 59.5 Z" stroke="none" fill="rgb(95,78,71)" />
<path d="M 98.5 99.0 L 99.0 99.0 L 100.0 99.0 L 100.66666666666667 98.66666666666667 L 101.0 98.0 L 100.66666666666667 97.0 L 100.0 96.0 L 99.0 95.33333333333333 L 98.0 95.33333333333333 L 97.33333333333333 96.0 L 97.0 97.0 L 97.33333333333333 98.0 L 97.5 98.5 Z" stroke="none" fill="rgb(250,180,4)" />
<path d="M 37.5 98.0 L 38.0 98.0 L 39.0 98.0 L 39.666666666666664 97.66666666666667 L 40.0 97.0 L 39.666666666666664 96.0 L 39.0 95.33333333333333 L 38.0 95.0 L 37.0 95.33333333333333 L 36.333333333333336 96.0 L 36.0 97.0 L 36.333333333333336 97.66666666666667 L 36.5 98.0 Z" stroke="none" fill="rgb(250,180,4)" />
<path d="M 68.5 64.0 L 69.0 63.666666666666664 L 69.66666666666667 63.0 L 69.66666666666667 62.0 L 69.0 61.333333333333336 L 68.0 61.0 L 67.33333333333333 61.333333333333336 L 67.0 62.0 L 67.0 63.0 L 67.33333333333333 63.666666666666664 L 67.5 64.0 Z" stroke="none" fill="rgb(250,180,4)" />
<path d="M 10.5 110.0 L 11.0 110.0 L 11.666666666666666 109.66666666666667 L 11.666666666666666 109.0 L 11.0 108.33333333333333 L 10.333333333333334 108.33333333333333 L 10.0 109.0 L 10.0 109.5 Z" stroke="none" fill="rgb(0,0,0)" />
<path d="M 71.5 111.0 L 71.66666666666667 110.66666666666667 L 72.0 110.0 L 72.0 109.0 L 71.66666666666667 108.33333333333333 L 71.33333333333333 108.33333333333333 L 71.0 109.0 L 71.0 110.0 L 71.0 110.5 Z" stroke="none" fill="rgb(0,0,0)" />
<path d="M 11.0 85.5 L 11.0 85.0 L 10.666666666666666 84.33333333333333 L 10.333333333333334 84.33333333333333 L 10.0 85.0 L 10.333333333333334 85.66666666666667 L 10.5 86.0 Z" stroke="none" fill="rgb(0,0,0)" />
<path d="M 72.0 86.5 L 72.0 86.0 L 71.66666666666667 85.33333333333333 L 71.33333333333333 85.33333333333333 L 71.0 86.0 L 71.33333333333333 86.66666666666667 L 71.5 87.0 Z" stroke="none" fill="rgb(0,0,0)" />
<path d="M 58.0 109.5 L 57.666666666666664 109.33333333333333 L 57.0 109.0 L 56.333333333333336 109.33333333333333 L 56.333333333333336 109.66666666666667 L 57.0 110.0 L 57.5 110.0 Z" stroke="none" fill="rgb(0,0,0)" />
<path d="M 43.0 51.5 L 42.666666666666664 51.333333333333336 L 42.333333333333336 51.333333333333336 L 42.333333333333336 51.666666666666664 L 42.5 52.0 Z" stroke="none" fill="rgb(0,0,0)" />
<path d="M 86.5 53.0 L 86.66666666666667 52.666666666666664 L 86.66666666666667 52.333333333333336 L 86.33333333333333 52.333333333333336 L 86.0 52.5 Z" stroke="none" fill="rgb(0,0,0)" />
<path d="M 109.5 65.0 L 109.66666666666667 64.66666666666667 L 109.66666666666667 64.33333333333333 L 109.33333333333333 64.33333333333333 L 109.0 64.5 Z" stroke="none" fill="rgb(255,255,255)" />
<path d="M 119.0 86.5 L 118.66666666666667 86.33333333333333 L 118.33333333333333 86.33333333333333 L 118.33333333333333 86.66666666666667 L 118.5 87.0 Z" stroke="none" fill="rgb(0,0,0)" />
<path d="M 118.5 111.0 L 118.66666666666667 110.66666666666667 L 118.66666666666667 110.33333333333333 L 118.33333333333333 110.33333333333333 L 118.0 110.5 Z" stroke="none" fill="rgb(0,0,0)" />
</svg>
