<?xml version="1.0" encoding="UTF-8" standalone="no"?>
<!DOCTYPE svg PUBLIC "-//W3C//DTD SVG 1.1//EN"
"http://www.w3.org/Graphics/SVG/1.1/DTD/svg11.dtd">
<svg width="128" height="128" xmlns="http://www.w3.org/2000/svg" version="1.1">
<path d="M 26.5 128.0 L 27.0 128.0 L 28.0 128.0 L 29.0 128.0 L 30.0 128.0 L 31.0 128.0 L 32.0 128.0 L 33.0 128.0 L 34.0 128.0 L 35.0 128.0 L 36.0 128.0 L 37.0 128.0 L 38.0 128.0 L 39.0 128.0 L 40.0 128.0 L 41.0 128.0 L 42.0 128.0 L 43.0 128.0 L 44.0 128.0 L 45.0 128.0 L 46.0 128.0 L 47.0 128.0 L 48.0 128.0 L 49.0 128.0 L 50.0 128.0 L 51.0 128.0 L 52.0 128.0 L 53.0 128.0 L 54.0 128.0 L 55.0 128.0 L 56.0 128.0 L 57.0 128.0 L 58.0 128.0 L 59.0 128.0 L 60.0 128.0 L 61.0 128.0 L 62.0 128.0 L 63.0 128.0 L 64.0 128.0 L 65.0 128.0 L 66.0 128.0 L 67.0 128.0 L 68.0 128.0 L 69.0 128.0 L 70.0 128.0 L 71.0 128.0 L 72.0 128.0 L 73.0 128.0 L 74.0 128.0 L 75.0 128.0 L 76.0 128.0 L 77.0 128.0 L 78.0 128.0 L 79.0 128.0 L 80.0 128.0 L 81.0 128.0 L 82.0 128.0 L 83.0 128.0 L 84.0 128.0 L 85.0 128.0 L 86.0 128.0 L 87.0 128.0 L 88.0 128.0 L 89.0 128.0 L 90.0 128.0 L 91.0 128.0 L 92.0 128.0 L 93.0 128.0 L 94.0 128.0 L 95.0 128.0 L 96.0 128.0 L 97.0 128.0 L 98.0 128.0 L 99.0 128.0 L 100.0 128.0 L 101.0 128.0 L 102.0 128.0 L 103.0 128.0 L 104.0 128.0 L 105.0 128.0 L 106.0 128.0 L 107.0 128.0 L 108.0 128.0 L 109.0 128.0 L 110.0 128.0 L 111.0 128.0 L 112.0 128.0 L 113.0 128.0 L 114.0 128.0 L 115.0 128.0 L 116.0 128.0 L 117.0 128.0 L 118.0 128.0 L 119.0 128.0 L 120.0 128.0 L 121.0 128.0 L 122.0 128.0 L 123.0 128.0 L 124.0 128.0 L 125.0 128.0 L 126.0 128.0 L 127.0 128.0 L 127.66666666666667 127.66666666666667 L 128.0 127.0 L 128.0 126.0 L 128.0 125.0 L 128.0 124.0 L 128.0 123.0 L 128.0 122.0 L 128.0 121.0 L 128.0 120.0 L 128.0 119.0 L 128.0 118.0 L 128.0 117.0 L 128.0 116.0 L 128.0 115.0 L 128.0 114.0 L 128.0 113.0 L 128.0 112.0 L 128.0 111.0 L 128.0 110.0 L 128.0 109.0 L 128.0 108.0 L 128.0 107.0 L 128.0 106.0 L 128.0 105.0 L 128.0 104.0 L 128.0 103.0 L 128.0 102.0 L 128.0 101.0 L 128.0 100.0 L 128.0 99.0 L 128.0 98.0 L 128.0 97.0 L 128.0 96.0 L 128.0 95.0 L 128.0 94.0 L 128.0 93.0 L 128.0 92.0 L 128.0 91.0 L 128.0 90.0 L 128.0 89.0 L 128.0 88.0 L 128.0 87.0 L 128.0 86.0 L 128.0 85.0 L 128.0 84.0 L 128.0 83.0 L 128.0 82.0 L 128.0 81.0 L 128.0 80.0 L 128.0 79.0 L 128.0 78.0 L 128.0 77.0 L 128.0 76.0 L 128.0 75.0 L 128.0 74.0 L 128.0 73.0 L 128.0 72.0 L 128.0 71.0 L 128.0 70.0 L 128.0 69.0 L 128.0 68.0 L 128.0 67.0 L 128.0 66.0 L 128.0 65.0 L 128.0 64.0 L 128.0 63.0 L 128.0 62.0 L 128.0 61.0 L 128.0 60.0 L 128.0 59.0 L 128.0 58.0 L 128.0 57.0 L 128.0 56.0 L 128.0 55.0 L 128.0 54.0 L 128.0 53.0 L 128.0 52.0 L 128.0 51.0 L 128.0 50.0 L 128.0 49.0 L 128.0 48.0 L 128.0 47.0 L 128.0 46.0 L 128.0 45.0 L 128.0 44.0 L 128.0 43.0 L 128.0 42.0 L 128.0 41.0 L 128.0 40.0 L 128.0 39.0 L 128.0 38.0 L 128.0 37.0 L 128.0 36.0 L 128.0 35.0 L 128.0 34.0 L 128.0 33.0 L 128.0 32.0 L 128.0 31.0 L 128.0 30.0 L 128.0 29.0 L 128.0 28.0 L 128.0 27.0 L 128.0 26.0 L 128.0 25.0 L 128.0 24.0 L 128.0 23.0 L 128.0 22.0 L 128.0 21.0 L 128.0 20.0 L 128.0 19.0 L 128.0 18.0 L 128.0 17.0 L 128.0 16.0 L 128.0 15.0 L 128.0 14.0 L 128.0 13.0 L 128.0 12.0 L 128.0 11.0 L 128.0 10.0 L 128.0 9.0 L 128.0 8.0 L 128.0 7.0 L 128.0 6.0 L 128.0 5.0 L 128.0 4.0 L 128.0 3.0 L 128.0 2.0 L 128.0 1.0 L 127.66666666666667 0.3333333333333333 L 127.0 0.0 L 126.0 0.0 L 125.0 0.0 L 124.0 0.0 L 123.0 0.0 L 122.0 0.0 L 121.0 0.0 L 120.0 0.0 L 119.0 0.0 L 118.0 0.0 L 117.0 0.0 L 116.0 0.0 L 115.0 0.0 L 114.0 0.0 L 113.0 0.0 L 112.0 0.0 L 111.0 0.0 L 110.0 0.0 L 109.0 0.0 L 108.0 0.0 L 107.0 0.0 L 106.0 0.0 L 105.0 0.0 L 104.0 0.0 L 103.0 0.0 L 102.0 0.0 L 101.0 0.0 L 100.0 0.0 L 99.0 0.0 L 98.0 0.0 L 97.0 0.0 L 96.0 0.0 L 95.0 0.0 L 94.0 0.0 L 93.0 0.0 L 92.0 0.0 L 91.0 0.0 L 90.0 0.0 L 89.0 0.0 L 88.0 0.0 L 87.0 0.0 L 86.0 0.0 L 85.0 0.0 L 84.0 0.0 L 83.0 0.0 L 82.0 0.0 L 81.0 0.0 L 80.0 0.0 L 79.0 0.0 L 78.0 0.0 L 77.0 0.0 L 76.0 0.0 L 75.0 0.0 L 74.0 0.0 L 73.0 0.0 L 72.0 0.0 L 71.0 0.0 L 70.0 0.0 L 69.0 0.0 L 68.0 0.0 L 67.0 0.0 L 66.0 0.0 L 65.0 0.0 L 64.0 0.0 L 63.0 0.0 L 62.0 0.0 L 61.0 0.0 L 60.0 0.0 L 59.0 0.0 L 58.0 0.0 L 57.0 0.0 L 56.0 0.0 L 55.0 0.0 L 54.0 0.0 L 53.0 0.0 L 52.0 0.0 L 51.0 0.0 L 50.0 0.0 L 49.0 0.0 L 48.0 0.0 L 47.0 0.0 L 46.0 0.0 L 45.0 0.0 L 44.0 0.0 L 43.0 0.0 L 42.0 0.0 L 41.0 0.0 L 40.0 0.0 L 39.0 0.0 L 38.0 0.0 L 37.0 0.0 L 36.0 0.0 L 35.0 0.0 L 34.0 0.0 L 33.0 0.0 L 32.0 0.0 L 31.0 0.0 L 30.0 0.0 L 29.0 0.0 L 28.0 0.0 L 27.0 0.0 L 26.0 0.0 L 25.0 0.0 L 24.0 0.0 L 23.0 0.0 L 22.0 0.0 L 21.0 0.0 L 20.0 0.0 L 19.0 0.0 L 18.0 0.0 L 17.0 0.0 L 16.0 0.0 L 15.0 0.0 L 14.0 0.0 L 13.0 0.0 L 12.0 0.0 L 11.0 0.0 L 10.0 0.0 L 9.0 0.0 L 8.0 0.0 L 7.0 0.0 L 6.0 0.0 L 5.0 0.0 L 4.0 0.0 L 3.0 0.0 L 2.0 0.0 L 1.0 0.0 L 0.3333333333333333 0.3333333333333333 L 0.0 1.0 L 0.0 2.0 L 0.0 3.0 L 0.0 4.0 L 0.0 5.0 L 0.0 6.0 L 0.0 7.0 L 0.0 8.0 L 0.0 9.0 L 0.0 10.0 L 0.0 11.0 L 0.0 12.0 L 0.0 13.0 L 0.0 14.0 L 0.0 15.0 L 0.0 16.0 L 0.0 17.0 L 0.0 18.0 L 0.0 19.0 L 0.0 20.0 L 0.0 21.0 L 0.0 22.0 L 0.0 23.0 L 0.0 24.0 L 0.0 25.0 L 0.0 26.0 L 0.0 27.0 L 0.0 28.0 L 0.0 29.0 L 0.0 30.0 L 0.0 31.0 L 0.0 32.0 L 0.0 33.0 L 0.0 34.0 L 0.0 35.0 L 0.0 36.0 L 0.0 37.0 L 0.0 38.0 L 0.0 39.0 L 0.0 40.0 L 0.0 41.0 L 0.0 42.0 L 0.0 43.0 L 0.0 44.0 L 0.0 45.0 L 0.0 46.0 L 0.0 47.0 L 0.0 48.0 L 0.0 49.0 L 0.0 50.0 L 0.0 51.0 L 0.0 52.0 L 0.0 53.0 L 0.0 54.0 L 0.0 55.0 L 0.0 56.0 L 0.0 57.0 L 0.0 58.0 L 0.0 59.0 L 0.0 60.0 L 0.0 61.0 L 0.0 62.0 L 0.0 63.0 L 0.0 64.0 L 0.0 65.0 L 0.0 66.0 L 0.0 67.0 L 0.0 68.0 L 0.0 69.0 L 0.0 70.0 L 0.0 71.0 L 0.0 72.0 L 0.0 73.0 L 0.0 74.0 L 0.0 75.0 L 0.0 76.0 L 0.0 77.0 L 0.0 78.0 L 0.0 79.0 L 0.0 80.0 L 0.0 81.0 L 0.0 82.0 L 0.0 83.0 L 0.0 84.0 L 0.0 85.0 L 0.0 86.0 L 0.0 87.0 L 0.0 88.0 L 0.0 89.0 L 0.0 90.0 L 0.0 91.0 L 0.0 92.0 L 0.0 93.0 L 0.0 94.0 L 0.0 95.0 L 0.0 96.0 L 0.0 97.0 L 0.0 98.0 L 0.0 99.0 L 0.0 100.0 L 0.0 101.0 L 0.0 102.0 L 0.0 103.0 L 0.0 104.0 L 0.0 105.0 L 0.0 106.0 L 0.0 107.0 L 0.0 108.0 L 0.0 109.0 L 0.0 110.0 L 0.0 111.0 L 0.0 112.0 L 0.0 113.0 L 0.0 114.0 L 0.0 115.0 L 0.0 116.0 L 0.0 117.0 L 0.0 118.0 L 0.0 119.0 L 0.0 120.0 L 0.0 121.0 L 0.0 122.0 L 0.0 123.0 L 0.0 124.0 L 0.0 125.0 L 0.0 126.0 L 0.0 127.0 L 0.3333333333333333 127.66666666666667 L 1.0 128.0 L 2.0 128.0 L 3.0 128.0 L 4.0 128.0 L 5.0 128.0 L 6.0 128.0 L 7.0 128.0 L 8.0 128.0 L 9.0 128.0 L 10.0 128.0 L 11.0 128.0 L 12.0 128.0 L 13.0 128.0 L 14.0 128.0 L 15.0 128.0 L 16.0 128.0 L 17.0 128.0 L 18.0 128.0 L 19.0 128.0 L 20.0 128.0 L 21.0 128.0 L 22.0 128.0 L 23.0 128.0 L 24.0 128.0 L 25.0 128.0 L 25.5 128.0 Z" stroke="none" fill="rgb(0,0,0)" />
<path d="M 101.5 33.5 L 102.0 34.0 L 103.0 35.0 L 104.0 36.0 L 105.0 37.0 L 106.0 38.0 L 106.66666666666667 39.0 L 107.33333333333333 40.0 L 108.0 41.0 L 109.0 42.0 L 109.66666666666667 43.0 L 110.0 44.0 L 110.33333333333333 45.0 L 110.66666666666667 46.0 L 111.33333333333333 47.0 L 112.0 48.0 L 112.66666666666667 49.0 L 113.0 50.0 L 113.33333333333333 51.0 L 113.66666666666667 52.0 L 114.0 53.0 L 114.33333333333333 54.0 L 114.66666666666667 55.0 L 115.0 56.0 L 115.33333333333333 57.0 L 115.66666666666667 58.0 L 116.0 59.0 L 116.33333333333333 60.0 L 116.66666666666667 61.0 L 117.0 62.0 L 117.0 63.0 L 117.0 64.0 L 117.0 65.0 L 117.0 66.0 L 117.33333333333333 67.0 L 117.66666666666667 68.0 L 118.0 69.0 L 118.0 70.0 L 118.0 71.0 L 118.0 72.0 L 118.0 73.0 L 118.0 74.0 L 118.0 75.0 L 118.0 76.0 L 118.33333333333333 77.0 L 118.66666666666667 78.0 L 119.0 79.0 L 119.0 80.0 L 119.0 81.0 L 119.0 82.0 L 119.0 83.0 L 119.0 84.0 L 119.0 85.0 L 119.0 86.0 L 119.0 87.0 L 119.0 88.0 L 119.0 89.0 L 119.0 90.0 L 119.0 91.0 L 119.0 92.0 L 119.0 93.0 L 119.0 94.0 L 118.66666666666667 95.0 L 118.33333333333333 96.0 L 117.66666666666667 97.0 L 117.0 98.0 L 116.0 99.0 L 115.0 100.0 L 114.0 101.0 L 113.33333333333333 102.0 L 113.0 103.0 L 113.0 104.0 L 113.0 105.0 L 113.33333333333333 106.0 L 113.66666666666667 107.0 L 114.0 108.0 L 114.0 109.0 L 114.0 110.0 L 114.0 111.0 L 114.0 112.0 L 114.33333333333333 112.66666666666667 L 115.0 113.0 L 115.66666666666667 112.66666666666667 L 116.33333333333333 112.0 L 117.0 111.0 L 117.66666666666667 110.0 L 118.33333333333333 109.0 L 118.66666666666667 108.0 L 119.0 107.0 L 119.33333333333333 106.0 L 120.0 105.0 L 121.0 104.0 L 121.66666666666667 103.0 L 122.33333333333333 102.0 L 122.66666666666667 101.0 L 123.0 100.0 L 123.33333333333333 99.0 L 123.66666666666667 98.0 L 124.0 97.0 L 124.0 96.0 L 124.0 95.0 L 124.0 94.0 L 124.0 93.0 L 124.0 92.0 L 124.0 91.0 L 124.0 90.0 L 124.0 89.0 L 124.0 88.0 L 124.0 87.0 L 124.0 86.0 L 124.0 85.0 L 124.0 84.0 L 124.0 83.0 L 124.0 82.0 L 124.0 81.0 L 124.0 80.0 L 124.0 79.0 L 124.0 78.0 L 124.0 77.0 L 124.0 76.0 L 124.0 75.0 L 124.0 74.0 L 124.0 73.0 L 124.0 72.0 L 124.0 71.0 L 124.0 70.0 L 124.0 69.0 L 124.0 68.0 L 124.0 67.0 L 123.66666666666667 66.0 L 123.33333333333333 65.0 L 123.0 64.0 L 123.0 63.0 L 123.0 62.0 L 122.66666666666667 61.0 L 122.33333333333333 60.0 L 122.0 59.0 L 122.0 58.0 L 122.0 57.0 L 121.66666666666667 56.0 L 121.33333333333333 55.0 L 120.66666666666667 54.0 L 120.33333333333333 53.0 L 119.66666666666667 52.0 L 119.33333333333333 51.0 L 119.0 50.0 L 119.0 49.0 L 118.66666666666667 48.0 L 118.33333333333333 47.0 L 117.66666666666667 46.0 L 117.33333333333333 45.0 L 117.0 44.0 L 116.66666666666667 43.0 L 116.33333333333333 42.0 L 115.66666666666667 41.0 L 115.33333333333333 40.0 L 114.66666666666667 39.0 L 114.0 38.0 L 113.33333333333333 37.0 L 112.66666666666667 36.0 L 112.0 35.0 L 111.33333333333333 34.0 L 110.66666666666667 33.0 L 110.0 32.0 L 109.0 31.0 L 108.0 30.0 L 107.0 29.0 L 106.0 28.0 L 105.0 27.0 L 104.0 26.0 L 103.0 25.333333333333332 L 102.0 25.0 L 101.0 24.666666666666668 L 100.0 24.0 L 99.0 23.333333333333332 L 98.0 22.666666666666668 L 97.0 22.0 L 96.0 21.0 L 95.0 20.333333333333332 L 94.0 19.666666666666668 L 93.0 19.333333333333332 L 92.0 19.0 L 91.0 19.0 L 90.0 18.666666666666668 L 89.0 18.333333333333332 L 88.0 18.0 L 87.0 17.666666666666668 L 86.0 17.333333333333332 L 85.0 17.0 L 84.0 16.666666666666668 L 83.0 16.333333333333332 L 82.0 16.0 L 81.0 16.0 L 80.0 15.666666666666666 L 79.0 15.333333333333334 L 78.0 15.0 L 77.0 15.0 L 76.0 15.0 L 75.0 15.0 L 74.0 14.666666666666666 L 73.0 14.333333333333334 L 72.0 14.0 L 71.0 14.0 L 70.0 14.0 L 69.0 14.0 L 68.0 14.0 L 67.0 14.0 L 66.0 14.0 L 65.0 14.0 L 64.0 14.0 L 63.0 14.0 L 62.0 14.0 L 61.0 14.0 L 60.0 14.0 L 59.0 14.0 L 58.0 14.0 L 57.0 14.0 L 56.0 14.0 L 55.0 14.333333333333334 L 54.0 14.666666666666666 L 53.0 15.0 L 52.0 15.0 L 51.0 15.0 L 50.0 15.333333333333334 L 49.0 15.666666666666666 L 48.0 16.333333333333332 L 47.0 16.666666666666668 L 46.0 17.0 L 45.0 17.0 L 44.0 17.0 L 43.0 17.333333333333332 L 42.0 17.666666666666668 L 41.0 18.0 L 40.0 18.0 L 39.0 18.333333333333332 L 38.0 18.666666666666668 L 37.0 19.0 L 36.0 19.0 L 35.0 19.333333333333332 L 34.0 19.666666666666668 L 33.0 20.333333333333332 L 32.0 21.0 L 31.0 22.0 L 30.0 22.666666666666668 L 29.0 23.0 L 28.0 23.333333333333332 L 27.0 24.0 L 26.0 24.666666666666668 L 25.0 25.333333333333332 L 24.0 26.0 L 23.0 27.0 L 22.0 28.0 L 21.0 29.0 L 20.0 30.0 L 19.0 31.0 L 18.0 32.0 L 17.333333333333332 33.0 L 16.666666666666668 34.0 L 16.0 35.0 L 15.333333333333334 36.0 L 14.666666666666666 37.0 L 14.0 38.0 L 13.333333333333334 39.0 L 12.666666666666666 40.0 L 12.333333333333334 41.0 L 11.666666666666666 42.0 L 11.333333333333334 43.0 L 10.666666666666666 44.0 L 10.333333333333334 45.0 L 9.666666666666666 46.0 L 9.333333333333334 47.0 L 9.0 48.0 L 8.666666666666666 49.0 L 8.333333333333334 50.0 L 8.0 51.0 L 7.666666666666667 52.0 L 7.333333333333333 53.0 L 7.0 54.0 L 6.666666666666667 55.0 L 6.333333333333333 56.0 L 6.0 57.0 L 6.0 58.0 L 6.0 59.0 L 5.666666666666667 60.0 L 5.333333333333333 61.0 L 5.0 62.0 L 5.0 63.0 L 5.0 64.0 L 4.666666666666667 65.0 L 4.333333333333333 66.0 L 4.0 67.0 L 4.0 68.0 L 4.0 69.0 L 4.0 70.0 L 4.0 71.0 L 4.0 72.0 L 4.0 73.0 L 4.0 74.0 L 4.0 75.0 L 4.0 76.0 L 4.0 77.0 L 4.0 78.0 L 4.0 79.0 L 3.6666666666666665 80.0 L 3.3333333333333335 81.0 L 3.0 82.0 L 3.3333333333333335 83.0 L 3.6666666666666665 84.0 L 4.0 85.0 L 4.0 86.0 L 4.0 87.0 L 4.0 88.0 L 4.0 89.0 L 4.0 90.0 L 4.0 91.0 L 4.0 92.0 L 4.0 93.0 L 4.0 94.0 L 4.0 95.0 L 4.0 96.0 L 4.0 97.0 L 4.333333333333333 98.0 L 4.666666666666667 99.0 L 5.0 100.0 L 5.333333333333333 101.0 L 5.666666666666667 102.0 L 6.333333333333333 103.0 L 7.0 104.0 L 7.666666666666667 105.0 L 8.333333333333334 106.0 L 8.666666666666666 107.0 L 9.333333333333334 108.0 L 9.666666666666666 109.0 L 10.333333333333334 110.0 L 11.0 111.0 L 11.666666666666666 112.0 L 12.333333333333334 112.66666666666667 L 13.0 113.0 L 13.666666666666666 112.66666666666667 L 14.0 112.0 L 14.0 111.0 L 14.0 110.0 L 14.0 109.0 L 14.0 108.0 L 14.333333333333334 107.0 L 14.666666666666666 106.0 L 15.0 105.0 L 15.0 104.0 L 15.0 103.0 L 14.666666666666666 102.0 L 14.0 101.0 L 13.0 100.0 L 12.0 99.0 L 11.333333333333334 98.0 L 10.666666666666666 97.0 L 10.333333333333334 96.0 L 10.0 95.0 L 9.666666666666666 94.0 L 9.333333333333334 93.0 L 9.0 92.0 L 9.0 91.0 L 9.0 90.0 L 9.0 89.0 L 9.0 88.0 L 9.0 87.0 L 9.0 86.0 L 9.0 85.0 L 9.0 84.0 L 9.0 83.0 L 9.0 82.0 L 9.0 81.0 L 9.0 80.0 L 9.0 79.0 L 9.333333333333334 78.0 L 9.666666666666666 77.0 L 10.0 76.0 L 10.0 75.0 L 10.0 74.0 L 10.0 73.0 L 10.0 72.0 L 10.0 71.0 L 10.0 70.0 L 10.0 69.0 L 10.333333333333334 68.0 L 10.666666666666666 67.0 L 11.0 66.0 L 11.0 65.0 L 11.0 64.0 L 11.0 63.0 L 11.333333333333334 62.0 L 11.666666666666666 61.0 L 12.0 60.0 L 12.333333333333334 59.0 L 12.666666666666666 58.0 L 13.0 57.0 L 13.0 56.0 L 13.0 55.0 L 13.333333333333334 54.0 L 14.0 53.0 L 14.666666666666666 52.0 L 15.0 51.0 L 15.333333333333334 50.0 L 15.666666666666666 49.0 L 16.333333333333332 48.0 L 17.0 47.0 L 17.666666666666668 46.0 L 18.0 45.0 L 18.333333333333332 44.0 L 18.666666666666668 43.0 L 19.333333333333332 42.0 L 20.0 41.0 L 21.0 40.0 L 21.666666666666668 39.0 L 22.333333333333332 38.0 L 23.0 37.0 L 24.0 36.0 L 25.0 35.0 L 26.0 34.0 L 27.0 33.0 L 28.0 32.0 L 29.0 31.0 L 30.0 30.333333333333332 L 31.0 30.0 L 31.666666666666668 29.666666666666668 L 32.333333333333336 29.0 L 33.0 28.333333333333332 L 34.0 27.666666666666668 L 35.0 27.333333333333332 L 36.0 26.666666666666668 L 37.0 26.0 L 38.0 25.333333333333332 L 39.0 25.0 L 40.0 24.666666666666668 L 41.0 24.333333333333332 L 42.0 24.0 L 43.0 23.666666666666668 L 44.0 23.333333333333332 L 45.0 22.666666666666668 L 46.0 22.333333333333332 L 47.0 22.0 L 48.0 22.0 L 49.0 22.0 L 50.0 21.666666666666668 L 51.0 21.333333333333332 L 52.0 21.0 L 53.0 21.0 L 54.0 21.0 L 55.0 21.0 L 56.0 20.666666666666668 L 57.0 20.333333333333332 L 58.0 20.0 L 59.0 20.0 L 60.0 20.0 L 61.0 20.0 L 62.0 20.0 L 63.0 20.0 L 64.0 20.0 L 65.0 20.0 L 66.0 20.0 L 67.0 20.0 L 68.0 20.0 L 69.0 20.0 L 70.0 20.0 L 71.0 20.0 L 72.0 20.333333333333332 L 73.0 20.666666666666668 L 74.0 21.0 L 75.0 21.0 L 76.0 21.0 L 77.0 21.0 L 78.0 21.333333333333332 L 79.0 21.666666666666668 L 80.0 22.0 L 81.0 22.333333333333332 L 82.0 22.666666666666668 L 83.0 23.0 L 84.0 23.0 L 85.0 23.333333333333332 L 86.0 23.666666666666668 L 87.0 24.0 L 88.0 24.333333333333332 L 89.0 24.666666666666668 L 90.0 25.0 L 91.0 25.333333333333332 L 92.0 26.0 L 93.0 27.0 L 94.0 27.666666666666668 L 95.0 28.333333333333332 L 96.0 29.0 L 97.0 30.0 L 98.0 30.666666666666668 L 99.0 31.333333333333332 L 100.0 32.0 L 100.5 32.5 Z" stroke="none" fill="rgb(194,59,0)" />
<path d="M 71.5 24.0 L 72.0 23.666666666666668 L 72.66666666666667 23.0 L 73.0 22.0 L 73.0 21.0 L 72.66666666666667 20.333333333333332 L 72.0 20.0 L 71.0 20.0 L 70.0 20.0 L 69.0 20.0 L 68.0 20.0 L 67.0 20.0 L 66.0 20.0 L 65.0 20.0 L 64.0 20.0 L 63.0 20.0 L 62.0 20.0 L 61.0 20.0 L 60.0 20.0 L 59.0 20.0 L 58.0 20.0 L 57.0 20.0 L 56.333333333333336 20.333333333333332 L 56.0 21.0 L 56.333333333333336 22.0 L 57.0 23.0 L 58.0 24.0 L 59.0 24.666666666666668 L 60.0 25.333333333333332 L 61.0 25.666666666666668 L 62.0 26.0 L 63.0 26.0 L 64.0 26.0 L 65.0 26.0 L 66.0 26.0 L 67.0 26.0 L 68.0 25.666666666666668 L 69.0 25.333333333333332 L 70.0 24.666666666666668 L 70.5 24.5 Z" stroke="none" fill="rgb(247,131,33)" />
<path d="M 59.5 30.5 L 60.0 30.666666666666668 L 61.0 31.0 L 62.0 31.0 L 63.0 31.0 L 64.0 31.0 L 65.0 31.0 L 66.0 31.0 L 67.0 31.0 L 68.0 31.0 L 69.0 30.666666666666668 L 70.0 30.333333333333332 L 71.0 30.0 L 72.0 29.666666666666668 L 73.0 29.0 L 74.0 28.333333333333332 L 75.0 27.666666666666668 L 76.0 27.0 L 77.0 26.0 L 77.66666666666667 25.0 L 78.33333333333333 24.0 L 78.66666666666667 23.0 L 79.0 22.0 L 78.66666666666667 21.333333333333332 L 78.0 21.0 L 77.0 21.0 L 76.0 21.0 L 75.0 21.0 L 74.0 21.0 L 73.33333333333333 21.333333333333332 L 72.66666666666667 22.0 L 72.0 23.0 L 71.0 23.666666666666668 L 70.0 24.333333333333332 L 69.0 24.666666666666668 L 68.0 25.333333333333332 L 67.0 25.666666666666668 L 66.0 26.0 L 65.0 26.0 L 64.0 26.0 L 63.0 26.0 L 62.0 25.666666666666668 L 61.0 25.333333333333332 L 60.0 24.666666666666668 L 59.0 24.0 L 58.0 23.0 L 57.0 22.0 L 56.0 21.333333333333332 L 55.0 21.0 L 54.0 21.0 L 53.0 21.0 L 52.0 21.0 L 51.0 21.0 L 50.333333333333336 21.333333333333332 L 50.0 22.0 L 50.333333333333336 23.0 L 51.0 24.0 L 51.666666666666664 25.0 L 52.333333333333336 26.0 L 53.0 27.0 L 54.0 27.666666666666668 L 55.0 28.333333333333332 L 56.0 28.666666666666668 L 57.0 29.333333333333332 L 58.0 29.666666666666668 L 58.5 30.0 Z" stroke="none" fill="rgb(246,126,31)" />
<path d="M 85.0 26.5 L 85.33333333333333 26.0 L 85.66666666666667 25.0 L 86.0 24.0 L 85.66666666666667 23.333333333333332 L 85.0 23.0 L 84.0 23.0 L 83.0 23.0 L 82.0 23.333333333333332 L 81.33333333333333 24.0 L 80.66666666666667 25.0 L 80.0 26.0 L 79.0 27.0 L 78.0 28.0 L 77.0 29.0 L 76.0 30.0 L 75.0 30.666666666666668 L 74.0 31.333333333333332 L 73.0 31.666666666666668 L 72.0 32.333333333333336 L 71.0 32.666666666666664 L 70.0 33.0 L 69.0 33.333333333333336 L 68.0 33.666666666666664 L 67.0 34.0 L 66.0 34.0 L 65.0 34.0 L 64.0 34.0 L 63.0 34.0 L 62.0 34.0 L 61.0 33.666666666666664 L 60.0 33.333333333333336 L 59.0 33.0 L 58.0 32.666666666666664 L 57.0 32.333333333333336 L 56.0 31.666666666666668 L 55.0 31.333333333333332 L 54.0 30.666666666666668 L 53.0 30.0 L 52.0 29.0 L 51.0 28.0 L 50.0 27.0 L 49.333333333333336 26.0 L 48.666666666666664 25.0 L 48.0 24.0 L 47.333333333333336 23.0 L 46.666666666666664 22.333333333333332 L 46.0 22.0 L 45.0 22.333333333333332 L 44.0 22.666666666666668 L 43.333333333333336 23.333333333333332 L 43.0 24.0 L 43.333333333333336 25.0 L 43.666666666666664 26.0 L 44.333333333333336 27.0 L 45.0 28.0 L 46.0 29.0 L 46.666666666666664 30.0 L 47.333333333333336 31.0 L 48.0 32.0 L 49.0 32.666666666666664 L 50.0 33.333333333333336 L 51.0 34.0 L 52.0 34.666666666666664 L 53.0 35.333333333333336 L 54.0 35.666666666666664 L 55.0 36.333333333333336 L 56.0 36.666666666666664 L 57.0 37.0 L 58.0 37.333333333333336 L 59.0 37.666666666666664 L 60.0 38.0 L 61.0 38.0 L 62.0 38.0 L 63.0 38.0 L 64.0 38.0 L 65.0 38.0 L 66.0 38.0 L 67.0 38.0 L 68.0 38.0 L 69.0 38.0 L 70.0 37.666666666666664 L 71.0 37.333333333333336 L 72.0 37.0 L 73.0 36.666666666666664 L 74.0 36.333333333333336 L 75.0 35.666666666666664 L 76.0 35.333333333333336 L 77.0 34.666666666666664 L 78.0 34.0 L 79.0 33.333333333333336 L 80.0 32.666666666666664 L 81.0 32.0 L 82.0 31.0 L 82.66666666666667 30.0 L 83.33333333333333 29.0 L 84.0 28.0 L 84.5 27.5 Z" stroke="none" fill="rgb(244,118,27)" />
<path d="M 50.5 28.5 L 51.0 29.0 L 52.0 30.0 L 53.0 30.666666666666668 L 54.0 31.333333333333332 L 55.0 31.666666666666668 L 56.0 32.333333333333336 L 57.0 32.666666666666664 L 58.0 33.0 L 59.0 33.333333333333336 L 60.0 33.666666666666664 L 61.0 34.0 L 62.0 34.0 L 63.0 34.0 L 64.0 34.0 L 65.0 34.0 L 66.0 34.0 L 67.0 34.0 L 68.0 34.0 L 69.0 33.666666666666664 L 70.0 33.333333333333336 L 71.0 33.0 L 72.0 32.666666666666664 L 73.0 32.333333333333336 L 74.0 31.666666666666668 L 75.0 31.333333333333332 L 76.0 30.666666666666668 L 77.0 30.0 L 78.0 29.0 L 79.0 28.0 L 80.0 27.0 L 80.66666666666667 26.0 L 81.33333333333333 25.0 L 81.66666666666667 24.0 L 82.0 23.0 L 81.66666666666667 22.333333333333332 L 81.0 22.0 L 80.0 22.0 L 79.0 22.333333333333332 L 78.33333333333333 23.0 L 77.66666666666667 24.0 L 77.0 25.0 L 76.0 26.0 L 75.0 27.0 L 74.0 27.666666666666668 L 73.0 28.333333333333332 L 72.0 29.0 L 71.0 29.666666666666668 L 70.0 30.0 L 69.0 30.333333333333332 L 68.0 30.666666666666668 L 67.0 31.0 L 66.0 31.0 L 65.0 31.0 L 64.0 31.0 L 63.0 31.0 L 62.0 31.0 L 61.0 30.666666666666668 L 60.0 30.333333333333332 L 59.0 29.666666666666668 L 58.0 29.333333333333332 L 57.0 28.666666666666668 L 56.0 28.333333333333332 L 55.0 27.666666666666668 L 54.0 27.0 L 53.0 26.0 L 52.333333333333336 25.0 L 51.666666666666664 24.0 L 51.0 23.0 L 50.0 22.333333333333332 L 49.0 22.0 L 48.0 22.0 L 47.333333333333336 22.333333333333332 L 47.0 23.0 L 47.333333333333336 24.0 L 48.0 25.0 L 48.666666666666664 26.0 L 49.333333333333336 27.0 L 49.5 27.5 Z" stroke="none" fill="rgb(245,122,29)" />
<path d="M 88.0 29.5 L 88.33333333333333 29.0 L 88.66666666666667 28.0 L 89.33333333333333 27.0 L 89.66666666666667 26.0 L 89.66666666666667 25.0 L 89.0 24.333333333333332 L 88.0 24.0 L 87.0 24.0 L 86.0 24.333333333333332 L 85.33333333333333 25.0 L 84.66666666666667 26.0 L 84.0 27.0 L 83.33333333333333 28.0 L 82.66666666666667 29.0 L 82.0 30.0 L 81.0 31.0 L 80.0 32.0 L 79.0 32.666666666666664 L 78.0 33.333333333333336 L 77.0 34.0 L 76.0 34.666666666666664 L 75.0 35.333333333333336 L 74.0 35.666666666666664 L 73.0 36.333333333333336 L 72.0 36.666666666666664 L 71.0 37.0 L 70.0 37.333333333333336 L 69.0 37.666666666666664 L 68.0 38.0 L 67.0 38.0 L 66.0 38.0 L 65.0 38.0 L 64.0 38.0 L 63.0 38.0 L 62.0 38.0 L 61.0 38.0 L 60.0 37.666666666666664 L 59.0 37.333333333333336 L 58.0 37.0 L 57.0 36.666666666666664 L 56.0 36.333333333333336 L 55.0 35.666666666666664 L 54.0 35.333333333333336 L 53.0 34.666666666666664 L 52.0 34.0 L 51.0 33.333333333333336 L 50.0 32.666666666666664 L 49.0 32.0 L 48.0 31.0 L 47.333333333333336 30.0 L 46.666666666666664 29.0 L 46.0 28.0 L 45.0 27.0 L 44.333333333333336 26.0 L 43.666666666666664 25.0 L 43.0 24.333333333333332 L 42.0 24.0 L 41.0 24.0 L 40.0 24.333333333333332 L 39.333333333333336 25.0 L 39.333333333333336 26.0 L 39.666666666666664 27.0 L 40.333333333333336 28.0 L 41.0 29.0 L 41.666666666666664 30.0 L 42.333333333333336 31.0 L 43.0 32.0 L 44.0 33.0 L 45.0 34.0 L 46.0 35.0 L 47.0 36.0 L 48.0 37.0 L 49.0 37.666666666666664 L 50.0 38.333333333333336 L 51.0 38.666666666666664 L 52.0 39.333333333333336 L 53.0 39.666666666666664 L 54.0 40.333333333333336 L 55.0 40.666666666666664 L 56.0 41.0 L 57.0 41.333333333333336 L 58.0 41.666666666666664 L 59.0 42.0 L 60.0 42.0 L 61.0 42.0 L 62.0 42.0 L 63.0 42.0 L 64.0 42.0 L 65.0 42.0 L 66.0 42.0 L 67.0 42.0 L 68.0 42.0 L 69.0 42.0 L 70.0 42.0 L 71.0 41.666666666666664 L 72.0 41.333333333333336 L 73.0 41.0 L 74.0 40.666666666666664 L 75.0 40.333333333333336 L 76.0 39.666666666666664 L 77.0 39.333333333333336 L 78.0 38.666666666666664 L 79.0 38.333333333333336 L 80.0 37.666666666666664 L 81.0 37.0 L 82.0 36.0 L 83.0 35.0 L 84.0 34.0 L 85.0 33.0 L 86.0 32.0 L 87.0 31.0 L 87.5 30.5 Z" stroke="none" fill="rgb(243,114,25)" />
<path d="M 88.5 35.5 L 89.0 35.0 L 89.66666666666667 34.0 L 90.33333333333333 33.0 L 91.0 32.0 L 91.66666666666667 31.0 L 92.33333333333333 30.0 L 93.0 29.0 L 93.66666666666667 28.0 L 93.66666666666667 27.0 L 93.0 26.0 L 92.0 25.333333333333332 L 91.0 25.0 L 90.0 25.333333333333332 L 89.33333333333333 26.0 L 88.66666666666667 27.0 L 88.33333333333333 28.0 L 87.66666666666667 29.0 L 87.0 30.0 L 86.0 31.0 L 85.0 32.0 L 84.0 33.0 L 83.0 34.0 L 82.0 35.0 L 81.0 36.0 L 80.0 37.0 L 79.0 37.666666666666664 L 78.0 38.333333333333336 L 77.0 38.666666666666664 L 76.0 39.333333333333336 L 75.0 39.666666666666664 L 74.0 40.333333333333336 L 73.0 40.666666666666664 L 72.0 41.0 L 71.0 41.333333333333336 L 70.0 41.666666666666664 L 69.0 42.0 L 68.0 42.0 L 67.0 42.0 L 66.0 42.0 L 65.0 42.0 L 64.0 42.0 L 63.0 42.0 L 62.0 42.0 L 61.0 42.0 L 60.0 42.0 L 59.0 41.666666666666664 L 58.0 41.333333333333336 L 57.0 41.0 L 56.0 40.666666666666664 L 55.0 40.333333333333336 L 54.0 39.666666666666664 L 53.0 39.333333333333336 L 52.0 38.666666666666664 L 51.0 38.333333333333336 L 50.0 37.666666666666664 L 49.0 37.0 L 48.0 36.0 L 47.0 35.0 L 46.0 34.0 L 45.0 33.0 L 44.0 32.0 L 43.0 31.0 L 42.333333333333336 30.0 L 41.666666666666664 29.0 L 41.0 28.0 L 40.333333333333336 27.0 L 39.666666666666664 26.0 L 39.0 25.333333333333332 L 38.0 25.0 L 37.0 25.333333333333332 L 36.333333333333336 26.0 L 36.0 27.0 L 36.0 28.0 L 36.333333333333336 29.0 L 36.666666666666664 30.0 L 37.333333333333336 31.0 L 38.0 32.0 L 38.666666666666664 33.0 L 39.333333333333336 34.0 L 40.0 35.0 L 41.0 36.0 L 42.0 37.0 L 43.0 38.0 L 44.0 39.0 L 45.0 40.0 L 46.0 40.666666666666664 L 47.0 41.333333333333336 L 48.0 41.666666666666664 L 49.0 42.333333333333336 L 50.0 42.666666666666664 L 51.0 43.333333333333336 L 52.0 43.666666666666664 L 53.0 44.333333333333336 L 54.0 44.666666666666664 L 55.0 45.0 L 56.0 45.0 L 57.0 45.333333333333336 L 58.0 45.666666666666664 L 59.0 46.0 L 60.0 46.0 L 61.0 46.0 L 62.0 46.0 L 63.0 46.0 L 64.0 46.0 L 65.0 46.0 L 66.0 46.0 L 67.0 46.0 L 68.0 46.0 L 69.0 46.0 L 70.0 46.0 L 71.0 45.666666666666664 L 72.0 45.333333333333336 L 73.0 45.0 L 74.0 45.0 L 75.0 44.666666666666664 L 76.0 44.333333333333336 L 77.0 43.666666666666664 L 78.0 43.333333333333336 L 79.0 42.666666666666664 L 80.0 42.333333333333336 L 81.0 41.666666666666664 L 82.0 41.333333333333336 L 83.0 40.666666666666664 L 84.0 40.0 L 85.0 39.0 L 86.0 38.0 L 87.0 37.0 L 87.5 36.5 Z" stroke="none" fill="rgb(242,110,23)" />
<path d="M 88.5 41.5 L 89.0 41.0 L 90.0 40.0 L 91.0 39.0 L 92.0 38.0 L 92.66666666666667 37.0 L 93.33333333333333 36.0 L 94.0 35.0 L 94.66666666666667 34.0 L 95.33333333333333 33.0 L 95.66666666666667 32.0 L 96.33333333333333 31.0 L 96.66666666666667 30.0 L 96.66666666666667 29.0 L 96.0 28.333333333333332 L 95.0 28.0 L 94.0 28.0 L 93.0 28.333333333333332 L 92.33333333333333 29.0 L 91.66666666666667 30.0 L 91.0 31.0 L 90.33333333333333 32.0 L 89.66666666666667 33.0 L 89.0 34.0 L 88.0 35.0 L 87.0 36.0 L 86.0 37.0 L 85.0 38.0 L 84.0 39.0 L 83.0 40.0 L 82.0 40.666666666666664 L 81.0 41.333333333333336 L 80.0 41.666666666666664 L 79.0 42.333333333333336 L 78.0 42.666666666666664 L 77.0 43.333333333333336 L 76.0 43.666666666666664 L 75.0 44.333333333333336 L 74.0 44.666666666666664 L 73.0 45.0 L 72.0 45.0 L 71.0 45.333333333333336 L 70.0 45.666666666666664 L 69.0 46.0 L 68.0 46.0 L 67.0 46.0 L 66.0 46.0 L 65.0 46.0 L 64.0 46.0 L 63.0 46.0 L 62.0 46.0 L 61.0 46.0 L 60.0 46.0 L 59.0 45.666666666666664 L 58.0 45.333333333333336 L 57.0 45.0 L 56.0 45.0 L 55.0 44.666666666666664 L 54.0 44.333333333333336 L 53.0 43.666666666666664 L 52.0 43.333333333333336 L 51.0 42.666666666666664 L 50.0 42.333333333333336 L 49.0 41.666666666666664 L 48.0 41.333333333333336 L 47.0 40.666666666666664 L 46.0 40.0 L 45.0 39.0 L 44.0 38.0 L 43.0 37.0 L 42.0 36.0 L 41.0 35.0 L 40.0 34.0 L 39.333333333333336 33.0 L 38.666666666666664 32.0 L 38.0 31.0 L 37.333333333333336 30.0 L 36.666666666666664 29.0 L 36.333333333333336 28.0 L 35.666666666666664 27.333333333333332 L 35.0 27.0 L 34.0 27.333333333333332 L 33.0 27.666666666666668 L 32.333333333333336 28.333333333333332 L 32.0 29.0 L 32.333333333333336 30.0 L 32.666666666666664 31.0 L 33.333333333333336 32.0 L 33.666666666666664 33.0 L 34.333333333333336 34.0 L 35.0 35.0 L 36.0 36.0 L 36.666666666666664 37.0 L 37.333333333333336 38.0 L 38.0 39.0 L 39.0 40.0 L 40.0 41.0 L 41.0 42.0 L 42.0 42.666666666666664 L 43.0 43.333333333333336 L 44.0 44.0 L 45.0 44.666666666666664 L 46.0 45.333333333333336 L 47.0 45.666666666666664 L 48.0 46.333333333333336 L 49.0 46.666666666666664 L 50.0 47.333333333333336 L 51.0 47.666666666666664 L 52.0 48.333333333333336 L 53.0 48.666666666666664 L 54.0 49.0 L 55.0 49.0 L 56.0 49.333333333333336 L 57.0 49.666666666666664 L 58.0 50.0 L 59.0 50.0 L 60.0 50.0 L 61.0 50.0 L 62.0 50.0 L 63.0 50.0 L 64.0 50.0 L 65.0 50.0 L 66.0 50.0 L 67.0 50.0 L 68.0 50.0 L 69.0 50.0 L 70.0 50.0 L 71.0 50.0 L 72.0 49.666666666666664 L 73.0 49.333333333333336 L 74.0 49.0 L 75.0 49.0 L 76.0 48.666666666666664 L 77.0 48.333333333333336 L 78.0 47.666666666666664 L 79.0 47.333333333333336 L 80.0 47.0 L 81.0 46.666666666666664 L 82.0 46.0 L 83.0 45.333333333333336 L 84.0 44.666666666666664 L 85.0 44.0 L 86.0 43.333333333333336 L 87.0 42.666666666666664 L 87.5 42.5 Z" stroke="none" fill="rgb(241,106,22)" />
<path d="M 101.0 32.5 L 100.66666666666667 32.0 L 100.0 31.333333333333332 L 99.0 31.0 L 98.33333333333333 31.333333333333332 L 97.66666666666667 32.0 L 97.0 33.0 L 96.33333333333333 34.0 L 95.66666666666667 35.0 L 95.0 36.0 L 94.33333333333333 37.0 L 93.66666666666667 38.0 L 93.0 39.0 L 92.0 40.0 L 91.0 41.0 L 90.0 42.0 L 89.0 43.0 L 88.0 43.666666666666664 L 87.0 44.333333333333336 L 86.0 45.0 L 85.0 46.0 L 84.0 46.666666666666664 L 83.0 47.333333333333336 L 82.0 47.666666666666664 L 81.0 48.333333333333336 L 80.0 48.666666666666664 L 79.0 49.333333333333336 L 78.0 49.666666666666664 L 77.0 50.0 L 76.0 50.333333333333336 L 75.0 50.666666666666664 L 74.0 51.0 L 73.0 51.0 L 72.0 51.333333333333336 L 71.0 51.666666666666664 L 70.0 52.0 L 69.0 52.0 L 68.0 52.0 L 67.0 52.0 L 66.0 52.0 L 65.0 52.0 L 64.0 52.0 L 63.0 52.0 L 62.0 52.0 L 61.0 52.0 L 60.0 52.0 L 59.0 52.0 L 58.0 51.666666666666664 L 57.0 51.333333333333336 L 56.0 51.0 L 55.0 51.0 L 54.0 50.666666666666664 L 53.0 50.333333333333336 L 52.0 50.0 L 51.0 49.666666666666664 L 50.0 49.333333333333336 L 49.0 48.666666666666664 L 48.0 48.333333333333336 L 47.0 47.666666666666664 L 46.0 47.0 L 45.0 46.333333333333336 L 44.0 45.666666666666664 L 43.0 45.0 L 42.0 44.333333333333336 L 41.0 43.666666666666664 L 40.0 43.0 L 39.0 42.0 L 38.0 41.0 L 37.0 40.0 L 36.333333333333336 39.0 L 35.666666666666664 38.0 L 35.0 37.0 L 34.0 36.0 L 33.333333333333336 35.0 L 32.666666666666664 34.0 L 32.333333333333336 33.0 L 31.666666666666668 32.0 L 31.333333333333332 31.0 L 30.666666666666668 30.333333333333332 L 30.0 30.0 L 29.0 30.333333333333332 L 28.333333333333332 31.0 L 28.333333333333332 32.0 L 28.666666666666668 33.0 L 29.333333333333332 34.0 L 29.666666666666668 35.0 L 30.333333333333332 36.0 L 31.0 37.0 L 31.666666666666668 38.0 L 32.333333333333336 39.0 L 33.0 40.0 L 34.0 41.0 L 35.0 42.0 L 36.0 43.0 L 37.0 44.0 L 38.0 45.0 L 39.0 46.0 L 40.0 47.0 L 41.0 47.666666666666664 L 42.0 48.333333333333336 L 43.0 48.666666666666664 L 44.0 49.333333333333336 L 45.0 50.0 L 46.0 50.666666666666664 L 47.0 51.333333333333336 L 48.0 51.666666666666664 L 49.0 52.0 L 50.0 52.333333333333336 L 51.0 52.666666666666664 L 52.0 53.0 L 53.0 53.333333333333336 L 54.0 53.666666666666664 L 55.0 54.0 L 56.0 54.0 L 57.0 54.0 L 58.0 54.333333333333336 L 59.0 54.666666666666664 L 60.0 55.0 L 61.0 55.0 L 62.0 55.0 L 63.0 55.0 L 64.0 55.0 L 65.0 55.0 L 66.0 55.0 L 67.0 55.0 L 68.0 55.0 L 69.0 55.0 L 70.0 54.666666666666664 L 71.0 54.333333333333336 L 72.0 54.0 L 73.0 54.0 L 74.0 54.0 L 75.0 53.666666666666664 L 76.0 53.333333333333336 L 77.0 53.0 L 78.0 52.666666666666664 L 79.0 52.333333333333336 L 80.0 52.0 L 81.0 51.666666666666664 L 82.0 51.333333333333336 L 83.0 50.666666666666664 L 84.0 50.333333333333336 L 85.0 49.666666666666664 L 86.0 49.0 L 87.0 48.333333333333336 L 88.0 47.666666666666664 L 89.0 47.0 L 90.0 46.0 L 91.0 45.0 L 92.0 44.0 L 93.0 43.0 L 94.0 42.0 L 95.0 41.0 L 96.0 40.0 L 96.66666666666667 39.0 L 97.33333333333333 38.0 L 98.0 37.0 L 98.66666666666667 36.0 L 99.33333333333333 35.0 L 100.0 34.0 L 100.5 33.5 Z" stroke="none" fill="rgb(240,101,19)" />
<path d="M 40.5 44.0 L 41.0 44.333333333333336 L 42.0 45.0 L 43.0 45.666666666666664 L 44.0 46.333333333333336 L 45.0 47.0 L 46.0 47.666666666666664 L 47.0 48.333333333333336 L 48.0 48.666666666666664 L 49.0 49.333333333333336 L 50.0 49.666666666666664 L 51.0 50.0 L 52.0 50.333333333333336 L 53.0 50.666666666666664 L 54.0 51.0 L 55.0 51.0 L 56.0 51.333333333333336 L 57.0 51.666666666666664 L 58.0 52.0 L 59.0 52.0 L 60.0 52.0 L 61.0 52.0 L 62.0 52.0 L 63.0 52.0 L 64.0 52.0 L 65.0 52.0 L 66.0 52.0 L 67.0 52.0 L 68.0 52.0 L 69.0 52.0 L 70.0 52.0 L 71.0 52.0 L 72.0 51.666666666666664 L 73.0 51.333333333333336 L 74.0 51.0 L 75.0 51.0 L 76.0 50.666666666666664 L 77.0 50.333333333333336 L 78.0 50.0 L 79.0 49.666666666666664 L 80.0 49.333333333333336 L 81.0 48.666666666666664 L 82.0 48.333333333333336 L 83.0 47.666666666666664 L 84.0 47.333333333333336 L 85.0 46.666666666666664 L 86.0 46.0 L 87.0 45.0 L 88.0 44.333333333333336 L 89.0 43.666666666666664 L 90.0 43.0 L 91.0 42.0 L 92.0 41.0 L 93.0 40.0 L 93.66666666666667 39.0 L 94.33333333333333 38.0 L 95.0 37.0 L 95.66666666666667 36.0 L 96.33333333333333 35.0 L 97.0 34.0 L 97.66666666666667 33.0 L 98.0 32.0 L 98.0 31.0 L 97.66666666666667 30.333333333333332 L 97.0 30.0 L 96.33333333333333 30.333333333333332 L 95.66666666666667 31.0 L 95.33333333333333 32.0 L 94.66666666666667 33.0 L 94.0 34.0 L 93.33333333333333 35.0 L 92.66666666666667 36.0 L 92.0 37.0 L 91.0 38.0 L 90.0 39.0 L 89.0 40.0 L 88.0 41.0 L 87.0 42.0 L 86.0 42.666666666666664 L 85.0 43.333333333333336 L 84.0 44.0 L 83.0 44.666666666666664 L 82.0 45.333333333333336 L 81.0 46.0 L 80.0 46.666666666666664 L 79.0 47.0 L 78.0 47.333333333333336 L 77.0 47.666666666666664 L 76.0 48.333333333333336 L 75.0 48.666666666666664 L 74.0 49.0 L 73.0 49.0 L 72.0 49.333333333333336 L 71.0 49.666666666666664 L 70.0 50.0 L 69.0 50.0 L 68.0 50.0 L 67.0 50.0 L 66.0 50.0 L 65.0 50.0 L 64.0 50.0 L 63.0 50.0 L 62.0 50.0 L 61.0 50.0 L 60.0 50.0 L 59.0 50.0 L 58.0 49.666666666666664 L 57.0 49.333333333333336 L 56.0 49.0 L 55.0 49.0 L 54.0 48.666666666666664 L 53.0 48.333333333333336 L 52.0 47.666666666666664 L 51.0 47.333333333333336 L 50.0 46.666666666666664 L 49.0 46.333333333333336 L 48.0 45.666666666666664 L 47.0 45.333333333333336 L 46.0 44.666666666666664 L 45.0 44.0 L 44.0 43.333333333333336 L 43.0 42.666666666666664 L 42.0 42.0 L 41.0 41.0 L 40.0 40.0 L 39.0 39.0 L 38.0 38.0 L 37.333333333333336 37.0 L 36.666666666666664 36.0 L 36.0 35.0 L 35.0 34.0 L 34.333333333333336 33.0 L 33.666666666666664 32.0 L 33.333333333333336 31.0 L 32.666666666666664 30.333333333333332 L 32.0 30.0 L 31.333333333333332 30.333333333333332 L 31.0 31.0 L 31.333333333333332 32.0 L 31.666666666666668 33.0 L 32.333333333333336 34.0 L 32.666666666666664 35.0 L 33.333333333333336 36.0 L 34.0 37.0 L 35.0 38.0 L 35.666666666666664 39.0 L 36.333333333333336 40.0 L 37.0 41.0 L 38.0 42.0 L 39.0 43.0 L 39.5 43.5 Z" stroke="none" fill="rgb(240,103,20)" />
<path d="M 57.5 57.0 L 58.0 57.0 L 59.0 57.0 L 60.0 57.0 L 61.0 57.0 L 62.0 57.0 L 63.0 57.0 L 64.0 57.0 L 65.0 57.0 L 66.0 57.0 L 67.0 57.0 L 68.0 57.0 L 69.0 57.0 L 70.0 57.0 L 71.0 57.0 L 72.0 57.0 L 73.0 56.666666666666664 L 74.0 56.333333333333336 L 75.0 56.0 L 76.0 56.0 L 77.0 55.666666666666664 L 78.0 55.333333333333336 L 79.0 55.0 L 80.0 54.666666666666664 L 81.0 54.333333333333336 L 82.0 53.666666666666664 L 83.0 53.333333333333336 L 84.0 52.666666666666664 L 85.0 52.333333333333336 L 86.0 51.666666666666664 L 87.0 51.333333333333336 L 88.0 50.666666666666664 L 89.0 50.0 L 90.0 49.333333333333336 L 91.0 48.666666666666664 L 92.0 48.0 L 93.0 47.0 L 94.0 46.0 L 95.0 45.0 L 96.0 44.0 L 97.0 43.0 L 97.66666666666667 42.0 L 98.33333333333333 41.0 L 99.0 40.0 L 100.0 39.0 L 100.66666666666667 38.0 L 101.33333333333333 37.0 L 102.0 36.0 L 102.66666666666667 35.0 L 102.66666666666667 34.0 L 102.0 33.333333333333336 L 101.0 33.0 L 100.0 33.333333333333336 L 99.33333333333333 34.0 L 98.66666666666667 35.0 L 98.0 36.0 L 97.33333333333333 37.0 L 96.66666666666667 38.0 L 96.0 39.0 L 95.0 40.0 L 94.0 41.0 L 93.0 42.0 L 92.0 43.0 L 91.0 44.0 L 90.0 45.0 L 89.0 46.0 L 88.0 47.0 L 87.0 47.666666666666664 L 86.0 48.333333333333336 L 85.0 49.0 L 84.0 49.666666666666664 L 83.0 50.333333333333336 L 82.0 50.666666666666664 L 81.0 51.333333333333336 L 80.0 51.666666666666664 L 79.0 52.0 L 78.0 52.333333333333336 L 77.0 52.666666666666664 L 76.0 53.0 L 75.0 53.333333333333336 L 74.0 53.666666666666664 L 73.0 54.0 L 72.0 54.0 L 71.0 54.0 L 70.0 54.333333333333336 L 69.0 54.666666666666664 L 68.0 55.0 L 67.0 55.0 L 66.0 55.0 L 65.0 55.0 L 64.0 55.0 L 63.0 55.0 L 62.0 55.0 L 61.0 55.0 L 60.0 54.666666666666664 L 59.0 54.333333333333336 L 58.0 54.0 L 57.0 54.0 L 56.0 54.0 L 55.0 53.666666666666664 L 54.0 53.333333333333336 L 53.0 53.0 L 52.0 52.666666666666664 L 51.0 52.333333333333336 L 50.0 52.0 L 49.0 51.666666666666664 L 48.0 51.333333333333336 L 47.0 50.666666666666664 L 46.0 50.0 L 45.0 49.333333333333336 L 44.0 48.666666666666664 L 43.0 48.333333333333336 L 42.0 47.666666666666664 L 41.0 47.0 L 40.0 46.0 L 39.0 45.0 L 38.0 44.0 L 37.0 43.0 L 36.0 42.0 L 35.0 41.0 L 34.0 40.0 L 33.0 39.0 L 32.333333333333336 38.0 L 31.666666666666668 37.0 L 31.0 36.0 L 30.333333333333332 35.0 L 29.666666666666668 34.0 L 29.333333333333332 33.0 L 28.666666666666668 32.333333333333336 L 28.0 32.0 L 27.0 32.333333333333336 L 26.333333333333332 33.0 L 26.333333333333332 34.0 L 26.666666666666668 35.0 L 27.333333333333332 36.0 L 28.0 37.0 L 28.666666666666668 38.0 L 29.333333333333332 39.0 L 30.0 40.0 L 30.666666666666668 41.0 L 31.333333333333332 42.0 L 32.0 43.0 L 33.0 44.0 L 34.0 45.0 L 35.0 46.0 L 36.0 47.0 L 37.0 47.666666666666664 L 38.0 48.333333333333336 L 39.0 49.0 L 40.0 50.0 L 41.0 50.666666666666664 L 42.0 51.333333333333336 L 43.0 51.666666666666664 L 44.0 52.333333333333336 L 45.0 52.666666666666664 L 46.0 53.333333333333336 L 47.0 53.666666666666664 L 48.0 54.333333333333336 L 49.0 54.666666666666664 L 50.0 55.0 L 51.0 55.333333333333336 L 52.0 55.666666666666664 L 53.0 56.0 L 54.0 56.0 L 55.0 56.333333333333336 L 56.0 56.666666666666664 L 56.5 57.0 Z" stroke="none" fill="rgb(239,99,18)" />
<path d="M 55.5 59.0 L 56.0 59.0 L 57.0 59.0 L 58.0 59.0 L 59.0 59.0 L 60.0 59.0 L 61.0 59.0 L 62.0 59.0 L 63.0 59.333333333333336 L 64.0 59.666666666666664 L 65.0 60.0 L 66.0 59.666666666666664 L 67.0 59.333333333333336 L 68.0 59.0 L 69.0 59.0 L 70.0 59.0 L 71.0 59.0 L 72.0 59.0 L 73.0 59.0 L 74.0 58.666666666666664 L 75.0 58.333333333333336 L 76.0 58.0 L 77.0 57.666666666666664 L 78.0 57.333333333333336 L 79.0 57.0 L 80.0 56.666666666666664 L 81.0 56.333333333333336 L 82.0 56.0 L 83.0 55.666666666666664 L 84.0 55.333333333333336 L 85.0 54.666666666666664 L 86.0 54.333333333333336 L 87.0 53.666666666666664 L 88.0 53.0 L 89.0 52.333333333333336 L 90.0 51.666666666666664 L 91.0 51.0 L 92.0 50.333333333333336 L 93.0 49.666666666666664 L 94.0 49.0 L 95.0 48.0 L 96.0 47.0 L 97.0 46.0 L 98.0 45.0 L 98.66666666666667 44.0 L 99.33333333333333 43.0 L 100.0 42.0 L 101.0 41.0 L 101.66666666666667 40.0 L 102.33333333333333 39.0 L 102.66666666666667 38.0 L 103.33333333333333 37.0 L 103.66666666666667 36.0 L 103.66666666666667 35.333333333333336 L 103.0 35.0 L 102.0 35.333333333333336 L 101.33333333333333 36.0 L 100.66666666666667 37.0 L 100.0 38.0 L 99.0 39.0 L 98.33333333333333 40.0 L 97.66666666666667 41.0 L 97.0 42.0 L 96.0 43.0 L 95.0 44.0 L 94.0 45.0 L 93.0 46.0 L 92.0 47.0 L 91.0 48.0 L 90.0 48.666666666666664 L 89.0 49.333333333333336 L 88.0 50.0 L 87.0 50.666666666666664 L 86.0 51.333333333333336 L 85.0 51.666666666666664 L 84.0 52.333333333333336 L 83.0 52.666666666666664 L 82.0 53.333333333333336 L 81.0 53.666666666666664 L 80.0 54.333333333333336 L 79.0 54.666666666666664 L 78.0 55.0 L 77.0 55.333333333333336 L 76.0 55.666666666666664 L 75.0 56.0 L 74.0 56.0 L 73.0 56.333333333333336 L 72.0 56.666666666666664 L 71.0 57.0 L 70.0 57.0 L 69.0 57.0 L 68.0 57.0 L 67.0 57.0 L 66.0 57.0 L 65.0 57.0 L 64.0 57.0 L 63.0 57.0 L 62.0 57.0 L 61.0 57.0 L 60.0 57.0 L 59.0 57.0 L 58.0 57.0 L 57.0 56.666666666666664 L 56.0 56.333333333333336 L 55.0 56.0 L 54.0 56.0 L 53.0 55.666666666666664 L 52.0 55.333333333333336 L 51.0 55.0 L 50.0 54.666666666666664 L 49.0 54.333333333333336 L 48.0 53.666666666666664 L 47.0 53.333333333333336 L 46.0 52.666666666666664 L 45.0 52.333333333333336 L 44.0 51.666666666666664 L 43.0 51.333333333333336 L 42.0 50.666666666666664 L 41.0 50.0 L 40.0 49.0 L 39.0 48.333333333333336 L 38.0 47.666666666666664 L 37.0 47.0 L 36.0 46.0 L 35.0 45.0 L 34.0 44.0 L 33.0 43.0 L 32.0 42.0 L 31.333333333333332 41.0 L 30.666666666666668 40.0 L 30.0 39.0 L 29.333333333333332 38.0 L 28.666666666666668 37.0 L 28.0 36.0 L 27.333333333333332 35.0 L 26.666666666666668 34.333333333333336 L 26.0 34.0 L 25.333333333333332 34.333333333333336 L 25.0 35.0 L 25.333333333333332 36.0 L 25.666666666666668 37.0 L 26.333333333333332 38.0 L 26.666666666666668 39.0 L 27.333333333333332 40.0 L 28.0 41.0 L 29.0 42.0 L 29.666666666666668 43.0 L 30.333333333333332 44.0 L 31.0 45.0 L 32.0 46.0 L 33.0 47.0 L 34.0 48.0 L 35.0 48.666666666666664 L 36.0 49.333333333333336 L 37.0 50.0 L 38.0 51.0 L 39.0 51.666666666666664 L 40.0 52.333333333333336 L 41.0 53.0 L 42.0 53.666666666666664 L 43.0 54.333333333333336 L 44.0 54.666666666666664 L 45.0 55.333333333333336 L 46.0 55.666666666666664 L 47.0 56.0 L 48.0 56.333333333333336 L 49.0 56.666666666666664 L 50.0 57.0 L 51.0 57.333333333333336 L 52.0 57.666666666666664 L 53.0 58.0 L 54.0 58.333333333333336 L 54.5 58.5 Z" stroke="none" fill="rgb(239,96,17)" />
<path d="M 23.5 40.5 L 23.666666666666668 41.0 L 24.333333333333332 42.0 L 25.0 43.0 L 25.666666666666668 44.0 L 26.333333333333332 45.0 L 27.0 46.0 L 28.0 47.0 L 29.0 48.0 L 30.0 49.0 L 31.0 50.0 L 32.0 51.0 L 33.0 52.0 L 34.0 52.666666666666664 L 35.0 53.333333333333336 L 36.0 54.0 L 37.0 55.0 L 38.0 55.666666666666664 L 39.0 56.333333333333336 L 40.0 56.666666666666664 L 41.0 57.333333333333336 L 42.0 57.666666666666664 L 43.0 58.333333333333336 L 44.0 58.666666666666664 L 45.0 59.333333333333336 L 46.0 59.666666666666664 L 47.0 60.0 L 48.0 60.333333333333336 L 49.0 60.666666666666664 L 50.0 61.0 L 51.0 61.333333333333336 L 52.0 61.666666666666664 L 53.0 62.0 L 54.0 62.0 L 55.0 62.333333333333336 L 56.0 62.666666666666664 L 57.0 63.0 L 58.0 63.0 L 59.0 63.0 L 60.0 63.0 L 61.0 63.0 L 62.0 63.0 L 63.0 63.0 L 64.0 63.0 L 65.0 63.0 L 66.0 63.0 L 67.0 63.0 L 68.0 63.0 L 69.0 63.0 L 70.0 63.0 L 71.0 63.0 L 72.0 63.0 L 73.0 62.666666666666664 L 74.0 62.333333333333336 L 75.0 62.0 L 76.0 62.0 L 77.0 61.666666666666664 L 78.0 61.333333333333336 L 79.0 61.0 L 80.0 60.666666666666664 L 81.0 60.333333333333336 L 82.0 60.0 L 83.0 59.666666666666664 L 84.0 59.333333333333336 L 85.0 58.666666666666664 L 86.0 58.333333333333336 L 87.0 57.666666666666664 L 88.0 57.333333333333336 L 89.0 56.666666666666664 L 90.0 56.333333333333336 L 91.0 55.666666666666664 L 92.0 55.0 L 93.0 54.333333333333336 L 94.0 53.666666666666664 L 95.0 53.0 L 96.0 52.0 L 97.0 51.0 L 98.0 50.0 L 99.0 49.0 L 100.0 48.0 L 101.0 47.0 L 102.0 46.0 L 102.66666666666667 45.0 L 103.33333333333333 44.0 L 104.0 43.0 L 104.66666666666667 42.0 L 105.33333333333333 41.0 L 106.0 40.0 L 106.66666666666667 39.0 L 106.66666666666667 38.0 L 106.0 37.0 L 105.0 36.333333333333336 L 104.0 36.0 L 103.33333333333333 36.333333333333336 L 102.66666666666667 37.0 L 102.33333333333333 38.0 L 101.66666666666667 39.0 L 101.0 40.0 L 100.0 41.0 L 99.33333333333333 42.0 L 98.66666666666667 43.0 L 98.0 44.0 L 97.0 45.0 L 96.0 46.0 L 95.0 47.0 L 94.0 48.0 L 93.0 49.0 L 92.0 49.666666666666664 L 91.0 50.333333333333336 L 90.0 51.0 L 89.0 51.666666666666664 L 88.0 52.333333333333336 L 87.0 53.0 L 86.0 53.666666666666664 L 85.0 54.333333333333336 L 84.0 54.666666666666664 L 83.0 55.333333333333336 L 82.0 55.666666666666664 L 81.0 56.0 L 80.0 56.333333333333336 L 79.0 56.666666666666664 L 78.0 57.0 L 77.0 57.333333333333336 L 76.0 57.666666666666664 L 75.0 58.0 L 74.0 58.333333333333336 L 73.0 58.666666666666664 L 72.0 59.0 L 71.0 59.0 L 70.0 59.0 L 69.0 59.0 L 68.0 59.0 L 67.0 59.0 L 66.0 59.333333333333336 L 65.0 59.333333333333336 L 64.0 59.333333333333336 L 63.0 59.0 L 62.0 59.0 L 61.0 59.0 L 60.0 59.0 L 59.0 59.0 L 58.0 59.0 L 57.0 59.0 L 56.0 58.666666666666664 L 55.0 58.333333333333336 L 54.0 58.0 L 53.0 57.666666666666664 L 52.0 57.333333333333336 L 51.0 57.0 L 50.0 56.666666666666664 L 49.0 56.333333333333336 L 48.0 56.0 L 47.0 55.666666666666664 L 46.0 55.333333333333336 L 45.0 54.666666666666664 L 44.0 54.333333333333336 L 43.0 53.666666666666664 L 42.0 53.0 L 41.0 52.333333333333336 L 40.0 51.666666666666664 L 39.0 51.0 L 38.0 50.0 L 37.0 49.333333333333336 L 36.0 48.666666666666664 L 35.0 48.0 L 34.0 47.0 L 33.0 46.0 L 32.0 45.0 L 31.0 44.0 L 30.333333333333332 43.0 L 29.666666666666668 42.0 L 29.0 41.0 L 28.0 40.0 L 27.333333333333332 39.0 L 26.666666666666668 38.0 L 26.333333333333332 37.0 L 25.666666666666668 36.0 L 25.0 35.333333333333336 L 24.0 35.333333333333336 L 23.0 36.0 L 22.333333333333332 37.0 L 22.0 38.0 L 22.333333333333332 39.0 L 22.5 39.5 Z" stroke="none" fill="rgb(238,94,15)" />
<path d="M 93.5 56.5 L 94.0 56.333333333333336 L 95.0 55.666666666666664 L 96.0 55.0 L 97.0 54.0 L 98.0 53.0 L 99.0 52.0 L 100.0 51.0 L 101.0 50.0 L 102.0 49.0 L 103.0 48.0 L 104.0 47.0 L 105.0 46.0 L 105.66666666666667 45.0 L 106.33333333333333 44.0 L 107.0 43.0 L 107.66666666666667 42.0 L 108.0 41.0 L 107.66666666666667 40.0 L 107.0 39.333333333333336 L 106.0 39.333333333333336 L 105.33333333333333 40.0 L 104.66666666666667 41.0 L 104.0 42.0 L 103.33333333333333 43.0 L 102.66666666666667 44.0 L 102.0 45.0 L 101.0 46.0 L 100.0 47.0 L 99.0 48.0 L 98.0 49.0 L 97.0 50.0 L 96.0 51.0 L 95.0 52.0 L 94.0 53.0 L 93.0 53.666666666666664 L 92.0 54.333333333333336 L 91.0 55.0 L 90.0 55.666666666666664 L 89.0 56.333333333333336 L 88.0 56.666666666666664 L 87.0 57.333333333333336 L 86.0 57.666666666666664 L 85.0 58.333333333333336 L 84.0 58.666666666666664 L 83.0 59.333333333333336 L 82.0 59.666666666666664 L 81.0 60.0 L 80.0 60.333333333333336 L 79.0 60.666666666666664 L 78.0 61.0 L 77.0 61.333333333333336 L 76.0 61.666666666666664 L 75.0 62.0 L 74.0 62.0 L 73.0 62.333333333333336 L 72.0 62.666666666666664 L 71.0 63.0 L 70.0 63.0 L 69.0 63.0 L 68.0 63.0 L 67.0 63.0 L 66.0 63.0 L 65.0 63.0 L 64.0 63.0 L 63.0 63.0 L 62.0 63.0 L 61.0 63.0 L 60.0 63.0 L 59.0 63.0 L 58.0 63.0 L 57.0 62.666666666666664 L 56.0 62.333333333333336 L 55.0 62.0 L 54.0 62.0 L 53.0 61.666666666666664 L 52.0 61.333333333333336 L 51.0 61.0 L 50.0 60.666666666666664 L 49.0 60.333333333333336 L 48.0 60.0 L 47.0 59.666666666666664 L 46.0 59.333333333333336 L 45.0 58.666666666666664 L 44.0 58.333333333333336 L 43.0 57.666666666666664 L 42.0 57.333333333333336 L 41.0 56.666666666666664 L 40.0 56.333333333333336 L 39.0 55.666666666666664 L 38.0 55.0 L 37.0 54.0 L 36.0 53.333333333333336 L 35.0 52.666666666666664 L 34.0 52.0 L 33.0 51.0 L 32.0 50.0 L 31.0 49.0 L 30.0 48.0 L 29.0 47.0 L 28.0 46.0 L 27.0 45.0 L 26.333333333333332 44.0 L 25.666666666666668 43.0 L 25.0 42.0 L 24.333333333333332 41.0 L 23.666666666666668 40.0 L 23.0 39.333333333333336 L 22.0 39.0 L 21.333333333333332 39.333333333333336 L 21.0 40.0 L 21.333333333333332 41.0 L 21.666666666666668 42.0 L 22.333333333333332 43.0 L 23.0 44.0 L 23.666666666666668 45.0 L 24.333333333333332 46.0 L 25.0 47.0 L 26.0 48.0 L 27.0 49.0 L 28.0 50.0 L 29.0 51.0 L 30.0 52.0 L 31.0 53.0 L 32.0 54.0 L 33.0 55.0 L 34.0 55.666666666666664 L 35.0 56.333333333333336 L 36.0 57.0 L 37.0 57.666666666666664 L 38.0 58.333333333333336 L 39.0 58.666666666666664 L 40.0 59.333333333333336 L 41.0 59.666666666666664 L 42.0 60.333333333333336 L 43.0 60.666666666666664 L 44.0 61.333333333333336 L 45.0 61.666666666666664 L 46.0 62.333333333333336 L 47.0 62.666666666666664 L 48.0 63.0 L 49.0 63.0 L 50.0 63.333333333333336 L 51.0 63.666666666666664 L 52.0 64.0 L 53.0 64.33333333333333 L 54.0 64.66666666666667 L 55.0 65.0 L 56.0 65.0 L 57.0 65.0 L 58.0 65.0 L 59.0 65.0 L 60.0 65.0 L 61.0 65.33333333333333 L 62.0 65.66666666666667 L 63.0 66.0 L 64.0 66.0 L 65.0 66.0 L 66.0 66.0 L 67.0 65.66666666666667 L 68.0 65.33333333333333 L 69.0 65.0 L 70.0 65.0 L 71.0 65.0 L 72.0 65.0 L 73.0 65.0 L 74.0 65.0 L 75.0 64.66666666666667 L 76.0 64.33333333333333 L 77.0 64.0 L 78.0 64.0 L 79.0 63.666666666666664 L 80.0 63.333333333333336 L 81.0 63.0 L 82.0 62.666666666666664 L 83.0 62.333333333333336 L 84.0 61.666666666666664 L 85.0 61.333333333333336 L 86.0 61.0 L 87.0 60.666666666666664 L 88.0 60.333333333333336 L 89.0 59.666666666666664 L 90.0 59.0 L 91.0 58.333333333333336 L 92.0 57.666666666666664 L 92.5 57.5 Z" stroke="none" fill="rgb(237,91,14)" />
<path d="M 59.5 67.0 L 60.0 67.33333333333333 L 61.0 68.0 L 62.0 68.66666666666667 L 63.0 69.0 L 64.0 69.0 L 65.0 69.0 L 66.0 69.0 L 67.0 69.0 L 67.66666666666667 68.66666666666667 L 68.33333333333333 68.0 L 69.0 67.33333333333333 L 70.0 67.0 L 71.0 67.0 L 72.0 67.0 L 73.0 67.0 L 74.0 67.0 L 75.0 66.66666666666667 L 76.0 66.33333333333333 L 77.0 66.0 L 78.0 66.0 L 79.0 65.66666666666667 L 80.0 65.33333333333333 L 81.0 65.0 L 82.0 64.66666666666667 L 83.0 64.33333333333333 L 84.0 64.0 L 85.0 63.666666666666664 L 86.0 63.333333333333336 L 87.0 62.666666666666664 L 88.0 62.333333333333336 L 89.0 61.666666666666664 L 90.0 61.333333333333336 L 91.0 60.666666666666664 L 92.0 60.0 L 93.0 59.333333333333336 L 94.0 58.666666666666664 L 95.0 58.0 L 96.0 57.333333333333336 L 97.0 56.666666666666664 L 98.0 56.0 L 99.0 55.0 L 100.0 54.0 L 101.0 53.0 L 102.0 52.0 L 103.0 51.0 L 104.0 50.0 L 105.0 49.0 L 106.0 48.0 L 106.66666666666667 47.0 L 107.33333333333333 46.0 L 108.0 45.0 L 109.0 44.333333333333336 L 109.66666666666667 43.666666666666664 L 110.0 43.0 L 109.66666666666667 42.0 L 109.0 41.333333333333336 L 108.0 41.333333333333336 L 107.0 42.0 L 106.33333333333333 43.0 L 105.66666666666667 44.0 L 105.0 45.0 L 104.0 46.0 L 103.0 47.0 L 102.0 48.0 L 101.0 49.0 L 100.0 50.0 L 99.0 51.0 L 98.0 52.0 L 97.0 53.0 L 96.0 54.0 L 95.0 55.0 L 94.0 55.666666666666664 L 93.0 56.333333333333336 L 92.0 57.0 L 91.0 57.666666666666664 L 90.0 58.333333333333336 L 89.0 59.0 L 88.0 59.666666666666664 L 87.0 60.333333333333336 L 86.0 60.666666666666664 L 85.0 61.0 L 84.0 61.333333333333336 L 83.0 61.666666666666664 L 82.0 62.333333333333336 L 81.0 62.666666666666664 L 80.0 63.0 L 79.0 63.333333333333336 L 78.0 63.666666666666664 L 77.0 64.0 L 76.0 64.0 L 75.0 64.33333333333333 L 74.0 64.66666666666667 L 73.0 65.0 L 72.0 65.0 L 71.0 65.0 L 70.0 65.0 L 69.0 65.0 L 68.0 65.0 L 67.0 65.33333333333333 L 66.0 65.66666666666667 L 65.0 66.0 L 64.0 66.0 L 63.0 65.66666666666667 L 62.0 65.33333333333333 L 61.0 65.0 L 60.0 65.0 L 59.0 65.0 L 58.0 65.0 L 57.0 65.0 L 56.0 65.0 L 55.0 64.66666666666667 L 54.0 64.33333333333333 L 53.0 64.0 L 52.0 63.666666666666664 L 51.0 63.333333333333336 L 50.0 63.0 L 49.0 63.0 L 48.0 62.666666666666664 L 47.0 62.333333333333336 L 46.0 61.666666666666664 L 45.0 61.333333333333336 L 44.0 60.666666666666664 L 43.0 60.333333333333336 L 42.0 59.666666666666664 L 41.0 59.333333333333336 L 40.0 58.666666666666664 L 39.0 58.333333333333336 L 38.0 57.666666666666664 L 37.0 57.0 L 36.0 56.333333333333336 L 35.0 55.666666666666664 L 34.0 55.0 L 33.0 54.0 L 32.0 53.0 L 31.0 52.0 L 30.0 51.0 L 29.0 50.0 L 28.0 49.0 L 27.0 48.0 L 26.0 47.0 L 25.0 46.0 L 24.333333333333332 45.0 L 23.666666666666668 44.0 L 23.0 43.0 L 22.333333333333332 42.0 L 21.666666666666668 41.0 L 21.0 40.333333333333336 L 20.0 40.333333333333336 L 19.333333333333332 41.0 L 19.0 42.0 L 19.333333333333332 43.0 L 20.0 44.0 L 21.0 45.0 L 22.0 46.0 L 22.666666666666668 47.0 L 23.333333333333332 48.0 L 24.0 49.0 L 25.0 50.0 L 26.0 51.0 L 27.0 52.0 L 28.0 53.0 L 29.0 54.0 L 30.0 55.0 L 31.0 56.0 L 32.0 56.666666666666664 L 33.0 57.333333333333336 L 34.0 58.0 L 35.0 58.666666666666664 L 36.0 59.333333333333336 L 37.0 60.0 L 38.0 60.666666666666664 L 39.0 61.333333333333336 L 40.0 61.666666666666664 L 41.0 62.333333333333336 L 42.0 62.666666666666664 L 43.0 63.333333333333336 L 44.0 63.666666666666664 L 45.0 64.0 L 46.0 64.33333333333333 L 47.0 64.66666666666667 L 48.0 65.0 L 49.0 65.33333333333333 L 50.0 65.66666666666667 L 51.0 66.0 L 52.0 66.0 L 53.0 66.33333333333333 L 54.0 66.66666666666667 L 55.0 67.0 L 56.0 67.0 L 57.0 67.0 L 58.0 67.0 L 58.5 67.0 Z" stroke="none" fill="rgb(237,89,13)" />
<path d="M 23.5 52.5 L 24.0 53.0 L 25.0 54.0 L 26.0 55.0 L 27.0 56.0 L 28.0 57.0 L 29.0 58.0 L 30.0 59.0 L 31.0 59.666666666666664 L 32.0 60.333333333333336 L 33.0 61.0 L 34.0 61.666666666666664 L 35.0 62.333333333333336 L 36.0 63.0 L 37.0 63.666666666666664 L 38.0 64.33333333333333 L 39.0 64.66666666666667 L 40.0 65.33333333333333 L 41.0 65.66666666666667 L 42.0 66.0 L 43.0 66.33333333333333 L 44.0 67.0 L 45.0 67.66666666666667 L 46.0 68.0 L 47.0 68.0 L 48.0 68.33333333333333 L 49.0 68.66666666666667 L 50.0 69.0 L 51.0 69.0 L 52.0 69.0 L 53.0 69.0 L 54.0 69.0 L 55.0 69.0 L 56.0 69.0 L 57.0 69.0 L 58.0 69.0 L 59.0 69.0 L 60.0 69.0 L 61.0 69.0 L 61.666666666666664 68.66666666666667 L 61.666666666666664 68.0 L 61.0 67.33333333333333 L 60.0 67.0 L 59.0 67.0 L 58.0 67.0 L 57.0 67.0 L 56.0 67.0 L 55.0 66.66666666666667 L 54.0 66.33333333333333 L 53.0 66.0 L 52.0 66.0 L 51.0 65.66666666666667 L 50.0 65.33333333333333 L 49.0 65.0 L 48.0 64.66666666666667 L 47.0 64.33333333333333 L 46.0 64.0 L 45.0 63.666666666666664 L 44.0 63.333333333333336 L 43.0 62.666666666666664 L 42.0 62.333333333333336 L 41.0 61.666666666666664 L 40.0 61.333333333333336 L 39.0 60.666666666666664 L 38.0 60.0 L 37.0 59.333333333333336 L 36.0 58.666666666666664 L 35.0 58.0 L 34.0 57.333333333333336 L 33.0 56.666666666666664 L 32.0 56.0 L 31.0 55.0 L 30.0 54.0 L 29.0 53.0 L 28.0 52.0 L 27.0 51.0 L 26.0 50.0 L 25.0 49.0 L 24.0 48.0 L 23.333333333333332 47.0 L 22.666666666666668 46.0 L 22.0 45.0 L 21.0 44.0 L 20.0 43.333333333333336 L 19.0 43.0 L 18.333333333333332 43.333333333333336 L 18.0 44.0 L 18.0 45.0 L 18.333333333333332 46.0 L 18.666666666666668 47.0 L 19.333333333333332 48.0 L 20.0 49.0 L 21.0 50.0 L 22.0 51.0 L 22.5 51.5 Z" stroke="none" fill="rgb(236,86,12)" />
<path d="M 105.5 53.5 L 105.66666666666667 53.0 L 106.33333333333333 52.0 L 107.0 51.0 L 108.0 50.0 L 109.0 49.0 L 110.0 48.0 L 110.66666666666667 47.0 L 111.0 46.0 L 110.66666666666667 45.0 L 110.0 44.333333333333336 L 109.0 44.0 L 108.0 44.333333333333336 L 107.33333333333333 45.0 L 106.66666666666667 46.0 L 106.0 47.0 L 105.0 48.0 L 104.0 49.0 L 103.0 50.0 L 102.0 51.0 L 101.0 52.0 L 100.0 53.0 L 99.0 54.0 L 98.0 55.0 L 97.0 56.0 L 96.0 56.666666666666664 L 95.0 57.333333333333336 L 94.0 58.0 L 93.0 58.666666666666664 L 92.0 59.333333333333336 L 91.0 60.0 L 90.0 60.666666666666664 L 89.0 61.333333333333336 L 88.0 61.666666666666664 L 87.0 62.333333333333336 L 86.0 62.666666666666664 L 85.0 63.333333333333336 L 84.0 63.666666666666664 L 83.0 64.0 L 82.0 64.33333333333333 L 81.0 64.66666666666667 L 80.0 65.0 L 79.0 65.33333333333333 L 78.0 65.66666666666667 L 77.0 66.0 L 76.0 66.0 L 75.0 66.33333333333333 L 74.0 66.66666666666667 L 73.0 67.0 L 72.0 67.0 L 71.0 67.0 L 70.0 67.0 L 69.0 67.0 L 68.33333333333333 67.33333333333333 L 68.0 68.0 L 68.33333333333333 68.66666666666667 L 69.0 69.0 L 70.0 69.0 L 71.0 69.0 L 72.0 69.0 L 73.0 69.0 L 74.0 69.0 L 75.0 69.0 L 76.0 69.0 L 77.0 69.0 L 78.0 69.0 L 79.0 68.66666666666667 L 80.0 68.33333333333333 L 81.0 68.0 L 82.0 68.0 L 83.0 68.0 L 84.0 68.0 L 84.66666666666667 67.66666666666667 L 85.33333333333333 67.0 L 86.0 66.33333333333333 L 87.0 66.0 L 88.0 65.66666666666667 L 89.0 65.33333333333333 L 90.0 64.66666666666667 L 91.0 64.33333333333333 L 92.0 63.666666666666664 L 93.0 63.0 L 94.0 62.333333333333336 L 95.0 61.666666666666664 L 96.0 61.0 L 97.0 60.333333333333336 L 98.0 59.666666666666664 L 99.0 59.0 L 100.0 58.0 L 101.0 57.0 L 102.0 56.333333333333336 L 103.0 55.666666666666664 L 104.0 55.0 L 104.5 54.5 Z" stroke="none" fill="rgb(236,86,12)" />
<path d="M 39.5 67.5 L 40.0 67.66666666666667 L 41.0 68.0 L 42.0 68.0 L 43.0 68.0 L 44.0 68.0 L 44.666666666666664 67.66666666666667 L 44.666666666666664 67.0 L 44.0 66.33333333333333 L 43.0 66.0 L 42.0 65.66666666666667 L 41.0 65.33333333333333 L 40.0 64.66666666666667 L 39.0 64.33333333333333 L 38.0 63.666666666666664 L 37.0 63.0 L 36.0 62.333333333333336 L 35.0 61.666666666666664 L 34.0 61.0 L 33.0 60.333333333333336 L 32.0 59.666666666666664 L 31.0 59.0 L 30.0 58.0 L 29.0 57.0 L 28.0 56.0 L 27.0 55.0 L 26.0 54.0 L 25.0 53.0 L 24.0 52.0 L 23.0 51.0 L 22.0 50.0 L 21.0 49.0 L 20.0 48.0 L 19.333333333333332 47.0 L 18.666666666666668 46.333333333333336 L 18.0 46.0 L 17.0 46.333333333333336 L 16.333333333333332 47.0 L 16.0 48.0 L 16.333333333333332 49.0 L 17.0 50.0 L 18.0 51.0 L 19.0 52.0 L 19.666666666666668 53.0 L 20.333333333333332 54.0 L 21.0 55.0 L 22.0 56.0 L 23.0 57.0 L 24.0 58.0 L 25.0 59.0 L 26.0 59.666666666666664 L 27.0 60.333333333333336 L 28.0 61.0 L 29.0 62.0 L 30.0 62.666666666666664 L 31.0 63.333333333333336 L 32.0 64.0 L 33.0 64.66666666666667 L 34.0 65.33333333333333 L 35.0 66.0 L 36.0 66.66666666666667 L 37.0 67.0 L 38.0 67.0 L 38.5 67.0 Z" stroke="none" fill="rgb(235,83,10)" />
<path d="M 107.5 55.5 L 108.0 55.0 L 109.0 54.0 L 109.66666666666667 53.0 L 110.33333333333333 52.0 L 111.0 51.0 L 112.0 50.333333333333336 L 112.66666666666667 49.666666666666664 L 113.0 49.0 L 112.66666666666667 48.0 L 112.0 47.333333333333336 L 111.0 47.0 L 110.0 47.333333333333336 L 109.0 48.0 L 108.0 49.0 L 107.0 50.0 L 106.33333333333333 51.0 L 105.66666666666667 52.0 L 105.0 53.0 L 104.0 54.0 L 103.0 55.0 L 102.0 55.666666666666664 L 101.0 56.333333333333336 L 100.0 57.0 L 99.0 58.0 L 98.0 59.0 L 97.0 59.666666666666664 L 96.0 60.333333333333336 L 95.0 61.0 L 94.0 61.666666666666664 L 93.0 62.333333333333336 L 92.0 63.0 L 91.0 63.666666666666664 L 90.0 64.33333333333333 L 89.0 64.66666666666667 L 88.0 65.33333333333333 L 87.0 65.66666666666667 L 86.0 66.0 L 85.33333333333333 66.33333333333333 L 85.0 67.0 L 85.33333333333333 67.66666666666667 L 86.0 68.0 L 87.0 68.0 L 88.0 67.66666666666667 L 89.0 67.33333333333333 L 90.0 67.0 L 91.0 67.0 L 92.0 67.0 L 93.0 67.0 L 93.66666666666667 66.66666666666667 L 94.33333333333333 66.0 L 95.0 65.33333333333333 L 96.0 64.66666666666667 L 97.0 64.0 L 98.0 63.333333333333336 L 99.0 62.666666666666664 L 100.0 62.0 L 101.0 61.0 L 102.0 60.333333333333336 L 103.0 59.666666666666664 L 104.0 59.0 L 105.0 58.0 L 106.0 57.0 L 106.5 56.5 Z" stroke="none" fill="rgb(235,83,10)" />
<path d="M 26.5 63.5 L 27.0 64.0 L 28.0 65.0 L 29.0 65.66666666666667 L 30.0 66.0 L 31.0 66.0 L 32.0 66.33333333333333 L 33.0 66.66666666666667 L 34.0 67.0 L 35.0 67.0 L 35.666666666666664 66.66666666666667 L 35.666666666666664 66.0 L 35.0 65.33333333333333 L 34.0 64.66666666666667 L 33.0 64.0 L 32.0 63.333333333333336 L 31.0 62.666666666666664 L 30.0 62.0 L 29.0 61.0 L 28.0 60.333333333333336 L 27.0 59.666666666666664 L 26.0 59.0 L 25.0 58.0 L 24.0 57.0 L 23.0 56.0 L 22.0 55.0 L 21.0 54.0 L 20.333333333333332 53.0 L 19.666666666666668 52.0 L 19.0 51.0 L 18.0 50.0 L 17.0 49.333333333333336 L 16.0 49.0 L 15.333333333333334 49.333333333333336 L 15.0 50.0 L 15.0 51.0 L 15.333333333333334 52.0 L 15.666666666666666 53.0 L 16.333333333333332 54.0 L 17.0 55.0 L 18.0 56.0 L 19.0 57.0 L 20.0 58.0 L 21.0 59.0 L 22.0 60.0 L 23.0 61.0 L 24.0 62.0 L 25.0 62.666666666666664 L 25.5 63.0 Z" stroke="none" fill="rgb(235,80,9)" />
<path d="M 113.5 53.5 L 113.66666666666667 53.0 L 114.0 52.0 L 113.66666666666667 51.0 L 113.0 50.333333333333336 L 112.0 50.0 L 111.0 50.333333333333336 L 110.33333333333333 51.0 L 109.66666666666667 52.0 L 109.0 53.0 L 108.0 54.0 L 107.0 55.0 L 106.0 56.0 L 105.0 57.0 L 104.0 58.0 L 103.0 59.0 L 102.0 59.666666666666664 L 101.0 60.333333333333336 L 100.0 61.0 L 99.0 62.0 L 98.0 62.666666666666664 L 97.0 63.333333333333336 L 96.0 64.0 L 95.0 64.66666666666667 L 94.33333333333333 65.33333333333333 L 94.33333333333333 65.66666666666667 L 95.0 66.0 L 96.0 66.0 L 97.0 66.0 L 98.0 66.0 L 99.0 66.0 L 100.0 65.66666666666667 L 101.0 65.0 L 102.0 64.33333333333333 L 103.0 63.666666666666664 L 104.0 63.0 L 105.0 62.0 L 106.0 61.0 L 107.0 60.0 L 108.0 59.0 L 109.0 58.0 L 110.0 57.0 L 111.0 56.0 L 112.0 55.0 L 112.5 54.5 Z" stroke="none" fill="rgb(235,80,9)" />
<path d="M 17.5 62.5 L 18.0 63.0 L 19.0 64.0 L 20.0 65.0 L 21.0 66.0 L 22.0 67.0 L 23.0 68.0 L 24.0 68.66666666666667 L 25.0 68.66666666666667 L 26.0 68.0 L 27.0 67.33333333333333 L 28.0 66.66666666666667 L 28.666666666666668 66.0 L 28.666666666666668 65.0 L 28.0 64.0 L 27.0 63.333333333333336 L 26.0 62.666666666666664 L 25.0 62.0 L 24.0 61.0 L 23.0 60.0 L 22.0 59.0 L 21.0 58.0 L 20.0 57.0 L 19.0 56.0 L 18.0 55.0 L 17.0 54.0 L 16.333333333333332 53.0 L 15.666666666666666 52.333333333333336 L 15.0 52.0 L 14.0 52.333333333333336 L 13.333333333333334 53.0 L 13.0 54.0 L 13.0 55.0 L 13.0 56.0 L 13.0 57.0 L 13.333333333333334 58.0 L 14.0 59.0 L 15.0 60.0 L 16.0 61.0 L 16.5 61.5 Z" stroke="none" fill="rgb(234,76,7)" />
<path d="M 108.5 65.5 L 109.0 65.0 L 110.0 64.0 L 111.0 63.0 L 112.0 62.0 L 113.0 61.0 L 114.0 60.0 L 115.0 59.333333333333336 L 115.66666666666667 58.666666666666664 L 116.0 58.0 L 115.66666666666667 57.0 L 115.33333333333333 56.0 L 115.0 55.0 L 114.66666666666667 54.0 L 114.0 53.333333333333336 L 113.0 53.333333333333336 L 112.0 54.0 L 111.0 55.0 L 110.0 56.0 L 109.0 57.0 L 108.0 58.0 L 107.0 59.0 L 106.0 60.0 L 105.0 61.0 L 104.0 62.0 L 103.0 63.0 L 102.0 63.666666666666664 L 101.0 64.33333333333333 L 100.33333333333333 65.0 L 100.0 66.0 L 100.33333333333333 66.66666666666667 L 101.0 67.33333333333333 L 102.0 68.0 L 103.0 68.66666666666667 L 104.0 68.66666666666667 L 105.0 68.33333333333333 L 106.0 67.66666666666667 L 107.0 67.0 L 107.5 66.5 Z" stroke="none" fill="rgb(234,76,7)" />
<path d="M 20.5 72.0 L 21.0 72.0 L 22.0 71.66666666666667 L 23.0 71.0 L 23.666666666666668 70.0 L 24.0 69.0 L 23.666666666666668 68.0 L 23.0 67.0 L 22.0 66.0 L 21.0 65.0 L 20.0 64.0 L 19.0 63.0 L 18.0 62.0 L 17.0 61.0 L 16.0 60.0 L 15.0 59.0 L 14.0 58.333333333333336 L 13.0 58.0 L 12.333333333333334 58.333333333333336 L 12.0 59.0 L 11.666666666666666 60.0 L 11.333333333333334 61.0 L 11.0 62.0 L 11.0 63.0 L 11.333333333333334 63.666666666666664 L 12.0 64.33333333333333 L 13.0 65.0 L 14.0 66.0 L 15.0 67.0 L 16.0 68.0 L 17.0 69.0 L 18.0 70.0 L 19.0 71.0 L 19.5 71.5 Z" stroke="none" fill="rgb(232,71,5)" />
<path d="M 110.5 70.5 L 111.0 70.0 L 112.0 69.0 L 113.0 68.0 L 114.0 67.33333333333333 L 115.0 66.66666666666667 L 116.0 66.33333333333333 L 116.66666666666667 65.66666666666667 L 117.0 65.0 L 117.0 64.0 L 117.0 63.0 L 117.0 62.0 L 117.0 61.0 L 116.66666666666667 60.0 L 116.0 59.333333333333336 L 115.0 59.0 L 114.0 59.333333333333336 L 113.0 60.0 L 112.0 61.0 L 111.0 62.0 L 110.0 63.0 L 109.0 64.0 L 108.0 65.0 L 107.0 66.0 L 106.0 67.0 L 105.0 67.66666666666667 L 104.33333333333333 68.33333333333333 L 104.0 69.0 L 104.33333333333333 70.0 L 105.0 71.0 L 106.0 71.66666666666667 L 107.0 72.0 L 108.0 72.0 L 109.0 71.66666666666667 L 109.5 71.5 Z" stroke="none" fill="rgb(232,71,5)" />
<path d="M 18.5 77.0 L 19.0 77.0 L 20.0 77.0 L 20.666666666666668 76.66666666666667 L 21.0 76.0 L 21.333333333333332 75.0 L 21.666666666666668 74.0 L 22.0 73.0 L 21.666666666666668 72.33333333333333 L 21.0 71.66666666666667 L 20.0 71.0 L 19.0 70.0 L 18.0 69.0 L 17.0 68.0 L 16.0 67.0 L 15.0 66.0 L 14.0 65.0 L 13.0 64.33333333333333 L 12.0 64.0 L 11.333333333333334 64.33333333333333 L 11.0 65.0 L 10.666666666666666 66.0 L 10.333333333333334 67.0 L 10.0 68.0 L 10.0 69.0 L 10.0 70.0 L 10.333333333333334 70.66666666666667 L 11.0 71.0 L 12.0 71.33333333333333 L 13.0 72.0 L 14.0 73.0 L 15.0 74.0 L 16.0 75.0 L 17.0 76.0 L 17.5 76.5 Z" stroke="none" fill="rgb(231,66,2)" />
<path d="M 110.5 77.0 L 111.0 76.66666666666667 L 112.0 76.0 L 113.0 75.0 L 114.0 74.0 L 115.0 73.33333333333333 L 116.0 72.66666666666667 L 117.0 72.33333333333333 L 117.66666666666667 71.66666666666667 L 118.0 71.0 L 118.0 70.0 L 118.0 69.0 L 118.0 68.0 L 117.66666666666667 67.0 L 117.0 66.33333333333333 L 116.0 66.0 L 115.0 66.33333333333333 L 114.0 66.66666666666667 L 113.0 67.33333333333333 L 112.0 68.0 L 111.0 69.0 L 110.0 70.0 L 109.0 71.0 L 108.0 71.66666666666667 L 107.33333333333333 72.33333333333333 L 107.0 73.0 L 107.0 74.0 L 107.0 75.0 L 107.33333333333333 76.0 L 108.0 76.66666666666667 L 109.0 77.0 L 109.5 77.0 Z" stroke="none" fill="rgb(231,66,2)" />
<path d="M 16.0 97.5 L 16.0 97.0 L 16.0 96.0 L 16.0 95.0 L 16.333333333333332 94.0 L 16.666666666666668 93.0 L 17.0 92.0 L 17.0 91.0 L 17.0 90.0 L 17.333333333333332 89.0 L 17.666666666666668 88.0 L 18.0 87.0 L 18.0 86.0 L 18.333333333333332 85.0 L 18.666666666666668 84.0 L 19.0 83.0 L 19.0 82.0 L 19.333333333333332 81.0 L 19.666666666666668 80.0 L 20.0 79.0 L 20.0 78.0 L 19.666666666666668 77.33333333333333 L 19.0 76.66666666666667 L 18.0 76.0 L 17.0 75.0 L 16.0 74.0 L 15.0 73.0 L 14.0 72.0 L 13.0 71.33333333333333 L 12.0 71.0 L 11.0 71.0 L 10.333333333333334 71.33333333333333 L 10.0 72.0 L 10.0 73.0 L 10.0 74.0 L 10.0 75.0 L 9.666666666666666 76.0 L 9.333333333333334 77.0 L 9.0 78.0 L 9.0 79.0 L 9.0 80.0 L 9.0 81.0 L 9.0 82.0 L 9.0 83.0 L 9.0 84.0 L 9.0 85.0 L 9.0 86.0 L 9.0 87.0 L 9.0 88.0 L 9.0 89.0 L 9.0 90.0 L 9.0 91.0 L 9.0 92.0 L 9.0 93.0 L 9.333333333333334 94.0 L 9.666666666666666 95.0 L 10.0 96.0 L 10.333333333333334 97.0 L 10.666666666666666 98.0 L 11.333333333333334 99.0 L 12.0 100.0 L 13.0 101.0 L 14.0 101.66666666666667 L 14.666666666666666 101.66666666666667 L 15.0 101.0 L 15.0 100.0 L 15.333333333333334 99.0 L 15.5 98.5 Z" stroke="none" fill="rgb(230,61,0)" />
<path d="M 110.5 88.5 L 110.66666666666667 89.0 L 111.0 90.0 L 111.0 91.0 L 111.0 92.0 L 111.33333333333333 93.0 L 111.66666666666667 94.0 L 112.0 95.0 L 112.0 96.0 L 112.0 97.0 L 112.33333333333333 98.0 L 112.66666666666667 99.0 L 113.0 100.0 L 113.33333333333333 100.66666666666667 L 114.0 101.0 L 115.0 100.66666666666667 L 116.0 100.0 L 117.0 99.0 L 117.66666666666667 98.0 L 118.33333333333333 97.0 L 118.66666666666667 96.0 L 119.0 95.0 L 119.0 94.0 L 119.0 93.0 L 119.0 92.0 L 119.0 91.0 L 119.0 90.0 L 119.0 89.0 L 119.0 88.0 L 119.0 87.0 L 119.0 86.0 L 119.0 85.0 L 119.0 84.0 L 119.0 83.0 L 119.0 82.0 L 119.0 81.0 L 119.0 80.0 L 119.0 79.0 L 119.0 78.0 L 118.66666666666667 77.0 L 118.33333333333333 76.0 L 118.0 75.0 L 118.0 74.0 L 118.0 73.0 L 117.66666666666667 72.33333333333333 L 117.0 72.0 L 116.0 72.33333333333333 L 115.0 72.66666666666667 L 114.0 73.33333333333333 L 113.0 74.0 L 112.0 75.0 L 111.0 76.0 L 110.0 76.66666666666667 L 109.0 77.33333333333333 L 108.33333333333333 78.0 L 108.0 79.0 L 108.33333333333333 80.0 L 108.66666666666667 81.0 L 109.0 82.0 L 109.0 83.0 L 109.33333333333333 84.0 L 109.66666666666667 85.0 L 110.0 86.0 L 110.0 87.0 L 110.0 87.5 Z" stroke="none" fill="rgb(230,61,0)" />
</svg>
