<?xml version="1.0" encoding="UTF-8" standalone="no"?>
<!DOCTYPE svg PUBLIC "-//W3C//DTD SVG 1.1//EN"
"http://www.w3.org/Graphics/SVG/1.1/DTD/svg11.dtd">
<svg width="128" height="128" xmlns="http://www.w3.org/2000/svg" version="1.1">
<path d="M 5.5 128.0 L 6.0 128.0 L 7.0 128.0 L 8.0 128.0 L 9.0 128.0 L 10.0 128.0 L 11.0 128.0 L 12.0 128.0 L 13.0 128.0 L 14.0 128.0 L 15.0 128.0 L 16.0 128.0 L 17.0 128.0 L 18.0 128.0 L 19.0 128.0 L 20.0 128.0 L 21.0 128.0 L 22.0 128.0 L 23.0 128.0 L 24.0 128.0 L 25.0 128.0 L 26.0 128.0 L 27.0 128.0 L 28.0 128.0 L 29.0 128.0 L 30.0 128.0 L 31.0 128.0 L 32.0 128.0 L 33.0 128.0 L 34.0 128.0 L 35.0 128.0 L 36.0 128.0 L 37.0 128.0 L 38.0 128.0 L 39.0 128.0 L 40.0 128.0 L 41.0 128.0 L 42.0 128.0 L 43.0 128.0 L 44.0 128.0 L 45.0 128.0 L 46.0 128.0 L 47.0 128.0 L 48.0 128.0 L 49.0 128.0 L 50.0 128.0 L 51.0 128.0 L 52.0 128.0 L 53.0 128.0 L 54.0 128.0 L 55.0 128.0 L 56.0 128.0 L 57.0 128.0 L 58.0 128.0 L 59.0 128.0 L 60.0 128.0 L 61.0 128.0 L 62.0 128.0 L 63.0 128.0 L 64.0 128.0 L 65.0 128.0 L 66.0 128.0 L 67.0 128.0 L 68.0 128.0 L 69.0 128.0 L 70.0 128.0 L 71.0 128.0 L 72.0 128.0 L 73.0 128.0 L 74.0 128.0 L 75.0 128.0 L 76.0 128.0 L 77.0 128.0 L 78.0 128.0 L 79.0 128.0 L 80.0 128.0 L 81.0 128.0 L 82.0 128.0 L 83.0 128.0 L 84.0 128.0 L 85.0 128.0 L 86.0 128.0 L 87.0 128.0 L 88.0 128.0 L 89.0 128.0 L 90.0 128.0 L 91.0 128.0 L 92.0 128.0 L 93.0 128.0 L 94.0 128.0 L 95.0 128.0 L 96.0 128.0 L 97.0 128.0 L 98.0 128.0 L 99.0 128.0 L 100.0 128.0 L 101.0 128.0 L 102.0 128.0 L 103.0 128.0 L 104.0 128.0 L 105.0 128.0 L 106.0 128.0 L 107.0 128.0 L 108.0 128.0 L 109.0 128.0 L 110.0 128.0 L 111.0 128.0 L 112.0 128.0 L 113.0 128.0 L 114.0 128.0 L 115.0 128.0 L 116.0 128.0 L 117.0 128.0 L 118.0 128.0 L 119.0 128.0 L 120.0 128.0 L 121.0 128.0 L 122.0 128.0 L 123.0 128.0 L 124.0 128.0 L 125.0 128.0 L 126.0 128.0 L 127.0 128.0 L 127.66666666666667 127.66666666666667 L 128.0 127.0 L 128.0 126.0 L 128.0 125.0 L 128.0 124.0 L 128.0 123.0 L 128.0 122.0 L 128.0 121.0 L 128.0 120.0 L 128.0 119.0 L 128.0 118.0 L 128.0 117.0 L 128.0 116.0 L 128.0 115.0 L 128.0 114.0 L 128.0 113.0 L 128.0 112.0 L 128.0 111.0 L 128.0 110.0 L 128.0 109.0 L 128.0 108.0 L 128.0 107.0 L 128.0 106.0 L 128.0 105.0 L 128.0 104.0 L 128.0 103.0 L 128.0 102.0 L 128.0 101.0 L 128.0 100.0 L 128.0 99.0 L 128.0 98.0 L 128.0 97.0 L 128.0 96.0 L 128.0 95.0 L 128.0 94.0 L 128.0 93.0 L 128.0 92.0 L 128.0 91.0 L 128.0 90.0 L 128.0 89.0 L 128.0 88.0 L 128.0 87.0 L 128.0 86.0 L 128.0 85.0 L 128.0 84.0 L 128.0 83.0 L 128.0 82.0 L 128.0 81.0 L 128.0 80.0 L 128.0 79.0 L 128.0 78.0 L 128.0 77.0 L 128.0 76.0 L 128.0 75.0 L 128.0 74.0 L 128.0 73.0 L 128.0 72.0 L 128.0 71.0 L 128.0 70.0 L 128.0 69.0 L 128.0 68.0 L 128.0 67.0 L 128.0 66.0 L 128.0 65.0 L 128.0 64.0 L 128.0 63.0 L 128.0 62.0 L 128.0 61.0 L 128.0 60.0 L 128.0 59.0 L 128.0 58.0 L 128.0 57.0 L 128.0 56.0 L 128.0 55.0 L 128.0 54.0 L 128.0 53.0 L 128.0 52.0 L 128.0 51.0 L 128.0 50.0 L 128.0 49.0 L 128.0 48.0 L 128.0 47.0 L 128.0 46.0 L 128.0 45.0 L 128.0 44.0 L 128.0 43.0 L 128.0 42.0 L 128.0 41.0 L 128.0 40.0 L 128.0 39.0 L 128.0 38.0 L 128.0 37.0 L 128.0 36.0 L 128.0 35.0 L 128.0 34.0 L 128.0 33.0 L 128.0 32.0 L 128.0 31.0 L 128.0 30.0 L 128.0 29.0 L 128.0 28.0 L 128.0 27.0 L 128.0 26.0 L 128.0 25.0 L 128.0 24.0 L 128.0 23.0 L 128.0 22.0 L 128.0 21.0 L 128.0 20.0 L 128.0 19.0 L 128.0 18.0 L 128.0 17.0 L 128.0 16.0 L 128.0 15.0 L 128.0 14.0 L 128.0 13.0 L 128.0 12.0 L 128.0 11.0 L 128.0 10.0 L 128.0 9.0 L 128.0 8.0 L 128.0 7.0 L 128.0 6.0 L 128.0 5.0 L 128.0 4.0 L 128.0 3.0 L 128.0 2.0 L 128.0 1.0 L 127.66666666666667 0.3333333333333333 L 127.0 0.0 L 126.0 0.0 L 125.0 0.0 L 124.0 0.0 L 123.0 0.0 L 122.0 0.0 L 121.0 0.0 L 120.0 0.0 L 119.0 0.0 L 118.0 0.0 L 117.0 0.0 L 116.0 0.0 L 115.0 0.0 L 114.0 0.0 L 113.0 0.0 L 112.0 0.0 L 111.0 0.0 L 110.0 0.0 L 109.0 0.0 L 108.0 0.0 L 107.0 0.0 L 106.0 0.0 L 105.0 0.0 L 104.0 0.0 L 103.0 0.0 L 102.0 0.0 L 101.0 0.0 L 100.0 0.0 L 99.0 0.0 L 98.0 0.0 L 97.0 0.0 L 96.0 0.0 L 95.0 0.0 L 94.0 0.0 L 93.0 0.0 L 92.0 0.0 L 91.0 0.0 L 90.0 0.0 L 89.0 0.0 L 88.0 0.0 L 87.0 0.0 L 86.0 0.0 L 85.0 0.0 L 84.0 0.0 L 83.0 0.0 L 82.0 0.0 L 81.0 0.0 L 80.0 0.0 L 79.0 0.0 L 78.0 0.0 L 77.0 0.0 L 76.0 0.0 L 75.0 0.0 L 74.0 0.0 L 73.0 0.0 L 72.0 0.0 L 71.0 0.0 L 70.0 0.0 L 69.0 0.0 L 68.0 0.0 L 67.0 0.0 L 66.0 0.0 L 65.0 0.0 L 64.0 0.0 L 63.0 0.0 L 62.0 0.0 L 61.0 0.0 L 60.0 0.0 L 59.0 0.0 L 58.0 0.0 L 57.0 0.0 L 56.0 0.0 L 55.0 0.0 L 54.0 0.0 L 53.0 0.0 L 52.0 0.0 L 51.0 0.0 L 50.0 0.0 L 49.0 0.0 L 48.0 0.0 L 47.0 0.0 L 46.0 0.0 L 45.0 0.0 L 44.0 0.0 L 43.0 0.0 L 42.0 0.0 L 41.0 0.0 L 40.0 0.0 L 39.0 0.0 L 38.0 0.0 L 37.0 0.0 L 36.0 0.0 L 35.0 0.0 L 34.0 0.0 L 33.0 0.0 L 32.0 0.0 L 31.0 0.0 L 30.0 0.0 L 29.0 0.0 L 28.0 0.0 L 27.0 0.0 L 26.0 0.0 L 25.0 0.0 L 24.0 0.0 L 23.0 0.0 L 22.0 0.0 L 21.0 0.0 L 20.0 0.0 L 19.0 0.0 L 18.0 0.0 L 17.0 0.0 L 16.0 0.0 L 15.0 0.0 L 14.0 0.0 L 13.0 0.0 L 12.0 0.0 L 11.0 0.0 L 10.0 0.0 L 9.0 0.0 L 8.0 0.0 L 7.0 0.0 L 6.0 0.0 L 5.0 0.0 L 4.0 0.0 L 3.0 0.0 L 2.0 0.0 L 1.0 0.0 L 0.3333333333333333 0.3333333333333333 L 0.0 1.0 L 0.0 2.0 L 0.0 3.0 L 0.0 4.0 L 0.0 5.0 L 0.0 6.0 L 0.0 7.0 L 0.0 8.0 L 0.0 9.0 L 0.0 10.0 L 0.0 11.0 L 0.0 12.0 L 0.0 13.0 L 0.0 14.0 L 0.0 15.0 L 0.0 16.0 L 0.0 17.0 L 0.0 18.0 L 0.0 19.0 L 0.0 20.0 L 0.0 21.0 L 0.0 22.0 L 0.0 23.0 L 0.0 24.0 L 0.0 25.0 L 0.0 26.0 L 0.0 27.0 L 0.0 28.0 L 0.0 29.0 L 0.0 30.0 L 0.0 31.0 L 0.0 32.0 L 0.0 33.0 L 0.0 34.0 L 0.0 35.0 L 0.0 36.0 L 0.0 37.0 L 0.0 38.0 L 0.0 39.0 L 0.0 40.0 L 0.0 41.0 L 0.0 42.0 L 0.0 43.0 L 0.0 44.0 L 0.0 45.0 L 0.0 46.0 L 0.0 47.0 L 0.0 48.0 L 0.0 49.0 L 0.0 50.0 L 0.0 51.0 L 0.0 52.0 L 0.0 53.0 L 0.0 54.0 L 0.0 55.0 L 0.0 56.0 L 0.0 57.0 L 0.0 58.0 L 0.0 59.0 L 0.0 60.0 L 0.0 61.0 L 0.0 62.0 L 0.0 63.0 L 0.0 64.0 L 0.0 65.0 L 0.0 66.0 L 0.0 67.0 L 0.0 68.0 L 0.0 69.0 L 0.0 70.0 L 0.0 71.0 L 0.0 72.0 L 0.0 73.0 L 0.0 74.0 L 0.0 75.0 L 0.0 76.0 L 0.0 77.0 L 0.0 78.0 L 0.0 79.0 L 0.0 80.0 L 0.0 81.0 L 0.0 82.0 L 0.0 83.0 L 0.0 84.0 L 0.0 85.0 L 0.0 86.0 L 0.0 87.0 L 0.0 88.0 L 0.0 89.0 L 0.0 90.0 L 0.0 91.0 L 0.0 92.0 L 0.0 93.0 L 0.0 94.0 L 0.0 95.0 L 0.0 96.0 L 0.0 97.0 L 0.0 98.0 L 0.0 99.0 L 0.0 100.0 L 0.0 101.0 L 0.0 102.0 L 0.0 103.0 L 0.0 104.0 L 0.0 105.0 L 0.0 106.0 L 0.0 107.0 L 0.0 108.0 L 0.0 109.0 L 0.0 110.0 L 0.0 111.0 L 0.0 112.0 L 0.0 113.0 L 0.0 114.0 L 0.0 115.0 L 0.0 116.0 L 0.0 117.0 L 0.0 118.0 L 0.0 119.0 L 0.0 120.0 L 0.0 121.0 L 0.0 122.0 L 0.0 123.0 L 0.0 124.0 L 0.0 125.0 L 0.0 126.0 L 0.0 127.0 L 0.3333333333333333 127.66666666666667 L 1.0 128.0 L 2.0 128.0 L 3.0 128.0 L 4.0 128.0 L 4.5 128.0 Z" stroke="none" fill="rgb(0,0,0)" />
<path d="M 54.5 55.0 L 55.0 55.0 L 56.0 55.0 L 57.0 55.0 L 58.0 55.0 L 59.0 55.0 L 60.0 55.0 L 61.0 55.0 L 62.0 55.0 L 63.0 55.0 L 64.0 55.0 L 65.0 55.0 L 66.0 55.0 L 67.0 55.0 L 68.0 55.0 L 69.0 55.0 L 70.0 55.0 L 71.0 55.0 L 72.0 55.0 L 73.0 55.0 L 74.0 55.0 L 75.0 55.0 L 76.0 55.0 L 77.0 55.0 L 78.0 55.0 L 79.0 55.0 L 80.0 55.0 L 81.0 55.0 L 82.0 55.0 L 83.0 55.0 L 84.0 55.0 L 85.0 55.0 L 86.0 55.0 L 87.0 55.0 L 88.0 55.333333333333336 L 89.0 55.666666666666664 L 90.0 56.0 L 91.0 56.0 L 92.0 56.0 L 93.0 56.0 L 94.0 56.0 L 95.0 56.0 L 96.0 56.0 L 97.0 56.0 L 98.0 56.0 L 99.0 56.0 L 100.0 56.0 L 101.0 56.0 L 102.0 56.0 L 103.0 56.0 L 104.0 56.333333333333336 L 105.0 56.666666666666664 L 106.0 57.0 L 107.0 57.0 L 108.0 57.0 L 108.66666666666667 56.666666666666664 L 109.0 56.0 L 109.0 55.0 L 108.66666666666667 54.333333333333336 L 108.0 54.0 L 107.0 54.0 L 106.0 54.0 L 105.0 53.666666666666664 L 104.0 53.333333333333336 L 103.0 53.0 L 102.0 53.0 L 101.0 53.0 L 100.0 53.0 L 99.0 53.0 L 98.0 53.0 L 97.0 53.0 L 96.0 53.0 L 95.0 53.0 L 94.0 53.0 L 93.0 53.0 L 92.0 53.0 L 91.0 53.0 L 90.0 53.0 L 89.0 52.666666666666664 L 88.66666666666667 52.0 L 89.0 51.333333333333336 L 90.0 51.0 L 91.0 51.0 L 92.0 51.0 L 93.0 51.0 L 94.0 51.0 L 95.0 51.0 L 96.0 51.0 L 97.0 51.0 L 98.0 51.0 L 99.0 51.0 L 100.0 51.0 L 101.0 51.0 L 102.0 51.0 L 103.0 51.0 L 104.0 51.0 L 105.0 51.0 L 105.66666666666667 50.666666666666664 L 105.66666666666667 50.0 L 105.0 49.0 L 104.33333333333333 48.0 L 104.0 47.0 L 104.0 46.0 L 104.0 45.0 L 104.0 44.0 L 104.33333333333333 43.0 L 104.66666666666667 42.0 L 105.33333333333333 41.0 L 106.0 40.0 L 107.0 39.666666666666664 L 108.0 39.666666666666664 L 109.0 40.0 L 109.66666666666667 39.666666666666664 L 110.0 39.0 L 110.33333333333333 38.0 L 110.66666666666667 37.0 L 111.0 36.0 L 111.0 35.0 L 111.0 34.0 L 111.0 33.0 L 111.33333333333333 32.0 L 111.66666666666667 31.0 L 112.0 30.0 L 112.0 29.0 L 112.0 28.0 L 112.33333333333333 27.0 L 113.0 26.333333333333332 L 114.0 25.666666666666668 L 115.0 25.0 L 115.66666666666667 24.0 L 116.0 23.0 L 116.0 22.0 L 116.0 21.0 L 116.0 20.0 L 116.0 19.0 L 116.0 18.0 L 116.0 17.0 L 115.66666666666667 16.0 L 115.33333333333333 15.0 L 114.66666666666667 14.333333333333334 L 114.0 14.0 L 113.0 14.333333333333334 L 112.0 14.333333333333334 L 111.0 14.333333333333334 L 110.0 14.0 L 109.0 14.0 L 108.0 14.333333333333334 L 107.33333333333333 15.0 L 106.66666666666667 16.0 L 106.33333333333333 17.0 L 106.0 18.0 L 106.0 19.0 L 106.0 20.0 L 106.0 21.0 L 106.0 22.0 L 105.66666666666667 23.0 L 105.0 24.0 L 104.0 24.666666666666668 L 103.0 25.333333333333332 L 102.0 25.666666666666668 L 101.0 26.333333333333332 L 100.0 26.666666666666668 L 99.0 27.0 L 98.0 27.333333333333332 L 97.0 28.0 L 96.0 28.666666666666668 L 95.0 29.0 L 94.0 29.0 L 93.0 29.0 L 92.0 29.0 L 91.0 29.0 L 90.0 29.0 L 89.0 29.0 L 88.0 29.0 L 87.0 29.0 L 86.0 28.666666666666668 L 85.0 28.333333333333332 L 84.0 28.0 L 83.0 28.0 L 82.0 28.0 L 81.0 27.666666666666668 L 80.0 27.333333333333332 L 79.0 26.666666666666668 L 78.0 26.333333333333332 L 77.0 25.666666666666668 L 76.0 25.333333333333332 L 75.0 24.666666666666668 L 74.0 24.0 L 73.0 23.0 L 72.0 22.0 L 71.0 21.0 L 70.33333333333333 20.0 L 69.66666666666667 19.0 L 69.33333333333333 18.0 L 69.0 17.0 L 68.66666666666667 16.0 L 68.66666666666667 15.0 L 69.0 14.0 L 69.66666666666667 13.0 L 70.0 12.0 L 70.0 11.0 L 70.0 10.0 L 70.0 9.0 L 70.0 8.0 L 70.0 7.0 L 69.66666666666667 6.0 L 69.0 5.0 L 68.0 4.0 L 67.0 3.3333333333333335 L 66.0 3.0 L 65.0 3.0 L 64.0 3.0 L 63.0 3.0 L 62.0 3.0 L 61.0 3.3333333333333335 L 60.0 4.0 L 59.0 5.0 L 58.333333333333336 6.0 L 58.0 7.0 L 58.0 8.0 L 58.0 9.0 L 58.0 10.0 L 58.0 11.0 L 58.0 12.0 L 58.333333333333336 13.0 L 59.0 14.0 L 59.333333333333336 15.0 L 59.333333333333336 16.0 L 59.0 17.0 L 59.0 18.0 L 58.666666666666664 19.0 L 58.0 20.0 L 57.0 21.0 L 56.0 22.0 L 55.0 23.0 L 54.0 24.0 L 53.0 25.0 L 52.0 25.666666666666668 L 51.0 26.333333333333332 L 50.0 26.666666666666668 L 49.0 27.0 L 48.0 27.333333333333332 L 47.0 27.666666666666668 L 46.0 28.0 L 45.0 28.333333333333332 L 44.0 28.666666666666668 L 43.0 29.0 L 42.0 29.0 L 41.0 29.0 L 40.0 29.0 L 39.0 29.0 L 38.0 29.0 L 37.0 29.0 L 36.0 29.0 L 35.0 29.0 L 34.0 29.0 L 33.0 28.666666666666668 L 32.0 28.333333333333332 L 31.0 28.0 L 30.0 27.666666666666668 L 29.0 27.333333333333332 L 28.0 26.666666666666668 L 27.0 26.333333333333332 L 26.0 25.666666666666668 L 25.0 25.333333333333332 L 24.0 24.666666666666668 L 23.0 24.0 L 22.333333333333332 23.0 L 22.0 22.0 L 22.0 21.0 L 22.0 20.0 L 22.0 19.0 L 22.0 18.0 L 21.666666666666668 17.0 L 21.333333333333332 16.0 L 20.666666666666668 15.0 L 20.0 14.333333333333334 L 19.0 14.0 L 18.333333333333332 14.333333333333334 L 18.0 15.0 L 17.666666666666668 16.0 L 17.0 16.333333333333332 L 16.333333333333332 16.0 L 16.0 15.0 L 15.666666666666666 14.333333333333334 L 15.0 14.0 L 14.0 14.0 L 13.333333333333334 14.333333333333334 L 12.666666666666666 15.0 L 12.333333333333334 16.0 L 12.0 17.0 L 12.0 18.0 L 12.0 19.0 L 12.0 20.0 L 12.0 21.0 L 12.0 22.0 L 12.0 23.0 L 12.333333333333334 24.0 L 13.0 25.0 L 14.0 25.666666666666668 L 15.0 26.333333333333332 L 15.666666666666666 27.0 L 16.0 28.0 L 16.0 29.0 L 16.0 30.0 L 16.333333333333332 31.0 L 16.666666666666668 32.0 L 17.0 33.0 L 17.0 34.0 L 17.0 35.0 L 17.0 36.0 L 17.333333333333332 37.0 L 18.0 37.666666666666664 L 19.0 38.0 L 20.0 38.0 L 21.0 38.333333333333336 L 22.0 39.0 L 23.0 40.0 L 23.666666666666668 41.0 L 24.0 42.0 L 24.0 43.0 L 24.0 44.0 L 24.0 45.0 L 24.0 46.0 L 24.0 47.0 L 23.666666666666668 48.0 L 23.333333333333332 49.0 L 23.0 50.0 L 23.333333333333332 50.666666666666664 L 24.0 51.0 L 25.0 51.0 L 26.0 51.0 L 27.0 51.0 L 28.0 51.0 L 29.0 51.0 L 30.0 51.0 L 31.0 51.0 L 32.0 51.0 L 33.0 51.0 L 34.0 51.0 L 35.0 51.0 L 36.0 51.0 L 37.0 51.0 L 38.0 51.0 L 39.0 51.333333333333336 L 39.333333333333336 52.0 L 39.0 52.666666666666664 L 38.0 53.0 L 37.0 53.0 L 36.0 53.0 L 35.0 53.333333333333336 L 34.333333333333336 54.0 L 34.0 55.0 L 34.333333333333336 55.666666666666664 L 35.0 56.0 L 36.0 56.0 L 37.0 56.0 L 38.0 56.0 L 39.0 56.0 L 40.0 56.0 L 41.0 56.0 L 42.0 56.0 L 43.0 56.333333333333336 L 44.0 56.666666666666664 L 45.0 57.0 L 46.0 57.0 L 47.0 57.0 L 48.0 57.0 L 49.0 57.0 L 49.666666666666664 56.666666666666664 L 50.333333333333336 56.0 L 51.0 55.333333333333336 L 52.0 55.0 L 53.0 55.0 L 53.5 55.0 Z" stroke="none" fill="rgb(255,202,40)" />
<path d="M 78.5 121.0 L 79.0 120.66666666666667 L 80.0 120.33333333333333 L 81.0 119.66666666666667 L 82.0 119.0 L 83.0 118.0 L 84.0 117.0 L 85.0 116.0 L 86.0 115.0 L 87.0 114.0 L 88.0 113.0 L 89.0 112.0 L 90.0 111.0 L 91.0 110.0 L 92.0 109.0 L 92.66666666666667 108.0 L 93.33333333333333 107.0 L 94.0 106.0 L 94.66666666666667 105.0 L 95.33333333333333 104.0 L 95.66666666666667 103.0 L 96.33333333333333 102.0 L 96.66666666666667 101.0 L 97.33333333333333 100.0 L 97.66666666666667 99.0 L 98.33333333333333 98.0 L 98.66666666666667 97.0 L 99.33333333333333 96.0 L 99.66666666666667 95.0 L 100.0 94.0 L 100.0 93.0 L 100.0 92.0 L 100.0 91.0 L 100.0 90.0 L 100.0 89.0 L 100.0 88.0 L 100.0 87.0 L 100.0 86.0 L 100.0 85.0 L 100.0 84.0 L 100.0 83.0 L 100.0 82.0 L 100.0 81.0 L 100.0 80.0 L 100.0 79.0 L 100.0 78.0 L 100.0 77.0 L 100.0 76.0 L 100.0 75.0 L 100.0 74.0 L 100.0 73.0 L 100.0 72.0 L 99.66666666666667 71.0 L 99.33333333333333 70.0 L 98.66666666666667 69.0 L 98.33333333333333 68.0 L 97.66666666666667 67.0 L 97.0 66.0 L 96.0 65.0 L 95.0 64.0 L 94.0 63.333333333333336 L 93.0 62.666666666666664 L 92.0 62.0 L 91.0 61.0 L 90.0 60.333333333333336 L 89.0 59.666666666666664 L 88.0 59.0 L 87.0 58.333333333333336 L 86.0 58.0 L 85.0 58.0 L 84.0 58.0 L 83.0 58.0 L 82.0 58.0 L 81.0 58.0 L 80.0 58.0 L 79.0 58.0 L 78.0 58.0 L 77.0 58.0 L 76.0 58.0 L 75.0 58.0 L 74.0 58.0 L 73.0 58.0 L 72.0 58.0 L 71.0 58.0 L 70.0 58.0 L 69.0 58.0 L 68.0 58.0 L 67.0 58.0 L 66.0 58.0 L 65.0 58.0 L 64.0 58.0 L 63.0 58.0 L 62.0 58.0 L 61.0 58.0 L 60.0 58.0 L 59.0 58.0 L 58.0 58.0 L 57.0 58.0 L 56.0 58.333333333333336 L 55.0 58.666666666666664 L 54.0 59.0 L 53.0 59.333333333333336 L 52.0 59.666666666666664 L 51.0 60.333333333333336 L 50.0 60.666666666666664 L 49.0 61.333333333333336 L 48.0 61.666666666666664 L 47.0 62.0 L 46.0 62.333333333333336 L 45.0 62.666666666666664 L 44.0 63.0 L 43.0 63.333333333333336 L 42.0 63.666666666666664 L 41.0 64.0 L 40.0 64.0 L 39.0 64.33333333333333 L 38.0 64.66666666666667 L 37.0 65.0 L 36.0 65.0 L 35.0 65.0 L 34.0 65.33333333333333 L 33.0 66.0 L 32.0 67.0 L 31.333333333333332 68.0 L 30.666666666666668 69.0 L 30.333333333333332 70.0 L 30.0 71.0 L 29.666666666666668 72.0 L 29.333333333333332 73.0 L 29.0 74.0 L 29.0 75.0 L 28.666666666666668 76.0 L 28.333333333333332 77.0 L 28.0 78.0 L 28.0 79.0 L 27.666666666666668 80.0 L 27.333333333333332 81.0 L 27.0 82.0 L 27.0 83.0 L 27.0 84.0 L 27.0 85.0 L 27.0 86.0 L 27.0 87.0 L 27.0 88.0 L 27.0 89.0 L 27.0 90.0 L 27.333333333333332 91.0 L 27.666666666666668 92.0 L 28.0 93.0 L 28.0 94.0 L 28.333333333333332 95.0 L 28.666666666666668 96.0 L 29.333333333333332 97.0 L 29.666666666666668 98.0 L 30.333333333333332 99.0 L 30.666666666666668 100.0 L 31.333333333333332 101.0 L 31.666666666666668 102.0 L 32.333333333333336 103.0 L 32.666666666666664 104.0 L 33.333333333333336 105.0 L 34.0 106.0 L 35.0 107.0 L 35.666666666666664 108.0 L 36.333333333333336 109.0 L 37.0 110.0 L 38.0 111.0 L 39.0 112.0 L 40.0 113.0 L 41.0 114.0 L 42.0 115.0 L 43.0 116.0 L 44.0 117.0 L 45.0 118.0 L 46.0 118.66666666666667 L 47.0 119.33333333333333 L 48.0 119.66666666666667 L 49.0 120.33333333333333 L 50.0 120.66666666666667 L 51.0 121.33333333333333 L 52.0 121.66666666666667 L 53.0 122.0 L 54.0 122.33333333333333 L 55.0 123.0 L 56.0 123.66666666666667 L 57.0 124.0 L 58.0 124.0 L 59.0 124.0 L 60.0 124.0 L 61.0 124.0 L 62.0 124.0 L 63.0 124.0 L 64.0 124.0 L 65.0 124.0 L 66.0 124.0 L 67.0 124.0 L 68.0 124.0 L 69.0 124.0 L 70.0 124.0 L 71.0 124.0 L 72.0 124.0 L 73.0 124.0 L 74.0 124.0 L 74.66666666666667 123.66666666666667 L 75.33333333333333 123.0 L 76.0 122.33333333333333 L 77.0 121.66666666666667 L 77.5 121.5 Z" stroke="none" fill="rgb(224,187,149)" />
<path d="M 102.0 107.5 L 102.0 107.0 L 102.33333333333333 106.0 L 102.66666666666667 105.0 L 103.0 104.0 L 103.0 103.0 L 103.0 102.0 L 103.33333333333333 101.0 L 103.66666666666667 100.0 L 104.0 99.0 L 104.0 98.0 L 104.0 97.0 L 104.0 96.0 L 104.0 95.0 L 104.0 94.0 L 104.0 93.0 L 104.0 92.0 L 104.0 91.0 L 104.0 90.0 L 104.0 89.0 L 104.0 88.0 L 104.0 87.0 L 104.0 86.0 L 104.0 85.0 L 103.66666666666667 84.0 L 103.33333333333333 83.0 L 103.0 82.0 L 103.0 81.0 L 103.0 80.0 L 103.0 79.0 L 102.66666666666667 78.0 L 102.33333333333333 77.0 L 102.0 76.0 L 102.0 75.0 L 101.66666666666667 74.33333333333333 L 101.0 74.0 L 100.33333333333333 74.33333333333333 L 100.0 75.0 L 100.0 76.0 L 100.0 77.0 L 100.0 78.0 L 100.0 79.0 L 100.0 80.0 L 100.0 81.0 L 100.0 82.0 L 100.0 83.0 L 100.0 84.0 L 100.0 85.0 L 100.0 86.0 L 100.0 87.0 L 100.0 88.0 L 100.0 89.0 L 100.0 90.0 L 100.0 91.0 L 100.0 92.0 L 100.0 93.0 L 99.66666666666667 94.0 L 99.33333333333333 95.0 L 98.66666666666667 96.0 L 98.33333333333333 97.0 L 97.66666666666667 98.0 L 97.33333333333333 99.0 L 96.66666666666667 100.0 L 96.33333333333333 101.0 L 95.66666666666667 102.0 L 95.33333333333333 103.0 L 94.66666666666667 104.0 L 94.0 105.0 L 93.33333333333333 106.0 L 92.66666666666667 107.0 L 92.0 108.0 L 91.0 109.0 L 90.0 110.0 L 89.0 111.0 L 88.0 112.0 L 87.0 113.0 L 86.0 114.0 L 85.0 115.0 L 84.0 116.0 L 83.0 117.0 L 82.0 118.0 L 81.0 119.0 L 80.0 119.66666666666667 L 79.0 120.33333333333333 L 78.0 120.66666666666667 L 77.0 121.33333333333333 L 76.0 121.66666666666667 L 75.33333333333333 122.33333333333333 L 75.0 123.0 L 75.33333333333333 123.66666666666667 L 76.0 124.0 L 77.0 124.0 L 78.0 124.0 L 79.0 124.0 L 80.0 124.0 L 81.0 124.0 L 82.0 124.0 L 83.0 124.0 L 84.0 124.0 L 85.0 124.0 L 86.0 124.0 L 87.0 124.0 L 88.0 124.0 L 89.0 124.0 L 90.0 124.0 L 91.0 124.0 L 92.0 124.0 L 93.0 124.0 L 93.66666666666667 123.66666666666667 L 94.33333333333333 123.0 L 95.0 122.0 L 95.66666666666667 121.0 L 96.33333333333333 120.0 L 97.0 119.0 L 97.66666666666667 118.0 L 98.33333333333333 117.0 L 98.66666666666667 116.0 L 99.33333333333333 115.0 L 99.66666666666667 114.0 L 100.0 113.0 L 100.33333333333333 112.0 L 100.66666666666667 111.0 L 101.0 110.0 L 101.33333333333333 109.0 L 101.5 108.5 Z" stroke="none" fill="rgb(171,135,48)" />
<path d="M 21.5 123.5 L 22.0 123.66666666666667 L 23.0 124.0 L 24.0 124.0 L 25.0 124.0 L 26.0 124.0 L 27.0 124.0 L 28.0 124.0 L 28.666666666666668 123.66666666666667 L 28.666666666666668 123.0 L 28.333333333333332 122.0 L 27.666666666666668 121.0 L 27.0 120.0 L 26.333333333333332 119.0 L 26.0 118.0 L 25.666666666666668 117.0 L 25.333333333333332 116.0 L 24.666666666666668 115.0 L 24.333333333333332 114.0 L 24.0 113.0 L 23.666666666666668 112.0 L 23.333333333333332 111.0 L 23.0 110.0 L 22.666666666666668 109.0 L 22.333333333333332 108.0 L 22.0 107.0 L 22.0 106.0 L 21.666666666666668 105.0 L 21.333333333333332 104.0 L 21.0 103.0 L 21.0 102.0 L 21.0 101.0 L 21.0 100.0 L 20.666666666666668 99.0 L 20.333333333333332 98.0 L 20.0 97.0 L 20.0 96.0 L 20.0 95.0 L 20.0 94.0 L 20.0 93.0 L 20.0 92.0 L 20.0 91.0 L 20.0 90.0 L 20.0 89.0 L 20.0 88.0 L 20.0 87.0 L 20.0 86.0 L 20.0 85.0 L 20.0 84.0 L 20.0 83.0 L 20.333333333333332 82.0 L 20.666666666666668 81.0 L 21.0 80.0 L 21.0 79.0 L 21.0 78.0 L 21.333333333333332 77.0 L 21.666666666666668 76.0 L 22.0 75.0 L 22.0 74.0 L 22.333333333333332 73.0 L 22.666666666666668 72.0 L 23.0 71.0 L 23.333333333333332 70.0 L 23.666666666666668 69.0 L 24.0 68.0 L 24.333333333333332 67.0 L 24.666666666666668 66.0 L 25.333333333333332 65.0 L 25.666666666666668 64.0 L 26.333333333333332 63.0 L 26.666666666666668 62.0 L 27.0 61.0 L 27.0 60.0 L 26.666666666666668 59.333333333333336 L 26.0 59.0 L 25.0 59.0 L 24.0 59.0 L 23.0 59.0 L 22.0 59.0 L 21.0 59.0 L 20.0 59.333333333333336 L 19.333333333333332 60.0 L 19.0 61.0 L 19.0 62.0 L 19.0 63.0 L 19.0 64.0 L 18.666666666666668 65.0 L 18.333333333333332 66.0 L 18.0 67.0 L 18.0 68.0 L 18.0 69.0 L 18.0 70.0 L 18.0 71.0 L 18.0 72.0 L 18.0 73.0 L 18.0 74.0 L 18.0 75.0 L 18.0 76.0 L 17.666666666666668 77.0 L 17.333333333333332 78.0 L 17.0 79.0 L 17.0 80.0 L 17.0 81.0 L 17.0 82.0 L 17.0 83.0 L 17.0 84.0 L 17.0 85.0 L 17.0 86.0 L 17.0 87.0 L 17.333333333333332 88.0 L 17.666666666666668 89.0 L 18.0 90.0 L 18.0 91.0 L 18.0 92.0 L 18.0 93.0 L 18.0 94.0 L 18.0 95.0 L 18.0 96.0 L 18.0 97.0 L 18.0 98.0 L 18.0 99.0 L 18.0 100.0 L 18.0 101.0 L 18.0 102.0 L 18.333333333333332 103.0 L 18.666666666666668 104.0 L 19.0 105.0 L 19.0 106.0 L 19.0 107.0 L 19.0 108.0 L 19.0 109.0 L 19.0 110.0 L 19.333333333333332 111.0 L 19.666666666666668 112.0 L 20.0 113.0 L 20.0 114.0 L 20.0 115.0 L 20.0 116.0 L 20.0 117.0 L 20.333333333333332 118.0 L 20.666666666666668 119.0 L 21.0 120.0 L 21.0 121.0 L 21.0 122.0 L 21.0 122.5 Z" stroke="none" fill="rgb(191,160,84)" />
<path d="M 30.5 111.5 L 30.666666666666668 112.0 L 31.333333333333332 113.0 L 31.666666666666668 114.0 L 32.333333333333336 115.0 L 32.666666666666664 116.0 L 33.333333333333336 117.0 L 33.666666666666664 118.0 L 34.333333333333336 119.0 L 34.666666666666664 120.0 L 35.333333333333336 121.0 L 36.0 122.0 L 37.0 123.0 L 38.0 123.66666666666667 L 39.0 124.0 L 40.0 124.0 L 41.0 124.0 L 42.0 124.0 L 43.0 124.0 L 44.0 124.0 L 45.0 124.0 L 46.0 124.0 L 47.0 124.0 L 48.0 124.0 L 49.0 124.0 L 50.0 124.0 L 51.0 124.0 L 52.0 124.0 L 53.0 124.0 L 54.0 124.0 L 55.0 124.0 L 55.666666666666664 123.66666666666667 L 55.666666666666664 123.0 L 55.0 122.33333333333333 L 54.0 122.0 L 53.0 121.66666666666667 L 52.0 121.33333333333333 L 51.0 120.66666666666667 L 50.0 120.33333333333333 L 49.0 119.66666666666667 L 48.0 119.33333333333333 L 47.0 118.66666666666667 L 46.0 118.0 L 45.0 117.0 L 44.0 116.0 L 43.0 115.0 L 42.0 114.0 L 41.0 113.0 L 40.0 112.0 L 39.0 111.0 L 38.0 110.0 L 37.0 109.0 L 36.333333333333336 108.0 L 35.666666666666664 107.0 L 35.0 106.0 L 34.0 105.0 L 33.333333333333336 104.0 L 32.666666666666664 103.0 L 32.333333333333336 102.0 L 31.666666666666668 101.0 L 31.333333333333332 100.0 L 30.666666666666668 99.0 L 30.333333333333332 98.0 L 29.666666666666668 97.0 L 29.333333333333332 96.0 L 28.666666666666668 95.33333333333333 L 28.0 95.0 L 27.333333333333332 95.33333333333333 L 27.0 96.0 L 27.0 97.0 L 27.0 98.0 L 27.333333333333332 99.0 L 27.666666666666668 100.0 L 28.0 101.0 L 28.0 102.0 L 28.0 103.0 L 28.333333333333332 104.0 L 28.666666666666668 105.0 L 29.0 106.0 L 29.0 107.0 L 29.333333333333332 108.0 L 29.666666666666668 109.0 L 30.0 110.0 L 30.0 110.5 Z" stroke="none" fill="rgb(171,135,48)" />
<path d="M 61.5 58.0 L 62.0 58.0 L 63.0 58.0 L 64.0 58.0 L 65.0 58.0 L 66.0 58.0 L 67.0 58.0 L 68.0 58.0 L 69.0 58.0 L 70.0 58.0 L 71.0 58.0 L 72.0 58.0 L 73.0 58.0 L 74.0 58.0 L 75.0 58.0 L 76.0 58.0 L 77.0 58.0 L 78.0 58.0 L 79.0 58.0 L 80.0 58.0 L 81.0 58.0 L 82.0 58.0 L 83.0 58.0 L 84.0 58.0 L 85.0 58.0 L 86.0 58.333333333333336 L 87.0 59.0 L 88.0 59.666666666666664 L 89.0 60.0 L 89.66666666666667 59.666666666666664 L 90.33333333333333 59.0 L 91.0 58.333333333333336 L 92.0 58.333333333333336 L 93.0 59.0 L 94.0 59.666666666666664 L 95.0 59.666666666666664 L 96.0 59.666666666666664 L 97.0 59.666666666666664 L 98.0 59.666666666666664 L 99.0 59.666666666666664 L 100.0 59.666666666666664 L 101.0 59.666666666666664 L 102.0 59.666666666666664 L 103.0 59.666666666666664 L 104.0 59.666666666666664 L 105.0 59.333333333333336 L 106.0 59.0 L 107.0 59.0 L 107.66666666666667 58.666666666666664 L 108.0 58.0 L 107.66666666666667 57.333333333333336 L 107.0 57.0 L 106.0 56.666666666666664 L 105.0 56.333333333333336 L 104.0 56.0 L 103.0 56.0 L 102.0 56.0 L 101.0 56.0 L 100.0 56.0 L 99.0 56.0 L 98.0 56.0 L 97.0 56.0 L 96.0 56.0 L 95.0 56.0 L 94.0 56.0 L 93.0 56.0 L 92.0 56.0 L 91.0 56.0 L 90.0 55.666666666666664 L 89.0 55.333333333333336 L 88.0 55.0 L 87.0 55.0 L 86.0 55.0 L 85.0 55.0 L 84.0 55.0 L 83.0 55.0 L 82.0 55.0 L 81.0 55.0 L 80.0 55.0 L 79.0 55.0 L 78.0 55.0 L 77.0 55.0 L 76.0 55.0 L 75.0 55.0 L 74.0 55.0 L 73.0 55.0 L 72.0 55.0 L 71.0 55.0 L 70.0 55.0 L 69.0 55.0 L 68.0 55.0 L 67.0 55.0 L 66.0 55.0 L 65.0 55.0 L 64.0 55.0 L 63.0 55.0 L 62.0 55.0 L 61.0 55.0 L 60.0 55.0 L 59.0 55.0 L 58.0 55.0 L 57.0 55.0 L 56.0 55.0 L 55.0 55.0 L 54.0 55.0 L 53.0 55.0 L 52.0 55.0 L 51.0 55.0 L 50.333333333333336 55.333333333333336 L 50.0 56.0 L 50.333333333333336 56.666666666666664 L 51.0 57.0 L 52.0 57.333333333333336 L 53.0 58.0 L 54.0 58.666666666666664 L 55.0 59.0 L 56.0 58.666666666666664 L 57.0 58.333333333333336 L 58.0 58.0 L 59.0 58.0 L 60.0 58.0 L 60.5 58.0 Z" stroke="none" fill="rgb(228,168,18)" />
<path d="M 96.5 29.0 L 97.0 28.666666666666668 L 97.66666666666667 28.0 L 98.0 27.0 L 97.66666666666667 26.0 L 97.0 25.0 L 96.0 24.333333333333332 L 95.0 23.666666666666668 L 94.0 23.0 L 93.0 22.333333333333332 L 92.0 22.0 L 91.0 21.666666666666668 L 90.0 21.333333333333332 L 89.0 20.666666666666668 L 88.0 20.333333333333332 L 87.0 19.666666666666668 L 86.0 19.0 L 85.0 18.333333333333332 L 84.0 18.0 L 83.0 18.0 L 82.0 17.666666666666668 L 81.0 17.333333333333332 L 80.0 17.0 L 79.0 17.0 L 78.0 17.0 L 77.0 17.0 L 76.0 17.0 L 75.0 16.666666666666668 L 74.0 16.333333333333332 L 73.0 16.0 L 72.0 16.0 L 71.0 16.0 L 70.0 16.0 L 69.33333333333333 16.333333333333332 L 69.0 17.0 L 69.0 18.0 L 69.33333333333333 19.0 L 69.66666666666667 20.0 L 70.33333333333333 21.0 L 71.0 22.0 L 72.0 23.0 L 73.0 24.0 L 74.0 24.666666666666668 L 75.0 25.333333333333332 L 76.0 25.666666666666668 L 77.0 26.333333333333332 L 78.0 26.666666666666668 L 79.0 27.333333333333332 L 80.0 27.666666666666668 L 81.0 28.0 L 82.0 28.0 L 83.0 28.0 L 84.0 28.333333333333332 L 85.0 28.666666666666668 L 86.0 29.0 L 87.0 29.0 L 88.0 29.0 L 89.0 29.0 L 90.0 29.0 L 91.0 29.0 L 92.0 29.0 L 93.0 29.0 L 94.0 29.0 L 95.0 29.0 L 95.5 29.0 Z" stroke="none" fill="rgb(191,160,84)" />
<path d="M 31.5 119.5 L 31.666666666666668 120.0 L 32.333333333333336 121.0 L 33.0 122.0 L 33.666666666666664 123.0 L 34.333333333333336 123.66666666666667 L 35.0 124.0 L 36.0 124.0 L 37.0 124.0 L 37.666666666666664 123.66666666666667 L 37.666666666666664 123.0 L 37.0 122.0 L 36.0 121.0 L 35.333333333333336 120.0 L 34.666666666666664 119.0 L 34.333333333333336 118.0 L 33.666666666666664 117.0 L 33.333333333333336 116.0 L 32.666666666666664 115.0 L 32.333333333333336 114.0 L 31.666666666666668 113.0 L 31.333333333333332 112.0 L 30.666666666666668 111.0 L 30.333333333333332 110.0 L 30.0 109.0 L 29.666666666666668 108.0 L 29.333333333333332 107.0 L 29.0 106.0 L 29.0 105.0 L 28.666666666666668 104.0 L 28.333333333333332 103.0 L 28.0 102.0 L 28.0 101.0 L 28.0 100.0 L 27.666666666666668 99.0 L 27.333333333333332 98.0 L 27.0 97.0 L 27.333333333333332 96.0 L 27.666666666666668 95.0 L 28.0 94.0 L 28.0 93.0 L 28.0 92.0 L 27.666666666666668 91.0 L 27.333333333333332 90.0 L 27.0 89.0 L 27.0 88.0 L 27.0 87.0 L 27.0 86.0 L 27.0 85.0 L 27.0 84.0 L 27.0 83.0 L 27.333333333333332 82.0 L 27.666666666666668 81.0 L 28.0 80.0 L 28.0 79.0 L 28.333333333333332 78.0 L 28.666666666666668 77.0 L 29.0 76.0 L 29.0 75.0 L 29.333333333333332 74.0 L 29.666666666666668 73.0 L 30.0 72.0 L 30.333333333333332 71.0 L 30.666666666666668 70.0 L 31.333333333333332 69.0 L 32.0 68.0 L 33.0 67.0 L 33.666666666666664 66.0 L 34.0 65.0 L 34.333333333333336 64.0 L 35.0 63.0 L 35.666666666666664 62.0 L 36.333333333333336 61.0 L 36.666666666666664 60.0 L 37.0 59.0 L 36.666666666666664 58.333333333333336 L 36.0 58.0 L 35.0 58.0 L 34.0 58.333333333333336 L 33.333333333333336 59.0 L 33.0 60.0 L 32.666666666666664 61.0 L 32.0 62.0 L 31.333333333333332 63.0 L 30.666666666666668 64.0 L 30.333333333333332 65.0 L 29.666666666666668 66.0 L 29.333333333333332 67.0 L 29.0 68.0 L 28.666666666666668 69.0 L 28.333333333333332 70.0 L 28.0 71.0 L 27.666666666666668 72.0 L 27.333333333333332 73.0 L 27.0 74.0 L 26.666666666666668 75.0 L 26.333333333333332 76.0 L 26.0 77.0 L 26.0 78.0 L 26.0 79.0 L 25.666666666666668 80.0 L 25.333333333333332 81.0 L 25.0 82.0 L 25.0 83.0 L 25.0 84.0 L 25.0 85.0 L 25.0 86.0 L 25.0 87.0 L 25.0 88.0 L 25.0 89.0 L 25.0 90.0 L 25.0 91.0 L 25.0 92.0 L 25.0 93.0 L 25.0 94.0 L 25.0 95.0 L 25.0 96.0 L 25.0 97.0 L 25.0 98.0 L 25.0 99.0 L 25.0 100.0 L 25.333333333333332 101.0 L 25.666666666666668 102.0 L 26.0 103.0 L 26.0 104.0 L 26.0 105.0 L 26.333333333333332 106.0 L 26.666666666666668 107.0 L 27.0 108.0 L 27.0 109.0 L 27.333333333333332 110.0 L 27.666666666666668 111.0 L 28.333333333333332 112.0 L 28.666666666666668 113.0 L 29.0 114.0 L 29.333333333333332 115.0 L 29.666666666666668 116.0 L 30.333333333333332 117.0 L 30.666666666666668 118.0 L 31.0 118.5 Z" stroke="none" fill="rgb(176,141,55)" />
<path d="M 100.0 123.5 L 100.33333333333333 123.0 L 100.66666666666667 122.0 L 101.33333333333333 121.0 L 101.66666666666667 120.0 L 102.33333333333333 119.0 L 102.66666666666667 118.0 L 103.33333333333333 117.0 L 103.66666666666667 116.0 L 104.33333333333333 115.0 L 104.66666666666667 114.0 L 105.0 113.0 L 105.33333333333333 112.0 L 105.66666666666667 111.0 L 106.0 110.0 L 106.33333333333333 109.0 L 106.66666666666667 108.0 L 107.0 107.0 L 107.0 106.0 L 107.33333333333333 105.0 L 107.66666666666667 104.0 L 108.0 103.0 L 108.0 102.0 L 108.0 101.0 L 108.0 100.0 L 108.0 99.0 L 108.0 98.0 L 108.33333333333333 97.0 L 109.0 96.33333333333333 L 109.66666666666667 95.66666666666667 L 110.0 95.0 L 110.0 94.0 L 110.0 93.0 L 110.0 92.0 L 110.0 91.0 L 110.0 90.0 L 109.66666666666667 89.0 L 109.0 88.0 L 108.33333333333333 87.0 L 108.0 86.0 L 108.0 85.0 L 108.0 84.0 L 108.0 83.0 L 108.0 82.0 L 108.0 81.0 L 108.0 80.0 L 107.66666666666667 79.0 L 107.33333333333333 78.0 L 107.0 77.0 L 107.0 76.0 L 106.66666666666667 75.0 L 106.33333333333333 74.0 L 106.0 73.0 L 106.0 72.0 L 105.66666666666667 71.0 L 105.33333333333333 70.0 L 104.66666666666667 69.0 L 104.33333333333333 68.0 L 104.0 67.0 L 103.66666666666667 66.0 L 103.33333333333333 65.0 L 102.66666666666667 64.0 L 102.33333333333333 63.0 L 101.66666666666667 62.0 L 101.33333333333333 61.0 L 100.66666666666667 60.0 L 100.0 59.333333333333336 L 99.0 59.0 L 98.33333333333333 59.333333333333336 L 98.0 60.0 L 98.0 61.0 L 98.33333333333333 62.0 L 98.66666666666667 63.0 L 99.33333333333333 64.0 L 99.66666666666667 65.0 L 100.33333333333333 66.0 L 100.66666666666667 67.0 L 101.33333333333333 68.0 L 101.66666666666667 69.0 L 102.33333333333333 70.0 L 102.66666666666667 71.0 L 103.0 72.0 L 103.33333333333333 73.0 L 103.66666666666667 74.0 L 104.0 75.0 L 104.33333333333333 76.0 L 104.66666666666667 77.0 L 105.0 78.0 L 105.0 79.0 L 105.0 80.0 L 105.33333333333333 81.0 L 105.66666666666667 82.0 L 106.0 83.0 L 106.0 84.0 L 106.0 85.0 L 106.0 86.0 L 106.0 87.0 L 106.0 88.0 L 106.0 89.0 L 106.0 90.0 L 106.0 91.0 L 106.0 92.0 L 106.0 93.0 L 106.0 94.0 L 106.0 95.0 L 106.0 96.0 L 106.0 97.0 L 106.0 98.0 L 106.0 99.0 L 106.0 100.0 L 105.66666666666667 101.0 L 105.33333333333333 102.0 L 105.0 103.0 L 105.0 104.0 L 105.0 105.0 L 104.66666666666667 106.0 L 104.33333333333333 107.0 L 104.0 108.0 L 103.66666666666667 109.0 L 103.33333333333333 110.0 L 103.0 111.0 L 102.66666666666667 112.0 L 102.33333333333333 113.0 L 101.66666666666667 114.0 L 101.33333333333333 115.0 L 100.66666666666667 116.0 L 100.33333333333333 117.0 L 99.66666666666667 118.0 L 99.33333333333333 119.0 L 98.66666666666667 120.0 L 98.0 121.0 L 97.33333333333333 122.0 L 97.0 123.0 L 97.33333333333333 123.66666666666667 L 98.0 124.0 L 99.0 124.0 L 99.5 124.0 Z" stroke="none" fill="rgb(180,146,64)" />
<path d="M 100.0 118.5 L 100.33333333333333 118.0 L 100.66666666666667 117.0 L 101.33333333333333 116.0 L 101.66666666666667 115.0 L 102.33333333333333 114.0 L 102.66666666666667 113.0 L 103.0 112.0 L 103.33333333333333 111.0 L 103.66666666666667 110.0 L 104.0 109.0 L 104.33333333333333 108.0 L 104.66666666666667 107.0 L 105.0 106.0 L 105.0 105.0 L 105.0 104.0 L 105.33333333333333 103.0 L 105.66666666666667 102.0 L 106.0 101.0 L 106.0 100.0 L 106.0 99.0 L 106.0 98.0 L 106.0 97.0 L 106.0 96.0 L 106.0 95.0 L 106.0 94.0 L 106.0 93.0 L 106.0 92.0 L 106.0 91.0 L 106.0 90.0 L 106.0 89.0 L 106.0 88.0 L 106.0 87.0 L 106.0 86.0 L 106.0 85.0 L 106.0 84.0 L 106.0 83.0 L 106.0 82.0 L 105.66666666666667 81.0 L 105.33333333333333 80.0 L 105.0 79.0 L 105.0 78.0 L 105.0 77.0 L 104.66666666666667 76.0 L 104.33333333333333 75.0 L 104.0 74.0 L 103.66666666666667 73.0 L 103.33333333333333 72.0 L 103.0 71.0 L 102.66666666666667 70.0 L 102.33333333333333 69.0 L 101.66666666666667 68.0 L 101.33333333333333 67.0 L 100.66666666666667 66.0 L 100.33333333333333 65.0 L 99.66666666666667 64.0 L 99.33333333333333 63.0 L 98.66666666666667 62.0 L 98.33333333333333 61.0 L 97.66666666666667 60.0 L 97.0 59.333333333333336 L 96.0 59.0 L 95.33333333333333 59.333333333333336 L 95.0 60.0 L 95.0 61.0 L 95.33333333333333 62.0 L 96.0 63.0 L 96.66666666666667 64.0 L 97.0 65.0 L 97.0 66.0 L 97.33333333333333 67.0 L 97.66666666666667 68.0 L 98.33333333333333 69.0 L 98.66666666666667 70.0 L 99.33333333333333 71.0 L 99.66666666666667 72.0 L 100.0 73.0 L 100.33333333333333 73.66666666666667 L 101.0 74.33333333333333 L 101.66666666666667 75.0 L 102.0 76.0 L 102.0 77.0 L 102.33333333333333 78.0 L 102.66666666666667 79.0 L 103.0 80.0 L 103.0 81.0 L 103.0 82.0 L 103.0 83.0 L 103.33333333333333 84.0 L 103.66666666666667 85.0 L 104.0 86.0 L 104.0 87.0 L 104.0 88.0 L 104.0 89.0 L 104.0 90.0 L 104.0 91.0 L 104.0 92.0 L 104.0 93.0 L 104.0 94.0 L 104.0 95.0 L 104.0 96.0 L 104.0 97.0 L 104.0 98.0 L 103.66666666666667 99.0 L 103.33333333333333 100.0 L 103.0 101.0 L 103.0 102.0 L 103.0 103.0 L 102.66666666666667 104.0 L 102.33333333333333 105.0 L 102.0 106.0 L 101.66666666666667 107.0 L 101.33333333333333 108.0 L 101.0 109.0 L 100.66666666666667 110.0 L 100.33333333333333 111.0 L 100.0 112.0 L 99.66666666666667 113.0 L 99.33333333333333 114.0 L 98.66666666666667 115.0 L 98.33333333333333 116.0 L 97.66666666666667 117.0 L 97.0 118.0 L 96.33333333333333 119.0 L 95.66666666666667 120.0 L 95.0 121.0 L 94.33333333333333 122.0 L 94.0 123.0 L 94.33333333333333 123.66666666666667 L 95.0 124.0 L 96.0 124.0 L 96.66666666666667 123.66666666666667 L 97.33333333333333 123.0 L 98.0 122.0 L 98.66666666666667 121.0 L 99.33333333333333 120.0 L 99.5 119.5 Z" stroke="none" fill="rgb(176,141,55)" />
<path d="M 55.5 23.5 L 56.0 23.0 L 57.0 22.0 L 58.0 21.0 L 58.666666666666664 20.0 L 59.0 19.0 L 59.0 18.0 L 59.0 17.0 L 58.666666666666664 16.333333333333332 L 58.0 16.0 L 57.0 16.0 L 56.0 16.0 L 55.0 16.333333333333332 L 54.0 16.666666666666668 L 53.0 17.0 L 52.0 17.0 L 51.0 17.0 L 50.0 17.0 L 49.0 17.333333333333332 L 48.0 17.666666666666668 L 47.0 18.0 L 46.0 18.333333333333332 L 45.0 18.666666666666668 L 44.0 19.333333333333332 L 43.0 19.666666666666668 L 42.0 20.0 L 41.0 20.333333333333332 L 40.0 20.666666666666668 L 39.0 21.333333333333332 L 38.0 21.666666666666668 L 37.0 22.0 L 36.0 22.333333333333332 L 35.0 22.666666666666668 L 34.0 23.333333333333332 L 33.0 24.0 L 32.0 25.0 L 31.333333333333332 26.0 L 31.0 27.0 L 31.333333333333332 28.0 L 32.0 28.666666666666668 L 33.0 29.0 L 34.0 29.0 L 35.0 29.0 L 36.0 29.0 L 37.0 29.0 L 38.0 29.0 L 39.0 29.0 L 40.0 29.0 L 41.0 29.0 L 42.0 29.0 L 43.0 29.0 L 44.0 29.0 L 45.0 28.666666666666668 L 46.0 28.333333333333332 L 47.0 28.0 L 48.0 27.666666666666668 L 49.0 27.333333333333332 L 50.0 27.0 L 51.0 26.666666666666668 L 52.0 26.333333333333332 L 53.0 25.666666666666668 L 54.0 25.0 L 54.5 24.5 Z" stroke="none" fill="rgb(191,160,84)" />
<path d="M 21.5 105.5 L 21.666666666666668 106.0 L 22.0 107.0 L 22.0 108.0 L 22.333333333333332 109.0 L 22.666666666666668 110.0 L 23.0 111.0 L 23.333333333333332 112.0 L 23.666666666666668 113.0 L 24.0 114.0 L 24.333333333333332 115.0 L 24.666666666666668 116.0 L 25.333333333333332 117.0 L 25.666666666666668 118.0 L 26.0 119.0 L 26.333333333333332 120.0 L 27.0 121.0 L 27.666666666666668 122.0 L 28.333333333333332 123.0 L 29.0 123.66666666666667 L 30.0 124.0 L 31.0 124.0 L 31.666666666666668 123.66666666666667 L 31.666666666666668 123.0 L 31.0 122.0 L 30.333333333333332 121.0 L 29.666666666666668 120.0 L 29.333333333333332 119.0 L 28.666666666666668 118.0 L 28.333333333333332 117.0 L 27.666666666666668 116.0 L 27.333333333333332 115.0 L 26.666666666666668 114.0 L 26.333333333333332 113.0 L 26.0 112.0 L 25.666666666666668 111.0 L 25.333333333333332 110.0 L 25.0 109.0 L 24.666666666666668 108.0 L 24.333333333333332 107.0 L 24.0 106.0 L 24.0 105.0 L 24.0 104.0 L 23.666666666666668 103.0 L 23.333333333333332 102.0 L 23.0 101.0 L 23.0 100.0 L 23.0 99.0 L 23.0 98.0 L 23.0 97.0 L 23.0 96.0 L 23.0 95.0 L 22.666666666666668 94.0 L 22.333333333333332 93.0 L 22.0 92.0 L 22.0 91.0 L 22.0 90.0 L 22.0 89.0 L 22.0 88.0 L 22.333333333333332 87.0 L 22.666666666666668 86.0 L 23.0 85.0 L 23.0 84.0 L 23.0 83.0 L 23.0 82.0 L 23.0 81.0 L 23.0 80.0 L 23.333333333333332 79.0 L 23.666666666666668 78.0 L 24.0 77.0 L 24.0 76.0 L 24.333333333333332 75.0 L 24.666666666666668 74.0 L 25.0 73.0 L 25.333333333333332 72.0 L 25.666666666666668 71.0 L 26.0 70.0 L 26.333333333333332 69.0 L 26.666666666666668 68.0 L 27.333333333333332 67.0 L 27.666666666666668 66.0 L 28.333333333333332 65.0 L 28.666666666666668 64.0 L 29.333333333333332 63.0 L 29.666666666666668 62.0 L 30.0 61.0 L 30.0 60.0 L 29.666666666666668 59.333333333333336 L 29.0 59.0 L 28.0 59.333333333333336 L 27.333333333333332 60.0 L 26.666666666666668 61.0 L 26.333333333333332 62.0 L 25.666666666666668 63.0 L 25.333333333333332 64.0 L 24.666666666666668 65.0 L 24.333333333333332 66.0 L 24.0 67.0 L 23.666666666666668 68.0 L 23.333333333333332 69.0 L 23.0 70.0 L 22.666666666666668 71.0 L 22.333333333333332 72.0 L 22.0 73.0 L 22.0 74.0 L 21.666666666666668 75.0 L 21.333333333333332 76.0 L 21.0 77.0 L 21.0 78.0 L 21.0 79.0 L 20.666666666666668 80.0 L 20.333333333333332 81.0 L 20.0 82.0 L 20.0 83.0 L 20.0 84.0 L 20.0 85.0 L 20.0 86.0 L 20.0 87.0 L 20.0 88.0 L 20.0 89.0 L 20.0 90.0 L 20.0 91.0 L 20.0 92.0 L 20.0 93.0 L 20.0 94.0 L 20.0 95.0 L 20.0 96.0 L 20.0 97.0 L 20.0 98.0 L 20.333333333333332 99.0 L 20.666666666666668 100.0 L 21.0 101.0 L 21.0 102.0 L 21.0 103.0 L 21.0 104.0 L 21.0 104.5 Z" stroke="none" fill="rgb(185,152,73)" />
<path d="M 23.5 103.5 L 23.666666666666668 104.0 L 24.0 105.0 L 24.0 106.0 L 24.0 107.0 L 24.333333333333332 108.0 L 24.666666666666668 109.0 L 25.0 110.0 L 25.333333333333332 111.0 L 25.666666666666668 112.0 L 26.0 113.0 L 26.333333333333332 114.0 L 26.666666666666668 115.0 L 27.333333333333332 116.0 L 27.666666666666668 117.0 L 28.333333333333332 118.0 L 28.666666666666668 119.0 L 29.333333333333332 120.0 L 29.666666666666668 121.0 L 30.333333333333332 122.0 L 31.0 123.0 L 32.0 123.66666666666667 L 33.0 124.0 L 33.666666666666664 123.66666666666667 L 34.0 123.0 L 33.666666666666664 122.0 L 33.0 121.0 L 32.333333333333336 120.0 L 31.666666666666668 119.0 L 31.333333333333332 118.0 L 30.666666666666668 117.0 L 30.333333333333332 116.0 L 29.666666666666668 115.0 L 29.333333333333332 114.0 L 29.0 113.0 L 28.666666666666668 112.0 L 28.333333333333332 111.0 L 27.666666666666668 110.0 L 27.333333333333332 109.0 L 27.0 108.0 L 27.0 107.0 L 26.666666666666668 106.0 L 26.333333333333332 105.0 L 26.0 104.0 L 26.0 103.0 L 26.0 102.0 L 25.666666666666668 101.0 L 25.333333333333332 100.0 L 25.0 99.0 L 25.0 98.0 L 25.0 97.0 L 25.0 96.0 L 25.0 95.0 L 25.0 94.0 L 25.0 93.0 L 25.0 92.0 L 25.0 91.0 L 25.0 90.0 L 25.0 89.0 L 25.0 88.0 L 25.0 87.0 L 25.0 86.0 L 25.0 85.0 L 25.0 84.0 L 25.0 83.0 L 25.333333333333332 82.0 L 25.666666666666668 81.0 L 26.0 80.0 L 26.0 79.0 L 26.0 78.0 L 26.333333333333332 77.0 L 26.666666666666668 76.0 L 27.0 75.0 L 27.333333333333332 74.0 L 27.666666666666668 73.0 L 28.0 72.0 L 28.333333333333332 71.0 L 28.666666666666668 70.0 L 29.0 69.0 L 29.333333333333332 68.0 L 29.666666666666668 67.0 L 30.333333333333332 66.0 L 30.666666666666668 65.0 L 31.333333333333332 64.0 L 32.0 63.0 L 32.666666666666664 62.0 L 33.0 61.0 L 33.0 60.0 L 32.666666666666664 59.333333333333336 L 32.0 59.0 L 31.0 59.333333333333336 L 30.333333333333332 60.0 L 29.666666666666668 61.0 L 29.333333333333332 62.0 L 28.666666666666668 63.0 L 28.333333333333332 64.0 L 27.666666666666668 65.0 L 27.333333333333332 66.0 L 26.666666666666668 67.0 L 26.333333333333332 68.0 L 26.0 69.0 L 25.666666666666668 70.0 L 25.333333333333332 71.0 L 25.0 72.0 L 24.666666666666668 73.0 L 24.333333333333332 74.0 L 24.0 75.0 L 24.0 76.0 L 23.666666666666668 77.0 L 23.333333333333332 78.0 L 23.0 79.0 L 23.0 80.0 L 23.0 81.0 L 23.0 82.0 L 23.0 83.0 L 23.0 84.0 L 22.666666666666668 85.0 L 22.333333333333332 86.0 L 22.0 87.0 L 22.0 88.0 L 22.0 89.0 L 22.0 90.0 L 22.0 91.0 L 22.0 92.0 L 22.0 93.0 L 22.333333333333332 94.0 L 22.666666666666668 95.0 L 23.0 96.0 L 23.0 97.0 L 23.0 98.0 L 23.0 99.0 L 23.0 100.0 L 23.0 101.0 L 23.0 102.0 L 23.0 102.5 Z" stroke="none" fill="rgb(180,146,64)" />
<path d="M 65.5 109.0 L 66.0 109.0 L 67.0 109.0 L 68.0 109.0 L 69.0 109.0 L 70.0 109.0 L 71.0 108.66666666666667 L 72.0 108.33333333333333 L 73.0 107.66666666666667 L 74.0 107.0 L 75.0 106.0 L 76.0 105.0 L 76.66666666666667 104.0 L 77.0 103.0 L 77.0 102.0 L 76.66666666666667 101.0 L 76.0 100.33333333333333 L 75.0 100.0 L 74.0 100.33333333333333 L 73.0 100.66666666666667 L 72.0 101.0 L 71.0 101.33333333333333 L 70.0 101.66666666666667 L 69.0 102.0 L 68.0 102.0 L 67.0 102.0 L 66.0 102.0 L 65.0 102.0 L 64.0 102.0 L 63.0 102.0 L 62.0 101.66666666666667 L 61.0 101.33333333333333 L 60.0 101.0 L 59.0 101.0 L 58.0 101.0 L 57.0 101.0 L 56.0 100.66666666666667 L 55.0 100.33333333333333 L 54.0 100.0 L 53.0 100.0 L 52.0 100.33333333333333 L 51.333333333333336 101.0 L 51.0 102.0 L 51.0 103.0 L 51.333333333333336 104.0 L 52.0 105.0 L 53.0 106.0 L 54.0 106.66666666666667 L 55.0 107.33333333333333 L 56.0 107.66666666666667 L 57.0 108.0 L 58.0 108.33333333333333 L 59.0 108.66666666666667 L 60.0 109.0 L 61.0 109.0 L 62.0 109.0 L 63.0 109.0 L 64.0 109.0 L 64.5 109.0 Z" stroke="none" fill="rgb(109,76,65)" />
<path d="M 92.0 21.5 L 92.33333333333333 21.0 L 92.66666666666667 20.0 L 93.0 19.0 L 93.0 18.0 L 93.0 17.0 L 93.0 16.0 L 93.0 15.0 L 93.0 14.0 L 92.66666666666667 13.0 L 92.0 12.0 L 91.0 11.333333333333334 L 90.0 10.666666666666666 L 89.0 10.333333333333334 L 88.0 10.0 L 87.0 10.0 L 86.0 10.0 L 85.0 10.333333333333334 L 84.0 10.666666666666666 L 83.0 11.333333333333334 L 82.0 12.0 L 81.33333333333333 13.0 L 81.0 14.0 L 81.0 15.0 L 81.0 16.0 L 81.0 17.0 L 81.33333333333333 17.666666666666668 L 82.0 18.0 L 82.66666666666667 17.666666666666668 L 83.0 17.0 L 83.33333333333333 16.0 L 84.0 15.0 L 85.0 14.0 L 86.0 13.333333333333334 L 87.0 13.333333333333334 L 87.33333333333333 14.0 L 87.0 15.0 L 86.0 16.0 L 85.33333333333333 17.0 L 85.0 18.0 L 85.33333333333333 19.0 L 86.0 19.666666666666668 L 87.0 20.333333333333332 L 88.0 20.666666666666668 L 89.0 21.333333333333332 L 90.0 21.666666666666668 L 91.0 22.0 L 91.5 22.0 Z" stroke="none" fill="rgb(241,149,52)" />
<path d="M 46.0 18.5 L 46.0 18.0 L 46.0 17.0 L 46.0 16.0 L 46.0 15.0 L 46.0 14.0 L 45.666666666666664 13.0 L 45.0 12.0 L 44.0 11.333333333333334 L 43.0 10.666666666666666 L 42.0 10.333333333333334 L 41.0 10.0 L 40.0 10.0 L 39.0 10.0 L 38.0 10.333333333333334 L 37.0 11.0 L 36.0 12.0 L 35.333333333333336 13.0 L 35.0 14.0 L 35.0 15.0 L 35.0 16.0 L 35.0 17.0 L 35.0 18.0 L 35.0 19.0 L 35.333333333333336 20.0 L 35.666666666666664 21.0 L 36.333333333333336 21.666666666666668 L 37.0 22.0 L 38.0 22.0 L 39.0 21.666666666666668 L 40.0 21.333333333333332 L 41.0 20.666666666666668 L 42.0 20.333333333333332 L 43.0 20.0 L 44.0 19.666666666666668 L 45.0 19.333333333333332 L 45.5 19.0 Z" stroke="none" fill="rgb(241,149,52)" />
<path d="M 102.5 64.5 L 102.66666666666667 65.0 L 103.33333333333333 66.0 L 103.66666666666667 67.0 L 104.0 68.0 L 104.33333333333333 69.0 L 104.66666666666667 70.0 L 105.33333333333333 71.0 L 105.66666666666667 72.0 L 106.0 73.0 L 106.0 74.0 L 106.33333333333333 75.0 L 106.66666666666667 76.0 L 107.0 77.0 L 107.0 78.0 L 107.33333333333333 79.0 L 107.66666666666667 80.0 L 108.0 81.0 L 108.0 82.0 L 108.0 83.0 L 108.0 84.0 L 108.0 85.0 L 108.0 86.0 L 108.0 87.0 L 108.33333333333333 88.0 L 109.0 88.66666666666667 L 110.0 88.66666666666667 L 110.66666666666667 88.0 L 111.0 87.0 L 111.0 86.0 L 111.0 85.0 L 111.0 84.0 L 111.0 83.0 L 111.0 82.0 L 111.0 81.0 L 111.0 80.0 L 110.66666666666667 79.0 L 110.33333333333333 78.0 L 110.0 77.0 L 110.0 76.0 L 110.0 75.0 L 109.66666666666667 74.0 L 109.0 73.0 L 108.33333333333333 72.0 L 108.0 71.0 L 108.0 70.0 L 107.66666666666667 69.0 L 107.33333333333333 68.0 L 106.66666666666667 67.0 L 106.33333333333333 66.0 L 106.0 65.0 L 105.66666666666667 64.0 L 105.33333333333333 63.0 L 104.66666666666667 62.0 L 104.33333333333333 61.0 L 103.66666666666667 60.0 L 103.0 59.333333333333336 L 102.0 59.0 L 101.33333333333333 59.333333333333336 L 101.0 60.0 L 101.0 61.0 L 101.33333333333333 62.0 L 101.66666666666667 63.0 L 102.0 63.5 Z" stroke="none" fill="rgb(185,152,73)" />
<path d="M 50.5 61.0 L 51.0 60.666666666666664 L 52.0 60.333333333333336 L 53.0 59.666666666666664 L 53.666666666666664 59.0 L 53.666666666666664 58.0 L 53.0 57.333333333333336 L 52.0 57.0 L 51.0 57.0 L 50.0 57.0 L 49.0 57.0 L 48.0 57.0 L 47.0 57.0 L 46.0 57.0 L 45.0 57.0 L 44.0 57.333333333333336 L 43.0 57.666666666666664 L 42.0 58.0 L 41.0 58.0 L 40.0 58.0 L 39.0 58.0 L 38.0 58.333333333333336 L 37.0 59.0 L 36.333333333333336 60.0 L 35.666666666666664 61.0 L 35.0 62.0 L 34.333333333333336 63.0 L 34.0 64.0 L 34.333333333333336 64.66666666666667 L 35.0 65.0 L 36.0 65.0 L 37.0 65.0 L 38.0 65.0 L 39.0 64.66666666666667 L 40.0 64.33333333333333 L 41.0 64.0 L 42.0 64.0 L 43.0 63.666666666666664 L 44.0 63.333333333333336 L 45.0 63.0 L 46.0 62.666666666666664 L 47.0 62.333333333333336 L 48.0 62.0 L 49.0 61.666666666666664 L 49.5 61.5 Z" stroke="none" fill="rgb(171,135,48)" />
<path d="M 48.5 85.5 L 49.0 85.0 L 49.666666666666664 84.0 L 50.0 83.0 L 50.0 82.0 L 50.0 81.0 L 50.0 80.0 L 50.0 79.0 L 50.0 78.0 L 49.666666666666664 77.0 L 49.0 76.0 L 48.0 75.33333333333333 L 47.0 75.0 L 46.0 75.0 L 45.0 75.0 L 44.0 75.0 L 43.0 75.0 L 42.0 75.33333333333333 L 41.0 76.0 L 40.333333333333336 77.0 L 40.0 78.0 L 40.0 79.0 L 40.0 80.0 L 40.0 81.0 L 40.0 82.0 L 40.333333333333336 83.0 L 41.0 84.0 L 42.0 85.0 L 43.0 85.66666666666667 L 44.0 86.0 L 45.0 86.0 L 46.0 86.0 L 47.0 86.0 L 47.5 86.0 Z" stroke="none" fill="rgb(93,64,55)" />
<path d="M 86.5 85.5 L 87.0 85.0 L 87.66666666666667 84.0 L 88.0 83.0 L 88.0 82.0 L 88.0 81.0 L 88.0 80.0 L 88.0 79.0 L 88.0 78.0 L 87.66666666666667 77.0 L 87.0 76.0 L 86.0 75.33333333333333 L 85.0 75.0 L 84.0 75.0 L 83.0 75.0 L 82.0 75.0 L 81.0 75.0 L 80.0 75.33333333333333 L 79.0 76.0 L 78.33333333333333 77.0 L 78.0 78.0 L 78.0 79.0 L 78.0 80.0 L 78.0 81.0 L 78.0 82.0 L 78.33333333333333 83.0 L 79.0 84.0 L 80.0 85.0 L 81.0 85.66666666666667 L 82.0 86.0 L 83.0 86.0 L 84.0 86.0 L 85.0 86.0 L 85.5 86.0 Z" stroke="none" fill="rgb(93,64,55)" />
<path d="M 109.0 110.5 L 109.0 110.0 L 109.0 109.0 L 109.0 108.0 L 109.0 107.0 L 109.0 106.0 L 109.0 105.0 L 109.33333333333333 104.0 L 109.66666666666667 103.0 L 110.0 102.0 L 110.0 101.0 L 110.0 100.0 L 110.0 99.0 L 110.0 98.0 L 110.0 97.0 L 109.66666666666667 96.33333333333333 L 109.0 96.0 L 108.33333333333333 96.33333333333333 L 108.0 97.0 L 108.0 98.0 L 108.0 99.0 L 108.0 100.0 L 108.0 101.0 L 108.0 102.0 L 107.66666666666667 103.0 L 107.33333333333333 104.0 L 107.0 105.0 L 107.0 106.0 L 106.66666666666667 107.0 L 106.33333333333333 108.0 L 106.0 109.0 L 105.66666666666667 110.0 L 105.33333333333333 111.0 L 105.0 112.0 L 104.66666666666667 113.0 L 104.33333333333333 114.0 L 103.66666666666667 115.0 L 103.33333333333333 116.0 L 102.66666666666667 117.0 L 102.33333333333333 118.0 L 101.66666666666667 119.0 L 101.33333333333333 120.0 L 100.66666666666667 121.0 L 100.33333333333333 122.0 L 100.0 123.0 L 100.33333333333333 123.66666666666667 L 101.0 124.0 L 102.0 124.0 L 102.66666666666667 123.66666666666667 L 103.33333333333333 123.0 L 103.66666666666667 122.0 L 104.33333333333333 121.0 L 104.66666666666667 120.0 L 105.33333333333333 119.0 L 105.66666666666667 118.0 L 106.0 117.0 L 106.33333333333333 116.0 L 107.0 115.33333333333333 L 107.66666666666667 114.66666666666667 L 108.0 114.0 L 108.0 113.0 L 108.33333333333333 112.0 L 108.5 111.5 Z" stroke="none" fill="rgb(185,152,73)" />
<path d="M 40.5 72.0 L 41.0 72.0 L 42.0 71.66666666666667 L 43.0 71.33333333333333 L 44.0 71.0 L 45.0 71.0 L 46.0 71.0 L 47.0 71.0 L 48.0 71.0 L 49.0 71.33333333333333 L 50.0 71.66666666666667 L 51.0 72.0 L 52.0 72.0 L 53.0 71.66666666666667 L 53.666666666666664 71.0 L 53.666666666666664 70.0 L 53.0 69.0 L 52.0 68.0 L 51.0 67.33333333333333 L 50.0 66.66666666666667 L 49.0 66.33333333333333 L 48.0 66.0 L 47.0 66.0 L 46.0 66.0 L 45.0 66.0 L 44.0 66.33333333333333 L 43.0 66.66666666666667 L 42.0 67.0 L 41.0 67.0 L 40.0 67.33333333333333 L 39.0 67.66666666666667 L 38.0 68.33333333333333 L 37.333333333333336 69.0 L 37.0 70.0 L 37.0 71.0 L 37.333333333333336 71.66666666666667 L 38.0 72.0 L 39.0 72.0 L 39.5 72.0 Z" stroke="none" fill="rgb(171,135,48)" />
<path d="M 79.5 72.0 L 80.0 71.66666666666667 L 81.0 71.33333333333333 L 82.0 71.0 L 83.0 71.0 L 84.0 71.0 L 85.0 71.0 L 86.0 71.0 L 87.0 71.33333333333333 L 88.0 71.66666666666667 L 89.0 72.0 L 90.0 72.0 L 90.66666666666667 71.66666666666667 L 91.0 71.0 L 91.0 70.0 L 90.66666666666667 69.0 L 90.0 68.0 L 89.0 67.33333333333333 L 88.0 66.66666666666667 L 87.0 66.33333333333333 L 86.0 66.0 L 85.0 66.0 L 84.0 66.0 L 83.0 66.0 L 82.0 66.33333333333333 L 81.0 66.66666666666667 L 80.0 67.0 L 79.0 67.0 L 78.0 67.33333333333333 L 77.0 67.66666666666667 L 76.0 68.33333333333333 L 75.0 69.0 L 74.33333333333333 70.0 L 74.33333333333333 71.0 L 75.0 71.66666666666667 L 76.0 72.0 L 77.0 72.0 L 78.0 72.0 L 78.5 72.0 Z" stroke="none" fill="rgb(171,135,48)" />
<path d="M 38.5 58.5 L 39.0 58.333333333333336 L 40.0 58.0 L 41.0 58.0 L 42.0 58.0 L 43.0 58.0 L 43.666666666666664 57.666666666666664 L 44.0 57.0 L 43.666666666666664 56.333333333333336 L 43.0 56.0 L 42.0 56.0 L 41.0 56.0 L 40.0 56.0 L 39.0 56.0 L 38.0 56.0 L 37.0 56.0 L 36.0 56.0 L 35.0 55.666666666666664 L 34.0 55.333333333333336 L 33.0 55.0 L 32.0 55.0 L 31.0 55.0 L 30.0 55.333333333333336 L 29.0 55.666666666666664 L 28.0 56.0 L 27.0 56.0 L 26.0 56.0 L 25.0 56.0 L 24.0 56.0 L 23.0 56.0 L 22.0 56.333333333333336 L 21.0 56.666666666666664 L 20.333333333333332 57.333333333333336 L 20.0 58.0 L 20.333333333333332 58.666666666666664 L 21.0 59.0 L 22.0 59.0 L 23.0 59.0 L 24.0 59.0 L 25.0 59.0 L 26.0 59.333333333333336 L 27.0 59.666666666666664 L 28.0 59.666666666666664 L 29.0 59.666666666666664 L 30.0 59.666666666666664 L 31.0 59.666666666666664 L 32.0 59.333333333333336 L 33.0 59.0 L 34.0 58.666666666666664 L 35.0 58.333333333333336 L 36.0 58.333333333333336 L 37.0 58.666666666666664 L 37.5 59.0 Z" stroke="none" fill="rgb(228,168,18)" />
<path d="M 69.5 39.0 L 69.66666666666667 38.666666666666664 L 70.0 38.0 L 70.0 37.0 L 69.66666666666667 36.0 L 69.0 35.0 L 68.0 34.0 L 67.0 33.0 L 66.0 32.333333333333336 L 65.0 32.0 L 64.33333333333333 32.333333333333336 L 64.0 33.0 L 64.0 34.0 L 63.666666666666664 35.0 L 63.0 36.0 L 62.0 37.0 L 61.0 37.666666666666664 L 60.0 38.0 L 59.0 38.0 L 58.333333333333336 38.333333333333336 L 58.0 39.0 L 58.0 40.0 L 58.0 41.0 L 58.0 42.0 L 58.333333333333336 43.0 L 59.0 44.0 L 60.0 44.666666666666664 L 60.666666666666664 44.666666666666664 L 61.333333333333336 44.0 L 62.0 43.333333333333336 L 63.0 42.666666666666664 L 64.0 42.333333333333336 L 65.0 41.666666666666664 L 66.0 41.0 L 66.66666666666667 40.0 L 67.33333333333333 39.0 L 68.0 38.666666666666664 L 68.5 38.5 Z" stroke="none" fill="rgb(171,73,188)" />
<path d="M 22.5 52.0 L 22.666666666666668 51.666666666666664 L 23.0 51.0 L 23.333333333333332 50.0 L 23.666666666666668 49.0 L 24.0 48.0 L 24.0 47.0 L 24.0 46.0 L 24.0 45.0 L 24.0 44.0 L 24.0 43.0 L 24.0 42.0 L 24.0 41.0 L 23.666666666666668 40.0 L 23.0 39.0 L 22.0 38.333333333333336 L 21.0 38.0 L 20.0 38.0 L 19.0 38.0 L 18.0 38.333333333333336 L 17.333333333333332 39.0 L 17.0 40.0 L 17.0 41.0 L 17.333333333333332 41.666666666666664 L 18.0 41.666666666666664 L 19.0 41.666666666666664 L 19.666666666666668 42.0 L 20.0 43.0 L 19.666666666666668 44.0 L 19.0 44.666666666666664 L 18.0 45.0 L 17.333333333333332 45.333333333333336 L 17.0 46.0 L 17.0 47.0 L 17.333333333333332 48.0 L 18.0 49.0 L 19.0 50.0 L 20.0 51.0 L 21.0 51.666666666666664 L 21.5 52.0 Z" stroke="none" fill="rgb(171,73,188)" />
<path d="M 109.5 50.5 L 109.66666666666667 50.0 L 110.33333333333333 49.0 L 110.66666666666667 48.0 L 111.0 47.0 L 111.0 46.0 L 111.0 45.0 L 111.0 44.0 L 111.0 43.0 L 111.0 42.0 L 111.0 41.0 L 110.66666666666667 40.333333333333336 L 110.0 40.0 L 109.0 39.666666666666664 L 108.0 39.333333333333336 L 107.0 39.0 L 106.0 39.333333333333336 L 105.33333333333333 40.0 L 104.66666666666667 41.0 L 104.33333333333333 42.0 L 104.0 43.0 L 104.0 44.0 L 104.0 45.0 L 104.0 46.0 L 104.0 47.0 L 104.0 48.0 L 104.33333333333333 49.0 L 105.0 50.0 L 106.0 51.0 L 107.0 51.666666666666664 L 108.0 51.666666666666664 L 108.5 51.5 Z" stroke="none" fill="rgb(171,73,188)" />
<path d="M 40.5 52.5 L 40.666666666666664 52.0 L 40.666666666666664 51.333333333333336 L 40.0 51.0 L 39.0 51.0 L 38.0 51.0 L 37.0 51.0 L 36.0 51.0 L 35.0 51.0 L 34.0 51.0 L 33.0 51.0 L 32.0 51.0 L 31.0 51.0 L 30.0 51.0 L 29.0 51.0 L 28.0 51.0 L 27.0 51.0 L 26.0 51.0 L 25.0 51.0 L 24.0 51.0 L 23.0 51.333333333333336 L 22.0 51.666666666666664 L 21.0 52.0 L 20.333333333333332 52.333333333333336 L 20.0 53.0 L 20.333333333333332 53.666666666666664 L 21.0 54.0 L 22.0 54.0 L 23.0 54.0 L 24.0 54.0 L 25.0 54.0 L 26.0 54.0 L 27.0 54.0 L 28.0 54.0 L 29.0 54.333333333333336 L 30.0 54.666666666666664 L 31.0 55.0 L 32.0 55.0 L 33.0 55.0 L 34.0 54.666666666666664 L 35.0 54.0 L 36.0 53.333333333333336 L 37.0 53.0 L 38.0 53.0 L 39.0 53.0 L 39.5 53.0 Z" stroke="none" fill="rgb(241,149,52)" />
<path d="M 108.5 73.5 L 109.0 73.66666666666667 L 109.66666666666667 73.66666666666667 L 110.0 73.0 L 110.0 72.0 L 110.0 71.0 L 110.0 70.0 L 110.0 69.0 L 110.0 68.0 L 110.0 67.0 L 109.66666666666667 66.0 L 109.33333333333333 65.0 L 109.0 64.0 L 109.0 63.0 L 109.0 62.0 L 109.0 61.0 L 108.66666666666667 60.0 L 108.0 59.333333333333336 L 107.0 59.0 L 106.0 59.0 L 105.0 59.0 L 104.33333333333333 59.333333333333336 L 104.0 60.0 L 104.0 61.0 L 104.33333333333333 62.0 L 104.66666666666667 63.0 L 105.33333333333333 64.0 L 105.66666666666667 65.0 L 106.0 66.0 L 106.33333333333333 67.0 L 106.66666666666667 68.0 L 107.33333333333333 69.0 L 107.66666666666667 70.0 L 108.0 71.0 L 108.0 72.0 L 108.0 72.5 Z" stroke="none" fill="rgb(191,160,84)" />
<path d="M 90.5 53.0 L 91.0 53.0 L 92.0 53.0 L 93.0 53.0 L 94.0 53.0 L 95.0 53.0 L 96.0 53.0 L 97.0 53.0 L 98.0 53.0 L 99.0 53.0 L 100.0 53.0 L 101.0 53.0 L 102.0 53.0 L 103.0 53.333333333333336 L 104.0 53.666666666666664 L 105.0 54.0 L 106.0 54.0 L 107.0 54.0 L 107.66666666666667 53.666666666666664 L 108.0 53.0 L 107.66666666666667 52.0 L 107.0 51.333333333333336 L 106.0 51.0 L 105.0 51.0 L 104.0 51.0 L 103.0 51.0 L 102.0 51.0 L 101.0 51.0 L 100.0 51.0 L 99.0 51.0 L 98.0 51.0 L 97.0 51.0 L 96.0 51.0 L 95.0 51.0 L 94.0 51.0 L 93.0 51.0 L 92.0 51.0 L 91.0 51.0 L 90.0 51.0 L 89.0 51.0 L 88.33333333333333 51.333333333333336 L 88.0 52.0 L 88.33333333333333 52.666666666666664 L 89.0 53.0 L 89.5 53.0 Z" stroke="none" fill="rgb(241,149,52)" />
<path d="M 66.5 46.0 L 67.0 46.0 L 68.0 45.666666666666664 L 68.66666666666667 45.0 L 69.33333333333333 44.0 L 69.66666666666667 43.0 L 70.0 42.0 L 70.0 41.0 L 70.0 40.0 L 69.66666666666667 39.0 L 69.0 38.333333333333336 L 68.0 38.0 L 67.33333333333333 38.333333333333336 L 66.66666666666667 39.0 L 66.0 40.0 L 65.0 41.0 L 64.0 41.666666666666664 L 63.0 42.333333333333336 L 62.0 42.666666666666664 L 61.333333333333336 43.333333333333336 L 61.0 44.0 L 61.333333333333336 45.0 L 62.0 45.666666666666664 L 63.0 46.0 L 64.0 46.0 L 65.0 46.0 L 65.5 46.0 Z" stroke="none" fill="rgb(126,34,164)" />
<path d="M 60.5 95.5 L 61.0 95.66666666666667 L 62.0 96.0 L 63.0 96.0 L 64.0 96.0 L 65.0 96.0 L 66.0 96.0 L 67.0 95.66666666666667 L 68.0 95.0 L 68.66666666666667 94.0 L 69.0 93.0 L 69.0 92.0 L 68.66666666666667 91.33333333333333 L 68.0 91.0 L 67.0 91.0 L 66.0 91.0 L 65.0 91.0 L 64.0 91.0 L 63.0 91.0 L 62.0 91.0 L 61.0 91.0 L 60.0 91.0 L 59.333333333333336 91.33333333333333 L 59.0 92.0 L 59.0 93.0 L 59.333333333333336 94.0 L 59.5 94.5 Z" stroke="none" fill="rgb(200,141,109)" />
<path d="M 88.5 46.0 L 89.0 45.666666666666664 L 90.0 45.0 L 90.66666666666667 44.0 L 91.0 43.0 L 91.0 42.0 L 91.0 41.0 L 91.0 40.0 L 91.0 39.0 L 90.66666666666667 38.0 L 90.0 37.333333333333336 L 89.0 37.0 L 88.33333333333333 37.333333333333336 L 88.0 38.0 L 88.0 39.0 L 87.66666666666667 40.0 L 87.0 41.0 L 86.0 41.666666666666664 L 85.0 42.0 L 84.33333333333333 42.333333333333336 L 84.0 43.0 L 84.33333333333333 44.0 L 85.0 45.0 L 86.0 45.666666666666664 L 87.0 46.0 L 87.5 46.0 Z" stroke="none" fill="rgb(97,30,254)" />
<path d="M 26.5 32.0 L 27.0 32.0 L 28.0 32.0 L 29.0 32.0 L 30.0 32.0 L 31.0 32.333333333333336 L 32.0 32.666666666666664 L 33.0 33.0 L 33.666666666666664 32.666666666666664 L 34.0 32.0 L 33.666666666666664 31.333333333333332 L 33.0 31.0 L 32.0 30.666666666666668 L 31.0 30.333333333333332 L 30.0 30.0 L 29.0 30.0 L 28.0 29.666666666666668 L 27.0 29.333333333333332 L 26.0 28.666666666666668 L 25.0 28.333333333333332 L 24.0 27.666666666666668 L 23.0 27.333333333333332 L 22.0 27.0 L 21.333333333333332 27.333333333333332 L 21.0 28.0 L 21.333333333333332 29.0 L 22.0 30.0 L 23.0 30.666666666666668 L 24.0 31.0 L 25.0 31.333333333333332 L 25.5 31.5 Z" stroke="none" fill="rgb(255,244,156)" />
<path d="M 42.5 45.5 L 43.0 45.0 L 43.666666666666664 44.0 L 44.0 43.0 L 44.0 42.0 L 44.0 41.0 L 44.0 40.0 L 43.666666666666664 39.0 L 43.0 38.333333333333336 L 42.0 38.0 L 41.333333333333336 38.333333333333336 L 40.666666666666664 39.0 L 40.333333333333336 40.0 L 39.666666666666664 41.0 L 39.0 42.0 L 38.333333333333336 43.0 L 38.0 44.0 L 38.333333333333336 45.0 L 39.0 45.666666666666664 L 40.0 46.0 L 41.0 46.0 L 41.5 46.0 Z" stroke="none" fill="rgb(97,30,254)" />
<path d="M 91.5 62.5 L 92.0 62.666666666666664 L 93.0 63.333333333333336 L 94.0 64.0 L 95.0 65.0 L 96.0 65.66666666666667 L 96.66666666666667 65.66666666666667 L 97.0 65.0 L 97.0 64.0 L 96.66666666666667 63.0 L 96.0 62.0 L 95.33333333333333 61.0 L 94.66666666666667 60.0 L 94.0 59.0 L 93.0 58.333333333333336 L 92.0 58.0 L 91.0 58.0 L 90.33333333333333 58.333333333333336 L 90.0 59.0 L 90.0 60.0 L 90.33333333333333 61.0 L 90.5 61.5 Z" stroke="none" fill="rgb(171,135,48)" />
<path d="M 107.0 122.5 L 107.0 122.0 L 107.0 121.0 L 107.0 120.0 L 107.33333333333333 119.0 L 107.66666666666667 118.0 L 108.0 117.0 L 108.0 116.0 L 107.66666666666667 115.33333333333333 L 107.0 115.0 L 106.33333333333333 115.33333333333333 L 106.0 116.0 L 105.66666666666667 117.0 L 105.33333333333333 118.0 L 104.66666666666667 119.0 L 104.33333333333333 120.0 L 103.66666666666667 121.0 L 103.33333333333333 122.0 L 103.0 123.0 L 103.33333333333333 123.66666666666667 L 104.0 124.0 L 105.0 124.0 L 106.0 123.66666666666667 L 106.5 123.5 Z" stroke="none" fill="rgb(191,160,84)" />
<path d="M 102.5 32.0 L 103.0 31.666666666666668 L 104.0 31.333333333333332 L 105.0 30.666666666666668 L 106.0 30.0 L 106.66666666666667 29.0 L 107.0 28.0 L 106.66666666666667 27.333333333333332 L 106.0 27.0 L 105.0 27.333333333333332 L 104.0 28.0 L 103.0 28.666666666666668 L 102.0 29.0 L 101.0 29.333333333333332 L 100.0 29.666666666666668 L 99.33333333333333 30.333333333333332 L 99.0 31.0 L 99.33333333333333 31.666666666666668 L 100.0 32.0 L 101.0 32.0 L 101.5 32.0 Z" stroke="none" fill="rgb(255,244,156)" />
<path d="M 60.5 39.0 L 61.0 38.666666666666664 L 62.0 38.0 L 63.0 37.0 L 63.666666666666664 36.0 L 64.0 35.0 L 64.0 34.0 L 63.666666666666664 33.333333333333336 L 63.0 33.0 L 62.0 33.333333333333336 L 61.0 33.666666666666664 L 60.0 34.333333333333336 L 59.333333333333336 35.0 L 59.0 36.0 L 59.0 37.0 L 59.333333333333336 38.0 L 59.5 38.5 Z" stroke="none" fill="rgb(225,120,243)" />
<path d="M 62.5 9.5 L 63.0 9.0 L 64.0 8.0 L 64.66666666666667 7.0 L 65.0 6.0 L 64.66666666666667 5.333333333333333 L 64.0 5.0 L 63.0 5.0 L 62.0 5.333333333333333 L 61.0 6.0 L 60.333333333333336 7.0 L 60.0 8.0 L 60.0 9.0 L 60.333333333333336 9.666666666666666 L 61.0 10.0 L 61.5 10.0 Z" stroke="none" fill="rgb(255,244,156)" />
<path d="M 86.5 16.5 L 87.0 16.0 L 87.66666666666667 15.0 L 88.0 14.0 L 87.66666666666667 13.333333333333334 L 87.0 13.0 L 86.0 13.0 L 85.0 13.333333333333334 L 84.0 14.0 L 83.33333333333333 15.0 L 83.0 16.0 L 83.0 17.0 L 83.33333333333333 17.666666666666668 L 84.0 18.0 L 85.0 17.666666666666668 L 85.5 17.5 Z" stroke="none" fill="rgb(255,202,40)" />
<path d="M 25.5 56.0 L 26.0 56.0 L 27.0 56.0 L 28.0 56.0 L 29.0 56.0 L 29.666666666666668 55.666666666666664 L 30.0 55.0 L 29.666666666666668 54.333333333333336 L 29.0 54.0 L 28.0 54.0 L 27.0 54.0 L 26.0 54.0 L 25.0 54.0 L 24.0 54.0 L 23.0 54.0 L 22.333333333333332 54.333333333333336 L 22.0 55.0 L 22.333333333333332 55.666666666666664 L 23.0 56.0 L 24.0 56.0 L 24.5 56.0 Z" stroke="none" fill="rgb(255,244,156)" />
<path d="M 40.0 41.5 L 40.333333333333336 41.0 L 40.666666666666664 40.0 L 41.0 39.0 L 40.666666666666664 38.333333333333336 L 40.0 38.0 L 39.0 38.0 L 38.0 38.333333333333336 L 37.333333333333336 39.0 L 37.0 40.0 L 37.0 41.0 L 37.0 42.0 L 37.333333333333336 42.666666666666664 L 38.0 43.0 L 39.0 42.666666666666664 L 39.5 42.5 Z" stroke="none" fill="rgb(85,100,254)" />
<path d="M 38.5 19.0 L 38.666666666666664 18.666666666666668 L 39.0 18.0 L 39.333333333333336 17.0 L 39.666666666666664 16.0 L 40.0 15.0 L 40.0 14.0 L 39.666666666666664 13.333333333333334 L 39.0 13.0 L 38.0 13.333333333333334 L 37.333333333333336 14.0 L 37.0 15.0 L 37.0 16.0 L 37.0 17.0 L 37.0 18.0 L 37.333333333333336 18.666666666666668 L 37.5 19.0 Z" stroke="none" fill="rgb(255,202,40)" />
<path d="M 16.5 17.5 L 17.0 18.0 L 17.666666666666668 19.0 L 18.333333333333332 19.666666666666668 L 19.0 20.0 L 19.666666666666668 19.666666666666668 L 20.0 19.0 L 20.0 18.0 L 19.666666666666668 17.0 L 19.0 16.0 L 18.0 15.333333333333334 L 17.0 15.0 L 16.333333333333332 15.333333333333334 L 16.0 16.0 L 16.0 16.5 Z" stroke="none" fill="rgb(255,244,156)" />
<path d="M 107.5 44.5 L 108.0 44.0 L 108.66666666666667 43.0 L 109.0 42.0 L 109.0 41.0 L 108.66666666666667 40.333333333333336 L 108.0 40.0 L 107.0 40.333333333333336 L 106.33333333333333 41.0 L 105.66666666666667 42.0 L 105.33333333333333 43.0 L 105.33333333333333 44.0 L 106.0 44.666666666666664 L 106.5 45.0 Z" stroke="none" fill="rgb(225,120,243)" />
<path d="M 108.5 20.0 L 109.0 20.0 L 109.66666666666667 19.666666666666668 L 110.33333333333333 19.0 L 111.0 18.0 L 111.66666666666667 17.0 L 112.0 16.0 L 111.66666666666667 15.333333333333334 L 111.0 15.0 L 110.0 15.333333333333334 L 109.33333333333333 16.0 L 108.66666666666667 17.0 L 108.33333333333333 18.0 L 108.0 19.0 L 108.0 19.5 Z" stroke="none" fill="rgb(255,244,156)" />
<path d="M 19.5 45.0 L 19.666666666666668 44.666666666666664 L 20.0 44.0 L 20.333333333333332 43.0 L 20.666666666666668 42.0 L 21.0 41.0 L 20.666666666666668 40.333333333333336 L 20.0 40.0 L 19.0 40.333333333333336 L 18.333333333333332 41.0 L 18.0 42.0 L 18.0 43.0 L 18.0 44.0 L 18.333333333333332 44.666666666666664 L 18.5 45.0 Z" stroke="none" fill="rgb(225,120,243)" />
<path d="M 88.0 40.5 L 88.0 40.0 L 88.0 39.0 L 87.66666666666667 38.333333333333336 L 87.0 38.0 L 86.0 38.333333333333336 L 85.33333333333333 39.0 L 85.0 40.0 L 85.0 41.0 L 85.33333333333333 41.666666666666664 L 86.0 42.0 L 87.0 41.666666666666664 L 87.5 41.5 Z" stroke="none" fill="rgb(85,100,254)" />
<path d="M 20.5 57.0 L 21.0 57.0 L 21.666666666666668 56.666666666666664 L 22.0 56.0 L 22.0 55.0 L 21.666666666666668 54.333333333333336 L 21.0 54.0 L 20.0 54.0 L 19.333333333333332 54.333333333333336 L 19.0 55.0 L 19.0 56.0 L 19.333333333333332 56.666666666666664 L 19.5 57.0 Z" stroke="none" fill="rgb(255,202,40)" />
<path d="M 35.5 33.0 L 36.0 33.0 L 36.666666666666664 32.666666666666664 L 37.0 32.0 L 36.666666666666664 31.333333333333332 L 36.0 31.0 L 35.333333333333336 31.333333333333332 L 35.0 32.0 L 35.0 32.5 Z" stroke="none" fill="rgb(255,232,125)" />
<path d="M 92.5 33.0 L 92.66666666666667 32.666666666666664 L 93.0 32.0 L 92.66666666666667 31.333333333333332 L 92.0 31.0 L 91.33333333333333 31.333333333333332 L 91.0 32.0 L 91.33333333333333 32.666666666666664 L 91.5 33.0 Z" stroke="none" fill="rgb(255,232,125)" />
<path d="M 96.0 31.5 L 95.66666666666667 31.333333333333332 L 95.0 31.0 L 94.33333333333333 31.333333333333332 L 94.33333333333333 31.666666666666668 L 95.0 32.0 L 95.5 32.0 Z" stroke="none" fill="rgb(255,244,156)" />
<path d="M 62.0 45.5 L 61.666666666666664 45.333333333333336 L 61.333333333333336 45.333333333333336 L 61.333333333333336 45.666666666666664 L 61.5 46.0 Z" stroke="none" fill="rgb(171,73,188)" />
</svg>
