<?xml version="1.0" encoding="UTF-8" standalone="no"?>
<!DOCTYPE svg PUBLIC "-//W3C//DTD SVG 1.1//EN"
"http://www.w3.org/Graphics/SVG/1.1/DTD/svg11.dtd">
<svg width="128" height="128" xmlns="http://www.w3.org/2000/svg" version="1.1">
<path d="M 106.5 128.0 L 107.0 128.0 L 108.0 128.0 L 109.0 128.0 L 110.0 128.0 L 111.0 128.0 L 112.0 128.0 L 113.0 128.0 L 114.0 128.0 L 115.0 128.0 L 116.0 128.0 L 117.0 128.0 L 118.0 128.0 L 119.0 128.0 L 120.0 128.0 L 121.0 128.0 L 122.0 128.0 L 123.0 128.0 L 124.0 128.0 L 125.0 128.0 L 126.0 128.0 L 127.0 128.0 L 127.66666666666667 127.66666666666667 L 128.0 127.0 L 128.0 126.0 L 128.0 125.0 L 128.0 124.0 L 128.0 123.0 L 128.0 122.0 L 128.0 121.0 L 128.0 120.0 L 128.0 119.0 L 128.0 118.0 L 128.0 117.0 L 128.0 116.0 L 128.0 115.0 L 128.0 114.0 L 128.0 113.0 L 128.0 112.0 L 128.0 111.0 L 128.0 110.0 L 128.0 109.0 L 128.0 108.0 L 128.0 107.0 L 128.0 106.0 L 128.0 105.0 L 128.0 104.0 L 128.0 103.0 L 128.0 102.0 L 128.0 101.0 L 128.0 100.0 L 128.0 99.0 L 128.0 98.0 L 128.0 97.0 L 128.0 96.0 L 128.0 95.0 L 128.0 94.0 L 128.0 93.0 L 128.0 92.0 L 128.0 91.0 L 128.0 90.0 L 128.0 89.0 L 128.0 88.0 L 128.0 87.0 L 128.0 86.0 L 128.0 85.0 L 128.0 84.0 L 128.0 83.0 L 128.0 82.0 L 128.0 81.0 L 128.0 80.0 L 128.0 79.0 L 128.0 78.0 L 128.0 77.0 L 128.0 76.0 L 128.0 75.0 L 128.0 74.0 L 128.0 73.0 L 128.0 72.0 L 128.0 71.0 L 128.0 70.0 L 128.0 69.0 L 128.0 68.0 L 128.0 67.0 L 128.0 66.0 L 128.0 65.0 L 128.0 64.0 L 128.0 63.0 L 128.0 62.0 L 128.0 61.0 L 128.0 60.0 L 128.0 59.0 L 128.0 58.0 L 128.0 57.0 L 128.0 56.0 L 128.0 55.0 L 128.0 54.0 L 128.0 53.0 L 128.0 52.0 L 128.0 51.0 L 128.0 50.0 L 128.0 49.0 L 128.0 48.0 L 128.0 47.0 L 128.0 46.0 L 128.0 45.0 L 128.0 44.0 L 128.0 43.0 L 128.0 42.0 L 128.0 41.0 L 128.0 40.0 L 128.0 39.0 L 128.0 38.0 L 128.0 37.0 L 128.0 36.0 L 128.0 35.0 L 128.0 34.0 L 128.0 33.0 L 128.0 32.0 L 128.0 31.0 L 128.0 30.0 L 128.0 29.0 L 128.0 28.0 L 128.0 27.0 L 128.0 26.0 L 128.0 25.0 L 128.0 24.0 L 128.0 23.0 L 128.0 22.0 L 128.0 21.0 L 128.0 20.0 L 128.0 19.0 L 128.0 18.0 L 128.0 17.0 L 128.0 16.0 L 128.0 15.0 L 128.0 14.0 L 128.0 13.0 L 128.0 12.0 L 128.0 11.0 L 128.0 10.0 L 128.0 9.0 L 128.0 8.0 L 128.0 7.0 L 128.0 6.0 L 128.0 5.0 L 128.0 4.0 L 128.0 3.0 L 128.0 2.0 L 128.0 1.0 L 127.66666666666667 0.3333333333333333 L 127.0 0.0 L 126.0 0.0 L 125.0 0.0 L 124.0 0.0 L 123.0 0.0 L 122.0 0.0 L 121.0 0.0 L 120.0 0.0 L 119.0 0.0 L 118.0 0.0 L 117.0 0.0 L 116.0 0.0 L 115.0 0.0 L 114.0 0.0 L 113.0 0.0 L 112.0 0.0 L 111.0 0.0 L 110.0 0.0 L 109.0 0.0 L 108.0 0.0 L 107.0 0.0 L 106.0 0.0 L 105.0 0.0 L 104.0 0.0 L 103.0 0.0 L 102.0 0.0 L 101.0 0.0 L 100.0 0.0 L 99.0 0.0 L 98.0 0.0 L 97.0 0.0 L 96.0 0.0 L 95.0 0.0 L 94.0 0.0 L 93.0 0.0 L 92.0 0.0 L 91.0 0.0 L 90.0 0.0 L 89.0 0.0 L 88.0 0.0 L 87.0 0.0 L 86.0 0.0 L 85.0 0.0 L 84.0 0.0 L 83.0 0.0 L 82.0 0.0 L 81.0 0.0 L 80.0 0.0 L 79.0 0.0 L 78.0 0.0 L 77.0 0.0 L 76.0 0.0 L 75.0 0.0 L 74.0 0.0 L 73.0 0.0 L 72.0 0.0 L 71.0 0.0 L 70.0 0.0 L 69.0 0.0 L 68.0 0.0 L 67.0 0.0 L 66.0 0.0 L 65.0 0.0 L 64.0 0.0 L 63.0 0.0 L 62.0 0.0 L 61.0 0.0 L 60.0 0.0 L 59.0 0.0 L 58.0 0.0 L 57.0 0.0 L 56.0 0.0 L 55.0 0.0 L 54.0 0.0 L 53.0 0.0 L 52.0 0.0 L 51.0 0.0 L 50.0 0.0 L 49.0 0.0 L 48.0 0.0 L 47.0 0.0 L 46.0 0.0 L 45.0 0.0 L 44.0 0.0 L 43.0 0.0 L 42.0 0.0 L 41.0 0.0 L 40.0 0.0 L 39.0 0.0 L 38.0 0.0 L 37.0 0.0 L 36.0 0.0 L 35.0 0.0 L 34.0 0.0 L 33.0 0.0 L 32.0 0.0 L 31.0 0.0 L 30.0 0.0 L 29.0 0.0 L 28.0 0.0 L 27.0 0.0 L 26.0 0.0 L 25.0 0.0 L 24.0 0.0 L 23.0 0.0 L 22.0 0.0 L 21.0 0.0 L 20.0 0.0 L 19.0 0.0 L 18.0 0.0 L 17.0 0.0 L 16.0 0.0 L 15.0 0.0 L 14.0 0.0 L 13.0 0.0 L 12.0 0.0 L 11.0 0.0 L 10.0 0.0 L 9.0 0.0 L 8.0 0.0 L 7.0 0.0 L 6.0 0.0 L 5.0 0.0 L 4.0 0.0 L 3.0 0.0 L 2.0 0.0 L 1.0 0.0 L 0.3333333333333333 0.3333333333333333 L 0.0 1.0 L 0.0 2.0 L 0.0 3.0 L 0.0 4.0 L 0.0 5.0 L 0.0 6.0 L 0.0 7.0 L 0.0 8.0 L 0.0 9.0 L 0.0 10.0 L 0.0 11.0 L 0.0 12.0 L 0.0 13.0 L 0.0 14.0 L 0.0 15.0 L 0.0 16.0 L 0.0 17.0 L 0.0 18.0 L 0.0 19.0 L 0.0 20.0 L 0.0 21.0 L 0.0 22.0 L 0.0 23.0 L 0.0 24.0 L 0.0 25.0 L 0.0 26.0 L 0.0 27.0 L 0.0 28.0 L 0.0 29.0 L 0.0 30.0 L 0.0 31.0 L 0.0 32.0 L 0.0 33.0 L 0.0 34.0 L 0.0 35.0 L 0.0 36.0 L 0.0 37.0 L 0.0 38.0 L 0.0 39.0 L 0.0 40.0 L 0.0 41.0 L 0.0 42.0 L 0.0 43.0 L 0.0 44.0 L 0.0 45.0 L 0.0 46.0 L 0.0 47.0 L 0.0 48.0 L 0.0 49.0 L 0.0 50.0 L 0.0 51.0 L 0.0 52.0 L 0.0 53.0 L 0.0 54.0 L 0.0 55.0 L 0.0 56.0 L 0.0 57.0 L 0.0 58.0 L 0.0 59.0 L 0.0 60.0 L 0.0 61.0 L 0.0 62.0 L 0.0 63.0 L 0.0 64.0 L 0.0 65.0 L 0.0 66.0 L 0.0 67.0 L 0.0 68.0 L 0.0 69.0 L 0.0 70.0 L 0.0 71.0 L 0.0 72.0 L 0.0 73.0 L 0.0 74.0 L 0.0 75.0 L 0.0 76.0 L 0.0 77.0 L 0.0 78.0 L 0.0 79.0 L 0.0 80.0 L 0.0 81.0 L 0.0 82.0 L 0.0 83.0 L 0.0 84.0 L 0.0 85.0 L 0.0 86.0 L 0.0 87.0 L 0.0 88.0 L 0.0 89.0 L 0.0 90.0 L 0.0 91.0 L 0.0 92.0 L 0.0 93.0 L 0.0 94.0 L 0.0 95.0 L 0.0 96.0 L 0.0 97.0 L 0.0 98.0 L 0.0 99.0 L 0.0 100.0 L 0.0 101.0 L 0.0 102.0 L 0.0 103.0 L 0.0 104.0 L 0.0 105.0 L 0.0 106.0 L 0.0 107.0 L 0.0 108.0 L 0.0 109.0 L 0.0 110.0 L 0.0 111.0 L 0.0 112.0 L 0.0 113.0 L 0.0 114.0 L 0.0 115.0 L 0.0 116.0 L 0.0 117.0 L 0.0 118.0 L 0.0 119.0 L 0.0 120.0 L 0.0 121.0 L 0.0 122.0 L 0.0 123.0 L 0.0 124.0 L 0.0 125.0 L 0.0 126.0 L 0.0 127.0 L 0.3333333333333333 127.66666666666667 L 1.0 128.0 L 2.0 128.0 L 3.0 128.0 L 4.0 128.0 L 5.0 128.0 L 6.0 128.0 L 7.0 128.0 L 8.0 128.0 L 9.0 128.0 L 10.0 128.0 L 11.0 128.0 L 12.0 128.0 L 13.0 128.0 L 14.0 128.0 L 15.0 128.0 L 16.0 128.0 L 17.0 128.0 L 18.0 128.0 L 19.0 128.0 L 20.0 128.0 L 21.0 128.0 L 22.0 128.0 L 23.0 128.0 L 24.0 128.0 L 25.0 128.0 L 26.0 128.0 L 27.0 128.0 L 28.0 128.0 L 29.0 128.0 L 30.0 128.0 L 31.0 128.0 L 32.0 128.0 L 33.0 128.0 L 34.0 128.0 L 35.0 128.0 L 36.0 128.0 L 37.0 128.0 L 38.0 128.0 L 39.0 128.0 L 40.0 128.0 L 41.0 128.0 L 42.0 128.0 L 43.0 128.0 L 44.0 128.0 L 45.0 128.0 L 46.0 128.0 L 47.0 128.0 L 48.0 128.0 L 49.0 128.0 L 50.0 128.0 L 51.0 128.0 L 52.0 128.0 L 53.0 128.0 L 54.0 128.0 L 55.0 128.0 L 56.0 128.0 L 57.0 128.0 L 58.0 128.0 L 59.0 128.0 L 60.0 128.0 L 61.0 128.0 L 62.0 128.0 L 63.0 128.0 L 64.0 128.0 L 65.0 128.0 L 66.0 128.0 L 67.0 128.0 L 68.0 128.0 L 69.0 128.0 L 70.0 128.0 L 71.0 128.0 L 72.0 128.0 L 73.0 128.0 L 74.0 128.0 L 75.0 128.0 L 76.0 128.0 L 77.0 128.0 L 78.0 128.0 L 79.0 128.0 L 80.0 128.0 L 81.0 128.0 L 82.0 128.0 L 83.0 128.0 L 84.0 128.0 L 85.0 128.0 L 86.0 128.0 L 87.0 128.0 L 88.0 128.0 L 89.0 128.0 L 90.0 128.0 L 91.0 128.0 L 92.0 128.0 L 93.0 128.0 L 94.0 128.0 L 95.0 128.0 L 96.0 128.0 L 97.0 128.0 L 98.0 128.0 L 99.0 128.0 L 100.0 128.0 L 101.0 128.0 L 102.0 128.0 L 103.0 128.0 L 104.0 128.0 L 105.0 128.0 L 105.5 128.0 Z" stroke="none" fill="rgb(255,255,255)" />
<path d="M 33.5 98.5 L 34.0 98.66666666666667 L 35.0 99.33333333333333 L 36.0 99.66666666666667 L 37.0 99.66666666666667 L 38.0 99.33333333333333 L 39.0 99.0 L 40.0 99.0 L 41.0 99.0 L 42.0 99.0 L 43.0 99.0 L 44.0 99.0 L 44.666666666666664 98.66666666666667 L 45.333333333333336 98.0 L 46.0 97.33333333333333 L 47.0 97.0 L 48.0 97.0 L 49.0 97.0 L 50.0 96.66666666666667 L 51.0 96.33333333333333 L 52.0 96.0 L 53.0 96.0 L 54.0 96.0 L 54.666666666666664 95.66666666666667 L 54.666666666666664 95.0 L 54.0 94.0 L 53.0 93.33333333333333 L 52.0 92.66666666666667 L 51.0 92.33333333333333 L 50.0 91.66666666666667 L 49.0 91.0 L 48.0 90.0 L 47.0 89.0 L 46.0 88.0 L 45.0 87.0 L 44.0 86.0 L 43.0 85.0 L 42.0 84.0 L 41.0 83.0 L 40.0 82.0 L 39.0 81.0 L 38.0 80.0 L 37.333333333333336 79.0 L 36.666666666666664 78.0 L 36.333333333333336 77.0 L 35.666666666666664 76.0 L 35.333333333333336 75.0 L 34.666666666666664 74.0 L 34.333333333333336 73.0 L 34.0 72.0 L 34.0 71.0 L 34.0 70.0 L 34.0 69.0 L 34.0 68.0 L 34.0 67.0 L 34.0 66.0 L 34.0 65.0 L 34.0 64.0 L 34.0 63.0 L 34.0 62.0 L 34.0 61.0 L 34.0 60.0 L 34.0 59.0 L 34.0 58.0 L 34.333333333333336 57.0 L 34.666666666666664 56.0 L 35.0 55.0 L 35.0 54.0 L 35.0 53.0 L 35.0 52.0 L 35.333333333333336 51.0 L 35.666666666666664 50.0 L 36.0 49.0 L 36.0 48.0 L 36.333333333333336 47.0 L 36.666666666666664 46.0 L 37.0 45.0 L 37.333333333333336 44.0 L 37.666666666666664 43.0 L 38.333333333333336 42.0 L 38.666666666666664 41.0 L 39.333333333333336 40.0 L 40.0 39.0 L 41.0 38.0 L 42.0 37.0 L 43.0 36.0 L 44.0 35.0 L 45.0 34.333333333333336 L 46.0 33.666666666666664 L 47.0 33.0 L 48.0 32.333333333333336 L 49.0 32.0 L 50.0 31.666666666666668 L 51.0 31.333333333333332 L 52.0 31.0 L 53.0 31.0 L 54.0 31.0 L 55.0 31.0 L 56.0 31.333333333333332 L 57.0 31.666666666666668 L 58.0 32.333333333333336 L 59.0 33.0 L 60.0 33.666666666666664 L 61.0 34.333333333333336 L 62.0 34.666666666666664 L 63.0 35.0 L 64.0 35.0 L 65.0 35.0 L 66.0 35.0 L 67.0 34.666666666666664 L 68.0 34.0 L 69.0 33.333333333333336 L 70.0 32.666666666666664 L 71.0 32.333333333333336 L 72.0 31.666666666666668 L 73.0 31.333333333333332 L 74.0 31.0 L 75.0 31.0 L 76.0 31.0 L 77.0 31.0 L 78.0 31.0 L 79.0 31.333333333333332 L 80.0 32.0 L 81.0 32.666666666666664 L 82.0 33.333333333333336 L 83.0 34.0 L 84.0 35.0 L 85.0 36.0 L 86.0 37.0 L 87.0 38.0 L 88.0 39.0 L 88.66666666666667 40.0 L 89.33333333333333 41.0 L 89.66666666666667 42.0 L 90.33333333333333 43.0 L 90.66666666666667 44.0 L 91.0 45.0 L 91.33333333333333 46.0 L 91.66666666666667 47.0 L 92.0 48.0 L 92.33333333333333 49.0 L 92.66666666666667 50.0 L 93.0 51.0 L 93.0 52.0 L 93.0 53.0 L 93.0 54.0 L 93.33333333333333 55.0 L 93.66666666666667 56.0 L 94.0 57.0 L 94.0 58.0 L 94.0 59.0 L 94.0 60.0 L 94.0 61.0 L 94.0 62.0 L 94.0 63.0 L 94.0 64.0 L 94.0 65.0 L 94.0 66.0 L 94.0 67.0 L 94.0 68.0 L 94.0 69.0 L 94.0 70.0 L 94.0 71.0 L 94.0 72.0 L 94.0 73.0 L 93.66666666666667 74.0 L 93.33333333333333 75.0 L 92.66666666666667 76.0 L 92.0 77.0 L 91.33333333333333 78.0 L 90.66666666666667 79.0 L 90.0 80.0 L 89.33333333333333 81.0 L 88.66666666666667 82.0 L 88.0 83.0 L 87.0 84.0 L 86.0 85.0 L 85.0 86.0 L 84.0 87.0 L 83.0 88.0 L 82.0 89.0 L 81.0 90.0 L 80.0 91.0 L 79.0 91.66666666666667 L 78.0 92.33333333333333 L 77.0 92.66666666666667 L 76.33333333333333 93.33333333333333 L 76.0 94.0 L 76.33333333333333 95.0 L 76.66666666666667 96.0 L 77.33333333333333 96.66666666666667 L 78.0 97.0 L 79.0 97.0 L 80.0 97.0 L 81.0 97.0 L 82.0 97.0 L 83.0 97.0 L 84.0 97.0 L 85.0 97.33333333333333 L 86.0 98.0 L 87.0 98.66666666666667 L 88.0 99.0 L 89.0 99.0 L 90.0 99.33333333333333 L 91.0 100.0 L 92.0 100.66666666666667 L 93.0 101.0 L 94.0 101.0 L 94.66666666666667 100.66666666666667 L 95.0 100.0 L 95.33333333333333 99.0 L 95.66666666666667 98.0 L 96.33333333333333 97.0 L 96.66666666666667 96.0 L 97.33333333333333 95.0 L 97.66666666666667 94.0 L 98.33333333333333 93.0 L 99.0 92.33333333333333 L 100.0 92.0 L 100.66666666666667 91.66666666666667 L 101.0 91.0 L 101.33333333333333 90.0 L 101.66666666666667 89.0 L 102.0 88.0 L 102.0 87.0 L 102.0 86.0 L 102.0 85.0 L 102.33333333333333 84.0 L 102.66666666666667 83.0 L 103.0 82.0 L 103.0 81.0 L 103.0 80.0 L 103.0 79.0 L 103.0 78.0 L 103.0 77.0 L 103.0 76.0 L 103.0 75.0 L 103.33333333333333 74.0 L 103.66666666666667 73.0 L 104.0 72.0 L 104.0 71.0 L 104.0 70.0 L 104.0 69.0 L 104.0 68.0 L 104.0 67.0 L 104.0 66.0 L 104.0 65.0 L 104.0 64.0 L 104.0 63.0 L 104.0 62.0 L 104.0 61.0 L 104.0 60.0 L 104.0 59.0 L 104.0 58.0 L 104.0 57.0 L 104.0 56.0 L 104.0 55.0 L 104.33333333333333 54.0 L 104.66666666666667 53.0 L 105.0 52.0 L 104.66666666666667 51.0 L 104.0 50.0 L 103.33333333333333 49.0 L 103.0 48.0 L 103.0 47.0 L 102.66666666666667 46.0 L 102.33333333333333 45.0 L 102.0 44.0 L 101.66666666666667 43.0 L 101.33333333333333 42.0 L 101.0 41.0 L 100.66666666666667 40.0 L 100.33333333333333 39.0 L 99.66666666666667 38.0 L 99.33333333333333 37.0 L 98.66666666666667 36.0 L 98.33333333333333 35.0 L 97.66666666666667 34.0 L 97.33333333333333 33.0 L 96.66666666666667 32.0 L 96.0 31.0 L 95.33333333333333 30.0 L 94.66666666666667 29.0 L 94.0 28.0 L 93.33333333333333 27.0 L 92.66666666666667 26.0 L 92.0 25.0 L 91.0 24.0 L 90.0 23.0 L 89.0 22.0 L 88.0 21.0 L 87.0 20.333333333333332 L 86.0 19.666666666666668 L 85.0 19.0 L 84.0 18.0 L 83.0 17.333333333333332 L 82.0 16.666666666666668 L 81.0 16.333333333333332 L 80.0 15.666666666666666 L 79.0 15.333333333333334 L 78.0 14.666666666666666 L 77.0 14.333333333333334 L 76.0 14.0 L 75.0 13.666666666666666 L 74.0 13.333333333333334 L 73.0 13.0 L 72.0 13.0 L 71.0 12.666666666666666 L 70.0 12.333333333333334 L 69.0 12.0 L 68.0 12.0 L 67.0 12.0 L 66.0 12.0 L 65.0 12.0 L 64.0 12.0 L 63.0 12.0 L 62.0 12.0 L 61.0 12.0 L 60.0 12.0 L 59.0 12.0 L 58.0 12.333333333333334 L 57.0 12.666666666666666 L 56.0 13.0 L 55.0 13.0 L 54.0 13.333333333333334 L 53.0 13.666666666666666 L 52.333333333333336 14.333333333333334 L 52.0 15.0 L 52.333333333333336 16.0 L 53.0 16.666666666666668 L 54.0 17.333333333333332 L 55.0 17.666666666666668 L 56.0 18.333333333333332 L 57.0 19.0 L 58.0 20.0 L 58.333333333333336 21.0 L 58.0 21.666666666666668 L 57.0 22.0 L 56.0 22.0 L 55.0 22.0 L 54.0 22.0 L 53.0 22.0 L 52.0 22.0 L 51.0 22.0 L 50.0 22.0 L 49.0 22.0 L 48.0 22.333333333333332 L 47.0 22.666666666666668 L 46.0 23.0 L 45.0 23.333333333333332 L 44.0 24.0 L 43.0 24.666666666666668 L 42.0 25.333333333333332 L 41.0 26.0 L 40.0 27.0 L 39.0 28.0 L 38.0 29.0 L 37.333333333333336 30.0 L 36.666666666666664 31.0 L 36.333333333333336 32.0 L 35.666666666666664 33.0 L 35.333333333333336 34.0 L 34.666666666666664 35.0 L 34.333333333333336 36.0 L 34.0 37.0 L 33.666666666666664 38.0 L 33.333333333333336 39.0 L 32.666666666666664 40.0 L 32.333333333333336 41.0 L 32.0 42.0 L 32.0 43.0 L 31.666666666666668 44.0 L 31.333333333333332 45.0 L 30.666666666666668 46.0 L 30.0 46.333333333333336 L 29.333333333333332 46.0 L 28.666666666666668 45.0 L 28.0 44.333333333333336 L 27.0 44.0 L 26.333333333333332 44.333333333333336 L 26.0 45.0 L 26.0 46.0 L 25.666666666666668 47.0 L 25.333333333333332 48.0 L 25.0 49.0 L 25.0 50.0 L 24.666666666666668 51.0 L 24.333333333333332 52.0 L 24.0 53.0 L 24.0 54.0 L 24.0 55.0 L 24.0 56.0 L 24.0 57.0 L 24.0 58.0 L 24.0 59.0 L 24.0 60.0 L 24.0 61.0 L 24.0 62.0 L 24.0 63.0 L 24.0 64.0 L 24.0 65.0 L 24.0 66.0 L 24.0 67.0 L 24.0 68.0 L 24.0 69.0 L 24.0 70.0 L 24.0 71.0 L 24.333333333333332 72.0 L 24.666666666666668 73.0 L 25.0 74.0 L 25.0 75.0 L 25.0 76.0 L 25.0 77.0 L 25.0 78.0 L 25.0 79.0 L 25.0 80.0 L 25.0 81.0 L 25.333333333333332 82.0 L 25.666666666666668 83.0 L 26.0 84.0 L 26.0 85.0 L 26.333333333333332 86.0 L 26.666666666666668 87.0 L 27.0 88.0 L 27.333333333333332 88.66666666666667 L 28.0 89.33333333333333 L 28.666666666666668 90.0 L 29.333333333333332 91.0 L 29.666666666666668 92.0 L 30.333333333333332 93.0 L 30.666666666666668 94.0 L 31.333333333333332 95.0 L 31.666666666666668 96.0 L 32.333333333333336 97.0 L 32.5 97.5 Z" stroke="none" fill="rgb(84,57,48)" />
<path d="M 59.5 96.5 L 60.0 96.33333333333333 L 61.0 96.0 L 62.0 96.0 L 63.0 96.0 L 64.0 96.0 L 65.0 96.0 L 66.0 96.0 L 67.0 96.0 L 68.0 96.33333333333333 L 69.0 96.66666666666667 L 70.0 97.0 L 71.0 97.0 L 72.0 97.0 L 73.0 96.66666666666667 L 74.0 96.33333333333333 L 75.0 96.0 L 76.0 96.0 L 76.66666666666667 95.66666666666667 L 76.66666666666667 95.0 L 76.66666666666667 94.0 L 77.0 93.33333333333333 L 78.0 92.66666666666667 L 79.0 92.33333333333333 L 80.0 91.66666666666667 L 81.0 91.0 L 82.0 90.0 L 83.0 89.0 L 84.0 88.0 L 85.0 87.0 L 86.0 86.0 L 87.0 85.0 L 88.0 84.0 L 88.66666666666667 83.0 L 89.33333333333333 82.0 L 90.0 81.0 L 90.66666666666667 80.0 L 91.33333333333333 79.0 L 92.0 78.0 L 92.66666666666667 77.0 L 93.33333333333333 76.0 L 93.66666666666667 75.0 L 94.0 74.0 L 94.0 73.0 L 94.0 72.0 L 94.0 71.0 L 94.0 70.0 L 94.0 69.0 L 94.0 68.0 L 94.0 67.0 L 94.0 66.0 L 94.0 65.0 L 94.0 64.0 L 94.0 63.0 L 94.0 62.0 L 94.0 61.0 L 94.0 60.0 L 94.0 59.0 L 94.0 58.0 L 94.0 57.0 L 94.0 56.0 L 93.66666666666667 55.0 L 93.33333333333333 54.0 L 93.0 53.0 L 93.0 52.0 L 93.0 51.0 L 93.0 50.0 L 92.66666666666667 49.0 L 92.33333333333333 48.0 L 92.0 47.0 L 91.66666666666667 46.0 L 91.33333333333333 45.0 L 91.0 44.0 L 90.66666666666667 43.0 L 90.33333333333333 42.0 L 89.66666666666667 41.0 L 89.33333333333333 40.0 L 88.66666666666667 39.0 L 88.0 38.0 L 87.0 37.0 L 86.0 36.0 L 85.0 35.0 L 84.0 34.0 L 83.0 33.333333333333336 L 82.0 32.666666666666664 L 81.0 32.0 L 80.0 31.333333333333332 L 79.0 31.0 L 78.0 31.0 L 77.0 31.0 L 76.0 31.0 L 75.0 31.0 L 74.0 31.0 L 73.0 31.0 L 72.0 31.333333333333332 L 71.0 31.666666666666668 L 70.0 32.333333333333336 L 69.0 32.666666666666664 L 68.0 33.333333333333336 L 67.0 34.0 L 66.0 34.666666666666664 L 65.0 35.0 L 64.0 35.0 L 63.0 34.666666666666664 L 62.0 34.333333333333336 L 61.0 33.666666666666664 L 60.0 33.0 L 59.0 32.333333333333336 L 58.0 31.666666666666668 L 57.0 31.333333333333332 L 56.0 31.0 L 55.0 31.0 L 54.0 31.0 L 53.0 31.0 L 52.0 31.0 L 51.0 31.0 L 50.0 31.333333333333332 L 49.0 31.666666666666668 L 48.0 32.0 L 47.0 32.333333333333336 L 46.0 33.0 L 45.0 33.666666666666664 L 44.0 34.333333333333336 L 43.0 35.0 L 42.0 36.0 L 41.0 37.0 L 40.0 38.0 L 39.333333333333336 39.0 L 38.666666666666664 40.0 L 38.333333333333336 41.0 L 37.666666666666664 42.0 L 37.333333333333336 43.0 L 37.0 44.0 L 36.666666666666664 45.0 L 36.333333333333336 46.0 L 36.0 47.0 L 36.0 48.0 L 35.666666666666664 49.0 L 35.333333333333336 50.0 L 35.0 51.0 L 35.0 52.0 L 35.0 53.0 L 35.0 54.0 L 34.666666666666664 55.0 L 34.333333333333336 56.0 L 34.0 57.0 L 34.0 58.0 L 34.0 59.0 L 34.0 60.0 L 34.0 61.0 L 34.0 62.0 L 34.0 63.0 L 34.0 64.0 L 34.0 65.0 L 34.0 66.0 L 34.0 67.0 L 34.0 68.0 L 34.0 69.0 L 34.0 70.0 L 34.0 71.0 L 34.0 72.0 L 34.0 73.0 L 34.333333333333336 74.0 L 34.666666666666664 75.0 L 35.333333333333336 76.0 L 35.666666666666664 77.0 L 36.333333333333336 78.0 L 36.666666666666664 79.0 L 37.333333333333336 80.0 L 38.0 81.0 L 39.0 82.0 L 40.0 83.0 L 41.0 84.0 L 42.0 85.0 L 43.0 86.0 L 44.0 87.0 L 45.0 88.0 L 46.0 89.0 L 47.0 90.0 L 48.0 91.0 L 49.0 91.66666666666667 L 50.0 92.33333333333333 L 51.0 92.66666666666667 L 52.0 93.33333333333333 L 53.0 94.0 L 54.0 95.0 L 55.0 96.0 L 56.0 96.66666666666667 L 57.0 97.0 L 58.0 97.0 L 58.5 97.0 Z" stroke="none" fill="rgb(186,141,104)" />
<path d="M 101.5 36.5 L 101.66666666666667 37.0 L 102.33333333333333 38.0 L 102.66666666666667 39.0 L 103.0 40.0 L 103.33333333333333 41.0 L 104.0 41.666666666666664 L 104.66666666666667 41.666666666666664 L 105.0 41.0 L 105.0 40.0 L 104.66666666666667 39.0 L 104.33333333333333 38.0 L 104.0 37.0 L 104.0 36.0 L 104.0 35.0 L 103.66666666666667 34.0 L 103.0 33.0 L 102.33333333333333 32.0 L 101.66666666666667 31.0 L 101.33333333333333 30.0 L 100.66666666666667 29.0 L 100.33333333333333 28.0 L 99.66666666666667 27.0 L 99.0 26.0 L 98.33333333333333 25.0 L 97.66666666666667 24.0 L 97.0 23.0 L 96.0 22.0 L 95.0 21.0 L 94.33333333333333 20.0 L 93.66666666666667 19.0 L 93.0 18.0 L 92.0 17.333333333333332 L 91.0 16.666666666666668 L 90.0 16.0 L 89.0 15.0 L 88.0 14.0 L 87.0 13.333333333333334 L 86.0 12.666666666666666 L 85.0 12.0 L 84.0 11.333333333333334 L 83.0 10.666666666666666 L 82.0 10.333333333333334 L 81.0 9.666666666666666 L 80.0 9.333333333333334 L 79.0 8.666666666666666 L 78.0 8.333333333333334 L 77.0 8.0 L 76.0 7.666666666666667 L 75.0 7.333333333333333 L 74.0 7.0 L 73.0 7.0 L 72.0 6.666666666666667 L 71.0 6.333333333333333 L 70.0 6.0 L 69.0 6.0 L 68.0 6.0 L 67.0 6.0 L 66.0 6.0 L 65.0 6.0 L 64.0 6.0 L 63.0 6.0 L 62.0 6.0 L 61.0 6.0 L 60.0 6.0 L 59.0 6.0 L 58.0 6.333333333333333 L 57.0 6.666666666666667 L 56.0 7.0 L 55.0 7.0 L 54.0 7.333333333333333 L 53.0 7.666666666666667 L 52.0 8.0 L 51.0 8.333333333333334 L 50.0 8.666666666666666 L 49.0 9.333333333333334 L 48.0 9.666666666666666 L 47.0 10.333333333333334 L 46.0 10.666666666666666 L 45.0 11.333333333333334 L 44.0 11.666666666666666 L 43.0 12.333333333333334 L 42.0 13.0 L 41.0 14.0 L 40.0 14.666666666666666 L 39.0 15.333333333333334 L 38.0 16.0 L 37.0 17.0 L 36.0 18.0 L 35.0 19.0 L 34.0 20.0 L 33.0 21.0 L 32.333333333333336 22.0 L 31.666666666666668 23.0 L 31.0 24.0 L 30.333333333333332 25.0 L 29.666666666666668 26.0 L 29.0 27.0 L 28.333333333333332 28.0 L 27.666666666666668 29.0 L 27.333333333333332 30.0 L 26.666666666666668 31.0 L 26.333333333333332 32.0 L 25.666666666666668 33.0 L 25.0 34.0 L 24.333333333333332 35.0 L 24.0 36.0 L 24.0 37.0 L 24.0 38.0 L 23.666666666666668 39.0 L 23.333333333333332 40.0 L 23.0 41.0 L 23.0 42.0 L 23.0 43.0 L 23.333333333333332 43.666666666666664 L 24.0 43.666666666666664 L 24.666666666666668 43.0 L 25.0 42.0 L 25.333333333333332 41.0 L 25.666666666666668 40.0 L 26.0 39.0 L 26.333333333333332 38.0 L 26.666666666666668 37.0 L 27.333333333333332 36.0 L 28.0 35.666666666666664 L 29.0 35.666666666666664 L 29.666666666666668 35.666666666666664 L 30.0 35.0 L 30.0 34.0 L 30.333333333333332 33.0 L 31.0 32.0 L 31.666666666666668 31.0 L 32.0 30.0 L 32.333333333333336 29.0 L 33.0 28.0 L 33.666666666666664 27.0 L 34.0 26.0 L 34.333333333333336 25.0 L 35.0 24.0 L 36.0 23.0 L 37.0 22.0 L 38.0 21.0 L 39.0 20.333333333333332 L 40.0 19.666666666666668 L 41.0 19.333333333333332 L 42.0 18.666666666666668 L 43.0 18.333333333333332 L 44.0 17.666666666666668 L 44.666666666666664 17.0 L 45.0 16.0 L 45.333333333333336 15.0 L 46.0 14.333333333333334 L 47.0 13.666666666666666 L 48.0 13.333333333333334 L 49.0 12.666666666666666 L 50.0 12.333333333333334 L 51.0 11.666666666666666 L 52.0 11.333333333333334 L 53.0 11.0 L 54.0 10.666666666666666 L 55.0 10.333333333333334 L 56.0 10.0 L 57.0 10.0 L 58.0 9.666666666666666 L 59.0 9.333333333333334 L 60.0 9.0 L 61.0 9.0 L 62.0 9.0 L 63.0 9.0 L 64.0 9.0 L 65.0 9.0 L 66.0 9.0 L 67.0 9.0 L 68.0 9.0 L 69.0 9.333333333333334 L 70.0 9.666666666666666 L 71.0 10.0 L 72.0 10.0 L 73.0 10.0 L 74.0 10.333333333333334 L 75.0 10.666666666666666 L 76.0 11.333333333333334 L 77.0 11.666666666666666 L 78.0 12.0 L 79.0 12.333333333333334 L 80.0 13.0 L 81.0 13.666666666666666 L 82.0 14.333333333333334 L 83.0 14.666666666666666 L 84.0 15.333333333333334 L 85.0 16.0 L 86.0 17.0 L 87.0 17.666666666666668 L 88.0 18.333333333333332 L 89.0 19.0 L 90.0 20.0 L 91.0 21.0 L 92.0 22.0 L 93.0 23.0 L 93.66666666666667 24.0 L 94.33333333333333 25.0 L 95.0 26.0 L 96.0 27.0 L 96.66666666666667 28.0 L 97.33333333333333 29.0 L 98.0 30.0 L 98.66666666666667 31.0 L 99.33333333333333 32.0 L 99.66666666666667 33.0 L 100.33333333333333 34.0 L 100.66666666666667 35.0 L 101.0 35.5 Z" stroke="none" fill="rgb(100,70,59)" />
<path d="M 88.5 15.5 L 89.0 16.0 L 90.0 16.666666666666668 L 91.0 17.333333333333332 L 92.0 18.0 L 93.0 19.0 L 93.66666666666667 20.0 L 94.33333333333333 21.0 L 95.0 22.0 L 96.0 23.0 L 97.0 24.0 L 97.66666666666667 25.0 L 98.33333333333333 26.0 L 99.0 27.0 L 99.66666666666667 28.0 L 100.33333333333333 29.0 L 100.66666666666667 30.0 L 101.33333333333333 31.0 L 101.66666666666667 32.0 L 102.33333333333333 33.0 L 103.0 33.666666666666664 L 103.66666666666667 33.666666666666664 L 104.0 33.0 L 103.66666666666667 32.0 L 103.33333333333333 31.0 L 103.0 30.0 L 103.0 29.0 L 102.66666666666667 28.0 L 102.33333333333333 27.0 L 101.66666666666667 26.0 L 101.33333333333333 25.0 L 101.0 24.0 L 100.66666666666667 23.0 L 100.33333333333333 22.0 L 99.66666666666667 21.0 L 99.0 20.0 L 98.33333333333333 19.0 L 97.66666666666667 18.0 L 97.0 17.0 L 96.0 16.0 L 95.33333333333333 15.0 L 94.66666666666667 14.0 L 94.0 13.333333333333334 L 93.0 12.666666666666666 L 92.0 12.0 L 91.0 11.0 L 90.0 10.333333333333334 L 89.0 9.666666666666666 L 88.0 9.0 L 87.0 8.333333333333334 L 86.0 7.666666666666667 L 85.0 7.333333333333333 L 84.0 7.0 L 83.0 6.666666666666667 L 82.0 6.333333333333333 L 81.0 6.0 L 80.0 5.666666666666667 L 79.0 5.333333333333333 L 78.0 5.0 L 77.0 5.0 L 76.0 4.666666666666667 L 75.0 4.333333333333333 L 74.0 4.0 L 73.0 4.0 L 72.0 4.0 L 71.0 4.0 L 70.0 4.0 L 69.0 4.0 L 68.0 4.0 L 67.0 4.0 L 66.0 4.0 L 65.0 4.0 L 64.0 4.0 L 63.0 4.0 L 62.0 4.0 L 61.0 4.0 L 60.0 4.0 L 59.0 4.0 L 58.0 4.0 L 57.0 4.0 L 56.0 4.0 L 55.0 4.0 L 54.0 4.333333333333333 L 53.0 4.666666666666667 L 52.0 5.0 L 51.0 5.0 L 50.0 5.333333333333333 L 49.0 5.666666666666667 L 48.0 6.0 L 47.0 6.333333333333333 L 46.0 6.666666666666667 L 45.0 7.0 L 44.0 7.333333333333333 L 43.0 7.666666666666667 L 42.0 8.333333333333334 L 41.0 9.0 L 40.0 9.666666666666666 L 39.0 10.333333333333334 L 38.0 11.0 L 37.0 11.666666666666666 L 36.0 12.333333333333334 L 35.0 13.0 L 34.0 14.0 L 33.0 15.0 L 32.333333333333336 16.0 L 31.666666666666668 17.0 L 31.0 18.0 L 30.333333333333332 19.0 L 29.666666666666668 20.0 L 29.0 21.0 L 28.333333333333332 22.0 L 27.666666666666668 23.0 L 27.333333333333332 24.0 L 27.0 25.0 L 26.666666666666668 26.0 L 26.333333333333332 27.0 L 26.0 28.0 L 25.666666666666668 29.0 L 25.333333333333332 30.0 L 25.0 31.0 L 24.666666666666668 32.0 L 24.333333333333332 33.0 L 24.333333333333332 33.666666666666664 L 25.0 34.0 L 25.666666666666668 33.666666666666664 L 26.333333333333332 33.0 L 26.666666666666668 32.0 L 27.333333333333332 31.0 L 27.666666666666668 30.0 L 28.333333333333332 29.0 L 29.0 28.0 L 29.666666666666668 27.0 L 30.333333333333332 26.0 L 31.0 25.0 L 31.666666666666668 24.0 L 32.333333333333336 23.0 L 33.0 22.0 L 34.0 21.0 L 35.0 20.0 L 36.0 19.0 L 37.0 18.0 L 38.0 17.0 L 39.0 16.0 L 40.0 15.333333333333334 L 41.0 14.666666666666666 L 42.0 14.0 L 43.0 13.0 L 44.0 12.333333333333334 L 45.0 11.666666666666666 L 46.0 11.333333333333334 L 47.0 10.666666666666666 L 48.0 10.333333333333334 L 49.0 9.666666666666666 L 50.0 9.333333333333334 L 51.0 8.666666666666666 L 52.0 8.333333333333334 L 53.0 8.0 L 54.0 7.666666666666667 L 55.0 7.333333333333333 L 56.0 7.0 L 57.0 7.0 L 58.0 6.666666666666667 L 59.0 6.333333333333333 L 60.0 6.0 L 61.0 6.0 L 62.0 6.0 L 63.0 6.0 L 64.0 6.0 L 65.0 6.0 L 66.0 6.0 L 67.0 6.0 L 68.0 6.0 L 69.0 6.0 L 70.0 6.333333333333333 L 71.0 6.666666666666667 L 72.0 7.0 L 73.0 7.0 L 74.0 7.333333333333333 L 75.0 7.666666666666667 L 76.0 8.0 L 77.0 8.333333333333334 L 78.0 8.666666666666666 L 79.0 9.333333333333334 L 80.0 9.666666666666666 L 81.0 10.333333333333334 L 82.0 10.666666666666666 L 83.0 11.333333333333334 L 84.0 12.0 L 85.0 12.666666666666666 L 86.0 13.333333333333334 L 87.0 14.0 L 87.5 14.5 Z" stroke="none" fill="rgb(108,76,65)" />
<path d="M 95.5 124.0 L 96.0 124.0 L 97.0 124.0 L 98.0 124.0 L 99.0 124.0 L 100.0 124.0 L 101.0 124.0 L 102.0 124.0 L 103.0 124.0 L 104.0 124.0 L 104.66666666666667 123.66666666666667 L 105.0 123.0 L 105.0 122.0 L 105.0 121.0 L 104.66666666666667 120.0 L 104.33333333333333 119.0 L 103.66666666666667 118.0 L 103.33333333333333 117.0 L 102.66666666666667 116.0 L 102.0 115.0 L 101.0 114.0 L 100.0 113.0 L 99.0 112.0 L 98.0 111.0 L 97.0 110.33333333333333 L 96.0 109.66666666666667 L 95.0 109.33333333333333 L 94.0 108.66666666666667 L 93.0 108.0 L 92.0 107.33333333333333 L 91.0 107.0 L 90.0 107.33333333333333 L 89.0 108.0 L 88.0 109.0 L 87.0 110.0 L 86.0 111.0 L 85.0 112.0 L 84.0 113.0 L 83.0 114.0 L 82.0 114.66666666666667 L 81.0 115.33333333333333 L 80.0 115.66666666666667 L 79.0 116.33333333333333 L 78.0 116.66666666666667 L 77.0 117.33333333333333 L 76.0 117.66666666666667 L 75.0 118.0 L 74.0 118.0 L 73.0 118.33333333333333 L 72.0 118.66666666666667 L 71.0 119.0 L 70.0 119.0 L 69.0 119.0 L 68.0 119.0 L 67.0 119.0 L 66.0 119.0 L 65.0 119.0 L 64.0 119.0 L 63.0 119.0 L 62.0 119.0 L 61.0 118.66666666666667 L 60.0 118.33333333333333 L 59.0 118.0 L 58.0 118.0 L 57.0 118.0 L 56.0 118.0 L 55.0 117.66666666666667 L 54.0 117.33333333333333 L 53.0 117.0 L 52.0 117.0 L 51.0 116.66666666666667 L 50.0 116.33333333333333 L 49.0 115.66666666666667 L 48.0 115.33333333333333 L 47.0 114.66666666666667 L 46.0 114.33333333333333 L 45.0 113.66666666666667 L 44.0 113.0 L 43.0 112.0 L 42.0 111.0 L 41.0 110.0 L 40.0 109.0 L 39.0 108.33333333333333 L 38.0 108.0 L 37.0 108.0 L 36.0 108.33333333333333 L 35.0 108.66666666666667 L 34.0 109.33333333333333 L 33.0 110.0 L 32.0 110.66666666666667 L 31.0 111.33333333333333 L 30.0 112.0 L 29.0 113.0 L 28.0 114.0 L 27.333333333333332 115.0 L 26.666666666666668 116.0 L 26.333333333333332 117.0 L 25.666666666666668 118.0 L 25.333333333333332 119.0 L 24.666666666666668 120.0 L 24.333333333333332 121.0 L 24.0 122.0 L 24.0 123.0 L 24.333333333333332 123.66666666666667 L 25.0 124.0 L 26.0 124.0 L 27.0 124.0 L 28.0 124.0 L 29.0 124.0 L 30.0 124.0 L 31.0 124.0 L 32.0 124.0 L 33.0 124.0 L 34.0 124.0 L 35.0 124.0 L 36.0 124.0 L 37.0 124.0 L 38.0 124.0 L 39.0 124.0 L 40.0 124.0 L 41.0 124.0 L 42.0 124.0 L 43.0 124.0 L 44.0 124.0 L 45.0 124.0 L 46.0 124.0 L 47.0 124.0 L 48.0 124.0 L 49.0 124.0 L 50.0 124.0 L 51.0 124.0 L 52.0 124.0 L 53.0 124.0 L 54.0 124.0 L 55.0 124.0 L 56.0 124.0 L 57.0 124.0 L 58.0 124.0 L 59.0 124.0 L 60.0 124.0 L 61.0 124.0 L 62.0 124.0 L 63.0 124.0 L 64.0 124.0 L 65.0 124.0 L 66.0 124.0 L 67.0 124.0 L 68.0 124.0 L 69.0 124.0 L 70.0 124.0 L 71.0 124.0 L 72.0 124.0 L 73.0 124.0 L 74.0 124.0 L 75.0 124.0 L 76.0 124.0 L 77.0 124.0 L 78.0 124.0 L 79.0 124.0 L 80.0 124.0 L 81.0 124.0 L 82.0 124.0 L 83.0 124.0 L 84.0 124.0 L 85.0 124.0 L 86.0 124.0 L 87.0 124.0 L 88.0 124.0 L 89.0 124.0 L 90.0 124.0 L 91.0 124.0 L 92.0 124.0 L 93.0 124.0 L 94.0 124.0 L 94.5 124.0 Z" stroke="none" fill="rgb(33,33,33)" />
<path d="M 44.5 114.0 L 45.0 114.33333333333333 L 46.0 114.66666666666667 L 47.0 115.33333333333333 L 48.0 115.66666666666667 L 49.0 116.33333333333333 L 50.0 116.66666666666667 L 51.0 117.0 L 52.0 117.0 L 53.0 117.33333333333333 L 54.0 117.66666666666667 L 55.0 118.0 L 56.0 118.0 L 57.0 118.0 L 58.0 118.0 L 59.0 118.33333333333333 L 60.0 118.66666666666667 L 61.0 119.0 L 62.0 119.0 L 63.0 119.0 L 64.0 119.0 L 65.0 119.0 L 66.0 119.0 L 67.0 119.0 L 68.0 119.0 L 69.0 119.0 L 70.0 119.0 L 71.0 119.0 L 72.0 119.0 L 73.0 118.66666666666667 L 74.0 118.33333333333333 L 75.0 118.0 L 76.0 118.0 L 77.0 117.66666666666667 L 78.0 117.33333333333333 L 79.0 116.66666666666667 L 80.0 116.33333333333333 L 81.0 115.66666666666667 L 82.0 115.33333333333333 L 83.0 114.66666666666667 L 84.0 114.0 L 85.0 113.0 L 86.0 112.0 L 87.0 111.0 L 87.66666666666667 110.0 L 88.0 109.0 L 87.66666666666667 108.33333333333333 L 87.0 108.0 L 86.0 108.0 L 85.0 108.0 L 84.0 108.0 L 83.0 108.0 L 82.0 108.0 L 81.0 108.0 L 80.0 108.0 L 79.0 108.0 L 78.0 108.0 L 77.0 108.0 L 76.0 108.0 L 75.0 108.0 L 74.0 108.0 L 73.0 108.0 L 72.0 108.0 L 71.0 108.0 L 70.0 108.0 L 69.0 108.0 L 68.0 108.0 L 67.0 108.0 L 66.0 108.0 L 65.0 108.0 L 64.0 108.0 L 63.0 108.0 L 62.0 108.0 L 61.0 108.0 L 60.0 108.0 L 59.0 108.0 L 58.0 108.0 L 57.0 108.0 L 56.0 108.0 L 55.0 108.0 L 54.0 108.0 L 53.0 108.0 L 52.0 108.0 L 51.0 108.0 L 50.0 108.0 L 49.0 108.0 L 48.0 108.0 L 47.0 108.0 L 46.0 108.0 L 45.0 108.0 L 44.0 108.0 L 43.0 108.0 L 42.0 108.0 L 41.0 108.0 L 40.333333333333336 108.33333333333333 L 40.0 109.0 L 40.333333333333336 110.0 L 41.0 111.0 L 42.0 112.0 L 43.0 113.0 L 43.5 113.5 Z" stroke="none" fill="rgb(186,141,104)" />
<path d="M 105.0 50.5 L 105.0 50.0 L 105.0 49.0 L 105.0 48.0 L 105.0 47.0 L 105.0 46.0 L 105.0 45.0 L 105.0 44.0 L 105.0 43.0 L 104.66666666666667 42.0 L 104.0 41.0 L 103.33333333333333 40.0 L 103.0 39.0 L 102.66666666666667 38.0 L 102.33333333333333 37.0 L 101.66666666666667 36.0 L 101.33333333333333 35.0 L 100.66666666666667 34.0 L 100.33333333333333 33.0 L 99.66666666666667 32.0 L 99.33333333333333 31.0 L 98.66666666666667 30.0 L 98.0 29.0 L 97.33333333333333 28.0 L 96.66666666666667 27.0 L 96.0 26.0 L 95.0 25.0 L 94.33333333333333 24.0 L 93.66666666666667 23.0 L 93.0 22.0 L 92.0 21.0 L 91.0 20.0 L 90.0 19.0 L 89.0 18.333333333333332 L 88.0 17.666666666666668 L 87.0 17.0 L 86.0 16.0 L 85.0 15.333333333333334 L 84.0 14.666666666666666 L 83.0 14.333333333333334 L 82.0 13.666666666666666 L 81.0 13.0 L 80.0 12.333333333333334 L 79.0 12.0 L 78.0 11.666666666666666 L 77.0 11.333333333333334 L 76.0 10.666666666666666 L 75.0 10.333333333333334 L 74.0 10.0 L 73.0 10.0 L 72.0 10.0 L 71.0 9.666666666666666 L 70.0 9.333333333333334 L 69.0 9.0 L 68.0 9.0 L 67.0 9.0 L 66.0 9.0 L 65.0 9.0 L 64.0 9.0 L 63.0 9.0 L 62.0 9.0 L 61.0 9.0 L 60.0 9.0 L 59.0 9.0 L 58.0 9.333333333333334 L 57.0 9.666666666666666 L 56.0 10.0 L 55.0 10.0 L 54.0 10.333333333333334 L 53.0 10.666666666666666 L 52.0 11.0 L 51.0 11.333333333333334 L 50.0 11.666666666666666 L 49.0 12.333333333333334 L 48.0 12.666666666666666 L 47.0 13.333333333333334 L 46.0 13.666666666666666 L 45.0 14.333333333333334 L 44.333333333333336 15.0 L 44.333333333333336 16.0 L 45.0 16.666666666666668 L 46.0 17.0 L 47.0 17.0 L 48.0 17.0 L 49.0 17.0 L 50.0 17.0 L 51.0 17.0 L 52.0 17.0 L 52.666666666666664 16.666666666666668 L 52.666666666666664 16.0 L 52.666666666666664 15.0 L 53.0 14.333333333333334 L 54.0 13.666666666666666 L 55.0 13.333333333333334 L 56.0 13.0 L 57.0 13.0 L 58.0 12.666666666666666 L 59.0 12.333333333333334 L 60.0 12.0 L 61.0 12.0 L 62.0 12.0 L 63.0 12.0 L 64.0 12.0 L 65.0 12.0 L 66.0 12.0 L 67.0 12.0 L 68.0 12.0 L 69.0 12.333333333333334 L 70.0 12.666666666666666 L 71.0 13.0 L 72.0 13.0 L 73.0 13.333333333333334 L 74.0 13.666666666666666 L 75.0 14.0 L 76.0 14.333333333333334 L 77.0 14.666666666666666 L 78.0 15.333333333333334 L 79.0 15.666666666666666 L 80.0 16.333333333333332 L 81.0 16.666666666666668 L 82.0 17.333333333333332 L 83.0 18.0 L 84.0 19.0 L 85.0 19.666666666666668 L 86.0 20.333333333333332 L 87.0 21.0 L 88.0 22.0 L 89.0 23.0 L 90.0 24.0 L 91.0 25.0 L 92.0 26.0 L 92.66666666666667 27.0 L 93.33333333333333 28.0 L 94.0 29.0 L 94.66666666666667 30.0 L 95.33333333333333 31.0 L 96.0 32.0 L 96.66666666666667 33.0 L 97.33333333333333 34.0 L 97.66666666666667 35.0 L 98.33333333333333 36.0 L 98.66666666666667 37.0 L 99.33333333333333 38.0 L 99.66666666666667 39.0 L 100.33333333333333 40.0 L 100.66666666666667 41.0 L 101.0 42.0 L 101.33333333333333 43.0 L 101.66666666666667 44.0 L 102.0 45.0 L 102.33333333333333 46.0 L 102.66666666666667 47.0 L 103.0 48.0 L 103.0 49.0 L 103.33333333333333 50.0 L 104.0 50.666666666666664 L 104.5 51.0 Z" stroke="none" fill="rgb(93,63,53)" />
<path d="M 78.5 108.0 L 79.0 108.0 L 80.0 108.0 L 81.0 108.0 L 82.0 108.0 L 83.0 108.0 L 84.0 108.0 L 85.0 108.0 L 86.0 108.0 L 87.0 108.33333333333333 L 88.0 108.66666666666667 L 89.0 108.66666666666667 L 90.0 108.0 L 90.66666666666667 107.0 L 91.0 106.0 L 90.66666666666667 105.0 L 90.0 104.33333333333333 L 89.0 104.0 L 88.0 104.0 L 87.0 104.0 L 86.0 104.0 L 85.0 104.0 L 84.0 104.0 L 83.0 104.0 L 82.0 104.0 L 81.0 104.0 L 80.0 104.0 L 79.0 104.0 L 78.0 104.0 L 77.0 104.0 L 76.0 104.0 L 75.0 104.0 L 74.0 104.0 L 73.0 104.33333333333333 L 72.0 105.0 L 71.0 105.66666666666667 L 70.0 106.0 L 69.0 106.0 L 68.0 106.0 L 67.0 106.0 L 66.0 106.0 L 65.0 106.0 L 64.0 106.0 L 63.0 106.0 L 62.0 106.0 L 61.0 106.0 L 60.0 106.0 L 59.0 106.0 L 58.0 105.66666666666667 L 57.0 105.33333333333333 L 56.0 104.66666666666667 L 55.0 104.33333333333333 L 54.0 104.0 L 53.0 104.0 L 52.0 104.0 L 51.0 104.0 L 50.0 104.0 L 49.0 104.0 L 48.0 104.0 L 47.0 104.0 L 46.0 104.0 L 45.0 104.0 L 44.0 104.0 L 43.0 104.0 L 42.0 104.0 L 41.0 104.0 L 40.0 104.0 L 39.0 104.0 L 38.0 104.33333333333333 L 37.333333333333336 105.0 L 37.0 106.0 L 37.333333333333336 107.0 L 38.0 108.0 L 39.0 108.66666666666667 L 40.0 108.66666666666667 L 41.0 108.33333333333333 L 42.0 108.0 L 43.0 108.0 L 44.0 108.0 L 45.0 108.0 L 46.0 108.0 L 47.0 108.0 L 48.0 108.0 L 49.0 108.0 L 50.0 108.0 L 51.0 108.0 L 52.0 108.0 L 53.0 108.0 L 54.0 108.0 L 55.0 108.0 L 56.0 108.0 L 57.0 108.0 L 58.0 108.0 L 59.0 108.0 L 60.0 108.0 L 61.0 108.0 L 62.0 108.0 L 63.0 108.0 L 64.0 108.0 L 65.0 108.0 L 66.0 108.0 L 67.0 108.0 L 68.0 108.0 L 69.0 108.0 L 70.0 108.0 L 71.0 108.0 L 72.0 108.0 L 73.0 108.0 L 74.0 108.0 L 75.0 108.0 L 76.0 108.0 L 77.0 108.0 L 77.5 108.0 Z" stroke="none" fill="rgb(180,136,102)" />
<path d="M 24.5 80.0 L 24.666666666666668 79.66666666666667 L 25.0 79.0 L 25.0 78.0 L 25.0 77.0 L 25.0 76.0 L 25.0 75.0 L 25.0 74.0 L 25.0 73.0 L 24.666666666666668 72.0 L 24.333333333333332 71.0 L 24.0 70.0 L 23.666666666666668 69.33333333333333 L 23.0 69.0 L 22.0 69.33333333333333 L 21.0 69.66666666666667 L 20.0 70.0 L 19.0 70.0 L 18.0 70.0 L 17.0 70.33333333333333 L 16.0 70.66666666666667 L 15.0 71.0 L 14.0 71.0 L 13.0 71.33333333333333 L 12.0 71.66666666666667 L 11.0 72.0 L 10.0 72.0 L 9.0 72.33333333333333 L 8.0 72.66666666666667 L 7.0 73.0 L 6.0 73.33333333333333 L 5.0 73.66666666666667 L 4.333333333333333 74.33333333333333 L 4.0 75.0 L 4.333333333333333 76.0 L 5.0 77.0 L 5.666666666666667 78.0 L 6.333333333333333 79.0 L 7.0 80.0 L 8.0 80.66666666666667 L 9.0 80.66666666666667 L 10.0 80.33333333333333 L 11.0 80.0 L 12.0 80.0 L 13.0 80.0 L 14.0 80.0 L 15.0 80.0 L 16.0 80.0 L 17.0 80.0 L 18.0 80.0 L 19.0 80.0 L 20.0 80.0 L 21.0 80.0 L 22.0 80.0 L 23.0 80.0 L 23.5 80.0 Z" stroke="none" fill="rgb(243,0,0)" />
<path d="M 110.5 80.0 L 111.0 80.0 L 112.0 80.0 L 113.0 80.0 L 114.0 80.0 L 115.0 80.0 L 116.0 80.0 L 117.0 80.0 L 118.0 80.33333333333333 L 119.0 80.66666666666667 L 120.0 81.0 L 120.66666666666667 80.66666666666667 L 121.33333333333333 80.0 L 122.0 79.0 L 122.66666666666667 78.0 L 123.0 77.0 L 123.0 76.0 L 123.0 75.0 L 122.66666666666667 74.0 L 122.0 73.33333333333333 L 121.0 73.0 L 120.0 73.0 L 119.0 72.66666666666667 L 118.0 72.33333333333333 L 117.0 72.0 L 116.0 72.0 L 115.0 71.66666666666667 L 114.0 71.33333333333333 L 113.0 71.0 L 112.0 71.0 L 111.0 70.66666666666667 L 110.0 70.33333333333333 L 109.0 70.0 L 108.0 70.0 L 107.0 70.0 L 106.0 70.0 L 105.0 70.0 L 104.33333333333333 70.33333333333333 L 104.0 71.0 L 103.66666666666667 72.0 L 103.33333333333333 73.0 L 103.0 74.0 L 103.0 75.0 L 103.0 76.0 L 103.0 77.0 L 103.0 78.0 L 103.0 79.0 L 103.33333333333333 79.66666666666667 L 104.0 80.0 L 105.0 80.0 L 106.0 80.0 L 107.0 80.0 L 108.0 80.0 L 109.0 80.0 L 109.5 80.0 Z" stroke="none" fill="rgb(243,0,0)" />
<path d="M 21.5 88.0 L 22.0 88.0 L 23.0 88.0 L 24.0 88.0 L 25.0 88.33333333333333 L 26.0 88.66666666666667 L 26.666666666666668 88.66666666666667 L 27.0 88.0 L 27.0 87.0 L 26.666666666666668 86.0 L 26.333333333333332 85.0 L 26.0 84.0 L 26.0 83.0 L 25.666666666666668 82.0 L 25.333333333333332 81.0 L 24.666666666666668 80.33333333333333 L 24.0 80.0 L 23.0 80.0 L 22.0 80.0 L 21.0 80.0 L 20.0 80.0 L 19.0 80.0 L 18.0 80.0 L 17.0 80.0 L 16.0 80.0 L 15.0 80.0 L 14.0 80.0 L 13.0 80.0 L 12.0 80.0 L 11.0 80.0 L 10.0 80.0 L 9.0 80.33333333333333 L 8.333333333333334 81.0 L 8.333333333333334 82.0 L 8.666666666666666 83.0 L 9.333333333333334 84.0 L 10.0 85.0 L 10.666666666666666 86.0 L 11.333333333333334 87.0 L 12.0 88.0 L 13.0 88.66666666666667 L 14.0 89.0 L 15.0 88.66666666666667 L 16.0 88.33333333333333 L 17.0 88.0 L 18.0 88.0 L 19.0 88.0 L 20.0 88.0 L 20.5 88.0 Z" stroke="none" fill="rgb(236,0,0)" />
<path d="M 46.5 23.0 L 47.0 23.0 L 48.0 22.666666666666668 L 49.0 22.333333333333332 L 50.0 22.0 L 51.0 22.0 L 52.0 22.0 L 53.0 22.0 L 54.0 22.0 L 55.0 22.0 L 56.0 22.0 L 57.0 22.0 L 58.0 22.0 L 59.0 22.0 L 59.666666666666664 21.666666666666668 L 59.666666666666664 21.0 L 59.0 20.0 L 58.0 19.0 L 57.0 18.333333333333332 L 56.0 17.666666666666668 L 55.0 17.333333333333332 L 54.0 17.0 L 53.0 17.0 L 52.0 17.0 L 51.0 17.0 L 50.0 17.0 L 49.0 17.0 L 48.0 17.0 L 47.0 17.0 L 46.0 17.0 L 45.0 17.0 L 44.0 17.333333333333332 L 43.0 17.666666666666668 L 42.0 18.333333333333332 L 41.0 18.666666666666668 L 40.0 19.333333333333332 L 39.0 19.666666666666668 L 38.0 20.333333333333332 L 37.0 21.0 L 36.333333333333336 22.0 L 36.333333333333336 23.0 L 37.0 24.0 L 38.0 25.0 L 39.0 26.0 L 40.0 26.666666666666668 L 41.0 26.666666666666668 L 42.0 26.0 L 43.0 25.333333333333332 L 44.0 24.666666666666668 L 45.0 24.0 L 45.5 23.5 Z" stroke="none" fill="rgb(223,223,222)" />
<path d="M 110.5 88.5 L 111.0 88.66666666666667 L 112.0 89.0 L 113.0 88.66666666666667 L 114.0 88.0 L 115.0 87.0 L 116.0 86.0 L 117.0 85.0 L 118.0 84.0 L 119.0 83.33333333333333 L 119.66666666666667 82.66666666666667 L 120.0 82.0 L 119.66666666666667 81.0 L 119.0 80.33333333333333 L 118.0 80.0 L 117.0 80.0 L 116.0 80.0 L 115.0 80.0 L 114.0 80.0 L 113.0 80.0 L 112.0 80.0 L 111.0 80.0 L 110.0 80.0 L 109.0 80.0 L 108.0 80.0 L 107.0 80.0 L 106.0 80.0 L 105.0 80.0 L 104.0 80.0 L 103.33333333333333 80.33333333333333 L 103.0 81.0 L 102.66666666666667 82.0 L 102.33333333333333 83.0 L 102.0 84.0 L 102.0 85.0 L 102.0 86.0 L 102.0 87.0 L 102.33333333333333 87.66666666666667 L 103.0 88.0 L 104.0 88.0 L 105.0 88.0 L 106.0 88.0 L 107.0 88.0 L 108.0 88.0 L 109.0 88.0 L 109.5 88.0 Z" stroke="none" fill="rgb(236,0,0)" />
<path d="M 23.5 107.5 L 24.0 107.33333333333333 L 25.0 106.66666666666667 L 26.0 106.0 L 27.0 105.33333333333333 L 28.0 104.66666666666667 L 29.0 104.33333333333333 L 30.0 103.66666666666667 L 31.0 103.33333333333333 L 32.0 102.66666666666667 L 33.0 102.33333333333333 L 34.0 101.66666666666667 L 35.0 101.33333333333333 L 35.666666666666664 100.66666666666667 L 36.0 100.0 L 35.666666666666664 99.33333333333333 L 35.0 99.0 L 34.0 99.33333333333333 L 33.0 99.66666666666667 L 32.0 100.0 L 31.0 100.33333333333333 L 30.0 100.66666666666667 L 29.0 101.0 L 28.0 101.33333333333333 L 27.0 102.0 L 26.0 102.66666666666667 L 25.0 103.33333333333333 L 24.0 103.66666666666667 L 23.0 104.0 L 22.0 104.0 L 21.0 104.33333333333333 L 20.0 105.0 L 19.0 106.0 L 18.0 106.66666666666667 L 17.0 107.33333333333333 L 16.333333333333332 108.0 L 15.666666666666666 109.0 L 15.0 110.0 L 14.0 111.0 L 13.333333333333334 112.0 L 13.0 113.0 L 12.666666666666666 114.0 L 12.333333333333334 115.0 L 12.0 116.0 L 12.0 117.0 L 12.0 118.0 L 12.0 119.0 L 12.0 120.0 L 12.0 121.0 L 12.0 122.0 L 12.333333333333334 122.66666666666667 L 13.0 122.66666666666667 L 13.666666666666666 122.0 L 14.0 121.0 L 14.0 120.0 L 14.333333333333334 119.0 L 14.666666666666666 118.0 L 15.333333333333334 117.0 L 15.666666666666666 116.0 L 16.333333333333332 115.0 L 17.0 114.0 L 18.0 113.0 L 19.0 112.0 L 20.0 111.0 L 21.0 110.0 L 22.0 109.0 L 22.5 108.5 Z" stroke="none" fill="rgb(69,68,68)" />
<path d="M 104.5 109.5 L 105.0 110.0 L 106.0 111.0 L 107.0 112.0 L 108.0 113.0 L 109.0 114.0 L 109.66666666666667 115.0 L 110.33333333333333 116.0 L 110.66666666666667 117.0 L 111.33333333333333 118.0 L 111.66666666666667 119.0 L 112.33333333333333 120.0 L 112.66666666666667 121.0 L 113.0 122.0 L 113.0 123.0 L 113.33333333333333 123.66666666666667 L 114.0 124.0 L 115.0 124.0 L 115.66666666666667 123.66666666666667 L 116.0 123.0 L 116.0 122.0 L 116.0 121.0 L 116.0 120.0 L 116.0 119.0 L 115.66666666666667 118.0 L 115.0 117.0 L 114.33333333333333 116.0 L 113.66666666666667 115.0 L 113.0 114.0 L 112.33333333333333 113.0 L 111.66666666666667 112.0 L 111.0 111.0 L 110.0 110.0 L 109.0 109.33333333333333 L 108.0 108.66666666666667 L 107.0 108.0 L 106.0 107.0 L 105.0 106.33333333333333 L 104.0 105.66666666666667 L 103.0 105.0 L 102.0 104.0 L 101.0 103.0 L 100.0 102.33333333333333 L 99.0 102.0 L 98.0 101.66666666666667 L 97.0 101.33333333333333 L 96.0 101.0 L 95.0 101.0 L 94.0 101.0 L 93.0 101.0 L 92.33333333333333 101.33333333333333 L 92.0 102.0 L 92.33333333333333 102.66666666666667 L 93.0 103.0 L 94.0 103.33333333333333 L 95.0 103.66666666666667 L 96.0 104.33333333333333 L 97.0 104.66666666666667 L 98.0 105.33333333333333 L 99.0 105.66666666666667 L 100.0 106.33333333333333 L 101.0 107.0 L 102.0 107.66666666666667 L 103.0 108.33333333333333 L 103.5 108.5 Z" stroke="none" fill="rgb(61,61,61)" />
<path d="M 59.5 83.0 L 60.0 83.0 L 61.0 83.0 L 62.0 83.0 L 63.0 83.0 L 64.0 83.0 L 65.0 83.0 L 66.0 83.0 L 67.0 83.0 L 68.0 83.0 L 69.0 83.0 L 70.0 83.0 L 71.0 82.66666666666667 L 72.0 82.0 L 73.0 81.0 L 74.0 80.0 L 74.66666666666667 79.0 L 75.0 78.0 L 74.66666666666667 77.33333333333333 L 74.0 77.0 L 73.0 77.33333333333333 L 72.0 78.0 L 71.0 78.33333333333333 L 70.0 78.33333333333333 L 69.0 78.0 L 68.0 78.0 L 67.0 78.0 L 66.0 78.0 L 65.0 78.0 L 64.0 78.0 L 63.0 78.0 L 62.0 78.0 L 61.0 78.0 L 60.0 78.0 L 59.0 78.0 L 58.0 78.33333333333333 L 57.0 78.33333333333333 L 56.0 78.0 L 55.0 77.33333333333333 L 54.0 77.0 L 53.333333333333336 77.33333333333333 L 53.0 78.0 L 53.333333333333336 79.0 L 54.0 80.0 L 55.0 81.0 L 56.0 81.66666666666667 L 57.0 82.0 L 58.0 82.33333333333333 L 58.5 82.5 Z" stroke="none" fill="rgb(93,63,53)" />
<path d="M 110.0 96.5 L 110.33333333333333 96.0 L 111.0 95.0 L 112.0 94.0 L 113.0 93.0 L 114.0 92.0 L 114.66666666666667 91.0 L 115.33333333333333 90.0 L 116.0 89.0 L 116.66666666666667 88.0 L 117.33333333333333 87.0 L 118.0 86.0 L 118.66666666666667 85.0 L 119.0 84.0 L 118.66666666666667 83.33333333333333 L 118.0 83.33333333333333 L 117.0 84.0 L 116.0 85.0 L 115.0 86.0 L 114.0 87.0 L 113.0 88.0 L 112.0 88.66666666666667 L 111.0 89.33333333333333 L 110.0 90.0 L 109.0 91.0 L 108.0 92.0 L 107.0 93.0 L 106.0 94.0 L 105.0 95.0 L 104.0 96.0 L 103.0 97.0 L 102.0 98.0 L 101.0 98.66666666666667 L 100.0 99.33333333333333 L 99.33333333333333 100.0 L 99.0 101.0 L 99.33333333333333 102.0 L 100.0 103.0 L 101.0 103.66666666666667 L 102.0 103.66666666666667 L 103.0 103.33333333333333 L 104.0 102.66666666666667 L 105.0 102.0 L 106.0 101.0 L 107.0 100.0 L 108.0 99.0 L 109.0 98.0 L 109.5 97.5 Z" stroke="none" fill="rgb(50,45,45)" />
<path d="M 32.5 105.0 L 33.0 104.66666666666667 L 34.0 104.33333333333333 L 35.0 103.66666666666667 L 35.666666666666664 103.0 L 36.0 102.0 L 35.666666666666664 101.33333333333333 L 35.0 101.0 L 34.0 101.33333333333333 L 33.0 101.66666666666667 L 32.0 102.33333333333333 L 31.0 102.66666666666667 L 30.0 103.33333333333333 L 29.0 103.66666666666667 L 28.0 104.33333333333333 L 27.0 104.66666666666667 L 26.0 105.33333333333333 L 25.0 106.0 L 24.0 106.66666666666667 L 23.0 107.33333333333333 L 22.0 108.0 L 21.0 109.0 L 20.0 110.0 L 19.0 111.0 L 18.0 112.0 L 17.0 113.0 L 16.333333333333332 114.0 L 15.666666666666666 115.0 L 15.333333333333334 116.0 L 14.666666666666666 117.0 L 14.333333333333334 118.0 L 14.0 119.0 L 14.0 120.0 L 13.666666666666666 121.0 L 13.333333333333334 122.0 L 13.0 123.0 L 13.333333333333334 123.66666666666667 L 14.0 124.0 L 15.0 124.0 L 16.0 124.0 L 16.666666666666668 123.66666666666667 L 17.0 123.0 L 17.0 122.0 L 17.0 121.0 L 17.333333333333332 120.0 L 17.666666666666668 119.0 L 18.333333333333332 118.0 L 18.666666666666668 117.0 L 19.333333333333332 116.0 L 20.0 115.0 L 20.666666666666668 114.0 L 21.333333333333332 113.0 L 22.0 112.0 L 23.0 111.0 L 24.0 110.33333333333333 L 25.0 109.66666666666667 L 26.0 109.0 L 27.0 108.0 L 28.0 107.33333333333333 L 29.0 106.66666666666667 L 30.0 106.33333333333333 L 31.0 105.66666666666667 L 31.5 105.5 Z" stroke="none" fill="rgb(61,61,61)" />
<path d="M 95.5 107.5 L 96.0 107.66666666666667 L 97.0 108.33333333333333 L 98.0 109.0 L 99.0 110.0 L 100.0 110.66666666666667 L 101.0 110.66666666666667 L 102.0 110.66666666666667 L 103.0 111.0 L 104.0 112.0 L 105.0 113.0 L 106.0 114.0 L 106.66666666666667 115.0 L 107.33333333333333 116.0 L 107.66666666666667 117.0 L 108.33333333333333 118.0 L 108.66666666666667 119.0 L 109.33333333333333 120.0 L 109.66666666666667 121.0 L 110.0 122.0 L 110.0 123.0 L 110.33333333333333 123.66666666666667 L 111.0 124.0 L 112.0 124.0 L 112.66666666666667 123.66666666666667 L 113.0 123.0 L 113.0 122.0 L 113.0 121.0 L 112.66666666666667 120.0 L 112.33333333333333 119.0 L 111.66666666666667 118.0 L 111.33333333333333 117.0 L 110.66666666666667 116.0 L 110.33333333333333 115.0 L 109.66666666666667 114.0 L 109.0 113.0 L 108.0 112.0 L 107.0 111.0 L 106.0 110.0 L 105.0 109.0 L 104.0 108.33333333333333 L 103.0 107.66666666666667 L 102.0 107.0 L 101.0 106.33333333333333 L 100.0 105.66666666666667 L 99.0 105.33333333333333 L 98.0 104.66666666666667 L 97.0 104.33333333333333 L 96.0 103.66666666666667 L 95.0 103.33333333333333 L 94.0 103.0 L 93.0 103.0 L 92.33333333333333 103.33333333333333 L 92.0 104.0 L 92.33333333333333 105.0 L 93.0 105.66666666666667 L 94.0 106.33333333333333 L 94.5 106.5 Z" stroke="none" fill="rgb(53,53,53)" />
<path d="M 24.5 99.0 L 25.0 99.0 L 26.0 98.66666666666667 L 27.0 98.33333333333333 L 28.0 98.0 L 28.666666666666668 97.66666666666667 L 29.0 97.0 L 28.666666666666668 96.0 L 28.333333333333332 95.0 L 27.666666666666668 94.0 L 27.333333333333332 93.0 L 27.0 92.0 L 27.0 91.0 L 27.0 90.0 L 26.666666666666668 89.0 L 26.0 88.33333333333333 L 25.0 88.0 L 24.0 88.0 L 23.0 88.0 L 22.0 88.0 L 21.0 88.0 L 20.0 88.0 L 19.0 88.0 L 18.0 88.0 L 17.0 88.0 L 16.0 88.0 L 15.333333333333334 88.33333333333333 L 15.0 89.0 L 15.333333333333334 90.0 L 16.0 91.0 L 17.0 92.0 L 18.0 93.0 L 19.0 94.0 L 20.0 95.0 L 21.0 96.0 L 22.0 97.0 L 23.0 98.0 L 23.5 98.5 Z" stroke="none" fill="rgb(221,0,0)" />
<path d="M 62.5 102.0 L 63.0 102.0 L 64.0 102.0 L 65.0 102.0 L 66.0 102.0 L 67.0 102.0 L 68.0 102.0 L 69.0 102.0 L 70.0 102.0 L 71.0 102.0 L 72.0 102.33333333333333 L 72.66666666666667 103.0 L 73.33333333333333 103.66666666666667 L 74.0 104.0 L 74.66666666666667 103.66666666666667 L 75.33333333333333 103.0 L 75.66666666666667 102.0 L 76.0 101.0 L 75.66666666666667 100.0 L 75.0 99.33333333333333 L 74.0 99.0 L 73.0 99.0 L 72.0 99.0 L 71.0 99.0 L 70.0 99.0 L 69.0 99.0 L 68.0 99.0 L 67.0 99.0 L 66.0 99.0 L 65.0 99.0 L 64.0 99.0 L 63.0 99.0 L 62.0 99.0 L 61.0 99.0 L 60.0 99.33333333333333 L 59.0 99.66666666666667 L 58.0 100.0 L 57.0 100.0 L 56.0 100.0 L 55.0 100.0 L 54.0 100.0 L 53.0 100.0 L 52.333333333333336 100.33333333333333 L 52.0 101.0 L 52.333333333333336 102.0 L 53.0 102.66666666666667 L 54.0 102.66666666666667 L 55.0 102.33333333333333 L 56.0 102.0 L 57.0 102.0 L 58.0 102.0 L 59.0 102.0 L 60.0 102.0 L 61.0 102.0 L 61.5 102.0 Z" stroke="none" fill="rgb(33,33,33)" />
<path d="M 24.5 113.5 L 25.0 113.0 L 26.0 112.0 L 27.0 111.0 L 28.0 110.0 L 29.0 109.33333333333333 L 30.0 108.66666666666667 L 31.0 108.0 L 32.0 107.33333333333333 L 33.0 106.66666666666667 L 34.0 106.33333333333333 L 35.0 105.66666666666667 L 36.0 105.33333333333333 L 36.666666666666664 104.66666666666667 L 36.666666666666664 104.0 L 36.0 103.33333333333333 L 35.0 103.33333333333333 L 34.0 103.66666666666667 L 33.0 104.33333333333333 L 32.0 104.66666666666667 L 31.0 105.33333333333333 L 30.0 105.66666666666667 L 29.0 106.33333333333333 L 28.0 106.66666666666667 L 27.0 107.33333333333333 L 26.0 108.0 L 25.0 109.0 L 24.0 109.66666666666667 L 23.0 110.33333333333333 L 22.0 111.0 L 21.333333333333332 112.0 L 20.666666666666668 113.0 L 20.0 114.0 L 19.333333333333332 115.0 L 18.666666666666668 116.0 L 18.333333333333332 117.0 L 17.666666666666668 118.0 L 17.333333333333332 119.0 L 17.0 120.0 L 17.0 121.0 L 17.0 122.0 L 17.0 123.0 L 17.333333333333332 123.66666666666667 L 18.0 124.0 L 18.666666666666668 123.66666666666667 L 19.333333333333332 123.0 L 19.666666666666668 122.0 L 20.0 121.0 L 20.333333333333332 120.0 L 20.666666666666668 119.0 L 21.333333333333332 118.0 L 21.666666666666668 117.0 L 22.333333333333332 116.0 L 23.0 115.0 L 23.5 114.5 Z" stroke="none" fill="rgb(53,53,53)" />
<path d="M 24.5 104.0 L 25.0 103.66666666666667 L 26.0 103.33333333333333 L 27.0 102.66666666666667 L 27.666666666666668 102.0 L 27.666666666666668 101.0 L 27.0 100.0 L 26.0 99.33333333333333 L 25.0 98.66666666666667 L 24.0 98.0 L 23.0 97.0 L 22.0 96.0 L 21.0 95.0 L 20.0 94.0 L 19.0 93.0 L 18.0 92.0 L 17.0 91.0 L 16.0 90.0 L 15.0 89.33333333333333 L 14.0 89.0 L 13.0 89.0 L 12.333333333333334 89.33333333333333 L 12.0 90.0 L 12.333333333333334 91.0 L 13.0 92.0 L 13.666666666666666 93.0 L 14.333333333333334 94.0 L 15.0 95.0 L 16.0 96.0 L 17.0 97.0 L 18.0 98.0 L 18.666666666666668 99.0 L 19.333333333333332 100.0 L 20.0 101.0 L 21.0 102.0 L 22.0 103.0 L 23.0 103.66666666666667 L 23.5 104.0 Z" stroke="none" fill="rgb(50,45,45)" />
<path d="M 45.5 104.0 L 46.0 104.0 L 47.0 104.0 L 48.0 104.0 L 49.0 104.0 L 50.0 104.0 L 51.0 104.0 L 52.0 104.0 L 53.0 104.0 L 53.666666666666664 103.66666666666667 L 53.666666666666664 103.0 L 53.0 102.0 L 52.0 101.0 L 51.0 100.0 L 50.0 99.33333333333333 L 49.0 99.0 L 48.0 99.0 L 47.0 99.0 L 46.0 99.0 L 45.0 99.0 L 44.0 99.0 L 43.0 99.0 L 42.0 99.0 L 41.0 99.0 L 40.0 99.0 L 39.0 99.0 L 38.0 99.0 L 37.0 99.33333333333333 L 36.333333333333336 100.0 L 36.0 101.0 L 36.0 102.0 L 36.0 103.0 L 36.333333333333336 104.0 L 37.0 104.66666666666667 L 38.0 104.66666666666667 L 39.0 104.33333333333333 L 40.0 104.0 L 41.0 104.0 L 42.0 104.0 L 43.0 104.0 L 44.0 104.0 L 44.5 104.0 Z" stroke="none" fill="rgb(172,130,100)" />
<path d="M 78.5 104.0 L 79.0 104.0 L 80.0 104.0 L 81.0 104.0 L 82.0 104.0 L 83.0 104.0 L 84.0 104.0 L 85.0 104.0 L 86.0 104.0 L 87.0 104.0 L 88.0 104.0 L 89.0 104.33333333333333 L 90.0 104.66666666666667 L 91.0 105.0 L 91.66666666666667 104.66666666666667 L 92.0 104.0 L 92.0 103.0 L 92.0 102.0 L 92.0 101.0 L 91.66666666666667 100.0 L 91.0 99.33333333333333 L 90.0 99.0 L 89.0 99.0 L 88.0 99.0 L 87.0 99.0 L 86.0 99.0 L 85.0 99.0 L 84.0 99.0 L 83.0 99.0 L 82.0 99.0 L 81.0 99.0 L 80.0 99.0 L 79.0 99.0 L 78.0 99.33333333333333 L 77.0 100.0 L 76.0 101.0 L 75.33333333333333 102.0 L 75.0 103.0 L 75.33333333333333 103.66666666666667 L 76.0 104.0 L 77.0 104.0 L 77.5 104.0 Z" stroke="none" fill="rgb(172,130,100)" />
<path d="M 95.5 110.0 L 96.0 110.33333333333333 L 97.0 111.0 L 98.0 112.0 L 99.0 113.0 L 100.0 114.0 L 101.0 115.0 L 102.0 116.0 L 102.66666666666667 117.0 L 103.33333333333333 118.0 L 103.66666666666667 119.0 L 104.33333333333333 120.0 L 104.66666666666667 121.0 L 105.0 122.0 L 105.0 123.0 L 105.33333333333333 123.66666666666667 L 106.0 124.0 L 107.0 124.0 L 107.66666666666667 123.66666666666667 L 108.0 123.0 L 108.0 122.0 L 108.0 121.0 L 107.66666666666667 120.0 L 107.33333333333333 119.0 L 106.66666666666667 118.0 L 106.33333333333333 117.0 L 105.66666666666667 116.0 L 105.0 115.0 L 104.33333333333333 114.0 L 103.66666666666667 113.0 L 103.0 112.33333333333333 L 102.0 111.66666666666667 L 101.0 111.0 L 100.0 110.0 L 99.0 109.0 L 98.0 108.33333333333333 L 97.0 107.66666666666667 L 96.0 107.0 L 95.0 106.33333333333333 L 94.0 105.66666666666667 L 93.0 105.33333333333333 L 92.0 105.0 L 91.33333333333333 105.33333333333333 L 91.0 106.0 L 91.33333333333333 107.0 L 92.0 108.0 L 93.0 108.66666666666667 L 94.0 109.33333333333333 L 94.5 109.5 Z" stroke="none" fill="rgb(42,40,41)" />
<path d="M 62.5 106.0 L 63.0 106.0 L 64.0 106.0 L 65.0 106.0 L 66.0 106.0 L 67.0 106.0 L 68.0 106.0 L 69.0 106.0 L 70.0 106.0 L 71.0 106.0 L 72.0 105.66666666666667 L 72.66666666666667 105.0 L 73.0 104.0 L 73.0 103.0 L 72.66666666666667 102.33333333333333 L 72.0 102.0 L 71.0 102.0 L 70.0 102.0 L 69.0 102.0 L 68.0 102.0 L 67.0 102.0 L 66.0 102.0 L 65.0 102.0 L 64.0 102.0 L 63.0 102.0 L 62.0 102.0 L 61.0 102.0 L 60.0 102.0 L 59.0 102.0 L 58.0 102.0 L 57.0 102.0 L 56.0 102.0 L 55.0 102.0 L 54.333333333333336 102.33333333333333 L 54.0 103.0 L 54.333333333333336 104.0 L 55.0 104.66666666666667 L 56.0 105.33333333333333 L 57.0 105.66666666666667 L 58.0 106.0 L 59.0 106.0 L 60.0 106.0 L 61.0 106.0 L 61.5 106.0 Z" stroke="none" fill="rgb(23,20,20)" />
<path d="M 81.5 64.0 L 82.0 64.0 L 83.0 63.666666666666664 L 84.0 63.0 L 84.66666666666667 62.0 L 85.0 61.0 L 85.0 60.0 L 85.0 59.0 L 85.0 58.0 L 84.66666666666667 57.0 L 84.0 56.0 L 83.0 55.0 L 82.0 54.333333333333336 L 81.0 54.0 L 80.0 54.0 L 79.0 54.333333333333336 L 78.0 54.666666666666664 L 77.0 55.333333333333336 L 76.33333333333333 56.0 L 76.0 57.0 L 76.0 58.0 L 76.0 59.0 L 76.0 60.0 L 76.0 61.0 L 76.33333333333333 62.0 L 77.0 63.0 L 78.0 63.666666666666664 L 79.0 64.0 L 80.0 64.0 L 80.5 64.0 Z" stroke="none" fill="rgb(73,53,46)" />
<path d="M 104.5 96.5 L 105.0 96.0 L 106.0 95.0 L 107.0 94.0 L 108.0 93.0 L 109.0 92.0 L 110.0 91.0 L 110.66666666666667 90.0 L 111.0 89.0 L 110.66666666666667 88.33333333333333 L 110.0 88.0 L 109.0 88.0 L 108.0 88.0 L 107.0 88.0 L 106.0 88.0 L 105.0 88.0 L 104.0 88.0 L 103.0 88.0 L 102.0 88.33333333333333 L 101.33333333333333 89.0 L 101.0 90.0 L 100.66666666666667 91.0 L 100.33333333333333 92.0 L 100.0 93.0 L 100.0 94.0 L 100.0 95.0 L 100.0 96.0 L 100.0 97.0 L 100.33333333333333 98.0 L 101.0 98.66666666666667 L 102.0 98.66666666666667 L 103.0 98.0 L 103.5 97.5 Z" stroke="none" fill="rgb(221,0,0)" />
<path d="M 52.0 61.5 L 52.0 61.0 L 52.0 60.0 L 52.0 59.0 L 52.0 58.0 L 52.0 57.0 L 51.666666666666664 56.0 L 51.0 55.0 L 50.0 54.333333333333336 L 49.0 54.0 L 48.0 54.0 L 47.0 54.0 L 46.0 54.333333333333336 L 45.0 55.0 L 44.0 56.0 L 43.333333333333336 57.0 L 43.0 58.0 L 43.0 59.0 L 43.0 60.0 L 43.333333333333336 61.0 L 44.0 62.0 L 45.0 63.0 L 46.0 63.666666666666664 L 47.0 64.0 L 48.0 64.0 L 49.0 64.0 L 50.0 63.666666666666664 L 51.0 63.0 L 51.5 62.5 Z" stroke="none" fill="rgb(73,53,46)" />
<path d="M 26.0 118.5 L 26.333333333333332 118.0 L 26.666666666666668 117.0 L 27.333333333333332 116.0 L 28.0 115.0 L 29.0 114.0 L 30.0 113.0 L 31.0 112.0 L 32.0 111.33333333333333 L 33.0 110.66666666666667 L 34.0 110.0 L 35.0 109.33333333333333 L 36.0 108.66666666666667 L 37.0 108.33333333333333 L 37.666666666666664 107.66666666666667 L 37.666666666666664 107.0 L 37.0 106.33333333333333 L 36.0 106.33333333333333 L 35.0 106.66666666666667 L 34.0 107.33333333333333 L 33.0 107.66666666666667 L 32.0 108.33333333333333 L 31.0 109.0 L 30.0 109.66666666666667 L 29.0 110.33333333333333 L 28.0 111.0 L 27.0 112.0 L 26.0 113.0 L 25.0 114.0 L 24.333333333333332 115.0 L 23.666666666666668 116.0 L 23.333333333333332 117.0 L 22.666666666666668 118.0 L 22.333333333333332 119.0 L 22.0 120.0 L 21.666666666666668 121.0 L 21.333333333333332 122.0 L 21.0 123.0 L 21.333333333333332 123.66666666666667 L 22.0 124.0 L 23.0 124.0 L 23.666666666666668 123.66666666666667 L 24.0 123.0 L 24.333333333333332 122.0 L 24.666666666666668 121.0 L 25.333333333333332 120.0 L 25.5 119.5 Z" stroke="none" fill="rgb(42,40,41)" />
<path d="M 82.5 51.0 L 83.0 51.0 L 84.0 51.333333333333336 L 85.0 51.666666666666664 L 86.0 52.0 L 86.66666666666667 51.666666666666664 L 87.0 51.0 L 87.0 50.0 L 86.66666666666667 49.0 L 86.0 48.0 L 85.0 47.333333333333336 L 84.0 47.0 L 83.0 47.0 L 82.0 47.0 L 81.0 47.0 L 80.0 47.0 L 79.0 47.0 L 78.0 47.0 L 77.0 47.333333333333336 L 76.0 47.666666666666664 L 75.0 48.333333333333336 L 74.0 49.0 L 73.33333333333333 50.0 L 73.33333333333333 51.0 L 74.0 51.666666666666664 L 75.0 52.0 L 76.0 52.0 L 77.0 52.0 L 78.0 51.666666666666664 L 79.0 51.333333333333336 L 80.0 51.0 L 81.0 51.0 L 81.5 51.0 Z" stroke="none" fill="rgb(93,63,53)" />
<path d="M 24.0 116.5 L 24.333333333333332 116.0 L 25.0 115.0 L 26.0 114.0 L 27.0 113.0 L 28.0 112.0 L 29.0 111.0 L 30.0 110.33333333333333 L 31.0 109.66666666666667 L 32.0 109.0 L 33.0 108.33333333333333 L 34.0 107.66666666666667 L 35.0 107.33333333333333 L 36.0 106.66666666666667 L 36.666666666666664 106.0 L 36.666666666666664 105.33333333333333 L 36.0 105.0 L 35.0 105.33333333333333 L 34.0 105.66666666666667 L 33.0 106.33333333333333 L 32.0 106.66666666666667 L 31.0 107.33333333333333 L 30.0 108.0 L 29.0 108.66666666666667 L 28.0 109.33333333333333 L 27.0 110.0 L 26.0 111.0 L 25.0 112.0 L 24.0 113.0 L 23.0 114.0 L 22.333333333333332 115.0 L 21.666666666666668 116.0 L 21.333333333333332 117.0 L 20.666666666666668 118.0 L 20.333333333333332 119.0 L 20.0 120.0 L 19.666666666666668 121.0 L 19.333333333333332 122.0 L 19.0 123.0 L 19.333333333333332 123.66666666666667 L 20.0 124.0 L 20.666666666666668 123.66666666666667 L 21.333333333333332 123.0 L 21.666666666666668 122.0 L 22.0 121.0 L 22.333333333333332 120.0 L 22.666666666666668 119.0 L 23.333333333333332 118.0 L 23.5 117.5 Z" stroke="none" fill="rgb(50,45,45)" />
<path d="M 24.5 52.0 L 24.666666666666668 51.666666666666664 L 25.0 51.0 L 25.0 50.0 L 25.333333333333332 49.0 L 25.666666666666668 48.0 L 26.0 47.0 L 26.0 46.0 L 26.333333333333332 45.0 L 27.0 44.333333333333336 L 28.0 44.0 L 28.666666666666668 43.666666666666664 L 29.0 43.0 L 29.0 42.0 L 29.0 41.0 L 29.0 40.0 L 29.0 39.0 L 29.333333333333332 38.0 L 29.666666666666668 37.0 L 29.666666666666668 36.0 L 29.0 35.333333333333336 L 28.0 35.0 L 27.333333333333332 35.333333333333336 L 26.666666666666668 36.0 L 26.333333333333332 37.0 L 26.0 38.0 L 25.666666666666668 39.0 L 25.333333333333332 40.0 L 25.0 41.0 L 24.666666666666668 42.0 L 24.0 43.0 L 23.333333333333332 44.0 L 23.0 45.0 L 23.0 46.0 L 23.0 47.0 L 23.0 48.0 L 23.0 49.0 L 23.0 50.0 L 23.0 51.0 L 23.333333333333332 51.666666666666664 L 23.5 52.0 Z" stroke="none" fill="rgb(93,63,53)" />
<path d="M 104.5 106.5 L 105.0 107.0 L 106.0 108.0 L 107.0 108.66666666666667 L 108.0 109.33333333333333 L 109.0 110.0 L 110.0 111.0 L 111.0 112.0 L 111.66666666666667 113.0 L 112.33333333333333 114.0 L 113.0 115.0 L 113.66666666666667 116.0 L 114.33333333333333 117.0 L 115.0 117.66666666666667 L 115.66666666666667 117.66666666666667 L 116.0 117.0 L 116.0 116.0 L 115.66666666666667 115.0 L 115.33333333333333 114.0 L 114.66666666666667 113.0 L 114.33333333333333 112.0 L 113.66666666666667 111.0 L 113.0 110.0 L 112.0 109.0 L 111.0 108.0 L 110.0 107.0 L 109.0 106.33333333333333 L 108.0 105.66666666666667 L 107.0 105.0 L 106.0 104.33333333333333 L 105.0 103.66666666666667 L 104.0 103.33333333333333 L 103.0 103.0 L 102.33333333333333 103.33333333333333 L 102.0 104.0 L 102.33333333333333 105.0 L 103.0 105.66666666666667 L 103.5 106.0 Z" stroke="none" fill="rgb(69,68,68)" />
<path d="M 49.5 51.0 L 50.0 51.0 L 51.0 51.333333333333336 L 52.0 51.666666666666664 L 53.0 52.0 L 54.0 51.666666666666664 L 54.666666666666664 51.0 L 54.666666666666664 50.0 L 54.0 49.0 L 53.0 48.0 L 52.0 47.333333333333336 L 51.0 47.0 L 50.0 47.0 L 49.0 47.0 L 48.0 47.0 L 47.0 47.0 L 46.0 47.0 L 45.0 47.333333333333336 L 44.0 47.666666666666664 L 43.0 48.0 L 42.0 48.333333333333336 L 41.333333333333336 49.0 L 41.0 50.0 L 41.333333333333336 50.666666666666664 L 42.0 51.0 L 43.0 51.0 L 44.0 51.0 L 45.0 51.0 L 46.0 51.0 L 47.0 51.0 L 48.0 51.0 L 48.5 51.0 Z" stroke="none" fill="rgb(93,63,53)" />
<path d="M 107.5 120.5 L 107.66666666666667 121.0 L 108.0 122.0 L 108.0 123.0 L 108.33333333333333 123.66666666666667 L 109.0 124.0 L 109.66666666666667 123.66666666666667 L 110.0 123.0 L 110.0 122.0 L 110.0 121.0 L 109.66666666666667 120.0 L 109.33333333333333 119.0 L 108.66666666666667 118.0 L 108.33333333333333 117.0 L 107.66666666666667 116.0 L 107.33333333333333 115.0 L 106.66666666666667 114.0 L 106.0 113.0 L 105.0 112.0 L 104.0 111.0 L 103.0 110.33333333333333 L 102.0 110.0 L 101.33333333333333 110.33333333333333 L 101.0 111.0 L 101.33333333333333 111.66666666666667 L 102.0 112.33333333333333 L 103.0 113.0 L 103.66666666666667 114.0 L 104.33333333333333 115.0 L 105.0 116.0 L 105.66666666666667 117.0 L 106.33333333333333 118.0 L 106.66666666666667 119.0 L 107.0 119.5 Z" stroke="none" fill="rgb(50,45,45)" />
<path d="M 33.5 100.0 L 33.666666666666664 99.66666666666667 L 34.0 99.0 L 33.666666666666664 98.0 L 33.0 97.0 L 32.333333333333336 96.0 L 31.666666666666668 95.0 L 31.333333333333332 94.0 L 30.666666666666668 93.0 L 30.333333333333332 92.0 L 29.666666666666668 91.0 L 29.333333333333332 90.0 L 28.666666666666668 89.33333333333333 L 28.0 89.0 L 27.333333333333332 89.33333333333333 L 27.0 90.0 L 27.0 91.0 L 27.0 92.0 L 27.0 93.0 L 27.333333333333332 94.0 L 27.666666666666668 95.0 L 28.333333333333332 96.0 L 28.666666666666668 97.0 L 29.333333333333332 97.66666666666667 L 30.0 98.33333333333333 L 30.666666666666668 99.0 L 31.333333333333332 99.66666666666667 L 32.0 100.0 L 32.5 100.0 Z" stroke="none" fill="rgb(93,63,53)" />
<path d="M 98.5 102.0 L 98.66666666666667 101.66666666666667 L 99.33333333333333 101.0 L 100.0 100.0 L 100.66666666666667 99.0 L 100.66666666666667 98.0 L 100.33333333333333 97.0 L 100.0 96.0 L 100.0 95.0 L 100.0 94.0 L 100.0 93.0 L 99.66666666666667 92.33333333333333 L 99.0 92.0 L 98.33333333333333 92.33333333333333 L 97.66666666666667 93.0 L 97.33333333333333 94.0 L 96.66666666666667 95.0 L 96.33333333333333 96.0 L 95.66666666666667 97.0 L 95.33333333333333 98.0 L 95.0 99.0 L 95.0 100.0 L 95.33333333333333 100.66666666666667 L 96.0 101.33333333333333 L 97.0 101.66666666666667 L 97.5 102.0 Z" stroke="none" fill="rgb(93,63,53)" />
<path d="M 59.5 100.0 L 59.666666666666664 99.66666666666667 L 60.0 99.0 L 59.666666666666664 98.0 L 59.0 97.33333333333333 L 58.0 97.0 L 57.0 96.66666666666667 L 56.0 96.33333333333333 L 55.0 96.0 L 54.0 96.0 L 53.0 96.0 L 52.0 96.0 L 51.0 96.0 L 50.333333333333336 96.33333333333333 L 50.0 97.0 L 50.0 98.0 L 50.333333333333336 99.0 L 50.666666666666664 100.0 L 51.333333333333336 100.66666666666667 L 52.0 100.66666666666667 L 53.0 100.33333333333333 L 54.0 100.0 L 55.0 100.0 L 56.0 100.0 L 57.0 100.0 L 58.0 100.0 L 58.5 100.0 Z" stroke="none" fill="rgb(50,45,45)" />
<path d="M 61.5 72.0 L 62.0 72.0 L 63.0 72.0 L 64.0 72.0 L 65.0 72.0 L 66.0 72.0 L 67.0 71.66666666666667 L 67.66666666666667 71.0 L 68.0 70.0 L 68.0 69.0 L 67.66666666666667 68.33333333333333 L 67.0 68.0 L 66.0 68.0 L 65.0 68.0 L 64.0 68.0 L 63.0 68.0 L 62.0 68.0 L 61.0 68.0 L 60.333333333333336 68.33333333333333 L 60.0 69.0 L 60.0 70.0 L 60.333333333333336 71.0 L 60.5 71.5 Z" stroke="none" fill="rgb(148,107,82)" />
<path d="M 66.5 99.0 L 67.0 99.0 L 68.0 99.0 L 68.66666666666667 98.66666666666667 L 69.0 98.0 L 69.0 97.0 L 68.66666666666667 96.33333333333333 L 68.0 96.0 L 67.0 96.0 L 66.0 96.0 L 65.0 96.0 L 64.0 96.0 L 63.0 96.0 L 62.0 96.0 L 61.0 96.0 L 60.0 96.0 L 59.333333333333336 96.33333333333333 L 59.0 97.0 L 59.333333333333336 98.0 L 60.0 98.66666666666667 L 61.0 99.0 L 62.0 99.0 L 63.0 99.0 L 64.0 99.0 L 65.0 99.0 L 65.5 99.0 Z" stroke="none" fill="rgb(164,122,94)" />
<path d="M 72.5 99.0 L 73.0 99.0 L 74.0 99.33333333333333 L 75.0 100.0 L 76.0 100.66666666666667 L 77.0 100.66666666666667 L 77.66666666666667 100.0 L 78.0 99.0 L 78.0 98.0 L 77.66666666666667 97.0 L 77.0 96.33333333333333 L 76.0 96.0 L 75.0 96.0 L 74.0 96.0 L 73.0 96.33333333333333 L 72.0 96.66666666666667 L 71.0 97.0 L 70.0 97.0 L 69.33333333333333 97.33333333333333 L 69.0 98.0 L 69.33333333333333 98.66666666666667 L 70.0 99.0 L 71.0 99.0 L 71.5 99.0 Z" stroke="none" fill="rgb(50,45,45)" />
<path d="M 35.5 28.0 L 36.0 28.333333333333332 L 37.0 28.666666666666668 L 38.0 29.0 L 39.0 28.666666666666668 L 39.666666666666664 28.0 L 40.0 27.0 L 39.666666666666664 26.0 L 39.0 25.0 L 38.0 24.0 L 37.0 23.333333333333332 L 36.0 23.0 L 35.0 23.333333333333332 L 34.333333333333336 24.0 L 34.0 25.0 L 34.0 26.0 L 34.333333333333336 27.0 L 34.5 27.5 Z" stroke="none" fill="rgb(202,197,196)" />
<path d="M 31.5 36.0 L 32.0 36.333333333333336 L 33.0 36.666666666666664 L 34.0 36.666666666666664 L 34.666666666666664 36.0 L 35.333333333333336 35.0 L 35.666666666666664 34.0 L 35.666666666666664 33.0 L 35.0 32.333333333333336 L 34.0 31.666666666666668 L 33.0 31.333333333333332 L 32.0 31.0 L 31.0 31.333333333333332 L 30.333333333333332 32.0 L 30.0 33.0 L 30.0 34.0 L 30.0 35.0 L 30.333333333333332 35.666666666666664 L 30.5 36.0 Z" stroke="none" fill="rgb(157,144,139)" />
<path d="M 37.0 31.5 L 37.333333333333336 31.0 L 37.666666666666664 30.0 L 37.666666666666664 29.0 L 37.0 28.333333333333332 L 36.0 27.666666666666668 L 35.0 27.333333333333332 L 34.0 27.0 L 33.0 27.333333333333332 L 32.333333333333336 28.0 L 32.0 29.0 L 32.0 30.0 L 32.333333333333336 31.0 L 33.0 31.666666666666668 L 34.0 32.333333333333336 L 35.0 32.666666666666664 L 36.0 32.666666666666664 L 36.5 32.5 Z" stroke="none" fill="rgb(183,173,169)" />
<path d="M 11.5 89.0 L 12.0 89.0 L 12.666666666666666 88.66666666666667 L 12.666666666666666 88.0 L 12.0 87.0 L 11.333333333333334 86.0 L 10.666666666666666 85.0 L 10.0 84.0 L 9.333333333333334 83.0 L 8.666666666666666 82.0 L 8.333333333333334 81.0 L 7.666666666666667 80.0 L 7.0 79.33333333333333 L 6.333333333333333 79.33333333333333 L 6.0 80.0 L 6.333333333333333 81.0 L 6.666666666666667 82.0 L 7.333333333333333 83.0 L 7.666666666666667 84.0 L 8.333333333333334 85.0 L 9.0 86.0 L 9.666666666666666 87.0 L 10.333333333333334 88.0 L 10.5 88.5 Z" stroke="none" fill="rgb(0,0,0)" />
<path d="M 29.5 40.0 L 30.0 40.333333333333336 L 31.0 40.666666666666664 L 32.0 41.0 L 32.666666666666664 40.666666666666664 L 33.333333333333336 40.0 L 33.666666666666664 39.0 L 34.0 38.0 L 33.666666666666664 37.0 L 33.0 36.333333333333336 L 32.0 36.0 L 31.0 36.0 L 30.0 36.333333333333336 L 29.333333333333332 37.0 L 29.0 38.0 L 29.0 39.0 L 29.0 39.5 Z" stroke="none" fill="rgb(137,119,113)" />
<path d="M 81.5 99.0 L 82.0 99.0 L 83.0 99.0 L 84.0 99.0 L 85.0 99.0 L 86.0 99.0 L 86.66666666666667 98.66666666666667 L 86.66666666666667 98.0 L 86.0 97.33333333333333 L 85.0 97.0 L 84.0 97.0 L 83.0 97.0 L 82.0 97.0 L 81.0 97.0 L 80.0 97.0 L 79.0 97.0 L 78.33333333333333 97.33333333333333 L 78.0 98.0 L 78.33333333333333 98.66666666666667 L 79.0 99.0 L 80.0 99.0 L 80.5 99.0 Z" stroke="none" fill="rgb(164,122,94)" />
<path d="M 31.5 45.0 L 31.666666666666668 44.666666666666664 L 32.0 44.0 L 32.0 43.0 L 32.0 42.0 L 31.666666666666668 41.0 L 31.0 40.333333333333336 L 30.0 40.0 L 29.333333333333332 40.333333333333336 L 29.0 41.0 L 29.0 42.0 L 29.0 43.0 L 29.333333333333332 44.0 L 30.0 44.666666666666664 L 30.5 45.0 Z" stroke="none" fill="rgb(116,95,86)" />
<path d="M 49.5 99.0 L 49.666666666666664 98.66666666666667 L 50.0 98.0 L 49.666666666666664 97.33333333333333 L 49.0 97.0 L 48.0 97.0 L 47.0 97.0 L 46.0 97.0 L 45.333333333333336 97.33333333333333 L 45.0 98.0 L 45.333333333333336 98.66666666666667 L 46.0 99.0 L 47.0 99.0 L 48.0 99.0 L 48.5 99.0 Z" stroke="none" fill="rgb(164,122,94)" />
<path d="M 27.5 101.0 L 28.0 101.0 L 28.666666666666668 100.66666666666667 L 29.0 100.0 L 29.0 99.0 L 28.666666666666668 98.33333333333333 L 28.0 98.0 L 27.0 98.0 L 26.333333333333332 98.33333333333333 L 26.0 99.0 L 26.333333333333332 100.0 L 26.5 100.5 Z" stroke="none" fill="rgb(199,9,8)" />
<path d="M 30.5 47.0 L 30.666666666666668 46.666666666666664 L 31.0 46.0 L 30.666666666666668 45.0 L 30.0 44.333333333333336 L 29.0 44.0 L 28.333333333333332 44.333333333333336 L 28.333333333333332 45.0 L 28.666666666666668 46.0 L 29.333333333333332 46.666666666666664 L 29.5 47.0 Z" stroke="none" fill="rgb(108,76,65)" />
<path d="M 30.5 101.0 L 30.666666666666668 100.66666666666667 L 31.0 100.0 L 31.0 99.0 L 30.666666666666668 98.33333333333333 L 30.0 98.0 L 29.333333333333332 98.33333333333333 L 29.0 99.0 L 29.0 100.0 L 29.333333333333332 100.66666666666667 L 29.5 101.0 Z" stroke="none" fill="rgb(100,70,59)" />
<path d="M 124.0 76.5 L 124.0 76.0 L 124.0 75.0 L 123.66666666666667 74.33333333333333 L 123.33333333333333 74.33333333333333 L 123.0 75.0 L 123.0 76.0 L 123.33333333333333 76.66666666666667 L 123.5 77.0 Z" stroke="none" fill="rgb(0,0,0)" />
<path d="M 5.5 79.0 L 5.666666666666667 78.66666666666667 L 6.0 78.0 L 5.666666666666667 77.33333333333333 L 5.333333333333333 77.33333333333333 L 5.0 78.0 L 5.0 78.5 Z" stroke="none" fill="rgb(0,0,0)" />
<path d="M 25.0 34.5 L 24.666666666666668 34.333333333333336 L 24.333333333333332 34.333333333333336 L 24.333333333333332 34.666666666666664 L 24.5 35.0 Z" stroke="none" fill="rgb(0,0,0)" />
<path d="M 23.5 53.0 L 23.666666666666668 52.666666666666664 L 23.666666666666668 52.333333333333336 L 23.333333333333332 52.333333333333336 L 23.0 52.5 Z" stroke="none" fill="rgb(0,0,0)" />
<path d="M 104.5 70.0 L 104.66666666666667 69.66666666666667 L 104.66666666666667 69.33333333333333 L 104.33333333333333 69.33333333333333 L 104.0 69.5 Z" stroke="none" fill="rgb(0,0,0)" />
<path d="M 4.5 77.0 L 4.666666666666667 76.66666666666667 L 4.666666666666667 76.33333333333333 L 4.333333333333333 76.33333333333333 L 4.0 76.5 Z" stroke="none" fill="rgb(0,0,0)" />
<path d="M 122.5 79.0 L 122.66666666666667 78.66666666666667 L 122.66666666666667 78.33333333333333 L 122.33333333333333 78.33333333333333 L 122.0 78.5 Z" stroke="none" fill="rgb(0,0,0)" />
<path d="M 121.5 80.0 L 121.66666666666667 79.66666666666667 L 121.66666666666667 79.33333333333333 L 121.33333333333333 79.33333333333333 L 121.0 79.5 Z" stroke="none" fill="rgb(0,0,0)" />
<path d="M 121.0 81.5 L 120.66666666666667 81.33333333333333 L 120.33333333333333 81.33333333333333 L 120.33333333333333 81.66666666666667 L 120.5 82.0 Z" stroke="none" fill="rgb(0,0,0)" />
<path d="M 120.0 83.5 L 119.66666666666667 83.33333333333333 L 119.33333333333333 83.33333333333333 L 119.33333333333333 83.66666666666667 L 119.5 84.0 Z" stroke="none" fill="rgb(0,0,0)" />
<path d="M 50.5 100.0 L 50.666666666666664 99.66666666666667 L 50.666666666666664 99.33333333333333 L 50.333333333333336 99.33333333333333 L 50.0 99.5 Z" stroke="none" fill="rgb(164,122,94)" />
<path d="M 12.5 124.0 L 12.666666666666666 123.66666666666667 L 12.666666666666666 123.33333333333333 L 12.333333333333334 123.33333333333333 L 12.0 123.5 Z" stroke="none" fill="rgb(0,0,0)" />
</svg>
