<?xml version="1.0" encoding="UTF-8" standalone="no"?>
<!DOCTYPE svg PUBLIC "-//W3C//DTD SVG 1.1//EN"
"http://www.w3.org/Graphics/SVG/1.1/DTD/svg11.dtd">
<svg width="128" height="128" xmlns="http://www.w3.org/2000/svg" version="1.1">
<path d="M 26.5 128.0 L 27.0 128.0 L 28.0 128.0 L 29.0 128.0 L 30.0 128.0 L 31.0 128.0 L 32.0 128.0 L 33.0 128.0 L 34.0 128.0 L 35.0 128.0 L 36.0 128.0 L 37.0 128.0 L 38.0 128.0 L 39.0 128.0 L 40.0 128.0 L 41.0 128.0 L 42.0 128.0 L 43.0 128.0 L 44.0 128.0 L 45.0 128.0 L 46.0 128.0 L 47.0 128.0 L 48.0 128.0 L 49.0 128.0 L 50.0 128.0 L 51.0 128.0 L 52.0 128.0 L 53.0 128.0 L 54.0 128.0 L 55.0 128.0 L 56.0 128.0 L 57.0 128.0 L 58.0 128.0 L 59.0 128.0 L 60.0 128.0 L 61.0 128.0 L 62.0 128.0 L 63.0 128.0 L 64.0 128.0 L 65.0 128.0 L 66.0 128.0 L 67.0 128.0 L 68.0 128.0 L 69.0 128.0 L 70.0 128.0 L 71.0 128.0 L 72.0 128.0 L 73.0 128.0 L 74.0 128.0 L 75.0 128.0 L 76.0 128.0 L 77.0 128.0 L 78.0 128.0 L 79.0 128.0 L 80.0 128.0 L 81.0 128.0 L 82.0 128.0 L 83.0 128.0 L 84.0 128.0 L 85.0 128.0 L 86.0 128.0 L 87.0 128.0 L 88.0 128.0 L 89.0 128.0 L 90.0 128.0 L 91.0 128.0 L 92.0 128.0 L 93.0 128.0 L 94.0 128.0 L 95.0 128.0 L 96.0 128.0 L 97.0 128.0 L 98.0 128.0 L 99.0 128.0 L 100.0 128.0 L 101.0 128.0 L 102.0 128.0 L 103.0 128.0 L 104.0 128.0 L 105.0 128.0 L 106.0 128.0 L 107.0 128.0 L 108.0 128.0 L 109.0 128.0 L 110.0 128.0 L 111.0 128.0 L 112.0 128.0 L 113.0 128.0 L 114.0 128.0 L 115.0 128.0 L 116.0 128.0 L 117.0 128.0 L 118.0 128.0 L 119.0 128.0 L 120.0 128.0 L 121.0 128.0 L 122.0 128.0 L 123.0 128.0 L 124.0 128.0 L 125.0 128.0 L 126.0 128.0 L 127.0 128.0 L 127.66666666666667 127.66666666666667 L 128.0 127.0 L 128.0 126.0 L 128.0 125.0 L 128.0 124.0 L 128.0 123.0 L 128.0 122.0 L 128.0 121.0 L 128.0 120.0 L 128.0 119.0 L 128.0 118.0 L 128.0 117.0 L 128.0 116.0 L 128.0 115.0 L 128.0 114.0 L 128.0 113.0 L 128.0 112.0 L 128.0 111.0 L 128.0 110.0 L 128.0 109.0 L 128.0 108.0 L 128.0 107.0 L 128.0 106.0 L 128.0 105.0 L 128.0 104.0 L 128.0 103.0 L 128.0 102.0 L 128.0 101.0 L 128.0 100.0 L 128.0 99.0 L 128.0 98.0 L 128.0 97.0 L 128.0 96.0 L 128.0 95.0 L 128.0 94.0 L 128.0 93.0 L 128.0 92.0 L 128.0 91.0 L 128.0 90.0 L 128.0 89.0 L 128.0 88.0 L 128.0 87.0 L 128.0 86.0 L 128.0 85.0 L 128.0 84.0 L 128.0 83.0 L 128.0 82.0 L 128.0 81.0 L 128.0 80.0 L 128.0 79.0 L 128.0 78.0 L 128.0 77.0 L 128.0 76.0 L 128.0 75.0 L 128.0 74.0 L 128.0 73.0 L 128.0 72.0 L 128.0 71.0 L 128.0 70.0 L 128.0 69.0 L 128.0 68.0 L 128.0 67.0 L 128.0 66.0 L 128.0 65.0 L 128.0 64.0 L 128.0 63.0 L 128.0 62.0 L 128.0 61.0 L 128.0 60.0 L 128.0 59.0 L 128.0 58.0 L 128.0 57.0 L 128.0 56.0 L 128.0 55.0 L 128.0 54.0 L 128.0 53.0 L 128.0 52.0 L 128.0 51.0 L 128.0 50.0 L 128.0 49.0 L 128.0 48.0 L 128.0 47.0 L 128.0 46.0 L 128.0 45.0 L 128.0 44.0 L 128.0 43.0 L 128.0 42.0 L 128.0 41.0 L 128.0 40.0 L 128.0 39.0 L 128.0 38.0 L 128.0 37.0 L 128.0 36.0 L 128.0 35.0 L 128.0 34.0 L 128.0 33.0 L 128.0 32.0 L 128.0 31.0 L 128.0 30.0 L 128.0 29.0 L 128.0 28.0 L 128.0 27.0 L 128.0 26.0 L 128.0 25.0 L 128.0 24.0 L 128.0 23.0 L 128.0 22.0 L 128.0 21.0 L 128.0 20.0 L 128.0 19.0 L 128.0 18.0 L 128.0 17.0 L 128.0 16.0 L 128.0 15.0 L 128.0 14.0 L 128.0 13.0 L 128.0 12.0 L 128.0 11.0 L 128.0 10.0 L 128.0 9.0 L 128.0 8.0 L 128.0 7.0 L 128.0 6.0 L 128.0 5.0 L 128.0 4.0 L 128.0 3.0 L 128.0 2.0 L 128.0 1.0 L 127.66666666666667 0.3333333333333333 L 127.0 0.0 L 126.0 0.0 L 125.0 0.0 L 124.0 0.0 L 123.0 0.0 L 122.0 0.0 L 121.0 0.0 L 120.0 0.0 L 119.0 0.0 L 118.0 0.0 L 117.0 0.0 L 116.0 0.0 L 115.0 0.0 L 114.0 0.0 L 113.0 0.0 L 112.0 0.0 L 111.0 0.0 L 110.0 0.0 L 109.0 0.0 L 108.0 0.0 L 107.0 0.0 L 106.0 0.0 L 105.0 0.0 L 104.0 0.0 L 103.0 0.0 L 102.0 0.0 L 101.0 0.0 L 100.0 0.0 L 99.0 0.0 L 98.0 0.0 L 97.0 0.0 L 96.0 0.0 L 95.0 0.0 L 94.0 0.0 L 93.0 0.0 L 92.0 0.0 L 91.0 0.0 L 90.0 0.0 L 89.0 0.0 L 88.0 0.0 L 87.0 0.0 L 86.0 0.0 L 85.0 0.0 L 84.0 0.0 L 83.0 0.0 L 82.0 0.0 L 81.0 0.0 L 80.0 0.0 L 79.0 0.0 L 78.0 0.0 L 77.0 0.0 L 76.0 0.0 L 75.0 0.0 L 74.0 0.0 L 73.0 0.0 L 72.0 0.0 L 71.0 0.0 L 70.0 0.0 L 69.0 0.0 L 68.0 0.0 L 67.0 0.0 L 66.0 0.0 L 65.0 0.0 L 64.0 0.0 L 63.0 0.0 L 62.0 0.0 L 61.0 0.0 L 60.0 0.0 L 59.0 0.0 L 58.0 0.0 L 57.0 0.0 L 56.0 0.0 L 55.0 0.0 L 54.0 0.0 L 53.0 0.0 L 52.0 0.0 L 51.0 0.0 L 50.0 0.0 L 49.0 0.0 L 48.0 0.0 L 47.0 0.0 L 46.0 0.0 L 45.0 0.0 L 44.0 0.0 L 43.0 0.0 L 42.0 0.0 L 41.0 0.0 L 40.0 0.0 L 39.0 0.0 L 38.0 0.0 L 37.0 0.0 L 36.0 0.0 L 35.0 0.0 L 34.0 0.0 L 33.0 0.0 L 32.0 0.0 L 31.0 0.0 L 30.0 0.0 L 29.0 0.0 L 28.0 0.0 L 27.0 0.0 L 26.0 0.0 L 25.0 0.0 L 24.0 0.0 L 23.0 0.0 L 22.0 0.0 L 21.0 0.0 L 20.0 0.0 L 19.0 0.0 L 18.0 0.0 L 17.0 0.0 L 16.0 0.0 L 15.0 0.0 L 14.0 0.0 L 13.0 0.0 L 12.0 0.0 L 11.0 0.0 L 10.0 0.0 L 9.0 0.0 L 8.0 0.0 L 7.0 0.0 L 6.0 0.0 L 5.0 0.0 L 4.0 0.0 L 3.0 0.0 L 2.0 0.0 L 1.0 0.0 L 0.3333333333333333 0.3333333333333333 L 0.0 1.0 L 0.0 2.0 L 0.0 3.0 L 0.0 4.0 L 0.0 5.0 L 0.0 6.0 L 0.0 7.0 L 0.0 8.0 L 0.0 9.0 L 0.0 10.0 L 0.0 11.0 L 0.0 12.0 L 0.0 13.0 L 0.0 14.0 L 0.0 15.0 L 0.0 16.0 L 0.0 17.0 L 0.0 18.0 L 0.0 19.0 L 0.0 20.0 L 0.0 21.0 L 0.0 22.0 L 0.0 23.0 L 0.0 24.0 L 0.0 25.0 L 0.0 26.0 L 0.0 27.0 L 0.0 28.0 L 0.0 29.0 L 0.0 30.0 L 0.0 31.0 L 0.0 32.0 L 0.0 33.0 L 0.0 34.0 L 0.0 35.0 L 0.0 36.0 L 0.0 37.0 L 0.0 38.0 L 0.0 39.0 L 0.0 40.0 L 0.0 41.0 L 0.0 42.0 L 0.0 43.0 L 0.0 44.0 L 0.0 45.0 L 0.0 46.0 L 0.0 47.0 L 0.0 48.0 L 0.0 49.0 L 0.0 50.0 L 0.0 51.0 L 0.0 52.0 L 0.0 53.0 L 0.0 54.0 L 0.0 55.0 L 0.0 56.0 L 0.0 57.0 L 0.0 58.0 L 0.0 59.0 L 0.0 60.0 L 0.0 61.0 L 0.0 62.0 L 0.0 63.0 L 0.0 64.0 L 0.0 65.0 L 0.0 66.0 L 0.0 67.0 L 0.0 68.0 L 0.0 69.0 L 0.0 70.0 L 0.0 71.0 L 0.0 72.0 L 0.0 73.0 L 0.0 74.0 L 0.0 75.0 L 0.0 76.0 L 0.0 77.0 L 0.0 78.0 L 0.0 79.0 L 0.0 80.0 L 0.0 81.0 L 0.0 82.0 L 0.0 83.0 L 0.0 84.0 L 0.0 85.0 L 0.0 86.0 L 0.0 87.0 L 0.0 88.0 L 0.0 89.0 L 0.0 90.0 L 0.0 91.0 L 0.0 92.0 L 0.0 93.0 L 0.0 94.0 L 0.0 95.0 L 0.0 96.0 L 0.0 97.0 L 0.0 98.0 L 0.0 99.0 L 0.0 100.0 L 0.0 101.0 L 0.0 102.0 L 0.0 103.0 L 0.0 104.0 L 0.0 105.0 L 0.0 106.0 L 0.0 107.0 L 0.0 108.0 L 0.0 109.0 L 0.0 110.0 L 0.0 111.0 L 0.0 112.0 L 0.0 113.0 L 0.0 114.0 L 0.0 115.0 L 0.0 116.0 L 0.0 117.0 L 0.0 118.0 L 0.0 119.0 L 0.0 120.0 L 0.0 121.0 L 0.0 122.0 L 0.0 123.0 L 0.0 124.0 L 0.0 125.0 L 0.0 126.0 L 0.0 127.0 L 0.3333333333333333 127.66666666666667 L 1.0 128.0 L 2.0 128.0 L 3.0 128.0 L 4.0 128.0 L 5.0 128.0 L 6.0 128.0 L 7.0 128.0 L 8.0 128.0 L 9.0 128.0 L 10.0 128.0 L 11.0 128.0 L 12.0 128.0 L 13.0 128.0 L 14.0 128.0 L 15.0 128.0 L 16.0 128.0 L 17.0 128.0 L 18.0 128.0 L 19.0 128.0 L 20.0 128.0 L 21.0 128.0 L 22.0 128.0 L 23.0 128.0 L 24.0 128.0 L 25.0 128.0 L 25.5 128.0 Z" stroke="none" fill="rgb(255,255,255)" />
<path d="M 101.5 99.0 L 102.0 99.0 L 103.0 99.0 L 104.0 99.0 L 105.0 98.66666666666667 L 106.0 98.33333333333333 L 107.0 98.0 L 108.0 98.0 L 109.0 98.0 L 110.0 98.0 L 111.0 98.0 L 112.0 98.0 L 113.0 98.0 L 114.0 98.0 L 115.0 98.0 L 116.0 98.0 L 117.0 98.0 L 118.0 98.0 L 119.0 98.0 L 120.0 97.66666666666667 L 121.0 97.0 L 121.66666666666667 96.0 L 122.0 95.0 L 122.0 94.0 L 121.66666666666667 93.0 L 121.33333333333333 92.0 L 121.0 91.0 L 120.66666666666667 90.0 L 120.0 89.0 L 119.33333333333333 88.0 L 118.66666666666667 87.0 L 118.33333333333333 86.0 L 117.66666666666667 85.0 L 117.33333333333333 84.0 L 116.66666666666667 83.0 L 116.33333333333333 82.0 L 116.0 81.0 L 115.66666666666667 80.0 L 115.33333333333333 79.0 L 115.0 78.0 L 114.66666666666667 77.0 L 114.33333333333333 76.0 L 114.0 75.0 L 114.0 74.0 L 114.0 73.0 L 113.66666666666667 72.0 L 113.33333333333333 71.0 L 113.0 70.0 L 113.0 69.0 L 113.0 68.0 L 113.0 67.0 L 113.0 66.0 L 113.0 65.0 L 113.0 64.0 L 113.0 63.0 L 113.0 62.0 L 113.0 61.0 L 113.0 60.0 L 113.33333333333333 59.0 L 113.66666666666667 58.0 L 114.0 57.0 L 114.0 56.0 L 114.0 55.0 L 114.33333333333333 54.0 L 114.66666666666667 53.0 L 115.0 52.0 L 115.0 51.0 L 115.33333333333333 50.0 L 115.66666666666667 49.0 L 116.0 48.0 L 116.33333333333333 47.0 L 116.66666666666667 46.0 L 117.33333333333333 45.0 L 117.66666666666667 44.0 L 118.33333333333333 43.0 L 118.66666666666667 42.0 L 119.33333333333333 41.0 L 119.66666666666667 40.0 L 120.33333333333333 39.0 L 120.66666666666667 38.0 L 121.33333333333333 37.0 L 121.66666666666667 36.0 L 122.0 35.0 L 122.0 34.0 L 122.0 33.0 L 122.0 32.0 L 122.0 31.0 L 121.66666666666667 30.333333333333332 L 121.0 30.0 L 120.0 29.666666666666668 L 119.0 29.333333333333332 L 118.0 29.0 L 117.0 29.0 L 116.0 29.0 L 115.0 29.333333333333332 L 114.0 29.333333333333332 L 113.0 29.333333333333332 L 112.0 29.0 L 111.0 29.0 L 110.0 29.0 L 109.0 29.0 L 108.0 29.0 L 107.0 29.0 L 106.0 29.0 L 105.0 28.666666666666668 L 104.0 28.333333333333332 L 103.0 28.0 L 102.0 28.0 L 101.0 28.0 L 100.0 28.0 L 99.0 27.666666666666668 L 98.0 27.333333333333332 L 97.0 27.0 L 96.0 27.0 L 95.0 26.666666666666668 L 94.0 26.333333333333332 L 93.0 26.0 L 92.0 25.666666666666668 L 91.0 25.333333333333332 L 90.0 24.666666666666668 L 89.0 24.333333333333332 L 88.0 23.666666666666668 L 87.0 23.333333333333332 L 86.0 22.666666666666668 L 85.0 22.333333333333332 L 84.0 21.666666666666668 L 83.0 21.0 L 82.0 20.333333333333332 L 81.0 19.666666666666668 L 80.0 19.0 L 79.0 18.0 L 78.0 17.333333333333332 L 77.0 16.666666666666668 L 76.0 16.0 L 75.0 15.0 L 74.0 14.0 L 73.0 13.0 L 72.0 12.0 L 71.0 11.0 L 70.33333333333333 10.0 L 69.66666666666667 9.0 L 69.33333333333333 8.0 L 68.66666666666667 7.0 L 68.0 6.0 L 67.0 5.0 L 66.0 4.333333333333333 L 65.0 4.0 L 64.0 4.0 L 63.0 4.0 L 62.0 4.333333333333333 L 61.0 5.0 L 60.0 6.0 L 59.333333333333336 7.0 L 58.666666666666664 8.0 L 58.333333333333336 9.0 L 57.666666666666664 10.0 L 57.0 11.0 L 56.0 12.0 L 55.0 13.0 L 54.0 14.0 L 53.0 15.0 L 52.0 16.0 L 51.0 17.0 L 50.0 18.0 L 49.0 18.666666666666668 L 48.0 19.333333333333332 L 47.0 20.0 L 46.0 20.666666666666668 L 45.0 21.333333333333332 L 44.0 22.0 L 43.0 22.666666666666668 L 42.0 23.333333333333332 L 41.0 23.666666666666668 L 40.0 24.333333333333332 L 39.0 24.666666666666668 L 38.0 25.0 L 37.0 25.333333333333332 L 36.0 25.666666666666668 L 35.0 26.0 L 34.0 26.333333333333332 L 33.0 26.666666666666668 L 32.0 27.0 L 31.0 27.333333333333332 L 30.0 27.666666666666668 L 29.0 28.0 L 28.0 28.0 L 27.0 28.0 L 26.0 28.333333333333332 L 25.0 28.666666666666668 L 24.0 29.0 L 23.0 29.0 L 22.0 29.0 L 21.0 29.333333333333332 L 20.0 29.666666666666668 L 19.0 30.0 L 18.0 30.0 L 17.0 30.0 L 16.0 30.0 L 15.0 30.0 L 14.0 30.0 L 13.0 30.0 L 12.0 30.0 L 11.0 30.0 L 10.0 30.0 L 9.0 30.333333333333332 L 8.0 30.666666666666668 L 7.0 31.333333333333332 L 6.333333333333333 32.0 L 6.0 33.0 L 6.0 34.0 L 6.333333333333333 35.0 L 6.666666666666667 36.0 L 7.333333333333333 37.0 L 7.666666666666667 38.0 L 8.333333333333334 39.0 L 8.666666666666666 40.0 L 9.333333333333334 41.0 L 9.666666666666666 42.0 L 10.333333333333334 43.0 L 10.666666666666666 44.0 L 11.333333333333334 45.0 L 11.666666666666666 46.0 L 12.0 47.0 L 12.333333333333334 48.0 L 12.666666666666666 49.0 L 13.0 50.0 L 13.333333333333334 51.0 L 13.666666666666666 52.0 L 14.0 53.0 L 14.0 54.0 L 14.333333333333334 55.0 L 14.666666666666666 56.0 L 15.0 57.0 L 15.0 58.0 L 15.0 59.0 L 15.0 60.0 L 15.0 61.0 L 15.0 62.0 L 15.0 63.0 L 15.0 64.0 L 15.0 65.0 L 15.0 66.0 L 15.0 67.0 L 15.0 68.0 L 15.0 69.0 L 15.0 70.0 L 14.666666666666666 71.0 L 14.333333333333334 72.0 L 14.0 73.0 L 14.0 74.0 L 13.666666666666666 75.0 L 13.333333333333334 76.0 L 13.0 77.0 L 12.666666666666666 78.0 L 12.333333333333334 79.0 L 12.0 80.0 L 11.666666666666666 81.0 L 11.333333333333334 82.0 L 10.666666666666666 83.0 L 10.333333333333334 84.0 L 9.666666666666666 85.0 L 9.333333333333334 86.0 L 8.666666666666666 87.0 L 8.0 88.0 L 7.333333333333333 89.0 L 6.666666666666667 90.0 L 6.333333333333333 91.0 L 5.666666666666667 92.0 L 5.333333333333333 93.0 L 5.0 94.0 L 5.333333333333333 95.0 L 5.666666666666667 96.0 L 6.333333333333333 97.0 L 7.0 97.66666666666667 L 8.0 98.0 L 9.0 98.0 L 10.0 98.0 L 11.0 98.0 L 12.0 98.0 L 13.0 98.0 L 14.0 98.0 L 15.0 98.0 L 16.0 98.0 L 17.0 98.0 L 18.0 98.0 L 19.0 98.0 L 20.0 98.0 L 21.0 98.33333333333333 L 22.0 98.66666666666667 L 23.0 99.0 L 24.0 99.0 L 25.0 99.0 L 26.0 99.0 L 27.0 99.33333333333333 L 28.0 99.66666666666667 L 29.0 100.0 L 30.0 100.0 L 31.0 100.0 L 32.0 100.33333333333333 L 33.0 100.66666666666667 L 34.0 101.0 L 35.0 101.33333333333333 L 36.0 101.66666666666667 L 37.0 102.0 L 38.0 102.33333333333333 L 39.0 102.66666666666667 L 40.0 103.33333333333333 L 41.0 104.0 L 42.0 104.66666666666667 L 43.0 105.33333333333333 L 44.0 106.0 L 45.0 106.66666666666667 L 46.0 107.33333333333333 L 47.0 108.0 L 48.0 109.0 L 49.0 110.0 L 50.0 111.0 L 51.0 112.0 L 52.0 112.66666666666667 L 53.0 113.33333333333333 L 54.0 114.0 L 55.0 115.0 L 55.666666666666664 116.0 L 56.333333333333336 117.0 L 57.0 118.0 L 58.0 119.0 L 59.0 120.0 L 59.666666666666664 121.0 L 60.333333333333336 122.0 L 61.0 122.66666666666667 L 62.0 123.0 L 63.0 123.0 L 64.0 123.0 L 65.0 123.0 L 66.0 123.0 L 67.0 122.66666666666667 L 68.0 122.0 L 68.66666666666667 121.0 L 69.33333333333333 120.0 L 69.66666666666667 119.0 L 70.33333333333333 118.0 L 71.0 117.0 L 72.0 116.0 L 73.0 115.0 L 74.0 114.0 L 75.0 113.0 L 76.0 112.0 L 77.0 111.0 L 78.0 110.0 L 79.0 109.0 L 80.0 108.0 L 81.0 107.33333333333333 L 82.0 106.66666666666667 L 83.0 106.0 L 84.0 105.33333333333333 L 85.0 104.66666666666667 L 86.0 104.33333333333333 L 87.0 103.66666666666667 L 88.0 103.0 L 89.0 102.33333333333333 L 90.0 102.0 L 91.0 101.66666666666667 L 92.0 101.33333333333333 L 93.0 101.0 L 94.0 100.66666666666667 L 95.0 100.33333333333333 L 96.0 100.0 L 97.0 100.0 L 98.0 100.0 L 99.0 99.66666666666667 L 100.0 99.33333333333333 L 100.5 99.0 Z" stroke="none" fill="rgb(94,99,103)" />
<path d="M 23.5 83.0 L 24.0 82.66666666666667 L 25.0 82.33333333333333 L 26.0 81.66666666666667 L 27.0 81.0 L 28.0 80.33333333333333 L 29.0 79.66666666666667 L 30.0 79.33333333333333 L 31.0 78.66666666666667 L 32.0 78.33333333333333 L 33.0 77.66666666666667 L 34.0 77.33333333333333 L 35.0 76.66666666666667 L 35.666666666666664 76.0 L 36.0 75.0 L 36.333333333333336 74.0 L 36.666666666666664 73.0 L 37.0 72.0 L 37.0 71.0 L 37.0 70.0 L 37.0 69.0 L 37.0 68.0 L 37.0 67.0 L 37.0 66.0 L 37.0 65.0 L 37.0 64.0 L 37.0 63.0 L 37.0 62.0 L 37.0 61.0 L 37.0 60.0 L 37.0 59.0 L 37.0 58.0 L 36.666666666666664 57.0 L 36.333333333333336 56.0 L 36.0 55.0 L 36.0 54.0 L 36.0 53.0 L 36.0 52.0 L 35.666666666666664 51.333333333333336 L 35.0 50.666666666666664 L 34.0 50.333333333333336 L 33.0 49.666666666666664 L 32.0 49.333333333333336 L 31.0 48.666666666666664 L 30.0 48.333333333333336 L 29.0 47.666666666666664 L 28.0 47.0 L 27.0 46.333333333333336 L 26.0 45.666666666666664 L 25.0 45.333333333333336 L 24.0 44.666666666666664 L 23.0 44.333333333333336 L 22.0 43.666666666666664 L 21.0 43.333333333333336 L 20.0 42.666666666666664 L 19.0 42.333333333333336 L 18.333333333333332 42.333333333333336 L 18.0 43.0 L 18.0 44.0 L 18.333333333333332 45.0 L 18.666666666666668 46.0 L 19.0 47.0 L 19.0 48.0 L 19.333333333333332 49.0 L 19.666666666666668 50.0 L 20.0 51.0 L 20.0 52.0 L 20.333333333333332 53.0 L 20.666666666666668 54.0 L 21.0 55.0 L 21.0 56.0 L 21.0 57.0 L 21.333333333333332 58.0 L 21.666666666666668 59.0 L 22.0 60.0 L 22.0 61.0 L 22.0 62.0 L 22.0 63.0 L 22.0 64.0 L 22.0 65.0 L 22.0 66.0 L 22.0 67.0 L 22.0 68.0 L 22.0 69.0 L 21.666666666666668 70.0 L 21.333333333333332 71.0 L 21.0 72.0 L 21.0 73.0 L 21.0 74.0 L 20.666666666666668 75.0 L 20.333333333333332 76.0 L 20.0 77.0 L 19.666666666666668 78.0 L 19.333333333333332 79.0 L 19.0 80.0 L 18.666666666666668 81.0 L 18.333333333333332 82.0 L 18.0 83.0 L 18.0 84.0 L 18.333333333333332 84.66666666666667 L 19.0 85.0 L 20.0 84.66666666666667 L 21.0 84.33333333333333 L 22.0 83.66666666666667 L 22.5 83.5 Z" stroke="none" fill="rgb(255,255,255)" />
<path d="M 105.5 84.0 L 106.0 84.33333333333333 L 107.0 84.66666666666667 L 108.0 85.33333333333333 L 109.0 85.66666666666667 L 109.66666666666667 85.66666666666667 L 110.0 85.0 L 109.66666666666667 84.0 L 109.33333333333333 83.0 L 109.0 82.0 L 109.0 81.0 L 108.66666666666667 80.0 L 108.33333333333333 79.0 L 108.0 78.0 L 108.0 77.0 L 107.66666666666667 76.0 L 107.33333333333333 75.0 L 107.0 74.0 L 107.0 73.0 L 107.0 72.0 L 106.66666666666667 71.0 L 106.33333333333333 70.0 L 106.0 69.0 L 106.0 68.0 L 106.0 67.0 L 106.0 66.0 L 106.0 65.0 L 106.0 64.0 L 106.0 63.0 L 106.0 62.0 L 106.0 61.0 L 106.0 60.0 L 106.0 59.0 L 106.0 58.0 L 106.33333333333333 57.0 L 106.66666666666667 56.0 L 107.0 55.0 L 107.0 54.0 L 107.33333333333333 53.0 L 107.66666666666667 52.0 L 108.0 51.0 L 108.0 50.0 L 108.33333333333333 49.0 L 108.66666666666667 48.0 L 109.0 47.0 L 109.0 46.0 L 109.33333333333333 45.0 L 109.66666666666667 44.0 L 110.0 43.0 L 109.66666666666667 42.333333333333336 L 109.0 42.333333333333336 L 108.0 42.666666666666664 L 107.0 43.333333333333336 L 106.0 44.0 L 105.0 44.666666666666664 L 104.0 45.333333333333336 L 103.0 45.666666666666664 L 102.0 46.333333333333336 L 101.0 46.666666666666664 L 100.0 47.333333333333336 L 99.0 47.666666666666664 L 98.0 48.333333333333336 L 97.0 49.0 L 96.0 49.666666666666664 L 95.0 50.333333333333336 L 94.0 50.666666666666664 L 93.0 51.333333333333336 L 92.33333333333333 52.0 L 92.0 53.0 L 92.0 54.0 L 92.0 55.0 L 92.0 56.0 L 91.66666666666667 57.0 L 91.33333333333333 58.0 L 91.0 59.0 L 91.0 60.0 L 91.0 61.0 L 91.0 62.0 L 91.0 63.0 L 91.0 64.0 L 91.0 65.0 L 91.0 66.0 L 91.0 67.0 L 91.0 68.0 L 91.33333333333333 69.0 L 91.66666666666667 70.0 L 92.0 71.0 L 92.0 72.0 L 92.0 73.0 L 92.0 74.0 L 92.0 75.0 L 92.33333333333333 76.0 L 93.0 76.66666666666667 L 94.0 77.33333333333333 L 95.0 78.0 L 96.0 78.66666666666667 L 97.0 79.33333333333333 L 98.0 79.66666666666667 L 99.0 80.33333333333333 L 100.0 80.66666666666667 L 101.0 81.33333333333333 L 102.0 81.66666666666667 L 103.0 82.33333333333333 L 104.0 83.0 L 104.5 83.5 Z" stroke="none" fill="rgb(255,255,255)" />
<path d="M 88.5 46.0 L 89.0 46.0 L 90.0 45.666666666666664 L 91.0 45.333333333333336 L 92.0 44.666666666666664 L 93.0 44.333333333333336 L 94.0 43.666666666666664 L 95.0 43.333333333333336 L 96.0 42.666666666666664 L 97.0 42.0 L 98.0 41.333333333333336 L 99.0 40.666666666666664 L 100.0 40.333333333333336 L 101.0 39.666666666666664 L 102.0 39.333333333333336 L 103.0 38.666666666666664 L 104.0 38.333333333333336 L 105.0 37.666666666666664 L 105.66666666666667 37.0 L 105.66666666666667 36.333333333333336 L 105.0 36.0 L 104.0 36.0 L 103.0 35.666666666666664 L 102.0 35.333333333333336 L 101.0 35.0 L 100.0 34.666666666666664 L 99.0 34.333333333333336 L 98.0 34.0 L 97.0 34.0 L 96.0 33.666666666666664 L 95.0 33.333333333333336 L 94.0 33.0 L 93.0 33.0 L 92.0 32.666666666666664 L 91.0 32.333333333333336 L 90.0 32.0 L 89.0 31.666666666666668 L 88.0 31.333333333333332 L 87.0 31.0 L 86.0 30.666666666666668 L 85.0 30.333333333333332 L 84.0 29.666666666666668 L 83.0 29.0 L 82.0 28.333333333333332 L 81.0 27.666666666666668 L 80.0 27.0 L 79.0 26.333333333333332 L 78.0 25.666666666666668 L 77.0 25.0 L 76.0 24.0 L 75.0 23.333333333333332 L 74.0 22.666666666666668 L 73.0 22.0 L 72.0 21.0 L 71.0 20.0 L 70.0 19.333333333333332 L 69.0 18.666666666666668 L 68.0 18.333333333333332 L 67.33333333333333 18.333333333333332 L 67.0 19.0 L 67.0 20.0 L 67.0 21.0 L 67.0 22.0 L 67.0 23.0 L 67.0 24.0 L 67.0 25.0 L 67.0 26.0 L 67.0 27.0 L 67.0 28.0 L 67.0 29.0 L 67.0 30.0 L 67.0 31.0 L 67.0 32.0 L 67.0 33.0 L 67.33333333333333 33.666666666666664 L 68.0 34.333333333333336 L 69.0 35.0 L 70.0 36.0 L 71.0 37.0 L 72.0 37.666666666666664 L 73.0 38.333333333333336 L 74.0 39.0 L 75.0 40.0 L 76.0 40.666666666666664 L 77.0 41.333333333333336 L 78.0 41.666666666666664 L 79.0 42.333333333333336 L 80.0 42.666666666666664 L 81.0 43.333333333333336 L 82.0 43.666666666666664 L 83.0 44.333333333333336 L 84.0 44.666666666666664 L 85.0 45.0 L 86.0 45.333333333333336 L 87.0 45.666666666666664 L 87.5 46.0 Z" stroke="none" fill="rgb(255,255,255)" />
<path d="M 24.5 92.0 L 25.0 92.33333333333333 L 26.0 92.66666666666667 L 27.0 93.0 L 28.0 93.0 L 29.0 93.0 L 30.0 93.33333333333333 L 31.0 93.66666666666667 L 32.0 94.0 L 33.0 94.0 L 34.0 94.0 L 35.0 94.33333333333333 L 36.0 94.66666666666667 L 37.0 95.0 L 38.0 95.33333333333333 L 39.0 95.66666666666667 L 40.0 96.0 L 41.0 96.33333333333333 L 42.0 96.66666666666667 L 43.0 97.33333333333333 L 44.0 97.66666666666667 L 45.0 98.33333333333333 L 46.0 98.66666666666667 L 47.0 99.33333333333333 L 48.0 100.0 L 49.0 101.0 L 50.0 101.66666666666667 L 51.0 102.33333333333333 L 52.0 103.0 L 53.0 104.0 L 54.0 105.0 L 55.0 106.0 L 56.0 107.0 L 57.0 107.66666666666667 L 58.0 108.33333333333333 L 59.0 109.0 L 60.0 109.66666666666667 L 60.666666666666664 109.66666666666667 L 61.0 109.0 L 61.0 108.0 L 61.0 107.0 L 61.0 106.0 L 61.0 105.0 L 61.0 104.0 L 61.0 103.0 L 61.0 102.0 L 61.0 101.0 L 61.0 100.0 L 61.0 99.0 L 61.0 98.0 L 61.0 97.0 L 61.0 96.0 L 61.0 95.0 L 60.666666666666664 94.0 L 60.0 93.33333333333333 L 59.0 92.66666666666667 L 58.0 92.0 L 57.0 91.0 L 56.0 90.33333333333333 L 55.0 89.66666666666667 L 54.0 89.0 L 53.0 88.0 L 52.0 87.33333333333333 L 51.0 86.66666666666667 L 50.0 86.0 L 49.0 85.33333333333333 L 48.0 84.66666666666667 L 47.0 84.33333333333333 L 46.0 84.0 L 45.0 83.66666666666667 L 44.0 83.33333333333333 L 43.0 83.0 L 42.0 82.66666666666667 L 41.0 82.33333333333333 L 40.0 81.66666666666667 L 39.0 81.33333333333333 L 38.0 81.33333333333333 L 37.0 82.0 L 36.0 82.66666666666667 L 35.0 83.33333333333333 L 34.0 83.66666666666667 L 33.0 84.33333333333333 L 32.0 84.66666666666667 L 31.0 85.33333333333333 L 30.0 85.66666666666667 L 29.0 86.33333333333333 L 28.0 87.0 L 27.0 87.66666666666667 L 26.0 88.33333333333333 L 25.0 88.66666666666667 L 24.0 89.33333333333333 L 23.0 89.66666666666667 L 22.0 90.33333333333333 L 21.0 90.66666666666667 L 20.333333333333332 91.33333333333333 L 20.333333333333332 91.66666666666667 L 21.0 92.0 L 22.0 92.0 L 23.0 92.0 L 23.5 92.0 Z" stroke="none" fill="rgb(255,255,255)" />
<path d="M 72.5 106.5 L 73.0 106.0 L 74.0 105.0 L 75.0 104.0 L 76.0 103.33333333333333 L 77.0 102.66666666666667 L 78.0 102.0 L 79.0 101.0 L 80.0 100.0 L 81.0 99.33333333333333 L 82.0 98.66666666666667 L 83.0 98.33333333333333 L 84.0 97.66666666666667 L 85.0 97.33333333333333 L 86.0 96.66666666666667 L 87.0 96.33333333333333 L 88.0 95.66666666666667 L 89.0 95.33333333333333 L 90.0 95.0 L 91.0 94.66666666666667 L 92.0 94.33333333333333 L 93.0 94.0 L 94.0 94.0 L 95.0 94.0 L 96.0 93.66666666666667 L 97.0 93.33333333333333 L 98.0 93.0 L 99.0 93.0 L 100.0 93.0 L 101.0 93.0 L 102.0 92.66666666666667 L 103.0 92.33333333333333 L 104.0 92.0 L 105.0 92.0 L 106.0 92.0 L 106.66666666666667 91.66666666666667 L 106.66666666666667 91.33333333333333 L 106.0 90.66666666666667 L 105.0 90.0 L 104.0 89.33333333333333 L 103.0 88.66666666666667 L 102.0 88.33333333333333 L 101.0 87.66666666666667 L 100.0 87.33333333333333 L 99.0 86.66666666666667 L 98.0 86.33333333333333 L 97.0 85.66666666666667 L 96.0 85.0 L 95.0 84.33333333333333 L 94.0 83.66666666666667 L 93.0 83.33333333333333 L 92.0 82.66666666666667 L 91.0 82.33333333333333 L 90.0 81.66666666666667 L 89.0 81.33333333333333 L 88.0 81.33333333333333 L 87.0 81.66666666666667 L 86.0 82.33333333333333 L 85.0 82.66666666666667 L 84.0 83.33333333333333 L 83.0 83.66666666666667 L 82.0 84.33333333333333 L 81.0 84.66666666666667 L 80.0 85.0 L 79.0 85.33333333333333 L 78.0 85.66666666666667 L 77.0 86.33333333333333 L 76.0 87.0 L 75.0 87.66666666666667 L 74.0 88.33333333333333 L 73.0 89.0 L 72.0 90.0 L 71.0 91.0 L 70.0 91.66666666666667 L 69.0 92.33333333333333 L 68.0 93.0 L 67.33333333333333 94.0 L 67.0 95.0 L 67.0 96.0 L 67.0 97.0 L 67.0 98.0 L 67.0 99.0 L 67.0 100.0 L 67.0 101.0 L 67.0 102.0 L 67.0 103.0 L 67.0 104.0 L 67.0 105.0 L 67.0 106.0 L 67.0 107.0 L 67.0 108.0 L 67.0 109.0 L 67.33333333333333 109.66666666666667 L 68.0 110.0 L 69.0 109.66666666666667 L 70.0 109.0 L 71.0 108.0 L 71.5 107.5 Z" stroke="none" fill="rgb(255,255,255)" />
<path d="M 23.5 38.0 L 24.0 38.333333333333336 L 25.0 39.0 L 26.0 39.666666666666664 L 27.0 40.333333333333336 L 28.0 40.666666666666664 L 29.0 41.333333333333336 L 30.0 41.666666666666664 L 31.0 42.333333333333336 L 32.0 42.666666666666664 L 33.0 43.333333333333336 L 34.0 44.0 L 35.0 44.666666666666664 L 36.0 45.333333333333336 L 37.0 45.666666666666664 L 38.0 46.0 L 39.0 46.0 L 40.0 46.0 L 41.0 45.666666666666664 L 42.0 45.333333333333336 L 43.0 45.0 L 44.0 44.666666666666664 L 45.0 44.333333333333336 L 46.0 43.666666666666664 L 47.0 43.333333333333336 L 48.0 43.0 L 49.0 42.666666666666664 L 50.0 42.333333333333336 L 51.0 41.666666666666664 L 52.0 41.0 L 53.0 40.333333333333336 L 54.0 39.666666666666664 L 55.0 39.0 L 56.0 38.0 L 57.0 37.0 L 58.0 36.0 L 59.0 35.0 L 60.0 34.0 L 60.666666666666664 33.0 L 61.0 32.0 L 61.0 31.0 L 61.0 30.0 L 61.0 29.0 L 61.0 28.0 L 61.0 27.0 L 61.0 26.0 L 61.0 25.0 L 61.0 24.0 L 61.0 23.0 L 61.0 22.0 L 61.0 21.0 L 61.0 20.0 L 60.666666666666664 19.333333333333332 L 60.0 19.0 L 59.0 19.333333333333332 L 58.0 20.0 L 57.0 21.0 L 56.0 21.666666666666668 L 55.0 22.333333333333332 L 54.0 23.0 L 53.0 24.0 L 52.0 25.0 L 51.0 25.666666666666668 L 50.0 26.333333333333332 L 49.0 27.0 L 48.0 27.666666666666668 L 47.0 28.333333333333332 L 46.0 29.0 L 45.0 29.666666666666668 L 44.0 30.333333333333332 L 43.0 30.666666666666668 L 42.0 31.0 L 41.0 31.333333333333332 L 40.0 31.666666666666668 L 39.0 32.0 L 38.0 32.333333333333336 L 37.0 32.666666666666664 L 36.0 33.0 L 35.0 33.0 L 34.0 33.333333333333336 L 33.0 33.666666666666664 L 32.0 34.0 L 31.0 34.0 L 30.0 34.0 L 29.0 34.0 L 28.0 34.333333333333336 L 27.0 34.666666666666664 L 26.0 35.0 L 25.0 35.0 L 24.0 35.0 L 23.0 35.333333333333336 L 22.0 35.666666666666664 L 21.333333333333332 36.333333333333336 L 21.333333333333332 36.666666666666664 L 22.0 37.333333333333336 L 22.5 37.5 Z" stroke="none" fill="rgb(255,255,255)" />
<path d="M 59.5 86.5 L 60.0 86.66666666666667 L 60.666666666666664 86.66666666666667 L 61.0 86.0 L 61.0 85.0 L 61.0 84.0 L 61.0 83.0 L 61.0 82.0 L 61.0 81.0 L 61.0 80.0 L 61.0 79.0 L 61.0 78.0 L 61.0 77.0 L 61.0 76.0 L 61.0 75.0 L 61.0 74.0 L 61.0 73.0 L 61.0 72.0 L 61.0 71.0 L 61.0 70.0 L 60.666666666666664 69.33333333333333 L 60.0 69.33333333333333 L 59.0 69.66666666666667 L 58.0 70.33333333333333 L 57.0 71.0 L 56.0 71.66666666666667 L 55.0 72.33333333333333 L 54.0 72.66666666666667 L 53.0 73.33333333333333 L 52.0 73.66666666666667 L 51.0 74.33333333333333 L 50.0 74.66666666666667 L 49.0 75.33333333333333 L 48.0 76.0 L 47.0 76.66666666666667 L 46.333333333333336 77.33333333333333 L 46.0 78.0 L 46.333333333333336 78.66666666666667 L 47.0 79.0 L 48.0 79.33333333333333 L 49.0 79.66666666666667 L 50.0 80.33333333333333 L 51.0 80.66666666666667 L 52.0 81.33333333333333 L 53.0 82.0 L 54.0 82.66666666666667 L 55.0 83.33333333333333 L 56.0 84.0 L 57.0 85.0 L 58.0 85.66666666666667 L 58.5 86.0 Z" stroke="none" fill="rgb(255,255,255)" />
<path d="M 81.5 70.5 L 82.0 70.66666666666667 L 83.0 71.33333333333333 L 84.0 71.66666666666667 L 85.0 72.0 L 85.66666666666667 71.66666666666667 L 86.0 71.0 L 86.0 70.0 L 86.0 69.0 L 86.0 68.0 L 86.0 67.0 L 86.0 66.0 L 86.0 65.0 L 86.0 64.0 L 86.0 63.0 L 86.0 62.0 L 86.0 61.0 L 86.0 60.0 L 86.0 59.0 L 86.0 58.0 L 86.0 57.0 L 85.66666666666667 56.333333333333336 L 85.0 56.0 L 84.0 56.333333333333336 L 83.0 56.666666666666664 L 82.0 57.333333333333336 L 81.0 57.666666666666664 L 80.0 58.333333333333336 L 79.0 58.666666666666664 L 78.0 59.333333333333336 L 77.0 60.0 L 76.0 60.666666666666664 L 75.0 61.333333333333336 L 74.0 61.666666666666664 L 73.0 62.333333333333336 L 72.0 62.666666666666664 L 71.33333333333333 63.333333333333336 L 71.0 64.0 L 71.33333333333333 64.66666666666667 L 72.0 65.33333333333333 L 73.0 65.66666666666667 L 74.0 66.33333333333333 L 75.0 66.66666666666667 L 76.0 67.33333333333333 L 77.0 67.66666666666667 L 78.0 68.33333333333333 L 79.0 69.0 L 80.0 69.66666666666667 L 80.5 70.0 Z" stroke="none" fill="rgb(255,255,255)" />
<path d="M 57.5 57.0 L 58.0 57.333333333333336 L 59.0 57.666666666666664 L 60.0 58.0 L 60.666666666666664 57.666666666666664 L 61.0 57.0 L 61.0 56.0 L 61.0 55.0 L 61.0 54.0 L 61.0 53.0 L 61.0 52.0 L 61.0 51.0 L 61.0 50.0 L 61.0 49.0 L 61.0 48.0 L 61.0 47.0 L 61.0 46.0 L 61.0 45.0 L 61.0 44.0 L 61.0 43.0 L 61.0 42.0 L 60.666666666666664 41.333333333333336 L 60.0 41.333333333333336 L 59.0 42.0 L 58.0 43.0 L 57.0 43.666666666666664 L 56.0 44.333333333333336 L 55.0 45.0 L 54.0 45.666666666666664 L 53.0 46.333333333333336 L 52.0 46.666666666666664 L 51.0 47.333333333333336 L 50.0 47.666666666666664 L 49.0 48.0 L 48.0 48.333333333333336 L 47.0 48.666666666666664 L 46.0 49.0 L 45.333333333333336 49.333333333333336 L 45.333333333333336 50.0 L 46.0 50.666666666666664 L 47.0 51.333333333333336 L 48.0 51.666666666666664 L 49.0 52.333333333333336 L 50.0 52.666666666666664 L 51.0 53.333333333333336 L 52.0 54.0 L 53.0 54.666666666666664 L 54.0 55.333333333333336 L 55.0 55.666666666666664 L 56.0 56.333333333333336 L 56.5 56.5 Z" stroke="none" fill="rgb(255,255,255)" />
<path d="M 76.5 81.0 L 77.0 80.66666666666667 L 78.0 80.0 L 79.0 79.33333333333333 L 80.0 78.66666666666667 L 81.0 78.33333333333333 L 81.66666666666667 77.66666666666667 L 81.66666666666667 77.33333333333333 L 81.0 76.66666666666667 L 80.0 76.0 L 79.0 75.33333333333333 L 78.0 74.66666666666667 L 77.0 74.33333333333333 L 76.0 73.66666666666667 L 75.0 73.33333333333333 L 74.0 72.66666666666667 L 73.0 72.33333333333333 L 72.0 71.66666666666667 L 71.0 71.0 L 70.0 70.33333333333333 L 69.0 69.66666666666667 L 68.0 69.33333333333333 L 67.33333333333333 69.33333333333333 L 67.0 70.0 L 67.0 71.0 L 67.0 72.0 L 67.0 73.0 L 67.0 74.0 L 67.0 75.0 L 67.0 76.0 L 67.0 77.0 L 67.0 78.0 L 67.0 79.0 L 67.0 80.0 L 67.0 81.0 L 67.0 82.0 L 67.0 83.0 L 67.0 84.0 L 67.0 85.0 L 67.33333333333333 85.66666666666667 L 68.0 86.0 L 69.0 85.66666666666667 L 70.0 85.0 L 71.0 84.0 L 72.0 83.33333333333333 L 73.0 82.66666666666667 L 74.0 82.33333333333333 L 75.0 81.66666666666667 L 75.5 81.5 Z" stroke="none" fill="rgb(255,255,255)" />
<path d="M 52.5 67.0 L 53.0 66.66666666666667 L 54.0 66.0 L 55.0 65.33333333333333 L 56.0 64.66666666666667 L 56.666666666666664 64.0 L 56.666666666666664 63.333333333333336 L 56.0 62.666666666666664 L 55.0 62.333333333333336 L 54.0 61.666666666666664 L 53.0 61.0 L 52.0 60.333333333333336 L 51.0 59.666666666666664 L 50.0 59.333333333333336 L 49.0 58.666666666666664 L 48.0 58.333333333333336 L 47.0 57.666666666666664 L 46.0 57.0 L 45.0 56.333333333333336 L 44.0 55.666666666666664 L 43.0 55.333333333333336 L 42.333333333333336 55.333333333333336 L 42.0 56.0 L 42.0 57.0 L 42.0 58.0 L 42.333333333333336 59.0 L 42.666666666666664 60.0 L 43.0 61.0 L 43.0 62.0 L 43.0 63.0 L 43.0 64.0 L 42.666666666666664 65.0 L 42.333333333333336 66.0 L 42.0 67.0 L 42.0 68.0 L 42.0 69.0 L 42.0 70.0 L 42.0 71.0 L 42.333333333333336 71.66666666666667 L 43.0 72.0 L 44.0 71.66666666666667 L 45.0 71.0 L 46.0 70.33333333333333 L 47.0 69.66666666666667 L 48.0 69.33333333333333 L 49.0 68.66666666666667 L 50.0 68.33333333333333 L 51.0 67.66666666666667 L 51.5 67.5 Z" stroke="none" fill="rgb(255,255,255)" />
<path d="M 69.5 57.5 L 70.0 57.0 L 71.0 56.333333333333336 L 72.0 55.666666666666664 L 73.0 55.333333333333336 L 74.0 54.666666666666664 L 75.0 54.333333333333336 L 76.0 53.666666666666664 L 77.0 53.333333333333336 L 78.0 52.666666666666664 L 79.0 52.0 L 80.0 51.333333333333336 L 80.66666666666667 50.666666666666664 L 81.0 50.0 L 80.66666666666667 49.333333333333336 L 80.0 48.666666666666664 L 79.0 48.333333333333336 L 78.0 47.666666666666664 L 77.0 47.333333333333336 L 76.0 46.666666666666664 L 75.0 46.0 L 74.0 45.333333333333336 L 73.0 44.666666666666664 L 72.0 44.0 L 71.0 43.333333333333336 L 70.0 42.666666666666664 L 69.0 42.0 L 68.0 41.333333333333336 L 67.33333333333333 41.333333333333336 L 67.0 42.0 L 67.0 43.0 L 67.0 44.0 L 67.0 45.0 L 67.0 46.0 L 67.0 47.0 L 67.0 48.0 L 67.0 49.0 L 67.0 50.0 L 67.0 51.0 L 67.0 52.0 L 67.0 53.0 L 67.0 54.0 L 67.0 55.0 L 67.0 56.0 L 67.0 57.0 L 67.33333333333333 57.666666666666664 L 68.0 58.0 L 68.5 58.0 Z" stroke="none" fill="rgb(255,255,255)" />
<path d="M 18.0 41.5 L 17.666666666666668 41.333333333333336 L 17.333333333333332 41.333333333333336 L 17.333333333333332 41.666666666666664 L 17.5 42.0 Z" stroke="none" fill="rgb(255,255,255)" />
<path d="M 17.5 86.0 L 17.666666666666668 85.66666666666667 L 17.666666666666668 85.33333333333333 L 17.333333333333332 85.33333333333333 L 17.0 85.5 Z" stroke="none" fill="rgb(255,255,255)" />
</svg>
