<?xml version="1.0" encoding="UTF-8" standalone="no"?>
<!DOCTYPE svg PUBLIC "-//W3C//DTD SVG 1.1//EN"
"http://www.w3.org/Graphics/SVG/1.1/DTD/svg11.dtd">
<svg width="128" height="128" xmlns="http://www.w3.org/2000/svg" version="1.1">
<path d="M 26.5 128.0 L 27.0 128.0 L 28.0 128.0 L 29.0 128.0 L 30.0 128.0 L 31.0 128.0 L 32.0 128.0 L 33.0 128.0 L 34.0 128.0 L 35.0 128.0 L 36.0 128.0 L 37.0 128.0 L 38.0 128.0 L 39.0 128.0 L 40.0 128.0 L 41.0 128.0 L 42.0 128.0 L 43.0 128.0 L 44.0 128.0 L 45.0 128.0 L 46.0 128.0 L 47.0 128.0 L 48.0 128.0 L 49.0 128.0 L 50.0 128.0 L 51.0 128.0 L 52.0 128.0 L 53.0 128.0 L 54.0 128.0 L 55.0 128.0 L 56.0 128.0 L 57.0 128.0 L 58.0 128.0 L 59.0 128.0 L 60.0 128.0 L 61.0 128.0 L 62.0 128.0 L 63.0 128.0 L 64.0 128.0 L 65.0 128.0 L 66.0 128.0 L 67.0 128.0 L 68.0 128.0 L 69.0 128.0 L 70.0 128.0 L 71.0 128.0 L 72.0 128.0 L 73.0 128.0 L 74.0 128.0 L 75.0 128.0 L 76.0 128.0 L 77.0 128.0 L 78.0 128.0 L 79.0 128.0 L 80.0 128.0 L 81.0 128.0 L 82.0 128.0 L 83.0 128.0 L 84.0 128.0 L 85.0 128.0 L 86.0 128.0 L 87.0 128.0 L 88.0 128.0 L 89.0 128.0 L 90.0 128.0 L 91.0 128.0 L 92.0 128.0 L 93.0 128.0 L 94.0 128.0 L 95.0 128.0 L 96.0 128.0 L 97.0 128.0 L 98.0 128.0 L 99.0 128.0 L 100.0 128.0 L 101.0 128.0 L 102.0 128.0 L 103.0 128.0 L 104.0 128.0 L 105.0 128.0 L 106.0 128.0 L 107.0 128.0 L 108.0 128.0 L 109.0 128.0 L 110.0 128.0 L 111.0 128.0 L 112.0 128.0 L 113.0 128.0 L 114.0 128.0 L 115.0 128.0 L 116.0 128.0 L 117.0 128.0 L 118.0 128.0 L 119.0 128.0 L 120.0 128.0 L 121.0 128.0 L 122.0 128.0 L 123.0 128.0 L 124.0 128.0 L 125.0 128.0 L 126.0 128.0 L 127.0 128.0 L 127.66666666666667 127.66666666666667 L 128.0 127.0 L 128.0 126.0 L 128.0 125.0 L 128.0 124.0 L 128.0 123.0 L 128.0 122.0 L 128.0 121.0 L 128.0 120.0 L 128.0 119.0 L 128.0 118.0 L 128.0 117.0 L 128.0 116.0 L 128.0 115.0 L 128.0 114.0 L 128.0 113.0 L 128.0 112.0 L 128.0 111.0 L 128.0 110.0 L 128.0 109.0 L 128.0 108.0 L 128.0 107.0 L 128.0 106.0 L 128.0 105.0 L 128.0 104.0 L 128.0 103.0 L 128.0 102.0 L 128.0 101.0 L 128.0 100.0 L 128.0 99.0 L 128.0 98.0 L 128.0 97.0 L 128.0 96.0 L 128.0 95.0 L 128.0 94.0 L 128.0 93.0 L 128.0 92.0 L 128.0 91.0 L 128.0 90.0 L 128.0 89.0 L 128.0 88.0 L 128.0 87.0 L 128.0 86.0 L 128.0 85.0 L 128.0 84.0 L 128.0 83.0 L 128.0 82.0 L 128.0 81.0 L 128.0 80.0 L 128.0 79.0 L 128.0 78.0 L 128.0 77.0 L 128.0 76.0 L 128.0 75.0 L 128.0 74.0 L 128.0 73.0 L 128.0 72.0 L 128.0 71.0 L 128.0 70.0 L 128.0 69.0 L 128.0 68.0 L 128.0 67.0 L 128.0 66.0 L 128.0 65.0 L 128.0 64.0 L 128.0 63.0 L 128.0 62.0 L 128.0 61.0 L 128.0 60.0 L 128.0 59.0 L 128.0 58.0 L 128.0 57.0 L 128.0 56.0 L 128.0 55.0 L 128.0 54.0 L 128.0 53.0 L 128.0 52.0 L 128.0 51.0 L 128.0 50.0 L 128.0 49.0 L 128.0 48.0 L 128.0 47.0 L 128.0 46.0 L 128.0 45.0 L 128.0 44.0 L 128.0 43.0 L 128.0 42.0 L 128.0 41.0 L 128.0 40.0 L 128.0 39.0 L 128.0 38.0 L 128.0 37.0 L 128.0 36.0 L 128.0 35.0 L 128.0 34.0 L 128.0 33.0 L 128.0 32.0 L 128.0 31.0 L 128.0 30.0 L 128.0 29.0 L 128.0 28.0 L 128.0 27.0 L 128.0 26.0 L 128.0 25.0 L 128.0 24.0 L 128.0 23.0 L 128.0 22.0 L 128.0 21.0 L 128.0 20.0 L 128.0 19.0 L 128.0 18.0 L 128.0 17.0 L 128.0 16.0 L 128.0 15.0 L 128.0 14.0 L 128.0 13.0 L 128.0 12.0 L 128.0 11.0 L 128.0 10.0 L 128.0 9.0 L 128.0 8.0 L 128.0 7.0 L 128.0 6.0 L 128.0 5.0 L 128.0 4.0 L 128.0 3.0 L 128.0 2.0 L 128.0 1.0 L 127.66666666666667 0.3333333333333333 L 127.0 0.0 L 126.0 0.0 L 125.0 0.0 L 124.0 0.0 L 123.0 0.0 L 122.0 0.0 L 121.0 0.0 L 120.0 0.0 L 119.0 0.0 L 118.0 0.0 L 117.0 0.0 L 116.0 0.0 L 115.0 0.0 L 114.0 0.0 L 113.0 0.0 L 112.0 0.0 L 111.0 0.0 L 110.0 0.0 L 109.0 0.0 L 108.0 0.0 L 107.0 0.0 L 106.0 0.0 L 105.0 0.0 L 104.0 0.0 L 103.0 0.0 L 102.0 0.0 L 101.0 0.0 L 100.0 0.0 L 99.0 0.0 L 98.0 0.0 L 97.0 0.0 L 96.0 0.0 L 95.0 0.0 L 94.0 0.0 L 93.0 0.0 L 92.0 0.0 L 91.0 0.0 L 90.0 0.0 L 89.0 0.0 L 88.0 0.0 L 87.0 0.0 L 86.0 0.0 L 85.0 0.0 L 84.0 0.0 L 83.0 0.0 L 82.0 0.0 L 81.0 0.0 L 80.0 0.0 L 79.0 0.0 L 78.0 0.0 L 77.0 0.0 L 76.0 0.0 L 75.0 0.0 L 74.0 0.0 L 73.0 0.0 L 72.0 0.0 L 71.0 0.0 L 70.0 0.0 L 69.0 0.0 L 68.0 0.0 L 67.0 0.0 L 66.0 0.0 L 65.0 0.0 L 64.0 0.0 L 63.0 0.0 L 62.0 0.0 L 61.0 0.0 L 60.0 0.0 L 59.0 0.0 L 58.0 0.0 L 57.0 0.0 L 56.0 0.0 L 55.0 0.0 L 54.0 0.0 L 53.0 0.0 L 52.0 0.0 L 51.0 0.0 L 50.0 0.0 L 49.0 0.0 L 48.0 0.0 L 47.0 0.0 L 46.0 0.0 L 45.0 0.0 L 44.0 0.0 L 43.0 0.0 L 42.0 0.0 L 41.0 0.0 L 40.0 0.0 L 39.0 0.0 L 38.0 0.0 L 37.0 0.0 L 36.0 0.0 L 35.0 0.0 L 34.0 0.0 L 33.0 0.0 L 32.0 0.0 L 31.0 0.0 L 30.0 0.0 L 29.0 0.0 L 28.0 0.0 L 27.0 0.0 L 26.0 0.0 L 25.0 0.0 L 24.0 0.0 L 23.0 0.0 L 22.0 0.0 L 21.0 0.0 L 20.0 0.0 L 19.0 0.0 L 18.0 0.0 L 17.0 0.0 L 16.0 0.0 L 15.0 0.0 L 14.0 0.0 L 13.0 0.0 L 12.0 0.0 L 11.0 0.0 L 10.0 0.0 L 9.0 0.0 L 8.0 0.0 L 7.0 0.0 L 6.0 0.0 L 5.0 0.0 L 4.0 0.0 L 3.0 0.0 L 2.0 0.0 L 1.0 0.0 L 0.3333333333333333 0.3333333333333333 L 0.0 1.0 L 0.0 2.0 L 0.0 3.0 L 0.0 4.0 L 0.0 5.0 L 0.0 6.0 L 0.0 7.0 L 0.0 8.0 L 0.0 9.0 L 0.0 10.0 L 0.0 11.0 L 0.0 12.0 L 0.0 13.0 L 0.0 14.0 L 0.0 15.0 L 0.0 16.0 L 0.0 17.0 L 0.0 18.0 L 0.0 19.0 L 0.0 20.0 L 0.0 21.0 L 0.0 22.0 L 0.0 23.0 L 0.0 24.0 L 0.0 25.0 L 0.0 26.0 L 0.0 27.0 L 0.0 28.0 L 0.0 29.0 L 0.0 30.0 L 0.0 31.0 L 0.0 32.0 L 0.0 33.0 L 0.0 34.0 L 0.0 35.0 L 0.0 36.0 L 0.0 37.0 L 0.0 38.0 L 0.0 39.0 L 0.0 40.0 L 0.0 41.0 L 0.0 42.0 L 0.0 43.0 L 0.0 44.0 L 0.0 45.0 L 0.0 46.0 L 0.0 47.0 L 0.0 48.0 L 0.0 49.0 L 0.0 50.0 L 0.0 51.0 L 0.0 52.0 L 0.0 53.0 L 0.0 54.0 L 0.0 55.0 L 0.0 56.0 L 0.0 57.0 L 0.0 58.0 L 0.0 59.0 L 0.0 60.0 L 0.0 61.0 L 0.0 62.0 L 0.0 63.0 L 0.0 64.0 L 0.0 65.0 L 0.0 66.0 L 0.0 67.0 L 0.0 68.0 L 0.0 69.0 L 0.0 70.0 L 0.0 71.0 L 0.0 72.0 L 0.0 73.0 L 0.0 74.0 L 0.0 75.0 L 0.0 76.0 L 0.0 77.0 L 0.0 78.0 L 0.0 79.0 L 0.0 80.0 L 0.0 81.0 L 0.0 82.0 L 0.0 83.0 L 0.0 84.0 L 0.0 85.0 L 0.0 86.0 L 0.0 87.0 L 0.0 88.0 L 0.0 89.0 L 0.0 90.0 L 0.0 91.0 L 0.0 92.0 L 0.0 93.0 L 0.0 94.0 L 0.0 95.0 L 0.0 96.0 L 0.0 97.0 L 0.0 98.0 L 0.0 99.0 L 0.0 100.0 L 0.0 101.0 L 0.0 102.0 L 0.0 103.0 L 0.0 104.0 L 0.0 105.0 L 0.0 106.0 L 0.0 107.0 L 0.0 108.0 L 0.0 109.0 L 0.0 110.0 L 0.0 111.0 L 0.0 112.0 L 0.0 113.0 L 0.0 114.0 L 0.0 115.0 L 0.0 116.0 L 0.0 117.0 L 0.0 118.0 L 0.0 119.0 L 0.0 120.0 L 0.0 121.0 L 0.0 122.0 L 0.0 123.0 L 0.0 124.0 L 0.0 125.0 L 0.0 126.0 L 0.0 127.0 L 0.3333333333333333 127.66666666666667 L 1.0 128.0 L 2.0 128.0 L 3.0 128.0 L 4.0 128.0 L 5.0 128.0 L 6.0 128.0 L 7.0 128.0 L 8.0 128.0 L 9.0 128.0 L 10.0 128.0 L 11.0 128.0 L 12.0 128.0 L 13.0 128.0 L 14.0 128.0 L 15.0 128.0 L 16.0 128.0 L 17.0 128.0 L 18.0 128.0 L 19.0 128.0 L 20.0 128.0 L 21.0 128.0 L 22.0 128.0 L 23.0 128.0 L 24.0 128.0 L 25.0 128.0 L 25.5 128.0 Z" stroke="none" fill="rgb(0,0,0)" />
<path d="M 21.0 29.5 L 21.333333333333332 29.0 L 22.0 28.0 L 23.0 27.0 L 24.0 26.0 L 25.0 25.0 L 26.0 24.0 L 27.0 23.0 L 28.0 22.0 L 29.0 21.0 L 30.0 20.333333333333332 L 31.0 19.666666666666668 L 32.0 19.0 L 33.0 18.333333333333332 L 34.0 17.666666666666668 L 35.0 17.0 L 36.0 16.333333333333332 L 37.0 15.666666666666666 L 38.0 15.333333333333334 L 39.0 14.666666666666666 L 40.0 14.333333333333334 L 41.0 13.666666666666666 L 42.0 13.333333333333334 L 43.0 12.666666666666666 L 44.0 12.333333333333334 L 45.0 12.0 L 46.0 11.666666666666666 L 47.0 11.333333333333334 L 48.0 11.0 L 49.0 10.666666666666666 L 50.0 10.666666666666666 L 51.0 10.666666666666666 L 52.0 11.0 L 52.666666666666664 10.666666666666666 L 53.333333333333336 10.0 L 54.0 9.333333333333334 L 55.0 9.333333333333334 L 56.0 9.666666666666666 L 57.0 10.0 L 58.0 10.0 L 59.0 10.0 L 60.0 10.0 L 60.666666666666664 9.666666666666666 L 61.333333333333336 9.0 L 61.666666666666664 8.0 L 61.666666666666664 7.333333333333333 L 61.0 7.0 L 60.0 7.0 L 59.0 7.0 L 58.0 7.0 L 57.0 7.0 L 56.0 7.0 L 55.0 7.0 L 54.0 7.333333333333333 L 53.0 7.666666666666667 L 52.0 8.0 L 51.0 8.0 L 50.0 8.333333333333334 L 49.0 8.666666666666666 L 48.0 9.0 L 47.0 9.333333333333334 L 46.0 9.666666666666666 L 45.0 10.0 L 44.0 10.333333333333334 L 43.0 10.666666666666666 L 42.0 11.0 L 41.0 11.333333333333334 L 40.0 11.666666666666666 L 39.0 12.333333333333334 L 38.0 12.666666666666666 L 37.0 13.333333333333334 L 36.0 14.0 L 35.0 14.666666666666666 L 34.0 15.333333333333334 L 33.0 15.666666666666666 L 32.0 16.333333333333332 L 31.0 17.0 L 30.0 18.0 L 29.0 18.666666666666668 L 28.0 19.333333333333332 L 27.0 20.0 L 26.0 21.0 L 25.0 22.0 L 24.0 23.0 L 23.0 24.0 L 22.0 25.0 L 21.0 26.0 L 20.0 27.0 L 19.333333333333332 28.0 L 18.666666666666668 29.0 L 18.0 30.0 L 17.333333333333332 31.0 L 16.666666666666668 32.0 L 16.0 33.0 L 15.333333333333334 34.0 L 14.666666666666666 35.0 L 14.333333333333334 36.0 L 13.666666666666666 37.0 L 13.333333333333334 38.0 L 12.666666666666666 39.0 L 12.333333333333334 40.0 L 11.666666666666666 41.0 L 11.333333333333334 42.0 L 11.0 43.0 L 10.666666666666666 44.0 L 10.333333333333334 45.0 L 10.0 46.0 L 10.0 47.0 L 9.666666666666666 48.0 L 9.333333333333334 49.0 L 9.0 50.0 L 9.0 51.0 L 8.666666666666666 52.0 L 8.333333333333334 53.0 L 8.0 54.0 L 8.0 55.0 L 8.0 56.0 L 8.333333333333334 56.666666666666664 L 9.0 56.666666666666664 L 10.0 56.333333333333336 L 10.666666666666666 55.666666666666664 L 11.0 55.0 L 10.666666666666666 54.0 L 10.333333333333334 53.0 L 10.333333333333334 52.0 L 10.666666666666666 51.0 L 11.0 50.0 L 11.0 49.0 L 11.333333333333334 48.0 L 11.666666666666666 47.0 L 12.0 46.0 L 12.333333333333334 45.0 L 12.666666666666666 44.0 L 13.333333333333334 43.0 L 13.666666666666666 42.0 L 14.0 41.0 L 14.333333333333334 40.0 L 14.666666666666666 39.0 L 15.333333333333334 38.0 L 16.0 37.0 L 16.666666666666668 36.0 L 17.333333333333332 35.0 L 17.666666666666668 34.0 L 18.333333333333332 33.0 L 19.0 32.0 L 20.0 31.0 L 20.5 30.5 Z" stroke="none" fill="rgb(245,173,38)" />
<path d="M 72.5 9.5 L 73.0 9.333333333333334 L 74.0 9.333333333333334 L 75.0 9.666666666666666 L 76.0 10.0 L 77.0 10.0 L 78.0 10.333333333333334 L 79.0 10.666666666666666 L 80.0 11.0 L 81.0 11.333333333333334 L 82.0 11.666666666666666 L 83.0 12.333333333333334 L 84.0 12.666666666666666 L 85.0 13.0 L 86.0 13.333333333333334 L 87.0 13.666666666666666 L 88.0 14.333333333333334 L 89.0 14.666666666666666 L 90.0 15.333333333333334 L 91.0 16.0 L 92.0 16.666666666666668 L 93.0 17.333333333333332 L 94.0 18.0 L 95.0 18.666666666666668 L 96.0 19.333333333333332 L 97.0 20.0 L 98.0 21.0 L 99.0 22.0 L 100.0 23.0 L 101.0 24.0 L 102.0 25.0 L 103.0 26.0 L 104.0 27.0 L 105.0 28.0 L 106.0 29.0 L 107.0 30.0 L 107.66666666666667 31.0 L 108.33333333333333 32.0 L 109.0 33.0 L 109.66666666666667 34.0 L 110.33333333333333 35.0 L 110.66666666666667 36.0 L 111.33333333333333 37.0 L 112.0 38.0 L 112.66666666666667 39.0 L 113.0 40.0 L 113.33333333333333 41.0 L 113.66666666666667 42.0 L 114.33333333333333 43.0 L 114.66666666666667 44.0 L 115.0 45.0 L 115.33333333333333 46.0 L 115.66666666666667 47.0 L 116.0 48.0 L 116.33333333333333 49.0 L 116.66666666666667 50.0 L 117.0 51.0 L 117.0 52.0 L 117.0 53.0 L 117.33333333333333 54.0 L 118.0 54.666666666666664 L 118.66666666666667 54.666666666666664 L 119.0 54.0 L 119.0 53.0 L 119.0 52.0 L 119.0 51.0 L 118.66666666666667 50.0 L 118.33333333333333 49.0 L 118.0 48.0 L 118.0 47.0 L 117.66666666666667 46.0 L 117.33333333333333 45.0 L 117.0 44.0 L 117.0 43.0 L 117.0 42.0 L 116.66666666666667 41.0 L 116.0 40.0 L 115.0 39.0 L 114.33333333333333 38.0 L 113.66666666666667 37.0 L 113.33333333333333 36.0 L 112.66666666666667 35.0 L 112.0 34.0 L 111.33333333333333 33.0 L 110.66666666666667 32.0 L 110.0 31.0 L 109.33333333333333 30.0 L 108.66666666666667 29.0 L 108.0 28.0 L 107.0 27.0 L 106.0 26.0 L 105.33333333333333 25.0 L 104.66666666666667 24.0 L 104.0 23.0 L 103.0 22.333333333333332 L 102.0 21.666666666666668 L 101.0 21.0 L 100.0 20.0 L 99.0 19.0 L 98.0 18.0 L 97.0 17.333333333333332 L 96.0 16.666666666666668 L 95.0 16.0 L 94.0 15.333333333333334 L 93.0 14.666666666666666 L 92.0 14.333333333333334 L 91.0 13.666666666666666 L 90.0 13.0 L 89.0 12.333333333333334 L 88.0 11.666666666666666 L 87.0 11.333333333333334 L 86.0 10.666666666666666 L 85.0 10.333333333333334 L 84.0 9.666666666666666 L 83.0 9.333333333333334 L 82.0 9.0 L 81.0 9.0 L 80.0 8.666666666666666 L 79.0 8.333333333333334 L 78.0 8.0 L 77.0 8.0 L 76.0 7.666666666666667 L 75.0 7.333333333333333 L 74.0 7.0 L 73.0 7.0 L 72.0 7.0 L 71.0 7.0 L 70.0 7.0 L 69.0 7.0 L 68.0 7.0 L 67.33333333333333 7.333333333333333 L 67.0 8.0 L 67.33333333333333 9.0 L 68.0 9.666666666666666 L 69.0 10.0 L 70.0 10.0 L 71.0 10.0 L 71.5 10.0 Z" stroke="none" fill="rgb(245,173,38)" />
<path d="M 61.5 10.0 L 62.0 10.0 L 63.0 10.0 L 64.0 10.0 L 65.0 10.0 L 66.0 10.0 L 67.0 10.0 L 67.66666666666667 9.666666666666666 L 67.66666666666667 9.0 L 67.0 8.333333333333334 L 66.0 8.0 L 65.0 8.0 L 64.0 8.0 L 63.0 8.0 L 62.0 8.0 L 61.333333333333336 8.333333333333334 L 61.0 9.0 L 61.0 9.5 Z" stroke="none" fill="rgb(246,182,40)" />
<path d="M 21.5 102.5 L 22.0 102.66666666666667 L 23.0 103.0 L 23.666666666666668 102.66666666666667 L 23.666666666666668 102.0 L 23.0 101.0 L 22.0 100.0 L 21.0 99.0 L 20.0 98.0 L 19.333333333333332 97.0 L 18.666666666666668 96.0 L 18.0 95.0 L 17.333333333333332 94.0 L 16.666666666666668 93.0 L 16.0 92.0 L 15.333333333333334 91.0 L 14.666666666666666 90.0 L 14.333333333333334 89.0 L 13.666666666666666 88.0 L 13.333333333333334 87.0 L 12.666666666666666 86.0 L 12.333333333333334 85.0 L 11.666666666666666 84.0 L 11.333333333333334 83.0 L 11.0 82.0 L 10.666666666666666 81.0 L 10.333333333333334 80.0 L 10.0 79.0 L 9.666666666666666 78.0 L 9.333333333333334 77.0 L 9.0 76.0 L 9.0 75.0 L 9.0 74.0 L 8.666666666666666 73.0 L 8.333333333333334 72.0 L 8.333333333333334 71.0 L 8.666666666666666 70.0 L 9.0 69.0 L 9.0 68.0 L 9.0 67.0 L 9.0 66.0 L 9.0 65.0 L 9.0 64.0 L 9.0 63.0 L 9.0 62.0 L 9.0 61.0 L 9.0 60.0 L 9.0 59.0 L 9.0 58.0 L 8.666666666666666 57.0 L 8.333333333333334 56.0 L 8.0 55.0 L 8.333333333333334 54.0 L 8.666666666666666 53.0 L 9.0 52.0 L 9.0 51.0 L 9.333333333333334 50.0 L 9.666666666666666 49.0 L 10.0 48.0 L 10.0 47.0 L 10.333333333333334 46.0 L 10.666666666666666 45.0 L 11.0 44.0 L 11.333333333333334 43.0 L 11.666666666666666 42.0 L 12.333333333333334 41.0 L 12.666666666666666 40.0 L 13.333333333333334 39.0 L 13.666666666666666 38.0 L 14.333333333333334 37.0 L 14.666666666666666 36.0 L 15.333333333333334 35.0 L 16.0 34.0 L 16.666666666666668 33.0 L 17.333333333333332 32.0 L 18.0 31.0 L 18.666666666666668 30.0 L 19.333333333333332 29.0 L 20.0 28.0 L 21.0 27.0 L 22.0 26.0 L 23.0 25.0 L 24.0 24.0 L 25.0 23.0 L 26.0 22.0 L 27.0 21.0 L 28.0 20.0 L 29.0 19.333333333333332 L 30.0 18.666666666666668 L 31.0 18.0 L 32.0 17.0 L 33.0 16.333333333333332 L 34.0 15.666666666666666 L 35.0 15.333333333333334 L 36.0 14.666666666666666 L 37.0 14.0 L 38.0 13.333333333333334 L 39.0 12.666666666666666 L 40.0 12.333333333333334 L 41.0 11.666666666666666 L 42.0 11.333333333333334 L 43.0 11.0 L 44.0 10.666666666666666 L 44.666666666666664 10.0 L 44.666666666666664 9.333333333333334 L 44.0 9.0 L 43.0 9.333333333333334 L 42.0 9.666666666666666 L 41.0 10.0 L 40.0 10.333333333333334 L 39.0 10.666666666666666 L 38.0 11.333333333333334 L 37.0 11.666666666666666 L 36.0 12.333333333333334 L 35.0 12.666666666666666 L 34.0 13.333333333333334 L 33.0 13.666666666666666 L 32.0 14.333333333333334 L 31.0 14.666666666666666 L 30.0 15.333333333333334 L 29.0 15.666666666666666 L 28.0 16.333333333333332 L 27.0 17.0 L 26.0 18.0 L 25.0 18.666666666666668 L 24.0 19.333333333333332 L 23.0 20.0 L 22.0 21.0 L 21.0 22.0 L 20.0 23.0 L 19.0 24.0 L 18.0 25.0 L 17.0 26.0 L 16.333333333333332 27.0 L 15.666666666666666 28.0 L 15.0 29.0 L 14.333333333333334 30.0 L 13.666666666666666 31.0 L 13.0 32.0 L 12.333333333333334 33.0 L 11.666666666666666 34.0 L 11.333333333333334 35.0 L 10.666666666666666 36.0 L 10.333333333333334 37.0 L 9.666666666666666 38.0 L 9.333333333333334 39.0 L 9.0 40.0 L 8.666666666666666 41.0 L 8.333333333333334 42.0 L 8.0 43.0 L 7.666666666666667 44.0 L 7.333333333333333 45.0 L 7.0 46.0 L 7.0 47.0 L 6.666666666666667 48.0 L 6.333333333333333 49.0 L 6.0 50.0 L 6.0 51.0 L 6.0 52.0 L 6.0 53.0 L 5.666666666666667 54.0 L 5.333333333333333 55.0 L 5.0 56.0 L 5.0 57.0 L 5.0 58.0 L 5.0 59.0 L 5.0 60.0 L 5.0 61.0 L 5.0 62.0 L 5.0 63.0 L 5.0 64.0 L 5.0 65.0 L 5.0 66.0 L 5.0 67.0 L 5.0 68.0 L 5.0 69.0 L 5.0 70.0 L 5.333333333333333 71.0 L 5.666666666666667 72.0 L 6.0 73.0 L 6.0 74.0 L 6.0 75.0 L 6.0 76.0 L 6.333333333333333 77.0 L 6.666666666666667 78.0 L 7.0 79.0 L 7.0 80.0 L 7.333333333333333 81.0 L 7.666666666666667 82.0 L 8.0 83.0 L 8.333333333333334 84.0 L 8.666666666666666 85.0 L 9.0 86.0 L 9.333333333333334 87.0 L 9.666666666666666 88.0 L 10.333333333333334 89.0 L 10.666666666666666 90.0 L 11.333333333333334 91.0 L 11.666666666666666 92.0 L 12.333333333333334 93.0 L 13.0 94.0 L 14.0 95.0 L 15.0 96.0 L 16.0 97.0 L 17.0 98.0 L 18.0 99.0 L 19.0 100.0 L 20.0 101.0 L 20.5 101.5 Z" stroke="none" fill="rgb(244,163,35)" />
<path d="M 55.5 10.5 L 55.666666666666664 10.0 L 55.666666666666664 9.333333333333334 L 55.0 9.0 L 54.0 9.0 L 53.333333333333336 9.333333333333334 L 53.0 10.0 L 53.333333333333336 10.666666666666666 L 54.0 11.0 L 54.5 11.0 Z" stroke="none" fill="rgb(246,182,40)" />
<path d="M 105.5 30.5 L 106.0 31.0 L 106.66666666666667 32.0 L 107.33333333333333 33.0 L 108.0 34.0 L 108.66666666666667 35.0 L 109.33333333333333 36.0 L 109.66666666666667 37.0 L 110.33333333333333 38.0 L 111.0 39.0 L 111.66666666666667 40.0 L 112.0 41.0 L 112.33333333333333 42.0 L 112.66666666666667 43.0 L 113.33333333333333 44.0 L 113.66666666666667 45.0 L 114.0 46.0 L 114.33333333333333 47.0 L 114.66666666666667 48.0 L 115.0 49.0 L 115.0 50.0 L 115.33333333333333 51.0 L 116.0 51.666666666666664 L 116.66666666666667 51.666666666666664 L 117.0 51.0 L 117.0 50.0 L 116.66666666666667 49.0 L 116.33333333333333 48.0 L 116.0 47.0 L 115.66666666666667 46.0 L 115.33333333333333 45.0 L 115.0 44.0 L 114.66666666666667 43.0 L 114.33333333333333 42.0 L 113.66666666666667 41.0 L 113.33333333333333 40.0 L 113.0 39.0 L 112.66666666666667 38.0 L 112.0 37.0 L 111.33333333333333 36.0 L 110.66666666666667 35.0 L 110.33333333333333 34.0 L 109.66666666666667 33.0 L 109.0 32.0 L 108.33333333333333 31.0 L 107.66666666666667 30.0 L 107.0 29.0 L 106.0 28.0 L 105.0 27.0 L 104.0 26.0 L 103.0 25.0 L 102.0 24.0 L 101.0 23.0 L 100.0 22.0 L 99.0 21.0 L 98.0 20.0 L 97.0 19.333333333333332 L 96.0 18.666666666666668 L 95.0 18.0 L 94.0 17.333333333333332 L 93.0 16.666666666666668 L 92.0 16.0 L 91.0 15.333333333333334 L 90.0 14.666666666666666 L 89.0 14.333333333333334 L 88.0 13.666666666666666 L 87.0 13.333333333333334 L 86.0 13.0 L 85.0 12.666666666666666 L 84.0 12.333333333333334 L 83.0 11.666666666666666 L 82.0 11.333333333333334 L 81.0 11.0 L 80.0 10.666666666666666 L 79.0 10.333333333333334 L 78.0 10.0 L 77.0 10.0 L 76.0 9.666666666666666 L 75.0 9.333333333333334 L 74.0 9.0 L 73.0 9.0 L 72.33333333333333 9.333333333333334 L 72.0 10.0 L 72.33333333333333 10.666666666666666 L 73.0 11.0 L 74.0 11.0 L 75.0 11.0 L 76.0 11.333333333333334 L 77.0 11.666666666666666 L 78.0 12.0 L 79.0 12.333333333333334 L 80.0 12.666666666666666 L 81.0 13.0 L 82.0 13.333333333333334 L 83.0 13.666666666666666 L 84.0 14.0 L 85.0 14.333333333333334 L 86.0 14.666666666666666 L 87.0 15.333333333333334 L 88.0 15.666666666666666 L 89.0 16.333333333333332 L 90.0 17.0 L 91.0 17.666666666666668 L 92.0 18.333333333333332 L 93.0 19.0 L 94.0 19.666666666666668 L 95.0 20.333333333333332 L 96.0 21.0 L 97.0 22.0 L 98.0 23.0 L 99.0 24.0 L 100.0 25.0 L 101.0 26.0 L 102.0 27.0 L 103.0 28.0 L 104.0 29.0 L 104.5 29.5 Z" stroke="none" fill="rgb(246,182,40)" />
<path d="M 42.5 14.5 L 43.0 14.333333333333334 L 44.0 13.666666666666666 L 45.0 13.333333333333334 L 46.0 13.0 L 47.0 12.666666666666666 L 48.0 12.333333333333334 L 49.0 12.0 L 50.0 11.666666666666666 L 50.666666666666664 11.0 L 50.666666666666664 10.333333333333334 L 50.0 10.0 L 49.0 10.333333333333334 L 48.0 10.666666666666666 L 47.0 11.0 L 46.0 11.333333333333334 L 45.0 11.666666666666666 L 44.0 12.0 L 43.0 12.333333333333334 L 42.0 12.666666666666666 L 41.0 13.333333333333334 L 40.0 13.666666666666666 L 39.0 14.333333333333334 L 38.0 14.666666666666666 L 37.0 15.333333333333334 L 36.0 15.666666666666666 L 35.0 16.333333333333332 L 34.0 17.0 L 33.0 17.666666666666668 L 32.0 18.333333333333332 L 31.0 19.0 L 30.0 19.666666666666668 L 29.0 20.333333333333332 L 28.0 21.0 L 27.0 22.0 L 26.0 23.0 L 25.0 24.0 L 24.0 25.0 L 23.0 26.0 L 22.0 27.0 L 21.333333333333332 28.0 L 20.666666666666668 29.0 L 20.0 30.0 L 19.0 31.0 L 18.333333333333332 32.0 L 17.666666666666668 33.0 L 17.333333333333332 34.0 L 16.666666666666668 35.0 L 16.0 36.0 L 15.333333333333334 37.0 L 14.666666666666666 38.0 L 14.333333333333334 39.0 L 14.0 40.0 L 13.666666666666666 41.0 L 13.333333333333334 42.0 L 12.666666666666666 43.0 L 12.333333333333334 44.0 L 12.0 45.0 L 11.666666666666666 46.0 L 11.333333333333334 47.0 L 11.0 48.0 L 11.0 49.0 L 10.666666666666666 50.0 L 10.333333333333334 51.0 L 10.0 52.0 L 10.0 53.0 L 10.333333333333334 53.666666666666664 L 11.0 53.666666666666664 L 11.666666666666666 53.0 L 12.0 52.0 L 12.0 51.0 L 12.333333333333334 50.0 L 12.666666666666666 49.0 L 13.0 48.0 L 13.0 47.0 L 13.333333333333334 46.0 L 13.666666666666666 45.0 L 14.333333333333334 44.0 L 14.666666666666666 43.0 L 15.0 42.0 L 15.333333333333334 41.0 L 15.666666666666666 40.0 L 16.333333333333332 39.0 L 17.0 38.0 L 17.666666666666668 37.0 L 18.333333333333332 36.0 L 18.666666666666668 35.0 L 19.333333333333332 34.0 L 20.0 33.0 L 21.0 32.0 L 21.666666666666668 31.0 L 22.333333333333332 30.0 L 23.0 29.0 L 24.0 28.0 L 25.0 27.0 L 26.0 26.0 L 27.0 25.0 L 28.0 24.0 L 29.0 23.0 L 30.0 22.0 L 31.0 21.333333333333332 L 32.0 20.666666666666668 L 33.0 20.0 L 34.0 19.333333333333332 L 35.0 18.666666666666668 L 36.0 18.0 L 37.0 17.333333333333332 L 38.0 16.666666666666668 L 39.0 16.333333333333332 L 40.0 15.666666666666666 L 41.0 15.333333333333334 L 41.5 15.0 Z" stroke="none" fill="rgb(246,182,40)" />
<path d="M 95.5 106.5 L 96.0 106.33333333333333 L 97.0 105.66666666666667 L 98.0 105.0 L 99.0 104.0 L 100.0 103.0 L 101.0 102.0 L 102.0 101.0 L 103.0 100.0 L 104.0 99.0 L 105.0 98.0 L 106.0 97.0 L 107.0 96.0 L 108.0 95.0 L 108.66666666666667 94.0 L 109.33333333333333 93.0 L 109.66666666666667 92.0 L 110.0 91.0 L 110.0 90.0 L 110.33333333333333 89.0 L 111.0 88.0 L 111.66666666666667 87.0 L 112.0 86.0 L 112.33333333333333 85.0 L 112.66666666666667 84.0 L 113.33333333333333 83.0 L 113.66666666666667 82.0 L 114.0 81.0 L 114.33333333333333 80.0 L 114.66666666666667 79.0 L 115.0 78.0 L 115.0 77.0 L 115.33333333333333 76.0 L 115.66666666666667 75.0 L 116.0 74.0 L 116.0 73.0 L 116.0 72.0 L 116.33333333333333 71.0 L 116.66666666666667 70.0 L 117.0 69.0 L 117.0 68.0 L 117.0 67.0 L 117.0 66.0 L 117.0 65.0 L 117.0 64.0 L 117.0 63.0 L 117.0 62.0 L 117.0 61.0 L 117.0 60.0 L 117.0 59.0 L 117.0 58.0 L 117.0 57.0 L 116.66666666666667 56.0 L 116.66666666666667 55.0 L 116.66666666666667 54.0 L 117.0 53.0 L 116.66666666666667 52.0 L 116.0 51.0 L 115.33333333333333 50.0 L 115.0 49.0 L 115.0 48.0 L 114.66666666666667 47.0 L 114.33333333333333 46.0 L 114.0 45.0 L 113.66666666666667 44.0 L 113.33333333333333 43.0 L 112.66666666666667 42.0 L 112.33333333333333 41.0 L 112.0 40.0 L 111.66666666666667 39.0 L 111.0 38.0 L 110.33333333333333 37.0 L 109.66666666666667 36.0 L 109.33333333333333 35.0 L 108.66666666666667 34.0 L 108.0 33.0 L 107.33333333333333 32.0 L 106.66666666666667 31.0 L 106.0 30.0 L 105.0 29.0 L 104.0 28.0 L 103.0 27.0 L 102.0 26.0 L 101.0 25.0 L 100.0 24.0 L 99.0 23.0 L 98.0 22.0 L 97.0 21.0 L 96.0 20.333333333333332 L 95.0 19.666666666666668 L 94.0 19.0 L 93.0 18.333333333333332 L 92.0 17.666666666666668 L 91.0 17.0 L 90.0 16.333333333333332 L 89.0 15.666666666666666 L 88.0 15.333333333333334 L 87.0 14.666666666666666 L 86.0 14.333333333333334 L 85.0 14.0 L 84.0 13.666666666666666 L 83.0 13.333333333333334 L 82.0 13.0 L 81.0 12.666666666666666 L 80.0 12.333333333333334 L 79.0 12.0 L 78.0 11.666666666666666 L 77.0 11.333333333333334 L 76.0 11.0 L 75.0 11.0 L 74.0 11.0 L 73.0 10.666666666666666 L 72.0 10.333333333333334 L 71.0 10.0 L 70.0 10.0 L 69.0 10.0 L 68.0 10.0 L 67.0 10.0 L 66.0 10.0 L 65.0 10.0 L 64.0 10.0 L 63.0 10.0 L 62.0 10.0 L 61.0 10.0 L 60.0 10.0 L 59.0 10.0 L 58.0 10.0 L 57.0 10.0 L 56.0 10.0 L 55.0 10.333333333333334 L 54.0 10.666666666666666 L 53.0 11.0 L 52.0 11.0 L 51.0 11.0 L 50.0 11.333333333333334 L 49.0 11.666666666666666 L 48.0 12.0 L 47.0 12.333333333333334 L 46.0 12.666666666666666 L 45.0 13.0 L 44.0 13.333333333333334 L 43.0 13.666666666666666 L 42.0 14.333333333333334 L 41.0 14.666666666666666 L 40.0 15.333333333333334 L 39.0 15.666666666666666 L 38.0 16.333333333333332 L 37.0 16.666666666666668 L 36.0 17.333333333333332 L 35.0 18.0 L 34.0 18.666666666666668 L 33.0 19.333333333333332 L 32.0 20.0 L 31.0 20.666666666666668 L 30.0 21.333333333333332 L 29.0 22.0 L 28.0 23.0 L 27.0 24.0 L 26.0 25.0 L 25.0 26.0 L 24.0 27.0 L 23.0 28.0 L 22.333333333333332 29.0 L 21.666666666666668 30.0 L 21.0 31.0 L 20.0 32.0 L 19.333333333333332 33.0 L 18.666666666666668 34.0 L 18.333333333333332 35.0 L 17.666666666666668 36.0 L 17.0 37.0 L 16.333333333333332 38.0 L 15.666666666666666 39.0 L 15.333333333333334 40.0 L 15.0 41.0 L 14.666666666666666 42.0 L 14.333333333333334 43.0 L 13.666666666666666 44.0 L 13.333333333333334 45.0 L 13.0 46.0 L 13.0 47.0 L 12.666666666666666 48.0 L 12.333333333333334 49.0 L 12.0 50.0 L 12.0 51.0 L 11.666666666666666 52.0 L 11.333333333333334 53.0 L 11.0 54.0 L 11.0 55.0 L 11.0 56.0 L 11.0 57.0 L 11.0 58.0 L 11.0 59.0 L 10.666666666666666 60.0 L 10.333333333333334 61.0 L 10.0 62.0 L 10.0 63.0 L 10.0 64.0 L 10.333333333333334 65.0 L 10.666666666666666 66.0 L 11.0 67.0 L 11.0 68.0 L 11.0 69.0 L 11.0 70.0 L 11.0 71.0 L 11.0 72.0 L 11.333333333333334 73.0 L 11.666666666666666 74.0 L 12.0 75.0 L 12.0 76.0 L 12.0 77.0 L 12.0 78.0 L 12.0 79.0 L 12.333333333333334 80.0 L 12.666666666666666 81.0 L 13.333333333333334 82.0 L 13.666666666666666 83.0 L 14.0 84.0 L 14.333333333333334 85.0 L 14.666666666666666 86.0 L 15.333333333333334 87.0 L 16.0 88.0 L 16.666666666666668 89.0 L 17.333333333333332 90.0 L 17.666666666666668 91.0 L 18.333333333333332 92.0 L 19.0 93.0 L 20.0 94.0 L 20.666666666666668 95.0 L 21.333333333333332 96.0 L 22.0 97.0 L 23.0 98.0 L 24.0 99.0 L 25.0 100.0 L 26.0 101.0 L 27.0 102.0 L 28.0 103.0 L 29.0 104.0 L 30.0 105.0 L 31.0 106.0 L 32.0 107.0 L 33.0 108.0 L 34.0 109.0 L 35.0 109.66666666666667 L 36.0 110.33333333333333 L 37.0 110.66666666666667 L 38.0 111.33333333333333 L 39.0 111.66666666666667 L 40.0 112.0 L 41.0 112.0 L 42.0 112.33333333333333 L 43.0 112.66666666666667 L 44.0 113.0 L 44.666666666666664 112.66666666666667 L 44.666666666666664 112.0 L 44.333333333333336 111.0 L 43.666666666666664 110.33333333333333 L 43.0 109.66666666666667 L 42.0 109.33333333333333 L 41.0 108.66666666666667 L 40.0 108.33333333333333 L 39.0 107.66666666666667 L 38.0 107.33333333333333 L 37.0 106.66666666666667 L 36.0 106.0 L 35.0 105.0 L 34.0 104.33333333333333 L 33.0 103.66666666666667 L 32.0 103.0 L 31.0 102.0 L 30.0 101.0 L 29.0 100.0 L 28.0 99.0 L 27.0 98.0 L 26.0 97.0 L 25.0 96.0 L 24.0 95.0 L 23.0 94.0 L 22.333333333333332 93.0 L 21.666666666666668 92.0 L 21.0 91.0 L 20.333333333333332 90.0 L 19.666666666666668 89.0 L 19.333333333333332 88.0 L 18.666666666666668 87.0 L 18.333333333333332 86.0 L 17.666666666666668 85.0 L 17.333333333333332 84.0 L 16.666666666666668 83.0 L 16.333333333333332 82.0 L 15.666666666666666 81.0 L 15.333333333333334 80.0 L 15.0 79.0 L 15.0 78.0 L 14.666666666666666 77.0 L 14.333333333333334 76.0 L 14.0 75.0 L 13.666666666666666 74.0 L 13.333333333333334 73.0 L 13.0 72.0 L 13.0 71.0 L 13.0 70.0 L 13.0 69.0 L 13.0 68.0 L 12.666666666666666 67.0 L 12.333333333333334 66.0 L 12.0 65.0 L 12.0 64.0 L 12.0 63.0 L 12.0 62.0 L 12.0 61.0 L 12.333333333333334 60.0 L 12.666666666666666 59.0 L 13.0 58.0 L 13.0 57.0 L 13.0 56.0 L 13.0 55.0 L 13.0 54.0 L 13.333333333333334 53.0 L 13.666666666666666 52.0 L 14.0 51.0 L 14.333333333333334 50.0 L 14.666666666666666 49.0 L 15.0 48.0 L 15.333333333333334 47.0 L 15.666666666666666 46.0 L 16.0 45.0 L 16.333333333333332 44.0 L 16.666666666666668 43.0 L 17.333333333333332 42.0 L 17.666666666666668 41.0 L 18.333333333333332 40.0 L 18.666666666666668 39.0 L 19.333333333333332 38.0 L 19.666666666666668 37.0 L 20.333333333333332 36.0 L 21.0 35.0 L 21.666666666666668 34.0 L 22.333333333333332 33.0 L 23.0 32.0 L 24.0 31.0 L 25.0 30.0 L 26.0 29.0 L 27.0 28.0 L 28.0 27.0 L 29.0 26.0 L 30.0 25.0 L 31.0 24.0 L 32.0 23.0 L 33.0 22.333333333333332 L 34.0 21.666666666666668 L 35.0 21.0 L 36.0 20.333333333333332 L 37.0 19.666666666666668 L 38.0 19.0 L 39.0 18.333333333333332 L 40.0 17.666666666666668 L 41.0 17.333333333333332 L 42.0 16.666666666666668 L 43.0 16.333333333333332 L 44.0 15.666666666666666 L 45.0 15.333333333333334 L 46.0 15.0 L 47.0 14.666666666666666 L 48.0 14.333333333333334 L 49.0 14.0 L 50.0 13.666666666666666 L 51.0 13.333333333333334 L 52.0 13.0 L 53.0 13.0 L 54.0 13.0 L 55.0 12.666666666666666 L 56.0 12.333333333333334 L 57.0 12.0 L 58.0 12.0 L 59.0 12.0 L 60.0 12.0 L 61.0 12.0 L 62.0 12.0 L 63.0 12.0 L 64.0 12.0 L 65.0 12.0 L 66.0 12.0 L 67.0 12.0 L 68.0 12.0 L 69.0 12.0 L 70.0 12.0 L 71.0 12.0 L 72.0 12.333333333333334 L 73.0 12.666666666666666 L 74.0 13.0 L 75.0 13.0 L 76.0 13.333333333333334 L 77.0 13.666666666666666 L 78.0 14.0 L 79.0 14.333333333333334 L 80.0 14.666666666666666 L 81.0 15.0 L 82.0 15.333333333333334 L 83.0 15.666666666666666 L 84.0 16.333333333333332 L 85.0 16.666666666666668 L 86.0 17.333333333333332 L 87.0 17.666666666666668 L 88.0 18.333333333333332 L 89.0 18.666666666666668 L 90.0 19.333333333333332 L 91.0 20.0 L 92.0 20.666666666666668 L 93.0 21.333333333333332 L 94.0 22.0 L 95.0 23.0 L 96.0 23.666666666666668 L 97.0 24.333333333333332 L 98.0 25.0 L 99.0 26.0 L 100.0 27.0 L 101.0 28.0 L 102.0 29.0 L 102.66666666666667 30.0 L 103.33333333333333 31.0 L 104.0 32.0 L 105.0 33.0 L 105.66666666666667 34.0 L 106.33333333333333 35.0 L 107.0 36.0 L 107.66666666666667 37.0 L 108.33333333333333 38.0 L 108.66666666666667 39.0 L 109.33333333333333 40.0 L 109.66666666666667 41.0 L 110.33333333333333 42.0 L 110.66666666666667 43.0 L 111.33333333333333 44.0 L 111.66666666666667 45.0 L 112.0 46.0 L 112.33333333333333 47.0 L 112.66666666666667 48.0 L 113.0 49.0 L 113.0 50.0 L 113.33333333333333 51.0 L 113.66666666666667 52.0 L 114.0 53.0 L 114.0 54.0 L 114.33333333333333 55.0 L 114.66666666666667 56.0 L 115.0 57.0 L 115.0 58.0 L 115.0 59.0 L 115.0 60.0 L 115.0 61.0 L 115.0 62.0 L 115.0 63.0 L 115.0 64.0 L 115.0 65.0 L 115.0 66.0 L 115.0 67.0 L 115.0 68.0 L 115.0 69.0 L 114.66666666666667 70.0 L 114.33333333333333 71.0 L 114.0 72.0 L 114.0 73.0 L 114.0 74.0 L 113.66666666666667 75.0 L 113.33333333333333 76.0 L 113.0 77.0 L 112.66666666666667 78.0 L 112.33333333333333 79.0 L 112.0 80.0 L 111.66666666666667 81.0 L 111.33333333333333 82.0 L 110.66666666666667 83.0 L 110.33333333333333 84.0 L 109.66666666666667 85.0 L 109.33333333333333 86.0 L 108.66666666666667 87.0 L 108.33333333333333 88.0 L 107.66666666666667 89.0 L 107.0 90.0 L 106.33333333333333 91.0 L 105.66666666666667 92.0 L 105.0 93.0 L 104.0 94.0 L 103.33333333333333 95.0 L 102.66666666666667 96.0 L 102.0 97.0 L 101.0 98.0 L 100.0 99.0 L 99.0 100.0 L 98.0 101.0 L 97.0 101.66666666666667 L 96.0 102.33333333333333 L 95.0 103.0 L 94.0 104.0 L 93.0 105.0 L 92.0 105.66666666666667 L 91.0 106.33333333333333 L 90.0 106.66666666666667 L 89.0 107.33333333333333 L 88.33333333333333 108.0 L 88.33333333333333 108.66666666666667 L 89.0 109.0 L 90.0 109.0 L 91.0 109.0 L 92.0 108.66666666666667 L 93.0 108.33333333333333 L 94.0 107.66666666666667 L 94.5 107.5 Z" stroke="none" fill="rgb(247,191,43)" />
<path d="M 101.5 98.5 L 102.0 98.0 L 102.66666666666667 97.0 L 103.33333333333333 96.0 L 104.0 95.0 L 105.0 94.0 L 105.66666666666667 93.0 L 106.33333333333333 92.0 L 107.0 91.0 L 107.66666666666667 90.0 L 108.33333333333333 89.0 L 108.66666666666667 88.0 L 109.33333333333333 87.0 L 109.66666666666667 86.0 L 110.33333333333333 85.0 L 110.66666666666667 84.0 L 111.33333333333333 83.0 L 111.66666666666667 82.0 L 112.0 81.0 L 112.33333333333333 80.0 L 112.66666666666667 79.0 L 113.0 78.0 L 113.33333333333333 77.0 L 113.66666666666667 76.0 L 114.0 75.0 L 114.0 74.0 L 114.0 73.0 L 114.33333333333333 72.0 L 114.66666666666667 71.0 L 115.0 70.0 L 115.0 69.0 L 115.0 68.0 L 115.0 67.0 L 115.0 66.0 L 115.0 65.0 L 115.0 64.0 L 115.0 63.0 L 115.0 62.0 L 115.0 61.0 L 115.0 60.0 L 115.0 59.0 L 115.0 58.0 L 115.0 57.0 L 115.0 56.0 L 114.66666666666667 55.0 L 114.33333333333333 54.0 L 114.0 53.0 L 114.0 52.0 L 113.66666666666667 51.0 L 113.33333333333333 50.0 L 113.0 49.0 L 113.0 48.0 L 112.66666666666667 47.0 L 112.33333333333333 46.0 L 112.0 45.0 L 111.66666666666667 44.0 L 111.33333333333333 43.0 L 110.66666666666667 42.0 L 110.33333333333333 41.0 L 109.66666666666667 40.0 L 109.33333333333333 39.0 L 108.66666666666667 38.0 L 108.33333333333333 37.0 L 107.66666666666667 36.0 L 107.0 35.0 L 106.33333333333333 34.0 L 105.66666666666667 33.0 L 105.0 32.0 L 104.0 31.0 L 103.33333333333333 30.0 L 102.66666666666667 29.0 L 102.0 28.0 L 101.0 27.0 L 100.0 26.0 L 99.0 25.0 L 98.0 24.333333333333332 L 97.0 23.666666666666668 L 96.0 23.0 L 95.0 22.0 L 94.0 21.333333333333332 L 93.0 20.666666666666668 L 92.0 20.0 L 91.0 19.333333333333332 L 90.0 18.666666666666668 L 89.0 18.333333333333332 L 88.0 17.666666666666668 L 87.0 17.333333333333332 L 86.0 16.666666666666668 L 85.0 16.333333333333332 L 84.0 15.666666666666666 L 83.0 15.333333333333334 L 82.0 15.0 L 81.0 14.666666666666666 L 80.0 14.333333333333334 L 79.0 14.0 L 78.0 13.666666666666666 L 77.0 13.333333333333334 L 76.0 13.0 L 75.0 13.0 L 74.0 12.666666666666666 L 73.0 12.333333333333334 L 72.0 12.0 L 71.0 12.0 L 70.0 12.0 L 69.0 12.0 L 68.0 12.0 L 67.0 12.0 L 66.0 12.0 L 65.0 12.0 L 64.0 12.0 L 63.0 12.0 L 62.0 12.0 L 61.0 12.0 L 60.0 12.0 L 59.0 12.0 L 58.0 12.0 L 57.0 12.0 L 56.0 12.0 L 55.0 12.333333333333334 L 54.0 12.666666666666666 L 53.0 13.0 L 52.0 13.0 L 51.0 13.0 L 50.0 13.333333333333334 L 49.0 13.666666666666666 L 48.0 14.0 L 47.0 14.333333333333334 L 46.0 14.666666666666666 L 45.0 15.0 L 44.0 15.333333333333334 L 43.0 15.666666666666666 L 42.0 16.333333333333332 L 41.0 16.666666666666668 L 40.0 17.333333333333332 L 39.0 17.666666666666668 L 38.0 18.333333333333332 L 37.0 19.0 L 36.0 19.666666666666668 L 35.0 20.333333333333332 L 34.0 21.0 L 33.0 21.666666666666668 L 32.0 22.333333333333332 L 31.0 23.0 L 30.0 24.0 L 29.0 25.0 L 28.0 26.0 L 27.0 27.0 L 26.0 28.0 L 25.0 29.0 L 24.0 30.0 L 23.0 31.0 L 22.333333333333332 32.0 L 21.666666666666668 33.0 L 21.0 34.0 L 20.333333333333332 35.0 L 19.666666666666668 36.0 L 19.333333333333332 37.0 L 18.666666666666668 38.0 L 18.333333333333332 39.0 L 17.666666666666668 40.0 L 17.333333333333332 41.0 L 16.666666666666668 42.0 L 16.333333333333332 43.0 L 16.0 44.0 L 15.666666666666666 45.0 L 15.333333333333334 46.0 L 15.0 47.0 L 14.666666666666666 48.0 L 14.333333333333334 49.0 L 14.0 50.0 L 13.666666666666666 51.0 L 13.333333333333334 52.0 L 13.0 53.0 L 13.0 54.0 L 13.0 55.0 L 13.0 56.0 L 13.0 57.0 L 12.666666666666666 58.0 L 12.333333333333334 59.0 L 12.0 60.0 L 12.0 61.0 L 12.0 62.0 L 12.0 63.0 L 12.0 64.0 L 12.0 65.0 L 12.0 66.0 L 12.333333333333334 67.0 L 12.666666666666666 68.0 L 13.0 69.0 L 13.0 70.0 L 13.0 71.0 L 13.0 72.0 L 13.0 73.0 L 13.333333333333334 74.0 L 13.666666666666666 75.0 L 14.0 76.0 L 14.333333333333334 77.0 L 14.666666666666666 78.0 L 15.0 79.0 L 15.0 80.0 L 15.333333333333334 81.0 L 15.666666666666666 82.0 L 16.333333333333332 83.0 L 16.666666666666668 84.0 L 17.333333333333332 85.0 L 17.666666666666668 86.0 L 18.333333333333332 87.0 L 18.666666666666668 88.0 L 19.333333333333332 89.0 L 19.666666666666668 90.0 L 20.333333333333332 91.0 L 21.0 92.0 L 21.666666666666668 93.0 L 22.333333333333332 94.0 L 23.0 95.0 L 24.0 96.0 L 25.0 97.0 L 26.0 98.0 L 27.0 99.0 L 28.0 100.0 L 29.0 101.0 L 30.0 102.0 L 31.0 103.0 L 32.0 103.66666666666667 L 33.0 104.33333333333333 L 34.0 105.0 L 35.0 106.0 L 36.0 106.66666666666667 L 37.0 107.33333333333333 L 38.0 107.66666666666667 L 39.0 108.33333333333333 L 40.0 108.66666666666667 L 41.0 109.33333333333333 L 42.0 109.66666666666667 L 43.0 110.0 L 43.666666666666664 109.66666666666667 L 44.0 109.0 L 44.0 108.0 L 43.666666666666664 107.0 L 43.0 106.0 L 42.0 105.33333333333333 L 41.0 104.66666666666667 L 40.0 104.0 L 39.0 103.0 L 38.0 102.0 L 37.0 101.0 L 36.0 100.0 L 35.0 99.0 L 34.0 98.0 L 33.0 97.0 L 32.0 96.0 L 31.0 95.0 L 30.0 94.0 L 29.0 93.0 L 28.0 92.0 L 27.0 91.0 L 26.0 90.0 L 25.0 89.0 L 24.333333333333332 88.0 L 23.666666666666668 87.0 L 23.333333333333332 86.0 L 22.666666666666668 85.0 L 22.333333333333332 84.0 L 21.666666666666668 83.0 L 21.333333333333332 82.0 L 20.666666666666668 81.0 L 20.333333333333332 80.0 L 20.0 79.0 L 19.666666666666668 78.0 L 19.333333333333332 77.0 L 19.0 76.0 L 18.666666666666668 75.0 L 18.333333333333332 74.0 L 18.0 73.0 L 18.0 72.0 L 17.666666666666668 71.0 L 17.333333333333332 70.0 L 17.0 69.0 L 17.0 68.0 L 17.0 67.0 L 17.0 66.0 L 17.0 65.0 L 17.0 64.0 L 17.0 63.0 L 17.0 62.0 L 17.0 61.0 L 17.0 60.0 L 17.0 59.0 L 17.0 58.0 L 17.0 57.0 L 17.333333333333332 56.0 L 17.666666666666668 55.0 L 18.0 54.0 L 18.0 53.0 L 18.333333333333332 52.0 L 18.666666666666668 51.0 L 19.0 50.0 L 19.333333333333332 49.0 L 19.666666666666668 48.0 L 20.0 47.0 L 20.333333333333332 46.0 L 20.666666666666668 45.0 L 21.333333333333332 44.0 L 21.666666666666668 43.0 L 22.333333333333332 42.0 L 22.666666666666668 41.0 L 23.333333333333332 40.0 L 23.666666666666668 39.0 L 24.333333333333332 38.0 L 25.0 37.0 L 26.0 36.0 L 26.666666666666668 35.0 L 27.333333333333332 34.0 L 28.0 33.0 L 29.0 32.0 L 30.0 31.0 L 31.0 30.0 L 32.0 29.0 L 33.0 28.0 L 34.0 27.0 L 35.0 26.333333333333332 L 36.0 25.666666666666668 L 37.0 25.0 L 38.0 24.333333333333332 L 39.0 23.666666666666668 L 40.0 23.0 L 41.0 22.333333333333332 L 42.0 21.666666666666668 L 43.0 21.333333333333332 L 44.0 20.666666666666668 L 45.0 20.333333333333332 L 46.0 19.666666666666668 L 47.0 19.333333333333332 L 48.0 19.0 L 49.0 18.666666666666668 L 50.0 18.333333333333332 L 51.0 18.0 L 52.0 18.0 L 53.0 17.666666666666668 L 54.0 17.333333333333332 L 55.0 17.0 L 56.0 17.0 L 57.0 17.0 L 58.0 16.666666666666668 L 59.0 16.333333333333332 L 60.0 16.0 L 61.0 16.0 L 62.0 16.0 L 63.0 16.0 L 64.0 16.0 L 65.0 16.0 L 66.0 16.0 L 67.0 16.0 L 68.0 16.333333333333332 L 69.0 16.666666666666668 L 70.0 17.0 L 71.0 17.0 L 72.0 17.0 L 73.0 17.0 L 74.0 17.333333333333332 L 75.0 17.666666666666668 L 76.0 18.0 L 77.0 18.333333333333332 L 78.0 18.666666666666668 L 79.0 19.0 L 80.0 19.333333333333332 L 81.0 19.666666666666668 L 82.0 20.333333333333332 L 83.0 20.666666666666668 L 84.0 21.333333333333332 L 85.0 21.666666666666668 L 86.0 22.333333333333332 L 87.0 22.666666666666668 L 88.0 23.333333333333332 L 89.0 24.0 L 90.0 24.666666666666668 L 91.0 25.333333333333332 L 92.0 26.0 L 93.0 27.0 L 94.0 28.0 L 95.0 29.0 L 96.0 30.0 L 97.0 31.0 L 98.0 32.0 L 99.0 33.0 L 100.0 34.0 L 101.0 35.0 L 101.66666666666667 36.0 L 102.33333333333333 37.0 L 103.0 38.0 L 103.66666666666667 39.0 L 104.33333333333333 40.0 L 104.66666666666667 41.0 L 105.33333333333333 42.0 L 105.66666666666667 43.0 L 106.33333333333333 44.0 L 106.66666666666667 45.0 L 107.33333333333333 46.0 L 107.66666666666667 47.0 L 108.0 48.0 L 108.33333333333333 49.0 L 108.66666666666667 50.0 L 109.0 51.0 L 109.0 52.0 L 109.33333333333333 53.0 L 109.66666666666667 54.0 L 110.0 55.0 L 110.0 56.0 L 110.0 57.0 L 110.0 58.0 L 110.0 59.0 L 110.33333333333333 60.0 L 110.66666666666667 61.0 L 111.0 62.0 L 111.0 63.0 L 111.0 64.0 L 110.66666666666667 65.0 L 110.33333333333333 66.0 L 110.0 67.0 L 110.0 68.0 L 110.0 69.0 L 110.0 70.0 L 110.0 71.0 L 109.66666666666667 72.0 L 109.33333333333333 73.0 L 109.0 74.0 L 109.0 75.0 L 108.66666666666667 76.0 L 108.33333333333333 77.0 L 108.0 78.0 L 107.66666666666667 79.0 L 107.33333333333333 80.0 L 106.66666666666667 81.0 L 106.33333333333333 82.0 L 105.66666666666667 83.0 L 105.33333333333333 84.0 L 104.66666666666667 85.0 L 104.33333333333333 86.0 L 103.66666666666667 87.0 L 103.0 88.0 L 102.33333333333333 89.0 L 101.66666666666667 90.0 L 101.0 91.0 L 100.0 92.0 L 99.0 93.0 L 98.0 94.0 L 97.0 95.0 L 96.0 96.0 L 95.0 97.0 L 94.0 98.0 L 93.0 99.0 L 92.0 100.0 L 91.0 101.0 L 90.0 101.66666666666667 L 89.0 102.33333333333333 L 88.0 103.0 L 87.0 104.0 L 86.0 104.66666666666667 L 85.0 105.0 L 84.0 105.33333333333333 L 83.33333333333333 106.0 L 83.0 107.0 L 83.0 108.0 L 83.0 109.0 L 83.33333333333333 110.0 L 84.0 110.66666666666667 L 85.0 111.0 L 86.0 111.0 L 87.0 111.0 L 88.0 110.66666666666667 L 88.66666666666667 110.0 L 89.0 109.0 L 89.33333333333333 108.0 L 90.0 107.33333333333333 L 91.0 106.66666666666667 L 92.0 106.33333333333333 L 93.0 105.66666666666667 L 94.0 105.0 L 95.0 104.0 L 96.0 103.0 L 97.0 102.33333333333333 L 98.0 101.66666666666667 L 99.0 101.0 L 100.0 100.0 L 100.5 99.5 Z" stroke="none" fill="rgb(248,196,44)" />
<path d="M 94.5 16.5 L 95.0 16.666666666666668 L 96.0 17.333333333333332 L 97.0 18.0 L 98.0 19.0 L 99.0 20.0 L 100.0 21.0 L 101.0 21.666666666666668 L 102.0 22.333333333333332 L 103.0 23.0 L 104.0 24.0 L 104.66666666666667 25.0 L 105.33333333333333 26.0 L 106.0 27.0 L 107.0 28.0 L 108.0 29.0 L 108.66666666666667 30.0 L 109.33333333333333 31.0 L 110.0 32.0 L 110.66666666666667 33.0 L 111.33333333333333 34.0 L 112.0 35.0 L 112.66666666666667 36.0 L 113.33333333333333 37.0 L 113.66666666666667 38.0 L 114.33333333333333 39.0 L 115.0 40.0 L 116.0 40.666666666666664 L 116.66666666666667 40.666666666666664 L 117.0 40.0 L 117.0 39.0 L 116.66666666666667 38.0 L 116.33333333333333 37.0 L 115.66666666666667 36.0 L 115.33333333333333 35.0 L 114.66666666666667 34.0 L 114.33333333333333 33.0 L 113.66666666666667 32.0 L 113.33333333333333 31.0 L 112.66666666666667 30.0 L 112.33333333333333 29.0 L 111.66666666666667 28.0 L 111.0 27.0 L 110.0 26.0 L 109.0 25.0 L 108.0 24.0 L 107.0 23.0 L 106.0 22.0 L 105.0 21.0 L 104.0 20.0 L 103.0 19.0 L 102.0 18.333333333333332 L 101.0 17.666666666666668 L 100.0 17.0 L 99.0 16.333333333333332 L 98.0 15.666666666666666 L 97.0 15.333333333333334 L 96.0 14.666666666666666 L 95.0 14.0 L 94.0 13.333333333333334 L 93.0 12.666666666666666 L 92.0 12.333333333333334 L 91.0 12.0 L 90.33333333333333 12.333333333333334 L 90.0 13.0 L 90.33333333333333 13.666666666666666 L 91.0 14.333333333333334 L 92.0 14.666666666666666 L 93.0 15.333333333333334 L 93.5 15.5 Z" stroke="none" fill="rgb(244,163,35)" />
<path d="M 23.5 87.5 L 23.666666666666668 88.0 L 24.333333333333332 89.0 L 25.0 90.0 L 26.0 90.66666666666667 L 26.666666666666668 90.66666666666667 L 27.0 90.0 L 26.666666666666668 89.0 L 26.333333333333332 88.0 L 26.0 87.0 L 25.666666666666668 86.0 L 25.333333333333332 85.0 L 25.0 84.0 L 25.0 83.0 L 25.0 82.0 L 25.0 81.0 L 25.0 80.0 L 25.0 79.0 L 24.666666666666668 78.0 L 24.333333333333332 77.0 L 23.666666666666668 76.0 L 23.333333333333332 75.0 L 23.0 74.0 L 22.666666666666668 73.0 L 22.333333333333332 72.0 L 22.0 71.0 L 22.0 70.0 L 22.0 69.0 L 22.0 68.0 L 21.666666666666668 67.0 L 21.333333333333332 66.0 L 21.0 65.0 L 21.0 64.0 L 21.0 63.0 L 21.0 62.0 L 21.0 61.0 L 21.333333333333332 60.0 L 21.666666666666668 59.0 L 22.0 58.0 L 22.0 57.0 L 22.0 56.0 L 22.0 55.0 L 22.333333333333332 54.0 L 22.666666666666668 53.0 L 23.0 52.0 L 23.333333333333332 51.0 L 23.666666666666668 50.0 L 24.0 49.0 L 24.333333333333332 48.0 L 25.0 47.333333333333336 L 26.0 47.0 L 26.666666666666668 46.666666666666664 L 27.333333333333332 46.0 L 27.666666666666668 45.0 L 28.0 44.0 L 27.666666666666668 43.0 L 27.666666666666668 42.0 L 28.0 41.0 L 28.666666666666668 40.0 L 29.333333333333332 39.0 L 30.0 38.0 L 31.0 37.0 L 31.666666666666668 36.0 L 32.333333333333336 35.0 L 33.0 34.0 L 34.0 33.0 L 35.0 32.0 L 36.0 31.333333333333332 L 37.0 30.666666666666668 L 38.0 30.0 L 39.0 29.0 L 40.0 28.333333333333332 L 41.0 27.666666666666668 L 42.0 27.0 L 43.0 26.333333333333332 L 44.0 25.666666666666668 L 45.0 25.333333333333332 L 46.0 24.666666666666668 L 47.0 24.333333333333332 L 48.0 24.0 L 49.0 23.666666666666668 L 50.0 23.333333333333332 L 51.0 23.0 L 52.0 22.666666666666668 L 53.0 22.333333333333332 L 54.0 22.0 L 55.0 21.666666666666668 L 56.0 21.333333333333332 L 57.0 21.0 L 58.0 21.0 L 59.0 21.0 L 60.0 21.0 L 61.0 21.0 L 62.0 21.0 L 63.0 21.0 L 64.0 21.0 L 65.0 21.0 L 66.0 21.0 L 67.0 21.0 L 68.0 21.0 L 69.0 21.0 L 70.0 21.0 L 71.0 21.333333333333332 L 72.0 21.666666666666668 L 73.0 22.0 L 74.0 22.0 L 75.0 22.333333333333332 L 76.0 22.666666666666668 L 77.0 23.0 L 78.0 23.333333333333332 L 79.0 23.666666666666668 L 80.0 24.333333333333332 L 81.0 24.666666666666668 L 82.0 25.333333333333332 L 83.0 25.666666666666668 L 84.0 26.333333333333332 L 85.0 26.666666666666668 L 86.0 27.333333333333332 L 87.0 28.0 L 88.0 28.666666666666668 L 89.0 29.333333333333332 L 90.0 30.0 L 91.0 31.0 L 92.0 32.0 L 93.0 33.0 L 94.0 34.0 L 95.0 35.0 L 96.0 36.0 L 97.0 37.0 L 97.66666666666667 38.0 L 98.33333333333333 39.0 L 99.0 40.0 L 99.66666666666667 41.0 L 100.33333333333333 42.0 L 100.66666666666667 43.0 L 101.33333333333333 44.0 L 101.66666666666667 45.0 L 102.33333333333333 46.0 L 102.66666666666667 47.0 L 103.0 48.0 L 103.33333333333333 49.0 L 103.66666666666667 50.0 L 104.0 51.0 L 104.33333333333333 52.0 L 104.66666666666667 53.0 L 105.0 54.0 L 105.0 55.0 L 105.33333333333333 56.0 L 105.66666666666667 57.0 L 106.0 58.0 L 106.0 59.0 L 106.0 60.0 L 106.0 61.0 L 106.0 62.0 L 106.0 63.0 L 106.0 64.0 L 106.0 65.0 L 106.0 66.0 L 106.0 67.0 L 106.0 68.0 L 105.66666666666667 69.0 L 105.33333333333333 70.0 L 105.0 71.0 L 105.0 72.0 L 104.66666666666667 73.0 L 104.33333333333333 74.0 L 104.0 75.0 L 103.66666666666667 76.0 L 103.33333333333333 77.0 L 103.0 78.0 L 102.66666666666667 79.0 L 102.33333333333333 80.0 L 102.0 81.0 L 101.66666666666667 82.0 L 101.33333333333333 83.0 L 101.0 84.0 L 100.66666666666667 85.0 L 100.33333333333333 86.0 L 99.66666666666667 87.0 L 99.33333333333333 88.0 L 98.66666666666667 89.0 L 98.33333333333333 90.0 L 97.66666666666667 91.0 L 97.33333333333333 92.0 L 97.0 93.0 L 97.0 94.0 L 97.33333333333333 94.66666666666667 L 98.0 94.66666666666667 L 99.0 94.0 L 100.0 93.0 L 101.0 92.0 L 101.66666666666667 91.0 L 102.33333333333333 90.0 L 103.0 89.0 L 103.66666666666667 88.0 L 104.33333333333333 87.0 L 104.66666666666667 86.0 L 105.33333333333333 85.0 L 105.66666666666667 84.0 L 106.33333333333333 83.0 L 106.66666666666667 82.0 L 107.33333333333333 81.0 L 107.66666666666667 80.0 L 108.0 79.0 L 108.33333333333333 78.0 L 108.66666666666667 77.0 L 109.0 76.0 L 109.0 75.0 L 109.33333333333333 74.0 L 109.66666666666667 73.0 L 110.0 72.0 L 110.0 71.0 L 110.0 70.0 L 110.0 69.0 L 110.0 68.0 L 110.33333333333333 67.0 L 110.66666666666667 66.0 L 111.0 65.0 L 111.0 64.0 L 111.0 63.0 L 111.0 62.0 L 111.0 61.0 L 110.66666666666667 60.0 L 110.33333333333333 59.0 L 110.0 58.0 L 110.0 57.0 L 110.0 56.0 L 110.0 55.0 L 110.0 54.0 L 109.66666666666667 53.0 L 109.33333333333333 52.0 L 109.0 51.0 L 109.0 50.0 L 108.66666666666667 49.0 L 108.33333333333333 48.0 L 108.0 47.0 L 107.66666666666667 46.0 L 107.33333333333333 45.0 L 106.66666666666667 44.0 L 106.33333333333333 43.0 L 105.66666666666667 42.0 L 105.33333333333333 41.0 L 104.66666666666667 40.0 L 104.33333333333333 39.0 L 103.66666666666667 38.0 L 103.0 37.0 L 102.33333333333333 36.0 L 101.66666666666667 35.0 L 101.0 34.0 L 100.0 33.0 L 99.0 32.0 L 98.0 31.0 L 97.0 30.0 L 96.0 29.0 L 95.0 28.0 L 94.0 27.0 L 93.0 26.0 L 92.0 25.333333333333332 L 91.0 24.666666666666668 L 90.0 24.0 L 89.0 23.333333333333332 L 88.0 22.666666666666668 L 87.0 22.333333333333332 L 86.0 21.666666666666668 L 85.0 21.333333333333332 L 84.0 20.666666666666668 L 83.0 20.333333333333332 L 82.0 19.666666666666668 L 81.0 19.333333333333332 L 80.0 19.0 L 79.0 18.666666666666668 L 78.0 18.333333333333332 L 77.0 18.0 L 76.0 17.666666666666668 L 75.0 17.333333333333332 L 74.0 17.0 L 73.0 17.0 L 72.0 17.0 L 71.0 17.0 L 70.0 16.666666666666668 L 69.0 16.333333333333332 L 68.0 16.0 L 67.0 16.0 L 66.0 16.0 L 65.0 16.0 L 64.0 16.0 L 63.0 16.0 L 62.0 16.0 L 61.0 16.0 L 60.0 16.0 L 59.0 16.0 L 58.0 16.333333333333332 L 57.0 16.666666666666668 L 56.0 17.0 L 55.0 17.0 L 54.0 17.0 L 53.0 17.333333333333332 L 52.0 17.666666666666668 L 51.0 18.0 L 50.0 18.0 L 49.0 18.333333333333332 L 48.0 18.666666666666668 L 47.0 19.0 L 46.0 19.333333333333332 L 45.0 19.666666666666668 L 44.0 20.333333333333332 L 43.0 20.666666666666668 L 42.0 21.333333333333332 L 41.0 21.666666666666668 L 40.0 22.333333333333332 L 39.0 23.0 L 38.0 23.666666666666668 L 37.0 24.333333333333332 L 36.0 25.0 L 35.0 25.666666666666668 L 34.0 26.333333333333332 L 33.0 27.0 L 32.0 28.0 L 31.0 29.0 L 30.0 30.0 L 29.0 31.0 L 28.0 32.0 L 27.333333333333332 33.0 L 26.666666666666668 34.0 L 26.0 35.0 L 25.0 36.0 L 24.333333333333332 37.0 L 23.666666666666668 38.0 L 23.333333333333332 39.0 L 22.666666666666668 40.0 L 22.333333333333332 41.0 L 21.666666666666668 42.0 L 21.333333333333332 43.0 L 20.666666666666668 44.0 L 20.333333333333332 45.0 L 20.0 46.0 L 19.666666666666668 47.0 L 19.333333333333332 48.0 L 19.0 49.0 L 18.666666666666668 50.0 L 18.333333333333332 51.0 L 18.0 52.0 L 18.0 53.0 L 17.666666666666668 54.0 L 17.333333333333332 55.0 L 17.0 56.0 L 17.0 57.0 L 17.0 58.0 L 17.0 59.0 L 17.0 60.0 L 17.0 61.0 L 17.0 62.0 L 17.0 63.0 L 17.0 64.0 L 17.0 65.0 L 17.0 66.0 L 17.0 67.0 L 17.0 68.0 L 17.0 69.0 L 17.0 70.0 L 17.333333333333332 71.0 L 17.666666666666668 72.0 L 18.0 73.0 L 18.0 74.0 L 18.333333333333332 75.0 L 18.666666666666668 76.0 L 19.0 77.0 L 19.333333333333332 78.0 L 19.666666666666668 79.0 L 20.0 80.0 L 20.333333333333332 81.0 L 20.666666666666668 82.0 L 21.333333333333332 83.0 L 21.666666666666668 84.0 L 22.333333333333332 85.0 L 22.666666666666668 86.0 L 23.0 86.5 Z" stroke="none" fill="rgb(249,202,45)" />
<path d="M 101.5 80.0 L 102.0 80.0 L 102.66666666666667 79.66666666666667 L 103.0 79.0 L 103.33333333333333 78.0 L 103.66666666666667 77.0 L 104.0 76.0 L 104.33333333333333 75.0 L 104.66666666666667 74.0 L 105.0 73.0 L 105.0 72.0 L 105.33333333333333 71.0 L 105.66666666666667 70.0 L 106.0 69.0 L 106.0 68.0 L 106.0 67.0 L 106.0 66.0 L 106.0 65.0 L 106.0 64.0 L 106.0 63.0 L 106.0 62.0 L 106.0 61.0 L 106.0 60.0 L 106.0 59.0 L 106.0 58.0 L 106.0 57.0 L 105.66666666666667 56.0 L 105.33333333333333 55.0 L 105.0 54.0 L 105.0 53.0 L 104.66666666666667 52.0 L 104.33333333333333 51.0 L 104.0 50.0 L 103.66666666666667 49.0 L 103.33333333333333 48.0 L 103.0 47.0 L 102.66666666666667 46.0 L 102.33333333333333 45.0 L 101.66666666666667 44.0 L 101.33333333333333 43.0 L 100.66666666666667 42.0 L 100.33333333333333 41.0 L 99.66666666666667 40.0 L 99.0 39.0 L 98.33333333333333 38.0 L 97.66666666666667 37.0 L 97.0 36.0 L 96.0 35.0 L 95.0 34.0 L 94.0 33.0 L 93.0 32.0 L 92.0 31.0 L 91.0 30.0 L 90.0 29.333333333333332 L 89.0 28.666666666666668 L 88.0 28.0 L 87.0 27.333333333333332 L 86.0 26.666666666666668 L 85.0 26.333333333333332 L 84.0 25.666666666666668 L 83.0 25.333333333333332 L 82.0 24.666666666666668 L 81.0 24.333333333333332 L 80.0 23.666666666666668 L 79.0 23.333333333333332 L 78.0 23.0 L 77.0 22.666666666666668 L 76.0 22.333333333333332 L 75.0 22.0 L 74.0 22.0 L 73.0 21.666666666666668 L 72.0 21.333333333333332 L 71.0 21.0 L 70.0 21.0 L 69.0 21.0 L 68.0 21.0 L 67.0 21.0 L 66.0 21.0 L 65.0 21.0 L 64.0 21.0 L 63.0 21.0 L 62.0 21.0 L 61.0 21.0 L 60.0 21.0 L 59.0 21.0 L 58.0 21.0 L 57.0 21.0 L 56.0 21.0 L 55.0 21.333333333333332 L 54.0 21.666666666666668 L 53.0 22.0 L 52.0 22.333333333333332 L 51.0 22.666666666666668 L 50.0 23.0 L 49.0 23.333333333333332 L 48.0 23.666666666666668 L 47.0 24.0 L 46.0 24.333333333333332 L 45.0 24.666666666666668 L 44.0 25.333333333333332 L 43.0 25.666666666666668 L 42.0 26.333333333333332 L 41.0 27.0 L 40.0 27.666666666666668 L 39.0 28.333333333333332 L 38.0 29.0 L 37.0 30.0 L 36.0 30.666666666666668 L 35.0 31.333333333333332 L 34.0 32.0 L 33.0 33.0 L 32.333333333333336 34.0 L 31.666666666666668 35.0 L 31.0 36.0 L 30.0 37.0 L 29.333333333333332 38.0 L 28.666666666666668 39.0 L 28.0 40.0 L 27.333333333333332 41.0 L 27.0 42.0 L 27.333333333333332 43.0 L 28.0 43.666666666666664 L 29.0 44.0 L 30.0 44.0 L 31.0 44.0 L 31.666666666666668 43.666666666666664 L 32.333333333333336 43.0 L 32.666666666666664 42.0 L 33.333333333333336 41.0 L 34.0 40.0 L 35.0 39.0 L 36.0 38.0 L 37.0 37.0 L 38.0 36.0 L 39.0 35.0 L 40.0 34.0 L 41.0 33.0 L 42.0 32.333333333333336 L 43.0 31.666666666666668 L 44.0 31.0 L 45.0 30.333333333333332 L 46.0 29.666666666666668 L 47.0 29.333333333333332 L 48.0 28.666666666666668 L 49.0 28.333333333333332 L 50.0 28.0 L 51.0 27.666666666666668 L 52.0 27.333333333333332 L 53.0 27.0 L 54.0 26.666666666666668 L 55.0 26.333333333333332 L 56.0 26.0 L 57.0 26.0 L 58.0 25.666666666666668 L 59.0 25.333333333333332 L 60.0 25.0 L 61.0 25.0 L 62.0 25.0 L 63.0 25.0 L 64.0 25.0 L 65.0 25.0 L 66.0 25.0 L 67.0 25.0 L 68.0 25.333333333333332 L 69.0 25.666666666666668 L 70.0 26.0 L 71.0 26.0 L 72.0 26.0 L 73.0 26.333333333333332 L 74.0 26.666666666666668 L 75.0 27.0 L 76.0 27.333333333333332 L 77.0 27.666666666666668 L 78.0 28.333333333333332 L 79.0 28.666666666666668 L 80.0 29.333333333333332 L 81.0 29.666666666666668 L 82.0 30.333333333333332 L 83.0 30.666666666666668 L 84.0 31.333333333333332 L 85.0 32.0 L 86.0 33.0 L 87.0 33.666666666666664 L 88.0 34.333333333333336 L 89.0 35.0 L 90.0 36.0 L 91.0 37.0 L 92.0 38.0 L 92.66666666666667 39.0 L 93.33333333333333 40.0 L 94.0 41.0 L 95.0 42.0 L 96.0 43.0 L 97.0 44.0 L 97.66666666666667 45.0 L 98.33333333333333 46.0 L 98.66666666666667 47.0 L 99.0 48.0 L 99.0 49.0 L 99.33333333333333 50.0 L 99.66666666666667 51.0 L 100.0 52.0 L 100.0 53.0 L 100.0 54.0 L 100.0 55.0 L 100.0 56.0 L 100.0 57.0 L 100.0 58.0 L 100.33333333333333 59.0 L 101.0 60.0 L 101.66666666666667 61.0 L 102.0 62.0 L 102.0 63.0 L 102.0 64.0 L 101.66666666666667 65.0 L 101.33333333333333 66.0 L 101.0 67.0 L 101.0 68.0 L 101.0 69.0 L 101.0 70.0 L 100.66666666666667 71.0 L 100.33333333333333 72.0 L 100.0 73.0 L 99.66666666666667 74.0 L 99.33333333333333 75.0 L 99.0 76.0 L 99.0 77.0 L 99.33333333333333 78.0 L 100.0 79.0 L 100.5 79.5 Z" stroke="none" fill="rgb(250,208,46)" />
<path d="M 88.5 37.5 L 89.0 37.666666666666664 L 90.0 38.333333333333336 L 91.0 38.666666666666664 L 92.0 39.0 L 92.66666666666667 38.666666666666664 L 92.66666666666667 38.0 L 92.0 37.0 L 91.0 36.0 L 90.0 35.0 L 89.0 34.333333333333336 L 88.0 33.666666666666664 L 87.0 33.0 L 86.0 32.0 L 85.0 31.333333333333332 L 84.0 30.666666666666668 L 83.0 30.333333333333332 L 82.0 29.666666666666668 L 81.0 29.333333333333332 L 80.0 28.666666666666668 L 79.0 28.333333333333332 L 78.0 27.666666666666668 L 77.0 27.333333333333332 L 76.0 27.0 L 75.0 26.666666666666668 L 74.0 26.333333333333332 L 73.0 26.0 L 72.0 26.0 L 71.0 26.0 L 70.0 25.666666666666668 L 69.0 25.333333333333332 L 68.0 25.0 L 67.0 25.0 L 66.0 25.0 L 65.0 25.0 L 64.0 25.0 L 63.0 25.0 L 62.0 25.0 L 61.0 25.0 L 60.0 25.0 L 59.0 25.0 L 58.0 25.333333333333332 L 57.0 25.666666666666668 L 56.0 26.0 L 55.0 26.0 L 54.0 26.333333333333332 L 53.0 26.666666666666668 L 52.0 27.0 L 51.0 27.333333333333332 L 50.0 27.666666666666668 L 49.0 28.0 L 48.0 28.333333333333332 L 47.0 28.666666666666668 L 46.0 29.333333333333332 L 45.0 29.666666666666668 L 44.0 30.333333333333332 L 43.0 31.0 L 42.0 31.666666666666668 L 41.0 32.333333333333336 L 40.0 33.0 L 39.0 34.0 L 38.0 35.0 L 37.0 36.0 L 36.0 37.0 L 35.0 38.0 L 34.0 39.0 L 33.333333333333336 40.0 L 32.666666666666664 41.0 L 32.333333333333336 42.0 L 32.0 43.0 L 32.333333333333336 43.666666666666664 L 33.0 44.0 L 34.0 44.333333333333336 L 35.0 44.666666666666664 L 36.0 45.0 L 37.0 45.0 L 38.0 44.666666666666664 L 38.666666666666664 44.0 L 39.333333333333336 43.0 L 40.0 42.0 L 41.0 41.0 L 42.0 40.0 L 43.0 39.0 L 44.0 38.333333333333336 L 45.0 37.666666666666664 L 46.0 37.0 L 47.0 36.333333333333336 L 48.0 35.666666666666664 L 49.0 35.0 L 50.0 34.333333333333336 L 51.0 34.0 L 52.0 33.666666666666664 L 53.0 33.333333333333336 L 54.0 33.0 L 55.0 32.666666666666664 L 56.0 32.333333333333336 L 57.0 32.0 L 58.0 32.0 L 59.0 31.666666666666668 L 60.0 31.333333333333332 L 61.0 31.0 L 62.0 31.0 L 63.0 31.0 L 64.0 31.0 L 65.0 31.0 L 66.0 31.0 L 67.0 31.0 L 68.0 31.333333333333332 L 69.0 31.666666666666668 L 70.0 32.0 L 71.0 32.0 L 72.0 32.333333333333336 L 73.0 32.666666666666664 L 74.0 33.0 L 75.0 33.333333333333336 L 76.0 33.666666666666664 L 77.0 34.333333333333336 L 78.0 35.0 L 79.0 35.666666666666664 L 80.0 36.0 L 81.0 36.0 L 82.0 36.0 L 83.0 36.0 L 84.0 36.0 L 85.0 36.0 L 86.0 36.333333333333336 L 87.0 36.666666666666664 L 87.5 37.0 Z" stroke="none" fill="rgb(251,215,47)" />
<path d="M 59.5 80.0 L 60.0 80.0 L 61.0 80.0 L 62.0 80.0 L 63.0 80.0 L 64.0 80.0 L 65.0 80.0 L 66.0 80.0 L 67.0 80.0 L 68.0 80.0 L 69.0 80.0 L 70.0 80.0 L 71.0 80.0 L 72.0 80.0 L 73.0 80.0 L 74.0 80.0 L 75.0 80.0 L 76.0 80.0 L 77.0 80.0 L 78.0 80.0 L 79.0 80.0 L 80.0 80.0 L 81.0 80.0 L 82.0 80.0 L 83.0 80.0 L 84.0 80.0 L 85.0 79.66666666666667 L 86.0 79.33333333333333 L 87.0 79.0 L 88.0 79.0 L 89.0 79.0 L 90.0 79.0 L 91.0 79.0 L 92.0 78.66666666666667 L 92.66666666666667 78.0 L 93.0 77.0 L 93.0 76.0 L 93.33333333333333 75.0 L 93.66666666666667 74.0 L 94.0 73.0 L 94.33333333333333 72.0 L 94.66666666666667 71.0 L 95.0 70.0 L 95.0 69.0 L 94.66666666666667 68.33333333333333 L 94.0 68.0 L 93.0 68.33333333333333 L 92.0 68.66666666666667 L 91.0 69.33333333333333 L 90.0 69.66666666666667 L 89.0 70.33333333333333 L 88.0 70.66666666666667 L 87.0 71.0 L 86.0 71.0 L 85.0 71.0 L 84.0 71.0 L 83.0 71.0 L 82.0 71.0 L 81.0 71.0 L 80.0 71.0 L 79.0 70.66666666666667 L 78.0 70.33333333333333 L 77.0 70.0 L 76.0 69.66666666666667 L 75.0 69.33333333333333 L 74.0 68.66666666666667 L 73.0 68.0 L 72.0 67.0 L 71.0 66.0 L 70.0 65.0 L 69.0 64.0 L 68.0 63.0 L 67.33333333333333 62.0 L 66.66666666666667 61.0 L 66.33333333333333 60.0 L 66.0 59.0 L 65.66666666666667 58.0 L 65.33333333333333 57.0 L 65.0 56.0 L 65.0 55.0 L 65.0 54.0 L 65.33333333333333 53.0 L 65.66666666666667 52.0 L 66.0 51.0 L 66.0 50.0 L 66.0 49.0 L 66.33333333333333 48.0 L 66.66666666666667 47.0 L 67.33333333333333 46.0 L 67.66666666666667 45.0 L 68.33333333333333 44.0 L 69.0 43.0 L 70.0 42.0 L 71.0 41.333333333333336 L 72.0 40.666666666666664 L 73.0 40.0 L 74.0 39.333333333333336 L 75.0 38.666666666666664 L 76.0 38.333333333333336 L 77.0 37.666666666666664 L 78.0 37.333333333333336 L 78.66666666666667 36.666666666666664 L 79.0 36.0 L 78.66666666666667 35.0 L 78.0 34.333333333333336 L 77.0 33.666666666666664 L 76.0 33.333333333333336 L 75.0 33.0 L 74.0 32.666666666666664 L 73.0 32.333333333333336 L 72.0 32.0 L 71.0 32.0 L 70.0 31.666666666666668 L 69.0 31.333333333333332 L 68.0 31.0 L 67.0 31.0 L 66.0 31.0 L 65.0 31.0 L 64.0 31.0 L 63.0 31.0 L 62.0 31.0 L 61.0 31.0 L 60.0 31.0 L 59.0 31.333333333333332 L 58.0 31.666666666666668 L 57.0 32.0 L 56.0 32.0 L 55.0 32.333333333333336 L 54.0 32.666666666666664 L 53.0 33.0 L 52.0 33.333333333333336 L 51.0 33.666666666666664 L 50.0 34.0 L 49.0 34.333333333333336 L 48.0 35.0 L 47.0 35.666666666666664 L 46.0 36.333333333333336 L 45.0 37.0 L 44.0 37.666666666666664 L 43.0 38.333333333333336 L 42.0 39.0 L 41.0 40.0 L 40.0 41.0 L 39.333333333333336 42.0 L 38.666666666666664 43.0 L 38.333333333333336 44.0 L 38.0 45.0 L 38.333333333333336 45.666666666666664 L 39.0 46.333333333333336 L 40.0 46.666666666666664 L 41.0 47.333333333333336 L 42.0 48.0 L 43.0 48.666666666666664 L 44.0 49.333333333333336 L 45.0 50.0 L 46.0 51.0 L 47.0 52.0 L 48.0 53.0 L 49.0 54.0 L 50.0 55.0 L 51.0 56.0 L 52.0 57.0 L 52.666666666666664 58.0 L 52.666666666666664 59.0 L 52.0 60.0 L 51.0 60.666666666666664 L 50.0 61.0 L 49.0 60.666666666666664 L 48.0 60.333333333333336 L 47.0 60.0 L 46.0 60.0 L 45.0 60.0 L 44.0 60.0 L 43.0 60.0 L 42.0 60.0 L 41.0 60.0 L 40.0 60.0 L 39.0 60.333333333333336 L 38.0 60.666666666666664 L 37.0 61.0 L 36.0 61.0 L 35.0 61.333333333333336 L 34.0 61.666666666666664 L 33.0 62.0 L 32.333333333333336 62.333333333333336 L 32.0 63.0 L 32.0 64.0 L 32.0 65.0 L 32.0 66.0 L 32.0 67.0 L 32.0 68.0 L 32.333333333333336 69.0 L 32.666666666666664 70.0 L 33.0 71.0 L 33.0 72.0 L 33.333333333333336 73.0 L 33.666666666666664 74.0 L 34.0 75.0 L 34.333333333333336 76.0 L 34.666666666666664 77.0 L 35.333333333333336 77.66666666666667 L 36.0 78.0 L 37.0 78.33333333333333 L 38.0 78.66666666666667 L 39.0 79.0 L 40.0 79.0 L 41.0 79.0 L 42.0 79.0 L 43.0 79.0 L 44.0 79.0 L 45.0 79.0 L 46.0 79.0 L 47.0 79.33333333333333 L 48.0 79.66666666666667 L 49.0 80.0 L 50.0 80.0 L 51.0 80.0 L 52.0 80.0 L 53.0 80.0 L 54.0 80.0 L 55.0 80.0 L 56.0 80.0 L 57.0 80.0 L 58.0 80.0 L 58.5 80.0 Z" stroke="none" fill="rgb(253,224,48)" />
<path d="M 66.5 61.5 L 66.66666666666667 62.0 L 67.33333333333333 63.0 L 68.0 64.0 L 69.0 65.0 L 70.0 66.0 L 71.0 67.0 L 72.0 68.0 L 73.0 68.66666666666667 L 74.0 69.33333333333333 L 75.0 69.66666666666667 L 76.0 70.0 L 77.0 70.33333333333333 L 78.0 70.66666666666667 L 79.0 71.0 L 80.0 71.0 L 81.0 71.0 L 82.0 71.0 L 83.0 71.0 L 84.0 71.0 L 85.0 71.0 L 86.0 71.0 L 87.0 71.0 L 88.0 71.0 L 89.0 70.66666666666667 L 90.0 70.33333333333333 L 91.0 69.66666666666667 L 92.0 69.33333333333333 L 93.0 68.66666666666667 L 94.0 68.33333333333333 L 94.66666666666667 67.66666666666667 L 95.0 67.0 L 95.33333333333333 66.0 L 96.0 65.0 L 97.0 64.0 L 97.66666666666667 63.0 L 98.33333333333333 62.0 L 99.0 61.0 L 99.66666666666667 60.0 L 100.0 59.0 L 100.0 58.0 L 100.0 57.0 L 100.0 56.0 L 100.0 55.0 L 100.0 54.0 L 100.0 53.0 L 100.0 52.0 L 100.0 51.0 L 99.66666666666667 50.0 L 99.33333333333333 49.0 L 99.0 48.0 L 99.0 47.0 L 98.66666666666667 46.0 L 98.33333333333333 45.0 L 97.66666666666667 44.0 L 97.0 43.0 L 96.0 42.0 L 95.0 41.0 L 94.0 40.0 L 93.0 39.333333333333336 L 92.0 38.666666666666664 L 91.0 38.333333333333336 L 90.0 37.666666666666664 L 89.0 37.333333333333336 L 88.0 36.666666666666664 L 87.0 36.333333333333336 L 86.0 36.0 L 85.0 36.0 L 84.0 36.0 L 83.0 36.0 L 82.0 36.0 L 81.0 36.0 L 80.0 36.0 L 79.0 36.333333333333336 L 78.0 36.666666666666664 L 77.0 37.333333333333336 L 76.0 37.666666666666664 L 75.0 38.333333333333336 L 74.0 38.666666666666664 L 73.0 39.333333333333336 L 72.0 40.0 L 71.0 40.666666666666664 L 70.0 41.333333333333336 L 69.0 42.0 L 68.33333333333333 43.0 L 67.66666666666667 44.0 L 67.33333333333333 45.0 L 66.66666666666667 46.0 L 66.33333333333333 47.0 L 66.0 48.0 L 66.0 49.0 L 66.0 50.0 L 65.66666666666667 51.0 L 65.33333333333333 52.0 L 65.0 53.0 L 65.0 54.0 L 65.0 55.0 L 65.0 56.0 L 65.0 57.0 L 65.33333333333333 58.0 L 65.66666666666667 59.0 L 66.0 60.0 L 66.0 60.5 Z" stroke="none" fill="rgb(255,255,255)" />
<path d="M 95.5 111.5 L 96.0 111.33333333333333 L 97.0 110.66666666666667 L 98.0 110.0 L 99.0 109.33333333333333 L 100.0 108.66666666666667 L 101.0 108.0 L 102.0 107.0 L 103.0 106.33333333333333 L 104.0 105.66666666666667 L 105.0 105.0 L 106.0 104.0 L 107.0 103.0 L 108.0 102.0 L 109.0 101.0 L 110.0 100.0 L 110.66666666666667 99.0 L 111.33333333333333 98.0 L 112.0 97.0 L 112.66666666666667 96.0 L 113.33333333333333 95.0 L 114.0 94.0 L 114.66666666666667 93.0 L 115.33333333333333 92.0 L 115.66666666666667 91.0 L 116.33333333333333 90.0 L 116.66666666666667 89.0 L 117.33333333333333 88.0 L 117.66666666666667 87.0 L 118.0 86.0 L 118.33333333333333 85.0 L 118.66666666666667 84.0 L 119.0 83.0 L 119.33333333333333 82.0 L 119.66666666666667 81.0 L 120.0 80.0 L 120.33333333333333 79.0 L 120.66666666666667 78.0 L 121.0 77.0 L 121.0 76.0 L 121.0 75.0 L 121.0 74.0 L 121.33333333333333 73.0 L 121.66666666666667 72.0 L 122.0 71.0 L 122.0 70.0 L 122.0 69.0 L 122.0 68.0 L 122.0 67.0 L 122.0 66.0 L 122.0 65.0 L 122.0 64.0 L 122.0 63.0 L 122.0 62.0 L 122.0 61.0 L 122.0 60.0 L 122.0 59.0 L 122.0 58.0 L 122.0 57.0 L 122.0 56.0 L 122.0 55.0 L 122.0 54.0 L 121.66666666666667 53.0 L 121.33333333333333 52.0 L 121.0 51.0 L 121.0 50.0 L 121.0 49.0 L 120.66666666666667 48.0 L 120.33333333333333 47.0 L 120.0 46.0 L 120.0 45.0 L 119.66666666666667 44.0 L 119.33333333333333 43.0 L 119.0 42.0 L 118.66666666666667 41.333333333333336 L 118.0 41.0 L 117.33333333333333 41.333333333333336 L 117.0 42.0 L 117.0 43.0 L 117.0 44.0 L 117.0 45.0 L 117.33333333333333 46.0 L 117.66666666666667 47.0 L 118.0 48.0 L 118.0 49.0 L 118.33333333333333 50.0 L 118.66666666666667 51.0 L 119.0 52.0 L 119.0 53.0 L 119.0 54.0 L 119.0 55.0 L 119.0 56.0 L 119.0 57.0 L 119.0 58.0 L 119.0 59.0 L 119.0 60.0 L 119.0 61.0 L 119.0 62.0 L 119.0 63.0 L 119.0 64.0 L 119.0 65.0 L 119.0 66.0 L 119.0 67.0 L 119.0 68.0 L 119.0 69.0 L 119.0 70.0 L 118.66666666666667 71.0 L 118.33333333333333 72.0 L 118.0 73.0 L 118.0 74.0 L 117.66666666666667 75.0 L 117.33333333333333 76.0 L 117.0 77.0 L 116.66666666666667 78.0 L 116.33333333333333 79.0 L 116.0 80.0 L 115.66666666666667 81.0 L 115.33333333333333 82.0 L 114.66666666666667 83.0 L 114.33333333333333 84.0 L 113.66666666666667 85.0 L 113.33333333333333 86.0 L 112.66666666666667 87.0 L 112.0 88.0 L 111.0 89.0 L 110.33333333333333 90.0 L 109.66666666666667 91.0 L 109.33333333333333 92.0 L 108.66666666666667 93.0 L 108.0 94.0 L 107.0 95.0 L 106.0 96.0 L 105.0 97.0 L 104.0 98.0 L 103.0 99.0 L 102.0 100.0 L 101.0 101.0 L 100.0 102.0 L 99.0 103.0 L 98.0 104.0 L 97.0 105.0 L 96.0 105.66666666666667 L 95.0 106.33333333333333 L 94.0 107.0 L 93.0 107.66666666666667 L 92.0 108.33333333333333 L 91.0 108.66666666666667 L 90.0 109.0 L 89.0 109.33333333333333 L 88.0 110.0 L 87.0 110.66666666666667 L 86.0 111.0 L 85.0 111.0 L 84.0 111.33333333333333 L 83.0 112.0 L 82.33333333333333 113.0 L 82.0 114.0 L 82.0 115.0 L 82.33333333333333 115.66666666666667 L 83.0 116.0 L 84.0 116.0 L 85.0 116.0 L 86.0 115.66666666666667 L 87.0 115.33333333333333 L 88.0 115.0 L 89.0 114.66666666666667 L 90.0 114.33333333333333 L 91.0 113.66666666666667 L 92.0 113.33333333333333 L 93.0 112.66666666666667 L 94.0 112.33333333333333 L 94.5 112.0 Z" stroke="none" fill="rgb(235,143,0)" />
<path d="M 25.5 63.5 L 26.0 64.0 L 27.0 64.66666666666667 L 28.0 65.0 L 29.0 64.66666666666667 L 30.0 64.33333333333333 L 31.0 64.0 L 31.666666666666668 63.666666666666664 L 32.333333333333336 63.0 L 33.0 62.333333333333336 L 34.0 62.0 L 35.0 61.666666666666664 L 36.0 61.333333333333336 L 37.0 61.0 L 38.0 61.0 L 39.0 60.666666666666664 L 40.0 60.333333333333336 L 41.0 60.0 L 42.0 60.0 L 43.0 60.0 L 44.0 60.0 L 45.0 60.0 L 46.0 60.0 L 47.0 60.333333333333336 L 48.0 60.666666666666664 L 49.0 61.0 L 50.0 61.0 L 51.0 61.0 L 52.0 60.666666666666664 L 52.666666666666664 60.0 L 53.0 59.0 L 53.0 58.0 L 52.666666666666664 57.0 L 52.0 56.0 L 51.0 55.0 L 50.0 54.0 L 49.0 53.0 L 48.0 52.0 L 47.0 51.0 L 46.0 50.0 L 45.0 49.333333333333336 L 44.0 48.666666666666664 L 43.0 48.0 L 42.0 47.333333333333336 L 41.0 46.666666666666664 L 40.0 46.333333333333336 L 39.0 45.666666666666664 L 38.0 45.333333333333336 L 37.0 45.0 L 36.0 44.666666666666664 L 35.0 44.333333333333336 L 34.0 44.0 L 33.0 44.0 L 32.0 44.0 L 31.0 44.0 L 30.0 44.0 L 29.0 44.0 L 28.0 44.333333333333336 L 27.333333333333332 45.0 L 27.0 46.0 L 27.0 47.0 L 27.333333333333332 48.0 L 28.0 48.666666666666664 L 29.0 49.0 L 30.0 49.333333333333336 L 31.0 49.666666666666664 L 32.0 50.333333333333336 L 33.0 51.0 L 34.0 51.666666666666664 L 35.0 52.333333333333336 L 35.333333333333336 53.0 L 35.0 53.666666666666664 L 34.0 54.333333333333336 L 33.0 55.0 L 32.0 55.666666666666664 L 31.0 56.333333333333336 L 30.0 56.666666666666664 L 29.0 57.333333333333336 L 28.0 57.666666666666664 L 27.0 58.333333333333336 L 26.333333333333332 59.0 L 25.666666666666668 60.0 L 25.333333333333332 61.0 L 25.0 62.0 L 25.0 62.5 Z" stroke="none" fill="rgb(66,43,13)" />
<path d="M 87.5 60.5 L 88.0 60.0 L 89.0 59.0 L 89.66666666666667 58.0 L 90.33333333333333 57.0 L 90.66666666666667 56.0 L 91.0 55.0 L 91.0 54.0 L 91.0 53.0 L 90.66666666666667 52.0 L 90.33333333333333 51.0 L 89.66666666666667 50.0 L 89.0 49.0 L 88.0 48.0 L 87.0 47.0 L 86.0 46.333333333333336 L 85.0 46.0 L 84.0 46.0 L 83.0 46.0 L 82.0 46.333333333333336 L 81.0 46.666666666666664 L 80.0 47.333333333333336 L 79.0 47.666666666666664 L 78.0 48.333333333333336 L 77.33333333333333 49.0 L 76.66666666666667 50.0 L 76.33333333333333 51.0 L 76.0 52.0 L 76.0 53.0 L 76.0 54.0 L 76.0 55.0 L 76.0 56.0 L 76.33333333333333 57.0 L 77.0 58.0 L 78.0 59.0 L 79.0 60.0 L 80.0 60.666666666666664 L 81.0 61.0 L 82.0 61.0 L 83.0 61.0 L 84.0 61.0 L 85.0 61.0 L 86.0 61.0 L 86.5 61.0 Z" stroke="none" fill="rgb(66,43,13)" />
<path d="M 27.5 78.0 L 27.666666666666668 77.66666666666667 L 28.0 77.0 L 28.0 76.0 L 28.0 75.0 L 27.666666666666668 74.0 L 27.333333333333332 73.0 L 27.0 72.0 L 27.0 71.0 L 26.666666666666668 70.0 L 26.333333333333332 69.0 L 26.0 68.0 L 26.0 67.0 L 26.333333333333332 66.0 L 26.666666666666668 65.0 L 26.666666666666668 64.0 L 26.0 63.0 L 25.666666666666668 62.0 L 25.666666666666668 61.0 L 26.333333333333332 60.0 L 26.666666666666668 59.0 L 27.0 58.0 L 27.0 57.0 L 27.0 56.0 L 27.0 55.0 L 27.0 54.0 L 27.333333333333332 53.0 L 27.666666666666668 52.0 L 28.0 51.0 L 28.0 50.0 L 28.0 49.0 L 27.666666666666668 48.0 L 27.0 47.333333333333336 L 26.0 47.0 L 25.0 47.0 L 24.333333333333332 47.333333333333336 L 24.0 48.0 L 23.666666666666668 49.0 L 23.333333333333332 50.0 L 23.0 51.0 L 22.666666666666668 52.0 L 22.333333333333332 53.0 L 22.0 54.0 L 22.0 55.0 L 22.0 56.0 L 22.0 57.0 L 21.666666666666668 58.0 L 21.333333333333332 59.0 L 21.0 60.0 L 21.0 61.0 L 21.0 62.0 L 21.0 63.0 L 21.0 64.0 L 21.0 65.0 L 21.0 66.0 L 21.333333333333332 67.0 L 21.666666666666668 68.0 L 22.0 69.0 L 22.0 70.0 L 22.0 71.0 L 22.0 72.0 L 22.333333333333332 73.0 L 22.666666666666668 74.0 L 23.0 75.0 L 23.333333333333332 76.0 L 23.666666666666668 77.0 L 24.333333333333332 78.0 L 25.0 78.66666666666667 L 26.0 78.66666666666667 L 26.5 78.5 Z" stroke="none" fill="rgb(250,208,46)" />
<path d="M 30.5 57.0 L 31.0 56.666666666666664 L 32.0 56.333333333333336 L 33.0 55.666666666666664 L 33.666666666666664 55.0 L 34.0 54.0 L 34.0 53.0 L 34.0 52.0 L 33.666666666666664 51.0 L 33.0 50.333333333333336 L 32.0 49.666666666666664 L 31.0 49.333333333333336 L 30.0 49.0 L 29.0 49.0 L 28.333333333333332 49.333333333333336 L 28.0 50.0 L 27.666666666666668 51.0 L 27.333333333333332 52.0 L 27.0 53.0 L 27.0 54.0 L 26.666666666666668 55.0 L 26.333333333333332 56.0 L 26.333333333333332 57.0 L 27.0 57.666666666666664 L 28.0 58.0 L 29.0 57.666666666666664 L 29.5 57.5 Z" stroke="none" fill="rgb(251,215,47)" />
<path d="M 36.0 53.5 L 36.0 53.0 L 35.666666666666664 52.333333333333336 L 35.0 52.0 L 34.333333333333336 52.333333333333336 L 34.0 53.0 L 34.333333333333336 53.666666666666664 L 35.0 54.0 L 35.5 54.0 Z" stroke="none" fill="rgb(253,224,48)" />
<path d="M 117.0 78.5 L 117.0 78.0 L 117.33333333333333 77.0 L 117.66666666666667 76.0 L 118.0 75.0 L 118.0 74.0 L 118.33333333333333 73.0 L 118.66666666666667 72.0 L 119.0 71.0 L 119.0 70.0 L 119.0 69.0 L 119.0 68.0 L 119.0 67.0 L 119.0 66.0 L 119.0 65.0 L 119.0 64.0 L 119.0 63.0 L 119.0 62.0 L 119.0 61.0 L 119.0 60.0 L 119.0 59.0 L 119.0 58.0 L 119.0 57.0 L 119.0 56.0 L 118.66666666666667 55.0 L 118.0 54.333333333333336 L 117.0 54.0 L 116.33333333333333 54.333333333333336 L 116.0 55.0 L 116.33333333333333 56.0 L 116.66666666666667 57.0 L 117.0 58.0 L 117.0 59.0 L 117.0 60.0 L 117.0 61.0 L 117.0 62.0 L 117.0 63.0 L 117.0 64.0 L 117.0 65.0 L 117.0 66.0 L 117.0 67.0 L 117.0 68.0 L 116.66666666666667 69.0 L 116.33333333333333 70.0 L 116.0 71.0 L 116.0 72.0 L 116.0 73.0 L 115.66666666666667 74.0 L 115.33333333333333 75.0 L 115.0 76.0 L 115.0 77.0 L 114.66666666666667 78.0 L 114.33333333333333 79.0 L 114.0 80.0 L 113.66666666666667 81.0 L 113.33333333333333 82.0 L 112.66666666666667 83.0 L 112.33333333333333 84.0 L 112.0 85.0 L 111.66666666666667 86.0 L 111.0 87.0 L 110.33333333333333 88.0 L 110.0 89.0 L 110.33333333333333 89.66666666666667 L 111.0 89.66666666666667 L 112.0 89.0 L 112.66666666666667 88.0 L 113.33333333333333 87.0 L 113.66666666666667 86.0 L 114.33333333333333 85.0 L 114.66666666666667 84.0 L 115.33333333333333 83.0 L 115.66666666666667 82.0 L 116.0 81.0 L 116.33333333333333 80.0 L 116.5 79.5 Z" stroke="none" fill="rgb(246,182,40)" />
<path d="M 10.5 71.0 L 10.666666666666666 70.66666666666667 L 11.0 70.0 L 11.0 69.0 L 11.0 68.0 L 11.0 67.0 L 11.0 66.0 L 10.666666666666666 65.0 L 10.333333333333334 64.0 L 10.0 63.0 L 10.333333333333334 62.0 L 10.666666666666666 61.0 L 11.0 60.0 L 11.0 59.0 L 11.0 58.0 L 11.0 57.0 L 10.666666666666666 56.333333333333336 L 10.0 56.0 L 9.333333333333334 56.333333333333336 L 9.0 57.0 L 9.0 58.0 L 9.0 59.0 L 9.0 60.0 L 9.0 61.0 L 9.0 62.0 L 9.0 63.0 L 9.0 64.0 L 9.0 65.0 L 9.0 66.0 L 9.0 67.0 L 9.0 68.0 L 9.0 69.0 L 9.333333333333334 70.0 L 9.5 70.5 Z" stroke="none" fill="rgb(246,182,40)" />
<path d="M 100.0 74.5 L 100.0 74.0 L 100.33333333333333 73.0 L 100.66666666666667 72.0 L 101.0 71.0 L 101.0 70.0 L 101.0 69.0 L 101.0 68.0 L 101.33333333333333 67.0 L 101.66666666666667 66.0 L 102.0 65.0 L 102.0 64.0 L 102.0 63.0 L 102.0 62.0 L 102.0 61.0 L 101.66666666666667 60.0 L 101.0 59.333333333333336 L 100.0 59.333333333333336 L 99.0 60.0 L 98.33333333333333 61.0 L 97.66666666666667 62.0 L 97.0 63.0 L 96.0 64.0 L 95.33333333333333 65.0 L 95.0 66.0 L 95.0 67.0 L 95.0 68.0 L 95.0 69.0 L 94.66666666666667 70.0 L 94.33333333333333 71.0 L 94.0 72.0 L 93.66666666666667 73.0 L 93.33333333333333 74.0 L 93.0 75.0 L 93.0 76.0 L 93.0 77.0 L 93.33333333333333 77.66666666666667 L 94.0 78.0 L 95.0 78.0 L 96.0 78.0 L 97.0 78.0 L 98.0 78.0 L 98.66666666666667 77.66666666666667 L 99.0 77.0 L 99.33333333333333 76.0 L 99.5 75.5 Z" stroke="none" fill="rgb(251,215,47)" />
<path d="M 27.5 74.5 L 27.666666666666668 75.0 L 28.0 76.0 L 28.333333333333332 76.66666666666667 L 29.0 77.0 L 30.0 77.33333333333333 L 31.0 77.66666666666667 L 32.0 78.0 L 33.0 78.0 L 34.0 78.0 L 34.666666666666664 77.66666666666667 L 35.0 77.0 L 34.666666666666664 76.0 L 34.333333333333336 75.0 L 34.0 74.0 L 33.666666666666664 73.0 L 33.333333333333336 72.0 L 33.0 71.0 L 33.0 70.0 L 32.666666666666664 69.0 L 32.333333333333336 68.0 L 32.0 67.0 L 32.0 66.0 L 32.0 65.0 L 31.666666666666668 64.33333333333333 L 31.0 64.0 L 30.0 64.0 L 29.0 64.33333333333333 L 28.0 64.66666666666667 L 27.0 65.0 L 26.333333333333332 65.33333333333333 L 26.0 66.0 L 26.0 67.0 L 26.0 68.0 L 26.0 69.0 L 26.333333333333332 70.0 L 26.666666666666668 71.0 L 27.0 72.0 L 27.0 73.0 L 27.0 73.5 Z" stroke="none" fill="rgb(251,215,47)" />
<path d="M 24.5 104.5 L 25.0 104.66666666666667 L 26.0 105.33333333333333 L 27.0 106.0 L 28.0 106.66666666666667 L 29.0 107.33333333333333 L 30.0 108.0 L 31.0 108.66666666666667 L 32.0 109.0 L 33.0 109.0 L 33.666666666666664 108.66666666666667 L 33.666666666666664 108.0 L 33.0 107.0 L 32.0 106.0 L 31.0 105.0 L 30.0 104.0 L 29.0 103.0 L 28.0 102.0 L 27.0 101.0 L 26.0 100.0 L 25.0 99.0 L 24.0 98.0 L 23.0 97.0 L 22.0 96.0 L 21.333333333333332 95.0 L 20.666666666666668 94.0 L 20.0 93.0 L 19.0 92.0 L 18.333333333333332 91.0 L 17.666666666666668 90.0 L 17.333333333333332 89.0 L 16.666666666666668 88.0 L 16.0 87.0 L 15.333333333333334 86.0 L 14.666666666666666 85.0 L 14.333333333333334 84.0 L 14.0 83.0 L 13.666666666666666 82.0 L 13.333333333333334 81.0 L 12.666666666666666 80.0 L 12.333333333333334 79.0 L 12.0 78.0 L 12.0 77.0 L 11.666666666666666 76.0 L 11.0 75.0 L 10.666666666666666 74.0 L 10.666666666666666 73.0 L 11.0 72.0 L 10.666666666666666 71.0 L 10.0 70.33333333333333 L 9.0 70.0 L 8.333333333333334 70.33333333333333 L 8.0 71.0 L 8.0 72.0 L 8.333333333333334 73.0 L 8.666666666666666 74.0 L 9.0 75.0 L 9.0 76.0 L 9.0 77.0 L 9.333333333333334 78.0 L 9.666666666666666 79.0 L 10.0 80.0 L 10.333333333333334 81.0 L 10.666666666666666 82.0 L 11.0 83.0 L 11.333333333333334 84.0 L 11.666666666666666 85.0 L 12.333333333333334 86.0 L 12.666666666666666 87.0 L 13.333333333333334 88.0 L 13.666666666666666 89.0 L 14.333333333333334 90.0 L 14.666666666666666 91.0 L 15.333333333333334 92.0 L 16.0 93.0 L 16.666666666666668 94.0 L 17.333333333333332 95.0 L 18.0 96.0 L 18.666666666666668 97.0 L 19.333333333333332 98.0 L 20.0 99.0 L 21.0 100.0 L 22.0 101.0 L 23.0 102.0 L 23.666666666666668 103.0 L 24.0 103.5 Z" stroke="none" fill="rgb(245,173,38)" />
<path d="M 11.5 76.0 L 11.666666666666666 75.66666666666667 L 12.0 75.0 L 12.0 74.0 L 11.666666666666666 73.33333333333333 L 11.0 73.0 L 10.333333333333334 73.33333333333333 L 10.0 74.0 L 10.333333333333334 75.0 L 10.5 75.5 Z" stroke="none" fill="rgb(246,182,40)" />
<path d="M 95.5 97.5 L 96.0 97.0 L 96.66666666666667 96.0 L 97.0 95.0 L 97.0 94.0 L 97.33333333333333 93.0 L 97.66666666666667 92.0 L 98.33333333333333 91.0 L 98.66666666666667 90.0 L 99.33333333333333 89.0 L 99.66666666666667 88.0 L 100.33333333333333 87.0 L 100.66666666666667 86.0 L 101.0 85.0 L 101.33333333333333 84.0 L 101.66666666666667 83.0 L 102.0 82.0 L 102.0 81.0 L 101.66666666666667 80.0 L 101.0 79.0 L 100.0 78.33333333333333 L 99.0 78.0 L 98.0 78.0 L 97.0 78.0 L 96.0 78.0 L 95.0 78.0 L 94.0 78.0 L 93.0 78.0 L 92.0 78.33333333333333 L 91.0 78.66666666666667 L 90.0 79.0 L 89.0 79.0 L 88.0 79.0 L 87.0 79.0 L 86.0 79.0 L 85.0 79.33333333333333 L 84.0 79.66666666666667 L 83.0 80.0 L 82.0 80.0 L 81.0 80.0 L 80.0 80.0 L 79.0 80.0 L 78.0 80.0 L 77.0 80.0 L 76.0 80.0 L 75.0 80.0 L 74.0 80.0 L 73.0 80.0 L 72.0 80.0 L 71.0 80.0 L 70.0 80.0 L 69.0 80.0 L 68.0 80.0 L 67.0 80.0 L 66.0 80.0 L 65.0 80.0 L 64.0 80.0 L 63.0 80.0 L 62.0 80.0 L 61.0 80.0 L 60.0 80.0 L 59.0 80.0 L 58.0 80.0 L 57.0 80.0 L 56.0 80.0 L 55.0 80.0 L 54.0 80.0 L 53.0 80.0 L 52.0 80.0 L 51.0 80.0 L 50.0 80.0 L 49.0 79.66666666666667 L 48.0 79.33333333333333 L 47.0 79.0 L 46.0 79.0 L 45.0 79.0 L 44.0 79.0 L 43.0 79.0 L 42.0 79.0 L 41.0 79.0 L 40.0 79.0 L 39.0 78.66666666666667 L 38.0 78.33333333333333 L 37.0 78.0 L 36.0 78.0 L 35.0 78.0 L 34.0 78.0 L 33.0 78.0 L 32.0 77.66666666666667 L 31.0 77.33333333333333 L 30.0 77.0 L 29.0 77.0 L 28.0 77.33333333333333 L 27.0 77.66666666666667 L 26.0 78.33333333333333 L 25.333333333333332 79.0 L 25.0 80.0 L 25.0 81.0 L 25.0 82.0 L 25.0 83.0 L 25.0 84.0 L 25.0 85.0 L 25.333333333333332 86.0 L 25.666666666666668 87.0 L 26.0 88.0 L 26.333333333333332 89.0 L 26.666666666666668 90.0 L 27.333333333333332 91.0 L 27.666666666666668 92.0 L 28.333333333333332 93.0 L 29.0 94.0 L 30.0 95.0 L 31.0 96.0 L 32.0 97.0 L 33.0 98.0 L 34.0 99.0 L 35.0 100.0 L 36.0 101.0 L 37.0 102.0 L 38.0 103.0 L 39.0 104.0 L 40.0 104.66666666666667 L 41.0 105.33333333333333 L 42.0 106.0 L 43.0 106.66666666666667 L 44.0 107.0 L 44.666666666666664 106.66666666666667 L 45.0 106.0 L 45.0 105.0 L 45.0 104.0 L 45.0 103.0 L 45.0 102.0 L 45.0 101.0 L 45.0 100.0 L 45.0 99.0 L 45.0 98.0 L 45.0 97.0 L 45.0 96.0 L 45.0 95.0 L 45.0 94.0 L 45.0 93.0 L 45.0 92.0 L 45.0 91.0 L 45.0 90.0 L 45.0 89.0 L 45.0 88.0 L 45.0 87.0 L 45.333333333333336 86.0 L 46.0 85.33333333333333 L 47.0 85.0 L 48.0 85.0 L 49.0 85.0 L 50.0 85.0 L 51.0 85.0 L 52.0 85.0 L 53.0 85.0 L 54.0 85.0 L 55.0 85.0 L 56.0 85.0 L 57.0 85.0 L 58.0 85.0 L 59.0 85.0 L 60.0 85.0 L 61.0 85.0 L 62.0 85.0 L 63.0 85.0 L 64.0 85.0 L 65.0 85.0 L 66.0 85.0 L 67.0 85.0 L 68.0 85.0 L 69.0 85.0 L 70.0 85.0 L 71.0 85.0 L 72.0 85.0 L 73.0 85.0 L 74.0 85.0 L 75.0 85.0 L 76.0 85.0 L 77.0 85.0 L 78.0 85.0 L 79.0 85.0 L 80.0 85.0 L 81.0 85.33333333333333 L 81.66666666666667 86.0 L 82.0 87.0 L 82.0 88.0 L 82.0 89.0 L 82.0 90.0 L 82.0 91.0 L 82.0 92.0 L 82.0 93.0 L 82.0 94.0 L 82.0 95.0 L 82.0 96.0 L 82.0 97.0 L 82.0 98.0 L 82.0 99.0 L 82.0 100.0 L 82.0 101.0 L 82.0 102.0 L 82.0 103.0 L 82.33333333333333 104.0 L 83.0 104.66666666666667 L 84.0 105.0 L 85.0 105.0 L 86.0 105.0 L 87.0 104.66666666666667 L 88.0 104.0 L 89.0 103.0 L 90.0 102.33333333333333 L 91.0 101.66666666666667 L 92.0 101.0 L 93.0 100.0 L 94.0 99.0 L 94.5 98.5 Z" stroke="none" fill="rgb(66,43,13)" />
<path d="M 59.5 90.0 L 60.0 90.0 L 61.0 90.0 L 61.666666666666664 89.66666666666667 L 62.0 89.0 L 62.0 88.0 L 62.0 87.0 L 62.0 86.0 L 61.666666666666664 85.33333333333333 L 61.0 85.0 L 60.0 85.0 L 59.0 85.0 L 58.0 85.0 L 57.0 85.0 L 56.0 85.0 L 55.0 85.0 L 54.0 85.0 L 53.0 85.0 L 52.0 85.0 L 51.0 85.0 L 50.0 85.0 L 49.0 85.0 L 48.0 85.0 L 47.0 85.0 L 46.0 85.0 L 45.333333333333336 85.33333333333333 L 45.0 86.0 L 45.0 87.0 L 45.333333333333336 87.66666666666667 L 46.0 88.0 L 47.0 88.33333333333333 L 48.0 88.66666666666667 L 49.0 89.0 L 50.0 89.0 L 51.0 89.0 L 52.0 89.0 L 53.0 89.0 L 54.0 89.0 L 55.0 89.0 L 56.0 89.0 L 57.0 89.33333333333333 L 58.0 89.66666666666667 L 58.5 90.0 Z" stroke="none" fill="rgb(231,64,104)" />
<path d="M 66.0 88.5 L 66.0 88.0 L 66.0 87.0 L 66.0 86.0 L 65.66666666666667 85.33333333333333 L 65.0 85.0 L 64.0 85.0 L 63.0 85.0 L 62.333333333333336 85.33333333333333 L 62.0 86.0 L 62.0 87.0 L 62.0 88.0 L 62.0 89.0 L 62.333333333333336 89.66666666666667 L 63.0 90.0 L 64.0 90.0 L 65.0 89.66666666666667 L 65.5 89.5 Z" stroke="none" fill="rgb(208,64,86)" />
<path d="M 72.5 89.0 L 73.0 89.0 L 74.0 89.0 L 75.0 89.0 L 76.0 89.0 L 77.0 89.0 L 78.0 88.66666666666667 L 79.0 88.33333333333333 L 80.0 88.0 L 81.0 88.0 L 81.66666666666667 87.66666666666667 L 82.0 87.0 L 82.0 86.0 L 81.66666666666667 85.33333333333333 L 81.0 85.0 L 80.0 85.0 L 79.0 85.0 L 78.0 85.0 L 77.0 85.0 L 76.0 85.0 L 75.0 85.0 L 74.0 85.0 L 73.0 85.0 L 72.0 85.0 L 71.0 85.0 L 70.0 85.0 L 69.0 85.0 L 68.0 85.0 L 67.0 85.0 L 66.33333333333333 85.33333333333333 L 66.0 86.0 L 66.0 87.0 L 65.66666666666667 88.0 L 65.0 89.0 L 64.0 89.66666666666667 L 63.0 90.0 L 62.333333333333336 90.33333333333333 L 62.0 91.0 L 62.0 92.0 L 62.0 93.0 L 62.0 94.0 L 62.0 95.0 L 62.0 96.0 L 62.0 97.0 L 62.0 98.0 L 62.0 99.0 L 62.0 100.0 L 62.0 101.0 L 62.0 102.0 L 62.0 103.0 L 62.0 104.0 L 62.0 105.0 L 62.333333333333336 105.66666666666667 L 63.0 106.0 L 64.0 106.0 L 65.0 105.66666666666667 L 65.66666666666667 105.0 L 66.0 104.0 L 66.0 103.0 L 66.0 102.0 L 66.0 101.0 L 66.0 100.0 L 66.0 99.0 L 66.0 98.0 L 66.0 97.0 L 66.0 96.0 L 66.0 95.0 L 66.0 94.0 L 66.0 93.0 L 66.0 92.0 L 66.33333333333333 91.0 L 67.0 90.0 L 68.0 89.33333333333333 L 69.0 89.0 L 70.0 89.0 L 71.0 89.0 L 71.5 89.0 Z" stroke="none" fill="rgb(231,64,104)" />
<path d="M 81.5 117.5 L 81.66666666666667 117.0 L 82.0 116.0 L 82.0 115.0 L 82.33333333333333 114.0 L 83.0 113.0 L 83.66666666666667 112.0 L 84.0 111.0 L 83.66666666666667 110.0 L 83.33333333333333 109.0 L 83.0 108.0 L 83.33333333333333 107.0 L 83.66666666666667 106.0 L 83.66666666666667 105.0 L 83.0 104.0 L 82.33333333333333 103.0 L 82.0 102.0 L 82.0 101.0 L 82.0 100.0 L 82.0 99.0 L 82.0 98.0 L 82.0 97.0 L 82.0 96.0 L 82.0 95.0 L 82.0 94.0 L 82.0 93.0 L 82.0 92.0 L 82.0 91.0 L 82.0 90.0 L 82.0 89.0 L 81.66666666666667 88.33333333333333 L 81.0 88.0 L 80.0 88.0 L 79.0 88.0 L 78.0 88.33333333333333 L 77.0 88.66666666666667 L 76.0 89.0 L 75.0 89.0 L 74.0 89.0 L 73.0 89.0 L 72.0 89.0 L 71.0 89.0 L 70.0 89.0 L 69.0 89.0 L 68.0 89.0 L 67.0 89.33333333333333 L 66.33333333333333 90.0 L 66.0 91.0 L 66.0 92.0 L 66.0 93.0 L 66.0 94.0 L 66.0 95.0 L 66.0 96.0 L 66.0 97.0 L 66.0 98.0 L 66.0 99.0 L 66.0 100.0 L 66.0 101.0 L 66.0 102.0 L 66.0 103.0 L 65.66666666666667 104.0 L 65.0 105.0 L 64.0 105.66666666666667 L 63.0 105.66666666666667 L 62.333333333333336 105.0 L 62.0 104.0 L 62.0 103.0 L 62.0 102.0 L 62.0 101.0 L 62.0 100.0 L 62.0 99.0 L 62.0 98.0 L 62.0 97.0 L 62.0 96.0 L 62.0 95.0 L 62.0 94.0 L 62.0 93.0 L 62.0 92.0 L 62.0 91.0 L 61.666666666666664 90.33333333333333 L 61.0 90.0 L 60.0 90.0 L 59.0 89.66666666666667 L 58.0 89.33333333333333 L 57.0 89.0 L 56.0 89.0 L 55.0 89.0 L 54.0 89.0 L 53.0 89.0 L 52.0 89.0 L 51.0 89.0 L 50.0 89.0 L 49.0 88.66666666666667 L 48.0 88.33333333333333 L 47.0 88.0 L 46.0 88.0 L 45.333333333333336 88.33333333333333 L 45.0 89.0 L 45.0 90.0 L 45.0 91.0 L 45.0 92.0 L 45.0 93.0 L 45.0 94.0 L 45.0 95.0 L 45.0 96.0 L 45.0 97.0 L 45.0 98.0 L 45.0 99.0 L 45.0 100.0 L 45.0 101.0 L 45.0 102.0 L 45.0 103.0 L 45.0 104.0 L 45.0 105.0 L 44.666666666666664 106.0 L 44.333333333333336 107.0 L 44.0 108.0 L 44.0 109.0 L 44.0 110.0 L 44.0 111.0 L 44.333333333333336 112.0 L 44.666666666666664 113.0 L 45.333333333333336 114.0 L 45.666666666666664 115.0 L 46.0 116.0 L 46.0 117.0 L 46.333333333333336 118.0 L 47.0 119.0 L 47.666666666666664 120.0 L 48.333333333333336 121.0 L 49.0 122.0 L 50.0 122.66666666666667 L 51.0 123.33333333333333 L 52.0 124.0 L 53.0 124.66666666666667 L 54.0 125.0 L 55.0 125.33333333333333 L 56.0 125.66666666666667 L 57.0 126.0 L 58.0 126.0 L 59.0 126.0 L 60.0 126.0 L 61.0 126.0 L 62.0 126.0 L 63.0 126.0 L 64.0 126.0 L 65.0 126.0 L 66.0 126.0 L 67.0 126.0 L 68.0 126.0 L 69.0 126.0 L 70.0 126.0 L 71.0 125.66666666666667 L 72.0 125.33333333333333 L 73.0 125.0 L 74.0 124.66666666666667 L 75.0 124.0 L 76.0 123.33333333333333 L 77.0 122.66666666666667 L 78.0 122.0 L 79.0 121.0 L 79.66666666666667 120.0 L 80.33333333333333 119.0 L 80.5 118.5 Z" stroke="none" fill="rgb(255,64,129)" />
<path d="M 27.5 92.0 L 27.666666666666668 91.66666666666667 L 27.666666666666668 91.33333333333333 L 27.333333333333332 91.33333333333333 L 27.0 91.5 Z" stroke="none" fill="rgb(249,202,45)" />
<path d="M 43.5 116.5 L 44.0 116.66666666666667 L 45.0 117.0 L 45.666666666666664 116.66666666666667 L 46.0 116.0 L 46.0 115.0 L 45.666666666666664 114.0 L 45.0 113.33333333333333 L 44.0 112.66666666666667 L 43.0 112.33333333333333 L 42.0 112.0 L 41.0 112.0 L 40.0 111.66666666666667 L 39.0 111.33333333333333 L 38.0 110.66666666666667 L 37.0 110.33333333333333 L 36.0 109.66666666666667 L 35.0 109.33333333333333 L 34.0 109.0 L 33.0 109.0 L 32.0 108.66666666666667 L 31.0 108.0 L 30.0 107.33333333333333 L 29.0 106.66666666666667 L 28.0 106.0 L 27.0 105.33333333333333 L 26.0 104.66666666666667 L 25.0 104.0 L 24.0 103.33333333333333 L 23.0 103.0 L 22.333333333333332 103.33333333333333 L 22.0 104.0 L 22.333333333333332 105.0 L 23.0 105.66666666666667 L 24.0 106.33333333333333 L 25.0 107.0 L 26.0 108.0 L 27.0 108.66666666666667 L 28.0 109.33333333333333 L 29.0 110.0 L 30.0 110.66666666666667 L 31.0 111.33333333333333 L 32.0 111.66666666666667 L 33.0 112.33333333333333 L 34.0 112.66666666666667 L 35.0 113.33333333333333 L 36.0 113.66666666666667 L 37.0 114.33333333333333 L 38.0 114.66666666666667 L 39.0 115.0 L 40.0 115.33333333333333 L 41.0 115.66666666666667 L 42.0 116.0 L 42.5 116.0 Z" stroke="none" fill="rgb(235,143,0)" />
</svg>
