<?xml version="1.0" encoding="UTF-8" standalone="no"?>
<!DOCTYPE svg PUBLIC "-//W3C//DTD SVG 1.1//EN"
"http://www.w3.org/Graphics/SVG/1.1/DTD/svg11.dtd">
<svg width="128" height="128" xmlns="http://www.w3.org/2000/svg" version="1.1">
<path d="M 5.5 128.0 L 6.0 128.0 L 7.0 128.0 L 8.0 128.0 L 9.0 128.0 L 10.0 128.0 L 11.0 128.0 L 12.0 128.0 L 13.0 128.0 L 14.0 128.0 L 15.0 128.0 L 16.0 128.0 L 17.0 128.0 L 18.0 128.0 L 19.0 128.0 L 20.0 128.0 L 21.0 128.0 L 22.0 128.0 L 23.0 128.0 L 24.0 128.0 L 25.0 128.0 L 26.0 128.0 L 27.0 128.0 L 28.0 128.0 L 29.0 128.0 L 30.0 128.0 L 31.0 128.0 L 32.0 128.0 L 33.0 128.0 L 34.0 128.0 L 35.0 128.0 L 36.0 128.0 L 37.0 128.0 L 38.0 128.0 L 39.0 128.0 L 40.0 128.0 L 41.0 128.0 L 42.0 128.0 L 43.0 128.0 L 44.0 128.0 L 45.0 128.0 L 46.0 128.0 L 47.0 128.0 L 48.0 128.0 L 49.0 128.0 L 50.0 128.0 L 51.0 128.0 L 52.0 128.0 L 53.0 128.0 L 54.0 128.0 L 55.0 128.0 L 56.0 128.0 L 57.0 128.0 L 58.0 128.0 L 59.0 128.0 L 60.0 128.0 L 61.0 128.0 L 62.0 128.0 L 63.0 128.0 L 64.0 128.0 L 65.0 128.0 L 66.0 128.0 L 67.0 128.0 L 68.0 128.0 L 69.0 128.0 L 70.0 128.0 L 71.0 128.0 L 72.0 128.0 L 73.0 128.0 L 74.0 128.0 L 75.0 128.0 L 76.0 128.0 L 77.0 128.0 L 78.0 128.0 L 79.0 128.0 L 80.0 128.0 L 81.0 128.0 L 82.0 128.0 L 83.0 128.0 L 84.0 128.0 L 85.0 128.0 L 86.0 128.0 L 87.0 128.0 L 88.0 128.0 L 89.0 128.0 L 90.0 128.0 L 91.0 128.0 L 92.0 128.0 L 93.0 128.0 L 94.0 128.0 L 95.0 128.0 L 96.0 128.0 L 97.0 128.0 L 98.0 128.0 L 99.0 128.0 L 100.0 128.0 L 101.0 128.0 L 102.0 128.0 L 103.0 128.0 L 104.0 128.0 L 105.0 128.0 L 106.0 128.0 L 107.0 128.0 L 108.0 128.0 L 109.0 128.0 L 110.0 128.0 L 111.0 128.0 L 112.0 128.0 L 113.0 128.0 L 114.0 128.0 L 115.0 128.0 L 116.0 128.0 L 117.0 128.0 L 118.0 128.0 L 119.0 128.0 L 120.0 128.0 L 121.0 128.0 L 122.0 128.0 L 123.0 128.0 L 124.0 128.0 L 125.0 128.0 L 126.0 128.0 L 127.0 128.0 L 127.66666666666667 127.66666666666667 L 128.0 127.0 L 128.0 126.0 L 128.0 125.0 L 128.0 124.0 L 128.0 123.0 L 128.0 122.0 L 128.0 121.0 L 128.0 120.0 L 128.0 119.0 L 128.0 118.0 L 128.0 117.0 L 128.0 116.0 L 128.0 115.0 L 128.0 114.0 L 128.0 113.0 L 128.0 112.0 L 128.0 111.0 L 128.0 110.0 L 128.0 109.0 L 128.0 108.0 L 128.0 107.0 L 128.0 106.0 L 128.0 105.0 L 128.0 104.0 L 128.0 103.0 L 128.0 102.0 L 128.0 101.0 L 128.0 100.0 L 128.0 99.0 L 128.0 98.0 L 128.0 97.0 L 128.0 96.0 L 128.0 95.0 L 128.0 94.0 L 128.0 93.0 L 128.0 92.0 L 128.0 91.0 L 128.0 90.0 L 128.0 89.0 L 128.0 88.0 L 128.0 87.0 L 128.0 86.0 L 128.0 85.0 L 128.0 84.0 L 128.0 83.0 L 128.0 82.0 L 128.0 81.0 L 128.0 80.0 L 128.0 79.0 L 128.0 78.0 L 128.0 77.0 L 128.0 76.0 L 128.0 75.0 L 128.0 74.0 L 128.0 73.0 L 128.0 72.0 L 128.0 71.0 L 128.0 70.0 L 128.0 69.0 L 128.0 68.0 L 128.0 67.0 L 128.0 66.0 L 128.0 65.0 L 128.0 64.0 L 128.0 63.0 L 128.0 62.0 L 128.0 61.0 L 128.0 60.0 L 128.0 59.0 L 128.0 58.0 L 128.0 57.0 L 128.0 56.0 L 128.0 55.0 L 128.0 54.0 L 128.0 53.0 L 128.0 52.0 L 128.0 51.0 L 128.0 50.0 L 128.0 49.0 L 128.0 48.0 L 128.0 47.0 L 128.0 46.0 L 128.0 45.0 L 128.0 44.0 L 128.0 43.0 L 128.0 42.0 L 128.0 41.0 L 128.0 40.0 L 128.0 39.0 L 128.0 38.0 L 128.0 37.0 L 128.0 36.0 L 128.0 35.0 L 128.0 34.0 L 128.0 33.0 L 128.0 32.0 L 128.0 31.0 L 128.0 30.0 L 128.0 29.0 L 128.0 28.0 L 128.0 27.0 L 128.0 26.0 L 128.0 25.0 L 128.0 24.0 L 128.0 23.0 L 128.0 22.0 L 128.0 21.0 L 128.0 20.0 L 128.0 19.0 L 128.0 18.0 L 128.0 17.0 L 128.0 16.0 L 128.0 15.0 L 128.0 14.0 L 128.0 13.0 L 128.0 12.0 L 128.0 11.0 L 128.0 10.0 L 128.0 9.0 L 128.0 8.0 L 128.0 7.0 L 128.0 6.0 L 128.0 5.0 L 128.0 4.0 L 128.0 3.0 L 128.0 2.0 L 128.0 1.0 L 127.66666666666667 0.3333333333333333 L 127.0 0.0 L 126.0 0.0 L 125.0 0.0 L 124.0 0.0 L 123.0 0.0 L 122.0 0.0 L 121.0 0.0 L 120.0 0.0 L 119.0 0.0 L 118.0 0.0 L 117.0 0.0 L 116.0 0.0 L 115.0 0.0 L 114.0 0.0 L 113.0 0.0 L 112.0 0.0 L 111.0 0.0 L 110.0 0.0 L 109.0 0.0 L 108.0 0.0 L 107.0 0.0 L 106.0 0.0 L 105.0 0.0 L 104.0 0.0 L 103.0 0.0 L 102.0 0.0 L 101.0 0.0 L 100.0 0.0 L 99.0 0.0 L 98.0 0.0 L 97.0 0.0 L 96.0 0.0 L 95.0 0.0 L 94.0 0.0 L 93.0 0.0 L 92.0 0.0 L 91.0 0.0 L 90.0 0.0 L 89.0 0.0 L 88.0 0.0 L 87.0 0.0 L 86.0 0.0 L 85.0 0.0 L 84.0 0.0 L 83.0 0.0 L 82.0 0.0 L 81.0 0.0 L 80.0 0.0 L 79.0 0.0 L 78.0 0.0 L 77.0 0.0 L 76.0 0.0 L 75.0 0.0 L 74.0 0.0 L 73.0 0.0 L 72.0 0.0 L 71.0 0.0 L 70.0 0.0 L 69.0 0.0 L 68.0 0.0 L 67.0 0.0 L 66.0 0.0 L 65.0 0.0 L 64.0 0.0 L 63.0 0.0 L 62.0 0.0 L 61.0 0.0 L 60.0 0.0 L 59.0 0.0 L 58.0 0.0 L 57.0 0.0 L 56.0 0.0 L 55.0 0.0 L 54.0 0.0 L 53.0 0.0 L 52.0 0.0 L 51.0 0.0 L 50.0 0.0 L 49.0 0.0 L 48.0 0.0 L 47.0 0.0 L 46.0 0.0 L 45.0 0.0 L 44.0 0.0 L 43.0 0.0 L 42.0 0.0 L 41.0 0.0 L 40.0 0.0 L 39.0 0.0 L 38.0 0.0 L 37.0 0.0 L 36.0 0.0 L 35.0 0.0 L 34.0 0.0 L 33.0 0.0 L 32.0 0.0 L 31.0 0.0 L 30.0 0.0 L 29.0 0.0 L 28.0 0.0 L 27.0 0.0 L 26.0 0.0 L 25.0 0.0 L 24.0 0.0 L 23.0 0.0 L 22.0 0.0 L 21.0 0.0 L 20.0 0.0 L 19.0 0.0 L 18.0 0.0 L 17.0 0.0 L 16.0 0.0 L 15.0 0.0 L 14.0 0.0 L 13.0 0.0 L 12.0 0.0 L 11.0 0.0 L 10.0 0.0 L 9.0 0.0 L 8.0 0.0 L 7.0 0.0 L 6.0 0.0 L 5.0 0.0 L 4.0 0.0 L 3.0 0.0 L 2.0 0.0 L 1.0 0.0 L 0.3333333333333333 0.3333333333333333 L 0.0 1.0 L 0.0 2.0 L 0.0 3.0 L 0.0 4.0 L 0.0 5.0 L 0.0 6.0 L 0.0 7.0 L 0.0 8.0 L 0.0 9.0 L 0.0 10.0 L 0.0 11.0 L 0.0 12.0 L 0.0 13.0 L 0.0 14.0 L 0.0 15.0 L 0.0 16.0 L 0.0 17.0 L 0.0 18.0 L 0.0 19.0 L 0.0 20.0 L 0.0 21.0 L 0.0 22.0 L 0.0 23.0 L 0.0 24.0 L 0.0 25.0 L 0.0 26.0 L 0.0 27.0 L 0.0 28.0 L 0.0 29.0 L 0.0 30.0 L 0.0 31.0 L 0.0 32.0 L 0.0 33.0 L 0.0 34.0 L 0.0 35.0 L 0.0 36.0 L 0.0 37.0 L 0.0 38.0 L 0.0 39.0 L 0.0 40.0 L 0.0 41.0 L 0.0 42.0 L 0.0 43.0 L 0.0 44.0 L 0.0 45.0 L 0.0 46.0 L 0.0 47.0 L 0.0 48.0 L 0.0 49.0 L 0.0 50.0 L 0.0 51.0 L 0.0 52.0 L 0.0 53.0 L 0.0 54.0 L 0.0 55.0 L 0.0 56.0 L 0.0 57.0 L 0.0 58.0 L 0.0 59.0 L 0.0 60.0 L 0.0 61.0 L 0.0 62.0 L 0.0 63.0 L 0.0 64.0 L 0.0 65.0 L 0.0 66.0 L 0.0 67.0 L 0.0 68.0 L 0.0 69.0 L 0.0 70.0 L 0.0 71.0 L 0.0 72.0 L 0.0 73.0 L 0.0 74.0 L 0.0 75.0 L 0.0 76.0 L 0.0 77.0 L 0.0 78.0 L 0.0 79.0 L 0.0 80.0 L 0.0 81.0 L 0.0 82.0 L 0.0 83.0 L 0.0 84.0 L 0.0 85.0 L 0.0 86.0 L 0.0 87.0 L 0.0 88.0 L 0.0 89.0 L 0.0 90.0 L 0.0 91.0 L 0.0 92.0 L 0.0 93.0 L 0.0 94.0 L 0.0 95.0 L 0.0 96.0 L 0.0 97.0 L 0.0 98.0 L 0.0 99.0 L 0.0 100.0 L 0.0 101.0 L 0.0 102.0 L 0.0 103.0 L 0.0 104.0 L 0.0 105.0 L 0.0 106.0 L 0.0 107.0 L 0.0 108.0 L 0.0 109.0 L 0.0 110.0 L 0.0 111.0 L 0.0 112.0 L 0.0 113.0 L 0.0 114.0 L 0.0 115.0 L 0.0 116.0 L 0.0 117.0 L 0.0 118.0 L 0.0 119.0 L 0.0 120.0 L 0.0 121.0 L 0.0 122.0 L 0.0 123.0 L 0.0 124.0 L 0.0 125.0 L 0.0 126.0 L 0.0 127.0 L 0.3333333333333333 127.66666666666667 L 1.0 128.0 L 2.0 128.0 L 3.0 128.0 L 4.0 128.0 L 4.5 128.0 Z" stroke="none" fill="rgb(0,0,0)" />
<path d="M 78.5 97.0 L 79.0 97.33333333333333 L 80.0 97.66666666666667 L 81.0 98.33333333333333 L 82.0 98.66666666666667 L 83.0 99.33333333333333 L 84.0 99.66666666666667 L 85.0 100.33333333333333 L 86.0 101.0 L 87.0 102.0 L 88.0 103.0 L 89.0 104.0 L 90.0 105.0 L 91.0 106.0 L 92.0 106.66666666666667 L 93.0 106.66666666666667 L 94.0 106.33333333333333 L 95.0 106.0 L 96.0 106.0 L 97.0 106.0 L 98.0 106.0 L 99.0 106.0 L 100.0 106.0 L 101.0 106.0 L 102.0 106.0 L 103.0 106.0 L 104.0 106.0 L 105.0 106.0 L 106.0 106.0 L 107.0 106.0 L 108.0 106.0 L 109.0 106.0 L 110.0 105.66666666666667 L 110.66666666666667 105.0 L 111.0 104.0 L 111.0 103.0 L 110.66666666666667 102.0 L 110.33333333333333 101.0 L 109.66666666666667 100.0 L 109.0 99.0 L 108.66666666666667 98.0 L 109.0 97.0 L 110.0 96.33333333333333 L 111.0 95.66666666666667 L 112.0 95.33333333333333 L 113.0 94.66666666666667 L 114.0 94.33333333333333 L 115.0 94.0 L 116.0 93.66666666666667 L 117.0 93.33333333333333 L 118.0 92.66666666666667 L 118.66666666666667 92.0 L 119.0 91.0 L 119.0 90.0 L 118.66666666666667 89.0 L 118.0 88.0 L 117.0 87.0 L 116.0 86.0 L 115.33333333333333 85.0 L 115.0 84.0 L 115.33333333333333 83.0 L 116.0 82.0 L 117.0 81.0 L 118.0 80.0 L 119.0 79.0 L 120.0 78.0 L 121.0 77.0 L 121.66666666666667 76.0 L 122.0 75.0 L 121.66666666666667 74.0 L 121.0 73.0 L 120.0 72.33333333333333 L 119.0 72.0 L 118.0 72.0 L 117.0 71.66666666666667 L 116.0 71.0 L 115.66666666666667 70.0 L 116.0 69.33333333333333 L 117.0 68.66666666666667 L 118.0 68.0 L 119.0 67.0 L 120.0 66.0 L 121.0 65.0 L 122.0 64.0 L 122.66666666666667 63.0 L 123.0 62.0 L 122.66666666666667 61.0 L 122.0 60.333333333333336 L 121.0 59.666666666666664 L 120.0 59.333333333333336 L 119.0 59.0 L 118.0 59.0 L 117.0 58.666666666666664 L 116.0 58.333333333333336 L 115.0 58.0 L 114.0 57.666666666666664 L 113.0 57.0 L 112.66666666666667 56.0 L 113.0 55.0 L 114.0 54.0 L 115.0 53.0 L 115.66666666666667 52.0 L 116.0 51.0 L 115.66666666666667 50.0 L 115.0 49.333333333333336 L 114.0 49.0 L 113.0 49.0 L 112.0 48.666666666666664 L 111.0 48.333333333333336 L 110.0 48.0 L 109.0 48.0 L 108.0 48.0 L 107.0 47.666666666666664 L 106.0 47.333333333333336 L 105.0 47.0 L 104.0 47.0 L 103.0 46.666666666666664 L 102.0 46.0 L 101.66666666666667 45.0 L 102.0 44.0 L 103.0 43.0 L 104.0 42.0 L 105.0 41.0 L 105.66666666666667 40.0 L 106.0 39.0 L 105.66666666666667 38.0 L 105.0 37.333333333333336 L 104.0 37.0 L 103.0 37.0 L 102.0 37.0 L 101.0 37.0 L 100.0 37.0 L 99.0 37.0 L 98.0 36.666666666666664 L 97.0 36.333333333333336 L 96.0 36.0 L 95.0 36.0 L 94.0 36.0 L 93.0 36.0 L 92.0 36.0 L 91.0 36.0 L 90.0 36.0 L 89.0 36.0 L 88.0 36.0 L 87.0 35.666666666666664 L 86.66666666666667 35.0 L 87.0 34.0 L 88.0 33.0 L 88.66666666666667 32.0 L 89.0 31.0 L 89.0 30.0 L 88.66666666666667 29.333333333333332 L 88.0 29.0 L 87.0 29.333333333333332 L 86.0 29.666666666666668 L 85.0 30.0 L 84.0 30.0 L 83.0 30.333333333333332 L 82.0 30.666666666666668 L 81.0 31.0 L 80.0 31.333333333333332 L 79.0 31.666666666666668 L 78.0 32.0 L 77.0 32.333333333333336 L 76.0 32.666666666666664 L 75.0 33.333333333333336 L 74.0 33.666666666666664 L 73.0 33.666666666666664 L 72.66666666666667 33.0 L 72.66666666666667 32.0 L 73.0 31.0 L 73.0 30.0 L 72.66666666666667 29.333333333333332 L 72.0 29.0 L 71.0 29.0 L 70.0 29.333333333333332 L 69.0 29.666666666666668 L 68.0 30.333333333333332 L 67.0 31.0 L 66.0 31.666666666666668 L 65.0 32.333333333333336 L 64.0 33.0 L 63.0 34.0 L 62.0 35.0 L 61.0 36.0 L 60.0 37.0 L 59.0 37.333333333333336 L 58.0 37.0 L 57.0 36.0 L 56.0 35.333333333333336 L 55.0 35.333333333333336 L 54.0 36.0 L 53.0 37.0 L 52.0 38.0 L 51.333333333333336 39.0 L 50.666666666666664 40.0 L 50.0 40.333333333333336 L 49.0 40.0 L 48.0 39.0 L 47.0 38.0 L 46.0 37.0 L 45.0 36.0 L 44.0 35.0 L 43.0 34.333333333333336 L 42.0 34.0 L 41.333333333333336 34.333333333333336 L 40.666666666666664 35.0 L 40.0 36.0 L 39.333333333333336 37.0 L 38.666666666666664 38.0 L 38.333333333333336 39.0 L 37.666666666666664 40.0 L 37.333333333333336 41.0 L 36.666666666666664 42.0 L 36.0 43.0 L 35.0 44.0 L 34.0 44.333333333333336 L 33.0 44.0 L 32.0 43.0 L 31.0 42.333333333333336 L 30.0 41.666666666666664 L 29.0 41.333333333333336 L 28.0 41.0 L 27.333333333333332 41.333333333333336 L 26.666666666666668 42.0 L 26.333333333333332 43.0 L 26.0 44.0 L 26.0 45.0 L 26.0 46.0 L 26.0 47.0 L 25.666666666666668 48.0 L 25.333333333333332 49.0 L 25.0 50.0 L 25.0 51.0 L 24.666666666666668 52.0 L 24.0 53.0 L 23.0 53.666666666666664 L 22.0 54.0 L 21.0 53.666666666666664 L 20.0 53.333333333333336 L 19.0 53.0 L 18.0 52.666666666666664 L 17.0 52.333333333333336 L 16.0 51.666666666666664 L 15.0 51.333333333333336 L 14.0 51.0 L 13.0 51.0 L 12.333333333333334 51.333333333333336 L 12.0 52.0 L 12.0 53.0 L 12.333333333333334 54.0 L 12.666666666666666 55.0 L 13.333333333333334 56.0 L 13.666666666666666 57.0 L 14.333333333333334 58.0 L 15.0 58.666666666666664 L 16.0 59.0 L 17.0 59.0 L 18.0 59.0 L 19.0 59.0 L 20.0 59.0 L 21.0 59.0 L 22.0 59.0 L 23.0 59.0 L 24.0 58.666666666666664 L 25.0 58.333333333333336 L 26.0 58.0 L 27.0 58.0 L 28.0 58.0 L 29.0 58.0 L 30.0 58.0 L 31.0 58.0 L 32.0 58.0 L 33.0 58.333333333333336 L 34.0 58.666666666666664 L 35.0 59.333333333333336 L 36.0 59.666666666666664 L 37.0 60.333333333333336 L 38.0 60.666666666666664 L 39.0 61.333333333333336 L 40.0 62.0 L 41.0 63.0 L 42.0 64.0 L 43.0 65.0 L 44.0 65.66666666666667 L 45.0 66.0 L 46.0 65.66666666666667 L 47.0 65.0 L 48.0 64.0 L 49.0 63.333333333333336 L 50.0 62.666666666666664 L 51.0 62.0 L 52.0 61.666666666666664 L 53.0 62.0 L 54.0 63.0 L 55.0 64.0 L 55.666666666666664 65.0 L 56.0 66.0 L 56.0 67.0 L 56.0 68.0 L 56.0 69.0 L 55.666666666666664 70.0 L 55.333333333333336 71.0 L 54.666666666666664 72.0 L 54.333333333333336 73.0 L 54.0 74.0 L 54.0 75.0 L 54.0 76.0 L 54.333333333333336 77.0 L 54.666666666666664 78.0 L 55.333333333333336 79.0 L 56.0 80.0 L 56.666666666666664 81.0 L 57.333333333333336 82.0 L 58.0 83.0 L 59.0 84.0 L 60.0 85.0 L 61.0 86.0 L 62.0 87.0 L 63.0 88.0 L 64.0 89.0 L 64.66666666666667 90.0 L 65.33333333333333 91.0 L 66.0 92.0 L 67.0 92.66666666666667 L 68.0 93.0 L 69.0 93.0 L 70.0 93.33333333333333 L 71.0 93.66666666666667 L 72.0 94.33333333333333 L 73.0 94.66666666666667 L 74.0 95.0 L 75.0 95.33333333333333 L 76.0 95.66666666666667 L 77.0 96.33333333333333 L 77.5 96.5 Z" stroke="none" fill="rgb(134,91,82)" />
<path d="M 21.5 96.0 L 22.0 96.0 L 23.0 96.33333333333333 L 24.0 96.66666666666667 L 25.0 97.0 L 26.0 97.0 L 27.0 97.0 L 28.0 97.0 L 29.0 97.0 L 30.0 97.0 L 31.0 97.0 L 32.0 97.0 L 33.0 97.0 L 34.0 97.0 L 35.0 97.0 L 36.0 97.0 L 37.0 96.66666666666667 L 38.0 96.33333333333333 L 39.0 95.66666666666667 L 40.0 95.0 L 41.0 94.0 L 42.0 93.0 L 43.0 92.0 L 44.0 91.0 L 45.0 90.0 L 45.666666666666664 89.0 L 46.333333333333336 88.0 L 46.666666666666664 87.0 L 47.0 86.0 L 47.333333333333336 85.0 L 47.666666666666664 84.0 L 48.0 83.0 L 48.0 82.0 L 48.0 81.0 L 48.333333333333336 80.0 L 49.0 79.33333333333333 L 50.0 78.66666666666667 L 51.0 78.0 L 52.0 77.0 L 53.0 76.33333333333333 L 53.666666666666664 75.66666666666667 L 54.0 75.0 L 54.333333333333336 74.0 L 54.666666666666664 73.0 L 55.333333333333336 72.0 L 55.666666666666664 71.0 L 56.0 70.0 L 56.0 69.0 L 56.0 68.0 L 56.0 67.0 L 56.0 66.0 L 56.0 65.0 L 55.666666666666664 64.0 L 55.0 63.0 L 54.0 62.0 L 53.0 61.333333333333336 L 52.0 61.0 L 51.0 61.333333333333336 L 50.0 62.0 L 49.0 62.666666666666664 L 48.0 63.333333333333336 L 47.0 64.0 L 46.0 65.0 L 45.0 66.0 L 44.333333333333336 67.0 L 43.666666666666664 68.0 L 43.0 69.0 L 42.0 69.66666666666667 L 41.0 69.66666666666667 L 40.0 69.0 L 39.0 68.0 L 38.0 67.0 L 37.0 66.0 L 36.0 65.0 L 35.0 64.33333333333333 L 34.0 63.666666666666664 L 33.0 63.333333333333336 L 32.0 63.0 L 31.0 63.0 L 30.0 63.0 L 29.0 63.0 L 28.0 63.0 L 27.0 63.0 L 26.0 63.0 L 25.0 63.333333333333336 L 24.0 63.666666666666664 L 23.0 64.33333333333333 L 22.0 64.66666666666667 L 21.0 65.33333333333333 L 20.0 66.0 L 19.0 66.66666666666667 L 18.0 67.0 L 17.0 67.33333333333333 L 16.0 68.0 L 15.0 69.0 L 14.0 70.0 L 13.0 71.0 L 12.0 71.66666666666667 L 11.0 72.0 L 10.0 72.33333333333333 L 9.333333333333334 73.0 L 9.0 74.0 L 9.333333333333334 74.66666666666667 L 10.0 75.0 L 11.0 75.33333333333333 L 12.0 76.0 L 12.666666666666666 77.0 L 13.0 78.0 L 12.666666666666666 79.0 L 12.0 80.0 L 11.333333333333334 81.0 L 11.0 82.0 L 11.0 83.0 L 11.333333333333334 84.0 L 12.0 85.0 L 13.0 85.66666666666667 L 14.0 86.0 L 15.0 86.0 L 16.0 85.66666666666667 L 17.0 85.33333333333333 L 18.0 85.33333333333333 L 18.333333333333332 86.0 L 18.0 87.0 L 17.0 88.0 L 16.0 88.66666666666667 L 15.0 89.0 L 14.0 89.0 L 13.0 89.0 L 12.0 89.0 L 11.333333333333334 89.33333333333333 L 11.0 90.0 L 11.333333333333334 91.0 L 12.0 91.66666666666667 L 13.0 92.33333333333333 L 14.0 92.66666666666667 L 15.0 93.33333333333333 L 16.0 93.66666666666667 L 17.0 94.33333333333333 L 18.0 94.66666666666667 L 19.0 95.33333333333333 L 20.0 95.66666666666667 L 20.5 96.0 Z" stroke="none" fill="rgb(254,211,180)" />
<path d="M 81.5 116.0 L 82.0 116.0 L 83.0 116.0 L 84.0 116.0 L 85.0 116.0 L 86.0 116.0 L 87.0 116.0 L 88.0 115.66666666666667 L 89.0 115.33333333333333 L 90.0 114.66666666666667 L 91.0 114.33333333333333 L 91.66666666666667 113.66666666666667 L 92.33333333333333 113.0 L 92.66666666666667 112.0 L 93.0 111.0 L 93.0 110.0 L 93.0 109.0 L 93.0 108.0 L 92.66666666666667 107.0 L 92.0 106.0 L 91.0 105.0 L 90.0 104.0 L 89.0 103.0 L 88.0 102.0 L 87.0 101.0 L 86.0 100.33333333333333 L 85.0 99.66666666666667 L 84.0 99.33333333333333 L 83.0 98.66666666666667 L 82.0 98.33333333333333 L 81.0 97.66666666666667 L 80.0 97.33333333333333 L 79.0 96.66666666666667 L 78.0 96.33333333333333 L 77.0 95.66666666666667 L 76.0 95.33333333333333 L 75.0 95.0 L 74.0 94.66666666666667 L 73.0 94.33333333333333 L 72.0 93.66666666666667 L 71.0 93.33333333333333 L 70.0 93.0 L 69.0 93.0 L 68.0 92.66666666666667 L 67.0 92.33333333333333 L 66.0 92.0 L 65.0 91.66666666666667 L 64.0 91.33333333333333 L 63.0 91.0 L 62.0 91.0 L 61.0 90.66666666666667 L 60.0 90.33333333333333 L 59.0 90.0 L 58.0 90.0 L 57.0 90.0 L 56.0 90.0 L 55.0 89.66666666666667 L 54.0 89.33333333333333 L 53.0 89.0 L 52.0 89.0 L 51.0 89.33333333333333 L 50.0 90.0 L 49.0 91.0 L 48.0 92.0 L 47.0 93.0 L 46.0 94.0 L 45.0 95.0 L 44.0 96.0 L 43.0 97.0 L 42.0 98.0 L 41.0 99.0 L 40.333333333333336 100.0 L 40.0 101.0 L 40.0 102.0 L 40.0 103.0 L 40.333333333333336 104.0 L 40.333333333333336 105.0 L 40.0 106.0 L 39.0 107.0 L 38.0 108.0 L 37.333333333333336 109.0 L 37.333333333333336 109.66666666666667 L 38.0 110.0 L 39.0 110.0 L 40.0 110.33333333333333 L 41.0 111.0 L 42.0 111.66666666666667 L 43.0 112.33333333333333 L 43.666666666666664 113.0 L 44.0 114.0 L 44.333333333333336 114.66666666666667 L 45.0 115.0 L 46.0 115.0 L 47.0 114.66666666666667 L 48.0 114.0 L 49.0 113.0 L 50.0 112.0 L 51.0 111.0 L 52.0 110.0 L 53.0 109.33333333333333 L 54.0 108.66666666666667 L 55.0 108.0 L 56.0 107.0 L 57.0 106.0 L 58.0 105.33333333333333 L 59.0 105.0 L 60.0 105.0 L 61.0 105.0 L 62.0 105.0 L 63.0 105.0 L 64.0 105.0 L 65.0 105.0 L 66.0 105.0 L 67.0 105.0 L 68.0 105.0 L 69.0 105.0 L 70.0 105.0 L 71.0 105.0 L 72.0 105.0 L 73.0 105.0 L 74.0 105.0 L 75.0 105.0 L 76.0 105.0 L 77.0 105.0 L 78.0 105.0 L 79.0 105.0 L 80.0 105.0 L 81.0 105.33333333333333 L 81.33333333333333 106.0 L 81.0 107.0 L 80.0 107.66666666666667 L 79.0 108.0 L 78.0 108.0 L 77.33333333333333 108.33333333333333 L 77.0 109.0 L 77.0 110.0 L 77.33333333333333 111.0 L 78.0 111.66666666666667 L 79.0 112.33333333333333 L 79.66666666666667 113.0 L 80.0 114.0 L 80.0 115.0 L 80.33333333333333 115.66666666666667 L 80.5 116.0 Z" stroke="none" fill="rgb(255,209,183)" />
<path d="M 48.5 92.5 L 49.0 92.0 L 50.0 91.0 L 50.666666666666664 90.0 L 51.0 89.0 L 51.0 88.0 L 51.0 87.0 L 51.0 86.0 L 51.0 85.0 L 51.0 84.0 L 51.0 83.0 L 50.666666666666664 82.0 L 50.333333333333336 81.0 L 50.0 80.0 L 49.666666666666664 79.33333333333333 L 49.0 79.0 L 48.333333333333336 79.33333333333333 L 48.0 80.0 L 48.0 81.0 L 48.0 82.0 L 47.666666666666664 83.0 L 47.333333333333336 84.0 L 47.0 85.0 L 46.666666666666664 86.0 L 46.333333333333336 87.0 L 45.666666666666664 88.0 L 45.0 89.0 L 44.0 90.0 L 43.0 91.0 L 42.0 92.0 L 41.0 93.0 L 40.0 94.0 L 39.0 95.0 L 38.0 95.66666666666667 L 37.0 96.33333333333333 L 36.0 96.66666666666667 L 35.0 97.0 L 34.0 97.0 L 33.0 97.0 L 32.0 97.0 L 31.0 97.0 L 30.0 97.0 L 29.333333333333332 97.33333333333333 L 29.0 98.0 L 29.0 99.0 L 29.0 100.0 L 28.666666666666668 101.0 L 28.0 102.0 L 27.333333333333332 103.0 L 26.666666666666668 104.0 L 26.333333333333332 105.0 L 26.0 106.0 L 26.333333333333332 107.0 L 26.666666666666668 108.0 L 26.666666666666668 109.0 L 26.333333333333332 110.0 L 26.0 111.0 L 26.333333333333332 112.0 L 27.0 112.66666666666667 L 28.0 113.0 L 29.0 113.0 L 30.0 113.0 L 31.0 112.66666666666667 L 32.0 112.33333333333333 L 33.0 112.0 L 34.0 111.66666666666667 L 35.0 111.66666666666667 L 36.0 111.66666666666667 L 37.0 111.66666666666667 L 37.666666666666664 111.0 L 38.0 110.0 L 38.0 109.0 L 38.0 108.0 L 38.333333333333336 107.0 L 38.666666666666664 106.0 L 39.333333333333336 105.0 L 39.666666666666664 104.0 L 40.0 103.0 L 40.0 102.0 L 40.333333333333336 101.0 L 41.0 100.0 L 42.0 99.0 L 43.0 98.0 L 44.0 97.0 L 45.0 96.0 L 46.0 95.0 L 47.0 94.0 L 47.5 93.5 Z" stroke="none" fill="rgb(247,187,133)" />
<path d="M 15.5 63.5 L 15.666666666666666 64.0 L 16.333333333333332 65.0 L 17.0 66.0 L 18.0 66.66666666666667 L 19.0 67.0 L 20.0 66.66666666666667 L 21.0 66.0 L 22.0 65.33333333333333 L 23.0 64.66666666666667 L 24.0 64.33333333333333 L 25.0 63.666666666666664 L 26.0 63.333333333333336 L 27.0 63.0 L 28.0 63.0 L 29.0 63.0 L 30.0 63.0 L 31.0 63.0 L 32.0 63.333333333333336 L 33.0 63.666666666666664 L 34.0 64.33333333333333 L 35.0 65.0 L 36.0 66.0 L 37.0 67.0 L 38.0 68.0 L 39.0 69.0 L 40.0 70.0 L 41.0 70.66666666666667 L 42.0 70.66666666666667 L 43.0 70.0 L 43.666666666666664 69.0 L 44.333333333333336 68.0 L 44.666666666666664 67.0 L 44.666666666666664 66.0 L 44.0 65.0 L 43.0 64.0 L 42.0 63.0 L 41.0 62.0 L 40.0 61.333333333333336 L 39.0 60.666666666666664 L 38.0 60.333333333333336 L 37.0 59.666666666666664 L 36.0 59.333333333333336 L 35.0 58.666666666666664 L 34.0 58.333333333333336 L 33.0 58.0 L 32.0 58.0 L 31.0 58.0 L 30.0 58.0 L 29.0 58.0 L 28.0 58.0 L 27.0 58.0 L 26.0 58.0 L 25.0 58.0 L 24.0 58.333333333333336 L 23.0 58.666666666666664 L 22.0 59.0 L 21.0 59.0 L 20.0 59.0 L 19.0 59.0 L 18.0 59.0 L 17.0 59.0 L 16.0 58.666666666666664 L 15.0 58.333333333333336 L 14.0 58.0 L 13.333333333333334 58.333333333333336 L 13.0 59.0 L 13.333333333333334 60.0 L 13.666666666666666 61.0 L 14.333333333333334 62.0 L 14.5 62.5 Z" stroke="none" fill="rgb(109,74,55)" />
<path d="M 75.5 111.0 L 76.0 110.66666666666667 L 76.66666666666667 110.0 L 77.33333333333333 109.0 L 78.0 108.33333333333333 L 79.0 108.0 L 80.0 108.0 L 81.0 107.66666666666667 L 81.66666666666667 107.0 L 82.0 106.0 L 81.66666666666667 105.33333333333333 L 81.0 105.0 L 80.0 105.0 L 79.0 105.0 L 78.0 105.0 L 77.0 105.0 L 76.0 105.0 L 75.0 105.0 L 74.0 105.0 L 73.0 105.0 L 72.0 105.0 L 71.0 105.0 L 70.0 105.0 L 69.0 105.0 L 68.0 105.0 L 67.0 105.0 L 66.0 105.0 L 65.0 105.0 L 64.0 105.0 L 63.0 105.0 L 62.0 105.0 L 61.0 105.0 L 60.0 105.0 L 59.0 105.0 L 58.0 105.0 L 57.0 105.33333333333333 L 56.0 106.0 L 55.0 107.0 L 54.0 108.0 L 53.0 108.66666666666667 L 52.0 109.33333333333333 L 51.0 110.0 L 50.0 111.0 L 49.0 112.0 L 48.0 113.0 L 47.333333333333336 114.0 L 47.333333333333336 114.66666666666667 L 48.0 115.0 L 49.0 114.66666666666667 L 50.0 114.33333333333333 L 51.0 113.66666666666667 L 52.0 113.0 L 53.0 112.33333333333333 L 54.0 111.66666666666667 L 55.0 111.33333333333333 L 56.0 110.66666666666667 L 57.0 110.0 L 58.0 109.33333333333333 L 59.0 109.0 L 60.0 109.0 L 61.0 109.0 L 62.0 109.0 L 63.0 109.0 L 64.0 109.0 L 65.0 109.33333333333333 L 66.0 109.66666666666667 L 67.0 110.0 L 68.0 110.0 L 69.0 110.0 L 70.0 110.0 L 71.0 110.0 L 72.0 110.0 L 73.0 110.33333333333333 L 74.0 110.66666666666667 L 74.5 111.0 Z" stroke="none" fill="rgb(247,187,133)" />
<path d="M 79.5 74.0 L 80.0 73.66666666666667 L 81.0 73.0 L 82.0 72.33333333333333 L 83.0 71.66666666666667 L 84.0 71.0 L 85.0 70.0 L 86.0 69.33333333333333 L 87.0 68.66666666666667 L 88.0 68.0 L 89.0 67.33333333333333 L 90.0 66.66666666666667 L 91.0 66.0 L 92.0 65.33333333333333 L 93.0 64.66666666666667 L 94.0 64.0 L 95.0 63.0 L 95.66666666666667 62.0 L 96.0 61.0 L 96.0 60.0 L 95.66666666666667 59.333333333333336 L 95.0 59.0 L 94.0 59.333333333333336 L 93.0 59.666666666666664 L 92.0 60.333333333333336 L 91.0 60.666666666666664 L 90.0 61.333333333333336 L 89.0 61.666666666666664 L 88.0 62.333333333333336 L 87.0 63.0 L 86.0 63.666666666666664 L 85.0 64.33333333333333 L 84.0 64.66666666666667 L 83.0 65.33333333333333 L 82.0 65.66666666666667 L 81.0 66.33333333333333 L 80.0 66.66666666666667 L 79.0 67.33333333333333 L 78.0 68.0 L 77.0 68.66666666666667 L 76.0 69.33333333333333 L 75.0 69.66666666666667 L 74.0 70.33333333333333 L 73.0 70.66666666666667 L 72.0 71.33333333333333 L 71.0 72.0 L 70.0 72.66666666666667 L 69.33333333333333 73.33333333333333 L 69.0 74.0 L 69.0 75.0 L 69.0 76.0 L 69.33333333333333 77.0 L 70.0 77.66666666666667 L 71.0 78.0 L 72.0 78.0 L 73.0 78.0 L 74.0 77.66666666666667 L 75.0 77.0 L 76.0 76.33333333333333 L 77.0 75.66666666666667 L 78.0 75.0 L 78.5 74.5 Z" stroke="none" fill="rgb(197,136,111)" />
<path d="M 56.5 90.0 L 57.0 90.0 L 58.0 90.0 L 59.0 90.33333333333333 L 60.0 90.66666666666667 L 61.0 91.0 L 62.0 91.0 L 63.0 91.33333333333333 L 64.0 91.66666666666667 L 65.0 92.0 L 65.66666666666667 91.66666666666667 L 65.66666666666667 91.0 L 65.33333333333333 90.0 L 64.66666666666667 89.0 L 64.0 88.0 L 63.0 87.0 L 62.0 86.0 L 61.0 85.0 L 60.0 84.0 L 59.0 83.0 L 58.0 82.0 L 57.333333333333336 81.0 L 56.666666666666664 80.0 L 56.0 79.0 L 55.333333333333336 78.0 L 54.666666666666664 77.0 L 54.0 76.33333333333333 L 53.0 76.0 L 52.0 76.33333333333333 L 51.0 77.0 L 50.333333333333336 78.0 L 50.0 79.0 L 50.0 80.0 L 50.0 81.0 L 50.333333333333336 82.0 L 50.666666666666664 83.0 L 51.0 84.0 L 51.0 85.0 L 51.0 86.0 L 51.0 87.0 L 51.0 88.0 L 51.333333333333336 88.66666666666667 L 52.0 89.0 L 53.0 89.33333333333333 L 54.0 89.66666666666667 L 55.0 90.0 L 55.5 90.0 Z" stroke="none" fill="rgb(109,74,55)" />
<path d="M 11.5 89.0 L 12.0 89.0 L 13.0 89.0 L 14.0 89.0 L 15.0 89.0 L 16.0 89.0 L 17.0 88.66666666666667 L 18.0 88.0 L 18.666666666666668 87.0 L 19.0 86.0 L 18.666666666666668 85.33333333333333 L 18.0 85.0 L 17.0 85.0 L 16.0 85.33333333333333 L 15.0 85.66666666666667 L 14.0 85.66666666666667 L 13.0 85.0 L 12.0 84.0 L 11.333333333333334 83.0 L 11.333333333333334 82.0 L 12.0 81.0 L 12.666666666666666 80.0 L 13.0 79.0 L 13.0 78.0 L 13.0 77.0 L 12.666666666666666 76.0 L 12.0 75.33333333333333 L 11.0 75.0 L 10.0 74.66666666666667 L 9.0 74.33333333333333 L 8.0 74.0 L 7.0 74.0 L 6.0 74.0 L 5.0 74.33333333333333 L 4.333333333333333 75.0 L 4.0 76.0 L 4.0 77.0 L 4.0 78.0 L 4.333333333333333 79.0 L 4.666666666666667 80.0 L 5.0 81.0 L 5.0 82.0 L 5.0 83.0 L 5.333333333333333 84.0 L 6.0 85.0 L 7.0 86.0 L 8.0 87.0 L 9.0 88.0 L 10.0 88.66666666666667 L 10.5 89.0 Z" stroke="none" fill="rgb(76,76,77)" />
<path d="M 86.5 83.0 L 87.0 83.0 L 88.0 82.66666666666667 L 89.0 82.33333333333333 L 90.0 82.0 L 91.0 81.66666666666667 L 92.0 81.33333333333333 L 93.0 80.66666666666667 L 94.0 80.33333333333333 L 95.0 79.66666666666667 L 96.0 79.33333333333333 L 97.0 79.0 L 98.0 78.66666666666667 L 99.0 78.0 L 100.0 77.0 L 100.66666666666667 76.0 L 101.0 75.0 L 100.66666666666667 74.33333333333333 L 100.0 74.0 L 99.0 74.0 L 98.0 74.0 L 97.0 74.33333333333333 L 96.0 74.66666666666667 L 95.0 75.0 L 94.0 75.33333333333333 L 93.0 75.66666666666667 L 92.0 76.0 L 91.0 76.33333333333333 L 90.0 76.66666666666667 L 89.0 77.0 L 88.0 77.33333333333333 L 87.0 77.66666666666667 L 86.0 78.0 L 85.0 78.33333333333333 L 84.0 78.66666666666667 L 83.0 79.33333333333333 L 82.33333333333333 80.0 L 82.0 81.0 L 82.0 82.0 L 82.33333333333333 82.66666666666667 L 83.0 83.0 L 84.0 83.0 L 85.0 83.0 L 85.5 83.0 Z" stroke="none" fill="rgb(197,136,111)" />
<path d="M 69.5 63.5 L 70.0 63.0 L 71.0 62.0 L 72.0 61.0 L 73.0 60.0 L 74.0 59.0 L 75.0 58.0 L 76.0 57.0 L 76.66666666666667 56.0 L 76.66666666666667 55.0 L 76.0 54.333333333333336 L 75.0 54.333333333333336 L 74.0 54.666666666666664 L 73.0 55.333333333333336 L 72.0 56.0 L 71.0 56.666666666666664 L 70.0 57.333333333333336 L 69.0 58.0 L 68.0 58.666666666666664 L 67.0 59.333333333333336 L 66.0 60.0 L 65.0 61.0 L 64.0 61.666666666666664 L 63.0 62.333333333333336 L 62.0 63.0 L 61.333333333333336 64.0 L 61.0 65.0 L 61.333333333333336 66.0 L 62.0 66.66666666666667 L 63.0 67.0 L 64.0 67.0 L 65.0 67.0 L 66.0 66.66666666666667 L 67.0 66.0 L 68.0 65.0 L 68.5 64.5 Z" stroke="none" fill="rgb(197,136,111)" />
<path d="M 98.5 110.0 L 99.0 110.0 L 100.0 109.66666666666667 L 101.0 109.33333333333333 L 102.0 109.0 L 103.0 109.0 L 104.0 109.0 L 105.0 109.0 L 106.0 109.0 L 107.0 109.0 L 108.0 108.66666666666667 L 109.0 108.33333333333333 L 110.0 108.0 L 111.0 108.0 L 111.66666666666667 107.66666666666667 L 112.0 107.0 L 112.0 106.0 L 111.66666666666667 105.33333333333333 L 111.0 105.0 L 110.0 105.33333333333333 L 109.0 105.66666666666667 L 108.0 106.0 L 107.0 106.0 L 106.0 106.0 L 105.0 106.0 L 104.0 106.0 L 103.0 106.0 L 102.0 106.0 L 101.0 106.0 L 100.0 106.0 L 99.0 106.0 L 98.0 106.0 L 97.0 106.0 L 96.0 106.0 L 95.0 106.0 L 94.0 106.0 L 93.33333333333333 106.33333333333333 L 93.0 107.0 L 93.0 108.0 L 93.0 109.0 L 93.33333333333333 109.66666666666667 L 94.0 110.0 L 95.0 110.0 L 96.0 110.0 L 97.0 110.0 L 97.5 110.0 Z" stroke="none" fill="rgb(109,74,55)" />
<path d="M 51.5 61.0 L 51.666666666666664 60.666666666666664 L 52.333333333333336 60.0 L 53.0 59.0 L 54.0 58.0 L 54.666666666666664 57.0 L 55.333333333333336 56.0 L 56.0 55.0 L 56.666666666666664 54.0 L 57.333333333333336 53.0 L 57.666666666666664 52.0 L 58.333333333333336 51.0 L 58.666666666666664 50.0 L 59.0 49.0 L 59.0 48.0 L 58.666666666666664 47.333333333333336 L 58.0 47.0 L 57.0 47.333333333333336 L 56.0 48.0 L 55.0 49.0 L 54.0 50.0 L 53.0 51.0 L 52.0 52.0 L 51.0 53.0 L 50.0 54.0 L 49.333333333333336 55.0 L 49.0 56.0 L 49.0 57.0 L 49.0 58.0 L 49.0 59.0 L 49.333333333333336 60.0 L 50.0 60.666666666666664 L 50.5 61.0 Z" stroke="none" fill="rgb(197,136,111)" />
<path d="M 67.5 52.0 L 68.0 51.666666666666664 L 69.0 51.0 L 70.0 50.0 L 71.0 49.0 L 72.0 48.0 L 73.0 47.0 L 74.0 46.0 L 75.0 45.0 L 76.0 44.0 L 76.66666666666667 43.0 L 77.0 42.0 L 76.66666666666667 41.333333333333336 L 76.0 41.0 L 75.0 41.0 L 74.0 41.333333333333336 L 73.0 42.0 L 72.0 42.666666666666664 L 71.0 43.333333333333336 L 70.0 44.0 L 69.0 44.666666666666664 L 68.0 45.333333333333336 L 67.0 46.0 L 66.0 47.0 L 65.0 47.666666666666664 L 64.33333333333333 48.333333333333336 L 64.0 49.0 L 64.0 50.0 L 64.0 51.0 L 64.33333333333333 51.666666666666664 L 65.0 52.0 L 66.0 52.0 L 66.5 52.0 Z" stroke="none" fill="rgb(157,108,91)" />
<path d="M 95.5 91.0 L 96.0 91.0 L 97.0 91.0 L 98.0 91.0 L 99.0 91.0 L 100.0 90.66666666666667 L 101.0 90.33333333333333 L 102.0 90.0 L 103.0 90.0 L 104.0 89.66666666666667 L 105.0 89.0 L 105.66666666666667 88.0 L 106.0 87.0 L 105.66666666666667 86.33333333333333 L 105.0 86.0 L 104.0 86.0 L 103.0 86.0 L 102.0 86.0 L 101.0 86.0 L 100.0 86.0 L 99.0 86.33333333333333 L 98.0 86.66666666666667 L 97.0 87.0 L 96.0 87.0 L 95.0 87.0 L 94.0 87.0 L 93.0 87.0 L 92.0 87.33333333333333 L 91.33333333333333 88.0 L 91.0 89.0 L 91.0 90.0 L 91.33333333333333 90.66666666666667 L 92.0 91.0 L 93.0 91.0 L 94.0 91.0 L 94.5 91.0 Z" stroke="none" fill="rgb(197,136,111)" />
<path d="M 96.5 52.5 L 96.66666666666667 52.0 L 97.0 51.0 L 96.66666666666667 50.333333333333336 L 96.0 50.0 L 95.0 50.333333333333336 L 94.0 50.666666666666664 L 93.0 51.333333333333336 L 92.0 51.666666666666664 L 91.0 52.0 L 90.0 52.333333333333336 L 89.0 52.666666666666664 L 88.0 53.333333333333336 L 87.0 53.666666666666664 L 86.0 54.333333333333336 L 85.0 55.0 L 84.0 56.0 L 83.33333333333333 57.0 L 83.33333333333333 58.0 L 84.0 58.666666666666664 L 85.0 59.0 L 86.0 59.0 L 87.0 59.0 L 88.0 58.666666666666664 L 89.0 58.333333333333336 L 90.0 57.666666666666664 L 91.0 57.0 L 92.0 56.333333333333336 L 93.0 55.666666666666664 L 94.0 55.0 L 95.0 54.0 L 95.5 53.5 Z" stroke="none" fill="rgb(157,108,91)" />
<path d="M 40.5 53.5 L 41.0 53.0 L 41.666666666666664 52.0 L 42.333333333333336 51.0 L 42.666666666666664 50.0 L 43.0 49.0 L 43.333333333333336 48.0 L 43.666666666666664 47.0 L 44.0 46.0 L 44.0 45.0 L 44.0 44.0 L 44.0 43.0 L 43.666666666666664 42.333333333333336 L 43.0 42.0 L 42.0 42.333333333333336 L 41.0 43.0 L 40.333333333333336 44.0 L 39.666666666666664 45.0 L 39.0 46.0 L 38.333333333333336 47.0 L 38.0 48.0 L 37.666666666666664 49.0 L 37.333333333333336 50.0 L 37.0 51.0 L 37.0 52.0 L 37.333333333333336 53.0 L 38.0 53.666666666666664 L 39.0 54.0 L 39.5 54.0 Z" stroke="none" fill="rgb(157,108,91)" />
<path d="M 25.0 52.5 L 25.0 52.0 L 25.0 51.0 L 25.333333333333332 50.0 L 25.666666666666668 49.0 L 26.0 48.0 L 26.0 47.0 L 26.0 46.0 L 26.0 45.0 L 26.333333333333332 44.0 L 26.666666666666668 43.0 L 27.0 42.0 L 27.0 41.0 L 26.666666666666668 40.0 L 26.0 39.333333333333336 L 25.0 39.0 L 24.333333333333332 39.333333333333336 L 24.0 40.0 L 23.666666666666668 41.0 L 23.333333333333332 42.0 L 23.0 43.0 L 23.0 44.0 L 22.666666666666668 45.0 L 22.333333333333332 46.0 L 22.0 47.0 L 22.0 48.0 L 22.0 49.0 L 22.0 50.0 L 22.0 51.0 L 22.0 52.0 L 22.0 53.0 L 22.333333333333332 53.666666666666664 L 23.0 54.0 L 24.0 53.666666666666664 L 24.5 53.5 Z" stroke="none" fill="rgb(109,74,55)" />
<path d="M 81.5 50.0 L 82.0 50.0 L 83.0 50.0 L 84.0 49.666666666666664 L 85.0 49.0 L 86.0 48.0 L 87.0 47.0 L 88.0 46.0 L 89.0 45.0 L 90.0 44.0 L 91.0 43.0 L 91.66666666666667 42.0 L 92.0 41.0 L 91.66666666666667 40.333333333333336 L 91.0 40.0 L 90.0 40.333333333333336 L 89.0 41.0 L 88.0 41.666666666666664 L 87.0 42.333333333333336 L 86.0 42.666666666666664 L 85.0 43.333333333333336 L 84.0 44.0 L 83.0 44.666666666666664 L 82.0 45.333333333333336 L 81.33333333333333 46.0 L 81.0 47.0 L 81.0 48.0 L 81.0 49.0 L 81.0 49.5 Z" stroke="none" fill="rgb(112,76,59)" />
<path d="M 36.5 43.5 L 36.666666666666664 43.0 L 37.333333333333336 42.0 L 37.666666666666664 41.0 L 38.333333333333336 40.0 L 38.666666666666664 39.0 L 39.333333333333336 38.0 L 40.0 37.0 L 40.666666666666664 36.0 L 41.0 35.0 L 41.0 34.0 L 40.666666666666664 33.333333333333336 L 40.0 33.0 L 39.0 33.333333333333336 L 38.0 34.0 L 37.333333333333336 35.0 L 36.666666666666664 36.0 L 36.333333333333336 37.0 L 35.666666666666664 38.0 L 35.333333333333336 39.0 L 34.666666666666664 40.0 L 34.333333333333336 41.0 L 33.666666666666664 42.0 L 33.333333333333336 43.0 L 33.0 44.0 L 33.333333333333336 44.666666666666664 L 34.0 45.0 L 35.0 44.666666666666664 L 35.5 44.5 Z" stroke="none" fill="rgb(109,74,55)" />
<path d="M 31.5 78.5 L 32.0 78.66666666666667 L 33.0 79.0 L 34.0 79.0 L 35.0 79.0 L 36.0 79.0 L 36.666666666666664 78.66666666666667 L 37.0 78.0 L 37.0 77.0 L 37.0 76.0 L 37.0 75.0 L 37.0 74.0 L 36.666666666666664 73.0 L 36.0 72.0 L 35.0 71.33333333333333 L 34.0 71.0 L 33.0 71.33333333333333 L 32.0 72.0 L 31.333333333333332 73.0 L 31.0 74.0 L 31.0 75.0 L 31.0 76.0 L 31.0 77.0 L 31.0 77.5 Z" stroke="none" fill="rgb(0,0,0)" />
<path d="M 51.5 72.5 L 51.666666666666664 72.0 L 52.0 71.0 L 52.0 70.0 L 52.0 69.0 L 51.666666666666664 68.0 L 51.0 67.33333333333333 L 50.0 67.0 L 49.0 67.33333333333333 L 48.0 68.0 L 47.0 69.0 L 46.0 70.0 L 45.333333333333336 71.0 L 45.0 72.0 L 45.0 73.0 L 45.333333333333336 74.0 L 46.0 74.66666666666667 L 47.0 75.0 L 48.0 75.0 L 49.0 74.66666666666667 L 50.0 74.0 L 50.5 73.5 Z" stroke="none" fill="rgb(243,125,177)" />
<path d="M 112.5 98.5 L 113.0 98.0 L 114.0 97.33333333333333 L 115.0 96.66666666666667 L 116.0 96.33333333333333 L 117.0 95.66666666666667 L 118.0 95.0 L 118.66666666666667 94.0 L 119.0 93.0 L 118.66666666666667 92.33333333333333 L 118.0 92.33333333333333 L 117.0 92.66666666666667 L 116.0 93.33333333333333 L 115.0 93.66666666666667 L 114.0 94.0 L 113.0 94.33333333333333 L 112.0 94.66666666666667 L 111.0 95.33333333333333 L 110.0 95.66666666666667 L 109.0 96.33333333333333 L 108.33333333333333 97.0 L 108.0 98.0 L 108.33333333333333 99.0 L 109.0 99.66666666666667 L 110.0 99.66666666666667 L 111.0 99.33333333333333 L 111.5 99.0 Z" stroke="none" fill="rgb(109,74,55)" />
<path d="M 38.5 115.0 L 39.0 115.33333333333333 L 40.0 115.66666666666667 L 41.0 116.0 L 42.0 116.0 L 43.0 116.0 L 43.666666666666664 115.66666666666667 L 44.0 115.0 L 44.0 114.0 L 44.0 113.0 L 43.666666666666664 112.33333333333333 L 43.0 111.66666666666667 L 42.0 111.0 L 41.0 110.33333333333333 L 40.0 110.0 L 39.0 110.0 L 38.0 110.33333333333333 L 37.0 111.0 L 36.333333333333336 112.0 L 36.0 113.0 L 36.0 114.0 L 36.333333333333336 114.66666666666667 L 37.0 115.0 L 37.5 115.0 Z" stroke="none" fill="rgb(243,125,177)" />
<path d="M 120.5 69.5 L 120.66666666666667 69.0 L 121.33333333333333 68.0 L 122.0 67.0 L 123.0 66.0 L 123.66666666666667 65.0 L 124.0 64.0 L 123.66666666666667 63.333333333333336 L 123.0 63.0 L 122.0 63.333333333333336 L 121.0 64.0 L 120.0 65.0 L 119.0 66.0 L 118.0 67.0 L 117.0 68.0 L 116.0 68.66666666666667 L 115.33333333333333 69.33333333333333 L 115.0 70.0 L 115.33333333333333 71.0 L 116.0 71.66666666666667 L 117.0 72.0 L 118.0 72.0 L 118.66666666666667 71.66666666666667 L 119.33333333333333 71.0 L 119.5 70.5 Z" stroke="none" fill="rgb(109,74,55)" />
<path d="M 50.5 41.0 L 50.666666666666664 40.666666666666664 L 51.333333333333336 40.0 L 52.0 39.0 L 53.0 38.0 L 54.0 37.0 L 54.666666666666664 36.0 L 55.0 35.0 L 54.666666666666664 34.0 L 54.0 33.333333333333336 L 53.0 33.0 L 52.0 33.333333333333336 L 51.0 34.0 L 50.0 35.0 L 49.0 36.0 L 48.0 37.0 L 47.333333333333336 38.0 L 47.333333333333336 39.0 L 48.0 40.0 L 49.0 40.666666666666664 L 49.5 41.0 Z" stroke="none" fill="rgb(109,74,55)" />
<path d="M 119.5 82.5 L 119.66666666666667 82.0 L 120.33333333333333 81.0 L 121.0 80.0 L 121.66666666666667 79.0 L 122.0 78.0 L 122.0 77.0 L 121.66666666666667 76.33333333333333 L 121.0 76.33333333333333 L 120.0 77.0 L 119.0 78.0 L 118.0 79.0 L 117.0 80.0 L 116.0 81.0 L 115.33333333333333 82.0 L 115.0 83.0 L 115.0 84.0 L 115.0 85.0 L 115.33333333333333 85.66666666666667 L 116.0 86.0 L 117.0 85.66666666666667 L 117.66666666666667 85.0 L 118.33333333333333 84.0 L 118.5 83.5 Z" stroke="none" fill="rgb(109,74,55)" />
<path d="M 73.5 114.5 L 74.0 114.66666666666667 L 75.0 115.33333333333333 L 76.0 115.66666666666667 L 77.0 116.0 L 78.0 116.0 L 79.0 116.0 L 79.66666666666667 115.66666666666667 L 80.33333333333333 115.0 L 80.66666666666667 114.0 L 80.66666666666667 113.0 L 80.0 112.33333333333333 L 79.0 111.66666666666667 L 78.0 111.0 L 77.0 110.33333333333333 L 76.0 110.33333333333333 L 75.0 110.66666666666667 L 74.33333333333333 111.33333333333333 L 73.66666666666667 112.0 L 73.33333333333333 113.0 L 73.0 113.5 Z" stroke="none" fill="rgb(243,125,177)" />
<path d="M 64.5 44.5 L 65.0 44.0 L 66.0 43.0 L 67.0 42.0 L 67.66666666666667 41.0 L 68.0 40.0 L 67.66666666666667 39.333333333333336 L 67.0 39.0 L 66.0 39.0 L 65.0 39.333333333333336 L 64.0 39.666666666666664 L 63.0 40.333333333333336 L 62.0 41.0 L 61.0 41.666666666666664 L 60.333333333333336 42.333333333333336 L 60.0 43.0 L 60.0 44.0 L 60.333333333333336 44.666666666666664 L 61.0 45.0 L 62.0 45.0 L 63.0 45.0 L 63.5 45.0 Z" stroke="none" fill="rgb(112,76,59)" />
<path d="M 108.0 63.5 L 108.0 63.0 L 107.66666666666667 62.333333333333336 L 107.0 62.0 L 106.0 62.0 L 105.0 62.333333333333336 L 104.0 62.666666666666664 L 103.0 63.0 L 102.0 63.333333333333336 L 101.0 63.666666666666664 L 100.0 64.33333333333333 L 99.33333333333333 65.0 L 99.33333333333333 66.0 L 100.0 66.66666666666667 L 101.0 67.0 L 102.0 67.0 L 103.0 67.0 L 104.0 66.66666666666667 L 105.0 66.33333333333333 L 106.0 65.66666666666667 L 107.0 65.0 L 107.5 64.5 Z" stroke="none" fill="rgb(112,76,59)" />
<path d="M 107.0 41.5 L 107.0 41.0 L 106.66666666666667 40.333333333333336 L 106.0 40.0 L 105.0 40.333333333333336 L 104.0 41.0 L 103.0 42.0 L 102.0 43.0 L 101.33333333333333 44.0 L 101.0 45.0 L 101.33333333333333 46.0 L 102.0 46.666666666666664 L 103.0 47.0 L 104.0 47.0 L 104.66666666666667 46.666666666666664 L 105.0 46.0 L 105.33333333333333 45.0 L 105.66666666666667 44.0 L 106.33333333333333 43.0 L 106.5 42.5 Z" stroke="none" fill="rgb(109,74,55)" />
<path d="M 98.5 99.0 L 99.0 99.0 L 100.0 99.0 L 101.0 99.0 L 102.0 99.0 L 103.0 99.0 L 104.0 98.66666666666667 L 104.66666666666667 98.0 L 104.66666666666667 97.0 L 104.0 96.33333333333333 L 103.0 96.0 L 102.0 96.0 L 101.0 96.0 L 100.0 96.0 L 99.0 96.0 L 98.0 96.0 L 97.0 96.0 L 96.33333333333333 96.33333333333333 L 96.0 97.0 L 96.33333333333333 98.0 L 97.0 98.66666666666667 L 97.5 99.0 Z" stroke="none" fill="rgb(197,136,111)" />
<path d="M 108.5 80.0 L 109.0 79.66666666666667 L 110.0 79.33333333333333 L 111.0 78.66666666666667 L 111.66666666666667 78.0 L 112.0 77.0 L 111.66666666666667 76.33333333333333 L 111.0 76.0 L 110.0 76.0 L 109.0 76.0 L 108.0 76.0 L 107.0 76.33333333333333 L 106.0 76.66666666666667 L 105.33333333333333 77.33333333333333 L 105.0 78.0 L 105.0 79.0 L 105.33333333333333 79.66666666666667 L 106.0 80.0 L 107.0 80.0 L 107.5 80.0 Z" stroke="none" fill="rgb(157,108,91)" />
<path d="M 112.5 57.5 L 113.0 57.666666666666664 L 114.0 58.0 L 114.66666666666667 57.666666666666664 L 115.33333333333333 57.0 L 116.0 56.0 L 116.66666666666667 55.0 L 117.0 54.0 L 117.0 53.0 L 116.66666666666667 52.333333333333336 L 116.0 52.0 L 115.0 52.333333333333336 L 114.0 53.0 L 113.0 54.0 L 112.33333333333333 55.0 L 112.0 56.0 L 112.0 56.5 Z" stroke="none" fill="rgb(109,74,55)" />
<path d="M 23.5 111.0 L 24.0 111.0 L 25.0 111.0 L 26.0 110.66666666666667 L 26.666666666666668 110.0 L 27.0 109.0 L 27.0 108.0 L 26.666666666666668 107.33333333333333 L 26.0 107.0 L 25.0 107.0 L 24.0 107.33333333333333 L 23.333333333333332 108.0 L 23.0 109.0 L 23.0 110.0 L 23.0 110.5 Z" stroke="none" fill="rgb(243,125,177)" />
<path d="M 88.5 36.0 L 89.0 36.0 L 89.66666666666667 35.666666666666664 L 90.0 35.0 L 90.0 34.0 L 90.0 33.0 L 89.66666666666667 32.333333333333336 L 89.0 32.0 L 88.0 32.333333333333336 L 87.0 33.0 L 86.33333333333333 34.0 L 86.0 35.0 L 86.33333333333333 35.666666666666664 L 87.0 36.0 L 87.5 36.0 Z" stroke="none" fill="rgb(109,74,55)" />
<path d="M 75.0 33.5 L 75.0 33.0 L 75.0 32.0 L 75.0 31.0 L 74.66666666666667 30.333333333333332 L 74.0 30.0 L 73.33333333333333 30.333333333333332 L 72.66666666666667 31.0 L 72.33333333333333 32.0 L 72.0 33.0 L 72.33333333333333 33.666666666666664 L 73.0 34.0 L 74.0 34.0 L 74.5 34.0 Z" stroke="none" fill="rgb(109,74,55)" />
<path d="M 40.5 106.5 L 40.666666666666664 106.0 L 41.0 105.0 L 40.666666666666664 104.33333333333333 L 40.0 104.0 L 39.333333333333336 104.33333333333333 L 38.666666666666664 105.0 L 38.333333333333336 106.0 L 38.0 107.0 L 38.333333333333336 107.66666666666667 L 39.0 107.66666666666667 L 39.5 107.5 Z" stroke="none" fill="rgb(0,0,0)" />
<path d="M 72.5 113.0 L 73.0 113.0 L 73.66666666666667 112.66666666666667 L 74.0 112.0 L 74.0 111.0 L 73.66666666666667 110.33333333333333 L 73.0 110.0 L 72.33333333333333 110.33333333333333 L 72.0 111.0 L 72.0 112.0 L 72.0 112.5 Z" stroke="none" fill="rgb(255,209,183)" />
<path d="M 78.0 112.5 L 77.66666666666667 112.33333333333333 L 77.33333333333333 112.33333333333333 L 77.33333333333333 112.66666666666667 L 77.5 113.0 Z" stroke="none" fill="rgb(246,145,175)" />
</svg>
