<?xml version="1.0" encoding="UTF-8" standalone="no"?>
<!DOCTYPE svg PUBLIC "-//W3C//DTD SVG 1.1//EN"
"http://www.w3.org/Graphics/SVG/1.1/DTD/svg11.dtd">
<svg width="128" height="128" xmlns="http://www.w3.org/2000/svg" version="1.1">
<path d="M 104.5 128.0 L 105.0 128.0 L 106.0 128.0 L 107.0 128.0 L 108.0 128.0 L 109.0 128.0 L 110.0 128.0 L 111.0 128.0 L 112.0 128.0 L 113.0 128.0 L 114.0 128.0 L 115.0 128.0 L 116.0 128.0 L 117.0 128.0 L 118.0 128.0 L 119.0 128.0 L 120.0 128.0 L 121.0 128.0 L 122.0 128.0 L 123.0 128.0 L 124.0 128.0 L 125.0 128.0 L 126.0 128.0 L 127.0 128.0 L 127.66666666666667 127.66666666666667 L 128.0 127.0 L 128.0 126.0 L 128.0 125.0 L 128.0 124.0 L 128.0 123.0 L 128.0 122.0 L 128.0 121.0 L 128.0 120.0 L 128.0 119.0 L 128.0 118.0 L 128.0 117.0 L 128.0 116.0 L 128.0 115.0 L 128.0 114.0 L 128.0 113.0 L 128.0 112.0 L 128.0 111.0 L 128.0 110.0 L 128.0 109.0 L 128.0 108.0 L 128.0 107.0 L 128.0 106.0 L 128.0 105.0 L 128.0 104.0 L 128.0 103.0 L 128.0 102.0 L 128.0 101.0 L 128.0 100.0 L 128.0 99.0 L 128.0 98.0 L 128.0 97.0 L 128.0 96.0 L 128.0 95.0 L 128.0 94.0 L 128.0 93.0 L 128.0 92.0 L 128.0 91.0 L 128.0 90.0 L 128.0 89.0 L 128.0 88.0 L 128.0 87.0 L 128.0 86.0 L 128.0 85.0 L 128.0 84.0 L 128.0 83.0 L 128.0 82.0 L 128.0 81.0 L 128.0 80.0 L 128.0 79.0 L 128.0 78.0 L 128.0 77.0 L 128.0 76.0 L 128.0 75.0 L 128.0 74.0 L 128.0 73.0 L 128.0 72.0 L 128.0 71.0 L 128.0 70.0 L 128.0 69.0 L 128.0 68.0 L 128.0 67.0 L 128.0 66.0 L 128.0 65.0 L 128.0 64.0 L 128.0 63.0 L 128.0 62.0 L 128.0 61.0 L 128.0 60.0 L 128.0 59.0 L 128.0 58.0 L 128.0 57.0 L 128.0 56.0 L 128.0 55.0 L 128.0 54.0 L 128.0 53.0 L 128.0 52.0 L 128.0 51.0 L 128.0 50.0 L 128.0 49.0 L 128.0 48.0 L 128.0 47.0 L 128.0 46.0 L 128.0 45.0 L 128.0 44.0 L 128.0 43.0 L 128.0 42.0 L 128.0 41.0 L 128.0 40.0 L 128.0 39.0 L 128.0 38.0 L 128.0 37.0 L 128.0 36.0 L 128.0 35.0 L 128.0 34.0 L 128.0 33.0 L 128.0 32.0 L 128.0 31.0 L 128.0 30.0 L 128.0 29.0 L 128.0 28.0 L 128.0 27.0 L 128.0 26.0 L 128.0 25.0 L 128.0 24.0 L 128.0 23.0 L 128.0 22.0 L 128.0 21.0 L 128.0 20.0 L 128.0 19.0 L 128.0 18.0 L 128.0 17.0 L 128.0 16.0 L 128.0 15.0 L 128.0 14.0 L 128.0 13.0 L 128.0 12.0 L 128.0 11.0 L 128.0 10.0 L 128.0 9.0 L 128.0 8.0 L 128.0 7.0 L 128.0 6.0 L 128.0 5.0 L 128.0 4.0 L 128.0 3.0 L 128.0 2.0 L 128.0 1.0 L 127.66666666666667 0.3333333333333333 L 127.0 0.0 L 126.0 0.0 L 125.0 0.0 L 124.0 0.0 L 123.0 0.0 L 122.0 0.0 L 121.0 0.0 L 120.0 0.0 L 119.0 0.0 L 118.0 0.0 L 117.0 0.0 L 116.0 0.0 L 115.0 0.0 L 114.0 0.0 L 113.0 0.0 L 112.0 0.0 L 111.0 0.0 L 110.0 0.0 L 109.0 0.0 L 108.0 0.0 L 107.0 0.0 L 106.0 0.0 L 105.0 0.0 L 104.0 0.0 L 103.0 0.0 L 102.0 0.0 L 101.0 0.0 L 100.0 0.0 L 99.0 0.0 L 98.0 0.0 L 97.0 0.0 L 96.0 0.0 L 95.0 0.0 L 94.0 0.0 L 93.0 0.0 L 92.0 0.0 L 91.0 0.0 L 90.0 0.0 L 89.0 0.0 L 88.0 0.0 L 87.0 0.0 L 86.0 0.0 L 85.0 0.0 L 84.0 0.0 L 83.0 0.0 L 82.0 0.0 L 81.0 0.0 L 80.0 0.0 L 79.0 0.0 L 78.0 0.0 L 77.0 0.0 L 76.0 0.0 L 75.0 0.0 L 74.0 0.0 L 73.0 0.0 L 72.0 0.0 L 71.0 0.0 L 70.0 0.0 L 69.0 0.0 L 68.0 0.0 L 67.0 0.0 L 66.0 0.0 L 65.0 0.0 L 64.0 0.0 L 63.0 0.0 L 62.0 0.0 L 61.0 0.0 L 60.0 0.0 L 59.0 0.0 L 58.0 0.0 L 57.0 0.0 L 56.0 0.0 L 55.0 0.0 L 54.0 0.0 L 53.0 0.0 L 52.0 0.0 L 51.0 0.0 L 50.0 0.0 L 49.0 0.0 L 48.0 0.0 L 47.0 0.0 L 46.0 0.0 L 45.0 0.0 L 44.0 0.0 L 43.0 0.0 L 42.0 0.0 L 41.0 0.0 L 40.0 0.0 L 39.0 0.0 L 38.0 0.0 L 37.0 0.0 L 36.0 0.0 L 35.0 0.0 L 34.0 0.0 L 33.0 0.0 L 32.0 0.0 L 31.0 0.0 L 30.0 0.0 L 29.0 0.0 L 28.0 0.0 L 27.0 0.0 L 26.0 0.0 L 25.0 0.0 L 24.0 0.0 L 23.0 0.0 L 22.0 0.0 L 21.0 0.0 L 20.0 0.0 L 19.0 0.0 L 18.0 0.0 L 17.0 0.0 L 16.0 0.0 L 15.0 0.0 L 14.0 0.0 L 13.0 0.0 L 12.0 0.0 L 11.0 0.0 L 10.0 0.0 L 9.0 0.0 L 8.0 0.0 L 7.0 0.0 L 6.0 0.0 L 5.0 0.0 L 4.0 0.0 L 3.0 0.0 L 2.0 0.0 L 1.0 0.0 L 0.3333333333333333 0.3333333333333333 L 0.0 1.0 L 0.0 2.0 L 0.0 3.0 L 0.0 4.0 L 0.0 5.0 L 0.0 6.0 L 0.0 7.0 L 0.0 8.0 L 0.0 9.0 L 0.0 10.0 L 0.0 11.0 L 0.0 12.0 L 0.0 13.0 L 0.0 14.0 L 0.0 15.0 L 0.0 16.0 L 0.0 17.0 L 0.0 18.0 L 0.0 19.0 L 0.0 20.0 L 0.0 21.0 L 0.0 22.0 L 0.0 23.0 L 0.0 24.0 L 0.0 25.0 L 0.0 26.0 L 0.0 27.0 L 0.0 28.0 L 0.0 29.0 L 0.0 30.0 L 0.0 31.0 L 0.0 32.0 L 0.0 33.0 L 0.0 34.0 L 0.0 35.0 L 0.0 36.0 L 0.0 37.0 L 0.0 38.0 L 0.0 39.0 L 0.0 40.0 L 0.0 41.0 L 0.0 42.0 L 0.0 43.0 L 0.0 44.0 L 0.0 45.0 L 0.0 46.0 L 0.0 47.0 L 0.0 48.0 L 0.0 49.0 L 0.0 50.0 L 0.0 51.0 L 0.0 52.0 L 0.0 53.0 L 0.0 54.0 L 0.0 55.0 L 0.0 56.0 L 0.0 57.0 L 0.0 58.0 L 0.0 59.0 L 0.0 60.0 L 0.0 61.0 L 0.0 62.0 L 0.0 63.0 L 0.0 64.0 L 0.0 65.0 L 0.0 66.0 L 0.0 67.0 L 0.0 68.0 L 0.0 69.0 L 0.0 70.0 L 0.0 71.0 L 0.0 72.0 L 0.0 73.0 L 0.0 74.0 L 0.0 75.0 L 0.0 76.0 L 0.0 77.0 L 0.0 78.0 L 0.0 79.0 L 0.0 80.0 L 0.0 81.0 L 0.0 82.0 L 0.0 83.0 L 0.0 84.0 L 0.0 85.0 L 0.0 86.0 L 0.0 87.0 L 0.0 88.0 L 0.0 89.0 L 0.0 90.0 L 0.0 91.0 L 0.0 92.0 L 0.0 93.0 L 0.0 94.0 L 0.0 95.0 L 0.0 96.0 L 0.0 97.0 L 0.0 98.0 L 0.0 99.0 L 0.0 100.0 L 0.0 101.0 L 0.0 102.0 L 0.0 103.0 L 0.0 104.0 L 0.0 105.0 L 0.0 106.0 L 0.0 107.0 L 0.0 108.0 L 0.0 109.0 L 0.0 110.0 L 0.0 111.0 L 0.0 112.0 L 0.0 113.0 L 0.0 114.0 L 0.0 115.0 L 0.0 116.0 L 0.0 117.0 L 0.0 118.0 L 0.0 119.0 L 0.0 120.0 L 0.0 121.0 L 0.0 122.0 L 0.0 123.0 L 0.0 124.0 L 0.0 125.0 L 0.0 126.0 L 0.0 127.0 L 0.3333333333333333 127.66666666666667 L 1.0 128.0 L 2.0 128.0 L 3.0 128.0 L 4.0 128.0 L 5.0 128.0 L 6.0 128.0 L 7.0 128.0 L 8.0 128.0 L 9.0 128.0 L 10.0 128.0 L 11.0 128.0 L 12.0 128.0 L 13.0 128.0 L 14.0 128.0 L 15.0 128.0 L 16.0 128.0 L 17.0 128.0 L 18.0 128.0 L 19.0 128.0 L 20.0 128.0 L 21.0 128.0 L 22.0 128.0 L 23.0 128.0 L 24.0 128.0 L 25.0 128.0 L 26.0 128.0 L 27.0 128.0 L 28.0 128.0 L 29.0 128.0 L 30.0 128.0 L 31.0 128.0 L 32.0 128.0 L 33.0 128.0 L 34.0 128.0 L 35.0 128.0 L 36.0 128.0 L 37.0 128.0 L 38.0 128.0 L 39.0 128.0 L 40.0 128.0 L 41.0 128.0 L 42.0 128.0 L 43.0 128.0 L 44.0 128.0 L 45.0 128.0 L 46.0 128.0 L 47.0 128.0 L 48.0 128.0 L 49.0 128.0 L 50.0 128.0 L 51.0 128.0 L 52.0 128.0 L 53.0 128.0 L 54.0 128.0 L 55.0 128.0 L 56.0 128.0 L 57.0 128.0 L 58.0 128.0 L 59.0 128.0 L 60.0 128.0 L 61.0 128.0 L 62.0 128.0 L 63.0 128.0 L 64.0 128.0 L 65.0 128.0 L 66.0 128.0 L 67.0 128.0 L 68.0 128.0 L 69.0 128.0 L 70.0 128.0 L 71.0 128.0 L 72.0 128.0 L 73.0 128.0 L 74.0 128.0 L 75.0 128.0 L 76.0 128.0 L 77.0 128.0 L 78.0 128.0 L 79.0 128.0 L 80.0 128.0 L 81.0 128.0 L 82.0 128.0 L 83.0 128.0 L 84.0 128.0 L 85.0 128.0 L 86.0 128.0 L 87.0 128.0 L 88.0 128.0 L 89.0 128.0 L 90.0 128.0 L 91.0 128.0 L 92.0 128.0 L 93.0 128.0 L 94.0 128.0 L 95.0 128.0 L 96.0 128.0 L 97.0 128.0 L 98.0 128.0 L 99.0 128.0 L 100.0 128.0 L 101.0 128.0 L 102.0 128.0 L 103.0 128.0 L 103.5 128.0 Z" stroke="none" fill="rgb(0,0,0)" />
<path d="M 88.5 108.5 L 89.0 108.0 L 89.66666666666667 107.0 L 90.33333333333333 106.0 L 90.66666666666667 105.0 L 91.0 104.0 L 91.0 103.0 L 91.0 102.0 L 91.0 101.0 L 91.0 100.0 L 91.0 99.0 L 91.0 98.0 L 91.0 97.0 L 91.0 96.0 L 91.0 95.0 L 90.66666666666667 94.0 L 90.33333333333333 93.0 L 90.0 92.0 L 89.66666666666667 91.0 L 89.33333333333333 90.0 L 89.33333333333333 89.0 L 90.0 88.66666666666667 L 91.0 88.66666666666667 L 92.0 89.33333333333333 L 93.0 89.66666666666667 L 94.0 90.0 L 95.0 90.33333333333333 L 96.0 90.66666666666667 L 97.0 91.0 L 98.0 91.0 L 99.0 91.0 L 100.0 91.0 L 101.0 91.0 L 102.0 91.0 L 103.0 91.0 L 104.0 91.0 L 105.0 91.0 L 106.0 91.0 L 107.0 91.0 L 108.0 90.66666666666667 L 109.0 90.33333333333333 L 110.0 89.66666666666667 L 111.0 89.0 L 112.0 88.0 L 112.66666666666667 87.0 L 113.33333333333333 86.0 L 113.66666666666667 85.0 L 114.0 84.0 L 114.33333333333333 83.0 L 115.0 82.0 L 116.0 81.33333333333333 L 117.0 80.66666666666667 L 118.0 80.0 L 119.0 79.33333333333333 L 120.0 78.66666666666667 L 120.66666666666667 78.0 L 121.33333333333333 77.0 L 122.0 76.0 L 122.66666666666667 75.0 L 123.33333333333333 74.0 L 123.66666666666667 73.0 L 124.33333333333333 72.0 L 124.66666666666667 71.0 L 125.0 70.0 L 125.0 69.0 L 125.0 68.0 L 125.0 67.0 L 125.0 66.0 L 125.0 65.0 L 125.0 64.0 L 125.0 63.0 L 125.0 62.0 L 125.0 61.0 L 124.66666666666667 60.0 L 124.33333333333333 59.0 L 123.66666666666667 58.0 L 123.33333333333333 57.0 L 122.66666666666667 56.0 L 122.0 55.0 L 121.0 54.0 L 120.0 53.0 L 119.0 52.0 L 118.0 51.0 L 117.33333333333333 50.0 L 117.0 49.0 L 117.0 48.0 L 116.66666666666667 47.0 L 116.33333333333333 46.0 L 115.66666666666667 45.0 L 115.0 44.0 L 114.0 43.0 L 113.0 42.0 L 112.0 41.333333333333336 L 111.0 41.0 L 110.0 40.666666666666664 L 109.0 40.333333333333336 L 108.0 40.0 L 107.0 40.0 L 106.0 40.0 L 105.0 40.0 L 104.0 40.0 L 103.0 40.0 L 102.0 40.0 L 101.0 39.666666666666664 L 100.66666666666667 39.0 L 101.0 38.0 L 102.0 37.0 L 103.0 36.0 L 103.66666666666667 35.0 L 104.33333333333333 34.0 L 104.66666666666667 33.0 L 105.33333333333333 32.0 L 105.66666666666667 31.0 L 106.0 30.0 L 106.0 29.0 L 106.0 28.0 L 106.0 27.0 L 106.0 26.0 L 106.0 25.0 L 106.0 24.0 L 105.66666666666667 23.0 L 105.33333333333333 22.0 L 104.66666666666667 21.0 L 104.33333333333333 20.0 L 103.66666666666667 19.333333333333332 L 103.0 18.666666666666668 L 102.0 18.0 L 101.0 17.333333333333332 L 100.0 16.666666666666668 L 99.0 16.0 L 98.0 15.0 L 97.33333333333333 14.0 L 96.66666666666667 13.0 L 96.33333333333333 12.0 L 95.66666666666667 11.0 L 95.0 10.0 L 94.0 9.0 L 93.0 8.0 L 92.0 7.0 L 91.0 6.333333333333333 L 90.0 6.0 L 89.0 5.666666666666667 L 88.0 5.333333333333333 L 87.0 5.0 L 86.0 5.0 L 85.0 5.0 L 84.0 5.0 L 83.0 5.0 L 82.0 5.333333333333333 L 81.0 5.666666666666667 L 80.0 6.0 L 79.0 6.0 L 78.0 6.0 L 77.0 6.0 L 76.0 5.666666666666667 L 75.0 5.333333333333333 L 74.0 5.0 L 73.0 5.0 L 72.0 5.0 L 71.0 5.0 L 70.0 5.0 L 69.0 5.0 L 68.0 5.0 L 67.0 5.0 L 66.0 5.333333333333333 L 65.0 5.666666666666667 L 64.0 6.333333333333333 L 63.0 7.0 L 62.0 8.0 L 61.0 9.0 L 60.333333333333336 10.0 L 60.0 11.0 L 59.666666666666664 12.0 L 59.333333333333336 13.0 L 59.0 14.0 L 59.0 15.0 L 59.0 16.0 L 59.0 17.0 L 59.0 18.0 L 59.0 19.0 L 59.0 20.0 L 58.666666666666664 21.0 L 58.0 21.333333333333332 L 57.333333333333336 21.0 L 57.0 20.0 L 56.666666666666664 19.0 L 56.333333333333336 18.0 L 55.666666666666664 17.0 L 55.333333333333336 16.0 L 54.666666666666664 15.0 L 54.0 14.0 L 53.0 13.333333333333334 L 52.0 12.666666666666666 L 51.0 12.333333333333334 L 50.0 12.0 L 49.0 11.666666666666666 L 48.0 11.333333333333334 L 47.0 11.0 L 46.0 11.0 L 45.0 11.0 L 44.0 11.333333333333334 L 43.333333333333336 12.0 L 43.0 13.0 L 43.333333333333336 14.0 L 43.666666666666664 15.0 L 44.0 16.0 L 44.0 17.0 L 44.333333333333336 18.0 L 45.0 19.0 L 46.0 20.0 L 47.0 21.0 L 48.0 22.0 L 48.666666666666664 23.0 L 49.0 24.0 L 49.333333333333336 25.0 L 49.666666666666664 26.0 L 50.0 27.0 L 50.333333333333336 28.0 L 51.0 29.0 L 52.0 30.0 L 53.0 31.0 L 54.0 32.0 L 55.0 33.0 L 56.0 34.0 L 57.0 35.0 L 58.0 36.0 L 58.666666666666664 37.0 L 59.333333333333336 38.0 L 60.0 39.0 L 61.0 39.666666666666664 L 62.0 39.666666666666664 L 62.666666666666664 39.0 L 63.0 38.0 L 63.333333333333336 37.0 L 64.0 36.0 L 65.0 35.333333333333336 L 66.0 35.333333333333336 L 67.0 36.0 L 67.66666666666667 37.0 L 68.33333333333333 38.0 L 69.0 38.666666666666664 L 70.0 39.0 L 71.0 38.666666666666664 L 72.0 38.0 L 73.0 37.0 L 74.0 36.333333333333336 L 75.0 35.666666666666664 L 76.0 35.333333333333336 L 77.0 34.666666666666664 L 78.0 34.666666666666664 L 79.0 35.0 L 79.66666666666667 36.0 L 80.0 37.0 L 80.0 38.0 L 79.66666666666667 39.0 L 79.33333333333333 40.0 L 79.0 41.0 L 79.0 42.0 L 79.33333333333333 42.666666666666664 L 80.0 43.0 L 81.0 43.0 L 82.0 43.0 L 83.0 43.0 L 84.0 43.333333333333336 L 84.66666666666667 44.0 L 85.0 45.0 L 85.0 46.0 L 84.66666666666667 47.0 L 84.33333333333333 48.0 L 84.0 49.0 L 84.0 50.0 L 84.33333333333333 50.666666666666664 L 85.0 51.0 L 86.0 51.0 L 87.0 51.0 L 88.0 51.0 L 89.0 51.0 L 90.0 51.0 L 91.0 51.333333333333336 L 92.0 52.0 L 92.66666666666667 53.0 L 92.66666666666667 54.0 L 92.0 55.0 L 91.0 56.0 L 90.0 57.0 L 89.0 57.666666666666664 L 88.33333333333333 58.333333333333336 L 88.0 59.0 L 88.33333333333333 59.666666666666664 L 89.0 60.333333333333336 L 90.0 60.666666666666664 L 91.0 61.333333333333336 L 92.0 62.0 L 93.0 63.0 L 93.66666666666667 64.0 L 94.0 65.0 L 93.66666666666667 66.0 L 93.0 67.0 L 92.0 67.66666666666667 L 91.0 68.0 L 90.0 68.0 L 89.0 68.0 L 88.0 68.0 L 87.0 68.0 L 86.0 68.0 L 85.0 68.0 L 84.0 68.0 L 83.33333333333333 68.33333333333333 L 83.0 69.0 L 83.33333333333333 70.0 L 84.0 71.0 L 84.66666666666667 72.0 L 85.33333333333333 73.0 L 85.66666666666667 74.0 L 86.0 75.0 L 86.0 76.0 L 85.66666666666667 77.0 L 85.0 77.66666666666667 L 84.0 78.0 L 83.0 78.0 L 82.0 78.0 L 81.0 78.0 L 80.0 77.66666666666667 L 79.0 77.33333333333333 L 78.0 76.66666666666667 L 77.0 76.33333333333333 L 76.0 75.66666666666667 L 75.0 75.0 L 74.0 74.33333333333333 L 73.0 74.0 L 72.0 74.0 L 71.33333333333333 74.33333333333333 L 71.0 75.0 L 71.0 76.0 L 71.0 77.0 L 70.66666666666667 78.0 L 70.33333333333333 79.0 L 70.0 80.0 L 69.66666666666667 81.0 L 69.33333333333333 82.0 L 68.66666666666667 83.0 L 68.0 84.0 L 67.0 85.0 L 66.0 85.66666666666667 L 65.0 86.0 L 64.0 85.66666666666667 L 63.0 85.0 L 62.333333333333336 84.0 L 61.666666666666664 83.0 L 61.0 82.0 L 60.333333333333336 81.0 L 60.0 80.0 L 59.666666666666664 79.0 L 59.333333333333336 78.0 L 58.666666666666664 77.0 L 58.0 76.33333333333333 L 57.0 76.0 L 56.0 76.33333333333333 L 55.0 77.0 L 54.0 78.0 L 53.0 79.0 L 52.0 80.0 L 51.0 80.66666666666667 L 50.0 81.0 L 49.0 81.0 L 48.0 80.66666666666667 L 47.0 80.0 L 46.333333333333336 79.0 L 46.0 78.0 L 46.0 77.0 L 46.0 76.0 L 46.0 75.0 L 45.666666666666664 74.33333333333333 L 45.0 74.33333333333333 L 44.0 74.66666666666667 L 43.0 75.33333333333333 L 42.0 75.66666666666667 L 41.0 76.0 L 40.0 76.0 L 39.0 76.0 L 38.0 76.0 L 37.0 75.66666666666667 L 36.333333333333336 75.0 L 36.0 74.0 L 36.0 73.0 L 36.333333333333336 72.0 L 36.666666666666664 71.0 L 37.333333333333336 70.0 L 38.0 69.0 L 39.0 68.0 L 40.0 67.0 L 40.666666666666664 66.0 L 40.666666666666664 65.0 L 40.0 64.33333333333333 L 39.0 64.0 L 38.0 64.0 L 37.0 64.0 L 36.0 63.666666666666664 L 35.0 63.333333333333336 L 34.0 62.666666666666664 L 33.0 62.0 L 32.333333333333336 61.0 L 32.0 60.0 L 32.0 59.0 L 32.333333333333336 58.0 L 33.0 57.0 L 34.0 56.333333333333336 L 35.0 55.666666666666664 L 36.0 55.333333333333336 L 37.0 54.666666666666664 L 38.0 54.333333333333336 L 39.0 54.0 L 40.0 53.666666666666664 L 40.666666666666664 53.0 L 41.0 52.0 L 40.666666666666664 51.0 L 40.0 50.0 L 39.666666666666664 49.0 L 40.0 48.0 L 41.0 47.333333333333336 L 42.0 47.0 L 43.0 47.0 L 44.0 47.0 L 45.0 47.0 L 46.0 47.0 L 47.0 47.0 L 47.666666666666664 46.666666666666664 L 48.0 46.0 L 48.0 45.0 L 47.666666666666664 44.0 L 47.333333333333336 43.0 L 47.0 42.0 L 47.333333333333336 41.0 L 47.666666666666664 40.0 L 48.0 39.0 L 48.0 38.0 L 47.666666666666664 37.0 L 47.0 36.0 L 46.0 35.0 L 45.0 34.333333333333336 L 44.0 34.0 L 43.0 34.0 L 42.0 34.0 L 41.0 34.0 L 40.0 34.0 L 39.0 33.666666666666664 L 38.0 33.0 L 37.0 32.0 L 36.0 31.0 L 35.0 30.0 L 34.0 29.333333333333332 L 33.0 29.0 L 32.0 28.666666666666668 L 31.0 28.0 L 30.333333333333332 27.0 L 30.0 26.0 L 30.0 25.0 L 30.0 24.0 L 30.0 23.0 L 30.0 22.0 L 30.0 21.0 L 30.333333333333332 20.0 L 30.666666666666668 19.0 L 30.666666666666668 18.0 L 30.333333333333332 17.0 L 30.0 16.0 L 30.333333333333332 15.0 L 31.0 14.0 L 31.666666666666668 13.0 L 32.333333333333336 12.0 L 33.0 11.666666666666666 L 34.0 12.0 L 35.0 12.666666666666666 L 36.0 13.0 L 37.0 13.0 L 38.0 13.0 L 39.0 13.0 L 40.0 13.0 L 40.666666666666664 12.666666666666666 L 40.666666666666664 12.0 L 40.0 11.333333333333334 L 39.0 10.666666666666666 L 38.0 10.333333333333334 L 37.0 9.666666666666666 L 36.0 9.333333333333334 L 35.0 9.0 L 34.0 9.0 L 33.0 8.666666666666666 L 32.0 8.333333333333334 L 31.0 8.0 L 30.0 8.0 L 29.0 8.0 L 28.0 8.0 L 27.0 8.333333333333334 L 26.0 8.666666666666666 L 25.0 9.0 L 24.0 9.333333333333334 L 23.0 9.666666666666666 L 22.0 10.333333333333334 L 21.0 11.0 L 20.0 12.0 L 19.0 13.0 L 18.333333333333332 14.0 L 18.0 15.0 L 17.666666666666668 16.0 L 17.333333333333332 17.0 L 17.0 18.0 L 17.0 19.0 L 17.0 20.0 L 17.0 21.0 L 17.0 22.0 L 17.0 23.0 L 17.0 24.0 L 17.333333333333332 25.0 L 17.666666666666668 26.0 L 18.0 27.0 L 18.0 28.0 L 17.666666666666668 29.0 L 17.0 30.0 L 16.0 31.0 L 15.333333333333334 32.0 L 15.0 33.0 L 15.0 34.0 L 15.0 35.0 L 15.0 36.0 L 15.0 37.0 L 15.0 38.0 L 15.0 39.0 L 15.0 40.0 L 15.0 41.0 L 15.333333333333334 42.0 L 16.0 43.0 L 17.0 44.0 L 18.0 45.0 L 19.0 46.0 L 20.0 46.666666666666664 L 21.0 47.333333333333336 L 21.333333333333332 48.0 L 21.0 48.666666666666664 L 20.0 49.0 L 19.0 49.0 L 18.0 49.0 L 17.0 49.0 L 16.0 49.0 L 15.0 49.0 L 14.0 49.333333333333336 L 13.0 49.666666666666664 L 12.0 50.0 L 11.0 50.333333333333336 L 10.0 50.666666666666664 L 9.0 51.333333333333336 L 8.0 52.0 L 7.333333333333333 53.0 L 6.666666666666667 54.0 L 6.333333333333333 55.0 L 6.0 56.0 L 6.0 57.0 L 6.0 58.0 L 6.0 59.0 L 6.0 60.0 L 6.0 61.0 L 6.0 62.0 L 6.0 63.0 L 6.0 64.0 L 5.666666666666667 65.0 L 5.333333333333333 66.0 L 4.666666666666667 67.0 L 4.333333333333333 68.0 L 4.0 69.0 L 3.6666666666666665 70.0 L 3.3333333333333335 71.0 L 3.0 72.0 L 3.0 73.0 L 3.0 74.0 L 3.0 75.0 L 3.0 76.0 L 3.0 77.0 L 3.3333333333333335 78.0 L 3.6666666666666665 79.0 L 4.0 80.0 L 4.333333333333333 81.0 L 4.666666666666667 82.0 L 5.333333333333333 83.0 L 5.666666666666667 84.0 L 6.333333333333333 85.0 L 7.0 85.66666666666667 L 8.0 86.33333333333333 L 9.0 86.66666666666667 L 10.0 87.33333333333333 L 11.0 87.66666666666667 L 12.0 88.33333333333333 L 13.0 89.0 L 13.666666666666666 90.0 L 14.333333333333334 91.0 L 14.666666666666666 92.0 L 15.333333333333334 93.0 L 16.0 94.0 L 17.0 95.0 L 18.0 95.66666666666667 L 19.0 96.0 L 20.0 96.0 L 21.0 96.0 L 22.0 96.0 L 23.0 96.0 L 24.0 96.0 L 25.0 96.0 L 26.0 96.0 L 27.0 96.0 L 28.0 96.0 L 29.0 96.0 L 30.0 96.0 L 31.0 96.0 L 32.0 95.66666666666667 L 33.0 95.0 L 34.0 94.33333333333333 L 35.0 93.66666666666667 L 36.0 93.0 L 37.0 92.0 L 38.0 91.0 L 39.0 90.66666666666667 L 39.666666666666664 91.0 L 40.0 92.0 L 40.0 93.0 L 39.666666666666664 94.0 L 39.333333333333336 95.0 L 39.0 96.0 L 39.0 97.0 L 39.0 98.0 L 39.0 99.0 L 39.0 100.0 L 39.0 101.0 L 39.0 102.0 L 39.0 103.0 L 39.333333333333336 104.0 L 39.666666666666664 105.0 L 40.333333333333336 106.0 L 40.666666666666664 107.0 L 41.333333333333336 108.0 L 42.0 109.0 L 43.0 110.0 L 44.0 111.0 L 45.0 112.0 L 46.0 113.0 L 47.0 113.66666666666667 L 48.0 114.0 L 49.0 114.0 L 50.0 114.0 L 51.0 114.33333333333333 L 52.0 115.0 L 53.0 116.0 L 54.0 117.0 L 55.0 117.66666666666667 L 56.0 118.33333333333333 L 57.0 118.66666666666667 L 58.0 119.33333333333333 L 59.0 119.66666666666667 L 60.0 120.0 L 61.0 120.0 L 62.0 120.0 L 63.0 120.0 L 64.0 120.0 L 65.0 120.33333333333333 L 66.0 120.66666666666667 L 67.0 121.0 L 68.0 120.66666666666667 L 69.0 120.33333333333333 L 70.0 120.0 L 71.0 120.0 L 72.0 120.0 L 73.0 119.66666666666667 L 74.0 119.33333333333333 L 75.0 118.66666666666667 L 76.0 118.0 L 77.0 117.0 L 78.0 116.0 L 79.0 115.0 L 80.0 114.33333333333333 L 81.0 114.0 L 82.0 114.0 L 83.0 113.66666666666667 L 84.0 113.33333333333333 L 85.0 112.66666666666667 L 86.0 112.33333333333333 L 86.66666666666667 111.66666666666667 L 87.0 111.0 L 87.33333333333333 110.0 L 87.5 109.5 Z" stroke="none" fill="rgb(234,75,141)" />
<path d="M 57.5 59.5 L 58.0 60.0 L 59.0 60.666666666666664 L 60.0 61.0 L 61.0 61.0 L 62.0 61.0 L 63.0 61.0 L 64.0 61.0 L 65.0 61.0 L 66.0 61.0 L 67.0 60.666666666666664 L 67.66666666666667 60.0 L 68.33333333333333 59.0 L 68.66666666666667 58.0 L 69.0 57.0 L 69.0 56.0 L 68.66666666666667 55.0 L 68.33333333333333 54.0 L 68.0 53.0 L 67.66666666666667 52.0 L 67.33333333333333 51.0 L 66.66666666666667 50.0 L 66.33333333333333 49.0 L 65.66666666666667 48.0 L 65.33333333333333 47.0 L 64.66666666666667 46.0 L 64.33333333333333 45.0 L 63.666666666666664 44.0 L 63.333333333333336 43.0 L 62.666666666666664 42.0 L 62.333333333333336 41.0 L 61.666666666666664 40.0 L 61.0 39.0 L 60.0 38.0 L 59.333333333333336 37.0 L 58.666666666666664 36.0 L 58.0 35.0 L 57.0 34.0 L 56.0 33.0 L 55.0 32.0 L 54.0 31.0 L 53.0 30.0 L 52.0 29.0 L 51.0 28.0 L 50.333333333333336 27.0 L 50.0 26.0 L 49.666666666666664 25.0 L 49.333333333333336 24.0 L 49.0 23.0 L 48.666666666666664 22.0 L 48.0 21.0 L 47.0 20.0 L 46.0 19.0 L 45.0 18.0 L 44.333333333333336 17.0 L 44.0 16.0 L 44.0 15.0 L 43.666666666666664 14.0 L 43.0 13.333333333333334 L 42.0 13.0 L 41.0 13.0 L 40.0 13.0 L 39.0 13.0 L 38.0 13.0 L 37.0 13.0 L 36.0 12.666666666666666 L 35.0 12.0 L 34.0 11.333333333333334 L 33.0 11.0 L 32.333333333333336 11.333333333333334 L 32.0 12.0 L 32.333333333333336 12.666666666666666 L 33.0 13.333333333333334 L 34.0 14.0 L 34.666666666666664 15.0 L 35.0 16.0 L 34.666666666666664 17.0 L 34.0 18.0 L 33.0 18.666666666666668 L 32.0 19.0 L 31.0 19.0 L 30.333333333333332 19.333333333333332 L 30.0 20.0 L 30.0 21.0 L 30.0 22.0 L 30.333333333333332 22.666666666666668 L 31.0 22.666666666666668 L 32.0 22.0 L 33.0 21.333333333333332 L 34.0 21.333333333333332 L 35.0 22.0 L 35.666666666666664 23.0 L 36.333333333333336 24.0 L 37.0 24.666666666666668 L 38.0 25.0 L 39.0 24.666666666666668 L 40.0 24.333333333333332 L 41.0 24.0 L 42.0 24.333333333333332 L 43.0 25.0 L 43.666666666666664 26.0 L 44.0 27.0 L 43.666666666666664 28.0 L 43.0 29.0 L 42.0 29.666666666666668 L 41.0 30.0 L 40.0 29.666666666666668 L 39.0 29.0 L 38.0 28.0 L 37.0 27.333333333333332 L 36.0 27.0 L 35.0 27.0 L 34.0 27.0 L 33.0 27.0 L 32.0 26.666666666666668 L 31.0 26.333333333333332 L 30.333333333333332 26.333333333333332 L 30.0 27.0 L 30.333333333333332 28.0 L 31.0 28.666666666666668 L 32.0 29.0 L 33.0 29.333333333333332 L 34.0 30.0 L 35.0 31.0 L 36.0 32.0 L 37.0 33.0 L 38.0 33.666666666666664 L 39.0 34.0 L 40.0 34.0 L 41.0 34.0 L 42.0 34.0 L 43.0 34.0 L 44.0 34.333333333333336 L 45.0 35.0 L 46.0 36.0 L 47.0 37.0 L 47.666666666666664 38.0 L 48.333333333333336 39.0 L 49.0 40.0 L 50.0 41.0 L 51.0 42.0 L 51.666666666666664 43.0 L 52.333333333333336 44.0 L 52.666666666666664 45.0 L 53.333333333333336 46.0 L 53.666666666666664 47.0 L 54.333333333333336 48.0 L 54.666666666666664 49.0 L 55.0 50.0 L 55.333333333333336 51.0 L 55.666666666666664 52.0 L 56.0 53.0 L 56.0 54.0 L 56.333333333333336 55.0 L 56.666666666666664 56.0 L 57.0 57.0 L 57.0 58.0 L 57.0 58.5 Z" stroke="none" fill="rgb(253,193,30)" />
<path d="M 33.5 19.0 L 34.0 18.666666666666668 L 34.666666666666664 18.0 L 35.0 17.0 L 35.0 16.0 L 35.0 15.0 L 34.666666666666664 14.0 L 34.0 13.333333333333334 L 33.0 13.0 L 32.0 13.0 L 31.0 13.333333333333334 L 30.333333333333332 14.0 L 30.0 15.0 L 30.0 16.0 L 30.0 17.0 L 30.333333333333332 18.0 L 31.0 18.666666666666668 L 32.0 19.0 L 32.5 19.0 Z" stroke="none" fill="rgb(254,225,100)" />
<path d="M 38.5 22.0 L 39.0 22.0 L 40.0 22.0 L 41.0 21.666666666666668 L 41.666666666666664 21.0 L 42.0 20.0 L 42.0 19.0 L 42.0 18.0 L 41.666666666666664 17.0 L 41.0 16.333333333333332 L 40.0 16.0 L 39.0 16.0 L 38.0 16.333333333333332 L 37.333333333333336 17.0 L 37.0 18.0 L 37.0 19.0 L 37.0 20.0 L 37.333333333333336 21.0 L 37.5 21.5 Z" stroke="none" fill="rgb(254,225,100)" />
<path d="M 33.5 27.0 L 34.0 27.0 L 35.0 27.0 L 36.0 27.333333333333332 L 37.0 28.0 L 38.0 29.0 L 39.0 29.666666666666668 L 40.0 30.0 L 41.0 30.0 L 42.0 30.0 L 43.0 29.666666666666668 L 43.666666666666664 29.0 L 44.0 28.0 L 44.0 27.0 L 44.0 26.0 L 43.666666666666664 25.0 L 43.0 24.333333333333332 L 42.0 24.0 L 41.0 24.0 L 40.0 24.0 L 39.0 24.333333333333332 L 38.0 24.333333333333332 L 37.0 24.0 L 36.333333333333336 23.0 L 35.666666666666664 22.0 L 35.0 21.333333333333332 L 34.0 21.0 L 33.0 21.0 L 32.0 21.333333333333332 L 31.0 22.0 L 30.333333333333332 23.0 L 30.0 24.0 L 30.0 25.0 L 30.333333333333332 26.0 L 31.0 26.666666666666668 L 32.0 27.0 L 32.5 27.0 Z" stroke="none" fill="rgb(254,225,100)" />
<path d="M 59.5 79.5 L 59.666666666666664 80.0 L 60.0 81.0 L 60.333333333333336 82.0 L 61.0 83.0 L 61.666666666666664 84.0 L 62.333333333333336 85.0 L 63.0 85.66666666666667 L 64.0 86.0 L 65.0 86.0 L 66.0 86.0 L 67.0 85.66666666666667 L 68.0 85.0 L 68.66666666666667 84.0 L 69.33333333333333 83.0 L 69.66666666666667 82.0 L 70.0 81.0 L 70.33333333333333 80.0 L 70.66666666666667 79.0 L 71.0 78.0 L 71.0 77.0 L 71.0 76.0 L 71.33333333333333 75.0 L 72.0 74.33333333333333 L 73.0 74.33333333333333 L 74.0 75.0 L 75.0 75.66666666666667 L 76.0 76.33333333333333 L 77.0 76.66666666666667 L 78.0 77.33333333333333 L 79.0 77.66666666666667 L 80.0 78.0 L 81.0 78.0 L 82.0 78.0 L 83.0 78.0 L 84.0 78.0 L 85.0 78.0 L 85.66666666666667 77.66666666666667 L 86.0 77.0 L 86.0 76.0 L 86.0 75.0 L 86.0 74.0 L 85.66666666666667 73.0 L 85.33333333333333 72.0 L 84.66666666666667 71.0 L 84.0 70.0 L 83.66666666666667 69.0 L 84.0 68.33333333333333 L 85.0 68.0 L 86.0 68.0 L 87.0 68.0 L 88.0 68.0 L 89.0 68.0 L 90.0 68.0 L 91.0 68.0 L 92.0 68.0 L 93.0 67.66666666666667 L 93.66666666666667 67.0 L 94.0 66.0 L 94.0 65.0 L 94.0 64.0 L 93.66666666666667 63.0 L 93.0 62.0 L 92.0 61.333333333333336 L 91.0 60.666666666666664 L 90.0 60.333333333333336 L 89.0 59.666666666666664 L 88.66666666666667 59.0 L 89.0 58.333333333333336 L 90.0 57.666666666666664 L 91.0 57.0 L 92.0 56.0 L 92.66666666666667 55.0 L 93.0 54.0 L 93.0 53.0 L 92.66666666666667 52.0 L 92.0 51.333333333333336 L 91.0 51.0 L 90.0 51.0 L 89.0 51.0 L 88.0 51.0 L 87.0 51.0 L 86.0 51.0 L 85.0 50.666666666666664 L 84.33333333333333 50.0 L 84.33333333333333 49.0 L 84.66666666666667 48.0 L 85.0 47.0 L 85.0 46.0 L 85.0 45.0 L 85.0 44.0 L 84.66666666666667 43.333333333333336 L 84.0 43.0 L 83.0 43.0 L 82.0 43.0 L 81.0 43.0 L 80.0 42.666666666666664 L 79.33333333333333 42.0 L 79.33333333333333 41.0 L 79.66666666666667 40.0 L 80.0 39.0 L 80.0 38.0 L 80.0 37.0 L 80.0 36.0 L 79.66666666666667 35.0 L 79.0 34.333333333333336 L 78.0 34.0 L 77.0 34.333333333333336 L 76.0 34.666666666666664 L 75.0 35.333333333333336 L 74.0 35.666666666666664 L 73.0 36.333333333333336 L 72.0 37.0 L 71.0 38.0 L 70.0 38.333333333333336 L 69.0 38.0 L 68.33333333333333 37.0 L 67.66666666666667 36.0 L 67.0 35.333333333333336 L 66.0 35.0 L 65.0 35.0 L 64.0 35.333333333333336 L 63.333333333333336 36.0 L 63.0 37.0 L 62.666666666666664 38.0 L 62.333333333333336 39.0 L 62.0 40.0 L 62.0 41.0 L 62.333333333333336 42.0 L 62.666666666666664 43.0 L 63.333333333333336 44.0 L 63.666666666666664 45.0 L 64.33333333333333 46.0 L 64.66666666666667 47.0 L 65.33333333333333 48.0 L 65.66666666666667 49.0 L 66.33333333333333 50.0 L 66.66666666666667 51.0 L 67.33333333333333 52.0 L 67.66666666666667 53.0 L 68.0 54.0 L 68.33333333333333 55.0 L 68.66666666666667 56.0 L 68.66666666666667 57.0 L 68.33333333333333 58.0 L 67.66666666666667 59.0 L 67.0 60.0 L 66.0 60.666666666666664 L 65.0 61.0 L 64.0 61.0 L 63.0 61.0 L 62.0 61.0 L 61.0 61.0 L 60.0 60.666666666666664 L 59.0 60.0 L 58.0 59.0 L 57.333333333333336 58.0 L 57.0 57.0 L 57.0 56.0 L 56.666666666666664 55.0 L 56.333333333333336 54.0 L 56.0 53.0 L 56.0 52.0 L 55.666666666666664 51.0 L 55.333333333333336 50.0 L 55.0 49.0 L 54.666666666666664 48.0 L 54.333333333333336 47.0 L 53.666666666666664 46.0 L 53.333333333333336 45.0 L 52.666666666666664 44.0 L 52.333333333333336 43.0 L 51.666666666666664 42.0 L 51.0 41.0 L 50.0 40.0 L 49.0 39.333333333333336 L 48.0 39.333333333333336 L 47.333333333333336 40.0 L 47.0 41.0 L 47.0 42.0 L 47.0 43.0 L 47.333333333333336 44.0 L 47.666666666666664 45.0 L 47.666666666666664 46.0 L 47.0 46.666666666666664 L 46.0 47.0 L 45.0 47.0 L 44.0 47.0 L 43.0 47.0 L 42.0 47.0 L 41.0 47.0 L 40.0 47.333333333333336 L 39.333333333333336 48.0 L 39.0 49.0 L 39.333333333333336 50.0 L 40.0 51.0 L 40.333333333333336 52.0 L 40.0 53.0 L 39.0 53.666666666666664 L 38.0 54.0 L 37.0 54.333333333333336 L 36.0 54.666666666666664 L 35.0 55.333333333333336 L 34.0 55.666666666666664 L 33.0 56.333333333333336 L 32.333333333333336 57.0 L 32.0 58.0 L 32.0 59.0 L 32.0 60.0 L 32.0 61.0 L 32.333333333333336 62.0 L 33.0 62.666666666666664 L 34.0 63.333333333333336 L 35.0 63.666666666666664 L 36.0 64.0 L 37.0 64.0 L 38.0 64.0 L 39.0 64.33333333333333 L 39.666666666666664 65.0 L 39.666666666666664 66.0 L 39.0 67.0 L 38.0 68.0 L 37.333333333333336 69.0 L 36.666666666666664 70.0 L 36.333333333333336 71.0 L 36.0 72.0 L 35.666666666666664 73.0 L 35.333333333333336 74.0 L 35.333333333333336 75.0 L 36.0 75.66666666666667 L 37.0 76.0 L 38.0 76.0 L 39.0 76.0 L 40.0 76.0 L 41.0 76.0 L 42.0 76.0 L 43.0 75.66666666666667 L 44.0 75.33333333333333 L 45.0 75.33333333333333 L 45.666666666666664 76.0 L 46.0 77.0 L 46.0 78.0 L 46.0 79.0 L 46.333333333333336 80.0 L 47.0 80.66666666666667 L 48.0 81.0 L 49.0 81.0 L 50.0 81.0 L 51.0 81.0 L 52.0 80.66666666666667 L 53.0 80.0 L 54.0 79.0 L 55.0 78.0 L 56.0 77.0 L 57.0 76.66666666666667 L 58.0 77.0 L 58.666666666666664 78.0 L 59.0 78.5 Z" stroke="none" fill="rgb(193,3,117)" />
<path d="M 95.5 116.0 L 96.0 116.33333333333333 L 97.0 116.66666666666667 L 98.0 117.0 L 99.0 117.0 L 100.0 117.0 L 101.0 117.0 L 102.0 117.0 L 103.0 117.0 L 103.66666666666667 116.66666666666667 L 104.33333333333333 116.0 L 105.0 115.33333333333333 L 106.0 115.0 L 107.0 115.33333333333333 L 108.0 115.66666666666667 L 109.0 116.33333333333333 L 110.0 116.66666666666667 L 111.0 117.0 L 112.0 117.0 L 113.0 117.0 L 114.0 117.33333333333333 L 115.0 117.66666666666667 L 116.0 118.0 L 117.0 118.0 L 118.0 118.0 L 119.0 118.0 L 120.0 118.0 L 121.0 118.0 L 122.0 118.0 L 123.0 118.0 L 123.66666666666667 117.66666666666667 L 124.0 117.0 L 124.0 116.0 L 124.0 115.0 L 123.66666666666667 114.0 L 123.33333333333333 113.0 L 123.0 112.0 L 123.0 111.0 L 123.0 110.0 L 122.66666666666667 109.0 L 122.33333333333333 108.0 L 122.0 107.0 L 121.66666666666667 106.0 L 121.33333333333333 105.0 L 120.66666666666667 104.0 L 120.0 103.0 L 119.66666666666667 102.0 L 120.0 101.0 L 121.0 100.0 L 121.66666666666667 99.0 L 121.66666666666667 98.0 L 121.33333333333333 97.0 L 121.0 96.0 L 120.66666666666667 95.0 L 120.33333333333333 94.0 L 119.66666666666667 93.0 L 119.0 92.0 L 118.0 91.0 L 117.33333333333333 90.0 L 116.66666666666667 89.0 L 116.0 88.0 L 115.0 87.0 L 114.0 86.33333333333333 L 113.0 86.33333333333333 L 112.0 87.0 L 111.0 88.0 L 110.0 89.0 L 109.0 89.66666666666667 L 108.0 90.33333333333333 L 107.0 90.66666666666667 L 106.0 91.0 L 105.0 91.0 L 104.0 91.0 L 103.0 91.0 L 102.0 91.0 L 101.0 91.0 L 100.0 91.0 L 99.0 91.0 L 98.0 91.0 L 97.0 90.66666666666667 L 96.0 90.33333333333333 L 95.0 90.0 L 94.0 89.66666666666667 L 93.0 89.33333333333333 L 92.0 88.66666666666667 L 91.0 88.33333333333333 L 90.0 88.0 L 89.33333333333333 88.33333333333333 L 89.0 89.0 L 89.0 90.0 L 89.33333333333333 91.0 L 89.66666666666667 92.0 L 90.0 93.0 L 90.33333333333333 94.0 L 90.66666666666667 95.0 L 91.0 96.0 L 91.0 97.0 L 91.0 98.0 L 91.0 99.0 L 91.0 100.0 L 91.0 101.0 L 91.0 102.0 L 91.0 103.0 L 90.66666666666667 104.0 L 90.33333333333333 105.0 L 89.66666666666667 106.0 L 89.0 107.0 L 88.0 108.0 L 87.33333333333333 109.0 L 87.0 110.0 L 87.0 111.0 L 87.33333333333333 112.0 L 88.0 112.66666666666667 L 89.0 113.33333333333333 L 90.0 113.66666666666667 L 91.0 114.33333333333333 L 92.0 114.66666666666667 L 93.0 115.0 L 94.0 115.33333333333333 L 94.5 115.5 Z" stroke="none" fill="rgb(46,126,49)" />
<path d="M 24.5 122.0 L 25.0 121.66666666666667 L 26.0 121.33333333333333 L 27.0 121.0 L 28.0 120.66666666666667 L 29.0 120.66666666666667 L 30.0 121.0 L 31.0 121.66666666666667 L 32.0 122.0 L 33.0 122.0 L 34.0 122.0 L 35.0 122.0 L 36.0 121.66666666666667 L 37.0 121.33333333333333 L 38.0 121.0 L 39.0 120.66666666666667 L 40.0 120.33333333333333 L 41.0 119.66666666666667 L 42.0 119.33333333333333 L 43.0 118.66666666666667 L 44.0 118.0 L 45.0 117.0 L 46.0 116.0 L 46.666666666666664 115.0 L 47.0 114.0 L 46.666666666666664 113.0 L 46.0 112.0 L 45.0 111.0 L 44.0 110.0 L 43.0 109.0 L 42.0 108.0 L 41.333333333333336 107.0 L 40.666666666666664 106.0 L 40.333333333333336 105.0 L 39.666666666666664 104.0 L 39.333333333333336 103.0 L 39.0 102.0 L 39.0 101.0 L 39.0 100.0 L 39.0 99.0 L 39.0 98.0 L 39.0 97.0 L 39.333333333333336 96.0 L 39.666666666666664 95.0 L 40.0 94.0 L 40.0 93.0 L 40.0 92.0 L 40.0 91.0 L 39.666666666666664 90.33333333333333 L 39.0 90.0 L 38.0 90.33333333333333 L 37.0 91.0 L 36.0 92.0 L 35.0 93.0 L 34.0 93.66666666666667 L 33.0 94.33333333333333 L 32.0 95.0 L 31.0 95.66666666666667 L 30.0 96.0 L 29.0 96.0 L 28.0 96.0 L 27.0 96.0 L 26.0 96.0 L 25.0 96.0 L 24.0 96.0 L 23.0 96.0 L 22.0 96.0 L 21.0 96.0 L 20.0 96.0 L 19.0 96.0 L 18.0 96.33333333333333 L 17.0 97.0 L 16.0 98.0 L 15.333333333333334 99.0 L 14.666666666666666 100.0 L 14.0 101.0 L 13.333333333333334 102.0 L 12.666666666666666 103.0 L 12.0 104.0 L 11.333333333333334 105.0 L 11.0 106.0 L 11.0 107.0 L 11.333333333333334 108.0 L 12.0 109.0 L 12.333333333333334 110.0 L 12.333333333333334 111.0 L 11.666666666666666 112.0 L 11.0 113.0 L 10.333333333333334 114.0 L 9.666666666666666 115.0 L 9.0 116.0 L 8.333333333333334 117.0 L 8.0 118.0 L 8.0 119.0 L 8.0 120.0 L 8.333333333333334 121.0 L 9.0 121.66666666666667 L 10.0 122.0 L 11.0 122.0 L 12.0 122.0 L 13.0 122.0 L 14.0 122.0 L 15.0 122.0 L 16.0 122.0 L 17.0 122.0 L 18.0 122.0 L 19.0 122.0 L 20.0 122.0 L 21.0 122.0 L 22.0 122.0 L 23.0 122.0 L 23.5 122.0 Z" stroke="none" fill="rgb(46,126,49)" />
<path d="M 111.5 106.5 L 111.66666666666667 106.0 L 112.0 105.0 L 111.66666666666667 104.0 L 111.33333333333333 103.0 L 110.66666666666667 102.0 L 110.0 101.0 L 109.0 100.0 L 108.0 99.0 L 107.0 98.0 L 106.0 97.0 L 105.0 96.33333333333333 L 104.0 95.66666666666667 L 103.0 95.33333333333333 L 102.0 95.0 L 101.33333333333333 95.33333333333333 L 101.0 96.0 L 101.0 97.0 L 101.33333333333333 98.0 L 102.0 99.0 L 103.0 100.0 L 104.0 101.0 L 105.0 102.0 L 106.0 103.0 L 107.0 104.0 L 108.0 105.0 L 109.0 106.0 L 110.0 106.66666666666667 L 110.5 107.0 Z" stroke="none" fill="rgb(90,152,34)" />
<path d="M 33.5 104.5 L 34.0 104.0 L 35.0 103.0 L 35.666666666666664 102.0 L 36.0 101.0 L 35.666666666666664 100.0 L 35.0 99.33333333333333 L 34.0 99.0 L 33.0 99.33333333333333 L 32.0 99.66666666666667 L 31.0 100.33333333333333 L 30.0 100.66666666666667 L 29.0 101.33333333333333 L 28.0 102.0 L 27.0 103.0 L 26.0 104.0 L 25.333333333333332 105.0 L 25.0 106.0 L 25.0 107.0 L 25.333333333333332 107.66666666666667 L 26.0 108.0 L 27.0 108.0 L 28.0 108.0 L 29.0 107.66666666666667 L 30.0 107.0 L 31.0 106.33333333333333 L 32.0 105.66666666666667 L 32.5 105.5 Z" stroke="none" fill="rgb(90,152,34)" />
</svg>
