<?xml version="1.0" encoding="UTF-8" standalone="no"?>
<!DOCTYPE svg PUBLIC "-//W3C//DTD SVG 1.1//EN"
"http://www.w3.org/Graphics/SVG/1.1/DTD/svg11.dtd">
<svg width="128" height="128" xmlns="http://www.w3.org/2000/svg" version="1.1">
<path d="M 50.5 128.0 L 51.0 128.0 L 52.0 128.0 L 53.0 128.0 L 54.0 128.0 L 55.0 128.0 L 56.0 128.0 L 57.0 128.0 L 58.0 128.0 L 59.0 128.0 L 60.0 128.0 L 61.0 128.0 L 62.0 128.0 L 63.0 128.0 L 64.0 128.0 L 65.0 128.0 L 66.0 128.0 L 67.0 128.0 L 68.0 128.0 L 69.0 128.0 L 70.0 128.0 L 71.0 128.0 L 72.0 128.0 L 73.0 128.0 L 74.0 128.0 L 75.0 128.0 L 76.0 128.0 L 77.0 128.0 L 78.0 128.0 L 79.0 128.0 L 80.0 128.0 L 81.0 128.0 L 82.0 128.0 L 83.0 128.0 L 84.0 128.0 L 85.0 128.0 L 86.0 128.0 L 87.0 128.0 L 88.0 128.0 L 89.0 128.0 L 90.0 128.0 L 91.0 128.0 L 92.0 128.0 L 93.0 128.0 L 94.0 128.0 L 95.0 128.0 L 96.0 128.0 L 97.0 128.0 L 98.0 128.0 L 99.0 128.0 L 100.0 128.0 L 101.0 128.0 L 102.0 128.0 L 103.0 128.0 L 104.0 128.0 L 105.0 128.0 L 106.0 128.0 L 107.0 128.0 L 108.0 128.0 L 109.0 128.0 L 110.0 128.0 L 111.0 128.0 L 112.0 128.0 L 113.0 128.0 L 114.0 128.0 L 115.0 128.0 L 116.0 128.0 L 117.0 128.0 L 118.0 128.0 L 119.0 128.0 L 120.0 128.0 L 121.0 128.0 L 122.0 128.0 L 123.0 128.0 L 124.0 128.0 L 125.0 128.0 L 126.0 128.0 L 127.0 128.0 L 127.66666666666667 127.66666666666667 L 128.0 127.0 L 128.0 126.0 L 128.0 125.0 L 128.0 124.0 L 128.0 123.0 L 128.0 122.0 L 128.0 121.0 L 128.0 120.0 L 128.0 119.0 L 128.0 118.0 L 128.0 117.0 L 128.0 116.0 L 128.0 115.0 L 128.0 114.0 L 128.0 113.0 L 128.0 112.0 L 128.0 111.0 L 128.0 110.0 L 128.0 109.0 L 128.0 108.0 L 128.0 107.0 L 128.0 106.0 L 128.0 105.0 L 128.0 104.0 L 128.0 103.0 L 128.0 102.0 L 128.0 101.0 L 128.0 100.0 L 128.0 99.0 L 128.0 98.0 L 128.0 97.0 L 128.0 96.0 L 128.0 95.0 L 128.0 94.0 L 128.0 93.0 L 128.0 92.0 L 128.0 91.0 L 128.0 90.0 L 128.0 89.0 L 128.0 88.0 L 128.0 87.0 L 128.0 86.0 L 128.0 85.0 L 128.0 84.0 L 128.0 83.0 L 128.0 82.0 L 128.0 81.0 L 128.0 80.0 L 128.0 79.0 L 128.0 78.0 L 128.0 77.0 L 128.0 76.0 L 128.0 75.0 L 128.0 74.0 L 128.0 73.0 L 128.0 72.0 L 128.0 71.0 L 128.0 70.0 L 128.0 69.0 L 128.0 68.0 L 128.0 67.0 L 128.0 66.0 L 128.0 65.0 L 128.0 64.0 L 128.0 63.0 L 128.0 62.0 L 128.0 61.0 L 128.0 60.0 L 128.0 59.0 L 128.0 58.0 L 128.0 57.0 L 128.0 56.0 L 128.0 55.0 L 128.0 54.0 L 128.0 53.0 L 128.0 52.0 L 128.0 51.0 L 128.0 50.0 L 128.0 49.0 L 128.0 48.0 L 128.0 47.0 L 128.0 46.0 L 128.0 45.0 L 128.0 44.0 L 128.0 43.0 L 128.0 42.0 L 128.0 41.0 L 128.0 40.0 L 128.0 39.0 L 128.0 38.0 L 128.0 37.0 L 128.0 36.0 L 128.0 35.0 L 128.0 34.0 L 128.0 33.0 L 128.0 32.0 L 128.0 31.0 L 128.0 30.0 L 128.0 29.0 L 128.0 28.0 L 128.0 27.0 L 128.0 26.0 L 128.0 25.0 L 128.0 24.0 L 128.0 23.0 L 128.0 22.0 L 128.0 21.0 L 128.0 20.0 L 128.0 19.0 L 128.0 18.0 L 128.0 17.0 L 128.0 16.0 L 128.0 15.0 L 128.0 14.0 L 128.0 13.0 L 128.0 12.0 L 128.0 11.0 L 128.0 10.0 L 128.0 9.0 L 128.0 8.0 L 128.0 7.0 L 128.0 6.0 L 128.0 5.0 L 128.0 4.0 L 128.0 3.0 L 128.0 2.0 L 128.0 1.0 L 127.66666666666667 0.3333333333333333 L 127.0 0.0 L 126.0 0.0 L 125.0 0.0 L 124.0 0.0 L 123.0 0.0 L 122.0 0.0 L 121.0 0.0 L 120.0 0.0 L 119.0 0.0 L 118.0 0.0 L 117.0 0.0 L 116.0 0.0 L 115.0 0.0 L 114.0 0.0 L 113.0 0.0 L 112.0 0.0 L 111.0 0.0 L 110.0 0.0 L 109.0 0.0 L 108.0 0.0 L 107.0 0.0 L 106.0 0.0 L 105.0 0.0 L 104.0 0.0 L 103.0 0.0 L 102.0 0.0 L 101.0 0.0 L 100.0 0.0 L 99.0 0.0 L 98.0 0.0 L 97.0 0.0 L 96.0 0.0 L 95.0 0.0 L 94.0 0.0 L 93.0 0.0 L 92.0 0.0 L 91.0 0.0 L 90.0 0.0 L 89.0 0.0 L 88.0 0.0 L 87.0 0.0 L 86.0 0.0 L 85.0 0.0 L 84.0 0.0 L 83.0 0.0 L 82.0 0.0 L 81.0 0.0 L 80.0 0.0 L 79.0 0.0 L 78.0 0.0 L 77.0 0.0 L 76.0 0.0 L 75.0 0.0 L 74.0 0.0 L 73.0 0.0 L 72.0 0.0 L 71.0 0.0 L 70.0 0.0 L 69.0 0.0 L 68.0 0.0 L 67.0 0.0 L 66.0 0.0 L 65.0 0.0 L 64.0 0.0 L 63.0 0.0 L 62.0 0.0 L 61.0 0.0 L 60.0 0.0 L 59.0 0.0 L 58.0 0.0 L 57.0 0.0 L 56.0 0.0 L 55.0 0.0 L 54.0 0.0 L 53.0 0.0 L 52.0 0.0 L 51.0 0.0 L 50.0 0.0 L 49.0 0.0 L 48.0 0.0 L 47.0 0.0 L 46.0 0.0 L 45.0 0.0 L 44.0 0.0 L 43.0 0.0 L 42.0 0.0 L 41.0 0.0 L 40.0 0.0 L 39.0 0.0 L 38.0 0.0 L 37.0 0.0 L 36.0 0.0 L 35.0 0.0 L 34.0 0.0 L 33.0 0.0 L 32.0 0.0 L 31.0 0.0 L 30.0 0.0 L 29.0 0.0 L 28.0 0.0 L 27.0 0.0 L 26.0 0.0 L 25.0 0.0 L 24.0 0.0 L 23.0 0.0 L 22.0 0.0 L 21.0 0.0 L 20.0 0.0 L 19.0 0.0 L 18.0 0.0 L 17.0 0.0 L 16.0 0.0 L 15.0 0.0 L 14.0 0.0 L 13.0 0.0 L 12.0 0.0 L 11.0 0.0 L 10.0 0.0 L 9.0 0.0 L 8.0 0.0 L 7.0 0.0 L 6.0 0.0 L 5.0 0.0 L 4.0 0.0 L 3.0 0.0 L 2.0 0.0 L 1.0 0.0 L 0.3333333333333333 0.3333333333333333 L 0.0 1.0 L 0.0 2.0 L 0.0 3.0 L 0.0 4.0 L 0.0 5.0 L 0.0 6.0 L 0.0 7.0 L 0.0 8.0 L 0.0 9.0 L 0.0 10.0 L 0.0 11.0 L 0.0 12.0 L 0.0 13.0 L 0.0 14.0 L 0.0 15.0 L 0.0 16.0 L 0.0 17.0 L 0.0 18.0 L 0.0 19.0 L 0.0 20.0 L 0.0 21.0 L 0.0 22.0 L 0.0 23.0 L 0.0 24.0 L 0.0 25.0 L 0.0 26.0 L 0.0 27.0 L 0.0 28.0 L 0.0 29.0 L 0.0 30.0 L 0.0 31.0 L 0.0 32.0 L 0.0 33.0 L 0.0 34.0 L 0.0 35.0 L 0.0 36.0 L 0.0 37.0 L 0.0 38.0 L 0.0 39.0 L 0.0 40.0 L 0.0 41.0 L 0.0 42.0 L 0.0 43.0 L 0.0 44.0 L 0.0 45.0 L 0.0 46.0 L 0.0 47.0 L 0.0 48.0 L 0.0 49.0 L 0.0 50.0 L 0.0 51.0 L 0.0 52.0 L 0.0 53.0 L 0.0 54.0 L 0.0 55.0 L 0.0 56.0 L 0.0 57.0 L 0.0 58.0 L 0.0 59.0 L 0.0 60.0 L 0.0 61.0 L 0.0 62.0 L 0.0 63.0 L 0.0 64.0 L 0.0 65.0 L 0.0 66.0 L 0.0 67.0 L 0.0 68.0 L 0.0 69.0 L 0.0 70.0 L 0.0 71.0 L 0.0 72.0 L 0.0 73.0 L 0.0 74.0 L 0.0 75.0 L 0.0 76.0 L 0.0 77.0 L 0.0 78.0 L 0.0 79.0 L 0.0 80.0 L 0.0 81.0 L 0.0 82.0 L 0.0 83.0 L 0.0 84.0 L 0.0 85.0 L 0.0 86.0 L 0.0 87.0 L 0.0 88.0 L 0.0 89.0 L 0.0 90.0 L 0.0 91.0 L 0.0 92.0 L 0.0 93.0 L 0.0 94.0 L 0.0 95.0 L 0.0 96.0 L 0.0 97.0 L 0.0 98.0 L 0.0 99.0 L 0.0 100.0 L 0.0 101.0 L 0.0 102.0 L 0.0 103.0 L 0.0 104.0 L 0.0 105.0 L 0.0 106.0 L 0.0 107.0 L 0.0 108.0 L 0.0 109.0 L 0.0 110.0 L 0.0 111.0 L 0.0 112.0 L 0.0 113.0 L 0.0 114.0 L 0.0 115.0 L 0.0 116.0 L 0.0 117.0 L 0.0 118.0 L 0.0 119.0 L 0.0 120.0 L 0.0 121.0 L 0.0 122.0 L 0.0 123.0 L 0.0 124.0 L 0.0 125.0 L 0.0 126.0 L 0.0 127.0 L 0.3333333333333333 127.66666666666667 L 1.0 128.0 L 2.0 128.0 L 3.0 128.0 L 4.0 128.0 L 5.0 128.0 L 6.0 128.0 L 7.0 128.0 L 8.0 128.0 L 9.0 128.0 L 10.0 128.0 L 11.0 128.0 L 12.0 128.0 L 13.0 128.0 L 14.0 128.0 L 15.0 128.0 L 16.0 128.0 L 17.0 128.0 L 18.0 128.0 L 19.0 128.0 L 20.0 128.0 L 21.0 128.0 L 22.0 128.0 L 23.0 128.0 L 24.0 128.0 L 25.0 128.0 L 26.0 128.0 L 27.0 128.0 L 28.0 128.0 L 29.0 128.0 L 30.0 128.0 L 31.0 128.0 L 32.0 128.0 L 33.0 128.0 L 34.0 128.0 L 35.0 128.0 L 36.0 128.0 L 37.0 128.0 L 38.0 128.0 L 39.0 128.0 L 40.0 128.0 L 41.0 128.0 L 42.0 128.0 L 43.0 128.0 L 44.0 128.0 L 45.0 128.0 L 46.0 128.0 L 47.0 128.0 L 48.0 128.0 L 49.0 128.0 L 49.5 128.0 Z" stroke="none" fill="rgb(0,0,0)" />
<path d="M 78.5 93.0 L 79.0 93.33333333333333 L 80.0 93.66666666666667 L 81.0 94.0 L 82.0 94.0 L 83.0 94.0 L 84.0 94.0 L 85.0 94.0 L 86.0 94.33333333333333 L 87.0 94.66666666666667 L 88.0 95.0 L 89.0 95.0 L 90.0 95.0 L 91.0 95.0 L 92.0 95.0 L 93.0 95.0 L 94.0 95.33333333333333 L 95.0 95.66666666666667 L 96.0 96.0 L 97.0 96.0 L 98.0 96.0 L 99.0 96.0 L 100.0 96.0 L 100.66666666666667 95.66666666666667 L 101.0 95.0 L 101.33333333333333 94.0 L 101.66666666666667 93.0 L 102.0 92.0 L 102.0 91.0 L 102.0 90.0 L 102.0 89.0 L 102.33333333333333 88.0 L 102.66666666666667 87.0 L 102.66666666666667 86.0 L 102.0 85.33333333333333 L 101.0 85.0 L 100.0 85.0 L 99.0 85.0 L 98.0 84.66666666666667 L 97.0 84.33333333333333 L 96.0 84.0 L 95.0 84.0 L 94.0 83.66666666666667 L 93.0 83.33333333333333 L 92.0 83.0 L 91.0 83.0 L 90.0 83.0 L 89.0 82.66666666666667 L 88.0 82.33333333333333 L 87.0 81.66666666666667 L 86.0 81.0 L 85.33333333333333 80.0 L 84.66666666666667 79.0 L 84.0 78.0 L 83.33333333333333 77.0 L 82.66666666666667 76.0 L 82.0 75.0 L 81.0 74.33333333333333 L 80.0 74.0 L 79.0 74.0 L 78.0 74.33333333333333 L 77.0 75.0 L 76.0 75.66666666666667 L 75.0 76.33333333333333 L 74.0 77.0 L 73.0 78.0 L 72.0 78.66666666666667 L 71.0 79.33333333333333 L 70.0 80.0 L 69.33333333333333 81.0 L 69.33333333333333 82.0 L 70.0 83.0 L 71.0 84.0 L 72.0 85.0 L 72.66666666666667 86.0 L 73.33333333333333 87.0 L 74.0 88.0 L 75.0 89.0 L 76.0 90.0 L 76.66666666666667 91.0 L 77.33333333333333 92.0 L 77.5 92.5 Z" stroke="none" fill="rgb(74,47,39)" />
<path d="M 47.5 35.5 L 48.0 36.0 L 49.0 36.666666666666664 L 50.0 37.0 L 51.0 36.666666666666664 L 52.0 36.0 L 53.0 35.333333333333336 L 54.0 34.666666666666664 L 55.0 34.666666666666664 L 56.0 34.666666666666664 L 57.0 34.666666666666664 L 58.0 34.0 L 58.666666666666664 33.0 L 59.0 32.0 L 59.0 31.0 L 59.0 30.0 L 59.0 29.0 L 58.666666666666664 28.333333333333332 L 58.0 27.666666666666668 L 57.0 27.0 L 56.0 26.0 L 55.0 25.0 L 54.666666666666664 24.0 L 55.0 23.0 L 55.666666666666664 22.0 L 55.666666666666664 21.0 L 55.0 20.333333333333332 L 54.0 20.0 L 53.0 20.333333333333332 L 52.0 20.333333333333332 L 51.0 20.0 L 50.0 19.0 L 49.0 18.0 L 48.333333333333336 17.0 L 47.666666666666664 16.0 L 47.0 15.333333333333334 L 46.0 15.0 L 45.0 15.0 L 44.0 15.0 L 43.0 15.0 L 42.0 15.0 L 41.0 15.333333333333334 L 40.0 16.0 L 39.0 17.0 L 38.333333333333336 18.0 L 38.0 19.0 L 38.0 20.0 L 38.0 21.0 L 38.0 22.0 L 37.666666666666664 23.0 L 37.333333333333336 24.0 L 36.666666666666664 25.0 L 36.333333333333336 26.0 L 36.333333333333336 27.0 L 37.0 28.0 L 38.0 29.0 L 39.0 30.0 L 39.666666666666664 31.0 L 40.0 32.0 L 40.333333333333336 33.0 L 41.0 33.666666666666664 L 42.0 34.333333333333336 L 43.0 34.666666666666664 L 44.0 35.0 L 45.0 35.0 L 46.0 35.0 L 46.5 35.0 Z" stroke="none" fill="rgb(111,82,73)" />
<path d="M 61.5 80.5 L 62.0 81.0 L 63.0 81.66666666666667 L 64.0 82.0 L 65.0 82.0 L 66.0 81.66666666666667 L 66.66666666666667 81.0 L 67.0 80.0 L 67.33333333333333 79.0 L 67.66666666666667 78.0 L 68.33333333333333 77.0 L 69.0 76.0 L 69.66666666666667 75.0 L 70.33333333333333 74.0 L 71.0 73.0 L 71.66666666666667 72.0 L 72.33333333333333 71.0 L 73.0 70.0 L 73.66666666666667 69.0 L 74.0 68.0 L 74.0 67.0 L 74.0 66.0 L 74.0 65.0 L 73.66666666666667 64.33333333333333 L 73.0 64.0 L 72.0 64.33333333333333 L 71.0 64.66666666666667 L 70.0 65.0 L 69.0 65.0 L 68.0 65.0 L 67.0 65.0 L 66.0 65.0 L 65.0 65.33333333333333 L 64.0 66.0 L 63.0 66.66666666666667 L 62.0 67.0 L 61.0 67.0 L 60.0 67.33333333333333 L 59.0 67.66666666666667 L 58.0 68.0 L 57.0 68.0 L 56.0 68.0 L 55.0 68.0 L 54.0 68.33333333333333 L 53.333333333333336 69.0 L 52.666666666666664 70.0 L 52.333333333333336 71.0 L 52.0 72.0 L 52.0 73.0 L 52.333333333333336 74.0 L 53.0 74.66666666666667 L 54.0 75.33333333333333 L 55.0 76.0 L 56.0 76.66666666666667 L 57.0 77.33333333333333 L 58.0 78.0 L 59.0 78.66666666666667 L 60.0 79.33333333333333 L 60.5 79.5 Z" stroke="none" fill="rgb(124,124,124)" />
<path d="M 72.0 42.5 L 72.0 42.0 L 72.0 41.0 L 72.33333333333333 40.0 L 72.66666666666667 39.0 L 73.0 38.0 L 73.0 37.0 L 73.0 36.0 L 72.66666666666667 35.333333333333336 L 72.0 35.0 L 71.0 35.0 L 70.0 34.666666666666664 L 69.0 34.333333333333336 L 68.0 34.0 L 67.0 33.666666666666664 L 66.0 33.333333333333336 L 65.0 33.0 L 64.0 33.0 L 63.0 32.666666666666664 L 62.0 32.333333333333336 L 61.0 32.0 L 60.0 32.0 L 59.0 32.333333333333336 L 58.0 33.0 L 57.0 34.0 L 56.333333333333336 35.0 L 56.0 36.0 L 55.666666666666664 37.0 L 55.333333333333336 38.0 L 55.0 39.0 L 55.0 40.0 L 55.333333333333336 41.0 L 55.666666666666664 42.0 L 56.333333333333336 43.0 L 57.0 44.0 L 58.0 44.666666666666664 L 59.0 45.0 L 60.0 45.0 L 61.0 45.333333333333336 L 62.0 45.666666666666664 L 63.0 46.333333333333336 L 64.0 46.666666666666664 L 65.0 47.0 L 66.0 47.0 L 67.0 47.0 L 68.0 47.333333333333336 L 69.0 47.666666666666664 L 70.0 48.0 L 70.66666666666667 47.666666666666664 L 71.0 47.0 L 71.0 46.0 L 71.0 45.0 L 71.33333333333333 44.0 L 71.5 43.5 Z" stroke="none" fill="rgb(67,1,217)" />
<path d="M 54.5 68.0 L 55.0 68.0 L 56.0 68.0 L 56.666666666666664 67.66666666666667 L 57.0 67.0 L 57.0 66.0 L 57.0 65.0 L 57.0 64.0 L 57.0 63.0 L 57.0 62.0 L 57.0 61.0 L 57.0 60.0 L 57.0 59.0 L 57.0 58.0 L 57.0 57.0 L 57.0 56.0 L 57.0 55.0 L 57.0 54.0 L 57.0 53.0 L 57.0 52.0 L 57.0 51.0 L 57.0 50.0 L 57.0 49.0 L 57.0 48.0 L 57.0 47.0 L 57.333333333333336 46.0 L 57.666666666666664 45.0 L 57.666666666666664 44.0 L 57.0 43.0 L 56.333333333333336 42.0 L 55.666666666666664 41.0 L 55.333333333333336 40.0 L 55.333333333333336 39.0 L 55.666666666666664 38.0 L 56.0 37.0 L 56.0 36.0 L 56.0 35.0 L 55.666666666666664 34.333333333333336 L 55.0 34.0 L 54.0 34.333333333333336 L 53.0 34.666666666666664 L 52.0 35.333333333333336 L 51.0 36.0 L 50.333333333333336 37.0 L 49.666666666666664 38.0 L 49.333333333333336 39.0 L 49.0 40.0 L 49.0 41.0 L 49.0 42.0 L 49.0 43.0 L 49.0 44.0 L 49.0 45.0 L 49.333333333333336 46.0 L 49.666666666666664 47.0 L 50.0 48.0 L 50.333333333333336 49.0 L 50.666666666666664 50.0 L 51.0 51.0 L 51.0 52.0 L 51.0 53.0 L 51.333333333333336 54.0 L 51.333333333333336 55.0 L 51.333333333333336 56.0 L 51.333333333333336 57.0 L 51.666666666666664 58.0 L 52.0 59.0 L 52.333333333333336 60.0 L 52.666666666666664 61.0 L 53.0 62.0 L 53.0 63.0 L 53.0 64.0 L 53.0 65.0 L 53.0 66.0 L 53.333333333333336 67.0 L 53.5 67.5 Z" stroke="none" fill="rgb(98,28,251)" />
<path d="M 61.5 67.0 L 62.0 67.0 L 63.0 67.0 L 64.0 66.66666666666667 L 64.66666666666667 66.0 L 65.0 65.0 L 65.0 64.0 L 65.0 63.0 L 65.0 62.0 L 65.0 61.0 L 65.0 60.0 L 65.0 59.0 L 65.0 58.0 L 65.0 57.0 L 65.0 56.0 L 65.0 55.0 L 65.0 54.0 L 65.0 53.0 L 65.0 52.0 L 65.0 51.0 L 65.0 50.0 L 65.0 49.0 L 65.0 48.0 L 64.66666666666667 47.0 L 64.0 46.333333333333336 L 63.0 45.666666666666664 L 62.0 45.333333333333336 L 61.0 45.0 L 60.0 45.0 L 59.0 45.0 L 58.0 45.0 L 57.333333333333336 45.333333333333336 L 57.0 46.0 L 57.0 47.0 L 57.0 48.0 L 57.0 49.0 L 57.0 50.0 L 57.0 51.0 L 57.0 52.0 L 57.0 53.0 L 57.0 54.0 L 57.0 55.0 L 57.0 56.0 L 57.0 57.0 L 57.0 58.0 L 57.0 59.0 L 57.0 60.0 L 57.0 61.0 L 57.0 62.0 L 57.0 63.0 L 57.0 64.0 L 57.0 65.0 L 57.0 66.0 L 57.0 67.0 L 57.333333333333336 67.66666666666667 L 58.0 68.0 L 59.0 68.0 L 60.0 67.66666666666667 L 60.5 67.5 Z" stroke="none" fill="rgb(93,24,247)" />
<path d="M 44.5 9.5 L 45.0 9.0 L 46.0 8.333333333333334 L 47.0 7.666666666666667 L 48.0 7.666666666666667 L 49.0 7.666666666666667 L 50.0 8.0 L 51.0 8.0 L 52.0 7.666666666666667 L 53.0 7.666666666666667 L 54.0 7.666666666666667 L 55.0 8.333333333333334 L 56.0 9.0 L 57.0 10.0 L 57.666666666666664 11.0 L 58.333333333333336 12.0 L 58.666666666666664 13.0 L 59.333333333333336 14.0 L 60.0 14.666666666666666 L 60.666666666666664 14.666666666666666 L 61.0 14.0 L 61.0 13.0 L 60.666666666666664 12.0 L 60.333333333333336 11.0 L 59.666666666666664 10.0 L 59.0 9.0 L 58.0 8.0 L 57.0 7.333333333333333 L 56.0 6.666666666666667 L 55.0 6.333333333333333 L 54.0 6.0 L 53.0 5.666666666666667 L 52.0 5.333333333333333 L 51.0 5.0 L 50.0 5.0 L 49.0 5.0 L 48.0 5.333333333333333 L 47.0 5.666666666666667 L 46.0 6.0 L 45.0 6.333333333333333 L 44.0 7.0 L 43.0 7.666666666666667 L 42.0 8.333333333333334 L 41.333333333333336 9.0 L 40.666666666666664 10.0 L 40.333333333333336 11.0 L 39.666666666666664 12.0 L 39.333333333333336 13.0 L 39.0 14.0 L 39.333333333333336 15.0 L 40.0 15.666666666666666 L 40.666666666666664 15.666666666666666 L 41.0 15.0 L 41.0 14.0 L 41.333333333333336 13.0 L 42.0 12.0 L 43.0 11.0 L 43.5 10.5 Z" stroke="none" fill="rgb(57,53,52)" />
<path d="M 109.5 104.5 L 110.0 104.66666666666667 L 111.0 105.33333333333333 L 112.0 105.66666666666667 L 113.0 106.0 L 114.0 105.66666666666667 L 114.66666666666667 105.0 L 115.0 104.0 L 115.0 103.0 L 115.33333333333333 102.0 L 115.66666666666667 101.0 L 116.0 100.0 L 116.0 99.0 L 116.0 98.0 L 116.33333333333333 97.0 L 116.66666666666667 96.0 L 117.0 95.0 L 117.0 94.0 L 117.0 93.0 L 117.0 92.0 L 117.33333333333333 91.0 L 117.66666666666667 90.0 L 118.0 89.0 L 118.0 88.0 L 117.66666666666667 87.33333333333333 L 117.0 87.0 L 116.0 87.0 L 115.0 86.66666666666667 L 114.0 86.33333333333333 L 113.0 86.0 L 112.0 86.0 L 111.0 86.33333333333333 L 110.0 87.0 L 109.33333333333333 88.0 L 109.0 89.0 L 109.0 90.0 L 109.0 91.0 L 108.66666666666667 92.0 L 108.33333333333333 93.0 L 108.0 94.0 L 107.66666666666667 95.0 L 107.33333333333333 96.0 L 107.0 97.0 L 107.33333333333333 98.0 L 107.66666666666667 99.0 L 108.0 100.0 L 108.0 101.0 L 108.0 102.0 L 108.33333333333333 103.0 L 108.5 103.5 Z" stroke="none" fill="rgb(50,85,153)" />
<path d="M 87.5 64.5 L 88.0 64.66666666666667 L 88.66666666666667 64.66666666666667 L 89.0 64.0 L 89.0 63.0 L 89.0 62.0 L 89.0 61.0 L 89.0 60.0 L 89.0 59.0 L 89.0 58.0 L 89.0 57.0 L 89.0 56.0 L 89.0 55.0 L 89.0 54.0 L 89.33333333333333 53.0 L 89.66666666666667 52.0 L 90.0 51.0 L 89.66666666666667 50.0 L 89.0 49.0 L 88.0 48.0 L 87.33333333333333 47.0 L 86.66666666666667 46.0 L 86.0 45.0 L 85.0 44.0 L 84.0 43.0 L 83.33333333333333 42.0 L 82.66666666666667 41.0 L 82.0 40.333333333333336 L 81.0 40.0 L 80.33333333333333 40.333333333333336 L 80.0 41.0 L 80.0 42.0 L 80.0 43.0 L 80.0 44.0 L 80.0 45.0 L 80.0 46.0 L 80.0 47.0 L 80.0 48.0 L 80.0 49.0 L 80.0 50.0 L 80.0 51.0 L 80.0 52.0 L 80.33333333333333 53.0 L 81.0 54.0 L 82.0 55.0 L 83.0 56.0 L 83.66666666666667 57.0 L 84.0 58.0 L 84.0 59.0 L 84.0 60.0 L 84.0 61.0 L 84.0 62.0 L 84.33333333333333 63.0 L 85.0 63.666666666666664 L 86.0 64.0 L 86.5 64.0 Z" stroke="none" fill="rgb(104,76,67)" />
<path d="M 50.5 124.0 L 51.0 124.0 L 52.0 124.0 L 53.0 124.0 L 54.0 124.0 L 55.0 124.0 L 56.0 124.0 L 57.0 124.0 L 57.666666666666664 123.66666666666667 L 58.0 123.0 L 58.0 122.0 L 58.0 121.0 L 58.0 120.0 L 58.0 119.0 L 58.0 118.0 L 57.666666666666664 117.0 L 57.333333333333336 116.0 L 56.666666666666664 115.33333333333333 L 56.0 115.0 L 55.0 115.0 L 54.0 115.0 L 53.0 115.0 L 52.0 115.0 L 51.0 115.0 L 50.0 115.0 L 49.0 115.0 L 48.0 115.0 L 47.0 115.33333333333333 L 46.0 115.66666666666667 L 45.0 116.0 L 44.0 116.33333333333333 L 43.0 116.66666666666667 L 42.0 117.33333333333333 L 41.0 117.66666666666667 L 40.333333333333336 118.33333333333333 L 40.0 119.0 L 39.666666666666664 120.0 L 39.333333333333336 121.0 L 39.0 122.0 L 39.0 123.0 L 39.333333333333336 123.66666666666667 L 40.0 124.0 L 41.0 124.0 L 42.0 124.0 L 43.0 124.0 L 44.0 124.0 L 45.0 124.0 L 46.0 124.0 L 47.0 124.0 L 48.0 124.0 L 49.0 124.0 L 49.5 124.0 Z" stroke="none" fill="rgb(69,104,173)" />
<path d="M 69.5 65.0 L 70.0 65.0 L 71.0 65.0 L 72.0 64.66666666666667 L 73.0 64.33333333333333 L 74.0 64.0 L 74.66666666666667 63.666666666666664 L 75.0 63.0 L 75.0 62.0 L 75.0 61.0 L 74.66666666666667 60.0 L 74.33333333333333 59.0 L 74.0 58.0 L 73.66666666666667 57.0 L 73.33333333333333 56.0 L 73.0 55.0 L 72.66666666666667 54.0 L 72.33333333333333 53.0 L 72.0 52.0 L 71.66666666666667 51.0 L 71.33333333333333 50.0 L 71.0 49.0 L 70.66666666666667 48.333333333333336 L 70.0 47.666666666666664 L 69.0 47.333333333333336 L 68.0 47.0 L 67.0 47.0 L 66.0 47.0 L 65.33333333333333 47.333333333333336 L 65.0 48.0 L 65.0 49.0 L 65.0 50.0 L 65.0 51.0 L 65.0 52.0 L 65.0 53.0 L 65.0 54.0 L 65.0 55.0 L 65.0 56.0 L 65.0 57.0 L 65.0 58.0 L 65.0 59.0 L 65.0 60.0 L 65.0 61.0 L 65.0 62.0 L 65.0 63.0 L 65.0 64.0 L 65.33333333333333 64.66666666666667 L 66.0 65.0 L 67.0 65.0 L 68.0 65.0 L 68.5 65.0 Z" stroke="none" fill="rgb(87,18,240)" />
<path d="M 69.5 21.5 L 70.0 22.0 L 71.0 22.666666666666668 L 72.0 23.333333333333332 L 73.0 23.666666666666668 L 74.0 24.0 L 75.0 24.333333333333332 L 76.0 24.666666666666668 L 77.0 25.333333333333332 L 78.0 25.666666666666668 L 79.0 25.666666666666668 L 79.66666666666667 25.0 L 79.66666666666667 24.0 L 79.0 23.0 L 78.0 22.0 L 77.33333333333333 21.0 L 76.66666666666667 20.0 L 76.33333333333333 19.0 L 76.33333333333333 18.0 L 76.66666666666667 17.0 L 76.66666666666667 16.0 L 76.0 15.0 L 75.0 14.0 L 74.0 13.0 L 73.0 12.333333333333334 L 72.0 11.666666666666666 L 71.0 11.333333333333334 L 70.0 11.0 L 69.0 11.0 L 68.0 11.0 L 67.0 11.0 L 66.0 11.0 L 65.0 11.0 L 64.0 11.0 L 63.333333333333336 11.333333333333334 L 63.0 12.0 L 63.0 13.0 L 63.0 14.0 L 63.0 15.0 L 63.333333333333336 16.0 L 63.666666666666664 17.0 L 64.33333333333333 17.666666666666668 L 65.0 18.333333333333332 L 66.0 19.0 L 67.0 19.666666666666668 L 68.0 20.333333333333332 L 68.5 20.5 Z" stroke="none" fill="rgb(35,32,32)" />
<path d="M 56.5 92.0 L 57.0 91.66666666666667 L 57.666666666666664 91.0 L 58.333333333333336 90.0 L 59.0 89.0 L 59.666666666666664 88.0 L 60.333333333333336 87.0 L 60.666666666666664 86.0 L 61.0 85.0 L 60.666666666666664 84.33333333333333 L 60.0 84.0 L 59.0 84.0 L 58.0 84.0 L 57.0 83.66666666666667 L 56.0 83.33333333333333 L 55.0 83.0 L 54.0 83.0 L 53.0 83.0 L 52.0 83.0 L 51.0 82.66666666666667 L 50.0 82.33333333333333 L 49.0 82.0 L 48.0 82.0 L 47.333333333333336 82.33333333333333 L 46.666666666666664 83.0 L 46.333333333333336 84.0 L 46.0 85.0 L 45.666666666666664 86.0 L 45.333333333333336 87.0 L 45.0 88.0 L 45.0 89.0 L 45.333333333333336 90.0 L 46.0 90.66666666666667 L 47.0 91.0 L 48.0 91.0 L 49.0 91.0 L 50.0 91.0 L 51.0 91.33333333333333 L 52.0 91.66666666666667 L 53.0 92.0 L 54.0 92.0 L 55.0 92.0 L 55.5 92.0 Z" stroke="none" fill="rgb(99,71,62)" />
<path d="M 72.5 79.0 L 73.0 78.66666666666667 L 74.0 78.0 L 75.0 77.0 L 76.0 76.33333333333333 L 77.0 75.66666666666667 L 78.0 75.0 L 79.0 74.33333333333333 L 80.0 74.0 L 80.66666666666667 73.66666666666667 L 81.0 73.0 L 81.0 72.0 L 80.66666666666667 71.0 L 80.33333333333333 70.0 L 79.66666666666667 69.0 L 79.0 68.0 L 78.0 67.0 L 77.33333333333333 66.0 L 76.66666666666667 65.0 L 76.0 64.33333333333333 L 75.0 64.0 L 74.33333333333333 64.33333333333333 L 74.0 65.0 L 74.0 66.0 L 74.0 67.0 L 73.66666666666667 68.0 L 73.0 69.0 L 72.33333333333333 70.0 L 71.66666666666667 71.0 L 71.0 72.0 L 70.33333333333333 73.0 L 69.66666666666667 74.0 L 69.0 75.0 L 68.33333333333333 76.0 L 67.66666666666667 77.0 L 67.33333333333333 78.0 L 67.0 79.0 L 67.0 80.0 L 67.33333333333333 81.0 L 68.0 81.66666666666667 L 69.0 81.66666666666667 L 70.0 81.0 L 71.0 80.0 L 71.5 79.5 Z" stroke="none" fill="rgb(101,100,100)" />
<path d="M 55.5 21.0 L 56.0 21.0 L 56.666666666666664 20.666666666666668 L 57.0 20.0 L 57.0 19.0 L 57.0 18.0 L 57.0 17.0 L 57.0 16.0 L 57.0 15.0 L 57.0 14.0 L 56.666666666666664 13.0 L 56.0 12.0 L 55.0 11.0 L 54.0 10.333333333333334 L 53.0 10.0 L 52.0 9.666666666666666 L 51.0 9.333333333333334 L 50.0 9.0 L 49.0 9.0 L 48.0 9.333333333333334 L 47.0 9.666666666666666 L 46.0 10.333333333333334 L 45.0 11.0 L 44.0 12.0 L 43.333333333333336 13.0 L 43.0 14.0 L 43.333333333333336 14.666666666666666 L 44.0 15.0 L 45.0 15.0 L 46.0 15.333333333333334 L 47.0 16.0 L 47.666666666666664 17.0 L 48.333333333333336 18.0 L 49.0 19.0 L 50.0 20.0 L 51.0 20.666666666666668 L 52.0 21.0 L 53.0 20.666666666666668 L 54.0 20.666666666666668 L 54.5 20.5 Z" stroke="none" fill="rgb(35,32,32)" />
<path d="M 60.0 27.5 L 60.333333333333336 27.0 L 60.666666666666664 26.0 L 61.333333333333336 25.0 L 61.666666666666664 24.0 L 62.333333333333336 23.0 L 63.0 22.0 L 64.0 21.333333333333332 L 64.66666666666667 20.666666666666668 L 64.66666666666667 20.0 L 64.33333333333333 19.0 L 64.0 18.0 L 64.0 17.0 L 63.666666666666664 16.0 L 63.333333333333336 15.0 L 63.0 14.0 L 63.0 13.0 L 63.0 12.0 L 62.666666666666664 11.0 L 62.0 10.0 L 61.0 9.0 L 60.333333333333336 8.0 L 60.333333333333336 7.0 L 61.0 6.333333333333333 L 62.0 6.0 L 63.0 5.666666666666667 L 63.666666666666664 5.0 L 63.666666666666664 4.333333333333333 L 63.0 4.0 L 62.0 4.0 L 61.0 4.333333333333333 L 60.0 4.666666666666667 L 59.0 5.333333333333333 L 58.0 5.333333333333333 L 57.0 5.333333333333333 L 56.0 5.0 L 55.0 4.666666666666667 L 54.0 4.333333333333333 L 53.0 4.0 L 52.333333333333336 4.333333333333333 L 52.0 5.0 L 52.333333333333336 5.666666666666667 L 53.0 6.0 L 54.0 6.333333333333333 L 55.0 6.666666666666667 L 56.0 7.333333333333333 L 57.0 8.0 L 58.0 9.0 L 59.0 10.0 L 59.666666666666664 11.0 L 60.333333333333336 12.0 L 60.666666666666664 13.0 L 61.0 14.0 L 61.0 15.0 L 61.0 16.0 L 61.0 17.0 L 61.0 18.0 L 61.0 19.0 L 60.666666666666664 20.0 L 60.333333333333336 21.0 L 59.666666666666664 22.0 L 59.0 23.0 L 58.0 24.0 L 57.0 25.0 L 56.333333333333336 26.0 L 56.333333333333336 27.0 L 57.0 27.666666666666668 L 58.0 28.0 L 59.0 28.0 L 59.5 28.0 Z" stroke="none" fill="rgb(66,62,61)" />
<path d="M 47.5 100.0 L 48.0 100.0 L 49.0 100.0 L 50.0 100.33333333333333 L 51.0 100.66666666666667 L 52.0 101.0 L 53.0 101.0 L 54.0 101.0 L 55.0 101.0 L 56.0 101.0 L 56.666666666666664 100.66666666666667 L 57.0 100.0 L 57.0 99.0 L 57.0 98.0 L 57.0 97.0 L 57.0 96.0 L 57.0 95.0 L 57.0 94.0 L 57.0 93.0 L 56.666666666666664 92.33333333333333 L 56.0 92.0 L 55.0 92.0 L 54.0 92.0 L 53.0 91.66666666666667 L 52.0 91.33333333333333 L 51.0 91.0 L 50.0 91.0 L 49.0 91.0 L 48.0 91.0 L 47.0 91.0 L 46.0 91.0 L 45.333333333333336 91.33333333333333 L 45.0 92.0 L 45.0 93.0 L 45.0 94.0 L 45.0 95.0 L 45.0 96.0 L 45.0 97.0 L 45.333333333333336 98.0 L 45.666666666666664 99.0 L 46.333333333333336 99.66666666666667 L 46.5 100.0 Z" stroke="none" fill="rgb(104,76,67)" />
<path d="M 94.0 66.5 L 94.33333333333333 66.0 L 95.0 65.33333333333333 L 96.0 64.66666666666667 L 96.66666666666667 64.0 L 97.0 63.0 L 97.0 62.0 L 97.0 61.0 L 97.0 60.0 L 97.0 59.0 L 96.66666666666667 58.0 L 96.0 57.0 L 95.33333333333333 56.0 L 94.66666666666667 55.0 L 94.0 54.0 L 93.0 53.0 L 92.0 52.0 L 91.0 51.333333333333336 L 90.0 51.333333333333336 L 89.33333333333333 52.0 L 89.0 53.0 L 89.0 54.0 L 89.0 55.0 L 89.0 56.0 L 89.0 57.0 L 89.0 58.0 L 89.0 59.0 L 89.0 60.0 L 89.0 61.0 L 89.0 62.0 L 89.0 63.0 L 89.0 64.0 L 89.0 65.0 L 89.0 66.0 L 89.33333333333333 66.66666666666667 L 90.0 67.0 L 91.0 67.0 L 92.0 67.0 L 93.0 67.0 L 93.5 67.0 Z" stroke="none" fill="rgb(111,82,73)" />
<path d="M 56.5 84.0 L 57.0 84.0 L 58.0 84.0 L 59.0 84.0 L 60.0 84.33333333333333 L 61.0 84.66666666666667 L 62.0 84.66666666666667 L 62.666666666666664 84.0 L 63.0 83.0 L 63.0 82.0 L 62.666666666666664 81.0 L 62.0 80.0 L 61.0 79.33333333333333 L 60.0 78.66666666666667 L 59.0 78.0 L 58.0 77.33333333333333 L 57.0 76.66666666666667 L 56.0 76.0 L 55.0 75.33333333333333 L 54.0 74.66666666666667 L 53.0 74.33333333333333 L 52.0 74.33333333333333 L 51.333333333333336 75.0 L 50.666666666666664 76.0 L 50.333333333333336 77.0 L 49.666666666666664 78.0 L 49.0 79.0 L 48.333333333333336 80.0 L 48.0 81.0 L 48.333333333333336 81.66666666666667 L 49.0 82.33333333333333 L 50.0 82.66666666666667 L 51.0 83.0 L 52.0 83.0 L 53.0 83.0 L 54.0 83.0 L 55.0 83.33333333333333 L 55.5 83.5 Z" stroke="none" fill="rgb(94,66,58)" />
<path d="M 72.5 47.5 L 73.0 47.666666666666664 L 74.0 48.0 L 75.0 48.333333333333336 L 76.0 49.0 L 77.0 50.0 L 78.0 51.0 L 79.0 51.666666666666664 L 79.66666666666667 51.666666666666664 L 80.0 51.0 L 80.0 50.0 L 80.0 49.0 L 80.0 48.0 L 80.0 47.0 L 80.0 46.0 L 80.0 45.0 L 80.0 44.0 L 80.0 43.0 L 80.0 42.0 L 80.0 41.0 L 80.0 40.0 L 79.66666666666667 39.333333333333336 L 79.0 39.0 L 78.0 39.0 L 77.0 38.666666666666664 L 76.0 38.333333333333336 L 75.0 38.0 L 74.0 38.0 L 73.0 38.333333333333336 L 72.33333333333333 39.0 L 72.0 40.0 L 72.0 41.0 L 71.66666666666667 42.0 L 71.33333333333333 43.0 L 71.0 44.0 L 71.0 45.0 L 71.0 46.0 L 71.33333333333333 46.666666666666664 L 71.5 47.0 Z" stroke="none" fill="rgb(99,71,62)" />
<path d="M 48.5 54.0 L 49.0 54.333333333333336 L 50.0 55.0 L 51.0 55.666666666666664 L 51.666666666666664 55.666666666666664 L 52.0 55.0 L 51.666666666666664 54.0 L 51.333333333333336 53.0 L 51.0 52.0 L 51.0 51.0 L 51.0 50.0 L 50.666666666666664 49.0 L 50.333333333333336 48.0 L 50.0 47.0 L 49.666666666666664 46.0 L 49.333333333333336 45.0 L 49.0 44.0 L 49.0 43.0 L 49.0 42.0 L 49.0 41.0 L 49.0 40.0 L 48.666666666666664 39.333333333333336 L 48.0 39.0 L 47.333333333333336 39.333333333333336 L 46.666666666666664 40.0 L 46.333333333333336 41.0 L 45.666666666666664 42.0 L 45.333333333333336 43.0 L 44.666666666666664 44.0 L 44.333333333333336 45.0 L 43.666666666666664 46.0 L 43.333333333333336 47.0 L 42.666666666666664 48.0 L 42.333333333333336 49.0 L 42.0 50.0 L 42.333333333333336 51.0 L 43.0 51.666666666666664 L 44.0 52.0 L 45.0 52.333333333333336 L 46.0 52.666666666666664 L 47.0 53.333333333333336 L 47.5 53.5 Z" stroke="none" fill="rgb(67,1,217)" />
<path d="M 31.5 68.0 L 32.0 68.0 L 33.0 68.0 L 34.0 67.66666666666667 L 34.666666666666664 67.0 L 35.0 66.0 L 35.0 65.0 L 35.0 64.0 L 35.0 63.0 L 35.0 62.0 L 35.333333333333336 61.0 L 36.0 60.666666666666664 L 37.0 61.0 L 37.666666666666664 62.0 L 38.0 63.0 L 38.333333333333336 63.666666666666664 L 39.0 64.0 L 40.0 64.0 L 41.0 64.0 L 42.0 63.666666666666664 L 42.666666666666664 63.0 L 43.0 62.0 L 42.666666666666664 61.0 L 42.0 60.0 L 41.333333333333336 59.0 L 40.666666666666664 58.0 L 40.0 57.0 L 39.0 56.333333333333336 L 38.0 56.333333333333336 L 37.0 56.666666666666664 L 36.0 57.333333333333336 L 35.0 57.666666666666664 L 34.0 58.333333333333336 L 33.0 58.666666666666664 L 32.0 59.0 L 31.333333333333332 59.333333333333336 L 31.0 60.0 L 31.0 61.0 L 31.0 62.0 L 31.0 63.0 L 31.0 64.0 L 31.0 65.0 L 31.0 66.0 L 31.0 67.0 L 31.0 67.5 Z" stroke="none" fill="rgb(104,76,67)" />
<path d="M 46.5 107.5 L 47.0 107.66666666666667 L 48.0 108.0 L 49.0 108.0 L 50.0 108.0 L 51.0 108.0 L 52.0 108.0 L 53.0 108.0 L 54.0 108.0 L 55.0 108.0 L 56.0 108.0 L 56.666666666666664 107.66666666666667 L 57.0 107.0 L 57.0 106.0 L 57.0 105.0 L 57.0 104.0 L 57.0 103.0 L 57.0 102.0 L 56.666666666666664 101.33333333333333 L 56.0 101.0 L 55.0 101.0 L 54.0 101.0 L 53.0 101.0 L 52.0 100.66666666666667 L 51.0 100.33333333333333 L 50.0 100.0 L 49.0 100.0 L 48.0 100.0 L 47.0 100.0 L 46.333333333333336 100.33333333333333 L 46.0 101.0 L 46.0 102.0 L 46.0 103.0 L 46.0 104.0 L 46.0 105.0 L 46.0 106.0 L 46.0 106.5 Z" stroke="none" fill="rgb(111,82,73)" />
<path d="M 104.5 97.0 L 105.0 97.0 L 106.0 97.0 L 107.0 96.66666666666667 L 107.66666666666667 96.0 L 108.0 95.0 L 108.33333333333333 94.0 L 108.66666666666667 93.0 L 109.0 92.0 L 109.0 91.0 L 109.0 90.0 L 109.0 89.0 L 109.0 88.0 L 108.66666666666667 87.33333333333333 L 108.0 86.66666666666667 L 107.0 86.33333333333333 L 106.0 86.0 L 105.0 86.0 L 104.0 86.0 L 103.0 86.33333333333333 L 102.33333333333333 87.0 L 102.0 88.0 L 102.0 89.0 L 102.0 90.0 L 102.0 91.0 L 101.66666666666667 92.0 L 101.33333333333333 93.0 L 101.0 94.0 L 101.0 95.0 L 101.33333333333333 95.66666666666667 L 102.0 96.33333333333333 L 103.0 96.66666666666667 L 103.5 97.0 Z" stroke="none" fill="rgb(187,188,191)" />
<path d="M 54.5 115.0 L 55.0 115.0 L 56.0 115.0 L 56.666666666666664 114.66666666666667 L 57.0 114.0 L 57.0 113.0 L 57.0 112.0 L 57.0 111.0 L 57.0 110.0 L 57.0 109.0 L 56.666666666666664 108.33333333333333 L 56.0 108.0 L 55.0 108.0 L 54.0 108.0 L 53.0 108.0 L 52.0 108.0 L 51.0 108.0 L 50.0 108.0 L 49.0 108.0 L 48.0 108.0 L 47.333333333333336 108.33333333333333 L 47.0 109.0 L 47.0 110.0 L 47.0 111.0 L 47.0 112.0 L 47.0 113.0 L 47.0 114.0 L 47.333333333333336 114.66666666666667 L 48.0 115.0 L 49.0 115.0 L 50.0 115.0 L 51.0 115.0 L 52.0 115.0 L 53.0 115.0 L 53.5 115.0 Z" stroke="none" fill="rgb(224,224,224)" />
<path d="M 21.0 79.5 L 20.666666666666668 79.0 L 20.0 78.0 L 19.666666666666668 77.0 L 20.0 76.33333333333333 L 21.0 76.0 L 22.0 76.0 L 22.666666666666668 75.66666666666667 L 23.0 75.0 L 23.0 74.0 L 23.0 73.0 L 22.666666666666668 72.0 L 22.0 71.33333333333333 L 21.0 71.0 L 20.0 71.0 L 19.0 71.33333333333333 L 18.0 71.66666666666667 L 17.0 72.33333333333333 L 16.333333333333332 73.0 L 15.666666666666666 74.0 L 15.0 74.66666666666667 L 14.0 75.0 L 13.333333333333334 75.33333333333333 L 13.0 76.0 L 13.333333333333334 77.0 L 13.666666666666666 78.0 L 14.0 79.0 L 14.333333333333334 80.0 L 15.0 80.66666666666667 L 16.0 81.0 L 17.0 81.0 L 18.0 81.0 L 19.0 80.66666666666667 L 20.0 80.33333333333333 L 20.5 80.0 Z" stroke="none" fill="rgb(253,158,26)" />
<path d="M 44.5 7.5 L 45.0 7.0 L 46.0 6.333333333333333 L 47.0 6.0 L 48.0 5.666666666666667 L 48.666666666666664 5.0 L 48.666666666666664 4.333333333333333 L 48.0 4.0 L 47.0 4.0 L 46.0 4.333333333333333 L 45.0 4.666666666666667 L 44.0 5.0 L 43.0 5.333333333333333 L 42.0 5.666666666666667 L 41.0 6.333333333333333 L 40.0 6.666666666666667 L 39.0 7.333333333333333 L 38.333333333333336 8.0 L 37.666666666666664 9.0 L 37.333333333333336 10.0 L 36.666666666666664 11.0 L 36.333333333333336 12.0 L 36.0 13.0 L 36.0 14.0 L 36.0 15.0 L 36.0 16.0 L 36.333333333333336 17.0 L 37.0 17.666666666666668 L 38.0 18.0 L 39.0 17.666666666666668 L 39.666666666666664 17.0 L 40.0 16.0 L 39.666666666666664 15.0 L 39.666666666666664 14.0 L 39.666666666666664 13.0 L 40.333333333333336 12.0 L 40.666666666666664 11.0 L 41.333333333333336 10.0 L 42.0 9.0 L 43.0 8.333333333333334 L 43.5 8.0 Z" stroke="none" fill="rgb(66,62,61)" />
<path d="M 57.5 23.5 L 57.666666666666664 23.0 L 58.333333333333336 22.0 L 58.666666666666664 21.0 L 59.333333333333336 20.0 L 60.0 19.333333333333332 L 60.666666666666664 18.666666666666668 L 61.0 18.0 L 61.0 17.0 L 61.0 16.0 L 60.666666666666664 15.0 L 60.0 14.0 L 59.333333333333336 13.0 L 58.666666666666664 12.0 L 58.333333333333336 11.0 L 57.666666666666664 10.0 L 57.0 9.0 L 56.0 8.333333333333334 L 55.0 7.666666666666667 L 54.0 7.333333333333333 L 53.0 7.0 L 52.333333333333336 7.333333333333333 L 52.0 8.0 L 52.333333333333336 8.666666666666666 L 53.0 9.0 L 54.0 9.333333333333334 L 55.0 10.0 L 56.0 11.0 L 56.666666666666664 12.0 L 57.0 13.0 L 57.0 14.0 L 57.0 15.0 L 57.0 16.0 L 57.0 17.0 L 57.0 18.0 L 57.0 19.0 L 56.666666666666664 20.0 L 56.0 21.0 L 55.0 22.0 L 54.333333333333336 23.0 L 54.0 24.0 L 54.333333333333336 24.666666666666668 L 55.0 25.0 L 56.0 24.666666666666668 L 56.5 24.5 Z" stroke="none" fill="rgb(48,45,44)" />
<path d="M 23.5 91.5 L 23.666666666666668 92.0 L 24.333333333333332 92.66666666666667 L 25.0 93.0 L 26.0 93.0 L 27.0 92.66666666666667 L 28.0 92.33333333333333 L 29.0 92.0 L 30.0 91.66666666666667 L 30.666666666666668 91.0 L 31.0 90.0 L 30.666666666666668 89.0 L 30.0 88.0 L 29.0 87.0 L 28.0 86.0 L 27.0 85.0 L 26.0 84.33333333333333 L 25.0 84.33333333333333 L 24.0 84.66666666666667 L 23.0 85.33333333333333 L 22.0 85.66666666666667 L 21.0 86.33333333333333 L 20.333333333333332 87.0 L 20.333333333333332 88.0 L 21.0 89.0 L 22.0 90.0 L 22.5 90.5 Z" stroke="none" fill="rgb(218,91,29)" />
<path d="M 77.5 22.5 L 78.0 23.0 L 78.66666666666667 24.0 L 79.0 25.0 L 79.0 26.0 L 79.33333333333333 26.666666666666668 L 80.0 27.0 L 81.0 27.0 L 82.0 26.666666666666668 L 83.0 26.333333333333332 L 84.0 26.0 L 85.0 25.666666666666668 L 86.0 25.333333333333332 L 87.0 24.666666666666668 L 87.66666666666667 24.0 L 88.0 23.0 L 87.66666666666667 22.333333333333332 L 87.0 22.333333333333332 L 86.0 22.666666666666668 L 85.0 23.0 L 84.0 23.0 L 83.0 22.666666666666668 L 82.0 22.333333333333332 L 81.0 21.666666666666668 L 80.0 21.0 L 79.33333333333333 20.0 L 79.0 19.0 L 78.66666666666667 18.0 L 78.0 17.333333333333332 L 77.0 17.0 L 76.33333333333333 17.333333333333332 L 76.0 18.0 L 76.0 19.0 L 76.33333333333333 20.0 L 76.66666666666667 21.0 L 77.0 21.5 Z" stroke="none" fill="rgb(41,38,38)" />
<path d="M 43.5 62.0 L 44.0 62.0 L 45.0 62.0 L 46.0 62.0 L 47.0 61.666666666666664 L 47.666666666666664 61.0 L 48.0 60.0 L 47.666666666666664 59.0 L 47.0 58.0 L 46.0 57.0 L 45.333333333333336 56.0 L 44.666666666666664 55.0 L 44.0 54.0 L 43.0 53.333333333333336 L 42.0 53.333333333333336 L 41.0 54.0 L 40.0 54.666666666666664 L 39.333333333333336 55.333333333333336 L 39.0 56.0 L 39.333333333333336 57.0 L 40.0 58.0 L 40.666666666666664 59.0 L 41.333333333333336 60.0 L 42.0 61.0 L 42.5 61.5 Z" stroke="none" fill="rgb(99,71,62)" />
<path d="M 31.5 78.5 L 32.0 78.66666666666667 L 33.0 79.33333333333333 L 34.0 79.66666666666667 L 35.0 80.0 L 35.666666666666664 79.66666666666667 L 36.0 79.0 L 35.666666666666664 78.0 L 35.333333333333336 77.0 L 35.0 76.0 L 34.666666666666664 75.0 L 34.0 74.0 L 33.333333333333336 73.0 L 32.666666666666664 72.33333333333333 L 32.0 71.66666666666667 L 31.0 71.33333333333333 L 30.0 71.0 L 29.0 71.33333333333333 L 28.333333333333332 72.0 L 28.0 73.0 L 28.0 74.0 L 28.0 75.0 L 28.333333333333332 76.0 L 29.0 77.0 L 30.0 77.66666666666667 L 30.5 78.0 Z" stroke="none" fill="rgb(218,91,29)" />
<path d="M 13.5 85.0 L 13.666666666666666 84.66666666666667 L 14.333333333333334 84.0 L 15.0 83.66666666666667 L 16.0 84.0 L 16.666666666666668 85.0 L 17.0 86.0 L 17.333333333333332 86.66666666666667 L 18.0 87.0 L 19.0 87.0 L 19.666666666666668 86.66666666666667 L 20.0 86.0 L 19.666666666666668 85.0 L 19.333333333333332 84.0 L 18.666666666666668 83.0 L 18.333333333333332 82.0 L 17.666666666666668 81.33333333333333 L 17.0 81.0 L 16.0 80.66666666666667 L 15.0 80.33333333333333 L 14.0 80.0 L 13.0 80.33333333333333 L 12.333333333333334 81.0 L 11.666666666666666 82.0 L 11.333333333333334 83.0 L 11.333333333333334 84.0 L 12.0 84.66666666666667 L 12.5 85.0 Z" stroke="none" fill="rgb(251,148,14)" />
<path d="M 46.5 58.5 L 47.0 58.666666666666664 L 48.0 59.0 L 49.0 58.666666666666664 L 50.0 58.0 L 50.666666666666664 57.0 L 51.0 56.0 L 50.666666666666664 55.0 L 50.0 54.333333333333336 L 49.0 53.666666666666664 L 48.0 53.333333333333336 L 47.0 52.666666666666664 L 46.0 52.333333333333336 L 45.0 52.0 L 44.0 52.0 L 43.333333333333336 52.333333333333336 L 43.0 53.0 L 43.333333333333336 54.0 L 44.0 55.0 L 44.666666666666664 56.0 L 45.333333333333336 57.0 L 45.5 57.5 Z" stroke="none" fill="rgb(94,66,58)" />
<path d="M 68.5 7.0 L 69.0 7.0 L 70.0 7.0 L 70.66666666666667 6.666666666666667 L 70.66666666666667 6.0 L 70.0 5.333333333333333 L 69.0 4.666666666666667 L 68.0 4.333333333333333 L 67.0 4.333333333333333 L 66.0 4.666666666666667 L 65.0 5.0 L 64.0 5.0 L 63.0 5.333333333333333 L 62.0 5.666666666666667 L 61.0 6.0 L 60.333333333333336 6.333333333333333 L 60.0 7.0 L 60.0 8.0 L 60.333333333333336 9.0 L 61.0 9.666666666666666 L 62.0 10.0 L 62.666666666666664 9.666666666666666 L 63.333333333333336 9.0 L 64.0 8.0 L 65.0 7.333333333333333 L 66.0 7.0 L 67.0 7.0 L 67.5 7.0 Z" stroke="none" fill="rgb(57,53,52)" />
<path d="M 34.5 87.5 L 34.666666666666664 87.0 L 35.0 86.0 L 35.0 85.0 L 34.666666666666664 84.0 L 34.0 83.0 L 33.0 82.0 L 32.0 81.0 L 31.0 80.33333333333333 L 30.0 80.0 L 29.0 80.0 L 28.333333333333332 80.33333333333333 L 28.0 81.0 L 28.333333333333332 82.0 L 29.0 83.0 L 29.666666666666668 84.0 L 30.333333333333332 85.0 L 31.0 86.0 L 32.0 87.0 L 33.0 87.66666666666667 L 33.5 88.0 Z" stroke="none" fill="rgb(218,91,29)" />
<path d="M 28.5 69.0 L 29.0 69.0 L 30.0 69.0 L 30.666666666666668 68.66666666666667 L 31.0 68.0 L 31.0 67.0 L 31.0 66.0 L 31.0 65.0 L 31.0 64.0 L 31.0 63.0 L 31.0 62.0 L 31.0 61.0 L 30.666666666666668 60.333333333333336 L 30.0 60.0 L 29.0 60.0 L 28.0 60.0 L 27.333333333333332 60.333333333333336 L 27.0 61.0 L 27.0 62.0 L 27.333333333333332 63.0 L 28.0 64.0 L 28.333333333333332 65.0 L 28.333333333333332 66.0 L 28.0 67.0 L 28.0 68.0 L 28.0 68.5 Z" stroke="none" fill="rgb(99,71,62)" />
<path d="M 68.5 11.0 L 69.0 11.0 L 70.0 11.333333333333334 L 71.0 11.666666666666666 L 72.0 12.333333333333334 L 73.0 12.666666666666666 L 73.66666666666667 12.666666666666666 L 74.0 12.0 L 73.66666666666667 11.0 L 73.0 10.333333333333334 L 72.0 9.666666666666666 L 71.0 9.333333333333334 L 70.0 9.0 L 69.0 9.0 L 68.0 9.0 L 67.0 9.0 L 66.0 9.0 L 65.0 9.0 L 64.0 9.0 L 63.0 9.333333333333334 L 62.333333333333336 10.0 L 62.333333333333336 10.666666666666666 L 63.0 11.0 L 64.0 11.0 L 65.0 11.0 L 66.0 11.0 L 67.0 11.0 L 67.5 11.0 Z" stroke="none" fill="rgb(41,38,38)" />
<path d="M 16.5 91.5 L 17.0 91.66666666666667 L 18.0 92.0 L 18.666666666666668 91.66666666666667 L 19.0 91.0 L 19.0 90.0 L 18.666666666666668 89.0 L 18.333333333333332 88.0 L 17.666666666666668 87.0 L 17.0 86.33333333333333 L 16.0 85.66666666666667 L 15.0 85.33333333333333 L 14.0 85.0 L 13.0 85.33333333333333 L 12.333333333333334 86.0 L 12.333333333333334 87.0 L 13.0 88.0 L 14.0 89.0 L 15.0 90.0 L 15.5 90.5 Z" stroke="none" fill="rgb(218,91,29)" />
<path d="M 45.5 11.5 L 46.0 11.0 L 47.0 10.333333333333334 L 47.666666666666664 9.666666666666666 L 48.333333333333336 9.0 L 48.666666666666664 8.0 L 48.666666666666664 7.333333333333333 L 48.0 7.0 L 47.0 7.333333333333333 L 46.0 7.666666666666667 L 45.0 8.333333333333334 L 44.0 9.0 L 43.0 10.0 L 42.0 11.0 L 41.333333333333336 12.0 L 41.0 13.0 L 41.0 14.0 L 41.333333333333336 14.666666666666666 L 42.0 15.0 L 42.666666666666664 14.666666666666666 L 43.333333333333336 14.0 L 44.0 13.0 L 44.5 12.5 Z" stroke="none" fill="rgb(48,45,44)" />
<path d="M 28.0 63.5 L 27.666666666666668 63.0 L 27.333333333333332 62.0 L 27.0 61.0 L 26.666666666666668 60.333333333333336 L 26.0 60.0 L 25.0 60.0 L 24.0 60.0 L 23.0 60.0 L 22.0 60.0 L 21.333333333333332 60.333333333333336 L 21.0 61.0 L 21.0 62.0 L 21.0 63.0 L 21.333333333333332 63.666666666666664 L 22.0 64.33333333333333 L 23.0 64.66666666666667 L 24.0 64.66666666666667 L 25.0 64.33333333333333 L 26.0 64.0 L 27.0 64.0 L 27.5 64.0 Z" stroke="none" fill="rgb(94,66,58)" />
<path d="M 28.5 87.5 L 29.0 88.0 L 30.0 89.0 L 31.0 89.66666666666667 L 32.0 89.66666666666667 L 32.666666666666664 89.0 L 33.0 88.0 L 32.666666666666664 87.0 L 32.0 86.0 L 31.0 85.0 L 30.0 84.0 L 29.0 83.0 L 28.0 82.33333333333333 L 27.0 82.33333333333333 L 26.333333333333332 83.0 L 26.333333333333332 84.0 L 27.0 85.0 L 27.666666666666668 86.0 L 28.0 86.5 Z" stroke="none" fill="rgb(249,139,5)" />
<path d="M 28.5 80.0 L 29.0 80.0 L 29.666666666666668 79.66666666666667 L 30.0 79.0 L 30.0 78.0 L 29.666666666666668 77.0 L 29.0 76.33333333333333 L 28.0 75.66666666666667 L 27.0 75.33333333333333 L 26.0 75.0 L 25.0 75.0 L 24.0 75.0 L 23.0 75.33333333333333 L 22.333333333333332 76.0 L 22.333333333333332 76.66666666666667 L 23.0 77.0 L 24.0 77.33333333333333 L 25.0 77.66666666666667 L 26.0 78.33333333333333 L 27.0 79.0 L 27.5 79.5 Z" stroke="none" fill="rgb(251,148,14)" />
<path d="M 88.0 21.5 L 87.66666666666667 21.333333333333332 L 87.0 21.0 L 86.0 21.0 L 85.0 20.666666666666668 L 84.0 20.333333333333332 L 83.0 20.0 L 82.0 19.666666666666668 L 81.0 19.333333333333332 L 80.0 19.0 L 79.33333333333333 19.333333333333332 L 79.0 20.0 L 79.33333333333333 21.0 L 80.0 21.666666666666668 L 81.0 22.333333333333332 L 82.0 22.666666666666668 L 83.0 23.0 L 84.0 23.0 L 85.0 23.0 L 86.0 23.0 L 87.0 22.666666666666668 L 87.5 22.5 Z" stroke="none" fill="rgb(48,45,44)" />
<path d="M 23.5 93.0 L 23.666666666666668 92.66666666666667 L 24.0 92.0 L 23.666666666666668 91.0 L 23.0 90.0 L 22.0 89.0 L 21.0 88.0 L 20.0 87.33333333333333 L 19.0 87.0 L 18.333333333333332 87.33333333333333 L 18.0 88.0 L 18.333333333333332 89.0 L 18.666666666666668 90.0 L 19.0 91.0 L 19.333333333333332 92.0 L 20.0 92.66666666666667 L 21.0 93.0 L 22.0 93.0 L 22.5 93.0 Z" stroke="none" fill="rgb(249,139,5)" />
<path d="M 66.5 9.0 L 67.0 9.0 L 68.0 9.0 L 69.0 9.0 L 70.0 9.333333333333334 L 71.0 9.666666666666666 L 71.66666666666667 9.666666666666666 L 72.0 9.0 L 72.0 8.0 L 71.66666666666667 7.333333333333333 L 71.0 7.0 L 70.0 7.0 L 69.0 7.0 L 68.0 7.0 L 67.0 7.0 L 66.0 7.0 L 65.0 7.0 L 64.0 7.333333333333333 L 63.333333333333336 8.0 L 63.333333333333336 8.666666666666666 L 64.0 9.0 L 65.0 9.0 L 65.5 9.0 Z" stroke="none" fill="rgb(48,45,44)" />
<path d="M 35.5 83.5 L 35.666666666666664 83.0 L 36.0 82.0 L 35.666666666666664 81.0 L 35.0 80.0 L 34.0 79.33333333333333 L 33.0 78.66666666666667 L 32.0 78.33333333333333 L 31.0 78.0 L 30.333333333333332 78.33333333333333 L 30.0 79.0 L 30.333333333333332 80.0 L 31.0 81.0 L 32.0 82.0 L 33.0 83.0 L 34.0 83.66666666666667 L 34.5 84.0 Z" stroke="none" fill="rgb(249,139,5)" />
<path d="M 67.5 23.0 L 68.0 23.0 L 69.0 23.0 L 70.0 23.0 L 70.66666666666667 22.666666666666668 L 70.66666666666667 22.0 L 70.0 21.0 L 69.0 20.333333333333332 L 68.0 19.666666666666668 L 67.0 19.0 L 66.0 18.333333333333332 L 65.0 18.0 L 64.33333333333333 18.333333333333332 L 64.0 19.0 L 64.33333333333333 20.0 L 65.0 21.0 L 66.0 22.0 L 66.5 22.5 Z" stroke="none" fill="rgb(41,38,38)" />
<path d="M 75.5 27.0 L 76.0 27.0 L 77.0 27.0 L 78.0 27.0 L 78.66666666666667 26.666666666666668 L 78.66666666666667 26.0 L 78.0 25.333333333333332 L 77.0 24.666666666666668 L 76.0 24.333333333333332 L 75.0 24.0 L 74.0 23.666666666666668 L 73.0 23.333333333333332 L 72.0 23.0 L 71.33333333333333 23.333333333333332 L 71.0 24.0 L 71.33333333333333 24.666666666666668 L 72.0 25.333333333333332 L 73.0 26.0 L 74.0 26.666666666666668 L 74.5 27.0 Z" stroke="none" fill="rgb(48,45,44)" />
<path d="M 19.5 85.0 L 20.0 84.66666666666667 L 21.0 84.33333333333333 L 22.0 83.66666666666667 L 23.0 83.33333333333333 L 23.666666666666668 82.66666666666667 L 23.666666666666668 82.0 L 23.0 81.0 L 22.0 80.33333333333333 L 21.0 80.0 L 20.0 80.0 L 19.0 80.33333333333333 L 18.333333333333332 81.0 L 18.0 82.0 L 18.333333333333332 83.0 L 18.666666666666668 84.0 L 19.0 84.5 Z" stroke="none" fill="rgb(242,121,6)" />
<path d="M 55.5 12.5 L 56.0 12.666666666666666 L 56.666666666666664 12.666666666666666 L 57.0 12.0 L 56.666666666666664 11.0 L 56.0 10.0 L 55.0 9.333333333333334 L 54.0 9.0 L 53.0 8.666666666666666 L 52.0 8.333333333333334 L 51.0 8.0 L 50.0 8.0 L 49.0 8.0 L 48.333333333333336 8.333333333333334 L 48.333333333333336 8.666666666666666 L 49.0 9.0 L 50.0 9.333333333333334 L 51.0 9.666666666666666 L 52.0 10.0 L 53.0 10.333333333333334 L 54.0 11.0 L 54.5 11.5 Z" stroke="none" fill="rgb(41,38,38)" />
<path d="M 60.0 22.5 L 60.333333333333336 22.0 L 60.666666666666664 21.0 L 61.0 20.0 L 60.666666666666664 19.333333333333332 L 60.0 19.0 L 59.333333333333336 19.333333333333332 L 58.666666666666664 20.0 L 58.333333333333336 21.0 L 57.666666666666664 22.0 L 57.0 23.0 L 56.0 24.0 L 55.333333333333336 25.0 L 55.333333333333336 25.666666666666668 L 56.0 26.0 L 57.0 25.666666666666668 L 58.0 25.0 L 59.0 24.0 L 59.5 23.5 Z" stroke="none" fill="rgb(57,53,52)" />
<path d="M 36.5 66.0 L 37.0 65.66666666666667 L 37.666666666666664 65.0 L 38.0 64.0 L 38.0 63.0 L 38.0 62.0 L 37.666666666666664 61.0 L 37.0 60.333333333333336 L 36.0 60.0 L 35.333333333333336 60.333333333333336 L 35.0 61.0 L 35.0 62.0 L 35.0 63.0 L 35.0 64.0 L 35.0 65.0 L 35.333333333333336 65.66666666666667 L 35.5 66.0 Z" stroke="none" fill="rgb(111,82,73)" />
<path d="M 70.5 26.0 L 71.0 26.333333333333332 L 72.0 26.666666666666668 L 73.0 27.0 L 73.66666666666667 26.666666666666668 L 73.66666666666667 26.0 L 73.0 25.333333333333332 L 72.0 24.666666666666668 L 71.33333333333333 24.0 L 70.66666666666667 23.333333333333332 L 70.0 23.0 L 69.0 23.0 L 68.0 23.0 L 67.33333333333333 23.333333333333332 L 67.33333333333333 24.0 L 68.0 24.666666666666668 L 69.0 25.333333333333332 L 69.5 25.5 Z" stroke="none" fill="rgb(57,53,52)" />
<path d="M 22.5 86.0 L 23.0 85.66666666666667 L 24.0 85.33333333333333 L 25.0 84.66666666666667 L 25.666666666666668 84.0 L 25.666666666666668 83.33333333333333 L 25.0 83.0 L 24.0 83.0 L 23.0 83.0 L 22.0 83.33333333333333 L 21.0 83.66666666666667 L 20.333333333333332 84.33333333333333 L 20.0 85.0 L 20.0 86.0 L 20.333333333333332 86.66666666666667 L 21.0 86.66666666666667 L 21.5 86.5 Z" stroke="none" fill="rgb(231,108,17)" />
<path d="M 22.5 81.5 L 23.0 82.0 L 24.0 82.66666666666667 L 25.0 83.0 L 26.0 83.0 L 26.666666666666668 82.66666666666667 L 27.0 82.0 L 26.666666666666668 81.0 L 26.0 80.33333333333333 L 25.0 79.66666666666667 L 24.0 79.33333333333333 L 23.0 79.0 L 22.333333333333332 79.33333333333333 L 22.0 80.0 L 22.0 80.5 Z" stroke="none" fill="rgb(251,148,14)" />
<path d="M 27.5 67.0 L 28.0 66.66666666666667 L 28.666666666666668 66.0 L 29.0 65.0 L 28.666666666666668 64.33333333333333 L 28.0 64.0 L 27.0 64.0 L 26.0 64.0 L 25.0 64.0 L 24.333333333333332 64.33333333333333 L 24.0 65.0 L 24.333333333333332 65.66666666666667 L 25.0 66.33333333333333 L 26.0 66.66666666666667 L 26.5 67.0 Z" stroke="none" fill="rgb(74,47,39)" />
<path d="M 21.5 80.0 L 22.0 79.66666666666667 L 22.666666666666668 79.0 L 23.0 78.0 L 22.666666666666668 77.0 L 22.0 76.33333333333333 L 21.0 76.0 L 20.0 76.0 L 19.333333333333332 76.33333333333333 L 19.0 77.0 L 19.333333333333332 78.0 L 20.0 79.0 L 20.5 79.5 Z" stroke="none" fill="rgb(249,139,5)" />
<path d="M 25.5 75.0 L 25.666666666666668 74.66666666666667 L 26.0 74.0 L 25.666666666666668 73.0 L 25.0 72.33333333333333 L 24.0 72.0 L 23.0 72.33333333333333 L 22.333333333333332 73.0 L 22.333333333333332 74.0 L 23.0 74.66666666666667 L 24.0 75.0 L 24.5 75.0 Z" stroke="none" fill="rgb(242,121,6)" />
<path d="M 26.5 75.5 L 27.0 75.66666666666667 L 27.666666666666668 75.66666666666667 L 28.0 75.0 L 28.0 74.0 L 28.0 73.0 L 28.0 72.0 L 27.666666666666668 71.33333333333333 L 27.0 71.33333333333333 L 26.333333333333332 72.0 L 26.0 73.0 L 26.0 74.0 L 26.0 74.5 Z" stroke="none" fill="rgb(231,108,17)" />
<path d="M 27.0 78.5 L 26.666666666666668 78.33333333333333 L 26.0 77.66666666666667 L 25.0 77.33333333333333 L 24.0 77.0 L 23.333333333333332 77.33333333333333 L 23.0 78.0 L 23.333333333333332 79.0 L 24.0 79.66666666666667 L 25.0 80.0 L 26.0 79.66666666666667 L 26.5 79.5 Z" stroke="none" fill="rgb(242,121,6)" />
<path d="M 14.5 85.5 L 15.0 85.66666666666667 L 16.0 86.0 L 16.666666666666668 85.66666666666667 L 17.0 85.0 L 16.666666666666668 84.0 L 16.0 83.33333333333333 L 15.0 83.0 L 14.333333333333334 83.33333333333333 L 14.0 84.0 L 14.0 84.5 Z" stroke="none" fill="rgb(231,108,17)" />
<path d="M 16.0 74.5 L 16.0 74.0 L 15.666666666666666 73.33333333333333 L 15.0 73.0 L 14.0 73.33333333333333 L 13.333333333333334 74.0 L 13.333333333333334 74.66666666666667 L 14.0 75.0 L 15.0 75.0 L 15.5 75.0 Z" stroke="none" fill="rgb(242,121,6)" />
<path d="M 27.5 82.0 L 27.666666666666668 81.66666666666667 L 28.0 81.0 L 28.0 80.0 L 27.666666666666668 79.33333333333333 L 27.0 79.0 L 26.333333333333332 79.33333333333333 L 26.0 80.0 L 26.333333333333332 81.0 L 26.5 81.5 Z" stroke="none" fill="rgb(231,108,17)" />
<path d="M 42.5 24.0 L 43.0 24.0 L 43.666666666666664 23.666666666666668 L 44.0 23.0 L 43.666666666666664 22.333333333333332 L 43.0 22.0 L 42.333333333333336 22.333333333333332 L 42.0 23.0 L 42.0 23.5 Z" stroke="none" fill="rgb(35,32,32)" />
<path d="M 13.5 79.0 L 14.0 78.66666666666667 L 14.666666666666666 78.0 L 14.666666666666666 77.33333333333333 L 14.0 77.0 L 13.333333333333334 77.33333333333333 L 13.0 78.0 L 13.0 78.5 Z" stroke="none" fill="rgb(242,121,6)" />
<path d="M 65.5 22.0 L 65.66666666666667 21.666666666666668 L 65.66666666666667 21.333333333333332 L 65.33333333333333 21.333333333333332 L 65.0 21.5 Z" stroke="none" fill="rgb(57,53,52)" />
<path d="M 67.0 22.5 L 66.66666666666667 22.333333333333332 L 66.33333333333333 22.333333333333332 L 66.33333333333333 22.666666666666668 L 66.5 23.0 Z" stroke="none" fill="rgb(57,53,52)" />
<path d="M 21.5 74.0 L 21.666666666666668 73.66666666666667 L 21.666666666666668 73.33333333333333 L 21.333333333333332 73.33333333333333 L 21.0 73.5 Z" stroke="none" fill="rgb(249,139,5)" />
<path d="M 29.0 82.5 L 28.666666666666668 82.33333333333333 L 28.333333333333332 82.33333333333333 L 28.333333333333332 82.66666666666667 L 28.5 83.0 Z" stroke="none" fill="rgb(231,108,17)" />
<path d="M 29.5 84.0 L 29.666666666666668 83.66666666666667 L 29.666666666666668 83.33333333333333 L 29.333333333333332 83.33333333333333 L 29.0 83.5 Z" stroke="none" fill="rgb(231,108,17)" />
<path d="M 26.5 85.0 L 26.666666666666668 84.66666666666667 L 26.666666666666668 84.33333333333333 L 26.333333333333332 84.33333333333333 L 26.0 84.5 Z" stroke="none" fill="rgb(231,108,17)" />
<path d="M 27.5 86.0 L 27.666666666666668 85.66666666666667 L 27.666666666666668 85.33333333333333 L 27.333333333333332 85.33333333333333 L 27.0 85.5 Z" stroke="none" fill="rgb(231,108,17)" />
</svg>
