<?xml version="1.0" encoding="UTF-8" standalone="no"?>
<!DOCTYPE svg PUBLIC "-//W3C//DTD SVG 1.1//EN"
"http://www.w3.org/Graphics/SVG/1.1/DTD/svg11.dtd">
<svg width="128" height="128" xmlns="http://www.w3.org/2000/svg" version="1.1">
<path d="M 26.5 128.0 L 27.0 128.0 L 28.0 128.0 L 29.0 128.0 L 30.0 128.0 L 31.0 128.0 L 32.0 128.0 L 33.0 128.0 L 34.0 128.0 L 35.0 128.0 L 36.0 128.0 L 37.0 128.0 L 38.0 128.0 L 39.0 128.0 L 40.0 128.0 L 41.0 128.0 L 42.0 128.0 L 43.0 128.0 L 44.0 128.0 L 45.0 128.0 L 46.0 128.0 L 47.0 128.0 L 48.0 128.0 L 49.0 128.0 L 50.0 128.0 L 51.0 128.0 L 52.0 128.0 L 53.0 128.0 L 54.0 128.0 L 55.0 128.0 L 56.0 128.0 L 57.0 128.0 L 58.0 128.0 L 59.0 128.0 L 60.0 128.0 L 61.0 128.0 L 62.0 128.0 L 63.0 128.0 L 64.0 128.0 L 65.0 128.0 L 66.0 128.0 L 67.0 128.0 L 68.0 128.0 L 69.0 128.0 L 70.0 128.0 L 71.0 128.0 L 72.0 128.0 L 73.0 128.0 L 74.0 128.0 L 75.0 128.0 L 76.0 128.0 L 77.0 128.0 L 78.0 128.0 L 79.0 128.0 L 80.0 128.0 L 81.0 128.0 L 82.0 128.0 L 83.0 128.0 L 84.0 128.0 L 85.0 128.0 L 86.0 128.0 L 87.0 128.0 L 88.0 128.0 L 89.0 128.0 L 90.0 128.0 L 91.0 128.0 L 92.0 128.0 L 93.0 128.0 L 94.0 128.0 L 95.0 128.0 L 96.0 128.0 L 97.0 128.0 L 98.0 128.0 L 99.0 128.0 L 100.0 128.0 L 101.0 128.0 L 102.0 128.0 L 103.0 128.0 L 104.0 128.0 L 105.0 128.0 L 106.0 128.0 L 107.0 128.0 L 108.0 128.0 L 109.0 128.0 L 110.0 128.0 L 111.0 128.0 L 112.0 128.0 L 113.0 128.0 L 114.0 128.0 L 115.0 128.0 L 116.0 128.0 L 117.0 128.0 L 118.0 128.0 L 119.0 128.0 L 120.0 128.0 L 121.0 128.0 L 122.0 128.0 L 123.0 128.0 L 124.0 128.0 L 125.0 128.0 L 126.0 128.0 L 127.0 128.0 L 127.66666666666667 127.66666666666667 L 128.0 127.0 L 128.0 126.0 L 128.0 125.0 L 128.0 124.0 L 128.0 123.0 L 128.0 122.0 L 128.0 121.0 L 128.0 120.0 L 128.0 119.0 L 128.0 118.0 L 128.0 117.0 L 128.0 116.0 L 128.0 115.0 L 128.0 114.0 L 128.0 113.0 L 128.0 112.0 L 128.0 111.0 L 128.0 110.0 L 128.0 109.0 L 128.0 108.0 L 128.0 107.0 L 128.0 106.0 L 128.0 105.0 L 128.0 104.0 L 128.0 103.0 L 128.0 102.0 L 128.0 101.0 L 128.0 100.0 L 128.0 99.0 L 128.0 98.0 L 128.0 97.0 L 128.0 96.0 L 128.0 95.0 L 128.0 94.0 L 128.0 93.0 L 128.0 92.0 L 128.0 91.0 L 128.0 90.0 L 128.0 89.0 L 128.0 88.0 L 128.0 87.0 L 128.0 86.0 L 128.0 85.0 L 128.0 84.0 L 128.0 83.0 L 128.0 82.0 L 128.0 81.0 L 128.0 80.0 L 128.0 79.0 L 128.0 78.0 L 128.0 77.0 L 128.0 76.0 L 128.0 75.0 L 128.0 74.0 L 128.0 73.0 L 128.0 72.0 L 128.0 71.0 L 128.0 70.0 L 128.0 69.0 L 128.0 68.0 L 128.0 67.0 L 128.0 66.0 L 128.0 65.0 L 128.0 64.0 L 128.0 63.0 L 128.0 62.0 L 128.0 61.0 L 128.0 60.0 L 128.0 59.0 L 128.0 58.0 L 128.0 57.0 L 128.0 56.0 L 128.0 55.0 L 128.0 54.0 L 128.0 53.0 L 128.0 52.0 L 128.0 51.0 L 128.0 50.0 L 128.0 49.0 L 128.0 48.0 L 128.0 47.0 L 128.0 46.0 L 128.0 45.0 L 128.0 44.0 L 128.0 43.0 L 128.0 42.0 L 128.0 41.0 L 128.0 40.0 L 128.0 39.0 L 128.0 38.0 L 128.0 37.0 L 128.0 36.0 L 128.0 35.0 L 128.0 34.0 L 128.0 33.0 L 128.0 32.0 L 128.0 31.0 L 128.0 30.0 L 128.0 29.0 L 128.0 28.0 L 128.0 27.0 L 128.0 26.0 L 128.0 25.0 L 128.0 24.0 L 128.0 23.0 L 128.0 22.0 L 128.0 21.0 L 128.0 20.0 L 128.0 19.0 L 128.0 18.0 L 128.0 17.0 L 128.0 16.0 L 128.0 15.0 L 128.0 14.0 L 128.0 13.0 L 128.0 12.0 L 128.0 11.0 L 128.0 10.0 L 128.0 9.0 L 128.0 8.0 L 128.0 7.0 L 128.0 6.0 L 128.0 5.0 L 128.0 4.0 L 128.0 3.0 L 128.0 2.0 L 128.0 1.0 L 127.66666666666667 0.3333333333333333 L 127.0 0.0 L 126.0 0.0 L 125.0 0.0 L 124.0 0.0 L 123.0 0.0 L 122.0 0.0 L 121.0 0.0 L 120.0 0.0 L 119.0 0.0 L 118.0 0.0 L 117.0 0.0 L 116.0 0.0 L 115.0 0.0 L 114.0 0.0 L 113.0 0.0 L 112.0 0.0 L 111.0 0.0 L 110.0 0.0 L 109.0 0.0 L 108.0 0.0 L 107.0 0.0 L 106.0 0.0 L 105.0 0.0 L 104.0 0.0 L 103.0 0.0 L 102.0 0.0 L 101.0 0.0 L 100.0 0.0 L 99.0 0.0 L 98.0 0.0 L 97.0 0.0 L 96.0 0.0 L 95.0 0.0 L 94.0 0.0 L 93.0 0.0 L 92.0 0.0 L 91.0 0.0 L 90.0 0.0 L 89.0 0.0 L 88.0 0.0 L 87.0 0.0 L 86.0 0.0 L 85.0 0.0 L 84.0 0.0 L 83.0 0.0 L 82.0 0.0 L 81.0 0.0 L 80.0 0.0 L 79.0 0.0 L 78.0 0.0 L 77.0 0.0 L 76.0 0.0 L 75.0 0.0 L 74.0 0.0 L 73.0 0.0 L 72.0 0.0 L 71.0 0.0 L 70.0 0.0 L 69.0 0.0 L 68.0 0.0 L 67.0 0.0 L 66.0 0.0 L 65.0 0.0 L 64.0 0.0 L 63.0 0.0 L 62.0 0.0 L 61.0 0.0 L 60.0 0.0 L 59.0 0.0 L 58.0 0.0 L 57.0 0.0 L 56.0 0.0 L 55.0 0.0 L 54.0 0.0 L 53.0 0.0 L 52.0 0.0 L 51.0 0.0 L 50.0 0.0 L 49.0 0.0 L 48.0 0.0 L 47.0 0.0 L 46.0 0.0 L 45.0 0.0 L 44.0 0.0 L 43.0 0.0 L 42.0 0.0 L 41.0 0.0 L 40.0 0.0 L 39.0 0.0 L 38.0 0.0 L 37.0 0.0 L 36.0 0.0 L 35.0 0.0 L 34.0 0.0 L 33.0 0.0 L 32.0 0.0 L 31.0 0.0 L 30.0 0.0 L 29.0 0.0 L 28.0 0.0 L 27.0 0.0 L 26.0 0.0 L 25.0 0.0 L 24.0 0.0 L 23.0 0.0 L 22.0 0.0 L 21.0 0.0 L 20.0 0.0 L 19.0 0.0 L 18.0 0.0 L 17.0 0.0 L 16.0 0.0 L 15.0 0.0 L 14.0 0.0 L 13.0 0.0 L 12.0 0.0 L 11.0 0.0 L 10.0 0.0 L 9.0 0.0 L 8.0 0.0 L 7.0 0.0 L 6.0 0.0 L 5.0 0.0 L 4.0 0.0 L 3.0 0.0 L 2.0 0.0 L 1.0 0.0 L 0.3333333333333333 0.3333333333333333 L 0.0 1.0 L 0.0 2.0 L 0.0 3.0 L 0.0 4.0 L 0.0 5.0 L 0.0 6.0 L 0.0 7.0 L 0.0 8.0 L 0.0 9.0 L 0.0 10.0 L 0.0 11.0 L 0.0 12.0 L 0.0 13.0 L 0.0 14.0 L 0.0 15.0 L 0.0 16.0 L 0.0 17.0 L 0.0 18.0 L 0.0 19.0 L 0.0 20.0 L 0.0 21.0 L 0.0 22.0 L 0.0 23.0 L 0.0 24.0 L 0.0 25.0 L 0.0 26.0 L 0.0 27.0 L 0.0 28.0 L 0.0 29.0 L 0.0 30.0 L 0.0 31.0 L 0.0 32.0 L 0.0 33.0 L 0.0 34.0 L 0.0 35.0 L 0.0 36.0 L 0.0 37.0 L 0.0 38.0 L 0.0 39.0 L 0.0 40.0 L 0.0 41.0 L 0.0 42.0 L 0.0 43.0 L 0.0 44.0 L 0.0 45.0 L 0.0 46.0 L 0.0 47.0 L 0.0 48.0 L 0.0 49.0 L 0.0 50.0 L 0.0 51.0 L 0.0 52.0 L 0.0 53.0 L 0.0 54.0 L 0.0 55.0 L 0.0 56.0 L 0.0 57.0 L 0.0 58.0 L 0.0 59.0 L 0.0 60.0 L 0.0 61.0 L 0.0 62.0 L 0.0 63.0 L 0.0 64.0 L 0.0 65.0 L 0.0 66.0 L 0.0 67.0 L 0.0 68.0 L 0.0 69.0 L 0.0 70.0 L 0.0 71.0 L 0.0 72.0 L 0.0 73.0 L 0.0 74.0 L 0.0 75.0 L 0.0 76.0 L 0.0 77.0 L 0.0 78.0 L 0.0 79.0 L 0.0 80.0 L 0.0 81.0 L 0.0 82.0 L 0.0 83.0 L 0.0 84.0 L 0.0 85.0 L 0.0 86.0 L 0.0 87.0 L 0.0 88.0 L 0.0 89.0 L 0.0 90.0 L 0.0 91.0 L 0.0 92.0 L 0.0 93.0 L 0.0 94.0 L 0.0 95.0 L 0.0 96.0 L 0.0 97.0 L 0.0 98.0 L 0.0 99.0 L 0.0 100.0 L 0.0 101.0 L 0.0 102.0 L 0.0 103.0 L 0.0 104.0 L 0.0 105.0 L 0.0 106.0 L 0.0 107.0 L 0.0 108.0 L 0.0 109.0 L 0.0 110.0 L 0.0 111.0 L 0.0 112.0 L 0.0 113.0 L 0.0 114.0 L 0.0 115.0 L 0.0 116.0 L 0.0 117.0 L 0.0 118.0 L 0.0 119.0 L 0.0 120.0 L 0.0 121.0 L 0.0 122.0 L 0.0 123.0 L 0.0 124.0 L 0.0 125.0 L 0.0 126.0 L 0.0 127.0 L 0.3333333333333333 127.66666666666667 L 1.0 128.0 L 2.0 128.0 L 3.0 128.0 L 4.0 128.0 L 5.0 128.0 L 6.0 128.0 L 7.0 128.0 L 8.0 128.0 L 9.0 128.0 L 10.0 128.0 L 11.0 128.0 L 12.0 128.0 L 13.0 128.0 L 14.0 128.0 L 15.0 128.0 L 16.0 128.0 L 17.0 128.0 L 18.0 128.0 L 19.0 128.0 L 20.0 128.0 L 21.0 128.0 L 22.0 128.0 L 23.0 128.0 L 24.0 128.0 L 25.0 128.0 L 25.5 128.0 Z" stroke="none" fill="rgb(0,0,0)" />
<path d="M 115.5 69.5 L 116.0 69.66666666666667 L 117.0 70.0 L 117.66666666666667 69.66666666666667 L 118.0 69.0 L 118.0 68.0 L 118.0 67.0 L 118.0 66.0 L 118.0 65.0 L 118.0 64.0 L 118.0 63.0 L 118.0 62.0 L 118.0 61.0 L 118.0 60.0 L 118.0 59.0 L 118.0 58.0 L 118.0 57.0 L 118.0 56.0 L 118.0 55.0 L 118.0 54.0 L 118.0 53.0 L 118.0 52.0 L 118.0 51.0 L 118.0 50.0 L 118.0 49.0 L 118.0 48.0 L 118.0 47.0 L 118.0 46.0 L 118.0 45.0 L 118.0 44.0 L 118.0 43.0 L 118.0 42.0 L 118.0 41.0 L 118.0 40.0 L 118.0 39.0 L 118.0 38.0 L 118.0 37.0 L 118.0 36.0 L 118.0 35.0 L 118.0 34.0 L 118.0 33.0 L 118.0 32.0 L 118.0 31.0 L 118.0 30.0 L 118.0 29.0 L 118.0 28.0 L 118.0 27.0 L 118.0 26.0 L 118.0 25.0 L 118.0 24.0 L 118.0 23.0 L 118.0 22.0 L 118.0 21.0 L 118.0 20.0 L 118.0 19.0 L 118.0 18.0 L 118.0 17.0 L 118.0 16.0 L 118.0 15.0 L 118.0 14.0 L 117.66666666666667 13.0 L 117.33333333333333 12.0 L 117.0 11.0 L 116.66666666666667 10.0 L 116.0 9.0 L 115.33333333333333 8.0 L 114.66666666666667 7.0 L 114.0 6.333333333333333 L 113.0 5.666666666666667 L 112.0 5.333333333333333 L 111.0 4.666666666666667 L 110.0 4.333333333333333 L 109.0 4.0 L 108.0 4.0 L 107.0 4.0 L 106.0 4.0 L 105.0 4.0 L 104.0 4.0 L 103.0 4.0 L 102.0 4.0 L 101.0 4.0 L 100.0 4.333333333333333 L 99.0 5.0 L 98.33333333333333 6.0 L 98.0 7.0 L 98.33333333333333 8.0 L 99.0 9.0 L 100.0 9.666666666666666 L 101.0 10.0 L 102.0 9.666666666666666 L 103.0 9.333333333333334 L 104.0 9.0 L 105.0 9.0 L 106.0 9.0 L 107.0 9.0 L 108.0 9.333333333333334 L 109.0 10.0 L 110.0 11.0 L 111.0 12.0 L 111.66666666666667 13.0 L 112.0 14.0 L 112.33333333333333 15.0 L 112.66666666666667 16.0 L 113.0 17.0 L 113.0 18.0 L 113.0 19.0 L 113.0 20.0 L 113.0 21.0 L 113.0 22.0 L 113.0 23.0 L 113.0 24.0 L 113.0 25.0 L 113.0 26.0 L 113.0 27.0 L 113.0 28.0 L 113.0 29.0 L 113.0 30.0 L 113.0 31.0 L 113.0 32.0 L 113.0 33.0 L 113.0 34.0 L 113.0 35.0 L 113.0 36.0 L 113.0 37.0 L 113.0 38.0 L 113.0 39.0 L 113.0 40.0 L 113.0 41.0 L 113.0 42.0 L 113.0 43.0 L 113.0 44.0 L 113.0 45.0 L 113.0 46.0 L 113.0 47.0 L 113.0 48.0 L 113.0 49.0 L 113.0 50.0 L 113.0 51.0 L 113.0 52.0 L 113.0 53.0 L 113.0 54.0 L 113.0 55.0 L 113.0 56.0 L 113.0 57.0 L 113.0 58.0 L 113.0 59.0 L 113.0 60.0 L 113.0 61.0 L 113.0 62.0 L 113.0 63.0 L 113.0 64.0 L 113.0 65.0 L 113.0 66.0 L 113.0 67.0 L 113.33333333333333 68.0 L 114.0 68.66666666666667 L 114.5 69.0 Z" stroke="none" fill="rgb(189,189,189)" />
<path d="M 100.5 12.0 L 100.66666666666667 11.666666666666666 L 101.0 11.0 L 100.66666666666667 10.0 L 100.0 9.0 L 99.0 8.0 L 98.0 7.333333333333333 L 97.0 7.0 L 96.33333333333333 7.333333333333333 L 96.0 8.0 L 96.0 9.0 L 96.33333333333333 9.666666666666666 L 97.0 10.333333333333334 L 98.0 11.0 L 99.0 11.666666666666666 L 99.5 12.0 Z" stroke="none" fill="rgb(121,144,156)" />
<path d="M 88.5 16.5 L 89.0 17.0 L 90.0 17.666666666666668 L 91.0 18.333333333333332 L 92.0 18.666666666666668 L 93.0 19.333333333333332 L 94.0 19.666666666666668 L 95.0 20.333333333333332 L 96.0 20.666666666666668 L 97.0 21.333333333333332 L 98.0 21.666666666666668 L 99.0 22.0 L 100.0 22.333333333333332 L 101.0 22.666666666666668 L 102.0 22.666666666666668 L 102.66666666666667 22.0 L 103.0 21.0 L 103.0 20.0 L 103.0 19.0 L 103.0 18.0 L 103.0 17.0 L 103.0 16.0 L 102.66666666666667 15.0 L 102.33333333333333 14.0 L 101.66666666666667 13.0 L 101.0 12.333333333333334 L 100.0 11.666666666666666 L 99.0 11.0 L 98.0 10.333333333333334 L 97.0 10.0 L 96.33333333333333 10.333333333333334 L 95.66666666666667 11.0 L 95.0 11.666666666666666 L 94.0 11.666666666666666 L 93.33333333333333 11.0 L 93.0 10.0 L 92.66666666666667 9.333333333333334 L 92.0 9.0 L 91.0 9.0 L 90.0 9.333333333333334 L 89.0 9.666666666666666 L 88.0 10.333333333333334 L 87.0 11.0 L 86.33333333333333 12.0 L 86.0 13.0 L 86.33333333333333 14.0 L 87.0 15.0 L 87.5 15.5 Z" stroke="none" fill="rgb(189,189,189)" />
<path d="M 94.5 12.0 L 95.0 12.0 L 95.66666666666667 11.666666666666666 L 96.0 11.0 L 95.66666666666667 10.333333333333334 L 95.0 10.0 L 94.0 10.0 L 93.0 10.333333333333334 L 92.0 10.666666666666666 L 91.33333333333333 11.333333333333334 L 91.33333333333333 11.666666666666666 L 92.0 12.0 L 93.0 12.0 L 93.5 12.0 Z" stroke="none" fill="rgb(224,233,237)" />
<path d="M 85.5 19.5 L 86.0 20.0 L 87.0 20.666666666666668 L 88.0 21.333333333333332 L 89.0 22.0 L 90.0 22.666666666666668 L 91.0 23.333333333333332 L 92.0 23.666666666666668 L 93.0 24.333333333333332 L 94.0 24.666666666666668 L 95.0 25.333333333333332 L 96.0 25.666666666666668 L 97.0 26.0 L 98.0 26.0 L 99.0 26.0 L 100.0 26.0 L 101.0 26.0 L 101.66666666666667 25.666666666666668 L 102.0 25.0 L 102.0 24.0 L 101.66666666666667 23.0 L 101.0 22.333333333333332 L 100.0 22.0 L 99.0 21.666666666666668 L 98.0 21.333333333333332 L 97.0 20.666666666666668 L 96.0 20.333333333333332 L 95.0 19.666666666666668 L 94.0 19.333333333333332 L 93.0 18.666666666666668 L 92.0 18.333333333333332 L 91.0 17.666666666666668 L 90.0 17.0 L 89.0 16.0 L 88.0 15.0 L 87.0 14.0 L 86.0 13.333333333333334 L 85.0 13.0 L 84.0 13.0 L 83.33333333333333 13.333333333333334 L 83.0 14.0 L 83.0 15.0 L 83.0 16.0 L 83.33333333333333 17.0 L 84.0 18.0 L 84.5 18.5 Z" stroke="none" fill="rgb(121,144,156)" />
<path d="M 21.5 36.5 L 22.0 36.333333333333336 L 23.0 36.333333333333336 L 24.0 36.666666666666664 L 24.666666666666668 36.666666666666664 L 25.0 36.0 L 25.333333333333332 35.0 L 26.0 34.666666666666664 L 27.0 35.0 L 28.0 36.0 L 29.0 37.0 L 30.0 37.666666666666664 L 31.0 37.666666666666664 L 31.666666666666668 37.0 L 32.0 36.0 L 32.0 35.0 L 31.666666666666668 34.0 L 31.0 33.0 L 30.0 32.0 L 29.0 31.0 L 28.0 30.333333333333332 L 27.0 29.666666666666668 L 26.333333333333332 29.0 L 25.666666666666668 28.0 L 25.0 27.333333333333332 L 24.0 26.666666666666668 L 23.0 26.333333333333332 L 22.0 26.0 L 21.0 26.0 L 20.0 26.0 L 19.0 26.333333333333332 L 18.0 26.666666666666668 L 17.0 27.333333333333332 L 16.0 28.0 L 15.0 29.0 L 14.0 29.666666666666668 L 13.0 30.0 L 12.333333333333334 30.333333333333332 L 12.0 31.0 L 12.333333333333334 32.0 L 12.333333333333334 33.0 L 12.0 34.0 L 11.0 34.666666666666664 L 10.0 35.0 L 9.0 35.0 L 8.333333333333334 35.333333333333336 L 8.0 36.0 L 8.0 37.0 L 7.666666666666667 38.0 L 7.333333333333333 39.0 L 7.0 40.0 L 7.0 41.0 L 7.333333333333333 41.666666666666664 L 8.0 41.666666666666664 L 9.0 41.333333333333336 L 10.0 41.333333333333336 L 10.666666666666666 42.0 L 11.0 43.0 L 11.333333333333334 44.0 L 12.0 44.666666666666664 L 12.666666666666666 44.666666666666664 L 13.0 44.0 L 13.333333333333334 43.0 L 14.0 42.0 L 15.0 41.333333333333336 L 16.0 40.666666666666664 L 17.0 40.0 L 18.0 39.333333333333336 L 19.0 39.0 L 19.666666666666668 38.666666666666664 L 20.333333333333332 38.0 L 20.5 37.5 Z" stroke="none" fill="rgb(128,222,234)" />
<path d="M 40.0 42.5 L 40.0 42.0 L 40.0 41.0 L 40.0 40.0 L 40.0 39.0 L 40.0 38.0 L 39.666666666666664 37.0 L 39.0 36.0 L 38.0 35.0 L 37.0 34.333333333333336 L 36.0 34.0 L 35.0 33.666666666666664 L 34.333333333333336 33.0 L 34.0 32.0 L 33.666666666666664 31.333333333333332 L 33.0 31.0 L 32.333333333333336 31.333333333333332 L 32.0 32.0 L 32.0 33.0 L 32.0 34.0 L 32.0 35.0 L 32.333333333333336 35.666666666666664 L 33.0 36.0 L 34.0 36.333333333333336 L 35.0 37.0 L 36.0 38.0 L 37.0 39.0 L 37.666666666666664 40.0 L 38.0 41.0 L 38.0 42.0 L 38.333333333333336 42.666666666666664 L 39.0 43.0 L 39.5 43.0 Z" stroke="none" fill="rgb(81,62,53)" />
<path d="M 11.5 35.0 L 12.0 34.666666666666664 L 12.666666666666666 34.0 L 13.0 33.0 L 12.666666666666666 32.333333333333336 L 12.0 32.0 L 11.0 32.333333333333336 L 10.333333333333334 33.0 L 10.0 34.0 L 10.333333333333334 34.666666666666664 L 10.5 35.0 Z" stroke="none" fill="rgb(240,249,251)" />
<path d="M 27.5 40.0 L 28.0 40.0 L 28.666666666666668 39.666666666666664 L 29.333333333333332 39.0 L 29.666666666666668 38.0 L 29.666666666666668 37.0 L 29.0 36.0 L 28.0 35.0 L 27.0 34.333333333333336 L 26.0 34.0 L 25.333333333333332 34.333333333333336 L 25.0 35.0 L 25.0 36.0 L 25.0 37.0 L 25.333333333333332 38.0 L 26.0 39.0 L 26.5 39.5 Z" stroke="none" fill="rgb(108,163,168)" />
<path d="M 23.5 43.0 L 24.0 43.0 L 25.0 42.666666666666664 L 26.0 42.0 L 26.666666666666668 41.0 L 27.0 40.0 L 26.666666666666668 39.0 L 26.0 38.0 L 25.0 37.0 L 24.0 36.333333333333336 L 23.0 36.0 L 22.0 36.0 L 21.0 36.333333333333336 L 20.333333333333332 37.0 L 20.0 38.0 L 20.0 39.0 L 20.333333333333332 40.0 L 21.0 41.0 L 22.0 42.0 L 22.5 42.5 Z" stroke="none" fill="rgb(71,53,45)" />
<path d="M 35.5 42.0 L 36.0 42.0 L 37.0 42.0 L 37.666666666666664 41.666666666666664 L 38.0 41.0 L 38.0 40.0 L 37.666666666666664 39.0 L 37.0 38.0 L 36.0 37.0 L 35.0 36.333333333333336 L 34.0 36.0 L 33.0 36.0 L 32.0 36.333333333333336 L 31.333333333333332 37.0 L 31.0 38.0 L 31.333333333333332 38.666666666666664 L 32.0 39.333333333333336 L 33.0 40.0 L 33.666666666666664 41.0 L 34.333333333333336 41.666666666666664 L 34.5 42.0 Z" stroke="none" fill="rgb(71,53,45)" />
<path d="M 31.5 44.0 L 32.0 43.666666666666664 L 33.0 43.0 L 33.666666666666664 42.0 L 34.0 41.0 L 33.666666666666664 40.0 L 33.0 39.333333333333336 L 32.0 38.666666666666664 L 31.0 38.333333333333336 L 30.0 38.0 L 29.333333333333332 38.333333333333336 L 28.666666666666668 39.0 L 28.333333333333332 40.0 L 27.666666666666668 41.0 L 27.0 42.0 L 26.333333333333332 43.0 L 26.0 44.0 L 26.333333333333332 44.666666666666664 L 27.0 45.0 L 28.0 45.0 L 29.0 45.0 L 30.0 44.666666666666664 L 30.5 44.5 Z" stroke="none" fill="rgb(61,45,36)" />
<path d="M 24.0 45.5 L 24.0 45.0 L 24.0 44.0 L 23.666666666666668 43.0 L 23.0 42.0 L 22.0 41.0 L 21.0 40.0 L 20.0 39.333333333333336 L 19.0 39.0 L 18.0 39.0 L 17.0 39.333333333333336 L 16.333333333333332 40.0 L 16.0 41.0 L 16.333333333333332 41.666666666666664 L 17.0 42.0 L 18.0 41.666666666666664 L 19.0 41.666666666666664 L 19.666666666666668 42.0 L 20.0 43.0 L 20.333333333333332 44.0 L 20.666666666666668 45.0 L 21.333333333333332 45.666666666666664 L 22.0 46.0 L 23.0 46.0 L 23.5 46.0 Z" stroke="none" fill="rgb(108,163,168)" />
<path d="M 24.5 46.0 L 25.0 46.0 L 25.666666666666668 45.666666666666664 L 26.0 45.0 L 26.333333333333332 44.0 L 27.0 43.0 L 27.666666666666668 42.0 L 28.0 41.0 L 27.666666666666668 40.333333333333336 L 27.0 40.333333333333336 L 26.0 41.0 L 25.0 42.0 L 24.333333333333332 43.0 L 24.0 44.0 L 24.0 45.0 L 24.0 45.5 Z" stroke="none" fill="rgb(99,139,141)" />
<path d="M 13.0 47.5 L 13.0 47.0 L 13.0 46.0 L 12.666666666666666 45.0 L 12.0 44.0 L 11.333333333333334 43.0 L 11.0 42.0 L 10.666666666666666 41.333333333333336 L 10.0 41.0 L 9.0 41.0 L 8.333333333333334 41.333333333333336 L 8.0 42.0 L 8.0 43.0 L 8.0 44.0 L 8.0 45.0 L 8.333333333333334 46.0 L 9.0 47.0 L 10.0 48.0 L 11.0 48.666666666666664 L 12.0 48.666666666666664 L 12.5 48.5 Z" stroke="none" fill="rgb(240,249,251)" />
<path d="M 13.5 45.0 L 14.0 45.333333333333336 L 15.0 46.0 L 16.0 46.666666666666664 L 16.666666666666668 46.666666666666664 L 17.0 46.0 L 17.0 45.0 L 17.0 44.0 L 17.0 43.0 L 16.666666666666668 42.0 L 16.0 41.333333333333336 L 15.0 41.0 L 14.0 41.333333333333336 L 13.333333333333334 42.0 L 13.0 43.0 L 13.0 44.0 L 13.0 44.5 Z" stroke="none" fill="rgb(71,53,45)" />
<path d="M 19.5 46.0 L 20.0 46.0 L 20.666666666666668 45.666666666666664 L 20.666666666666668 45.0 L 20.333333333333332 44.0 L 20.0 43.0 L 20.0 42.0 L 19.666666666666668 41.333333333333336 L 19.0 41.0 L 18.0 41.333333333333336 L 17.333333333333332 42.0 L 17.0 43.0 L 17.333333333333332 44.0 L 18.0 45.0 L 18.5 45.5 Z" stroke="none" fill="rgb(119,197,205)" />
<path d="M 36.5 64.0 L 37.0 64.0 L 38.0 64.0 L 39.0 64.0 L 40.0 64.0 L 41.0 63.666666666666664 L 42.0 63.0 L 43.0 62.333333333333336 L 44.0 61.666666666666664 L 44.666666666666664 61.0 L 45.333333333333336 60.0 L 45.666666666666664 59.0 L 46.0 58.0 L 46.0 57.0 L 46.0 56.0 L 45.666666666666664 55.0 L 45.333333333333336 54.0 L 45.0 53.0 L 45.333333333333336 52.0 L 45.666666666666664 51.0 L 46.0 50.0 L 46.0 49.0 L 45.666666666666664 48.333333333333336 L 45.0 48.0 L 44.0 47.666666666666664 L 43.0 47.333333333333336 L 42.0 46.666666666666664 L 41.0 46.0 L 40.333333333333336 45.0 L 40.0 44.0 L 39.666666666666664 43.333333333333336 L 39.0 42.666666666666664 L 38.0 42.333333333333336 L 37.0 42.0 L 36.0 42.0 L 35.0 42.0 L 34.0 42.0 L 33.0 42.333333333333336 L 32.0 43.0 L 31.0 43.666666666666664 L 30.0 44.333333333333336 L 29.0 44.666666666666664 L 28.0 45.0 L 27.0 45.0 L 26.333333333333332 45.333333333333336 L 26.0 46.0 L 26.333333333333332 47.0 L 26.666666666666668 48.0 L 27.333333333333332 49.0 L 27.666666666666668 50.0 L 28.333333333333332 51.0 L 28.333333333333332 52.0 L 28.0 53.0 L 27.0 53.333333333333336 L 26.0 53.333333333333336 L 25.0 53.0 L 24.333333333333332 53.333333333333336 L 24.0 54.0 L 24.0 55.0 L 24.333333333333332 56.0 L 25.0 57.0 L 26.0 58.0 L 27.0 59.0 L 27.666666666666668 60.0 L 28.333333333333332 61.0 L 29.0 61.666666666666664 L 30.0 62.0 L 31.0 62.0 L 32.0 62.333333333333336 L 33.0 62.666666666666664 L 34.0 63.0 L 35.0 63.333333333333336 L 35.5 63.5 Z" stroke="none" fill="rgb(165,108,67)" />
<path d="M 87.5 54.5 L 88.0 54.0 L 88.66666666666667 53.0 L 89.33333333333333 52.0 L 89.66666666666667 51.0 L 90.0 50.0 L 90.0 49.0 L 90.0 48.0 L 89.66666666666667 47.0 L 89.33333333333333 46.0 L 88.66666666666667 45.0 L 88.0 44.0 L 87.0 43.333333333333336 L 86.0 42.666666666666664 L 85.0 42.333333333333336 L 84.0 42.0 L 83.0 42.0 L 82.0 42.333333333333336 L 81.0 42.666666666666664 L 80.0 43.0 L 79.0 43.333333333333336 L 78.33333333333333 44.0 L 78.0 45.0 L 78.0 46.0 L 78.33333333333333 47.0 L 78.33333333333333 48.0 L 78.0 48.666666666666664 L 77.33333333333333 49.333333333333336 L 77.0 50.0 L 77.0 51.0 L 77.33333333333333 52.0 L 77.66666666666667 53.0 L 78.33333333333333 53.666666666666664 L 79.0 54.333333333333336 L 80.0 54.666666666666664 L 81.0 55.0 L 82.0 55.0 L 83.0 55.0 L 84.0 55.0 L 85.0 55.0 L 86.0 55.0 L 86.5 55.0 Z" stroke="none" fill="rgb(128,222,234)" />
<path d="M 21.0 48.5 L 20.666666666666668 48.0 L 20.333333333333332 47.0 L 19.666666666666668 46.0 L 19.0 45.0 L 18.0 44.333333333333336 L 17.333333333333332 44.333333333333336 L 17.0 45.0 L 17.0 46.0 L 17.0 47.0 L 17.333333333333332 48.0 L 18.0 48.666666666666664 L 19.0 49.0 L 20.0 49.0 L 20.5 49.0 Z" stroke="none" fill="rgb(108,163,168)" />
<path d="M 21.0 44.5 L 20.666666666666668 44.333333333333336 L 20.333333333333332 44.333333333333336 L 20.333333333333332 44.666666666666664 L 20.5 45.0 Z" stroke="none" fill="rgb(99,139,141)" />
<path d="M 80.5 48.0 L 81.0 47.666666666666664 L 82.0 47.333333333333336 L 83.0 46.666666666666664 L 83.66666666666667 46.0 L 84.0 45.0 L 83.66666666666667 44.333333333333336 L 83.0 44.0 L 82.0 44.333333333333336 L 81.0 44.666666666666664 L 80.0 45.333333333333336 L 79.33333333333333 46.0 L 79.0 47.0 L 79.33333333333333 47.666666666666664 L 79.5 48.0 Z" stroke="none" fill="rgb(240,249,251)" />
<path d="M 14.5 47.0 L 15.0 47.0 L 15.666666666666666 46.666666666666664 L 15.666666666666666 46.0 L 15.0 45.333333333333336 L 14.0 45.0 L 13.333333333333334 45.333333333333336 L 13.0 46.0 L 13.333333333333334 46.666666666666664 L 13.5 47.0 Z" stroke="none" fill="rgb(85,97,94)" />
<path d="M 34.5 47.0 L 35.0 47.0 L 35.666666666666664 46.666666666666664 L 36.0 46.0 L 35.666666666666664 45.333333333333336 L 35.0 45.333333333333336 L 34.333333333333336 46.0 L 34.0 46.5 Z" stroke="none" fill="rgb(71,53,45)" />
<path d="M 23.5 48.5 L 23.666666666666668 48.0 L 23.666666666666668 47.0 L 23.0 46.333333333333336 L 22.0 46.0 L 21.0 46.0 L 20.333333333333332 46.333333333333336 L 20.0 47.0 L 20.333333333333332 48.0 L 21.0 48.666666666666664 L 22.0 49.0 L 22.5 49.0 Z" stroke="none" fill="rgb(85,97,94)" />
<path d="M 24.0 46.5 L 23.666666666666668 46.333333333333336 L 23.333333333333332 46.333333333333336 L 23.333333333333332 46.666666666666664 L 23.5 47.0 Z" stroke="none" fill="rgb(99,139,141)" />
<path d="M 23.5 62.0 L 24.0 62.0 L 25.0 62.0 L 26.0 61.666666666666664 L 27.0 61.333333333333336 L 27.666666666666668 60.666666666666664 L 28.0 60.0 L 27.666666666666668 59.0 L 27.0 58.0 L 26.0 57.0 L 25.0 56.0 L 24.333333333333332 55.0 L 24.333333333333332 54.0 L 25.0 53.666666666666664 L 26.0 53.666666666666664 L 27.0 54.0 L 28.0 53.666666666666664 L 28.666666666666668 53.0 L 29.0 52.0 L 28.666666666666668 51.0 L 28.333333333333332 50.0 L 27.666666666666668 49.0 L 27.333333333333332 48.0 L 26.666666666666668 47.0 L 26.0 46.333333333333336 L 25.0 46.0 L 24.333333333333332 46.333333333333336 L 23.666666666666668 47.0 L 23.0 48.0 L 22.0 48.666666666666664 L 21.0 49.0 L 20.0 49.0 L 19.0 49.0 L 18.0 49.0 L 17.0 49.333333333333336 L 16.0 49.666666666666664 L 15.0 50.0 L 14.333333333333334 50.333333333333336 L 14.0 51.0 L 14.0 52.0 L 14.0 53.0 L 14.0 54.0 L 14.333333333333334 55.0 L 15.0 56.0 L 16.0 57.0 L 17.0 58.0 L 18.0 58.666666666666664 L 19.0 59.333333333333336 L 20.0 60.0 L 21.0 60.666666666666664 L 22.0 61.333333333333336 L 22.5 61.5 Z" stroke="none" fill="rgb(61,45,36)" />
<path d="M 15.5 50.0 L 16.0 50.0 L 17.0 49.666666666666664 L 17.666666666666668 49.0 L 17.666666666666668 48.0 L 17.0 47.333333333333336 L 16.0 47.0 L 15.0 47.0 L 14.0 47.0 L 13.0 47.333333333333336 L 12.333333333333334 48.0 L 12.0 49.0 L 12.333333333333334 49.666666666666664 L 13.0 50.0 L 14.0 50.0 L 14.5 50.0 Z" stroke="none" fill="rgb(99,139,141)" />
<path d="M 85.5 51.5 L 85.66666666666667 51.0 L 86.0 50.0 L 85.66666666666667 49.0 L 85.0 48.333333333333336 L 84.0 48.0 L 83.0 48.333333333333336 L 82.33333333333333 49.0 L 82.0 50.0 L 82.33333333333333 51.0 L 83.0 51.666666666666664 L 84.0 52.0 L 84.5 52.0 Z" stroke="none" fill="rgb(0,0,0)" />
<path d="M 11.5 57.5 L 12.0 58.0 L 13.0 58.666666666666664 L 14.0 59.0 L 14.666666666666666 58.666666666666664 L 14.666666666666666 58.0 L 14.0 57.0 L 13.333333333333334 56.0 L 12.666666666666666 55.0 L 12.333333333333334 54.0 L 12.0 53.0 L 12.0 52.0 L 12.0 51.0 L 12.0 50.0 L 11.666666666666666 49.333333333333336 L 11.0 49.0 L 10.0 49.0 L 9.333333333333334 49.333333333333336 L 9.0 50.0 L 9.0 51.0 L 9.0 52.0 L 9.333333333333334 53.0 L 9.666666666666666 54.0 L 10.0 55.0 L 10.333333333333334 56.0 L 10.5 56.5 Z" stroke="none" fill="rgb(81,62,53)" />
<path d="M 14.5 58.5 L 15.0 58.666666666666664 L 16.0 59.0 L 17.0 59.0 L 17.666666666666668 58.666666666666664 L 17.666666666666668 58.0 L 17.0 57.0 L 16.0 56.0 L 15.0 55.0 L 14.333333333333334 54.0 L 14.0 53.0 L 14.0 52.0 L 14.0 51.0 L 13.666666666666666 50.333333333333336 L 13.0 50.0 L 12.333333333333334 50.333333333333336 L 12.0 51.0 L 12.0 52.0 L 12.0 53.0 L 12.0 54.0 L 12.333333333333334 55.0 L 12.666666666666666 56.0 L 13.333333333333334 57.0 L 13.5 57.5 Z" stroke="none" fill="rgb(71,53,45)" />
<path d="M 37.0 50.5 L 36.666666666666664 50.333333333333336 L 36.333333333333336 50.333333333333336 L 36.333333333333336 50.666666666666664 L 36.5 51.0 Z" stroke="none" fill="rgb(81,62,53)" />
<path d="M 103.5 74.0 L 104.0 74.0 L 105.0 74.0 L 106.0 74.0 L 107.0 74.0 L 108.0 74.0 L 109.0 74.0 L 110.0 74.0 L 111.0 74.0 L 112.0 73.66666666666667 L 113.0 73.33333333333333 L 113.66666666666667 72.66666666666667 L 114.0 72.0 L 113.66666666666667 71.0 L 113.66666666666667 70.0 L 113.66666666666667 69.0 L 113.66666666666667 68.0 L 113.0 67.33333333333333 L 112.0 67.0 L 111.0 67.33333333333333 L 110.0 67.33333333333333 L 109.0 67.33333333333333 L 108.0 66.66666666666667 L 107.0 66.0 L 106.33333333333333 65.0 L 106.0 64.0 L 106.0 63.0 L 106.33333333333333 62.0 L 106.66666666666667 61.0 L 107.0 60.0 L 106.66666666666667 59.0 L 106.33333333333333 58.0 L 106.0 57.0 L 106.0 56.0 L 105.66666666666667 55.0 L 105.0 54.0 L 104.0 53.0 L 103.0 52.333333333333336 L 102.0 51.666666666666664 L 101.0 51.333333333333336 L 100.0 51.0 L 99.0 51.0 L 98.0 51.0 L 97.0 51.0 L 96.0 51.0 L 95.0 51.333333333333336 L 94.0 51.666666666666664 L 93.0 52.333333333333336 L 92.0 53.0 L 91.0 54.0 L 90.33333333333333 55.0 L 90.0 56.0 L 89.66666666666667 57.0 L 89.33333333333333 58.0 L 88.66666666666667 59.0 L 88.0 59.666666666666664 L 87.0 60.0 L 86.0 60.0 L 85.0 60.0 L 84.0 60.333333333333336 L 83.0 60.666666666666664 L 82.0 61.333333333333336 L 81.0 61.666666666666664 L 80.0 62.333333333333336 L 79.0 63.0 L 78.0 64.0 L 77.0 64.66666666666667 L 76.0 65.0 L 75.0 65.0 L 74.0 65.0 L 73.0 65.0 L 72.0 65.33333333333333 L 71.0 65.66666666666667 L 70.0 66.33333333333333 L 69.0 66.66666666666667 L 68.0 67.0 L 67.0 67.0 L 66.0 67.0 L 65.0 67.0 L 64.0 67.0 L 63.0 67.0 L 62.0 67.33333333333333 L 61.0 68.0 L 60.333333333333336 69.0 L 60.0 70.0 L 60.333333333333336 71.0 L 61.0 71.66666666666667 L 62.0 72.0 L 63.0 72.0 L 64.0 72.0 L 65.0 72.33333333333333 L 66.0 72.66666666666667 L 67.0 73.0 L 68.0 73.0 L 69.0 73.0 L 70.0 73.33333333333333 L 71.0 73.66666666666667 L 72.0 74.0 L 73.0 74.0 L 73.66666666666667 73.66666666666667 L 74.33333333333333 73.0 L 75.0 72.33333333333333 L 76.0 72.33333333333333 L 76.66666666666667 73.0 L 77.33333333333333 73.66666666666667 L 78.0 74.0 L 79.0 74.0 L 80.0 74.33333333333333 L 81.0 74.66666666666667 L 82.0 75.0 L 83.0 75.0 L 84.0 75.0 L 85.0 75.0 L 86.0 75.0 L 87.0 75.0 L 88.0 75.0 L 89.0 75.0 L 90.0 75.0 L 91.0 75.0 L 92.0 75.0 L 93.0 75.0 L 94.0 75.0 L 95.0 75.0 L 96.0 75.0 L 97.0 75.0 L 98.0 75.0 L 99.0 74.66666666666667 L 100.0 74.33333333333333 L 101.0 74.0 L 102.0 74.0 L 102.5 74.0 Z" stroke="none" fill="rgb(128,222,234)" />
<path d="M 94.5 60.0 L 95.0 59.666666666666664 L 96.0 59.0 L 97.0 58.0 L 97.66666666666667 57.0 L 98.0 56.0 L 98.0 55.0 L 97.66666666666667 54.333333333333336 L 97.0 54.0 L 96.0 54.0 L 95.0 54.0 L 94.0 54.333333333333336 L 93.33333333333333 55.0 L 93.0 56.0 L 93.0 57.0 L 93.0 58.0 L 93.33333333333333 59.0 L 93.5 59.5 Z" stroke="none" fill="rgb(255,255,255)" />
<path d="M 97.5 63.0 L 98.0 63.0 L 99.0 63.0 L 100.0 62.666666666666664 L 100.66666666666667 62.0 L 101.0 61.0 L 101.0 60.0 L 101.0 59.0 L 100.66666666666667 58.0 L 100.0 57.333333333333336 L 99.0 57.0 L 98.0 57.0 L 97.0 57.333333333333336 L 96.0 58.0 L 95.33333333333333 59.0 L 95.0 60.0 L 95.0 61.0 L 95.33333333333333 62.0 L 96.0 62.666666666666664 L 96.5 63.0 Z" stroke="none" fill="rgb(0,0,0)" />
<path d="M 8.5 67.0 L 9.0 67.0 L 10.0 66.66666666666667 L 11.0 66.33333333333333 L 12.0 66.0 L 13.0 66.0 L 14.0 66.0 L 14.666666666666666 65.66666666666667 L 15.0 65.0 L 14.666666666666666 64.0 L 14.666666666666666 63.0 L 15.0 62.333333333333336 L 16.0 62.0 L 17.0 62.0 L 18.0 62.0 L 19.0 62.0 L 20.0 62.0 L 20.666666666666668 61.666666666666664 L 21.0 61.0 L 20.666666666666668 60.0 L 20.0 59.333333333333336 L 19.0 59.0 L 18.0 59.0 L 17.0 59.0 L 16.0 59.0 L 15.0 59.0 L 14.0 59.0 L 13.0 59.0 L 12.0 59.0 L 11.0 59.0 L 10.0 59.0 L 9.0 59.333333333333336 L 8.0 59.666666666666664 L 7.0 60.0 L 6.0 60.0 L 5.0 60.333333333333336 L 4.0 61.0 L 3.3333333333333335 62.0 L 3.0 63.0 L 3.0 64.0 L 3.3333333333333335 65.0 L 4.0 66.0 L 5.0 66.66666666666667 L 6.0 67.0 L 7.0 67.0 L 7.5 67.0 Z" stroke="none" fill="rgb(183,213,229)" />
<path d="M 16.5 65.0 L 17.0 65.0 L 18.0 65.0 L 19.0 65.33333333333333 L 20.0 65.66666666666667 L 21.0 66.0 L 22.0 66.0 L 23.0 66.0 L 24.0 66.33333333333333 L 25.0 66.66666666666667 L 26.0 67.0 L 26.666666666666668 66.66666666666667 L 27.333333333333332 66.0 L 27.666666666666668 65.0 L 27.666666666666668 64.0 L 27.0 63.0 L 26.0 62.333333333333336 L 25.0 62.0 L 24.0 61.666666666666664 L 23.0 61.333333333333336 L 22.0 61.0 L 21.0 61.333333333333336 L 20.0 61.666666666666664 L 19.0 62.0 L 18.0 62.0 L 17.0 62.0 L 16.0 62.0 L 15.0 62.0 L 14.333333333333334 62.333333333333336 L 14.0 63.0 L 14.333333333333334 64.0 L 15.0 64.66666666666667 L 15.5 65.0 Z" stroke="none" fill="rgb(255,255,255)" />
<path d="M 59.5 78.0 L 60.0 78.0 L 61.0 78.33333333333333 L 62.0 78.66666666666667 L 63.0 79.0 L 64.0 79.0 L 65.0 79.0 L 66.0 79.33333333333333 L 67.0 79.66666666666667 L 68.0 80.0 L 69.0 80.0 L 70.0 80.0 L 71.0 80.0 L 72.0 80.0 L 73.0 80.0 L 74.0 80.0 L 75.0 80.33333333333333 L 76.0 80.66666666666667 L 77.0 81.0 L 78.0 81.0 L 79.0 81.0 L 80.0 81.0 L 81.0 81.0 L 82.0 81.0 L 83.0 81.0 L 84.0 81.0 L 85.0 81.0 L 86.0 81.0 L 87.0 81.0 L 88.0 81.0 L 89.0 81.0 L 90.0 81.0 L 91.0 81.0 L 92.0 81.0 L 93.0 81.0 L 94.0 81.0 L 95.0 81.0 L 96.0 81.0 L 97.0 81.0 L 98.0 81.0 L 99.0 81.0 L 100.0 81.0 L 101.0 81.0 L 102.0 81.0 L 103.0 81.0 L 104.0 81.0 L 105.0 81.0 L 106.0 81.0 L 107.0 81.0 L 108.0 81.0 L 109.0 81.0 L 110.0 81.0 L 111.0 81.0 L 112.0 81.0 L 113.0 80.66666666666667 L 114.0 80.33333333333333 L 115.0 80.0 L 116.0 80.0 L 117.0 80.0 L 118.0 80.0 L 119.0 80.0 L 120.0 80.0 L 121.0 79.66666666666667 L 122.0 79.33333333333333 L 123.0 78.66666666666667 L 124.0 78.0 L 124.66666666666667 77.0 L 125.0 76.0 L 125.0 75.0 L 124.66666666666667 74.0 L 124.0 73.0 L 123.0 72.33333333333333 L 122.0 72.0 L 121.0 72.0 L 120.0 72.0 L 119.0 72.0 L 118.0 72.33333333333333 L 117.0 72.66666666666667 L 116.0 73.33333333333333 L 115.0 73.33333333333333 L 114.0 73.33333333333333 L 113.0 73.0 L 112.0 73.33333333333333 L 111.0 73.66666666666667 L 110.0 74.0 L 109.0 74.0 L 108.0 74.0 L 107.0 74.0 L 106.0 74.0 L 105.0 74.0 L 104.0 74.0 L 103.0 74.0 L 102.0 74.0 L 101.0 74.0 L 100.0 74.0 L 99.0 74.33333333333333 L 98.0 74.66666666666667 L 97.0 75.0 L 96.0 75.0 L 95.0 75.0 L 94.0 75.0 L 93.0 75.0 L 92.0 75.0 L 91.0 75.0 L 90.0 75.0 L 89.0 75.0 L 88.0 75.0 L 87.0 75.0 L 86.0 75.0 L 85.0 75.0 L 84.0 75.0 L 83.0 75.0 L 82.0 74.66666666666667 L 81.0 74.33333333333333 L 80.0 74.0 L 79.0 74.0 L 78.0 74.0 L 77.0 74.0 L 76.0 74.0 L 75.0 74.0 L 74.0 74.0 L 73.0 74.0 L 72.0 73.66666666666667 L 71.0 73.33333333333333 L 70.0 73.0 L 69.0 73.0 L 68.0 73.0 L 67.0 72.66666666666667 L 66.0 72.33333333333333 L 65.0 72.0 L 64.0 72.0 L 63.0 72.0 L 62.0 71.66666666666667 L 61.0 71.33333333333333 L 60.0 71.0 L 59.0 70.66666666666667 L 58.0 70.33333333333333 L 57.0 70.0 L 56.0 69.66666666666667 L 55.0 69.33333333333333 L 54.0 69.0 L 53.0 68.66666666666667 L 52.0 68.33333333333333 L 51.0 68.0 L 50.0 67.66666666666667 L 49.0 67.33333333333333 L 48.0 66.66666666666667 L 47.0 66.33333333333333 L 46.0 66.0 L 45.0 65.66666666666667 L 44.0 65.33333333333333 L 43.0 65.0 L 42.0 64.66666666666667 L 41.0 64.33333333333333 L 40.0 64.0 L 39.0 64.0 L 38.0 64.0 L 37.0 63.666666666666664 L 36.0 63.333333333333336 L 35.0 63.0 L 34.0 62.666666666666664 L 33.0 62.333333333333336 L 32.0 62.0 L 31.0 62.0 L 30.0 61.666666666666664 L 29.0 61.333333333333336 L 28.0 61.0 L 27.0 61.0 L 26.333333333333332 61.333333333333336 L 26.0 62.0 L 26.333333333333332 63.0 L 26.666666666666668 64.0 L 27.0 65.0 L 27.0 66.0 L 27.333333333333332 66.66666666666667 L 28.0 67.33333333333333 L 29.0 67.66666666666667 L 30.0 68.0 L 31.0 68.33333333333333 L 32.0 68.66666666666667 L 33.0 69.0 L 34.0 69.33333333333333 L 35.0 69.66666666666667 L 36.0 70.0 L 37.0 70.33333333333333 L 38.0 70.66666666666667 L 39.0 71.0 L 40.0 71.33333333333333 L 41.0 71.66666666666667 L 42.0 72.33333333333333 L 43.0 72.66666666666667 L 44.0 73.0 L 45.0 73.33333333333333 L 46.0 73.66666666666667 L 47.0 74.0 L 48.0 74.33333333333333 L 49.0 74.66666666666667 L 50.0 75.33333333333333 L 51.0 75.66666666666667 L 52.0 76.0 L 53.0 76.33333333333333 L 54.0 76.66666666666667 L 55.0 77.0 L 56.0 77.0 L 57.0 77.33333333333333 L 58.0 77.66666666666667 L 58.5 78.0 Z" stroke="none" fill="rgb(183,213,229)" />
<path d="M 83.5 68.0 L 84.0 67.66666666666667 L 85.0 67.33333333333333 L 86.0 66.66666666666667 L 86.66666666666667 66.0 L 87.0 65.0 L 87.0 64.0 L 86.66666666666667 63.333333333333336 L 86.0 63.0 L 85.0 63.0 L 84.0 63.0 L 83.0 63.333333333333336 L 82.0 63.666666666666664 L 81.0 64.33333333333333 L 80.33333333333333 65.0 L 80.0 66.0 L 80.0 67.0 L 80.33333333333333 67.66666666666667 L 81.0 68.0 L 82.0 68.0 L 82.5 68.0 Z" stroke="none" fill="rgb(240,249,251)" />
<path d="M 59.5 81.5 L 60.0 81.66666666666667 L 61.0 82.0 L 62.0 82.0 L 63.0 82.33333333333333 L 64.0 82.66666666666667 L 65.0 83.0 L 66.0 83.0 L 67.0 83.0 L 68.0 83.33333333333333 L 69.0 83.66666666666667 L 70.0 84.0 L 71.0 84.0 L 72.0 84.0 L 73.0 84.0 L 74.0 84.0 L 75.0 84.0 L 76.0 84.33333333333333 L 77.0 84.66666666666667 L 78.0 85.0 L 79.0 85.0 L 80.0 85.0 L 81.0 85.0 L 82.0 85.0 L 83.0 85.0 L 84.0 85.0 L 85.0 85.0 L 86.0 85.0 L 87.0 85.0 L 88.0 85.0 L 89.0 85.0 L 90.0 85.0 L 91.0 85.0 L 92.0 85.0 L 93.0 85.0 L 94.0 85.0 L 95.0 85.0 L 96.0 85.0 L 97.0 85.0 L 98.0 85.0 L 99.0 85.0 L 100.0 85.0 L 101.0 85.0 L 102.0 85.0 L 103.0 85.0 L 104.0 85.0 L 105.0 85.0 L 106.0 85.0 L 107.0 85.0 L 108.0 85.0 L 109.0 85.0 L 110.0 85.33333333333333 L 111.0 85.66666666666667 L 112.0 85.66666666666667 L 113.0 85.33333333333333 L 114.0 84.66666666666667 L 115.0 84.33333333333333 L 116.0 84.0 L 117.0 84.0 L 118.0 84.0 L 119.0 83.66666666666667 L 120.0 83.33333333333333 L 120.66666666666667 82.66666666666667 L 121.0 82.0 L 121.0 81.0 L 120.66666666666667 80.33333333333333 L 120.0 80.0 L 119.0 80.0 L 118.0 80.0 L 117.0 80.0 L 116.0 80.0 L 115.0 80.0 L 114.0 80.0 L 113.0 80.33333333333333 L 112.0 80.66666666666667 L 111.0 81.0 L 110.0 81.0 L 109.0 81.0 L 108.0 81.0 L 107.0 81.0 L 106.0 81.0 L 105.0 81.0 L 104.0 81.0 L 103.0 81.0 L 102.0 81.0 L 101.0 81.0 L 100.0 81.0 L 99.0 81.0 L 98.0 81.0 L 97.0 81.0 L 96.0 81.0 L 95.0 81.0 L 94.0 81.0 L 93.0 81.0 L 92.0 81.0 L 91.0 81.0 L 90.0 81.0 L 89.0 81.0 L 88.0 81.0 L 87.0 81.0 L 86.0 81.0 L 85.0 81.0 L 84.0 81.0 L 83.0 81.0 L 82.0 81.0 L 81.0 81.0 L 80.0 81.0 L 79.0 81.0 L 78.0 81.0 L 77.0 80.66666666666667 L 76.0 80.33333333333333 L 75.0 80.0 L 74.0 80.0 L 73.0 80.0 L 72.0 80.0 L 71.0 80.0 L 70.0 80.0 L 69.0 80.0 L 68.0 79.66666666666667 L 67.0 79.33333333333333 L 66.0 79.0 L 65.0 79.0 L 64.0 79.0 L 63.0 78.66666666666667 L 62.0 78.33333333333333 L 61.0 78.0 L 60.0 78.0 L 59.0 77.66666666666667 L 58.0 77.33333333333333 L 57.0 77.0 L 56.0 77.0 L 55.0 76.66666666666667 L 54.0 76.33333333333333 L 53.0 76.0 L 52.0 75.66666666666667 L 51.0 75.33333333333333 L 50.0 74.66666666666667 L 49.0 74.33333333333333 L 48.0 74.0 L 47.0 73.66666666666667 L 46.0 73.33333333333333 L 45.0 73.0 L 44.0 72.66666666666667 L 43.0 72.33333333333333 L 42.0 71.66666666666667 L 41.0 71.33333333333333 L 40.0 71.0 L 39.0 70.66666666666667 L 38.0 70.33333333333333 L 37.0 70.0 L 36.0 69.66666666666667 L 35.0 69.33333333333333 L 34.0 69.0 L 33.0 68.66666666666667 L 32.0 68.33333333333333 L 31.0 68.0 L 30.0 67.66666666666667 L 29.0 67.33333333333333 L 28.0 67.0 L 27.0 67.0 L 26.0 66.66666666666667 L 25.0 66.33333333333333 L 24.0 66.0 L 23.0 66.0 L 22.0 66.0 L 21.0 65.66666666666667 L 20.0 65.33333333333333 L 19.0 65.0 L 18.0 65.0 L 17.0 65.0 L 16.0 65.0 L 15.0 65.33333333333333 L 14.0 65.66666666666667 L 13.0 66.0 L 12.0 66.0 L 11.0 66.0 L 10.0 66.33333333333333 L 9.333333333333334 67.0 L 9.0 68.0 L 9.333333333333334 69.0 L 10.0 69.66666666666667 L 11.0 69.66666666666667 L 12.0 69.33333333333333 L 13.0 69.33333333333333 L 14.0 69.66666666666667 L 15.0 69.66666666666667 L 16.0 69.33333333333333 L 17.0 69.0 L 18.0 69.0 L 19.0 69.0 L 20.0 69.0 L 21.0 69.0 L 22.0 69.33333333333333 L 23.0 69.66666666666667 L 24.0 70.0 L 25.0 70.0 L 26.0 70.33333333333333 L 27.0 70.66666666666667 L 28.0 71.0 L 29.0 71.33333333333333 L 30.0 71.66666666666667 L 31.0 72.0 L 32.0 72.33333333333333 L 33.0 72.66666666666667 L 34.0 73.0 L 35.0 73.33333333333333 L 36.0 73.66666666666667 L 37.0 74.0 L 38.0 74.33333333333333 L 39.0 74.66666666666667 L 40.0 75.33333333333333 L 41.0 75.66666666666667 L 42.0 76.0 L 43.0 76.33333333333333 L 44.0 76.66666666666667 L 45.0 77.0 L 46.0 77.33333333333333 L 47.0 77.66666666666667 L 48.0 78.0 L 49.0 78.33333333333333 L 50.0 78.66666666666667 L 51.0 79.0 L 52.0 79.33333333333333 L 53.0 79.66666666666667 L 54.0 80.0 L 55.0 80.33333333333333 L 56.0 80.66666666666667 L 57.0 81.0 L 58.0 81.0 L 58.5 81.0 Z" stroke="none" fill="rgb(105,161,186)" />
<path d="M 88.5 72.5 L 89.0 72.0 L 89.66666666666667 71.0 L 89.66666666666667 70.0 L 89.33333333333333 69.0 L 88.66666666666667 68.33333333333333 L 88.0 68.0 L 87.0 68.0 L 86.0 68.33333333333333 L 85.33333333333333 69.0 L 85.0 70.0 L 85.0 71.0 L 85.33333333333333 72.0 L 86.0 72.66666666666667 L 87.0 73.0 L 87.5 73.0 Z" stroke="none" fill="rgb(0,0,0)" />
<path d="M 24.5 108.5 L 25.0 108.0 L 25.666666666666668 107.0 L 26.0 106.0 L 25.666666666666668 105.0 L 25.333333333333332 104.0 L 24.666666666666668 103.0 L 24.333333333333332 102.0 L 23.666666666666668 101.0 L 23.333333333333332 100.0 L 22.666666666666668 99.0 L 22.333333333333332 98.0 L 22.0 97.0 L 21.666666666666668 96.0 L 21.333333333333332 95.0 L 21.0 94.0 L 20.666666666666668 93.0 L 20.333333333333332 92.0 L 20.0 91.0 L 20.0 90.0 L 19.666666666666668 89.0 L 19.333333333333332 88.0 L 19.0 87.0 L 19.0 86.0 L 19.0 85.0 L 18.666666666666668 84.0 L 18.333333333333332 83.0 L 18.0 82.0 L 18.0 81.0 L 17.666666666666668 80.0 L 17.333333333333332 79.0 L 17.0 78.0 L 17.0 77.0 L 16.666666666666668 76.0 L 16.333333333333332 75.0 L 16.0 74.0 L 15.666666666666666 73.0 L 15.333333333333334 72.0 L 15.0 71.0 L 14.666666666666666 70.0 L 14.0 69.33333333333333 L 13.0 69.0 L 12.0 69.0 L 11.0 69.33333333333333 L 10.333333333333334 70.0 L 10.333333333333334 71.0 L 10.666666666666666 72.0 L 11.333333333333334 73.0 L 11.666666666666666 74.0 L 12.0 75.0 L 12.333333333333334 76.0 L 12.666666666666666 77.0 L 13.0 78.0 L 13.0 79.0 L 13.333333333333334 80.0 L 13.666666666666666 81.0 L 14.0 82.0 L 14.0 83.0 L 14.0 84.0 L 14.333333333333334 85.0 L 14.666666666666666 86.0 L 15.0 87.0 L 15.0 88.0 L 15.333333333333334 89.0 L 15.666666666666666 90.0 L 16.0 91.0 L 16.0 92.0 L 16.0 93.0 L 16.333333333333332 94.0 L 16.666666666666668 95.0 L 17.0 96.0 L 17.333333333333332 97.0 L 17.666666666666668 98.0 L 18.0 99.0 L 18.333333333333332 100.0 L 18.666666666666668 101.0 L 19.0 102.0 L 19.333333333333332 103.0 L 19.666666666666668 104.0 L 20.333333333333332 105.0 L 20.666666666666668 106.0 L 21.333333333333332 107.0 L 22.0 108.0 L 23.0 108.66666666666667 L 23.5 109.0 Z" stroke="none" fill="rgb(183,213,229)" />
<path d="M 95.5 110.0 L 96.0 109.66666666666667 L 97.0 109.33333333333333 L 98.0 108.66666666666667 L 99.0 108.0 L 100.0 107.0 L 101.0 106.66666666666667 L 102.0 106.66666666666667 L 103.0 107.0 L 104.0 106.66666666666667 L 105.0 106.33333333333333 L 106.0 106.33333333333333 L 107.0 106.66666666666667 L 108.0 107.0 L 109.0 107.0 L 110.0 107.0 L 110.66666666666667 106.66666666666667 L 111.0 106.0 L 111.33333333333333 105.0 L 111.66666666666667 104.0 L 112.0 103.0 L 112.0 102.0 L 112.0 101.0 L 112.0 100.0 L 112.0 99.0 L 112.0 98.0 L 112.0 97.0 L 112.0 96.0 L 112.0 95.0 L 112.0 94.0 L 112.0 93.0 L 112.0 92.0 L 112.0 91.0 L 112.0 90.0 L 112.0 89.0 L 112.0 88.0 L 112.0 87.0 L 111.66666666666667 86.0 L 111.0 85.33333333333333 L 110.0 85.0 L 109.0 85.0 L 108.0 85.0 L 107.0 85.0 L 106.0 85.0 L 105.0 85.0 L 104.0 85.0 L 103.0 85.0 L 102.0 85.0 L 101.0 85.0 L 100.0 85.0 L 99.0 85.0 L 98.0 85.0 L 97.0 85.0 L 96.0 85.0 L 95.0 85.0 L 94.0 85.0 L 93.0 85.0 L 92.0 85.0 L 91.0 85.0 L 90.0 85.0 L 89.0 85.0 L 88.0 85.0 L 87.0 85.0 L 86.0 85.0 L 85.0 85.0 L 84.0 85.0 L 83.0 85.0 L 82.0 85.0 L 81.0 85.0 L 80.0 85.0 L 79.0 85.0 L 78.0 84.66666666666667 L 77.0 84.33333333333333 L 76.0 84.0 L 75.0 84.0 L 74.0 84.0 L 73.0 84.0 L 72.0 84.0 L 71.0 84.0 L 70.0 83.66666666666667 L 69.0 83.33333333333333 L 68.0 83.0 L 67.0 83.0 L 66.0 83.0 L 65.0 82.66666666666667 L 64.0 82.33333333333333 L 63.0 82.0 L 62.0 82.0 L 61.0 81.66666666666667 L 60.0 81.33333333333333 L 59.0 81.0 L 58.0 81.0 L 57.0 80.66666666666667 L 56.0 80.33333333333333 L 55.0 80.0 L 54.0 79.66666666666667 L 53.0 79.33333333333333 L 52.0 79.0 L 51.0 78.66666666666667 L 50.0 78.33333333333333 L 49.0 78.0 L 48.0 77.66666666666667 L 47.0 77.33333333333333 L 46.0 77.0 L 45.0 76.66666666666667 L 44.0 76.33333333333333 L 43.0 76.0 L 42.0 75.66666666666667 L 41.0 75.33333333333333 L 40.0 74.66666666666667 L 39.0 74.33333333333333 L 38.0 74.0 L 37.0 73.66666666666667 L 36.0 73.33333333333333 L 35.0 73.0 L 34.0 72.66666666666667 L 33.0 72.33333333333333 L 32.0 72.0 L 31.0 71.66666666666667 L 30.0 71.33333333333333 L 29.0 71.0 L 28.0 70.66666666666667 L 27.0 70.33333333333333 L 26.0 70.0 L 25.0 70.0 L 24.0 69.66666666666667 L 23.0 69.33333333333333 L 22.0 69.0 L 21.0 69.0 L 20.0 69.0 L 19.0 69.0 L 18.0 69.0 L 17.0 69.0 L 16.0 69.0 L 15.333333333333334 69.33333333333333 L 15.0 70.0 L 15.0 71.0 L 15.0 72.0 L 15.333333333333334 73.0 L 15.666666666666666 74.0 L 16.0 75.0 L 16.333333333333332 76.0 L 16.666666666666668 77.0 L 17.0 78.0 L 17.0 79.0 L 17.333333333333332 80.0 L 17.666666666666668 81.0 L 18.0 82.0 L 18.0 83.0 L 18.333333333333332 84.0 L 18.666666666666668 85.0 L 19.0 86.0 L 19.0 87.0 L 19.0 88.0 L 19.333333333333332 89.0 L 19.666666666666668 90.0 L 20.0 91.0 L 20.0 92.0 L 20.333333333333332 93.0 L 20.666666666666668 94.0 L 21.0 95.0 L 21.333333333333332 96.0 L 21.666666666666668 97.0 L 22.0 98.0 L 22.333333333333332 99.0 L 22.666666666666668 100.0 L 23.333333333333332 101.0 L 23.666666666666668 102.0 L 24.333333333333332 103.0 L 24.666666666666668 104.0 L 25.333333333333332 105.0 L 26.0 105.66666666666667 L 27.0 106.33333333333333 L 28.0 106.66666666666667 L 29.0 107.0 L 30.0 107.0 L 31.0 106.66666666666667 L 32.0 106.33333333333333 L 33.0 106.33333333333333 L 34.0 106.66666666666667 L 35.0 107.0 L 36.0 106.66666666666667 L 37.0 106.66666666666667 L 38.0 106.66666666666667 L 39.0 107.33333333333333 L 40.0 108.0 L 41.0 108.66666666666667 L 42.0 109.0 L 43.0 109.0 L 44.0 109.0 L 45.0 109.0 L 46.0 109.0 L 47.0 109.0 L 48.0 109.0 L 49.0 109.0 L 50.0 109.0 L 51.0 109.0 L 52.0 109.0 L 53.0 109.0 L 54.0 109.0 L 55.0 109.0 L 56.0 109.0 L 57.0 109.0 L 58.0 109.0 L 59.0 109.0 L 60.0 109.0 L 61.0 109.0 L 62.0 109.0 L 63.0 109.33333333333333 L 64.0 109.66666666666667 L 65.0 110.0 L 66.0 110.0 L 67.0 110.0 L 68.0 110.0 L 69.0 110.0 L 70.0 110.0 L 71.0 110.0 L 72.0 110.0 L 73.0 110.0 L 74.0 110.0 L 75.0 110.0 L 76.0 110.0 L 77.0 110.0 L 78.0 110.0 L 79.0 110.0 L 80.0 110.0 L 81.0 110.0 L 82.0 110.0 L 83.0 110.0 L 84.0 110.0 L 85.0 110.0 L 86.0 110.0 L 87.0 110.0 L 88.0 110.0 L 89.0 110.0 L 90.0 110.0 L 91.0 110.0 L 92.0 110.0 L 93.0 110.0 L 94.0 110.0 L 94.5 110.0 Z" stroke="none" fill="rgb(238,238,238)" />
<path d="M 116.5 73.5 L 117.0 73.33333333333333 L 117.66666666666667 72.66666666666667 L 118.0 72.0 L 117.66666666666667 71.0 L 117.0 70.0 L 116.0 69.33333333333333 L 115.0 69.0 L 114.0 69.0 L 113.33333333333333 69.33333333333333 L 113.0 70.0 L 113.33333333333333 71.0 L 113.66666666666667 72.0 L 114.0 73.0 L 114.33333333333333 73.66666666666667 L 115.0 74.0 L 115.5 74.0 Z" stroke="none" fill="rgb(170,201,213)" />
<path d="M 75.5 74.0 L 76.0 74.0 L 76.66666666666667 73.66666666666667 L 77.0 73.0 L 76.66666666666667 72.33333333333333 L 76.0 72.0 L 75.0 72.0 L 74.33333333333333 72.33333333333333 L 74.0 73.0 L 74.33333333333333 73.66666666666667 L 74.5 74.0 Z" stroke="none" fill="rgb(0,0,0)" />
<path d="M 24.5 94.5 L 24.666666666666668 95.0 L 25.0 96.0 L 25.333333333333332 97.0 L 25.666666666666668 98.0 L 26.333333333333332 99.0 L 27.0 100.0 L 28.0 101.0 L 29.0 102.0 L 30.0 102.66666666666667 L 31.0 103.0 L 32.0 103.0 L 33.0 103.0 L 33.666666666666664 102.66666666666667 L 34.0 102.0 L 34.0 101.0 L 34.0 100.0 L 34.0 99.0 L 33.666666666666664 98.0 L 33.333333333333336 97.0 L 33.0 96.0 L 32.666666666666664 95.0 L 32.333333333333336 94.0 L 32.0 93.0 L 32.0 92.0 L 32.0 91.0 L 32.0 90.0 L 32.0 89.0 L 32.0 88.0 L 32.0 87.0 L 32.0 86.0 L 32.0 85.0 L 32.0 84.0 L 32.0 83.0 L 32.0 82.0 L 32.0 81.0 L 32.0 80.0 L 32.0 79.0 L 31.666666666666668 78.0 L 31.0 77.0 L 30.0 76.0 L 29.0 75.0 L 28.0 74.33333333333333 L 27.0 74.0 L 26.0 73.66666666666667 L 25.0 73.33333333333333 L 24.0 73.0 L 23.0 73.33333333333333 L 22.0 73.66666666666667 L 21.0 74.33333333333333 L 20.333333333333332 75.0 L 20.0 76.0 L 20.0 77.0 L 20.0 78.0 L 20.333333333333332 79.0 L 20.666666666666668 80.0 L 21.0 81.0 L 21.0 82.0 L 21.333333333333332 83.0 L 21.666666666666668 84.0 L 22.0 85.0 L 22.333333333333332 86.0 L 22.666666666666668 87.0 L 23.0 88.0 L 23.0 89.0 L 23.333333333333332 90.0 L 23.666666666666668 91.0 L 24.0 92.0 L 24.0 93.0 L 24.0 93.5 Z" stroke="none" fill="rgb(255,255,255)" />
<path d="M 116.5 106.5 L 116.66666666666667 106.0 L 117.0 105.0 L 117.33333333333333 104.0 L 117.66666666666667 103.0 L 118.0 102.0 L 118.33333333333333 101.0 L 118.66666666666667 100.0 L 119.0 99.0 L 119.0 98.0 L 119.0 97.0 L 119.33333333333333 96.0 L 119.66666666666667 95.0 L 120.0 94.0 L 120.0 93.0 L 120.0 92.0 L 120.0 91.0 L 120.0 90.0 L 120.0 89.0 L 120.0 88.0 L 120.33333333333333 87.0 L 120.66666666666667 86.0 L 121.0 85.0 L 121.0 84.0 L 120.66666666666667 83.33333333333333 L 120.0 83.0 L 119.0 83.33333333333333 L 118.0 83.66666666666667 L 117.0 84.0 L 116.0 84.0 L 115.0 84.0 L 114.0 84.33333333333333 L 113.0 84.66666666666667 L 112.33333333333333 85.33333333333333 L 112.0 86.0 L 112.0 87.0 L 112.0 88.0 L 112.0 89.0 L 112.0 90.0 L 112.0 91.0 L 112.0 92.0 L 112.0 93.0 L 112.0 94.0 L 112.0 95.0 L 112.0 96.0 L 112.0 97.0 L 112.0 98.0 L 112.0 99.0 L 112.0 100.0 L 112.0 101.0 L 112.0 102.0 L 111.66666666666667 103.0 L 111.33333333333333 104.0 L 111.0 105.0 L 111.0 106.0 L 111.33333333333333 106.66666666666667 L 112.0 107.33333333333333 L 112.66666666666667 108.0 L 113.33333333333333 108.66666666666667 L 114.0 109.0 L 114.66666666666667 108.66666666666667 L 115.33333333333333 108.0 L 115.5 107.5 Z" stroke="none" fill="rgb(183,213,229)" />
<path d="M 36.5 113.0 L 37.0 112.66666666666667 L 37.666666666666664 112.0 L 38.0 111.0 L 37.666666666666664 110.33333333333333 L 37.0 110.0 L 36.0 109.66666666666667 L 35.0 109.0 L 34.333333333333336 108.0 L 34.0 107.0 L 33.666666666666664 106.0 L 33.0 105.33333333333333 L 32.0 105.33333333333333 L 31.0 106.0 L 30.0 106.66666666666667 L 29.0 106.66666666666667 L 28.0 106.33333333333333 L 27.0 106.0 L 26.0 106.33333333333333 L 25.0 107.0 L 24.333333333333332 108.0 L 24.0 109.0 L 24.333333333333332 110.0 L 25.0 111.0 L 26.0 111.66666666666667 L 27.0 112.33333333333333 L 27.666666666666668 113.0 L 27.666666666666668 114.0 L 27.333333333333332 115.0 L 27.0 116.0 L 27.333333333333332 116.66666666666667 L 28.0 117.33333333333333 L 28.333333333333332 118.0 L 28.0 118.66666666666667 L 27.0 119.0 L 26.0 118.66666666666667 L 25.0 118.33333333333333 L 24.0 118.0 L 23.0 118.33333333333333 L 22.333333333333332 119.0 L 22.0 120.0 L 22.333333333333332 121.0 L 23.0 121.66666666666667 L 24.0 122.0 L 25.0 122.0 L 26.0 122.0 L 27.0 122.0 L 28.0 122.0 L 29.0 122.0 L 30.0 122.0 L 31.0 122.0 L 32.0 121.66666666666667 L 32.666666666666664 121.0 L 33.0 120.0 L 33.0 119.0 L 33.0 118.0 L 33.0 117.0 L 33.333333333333336 116.0 L 34.0 115.0 L 35.0 114.0 L 35.5 113.5 Z" stroke="none" fill="rgb(189,189,189)" />
<path d="M 107.5 122.0 L 108.0 122.0 L 109.0 122.0 L 110.0 122.0 L 111.0 122.0 L 112.0 122.0 L 113.0 122.0 L 114.0 122.0 L 115.0 122.0 L 115.66666666666667 121.66666666666667 L 116.0 121.0 L 116.0 120.0 L 115.66666666666667 119.0 L 115.0 118.0 L 114.0 117.0 L 113.0 116.33333333333333 L 112.0 115.66666666666667 L 111.0 115.0 L 110.33333333333333 114.0 L 110.33333333333333 113.0 L 111.0 112.33333333333333 L 112.0 111.66666666666667 L 113.0 111.0 L 113.66666666666667 110.0 L 113.66666666666667 109.0 L 113.33333333333333 108.0 L 112.66666666666667 107.33333333333333 L 112.0 107.0 L 111.0 107.0 L 110.0 107.0 L 109.0 107.0 L 108.0 106.66666666666667 L 107.0 106.0 L 106.0 105.33333333333333 L 105.0 105.33333333333333 L 104.33333333333333 106.0 L 104.0 107.0 L 103.66666666666667 108.0 L 103.0 108.66666666666667 L 102.0 109.33333333333333 L 101.0 109.66666666666667 L 100.33333333333333 110.33333333333333 L 100.0 111.0 L 100.33333333333333 112.0 L 101.0 112.66666666666667 L 102.0 113.33333333333333 L 103.0 114.0 L 104.0 115.0 L 104.66666666666667 116.0 L 105.0 117.0 L 105.0 118.0 L 105.0 119.0 L 105.0 120.0 L 105.33333333333333 121.0 L 106.0 121.66666666666667 L 106.5 122.0 Z" stroke="none" fill="rgb(189,189,189)" />
<path d="M 44.5 113.0 L 45.0 113.0 L 46.0 113.0 L 47.0 113.0 L 48.0 113.0 L 49.0 113.0 L 50.0 113.0 L 51.0 113.0 L 52.0 113.0 L 53.0 113.0 L 54.0 113.0 L 55.0 113.0 L 56.0 113.0 L 57.0 113.0 L 58.0 113.0 L 59.0 113.0 L 60.0 113.0 L 61.0 113.0 L 62.0 113.0 L 63.0 113.0 L 64.0 113.0 L 65.0 113.0 L 66.0 113.33333333333333 L 67.0 113.66666666666667 L 68.0 114.0 L 69.0 114.0 L 70.0 114.0 L 71.0 114.0 L 72.0 114.0 L 73.0 114.0 L 74.0 114.0 L 75.0 114.0 L 76.0 114.0 L 77.0 114.0 L 78.0 114.0 L 79.0 114.0 L 80.0 114.0 L 81.0 114.0 L 82.0 114.0 L 83.0 114.0 L 84.0 114.0 L 85.0 114.0 L 86.0 114.0 L 87.0 114.0 L 88.0 114.0 L 89.0 114.0 L 90.0 114.0 L 91.0 114.0 L 92.0 114.0 L 93.0 114.0 L 94.0 114.0 L 95.0 114.0 L 96.0 114.0 L 97.0 114.0 L 97.66666666666667 113.66666666666667 L 98.33333333333333 113.0 L 99.0 112.33333333333333 L 99.66666666666667 111.66666666666667 L 100.33333333333333 111.0 L 101.0 110.33333333333333 L 101.66666666666667 109.66666666666667 L 102.0 109.0 L 102.0 108.0 L 102.0 107.0 L 101.66666666666667 106.33333333333333 L 101.0 106.0 L 100.0 106.33333333333333 L 99.0 107.0 L 98.0 108.0 L 97.0 108.66666666666667 L 96.0 109.33333333333333 L 95.0 109.66666666666667 L 94.0 110.0 L 93.0 110.0 L 92.0 110.0 L 91.0 110.0 L 90.0 110.0 L 89.0 110.0 L 88.0 110.0 L 87.0 110.0 L 86.0 110.0 L 85.0 110.0 L 84.0 110.0 L 83.0 110.0 L 82.0 110.0 L 81.0 110.0 L 80.0 110.0 L 79.0 110.0 L 78.0 110.0 L 77.0 110.0 L 76.0 110.0 L 75.0 110.0 L 74.0 110.0 L 73.0 110.0 L 72.0 110.0 L 71.0 110.0 L 70.0 110.0 L 69.0 110.0 L 68.0 110.0 L 67.0 110.0 L 66.0 110.0 L 65.0 109.66666666666667 L 64.0 109.33333333333333 L 63.0 109.0 L 62.0 109.0 L 61.0 109.0 L 60.0 109.0 L 59.0 109.0 L 58.0 109.0 L 57.0 109.0 L 56.0 109.0 L 55.0 109.0 L 54.0 109.0 L 53.0 109.0 L 52.0 109.0 L 51.0 109.0 L 50.0 109.0 L 49.0 109.0 L 48.0 109.0 L 47.0 109.0 L 46.0 109.0 L 45.0 109.0 L 44.0 109.0 L 43.0 109.0 L 42.0 108.66666666666667 L 41.0 108.0 L 40.0 107.33333333333333 L 39.0 106.66666666666667 L 38.0 106.33333333333333 L 37.0 106.0 L 36.333333333333336 106.33333333333333 L 36.0 107.0 L 36.333333333333336 108.0 L 37.0 109.0 L 38.0 110.0 L 39.0 111.0 L 40.0 112.0 L 41.0 112.66666666666667 L 42.0 113.0 L 43.0 113.0 L 43.5 113.0 Z" stroke="none" fill="rgb(183,213,229)" />
<path d="M 36.5 110.0 L 37.0 110.0 L 37.666666666666664 109.66666666666667 L 37.666666666666664 109.0 L 37.0 108.0 L 36.0 107.33333333333333 L 35.0 107.0 L 34.333333333333336 107.33333333333333 L 34.0 108.0 L 34.333333333333336 109.0 L 35.0 109.66666666666667 L 35.5 110.0 Z" stroke="none" fill="rgb(143,159,166)" />
<path d="M 103.5 109.0 L 103.66666666666667 108.66666666666667 L 104.0 108.0 L 103.66666666666667 107.33333333333333 L 103.0 107.0 L 102.33333333333333 107.33333333333333 L 102.0 108.0 L 102.33333333333333 108.66666666666667 L 102.5 109.0 Z" stroke="none" fill="rgb(143,159,166)" />
<path d="M 39.0 111.5 L 39.0 111.0 L 38.666666666666664 110.33333333333333 L 38.333333333333336 110.33333333333333 L 38.0 111.0 L 38.333333333333336 111.66666666666667 L 38.5 112.0 Z" stroke="none" fill="rgb(143,159,166)" />
<path d="M 35.0 122.5 L 35.0 122.0 L 35.0 121.0 L 35.0 120.0 L 35.0 119.0 L 35.0 118.0 L 35.0 117.0 L 35.333333333333336 116.0 L 36.0 115.33333333333333 L 37.0 114.66666666666667 L 38.0 114.33333333333333 L 39.0 114.0 L 40.0 113.66666666666667 L 40.666666666666664 113.0 L 40.666666666666664 112.0 L 40.0 111.33333333333333 L 39.0 111.33333333333333 L 38.0 111.66666666666667 L 37.0 112.33333333333333 L 36.0 112.66666666666667 L 35.0 113.33333333333333 L 34.0 114.0 L 33.333333333333336 115.0 L 33.0 116.0 L 33.0 117.0 L 33.0 118.0 L 33.0 119.0 L 32.666666666666664 120.0 L 32.0 121.0 L 31.0 121.66666666666667 L 30.0 122.0 L 29.0 122.0 L 28.0 122.0 L 27.0 122.0 L 26.0 122.0 L 25.0 122.0 L 24.0 122.0 L 23.0 122.0 L 22.333333333333332 122.33333333333333 L 22.0 123.0 L 22.333333333333332 123.66666666666667 L 23.0 124.0 L 24.0 124.0 L 25.0 124.0 L 26.0 124.0 L 27.0 124.0 L 28.0 124.0 L 29.0 124.0 L 30.0 124.0 L 31.0 124.0 L 32.0 124.0 L 33.0 124.0 L 34.0 123.66666666666667 L 34.5 123.5 Z" stroke="none" fill="rgb(121,144,156)" />
<path d="M 111.5 124.0 L 112.0 124.0 L 113.0 124.0 L 114.0 124.0 L 115.0 124.0 L 115.66666666666667 123.66666666666667 L 116.0 123.0 L 115.66666666666667 122.33333333333333 L 115.0 122.0 L 114.0 122.0 L 113.0 122.0 L 112.0 122.0 L 111.0 122.0 L 110.0 122.0 L 109.0 122.0 L 108.0 122.0 L 107.0 121.66666666666667 L 106.0 121.0 L 105.33333333333333 120.0 L 105.0 119.0 L 105.0 118.0 L 105.0 117.0 L 105.0 116.0 L 104.66666666666667 115.0 L 104.0 114.0 L 103.0 113.33333333333333 L 102.0 112.66666666666667 L 101.0 112.33333333333333 L 100.0 112.0 L 99.0 112.0 L 98.33333333333333 112.33333333333333 L 98.0 113.0 L 98.33333333333333 113.66666666666667 L 99.0 114.0 L 100.0 114.33333333333333 L 101.0 114.66666666666667 L 102.0 115.33333333333333 L 102.66666666666667 116.0 L 103.0 117.0 L 103.0 118.0 L 103.0 119.0 L 103.0 120.0 L 103.0 121.0 L 103.0 122.0 L 103.33333333333333 123.0 L 104.0 123.66666666666667 L 105.0 124.0 L 106.0 124.0 L 107.0 124.0 L 108.0 124.0 L 109.0 124.0 L 110.0 124.0 L 110.5 124.0 Z" stroke="none" fill="rgb(121,144,156)" />
<path d="M 27.5 119.0 L 28.0 119.0 L 28.666666666666668 118.66666666666667 L 29.0 118.0 L 28.666666666666668 117.33333333333333 L 28.0 117.0 L 27.0 117.0 L 26.0 117.33333333333333 L 25.333333333333332 118.0 L 25.333333333333332 118.66666666666667 L 26.0 119.0 L 26.5 119.0 Z" stroke="none" fill="rgb(224,233,237)" />
<path d="M 107.5 119.0 L 108.0 119.0 L 108.66666666666667 118.66666666666667 L 109.0 118.0 L 108.66666666666667 117.33333333333333 L 108.0 117.33333333333333 L 107.33333333333333 118.0 L 107.0 118.5 Z" stroke="none" fill="rgb(224,233,237)" />
</svg>
