<?xml version="1.0" encoding="UTF-8" standalone="no"?>
<!DOCTYPE svg PUBLIC "-//W3C//DTD SVG 1.1//EN"
"http://www.w3.org/Graphics/SVG/1.1/DTD/svg11.dtd">
<svg width="128" height="128" xmlns="http://www.w3.org/2000/svg" version="1.1">
<path d="M 42.5 128.0 L 43.0 128.0 L 44.0 128.0 L 45.0 128.0 L 46.0 128.0 L 47.0 128.0 L 48.0 128.0 L 49.0 128.0 L 50.0 128.0 L 51.0 128.0 L 52.0 128.0 L 53.0 128.0 L 54.0 128.0 L 55.0 128.0 L 56.0 128.0 L 57.0 128.0 L 58.0 128.0 L 59.0 128.0 L 60.0 128.0 L 61.0 128.0 L 62.0 128.0 L 63.0 128.0 L 64.0 128.0 L 65.0 128.0 L 66.0 128.0 L 67.0 128.0 L 68.0 128.0 L 69.0 128.0 L 70.0 128.0 L 71.0 128.0 L 72.0 128.0 L 73.0 128.0 L 74.0 128.0 L 75.0 128.0 L 76.0 128.0 L 77.0 128.0 L 78.0 128.0 L 79.0 128.0 L 80.0 128.0 L 81.0 128.0 L 82.0 128.0 L 83.0 128.0 L 84.0 128.0 L 85.0 128.0 L 86.0 128.0 L 87.0 128.0 L 88.0 128.0 L 89.0 128.0 L 90.0 128.0 L 91.0 128.0 L 92.0 128.0 L 93.0 128.0 L 94.0 128.0 L 95.0 128.0 L 96.0 128.0 L 97.0 128.0 L 98.0 128.0 L 99.0 128.0 L 100.0 128.0 L 101.0 128.0 L 102.0 128.0 L 103.0 128.0 L 104.0 128.0 L 105.0 128.0 L 106.0 128.0 L 107.0 128.0 L 108.0 128.0 L 109.0 128.0 L 110.0 128.0 L 111.0 128.0 L 112.0 128.0 L 113.0 128.0 L 114.0 128.0 L 115.0 128.0 L 116.0 128.0 L 117.0 128.0 L 118.0 128.0 L 119.0 128.0 L 120.0 128.0 L 121.0 128.0 L 122.0 128.0 L 123.0 128.0 L 124.0 128.0 L 125.0 128.0 L 126.0 128.0 L 127.0 128.0 L 127.66666666666667 127.66666666666667 L 128.0 127.0 L 128.0 126.0 L 128.0 125.0 L 128.0 124.0 L 128.0 123.0 L 128.0 122.0 L 128.0 121.0 L 128.0 120.0 L 128.0 119.0 L 128.0 118.0 L 128.0 117.0 L 128.0 116.0 L 128.0 115.0 L 128.0 114.0 L 128.0 113.0 L 128.0 112.0 L 128.0 111.0 L 128.0 110.0 L 128.0 109.0 L 128.0 108.0 L 128.0 107.0 L 128.0 106.0 L 128.0 105.0 L 128.0 104.0 L 128.0 103.0 L 128.0 102.0 L 128.0 101.0 L 128.0 100.0 L 128.0 99.0 L 128.0 98.0 L 128.0 97.0 L 128.0 96.0 L 128.0 95.0 L 128.0 94.0 L 128.0 93.0 L 128.0 92.0 L 128.0 91.0 L 128.0 90.0 L 128.0 89.0 L 128.0 88.0 L 128.0 87.0 L 128.0 86.0 L 128.0 85.0 L 128.0 84.0 L 128.0 83.0 L 128.0 82.0 L 128.0 81.0 L 128.0 80.0 L 128.0 79.0 L 128.0 78.0 L 128.0 77.0 L 128.0 76.0 L 128.0 75.0 L 128.0 74.0 L 128.0 73.0 L 128.0 72.0 L 128.0 71.0 L 128.0 70.0 L 128.0 69.0 L 128.0 68.0 L 128.0 67.0 L 128.0 66.0 L 128.0 65.0 L 128.0 64.0 L 128.0 63.0 L 128.0 62.0 L 128.0 61.0 L 128.0 60.0 L 128.0 59.0 L 128.0 58.0 L 128.0 57.0 L 128.0 56.0 L 128.0 55.0 L 128.0 54.0 L 128.0 53.0 L 128.0 52.0 L 128.0 51.0 L 128.0 50.0 L 128.0 49.0 L 128.0 48.0 L 128.0 47.0 L 128.0 46.0 L 128.0 45.0 L 128.0 44.0 L 128.0 43.0 L 128.0 42.0 L 128.0 41.0 L 128.0 40.0 L 128.0 39.0 L 128.0 38.0 L 128.0 37.0 L 128.0 36.0 L 128.0 35.0 L 128.0 34.0 L 128.0 33.0 L 128.0 32.0 L 128.0 31.0 L 128.0 30.0 L 128.0 29.0 L 128.0 28.0 L 128.0 27.0 L 128.0 26.0 L 128.0 25.0 L 128.0 24.0 L 128.0 23.0 L 128.0 22.0 L 128.0 21.0 L 128.0 20.0 L 128.0 19.0 L 128.0 18.0 L 128.0 17.0 L 128.0 16.0 L 128.0 15.0 L 128.0 14.0 L 128.0 13.0 L 128.0 12.0 L 128.0 11.0 L 128.0 10.0 L 128.0 9.0 L 128.0 8.0 L 128.0 7.0 L 128.0 6.0 L 128.0 5.0 L 128.0 4.0 L 128.0 3.0 L 128.0 2.0 L 128.0 1.0 L 127.66666666666667 0.3333333333333333 L 127.0 0.0 L 126.0 0.0 L 125.0 0.0 L 124.0 0.0 L 123.0 0.0 L 122.0 0.0 L 121.0 0.0 L 120.0 0.0 L 119.0 0.0 L 118.0 0.0 L 117.0 0.0 L 116.0 0.0 L 115.0 0.0 L 114.0 0.0 L 113.0 0.0 L 112.0 0.0 L 111.0 0.0 L 110.0 0.0 L 109.0 0.0 L 108.0 0.0 L 107.0 0.0 L 106.0 0.0 L 105.0 0.0 L 104.0 0.0 L 103.0 0.0 L 102.0 0.0 L 101.0 0.0 L 100.0 0.0 L 99.0 0.0 L 98.0 0.0 L 97.0 0.0 L 96.0 0.0 L 95.0 0.0 L 94.0 0.0 L 93.0 0.0 L 92.0 0.0 L 91.0 0.0 L 90.0 0.0 L 89.0 0.0 L 88.0 0.0 L 87.0 0.0 L 86.0 0.0 L 85.0 0.0 L 84.0 0.0 L 83.0 0.0 L 82.0 0.0 L 81.0 0.0 L 80.0 0.0 L 79.0 0.0 L 78.0 0.0 L 77.0 0.0 L 76.0 0.0 L 75.0 0.0 L 74.0 0.0 L 73.0 0.0 L 72.0 0.0 L 71.0 0.0 L 70.0 0.0 L 69.0 0.0 L 68.0 0.0 L 67.0 0.0 L 66.0 0.0 L 65.0 0.0 L 64.0 0.0 L 63.0 0.0 L 62.0 0.0 L 61.0 0.0 L 60.0 0.0 L 59.0 0.0 L 58.0 0.0 L 57.0 0.0 L 56.0 0.0 L 55.0 0.0 L 54.0 0.0 L 53.0 0.0 L 52.0 0.0 L 51.0 0.0 L 50.0 0.0 L 49.0 0.0 L 48.0 0.0 L 47.0 0.0 L 46.0 0.0 L 45.0 0.0 L 44.0 0.0 L 43.0 0.0 L 42.0 0.0 L 41.0 0.0 L 40.0 0.0 L 39.0 0.0 L 38.0 0.0 L 37.0 0.0 L 36.0 0.0 L 35.0 0.0 L 34.0 0.0 L 33.0 0.0 L 32.0 0.0 L 31.0 0.0 L 30.0 0.0 L 29.0 0.0 L 28.0 0.0 L 27.0 0.0 L 26.0 0.0 L 25.0 0.0 L 24.0 0.0 L 23.0 0.0 L 22.0 0.0 L 21.0 0.0 L 20.0 0.0 L 19.0 0.0 L 18.0 0.0 L 17.0 0.0 L 16.0 0.0 L 15.0 0.0 L 14.0 0.0 L 13.0 0.0 L 12.0 0.0 L 11.0 0.0 L 10.0 0.0 L 9.0 0.0 L 8.0 0.0 L 7.0 0.0 L 6.0 0.0 L 5.0 0.0 L 4.0 0.0 L 3.0 0.0 L 2.0 0.0 L 1.0 0.0 L 0.3333333333333333 0.3333333333333333 L 0.0 1.0 L 0.0 2.0 L 0.0 3.0 L 0.0 4.0 L 0.0 5.0 L 0.0 6.0 L 0.0 7.0 L 0.0 8.0 L 0.0 9.0 L 0.0 10.0 L 0.0 11.0 L 0.0 12.0 L 0.0 13.0 L 0.0 14.0 L 0.0 15.0 L 0.0 16.0 L 0.0 17.0 L 0.0 18.0 L 0.0 19.0 L 0.0 20.0 L 0.0 21.0 L 0.0 22.0 L 0.0 23.0 L 0.0 24.0 L 0.0 25.0 L 0.0 26.0 L 0.0 27.0 L 0.0 28.0 L 0.0 29.0 L 0.0 30.0 L 0.0 31.0 L 0.0 32.0 L 0.0 33.0 L 0.0 34.0 L 0.0 35.0 L 0.0 36.0 L 0.0 37.0 L 0.0 38.0 L 0.0 39.0 L 0.0 40.0 L 0.0 41.0 L 0.0 42.0 L 0.0 43.0 L 0.0 44.0 L 0.0 45.0 L 0.0 46.0 L 0.0 47.0 L 0.0 48.0 L 0.0 49.0 L 0.0 50.0 L 0.0 51.0 L 0.0 52.0 L 0.0 53.0 L 0.0 54.0 L 0.0 55.0 L 0.0 56.0 L 0.0 57.0 L 0.0 58.0 L 0.0 59.0 L 0.0 60.0 L 0.0 61.0 L 0.0 62.0 L 0.0 63.0 L 0.0 64.0 L 0.0 65.0 L 0.0 66.0 L 0.0 67.0 L 0.0 68.0 L 0.0 69.0 L 0.0 70.0 L 0.0 71.0 L 0.0 72.0 L 0.0 73.0 L 0.0 74.0 L 0.0 75.0 L 0.0 76.0 L 0.0 77.0 L 0.0 78.0 L 0.0 79.0 L 0.0 80.0 L 0.0 81.0 L 0.0 82.0 L 0.0 83.0 L 0.0 84.0 L 0.0 85.0 L 0.0 86.0 L 0.0 87.0 L 0.0 88.0 L 0.0 89.0 L 0.0 90.0 L 0.0 91.0 L 0.0 92.0 L 0.0 93.0 L 0.0 94.0 L 0.0 95.0 L 0.0 96.0 L 0.0 97.0 L 0.0 98.0 L 0.0 99.0 L 0.0 100.0 L 0.0 101.0 L 0.0 102.0 L 0.0 103.0 L 0.0 104.0 L 0.0 105.0 L 0.0 106.0 L 0.0 107.0 L 0.0 108.0 L 0.0 109.0 L 0.0 110.0 L 0.0 111.0 L 0.0 112.0 L 0.0 113.0 L 0.0 114.0 L 0.0 115.0 L 0.0 116.0 L 0.0 117.0 L 0.0 118.0 L 0.0 119.0 L 0.0 120.0 L 0.0 121.0 L 0.0 122.0 L 0.0 123.0 L 0.0 124.0 L 0.0 125.0 L 0.0 126.0 L 0.0 127.0 L 0.3333333333333333 127.66666666666667 L 1.0 128.0 L 2.0 128.0 L 3.0 128.0 L 4.0 128.0 L 5.0 128.0 L 6.0 128.0 L 7.0 128.0 L 8.0 128.0 L 9.0 128.0 L 10.0 128.0 L 11.0 128.0 L 12.0 128.0 L 13.0 128.0 L 14.0 128.0 L 15.0 128.0 L 16.0 128.0 L 17.0 128.0 L 18.0 128.0 L 19.0 128.0 L 20.0 128.0 L 21.0 128.0 L 22.0 128.0 L 23.0 128.0 L 24.0 128.0 L 25.0 128.0 L 26.0 128.0 L 27.0 128.0 L 28.0 128.0 L 29.0 128.0 L 30.0 128.0 L 31.0 128.0 L 32.0 128.0 L 33.0 128.0 L 34.0 128.0 L 35.0 128.0 L 36.0 128.0 L 37.0 128.0 L 38.0 128.0 L 39.0 128.0 L 40.0 128.0 L 41.0 128.0 L 41.5 128.0 Z" stroke="none" fill="rgb(0,0,0)" />
<path d="M 68.5 78.0 L 69.0 78.0 L 70.0 78.0 L 71.0 78.0 L 72.0 78.0 L 73.0 78.0 L 74.0 78.0 L 75.0 78.0 L 76.0 78.0 L 77.0 78.0 L 78.0 78.0 L 79.0 78.0 L 80.0 78.0 L 81.0 78.0 L 82.0 78.0 L 83.0 78.0 L 84.0 78.0 L 85.0 78.0 L 86.0 78.0 L 87.0 78.0 L 88.0 78.0 L 89.0 78.0 L 90.0 78.0 L 91.0 78.0 L 92.0 78.0 L 93.0 78.0 L 94.0 78.0 L 95.0 78.0 L 96.0 78.0 L 97.0 78.0 L 98.0 78.0 L 99.0 78.0 L 100.0 78.0 L 101.0 78.0 L 102.0 78.0 L 103.0 78.0 L 104.0 78.0 L 105.0 78.0 L 106.0 78.0 L 107.0 78.0 L 108.0 78.0 L 109.0 78.0 L 110.0 78.0 L 111.0 78.0 L 112.0 78.0 L 113.0 78.0 L 114.0 78.0 L 115.0 78.0 L 116.0 78.0 L 116.66666666666667 77.66666666666667 L 117.0 77.0 L 117.0 76.0 L 117.0 75.0 L 117.0 74.0 L 117.0 73.0 L 117.0 72.0 L 117.0 71.0 L 117.0 70.0 L 117.0 69.0 L 117.0 68.0 L 117.0 67.0 L 117.0 66.0 L 117.0 65.0 L 117.0 64.0 L 117.0 63.0 L 117.0 62.0 L 117.0 61.0 L 117.0 60.0 L 117.0 59.0 L 117.0 58.0 L 117.0 57.0 L 117.0 56.0 L 117.0 55.0 L 117.0 54.0 L 117.0 53.0 L 117.0 52.0 L 117.0 51.0 L 117.0 50.0 L 117.0 49.0 L 117.0 48.0 L 117.0 47.0 L 117.0 46.0 L 117.0 45.0 L 117.0 44.0 L 117.0 43.0 L 117.0 42.0 L 117.0 41.0 L 117.0 40.0 L 117.0 39.0 L 117.0 38.0 L 117.0 37.0 L 117.0 36.0 L 117.0 35.0 L 117.0 34.0 L 117.0 33.0 L 117.0 32.0 L 117.0 31.0 L 117.0 30.0 L 117.0 29.0 L 117.0 28.0 L 117.0 27.0 L 117.0 26.0 L 117.0 25.0 L 117.0 24.0 L 117.0 23.0 L 117.0 22.0 L 117.0 21.0 L 117.0 20.0 L 117.0 19.0 L 117.0 18.0 L 117.0 17.0 L 117.0 16.0 L 117.0 15.0 L 117.0 14.0 L 117.0 13.0 L 117.0 12.0 L 117.0 11.0 L 117.0 10.0 L 117.0 9.0 L 117.0 8.0 L 117.0 7.0 L 117.0 6.0 L 116.66666666666667 5.0 L 116.0 4.333333333333333 L 115.0 4.0 L 114.0 4.0 L 113.0 4.0 L 112.0 4.0 L 111.0 4.0 L 110.0 4.0 L 109.0 4.0 L 108.0 4.0 L 107.0 4.0 L 106.0 4.0 L 105.0 4.0 L 104.0 4.0 L 103.0 4.0 L 102.0 4.0 L 101.0 4.0 L 100.0 4.0 L 99.0 4.0 L 98.0 4.0 L 97.0 4.0 L 96.0 4.0 L 95.0 4.0 L 94.0 4.0 L 93.0 4.0 L 92.0 4.0 L 91.0 4.0 L 90.0 4.0 L 89.0 4.0 L 88.0 4.0 L 87.0 4.0 L 86.0 4.0 L 85.0 4.0 L 84.0 4.0 L 83.0 4.0 L 82.0 4.0 L 81.0 4.0 L 80.0 4.0 L 79.0 4.0 L 78.0 4.0 L 77.0 4.0 L 76.0 4.0 L 75.0 4.0 L 74.0 4.0 L 73.0 4.0 L 72.0 4.0 L 71.0 4.0 L 70.0 4.0 L 69.0 4.0 L 68.0 4.0 L 67.0 4.0 L 66.0 4.0 L 65.0 4.0 L 64.0 4.0 L 63.0 4.0 L 62.0 4.0 L 61.0 4.0 L 60.0 4.0 L 59.0 4.0 L 58.0 4.0 L 57.0 4.0 L 56.0 4.0 L 55.0 4.0 L 54.0 4.0 L 53.0 4.0 L 52.0 4.0 L 51.0 4.0 L 50.0 4.0 L 49.0 4.0 L 48.0 4.0 L 47.0 4.0 L 46.0 4.0 L 45.0 4.0 L 44.0 4.0 L 43.0 4.0 L 42.0 4.0 L 41.0 4.0 L 40.0 4.0 L 39.0 4.0 L 38.0 4.0 L 37.0 4.0 L 36.0 4.0 L 35.0 4.0 L 34.0 4.0 L 33.0 4.0 L 32.0 4.0 L 31.0 4.0 L 30.0 4.0 L 29.0 4.333333333333333 L 28.333333333333332 5.0 L 28.333333333333332 6.0 L 28.666666666666668 7.0 L 29.0 8.0 L 29.333333333333332 9.0 L 30.0 10.0 L 31.0 10.666666666666666 L 32.0 10.666666666666666 L 33.0 10.333333333333334 L 34.0 10.0 L 35.0 10.0 L 36.0 10.0 L 37.0 10.0 L 38.0 10.0 L 39.0 10.0 L 40.0 10.0 L 41.0 10.0 L 42.0 10.0 L 43.0 10.0 L 44.0 10.0 L 45.0 10.0 L 46.0 10.0 L 47.0 10.0 L 48.0 10.0 L 49.0 10.0 L 50.0 10.0 L 51.0 10.0 L 52.0 10.0 L 53.0 10.0 L 54.0 10.0 L 55.0 10.0 L 56.0 10.0 L 57.0 10.0 L 58.0 10.0 L 59.0 10.0 L 60.0 10.333333333333334 L 61.0 10.666666666666666 L 62.0 10.666666666666666 L 63.0 10.333333333333334 L 64.0 10.0 L 65.0 10.0 L 66.0 10.333333333333334 L 67.0 10.666666666666666 L 68.0 10.666666666666666 L 69.0 10.333333333333334 L 70.0 10.0 L 71.0 10.0 L 72.0 10.0 L 73.0 10.0 L 74.0 10.333333333333334 L 75.0 10.666666666666666 L 76.0 10.666666666666666 L 77.0 10.666666666666666 L 78.0 10.666666666666666 L 79.0 10.666666666666666 L 80.0 10.333333333333334 L 81.0 10.0 L 82.0 10.0 L 83.0 10.0 L 84.0 10.0 L 85.0 10.0 L 86.0 10.0 L 87.0 10.0 L 88.0 10.0 L 89.0 10.0 L 90.0 10.0 L 91.0 10.0 L 92.0 10.0 L 93.0 10.0 L 94.0 10.0 L 95.0 10.0 L 96.0 10.0 L 97.0 10.0 L 98.0 10.333333333333334 L 99.0 10.666666666666666 L 100.0 10.666666666666666 L 101.0 10.333333333333334 L 102.0 10.333333333333334 L 103.0 10.666666666666666 L 104.0 10.666666666666666 L 105.0 10.333333333333334 L 106.0 10.0 L 107.0 10.0 L 108.0 10.0 L 109.0 10.0 L 110.0 10.0 L 111.0 10.333333333333334 L 111.66666666666667 11.0 L 112.0 12.0 L 112.0 13.0 L 112.0 14.0 L 112.0 15.0 L 112.0 16.0 L 112.0 17.0 L 112.0 18.0 L 112.0 19.0 L 112.0 20.0 L 112.0 21.0 L 112.0 22.0 L 112.0 23.0 L 112.0 24.0 L 112.0 25.0 L 112.0 26.0 L 112.0 27.0 L 112.0 28.0 L 112.0 29.0 L 112.0 30.0 L 112.0 31.0 L 112.0 32.0 L 112.0 33.0 L 112.0 34.0 L 112.0 35.0 L 112.0 36.0 L 112.0 37.0 L 112.0 38.0 L 112.0 39.0 L 112.0 40.0 L 112.0 41.0 L 112.0 42.0 L 112.0 43.0 L 112.0 44.0 L 112.0 45.0 L 112.0 46.0 L 112.0 47.0 L 112.0 48.0 L 112.0 49.0 L 112.0 50.0 L 112.0 51.0 L 112.0 52.0 L 112.0 53.0 L 112.0 54.0 L 112.0 55.0 L 112.0 56.0 L 112.0 57.0 L 112.0 58.0 L 112.0 59.0 L 112.0 60.0 L 112.0 61.0 L 112.0 62.0 L 112.0 63.0 L 112.0 64.0 L 112.0 65.0 L 112.0 66.0 L 112.0 67.0 L 112.0 68.0 L 112.0 69.0 L 112.0 70.0 L 111.66666666666667 71.0 L 111.0 71.66666666666667 L 110.0 72.0 L 109.0 72.0 L 108.0 72.0 L 107.0 72.0 L 106.0 72.0 L 105.0 72.0 L 104.0 72.0 L 103.0 72.0 L 102.0 72.0 L 101.0 72.0 L 100.0 72.0 L 99.0 72.0 L 98.0 72.0 L 97.0 72.0 L 96.0 72.0 L 95.0 72.0 L 94.0 72.0 L 93.0 72.0 L 92.0 72.0 L 91.0 72.0 L 90.0 72.0 L 89.0 72.0 L 88.0 72.0 L 87.0 72.0 L 86.0 72.0 L 85.0 72.0 L 84.0 72.0 L 83.0 72.0 L 82.0 72.0 L 81.0 72.0 L 80.0 72.0 L 79.0 72.0 L 78.0 72.0 L 77.0 72.0 L 76.0 72.0 L 75.0 72.0 L 74.0 72.0 L 73.0 72.0 L 72.0 72.0 L 71.0 72.0 L 70.0 72.0 L 69.0 72.0 L 68.0 72.0 L 67.0 72.0 L 66.0 72.0 L 65.0 72.0 L 64.0 72.0 L 63.0 72.0 L 62.0 72.0 L 61.0 72.0 L 60.0 72.0 L 59.0 72.0 L 58.0 72.0 L 57.0 72.0 L 56.0 72.0 L 55.0 72.0 L 54.0 72.0 L 53.0 72.0 L 52.0 72.0 L 51.0 72.0 L 50.0 72.0 L 49.0 72.0 L 48.0 72.0 L 47.0 72.0 L 46.0 72.0 L 45.0 72.0 L 44.0 72.0 L 43.0 72.0 L 42.0 72.0 L 41.0 72.0 L 40.0 72.0 L 39.0 72.0 L 38.0 72.0 L 37.0 72.0 L 36.0 72.0 L 35.0 72.0 L 34.0 72.0 L 33.0 72.0 L 32.0 72.0 L 31.0 72.0 L 30.0 72.0 L 29.0 72.0 L 28.0 72.0 L 27.0 72.0 L 26.0 72.0 L 25.0 72.0 L 24.0 72.0 L 23.0 72.0 L 22.0 72.0 L 21.0 72.0 L 20.0 72.0 L 19.0 72.0 L 18.0 72.0 L 17.0 71.66666666666667 L 16.333333333333332 71.0 L 16.0 70.0 L 16.0 69.0 L 16.0 68.0 L 16.0 67.0 L 16.0 66.0 L 16.0 65.0 L 16.0 64.0 L 16.0 63.0 L 16.0 62.0 L 16.0 61.0 L 16.0 60.0 L 16.0 59.0 L 16.0 58.0 L 16.0 57.0 L 16.0 56.0 L 16.0 55.0 L 16.0 54.0 L 16.0 53.0 L 16.0 52.0 L 16.0 51.0 L 16.0 50.0 L 16.0 49.0 L 16.0 48.0 L 16.0 47.0 L 16.0 46.0 L 16.0 45.0 L 16.0 44.0 L 16.0 43.0 L 16.0 42.0 L 16.0 41.0 L 16.0 40.0 L 16.0 39.0 L 16.0 38.0 L 16.0 37.0 L 16.0 36.0 L 16.0 35.0 L 16.0 34.0 L 16.0 33.0 L 16.0 32.0 L 16.0 31.0 L 16.0 30.0 L 16.0 29.0 L 16.0 28.0 L 16.0 27.0 L 16.0 26.0 L 16.0 25.0 L 16.0 24.0 L 16.0 23.0 L 16.0 22.0 L 16.0 21.0 L 16.0 20.0 L 16.0 19.0 L 16.0 18.0 L 16.0 17.0 L 16.0 16.0 L 16.0 15.0 L 16.0 14.0 L 16.0 13.0 L 16.0 12.0 L 16.0 11.0 L 16.0 10.0 L 16.0 9.0 L 15.666666666666666 8.0 L 15.666666666666666 7.0 L 15.666666666666666 6.0 L 16.0 5.0 L 15.666666666666666 4.333333333333333 L 15.0 4.0 L 14.0 4.0 L 13.0 4.0 L 12.0 4.333333333333333 L 11.333333333333334 5.0 L 11.0 6.0 L 11.0 7.0 L 11.0 8.0 L 11.0 9.0 L 11.0 10.0 L 11.0 11.0 L 11.0 12.0 L 11.0 13.0 L 11.0 14.0 L 11.0 15.0 L 11.0 16.0 L 11.0 17.0 L 11.0 18.0 L 11.0 19.0 L 11.0 20.0 L 11.0 21.0 L 11.0 22.0 L 11.0 23.0 L 11.0 24.0 L 11.0 25.0 L 11.0 26.0 L 11.0 27.0 L 11.0 28.0 L 11.0 29.0 L 11.0 30.0 L 11.0 31.0 L 11.0 32.0 L 11.0 33.0 L 11.0 34.0 L 11.0 35.0 L 11.0 36.0 L 11.0 37.0 L 11.0 38.0 L 11.0 39.0 L 11.0 40.0 L 11.0 41.0 L 11.0 42.0 L 11.0 43.0 L 11.0 44.0 L 11.0 45.0 L 11.0 46.0 L 11.0 47.0 L 11.0 48.0 L 11.0 49.0 L 11.0 50.0 L 11.0 51.0 L 11.0 52.0 L 11.0 53.0 L 11.0 54.0 L 11.0 55.0 L 11.0 56.0 L 11.0 57.0 L 11.0 58.0 L 11.0 59.0 L 11.0 60.0 L 11.0 61.0 L 11.0 62.0 L 11.0 63.0 L 11.0 64.0 L 11.0 65.0 L 11.0 66.0 L 11.0 67.0 L 11.0 68.0 L 11.0 69.0 L 11.0 70.0 L 11.0 71.0 L 11.0 72.0 L 11.0 73.0 L 11.0 74.0 L 11.0 75.0 L 11.333333333333334 76.0 L 12.0 77.0 L 13.0 77.66666666666667 L 14.0 78.0 L 15.0 78.0 L 16.0 78.0 L 17.0 78.0 L 18.0 78.0 L 19.0 78.0 L 20.0 78.0 L 21.0 78.0 L 22.0 78.0 L 23.0 78.0 L 24.0 78.0 L 25.0 78.0 L 26.0 78.0 L 27.0 78.0 L 28.0 78.0 L 29.0 78.0 L 30.0 78.0 L 31.0 78.0 L 32.0 78.0 L 33.0 78.0 L 34.0 78.0 L 35.0 78.0 L 36.0 78.0 L 37.0 78.0 L 38.0 78.0 L 39.0 78.0 L 40.0 78.0 L 41.0 78.0 L 42.0 78.0 L 43.0 78.0 L 44.0 78.0 L 45.0 78.0 L 46.0 78.0 L 47.0 78.0 L 48.0 78.0 L 49.0 78.0 L 50.0 78.0 L 51.0 78.0 L 52.0 78.0 L 53.0 78.0 L 54.0 78.0 L 55.0 78.0 L 56.0 78.0 L 57.0 78.0 L 58.0 78.0 L 59.0 78.0 L 60.0 78.0 L 61.0 78.0 L 62.0 78.0 L 63.0 78.0 L 64.0 78.0 L 65.0 78.0 L 66.0 78.0 L 67.0 78.0 L 67.5 78.0 Z" stroke="none" fill="rgb(183,213,229)" />
<path d="M 18.5 10.0 L 19.0 10.0 L 20.0 10.333333333333334 L 21.0 10.666666666666666 L 22.0 10.666666666666666 L 23.0 10.333333333333334 L 24.0 10.333333333333334 L 25.0 10.666666666666666 L 26.0 10.666666666666666 L 27.0 10.333333333333334 L 28.0 10.0 L 28.666666666666668 9.666666666666666 L 29.0 9.0 L 29.0 8.0 L 29.0 7.0 L 28.666666666666668 6.0 L 28.0 5.333333333333333 L 27.0 5.0 L 26.0 5.0 L 25.0 5.0 L 24.0 5.0 L 23.0 5.0 L 22.0 5.0 L 21.0 5.0 L 20.0 5.0 L 19.0 5.0 L 18.0 5.0 L 17.0 5.0 L 16.0 5.333333333333333 L 15.333333333333334 6.0 L 15.0 7.0 L 15.333333333333334 8.0 L 16.0 9.0 L 17.0 9.666666666666666 L 17.5 10.0 Z" stroke="none" fill="rgb(238,238,238)" />
<path d="M 16.5 10.0 L 16.666666666666668 9.666666666666666 L 16.666666666666668 9.333333333333334 L 16.333333333333332 9.333333333333334 L 16.0 9.5 Z" stroke="none" fill="rgb(89,122,132)" />
<path d="M 33.5 18.0 L 34.0 18.333333333333332 L 35.0 18.666666666666668 L 36.0 19.333333333333332 L 37.0 19.666666666666668 L 38.0 20.0 L 39.0 20.0 L 40.0 20.333333333333332 L 41.0 20.666666666666668 L 42.0 21.0 L 43.0 21.0 L 44.0 21.0 L 45.0 21.0 L 46.0 21.0 L 47.0 21.0 L 48.0 21.0 L 49.0 21.0 L 50.0 21.0 L 51.0 21.0 L 52.0 20.666666666666668 L 53.0 20.333333333333332 L 54.0 20.0 L 55.0 20.0 L 56.0 19.666666666666668 L 57.0 19.333333333333332 L 58.0 18.666666666666668 L 59.0 18.333333333333332 L 60.0 17.666666666666668 L 61.0 17.333333333333332 L 62.0 16.666666666666668 L 63.0 16.0 L 64.0 15.0 L 65.0 14.0 L 66.0 13.0 L 66.66666666666667 12.0 L 67.0 11.0 L 66.66666666666667 10.333333333333334 L 66.0 10.0 L 65.0 10.0 L 64.0 10.0 L 63.0 10.0 L 62.0 10.333333333333334 L 61.0 11.0 L 60.0 12.0 L 59.0 12.666666666666666 L 58.0 13.333333333333334 L 57.0 14.0 L 56.0 14.666666666666666 L 55.0 15.0 L 54.0 15.333333333333334 L 53.0 15.666666666666666 L 52.0 16.0 L 51.0 16.333333333333332 L 50.0 16.666666666666668 L 49.0 17.0 L 48.0 17.0 L 47.0 17.0 L 46.0 17.0 L 45.0 17.0 L 44.0 16.666666666666668 L 43.0 16.333333333333332 L 42.0 16.0 L 41.0 16.0 L 40.0 15.666666666666666 L 39.0 15.333333333333334 L 38.0 14.666666666666666 L 37.0 14.333333333333334 L 36.0 13.666666666666666 L 35.0 13.333333333333334 L 34.0 12.666666666666666 L 33.0 12.0 L 32.0 11.0 L 31.0 10.0 L 30.0 9.333333333333334 L 29.0 9.333333333333334 L 28.0 9.666666666666666 L 27.0 10.0 L 26.333333333333332 10.333333333333334 L 26.0 11.0 L 26.333333333333332 12.0 L 27.0 13.0 L 28.0 14.0 L 29.0 15.0 L 30.0 15.666666666666666 L 31.0 16.333333333333332 L 32.0 17.0 L 32.5 17.5 Z" stroke="none" fill="rgb(55,99,109)" />
<path d="M 21.5 20.5 L 22.0 21.0 L 23.0 22.0 L 24.0 23.0 L 25.0 24.0 L 26.0 24.666666666666668 L 27.0 25.333333333333332 L 28.0 25.666666666666668 L 29.0 26.333333333333332 L 30.0 26.666666666666668 L 31.0 27.333333333333332 L 32.0 27.666666666666668 L 33.0 28.333333333333332 L 34.0 28.666666666666668 L 35.0 29.0 L 36.0 29.333333333333332 L 37.0 29.666666666666668 L 38.0 30.0 L 39.0 30.0 L 40.0 30.0 L 41.0 30.333333333333332 L 42.0 30.666666666666668 L 43.0 31.0 L 44.0 31.0 L 45.0 31.0 L 46.0 31.0 L 47.0 31.0 L 48.0 31.0 L 49.0 31.0 L 50.0 31.0 L 51.0 30.666666666666668 L 52.0 30.333333333333332 L 53.0 30.0 L 54.0 30.0 L 55.0 30.0 L 56.0 29.666666666666668 L 57.0 29.333333333333332 L 58.0 29.0 L 59.0 28.666666666666668 L 60.0 28.333333333333332 L 61.0 27.666666666666668 L 62.0 27.333333333333332 L 63.0 27.0 L 64.0 26.666666666666668 L 65.0 26.0 L 66.0 25.333333333333332 L 67.0 24.666666666666668 L 68.0 24.0 L 69.0 23.0 L 70.0 22.333333333333332 L 71.0 21.666666666666668 L 72.0 21.0 L 72.66666666666667 20.0 L 73.33333333333333 19.0 L 74.0 18.0 L 75.0 17.0 L 76.0 16.0 L 76.66666666666667 15.0 L 77.33333333333333 14.0 L 77.66666666666667 13.0 L 78.0 12.0 L 78.0 11.0 L 77.66666666666667 10.333333333333334 L 77.0 10.0 L 76.0 10.333333333333334 L 75.33333333333333 11.0 L 74.66666666666667 12.0 L 74.0 13.0 L 73.33333333333333 14.0 L 72.66666666666667 15.0 L 72.0 16.0 L 71.0 17.0 L 70.0 18.0 L 69.0 19.0 L 68.0 20.0 L 67.0 20.666666666666668 L 66.0 21.333333333333332 L 65.0 22.0 L 64.0 22.666666666666668 L 63.0 23.333333333333332 L 62.0 24.0 L 61.0 24.666666666666668 L 60.0 25.0 L 59.0 25.333333333333332 L 58.0 25.666666666666668 L 57.0 26.333333333333332 L 56.0 26.666666666666668 L 55.0 27.0 L 54.0 27.0 L 53.0 27.333333333333332 L 52.0 27.666666666666668 L 51.0 28.0 L 50.0 28.0 L 49.0 28.0 L 48.0 28.0 L 47.0 28.0 L 46.0 28.0 L 45.0 28.0 L 44.0 28.0 L 43.0 28.0 L 42.0 28.0 L 41.0 27.666666666666668 L 40.0 27.333333333333332 L 39.0 27.0 L 38.0 26.666666666666668 L 37.0 26.333333333333332 L 36.0 26.0 L 35.0 25.666666666666668 L 34.0 25.333333333333332 L 33.0 24.666666666666668 L 32.0 24.333333333333332 L 31.0 23.666666666666668 L 30.0 23.333333333333332 L 29.0 22.666666666666668 L 28.0 22.0 L 27.0 21.333333333333332 L 26.0 20.666666666666668 L 25.0 20.0 L 24.0 19.0 L 23.0 18.0 L 22.0 17.0 L 21.333333333333332 16.0 L 20.666666666666668 15.0 L 20.0 14.0 L 19.0 13.0 L 18.333333333333332 12.0 L 18.0 11.0 L 17.666666666666668 10.333333333333334 L 17.0 10.0 L 16.333333333333332 10.333333333333334 L 16.0 11.0 L 16.0 12.0 L 16.0 13.0 L 16.0 14.0 L 16.0 15.0 L 16.333333333333332 15.666666666666666 L 17.0 16.333333333333332 L 18.0 17.0 L 19.0 18.0 L 20.0 19.0 L 20.5 19.5 Z" stroke="none" fill="rgb(58,90,97)" />
<path d="M 21.5 17.5 L 22.0 18.0 L 23.0 19.0 L 24.0 20.0 L 25.0 20.666666666666668 L 26.0 21.333333333333332 L 27.0 22.0 L 28.0 22.666666666666668 L 29.0 23.333333333333332 L 30.0 23.666666666666668 L 31.0 24.333333333333332 L 32.0 24.666666666666668 L 33.0 25.333333333333332 L 34.0 25.666666666666668 L 35.0 26.0 L 36.0 26.333333333333332 L 37.0 26.666666666666668 L 38.0 27.0 L 39.0 27.333333333333332 L 40.0 27.666666666666668 L 41.0 28.0 L 42.0 28.0 L 43.0 28.0 L 44.0 28.0 L 45.0 28.0 L 46.0 28.0 L 47.0 28.0 L 48.0 28.0 L 49.0 28.0 L 50.0 28.0 L 51.0 28.0 L 52.0 28.0 L 53.0 27.666666666666668 L 54.0 27.333333333333332 L 55.0 27.0 L 56.0 27.0 L 57.0 26.666666666666668 L 58.0 26.333333333333332 L 59.0 25.666666666666668 L 60.0 25.333333333333332 L 61.0 25.0 L 62.0 24.666666666666668 L 63.0 24.0 L 64.0 23.333333333333332 L 65.0 22.666666666666668 L 66.0 22.0 L 67.0 21.333333333333332 L 68.0 20.666666666666668 L 69.0 20.0 L 70.0 19.0 L 71.0 18.0 L 72.0 17.0 L 72.66666666666667 16.0 L 73.33333333333333 15.0 L 74.0 14.0 L 74.66666666666667 13.0 L 75.0 12.0 L 75.0 11.0 L 74.66666666666667 10.333333333333334 L 74.0 10.0 L 73.0 10.0 L 72.33333333333333 10.333333333333334 L 71.66666666666667 11.0 L 71.0 12.0 L 70.0 13.0 L 69.0 14.0 L 68.0 15.0 L 67.0 16.0 L 66.0 17.0 L 65.0 18.0 L 64.0 19.0 L 63.0 19.666666666666668 L 62.0 20.333333333333332 L 61.0 21.0 L 60.0 21.666666666666668 L 59.0 22.333333333333332 L 58.0 22.666666666666668 L 57.0 23.0 L 56.0 23.333333333333332 L 55.0 23.666666666666668 L 54.0 24.0 L 53.0 24.0 L 52.0 24.333333333333332 L 51.0 24.666666666666668 L 50.0 25.0 L 49.0 25.0 L 48.0 25.0 L 47.0 25.0 L 46.0 25.0 L 45.0 25.0 L 44.0 25.0 L 43.0 25.0 L 42.0 24.666666666666668 L 41.0 24.333333333333332 L 40.0 24.0 L 39.0 24.0 L 38.0 23.666666666666668 L 37.0 23.333333333333332 L 36.0 22.666666666666668 L 35.0 22.333333333333332 L 34.0 22.0 L 33.0 21.666666666666668 L 32.0 21.0 L 31.0 20.333333333333332 L 30.0 19.666666666666668 L 29.0 19.0 L 28.0 18.0 L 27.0 17.0 L 26.0 16.0 L 25.0 15.0 L 24.0 14.0 L 23.0 13.0 L 22.333333333333332 12.0 L 21.666666666666668 11.0 L 21.0 10.333333333333334 L 20.0 10.0 L 19.0 10.0 L 18.333333333333332 10.333333333333334 L 18.0 11.0 L 18.0 12.0 L 18.333333333333332 13.0 L 19.0 14.0 L 20.0 15.0 L 20.666666666666668 16.0 L 21.0 16.5 Z" stroke="none" fill="rgb(57,92,100)" />
<path d="M 68.5 15.5 L 69.0 15.0 L 70.0 14.0 L 71.0 13.0 L 71.66666666666667 12.0 L 72.0 11.0 L 71.66666666666667 10.333333333333334 L 71.0 10.0 L 70.0 10.0 L 69.0 10.0 L 68.0 10.333333333333334 L 67.0 11.0 L 66.0 12.0 L 65.0 13.0 L 64.0 14.0 L 63.0 15.0 L 62.0 16.0 L 61.0 16.666666666666668 L 60.0 17.333333333333332 L 59.0 17.666666666666668 L 58.0 18.333333333333332 L 57.0 18.666666666666668 L 56.0 19.333333333333332 L 55.0 19.666666666666668 L 54.0 20.0 L 53.0 20.0 L 52.0 20.333333333333332 L 51.0 20.666666666666668 L 50.0 21.0 L 49.0 21.0 L 48.0 21.0 L 47.0 21.0 L 46.0 21.0 L 45.0 21.0 L 44.0 21.0 L 43.0 21.0 L 42.0 20.666666666666668 L 41.0 20.333333333333332 L 40.0 20.0 L 39.0 20.0 L 38.0 19.666666666666668 L 37.0 19.333333333333332 L 36.0 18.666666666666668 L 35.0 18.333333333333332 L 34.0 17.666666666666668 L 33.0 17.0 L 32.0 16.333333333333332 L 31.0 15.666666666666666 L 30.0 15.0 L 29.0 14.0 L 28.0 13.0 L 27.0 12.0 L 26.0 11.0 L 25.0 10.333333333333334 L 24.0 10.0 L 23.0 10.0 L 22.333333333333332 10.333333333333334 L 22.0 11.0 L 22.0 12.0 L 22.333333333333332 13.0 L 23.0 14.0 L 24.0 15.0 L 25.0 16.0 L 26.0 17.0 L 27.0 18.0 L 28.0 19.0 L 29.0 19.666666666666668 L 30.0 20.333333333333332 L 31.0 21.0 L 32.0 21.666666666666668 L 33.0 22.0 L 34.0 22.333333333333332 L 35.0 22.666666666666668 L 36.0 23.333333333333332 L 37.0 23.666666666666668 L 38.0 24.0 L 39.0 24.0 L 40.0 24.333333333333332 L 41.0 24.666666666666668 L 42.0 25.0 L 43.0 25.0 L 44.0 25.0 L 45.0 25.0 L 46.0 25.0 L 47.0 25.0 L 48.0 25.0 L 49.0 25.0 L 50.0 25.0 L 51.0 25.0 L 52.0 24.666666666666668 L 53.0 24.333333333333332 L 54.0 24.0 L 55.0 24.0 L 56.0 23.666666666666668 L 57.0 23.333333333333332 L 58.0 23.0 L 59.0 22.666666666666668 L 60.0 22.333333333333332 L 61.0 21.666666666666668 L 62.0 21.0 L 63.0 20.333333333333332 L 64.0 19.666666666666668 L 65.0 19.0 L 66.0 18.0 L 67.0 17.0 L 67.5 16.5 Z" stroke="none" fill="rgb(56,95,104)" />
<path d="M 34.5 13.5 L 35.0 13.666666666666666 L 36.0 14.333333333333334 L 37.0 14.666666666666666 L 38.0 15.333333333333334 L 39.0 15.666666666666666 L 40.0 16.0 L 41.0 16.0 L 42.0 16.333333333333332 L 43.0 16.666666666666668 L 44.0 17.0 L 45.0 17.0 L 46.0 17.0 L 47.0 17.0 L 48.0 17.0 L 49.0 17.0 L 50.0 17.0 L 51.0 16.666666666666668 L 52.0 16.333333333333332 L 53.0 16.0 L 54.0 15.666666666666666 L 55.0 15.333333333333334 L 56.0 15.0 L 57.0 14.666666666666666 L 58.0 14.0 L 59.0 13.333333333333334 L 60.0 12.666666666666666 L 60.666666666666664 12.0 L 61.0 11.0 L 60.666666666666664 10.333333333333334 L 60.0 10.0 L 59.0 10.0 L 58.0 10.0 L 57.0 10.0 L 56.0 10.0 L 55.0 10.0 L 54.0 10.0 L 53.0 10.0 L 52.0 10.0 L 51.0 10.0 L 50.0 10.0 L 49.0 10.0 L 48.0 10.0 L 47.0 10.0 L 46.0 10.0 L 45.0 10.0 L 44.0 10.0 L 43.0 10.0 L 42.0 10.0 L 41.0 10.0 L 40.0 10.0 L 39.0 10.0 L 38.0 10.0 L 37.0 10.0 L 36.0 10.0 L 35.0 10.0 L 34.0 10.0 L 33.0 10.0 L 32.333333333333336 10.333333333333334 L 32.0 11.0 L 32.333333333333336 12.0 L 33.0 12.666666666666666 L 33.5 13.0 Z" stroke="none" fill="rgb(53,103,115)" />
<path d="M 17.5 21.5 L 18.0 22.0 L 19.0 23.0 L 20.0 24.0 L 21.0 25.0 L 22.0 26.0 L 23.0 26.666666666666668 L 24.0 27.333333333333332 L 25.0 28.0 L 26.0 28.666666666666668 L 27.0 29.333333333333332 L 28.0 29.666666666666668 L 29.0 30.333333333333332 L 30.0 30.666666666666668 L 31.0 31.0 L 32.0 31.333333333333332 L 33.0 31.666666666666668 L 34.0 32.0 L 35.0 32.333333333333336 L 36.0 32.666666666666664 L 37.0 33.0 L 38.0 33.0 L 39.0 33.333333333333336 L 40.0 33.666666666666664 L 41.0 34.0 L 42.0 34.0 L 43.0 34.0 L 44.0 34.0 L 45.0 34.0 L 46.0 34.0 L 47.0 34.0 L 48.0 34.0 L 49.0 34.0 L 50.0 34.0 L 51.0 34.0 L 52.0 34.0 L 53.0 33.666666666666664 L 54.0 33.333333333333336 L 55.0 33.0 L 56.0 33.0 L 57.0 33.0 L 58.0 32.666666666666664 L 59.0 32.333333333333336 L 60.0 32.0 L 61.0 31.666666666666668 L 62.0 31.333333333333332 L 63.0 30.666666666666668 L 64.0 30.333333333333332 L 65.0 29.666666666666668 L 66.0 29.333333333333332 L 67.0 28.666666666666668 L 68.0 28.0 L 69.0 27.333333333333332 L 70.0 26.666666666666668 L 71.0 26.0 L 72.0 25.0 L 73.0 24.0 L 74.0 23.0 L 75.0 22.0 L 76.0 21.0 L 77.0 20.0 L 78.0 19.0 L 78.66666666666667 18.0 L 79.33333333333333 17.0 L 79.66666666666667 16.0 L 80.33333333333333 15.0 L 81.0 14.0 L 81.66666666666667 13.0 L 82.0 12.0 L 82.0 11.0 L 81.66666666666667 10.333333333333334 L 81.0 10.0 L 80.0 10.0 L 79.0 10.333333333333334 L 78.33333333333333 11.0 L 77.66666666666667 12.0 L 77.33333333333333 13.0 L 76.66666666666667 14.0 L 76.0 15.0 L 75.0 16.0 L 74.0 17.0 L 73.33333333333333 18.0 L 72.66666666666667 19.0 L 72.0 20.0 L 71.0 21.0 L 70.0 21.666666666666668 L 69.0 22.333333333333332 L 68.0 23.0 L 67.0 24.0 L 66.0 24.666666666666668 L 65.0 25.333333333333332 L 64.0 26.0 L 63.0 26.666666666666668 L 62.0 27.0 L 61.0 27.333333333333332 L 60.0 27.666666666666668 L 59.0 28.333333333333332 L 58.0 28.666666666666668 L 57.0 29.0 L 56.0 29.333333333333332 L 55.0 29.666666666666668 L 54.0 30.0 L 53.0 30.0 L 52.0 30.0 L 51.0 30.333333333333332 L 50.0 30.666666666666668 L 49.0 31.0 L 48.0 31.0 L 47.0 31.0 L 46.0 31.0 L 45.0 31.0 L 44.0 31.0 L 43.0 30.666666666666668 L 42.0 30.333333333333332 L 41.0 30.0 L 40.0 30.0 L 39.0 30.0 L 38.0 29.666666666666668 L 37.0 29.333333333333332 L 36.0 29.0 L 35.0 28.666666666666668 L 34.0 28.333333333333332 L 33.0 27.666666666666668 L 32.0 27.333333333333332 L 31.0 26.666666666666668 L 30.0 26.333333333333332 L 29.0 25.666666666666668 L 28.0 25.333333333333332 L 27.0 24.666666666666668 L 26.0 24.0 L 25.0 23.0 L 24.0 22.0 L 23.0 21.0 L 22.0 20.0 L 21.0 19.0 L 20.0 18.0 L 19.0 17.0 L 18.0 16.333333333333332 L 17.0 16.0 L 16.333333333333332 16.333333333333332 L 16.0 17.0 L 16.0 18.0 L 16.0 19.0 L 16.0 20.0 L 16.333333333333332 20.666666666666668 L 16.5 21.0 Z" stroke="none" fill="rgb(59,87,93)" />
<path d="M 21.5 30.5 L 22.0 31.0 L 23.0 31.666666666666668 L 24.0 32.333333333333336 L 25.0 32.666666666666664 L 26.0 33.333333333333336 L 27.0 33.666666666666664 L 28.0 34.333333333333336 L 29.0 34.666666666666664 L 30.0 35.333333333333336 L 31.0 35.666666666666664 L 32.0 36.0 L 33.0 36.333333333333336 L 34.0 36.666666666666664 L 35.0 37.0 L 36.0 37.0 L 37.0 37.333333333333336 L 38.0 37.666666666666664 L 39.0 38.0 L 40.0 38.0 L 41.0 38.0 L 42.0 38.0 L 43.0 38.0 L 44.0 38.0 L 45.0 38.0 L 46.0 38.0 L 47.0 38.0 L 48.0 38.0 L 49.0 38.0 L 50.0 38.0 L 51.0 38.0 L 52.0 38.0 L 53.0 38.0 L 54.0 38.0 L 55.0 37.666666666666664 L 56.0 37.333333333333336 L 57.0 37.0 L 58.0 37.0 L 59.0 36.666666666666664 L 60.0 36.333333333333336 L 61.0 36.0 L 62.0 35.666666666666664 L 63.0 35.333333333333336 L 64.0 35.0 L 65.0 34.666666666666664 L 66.0 34.333333333333336 L 67.0 33.666666666666664 L 68.0 33.0 L 69.0 32.333333333333336 L 70.0 31.666666666666668 L 71.0 31.333333333333332 L 72.0 30.666666666666668 L 73.0 30.0 L 74.0 29.0 L 75.0 28.0 L 76.0 27.0 L 77.0 26.0 L 78.0 25.0 L 79.0 24.0 L 80.0 23.0 L 81.0 22.0 L 81.66666666666667 21.0 L 82.33333333333333 20.0 L 83.0 19.0 L 83.66666666666667 18.0 L 84.33333333333333 17.0 L 84.66666666666667 16.0 L 85.33333333333333 15.0 L 85.66666666666667 14.0 L 86.33333333333333 13.0 L 86.66666666666667 12.0 L 87.0 11.0 L 86.66666666666667 10.333333333333334 L 86.0 10.0 L 85.0 10.0 L 84.0 10.0 L 83.0 10.0 L 82.33333333333333 10.333333333333334 L 82.0 11.0 L 81.66666666666667 12.0 L 81.0 13.0 L 80.33333333333333 14.0 L 79.66666666666667 15.0 L 79.33333333333333 16.0 L 78.66666666666667 17.0 L 78.0 18.0 L 77.0 19.0 L 76.0 20.0 L 75.0 21.0 L 74.0 22.0 L 73.0 23.0 L 72.0 24.0 L 71.0 25.0 L 70.0 26.0 L 69.0 26.666666666666668 L 68.0 27.333333333333332 L 67.0 28.0 L 66.0 28.666666666666668 L 65.0 29.333333333333332 L 64.0 29.666666666666668 L 63.0 30.333333333333332 L 62.0 30.666666666666668 L 61.0 31.333333333333332 L 60.0 31.666666666666668 L 59.0 32.0 L 58.0 32.333333333333336 L 57.0 32.666666666666664 L 56.0 33.0 L 55.0 33.0 L 54.0 33.0 L 53.0 33.333333333333336 L 52.0 33.666666666666664 L 51.0 34.0 L 50.0 34.0 L 49.0 34.0 L 48.0 34.0 L 47.0 34.0 L 46.0 34.0 L 45.0 34.0 L 44.0 34.0 L 43.0 34.0 L 42.0 34.0 L 41.0 33.666666666666664 L 40.0 33.333333333333336 L 39.0 33.0 L 38.0 33.0 L 37.0 32.666666666666664 L 36.0 32.333333333333336 L 35.0 32.0 L 34.0 31.666666666666668 L 33.0 31.333333333333332 L 32.0 31.0 L 31.0 30.666666666666668 L 30.0 30.333333333333332 L 29.0 29.666666666666668 L 28.0 29.333333333333332 L 27.0 28.666666666666668 L 26.0 28.0 L 25.0 27.333333333333332 L 24.0 26.666666666666668 L 23.0 26.0 L 22.0 25.0 L 21.0 24.0 L 20.0 23.0 L 19.0 22.0 L 18.0 21.333333333333332 L 17.0 21.0 L 16.333333333333332 21.333333333333332 L 16.0 22.0 L 16.0 23.0 L 16.0 24.0 L 16.0 25.0 L 16.0 26.0 L 16.333333333333332 26.666666666666668 L 17.0 27.333333333333332 L 18.0 28.0 L 19.0 29.0 L 20.0 29.666666666666668 L 20.5 30.0 Z" stroke="none" fill="rgb(60,83,89)" />
<path d="M 88.0 19.5 L 88.33333333333333 19.0 L 88.66666666666667 18.0 L 89.33333333333333 17.0 L 89.66666666666667 16.0 L 90.33333333333333 15.0 L 90.66666666666667 14.0 L 91.33333333333333 13.0 L 91.66666666666667 12.0 L 92.0 11.0 L 91.66666666666667 10.333333333333334 L 91.0 10.0 L 90.0 10.0 L 89.0 10.0 L 88.0 10.0 L 87.33333333333333 10.333333333333334 L 86.66666666666667 11.0 L 86.33333333333333 12.0 L 85.66666666666667 13.0 L 85.33333333333333 14.0 L 84.66666666666667 15.0 L 84.33333333333333 16.0 L 83.66666666666667 17.0 L 83.0 18.0 L 82.33333333333333 19.0 L 81.66666666666667 20.0 L 81.0 21.0 L 80.0 22.0 L 79.0 23.0 L 78.0 24.0 L 77.0 25.0 L 76.0 26.0 L 75.0 27.0 L 74.0 28.0 L 73.0 29.0 L 72.0 30.0 L 71.0 30.666666666666668 L 70.0 31.333333333333332 L 69.0 31.666666666666668 L 68.0 32.333333333333336 L 67.0 33.0 L 66.0 33.666666666666664 L 65.0 34.333333333333336 L 64.0 34.666666666666664 L 63.0 35.0 L 62.0 35.333333333333336 L 61.0 35.666666666666664 L 60.0 36.0 L 59.0 36.333333333333336 L 58.0 36.666666666666664 L 57.0 37.0 L 56.0 37.0 L 55.0 37.333333333333336 L 54.0 37.666666666666664 L 53.0 38.0 L 52.0 38.0 L 51.0 38.0 L 50.0 38.0 L 49.0 38.0 L 48.0 38.0 L 47.0 38.0 L 46.0 38.0 L 45.0 38.0 L 44.0 38.0 L 43.0 38.0 L 42.0 38.0 L 41.0 38.0 L 40.0 38.0 L 39.0 37.666666666666664 L 38.0 37.333333333333336 L 37.0 37.0 L 36.0 37.0 L 35.0 36.666666666666664 L 34.0 36.333333333333336 L 33.0 36.0 L 32.0 35.666666666666664 L 31.0 35.333333333333336 L 30.0 34.666666666666664 L 29.0 34.333333333333336 L 28.0 33.666666666666664 L 27.0 33.333333333333336 L 26.0 32.666666666666664 L 25.0 32.333333333333336 L 24.0 31.666666666666668 L 23.0 31.0 L 22.0 30.333333333333332 L 21.0 29.666666666666668 L 20.0 29.0 L 19.0 28.0 L 18.0 27.333333333333332 L 17.0 27.0 L 16.333333333333332 27.333333333333332 L 16.0 28.0 L 16.0 29.0 L 16.0 30.0 L 16.0 31.0 L 16.0 32.0 L 16.333333333333332 32.666666666666664 L 17.0 33.333333333333336 L 18.0 34.0 L 19.0 34.666666666666664 L 20.0 35.333333333333336 L 21.0 35.666666666666664 L 22.0 36.333333333333336 L 23.0 37.0 L 24.0 37.666666666666664 L 25.0 38.333333333333336 L 26.0 38.666666666666664 L 27.0 39.0 L 28.0 39.333333333333336 L 29.0 39.666666666666664 L 30.0 40.0 L 31.0 40.333333333333336 L 32.0 40.666666666666664 L 33.0 41.0 L 34.0 41.333333333333336 L 35.0 41.666666666666664 L 36.0 42.0 L 37.0 42.0 L 38.0 42.0 L 39.0 42.333333333333336 L 40.0 42.666666666666664 L 41.0 43.0 L 42.0 43.0 L 43.0 43.0 L 44.0 43.0 L 45.0 43.0 L 46.0 43.0 L 47.0 43.0 L 48.0 43.0 L 49.0 43.0 L 50.0 43.0 L 51.0 43.0 L 52.0 43.0 L 53.0 42.666666666666664 L 54.0 42.333333333333336 L 55.0 42.0 L 56.0 42.0 L 57.0 42.0 L 58.0 41.666666666666664 L 59.0 41.333333333333336 L 60.0 41.0 L 61.0 41.0 L 62.0 40.666666666666664 L 63.0 40.333333333333336 L 64.0 39.666666666666664 L 65.0 39.333333333333336 L 66.0 39.0 L 67.0 38.666666666666664 L 68.0 38.333333333333336 L 69.0 37.666666666666664 L 70.0 37.333333333333336 L 71.0 36.666666666666664 L 72.0 36.0 L 73.0 35.333333333333336 L 74.0 34.666666666666664 L 75.0 34.0 L 76.0 33.0 L 77.0 32.333333333333336 L 78.0 31.666666666666668 L 79.0 31.0 L 80.0 30.0 L 81.0 29.0 L 82.0 28.0 L 83.0 27.0 L 83.66666666666667 26.0 L 84.33333333333333 25.0 L 85.0 24.0 L 86.0 23.0 L 86.66666666666667 22.0 L 87.33333333333333 21.0 L 87.5 20.5 Z" stroke="none" fill="rgb(61,80,84)" />
<path d="M 23.5 42.0 L 24.0 42.333333333333336 L 25.0 42.666666666666664 L 26.0 43.0 L 27.0 43.333333333333336 L 28.0 43.666666666666664 L 29.0 44.0 L 30.0 44.333333333333336 L 31.0 44.666666666666664 L 32.0 45.0 L 33.0 45.333333333333336 L 34.0 45.666666666666664 L 35.0 46.0 L 36.0 46.0 L 37.0 46.0 L 38.0 46.333333333333336 L 39.0 46.666666666666664 L 40.0 47.0 L 41.0 47.0 L 42.0 47.0 L 43.0 47.0 L 44.0 47.0 L 45.0 47.0 L 46.0 47.0 L 47.0 47.0 L 48.0 47.0 L 49.0 47.0 L 50.0 47.0 L 51.0 47.0 L 52.0 47.0 L 53.0 47.0 L 54.0 46.666666666666664 L 55.0 46.333333333333336 L 56.0 46.0 L 57.0 46.0 L 58.0 46.0 L 59.0 45.666666666666664 L 60.0 45.333333333333336 L 61.0 45.0 L 62.0 44.666666666666664 L 63.0 44.333333333333336 L 64.0 44.0 L 65.0 43.666666666666664 L 66.0 43.333333333333336 L 67.0 43.0 L 68.0 42.666666666666664 L 69.0 42.333333333333336 L 70.0 41.666666666666664 L 71.0 41.333333333333336 L 72.0 40.666666666666664 L 73.0 40.333333333333336 L 74.0 39.666666666666664 L 75.0 39.0 L 76.0 38.333333333333336 L 77.0 37.666666666666664 L 78.0 37.0 L 79.0 36.0 L 80.0 35.0 L 81.0 34.333333333333336 L 82.0 33.666666666666664 L 83.0 33.0 L 84.0 32.0 L 84.66666666666667 31.0 L 85.33333333333333 30.0 L 86.0 29.0 L 87.0 28.0 L 88.0 27.0 L 88.66666666666667 26.0 L 89.33333333333333 25.0 L 90.0 24.0 L 90.66666666666667 23.0 L 91.33333333333333 22.0 L 91.66666666666667 21.0 L 92.33333333333333 20.0 L 93.0 19.0 L 93.66666666666667 18.0 L 94.0 17.0 L 94.33333333333333 16.0 L 94.66666666666667 15.0 L 95.33333333333333 14.0 L 95.66666666666667 13.0 L 96.0 12.0 L 96.0 11.0 L 95.66666666666667 10.333333333333334 L 95.0 10.0 L 94.0 10.0 L 93.0 10.0 L 92.33333333333333 10.333333333333334 L 91.66666666666667 11.0 L 91.33333333333333 12.0 L 90.66666666666667 13.0 L 90.33333333333333 14.0 L 89.66666666666667 15.0 L 89.33333333333333 16.0 L 88.66666666666667 17.0 L 88.33333333333333 18.0 L 87.66666666666667 19.0 L 87.33333333333333 20.0 L 86.66666666666667 21.0 L 86.0 22.0 L 85.0 23.0 L 84.33333333333333 24.0 L 83.66666666666667 25.0 L 83.0 26.0 L 82.0 27.0 L 81.0 28.0 L 80.0 29.0 L 79.0 30.0 L 78.0 31.0 L 77.0 31.666666666666668 L 76.0 32.333333333333336 L 75.0 33.0 L 74.0 34.0 L 73.0 34.666666666666664 L 72.0 35.333333333333336 L 71.0 36.0 L 70.0 36.666666666666664 L 69.0 37.333333333333336 L 68.0 37.666666666666664 L 67.0 38.333333333333336 L 66.0 38.666666666666664 L 65.0 39.0 L 64.0 39.333333333333336 L 63.0 39.666666666666664 L 62.0 40.333333333333336 L 61.0 40.666666666666664 L 60.0 41.0 L 59.0 41.0 L 58.0 41.333333333333336 L 57.0 41.666666666666664 L 56.0 42.0 L 55.0 42.0 L 54.0 42.0 L 53.0 42.333333333333336 L 52.0 42.666666666666664 L 51.0 43.0 L 50.0 43.0 L 49.0 43.0 L 48.0 43.0 L 47.0 43.0 L 46.0 43.0 L 45.0 43.0 L 44.0 43.0 L 43.0 43.0 L 42.0 43.0 L 41.0 42.666666666666664 L 40.0 42.333333333333336 L 39.0 42.0 L 38.0 42.0 L 37.0 42.0 L 36.0 41.666666666666664 L 35.0 41.333333333333336 L 34.0 41.0 L 33.0 40.666666666666664 L 32.0 40.333333333333336 L 31.0 40.0 L 30.0 39.666666666666664 L 29.0 39.333333333333336 L 28.0 39.0 L 27.0 38.666666666666664 L 26.0 38.333333333333336 L 25.0 37.666666666666664 L 24.0 37.0 L 23.0 36.333333333333336 L 22.0 35.666666666666664 L 21.0 35.333333333333336 L 20.0 34.666666666666664 L 19.0 34.0 L 18.0 33.333333333333336 L 17.0 33.0 L 16.333333333333332 33.333333333333336 L 16.0 34.0 L 16.0 35.0 L 16.0 36.0 L 16.0 37.0 L 16.333333333333332 37.666666666666664 L 17.0 38.333333333333336 L 18.0 38.666666666666664 L 19.0 39.333333333333336 L 20.0 40.0 L 21.0 40.666666666666664 L 22.0 41.333333333333336 L 22.5 41.5 Z" stroke="none" fill="rgb(63,76,79)" />
<path d="M 53.5 50.0 L 54.0 50.0 L 55.0 50.0 L 56.0 49.666666666666664 L 57.0 49.333333333333336 L 58.0 49.0 L 59.0 49.0 L 60.0 49.0 L 61.0 48.666666666666664 L 62.0 48.333333333333336 L 63.0 48.0 L 64.0 47.666666666666664 L 65.0 47.333333333333336 L 66.0 47.0 L 67.0 46.666666666666664 L 68.0 46.333333333333336 L 69.0 45.666666666666664 L 70.0 45.333333333333336 L 71.0 44.666666666666664 L 72.0 44.333333333333336 L 73.0 43.666666666666664 L 74.0 43.333333333333336 L 75.0 42.666666666666664 L 76.0 42.333333333333336 L 77.0 41.666666666666664 L 78.0 41.0 L 79.0 40.0 L 80.0 39.333333333333336 L 81.0 38.666666666666664 L 82.0 38.0 L 83.0 37.0 L 84.0 36.0 L 85.0 35.0 L 86.0 34.0 L 87.0 33.0 L 88.0 32.0 L 89.0 31.0 L 90.0 30.0 L 90.66666666666667 29.0 L 91.33333333333333 28.0 L 92.0 27.0 L 92.66666666666667 26.0 L 93.33333333333333 25.0 L 94.0 24.0 L 94.66666666666667 23.0 L 95.33333333333333 22.0 L 95.66666666666667 21.0 L 96.33333333333333 20.0 L 96.66666666666667 19.0 L 97.33333333333333 18.0 L 97.66666666666667 17.0 L 98.0 16.0 L 98.33333333333333 15.0 L 98.66666666666667 14.0 L 99.0 13.0 L 99.0 12.0 L 99.0 11.0 L 98.66666666666667 10.333333333333334 L 98.0 10.0 L 97.0 10.0 L 96.33333333333333 10.333333333333334 L 96.0 11.0 L 95.66666666666667 12.0 L 95.33333333333333 13.0 L 94.66666666666667 14.0 L 94.33333333333333 15.0 L 94.0 16.0 L 93.66666666666667 17.0 L 93.0 18.0 L 92.33333333333333 19.0 L 91.66666666666667 20.0 L 91.33333333333333 21.0 L 90.66666666666667 22.0 L 90.0 23.0 L 89.33333333333333 24.0 L 88.66666666666667 25.0 L 88.0 26.0 L 87.0 27.0 L 86.0 28.0 L 85.33333333333333 29.0 L 84.66666666666667 30.0 L 84.0 31.0 L 83.0 32.0 L 82.0 33.0 L 81.0 33.666666666666664 L 80.0 34.333333333333336 L 79.0 35.0 L 78.0 36.0 L 77.0 37.0 L 76.0 37.666666666666664 L 75.0 38.333333333333336 L 74.0 39.0 L 73.0 39.666666666666664 L 72.0 40.333333333333336 L 71.0 40.666666666666664 L 70.0 41.333333333333336 L 69.0 41.666666666666664 L 68.0 42.333333333333336 L 67.0 42.666666666666664 L 66.0 43.0 L 65.0 43.333333333333336 L 64.0 43.666666666666664 L 63.0 44.0 L 62.0 44.333333333333336 L 61.0 44.666666666666664 L 60.0 45.0 L 59.0 45.333333333333336 L 58.0 45.666666666666664 L 57.0 46.0 L 56.0 46.0 L 55.0 46.0 L 54.0 46.333333333333336 L 53.0 46.666666666666664 L 52.0 47.0 L 51.0 47.0 L 50.0 47.0 L 49.0 47.0 L 48.0 47.0 L 47.0 47.0 L 46.0 47.0 L 45.0 47.0 L 44.0 47.0 L 43.0 47.0 L 42.0 47.0 L 41.0 47.0 L 40.0 46.666666666666664 L 39.0 46.333333333333336 L 38.0 46.0 L 37.0 46.0 L 36.0 46.0 L 35.0 45.666666666666664 L 34.0 45.333333333333336 L 33.0 45.0 L 32.0 44.666666666666664 L 31.0 44.333333333333336 L 30.0 44.0 L 29.0 43.666666666666664 L 28.0 43.333333333333336 L 27.0 43.0 L 26.0 42.666666666666664 L 25.0 42.333333333333336 L 24.0 41.666666666666664 L 23.0 41.333333333333336 L 22.0 40.666666666666664 L 21.0 40.0 L 20.0 39.333333333333336 L 19.0 38.666666666666664 L 18.0 38.333333333333336 L 17.0 38.0 L 16.333333333333332 38.333333333333336 L 16.0 39.0 L 16.0 40.0 L 16.0 41.0 L 16.333333333333332 41.666666666666664 L 17.0 42.333333333333336 L 18.0 42.666666666666664 L 19.0 43.333333333333336 L 20.0 43.666666666666664 L 21.0 44.333333333333336 L 22.0 44.666666666666664 L 23.0 45.333333333333336 L 24.0 45.666666666666664 L 25.0 46.333333333333336 L 26.0 46.666666666666664 L 27.0 47.0 L 28.0 47.333333333333336 L 29.0 47.666666666666664 L 30.0 48.0 L 31.0 48.333333333333336 L 32.0 48.666666666666664 L 33.0 49.0 L 34.0 49.0 L 35.0 49.0 L 36.0 49.333333333333336 L 37.0 49.666666666666664 L 38.0 50.0 L 39.0 50.0 L 40.0 50.0 L 41.0 50.0 L 42.0 50.0 L 43.0 50.0 L 44.0 50.0 L 45.0 50.0 L 46.0 50.0 L 47.0 50.0 L 48.0 50.0 L 49.0 50.0 L 50.0 50.0 L 51.0 50.0 L 52.0 50.0 L 52.5 50.0 Z" stroke="none" fill="rgb(64,73,75)" />
<path d="M 23.5 49.5 L 24.0 49.666666666666664 L 25.0 50.333333333333336 L 26.0 50.666666666666664 L 27.0 51.0 L 28.0 51.333333333333336 L 29.0 51.666666666666664 L 30.0 52.0 L 31.0 52.0 L 32.0 52.333333333333336 L 33.0 52.666666666666664 L 34.0 53.0 L 35.0 53.0 L 36.0 53.0 L 37.0 53.333333333333336 L 38.0 53.666666666666664 L 39.0 54.0 L 40.0 54.0 L 41.0 54.0 L 42.0 54.0 L 43.0 54.0 L 44.0 54.0 L 45.0 54.0 L 46.0 54.0 L 47.0 54.0 L 48.0 54.0 L 49.0 54.0 L 50.0 54.0 L 51.0 54.0 L 52.0 54.0 L 53.0 54.0 L 54.0 54.0 L 55.0 54.0 L 56.0 53.666666666666664 L 57.0 53.333333333333336 L 58.0 53.0 L 59.0 53.0 L 60.0 53.0 L 61.0 52.666666666666664 L 62.0 52.333333333333336 L 63.0 52.0 L 64.0 51.666666666666664 L 65.0 51.333333333333336 L 66.0 51.0 L 67.0 50.666666666666664 L 68.0 50.333333333333336 L 69.0 50.0 L 70.0 49.666666666666664 L 71.0 49.333333333333336 L 72.0 48.666666666666664 L 73.0 48.333333333333336 L 74.0 47.666666666666664 L 75.0 47.333333333333336 L 76.0 46.666666666666664 L 77.0 46.0 L 78.0 45.333333333333336 L 79.0 44.666666666666664 L 80.0 44.0 L 81.0 43.333333333333336 L 82.0 42.666666666666664 L 83.0 42.0 L 84.0 41.0 L 85.0 40.333333333333336 L 86.0 39.666666666666664 L 87.0 39.0 L 88.0 38.0 L 89.0 37.0 L 90.0 36.0 L 91.0 35.0 L 91.66666666666667 34.0 L 92.33333333333333 33.0 L 93.0 32.0 L 94.0 31.0 L 94.66666666666667 30.0 L 95.33333333333333 29.0 L 96.0 28.0 L 96.66666666666667 27.0 L 97.33333333333333 26.0 L 97.66666666666667 25.0 L 98.33333333333333 24.0 L 99.0 23.0 L 99.66666666666667 22.0 L 100.0 21.0 L 100.33333333333333 20.0 L 100.66666666666667 19.0 L 101.33333333333333 18.0 L 101.66666666666667 17.0 L 102.0 16.0 L 102.33333333333333 15.0 L 102.66666666666667 14.0 L 103.0 13.0 L 103.0 12.0 L 103.0 11.0 L 102.66666666666667 10.333333333333334 L 102.0 10.0 L 101.0 10.0 L 100.0 10.333333333333334 L 99.33333333333333 11.0 L 99.0 12.0 L 98.66666666666667 13.0 L 98.33333333333333 14.0 L 98.0 15.0 L 97.66666666666667 16.0 L 97.33333333333333 17.0 L 96.66666666666667 18.0 L 96.33333333333333 19.0 L 95.66666666666667 20.0 L 95.33333333333333 21.0 L 94.66666666666667 22.0 L 94.0 23.0 L 93.33333333333333 24.0 L 92.66666666666667 25.0 L 92.0 26.0 L 91.33333333333333 27.0 L 90.66666666666667 28.0 L 90.0 29.0 L 89.0 30.0 L 88.0 31.0 L 87.0 32.0 L 86.0 33.0 L 85.0 34.0 L 84.0 35.0 L 83.0 36.0 L 82.0 37.0 L 81.0 38.0 L 80.0 38.666666666666664 L 79.0 39.333333333333336 L 78.0 40.0 L 77.0 41.0 L 76.0 41.666666666666664 L 75.0 42.333333333333336 L 74.0 42.666666666666664 L 73.0 43.333333333333336 L 72.0 43.666666666666664 L 71.0 44.333333333333336 L 70.0 44.666666666666664 L 69.0 45.333333333333336 L 68.0 45.666666666666664 L 67.0 46.333333333333336 L 66.0 46.666666666666664 L 65.0 47.0 L 64.0 47.333333333333336 L 63.0 47.666666666666664 L 62.0 48.0 L 61.0 48.333333333333336 L 60.0 48.666666666666664 L 59.0 49.0 L 58.0 49.0 L 57.0 49.0 L 56.0 49.333333333333336 L 55.0 49.666666666666664 L 54.0 50.0 L 53.0 50.0 L 52.0 50.0 L 51.0 50.0 L 50.0 50.0 L 49.0 50.0 L 48.0 50.0 L 47.0 50.0 L 46.0 50.0 L 45.0 50.0 L 44.0 50.0 L 43.0 50.0 L 42.0 50.0 L 41.0 50.0 L 40.0 50.0 L 39.0 50.0 L 38.0 49.666666666666664 L 37.0 49.333333333333336 L 36.0 49.0 L 35.0 49.0 L 34.0 49.0 L 33.0 48.666666666666664 L 32.0 48.333333333333336 L 31.0 48.0 L 30.0 47.666666666666664 L 29.0 47.333333333333336 L 28.0 47.0 L 27.0 46.666666666666664 L 26.0 46.333333333333336 L 25.0 45.666666666666664 L 24.0 45.333333333333336 L 23.0 44.666666666666664 L 22.0 44.333333333333336 L 21.0 43.666666666666664 L 20.0 43.333333333333336 L 19.0 42.666666666666664 L 18.0 42.333333333333336 L 17.0 42.0 L 16.333333333333332 42.333333333333336 L 16.0 43.0 L 16.0 44.0 L 16.0 45.0 L 16.0 46.0 L 16.333333333333332 46.666666666666664 L 17.0 47.0 L 18.0 47.333333333333336 L 19.0 47.666666666666664 L 20.0 48.333333333333336 L 21.0 48.666666666666664 L 22.0 49.0 L 22.5 49.0 Z" stroke="none" fill="rgb(65,69,70)" />
<path d="M 59.5 72.0 L 60.0 72.0 L 61.0 72.0 L 62.0 72.0 L 63.0 72.0 L 64.0 72.0 L 65.0 72.0 L 66.0 72.0 L 67.0 72.0 L 68.0 72.0 L 69.0 72.0 L 70.0 72.0 L 71.0 72.0 L 72.0 72.0 L 73.0 72.0 L 74.0 72.0 L 75.0 72.0 L 76.0 72.0 L 77.0 72.0 L 78.0 72.0 L 79.0 72.0 L 80.0 72.0 L 81.0 72.0 L 82.0 72.0 L 83.0 72.0 L 84.0 72.0 L 85.0 72.0 L 86.0 72.0 L 87.0 72.0 L 88.0 72.0 L 89.0 72.0 L 90.0 72.0 L 91.0 72.0 L 92.0 72.0 L 93.0 72.0 L 94.0 72.0 L 95.0 72.0 L 96.0 72.0 L 97.0 72.0 L 98.0 72.0 L 99.0 72.0 L 100.0 72.0 L 101.0 72.0 L 102.0 72.0 L 103.0 72.0 L 104.0 72.0 L 105.0 72.0 L 106.0 72.0 L 107.0 72.0 L 108.0 72.0 L 109.0 72.0 L 110.0 72.0 L 111.0 72.0 L 111.66666666666667 71.66666666666667 L 112.0 71.0 L 112.0 70.0 L 112.0 69.0 L 112.0 68.0 L 112.0 67.0 L 112.0 66.0 L 112.0 65.0 L 112.0 64.0 L 112.0 63.0 L 112.0 62.0 L 112.0 61.0 L 112.0 60.0 L 112.0 59.0 L 112.0 58.0 L 112.0 57.0 L 112.0 56.0 L 112.0 55.0 L 112.0 54.0 L 112.0 53.0 L 112.0 52.0 L 112.0 51.0 L 112.0 50.0 L 112.0 49.0 L 112.0 48.0 L 112.0 47.0 L 112.0 46.0 L 112.0 45.0 L 112.0 44.0 L 112.0 43.0 L 112.0 42.0 L 112.0 41.0 L 112.0 40.0 L 112.0 39.0 L 112.0 38.0 L 112.0 37.0 L 112.0 36.0 L 112.0 35.0 L 112.0 34.0 L 112.0 33.0 L 112.0 32.0 L 112.0 31.0 L 112.0 30.0 L 112.0 29.0 L 112.0 28.0 L 112.0 27.0 L 112.0 26.0 L 112.0 25.0 L 112.0 24.0 L 112.0 23.0 L 112.0 22.0 L 112.0 21.0 L 112.0 20.0 L 112.0 19.0 L 112.0 18.0 L 112.0 17.0 L 112.0 16.0 L 112.0 15.0 L 112.0 14.0 L 112.0 13.0 L 112.0 12.0 L 112.0 11.0 L 111.66666666666667 10.333333333333334 L 111.0 10.0 L 110.0 10.0 L 109.0 10.0 L 108.0 10.0 L 107.0 10.0 L 106.0 10.0 L 105.0 10.0 L 104.0 10.333333333333334 L 103.33333333333333 11.0 L 103.0 12.0 L 102.66666666666667 13.0 L 102.33333333333333 14.0 L 102.0 15.0 L 101.66666666666667 16.0 L 101.33333333333333 17.0 L 100.66666666666667 18.0 L 100.33333333333333 19.0 L 100.0 20.0 L 99.66666666666667 21.0 L 99.0 22.0 L 98.33333333333333 23.0 L 97.66666666666667 24.0 L 97.33333333333333 25.0 L 96.66666666666667 26.0 L 96.0 27.0 L 95.33333333333333 28.0 L 94.66666666666667 29.0 L 94.0 30.0 L 93.0 31.0 L 92.33333333333333 32.0 L 91.66666666666667 33.0 L 91.0 34.0 L 90.0 35.0 L 89.0 36.0 L 88.0 37.0 L 87.0 38.0 L 86.0 39.0 L 85.0 39.666666666666664 L 84.0 40.333333333333336 L 83.0 41.0 L 82.0 42.0 L 81.0 42.666666666666664 L 80.0 43.333333333333336 L 79.0 44.0 L 78.0 44.666666666666664 L 77.0 45.333333333333336 L 76.0 46.0 L 75.0 46.666666666666664 L 74.0 47.333333333333336 L 73.0 47.666666666666664 L 72.0 48.333333333333336 L 71.0 48.666666666666664 L 70.0 49.333333333333336 L 69.0 49.666666666666664 L 68.0 50.0 L 67.0 50.333333333333336 L 66.0 50.666666666666664 L 65.0 51.0 L 64.0 51.333333333333336 L 63.0 51.666666666666664 L 62.0 52.0 L 61.0 52.333333333333336 L 60.0 52.666666666666664 L 59.0 53.0 L 58.0 53.0 L 57.0 53.0 L 56.0 53.333333333333336 L 55.0 53.666666666666664 L 54.0 54.0 L 53.0 54.0 L 52.0 54.0 L 51.0 54.0 L 50.0 54.0 L 49.0 54.0 L 48.0 54.0 L 47.0 54.0 L 46.0 54.0 L 45.0 54.0 L 44.0 54.0 L 43.0 54.0 L 42.0 54.0 L 41.0 54.0 L 40.0 54.0 L 39.0 53.666666666666664 L 38.0 53.333333333333336 L 37.0 53.0 L 36.0 53.0 L 35.0 53.0 L 34.0 52.666666666666664 L 33.0 52.333333333333336 L 32.0 52.0 L 31.0 52.0 L 30.0 51.666666666666664 L 29.0 51.333333333333336 L 28.0 51.0 L 27.0 50.666666666666664 L 26.0 50.333333333333336 L 25.0 49.666666666666664 L 24.0 49.333333333333336 L 23.0 49.0 L 22.0 48.666666666666664 L 21.0 48.333333333333336 L 20.0 47.666666666666664 L 19.0 47.333333333333336 L 18.0 47.0 L 17.0 47.0 L 16.333333333333332 47.333333333333336 L 16.0 48.0 L 16.0 49.0 L 16.0 50.0 L 16.0 51.0 L 16.0 52.0 L 16.0 53.0 L 16.0 54.0 L 16.0 55.0 L 16.0 56.0 L 16.0 57.0 L 16.0 58.0 L 16.0 59.0 L 16.0 60.0 L 16.0 61.0 L 16.0 62.0 L 16.0 63.0 L 16.0 64.0 L 16.0 65.0 L 16.0 66.0 L 16.0 67.0 L 16.0 68.0 L 16.0 69.0 L 16.0 70.0 L 16.0 71.0 L 16.333333333333332 71.66666666666667 L 17.0 72.0 L 18.0 72.0 L 19.0 72.0 L 20.0 72.0 L 21.0 72.0 L 22.0 72.0 L 23.0 72.0 L 24.0 72.0 L 25.0 72.0 L 26.0 72.0 L 27.0 72.0 L 28.0 72.0 L 29.0 72.0 L 30.0 72.0 L 31.0 72.0 L 32.0 72.0 L 33.0 72.0 L 34.0 72.0 L 35.0 72.0 L 36.0 72.0 L 37.0 72.0 L 38.0 72.0 L 39.0 72.0 L 40.0 72.0 L 41.0 72.0 L 42.0 72.0 L 43.0 72.0 L 44.0 72.0 L 45.0 72.0 L 46.0 72.0 L 47.0 72.0 L 48.0 72.0 L 49.0 72.0 L 50.0 72.0 L 51.0 72.0 L 52.0 72.0 L 53.0 72.0 L 54.0 72.0 L 55.0 72.0 L 56.0 72.0 L 57.0 72.0 L 58.0 72.0 L 58.5 72.0 Z" stroke="none" fill="rgb(66,66,66)" />
<path d="M 59.5 85.0 L 60.0 85.0 L 61.0 85.0 L 62.0 85.33333333333333 L 63.0 85.66666666666667 L 64.0 86.0 L 65.0 86.0 L 66.0 86.0 L 67.0 86.0 L 68.0 86.0 L 69.0 86.33333333333333 L 70.0 86.66666666666667 L 71.0 87.0 L 72.0 87.0 L 72.66666666666667 86.66666666666667 L 73.0 86.0 L 73.0 85.0 L 73.0 84.0 L 73.0 83.0 L 73.0 82.0 L 73.33333333333333 81.0 L 74.0 80.33333333333333 L 75.0 80.0 L 76.0 80.0 L 77.0 80.0 L 78.0 80.0 L 79.0 80.0 L 80.0 80.0 L 81.0 80.0 L 82.0 80.0 L 83.0 80.0 L 84.0 80.0 L 85.0 80.0 L 86.0 80.0 L 87.0 80.0 L 88.0 80.0 L 89.0 80.0 L 90.0 80.0 L 91.0 80.0 L 92.0 80.0 L 93.0 80.0 L 94.0 80.0 L 95.0 80.0 L 96.0 80.0 L 97.0 80.0 L 98.0 80.0 L 99.0 80.0 L 100.0 80.0 L 101.0 80.0 L 102.0 80.0 L 103.0 80.0 L 104.0 80.0 L 105.0 80.0 L 106.0 80.0 L 107.0 80.0 L 108.0 80.0 L 109.0 80.0 L 110.0 80.0 L 111.0 80.0 L 112.0 80.0 L 113.0 80.0 L 114.0 80.0 L 115.0 80.0 L 115.66666666666667 79.66666666666667 L 116.0 79.0 L 115.66666666666667 78.33333333333333 L 115.0 78.0 L 114.0 78.0 L 113.0 78.0 L 112.0 78.0 L 111.0 78.0 L 110.0 78.0 L 109.0 78.0 L 108.0 78.0 L 107.0 78.0 L 106.0 78.0 L 105.0 78.0 L 104.0 78.0 L 103.0 78.0 L 102.0 78.0 L 101.0 78.0 L 100.0 78.0 L 99.0 78.0 L 98.0 78.0 L 97.0 78.0 L 96.0 78.0 L 95.0 78.0 L 94.0 78.0 L 93.0 78.0 L 92.0 78.0 L 91.0 78.0 L 90.0 78.0 L 89.0 78.0 L 88.0 78.0 L 87.0 78.0 L 86.0 78.0 L 85.0 78.0 L 84.0 78.0 L 83.0 78.0 L 82.0 78.0 L 81.0 78.0 L 80.0 78.0 L 79.0 78.0 L 78.0 78.0 L 77.0 78.0 L 76.0 78.0 L 75.0 78.0 L 74.0 78.0 L 73.0 78.0 L 72.0 78.0 L 71.0 78.0 L 70.0 78.0 L 69.0 78.0 L 68.0 78.0 L 67.0 78.0 L 66.0 78.0 L 65.0 78.0 L 64.0 78.0 L 63.0 78.0 L 62.0 78.0 L 61.0 78.0 L 60.0 78.0 L 59.0 78.0 L 58.0 78.0 L 57.0 78.0 L 56.0 78.0 L 55.0 78.0 L 54.0 78.0 L 53.0 78.0 L 52.0 78.0 L 51.0 78.0 L 50.0 78.0 L 49.0 78.0 L 48.0 78.0 L 47.0 78.0 L 46.0 78.0 L 45.0 78.0 L 44.0 78.0 L 43.0 78.0 L 42.0 78.0 L 41.0 78.0 L 40.0 78.0 L 39.0 78.0 L 38.0 78.0 L 37.0 78.0 L 36.0 78.0 L 35.0 78.0 L 34.0 78.0 L 33.0 78.0 L 32.0 78.0 L 31.0 78.0 L 30.0 78.0 L 29.0 78.0 L 28.0 78.0 L 27.0 78.0 L 26.0 78.0 L 25.0 78.0 L 24.0 78.0 L 23.0 78.0 L 22.0 78.0 L 21.0 78.0 L 20.0 78.0 L 19.0 78.0 L 18.0 78.0 L 17.0 78.0 L 16.0 78.0 L 15.0 78.0 L 14.0 77.66666666666667 L 13.0 77.33333333333333 L 12.0 77.33333333333333 L 11.333333333333334 78.0 L 11.333333333333334 79.0 L 12.0 79.66666666666667 L 13.0 80.0 L 14.0 80.0 L 15.0 80.0 L 16.0 80.0 L 17.0 80.0 L 18.0 80.0 L 19.0 80.0 L 20.0 80.0 L 21.0 80.0 L 22.0 80.0 L 23.0 80.0 L 24.0 80.0 L 25.0 80.0 L 26.0 80.0 L 27.0 80.0 L 28.0 80.0 L 29.0 80.0 L 30.0 80.0 L 31.0 80.0 L 32.0 80.0 L 33.0 80.0 L 34.0 80.0 L 35.0 80.0 L 36.0 80.0 L 37.0 80.0 L 38.0 80.0 L 39.0 80.0 L 40.0 80.0 L 41.0 80.0 L 42.0 80.0 L 43.0 80.0 L 44.0 80.0 L 45.0 80.0 L 46.0 80.0 L 47.0 80.0 L 48.0 80.0 L 49.0 80.0 L 50.0 80.0 L 51.0 80.0 L 52.0 80.0 L 53.0 80.0 L 54.0 80.0 L 55.0 80.0 L 56.0 80.0 L 57.0 80.33333333333333 L 57.333333333333336 81.0 L 57.333333333333336 82.0 L 57.0 83.0 L 57.333333333333336 84.0 L 58.0 84.66666666666667 L 58.5 85.0 Z" stroke="none" fill="rgb(105,161,186)" />
<path d="M 59.5 96.5 L 60.0 96.66666666666667 L 61.0 97.0 L 62.0 97.0 L 63.0 97.0 L 64.0 97.0 L 65.0 97.0 L 66.0 97.0 L 67.0 97.33333333333333 L 68.0 98.0 L 68.66666666666667 99.0 L 69.33333333333333 99.66666666666667 L 70.0 100.0 L 71.0 100.0 L 72.0 100.0 L 73.0 100.0 L 74.0 100.0 L 75.0 100.0 L 76.0 100.0 L 77.0 100.0 L 78.0 100.0 L 79.0 100.0 L 80.0 100.0 L 81.0 100.0 L 82.0 100.0 L 83.0 99.66666666666667 L 84.0 99.33333333333333 L 85.0 99.0 L 86.0 98.66666666666667 L 87.0 98.33333333333333 L 88.0 98.0 L 88.66666666666667 97.66666666666667 L 89.0 97.0 L 89.0 96.0 L 89.0 95.0 L 88.66666666666667 94.33333333333333 L 88.0 93.66666666666667 L 87.0 93.33333333333333 L 86.0 93.0 L 85.0 92.66666666666667 L 84.0 92.33333333333333 L 83.0 92.0 L 82.0 92.0 L 81.0 92.0 L 80.0 92.0 L 79.0 91.66666666666667 L 78.0 91.33333333333333 L 77.0 91.0 L 76.0 91.0 L 75.0 90.66666666666667 L 74.33333333333333 90.0 L 74.0 89.0 L 73.66666666666667 88.0 L 73.0 87.33333333333333 L 72.0 87.0 L 71.0 86.66666666666667 L 70.0 86.33333333333333 L 69.0 86.0 L 68.0 86.0 L 67.0 86.0 L 66.0 86.0 L 65.0 86.0 L 64.0 85.66666666666667 L 63.0 85.33333333333333 L 62.0 85.0 L 61.0 85.0 L 60.0 85.0 L 59.0 85.0 L 58.0 85.0 L 57.333333333333336 85.33333333333333 L 57.0 86.0 L 56.666666666666664 87.0 L 56.333333333333336 88.0 L 56.0 89.0 L 55.666666666666664 90.0 L 55.0 91.0 L 54.0 92.0 L 53.333333333333336 93.0 L 53.333333333333336 94.0 L 54.0 95.0 L 55.0 95.66666666666667 L 56.0 96.0 L 57.0 96.0 L 58.0 96.0 L 58.5 96.0 Z" stroke="none" fill="rgb(183,213,229)" />
<path d="M 40.5 98.0 L 41.0 98.0 L 42.0 98.33333333333333 L 43.0 98.66666666666667 L 44.0 99.0 L 45.0 99.0 L 46.0 99.0 L 47.0 99.0 L 48.0 99.33333333333333 L 49.0 99.66666666666667 L 50.0 100.0 L 51.0 100.0 L 52.0 100.0 L 53.0 100.0 L 54.0 100.0 L 55.0 100.0 L 56.0 100.0 L 57.0 100.0 L 58.0 100.0 L 59.0 100.0 L 60.0 100.0 L 61.0 100.0 L 62.0 100.0 L 63.0 100.0 L 64.0 100.0 L 65.0 100.0 L 66.0 100.0 L 67.0 100.0 L 68.0 100.0 L 68.66666666666667 99.66666666666667 L 69.0 99.0 L 68.66666666666667 98.0 L 68.0 97.33333333333333 L 67.0 97.0 L 66.0 97.0 L 65.0 97.0 L 64.0 97.0 L 63.0 97.0 L 62.0 97.0 L 61.0 96.66666666666667 L 60.0 96.33333333333333 L 59.0 96.0 L 58.0 96.0 L 57.0 96.0 L 56.0 95.66666666666667 L 55.0 95.0 L 54.333333333333336 94.0 L 54.0 93.0 L 54.0 92.0 L 53.666666666666664 91.33333333333333 L 53.0 91.0 L 52.0 91.0 L 51.0 91.0 L 50.0 91.0 L 49.0 91.33333333333333 L 48.0 91.66666666666667 L 47.0 92.0 L 46.0 92.0 L 45.0 92.0 L 44.0 92.33333333333333 L 43.0 92.66666666666667 L 42.0 93.0 L 41.0 93.33333333333333 L 40.333333333333336 94.0 L 40.0 95.0 L 40.0 96.0 L 40.0 97.0 L 40.0 97.5 Z" stroke="none" fill="rgb(238,238,238)" />
<path d="M 45.5 102.0 L 46.0 102.0 L 47.0 102.0 L 48.0 102.33333333333333 L 49.0 102.66666666666667 L 50.0 103.0 L 51.0 103.0 L 52.0 103.0 L 53.0 103.0 L 54.0 103.0 L 55.0 103.0 L 56.0 103.0 L 57.0 103.0 L 58.0 103.0 L 59.0 103.0 L 60.0 103.0 L 61.0 103.0 L 62.0 103.0 L 63.0 103.0 L 64.0 103.0 L 65.0 103.0 L 66.0 103.0 L 67.0 103.0 L 68.0 103.0 L 69.0 103.0 L 70.0 103.0 L 71.0 103.0 L 72.0 103.0 L 73.0 103.0 L 74.0 103.0 L 75.0 103.0 L 76.0 103.0 L 77.0 103.0 L 78.0 103.0 L 79.0 102.66666666666667 L 80.0 102.33333333333333 L 81.0 102.0 L 82.0 102.0 L 83.0 102.0 L 84.0 101.66666666666667 L 85.0 101.33333333333333 L 86.0 101.0 L 87.0 100.66666666666667 L 87.66666666666667 100.0 L 88.0 99.0 L 87.66666666666667 98.33333333333333 L 87.0 98.0 L 86.0 98.33333333333333 L 85.0 98.66666666666667 L 84.0 99.0 L 83.0 99.33333333333333 L 82.0 99.66666666666667 L 81.0 100.0 L 80.0 100.0 L 79.0 100.0 L 78.0 100.0 L 77.0 100.0 L 76.0 100.0 L 75.0 100.0 L 74.0 100.0 L 73.0 100.0 L 72.0 100.0 L 71.0 100.0 L 70.0 100.0 L 69.0 100.0 L 68.0 100.0 L 67.0 100.0 L 66.0 100.0 L 65.0 100.0 L 64.0 100.0 L 63.0 100.0 L 62.0 100.0 L 61.0 100.0 L 60.0 100.0 L 59.0 100.0 L 58.0 100.0 L 57.0 100.0 L 56.0 100.0 L 55.0 100.0 L 54.0 100.0 L 53.0 100.0 L 52.0 100.0 L 51.0 100.0 L 50.0 99.66666666666667 L 49.0 99.33333333333333 L 48.0 99.0 L 47.0 99.0 L 46.0 99.0 L 45.0 99.0 L 44.0 98.66666666666667 L 43.0 98.33333333333333 L 42.0 98.0 L 41.0 98.0 L 40.0 98.0 L 39.333333333333336 98.33333333333333 L 39.0 99.0 L 39.333333333333336 99.66666666666667 L 40.0 100.33333333333333 L 41.0 100.66666666666667 L 42.0 101.0 L 43.0 101.33333333333333 L 44.0 101.66666666666667 L 44.5 102.0 Z" stroke="none" fill="rgb(47,120,137)" />
<path d="M 39.5 121.0 L 40.0 121.0 L 41.0 121.0 L 42.0 121.0 L 43.0 121.0 L 44.0 121.0 L 45.0 121.0 L 46.0 121.0 L 47.0 121.0 L 48.0 121.0 L 49.0 121.0 L 50.0 121.0 L 51.0 121.0 L 52.0 121.0 L 53.0 121.0 L 54.0 121.0 L 55.0 121.0 L 56.0 121.0 L 57.0 121.0 L 58.0 121.0 L 59.0 121.0 L 60.0 121.0 L 61.0 121.0 L 62.0 121.0 L 63.0 121.0 L 64.0 121.0 L 65.0 121.0 L 66.0 121.0 L 67.0 121.0 L 68.0 121.0 L 69.0 121.0 L 70.0 121.0 L 71.0 121.0 L 72.0 121.0 L 73.0 121.0 L 74.0 121.0 L 75.0 121.0 L 76.0 121.0 L 77.0 121.0 L 78.0 121.0 L 79.0 121.0 L 80.0 121.0 L 81.0 121.0 L 82.0 121.0 L 83.0 121.0 L 84.0 121.0 L 85.0 121.0 L 86.0 121.0 L 87.0 121.0 L 88.0 121.0 L 89.0 121.0 L 90.0 121.0 L 91.0 121.0 L 92.0 121.0 L 93.0 121.0 L 94.0 121.0 L 95.0 121.0 L 96.0 121.0 L 97.0 121.0 L 98.0 121.0 L 99.0 121.0 L 100.0 121.0 L 101.0 121.0 L 102.0 121.0 L 103.0 121.0 L 104.0 121.0 L 105.0 121.0 L 106.0 121.0 L 107.0 121.0 L 108.0 121.0 L 109.0 121.0 L 110.0 121.0 L 110.66666666666667 120.66666666666667 L 111.0 120.0 L 111.0 119.0 L 110.66666666666667 118.0 L 110.0 117.0 L 109.0 116.0 L 108.33333333333333 115.0 L 107.66666666666667 114.0 L 107.0 113.0 L 106.0 112.0 L 105.33333333333333 111.0 L 104.66666666666667 110.0 L 104.0 109.0 L 103.33333333333333 108.0 L 102.66666666666667 107.0 L 102.0 106.33333333333333 L 101.0 106.0 L 100.33333333333333 106.33333333333333 L 100.0 107.0 L 100.33333333333333 108.0 L 101.0 109.0 L 102.0 110.0 L 102.66666666666667 111.0 L 103.33333333333333 112.0 L 104.0 113.0 L 105.0 114.0 L 105.66666666666667 115.0 L 106.33333333333333 116.0 L 107.0 117.0 L 107.33333333333333 118.0 L 107.0 118.66666666666667 L 106.0 119.0 L 105.0 119.0 L 104.0 119.0 L 103.0 119.0 L 102.0 119.0 L 101.0 119.0 L 100.0 119.0 L 99.0 119.0 L 98.0 119.0 L 97.0 119.0 L 96.0 119.0 L 95.0 119.0 L 94.0 119.0 L 93.0 119.0 L 92.0 119.0 L 91.0 119.0 L 90.0 119.0 L 89.0 119.0 L 88.0 119.0 L 87.0 119.0 L 86.0 119.0 L 85.0 119.0 L 84.0 119.0 L 83.0 119.0 L 82.0 119.0 L 81.0 119.0 L 80.0 119.0 L 79.0 119.0 L 78.0 119.0 L 77.0 119.0 L 76.0 119.0 L 75.0 119.0 L 74.0 119.0 L 73.0 119.0 L 72.0 119.0 L 71.0 119.0 L 70.0 119.0 L 69.0 119.0 L 68.0 119.0 L 67.0 119.0 L 66.0 119.0 L 65.0 119.0 L 64.0 119.0 L 63.0 119.0 L 62.0 119.0 L 61.0 119.0 L 60.0 119.0 L 59.0 119.0 L 58.0 119.0 L 57.0 119.0 L 56.0 119.0 L 55.0 119.0 L 54.0 119.0 L 53.0 119.0 L 52.0 119.0 L 51.0 119.0 L 50.0 119.0 L 49.0 119.0 L 48.0 119.0 L 47.0 119.0 L 46.0 119.0 L 45.0 119.0 L 44.0 119.0 L 43.0 119.0 L 42.0 119.0 L 41.0 119.0 L 40.0 119.0 L 39.0 119.0 L 38.0 119.0 L 37.0 119.0 L 36.0 119.0 L 35.0 119.0 L 34.0 119.0 L 33.0 119.0 L 32.0 119.0 L 31.0 119.0 L 30.0 119.0 L 29.0 119.0 L 28.0 119.0 L 27.0 119.0 L 26.0 119.0 L 25.0 119.0 L 24.0 119.0 L 23.0 119.0 L 22.0 119.0 L 21.0 118.66666666666667 L 20.666666666666668 118.0 L 21.0 117.0 L 22.0 116.0 L 22.666666666666668 115.0 L 23.333333333333332 114.0 L 24.0 113.0 L 25.0 112.0 L 26.0 111.0 L 27.0 110.0 L 28.0 109.0 L 28.666666666666668 108.0 L 29.0 107.0 L 28.666666666666668 106.33333333333333 L 28.0 106.0 L 27.0 106.0 L 26.0 106.33333333333333 L 25.333333333333332 107.0 L 24.666666666666668 108.0 L 24.0 109.0 L 23.333333333333332 110.0 L 22.666666666666668 111.0 L 22.0 112.0 L 21.0 113.0 L 20.333333333333332 114.0 L 19.666666666666668 115.0 L 19.0 116.0 L 18.0 117.0 L 17.333333333333332 118.0 L 17.0 119.0 L 17.333333333333332 120.0 L 18.0 120.66666666666667 L 19.0 121.0 L 20.0 121.0 L 21.0 121.0 L 22.0 121.0 L 23.0 121.0 L 24.0 121.0 L 25.0 121.0 L 26.0 121.0 L 27.0 121.0 L 28.0 121.0 L 29.0 121.0 L 30.0 121.0 L 31.0 121.0 L 32.0 121.0 L 33.0 121.0 L 34.0 121.0 L 35.0 121.0 L 36.0 121.0 L 37.0 121.0 L 38.0 121.0 L 38.5 121.0 Z" stroke="none" fill="rgb(183,213,229)" />
<path d="M 95.5 119.0 L 96.0 119.0 L 97.0 119.0 L 98.0 119.0 L 99.0 119.0 L 100.0 119.0 L 101.0 119.0 L 102.0 119.0 L 103.0 119.0 L 104.0 119.0 L 105.0 119.0 L 106.0 119.0 L 107.0 119.0 L 107.66666666666667 118.66666666666667 L 108.0 118.0 L 107.66666666666667 117.0 L 107.0 116.0 L 106.33333333333333 115.0 L 105.66666666666667 114.0 L 105.0 113.0 L 104.0 112.0 L 103.33333333333333 111.0 L 102.66666666666667 110.0 L 102.0 109.0 L 101.0 108.0 L 100.0 107.33333333333333 L 99.0 107.0 L 98.0 107.0 L 97.0 107.0 L 96.0 107.0 L 95.0 107.0 L 94.0 107.0 L 93.0 107.0 L 92.0 107.0 L 91.0 107.0 L 90.0 107.0 L 89.0 107.0 L 88.0 107.0 L 87.0 107.0 L 86.0 107.0 L 85.0 107.0 L 84.0 107.0 L 83.0 107.0 L 82.0 107.0 L 81.0 107.0 L 80.0 107.0 L 79.0 107.0 L 78.0 107.0 L 77.0 107.0 L 76.0 107.0 L 75.0 107.0 L 74.0 107.0 L 73.0 107.0 L 72.0 107.0 L 71.0 107.0 L 70.0 107.0 L 69.0 107.0 L 68.0 107.0 L 67.0 107.0 L 66.0 107.0 L 65.0 107.0 L 64.0 107.0 L 63.0 107.0 L 62.0 107.0 L 61.0 107.0 L 60.0 107.0 L 59.0 107.0 L 58.0 107.0 L 57.0 107.0 L 56.0 107.0 L 55.0 107.0 L 54.0 107.0 L 53.0 107.0 L 52.0 107.0 L 51.0 107.0 L 50.0 107.0 L 49.0 107.0 L 48.0 107.0 L 47.0 107.0 L 46.0 107.0 L 45.0 107.0 L 44.0 107.0 L 43.0 107.0 L 42.0 107.0 L 41.0 107.0 L 40.0 107.0 L 39.0 107.0 L 38.0 107.0 L 37.0 107.0 L 36.0 107.0 L 35.0 107.0 L 34.0 107.0 L 33.0 107.0 L 32.0 107.0 L 31.0 107.0 L 30.0 107.0 L 29.0 107.33333333333333 L 28.0 108.0 L 27.0 109.0 L 26.0 110.0 L 25.0 111.0 L 24.0 112.0 L 23.333333333333332 113.0 L 22.666666666666668 114.0 L 22.0 115.0 L 21.0 116.0 L 20.333333333333332 117.0 L 20.0 118.0 L 20.333333333333332 118.66666666666667 L 21.0 119.0 L 22.0 119.0 L 23.0 119.0 L 24.0 119.0 L 25.0 119.0 L 26.0 119.0 L 27.0 119.0 L 28.0 119.0 L 29.0 119.0 L 30.0 119.0 L 31.0 119.0 L 32.0 119.0 L 33.0 119.0 L 34.0 119.0 L 35.0 119.0 L 36.0 119.0 L 37.0 119.0 L 38.0 119.0 L 39.0 119.0 L 40.0 119.0 L 41.0 119.0 L 42.0 119.0 L 43.0 119.0 L 44.0 119.0 L 45.0 119.0 L 46.0 119.0 L 47.0 119.0 L 48.0 119.0 L 49.0 119.0 L 50.0 119.0 L 51.0 119.0 L 52.0 119.0 L 53.0 119.0 L 54.0 119.0 L 55.0 119.0 L 56.0 119.0 L 57.0 119.0 L 58.0 119.0 L 59.0 119.0 L 60.0 119.0 L 61.0 119.0 L 62.0 119.0 L 63.0 119.0 L 64.0 119.0 L 65.0 119.0 L 66.0 119.0 L 67.0 119.0 L 68.0 119.0 L 69.0 119.0 L 70.0 119.0 L 71.0 119.0 L 72.0 119.0 L 73.0 119.0 L 74.0 119.0 L 75.0 119.0 L 76.0 119.0 L 77.0 119.0 L 78.0 119.0 L 79.0 119.0 L 80.0 119.0 L 81.0 119.0 L 82.0 119.0 L 83.0 119.0 L 84.0 119.0 L 85.0 119.0 L 86.0 119.0 L 87.0 119.0 L 88.0 119.0 L 89.0 119.0 L 90.0 119.0 L 91.0 119.0 L 92.0 119.0 L 93.0 119.0 L 94.0 119.0 L 94.5 119.0 Z" stroke="none" fill="rgb(238,238,238)" />
<path d="M 39.5 125.0 L 40.0 125.0 L 41.0 125.0 L 42.0 125.0 L 43.0 125.0 L 44.0 125.0 L 45.0 125.0 L 46.0 125.0 L 47.0 125.0 L 48.0 125.0 L 49.0 125.0 L 50.0 125.0 L 51.0 125.0 L 52.0 125.0 L 53.0 125.0 L 54.0 125.0 L 55.0 125.0 L 56.0 125.0 L 57.0 125.0 L 58.0 125.0 L 59.0 125.0 L 60.0 125.0 L 61.0 125.0 L 62.0 125.0 L 63.0 125.0 L 64.0 125.0 L 65.0 125.0 L 66.0 125.0 L 67.0 125.0 L 68.0 125.0 L 69.0 125.0 L 70.0 125.0 L 71.0 125.0 L 72.0 125.0 L 73.0 125.0 L 74.0 125.0 L 75.0 125.0 L 76.0 125.0 L 77.0 125.0 L 78.0 125.0 L 79.0 125.0 L 80.0 125.0 L 81.0 125.0 L 82.0 125.0 L 83.0 125.0 L 84.0 125.0 L 85.0 125.0 L 86.0 125.0 L 87.0 125.0 L 88.0 125.0 L 89.0 125.0 L 90.0 125.0 L 91.0 125.0 L 92.0 125.0 L 93.0 125.0 L 94.0 125.0 L 95.0 125.0 L 96.0 125.0 L 97.0 125.0 L 98.0 125.0 L 99.0 125.0 L 100.0 125.0 L 101.0 125.0 L 102.0 125.0 L 103.0 125.0 L 104.0 125.0 L 105.0 125.0 L 106.0 125.0 L 107.0 125.0 L 108.0 125.0 L 109.0 124.66666666666667 L 110.0 124.33333333333333 L 110.66666666666667 123.66666666666667 L 111.0 123.0 L 111.0 122.0 L 110.66666666666667 121.33333333333333 L 110.0 121.0 L 109.0 121.0 L 108.0 121.0 L 107.0 121.0 L 106.0 121.0 L 105.0 121.0 L 104.0 121.0 L 103.0 121.0 L 102.0 121.0 L 101.0 121.0 L 100.0 121.0 L 99.0 121.0 L 98.0 121.0 L 97.0 121.0 L 96.0 121.0 L 95.0 121.0 L 94.0 121.0 L 93.0 121.0 L 92.0 121.0 L 91.0 121.0 L 90.0 121.0 L 89.0 121.0 L 88.0 121.0 L 87.0 121.0 L 86.0 121.0 L 85.0 121.0 L 84.0 121.0 L 83.0 121.0 L 82.0 121.0 L 81.0 121.0 L 80.0 121.0 L 79.0 121.0 L 78.0 121.0 L 77.0 121.0 L 76.0 121.0 L 75.0 121.0 L 74.0 121.0 L 73.0 121.0 L 72.0 121.0 L 71.0 121.0 L 70.0 121.0 L 69.0 121.0 L 68.0 121.0 L 67.0 121.0 L 66.0 121.0 L 65.0 121.0 L 64.0 121.0 L 63.0 121.0 L 62.0 121.0 L 61.0 121.0 L 60.0 121.0 L 59.0 121.0 L 58.0 121.0 L 57.0 121.0 L 56.0 121.0 L 55.0 121.0 L 54.0 121.0 L 53.0 121.0 L 52.0 121.0 L 51.0 121.0 L 50.0 121.0 L 49.0 121.0 L 48.0 121.0 L 47.0 121.0 L 46.0 121.0 L 45.0 121.0 L 44.0 121.0 L 43.0 121.0 L 42.0 121.0 L 41.0 121.0 L 40.0 121.0 L 39.0 121.0 L 38.0 121.0 L 37.0 121.0 L 36.0 121.0 L 35.0 121.0 L 34.0 121.0 L 33.0 121.0 L 32.0 121.0 L 31.0 121.0 L 30.0 121.0 L 29.0 121.0 L 28.0 121.0 L 27.0 121.0 L 26.0 121.0 L 25.0 121.0 L 24.0 121.0 L 23.0 121.0 L 22.0 121.0 L 21.0 121.0 L 20.0 121.0 L 19.0 121.0 L 18.0 121.0 L 17.333333333333332 121.33333333333333 L 17.0 122.0 L 17.0 123.0 L 17.333333333333332 123.66666666666667 L 18.0 124.33333333333333 L 19.0 124.66666666666667 L 20.0 125.0 L 21.0 125.0 L 22.0 125.0 L 23.0 125.0 L 24.0 125.0 L 25.0 125.0 L 26.0 125.0 L 27.0 125.0 L 28.0 125.0 L 29.0 125.0 L 30.0 125.0 L 31.0 125.0 L 32.0 125.0 L 33.0 125.0 L 34.0 125.0 L 35.0 125.0 L 36.0 125.0 L 37.0 125.0 L 38.0 125.0 L 38.5 125.0 Z" stroke="none" fill="rgb(47,120,137)" />
</svg>
