<?xml version="1.0" encoding="UTF-8" standalone="no"?>
<!DOCTYPE svg PUBLIC "-//W3C//DTD SVG 1.1//EN"
"http://www.w3.org/Graphics/SVG/1.1/DTD/svg11.dtd">
<svg width="128" height="128" xmlns="http://www.w3.org/2000/svg" version="1.1">
<path d="M 26.5 128.0 L 27.0 128.0 L 28.0 128.0 L 29.0 128.0 L 30.0 128.0 L 31.0 128.0 L 32.0 128.0 L 33.0 128.0 L 34.0 128.0 L 35.0 128.0 L 36.0 128.0 L 37.0 128.0 L 38.0 128.0 L 39.0 128.0 L 40.0 128.0 L 41.0 128.0 L 42.0 128.0 L 43.0 128.0 L 44.0 128.0 L 45.0 128.0 L 46.0 128.0 L 47.0 128.0 L 48.0 128.0 L 49.0 128.0 L 50.0 128.0 L 51.0 128.0 L 52.0 128.0 L 53.0 128.0 L 54.0 128.0 L 55.0 128.0 L 56.0 128.0 L 57.0 128.0 L 58.0 128.0 L 59.0 128.0 L 60.0 128.0 L 61.0 128.0 L 62.0 128.0 L 63.0 128.0 L 64.0 128.0 L 65.0 128.0 L 66.0 128.0 L 67.0 128.0 L 68.0 128.0 L 69.0 128.0 L 70.0 128.0 L 71.0 128.0 L 72.0 128.0 L 73.0 128.0 L 74.0 128.0 L 75.0 128.0 L 76.0 128.0 L 77.0 128.0 L 78.0 128.0 L 79.0 128.0 L 80.0 128.0 L 81.0 128.0 L 82.0 128.0 L 83.0 128.0 L 84.0 128.0 L 85.0 128.0 L 86.0 128.0 L 87.0 128.0 L 88.0 128.0 L 89.0 128.0 L 90.0 128.0 L 91.0 128.0 L 92.0 128.0 L 93.0 128.0 L 94.0 128.0 L 95.0 128.0 L 96.0 128.0 L 97.0 128.0 L 98.0 128.0 L 99.0 128.0 L 100.0 128.0 L 101.0 128.0 L 102.0 128.0 L 103.0 128.0 L 104.0 128.0 L 105.0 128.0 L 106.0 128.0 L 107.0 128.0 L 108.0 128.0 L 109.0 128.0 L 110.0 128.0 L 111.0 128.0 L 112.0 128.0 L 113.0 128.0 L 114.0 128.0 L 115.0 128.0 L 116.0 128.0 L 117.0 128.0 L 118.0 128.0 L 119.0 128.0 L 120.0 128.0 L 121.0 128.0 L 122.0 128.0 L 123.0 128.0 L 124.0 128.0 L 125.0 128.0 L 126.0 128.0 L 127.0 128.0 L 127.66666666666667 127.66666666666667 L 128.0 127.0 L 128.0 126.0 L 128.0 125.0 L 128.0 124.0 L 128.0 123.0 L 128.0 122.0 L 128.0 121.0 L 128.0 120.0 L 128.0 119.0 L 128.0 118.0 L 128.0 117.0 L 128.0 116.0 L 128.0 115.0 L 128.0 114.0 L 128.0 113.0 L 128.0 112.0 L 128.0 111.0 L 128.0 110.0 L 128.0 109.0 L 128.0 108.0 L 128.0 107.0 L 128.0 106.0 L 128.0 105.0 L 128.0 104.0 L 128.0 103.0 L 128.0 102.0 L 128.0 101.0 L 128.0 100.0 L 128.0 99.0 L 128.0 98.0 L 128.0 97.0 L 128.0 96.0 L 128.0 95.0 L 128.0 94.0 L 128.0 93.0 L 128.0 92.0 L 128.0 91.0 L 128.0 90.0 L 128.0 89.0 L 128.0 88.0 L 128.0 87.0 L 128.0 86.0 L 128.0 85.0 L 128.0 84.0 L 128.0 83.0 L 128.0 82.0 L 128.0 81.0 L 128.0 80.0 L 128.0 79.0 L 128.0 78.0 L 128.0 77.0 L 128.0 76.0 L 128.0 75.0 L 128.0 74.0 L 128.0 73.0 L 128.0 72.0 L 128.0 71.0 L 128.0 70.0 L 128.0 69.0 L 128.0 68.0 L 128.0 67.0 L 128.0 66.0 L 128.0 65.0 L 128.0 64.0 L 128.0 63.0 L 128.0 62.0 L 128.0 61.0 L 128.0 60.0 L 128.0 59.0 L 128.0 58.0 L 128.0 57.0 L 128.0 56.0 L 128.0 55.0 L 128.0 54.0 L 128.0 53.0 L 128.0 52.0 L 128.0 51.0 L 128.0 50.0 L 128.0 49.0 L 128.0 48.0 L 128.0 47.0 L 128.0 46.0 L 128.0 45.0 L 128.0 44.0 L 128.0 43.0 L 128.0 42.0 L 128.0 41.0 L 128.0 40.0 L 128.0 39.0 L 128.0 38.0 L 128.0 37.0 L 128.0 36.0 L 128.0 35.0 L 128.0 34.0 L 128.0 33.0 L 128.0 32.0 L 128.0 31.0 L 128.0 30.0 L 128.0 29.0 L 128.0 28.0 L 128.0 27.0 L 128.0 26.0 L 128.0 25.0 L 128.0 24.0 L 128.0 23.0 L 128.0 22.0 L 128.0 21.0 L 128.0 20.0 L 128.0 19.0 L 128.0 18.0 L 128.0 17.0 L 128.0 16.0 L 128.0 15.0 L 128.0 14.0 L 128.0 13.0 L 128.0 12.0 L 128.0 11.0 L 128.0 10.0 L 128.0 9.0 L 128.0 8.0 L 128.0 7.0 L 128.0 6.0 L 128.0 5.0 L 128.0 4.0 L 128.0 3.0 L 128.0 2.0 L 128.0 1.0 L 127.66666666666667 0.3333333333333333 L 127.0 0.0 L 126.0 0.0 L 125.0 0.0 L 124.0 0.0 L 123.0 0.0 L 122.0 0.0 L 121.0 0.0 L 120.0 0.0 L 119.0 0.0 L 118.0 0.0 L 117.0 0.0 L 116.0 0.0 L 115.0 0.0 L 114.0 0.0 L 113.0 0.0 L 112.0 0.0 L 111.0 0.0 L 110.0 0.0 L 109.0 0.0 L 108.0 0.0 L 107.0 0.0 L 106.0 0.0 L 105.0 0.0 L 104.0 0.0 L 103.0 0.0 L 102.0 0.0 L 101.0 0.0 L 100.0 0.0 L 99.0 0.0 L 98.0 0.0 L 97.0 0.0 L 96.0 0.0 L 95.0 0.0 L 94.0 0.0 L 93.0 0.0 L 92.0 0.0 L 91.0 0.0 L 90.0 0.0 L 89.0 0.0 L 88.0 0.0 L 87.0 0.0 L 86.0 0.0 L 85.0 0.0 L 84.0 0.0 L 83.0 0.0 L 82.0 0.0 L 81.0 0.0 L 80.0 0.0 L 79.0 0.0 L 78.0 0.0 L 77.0 0.0 L 76.0 0.0 L 75.0 0.0 L 74.0 0.0 L 73.0 0.0 L 72.0 0.0 L 71.0 0.0 L 70.0 0.0 L 69.0 0.0 L 68.0 0.0 L 67.0 0.0 L 66.0 0.0 L 65.0 0.0 L 64.0 0.0 L 63.0 0.0 L 62.0 0.0 L 61.0 0.0 L 60.0 0.0 L 59.0 0.0 L 58.0 0.0 L 57.0 0.0 L 56.0 0.0 L 55.0 0.0 L 54.0 0.0 L 53.0 0.0 L 52.0 0.0 L 51.0 0.0 L 50.0 0.0 L 49.0 0.0 L 48.0 0.0 L 47.0 0.0 L 46.0 0.0 L 45.0 0.0 L 44.0 0.0 L 43.0 0.0 L 42.0 0.0 L 41.0 0.0 L 40.0 0.0 L 39.0 0.0 L 38.0 0.0 L 37.0 0.0 L 36.0 0.0 L 35.0 0.0 L 34.0 0.0 L 33.0 0.0 L 32.0 0.0 L 31.0 0.0 L 30.0 0.0 L 29.0 0.0 L 28.0 0.0 L 27.0 0.0 L 26.0 0.0 L 25.0 0.0 L 24.0 0.0 L 23.0 0.0 L 22.0 0.0 L 21.0 0.0 L 20.0 0.0 L 19.0 0.0 L 18.0 0.0 L 17.0 0.0 L 16.0 0.0 L 15.0 0.0 L 14.0 0.0 L 13.0 0.0 L 12.0 0.0 L 11.0 0.0 L 10.0 0.0 L 9.0 0.0 L 8.0 0.0 L 7.0 0.0 L 6.0 0.0 L 5.0 0.0 L 4.0 0.0 L 3.0 0.0 L 2.0 0.0 L 1.0 0.0 L 0.3333333333333333 0.3333333333333333 L 0.0 1.0 L 0.0 2.0 L 0.0 3.0 L 0.0 4.0 L 0.0 5.0 L 0.0 6.0 L 0.0 7.0 L 0.0 8.0 L 0.0 9.0 L 0.0 10.0 L 0.0 11.0 L 0.0 12.0 L 0.0 13.0 L 0.0 14.0 L 0.0 15.0 L 0.0 16.0 L 0.0 17.0 L 0.0 18.0 L 0.0 19.0 L 0.0 20.0 L 0.0 21.0 L 0.0 22.0 L 0.0 23.0 L 0.0 24.0 L 0.0 25.0 L 0.0 26.0 L 0.0 27.0 L 0.0 28.0 L 0.0 29.0 L 0.0 30.0 L 0.0 31.0 L 0.0 32.0 L 0.0 33.0 L 0.0 34.0 L 0.0 35.0 L 0.0 36.0 L 0.0 37.0 L 0.0 38.0 L 0.0 39.0 L 0.0 40.0 L 0.0 41.0 L 0.0 42.0 L 0.0 43.0 L 0.0 44.0 L 0.0 45.0 L 0.0 46.0 L 0.0 47.0 L 0.0 48.0 L 0.0 49.0 L 0.0 50.0 L 0.0 51.0 L 0.0 52.0 L 0.0 53.0 L 0.0 54.0 L 0.0 55.0 L 0.0 56.0 L 0.0 57.0 L 0.0 58.0 L 0.0 59.0 L 0.0 60.0 L 0.0 61.0 L 0.0 62.0 L 0.0 63.0 L 0.0 64.0 L 0.0 65.0 L 0.0 66.0 L 0.0 67.0 L 0.0 68.0 L 0.0 69.0 L 0.0 70.0 L 0.0 71.0 L 0.0 72.0 L 0.0 73.0 L 0.0 74.0 L 0.0 75.0 L 0.0 76.0 L 0.0 77.0 L 0.0 78.0 L 0.0 79.0 L 0.0 80.0 L 0.0 81.0 L 0.0 82.0 L 0.0 83.0 L 0.0 84.0 L 0.0 85.0 L 0.0 86.0 L 0.0 87.0 L 0.0 88.0 L 0.0 89.0 L 0.0 90.0 L 0.0 91.0 L 0.0 92.0 L 0.0 93.0 L 0.0 94.0 L 0.0 95.0 L 0.0 96.0 L 0.0 97.0 L 0.0 98.0 L 0.0 99.0 L 0.0 100.0 L 0.0 101.0 L 0.0 102.0 L 0.0 103.0 L 0.0 104.0 L 0.0 105.0 L 0.0 106.0 L 0.0 107.0 L 0.0 108.0 L 0.0 109.0 L 0.0 110.0 L 0.0 111.0 L 0.0 112.0 L 0.0 113.0 L 0.0 114.0 L 0.0 115.0 L 0.0 116.0 L 0.0 117.0 L 0.0 118.0 L 0.0 119.0 L 0.0 120.0 L 0.0 121.0 L 0.0 122.0 L 0.0 123.0 L 0.0 124.0 L 0.0 125.0 L 0.0 126.0 L 0.0 127.0 L 0.3333333333333333 127.66666666666667 L 1.0 128.0 L 2.0 128.0 L 3.0 128.0 L 4.0 128.0 L 5.0 128.0 L 6.0 128.0 L 7.0 128.0 L 8.0 128.0 L 9.0 128.0 L 10.0 128.0 L 11.0 128.0 L 12.0 128.0 L 13.0 128.0 L 14.0 128.0 L 15.0 128.0 L 16.0 128.0 L 17.0 128.0 L 18.0 128.0 L 19.0 128.0 L 20.0 128.0 L 21.0 128.0 L 22.0 128.0 L 23.0 128.0 L 24.0 128.0 L 25.0 128.0 L 25.5 128.0 Z" stroke="none" fill="rgb(255,255,255)" />
<path d="M 58.5 29.0 L 59.0 28.666666666666668 L 60.0 28.333333333333332 L 61.0 27.666666666666668 L 62.0 27.333333333333332 L 63.0 26.666666666666668 L 64.0 26.333333333333332 L 65.0 25.666666666666668 L 66.0 25.333333333333332 L 67.0 24.666666666666668 L 68.0 24.0 L 69.0 23.0 L 70.0 22.666666666666668 L 71.0 23.0 L 72.0 24.0 L 73.0 25.0 L 74.0 26.0 L 75.0 27.0 L 76.0 28.0 L 77.0 28.666666666666668 L 78.0 29.333333333333332 L 79.0 30.0 L 80.0 31.0 L 81.0 32.0 L 82.0 33.0 L 82.66666666666667 34.0 L 83.0 35.0 L 83.0 36.0 L 83.0 37.0 L 83.0 38.0 L 83.0 39.0 L 83.0 40.0 L 83.0 41.0 L 83.0 42.0 L 83.0 43.0 L 83.0 44.0 L 83.0 45.0 L 83.0 46.0 L 83.0 47.0 L 83.0 48.0 L 83.0 49.0 L 83.0 50.0 L 83.0 51.0 L 82.66666666666667 52.0 L 82.0 53.0 L 81.0 54.0 L 80.33333333333333 55.0 L 79.66666666666667 56.0 L 79.0 57.0 L 78.0 58.0 L 77.0 59.0 L 76.0 60.0 L 75.0 61.0 L 74.0 62.0 L 73.0 62.666666666666664 L 72.33333333333333 63.333333333333336 L 72.0 64.0 L 72.0 65.0 L 72.33333333333333 65.66666666666667 L 73.0 66.0 L 74.0 66.33333333333333 L 75.0 66.66666666666667 L 76.0 67.0 L 77.0 67.0 L 78.0 66.66666666666667 L 79.0 66.0 L 80.0 65.33333333333333 L 80.66666666666667 64.66666666666667 L 81.33333333333333 64.0 L 82.0 63.0 L 83.0 62.0 L 84.0 61.0 L 84.66666666666667 60.0 L 85.33333333333333 59.0 L 85.66666666666667 58.0 L 86.33333333333333 57.0 L 86.66666666666667 56.0 L 87.33333333333333 55.0 L 87.66666666666667 54.0 L 88.0 53.0 L 88.33333333333333 52.0 L 89.0 51.333333333333336 L 89.66666666666667 50.666666666666664 L 90.0 50.0 L 90.0 49.0 L 90.0 48.0 L 90.0 47.0 L 90.33333333333333 46.0 L 90.66666666666667 45.0 L 91.0 44.0 L 91.0 43.0 L 91.0 42.0 L 91.0 41.0 L 91.0 40.0 L 91.0 39.0 L 91.0 38.0 L 91.0 37.0 L 91.0 36.0 L 91.0 35.0 L 91.0 34.0 L 90.66666666666667 33.0 L 90.0 32.0 L 89.33333333333333 31.0 L 89.0 30.0 L 88.66666666666667 29.0 L 88.33333333333333 28.0 L 87.66666666666667 27.0 L 87.33333333333333 26.0 L 86.66666666666667 25.0 L 86.33333333333333 24.0 L 85.66666666666667 23.0 L 85.0 22.0 L 84.0 21.0 L 83.33333333333333 20.0 L 82.66666666666667 19.0 L 82.0 18.0 L 81.0 17.333333333333332 L 80.0 16.666666666666668 L 79.0 16.0 L 78.0 15.0 L 77.0 14.333333333333334 L 76.0 13.666666666666666 L 75.0 13.333333333333334 L 74.0 12.666666666666666 L 73.0 12.333333333333334 L 72.0 12.0 L 71.0 11.666666666666666 L 70.0 11.333333333333334 L 69.0 11.0 L 68.0 11.0 L 67.0 11.0 L 66.0 11.0 L 65.0 11.0 L 64.0 11.0 L 63.0 11.0 L 62.0 11.0 L 61.0 11.0 L 60.0 11.0 L 59.0 11.333333333333334 L 58.0 11.666666666666666 L 57.0 12.0 L 56.0 12.333333333333334 L 55.0 12.666666666666666 L 54.0 13.333333333333334 L 53.0 13.666666666666666 L 52.0 14.333333333333334 L 51.0 14.666666666666666 L 50.0 15.333333333333334 L 49.0 16.0 L 48.0 17.0 L 47.0 18.0 L 46.0 19.0 L 45.0 20.0 L 44.333333333333336 21.0 L 43.666666666666664 22.0 L 43.0 23.0 L 42.333333333333336 24.0 L 41.666666666666664 25.0 L 41.333333333333336 26.0 L 40.666666666666664 27.0 L 40.333333333333336 28.0 L 40.0 29.0 L 39.666666666666664 30.0 L 39.333333333333336 31.0 L 39.0 32.0 L 38.666666666666664 33.0 L 38.333333333333336 34.0 L 38.0 35.0 L 38.0 36.0 L 38.0 37.0 L 37.666666666666664 38.0 L 37.333333333333336 39.0 L 37.0 40.0 L 37.0 41.0 L 37.0 42.0 L 37.0 43.0 L 37.0 44.0 L 37.333333333333336 45.0 L 37.666666666666664 46.0 L 38.0 47.0 L 38.0 48.0 L 38.333333333333336 49.0 L 39.0 50.0 L 39.666666666666664 51.0 L 40.0 52.0 L 40.333333333333336 53.0 L 40.666666666666664 54.0 L 41.333333333333336 55.0 L 41.666666666666664 56.0 L 42.333333333333336 57.0 L 42.666666666666664 58.0 L 43.333333333333336 59.0 L 43.666666666666664 60.0 L 44.333333333333336 61.0 L 45.0 62.0 L 46.0 63.0 L 47.0 64.0 L 48.0 65.0 L 49.0 66.0 L 50.0 66.66666666666667 L 51.0 67.0 L 52.0 67.0 L 53.0 66.66666666666667 L 54.0 66.33333333333333 L 55.0 65.66666666666667 L 56.0 65.33333333333333 L 56.666666666666664 64.66666666666667 L 56.666666666666664 64.0 L 56.0 63.0 L 55.0 62.0 L 54.0 61.0 L 53.0 60.0 L 52.0 59.0 L 51.0 58.0 L 50.0 57.0 L 49.0 56.0 L 48.0 55.0 L 47.0 54.0 L 46.333333333333336 53.0 L 45.666666666666664 52.0 L 45.333333333333336 51.0 L 45.0 50.0 L 45.0 49.0 L 45.0 48.0 L 45.0 47.0 L 45.0 46.0 L 45.0 45.0 L 45.0 44.0 L 45.0 43.0 L 45.0 42.0 L 45.0 41.0 L 45.0 40.0 L 45.0 39.0 L 45.0 38.0 L 45.0 37.0 L 45.0 36.0 L 45.333333333333336 35.0 L 46.0 34.0 L 47.0 33.333333333333336 L 48.0 33.333333333333336 L 49.0 33.666666666666664 L 50.0 33.666666666666664 L 51.0 33.333333333333336 L 52.0 32.666666666666664 L 53.0 32.333333333333336 L 53.666666666666664 31.666666666666668 L 54.333333333333336 31.0 L 55.0 30.333333333333332 L 56.0 30.0 L 57.0 29.666666666666668 L 57.5 29.5 Z" stroke="none" fill="rgb(84,57,48)" />
<path d="M 55.5 63.5 L 56.0 64.0 L 57.0 65.0 L 58.0 65.66666666666667 L 59.0 66.33333333333333 L 60.0 66.66666666666667 L 61.0 67.0 L 62.0 67.0 L 63.0 67.0 L 64.0 67.0 L 65.0 67.0 L 66.0 67.0 L 67.0 67.0 L 68.0 67.0 L 69.0 66.66666666666667 L 70.0 66.33333333333333 L 71.0 66.0 L 71.66666666666667 65.66666666666667 L 72.0 65.0 L 72.33333333333333 64.0 L 73.0 63.333333333333336 L 74.0 62.666666666666664 L 75.0 62.0 L 76.0 61.0 L 77.0 60.0 L 78.0 59.0 L 79.0 58.0 L 79.66666666666667 57.0 L 80.33333333333333 56.0 L 81.0 55.0 L 82.0 54.0 L 82.66666666666667 53.0 L 83.0 52.0 L 83.0 51.0 L 83.0 50.0 L 83.0 49.0 L 83.0 48.0 L 83.0 47.0 L 83.0 46.0 L 83.0 45.0 L 83.0 44.0 L 83.0 43.0 L 83.0 42.0 L 83.0 41.0 L 83.0 40.0 L 83.0 39.0 L 83.0 38.0 L 83.0 37.0 L 83.0 36.0 L 83.0 35.0 L 83.0 34.0 L 82.66666666666667 33.0 L 82.0 32.0 L 81.0 31.0 L 80.0 30.0 L 79.0 29.333333333333332 L 78.0 28.666666666666668 L 77.0 28.0 L 76.0 27.0 L 75.0 26.0 L 74.0 25.0 L 73.0 24.0 L 72.0 23.0 L 71.0 22.333333333333332 L 70.0 22.0 L 69.0 22.333333333333332 L 68.0 23.0 L 67.0 24.0 L 66.0 24.666666666666668 L 65.0 25.333333333333332 L 64.0 25.666666666666668 L 63.0 26.333333333333332 L 62.0 26.666666666666668 L 61.0 27.333333333333332 L 60.0 27.666666666666668 L 59.0 28.333333333333332 L 58.0 28.666666666666668 L 57.0 29.333333333333332 L 56.0 29.666666666666668 L 55.0 30.0 L 54.333333333333336 30.333333333333332 L 54.0 31.0 L 54.333333333333336 31.666666666666668 L 55.0 32.333333333333336 L 56.0 33.0 L 56.666666666666664 34.0 L 56.666666666666664 35.0 L 56.333333333333336 36.0 L 56.0 37.0 L 56.0 38.0 L 56.0 39.0 L 56.0 40.0 L 55.666666666666664 41.0 L 55.0 42.0 L 54.0 42.666666666666664 L 53.0 43.0 L 52.0 42.666666666666664 L 51.0 42.0 L 50.333333333333336 41.0 L 50.333333333333336 40.0 L 51.0 39.0 L 52.0 38.0 L 52.666666666666664 37.0 L 53.0 36.0 L 52.666666666666664 35.333333333333336 L 52.0 35.0 L 51.0 35.0 L 50.0 34.666666666666664 L 49.333333333333336 34.0 L 48.666666666666664 33.0 L 48.0 32.333333333333336 L 47.0 32.333333333333336 L 46.0 33.0 L 45.333333333333336 34.0 L 45.0 35.0 L 45.0 36.0 L 45.0 37.0 L 45.0 38.0 L 45.0 39.0 L 45.0 40.0 L 45.0 41.0 L 45.0 42.0 L 45.0 43.0 L 45.0 44.0 L 45.0 45.0 L 45.0 46.0 L 45.0 47.0 L 45.0 48.0 L 45.0 49.0 L 45.0 50.0 L 45.0 51.0 L 45.333333333333336 52.0 L 45.666666666666664 53.0 L 46.333333333333336 54.0 L 47.0 55.0 L 48.0 56.0 L 49.0 57.0 L 50.0 58.0 L 51.0 59.0 L 52.0 60.0 L 53.0 61.0 L 54.0 62.0 L 54.5 62.5 Z" stroke="none" fill="rgb(254,202,40)" />
<path d="M 37.5 35.0 L 38.0 34.666666666666664 L 38.666666666666664 34.0 L 39.0 33.0 L 39.333333333333336 32.0 L 39.666666666666664 31.0 L 40.0 30.0 L 40.333333333333336 29.0 L 40.666666666666664 28.0 L 41.333333333333336 27.0 L 41.666666666666664 26.0 L 42.333333333333336 25.0 L 43.0 24.0 L 43.666666666666664 23.0 L 44.333333333333336 22.0 L 45.0 21.0 L 46.0 20.0 L 47.0 19.0 L 48.0 18.0 L 49.0 17.0 L 50.0 16.0 L 51.0 15.333333333333334 L 52.0 14.666666666666666 L 53.0 14.333333333333334 L 54.0 13.666666666666666 L 55.0 13.333333333333334 L 56.0 12.666666666666666 L 57.0 12.333333333333334 L 58.0 12.0 L 59.0 11.666666666666666 L 60.0 11.333333333333334 L 61.0 11.0 L 62.0 11.0 L 63.0 11.0 L 64.0 11.0 L 65.0 11.0 L 66.0 11.0 L 67.0 11.0 L 68.0 11.0 L 69.0 11.333333333333334 L 70.0 11.666666666666666 L 71.0 12.0 L 72.0 12.333333333333334 L 73.0 12.666666666666666 L 74.0 13.333333333333334 L 75.0 13.666666666666666 L 76.0 14.333333333333334 L 77.0 15.0 L 78.0 16.0 L 79.0 16.666666666666668 L 80.0 17.333333333333332 L 81.0 18.0 L 82.0 19.0 L 82.66666666666667 20.0 L 83.33333333333333 21.0 L 84.0 22.0 L 85.0 23.0 L 85.66666666666667 24.0 L 86.33333333333333 25.0 L 86.66666666666667 26.0 L 87.33333333333333 27.0 L 87.66666666666667 28.0 L 88.33333333333333 29.0 L 88.66666666666667 30.0 L 89.0 31.0 L 89.33333333333333 32.0 L 90.0 32.666666666666664 L 90.66666666666667 32.666666666666664 L 91.0 32.0 L 91.0 31.0 L 91.0 30.0 L 91.0 29.0 L 91.0 28.0 L 90.66666666666667 27.0 L 90.0 26.0 L 89.33333333333333 25.0 L 88.66666666666667 24.0 L 88.0 23.0 L 87.33333333333333 22.0 L 86.66666666666667 21.0 L 86.0 20.0 L 85.33333333333333 19.0 L 84.66666666666667 18.0 L 84.0 17.0 L 83.0 16.0 L 82.0 15.333333333333334 L 81.0 14.666666666666666 L 80.0 14.0 L 79.0 13.0 L 78.0 12.333333333333334 L 77.0 11.666666666666666 L 76.0 11.333333333333334 L 75.0 10.666666666666666 L 74.0 10.333333333333334 L 73.0 10.0 L 72.0 9.666666666666666 L 71.0 9.333333333333334 L 70.0 9.0 L 69.0 9.0 L 68.0 9.0 L 67.0 9.0 L 66.0 9.0 L 65.0 9.0 L 64.0 9.0 L 63.0 9.0 L 62.0 9.0 L 61.0 9.0 L 60.0 9.0 L 59.0 9.0 L 58.0 9.333333333333334 L 57.0 9.666666666666666 L 56.0 10.0 L 55.0 10.333333333333334 L 54.0 10.666666666666666 L 53.0 11.333333333333334 L 52.0 11.666666666666666 L 51.0 12.333333333333334 L 50.0 13.0 L 49.0 13.666666666666666 L 48.0 14.333333333333334 L 47.0 15.0 L 46.0 16.0 L 45.0 17.0 L 44.0 18.0 L 43.333333333333336 19.0 L 42.666666666666664 20.0 L 42.0 21.0 L 41.333333333333336 22.0 L 40.666666666666664 23.0 L 40.333333333333336 24.0 L 39.666666666666664 25.0 L 39.333333333333336 26.0 L 38.666666666666664 27.0 L 38.0 28.0 L 37.333333333333336 29.0 L 37.0 30.0 L 37.0 31.0 L 37.0 32.0 L 37.0 33.0 L 37.0 34.0 L 37.0 34.5 Z" stroke="none" fill="rgb(91,62,53)" />
<path d="M 72.5 10.0 L 73.0 10.333333333333334 L 74.0 10.666666666666666 L 75.0 11.333333333333334 L 76.0 11.666666666666666 L 77.0 12.333333333333334 L 78.0 13.0 L 79.0 14.0 L 80.0 14.666666666666666 L 81.0 15.333333333333334 L 82.0 16.0 L 83.0 17.0 L 84.0 18.0 L 84.66666666666667 19.0 L 85.33333333333333 20.0 L 86.0 21.0 L 86.66666666666667 22.0 L 87.33333333333333 23.0 L 88.0 24.0 L 88.66666666666667 25.0 L 89.33333333333333 26.0 L 90.0 26.666666666666668 L 90.66666666666667 26.666666666666668 L 91.0 26.0 L 91.0 25.0 L 90.66666666666667 24.0 L 90.33333333333333 23.0 L 90.0 22.0 L 89.66666666666667 21.0 L 89.0 20.0 L 88.0 19.0 L 87.33333333333333 18.0 L 86.66666666666667 17.0 L 86.0 16.0 L 85.0 15.0 L 84.0 14.0 L 83.0 13.0 L 82.0 12.0 L 81.0 11.333333333333334 L 80.0 10.666666666666666 L 79.0 10.0 L 78.0 9.333333333333334 L 77.0 8.666666666666666 L 76.0 8.333333333333334 L 75.0 8.0 L 74.0 7.666666666666667 L 73.0 7.333333333333333 L 72.0 7.0 L 71.0 6.666666666666667 L 70.0 6.333333333333333 L 69.0 6.0 L 68.0 6.0 L 67.0 6.0 L 66.0 6.0 L 65.0 6.0 L 64.0 6.0 L 63.0 6.0 L 62.0 6.0 L 61.0 6.0 L 60.0 6.0 L 59.0 6.333333333333333 L 58.0 6.666666666666667 L 57.0 7.0 L 56.0 7.0 L 55.0 7.333333333333333 L 54.0 7.666666666666667 L 53.0 8.333333333333334 L 52.0 8.666666666666666 L 51.0 9.333333333333334 L 50.0 10.0 L 49.0 10.666666666666666 L 48.0 11.333333333333334 L 47.0 12.0 L 46.0 13.0 L 45.0 14.0 L 44.0 15.0 L 43.0 16.0 L 42.0 17.0 L 41.333333333333336 18.0 L 40.666666666666664 19.0 L 40.0 20.0 L 39.0 21.0 L 38.333333333333336 22.0 L 38.0 23.0 L 37.666666666666664 24.0 L 37.333333333333336 25.0 L 37.0 26.0 L 37.0 27.0 L 37.0 28.0 L 37.333333333333336 28.666666666666668 L 38.0 28.666666666666668 L 38.666666666666664 28.0 L 39.333333333333336 27.0 L 39.666666666666664 26.0 L 40.333333333333336 25.0 L 40.666666666666664 24.0 L 41.333333333333336 23.0 L 42.0 22.0 L 42.666666666666664 21.0 L 43.333333333333336 20.0 L 44.0 19.0 L 45.0 18.0 L 46.0 17.0 L 47.0 16.0 L 48.0 15.0 L 49.0 14.333333333333334 L 50.0 13.666666666666666 L 51.0 13.0 L 52.0 12.333333333333334 L 53.0 11.666666666666666 L 54.0 11.333333333333334 L 55.0 10.666666666666666 L 56.0 10.333333333333334 L 57.0 10.0 L 58.0 9.666666666666666 L 59.0 9.333333333333334 L 60.0 9.0 L 61.0 9.0 L 62.0 9.0 L 63.0 9.0 L 64.0 9.0 L 65.0 9.0 L 66.0 9.0 L 67.0 9.0 L 68.0 9.0 L 69.0 9.0 L 70.0 9.333333333333334 L 71.0 9.666666666666666 L 71.5 10.0 Z" stroke="none" fill="rgb(98,68,57)" />
<path d="M 59.5 112.0 L 60.0 111.66666666666667 L 61.0 111.33333333333333 L 62.0 111.0 L 63.0 111.0 L 64.0 111.0 L 65.0 111.0 L 66.0 111.0 L 67.0 111.0 L 68.0 111.0 L 69.0 111.0 L 70.0 110.66666666666667 L 71.0 110.33333333333333 L 72.0 110.0 L 73.0 110.0 L 74.0 110.0 L 75.0 110.0 L 76.0 110.0 L 77.0 110.0 L 77.66666666666667 109.66666666666667 L 77.66666666666667 109.0 L 77.0 108.0 L 76.33333333333333 107.0 L 76.33333333333333 106.0 L 77.0 105.0 L 78.0 104.0 L 79.0 103.0 L 80.0 102.33333333333333 L 81.0 102.0 L 82.0 102.0 L 82.66666666666667 101.66666666666667 L 82.66666666666667 101.0 L 82.33333333333333 100.0 L 81.66666666666667 99.0 L 81.33333333333333 98.0 L 81.0 97.0 L 81.0 96.0 L 80.66666666666667 95.0 L 80.33333333333333 94.0 L 80.0 93.0 L 80.0 92.0 L 80.0 91.0 L 80.0 90.0 L 79.66666666666667 89.0 L 79.0 88.33333333333333 L 78.0 88.33333333333333 L 77.0 89.0 L 76.0 90.0 L 75.33333333333333 91.0 L 75.0 92.0 L 75.0 93.0 L 75.0 94.0 L 74.66666666666667 95.0 L 74.0 95.66666666666667 L 73.0 96.0 L 72.0 95.66666666666667 L 71.0 95.0 L 70.66666666666667 94.0 L 71.0 93.0 L 71.66666666666667 92.0 L 71.66666666666667 91.0 L 71.0 90.0 L 70.66666666666667 89.0 L 71.0 88.33333333333333 L 72.0 88.0 L 72.66666666666667 87.66666666666667 L 73.0 87.0 L 72.66666666666667 86.0 L 72.0 85.33333333333333 L 71.0 84.66666666666667 L 70.0 84.0 L 69.0 83.33333333333333 L 68.0 82.66666666666667 L 67.0 82.0 L 66.0 81.33333333333333 L 65.0 81.0 L 64.0 81.0 L 63.0 81.0 L 62.0 81.33333333333333 L 61.0 82.0 L 60.0 83.0 L 59.0 83.66666666666667 L 58.0 84.33333333333333 L 57.0 84.66666666666667 L 56.333333333333336 85.33333333333333 L 56.0 86.0 L 56.333333333333336 87.0 L 57.0 88.0 L 58.0 89.0 L 58.333333333333336 90.0 L 58.0 91.0 L 57.333333333333336 92.0 L 57.333333333333336 93.0 L 57.666666666666664 94.0 L 57.666666666666664 95.0 L 57.0 95.66666666666667 L 56.0 96.0 L 55.0 95.66666666666667 L 54.0 95.0 L 53.666666666666664 94.0 L 53.666666666666664 93.0 L 54.0 92.0 L 53.666666666666664 91.0 L 53.0 90.0 L 52.0 89.0 L 51.0 88.33333333333333 L 50.0 88.0 L 49.0 88.33333333333333 L 48.333333333333336 89.0 L 48.0 90.0 L 48.0 91.0 L 48.0 92.0 L 48.0 93.0 L 47.666666666666664 94.0 L 47.333333333333336 95.0 L 47.0 96.0 L 47.0 97.0 L 47.0 98.0 L 47.333333333333336 99.0 L 47.666666666666664 100.0 L 48.0 101.0 L 48.333333333333336 102.0 L 49.0 103.0 L 50.0 104.0 L 51.0 105.0 L 51.666666666666664 106.0 L 52.333333333333336 107.0 L 53.0 108.0 L 54.0 108.66666666666667 L 55.0 109.33333333333333 L 56.0 109.66666666666667 L 57.0 110.33333333333333 L 58.0 111.0 L 58.5 111.5 Z" stroke="none" fill="rgb(254,202,40)" />
<path d="M 72.5 7.5 L 73.0 7.666666666666667 L 74.0 8.0 L 75.0 8.333333333333334 L 76.0 8.666666666666666 L 77.0 9.333333333333334 L 78.0 10.0 L 79.0 10.666666666666666 L 80.0 11.333333333333334 L 81.0 12.0 L 82.0 13.0 L 83.0 14.0 L 84.0 15.0 L 85.0 16.0 L 86.0 17.0 L 86.66666666666667 18.0 L 87.33333333333333 19.0 L 88.0 19.666666666666668 L 88.66666666666667 19.666666666666668 L 89.0 19.0 L 89.0 18.0 L 88.66666666666667 17.0 L 88.33333333333333 16.0 L 87.66666666666667 15.0 L 87.0 14.0 L 86.33333333333333 13.0 L 85.66666666666667 12.0 L 85.0 11.0 L 84.0 10.0 L 83.0 9.0 L 82.0 8.333333333333334 L 81.0 7.666666666666667 L 80.0 7.333333333333333 L 79.0 6.666666666666667 L 78.0 6.333333333333333 L 77.0 5.666666666666667 L 76.0 5.333333333333333 L 75.0 5.0 L 74.0 4.666666666666667 L 73.0 4.333333333333333 L 72.0 4.0 L 71.0 4.0 L 70.0 4.0 L 69.0 4.0 L 68.0 4.0 L 67.0 4.0 L 66.0 4.0 L 65.0 4.0 L 64.0 4.0 L 63.0 4.0 L 62.0 4.0 L 61.0 4.0 L 60.0 4.0 L 59.0 4.0 L 58.0 4.0 L 57.0 4.0 L 56.0 4.333333333333333 L 55.0 4.666666666666667 L 54.0 5.0 L 53.0 5.333333333333333 L 52.0 5.666666666666667 L 51.0 6.0 L 50.0 6.333333333333333 L 49.0 6.666666666666667 L 48.0 7.333333333333333 L 47.0 8.0 L 46.0 9.0 L 45.0 10.0 L 44.0 11.0 L 43.0 12.0 L 42.0 13.0 L 41.333333333333336 14.0 L 40.666666666666664 15.0 L 40.333333333333336 16.0 L 39.666666666666664 17.0 L 39.333333333333336 18.0 L 39.0 19.0 L 39.0 20.0 L 39.333333333333336 20.666666666666668 L 40.0 20.666666666666668 L 40.666666666666664 20.0 L 41.333333333333336 19.0 L 42.0 18.0 L 43.0 17.0 L 44.0 16.0 L 45.0 15.0 L 46.0 14.0 L 47.0 13.0 L 48.0 12.0 L 49.0 11.333333333333334 L 50.0 10.666666666666666 L 51.0 10.0 L 52.0 9.333333333333334 L 53.0 8.666666666666666 L 54.0 8.333333333333334 L 55.0 7.666666666666667 L 56.0 7.333333333333333 L 57.0 7.0 L 58.0 7.0 L 59.0 6.666666666666667 L 60.0 6.333333333333333 L 61.0 6.0 L 62.0 6.0 L 63.0 6.0 L 64.0 6.0 L 65.0 6.0 L 66.0 6.0 L 67.0 6.0 L 68.0 6.0 L 69.0 6.333333333333333 L 70.0 6.666666666666667 L 71.0 7.0 L 71.5 7.0 Z" stroke="none" fill="rgb(107,75,64)" />
<path d="M 59.5 84.0 L 60.0 83.66666666666667 L 61.0 83.0 L 62.0 82.0 L 63.0 81.33333333333333 L 64.0 81.0 L 65.0 81.33333333333333 L 66.0 82.0 L 67.0 82.66666666666667 L 68.0 83.33333333333333 L 69.0 84.0 L 70.0 84.66666666666667 L 71.0 85.33333333333333 L 72.0 86.0 L 73.0 87.0 L 74.0 88.0 L 75.0 89.0 L 76.0 89.66666666666667 L 77.0 89.66666666666667 L 77.66666666666667 89.0 L 78.0 88.0 L 78.0 87.0 L 78.33333333333333 86.0 L 78.66666666666667 85.0 L 79.33333333333333 84.0 L 79.66666666666667 83.0 L 80.0 82.0 L 80.0 81.0 L 80.0 80.0 L 80.0 79.0 L 80.0 78.0 L 80.0 77.0 L 80.0 76.0 L 79.66666666666667 75.0 L 79.0 74.0 L 78.33333333333333 73.0 L 77.66666666666667 72.0 L 77.0 71.33333333333333 L 76.0 70.66666666666667 L 75.0 70.0 L 74.0 69.33333333333333 L 73.0 68.66666666666667 L 72.0 68.33333333333333 L 71.0 68.0 L 70.0 67.66666666666667 L 69.0 67.33333333333333 L 68.0 67.0 L 67.0 67.0 L 66.0 67.0 L 65.0 67.0 L 64.0 67.0 L 63.0 67.0 L 62.0 67.0 L 61.0 67.0 L 60.0 67.0 L 59.0 67.33333333333333 L 58.0 67.66666666666667 L 57.0 68.0 L 56.0 68.33333333333333 L 55.0 68.66666666666667 L 54.0 69.33333333333333 L 53.0 70.0 L 52.0 70.66666666666667 L 51.0 71.33333333333333 L 50.333333333333336 72.0 L 49.666666666666664 73.0 L 49.0 74.0 L 48.333333333333336 75.0 L 48.0 76.0 L 48.0 77.0 L 48.0 78.0 L 48.0 79.0 L 48.0 80.0 L 48.0 81.0 L 48.0 82.0 L 48.333333333333336 83.0 L 48.666666666666664 84.0 L 49.333333333333336 85.0 L 50.0 86.0 L 51.0 87.0 L 52.0 87.66666666666667 L 53.0 88.0 L 54.0 88.0 L 55.0 88.0 L 55.666666666666664 87.66666666666667 L 56.0 87.0 L 56.333333333333336 86.0 L 57.0 85.33333333333333 L 58.0 84.66666666666667 L 58.5 84.5 Z" stroke="none" fill="rgb(84,57,48)" />
<path d="M 48.5 124.0 L 49.0 124.0 L 50.0 124.0 L 51.0 124.0 L 52.0 124.0 L 53.0 124.0 L 54.0 124.0 L 55.0 124.0 L 56.0 124.0 L 57.0 124.0 L 58.0 124.0 L 59.0 124.0 L 60.0 124.0 L 61.0 124.0 L 62.0 124.0 L 63.0 124.0 L 64.0 124.0 L 65.0 124.0 L 66.0 124.0 L 67.0 124.0 L 68.0 124.0 L 69.0 124.0 L 70.0 124.0 L 71.0 124.0 L 72.0 124.0 L 73.0 124.0 L 74.0 124.0 L 75.0 124.0 L 76.0 124.0 L 77.0 124.0 L 78.0 124.0 L 79.0 124.0 L 80.0 124.0 L 81.0 124.0 L 82.0 124.0 L 83.0 124.0 L 84.0 124.0 L 85.0 124.0 L 85.66666666666667 123.66666666666667 L 86.0 123.0 L 86.0 122.0 L 86.0 121.0 L 86.0 120.0 L 86.0 119.0 L 85.66666666666667 118.0 L 85.0 117.0 L 84.0 116.0 L 83.0 115.0 L 82.0 114.0 L 81.0 113.0 L 80.0 112.0 L 79.0 111.0 L 78.0 110.33333333333333 L 77.0 110.0 L 76.0 110.0 L 75.0 110.0 L 74.0 110.0 L 73.0 110.0 L 72.0 110.0 L 71.0 110.0 L 70.0 110.33333333333333 L 69.33333333333333 111.0 L 69.0 112.0 L 68.66666666666667 113.0 L 68.0 114.0 L 67.0 115.0 L 66.0 115.66666666666667 L 65.0 116.0 L 64.0 116.0 L 63.0 116.0 L 62.0 115.66666666666667 L 61.0 115.0 L 60.333333333333336 114.0 L 60.0 113.0 L 59.666666666666664 112.0 L 59.0 111.0 L 58.0 110.33333333333333 L 57.0 109.66666666666667 L 56.0 109.33333333333333 L 55.0 109.0 L 54.0 109.0 L 53.0 109.33333333333333 L 52.0 110.0 L 51.0 110.66666666666667 L 50.0 111.33333333333333 L 49.0 111.66666666666667 L 48.0 112.0 L 47.0 112.33333333333333 L 46.0 113.0 L 45.0 114.0 L 44.333333333333336 115.0 L 43.666666666666664 116.0 L 43.333333333333336 117.0 L 43.0 118.0 L 43.0 119.0 L 43.0 120.0 L 43.0 121.0 L 43.0 122.0 L 43.0 123.0 L 43.333333333333336 123.66666666666667 L 44.0 124.0 L 45.0 124.0 L 46.0 124.0 L 47.0 124.0 L 47.5 124.0 Z" stroke="none" fill="rgb(225,190,231)" />
<path d="M 95.5 97.0 L 96.0 97.0 L 96.66666666666667 96.66666666666667 L 97.0 96.0 L 97.0 95.0 L 97.0 94.0 L 97.0 93.0 L 97.0 92.0 L 97.0 91.0 L 97.0 90.0 L 96.66666666666667 89.0 L 96.33333333333333 88.0 L 96.0 87.0 L 96.0 86.0 L 96.0 85.0 L 95.66666666666667 84.33333333333333 L 95.0 84.0 L 94.0 84.0 L 93.0 84.0 L 92.0 84.0 L 91.0 84.0 L 90.0 84.0 L 89.0 84.0 L 88.0 84.0 L 87.0 84.0 L 86.0 84.0 L 85.0 84.33333333333333 L 84.33333333333333 85.0 L 84.0 86.0 L 84.0 87.0 L 84.0 88.0 L 84.0 89.0 L 84.0 90.0 L 84.0 91.0 L 84.0 92.0 L 84.0 93.0 L 84.0 94.0 L 84.0 95.0 L 84.0 96.0 L 83.66666666666667 97.0 L 83.0 98.0 L 82.33333333333333 99.0 L 82.0 100.0 L 82.33333333333333 101.0 L 82.66666666666667 102.0 L 83.33333333333333 103.0 L 84.0 104.0 L 85.0 105.0 L 86.0 105.66666666666667 L 86.66666666666667 105.66666666666667 L 87.0 105.0 L 86.66666666666667 104.0 L 86.33333333333333 103.0 L 86.0 102.0 L 86.0 101.0 L 86.0 100.0 L 86.0 99.0 L 86.33333333333333 98.0 L 87.0 97.33333333333333 L 88.0 97.0 L 89.0 97.0 L 90.0 97.0 L 91.0 97.0 L 92.0 97.0 L 93.0 97.0 L 94.0 97.0 L 94.5 97.0 Z" stroke="none" fill="rgb(94,26,244)" />
<path d="M 40.5 97.0 L 41.0 97.33333333333333 L 41.666666666666664 98.0 L 42.0 99.0 L 42.0 100.0 L 42.0 101.0 L 42.333333333333336 102.0 L 43.0 103.0 L 44.0 103.66666666666667 L 45.0 103.66666666666667 L 46.0 103.0 L 46.666666666666664 102.0 L 47.0 101.0 L 46.666666666666664 100.0 L 46.0 99.0 L 45.0 98.0 L 44.333333333333336 97.0 L 44.0 96.0 L 44.0 95.0 L 44.0 94.0 L 44.0 93.0 L 44.0 92.0 L 44.0 91.0 L 44.0 90.0 L 44.0 89.0 L 44.0 88.0 L 44.0 87.0 L 44.0 86.0 L 43.666666666666664 85.0 L 43.0 84.33333333333333 L 42.0 84.0 L 41.0 84.0 L 40.0 84.0 L 39.0 84.0 L 38.0 84.0 L 37.0 84.0 L 36.0 84.0 L 35.0 84.0 L 34.0 84.0 L 33.0 84.0 L 32.333333333333336 84.33333333333333 L 32.0 85.0 L 32.0 86.0 L 32.0 87.0 L 32.0 88.0 L 31.666666666666668 89.0 L 31.333333333333332 90.0 L 31.0 91.0 L 31.0 92.0 L 31.0 93.0 L 31.0 94.0 L 31.0 95.0 L 31.333333333333332 96.0 L 32.0 96.66666666666667 L 33.0 97.0 L 34.0 97.0 L 35.0 97.0 L 36.0 97.0 L 37.0 97.0 L 38.0 97.0 L 39.0 97.0 L 39.5 97.0 Z" stroke="none" fill="rgb(94,26,244)" />
<path d="M 40.5 124.0 L 41.0 124.0 L 42.0 124.0 L 42.666666666666664 123.66666666666667 L 43.0 123.0 L 43.0 122.0 L 43.0 121.0 L 43.0 120.0 L 43.0 119.0 L 43.0 118.0 L 42.666666666666664 117.0 L 42.333333333333336 116.0 L 42.0 115.0 L 42.0 114.0 L 42.0 113.0 L 42.0 112.0 L 42.0 111.0 L 42.0 110.0 L 41.666666666666664 109.0 L 41.0 108.0 L 40.0 107.33333333333333 L 39.0 107.0 L 38.0 107.0 L 37.0 107.0 L 36.0 107.0 L 35.0 107.0 L 34.0 107.0 L 33.0 107.0 L 32.0 107.0 L 31.333333333333332 107.33333333333333 L 31.0 108.0 L 31.0 109.0 L 31.0 110.0 L 31.0 111.0 L 31.0 112.0 L 31.0 113.0 L 31.0 114.0 L 31.0 115.0 L 31.0 116.0 L 31.0 117.0 L 31.0 118.0 L 31.0 119.0 L 31.0 120.0 L 31.0 121.0 L 31.0 122.0 L 31.0 123.0 L 31.333333333333332 123.66666666666667 L 32.0 124.0 L 33.0 124.0 L 34.0 124.0 L 35.0 124.0 L 36.0 124.0 L 37.0 124.0 L 38.0 124.0 L 39.0 124.0 L 39.5 124.0 Z" stroke="none" fill="rgb(254,202,40)" />
<path d="M 95.5 124.0 L 96.0 124.0 L 96.66666666666667 123.66666666666667 L 97.0 123.0 L 97.0 122.0 L 97.0 121.0 L 97.0 120.0 L 97.0 119.0 L 97.0 118.0 L 97.0 117.0 L 97.0 116.0 L 97.0 115.0 L 97.0 114.0 L 97.0 113.0 L 97.0 112.0 L 97.0 111.0 L 97.0 110.0 L 97.0 109.0 L 97.0 108.0 L 96.66666666666667 107.33333333333333 L 96.0 107.0 L 95.0 107.0 L 94.0 107.0 L 93.0 107.0 L 92.0 107.0 L 91.0 107.0 L 90.0 107.0 L 89.0 107.0 L 88.33333333333333 107.33333333333333 L 87.66666666666667 108.0 L 87.0 109.0 L 86.33333333333333 110.0 L 86.0 111.0 L 86.0 112.0 L 86.0 113.0 L 86.0 114.0 L 86.0 115.0 L 86.0 116.0 L 86.0 117.0 L 86.0 118.0 L 86.0 119.0 L 86.0 120.0 L 86.0 121.0 L 86.0 122.0 L 86.0 123.0 L 86.33333333333333 123.66666666666667 L 87.0 124.0 L 88.0 124.0 L 89.0 124.0 L 90.0 124.0 L 91.0 124.0 L 92.0 124.0 L 93.0 124.0 L 94.0 124.0 L 94.5 124.0 Z" stroke="none" fill="rgb(254,202,40)" />
<path d="M 42.5 84.5 L 43.0 84.66666666666667 L 43.666666666666664 84.66666666666667 L 44.0 84.0 L 44.0 83.0 L 44.0 82.0 L 44.0 81.0 L 44.0 80.0 L 44.333333333333336 79.0 L 45.0 78.33333333333333 L 45.666666666666664 77.66666666666667 L 46.0 77.0 L 46.0 76.0 L 46.333333333333336 75.0 L 46.666666666666664 74.0 L 47.0 73.0 L 47.0 72.0 L 47.0 71.0 L 47.0 70.0 L 46.666666666666664 69.33333333333333 L 46.0 69.33333333333333 L 45.0 70.0 L 44.0 70.66666666666667 L 43.0 71.0 L 42.0 71.0 L 41.0 71.33333333333333 L 40.0 72.0 L 39.0 73.0 L 38.0 74.0 L 37.0 75.0 L 36.0 76.0 L 35.333333333333336 77.0 L 34.666666666666664 78.0 L 34.333333333333336 79.0 L 33.666666666666664 80.0 L 33.333333333333336 81.0 L 33.0 82.0 L 33.0 83.0 L 33.333333333333336 83.66666666666667 L 34.0 84.0 L 35.0 84.0 L 36.0 84.0 L 37.0 84.0 L 38.0 84.0 L 39.0 84.0 L 40.0 84.0 L 41.0 84.0 L 41.5 84.0 Z" stroke="none" fill="rgb(98,30,248)" />
<path d="M 88.5 84.0 L 89.0 84.0 L 90.0 84.0 L 91.0 84.0 L 92.0 84.0 L 93.0 84.0 L 94.0 84.0 L 94.66666666666667 83.66666666666667 L 95.0 83.0 L 95.0 82.0 L 94.66666666666667 81.0 L 94.33333333333333 80.0 L 93.66666666666667 79.0 L 93.33333333333333 78.0 L 92.66666666666667 77.0 L 92.0 76.0 L 91.0 75.0 L 90.0 74.0 L 89.0 73.0 L 88.0 72.0 L 87.0 71.33333333333333 L 86.0 71.0 L 85.0 70.66666666666667 L 84.0 70.33333333333333 L 83.0 70.33333333333333 L 82.33333333333333 71.0 L 82.0 72.0 L 82.0 73.0 L 82.0 74.0 L 82.33333333333333 75.0 L 82.66666666666667 76.0 L 83.0 77.0 L 83.33333333333333 78.0 L 83.66666666666667 79.0 L 84.0 80.0 L 84.0 81.0 L 84.0 82.0 L 84.0 83.0 L 84.33333333333333 83.66666666666667 L 85.0 84.0 L 86.0 84.0 L 87.0 84.0 L 87.5 84.0 Z" stroke="none" fill="rgb(98,30,248)" />
<path d="M 56.5 125.0 L 57.0 125.0 L 58.0 125.0 L 59.0 125.0 L 60.0 125.0 L 61.0 125.0 L 62.0 125.0 L 63.0 125.0 L 64.0 125.0 L 65.0 125.0 L 66.0 125.0 L 67.0 125.0 L 68.0 125.0 L 69.0 125.0 L 70.0 125.0 L 71.0 125.0 L 72.0 125.0 L 73.0 125.0 L 74.0 125.0 L 75.0 125.0 L 76.0 125.0 L 77.0 125.0 L 78.0 125.0 L 79.0 125.0 L 80.0 125.0 L 81.0 125.0 L 82.0 125.0 L 83.0 125.0 L 84.0 125.0 L 85.0 125.0 L 86.0 125.0 L 87.0 125.0 L 88.0 125.0 L 89.0 125.0 L 90.0 125.0 L 91.0 125.0 L 92.0 125.0 L 93.0 125.0 L 94.0 125.0 L 95.0 125.0 L 95.66666666666667 124.66666666666667 L 95.66666666666667 124.33333333333333 L 95.0 124.0 L 94.0 124.0 L 93.0 124.0 L 92.0 124.0 L 91.0 124.0 L 90.0 124.0 L 89.0 124.0 L 88.0 124.0 L 87.0 124.0 L 86.0 124.0 L 85.0 124.0 L 84.0 124.0 L 83.0 124.0 L 82.0 124.0 L 81.0 124.0 L 80.0 124.0 L 79.0 124.0 L 78.0 124.0 L 77.0 124.0 L 76.0 124.0 L 75.0 124.0 L 74.0 124.0 L 73.0 124.0 L 72.0 124.0 L 71.0 124.0 L 70.0 124.0 L 69.0 124.0 L 68.0 124.0 L 67.0 124.0 L 66.0 124.0 L 65.0 124.0 L 64.0 124.0 L 63.0 124.0 L 62.0 124.0 L 61.0 124.0 L 60.0 124.0 L 59.0 124.0 L 58.0 124.0 L 57.0 124.0 L 56.0 124.0 L 55.0 124.0 L 54.0 124.0 L 53.0 124.0 L 52.0 124.0 L 51.0 124.0 L 50.0 124.0 L 49.0 124.0 L 48.0 124.0 L 47.0 124.0 L 46.0 124.0 L 45.0 124.0 L 44.0 124.0 L 43.0 124.0 L 42.0 124.0 L 41.0 124.0 L 40.0 124.0 L 39.0 124.0 L 38.0 124.0 L 37.0 124.0 L 36.0 124.0 L 35.0 124.0 L 34.0 124.0 L 33.0 124.0 L 32.333333333333336 124.33333333333333 L 32.333333333333336 124.66666666666667 L 33.0 125.0 L 34.0 125.0 L 35.0 125.0 L 36.0 125.0 L 37.0 125.0 L 38.0 125.0 L 39.0 125.0 L 40.0 125.0 L 41.0 125.0 L 42.0 125.0 L 43.0 125.0 L 44.0 125.0 L 45.0 125.0 L 46.0 125.0 L 47.0 125.0 L 48.0 125.0 L 49.0 125.0 L 50.0 125.0 L 51.0 125.0 L 52.0 125.0 L 53.0 125.0 L 54.0 125.0 L 55.0 125.0 L 55.5 125.0 Z" stroke="none" fill="rgb(0,0,0)" />
<path d="M 78.5 111.5 L 79.0 112.0 L 80.0 112.66666666666667 L 81.0 112.66666666666667 L 82.0 112.0 L 82.66666666666667 111.0 L 83.33333333333333 110.0 L 84.0 109.66666666666667 L 85.0 109.66666666666667 L 86.0 110.0 L 87.0 109.66666666666667 L 87.66666666666667 109.0 L 88.0 108.0 L 87.66666666666667 107.0 L 87.0 106.0 L 86.0 105.0 L 85.0 104.0 L 84.0 103.0 L 83.0 102.33333333333333 L 82.0 102.0 L 81.0 102.0 L 80.0 102.0 L 79.0 102.33333333333333 L 78.0 103.0 L 77.0 104.0 L 76.33333333333333 105.0 L 76.0 106.0 L 76.0 107.0 L 76.33333333333333 108.0 L 77.0 109.0 L 77.66666666666667 110.0 L 78.0 110.5 Z" stroke="none" fill="rgb(84,57,48)" />
<path d="M 82.0 73.5 L 82.0 73.0 L 82.33333333333333 72.0 L 82.66666666666667 71.0 L 83.0 70.0 L 83.33333333333333 69.0 L 83.66666666666667 68.0 L 84.33333333333333 67.0 L 85.0 66.0 L 86.0 65.0 L 87.0 64.33333333333333 L 87.66666666666667 63.666666666666664 L 88.33333333333333 63.0 L 88.66666666666667 62.0 L 89.0 61.0 L 89.0 60.0 L 89.0 59.0 L 88.66666666666667 58.333333333333336 L 88.0 58.0 L 87.33333333333333 58.333333333333336 L 86.66666666666667 59.0 L 86.33333333333333 60.0 L 85.66666666666667 61.0 L 85.0 62.0 L 84.0 63.0 L 83.0 64.0 L 82.0 65.0 L 81.0 66.0 L 80.33333333333333 67.0 L 79.66666666666667 68.0 L 79.0 68.33333333333333 L 78.0 68.0 L 77.0 67.33333333333333 L 76.0 66.66666666666667 L 75.0 66.33333333333333 L 74.0 66.0 L 73.33333333333333 66.33333333333333 L 73.0 67.0 L 73.33333333333333 67.66666666666667 L 74.0 68.33333333333333 L 75.0 68.66666666666667 L 76.0 69.33333333333333 L 77.0 70.0 L 78.0 71.0 L 79.0 72.0 L 80.0 73.0 L 81.0 73.66666666666667 L 81.5 74.0 Z" stroke="none" fill="rgb(98,68,57)" />
<path d="M 43.5 109.0 L 44.0 109.33333333333333 L 45.0 110.0 L 46.0 111.0 L 47.0 111.66666666666667 L 48.0 112.0 L 49.0 112.0 L 50.0 111.66666666666667 L 51.0 111.33333333333333 L 52.0 110.66666666666667 L 52.666666666666664 110.0 L 53.0 109.0 L 53.0 108.0 L 52.666666666666664 107.0 L 52.333333333333336 106.0 L 51.666666666666664 105.0 L 51.0 104.0 L 50.0 103.0 L 49.0 102.0 L 48.0 101.33333333333333 L 47.0 101.33333333333333 L 46.0 102.0 L 45.0 103.0 L 44.0 104.0 L 43.0 105.0 L 42.333333333333336 106.0 L 42.0 107.0 L 42.333333333333336 108.0 L 42.5 108.5 Z" stroke="none" fill="rgb(84,57,48)" />
<path d="M 59.5 67.5 L 59.666666666666664 67.0 L 59.666666666666664 66.33333333333333 L 59.0 66.0 L 58.0 66.0 L 57.0 66.33333333333333 L 56.0 66.66666666666667 L 55.0 67.33333333333333 L 54.0 67.66666666666667 L 53.0 68.33333333333333 L 52.0 68.66666666666667 L 51.0 69.33333333333333 L 50.0 70.0 L 49.0 71.0 L 48.0 72.0 L 47.0 73.0 L 46.333333333333336 74.0 L 46.0 75.0 L 46.0 76.0 L 46.0 77.0 L 46.0 78.0 L 46.0 79.0 L 46.0 80.0 L 46.0 81.0 L 46.0 82.0 L 46.333333333333336 83.0 L 46.666666666666664 84.0 L 47.333333333333336 85.0 L 48.0 86.0 L 49.0 87.0 L 50.0 88.0 L 51.0 88.66666666666667 L 51.666666666666664 88.66666666666667 L 52.0 88.0 L 51.666666666666664 87.0 L 51.0 86.0 L 50.0 85.0 L 49.333333333333336 84.0 L 48.666666666666664 83.0 L 48.333333333333336 82.0 L 48.0 81.0 L 48.0 80.0 L 48.0 79.0 L 48.0 78.0 L 48.0 77.0 L 48.333333333333336 76.0 L 49.0 75.0 L 49.666666666666664 74.0 L 50.333333333333336 73.0 L 51.0 72.0 L 52.0 71.33333333333333 L 53.0 70.66666666666667 L 54.0 70.0 L 55.0 69.33333333333333 L 56.0 68.66666666666667 L 57.0 68.33333333333333 L 58.0 68.0 L 58.5 68.0 Z" stroke="none" fill="rgb(91,62,53)" />
<path d="M 81.0 84.5 L 81.33333333333333 84.0 L 81.66666666666667 83.0 L 82.0 82.0 L 82.0 81.0 L 82.0 80.0 L 82.33333333333333 79.0 L 82.66666666666667 78.0 L 83.0 77.0 L 83.0 76.0 L 82.66666666666667 75.0 L 82.0 74.0 L 81.0 73.0 L 80.0 72.0 L 79.0 71.0 L 78.0 70.0 L 77.0 69.33333333333333 L 76.0 68.66666666666667 L 75.0 68.33333333333333 L 74.0 67.66666666666667 L 73.33333333333333 67.0 L 72.66666666666667 66.33333333333333 L 72.0 66.0 L 71.0 66.0 L 70.0 66.0 L 69.33333333333333 66.33333333333333 L 69.0 67.0 L 69.33333333333333 67.66666666666667 L 70.0 68.0 L 71.0 68.33333333333333 L 72.0 68.66666666666667 L 73.0 69.33333333333333 L 74.0 70.0 L 75.0 70.66666666666667 L 76.0 71.33333333333333 L 77.0 72.0 L 77.66666666666667 73.0 L 78.33333333333333 74.0 L 79.0 75.0 L 79.66666666666667 76.0 L 80.0 77.0 L 80.0 78.0 L 80.0 79.0 L 80.0 80.0 L 80.0 81.0 L 79.66666666666667 82.0 L 79.33333333333333 83.0 L 78.66666666666667 84.0 L 78.33333333333333 85.0 L 78.0 86.0 L 78.33333333333333 86.66666666666667 L 79.0 86.66666666666667 L 80.0 86.0 L 80.5 85.5 Z" stroke="none" fill="rgb(91,62,53)" />
<path d="M 40.5 58.5 L 40.666666666666664 59.0 L 41.333333333333336 60.0 L 42.0 61.0 L 42.666666666666664 62.0 L 43.333333333333336 63.0 L 44.0 64.0 L 45.0 65.0 L 46.0 66.0 L 47.0 67.0 L 48.0 68.0 L 49.0 68.66666666666667 L 50.0 69.0 L 50.666666666666664 68.66666666666667 L 51.0 68.0 L 50.666666666666664 67.0 L 50.0 66.0 L 49.0 65.0 L 48.0 64.0 L 47.0 63.0 L 46.0 62.0 L 45.0 61.0 L 44.333333333333336 60.0 L 43.666666666666664 59.0 L 43.333333333333336 58.0 L 42.666666666666664 57.0 L 42.333333333333336 56.0 L 41.666666666666664 55.0 L 41.333333333333336 54.0 L 40.666666666666664 53.0 L 40.333333333333336 52.0 L 40.0 51.0 L 39.666666666666664 50.333333333333336 L 39.0 50.0 L 38.333333333333336 50.333333333333336 L 38.0 51.0 L 38.0 52.0 L 38.0 53.0 L 38.0 54.0 L 38.333333333333336 55.0 L 38.666666666666664 56.0 L 39.333333333333336 57.0 L 39.5 57.5 Z" stroke="none" fill="rgb(91,62,53)" />
<path d="M 77.5 68.5 L 78.0 68.66666666666667 L 79.0 69.0 L 79.66666666666667 68.66666666666667 L 80.33333333333333 68.0 L 81.0 67.0 L 82.0 66.0 L 83.0 65.0 L 84.0 64.0 L 85.0 63.0 L 85.66666666666667 62.0 L 86.33333333333333 61.0 L 86.66666666666667 60.0 L 87.33333333333333 59.0 L 88.0 58.333333333333336 L 88.66666666666667 57.666666666666664 L 89.33333333333333 57.0 L 89.66666666666667 56.0 L 90.0 55.0 L 90.0 54.0 L 90.0 53.0 L 90.0 52.0 L 89.66666666666667 51.333333333333336 L 89.0 51.0 L 88.33333333333333 51.333333333333336 L 88.0 52.0 L 87.66666666666667 53.0 L 87.33333333333333 54.0 L 86.66666666666667 55.0 L 86.33333333333333 56.0 L 85.66666666666667 57.0 L 85.33333333333333 58.0 L 84.66666666666667 59.0 L 84.0 60.0 L 83.0 61.0 L 82.0 62.0 L 81.33333333333333 63.0 L 80.66666666666667 64.0 L 80.0 64.66666666666667 L 79.0 65.33333333333333 L 78.0 66.0 L 77.33333333333333 67.0 L 77.0 67.5 Z" stroke="none" fill="rgb(91,62,53)" />
<path d="M 50.5 70.5 L 50.666666666666664 70.0 L 50.666666666666664 69.33333333333333 L 50.0 68.66666666666667 L 49.0 68.0 L 48.0 67.0 L 47.0 66.0 L 46.0 65.0 L 45.0 64.0 L 44.0 63.0 L 43.333333333333336 62.0 L 42.666666666666664 61.0 L 42.0 60.0 L 41.333333333333336 59.0 L 40.666666666666664 58.333333333333336 L 40.0 58.0 L 39.333333333333336 58.333333333333336 L 39.0 59.0 L 39.0 60.0 L 39.333333333333336 61.0 L 39.666666666666664 62.0 L 40.333333333333336 63.0 L 41.0 64.0 L 42.0 65.0 L 43.0 66.0 L 44.0 67.0 L 45.0 68.0 L 46.0 69.0 L 46.666666666666664 70.0 L 47.0 71.0 L 47.0 72.0 L 47.333333333333336 72.66666666666667 L 48.0 72.66666666666667 L 49.0 72.0 L 49.5 71.5 Z" stroke="none" fill="rgb(98,68,57)" />
<path d="M 66.5 56.0 L 67.0 56.0 L 68.0 56.0 L 69.0 55.666666666666664 L 70.0 55.0 L 70.66666666666667 54.0 L 71.0 53.0 L 70.66666666666667 52.333333333333336 L 70.0 52.0 L 69.0 52.0 L 68.0 52.0 L 67.0 52.0 L 66.0 52.0 L 65.0 52.0 L 64.0 52.0 L 63.0 52.0 L 62.0 52.0 L 61.0 52.0 L 60.0 52.0 L 59.0 52.0 L 58.0 52.0 L 57.333333333333336 52.333333333333336 L 57.0 53.0 L 57.333333333333336 54.0 L 58.0 54.666666666666664 L 59.0 55.333333333333336 L 60.0 55.666666666666664 L 61.0 56.0 L 62.0 56.0 L 63.0 56.0 L 64.0 56.0 L 65.0 56.0 L 65.5 56.0 Z" stroke="none" fill="rgb(122,86,71)" />
<path d="M 33.5 101.0 L 34.0 101.0 L 35.0 101.0 L 36.0 101.0 L 37.0 101.0 L 38.0 101.0 L 39.0 101.0 L 40.0 101.0 L 41.0 101.0 L 41.666666666666664 100.66666666666667 L 42.0 100.0 L 42.0 99.0 L 42.0 98.0 L 41.666666666666664 97.33333333333333 L 41.0 97.0 L 40.0 97.0 L 39.0 97.0 L 38.0 97.0 L 37.0 97.0 L 36.0 97.0 L 35.0 97.0 L 34.0 97.0 L 33.0 97.0 L 32.0 97.0 L 31.333333333333332 97.33333333333333 L 31.0 98.0 L 31.0 99.0 L 31.0 100.0 L 31.333333333333332 100.66666666666667 L 32.0 101.0 L 32.5 101.0 Z" stroke="none" fill="rgb(252,180,7)" />
<path d="M 94.5 101.0 L 95.0 101.0 L 96.0 101.0 L 96.66666666666667 100.66666666666667 L 97.0 100.0 L 97.0 99.0 L 97.0 98.0 L 96.66666666666667 97.33333333333333 L 96.0 97.0 L 95.0 97.0 L 94.0 97.0 L 93.0 97.0 L 92.0 97.0 L 91.0 97.0 L 90.0 97.0 L 89.0 97.0 L 88.0 97.0 L 87.0 97.0 L 86.33333333333333 97.33333333333333 L 86.0 98.0 L 86.0 99.0 L 86.0 100.0 L 86.33333333333333 100.66666666666667 L 87.0 101.0 L 88.0 101.0 L 89.0 101.0 L 90.0 101.0 L 91.0 101.0 L 92.0 101.0 L 93.0 101.0 L 93.5 101.0 Z" stroke="none" fill="rgb(252,180,7)" />
<path d="M 43.5 105.5 L 43.666666666666664 105.0 L 44.0 104.0 L 43.666666666666664 103.0 L 43.0 102.0 L 42.0 101.33333333333333 L 41.0 101.0 L 40.0 101.0 L 39.0 101.0 L 38.0 101.0 L 37.0 101.0 L 36.0 101.0 L 35.0 101.0 L 34.0 101.0 L 33.0 101.0 L 32.0 101.0 L 31.333333333333332 101.33333333333333 L 31.0 102.0 L 31.0 103.0 L 31.333333333333332 103.66666666666667 L 32.0 104.0 L 33.0 104.0 L 34.0 104.0 L 35.0 104.0 L 36.0 104.0 L 37.0 104.0 L 38.0 104.0 L 39.0 104.0 L 40.0 104.33333333333333 L 41.0 105.0 L 42.0 105.66666666666667 L 42.5 106.0 Z" stroke="none" fill="rgb(251,186,20)" />
<path d="M 65.5 116.0 L 66.0 116.0 L 67.0 115.66666666666667 L 68.0 115.0 L 68.66666666666667 114.0 L 69.0 113.0 L 69.0 112.0 L 68.66666666666667 111.33333333333333 L 68.0 111.0 L 67.0 111.0 L 66.0 111.0 L 65.0 111.0 L 64.0 111.0 L 63.0 111.0 L 62.0 111.0 L 61.0 111.0 L 60.333333333333336 111.33333333333333 L 60.0 112.0 L 60.0 113.0 L 60.0 114.0 L 60.333333333333336 115.0 L 61.0 115.66666666666667 L 62.0 116.0 L 63.0 116.0 L 64.0 116.0 L 64.5 116.0 Z" stroke="none" fill="rgb(229,151,2)" />
<path d="M 42.5 109.0 L 42.666666666666664 108.66666666666667 L 42.666666666666664 108.0 L 42.333333333333336 107.0 L 42.0 106.0 L 41.666666666666664 105.0 L 41.0 104.33333333333333 L 40.0 104.0 L 39.0 104.0 L 38.0 104.0 L 37.0 104.0 L 36.0 104.0 L 35.0 104.0 L 34.0 104.0 L 33.0 104.0 L 32.0 104.0 L 31.333333333333332 104.33333333333333 L 31.0 105.0 L 31.0 106.0 L 31.333333333333332 106.66666666666667 L 32.0 107.0 L 33.0 107.0 L 34.0 107.0 L 35.0 107.0 L 36.0 107.0 L 37.0 107.0 L 38.0 107.0 L 39.0 107.33333333333333 L 40.0 108.0 L 41.0 108.66666666666667 L 41.5 109.0 Z" stroke="none" fill="rgb(250,194,35)" />
<path d="M 91.5 104.0 L 92.0 104.0 L 93.0 104.0 L 94.0 104.0 L 95.0 104.0 L 96.0 104.0 L 96.66666666666667 103.66666666666667 L 97.0 103.0 L 97.0 102.0 L 96.66666666666667 101.33333333333333 L 96.0 101.0 L 95.0 101.0 L 94.0 101.0 L 93.0 101.0 L 92.0 101.0 L 91.0 101.0 L 90.0 101.0 L 89.0 101.0 L 88.0 101.0 L 87.0 101.0 L 86.33333333333333 101.33333333333333 L 86.0 102.0 L 86.0 103.0 L 86.33333333333333 103.66666666666667 L 87.0 104.0 L 88.0 104.0 L 89.0 104.0 L 90.0 104.0 L 90.5 104.0 Z" stroke="none" fill="rgb(251,186,20)" />
<path d="M 46.5 95.0 L 47.0 95.0 L 47.666666666666664 94.66666666666667 L 48.0 94.0 L 48.0 93.0 L 48.0 92.0 L 48.0 91.0 L 48.0 90.0 L 48.0 89.0 L 47.666666666666664 88.0 L 47.0 87.0 L 46.333333333333336 86.0 L 45.666666666666664 85.33333333333333 L 45.0 85.0 L 44.333333333333336 85.33333333333333 L 44.0 86.0 L 44.0 87.0 L 44.0 88.0 L 44.0 89.0 L 44.0 90.0 L 44.0 91.0 L 44.0 92.0 L 44.333333333333336 93.0 L 45.0 94.0 L 45.5 94.5 Z" stroke="none" fill="rgb(107,75,64)" />
<path d="M 81.5 95.0 L 82.0 94.66666666666667 L 83.0 94.33333333333333 L 83.66666666666667 93.66666666666667 L 84.0 93.0 L 84.0 92.0 L 84.0 91.0 L 84.0 90.0 L 84.0 89.0 L 84.0 88.0 L 84.0 87.0 L 84.0 86.0 L 83.66666666666667 85.33333333333333 L 83.0 85.0 L 82.33333333333333 85.33333333333333 L 81.66666666666667 86.0 L 81.33333333333333 87.0 L 80.66666666666667 88.0 L 80.33333333333333 89.0 L 80.0 90.0 L 80.0 91.0 L 80.0 92.0 L 80.0 93.0 L 80.0 94.0 L 80.33333333333333 94.66666666666667 L 80.5 95.0 Z" stroke="none" fill="rgb(107,75,64)" />
<path d="M 55.5 42.5 L 55.666666666666664 42.0 L 56.0 41.0 L 56.0 40.0 L 56.0 39.0 L 56.0 38.0 L 55.666666666666664 37.333333333333336 L 55.0 36.666666666666664 L 54.0 36.333333333333336 L 53.0 36.333333333333336 L 52.0 37.0 L 51.0 38.0 L 50.333333333333336 39.0 L 50.0 40.0 L 50.0 41.0 L 50.333333333333336 42.0 L 51.0 42.666666666666664 L 52.0 43.0 L 53.0 43.0 L 54.0 43.0 L 54.5 43.0 Z" stroke="none" fill="rgb(65,65,65)" />
<path d="M 84.5 85.0 L 84.66666666666667 84.66666666666667 L 84.66666666666667 84.0 L 84.33333333333333 83.0 L 84.0 82.0 L 84.0 81.0 L 84.0 80.0 L 84.0 79.0 L 83.66666666666667 78.33333333333333 L 83.0 78.0 L 82.33333333333333 78.33333333333333 L 82.0 79.0 L 82.0 80.0 L 82.0 81.0 L 81.66666666666667 82.0 L 81.33333333333333 83.0 L 80.66666666666667 84.0 L 80.0 85.0 L 79.0 86.0 L 78.33333333333333 87.0 L 78.33333333333333 88.0 L 79.0 88.66666666666667 L 80.0 89.0 L 80.66666666666667 88.66666666666667 L 81.33333333333333 88.0 L 81.66666666666667 87.0 L 82.33333333333333 86.0 L 83.0 85.33333333333333 L 83.5 85.0 Z" stroke="none" fill="rgb(98,68,57)" />
<path d="M 73.5 43.0 L 74.0 43.0 L 75.0 43.0 L 76.0 43.0 L 77.0 42.666666666666664 L 77.66666666666667 42.0 L 78.0 41.0 L 78.0 40.0 L 77.66666666666667 39.0 L 77.0 38.0 L 76.0 37.0 L 75.0 36.333333333333336 L 74.0 36.333333333333336 L 73.0 37.0 L 72.33333333333333 38.0 L 72.0 39.0 L 72.0 40.0 L 72.0 41.0 L 72.33333333333333 42.0 L 72.5 42.5 Z" stroke="none" fill="rgb(65,65,65)" />
<path d="M 95.5 107.0 L 96.0 107.0 L 96.66666666666667 106.66666666666667 L 97.0 106.0 L 97.0 105.0 L 96.66666666666667 104.33333333333333 L 96.0 104.0 L 95.0 104.0 L 94.0 104.0 L 93.0 104.0 L 92.0 104.0 L 91.0 104.0 L 90.0 104.0 L 89.0 104.0 L 88.0 104.0 L 87.33333333333333 104.33333333333333 L 87.0 105.0 L 87.0 106.0 L 87.33333333333333 106.66666666666667 L 88.0 107.0 L 89.0 107.0 L 90.0 107.0 L 91.0 107.0 L 92.0 107.0 L 93.0 107.0 L 94.0 107.0 L 94.5 107.0 Z" stroke="none" fill="rgb(250,194,35)" />
<path d="M 85.5 118.0 L 85.66666666666667 117.66666666666667 L 86.0 117.0 L 86.0 116.0 L 86.0 115.0 L 86.0 114.0 L 86.0 113.0 L 86.0 112.0 L 86.0 111.0 L 85.66666666666667 110.0 L 85.0 109.33333333333333 L 84.0 109.0 L 83.33333333333333 109.33333333333333 L 82.66666666666667 110.0 L 82.0 111.0 L 81.33333333333333 112.0 L 81.0 113.0 L 81.33333333333333 114.0 L 82.0 115.0 L 83.0 116.0 L 84.0 117.0 L 84.5 117.5 Z" stroke="none" fill="rgb(88,23,231)" />
<path d="M 46.5 87.5 L 47.0 88.0 L 48.0 88.66666666666667 L 49.0 88.66666666666667 L 49.666666666666664 88.0 L 49.666666666666664 87.0 L 49.0 86.0 L 48.0 85.0 L 47.333333333333336 84.0 L 46.666666666666664 83.0 L 46.333333333333336 82.0 L 46.0 81.0 L 46.0 80.0 L 46.0 79.0 L 45.666666666666664 78.33333333333333 L 45.0 78.0 L 44.333333333333336 78.33333333333333 L 44.0 79.0 L 44.0 80.0 L 44.0 81.0 L 44.0 82.0 L 44.0 83.0 L 44.0 84.0 L 44.333333333333336 84.66666666666667 L 45.0 85.33333333333333 L 45.666666666666664 86.0 L 46.0 86.5 Z" stroke="none" fill="rgb(98,68,57)" />
<path d="M 42.5 71.0 L 43.0 71.0 L 44.0 71.0 L 45.0 70.66666666666667 L 45.666666666666664 70.0 L 46.0 69.0 L 45.666666666666664 68.0 L 45.0 67.0 L 44.0 66.0 L 43.0 65.0 L 42.0 64.33333333333333 L 41.0 64.0 L 40.333333333333336 64.33333333333333 L 40.0 65.0 L 40.0 66.0 L 40.0 67.0 L 40.333333333333336 68.0 L 40.666666666666664 69.0 L 41.0 70.0 L 41.333333333333336 70.66666666666667 L 41.5 71.0 Z" stroke="none" fill="rgb(107,75,64)" />
<path d="M 43.5 117.0 L 43.666666666666664 116.66666666666667 L 44.333333333333336 116.0 L 45.0 115.0 L 46.0 114.0 L 46.666666666666664 113.0 L 47.0 112.0 L 46.666666666666664 111.0 L 46.0 110.0 L 45.0 109.33333333333333 L 44.0 109.0 L 43.0 109.0 L 42.333333333333336 109.33333333333333 L 42.0 110.0 L 42.0 111.0 L 42.0 112.0 L 42.0 113.0 L 42.0 114.0 L 42.0 115.0 L 42.0 116.0 L 42.333333333333336 116.66666666666667 L 42.5 117.0 Z" stroke="none" fill="rgb(88,23,231)" />
<path d="M 56.5 36.5 L 57.0 36.0 L 57.666666666666664 35.0 L 57.666666666666664 34.0 L 57.0 33.0 L 56.0 32.333333333333336 L 55.0 32.0 L 54.0 32.0 L 53.0 32.0 L 52.0 32.333333333333336 L 51.0 32.666666666666664 L 50.0 33.333333333333336 L 49.333333333333336 34.0 L 49.333333333333336 34.666666666666664 L 50.0 35.0 L 51.0 35.0 L 52.0 35.333333333333336 L 53.0 36.0 L 54.0 36.666666666666664 L 55.0 37.0 L 55.5 37.0 Z" stroke="none" fill="rgb(107,75,64)" />
<path d="M 71.5 35.0 L 72.0 35.0 L 73.0 35.333333333333336 L 74.0 36.0 L 75.0 37.0 L 76.0 37.666666666666664 L 76.66666666666667 37.666666666666664 L 77.33333333333333 37.0 L 78.0 36.0 L 78.66666666666667 35.0 L 78.66666666666667 34.0 L 78.0 33.0 L 77.0 32.333333333333336 L 76.0 32.0 L 75.0 32.0 L 74.0 32.333333333333336 L 73.0 32.666666666666664 L 72.0 33.0 L 71.33333333333333 33.333333333333336 L 71.0 34.0 L 71.0 34.5 Z" stroke="none" fill="rgb(107,75,64)" />
<path d="M 65.5 105.0 L 66.0 105.0 L 67.0 105.0 L 68.0 104.66666666666667 L 68.66666666666667 104.0 L 69.0 103.0 L 69.0 102.0 L 68.66666666666667 101.33333333333333 L 68.0 101.33333333333333 L 67.0 101.66666666666667 L 66.0 102.0 L 65.0 102.0 L 64.0 102.0 L 63.0 102.0 L 62.0 102.0 L 61.0 102.0 L 60.333333333333336 102.33333333333333 L 60.0 103.0 L 60.333333333333336 104.0 L 61.0 104.66666666666667 L 62.0 105.0 L 63.0 105.0 L 64.0 105.0 L 64.5 105.0 Z" stroke="none" fill="rgb(122,86,71)" />
<path d="M 84.5 71.0 L 85.0 71.0 L 86.0 71.0 L 86.66666666666667 70.66666666666667 L 87.0 70.0 L 87.33333333333333 69.0 L 87.66666666666667 68.0 L 88.0 67.0 L 88.0 66.0 L 88.0 65.0 L 87.66666666666667 64.33333333333333 L 87.0 64.0 L 86.0 64.33333333333333 L 85.0 65.0 L 84.33333333333333 66.0 L 83.66666666666667 67.0 L 83.33333333333333 68.0 L 83.0 69.0 L 83.33333333333333 70.0 L 83.5 70.5 Z" stroke="none" fill="rgb(107,75,64)" />
<path d="M 59.0 90.5 L 59.0 90.0 L 58.666666666666664 89.0 L 58.0 88.0 L 57.0 87.33333333333333 L 56.0 87.33333333333333 L 55.0 87.66666666666667 L 54.0 88.0 L 53.0 88.0 L 52.333333333333336 88.33333333333333 L 52.0 89.0 L 52.333333333333336 90.0 L 53.0 91.0 L 54.0 91.66666666666667 L 55.0 92.0 L 56.0 92.0 L 57.0 92.0 L 58.0 91.66666666666667 L 58.5 91.5 Z" stroke="none" fill="rgb(107,75,64)" />
<path d="M 74.5 92.0 L 75.0 91.66666666666667 L 75.66666666666667 91.0 L 76.0 90.0 L 75.66666666666667 89.0 L 75.0 88.0 L 74.0 87.33333333333333 L 73.0 87.33333333333333 L 72.0 87.66666666666667 L 71.0 88.0 L 70.33333333333333 88.33333333333333 L 70.0 89.0 L 70.33333333333333 90.0 L 71.0 91.0 L 72.0 91.66666666666667 L 73.0 92.0 L 73.5 92.0 Z" stroke="none" fill="rgb(107,75,64)" />
<path d="M 46.5 100.5 L 47.0 100.66666666666667 L 47.666666666666664 100.66666666666667 L 48.0 100.0 L 47.666666666666664 99.0 L 47.333333333333336 98.0 L 47.0 97.0 L 47.0 96.0 L 46.666666666666664 95.0 L 46.0 94.0 L 45.0 93.33333333333333 L 44.333333333333336 93.33333333333333 L 44.0 94.0 L 44.0 95.0 L 44.0 96.0 L 44.0 97.0 L 44.333333333333336 98.0 L 45.0 99.0 L 45.5 99.5 Z" stroke="none" fill="rgb(229,151,2)" />
<path d="M 75.0 95.5 L 75.0 95.0 L 75.0 94.0 L 75.0 93.0 L 74.66666666666667 92.33333333333333 L 74.0 92.0 L 73.0 92.0 L 72.0 92.0 L 71.0 92.33333333333333 L 70.33333333333333 93.0 L 70.0 94.0 L 70.33333333333333 95.0 L 71.0 95.66666666666667 L 72.0 96.0 L 73.0 96.0 L 74.0 96.0 L 74.5 96.0 Z" stroke="none" fill="rgb(65,65,65)" />
<path d="M 53.5 95.5 L 54.0 95.66666666666667 L 55.0 96.0 L 56.0 96.0 L 57.0 96.0 L 57.666666666666664 95.66666666666667 L 58.0 95.0 L 58.0 94.0 L 57.666666666666664 93.0 L 57.0 92.33333333333333 L 56.0 92.0 L 55.0 92.0 L 54.0 92.33333333333333 L 53.333333333333336 93.0 L 53.0 94.0 L 53.0 94.5 Z" stroke="none" fill="rgb(65,65,65)" />
<path d="M 65.5 49.0 L 66.0 48.666666666666664 L 66.66666666666667 48.0 L 67.0 47.0 L 66.66666666666667 46.333333333333336 L 66.0 46.0 L 65.0 46.0 L 64.0 46.0 L 63.0 46.0 L 62.0 46.0 L 61.333333333333336 46.333333333333336 L 61.0 47.0 L 61.333333333333336 48.0 L 62.0 48.666666666666664 L 63.0 49.0 L 64.0 49.0 L 64.5 49.0 Z" stroke="none" fill="rgb(229,151,2)" />
<path d="M 54.5 68.0 L 55.0 67.66666666666667 L 56.0 67.33333333333333 L 57.0 66.66666666666667 L 57.666666666666664 66.0 L 57.666666666666664 65.33333333333333 L 57.0 65.0 L 56.0 65.0 L 55.0 65.33333333333333 L 54.0 65.66666666666667 L 53.0 66.33333333333333 L 52.0 66.66666666666667 L 51.333333333333336 67.33333333333333 L 51.0 68.0 L 51.333333333333336 68.66666666666667 L 52.0 69.0 L 53.0 68.66666666666667 L 53.5 68.5 Z" stroke="none" fill="rgb(98,68,57)" />
<path d="M 84.0 97.5 L 84.0 97.0 L 84.0 96.0 L 84.0 95.0 L 83.66666666666667 94.33333333333333 L 83.0 94.0 L 82.0 94.33333333333333 L 81.33333333333333 95.0 L 81.0 96.0 L 81.0 97.0 L 81.0 98.0 L 81.33333333333333 98.66666666666667 L 82.0 99.0 L 83.0 98.66666666666667 L 83.5 98.5 Z" stroke="none" fill="rgb(229,151,2)" />
<path d="M 63.5 99.0 L 64.0 99.0 L 65.0 99.0 L 65.66666666666667 98.66666666666667 L 66.0 98.0 L 65.66666666666667 97.33333333333333 L 65.0 97.0 L 64.0 97.0 L 63.0 97.0 L 62.333333333333336 97.33333333333333 L 62.0 98.0 L 62.333333333333336 98.66666666666667 L 62.5 99.0 Z" stroke="none" fill="rgb(229,151,2)" />
<path d="M 37.5 39.0 L 37.666666666666664 38.666666666666664 L 38.0 38.0 L 38.0 37.0 L 38.0 36.0 L 37.666666666666664 35.333333333333336 L 37.333333333333336 35.333333333333336 L 37.0 36.0 L 37.0 37.0 L 37.0 38.0 L 37.0 38.5 Z" stroke="none" fill="rgb(0,0,0)" />
<path d="M 39.0 56.5 L 39.0 56.0 L 38.666666666666664 55.333333333333336 L 38.333333333333336 55.333333333333336 L 38.0 56.0 L 38.333333333333336 56.666666666666664 L 38.5 57.0 Z" stroke="none" fill="rgb(0,0,0)" />
<path d="M 39.5 63.0 L 39.666666666666664 62.666666666666664 L 40.0 62.0 L 39.666666666666664 61.333333333333336 L 39.333333333333336 61.333333333333336 L 39.0 62.0 L 39.0 62.5 Z" stroke="none" fill="rgb(0,0,0)" />
<path d="M 89.5 21.0 L 89.66666666666667 20.666666666666668 L 89.66666666666667 20.333333333333332 L 89.33333333333333 20.333333333333332 L 89.0 20.5 Z" stroke="none" fill="rgb(0,0,0)" />
<path d="M 38.5 22.0 L 38.666666666666664 21.666666666666668 L 38.666666666666664 21.333333333333332 L 38.333333333333336 21.333333333333332 L 38.0 21.5 Z" stroke="none" fill="rgb(0,0,0)" />
<path d="M 38.5 50.0 L 38.666666666666664 49.666666666666664 L 38.666666666666664 49.333333333333336 L 38.333333333333336 49.333333333333336 L 38.0 49.5 Z" stroke="none" fill="rgb(0,0,0)" />
<path d="M 89.5 57.0 L 89.66666666666667 56.666666666666664 L 89.66666666666667 56.333333333333336 L 89.33333333333333 56.333333333333336 L 89.0 56.5 Z" stroke="none" fill="rgb(0,0,0)" />
<path d="M 39.5 58.0 L 39.666666666666664 57.666666666666664 L 39.666666666666664 57.333333333333336 L 39.333333333333336 57.333333333333336 L 39.0 57.5 Z" stroke="none" fill="rgb(0,0,0)" />
<path d="M 88.5 63.0 L 88.66666666666667 62.666666666666664 L 88.66666666666667 62.333333333333336 L 88.33333333333333 62.333333333333336 L 88.0 62.5 Z" stroke="none" fill="rgb(0,0,0)" />
<path d="M 40.5 64.0 L 40.666666666666664 63.666666666666664 L 40.666666666666664 63.333333333333336 L 40.333333333333336 63.333333333333336 L 40.0 63.5 Z" stroke="none" fill="rgb(0,0,0)" />
<path d="M 31.5 97.0 L 31.666666666666668 96.66666666666667 L 31.666666666666668 96.33333333333333 L 31.333333333333332 96.33333333333333 L 31.0 96.5 Z" stroke="none" fill="rgb(0,0,0)" />
<path d="M 53.5 109.0 L 53.666666666666664 108.66666666666667 L 53.666666666666664 108.33333333333333 L 53.333333333333336 108.33333333333333 L 53.0 108.5 Z" stroke="none" fill="rgb(98,40,199)" />
</svg>
