<?xml version="1.0" encoding="UTF-8" standalone="no"?>
<!DOCTYPE svg PUBLIC "-//W3C//DTD SVG 1.1//EN"
"http://www.w3.org/Graphics/SVG/1.1/DTD/svg11.dtd">
<svg width="128" height="128" xmlns="http://www.w3.org/2000/svg" version="1.1">
<path d="M 48.5 128.0 L 49.0 128.0 L 50.0 128.0 L 51.0 128.0 L 52.0 128.0 L 53.0 128.0 L 54.0 128.0 L 55.0 128.0 L 56.0 128.0 L 57.0 128.0 L 58.0 128.0 L 59.0 128.0 L 60.0 128.0 L 61.0 128.0 L 62.0 128.0 L 63.0 128.0 L 64.0 128.0 L 65.0 128.0 L 66.0 128.0 L 67.0 128.0 L 68.0 128.0 L 69.0 128.0 L 70.0 128.0 L 71.0 128.0 L 72.0 128.0 L 73.0 128.0 L 74.0 128.0 L 75.0 128.0 L 76.0 128.0 L 77.0 128.0 L 78.0 128.0 L 79.0 128.0 L 80.0 128.0 L 81.0 128.0 L 82.0 128.0 L 83.0 128.0 L 84.0 128.0 L 85.0 128.0 L 86.0 128.0 L 87.0 128.0 L 88.0 128.0 L 89.0 128.0 L 90.0 128.0 L 91.0 128.0 L 92.0 128.0 L 93.0 128.0 L 94.0 128.0 L 95.0 128.0 L 96.0 128.0 L 97.0 128.0 L 98.0 128.0 L 99.0 128.0 L 100.0 128.0 L 101.0 128.0 L 102.0 128.0 L 103.0 128.0 L 104.0 128.0 L 105.0 128.0 L 106.0 128.0 L 107.0 128.0 L 108.0 128.0 L 109.0 128.0 L 110.0 128.0 L 111.0 128.0 L 112.0 128.0 L 113.0 128.0 L 114.0 128.0 L 115.0 128.0 L 116.0 128.0 L 117.0 128.0 L 118.0 128.0 L 119.0 128.0 L 120.0 128.0 L 121.0 128.0 L 122.0 128.0 L 123.0 128.0 L 124.0 128.0 L 125.0 128.0 L 126.0 128.0 L 127.0 128.0 L 127.66666666666667 127.66666666666667 L 128.0 127.0 L 128.0 126.0 L 128.0 125.0 L 128.0 124.0 L 128.0 123.0 L 128.0 122.0 L 128.0 121.0 L 128.0 120.0 L 128.0 119.0 L 128.0 118.0 L 128.0 117.0 L 128.0 116.0 L 128.0 115.0 L 128.0 114.0 L 128.0 113.0 L 128.0 112.0 L 128.0 111.0 L 128.0 110.0 L 128.0 109.0 L 128.0 108.0 L 128.0 107.0 L 128.0 106.0 L 128.0 105.0 L 128.0 104.0 L 128.0 103.0 L 128.0 102.0 L 128.0 101.0 L 128.0 100.0 L 128.0 99.0 L 128.0 98.0 L 128.0 97.0 L 128.0 96.0 L 128.0 95.0 L 128.0 94.0 L 128.0 93.0 L 128.0 92.0 L 128.0 91.0 L 128.0 90.0 L 128.0 89.0 L 128.0 88.0 L 128.0 87.0 L 128.0 86.0 L 128.0 85.0 L 128.0 84.0 L 128.0 83.0 L 128.0 82.0 L 128.0 81.0 L 128.0 80.0 L 128.0 79.0 L 128.0 78.0 L 128.0 77.0 L 128.0 76.0 L 128.0 75.0 L 128.0 74.0 L 128.0 73.0 L 128.0 72.0 L 128.0 71.0 L 128.0 70.0 L 128.0 69.0 L 128.0 68.0 L 128.0 67.0 L 128.0 66.0 L 128.0 65.0 L 128.0 64.0 L 128.0 63.0 L 128.0 62.0 L 128.0 61.0 L 128.0 60.0 L 128.0 59.0 L 128.0 58.0 L 128.0 57.0 L 128.0 56.0 L 128.0 55.0 L 128.0 54.0 L 128.0 53.0 L 128.0 52.0 L 128.0 51.0 L 128.0 50.0 L 128.0 49.0 L 128.0 48.0 L 128.0 47.0 L 128.0 46.0 L 128.0 45.0 L 128.0 44.0 L 128.0 43.0 L 128.0 42.0 L 128.0 41.0 L 128.0 40.0 L 128.0 39.0 L 128.0 38.0 L 128.0 37.0 L 128.0 36.0 L 128.0 35.0 L 128.0 34.0 L 128.0 33.0 L 128.0 32.0 L 128.0 31.0 L 128.0 30.0 L 128.0 29.0 L 128.0 28.0 L 128.0 27.0 L 128.0 26.0 L 128.0 25.0 L 128.0 24.0 L 128.0 23.0 L 128.0 22.0 L 128.0 21.0 L 128.0 20.0 L 128.0 19.0 L 128.0 18.0 L 128.0 17.0 L 128.0 16.0 L 128.0 15.0 L 128.0 14.0 L 128.0 13.0 L 128.0 12.0 L 128.0 11.0 L 128.0 10.0 L 128.0 9.0 L 128.0 8.0 L 128.0 7.0 L 128.0 6.0 L 128.0 5.0 L 128.0 4.0 L 128.0 3.0 L 128.0 2.0 L 128.0 1.0 L 127.66666666666667 0.3333333333333333 L 127.0 0.0 L 126.0 0.0 L 125.0 0.0 L 124.0 0.0 L 123.0 0.0 L 122.0 0.0 L 121.0 0.0 L 120.0 0.0 L 119.0 0.0 L 118.0 0.0 L 117.0 0.0 L 116.0 0.0 L 115.0 0.0 L 114.0 0.0 L 113.0 0.0 L 112.0 0.0 L 111.0 0.0 L 110.0 0.0 L 109.0 0.0 L 108.0 0.0 L 107.0 0.0 L 106.0 0.0 L 105.0 0.0 L 104.0 0.0 L 103.0 0.0 L 102.0 0.0 L 101.0 0.0 L 100.0 0.0 L 99.0 0.0 L 98.0 0.0 L 97.0 0.0 L 96.0 0.0 L 95.0 0.0 L 94.0 0.0 L 93.0 0.0 L 92.0 0.0 L 91.0 0.0 L 90.0 0.0 L 89.0 0.0 L 88.0 0.0 L 87.0 0.0 L 86.0 0.0 L 85.0 0.0 L 84.0 0.0 L 83.0 0.0 L 82.0 0.0 L 81.0 0.0 L 80.0 0.0 L 79.0 0.0 L 78.0 0.0 L 77.0 0.0 L 76.0 0.0 L 75.0 0.0 L 74.0 0.0 L 73.0 0.0 L 72.0 0.0 L 71.0 0.0 L 70.0 0.0 L 69.0 0.0 L 68.0 0.0 L 67.0 0.0 L 66.0 0.0 L 65.0 0.0 L 64.0 0.0 L 63.0 0.0 L 62.0 0.0 L 61.0 0.0 L 60.0 0.0 L 59.0 0.0 L 58.0 0.0 L 57.0 0.0 L 56.0 0.0 L 55.0 0.0 L 54.0 0.0 L 53.0 0.0 L 52.0 0.0 L 51.0 0.0 L 50.0 0.0 L 49.0 0.0 L 48.0 0.0 L 47.0 0.0 L 46.0 0.0 L 45.0 0.0 L 44.0 0.0 L 43.0 0.0 L 42.0 0.0 L 41.0 0.0 L 40.0 0.0 L 39.0 0.0 L 38.0 0.0 L 37.0 0.0 L 36.0 0.0 L 35.0 0.0 L 34.0 0.0 L 33.0 0.0 L 32.0 0.0 L 31.0 0.0 L 30.0 0.0 L 29.0 0.0 L 28.0 0.0 L 27.0 0.0 L 26.0 0.0 L 25.0 0.0 L 24.0 0.0 L 23.0 0.0 L 22.0 0.0 L 21.0 0.0 L 20.0 0.0 L 19.0 0.0 L 18.0 0.0 L 17.0 0.0 L 16.0 0.0 L 15.0 0.0 L 14.0 0.0 L 13.0 0.0 L 12.0 0.0 L 11.0 0.0 L 10.0 0.0 L 9.0 0.0 L 8.0 0.0 L 7.0 0.0 L 6.0 0.0 L 5.0 0.0 L 4.0 0.0 L 3.0 0.0 L 2.0 0.0 L 1.0 0.0 L 0.3333333333333333 0.3333333333333333 L 0.0 1.0 L 0.0 2.0 L 0.0 3.0 L 0.0 4.0 L 0.0 5.0 L 0.0 6.0 L 0.0 7.0 L 0.0 8.0 L 0.0 9.0 L 0.0 10.0 L 0.0 11.0 L 0.0 12.0 L 0.0 13.0 L 0.0 14.0 L 0.0 15.0 L 0.0 16.0 L 0.0 17.0 L 0.0 18.0 L 0.0 19.0 L 0.0 20.0 L 0.0 21.0 L 0.0 22.0 L 0.0 23.0 L 0.0 24.0 L 0.0 25.0 L 0.0 26.0 L 0.0 27.0 L 0.0 28.0 L 0.0 29.0 L 0.0 30.0 L 0.0 31.0 L 0.0 32.0 L 0.0 33.0 L 0.0 34.0 L 0.0 35.0 L 0.0 36.0 L 0.0 37.0 L 0.0 38.0 L 0.0 39.0 L 0.0 40.0 L 0.0 41.0 L 0.0 42.0 L 0.0 43.0 L 0.0 44.0 L 0.0 45.0 L 0.0 46.0 L 0.0 47.0 L 0.0 48.0 L 0.0 49.0 L 0.0 50.0 L 0.0 51.0 L 0.0 52.0 L 0.0 53.0 L 0.0 54.0 L 0.0 55.0 L 0.0 56.0 L 0.0 57.0 L 0.0 58.0 L 0.0 59.0 L 0.0 60.0 L 0.0 61.0 L 0.0 62.0 L 0.0 63.0 L 0.0 64.0 L 0.0 65.0 L 0.0 66.0 L 0.0 67.0 L 0.0 68.0 L 0.0 69.0 L 0.0 70.0 L 0.0 71.0 L 0.0 72.0 L 0.0 73.0 L 0.0 74.0 L 0.0 75.0 L 0.0 76.0 L 0.0 77.0 L 0.0 78.0 L 0.0 79.0 L 0.0 80.0 L 0.0 81.0 L 0.0 82.0 L 0.0 83.0 L 0.0 84.0 L 0.0 85.0 L 0.0 86.0 L 0.0 87.0 L 0.0 88.0 L 0.0 89.0 L 0.0 90.0 L 0.0 91.0 L 0.0 92.0 L 0.0 93.0 L 0.0 94.0 L 0.0 95.0 L 0.0 96.0 L 0.0 97.0 L 0.0 98.0 L 0.0 99.0 L 0.0 100.0 L 0.0 101.0 L 0.0 102.0 L 0.0 103.0 L 0.0 104.0 L 0.0 105.0 L 0.0 106.0 L 0.0 107.0 L 0.0 108.0 L 0.0 109.0 L 0.0 110.0 L 0.0 111.0 L 0.0 112.0 L 0.0 113.0 L 0.0 114.0 L 0.0 115.0 L 0.0 116.0 L 0.0 117.0 L 0.0 118.0 L 0.0 119.0 L 0.0 120.0 L 0.0 121.0 L 0.0 122.0 L 0.0 123.0 L 0.0 124.0 L 0.0 125.0 L 0.0 126.0 L 0.0 127.0 L 0.3333333333333333 127.66666666666667 L 1.0 128.0 L 2.0 128.0 L 3.0 128.0 L 4.0 128.0 L 5.0 128.0 L 6.0 128.0 L 7.0 128.0 L 8.0 128.0 L 9.0 128.0 L 10.0 128.0 L 11.0 128.0 L 12.0 128.0 L 13.0 128.0 L 14.0 128.0 L 15.0 128.0 L 16.0 128.0 L 17.0 128.0 L 18.0 128.0 L 19.0 128.0 L 20.0 128.0 L 21.0 128.0 L 22.0 128.0 L 23.0 128.0 L 24.0 128.0 L 25.0 128.0 L 26.0 128.0 L 27.0 128.0 L 28.0 128.0 L 29.0 128.0 L 30.0 128.0 L 31.0 128.0 L 32.0 128.0 L 33.0 128.0 L 34.0 128.0 L 35.0 128.0 L 36.0 128.0 L 37.0 128.0 L 38.0 128.0 L 39.0 128.0 L 40.0 128.0 L 41.0 128.0 L 42.0 128.0 L 43.0 128.0 L 44.0 128.0 L 45.0 128.0 L 46.0 128.0 L 47.0 128.0 L 47.5 128.0 Z" stroke="none" fill="rgb(0,0,0)" />
<path d="M 88.5 24.0 L 89.0 24.0 L 90.0 24.0 L 91.0 24.0 L 92.0 24.0 L 93.0 24.0 L 94.0 24.0 L 95.0 24.0 L 96.0 24.0 L 97.0 24.0 L 98.0 24.0 L 99.0 24.0 L 100.0 24.0 L 101.0 24.0 L 102.0 24.0 L 103.0 24.0 L 104.0 24.0 L 105.0 24.0 L 106.0 24.0 L 107.0 24.0 L 108.0 24.0 L 109.0 24.0 L 110.0 24.0 L 111.0 24.0 L 112.0 24.0 L 112.66666666666667 23.666666666666668 L 113.0 23.0 L 113.0 22.0 L 113.0 21.0 L 113.0 20.0 L 113.0 19.0 L 113.0 18.0 L 113.0 17.0 L 113.33333333333333 16.0 L 113.66666666666667 15.0 L 114.0 14.0 L 114.0 13.0 L 114.0 12.0 L 113.66666666666667 11.0 L 113.33333333333333 10.0 L 112.66666666666667 9.0 L 112.0 8.333333333333334 L 111.0 8.0 L 110.0 8.0 L 109.0 8.0 L 108.0 8.0 L 107.0 8.0 L 106.0 8.0 L 105.0 8.0 L 104.0 8.0 L 103.0 8.0 L 102.0 8.0 L 101.0 8.0 L 100.0 8.0 L 99.0 8.0 L 98.0 8.0 L 97.0 8.0 L 96.0 8.0 L 95.0 8.0 L 94.0 8.0 L 93.0 8.0 L 92.0 8.0 L 91.0 8.0 L 90.0 8.0 L 89.0 8.0 L 88.0 8.0 L 87.0 8.0 L 86.0 8.0 L 85.0 8.0 L 84.0 8.0 L 83.0 8.0 L 82.0 8.0 L 81.0 8.0 L 80.0 8.0 L 79.0 8.0 L 78.0 8.0 L 77.0 8.0 L 76.0 8.0 L 75.0 8.0 L 74.0 8.0 L 73.0 8.0 L 72.0 8.0 L 71.0 8.0 L 70.0 8.0 L 69.0 8.0 L 68.0 8.0 L 67.0 8.0 L 66.0 8.0 L 65.0 8.0 L 64.0 8.0 L 63.0 8.0 L 62.0 8.0 L 61.0 8.0 L 60.0 8.0 L 59.0 8.0 L 58.0 8.0 L 57.0 8.0 L 56.0 8.0 L 55.0 8.0 L 54.0 8.0 L 53.0 8.0 L 52.0 8.0 L 51.0 8.0 L 50.0 8.0 L 49.0 8.0 L 48.0 8.0 L 47.0 8.0 L 46.0 8.0 L 45.0 8.0 L 44.0 8.0 L 43.0 8.0 L 42.0 8.0 L 41.0 8.0 L 40.0 8.0 L 39.0 8.0 L 38.0 8.0 L 37.0 8.0 L 36.0 8.0 L 35.0 8.0 L 34.0 8.0 L 33.0 8.0 L 32.0 8.0 L 31.0 8.0 L 30.0 8.0 L 29.0 8.0 L 28.0 8.0 L 27.0 8.0 L 26.0 8.0 L 25.0 8.0 L 24.0 8.0 L 23.0 8.0 L 22.0 8.0 L 21.0 8.0 L 20.0 8.0 L 19.0 8.0 L 18.0 8.0 L 17.0 8.0 L 16.0 8.333333333333334 L 15.333333333333334 9.0 L 14.666666666666666 10.0 L 14.333333333333334 11.0 L 14.0 12.0 L 14.0 13.0 L 14.0 14.0 L 14.333333333333334 15.0 L 14.666666666666666 16.0 L 15.0 17.0 L 15.0 18.0 L 15.0 19.0 L 15.0 20.0 L 15.0 21.0 L 15.0 22.0 L 15.333333333333334 23.0 L 16.0 23.666666666666668 L 17.0 24.0 L 18.0 24.0 L 19.0 24.0 L 20.0 24.0 L 21.0 24.0 L 22.0 24.0 L 23.0 24.0 L 24.0 24.0 L 25.0 24.0 L 26.0 24.0 L 27.0 24.0 L 28.0 24.0 L 29.0 24.0 L 30.0 24.0 L 31.0 24.0 L 32.0 24.0 L 33.0 24.0 L 34.0 24.0 L 35.0 24.0 L 36.0 24.0 L 37.0 24.0 L 38.0 24.0 L 39.0 24.0 L 40.0 24.0 L 41.0 24.0 L 42.0 24.0 L 43.0 24.0 L 44.0 24.0 L 45.0 24.0 L 46.0 24.0 L 47.0 24.0 L 48.0 24.0 L 49.0 24.0 L 50.0 24.0 L 51.0 24.0 L 52.0 24.0 L 53.0 24.0 L 54.0 24.0 L 55.0 24.0 L 56.0 24.0 L 57.0 24.333333333333332 L 58.0 24.666666666666668 L 59.0 25.0 L 60.0 24.666666666666668 L 61.0 24.0 L 62.0 23.0 L 62.666666666666664 22.0 L 63.0 21.0 L 63.0 20.0 L 62.666666666666664 19.333333333333332 L 62.0 19.0 L 61.0 19.0 L 60.0 19.0 L 59.0 19.0 L 58.0 19.0 L 57.0 19.0 L 56.0 18.666666666666668 L 55.0 18.0 L 54.333333333333336 17.0 L 54.0 16.0 L 54.0 15.0 L 54.0 14.0 L 54.333333333333336 13.0 L 55.0 12.333333333333334 L 56.0 12.0 L 57.0 12.0 L 58.0 12.333333333333334 L 59.0 12.666666666666666 L 60.0 13.0 L 61.0 12.666666666666666 L 62.0 12.333333333333334 L 63.0 12.0 L 64.0 12.0 L 65.0 12.0 L 66.0 12.0 L 67.0 12.0 L 68.0 12.0 L 69.0 12.0 L 70.0 12.0 L 71.0 12.0 L 72.0 12.0 L 73.0 12.0 L 74.0 12.0 L 75.0 12.333333333333334 L 76.0 13.0 L 77.0 14.0 L 78.0 15.0 L 79.0 15.666666666666666 L 80.0 16.333333333333332 L 80.33333333333333 17.0 L 80.0 18.0 L 79.0 18.666666666666668 L 78.0 19.333333333333332 L 77.0 19.666666666666668 L 76.0 20.0 L 75.33333333333333 20.333333333333332 L 75.0 21.0 L 75.33333333333333 22.0 L 76.0 23.0 L 77.0 24.0 L 78.0 24.666666666666668 L 79.0 25.0 L 80.0 24.666666666666668 L 81.0 24.333333333333332 L 82.0 24.0 L 83.0 24.0 L 84.0 24.0 L 85.0 24.0 L 86.0 24.0 L 87.0 24.0 L 87.5 24.0 Z" stroke="none" fill="rgb(28,58,169)" />
<path d="M 59.5 19.0 L 60.0 19.0 L 60.666666666666664 18.666666666666668 L 60.666666666666664 18.0 L 60.0 17.333333333333332 L 59.0 16.666666666666668 L 58.333333333333336 16.0 L 58.333333333333336 15.0 L 58.666666666666664 14.0 L 59.0 13.0 L 58.666666666666664 12.333333333333334 L 58.0 12.0 L 57.0 12.0 L 56.0 12.0 L 55.0 12.0 L 54.333333333333336 12.333333333333334 L 54.0 13.0 L 54.0 14.0 L 54.0 15.0 L 54.0 16.0 L 54.0 17.0 L 54.333333333333336 18.0 L 55.0 18.666666666666668 L 56.0 19.0 L 57.0 19.0 L 58.0 19.0 L 58.5 19.0 Z" stroke="none" fill="rgb(31,44,92)" />
<path d="M 62.5 14.5 L 63.0 14.666666666666666 L 64.0 15.333333333333334 L 65.0 15.666666666666666 L 66.0 16.0 L 67.0 16.0 L 68.0 16.0 L 69.0 16.0 L 70.0 16.0 L 71.0 16.0 L 72.0 15.666666666666666 L 73.0 15.333333333333334 L 74.0 15.0 L 75.0 14.666666666666666 L 75.66666666666667 14.0 L 76.0 13.0 L 75.66666666666667 12.333333333333334 L 75.0 12.0 L 74.0 12.0 L 73.0 12.0 L 72.0 12.0 L 71.0 12.0 L 70.0 12.0 L 69.0 12.0 L 68.0 12.0 L 67.0 12.0 L 66.0 12.0 L 65.0 12.0 L 64.0 12.0 L 63.0 12.0 L 62.0 12.0 L 61.333333333333336 12.333333333333334 L 61.0 13.0 L 61.333333333333336 13.666666666666666 L 61.5 14.0 Z" stroke="none" fill="rgb(31,44,92)" />
<path d="M 53.5 53.5 L 54.0 53.666666666666664 L 55.0 54.0 L 56.0 54.0 L 57.0 54.0 L 58.0 54.0 L 59.0 54.0 L 60.0 53.666666666666664 L 61.0 53.0 L 62.0 52.0 L 63.0 51.0 L 64.0 50.0 L 64.66666666666667 49.0 L 65.33333333333333 48.0 L 65.66666666666667 47.0 L 66.0 46.0 L 66.33333333333333 45.0 L 66.66666666666667 44.0 L 67.0 43.0 L 67.33333333333333 42.0 L 67.66666666666667 41.0 L 68.33333333333333 40.0 L 69.0 39.666666666666664 L 70.0 40.0 L 71.0 41.0 L 72.0 42.0 L 73.0 43.0 L 74.0 43.666666666666664 L 75.0 44.333333333333336 L 76.0 44.666666666666664 L 77.0 45.0 L 78.0 45.0 L 79.0 45.0 L 80.0 45.0 L 81.0 44.666666666666664 L 82.0 44.0 L 83.0 43.0 L 83.66666666666667 42.0 L 84.0 41.0 L 84.0 40.0 L 84.0 39.0 L 84.0 38.0 L 84.0 37.0 L 84.0 36.0 L 84.0 35.0 L 83.66666666666667 34.0 L 83.33333333333333 33.0 L 83.0 32.0 L 82.66666666666667 31.0 L 82.33333333333333 30.0 L 81.66666666666667 29.0 L 81.33333333333333 28.0 L 80.66666666666667 27.0 L 80.0 26.0 L 79.0 25.0 L 78.0 24.0 L 77.0 23.0 L 76.0 22.0 L 75.66666666666667 21.0 L 76.0 20.333333333333332 L 77.0 20.0 L 77.66666666666667 19.666666666666668 L 78.0 19.0 L 78.33333333333333 18.0 L 78.66666666666667 17.0 L 79.0 16.0 L 78.66666666666667 15.0 L 78.0 14.0 L 77.0 13.333333333333334 L 76.0 13.333333333333334 L 75.0 14.0 L 74.0 14.666666666666666 L 73.0 15.0 L 72.0 15.333333333333334 L 71.0 15.666666666666666 L 70.0 16.0 L 69.0 16.0 L 68.0 16.0 L 67.0 16.0 L 66.0 15.666666666666666 L 65.0 15.333333333333334 L 64.0 14.666666666666666 L 63.0 14.333333333333334 L 62.0 13.666666666666666 L 61.0 13.333333333333334 L 60.0 13.0 L 59.0 13.333333333333334 L 58.333333333333336 14.0 L 58.0 15.0 L 58.0 16.0 L 58.333333333333336 16.666666666666668 L 59.0 17.333333333333332 L 60.0 18.0 L 61.0 18.666666666666668 L 62.0 19.333333333333332 L 62.666666666666664 20.0 L 62.666666666666664 21.0 L 62.0 22.0 L 61.0 23.0 L 60.0 24.0 L 59.0 24.666666666666668 L 58.0 25.333333333333332 L 57.333333333333336 26.0 L 56.666666666666664 27.0 L 56.0 28.0 L 55.0 29.0 L 54.0 30.0 L 53.333333333333336 31.0 L 52.666666666666664 32.0 L 52.0 33.0 L 51.333333333333336 34.0 L 50.666666666666664 35.0 L 50.333333333333336 36.0 L 49.666666666666664 37.0 L 49.333333333333336 38.0 L 49.0 39.0 L 49.0 40.0 L 49.0 41.0 L 48.666666666666664 42.0 L 48.333333333333336 43.0 L 48.0 44.0 L 48.0 45.0 L 48.0 46.0 L 48.0 47.0 L 48.333333333333336 48.0 L 48.666666666666664 49.0 L 49.333333333333336 50.0 L 50.0 51.0 L 51.0 52.0 L 52.0 52.666666666666664 L 52.5 53.0 Z" stroke="none" fill="rgb(250,250,250)" />
<path d="M 78.5 19.0 L 79.0 19.0 L 80.0 18.666666666666668 L 80.66666666666667 18.0 L 81.0 17.0 L 80.66666666666667 16.333333333333332 L 80.0 16.0 L 79.0 16.333333333333332 L 78.33333333333333 17.0 L 78.0 18.0 L 78.0 18.5 Z" stroke="none" fill="rgb(31,44,92)" />
<path d="M 101.5 82.0 L 102.0 82.0 L 103.0 82.0 L 104.0 82.33333333333333 L 105.0 83.0 L 106.0 84.0 L 107.0 85.0 L 108.0 86.0 L 109.0 86.66666666666667 L 110.0 87.0 L 111.0 87.0 L 112.0 87.0 L 113.0 86.66666666666667 L 114.0 86.0 L 114.66666666666667 85.0 L 115.33333333333333 84.0 L 115.66666666666667 83.0 L 116.0 82.0 L 116.33333333333333 81.0 L 117.0 80.0 L 118.0 79.0 L 119.0 78.33333333333333 L 119.66666666666667 77.66666666666667 L 120.0 77.0 L 120.0 76.0 L 120.0 75.0 L 120.0 74.0 L 120.0 73.0 L 119.66666666666667 72.0 L 119.33333333333333 71.0 L 119.0 70.0 L 119.0 69.0 L 119.0 68.0 L 119.0 67.0 L 119.0 66.0 L 118.66666666666667 65.0 L 118.33333333333333 64.0 L 118.0 63.0 L 118.0 62.0 L 118.0 61.0 L 118.0 60.0 L 118.0 59.0 L 118.0 58.0 L 117.66666666666667 57.0 L 117.33333333333333 56.0 L 117.0 55.0 L 117.0 54.0 L 117.0 53.0 L 117.0 52.0 L 117.0 51.0 L 116.66666666666667 50.0 L 116.33333333333333 49.0 L 116.0 48.0 L 116.0 47.0 L 116.0 46.0 L 116.0 45.0 L 116.0 44.0 L 116.0 43.0 L 115.66666666666667 42.0 L 115.33333333333333 41.0 L 115.0 40.0 L 115.0 39.0 L 115.0 38.0 L 115.0 37.0 L 115.0 36.0 L 114.66666666666667 35.0 L 114.33333333333333 34.0 L 114.0 33.0 L 114.0 32.0 L 114.0 31.0 L 114.0 30.0 L 114.0 29.0 L 114.0 28.0 L 113.66666666666667 27.0 L 113.33333333333333 26.0 L 113.0 25.0 L 112.66666666666667 24.333333333333332 L 112.0 24.0 L 111.0 24.0 L 110.0 24.0 L 109.0 24.0 L 108.0 24.0 L 107.0 24.0 L 106.0 24.0 L 105.0 24.0 L 104.0 24.0 L 103.0 24.0 L 102.0 24.0 L 101.0 24.0 L 100.0 24.0 L 99.0 24.0 L 98.0 24.0 L 97.0 24.0 L 96.0 24.0 L 95.0 24.0 L 94.0 24.0 L 93.0 24.0 L 92.0 24.0 L 91.0 24.0 L 90.0 24.0 L 89.0 24.0 L 88.0 24.0 L 87.0 24.0 L 86.0 24.0 L 85.0 24.0 L 84.0 24.0 L 83.0 24.0 L 82.0 24.0 L 81.0 24.0 L 80.0 24.333333333333332 L 79.33333333333333 25.0 L 79.33333333333333 26.0 L 80.0 27.0 L 80.66666666666667 28.0 L 81.33333333333333 29.0 L 81.66666666666667 30.0 L 82.33333333333333 31.0 L 82.66666666666667 32.0 L 83.0 33.0 L 83.33333333333333 34.0 L 83.66666666666667 35.0 L 84.0 36.0 L 84.0 37.0 L 84.0 38.0 L 84.0 39.0 L 84.0 40.0 L 83.66666666666667 41.0 L 83.0 42.0 L 82.0 43.0 L 81.0 44.0 L 80.0 44.666666666666664 L 79.0 45.0 L 78.0 45.0 L 77.0 44.666666666666664 L 76.0 44.333333333333336 L 75.0 43.666666666666664 L 74.0 43.0 L 73.0 42.0 L 72.0 41.0 L 71.0 40.0 L 70.0 39.333333333333336 L 69.0 39.0 L 68.33333333333333 39.333333333333336 L 67.66666666666667 40.0 L 67.33333333333333 41.0 L 67.0 42.0 L 66.66666666666667 43.0 L 66.33333333333333 44.0 L 66.0 45.0 L 65.66666666666667 46.0 L 65.33333333333333 47.0 L 64.66666666666667 48.0 L 64.0 49.0 L 63.0 50.0 L 62.0 51.0 L 61.0 52.0 L 60.0 53.0 L 59.0 53.666666666666664 L 58.0 54.0 L 57.0 54.0 L 56.0 54.0 L 55.0 53.666666666666664 L 54.0 53.333333333333336 L 53.0 52.666666666666664 L 52.0 52.0 L 51.0 51.0 L 50.0 50.0 L 49.333333333333336 49.0 L 48.666666666666664 48.0 L 48.333333333333336 47.0 L 48.0 46.0 L 48.0 45.0 L 48.333333333333336 44.0 L 48.666666666666664 43.0 L 49.0 42.0 L 49.0 41.0 L 49.0 40.0 L 49.333333333333336 39.0 L 49.666666666666664 38.0 L 50.333333333333336 37.0 L 50.666666666666664 36.0 L 51.333333333333336 35.0 L 52.0 34.0 L 52.666666666666664 33.0 L 53.333333333333336 32.0 L 54.0 31.0 L 55.0 30.0 L 56.0 29.0 L 56.666666666666664 28.0 L 57.333333333333336 27.0 L 57.666666666666664 26.0 L 58.0 25.0 L 57.666666666666664 24.333333333333332 L 57.0 24.0 L 56.0 24.0 L 55.0 24.0 L 54.0 24.0 L 53.0 24.0 L 52.0 24.0 L 51.0 24.0 L 50.0 24.0 L 49.0 24.0 L 48.0 24.0 L 47.0 24.0 L 46.0 24.0 L 45.0 24.0 L 44.0 24.0 L 43.0 24.0 L 42.0 24.0 L 41.0 24.0 L 40.0 24.0 L 39.0 24.0 L 38.0 24.0 L 37.0 24.0 L 36.0 24.0 L 35.0 24.0 L 34.0 24.0 L 33.0 24.0 L 32.0 24.0 L 31.0 24.0 L 30.0 24.0 L 29.0 24.0 L 28.0 24.0 L 27.0 24.0 L 26.0 24.0 L 25.0 24.0 L 24.0 24.0 L 23.0 24.0 L 22.0 24.0 L 21.0 24.0 L 20.0 24.0 L 19.0 24.0 L 18.0 24.0 L 17.0 24.0 L 16.0 24.0 L 15.333333333333334 24.333333333333332 L 15.0 25.0 L 14.666666666666666 26.0 L 14.333333333333334 27.0 L 14.0 28.0 L 14.0 29.0 L 14.0 30.0 L 14.0 31.0 L 14.0 32.0 L 14.0 33.0 L 13.666666666666666 34.0 L 13.333333333333334 35.0 L 13.0 36.0 L 13.0 37.0 L 13.0 38.0 L 13.0 39.0 L 13.0 40.0 L 12.666666666666666 41.0 L 12.333333333333334 42.0 L 12.0 43.0 L 12.0 44.0 L 12.0 45.0 L 12.0 46.0 L 12.0 47.0 L 12.0 48.0 L 11.666666666666666 49.0 L 11.333333333333334 50.0 L 11.0 51.0 L 11.0 52.0 L 11.0 53.0 L 11.0 54.0 L 11.0 55.0 L 10.666666666666666 56.0 L 10.333333333333334 57.0 L 10.0 58.0 L 10.0 59.0 L 10.0 60.0 L 10.0 61.0 L 10.0 62.0 L 10.0 63.0 L 9.666666666666666 64.0 L 9.333333333333334 65.0 L 9.0 66.0 L 9.0 67.0 L 9.0 68.0 L 9.0 69.0 L 9.0 70.0 L 8.666666666666666 71.0 L 8.333333333333334 72.0 L 8.0 73.0 L 8.0 74.0 L 8.0 75.0 L 8.0 76.0 L 8.333333333333334 77.0 L 9.0 78.0 L 10.0 79.0 L 11.0 80.0 L 11.666666666666666 81.0 L 12.333333333333334 82.0 L 12.666666666666666 83.0 L 13.0 84.0 L 13.333333333333334 85.0 L 14.0 86.0 L 15.0 86.66666666666667 L 16.0 87.0 L 17.0 87.0 L 18.0 87.0 L 19.0 86.66666666666667 L 20.0 86.0 L 21.0 85.0 L 22.0 84.0 L 23.0 83.33333333333333 L 24.0 82.66666666666667 L 25.0 82.33333333333333 L 26.0 82.0 L 27.0 82.0 L 28.0 82.0 L 29.0 82.0 L 30.0 82.33333333333333 L 31.0 83.0 L 32.0 84.0 L 33.0 85.0 L 33.666666666666664 86.0 L 34.333333333333336 87.0 L 34.666666666666664 88.0 L 35.0 89.0 L 35.333333333333336 90.0 L 36.0 91.0 L 37.0 91.66666666666667 L 38.0 92.0 L 39.0 92.0 L 40.0 92.0 L 41.0 91.66666666666667 L 42.0 91.0 L 43.0 90.0 L 44.0 89.33333333333333 L 45.0 88.66666666666667 L 46.0 88.0 L 47.0 87.33333333333333 L 48.0 87.0 L 49.0 87.0 L 50.0 87.0 L 51.0 87.33333333333333 L 52.0 87.66666666666667 L 53.0 88.33333333333333 L 54.0 89.0 L 55.0 90.0 L 55.666666666666664 91.0 L 56.333333333333336 92.0 L 56.666666666666664 93.0 L 57.0 94.0 L 57.333333333333336 95.0 L 58.0 96.0 L 59.0 96.66666666666667 L 59.666666666666664 96.66666666666667 L 60.0 96.0 L 60.333333333333336 95.0 L 60.666666666666664 94.0 L 61.0 93.0 L 61.0 92.0 L 61.0 91.0 L 61.0 90.0 L 61.333333333333336 89.0 L 61.666666666666664 88.0 L 62.0 87.0 L 62.0 86.0 L 62.0 85.0 L 62.333333333333336 84.0 L 62.666666666666664 83.0 L 63.0 82.0 L 63.0 81.0 L 63.333333333333336 80.0 L 64.0 79.66666666666667 L 64.66666666666667 80.0 L 65.0 81.0 L 65.0 82.0 L 65.33333333333333 83.0 L 65.66666666666667 84.0 L 66.0 85.0 L 66.0 86.0 L 66.0 87.0 L 66.33333333333333 88.0 L 66.66666666666667 89.0 L 67.0 90.0 L 67.0 91.0 L 67.0 92.0 L 67.0 93.0 L 67.33333333333333 94.0 L 67.66666666666667 95.0 L 68.33333333333333 95.66666666666667 L 69.0 96.0 L 70.0 95.66666666666667 L 70.66666666666667 95.0 L 71.0 94.0 L 71.33333333333333 93.0 L 71.66666666666667 92.0 L 72.33333333333333 91.0 L 73.0 90.0 L 74.0 89.33333333333333 L 75.0 88.66666666666667 L 76.0 88.0 L 77.0 87.33333333333333 L 78.0 87.0 L 79.0 87.0 L 80.0 87.0 L 81.0 87.33333333333333 L 82.0 87.66666666666667 L 83.0 88.33333333333333 L 84.0 89.0 L 85.0 90.0 L 86.0 91.0 L 87.0 91.66666666666667 L 88.0 92.0 L 89.0 92.0 L 90.0 92.0 L 91.0 91.66666666666667 L 92.0 91.0 L 92.66666666666667 90.0 L 93.33333333333333 89.0 L 93.66666666666667 88.0 L 94.0 87.0 L 94.33333333333333 86.0 L 95.0 85.0 L 96.0 84.0 L 97.0 83.33333333333333 L 98.0 82.66666666666667 L 99.0 82.33333333333333 L 100.0 82.0 L 100.5 82.0 Z" stroke="none" fill="rgb(41,182,246)" />
<path d="M 74.5 38.5 L 75.0 39.0 L 76.0 40.0 L 77.0 40.666666666666664 L 78.0 41.0 L 79.0 40.666666666666664 L 79.66666666666667 40.0 L 80.0 39.0 L 80.0 38.0 L 80.0 37.0 L 80.0 36.0 L 80.0 35.0 L 79.66666666666667 34.0 L 79.33333333333333 33.0 L 78.66666666666667 32.0 L 78.0 31.0 L 77.0 30.0 L 76.0 29.0 L 75.0 28.0 L 74.0 27.0 L 73.0 26.333333333333332 L 72.0 26.0 L 71.33333333333333 26.333333333333332 L 71.0 27.0 L 71.0 28.0 L 71.0 29.0 L 71.0 30.0 L 71.0 31.0 L 71.33333333333333 32.0 L 71.66666666666667 33.0 L 72.0 34.0 L 72.33333333333333 35.0 L 72.66666666666667 36.0 L 73.33333333333333 37.0 L 73.5 37.5 Z" stroke="none" fill="rgb(41,182,246)" />
<path d="M 53.5 48.5 L 54.0 49.0 L 55.0 49.666666666666664 L 56.0 50.0 L 57.0 50.0 L 58.0 50.0 L 59.0 49.666666666666664 L 59.666666666666664 49.0 L 60.333333333333336 48.0 L 61.0 47.0 L 61.666666666666664 46.0 L 62.0 45.0 L 62.333333333333336 44.0 L 62.666666666666664 43.0 L 63.0 42.0 L 63.333333333333336 41.0 L 63.666666666666664 40.0 L 64.0 39.0 L 64.0 38.0 L 64.0 37.0 L 64.0 36.0 L 64.0 35.0 L 64.0 34.0 L 64.0 33.0 L 64.0 32.0 L 64.0 31.0 L 64.0 30.0 L 64.0 29.0 L 63.666666666666664 28.333333333333332 L 63.0 28.0 L 62.0 28.333333333333332 L 61.0 29.0 L 60.0 30.0 L 59.0 31.0 L 58.0 32.0 L 57.0 33.0 L 56.0 34.0 L 55.333333333333336 35.0 L 54.666666666666664 36.0 L 54.333333333333336 37.0 L 53.666666666666664 38.0 L 53.333333333333336 39.0 L 53.0 40.0 L 53.0 41.0 L 52.666666666666664 42.0 L 52.333333333333336 43.0 L 52.0 44.0 L 52.0 45.0 L 52.0 46.0 L 52.333333333333336 47.0 L 52.5 47.5 Z" stroke="none" fill="rgb(41,182,246)" />
<path d="M 24.5 89.5 L 25.0 89.0 L 26.0 88.33333333333333 L 27.0 88.0 L 28.0 88.33333333333333 L 28.666666666666668 89.0 L 29.333333333333332 90.0 L 29.666666666666668 91.0 L 30.333333333333332 92.0 L 30.666666666666668 93.0 L 31.333333333333332 94.0 L 31.666666666666668 95.0 L 32.333333333333336 96.0 L 33.0 97.0 L 34.0 97.66666666666667 L 35.0 98.0 L 36.0 98.0 L 37.0 98.0 L 38.0 98.0 L 39.0 98.0 L 40.0 98.0 L 41.0 98.0 L 42.0 98.0 L 43.0 97.66666666666667 L 44.0 97.0 L 45.0 96.0 L 46.0 95.0 L 47.0 94.0 L 48.0 93.33333333333333 L 49.0 93.0 L 50.0 93.33333333333333 L 50.666666666666664 94.0 L 51.333333333333336 95.0 L 51.666666666666664 96.0 L 52.333333333333336 97.0 L 52.666666666666664 98.0 L 53.333333333333336 99.0 L 54.0 100.0 L 54.666666666666664 101.0 L 55.333333333333336 102.0 L 56.0 102.66666666666667 L 57.0 103.0 L 58.0 103.0 L 58.666666666666664 102.66666666666667 L 59.0 102.0 L 59.333333333333336 101.0 L 59.666666666666664 100.0 L 60.0 99.0 L 60.0 98.0 L 59.666666666666664 97.0 L 59.0 96.0 L 58.0 95.0 L 57.333333333333336 94.0 L 57.0 93.0 L 56.666666666666664 92.0 L 56.333333333333336 91.0 L 55.666666666666664 90.0 L 55.0 89.0 L 54.0 88.33333333333333 L 53.0 87.66666666666667 L 52.0 87.33333333333333 L 51.0 87.0 L 50.0 87.0 L 49.0 87.0 L 48.0 87.0 L 47.0 87.0 L 46.0 87.33333333333333 L 45.0 88.0 L 44.0 88.66666666666667 L 43.0 89.33333333333333 L 42.0 90.0 L 41.0 91.0 L 40.0 91.66666666666667 L 39.0 92.0 L 38.0 91.66666666666667 L 37.0 91.0 L 36.0 90.0 L 35.333333333333336 89.0 L 35.0 88.0 L 34.666666666666664 87.0 L 34.333333333333336 86.0 L 33.666666666666664 85.0 L 33.0 84.0 L 32.0 83.0 L 31.0 82.33333333333333 L 30.0 82.0 L 29.0 82.0 L 28.0 82.0 L 27.0 82.0 L 26.0 82.0 L 25.0 82.0 L 24.0 82.33333333333333 L 23.0 82.66666666666667 L 22.0 83.33333333333333 L 21.0 84.0 L 20.0 85.0 L 19.0 86.0 L 18.0 86.66666666666667 L 17.0 87.0 L 16.0 86.66666666666667 L 15.0 86.0 L 14.0 85.0 L 13.333333333333334 84.0 L 13.0 83.0 L 12.666666666666666 82.0 L 12.333333333333334 81.0 L 11.666666666666666 80.0 L 11.0 79.0 L 10.0 78.33333333333333 L 9.0 78.0 L 8.333333333333334 78.33333333333333 L 7.666666666666667 79.0 L 7.333333333333333 80.0 L 7.0 81.0 L 7.0 82.0 L 7.0 83.0 L 7.0 84.0 L 7.0 85.0 L 7.0 86.0 L 7.333333333333333 87.0 L 8.0 88.0 L 9.0 89.0 L 10.0 90.0 L 11.0 91.0 L 12.0 92.0 L 13.0 92.66666666666667 L 14.0 93.0 L 15.0 93.0 L 16.0 93.0 L 17.0 93.0 L 18.0 93.0 L 19.0 93.0 L 20.0 92.66666666666667 L 21.0 92.0 L 22.0 91.33333333333333 L 23.0 90.66666666666667 L 23.5 90.5 Z" stroke="none" fill="rgb(130,232,182)" />
<path d="M 95.5 96.5 L 96.0 96.0 L 96.66666666666667 95.0 L 97.33333333333333 94.0 L 97.66666666666667 93.0 L 98.33333333333333 92.0 L 98.66666666666667 91.0 L 99.0 90.0 L 99.33333333333333 89.0 L 100.0 88.33333333333333 L 101.0 88.0 L 102.0 88.33333333333333 L 103.0 89.0 L 104.0 90.0 L 105.0 90.66666666666667 L 106.0 91.33333333333333 L 107.0 92.0 L 108.0 92.66666666666667 L 109.0 93.0 L 110.0 93.0 L 111.0 93.0 L 112.0 93.0 L 113.0 93.0 L 114.0 93.0 L 115.0 92.66666666666667 L 116.0 92.0 L 117.0 91.0 L 118.0 90.0 L 119.0 89.0 L 120.0 88.0 L 120.66666666666667 87.0 L 121.0 86.0 L 121.0 85.0 L 121.0 84.0 L 121.0 83.0 L 121.0 82.0 L 121.0 81.0 L 121.0 80.0 L 120.66666666666667 79.0 L 120.0 78.33333333333333 L 119.0 78.0 L 118.0 78.33333333333333 L 117.0 79.0 L 116.33333333333333 80.0 L 116.0 81.0 L 115.66666666666667 82.0 L 115.33333333333333 83.0 L 114.66666666666667 84.0 L 114.0 85.0 L 113.0 86.0 L 112.0 86.66666666666667 L 111.0 87.0 L 110.0 86.66666666666667 L 109.0 86.0 L 108.0 85.0 L 107.0 84.0 L 106.0 83.0 L 105.0 82.33333333333333 L 104.0 82.0 L 103.0 82.0 L 102.0 82.0 L 101.0 82.0 L 100.0 82.0 L 99.0 82.0 L 98.0 82.33333333333333 L 97.0 82.66666666666667 L 96.0 83.33333333333333 L 95.0 84.0 L 94.33333333333333 85.0 L 94.0 86.0 L 93.66666666666667 87.0 L 93.33333333333333 88.0 L 92.66666666666667 89.0 L 92.0 90.0 L 91.0 91.0 L 90.0 91.66666666666667 L 89.0 92.0 L 88.0 91.66666666666667 L 87.0 91.0 L 86.0 90.0 L 85.0 89.0 L 84.0 88.33333333333333 L 83.0 87.66666666666667 L 82.0 87.33333333333333 L 81.0 87.0 L 80.0 87.0 L 79.0 87.0 L 78.0 87.0 L 77.0 87.0 L 76.0 87.33333333333333 L 75.0 88.0 L 74.0 88.66666666666667 L 73.0 89.33333333333333 L 72.33333333333333 90.0 L 71.66666666666667 91.0 L 71.33333333333333 92.0 L 71.0 93.0 L 70.66666666666667 94.0 L 70.0 95.0 L 69.33333333333333 96.0 L 68.66666666666667 97.0 L 68.33333333333333 98.0 L 68.0 99.0 L 68.33333333333333 100.0 L 68.66666666666667 101.0 L 69.0 102.0 L 69.33333333333333 102.66666666666667 L 70.0 103.0 L 71.0 103.0 L 72.0 102.66666666666667 L 73.0 102.0 L 73.66666666666667 101.0 L 74.33333333333333 100.0 L 75.0 99.0 L 75.66666666666667 98.0 L 76.33333333333333 97.0 L 76.66666666666667 96.0 L 77.0 95.0 L 77.33333333333333 94.0 L 78.0 93.33333333333333 L 79.0 93.0 L 80.0 93.33333333333333 L 81.0 94.0 L 82.0 95.0 L 83.0 96.0 L 84.0 96.66666666666667 L 85.0 97.33333333333333 L 86.0 97.66666666666667 L 87.0 98.0 L 88.0 98.0 L 89.0 98.0 L 90.0 98.0 L 91.0 98.0 L 92.0 98.0 L 93.0 98.0 L 94.0 97.66666666666667 L 94.5 97.5 Z" stroke="none" fill="rgb(130,232,182)" />
<path d="M 24.5 98.5 L 25.0 98.66666666666667 L 26.0 99.0 L 26.666666666666668 100.0 L 27.333333333333332 101.0 L 27.666666666666668 102.0 L 28.333333333333332 103.0 L 29.0 104.0 L 30.0 105.0 L 31.0 106.0 L 32.0 107.0 L 33.0 107.66666666666667 L 34.0 108.0 L 35.0 108.0 L 36.0 108.0 L 37.0 108.0 L 38.0 108.0 L 39.0 108.0 L 40.0 108.0 L 41.0 108.0 L 42.0 107.66666666666667 L 43.0 107.33333333333333 L 44.0 106.66666666666667 L 45.0 106.0 L 46.0 105.0 L 47.0 104.0 L 48.0 103.66666666666667 L 48.666666666666664 104.0 L 49.333333333333336 105.0 L 49.666666666666664 106.0 L 50.0 107.0 L 50.333333333333336 108.0 L 51.0 109.0 L 52.0 110.0 L 53.0 111.0 L 54.0 112.0 L 55.0 112.66666666666667 L 56.0 113.0 L 56.666666666666664 112.66666666666667 L 57.333333333333336 112.0 L 57.666666666666664 111.0 L 58.0 110.0 L 58.0 109.0 L 58.0 108.0 L 58.0 107.0 L 58.333333333333336 106.0 L 58.666666666666664 105.0 L 58.666666666666664 104.0 L 58.0 103.33333333333333 L 57.0 102.66666666666667 L 56.0 102.0 L 55.333333333333336 101.0 L 54.666666666666664 100.0 L 54.0 99.0 L 53.333333333333336 98.0 L 52.666666666666664 97.0 L 52.333333333333336 96.0 L 51.666666666666664 95.0 L 51.333333333333336 94.0 L 50.666666666666664 93.33333333333333 L 50.0 93.0 L 49.0 93.0 L 48.0 93.0 L 47.0 93.33333333333333 L 46.0 94.0 L 45.0 95.0 L 44.0 96.0 L 43.0 97.0 L 42.0 97.66666666666667 L 41.0 98.0 L 40.0 98.0 L 39.0 98.0 L 38.0 98.0 L 37.0 98.0 L 36.0 98.0 L 35.0 97.66666666666667 L 34.0 97.0 L 33.0 96.0 L 32.333333333333336 95.0 L 31.666666666666668 94.0 L 31.333333333333332 93.0 L 30.666666666666668 92.0 L 30.333333333333332 91.0 L 29.666666666666668 90.0 L 29.333333333333332 89.0 L 28.666666666666668 88.33333333333333 L 28.0 88.0 L 27.0 88.0 L 26.0 88.0 L 25.0 88.33333333333333 L 24.0 89.0 L 23.0 90.0 L 22.0 90.66666666666667 L 21.0 91.33333333333333 L 20.0 92.0 L 19.0 92.66666666666667 L 18.0 93.0 L 17.0 93.0 L 16.0 93.0 L 15.0 93.0 L 14.0 92.66666666666667 L 13.0 92.0 L 12.0 91.0 L 11.0 90.0 L 10.0 89.0 L 9.0 88.0 L 8.0 87.33333333333333 L 7.0 87.0 L 6.333333333333333 87.33333333333333 L 6.0 88.0 L 6.0 89.0 L 6.0 90.0 L 6.0 91.0 L 6.0 92.0 L 5.666666666666667 93.0 L 5.333333333333333 94.0 L 5.0 95.0 L 5.0 96.0 L 5.333333333333333 97.0 L 5.666666666666667 98.0 L 6.333333333333333 99.0 L 7.0 100.0 L 8.0 101.0 L 9.0 101.66666666666667 L 10.0 102.0 L 11.0 102.33333333333333 L 12.0 102.66666666666667 L 13.0 103.0 L 14.0 103.0 L 15.0 103.0 L 16.0 103.0 L 17.0 103.0 L 18.0 103.0 L 19.0 102.66666666666667 L 20.0 102.33333333333333 L 21.0 101.66666666666667 L 22.0 101.0 L 23.0 100.0 L 23.5 99.5 Z" stroke="none" fill="rgb(77,182,172)" />
<path d="M 95.5 107.5 L 96.0 107.0 L 97.0 106.0 L 98.0 105.0 L 99.0 104.0 L 99.66666666666667 103.0 L 100.33333333333333 102.0 L 100.66666666666667 101.0 L 101.33333333333333 100.0 L 102.0 99.0 L 103.0 98.66666666666667 L 104.0 99.0 L 105.0 100.0 L 106.0 100.66666666666667 L 107.0 101.33333333333333 L 108.0 101.66666666666667 L 109.0 102.33333333333333 L 110.0 102.66666666666667 L 111.0 103.0 L 112.0 103.0 L 113.0 103.0 L 114.0 103.0 L 115.0 103.0 L 116.0 103.0 L 117.0 103.0 L 118.0 102.66666666666667 L 119.0 102.0 L 120.0 101.0 L 121.0 100.0 L 122.0 99.33333333333333 L 122.66666666666667 98.66666666666667 L 123.0 98.0 L 123.0 97.0 L 123.0 96.0 L 123.0 95.0 L 122.66666666666667 94.0 L 122.33333333333333 93.0 L 122.0 92.0 L 122.0 91.0 L 122.0 90.0 L 122.0 89.0 L 122.0 88.0 L 121.66666666666667 87.33333333333333 L 121.0 87.0 L 120.0 87.33333333333333 L 119.0 88.0 L 118.0 89.0 L 117.0 90.0 L 116.0 91.0 L 115.0 92.0 L 114.0 92.66666666666667 L 113.0 93.0 L 112.0 93.0 L 111.0 93.0 L 110.0 93.0 L 109.0 92.66666666666667 L 108.0 92.0 L 107.0 91.33333333333333 L 106.0 90.66666666666667 L 105.0 90.0 L 104.0 89.0 L 103.0 88.33333333333333 L 102.0 88.0 L 101.0 88.0 L 100.0 88.0 L 99.33333333333333 88.33333333333333 L 99.0 89.0 L 98.66666666666667 90.0 L 98.33333333333333 91.0 L 97.66666666666667 92.0 L 97.33333333333333 93.0 L 96.66666666666667 94.0 L 96.0 95.0 L 95.0 96.0 L 94.0 97.0 L 93.0 97.66666666666667 L 92.0 98.0 L 91.0 98.0 L 90.0 98.0 L 89.0 98.0 L 88.0 98.0 L 87.0 97.66666666666667 L 86.0 97.33333333333333 L 85.0 96.66666666666667 L 84.0 96.0 L 83.0 95.0 L 82.0 94.0 L 81.0 93.33333333333333 L 80.0 93.0 L 79.0 93.0 L 78.0 93.0 L 77.33333333333333 93.33333333333333 L 77.0 94.0 L 76.66666666666667 95.0 L 76.33333333333333 96.0 L 75.66666666666667 97.0 L 75.0 98.0 L 74.33333333333333 99.0 L 73.66666666666667 100.0 L 73.0 101.0 L 72.0 102.0 L 71.0 102.66666666666667 L 70.0 103.33333333333333 L 69.33333333333333 104.0 L 69.33333333333333 105.0 L 69.66666666666667 106.0 L 70.0 107.0 L 70.0 108.0 L 70.0 109.0 L 70.0 110.0 L 70.33333333333333 111.0 L 70.66666666666667 112.0 L 71.33333333333333 112.66666666666667 L 72.0 113.0 L 73.0 112.66666666666667 L 74.0 112.0 L 75.0 111.0 L 76.0 110.0 L 77.0 109.0 L 77.66666666666667 108.0 L 78.33333333333333 107.0 L 78.66666666666667 106.0 L 79.0 105.0 L 79.33333333333333 104.0 L 80.0 103.66666666666667 L 81.0 104.0 L 82.0 105.0 L 83.0 105.66666666666667 L 84.0 106.33333333333333 L 85.0 107.0 L 86.0 107.66666666666667 L 87.0 108.0 L 88.0 108.0 L 89.0 108.0 L 90.0 108.0 L 91.0 108.0 L 92.0 108.0 L 93.0 108.0 L 94.0 108.0 L 94.5 108.0 Z" stroke="none" fill="rgb(77,182,172)" />
<path d="M 24.5 119.5 L 25.0 119.66666666666667 L 26.0 120.0 L 27.0 120.0 L 28.0 120.0 L 29.0 120.0 L 30.0 120.33333333333333 L 31.0 120.66666666666667 L 32.0 121.0 L 33.0 121.0 L 34.0 121.0 L 35.0 121.0 L 36.0 121.0 L 37.0 121.33333333333333 L 38.0 121.66666666666667 L 39.0 122.0 L 40.0 122.0 L 41.0 122.0 L 42.0 122.0 L 43.0 122.0 L 44.0 122.0 L 45.0 122.0 L 46.0 122.0 L 47.0 122.0 L 48.0 122.0 L 49.0 122.0 L 50.0 122.0 L 51.0 122.0 L 52.0 122.0 L 53.0 122.0 L 54.0 122.0 L 55.0 122.0 L 55.666666666666664 121.66666666666667 L 56.0 121.0 L 56.0 120.0 L 56.0 119.0 L 56.0 118.0 L 56.333333333333336 117.0 L 56.666666666666664 116.0 L 57.0 115.0 L 56.666666666666664 114.0 L 56.0 113.0 L 55.0 112.0 L 54.0 111.0 L 53.0 110.0 L 52.0 109.0 L 51.0 108.0 L 50.333333333333336 107.0 L 50.0 106.0 L 49.666666666666664 105.0 L 49.333333333333336 104.0 L 48.666666666666664 103.33333333333333 L 48.0 103.0 L 47.0 103.33333333333333 L 46.0 104.0 L 45.0 105.0 L 44.0 106.0 L 43.0 106.66666666666667 L 42.0 107.33333333333333 L 41.0 107.66666666666667 L 40.0 108.0 L 39.0 108.0 L 38.0 108.0 L 37.0 108.0 L 36.0 108.0 L 35.0 108.0 L 34.0 107.66666666666667 L 33.0 107.0 L 32.0 106.0 L 31.0 105.0 L 30.0 104.0 L 29.0 103.0 L 28.333333333333332 102.0 L 27.666666666666668 101.0 L 27.333333333333332 100.0 L 26.666666666666668 99.0 L 26.0 98.33333333333333 L 25.0 98.0 L 24.0 98.33333333333333 L 23.0 99.0 L 22.0 100.0 L 21.0 101.0 L 20.0 101.66666666666667 L 19.0 102.33333333333333 L 18.0 102.66666666666667 L 17.0 103.0 L 16.0 103.0 L 15.0 103.0 L 14.0 103.0 L 13.0 102.66666666666667 L 12.0 102.33333333333333 L 11.0 102.0 L 10.0 101.66666666666667 L 9.0 101.0 L 8.0 100.0 L 7.0 99.33333333333333 L 6.0 99.0 L 5.333333333333333 99.33333333333333 L 5.0 100.0 L 4.666666666666667 101.0 L 4.333333333333333 102.0 L 4.0 103.0 L 4.0 104.0 L 4.0 105.0 L 4.0 106.0 L 4.0 107.0 L 4.0 108.0 L 4.0 109.0 L 4.0 110.0 L 4.0 111.0 L 4.0 112.0 L 4.333333333333333 112.66666666666667 L 5.0 113.33333333333333 L 6.0 113.66666666666667 L 7.0 114.0 L 8.0 114.33333333333333 L 9.0 114.66666666666667 L 10.0 115.33333333333333 L 11.0 115.66666666666667 L 12.0 116.0 L 13.0 116.33333333333333 L 14.0 116.66666666666667 L 15.0 117.0 L 16.0 117.33333333333333 L 17.0 117.66666666666667 L 18.0 118.0 L 19.0 118.0 L 20.0 118.33333333333333 L 21.0 118.66666666666667 L 22.0 119.0 L 23.0 119.0 L 23.5 119.0 Z" stroke="none" fill="rgb(42,86,198)" />
<path d="M 95.5 121.0 L 96.0 121.0 L 97.0 120.66666666666667 L 98.0 120.33333333333333 L 99.0 120.0 L 100.0 120.0 L 101.0 120.0 L 102.0 120.0 L 103.0 119.66666666666667 L 104.0 119.33333333333333 L 105.0 119.0 L 106.0 119.0 L 107.0 118.66666666666667 L 108.0 118.33333333333333 L 109.0 118.0 L 110.0 118.0 L 111.0 117.66666666666667 L 112.0 117.33333333333333 L 113.0 117.0 L 114.0 116.66666666666667 L 115.0 116.33333333333333 L 116.0 116.0 L 117.0 115.66666666666667 L 118.0 115.33333333333333 L 119.0 114.66666666666667 L 120.0 114.33333333333333 L 121.0 114.0 L 122.0 113.66666666666667 L 123.0 113.33333333333333 L 123.66666666666667 112.66666666666667 L 124.0 112.0 L 124.0 111.0 L 124.0 110.0 L 124.0 109.0 L 124.0 108.0 L 124.0 107.0 L 124.0 106.0 L 124.0 105.0 L 124.0 104.0 L 124.0 103.0 L 123.66666666666667 102.0 L 123.33333333333333 101.0 L 123.0 100.0 L 122.66666666666667 99.33333333333333 L 122.0 99.0 L 121.0 99.33333333333333 L 120.0 100.0 L 119.0 101.0 L 118.0 102.0 L 117.0 102.66666666666667 L 116.0 103.0 L 115.0 103.0 L 114.0 103.0 L 113.0 103.0 L 112.0 103.0 L 111.0 102.66666666666667 L 110.0 102.33333333333333 L 109.0 101.66666666666667 L 108.0 101.33333333333333 L 107.0 100.66666666666667 L 106.0 100.0 L 105.0 99.0 L 104.0 98.33333333333333 L 103.0 98.0 L 102.0 98.33333333333333 L 101.33333333333333 99.0 L 100.66666666666667 100.0 L 100.33333333333333 101.0 L 99.66666666666667 102.0 L 99.0 103.0 L 98.0 104.0 L 97.0 105.0 L 96.0 106.0 L 95.0 107.0 L 94.0 107.66666666666667 L 93.0 108.0 L 92.0 108.0 L 91.0 108.0 L 90.0 108.0 L 89.0 108.0 L 88.0 108.0 L 87.0 107.66666666666667 L 86.0 107.0 L 85.0 106.33333333333333 L 84.0 105.66666666666667 L 83.0 105.0 L 82.0 104.0 L 81.0 103.33333333333333 L 80.0 103.0 L 79.33333333333333 103.33333333333333 L 79.0 104.0 L 78.66666666666667 105.0 L 78.33333333333333 106.0 L 77.66666666666667 107.0 L 77.0 108.0 L 76.0 109.0 L 75.0 110.0 L 74.0 111.0 L 73.0 112.0 L 72.0 113.0 L 71.33333333333333 114.0 L 71.0 115.0 L 71.33333333333333 116.0 L 71.66666666666667 117.0 L 72.0 118.0 L 72.0 119.0 L 72.0 120.0 L 72.0 121.0 L 72.33333333333333 121.66666666666667 L 73.0 122.0 L 74.0 122.0 L 75.0 122.0 L 76.0 122.0 L 77.0 122.0 L 78.0 122.0 L 79.0 122.0 L 80.0 122.0 L 81.0 122.0 L 82.0 122.0 L 83.0 122.0 L 84.0 122.0 L 85.0 122.0 L 86.0 122.0 L 87.0 122.0 L 88.0 122.0 L 89.0 122.0 L 90.0 121.66666666666667 L 91.0 121.33333333333333 L 92.0 121.0 L 93.0 121.0 L 94.0 121.0 L 94.5 121.0 Z" stroke="none" fill="rgb(42,86,198)" />
</svg>
