<?xml version="1.0" encoding="UTF-8" standalone="no"?>
<!DOCTYPE svg PUBLIC "-//W3C//DTD SVG 1.1//EN"
"http://www.w3.org/Graphics/SVG/1.1/DTD/svg11.dtd">
<svg width="128" height="128" xmlns="http://www.w3.org/2000/svg" version="1.1">
<path d="M 26.5 128.0 L 27.0 128.0 L 28.0 128.0 L 29.0 128.0 L 30.0 128.0 L 31.0 128.0 L 32.0 128.0 L 33.0 128.0 L 34.0 128.0 L 35.0 128.0 L 36.0 128.0 L 37.0 128.0 L 38.0 128.0 L 39.0 128.0 L 40.0 128.0 L 41.0 128.0 L 42.0 128.0 L 43.0 128.0 L 44.0 128.0 L 45.0 128.0 L 46.0 128.0 L 47.0 128.0 L 48.0 128.0 L 49.0 128.0 L 50.0 128.0 L 51.0 128.0 L 52.0 128.0 L 53.0 128.0 L 54.0 128.0 L 55.0 128.0 L 56.0 128.0 L 57.0 128.0 L 58.0 128.0 L 59.0 128.0 L 60.0 128.0 L 61.0 128.0 L 62.0 128.0 L 63.0 128.0 L 64.0 128.0 L 65.0 128.0 L 66.0 128.0 L 67.0 128.0 L 68.0 128.0 L 69.0 128.0 L 70.0 128.0 L 71.0 128.0 L 72.0 128.0 L 73.0 128.0 L 74.0 128.0 L 75.0 128.0 L 76.0 128.0 L 77.0 128.0 L 78.0 128.0 L 79.0 128.0 L 80.0 128.0 L 81.0 128.0 L 82.0 128.0 L 83.0 128.0 L 84.0 128.0 L 85.0 128.0 L 86.0 128.0 L 87.0 128.0 L 88.0 128.0 L 89.0 128.0 L 90.0 128.0 L 91.0 128.0 L 92.0 128.0 L 93.0 128.0 L 94.0 128.0 L 95.0 128.0 L 96.0 128.0 L 97.0 128.0 L 98.0 128.0 L 99.0 128.0 L 100.0 128.0 L 101.0 128.0 L 102.0 128.0 L 103.0 128.0 L 104.0 128.0 L 105.0 128.0 L 106.0 128.0 L 107.0 128.0 L 108.0 128.0 L 109.0 128.0 L 110.0 128.0 L 111.0 128.0 L 112.0 128.0 L 113.0 128.0 L 114.0 128.0 L 115.0 128.0 L 116.0 128.0 L 117.0 128.0 L 118.0 128.0 L 119.0 128.0 L 120.0 128.0 L 121.0 128.0 L 122.0 128.0 L 123.0 128.0 L 124.0 128.0 L 125.0 128.0 L 126.0 128.0 L 127.0 128.0 L 127.66666666666667 127.66666666666667 L 128.0 127.0 L 128.0 126.0 L 128.0 125.0 L 128.0 124.0 L 128.0 123.0 L 128.0 122.0 L 128.0 121.0 L 128.0 120.0 L 128.0 119.0 L 128.0 118.0 L 128.0 117.0 L 128.0 116.0 L 128.0 115.0 L 128.0 114.0 L 128.0 113.0 L 128.0 112.0 L 128.0 111.0 L 128.0 110.0 L 128.0 109.0 L 128.0 108.0 L 128.0 107.0 L 128.0 106.0 L 128.0 105.0 L 128.0 104.0 L 128.0 103.0 L 128.0 102.0 L 128.0 101.0 L 128.0 100.0 L 128.0 99.0 L 128.0 98.0 L 128.0 97.0 L 128.0 96.0 L 128.0 95.0 L 128.0 94.0 L 128.0 93.0 L 128.0 92.0 L 128.0 91.0 L 128.0 90.0 L 128.0 89.0 L 128.0 88.0 L 128.0 87.0 L 128.0 86.0 L 128.0 85.0 L 128.0 84.0 L 128.0 83.0 L 128.0 82.0 L 128.0 81.0 L 128.0 80.0 L 128.0 79.0 L 128.0 78.0 L 128.0 77.0 L 128.0 76.0 L 128.0 75.0 L 128.0 74.0 L 128.0 73.0 L 128.0 72.0 L 128.0 71.0 L 128.0 70.0 L 128.0 69.0 L 128.0 68.0 L 128.0 67.0 L 128.0 66.0 L 128.0 65.0 L 128.0 64.0 L 128.0 63.0 L 128.0 62.0 L 128.0 61.0 L 128.0 60.0 L 128.0 59.0 L 128.0 58.0 L 128.0 57.0 L 128.0 56.0 L 128.0 55.0 L 128.0 54.0 L 128.0 53.0 L 128.0 52.0 L 128.0 51.0 L 128.0 50.0 L 128.0 49.0 L 128.0 48.0 L 128.0 47.0 L 128.0 46.0 L 128.0 45.0 L 128.0 44.0 L 128.0 43.0 L 128.0 42.0 L 128.0 41.0 L 128.0 40.0 L 128.0 39.0 L 128.0 38.0 L 128.0 37.0 L 128.0 36.0 L 128.0 35.0 L 128.0 34.0 L 128.0 33.0 L 128.0 32.0 L 128.0 31.0 L 128.0 30.0 L 128.0 29.0 L 128.0 28.0 L 128.0 27.0 L 128.0 26.0 L 128.0 25.0 L 128.0 24.0 L 128.0 23.0 L 128.0 22.0 L 128.0 21.0 L 128.0 20.0 L 128.0 19.0 L 128.0 18.0 L 128.0 17.0 L 128.0 16.0 L 128.0 15.0 L 128.0 14.0 L 128.0 13.0 L 128.0 12.0 L 128.0 11.0 L 128.0 10.0 L 128.0 9.0 L 128.0 8.0 L 128.0 7.0 L 128.0 6.0 L 128.0 5.0 L 128.0 4.0 L 128.0 3.0 L 128.0 2.0 L 128.0 1.0 L 127.66666666666667 0.3333333333333333 L 127.0 0.0 L 126.0 0.0 L 125.0 0.0 L 124.0 0.0 L 123.0 0.0 L 122.0 0.0 L 121.0 0.0 L 120.0 0.0 L 119.0 0.0 L 118.0 0.0 L 117.0 0.0 L 116.0 0.0 L 115.0 0.0 L 114.0 0.0 L 113.0 0.0 L 112.0 0.0 L 111.0 0.0 L 110.0 0.0 L 109.0 0.0 L 108.0 0.0 L 107.0 0.0 L 106.0 0.0 L 105.0 0.0 L 104.0 0.0 L 103.0 0.0 L 102.0 0.0 L 101.0 0.0 L 100.0 0.0 L 99.0 0.0 L 98.0 0.0 L 97.0 0.0 L 96.0 0.0 L 95.0 0.0 L 94.0 0.0 L 93.0 0.0 L 92.0 0.0 L 91.0 0.0 L 90.0 0.0 L 89.0 0.0 L 88.0 0.0 L 87.0 0.0 L 86.0 0.0 L 85.0 0.0 L 84.0 0.0 L 83.0 0.0 L 82.0 0.0 L 81.0 0.0 L 80.0 0.0 L 79.0 0.0 L 78.0 0.0 L 77.0 0.0 L 76.0 0.0 L 75.0 0.0 L 74.0 0.0 L 73.0 0.0 L 72.0 0.0 L 71.0 0.0 L 70.0 0.0 L 69.0 0.0 L 68.0 0.0 L 67.0 0.0 L 66.0 0.0 L 65.0 0.0 L 64.0 0.0 L 63.0 0.0 L 62.0 0.0 L 61.0 0.0 L 60.0 0.0 L 59.0 0.0 L 58.0 0.0 L 57.0 0.0 L 56.0 0.0 L 55.0 0.0 L 54.0 0.0 L 53.0 0.0 L 52.0 0.0 L 51.0 0.0 L 50.0 0.0 L 49.0 0.0 L 48.0 0.0 L 47.0 0.0 L 46.0 0.0 L 45.0 0.0 L 44.0 0.0 L 43.0 0.0 L 42.0 0.0 L 41.0 0.0 L 40.0 0.0 L 39.0 0.0 L 38.0 0.0 L 37.0 0.0 L 36.0 0.0 L 35.0 0.0 L 34.0 0.0 L 33.0 0.0 L 32.0 0.0 L 31.0 0.0 L 30.0 0.0 L 29.0 0.0 L 28.0 0.0 L 27.0 0.0 L 26.0 0.0 L 25.0 0.0 L 24.0 0.0 L 23.0 0.0 L 22.0 0.0 L 21.0 0.0 L 20.0 0.0 L 19.0 0.0 L 18.0 0.0 L 17.0 0.0 L 16.0 0.0 L 15.0 0.0 L 14.0 0.0 L 13.0 0.0 L 12.0 0.0 L 11.0 0.0 L 10.0 0.0 L 9.0 0.0 L 8.0 0.0 L 7.0 0.0 L 6.0 0.0 L 5.0 0.0 L 4.0 0.0 L 3.0 0.0 L 2.0 0.0 L 1.0 0.0 L 0.3333333333333333 0.3333333333333333 L 0.0 1.0 L 0.0 2.0 L 0.0 3.0 L 0.0 4.0 L 0.0 5.0 L 0.0 6.0 L 0.0 7.0 L 0.0 8.0 L 0.0 9.0 L 0.0 10.0 L 0.0 11.0 L 0.0 12.0 L 0.0 13.0 L 0.0 14.0 L 0.0 15.0 L 0.0 16.0 L 0.0 17.0 L 0.0 18.0 L 0.0 19.0 L 0.0 20.0 L 0.0 21.0 L 0.0 22.0 L 0.0 23.0 L 0.0 24.0 L 0.0 25.0 L 0.0 26.0 L 0.0 27.0 L 0.0 28.0 L 0.0 29.0 L 0.0 30.0 L 0.0 31.0 L 0.0 32.0 L 0.0 33.0 L 0.0 34.0 L 0.0 35.0 L 0.0 36.0 L 0.0 37.0 L 0.0 38.0 L 0.0 39.0 L 0.0 40.0 L 0.0 41.0 L 0.0 42.0 L 0.0 43.0 L 0.0 44.0 L 0.0 45.0 L 0.0 46.0 L 0.0 47.0 L 0.0 48.0 L 0.0 49.0 L 0.0 50.0 L 0.0 51.0 L 0.0 52.0 L 0.0 53.0 L 0.0 54.0 L 0.0 55.0 L 0.0 56.0 L 0.0 57.0 L 0.0 58.0 L 0.0 59.0 L 0.0 60.0 L 0.0 61.0 L 0.0 62.0 L 0.0 63.0 L 0.0 64.0 L 0.0 65.0 L 0.0 66.0 L 0.0 67.0 L 0.0 68.0 L 0.0 69.0 L 0.0 70.0 L 0.0 71.0 L 0.0 72.0 L 0.0 73.0 L 0.0 74.0 L 0.0 75.0 L 0.0 76.0 L 0.0 77.0 L 0.0 78.0 L 0.0 79.0 L 0.0 80.0 L 0.0 81.0 L 0.0 82.0 L 0.0 83.0 L 0.0 84.0 L 0.0 85.0 L 0.0 86.0 L 0.0 87.0 L 0.0 88.0 L 0.0 89.0 L 0.0 90.0 L 0.0 91.0 L 0.0 92.0 L 0.0 93.0 L 0.0 94.0 L 0.0 95.0 L 0.0 96.0 L 0.0 97.0 L 0.0 98.0 L 0.0 99.0 L 0.0 100.0 L 0.0 101.0 L 0.0 102.0 L 0.0 103.0 L 0.0 104.0 L 0.0 105.0 L 0.0 106.0 L 0.0 107.0 L 0.0 108.0 L 0.0 109.0 L 0.0 110.0 L 0.0 111.0 L 0.0 112.0 L 0.0 113.0 L 0.0 114.0 L 0.0 115.0 L 0.0 116.0 L 0.0 117.0 L 0.0 118.0 L 0.0 119.0 L 0.0 120.0 L 0.0 121.0 L 0.0 122.0 L 0.0 123.0 L 0.0 124.0 L 0.0 125.0 L 0.0 126.0 L 0.0 127.0 L 0.3333333333333333 127.66666666666667 L 1.0 128.0 L 2.0 128.0 L 3.0 128.0 L 4.0 128.0 L 5.0 128.0 L 6.0 128.0 L 7.0 128.0 L 8.0 128.0 L 9.0 128.0 L 10.0 128.0 L 11.0 128.0 L 12.0 128.0 L 13.0 128.0 L 14.0 128.0 L 15.0 128.0 L 16.0 128.0 L 17.0 128.0 L 18.0 128.0 L 19.0 128.0 L 20.0 128.0 L 21.0 128.0 L 22.0 128.0 L 23.0 128.0 L 24.0 128.0 L 25.0 128.0 L 25.5 128.0 Z" stroke="none" fill="rgb(255,255,255)" />
<path d="M 17.5 95.5 L 18.0 95.66666666666667 L 19.0 96.0 L 20.0 96.33333333333333 L 21.0 96.66666666666667 L 22.0 97.0 L 23.0 97.0 L 24.0 97.0 L 25.0 97.0 L 26.0 97.33333333333333 L 26.666666666666668 98.0 L 27.333333333333332 99.0 L 28.0 100.0 L 28.666666666666668 101.0 L 29.0 102.0 L 29.333333333333332 103.0 L 30.0 104.0 L 31.0 105.0 L 32.0 106.0 L 33.0 106.66666666666667 L 34.0 107.33333333333333 L 35.0 107.66666666666667 L 36.0 108.33333333333333 L 37.0 108.66666666666667 L 38.0 109.0 L 39.0 109.33333333333333 L 40.0 110.0 L 41.0 110.66666666666667 L 42.0 111.0 L 43.0 111.0 L 44.0 111.0 L 45.0 111.33333333333333 L 46.0 111.66666666666667 L 47.0 112.0 L 48.0 112.0 L 49.0 112.0 L 50.0 112.0 L 51.0 112.0 L 52.0 112.0 L 53.0 111.66666666666667 L 54.0 111.33333333333333 L 55.0 111.0 L 56.0 111.0 L 57.0 110.66666666666667 L 58.0 110.33333333333333 L 59.0 109.66666666666667 L 60.0 109.66666666666667 L 61.0 110.0 L 62.0 110.66666666666667 L 63.0 111.0 L 64.0 111.33333333333333 L 65.0 111.66666666666667 L 66.0 112.0 L 67.0 112.0 L 68.0 112.0 L 69.0 112.0 L 70.0 112.0 L 71.0 111.66666666666667 L 72.0 111.66666666666667 L 73.0 111.66666666666667 L 74.0 111.66666666666667 L 75.0 111.0 L 76.0 110.0 L 77.0 109.0 L 78.0 108.0 L 79.0 107.0 L 80.0 106.0 L 81.0 105.0 L 82.0 104.33333333333333 L 83.0 104.0 L 84.0 104.0 L 85.0 104.0 L 86.0 104.33333333333333 L 87.0 104.66666666666667 L 88.0 105.0 L 89.0 105.0 L 90.0 105.0 L 91.0 105.0 L 92.0 104.66666666666667 L 93.0 104.33333333333333 L 94.0 104.0 L 95.0 104.0 L 96.0 104.0 L 97.0 103.66666666666667 L 98.0 103.33333333333333 L 99.0 102.66666666666667 L 100.0 102.0 L 101.0 101.0 L 102.0 100.0 L 103.0 99.0 L 104.0 98.0 L 105.0 97.0 L 106.0 96.0 L 107.0 95.33333333333333 L 107.66666666666667 94.66666666666667 L 108.0 94.0 L 108.0 93.0 L 108.0 92.0 L 108.33333333333333 91.0 L 109.0 90.33333333333333 L 110.0 89.66666666666667 L 111.0 89.0 L 112.0 88.33333333333333 L 113.0 87.66666666666667 L 114.0 87.0 L 115.0 86.0 L 115.66666666666667 85.0 L 116.33333333333333 84.0 L 117.0 83.0 L 117.66666666666667 82.0 L 118.0 81.0 L 118.33333333333333 80.0 L 118.66666666666667 79.0 L 119.0 78.0 L 119.0 77.0 L 119.33333333333333 76.0 L 119.66666666666667 75.0 L 120.0 74.0 L 120.0 73.0 L 120.0 72.0 L 120.0 71.0 L 120.0 70.0 L 120.0 69.0 L 120.0 68.0 L 120.0 67.0 L 120.0 66.0 L 119.66666666666667 65.0 L 119.0 64.0 L 118.33333333333333 63.0 L 118.0 62.0 L 118.0 61.0 L 117.66666666666667 60.0 L 117.33333333333333 59.0 L 116.66666666666667 58.0 L 116.33333333333333 57.0 L 115.66666666666667 56.0 L 115.33333333333333 55.0 L 114.66666666666667 54.0 L 114.0 53.0 L 113.0 52.0 L 112.33333333333333 51.0 L 112.0 50.0 L 112.0 49.0 L 112.0 48.0 L 112.33333333333333 47.0 L 112.66666666666667 46.0 L 112.66666666666667 45.0 L 112.33333333333333 44.0 L 112.0 43.0 L 112.0 42.0 L 112.0 41.0 L 111.66666666666667 40.0 L 111.33333333333333 39.0 L 110.66666666666667 38.0 L 110.33333333333333 37.0 L 109.66666666666667 36.0 L 109.0 35.0 L 108.0 34.0 L 107.0 33.0 L 106.0 32.333333333333336 L 105.0 31.666666666666668 L 104.0 31.0 L 103.0 30.333333333333332 L 102.0 30.0 L 101.0 29.666666666666668 L 100.0 29.333333333333332 L 99.0 29.0 L 98.0 29.0 L 97.0 29.0 L 96.0 29.0 L 95.0 29.0 L 94.0 29.0 L 93.0 29.0 L 92.0 28.666666666666668 L 91.0 28.0 L 90.33333333333333 27.0 L 89.66666666666667 26.0 L 89.0 25.0 L 88.0 24.0 L 87.0 23.333333333333332 L 86.0 23.0 L 85.0 22.666666666666668 L 84.0 22.333333333333332 L 83.0 22.0 L 82.0 22.0 L 81.0 22.0 L 80.0 22.0 L 79.0 22.0 L 78.0 22.0 L 77.0 22.333333333333332 L 76.0 22.666666666666668 L 75.0 22.666666666666668 L 74.0 22.0 L 73.0 21.0 L 72.33333333333333 20.0 L 71.66666666666667 19.333333333333332 L 71.0 18.666666666666668 L 70.0 18.0 L 69.0 17.333333333333332 L 68.0 17.0 L 67.0 17.0 L 66.0 17.0 L 65.0 17.0 L 64.0 17.0 L 63.0 16.666666666666668 L 62.333333333333336 16.0 L 62.0 15.0 L 62.0 14.0 L 61.666666666666664 13.0 L 61.333333333333336 12.0 L 60.666666666666664 11.0 L 60.0 10.0 L 59.0 9.0 L 58.0 8.0 L 57.0 7.333333333333333 L 56.0 6.666666666666667 L 55.0 6.333333333333333 L 54.0 5.666666666666667 L 53.0 5.333333333333333 L 52.0 5.0 L 51.0 4.666666666666667 L 50.0 4.333333333333333 L 49.0 4.0 L 48.0 4.0 L 47.0 4.0 L 46.0 4.0 L 45.0 4.0 L 44.0 4.0 L 43.0 4.0 L 42.0 4.0 L 41.0 4.0 L 40.0 4.0 L 39.0 4.0 L 38.0 4.0 L 37.0 4.0 L 36.0 4.333333333333333 L 35.0 4.666666666666667 L 34.0 5.333333333333333 L 33.0 5.666666666666667 L 32.0 6.333333333333333 L 31.0 7.0 L 30.0 8.0 L 29.0 9.0 L 28.0 10.0 L 27.0 11.0 L 26.0 12.0 L 25.333333333333332 13.0 L 24.666666666666668 14.0 L 24.0 14.666666666666666 L 23.0 15.0 L 22.0 15.0 L 21.0 15.0 L 20.0 15.0 L 19.0 15.0 L 18.0 15.0 L 17.0 15.0 L 16.0 15.333333333333334 L 15.0 15.666666666666666 L 14.0 16.333333333333332 L 13.0 17.0 L 12.0 18.0 L 11.0 19.0 L 10.333333333333334 20.0 L 9.666666666666666 21.0 L 9.333333333333334 22.0 L 9.0 23.0 L 8.666666666666666 24.0 L 8.333333333333334 25.0 L 8.0 26.0 L 8.0 27.0 L 8.0 28.0 L 8.0 29.0 L 8.0 30.0 L 8.0 31.0 L 8.333333333333334 32.0 L 8.666666666666666 33.0 L 9.333333333333334 34.0 L 9.666666666666666 35.0 L 10.333333333333334 36.0 L 11.0 36.666666666666664 L 12.0 37.333333333333336 L 13.0 37.666666666666664 L 14.0 38.0 L 15.0 38.0 L 15.666666666666666 37.666666666666664 L 16.0 37.0 L 15.666666666666666 36.0 L 15.0 35.0 L 14.0 34.0 L 13.0 33.0 L 12.333333333333334 32.0 L 12.0 31.0 L 12.0 30.0 L 12.0 29.0 L 12.0 28.0 L 12.0 27.0 L 12.0 26.0 L 12.333333333333334 25.0 L 12.666666666666666 24.0 L 13.333333333333334 23.0 L 14.0 22.0 L 15.0 21.0 L 16.0 20.0 L 17.0 19.333333333333332 L 18.0 18.666666666666668 L 19.0 18.333333333333332 L 20.0 18.0 L 21.0 18.0 L 22.0 18.0 L 23.0 18.0 L 24.0 18.0 L 25.0 18.0 L 26.0 18.0 L 27.0 17.666666666666668 L 28.0 17.0 L 29.0 16.0 L 30.0 15.0 L 31.0 14.0 L 32.0 13.0 L 33.0 12.0 L 34.0 11.0 L 35.0 10.333333333333334 L 36.0 9.666666666666666 L 37.0 9.333333333333334 L 38.0 8.666666666666666 L 39.0 8.333333333333334 L 40.0 8.0 L 41.0 8.0 L 42.0 8.0 L 43.0 8.0 L 44.0 8.0 L 45.0 8.0 L 46.0 8.0 L 47.0 8.0 L 48.0 8.0 L 49.0 8.0 L 50.0 8.0 L 51.0 8.333333333333334 L 52.0 8.666666666666666 L 53.0 9.333333333333334 L 54.0 10.0 L 55.0 11.0 L 56.0 12.0 L 57.0 13.0 L 58.0 14.0 L 58.666666666666664 15.0 L 59.0 16.0 L 59.333333333333336 17.0 L 59.666666666666664 18.0 L 60.0 19.0 L 60.333333333333336 20.0 L 61.0 20.666666666666668 L 62.0 21.0 L 63.0 21.0 L 64.0 21.0 L 65.0 21.0 L 66.0 21.333333333333332 L 67.0 22.0 L 68.0 23.0 L 69.0 24.0 L 70.0 25.0 L 70.66666666666667 26.0 L 71.33333333333333 27.0 L 72.0 27.666666666666668 L 73.0 28.0 L 74.0 28.0 L 75.0 27.666666666666668 L 76.0 27.333333333333332 L 77.0 26.666666666666668 L 78.0 26.333333333333332 L 79.0 26.0 L 80.0 26.0 L 81.0 26.0 L 82.0 26.0 L 83.0 26.0 L 84.0 26.333333333333332 L 85.0 27.0 L 86.0 28.0 L 87.0 29.0 L 88.0 30.0 L 88.66666666666667 31.0 L 89.33333333333333 32.0 L 90.0 32.666666666666664 L 91.0 33.0 L 92.0 33.0 L 93.0 33.0 L 94.0 33.0 L 95.0 33.0 L 96.0 33.0 L 97.0 33.0 L 98.0 33.0 L 99.0 33.333333333333336 L 100.0 34.0 L 101.0 34.666666666666664 L 102.0 35.333333333333336 L 103.0 36.0 L 104.0 37.0 L 105.0 38.0 L 106.0 39.0 L 106.66666666666667 40.0 L 107.33333333333333 41.0 L 107.66666666666667 42.0 L 108.0 43.0 L 108.0 44.0 L 108.0 45.0 L 108.0 46.0 L 108.0 47.0 L 108.0 48.0 L 108.0 49.0 L 108.0 50.0 L 108.0 51.0 L 108.33333333333333 52.0 L 109.0 53.0 L 110.0 54.0 L 111.0 55.0 L 112.0 56.0 L 112.66666666666667 57.0 L 113.33333333333333 58.0 L 113.66666666666667 59.0 L 114.33333333333333 60.0 L 114.66666666666667 61.0 L 115.0 62.0 L 115.0 63.0 L 115.33333333333333 64.0 L 115.66666666666667 65.0 L 116.0 66.0 L 116.0 67.0 L 116.0 68.0 L 116.0 69.0 L 116.0 70.0 L 116.0 71.0 L 116.0 72.0 L 116.0 73.0 L 116.0 74.0 L 116.0 75.0 L 115.66666666666667 76.0 L 115.33333333333333 77.0 L 114.66666666666667 78.0 L 114.33333333333333 79.0 L 113.66666666666667 80.0 L 113.0 81.0 L 112.33333333333333 82.0 L 111.66666666666667 83.0 L 111.0 84.0 L 110.0 85.0 L 109.0 86.0 L 108.0 87.0 L 107.0 87.66666666666667 L 106.0 88.33333333333333 L 105.33333333333333 89.0 L 104.66666666666667 90.0 L 104.33333333333333 91.0 L 104.0 92.0 L 103.66666666666667 93.0 L 103.0 94.0 L 102.0 95.0 L 101.0 96.0 L 100.0 97.0 L 99.0 98.0 L 98.0 99.0 L 97.0 100.0 L 96.0 100.66666666666667 L 95.0 101.0 L 94.0 101.0 L 93.0 101.0 L 92.0 101.0 L 91.0 101.0 L 90.0 101.0 L 89.0 101.0 L 88.0 101.0 L 87.0 101.0 L 86.0 101.0 L 85.0 101.0 L 84.0 100.66666666666667 L 83.0 100.33333333333333 L 82.0 100.0 L 81.0 100.0 L 80.0 100.33333333333333 L 79.33333333333333 101.0 L 78.66666666666667 102.0 L 78.33333333333333 103.0 L 77.66666666666667 104.0 L 77.0 105.0 L 76.0 106.0 L 75.0 107.0 L 74.0 107.66666666666667 L 73.0 108.0 L 72.0 108.0 L 71.0 108.0 L 70.0 108.0 L 69.0 108.0 L 68.0 108.0 L 67.0 108.0 L 66.0 108.0 L 65.0 107.66666666666667 L 64.0 107.33333333333333 L 63.0 107.0 L 62.0 106.66666666666667 L 61.0 106.0 L 60.0 105.33333333333333 L 59.0 105.33333333333333 L 58.0 105.66666666666667 L 57.0 106.33333333333333 L 56.0 107.0 L 55.0 107.66666666666667 L 54.0 108.0 L 53.0 108.0 L 52.0 108.0 L 51.0 108.0 L 50.0 108.0 L 49.0 108.0 L 48.0 108.0 L 47.0 108.0 L 46.0 107.66666666666667 L 45.0 107.33333333333333 L 44.0 107.0 L 43.0 107.0 L 42.0 106.66666666666667 L 41.0 106.33333333333333 L 40.0 106.0 L 39.0 105.66666666666667 L 38.0 105.0 L 37.0 104.0 L 36.0 103.0 L 35.0 102.0 L 34.0 101.0 L 33.0 100.0 L 32.0 99.0 L 31.333333333333332 98.0 L 30.666666666666668 97.0 L 30.333333333333332 96.0 L 29.666666666666668 95.0 L 29.0 94.33333333333333 L 28.0 93.66666666666667 L 27.0 93.33333333333333 L 26.0 93.0 L 25.0 93.0 L 24.0 93.0 L 23.0 92.66666666666667 L 22.0 92.33333333333333 L 21.0 92.0 L 20.0 91.66666666666667 L 19.0 91.0 L 18.0 90.0 L 17.0 89.0 L 16.0 88.0 L 15.0 87.0 L 14.0 86.0 L 13.333333333333334 85.0 L 12.666666666666666 84.0 L 12.333333333333334 83.0 L 12.0 82.0 L 12.0 81.0 L 12.0 80.0 L 12.0 79.0 L 12.0 78.0 L 12.0 77.0 L 12.0 76.0 L 12.333333333333334 75.0 L 12.666666666666666 74.0 L 13.0 73.0 L 13.333333333333334 72.0 L 13.666666666666666 71.0 L 14.0 70.0 L 14.0 69.0 L 14.0 68.0 L 13.666666666666666 67.0 L 13.0 66.0 L 12.0 65.0 L 11.0 64.0 L 10.0 63.0 L 9.333333333333334 62.0 L 8.666666666666666 61.0 L 8.333333333333334 60.0 L 8.0 59.0 L 8.0 58.0 L 8.0 57.0 L 8.0 56.0 L 8.0 55.0 L 8.333333333333334 54.0 L 8.666666666666666 53.0 L 9.0 52.0 L 9.333333333333334 51.0 L 10.0 50.0 L 10.666666666666666 49.0 L 11.0 48.0 L 10.666666666666666 47.0 L 10.0 46.333333333333336 L 9.0 46.0 L 8.0 46.333333333333336 L 7.0 47.0 L 6.333333333333333 48.0 L 6.0 49.0 L 5.666666666666667 50.0 L 5.333333333333333 51.0 L 5.0 52.0 L 5.0 53.0 L 5.0 54.0 L 4.666666666666667 55.0 L 4.333333333333333 56.0 L 4.0 57.0 L 4.333333333333333 58.0 L 4.666666666666667 59.0 L 5.0 60.0 L 5.0 61.0 L 5.0 62.0 L 5.0 63.0 L 5.333333333333333 64.0 L 5.666666666666667 65.0 L 6.333333333333333 66.0 L 7.0 67.0 L 8.0 68.0 L 9.0 69.0 L 9.333333333333334 70.0 L 9.333333333333334 71.0 L 9.0 72.0 L 9.0 73.0 L 8.666666666666666 74.0 L 8.333333333333334 75.0 L 8.0 76.0 L 8.0 77.0 L 8.0 78.0 L 8.0 79.0 L 8.0 80.0 L 8.0 81.0 L 8.333333333333334 82.0 L 8.666666666666666 83.0 L 9.0 84.0 L 9.0 85.0 L 9.333333333333334 86.0 L 9.666666666666666 87.0 L 10.333333333333334 88.0 L 10.666666666666666 89.0 L 11.333333333333334 90.0 L 12.0 91.0 L 13.0 92.0 L 14.0 93.0 L 15.0 93.66666666666667 L 16.0 94.33333333333333 L 16.5 94.5 Z" stroke="none" fill="rgb(134,134,134)" />
<path d="M 42.5 107.0 L 43.0 107.0 L 44.0 107.33333333333333 L 45.0 107.66666666666667 L 46.0 108.0 L 47.0 108.0 L 48.0 108.0 L 49.0 108.0 L 50.0 108.0 L 51.0 108.0 L 52.0 108.0 L 53.0 108.0 L 54.0 108.0 L 55.0 108.0 L 56.0 107.66666666666667 L 57.0 107.0 L 58.0 106.33333333333333 L 59.0 106.0 L 60.0 106.33333333333333 L 61.0 106.66666666666667 L 62.0 107.0 L 63.0 107.33333333333333 L 64.0 107.66666666666667 L 65.0 108.0 L 66.0 108.0 L 67.0 108.0 L 68.0 108.0 L 69.0 108.0 L 70.0 108.0 L 71.0 108.0 L 72.0 108.0 L 73.0 108.0 L 74.0 108.0 L 75.0 107.66666666666667 L 76.0 107.0 L 77.0 106.0 L 77.66666666666667 105.0 L 78.33333333333333 104.0 L 78.66666666666667 103.0 L 79.33333333333333 102.0 L 80.0 101.0 L 81.0 100.33333333333333 L 82.0 100.33333333333333 L 83.0 100.66666666666667 L 84.0 101.0 L 85.0 101.0 L 86.0 101.0 L 87.0 101.0 L 88.0 101.0 L 89.0 101.0 L 90.0 101.0 L 91.0 101.0 L 92.0 101.0 L 93.0 101.0 L 94.0 101.0 L 95.0 101.0 L 96.0 101.0 L 97.0 100.66666666666667 L 98.0 100.0 L 99.0 99.0 L 100.0 98.0 L 101.0 97.0 L 102.0 96.0 L 103.0 95.0 L 103.66666666666667 94.0 L 104.0 93.0 L 104.33333333333333 92.0 L 104.66666666666667 91.0 L 105.33333333333333 90.0 L 106.0 89.0 L 107.0 88.33333333333333 L 108.0 87.66666666666667 L 109.0 87.0 L 110.0 86.0 L 111.0 85.0 L 111.66666666666667 84.0 L 112.33333333333333 83.0 L 113.0 82.0 L 113.66666666666667 81.0 L 114.33333333333333 80.0 L 114.66666666666667 79.0 L 115.33333333333333 78.0 L 115.66666666666667 77.0 L 116.0 76.0 L 116.0 75.0 L 116.0 74.0 L 116.0 73.0 L 116.0 72.0 L 116.0 71.0 L 116.0 70.0 L 116.0 69.0 L 116.0 68.0 L 116.0 67.0 L 116.0 66.0 L 116.0 65.0 L 115.66666666666667 64.0 L 115.33333333333333 63.0 L 115.0 62.0 L 115.0 61.0 L 114.66666666666667 60.0 L 114.33333333333333 59.0 L 113.66666666666667 58.0 L 113.33333333333333 57.0 L 112.66666666666667 56.0 L 112.0 55.0 L 111.0 54.0 L 110.0 53.0 L 109.0 52.0 L 108.33333333333333 51.0 L 108.0 50.0 L 108.0 49.0 L 108.0 48.0 L 108.0 47.0 L 108.0 46.0 L 108.0 45.0 L 108.0 44.0 L 108.0 43.0 L 108.0 42.0 L 107.66666666666667 41.0 L 107.33333333333333 40.0 L 106.66666666666667 39.0 L 106.0 38.0 L 105.0 37.0 L 104.0 36.0 L 103.0 35.333333333333336 L 102.0 34.666666666666664 L 101.0 34.0 L 100.0 33.333333333333336 L 99.0 33.0 L 98.0 33.0 L 97.0 33.0 L 96.0 33.0 L 95.0 33.0 L 94.0 33.0 L 93.0 33.0 L 92.0 33.0 L 91.0 32.666666666666664 L 90.0 32.0 L 89.33333333333333 31.0 L 88.66666666666667 30.0 L 88.0 29.0 L 87.0 28.0 L 86.0 27.0 L 85.0 26.333333333333332 L 84.0 26.0 L 83.0 26.0 L 82.0 26.0 L 81.0 26.0 L 80.0 26.0 L 79.0 26.0 L 78.0 26.0 L 77.0 26.333333333333332 L 76.0 26.666666666666668 L 75.0 27.333333333333332 L 74.0 27.666666666666668 L 73.0 27.666666666666668 L 72.0 27.0 L 71.33333333333333 26.0 L 70.66666666666667 25.0 L 70.0 24.0 L 69.0 23.0 L 68.0 22.0 L 67.0 21.333333333333332 L 66.0 21.0 L 65.0 21.0 L 64.0 21.0 L 63.0 21.0 L 62.0 20.666666666666668 L 61.0 20.0 L 60.333333333333336 19.0 L 60.0 18.0 L 59.666666666666664 17.0 L 59.333333333333336 16.0 L 59.0 15.0 L 58.666666666666664 14.0 L 58.0 13.0 L 57.0 12.0 L 56.0 11.0 L 55.0 10.0 L 54.0 9.333333333333334 L 53.0 8.666666666666666 L 52.0 8.333333333333334 L 51.0 8.0 L 50.0 8.0 L 49.0 8.0 L 48.0 8.0 L 47.0 8.0 L 46.0 8.0 L 45.0 8.0 L 44.0 8.0 L 43.0 8.0 L 42.0 8.0 L 41.0 8.0 L 40.0 8.0 L 39.0 8.0 L 38.0 8.333333333333334 L 37.0 8.666666666666666 L 36.0 9.333333333333334 L 35.0 9.666666666666666 L 34.0 10.333333333333334 L 33.0 11.0 L 32.0 12.0 L 31.0 13.0 L 30.0 14.0 L 29.0 15.0 L 28.0 16.0 L 27.0 17.0 L 26.0 17.666666666666668 L 25.0 18.0 L 24.0 18.0 L 23.0 18.0 L 22.0 18.0 L 21.0 18.0 L 20.0 18.0 L 19.0 18.0 L 18.0 18.333333333333332 L 17.0 18.666666666666668 L 16.0 19.333333333333332 L 15.0 20.0 L 14.0 21.0 L 13.333333333333334 22.0 L 12.666666666666666 23.0 L 12.333333333333334 24.0 L 12.0 25.0 L 12.0 26.0 L 12.0 27.0 L 12.0 28.0 L 12.0 29.0 L 12.0 30.0 L 12.0 31.0 L 12.0 32.0 L 12.333333333333334 33.0 L 13.0 34.0 L 14.0 35.0 L 15.0 36.0 L 16.0 36.666666666666664 L 17.0 37.0 L 18.0 37.0 L 19.0 37.0 L 20.0 37.0 L 21.0 37.0 L 22.0 37.0 L 23.0 37.0 L 24.0 36.666666666666664 L 25.0 36.333333333333336 L 26.0 35.666666666666664 L 27.0 35.333333333333336 L 28.0 35.333333333333336 L 29.0 36.0 L 30.0 37.0 L 31.0 38.0 L 32.0 39.0 L 33.0 39.666666666666664 L 34.0 40.333333333333336 L 35.0 40.666666666666664 L 36.0 41.0 L 37.0 41.0 L 38.0 41.333333333333336 L 39.0 41.666666666666664 L 40.0 42.0 L 41.0 42.0 L 42.0 42.0 L 43.0 42.0 L 44.0 42.0 L 45.0 41.666666666666664 L 46.0 41.333333333333336 L 47.0 40.666666666666664 L 48.0 40.333333333333336 L 49.0 39.666666666666664 L 50.0 39.0 L 51.0 38.666666666666664 L 52.0 39.0 L 53.0 39.666666666666664 L 54.0 40.333333333333336 L 55.0 40.666666666666664 L 56.0 41.0 L 57.0 41.0 L 58.0 41.0 L 59.0 41.0 L 60.0 41.0 L 61.0 41.0 L 62.0 41.0 L 63.0 41.0 L 64.0 41.0 L 65.0 40.666666666666664 L 66.0 40.333333333333336 L 67.0 40.333333333333336 L 68.0 40.666666666666664 L 69.0 41.333333333333336 L 70.0 41.666666666666664 L 71.0 42.333333333333336 L 72.0 42.666666666666664 L 73.0 43.0 L 74.0 43.333333333333336 L 75.0 43.666666666666664 L 76.0 44.0 L 77.0 44.333333333333336 L 78.0 45.0 L 78.33333333333333 46.0 L 78.0 47.0 L 77.0 48.0 L 76.0 49.0 L 75.0 50.0 L 74.0 50.666666666666664 L 73.0 51.0 L 72.0 51.0 L 71.0 51.0 L 70.0 51.0 L 69.0 51.0 L 68.0 51.0 L 67.0 51.0 L 66.0 51.333333333333336 L 65.0 51.666666666666664 L 64.0 52.0 L 63.0 52.0 L 62.0 52.0 L 61.0 52.333333333333336 L 60.0 52.666666666666664 L 59.0 53.333333333333336 L 58.0 54.0 L 57.0 55.0 L 56.0 56.0 L 55.333333333333336 57.0 L 55.0 58.0 L 55.0 59.0 L 55.0 60.0 L 55.0 61.0 L 54.666666666666664 62.0 L 54.333333333333336 63.0 L 54.0 64.0 L 54.0 65.0 L 53.666666666666664 66.0 L 53.333333333333336 67.0 L 52.666666666666664 68.0 L 52.0 69.0 L 51.0 70.0 L 50.0 71.0 L 49.0 72.0 L 48.0 73.0 L 47.0 74.0 L 46.0 75.0 L 45.0 76.0 L 44.0 76.66666666666667 L 43.0 77.0 L 42.0 77.0 L 41.0 77.0 L 40.0 77.0 L 39.0 77.0 L 38.0 77.0 L 37.0 77.0 L 36.0 77.0 L 35.0 77.0 L 34.0 77.0 L 33.0 77.0 L 32.0 77.0 L 31.0 77.0 L 30.0 76.66666666666667 L 29.0 76.33333333333333 L 28.0 76.0 L 27.0 75.66666666666667 L 26.0 75.33333333333333 L 25.0 74.66666666666667 L 24.0 74.0 L 23.0 73.0 L 22.0 72.0 L 21.0 71.0 L 20.333333333333332 70.0 L 19.666666666666668 69.0 L 19.0 68.0 L 18.333333333333332 67.0 L 18.0 66.0 L 18.0 65.0 L 18.0 64.0 L 18.0 63.0 L 18.0 62.0 L 18.0 61.0 L 18.0 60.0 L 18.0 59.0 L 18.0 58.0 L 18.333333333333332 57.0 L 18.666666666666668 56.0 L 19.0 55.0 L 19.0 54.0 L 19.0 53.0 L 19.0 52.0 L 19.0 51.0 L 19.0 50.0 L 19.0 49.0 L 18.666666666666668 48.333333333333336 L 18.0 48.0 L 17.0 48.0 L 16.0 48.0 L 15.0 48.0 L 14.0 48.0 L 13.0 48.0 L 12.0 48.0 L 11.0 48.333333333333336 L 10.0 49.0 L 9.333333333333334 50.0 L 9.0 51.0 L 8.666666666666666 52.0 L 8.333333333333334 53.0 L 8.0 54.0 L 8.0 55.0 L 8.0 56.0 L 8.0 57.0 L 8.0 58.0 L 8.0 59.0 L 8.0 60.0 L 8.333333333333334 61.0 L 8.666666666666666 62.0 L 9.333333333333334 63.0 L 10.0 64.0 L 11.0 65.0 L 12.0 66.0 L 13.0 67.0 L 13.666666666666666 68.0 L 14.0 69.0 L 13.666666666666666 70.0 L 13.333333333333334 71.0 L 13.0 72.0 L 12.666666666666666 73.0 L 12.333333333333334 74.0 L 12.0 75.0 L 12.0 76.0 L 12.0 77.0 L 12.0 78.0 L 12.0 79.0 L 12.0 80.0 L 12.0 81.0 L 12.0 82.0 L 12.0 83.0 L 12.333333333333334 84.0 L 12.666666666666666 85.0 L 13.333333333333334 86.0 L 14.0 87.0 L 15.0 88.0 L 16.0 89.0 L 17.0 90.0 L 18.0 91.0 L 19.0 91.66666666666667 L 20.0 92.0 L 21.0 92.33333333333333 L 22.0 92.66666666666667 L 23.0 93.0 L 24.0 93.0 L 25.0 93.0 L 26.0 93.33333333333333 L 27.0 93.66666666666667 L 28.0 94.33333333333333 L 29.0 95.0 L 29.666666666666668 96.0 L 30.333333333333332 97.0 L 30.666666666666668 98.0 L 31.333333333333332 99.0 L 32.0 100.0 L 33.0 101.0 L 34.0 102.0 L 35.0 103.0 L 36.0 104.0 L 37.0 105.0 L 38.0 105.66666666666667 L 39.0 106.0 L 40.0 106.33333333333333 L 41.0 106.66666666666667 L 41.5 107.0 Z" stroke="none" fill="rgb(255,255,255)" />
<path d="M 55.0 62.5 L 55.0 62.0 L 55.0 61.0 L 55.0 60.0 L 55.0 59.0 L 55.333333333333336 58.0 L 56.0 57.0 L 57.0 56.0 L 58.0 55.0 L 59.0 54.0 L 60.0 53.333333333333336 L 61.0 52.666666666666664 L 62.0 52.333333333333336 L 63.0 52.0 L 64.0 52.0 L 65.0 52.0 L 66.0 51.666666666666664 L 67.0 51.333333333333336 L 68.0 51.0 L 69.0 51.0 L 70.0 51.0 L 71.0 51.0 L 72.0 51.0 L 73.0 51.0 L 74.0 51.0 L 75.0 50.666666666666664 L 76.0 50.0 L 77.0 49.0 L 78.0 48.0 L 78.66666666666667 47.0 L 79.0 46.0 L 78.66666666666667 45.0 L 78.0 44.333333333333336 L 77.0 44.0 L 76.0 43.666666666666664 L 75.0 43.333333333333336 L 74.0 43.0 L 73.0 42.666666666666664 L 72.0 42.333333333333336 L 71.0 41.666666666666664 L 70.0 41.333333333333336 L 69.0 40.666666666666664 L 68.0 40.333333333333336 L 67.0 40.0 L 66.0 40.0 L 65.0 40.333333333333336 L 64.0 40.666666666666664 L 63.0 41.0 L 62.0 41.0 L 61.0 41.0 L 60.0 41.0 L 59.0 41.0 L 58.0 41.0 L 57.0 41.0 L 56.0 40.666666666666664 L 55.0 40.333333333333336 L 54.0 39.666666666666664 L 53.0 39.0 L 52.0 38.333333333333336 L 51.0 38.0 L 50.0 38.333333333333336 L 49.0 39.0 L 48.0 39.666666666666664 L 47.0 40.333333333333336 L 46.0 40.666666666666664 L 45.0 41.333333333333336 L 44.0 41.666666666666664 L 43.0 42.0 L 42.0 42.0 L 41.0 42.0 L 40.0 41.666666666666664 L 39.0 41.333333333333336 L 38.0 41.0 L 37.0 41.0 L 36.0 40.666666666666664 L 35.0 40.333333333333336 L 34.0 39.666666666666664 L 33.0 39.0 L 32.0 38.0 L 31.0 37.0 L 30.0 36.0 L 29.0 35.333333333333336 L 28.0 35.0 L 27.0 35.0 L 26.0 35.333333333333336 L 25.0 35.666666666666664 L 24.0 36.333333333333336 L 23.0 36.666666666666664 L 22.0 37.0 L 21.0 37.0 L 20.0 37.0 L 19.0 37.0 L 18.0 37.0 L 17.0 37.0 L 16.0 37.333333333333336 L 15.0 37.666666666666664 L 14.0 37.666666666666664 L 13.0 37.333333333333336 L 12.0 37.0 L 11.0 37.0 L 10.0 37.0 L 9.0 37.0 L 8.0 37.0 L 7.0 37.0 L 6.0 37.0 L 5.0 37.0 L 4.0 37.0 L 3.3333333333333335 37.333333333333336 L 3.0 38.0 L 3.0 39.0 L 3.3333333333333335 40.0 L 3.6666666666666665 41.0 L 4.333333333333333 42.0 L 4.666666666666667 43.0 L 5.333333333333333 44.0 L 6.0 44.666666666666664 L 7.0 45.333333333333336 L 8.0 45.666666666666664 L 9.0 46.333333333333336 L 10.0 47.0 L 11.0 47.666666666666664 L 12.0 48.0 L 13.0 48.0 L 14.0 48.0 L 15.0 48.0 L 16.0 48.0 L 17.0 48.0 L 18.0 48.333333333333336 L 18.666666666666668 49.0 L 19.0 50.0 L 19.0 51.0 L 19.0 52.0 L 19.0 53.0 L 19.0 54.0 L 18.666666666666668 55.0 L 18.333333333333332 56.0 L 18.0 57.0 L 18.0 58.0 L 18.0 59.0 L 18.0 60.0 L 18.0 61.0 L 18.0 62.0 L 18.0 63.0 L 18.0 64.0 L 18.0 65.0 L 18.0 66.0 L 18.0 67.0 L 18.333333333333332 68.0 L 19.0 69.0 L 19.666666666666668 70.0 L 20.333333333333332 71.0 L 21.0 72.0 L 22.0 73.0 L 23.0 74.0 L 24.0 74.66666666666667 L 25.0 75.33333333333333 L 26.0 75.66666666666667 L 27.0 76.0 L 28.0 76.33333333333333 L 29.0 76.66666666666667 L 30.0 77.0 L 31.0 77.0 L 32.0 77.0 L 33.0 77.0 L 34.0 77.0 L 35.0 77.0 L 36.0 77.0 L 37.0 77.0 L 38.0 77.0 L 39.0 77.0 L 40.0 77.0 L 41.0 77.0 L 42.0 77.0 L 43.0 77.0 L 44.0 77.0 L 45.0 76.66666666666667 L 46.0 76.0 L 47.0 75.0 L 48.0 74.0 L 49.0 73.0 L 50.0 72.0 L 51.0 71.0 L 52.0 70.0 L 52.666666666666664 69.0 L 53.333333333333336 68.0 L 53.666666666666664 67.0 L 54.0 66.0 L 54.0 65.0 L 54.333333333333336 64.0 L 54.5 63.5 Z" stroke="none" fill="rgb(177,177,177)" />
<path d="M 95.5 115.5 L 96.0 115.66666666666667 L 97.0 116.0 L 98.0 116.0 L 99.0 116.0 L 100.0 116.0 L 101.0 116.0 L 102.0 116.0 L 103.0 116.0 L 104.0 115.66666666666667 L 105.0 115.33333333333333 L 105.66666666666667 114.66666666666667 L 106.33333333333333 114.0 L 106.66666666666667 113.0 L 107.0 112.0 L 107.0 111.0 L 107.0 110.0 L 107.0 109.0 L 107.0 108.0 L 107.0 107.0 L 107.0 106.0 L 107.0 105.0 L 107.33333333333333 104.0 L 107.66666666666667 103.0 L 108.0 102.0 L 108.0 101.0 L 108.0 100.0 L 108.0 99.0 L 108.0 98.0 L 108.0 97.0 L 108.0 96.0 L 107.66666666666667 95.33333333333333 L 107.0 95.0 L 106.0 95.33333333333333 L 105.0 96.0 L 104.0 97.0 L 103.0 98.0 L 102.0 99.0 L 101.0 100.0 L 100.0 101.0 L 99.0 102.0 L 98.0 102.66666666666667 L 97.0 103.33333333333333 L 96.0 103.66666666666667 L 95.0 104.0 L 94.0 104.0 L 93.0 104.0 L 92.33333333333333 104.33333333333333 L 92.0 105.0 L 92.0 106.0 L 92.0 107.0 L 92.0 108.0 L 92.0 109.0 L 92.0 110.0 L 92.0 111.0 L 92.0 112.0 L 92.33333333333333 113.0 L 93.0 114.0 L 94.0 114.66666666666667 L 94.5 115.0 Z" stroke="none" fill="rgb(177,177,177)" />
<path d="M 56.5 124.0 L 57.0 124.0 L 58.0 124.0 L 59.0 124.0 L 60.0 123.66666666666667 L 61.0 123.0 L 61.666666666666664 122.0 L 62.0 121.0 L 62.0 120.0 L 62.333333333333336 119.0 L 62.666666666666664 118.0 L 63.0 117.0 L 63.0 116.0 L 63.0 115.0 L 63.0 114.0 L 63.0 113.0 L 63.0 112.0 L 62.666666666666664 111.0 L 62.0 110.0 L 61.0 109.33333333333333 L 60.0 109.0 L 59.0 109.33333333333333 L 58.0 109.66666666666667 L 57.0 110.33333333333333 L 56.0 110.66666666666667 L 55.0 111.0 L 54.0 111.0 L 53.0 111.33333333333333 L 52.0 111.66666666666667 L 51.0 112.0 L 50.0 112.0 L 49.333333333333336 112.33333333333333 L 49.0 113.0 L 49.0 114.0 L 49.0 115.0 L 49.0 116.0 L 49.0 117.0 L 49.0 118.0 L 49.0 119.0 L 49.0 120.0 L 49.333333333333336 121.0 L 50.0 122.0 L 51.0 123.0 L 52.0 123.66666666666667 L 53.0 124.0 L 54.0 124.0 L 55.0 124.0 L 55.5 124.0 Z" stroke="none" fill="rgb(177,177,177)" />
<path d="M 40.5 118.5 L 40.666666666666664 118.0 L 41.0 117.0 L 41.333333333333336 116.0 L 41.666666666666664 115.0 L 42.0 114.0 L 42.0 113.0 L 42.0 112.0 L 41.666666666666664 111.0 L 41.0 110.0 L 40.0 109.33333333333333 L 39.0 109.0 L 38.0 108.66666666666667 L 37.0 108.33333333333333 L 36.0 107.66666666666667 L 35.0 107.33333333333333 L 34.0 106.66666666666667 L 33.0 106.0 L 32.0 105.0 L 31.0 104.0 L 30.0 103.33333333333333 L 29.0 103.0 L 28.333333333333332 103.33333333333333 L 28.0 104.0 L 28.0 105.0 L 28.0 106.0 L 28.0 107.0 L 28.0 108.0 L 28.0 109.0 L 28.0 110.0 L 28.333333333333332 111.0 L 28.666666666666668 112.0 L 29.0 113.0 L 29.0 114.0 L 29.0 115.0 L 29.333333333333332 116.0 L 29.666666666666668 117.0 L 30.333333333333332 118.0 L 31.0 118.66666666666667 L 32.0 119.0 L 33.0 119.0 L 34.0 119.0 L 35.0 119.0 L 36.0 119.0 L 37.0 119.0 L 38.0 119.0 L 39.0 119.0 L 39.5 119.0 Z" stroke="none" fill="rgb(177,177,177)" />
<path d="M 121.5 64.5 L 122.0 64.0 L 122.66666666666667 63.0 L 123.33333333333333 62.0 L 123.66666666666667 61.0 L 124.0 60.0 L 124.0 59.0 L 124.0 58.0 L 124.0 57.0 L 124.0 56.0 L 124.0 55.0 L 124.0 54.0 L 123.66666666666667 53.0 L 123.0 52.333333333333336 L 122.0 51.666666666666664 L 121.0 51.333333333333336 L 120.0 51.0 L 119.0 50.666666666666664 L 118.0 50.0 L 117.0 49.0 L 116.0 48.0 L 115.0 47.0 L 114.0 46.333333333333336 L 113.0 46.0 L 112.33333333333333 46.333333333333336 L 112.0 47.0 L 112.0 48.0 L 112.0 49.0 L 112.0 50.0 L 112.0 51.0 L 112.33333333333333 52.0 L 113.0 53.0 L 114.0 54.0 L 114.66666666666667 55.0 L 115.33333333333333 56.0 L 115.66666666666667 57.0 L 116.33333333333333 58.0 L 116.66666666666667 59.0 L 117.33333333333333 60.0 L 117.66666666666667 61.0 L 118.0 62.0 L 118.0 63.0 L 118.33333333333333 64.0 L 119.0 64.66666666666667 L 120.0 65.0 L 120.5 65.0 Z" stroke="none" fill="rgb(177,177,177)" />
<path d="M 36.5 72.0 L 37.0 72.0 L 38.0 71.66666666666667 L 38.666666666666664 71.0 L 39.0 70.0 L 39.0 69.0 L 38.666666666666664 68.33333333333333 L 38.0 68.0 L 37.0 68.0 L 36.0 68.0 L 35.0 67.66666666666667 L 34.333333333333336 67.0 L 34.333333333333336 66.0 L 35.0 65.33333333333333 L 36.0 64.66666666666667 L 37.0 64.0 L 37.666666666666664 63.0 L 38.0 62.0 L 38.0 61.0 L 37.666666666666664 60.333333333333336 L 37.0 60.0 L 36.0 60.0 L 35.0 60.333333333333336 L 34.0 60.666666666666664 L 33.0 61.0 L 32.0 61.0 L 31.0 60.666666666666664 L 30.0 60.0 L 29.0 59.333333333333336 L 28.0 59.0 L 27.0 59.0 L 26.333333333333332 59.333333333333336 L 26.0 60.0 L 26.333333333333332 61.0 L 27.0 62.0 L 28.0 63.0 L 29.0 64.0 L 29.666666666666668 65.0 L 29.666666666666668 66.0 L 29.0 67.0 L 28.0 67.66666666666667 L 27.0 68.0 L 26.333333333333332 68.33333333333333 L 26.0 69.0 L 26.333333333333332 69.66666666666667 L 27.0 70.0 L 28.0 70.0 L 29.0 70.0 L 30.0 70.33333333333333 L 31.0 70.66666666666667 L 32.0 71.33333333333333 L 33.0 71.66666666666667 L 34.0 72.0 L 35.0 72.0 L 35.5 72.0 Z" stroke="none" fill="rgb(43,43,43)" />
<path d="M 87.5 112.5 L 87.66666666666667 112.0 L 88.0 111.0 L 88.0 110.0 L 88.0 109.0 L 88.0 108.0 L 88.0 107.0 L 88.0 106.0 L 87.66666666666667 105.0 L 87.0 104.33333333333333 L 86.0 104.0 L 85.0 104.0 L 84.0 104.0 L 83.0 104.0 L 82.0 104.0 L 81.0 104.33333333333333 L 80.0 105.0 L 79.0 106.0 L 78.0 107.0 L 77.0 108.0 L 76.0 109.0 L 75.0 110.0 L 74.33333333333333 111.0 L 74.0 112.0 L 74.33333333333333 112.66666666666667 L 75.0 113.33333333333333 L 76.0 113.66666666666667 L 77.0 114.0 L 78.0 114.0 L 79.0 114.0 L 80.0 114.0 L 81.0 114.0 L 82.0 114.0 L 83.0 114.0 L 84.0 114.0 L 85.0 113.66666666666667 L 86.0 113.33333333333333 L 86.5 113.0 Z" stroke="none" fill="rgb(177,177,177)" />
<path d="M 49.5 51.0 L 50.0 51.0 L 51.0 51.0 L 52.0 50.666666666666664 L 52.666666666666664 50.0 L 53.0 49.0 L 53.0 48.0 L 53.0 47.0 L 53.0 46.0 L 52.666666666666664 45.0 L 52.0 44.0 L 51.0 43.333333333333336 L 50.0 43.0 L 49.0 43.333333333333336 L 48.0 43.666666666666664 L 47.0 44.333333333333336 L 46.333333333333336 45.0 L 46.0 46.0 L 46.0 47.0 L 46.0 48.0 L 46.0 49.0 L 46.333333333333336 50.0 L 47.0 50.666666666666664 L 48.0 51.0 L 48.5 51.0 Z" stroke="none" fill="rgb(43,43,43)" />
<path d="M 24.5 47.0 L 25.0 47.0 L 26.0 47.0 L 27.0 47.0 L 28.0 47.0 L 28.666666666666668 46.666666666666664 L 29.333333333333332 46.0 L 29.666666666666668 45.0 L 30.0 44.0 L 30.0 43.0 L 29.666666666666668 42.0 L 29.0 41.0 L 28.0 40.333333333333336 L 27.0 40.0 L 26.0 40.0 L 25.0 40.333333333333336 L 24.0 41.0 L 23.333333333333332 42.0 L 23.0 43.0 L 23.0 44.0 L 23.0 45.0 L 23.333333333333332 46.0 L 23.5 46.5 Z" stroke="none" fill="rgb(43,43,43)" />
<path d="M 29.0 102.5 L 29.0 102.0 L 29.0 101.0 L 28.666666666666668 100.0 L 28.0 99.33333333333333 L 27.333333333333332 99.33333333333333 L 27.0 100.0 L 27.333333333333332 101.0 L 27.666666666666668 102.0 L 28.333333333333332 102.66666666666667 L 28.5 103.0 Z" stroke="none" fill="rgb(0,0,0)" />
<path d="M 113.0 44.5 L 112.66666666666667 44.333333333333336 L 112.33333333333333 44.333333333333336 L 112.33333333333333 44.666666666666664 L 112.5 45.0 Z" stroke="none" fill="rgb(0,0,0)" />
</svg>
