<?xml version="1.0" encoding="UTF-8" standalone="no"?>
<!DOCTYPE svg PUBLIC "-//W3C//DTD SVG 1.1//EN"
"http://www.w3.org/Graphics/SVG/1.1/DTD/svg11.dtd">
<svg width="128" height="128" xmlns="http://www.w3.org/2000/svg" version="1.1">
<path d="M 88.5 128.0 L 89.0 128.0 L 90.0 128.0 L 91.0 128.0 L 92.0 128.0 L 93.0 128.0 L 94.0 128.0 L 95.0 128.0 L 96.0 128.0 L 97.0 128.0 L 98.0 128.0 L 99.0 128.0 L 100.0 128.0 L 101.0 128.0 L 102.0 128.0 L 103.0 128.0 L 104.0 128.0 L 105.0 128.0 L 106.0 128.0 L 107.0 128.0 L 108.0 128.0 L 109.0 128.0 L 110.0 128.0 L 111.0 128.0 L 112.0 128.0 L 113.0 128.0 L 114.0 128.0 L 115.0 128.0 L 116.0 128.0 L 117.0 128.0 L 118.0 128.0 L 119.0 128.0 L 120.0 128.0 L 121.0 128.0 L 122.0 128.0 L 123.0 128.0 L 124.0 128.0 L 125.0 128.0 L 126.0 128.0 L 127.0 128.0 L 127.66666666666667 127.66666666666667 L 128.0 127.0 L 128.0 126.0 L 128.0 125.0 L 128.0 124.0 L 128.0 123.0 L 128.0 122.0 L 128.0 121.0 L 128.0 120.0 L 128.0 119.0 L 128.0 118.0 L 128.0 117.0 L 128.0 116.0 L 128.0 115.0 L 128.0 114.0 L 128.0 113.0 L 128.0 112.0 L 128.0 111.0 L 128.0 110.0 L 128.0 109.0 L 128.0 108.0 L 128.0 107.0 L 128.0 106.0 L 128.0 105.0 L 128.0 104.0 L 128.0 103.0 L 128.0 102.0 L 128.0 101.0 L 128.0 100.0 L 128.0 99.0 L 128.0 98.0 L 128.0 97.0 L 128.0 96.0 L 128.0 95.0 L 128.0 94.0 L 128.0 93.0 L 128.0 92.0 L 128.0 91.0 L 128.0 90.0 L 128.0 89.0 L 128.0 88.0 L 128.0 87.0 L 128.0 86.0 L 128.0 85.0 L 128.0 84.0 L 128.0 83.0 L 128.0 82.0 L 128.0 81.0 L 128.0 80.0 L 128.0 79.0 L 128.0 78.0 L 128.0 77.0 L 128.0 76.0 L 128.0 75.0 L 128.0 74.0 L 128.0 73.0 L 128.0 72.0 L 128.0 71.0 L 128.0 70.0 L 128.0 69.0 L 128.0 68.0 L 128.0 67.0 L 128.0 66.0 L 128.0 65.0 L 128.0 64.0 L 128.0 63.0 L 128.0 62.0 L 128.0 61.0 L 128.0 60.0 L 128.0 59.0 L 128.0 58.0 L 128.0 57.0 L 128.0 56.0 L 128.0 55.0 L 128.0 54.0 L 128.0 53.0 L 128.0 52.0 L 128.0 51.0 L 128.0 50.0 L 128.0 49.0 L 128.0 48.0 L 128.0 47.0 L 128.0 46.0 L 128.0 45.0 L 128.0 44.0 L 128.0 43.0 L 128.0 42.0 L 128.0 41.0 L 128.0 40.0 L 128.0 39.0 L 128.0 38.0 L 128.0 37.0 L 128.0 36.0 L 128.0 35.0 L 128.0 34.0 L 128.0 33.0 L 128.0 32.0 L 128.0 31.0 L 128.0 30.0 L 128.0 29.0 L 128.0 28.0 L 128.0 27.0 L 128.0 26.0 L 128.0 25.0 L 128.0 24.0 L 128.0 23.0 L 128.0 22.0 L 128.0 21.0 L 128.0 20.0 L 128.0 19.0 L 128.0 18.0 L 128.0 17.0 L 128.0 16.0 L 128.0 15.0 L 128.0 14.0 L 128.0 13.0 L 128.0 12.0 L 128.0 11.0 L 128.0 10.0 L 128.0 9.0 L 128.0 8.0 L 128.0 7.0 L 128.0 6.0 L 128.0 5.0 L 128.0 4.0 L 128.0 3.0 L 128.0 2.0 L 128.0 1.0 L 127.66666666666667 0.3333333333333333 L 127.0 0.0 L 126.0 0.0 L 125.0 0.0 L 124.0 0.0 L 123.0 0.0 L 122.0 0.0 L 121.0 0.0 L 120.0 0.0 L 119.0 0.0 L 118.0 0.0 L 117.0 0.0 L 116.0 0.0 L 115.0 0.0 L 114.0 0.0 L 113.0 0.0 L 112.0 0.0 L 111.0 0.0 L 110.0 0.0 L 109.0 0.0 L 108.0 0.0 L 107.0 0.0 L 106.0 0.0 L 105.0 0.0 L 104.0 0.0 L 103.0 0.0 L 102.0 0.0 L 101.0 0.0 L 100.0 0.0 L 99.0 0.0 L 98.0 0.0 L 97.0 0.0 L 96.0 0.0 L 95.0 0.0 L 94.0 0.0 L 93.0 0.0 L 92.0 0.0 L 91.0 0.0 L 90.0 0.0 L 89.0 0.0 L 88.0 0.0 L 87.0 0.0 L 86.0 0.0 L 85.0 0.0 L 84.0 0.0 L 83.0 0.0 L 82.0 0.0 L 81.0 0.0 L 80.0 0.0 L 79.0 0.0 L 78.0 0.0 L 77.0 0.0 L 76.0 0.0 L 75.0 0.0 L 74.0 0.0 L 73.0 0.0 L 72.0 0.0 L 71.0 0.0 L 70.0 0.0 L 69.0 0.0 L 68.0 0.0 L 67.0 0.0 L 66.0 0.0 L 65.0 0.0 L 64.0 0.0 L 63.0 0.0 L 62.0 0.0 L 61.0 0.0 L 60.0 0.0 L 59.0 0.0 L 58.0 0.0 L 57.0 0.0 L 56.0 0.0 L 55.0 0.0 L 54.0 0.0 L 53.0 0.0 L 52.0 0.0 L 51.0 0.0 L 50.0 0.0 L 49.0 0.0 L 48.0 0.0 L 47.0 0.0 L 46.0 0.0 L 45.0 0.0 L 44.0 0.0 L 43.0 0.0 L 42.0 0.0 L 41.0 0.0 L 40.0 0.0 L 39.0 0.0 L 38.0 0.0 L 37.0 0.0 L 36.0 0.0 L 35.0 0.0 L 34.0 0.0 L 33.0 0.0 L 32.0 0.0 L 31.0 0.0 L 30.0 0.0 L 29.0 0.0 L 28.0 0.0 L 27.0 0.0 L 26.0 0.0 L 25.0 0.0 L 24.0 0.0 L 23.0 0.0 L 22.0 0.0 L 21.0 0.0 L 20.0 0.0 L 19.0 0.0 L 18.0 0.0 L 17.0 0.0 L 16.0 0.0 L 15.0 0.0 L 14.0 0.0 L 13.0 0.0 L 12.0 0.0 L 11.0 0.0 L 10.0 0.0 L 9.0 0.0 L 8.0 0.0 L 7.0 0.0 L 6.0 0.0 L 5.0 0.0 L 4.0 0.0 L 3.0 0.0 L 2.0 0.0 L 1.0 0.0 L 0.3333333333333333 0.3333333333333333 L 0.0 1.0 L 0.0 2.0 L 0.0 3.0 L 0.0 4.0 L 0.0 5.0 L 0.0 6.0 L 0.0 7.0 L 0.0 8.0 L 0.0 9.0 L 0.0 10.0 L 0.0 11.0 L 0.0 12.0 L 0.0 13.0 L 0.0 14.0 L 0.0 15.0 L 0.0 16.0 L 0.0 17.0 L 0.0 18.0 L 0.0 19.0 L 0.0 20.0 L 0.0 21.0 L 0.0 22.0 L 0.0 23.0 L 0.0 24.0 L 0.0 25.0 L 0.0 26.0 L 0.0 27.0 L 0.0 28.0 L 0.0 29.0 L 0.0 30.0 L 0.0 31.0 L 0.0 32.0 L 0.0 33.0 L 0.0 34.0 L 0.0 35.0 L 0.0 36.0 L 0.0 37.0 L 0.0 38.0 L 0.0 39.0 L 0.0 40.0 L 0.0 41.0 L 0.0 42.0 L 0.0 43.0 L 0.0 44.0 L 0.0 45.0 L 0.0 46.0 L 0.0 47.0 L 0.0 48.0 L 0.0 49.0 L 0.0 50.0 L 0.0 51.0 L 0.0 52.0 L 0.0 53.0 L 0.0 54.0 L 0.0 55.0 L 0.0 56.0 L 0.0 57.0 L 0.0 58.0 L 0.0 59.0 L 0.0 60.0 L 0.0 61.0 L 0.0 62.0 L 0.0 63.0 L 0.0 64.0 L 0.0 65.0 L 0.0 66.0 L 0.0 67.0 L 0.0 68.0 L 0.0 69.0 L 0.0 70.0 L 0.0 71.0 L 0.0 72.0 L 0.0 73.0 L 0.0 74.0 L 0.0 75.0 L 0.0 76.0 L 0.0 77.0 L 0.0 78.0 L 0.0 79.0 L 0.0 80.0 L 0.0 81.0 L 0.0 82.0 L 0.0 83.0 L 0.0 84.0 L 0.0 85.0 L 0.0 86.0 L 0.0 87.0 L 0.0 88.0 L 0.0 89.0 L 0.0 90.0 L 0.0 91.0 L 0.0 92.0 L 0.0 93.0 L 0.0 94.0 L 0.0 95.0 L 0.0 96.0 L 0.0 97.0 L 0.0 98.0 L 0.0 99.0 L 0.0 100.0 L 0.0 101.0 L 0.0 102.0 L 0.0 103.0 L 0.0 104.0 L 0.0 105.0 L 0.0 106.0 L 0.0 107.0 L 0.0 108.0 L 0.0 109.0 L 0.0 110.0 L 0.0 111.0 L 0.0 112.0 L 0.0 113.0 L 0.0 114.0 L 0.0 115.0 L 0.0 116.0 L 0.0 117.0 L 0.0 118.0 L 0.0 119.0 L 0.0 120.0 L 0.0 121.0 L 0.0 122.0 L 0.0 123.0 L 0.0 124.0 L 0.0 125.0 L 0.0 126.0 L 0.0 127.0 L 0.3333333333333333 127.66666666666667 L 1.0 128.0 L 2.0 128.0 L 3.0 128.0 L 4.0 128.0 L 5.0 128.0 L 6.0 128.0 L 7.0 128.0 L 8.0 128.0 L 9.0 128.0 L 10.0 128.0 L 11.0 128.0 L 12.0 128.0 L 13.0 128.0 L 14.0 128.0 L 15.0 128.0 L 16.0 128.0 L 17.0 128.0 L 18.0 128.0 L 19.0 128.0 L 20.0 128.0 L 21.0 128.0 L 22.0 128.0 L 23.0 128.0 L 24.0 128.0 L 25.0 128.0 L 26.0 128.0 L 27.0 128.0 L 28.0 128.0 L 29.0 128.0 L 30.0 128.0 L 31.0 128.0 L 32.0 128.0 L 33.0 128.0 L 34.0 128.0 L 35.0 128.0 L 36.0 128.0 L 37.0 128.0 L 38.0 128.0 L 39.0 128.0 L 40.0 128.0 L 41.0 128.0 L 42.0 128.0 L 43.0 128.0 L 44.0 128.0 L 45.0 128.0 L 46.0 128.0 L 47.0 128.0 L 48.0 128.0 L 49.0 128.0 L 50.0 128.0 L 51.0 128.0 L 52.0 128.0 L 53.0 128.0 L 54.0 128.0 L 55.0 128.0 L 56.0 128.0 L 57.0 128.0 L 58.0 128.0 L 59.0 128.0 L 60.0 128.0 L 61.0 128.0 L 62.0 128.0 L 63.0 128.0 L 64.0 128.0 L 65.0 128.0 L 66.0 128.0 L 67.0 128.0 L 68.0 128.0 L 69.0 128.0 L 70.0 128.0 L 71.0 128.0 L 72.0 128.0 L 73.0 128.0 L 74.0 128.0 L 75.0 128.0 L 76.0 128.0 L 77.0 128.0 L 78.0 128.0 L 79.0 128.0 L 80.0 128.0 L 81.0 128.0 L 82.0 128.0 L 83.0 128.0 L 84.0 128.0 L 85.0 128.0 L 86.0 128.0 L 87.0 128.0 L 87.5 128.0 Z" stroke="none" fill="rgb(0,0,0)" />
<path d="M 39.5 21.0 L 40.0 21.0 L 41.0 21.0 L 42.0 21.0 L 43.0 21.0 L 44.0 21.0 L 45.0 21.0 L 46.0 21.0 L 47.0 21.333333333333332 L 48.0 21.666666666666668 L 49.0 22.0 L 50.0 22.0 L 51.0 22.0 L 52.0 22.0 L 52.666666666666664 21.666666666666668 L 53.333333333333336 21.0 L 54.0 20.333333333333332 L 54.666666666666664 19.666666666666668 L 55.333333333333336 19.0 L 56.0 18.333333333333332 L 57.0 17.666666666666668 L 58.0 17.333333333333332 L 59.0 16.666666666666668 L 60.0 16.0 L 61.0 15.333333333333334 L 62.0 14.666666666666666 L 63.0 14.333333333333334 L 64.0 13.666666666666666 L 65.0 13.333333333333334 L 66.0 12.666666666666666 L 67.0 12.333333333333334 L 68.0 11.666666666666666 L 69.0 11.0 L 69.66666666666667 10.0 L 69.66666666666667 9.0 L 69.0 8.0 L 68.0 7.333333333333333 L 67.0 6.666666666666667 L 66.0 6.333333333333333 L 65.0 5.666666666666667 L 64.0 5.333333333333333 L 63.0 5.0 L 62.0 4.666666666666667 L 61.0 4.333333333333333 L 60.0 4.0 L 59.0 4.0 L 58.0 4.0 L 57.0 4.0 L 56.0 4.0 L 55.0 4.0 L 54.0 4.0 L 53.0 4.0 L 52.0 4.333333333333333 L 51.0 4.666666666666667 L 50.0 5.0 L 49.0 5.333333333333333 L 48.0 5.666666666666667 L 47.0 6.333333333333333 L 46.0 6.666666666666667 L 45.0 7.333333333333333 L 44.0 8.0 L 43.0 9.0 L 42.333333333333336 10.0 L 41.666666666666664 11.0 L 41.333333333333336 12.0 L 40.666666666666664 13.0 L 40.0 14.0 L 39.0 15.0 L 38.0 16.0 L 37.333333333333336 17.0 L 37.0 18.0 L 37.0 19.0 L 37.333333333333336 19.666666666666668 L 38.0 20.333333333333332 L 38.5 20.5 Z" stroke="none" fill="rgb(238,82,79)" />
<path d="M 72.5 17.5 L 72.66666666666667 17.0 L 73.0 16.0 L 73.0 15.0 L 73.0 14.0 L 72.66666666666667 13.0 L 72.33333333333333 12.0 L 71.66666666666667 11.0 L 71.0 10.333333333333334 L 70.0 10.0 L 69.0 10.333333333333334 L 68.0 11.0 L 67.0 11.666666666666666 L 66.0 12.333333333333334 L 65.0 12.666666666666666 L 64.0 13.333333333333334 L 63.0 13.666666666666666 L 62.0 14.333333333333334 L 61.0 14.666666666666666 L 60.0 15.333333333333334 L 59.0 16.0 L 58.0 16.666666666666668 L 57.0 17.333333333333332 L 56.0 17.666666666666668 L 55.333333333333336 18.333333333333332 L 55.0 19.0 L 55.333333333333336 20.0 L 56.0 20.666666666666668 L 57.0 20.666666666666668 L 58.0 20.666666666666668 L 59.0 21.0 L 60.0 22.0 L 61.0 22.666666666666668 L 62.0 23.0 L 63.0 23.0 L 64.0 23.0 L 64.66666666666667 22.666666666666668 L 65.33333333333333 22.0 L 66.0 21.0 L 67.0 20.333333333333332 L 68.0 19.666666666666668 L 69.0 19.333333333333332 L 70.0 18.666666666666668 L 71.0 18.333333333333332 L 71.5 18.0 Z" stroke="none" fill="rgb(234,72,69)" />
<path d="M 88.5 25.0 L 89.0 25.0 L 90.0 24.666666666666668 L 91.0 24.333333333333332 L 92.0 24.0 L 93.0 24.0 L 94.0 24.0 L 95.0 24.0 L 96.0 24.0 L 97.0 24.0 L 98.0 24.0 L 99.0 24.0 L 100.0 24.0 L 101.0 24.0 L 101.66666666666667 23.666666666666668 L 102.0 23.0 L 101.66666666666667 22.0 L 101.0 21.0 L 100.0 20.0 L 99.0 19.0 L 98.0 18.333333333333332 L 97.0 17.666666666666668 L 96.0 17.0 L 95.0 16.0 L 94.0 15.333333333333334 L 93.0 14.666666666666666 L 92.0 14.333333333333334 L 91.0 14.0 L 90.0 14.0 L 89.0 14.0 L 88.0 14.0 L 87.0 14.333333333333334 L 86.0 14.666666666666666 L 85.0 15.0 L 84.0 15.0 L 83.0 15.0 L 82.0 15.0 L 81.0 15.333333333333334 L 80.0 15.666666666666666 L 79.0 16.0 L 78.0 16.333333333333332 L 77.0 16.666666666666668 L 76.0 17.333333333333332 L 75.0 17.666666666666668 L 74.0 18.333333333333332 L 73.33333333333333 19.0 L 72.66666666666667 20.0 L 72.0 21.0 L 71.0 22.0 L 70.33333333333333 23.0 L 70.0 24.0 L 69.66666666666667 25.0 L 69.0 26.0 L 68.0 27.0 L 67.0 28.0 L 66.0 29.0 L 65.0 30.0 L 64.0 30.666666666666668 L 63.0 31.333333333333332 L 62.0 32.0 L 61.0 32.666666666666664 L 60.0 33.0 L 59.0 33.0 L 58.0 33.0 L 57.0 33.333333333333336 L 56.0 33.666666666666664 L 55.0 34.0 L 54.0 34.0 L 53.0 34.0 L 52.0 34.0 L 51.0 34.0 L 50.0 34.0 L 49.0 34.0 L 48.0 34.0 L 47.0 33.666666666666664 L 46.0 33.0 L 45.0 32.333333333333336 L 44.0 32.0 L 43.0 32.333333333333336 L 42.333333333333336 33.0 L 42.0 34.0 L 42.333333333333336 35.0 L 43.0 36.0 L 44.0 37.0 L 45.0 38.0 L 46.0 38.666666666666664 L 47.0 39.333333333333336 L 48.0 39.666666666666664 L 49.0 40.333333333333336 L 50.0 40.666666666666664 L 51.0 41.0 L 52.0 41.333333333333336 L 53.0 41.666666666666664 L 54.0 42.0 L 55.0 42.0 L 56.0 42.0 L 57.0 42.0 L 58.0 42.0 L 59.0 42.0 L 60.0 42.0 L 61.0 42.0 L 62.0 42.0 L 63.0 42.0 L 64.0 41.666666666666664 L 65.0 41.333333333333336 L 66.0 40.666666666666664 L 67.0 40.0 L 68.0 39.333333333333336 L 69.0 38.666666666666664 L 70.0 38.0 L 71.0 37.0 L 72.0 36.0 L 73.0 35.333333333333336 L 73.66666666666667 34.666666666666664 L 74.0 34.0 L 74.33333333333333 33.0 L 75.0 32.0 L 76.0 31.0 L 77.0 30.0 L 78.0 29.0 L 79.0 28.333333333333332 L 80.0 27.666666666666668 L 81.0 27.0 L 82.0 26.333333333333332 L 83.0 26.0 L 84.0 25.666666666666668 L 85.0 25.333333333333332 L 86.0 25.0 L 87.0 25.0 L 87.5 25.0 Z" stroke="none" fill="rgb(3,155,229)" />
<path d="M 72.5 21.5 L 72.66666666666667 21.0 L 73.33333333333333 20.0 L 73.66666666666667 19.0 L 74.0 18.0 L 73.66666666666667 17.333333333333332 L 73.0 17.0 L 72.0 17.333333333333332 L 71.0 17.666666666666668 L 70.0 18.333333333333332 L 69.0 18.666666666666668 L 68.0 19.333333333333332 L 67.0 19.666666666666668 L 66.0 20.333333333333332 L 65.33333333333333 21.0 L 65.0 22.0 L 65.33333333333333 22.666666666666668 L 66.0 23.0 L 67.0 23.0 L 68.0 23.0 L 69.0 23.0 L 70.0 23.0 L 71.0 22.666666666666668 L 71.5 22.5 Z" stroke="none" fill="rgb(230,61,58)" />
<path d="M 46.5 34.0 L 47.0 34.0 L 48.0 34.0 L 49.0 34.0 L 50.0 34.0 L 51.0 34.0 L 52.0 34.0 L 53.0 34.0 L 54.0 34.0 L 55.0 34.0 L 56.0 34.0 L 57.0 33.666666666666664 L 57.666666666666664 33.0 L 57.666666666666664 32.0 L 57.333333333333336 31.0 L 57.0 30.0 L 57.0 29.0 L 57.0 28.0 L 57.0 27.0 L 57.0 26.0 L 57.0 25.0 L 57.0 24.0 L 57.0 23.0 L 57.0 22.0 L 56.666666666666664 21.0 L 56.0 20.333333333333332 L 55.0 20.0 L 54.0 20.0 L 53.333333333333336 20.333333333333332 L 53.0 21.0 L 53.0 22.0 L 53.333333333333336 23.0 L 53.666666666666664 24.0 L 54.0 25.0 L 54.0 26.0 L 54.0 27.0 L 54.0 28.0 L 54.0 29.0 L 53.666666666666664 30.0 L 53.0 30.666666666666668 L 52.0 31.0 L 51.0 31.0 L 50.0 31.0 L 49.0 30.666666666666668 L 48.0 30.0 L 47.333333333333336 29.0 L 46.666666666666664 28.0 L 46.0 27.0 L 45.0 26.333333333333332 L 44.0 26.0 L 43.333333333333336 26.333333333333332 L 42.666666666666664 27.0 L 42.0 28.0 L 41.333333333333336 29.0 L 40.666666666666664 30.0 L 40.333333333333336 31.0 L 40.0 32.0 L 40.333333333333336 33.0 L 41.0 33.666666666666664 L 42.0 33.666666666666664 L 43.0 33.0 L 44.0 32.666666666666664 L 45.0 33.0 L 45.5 33.5 Z" stroke="none" fill="rgb(226,245,254)" />
<path d="M 68.5 27.5 L 69.0 27.0 L 69.66666666666667 26.0 L 70.0 25.0 L 70.0 24.0 L 69.66666666666667 23.333333333333332 L 69.0 23.0 L 68.0 23.0 L 67.0 23.0 L 66.0 23.0 L 65.0 23.0 L 64.0 23.0 L 63.0 23.0 L 62.0 22.666666666666668 L 61.0 22.0 L 60.0 21.0 L 59.0 20.333333333333332 L 58.0 20.0 L 57.333333333333336 20.333333333333332 L 57.0 21.0 L 57.0 22.0 L 57.0 23.0 L 57.0 24.0 L 57.0 25.0 L 57.0 26.0 L 57.0 27.0 L 57.0 28.0 L 57.0 29.0 L 57.0 30.0 L 57.0 31.0 L 57.333333333333336 32.0 L 58.0 32.666666666666664 L 59.0 33.0 L 60.0 33.0 L 61.0 33.0 L 62.0 32.666666666666664 L 62.666666666666664 32.0 L 62.666666666666664 31.0 L 62.666666666666664 30.0 L 63.0 29.0 L 64.0 28.333333333333332 L 65.0 28.333333333333332 L 66.0 28.666666666666668 L 67.0 28.666666666666668 L 67.5 28.5 Z" stroke="none" fill="rgb(101,96,96)" />
<path d="M 47.0 27.5 L 47.0 27.0 L 47.0 26.0 L 47.0 25.0 L 47.0 24.0 L 47.333333333333336 23.0 L 47.666666666666664 22.0 L 47.666666666666664 21.333333333333332 L 47.0 21.0 L 46.0 21.0 L 45.0 21.0 L 44.0 21.0 L 43.0 21.0 L 42.0 21.0 L 41.0 21.0 L 40.0 21.333333333333332 L 39.333333333333336 22.0 L 39.0 23.0 L 39.0 24.0 L 39.0 25.0 L 39.0 26.0 L 39.0 27.0 L 39.333333333333336 28.0 L 40.0 28.666666666666668 L 41.0 29.0 L 42.0 28.666666666666668 L 42.666666666666664 28.0 L 43.333333333333336 27.0 L 44.0 26.666666666666668 L 45.0 27.0 L 46.0 27.666666666666668 L 46.5 28.0 Z" stroke="none" fill="rgb(147,204,249)" />
<path d="M 47.5 30.5 L 48.0 30.666666666666668 L 49.0 31.0 L 50.0 31.0 L 50.666666666666664 30.666666666666668 L 51.0 30.0 L 51.0 29.0 L 51.0 28.0 L 51.0 27.0 L 51.0 26.0 L 51.0 25.0 L 51.0 24.0 L 51.0 23.0 L 50.666666666666664 22.333333333333332 L 50.0 22.0 L 49.0 22.0 L 48.0 22.0 L 47.333333333333336 22.333333333333332 L 47.0 23.0 L 47.0 24.0 L 47.0 25.0 L 47.0 26.0 L 47.0 27.0 L 47.0 28.0 L 47.0 29.0 L 47.0 29.5 Z" stroke="none" fill="rgb(109,186,246)" />
<path d="M 53.5 31.0 L 53.666666666666664 30.666666666666668 L 54.0 30.0 L 54.0 29.0 L 54.0 28.0 L 54.0 27.0 L 54.0 26.0 L 54.0 25.0 L 54.0 24.0 L 53.666666666666664 23.0 L 53.0 22.333333333333332 L 52.0 22.0 L 51.333333333333336 22.333333333333332 L 51.0 23.0 L 51.0 24.0 L 51.0 25.0 L 51.0 26.0 L 51.0 27.0 L 51.0 28.0 L 51.0 29.0 L 51.0 30.0 L 51.333333333333336 30.666666666666668 L 52.0 31.0 L 52.5 31.0 Z" stroke="none" fill="rgb(78,175,243)" />
<path d="M 123.5 30.0 L 123.66666666666667 29.666666666666668 L 124.0 29.0 L 124.0 28.0 L 124.0 27.0 L 123.66666666666667 26.333333333333332 L 123.0 26.0 L 122.33333333333333 26.333333333333332 L 121.66666666666667 27.0 L 121.33333333333333 28.0 L 121.0 29.0 L 121.33333333333333 29.666666666666668 L 122.0 30.0 L 122.5 30.0 Z" stroke="none" fill="rgb(180,229,252)" />
<path d="M 62.5 31.0 L 63.0 31.0 L 64.0 31.0 L 65.0 30.666666666666668 L 65.66666666666667 30.0 L 66.0 29.0 L 65.66666666666667 28.333333333333332 L 65.0 28.0 L 64.0 28.0 L 63.0 28.333333333333332 L 62.333333333333336 29.0 L 62.0 30.0 L 62.0 30.5 Z" stroke="none" fill="rgb(230,61,58)" />
<path d="M 105.5 56.5 L 106.0 56.0 L 107.0 55.0 L 108.0 54.0 L 109.0 53.333333333333336 L 110.0 52.666666666666664 L 111.0 52.0 L 112.0 51.0 L 113.0 50.333333333333336 L 114.0 49.666666666666664 L 115.0 49.0 L 116.0 48.0 L 117.0 47.333333333333336 L 118.0 46.666666666666664 L 119.0 46.333333333333336 L 120.0 45.666666666666664 L 121.0 45.0 L 122.0 44.0 L 123.0 43.333333333333336 L 123.66666666666667 42.666666666666664 L 124.0 42.0 L 124.0 41.0 L 124.0 40.0 L 124.0 39.0 L 124.0 38.0 L 124.0 37.0 L 124.0 36.0 L 124.0 35.0 L 124.0 34.0 L 124.0 33.0 L 124.0 32.0 L 124.0 31.0 L 123.66666666666667 30.333333333333332 L 123.0 30.0 L 122.0 30.0 L 121.0 30.0 L 120.0 30.0 L 119.0 30.333333333333332 L 118.33333333333333 31.0 L 117.66666666666667 32.0 L 117.0 33.0 L 116.0 34.0 L 115.0 35.0 L 114.33333333333333 36.0 L 113.66666666666667 37.0 L 113.0 38.0 L 112.0 39.0 L 111.0 40.0 L 110.0 41.0 L 109.0 42.0 L 108.0 43.0 L 107.33333333333333 44.0 L 106.66666666666667 45.0 L 106.0 46.0 L 105.0 47.0 L 104.0 48.0 L 103.0 49.0 L 102.0 50.0 L 101.0 51.0 L 100.0 52.0 L 99.0 53.0 L 98.0 54.0 L 97.0 55.0 L 96.0 56.0 L 95.0 57.0 L 94.0 58.0 L 93.0 59.0 L 92.0 60.0 L 91.0 60.666666666666664 L 90.0 61.333333333333336 L 89.0 62.0 L 88.0 63.0 L 87.33333333333333 64.0 L 87.33333333333333 64.66666666666667 L 88.0 65.0 L 89.0 65.0 L 90.0 64.66666666666667 L 91.0 64.0 L 92.0 63.333333333333336 L 93.0 62.666666666666664 L 94.0 62.333333333333336 L 95.0 62.0 L 96.0 62.0 L 96.66666666666667 61.666666666666664 L 97.33333333333333 61.0 L 98.0 60.333333333333336 L 99.0 60.0 L 99.66666666666667 59.666666666666664 L 100.33333333333333 59.0 L 101.0 58.333333333333336 L 102.0 58.0 L 103.0 58.0 L 104.0 57.666666666666664 L 104.5 57.5 Z" stroke="none" fill="rgb(191,233,252)" />
<path d="M 53.5 48.0 L 54.0 48.0 L 55.0 48.0 L 56.0 48.0 L 57.0 48.0 L 58.0 48.0 L 59.0 48.0 L 60.0 48.0 L 61.0 48.0 L 62.0 48.0 L 63.0 48.0 L 64.0 48.0 L 65.0 48.0 L 66.0 48.0 L 67.0 48.0 L 68.0 48.0 L 69.0 47.666666666666664 L 69.66666666666667 47.0 L 70.0 46.0 L 69.66666666666667 45.0 L 69.33333333333333 44.0 L 69.0 43.0 L 69.0 42.0 L 69.0 41.0 L 69.0 40.0 L 68.66666666666667 39.333333333333336 L 68.0 39.0 L 67.0 39.333333333333336 L 66.0 40.0 L 65.0 40.666666666666664 L 64.0 41.333333333333336 L 63.0 41.666666666666664 L 62.0 42.0 L 61.0 42.0 L 60.0 42.0 L 59.0 42.0 L 58.0 42.0 L 57.0 42.0 L 56.0 42.0 L 55.0 42.0 L 54.0 41.666666666666664 L 53.0 41.333333333333336 L 52.0 41.0 L 51.0 40.666666666666664 L 50.0 40.333333333333336 L 49.0 39.666666666666664 L 48.0 39.333333333333336 L 47.0 38.666666666666664 L 46.0 38.0 L 45.0 37.0 L 44.0 36.0 L 43.0 35.0 L 42.0 34.333333333333336 L 41.0 34.333333333333336 L 40.0 34.666666666666664 L 39.0 35.333333333333336 L 38.0 35.666666666666664 L 37.0 36.0 L 36.0 36.333333333333336 L 35.0 36.666666666666664 L 34.0 37.333333333333336 L 33.0 37.666666666666664 L 32.0 38.333333333333336 L 31.333333333333332 39.0 L 31.333333333333332 40.0 L 32.0 40.666666666666664 L 33.0 41.333333333333336 L 34.0 41.666666666666664 L 35.0 42.333333333333336 L 36.0 42.666666666666664 L 37.0 43.333333333333336 L 38.0 43.666666666666664 L 39.0 44.333333333333336 L 40.0 44.666666666666664 L 41.0 45.333333333333336 L 42.0 45.666666666666664 L 43.0 46.0 L 44.0 46.333333333333336 L 44.666666666666664 47.0 L 45.333333333333336 47.666666666666664 L 46.0 48.0 L 47.0 48.0 L 48.0 48.0 L 49.0 48.0 L 50.0 48.0 L 51.0 48.0 L 52.0 48.0 L 52.5 48.0 Z" stroke="none" fill="rgb(238,113,35)" />
<path d="M 57.5 55.0 L 58.0 55.0 L 59.0 55.0 L 60.0 55.0 L 61.0 55.0 L 62.0 55.0 L 63.0 55.0 L 64.0 55.0 L 65.0 55.0 L 66.0 55.0 L 67.0 55.0 L 68.0 55.0 L 69.0 55.333333333333336 L 70.0 55.666666666666664 L 70.66666666666667 55.666666666666664 L 71.0 55.0 L 71.0 54.0 L 71.0 53.0 L 71.0 52.0 L 71.33333333333333 51.0 L 72.0 50.333333333333336 L 73.0 50.0 L 73.66666666666667 49.666666666666664 L 74.0 49.0 L 74.0 48.0 L 74.0 47.0 L 74.0 46.0 L 74.0 45.0 L 74.0 44.0 L 74.0 43.0 L 74.0 42.0 L 74.0 41.0 L 74.0 40.0 L 74.0 39.0 L 74.0 38.0 L 74.0 37.0 L 74.0 36.0 L 73.66666666666667 35.333333333333336 L 73.0 35.0 L 72.0 35.333333333333336 L 71.0 36.0 L 70.0 37.0 L 69.33333333333333 38.0 L 69.0 39.0 L 69.0 40.0 L 69.0 41.0 L 69.0 42.0 L 69.0 43.0 L 69.0 44.0 L 69.33333333333333 45.0 L 69.33333333333333 46.0 L 69.0 47.0 L 68.0 47.666666666666664 L 67.0 48.0 L 66.0 48.0 L 65.0 48.0 L 64.0 48.0 L 63.0 48.0 L 62.0 48.0 L 61.0 48.0 L 60.0 48.0 L 59.0 48.0 L 58.0 48.0 L 57.0 48.0 L 56.0 48.0 L 55.0 48.0 L 54.0 48.0 L 53.0 48.0 L 52.0 48.0 L 51.0 48.0 L 50.0 48.0 L 49.0 48.0 L 48.0 48.0 L 47.0 48.0 L 46.0 47.666666666666664 L 45.333333333333336 47.0 L 44.666666666666664 46.333333333333336 L 44.0 46.0 L 43.0 45.666666666666664 L 42.0 45.333333333333336 L 41.0 44.666666666666664 L 40.0 44.333333333333336 L 39.0 43.666666666666664 L 38.0 43.333333333333336 L 37.0 42.666666666666664 L 36.0 42.333333333333336 L 35.0 41.666666666666664 L 34.0 41.333333333333336 L 33.0 40.666666666666664 L 32.0 40.333333333333336 L 31.0 40.0 L 30.0 40.0 L 29.0 40.333333333333336 L 28.0 41.0 L 27.0 41.666666666666664 L 26.333333333333332 42.333333333333336 L 26.0 43.0 L 26.0 44.0 L 26.333333333333332 45.0 L 27.0 45.666666666666664 L 28.0 46.0 L 29.0 46.333333333333336 L 30.0 46.666666666666664 L 31.0 47.333333333333336 L 32.0 47.666666666666664 L 33.0 48.333333333333336 L 34.0 48.666666666666664 L 35.0 49.333333333333336 L 36.0 49.666666666666664 L 37.0 50.0 L 38.0 50.0 L 39.0 50.0 L 40.0 50.0 L 41.0 50.333333333333336 L 41.666666666666664 51.0 L 42.0 52.0 L 42.0 53.0 L 42.0 54.0 L 42.333333333333336 54.666666666666664 L 43.0 55.0 L 44.0 55.0 L 45.0 55.0 L 46.0 55.0 L 47.0 55.0 L 48.0 55.0 L 49.0 55.0 L 50.0 55.0 L 51.0 55.0 L 52.0 55.0 L 53.0 55.0 L 54.0 55.0 L 55.0 55.0 L 56.0 55.0 L 56.5 55.0 Z" stroke="none" fill="rgb(243,127,33)" />
<path d="M 87.5 50.0 L 88.0 50.0 L 89.0 50.0 L 90.0 49.666666666666664 L 91.0 49.333333333333336 L 92.0 49.0 L 92.66666666666667 48.666666666666664 L 92.66666666666667 48.0 L 92.0 47.0 L 91.33333333333333 46.0 L 90.66666666666667 45.0 L 90.33333333333333 44.0 L 90.33333333333333 43.0 L 90.66666666666667 42.0 L 91.33333333333333 41.0 L 91.66666666666667 40.0 L 92.0 39.0 L 91.66666666666667 38.333333333333336 L 91.0 38.0 L 90.0 37.666666666666664 L 89.0 37.333333333333336 L 88.0 37.0 L 87.0 37.0 L 86.0 37.0 L 85.0 37.0 L 84.0 37.0 L 83.0 37.0 L 82.0 37.0 L 81.0 36.666666666666664 L 80.0 36.333333333333336 L 79.0 36.0 L 78.0 35.666666666666664 L 77.0 35.333333333333336 L 76.0 35.0 L 75.0 35.0 L 74.33333333333333 35.333333333333336 L 74.0 36.0 L 74.0 37.0 L 74.0 38.0 L 74.0 39.0 L 74.0 40.0 L 74.0 41.0 L 74.0 42.0 L 74.0 43.0 L 74.0 44.0 L 74.0 45.0 L 74.0 46.0 L 74.0 47.0 L 74.0 48.0 L 74.0 49.0 L 74.33333333333333 50.0 L 75.0 50.666666666666664 L 76.0 51.0 L 77.0 51.0 L 78.0 51.0 L 79.0 51.0 L 80.0 51.0 L 81.0 51.0 L 82.0 51.0 L 83.0 51.0 L 84.0 51.0 L 85.0 50.666666666666664 L 86.0 50.333333333333336 L 86.5 50.0 Z" stroke="none" fill="rgb(246,139,31)" />
<path d="M 91.5 47.5 L 92.0 47.666666666666664 L 93.0 48.0 L 94.0 48.0 L 95.0 48.0 L 96.0 48.333333333333336 L 97.0 48.666666666666664 L 98.0 49.0 L 99.0 49.0 L 100.0 49.0 L 101.0 49.333333333333336 L 102.0 49.666666666666664 L 103.0 49.666666666666664 L 103.66666666666667 49.0 L 104.0 48.0 L 104.0 47.0 L 104.0 46.0 L 104.0 45.0 L 104.0 44.0 L 104.0 43.0 L 104.0 42.0 L 103.66666666666667 41.0 L 103.0 40.0 L 102.0 39.0 L 101.0 38.333333333333336 L 100.0 38.0 L 99.0 38.0 L 98.0 38.0 L 97.0 38.0 L 96.0 38.0 L 95.0 38.0 L 94.0 38.333333333333336 L 93.0 38.666666666666664 L 92.0 39.333333333333336 L 91.33333333333333 40.0 L 90.66666666666667 41.0 L 90.33333333333333 42.0 L 90.0 43.0 L 90.0 44.0 L 90.33333333333333 45.0 L 90.66666666666667 46.0 L 91.0 46.5 Z" stroke="none" fill="rgb(40,165,154)" />
<path d="M 122.5 42.0 L 122.66666666666667 41.666666666666664 L 122.66666666666667 41.333333333333336 L 122.33333333333333 41.333333333333336 L 122.0 41.5 Z" stroke="none" fill="rgb(180,229,252)" />
<path d="M 122.0 42.5 L 121.66666666666667 42.333333333333336 L 121.33333333333333 42.333333333333336 L 121.33333333333333 42.666666666666664 L 121.5 43.0 Z" stroke="none" fill="rgb(180,229,252)" />
<path d="M 95.5 116.5 L 96.0 116.0 L 97.0 115.33333333333333 L 98.0 114.66666666666667 L 99.0 114.0 L 100.0 113.0 L 101.0 112.33333333333333 L 102.0 111.66666666666667 L 103.0 111.0 L 104.0 110.0 L 105.0 109.0 L 106.0 108.0 L 107.0 107.33333333333333 L 108.0 106.66666666666667 L 109.0 106.0 L 110.0 105.0 L 111.0 104.0 L 112.0 103.0 L 113.0 102.0 L 114.0 101.0 L 115.0 100.0 L 116.0 99.0 L 117.0 98.0 L 118.0 97.0 L 118.66666666666667 96.0 L 119.33333333333333 95.0 L 120.0 94.0 L 121.0 93.0 L 122.0 92.0 L 123.0 91.33333333333333 L 123.66666666666667 90.66666666666667 L 124.0 90.0 L 124.0 89.0 L 124.0 88.0 L 124.0 87.0 L 124.0 86.0 L 124.0 85.0 L 124.0 84.0 L 124.0 83.0 L 124.0 82.0 L 124.0 81.0 L 124.0 80.0 L 124.0 79.0 L 124.0 78.0 L 124.0 77.0 L 124.0 76.0 L 124.0 75.0 L 124.0 74.0 L 124.0 73.0 L 124.0 72.0 L 124.0 71.0 L 124.0 70.0 L 124.0 69.0 L 124.0 68.0 L 124.0 67.0 L 124.0 66.0 L 124.0 65.0 L 124.0 64.0 L 124.0 63.0 L 124.0 62.0 L 124.0 61.0 L 124.0 60.0 L 124.0 59.0 L 124.0 58.0 L 124.0 57.0 L 124.0 56.0 L 124.0 55.0 L 124.0 54.0 L 124.0 53.0 L 124.0 52.0 L 124.0 51.0 L 124.0 50.0 L 124.0 49.0 L 124.0 48.0 L 124.0 47.0 L 124.0 46.0 L 124.0 45.0 L 124.0 44.0 L 123.66666666666667 43.333333333333336 L 123.0 43.0 L 122.0 43.333333333333336 L 121.0 44.0 L 120.0 45.0 L 119.0 45.666666666666664 L 118.0 46.333333333333336 L 117.0 46.666666666666664 L 116.0 47.333333333333336 L 115.0 48.0 L 114.33333333333333 49.0 L 114.0 50.0 L 114.33333333333333 51.0 L 115.0 52.0 L 116.0 53.0 L 116.66666666666667 54.0 L 117.33333333333333 55.0 L 118.0 56.0 L 118.66666666666667 57.0 L 119.33333333333333 58.0 L 119.66666666666667 59.0 L 120.0 60.0 L 120.33333333333333 61.0 L 120.66666666666667 62.0 L 121.0 63.0 L 121.0 64.0 L 121.0 65.0 L 121.0 66.0 L 121.0 67.0 L 121.0 68.0 L 120.66666666666667 69.0 L 120.33333333333333 70.0 L 120.0 71.0 L 120.0 72.0 L 119.66666666666667 73.0 L 119.33333333333333 74.0 L 119.0 75.0 L 118.66666666666667 76.0 L 118.33333333333333 77.0 L 117.66666666666667 78.0 L 117.33333333333333 79.0 L 116.66666666666667 80.0 L 116.33333333333333 81.0 L 115.66666666666667 82.0 L 115.33333333333333 83.0 L 114.66666666666667 84.0 L 114.0 85.0 L 113.0 86.0 L 112.33333333333333 87.0 L 112.0 88.0 L 112.0 89.0 L 112.0 90.0 L 112.0 91.0 L 112.0 92.0 L 111.66666666666667 93.0 L 111.0 94.0 L 110.0 95.0 L 109.0 96.0 L 108.0 97.0 L 107.0 97.66666666666667 L 106.0 98.0 L 105.0 98.33333333333333 L 104.0 98.66666666666667 L 103.0 99.33333333333333 L 102.0 100.0 L 101.0 101.0 L 100.0 101.66666666666667 L 99.0 102.33333333333333 L 98.0 103.0 L 97.0 104.0 L 96.0 105.0 L 95.0 106.0 L 94.0 107.0 L 93.0 107.66666666666667 L 92.0 108.33333333333333 L 91.0 109.0 L 90.0 110.0 L 89.0 111.0 L 88.0 111.66666666666667 L 87.0 112.33333333333333 L 86.0 113.0 L 85.0 113.66666666666667 L 84.0 114.33333333333333 L 83.0 115.0 L 82.0 115.66666666666667 L 81.0 116.33333333333333 L 80.0 117.0 L 79.0 117.66666666666667 L 78.0 118.33333333333333 L 77.0 118.66666666666667 L 76.0 119.33333333333333 L 75.0 120.0 L 74.0 120.66666666666667 L 73.0 121.33333333333333 L 72.0 121.66666666666667 L 71.33333333333333 122.33333333333333 L 71.0 123.0 L 71.33333333333333 123.66666666666667 L 72.0 124.0 L 73.0 124.0 L 74.0 124.0 L 75.0 124.0 L 76.0 124.0 L 77.0 124.0 L 78.0 124.0 L 79.0 124.0 L 80.0 124.0 L 81.0 124.0 L 82.0 124.0 L 83.0 124.0 L 84.0 124.0 L 85.0 124.0 L 85.66666666666667 123.66666666666667 L 86.33333333333333 123.0 L 87.0 122.33333333333333 L 88.0 121.66666666666667 L 89.0 121.0 L 90.0 120.33333333333333 L 91.0 119.66666666666667 L 92.0 119.0 L 93.0 118.33333333333333 L 94.0 117.66666666666667 L 94.5 117.5 Z" stroke="none" fill="rgb(226,245,254)" />
<path d="M 32.5 54.5 L 33.0 54.666666666666664 L 34.0 55.333333333333336 L 35.0 55.666666666666664 L 36.0 56.0 L 36.666666666666664 55.666666666666664 L 37.0 55.0 L 37.0 54.0 L 37.333333333333336 53.0 L 37.666666666666664 52.0 L 38.0 51.0 L 37.666666666666664 50.333333333333336 L 37.0 49.666666666666664 L 36.0 49.333333333333336 L 35.0 48.666666666666664 L 34.0 48.333333333333336 L 33.0 47.666666666666664 L 32.0 47.333333333333336 L 31.0 46.666666666666664 L 30.0 46.333333333333336 L 29.0 46.0 L 28.0 45.666666666666664 L 27.0 45.333333333333336 L 26.0 45.0 L 25.0 45.333333333333336 L 24.333333333333332 46.0 L 24.0 47.0 L 24.0 48.0 L 24.0 49.0 L 24.0 50.0 L 24.333333333333332 50.666666666666664 L 25.0 51.333333333333336 L 26.0 51.666666666666664 L 27.0 52.0 L 28.0 52.333333333333336 L 29.0 52.666666666666664 L 30.0 53.333333333333336 L 31.0 53.666666666666664 L 31.5 54.0 Z" stroke="none" fill="rgb(246,139,31)" />
<path d="M 75.5 57.5 L 76.0 57.666666666666664 L 77.0 58.333333333333336 L 78.0 58.666666666666664 L 79.0 59.0 L 80.0 59.333333333333336 L 81.0 59.666666666666664 L 82.0 60.333333333333336 L 83.0 60.666666666666664 L 84.0 61.333333333333336 L 85.0 62.0 L 85.66666666666667 63.0 L 86.33333333333333 63.666666666666664 L 87.0 64.0 L 88.0 63.666666666666664 L 89.0 63.0 L 90.0 62.0 L 91.0 61.333333333333336 L 92.0 60.666666666666664 L 93.0 60.0 L 94.0 59.0 L 95.0 58.0 L 96.0 57.0 L 97.0 56.0 L 98.0 55.0 L 99.0 54.0 L 100.0 53.0 L 101.0 52.0 L 101.66666666666667 51.0 L 102.0 50.0 L 101.66666666666667 49.333333333333336 L 101.0 49.0 L 100.0 49.0 L 99.0 49.0 L 98.0 48.666666666666664 L 97.0 48.333333333333336 L 96.0 48.0 L 95.0 48.0 L 94.0 48.0 L 93.0 48.333333333333336 L 92.0 48.666666666666664 L 91.0 49.0 L 90.0 49.333333333333336 L 89.0 49.666666666666664 L 88.0 50.0 L 87.0 50.0 L 86.0 50.0 L 85.0 50.333333333333336 L 84.0 50.666666666666664 L 83.0 51.0 L 82.0 51.0 L 81.0 51.0 L 80.0 51.0 L 79.0 51.0 L 78.0 51.0 L 77.0 51.0 L 76.0 50.666666666666664 L 75.0 50.333333333333336 L 74.0 50.0 L 73.0 50.0 L 72.0 50.0 L 71.33333333333333 50.333333333333336 L 71.0 51.0 L 71.0 52.0 L 71.0 53.0 L 71.0 54.0 L 71.0 55.0 L 71.33333333333333 55.666666666666664 L 72.0 56.0 L 73.0 56.333333333333336 L 74.0 56.666666666666664 L 74.5 57.0 Z" stroke="none" fill="rgb(0,0,0)" />
<path d="M 113.5 54.0 L 114.0 53.666666666666664 L 114.66666666666667 53.0 L 115.0 52.0 L 114.66666666666667 51.0 L 114.0 50.333333333333336 L 113.0 50.0 L 112.0 50.333333333333336 L 111.0 51.0 L 110.33333333333333 52.0 L 110.0 53.0 L 110.0 54.0 L 110.33333333333333 54.666666666666664 L 111.0 55.0 L 112.0 54.666666666666664 L 112.5 54.5 Z" stroke="none" fill="rgb(254,254,255)" />
<path d="M 30.5 57.0 L 31.0 57.333333333333336 L 32.0 57.666666666666664 L 33.0 58.333333333333336 L 34.0 58.666666666666664 L 35.0 59.0 L 35.666666666666664 58.666666666666664 L 36.0 58.0 L 36.0 57.0 L 35.666666666666664 56.0 L 35.0 55.333333333333336 L 34.0 54.666666666666664 L 33.0 54.333333333333336 L 32.0 53.666666666666664 L 31.0 53.333333333333336 L 30.0 52.666666666666664 L 29.0 52.333333333333336 L 28.0 52.0 L 27.0 51.666666666666664 L 26.0 51.333333333333336 L 25.0 51.0 L 24.333333333333332 51.333333333333336 L 24.0 52.0 L 24.0 53.0 L 24.333333333333332 54.0 L 25.0 54.666666666666664 L 26.0 55.333333333333336 L 27.0 55.666666666666664 L 28.0 56.333333333333336 L 29.0 56.666666666666664 L 29.5 57.0 Z" stroke="none" fill="rgb(243,127,33)" />
<path d="M 116.0 82.5 L 116.33333333333333 82.0 L 116.66666666666667 81.0 L 117.33333333333333 80.0 L 117.66666666666667 79.0 L 118.33333333333333 78.0 L 118.66666666666667 77.0 L 119.0 76.0 L 119.33333333333333 75.0 L 119.66666666666667 74.0 L 120.0 73.0 L 120.0 72.0 L 120.33333333333333 71.0 L 120.66666666666667 70.0 L 121.0 69.0 L 121.0 68.0 L 120.66666666666667 67.33333333333333 L 120.0 67.0 L 119.0 67.0 L 118.0 66.66666666666667 L 117.66666666666667 66.0 L 117.66666666666667 65.0 L 118.33333333333333 64.0 L 119.0 63.333333333333336 L 120.0 63.0 L 120.66666666666667 62.666666666666664 L 121.0 62.0 L 120.66666666666667 61.0 L 120.33333333333333 60.0 L 120.0 59.0 L 119.66666666666667 58.0 L 119.33333333333333 57.0 L 118.66666666666667 56.0 L 118.0 55.0 L 117.33333333333333 54.0 L 116.66666666666667 53.0 L 116.0 52.333333333333336 L 115.0 52.333333333333336 L 114.0 53.0 L 113.0 53.666666666666664 L 112.0 54.333333333333336 L 111.0 54.333333333333336 L 110.33333333333333 54.0 L 109.66666666666667 53.333333333333336 L 109.0 53.0 L 108.0 53.333333333333336 L 107.0 54.0 L 106.0 55.0 L 105.0 56.0 L 104.0 57.0 L 103.33333333333333 58.0 L 103.33333333333333 59.0 L 104.0 60.0 L 105.0 61.0 L 105.66666666666667 62.0 L 106.33333333333333 63.0 L 107.0 64.0 L 107.66666666666667 65.0 L 108.0 66.0 L 108.0 67.0 L 108.0 68.0 L 108.33333333333333 69.0 L 108.66666666666667 70.0 L 108.66666666666667 71.0 L 108.33333333333333 72.0 L 108.0 73.0 L 108.0 74.0 L 108.0 75.0 L 107.66666666666667 76.0 L 107.33333333333333 77.0 L 107.0 78.0 L 106.66666666666667 79.0 L 106.33333333333333 80.0 L 106.0 81.0 L 106.33333333333333 82.0 L 107.0 83.0 L 108.0 84.0 L 109.0 85.0 L 110.0 86.0 L 111.0 86.66666666666667 L 112.0 87.0 L 113.0 86.66666666666667 L 114.0 86.0 L 114.66666666666667 85.0 L 115.33333333333333 84.0 L 115.5 83.5 Z" stroke="none" fill="rgb(234,248,254)" />
<path d="M 26.5 65.0 L 27.0 65.0 L 28.0 65.0 L 29.0 65.0 L 30.0 65.0 L 31.0 65.0 L 32.0 65.0 L 33.0 64.66666666666667 L 34.0 64.33333333333333 L 34.666666666666664 63.666666666666664 L 35.0 63.0 L 35.333333333333336 62.0 L 35.666666666666664 61.0 L 36.0 60.0 L 35.666666666666664 59.333333333333336 L 35.0 58.666666666666664 L 34.0 58.333333333333336 L 33.0 57.666666666666664 L 32.0 57.333333333333336 L 31.0 57.0 L 30.0 56.666666666666664 L 29.0 56.333333333333336 L 28.0 55.666666666666664 L 27.0 55.333333333333336 L 26.0 55.0 L 25.0 55.0 L 24.333333333333332 55.333333333333336 L 24.0 56.0 L 24.0 57.0 L 24.0 58.0 L 24.0 59.0 L 24.0 60.0 L 24.0 61.0 L 24.0 62.0 L 24.333333333333332 63.0 L 25.0 64.0 L 25.5 64.5 Z" stroke="none" fill="rgb(238,113,35)" />
<path d="M 57.5 65.0 L 58.0 65.0 L 59.0 64.66666666666667 L 60.0 64.33333333333333 L 61.0 64.0 L 62.0 63.666666666666664 L 63.0 63.333333333333336 L 64.0 63.0 L 65.0 62.666666666666664 L 66.0 62.0 L 67.0 61.0 L 68.0 60.0 L 69.0 59.0 L 70.0 58.0 L 70.66666666666667 57.0 L 70.66666666666667 56.0 L 70.0 55.333333333333336 L 69.0 55.0 L 68.0 55.0 L 67.0 55.0 L 66.0 55.0 L 65.0 55.0 L 64.0 55.0 L 63.0 55.0 L 62.0 55.0 L 61.0 55.0 L 60.0 55.0 L 59.0 55.0 L 58.0 55.0 L 57.0 55.0 L 56.0 55.0 L 55.0 55.0 L 54.0 55.0 L 53.0 55.0 L 52.0 55.0 L 51.0 55.0 L 50.0 55.0 L 49.0 55.0 L 48.0 55.0 L 47.0 55.0 L 46.0 55.0 L 45.0 55.0 L 44.0 55.0 L 43.0 55.0 L 42.333333333333336 55.333333333333336 L 42.0 56.0 L 42.0 57.0 L 42.333333333333336 58.0 L 42.666666666666664 59.0 L 43.0 60.0 L 43.333333333333336 61.0 L 43.666666666666664 62.0 L 44.0 63.0 L 44.333333333333336 64.0 L 45.0 64.66666666666667 L 46.0 65.0 L 47.0 65.33333333333333 L 48.0 65.66666666666667 L 49.0 66.0 L 50.0 66.0 L 51.0 66.0 L 52.0 66.0 L 53.0 66.0 L 54.0 66.0 L 55.0 66.0 L 56.0 65.66666666666667 L 56.5 65.5 Z" stroke="none" fill="rgb(246,139,31)" />
<path d="M 59.5 97.0 L 60.0 97.0 L 61.0 97.0 L 62.0 97.0 L 62.666666666666664 96.66666666666667 L 63.333333333333336 96.0 L 64.0 95.0 L 64.66666666666667 94.0 L 64.66666666666667 93.0 L 64.66666666666667 92.0 L 64.66666666666667 91.0 L 65.0 90.0 L 65.33333333333333 89.0 L 65.66666666666667 88.0 L 66.0 87.0 L 66.33333333333333 86.0 L 66.66666666666667 85.0 L 67.0 84.0 L 67.33333333333333 83.0 L 67.66666666666667 82.0 L 68.0 81.0 L 68.0 80.0 L 68.0 79.0 L 68.0 78.0 L 68.0 77.0 L 68.0 76.0 L 67.66666666666667 75.0 L 67.0 74.0 L 66.33333333333333 73.0 L 65.66666666666667 72.0 L 65.33333333333333 71.0 L 65.33333333333333 70.0 L 66.0 69.66666666666667 L 67.0 69.66666666666667 L 68.0 70.33333333333333 L 69.0 70.66666666666667 L 70.0 71.33333333333333 L 71.0 72.0 L 72.0 73.0 L 73.0 74.0 L 74.0 75.0 L 74.66666666666667 76.0 L 75.0 77.0 L 75.0 78.0 L 75.0 79.0 L 75.33333333333333 80.0 L 75.66666666666667 81.0 L 76.0 82.0 L 76.0 83.0 L 76.33333333333333 84.0 L 77.0 85.0 L 78.0 85.66666666666667 L 79.0 86.0 L 80.0 86.0 L 81.0 86.0 L 82.0 85.66666666666667 L 83.0 85.33333333333333 L 84.0 85.0 L 85.0 85.0 L 86.0 85.0 L 87.0 85.0 L 88.0 84.66666666666667 L 89.0 84.33333333333333 L 90.0 84.0 L 90.66666666666667 83.66666666666667 L 91.0 83.0 L 91.0 82.0 L 91.0 81.0 L 90.66666666666667 80.0 L 90.33333333333333 79.0 L 89.66666666666667 78.0 L 89.33333333333333 77.0 L 89.0 76.0 L 89.0 75.0 L 88.66666666666667 74.0 L 88.33333333333333 73.0 L 88.0 72.0 L 88.33333333333333 71.0 L 88.66666666666667 70.0 L 88.66666666666667 69.0 L 88.0 68.0 L 87.66666666666667 67.0 L 87.66666666666667 66.0 L 87.66666666666667 65.0 L 87.0 64.0 L 86.33333333333333 63.0 L 85.66666666666667 62.0 L 85.0 61.333333333333336 L 84.0 60.666666666666664 L 83.0 60.333333333333336 L 82.0 59.666666666666664 L 81.0 59.333333333333336 L 80.0 59.0 L 79.0 58.666666666666664 L 78.0 58.333333333333336 L 77.0 57.666666666666664 L 76.0 57.333333333333336 L 75.0 56.666666666666664 L 74.0 56.333333333333336 L 73.0 56.0 L 72.0 56.0 L 71.0 56.333333333333336 L 70.0 57.0 L 69.0 58.0 L 68.0 59.0 L 67.0 60.0 L 66.0 61.0 L 65.0 62.0 L 64.0 62.666666666666664 L 63.0 63.0 L 62.0 63.333333333333336 L 61.0 63.666666666666664 L 60.0 64.0 L 59.0 64.33333333333333 L 58.0 64.66666666666667 L 57.0 65.0 L 56.0 65.33333333333333 L 55.0 65.66666666666667 L 54.0 66.0 L 53.0 66.0 L 52.0 66.0 L 51.0 66.0 L 50.0 66.0 L 49.0 65.66666666666667 L 48.0 65.33333333333333 L 47.0 65.0 L 46.0 64.66666666666667 L 45.0 64.33333333333333 L 44.0 64.0 L 43.333333333333336 64.33333333333333 L 43.0 65.0 L 43.333333333333336 66.0 L 43.666666666666664 67.0 L 44.333333333333336 68.0 L 44.666666666666664 69.0 L 45.333333333333336 70.0 L 45.666666666666664 71.0 L 46.333333333333336 72.0 L 47.0 73.0 L 47.666666666666664 74.0 L 48.333333333333336 75.0 L 48.666666666666664 76.0 L 49.333333333333336 77.0 L 49.666666666666664 78.0 L 50.333333333333336 79.0 L 50.666666666666664 80.0 L 51.333333333333336 81.0 L 51.666666666666664 82.0 L 51.666666666666664 83.0 L 51.333333333333336 84.0 L 50.666666666666664 85.0 L 50.333333333333336 86.0 L 50.0 87.0 L 50.0 88.0 L 49.666666666666664 89.0 L 49.333333333333336 90.0 L 49.0 91.0 L 49.0 92.0 L 49.0 93.0 L 48.666666666666664 94.0 L 48.333333333333336 95.0 L 48.0 96.0 L 48.0 97.0 L 48.333333333333336 97.66666666666667 L 49.0 98.0 L 50.0 98.0 L 51.0 98.0 L 52.0 98.0 L 53.0 98.0 L 54.0 98.0 L 55.0 98.0 L 56.0 98.0 L 57.0 97.66666666666667 L 58.0 97.33333333333333 L 58.5 97.0 Z" stroke="none" fill="rgb(124,124,124)" />
<path d="M 101.5 60.0 L 102.0 59.666666666666664 L 102.66666666666667 59.0 L 102.66666666666667 58.0 L 102.0 57.333333333333336 L 101.0 57.333333333333336 L 100.33333333333333 58.0 L 100.0 59.0 L 100.33333333333333 59.666666666666664 L 100.5 60.0 Z" stroke="none" fill="rgb(180,229,252)" />
<path d="M 91.5 70.5 L 92.0 71.0 L 92.66666666666667 72.0 L 93.0 73.0 L 93.0 74.0 L 93.33333333333333 75.0 L 93.33333333333333 76.0 L 93.33333333333333 77.0 L 93.0 78.0 L 93.33333333333333 78.66666666666667 L 94.0 79.0 L 95.0 79.0 L 96.0 79.0 L 97.0 79.0 L 98.0 78.66666666666667 L 99.0 78.33333333333333 L 100.0 78.0 L 101.0 78.0 L 102.0 78.33333333333333 L 103.0 79.0 L 104.0 80.0 L 105.0 80.66666666666667 L 106.0 80.66666666666667 L 106.66666666666667 80.0 L 107.0 79.0 L 107.33333333333333 78.0 L 107.66666666666667 77.0 L 108.0 76.0 L 107.66666666666667 75.33333333333333 L 107.0 75.0 L 106.0 75.33333333333333 L 105.0 75.66666666666667 L 104.0 75.66666666666667 L 103.33333333333333 75.0 L 103.33333333333333 74.0 L 104.0 73.0 L 105.0 72.33333333333333 L 106.0 72.33333333333333 L 107.0 72.66666666666667 L 108.0 72.66666666666667 L 108.66666666666667 72.0 L 109.0 71.0 L 109.0 70.0 L 108.66666666666667 69.0 L 108.33333333333333 68.0 L 108.0 67.0 L 108.0 66.0 L 108.0 65.0 L 107.66666666666667 64.0 L 107.0 63.0 L 106.33333333333333 62.0 L 105.66666666666667 61.0 L 105.0 60.0 L 104.0 59.333333333333336 L 103.0 59.0 L 102.0 59.333333333333336 L 101.33333333333333 60.0 L 101.0 61.0 L 100.66666666666667 62.0 L 100.0 63.0 L 99.0 64.0 L 98.0 64.66666666666667 L 97.0 65.0 L 96.0 65.0 L 95.0 65.33333333333333 L 94.0 66.0 L 93.0 66.66666666666667 L 92.0 67.33333333333333 L 91.33333333333333 68.0 L 91.0 69.0 L 91.0 69.5 Z" stroke="none" fill="rgb(243,251,254)" />
<path d="M 110.5 64.0 L 111.0 63.666666666666664 L 112.0 63.0 L 112.66666666666667 62.0 L 113.0 61.0 L 113.0 60.0 L 112.66666666666667 59.333333333333336 L 112.0 59.0 L 111.0 59.0 L 110.0 59.0 L 109.33333333333333 59.333333333333336 L 108.66666666666667 60.0 L 108.33333333333333 61.0 L 108.0 62.0 L 108.0 63.0 L 108.33333333333333 63.666666666666664 L 109.0 64.0 L 109.5 64.0 Z" stroke="none" fill="rgb(254,254,255)" />
<path d="M 98.5 65.5 L 99.0 65.0 L 100.0 64.0 L 100.66666666666667 63.0 L 101.0 62.0 L 101.0 61.0 L 100.66666666666667 60.333333333333336 L 100.0 60.0 L 99.0 60.0 L 98.0 60.0 L 97.33333333333333 60.333333333333336 L 96.66666666666667 61.0 L 96.33333333333333 62.0 L 96.0 63.0 L 96.0 64.0 L 96.33333333333333 65.0 L 97.0 65.66666666666667 L 97.5 66.0 Z" stroke="none" fill="rgb(254,254,255)" />
<path d="M 27.5 73.0 L 28.0 73.0 L 29.0 72.66666666666667 L 30.0 72.33333333333333 L 31.0 72.0 L 32.0 71.66666666666667 L 33.0 71.0 L 33.666666666666664 70.0 L 34.0 69.0 L 34.333333333333336 68.0 L 34.666666666666664 67.0 L 35.0 66.0 L 35.0 65.0 L 34.666666666666664 64.33333333333333 L 34.0 64.0 L 33.0 64.33333333333333 L 32.0 64.66666666666667 L 31.0 65.0 L 30.0 65.0 L 29.0 65.0 L 28.0 65.0 L 27.0 64.66666666666667 L 26.0 64.0 L 25.0 63.0 L 24.0 62.333333333333336 L 23.0 62.333333333333336 L 22.0 62.666666666666664 L 21.333333333333332 63.333333333333336 L 21.0 64.0 L 20.666666666666668 65.0 L 20.333333333333332 66.0 L 20.0 67.0 L 20.333333333333332 68.0 L 20.666666666666668 69.0 L 21.0 70.0 L 21.333333333333332 70.66666666666667 L 22.0 71.33333333333333 L 23.0 71.66666666666667 L 24.0 72.33333333333333 L 25.0 72.66666666666667 L 26.0 73.0 L 26.5 73.0 Z" stroke="none" fill="rgb(40,165,154)" />
<path d="M 92.5 67.5 L 93.0 67.33333333333333 L 94.0 66.66666666666667 L 95.0 66.0 L 95.66666666666667 65.0 L 96.0 64.0 L 96.0 63.0 L 95.66666666666667 62.333333333333336 L 95.0 62.0 L 94.0 62.0 L 93.0 62.333333333333336 L 92.0 62.666666666666664 L 91.0 63.333333333333336 L 90.0 64.0 L 89.0 64.66666666666667 L 88.0 65.33333333333333 L 87.33333333333333 66.0 L 87.0 67.0 L 87.33333333333333 68.0 L 88.0 68.66666666666667 L 89.0 69.0 L 90.0 69.0 L 91.0 68.66666666666667 L 91.5 68.5 Z" stroke="none" fill="rgb(180,229,252)" />
<path d="M 117.5 67.0 L 118.0 67.0 L 119.0 67.0 L 120.0 67.0 L 120.66666666666667 66.66666666666667 L 121.0 66.0 L 121.0 65.0 L 121.0 64.0 L 120.66666666666667 63.333333333333336 L 120.0 63.0 L 119.0 63.0 L 118.33333333333333 63.333333333333336 L 117.66666666666667 64.0 L 117.33333333333333 65.0 L 117.0 66.0 L 117.0 66.5 Z" stroke="none" fill="rgb(254,254,255)" />
<path d="M 65.5 72.5 L 65.66666666666667 73.0 L 66.33333333333333 74.0 L 67.0 74.66666666666667 L 68.0 75.0 L 69.0 74.66666666666667 L 70.0 74.33333333333333 L 71.0 73.66666666666667 L 71.66666666666667 73.0 L 71.66666666666667 72.0 L 71.0 71.33333333333333 L 70.0 70.66666666666667 L 69.0 70.33333333333333 L 68.0 69.66666666666667 L 67.0 69.33333333333333 L 66.0 69.0 L 65.33333333333333 69.33333333333333 L 65.0 70.0 L 65.0 71.0 L 65.0 71.5 Z" stroke="none" fill="rgb(0,0,0)" />
<path d="M 92.5 80.5 L 92.66666666666667 80.0 L 93.0 79.0 L 93.33333333333333 78.0 L 93.66666666666667 77.0 L 94.0 76.0 L 93.66666666666667 75.0 L 93.33333333333333 74.0 L 93.0 73.0 L 93.0 72.0 L 92.66666666666667 71.0 L 92.0 70.0 L 91.0 69.33333333333333 L 90.0 69.0 L 89.0 69.33333333333333 L 88.33333333333333 70.0 L 88.0 71.0 L 88.0 72.0 L 88.0 73.0 L 88.33333333333333 74.0 L 88.66666666666667 75.0 L 89.0 76.0 L 89.0 77.0 L 89.33333333333333 78.0 L 89.66666666666667 79.0 L 90.33333333333333 80.0 L 91.0 80.66666666666667 L 91.5 81.0 Z" stroke="none" fill="rgb(254,254,255)" />
<path d="M 106.5 75.5 L 107.0 75.33333333333333 L 107.66666666666667 74.66666666666667 L 108.0 74.0 L 107.66666666666667 73.0 L 107.0 72.33333333333333 L 106.0 72.0 L 105.0 72.0 L 104.0 72.33333333333333 L 103.33333333333333 73.0 L 103.0 74.0 L 103.0 75.0 L 103.33333333333333 75.66666666666667 L 104.0 76.0 L 105.0 76.0 L 105.5 76.0 Z" stroke="none" fill="rgb(254,254,255)" />
<path d="M 71.5 75.0 L 72.0 74.66666666666667 L 72.66666666666667 74.0 L 72.66666666666667 73.33333333333333 L 72.0 73.0 L 71.0 73.33333333333333 L 70.0 73.66666666666667 L 69.0 74.33333333333333 L 68.33333333333333 75.0 L 68.33333333333333 75.66666666666667 L 69.0 76.0 L 70.0 75.66666666666667 L 70.5 75.5 Z" stroke="none" fill="rgb(191,233,252)" />
<path d="M 68.5 81.0 L 69.0 81.0 L 70.0 81.0 L 71.0 80.66666666666667 L 72.0 80.33333333333333 L 73.0 79.66666666666667 L 74.0 79.33333333333333 L 74.66666666666667 78.66666666666667 L 75.0 78.0 L 75.0 77.0 L 75.0 76.0 L 74.66666666666667 75.0 L 74.0 74.33333333333333 L 73.0 74.0 L 72.0 74.33333333333333 L 71.0 74.66666666666667 L 70.0 75.33333333333333 L 69.0 75.66666666666667 L 68.33333333333333 76.33333333333333 L 68.0 77.0 L 68.0 78.0 L 68.0 79.0 L 68.0 80.0 L 68.0 80.5 Z" stroke="none" fill="rgb(180,229,252)" />
<path d="M 95.5 97.5 L 96.0 97.33333333333333 L 97.0 97.0 L 98.0 97.0 L 99.0 97.0 L 100.0 96.66666666666667 L 101.0 96.33333333333333 L 102.0 96.0 L 103.0 95.66666666666667 L 104.0 95.0 L 105.0 94.0 L 106.0 93.0 L 107.0 92.0 L 108.0 91.0 L 108.66666666666667 90.0 L 109.0 89.0 L 109.0 88.0 L 109.0 87.0 L 109.0 86.0 L 109.0 85.0 L 108.66666666666667 84.0 L 108.0 83.0 L 107.0 82.0 L 106.0 81.0 L 105.0 80.0 L 104.0 79.0 L 103.0 78.33333333333333 L 102.0 78.0 L 101.0 78.0 L 100.0 78.0 L 99.0 78.0 L 98.0 78.33333333333333 L 97.0 78.66666666666667 L 96.0 79.0 L 95.0 79.0 L 94.0 79.0 L 93.0 79.33333333333333 L 92.0 80.0 L 91.33333333333333 81.0 L 91.0 82.0 L 91.0 83.0 L 91.33333333333333 83.66666666666667 L 92.0 84.33333333333333 L 93.0 85.0 L 94.0 86.0 L 95.0 87.0 L 96.0 88.0 L 96.66666666666667 89.0 L 96.66666666666667 90.0 L 96.0 91.0 L 95.0 92.0 L 94.0 92.66666666666667 L 93.0 93.0 L 92.0 93.0 L 91.0 93.0 L 90.0 93.0 L 89.0 93.0 L 88.0 93.0 L 87.0 93.0 L 86.33333333333333 93.33333333333333 L 86.0 94.0 L 86.0 95.0 L 86.0 96.0 L 86.0 97.0 L 86.0 98.0 L 86.33333333333333 98.66666666666667 L 87.0 99.0 L 88.0 99.0 L 89.0 99.0 L 90.0 99.0 L 91.0 98.66666666666667 L 92.0 98.33333333333333 L 93.0 98.0 L 94.0 98.0 L 94.5 98.0 Z" stroke="none" fill="rgb(230,61,58)" />
<path d="M 76.5 89.0 L 77.0 89.0 L 77.66666666666667 88.66666666666667 L 78.0 88.0 L 78.0 87.0 L 78.0 86.0 L 77.66666666666667 85.0 L 77.0 84.0 L 76.33333333333333 83.0 L 76.0 82.0 L 76.0 81.0 L 75.66666666666667 80.0 L 75.0 79.33333333333333 L 74.0 79.0 L 73.0 79.33333333333333 L 72.0 79.66666666666667 L 71.0 80.33333333333333 L 70.0 80.66666666666667 L 69.0 81.0 L 68.0 81.33333333333333 L 67.33333333333333 82.0 L 67.0 83.0 L 66.66666666666667 84.0 L 66.33333333333333 85.0 L 66.0 86.0 L 65.66666666666667 87.0 L 65.33333333333333 88.0 L 65.0 89.0 L 64.66666666666667 90.0 L 64.33333333333333 91.0 L 64.0 92.0 L 64.33333333333333 92.66666666666667 L 65.0 93.0 L 66.0 93.0 L 67.0 93.0 L 68.0 92.66666666666667 L 69.0 92.33333333333333 L 70.0 92.0 L 71.0 91.66666666666667 L 72.0 91.33333333333333 L 73.0 90.66666666666667 L 74.0 90.33333333333333 L 75.0 89.66666666666667 L 75.5 89.5 Z" stroke="none" fill="rgb(254,254,255)" />
<path d="M 17.5 101.0 L 18.0 100.66666666666667 L 19.0 100.33333333333333 L 20.0 99.66666666666667 L 21.0 99.33333333333333 L 22.0 99.0 L 23.0 98.66666666666667 L 24.0 98.33333333333333 L 25.0 97.66666666666667 L 26.0 97.33333333333333 L 27.0 96.66666666666667 L 28.0 96.33333333333333 L 29.0 95.66666666666667 L 30.0 95.33333333333333 L 31.0 95.0 L 32.0 94.66666666666667 L 33.0 94.33333333333333 L 34.0 93.66666666666667 L 35.0 93.33333333333333 L 36.0 92.66666666666667 L 37.0 92.33333333333333 L 38.0 91.66666666666667 L 39.0 91.33333333333333 L 40.0 90.66666666666667 L 41.0 90.33333333333333 L 42.0 89.66666666666667 L 43.0 89.33333333333333 L 44.0 88.66666666666667 L 45.0 88.33333333333333 L 46.0 87.66666666666667 L 47.0 87.33333333333333 L 48.0 87.0 L 49.0 86.66666666666667 L 50.0 86.33333333333333 L 50.666666666666664 85.66666666666667 L 51.0 85.0 L 50.666666666666664 84.33333333333333 L 50.0 84.0 L 49.0 84.33333333333333 L 48.0 84.66666666666667 L 47.0 85.33333333333333 L 46.0 85.66666666666667 L 45.0 86.33333333333333 L 44.0 86.66666666666667 L 43.0 87.33333333333333 L 42.0 87.66666666666667 L 41.0 88.0 L 40.0 88.33333333333333 L 39.0 88.66666666666667 L 38.0 89.33333333333333 L 37.0 89.66666666666667 L 36.0 90.0 L 35.0 90.33333333333333 L 34.0 90.66666666666667 L 33.0 91.0 L 32.0 91.0 L 31.0 91.33333333333333 L 30.0 91.66666666666667 L 29.0 92.0 L 28.0 92.33333333333333 L 27.0 92.66666666666667 L 26.0 93.0 L 25.0 93.33333333333333 L 24.0 93.66666666666667 L 23.0 94.33333333333333 L 22.0 94.66666666666667 L 21.0 95.33333333333333 L 20.0 95.66666666666667 L 19.0 96.33333333333333 L 18.0 96.66666666666667 L 17.0 97.33333333333333 L 16.0 97.66666666666667 L 15.0 98.0 L 14.0 98.33333333333333 L 13.0 98.66666666666667 L 12.0 99.33333333333333 L 11.0 99.66666666666667 L 10.0 100.33333333333333 L 9.0 100.66666666666667 L 8.0 101.0 L 7.0 101.33333333333333 L 6.0 101.66666666666667 L 5.0 102.33333333333333 L 4.0 102.66666666666667 L 3.3333333333333335 103.33333333333333 L 3.0 104.0 L 3.0 105.0 L 3.3333333333333335 105.66666666666667 L 4.0 106.0 L 5.0 106.0 L 6.0 105.66666666666667 L 7.0 105.33333333333333 L 8.0 105.0 L 9.0 104.66666666666667 L 10.0 104.33333333333333 L 11.0 103.66666666666667 L 12.0 103.33333333333333 L 13.0 102.66666666666667 L 14.0 102.33333333333333 L 15.0 102.0 L 16.0 101.66666666666667 L 16.5 101.5 Z" stroke="none" fill="rgb(191,233,252)" />
<path d="M 88.5 93.0 L 89.0 93.0 L 90.0 93.0 L 91.0 93.0 L 92.0 93.0 L 93.0 93.0 L 94.0 93.0 L 95.0 92.66666666666667 L 96.0 92.0 L 96.66666666666667 91.0 L 97.0 90.0 L 97.0 89.0 L 96.66666666666667 88.0 L 96.0 87.0 L 95.0 86.0 L 94.0 85.0 L 93.0 84.33333333333333 L 92.0 84.0 L 91.0 84.0 L 90.0 84.0 L 89.0 84.0 L 88.0 84.33333333333333 L 87.0 84.66666666666667 L 86.0 85.0 L 85.0 85.0 L 84.0 85.0 L 83.0 85.0 L 82.0 85.33333333333333 L 81.0 85.66666666666667 L 80.0 86.0 L 79.0 86.0 L 78.33333333333333 86.33333333333333 L 78.0 87.0 L 77.66666666666667 88.0 L 77.33333333333333 89.0 L 77.33333333333333 90.0 L 78.0 91.0 L 79.0 91.66666666666667 L 80.0 92.0 L 81.0 92.0 L 82.0 92.0 L 83.0 92.0 L 84.0 92.33333333333333 L 85.0 92.66666666666667 L 86.0 93.0 L 87.0 93.0 L 87.5 93.0 Z" stroke="none" fill="rgb(69,105,173)" />
<path d="M 104.5 99.0 L 105.0 98.66666666666667 L 106.0 98.33333333333333 L 107.0 98.0 L 108.0 97.66666666666667 L 109.0 97.0 L 110.0 96.0 L 111.0 95.0 L 111.66666666666667 94.0 L 112.0 93.0 L 112.0 92.0 L 112.0 91.0 L 112.0 90.0 L 112.0 89.0 L 112.0 88.0 L 111.66666666666667 87.0 L 111.0 86.0 L 110.0 85.33333333333333 L 109.33333333333333 85.33333333333333 L 109.0 86.0 L 109.0 87.0 L 109.0 88.0 L 108.66666666666667 89.0 L 108.0 90.0 L 107.0 91.0 L 106.0 92.0 L 105.0 93.0 L 104.0 94.0 L 103.0 95.0 L 102.0 95.66666666666667 L 101.0 96.0 L 100.0 96.33333333333333 L 99.0 96.66666666666667 L 98.0 97.0 L 97.0 97.0 L 96.0 97.0 L 95.0 97.33333333333333 L 94.0 97.66666666666667 L 93.0 98.0 L 92.0 98.0 L 91.0 98.33333333333333 L 90.0 98.66666666666667 L 89.0 99.0 L 88.0 99.0 L 87.0 99.33333333333333 L 86.0 100.0 L 85.0 100.66666666666667 L 84.0 101.33333333333333 L 83.0 101.66666666666667 L 82.0 102.0 L 81.0 102.33333333333333 L 80.0 102.66666666666667 L 79.0 103.33333333333333 L 78.0 103.66666666666667 L 77.0 104.0 L 76.0 104.33333333333333 L 75.0 104.66666666666667 L 74.0 105.33333333333333 L 73.0 105.66666666666667 L 72.0 106.33333333333333 L 71.0 106.66666666666667 L 70.0 107.0 L 69.0 107.33333333333333 L 68.0 107.66666666666667 L 67.0 108.33333333333333 L 66.0 108.66666666666667 L 65.0 109.0 L 64.0 109.33333333333333 L 63.0 109.66666666666667 L 62.0 110.0 L 61.0 110.33333333333333 L 60.0 111.0 L 59.0 111.66666666666667 L 58.0 112.0 L 57.0 112.33333333333333 L 56.0 112.66666666666667 L 55.0 113.33333333333333 L 54.0 113.66666666666667 L 53.0 114.33333333333333 L 52.0 114.66666666666667 L 51.0 115.33333333333333 L 50.0 116.0 L 49.0 116.66666666666667 L 48.0 117.33333333333333 L 47.0 118.0 L 46.0 119.0 L 45.0 119.66666666666667 L 44.0 120.33333333333333 L 43.0 120.66666666666667 L 42.0 121.0 L 41.0 121.33333333333333 L 40.333333333333336 122.0 L 40.0 123.0 L 40.333333333333336 123.66666666666667 L 41.0 124.0 L 42.0 124.0 L 43.0 124.0 L 44.0 124.0 L 45.0 124.0 L 46.0 124.0 L 47.0 124.0 L 48.0 124.0 L 48.666666666666664 123.66666666666667 L 49.333333333333336 123.0 L 50.0 122.33333333333333 L 51.0 121.66666666666667 L 52.0 121.0 L 53.0 120.0 L 54.0 119.0 L 55.0 118.33333333333333 L 56.0 117.66666666666667 L 57.0 117.33333333333333 L 58.0 116.66666666666667 L 59.0 116.33333333333333 L 60.0 115.66666666666667 L 61.0 115.33333333333333 L 62.0 114.66666666666667 L 63.0 114.33333333333333 L 64.0 114.0 L 65.0 113.66666666666667 L 66.0 113.33333333333333 L 67.0 112.66666666666667 L 68.0 112.33333333333333 L 69.0 112.0 L 70.0 111.66666666666667 L 71.0 111.33333333333333 L 72.0 110.66666666666667 L 73.0 110.33333333333333 L 74.0 110.0 L 75.0 109.66666666666667 L 76.0 109.33333333333333 L 77.0 108.66666666666667 L 78.0 108.33333333333333 L 79.0 107.66666666666667 L 80.0 107.66666666666667 L 81.0 107.66666666666667 L 82.0 107.66666666666667 L 83.0 107.33333333333333 L 84.0 106.66666666666667 L 85.0 106.0 L 86.0 105.0 L 87.0 104.33333333333333 L 88.0 103.66666666666667 L 89.0 103.33333333333333 L 90.0 103.0 L 91.0 102.66666666666667 L 92.0 102.33333333333333 L 93.0 101.66666666666667 L 94.0 101.33333333333333 L 95.0 101.0 L 96.0 101.0 L 97.0 100.66666666666667 L 98.0 100.33333333333333 L 99.0 100.0 L 100.0 100.33333333333333 L 101.0 100.66666666666667 L 102.0 100.66666666666667 L 103.0 100.0 L 103.5 99.5 Z" stroke="none" fill="rgb(180,229,252)" />
<path d="M 24.5 101.5 L 25.0 101.33333333333333 L 26.0 100.66666666666667 L 27.0 100.0 L 28.0 99.33333333333333 L 29.0 98.66666666666667 L 30.0 98.33333333333333 L 31.0 97.66666666666667 L 32.0 97.33333333333333 L 33.0 96.66666666666667 L 34.0 96.33333333333333 L 35.0 95.66666666666667 L 36.0 95.33333333333333 L 37.0 94.66666666666667 L 38.0 94.33333333333333 L 39.0 93.66666666666667 L 40.0 93.33333333333333 L 41.0 93.0 L 42.0 92.66666666666667 L 43.0 92.33333333333333 L 44.0 91.66666666666667 L 45.0 91.33333333333333 L 46.0 91.0 L 47.0 90.66666666666667 L 48.0 90.33333333333333 L 49.0 90.0 L 49.666666666666664 89.66666666666667 L 50.0 89.0 L 50.0 88.0 L 50.0 87.0 L 49.666666666666664 86.33333333333333 L 49.0 86.33333333333333 L 48.0 86.66666666666667 L 47.0 87.0 L 46.0 87.33333333333333 L 45.0 87.66666666666667 L 44.0 88.33333333333333 L 43.0 88.66666666666667 L 42.0 89.33333333333333 L 41.0 89.66666666666667 L 40.0 90.33333333333333 L 39.0 90.66666666666667 L 38.0 91.33333333333333 L 37.0 91.66666666666667 L 36.0 92.33333333333333 L 35.0 92.66666666666667 L 34.0 93.33333333333333 L 33.0 93.66666666666667 L 32.0 94.33333333333333 L 31.0 94.66666666666667 L 30.0 95.0 L 29.0 95.33333333333333 L 28.0 95.66666666666667 L 27.0 96.33333333333333 L 26.0 96.66666666666667 L 25.0 97.33333333333333 L 24.0 97.66666666666667 L 23.0 98.33333333333333 L 22.0 98.66666666666667 L 21.0 99.0 L 20.0 99.33333333333333 L 19.0 99.66666666666667 L 18.0 100.33333333333333 L 17.0 100.66666666666667 L 16.0 101.33333333333333 L 15.0 101.66666666666667 L 14.0 102.0 L 13.0 102.33333333333333 L 12.0 102.66666666666667 L 11.0 103.33333333333333 L 10.0 103.66666666666667 L 9.0 104.33333333333333 L 8.0 104.66666666666667 L 7.0 105.0 L 6.0 105.33333333333333 L 5.0 105.66666666666667 L 4.0 106.0 L 3.3333333333333335 106.33333333333333 L 3.0 107.0 L 3.0 108.0 L 3.0 109.0 L 3.0 110.0 L 3.0 111.0 L 3.3333333333333335 112.0 L 4.0 112.66666666666667 L 5.0 113.0 L 6.0 112.66666666666667 L 7.0 112.0 L 8.0 111.33333333333333 L 9.0 110.66666666666667 L 10.0 110.0 L 11.0 109.33333333333333 L 12.0 109.0 L 13.0 108.66666666666667 L 14.0 108.0 L 15.0 107.33333333333333 L 16.0 106.66666666666667 L 17.0 106.0 L 18.0 105.33333333333333 L 19.0 104.66666666666667 L 20.0 104.33333333333333 L 21.0 103.66666666666667 L 22.0 103.0 L 23.0 102.33333333333333 L 23.5 102.0 Z" stroke="none" fill="rgb(180,229,252)" />
<path d="M 72.5 106.5 L 73.0 106.33333333333333 L 74.0 105.66666666666667 L 75.0 105.33333333333333 L 76.0 104.66666666666667 L 77.0 104.33333333333333 L 78.0 104.0 L 79.0 103.66666666666667 L 80.0 103.33333333333333 L 81.0 102.66666666666667 L 82.0 102.33333333333333 L 83.0 102.0 L 84.0 101.66666666666667 L 85.0 101.33333333333333 L 86.0 100.66666666666667 L 86.66666666666667 100.0 L 86.66666666666667 99.0 L 86.33333333333333 98.0 L 86.0 97.0 L 86.0 96.0 L 86.0 95.0 L 86.0 94.0 L 85.66666666666667 93.0 L 85.0 92.33333333333333 L 84.0 92.0 L 83.0 92.0 L 82.0 92.0 L 81.0 92.0 L 80.0 91.66666666666667 L 79.0 91.0 L 78.0 90.0 L 77.0 89.33333333333333 L 76.0 89.0 L 75.0 89.33333333333333 L 74.0 89.66666666666667 L 73.0 90.33333333333333 L 72.0 90.66666666666667 L 71.0 91.33333333333333 L 70.0 91.66666666666667 L 69.0 92.0 L 68.0 92.33333333333333 L 67.0 92.66666666666667 L 66.0 93.0 L 65.0 93.33333333333333 L 64.0 94.0 L 63.333333333333336 95.0 L 63.0 96.0 L 63.0 97.0 L 63.333333333333336 98.0 L 64.0 99.0 L 64.66666666666667 100.0 L 65.0 101.0 L 65.0 102.0 L 65.0 103.0 L 64.66666666666667 104.0 L 64.0 105.0 L 63.0 106.0 L 62.0 106.66666666666667 L 61.0 107.0 L 60.333333333333336 107.33333333333333 L 60.0 108.0 L 60.0 109.0 L 60.333333333333336 109.66666666666667 L 61.0 110.0 L 62.0 110.0 L 63.0 110.0 L 64.0 109.66666666666667 L 65.0 109.33333333333333 L 66.0 109.0 L 67.0 108.66666666666667 L 68.0 108.33333333333333 L 69.0 107.66666666666667 L 70.0 107.33333333333333 L 71.0 107.0 L 71.5 107.0 Z" stroke="none" fill="rgb(234,72,69)" />
<path d="M 24.5 119.0 L 25.0 119.0 L 26.0 119.0 L 27.0 119.0 L 28.0 119.0 L 29.0 119.0 L 30.0 118.66666666666667 L 30.666666666666668 118.0 L 30.666666666666668 117.0 L 30.0 116.0 L 29.333333333333332 115.0 L 29.0 114.0 L 29.0 113.0 L 29.0 112.0 L 29.0 111.0 L 29.0 110.0 L 29.0 109.0 L 29.333333333333332 108.0 L 30.0 107.0 L 31.0 106.0 L 32.0 105.0 L 33.0 104.0 L 34.0 103.33333333333333 L 35.0 102.66666666666667 L 36.0 102.33333333333333 L 37.0 102.0 L 38.0 102.0 L 39.0 101.66666666666667 L 40.0 101.33333333333333 L 41.0 101.0 L 42.0 101.0 L 43.0 101.0 L 44.0 101.0 L 45.0 101.0 L 46.0 101.0 L 46.666666666666664 100.66666666666667 L 47.333333333333336 100.0 L 47.666666666666664 99.0 L 48.0 98.0 L 48.0 97.0 L 48.333333333333336 96.0 L 48.666666666666664 95.0 L 49.0 94.0 L 49.0 93.0 L 49.0 92.0 L 49.0 91.0 L 48.666666666666664 90.33333333333333 L 48.0 90.0 L 47.0 90.33333333333333 L 46.0 90.66666666666667 L 45.0 91.0 L 44.0 91.33333333333333 L 43.0 91.66666666666667 L 42.0 92.33333333333333 L 41.0 92.66666666666667 L 40.0 93.0 L 39.0 93.33333333333333 L 38.0 93.66666666666667 L 37.0 94.33333333333333 L 36.0 94.66666666666667 L 35.0 95.33333333333333 L 34.0 95.66666666666667 L 33.0 96.33333333333333 L 32.0 96.66666666666667 L 31.0 97.33333333333333 L 30.0 97.66666666666667 L 29.0 98.33333333333333 L 28.0 98.66666666666667 L 27.0 99.33333333333333 L 26.0 100.0 L 25.0 100.66666666666667 L 24.0 101.33333333333333 L 23.0 101.66666666666667 L 22.0 102.33333333333333 L 21.0 103.0 L 20.0 103.66666666666667 L 19.0 104.33333333333333 L 18.0 104.66666666666667 L 17.0 105.33333333333333 L 16.0 106.0 L 15.0 106.66666666666667 L 14.0 107.33333333333333 L 13.333333333333334 108.0 L 13.0 109.0 L 13.0 110.0 L 13.0 111.0 L 13.333333333333334 112.0 L 14.0 113.0 L 15.0 114.0 L 16.0 115.0 L 17.0 116.0 L 18.0 116.66666666666667 L 19.0 117.33333333333333 L 20.0 117.66666666666667 L 21.0 118.0 L 22.0 118.33333333333333 L 23.0 118.66666666666667 L 23.5 119.0 Z" stroke="none" fill="rgb(254,254,255)" />
<path d="M 95.5 124.0 L 96.0 124.0 L 97.0 124.0 L 98.0 124.0 L 99.0 124.0 L 100.0 124.0 L 101.0 124.0 L 101.66666666666667 123.66666666666667 L 102.33333333333333 123.0 L 103.0 122.33333333333333 L 104.0 121.66666666666667 L 105.0 121.0 L 106.0 120.0 L 107.0 119.33333333333333 L 108.0 118.66666666666667 L 109.0 118.0 L 110.0 117.0 L 111.0 116.0 L 112.0 115.33333333333333 L 113.0 114.66666666666667 L 114.0 114.0 L 115.0 113.0 L 116.0 112.0 L 117.0 111.0 L 118.0 110.33333333333333 L 119.0 109.66666666666667 L 120.0 109.0 L 121.0 108.0 L 122.0 107.0 L 123.0 106.33333333333333 L 123.66666666666667 105.66666666666667 L 124.0 105.0 L 124.0 104.0 L 124.0 103.0 L 124.0 102.0 L 124.0 101.0 L 124.0 100.0 L 124.0 99.0 L 124.0 98.0 L 124.0 97.0 L 124.0 96.0 L 124.0 95.0 L 124.0 94.0 L 124.0 93.0 L 124.0 92.0 L 123.66666666666667 91.33333333333333 L 123.0 91.0 L 122.0 91.33333333333333 L 121.0 92.0 L 120.0 93.0 L 119.33333333333333 94.0 L 118.66666666666667 95.0 L 118.0 96.0 L 117.0 97.0 L 116.0 98.0 L 115.0 99.0 L 114.0 100.0 L 113.0 101.0 L 112.0 102.0 L 111.0 103.0 L 110.0 104.0 L 109.0 105.0 L 108.0 106.0 L 107.0 106.66666666666667 L 106.0 107.33333333333333 L 105.0 108.0 L 104.0 109.0 L 103.0 110.0 L 102.0 111.0 L 101.0 111.66666666666667 L 100.0 112.33333333333333 L 99.0 113.0 L 98.0 114.0 L 97.0 114.66666666666667 L 96.0 115.33333333333333 L 95.0 116.0 L 94.0 117.0 L 93.0 117.66666666666667 L 92.0 118.33333333333333 L 91.0 119.0 L 90.0 119.66666666666667 L 89.0 120.33333333333333 L 88.0 121.0 L 87.0 121.66666666666667 L 86.33333333333333 122.33333333333333 L 86.0 123.0 L 86.33333333333333 123.66666666666667 L 87.0 124.0 L 88.0 124.0 L 89.0 124.0 L 90.0 124.0 L 91.0 124.0 L 92.0 124.0 L 93.0 124.0 L 94.0 124.0 L 94.5 124.0 Z" stroke="none" fill="rgb(215,241,253)" />
<path d="M 23.5 94.0 L 23.666666666666668 93.66666666666667 L 23.666666666666668 93.33333333333333 L 23.333333333333332 93.33333333333333 L 23.0 93.5 Z" stroke="none" fill="rgb(204,238,253)" />
<path d="M 20.5 96.0 L 21.0 95.66666666666667 L 22.0 95.33333333333333 L 22.666666666666668 94.66666666666667 L 22.666666666666668 94.33333333333333 L 22.0 94.0 L 21.0 94.0 L 20.0 94.0 L 19.0 94.33333333333333 L 18.0 94.66666666666667 L 17.0 95.0 L 16.0 95.0 L 15.0 95.33333333333333 L 14.0 95.66666666666667 L 13.0 96.0 L 12.0 96.0 L 11.0 96.0 L 10.0 96.33333333333333 L 9.0 96.66666666666667 L 8.0 97.0 L 7.0 97.33333333333333 L 6.0 97.66666666666667 L 5.0 98.33333333333333 L 4.0 99.0 L 3.3333333333333335 100.0 L 3.0 101.0 L 3.0 102.0 L 3.3333333333333335 102.66666666666667 L 4.0 103.0 L 5.0 102.66666666666667 L 6.0 102.33333333333333 L 7.0 101.66666666666667 L 8.0 101.33333333333333 L 9.0 101.0 L 10.0 100.66666666666667 L 11.0 100.33333333333333 L 12.0 99.66666666666667 L 13.0 99.33333333333333 L 14.0 98.66666666666667 L 15.0 98.33333333333333 L 16.0 98.0 L 17.0 97.66666666666667 L 18.0 97.33333333333333 L 19.0 96.66666666666667 L 19.5 96.5 Z" stroke="none" fill="rgb(204,238,253)" />
<path d="M 52.5 106.0 L 53.0 106.0 L 54.0 106.33333333333333 L 55.0 106.66666666666667 L 56.0 107.0 L 57.0 107.0 L 58.0 107.0 L 59.0 107.0 L 60.0 107.0 L 61.0 107.0 L 62.0 107.0 L 63.0 106.66666666666667 L 64.0 106.0 L 64.66666666666667 105.0 L 65.0 104.0 L 65.0 103.0 L 65.0 102.0 L 65.0 101.0 L 65.0 100.0 L 64.66666666666667 99.0 L 64.0 98.0 L 63.0 97.33333333333333 L 62.0 97.0 L 61.0 97.0 L 60.0 97.0 L 59.0 97.0 L 58.0 97.0 L 57.0 97.33333333333333 L 56.0 97.66666666666667 L 55.0 98.0 L 54.0 98.0 L 53.0 98.0 L 52.0 98.0 L 51.0 98.0 L 50.0 98.0 L 49.0 98.0 L 48.0 98.33333333333333 L 47.333333333333336 99.0 L 47.0 100.0 L 47.0 101.0 L 47.0 102.0 L 47.333333333333336 103.0 L 48.0 104.0 L 49.0 104.66666666666667 L 50.0 105.33333333333333 L 51.0 105.66666666666667 L 51.5 106.0 Z" stroke="none" fill="rgb(69,105,173)" />
<path d="M 95.5 106.5 L 96.0 106.0 L 97.0 105.0 L 98.0 104.0 L 99.0 103.0 L 100.0 102.33333333333333 L 100.66666666666667 101.66666666666667 L 101.0 101.0 L 100.66666666666667 100.33333333333333 L 100.0 100.0 L 99.0 100.0 L 98.0 100.0 L 97.0 100.33333333333333 L 96.0 100.66666666666667 L 95.0 101.0 L 94.0 101.0 L 93.0 101.33333333333333 L 92.0 101.66666666666667 L 91.0 102.33333333333333 L 90.0 102.66666666666667 L 89.0 103.0 L 88.0 103.33333333333333 L 87.0 103.66666666666667 L 86.0 104.33333333333333 L 85.0 105.0 L 84.0 106.0 L 83.0 106.66666666666667 L 82.0 107.33333333333333 L 81.0 108.0 L 80.0 109.0 L 79.0 109.66666666666667 L 78.0 110.33333333333333 L 77.0 111.0 L 76.0 111.66666666666667 L 75.0 112.33333333333333 L 74.0 112.66666666666667 L 73.0 113.33333333333333 L 72.0 114.0 L 71.0 114.66666666666667 L 70.0 115.33333333333333 L 69.0 115.66666666666667 L 68.0 116.33333333333333 L 67.0 116.66666666666667 L 66.0 117.33333333333333 L 65.0 117.66666666666667 L 64.0 118.33333333333333 L 63.0 118.66666666666667 L 62.0 119.33333333333333 L 61.0 119.66666666666667 L 60.0 120.33333333333333 L 59.0 120.66666666666667 L 58.0 121.33333333333333 L 57.0 121.66666666666667 L 56.0 122.0 L 55.333333333333336 122.33333333333333 L 55.0 123.0 L 55.333333333333336 123.66666666666667 L 56.0 124.0 L 57.0 124.0 L 58.0 124.0 L 59.0 124.0 L 60.0 124.0 L 61.0 124.0 L 62.0 124.0 L 63.0 124.0 L 64.0 124.0 L 65.0 124.0 L 66.0 124.0 L 67.0 124.0 L 68.0 124.0 L 69.0 124.0 L 70.0 124.0 L 70.66666666666667 123.66666666666667 L 71.33333333333333 123.0 L 72.0 122.33333333333333 L 73.0 121.66666666666667 L 74.0 121.33333333333333 L 75.0 120.66666666666667 L 76.0 120.0 L 77.0 119.33333333333333 L 78.0 118.66666666666667 L 79.0 118.33333333333333 L 80.0 117.66666666666667 L 81.0 117.0 L 82.0 116.33333333333333 L 83.0 115.66666666666667 L 84.0 115.0 L 85.0 114.33333333333333 L 86.0 113.66666666666667 L 87.0 113.0 L 88.0 112.33333333333333 L 89.0 111.66666666666667 L 90.0 111.0 L 91.0 110.0 L 92.0 109.0 L 93.0 108.33333333333333 L 94.0 107.66666666666667 L 94.5 107.5 Z" stroke="none" fill="rgb(234,248,254)" />
<path d="M 39.5 124.0 L 39.666666666666664 123.66666666666667 L 40.333333333333336 123.0 L 41.0 122.0 L 42.0 121.33333333333333 L 43.0 121.0 L 44.0 120.66666666666667 L 45.0 120.33333333333333 L 46.0 119.66666666666667 L 47.0 119.0 L 48.0 118.0 L 49.0 117.33333333333333 L 50.0 116.66666666666667 L 51.0 116.0 L 52.0 115.33333333333333 L 53.0 114.66666666666667 L 54.0 114.33333333333333 L 55.0 113.66666666666667 L 56.0 113.33333333333333 L 57.0 112.66666666666667 L 58.0 112.33333333333333 L 59.0 112.0 L 60.0 111.66666666666667 L 60.666666666666664 111.0 L 60.666666666666664 110.0 L 60.333333333333336 109.0 L 60.0 108.0 L 59.666666666666664 107.33333333333333 L 59.0 107.0 L 58.0 107.0 L 57.0 107.0 L 56.0 106.66666666666667 L 55.0 106.33333333333333 L 54.0 106.0 L 53.0 106.0 L 52.0 105.66666666666667 L 51.0 105.33333333333333 L 50.0 104.66666666666667 L 49.0 104.0 L 48.0 103.0 L 47.333333333333336 102.0 L 46.666666666666664 101.33333333333333 L 46.0 101.0 L 45.0 101.0 L 44.0 101.0 L 43.0 101.0 L 42.0 101.0 L 41.0 101.0 L 40.0 101.0 L 39.0 101.33333333333333 L 38.0 101.66666666666667 L 37.0 102.0 L 36.0 102.0 L 35.0 102.33333333333333 L 34.0 102.66666666666667 L 33.0 103.33333333333333 L 32.0 104.0 L 31.0 105.0 L 30.0 106.0 L 29.333333333333332 107.0 L 29.0 108.0 L 29.0 109.0 L 29.0 110.0 L 29.0 111.0 L 29.0 112.0 L 29.0 113.0 L 29.0 114.0 L 29.0 115.0 L 29.333333333333332 116.0 L 30.0 117.0 L 30.666666666666668 118.0 L 31.333333333333332 119.0 L 32.0 119.66666666666667 L 33.0 120.33333333333333 L 34.0 121.0 L 35.0 121.66666666666667 L 36.0 122.33333333333333 L 37.0 123.0 L 38.0 123.66666666666667 L 38.5 124.0 Z" stroke="none" fill="rgb(238,82,79)" />
<path d="M 111.5 124.0 L 112.0 124.0 L 113.0 124.0 L 114.0 124.0 L 115.0 124.0 L 116.0 124.0 L 117.0 124.0 L 118.0 124.0 L 118.66666666666667 123.66666666666667 L 119.33333333333333 123.0 L 120.0 122.0 L 121.0 121.0 L 122.0 120.0 L 123.0 119.33333333333333 L 123.66666666666667 118.66666666666667 L 124.0 118.0 L 124.0 117.0 L 124.0 116.0 L 124.0 115.0 L 124.0 114.0 L 124.0 113.0 L 124.0 112.0 L 124.0 111.0 L 124.0 110.0 L 124.0 109.0 L 124.0 108.0 L 124.0 107.0 L 123.66666666666667 106.33333333333333 L 123.0 106.0 L 122.0 106.33333333333333 L 121.0 107.0 L 120.0 108.0 L 119.0 109.0 L 118.0 109.66666666666667 L 117.0 110.33333333333333 L 116.0 111.0 L 115.0 112.0 L 114.0 113.0 L 113.0 114.0 L 112.0 114.66666666666667 L 111.0 115.33333333333333 L 110.0 116.0 L 109.0 117.0 L 108.0 118.0 L 107.0 118.66666666666667 L 106.0 119.33333333333333 L 105.0 120.0 L 104.0 121.0 L 103.0 121.66666666666667 L 102.33333333333333 122.33333333333333 L 102.0 123.0 L 102.33333333333333 123.66666666666667 L 103.0 124.0 L 104.0 124.0 L 105.0 124.0 L 106.0 124.0 L 107.0 124.0 L 108.0 124.0 L 109.0 124.0 L 110.0 124.0 L 110.5 124.0 Z" stroke="none" fill="rgb(204,238,253)" />
<path d="M 61.5 120.0 L 62.0 119.66666666666667 L 63.0 119.33333333333333 L 64.0 118.66666666666667 L 65.0 118.33333333333333 L 66.0 117.66666666666667 L 67.0 117.33333333333333 L 68.0 116.66666666666667 L 69.0 116.33333333333333 L 70.0 115.66666666666667 L 71.0 115.33333333333333 L 72.0 114.66666666666667 L 73.0 114.0 L 74.0 113.33333333333333 L 75.0 112.66666666666667 L 76.0 112.33333333333333 L 77.0 111.66666666666667 L 78.0 111.0 L 79.0 110.33333333333333 L 80.0 109.66666666666667 L 80.66666666666667 109.0 L 81.0 108.0 L 80.66666666666667 107.33333333333333 L 80.0 107.0 L 79.0 107.33333333333333 L 78.0 107.66666666666667 L 77.0 108.33333333333333 L 76.0 108.66666666666667 L 75.0 109.33333333333333 L 74.0 109.66666666666667 L 73.0 110.0 L 72.0 110.33333333333333 L 71.0 110.66666666666667 L 70.0 111.33333333333333 L 69.0 111.66666666666667 L 68.0 112.0 L 67.0 112.33333333333333 L 66.0 112.66666666666667 L 65.0 113.33333333333333 L 64.0 113.66666666666667 L 63.0 114.0 L 62.0 114.33333333333333 L 61.0 114.66666666666667 L 60.0 115.33333333333333 L 59.0 115.66666666666667 L 58.0 116.33333333333333 L 57.0 116.66666666666667 L 56.0 117.33333333333333 L 55.0 117.66666666666667 L 54.0 118.33333333333333 L 53.0 119.0 L 52.0 120.0 L 51.0 121.0 L 50.0 121.66666666666667 L 49.333333333333336 122.33333333333333 L 49.0 123.0 L 49.333333333333336 123.66666666666667 L 50.0 124.0 L 51.0 124.0 L 52.0 124.0 L 53.0 124.0 L 54.0 124.0 L 54.666666666666664 123.66666666666667 L 55.333333333333336 123.0 L 56.0 122.33333333333333 L 57.0 122.0 L 58.0 121.66666666666667 L 59.0 121.33333333333333 L 60.0 120.66666666666667 L 60.5 120.5 Z" stroke="none" fill="rgb(243,251,254)" />
<path d="M 11.5 124.0 L 12.0 124.0 L 13.0 124.0 L 14.0 124.0 L 15.0 124.0 L 16.0 124.0 L 17.0 124.0 L 18.0 124.0 L 19.0 124.0 L 20.0 124.0 L 21.0 124.0 L 22.0 124.0 L 23.0 124.0 L 24.0 124.0 L 25.0 124.0 L 26.0 124.0 L 27.0 124.0 L 28.0 124.0 L 29.0 124.0 L 30.0 124.0 L 31.0 124.0 L 32.0 124.0 L 33.0 124.0 L 34.0 124.0 L 35.0 124.0 L 36.0 124.0 L 37.0 124.0 L 37.666666666666664 123.66666666666667 L 37.666666666666664 123.0 L 37.0 122.33333333333333 L 36.0 121.66666666666667 L 35.0 121.0 L 34.0 120.33333333333333 L 33.0 119.66666666666667 L 32.0 119.0 L 31.0 118.33333333333333 L 30.0 118.33333333333333 L 29.0 118.66666666666667 L 28.0 119.0 L 27.0 119.0 L 26.0 119.0 L 25.0 119.0 L 24.0 118.66666666666667 L 23.0 118.33333333333333 L 22.0 118.0 L 21.0 117.66666666666667 L 20.0 117.33333333333333 L 19.0 116.66666666666667 L 18.0 116.0 L 17.0 115.0 L 16.0 114.0 L 15.0 113.0 L 14.0 112.0 L 13.333333333333334 111.0 L 13.0 110.0 L 12.666666666666666 109.33333333333333 L 12.0 109.0 L 11.0 109.0 L 10.0 109.33333333333333 L 9.0 110.0 L 8.0 110.66666666666667 L 7.0 111.33333333333333 L 6.0 112.0 L 5.0 112.66666666666667 L 4.0 113.0 L 3.3333333333333335 113.33333333333333 L 3.0 114.0 L 3.0 115.0 L 3.0 116.0 L 3.0 117.0 L 3.0 118.0 L 3.0 119.0 L 3.0 120.0 L 3.0 121.0 L 3.0 122.0 L 3.0 123.0 L 3.3333333333333335 123.66666666666667 L 4.0 124.0 L 5.0 124.0 L 6.0 124.0 L 7.0 124.0 L 8.0 124.0 L 9.0 124.0 L 10.0 124.0 L 10.5 124.0 Z" stroke="none" fill="rgb(243,251,254)" />
<path d="M 120.5 124.0 L 121.0 124.0 L 122.0 124.0 L 123.0 124.0 L 123.66666666666667 123.66666666666667 L 124.0 123.0 L 124.0 122.0 L 124.0 121.0 L 124.0 120.0 L 123.66666666666667 119.33333333333333 L 123.0 119.0 L 122.0 119.33333333333333 L 121.0 120.0 L 120.0 121.0 L 119.33333333333333 122.0 L 119.0 123.0 L 119.33333333333333 123.66666666666667 L 119.5 124.0 Z" stroke="none" fill="rgb(191,233,252)" />
</svg>
