<?xml version="1.0" encoding="UTF-8" standalone="no"?>
<!DOCTYPE svg PUBLIC "-//W3C//DTD SVG 1.1//EN"
"http://www.w3.org/Graphics/SVG/1.1/DTD/svg11.dtd">
<svg width="128" height="128" xmlns="http://www.w3.org/2000/svg" version="1.1">
<path d="M 88.5 128.0 L 89.0 128.0 L 90.0 128.0 L 91.0 128.0 L 92.0 128.0 L 93.0 128.0 L 94.0 128.0 L 95.0 128.0 L 96.0 128.0 L 97.0 128.0 L 98.0 128.0 L 99.0 128.0 L 100.0 128.0 L 101.0 128.0 L 102.0 128.0 L 103.0 128.0 L 104.0 128.0 L 105.0 128.0 L 106.0 128.0 L 107.0 128.0 L 108.0 128.0 L 109.0 128.0 L 110.0 128.0 L 111.0 128.0 L 112.0 128.0 L 113.0 128.0 L 114.0 128.0 L 115.0 128.0 L 116.0 128.0 L 117.0 128.0 L 118.0 128.0 L 119.0 128.0 L 120.0 128.0 L 121.0 128.0 L 122.0 128.0 L 123.0 128.0 L 124.0 128.0 L 125.0 128.0 L 126.0 128.0 L 127.0 128.0 L 127.66666666666667 127.66666666666667 L 128.0 127.0 L 128.0 126.0 L 128.0 125.0 L 128.0 124.0 L 128.0 123.0 L 128.0 122.0 L 128.0 121.0 L 128.0 120.0 L 128.0 119.0 L 128.0 118.0 L 128.0 117.0 L 128.0 116.0 L 128.0 115.0 L 128.0 114.0 L 128.0 113.0 L 128.0 112.0 L 128.0 111.0 L 128.0 110.0 L 128.0 109.0 L 128.0 108.0 L 128.0 107.0 L 128.0 106.0 L 128.0 105.0 L 128.0 104.0 L 128.0 103.0 L 128.0 102.0 L 128.0 101.0 L 128.0 100.0 L 128.0 99.0 L 128.0 98.0 L 128.0 97.0 L 128.0 96.0 L 128.0 95.0 L 128.0 94.0 L 128.0 93.0 L 128.0 92.0 L 128.0 91.0 L 128.0 90.0 L 128.0 89.0 L 128.0 88.0 L 128.0 87.0 L 128.0 86.0 L 128.0 85.0 L 128.0 84.0 L 128.0 83.0 L 128.0 82.0 L 128.0 81.0 L 128.0 80.0 L 128.0 79.0 L 128.0 78.0 L 128.0 77.0 L 128.0 76.0 L 128.0 75.0 L 128.0 74.0 L 128.0 73.0 L 128.0 72.0 L 128.0 71.0 L 128.0 70.0 L 128.0 69.0 L 128.0 68.0 L 128.0 67.0 L 128.0 66.0 L 128.0 65.0 L 128.0 64.0 L 128.0 63.0 L 128.0 62.0 L 128.0 61.0 L 128.0 60.0 L 128.0 59.0 L 128.0 58.0 L 128.0 57.0 L 128.0 56.0 L 128.0 55.0 L 128.0 54.0 L 128.0 53.0 L 128.0 52.0 L 128.0 51.0 L 128.0 50.0 L 128.0 49.0 L 128.0 48.0 L 128.0 47.0 L 128.0 46.0 L 128.0 45.0 L 128.0 44.0 L 128.0 43.0 L 128.0 42.0 L 128.0 41.0 L 128.0 40.0 L 128.0 39.0 L 128.0 38.0 L 128.0 37.0 L 128.0 36.0 L 128.0 35.0 L 128.0 34.0 L 128.0 33.0 L 128.0 32.0 L 128.0 31.0 L 128.0 30.0 L 128.0 29.0 L 128.0 28.0 L 128.0 27.0 L 128.0 26.0 L 128.0 25.0 L 128.0 24.0 L 128.0 23.0 L 128.0 22.0 L 128.0 21.0 L 128.0 20.0 L 128.0 19.0 L 128.0 18.0 L 128.0 17.0 L 128.0 16.0 L 128.0 15.0 L 128.0 14.0 L 128.0 13.0 L 128.0 12.0 L 128.0 11.0 L 128.0 10.0 L 128.0 9.0 L 128.0 8.0 L 128.0 7.0 L 128.0 6.0 L 128.0 5.0 L 128.0 4.0 L 128.0 3.0 L 128.0 2.0 L 128.0 1.0 L 127.66666666666667 0.3333333333333333 L 127.0 0.0 L 126.0 0.0 L 125.0 0.0 L 124.0 0.0 L 123.0 0.0 L 122.0 0.0 L 121.0 0.0 L 120.0 0.0 L 119.0 0.0 L 118.0 0.0 L 117.0 0.0 L 116.0 0.0 L 115.0 0.0 L 114.0 0.0 L 113.0 0.0 L 112.0 0.0 L 111.0 0.0 L 110.0 0.0 L 109.0 0.0 L 108.0 0.0 L 107.0 0.0 L 106.0 0.0 L 105.0 0.0 L 104.0 0.0 L 103.0 0.0 L 102.0 0.0 L 101.0 0.0 L 100.0 0.0 L 99.0 0.0 L 98.0 0.0 L 97.0 0.0 L 96.0 0.0 L 95.0 0.0 L 94.0 0.0 L 93.0 0.0 L 92.0 0.0 L 91.0 0.0 L 90.0 0.0 L 89.0 0.0 L 88.0 0.0 L 87.0 0.0 L 86.0 0.0 L 85.0 0.0 L 84.0 0.0 L 83.0 0.0 L 82.0 0.0 L 81.0 0.0 L 80.0 0.0 L 79.0 0.0 L 78.0 0.0 L 77.0 0.0 L 76.0 0.0 L 75.0 0.0 L 74.0 0.0 L 73.0 0.0 L 72.0 0.0 L 71.0 0.0 L 70.0 0.0 L 69.0 0.0 L 68.0 0.0 L 67.0 0.0 L 66.0 0.0 L 65.0 0.0 L 64.0 0.0 L 63.0 0.0 L 62.0 0.0 L 61.0 0.0 L 60.0 0.0 L 59.0 0.0 L 58.0 0.0 L 57.0 0.0 L 56.0 0.0 L 55.0 0.0 L 54.0 0.0 L 53.0 0.0 L 52.0 0.0 L 51.0 0.0 L 50.0 0.0 L 49.0 0.0 L 48.0 0.0 L 47.0 0.0 L 46.0 0.0 L 45.0 0.0 L 44.0 0.0 L 43.0 0.0 L 42.0 0.0 L 41.0 0.0 L 40.0 0.0 L 39.0 0.0 L 38.0 0.0 L 37.0 0.0 L 36.0 0.0 L 35.0 0.0 L 34.0 0.0 L 33.0 0.0 L 32.0 0.0 L 31.0 0.0 L 30.0 0.0 L 29.0 0.0 L 28.0 0.0 L 27.0 0.0 L 26.0 0.0 L 25.0 0.0 L 24.0 0.0 L 23.0 0.0 L 22.0 0.0 L 21.0 0.0 L 20.0 0.0 L 19.0 0.0 L 18.0 0.0 L 17.0 0.0 L 16.0 0.0 L 15.0 0.0 L 14.0 0.0 L 13.0 0.0 L 12.0 0.0 L 11.0 0.0 L 10.0 0.0 L 9.0 0.0 L 8.0 0.0 L 7.0 0.0 L 6.0 0.0 L 5.0 0.0 L 4.0 0.0 L 3.0 0.0 L 2.0 0.0 L 1.0 0.0 L 0.3333333333333333 0.3333333333333333 L 0.0 1.0 L 0.0 2.0 L 0.0 3.0 L 0.0 4.0 L 0.0 5.0 L 0.0 6.0 L 0.0 7.0 L 0.0 8.0 L 0.0 9.0 L 0.0 10.0 L 0.0 11.0 L 0.0 12.0 L 0.0 13.0 L 0.0 14.0 L 0.0 15.0 L 0.0 16.0 L 0.0 17.0 L 0.0 18.0 L 0.0 19.0 L 0.0 20.0 L 0.0 21.0 L 0.0 22.0 L 0.0 23.0 L 0.0 24.0 L 0.0 25.0 L 0.0 26.0 L 0.0 27.0 L 0.0 28.0 L 0.0 29.0 L 0.0 30.0 L 0.0 31.0 L 0.0 32.0 L 0.0 33.0 L 0.0 34.0 L 0.0 35.0 L 0.0 36.0 L 0.0 37.0 L 0.0 38.0 L 0.0 39.0 L 0.0 40.0 L 0.0 41.0 L 0.0 42.0 L 0.0 43.0 L 0.0 44.0 L 0.0 45.0 L 0.0 46.0 L 0.0 47.0 L 0.0 48.0 L 0.0 49.0 L 0.0 50.0 L 0.0 51.0 L 0.0 52.0 L 0.0 53.0 L 0.0 54.0 L 0.0 55.0 L 0.0 56.0 L 0.0 57.0 L 0.0 58.0 L 0.0 59.0 L 0.0 60.0 L 0.0 61.0 L 0.0 62.0 L 0.0 63.0 L 0.0 64.0 L 0.0 65.0 L 0.0 66.0 L 0.0 67.0 L 0.0 68.0 L 0.0 69.0 L 0.0 70.0 L 0.0 71.0 L 0.0 72.0 L 0.0 73.0 L 0.0 74.0 L 0.0 75.0 L 0.0 76.0 L 0.0 77.0 L 0.0 78.0 L 0.0 79.0 L 0.0 80.0 L 0.0 81.0 L 0.0 82.0 L 0.0 83.0 L 0.0 84.0 L 0.0 85.0 L 0.0 86.0 L 0.0 87.0 L 0.0 88.0 L 0.0 89.0 L 0.0 90.0 L 0.0 91.0 L 0.0 92.0 L 0.0 93.0 L 0.0 94.0 L 0.0 95.0 L 0.0 96.0 L 0.0 97.0 L 0.0 98.0 L 0.0 99.0 L 0.0 100.0 L 0.0 101.0 L 0.0 102.0 L 0.0 103.0 L 0.0 104.0 L 0.0 105.0 L 0.0 106.0 L 0.0 107.0 L 0.0 108.0 L 0.0 109.0 L 0.0 110.0 L 0.0 111.0 L 0.0 112.0 L 0.0 113.0 L 0.0 114.0 L 0.0 115.0 L 0.0 116.0 L 0.0 117.0 L 0.0 118.0 L 0.0 119.0 L 0.0 120.0 L 0.0 121.0 L 0.0 122.0 L 0.0 123.0 L 0.0 124.0 L 0.0 125.0 L 0.0 126.0 L 0.0 127.0 L 0.3333333333333333 127.66666666666667 L 1.0 128.0 L 2.0 128.0 L 3.0 128.0 L 4.0 128.0 L 5.0 128.0 L 6.0 128.0 L 7.0 128.0 L 8.0 128.0 L 9.0 128.0 L 10.0 128.0 L 11.0 128.0 L 12.0 128.0 L 13.0 128.0 L 14.0 128.0 L 15.0 128.0 L 16.0 128.0 L 17.0 128.0 L 18.0 128.0 L 19.0 128.0 L 20.0 128.0 L 21.0 128.0 L 22.0 128.0 L 23.0 128.0 L 24.0 128.0 L 25.0 128.0 L 26.0 128.0 L 27.0 128.0 L 28.0 128.0 L 29.0 128.0 L 30.0 128.0 L 31.0 128.0 L 32.0 128.0 L 33.0 128.0 L 34.0 128.0 L 35.0 128.0 L 36.0 128.0 L 37.0 128.0 L 38.0 128.0 L 39.0 128.0 L 40.0 128.0 L 41.0 128.0 L 42.0 128.0 L 43.0 128.0 L 44.0 128.0 L 45.0 128.0 L 46.0 128.0 L 47.0 128.0 L 48.0 128.0 L 49.0 128.0 L 50.0 128.0 L 51.0 128.0 L 52.0 128.0 L 53.0 128.0 L 54.0 128.0 L 55.0 128.0 L 56.0 128.0 L 57.0 128.0 L 58.0 128.0 L 59.0 128.0 L 60.0 128.0 L 61.0 128.0 L 62.0 128.0 L 63.0 128.0 L 64.0 128.0 L 65.0 128.0 L 66.0 128.0 L 67.0 128.0 L 68.0 128.0 L 69.0 128.0 L 70.0 128.0 L 71.0 128.0 L 72.0 128.0 L 73.0 128.0 L 74.0 128.0 L 75.0 128.0 L 76.0 128.0 L 77.0 128.0 L 78.0 128.0 L 79.0 128.0 L 80.0 128.0 L 81.0 128.0 L 82.0 128.0 L 83.0 128.0 L 84.0 128.0 L 85.0 128.0 L 86.0 128.0 L 87.0 128.0 L 87.5 128.0 Z" stroke="none" fill="rgb(255,255,255)" />
<path d="M 59.5 96.5 L 60.0 96.0 L 61.0 95.33333333333333 L 62.0 94.66666666666667 L 63.0 94.33333333333333 L 64.0 93.66666666666667 L 65.0 93.33333333333333 L 66.0 92.66666666666667 L 67.0 92.33333333333333 L 68.0 91.66666666666667 L 69.0 91.0 L 70.0 90.0 L 71.0 89.33333333333333 L 72.0 88.66666666666667 L 73.0 88.0 L 74.0 87.0 L 74.66666666666667 86.0 L 75.33333333333333 85.0 L 76.0 84.0 L 77.0 83.0 L 77.66666666666667 82.0 L 78.33333333333333 81.0 L 78.66666666666667 80.0 L 79.33333333333333 79.0 L 79.66666666666667 78.0 L 80.33333333333333 77.0 L 80.66666666666667 76.0 L 81.0 75.0 L 81.33333333333333 74.0 L 81.66666666666667 73.0 L 82.0 72.0 L 82.0 71.0 L 82.33333333333333 70.0 L 82.66666666666667 69.0 L 83.0 68.0 L 83.0 67.0 L 83.0 66.0 L 83.0 65.0 L 82.66666666666667 64.0 L 82.33333333333333 63.0 L 81.66666666666667 62.0 L 81.33333333333333 61.0 L 81.0 60.0 L 81.0 59.0 L 81.0 58.0 L 80.66666666666667 57.0 L 80.33333333333333 56.0 L 80.0 55.0 L 80.0 54.0 L 79.66666666666667 53.0 L 79.33333333333333 52.0 L 79.0 51.0 L 79.0 50.0 L 78.66666666666667 49.0 L 78.33333333333333 48.0 L 77.66666666666667 47.333333333333336 L 77.0 47.0 L 76.0 47.0 L 75.0 47.0 L 74.0 47.0 L 73.33333333333333 47.333333333333336 L 73.0 48.0 L 73.33333333333333 49.0 L 73.66666666666667 50.0 L 74.0 51.0 L 73.66666666666667 52.0 L 73.0 52.666666666666664 L 72.0 53.0 L 71.0 53.0 L 70.0 53.0 L 69.33333333333333 53.333333333333336 L 69.0 54.0 L 69.33333333333333 55.0 L 69.66666666666667 56.0 L 70.0 57.0 L 70.0 58.0 L 70.0 59.0 L 69.66666666666667 60.0 L 69.0 61.0 L 68.0 62.0 L 67.0 62.666666666666664 L 66.0 63.0 L 65.0 63.0 L 64.0 63.0 L 63.0 62.666666666666664 L 62.0 62.0 L 61.333333333333336 61.0 L 61.0 60.0 L 61.0 59.0 L 61.0 58.0 L 61.0 57.0 L 61.333333333333336 56.0 L 61.666666666666664 55.0 L 62.0 54.0 L 61.666666666666664 53.333333333333336 L 61.0 53.0 L 60.0 52.666666666666664 L 59.333333333333336 52.0 L 59.333333333333336 51.0 L 60.0 50.0 L 61.0 49.0 L 62.0 48.333333333333336 L 63.0 48.0 L 64.0 47.666666666666664 L 64.66666666666667 47.0 L 65.0 46.0 L 64.66666666666667 45.0 L 64.0 44.333333333333336 L 63.0 44.0 L 62.0 43.666666666666664 L 61.0 43.333333333333336 L 60.0 43.0 L 59.0 43.0 L 58.0 43.0 L 57.0 43.0 L 56.0 43.0 L 55.0 43.0 L 54.0 43.0 L 53.0 43.0 L 52.0 43.0 L 51.0 43.0 L 50.0 43.0 L 49.0 43.0 L 48.0 43.0 L 47.0 43.0 L 46.0 43.0 L 45.0 43.0 L 44.0 43.0 L 43.0 43.0 L 42.0 43.333333333333336 L 41.0 43.666666666666664 L 40.0 44.0 L 39.0 44.0 L 38.0 44.333333333333336 L 37.0 44.666666666666664 L 36.0 45.0 L 35.333333333333336 45.333333333333336 L 35.0 46.0 L 35.333333333333336 46.666666666666664 L 36.0 47.333333333333336 L 37.0 47.666666666666664 L 38.0 48.333333333333336 L 39.0 49.0 L 40.0 50.0 L 40.666666666666664 51.0 L 40.666666666666664 52.0 L 40.0 53.0 L 39.333333333333336 54.0 L 39.0 55.0 L 39.0 56.0 L 39.0 57.0 L 39.0 58.0 L 39.0 59.0 L 38.666666666666664 60.0 L 38.0 61.0 L 37.0 62.0 L 36.0 62.666666666666664 L 35.0 63.0 L 34.0 63.0 L 33.0 63.0 L 32.0 62.666666666666664 L 31.0 62.0 L 30.0 61.0 L 29.333333333333332 60.0 L 29.333333333333332 59.0 L 29.666666666666668 58.0 L 30.0 57.0 L 30.333333333333332 56.0 L 31.0 55.333333333333336 L 32.0 54.666666666666664 L 32.666666666666664 54.0 L 33.0 53.0 L 32.666666666666664 52.333333333333336 L 32.0 52.0 L 31.0 52.333333333333336 L 30.0 52.666666666666664 L 29.0 53.0 L 28.0 53.0 L 27.0 52.666666666666664 L 26.333333333333332 52.0 L 26.333333333333332 51.0 L 27.0 50.0 L 27.666666666666668 49.0 L 28.0 48.0 L 27.666666666666668 47.333333333333336 L 27.0 47.0 L 26.0 47.0 L 25.0 47.0 L 24.0 47.0 L 23.0 47.0 L 22.333333333333332 47.333333333333336 L 22.0 48.0 L 21.666666666666668 49.0 L 21.333333333333332 50.0 L 21.0 51.0 L 20.666666666666668 52.0 L 20.333333333333332 53.0 L 20.0 54.0 L 20.0 55.0 L 19.666666666666668 56.0 L 19.333333333333332 57.0 L 19.0 58.0 L 19.0 59.0 L 18.666666666666668 60.0 L 18.333333333333332 61.0 L 18.0 62.0 L 17.666666666666668 63.0 L 17.333333333333332 64.0 L 17.0 65.0 L 17.0 66.0 L 17.0 67.0 L 17.0 68.0 L 17.333333333333332 69.0 L 17.666666666666668 70.0 L 18.0 71.0 L 18.0 72.0 L 18.333333333333332 73.0 L 18.666666666666668 74.0 L 19.0 75.0 L 19.333333333333332 76.0 L 19.666666666666668 77.0 L 20.333333333333332 78.0 L 20.666666666666668 79.0 L 21.333333333333332 80.0 L 21.666666666666668 81.0 L 22.333333333333332 82.0 L 23.0 83.0 L 23.666666666666668 84.0 L 24.333333333333332 85.0 L 25.0 86.0 L 26.0 87.0 L 27.0 88.0 L 28.0 89.0 L 29.0 89.66666666666667 L 30.0 90.33333333333333 L 31.0 91.0 L 32.0 91.66666666666667 L 33.0 92.33333333333333 L 34.0 92.66666666666667 L 35.0 93.33333333333333 L 36.0 93.66666666666667 L 37.0 94.33333333333333 L 38.0 94.66666666666667 L 39.0 95.33333333333333 L 40.0 96.0 L 41.0 96.66666666666667 L 42.0 96.66666666666667 L 43.0 96.33333333333333 L 44.0 96.0 L 45.0 96.0 L 46.0 96.0 L 47.0 96.0 L 48.0 96.0 L 49.0 96.0 L 50.0 96.0 L 51.0 96.0 L 52.0 96.0 L 53.0 96.0 L 54.0 96.0 L 55.0 96.0 L 56.0 96.0 L 57.0 96.33333333333333 L 58.0 96.66666666666667 L 58.5 97.0 Z" stroke="none" fill="rgb(112,83,74)" />
<path d="M 23.5 47.0 L 24.0 47.0 L 25.0 47.0 L 26.0 47.0 L 27.0 47.333333333333336 L 28.0 47.666666666666664 L 29.0 48.0 L 30.0 48.0 L 31.0 47.666666666666664 L 32.0 47.333333333333336 L 33.0 47.0 L 34.0 47.0 L 34.666666666666664 46.666666666666664 L 35.333333333333336 46.0 L 36.0 45.333333333333336 L 37.0 45.0 L 38.0 44.666666666666664 L 39.0 44.333333333333336 L 40.0 44.0 L 41.0 44.0 L 42.0 43.666666666666664 L 43.0 43.333333333333336 L 44.0 43.0 L 45.0 43.0 L 46.0 43.0 L 47.0 43.0 L 48.0 43.0 L 49.0 43.0 L 50.0 43.0 L 51.0 43.0 L 52.0 43.0 L 53.0 43.0 L 54.0 43.0 L 55.0 43.0 L 56.0 43.0 L 57.0 43.0 L 58.0 43.0 L 59.0 43.0 L 60.0 43.333333333333336 L 61.0 43.666666666666664 L 62.0 44.0 L 63.0 44.333333333333336 L 64.0 45.0 L 65.0 45.666666666666664 L 66.0 46.0 L 67.0 46.333333333333336 L 68.0 46.666666666666664 L 69.0 47.333333333333336 L 70.0 47.666666666666664 L 71.0 48.0 L 72.0 48.0 L 73.0 47.666666666666664 L 74.0 47.333333333333336 L 75.0 47.0 L 76.0 47.0 L 77.0 47.0 L 78.0 47.0 L 79.0 46.666666666666664 L 80.0 46.0 L 81.0 45.0 L 81.66666666666667 44.0 L 82.0 43.0 L 82.0 42.0 L 81.66666666666667 41.0 L 81.0 40.0 L 80.0 39.0 L 79.0 38.0 L 78.0 37.0 L 77.0 36.333333333333336 L 76.0 35.666666666666664 L 75.0 35.0 L 74.0 34.0 L 73.0 33.333333333333336 L 72.0 33.0 L 71.0 32.666666666666664 L 70.0 32.333333333333336 L 69.0 32.0 L 68.0 31.666666666666668 L 67.0 31.333333333333332 L 66.0 31.0 L 65.0 30.666666666666668 L 64.0 30.333333333333332 L 63.0 30.0 L 62.0 29.666666666666668 L 61.0 29.333333333333332 L 60.0 29.0 L 59.0 29.0 L 58.0 29.0 L 57.0 29.0 L 56.0 29.0 L 55.0 29.0 L 54.0 29.0 L 53.0 29.0 L 52.0 29.0 L 51.0 29.0 L 50.0 29.0 L 49.0 29.0 L 48.0 29.0 L 47.0 29.0 L 46.0 29.0 L 45.0 29.0 L 44.0 29.0 L 43.0 29.0 L 42.0 29.0 L 41.0 29.0 L 40.0 29.333333333333332 L 39.0 29.666666666666668 L 38.0 30.0 L 37.0 30.0 L 36.0 30.333333333333332 L 35.0 30.666666666666668 L 34.0 31.0 L 33.0 31.0 L 32.0 31.333333333333332 L 31.0 31.666666666666668 L 30.0 32.333333333333336 L 29.0 32.666666666666664 L 28.0 33.0 L 27.0 33.333333333333336 L 26.0 34.0 L 25.0 34.666666666666664 L 24.0 35.0 L 23.0 35.333333333333336 L 22.0 36.0 L 21.0 37.0 L 20.0 38.0 L 19.0 39.0 L 18.333333333333332 40.0 L 18.0 41.0 L 18.0 42.0 L 18.333333333333332 43.0 L 19.0 44.0 L 20.0 45.0 L 21.0 46.0 L 22.0 46.666666666666664 L 22.5 47.0 Z" stroke="none" fill="rgb(94,151,246)" />
<path d="M 103.5 72.0 L 104.0 72.0 L 105.0 72.0 L 106.0 72.0 L 107.0 72.33333333333333 L 108.0 72.66666666666667 L 109.0 73.0 L 110.0 73.0 L 111.0 73.0 L 112.0 73.0 L 113.0 73.33333333333333 L 114.0 73.66666666666667 L 115.0 74.0 L 116.0 74.0 L 117.0 74.0 L 118.0 74.0 L 119.0 74.33333333333333 L 120.0 74.66666666666667 L 121.0 75.0 L 122.0 74.66666666666667 L 122.66666666666667 74.0 L 123.0 73.0 L 123.33333333333333 72.0 L 123.66666666666667 71.0 L 124.0 70.0 L 124.0 69.0 L 124.0 68.0 L 124.0 67.0 L 124.0 66.0 L 124.0 65.0 L 124.0 64.0 L 124.0 63.0 L 124.0 62.0 L 124.0 61.0 L 124.0 60.0 L 123.66666666666667 59.0 L 123.33333333333333 58.0 L 122.66666666666667 57.0 L 122.33333333333333 56.0 L 121.66666666666667 55.333333333333336 L 121.0 55.0 L 120.0 55.0 L 119.0 55.333333333333336 L 118.33333333333333 56.0 L 118.0 57.0 L 118.0 58.0 L 117.66666666666667 59.0 L 117.33333333333333 60.0 L 117.0 61.0 L 117.0 62.0 L 117.0 63.0 L 116.66666666666667 64.0 L 116.0 65.0 L 115.0 65.66666666666667 L 114.0 66.33333333333333 L 113.0 66.66666666666667 L 112.0 67.33333333333333 L 111.0 67.66666666666667 L 110.0 68.33333333333333 L 109.0 68.66666666666667 L 108.0 69.0 L 107.0 68.66666666666667 L 106.0 68.0 L 105.0 67.0 L 104.0 66.0 L 103.0 65.0 L 102.0 64.0 L 101.0 63.0 L 100.33333333333333 62.0 L 100.33333333333333 61.0 L 100.66666666666667 60.0 L 101.0 59.0 L 101.0 58.0 L 101.0 57.0 L 101.33333333333333 56.0 L 101.66666666666667 55.0 L 102.0 54.0 L 101.66666666666667 53.0 L 101.0 52.0 L 100.0 51.333333333333336 L 99.0 51.333333333333336 L 98.0 51.666666666666664 L 97.0 52.333333333333336 L 96.0 53.0 L 95.33333333333333 54.0 L 94.66666666666667 55.0 L 94.0 56.0 L 93.33333333333333 57.0 L 93.0 58.0 L 92.66666666666667 59.0 L 92.33333333333333 60.0 L 92.0 61.0 L 92.0 62.0 L 92.0 63.0 L 92.0 64.0 L 92.0 65.0 L 92.0 66.0 L 92.0 67.0 L 92.0 68.0 L 92.0 69.0 L 92.33333333333333 69.66666666666667 L 93.0 70.0 L 94.0 70.33333333333333 L 95.0 70.66666666666667 L 96.0 71.0 L 97.0 71.0 L 98.0 71.0 L 99.0 71.0 L 100.0 71.33333333333333 L 101.0 71.66666666666667 L 102.0 72.0 L 102.5 72.0 Z" stroke="none" fill="rgb(139,159,171)" />
<path d="M 39.5 22.0 L 40.0 22.0 L 41.0 22.0 L 42.0 22.0 L 43.0 22.0 L 44.0 22.0 L 45.0 22.0 L 46.0 22.0 L 47.0 22.0 L 48.0 22.0 L 49.0 22.0 L 50.0 22.0 L 51.0 22.0 L 52.0 22.0 L 53.0 22.0 L 54.0 22.0 L 55.0 22.0 L 56.0 22.0 L 57.0 22.0 L 58.0 22.0 L 59.0 22.0 L 60.0 22.0 L 61.0 22.0 L 62.0 22.0 L 63.0 22.0 L 64.0 22.0 L 65.0 22.0 L 66.0 22.0 L 67.0 22.0 L 68.0 22.0 L 69.0 22.0 L 69.66666666666667 21.666666666666668 L 70.0 21.0 L 70.0 20.0 L 70.0 19.0 L 69.66666666666667 18.0 L 69.33333333333333 17.0 L 69.0 16.0 L 68.66666666666667 15.0 L 68.0 14.0 L 67.0 13.0 L 66.0 12.0 L 65.0 11.0 L 64.0 10.0 L 63.0 9.333333333333334 L 62.0 8.666666666666666 L 61.0 8.333333333333334 L 60.0 7.666666666666667 L 59.0 7.333333333333333 L 58.0 6.666666666666667 L 57.0 6.333333333333333 L 56.0 6.0 L 55.0 6.0 L 54.0 6.0 L 53.0 5.666666666666667 L 52.0 5.333333333333333 L 51.0 5.0 L 50.0 5.0 L 49.0 5.0 L 48.0 5.0 L 47.0 5.333333333333333 L 46.0 5.666666666666667 L 45.0 6.0 L 44.0 6.0 L 43.0 6.333333333333333 L 42.0 6.666666666666667 L 41.0 7.0 L 40.0 7.333333333333333 L 39.0 7.666666666666667 L 38.0 8.333333333333334 L 37.0 9.0 L 36.0 9.666666666666666 L 35.0 10.333333333333334 L 34.0 11.0 L 33.333333333333336 12.0 L 32.666666666666664 13.0 L 32.0 14.0 L 31.333333333333332 15.0 L 30.666666666666668 16.0 L 30.333333333333332 17.0 L 30.0 18.0 L 29.666666666666668 19.0 L 29.333333333333332 20.0 L 29.0 21.0 L 29.333333333333332 21.666666666666668 L 30.0 22.0 L 31.0 22.0 L 32.0 22.0 L 33.0 22.0 L 34.0 22.0 L 35.0 22.0 L 36.0 22.0 L 37.0 22.0 L 38.0 22.0 L 38.5 22.0 Z" stroke="none" fill="rgb(94,151,246)" />
<path d="M 95.5 118.0 L 96.0 118.0 L 97.0 118.33333333333333 L 98.0 118.66666666666667 L 99.0 119.0 L 100.0 119.0 L 101.0 119.33333333333333 L 102.0 120.0 L 103.0 120.66666666666667 L 104.0 120.66666666666667 L 105.0 120.33333333333333 L 106.0 120.0 L 107.0 119.66666666666667 L 108.0 119.0 L 109.0 118.0 L 110.0 117.0 L 110.66666666666667 116.0 L 111.33333333333333 115.0 L 111.66666666666667 114.0 L 112.0 113.0 L 112.0 112.0 L 112.0 111.0 L 112.0 110.0 L 112.0 109.0 L 112.0 108.0 L 112.0 107.0 L 112.0 106.0 L 111.66666666666667 105.0 L 111.33333333333333 104.0 L 110.66666666666667 103.0 L 110.0 102.0 L 109.33333333333333 101.0 L 108.66666666666667 100.33333333333333 L 108.0 100.0 L 107.0 99.66666666666667 L 106.0 99.0 L 105.0 98.0 L 104.0 97.33333333333333 L 103.0 96.66666666666667 L 102.0 96.33333333333333 L 101.0 95.66666666666667 L 100.0 95.33333333333333 L 99.0 95.0 L 98.0 94.66666666666667 L 97.0 94.33333333333333 L 96.0 94.0 L 95.33333333333333 94.33333333333333 L 95.0 95.0 L 95.0 96.0 L 95.0 97.0 L 95.0 98.0 L 95.0 99.0 L 95.0 100.0 L 95.0 101.0 L 95.0 102.0 L 95.0 103.0 L 95.0 104.0 L 95.0 105.0 L 95.0 106.0 L 95.0 107.0 L 95.0 108.0 L 95.0 109.0 L 95.0 110.0 L 95.0 111.0 L 95.0 112.0 L 95.0 113.0 L 95.0 114.0 L 95.0 115.0 L 95.0 116.0 L 95.0 117.0 L 95.0 117.5 Z" stroke="none" fill="rgb(112,83,74)" />
<path d="M 26.5 118.0 L 27.0 118.0 L 28.0 118.0 L 29.0 118.0 L 30.0 118.0 L 31.0 118.0 L 32.0 118.0 L 33.0 118.0 L 34.0 118.0 L 35.0 118.0 L 36.0 118.0 L 37.0 118.0 L 38.0 118.0 L 39.0 118.0 L 40.0 118.0 L 40.666666666666664 117.66666666666667 L 40.666666666666664 117.0 L 40.333333333333336 116.0 L 39.666666666666664 115.0 L 39.0 114.0 L 38.0 113.0 L 37.0 112.0 L 36.0 111.33333333333333 L 35.0 111.0 L 34.0 111.0 L 33.0 111.33333333333333 L 32.0 111.66666666666667 L 31.0 112.33333333333333 L 30.0 112.66666666666667 L 29.0 113.0 L 28.0 113.0 L 27.0 112.66666666666667 L 26.333333333333332 112.0 L 26.0 111.0 L 26.0 110.0 L 25.666666666666668 109.33333333333333 L 25.0 109.0 L 24.0 109.0 L 23.0 109.0 L 22.0 109.0 L 21.0 109.0 L 20.0 109.0 L 19.0 109.0 L 18.0 109.0 L 17.0 109.0 L 16.0 109.0 L 15.0 109.0 L 14.0 109.0 L 13.0 109.0 L 12.0 109.0 L 11.0 109.0 L 10.0 109.0 L 9.0 109.0 L 8.0 109.0 L 7.0 109.33333333333333 L 6.333333333333333 110.0 L 5.666666666666667 111.0 L 5.333333333333333 112.0 L 4.666666666666667 113.0 L 4.333333333333333 114.0 L 4.0 115.0 L 4.0 116.0 L 4.333333333333333 117.0 L 5.0 117.66666666666667 L 6.0 118.0 L 7.0 118.0 L 8.0 118.0 L 9.0 118.0 L 10.0 118.0 L 11.0 118.0 L 12.0 118.0 L 13.0 118.0 L 14.0 118.0 L 15.0 118.0 L 16.0 118.0 L 17.0 118.0 L 18.0 118.0 L 19.0 118.0 L 20.0 118.0 L 21.0 118.0 L 22.0 118.0 L 23.0 118.0 L 24.0 118.0 L 25.0 118.0 L 25.5 118.0 Z" stroke="none" fill="rgb(38,51,144)" />
<path d="M 110.5 85.0 L 110.66666666666667 84.66666666666667 L 111.33333333333333 84.0 L 112.0 83.0 L 113.0 82.33333333333333 L 114.0 81.66666666666667 L 115.0 81.33333333333333 L 116.0 80.66666666666667 L 117.0 80.33333333333333 L 118.0 79.66666666666667 L 119.0 79.0 L 120.0 78.0 L 120.66666666666667 77.0 L 121.0 76.0 L 120.66666666666667 75.0 L 120.0 74.33333333333333 L 119.0 74.0 L 118.0 74.0 L 117.0 74.0 L 116.0 74.0 L 115.0 73.66666666666667 L 114.0 73.33333333333333 L 113.0 73.0 L 112.0 73.0 L 111.0 73.0 L 110.0 73.0 L 109.0 72.66666666666667 L 108.0 72.33333333333333 L 107.0 72.0 L 106.0 72.0 L 105.0 72.0 L 104.0 72.0 L 103.0 72.0 L 102.0 71.66666666666667 L 101.0 71.33333333333333 L 100.0 71.0 L 99.0 71.0 L 98.0 71.0 L 97.0 71.0 L 96.0 70.66666666666667 L 95.0 70.33333333333333 L 94.0 70.0 L 93.0 70.0 L 92.33333333333333 70.33333333333333 L 92.0 71.0 L 92.33333333333333 72.0 L 92.66666666666667 73.0 L 93.33333333333333 74.0 L 93.66666666666667 75.0 L 94.33333333333333 76.0 L 95.0 77.0 L 96.0 78.0 L 97.0 79.0 L 97.66666666666667 80.0 L 98.33333333333333 81.0 L 98.66666666666667 82.0 L 99.33333333333333 83.0 L 100.0 83.66666666666667 L 101.0 84.0 L 102.0 84.0 L 103.0 84.0 L 104.0 84.33333333333333 L 105.0 84.66666666666667 L 106.0 85.0 L 107.0 85.0 L 108.0 85.0 L 109.0 85.0 L 109.5 85.0 Z" stroke="none" fill="rgb(132,154,165)" />
<path d="M 40.5 124.0 L 41.0 124.0 L 42.0 124.0 L 43.0 124.0 L 44.0 124.0 L 44.666666666666664 123.66666666666667 L 45.0 123.0 L 44.666666666666664 122.0 L 44.0 121.0 L 43.0 120.0 L 42.0 119.0 L 41.0 118.33333333333333 L 40.0 118.0 L 39.0 118.0 L 38.0 118.0 L 37.0 118.0 L 36.0 118.0 L 35.0 118.0 L 34.0 118.0 L 33.0 118.0 L 32.0 118.0 L 31.0 118.0 L 30.0 118.0 L 29.0 118.0 L 28.0 118.0 L 27.0 118.0 L 26.0 118.0 L 25.0 118.0 L 24.0 118.0 L 23.0 118.0 L 22.0 118.0 L 21.0 118.0 L 20.0 118.0 L 19.0 118.0 L 18.0 118.0 L 17.0 118.0 L 16.0 118.0 L 15.0 118.0 L 14.0 118.0 L 13.0 118.0 L 12.0 118.0 L 11.0 118.0 L 10.0 118.0 L 9.0 118.0 L 8.0 118.0 L 7.0 118.0 L 6.0 118.0 L 5.0 118.0 L 4.333333333333333 118.33333333333333 L 4.0 119.0 L 4.0 120.0 L 4.0 121.0 L 4.0 122.0 L 4.0 123.0 L 4.333333333333333 123.66666666666667 L 5.0 124.0 L 6.0 124.0 L 7.0 124.0 L 8.0 124.0 L 9.0 124.0 L 10.0 124.0 L 11.0 124.0 L 12.0 124.0 L 13.0 124.0 L 14.0 124.0 L 15.0 124.0 L 16.0 124.0 L 17.0 124.0 L 18.0 124.0 L 19.0 124.0 L 20.0 124.0 L 21.0 124.0 L 22.0 124.0 L 23.0 124.0 L 24.0 124.0 L 25.0 124.0 L 26.0 124.0 L 27.0 124.0 L 28.0 124.0 L 29.0 124.0 L 30.0 124.0 L 31.0 124.0 L 32.0 124.0 L 33.0 124.0 L 34.0 124.0 L 35.0 124.0 L 36.0 124.0 L 37.0 124.0 L 38.0 124.0 L 39.0 124.0 L 39.5 124.0 Z" stroke="none" fill="rgb(32,44,138)" />
<path d="M 50.5 29.0 L 51.0 29.0 L 52.0 29.0 L 53.0 29.0 L 54.0 29.0 L 55.0 29.0 L 56.0 29.0 L 57.0 29.0 L 58.0 29.0 L 59.0 29.0 L 60.0 29.333333333333332 L 61.0 29.666666666666668 L 62.0 30.0 L 63.0 30.333333333333332 L 64.0 30.666666666666668 L 65.0 31.0 L 66.0 31.333333333333332 L 67.0 31.666666666666668 L 68.0 32.0 L 68.66666666666667 31.666666666666668 L 69.33333333333333 31.0 L 70.0 30.333333333333332 L 71.0 30.0 L 71.66666666666667 29.666666666666668 L 72.0 29.0 L 72.0 28.0 L 72.0 27.0 L 71.66666666666667 26.333333333333332 L 71.0 26.0 L 70.0 26.0 L 69.0 26.0 L 68.0 26.0 L 67.0 26.0 L 66.0 26.0 L 65.0 26.0 L 64.0 26.0 L 63.0 26.0 L 62.0 26.0 L 61.0 26.0 L 60.0 26.0 L 59.0 26.0 L 58.0 26.0 L 57.0 26.0 L 56.0 26.0 L 55.0 26.0 L 54.0 26.0 L 53.0 26.0 L 52.0 26.0 L 51.0 26.0 L 50.0 26.0 L 49.0 26.0 L 48.0 26.0 L 47.0 26.0 L 46.0 26.0 L 45.0 26.0 L 44.0 26.0 L 43.0 26.0 L 42.0 26.0 L 41.0 26.0 L 40.0 26.0 L 39.0 26.0 L 38.0 26.0 L 37.0 26.0 L 36.0 26.0 L 35.0 26.0 L 34.0 26.0 L 33.0 26.0 L 32.0 26.0 L 31.0 26.0 L 30.0 26.0 L 29.0 26.0 L 28.0 26.333333333333332 L 27.333333333333332 27.0 L 27.0 28.0 L 27.0 29.0 L 27.333333333333332 29.666666666666668 L 28.0 30.0 L 29.0 30.0 L 30.0 30.0 L 31.0 30.333333333333332 L 32.0 30.666666666666668 L 33.0 31.0 L 34.0 31.0 L 35.0 31.0 L 36.0 30.666666666666668 L 37.0 30.333333333333332 L 38.0 30.0 L 39.0 30.0 L 40.0 29.666666666666668 L 41.0 29.333333333333332 L 42.0 29.0 L 43.0 29.0 L 44.0 29.0 L 45.0 29.0 L 46.0 29.0 L 47.0 29.0 L 48.0 29.0 L 49.0 29.0 L 49.5 29.0 Z" stroke="none" fill="rgb(65,137,227)" />
<path d="M 91.5 124.0 L 91.66666666666667 123.66666666666667 L 92.0 123.0 L 92.0 122.0 L 92.0 121.0 L 91.66666666666667 120.0 L 91.0 119.33333333333333 L 90.0 118.66666666666667 L 89.0 118.33333333333333 L 88.0 118.0 L 87.0 118.0 L 86.0 118.0 L 85.0 118.0 L 84.0 118.0 L 83.0 118.0 L 82.0 118.0 L 81.0 118.0 L 80.0 118.0 L 79.0 118.0 L 78.0 118.0 L 77.0 118.0 L 76.0 118.0 L 75.0 118.0 L 74.0 118.0 L 73.0 118.0 L 72.0 118.0 L 71.0 118.0 L 70.0 118.0 L 69.0 118.0 L 68.0 118.0 L 67.0 118.0 L 66.0 118.0 L 65.0 118.0 L 64.0 118.0 L 63.0 118.0 L 62.0 118.0 L 61.0 118.0 L 60.0 118.33333333333333 L 59.0 119.0 L 58.0 120.0 L 57.0 121.0 L 56.333333333333336 122.0 L 56.0 123.0 L 56.333333333333336 123.66666666666667 L 57.0 124.0 L 58.0 124.0 L 59.0 124.0 L 60.0 124.0 L 61.0 124.0 L 62.0 124.0 L 63.0 124.0 L 64.0 124.0 L 65.0 124.0 L 66.0 124.0 L 67.0 124.0 L 68.0 124.0 L 69.0 124.0 L 70.0 124.0 L 71.0 124.0 L 72.0 124.0 L 73.0 124.0 L 74.0 124.0 L 75.0 124.0 L 76.0 124.0 L 77.0 124.0 L 78.0 124.0 L 79.0 124.0 L 80.0 124.0 L 81.0 124.0 L 82.0 124.0 L 83.0 124.0 L 84.0 124.0 L 85.0 124.0 L 86.0 124.0 L 87.0 124.0 L 88.0 124.0 L 89.0 124.0 L 90.0 124.0 L 90.5 124.0 Z" stroke="none" fill="rgb(32,44,138)" />
<path d="M 78.5 118.0 L 79.0 118.0 L 80.0 118.0 L 81.0 118.0 L 82.0 118.0 L 83.0 118.0 L 84.0 118.0 L 85.0 118.0 L 86.0 118.0 L 87.0 118.0 L 87.66666666666667 117.66666666666667 L 88.0 117.0 L 88.0 116.0 L 88.0 115.0 L 88.0 114.0 L 88.0 113.0 L 88.0 112.0 L 87.66666666666667 111.0 L 87.0 110.0 L 86.0 109.33333333333333 L 85.0 109.0 L 84.0 109.0 L 83.0 109.0 L 82.0 109.0 L 81.0 109.0 L 80.0 109.0 L 79.0 109.0 L 78.0 109.0 L 77.0 109.0 L 76.0 109.0 L 75.0 109.0 L 74.33333333333333 109.33333333333333 L 74.0 110.0 L 74.0 111.0 L 73.66666666666667 112.0 L 73.0 112.66666666666667 L 72.0 113.0 L 71.0 112.66666666666667 L 70.0 112.33333333333333 L 69.0 111.66666666666667 L 68.0 111.33333333333333 L 67.0 111.0 L 66.0 111.0 L 65.0 111.33333333333333 L 64.0 112.0 L 63.0 113.0 L 62.0 114.0 L 61.333333333333336 115.0 L 60.666666666666664 116.0 L 60.333333333333336 117.0 L 60.333333333333336 117.66666666666667 L 61.0 118.0 L 62.0 118.0 L 63.0 118.0 L 64.0 118.0 L 65.0 118.0 L 66.0 118.0 L 67.0 118.0 L 68.0 118.0 L 69.0 118.0 L 70.0 118.0 L 71.0 118.0 L 72.0 118.0 L 73.0 118.0 L 74.0 118.0 L 75.0 118.0 L 76.0 118.0 L 77.0 118.0 L 77.5 118.0 Z" stroke="none" fill="rgb(38,51,144)" />
<path d="M 68.5 26.0 L 69.0 26.0 L 70.0 26.0 L 71.0 26.0 L 71.66666666666667 25.666666666666668 L 72.0 25.0 L 72.0 24.0 L 71.66666666666667 23.0 L 71.0 22.333333333333332 L 70.0 22.0 L 69.0 22.0 L 68.0 22.0 L 67.0 22.0 L 66.0 22.0 L 65.0 22.0 L 64.0 22.0 L 63.0 22.0 L 62.0 22.0 L 61.0 22.0 L 60.0 22.0 L 59.0 22.0 L 58.0 22.0 L 57.0 22.0 L 56.0 22.0 L 55.0 22.0 L 54.0 22.0 L 53.0 22.0 L 52.0 22.0 L 51.0 22.0 L 50.0 22.0 L 49.0 22.0 L 48.0 22.0 L 47.0 22.0 L 46.0 22.0 L 45.0 22.0 L 44.0 22.0 L 43.0 22.0 L 42.0 22.0 L 41.0 22.0 L 40.0 22.0 L 39.0 22.0 L 38.0 22.0 L 37.0 22.0 L 36.0 22.0 L 35.0 22.0 L 34.0 22.0 L 33.0 22.0 L 32.0 22.0 L 31.0 22.0 L 30.0 22.0 L 29.0 22.0 L 28.333333333333332 22.333333333333332 L 28.0 23.0 L 28.0 24.0 L 28.0 25.0 L 28.333333333333332 25.666666666666668 L 29.0 26.0 L 30.0 26.0 L 31.0 26.0 L 32.0 26.0 L 33.0 26.0 L 34.0 26.0 L 35.0 26.0 L 36.0 26.0 L 37.0 26.0 L 38.0 26.0 L 39.0 26.0 L 40.0 26.0 L 41.0 26.0 L 42.0 26.0 L 43.0 26.0 L 44.0 26.0 L 45.0 26.0 L 46.0 26.0 L 47.0 26.0 L 48.0 26.0 L 49.0 26.0 L 50.0 26.0 L 51.0 26.0 L 52.0 26.0 L 53.0 26.0 L 54.0 26.0 L 55.0 26.0 L 56.0 26.0 L 57.0 26.0 L 58.0 26.0 L 59.0 26.0 L 60.0 26.0 L 61.0 26.0 L 62.0 26.0 L 63.0 26.0 L 64.0 26.0 L 65.0 26.0 L 66.0 26.0 L 67.0 26.0 L 67.5 26.0 Z" stroke="none" fill="rgb(79,144,235)" />
<path d="M 24.5 109.0 L 25.0 109.33333333333333 L 26.0 109.66666666666667 L 27.0 109.66666666666667 L 27.666666666666668 109.0 L 28.333333333333332 108.0 L 28.666666666666668 107.0 L 29.333333333333332 106.0 L 29.666666666666668 105.0 L 30.333333333333332 104.0 L 30.666666666666668 103.0 L 31.0 102.0 L 31.333333333333332 101.0 L 31.666666666666668 100.0 L 32.0 99.0 L 32.0 98.0 L 31.666666666666668 97.33333333333333 L 31.0 97.0 L 30.0 97.0 L 29.0 97.33333333333333 L 28.0 97.66666666666667 L 27.0 98.0 L 26.0 98.0 L 25.0 98.33333333333333 L 24.0 98.66666666666667 L 23.0 99.0 L 22.0 99.33333333333333 L 21.0 99.66666666666667 L 20.0 100.0 L 19.0 100.33333333333333 L 18.0 100.66666666666667 L 17.0 101.33333333333333 L 16.0 101.66666666666667 L 15.0 102.33333333333333 L 14.0 103.0 L 13.0 103.66666666666667 L 12.0 104.33333333333333 L 11.0 105.0 L 10.0 106.0 L 9.333333333333334 107.0 L 9.0 108.0 L 9.333333333333334 108.66666666666667 L 10.0 109.0 L 11.0 109.0 L 12.0 109.0 L 13.0 109.0 L 14.0 109.0 L 15.0 109.0 L 16.0 109.0 L 17.0 109.0 L 18.0 109.0 L 19.0 109.0 L 20.0 109.0 L 21.0 109.0 L 22.0 109.0 L 23.0 109.0 L 23.5 109.0 Z" stroke="none" fill="rgb(44,58,153)" />
<path d="M 69.5 61.5 L 69.66666666666667 61.0 L 70.0 60.0 L 70.0 59.0 L 70.0 58.0 L 70.0 57.0 L 70.0 56.0 L 69.66666666666667 55.0 L 69.66666666666667 54.0 L 70.0 53.333333333333336 L 71.0 53.0 L 72.0 53.0 L 73.0 53.0 L 73.66666666666667 52.666666666666664 L 74.0 52.0 L 74.0 51.0 L 74.0 50.0 L 73.66666666666667 49.0 L 73.0 48.333333333333336 L 72.0 48.0 L 71.0 47.666666666666664 L 70.0 47.333333333333336 L 69.0 46.666666666666664 L 68.0 46.333333333333336 L 67.0 46.0 L 66.0 46.0 L 65.0 46.333333333333336 L 64.0 47.0 L 63.0 47.666666666666664 L 62.0 48.0 L 61.0 48.333333333333336 L 60.0 49.0 L 59.333333333333336 50.0 L 59.0 51.0 L 59.0 52.0 L 59.333333333333336 52.666666666666664 L 60.0 53.0 L 61.0 53.333333333333336 L 61.333333333333336 54.0 L 61.333333333333336 55.0 L 61.0 56.0 L 61.0 57.0 L 61.0 58.0 L 61.0 59.0 L 61.0 60.0 L 61.0 61.0 L 61.333333333333336 62.0 L 62.0 62.666666666666664 L 63.0 63.0 L 64.0 63.0 L 65.0 63.0 L 66.0 63.0 L 67.0 63.0 L 68.0 62.666666666666664 L 68.5 62.5 Z" stroke="none" fill="rgb(26,23,23)" />
<path d="M 40.5 53.5 L 40.666666666666664 53.0 L 41.0 52.0 L 41.0 51.0 L 40.666666666666664 50.0 L 40.0 49.0 L 39.0 48.333333333333336 L 38.0 47.666666666666664 L 37.0 47.333333333333336 L 36.0 47.0 L 35.0 47.0 L 34.0 47.0 L 33.0 47.0 L 32.0 47.0 L 31.0 47.333333333333336 L 30.0 47.666666666666664 L 29.0 48.0 L 28.0 48.333333333333336 L 27.0 49.0 L 26.333333333333332 50.0 L 26.0 51.0 L 26.0 52.0 L 26.333333333333332 52.666666666666664 L 27.0 53.0 L 28.0 53.0 L 29.0 53.0 L 30.0 53.0 L 31.0 53.333333333333336 L 31.333333333333332 54.0 L 31.0 54.666666666666664 L 30.333333333333332 55.333333333333336 L 30.0 56.0 L 29.666666666666668 57.0 L 29.333333333333332 58.0 L 29.0 59.0 L 29.0 60.0 L 29.333333333333332 61.0 L 30.0 62.0 L 31.0 62.666666666666664 L 32.0 63.0 L 33.0 63.0 L 34.0 63.0 L 35.0 63.0 L 36.0 63.0 L 37.0 62.666666666666664 L 38.0 62.0 L 38.666666666666664 61.0 L 39.0 60.0 L 39.0 59.0 L 39.0 58.0 L 39.0 57.0 L 39.0 56.0 L 39.333333333333336 55.0 L 39.5 54.5 Z" stroke="none" fill="rgb(26,23,23)" />
<path d="M 52.0 123.5 L 52.333333333333336 123.0 L 52.666666666666664 122.0 L 53.0 121.0 L 53.0 120.0 L 53.333333333333336 119.0 L 53.666666666666664 118.0 L 54.0 117.0 L 54.0 116.0 L 54.333333333333336 115.0 L 54.666666666666664 114.0 L 55.0 113.0 L 55.333333333333336 112.0 L 55.666666666666664 111.0 L 56.0 110.0 L 56.0 109.0 L 56.0 108.0 L 56.0 107.0 L 56.0 106.0 L 55.666666666666664 105.33333333333333 L 55.0 105.0 L 54.0 105.0 L 53.0 105.0 L 52.0 105.0 L 51.0 105.0 L 50.0 105.0 L 49.0 105.0 L 48.0 105.0 L 47.0 105.0 L 46.0 105.0 L 45.0 105.0 L 44.333333333333336 105.33333333333333 L 44.0 106.0 L 44.0 107.0 L 44.0 108.0 L 44.0 109.0 L 44.333333333333336 110.0 L 44.666666666666664 111.0 L 45.0 112.0 L 45.0 113.0 L 45.0 114.0 L 45.333333333333336 115.0 L 45.666666666666664 116.0 L 46.333333333333336 117.0 L 46.666666666666664 118.0 L 47.0 119.0 L 47.0 120.0 L 47.333333333333336 121.0 L 47.666666666666664 122.0 L 48.0 123.0 L 48.333333333333336 123.66666666666667 L 49.0 124.0 L 50.0 124.0 L 51.0 124.0 L 51.5 124.0 Z" stroke="none" fill="rgb(245,245,245)" />
<path d="M 95.0 117.5 L 95.0 117.0 L 95.0 116.0 L 95.0 115.0 L 95.0 114.0 L 95.0 113.0 L 95.0 112.0 L 95.0 111.0 L 95.0 110.0 L 95.0 109.0 L 95.0 108.0 L 95.0 107.0 L 95.0 106.0 L 95.0 105.0 L 95.0 104.0 L 95.0 103.0 L 95.0 102.0 L 95.0 101.0 L 95.0 100.0 L 95.0 99.0 L 95.0 98.0 L 95.0 97.0 L 95.0 96.0 L 94.66666666666667 95.33333333333333 L 94.0 95.0 L 93.0 95.0 L 92.0 95.33333333333333 L 91.33333333333333 96.0 L 91.0 97.0 L 91.0 98.0 L 90.66666666666667 99.0 L 90.0 99.66666666666667 L 89.0 100.33333333333333 L 88.33333333333333 101.0 L 88.0 102.0 L 88.0 103.0 L 88.0 104.0 L 88.0 105.0 L 87.66666666666667 106.0 L 87.33333333333333 107.0 L 86.66666666666667 108.0 L 86.33333333333333 109.0 L 86.33333333333333 110.0 L 87.0 111.0 L 87.66666666666667 112.0 L 88.0 113.0 L 88.0 114.0 L 88.0 115.0 L 88.0 116.0 L 88.0 117.0 L 88.33333333333333 118.0 L 89.0 118.66666666666667 L 90.0 119.33333333333333 L 91.0 119.66666666666667 L 92.0 120.0 L 93.0 119.66666666666667 L 94.0 119.0 L 94.5 118.5 Z" stroke="none" fill="rgb(98,72,63)" />
<path d="M 78.5 109.0 L 79.0 109.0 L 80.0 109.0 L 81.0 109.0 L 82.0 109.0 L 83.0 109.0 L 84.0 109.0 L 85.0 109.0 L 86.0 109.0 L 86.66666666666667 108.66666666666667 L 87.33333333333333 108.0 L 88.0 107.0 L 88.66666666666667 106.0 L 88.66666666666667 105.33333333333333 L 88.0 104.66666666666667 L 87.0 104.0 L 86.0 103.33333333333333 L 85.0 102.66666666666667 L 84.0 102.33333333333333 L 83.0 101.66666666666667 L 82.0 101.33333333333333 L 81.0 100.66666666666667 L 80.0 100.33333333333333 L 79.0 100.0 L 78.0 99.66666666666667 L 77.0 99.33333333333333 L 76.0 99.0 L 75.0 98.66666666666667 L 74.0 98.33333333333333 L 73.0 98.0 L 72.0 97.66666666666667 L 71.0 97.33333333333333 L 70.0 97.0 L 69.0 97.0 L 68.33333333333333 97.33333333333333 L 68.0 98.0 L 68.0 99.0 L 68.33333333333333 100.0 L 68.66666666666667 101.0 L 69.33333333333333 102.0 L 69.66666666666667 103.0 L 70.33333333333333 104.0 L 70.66666666666667 105.0 L 71.0 106.0 L 71.33333333333333 107.0 L 72.0 108.0 L 72.66666666666667 109.0 L 73.33333333333333 109.66666666666667 L 74.0 109.66666666666667 L 75.0 109.33333333333333 L 76.0 109.0 L 77.0 109.0 L 77.5 109.0 Z" stroke="none" fill="rgb(44,58,153)" />
<path d="M 104.5 98.5 L 105.0 99.0 L 106.0 99.66666666666667 L 107.0 100.0 L 107.66666666666667 99.66666666666667 L 108.0 99.0 L 108.0 98.0 L 108.0 97.0 L 108.0 96.0 L 108.33333333333333 95.0 L 108.66666666666667 94.0 L 109.0 93.0 L 109.0 92.0 L 109.0 91.0 L 109.33333333333333 90.0 L 109.66666666666667 89.0 L 110.0 88.0 L 110.0 87.0 L 110.0 86.0 L 109.66666666666667 85.33333333333333 L 109.0 85.0 L 108.0 85.0 L 107.0 85.0 L 106.0 84.66666666666667 L 105.0 84.33333333333333 L 104.0 84.0 L 103.0 84.0 L 102.0 84.0 L 101.0 84.0 L 100.0 84.0 L 99.33333333333333 84.33333333333333 L 98.66666666666667 85.0 L 98.33333333333333 86.0 L 98.0 87.0 L 98.0 88.0 L 98.0 89.0 L 97.66666666666667 90.0 L 97.33333333333333 91.0 L 97.0 92.0 L 97.0 93.0 L 97.0 94.0 L 97.33333333333333 94.66666666666667 L 98.0 95.0 L 99.0 95.33333333333333 L 100.0 95.66666666666667 L 101.0 96.33333333333333 L 102.0 96.66666666666667 L 103.0 97.33333333333333 L 103.5 97.5 Z" stroke="none" fill="rgb(122,146,158)" />
<path d="M 43.5 105.0 L 44.0 105.0 L 45.0 105.0 L 46.0 105.0 L 47.0 105.0 L 48.0 105.0 L 49.0 105.0 L 50.0 105.0 L 51.0 105.0 L 52.0 105.0 L 53.0 105.0 L 54.0 105.0 L 55.0 105.0 L 56.0 105.0 L 57.0 104.66666666666667 L 57.666666666666664 104.0 L 58.0 103.0 L 58.0 102.0 L 58.0 101.0 L 58.333333333333336 100.0 L 58.666666666666664 99.0 L 59.0 98.0 L 58.666666666666664 97.0 L 58.0 96.33333333333333 L 57.0 96.0 L 56.0 96.0 L 55.0 96.0 L 54.0 96.0 L 53.0 96.0 L 52.0 96.0 L 51.0 96.0 L 50.0 96.0 L 49.0 96.0 L 48.0 96.0 L 47.0 96.0 L 46.0 96.0 L 45.0 96.0 L 44.0 96.0 L 43.0 96.0 L 42.333333333333336 96.33333333333333 L 42.0 97.0 L 42.0 98.0 L 42.0 99.0 L 42.0 100.0 L 42.0 101.0 L 42.333333333333336 102.0 L 42.666666666666664 103.0 L 43.0 104.0 L 43.0 104.5 Z" stroke="none" fill="rgb(60,43,37)" />
<path d="M 66.5 111.0 L 67.0 111.33333333333333 L 68.0 111.66666666666667 L 69.0 112.33333333333333 L 70.0 112.66666666666667 L 71.0 113.0 L 72.0 113.0 L 73.0 113.0 L 73.66666666666667 112.66666666666667 L 74.0 112.0 L 74.0 111.0 L 73.66666666666667 110.0 L 73.33333333333333 109.0 L 72.66666666666667 108.0 L 72.0 107.33333333333333 L 71.0 107.0 L 70.0 107.0 L 69.0 107.0 L 68.0 106.66666666666667 L 67.0 106.33333333333333 L 66.0 106.0 L 65.0 105.66666666666667 L 64.0 105.33333333333333 L 63.0 105.0 L 62.0 105.0 L 61.0 104.66666666666667 L 60.0 104.33333333333333 L 59.0 104.0 L 58.0 104.0 L 57.0 104.33333333333333 L 56.333333333333336 105.0 L 56.0 106.0 L 56.0 107.0 L 56.0 108.0 L 56.0 109.0 L 55.666666666666664 110.0 L 55.333333333333336 111.0 L 55.0 112.0 L 55.333333333333336 112.66666666666667 L 56.0 113.33333333333333 L 57.0 113.66666666666667 L 58.0 114.0 L 59.0 114.33333333333333 L 60.0 114.66666666666667 L 61.0 115.0 L 62.0 114.66666666666667 L 63.0 114.0 L 64.0 113.0 L 65.0 112.0 L 65.5 111.5 Z" stroke="none" fill="rgb(77,92,183)" />
<path d="M 59.5 80.5 L 60.0 80.0 L 60.666666666666664 79.0 L 61.0 78.0 L 61.0 77.0 L 60.666666666666664 76.33333333333333 L 60.0 76.0 L 59.0 76.0 L 58.0 76.33333333333333 L 57.0 76.66666666666667 L 56.0 77.0 L 55.0 77.0 L 54.0 77.0 L 53.0 77.0 L 52.0 77.0 L 51.0 77.0 L 50.0 77.0 L 49.0 77.0 L 48.0 77.0 L 47.0 77.0 L 46.0 77.0 L 45.0 76.66666666666667 L 44.0 76.33333333333333 L 43.0 76.0 L 42.0 76.0 L 41.0 76.0 L 40.0 76.0 L 39.333333333333336 76.33333333333333 L 39.0 77.0 L 39.0 78.0 L 39.333333333333336 79.0 L 40.0 80.0 L 41.0 81.0 L 42.0 81.66666666666667 L 43.0 82.0 L 44.0 82.33333333333333 L 45.0 82.66666666666667 L 46.0 83.0 L 47.0 83.0 L 48.0 83.0 L 49.0 83.0 L 50.0 83.0 L 51.0 83.0 L 52.0 83.0 L 53.0 83.0 L 54.0 83.0 L 55.0 83.0 L 56.0 83.0 L 57.0 82.66666666666667 L 58.0 82.0 L 58.5 81.5 Z" stroke="none" fill="rgb(26,23,23)" />
<path d="M 43.5 114.0 L 44.0 114.0 L 44.666666666666664 113.66666666666667 L 45.0 113.0 L 45.0 112.0 L 45.0 111.0 L 44.666666666666664 110.0 L 44.333333333333336 109.0 L 44.0 108.0 L 44.0 107.0 L 44.0 106.0 L 43.666666666666664 105.0 L 43.0 104.33333333333333 L 42.0 104.0 L 41.0 104.33333333333333 L 40.0 104.66666666666667 L 39.0 105.0 L 38.0 105.33333333333333 L 37.0 105.66666666666667 L 36.0 106.33333333333333 L 35.0 106.66666666666667 L 34.0 107.0 L 33.0 107.33333333333333 L 32.0 107.66666666666667 L 31.0 108.33333333333333 L 30.0 108.66666666666667 L 29.0 109.0 L 28.0 109.0 L 27.0 109.33333333333333 L 26.333333333333332 110.0 L 26.0 111.0 L 26.0 112.0 L 26.333333333333332 112.66666666666667 L 27.0 113.0 L 28.0 113.0 L 29.0 113.0 L 30.0 113.0 L 31.0 112.66666666666667 L 32.0 112.33333333333333 L 33.0 111.66666666666667 L 34.0 111.33333333333333 L 35.0 111.33333333333333 L 36.0 112.0 L 37.0 113.0 L 38.0 114.0 L 39.0 114.66666666666667 L 40.0 115.0 L 41.0 114.66666666666667 L 42.0 114.33333333333333 L 42.5 114.0 Z" stroke="none" fill="rgb(77,92,183)" />
<path d="M 40.5 105.0 L 41.0 104.66666666666667 L 42.0 104.33333333333333 L 42.666666666666664 103.66666666666667 L 43.0 103.0 L 42.666666666666664 102.0 L 42.333333333333336 101.0 L 42.0 100.0 L 42.0 99.0 L 42.0 98.0 L 41.666666666666664 97.0 L 41.0 96.33333333333333 L 40.0 96.0 L 39.0 96.0 L 38.0 96.0 L 37.0 96.0 L 36.0 96.0 L 35.0 96.0 L 34.0 96.0 L 33.0 96.33333333333333 L 32.333333333333336 97.0 L 32.0 98.0 L 31.666666666666668 99.0 L 31.333333333333332 100.0 L 31.0 101.0 L 30.666666666666668 102.0 L 30.333333333333332 103.0 L 29.666666666666668 104.0 L 29.333333333333332 105.0 L 28.666666666666668 106.0 L 28.333333333333332 107.0 L 28.0 108.0 L 28.333333333333332 108.66666666666667 L 29.0 109.0 L 30.0 109.0 L 31.0 108.66666666666667 L 32.0 108.33333333333333 L 33.0 107.66666666666667 L 34.0 107.33333333333333 L 35.0 107.0 L 36.0 106.66666666666667 L 37.0 106.33333333333333 L 38.0 105.66666666666667 L 39.0 105.33333333333333 L 39.5 105.0 Z" stroke="none" fill="rgb(86,102,189)" />
<path d="M 62.5 105.0 L 63.0 105.33333333333333 L 64.0 105.66666666666667 L 65.0 106.0 L 66.0 106.33333333333333 L 67.0 106.66666666666667 L 68.0 107.0 L 69.0 107.0 L 70.0 107.0 L 70.66666666666667 106.66666666666667 L 71.0 106.0 L 71.0 105.0 L 70.66666666666667 104.0 L 70.33333333333333 103.0 L 69.66666666666667 102.0 L 69.33333333333333 101.0 L 68.66666666666667 100.0 L 68.33333333333333 99.0 L 68.0 98.0 L 67.66666666666667 97.0 L 67.0 96.33333333333333 L 66.0 96.0 L 65.0 96.0 L 64.0 96.0 L 63.0 96.0 L 62.0 96.0 L 61.0 96.0 L 60.0 96.0 L 59.333333333333336 96.33333333333333 L 59.0 97.0 L 58.666666666666664 98.0 L 58.333333333333336 99.0 L 58.0 100.0 L 58.0 101.0 L 58.0 102.0 L 58.0 103.0 L 58.333333333333336 103.66666666666667 L 59.0 104.33333333333333 L 60.0 104.66666666666667 L 61.0 105.0 L 61.5 105.0 Z" stroke="none" fill="rgb(86,102,189)" />
<path d="M 111.5 124.0 L 112.0 124.0 L 113.0 124.0 L 114.0 124.0 L 115.0 124.0 L 115.66666666666667 123.66666666666667 L 116.0 123.0 L 116.0 122.0 L 116.0 121.0 L 116.0 120.0 L 116.0 119.0 L 115.66666666666667 118.0 L 115.33333333333333 117.0 L 115.0 116.0 L 115.0 115.0 L 114.66666666666667 114.0 L 114.33333333333333 113.0 L 113.66666666666667 112.33333333333333 L 113.0 112.0 L 112.33333333333333 112.33333333333333 L 111.66666666666667 113.0 L 111.33333333333333 114.0 L 110.66666666666667 115.0 L 110.0 116.0 L 109.0 117.0 L 108.0 118.0 L 107.0 119.0 L 106.0 119.66666666666667 L 105.0 120.0 L 104.0 120.33333333333333 L 103.33333333333333 121.0 L 103.0 122.0 L 103.0 123.0 L 103.33333333333333 123.66666666666667 L 104.0 124.0 L 105.0 124.0 L 106.0 124.0 L 107.0 124.0 L 108.0 124.0 L 109.0 124.0 L 110.0 124.0 L 110.5 124.0 Z" stroke="none" fill="rgb(32,44,138)" />
<path d="M 72.5 22.5 L 73.0 22.333333333333332 L 74.0 22.0 L 75.0 22.0 L 76.0 22.0 L 77.0 22.0 L 78.0 22.0 L 79.0 22.0 L 80.0 22.0 L 81.0 21.666666666666668 L 81.66666666666667 21.0 L 81.66666666666667 20.0 L 81.33333333333333 19.0 L 80.66666666666667 18.0 L 80.0 17.0 L 79.0 16.0 L 78.33333333333333 15.0 L 77.66666666666667 14.333333333333334 L 77.0 14.0 L 76.0 14.0 L 75.0 14.0 L 74.0 14.0 L 73.0 14.0 L 72.0 14.0 L 71.0 14.0 L 70.0 14.0 L 69.33333333333333 14.333333333333334 L 69.0 15.0 L 69.0 16.0 L 69.0 17.0 L 69.33333333333333 18.0 L 69.66666666666667 19.0 L 70.0 20.0 L 70.0 21.0 L 70.33333333333333 22.0 L 71.0 22.666666666666668 L 71.5 23.0 Z" stroke="none" fill="rgb(49,129,216)" />
<path d="M 21.5 22.0 L 22.0 22.0 L 23.0 22.0 L 24.0 22.0 L 25.0 22.0 L 26.0 22.0 L 27.0 22.0 L 28.0 22.0 L 28.666666666666668 21.666666666666668 L 29.333333333333332 21.0 L 29.666666666666668 20.0 L 30.0 19.0 L 30.333333333333332 18.0 L 30.666666666666668 17.0 L 31.0 16.0 L 31.0 15.0 L 30.666666666666668 14.333333333333334 L 30.0 14.0 L 29.0 14.0 L 28.0 14.0 L 27.0 14.0 L 26.0 14.0 L 25.0 14.0 L 24.0 14.0 L 23.0 14.0 L 22.0 14.333333333333334 L 21.333333333333332 15.0 L 20.666666666666668 16.0 L 20.0 17.0 L 19.333333333333332 18.0 L 18.666666666666668 19.0 L 18.333333333333332 20.0 L 18.333333333333332 21.0 L 19.0 21.666666666666668 L 20.0 22.0 L 20.5 22.0 Z" stroke="none" fill="rgb(49,129,216)" />
<path d="M 74.5 35.5 L 75.0 35.666666666666664 L 76.0 36.0 L 76.66666666666667 35.666666666666664 L 77.33333333333333 35.0 L 78.0 34.333333333333336 L 79.0 34.0 L 80.0 34.0 L 81.0 34.0 L 82.0 34.0 L 83.0 34.0 L 84.0 34.0 L 85.0 34.0 L 85.66666666666667 33.666666666666664 L 86.0 33.0 L 86.0 32.0 L 86.0 31.0 L 85.66666666666667 30.0 L 85.33333333333333 29.0 L 84.66666666666667 28.333333333333332 L 84.0 28.0 L 83.0 28.0 L 82.0 28.0 L 81.0 28.0 L 80.0 28.0 L 79.0 28.0 L 78.0 28.0 L 77.0 28.0 L 76.0 28.0 L 75.0 28.0 L 74.0 28.0 L 73.33333333333333 28.333333333333332 L 73.0 29.0 L 73.0 30.0 L 73.0 31.0 L 73.0 32.0 L 73.0 33.0 L 73.33333333333333 34.0 L 73.5 34.5 Z" stroke="none" fill="rgb(19,113,194)" />
<path d="M 19.5 34.0 L 20.0 34.0 L 21.0 34.0 L 22.0 34.333333333333336 L 23.0 34.666666666666664 L 24.0 35.0 L 25.0 35.0 L 26.0 34.666666666666664 L 26.666666666666668 34.0 L 27.0 33.0 L 27.0 32.0 L 27.0 31.0 L 27.0 30.0 L 27.0 29.0 L 26.666666666666668 28.333333333333332 L 26.0 28.0 L 25.0 28.0 L 24.0 28.0 L 23.0 28.0 L 22.0 28.0 L 21.0 28.0 L 20.0 28.0 L 19.0 28.0 L 18.0 28.0 L 17.0 28.0 L 16.0 28.0 L 15.0 28.333333333333332 L 14.333333333333334 29.0 L 14.0 30.0 L 14.0 31.0 L 14.0 32.0 L 14.0 33.0 L 14.333333333333334 33.666666666666664 L 15.0 34.0 L 16.0 34.0 L 17.0 34.0 L 18.0 34.0 L 18.5 34.0 Z" stroke="none" fill="rgb(19,113,194)" />
<path d="M 85.0 27.5 L 85.0 27.0 L 84.66666666666667 26.0 L 84.33333333333333 25.0 L 83.66666666666667 24.0 L 83.33333333333333 23.0 L 82.66666666666667 22.0 L 82.0 21.333333333333332 L 81.0 21.333333333333332 L 80.0 21.666666666666668 L 79.0 22.0 L 78.0 22.0 L 77.0 22.0 L 76.0 22.0 L 75.0 22.0 L 74.0 22.0 L 73.0 22.0 L 72.33333333333333 22.333333333333332 L 72.0 23.0 L 72.0 24.0 L 72.0 25.0 L 72.0 26.0 L 72.0 27.0 L 72.0 28.0 L 72.0 29.0 L 72.0 30.0 L 72.33333333333333 30.666666666666668 L 72.66666666666667 30.666666666666668 L 73.0 30.0 L 73.33333333333333 29.0 L 74.0 28.333333333333332 L 75.0 28.0 L 76.0 28.0 L 77.0 28.0 L 78.0 28.0 L 79.0 28.0 L 80.0 28.0 L 81.0 28.0 L 82.0 28.0 L 83.0 28.0 L 84.0 28.0 L 84.5 28.0 Z" stroke="none" fill="rgb(33,121,204)" />
<path d="M 87.0 44.5 L 87.0 44.0 L 87.0 43.0 L 87.0 42.0 L 87.0 41.0 L 87.0 40.0 L 87.0 39.0 L 87.0 38.0 L 87.0 37.0 L 87.0 36.0 L 87.0 35.0 L 86.66666666666667 34.333333333333336 L 86.0 34.0 L 85.0 34.0 L 84.0 34.0 L 83.0 34.0 L 82.0 34.0 L 81.0 34.0 L 80.0 34.0 L 79.0 34.0 L 78.0 34.0 L 77.33333333333333 34.333333333333336 L 77.0 35.0 L 77.0 36.0 L 77.33333333333333 37.0 L 78.0 38.0 L 79.0 39.0 L 80.0 40.0 L 81.0 41.0 L 81.66666666666667 42.0 L 82.33333333333333 43.0 L 83.0 43.666666666666664 L 84.0 44.333333333333336 L 85.0 44.666666666666664 L 86.0 45.0 L 86.5 45.0 Z" stroke="none" fill="rgb(5,106,183)" />
<path d="M 21.5 28.0 L 22.0 28.0 L 23.0 28.0 L 24.0 28.0 L 25.0 28.0 L 26.0 28.0 L 27.0 27.666666666666668 L 27.666666666666668 27.0 L 28.0 26.0 L 28.0 25.0 L 28.0 24.0 L 28.0 23.0 L 27.666666666666668 22.333333333333332 L 27.0 22.0 L 26.0 22.0 L 25.0 22.0 L 24.0 22.0 L 23.0 22.0 L 22.0 22.0 L 21.0 22.0 L 20.0 21.666666666666668 L 19.0 21.333333333333332 L 18.0 21.0 L 17.333333333333332 21.333333333333332 L 17.0 22.0 L 16.666666666666668 23.0 L 16.333333333333332 24.0 L 15.666666666666666 25.0 L 15.333333333333334 26.0 L 15.0 27.0 L 15.333333333333334 27.666666666666668 L 16.0 28.0 L 17.0 28.0 L 18.0 28.0 L 19.0 28.0 L 20.0 28.0 L 20.5 28.0 Z" stroke="none" fill="rgb(33,121,204)" />
<path d="M 19.5 39.5 L 20.0 39.0 L 21.0 38.0 L 22.0 37.0 L 22.666666666666668 36.0 L 23.0 35.0 L 22.666666666666668 34.333333333333336 L 22.0 34.0 L 21.0 34.0 L 20.0 34.0 L 19.0 34.0 L 18.0 34.0 L 17.0 34.0 L 16.0 34.0 L 15.0 34.0 L 14.0 34.333333333333336 L 13.333333333333334 35.0 L 13.0 36.0 L 13.0 37.0 L 13.0 38.0 L 13.0 39.0 L 13.0 40.0 L 13.0 41.0 L 13.0 42.0 L 13.0 43.0 L 13.333333333333334 44.0 L 14.0 44.666666666666664 L 15.0 44.666666666666664 L 16.0 44.0 L 17.0 43.333333333333336 L 17.666666666666668 42.666666666666664 L 18.0 42.0 L 18.333333333333332 41.0 L 18.5 40.5 Z" stroke="none" fill="rgb(5,106,183)" />
<path d="M 18.0 71.5 L 18.0 71.0 L 18.0 70.0 L 17.666666666666668 69.0 L 17.333333333333332 68.0 L 17.0 67.0 L 17.0 66.0 L 17.0 65.0 L 16.666666666666668 64.0 L 16.333333333333332 63.0 L 16.0 62.0 L 15.666666666666666 61.0 L 15.333333333333334 60.0 L 14.666666666666666 59.0 L 14.333333333333334 58.0 L 13.666666666666666 57.333333333333336 L 13.0 57.0 L 12.333333333333334 57.333333333333336 L 12.0 58.0 L 11.666666666666666 59.0 L 11.333333333333334 60.0 L 11.0 61.0 L 11.0 62.0 L 11.0 63.0 L 11.333333333333334 64.0 L 11.666666666666666 65.0 L 12.0 66.0 L 12.333333333333334 67.0 L 12.666666666666666 68.0 L 13.333333333333334 69.0 L 14.0 70.0 L 15.0 71.0 L 16.0 71.66666666666667 L 17.0 72.0 L 17.5 72.0 Z" stroke="none" fill="rgb(60,43,37)" />
<path d="M 82.5 72.0 L 83.0 72.0 L 84.0 71.66666666666667 L 85.0 71.0 L 86.0 70.0 L 86.66666666666667 69.0 L 87.33333333333333 68.0 L 87.66666666666667 67.0 L 88.0 66.0 L 88.0 65.0 L 88.0 64.0 L 88.0 63.0 L 88.0 62.0 L 88.0 61.0 L 88.0 60.0 L 88.0 59.0 L 88.0 58.0 L 88.0 57.0 L 87.66666666666667 56.333333333333336 L 87.0 56.0 L 86.33333333333333 56.333333333333336 L 86.0 57.0 L 85.66666666666667 58.0 L 85.33333333333333 59.0 L 84.66666666666667 60.0 L 84.33333333333333 61.0 L 84.0 62.0 L 83.66666666666667 63.0 L 83.33333333333333 64.0 L 83.0 65.0 L 83.0 66.0 L 83.0 67.0 L 82.66666666666667 68.0 L 82.33333333333333 69.0 L 82.0 70.0 L 82.0 71.0 L 82.0 71.5 Z" stroke="none" fill="rgb(60,43,37)" />
<path d="M 56.0 123.5 L 56.333333333333336 123.0 L 57.0 122.0 L 58.0 121.0 L 59.0 120.0 L 59.666666666666664 119.0 L 60.333333333333336 118.0 L 60.666666666666664 117.0 L 61.0 116.0 L 60.666666666666664 115.0 L 60.0 114.33333333333333 L 59.0 114.0 L 58.0 113.66666666666667 L 57.0 113.33333333333333 L 56.0 113.0 L 55.0 113.33333333333333 L 54.333333333333336 114.0 L 54.0 115.0 L 54.0 116.0 L 53.666666666666664 117.0 L 53.333333333333336 118.0 L 53.0 119.0 L 53.0 120.0 L 52.666666666666664 121.0 L 52.333333333333336 122.0 L 52.0 123.0 L 52.333333333333336 123.66666666666667 L 53.0 124.0 L 54.0 124.0 L 55.0 124.0 L 55.5 124.0 Z" stroke="none" fill="rgb(64,79,172)" />
<path d="M 68.5 15.0 L 69.0 14.666666666666666 L 70.0 14.333333333333334 L 71.0 14.0 L 72.0 14.0 L 73.0 14.0 L 74.0 14.0 L 75.0 14.0 L 76.0 14.0 L 76.66666666666667 13.666666666666666 L 76.66666666666667 13.0 L 76.0 12.333333333333334 L 75.0 11.666666666666666 L 74.0 11.0 L 73.0 10.0 L 72.0 9.333333333333334 L 71.0 8.666666666666666 L 70.0 8.333333333333334 L 69.0 8.0 L 68.0 8.0 L 67.0 8.0 L 66.0 8.0 L 65.0 8.0 L 64.0 8.0 L 63.333333333333336 8.333333333333334 L 63.0 9.0 L 63.333333333333336 10.0 L 64.0 11.0 L 65.0 12.0 L 66.0 13.0 L 67.0 14.0 L 67.5 14.5 Z" stroke="none" fill="rgb(65,137,227)" />
<path d="M 95.5 124.0 L 96.0 124.0 L 97.0 124.0 L 98.0 124.0 L 99.0 124.0 L 100.0 124.0 L 101.0 124.0 L 102.0 124.0 L 102.66666666666667 123.66666666666667 L 103.0 123.0 L 103.0 122.0 L 103.0 121.0 L 102.66666666666667 120.0 L 102.0 119.33333333333333 L 101.0 119.0 L 100.0 119.0 L 99.0 118.66666666666667 L 98.0 118.33333333333333 L 97.0 118.0 L 96.0 118.0 L 95.0 118.0 L 94.0 118.33333333333333 L 93.0 119.0 L 92.33333333333333 120.0 L 92.0 121.0 L 92.0 122.0 L 92.0 123.0 L 92.33333333333333 123.66666666666667 L 93.0 124.0 L 94.0 124.0 L 94.5 124.0 Z" stroke="none" fill="rgb(99,122,141)" />
<path d="M 30.5 14.5 L 31.0 14.666666666666666 L 32.0 14.666666666666666 L 32.666666666666664 14.0 L 33.333333333333336 13.0 L 34.0 12.0 L 35.0 11.0 L 35.666666666666664 10.0 L 36.0 9.0 L 35.666666666666664 8.333333333333334 L 35.0 8.0 L 34.0 8.0 L 33.0 8.0 L 32.0 8.0 L 31.0 8.0 L 30.0 8.333333333333334 L 29.0 8.666666666666666 L 28.0 9.333333333333334 L 27.0 10.0 L 26.0 10.666666666666666 L 25.0 11.333333333333334 L 24.333333333333332 12.0 L 24.0 13.0 L 24.333333333333332 13.666666666666666 L 25.0 14.0 L 26.0 14.0 L 27.0 14.0 L 28.0 14.0 L 29.0 14.0 L 29.5 14.0 Z" stroke="none" fill="rgb(65,137,227)" />
<path d="M 15.5 54.5 L 15.666666666666666 55.0 L 16.0 56.0 L 16.0 57.0 L 16.0 58.0 L 16.333333333333332 59.0 L 16.666666666666668 60.0 L 17.333333333333332 60.666666666666664 L 18.0 61.0 L 18.666666666666668 60.666666666666664 L 19.0 60.0 L 19.0 59.0 L 19.0 58.0 L 18.666666666666668 57.0 L 18.333333333333332 56.0 L 18.0 55.0 L 18.0 54.0 L 18.0 53.0 L 18.0 52.0 L 17.666666666666668 51.0 L 17.333333333333332 50.0 L 17.0 49.0 L 17.0 48.0 L 17.0 47.0 L 17.333333333333332 46.0 L 18.0 45.0 L 18.666666666666668 44.0 L 18.666666666666668 43.333333333333336 L 18.0 43.0 L 17.0 43.0 L 16.0 43.333333333333336 L 15.333333333333334 44.0 L 15.0 45.0 L 15.0 46.0 L 15.0 47.0 L 15.0 48.0 L 15.0 49.0 L 15.0 50.0 L 15.0 51.0 L 15.0 52.0 L 15.0 53.0 L 15.0 53.5 Z" stroke="none" fill="rgb(51,48,47)" />
<path d="M 15.5 61.5 L 15.666666666666666 62.0 L 16.0 63.0 L 16.333333333333332 63.666666666666664 L 17.0 64.0 L 17.666666666666668 63.666666666666664 L 18.0 63.0 L 18.0 62.0 L 17.666666666666668 61.0 L 17.333333333333332 60.0 L 16.666666666666668 59.0 L 16.333333333333332 58.0 L 16.0 57.0 L 16.0 56.0 L 16.0 55.0 L 15.666666666666666 54.0 L 15.333333333333334 53.0 L 15.0 52.0 L 15.0 51.0 L 15.0 50.0 L 15.0 49.0 L 15.0 48.0 L 15.0 47.0 L 15.0 46.0 L 14.666666666666666 45.333333333333336 L 14.0 45.0 L 13.333333333333334 45.333333333333336 L 13.0 46.0 L 13.0 47.0 L 13.0 48.0 L 13.0 49.0 L 13.0 50.0 L 13.0 51.0 L 13.0 52.0 L 13.0 53.0 L 13.0 54.0 L 13.0 55.0 L 13.0 56.0 L 13.333333333333334 57.0 L 13.666666666666666 58.0 L 14.333333333333334 59.0 L 14.666666666666666 60.0 L 15.0 60.5 Z" stroke="none" fill="rgb(59,56,56)" />
<path d="M 43.5 121.5 L 44.0 122.0 L 44.666666666666664 123.0 L 45.333333333333336 123.66666666666667 L 46.0 124.0 L 47.0 124.0 L 47.666666666666664 123.66666666666667 L 48.0 123.0 L 48.0 122.0 L 47.666666666666664 121.0 L 47.333333333333336 120.0 L 47.0 119.0 L 47.0 118.0 L 46.666666666666664 117.0 L 46.333333333333336 116.0 L 45.666666666666664 115.0 L 45.0 114.33333333333333 L 44.0 114.0 L 43.0 114.0 L 42.0 114.0 L 41.0 114.33333333333333 L 40.333333333333336 115.0 L 40.0 116.0 L 40.333333333333336 117.0 L 40.666666666666664 118.0 L 41.333333333333336 119.0 L 42.0 120.0 L 42.5 120.5 Z" stroke="none" fill="rgb(64,79,172)" />
<path d="M 85.0 54.5 L 85.0 54.0 L 85.0 53.0 L 85.0 52.0 L 85.0 51.0 L 85.0 50.0 L 85.0 49.0 L 85.0 48.0 L 85.0 47.0 L 85.0 46.0 L 85.0 45.0 L 84.66666666666667 44.333333333333336 L 84.0 44.0 L 83.33333333333333 44.333333333333336 L 83.0 45.0 L 83.0 46.0 L 83.0 47.0 L 83.0 48.0 L 83.0 49.0 L 83.0 50.0 L 82.66666666666667 51.0 L 82.33333333333333 52.0 L 82.0 53.0 L 82.0 54.0 L 82.0 55.0 L 81.66666666666667 56.0 L 81.33333333333333 57.0 L 81.0 58.0 L 81.0 59.0 L 81.0 60.0 L 81.0 61.0 L 81.33333333333333 61.666666666666664 L 82.0 62.0 L 82.66666666666667 61.666666666666664 L 83.33333333333333 61.0 L 83.66666666666667 60.0 L 84.0 59.0 L 84.0 58.0 L 84.0 57.0 L 84.33333333333333 56.0 L 84.5 55.5 Z" stroke="none" fill="rgb(51,48,47)" />
<path d="M 82.0 56.5 L 82.0 56.0 L 82.0 55.0 L 82.0 54.0 L 82.33333333333333 53.0 L 82.66666666666667 52.0 L 83.0 51.0 L 83.0 50.0 L 83.0 49.0 L 83.0 48.0 L 83.0 47.0 L 83.0 46.0 L 83.0 45.0 L 83.0 44.0 L 82.66666666666667 43.333333333333336 L 82.0 43.333333333333336 L 81.0 44.0 L 80.0 45.0 L 79.0 46.0 L 78.33333333333333 47.0 L 78.0 48.0 L 78.33333333333333 49.0 L 78.66666666666667 50.0 L 79.0 51.0 L 79.0 52.0 L 79.33333333333333 53.0 L 79.66666666666667 54.0 L 80.0 55.0 L 80.0 56.0 L 80.33333333333333 56.666666666666664 L 81.0 57.0 L 81.5 57.0 Z" stroke="none" fill="rgb(43,37,35)" />
<path d="M 21.0 52.5 L 21.0 52.0 L 21.333333333333332 51.0 L 21.666666666666668 50.0 L 22.0 49.0 L 22.0 48.0 L 22.0 47.0 L 21.666666666666668 46.0 L 21.0 45.0 L 20.0 44.333333333333336 L 19.0 44.0 L 18.0 44.333333333333336 L 17.333333333333332 45.0 L 17.0 46.0 L 17.0 47.0 L 17.0 48.0 L 17.0 49.0 L 17.0 50.0 L 17.333333333333332 51.0 L 17.666666666666668 52.0 L 18.0 53.0 L 18.0 54.0 L 18.0 55.0 L 18.0 56.0 L 18.333333333333332 56.666666666666664 L 19.0 57.0 L 19.666666666666668 56.666666666666664 L 20.0 56.0 L 20.0 55.0 L 20.333333333333332 54.0 L 20.5 53.5 Z" stroke="none" fill="rgb(43,37,35)" />
<path d="M 87.0 55.5 L 87.0 55.0 L 87.0 54.0 L 87.0 53.0 L 87.0 52.0 L 87.0 51.0 L 87.0 50.0 L 87.0 49.0 L 87.0 48.0 L 87.0 47.0 L 87.0 46.0 L 86.66666666666667 45.333333333333336 L 86.0 45.0 L 85.33333333333333 45.333333333333336 L 85.0 46.0 L 85.0 47.0 L 85.0 48.0 L 85.0 49.0 L 85.0 50.0 L 85.0 51.0 L 85.0 52.0 L 85.0 53.0 L 84.66666666666667 54.0 L 84.33333333333333 55.0 L 84.0 56.0 L 84.0 57.0 L 84.0 58.0 L 83.66666666666667 59.0 L 83.33333333333333 60.0 L 82.66666666666667 61.0 L 82.33333333333333 62.0 L 82.0 63.0 L 82.33333333333333 63.666666666666664 L 83.0 64.0 L 83.66666666666667 63.666666666666664 L 84.0 63.0 L 84.33333333333333 62.0 L 84.66666666666667 61.0 L 85.33333333333333 60.0 L 85.66666666666667 59.0 L 86.0 58.0 L 86.33333333333333 57.0 L 86.5 56.5 Z" stroke="none" fill="rgb(59,56,56)" />
<path d="M 55.5 6.0 L 56.0 6.333333333333333 L 57.0 6.666666666666667 L 58.0 7.333333333333333 L 59.0 7.666666666666667 L 60.0 8.333333333333334 L 61.0 8.666666666666666 L 62.0 9.0 L 63.0 8.666666666666666 L 64.0 8.333333333333334 L 65.0 8.0 L 66.0 8.0 L 66.66666666666667 7.666666666666667 L 66.66666666666667 7.0 L 66.0 6.333333333333333 L 65.0 6.0 L 64.0 6.0 L 63.0 5.666666666666667 L 62.0 5.333333333333333 L 61.0 5.0 L 60.0 5.0 L 59.0 5.0 L 58.0 4.666666666666667 L 57.0 4.333333333333333 L 56.0 4.0 L 55.0 4.0 L 54.0 4.0 L 53.0 4.0 L 52.333333333333336 4.333333333333333 L 52.0 5.0 L 52.333333333333336 5.666666666666667 L 53.0 6.0 L 54.0 6.0 L 54.5 6.0 Z" stroke="none" fill="rgb(79,144,235)" />
<path d="M 37.5 9.5 L 38.0 9.0 L 39.0 8.333333333333334 L 40.0 7.666666666666667 L 41.0 7.333333333333333 L 42.0 7.0 L 43.0 6.666666666666667 L 44.0 6.333333333333333 L 45.0 6.0 L 46.0 6.0 L 47.0 5.666666666666667 L 47.666666666666664 5.0 L 47.666666666666664 4.333333333333333 L 47.0 4.0 L 46.0 4.0 L 45.0 4.0 L 44.0 4.0 L 43.0 4.333333333333333 L 42.0 4.666666666666667 L 41.0 5.0 L 40.0 5.0 L 39.0 5.0 L 38.0 5.0 L 37.0 5.333333333333333 L 36.0 5.666666666666667 L 35.0 6.0 L 34.333333333333336 6.333333333333333 L 34.0 7.0 L 34.333333333333336 7.666666666666667 L 35.0 8.333333333333334 L 35.666666666666664 9.0 L 36.333333333333336 9.666666666666666 L 36.5 10.0 Z" stroke="none" fill="rgb(79,144,235)" />
<path d="M 50.5 72.0 L 51.0 72.0 L 52.0 72.0 L 53.0 71.66666666666667 L 53.666666666666664 71.0 L 54.0 70.0 L 54.0 69.0 L 53.666666666666664 68.33333333333333 L 53.0 68.0 L 52.0 68.0 L 51.0 68.0 L 50.0 68.0 L 49.0 68.0 L 48.0 68.0 L 47.0 68.0 L 46.333333333333336 68.33333333333333 L 46.0 69.0 L 46.333333333333336 70.0 L 47.0 71.0 L 48.0 71.66666666666667 L 49.0 72.0 L 49.5 72.0 Z" stroke="none" fill="rgb(43,37,35)" />
<path d="M 31.5 32.0 L 31.666666666666668 31.666666666666668 L 32.0 31.0 L 31.666666666666668 30.333333333333332 L 31.0 30.0 L 30.0 30.0 L 29.0 30.0 L 28.0 30.0 L 27.333333333333332 30.333333333333332 L 27.0 31.0 L 27.0 32.0 L 27.333333333333332 32.666666666666664 L 28.0 33.0 L 29.0 33.0 L 30.0 32.666666666666664 L 30.5 32.5 Z" stroke="none" fill="rgb(49,129,216)" />
<path d="M 69.5 32.5 L 70.0 32.666666666666664 L 71.0 33.0 L 72.0 33.0 L 72.66666666666667 32.666666666666664 L 73.0 32.0 L 72.66666666666667 31.0 L 72.0 30.333333333333332 L 71.0 30.0 L 70.0 30.0 L 69.33333333333333 30.333333333333332 L 69.0 31.0 L 69.0 31.5 Z" stroke="none" fill="rgb(49,129,216)" />
<path d="M 49.5 5.0 L 50.0 5.0 L 51.0 5.0 L 51.666666666666664 4.666666666666667 L 51.666666666666664 4.333333333333333 L 51.0 4.0 L 50.0 4.0 L 49.0 4.0 L 48.333333333333336 4.333333333333333 L 48.333333333333336 4.666666666666667 L 48.5 5.0 Z" stroke="none" fill="rgb(0,0,0)" />
<path d="M 33.5 8.0 L 33.666666666666664 7.666666666666667 L 33.666666666666664 7.333333333333333 L 33.0 7.0 L 32.333333333333336 7.333333333333333 L 32.333333333333336 7.666666666666667 L 32.5 8.0 Z" stroke="none" fill="rgb(0,0,0)" />
<path d="M 13.5 45.0 L 13.666666666666666 44.666666666666664 L 13.666666666666666 44.333333333333336 L 13.0 44.0 L 12.333333333333334 44.333333333333336 L 12.333333333333334 44.666666666666664 L 12.5 45.0 Z" stroke="none" fill="rgb(0,0,0)" />
<path d="M 67.5 8.0 L 67.66666666666667 7.666666666666667 L 67.66666666666667 7.333333333333333 L 67.33333333333333 7.333333333333333 L 67.0 7.5 Z" stroke="none" fill="rgb(0,0,0)" />
<path d="M 23.5 14.0 L 23.666666666666668 13.666666666666666 L 23.666666666666668 13.333333333333334 L 23.333333333333332 13.333333333333334 L 23.0 13.5 Z" stroke="none" fill="rgb(0,0,0)" />
<path d="M 13.5 35.0 L 13.666666666666666 34.666666666666664 L 13.666666666666666 34.333333333333336 L 13.333333333333334 34.333333333333336 L 13.0 34.5 Z" stroke="none" fill="rgb(0,0,0)" />
<path d="M 13.0 56.5 L 12.666666666666666 56.333333333333336 L 12.333333333333334 56.333333333333336 L 12.333333333333334 56.666666666666664 L 12.5 57.0 Z" stroke="none" fill="rgb(0,0,0)" />
<path d="M 99.5 84.0 L 99.66666666666667 83.66666666666667 L 99.66666666666667 83.33333333333333 L 99.33333333333333 83.33333333333333 L 99.0 83.5 Z" stroke="none" fill="rgb(0,0,0)" />
<path d="M 8.5 109.0 L 8.666666666666666 108.66666666666667 L 8.666666666666666 108.33333333333333 L 8.333333333333334 108.33333333333333 L 8.0 108.5 Z" stroke="none" fill="rgb(0,0,0)" />
<path d="M 112.5 112.0 L 112.66666666666667 111.66666666666667 L 112.66666666666667 111.33333333333333 L 112.33333333333333 111.33333333333333 L 112.0 111.5 Z" stroke="none" fill="rgb(0,0,0)" />
<path d="M 5.0 117.5 L 4.666666666666667 117.33333333333333 L 4.333333333333333 117.33333333333333 L 4.333333333333333 117.66666666666667 L 4.5 118.0 Z" stroke="none" fill="rgb(0,0,0)" />
</svg>
