<?xml version="1.0" encoding="UTF-8" standalone="no"?>
<!DOCTYPE svg PUBLIC "-//W3C//DTD SVG 1.1//EN"
"http://www.w3.org/Graphics/SVG/1.1/DTD/svg11.dtd">
<svg width="128" height="128" xmlns="http://www.w3.org/2000/svg" version="1.1">
<path d="M 93.5 128.0 L 94.0 128.0 L 95.0 128.0 L 96.0 128.0 L 97.0 128.0 L 98.0 128.0 L 99.0 128.0 L 100.0 128.0 L 101.0 128.0 L 102.0 128.0 L 103.0 128.0 L 104.0 128.0 L 105.0 128.0 L 106.0 128.0 L 107.0 128.0 L 108.0 128.0 L 109.0 128.0 L 110.0 128.0 L 111.0 128.0 L 112.0 128.0 L 113.0 128.0 L 114.0 128.0 L 115.0 128.0 L 116.0 128.0 L 117.0 128.0 L 118.0 128.0 L 119.0 128.0 L 120.0 128.0 L 121.0 128.0 L 122.0 128.0 L 123.0 128.0 L 124.0 128.0 L 125.0 128.0 L 126.0 128.0 L 127.0 128.0 L 127.66666666666667 127.66666666666667 L 128.0 127.0 L 128.0 126.0 L 128.0 125.0 L 128.0 124.0 L 128.0 123.0 L 128.0 122.0 L 128.0 121.0 L 128.0 120.0 L 128.0 119.0 L 128.0 118.0 L 128.0 117.0 L 128.0 116.0 L 128.0 115.0 L 128.0 114.0 L 128.0 113.0 L 128.0 112.0 L 128.0 111.0 L 128.0 110.0 L 128.0 109.0 L 128.0 108.0 L 128.0 107.0 L 128.0 106.0 L 128.0 105.0 L 128.0 104.0 L 128.0 103.0 L 128.0 102.0 L 128.0 101.0 L 128.0 100.0 L 128.0 99.0 L 128.0 98.0 L 128.0 97.0 L 128.0 96.0 L 128.0 95.0 L 128.0 94.0 L 128.0 93.0 L 128.0 92.0 L 128.0 91.0 L 128.0 90.0 L 128.0 89.0 L 128.0 88.0 L 128.0 87.0 L 128.0 86.0 L 128.0 85.0 L 128.0 84.0 L 128.0 83.0 L 128.0 82.0 L 128.0 81.0 L 128.0 80.0 L 128.0 79.0 L 128.0 78.0 L 128.0 77.0 L 128.0 76.0 L 128.0 75.0 L 128.0 74.0 L 128.0 73.0 L 128.0 72.0 L 128.0 71.0 L 128.0 70.0 L 128.0 69.0 L 128.0 68.0 L 128.0 67.0 L 128.0 66.0 L 128.0 65.0 L 128.0 64.0 L 128.0 63.0 L 128.0 62.0 L 128.0 61.0 L 128.0 60.0 L 128.0 59.0 L 128.0 58.0 L 128.0 57.0 L 128.0 56.0 L 128.0 55.0 L 128.0 54.0 L 128.0 53.0 L 128.0 52.0 L 128.0 51.0 L 128.0 50.0 L 128.0 49.0 L 128.0 48.0 L 128.0 47.0 L 128.0 46.0 L 128.0 45.0 L 128.0 44.0 L 128.0 43.0 L 128.0 42.0 L 128.0 41.0 L 128.0 40.0 L 128.0 39.0 L 128.0 38.0 L 128.0 37.0 L 128.0 36.0 L 128.0 35.0 L 128.0 34.0 L 128.0 33.0 L 128.0 32.0 L 128.0 31.0 L 128.0 30.0 L 128.0 29.0 L 128.0 28.0 L 128.0 27.0 L 128.0 26.0 L 128.0 25.0 L 128.0 24.0 L 128.0 23.0 L 128.0 22.0 L 128.0 21.0 L 128.0 20.0 L 128.0 19.0 L 128.0 18.0 L 128.0 17.0 L 128.0 16.0 L 128.0 15.0 L 128.0 14.0 L 128.0 13.0 L 128.0 12.0 L 128.0 11.0 L 128.0 10.0 L 128.0 9.0 L 128.0 8.0 L 128.0 7.0 L 128.0 6.0 L 128.0 5.0 L 128.0 4.0 L 128.0 3.0 L 128.0 2.0 L 128.0 1.0 L 127.66666666666667 0.3333333333333333 L 127.0 0.0 L 126.0 0.0 L 125.0 0.0 L 124.0 0.0 L 123.0 0.0 L 122.0 0.0 L 121.0 0.0 L 120.0 0.0 L 119.0 0.0 L 118.0 0.0 L 117.0 0.0 L 116.0 0.0 L 115.0 0.0 L 114.0 0.0 L 113.0 0.0 L 112.0 0.0 L 111.0 0.0 L 110.0 0.0 L 109.0 0.0 L 108.0 0.0 L 107.0 0.0 L 106.0 0.0 L 105.0 0.0 L 104.0 0.0 L 103.0 0.0 L 102.0 0.0 L 101.0 0.0 L 100.0 0.0 L 99.0 0.0 L 98.0 0.0 L 97.0 0.0 L 96.0 0.0 L 95.0 0.0 L 94.0 0.0 L 93.0 0.0 L 92.0 0.0 L 91.0 0.0 L 90.0 0.0 L 89.0 0.0 L 88.0 0.0 L 87.0 0.0 L 86.0 0.0 L 85.0 0.0 L 84.0 0.0 L 83.0 0.0 L 82.0 0.0 L 81.0 0.0 L 80.0 0.0 L 79.0 0.0 L 78.0 0.0 L 77.0 0.0 L 76.0 0.0 L 75.0 0.0 L 74.0 0.0 L 73.0 0.0 L 72.0 0.0 L 71.0 0.0 L 70.0 0.0 L 69.0 0.0 L 68.0 0.0 L 67.0 0.0 L 66.0 0.0 L 65.0 0.0 L 64.0 0.0 L 63.0 0.0 L 62.0 0.0 L 61.0 0.0 L 60.0 0.0 L 59.0 0.0 L 58.0 0.0 L 57.0 0.0 L 56.0 0.0 L 55.0 0.0 L 54.0 0.0 L 53.0 0.0 L 52.0 0.0 L 51.0 0.0 L 50.0 0.0 L 49.0 0.0 L 48.0 0.0 L 47.0 0.0 L 46.0 0.0 L 45.0 0.0 L 44.0 0.0 L 43.0 0.0 L 42.0 0.0 L 41.0 0.0 L 40.0 0.0 L 39.0 0.0 L 38.0 0.0 L 37.0 0.0 L 36.0 0.0 L 35.0 0.0 L 34.0 0.0 L 33.0 0.0 L 32.0 0.0 L 31.0 0.0 L 30.0 0.0 L 29.0 0.0 L 28.0 0.0 L 27.0 0.0 L 26.0 0.0 L 25.0 0.0 L 24.0 0.0 L 23.0 0.0 L 22.0 0.0 L 21.0 0.0 L 20.0 0.0 L 19.0 0.0 L 18.0 0.0 L 17.0 0.0 L 16.0 0.0 L 15.0 0.0 L 14.0 0.0 L 13.0 0.0 L 12.0 0.0 L 11.0 0.0 L 10.0 0.0 L 9.0 0.0 L 8.0 0.0 L 7.0 0.0 L 6.0 0.0 L 5.0 0.0 L 4.0 0.0 L 3.0 0.0 L 2.0 0.0 L 1.0 0.0 L 0.3333333333333333 0.3333333333333333 L 0.0 1.0 L 0.0 2.0 L 0.0 3.0 L 0.0 4.0 L 0.0 5.0 L 0.0 6.0 L 0.0 7.0 L 0.0 8.0 L 0.0 9.0 L 0.0 10.0 L 0.0 11.0 L 0.0 12.0 L 0.0 13.0 L 0.0 14.0 L 0.0 15.0 L 0.0 16.0 L 0.0 17.0 L 0.0 18.0 L 0.0 19.0 L 0.0 20.0 L 0.0 21.0 L 0.0 22.0 L 0.0 23.0 L 0.0 24.0 L 0.0 25.0 L 0.0 26.0 L 0.0 27.0 L 0.0 28.0 L 0.0 29.0 L 0.0 30.0 L 0.0 31.0 L 0.0 32.0 L 0.0 33.0 L 0.0 34.0 L 0.0 35.0 L 0.0 36.0 L 0.0 37.0 L 0.0 38.0 L 0.0 39.0 L 0.0 40.0 L 0.0 41.0 L 0.0 42.0 L 0.0 43.0 L 0.0 44.0 L 0.0 45.0 L 0.0 46.0 L 0.0 47.0 L 0.0 48.0 L 0.0 49.0 L 0.0 50.0 L 0.0 51.0 L 0.0 52.0 L 0.0 53.0 L 0.0 54.0 L 0.0 55.0 L 0.0 56.0 L 0.0 57.0 L 0.0 58.0 L 0.0 59.0 L 0.0 60.0 L 0.0 61.0 L 0.0 62.0 L 0.0 63.0 L 0.0 64.0 L 0.0 65.0 L 0.0 66.0 L 0.0 67.0 L 0.0 68.0 L 0.0 69.0 L 0.0 70.0 L 0.0 71.0 L 0.0 72.0 L 0.0 73.0 L 0.0 74.0 L 0.0 75.0 L 0.0 76.0 L 0.0 77.0 L 0.0 78.0 L 0.0 79.0 L 0.0 80.0 L 0.0 81.0 L 0.0 82.0 L 0.0 83.0 L 0.0 84.0 L 0.0 85.0 L 0.0 86.0 L 0.0 87.0 L 0.0 88.0 L 0.0 89.0 L 0.0 90.0 L 0.0 91.0 L 0.0 92.0 L 0.0 93.0 L 0.0 94.0 L 0.0 95.0 L 0.0 96.0 L 0.0 97.0 L 0.0 98.0 L 0.0 99.0 L 0.0 100.0 L 0.0 101.0 L 0.0 102.0 L 0.0 103.0 L 0.0 104.0 L 0.0 105.0 L 0.0 106.0 L 0.0 107.0 L 0.0 108.0 L 0.0 109.0 L 0.0 110.0 L 0.0 111.0 L 0.0 112.0 L 0.0 113.0 L 0.0 114.0 L 0.0 115.0 L 0.0 116.0 L 0.0 117.0 L 0.0 118.0 L 0.0 119.0 L 0.0 120.0 L 0.0 121.0 L 0.0 122.0 L 0.0 123.0 L 0.0 124.0 L 0.0 125.0 L 0.0 126.0 L 0.0 127.0 L 0.3333333333333333 127.66666666666667 L 1.0 128.0 L 2.0 128.0 L 3.0 128.0 L 4.0 128.0 L 5.0 128.0 L 6.0 128.0 L 7.0 128.0 L 8.0 128.0 L 9.0 128.0 L 10.0 128.0 L 11.0 128.0 L 12.0 128.0 L 13.0 128.0 L 14.0 128.0 L 15.0 128.0 L 16.0 128.0 L 17.0 128.0 L 18.0 128.0 L 19.0 128.0 L 20.0 128.0 L 21.0 128.0 L 22.0 128.0 L 23.0 128.0 L 24.0 128.0 L 25.0 128.0 L 26.0 128.0 L 27.0 128.0 L 28.0 128.0 L 29.0 128.0 L 30.0 128.0 L 31.0 128.0 L 32.0 128.0 L 33.0 128.0 L 34.0 128.0 L 35.0 128.0 L 36.0 128.0 L 37.0 128.0 L 38.0 128.0 L 39.0 128.0 L 40.0 128.0 L 41.0 128.0 L 42.0 128.0 L 43.0 128.0 L 44.0 128.0 L 45.0 128.0 L 46.0 128.0 L 47.0 128.0 L 48.0 128.0 L 49.0 128.0 L 50.0 128.0 L 51.0 128.0 L 52.0 128.0 L 53.0 128.0 L 54.0 128.0 L 55.0 128.0 L 56.0 128.0 L 57.0 128.0 L 58.0 128.0 L 59.0 128.0 L 60.0 128.0 L 61.0 128.0 L 62.0 128.0 L 63.0 128.0 L 64.0 128.0 L 65.0 128.0 L 66.0 128.0 L 67.0 128.0 L 68.0 128.0 L 69.0 128.0 L 70.0 128.0 L 71.0 128.0 L 72.0 128.0 L 73.0 128.0 L 74.0 128.0 L 75.0 128.0 L 76.0 128.0 L 77.0 128.0 L 78.0 128.0 L 79.0 128.0 L 80.0 128.0 L 81.0 128.0 L 82.0 128.0 L 83.0 128.0 L 84.0 128.0 L 85.0 128.0 L 86.0 128.0 L 87.0 128.0 L 88.0 128.0 L 89.0 128.0 L 90.0 128.0 L 91.0 128.0 L 92.0 128.0 L 92.5 128.0 Z" stroke="none" fill="rgb(255,255,255)" />
<path d="M 33.5 89.0 L 34.0 88.66666666666667 L 35.0 88.33333333333333 L 36.0 88.33333333333333 L 37.0 88.66666666666667 L 38.0 89.0 L 39.0 89.33333333333333 L 40.0 89.66666666666667 L 41.0 90.0 L 42.0 90.0 L 42.666666666666664 89.66666666666667 L 43.0 89.0 L 42.666666666666664 88.0 L 42.0 87.0 L 41.0 86.0 L 40.0 85.0 L 39.333333333333336 84.0 L 38.666666666666664 83.0 L 38.0 82.0 L 37.0 81.0 L 36.333333333333336 80.0 L 35.666666666666664 79.0 L 35.333333333333336 78.0 L 34.666666666666664 77.0 L 34.333333333333336 76.0 L 33.666666666666664 75.0 L 33.333333333333336 74.0 L 32.666666666666664 73.0 L 32.0 72.0 L 31.0 71.0 L 30.0 70.0 L 29.0 69.0 L 28.0 68.0 L 27.333333333333332 67.0 L 26.666666666666668 66.0 L 26.333333333333332 65.0 L 26.0 64.0 L 26.0 63.0 L 26.0 62.0 L 26.0 61.0 L 26.333333333333332 60.0 L 26.666666666666668 59.0 L 27.0 58.0 L 27.333333333333332 57.0 L 28.0 56.666666666666664 L 28.666666666666668 57.0 L 29.0 58.0 L 29.0 59.0 L 29.0 60.0 L 29.0 61.0 L 29.0 62.0 L 29.333333333333332 63.0 L 29.666666666666668 64.0 L 30.0 65.0 L 30.333333333333332 66.0 L 31.0 66.66666666666667 L 32.0 66.66666666666667 L 32.666666666666664 66.0 L 33.0 65.0 L 33.333333333333336 64.0 L 33.666666666666664 63.0 L 34.0 62.0 L 34.0 61.0 L 34.0 60.0 L 34.333333333333336 59.0 L 34.666666666666664 58.0 L 35.0 57.0 L 35.0 56.0 L 35.333333333333336 55.0 L 35.666666666666664 54.0 L 36.0 53.0 L 36.0 52.0 L 36.0 51.0 L 36.0 50.0 L 36.333333333333336 49.0 L 37.0 48.0 L 38.0 47.333333333333336 L 39.0 47.0 L 40.0 46.666666666666664 L 41.0 46.333333333333336 L 42.0 46.0 L 43.0 45.666666666666664 L 44.0 45.333333333333336 L 45.0 45.0 L 46.0 44.666666666666664 L 47.0 44.333333333333336 L 48.0 43.666666666666664 L 49.0 43.333333333333336 L 50.0 42.666666666666664 L 51.0 42.333333333333336 L 52.0 41.666666666666664 L 53.0 41.333333333333336 L 54.0 40.666666666666664 L 55.0 40.0 L 56.0 39.333333333333336 L 57.0 38.666666666666664 L 58.0 38.0 L 59.0 37.333333333333336 L 60.0 36.666666666666664 L 61.0 36.0 L 62.0 35.333333333333336 L 63.0 34.666666666666664 L 64.0 34.333333333333336 L 65.0 33.666666666666664 L 66.0 33.333333333333336 L 67.0 33.0 L 68.0 32.666666666666664 L 69.0 32.333333333333336 L 70.0 32.0 L 71.0 32.0 L 72.0 32.0 L 73.0 32.0 L 74.0 32.0 L 75.0 32.0 L 76.0 32.333333333333336 L 77.0 32.666666666666664 L 78.0 33.333333333333336 L 79.0 34.0 L 80.0 35.0 L 81.0 35.666666666666664 L 82.0 36.333333333333336 L 83.0 36.666666666666664 L 84.0 37.0 L 85.0 37.333333333333336 L 86.0 37.666666666666664 L 87.0 38.333333333333336 L 88.0 39.0 L 89.0 40.0 L 90.0 41.0 L 91.0 42.0 L 91.66666666666667 43.0 L 92.33333333333333 44.0 L 92.66666666666667 45.0 L 93.0 46.0 L 93.0 47.0 L 93.33333333333333 48.0 L 93.66666666666667 49.0 L 94.0 50.0 L 94.0 51.0 L 94.0 52.0 L 94.0 53.0 L 94.0 54.0 L 94.33333333333333 55.0 L 94.66666666666667 56.0 L 95.0 57.0 L 95.0 58.0 L 95.0 59.0 L 95.0 60.0 L 95.0 61.0 L 95.0 62.0 L 95.33333333333333 63.0 L 95.66666666666667 64.0 L 96.33333333333333 64.66666666666667 L 97.0 65.0 L 98.0 64.66666666666667 L 98.66666666666667 64.0 L 99.0 63.0 L 99.33333333333333 62.0 L 99.66666666666667 61.0 L 100.33333333333333 60.0 L 101.0 59.666666666666664 L 101.66666666666667 60.0 L 102.0 61.0 L 102.0 62.0 L 102.0 63.0 L 102.0 64.0 L 101.66666666666667 65.0 L 101.33333333333333 66.0 L 100.66666666666667 67.0 L 100.0 68.0 L 99.0 69.0 L 98.0 70.0 L 97.0 71.0 L 96.0 72.0 L 95.33333333333333 73.0 L 94.66666666666667 74.0 L 94.33333333333333 75.0 L 93.66666666666667 76.0 L 93.33333333333333 77.0 L 92.66666666666667 78.0 L 92.33333333333333 79.0 L 91.66666666666667 80.0 L 91.0 81.0 L 90.0 82.0 L 89.33333333333333 83.0 L 88.66666666666667 84.0 L 88.0 85.0 L 87.0 86.0 L 86.0 87.0 L 85.33333333333333 88.0 L 85.0 89.0 L 85.33333333333333 89.66666666666667 L 86.0 90.0 L 87.0 90.0 L 88.0 90.0 L 89.0 90.0 L 89.66666666666667 89.66666666666667 L 90.33333333333333 89.0 L 91.0 88.33333333333333 L 92.0 88.0 L 93.0 88.33333333333333 L 94.0 88.66666666666667 L 95.0 88.66666666666667 L 96.0 88.33333333333333 L 97.0 88.0 L 98.0 87.66666666666667 L 99.0 87.33333333333333 L 100.0 87.0 L 101.0 86.66666666666667 L 102.0 86.0 L 102.66666666666667 85.0 L 103.0 84.0 L 102.66666666666667 83.33333333333333 L 102.0 83.0 L 101.0 83.0 L 100.0 83.0 L 99.0 82.66666666666667 L 98.0 82.0 L 97.33333333333333 81.0 L 97.0 80.0 L 97.0 79.0 L 97.33333333333333 78.0 L 98.0 77.0 L 99.0 76.33333333333333 L 100.0 75.66666666666667 L 101.0 75.0 L 102.0 74.0 L 103.0 73.0 L 103.66666666666667 72.0 L 104.33333333333333 71.0 L 104.66666666666667 70.0 L 104.66666666666667 69.0 L 104.33333333333333 68.0 L 104.0 67.0 L 104.0 66.0 L 104.0 65.0 L 104.0 64.0 L 104.0 63.0 L 104.0 62.0 L 104.0 61.0 L 104.0 60.0 L 104.0 59.0 L 104.0 58.0 L 103.66666666666667 57.0 L 103.33333333333333 56.0 L 102.66666666666667 55.0 L 102.33333333333333 54.0 L 102.0 53.0 L 102.0 52.0 L 102.0 51.0 L 102.0 50.0 L 102.0 49.0 L 102.0 48.0 L 102.0 47.0 L 102.0 46.0 L 102.0 45.0 L 102.0 44.0 L 102.0 43.0 L 102.0 42.0 L 101.66666666666667 41.0 L 101.33333333333333 40.0 L 101.0 39.0 L 101.0 38.0 L 100.66666666666667 37.0 L 100.33333333333333 36.0 L 100.0 35.0 L 99.66666666666667 34.0 L 99.33333333333333 33.0 L 98.66666666666667 32.0 L 98.33333333333333 31.0 L 97.66666666666667 30.0 L 97.0 29.0 L 96.33333333333333 28.0 L 95.66666666666667 27.0 L 95.0 26.0 L 94.0 25.0 L 93.0 24.0 L 92.0 23.0 L 91.0 22.333333333333332 L 90.0 22.0 L 89.0 22.0 L 88.0 22.333333333333332 L 87.0 22.333333333333332 L 86.33333333333333 22.0 L 86.0 21.0 L 85.66666666666667 20.0 L 85.33333333333333 19.0 L 84.66666666666667 18.0 L 84.33333333333333 17.0 L 83.66666666666667 16.0 L 83.0 15.0 L 82.0 14.0 L 81.0 13.0 L 80.0 12.333333333333334 L 79.0 11.666666666666666 L 78.0 11.0 L 77.0 10.333333333333334 L 76.0 9.666666666666666 L 75.0 9.333333333333334 L 74.0 8.666666666666666 L 73.0 8.333333333333334 L 72.0 8.0 L 71.0 8.0 L 70.0 7.666666666666667 L 69.0 7.333333333333333 L 68.0 7.0 L 67.0 7.0 L 66.0 7.0 L 65.0 7.0 L 64.0 7.0 L 63.0 7.0 L 62.0 7.0 L 61.0 6.666666666666667 L 60.0 6.333333333333333 L 59.0 6.0 L 58.0 6.0 L 57.0 6.333333333333333 L 56.0 6.666666666666667 L 55.333333333333336 7.333333333333333 L 54.666666666666664 8.0 L 54.0 9.0 L 53.0 10.0 L 52.0 11.0 L 51.0 12.0 L 50.0 13.0 L 49.0 13.666666666666666 L 48.0 14.0 L 47.0 14.0 L 46.0 14.0 L 45.0 14.0 L 44.0 14.0 L 43.0 13.666666666666666 L 42.0 13.0 L 41.0 12.0 L 40.0 11.0 L 39.0 10.333333333333334 L 38.0 10.333333333333334 L 37.333333333333336 11.0 L 37.0 12.0 L 37.0 13.0 L 37.0 14.0 L 37.0 15.0 L 37.0 16.0 L 36.666666666666664 17.0 L 36.0 18.0 L 35.0 19.0 L 34.0 20.0 L 33.0 21.0 L 32.333333333333336 22.0 L 31.666666666666668 23.0 L 31.333333333333332 24.0 L 31.0 25.0 L 31.0 26.0 L 31.0 27.0 L 31.0 28.0 L 31.0 29.0 L 30.666666666666668 30.0 L 30.0 31.0 L 29.333333333333332 32.0 L 28.666666666666668 33.0 L 28.333333333333332 34.0 L 27.666666666666668 35.0 L 27.333333333333332 36.0 L 27.0 37.0 L 27.0 38.0 L 26.666666666666668 39.0 L 26.333333333333332 40.0 L 26.0 41.0 L 26.0 42.0 L 26.0 43.0 L 26.0 44.0 L 26.0 45.0 L 26.0 46.0 L 26.0 47.0 L 26.0 48.0 L 26.333333333333332 49.0 L 26.666666666666668 50.0 L 26.666666666666668 51.0 L 26.333333333333332 52.0 L 25.666666666666668 53.0 L 25.333333333333332 54.0 L 25.0 55.0 L 24.666666666666668 56.0 L 24.333333333333332 57.0 L 24.0 58.0 L 24.0 59.0 L 24.0 60.0 L 24.0 61.0 L 24.0 62.0 L 24.0 63.0 L 24.0 64.0 L 24.0 65.0 L 24.0 66.0 L 24.0 67.0 L 24.0 68.0 L 24.333333333333332 69.0 L 24.666666666666668 70.0 L 25.0 71.0 L 25.0 72.0 L 25.333333333333332 73.0 L 26.0 74.0 L 27.0 75.0 L 28.0 76.0 L 29.0 77.0 L 30.0 78.0 L 31.0 79.0 L 31.666666666666668 80.0 L 32.0 81.0 L 31.666666666666668 82.0 L 31.0 83.0 L 30.0 83.66666666666667 L 29.0 84.0 L 28.0 84.0 L 27.0 84.0 L 26.333333333333332 84.33333333333333 L 26.0 85.0 L 26.333333333333332 86.0 L 27.0 86.66666666666667 L 28.0 87.0 L 29.0 87.33333333333333 L 30.0 87.66666666666667 L 31.0 88.0 L 32.0 88.33333333333333 L 32.5 88.5 Z" stroke="none" fill="rgb(255,225,59)" />
<path d="M 59.5 96.0 L 60.0 96.0 L 61.0 96.0 L 62.0 96.0 L 63.0 96.0 L 64.0 96.0 L 65.0 96.0 L 66.0 96.0 L 67.0 96.0 L 68.0 96.0 L 69.0 96.0 L 70.0 96.0 L 71.0 96.0 L 72.0 96.0 L 73.0 96.0 L 74.0 95.66666666666667 L 75.0 95.33333333333333 L 76.0 95.0 L 77.0 95.0 L 77.66666666666667 94.66666666666667 L 78.33333333333333 94.0 L 79.0 93.33333333333333 L 80.0 93.0 L 81.0 93.0 L 82.0 93.0 L 83.0 93.0 L 84.0 93.0 L 84.66666666666667 92.66666666666667 L 85.0 92.0 L 85.0 91.0 L 85.0 90.0 L 85.33333333333333 89.0 L 86.0 88.0 L 87.0 87.0 L 88.0 86.0 L 88.66666666666667 85.0 L 89.33333333333333 84.0 L 90.0 83.0 L 91.0 82.0 L 91.66666666666667 81.0 L 92.33333333333333 80.0 L 92.66666666666667 79.0 L 93.33333333333333 78.0 L 93.66666666666667 77.0 L 94.33333333333333 76.0 L 94.66666666666667 75.0 L 95.33333333333333 74.0 L 95.66666666666667 73.0 L 96.0 72.0 L 96.0 71.0 L 96.33333333333333 70.0 L 96.66666666666667 69.0 L 97.0 68.0 L 97.0 67.0 L 97.0 66.0 L 96.66666666666667 65.0 L 96.33333333333333 64.0 L 95.66666666666667 63.0 L 95.33333333333333 62.0 L 95.0 61.0 L 95.0 60.0 L 95.0 59.0 L 95.0 58.0 L 95.0 57.0 L 95.0 56.0 L 94.66666666666667 55.0 L 94.33333333333333 54.0 L 94.0 53.0 L 94.0 52.0 L 94.0 51.0 L 94.0 50.0 L 94.0 49.0 L 93.66666666666667 48.0 L 93.33333333333333 47.0 L 93.0 46.0 L 93.0 45.0 L 92.66666666666667 44.0 L 92.33333333333333 43.0 L 91.66666666666667 42.0 L 91.0 41.0 L 90.0 40.0 L 89.0 39.0 L 88.0 38.333333333333336 L 87.0 37.666666666666664 L 86.0 37.333333333333336 L 85.0 37.0 L 84.0 36.666666666666664 L 83.0 36.333333333333336 L 82.0 35.666666666666664 L 81.0 35.0 L 80.0 34.0 L 79.0 33.333333333333336 L 78.0 32.666666666666664 L 77.0 32.333333333333336 L 76.0 32.0 L 75.0 32.0 L 74.0 32.0 L 73.0 32.0 L 72.0 32.0 L 71.0 32.0 L 70.0 32.0 L 69.0 32.0 L 68.0 32.333333333333336 L 67.0 32.666666666666664 L 66.0 33.0 L 65.0 33.333333333333336 L 64.0 33.666666666666664 L 63.0 34.333333333333336 L 62.0 34.666666666666664 L 61.0 35.333333333333336 L 60.0 36.0 L 59.0 36.666666666666664 L 58.0 37.333333333333336 L 57.0 38.0 L 56.0 38.666666666666664 L 55.0 39.333333333333336 L 54.0 40.0 L 53.0 40.666666666666664 L 52.0 41.333333333333336 L 51.0 41.666666666666664 L 50.0 42.333333333333336 L 49.0 42.666666666666664 L 48.0 43.333333333333336 L 47.0 43.666666666666664 L 46.0 44.333333333333336 L 45.0 44.666666666666664 L 44.0 45.0 L 43.0 45.333333333333336 L 42.0 45.666666666666664 L 41.0 46.0 L 40.0 46.333333333333336 L 39.0 46.666666666666664 L 38.0 47.0 L 37.0 47.333333333333336 L 36.333333333333336 48.0 L 36.0 49.0 L 36.0 50.0 L 36.0 51.0 L 36.0 52.0 L 35.666666666666664 53.0 L 35.333333333333336 54.0 L 35.0 55.0 L 35.0 56.0 L 34.666666666666664 57.0 L 34.333333333333336 58.0 L 34.0 59.0 L 34.0 60.0 L 34.0 61.0 L 33.666666666666664 62.0 L 33.333333333333336 63.0 L 33.0 64.0 L 32.666666666666664 65.0 L 32.333333333333336 66.0 L 32.0 67.0 L 32.0 68.0 L 32.0 69.0 L 32.0 70.0 L 32.0 71.0 L 32.0 72.0 L 32.333333333333336 73.0 L 32.666666666666664 74.0 L 33.333333333333336 75.0 L 33.666666666666664 76.0 L 34.333333333333336 77.0 L 34.666666666666664 78.0 L 35.333333333333336 79.0 L 35.666666666666664 80.0 L 36.333333333333336 81.0 L 37.0 82.0 L 38.0 83.0 L 38.666666666666664 84.0 L 39.333333333333336 85.0 L 40.0 86.0 L 41.0 87.0 L 42.0 88.0 L 43.0 89.0 L 44.0 90.0 L 45.0 91.0 L 46.0 91.66666666666667 L 47.0 92.33333333333333 L 48.0 92.66666666666667 L 49.0 93.0 L 50.0 93.33333333333333 L 51.0 94.0 L 52.0 94.66666666666667 L 53.0 95.33333333333333 L 54.0 95.66666666666667 L 55.0 96.0 L 56.0 96.0 L 57.0 96.0 L 58.0 96.0 L 58.5 96.0 Z" stroke="none" fill="rgb(186,141,104)" />
<path d="M 39.5 124.0 L 40.0 124.0 L 41.0 124.0 L 42.0 124.0 L 43.0 124.0 L 44.0 124.0 L 45.0 124.0 L 46.0 124.0 L 47.0 124.0 L 48.0 124.0 L 49.0 124.0 L 50.0 124.0 L 51.0 124.0 L 52.0 124.0 L 53.0 124.0 L 54.0 124.0 L 55.0 124.0 L 56.0 124.0 L 57.0 124.0 L 58.0 124.0 L 59.0 124.0 L 60.0 124.0 L 61.0 124.0 L 62.0 124.0 L 63.0 124.0 L 64.0 124.0 L 65.0 124.0 L 66.0 124.0 L 67.0 124.0 L 68.0 124.0 L 69.0 124.0 L 70.0 124.0 L 71.0 124.0 L 72.0 124.0 L 73.0 124.0 L 74.0 124.0 L 75.0 124.0 L 76.0 124.0 L 77.0 124.0 L 78.0 124.0 L 79.0 124.0 L 80.0 124.0 L 81.0 124.0 L 82.0 124.0 L 83.0 124.0 L 84.0 124.0 L 85.0 124.0 L 86.0 124.0 L 87.0 124.0 L 88.0 124.0 L 89.0 124.0 L 90.0 124.0 L 91.0 124.0 L 92.0 124.0 L 93.0 124.0 L 94.0 124.0 L 95.0 124.0 L 96.0 124.0 L 97.0 124.0 L 98.0 124.0 L 99.0 124.0 L 100.0 124.0 L 101.0 124.0 L 102.0 124.0 L 103.0 124.0 L 104.0 124.0 L 105.0 124.0 L 106.0 124.0 L 107.0 124.0 L 108.0 124.0 L 109.0 124.0 L 110.0 124.0 L 111.0 124.0 L 112.0 124.0 L 113.0 124.0 L 114.0 124.0 L 115.0 124.0 L 115.66666666666667 123.66666666666667 L 116.0 123.0 L 116.0 122.0 L 116.0 121.0 L 115.66666666666667 120.33333333333333 L 115.0 120.0 L 114.0 120.0 L 113.0 120.0 L 112.0 120.0 L 111.0 120.0 L 110.0 120.0 L 109.0 120.0 L 108.0 120.0 L 107.0 120.0 L 106.0 120.0 L 105.0 120.0 L 104.0 120.0 L 103.0 120.0 L 102.0 120.0 L 101.0 120.0 L 100.0 120.0 L 99.0 120.0 L 98.0 120.0 L 97.0 120.0 L 96.0 120.0 L 95.0 120.0 L 94.0 120.0 L 93.0 120.0 L 92.0 120.0 L 91.0 120.0 L 90.0 120.0 L 89.0 120.0 L 88.0 120.0 L 87.0 120.0 L 86.0 120.0 L 85.0 120.0 L 84.0 120.0 L 83.0 120.0 L 82.0 120.0 L 81.0 120.0 L 80.0 120.0 L 79.0 120.0 L 78.0 120.0 L 77.0 120.0 L 76.0 120.0 L 75.0 120.0 L 74.0 120.0 L 73.0 120.0 L 72.0 120.0 L 71.0 120.0 L 70.0 120.0 L 69.0 120.0 L 68.0 120.0 L 67.0 120.0 L 66.0 120.0 L 65.0 120.0 L 64.0 120.0 L 63.0 120.0 L 62.0 120.0 L 61.0 120.0 L 60.0 120.0 L 59.0 120.0 L 58.0 120.0 L 57.0 120.0 L 56.0 120.0 L 55.0 120.0 L 54.0 120.0 L 53.0 120.0 L 52.0 120.0 L 51.0 120.0 L 50.0 120.0 L 49.0 120.0 L 48.0 120.0 L 47.0 120.0 L 46.0 120.0 L 45.0 120.0 L 44.0 120.0 L 43.0 120.0 L 42.0 120.0 L 41.0 120.0 L 40.0 120.0 L 39.0 120.0 L 38.0 120.0 L 37.0 120.0 L 36.0 120.0 L 35.0 120.0 L 34.0 120.0 L 33.0 120.0 L 32.0 120.0 L 31.0 120.0 L 30.0 120.0 L 29.0 120.0 L 28.0 120.0 L 27.0 120.0 L 26.0 120.0 L 25.0 120.0 L 24.0 120.0 L 23.0 120.0 L 22.0 120.0 L 21.0 120.0 L 20.0 120.0 L 19.0 120.0 L 18.0 120.0 L 17.0 120.0 L 16.0 120.0 L 15.0 120.0 L 14.0 120.0 L 13.0 120.0 L 12.333333333333334 120.33333333333333 L 12.0 121.0 L 12.0 122.0 L 12.0 123.0 L 12.333333333333334 123.66666666666667 L 13.0 124.0 L 14.0 124.0 L 15.0 124.0 L 16.0 124.0 L 17.0 124.0 L 18.0 124.0 L 19.0 124.0 L 20.0 124.0 L 21.0 124.0 L 22.0 124.0 L 23.0 124.0 L 24.0 124.0 L 25.0 124.0 L 26.0 124.0 L 27.0 124.0 L 28.0 124.0 L 29.0 124.0 L 30.0 124.0 L 31.0 124.0 L 32.0 124.0 L 33.0 124.0 L 34.0 124.0 L 35.0 124.0 L 36.0 124.0 L 37.0 124.0 L 38.0 124.0 L 38.5 124.0 Z" stroke="none" fill="rgb(238,110,35)" />
<path d="M 95.5 120.0 L 96.0 120.0 L 97.0 120.0 L 98.0 120.0 L 99.0 120.0 L 100.0 120.0 L 101.0 120.0 L 102.0 120.0 L 103.0 120.0 L 104.0 120.0 L 105.0 120.0 L 106.0 120.0 L 107.0 120.0 L 108.0 120.0 L 109.0 120.0 L 110.0 120.0 L 111.0 120.0 L 112.0 120.0 L 113.0 120.0 L 114.0 120.0 L 115.0 120.0 L 115.66666666666667 119.66666666666667 L 116.0 119.0 L 116.0 118.0 L 115.66666666666667 117.0 L 115.0 116.33333333333333 L 114.0 116.0 L 113.0 116.0 L 112.0 116.0 L 111.0 116.0 L 110.0 116.0 L 109.0 116.0 L 108.0 116.0 L 107.0 116.0 L 106.0 116.0 L 105.0 116.0 L 104.0 116.0 L 103.0 116.0 L 102.0 116.0 L 101.0 116.0 L 100.0 116.0 L 99.0 116.0 L 98.0 116.0 L 97.0 116.0 L 96.0 116.0 L 95.0 116.0 L 94.0 116.0 L 93.0 116.0 L 92.0 116.0 L 91.0 116.0 L 90.0 116.0 L 89.0 116.0 L 88.0 116.0 L 87.0 116.0 L 86.0 116.0 L 85.0 116.0 L 84.0 116.0 L 83.0 116.0 L 82.0 116.0 L 81.0 116.0 L 80.0 116.0 L 79.0 116.0 L 78.0 116.0 L 77.0 116.0 L 76.0 116.0 L 75.0 116.0 L 74.0 116.0 L 73.0 116.0 L 72.0 116.0 L 71.0 116.0 L 70.0 116.0 L 69.0 116.0 L 68.0 116.0 L 67.0 116.0 L 66.0 116.0 L 65.0 116.0 L 64.0 116.0 L 63.0 116.0 L 62.0 116.0 L 61.0 116.0 L 60.0 116.0 L 59.0 116.0 L 58.0 116.0 L 57.0 116.0 L 56.0 116.0 L 55.0 116.0 L 54.0 116.0 L 53.0 116.0 L 52.0 116.0 L 51.0 116.0 L 50.0 116.0 L 49.0 116.0 L 48.0 116.0 L 47.0 116.0 L 46.0 116.0 L 45.0 116.0 L 44.0 116.0 L 43.0 116.0 L 42.0 116.0 L 41.0 116.0 L 40.0 116.0 L 39.0 116.0 L 38.0 116.0 L 37.0 116.0 L 36.0 116.0 L 35.0 116.0 L 34.0 116.0 L 33.0 116.0 L 32.0 116.0 L 31.0 116.0 L 30.0 116.0 L 29.0 116.0 L 28.0 116.0 L 27.0 116.0 L 26.0 116.0 L 25.0 116.0 L 24.0 116.0 L 23.0 116.0 L 22.0 116.0 L 21.0 116.0 L 20.0 116.0 L 19.0 116.0 L 18.0 116.0 L 17.0 116.0 L 16.0 116.0 L 15.0 116.0 L 14.0 116.0 L 13.0 116.33333333333333 L 12.333333333333334 117.0 L 12.0 118.0 L 12.0 119.0 L 12.333333333333334 119.66666666666667 L 13.0 120.0 L 14.0 120.0 L 15.0 120.0 L 16.0 120.0 L 17.0 120.0 L 18.0 120.0 L 19.0 120.0 L 20.0 120.0 L 21.0 120.0 L 22.0 120.0 L 23.0 120.0 L 24.0 120.0 L 25.0 120.0 L 26.0 120.0 L 27.0 120.0 L 28.0 120.0 L 29.0 120.0 L 30.0 120.0 L 31.0 120.0 L 32.0 120.0 L 33.0 120.0 L 34.0 120.0 L 35.0 120.0 L 36.0 120.0 L 37.0 120.0 L 38.0 120.0 L 39.0 120.0 L 40.0 120.0 L 41.0 120.0 L 42.0 120.0 L 43.0 120.0 L 44.0 120.0 L 45.0 120.0 L 46.0 120.0 L 47.0 120.0 L 48.0 120.0 L 49.0 120.0 L 50.0 120.0 L 51.0 120.0 L 52.0 120.0 L 53.0 120.0 L 54.0 120.0 L 55.0 120.0 L 56.0 120.0 L 57.0 120.0 L 58.0 120.0 L 59.0 120.0 L 60.0 120.0 L 61.0 120.0 L 62.0 120.0 L 63.0 120.0 L 64.0 120.0 L 65.0 120.0 L 66.0 120.0 L 67.0 120.0 L 68.0 120.0 L 69.0 120.0 L 70.0 120.0 L 71.0 120.0 L 72.0 120.0 L 73.0 120.0 L 74.0 120.0 L 75.0 120.0 L 76.0 120.0 L 77.0 120.0 L 78.0 120.0 L 79.0 120.0 L 80.0 120.0 L 81.0 120.0 L 82.0 120.0 L 83.0 120.0 L 84.0 120.0 L 85.0 120.0 L 86.0 120.0 L 87.0 120.0 L 88.0 120.0 L 89.0 120.0 L 90.0 120.0 L 91.0 120.0 L 92.0 120.0 L 93.0 120.0 L 94.0 120.0 L 94.5 120.0 Z" stroke="none" fill="rgb(239,116,34)" />
<path d="M 26.5 116.0 L 27.0 116.0 L 28.0 116.0 L 29.0 116.0 L 30.0 116.0 L 31.0 116.0 L 32.0 116.0 L 33.0 116.0 L 34.0 116.0 L 35.0 116.0 L 36.0 116.0 L 37.0 116.0 L 38.0 116.0 L 39.0 116.0 L 40.0 116.0 L 41.0 116.0 L 42.0 116.0 L 43.0 116.0 L 44.0 116.0 L 45.0 116.0 L 46.0 116.0 L 47.0 116.0 L 48.0 116.0 L 49.0 116.0 L 50.0 116.0 L 51.0 116.0 L 52.0 116.0 L 53.0 116.0 L 54.0 116.0 L 55.0 116.0 L 56.0 116.0 L 57.0 116.0 L 58.0 116.0 L 59.0 116.0 L 60.0 116.0 L 61.0 116.0 L 62.0 116.0 L 63.0 116.0 L 64.0 116.0 L 65.0 116.0 L 66.0 116.0 L 67.0 116.0 L 68.0 116.0 L 69.0 116.0 L 70.0 116.0 L 71.0 116.0 L 72.0 116.0 L 73.0 116.0 L 74.0 116.0 L 75.0 116.0 L 76.0 116.0 L 77.0 116.0 L 78.0 116.0 L 79.0 116.0 L 80.0 116.0 L 81.0 116.0 L 82.0 116.0 L 83.0 116.0 L 84.0 116.0 L 85.0 116.0 L 86.0 116.0 L 87.0 116.0 L 88.0 116.0 L 89.0 116.0 L 90.0 116.0 L 91.0 116.0 L 92.0 116.0 L 93.0 116.0 L 94.0 116.0 L 95.0 116.0 L 96.0 116.0 L 97.0 116.0 L 98.0 116.0 L 99.0 116.0 L 100.0 116.0 L 101.0 116.0 L 102.0 116.0 L 103.0 116.0 L 104.0 116.0 L 105.0 116.0 L 106.0 116.0 L 107.0 116.0 L 108.0 116.0 L 109.0 116.0 L 110.0 116.0 L 111.0 116.0 L 112.0 116.0 L 113.0 116.0 L 114.0 116.0 L 114.66666666666667 115.66666666666667 L 115.0 115.0 L 114.66666666666667 114.0 L 114.33333333333333 113.0 L 113.66666666666667 112.33333333333333 L 113.0 112.0 L 112.0 112.0 L 111.0 112.0 L 110.0 112.0 L 109.0 112.0 L 108.0 112.0 L 107.0 112.0 L 106.0 112.0 L 105.0 112.0 L 104.0 112.0 L 103.0 112.0 L 102.0 112.0 L 101.0 112.0 L 100.0 112.0 L 99.0 112.0 L 98.0 112.0 L 97.0 112.0 L 96.0 112.0 L 95.0 112.0 L 94.0 112.0 L 93.0 112.0 L 92.0 112.0 L 91.0 112.0 L 90.0 112.0 L 89.0 112.0 L 88.0 112.0 L 87.0 112.0 L 86.0 112.0 L 85.0 112.0 L 84.0 112.0 L 83.0 112.0 L 82.0 112.0 L 81.0 112.0 L 80.0 112.0 L 79.0 112.0 L 78.0 112.0 L 77.0 112.0 L 76.0 112.0 L 75.0 112.0 L 74.0 112.0 L 73.0 112.0 L 72.0 112.0 L 71.0 112.0 L 70.0 112.0 L 69.0 112.0 L 68.0 112.0 L 67.0 112.0 L 66.0 112.0 L 65.0 112.0 L 64.0 112.0 L 63.0 112.0 L 62.0 112.0 L 61.0 112.0 L 60.0 112.0 L 59.0 112.0 L 58.0 112.0 L 57.0 112.0 L 56.0 112.0 L 55.0 112.0 L 54.0 112.0 L 53.0 112.0 L 52.0 112.0 L 51.0 112.0 L 50.0 112.0 L 49.0 112.0 L 48.0 112.0 L 47.0 112.0 L 46.0 112.0 L 45.0 112.0 L 44.0 112.0 L 43.0 112.0 L 42.0 112.0 L 41.0 112.0 L 40.0 112.0 L 39.0 112.0 L 38.0 112.0 L 37.0 112.0 L 36.0 112.0 L 35.0 112.0 L 34.0 112.0 L 33.0 112.0 L 32.0 112.0 L 31.0 112.0 L 30.0 112.0 L 29.0 112.0 L 28.0 112.0 L 27.0 112.0 L 26.0 112.0 L 25.0 112.0 L 24.0 112.0 L 23.0 112.0 L 22.0 112.0 L 21.0 112.0 L 20.0 112.0 L 19.0 112.0 L 18.0 112.0 L 17.0 112.0 L 16.0 112.0 L 15.0 112.0 L 14.0 112.33333333333333 L 13.333333333333334 113.0 L 13.0 114.0 L 13.333333333333334 115.0 L 14.0 115.66666666666667 L 15.0 116.0 L 16.0 116.0 L 17.0 116.0 L 18.0 116.0 L 19.0 116.0 L 20.0 116.0 L 21.0 116.0 L 22.0 116.0 L 23.0 116.0 L 24.0 116.0 L 25.0 116.0 L 25.5 116.0 Z" stroke="none" fill="rgb(241,121,34)" />
<path d="M 20.5 112.0 L 21.0 112.0 L 22.0 112.0 L 23.0 112.0 L 24.0 112.0 L 25.0 112.0 L 26.0 112.0 L 27.0 112.0 L 28.0 112.0 L 29.0 112.0 L 30.0 112.0 L 31.0 112.0 L 32.0 112.0 L 33.0 112.0 L 34.0 112.0 L 35.0 112.0 L 36.0 112.0 L 37.0 112.0 L 38.0 112.0 L 39.0 112.0 L 40.0 112.0 L 41.0 112.0 L 42.0 112.0 L 43.0 112.0 L 44.0 112.0 L 45.0 112.0 L 46.0 112.0 L 47.0 112.0 L 48.0 112.0 L 49.0 112.0 L 50.0 112.0 L 51.0 112.0 L 52.0 112.0 L 53.0 112.0 L 54.0 112.0 L 55.0 112.0 L 56.0 112.0 L 57.0 112.0 L 58.0 112.0 L 59.0 112.0 L 60.0 112.0 L 61.0 112.0 L 62.0 112.0 L 63.0 112.0 L 64.0 112.0 L 65.0 112.0 L 66.0 112.0 L 67.0 112.0 L 68.0 112.0 L 69.0 112.0 L 70.0 112.0 L 71.0 112.0 L 72.0 112.0 L 73.0 112.0 L 74.0 112.0 L 75.0 112.0 L 76.0 112.0 L 77.0 112.0 L 78.0 112.0 L 79.0 112.0 L 80.0 112.0 L 81.0 112.0 L 82.0 112.0 L 83.0 112.0 L 84.0 112.0 L 85.0 112.0 L 86.0 112.0 L 87.0 112.0 L 88.0 112.0 L 89.0 112.0 L 90.0 112.0 L 91.0 112.0 L 92.0 112.0 L 93.0 112.0 L 94.0 112.0 L 95.0 112.0 L 96.0 112.0 L 97.0 112.0 L 98.0 112.0 L 99.0 112.0 L 100.0 112.0 L 101.0 112.0 L 102.0 112.0 L 103.0 112.0 L 104.0 112.0 L 105.0 112.0 L 106.0 112.0 L 107.0 112.0 L 108.0 112.0 L 109.0 112.0 L 110.0 112.0 L 111.0 112.0 L 112.0 112.0 L 112.66666666666667 111.66666666666667 L 113.0 111.0 L 112.66666666666667 110.0 L 112.0 109.33333333333333 L 111.0 109.0 L 110.0 109.0 L 109.0 109.0 L 108.0 109.0 L 107.0 109.0 L 106.0 109.0 L 105.0 109.0 L 104.0 109.0 L 103.0 109.0 L 102.0 109.0 L 101.0 109.0 L 100.0 109.0 L 99.0 109.0 L 98.0 109.0 L 97.0 109.0 L 96.0 109.0 L 95.0 109.0 L 94.0 109.0 L 93.0 109.0 L 92.0 109.0 L 91.0 109.0 L 90.0 109.0 L 89.0 109.0 L 88.0 109.0 L 87.0 109.0 L 86.0 109.0 L 85.0 109.0 L 84.0 109.0 L 83.0 109.0 L 82.0 109.0 L 81.0 109.0 L 80.0 109.0 L 79.0 109.0 L 78.0 109.0 L 77.0 109.0 L 76.0 109.0 L 75.0 109.0 L 74.0 109.0 L 73.0 109.0 L 72.0 109.0 L 71.0 109.0 L 70.0 109.0 L 69.0 109.0 L 68.0 109.0 L 67.0 109.0 L 66.0 109.0 L 65.0 109.0 L 64.0 109.0 L 63.0 109.0 L 62.0 109.0 L 61.0 109.0 L 60.0 109.0 L 59.0 109.0 L 58.0 109.0 L 57.0 109.0 L 56.0 109.0 L 55.0 109.0 L 54.0 109.0 L 53.0 109.0 L 52.0 109.0 L 51.0 109.0 L 50.0 109.0 L 49.0 109.0 L 48.0 109.0 L 47.0 109.0 L 46.0 109.0 L 45.0 109.0 L 44.0 109.0 L 43.0 109.0 L 42.0 109.0 L 41.0 109.0 L 40.0 109.0 L 39.0 109.0 L 38.0 109.0 L 37.0 109.0 L 36.0 109.0 L 35.0 109.0 L 34.0 109.0 L 33.0 109.0 L 32.0 109.0 L 31.0 109.0 L 30.0 109.0 L 29.0 109.0 L 28.0 109.0 L 27.0 109.0 L 26.0 109.0 L 25.0 109.0 L 24.0 109.0 L 23.0 109.0 L 22.0 109.0 L 21.0 109.0 L 20.0 109.0 L 19.0 109.0 L 18.0 109.0 L 17.0 109.0 L 16.0 109.33333333333333 L 15.333333333333334 110.0 L 15.0 111.0 L 15.333333333333334 111.66666666666667 L 16.0 112.0 L 17.0 112.0 L 18.0 112.0 L 19.0 112.0 L 19.5 112.0 Z" stroke="none" fill="rgb(242,125,33)" />
<path d="M 72.0 105.5 L 72.33333333333333 105.0 L 72.66666666666667 104.0 L 73.0 103.0 L 73.33333333333333 102.0 L 73.66666666666667 101.0 L 73.66666666666667 100.0 L 73.33333333333333 99.0 L 73.0 98.0 L 73.0 97.0 L 72.66666666666667 96.33333333333333 L 72.0 96.0 L 71.0 96.0 L 70.0 96.0 L 69.0 96.0 L 68.0 96.0 L 67.0 96.0 L 66.0 96.0 L 65.0 96.0 L 64.0 96.0 L 63.0 96.0 L 62.0 96.0 L 61.0 96.0 L 60.0 96.0 L 59.0 96.0 L 58.0 96.0 L 57.0 96.0 L 56.0 96.0 L 55.333333333333336 96.33333333333333 L 55.0 97.0 L 55.0 98.0 L 55.0 99.0 L 55.0 100.0 L 55.0 101.0 L 55.0 102.0 L 55.0 103.0 L 55.333333333333336 104.0 L 55.666666666666664 105.0 L 56.333333333333336 106.0 L 57.0 106.66666666666667 L 58.0 107.33333333333333 L 59.0 108.0 L 60.0 108.66666666666667 L 61.0 109.0 L 62.0 109.0 L 63.0 109.0 L 64.0 109.0 L 65.0 109.0 L 66.0 109.0 L 67.0 109.0 L 68.0 109.0 L 69.0 109.0 L 69.66666666666667 108.66666666666667 L 70.33333333333333 108.0 L 71.0 107.0 L 71.5 106.5 Z" stroke="none" fill="rgb(153,104,79)" />
<path d="M 43.5 106.0 L 44.0 106.0 L 45.0 106.0 L 46.0 106.0 L 47.0 106.0 L 48.0 106.0 L 49.0 106.0 L 50.0 106.0 L 51.0 106.0 L 52.0 106.0 L 53.0 106.0 L 54.0 106.0 L 55.0 106.0 L 55.666666666666664 105.66666666666667 L 56.0 105.0 L 55.666666666666664 104.0 L 55.333333333333336 103.0 L 55.0 102.0 L 54.666666666666664 101.33333333333333 L 54.0 101.0 L 53.0 101.0 L 52.0 101.0 L 51.0 101.0 L 50.0 101.0 L 49.0 101.0 L 48.0 101.0 L 47.0 101.0 L 46.0 101.0 L 45.0 101.0 L 44.0 101.0 L 43.0 101.0 L 42.0 101.0 L 41.0 101.0 L 40.0 101.0 L 39.0 101.0 L 38.0 101.0 L 37.0 101.0 L 36.0 101.0 L 35.0 101.0 L 34.0 101.0 L 33.0 101.0 L 32.0 101.0 L 31.0 100.66666666666667 L 30.0 100.33333333333333 L 29.0 100.0 L 28.0 100.33333333333333 L 27.0 100.66666666666667 L 26.0 101.33333333333333 L 25.0 101.66666666666667 L 24.0 102.33333333333333 L 23.0 102.66666666666667 L 22.0 103.33333333333333 L 21.333333333333332 104.0 L 21.0 105.0 L 21.333333333333332 105.66666666666667 L 22.0 106.0 L 23.0 106.0 L 24.0 106.0 L 25.0 106.0 L 26.0 106.0 L 27.0 106.0 L 28.0 106.0 L 29.0 106.0 L 30.0 106.0 L 31.0 106.0 L 32.0 106.0 L 33.0 106.0 L 34.0 106.0 L 35.0 106.0 L 36.0 106.0 L 37.0 106.0 L 38.0 106.0 L 39.0 106.0 L 40.0 106.0 L 41.0 106.0 L 42.0 106.0 L 42.5 106.0 Z" stroke="none" fill="rgb(245,133,32)" />
<path d="M 78.5 106.0 L 79.0 106.0 L 80.0 106.0 L 81.0 106.0 L 82.0 106.0 L 83.0 106.0 L 84.0 106.0 L 85.0 106.0 L 86.0 106.0 L 87.0 106.0 L 88.0 106.0 L 89.0 106.0 L 90.0 106.0 L 91.0 106.0 L 92.0 106.0 L 93.0 106.0 L 94.0 106.0 L 95.0 106.0 L 96.0 106.0 L 97.0 106.0 L 98.0 106.0 L 99.0 106.0 L 100.0 106.0 L 101.0 106.0 L 102.0 106.0 L 103.0 106.0 L 104.0 106.0 L 105.0 106.0 L 105.66666666666667 105.66666666666667 L 106.0 105.0 L 105.66666666666667 104.0 L 105.0 103.0 L 104.0 102.33333333333333 L 103.0 101.66666666666667 L 102.0 101.33333333333333 L 101.0 100.66666666666667 L 100.0 100.33333333333333 L 99.0 100.0 L 98.0 100.0 L 97.0 100.33333333333333 L 96.0 100.66666666666667 L 95.0 101.0 L 94.0 101.0 L 93.0 101.0 L 92.0 101.0 L 91.0 101.0 L 90.0 101.0 L 89.0 101.0 L 88.0 101.0 L 87.0 101.0 L 86.0 101.0 L 85.0 101.0 L 84.0 101.0 L 83.0 101.0 L 82.0 101.0 L 81.0 101.0 L 80.0 101.0 L 79.0 101.0 L 78.0 101.0 L 77.0 101.0 L 76.0 101.0 L 75.0 101.0 L 74.0 101.0 L 73.33333333333333 101.33333333333333 L 73.0 102.0 L 72.66666666666667 103.0 L 72.33333333333333 104.0 L 72.0 105.0 L 72.33333333333333 105.66666666666667 L 73.0 106.0 L 74.0 106.0 L 75.0 106.0 L 76.0 106.0 L 77.0 106.0 L 77.5 106.0 Z" stroke="none" fill="rgb(245,133,32)" />
<path d="M 30.5 31.5 L 30.666666666666668 31.0 L 31.0 30.0 L 31.0 29.0 L 31.0 28.0 L 31.0 27.0 L 31.0 26.0 L 30.666666666666668 25.0 L 30.666666666666668 24.0 L 30.666666666666668 23.0 L 31.333333333333332 22.0 L 32.0 21.0 L 33.0 20.0 L 34.0 19.0 L 34.666666666666664 18.0 L 34.666666666666664 17.333333333333332 L 34.0 17.0 L 33.0 17.333333333333332 L 32.0 18.0 L 31.0 19.0 L 30.333333333333332 20.0 L 29.666666666666668 21.0 L 29.333333333333332 22.0 L 29.0 23.0 L 28.666666666666668 24.0 L 28.333333333333332 25.0 L 28.0 26.0 L 28.0 27.0 L 28.0 28.0 L 28.0 29.0 L 28.0 30.0 L 27.666666666666668 31.0 L 27.0 32.0 L 26.0 33.0 L 25.333333333333332 34.0 L 25.0 35.0 L 24.666666666666668 36.0 L 24.333333333333332 37.0 L 24.0 38.0 L 24.0 39.0 L 24.0 40.0 L 24.0 41.0 L 24.0 42.0 L 23.666666666666668 43.0 L 23.333333333333332 44.0 L 23.0 45.0 L 23.0 46.0 L 23.333333333333332 47.0 L 23.666666666666668 48.0 L 23.666666666666668 49.0 L 23.0 50.0 L 22.333333333333332 51.0 L 21.666666666666668 52.0 L 21.333333333333332 53.0 L 21.0 54.0 L 21.0 55.0 L 20.666666666666668 56.0 L 20.333333333333332 57.0 L 19.666666666666668 58.0 L 19.333333333333332 59.0 L 19.333333333333332 60.0 L 19.666666666666668 61.0 L 20.0 62.0 L 20.0 63.0 L 20.333333333333332 64.0 L 21.0 64.66666666666667 L 21.666666666666668 64.66666666666667 L 22.0 64.0 L 22.0 63.0 L 22.0 62.0 L 22.0 61.0 L 22.0 60.0 L 22.333333333333332 59.0 L 22.666666666666668 58.0 L 23.0 57.0 L 23.0 56.0 L 23.333333333333332 55.0 L 23.666666666666668 54.0 L 24.0 53.0 L 24.333333333333332 52.0 L 24.666666666666668 51.0 L 25.333333333333332 50.0 L 25.666666666666668 49.0 L 26.0 48.0 L 26.0 47.0 L 26.0 46.0 L 26.0 45.0 L 26.0 44.0 L 26.0 43.0 L 26.0 42.0 L 26.333333333333332 41.0 L 26.666666666666668 40.0 L 27.0 39.0 L 27.0 38.0 L 27.333333333333332 37.0 L 27.666666666666668 36.0 L 28.333333333333332 35.0 L 28.666666666666668 34.0 L 29.333333333333332 33.0 L 29.5 32.5 Z" stroke="none" fill="rgb(255,232,73)" />
<path d="M 108.0 63.5 L 108.0 63.0 L 108.0 62.0 L 108.33333333333333 61.0 L 108.66666666666667 60.0 L 109.0 59.0 L 108.66666666666667 58.0 L 108.0 57.0 L 107.33333333333333 56.0 L 107.0 55.0 L 106.66666666666667 54.0 L 106.33333333333333 53.0 L 106.0 52.0 L 105.66666666666667 51.0 L 105.66666666666667 50.0 L 105.66666666666667 49.0 L 106.33333333333333 48.0 L 106.66666666666667 47.0 L 107.0 46.0 L 107.0 45.0 L 107.0 44.0 L 106.66666666666667 43.0 L 106.33333333333333 42.0 L 106.0 41.0 L 106.0 40.0 L 105.66666666666667 39.0 L 105.33333333333333 38.0 L 105.0 37.0 L 104.66666666666667 36.0 L 104.33333333333333 35.0 L 104.0 34.0 L 103.66666666666667 33.0 L 103.33333333333333 32.0 L 102.66666666666667 31.0 L 102.33333333333333 30.0 L 101.66666666666667 29.0 L 101.33333333333333 28.0 L 100.66666666666667 27.0 L 100.0 26.0 L 99.33333333333333 25.0 L 98.66666666666667 24.0 L 98.0 23.0 L 97.0 22.0 L 96.0 21.0 L 95.0 20.0 L 94.0 19.0 L 93.0 18.333333333333332 L 92.0 18.333333333333332 L 91.33333333333333 19.0 L 91.33333333333333 20.0 L 92.0 21.0 L 93.0 22.0 L 94.0 23.0 L 95.0 24.0 L 96.0 25.0 L 96.66666666666667 26.0 L 97.33333333333333 27.0 L 98.0 28.0 L 98.66666666666667 29.0 L 99.33333333333333 30.0 L 99.66666666666667 31.0 L 100.33333333333333 32.0 L 100.66666666666667 33.0 L 101.33333333333333 34.0 L 101.66666666666667 35.0 L 102.0 36.0 L 102.33333333333333 37.0 L 102.66666666666667 38.0 L 103.0 39.0 L 103.33333333333333 40.0 L 103.66666666666667 41.0 L 104.0 42.0 L 104.0 43.0 L 104.0 44.0 L 104.0 45.0 L 104.0 46.0 L 104.0 47.0 L 104.0 48.0 L 104.0 49.0 L 104.0 50.0 L 104.0 51.0 L 104.0 52.0 L 104.0 53.0 L 104.33333333333333 54.0 L 104.66666666666667 55.0 L 105.0 56.0 L 105.33333333333333 57.0 L 105.66666666666667 58.0 L 106.0 59.0 L 106.0 60.0 L 106.0 61.0 L 106.0 62.0 L 106.0 63.0 L 106.33333333333333 63.666666666666664 L 107.0 64.0 L 107.5 64.0 Z" stroke="none" fill="rgb(255,232,73)" />
<path d="M 104.5 69.0 L 105.0 69.0 L 105.66666666666667 68.66666666666667 L 106.33333333333333 68.0 L 106.66666666666667 67.0 L 107.0 66.0 L 107.0 65.0 L 106.66666666666667 64.0 L 106.33333333333333 63.0 L 106.0 62.0 L 106.0 61.0 L 106.0 60.0 L 106.0 59.0 L 106.0 58.0 L 105.66666666666667 57.0 L 105.33333333333333 56.0 L 105.0 55.0 L 104.66666666666667 54.0 L 104.33333333333333 53.0 L 104.0 52.0 L 104.0 51.0 L 104.0 50.0 L 104.0 49.0 L 104.0 48.0 L 104.0 47.0 L 104.0 46.0 L 104.0 45.0 L 104.0 44.0 L 104.0 43.0 L 104.0 42.0 L 104.0 41.0 L 103.66666666666667 40.0 L 103.33333333333333 39.0 L 103.0 38.0 L 102.66666666666667 37.0 L 102.33333333333333 36.0 L 102.0 35.0 L 101.66666666666667 34.0 L 101.33333333333333 33.0 L 100.66666666666667 32.0 L 100.33333333333333 31.0 L 99.66666666666667 30.0 L 99.33333333333333 29.0 L 98.66666666666667 28.0 L 98.0 27.0 L 97.33333333333333 26.0 L 96.66666666666667 25.0 L 96.0 24.0 L 95.0 23.0 L 94.0 22.0 L 93.0 21.0 L 92.0 20.333333333333332 L 91.0 20.333333333333332 L 90.33333333333333 21.0 L 90.33333333333333 22.0 L 91.0 23.0 L 92.0 24.0 L 93.0 25.0 L 94.0 26.0 L 95.0 27.0 L 95.66666666666667 28.0 L 96.33333333333333 29.0 L 97.0 30.0 L 97.66666666666667 31.0 L 98.33333333333333 32.0 L 98.66666666666667 33.0 L 99.33333333333333 34.0 L 99.66666666666667 35.0 L 100.0 36.0 L 100.33333333333333 37.0 L 100.66666666666667 38.0 L 101.0 39.0 L 101.0 40.0 L 101.33333333333333 41.0 L 101.66666666666667 42.0 L 102.0 43.0 L 102.0 44.0 L 102.0 45.0 L 102.0 46.0 L 102.0 47.0 L 102.0 48.0 L 102.0 49.0 L 102.0 50.0 L 102.0 51.0 L 102.0 52.0 L 102.0 53.0 L 102.0 54.0 L 102.33333333333333 55.0 L 102.66666666666667 56.0 L 103.33333333333333 57.0 L 103.66666666666667 58.0 L 104.0 59.0 L 104.0 60.0 L 104.0 61.0 L 104.0 62.0 L 104.0 63.0 L 104.0 64.0 L 104.0 65.0 L 104.0 66.0 L 104.0 67.0 L 104.0 68.0 L 104.0 68.5 Z" stroke="none" fill="rgb(255,228,66)" />
<path d="M 40.5 109.0 L 41.0 109.0 L 42.0 109.0 L 43.0 109.0 L 44.0 109.0 L 45.0 109.0 L 46.0 109.0 L 47.0 109.0 L 48.0 109.0 L 49.0 109.0 L 50.0 109.0 L 51.0 109.0 L 52.0 109.0 L 53.0 109.0 L 54.0 109.0 L 55.0 109.0 L 56.0 109.0 L 57.0 109.0 L 58.0 109.0 L 59.0 109.0 L 59.666666666666664 108.66666666666667 L 59.666666666666664 108.0 L 59.0 107.33333333333333 L 58.0 106.66666666666667 L 57.0 106.33333333333333 L 56.0 106.0 L 55.0 106.0 L 54.0 106.0 L 53.0 106.0 L 52.0 106.0 L 51.0 106.0 L 50.0 106.0 L 49.0 106.0 L 48.0 106.0 L 47.0 106.0 L 46.0 106.0 L 45.0 106.0 L 44.0 106.0 L 43.0 106.0 L 42.0 106.0 L 41.0 106.0 L 40.0 106.0 L 39.0 106.0 L 38.0 106.0 L 37.0 106.0 L 36.0 106.0 L 35.0 106.0 L 34.0 106.0 L 33.0 106.0 L 32.0 106.0 L 31.0 106.0 L 30.0 106.0 L 29.0 106.0 L 28.0 106.0 L 27.0 106.0 L 26.0 106.0 L 25.0 106.0 L 24.0 106.0 L 23.0 106.0 L 22.0 105.66666666666667 L 21.0 105.33333333333333 L 20.0 105.0 L 19.0 105.33333333333333 L 18.0 106.0 L 17.333333333333332 107.0 L 17.0 108.0 L 17.333333333333332 108.66666666666667 L 18.0 109.0 L 19.0 109.0 L 20.0 109.0 L 21.0 109.0 L 22.0 109.0 L 23.0 109.0 L 24.0 109.0 L 25.0 109.0 L 26.0 109.0 L 27.0 109.0 L 28.0 109.0 L 29.0 109.0 L 30.0 109.0 L 31.0 109.0 L 32.0 109.0 L 33.0 109.0 L 34.0 109.0 L 35.0 109.0 L 36.0 109.0 L 37.0 109.0 L 38.0 109.0 L 39.0 109.0 L 39.5 109.0 Z" stroke="none" fill="rgb(243,128,33)" />
<path d="M 59.5 83.0 L 60.0 83.0 L 61.0 83.33333333333333 L 62.0 83.66666666666667 L 63.0 84.0 L 64.0 84.0 L 65.0 84.0 L 66.0 84.0 L 67.0 84.0 L 68.0 84.0 L 69.0 83.66666666666667 L 70.0 83.33333333333333 L 71.0 82.66666666666667 L 72.0 82.0 L 73.0 81.0 L 74.0 80.0 L 74.66666666666667 79.0 L 75.0 78.0 L 75.0 77.0 L 74.66666666666667 76.33333333333333 L 74.0 76.0 L 73.0 76.0 L 72.0 76.33333333333333 L 71.0 76.66666666666667 L 70.0 77.0 L 69.0 77.0 L 68.0 77.0 L 67.0 77.0 L 66.0 77.0 L 65.0 77.0 L 64.0 77.0 L 63.0 77.0 L 62.0 77.0 L 61.0 77.0 L 60.0 77.0 L 59.0 76.66666666666667 L 58.0 76.33333333333333 L 57.0 76.0 L 56.0 76.0 L 55.0 76.0 L 54.0 76.0 L 53.333333333333336 76.33333333333333 L 53.0 77.0 L 53.0 78.0 L 53.333333333333336 79.0 L 54.0 80.0 L 55.0 81.0 L 56.0 81.66666666666667 L 57.0 82.33333333333333 L 58.0 82.66666666666667 L 58.5 83.0 Z" stroke="none" fill="rgb(93,64,55)" />
<path d="M 95.5 109.0 L 96.0 109.0 L 97.0 109.0 L 98.0 109.0 L 99.0 109.0 L 100.0 109.0 L 101.0 109.0 L 102.0 109.0 L 103.0 109.0 L 104.0 109.0 L 105.0 109.0 L 106.0 109.0 L 107.0 109.0 L 108.0 109.0 L 109.0 109.0 L 110.0 109.0 L 110.66666666666667 108.66666666666667 L 110.66666666666667 108.0 L 110.0 107.0 L 109.0 106.0 L 108.0 105.33333333333333 L 107.0 105.0 L 106.0 105.33333333333333 L 105.0 105.66666666666667 L 104.0 106.0 L 103.0 106.0 L 102.0 106.0 L 101.0 106.0 L 100.0 106.0 L 99.0 106.0 L 98.0 106.0 L 97.0 106.0 L 96.0 106.0 L 95.0 106.0 L 94.0 106.0 L 93.0 106.0 L 92.0 106.0 L 91.0 106.0 L 90.0 106.0 L 89.0 106.0 L 88.0 106.0 L 87.0 106.0 L 86.0 106.0 L 85.0 106.0 L 84.0 106.0 L 83.0 106.0 L 82.0 106.0 L 81.0 106.0 L 80.0 106.0 L 79.0 106.0 L 78.0 106.0 L 77.0 106.0 L 76.0 106.0 L 75.0 106.0 L 74.0 106.0 L 73.0 106.0 L 72.0 106.0 L 71.0 106.33333333333333 L 70.33333333333333 107.0 L 70.0 108.0 L 70.33333333333333 108.66666666666667 L 71.0 109.0 L 72.0 109.0 L 73.0 109.0 L 74.0 109.0 L 75.0 109.0 L 76.0 109.0 L 77.0 109.0 L 78.0 109.0 L 79.0 109.0 L 80.0 109.0 L 81.0 109.0 L 82.0 109.0 L 83.0 109.0 L 84.0 109.0 L 85.0 109.0 L 86.0 109.0 L 87.0 109.0 L 88.0 109.0 L 89.0 109.0 L 90.0 109.0 L 91.0 109.0 L 92.0 109.0 L 93.0 109.0 L 94.0 109.0 L 94.5 109.0 Z" stroke="none" fill="rgb(243,128,33)" />
<path d="M 93.5 19.5 L 94.0 20.0 L 95.0 21.0 L 96.0 22.0 L 97.0 23.0 L 98.0 24.0 L 98.66666666666667 25.0 L 99.33333333333333 26.0 L 100.0 27.0 L 100.66666666666667 28.0 L 101.33333333333333 29.0 L 101.66666666666667 30.0 L 102.33333333333333 31.0 L 102.66666666666667 32.0 L 103.33333333333333 33.0 L 103.66666666666667 34.0 L 104.0 35.0 L 104.33333333333333 36.0 L 104.66666666666667 37.0 L 105.0 38.0 L 105.33333333333333 39.0 L 105.66666666666667 40.0 L 106.0 41.0 L 106.0 42.0 L 106.33333333333333 42.666666666666664 L 107.0 43.0 L 107.66666666666667 42.666666666666664 L 108.0 42.0 L 108.0 41.0 L 108.0 40.0 L 108.0 39.0 L 108.0 38.0 L 107.66666666666667 37.0 L 107.0 36.0 L 106.33333333333333 35.0 L 106.0 34.0 L 105.66666666666667 33.0 L 105.33333333333333 32.0 L 105.0 31.0 L 104.66666666666667 30.0 L 104.33333333333333 29.0 L 103.66666666666667 28.0 L 103.0 27.0 L 102.33333333333333 26.0 L 101.66666666666667 25.0 L 101.33333333333333 24.0 L 100.66666666666667 23.0 L 100.0 22.0 L 99.0 21.0 L 98.0 20.0 L 97.33333333333333 19.0 L 96.66666666666667 18.0 L 96.0 17.0 L 95.0 16.333333333333332 L 94.0 16.0 L 93.0 16.0 L 92.0 16.0 L 91.0 16.333333333333332 L 90.0 16.333333333333332 L 89.33333333333333 16.0 L 88.66666666666667 15.0 L 88.0 14.0 L 87.0 13.0 L 86.0 12.0 L 85.0 11.0 L 84.0 10.0 L 83.0 9.333333333333334 L 82.0 9.0 L 81.33333333333333 9.333333333333334 L 81.33333333333333 10.0 L 82.0 11.0 L 83.0 12.0 L 84.0 13.0 L 85.0 14.0 L 86.0 15.0 L 87.0 16.0 L 87.66666666666667 17.0 L 88.33333333333333 18.0 L 88.66666666666667 19.0 L 89.33333333333333 19.666666666666668 L 90.0 20.0 L 91.0 19.666666666666668 L 92.0 19.333333333333332 L 92.5 19.0 Z" stroke="none" fill="rgb(255,235,81)" />
<path d="M 23.0 46.5 L 23.0 46.0 L 22.666666666666668 45.0 L 22.333333333333332 44.0 L 22.333333333333332 43.0 L 23.0 42.333333333333336 L 23.666666666666668 41.666666666666664 L 24.0 41.0 L 24.0 40.0 L 24.0 39.0 L 24.333333333333332 38.0 L 24.666666666666668 37.0 L 25.0 36.0 L 25.333333333333332 35.0 L 26.0 34.0 L 27.0 33.0 L 27.666666666666668 32.0 L 28.0 31.0 L 28.0 30.0 L 28.0 29.0 L 28.0 28.0 L 28.0 27.0 L 27.666666666666668 26.0 L 27.666666666666668 25.0 L 27.666666666666668 24.0 L 28.0 23.0 L 28.333333333333332 22.0 L 29.0 21.0 L 29.666666666666668 20.0 L 30.0 19.0 L 30.0 18.0 L 29.666666666666668 17.333333333333332 L 29.0 17.333333333333332 L 28.0 18.0 L 27.0 19.0 L 26.0 20.0 L 25.333333333333332 21.0 L 24.666666666666668 22.0 L 24.333333333333332 23.0 L 24.0 24.0 L 24.0 25.0 L 23.666666666666668 26.0 L 23.333333333333332 27.0 L 23.0 28.0 L 23.0 29.0 L 23.0 30.0 L 23.333333333333332 31.0 L 23.333333333333332 32.0 L 23.333333333333332 33.0 L 22.666666666666668 34.0 L 22.0 35.0 L 21.333333333333332 36.0 L 20.666666666666668 37.0 L 20.333333333333332 38.0 L 20.0 39.0 L 20.0 40.0 L 20.0 41.0 L 20.0 42.0 L 20.0 43.0 L 20.0 44.0 L 20.0 45.0 L 20.0 46.0 L 20.0 47.0 L 20.0 48.0 L 20.333333333333332 48.666666666666664 L 21.0 48.666666666666664 L 22.0 48.0 L 22.5 47.5 Z" stroke="none" fill="rgb(255,238,87)" />
<path d="M 40.5 101.0 L 41.0 101.0 L 42.0 101.0 L 43.0 101.0 L 44.0 101.0 L 45.0 101.0 L 46.0 101.0 L 47.0 101.0 L 48.0 101.0 L 49.0 101.0 L 50.0 101.0 L 51.0 101.0 L 52.0 101.0 L 53.0 101.0 L 54.0 101.0 L 54.666666666666664 100.66666666666667 L 55.0 100.0 L 55.0 99.0 L 55.0 98.0 L 55.0 97.0 L 54.666666666666664 96.0 L 54.0 95.33333333333333 L 53.0 95.0 L 52.0 95.0 L 51.0 95.0 L 50.0 95.0 L 49.0 95.0 L 48.0 95.0 L 47.0 95.0 L 46.0 95.33333333333333 L 45.0 95.66666666666667 L 44.0 96.0 L 43.0 96.0 L 42.0 96.0 L 41.0 96.0 L 40.0 96.33333333333333 L 39.0 96.66666666666667 L 38.0 97.0 L 37.0 97.0 L 36.0 97.33333333333333 L 35.0 97.66666666666667 L 34.0 98.0 L 33.0 98.33333333333333 L 32.0 98.66666666666667 L 31.0 99.0 L 30.333333333333332 99.33333333333333 L 30.0 100.0 L 30.333333333333332 100.66666666666667 L 31.0 101.0 L 32.0 101.0 L 33.0 101.0 L 34.0 101.0 L 35.0 101.0 L 36.0 101.0 L 37.0 101.0 L 38.0 101.0 L 39.0 101.0 L 39.5 101.0 Z" stroke="none" fill="rgb(246,137,31)" />
<path d="M 75.5 101.0 L 76.0 101.0 L 77.0 101.0 L 78.0 101.0 L 79.0 101.0 L 80.0 101.0 L 81.0 101.0 L 82.0 101.0 L 83.0 101.0 L 84.0 101.0 L 85.0 101.0 L 86.0 101.0 L 87.0 101.0 L 88.0 101.0 L 89.0 101.0 L 90.0 101.0 L 91.0 101.0 L 92.0 101.0 L 93.0 101.0 L 94.0 101.0 L 95.0 101.0 L 96.0 101.0 L 96.66666666666667 100.66666666666667 L 97.0 100.0 L 96.66666666666667 99.33333333333333 L 96.0 99.0 L 95.0 98.66666666666667 L 94.0 98.33333333333333 L 93.0 98.0 L 92.0 97.66666666666667 L 91.0 97.33333333333333 L 90.0 97.0 L 89.0 97.0 L 88.0 96.66666666666667 L 87.0 96.33333333333333 L 86.0 96.0 L 85.0 96.0 L 84.0 96.0 L 83.0 95.66666666666667 L 82.0 95.33333333333333 L 81.0 95.0 L 80.0 95.0 L 79.0 95.0 L 78.0 95.0 L 77.0 95.0 L 76.0 95.0 L 75.0 95.0 L 74.0 95.33333333333333 L 73.33333333333333 96.0 L 73.0 97.0 L 73.0 98.0 L 73.0 99.0 L 73.33333333333333 100.0 L 74.0 100.66666666666667 L 74.5 101.0 Z" stroke="none" fill="rgb(246,137,31)" />
<path d="M 72.5 7.0 L 73.0 7.333333333333333 L 74.0 7.666666666666667 L 75.0 8.333333333333334 L 76.0 8.666666666666666 L 77.0 9.333333333333334 L 78.0 10.0 L 79.0 10.666666666666666 L 80.0 11.333333333333334 L 81.0 12.0 L 82.0 13.0 L 83.0 14.0 L 84.0 15.0 L 84.66666666666667 16.0 L 85.33333333333333 17.0 L 86.0 18.0 L 86.66666666666667 19.0 L 87.33333333333333 20.0 L 87.66666666666667 21.0 L 88.33333333333333 21.666666666666668 L 89.0 22.0 L 90.0 21.666666666666668 L 90.66666666666667 21.0 L 90.66666666666667 20.333333333333332 L 90.0 19.666666666666668 L 89.33333333333333 19.0 L 88.66666666666667 18.0 L 88.33333333333333 17.0 L 87.66666666666667 16.0 L 87.0 15.0 L 86.0 14.0 L 85.0 13.0 L 84.0 12.0 L 83.0 11.0 L 82.0 10.0 L 81.0 9.333333333333334 L 80.0 8.666666666666666 L 79.0 8.333333333333334 L 78.0 7.666666666666667 L 77.0 7.333333333333333 L 76.0 6.666666666666667 L 75.0 6.333333333333333 L 74.0 5.666666666666667 L 73.0 5.0 L 72.0 4.333333333333333 L 71.0 4.0 L 70.0 4.0 L 69.0 4.0 L 68.0 4.0 L 67.0 4.0 L 66.33333333333333 4.333333333333333 L 66.0 5.0 L 66.33333333333333 6.0 L 67.0 6.666666666666667 L 68.0 7.0 L 69.0 6.666666666666667 L 70.0 6.666666666666667 L 71.0 6.666666666666667 L 71.5 7.0 Z" stroke="none" fill="rgb(255,232,73)" />
<path d="M 52.0 61.5 L 52.0 61.0 L 52.0 60.0 L 52.0 59.0 L 52.0 58.0 L 52.0 57.0 L 51.666666666666664 56.0 L 51.0 55.0 L 50.0 54.333333333333336 L 49.0 54.0 L 48.0 54.0 L 47.0 54.0 L 46.0 54.0 L 45.0 54.333333333333336 L 44.0 55.0 L 43.333333333333336 56.0 L 43.0 57.0 L 43.0 58.0 L 43.0 59.0 L 43.0 60.0 L 43.0 61.0 L 43.333333333333336 62.0 L 44.0 63.0 L 45.0 63.666666666666664 L 46.0 64.0 L 47.0 64.0 L 48.0 64.0 L 49.0 64.0 L 50.0 63.666666666666664 L 51.0 63.0 L 51.5 62.5 Z" stroke="none" fill="rgb(74,54,46)" />
<path d="M 81.5 64.0 L 82.0 64.0 L 83.0 63.666666666666664 L 84.0 63.0 L 84.66666666666667 62.0 L 85.0 61.0 L 85.0 60.0 L 85.0 59.0 L 85.0 58.0 L 85.0 57.0 L 84.66666666666667 56.0 L 84.0 55.0 L 83.0 54.333333333333336 L 82.0 54.0 L 81.0 54.0 L 80.0 54.0 L 79.0 54.0 L 78.0 54.333333333333336 L 77.0 55.0 L 76.33333333333333 56.0 L 76.0 57.0 L 76.0 58.0 L 76.0 59.0 L 76.0 60.0 L 76.0 61.0 L 76.33333333333333 62.0 L 77.0 63.0 L 78.0 63.666666666666664 L 79.0 64.0 L 80.0 64.0 L 80.5 64.0 Z" stroke="none" fill="rgb(74,54,46)" />
<path d="M 39.5 9.5 L 40.0 10.0 L 40.666666666666664 11.0 L 41.333333333333336 11.666666666666666 L 42.0 12.333333333333334 L 43.0 13.0 L 44.0 13.666666666666666 L 45.0 14.0 L 46.0 14.0 L 47.0 14.0 L 48.0 14.0 L 49.0 14.0 L 50.0 13.666666666666666 L 51.0 13.0 L 52.0 12.0 L 52.666666666666664 11.0 L 53.0 10.0 L 52.666666666666664 9.333333333333334 L 52.0 9.0 L 51.0 9.333333333333334 L 50.0 10.0 L 49.0 10.666666666666666 L 48.0 11.0 L 47.0 11.0 L 46.0 11.0 L 45.0 11.0 L 44.0 10.666666666666666 L 43.0 10.0 L 42.333333333333336 9.0 L 41.666666666666664 8.0 L 41.333333333333336 7.0 L 40.666666666666664 6.0 L 40.0 5.333333333333333 L 39.0 5.333333333333333 L 38.333333333333336 6.0 L 38.0 7.0 L 38.333333333333336 8.0 L 38.5 8.5 Z" stroke="none" fill="rgb(255,232,73)" />
<path d="M 49.5 51.0 L 50.0 51.0 L 51.0 51.333333333333336 L 52.0 51.666666666666664 L 53.0 52.0 L 54.0 51.666666666666664 L 54.666666666666664 51.0 L 54.666666666666664 50.0 L 54.0 49.0 L 53.0 48.0 L 52.0 47.333333333333336 L 51.0 47.0 L 50.0 47.0 L 49.0 47.0 L 48.0 47.0 L 47.0 47.0 L 46.0 47.0 L 45.0 47.0 L 44.0 47.333333333333336 L 43.0 47.666666666666664 L 42.0 48.333333333333336 L 41.0 49.0 L 40.333333333333336 50.0 L 40.333333333333336 51.0 L 41.0 51.666666666666664 L 42.0 52.0 L 43.0 52.0 L 44.0 52.0 L 45.0 51.666666666666664 L 46.0 51.333333333333336 L 47.0 51.0 L 48.0 51.0 L 48.5 51.0 Z" stroke="none" fill="rgb(97,62,49)" />
<path d="M 82.5 51.0 L 83.0 51.0 L 84.0 51.333333333333336 L 85.0 51.666666666666664 L 86.0 52.0 L 87.0 51.666666666666664 L 87.66666666666667 51.0 L 87.66666666666667 50.0 L 87.0 49.0 L 86.0 48.0 L 85.0 47.333333333333336 L 84.0 47.0 L 83.0 47.0 L 82.0 47.0 L 81.0 47.0 L 80.0 47.0 L 79.0 47.0 L 78.0 47.0 L 77.0 47.333333333333336 L 76.0 47.666666666666664 L 75.0 48.333333333333336 L 74.0 49.0 L 73.33333333333333 50.0 L 73.33333333333333 51.0 L 74.0 51.666666666666664 L 75.0 52.0 L 76.0 52.0 L 77.0 52.0 L 78.0 51.666666666666664 L 79.0 51.333333333333336 L 80.0 51.0 L 81.0 51.0 L 81.5 51.0 Z" stroke="none" fill="rgb(97,62,49)" />
<path d="M 88.5 15.5 L 88.66666666666667 16.0 L 89.33333333333333 16.666666666666668 L 90.0 17.0 L 91.0 16.666666666666668 L 91.66666666666667 16.0 L 91.66666666666667 15.0 L 91.33333333333333 14.0 L 91.0 13.0 L 90.66666666666667 12.0 L 90.0 11.0 L 89.0 10.0 L 88.0 9.0 L 87.0 8.0 L 86.0 7.333333333333333 L 85.0 6.666666666666667 L 84.0 6.333333333333333 L 83.0 6.0 L 82.0 5.666666666666667 L 81.0 5.333333333333333 L 80.0 5.0 L 79.0 5.0 L 78.33333333333333 5.333333333333333 L 78.0 6.0 L 78.33333333333333 6.666666666666667 L 79.0 7.333333333333333 L 80.0 8.0 L 81.0 8.666666666666666 L 82.0 9.333333333333334 L 83.0 10.0 L 84.0 11.0 L 85.0 12.0 L 86.0 13.0 L 87.0 14.0 L 87.5 14.5 Z" stroke="none" fill="rgb(255,238,87)" />
<path d="M 105.5 33.5 L 105.66666666666667 34.0 L 106.0 35.0 L 106.33333333333333 36.0 L 107.0 36.666666666666664 L 107.66666666666667 36.666666666666664 L 108.0 36.0 L 108.0 35.0 L 107.66666666666667 34.0 L 107.33333333333333 33.0 L 107.0 32.0 L 107.0 31.0 L 107.0 30.0 L 106.66666666666667 29.0 L 106.33333333333333 28.0 L 106.0 27.0 L 105.66666666666667 26.0 L 105.0 25.0 L 104.33333333333333 24.0 L 103.66666666666667 23.0 L 103.0 22.0 L 102.0 21.0 L 101.0 20.0 L 100.0 19.0 L 99.0 18.333333333333332 L 98.0 18.0 L 97.33333333333333 18.333333333333332 L 97.0 19.0 L 97.33333333333333 20.0 L 98.0 21.0 L 99.0 22.0 L 100.0 23.0 L 100.66666666666667 24.0 L 101.33333333333333 25.0 L 101.66666666666667 26.0 L 102.33333333333333 27.0 L 103.0 28.0 L 103.66666666666667 29.0 L 104.33333333333333 30.0 L 104.66666666666667 31.0 L 105.0 32.0 L 105.0 32.5 Z" stroke="none" fill="rgb(255,238,87)" />
<path d="M 72.5 8.5 L 73.0 8.666666666666666 L 74.0 9.333333333333334 L 75.0 9.666666666666666 L 76.0 10.333333333333334 L 77.0 11.0 L 78.0 11.666666666666666 L 79.0 12.333333333333334 L 80.0 13.0 L 81.0 14.0 L 82.0 15.0 L 83.0 16.0 L 83.66666666666667 17.0 L 84.33333333333333 18.0 L 84.66666666666667 19.0 L 85.33333333333333 20.0 L 85.66666666666667 21.0 L 86.0 22.0 L 86.33333333333333 22.666666666666668 L 87.0 23.0 L 87.66666666666667 22.666666666666668 L 88.0 22.0 L 88.0 21.0 L 87.66666666666667 20.0 L 87.33333333333333 19.0 L 86.66666666666667 18.0 L 86.0 17.0 L 85.33333333333333 16.0 L 84.66666666666667 15.0 L 84.0 14.0 L 83.0 13.0 L 82.0 12.0 L 81.0 11.333333333333334 L 80.0 10.666666666666666 L 79.0 10.0 L 78.0 9.333333333333334 L 77.0 8.666666666666666 L 76.0 8.333333333333334 L 75.0 7.666666666666667 L 74.0 7.333333333333333 L 73.0 7.0 L 72.0 6.666666666666667 L 71.0 6.333333333333333 L 70.0 6.0 L 69.33333333333333 6.333333333333333 L 69.0 7.0 L 69.33333333333333 7.666666666666667 L 70.0 8.0 L 71.0 8.0 L 71.5 8.0 Z" stroke="none" fill="rgb(255,228,66)" />
<path d="M 24.5 71.0 L 24.666666666666668 70.66666666666667 L 25.0 70.0 L 24.666666666666668 69.0 L 24.333333333333332 68.0 L 24.0 67.0 L 24.0 66.0 L 24.0 65.0 L 24.0 64.0 L 24.0 63.0 L 24.0 62.0 L 24.0 61.0 L 24.0 60.0 L 24.0 59.0 L 24.333333333333332 58.0 L 24.666666666666668 57.0 L 25.0 56.0 L 25.333333333333332 55.0 L 25.666666666666668 54.0 L 26.333333333333332 53.0 L 26.666666666666668 52.0 L 27.0 51.0 L 27.0 50.0 L 26.666666666666668 49.333333333333336 L 26.0 49.0 L 25.333333333333332 49.333333333333336 L 24.666666666666668 50.0 L 24.333333333333332 51.0 L 24.0 52.0 L 23.666666666666668 53.0 L 23.333333333333332 54.0 L 23.0 55.0 L 23.0 56.0 L 22.666666666666668 57.0 L 22.333333333333332 58.0 L 22.0 59.0 L 22.0 60.0 L 22.0 61.0 L 22.0 62.0 L 22.0 63.0 L 22.0 64.0 L 22.0 65.0 L 22.0 66.0 L 22.0 67.0 L 22.0 68.0 L 22.333333333333332 69.0 L 23.0 70.0 L 23.5 70.5 Z" stroke="none" fill="rgb(255,228,66)" />
<path d="M 30.5 71.5 L 31.0 71.66666666666667 L 31.666666666666668 71.66666666666667 L 32.0 71.0 L 32.0 70.0 L 32.0 69.0 L 32.0 68.0 L 31.666666666666668 67.0 L 31.0 66.0 L 30.333333333333332 65.0 L 30.0 64.0 L 29.666666666666668 63.0 L 29.333333333333332 62.0 L 29.0 61.0 L 29.0 60.0 L 29.0 59.0 L 29.0 58.0 L 29.0 57.0 L 28.666666666666668 56.333333333333336 L 28.0 56.0 L 27.333333333333332 56.333333333333336 L 27.0 57.0 L 26.666666666666668 58.0 L 26.333333333333332 59.0 L 26.0 60.0 L 26.0 61.0 L 26.0 62.0 L 26.0 63.0 L 26.0 64.0 L 26.0 65.0 L 26.333333333333332 66.0 L 26.666666666666668 67.0 L 27.333333333333332 68.0 L 28.0 69.0 L 29.0 70.0 L 29.5 70.5 Z" stroke="none" fill="rgb(153,104,79)" />
<path d="M 98.5 70.5 L 99.0 70.0 L 100.0 69.0 L 100.66666666666667 68.0 L 101.33333333333333 67.0 L 101.66666666666667 66.0 L 102.0 65.0 L 102.0 64.0 L 102.0 63.0 L 102.0 62.0 L 102.0 61.0 L 102.0 60.0 L 101.66666666666667 59.333333333333336 L 101.0 59.0 L 100.33333333333333 59.333333333333336 L 99.66666666666667 60.0 L 99.33333333333333 61.0 L 99.0 62.0 L 98.66666666666667 63.0 L 98.0 64.0 L 97.33333333333333 65.0 L 97.0 66.0 L 97.0 67.0 L 96.66666666666667 68.0 L 96.33333333333333 69.0 L 96.0 70.0 L 96.0 71.0 L 96.33333333333333 71.66666666666667 L 97.0 71.66666666666667 L 97.5 71.5 Z" stroke="none" fill="rgb(153,104,79)" />
<path d="M 43.5 93.5 L 44.0 93.33333333333333 L 45.0 93.0 L 45.666666666666664 92.66666666666667 L 46.0 92.0 L 45.666666666666664 91.0 L 45.0 90.33333333333333 L 44.0 90.0 L 43.0 90.0 L 42.0 90.0 L 41.0 89.66666666666667 L 40.0 89.33333333333333 L 39.0 89.0 L 38.0 88.66666666666667 L 37.0 88.33333333333333 L 36.0 88.0 L 35.0 88.0 L 34.333333333333336 88.33333333333333 L 34.0 89.0 L 34.333333333333336 90.0 L 35.0 90.66666666666667 L 36.0 91.33333333333333 L 37.0 91.66666666666667 L 38.0 92.33333333333333 L 39.0 93.0 L 40.0 93.66666666666667 L 41.0 94.0 L 42.0 94.0 L 42.5 94.0 Z" stroke="none" fill="rgb(255,232,73)" />
<path d="M 37.0 17.5 L 37.0 17.0 L 37.0 16.0 L 37.0 15.0 L 37.0 14.0 L 37.0 13.0 L 37.0 12.0 L 37.0 11.0 L 37.0 10.0 L 37.0 9.0 L 36.666666666666664 8.0 L 36.0 7.333333333333333 L 35.0 7.333333333333333 L 34.333333333333336 8.0 L 33.666666666666664 9.0 L 33.333333333333336 10.0 L 33.0 11.0 L 33.0 12.0 L 33.0 13.0 L 33.0 14.0 L 33.0 15.0 L 33.0 16.0 L 33.333333333333336 16.666666666666668 L 34.0 17.333333333333332 L 35.0 17.666666666666668 L 36.0 18.0 L 36.5 18.0 Z" stroke="none" fill="rgb(255,238,87)" />
<path d="M 30.5 84.0 L 31.0 83.66666666666667 L 31.666666666666668 83.0 L 32.0 82.0 L 32.0 81.0 L 32.0 80.0 L 31.666666666666668 79.0 L 31.0 78.0 L 30.0 77.33333333333333 L 29.333333333333332 77.33333333333333 L 29.0 78.0 L 29.0 79.0 L 28.666666666666668 80.0 L 28.0 80.66666666666667 L 27.0 81.0 L 26.0 81.33333333333333 L 25.0 81.66666666666667 L 24.333333333333332 82.33333333333333 L 24.0 83.0 L 24.333333333333332 84.0 L 25.0 84.66666666666667 L 26.0 84.66666666666667 L 27.0 84.33333333333333 L 28.0 84.0 L 29.0 84.0 L 29.5 84.0 Z" stroke="none" fill="rgb(0,0,0)" />
<path d="M 61.5 72.0 L 62.0 72.0 L 63.0 72.0 L 64.0 72.0 L 65.0 72.0 L 66.0 72.0 L 67.0 71.66666666666667 L 67.66666666666667 71.0 L 68.0 70.0 L 68.0 69.0 L 67.66666666666667 68.33333333333333 L 67.0 68.0 L 66.0 68.0 L 65.0 68.0 L 64.0 68.0 L 63.0 68.0 L 62.0 68.0 L 61.0 68.0 L 60.333333333333336 68.33333333333333 L 60.0 69.0 L 60.0 70.0 L 60.333333333333336 71.0 L 60.5 71.5 Z" stroke="none" fill="rgb(153,104,79)" />
<path d="M 23.5 50.5 L 23.666666666666668 50.0 L 24.0 49.0 L 24.0 48.0 L 23.666666666666668 47.333333333333336 L 23.0 47.0 L 22.0 47.333333333333336 L 21.0 48.0 L 20.333333333333332 49.0 L 20.0 50.0 L 19.666666666666668 51.0 L 19.333333333333332 52.0 L 19.0 53.0 L 19.0 54.0 L 19.0 55.0 L 19.0 56.0 L 19.333333333333332 56.666666666666664 L 20.0 57.0 L 20.666666666666668 56.666666666666664 L 21.0 56.0 L 21.0 55.0 L 21.333333333333332 54.0 L 21.666666666666668 53.0 L 22.333333333333332 52.0 L 22.5 51.5 Z" stroke="none" fill="rgb(255,235,81)" />
<path d="M 78.5 95.0 L 79.0 95.0 L 80.0 95.0 L 81.0 95.0 L 82.0 95.0 L 83.0 95.0 L 84.0 95.0 L 85.0 94.66666666666667 L 86.0 94.33333333333333 L 87.0 94.0 L 88.0 93.66666666666667 L 88.66666666666667 93.0 L 88.66666666666667 92.33333333333333 L 88.0 92.0 L 87.0 92.0 L 86.0 92.0 L 85.0 92.33333333333333 L 84.0 92.66666666666667 L 83.0 93.0 L 82.0 93.0 L 81.0 93.0 L 80.0 93.0 L 79.0 93.0 L 78.33333333333333 93.33333333333333 L 78.0 94.0 L 78.0 94.5 Z" stroke="none" fill="rgb(255,238,87)" />
<path d="M 105.5 51.5 L 105.66666666666667 52.0 L 106.0 53.0 L 106.33333333333333 54.0 L 106.66666666666667 55.0 L 107.0 56.0 L 107.33333333333333 57.0 L 108.0 57.666666666666664 L 108.66666666666667 57.666666666666664 L 109.0 57.0 L 109.0 56.0 L 109.0 55.0 L 109.0 54.0 L 109.0 53.0 L 108.66666666666667 52.0 L 108.33333333333333 51.0 L 107.66666666666667 50.0 L 107.0 49.333333333333336 L 106.0 49.0 L 105.33333333333333 49.333333333333336 L 105.0 50.0 L 105.0 50.5 Z" stroke="none" fill="rgb(255,235,81)" />
<path d="M 94.0 89.5 L 94.0 89.0 L 93.66666666666667 88.33333333333333 L 93.0 88.0 L 92.0 88.33333333333333 L 91.0 89.0 L 90.0 89.66666666666667 L 89.0 90.0 L 88.0 90.0 L 87.0 90.0 L 86.0 90.0 L 85.33333333333333 90.33333333333333 L 85.0 91.0 L 85.33333333333333 91.66666666666667 L 86.0 92.0 L 87.0 92.0 L 88.0 92.0 L 89.0 92.0 L 90.0 92.0 L 91.0 91.66666666666667 L 92.0 91.33333333333333 L 93.0 90.66666666666667 L 93.5 90.5 Z" stroke="none" fill="rgb(255,232,73)" />
<path d="M 43.5 95.0 L 44.0 95.0 L 45.0 95.0 L 46.0 95.0 L 47.0 95.0 L 48.0 95.0 L 49.0 95.0 L 50.0 95.0 L 51.0 95.0 L 51.666666666666664 94.66666666666667 L 51.666666666666664 94.0 L 51.0 93.33333333333333 L 50.0 93.0 L 49.0 92.66666666666667 L 48.0 92.33333333333333 L 47.0 92.0 L 46.0 92.33333333333333 L 45.0 92.66666666666667 L 44.0 93.0 L 43.333333333333336 93.33333333333333 L 43.0 94.0 L 43.0 94.5 Z" stroke="none" fill="rgb(255,238,87)" />
<path d="M 98.5 83.0 L 99.0 83.0 L 100.0 83.0 L 101.0 83.0 L 101.66666666666667 82.66666666666667 L 101.66666666666667 82.0 L 101.0 81.0 L 100.0 80.0 L 99.33333333333333 79.0 L 99.0 78.0 L 99.0 77.0 L 98.66666666666667 76.33333333333333 L 98.0 76.33333333333333 L 97.33333333333333 77.0 L 97.0 78.0 L 97.0 79.0 L 97.0 80.0 L 97.0 81.0 L 97.33333333333333 82.0 L 97.5 82.5 Z" stroke="none" fill="rgb(255,232,73)" />
<path d="M 78.5 8.5 L 79.0 8.666666666666666 L 80.0 9.0 L 80.66666666666667 8.666666666666666 L 80.66666666666667 8.0 L 80.0 7.333333333333333 L 79.0 6.666666666666667 L 78.0 6.0 L 77.0 5.0 L 76.0 4.333333333333333 L 75.0 4.0 L 74.0 4.0 L 73.33333333333333 4.333333333333333 L 73.0 5.0 L 73.33333333333333 5.666666666666667 L 74.0 6.333333333333333 L 75.0 6.666666666666667 L 76.0 7.333333333333333 L 77.0 7.666666666666667 L 77.5 8.0 Z" stroke="none" fill="rgb(255,235,81)" />
<path d="M 30.5 25.0 L 31.0 24.666666666666668 L 31.666666666666668 24.0 L 32.333333333333336 23.0 L 33.0 22.0 L 34.0 21.0 L 35.0 20.0 L 35.666666666666664 19.0 L 35.666666666666664 18.333333333333332 L 35.0 18.0 L 34.0 18.333333333333332 L 33.0 19.0 L 32.0 20.0 L 31.333333333333332 21.0 L 30.666666666666668 22.0 L 30.333333333333332 23.0 L 30.0 24.0 L 30.0 24.5 Z" stroke="none" fill="rgb(255,228,66)" />
<path d="M 62.5 7.0 L 63.0 7.0 L 64.0 7.0 L 65.0 7.0 L 66.0 7.0 L 66.66666666666667 6.666666666666667 L 66.66666666666667 6.0 L 66.0 5.333333333333333 L 65.0 5.0 L 64.0 5.0 L 63.0 5.0 L 62.0 5.0 L 61.0 5.0 L 60.333333333333336 5.333333333333333 L 60.0 6.0 L 60.333333333333336 6.666666666666667 L 61.0 7.0 L 61.5 7.0 Z" stroke="none" fill="rgb(255,228,66)" />
<path d="M 37.5 11.0 L 38.0 11.0 L 39.0 11.333333333333334 L 40.0 11.666666666666666 L 40.666666666666664 11.666666666666666 L 41.0 11.0 L 40.666666666666664 10.0 L 40.0 9.0 L 39.0 8.333333333333334 L 38.0 8.333333333333334 L 37.333333333333336 9.0 L 37.0 10.0 L 37.0 10.5 Z" stroke="none" fill="rgb(255,228,66)" />
<path d="M 29.0 24.5 L 29.0 24.0 L 29.333333333333332 23.0 L 29.666666666666668 22.0 L 30.0 21.0 L 29.666666666666668 20.333333333333332 L 29.0 20.333333333333332 L 28.333333333333332 21.0 L 28.0 22.0 L 27.666666666666668 23.0 L 27.333333333333332 24.0 L 27.0 25.0 L 27.333333333333332 25.666666666666668 L 28.0 25.666666666666668 L 28.5 25.5 Z" stroke="none" fill="rgb(255,235,81)" />
<path d="M 37.5 9.0 L 37.666666666666664 8.666666666666666 L 38.0 8.0 L 38.333333333333336 7.0 L 38.666666666666664 6.0 L 38.666666666666664 5.333333333333333 L 38.0 5.0 L 37.0 5.333333333333333 L 36.333333333333336 6.0 L 36.0 7.0 L 36.333333333333336 8.0 L 36.5 8.5 Z" stroke="none" fill="rgb(0,0,0)" />
<path d="M 33.0 17.5 L 32.666666666666664 17.333333333333332 L 32.0 17.0 L 31.0 17.333333333333332 L 30.333333333333332 18.0 L 30.0 19.0 L 30.333333333333332 19.666666666666668 L 31.0 19.666666666666668 L 32.0 19.0 L 32.5 18.5 Z" stroke="none" fill="rgb(255,235,81)" />
<path d="M 23.5 44.5 L 23.666666666666668 44.0 L 24.0 43.0 L 23.666666666666668 42.333333333333336 L 23.0 42.0 L 22.333333333333332 42.333333333333336 L 22.0 43.0 L 22.0 44.0 L 22.333333333333332 44.666666666666664 L 22.5 45.0 Z" stroke="none" fill="rgb(255,235,81)" />
<path d="M 107.5 50.0 L 107.66666666666667 49.666666666666664 L 108.0 49.0 L 108.0 48.0 L 107.66666666666667 47.333333333333336 L 107.0 47.0 L 106.33333333333333 47.333333333333336 L 106.0 48.0 L 106.33333333333333 49.0 L 106.5 49.5 Z" stroke="none" fill="rgb(255,238,87)" />
<path d="M 43.5 14.0 L 43.666666666666664 13.666666666666666 L 43.666666666666664 13.0 L 43.0 12.333333333333334 L 42.0 12.0 L 41.333333333333336 12.333333333333334 L 41.333333333333336 13.0 L 42.0 13.666666666666666 L 42.5 14.0 Z" stroke="none" fill="rgb(255,228,66)" />
<path d="M 66.0 4.5 L 65.66666666666667 4.333333333333333 L 65.0 4.0 L 64.0 4.0 L 63.333333333333336 4.333333333333333 L 63.333333333333336 4.666666666666667 L 64.0 5.0 L 65.0 5.0 L 65.5 5.0 Z" stroke="none" fill="rgb(0,0,0)" />
<path d="M 76.5 5.5 L 77.0 5.666666666666667 L 77.66666666666667 5.666666666666667 L 78.0 5.0 L 77.66666666666667 4.333333333333333 L 77.0 4.0 L 76.33333333333333 4.333333333333333 L 76.0 4.5 Z" stroke="none" fill="rgb(0,0,0)" />
<path d="M 55.0 8.5 L 54.666666666666664 8.333333333333334 L 54.0 8.0 L 53.333333333333336 8.333333333333334 L 53.0 9.0 L 53.333333333333336 9.666666666666666 L 54.0 9.666666666666666 L 54.5 9.5 Z" stroke="none" fill="rgb(0,0,0)" />
<path d="M 104.0 83.5 L 104.0 83.0 L 103.66666666666667 82.33333333333333 L 103.0 82.0 L 102.33333333333333 82.33333333333333 L 102.33333333333333 83.0 L 103.0 83.66666666666667 L 103.5 84.0 Z" stroke="none" fill="rgb(0,0,0)" />
<path d="M 91.5 89.5 L 91.66666666666667 89.0 L 91.66666666666667 88.33333333333333 L 91.0 88.0 L 90.33333333333333 88.33333333333333 L 90.0 89.0 L 90.33333333333333 89.66666666666667 L 90.5 90.0 Z" stroke="none" fill="rgb(255,228,66)" />
<path d="M 50.0 10.5 L 49.666666666666664 10.333333333333334 L 49.0 10.0 L 48.333333333333336 10.333333333333334 L 48.333333333333336 10.666666666666666 L 49.0 11.0 L 49.5 11.0 Z" stroke="none" fill="rgb(255,235,81)" />
<path d="M 20.0 58.5 L 20.0 58.0 L 19.666666666666668 57.333333333333336 L 19.333333333333332 57.333333333333336 L 19.0 58.0 L 19.333333333333332 58.666666666666664 L 19.5 59.0 Z" stroke="none" fill="rgb(0,0,0)" />
<path d="M 21.5 67.0 L 21.666666666666668 66.66666666666667 L 22.0 66.0 L 21.666666666666668 65.33333333333333 L 21.333333333333332 65.33333333333333 L 21.0 66.0 L 21.0 66.5 Z" stroke="none" fill="rgb(0,0,0)" />
<path d="M 39.5 5.0 L 39.666666666666664 4.666666666666667 L 39.666666666666664 4.333333333333333 L 39.333333333333336 4.333333333333333 L 39.0 4.5 Z" stroke="none" fill="rgb(0,0,0)" />
<path d="M 72.5 5.0 L 72.66666666666667 4.666666666666667 L 72.66666666666667 4.333333333333333 L 72.33333333333333 4.333333333333333 L 72.0 4.5 Z" stroke="none" fill="rgb(0,0,0)" />
<path d="M 43.5 11.0 L 43.666666666666664 10.666666666666666 L 43.666666666666664 10.333333333333334 L 43.333333333333336 10.333333333333334 L 43.0 10.5 Z" stroke="none" fill="rgb(0,0,0)" />
<path d="M 30.5 18.0 L 30.666666666666668 17.666666666666668 L 30.666666666666668 17.333333333333332 L 30.333333333333332 17.333333333333332 L 30.0 17.5 Z" stroke="none" fill="rgb(0,0,0)" />
<path d="M 96.5 18.0 L 96.66666666666667 17.666666666666668 L 96.66666666666667 17.333333333333332 L 96.33333333333333 17.333333333333332 L 96.0 17.5 Z" stroke="none" fill="rgb(0,0,0)" />
<path d="M 20.0 51.5 L 19.666666666666668 51.333333333333336 L 19.333333333333332 51.333333333333336 L 19.333333333333332 51.666666666666664 L 19.5 52.0 Z" stroke="none" fill="rgb(0,0,0)" />
<path d="M 108.5 52.0 L 108.66666666666667 51.666666666666664 L 108.66666666666667 51.333333333333336 L 108.33333333333333 51.333333333333336 L 108.0 51.5 Z" stroke="none" fill="rgb(0,0,0)" />
<path d="M 24.5 72.0 L 24.666666666666668 71.66666666666667 L 24.666666666666668 71.33333333333333 L 24.333333333333332 71.33333333333333 L 24.0 71.5 Z" stroke="none" fill="rgb(0,0,0)" />
<path d="M 28.5 77.0 L 28.666666666666668 76.66666666666667 L 28.666666666666668 76.33333333333333 L 28.333333333333332 76.33333333333333 L 28.0 76.5 Z" stroke="none" fill="rgb(0,0,0)" />
<path d="M 99.5 77.0 L 99.66666666666667 76.66666666666667 L 99.66666666666667 76.33333333333333 L 99.33333333333333 76.33333333333333 L 99.0 76.5 Z" stroke="none" fill="rgb(0,0,0)" />
<path d="M 28.5 81.0 L 28.666666666666668 80.66666666666667 L 28.666666666666668 80.33333333333333 L 28.333333333333332 80.33333333333333 L 28.0 80.5 Z" stroke="none" fill="rgb(255,238,87)" />
<path d="M 101.5 82.0 L 101.66666666666667 81.66666666666667 L 101.66666666666667 81.33333333333333 L 101.33333333333333 81.33333333333333 L 101.0 81.5 Z" stroke="none" fill="rgb(0,0,0)" />
<path d="M 92.5 88.0 L 92.66666666666667 87.66666666666667 L 92.66666666666667 87.33333333333333 L 92.33333333333333 87.33333333333333 L 92.0 87.5 Z" stroke="none" fill="rgb(255,228,66)" />
<path d="M 43.5 90.0 L 43.666666666666664 89.66666666666667 L 43.666666666666664 89.33333333333333 L 43.333333333333336 89.33333333333333 L 43.0 89.5 Z" stroke="none" fill="rgb(255,228,66)" />
<path d="M 38.5 93.0 L 38.666666666666664 92.66666666666667 L 38.666666666666664 92.33333333333333 L 38.333333333333336 92.33333333333333 L 38.0 92.5 Z" stroke="none" fill="rgb(0,0,0)" />
<path d="M 89.5 93.0 L 89.66666666666667 92.66666666666667 L 89.66666666666667 92.33333333333333 L 89.33333333333333 92.33333333333333 L 89.0 92.5 Z" stroke="none" fill="rgb(0,0,0)" />
<path d="M 106.5 105.0 L 106.66666666666667 104.66666666666667 L 106.66666666666667 104.33333333333333 L 106.33333333333333 104.33333333333333 L 106.0 104.5 Z" stroke="none" fill="rgb(0,0,0)" />
<path d="M 17.0 108.5 L 16.666666666666668 108.33333333333333 L 16.333333333333332 108.33333333333333 L 16.333333333333332 108.66666666666667 L 16.5 109.0 Z" stroke="none" fill="rgb(0,0,0)" />
<path d="M 14.5 112.0 L 14.666666666666666 111.66666666666667 L 14.666666666666666 111.33333333333333 L 14.333333333333334 111.33333333333333 L 14.0 111.5 Z" stroke="none" fill="rgb(0,0,0)" />
<path d="M 14.0 115.5 L 13.666666666666666 115.33333333333333 L 13.333333333333334 115.33333333333333 L 13.333333333333334 115.66666666666667 L 13.5 116.0 Z" stroke="none" fill="rgb(0,0,0)" />
</svg>
