<?xml version="1.0" encoding="UTF-8" standalone="no"?>
<!DOCTYPE svg PUBLIC "-//W3C//DTD SVG 1.1//EN"
"http://www.w3.org/Graphics/SVG/1.1/DTD/svg11.dtd">
<svg width="128" height="128" xmlns="http://www.w3.org/2000/svg" version="1.1">
<path d="M 26.5 128.0 L 27.0 128.0 L 28.0 128.0 L 29.0 128.0 L 30.0 128.0 L 31.0 128.0 L 32.0 128.0 L 33.0 128.0 L 34.0 128.0 L 35.0 128.0 L 36.0 128.0 L 37.0 128.0 L 38.0 128.0 L 39.0 128.0 L 40.0 128.0 L 41.0 128.0 L 42.0 128.0 L 43.0 128.0 L 44.0 128.0 L 45.0 128.0 L 46.0 128.0 L 47.0 128.0 L 48.0 128.0 L 49.0 128.0 L 50.0 128.0 L 51.0 128.0 L 52.0 128.0 L 53.0 128.0 L 54.0 128.0 L 55.0 128.0 L 56.0 128.0 L 57.0 128.0 L 58.0 128.0 L 59.0 128.0 L 60.0 128.0 L 61.0 128.0 L 62.0 128.0 L 63.0 128.0 L 64.0 128.0 L 65.0 128.0 L 66.0 128.0 L 67.0 128.0 L 68.0 128.0 L 69.0 128.0 L 70.0 128.0 L 71.0 128.0 L 72.0 128.0 L 73.0 128.0 L 74.0 128.0 L 75.0 128.0 L 76.0 128.0 L 77.0 128.0 L 78.0 128.0 L 79.0 128.0 L 80.0 128.0 L 81.0 128.0 L 82.0 128.0 L 83.0 128.0 L 84.0 128.0 L 85.0 128.0 L 86.0 128.0 L 87.0 128.0 L 88.0 128.0 L 89.0 128.0 L 90.0 128.0 L 91.0 128.0 L 92.0 128.0 L 93.0 128.0 L 94.0 128.0 L 95.0 128.0 L 96.0 128.0 L 97.0 128.0 L 98.0 128.0 L 99.0 128.0 L 100.0 128.0 L 101.0 128.0 L 102.0 128.0 L 103.0 128.0 L 104.0 128.0 L 105.0 128.0 L 106.0 128.0 L 107.0 128.0 L 108.0 128.0 L 109.0 128.0 L 110.0 128.0 L 111.0 128.0 L 112.0 128.0 L 113.0 128.0 L 114.0 128.0 L 115.0 128.0 L 116.0 128.0 L 117.0 128.0 L 118.0 128.0 L 119.0 128.0 L 120.0 128.0 L 121.0 128.0 L 122.0 128.0 L 123.0 128.0 L 124.0 128.0 L 125.0 128.0 L 126.0 128.0 L 127.0 128.0 L 127.66666666666667 127.66666666666667 L 128.0 127.0 L 128.0 126.0 L 128.0 125.0 L 128.0 124.0 L 128.0 123.0 L 128.0 122.0 L 128.0 121.0 L 128.0 120.0 L 128.0 119.0 L 128.0 118.0 L 128.0 117.0 L 128.0 116.0 L 128.0 115.0 L 128.0 114.0 L 128.0 113.0 L 128.0 112.0 L 128.0 111.0 L 128.0 110.0 L 128.0 109.0 L 128.0 108.0 L 128.0 107.0 L 128.0 106.0 L 128.0 105.0 L 128.0 104.0 L 128.0 103.0 L 128.0 102.0 L 128.0 101.0 L 128.0 100.0 L 128.0 99.0 L 128.0 98.0 L 128.0 97.0 L 128.0 96.0 L 128.0 95.0 L 128.0 94.0 L 128.0 93.0 L 128.0 92.0 L 128.0 91.0 L 128.0 90.0 L 128.0 89.0 L 128.0 88.0 L 128.0 87.0 L 128.0 86.0 L 128.0 85.0 L 128.0 84.0 L 128.0 83.0 L 128.0 82.0 L 128.0 81.0 L 128.0 80.0 L 128.0 79.0 L 128.0 78.0 L 128.0 77.0 L 128.0 76.0 L 128.0 75.0 L 128.0 74.0 L 128.0 73.0 L 128.0 72.0 L 128.0 71.0 L 128.0 70.0 L 128.0 69.0 L 128.0 68.0 L 128.0 67.0 L 128.0 66.0 L 128.0 65.0 L 128.0 64.0 L 128.0 63.0 L 128.0 62.0 L 128.0 61.0 L 128.0 60.0 L 128.0 59.0 L 128.0 58.0 L 128.0 57.0 L 128.0 56.0 L 128.0 55.0 L 128.0 54.0 L 128.0 53.0 L 128.0 52.0 L 128.0 51.0 L 128.0 50.0 L 128.0 49.0 L 128.0 48.0 L 128.0 47.0 L 128.0 46.0 L 128.0 45.0 L 128.0 44.0 L 128.0 43.0 L 128.0 42.0 L 128.0 41.0 L 128.0 40.0 L 128.0 39.0 L 128.0 38.0 L 128.0 37.0 L 128.0 36.0 L 128.0 35.0 L 128.0 34.0 L 128.0 33.0 L 128.0 32.0 L 128.0 31.0 L 128.0 30.0 L 128.0 29.0 L 128.0 28.0 L 128.0 27.0 L 128.0 26.0 L 128.0 25.0 L 128.0 24.0 L 128.0 23.0 L 128.0 22.0 L 128.0 21.0 L 128.0 20.0 L 128.0 19.0 L 128.0 18.0 L 128.0 17.0 L 128.0 16.0 L 128.0 15.0 L 128.0 14.0 L 128.0 13.0 L 128.0 12.0 L 128.0 11.0 L 128.0 10.0 L 128.0 9.0 L 128.0 8.0 L 128.0 7.0 L 128.0 6.0 L 128.0 5.0 L 128.0 4.0 L 128.0 3.0 L 128.0 2.0 L 128.0 1.0 L 127.66666666666667 0.3333333333333333 L 127.0 0.0 L 126.0 0.0 L 125.0 0.0 L 124.0 0.0 L 123.0 0.0 L 122.0 0.0 L 121.0 0.0 L 120.0 0.0 L 119.0 0.0 L 118.0 0.0 L 117.0 0.0 L 116.0 0.0 L 115.0 0.0 L 114.0 0.0 L 113.0 0.0 L 112.0 0.0 L 111.0 0.0 L 110.0 0.0 L 109.0 0.0 L 108.0 0.0 L 107.0 0.0 L 106.0 0.0 L 105.0 0.0 L 104.0 0.0 L 103.0 0.0 L 102.0 0.0 L 101.0 0.0 L 100.0 0.0 L 99.0 0.0 L 98.0 0.0 L 97.0 0.0 L 96.0 0.0 L 95.0 0.0 L 94.0 0.0 L 93.0 0.0 L 92.0 0.0 L 91.0 0.0 L 90.0 0.0 L 89.0 0.0 L 88.0 0.0 L 87.0 0.0 L 86.0 0.0 L 85.0 0.0 L 84.0 0.0 L 83.0 0.0 L 82.0 0.0 L 81.0 0.0 L 80.0 0.0 L 79.0 0.0 L 78.0 0.0 L 77.0 0.0 L 76.0 0.0 L 75.0 0.0 L 74.0 0.0 L 73.0 0.0 L 72.0 0.0 L 71.0 0.0 L 70.0 0.0 L 69.0 0.0 L 68.0 0.0 L 67.0 0.0 L 66.0 0.0 L 65.0 0.0 L 64.0 0.0 L 63.0 0.0 L 62.0 0.0 L 61.0 0.0 L 60.0 0.0 L 59.0 0.0 L 58.0 0.0 L 57.0 0.0 L 56.0 0.0 L 55.0 0.0 L 54.0 0.0 L 53.0 0.0 L 52.0 0.0 L 51.0 0.0 L 50.0 0.0 L 49.0 0.0 L 48.0 0.0 L 47.0 0.0 L 46.0 0.0 L 45.0 0.0 L 44.0 0.0 L 43.0 0.0 L 42.0 0.0 L 41.0 0.0 L 40.0 0.0 L 39.0 0.0 L 38.0 0.0 L 37.0 0.0 L 36.0 0.0 L 35.0 0.0 L 34.0 0.0 L 33.0 0.0 L 32.0 0.0 L 31.0 0.0 L 30.0 0.0 L 29.0 0.0 L 28.0 0.0 L 27.0 0.0 L 26.0 0.0 L 25.0 0.0 L 24.0 0.0 L 23.0 0.0 L 22.0 0.0 L 21.0 0.0 L 20.0 0.0 L 19.0 0.0 L 18.0 0.0 L 17.0 0.0 L 16.0 0.0 L 15.0 0.0 L 14.0 0.0 L 13.0 0.0 L 12.0 0.0 L 11.0 0.0 L 10.0 0.0 L 9.0 0.0 L 8.0 0.0 L 7.0 0.0 L 6.0 0.0 L 5.0 0.0 L 4.0 0.0 L 3.0 0.0 L 2.0 0.0 L 1.0 0.0 L 0.3333333333333333 0.3333333333333333 L 0.0 1.0 L 0.0 2.0 L 0.0 3.0 L 0.0 4.0 L 0.0 5.0 L 0.0 6.0 L 0.0 7.0 L 0.0 8.0 L 0.0 9.0 L 0.0 10.0 L 0.0 11.0 L 0.0 12.0 L 0.0 13.0 L 0.0 14.0 L 0.0 15.0 L 0.0 16.0 L 0.0 17.0 L 0.0 18.0 L 0.0 19.0 L 0.0 20.0 L 0.0 21.0 L 0.0 22.0 L 0.0 23.0 L 0.0 24.0 L 0.0 25.0 L 0.0 26.0 L 0.0 27.0 L 0.0 28.0 L 0.0 29.0 L 0.0 30.0 L 0.0 31.0 L 0.0 32.0 L 0.0 33.0 L 0.0 34.0 L 0.0 35.0 L 0.0 36.0 L 0.0 37.0 L 0.0 38.0 L 0.0 39.0 L 0.0 40.0 L 0.0 41.0 L 0.0 42.0 L 0.0 43.0 L 0.0 44.0 L 0.0 45.0 L 0.0 46.0 L 0.0 47.0 L 0.0 48.0 L 0.0 49.0 L 0.0 50.0 L 0.0 51.0 L 0.0 52.0 L 0.0 53.0 L 0.0 54.0 L 0.0 55.0 L 0.0 56.0 L 0.0 57.0 L 0.0 58.0 L 0.0 59.0 L 0.0 60.0 L 0.0 61.0 L 0.0 62.0 L 0.0 63.0 L 0.0 64.0 L 0.0 65.0 L 0.0 66.0 L 0.0 67.0 L 0.0 68.0 L 0.0 69.0 L 0.0 70.0 L 0.0 71.0 L 0.0 72.0 L 0.0 73.0 L 0.0 74.0 L 0.0 75.0 L 0.0 76.0 L 0.0 77.0 L 0.0 78.0 L 0.0 79.0 L 0.0 80.0 L 0.0 81.0 L 0.0 82.0 L 0.0 83.0 L 0.0 84.0 L 0.0 85.0 L 0.0 86.0 L 0.0 87.0 L 0.0 88.0 L 0.0 89.0 L 0.0 90.0 L 0.0 91.0 L 0.0 92.0 L 0.0 93.0 L 0.0 94.0 L 0.0 95.0 L 0.0 96.0 L 0.0 97.0 L 0.0 98.0 L 0.0 99.0 L 0.0 100.0 L 0.0 101.0 L 0.0 102.0 L 0.0 103.0 L 0.0 104.0 L 0.0 105.0 L 0.0 106.0 L 0.0 107.0 L 0.0 108.0 L 0.0 109.0 L 0.0 110.0 L 0.0 111.0 L 0.0 112.0 L 0.0 113.0 L 0.0 114.0 L 0.0 115.0 L 0.0 116.0 L 0.0 117.0 L 0.0 118.0 L 0.0 119.0 L 0.0 120.0 L 0.0 121.0 L 0.0 122.0 L 0.0 123.0 L 0.0 124.0 L 0.0 125.0 L 0.0 126.0 L 0.0 127.0 L 0.3333333333333333 127.66666666666667 L 1.0 128.0 L 2.0 128.0 L 3.0 128.0 L 4.0 128.0 L 5.0 128.0 L 6.0 128.0 L 7.0 128.0 L 8.0 128.0 L 9.0 128.0 L 10.0 128.0 L 11.0 128.0 L 12.0 128.0 L 13.0 128.0 L 14.0 128.0 L 15.0 128.0 L 16.0 128.0 L 17.0 128.0 L 18.0 128.0 L 19.0 128.0 L 20.0 128.0 L 21.0 128.0 L 22.0 128.0 L 23.0 128.0 L 24.0 128.0 L 25.0 128.0 L 25.5 128.0 Z" stroke="none" fill="rgb(255,255,255)" />
<path d="M 101.5 96.0 L 102.0 96.0 L 103.0 96.0 L 104.0 96.0 L 105.0 96.0 L 106.0 96.0 L 107.0 96.0 L 108.0 96.0 L 109.0 96.0 L 110.0 96.0 L 111.0 96.0 L 112.0 96.0 L 113.0 96.33333333333333 L 113.33333333333333 97.0 L 113.33333333333333 98.0 L 113.0 99.0 L 113.33333333333333 100.0 L 114.0 101.0 L 115.0 102.0 L 116.0 103.0 L 117.0 104.0 L 118.0 105.0 L 118.66666666666667 106.0 L 119.33333333333333 107.0 L 120.0 108.0 L 121.0 109.0 L 122.0 109.66666666666667 L 123.0 110.0 L 123.66666666666667 109.66666666666667 L 124.0 109.0 L 124.0 108.0 L 124.0 107.0 L 124.0 106.0 L 124.0 105.0 L 124.0 104.0 L 124.0 103.0 L 124.0 102.0 L 124.0 101.0 L 124.0 100.0 L 124.0 99.0 L 124.0 98.0 L 124.0 97.0 L 124.0 96.0 L 124.0 95.0 L 124.0 94.0 L 124.0 93.0 L 124.0 92.0 L 124.0 91.0 L 124.0 90.0 L 124.0 89.0 L 124.0 88.0 L 124.0 87.0 L 124.0 86.0 L 124.0 85.0 L 124.0 84.0 L 124.0 83.0 L 124.0 82.0 L 124.0 81.0 L 124.0 80.0 L 124.0 79.0 L 124.0 78.0 L 124.0 77.0 L 124.0 76.0 L 124.0 75.0 L 124.0 74.0 L 124.0 73.0 L 124.0 72.0 L 124.0 71.0 L 124.0 70.0 L 124.0 69.0 L 124.0 68.0 L 124.0 67.0 L 124.0 66.0 L 124.0 65.0 L 124.0 64.0 L 124.0 63.0 L 124.0 62.0 L 124.0 61.0 L 124.0 60.0 L 124.0 59.0 L 124.0 58.0 L 124.0 57.0 L 124.0 56.0 L 124.0 55.0 L 124.0 54.0 L 124.0 53.0 L 124.0 52.0 L 124.0 51.0 L 124.0 50.0 L 124.0 49.0 L 124.0 48.0 L 124.0 47.0 L 124.0 46.0 L 124.0 45.0 L 124.0 44.0 L 124.0 43.0 L 124.0 42.0 L 123.66666666666667 41.0 L 123.0 40.0 L 122.0 39.0 L 121.0 38.0 L 120.0 37.0 L 119.0 36.333333333333336 L 118.0 35.666666666666664 L 117.0 35.0 L 116.0 34.0 L 115.0 33.0 L 114.0 32.0 L 113.0 31.333333333333332 L 112.0 30.666666666666668 L 111.0 30.0 L 110.0 29.0 L 109.0 28.0 L 108.0 27.333333333333332 L 107.0 26.666666666666668 L 106.0 26.0 L 105.0 25.0 L 104.0 24.333333333333332 L 103.0 23.666666666666668 L 102.0 23.0 L 101.0 22.333333333333332 L 100.0 21.666666666666668 L 99.0 21.0 L 98.0 20.333333333333332 L 97.0 19.666666666666668 L 96.0 19.333333333333332 L 95.0 18.666666666666668 L 94.0 18.333333333333332 L 93.0 17.666666666666668 L 92.0 17.333333333333332 L 91.0 17.0 L 90.0 17.0 L 89.0 17.0 L 88.0 17.0 L 87.0 17.0 L 86.0 17.0 L 85.0 17.0 L 84.0 17.0 L 83.0 17.333333333333332 L 82.0 17.666666666666668 L 81.0 18.333333333333332 L 80.0 19.0 L 79.0 20.0 L 78.0 21.0 L 77.0 22.0 L 76.0 23.0 L 75.0 24.0 L 74.0 24.666666666666668 L 73.0 25.333333333333332 L 72.0 26.0 L 71.0 26.666666666666668 L 70.0 27.333333333333332 L 69.0 28.0 L 68.0 29.0 L 67.0 30.0 L 66.33333333333333 31.0 L 66.0 32.0 L 66.0 33.0 L 66.33333333333333 33.666666666666664 L 67.0 34.0 L 68.0 34.0 L 69.0 34.0 L 70.0 33.666666666666664 L 71.0 33.0 L 72.0 32.333333333333336 L 73.0 31.666666666666668 L 74.0 31.333333333333332 L 75.0 30.666666666666668 L 76.0 30.333333333333332 L 77.0 29.666666666666668 L 78.0 29.333333333333332 L 79.0 28.666666666666668 L 80.0 28.333333333333332 L 81.0 27.666666666666668 L 82.0 27.333333333333332 L 83.0 27.0 L 84.0 26.666666666666668 L 85.0 26.333333333333332 L 86.0 26.0 L 87.0 26.0 L 88.0 26.0 L 89.0 26.333333333333332 L 90.0 26.666666666666668 L 91.0 27.333333333333332 L 92.0 28.0 L 93.0 28.666666666666668 L 94.0 29.333333333333332 L 95.0 29.666666666666668 L 96.0 30.333333333333332 L 97.0 30.666666666666668 L 98.0 31.333333333333332 L 99.0 31.666666666666668 L 100.0 32.333333333333336 L 101.0 33.0 L 102.0 33.666666666666664 L 103.0 34.333333333333336 L 104.0 34.666666666666664 L 105.0 35.333333333333336 L 106.0 36.0 L 106.33333333333333 37.0 L 106.0 37.666666666666664 L 105.0 37.666666666666664 L 104.0 37.333333333333336 L 103.0 36.666666666666664 L 102.0 36.333333333333336 L 101.0 35.666666666666664 L 100.0 35.333333333333336 L 99.0 34.666666666666664 L 98.0 34.333333333333336 L 97.0 33.666666666666664 L 96.0 33.333333333333336 L 95.0 32.666666666666664 L 94.0 32.333333333333336 L 93.0 31.666666666666668 L 92.0 31.333333333333332 L 91.0 30.666666666666668 L 90.0 30.333333333333332 L 89.0 30.0 L 88.0 30.0 L 87.0 30.0 L 86.0 30.0 L 85.0 30.0 L 84.0 30.333333333333332 L 83.0 30.666666666666668 L 82.0 31.0 L 81.0 31.333333333333332 L 80.0 31.666666666666668 L 79.0 32.333333333333336 L 78.0 32.666666666666664 L 77.0 33.0 L 76.0 33.333333333333336 L 75.0 34.0 L 74.0 34.666666666666664 L 73.0 35.333333333333336 L 72.0 35.666666666666664 L 71.0 36.333333333333336 L 70.0 36.666666666666664 L 69.0 37.333333333333336 L 68.0 38.0 L 67.33333333333333 39.0 L 67.0 40.0 L 67.0 41.0 L 66.66666666666667 42.0 L 66.33333333333333 43.0 L 66.0 44.0 L 66.0 45.0 L 66.0 46.0 L 66.0 47.0 L 66.0 48.0 L 66.0 49.0 L 65.66666666666667 50.0 L 65.0 50.666666666666664 L 64.0 50.666666666666664 L 63.0 50.0 L 62.333333333333336 49.0 L 62.0 48.0 L 62.0 47.0 L 62.0 46.0 L 62.0 45.0 L 62.0 44.0 L 62.0 43.0 L 62.0 42.0 L 61.666666666666664 41.0 L 61.333333333333336 40.0 L 60.666666666666664 39.0 L 60.0 38.0 L 59.0 37.0 L 58.0 36.333333333333336 L 57.0 35.666666666666664 L 56.0 35.0 L 55.0 34.333333333333336 L 54.0 33.666666666666664 L 53.0 33.333333333333336 L 52.0 32.666666666666664 L 51.0 32.333333333333336 L 50.0 31.666666666666668 L 49.0 31.333333333333332 L 48.0 31.0 L 47.0 30.666666666666668 L 46.0 30.333333333333332 L 45.0 30.0 L 44.0 30.0 L 43.0 30.0 L 42.0 30.0 L 41.0 30.333333333333332 L 40.0 30.666666666666668 L 39.0 31.0 L 38.0 31.333333333333332 L 37.0 31.666666666666668 L 36.0 32.0 L 35.0 32.333333333333336 L 34.0 32.666666666666664 L 33.0 33.333333333333336 L 32.0 33.666666666666664 L 31.0 34.333333333333336 L 30.0 34.666666666666664 L 29.0 35.333333333333336 L 28.0 35.666666666666664 L 27.0 36.333333333333336 L 26.0 36.666666666666664 L 25.0 37.333333333333336 L 24.0 37.666666666666664 L 23.0 37.666666666666664 L 22.666666666666668 37.0 L 23.0 36.0 L 24.0 35.333333333333336 L 25.0 34.666666666666664 L 26.0 34.333333333333336 L 27.0 33.666666666666664 L 28.0 33.0 L 29.0 32.333333333333336 L 30.0 31.666666666666668 L 31.0 31.333333333333332 L 32.0 30.666666666666668 L 33.0 30.333333333333332 L 34.0 29.666666666666668 L 35.0 29.333333333333332 L 36.0 28.666666666666668 L 37.0 28.333333333333332 L 38.0 27.666666666666668 L 39.0 27.333333333333332 L 40.0 27.0 L 41.0 26.666666666666668 L 42.0 26.333333333333332 L 43.0 26.0 L 44.0 26.0 L 45.0 26.333333333333332 L 46.0 26.666666666666668 L 47.0 27.333333333333332 L 48.0 27.666666666666668 L 49.0 28.333333333333332 L 50.0 28.666666666666668 L 51.0 29.333333333333332 L 52.0 29.666666666666668 L 53.0 30.333333333333332 L 54.0 30.666666666666668 L 55.0 31.333333333333332 L 56.0 31.666666666666668 L 57.0 32.333333333333336 L 58.0 33.0 L 59.0 33.666666666666664 L 60.0 34.0 L 61.0 34.0 L 61.666666666666664 33.666666666666664 L 62.0 33.0 L 62.0 32.0 L 61.666666666666664 31.0 L 61.0 30.0 L 60.0 29.0 L 59.0 28.0 L 58.0 27.0 L 57.0 26.0 L 56.0 25.0 L 55.0 24.0 L 54.0 23.333333333333332 L 53.0 23.0 L 52.0 22.666666666666668 L 51.0 22.0 L 50.0 21.0 L 49.0 20.0 L 48.0 19.0 L 47.0 18.333333333333332 L 46.0 17.666666666666668 L 45.0 17.333333333333332 L 44.0 17.0 L 43.0 17.0 L 42.0 17.0 L 41.0 17.0 L 40.0 17.0 L 39.0 17.0 L 38.0 17.0 L 37.0 17.0 L 36.0 17.333333333333332 L 35.0 17.666666666666668 L 34.0 18.333333333333332 L 33.0 18.666666666666668 L 32.0 19.333333333333332 L 31.0 19.666666666666668 L 30.0 20.333333333333332 L 29.0 21.0 L 28.0 21.666666666666668 L 27.0 22.333333333333332 L 26.0 23.0 L 25.0 23.666666666666668 L 24.0 24.333333333333332 L 23.0 25.0 L 22.0 26.0 L 21.0 26.666666666666668 L 20.0 27.333333333333332 L 19.0 28.0 L 18.0 29.0 L 17.0 30.0 L 16.0 30.666666666666668 L 15.0 31.333333333333332 L 14.0 32.0 L 13.0 33.0 L 12.0 34.0 L 11.0 35.0 L 10.0 35.666666666666664 L 9.0 36.333333333333336 L 8.0 37.0 L 7.0 38.0 L 6.0 39.0 L 5.0 40.0 L 4.333333333333333 41.0 L 4.0 42.0 L 4.0 43.0 L 4.0 44.0 L 4.0 45.0 L 4.0 46.0 L 4.0 47.0 L 4.0 48.0 L 4.0 49.0 L 4.0 50.0 L 4.0 51.0 L 4.0 52.0 L 4.0 53.0 L 4.0 54.0 L 4.0 55.0 L 4.0 56.0 L 4.0 57.0 L 4.0 58.0 L 4.0 59.0 L 4.0 60.0 L 4.0 61.0 L 4.0 62.0 L 4.0 63.0 L 4.0 64.0 L 4.0 65.0 L 4.0 66.0 L 4.0 67.0 L 4.0 68.0 L 4.0 69.0 L 4.0 70.0 L 4.0 71.0 L 4.0 72.0 L 4.0 73.0 L 4.0 74.0 L 4.0 75.0 L 4.0 76.0 L 4.0 77.0 L 4.0 78.0 L 4.0 79.0 L 4.0 80.0 L 4.0 81.0 L 4.0 82.0 L 4.0 83.0 L 4.0 84.0 L 4.0 85.0 L 4.0 86.0 L 4.0 87.0 L 4.0 88.0 L 4.0 89.0 L 4.0 90.0 L 4.0 91.0 L 4.0 92.0 L 4.0 93.0 L 4.0 94.0 L 4.0 95.0 L 4.0 96.0 L 4.0 97.0 L 4.0 98.0 L 4.0 99.0 L 4.0 100.0 L 4.0 101.0 L 4.0 102.0 L 4.0 103.0 L 4.0 104.0 L 4.0 105.0 L 4.0 106.0 L 4.0 107.0 L 4.0 108.0 L 4.0 109.0 L 4.333333333333333 109.66666666666667 L 5.0 110.0 L 6.0 109.66666666666667 L 7.0 109.0 L 8.0 108.0 L 8.666666666666666 107.0 L 9.333333333333334 106.0 L 10.0 105.0 L 11.0 104.0 L 12.0 103.0 L 13.0 102.0 L 14.0 101.0 L 14.666666666666666 100.0 L 15.0 99.0 L 14.666666666666666 98.0 L 14.0 97.0 L 13.666666666666666 96.0 L 14.0 95.33333333333333 L 15.0 95.0 L 16.0 95.0 L 17.0 95.33333333333333 L 18.0 95.66666666666667 L 19.0 96.0 L 20.0 96.0 L 21.0 96.0 L 22.0 96.0 L 23.0 96.0 L 24.0 96.0 L 25.0 96.0 L 26.0 96.0 L 27.0 96.0 L 28.0 96.0 L 29.0 96.0 L 30.0 96.0 L 31.0 96.0 L 32.0 96.0 L 33.0 96.0 L 34.0 96.0 L 35.0 95.66666666666667 L 36.0 95.33333333333333 L 37.0 95.0 L 38.0 95.0 L 39.0 95.0 L 40.0 95.0 L 41.0 95.0 L 42.0 95.0 L 43.0 95.0 L 44.0 95.0 L 45.0 95.0 L 46.0 95.33333333333333 L 47.0 95.66666666666667 L 48.0 96.0 L 49.0 96.33333333333333 L 50.0 97.0 L 51.0 98.0 L 52.0 99.0 L 53.0 100.0 L 54.0 101.0 L 55.0 102.0 L 56.0 103.0 L 56.666666666666664 104.0 L 57.333333333333336 105.0 L 58.0 105.66666666666667 L 59.0 106.33333333333333 L 60.0 106.66666666666667 L 61.0 107.0 L 62.0 106.66666666666667 L 63.0 106.33333333333333 L 64.0 106.0 L 65.0 106.33333333333333 L 66.0 106.66666666666667 L 67.0 107.0 L 68.0 106.66666666666667 L 69.0 106.33333333333333 L 70.0 105.66666666666667 L 71.0 105.33333333333333 L 72.0 104.66666666666667 L 72.66666666666667 104.0 L 73.0 103.0 L 73.33333333333333 102.0 L 74.0 101.0 L 75.0 100.0 L 76.0 99.0 L 77.0 98.0 L 78.0 97.33333333333333 L 79.0 97.0 L 80.0 96.66666666666667 L 81.0 96.33333333333333 L 82.0 96.0 L 83.0 95.66666666666667 L 84.0 95.33333333333333 L 85.0 95.0 L 86.0 95.0 L 87.0 95.0 L 88.0 95.0 L 89.0 95.0 L 90.0 95.0 L 91.0 95.0 L 92.0 95.0 L 93.0 95.0 L 94.0 95.0 L 95.0 95.33333333333333 L 96.0 95.66666666666667 L 97.0 96.0 L 98.0 96.0 L 99.0 96.0 L 100.0 96.0 L 100.5 96.0 Z" stroke="none" fill="rgb(255,202,40)" />
<path d="M 59.5 88.5 L 60.0 89.0 L 61.0 90.0 L 62.0 91.0 L 62.666666666666664 92.0 L 63.333333333333336 92.66666666666667 L 64.0 93.0 L 64.66666666666667 92.66666666666667 L 65.33333333333333 92.0 L 66.0 91.0 L 67.0 90.0 L 68.0 89.0 L 69.0 88.0 L 70.0 87.0 L 71.0 86.0 L 72.0 85.33333333333333 L 73.0 84.66666666666667 L 74.0 84.0 L 75.0 83.33333333333333 L 76.0 82.66666666666667 L 77.0 82.33333333333333 L 78.0 81.66666666666667 L 79.0 81.33333333333333 L 80.0 81.0 L 81.0 80.66666666666667 L 82.0 80.33333333333333 L 83.0 79.66666666666667 L 84.0 79.33333333333333 L 85.0 78.66666666666667 L 86.0 78.33333333333333 L 87.0 77.66666666666667 L 88.0 77.0 L 89.0 76.33333333333333 L 90.0 75.66666666666667 L 91.0 75.0 L 92.0 74.0 L 93.0 73.0 L 93.66666666666667 72.0 L 94.33333333333333 71.0 L 94.66666666666667 70.0 L 95.33333333333333 69.0 L 95.66666666666667 68.0 L 96.0 67.0 L 96.0 66.0 L 96.33333333333333 65.0 L 96.66666666666667 64.0 L 97.0 63.0 L 97.0 62.0 L 97.0 61.0 L 97.0 60.0 L 96.66666666666667 59.0 L 96.33333333333333 58.0 L 96.0 57.0 L 95.66666666666667 56.0 L 95.33333333333333 55.0 L 94.66666666666667 54.0 L 94.0 53.0 L 93.0 52.0 L 92.0 51.0 L 91.0 50.333333333333336 L 90.0 49.666666666666664 L 89.0 49.333333333333336 L 88.0 49.0 L 87.0 48.666666666666664 L 86.0 48.333333333333336 L 85.0 48.0 L 84.0 48.0 L 83.0 48.0 L 82.0 48.0 L 81.0 48.333333333333336 L 80.0 48.666666666666664 L 79.0 49.0 L 78.0 49.333333333333336 L 77.0 50.0 L 76.0 51.0 L 75.0 52.0 L 74.33333333333333 53.0 L 73.66666666666667 54.0 L 73.0 55.0 L 72.0 56.0 L 71.0 56.666666666666664 L 70.0 57.333333333333336 L 69.0 57.666666666666664 L 68.0 58.0 L 67.0 58.0 L 66.0 58.0 L 65.0 58.0 L 64.0 58.0 L 63.0 58.0 L 62.0 58.0 L 61.0 58.0 L 60.0 58.0 L 59.0 57.666666666666664 L 58.0 57.333333333333336 L 57.0 56.666666666666664 L 56.0 56.0 L 55.0 55.0 L 54.333333333333336 54.0 L 53.666666666666664 53.0 L 53.0 52.0 L 52.0 51.0 L 51.0 50.0 L 50.0 49.333333333333336 L 49.0 49.0 L 48.0 48.666666666666664 L 47.0 48.333333333333336 L 46.0 48.0 L 45.0 48.0 L 44.0 48.0 L 43.0 48.0 L 42.0 48.333333333333336 L 41.0 48.666666666666664 L 40.0 49.0 L 39.0 49.333333333333336 L 38.0 49.666666666666664 L 37.0 50.333333333333336 L 36.0 51.0 L 35.0 52.0 L 34.0 53.0 L 33.333333333333336 54.0 L 32.666666666666664 55.0 L 32.333333333333336 56.0 L 32.0 57.0 L 31.666666666666668 58.0 L 31.333333333333332 59.0 L 31.0 60.0 L 31.0 61.0 L 31.0 62.0 L 31.0 63.0 L 31.333333333333332 64.0 L 31.666666666666668 65.0 L 32.0 66.0 L 32.0 67.0 L 32.333333333333336 68.0 L 32.666666666666664 69.0 L 33.333333333333336 70.0 L 33.666666666666664 71.0 L 34.333333333333336 72.0 L 35.0 73.0 L 36.0 74.0 L 37.0 75.0 L 38.0 75.66666666666667 L 39.0 76.33333333333333 L 40.0 77.0 L 41.0 77.66666666666667 L 42.0 78.33333333333333 L 43.0 78.66666666666667 L 44.0 79.33333333333333 L 45.0 79.66666666666667 L 46.0 80.33333333333333 L 47.0 80.66666666666667 L 48.0 81.0 L 49.0 81.33333333333333 L 50.0 81.66666666666667 L 51.0 82.33333333333333 L 52.0 82.66666666666667 L 53.0 83.33333333333333 L 54.0 84.0 L 55.0 84.66666666666667 L 56.0 85.33333333333333 L 57.0 86.0 L 58.0 87.0 L 58.5 87.5 Z" stroke="none" fill="rgb(255,255,255)" />
<path d="M 23.5 38.5 L 24.0 38.333333333333336 L 25.0 37.666666666666664 L 26.0 37.333333333333336 L 27.0 36.666666666666664 L 28.0 36.333333333333336 L 29.0 35.666666666666664 L 30.0 35.333333333333336 L 31.0 34.666666666666664 L 32.0 34.333333333333336 L 33.0 33.666666666666664 L 34.0 33.333333333333336 L 35.0 32.666666666666664 L 36.0 32.333333333333336 L 37.0 32.0 L 38.0 31.666666666666668 L 39.0 31.333333333333332 L 40.0 31.0 L 41.0 30.666666666666668 L 42.0 30.333333333333332 L 43.0 30.0 L 44.0 30.0 L 45.0 30.333333333333332 L 46.0 30.666666666666668 L 47.0 31.0 L 48.0 31.333333333333332 L 49.0 31.666666666666668 L 50.0 32.333333333333336 L 51.0 32.666666666666664 L 52.0 33.333333333333336 L 53.0 33.666666666666664 L 54.0 34.333333333333336 L 55.0 35.0 L 56.0 35.666666666666664 L 57.0 36.333333333333336 L 58.0 37.0 L 59.0 38.0 L 60.0 39.0 L 60.666666666666664 40.0 L 61.333333333333336 41.0 L 61.666666666666664 42.0 L 62.0 43.0 L 62.0 44.0 L 62.0 45.0 L 62.0 46.0 L 62.0 47.0 L 62.0 48.0 L 62.0 49.0 L 62.333333333333336 50.0 L 63.0 51.0 L 64.0 51.666666666666664 L 65.0 51.666666666666664 L 65.66666666666667 51.0 L 66.0 50.0 L 66.0 49.0 L 66.0 48.0 L 66.0 47.0 L 66.0 46.0 L 66.0 45.0 L 66.33333333333333 44.0 L 66.66666666666667 43.0 L 67.0 42.0 L 67.0 41.0 L 67.33333333333333 40.0 L 68.0 39.0 L 69.0 38.0 L 70.0 37.333333333333336 L 71.0 36.666666666666664 L 72.0 36.333333333333336 L 73.0 35.666666666666664 L 74.0 35.333333333333336 L 75.0 34.666666666666664 L 76.0 34.0 L 77.0 33.333333333333336 L 78.0 33.0 L 79.0 32.666666666666664 L 80.0 32.333333333333336 L 81.0 31.666666666666668 L 82.0 31.333333333333332 L 83.0 31.0 L 84.0 30.666666666666668 L 85.0 30.333333333333332 L 86.0 30.0 L 87.0 30.0 L 88.0 30.0 L 89.0 30.333333333333332 L 90.0 30.666666666666668 L 91.0 31.333333333333332 L 92.0 31.666666666666668 L 93.0 32.333333333333336 L 94.0 32.666666666666664 L 95.0 33.333333333333336 L 96.0 33.666666666666664 L 97.0 34.333333333333336 L 98.0 34.666666666666664 L 99.0 35.333333333333336 L 100.0 35.666666666666664 L 101.0 36.333333333333336 L 102.0 36.666666666666664 L 103.0 37.333333333333336 L 104.0 37.666666666666664 L 105.0 38.333333333333336 L 106.0 38.666666666666664 L 107.0 39.0 L 108.0 39.0 L 108.66666666666667 38.666666666666664 L 108.66666666666667 38.0 L 108.0 37.0 L 107.0 36.0 L 106.0 35.333333333333336 L 105.0 34.666666666666664 L 104.0 34.333333333333336 L 103.0 33.666666666666664 L 102.0 33.0 L 101.0 32.333333333333336 L 100.0 31.666666666666668 L 99.0 31.333333333333332 L 98.0 30.666666666666668 L 97.0 30.333333333333332 L 96.0 29.666666666666668 L 95.0 29.333333333333332 L 94.0 28.666666666666668 L 93.0 28.0 L 92.0 27.333333333333332 L 91.0 26.666666666666668 L 90.0 26.333333333333332 L 89.0 26.0 L 88.0 26.0 L 87.0 26.0 L 86.0 26.0 L 85.0 26.0 L 84.0 26.333333333333332 L 83.0 26.666666666666668 L 82.0 27.0 L 81.0 27.333333333333332 L 80.0 27.666666666666668 L 79.0 28.333333333333332 L 78.0 28.666666666666668 L 77.0 29.333333333333332 L 76.0 29.666666666666668 L 75.0 30.333333333333332 L 74.0 30.666666666666668 L 73.0 31.333333333333332 L 72.0 31.666666666666668 L 71.0 32.333333333333336 L 70.0 33.0 L 69.0 33.666666666666664 L 68.0 34.0 L 67.0 33.666666666666664 L 66.33333333333333 33.0 L 66.33333333333333 32.0 L 67.0 31.0 L 68.0 30.0 L 69.0 29.0 L 70.0 28.0 L 71.0 27.333333333333332 L 72.0 26.666666666666668 L 73.0 26.0 L 74.0 25.333333333333332 L 75.0 24.666666666666668 L 76.0 24.0 L 76.66666666666667 23.0 L 76.66666666666667 22.0 L 76.0 21.333333333333332 L 75.0 21.333333333333332 L 74.0 21.666666666666668 L 73.0 22.333333333333332 L 72.0 22.666666666666668 L 71.0 23.333333333333332 L 70.0 23.666666666666668 L 69.0 24.333333333333332 L 68.0 24.666666666666668 L 67.0 25.333333333333332 L 66.0 25.666666666666668 L 65.0 26.333333333333332 L 64.0 26.333333333333332 L 63.0 26.333333333333332 L 62.0 25.666666666666668 L 61.0 25.0 L 60.0 24.333333333333332 L 59.0 23.666666666666668 L 58.0 23.333333333333332 L 57.0 22.666666666666668 L 56.0 22.333333333333332 L 55.0 22.0 L 54.333333333333336 22.333333333333332 L 54.0 23.0 L 54.333333333333336 24.0 L 55.0 25.0 L 56.0 26.0 L 57.0 27.0 L 58.0 28.0 L 59.0 29.0 L 60.0 30.0 L 61.0 31.0 L 61.666666666666664 32.0 L 61.666666666666664 33.0 L 61.0 33.666666666666664 L 60.0 33.666666666666664 L 59.0 33.0 L 58.0 32.333333333333336 L 57.0 31.666666666666668 L 56.0 31.333333333333332 L 55.0 30.666666666666668 L 54.0 30.333333333333332 L 53.0 29.666666666666668 L 52.0 29.333333333333332 L 51.0 28.666666666666668 L 50.0 28.333333333333332 L 49.0 27.666666666666668 L 48.0 27.333333333333332 L 47.0 26.666666666666668 L 46.0 26.333333333333332 L 45.0 26.0 L 44.0 26.0 L 43.0 26.0 L 42.0 26.0 L 41.0 26.333333333333332 L 40.0 26.666666666666668 L 39.0 27.0 L 38.0 27.333333333333332 L 37.0 27.666666666666668 L 36.0 28.333333333333332 L 35.0 28.666666666666668 L 34.0 29.333333333333332 L 33.0 29.666666666666668 L 32.0 30.333333333333332 L 31.0 30.666666666666668 L 30.0 31.333333333333332 L 29.0 31.666666666666668 L 28.0 32.333333333333336 L 27.0 33.0 L 26.0 33.666666666666664 L 25.0 34.333333333333336 L 24.0 34.666666666666664 L 23.0 35.333333333333336 L 22.0 36.0 L 21.0 36.666666666666664 L 20.0 37.333333333333336 L 19.333333333333332 38.0 L 19.333333333333332 38.666666666666664 L 20.0 39.0 L 21.0 39.0 L 22.0 39.0 L 22.5 39.0 Z" stroke="none" fill="rgb(237,166,0)" />
<path d="M 52.5 52.5 L 53.0 53.0 L 54.0 53.666666666666664 L 54.666666666666664 53.666666666666664 L 55.0 53.0 L 54.666666666666664 52.0 L 54.333333333333336 51.0 L 53.666666666666664 50.0 L 53.333333333333336 49.0 L 52.666666666666664 48.0 L 52.0 47.0 L 51.0 46.333333333333336 L 50.0 45.666666666666664 L 49.0 45.0 L 48.0 44.333333333333336 L 47.0 44.0 L 46.0 44.0 L 45.0 44.0 L 44.0 44.0 L 43.0 44.0 L 42.0 44.0 L 41.0 44.333333333333336 L 40.0 44.666666666666664 L 39.0 45.0 L 38.0 45.333333333333336 L 37.0 45.666666666666664 L 36.0 46.333333333333336 L 35.0 46.666666666666664 L 34.0 47.333333333333336 L 33.0 48.0 L 32.0 49.0 L 31.0 50.0 L 30.0 51.0 L 29.333333333333332 52.0 L 28.666666666666668 53.0 L 28.333333333333332 54.0 L 28.0 55.0 L 28.0 56.0 L 27.666666666666668 57.0 L 27.333333333333332 58.0 L 27.0 59.0 L 27.0 60.0 L 27.0 61.0 L 27.0 62.0 L 27.0 63.0 L 27.0 64.0 L 27.0 65.0 L 27.333333333333332 66.0 L 27.666666666666668 67.0 L 28.0 68.0 L 28.333333333333332 69.0 L 29.0 70.0 L 30.0 71.0 L 31.0 72.0 L 32.0 73.0 L 33.0 74.0 L 34.0 75.0 L 35.0 76.0 L 36.0 77.0 L 37.0 78.0 L 38.0 78.66666666666667 L 39.0 79.0 L 40.0 79.33333333333333 L 41.0 79.66666666666667 L 42.0 80.0 L 43.0 80.0 L 43.666666666666664 79.66666666666667 L 43.666666666666664 79.0 L 43.0 78.33333333333333 L 42.0 77.66666666666667 L 41.0 77.0 L 40.0 76.33333333333333 L 39.0 75.66666666666667 L 38.0 75.0 L 37.0 74.0 L 36.0 73.0 L 35.0 72.0 L 34.333333333333336 71.0 L 33.666666666666664 70.0 L 33.333333333333336 69.0 L 32.666666666666664 68.0 L 32.333333333333336 67.0 L 32.0 66.0 L 32.0 65.0 L 31.666666666666668 64.0 L 31.333333333333332 63.0 L 31.0 62.0 L 31.0 61.0 L 31.333333333333332 60.0 L 31.666666666666668 59.0 L 32.0 58.0 L 32.333333333333336 57.0 L 32.666666666666664 56.0 L 33.333333333333336 55.0 L 34.0 54.0 L 35.0 53.0 L 36.0 52.0 L 37.0 51.0 L 38.0 50.333333333333336 L 39.0 49.666666666666664 L 40.0 49.333333333333336 L 41.0 49.0 L 42.0 48.666666666666664 L 43.0 48.333333333333336 L 44.0 48.0 L 45.0 48.0 L 46.0 48.333333333333336 L 47.0 48.666666666666664 L 48.0 49.0 L 49.0 49.333333333333336 L 50.0 50.0 L 51.0 51.0 L 51.5 51.5 Z" stroke="none" fill="rgb(237,166,0)" />
<path d="M 87.5 80.0 L 88.0 80.0 L 89.0 79.66666666666667 L 90.0 79.33333333333333 L 91.0 78.66666666666667 L 92.0 78.0 L 93.0 77.0 L 94.0 76.0 L 95.0 75.0 L 96.0 74.0 L 97.0 73.0 L 97.66666666666667 72.0 L 98.33333333333333 71.0 L 99.0 70.0 L 99.66666666666667 69.0 L 100.0 68.0 L 100.33333333333333 67.0 L 100.66666666666667 66.0 L 101.0 65.0 L 101.0 64.0 L 101.0 63.0 L 101.0 62.0 L 101.0 61.0 L 101.0 60.0 L 101.0 59.0 L 101.0 58.0 L 100.66666666666667 57.0 L 100.33333333333333 56.0 L 100.0 55.0 L 99.66666666666667 54.0 L 99.33333333333333 53.0 L 98.66666666666667 52.0 L 98.0 51.0 L 97.0 50.0 L 96.0 49.0 L 95.0 48.0 L 94.0 47.0 L 93.0 46.333333333333336 L 92.0 45.666666666666664 L 91.0 45.333333333333336 L 90.0 44.666666666666664 L 89.0 44.333333333333336 L 88.0 44.0 L 87.0 44.0 L 86.0 44.0 L 85.0 44.0 L 84.0 44.0 L 83.0 44.333333333333336 L 82.0 44.666666666666664 L 81.0 45.0 L 80.0 45.0 L 79.0 45.333333333333336 L 78.0 46.0 L 77.0 46.666666666666664 L 76.0 47.333333333333336 L 75.33333333333333 48.0 L 74.66666666666667 49.0 L 74.33333333333333 50.0 L 74.0 51.0 L 74.0 52.0 L 74.33333333333333 52.666666666666664 L 75.0 52.666666666666664 L 76.0 52.0 L 77.0 51.0 L 78.0 50.0 L 79.0 49.333333333333336 L 80.0 49.0 L 81.0 48.666666666666664 L 82.0 48.333333333333336 L 83.0 48.0 L 84.0 48.0 L 85.0 48.333333333333336 L 86.0 48.666666666666664 L 87.0 49.0 L 88.0 49.333333333333336 L 89.0 49.666666666666664 L 90.0 50.333333333333336 L 91.0 51.0 L 92.0 52.0 L 93.0 53.0 L 94.0 54.0 L 94.66666666666667 55.0 L 95.33333333333333 56.0 L 95.66666666666667 57.0 L 96.0 58.0 L 96.33333333333333 59.0 L 96.66666666666667 60.0 L 97.0 61.0 L 97.0 62.0 L 96.66666666666667 63.0 L 96.33333333333333 64.0 L 96.0 65.0 L 96.0 66.0 L 95.66666666666667 67.0 L 95.33333333333333 68.0 L 94.66666666666667 69.0 L 94.33333333333333 70.0 L 93.66666666666667 71.0 L 93.0 72.0 L 92.0 73.0 L 91.0 74.0 L 90.0 75.0 L 89.0 75.66666666666667 L 88.0 76.33333333333333 L 87.0 77.0 L 86.0 77.66666666666667 L 85.33333333333333 78.33333333333333 L 85.0 79.0 L 85.33333333333333 79.66666666666667 L 86.0 80.0 L 86.5 80.0 Z" stroke="none" fill="rgb(237,166,0)" />
<path d="M 40.5 98.0 L 41.0 98.0 L 42.0 98.0 L 43.0 98.0 L 44.0 98.33333333333333 L 45.0 98.66666666666667 L 46.0 99.0 L 47.0 99.0 L 48.0 99.33333333333333 L 49.0 99.66666666666667 L 50.0 100.33333333333333 L 51.0 100.66666666666667 L 52.0 101.33333333333333 L 53.0 102.0 L 54.0 103.0 L 55.0 103.66666666666667 L 56.0 104.0 L 56.666666666666664 103.66666666666667 L 56.666666666666664 103.0 L 56.0 102.0 L 55.0 101.0 L 54.0 100.0 L 53.0 99.0 L 52.0 98.0 L 51.0 97.0 L 50.0 96.33333333333333 L 49.0 96.0 L 48.0 95.66666666666667 L 47.0 95.33333333333333 L 46.0 95.0 L 45.0 95.0 L 44.0 95.0 L 43.0 95.0 L 42.0 95.0 L 41.0 95.0 L 40.0 95.0 L 39.0 95.0 L 38.0 95.0 L 37.0 95.0 L 36.0 95.0 L 35.0 95.33333333333333 L 34.0 95.66666666666667 L 33.0 96.0 L 32.0 96.0 L 31.0 96.0 L 30.0 96.0 L 29.0 96.0 L 28.0 96.0 L 27.0 96.0 L 26.0 96.0 L 25.0 96.0 L 24.0 96.0 L 23.0 96.0 L 22.0 96.0 L 21.0 96.0 L 20.0 96.0 L 19.0 95.66666666666667 L 18.0 95.33333333333333 L 17.0 95.0 L 16.0 95.0 L 15.0 95.0 L 14.0 95.0 L 13.333333333333334 95.33333333333333 L 13.0 96.0 L 13.333333333333334 97.0 L 14.0 98.0 L 15.0 98.66666666666667 L 16.0 99.0 L 17.0 99.0 L 18.0 99.33333333333333 L 19.0 99.66666666666667 L 20.0 100.0 L 21.0 100.0 L 22.0 100.0 L 23.0 100.0 L 24.0 100.0 L 25.0 100.0 L 26.0 100.0 L 27.0 100.0 L 28.0 100.0 L 29.0 100.0 L 30.0 100.0 L 31.0 100.0 L 32.0 99.66666666666667 L 33.0 99.33333333333333 L 34.0 99.0 L 35.0 99.0 L 36.0 99.0 L 37.0 98.66666666666667 L 38.0 98.33333333333333 L 39.0 98.0 L 39.5 98.0 Z" stroke="none" fill="rgb(237,166,0)" />
<path d="M 95.5 99.5 L 96.0 99.66666666666667 L 97.0 100.0 L 98.0 100.0 L 99.0 100.0 L 100.0 100.0 L 101.0 100.0 L 102.0 100.0 L 103.0 100.0 L 104.0 100.0 L 105.0 100.0 L 106.0 100.0 L 107.0 100.0 L 108.0 100.0 L 109.0 99.66666666666667 L 110.0 99.33333333333333 L 111.0 99.0 L 112.0 99.0 L 113.0 98.66666666666667 L 114.0 98.0 L 115.0 97.0 L 115.66666666666667 96.0 L 116.0 95.0 L 115.66666666666667 94.33333333333333 L 115.0 94.33333333333333 L 114.0 94.66666666666667 L 113.0 95.33333333333333 L 112.0 95.66666666666667 L 111.0 96.0 L 110.0 96.0 L 109.0 96.0 L 108.0 96.0 L 107.0 96.0 L 106.0 96.0 L 105.0 96.0 L 104.0 96.0 L 103.0 96.0 L 102.0 96.0 L 101.0 96.0 L 100.0 96.0 L 99.0 96.0 L 98.0 96.0 L 97.0 95.66666666666667 L 96.0 95.33333333333333 L 95.0 95.0 L 94.0 95.0 L 93.0 95.0 L 92.0 95.0 L 91.0 95.0 L 90.0 95.0 L 89.0 95.0 L 88.0 95.0 L 87.0 95.0 L 86.0 95.0 L 85.0 95.0 L 84.0 95.0 L 83.0 95.33333333333333 L 82.0 95.66666666666667 L 81.0 96.0 L 80.0 96.33333333333333 L 79.0 96.66666666666667 L 78.0 97.0 L 77.0 97.33333333333333 L 76.0 98.0 L 75.0 99.0 L 74.0 100.0 L 73.33333333333333 101.0 L 73.0 102.0 L 73.33333333333333 102.66666666666667 L 74.0 102.66666666666667 L 75.0 102.0 L 76.0 101.33333333333333 L 77.0 100.66666666666667 L 78.0 100.33333333333333 L 79.0 99.66666666666667 L 80.0 99.33333333333333 L 81.0 99.0 L 82.0 99.0 L 83.0 98.66666666666667 L 84.0 98.33333333333333 L 85.0 98.0 L 86.0 98.0 L 87.0 98.0 L 88.0 98.0 L 89.0 98.0 L 90.0 98.33333333333333 L 91.0 98.66666666666667 L 92.0 99.0 L 93.0 99.0 L 94.0 99.0 L 94.5 99.0 Z" stroke="none" fill="rgb(237,166,0)" />
<path d="M 50.5 22.5 L 51.0 22.666666666666668 L 52.0 23.0 L 53.0 23.0 L 53.666666666666664 22.666666666666668 L 54.0 22.0 L 53.666666666666664 21.333333333333332 L 53.0 21.0 L 52.0 20.666666666666668 L 51.0 20.333333333333332 L 50.0 20.0 L 49.333333333333336 20.333333333333332 L 49.333333333333336 21.0 L 49.5 21.5 Z" stroke="none" fill="rgb(0,0,0)" />
<path d="M 85.0 80.5 L 85.0 80.0 L 84.66666666666667 79.33333333333333 L 84.0 79.0 L 83.0 79.33333333333333 L 82.0 79.66666666666667 L 81.33333333333333 80.33333333333333 L 81.33333333333333 80.66666666666667 L 82.0 81.0 L 83.0 81.0 L 84.0 81.0 L 84.5 81.0 Z" stroke="none" fill="rgb(0,0,0)" />
<path d="M 79.0 20.5 L 78.66666666666667 20.333333333333332 L 78.0 20.0 L 77.0 20.333333333333332 L 76.33333333333333 21.0 L 76.33333333333333 21.666666666666668 L 77.0 22.0 L 78.0 21.666666666666668 L 78.5 21.5 Z" stroke="none" fill="rgb(0,0,0)" />
<path d="M 46.5 81.0 L 46.666666666666664 80.66666666666667 L 46.666666666666664 80.33333333333333 L 46.0 80.0 L 45.333333333333336 80.33333333333333 L 45.333333333333336 80.66666666666667 L 45.5 81.0 Z" stroke="none" fill="rgb(0,0,0)" />
<path d="M 48.5 20.0 L 48.666666666666664 19.666666666666668 L 48.666666666666664 19.333333333333332 L 48.333333333333336 19.333333333333332 L 48.0 19.5 Z" stroke="none" fill="rgb(0,0,0)" />
<path d="M 80.0 19.5 L 79.66666666666667 19.333333333333332 L 79.33333333333333 19.333333333333332 L 79.33333333333333 19.666666666666668 L 79.5 20.0 Z" stroke="none" fill="rgb(0,0,0)" />
<path d="M 54.5 55.0 L 54.666666666666664 54.666666666666664 L 54.666666666666664 54.333333333333336 L 54.333333333333336 54.333333333333336 L 54.0 54.5 Z" stroke="none" fill="rgb(0,0,0)" />
<path d="M 44.5 80.0 L 44.666666666666664 79.66666666666667 L 44.666666666666664 79.33333333333333 L 44.333333333333336 79.33333333333333 L 44.0 79.5 Z" stroke="none" fill="rgb(0,0,0)" />
<path d="M 15.5 100.0 L 15.666666666666666 99.66666666666667 L 15.666666666666666 99.33333333333333 L 15.333333333333334 99.33333333333333 L 15.0 99.5 Z" stroke="none" fill="rgb(0,0,0)" />
<path d="M 112.5 100.0 L 112.66666666666667 99.66666666666667 L 112.66666666666667 99.33333333333333 L 112.33333333333333 99.33333333333333 L 112.0 99.5 Z" stroke="none" fill="rgb(0,0,0)" />
<path d="M 56.5 105.0 L 56.666666666666664 104.66666666666667 L 56.666666666666664 104.33333333333333 L 56.333333333333336 104.33333333333333 L 56.0 104.5 Z" stroke="none" fill="rgb(0,0,0)" />
<path d="M 5.0 110.5 L 4.666666666666667 110.33333333333333 L 4.333333333333333 110.33333333333333 L 4.333333333333333 110.66666666666667 L 4.5 111.0 Z" stroke="none" fill="rgb(0,0,0)" />
<path d="M 123.5 111.0 L 123.66666666666667 110.66666666666667 L 123.66666666666667 110.33333333333333 L 123.33333333333333 110.33333333333333 L 123.0 110.5 Z" stroke="none" fill="rgb(0,0,0)" />
</svg>
