<?xml version="1.0" encoding="UTF-8" standalone="no"?>
<!DOCTYPE svg PUBLIC "-//W3C//DTD SVG 1.1//EN"
"http://www.w3.org/Graphics/SVG/1.1/DTD/svg11.dtd">
<svg width="128" height="128" xmlns="http://www.w3.org/2000/svg" version="1.1">
<path d="M 26.5 128.0 L 27.0 128.0 L 28.0 128.0 L 29.0 128.0 L 30.0 128.0 L 31.0 128.0 L 32.0 128.0 L 33.0 128.0 L 34.0 128.0 L 35.0 128.0 L 36.0 128.0 L 37.0 128.0 L 38.0 128.0 L 39.0 128.0 L 40.0 128.0 L 41.0 128.0 L 42.0 128.0 L 43.0 128.0 L 44.0 128.0 L 45.0 128.0 L 46.0 128.0 L 47.0 128.0 L 48.0 128.0 L 49.0 128.0 L 50.0 128.0 L 51.0 128.0 L 52.0 128.0 L 53.0 128.0 L 54.0 128.0 L 55.0 128.0 L 56.0 128.0 L 57.0 128.0 L 58.0 128.0 L 59.0 128.0 L 60.0 128.0 L 61.0 128.0 L 62.0 128.0 L 63.0 128.0 L 64.0 128.0 L 65.0 128.0 L 66.0 128.0 L 67.0 128.0 L 68.0 128.0 L 69.0 128.0 L 70.0 128.0 L 71.0 128.0 L 72.0 128.0 L 73.0 128.0 L 74.0 128.0 L 75.0 128.0 L 76.0 128.0 L 77.0 128.0 L 78.0 128.0 L 79.0 128.0 L 80.0 128.0 L 81.0 128.0 L 82.0 128.0 L 83.0 128.0 L 84.0 128.0 L 85.0 128.0 L 86.0 128.0 L 87.0 128.0 L 88.0 128.0 L 89.0 128.0 L 90.0 128.0 L 91.0 128.0 L 92.0 128.0 L 93.0 128.0 L 94.0 128.0 L 95.0 128.0 L 96.0 128.0 L 97.0 128.0 L 98.0 128.0 L 99.0 128.0 L 100.0 128.0 L 101.0 128.0 L 102.0 128.0 L 103.0 128.0 L 104.0 128.0 L 105.0 128.0 L 106.0 128.0 L 107.0 128.0 L 108.0 128.0 L 109.0 128.0 L 110.0 128.0 L 111.0 128.0 L 112.0 128.0 L 113.0 128.0 L 114.0 128.0 L 115.0 128.0 L 116.0 128.0 L 117.0 128.0 L 118.0 128.0 L 119.0 128.0 L 120.0 128.0 L 121.0 128.0 L 122.0 128.0 L 123.0 128.0 L 124.0 128.0 L 125.0 128.0 L 126.0 128.0 L 127.0 128.0 L 127.66666666666667 127.66666666666667 L 128.0 127.0 L 128.0 126.0 L 128.0 125.0 L 128.0 124.0 L 128.0 123.0 L 128.0 122.0 L 128.0 121.0 L 128.0 120.0 L 128.0 119.0 L 128.0 118.0 L 128.0 117.0 L 128.0 116.0 L 128.0 115.0 L 128.0 114.0 L 128.0 113.0 L 128.0 112.0 L 128.0 111.0 L 128.0 110.0 L 128.0 109.0 L 128.0 108.0 L 128.0 107.0 L 128.0 106.0 L 128.0 105.0 L 128.0 104.0 L 128.0 103.0 L 128.0 102.0 L 128.0 101.0 L 128.0 100.0 L 128.0 99.0 L 128.0 98.0 L 128.0 97.0 L 128.0 96.0 L 128.0 95.0 L 128.0 94.0 L 128.0 93.0 L 128.0 92.0 L 128.0 91.0 L 128.0 90.0 L 128.0 89.0 L 128.0 88.0 L 128.0 87.0 L 128.0 86.0 L 128.0 85.0 L 128.0 84.0 L 128.0 83.0 L 128.0 82.0 L 128.0 81.0 L 128.0 80.0 L 128.0 79.0 L 128.0 78.0 L 128.0 77.0 L 128.0 76.0 L 128.0 75.0 L 128.0 74.0 L 128.0 73.0 L 128.0 72.0 L 128.0 71.0 L 128.0 70.0 L 128.0 69.0 L 128.0 68.0 L 128.0 67.0 L 128.0 66.0 L 128.0 65.0 L 128.0 64.0 L 128.0 63.0 L 128.0 62.0 L 128.0 61.0 L 128.0 60.0 L 128.0 59.0 L 128.0 58.0 L 128.0 57.0 L 128.0 56.0 L 128.0 55.0 L 128.0 54.0 L 128.0 53.0 L 128.0 52.0 L 128.0 51.0 L 128.0 50.0 L 128.0 49.0 L 128.0 48.0 L 128.0 47.0 L 128.0 46.0 L 128.0 45.0 L 128.0 44.0 L 128.0 43.0 L 128.0 42.0 L 128.0 41.0 L 128.0 40.0 L 128.0 39.0 L 128.0 38.0 L 128.0 37.0 L 128.0 36.0 L 128.0 35.0 L 128.0 34.0 L 128.0 33.0 L 128.0 32.0 L 128.0 31.0 L 128.0 30.0 L 128.0 29.0 L 128.0 28.0 L 128.0 27.0 L 128.0 26.0 L 128.0 25.0 L 128.0 24.0 L 128.0 23.0 L 128.0 22.0 L 128.0 21.0 L 128.0 20.0 L 128.0 19.0 L 128.0 18.0 L 128.0 17.0 L 128.0 16.0 L 128.0 15.0 L 128.0 14.0 L 128.0 13.0 L 128.0 12.0 L 128.0 11.0 L 128.0 10.0 L 128.0 9.0 L 128.0 8.0 L 128.0 7.0 L 128.0 6.0 L 128.0 5.0 L 128.0 4.0 L 128.0 3.0 L 128.0 2.0 L 128.0 1.0 L 127.66666666666667 0.3333333333333333 L 127.0 0.0 L 126.0 0.0 L 125.0 0.0 L 124.0 0.0 L 123.0 0.0 L 122.0 0.0 L 121.0 0.0 L 120.0 0.0 L 119.0 0.0 L 118.0 0.0 L 117.0 0.0 L 116.0 0.0 L 115.0 0.0 L 114.0 0.0 L 113.0 0.0 L 112.0 0.0 L 111.0 0.0 L 110.0 0.0 L 109.0 0.0 L 108.0 0.0 L 107.0 0.0 L 106.0 0.0 L 105.0 0.0 L 104.0 0.0 L 103.0 0.0 L 102.0 0.0 L 101.0 0.0 L 100.0 0.0 L 99.0 0.0 L 98.0 0.0 L 97.0 0.0 L 96.0 0.0 L 95.0 0.0 L 94.0 0.0 L 93.0 0.0 L 92.0 0.0 L 91.0 0.0 L 90.0 0.0 L 89.0 0.0 L 88.0 0.0 L 87.0 0.0 L 86.0 0.0 L 85.0 0.0 L 84.0 0.0 L 83.0 0.0 L 82.0 0.0 L 81.0 0.0 L 80.0 0.0 L 79.0 0.0 L 78.0 0.0 L 77.0 0.0 L 76.0 0.0 L 75.0 0.0 L 74.0 0.0 L 73.0 0.0 L 72.0 0.0 L 71.0 0.0 L 70.0 0.0 L 69.0 0.0 L 68.0 0.0 L 67.0 0.0 L 66.0 0.0 L 65.0 0.0 L 64.0 0.0 L 63.0 0.0 L 62.0 0.0 L 61.0 0.0 L 60.0 0.0 L 59.0 0.0 L 58.0 0.0 L 57.0 0.0 L 56.0 0.0 L 55.0 0.0 L 54.0 0.0 L 53.0 0.0 L 52.0 0.0 L 51.0 0.0 L 50.0 0.0 L 49.0 0.0 L 48.0 0.0 L 47.0 0.0 L 46.0 0.0 L 45.0 0.0 L 44.0 0.0 L 43.0 0.0 L 42.0 0.0 L 41.0 0.0 L 40.0 0.0 L 39.0 0.0 L 38.0 0.0 L 37.0 0.0 L 36.0 0.0 L 35.0 0.0 L 34.0 0.0 L 33.0 0.0 L 32.0 0.0 L 31.0 0.0 L 30.0 0.0 L 29.0 0.0 L 28.0 0.0 L 27.0 0.0 L 26.0 0.0 L 25.0 0.0 L 24.0 0.0 L 23.0 0.0 L 22.0 0.0 L 21.0 0.0 L 20.0 0.0 L 19.0 0.0 L 18.0 0.0 L 17.0 0.0 L 16.0 0.0 L 15.0 0.0 L 14.0 0.0 L 13.0 0.0 L 12.0 0.0 L 11.0 0.0 L 10.0 0.0 L 9.0 0.0 L 8.0 0.0 L 7.0 0.0 L 6.0 0.0 L 5.0 0.0 L 4.0 0.0 L 3.0 0.0 L 2.0 0.0 L 1.0 0.0 L 0.3333333333333333 0.3333333333333333 L 0.0 1.0 L 0.0 2.0 L 0.0 3.0 L 0.0 4.0 L 0.0 5.0 L 0.0 6.0 L 0.0 7.0 L 0.0 8.0 L 0.0 9.0 L 0.0 10.0 L 0.0 11.0 L 0.0 12.0 L 0.0 13.0 L 0.0 14.0 L 0.0 15.0 L 0.0 16.0 L 0.0 17.0 L 0.0 18.0 L 0.0 19.0 L 0.0 20.0 L 0.0 21.0 L 0.0 22.0 L 0.0 23.0 L 0.0 24.0 L 0.0 25.0 L 0.0 26.0 L 0.0 27.0 L 0.0 28.0 L 0.0 29.0 L 0.0 30.0 L 0.0 31.0 L 0.0 32.0 L 0.0 33.0 L 0.0 34.0 L 0.0 35.0 L 0.0 36.0 L 0.0 37.0 L 0.0 38.0 L 0.0 39.0 L 0.0 40.0 L 0.0 41.0 L 0.0 42.0 L 0.0 43.0 L 0.0 44.0 L 0.0 45.0 L 0.0 46.0 L 0.0 47.0 L 0.0 48.0 L 0.0 49.0 L 0.0 50.0 L 0.0 51.0 L 0.0 52.0 L 0.0 53.0 L 0.0 54.0 L 0.0 55.0 L 0.0 56.0 L 0.0 57.0 L 0.0 58.0 L 0.0 59.0 L 0.0 60.0 L 0.0 61.0 L 0.0 62.0 L 0.0 63.0 L 0.0 64.0 L 0.0 65.0 L 0.0 66.0 L 0.0 67.0 L 0.0 68.0 L 0.0 69.0 L 0.0 70.0 L 0.0 71.0 L 0.0 72.0 L 0.0 73.0 L 0.0 74.0 L 0.0 75.0 L 0.0 76.0 L 0.0 77.0 L 0.0 78.0 L 0.0 79.0 L 0.0 80.0 L 0.0 81.0 L 0.0 82.0 L 0.0 83.0 L 0.0 84.0 L 0.0 85.0 L 0.0 86.0 L 0.0 87.0 L 0.0 88.0 L 0.0 89.0 L 0.0 90.0 L 0.0 91.0 L 0.0 92.0 L 0.0 93.0 L 0.0 94.0 L 0.0 95.0 L 0.0 96.0 L 0.0 97.0 L 0.0 98.0 L 0.0 99.0 L 0.0 100.0 L 0.0 101.0 L 0.0 102.0 L 0.0 103.0 L 0.0 104.0 L 0.0 105.0 L 0.0 106.0 L 0.0 107.0 L 0.0 108.0 L 0.0 109.0 L 0.0 110.0 L 0.0 111.0 L 0.0 112.0 L 0.0 113.0 L 0.0 114.0 L 0.0 115.0 L 0.0 116.0 L 0.0 117.0 L 0.0 118.0 L 0.0 119.0 L 0.0 120.0 L 0.0 121.0 L 0.0 122.0 L 0.0 123.0 L 0.0 124.0 L 0.0 125.0 L 0.0 126.0 L 0.0 127.0 L 0.3333333333333333 127.66666666666667 L 1.0 128.0 L 2.0 128.0 L 3.0 128.0 L 4.0 128.0 L 5.0 128.0 L 6.0 128.0 L 7.0 128.0 L 8.0 128.0 L 9.0 128.0 L 10.0 128.0 L 11.0 128.0 L 12.0 128.0 L 13.0 128.0 L 14.0 128.0 L 15.0 128.0 L 16.0 128.0 L 17.0 128.0 L 18.0 128.0 L 19.0 128.0 L 20.0 128.0 L 21.0 128.0 L 22.0 128.0 L 23.0 128.0 L 24.0 128.0 L 25.0 128.0 L 25.5 128.0 Z" stroke="none" fill="rgb(0,0,0)" />
<path d="M 97.5 16.0 L 98.0 16.333333333333332 L 99.0 17.0 L 100.0 18.0 L 100.66666666666667 19.0 L 101.0 20.0 L 101.33333333333333 21.0 L 102.0 21.666666666666668 L 103.0 22.0 L 104.0 22.333333333333332 L 105.0 22.666666666666668 L 106.0 23.333333333333332 L 107.0 24.0 L 108.0 25.0 L 108.66666666666667 26.0 L 109.33333333333333 27.0 L 109.66666666666667 28.0 L 110.0 29.0 L 110.0 30.0 L 110.0 31.0 L 110.0 32.0 L 110.33333333333333 32.666666666666664 L 111.0 33.333333333333336 L 112.0 34.0 L 113.0 35.0 L 114.0 36.0 L 114.66666666666667 37.0 L 115.0 38.0 L 115.0 39.0 L 115.0 40.0 L 114.66666666666667 41.0 L 114.33333333333333 42.0 L 114.0 43.0 L 114.33333333333333 44.0 L 114.66666666666667 45.0 L 115.33333333333333 46.0 L 115.66666666666667 47.0 L 116.0 48.0 L 116.0 49.0 L 116.0 50.0 L 116.0 51.0 L 116.0 52.0 L 116.0 53.0 L 115.66666666666667 54.0 L 115.0 55.0 L 114.33333333333333 56.0 L 114.0 57.0 L 114.0 58.0 L 114.0 59.0 L 114.0 60.0 L 114.0 61.0 L 114.0 62.0 L 114.0 63.0 L 114.0 64.0 L 114.0 65.0 L 114.0 66.0 L 114.0 67.0 L 114.33333333333333 67.66666666666667 L 115.0 68.0 L 116.0 67.66666666666667 L 117.0 67.0 L 118.0 66.0 L 118.66666666666667 65.0 L 119.0 64.0 L 119.33333333333333 63.0 L 119.66666666666667 62.0 L 120.0 61.0 L 120.0 60.0 L 120.0 59.0 L 120.0 58.0 L 120.0 57.0 L 119.66666666666667 56.0 L 119.33333333333333 55.0 L 119.0 54.0 L 119.33333333333333 53.0 L 119.66666666666667 52.0 L 120.33333333333333 51.0 L 120.66666666666667 50.0 L 121.0 49.0 L 121.0 48.0 L 121.0 47.0 L 121.0 46.0 L 121.0 45.0 L 121.0 44.0 L 121.0 43.0 L 120.66666666666667 42.0 L 120.0 41.0 L 119.0 40.0 L 118.0 39.0 L 117.33333333333333 38.0 L 117.33333333333333 37.0 L 117.66666666666667 36.0 L 118.0 35.0 L 118.0 34.0 L 118.0 33.0 L 118.0 32.0 L 118.0 31.0 L 117.66666666666667 30.0 L 117.33333333333333 29.0 L 116.66666666666667 28.0 L 116.0 27.0 L 115.0 26.333333333333332 L 114.0 25.666666666666668 L 113.0 25.0 L 112.33333333333333 24.0 L 112.0 23.0 L 112.0 22.0 L 112.0 21.0 L 112.0 20.0 L 111.66666666666667 19.0 L 111.0 18.0 L 110.0 17.0 L 109.0 16.333333333333332 L 108.0 15.666666666666666 L 107.0 15.333333333333334 L 106.0 15.0 L 105.0 15.0 L 104.0 15.0 L 103.0 15.0 L 102.0 14.666666666666666 L 101.33333333333333 14.0 L 101.0 13.0 L 101.0 12.0 L 100.66666666666667 11.0 L 100.0 10.0 L 99.0 9.0 L 98.0 8.333333333333334 L 97.0 7.666666666666667 L 96.0 7.333333333333333 L 95.0 7.0 L 94.0 7.0 L 93.0 7.0 L 92.0 7.0 L 91.0 7.333333333333333 L 90.0 7.333333333333333 L 89.0 7.0 L 88.0 6.0 L 87.0 5.333333333333333 L 86.0 4.666666666666667 L 85.0 4.333333333333333 L 84.0 4.0 L 83.0 4.0 L 82.0 4.0 L 81.0 4.0 L 80.0 4.0 L 79.0 4.333333333333333 L 78.0 4.666666666666667 L 77.0 5.0 L 76.0 5.0 L 75.0 5.0 L 74.0 4.666666666666667 L 73.0 4.333333333333333 L 72.0 4.0 L 71.0 4.0 L 70.0 4.0 L 69.0 4.333333333333333 L 68.0 4.666666666666667 L 67.0 5.333333333333333 L 66.0 5.666666666666667 L 65.0 6.333333333333333 L 64.0 7.0 L 63.0 7.666666666666667 L 62.0 8.0 L 61.0 8.0 L 60.0 8.0 L 59.0 8.0 L 58.0 8.0 L 57.0 8.333333333333334 L 56.0 9.0 L 55.0 10.0 L 54.0 11.0 L 53.333333333333336 12.0 L 53.0 13.0 L 52.666666666666664 14.0 L 52.0 15.0 L 51.0 16.0 L 50.0 16.666666666666668 L 49.0 17.333333333333332 L 48.333333333333336 18.0 L 47.666666666666664 19.0 L 47.0 20.0 L 46.333333333333336 21.0 L 46.0 22.0 L 46.0 23.0 L 46.0 24.0 L 46.0 25.0 L 46.0 26.0 L 45.666666666666664 27.0 L 45.333333333333336 28.0 L 44.666666666666664 29.0 L 44.333333333333336 30.0 L 43.666666666666664 31.0 L 43.333333333333336 32.0 L 43.0 33.0 L 43.0 34.0 L 43.0 35.0 L 43.0 36.0 L 43.0 37.0 L 43.0 38.0 L 43.0 39.0 L 43.333333333333336 40.0 L 43.666666666666664 41.0 L 44.333333333333336 41.666666666666664 L 45.0 42.0 L 45.666666666666664 41.666666666666664 L 46.0 41.0 L 46.0 40.0 L 46.0 39.0 L 46.0 38.0 L 46.0 37.0 L 46.0 36.0 L 46.333333333333336 35.0 L 46.666666666666664 34.0 L 47.333333333333336 33.0 L 48.0 32.0 L 48.666666666666664 31.0 L 49.0 30.0 L 48.666666666666664 29.0 L 48.333333333333336 28.0 L 48.333333333333336 27.0 L 48.666666666666664 26.0 L 49.333333333333336 25.0 L 50.0 24.0 L 51.0 23.0 L 52.0 22.333333333333332 L 53.0 21.666666666666668 L 54.0 21.0 L 54.666666666666664 20.0 L 55.0 19.0 L 55.333333333333336 18.0 L 56.0 17.0 L 57.0 16.0 L 58.0 15.0 L 59.0 14.333333333333334 L 60.0 14.0 L 61.0 14.0 L 62.0 14.0 L 63.0 14.0 L 63.666666666666664 13.666666666666666 L 64.33333333333333 13.0 L 65.0 12.0 L 66.0 11.333333333333334 L 67.0 10.666666666666666 L 68.0 10.333333333333334 L 69.0 10.0 L 70.0 10.0 L 71.0 10.333333333333334 L 72.0 10.666666666666666 L 73.0 11.0 L 74.0 11.0 L 75.0 10.666666666666666 L 76.0 10.333333333333334 L 77.0 9.666666666666666 L 78.0 9.333333333333334 L 79.0 9.0 L 80.0 9.333333333333334 L 81.0 10.0 L 82.0 10.666666666666666 L 83.0 11.0 L 84.0 11.0 L 85.0 11.0 L 86.0 11.0 L 87.0 11.0 L 88.0 11.0 L 89.0 11.333333333333334 L 90.0 12.0 L 91.0 13.0 L 92.0 14.0 L 93.0 14.666666666666666 L 94.0 15.0 L 95.0 15.0 L 96.0 15.333333333333334 L 96.5 15.5 Z" stroke="none" fill="rgb(255,234,201)" />
<path d="M 21.0 33.5 L 21.333333333333332 33.0 L 21.666666666666668 32.0 L 22.0 31.0 L 22.333333333333332 30.0 L 22.666666666666668 29.0 L 23.333333333333332 28.0 L 23.666666666666668 27.0 L 24.0 26.0 L 24.0 25.0 L 23.666666666666668 24.0 L 23.333333333333332 23.0 L 23.0 22.0 L 23.0 21.0 L 23.0 20.0 L 23.0 19.0 L 23.0 18.0 L 23.0 17.0 L 23.333333333333332 16.0 L 23.666666666666668 15.0 L 24.0 14.0 L 24.333333333333332 13.0 L 25.0 12.333333333333334 L 25.666666666666668 11.666666666666666 L 26.333333333333332 11.0 L 27.0 10.333333333333334 L 27.666666666666668 9.666666666666666 L 28.0 9.0 L 28.0 8.0 L 27.666666666666668 7.0 L 27.0 6.333333333333333 L 26.0 6.0 L 25.0 6.0 L 24.0 6.0 L 23.0 6.0 L 22.0 6.333333333333333 L 21.0 6.666666666666667 L 20.0 7.333333333333333 L 19.0 8.0 L 18.0 9.0 L 17.333333333333332 10.0 L 16.666666666666668 11.0 L 16.333333333333332 12.0 L 16.0 13.0 L 16.0 14.0 L 16.0 15.0 L 16.0 16.0 L 16.333333333333332 17.0 L 17.0 18.0 L 18.0 18.666666666666668 L 19.0 19.333333333333332 L 19.666666666666668 20.0 L 20.0 21.0 L 19.666666666666668 22.0 L 19.0 23.0 L 18.0 24.0 L 17.0 25.0 L 16.0 26.0 L 15.0 27.0 L 14.0 28.0 L 13.0 29.0 L 12.333333333333334 30.0 L 11.666666666666666 31.0 L 11.333333333333334 32.0 L 10.666666666666666 33.0 L 10.333333333333334 34.0 L 10.0 35.0 L 10.0 36.0 L 10.0 37.0 L 10.0 38.0 L 10.333333333333334 39.0 L 11.0 40.0 L 12.0 40.666666666666664 L 13.0 41.0 L 14.0 41.0 L 15.0 40.666666666666664 L 16.0 40.0 L 17.0 39.0 L 18.0 38.0 L 19.0 37.0 L 19.666666666666668 36.0 L 20.333333333333332 35.0 L 20.5 34.5 Z" stroke="none" fill="rgb(162,41,17)" />
<path d="M 37.5 34.5 L 37.666666666666664 34.0 L 38.333333333333336 33.0 L 38.666666666666664 32.0 L 39.333333333333336 31.0 L 39.666666666666664 30.0 L 40.0 29.0 L 40.333333333333336 28.0 L 40.666666666666664 27.0 L 41.0 26.0 L 41.0 25.0 L 41.0 24.0 L 41.0 23.0 L 41.0 22.0 L 41.0 21.0 L 41.0 20.0 L 41.0 19.0 L 41.0 18.0 L 41.0 17.0 L 41.0 16.0 L 40.666666666666664 15.0 L 40.333333333333336 14.0 L 40.0 13.0 L 39.666666666666664 12.0 L 39.0 11.0 L 38.0 10.0 L 37.0 9.0 L 36.0 8.333333333333334 L 35.0 7.666666666666667 L 34.0 7.333333333333333 L 33.0 7.0 L 32.0 6.666666666666667 L 31.0 6.333333333333333 L 30.0 6.0 L 29.0 6.0 L 28.333333333333332 6.333333333333333 L 28.0 7.0 L 28.333333333333332 7.666666666666667 L 29.0 8.333333333333334 L 30.0 8.666666666666666 L 31.0 9.333333333333334 L 32.0 9.666666666666666 L 33.0 10.333333333333334 L 34.0 11.0 L 35.0 12.0 L 36.0 13.0 L 37.0 13.666666666666666 L 38.0 14.333333333333334 L 38.666666666666664 15.0 L 39.0 16.0 L 39.0 17.0 L 39.0 18.0 L 39.0 19.0 L 39.0 20.0 L 38.666666666666664 21.0 L 38.333333333333336 22.0 L 37.666666666666664 23.0 L 37.333333333333336 24.0 L 36.666666666666664 25.0 L 36.333333333333336 26.0 L 35.666666666666664 27.0 L 35.0 28.0 L 34.0 29.0 L 33.0 29.666666666666668 L 32.0 30.333333333333332 L 31.0 31.0 L 30.333333333333332 32.0 L 30.0 33.0 L 30.333333333333332 34.0 L 30.666666666666668 35.0 L 31.0 36.0 L 31.0 37.0 L 31.333333333333332 38.0 L 32.0 38.666666666666664 L 33.0 39.0 L 33.666666666666664 38.666666666666664 L 34.333333333333336 38.0 L 35.0 37.0 L 36.0 36.0 L 36.5 35.5 Z" stroke="none" fill="rgb(252,93,91)" />
<path d="M 34.5 27.5 L 35.0 27.0 L 36.0 26.333333333333332 L 36.666666666666664 25.666666666666668 L 37.333333333333336 25.0 L 37.666666666666664 24.0 L 38.333333333333336 23.0 L 38.666666666666664 22.0 L 39.0 21.0 L 39.0 20.0 L 39.0 19.0 L 39.0 18.0 L 38.666666666666664 17.0 L 38.0 16.0 L 37.333333333333336 15.0 L 37.0 14.0 L 36.666666666666664 13.0 L 36.0 12.0 L 35.0 11.0 L 34.0 10.333333333333334 L 33.0 9.666666666666666 L 32.0 9.333333333333334 L 31.0 8.666666666666666 L 30.0 8.333333333333334 L 29.0 8.0 L 28.333333333333332 8.333333333333334 L 28.0 9.0 L 28.333333333333332 10.0 L 29.0 10.666666666666666 L 30.0 11.0 L 31.0 11.333333333333334 L 32.0 11.666666666666666 L 33.0 12.333333333333334 L 34.0 13.0 L 34.666666666666664 14.0 L 35.333333333333336 15.0 L 35.666666666666664 16.0 L 36.0 17.0 L 36.0 18.0 L 36.0 19.0 L 36.0 20.0 L 35.666666666666664 21.0 L 35.333333333333336 22.0 L 34.666666666666664 23.0 L 34.333333333333336 24.0 L 33.666666666666664 25.0 L 33.0 26.0 L 32.0 27.0 L 31.0 28.0 L 30.0 28.666666666666668 L 29.333333333333332 29.333333333333332 L 29.0 30.0 L 29.333333333333332 31.0 L 30.0 31.666666666666668 L 31.0 31.666666666666668 L 31.666666666666668 31.0 L 32.333333333333336 30.0 L 33.0 29.0 L 33.5 28.5 Z" stroke="none" fill="rgb(211,111,120)" />
<path d="M 88.5 19.0 L 89.0 19.0 L 90.0 19.0 L 91.0 19.333333333333332 L 92.0 19.666666666666668 L 93.0 20.333333333333332 L 94.0 21.0 L 95.0 22.0 L 95.66666666666667 23.0 L 96.0 24.0 L 96.0 25.0 L 96.33333333333333 26.0 L 97.0 26.666666666666668 L 98.0 27.0 L 99.0 27.333333333333332 L 100.0 27.666666666666668 L 101.0 28.333333333333332 L 102.0 29.0 L 103.0 30.0 L 104.0 31.0 L 104.66666666666667 32.0 L 105.0 33.0 L 105.0 34.0 L 105.0 35.0 L 105.0 36.0 L 105.0 37.0 L 105.0 38.0 L 105.0 39.0 L 105.33333333333333 40.0 L 106.0 41.0 L 107.0 42.0 L 108.0 43.0 L 109.0 44.0 L 109.66666666666667 45.0 L 110.0 46.0 L 110.0 47.0 L 110.0 48.0 L 110.0 49.0 L 110.0 50.0 L 109.66666666666667 51.0 L 109.33333333333333 52.0 L 108.66666666666667 53.0 L 108.33333333333333 54.0 L 108.0 55.0 L 108.0 56.0 L 108.0 57.0 L 108.33333333333333 58.0 L 108.66666666666667 59.0 L 109.0 60.0 L 109.0 61.0 L 109.0 62.0 L 109.0 63.0 L 108.66666666666667 64.0 L 108.0 65.0 L 107.0 66.0 L 106.0 67.0 L 105.0 68.0 L 104.0 69.0 L 103.33333333333333 70.0 L 103.0 71.0 L 103.0 72.0 L 103.0 73.0 L 103.0 74.0 L 103.0 75.0 L 102.66666666666667 76.0 L 102.0 77.0 L 101.0 78.0 L 100.0 79.0 L 99.33333333333333 80.0 L 99.0 81.0 L 99.33333333333333 82.0 L 100.0 82.66666666666667 L 101.0 83.0 L 102.0 83.0 L 103.0 82.66666666666667 L 104.0 82.33333333333333 L 105.0 81.66666666666667 L 105.66666666666667 81.0 L 106.33333333333333 80.0 L 106.66666666666667 79.0 L 107.33333333333333 78.0 L 107.66666666666667 77.0 L 108.0 76.0 L 108.0 75.0 L 108.0 74.0 L 108.33333333333333 73.0 L 109.0 72.33333333333333 L 110.0 71.66666666666667 L 111.0 71.0 L 112.0 70.0 L 113.0 69.0 L 113.66666666666667 68.0 L 114.0 67.0 L 114.0 66.0 L 114.0 65.0 L 114.0 64.0 L 114.0 63.0 L 114.0 62.0 L 114.0 61.0 L 114.0 60.0 L 114.0 59.0 L 114.0 58.0 L 114.33333333333333 57.0 L 115.0 56.0 L 115.66666666666667 55.0 L 116.0 54.0 L 116.0 53.0 L 116.0 52.0 L 116.0 51.0 L 116.0 50.0 L 116.0 49.0 L 116.0 48.0 L 116.0 47.0 L 115.66666666666667 46.0 L 115.33333333333333 45.0 L 114.66666666666667 44.0 L 114.66666666666667 43.0 L 114.66666666666667 42.0 L 115.0 41.0 L 115.0 40.0 L 115.0 39.0 L 115.0 38.0 L 115.0 37.0 L 114.66666666666667 36.0 L 114.0 35.0 L 113.0 34.0 L 112.0 33.333333333333336 L 111.0 32.666666666666664 L 110.33333333333333 32.0 L 110.0 31.0 L 110.0 30.0 L 110.0 29.0 L 110.0 28.0 L 109.66666666666667 27.0 L 109.33333333333333 26.0 L 108.66666666666667 25.0 L 108.0 24.0 L 107.0 23.333333333333332 L 106.0 22.666666666666668 L 105.0 22.333333333333332 L 104.0 22.0 L 103.0 21.666666666666668 L 102.0 21.0 L 101.33333333333333 20.0 L 101.0 19.0 L 100.66666666666667 18.0 L 100.0 17.0 L 99.0 16.333333333333332 L 98.0 15.666666666666666 L 97.0 15.333333333333334 L 96.0 15.0 L 95.0 15.0 L 94.0 14.666666666666666 L 93.0 14.0 L 92.0 13.0 L 91.0 12.0 L 90.0 11.333333333333334 L 89.0 11.0 L 88.0 11.0 L 87.0 11.0 L 86.0 11.0 L 85.0 11.0 L 84.0 11.0 L 83.0 10.666666666666666 L 82.0 10.0 L 81.0 9.333333333333334 L 80.0 9.0 L 79.0 9.0 L 78.0 9.0 L 77.0 9.333333333333334 L 76.0 9.666666666666666 L 75.0 10.333333333333334 L 74.0 10.666666666666666 L 73.0 10.666666666666666 L 72.0 10.333333333333334 L 71.0 10.0 L 70.0 10.0 L 69.0 10.0 L 68.0 10.0 L 67.0 10.333333333333334 L 66.0 10.666666666666666 L 65.0 11.333333333333334 L 64.33333333333333 12.0 L 63.666666666666664 13.0 L 63.0 13.666666666666666 L 62.0 14.0 L 61.0 14.0 L 60.0 14.0 L 59.0 14.0 L 58.0 14.333333333333334 L 57.0 15.0 L 56.0 16.0 L 55.333333333333336 17.0 L 55.0 18.0 L 54.666666666666664 19.0 L 54.0 20.0 L 53.0 21.0 L 52.0 21.666666666666668 L 51.0 22.333333333333332 L 50.0 23.0 L 49.333333333333336 24.0 L 48.666666666666664 25.0 L 48.333333333333336 26.0 L 48.0 27.0 L 48.0 28.0 L 48.333333333333336 29.0 L 49.0 29.666666666666668 L 50.0 29.666666666666668 L 51.0 29.333333333333332 L 52.0 28.666666666666668 L 53.0 28.333333333333332 L 54.0 28.0 L 55.0 27.666666666666668 L 56.0 27.0 L 56.666666666666664 26.0 L 57.0 25.0 L 57.333333333333336 24.0 L 58.0 23.0 L 59.0 22.0 L 60.0 21.0 L 61.0 20.0 L 62.0 19.333333333333332 L 63.0 19.0 L 64.0 19.0 L 65.0 19.0 L 66.0 19.0 L 67.0 19.0 L 68.0 19.0 L 69.0 19.0 L 70.0 18.666666666666668 L 71.0 18.0 L 72.0 17.0 L 73.0 16.333333333333332 L 74.0 16.0 L 75.0 16.0 L 76.0 16.0 L 77.0 16.0 L 78.0 16.0 L 79.0 16.333333333333332 L 80.0 16.666666666666668 L 81.0 17.333333333333332 L 82.0 18.0 L 83.0 18.666666666666668 L 84.0 19.0 L 85.0 19.0 L 86.0 19.0 L 87.0 19.0 L 87.5 19.0 Z" stroke="none" fill="rgb(77,77,77)" />
<path d="M 30.5 13.0 L 31.0 13.333333333333334 L 32.0 14.0 L 33.0 15.0 L 33.666666666666664 16.0 L 34.333333333333336 17.0 L 35.0 17.666666666666668 L 35.666666666666664 17.666666666666668 L 36.0 17.0 L 36.0 16.0 L 35.666666666666664 15.0 L 35.333333333333336 14.0 L 34.666666666666664 13.0 L 34.0 12.333333333333334 L 33.0 11.666666666666666 L 32.0 11.333333333333334 L 31.0 11.0 L 30.0 10.666666666666666 L 29.0 10.333333333333334 L 28.0 10.0 L 27.0 10.0 L 26.333333333333332 10.333333333333334 L 26.0 11.0 L 26.333333333333332 11.666666666666666 L 27.0 12.0 L 28.0 12.0 L 29.0 12.333333333333334 L 29.5 12.5 Z" stroke="none" fill="rgb(189,121,136)" />
<path d="M 33.5 24.5 L 34.0 24.333333333333332 L 34.666666666666664 23.666666666666668 L 35.333333333333336 23.0 L 35.666666666666664 22.0 L 36.0 21.0 L 36.0 20.0 L 36.0 19.0 L 35.666666666666664 18.0 L 35.0 17.0 L 34.333333333333336 16.0 L 33.666666666666664 15.0 L 33.0 14.0 L 32.0 13.333333333333334 L 31.0 12.666666666666666 L 30.0 12.333333333333334 L 29.0 12.0 L 28.0 12.0 L 27.0 12.0 L 26.0 12.0 L 25.0 12.0 L 24.333333333333332 12.333333333333334 L 24.0 13.0 L 24.333333333333332 13.666666666666666 L 25.0 14.0 L 26.0 14.0 L 27.0 14.333333333333334 L 28.0 14.666666666666666 L 29.0 15.0 L 30.0 15.333333333333334 L 31.0 16.0 L 32.0 17.0 L 32.666666666666664 18.0 L 33.0 19.0 L 32.666666666666664 20.0 L 32.333333333333336 21.0 L 31.666666666666668 22.0 L 31.333333333333332 23.0 L 30.666666666666668 24.0 L 30.0 25.0 L 29.0 25.666666666666668 L 28.0 26.333333333333332 L 27.333333333333332 27.0 L 27.0 28.0 L 27.333333333333332 29.0 L 28.0 29.666666666666668 L 28.666666666666668 29.666666666666668 L 29.333333333333332 29.0 L 30.0 28.0 L 31.0 27.0 L 32.0 26.0 L 32.5 25.5 Z" stroke="none" fill="rgb(165,132,154)" />
<path d="M 26.5 17.0 L 27.0 16.666666666666668 L 27.666666666666668 16.0 L 28.0 15.0 L 27.666666666666668 14.333333333333334 L 27.0 14.0 L 26.0 14.0 L 25.0 14.0 L 24.0 14.333333333333334 L 23.333333333333332 15.0 L 23.0 16.0 L 23.333333333333332 16.666666666666668 L 24.0 16.666666666666668 L 25.0 16.666666666666668 L 25.5 16.5 Z" stroke="none" fill="rgb(134,144,174)" />
<path d="M 39.0 16.5 L 39.0 16.0 L 39.0 15.0 L 38.666666666666664 14.333333333333334 L 38.0 14.0 L 37.333333333333336 14.333333333333334 L 37.0 15.0 L 37.333333333333336 16.0 L 38.0 16.666666666666668 L 38.5 17.0 Z" stroke="none" fill="rgb(232,102,105)" />
<path d="M 30.5 23.0 L 31.0 23.0 L 31.666666666666668 22.666666666666668 L 32.333333333333336 22.0 L 32.666666666666664 21.0 L 33.0 20.0 L 33.0 19.0 L 33.0 18.0 L 32.666666666666664 17.0 L 32.0 16.0 L 31.0 15.333333333333334 L 30.0 15.0 L 29.0 15.0 L 28.0 15.333333333333334 L 27.0 16.0 L 26.333333333333332 17.0 L 26.0 18.0 L 26.0 19.0 L 26.0 20.0 L 26.333333333333332 21.0 L 27.0 22.0 L 28.0 22.666666666666668 L 29.0 23.0 L 29.5 23.0 Z" stroke="none" fill="rgb(1,4,7)" />
<path d="M 26.5 25.0 L 27.0 25.0 L 28.0 24.666666666666668 L 28.666666666666668 24.0 L 28.666666666666668 23.0 L 28.0 22.0 L 27.0 21.0 L 26.333333333333332 20.0 L 26.0 19.0 L 26.0 18.0 L 26.0 17.0 L 25.666666666666668 16.333333333333332 L 25.0 16.0 L 24.0 16.333333333333332 L 23.333333333333332 17.0 L 23.0 18.0 L 23.0 19.0 L 23.0 20.0 L 23.0 21.0 L 23.0 22.0 L 23.0 23.0 L 23.333333333333332 24.0 L 24.0 24.666666666666668 L 25.0 25.0 L 25.5 25.0 Z" stroke="none" fill="rgb(101,157,196)" />
<path d="M 105.5 68.5 L 106.0 68.0 L 107.0 67.0 L 108.0 66.0 L 108.66666666666667 65.0 L 109.0 64.0 L 109.0 63.0 L 109.0 62.0 L 109.0 61.0 L 109.0 60.0 L 109.0 59.0 L 108.66666666666667 58.0 L 108.33333333333333 57.0 L 108.0 56.0 L 108.33333333333333 55.0 L 108.66666666666667 54.0 L 109.33333333333333 53.0 L 109.66666666666667 52.0 L 110.0 51.0 L 110.0 50.0 L 110.0 49.0 L 110.0 48.0 L 110.0 47.0 L 110.0 46.0 L 110.0 45.0 L 109.66666666666667 44.0 L 109.0 43.0 L 108.0 42.0 L 107.0 41.0 L 106.0 40.0 L 105.33333333333333 39.0 L 105.0 38.0 L 105.0 37.0 L 105.0 36.0 L 105.0 35.0 L 105.0 34.0 L 105.0 33.0 L 105.0 32.0 L 104.66666666666667 31.0 L 104.0 30.0 L 103.0 29.0 L 102.0 28.333333333333332 L 101.0 27.666666666666668 L 100.0 27.333333333333332 L 99.0 27.0 L 98.0 26.666666666666668 L 97.0 26.0 L 96.33333333333333 25.0 L 96.0 24.0 L 96.0 23.0 L 95.66666666666667 22.0 L 95.0 21.0 L 94.0 20.333333333333332 L 93.0 19.666666666666668 L 92.0 19.333333333333332 L 91.0 19.0 L 90.0 19.0 L 89.0 19.0 L 88.0 19.0 L 87.0 19.0 L 86.0 19.0 L 85.0 19.0 L 84.0 18.666666666666668 L 83.0 18.0 L 82.0 17.333333333333332 L 81.0 16.666666666666668 L 80.0 16.333333333333332 L 79.0 16.0 L 78.0 16.0 L 77.0 16.0 L 76.0 16.0 L 75.0 16.0 L 74.0 16.0 L 73.0 16.0 L 72.0 16.333333333333332 L 71.0 17.0 L 70.0 18.0 L 69.0 18.666666666666668 L 68.0 19.0 L 67.0 19.0 L 66.0 19.0 L 65.0 19.0 L 64.0 19.0 L 63.0 19.0 L 62.0 19.0 L 61.0 19.333333333333332 L 60.0 20.0 L 59.0 21.0 L 58.0 22.0 L 57.333333333333336 23.0 L 57.0 24.0 L 56.666666666666664 25.0 L 56.0 26.0 L 55.0 27.0 L 54.0 27.666666666666668 L 53.0 28.0 L 52.0 28.333333333333332 L 51.0 28.666666666666668 L 50.0 29.333333333333332 L 49.0 30.0 L 48.0 31.0 L 47.333333333333336 32.0 L 46.666666666666664 33.0 L 46.333333333333336 34.0 L 46.0 35.0 L 46.0 36.0 L 46.0 37.0 L 46.0 38.0 L 46.0 39.0 L 46.0 40.0 L 46.333333333333336 40.666666666666664 L 47.0 41.0 L 48.0 41.0 L 49.0 41.0 L 49.666666666666664 40.666666666666664 L 50.0 40.0 L 50.0 39.0 L 50.0 38.0 L 50.0 37.0 L 50.333333333333336 36.0 L 51.0 35.0 L 52.0 34.0 L 53.0 33.0 L 54.0 32.333333333333336 L 55.0 32.0 L 56.0 32.0 L 57.0 32.0 L 58.0 31.666666666666668 L 58.666666666666664 31.0 L 59.0 30.0 L 59.333333333333336 29.0 L 60.0 28.0 L 61.0 27.0 L 62.0 26.0 L 63.0 25.333333333333332 L 64.0 25.0 L 65.0 24.666666666666668 L 66.0 24.333333333333332 L 67.0 24.333333333333332 L 68.0 24.666666666666668 L 69.0 25.0 L 70.0 25.0 L 71.0 24.666666666666668 L 72.0 24.0 L 73.0 23.0 L 74.0 22.333333333333332 L 75.0 21.666666666666668 L 76.0 21.333333333333332 L 77.0 21.333333333333332 L 78.0 21.666666666666668 L 79.0 22.333333333333332 L 80.0 23.0 L 81.0 24.0 L 82.0 24.666666666666668 L 83.0 25.0 L 84.0 25.0 L 85.0 25.0 L 86.0 25.0 L 87.0 25.0 L 88.0 25.0 L 89.0 25.0 L 90.0 25.333333333333332 L 91.0 26.0 L 92.0 27.0 L 92.66666666666667 28.0 L 93.0 29.0 L 93.0 30.0 L 93.0 31.0 L 93.33333333333333 31.666666666666668 L 94.0 32.0 L 95.0 32.0 L 96.0 32.333333333333336 L 97.0 32.666666666666664 L 98.0 33.333333333333336 L 99.0 34.0 L 100.0 35.0 L 100.66666666666667 36.0 L 101.0 37.0 L 101.0 38.0 L 101.0 39.0 L 100.66666666666667 40.0 L 100.33333333333333 41.0 L 100.0 42.0 L 100.33333333333333 43.0 L 101.0 43.666666666666664 L 102.0 44.333333333333336 L 103.0 45.0 L 103.66666666666667 46.0 L 104.33333333333333 47.0 L 104.66666666666667 48.0 L 105.0 49.0 L 105.0 50.0 L 104.66666666666667 51.0 L 104.0 52.0 L 103.33333333333333 53.0 L 103.0 54.0 L 103.0 55.0 L 103.33333333333333 56.0 L 103.66666666666667 57.0 L 104.0 58.0 L 104.0 59.0 L 104.0 60.0 L 104.0 61.0 L 104.0 62.0 L 103.66666666666667 63.0 L 103.0 64.0 L 102.0 65.0 L 101.0 66.0 L 100.33333333333333 67.0 L 100.0 68.0 L 100.0 69.0 L 100.0 70.0 L 99.66666666666667 71.0 L 99.33333333333333 72.0 L 98.66666666666667 73.0 L 98.33333333333333 74.0 L 98.33333333333333 75.0 L 98.66666666666667 76.0 L 99.0 77.0 L 99.33333333333333 78.0 L 100.0 78.66666666666667 L 101.0 78.66666666666667 L 102.0 78.0 L 102.66666666666667 77.0 L 103.0 76.0 L 103.0 75.0 L 103.0 74.0 L 103.0 73.0 L 103.0 72.0 L 103.33333333333333 71.0 L 104.0 70.0 L 104.5 69.5 Z" stroke="none" fill="rgb(132,91,82)" />
<path d="M 17.5 24.5 L 18.0 24.333333333333332 L 19.0 23.666666666666668 L 19.666666666666668 23.0 L 20.0 22.0 L 20.0 21.0 L 20.0 20.0 L 19.666666666666668 19.333333333333332 L 19.0 18.666666666666668 L 18.0 18.0 L 17.0 17.333333333333332 L 16.0 17.0 L 15.0 17.333333333333332 L 14.0 18.0 L 13.0 19.0 L 12.0 20.0 L 11.0 21.0 L 10.333333333333334 22.0 L 9.666666666666666 23.0 L 9.0 24.0 L 8.333333333333334 25.0 L 8.0 26.0 L 8.333333333333334 26.666666666666668 L 9.0 27.0 L 10.0 27.0 L 11.0 27.0 L 12.0 27.0 L 13.0 26.666666666666668 L 14.0 26.333333333333332 L 15.0 25.666666666666668 L 16.0 25.333333333333332 L 16.5 25.0 Z" stroke="none" fill="rgb(134,133,132)" />
<path d="M 105.0 51.5 L 105.0 51.0 L 105.0 50.0 L 105.0 49.0 L 105.0 48.0 L 104.66666666666667 47.0 L 104.33333333333333 46.0 L 103.66666666666667 45.0 L 103.0 44.333333333333336 L 102.0 43.666666666666664 L 101.0 43.0 L 100.66666666666667 42.0 L 100.66666666666667 41.0 L 101.0 40.0 L 101.0 39.0 L 101.0 38.0 L 101.0 37.0 L 101.0 36.0 L 100.66666666666667 35.0 L 100.0 34.0 L 99.0 33.333333333333336 L 98.0 32.666666666666664 L 97.0 32.333333333333336 L 96.0 32.0 L 95.0 32.0 L 94.0 31.666666666666668 L 93.33333333333333 31.0 L 93.0 30.0 L 93.0 29.0 L 93.0 28.0 L 92.66666666666667 27.0 L 92.0 26.0 L 91.0 25.333333333333332 L 90.0 25.0 L 89.0 25.0 L 88.0 25.0 L 87.0 25.0 L 86.0 25.0 L 85.0 25.0 L 84.0 25.0 L 83.0 24.666666666666668 L 82.0 24.0 L 81.0 23.0 L 80.0 22.333333333333332 L 79.0 21.666666666666668 L 78.0 21.333333333333332 L 77.0 21.0 L 76.0 21.0 L 75.0 21.333333333333332 L 74.0 21.666666666666668 L 73.0 22.333333333333332 L 72.0 23.0 L 71.0 24.0 L 70.0 24.666666666666668 L 69.0 24.666666666666668 L 68.0 24.333333333333332 L 67.0 24.0 L 66.0 24.0 L 65.0 24.333333333333332 L 64.0 24.666666666666668 L 63.0 25.0 L 62.0 25.333333333333332 L 61.0 26.0 L 60.0 27.0 L 59.333333333333336 28.0 L 59.0 29.0 L 58.666666666666664 30.0 L 58.0 31.0 L 57.0 31.666666666666668 L 56.0 32.0 L 55.0 32.0 L 54.0 32.0 L 53.0 32.333333333333336 L 52.0 33.0 L 51.0 34.0 L 50.333333333333336 35.0 L 50.0 36.0 L 50.0 37.0 L 50.0 38.0 L 50.0 39.0 L 50.0 40.0 L 50.333333333333336 40.666666666666664 L 51.0 41.0 L 52.0 40.666666666666664 L 52.666666666666664 40.0 L 53.333333333333336 39.0 L 54.0 38.0 L 55.0 37.0 L 56.0 36.333333333333336 L 57.0 35.666666666666664 L 58.0 35.333333333333336 L 59.0 35.0 L 60.0 35.0 L 61.0 35.0 L 62.0 35.0 L 63.0 35.0 L 64.0 35.0 L 65.0 35.0 L 66.0 35.0 L 67.0 34.666666666666664 L 68.0 34.0 L 69.0 33.333333333333336 L 70.0 32.666666666666664 L 71.0 32.333333333333336 L 72.0 32.0 L 73.0 32.0 L 74.0 32.0 L 75.0 32.0 L 76.0 32.0 L 77.0 32.333333333333336 L 78.0 33.0 L 79.0 34.0 L 80.0 35.0 L 80.66666666666667 36.0 L 81.33333333333333 37.0 L 82.0 37.666666666666664 L 83.0 38.0 L 84.0 38.0 L 85.0 38.333333333333336 L 86.0 38.666666666666664 L 87.0 39.333333333333336 L 88.0 40.0 L 89.0 41.0 L 90.0 42.0 L 91.0 43.0 L 92.0 44.0 L 92.66666666666667 45.0 L 93.0 46.0 L 93.0 47.0 L 93.0 48.0 L 93.0 49.0 L 93.0 50.0 L 93.0 51.0 L 93.0 52.0 L 93.0 53.0 L 93.33333333333333 54.0 L 94.0 55.0 L 95.0 56.0 L 95.66666666666667 57.0 L 96.0 58.0 L 96.0 59.0 L 96.33333333333333 60.0 L 96.66666666666667 61.0 L 97.0 62.0 L 97.0 63.0 L 96.66666666666667 64.0 L 96.33333333333333 65.0 L 95.66666666666667 66.0 L 95.33333333333333 67.0 L 94.66666666666667 68.0 L 94.0 68.66666666666667 L 93.0 69.0 L 92.0 69.0 L 91.0 68.66666666666667 L 90.0 68.33333333333333 L 89.0 68.0 L 88.0 68.0 L 87.0 68.33333333333333 L 86.0 68.66666666666667 L 85.0 69.33333333333333 L 84.0 69.66666666666667 L 83.0 70.33333333333333 L 82.33333333333333 71.0 L 82.0 72.0 L 82.33333333333333 73.0 L 83.0 73.66666666666667 L 84.0 74.0 L 85.0 73.66666666666667 L 86.0 73.0 L 87.0 72.33333333333333 L 88.0 72.0 L 89.0 72.0 L 90.0 72.0 L 91.0 72.0 L 92.0 72.0 L 93.0 72.0 L 94.0 72.0 L 95.0 72.33333333333333 L 96.0 73.0 L 97.0 73.66666666666667 L 98.0 74.0 L 98.66666666666667 73.66666666666667 L 99.33333333333333 73.0 L 99.66666666666667 72.0 L 100.0 71.0 L 100.0 70.0 L 100.0 69.0 L 100.33333333333333 68.0 L 101.0 67.0 L 102.0 66.0 L 103.0 65.0 L 103.66666666666667 64.0 L 104.0 63.0 L 104.0 62.0 L 104.0 61.0 L 104.0 60.0 L 104.0 59.0 L 104.0 58.0 L 104.0 57.0 L 103.66666666666667 56.0 L 103.33333333333333 55.0 L 103.33333333333333 54.0 L 104.0 53.0 L 104.5 52.5 Z" stroke="none" fill="rgb(183,146,119)" />
<path d="M 30.5 25.5 L 30.666666666666668 25.0 L 31.0 24.0 L 30.666666666666668 23.333333333333332 L 30.0 23.0 L 29.0 23.333333333333332 L 28.0 24.0 L 27.0 24.666666666666668 L 26.0 25.0 L 25.0 25.0 L 24.333333333333332 25.333333333333332 L 24.0 26.0 L 24.333333333333332 27.0 L 25.0 27.666666666666668 L 26.0 28.0 L 27.0 27.666666666666668 L 28.0 27.0 L 29.0 26.333333333333332 L 29.5 26.0 Z" stroke="none" fill="rgb(134,144,174)" />
<path d="M 17.5 25.0 L 17.666666666666668 24.666666666666668 L 17.666666666666668 24.333333333333332 L 17.333333333333332 24.333333333333332 L 17.0 24.5 Z" stroke="none" fill="rgb(0,0,0)" />
<path d="M 33.5 26.5 L 33.666666666666664 26.0 L 34.0 25.0 L 33.666666666666664 24.333333333333332 L 33.0 24.333333333333332 L 32.0 25.0 L 31.0 26.0 L 30.0 27.0 L 29.333333333333332 28.0 L 29.333333333333332 28.666666666666668 L 30.0 29.0 L 31.0 28.666666666666668 L 32.0 28.0 L 32.5 27.5 Z" stroke="none" fill="rgb(189,121,136)" />
<path d="M 33.5 30.0 L 34.0 29.666666666666668 L 35.0 29.0 L 35.666666666666664 28.0 L 36.0 27.0 L 35.666666666666664 26.333333333333332 L 35.0 26.333333333333332 L 34.0 27.0 L 33.0 28.0 L 32.333333333333336 29.0 L 32.333333333333336 29.666666666666668 L 32.5 30.0 Z" stroke="none" fill="rgb(232,102,105)" />
<path d="M 23.5 54.5 L 24.0 54.0 L 25.0 53.0 L 26.0 52.0 L 26.666666666666668 51.0 L 27.333333333333332 50.0 L 28.0 49.0 L 28.666666666666668 48.0 L 29.333333333333332 47.0 L 29.666666666666668 46.0 L 30.333333333333332 45.0 L 30.666666666666668 44.0 L 31.0 43.0 L 31.0 42.0 L 31.333333333333332 41.0 L 31.666666666666668 40.0 L 32.0 39.0 L 31.666666666666668 38.0 L 31.333333333333332 37.0 L 31.0 36.0 L 31.0 35.0 L 30.666666666666668 34.0 L 30.333333333333332 33.0 L 30.0 32.0 L 29.666666666666668 31.0 L 29.0 30.0 L 28.0 29.0 L 27.0 28.333333333333332 L 26.0 27.666666666666668 L 25.0 27.333333333333332 L 24.0 27.0 L 23.333333333333332 27.333333333333332 L 22.666666666666668 28.0 L 22.333333333333332 29.0 L 22.0 30.0 L 21.666666666666668 31.0 L 21.333333333333332 32.0 L 20.666666666666668 33.0 L 20.333333333333332 34.0 L 19.666666666666668 35.0 L 19.0 36.0 L 18.0 37.0 L 17.0 38.0 L 16.0 39.0 L 15.0 40.0 L 14.0 40.666666666666664 L 13.333333333333334 41.333333333333336 L 12.666666666666666 42.0 L 12.0 43.0 L 11.0 44.0 L 10.0 45.0 L 9.333333333333334 46.0 L 8.666666666666666 47.0 L 8.333333333333334 48.0 L 8.0 49.0 L 8.0 50.0 L 8.0 51.0 L 8.0 52.0 L 8.0 53.0 L 8.0 54.0 L 8.333333333333334 55.0 L 9.0 56.0 L 10.0 56.666666666666664 L 11.0 57.333333333333336 L 12.0 57.666666666666664 L 13.0 58.0 L 14.0 58.0 L 15.0 58.0 L 16.0 58.0 L 17.0 57.666666666666664 L 18.0 57.333333333333336 L 19.0 57.0 L 20.0 56.666666666666664 L 21.0 56.333333333333336 L 22.0 55.666666666666664 L 22.5 55.5 Z" stroke="none" fill="rgb(254,34,25)" />
<path d="M 59.5 71.0 L 60.0 70.66666666666667 L 61.0 70.0 L 61.666666666666664 69.0 L 62.0 68.0 L 61.666666666666664 67.0 L 61.0 66.33333333333333 L 60.0 66.0 L 59.0 65.66666666666667 L 58.0 65.33333333333333 L 57.0 65.0 L 56.0 65.0 L 55.0 64.66666666666667 L 54.0 64.33333333333333 L 53.0 64.0 L 52.0 63.666666666666664 L 51.0 63.333333333333336 L 50.0 62.666666666666664 L 49.0 62.333333333333336 L 48.0 61.666666666666664 L 47.0 61.0 L 46.0 60.0 L 45.0 59.0 L 44.666666666666664 58.0 L 45.0 57.333333333333336 L 46.0 57.0 L 47.0 57.0 L 48.0 57.333333333333336 L 49.0 57.666666666666664 L 50.0 58.0 L 51.0 58.333333333333336 L 52.0 58.666666666666664 L 53.0 59.0 L 54.0 59.0 L 55.0 59.333333333333336 L 56.0 59.666666666666664 L 57.0 60.0 L 58.0 60.0 L 59.0 60.333333333333336 L 60.0 60.666666666666664 L 61.0 61.0 L 62.0 61.0 L 63.0 61.0 L 64.0 61.333333333333336 L 65.0 61.666666666666664 L 66.0 62.0 L 67.0 62.0 L 68.0 62.0 L 69.0 62.0 L 70.0 62.333333333333336 L 71.0 63.0 L 72.0 63.666666666666664 L 73.0 64.0 L 74.0 64.0 L 75.0 64.0 L 76.0 64.0 L 77.0 64.0 L 78.0 64.0 L 79.0 64.0 L 80.0 64.0 L 81.0 64.33333333333333 L 82.0 64.66666666666667 L 83.0 65.33333333333333 L 84.0 65.66666666666667 L 85.0 66.33333333333333 L 86.0 67.0 L 87.0 67.66666666666667 L 88.0 68.0 L 89.0 68.33333333333333 L 90.0 68.66666666666667 L 91.0 69.0 L 92.0 69.33333333333333 L 93.0 69.66666666666667 L 94.0 69.66666666666667 L 94.66666666666667 69.0 L 95.33333333333333 68.0 L 95.66666666666667 67.0 L 96.33333333333333 66.0 L 96.66666666666667 65.0 L 97.0 64.0 L 97.0 63.0 L 97.0 62.0 L 97.0 61.0 L 96.66666666666667 60.0 L 96.33333333333333 59.0 L 96.0 58.0 L 96.0 57.0 L 95.66666666666667 56.0 L 95.0 55.0 L 94.0 54.0 L 93.33333333333333 53.0 L 93.0 52.0 L 93.0 51.0 L 93.0 50.0 L 93.0 49.0 L 93.0 48.0 L 93.0 47.0 L 93.0 46.0 L 93.0 45.0 L 92.66666666666667 44.0 L 92.0 43.0 L 91.0 42.0 L 90.0 41.0 L 89.0 40.0 L 88.0 39.333333333333336 L 87.0 38.666666666666664 L 86.0 38.333333333333336 L 85.0 38.0 L 84.0 38.0 L 83.0 37.666666666666664 L 82.0 37.0 L 81.33333333333333 36.0 L 80.66666666666667 35.0 L 80.0 34.0 L 79.0 33.0 L 78.0 32.333333333333336 L 77.0 32.0 L 76.0 32.0 L 75.0 32.0 L 74.0 32.0 L 73.0 32.0 L 72.0 32.0 L 71.0 32.0 L 70.0 32.333333333333336 L 69.0 32.666666666666664 L 68.0 33.333333333333336 L 67.0 34.0 L 66.0 34.666666666666664 L 65.0 35.0 L 64.0 35.0 L 63.0 35.0 L 62.0 35.0 L 61.0 35.0 L 60.0 35.0 L 59.0 35.0 L 58.0 35.0 L 57.0 35.333333333333336 L 56.0 35.666666666666664 L 55.0 36.333333333333336 L 54.0 37.0 L 53.333333333333336 38.0 L 52.666666666666664 39.0 L 52.0 40.0 L 51.0 40.666666666666664 L 50.0 41.0 L 49.0 41.0 L 48.0 41.0 L 47.0 41.0 L 46.0 41.333333333333336 L 45.0 41.666666666666664 L 44.0 42.0 L 43.0 42.0 L 42.0 42.0 L 41.0 42.333333333333336 L 40.0 42.666666666666664 L 39.0 43.333333333333336 L 38.0 43.666666666666664 L 37.0 44.333333333333336 L 36.0 44.666666666666664 L 35.0 45.333333333333336 L 34.0 46.0 L 33.0 46.666666666666664 L 32.0 47.333333333333336 L 31.333333333333332 48.0 L 30.666666666666668 49.0 L 30.0 50.0 L 29.333333333333332 51.0 L 29.0 52.0 L 28.666666666666668 53.0 L 28.0 54.0 L 27.333333333333332 55.0 L 27.0 56.0 L 27.0 57.0 L 26.666666666666668 58.0 L 26.333333333333332 59.0 L 26.0 60.0 L 26.0 61.0 L 26.0 62.0 L 26.0 63.0 L 25.666666666666668 64.0 L 25.333333333333332 65.0 L 25.333333333333332 66.0 L 25.666666666666668 67.0 L 26.0 68.0 L 26.333333333333332 69.0 L 26.666666666666668 70.0 L 27.333333333333332 71.0 L 27.666666666666668 72.0 L 28.333333333333332 73.0 L 29.0 74.0 L 30.0 75.0 L 31.0 76.0 L 32.0 77.0 L 33.0 78.0 L 34.0 78.66666666666667 L 35.0 79.33333333333333 L 36.0 79.66666666666667 L 37.0 80.0 L 38.0 80.0 L 39.0 80.0 L 40.0 80.0 L 41.0 80.0 L 42.0 80.0 L 43.0 80.0 L 44.0 80.0 L 45.0 80.0 L 46.0 79.66666666666667 L 47.0 79.33333333333333 L 48.0 78.66666666666667 L 49.0 78.33333333333333 L 50.0 77.66666666666667 L 51.0 77.0 L 52.0 76.33333333333333 L 53.0 75.66666666666667 L 54.0 75.0 L 55.0 74.33333333333333 L 56.0 73.66666666666667 L 57.0 73.0 L 58.0 72.0 L 58.5 71.5 Z" stroke="none" fill="rgb(77,77,77)" />
<path d="M 72.5 104.0 L 73.0 104.0 L 74.0 104.0 L 75.0 104.0 L 76.0 104.0 L 77.0 104.0 L 78.0 103.66666666666667 L 79.0 103.33333333333333 L 80.0 103.0 L 81.0 103.0 L 82.0 102.66666666666667 L 83.0 102.33333333333333 L 84.0 102.0 L 85.0 101.66666666666667 L 86.0 101.33333333333333 L 87.0 101.0 L 88.0 100.66666666666667 L 89.0 100.33333333333333 L 90.0 99.66666666666667 L 91.0 99.33333333333333 L 92.0 99.0 L 92.66666666666667 98.66666666666667 L 93.0 98.0 L 92.66666666666667 97.0 L 92.33333333333333 96.0 L 92.0 95.0 L 92.0 94.0 L 92.0 93.0 L 92.33333333333333 92.0 L 92.66666666666667 91.0 L 92.66666666666667 90.0 L 92.33333333333333 89.0 L 92.0 88.0 L 92.0 87.0 L 91.66666666666667 86.0 L 91.0 85.0 L 90.33333333333333 84.0 L 90.0 83.0 L 90.0 82.0 L 90.0 81.0 L 89.66666666666667 80.0 L 89.0 79.0 L 88.0 78.0 L 87.0 77.0 L 86.0 76.0 L 85.0 75.0 L 84.0 74.0 L 83.0 73.0 L 82.0 72.33333333333333 L 81.0 71.66666666666667 L 80.0 71.33333333333333 L 79.0 70.66666666666667 L 78.0 70.0 L 77.0 69.33333333333333 L 76.0 68.66666666666667 L 75.0 68.33333333333333 L 74.0 68.0 L 73.0 67.66666666666667 L 72.0 67.33333333333333 L 71.0 67.0 L 70.0 67.33333333333333 L 69.0 68.0 L 68.0 69.0 L 67.33333333333333 70.0 L 66.66666666666667 71.0 L 66.0 72.0 L 65.33333333333333 73.0 L 64.66666666666667 74.0 L 64.0 75.0 L 63.0 76.0 L 62.333333333333336 77.0 L 61.666666666666664 78.0 L 61.0 79.0 L 60.0 80.0 L 59.0 81.0 L 58.0 82.0 L 57.0 83.0 L 56.0 84.0 L 55.0 85.0 L 54.0 86.0 L 53.0 87.0 L 52.0 87.66666666666667 L 51.0 88.33333333333333 L 50.0 88.66666666666667 L 49.0 89.0 L 48.0 89.33333333333333 L 47.0 89.66666666666667 L 46.0 90.0 L 45.0 90.0 L 44.0 90.0 L 43.0 90.0 L 42.0 90.0 L 41.0 90.0 L 40.0 89.66666666666667 L 39.0 89.33333333333333 L 38.0 89.0 L 37.0 89.0 L 36.0 88.66666666666667 L 35.0 88.33333333333333 L 34.0 87.66666666666667 L 33.0 87.0 L 32.0 86.0 L 31.0 85.0 L 30.0 84.0 L 29.0 83.0 L 28.0 82.0 L 27.333333333333332 81.0 L 26.666666666666668 80.0 L 26.0 79.0 L 25.333333333333332 78.0 L 24.666666666666668 77.0 L 24.333333333333332 76.0 L 24.0 75.0 L 23.666666666666668 74.0 L 23.333333333333332 73.0 L 23.0 72.0 L 23.0 71.0 L 23.0 70.0 L 23.0 69.0 L 23.0 68.0 L 23.0 67.0 L 23.333333333333332 66.0 L 24.0 65.33333333333333 L 25.0 65.0 L 25.666666666666668 64.66666666666667 L 26.0 64.0 L 26.0 63.0 L 26.0 62.0 L 26.0 61.0 L 26.333333333333332 60.0 L 26.666666666666668 59.0 L 27.0 58.0 L 27.0 57.0 L 27.333333333333332 56.0 L 28.0 55.0 L 28.666666666666668 54.0 L 29.0 53.0 L 29.333333333333332 52.0 L 30.0 51.0 L 30.666666666666668 50.0 L 31.333333333333332 49.0 L 31.666666666666668 48.0 L 32.0 47.0 L 32.0 46.0 L 32.333333333333336 45.0 L 32.666666666666664 44.0 L 33.0 43.0 L 33.0 42.0 L 33.0 41.0 L 33.0 40.0 L 32.666666666666664 39.333333333333336 L 32.0 39.333333333333336 L 31.333333333333332 40.0 L 31.0 41.0 L 31.0 42.0 L 30.666666666666668 43.0 L 30.333333333333332 44.0 L 29.666666666666668 45.0 L 29.333333333333332 46.0 L 28.666666666666668 47.0 L 28.0 48.0 L 27.333333333333332 49.0 L 26.666666666666668 50.0 L 26.0 51.0 L 25.0 52.0 L 24.0 53.0 L 23.0 54.0 L 22.0 55.0 L 21.0 55.666666666666664 L 20.0 56.333333333333336 L 19.0 56.666666666666664 L 18.0 57.0 L 17.0 57.333333333333336 L 16.0 57.666666666666664 L 15.0 58.0 L 14.0 58.0 L 13.0 58.0 L 12.0 58.333333333333336 L 11.333333333333334 59.0 L 11.0 60.0 L 11.0 61.0 L 11.0 62.0 L 11.0 63.0 L 11.0 64.0 L 11.0 65.0 L 11.333333333333334 66.0 L 11.666666666666666 67.0 L 12.0 68.0 L 12.0 69.0 L 12.0 70.0 L 12.0 71.0 L 12.333333333333334 72.0 L 12.666666666666666 73.0 L 13.0 74.0 L 13.333333333333334 75.0 L 13.666666666666666 76.0 L 14.0 77.0 L 14.333333333333334 78.0 L 14.666666666666666 79.0 L 15.333333333333334 80.0 L 15.666666666666666 81.0 L 16.333333333333332 82.0 L 16.666666666666668 83.0 L 17.333333333333332 84.0 L 17.666666666666668 85.0 L 18.333333333333332 86.0 L 19.0 87.0 L 20.0 88.0 L 21.0 89.0 L 21.666666666666668 90.0 L 22.333333333333332 91.0 L 23.0 91.66666666666667 L 24.0 92.33333333333333 L 25.0 93.0 L 26.0 94.0 L 27.0 94.66666666666667 L 28.0 95.33333333333333 L 29.0 96.0 L 30.0 96.66666666666667 L 31.0 97.33333333333333 L 32.0 98.0 L 33.0 98.66666666666667 L 34.0 99.33333333333333 L 35.0 99.66666666666667 L 36.0 100.33333333333333 L 37.0 100.66666666666667 L 38.0 101.0 L 39.0 101.33333333333333 L 40.0 101.66666666666667 L 41.0 102.33333333333333 L 42.0 102.66666666666667 L 43.0 103.0 L 44.0 103.0 L 45.0 103.0 L 46.0 103.0 L 47.0 103.33333333333333 L 48.0 103.66666666666667 L 49.0 104.0 L 50.0 104.0 L 51.0 104.0 L 52.0 104.33333333333333 L 53.0 104.66666666666667 L 54.0 105.0 L 55.0 105.0 L 56.0 105.0 L 57.0 105.0 L 58.0 105.0 L 59.0 105.0 L 60.0 105.0 L 61.0 105.0 L 62.0 105.0 L 63.0 105.0 L 64.0 105.0 L 65.0 105.0 L 66.0 105.0 L 67.0 105.0 L 68.0 105.0 L 69.0 105.0 L 70.0 105.0 L 71.0 104.66666666666667 L 71.5 104.5 Z" stroke="none" fill="rgb(132,91,82)" />
<path d="M 53.5 64.5 L 54.0 64.66666666666667 L 55.0 65.0 L 56.0 65.0 L 57.0 65.33333333333333 L 58.0 65.66666666666667 L 59.0 66.0 L 60.0 66.33333333333333 L 61.0 67.0 L 62.0 67.66666666666667 L 63.0 68.0 L 64.0 68.0 L 65.0 67.66666666666667 L 66.0 67.33333333333333 L 67.0 67.0 L 68.0 67.33333333333333 L 69.0 67.66666666666667 L 69.66666666666667 67.66666666666667 L 70.0 67.0 L 70.33333333333333 66.0 L 71.0 65.33333333333333 L 71.66666666666667 64.66666666666667 L 72.0 64.0 L 71.66666666666667 63.0 L 71.0 62.333333333333336 L 70.0 62.0 L 69.0 62.0 L 68.0 62.0 L 67.0 62.0 L 66.0 61.666666666666664 L 65.0 61.333333333333336 L 64.0 61.0 L 63.0 61.0 L 62.0 61.0 L 61.0 60.666666666666664 L 60.0 60.333333333333336 L 59.0 60.0 L 58.0 60.0 L 57.0 59.666666666666664 L 56.0 59.333333333333336 L 55.0 59.0 L 54.0 59.0 L 53.0 58.666666666666664 L 52.0 58.333333333333336 L 51.0 58.0 L 50.0 57.666666666666664 L 49.0 57.333333333333336 L 48.0 57.0 L 47.0 57.0 L 46.0 57.0 L 45.0 57.0 L 44.333333333333336 57.333333333333336 L 44.0 58.0 L 44.333333333333336 59.0 L 45.0 60.0 L 46.0 61.0 L 47.0 61.666666666666664 L 48.0 62.333333333333336 L 49.0 62.666666666666664 L 50.0 63.333333333333336 L 51.0 63.666666666666664 L 52.0 64.0 L 52.5 64.0 Z" stroke="none" fill="rgb(1,4,7)" />
<path d="M 82.5 71.5 L 83.0 71.0 L 84.0 70.33333333333333 L 85.0 69.66666666666667 L 86.0 69.33333333333333 L 86.66666666666667 68.66666666666667 L 87.0 68.0 L 86.66666666666667 67.0 L 86.0 66.33333333333333 L 85.0 65.66666666666667 L 84.0 65.33333333333333 L 83.0 64.66666666666667 L 82.0 64.33333333333333 L 81.0 64.0 L 80.0 64.0 L 79.0 64.0 L 78.0 64.0 L 77.0 64.0 L 76.0 64.0 L 75.0 64.0 L 74.0 64.0 L 73.0 64.0 L 72.0 64.33333333333333 L 71.0 64.66666666666667 L 70.33333333333333 65.33333333333333 L 70.0 66.0 L 70.33333333333333 66.66666666666667 L 71.0 67.33333333333333 L 72.0 67.66666666666667 L 73.0 68.0 L 74.0 68.33333333333333 L 75.0 68.66666666666667 L 76.0 69.33333333333333 L 77.0 70.0 L 78.0 70.66666666666667 L 79.0 71.33333333333333 L 80.0 71.66666666666667 L 81.0 72.0 L 81.5 72.0 Z" stroke="none" fill="rgb(249,233,202)" />
<path d="M 59.5 81.5 L 60.0 81.0 L 61.0 80.0 L 61.666666666666664 79.0 L 62.333333333333336 78.0 L 63.0 77.0 L 64.0 76.0 L 64.66666666666667 75.0 L 65.33333333333333 74.0 L 66.0 73.0 L 66.66666666666667 72.0 L 67.33333333333333 71.0 L 68.0 70.0 L 68.66666666666667 69.0 L 69.0 68.0 L 68.66666666666667 67.33333333333333 L 68.0 67.0 L 67.0 67.0 L 66.0 67.0 L 65.0 67.33333333333333 L 64.0 67.66666666666667 L 63.0 68.0 L 62.0 68.33333333333333 L 61.0 69.0 L 60.0 70.0 L 59.0 70.66666666666667 L 58.0 71.33333333333333 L 57.0 72.0 L 56.0 73.0 L 55.0 73.66666666666667 L 54.0 74.33333333333333 L 53.0 75.0 L 52.0 75.66666666666667 L 51.0 76.33333333333333 L 50.0 77.0 L 49.0 77.66666666666667 L 48.0 78.33333333333333 L 47.0 78.66666666666667 L 46.0 79.33333333333333 L 45.0 79.66666666666667 L 44.0 80.0 L 43.0 80.0 L 42.0 80.0 L 41.0 80.0 L 40.0 80.0 L 39.0 80.0 L 38.0 80.0 L 37.0 79.66666666666667 L 36.0 79.33333333333333 L 35.0 78.66666666666667 L 34.0 78.0 L 33.0 77.0 L 32.0 76.0 L 31.0 75.0 L 30.0 74.0 L 29.0 73.0 L 28.333333333333332 72.0 L 27.666666666666668 71.0 L 27.333333333333332 70.0 L 26.666666666666668 69.0 L 26.333333333333332 68.0 L 26.0 67.0 L 25.666666666666668 66.0 L 25.0 65.33333333333333 L 24.0 65.0 L 23.333333333333332 65.33333333333333 L 23.0 66.0 L 23.0 67.0 L 23.0 68.0 L 23.0 69.0 L 23.0 70.0 L 23.0 71.0 L 23.0 72.0 L 23.0 73.0 L 23.333333333333332 74.0 L 23.666666666666668 75.0 L 24.0 76.0 L 24.333333333333332 77.0 L 24.666666666666668 78.0 L 25.333333333333332 79.0 L 26.0 80.0 L 26.666666666666668 81.0 L 27.333333333333332 82.0 L 28.0 83.0 L 29.0 84.0 L 30.0 85.0 L 31.0 86.0 L 32.0 87.0 L 33.0 87.66666666666667 L 34.0 88.33333333333333 L 35.0 88.66666666666667 L 36.0 89.0 L 37.0 89.0 L 38.0 89.33333333333333 L 39.0 89.66666666666667 L 40.0 90.0 L 41.0 90.0 L 42.0 90.0 L 43.0 90.0 L 44.0 90.0 L 45.0 90.0 L 46.0 90.0 L 47.0 90.0 L 48.0 89.66666666666667 L 49.0 89.33333333333333 L 50.0 89.0 L 51.0 88.66666666666667 L 52.0 88.33333333333333 L 53.0 87.66666666666667 L 54.0 87.0 L 55.0 86.0 L 56.0 85.0 L 57.0 84.0 L 58.0 83.0 L 58.5 82.5 Z" stroke="none" fill="rgb(183,146,119)" />
<path d="M 106.5 81.0 L 107.0 81.0 L 108.0 80.66666666666667 L 109.0 80.33333333333333 L 110.0 79.66666666666667 L 111.0 79.33333333333333 L 112.0 78.66666666666667 L 112.66666666666667 78.0 L 113.33333333333333 77.0 L 113.66666666666667 76.0 L 114.0 75.0 L 114.0 74.0 L 114.0 73.0 L 114.0 72.0 L 114.0 71.0 L 114.0 70.0 L 114.0 69.0 L 113.66666666666667 68.33333333333333 L 113.0 68.33333333333333 L 112.0 69.0 L 111.0 70.0 L 110.0 71.0 L 109.0 71.66666666666667 L 108.33333333333333 72.33333333333333 L 108.0 73.0 L 108.0 74.0 L 108.0 75.0 L 107.66666666666667 76.0 L 107.33333333333333 77.0 L 106.66666666666667 78.0 L 106.33333333333333 79.0 L 106.0 80.0 L 106.0 80.5 Z" stroke="none" fill="rgb(255,234,201)" />
<path d="M 88.5 79.0 L 89.0 78.66666666666667 L 90.0 78.33333333333333 L 91.0 78.0 L 92.0 78.0 L 93.0 77.66666666666667 L 94.0 77.33333333333333 L 95.0 77.0 L 96.0 77.0 L 97.0 77.0 L 98.0 77.0 L 98.66666666666667 76.66666666666667 L 99.0 76.0 L 98.66666666666667 75.0 L 98.0 74.0 L 97.0 73.0 L 96.0 72.0 L 95.0 71.33333333333333 L 94.0 71.33333333333333 L 93.0 71.66666666666667 L 92.0 72.0 L 91.0 72.0 L 90.0 72.0 L 89.0 72.0 L 88.0 72.0 L 87.0 72.0 L 86.0 72.33333333333333 L 85.0 73.0 L 84.33333333333333 74.0 L 84.33333333333333 75.0 L 85.0 76.0 L 86.0 77.0 L 87.0 78.0 L 87.5 78.5 Z" stroke="none" fill="rgb(249,233,202)" />
<path d="M 91.5 81.0 L 92.0 81.0 L 93.0 81.0 L 94.0 81.0 L 95.0 80.66666666666667 L 96.0 80.33333333333333 L 97.0 80.0 L 98.0 80.0 L 99.0 80.0 L 99.66666666666667 79.66666666666667 L 100.0 79.0 L 99.66666666666667 78.0 L 99.0 77.33333333333333 L 98.0 77.0 L 97.0 77.0 L 96.0 77.0 L 95.0 77.0 L 94.0 77.0 L 93.0 77.33333333333333 L 92.0 77.66666666666667 L 91.0 78.0 L 90.0 78.0 L 89.33333333333333 78.33333333333333 L 89.0 79.0 L 89.33333333333333 80.0 L 90.0 80.66666666666667 L 90.5 81.0 Z" stroke="none" fill="rgb(183,146,119)" />
<path d="M 100.5 88.0 L 101.0 88.0 L 101.66666666666667 87.66666666666667 L 102.0 87.0 L 101.66666666666667 86.0 L 101.33333333333333 85.0 L 101.0 84.0 L 100.66666666666667 83.0 L 100.0 82.0 L 99.33333333333333 81.0 L 98.66666666666667 80.33333333333333 L 98.0 80.0 L 97.0 80.0 L 96.0 80.0 L 95.0 80.33333333333333 L 94.0 80.66666666666667 L 93.0 81.0 L 92.0 81.0 L 91.0 81.0 L 90.33333333333333 81.33333333333333 L 90.0 82.0 L 90.0 83.0 L 90.0 84.0 L 90.33333333333333 85.0 L 91.0 86.0 L 92.0 86.66666666666667 L 93.0 87.0 L 94.0 87.0 L 95.0 87.0 L 96.0 87.0 L 97.0 87.0 L 98.0 87.0 L 99.0 87.33333333333333 L 99.5 87.5 Z" stroke="none" fill="rgb(249,233,202)" />
<path d="M 101.5 86.0 L 102.0 86.0 L 103.0 85.66666666666667 L 103.66666666666667 85.0 L 104.0 84.0 L 104.0 83.0 L 103.66666666666667 82.33333333333333 L 103.0 82.33333333333333 L 102.0 82.66666666666667 L 101.33333333333333 83.33333333333333 L 101.0 84.0 L 101.0 85.0 L 101.0 85.5 Z" stroke="none" fill="rgb(255,234,201)" />
<path d="M 94.5 90.0 L 95.0 90.0 L 96.0 90.0 L 97.0 90.0 L 98.0 90.0 L 99.0 90.0 L 100.0 90.0 L 101.0 90.0 L 101.66666666666667 89.66666666666667 L 102.0 89.0 L 101.66666666666667 88.33333333333333 L 101.0 87.66666666666667 L 100.0 87.33333333333333 L 99.0 87.0 L 98.0 87.0 L 97.0 87.0 L 96.0 87.0 L 95.0 87.0 L 94.0 87.0 L 93.0 87.0 L 92.33333333333333 87.33333333333333 L 92.0 88.0 L 92.0 89.0 L 92.33333333333333 89.66666666666667 L 93.0 90.0 L 93.5 90.0 Z" stroke="none" fill="rgb(183,146,119)" />
<path d="M 95.5 98.0 L 96.0 98.0 L 97.0 97.66666666666667 L 98.0 97.33333333333333 L 99.0 96.66666666666667 L 100.0 96.0 L 100.66666666666667 95.0 L 101.0 94.0 L 101.33333333333333 93.0 L 101.66666666666667 92.0 L 102.0 91.0 L 101.66666666666667 90.33333333333333 L 101.0 90.0 L 100.0 90.0 L 99.0 90.0 L 98.0 90.0 L 97.0 90.0 L 96.0 90.0 L 95.0 90.0 L 94.0 90.0 L 93.0 90.33333333333333 L 92.33333333333333 91.0 L 92.0 92.0 L 92.0 93.0 L 92.0 94.0 L 92.0 95.0 L 92.0 96.0 L 92.33333333333333 97.0 L 93.0 97.66666666666667 L 94.0 98.0 L 94.5 98.0 Z" stroke="none" fill="rgb(249,233,202)" />
<path d="M 35.5 116.5 L 36.0 116.66666666666667 L 37.0 117.0 L 38.0 117.0 L 39.0 117.0 L 40.0 117.0 L 41.0 116.66666666666667 L 42.0 116.33333333333333 L 43.0 116.0 L 44.0 115.66666666666667 L 45.0 115.33333333333333 L 46.0 114.66666666666667 L 47.0 114.33333333333333 L 48.0 114.0 L 49.0 113.66666666666667 L 50.0 113.33333333333333 L 51.0 113.0 L 52.0 113.33333333333333 L 52.333333333333336 114.0 L 52.0 114.66666666666667 L 51.0 115.33333333333333 L 50.0 116.0 L 49.0 117.0 L 48.0 118.0 L 47.333333333333336 119.0 L 47.0 120.0 L 47.0 121.0 L 47.0 122.0 L 47.333333333333336 123.0 L 48.0 123.66666666666667 L 49.0 124.0 L 50.0 124.0 L 51.0 124.0 L 52.0 123.66666666666667 L 53.0 123.33333333333333 L 54.0 123.0 L 55.0 122.66666666666667 L 56.0 122.33333333333333 L 57.0 121.66666666666667 L 58.0 121.33333333333333 L 59.0 121.0 L 60.0 120.66666666666667 L 61.0 120.33333333333333 L 62.0 120.0 L 63.0 119.66666666666667 L 64.0 119.33333333333333 L 65.0 119.0 L 66.0 119.0 L 67.0 119.0 L 68.0 119.0 L 69.0 119.0 L 70.0 119.0 L 71.0 119.0 L 72.0 119.0 L 73.0 119.0 L 74.0 119.0 L 74.66666666666667 118.66666666666667 L 75.0 118.0 L 75.0 117.0 L 75.0 116.0 L 74.66666666666667 115.0 L 74.0 114.0 L 73.0 113.33333333333333 L 72.0 112.66666666666667 L 71.0 112.33333333333333 L 70.0 112.0 L 69.0 111.66666666666667 L 68.33333333333333 111.0 L 68.0 110.0 L 68.0 109.0 L 68.0 108.0 L 68.0 107.0 L 68.0 106.0 L 67.66666666666667 105.33333333333333 L 67.0 105.0 L 66.0 105.0 L 65.0 105.0 L 64.0 105.0 L 63.0 105.0 L 62.0 105.0 L 61.0 105.0 L 60.0 105.0 L 59.333333333333336 105.33333333333333 L 59.0 106.0 L 58.666666666666664 107.0 L 58.0 107.33333333333333 L 57.0 107.33333333333333 L 56.0 107.0 L 55.0 106.66666666666667 L 54.333333333333336 106.0 L 53.666666666666664 105.0 L 53.0 104.33333333333333 L 52.0 104.0 L 51.0 104.0 L 50.0 104.0 L 49.0 103.66666666666667 L 48.0 103.33333333333333 L 47.0 103.0 L 46.0 103.0 L 45.333333333333336 103.33333333333333 L 45.0 104.0 L 45.0 105.0 L 44.666666666666664 106.0 L 44.0 106.66666666666667 L 43.0 107.33333333333333 L 42.0 107.66666666666667 L 41.0 108.33333333333333 L 40.0 108.66666666666667 L 39.0 109.33333333333333 L 38.0 109.66666666666667 L 37.0 110.33333333333333 L 36.333333333333336 111.0 L 35.666666666666664 112.0 L 35.333333333333336 113.0 L 35.0 114.0 L 35.0 115.0 L 35.0 115.5 Z" stroke="none" fill="rgb(134,133,132)" />
<path d="M 58.5 108.0 L 58.666666666666664 107.66666666666667 L 59.0 107.0 L 59.0 106.0 L 58.666666666666664 105.33333333333333 L 58.0 105.0 L 57.0 105.0 L 56.0 105.0 L 55.0 105.0 L 54.333333333333336 105.33333333333333 L 54.0 106.0 L 54.333333333333336 106.66666666666667 L 55.0 107.0 L 56.0 107.33333333333333 L 57.0 107.66666666666667 L 57.5 108.0 Z" stroke="none" fill="rgb(0,0,0)" />
</svg>
