<?xml version="1.0" encoding="UTF-8" standalone="no"?>
<!DOCTYPE svg PUBLIC "-//W3C//DTD SVG 1.1//EN"
"http://www.w3.org/Graphics/SVG/1.1/DTD/svg11.dtd">
<svg width="128" height="128" xmlns="http://www.w3.org/2000/svg" version="1.1">
<path d="M 93.5 128.0 L 94.0 128.0 L 95.0 128.0 L 96.0 128.0 L 97.0 128.0 L 98.0 128.0 L 99.0 128.0 L 100.0 128.0 L 101.0 128.0 L 102.0 128.0 L 103.0 128.0 L 104.0 128.0 L 105.0 128.0 L 106.0 128.0 L 107.0 128.0 L 108.0 128.0 L 109.0 128.0 L 110.0 128.0 L 111.0 128.0 L 112.0 128.0 L 113.0 128.0 L 114.0 128.0 L 115.0 128.0 L 116.0 128.0 L 117.0 128.0 L 118.0 128.0 L 119.0 128.0 L 120.0 128.0 L 121.0 128.0 L 122.0 128.0 L 123.0 128.0 L 124.0 128.0 L 125.0 128.0 L 126.0 128.0 L 127.0 128.0 L 127.66666666666667 127.66666666666667 L 128.0 127.0 L 128.0 126.0 L 128.0 125.0 L 128.0 124.0 L 128.0 123.0 L 128.0 122.0 L 128.0 121.0 L 128.0 120.0 L 128.0 119.0 L 128.0 118.0 L 128.0 117.0 L 128.0 116.0 L 128.0 115.0 L 128.0 114.0 L 128.0 113.0 L 128.0 112.0 L 128.0 111.0 L 128.0 110.0 L 128.0 109.0 L 128.0 108.0 L 128.0 107.0 L 128.0 106.0 L 128.0 105.0 L 128.0 104.0 L 128.0 103.0 L 128.0 102.0 L 128.0 101.0 L 128.0 100.0 L 128.0 99.0 L 128.0 98.0 L 128.0 97.0 L 128.0 96.0 L 128.0 95.0 L 128.0 94.0 L 128.0 93.0 L 128.0 92.0 L 128.0 91.0 L 128.0 90.0 L 128.0 89.0 L 128.0 88.0 L 128.0 87.0 L 128.0 86.0 L 128.0 85.0 L 128.0 84.0 L 128.0 83.0 L 128.0 82.0 L 128.0 81.0 L 128.0 80.0 L 128.0 79.0 L 128.0 78.0 L 128.0 77.0 L 128.0 76.0 L 128.0 75.0 L 128.0 74.0 L 128.0 73.0 L 128.0 72.0 L 128.0 71.0 L 128.0 70.0 L 128.0 69.0 L 128.0 68.0 L 128.0 67.0 L 128.0 66.0 L 128.0 65.0 L 128.0 64.0 L 128.0 63.0 L 128.0 62.0 L 128.0 61.0 L 128.0 60.0 L 128.0 59.0 L 128.0 58.0 L 128.0 57.0 L 128.0 56.0 L 128.0 55.0 L 128.0 54.0 L 128.0 53.0 L 128.0 52.0 L 128.0 51.0 L 128.0 50.0 L 128.0 49.0 L 128.0 48.0 L 128.0 47.0 L 128.0 46.0 L 128.0 45.0 L 128.0 44.0 L 128.0 43.0 L 128.0 42.0 L 128.0 41.0 L 128.0 40.0 L 128.0 39.0 L 128.0 38.0 L 128.0 37.0 L 128.0 36.0 L 128.0 35.0 L 128.0 34.0 L 128.0 33.0 L 128.0 32.0 L 128.0 31.0 L 128.0 30.0 L 128.0 29.0 L 128.0 28.0 L 128.0 27.0 L 128.0 26.0 L 128.0 25.0 L 128.0 24.0 L 128.0 23.0 L 128.0 22.0 L 128.0 21.0 L 128.0 20.0 L 128.0 19.0 L 128.0 18.0 L 128.0 17.0 L 128.0 16.0 L 128.0 15.0 L 128.0 14.0 L 128.0 13.0 L 128.0 12.0 L 128.0 11.0 L 128.0 10.0 L 128.0 9.0 L 128.0 8.0 L 128.0 7.0 L 128.0 6.0 L 128.0 5.0 L 128.0 4.0 L 128.0 3.0 L 128.0 2.0 L 128.0 1.0 L 127.66666666666667 0.3333333333333333 L 127.0 0.0 L 126.0 0.0 L 125.0 0.0 L 124.0 0.0 L 123.0 0.0 L 122.0 0.0 L 121.0 0.0 L 120.0 0.0 L 119.0 0.0 L 118.0 0.0 L 117.0 0.0 L 116.0 0.0 L 115.0 0.0 L 114.0 0.0 L 113.0 0.0 L 112.0 0.0 L 111.0 0.0 L 110.0 0.0 L 109.0 0.0 L 108.0 0.0 L 107.0 0.0 L 106.0 0.0 L 105.0 0.0 L 104.0 0.0 L 103.0 0.0 L 102.0 0.0 L 101.0 0.0 L 100.0 0.0 L 99.0 0.0 L 98.0 0.0 L 97.0 0.0 L 96.0 0.0 L 95.0 0.0 L 94.0 0.0 L 93.0 0.0 L 92.0 0.0 L 91.0 0.0 L 90.0 0.0 L 89.0 0.0 L 88.0 0.0 L 87.0 0.0 L 86.0 0.0 L 85.0 0.0 L 84.0 0.0 L 83.0 0.0 L 82.0 0.0 L 81.0 0.0 L 80.0 0.0 L 79.0 0.0 L 78.0 0.0 L 77.0 0.0 L 76.0 0.0 L 75.0 0.0 L 74.0 0.0 L 73.0 0.0 L 72.0 0.0 L 71.0 0.0 L 70.0 0.0 L 69.0 0.0 L 68.0 0.0 L 67.0 0.0 L 66.0 0.0 L 65.0 0.0 L 64.0 0.0 L 63.0 0.0 L 62.0 0.0 L 61.0 0.0 L 60.0 0.0 L 59.0 0.0 L 58.0 0.0 L 57.0 0.0 L 56.0 0.0 L 55.0 0.0 L 54.0 0.0 L 53.0 0.0 L 52.0 0.0 L 51.0 0.0 L 50.0 0.0 L 49.0 0.0 L 48.0 0.0 L 47.0 0.0 L 46.0 0.0 L 45.0 0.0 L 44.0 0.0 L 43.0 0.0 L 42.0 0.0 L 41.0 0.0 L 40.0 0.0 L 39.0 0.0 L 38.0 0.0 L 37.0 0.0 L 36.0 0.0 L 35.0 0.0 L 34.0 0.0 L 33.0 0.0 L 32.0 0.0 L 31.0 0.0 L 30.0 0.0 L 29.0 0.0 L 28.0 0.0 L 27.0 0.0 L 26.0 0.0 L 25.0 0.0 L 24.0 0.0 L 23.0 0.0 L 22.0 0.0 L 21.0 0.0 L 20.0 0.0 L 19.0 0.0 L 18.0 0.0 L 17.0 0.0 L 16.0 0.0 L 15.0 0.0 L 14.0 0.0 L 13.0 0.0 L 12.0 0.0 L 11.0 0.0 L 10.0 0.0 L 9.0 0.0 L 8.0 0.0 L 7.0 0.0 L 6.0 0.0 L 5.0 0.0 L 4.0 0.0 L 3.0 0.0 L 2.0 0.0 L 1.0 0.0 L 0.3333333333333333 0.3333333333333333 L 0.0 1.0 L 0.0 2.0 L 0.0 3.0 L 0.0 4.0 L 0.0 5.0 L 0.0 6.0 L 0.0 7.0 L 0.0 8.0 L 0.0 9.0 L 0.0 10.0 L 0.0 11.0 L 0.0 12.0 L 0.0 13.0 L 0.0 14.0 L 0.0 15.0 L 0.0 16.0 L 0.0 17.0 L 0.0 18.0 L 0.0 19.0 L 0.0 20.0 L 0.0 21.0 L 0.0 22.0 L 0.0 23.0 L 0.0 24.0 L 0.0 25.0 L 0.0 26.0 L 0.0 27.0 L 0.0 28.0 L 0.0 29.0 L 0.0 30.0 L 0.0 31.0 L 0.0 32.0 L 0.0 33.0 L 0.0 34.0 L 0.0 35.0 L 0.0 36.0 L 0.0 37.0 L 0.0 38.0 L 0.0 39.0 L 0.0 40.0 L 0.0 41.0 L 0.0 42.0 L 0.0 43.0 L 0.0 44.0 L 0.0 45.0 L 0.0 46.0 L 0.0 47.0 L 0.0 48.0 L 0.0 49.0 L 0.0 50.0 L 0.0 51.0 L 0.0 52.0 L 0.0 53.0 L 0.0 54.0 L 0.0 55.0 L 0.0 56.0 L 0.0 57.0 L 0.0 58.0 L 0.0 59.0 L 0.0 60.0 L 0.0 61.0 L 0.0 62.0 L 0.0 63.0 L 0.0 64.0 L 0.0 65.0 L 0.0 66.0 L 0.0 67.0 L 0.0 68.0 L 0.0 69.0 L 0.0 70.0 L 0.0 71.0 L 0.0 72.0 L 0.0 73.0 L 0.0 74.0 L 0.0 75.0 L 0.0 76.0 L 0.0 77.0 L 0.0 78.0 L 0.0 79.0 L 0.0 80.0 L 0.0 81.0 L 0.0 82.0 L 0.0 83.0 L 0.0 84.0 L 0.0 85.0 L 0.0 86.0 L 0.0 87.0 L 0.0 88.0 L 0.0 89.0 L 0.0 90.0 L 0.0 91.0 L 0.0 92.0 L 0.0 93.0 L 0.0 94.0 L 0.0 95.0 L 0.0 96.0 L 0.0 97.0 L 0.0 98.0 L 0.0 99.0 L 0.0 100.0 L 0.0 101.0 L 0.0 102.0 L 0.0 103.0 L 0.0 104.0 L 0.0 105.0 L 0.0 106.0 L 0.0 107.0 L 0.0 108.0 L 0.0 109.0 L 0.0 110.0 L 0.0 111.0 L 0.0 112.0 L 0.0 113.0 L 0.0 114.0 L 0.0 115.0 L 0.0 116.0 L 0.0 117.0 L 0.0 118.0 L 0.0 119.0 L 0.0 120.0 L 0.0 121.0 L 0.0 122.0 L 0.0 123.0 L 0.0 124.0 L 0.0 125.0 L 0.0 126.0 L 0.0 127.0 L 0.3333333333333333 127.66666666666667 L 1.0 128.0 L 2.0 128.0 L 3.0 128.0 L 4.0 128.0 L 5.0 128.0 L 6.0 128.0 L 7.0 128.0 L 8.0 128.0 L 9.0 128.0 L 10.0 128.0 L 11.0 128.0 L 12.0 128.0 L 13.0 128.0 L 14.0 128.0 L 15.0 128.0 L 16.0 128.0 L 17.0 128.0 L 18.0 128.0 L 19.0 128.0 L 20.0 128.0 L 21.0 128.0 L 22.0 128.0 L 23.0 128.0 L 24.0 128.0 L 25.0 128.0 L 26.0 128.0 L 27.0 128.0 L 28.0 128.0 L 29.0 128.0 L 30.0 128.0 L 31.0 128.0 L 32.0 128.0 L 33.0 128.0 L 34.0 128.0 L 35.0 128.0 L 36.0 128.0 L 37.0 128.0 L 38.0 128.0 L 39.0 128.0 L 40.0 128.0 L 41.0 128.0 L 42.0 128.0 L 43.0 128.0 L 44.0 128.0 L 45.0 128.0 L 46.0 128.0 L 47.0 128.0 L 48.0 128.0 L 49.0 128.0 L 50.0 128.0 L 51.0 128.0 L 52.0 128.0 L 53.0 128.0 L 54.0 128.0 L 55.0 128.0 L 56.0 128.0 L 57.0 128.0 L 58.0 128.0 L 59.0 128.0 L 60.0 128.0 L 61.0 128.0 L 62.0 128.0 L 63.0 128.0 L 64.0 128.0 L 65.0 128.0 L 66.0 128.0 L 67.0 128.0 L 68.0 128.0 L 69.0 128.0 L 70.0 128.0 L 71.0 128.0 L 72.0 128.0 L 73.0 128.0 L 74.0 128.0 L 75.0 128.0 L 76.0 128.0 L 77.0 128.0 L 78.0 128.0 L 79.0 128.0 L 80.0 128.0 L 81.0 128.0 L 82.0 128.0 L 83.0 128.0 L 84.0 128.0 L 85.0 128.0 L 86.0 128.0 L 87.0 128.0 L 88.0 128.0 L 89.0 128.0 L 90.0 128.0 L 91.0 128.0 L 92.0 128.0 L 92.5 128.0 Z" stroke="none" fill="rgb(0,0,0)" />
<path d="M 72.5 9.5 L 73.0 9.666666666666666 L 74.0 10.333333333333334 L 75.0 10.666666666666666 L 76.0 11.333333333333334 L 77.0 12.0 L 78.0 12.666666666666666 L 79.0 13.333333333333334 L 80.0 14.0 L 81.0 15.0 L 82.0 16.0 L 83.0 17.0 L 84.0 18.0 L 85.0 18.666666666666668 L 86.0 19.0 L 87.0 18.666666666666668 L 88.0 18.666666666666668 L 88.66666666666667 19.0 L 89.33333333333333 19.666666666666668 L 90.0 20.0 L 91.0 19.666666666666668 L 92.0 19.333333333333332 L 93.0 19.333333333333332 L 94.0 20.0 L 95.0 21.0 L 96.0 22.0 L 97.0 23.0 L 97.66666666666667 24.0 L 98.33333333333333 25.0 L 99.0 26.0 L 99.66666666666667 27.0 L 100.33333333333333 28.0 L 101.0 29.0 L 101.66666666666667 30.0 L 102.33333333333333 31.0 L 102.66666666666667 32.0 L 103.0 33.0 L 103.33333333333333 34.0 L 103.66666666666667 35.0 L 104.0 36.0 L 104.33333333333333 37.0 L 104.66666666666667 38.0 L 105.0 39.0 L 105.0 40.0 L 105.33333333333333 41.0 L 105.66666666666667 42.0 L 106.33333333333333 42.666666666666664 L 107.0 43.0 L 107.66666666666667 42.666666666666664 L 108.0 42.0 L 108.0 41.0 L 108.0 40.0 L 108.0 39.0 L 108.0 38.0 L 107.66666666666667 37.0 L 107.0 36.0 L 106.33333333333333 35.0 L 106.0 34.0 L 105.66666666666667 33.0 L 105.33333333333333 32.0 L 104.66666666666667 31.0 L 104.33333333333333 30.0 L 103.66666666666667 29.0 L 103.33333333333333 28.0 L 102.66666666666667 27.0 L 102.33333333333333 26.0 L 101.66666666666667 25.0 L 101.0 24.0 L 100.33333333333333 23.0 L 99.66666666666667 22.0 L 99.0 21.0 L 98.0 20.0 L 97.33333333333333 19.0 L 96.66666666666667 18.0 L 96.0 17.0 L 95.0 16.333333333333332 L 94.0 16.0 L 93.0 16.0 L 92.0 16.0 L 91.0 16.333333333333332 L 90.0 16.333333333333332 L 89.0 16.0 L 88.0 15.0 L 87.0 14.0 L 86.0 13.333333333333334 L 85.0 12.666666666666666 L 84.0 12.0 L 83.0 11.333333333333334 L 82.0 10.666666666666666 L 81.0 10.0 L 80.0 9.333333333333334 L 79.0 8.666666666666666 L 78.0 8.333333333333334 L 77.0 7.666666666666667 L 76.0 7.333333333333333 L 75.0 6.666666666666667 L 74.0 6.333333333333333 L 73.0 6.0 L 72.0 5.666666666666667 L 71.0 5.0 L 70.0 4.333333333333333 L 69.0 4.0 L 68.0 4.0 L 67.0 4.0 L 66.33333333333333 4.333333333333333 L 66.0 5.0 L 66.33333333333333 6.0 L 67.0 7.0 L 68.0 7.666666666666667 L 69.0 8.333333333333334 L 70.0 8.666666666666666 L 71.0 9.0 L 71.5 9.0 Z" stroke="none" fill="rgb(102,71,60)" />
<path d="M 88.5 16.5 L 89.0 16.666666666666668 L 90.0 17.0 L 91.0 16.666666666666668 L 91.66666666666667 16.0 L 91.66666666666667 15.0 L 91.33333333333333 14.0 L 91.0 13.0 L 90.66666666666667 12.0 L 90.0 11.0 L 89.0 10.0 L 88.0 9.0 L 87.0 8.0 L 86.0 7.333333333333333 L 85.0 6.666666666666667 L 84.0 6.333333333333333 L 83.0 6.0 L 82.0 5.666666666666667 L 81.0 5.333333333333333 L 80.0 5.0 L 79.0 5.0 L 78.0 4.666666666666667 L 77.0 4.333333333333333 L 76.0 4.0 L 75.0 4.0 L 74.0 4.0 L 73.0 4.0 L 72.0 4.0 L 71.33333333333333 4.333333333333333 L 71.0 5.0 L 71.33333333333333 5.666666666666667 L 72.0 6.0 L 73.0 6.333333333333333 L 74.0 6.666666666666667 L 75.0 7.333333333333333 L 76.0 7.666666666666667 L 77.0 8.333333333333334 L 78.0 8.666666666666666 L 79.0 9.333333333333334 L 80.0 10.0 L 81.0 10.666666666666666 L 82.0 11.333333333333334 L 83.0 12.0 L 84.0 12.666666666666666 L 85.0 13.333333333333334 L 86.0 14.0 L 87.0 15.0 L 87.5 15.5 Z" stroke="none" fill="rgb(108,76,64)" />
<path d="M 66.5 7.0 L 66.66666666666667 6.666666666666667 L 66.66666666666667 6.0 L 66.0 5.333333333333333 L 65.0 5.0 L 64.33333333333333 5.333333333333333 L 64.0 6.0 L 64.33333333333333 6.666666666666667 L 65.0 7.0 L 65.5 7.0 Z" stroke="none" fill="rgb(96,66,56)" />
<path d="M 39.5 9.5 L 39.666666666666664 10.0 L 40.333333333333336 11.0 L 41.0 11.666666666666666 L 42.0 12.333333333333334 L 43.0 12.666666666666666 L 44.0 13.0 L 45.0 13.0 L 46.0 13.0 L 47.0 13.333333333333334 L 48.0 13.666666666666666 L 49.0 14.0 L 50.0 13.666666666666666 L 51.0 13.0 L 52.0 12.0 L 52.666666666666664 11.0 L 53.0 10.0 L 52.666666666666664 9.333333333333334 L 52.0 9.333333333333334 L 51.0 10.0 L 50.0 11.0 L 49.0 11.333333333333334 L 48.0 11.333333333333334 L 47.0 11.0 L 46.0 11.0 L 45.0 11.0 L 44.0 10.666666666666666 L 43.0 10.0 L 42.0 9.0 L 41.333333333333336 8.0 L 41.0 7.0 L 40.666666666666664 6.333333333333333 L 40.0 6.0 L 39.0 6.0 L 38.0 6.333333333333333 L 37.333333333333336 7.0 L 37.0 8.0 L 37.333333333333336 8.666666666666666 L 38.0 9.0 L 38.5 9.0 Z" stroke="none" fill="rgb(96,66,56)" />
<path d="M 58.5 38.0 L 59.0 38.0 L 59.666666666666664 37.666666666666664 L 60.333333333333336 37.0 L 61.0 36.0 L 62.0 35.666666666666664 L 63.0 35.666666666666664 L 64.0 36.0 L 65.0 36.0 L 66.0 36.0 L 66.66666666666667 35.666666666666664 L 67.0 35.0 L 67.33333333333333 34.0 L 68.0 33.0 L 69.0 32.333333333333336 L 70.0 32.0 L 71.0 32.0 L 72.0 32.0 L 73.0 32.0 L 74.0 32.0 L 75.0 32.0 L 76.0 32.333333333333336 L 77.0 33.0 L 78.0 34.0 L 79.0 35.0 L 80.0 35.666666666666664 L 81.0 36.0 L 82.0 36.333333333333336 L 83.0 36.666666666666664 L 84.0 37.0 L 85.0 37.333333333333336 L 86.0 37.666666666666664 L 87.0 38.333333333333336 L 88.0 39.0 L 89.0 40.0 L 90.0 41.0 L 91.0 42.0 L 91.66666666666667 43.0 L 92.0 44.0 L 92.33333333333333 45.0 L 92.66666666666667 46.0 L 93.0 47.0 L 93.33333333333333 48.0 L 93.66666666666667 49.0 L 94.0 50.0 L 94.0 51.0 L 94.0 52.0 L 94.0 53.0 L 94.0 54.0 L 94.33333333333333 55.0 L 94.66666666666667 56.0 L 95.0 57.0 L 95.0 58.0 L 95.0 59.0 L 95.0 60.0 L 95.0 61.0 L 95.0 62.0 L 95.0 63.0 L 95.33333333333333 64.0 L 96.0 64.66666666666667 L 97.0 65.0 L 97.66666666666667 64.66666666666667 L 98.33333333333333 64.0 L 98.66666666666667 63.0 L 99.33333333333333 62.0 L 99.66666666666667 61.0 L 100.33333333333333 60.0 L 101.0 59.333333333333336 L 102.0 59.0 L 102.66666666666667 58.666666666666664 L 103.33333333333333 58.0 L 103.66666666666667 57.0 L 104.0 56.0 L 103.66666666666667 55.0 L 103.0 54.0 L 102.33333333333333 53.0 L 102.0 52.0 L 102.0 51.0 L 102.0 50.0 L 102.0 49.0 L 102.0 48.0 L 102.0 47.0 L 102.0 46.0 L 102.0 45.0 L 102.0 44.0 L 102.0 43.0 L 102.0 42.0 L 102.0 41.0 L 101.66666666666667 40.0 L 101.33333333333333 39.0 L 101.0 38.0 L 100.66666666666667 37.0 L 100.33333333333333 36.0 L 100.0 35.0 L 99.66666666666667 34.0 L 99.33333333333333 33.0 L 98.66666666666667 32.0 L 98.33333333333333 31.0 L 97.66666666666667 30.0 L 97.0 29.0 L 96.33333333333333 28.0 L 95.66666666666667 27.0 L 95.0 26.0 L 94.0 25.0 L 93.0 24.0 L 92.0 23.0 L 91.0 22.333333333333332 L 90.0 22.0 L 89.0 22.0 L 88.0 21.666666666666668 L 87.0 21.0 L 86.33333333333333 20.0 L 85.66666666666667 19.0 L 85.0 18.0 L 84.0 17.0 L 83.0 16.0 L 82.0 15.0 L 81.0 14.0 L 80.0 13.333333333333334 L 79.0 12.666666666666666 L 78.0 12.0 L 77.0 11.333333333333334 L 76.0 10.666666666666666 L 75.0 10.333333333333334 L 74.0 9.666666666666666 L 73.0 9.333333333333334 L 72.0 9.0 L 71.0 8.666666666666666 L 70.0 8.333333333333334 L 69.0 7.666666666666667 L 68.0 7.333333333333333 L 67.0 7.0 L 66.0 7.0 L 65.0 7.0 L 64.0 7.0 L 63.0 6.666666666666667 L 62.0 6.333333333333333 L 61.0 6.0 L 60.0 6.0 L 59.0 6.0 L 58.0 6.0 L 57.0 6.333333333333333 L 56.0 6.666666666666667 L 55.333333333333336 7.333333333333333 L 54.666666666666664 8.0 L 54.0 9.0 L 53.0 10.0 L 52.0 11.0 L 51.0 12.0 L 50.0 13.0 L 49.0 13.666666666666666 L 48.0 14.0 L 47.0 14.333333333333334 L 46.0 14.333333333333334 L 45.0 14.333333333333334 L 44.0 14.0 L 43.0 13.666666666666666 L 42.0 13.0 L 41.0 12.0 L 40.0 11.0 L 39.0 10.333333333333334 L 38.0 10.333333333333334 L 37.333333333333336 11.0 L 37.0 12.0 L 37.0 13.0 L 37.0 14.0 L 37.0 15.0 L 37.0 16.0 L 36.666666666666664 17.0 L 36.0 18.0 L 35.0 19.0 L 34.0 20.0 L 33.0 21.0 L 32.333333333333336 22.0 L 31.666666666666668 23.0 L 31.333333333333332 24.0 L 31.0 25.0 L 31.0 26.0 L 31.0 27.0 L 31.0 28.0 L 31.0 29.0 L 31.0 30.0 L 31.0 31.0 L 31.0 32.0 L 30.666666666666668 33.0 L 30.333333333333332 34.0 L 29.666666666666668 35.0 L 29.333333333333332 36.0 L 29.0 37.0 L 28.666666666666668 38.0 L 28.333333333333332 39.0 L 28.0 40.0 L 28.0 41.0 L 28.0 42.0 L 28.0 43.0 L 28.0 44.0 L 28.0 45.0 L 28.0 46.0 L 28.0 47.0 L 28.0 48.0 L 28.0 49.0 L 28.0 50.0 L 27.666666666666668 51.0 L 27.0 51.666666666666664 L 26.333333333333332 52.333333333333336 L 26.0 53.0 L 25.666666666666668 54.0 L 25.333333333333332 55.0 L 25.0 56.0 L 25.0 57.0 L 25.0 58.0 L 25.0 59.0 L 25.333333333333332 59.666666666666664 L 26.0 59.666666666666664 L 26.666666666666668 59.0 L 27.0 58.0 L 27.333333333333332 57.0 L 28.0 56.666666666666664 L 28.666666666666668 57.0 L 29.0 58.0 L 29.0 59.0 L 29.0 60.0 L 29.0 61.0 L 29.0 62.0 L 29.333333333333332 63.0 L 29.666666666666668 64.0 L 30.0 65.0 L 30.333333333333332 66.0 L 31.0 66.66666666666667 L 32.0 66.66666666666667 L 32.666666666666664 66.0 L 33.0 65.0 L 33.0 64.0 L 33.333333333333336 63.0 L 33.666666666666664 62.0 L 34.0 61.0 L 34.0 60.0 L 34.333333333333336 59.0 L 34.666666666666664 58.0 L 35.0 57.0 L 35.0 56.0 L 35.0 55.0 L 35.333333333333336 54.0 L 35.666666666666664 53.0 L 36.0 52.0 L 36.0 51.0 L 36.0 50.0 L 36.333333333333336 49.0 L 37.0 48.0 L 38.0 47.333333333333336 L 39.0 47.0 L 40.0 47.0 L 41.0 46.666666666666664 L 42.0 46.333333333333336 L 43.0 45.666666666666664 L 44.0 45.333333333333336 L 45.0 45.0 L 46.0 44.666666666666664 L 47.0 44.333333333333336 L 48.0 44.333333333333336 L 49.0 44.666666666666664 L 50.0 44.666666666666664 L 51.0 44.0 L 52.0 43.333333333333336 L 52.666666666666664 42.666666666666664 L 52.666666666666664 42.0 L 52.0 41.0 L 51.666666666666664 40.0 L 51.666666666666664 39.0 L 52.333333333333336 38.0 L 53.0 37.0 L 54.0 36.333333333333336 L 55.0 36.333333333333336 L 56.0 36.666666666666664 L 57.0 37.333333333333336 L 57.5 37.5 Z" stroke="none" fill="rgb(84,57,48)" />
<path d="M 37.0 16.5 L 37.0 16.0 L 37.0 15.0 L 37.0 14.0 L 37.0 13.0 L 37.0 12.0 L 37.0 11.0 L 37.0 10.0 L 37.0 9.0 L 36.666666666666664 8.0 L 36.0 7.333333333333333 L 35.0 7.333333333333333 L 34.333333333333336 8.0 L 33.666666666666664 9.0 L 33.333333333333336 10.0 L 33.0 11.0 L 33.0 12.0 L 33.0 13.0 L 33.0 14.0 L 33.0 15.0 L 33.0 16.0 L 33.333333333333336 16.666666666666668 L 34.0 17.0 L 35.0 17.0 L 36.0 17.0 L 36.5 17.0 Z" stroke="none" fill="rgb(108,76,64)" />
<path d="M 37.5 11.0 L 38.0 11.0 L 39.0 11.0 L 39.666666666666664 10.666666666666666 L 40.0 10.0 L 39.666666666666664 9.0 L 39.0 8.333333333333334 L 38.0 8.333333333333334 L 37.333333333333336 9.0 L 37.0 10.0 L 37.0 10.5 Z" stroke="none" fill="rgb(90,62,52)" />
<path d="M 49.5 12.0 L 49.666666666666664 11.666666666666666 L 50.0 11.0 L 49.666666666666664 10.333333333333334 L 49.0 10.0 L 48.333333333333336 10.333333333333334 L 48.0 11.0 L 48.333333333333336 11.666666666666666 L 48.5 12.0 Z" stroke="none" fill="rgb(102,71,60)" />
<path d="M 40.5 12.0 L 40.666666666666664 11.666666666666666 L 40.666666666666664 11.333333333333334 L 40.333333333333336 11.333333333333334 L 40.0 11.5 Z" stroke="none" fill="rgb(90,62,52)" />
<path d="M 42.5 14.0 L 43.0 14.0 L 44.0 14.333333333333334 L 45.0 14.666666666666666 L 46.0 15.0 L 47.0 14.666666666666666 L 47.666666666666664 14.0 L 47.666666666666664 13.333333333333334 L 47.0 13.0 L 46.0 13.0 L 45.0 13.0 L 44.0 12.666666666666666 L 43.0 12.333333333333334 L 42.0 12.0 L 41.333333333333336 12.333333333333334 L 41.333333333333336 13.0 L 41.5 13.5 Z" stroke="none" fill="rgb(90,62,52)" />
<path d="M 23.5 47.5 L 23.666666666666668 47.0 L 24.0 46.0 L 24.0 45.0 L 24.0 44.0 L 23.666666666666668 43.0 L 23.333333333333332 42.0 L 23.0 41.0 L 23.0 40.0 L 23.333333333333332 39.0 L 23.666666666666668 38.0 L 24.0 37.0 L 24.333333333333332 36.0 L 24.666666666666668 35.0 L 25.333333333333332 34.0 L 26.0 33.0 L 27.0 32.333333333333336 L 27.666666666666668 31.666666666666668 L 28.0 31.0 L 27.666666666666668 30.0 L 27.333333333333332 29.0 L 27.0 28.0 L 27.0 27.0 L 27.333333333333332 26.0 L 27.666666666666668 25.0 L 28.0 24.0 L 28.333333333333332 23.0 L 28.666666666666668 22.0 L 29.333333333333332 21.0 L 30.0 20.0 L 30.666666666666668 19.0 L 31.0 18.0 L 30.666666666666668 17.333333333333332 L 30.0 17.0 L 29.0 17.333333333333332 L 28.0 18.0 L 27.0 19.0 L 26.0 20.0 L 25.333333333333332 21.0 L 24.666666666666668 22.0 L 24.333333333333332 23.0 L 24.0 24.0 L 24.0 25.0 L 23.666666666666668 26.0 L 23.333333333333332 27.0 L 23.0 28.0 L 23.0 29.0 L 23.0 30.0 L 23.333333333333332 31.0 L 23.333333333333332 32.0 L 23.333333333333332 33.0 L 22.666666666666668 34.0 L 22.0 35.0 L 21.333333333333332 36.0 L 20.666666666666668 37.0 L 20.333333333333332 38.0 L 20.0 39.0 L 20.0 40.0 L 20.0 41.0 L 20.0 42.0 L 20.0 43.0 L 20.0 44.0 L 20.0 45.0 L 20.0 46.0 L 20.0 47.0 L 20.0 48.0 L 20.0 49.0 L 19.666666666666668 50.0 L 19.333333333333332 51.0 L 19.0 52.0 L 19.0 53.0 L 19.0 54.0 L 19.0 55.0 L 19.333333333333332 55.666666666666664 L 20.0 55.666666666666664 L 20.666666666666668 55.0 L 21.0 54.0 L 21.0 53.0 L 21.0 52.0 L 21.333333333333332 51.0 L 21.666666666666668 50.0 L 22.333333333333332 49.0 L 22.5 48.5 Z" stroke="none" fill="rgb(108,76,64)" />
<path d="M 29.0 30.5 L 29.0 30.0 L 29.0 29.0 L 29.0 28.0 L 29.0 27.0 L 29.0 26.0 L 29.0 25.0 L 29.333333333333332 24.0 L 29.666666666666668 23.0 L 30.333333333333332 22.0 L 31.0 21.0 L 32.0 20.0 L 33.0 19.0 L 33.666666666666664 18.0 L 33.666666666666664 17.333333333333332 L 33.0 17.0 L 32.0 17.333333333333332 L 31.0 18.0 L 30.0 19.0 L 29.333333333333332 20.0 L 28.666666666666668 21.0 L 28.333333333333332 22.0 L 28.0 23.0 L 27.666666666666668 24.0 L 27.333333333333332 25.0 L 27.0 26.0 L 27.0 27.0 L 27.0 28.0 L 27.0 29.0 L 27.333333333333332 30.0 L 28.0 30.666666666666668 L 28.5 31.0 Z" stroke="none" fill="rgb(102,71,60)" />
<path d="M 30.5 32.5 L 30.666666666666668 32.0 L 31.0 31.0 L 31.0 30.0 L 31.0 29.0 L 31.0 28.0 L 31.0 27.0 L 31.0 26.0 L 31.333333333333332 25.0 L 31.666666666666668 24.0 L 32.333333333333336 23.0 L 33.0 22.0 L 34.0 21.0 L 35.0 20.0 L 36.0 19.0 L 36.666666666666664 18.0 L 36.666666666666664 17.333333333333332 L 36.0 17.0 L 35.0 17.0 L 34.0 17.333333333333332 L 33.0 18.0 L 32.0 19.0 L 31.0 20.0 L 30.333333333333332 21.0 L 29.666666666666668 22.0 L 29.333333333333332 23.0 L 29.0 24.0 L 29.0 25.0 L 29.0 26.0 L 29.0 27.0 L 29.0 28.0 L 29.0 29.0 L 28.666666666666668 30.0 L 28.0 31.0 L 27.333333333333332 32.0 L 27.0 33.0 L 26.666666666666668 34.0 L 26.333333333333332 35.0 L 25.666666666666668 36.0 L 25.333333333333332 37.0 L 25.0 38.0 L 25.0 39.0 L 25.0 40.0 L 24.666666666666668 41.0 L 24.333333333333332 42.0 L 24.0 43.0 L 24.0 44.0 L 24.0 45.0 L 24.0 46.0 L 24.0 47.0 L 24.333333333333332 48.0 L 24.333333333333332 49.0 L 24.0 49.666666666666664 L 23.333333333333332 50.333333333333336 L 23.0 51.0 L 22.666666666666668 52.0 L 22.333333333333332 53.0 L 22.0 54.0 L 22.0 55.0 L 22.0 56.0 L 22.0 57.0 L 22.0 58.0 L 22.0 59.0 L 22.0 60.0 L 22.0 61.0 L 22.0 62.0 L 22.0 63.0 L 22.0 64.0 L 22.0 65.0 L 22.0 66.0 L 22.0 67.0 L 22.333333333333332 68.0 L 22.666666666666668 69.0 L 23.333333333333332 70.0 L 23.666666666666668 71.0 L 24.333333333333332 72.0 L 25.0 72.66666666666667 L 25.666666666666668 72.66666666666667 L 26.0 72.0 L 26.0 71.0 L 25.666666666666668 70.0 L 25.333333333333332 69.0 L 25.0 68.0 L 24.666666666666668 67.0 L 24.333333333333332 66.0 L 24.333333333333332 65.0 L 24.666666666666668 64.0 L 25.0 63.0 L 25.0 62.0 L 25.0 61.0 L 25.0 60.0 L 25.0 59.0 L 25.0 58.0 L 25.0 57.0 L 24.666666666666668 56.0 L 24.333333333333332 55.0 L 24.333333333333332 54.0 L 25.0 53.0 L 26.0 52.0 L 26.666666666666668 51.0 L 27.0 50.0 L 26.666666666666668 49.0 L 26.333333333333332 48.0 L 26.0 47.0 L 26.0 46.0 L 26.0 45.0 L 26.0 44.0 L 26.0 43.0 L 26.333333333333332 42.0 L 26.666666666666668 41.0 L 27.0 40.0 L 27.0 39.0 L 27.333333333333332 38.0 L 27.666666666666668 37.0 L 28.333333333333332 36.0 L 28.666666666666668 35.0 L 29.333333333333332 34.0 L 29.5 33.5 Z" stroke="none" fill="rgb(96,66,56)" />
<path d="M 88.5 21.5 L 89.0 21.666666666666668 L 90.0 21.666666666666668 L 90.66666666666667 21.0 L 90.66666666666667 20.333333333333332 L 90.0 19.666666666666668 L 89.33333333333333 19.0 L 88.66666666666667 18.333333333333332 L 88.0 18.0 L 87.33333333333333 18.333333333333332 L 87.0 19.0 L 87.33333333333333 20.0 L 87.5 20.5 Z" stroke="none" fill="rgb(96,66,56)" />
<path d="M 104.5 50.0 L 105.0 49.666666666666664 L 105.66666666666667 49.0 L 106.33333333333333 48.0 L 106.66666666666667 47.0 L 107.0 46.0 L 107.0 45.0 L 107.0 44.0 L 106.66666666666667 43.0 L 106.33333333333333 42.0 L 105.66666666666667 41.0 L 105.33333333333333 40.0 L 105.0 39.0 L 105.0 38.0 L 104.66666666666667 37.0 L 104.33333333333333 36.0 L 104.0 35.0 L 103.66666666666667 34.0 L 103.33333333333333 33.0 L 103.0 32.0 L 102.66666666666667 31.0 L 102.33333333333333 30.0 L 101.66666666666667 29.0 L 101.0 28.0 L 100.33333333333333 27.0 L 99.66666666666667 26.0 L 99.0 25.0 L 98.33333333333333 24.0 L 97.66666666666667 23.0 L 97.0 22.0 L 96.0 21.0 L 95.0 20.0 L 94.0 19.0 L 93.0 18.333333333333332 L 92.0 18.333333333333332 L 91.33333333333333 19.0 L 91.33333333333333 20.0 L 92.0 21.0 L 93.0 22.0 L 94.0 23.0 L 95.0 24.0 L 95.66666666666667 25.0 L 96.33333333333333 26.0 L 97.0 27.0 L 98.0 28.0 L 98.66666666666667 29.0 L 99.33333333333333 30.0 L 99.66666666666667 31.0 L 100.33333333333333 32.0 L 100.66666666666667 33.0 L 101.33333333333333 34.0 L 101.66666666666667 35.0 L 102.0 36.0 L 102.33333333333333 37.0 L 102.66666666666667 38.0 L 103.0 39.0 L 103.0 40.0 L 103.33333333333333 41.0 L 103.66666666666667 42.0 L 104.0 43.0 L 104.0 44.0 L 104.0 45.0 L 104.0 46.0 L 104.0 47.0 L 104.0 48.0 L 104.0 49.0 L 104.0 49.5 Z" stroke="none" fill="rgb(96,66,56)" />
<path d="M 105.5 33.5 L 105.66666666666667 34.0 L 106.0 35.0 L 106.33333333333333 36.0 L 107.0 36.666666666666664 L 107.66666666666667 36.666666666666664 L 108.0 36.0 L 108.0 35.0 L 107.66666666666667 34.0 L 107.33333333333333 33.0 L 107.0 32.0 L 107.0 31.0 L 107.0 30.0 L 106.66666666666667 29.0 L 106.33333333333333 28.0 L 106.0 27.0 L 105.66666666666667 26.0 L 105.0 25.0 L 104.33333333333333 24.0 L 103.66666666666667 23.0 L 103.0 22.0 L 102.0 21.0 L 101.0 20.0 L 100.0 19.0 L 99.0 18.333333333333332 L 98.0 18.0 L 97.33333333333333 18.333333333333332 L 97.0 19.0 L 97.33333333333333 20.0 L 98.0 21.0 L 99.0 22.0 L 99.66666666666667 23.0 L 100.33333333333333 24.0 L 101.0 25.0 L 101.66666666666667 26.0 L 102.33333333333333 27.0 L 102.66666666666667 28.0 L 103.33333333333333 29.0 L 103.66666666666667 30.0 L 104.33333333333333 31.0 L 104.66666666666667 32.0 L 105.0 32.5 Z" stroke="none" fill="rgb(108,76,64)" />
<path d="M 87.5 22.0 L 88.0 22.0 L 88.66666666666667 21.666666666666668 L 88.66666666666667 21.0 L 88.0 20.0 L 87.0 19.333333333333332 L 86.33333333333333 19.333333333333332 L 86.0 20.0 L 86.33333333333333 21.0 L 86.5 21.5 Z" stroke="none" fill="rgb(90,62,52)" />
<path d="M 105.0 51.5 L 105.0 51.0 L 104.66666666666667 50.0 L 104.33333333333333 49.0 L 104.0 48.0 L 104.0 47.0 L 104.0 46.0 L 104.0 45.0 L 104.0 44.0 L 104.0 43.0 L 104.0 42.0 L 103.66666666666667 41.0 L 103.33333333333333 40.0 L 103.0 39.0 L 103.0 38.0 L 102.66666666666667 37.0 L 102.33333333333333 36.0 L 102.0 35.0 L 101.66666666666667 34.0 L 101.33333333333333 33.0 L 100.66666666666667 32.0 L 100.33333333333333 31.0 L 99.66666666666667 30.0 L 99.33333333333333 29.0 L 98.66666666666667 28.0 L 98.0 27.0 L 97.0 26.0 L 96.33333333333333 25.0 L 95.66666666666667 24.0 L 95.0 23.0 L 94.0 22.0 L 93.0 21.0 L 92.0 20.333333333333332 L 91.0 20.333333333333332 L 90.33333333333333 21.0 L 90.33333333333333 22.0 L 91.0 23.0 L 92.0 24.0 L 93.0 25.0 L 94.0 26.0 L 95.0 27.0 L 95.66666666666667 28.0 L 96.33333333333333 29.0 L 97.0 30.0 L 97.66666666666667 31.0 L 98.33333333333333 32.0 L 98.66666666666667 33.0 L 99.33333333333333 34.0 L 99.66666666666667 35.0 L 100.0 36.0 L 100.33333333333333 37.0 L 100.66666666666667 38.0 L 101.0 39.0 L 101.33333333333333 40.0 L 101.66666666666667 41.0 L 102.0 42.0 L 102.0 43.0 L 102.0 44.0 L 102.0 45.0 L 102.0 46.0 L 102.0 47.0 L 102.0 48.0 L 102.0 49.0 L 102.0 50.0 L 102.0 51.0 L 102.0 52.0 L 102.0 53.0 L 102.33333333333333 54.0 L 103.0 54.666666666666664 L 103.66666666666667 54.666666666666664 L 104.0 54.0 L 104.33333333333333 53.0 L 104.5 52.5 Z" stroke="none" fill="rgb(90,62,52)" />
<path d="M 23.5 43.0 L 24.0 42.666666666666664 L 24.666666666666668 42.0 L 25.0 41.0 L 25.0 40.0 L 25.0 39.0 L 25.333333333333332 38.0 L 25.666666666666668 37.0 L 26.333333333333332 36.0 L 26.666666666666668 35.0 L 27.0 34.0 L 27.0 33.0 L 26.666666666666668 32.333333333333336 L 26.0 32.333333333333336 L 25.333333333333332 33.0 L 24.666666666666668 34.0 L 24.333333333333332 35.0 L 24.0 36.0 L 23.666666666666668 37.0 L 23.333333333333332 38.0 L 23.0 39.0 L 23.0 40.0 L 23.0 41.0 L 23.0 42.0 L 23.0 42.5 Z" stroke="none" fill="rgb(102,71,60)" />
<path d="M 31.0 33.5 L 31.0 33.0 L 30.666666666666668 32.333333333333336 L 30.0 32.333333333333336 L 29.333333333333332 33.0 L 28.666666666666668 34.0 L 28.333333333333332 35.0 L 27.666666666666668 36.0 L 27.333333333333332 37.0 L 27.0 38.0 L 27.0 39.0 L 26.666666666666668 40.0 L 26.333333333333332 41.0 L 26.0 42.0 L 26.0 43.0 L 26.0 44.0 L 26.0 45.0 L 26.0 46.0 L 26.0 47.0 L 26.0 48.0 L 26.333333333333332 49.0 L 26.333333333333332 50.0 L 26.333333333333332 51.0 L 26.333333333333332 51.666666666666664 L 27.0 52.0 L 27.666666666666668 51.666666666666664 L 28.0 51.0 L 28.0 50.0 L 28.0 49.0 L 28.0 48.0 L 28.0 47.0 L 28.0 46.0 L 28.0 45.0 L 28.0 44.0 L 28.0 43.0 L 28.0 42.0 L 28.0 41.0 L 28.333333333333332 40.0 L 28.666666666666668 39.0 L 29.0 38.0 L 29.333333333333332 37.0 L 29.666666666666668 36.0 L 30.333333333333332 35.0 L 30.5 34.5 Z" stroke="none" fill="rgb(90,62,52)" />
<path d="M 55.5 96.0 L 56.0 96.0 L 57.0 96.0 L 58.0 96.0 L 59.0 96.0 L 60.0 96.0 L 61.0 96.0 L 62.0 96.0 L 63.0 96.0 L 63.666666666666664 95.66666666666667 L 64.0 95.0 L 63.666666666666664 94.0 L 63.333333333333336 93.0 L 63.0 92.0 L 63.0 91.0 L 63.0 90.0 L 62.666666666666664 89.0 L 62.333333333333336 88.0 L 62.0 87.0 L 61.666666666666664 86.0 L 61.0 85.0 L 60.0 84.0 L 59.0 83.33333333333333 L 58.0 82.66666666666667 L 57.666666666666664 82.0 L 58.0 81.33333333333333 L 58.666666666666664 80.66666666666667 L 58.666666666666664 80.0 L 58.333333333333336 79.0 L 57.666666666666664 78.0 L 57.0 77.0 L 56.0 76.0 L 55.333333333333336 75.0 L 54.666666666666664 74.0 L 54.0 73.0 L 53.333333333333336 72.0 L 52.666666666666664 71.0 L 52.333333333333336 70.0 L 51.666666666666664 69.0 L 51.0 68.0 L 50.0 67.0 L 49.0 66.0 L 48.0 65.0 L 47.0 64.33333333333333 L 46.0 63.666666666666664 L 45.0 63.0 L 44.0 62.0 L 43.666666666666664 61.0 L 43.666666666666664 60.0 L 44.0 59.0 L 44.0 58.0 L 44.0 57.0 L 43.666666666666664 56.0 L 43.333333333333336 55.0 L 42.666666666666664 54.0 L 42.0 53.0 L 41.666666666666664 52.0 L 42.0 51.333333333333336 L 43.0 51.0 L 44.0 51.333333333333336 L 44.666666666666664 52.0 L 45.333333333333336 53.0 L 45.666666666666664 54.0 L 46.333333333333336 55.0 L 46.666666666666664 56.0 L 47.333333333333336 57.0 L 48.0 58.0 L 48.666666666666664 59.0 L 49.333333333333336 60.0 L 50.0 61.0 L 50.666666666666664 62.0 L 51.333333333333336 63.0 L 52.0 63.666666666666664 L 53.0 63.666666666666664 L 54.0 63.333333333333336 L 55.0 63.0 L 56.0 62.666666666666664 L 57.0 62.333333333333336 L 58.0 61.666666666666664 L 59.0 61.333333333333336 L 60.0 60.666666666666664 L 61.0 60.333333333333336 L 62.0 59.666666666666664 L 63.0 59.333333333333336 L 64.0 59.0 L 65.0 58.666666666666664 L 66.0 58.333333333333336 L 67.0 57.666666666666664 L 68.0 57.333333333333336 L 69.0 56.666666666666664 L 70.0 56.333333333333336 L 71.0 56.0 L 72.0 55.666666666666664 L 73.0 55.333333333333336 L 74.0 54.666666666666664 L 75.0 54.333333333333336 L 76.0 53.666666666666664 L 77.0 53.333333333333336 L 78.0 52.666666666666664 L 79.0 52.333333333333336 L 80.0 52.333333333333336 L 81.0 53.0 L 81.66666666666667 54.0 L 82.0 55.0 L 82.0 56.0 L 82.0 57.0 L 82.0 58.0 L 82.33333333333333 58.666666666666664 L 83.0 59.0 L 84.0 59.0 L 85.0 59.333333333333336 L 85.66666666666667 60.0 L 85.66666666666667 61.0 L 85.0 62.0 L 84.0 63.0 L 83.33333333333333 64.0 L 83.0 65.0 L 83.0 66.0 L 83.0 67.0 L 83.0 68.0 L 83.0 69.0 L 83.0 70.0 L 83.0 71.0 L 83.0 72.0 L 83.0 73.0 L 83.33333333333333 74.0 L 84.0 75.0 L 84.66666666666667 76.0 L 85.33333333333333 77.0 L 85.66666666666667 78.0 L 86.33333333333333 79.0 L 86.66666666666667 80.0 L 87.33333333333333 81.0 L 88.0 82.0 L 89.0 82.66666666666667 L 90.0 82.66666666666667 L 91.0 82.0 L 91.66666666666667 81.0 L 92.33333333333333 80.0 L 92.66666666666667 79.0 L 93.33333333333333 78.0 L 93.66666666666667 77.0 L 94.33333333333333 76.0 L 94.66666666666667 75.0 L 95.33333333333333 74.0 L 95.66666666666667 73.0 L 96.0 72.0 L 96.0 71.0 L 96.33333333333333 70.0 L 96.66666666666667 69.0 L 97.0 68.0 L 97.0 67.0 L 97.0 66.0 L 96.66666666666667 65.0 L 96.0 64.0 L 95.33333333333333 63.0 L 95.0 62.0 L 95.0 61.0 L 95.0 60.0 L 95.0 59.0 L 95.0 58.0 L 95.0 57.0 L 95.0 56.0 L 94.66666666666667 55.0 L 94.33333333333333 54.0 L 94.0 53.0 L 94.0 52.0 L 94.0 51.0 L 94.0 50.0 L 94.0 49.0 L 93.66666666666667 48.0 L 93.33333333333333 47.0 L 93.0 46.0 L 92.66666666666667 45.0 L 92.33333333333333 44.0 L 92.0 43.0 L 91.66666666666667 42.0 L 91.0 41.0 L 90.0 40.0 L 89.0 39.0 L 88.0 38.333333333333336 L 87.0 37.666666666666664 L 86.0 37.333333333333336 L 85.0 37.0 L 84.0 36.666666666666664 L 83.0 36.333333333333336 L 82.0 36.0 L 81.0 35.666666666666664 L 80.0 35.0 L 79.0 34.0 L 78.0 33.0 L 77.0 32.333333333333336 L 76.0 32.0 L 75.0 32.0 L 74.0 32.0 L 73.0 32.0 L 72.0 32.0 L 71.0 32.0 L 70.0 32.0 L 69.0 32.0 L 68.0 32.333333333333336 L 67.33333333333333 33.0 L 67.0 34.0 L 66.66666666666667 35.0 L 66.0 35.666666666666664 L 65.0 36.0 L 64.0 36.0 L 63.333333333333336 36.333333333333336 L 63.0 37.0 L 63.0 38.0 L 63.0 39.0 L 62.666666666666664 40.0 L 62.0 40.333333333333336 L 61.0 40.0 L 60.333333333333336 39.0 L 59.666666666666664 38.333333333333336 L 59.0 37.666666666666664 L 58.0 37.333333333333336 L 57.0 37.0 L 56.0 37.333333333333336 L 55.333333333333336 38.0 L 55.0 39.0 L 55.0 40.0 L 55.0 41.0 L 55.333333333333336 42.0 L 56.0 43.0 L 56.666666666666664 44.0 L 56.666666666666664 45.0 L 56.0 45.333333333333336 L 55.0 45.0 L 54.0 44.0 L 53.0 43.333333333333336 L 52.0 43.0 L 51.0 43.333333333333336 L 50.333333333333336 44.0 L 50.0 45.0 L 50.0 46.0 L 50.0 47.0 L 50.333333333333336 48.0 L 50.666666666666664 49.0 L 51.333333333333336 50.0 L 51.666666666666664 51.0 L 51.666666666666664 52.0 L 51.0 52.333333333333336 L 50.0 52.0 L 49.0 51.0 L 48.0 50.0 L 47.333333333333336 49.0 L 46.666666666666664 48.0 L 46.0 47.0 L 45.333333333333336 46.0 L 44.666666666666664 45.333333333333336 L 44.0 45.0 L 43.0 45.333333333333336 L 42.0 45.666666666666664 L 41.0 46.333333333333336 L 40.0 46.666666666666664 L 39.0 47.0 L 38.0 47.0 L 37.0 47.333333333333336 L 36.333333333333336 48.0 L 36.0 49.0 L 36.0 50.0 L 36.0 51.0 L 35.666666666666664 52.0 L 35.333333333333336 53.0 L 35.0 54.0 L 35.0 55.0 L 35.0 56.0 L 34.666666666666664 57.0 L 34.333333333333336 58.0 L 34.0 59.0 L 34.0 60.0 L 33.666666666666664 61.0 L 33.333333333333336 62.0 L 33.0 63.0 L 33.0 64.0 L 32.666666666666664 65.0 L 32.333333333333336 66.0 L 32.0 67.0 L 32.0 68.0 L 32.0 69.0 L 32.0 70.0 L 32.0 71.0 L 32.0 72.0 L 32.333333333333336 73.0 L 32.666666666666664 74.0 L 33.333333333333336 75.0 L 33.666666666666664 76.0 L 34.333333333333336 77.0 L 34.666666666666664 78.0 L 35.333333333333336 79.0 L 35.666666666666664 80.0 L 36.333333333333336 81.0 L 37.0 82.0 L 38.0 83.0 L 39.0 84.0 L 40.0 85.0 L 41.0 86.0 L 42.0 87.0 L 43.0 88.0 L 44.0 89.0 L 44.666666666666664 90.0 L 45.333333333333336 90.66666666666667 L 46.0 91.33333333333333 L 47.0 92.0 L 48.0 92.66666666666667 L 49.0 93.0 L 50.0 93.33333333333333 L 51.0 93.66666666666667 L 52.0 94.33333333333333 L 53.0 95.0 L 54.0 95.66666666666667 L 54.5 96.0 Z" stroke="none" fill="rgb(186,141,104)" />
<path d="M 61.5 41.5 L 61.666666666666664 42.0 L 62.333333333333336 43.0 L 63.0 43.666666666666664 L 63.666666666666664 43.666666666666664 L 64.0 43.0 L 64.0 42.0 L 63.666666666666664 41.0 L 63.333333333333336 40.0 L 63.0 39.0 L 63.0 38.0 L 63.0 37.0 L 63.0 36.0 L 62.666666666666664 35.333333333333336 L 62.0 35.0 L 61.0 35.333333333333336 L 60.333333333333336 36.0 L 60.0 37.0 L 60.0 38.0 L 60.0 39.0 L 60.333333333333336 40.0 L 60.5 40.5 Z" stroke="none" fill="rgb(151,114,84)" />
<path d="M 56.0 37.5 L 56.0 37.0 L 55.666666666666664 36.333333333333336 L 55.0 36.0 L 54.0 36.0 L 53.0 36.333333333333336 L 52.333333333333336 37.0 L 51.666666666666664 38.0 L 51.333333333333336 39.0 L 51.0 40.0 L 51.333333333333336 41.0 L 52.0 41.666666666666664 L 53.0 41.666666666666664 L 54.0 41.333333333333336 L 54.666666666666664 40.666666666666664 L 55.0 40.0 L 55.333333333333336 39.0 L 55.5 38.5 Z" stroke="none" fill="rgb(72,51,42)" />
<path d="M 56.5 48.5 L 57.0 49.0 L 58.0 49.666666666666664 L 58.666666666666664 49.666666666666664 L 59.0 49.0 L 59.0 48.0 L 58.666666666666664 47.0 L 58.333333333333336 46.0 L 57.666666666666664 45.0 L 57.333333333333336 44.0 L 56.666666666666664 43.0 L 56.0 42.0 L 55.0 41.333333333333336 L 54.0 41.0 L 53.333333333333336 41.333333333333336 L 53.0 42.0 L 53.0 43.0 L 53.333333333333336 44.0 L 54.0 45.0 L 55.0 46.0 L 55.666666666666664 47.0 L 56.0 47.5 Z" stroke="none" fill="rgb(151,114,84)" />
<path d="M 48.5 49.0 L 49.0 49.0 L 50.0 49.0 L 50.666666666666664 48.666666666666664 L 50.666666666666664 48.0 L 50.333333333333336 47.0 L 50.0 46.0 L 49.666666666666664 45.0 L 49.0 44.333333333333336 L 48.0 44.0 L 47.0 44.0 L 46.0 44.333333333333336 L 45.333333333333336 45.0 L 45.0 46.0 L 45.333333333333336 47.0 L 46.0 48.0 L 47.0 48.666666666666664 L 47.5 49.0 Z" stroke="none" fill="rgb(151,114,84)" />
<path d="M 23.0 52.5 L 23.0 52.0 L 23.333333333333332 51.0 L 24.0 50.333333333333336 L 24.666666666666668 49.666666666666664 L 25.0 49.0 L 24.666666666666668 48.0 L 24.0 47.333333333333336 L 23.0 47.333333333333336 L 22.333333333333332 48.0 L 21.666666666666668 49.0 L 21.333333333333332 50.0 L 21.0 51.0 L 21.0 52.0 L 21.0 53.0 L 20.666666666666668 54.0 L 20.0 55.0 L 19.333333333333332 56.0 L 19.0 57.0 L 19.0 58.0 L 19.333333333333332 59.0 L 19.666666666666668 60.0 L 20.0 61.0 L 20.0 62.0 L 20.0 63.0 L 20.333333333333332 64.0 L 21.0 64.66666666666667 L 21.666666666666668 64.66666666666667 L 22.0 64.0 L 22.0 63.0 L 22.0 62.0 L 22.0 61.0 L 22.0 60.0 L 22.0 59.0 L 22.0 58.0 L 22.0 57.0 L 22.0 56.0 L 22.0 55.0 L 22.333333333333332 54.0 L 22.5 53.5 Z" stroke="none" fill="rgb(102,71,60)" />
<path d="M 107.5 53.5 L 108.0 53.666666666666664 L 108.66666666666667 53.666666666666664 L 109.0 53.0 L 109.0 52.0 L 108.66666666666667 51.0 L 108.33333333333333 50.0 L 108.0 49.0 L 108.0 48.0 L 107.66666666666667 47.333333333333336 L 107.0 47.0 L 106.33333333333333 47.333333333333336 L 106.0 48.0 L 106.33333333333333 49.0 L 106.66666666666667 50.0 L 107.0 51.0 L 107.0 52.0 L 107.0 52.5 Z" stroke="none" fill="rgb(108,76,64)" />
<path d="M 49.5 52.5 L 50.0 53.0 L 51.0 53.666666666666664 L 52.0 54.0 L 52.666666666666664 53.666666666666664 L 53.0 53.0 L 52.666666666666664 52.0 L 52.333333333333336 51.0 L 51.666666666666664 50.0 L 51.0 49.333333333333336 L 50.0 49.0 L 49.0 49.0 L 48.0 49.0 L 47.333333333333336 49.333333333333336 L 47.333333333333336 50.0 L 48.0 51.0 L 48.5 51.5 Z" stroke="none" fill="rgb(72,51,42)" />
<path d="M 108.0 63.5 L 108.0 63.0 L 108.0 62.0 L 108.33333333333333 61.0 L 108.66666666666667 60.0 L 109.0 59.0 L 109.0 58.0 L 109.0 57.0 L 109.0 56.0 L 109.0 55.0 L 108.66666666666667 54.0 L 108.0 53.0 L 107.33333333333333 52.0 L 107.0 51.0 L 107.0 50.0 L 106.66666666666667 49.333333333333336 L 106.0 49.0 L 105.33333333333333 49.333333333333336 L 105.0 50.0 L 105.0 51.0 L 105.33333333333333 52.0 L 105.66666666666667 53.0 L 106.0 54.0 L 106.0 55.0 L 106.0 56.0 L 106.0 57.0 L 106.0 58.0 L 106.0 59.0 L 106.0 60.0 L 106.0 61.0 L 106.0 62.0 L 106.0 63.0 L 106.0 64.0 L 106.33333333333333 64.66666666666667 L 107.0 64.66666666666667 L 107.5 64.5 Z" stroke="none" fill="rgb(102,71,60)" />
<path d="M 42.5 54.0 L 43.0 54.0 L 43.666666666666664 53.666666666666664 L 43.666666666666664 53.0 L 43.333333333333336 52.0 L 43.0 51.0 L 42.666666666666664 50.333333333333336 L 42.0 50.333333333333336 L 41.333333333333336 51.0 L 41.0 52.0 L 41.333333333333336 53.0 L 41.5 53.5 Z" stroke="none" fill="rgb(90,62,52)" />
<path d="M 85.5 54.0 L 86.0 54.0 L 86.66666666666667 53.666666666666664 L 87.0 53.0 L 87.0 52.0 L 86.66666666666667 51.0 L 86.0 50.333333333333336 L 85.0 50.333333333333336 L 84.33333333333333 51.0 L 84.0 52.0 L 84.33333333333333 53.0 L 84.5 53.5 Z" stroke="none" fill="rgb(90,62,52)" />
<path d="M 44.5 53.0 L 44.666666666666664 52.666666666666664 L 45.0 52.0 L 44.666666666666664 51.333333333333336 L 44.0 51.0 L 43.333333333333336 51.333333333333336 L 43.0 52.0 L 43.333333333333336 52.666666666666664 L 43.5 53.0 Z" stroke="none" fill="rgb(84,57,48)" />
<path d="M 26.0 54.5 L 26.0 54.0 L 26.0 53.0 L 25.666666666666668 52.333333333333336 L 25.0 52.333333333333336 L 24.333333333333332 53.0 L 24.0 54.0 L 24.0 55.0 L 24.333333333333332 55.666666666666664 L 25.0 55.666666666666664 L 25.5 55.5 Z" stroke="none" fill="rgb(90,62,52)" />
<path d="M 65.5 63.0 L 66.0 63.0 L 67.0 62.666666666666664 L 68.0 62.333333333333336 L 69.0 61.666666666666664 L 70.0 61.333333333333336 L 71.0 60.666666666666664 L 72.0 60.333333333333336 L 73.0 59.666666666666664 L 74.0 59.333333333333336 L 75.0 59.0 L 76.0 58.666666666666664 L 77.0 58.333333333333336 L 78.0 57.666666666666664 L 79.0 57.666666666666664 L 80.0 58.0 L 81.0 58.666666666666664 L 81.66666666666667 58.666666666666664 L 82.0 58.0 L 82.0 57.0 L 82.0 56.0 L 82.0 55.0 L 82.0 54.0 L 81.66666666666667 53.0 L 81.0 52.333333333333336 L 80.0 52.0 L 79.0 52.0 L 78.0 52.333333333333336 L 77.0 52.666666666666664 L 76.0 53.333333333333336 L 75.0 53.666666666666664 L 74.0 54.333333333333336 L 73.0 54.666666666666664 L 72.0 55.333333333333336 L 71.0 55.666666666666664 L 70.0 56.0 L 69.0 56.333333333333336 L 68.0 56.666666666666664 L 67.0 57.333333333333336 L 66.0 57.666666666666664 L 65.0 58.333333333333336 L 64.0 58.666666666666664 L 63.0 59.0 L 62.0 59.333333333333336 L 61.0 59.666666666666664 L 60.0 60.333333333333336 L 59.0 60.666666666666664 L 58.0 61.333333333333336 L 57.0 61.666666666666664 L 56.0 62.333333333333336 L 55.0 62.666666666666664 L 54.0 63.0 L 53.333333333333336 63.333333333333336 L 53.0 64.0 L 53.333333333333336 65.0 L 54.0 66.0 L 55.0 66.66666666666667 L 56.0 67.0 L 57.0 66.66666666666667 L 58.0 66.33333333333333 L 59.0 66.0 L 60.0 65.66666666666667 L 61.0 65.33333333333333 L 62.0 64.66666666666667 L 63.0 64.33333333333333 L 64.0 63.666666666666664 L 64.5 63.5 Z" stroke="none" fill="rgb(182,138,102)" />
<path d="M 104.5 57.5 L 105.0 57.666666666666664 L 105.66666666666667 57.666666666666664 L 106.0 57.0 L 106.0 56.0 L 106.0 55.0 L 106.0 54.0 L 106.0 53.0 L 105.66666666666667 52.333333333333336 L 105.0 52.0 L 104.33333333333333 52.333333333333336 L 104.0 53.0 L 104.0 54.0 L 104.0 55.0 L 104.0 56.0 L 104.0 56.5 Z" stroke="none" fill="rgb(96,66,56)" />
<path d="M 47.5 60.0 L 48.0 60.0 L 48.666666666666664 59.666666666666664 L 49.0 59.0 L 48.666666666666664 58.0 L 48.0 57.0 L 47.333333333333336 56.0 L 46.666666666666664 55.0 L 46.333333333333336 54.0 L 45.666666666666664 53.333333333333336 L 45.0 53.0 L 44.0 53.333333333333336 L 43.333333333333336 54.0 L 43.0 55.0 L 43.333333333333336 56.0 L 43.666666666666664 57.0 L 44.0 58.0 L 44.0 59.0 L 44.333333333333336 59.666666666666664 L 45.0 60.0 L 46.0 60.0 L 46.5 60.0 Z" stroke="none" fill="rgb(168,126,96)" />
<path d="M 29.5 71.5 L 30.0 71.66666666666667 L 31.0 72.0 L 31.666666666666668 71.66666666666667 L 32.0 71.0 L 32.0 70.0 L 32.0 69.0 L 32.0 68.0 L 31.666666666666668 67.0 L 31.0 66.0 L 30.333333333333332 65.0 L 30.0 64.0 L 29.666666666666668 63.0 L 29.333333333333332 62.0 L 29.0 61.0 L 29.0 60.0 L 29.0 59.0 L 29.0 58.0 L 29.0 57.0 L 28.666666666666668 56.333333333333336 L 28.0 56.0 L 27.333333333333332 56.333333333333336 L 27.0 57.0 L 26.666666666666668 58.0 L 26.0 59.0 L 25.333333333333332 60.0 L 25.0 61.0 L 25.0 62.0 L 25.0 63.0 L 25.333333333333332 64.0 L 25.666666666666668 65.0 L 26.333333333333332 66.0 L 26.666666666666668 67.0 L 27.333333333333332 68.0 L 27.666666666666668 69.0 L 28.333333333333332 70.0 L 28.5 70.5 Z" stroke="none" fill="rgb(153,103,79)" />
<path d="M 59.5 71.0 L 60.0 70.66666666666667 L 61.0 70.33333333333333 L 62.0 70.0 L 63.0 69.66666666666667 L 64.0 69.33333333333333 L 65.0 68.66666666666667 L 66.0 68.33333333333333 L 67.0 67.66666666666667 L 68.0 67.33333333333333 L 69.0 67.0 L 70.0 66.66666666666667 L 71.0 66.33333333333333 L 72.0 65.66666666666667 L 73.0 65.33333333333333 L 74.0 64.66666666666667 L 75.0 64.33333333333333 L 76.0 63.666666666666664 L 77.0 63.333333333333336 L 78.0 63.0 L 79.0 62.666666666666664 L 80.0 62.333333333333336 L 80.66666666666667 61.666666666666664 L 81.33333333333333 61.0 L 81.66666666666667 60.0 L 81.66666666666667 59.0 L 81.0 58.0 L 80.0 57.333333333333336 L 79.0 57.0 L 78.0 57.333333333333336 L 77.0 57.666666666666664 L 76.0 58.333333333333336 L 75.0 58.666666666666664 L 74.0 59.0 L 73.0 59.333333333333336 L 72.0 59.666666666666664 L 71.0 60.333333333333336 L 70.0 60.666666666666664 L 69.0 61.333333333333336 L 68.0 61.666666666666664 L 67.0 62.333333333333336 L 66.0 62.666666666666664 L 65.0 63.0 L 64.0 63.333333333333336 L 63.0 63.666666666666664 L 62.0 64.33333333333333 L 61.0 64.66666666666667 L 60.0 65.33333333333333 L 59.0 65.66666666666667 L 58.0 66.0 L 57.0 66.33333333333333 L 56.0 66.66666666666667 L 55.333333333333336 67.33333333333333 L 55.0 68.0 L 55.333333333333336 69.0 L 56.0 70.0 L 57.0 70.66666666666667 L 58.0 71.0 L 58.5 71.0 Z" stroke="none" fill="rgb(177,134,101)" />
<path d="M 101.5 74.5 L 102.0 74.0 L 102.66666666666667 73.0 L 103.0 72.0 L 103.0 71.0 L 103.0 70.0 L 103.33333333333333 69.0 L 103.66666666666667 68.0 L 104.0 67.0 L 104.0 66.0 L 104.0 65.0 L 104.0 64.0 L 104.33333333333333 63.0 L 105.0 62.333333333333336 L 105.66666666666667 61.666666666666664 L 106.0 61.0 L 106.0 60.0 L 106.0 59.0 L 105.66666666666667 58.0 L 105.0 57.333333333333336 L 104.0 57.0 L 103.33333333333333 57.333333333333336 L 102.66666666666667 58.0 L 102.33333333333333 59.0 L 102.0 60.0 L 102.0 61.0 L 102.0 62.0 L 102.0 63.0 L 102.0 64.0 L 102.0 65.0 L 102.0 66.0 L 101.66666666666667 67.0 L 101.33333333333333 68.0 L 100.66666666666667 69.0 L 100.33333333333333 70.0 L 100.0 71.0 L 99.66666666666667 72.0 L 99.33333333333333 73.0 L 99.33333333333333 74.0 L 100.0 74.66666666666667 L 100.5 75.0 Z" stroke="none" fill="rgb(90,62,52)" />
<path d="M 84.5 63.5 L 85.0 63.0 L 85.66666666666667 62.0 L 86.0 61.0 L 86.0 60.0 L 85.66666666666667 59.333333333333336 L 85.0 59.0 L 84.0 59.0 L 83.0 59.0 L 82.0 59.333333333333336 L 81.33333333333333 60.0 L 81.0 61.0 L 81.0 62.0 L 81.33333333333333 63.0 L 82.0 63.666666666666664 L 83.0 64.0 L 83.5 64.0 Z" stroke="none" fill="rgb(72,51,42)" />
<path d="M 98.5 71.5 L 99.0 71.0 L 100.0 70.33333333333333 L 100.66666666666667 69.66666666666667 L 101.33333333333333 69.0 L 101.66666666666667 68.0 L 102.0 67.0 L 102.0 66.0 L 102.0 65.0 L 102.0 64.0 L 102.0 63.0 L 102.0 62.0 L 102.0 61.0 L 102.0 60.0 L 101.66666666666667 59.333333333333336 L 101.0 59.0 L 100.33333333333333 59.333333333333336 L 99.66666666666667 60.0 L 99.33333333333333 61.0 L 98.66666666666667 62.0 L 98.33333333333333 63.0 L 97.66666666666667 64.0 L 97.33333333333333 65.0 L 97.0 66.0 L 97.0 67.0 L 96.66666666666667 68.0 L 96.33333333333333 69.0 L 96.0 70.0 L 96.0 71.0 L 96.33333333333333 71.66666666666667 L 97.0 72.0 L 97.5 72.0 Z" stroke="none" fill="rgb(153,103,79)" />
<path d="M 49.5 67.0 L 49.666666666666664 66.66666666666667 L 50.0 66.0 L 50.333333333333336 65.0 L 50.666666666666664 64.0 L 51.0 63.0 L 51.0 62.0 L 50.666666666666664 61.0 L 50.0 60.333333333333336 L 49.0 60.0 L 48.0 60.0 L 47.0 60.0 L 46.0 60.0 L 45.0 60.0 L 44.0 60.0 L 43.333333333333336 60.333333333333336 L 43.0 61.0 L 43.333333333333336 62.0 L 44.0 63.0 L 45.0 63.666666666666664 L 46.0 64.33333333333333 L 47.0 65.0 L 48.0 66.0 L 48.5 66.5 Z" stroke="none" fill="rgb(72,51,42)" />
<path d="M 68.5 72.5 L 69.0 72.33333333333333 L 70.0 71.66666666666667 L 71.0 71.33333333333333 L 72.0 70.66666666666667 L 73.0 70.33333333333333 L 74.0 69.66666666666667 L 75.0 69.33333333333333 L 76.0 69.0 L 77.0 68.66666666666667 L 78.0 68.33333333333333 L 79.0 67.66666666666667 L 80.0 67.33333333333333 L 81.0 67.33333333333333 L 82.0 67.66666666666667 L 82.66666666666667 67.66666666666667 L 83.0 67.0 L 83.0 66.0 L 83.0 65.0 L 82.66666666666667 64.0 L 82.0 63.0 L 81.0 62.333333333333336 L 80.0 62.0 L 79.0 62.333333333333336 L 78.0 62.666666666666664 L 77.0 63.0 L 76.0 63.333333333333336 L 75.0 63.666666666666664 L 74.0 64.33333333333333 L 73.0 64.66666666666667 L 72.0 65.33333333333333 L 71.0 65.66666666666667 L 70.0 66.33333333333333 L 69.0 66.66666666666667 L 68.0 67.0 L 67.0 67.33333333333333 L 66.0 67.66666666666667 L 65.0 68.33333333333333 L 64.0 68.66666666666667 L 63.0 69.33333333333333 L 62.0 69.66666666666667 L 61.0 70.0 L 60.0 70.33333333333333 L 59.0 70.66666666666667 L 58.333333333333336 71.33333333333333 L 58.0 72.0 L 58.333333333333336 73.0 L 59.0 74.0 L 60.0 75.0 L 61.0 75.66666666666667 L 62.0 75.66666666666667 L 63.0 75.0 L 64.0 74.33333333333333 L 65.0 73.66666666666667 L 66.0 73.33333333333333 L 67.0 73.0 L 67.5 73.0 Z" stroke="none" fill="rgb(172,130,99)" />
<path d="M 106.0 68.5 L 106.33333333333333 68.0 L 106.66666666666667 67.0 L 107.0 66.0 L 106.66666666666667 65.0 L 106.33333333333333 64.0 L 106.0 63.0 L 105.66666666666667 62.333333333333336 L 105.0 62.0 L 104.33333333333333 62.333333333333336 L 104.0 63.0 L 104.0 64.0 L 104.0 65.0 L 104.0 66.0 L 103.66666666666667 67.0 L 103.33333333333333 68.0 L 103.0 69.0 L 102.66666666666667 70.0 L 102.33333333333333 71.0 L 102.33333333333333 71.66666666666667 L 103.0 72.0 L 103.66666666666667 71.66666666666667 L 104.33333333333333 71.0 L 105.0 70.0 L 105.5 69.5 Z" stroke="none" fill="rgb(96,66,56)" />
<path d="M 56.5 77.0 L 56.666666666666664 76.66666666666667 L 57.0 76.0 L 57.0 75.0 L 56.666666666666664 74.0 L 56.666666666666664 73.0 L 57.0 72.33333333333333 L 57.666666666666664 71.66666666666667 L 57.666666666666664 71.0 L 57.0 70.0 L 56.0 69.0 L 55.333333333333336 68.0 L 55.0 67.0 L 54.666666666666664 66.0 L 54.0 65.0 L 53.0 64.0 L 52.0 63.333333333333336 L 51.0 63.333333333333336 L 50.333333333333336 64.0 L 50.0 65.0 L 50.0 66.0 L 50.0 67.0 L 50.333333333333336 68.0 L 51.0 69.0 L 51.666666666666664 70.0 L 52.333333333333336 71.0 L 52.666666666666664 72.0 L 53.333333333333336 73.0 L 54.0 74.0 L 54.666666666666664 75.0 L 55.333333333333336 76.0 L 55.5 76.5 Z" stroke="none" fill="rgb(160,120,89)" />
<path d="M 26.5 73.5 L 27.0 74.0 L 28.0 75.0 L 29.0 75.66666666666667 L 29.666666666666668 75.66666666666667 L 30.0 75.0 L 29.666666666666668 74.0 L 29.0 73.0 L 28.666666666666668 72.0 L 28.666666666666668 71.0 L 28.666666666666668 70.0 L 28.333333333333332 69.0 L 27.666666666666668 68.0 L 27.333333333333332 67.0 L 26.666666666666668 66.0 L 26.333333333333332 65.0 L 25.666666666666668 64.33333333333333 L 25.0 64.0 L 24.333333333333332 64.33333333333333 L 24.0 65.0 L 24.0 66.0 L 24.333333333333332 67.0 L 24.666666666666668 68.0 L 25.0 69.0 L 25.333333333333332 70.0 L 25.666666666666668 71.0 L 26.0 72.0 L 26.0 72.5 Z" stroke="none" fill="rgb(90,62,52)" />
<path d="M 73.5 75.0 L 74.0 74.66666666666667 L 75.0 74.33333333333333 L 76.0 73.66666666666667 L 77.0 73.33333333333333 L 78.0 72.66666666666667 L 79.0 72.33333333333333 L 80.0 72.0 L 81.0 72.0 L 82.0 72.0 L 82.66666666666667 71.66666666666667 L 83.0 71.0 L 83.0 70.0 L 83.0 69.0 L 82.66666666666667 68.0 L 82.0 67.33333333333333 L 81.0 67.0 L 80.0 67.0 L 79.0 67.33333333333333 L 78.0 67.66666666666667 L 77.0 68.33333333333333 L 76.0 68.66666666666667 L 75.0 69.0 L 74.0 69.33333333333333 L 73.0 69.66666666666667 L 72.0 70.33333333333333 L 71.0 70.66666666666667 L 70.0 71.33333333333333 L 69.0 71.66666666666667 L 68.0 72.33333333333333 L 67.0 72.66666666666667 L 66.0 73.0 L 65.0 73.33333333333333 L 64.0 73.66666666666667 L 63.0 74.33333333333333 L 62.333333333333336 75.0 L 62.0 76.0 L 62.333333333333336 77.0 L 63.0 78.0 L 64.0 78.66666666666667 L 65.0 78.66666666666667 L 66.0 78.33333333333333 L 67.0 78.0 L 68.0 78.0 L 69.0 78.0 L 69.66666666666667 77.66666666666667 L 70.33333333333333 77.0 L 71.0 76.33333333333333 L 72.0 75.66666666666667 L 72.5 75.5 Z" stroke="none" fill="rgb(168,126,96)" />
<path d="M 97.5 88.0 L 98.0 87.66666666666667 L 99.0 87.33333333333333 L 100.0 87.0 L 101.0 86.66666666666667 L 102.0 86.0 L 102.66666666666667 85.0 L 103.0 84.0 L 102.66666666666667 83.33333333333333 L 102.0 83.0 L 101.0 83.0 L 100.0 83.0 L 99.0 82.66666666666667 L 98.0 82.0 L 97.33333333333333 81.0 L 97.0 80.0 L 97.33333333333333 79.0 L 98.0 78.33333333333333 L 98.66666666666667 77.66666666666667 L 99.33333333333333 77.0 L 99.66666666666667 76.0 L 99.66666666666667 75.0 L 99.66666666666667 74.0 L 99.66666666666667 73.0 L 100.0 72.0 L 100.0 71.0 L 99.66666666666667 70.33333333333333 L 99.0 70.33333333333333 L 98.0 71.0 L 97.0 71.66666666666667 L 96.0 72.33333333333333 L 95.33333333333333 73.0 L 94.66666666666667 74.0 L 94.33333333333333 75.0 L 93.66666666666667 76.0 L 93.33333333333333 77.0 L 92.66666666666667 78.0 L 92.33333333333333 79.0 L 91.66666666666667 80.0 L 91.0 81.0 L 90.33333333333333 82.0 L 90.0 83.0 L 90.0 84.0 L 90.0 85.0 L 90.33333333333333 86.0 L 91.0 87.0 L 92.0 88.0 L 93.0 88.66666666666667 L 94.0 89.0 L 95.0 88.66666666666667 L 96.0 88.33333333333333 L 96.5 88.0 Z" stroke="none" fill="rgb(84,57,48)" />
<path d="M 36.5 91.5 L 37.0 91.66666666666667 L 38.0 92.33333333333333 L 39.0 92.66666666666667 L 40.0 93.0 L 41.0 93.33333333333333 L 42.0 93.66666666666667 L 43.0 93.66666666666667 L 44.0 93.33333333333333 L 44.666666666666664 92.66666666666667 L 45.0 92.0 L 45.0 91.0 L 45.0 90.0 L 44.666666666666664 89.0 L 44.0 88.0 L 43.0 87.0 L 42.0 86.0 L 41.0 85.0 L 40.0 84.0 L 39.0 83.0 L 38.0 82.0 L 37.0 81.0 L 36.333333333333336 80.0 L 35.666666666666664 79.0 L 35.333333333333336 78.0 L 34.666666666666664 77.0 L 34.333333333333336 76.0 L 33.666666666666664 75.0 L 33.333333333333336 74.0 L 32.666666666666664 73.0 L 32.0 72.33333333333333 L 31.0 71.66666666666667 L 30.0 71.33333333333333 L 29.0 71.0 L 28.333333333333332 71.33333333333333 L 28.0 72.0 L 28.333333333333332 73.0 L 29.0 74.0 L 29.666666666666668 75.0 L 30.0 76.0 L 30.333333333333332 77.0 L 30.666666666666668 78.0 L 31.333333333333332 79.0 L 31.666666666666668 80.0 L 31.666666666666668 81.0 L 31.0 82.0 L 30.0 82.66666666666667 L 29.0 83.0 L 28.0 83.0 L 27.0 83.33333333333333 L 26.333333333333332 84.0 L 26.0 85.0 L 26.333333333333332 86.0 L 27.0 86.66666666666667 L 28.0 87.0 L 29.0 87.33333333333333 L 30.0 87.66666666666667 L 31.0 88.0 L 32.0 88.33333333333333 L 33.0 89.0 L 34.0 89.66666666666667 L 35.0 90.33333333333333 L 35.5 90.5 Z" stroke="none" fill="rgb(84,57,48)" />
<path d="M 59.5 81.0 L 60.0 80.66666666666667 L 61.0 80.66666666666667 L 62.0 80.66666666666667 L 62.666666666666664 80.66666666666667 L 63.333333333333336 80.0 L 63.666666666666664 79.0 L 63.666666666666664 78.0 L 63.0 77.0 L 62.0 76.0 L 61.0 75.0 L 60.0 74.0 L 59.0 73.0 L 58.0 72.33333333333333 L 57.0 72.0 L 56.333333333333336 72.33333333333333 L 56.0 73.0 L 56.333333333333336 74.0 L 56.666666666666664 75.0 L 57.0 76.0 L 57.0 77.0 L 57.333333333333336 78.0 L 57.666666666666664 79.0 L 58.333333333333336 80.0 L 58.5 80.5 Z" stroke="none" fill="rgb(151,114,84)" />
<path d="M 95.5 124.0 L 96.0 124.0 L 97.0 124.0 L 98.0 124.0 L 99.0 124.0 L 100.0 124.0 L 101.0 124.0 L 102.0 124.0 L 103.0 124.0 L 104.0 124.0 L 105.0 124.0 L 106.0 124.0 L 107.0 124.0 L 108.0 124.0 L 109.0 124.0 L 110.0 124.0 L 111.0 124.0 L 111.66666666666667 123.66666666666667 L 111.66666666666667 123.0 L 111.33333333333333 122.0 L 111.0 121.0 L 110.66666666666667 120.0 L 110.0 119.0 L 109.33333333333333 118.0 L 108.66666666666667 117.0 L 108.33333333333333 116.0 L 107.66666666666667 115.0 L 107.0 114.0 L 106.33333333333333 113.0 L 106.0 112.0 L 105.66666666666667 111.0 L 105.0 110.0 L 104.0 109.0 L 103.33333333333333 108.0 L 102.66666666666667 107.0 L 102.0 106.0 L 101.33333333333333 105.0 L 100.66666666666667 104.0 L 100.33333333333333 103.0 L 100.0 102.0 L 99.66666666666667 101.0 L 99.33333333333333 100.0 L 98.66666666666667 99.0 L 98.33333333333333 98.0 L 97.66666666666667 97.0 L 97.0 96.0 L 96.33333333333333 95.0 L 95.66666666666667 94.0 L 95.33333333333333 93.0 L 94.66666666666667 92.0 L 94.33333333333333 91.0 L 94.0 90.0 L 93.66666666666667 89.0 L 93.0 88.0 L 92.0 87.0 L 91.0 86.0 L 90.33333333333333 85.0 L 90.0 84.0 L 89.66666666666667 83.0 L 89.0 82.0 L 88.0 81.0 L 87.33333333333333 80.0 L 86.66666666666667 79.0 L 86.33333333333333 78.0 L 85.66666666666667 77.0 L 85.33333333333333 76.0 L 84.66666666666667 75.0 L 84.0 74.0 L 83.33333333333333 73.0 L 82.66666666666667 72.33333333333333 L 82.0 72.0 L 81.0 72.0 L 80.0 72.0 L 79.0 72.0 L 78.0 72.33333333333333 L 77.0 72.66666666666667 L 76.0 73.33333333333333 L 75.0 73.66666666666667 L 74.0 74.33333333333333 L 73.0 74.66666666666667 L 72.33333333333333 75.33333333333333 L 72.0 76.0 L 72.33333333333333 77.0 L 72.66666666666667 78.0 L 73.33333333333333 79.0 L 73.66666666666667 80.0 L 74.0 81.0 L 74.33333333333333 82.0 L 74.66666666666667 83.0 L 75.33333333333333 84.0 L 75.66666666666667 85.0 L 76.0 86.0 L 76.33333333333333 87.0 L 76.66666666666667 88.0 L 77.0 89.0 L 77.33333333333333 90.0 L 77.66666666666667 91.0 L 78.33333333333333 92.0 L 78.66666666666667 93.0 L 79.0 94.0 L 79.33333333333333 95.0 L 79.66666666666667 96.0 L 80.33333333333333 97.0 L 80.66666666666667 98.0 L 81.0 99.0 L 81.33333333333333 100.0 L 81.66666666666667 101.0 L 82.33333333333333 102.0 L 82.66666666666667 103.0 L 83.0 104.0 L 83.33333333333333 105.0 L 83.66666666666667 106.0 L 84.33333333333333 107.0 L 84.66666666666667 108.0 L 85.0 109.0 L 85.33333333333333 110.0 L 85.66666666666667 111.0 L 86.33333333333333 112.0 L 86.66666666666667 113.0 L 87.0 114.0 L 87.33333333333333 115.0 L 87.66666666666667 116.0 L 88.0 117.0 L 88.33333333333333 118.0 L 88.66666666666667 119.0 L 89.33333333333333 120.0 L 89.66666666666667 121.0 L 90.0 122.0 L 90.33333333333333 123.0 L 91.0 123.66666666666667 L 92.0 124.0 L 93.0 124.0 L 94.0 124.0 L 94.5 124.0 Z" stroke="none" fill="rgb(247,140,31)" />
<path d="M 26.5 74.0 L 26.666666666666668 73.66666666666667 L 26.666666666666668 73.33333333333333 L 26.333333333333332 73.33333333333333 L 26.0 73.5 Z" stroke="none" fill="rgb(96,66,56)" />
<path d="M 28.0 74.5 L 27.666666666666668 74.33333333333333 L 27.333333333333332 74.33333333333333 L 27.333333333333332 74.66666666666667 L 27.5 75.0 Z" stroke="none" fill="rgb(96,66,56)" />
<path d="M 99.5 75.0 L 99.66666666666667 74.66666666666667 L 99.66666666666667 74.33333333333333 L 99.33333333333333 74.33333333333333 L 99.0 74.5 Z" stroke="none" fill="rgb(96,66,56)" />
<path d="M 28.5 76.0 L 28.666666666666668 75.66666666666667 L 28.666666666666668 75.33333333333333 L 28.333333333333332 75.33333333333333 L 28.0 75.5 Z" stroke="none" fill="rgb(96,66,56)" />
<path d="M 30.0 76.5 L 29.666666666666668 76.33333333333333 L 29.333333333333332 76.33333333333333 L 29.333333333333332 76.66666666666667 L 29.5 77.0 Z" stroke="none" fill="rgb(96,66,56)" />
<path d="M 75.5 91.5 L 75.66666666666667 92.0 L 76.0 93.0 L 76.33333333333333 94.0 L 76.66666666666667 95.0 L 77.33333333333333 96.0 L 77.66666666666667 97.0 L 78.0 98.0 L 78.33333333333333 99.0 L 78.66666666666667 100.0 L 79.33333333333333 101.0 L 79.66666666666667 102.0 L 80.0 103.0 L 80.33333333333333 104.0 L 80.66666666666667 105.0 L 81.33333333333333 106.0 L 81.66666666666667 107.0 L 82.0 108.0 L 82.33333333333333 109.0 L 82.66666666666667 110.0 L 83.0 111.0 L 83.33333333333333 112.0 L 83.66666666666667 113.0 L 84.33333333333333 114.0 L 84.66666666666667 115.0 L 85.0 116.0 L 85.33333333333333 117.0 L 85.66666666666667 118.0 L 86.33333333333333 119.0 L 86.66666666666667 120.0 L 87.0 121.0 L 87.33333333333333 122.0 L 87.66666666666667 123.0 L 88.33333333333333 123.66666666666667 L 89.0 124.0 L 90.0 124.0 L 90.66666666666667 123.66666666666667 L 90.66666666666667 123.0 L 90.33333333333333 122.0 L 90.0 121.0 L 89.66666666666667 120.0 L 89.33333333333333 119.0 L 88.66666666666667 118.0 L 88.33333333333333 117.0 L 88.0 116.0 L 87.66666666666667 115.0 L 87.33333333333333 114.0 L 87.0 113.0 L 86.66666666666667 112.0 L 86.33333333333333 111.0 L 85.66666666666667 110.0 L 85.33333333333333 109.0 L 85.0 108.0 L 84.66666666666667 107.0 L 84.33333333333333 106.0 L 83.66666666666667 105.0 L 83.33333333333333 104.0 L 83.0 103.0 L 82.66666666666667 102.0 L 82.33333333333333 101.0 L 81.66666666666667 100.0 L 81.33333333333333 99.0 L 81.0 98.0 L 80.66666666666667 97.0 L 80.33333333333333 96.0 L 79.66666666666667 95.0 L 79.33333333333333 94.0 L 79.0 93.0 L 78.66666666666667 92.0 L 78.33333333333333 91.0 L 77.66666666666667 90.0 L 77.33333333333333 89.0 L 77.0 88.0 L 76.66666666666667 87.0 L 76.33333333333333 86.0 L 76.0 85.0 L 75.66666666666667 84.0 L 75.33333333333333 83.0 L 74.66666666666667 82.0 L 74.33333333333333 81.0 L 74.0 80.0 L 73.66666666666667 79.0 L 73.33333333333333 78.0 L 72.66666666666667 77.0 L 72.0 76.33333333333333 L 71.0 76.0 L 70.33333333333333 76.33333333333333 L 70.0 77.0 L 70.33333333333333 78.0 L 70.66666666666667 79.0 L 71.0 80.0 L 71.33333333333333 81.0 L 71.66666666666667 82.0 L 72.0 83.0 L 72.33333333333333 84.0 L 72.66666666666667 85.0 L 73.33333333333333 86.0 L 73.66666666666667 87.0 L 74.0 88.0 L 74.33333333333333 89.0 L 74.66666666666667 90.0 L 75.0 90.5 Z" stroke="none" fill="rgb(244,131,32)" />
<path d="M 31.0 77.5 L 30.666666666666668 77.33333333333333 L 30.333333333333332 77.33333333333333 L 30.333333333333332 77.66666666666667 L 30.5 78.0 Z" stroke="none" fill="rgb(96,66,56)" />
<path d="M 30.5 83.0 L 31.0 82.66666666666667 L 31.666666666666668 82.0 L 32.0 81.0 L 32.0 80.0 L 31.666666666666668 79.0 L 31.0 78.33333333333333 L 30.0 78.0 L 29.333333333333332 78.33333333333333 L 28.666666666666668 79.0 L 28.0 80.0 L 27.333333333333332 81.0 L 27.0 82.0 L 27.333333333333332 82.66666666666667 L 28.0 83.0 L 29.0 83.0 L 29.5 83.0 Z" stroke="none" fill="rgb(108,76,64)" />
<path d="M 75.5 107.5 L 75.66666666666667 108.0 L 76.33333333333333 109.0 L 76.66666666666667 110.0 L 77.0 111.0 L 77.33333333333333 112.0 L 77.66666666666667 113.0 L 78.33333333333333 114.0 L 78.66666666666667 115.0 L 79.0 116.0 L 79.33333333333333 117.0 L 79.66666666666667 118.0 L 80.33333333333333 119.0 L 80.66666666666667 120.0 L 81.0 121.0 L 81.33333333333333 122.0 L 81.66666666666667 123.0 L 82.33333333333333 123.66666666666667 L 83.0 124.0 L 83.66666666666667 123.66666666666667 L 84.0 123.0 L 84.0 122.0 L 83.66666666666667 121.0 L 83.33333333333333 120.0 L 82.66666666666667 119.0 L 82.33333333333333 118.0 L 82.0 117.0 L 81.66666666666667 116.0 L 81.33333333333333 115.0 L 81.0 114.0 L 80.66666666666667 113.0 L 80.33333333333333 112.0 L 79.66666666666667 111.0 L 79.33333333333333 110.0 L 79.0 109.0 L 78.66666666666667 108.0 L 78.33333333333333 107.0 L 77.66666666666667 106.0 L 77.33333333333333 105.0 L 77.0 104.0 L 76.66666666666667 103.0 L 76.33333333333333 102.0 L 75.66666666666667 101.0 L 75.33333333333333 100.0 L 75.0 99.0 L 74.66666666666667 98.0 L 74.33333333333333 97.0 L 73.66666666666667 96.0 L 73.33333333333333 95.0 L 73.0 94.0 L 72.66666666666667 93.0 L 72.33333333333333 92.0 L 71.66666666666667 91.0 L 71.33333333333333 90.0 L 71.0 89.0 L 70.66666666666667 88.0 L 70.33333333333333 87.0 L 70.0 86.0 L 69.66666666666667 85.0 L 69.33333333333333 84.0 L 68.66666666666667 83.0 L 68.33333333333333 82.0 L 68.0 81.0 L 67.66666666666667 80.0 L 67.33333333333333 79.0 L 66.66666666666667 78.33333333333333 L 66.0 78.0 L 65.33333333333333 78.33333333333333 L 65.0 79.0 L 65.0 80.0 L 65.33333333333333 81.0 L 65.66666666666667 82.0 L 66.0 83.0 L 66.33333333333333 84.0 L 66.66666666666667 85.0 L 67.33333333333333 86.0 L 67.66666666666667 87.0 L 68.0 88.0 L 68.33333333333333 89.0 L 68.66666666666667 90.0 L 69.33333333333333 91.0 L 69.66666666666667 92.0 L 70.0 93.0 L 70.33333333333333 94.0 L 70.66666666666667 95.0 L 71.33333333333333 96.0 L 71.66666666666667 97.0 L 72.0 98.0 L 72.33333333333333 99.0 L 72.66666666666667 100.0 L 73.33333333333333 101.0 L 73.66666666666667 102.0 L 74.0 103.0 L 74.33333333333333 104.0 L 74.66666666666667 105.0 L 75.0 106.0 L 75.0 106.5 Z" stroke="none" fill="rgb(239,116,34)" />
<path d="M 78.5 108.5 L 78.66666666666667 109.0 L 79.0 110.0 L 79.33333333333333 111.0 L 79.66666666666667 112.0 L 80.33333333333333 113.0 L 80.66666666666667 114.0 L 81.0 115.0 L 81.33333333333333 116.0 L 81.66666666666667 117.0 L 82.0 118.0 L 82.33333333333333 119.0 L 82.66666666666667 120.0 L 83.33333333333333 121.0 L 83.66666666666667 122.0 L 84.0 123.0 L 84.33333333333333 123.66666666666667 L 85.0 124.0 L 85.66666666666667 123.66666666666667 L 86.0 123.0 L 86.0 122.0 L 85.66666666666667 121.0 L 85.33333333333333 120.0 L 84.66666666666667 119.0 L 84.33333333333333 118.0 L 84.0 117.0 L 83.66666666666667 116.0 L 83.33333333333333 115.0 L 82.66666666666667 114.0 L 82.33333333333333 113.0 L 82.0 112.0 L 81.66666666666667 111.0 L 81.33333333333333 110.0 L 80.66666666666667 109.0 L 80.33333333333333 108.0 L 80.0 107.0 L 79.66666666666667 106.0 L 79.33333333333333 105.0 L 78.66666666666667 104.0 L 78.33333333333333 103.0 L 78.0 102.0 L 77.66666666666667 101.0 L 77.33333333333333 100.0 L 76.66666666666667 99.0 L 76.33333333333333 98.0 L 76.0 97.0 L 75.66666666666667 96.0 L 75.33333333333333 95.0 L 75.0 94.0 L 74.66666666666667 93.0 L 74.33333333333333 92.0 L 73.66666666666667 91.0 L 73.33333333333333 90.0 L 73.0 89.0 L 72.66666666666667 88.0 L 72.33333333333333 87.0 L 71.66666666666667 86.0 L 71.33333333333333 85.0 L 71.0 84.0 L 70.66666666666667 83.0 L 70.33333333333333 82.0 L 69.66666666666667 81.0 L 69.33333333333333 80.0 L 69.0 79.0 L 68.66666666666667 78.33333333333333 L 68.0 78.0 L 67.33333333333333 78.33333333333333 L 67.0 79.0 L 67.33333333333333 80.0 L 67.66666666666667 81.0 L 68.0 82.0 L 68.33333333333333 83.0 L 68.66666666666667 84.0 L 69.33333333333333 85.0 L 69.66666666666667 86.0 L 70.0 87.0 L 70.33333333333333 88.0 L 70.66666666666667 89.0 L 71.0 90.0 L 71.33333333333333 91.0 L 71.66666666666667 92.0 L 72.33333333333333 93.0 L 72.66666666666667 94.0 L 73.0 95.0 L 73.33333333333333 96.0 L 73.66666666666667 97.0 L 74.33333333333333 98.0 L 74.66666666666667 99.0 L 75.0 100.0 L 75.33333333333333 101.0 L 75.66666666666667 102.0 L 76.33333333333333 103.0 L 76.66666666666667 104.0 L 77.0 105.0 L 77.33333333333333 106.0 L 77.66666666666667 107.0 L 78.0 107.5 Z" stroke="none" fill="rgb(241,121,33)" />
<path d="M 78.5 104.5 L 78.66666666666667 105.0 L 79.33333333333333 106.0 L 79.66666666666667 107.0 L 80.0 108.0 L 80.33333333333333 109.0 L 80.66666666666667 110.0 L 81.33333333333333 111.0 L 81.66666666666667 112.0 L 82.0 113.0 L 82.33333333333333 114.0 L 82.66666666666667 115.0 L 83.33333333333333 116.0 L 83.66666666666667 117.0 L 84.0 118.0 L 84.33333333333333 119.0 L 84.66666666666667 120.0 L 85.33333333333333 121.0 L 85.66666666666667 122.0 L 86.0 123.0 L 86.33333333333333 123.66666666666667 L 87.0 124.0 L 87.66666666666667 123.66666666666667 L 88.0 123.0 L 87.66666666666667 122.0 L 87.33333333333333 121.0 L 87.0 120.0 L 86.66666666666667 119.0 L 86.33333333333333 118.0 L 85.66666666666667 117.0 L 85.33333333333333 116.0 L 85.0 115.0 L 84.66666666666667 114.0 L 84.33333333333333 113.0 L 83.66666666666667 112.0 L 83.33333333333333 111.0 L 83.0 110.0 L 82.66666666666667 109.0 L 82.33333333333333 108.0 L 82.0 107.0 L 81.66666666666667 106.0 L 81.33333333333333 105.0 L 80.66666666666667 104.0 L 80.33333333333333 103.0 L 80.0 102.0 L 79.66666666666667 101.0 L 79.33333333333333 100.0 L 78.66666666666667 99.0 L 78.33333333333333 98.0 L 78.0 97.0 L 77.66666666666667 96.0 L 77.33333333333333 95.0 L 76.66666666666667 94.0 L 76.33333333333333 93.0 L 76.0 92.0 L 75.66666666666667 91.0 L 75.33333333333333 90.0 L 74.66666666666667 89.0 L 74.33333333333333 88.0 L 74.0 87.0 L 73.66666666666667 86.0 L 73.33333333333333 85.0 L 72.66666666666667 84.0 L 72.33333333333333 83.0 L 72.0 82.0 L 71.66666666666667 81.0 L 71.33333333333333 80.0 L 71.0 79.0 L 70.66666666666667 78.33333333333333 L 70.0 78.0 L 69.33333333333333 78.33333333333333 L 69.0 79.0 L 69.0 80.0 L 69.33333333333333 81.0 L 69.66666666666667 82.0 L 70.33333333333333 83.0 L 70.66666666666667 84.0 L 71.0 85.0 L 71.33333333333333 86.0 L 71.66666666666667 87.0 L 72.33333333333333 88.0 L 72.66666666666667 89.0 L 73.0 90.0 L 73.33333333333333 91.0 L 73.66666666666667 92.0 L 74.33333333333333 93.0 L 74.66666666666667 94.0 L 75.0 95.0 L 75.33333333333333 96.0 L 75.66666666666667 97.0 L 76.0 98.0 L 76.33333333333333 99.0 L 76.66666666666667 100.0 L 77.33333333333333 101.0 L 77.66666666666667 102.0 L 78.0 103.0 L 78.0 103.5 Z" stroke="none" fill="rgb(243,126,33)" />
<path d="M 97.5 82.5 L 98.0 82.66666666666667 L 99.0 83.0 L 100.0 83.0 L 101.0 83.0 L 102.0 83.0 L 102.66666666666667 82.66666666666667 L 102.66666666666667 82.0 L 102.0 81.33333333333333 L 101.0 80.66666666666667 L 100.0 80.0 L 99.33333333333333 79.0 L 98.66666666666667 78.33333333333333 L 98.0 78.0 L 97.33333333333333 78.33333333333333 L 97.0 79.0 L 97.0 80.0 L 97.0 81.0 L 97.0 81.5 Z" stroke="none" fill="rgb(108,76,64)" />
<path d="M 78.5 123.5 L 79.0 123.66666666666667 L 80.0 124.0 L 81.0 124.0 L 81.66666666666667 123.66666666666667 L 82.0 123.0 L 81.66666666666667 122.0 L 81.33333333333333 121.0 L 81.0 120.0 L 80.66666666666667 119.0 L 80.33333333333333 118.0 L 79.66666666666667 117.0 L 79.33333333333333 116.0 L 79.0 115.0 L 78.66666666666667 114.0 L 78.33333333333333 113.0 L 77.66666666666667 112.0 L 77.33333333333333 111.0 L 77.0 110.0 L 76.66666666666667 109.0 L 76.33333333333333 108.0 L 75.66666666666667 107.0 L 75.33333333333333 106.0 L 75.0 105.0 L 74.66666666666667 104.0 L 74.33333333333333 103.0 L 74.0 102.0 L 73.66666666666667 101.0 L 73.33333333333333 100.0 L 72.66666666666667 99.0 L 72.33333333333333 98.0 L 72.0 97.0 L 71.66666666666667 96.0 L 71.33333333333333 95.0 L 70.66666666666667 94.0 L 70.33333333333333 93.0 L 70.0 92.0 L 69.66666666666667 91.0 L 69.33333333333333 90.0 L 68.66666666666667 89.0 L 68.33333333333333 88.0 L 68.0 87.0 L 67.66666666666667 86.0 L 67.33333333333333 85.0 L 66.66666666666667 84.0 L 66.33333333333333 83.0 L 66.0 82.0 L 65.66666666666667 81.0 L 65.33333333333333 80.0 L 64.66666666666667 79.33333333333333 L 64.0 79.0 L 63.333333333333336 79.33333333333333 L 63.0 80.0 L 63.0 81.0 L 63.0 82.0 L 63.0 83.0 L 63.333333333333336 84.0 L 63.666666666666664 85.0 L 64.33333333333333 86.0 L 64.66666666666667 87.0 L 65.33333333333333 88.0 L 65.66666666666667 89.0 L 66.0 90.0 L 66.33333333333333 91.0 L 66.66666666666667 92.0 L 67.0 93.0 L 67.33333333333333 94.0 L 67.66666666666667 95.0 L 68.0 96.0 L 68.33333333333333 97.0 L 68.66666666666667 98.0 L 69.33333333333333 99.0 L 69.66666666666667 100.0 L 70.0 101.0 L 70.33333333333333 102.0 L 70.66666666666667 103.0 L 71.0 104.0 L 71.0 105.0 L 71.33333333333333 106.0 L 72.0 107.0 L 72.66666666666667 108.0 L 73.0 109.0 L 73.33333333333333 110.0 L 73.66666666666667 111.0 L 74.33333333333333 112.0 L 74.66666666666667 113.0 L 75.0 114.0 L 75.33333333333333 115.0 L 75.66666666666667 116.0 L 76.0 117.0 L 76.33333333333333 118.0 L 76.66666666666667 119.0 L 77.0 120.0 L 77.0 121.0 L 77.33333333333333 122.0 L 77.5 122.5 Z" stroke="none" fill="rgb(237,109,35)" />
<path d="M 62.5 83.0 L 62.666666666666664 82.66666666666667 L 63.0 82.0 L 62.666666666666664 81.0 L 62.0 80.33333333333333 L 61.0 80.0 L 60.0 80.33333333333333 L 59.333333333333336 81.0 L 59.0 82.0 L 59.0 83.0 L 59.333333333333336 84.0 L 60.0 84.66666666666667 L 60.666666666666664 84.66666666666667 L 61.333333333333336 84.0 L 61.5 83.5 Z" stroke="none" fill="rgb(72,51,42)" />
<path d="M 58.5 83.0 L 58.666666666666664 82.66666666666667 L 59.0 82.0 L 58.666666666666664 81.33333333333333 L 58.0 81.0 L 57.333333333333336 81.33333333333333 L 57.0 82.0 L 57.333333333333336 82.66666666666667 L 57.5 83.0 Z" stroke="none" fill="rgb(96,66,56)" />
<path d="M 65.5 94.5 L 65.66666666666667 95.0 L 66.33333333333333 95.66666666666667 L 67.0 96.0 L 67.66666666666667 95.66666666666667 L 68.0 95.0 L 67.66666666666667 94.0 L 67.33333333333333 93.0 L 67.0 92.0 L 66.66666666666667 91.0 L 66.33333333333333 90.0 L 66.0 89.0 L 65.66666666666667 88.0 L 65.33333333333333 87.0 L 64.66666666666667 86.0 L 64.33333333333333 85.0 L 63.666666666666664 84.0 L 63.0 83.33333333333333 L 62.0 83.0 L 61.333333333333336 83.33333333333333 L 61.0 84.0 L 61.0 85.0 L 61.333333333333336 86.0 L 61.666666666666664 87.0 L 62.0 88.0 L 62.333333333333336 89.0 L 62.666666666666664 90.0 L 63.333333333333336 90.66666666666667 L 64.0 91.33333333333333 L 64.66666666666667 92.0 L 65.0 93.0 L 65.0 93.5 Z" stroke="none" fill="rgb(151,114,84)" />
<path d="M 47.5 93.0 L 47.666666666666664 92.66666666666667 L 47.666666666666664 92.0 L 47.0 91.33333333333333 L 46.0 91.0 L 45.333333333333336 91.33333333333333 L 45.0 92.0 L 45.333333333333336 92.66666666666667 L 46.0 93.0 L 46.5 93.0 Z" stroke="none" fill="rgb(102,71,60)" />
<path d="M 66.0 96.5 L 66.0 96.0 L 66.0 95.0 L 65.66666666666667 94.0 L 65.33333333333333 93.0 L 65.0 92.0 L 64.66666666666667 91.33333333333333 L 64.0 91.0 L 63.333333333333336 91.33333333333333 L 63.0 92.0 L 63.0 93.0 L 63.333333333333336 94.0 L 63.666666666666664 95.0 L 64.33333333333333 96.0 L 65.0 96.66666666666667 L 65.5 97.0 Z" stroke="none" fill="rgb(160,120,89)" />
<path d="M 43.5 95.0 L 44.0 95.0 L 45.0 95.33333333333333 L 46.0 95.66666666666667 L 47.0 96.0 L 48.0 96.0 L 49.0 96.0 L 50.0 96.0 L 51.0 96.0 L 52.0 96.33333333333333 L 53.0 96.66666666666667 L 54.0 97.0 L 54.666666666666664 96.66666666666667 L 54.666666666666664 96.0 L 54.0 95.0 L 53.0 94.33333333333333 L 52.0 93.66666666666667 L 51.0 93.33333333333333 L 50.0 93.0 L 49.0 93.0 L 48.0 93.0 L 47.0 93.0 L 46.0 93.0 L 45.0 93.0 L 44.0 93.0 L 43.333333333333336 93.33333333333333 L 43.0 94.0 L 43.0 94.5 Z" stroke="none" fill="rgb(108,76,64)" />
<path d="M 23.5 109.5 L 24.0 109.33333333333333 L 25.0 108.66666666666667 L 26.0 108.0 L 27.0 107.0 L 28.0 106.33333333333333 L 29.0 105.66666666666667 L 30.0 105.33333333333333 L 31.0 104.66666666666667 L 32.0 104.0 L 33.0 103.33333333333333 L 34.0 102.66666666666667 L 35.0 102.33333333333333 L 36.0 102.0 L 37.0 101.66666666666667 L 38.0 101.33333333333333 L 39.0 100.66666666666667 L 40.0 100.33333333333333 L 41.0 100.0 L 42.0 100.0 L 43.0 99.66666666666667 L 44.0 99.33333333333333 L 45.0 99.0 L 46.0 99.0 L 47.0 98.66666666666667 L 48.0 98.33333333333333 L 49.0 98.0 L 50.0 98.0 L 51.0 98.0 L 52.0 97.66666666666667 L 52.666666666666664 97.0 L 52.666666666666664 96.33333333333333 L 52.0 96.0 L 51.0 96.0 L 50.0 96.0 L 49.0 96.0 L 48.0 96.0 L 47.0 96.33333333333333 L 46.0 96.66666666666667 L 45.0 97.0 L 44.0 97.0 L 43.0 97.0 L 42.0 97.0 L 41.0 97.33333333333333 L 40.0 97.66666666666667 L 39.0 98.0 L 38.0 98.0 L 37.0 98.33333333333333 L 36.0 98.66666666666667 L 35.0 99.0 L 34.0 99.0 L 33.0 99.33333333333333 L 32.0 99.66666666666667 L 31.0 100.0 L 30.0 100.33333333333333 L 29.0 100.66666666666667 L 28.0 101.33333333333333 L 27.0 101.66666666666667 L 26.0 102.0 L 25.0 102.33333333333333 L 24.0 102.66666666666667 L 23.0 103.33333333333333 L 22.0 104.0 L 21.0 104.66666666666667 L 20.0 105.33333333333333 L 19.0 106.0 L 18.0 107.0 L 17.0 108.0 L 16.0 109.0 L 15.0 110.0 L 14.333333333333334 111.0 L 13.666666666666666 112.0 L 13.333333333333334 113.0 L 12.666666666666666 114.0 L 12.333333333333334 115.0 L 12.0 116.0 L 12.0 117.0 L 12.0 118.0 L 12.0 119.0 L 12.0 120.0 L 12.0 121.0 L 12.0 122.0 L 12.0 123.0 L 12.333333333333334 123.66666666666667 L 13.0 124.0 L 14.0 124.0 L 15.0 124.0 L 15.666666666666666 123.66666666666667 L 16.333333333333332 123.0 L 16.666666666666668 122.0 L 17.0 121.0 L 17.0 120.0 L 17.333333333333332 119.0 L 17.666666666666668 118.0 L 18.333333333333332 117.0 L 18.666666666666668 116.0 L 19.333333333333332 115.0 L 20.0 114.0 L 20.666666666666668 113.0 L 21.333333333333332 112.0 L 22.0 111.0 L 22.5 110.5 Z" stroke="none" fill="rgb(244,131,32)" />
<path d="M 62.5 108.0 L 63.0 108.0 L 64.0 108.0 L 65.0 108.0 L 66.0 108.0 L 67.0 108.0 L 68.0 108.0 L 68.66666666666667 107.66666666666667 L 69.0 107.0 L 69.0 106.0 L 68.66666666666667 105.0 L 68.33333333333333 104.0 L 67.66666666666667 103.0 L 67.33333333333333 102.0 L 66.66666666666667 101.0 L 66.33333333333333 100.0 L 65.66666666666667 99.0 L 65.33333333333333 98.0 L 65.0 97.0 L 64.66666666666667 96.33333333333333 L 64.0 96.0 L 63.0 96.0 L 62.0 96.0 L 61.0 96.0 L 60.0 96.0 L 59.0 96.0 L 58.0 96.0 L 57.0 96.0 L 56.0 96.0 L 55.0 96.33333333333333 L 54.333333333333336 97.0 L 54.0 98.0 L 54.0 99.0 L 54.0 100.0 L 54.333333333333336 101.0 L 54.666666666666664 102.0 L 55.0 103.0 L 55.333333333333336 104.0 L 56.0 105.0 L 57.0 106.0 L 58.0 107.0 L 59.0 107.66666666666667 L 60.0 108.0 L 61.0 108.0 L 61.5 108.0 Z" stroke="none" fill="rgb(153,103,79)" />
<path d="M 69.5 106.0 L 70.0 106.0 L 70.66666666666667 105.66666666666667 L 71.0 105.0 L 71.0 104.0 L 71.0 103.0 L 70.66666666666667 102.0 L 70.33333333333333 101.0 L 70.0 100.0 L 69.66666666666667 99.0 L 69.33333333333333 98.0 L 68.66666666666667 97.0 L 68.0 96.33333333333333 L 67.0 96.0 L 66.0 96.33333333333333 L 65.33333333333333 97.0 L 65.0 98.0 L 65.33333333333333 99.0 L 65.66666666666667 100.0 L 66.33333333333333 101.0 L 66.66666666666667 102.0 L 67.33333333333333 103.0 L 67.66666666666667 104.0 L 68.33333333333333 105.0 L 68.5 105.5 Z" stroke="none" fill="rgb(131,88,67)" />
<path d="M 24.0 118.5 L 24.333333333333332 118.0 L 24.666666666666668 117.0 L 25.333333333333332 116.0 L 26.0 115.0 L 27.0 114.0 L 28.0 113.0 L 29.0 112.0 L 30.0 111.0 L 31.0 110.0 L 32.0 109.0 L 33.0 108.33333333333333 L 34.0 107.66666666666667 L 35.0 107.33333333333333 L 36.0 106.66666666666667 L 37.0 106.33333333333333 L 38.0 105.66666666666667 L 39.0 105.33333333333333 L 40.0 104.66666666666667 L 41.0 104.33333333333333 L 42.0 104.0 L 43.0 103.66666666666667 L 44.0 103.33333333333333 L 45.0 103.0 L 46.0 102.66666666666667 L 47.0 102.33333333333333 L 48.0 102.0 L 49.0 102.0 L 50.0 101.66666666666667 L 51.0 101.33333333333333 L 52.0 101.0 L 53.0 101.0 L 53.666666666666664 100.66666666666667 L 54.0 100.0 L 54.0 99.0 L 54.0 98.0 L 53.666666666666664 97.33333333333333 L 53.0 97.0 L 52.0 97.33333333333333 L 51.0 97.66666666666667 L 50.0 98.0 L 49.0 98.0 L 48.0 98.0 L 47.0 98.33333333333333 L 46.0 98.66666666666667 L 45.0 99.0 L 44.0 99.0 L 43.0 99.33333333333333 L 42.0 99.66666666666667 L 41.0 100.0 L 40.0 100.0 L 39.0 100.33333333333333 L 38.0 100.66666666666667 L 37.0 101.33333333333333 L 36.0 101.66666666666667 L 35.0 102.0 L 34.0 102.33333333333333 L 33.0 102.66666666666667 L 32.0 103.33333333333333 L 31.0 104.0 L 30.0 104.66666666666667 L 29.0 105.33333333333333 L 28.0 105.66666666666667 L 27.0 106.33333333333333 L 26.0 107.0 L 25.0 108.0 L 24.0 108.66666666666667 L 23.0 109.33333333333333 L 22.0 110.0 L 21.333333333333332 111.0 L 20.666666666666668 112.0 L 20.0 113.0 L 19.333333333333332 114.0 L 18.666666666666668 115.0 L 18.333333333333332 116.0 L 17.666666666666668 117.0 L 17.333333333333332 118.0 L 17.0 119.0 L 17.0 120.0 L 16.666666666666668 121.0 L 16.333333333333332 122.0 L 16.0 123.0 L 16.333333333333332 123.66666666666667 L 17.0 124.0 L 18.0 124.0 L 19.0 124.0 L 20.0 124.0 L 21.0 124.0 L 22.0 124.0 L 22.666666666666668 123.66666666666667 L 23.0 123.0 L 23.0 122.0 L 23.0 121.0 L 23.333333333333332 120.0 L 23.5 119.5 Z" stroke="none" fill="rgb(243,126,33)" />
<path d="M 43.5 107.5 L 44.0 107.33333333333333 L 45.0 107.0 L 46.0 106.66666666666667 L 47.0 106.33333333333333 L 48.0 106.0 L 49.0 105.66666666666667 L 50.0 105.33333333333333 L 51.0 105.0 L 52.0 105.0 L 53.0 105.0 L 54.0 104.66666666666667 L 54.666666666666664 104.0 L 55.0 103.0 L 55.0 102.0 L 54.666666666666664 101.33333333333333 L 54.0 101.0 L 53.0 101.0 L 52.0 101.0 L 51.0 101.0 L 50.0 101.33333333333333 L 49.0 101.66666666666667 L 48.0 102.0 L 47.0 102.0 L 46.0 102.33333333333333 L 45.0 102.66666666666667 L 44.0 103.0 L 43.0 103.33333333333333 L 42.0 103.66666666666667 L 41.0 104.0 L 40.0 104.33333333333333 L 39.0 104.66666666666667 L 38.0 105.33333333333333 L 37.0 105.66666666666667 L 36.0 106.33333333333333 L 35.0 106.66666666666667 L 34.0 107.33333333333333 L 33.0 107.66666666666667 L 32.0 108.33333333333333 L 31.0 109.0 L 30.0 110.0 L 29.0 111.0 L 28.0 112.0 L 27.0 113.0 L 26.0 114.0 L 25.333333333333332 115.0 L 24.666666666666668 116.0 L 24.333333333333332 117.0 L 23.666666666666668 118.0 L 23.333333333333332 119.0 L 23.0 120.0 L 23.0 121.0 L 23.0 122.0 L 23.0 123.0 L 23.333333333333332 123.66666666666667 L 24.0 124.0 L 25.0 124.0 L 26.0 124.0 L 27.0 124.0 L 28.0 124.0 L 28.666666666666668 123.66666666666667 L 29.0 123.0 L 29.0 122.0 L 29.0 121.0 L 29.333333333333332 120.0 L 29.666666666666668 119.0 L 30.333333333333332 118.0 L 31.0 117.0 L 32.0 116.0 L 33.0 115.0 L 34.0 114.0 L 35.0 113.0 L 36.0 112.0 L 37.0 111.0 L 38.0 110.33333333333333 L 39.0 109.66666666666667 L 40.0 109.33333333333333 L 41.0 108.66666666666667 L 42.0 108.33333333333333 L 42.5 108.0 Z" stroke="none" fill="rgb(241,121,33)" />
<path d="M 107.5 112.5 L 108.0 113.0 L 109.0 114.0 L 109.66666666666667 115.0 L 110.33333333333333 116.0 L 110.66666666666667 117.0 L 111.33333333333333 118.0 L 111.66666666666667 119.0 L 111.66666666666667 120.0 L 111.33333333333333 121.0 L 111.0 122.0 L 111.33333333333333 123.0 L 112.0 123.66666666666667 L 113.0 124.0 L 114.0 124.0 L 115.0 124.0 L 115.66666666666667 123.66666666666667 L 116.0 123.0 L 116.0 122.0 L 116.0 121.0 L 116.0 120.0 L 116.0 119.0 L 116.0 118.0 L 116.0 117.0 L 116.0 116.0 L 115.66666666666667 115.0 L 115.33333333333333 114.0 L 114.66666666666667 113.0 L 114.33333333333333 112.0 L 113.66666666666667 111.0 L 113.0 110.0 L 112.0 109.0 L 111.0 108.0 L 110.0 107.0 L 109.0 106.33333333333333 L 108.0 105.66666666666667 L 107.0 105.0 L 106.0 104.33333333333333 L 105.0 103.66666666666667 L 104.0 103.33333333333333 L 103.0 102.66666666666667 L 102.0 102.33333333333333 L 101.0 102.0 L 100.33333333333333 102.33333333333333 L 100.0 103.0 L 100.33333333333333 104.0 L 100.66666666666667 105.0 L 101.33333333333333 106.0 L 102.0 107.0 L 102.66666666666667 108.0 L 103.33333333333333 109.0 L 104.0 110.0 L 105.0 111.0 L 106.0 111.66666666666667 L 106.5 112.0 Z" stroke="none" fill="rgb(244,131,32)" />
<path d="M 36.0 123.5 L 36.0 123.0 L 36.333333333333336 122.0 L 36.666666666666664 121.0 L 37.333333333333336 120.0 L 37.666666666666664 119.0 L 38.333333333333336 118.0 L 39.0 117.0 L 40.0 116.0 L 41.0 115.0 L 42.0 114.33333333333333 L 43.0 113.66666666666667 L 44.0 113.0 L 45.0 112.33333333333333 L 46.0 111.66666666666667 L 47.0 111.33333333333333 L 48.0 111.0 L 49.0 110.66666666666667 L 50.0 110.33333333333333 L 51.0 110.0 L 52.0 109.66666666666667 L 53.0 109.33333333333333 L 54.0 109.0 L 55.0 109.0 L 56.0 108.66666666666667 L 57.0 108.33333333333333 L 57.666666666666664 107.66666666666667 L 58.0 107.0 L 57.666666666666664 106.0 L 57.0 105.0 L 56.0 104.33333333333333 L 55.0 104.0 L 54.0 104.33333333333333 L 53.0 104.66666666666667 L 52.0 105.0 L 51.0 105.0 L 50.0 105.0 L 49.0 105.33333333333333 L 48.0 105.66666666666667 L 47.0 106.0 L 46.0 106.33333333333333 L 45.0 106.66666666666667 L 44.0 107.0 L 43.0 107.33333333333333 L 42.0 107.66666666666667 L 41.0 108.33333333333333 L 40.0 108.66666666666667 L 39.0 109.33333333333333 L 38.0 109.66666666666667 L 37.0 110.33333333333333 L 36.0 111.0 L 35.0 112.0 L 34.0 113.0 L 33.0 114.0 L 32.0 115.0 L 31.0 116.0 L 30.333333333333332 117.0 L 29.666666666666668 118.0 L 29.333333333333332 119.0 L 29.0 120.0 L 29.0 121.0 L 29.0 122.0 L 29.0 123.0 L 29.333333333333332 123.66666666666667 L 30.0 124.0 L 31.0 124.0 L 32.0 124.0 L 33.0 124.0 L 34.0 124.0 L 35.0 124.0 L 35.5 124.0 Z" stroke="none" fill="rgb(239,116,34)" />
<path d="M 69.5 109.0 L 70.0 109.33333333333333 L 70.66666666666667 110.0 L 71.0 111.0 L 71.33333333333333 112.0 L 71.66666666666667 113.0 L 72.33333333333333 114.0 L 72.66666666666667 115.0 L 73.33333333333333 116.0 L 73.66666666666667 117.0 L 74.33333333333333 118.0 L 74.66666666666667 119.0 L 75.33333333333333 120.0 L 76.0 120.66666666666667 L 76.66666666666667 120.66666666666667 L 77.0 120.0 L 77.0 119.0 L 76.66666666666667 118.0 L 76.33333333333333 117.0 L 76.0 116.0 L 75.66666666666667 115.0 L 75.33333333333333 114.0 L 75.0 113.0 L 74.66666666666667 112.0 L 74.33333333333333 111.0 L 73.66666666666667 110.0 L 73.33333333333333 109.0 L 73.0 108.0 L 72.66666666666667 107.0 L 72.0 106.33333333333333 L 71.0 106.0 L 70.0 106.0 L 69.33333333333333 106.33333333333333 L 69.0 107.0 L 69.0 108.0 L 69.0 108.5 Z" stroke="none" fill="rgb(207,96,31)" />
<path d="M 39.5 124.0 L 40.0 124.0 L 41.0 124.0 L 42.0 124.0 L 43.0 124.0 L 44.0 124.0 L 45.0 124.0 L 46.0 124.0 L 47.0 124.0 L 48.0 124.0 L 49.0 124.0 L 50.0 124.0 L 51.0 124.0 L 52.0 124.0 L 53.0 124.0 L 54.0 124.0 L 55.0 124.0 L 56.0 124.0 L 57.0 124.0 L 58.0 124.0 L 59.0 124.0 L 60.0 124.0 L 61.0 124.0 L 62.0 124.0 L 63.0 124.0 L 64.0 124.0 L 65.0 124.0 L 66.0 124.0 L 67.0 124.0 L 68.0 124.0 L 69.0 124.0 L 70.0 124.0 L 71.0 124.0 L 72.0 124.0 L 73.0 124.0 L 74.0 124.0 L 74.66666666666667 123.66666666666667 L 74.66666666666667 123.0 L 74.33333333333333 122.0 L 73.66666666666667 121.0 L 73.33333333333333 120.0 L 73.0 119.0 L 72.66666666666667 118.0 L 72.33333333333333 117.0 L 71.66666666666667 116.0 L 71.33333333333333 115.0 L 71.0 114.0 L 70.66666666666667 113.0 L 70.33333333333333 112.0 L 69.66666666666667 111.0 L 69.33333333333333 110.0 L 69.0 109.0 L 68.66666666666667 108.33333333333333 L 68.0 108.0 L 67.0 108.0 L 66.0 108.0 L 65.0 108.0 L 64.0 108.0 L 63.0 108.0 L 62.0 108.0 L 61.0 108.0 L 60.0 107.66666666666667 L 59.0 107.33333333333333 L 58.0 107.33333333333333 L 57.0 107.66666666666667 L 56.0 108.33333333333333 L 55.0 108.66666666666667 L 54.0 109.0 L 53.0 109.0 L 52.0 109.33333333333333 L 51.0 109.66666666666667 L 50.0 110.0 L 49.0 110.33333333333333 L 48.0 110.66666666666667 L 47.0 111.0 L 46.0 111.33333333333333 L 45.0 111.66666666666667 L 44.0 112.33333333333333 L 43.0 113.0 L 42.0 113.66666666666667 L 41.0 114.33333333333333 L 40.0 115.0 L 39.0 116.0 L 38.333333333333336 117.0 L 37.666666666666664 118.0 L 37.333333333333336 119.0 L 36.666666666666664 120.0 L 36.333333333333336 121.0 L 36.0 122.0 L 36.0 123.0 L 36.333333333333336 123.66666666666667 L 37.0 124.0 L 38.0 124.0 L 38.5 124.0 Z" stroke="none" fill="rgb(237,109,35)" />
<path d="M 69.5 111.5 L 69.66666666666667 112.0 L 70.33333333333333 113.0 L 70.66666666666667 114.0 L 71.0 115.0 L 71.33333333333333 116.0 L 71.66666666666667 117.0 L 72.33333333333333 118.0 L 72.66666666666667 119.0 L 73.0 120.0 L 73.33333333333333 121.0 L 73.66666666666667 122.0 L 74.33333333333333 123.0 L 75.0 123.66666666666667 L 76.0 124.0 L 77.0 124.0 L 78.0 124.0 L 78.66666666666667 123.66666666666667 L 78.66666666666667 123.0 L 78.0 122.0 L 77.0 121.0 L 76.0 120.0 L 75.33333333333333 119.0 L 74.66666666666667 118.0 L 74.33333333333333 117.0 L 73.66666666666667 116.0 L 73.33333333333333 115.0 L 72.66666666666667 114.0 L 72.33333333333333 113.0 L 71.66666666666667 112.0 L 71.33333333333333 111.0 L 71.0 110.0 L 70.66666666666667 109.33333333333333 L 70.0 109.0 L 69.33333333333333 109.33333333333333 L 69.0 110.0 L 69.0 110.5 Z" stroke="none" fill="rgb(220,102,33)" />
<path d="M 110.5 120.5 L 111.0 120.66666666666667 L 111.66666666666667 120.66666666666667 L 112.0 120.0 L 112.0 119.0 L 111.66666666666667 118.0 L 111.33333333333333 117.0 L 110.66666666666667 116.0 L 110.33333333333333 115.0 L 109.66666666666667 114.0 L 109.0 113.0 L 108.0 112.33333333333333 L 107.0 112.0 L 106.33333333333333 112.33333333333333 L 106.0 113.0 L 106.33333333333333 114.0 L 107.0 115.0 L 107.66666666666667 116.0 L 108.33333333333333 117.0 L 108.66666666666667 118.0 L 109.33333333333333 119.0 L 109.5 119.5 Z" stroke="none" fill="rgb(243,126,33)" />
</svg>
