<?xml version="1.0" encoding="UTF-8" standalone="no"?>
<!DOCTYPE svg PUBLIC "-//W3C//DTD SVG 1.1//EN"
"http://www.w3.org/Graphics/SVG/1.1/DTD/svg11.dtd">
<svg width="128" height="128" xmlns="http://www.w3.org/2000/svg" version="1.1">
<path d="M 26.5 128.0 L 27.0 128.0 L 28.0 128.0 L 29.0 128.0 L 30.0 128.0 L 31.0 128.0 L 32.0 128.0 L 33.0 128.0 L 34.0 128.0 L 35.0 128.0 L 36.0 128.0 L 37.0 128.0 L 38.0 128.0 L 39.0 128.0 L 40.0 128.0 L 41.0 128.0 L 42.0 128.0 L 43.0 128.0 L 44.0 128.0 L 45.0 128.0 L 46.0 128.0 L 47.0 128.0 L 48.0 128.0 L 49.0 128.0 L 50.0 128.0 L 51.0 128.0 L 52.0 128.0 L 53.0 128.0 L 54.0 128.0 L 55.0 128.0 L 56.0 128.0 L 57.0 128.0 L 58.0 128.0 L 59.0 128.0 L 60.0 128.0 L 61.0 128.0 L 62.0 128.0 L 63.0 128.0 L 64.0 128.0 L 65.0 128.0 L 66.0 128.0 L 67.0 128.0 L 68.0 128.0 L 69.0 128.0 L 70.0 128.0 L 71.0 128.0 L 72.0 128.0 L 73.0 128.0 L 74.0 128.0 L 75.0 128.0 L 76.0 128.0 L 77.0 128.0 L 78.0 128.0 L 79.0 128.0 L 80.0 128.0 L 81.0 128.0 L 82.0 128.0 L 83.0 128.0 L 84.0 128.0 L 85.0 128.0 L 86.0 128.0 L 87.0 128.0 L 88.0 128.0 L 89.0 128.0 L 90.0 128.0 L 91.0 128.0 L 92.0 128.0 L 93.0 128.0 L 94.0 128.0 L 95.0 128.0 L 96.0 128.0 L 97.0 128.0 L 98.0 128.0 L 99.0 128.0 L 100.0 128.0 L 101.0 128.0 L 102.0 128.0 L 103.0 128.0 L 104.0 128.0 L 105.0 128.0 L 106.0 128.0 L 107.0 128.0 L 108.0 128.0 L 109.0 128.0 L 110.0 128.0 L 111.0 128.0 L 112.0 128.0 L 113.0 128.0 L 114.0 128.0 L 115.0 128.0 L 116.0 128.0 L 117.0 128.0 L 118.0 128.0 L 119.0 128.0 L 120.0 128.0 L 121.0 128.0 L 122.0 128.0 L 123.0 128.0 L 124.0 128.0 L 125.0 128.0 L 126.0 128.0 L 127.0 128.0 L 127.66666666666667 127.66666666666667 L 128.0 127.0 L 128.0 126.0 L 128.0 125.0 L 128.0 124.0 L 128.0 123.0 L 128.0 122.0 L 128.0 121.0 L 128.0 120.0 L 128.0 119.0 L 128.0 118.0 L 128.0 117.0 L 128.0 116.0 L 128.0 115.0 L 128.0 114.0 L 128.0 113.0 L 128.0 112.0 L 128.0 111.0 L 128.0 110.0 L 128.0 109.0 L 128.0 108.0 L 128.0 107.0 L 128.0 106.0 L 128.0 105.0 L 128.0 104.0 L 128.0 103.0 L 128.0 102.0 L 128.0 101.0 L 128.0 100.0 L 128.0 99.0 L 128.0 98.0 L 128.0 97.0 L 128.0 96.0 L 128.0 95.0 L 128.0 94.0 L 128.0 93.0 L 128.0 92.0 L 128.0 91.0 L 128.0 90.0 L 128.0 89.0 L 128.0 88.0 L 128.0 87.0 L 128.0 86.0 L 128.0 85.0 L 128.0 84.0 L 128.0 83.0 L 128.0 82.0 L 128.0 81.0 L 128.0 80.0 L 128.0 79.0 L 128.0 78.0 L 128.0 77.0 L 128.0 76.0 L 128.0 75.0 L 128.0 74.0 L 128.0 73.0 L 128.0 72.0 L 128.0 71.0 L 128.0 70.0 L 128.0 69.0 L 128.0 68.0 L 128.0 67.0 L 128.0 66.0 L 128.0 65.0 L 128.0 64.0 L 128.0 63.0 L 128.0 62.0 L 128.0 61.0 L 128.0 60.0 L 128.0 59.0 L 128.0 58.0 L 128.0 57.0 L 128.0 56.0 L 128.0 55.0 L 128.0 54.0 L 128.0 53.0 L 128.0 52.0 L 128.0 51.0 L 128.0 50.0 L 128.0 49.0 L 128.0 48.0 L 128.0 47.0 L 128.0 46.0 L 128.0 45.0 L 128.0 44.0 L 128.0 43.0 L 128.0 42.0 L 128.0 41.0 L 128.0 40.0 L 128.0 39.0 L 128.0 38.0 L 128.0 37.0 L 128.0 36.0 L 128.0 35.0 L 128.0 34.0 L 128.0 33.0 L 128.0 32.0 L 128.0 31.0 L 128.0 30.0 L 128.0 29.0 L 128.0 28.0 L 128.0 27.0 L 128.0 26.0 L 128.0 25.0 L 128.0 24.0 L 128.0 23.0 L 128.0 22.0 L 128.0 21.0 L 128.0 20.0 L 128.0 19.0 L 128.0 18.0 L 128.0 17.0 L 128.0 16.0 L 128.0 15.0 L 128.0 14.0 L 128.0 13.0 L 128.0 12.0 L 128.0 11.0 L 128.0 10.0 L 128.0 9.0 L 128.0 8.0 L 128.0 7.0 L 128.0 6.0 L 128.0 5.0 L 128.0 4.0 L 128.0 3.0 L 128.0 2.0 L 128.0 1.0 L 127.66666666666667 0.3333333333333333 L 127.0 0.0 L 126.0 0.0 L 125.0 0.0 L 124.0 0.0 L 123.0 0.0 L 122.0 0.0 L 121.0 0.0 L 120.0 0.0 L 119.0 0.0 L 118.0 0.0 L 117.0 0.0 L 116.0 0.0 L 115.0 0.0 L 114.0 0.0 L 113.0 0.0 L 112.0 0.0 L 111.0 0.0 L 110.0 0.0 L 109.0 0.0 L 108.0 0.0 L 107.0 0.0 L 106.0 0.0 L 105.0 0.0 L 104.0 0.0 L 103.0 0.0 L 102.0 0.0 L 101.0 0.0 L 100.0 0.0 L 99.0 0.0 L 98.0 0.0 L 97.0 0.0 L 96.0 0.0 L 95.0 0.0 L 94.0 0.0 L 93.0 0.0 L 92.0 0.0 L 91.0 0.0 L 90.0 0.0 L 89.0 0.0 L 88.0 0.0 L 87.0 0.0 L 86.0 0.0 L 85.0 0.0 L 84.0 0.0 L 83.0 0.0 L 82.0 0.0 L 81.0 0.0 L 80.0 0.0 L 79.0 0.0 L 78.0 0.0 L 77.0 0.0 L 76.0 0.0 L 75.0 0.0 L 74.0 0.0 L 73.0 0.0 L 72.0 0.0 L 71.0 0.0 L 70.0 0.0 L 69.0 0.0 L 68.0 0.0 L 67.0 0.0 L 66.0 0.0 L 65.0 0.0 L 64.0 0.0 L 63.0 0.0 L 62.0 0.0 L 61.0 0.0 L 60.0 0.0 L 59.0 0.0 L 58.0 0.0 L 57.0 0.0 L 56.0 0.0 L 55.0 0.0 L 54.0 0.0 L 53.0 0.0 L 52.0 0.0 L 51.0 0.0 L 50.0 0.0 L 49.0 0.0 L 48.0 0.0 L 47.0 0.0 L 46.0 0.0 L 45.0 0.0 L 44.0 0.0 L 43.0 0.0 L 42.0 0.0 L 41.0 0.0 L 40.0 0.0 L 39.0 0.0 L 38.0 0.0 L 37.0 0.0 L 36.0 0.0 L 35.0 0.0 L 34.0 0.0 L 33.0 0.0 L 32.0 0.0 L 31.0 0.0 L 30.0 0.0 L 29.0 0.0 L 28.0 0.0 L 27.0 0.0 L 26.0 0.0 L 25.0 0.0 L 24.0 0.0 L 23.0 0.0 L 22.0 0.0 L 21.0 0.0 L 20.0 0.0 L 19.0 0.0 L 18.0 0.0 L 17.0 0.0 L 16.0 0.0 L 15.0 0.0 L 14.0 0.0 L 13.0 0.0 L 12.0 0.0 L 11.0 0.0 L 10.0 0.0 L 9.0 0.0 L 8.0 0.0 L 7.0 0.0 L 6.0 0.0 L 5.0 0.0 L 4.0 0.0 L 3.0 0.0 L 2.0 0.0 L 1.0 0.0 L 0.3333333333333333 0.3333333333333333 L 0.0 1.0 L 0.0 2.0 L 0.0 3.0 L 0.0 4.0 L 0.0 5.0 L 0.0 6.0 L 0.0 7.0 L 0.0 8.0 L 0.0 9.0 L 0.0 10.0 L 0.0 11.0 L 0.0 12.0 L 0.0 13.0 L 0.0 14.0 L 0.0 15.0 L 0.0 16.0 L 0.0 17.0 L 0.0 18.0 L 0.0 19.0 L 0.0 20.0 L 0.0 21.0 L 0.0 22.0 L 0.0 23.0 L 0.0 24.0 L 0.0 25.0 L 0.0 26.0 L 0.0 27.0 L 0.0 28.0 L 0.0 29.0 L 0.0 30.0 L 0.0 31.0 L 0.0 32.0 L 0.0 33.0 L 0.0 34.0 L 0.0 35.0 L 0.0 36.0 L 0.0 37.0 L 0.0 38.0 L 0.0 39.0 L 0.0 40.0 L 0.0 41.0 L 0.0 42.0 L 0.0 43.0 L 0.0 44.0 L 0.0 45.0 L 0.0 46.0 L 0.0 47.0 L 0.0 48.0 L 0.0 49.0 L 0.0 50.0 L 0.0 51.0 L 0.0 52.0 L 0.0 53.0 L 0.0 54.0 L 0.0 55.0 L 0.0 56.0 L 0.0 57.0 L 0.0 58.0 L 0.0 59.0 L 0.0 60.0 L 0.0 61.0 L 0.0 62.0 L 0.0 63.0 L 0.0 64.0 L 0.0 65.0 L 0.0 66.0 L 0.0 67.0 L 0.0 68.0 L 0.0 69.0 L 0.0 70.0 L 0.0 71.0 L 0.0 72.0 L 0.0 73.0 L 0.0 74.0 L 0.0 75.0 L 0.0 76.0 L 0.0 77.0 L 0.0 78.0 L 0.0 79.0 L 0.0 80.0 L 0.0 81.0 L 0.0 82.0 L 0.0 83.0 L 0.0 84.0 L 0.0 85.0 L 0.0 86.0 L 0.0 87.0 L 0.0 88.0 L 0.0 89.0 L 0.0 90.0 L 0.0 91.0 L 0.0 92.0 L 0.0 93.0 L 0.0 94.0 L 0.0 95.0 L 0.0 96.0 L 0.0 97.0 L 0.0 98.0 L 0.0 99.0 L 0.0 100.0 L 0.0 101.0 L 0.0 102.0 L 0.0 103.0 L 0.0 104.0 L 0.0 105.0 L 0.0 106.0 L 0.0 107.0 L 0.0 108.0 L 0.0 109.0 L 0.0 110.0 L 0.0 111.0 L 0.0 112.0 L 0.0 113.0 L 0.0 114.0 L 0.0 115.0 L 0.0 116.0 L 0.0 117.0 L 0.0 118.0 L 0.0 119.0 L 0.0 120.0 L 0.0 121.0 L 0.0 122.0 L 0.0 123.0 L 0.0 124.0 L 0.0 125.0 L 0.0 126.0 L 0.0 127.0 L 0.3333333333333333 127.66666666666667 L 1.0 128.0 L 2.0 128.0 L 3.0 128.0 L 4.0 128.0 L 5.0 128.0 L 6.0 128.0 L 7.0 128.0 L 8.0 128.0 L 9.0 128.0 L 10.0 128.0 L 11.0 128.0 L 12.0 128.0 L 13.0 128.0 L 14.0 128.0 L 15.0 128.0 L 16.0 128.0 L 17.0 128.0 L 18.0 128.0 L 19.0 128.0 L 20.0 128.0 L 21.0 128.0 L 22.0 128.0 L 23.0 128.0 L 24.0 128.0 L 25.0 128.0 L 25.5 128.0 Z" stroke="none" fill="rgb(255,255,255)" />
<path d="M 88.5 26.0 L 89.0 26.0 L 89.66666666666667 25.666666666666668 L 90.0 25.0 L 89.66666666666667 24.0 L 89.33333333333333 23.0 L 88.66666666666667 22.0 L 88.33333333333333 21.0 L 87.66666666666667 20.0 L 87.0 19.0 L 86.33333333333333 18.0 L 85.66666666666667 17.0 L 85.0 16.0 L 84.0 15.0 L 83.0 14.0 L 82.0 13.0 L 81.0 12.0 L 80.0 11.0 L 79.0 10.333333333333334 L 78.0 9.666666666666666 L 77.0 9.0 L 76.0 8.333333333333334 L 75.0 7.666666666666667 L 74.0 7.333333333333333 L 73.0 6.666666666666667 L 72.0 6.333333333333333 L 71.0 6.0 L 70.0 5.666666666666667 L 69.0 5.333333333333333 L 68.0 5.0 L 67.0 5.0 L 66.0 4.666666666666667 L 65.0 4.333333333333333 L 64.0 4.0 L 63.0 4.0 L 62.0 4.0 L 61.0 4.0 L 60.0 4.0 L 59.0 4.0 L 58.0 4.0 L 57.0 3.6666666666666665 L 56.0 3.3333333333333335 L 55.0 3.3333333333333335 L 54.0 3.6666666666666665 L 53.0 4.0 L 52.0 4.0 L 51.0 4.0 L 50.0 4.0 L 49.0 4.0 L 48.0 4.0 L 47.0 4.333333333333333 L 46.0 4.666666666666667 L 45.0 5.0 L 44.0 5.333333333333333 L 43.0 5.666666666666667 L 42.0 6.333333333333333 L 41.0 6.666666666666667 L 40.0 7.333333333333333 L 39.0 7.666666666666667 L 38.0 8.333333333333334 L 37.0 9.0 L 36.0 10.0 L 35.0 11.0 L 34.333333333333336 12.0 L 33.666666666666664 13.0 L 33.333333333333336 14.0 L 32.666666666666664 15.0 L 32.333333333333336 16.0 L 31.666666666666668 17.0 L 31.333333333333332 18.0 L 31.0 19.0 L 30.666666666666668 20.0 L 30.333333333333332 21.0 L 30.0 22.0 L 30.0 23.0 L 30.0 24.0 L 30.0 25.0 L 30.333333333333332 25.666666666666668 L 31.0 26.0 L 32.0 26.0 L 33.0 26.0 L 34.0 26.0 L 35.0 26.0 L 36.0 26.0 L 37.0 26.0 L 38.0 26.0 L 39.0 26.0 L 40.0 26.0 L 41.0 26.0 L 42.0 26.0 L 43.0 26.0 L 44.0 26.0 L 45.0 26.0 L 46.0 26.0 L 47.0 26.0 L 48.0 26.0 L 49.0 26.0 L 49.666666666666664 25.666666666666668 L 50.0 25.0 L 50.0 24.0 L 49.666666666666664 23.0 L 49.333333333333336 22.0 L 48.666666666666664 21.0 L 48.333333333333336 20.0 L 48.333333333333336 19.0 L 49.0 18.0 L 50.0 17.333333333333332 L 51.0 17.333333333333332 L 52.0 18.0 L 53.0 19.0 L 54.0 20.0 L 55.0 21.0 L 55.666666666666664 22.0 L 56.0 23.0 L 56.333333333333336 23.666666666666668 L 57.0 24.0 L 58.0 24.333333333333332 L 59.0 24.666666666666668 L 60.0 25.0 L 61.0 25.333333333333332 L 62.0 25.666666666666668 L 63.0 26.333333333333332 L 64.0 26.666666666666668 L 65.0 27.0 L 66.0 27.0 L 67.0 27.0 L 68.0 26.666666666666668 L 69.0 26.333333333333332 L 70.0 26.0 L 71.0 26.0 L 72.0 26.0 L 73.0 26.0 L 74.0 26.0 L 75.0 26.0 L 76.0 26.0 L 77.0 26.0 L 78.0 26.0 L 79.0 26.0 L 80.0 26.0 L 81.0 26.0 L 82.0 26.0 L 83.0 26.0 L 84.0 26.0 L 85.0 26.0 L 86.0 26.0 L 87.0 26.0 L 87.5 26.0 Z" stroke="none" fill="rgb(178,223,219)" />
<path d="M 59.5 92.0 L 60.0 92.0 L 61.0 92.0 L 62.0 92.0 L 63.0 92.0 L 64.0 92.0 L 65.0 92.0 L 66.0 92.0 L 67.0 92.0 L 68.0 92.0 L 69.0 92.0 L 70.0 92.0 L 71.0 92.0 L 72.0 92.0 L 73.0 92.0 L 74.0 92.0 L 75.0 92.0 L 76.0 92.0 L 77.0 92.0 L 78.0 92.0 L 79.0 92.0 L 80.0 92.0 L 81.0 92.0 L 82.0 92.0 L 83.0 92.0 L 84.0 92.0 L 85.0 92.0 L 86.0 92.0 L 87.0 92.0 L 88.0 92.0 L 89.0 92.0 L 89.66666666666667 91.66666666666667 L 90.0 91.0 L 90.0 90.0 L 90.33333333333333 89.0 L 90.66666666666667 88.0 L 91.0 87.0 L 91.0 86.0 L 91.0 85.0 L 91.0 84.0 L 91.0 83.0 L 91.0 82.0 L 90.66666666666667 81.33333333333333 L 90.0 81.0 L 89.0 81.0 L 88.0 81.0 L 87.0 81.0 L 86.33333333333333 81.33333333333333 L 86.0 82.0 L 85.66666666666667 83.0 L 85.0 84.0 L 84.0 85.0 L 83.0 86.0 L 82.0 86.66666666666667 L 81.0 86.66666666666667 L 80.0 86.0 L 79.0 85.0 L 78.33333333333333 84.0 L 78.0 83.0 L 78.0 82.0 L 77.66666666666667 81.33333333333333 L 77.0 81.0 L 76.0 81.0 L 75.0 81.0 L 74.0 81.0 L 73.0 81.0 L 72.0 81.0 L 71.0 81.0 L 70.0 81.0 L 69.0 81.0 L 68.0 81.0 L 67.0 81.0 L 66.0 81.0 L 65.0 81.0 L 64.0 81.0 L 63.0 81.0 L 62.0 81.0 L 61.0 81.0 L 60.0 81.0 L 59.0 81.0 L 58.0 81.0 L 57.0 81.0 L 56.0 81.0 L 55.333333333333336 81.33333333333333 L 55.0 82.0 L 55.0 83.0 L 55.0 84.0 L 55.0 85.0 L 54.666666666666664 86.0 L 54.0 87.0 L 53.0 87.66666666666667 L 52.0 88.0 L 51.0 88.0 L 50.0 87.66666666666667 L 49.0 87.0 L 48.0 86.0 L 47.333333333333336 85.0 L 46.666666666666664 84.0 L 46.333333333333336 83.0 L 45.666666666666664 82.0 L 45.0 81.33333333333333 L 44.0 81.0 L 43.0 81.0 L 42.0 81.0 L 41.0 81.0 L 40.0 81.0 L 39.0 81.0 L 38.333333333333336 81.33333333333333 L 37.666666666666664 82.0 L 37.333333333333336 83.0 L 37.0 84.0 L 37.0 85.0 L 37.0 86.0 L 37.0 87.0 L 37.0 88.0 L 37.0 89.0 L 37.0 90.0 L 37.0 91.0 L 37.333333333333336 91.66666666666667 L 38.0 92.0 L 39.0 92.0 L 40.0 92.0 L 41.0 92.0 L 42.0 92.0 L 43.0 92.0 L 44.0 92.0 L 45.0 92.0 L 46.0 92.0 L 47.0 92.0 L 48.0 92.0 L 49.0 92.0 L 50.0 92.0 L 51.0 92.0 L 52.0 92.0 L 53.0 92.0 L 54.0 92.0 L 55.0 92.0 L 56.0 92.0 L 57.0 92.0 L 58.0 92.0 L 58.5 92.0 Z" stroke="none" fill="rgb(147,211,205)" />
<path d="M 71.5 44.5 L 71.66666666666667 45.0 L 72.33333333333333 46.0 L 73.0 47.0 L 74.0 47.666666666666664 L 75.0 48.0 L 75.66666666666667 47.666666666666664 L 75.66666666666667 47.0 L 75.0 46.0 L 74.66666666666667 45.0 L 74.66666666666667 44.0 L 75.33333333333333 43.0 L 75.66666666666667 42.0 L 76.0 41.0 L 76.0 40.0 L 76.0 39.0 L 76.0 38.0 L 76.0 37.0 L 75.66666666666667 36.0 L 75.33333333333333 35.0 L 74.66666666666667 34.0 L 74.0 33.0 L 73.0 32.0 L 72.0 31.333333333333332 L 71.0 31.0 L 70.0 30.666666666666668 L 69.0 30.333333333333332 L 68.0 30.0 L 67.0 29.666666666666668 L 66.0 29.333333333333332 L 65.0 29.0 L 64.0 29.0 L 63.0 29.0 L 62.0 29.0 L 61.0 29.0 L 60.0 29.0 L 59.0 29.0 L 58.0 29.0 L 57.0 29.333333333333332 L 56.0 29.666666666666668 L 55.0 30.0 L 54.0 30.0 L 53.0 30.333333333333332 L 52.0 30.666666666666668 L 51.0 31.333333333333332 L 50.0 31.666666666666668 L 49.0 32.333333333333336 L 48.0 32.666666666666664 L 47.0 33.333333333333336 L 46.0 34.0 L 45.0 35.0 L 44.333333333333336 36.0 L 43.666666666666664 37.0 L 43.333333333333336 38.0 L 43.0 39.0 L 42.666666666666664 40.0 L 42.333333333333336 41.0 L 42.0 42.0 L 42.0 43.0 L 42.0 44.0 L 42.0 45.0 L 42.333333333333336 46.0 L 43.0 47.0 L 44.0 48.0 L 45.0 49.0 L 46.0 50.0 L 47.0 51.0 L 48.0 51.666666666666664 L 49.0 52.0 L 50.0 52.0 L 50.666666666666664 51.666666666666664 L 51.0 51.0 L 51.0 50.0 L 51.0 49.0 L 50.666666666666664 48.0 L 50.0 47.0 L 49.0 46.0 L 48.0 45.0 L 47.333333333333336 44.0 L 47.0 43.0 L 47.0 42.0 L 47.0 41.0 L 47.333333333333336 40.0 L 48.0 39.0 L 49.0 38.0 L 50.0 37.0 L 51.0 36.0 L 52.0 35.0 L 53.0 34.333333333333336 L 54.0 33.666666666666664 L 55.0 33.333333333333336 L 56.0 33.0 L 57.0 33.0 L 58.0 32.666666666666664 L 59.0 32.333333333333336 L 60.0 32.0 L 61.0 32.0 L 62.0 32.0 L 63.0 32.333333333333336 L 64.0 32.666666666666664 L 65.0 33.0 L 66.0 33.333333333333336 L 67.0 33.666666666666664 L 68.0 34.333333333333336 L 69.0 35.0 L 70.0 36.0 L 70.66666666666667 37.0 L 71.0 38.0 L 71.0 39.0 L 71.0 40.0 L 71.0 41.0 L 71.0 42.0 L 71.0 43.0 L 71.0 43.5 Z" stroke="none" fill="rgb(35,173,238)" />
<path d="M 42.5 111.0 L 43.0 111.0 L 44.0 111.0 L 45.0 111.0 L 46.0 111.0 L 47.0 111.0 L 48.0 111.0 L 49.0 111.0 L 50.0 111.0 L 51.0 111.0 L 52.0 111.0 L 53.0 111.0 L 54.0 111.0 L 55.0 111.0 L 56.0 111.0 L 57.0 111.0 L 58.0 111.0 L 59.0 111.0 L 60.0 111.0 L 61.0 111.0 L 62.0 111.0 L 63.0 111.0 L 64.0 111.0 L 65.0 111.0 L 66.0 111.0 L 67.0 111.0 L 68.0 111.0 L 69.0 111.0 L 70.0 111.0 L 71.0 111.0 L 72.0 111.0 L 73.0 111.0 L 74.0 111.0 L 75.0 111.0 L 76.0 111.0 L 77.0 111.0 L 78.0 111.0 L 79.0 111.0 L 80.0 111.0 L 81.0 111.0 L 82.0 111.0 L 83.0 111.0 L 84.0 111.0 L 85.0 111.0 L 86.0 110.66666666666667 L 86.66666666666667 110.0 L 87.0 109.0 L 87.33333333333333 108.0 L 87.66666666666667 107.0 L 88.0 106.0 L 88.0 105.0 L 88.33333333333333 104.0 L 88.66666666666667 103.0 L 89.0 102.0 L 88.66666666666667 101.33333333333333 L 88.0 101.0 L 87.0 101.0 L 86.0 101.0 L 85.0 101.0 L 84.0 101.0 L 83.0 101.0 L 82.0 101.0 L 81.0 101.0 L 80.0 101.0 L 79.0 101.0 L 78.0 101.0 L 77.0 101.0 L 76.0 101.0 L 75.0 101.0 L 74.0 101.0 L 73.0 101.0 L 72.0 101.0 L 71.0 101.0 L 70.0 101.0 L 69.0 101.0 L 68.0 101.0 L 67.0 101.0 L 66.0 101.0 L 65.0 101.0 L 64.0 101.0 L 63.0 101.0 L 62.0 101.0 L 61.0 101.0 L 60.0 101.0 L 59.0 101.0 L 58.0 101.0 L 57.0 101.0 L 56.0 101.0 L 55.0 101.0 L 54.0 101.0 L 53.0 101.0 L 52.0 101.0 L 51.0 101.0 L 50.0 101.0 L 49.0 101.0 L 48.0 101.0 L 47.0 101.0 L 46.0 101.0 L 45.0 101.0 L 44.0 101.0 L 43.0 101.0 L 42.0 101.0 L 41.0 101.0 L 40.0 101.0 L 39.0 101.0 L 38.333333333333336 101.33333333333333 L 38.0 102.0 L 38.0 103.0 L 38.0 104.0 L 38.0 105.0 L 38.333333333333336 106.0 L 38.666666666666664 107.0 L 39.0 108.0 L 39.333333333333336 109.0 L 39.666666666666664 110.0 L 40.333333333333336 110.66666666666667 L 41.0 111.0 L 41.5 111.0 Z" stroke="none" fill="rgb(138,207,201)" />
<path d="M 72.5 101.0 L 73.0 101.0 L 74.0 101.0 L 75.0 101.0 L 76.0 101.0 L 77.0 101.0 L 78.0 101.0 L 79.0 101.0 L 80.0 101.0 L 81.0 101.0 L 82.0 101.0 L 83.0 101.0 L 84.0 101.0 L 85.0 101.0 L 86.0 101.0 L 87.0 101.0 L 88.0 101.0 L 88.66666666666667 100.66666666666667 L 89.0 100.0 L 89.0 99.0 L 89.0 98.0 L 89.33333333333333 97.0 L 89.66666666666667 96.0 L 90.0 95.0 L 90.0 94.0 L 90.0 93.0 L 89.66666666666667 92.33333333333333 L 89.0 92.0 L 88.0 92.0 L 87.0 92.0 L 86.0 92.0 L 85.0 92.0 L 84.0 92.0 L 83.0 92.0 L 82.0 92.0 L 81.0 92.0 L 80.0 92.0 L 79.0 92.0 L 78.0 92.0 L 77.0 92.0 L 76.0 92.0 L 75.0 92.0 L 74.0 92.0 L 73.0 92.0 L 72.0 92.0 L 71.0 92.0 L 70.0 92.0 L 69.0 92.0 L 68.0 92.0 L 67.0 92.0 L 66.0 92.0 L 65.0 92.0 L 64.0 92.0 L 63.0 92.0 L 62.0 92.0 L 61.0 92.0 L 60.0 92.0 L 59.0 92.0 L 58.0 92.0 L 57.0 92.0 L 56.0 92.0 L 55.0 92.0 L 54.0 92.0 L 53.0 92.0 L 52.0 92.0 L 51.0 92.0 L 50.0 92.0 L 49.0 92.0 L 48.0 92.0 L 47.0 92.0 L 46.0 92.0 L 45.0 92.0 L 44.0 92.0 L 43.0 92.0 L 42.0 92.0 L 41.0 92.0 L 40.0 92.0 L 39.0 92.0 L 38.0 92.0 L 37.333333333333336 92.33333333333333 L 37.0 93.0 L 37.0 94.0 L 37.0 95.0 L 37.0 96.0 L 37.0 97.0 L 37.0 98.0 L 37.0 99.0 L 37.0 100.0 L 37.333333333333336 100.66666666666667 L 38.0 101.0 L 39.0 101.0 L 40.0 101.0 L 41.0 101.0 L 42.0 101.0 L 43.0 101.0 L 44.0 101.0 L 45.0 101.0 L 46.0 101.0 L 47.0 101.0 L 48.0 101.0 L 49.0 101.0 L 50.0 101.0 L 51.0 101.0 L 52.0 101.0 L 53.0 101.0 L 54.0 101.0 L 55.0 101.0 L 56.0 101.0 L 57.0 101.0 L 58.0 101.0 L 59.0 101.0 L 60.0 101.0 L 61.0 101.0 L 62.0 101.0 L 63.0 101.0 L 64.0 101.0 L 65.0 101.0 L 66.0 101.0 L 67.0 101.0 L 68.0 101.0 L 69.0 101.0 L 70.0 101.0 L 71.0 101.0 L 71.5 101.0 Z" stroke="none" fill="rgb(142,208,203)" />
<path d="M 48.5 121.5 L 49.0 121.66666666666667 L 50.0 122.33333333333333 L 51.0 122.66666666666667 L 52.0 123.0 L 53.0 123.33333333333333 L 54.0 123.66666666666667 L 55.0 124.0 L 56.0 124.0 L 57.0 124.0 L 58.0 124.0 L 59.0 124.0 L 60.0 124.0 L 61.0 124.0 L 62.0 124.0 L 63.0 124.0 L 64.0 124.0 L 65.0 124.0 L 66.0 124.0 L 67.0 124.0 L 68.0 124.0 L 69.0 124.0 L 70.0 124.0 L 71.0 123.66666666666667 L 72.0 123.33333333333333 L 73.0 123.0 L 74.0 123.0 L 75.0 122.66666666666667 L 76.0 122.33333333333333 L 77.0 121.66666666666667 L 78.0 121.0 L 79.0 120.33333333333333 L 80.0 119.66666666666667 L 81.0 119.0 L 82.0 118.0 L 82.66666666666667 117.0 L 83.33333333333333 116.0 L 84.0 115.0 L 84.66666666666667 114.0 L 85.0 113.0 L 85.0 112.0 L 84.66666666666667 111.33333333333333 L 84.0 111.0 L 83.0 111.0 L 82.0 111.0 L 81.0 111.0 L 80.0 111.0 L 79.0 111.0 L 78.0 111.0 L 77.0 111.0 L 76.0 111.0 L 75.0 111.0 L 74.0 111.0 L 73.0 111.0 L 72.0 111.0 L 71.0 111.0 L 70.0 111.0 L 69.0 111.0 L 68.0 111.0 L 67.0 111.0 L 66.0 111.0 L 65.0 111.0 L 64.0 111.0 L 63.0 111.0 L 62.0 111.0 L 61.0 111.0 L 60.0 111.0 L 59.0 111.0 L 58.0 111.0 L 57.0 111.0 L 56.0 111.0 L 55.0 111.0 L 54.0 111.0 L 53.0 111.0 L 52.0 111.0 L 51.0 111.0 L 50.0 111.0 L 49.0 111.0 L 48.0 111.0 L 47.0 111.0 L 46.0 111.0 L 45.0 111.0 L 44.0 111.0 L 43.0 111.0 L 42.0 111.0 L 41.333333333333336 111.33333333333333 L 41.0 112.0 L 41.0 113.0 L 41.333333333333336 114.0 L 42.0 115.0 L 42.666666666666664 116.0 L 43.333333333333336 117.0 L 44.0 118.0 L 45.0 119.0 L 46.0 119.66666666666667 L 47.0 120.33333333333333 L 47.5 120.5 Z" stroke="none" fill="rgb(133,205,198)" />
<path d="M 59.5 68.0 L 60.0 68.0 L 61.0 68.0 L 62.0 68.0 L 63.0 68.0 L 64.0 68.0 L 65.0 68.0 L 66.0 68.0 L 67.0 68.0 L 68.0 68.0 L 69.0 68.0 L 70.0 68.0 L 71.0 68.0 L 72.0 68.0 L 73.0 68.0 L 74.0 68.0 L 75.0 68.0 L 76.0 68.0 L 77.0 68.0 L 78.0 68.0 L 79.0 68.0 L 80.0 68.0 L 81.0 67.66666666666667 L 81.66666666666667 67.0 L 82.0 66.0 L 82.0 65.0 L 81.66666666666667 64.0 L 81.33333333333333 63.0 L 81.0 62.0 L 81.0 61.0 L 81.0 60.0 L 81.0 59.0 L 81.0 58.0 L 80.66666666666667 57.0 L 80.0 56.333333333333336 L 79.0 56.0 L 78.0 56.0 L 77.0 56.0 L 76.0 56.0 L 75.0 56.0 L 74.0 56.0 L 73.0 56.0 L 72.0 56.0 L 71.0 56.0 L 70.0 56.0 L 69.0 56.0 L 68.0 56.0 L 67.0 56.0 L 66.0 56.0 L 65.0 56.0 L 64.0 56.0 L 63.0 56.0 L 62.0 56.0 L 61.0 56.0 L 60.0 56.0 L 59.0 56.0 L 58.0 56.0 L 57.0 56.0 L 56.0 56.0 L 55.0 56.0 L 54.0 56.0 L 53.0 56.0 L 52.0 56.0 L 51.0 56.0 L 50.0 56.0 L 49.333333333333336 56.333333333333336 L 49.0 57.0 L 49.0 58.0 L 49.0 59.0 L 49.0 60.0 L 49.0 61.0 L 49.0 62.0 L 49.0 63.0 L 48.666666666666664 64.0 L 48.333333333333336 65.0 L 48.333333333333336 66.0 L 49.0 67.0 L 50.0 67.66666666666667 L 51.0 68.0 L 52.0 68.0 L 53.0 68.0 L 54.0 68.0 L 55.0 68.0 L 56.0 68.0 L 57.0 68.0 L 58.0 68.0 L 58.5 68.0 Z" stroke="none" fill="rgb(158,215,210)" />
<path d="M 59.5 81.0 L 60.0 81.0 L 61.0 81.0 L 62.0 81.0 L 63.0 81.0 L 64.0 81.0 L 65.0 81.0 L 66.0 81.0 L 67.0 81.0 L 68.0 81.0 L 69.0 81.0 L 70.0 81.0 L 71.0 81.0 L 72.0 81.0 L 73.0 81.0 L 74.0 81.0 L 75.0 81.0 L 76.0 81.0 L 77.0 81.0 L 78.0 81.0 L 79.0 80.66666666666667 L 79.66666666666667 80.0 L 80.0 79.0 L 80.0 78.0 L 80.0 77.0 L 80.0 76.0 L 80.33333333333333 75.0 L 80.66666666666667 74.0 L 81.0 73.0 L 80.66666666666667 72.0 L 80.33333333333333 71.0 L 80.0 70.0 L 80.0 69.0 L 79.66666666666667 68.33333333333333 L 79.0 68.0 L 78.0 68.0 L 77.0 68.0 L 76.0 68.0 L 75.0 68.0 L 74.0 68.0 L 73.0 68.0 L 72.0 68.0 L 71.0 68.0 L 70.0 68.0 L 69.0 68.0 L 68.0 68.0 L 67.0 68.0 L 66.0 68.0 L 65.0 68.0 L 64.0 68.0 L 63.0 68.0 L 62.0 68.0 L 61.0 68.0 L 60.0 68.0 L 59.0 68.0 L 58.0 68.0 L 57.0 68.0 L 56.0 68.0 L 55.0 68.0 L 54.0 68.0 L 53.0 68.0 L 52.0 68.0 L 51.0 68.0 L 50.333333333333336 68.33333333333333 L 50.0 69.0 L 50.0 70.0 L 50.0 71.0 L 50.0 72.0 L 50.333333333333336 73.0 L 50.666666666666664 74.0 L 51.333333333333336 75.0 L 51.666666666666664 76.0 L 52.0 77.0 L 52.333333333333336 78.0 L 52.666666666666664 79.0 L 53.333333333333336 80.0 L 54.0 80.66666666666667 L 55.0 81.0 L 56.0 81.0 L 57.0 81.0 L 58.0 81.0 L 58.5 81.0 Z" stroke="none" fill="rgb(153,213,207)" />
<path d="M 57.5 56.0 L 58.0 56.0 L 59.0 56.0 L 60.0 56.0 L 61.0 56.0 L 62.0 56.0 L 63.0 56.0 L 64.0 56.0 L 65.0 56.0 L 66.0 56.0 L 67.0 56.0 L 68.0 56.0 L 69.0 56.0 L 70.0 56.0 L 71.0 56.0 L 72.0 56.0 L 73.0 56.0 L 74.0 56.0 L 75.0 56.0 L 76.0 56.0 L 77.0 56.0 L 78.0 56.0 L 79.0 56.0 L 79.66666666666667 55.666666666666664 L 80.0 55.0 L 79.66666666666667 54.0 L 79.33333333333333 53.0 L 79.0 52.0 L 79.0 51.0 L 78.66666666666667 50.0 L 78.0 49.0 L 77.0 48.333333333333336 L 76.0 48.0 L 75.0 47.666666666666664 L 74.0 47.0 L 73.0 46.0 L 72.0 45.333333333333336 L 71.0 45.0 L 70.0 45.0 L 69.0 45.0 L 68.0 45.0 L 67.0 45.0 L 66.0 45.0 L 65.0 45.0 L 64.0 45.0 L 63.0 45.0 L 62.0 45.0 L 61.0 45.0 L 60.0 45.0 L 59.0 45.0 L 58.0 45.0 L 57.0 45.0 L 56.0 45.0 L 55.0 45.0 L 54.0 45.333333333333336 L 53.0 46.0 L 52.0 47.0 L 51.333333333333336 48.0 L 51.0 49.0 L 51.0 50.0 L 50.666666666666664 51.0 L 50.333333333333336 52.0 L 50.0 53.0 L 50.0 54.0 L 50.0 55.0 L 50.333333333333336 55.666666666666664 L 51.0 56.0 L 52.0 56.0 L 53.0 56.0 L 54.0 56.0 L 55.0 56.0 L 56.0 56.0 L 56.5 56.0 Z" stroke="none" fill="rgb(164,217,213)" />
<path d="M 53.5 46.5 L 53.666666666666664 46.0 L 54.0 45.0 L 54.0 44.0 L 54.333333333333336 43.0 L 54.666666666666664 42.0 L 55.333333333333336 41.0 L 56.0 40.0 L 57.0 39.0 L 58.0 38.0 L 59.0 37.666666666666664 L 60.0 37.666666666666664 L 61.0 38.333333333333336 L 62.0 39.0 L 63.0 39.666666666666664 L 64.0 40.333333333333336 L 65.0 41.0 L 66.0 42.0 L 67.0 42.666666666666664 L 68.0 43.333333333333336 L 69.0 44.0 L 70.0 44.666666666666664 L 71.0 45.0 L 71.66666666666667 44.666666666666664 L 71.66666666666667 44.0 L 71.33333333333333 43.0 L 71.0 42.0 L 71.33333333333333 41.0 L 71.66666666666667 40.0 L 71.66666666666667 39.0 L 71.33333333333333 38.0 L 71.0 37.0 L 70.66666666666667 36.0 L 70.0 35.0 L 69.0 34.333333333333336 L 68.0 33.666666666666664 L 67.0 33.333333333333336 L 66.0 33.0 L 65.0 32.666666666666664 L 64.0 32.333333333333336 L 63.0 32.0 L 62.0 32.0 L 61.0 32.0 L 60.0 32.0 L 59.0 32.0 L 58.0 32.333333333333336 L 57.0 32.666666666666664 L 56.0 33.0 L 55.0 33.0 L 54.0 33.333333333333336 L 53.0 33.666666666666664 L 52.0 34.333333333333336 L 51.0 35.0 L 50.0 36.0 L 49.0 37.0 L 48.0 38.0 L 47.333333333333336 39.0 L 47.0 40.0 L 47.0 41.0 L 47.0 42.0 L 47.0 43.0 L 47.0 44.0 L 47.333333333333336 45.0 L 48.0 46.0 L 49.0 47.0 L 50.0 47.666666666666664 L 51.0 48.0 L 52.0 47.666666666666664 L 52.5 47.5 Z" stroke="none" fill="rgb(44,178,240)" />
<path d="M 91.5 35.0 L 92.0 35.0 L 92.66666666666667 34.666666666666664 L 93.0 34.0 L 93.0 33.0 L 92.66666666666667 32.0 L 92.33333333333333 31.0 L 92.0 30.0 L 91.66666666666667 29.0 L 91.33333333333333 28.0 L 91.0 27.0 L 90.66666666666667 26.333333333333332 L 90.0 26.0 L 89.0 26.0 L 88.0 26.0 L 87.0 26.0 L 86.0 26.0 L 85.0 26.0 L 84.0 26.0 L 83.0 26.0 L 82.0 26.0 L 81.0 26.0 L 80.0 26.0 L 79.0 26.0 L 78.0 26.0 L 77.0 26.0 L 76.0 26.0 L 75.0 26.0 L 74.0 26.0 L 73.0 26.0 L 72.0 26.0 L 71.0 26.0 L 70.0 26.0 L 69.0 26.0 L 68.33333333333333 26.333333333333332 L 68.0 27.0 L 68.33333333333333 28.0 L 69.0 29.0 L 70.0 30.0 L 71.0 31.0 L 72.0 32.0 L 73.0 33.0 L 74.0 33.666666666666664 L 75.0 34.0 L 76.0 34.0 L 77.0 34.333333333333336 L 78.0 35.0 L 79.0 35.666666666666664 L 80.0 36.0 L 81.0 35.666666666666664 L 82.0 35.333333333333336 L 83.0 35.0 L 84.0 35.0 L 85.0 35.0 L 86.0 35.0 L 87.0 35.0 L 88.0 35.0 L 89.0 35.0 L 90.0 35.0 L 90.5 35.0 Z" stroke="none" fill="rgb(174,221,217)" />
<path d="M 37.5 35.0 L 38.0 35.0 L 39.0 35.0 L 40.0 35.0 L 41.0 35.0 L 42.0 35.0 L 43.0 35.333333333333336 L 44.0 35.666666666666664 L 45.0 35.666666666666664 L 46.0 35.0 L 46.666666666666664 34.0 L 47.0 33.0 L 47.333333333333336 32.0 L 48.0 31.0 L 49.0 30.0 L 49.666666666666664 29.0 L 50.0 28.0 L 50.0 27.0 L 49.666666666666664 26.333333333333332 L 49.0 26.0 L 48.0 26.0 L 47.0 26.0 L 46.0 26.0 L 45.0 26.0 L 44.0 26.0 L 43.0 26.0 L 42.0 26.0 L 41.0 26.0 L 40.0 26.0 L 39.0 26.0 L 38.0 26.0 L 37.0 26.0 L 36.0 26.0 L 35.0 26.0 L 34.0 26.0 L 33.0 26.0 L 32.0 26.0 L 31.0 26.0 L 30.333333333333332 26.333333333333332 L 29.666666666666668 27.0 L 29.333333333333332 28.0 L 29.0 29.0 L 29.0 30.0 L 29.0 31.0 L 29.0 32.0 L 29.333333333333332 33.0 L 29.666666666666668 34.0 L 30.333333333333332 34.666666666666664 L 31.0 35.0 L 32.0 35.0 L 33.0 35.0 L 34.0 35.0 L 35.0 35.0 L 36.0 35.0 L 36.5 35.0 Z" stroke="none" fill="rgb(174,221,217)" />
<path d="M 40.5 46.0 L 41.0 46.0 L 41.666666666666664 45.666666666666664 L 42.0 45.0 L 42.0 44.0 L 42.0 43.0 L 42.333333333333336 42.0 L 42.666666666666664 41.0 L 43.0 40.0 L 43.333333333333336 39.0 L 43.666666666666664 38.0 L 44.0 37.0 L 44.0 36.0 L 43.666666666666664 35.333333333333336 L 43.0 35.0 L 42.0 35.0 L 41.0 35.0 L 40.0 35.0 L 39.0 35.0 L 38.0 35.0 L 37.0 35.0 L 36.0 35.0 L 35.0 35.0 L 34.0 35.0 L 33.0 35.0 L 32.0 35.0 L 31.0 35.0 L 30.333333333333332 35.333333333333336 L 30.0 36.0 L 30.0 37.0 L 30.0 38.0 L 30.0 39.0 L 30.0 40.0 L 30.0 41.0 L 30.333333333333332 42.0 L 30.666666666666668 43.0 L 31.0 44.0 L 31.333333333333332 44.666666666666664 L 32.0 45.0 L 33.0 45.0 L 34.0 45.0 L 35.0 45.0 L 36.0 45.0 L 37.0 45.0 L 38.0 45.0 L 39.0 45.333333333333336 L 39.5 45.5 Z" stroke="none" fill="rgb(169,219,215)" />
<path d="M 87.5 66.5 L 87.66666666666667 67.0 L 88.33333333333333 67.66666666666667 L 89.0 68.0 L 89.66666666666667 67.66666666666667 L 90.0 67.0 L 90.0 66.0 L 90.0 65.0 L 90.0 64.0 L 90.0 63.0 L 90.0 62.0 L 90.0 61.0 L 90.0 60.0 L 90.0 59.0 L 90.0 58.0 L 90.0 57.0 L 90.0 56.0 L 89.66666666666667 55.0 L 89.33333333333333 54.0 L 89.0 53.0 L 89.0 52.0 L 89.0 51.0 L 88.66666666666667 50.0 L 88.33333333333333 49.0 L 88.0 48.0 L 88.0 47.0 L 87.66666666666667 46.0 L 87.0 45.0 L 86.0 44.333333333333336 L 85.0 44.333333333333336 L 84.33333333333333 45.0 L 83.66666666666667 46.0 L 83.0 47.0 L 82.33333333333333 48.0 L 81.66666666666667 49.0 L 81.0 50.0 L 80.33333333333333 51.0 L 80.33333333333333 52.0 L 81.0 53.0 L 82.0 54.0 L 82.66666666666667 55.0 L 83.33333333333333 56.0 L 84.0 57.0 L 84.66666666666667 58.0 L 85.33333333333333 59.0 L 85.66666666666667 60.0 L 86.0 61.0 L 86.33333333333333 62.0 L 86.66666666666667 63.0 L 87.0 64.0 L 87.0 65.0 L 87.0 65.5 Z" stroke="none" fill="rgb(4,155,229)" />
<path d="M 51.5 88.0 L 52.0 88.0 L 53.0 88.0 L 54.0 87.66666666666667 L 54.666666666666664 87.0 L 55.0 86.0 L 55.0 85.0 L 55.0 84.0 L 55.0 83.0 L 55.0 82.0 L 54.666666666666664 81.0 L 54.0 80.0 L 53.333333333333336 79.0 L 52.666666666666664 78.0 L 52.333333333333336 77.0 L 52.0 76.0 L 51.666666666666664 75.0 L 51.333333333333336 74.0 L 50.666666666666664 73.33333333333333 L 50.0 73.0 L 49.0 73.0 L 48.0 73.0 L 47.0 73.0 L 46.0 73.0 L 45.0 73.0 L 44.333333333333336 73.33333333333333 L 44.0 74.0 L 44.0 75.0 L 44.0 76.0 L 44.0 77.0 L 44.0 78.0 L 44.0 79.0 L 44.0 80.0 L 44.333333333333336 81.0 L 45.0 82.0 L 45.666666666666664 83.0 L 46.333333333333336 84.0 L 46.666666666666664 85.0 L 47.333333333333336 86.0 L 48.0 87.0 L 49.0 87.66666666666667 L 50.0 88.0 L 50.5 88.0 Z" stroke="none" fill="rgb(3,119,189)" />
<path d="M 59.5 29.0 L 60.0 29.0 L 61.0 29.0 L 62.0 29.0 L 63.0 29.0 L 64.0 29.0 L 65.0 29.333333333333332 L 66.0 29.666666666666668 L 67.0 30.0 L 68.0 30.333333333333332 L 69.0 30.666666666666668 L 70.0 31.0 L 70.66666666666667 30.666666666666668 L 70.66666666666667 30.0 L 70.0 29.0 L 69.0 28.0 L 68.0 27.333333333333332 L 67.0 27.0 L 66.0 27.0 L 65.0 26.666666666666668 L 64.0 26.333333333333332 L 63.0 25.666666666666668 L 62.0 25.333333333333332 L 61.0 25.0 L 60.0 25.0 L 59.0 25.333333333333332 L 58.0 25.666666666666668 L 57.0 26.0 L 56.0 26.0 L 55.0 26.333333333333332 L 54.0 26.666666666666668 L 53.0 27.0 L 52.0 27.333333333333332 L 51.0 27.666666666666668 L 50.0 28.333333333333332 L 49.0 29.0 L 48.0 30.0 L 47.333333333333336 31.0 L 47.0 32.0 L 47.333333333333336 32.666666666666664 L 48.0 33.0 L 49.0 32.666666666666664 L 50.0 32.333333333333336 L 51.0 31.666666666666668 L 52.0 31.333333333333332 L 53.0 30.666666666666668 L 54.0 30.333333333333332 L 55.0 30.0 L 56.0 30.0 L 57.0 29.666666666666668 L 58.0 29.333333333333332 L 58.5 29.0 Z" stroke="none" fill="rgb(26,168,235)" />
<path d="M 91.5 45.0 L 92.0 45.0 L 93.0 45.0 L 93.66666666666667 44.666666666666664 L 94.0 44.0 L 94.0 43.0 L 94.0 42.0 L 94.0 41.0 L 94.0 40.0 L 94.0 39.0 L 94.0 38.0 L 94.0 37.0 L 93.66666666666667 36.0 L 93.0 35.333333333333336 L 92.0 35.0 L 91.0 35.0 L 90.0 35.0 L 89.0 35.0 L 88.0 35.0 L 87.0 35.0 L 86.0 35.0 L 85.0 35.0 L 84.0 35.0 L 83.0 35.0 L 82.0 35.0 L 81.33333333333333 35.333333333333336 L 81.0 36.0 L 81.33333333333333 37.0 L 81.66666666666667 38.0 L 82.33333333333333 39.0 L 83.0 40.0 L 84.0 41.0 L 85.0 42.0 L 85.66666666666667 43.0 L 86.0 44.0 L 86.33333333333333 45.0 L 87.0 45.666666666666664 L 88.0 45.666666666666664 L 89.0 45.333333333333336 L 90.0 45.0 L 90.5 45.0 Z" stroke="none" fill="rgb(169,219,215)" />
<path d="M 85.5 84.5 L 85.66666666666667 84.0 L 86.0 83.0 L 86.33333333333333 82.0 L 86.66666666666667 81.0 L 87.0 80.0 L 87.0 79.0 L 87.33333333333333 78.0 L 87.66666666666667 77.0 L 88.0 76.0 L 88.0 75.0 L 87.66666666666667 74.0 L 87.0 73.33333333333333 L 86.0 73.0 L 85.0 73.0 L 84.0 73.0 L 83.0 73.0 L 82.0 73.0 L 81.0 73.33333333333333 L 80.33333333333333 74.0 L 80.0 75.0 L 80.0 76.0 L 80.0 77.0 L 80.0 78.0 L 79.66666666666667 79.0 L 79.0 80.0 L 78.33333333333333 81.0 L 78.0 82.0 L 78.0 83.0 L 78.0 84.0 L 78.33333333333333 85.0 L 79.0 86.0 L 80.0 86.66666666666667 L 81.0 87.0 L 82.0 87.0 L 83.0 86.66666666666667 L 84.0 86.0 L 84.5 85.5 Z" stroke="none" fill="rgb(3,119,189)" />
<path d="M 40.0 55.5 L 40.0 55.0 L 40.0 54.0 L 40.333333333333336 53.0 L 40.666666666666664 52.0 L 41.0 51.0 L 41.0 50.0 L 41.0 49.0 L 41.0 48.0 L 41.0 47.0 L 40.666666666666664 46.0 L 40.0 45.333333333333336 L 39.0 45.0 L 38.0 45.0 L 37.0 45.0 L 36.0 45.0 L 35.0 45.0 L 34.0 45.0 L 33.0 45.0 L 32.333333333333336 45.333333333333336 L 32.0 46.0 L 32.0 47.0 L 32.0 48.0 L 32.0 49.0 L 32.333333333333336 50.0 L 32.666666666666664 51.0 L 33.0 52.0 L 33.333333333333336 53.0 L 33.666666666666664 54.0 L 34.0 55.0 L 34.333333333333336 55.666666666666664 L 35.0 56.0 L 36.0 56.0 L 37.0 56.0 L 38.0 56.0 L 39.0 56.0 L 39.5 56.0 Z" stroke="none" fill="rgb(164,217,213)" />
<path d="M 65.5 45.0 L 66.0 45.0 L 67.0 45.0 L 68.0 45.0 L 69.0 45.0 L 69.66666666666667 44.666666666666664 L 69.66666666666667 44.0 L 69.0 43.333333333333336 L 68.0 42.666666666666664 L 67.0 42.0 L 66.0 41.0 L 65.0 40.333333333333336 L 64.0 39.666666666666664 L 63.0 39.0 L 62.0 38.333333333333336 L 61.0 37.666666666666664 L 60.0 37.333333333333336 L 59.0 37.0 L 58.0 37.333333333333336 L 57.0 38.0 L 56.0 39.0 L 55.333333333333336 40.0 L 54.666666666666664 41.0 L 54.333333333333336 42.0 L 54.0 43.0 L 54.0 44.0 L 54.333333333333336 44.666666666666664 L 55.0 45.0 L 56.0 45.0 L 57.0 45.0 L 58.0 45.0 L 59.0 45.0 L 60.0 45.0 L 61.0 45.0 L 62.0 45.0 L 63.0 45.0 L 64.0 45.0 L 64.5 45.0 Z" stroke="none" fill="rgb(169,219,215)" />
<path d="M 42.5 81.0 L 43.0 81.0 L 43.666666666666664 80.66666666666667 L 44.0 80.0 L 44.0 79.0 L 44.0 78.0 L 44.0 77.0 L 44.0 76.0 L 44.0 75.0 L 44.0 74.0 L 43.666666666666664 73.0 L 43.0 72.0 L 42.0 71.0 L 41.333333333333336 70.0 L 41.0 69.0 L 40.666666666666664 68.33333333333333 L 40.0 68.0 L 39.0 68.0 L 38.0 68.0 L 37.333333333333336 68.33333333333333 L 37.0 69.0 L 37.0 70.0 L 37.0 71.0 L 37.0 72.0 L 37.333333333333336 73.0 L 37.666666666666664 74.0 L 38.0 75.0 L 38.0 76.0 L 38.0 77.0 L 38.0 78.0 L 38.0 79.0 L 38.0 80.0 L 38.333333333333336 80.66666666666667 L 39.0 81.0 L 40.0 81.0 L 41.0 81.0 L 41.5 81.0 Z" stroke="none" fill="rgb(153,213,207)" />
<path d="M 74.5 46.5 L 75.0 47.0 L 76.0 47.666666666666664 L 77.0 47.666666666666664 L 78.0 47.0 L 78.66666666666667 46.0 L 79.33333333333333 45.0 L 79.66666666666667 44.0 L 80.33333333333333 43.0 L 80.66666666666667 42.0 L 81.0 41.0 L 81.33333333333333 40.0 L 81.66666666666667 39.0 L 82.0 38.0 L 81.66666666666667 37.0 L 81.0 36.333333333333336 L 80.0 35.666666666666664 L 79.0 35.0 L 78.0 34.333333333333336 L 77.0 34.0 L 76.0 34.0 L 75.33333333333333 34.333333333333336 L 75.0 35.0 L 75.33333333333333 36.0 L 75.66666666666667 37.0 L 76.0 38.0 L 76.0 39.0 L 76.0 40.0 L 75.66666666666667 41.0 L 75.33333333333333 42.0 L 74.66666666666667 43.0 L 74.33333333333333 44.0 L 74.0 45.0 L 74.0 45.5 Z" stroke="none" fill="rgb(26,168,235)" />
<path d="M 93.5 56.0 L 93.66666666666667 55.666666666666664 L 94.33333333333333 55.0 L 94.66666666666667 54.0 L 95.0 53.0 L 95.0 52.0 L 95.0 51.0 L 95.0 50.0 L 95.0 49.0 L 95.0 48.0 L 95.0 47.0 L 95.0 46.0 L 94.66666666666667 45.333333333333336 L 94.0 45.0 L 93.0 45.0 L 92.0 45.0 L 91.0 45.0 L 90.0 45.0 L 89.0 45.0 L 88.33333333333333 45.333333333333336 L 88.0 46.0 L 88.0 47.0 L 88.0 48.0 L 88.0 49.0 L 88.33333333333333 50.0 L 88.66666666666667 51.0 L 89.0 52.0 L 89.0 53.0 L 89.0 54.0 L 89.33333333333333 55.0 L 90.0 55.666666666666664 L 91.0 56.0 L 92.0 56.0 L 92.5 56.0 Z" stroke="none" fill="rgb(164,217,213)" />
<path d="M 82.5 73.0 L 83.0 73.0 L 84.0 73.0 L 85.0 73.0 L 86.0 73.33333333333333 L 87.0 73.66666666666667 L 88.0 73.66666666666667 L 88.66666666666667 73.0 L 89.0 72.0 L 89.0 71.0 L 89.0 70.0 L 89.0 69.0 L 88.66666666666667 68.0 L 88.33333333333333 67.0 L 87.66666666666667 66.0 L 87.0 65.33333333333333 L 86.0 65.0 L 85.0 65.0 L 84.0 65.0 L 83.0 65.0 L 82.33333333333333 65.33333333333333 L 81.66666666666667 66.0 L 81.0 67.0 L 80.33333333333333 68.0 L 80.0 69.0 L 80.0 70.0 L 80.0 71.0 L 80.33333333333333 72.0 L 81.0 72.66666666666667 L 81.5 73.0 Z" stroke="none" fill="rgb(3,110,179)" />
<path d="M 43.5 73.0 L 43.666666666666664 72.66666666666667 L 44.0 72.0 L 44.0 71.0 L 44.0 70.0 L 44.0 69.0 L 44.0 68.0 L 44.333333333333336 67.0 L 44.666666666666664 66.0 L 45.0 65.0 L 45.0 64.0 L 45.0 63.0 L 45.0 62.0 L 45.0 61.0 L 45.0 60.0 L 44.666666666666664 59.0 L 44.0 58.333333333333336 L 43.0 57.666666666666664 L 42.0 57.333333333333336 L 41.0 57.0 L 40.333333333333336 57.333333333333336 L 40.0 58.0 L 40.0 59.0 L 40.0 60.0 L 40.0 61.0 L 40.0 62.0 L 40.0 63.0 L 40.0 64.0 L 40.0 65.0 L 40.333333333333336 66.0 L 40.666666666666664 67.0 L 41.0 68.0 L 41.0 69.0 L 41.0 70.0 L 41.333333333333336 71.0 L 42.0 72.0 L 42.5 72.5 Z" stroke="none" fill="rgb(4,155,229)" />
<path d="M 83.5 47.5 L 83.66666666666667 47.0 L 84.33333333333333 46.0 L 85.0 45.0 L 85.66666666666667 44.0 L 86.0 43.0 L 85.66666666666667 42.0 L 85.0 41.0 L 84.0 40.0 L 83.0 39.333333333333336 L 82.0 39.0 L 81.33333333333333 39.333333333333336 L 81.0 40.0 L 80.66666666666667 41.0 L 80.33333333333333 42.0 L 79.66666666666667 43.0 L 79.33333333333333 44.0 L 78.66666666666667 45.0 L 78.0 46.0 L 77.33333333333333 47.0 L 77.0 48.0 L 77.33333333333333 49.0 L 78.0 50.0 L 79.0 50.666666666666664 L 80.0 51.0 L 81.0 50.666666666666664 L 81.66666666666667 50.0 L 82.33333333333333 49.0 L 82.5 48.5 Z" stroke="none" fill="rgb(15,162,232)" />
<path d="M 91.5 80.5 L 91.66666666666667 80.0 L 92.0 79.0 L 92.0 78.0 L 92.0 77.0 L 92.0 76.0 L 92.0 75.0 L 92.33333333333333 74.0 L 92.66666666666667 73.0 L 93.0 72.0 L 93.0 71.0 L 93.0 70.0 L 93.0 69.0 L 92.66666666666667 68.33333333333333 L 92.0 68.0 L 91.0 68.0 L 90.0 68.0 L 89.33333333333333 68.33333333333333 L 89.0 69.0 L 89.0 70.0 L 89.0 71.0 L 88.66666666666667 72.0 L 88.33333333333333 73.0 L 88.0 74.0 L 88.0 75.0 L 87.66666666666667 76.0 L 87.33333333333333 77.0 L 87.0 78.0 L 87.0 79.0 L 87.0 80.0 L 87.33333333333333 80.66666666666667 L 88.0 81.0 L 89.0 81.0 L 90.0 81.0 L 90.5 81.0 Z" stroke="none" fill="rgb(153,213,207)" />
<path d="M 39.5 68.0 L 40.0 68.0 L 40.666666666666664 67.66666666666667 L 41.0 67.0 L 40.666666666666664 66.0 L 40.333333333333336 65.0 L 40.0 64.0 L 40.0 63.0 L 40.0 62.0 L 40.0 61.0 L 40.0 60.0 L 40.0 59.0 L 40.0 58.0 L 40.0 57.0 L 39.666666666666664 56.333333333333336 L 39.0 56.0 L 38.0 56.0 L 37.0 56.0 L 36.0 56.0 L 35.333333333333336 56.333333333333336 L 35.0 57.0 L 35.0 58.0 L 35.333333333333336 59.0 L 35.666666666666664 60.0 L 36.0 61.0 L 36.0 62.0 L 36.0 63.0 L 36.333333333333336 64.0 L 36.666666666666664 65.0 L 37.0 66.0 L 37.0 67.0 L 37.333333333333336 67.66666666666667 L 38.0 68.0 L 38.5 68.0 Z" stroke="none" fill="rgb(158,215,210)" />
<path d="M 91.5 68.0 L 92.0 68.0 L 92.66666666666667 67.66666666666667 L 93.0 67.0 L 93.33333333333333 66.0 L 93.66666666666667 65.0 L 94.0 64.0 L 94.0 63.0 L 94.0 62.0 L 94.0 61.0 L 94.0 60.0 L 94.0 59.0 L 94.0 58.0 L 94.0 57.0 L 93.66666666666667 56.333333333333336 L 93.0 56.0 L 92.0 56.0 L 91.0 56.0 L 90.33333333333333 56.333333333333336 L 90.0 57.0 L 90.0 58.0 L 90.0 59.0 L 90.0 60.0 L 90.0 61.0 L 90.0 62.0 L 90.0 63.0 L 90.0 64.0 L 90.0 65.0 L 90.0 66.0 L 90.0 67.0 L 90.33333333333333 67.66666666666667 L 90.5 68.0 Z" stroke="none" fill="rgb(158,215,210)" />
<path d="M 84.5 65.0 L 85.0 65.0 L 86.0 65.0 L 86.66666666666667 64.66666666666667 L 87.0 64.0 L 87.0 63.0 L 86.66666666666667 62.0 L 86.33333333333333 61.0 L 86.0 60.0 L 85.66666666666667 59.0 L 85.33333333333333 58.0 L 84.66666666666667 57.0 L 84.0 56.333333333333336 L 83.0 56.0 L 82.0 56.0 L 81.33333333333333 56.333333333333336 L 81.0 57.0 L 81.0 58.0 L 81.0 59.0 L 81.0 60.0 L 81.0 61.0 L 81.0 62.0 L 81.0 63.0 L 81.33333333333333 64.0 L 82.0 64.66666666666667 L 83.0 65.0 L 83.5 65.0 Z" stroke="none" fill="rgb(2,101,169)" />
<path d="M 50.0 72.5 L 50.0 72.0 L 50.0 71.0 L 50.0 70.0 L 50.0 69.0 L 50.0 68.0 L 49.666666666666664 67.0 L 49.0 66.0 L 48.0 65.33333333333333 L 47.0 65.0 L 46.0 65.0 L 45.0 65.33333333333333 L 44.333333333333336 66.0 L 44.0 67.0 L 44.0 68.0 L 44.0 69.0 L 44.0 70.0 L 44.0 71.0 L 44.0 72.0 L 44.333333333333336 72.66666666666667 L 45.0 73.0 L 46.0 73.0 L 47.0 73.0 L 48.0 73.0 L 49.0 73.0 L 49.5 73.0 Z" stroke="none" fill="rgb(3,110,179)" />
<path d="M 46.5 55.0 L 47.0 55.0 L 47.666666666666664 54.666666666666664 L 48.0 54.0 L 48.0 53.0 L 48.0 52.0 L 47.666666666666664 51.0 L 47.0 50.0 L 46.0 49.0 L 45.0 48.0 L 44.0 47.0 L 43.0 46.333333333333336 L 42.0 46.0 L 41.333333333333336 46.333333333333336 L 41.0 47.0 L 41.0 48.0 L 41.0 49.0 L 41.0 50.0 L 41.0 51.0 L 41.333333333333336 52.0 L 42.0 52.666666666666664 L 43.0 53.333333333333336 L 44.0 53.666666666666664 L 45.0 54.333333333333336 L 45.5 54.5 Z" stroke="none" fill="rgb(26,168,235)" />
<path d="M 52.5 23.0 L 53.0 23.0 L 54.0 23.0 L 55.0 23.0 L 55.666666666666664 22.666666666666668 L 56.0 22.0 L 55.666666666666664 21.0 L 55.0 20.0 L 54.0 19.0 L 53.0 18.0 L 52.0 17.333333333333332 L 51.0 17.0 L 50.0 17.0 L 49.0 17.333333333333332 L 48.333333333333336 18.0 L 48.0 19.0 L 48.0 20.0 L 48.333333333333336 21.0 L 48.666666666666664 22.0 L 49.333333333333336 23.0 L 50.0 23.666666666666668 L 51.0 23.666666666666668 L 51.5 23.5 Z" stroke="none" fill="rgb(4,155,229)" />
<path d="M 40.5 57.0 L 41.0 57.333333333333336 L 42.0 57.666666666666664 L 43.0 58.333333333333336 L 44.0 58.666666666666664 L 45.0 59.0 L 46.0 58.666666666666664 L 46.666666666666664 58.0 L 47.0 57.0 L 47.0 56.0 L 46.666666666666664 55.0 L 46.0 54.333333333333336 L 45.0 53.666666666666664 L 44.0 53.333333333333336 L 43.0 52.666666666666664 L 42.0 52.333333333333336 L 41.0 52.0 L 40.333333333333336 52.333333333333336 L 40.0 53.0 L 40.0 54.0 L 40.0 55.0 L 40.0 56.0 L 40.0 56.5 Z" stroke="none" fill="rgb(15,162,232)" />
<path d="M 49.0 64.5 L 49.0 64.0 L 49.0 63.0 L 49.0 62.0 L 49.0 61.0 L 49.0 60.0 L 49.0 59.0 L 49.0 58.0 L 49.0 57.0 L 48.666666666666664 56.0 L 48.0 55.333333333333336 L 47.333333333333336 55.333333333333336 L 47.0 56.0 L 46.666666666666664 57.0 L 46.0 58.0 L 45.333333333333336 59.0 L 45.0 60.0 L 45.0 61.0 L 45.0 62.0 L 45.0 63.0 L 45.0 64.0 L 45.333333333333336 64.66666666666667 L 46.0 65.0 L 47.0 65.0 L 48.0 65.0 L 48.5 65.0 Z" stroke="none" fill="rgb(2,101,169)" />
<path d="M 53.5 27.0 L 54.0 27.0 L 55.0 26.666666666666668 L 56.0 26.333333333333332 L 57.0 26.0 L 58.0 26.0 L 58.666666666666664 25.666666666666668 L 59.0 25.0 L 58.666666666666664 24.333333333333332 L 58.0 24.0 L 57.0 23.666666666666668 L 56.0 23.333333333333332 L 55.0 23.0 L 54.0 23.0 L 53.0 23.0 L 52.0 23.0 L 51.0 23.333333333333332 L 50.333333333333336 24.0 L 50.0 25.0 L 50.0 26.0 L 50.0 27.0 L 50.333333333333336 27.666666666666668 L 51.0 28.0 L 52.0 27.666666666666668 L 52.5 27.5 Z" stroke="none" fill="rgb(15,162,232)" />
<path d="M 80.5 57.0 L 81.0 56.666666666666664 L 82.0 56.333333333333336 L 82.66666666666667 55.666666666666664 L 83.0 55.0 L 82.66666666666667 54.0 L 82.0 53.0 L 81.0 52.0 L 80.0 51.333333333333336 L 79.33333333333333 51.333333333333336 L 79.0 52.0 L 79.0 53.0 L 79.33333333333333 54.0 L 79.66666666666667 55.0 L 80.0 56.0 L 80.0 56.5 Z" stroke="none" fill="rgb(1,89,157)" />
<path d="M 50.0 55.5 L 50.0 55.0 L 50.0 54.0 L 50.0 53.0 L 49.666666666666664 52.333333333333336 L 49.0 52.0 L 48.333333333333336 52.333333333333336 L 48.0 53.0 L 48.0 54.0 L 48.0 55.0 L 48.333333333333336 55.666666666666664 L 49.0 56.0 L 49.5 56.0 Z" stroke="none" fill="rgb(1,89,157)" />
<path d="M 94.5 45.0 L 94.66666666666667 44.666666666666664 L 94.66666666666667 44.333333333333336 L 94.33333333333333 44.333333333333336 L 94.0 44.5 Z" stroke="none" fill="rgb(0,0,0)" />
<path d="M 32.0 45.5 L 31.666666666666668 45.333333333333336 L 31.333333333333332 45.333333333333336 L 31.333333333333332 45.666666666666664 L 31.5 46.0 Z" stroke="none" fill="rgb(0,0,0)" />
<path d="M 41.0 111.5 L 40.666666666666664 111.33333333333333 L 40.333333333333336 111.33333333333333 L 40.333333333333336 111.66666666666667 L 40.5 112.0 Z" stroke="none" fill="rgb(0,0,0)" />
<path d="M 86.0 111.5 L 85.66666666666667 111.33333333333333 L 85.33333333333333 111.33333333333333 L 85.33333333333333 111.66666666666667 L 85.5 112.0 Z" stroke="none" fill="rgb(0,0,0)" />
</svg>
