<?xml version="1.0" encoding="UTF-8" standalone="no"?>
<!DOCTYPE svg PUBLIC "-//W3C//DTD SVG 1.1//EN"
"http://www.w3.org/Graphics/SVG/1.1/DTD/svg11.dtd">
<svg width="128" height="128" xmlns="http://www.w3.org/2000/svg" version="1.1">
<path d="M 26.5 128.0 L 27.0 128.0 L 28.0 128.0 L 29.0 128.0 L 30.0 128.0 L 31.0 128.0 L 32.0 128.0 L 33.0 128.0 L 34.0 128.0 L 35.0 128.0 L 36.0 128.0 L 37.0 128.0 L 38.0 128.0 L 39.0 128.0 L 40.0 128.0 L 41.0 128.0 L 42.0 128.0 L 43.0 128.0 L 44.0 128.0 L 45.0 128.0 L 46.0 128.0 L 47.0 128.0 L 48.0 128.0 L 49.0 128.0 L 50.0 128.0 L 51.0 128.0 L 52.0 128.0 L 53.0 128.0 L 54.0 128.0 L 55.0 128.0 L 56.0 128.0 L 57.0 128.0 L 58.0 128.0 L 59.0 128.0 L 60.0 128.0 L 61.0 128.0 L 62.0 128.0 L 63.0 128.0 L 64.0 128.0 L 65.0 128.0 L 66.0 128.0 L 67.0 128.0 L 68.0 128.0 L 69.0 128.0 L 70.0 128.0 L 71.0 128.0 L 72.0 128.0 L 73.0 128.0 L 74.0 128.0 L 75.0 128.0 L 76.0 128.0 L 77.0 128.0 L 78.0 128.0 L 79.0 128.0 L 80.0 128.0 L 81.0 128.0 L 82.0 128.0 L 83.0 128.0 L 84.0 128.0 L 85.0 128.0 L 86.0 128.0 L 87.0 128.0 L 88.0 128.0 L 89.0 128.0 L 90.0 128.0 L 91.0 128.0 L 92.0 128.0 L 93.0 128.0 L 94.0 128.0 L 95.0 128.0 L 96.0 128.0 L 97.0 128.0 L 98.0 128.0 L 99.0 128.0 L 100.0 128.0 L 101.0 128.0 L 102.0 128.0 L 103.0 128.0 L 104.0 128.0 L 105.0 128.0 L 106.0 128.0 L 107.0 128.0 L 108.0 128.0 L 109.0 128.0 L 110.0 128.0 L 111.0 128.0 L 112.0 128.0 L 113.0 128.0 L 114.0 128.0 L 115.0 128.0 L 116.0 128.0 L 117.0 128.0 L 118.0 128.0 L 119.0 128.0 L 120.0 128.0 L 121.0 128.0 L 122.0 128.0 L 123.0 128.0 L 124.0 128.0 L 125.0 128.0 L 126.0 128.0 L 127.0 128.0 L 127.66666666666667 127.66666666666667 L 128.0 127.0 L 128.0 126.0 L 128.0 125.0 L 128.0 124.0 L 128.0 123.0 L 128.0 122.0 L 128.0 121.0 L 128.0 120.0 L 128.0 119.0 L 128.0 118.0 L 128.0 117.0 L 128.0 116.0 L 128.0 115.0 L 128.0 114.0 L 128.0 113.0 L 128.0 112.0 L 128.0 111.0 L 128.0 110.0 L 128.0 109.0 L 128.0 108.0 L 128.0 107.0 L 128.0 106.0 L 128.0 105.0 L 128.0 104.0 L 128.0 103.0 L 128.0 102.0 L 128.0 101.0 L 128.0 100.0 L 128.0 99.0 L 128.0 98.0 L 128.0 97.0 L 128.0 96.0 L 128.0 95.0 L 128.0 94.0 L 128.0 93.0 L 128.0 92.0 L 128.0 91.0 L 128.0 90.0 L 128.0 89.0 L 128.0 88.0 L 128.0 87.0 L 128.0 86.0 L 128.0 85.0 L 128.0 84.0 L 128.0 83.0 L 128.0 82.0 L 128.0 81.0 L 128.0 80.0 L 128.0 79.0 L 128.0 78.0 L 128.0 77.0 L 128.0 76.0 L 128.0 75.0 L 128.0 74.0 L 128.0 73.0 L 128.0 72.0 L 128.0 71.0 L 128.0 70.0 L 128.0 69.0 L 128.0 68.0 L 128.0 67.0 L 128.0 66.0 L 128.0 65.0 L 128.0 64.0 L 128.0 63.0 L 128.0 62.0 L 128.0 61.0 L 128.0 60.0 L 128.0 59.0 L 128.0 58.0 L 128.0 57.0 L 128.0 56.0 L 128.0 55.0 L 128.0 54.0 L 128.0 53.0 L 128.0 52.0 L 128.0 51.0 L 128.0 50.0 L 128.0 49.0 L 128.0 48.0 L 128.0 47.0 L 128.0 46.0 L 128.0 45.0 L 128.0 44.0 L 128.0 43.0 L 128.0 42.0 L 128.0 41.0 L 128.0 40.0 L 128.0 39.0 L 128.0 38.0 L 128.0 37.0 L 128.0 36.0 L 128.0 35.0 L 128.0 34.0 L 128.0 33.0 L 128.0 32.0 L 128.0 31.0 L 128.0 30.0 L 128.0 29.0 L 128.0 28.0 L 128.0 27.0 L 128.0 26.0 L 128.0 25.0 L 128.0 24.0 L 128.0 23.0 L 128.0 22.0 L 128.0 21.0 L 128.0 20.0 L 128.0 19.0 L 128.0 18.0 L 128.0 17.0 L 128.0 16.0 L 128.0 15.0 L 128.0 14.0 L 128.0 13.0 L 128.0 12.0 L 128.0 11.0 L 128.0 10.0 L 128.0 9.0 L 128.0 8.0 L 128.0 7.0 L 128.0 6.0 L 128.0 5.0 L 128.0 4.0 L 128.0 3.0 L 128.0 2.0 L 128.0 1.0 L 127.66666666666667 0.3333333333333333 L 127.0 0.0 L 126.0 0.0 L 125.0 0.0 L 124.0 0.0 L 123.0 0.0 L 122.0 0.0 L 121.0 0.0 L 120.0 0.0 L 119.0 0.0 L 118.0 0.0 L 117.0 0.0 L 116.0 0.0 L 115.0 0.0 L 114.0 0.0 L 113.0 0.0 L 112.0 0.0 L 111.0 0.0 L 110.0 0.0 L 109.0 0.0 L 108.0 0.0 L 107.0 0.0 L 106.0 0.0 L 105.0 0.0 L 104.0 0.0 L 103.0 0.0 L 102.0 0.0 L 101.0 0.0 L 100.0 0.0 L 99.0 0.0 L 98.0 0.0 L 97.0 0.0 L 96.0 0.0 L 95.0 0.0 L 94.0 0.0 L 93.0 0.0 L 92.0 0.0 L 91.0 0.0 L 90.0 0.0 L 89.0 0.0 L 88.0 0.0 L 87.0 0.0 L 86.0 0.0 L 85.0 0.0 L 84.0 0.0 L 83.0 0.0 L 82.0 0.0 L 81.0 0.0 L 80.0 0.0 L 79.0 0.0 L 78.0 0.0 L 77.0 0.0 L 76.0 0.0 L 75.0 0.0 L 74.0 0.0 L 73.0 0.0 L 72.0 0.0 L 71.0 0.0 L 70.0 0.0 L 69.0 0.0 L 68.0 0.0 L 67.0 0.0 L 66.0 0.0 L 65.0 0.0 L 64.0 0.0 L 63.0 0.0 L 62.0 0.0 L 61.0 0.0 L 60.0 0.0 L 59.0 0.0 L 58.0 0.0 L 57.0 0.0 L 56.0 0.0 L 55.0 0.0 L 54.0 0.0 L 53.0 0.0 L 52.0 0.0 L 51.0 0.0 L 50.0 0.0 L 49.0 0.0 L 48.0 0.0 L 47.0 0.0 L 46.0 0.0 L 45.0 0.0 L 44.0 0.0 L 43.0 0.0 L 42.0 0.0 L 41.0 0.0 L 40.0 0.0 L 39.0 0.0 L 38.0 0.0 L 37.0 0.0 L 36.0 0.0 L 35.0 0.0 L 34.0 0.0 L 33.0 0.0 L 32.0 0.0 L 31.0 0.0 L 30.0 0.0 L 29.0 0.0 L 28.0 0.0 L 27.0 0.0 L 26.0 0.0 L 25.0 0.0 L 24.0 0.0 L 23.0 0.0 L 22.0 0.0 L 21.0 0.0 L 20.0 0.0 L 19.0 0.0 L 18.0 0.0 L 17.0 0.0 L 16.0 0.0 L 15.0 0.0 L 14.0 0.0 L 13.0 0.0 L 12.0 0.0 L 11.0 0.0 L 10.0 0.0 L 9.0 0.0 L 8.0 0.0 L 7.0 0.0 L 6.0 0.0 L 5.0 0.0 L 4.0 0.0 L 3.0 0.0 L 2.0 0.0 L 1.0 0.0 L 0.3333333333333333 0.3333333333333333 L 0.0 1.0 L 0.0 2.0 L 0.0 3.0 L 0.0 4.0 L 0.0 5.0 L 0.0 6.0 L 0.0 7.0 L 0.0 8.0 L 0.0 9.0 L 0.0 10.0 L 0.0 11.0 L 0.0 12.0 L 0.0 13.0 L 0.0 14.0 L 0.0 15.0 L 0.0 16.0 L 0.0 17.0 L 0.0 18.0 L 0.0 19.0 L 0.0 20.0 L 0.0 21.0 L 0.0 22.0 L 0.0 23.0 L 0.0 24.0 L 0.0 25.0 L 0.0 26.0 L 0.0 27.0 L 0.0 28.0 L 0.0 29.0 L 0.0 30.0 L 0.0 31.0 L 0.0 32.0 L 0.0 33.0 L 0.0 34.0 L 0.0 35.0 L 0.0 36.0 L 0.0 37.0 L 0.0 38.0 L 0.0 39.0 L 0.0 40.0 L 0.0 41.0 L 0.0 42.0 L 0.0 43.0 L 0.0 44.0 L 0.0 45.0 L 0.0 46.0 L 0.0 47.0 L 0.0 48.0 L 0.0 49.0 L 0.0 50.0 L 0.0 51.0 L 0.0 52.0 L 0.0 53.0 L 0.0 54.0 L 0.0 55.0 L 0.0 56.0 L 0.0 57.0 L 0.0 58.0 L 0.0 59.0 L 0.0 60.0 L 0.0 61.0 L 0.0 62.0 L 0.0 63.0 L 0.0 64.0 L 0.0 65.0 L 0.0 66.0 L 0.0 67.0 L 0.0 68.0 L 0.0 69.0 L 0.0 70.0 L 0.0 71.0 L 0.0 72.0 L 0.0 73.0 L 0.0 74.0 L 0.0 75.0 L 0.0 76.0 L 0.0 77.0 L 0.0 78.0 L 0.0 79.0 L 0.0 80.0 L 0.0 81.0 L 0.0 82.0 L 0.0 83.0 L 0.0 84.0 L 0.0 85.0 L 0.0 86.0 L 0.0 87.0 L 0.0 88.0 L 0.0 89.0 L 0.0 90.0 L 0.0 91.0 L 0.0 92.0 L 0.0 93.0 L 0.0 94.0 L 0.0 95.0 L 0.0 96.0 L 0.0 97.0 L 0.0 98.0 L 0.0 99.0 L 0.0 100.0 L 0.0 101.0 L 0.0 102.0 L 0.0 103.0 L 0.0 104.0 L 0.0 105.0 L 0.0 106.0 L 0.0 107.0 L 0.0 108.0 L 0.0 109.0 L 0.0 110.0 L 0.0 111.0 L 0.0 112.0 L 0.0 113.0 L 0.0 114.0 L 0.0 115.0 L 0.0 116.0 L 0.0 117.0 L 0.0 118.0 L 0.0 119.0 L 0.0 120.0 L 0.0 121.0 L 0.0 122.0 L 0.0 123.0 L 0.0 124.0 L 0.0 125.0 L 0.0 126.0 L 0.0 127.0 L 0.3333333333333333 127.66666666666667 L 1.0 128.0 L 2.0 128.0 L 3.0 128.0 L 4.0 128.0 L 5.0 128.0 L 6.0 128.0 L 7.0 128.0 L 8.0 128.0 L 9.0 128.0 L 10.0 128.0 L 11.0 128.0 L 12.0 128.0 L 13.0 128.0 L 14.0 128.0 L 15.0 128.0 L 16.0 128.0 L 17.0 128.0 L 18.0 128.0 L 19.0 128.0 L 20.0 128.0 L 21.0 128.0 L 22.0 128.0 L 23.0 128.0 L 24.0 128.0 L 25.0 128.0 L 25.5 128.0 Z" stroke="none" fill="rgb(0,0,0)" />
<path d="M 107.5 85.5 L 108.0 85.0 L 109.0 84.0 L 110.0 83.0 L 111.0 82.0 L 112.0 81.0 L 113.0 80.0 L 114.0 79.0 L 115.0 78.0 L 116.0 77.0 L 117.0 76.0 L 118.0 75.0 L 119.0 74.0 L 120.0 73.0 L 121.0 72.0 L 122.0 71.0 L 122.66666666666667 70.0 L 123.33333333333333 69.0 L 123.66666666666667 68.0 L 124.0 67.0 L 124.0 66.0 L 124.0 65.0 L 124.0 64.0 L 124.0 63.0 L 124.0 62.0 L 124.0 61.0 L 124.0 60.0 L 123.66666666666667 59.0 L 123.0 58.0 L 122.0 57.0 L 121.0 56.0 L 120.0 55.0 L 119.0 54.0 L 118.0 53.0 L 117.0 52.0 L 116.0 51.0 L 115.0 50.0 L 114.0 49.0 L 113.0 48.0 L 112.0 47.0 L 111.0 46.0 L 110.0 45.0 L 109.0 44.0 L 108.0 43.0 L 107.0 42.0 L 106.0 41.0 L 105.0 40.0 L 104.0 39.0 L 103.0 38.0 L 102.0 37.0 L 101.0 36.0 L 100.0 35.0 L 99.0 34.0 L 98.0 33.0 L 97.0 32.0 L 96.0 31.0 L 95.0 30.0 L 94.0 29.0 L 93.0 28.0 L 92.0 27.0 L 91.0 26.0 L 90.0 25.0 L 89.0 24.0 L 88.0 23.0 L 87.0 22.0 L 86.0 21.0 L 85.0 20.0 L 84.0 19.0 L 83.0 18.0 L 82.0 17.0 L 81.0 16.0 L 80.0 15.0 L 79.0 14.0 L 78.0 13.0 L 77.0 12.0 L 76.0 11.0 L 75.0 10.0 L 74.0 9.0 L 73.0 8.0 L 72.0 7.0 L 71.0 6.0 L 70.0 5.333333333333333 L 69.0 4.666666666666667 L 68.0 4.333333333333333 L 67.0 4.0 L 66.0 4.0 L 65.0 4.0 L 64.0 4.0 L 63.0 4.0 L 62.0 4.0 L 61.0 4.0 L 60.0 4.333333333333333 L 59.0 4.666666666666667 L 58.0 5.333333333333333 L 57.0 6.0 L 56.333333333333336 7.0 L 56.333333333333336 8.0 L 57.0 8.666666666666666 L 58.0 9.0 L 59.0 9.0 L 60.0 9.0 L 61.0 9.0 L 62.0 9.333333333333334 L 63.0 10.0 L 64.0 10.666666666666666 L 65.0 11.333333333333334 L 66.0 12.0 L 67.0 13.0 L 68.0 14.0 L 69.0 15.0 L 70.0 16.0 L 71.0 17.0 L 72.0 18.0 L 73.0 19.0 L 74.0 20.0 L 75.0 21.0 L 76.0 22.0 L 77.0 23.0 L 78.0 24.0 L 79.0 25.0 L 80.0 26.0 L 81.0 27.0 L 82.0 28.0 L 83.0 29.0 L 84.0 30.0 L 85.0 31.0 L 86.0 32.0 L 87.0 33.0 L 88.0 34.0 L 89.0 35.0 L 90.0 36.0 L 91.0 37.0 L 92.0 38.0 L 93.0 39.0 L 94.0 40.0 L 95.0 41.0 L 96.0 42.0 L 97.0 43.0 L 98.0 44.0 L 99.0 45.0 L 100.0 46.0 L 101.0 47.0 L 102.0 48.0 L 103.0 49.0 L 104.0 50.0 L 105.0 51.0 L 106.0 52.0 L 107.0 53.0 L 108.0 54.0 L 109.0 55.0 L 110.0 56.0 L 111.0 57.0 L 112.0 58.0 L 113.0 59.0 L 114.0 60.0 L 114.66666666666667 61.0 L 115.0 62.0 L 115.0 63.0 L 115.0 64.0 L 115.0 65.0 L 114.66666666666667 66.0 L 114.0 67.0 L 113.0 68.0 L 112.0 69.0 L 111.0 70.0 L 110.0 71.0 L 109.0 72.0 L 108.0 73.0 L 107.0 74.0 L 106.0 75.0 L 105.0 76.0 L 104.0 77.0 L 103.0 78.0 L 102.0 79.0 L 101.0 80.0 L 100.0 81.0 L 99.0 82.0 L 98.0 83.0 L 97.0 84.0 L 96.0 85.0 L 95.0 86.0 L 94.0 87.0 L 93.0 88.0 L 92.0 89.0 L 91.0 90.0 L 90.0 91.0 L 89.0 92.0 L 88.0 93.0 L 87.0 94.0 L 86.0 95.0 L 85.0 96.0 L 84.0 97.0 L 83.0 98.0 L 82.0 99.0 L 81.0 100.0 L 80.0 101.0 L 79.0 102.0 L 78.33333333333333 103.0 L 77.66666666666667 104.0 L 77.0 105.0 L 76.0 106.0 L 75.0 107.0 L 74.0 108.0 L 73.0 109.0 L 72.0 110.0 L 71.0 111.0 L 70.0 112.0 L 69.0 113.0 L 68.0 114.0 L 67.0 115.0 L 66.0 116.0 L 65.0 117.0 L 64.0 118.0 L 63.0 119.0 L 62.0 119.66666666666667 L 61.0 120.0 L 60.0 120.0 L 59.0 120.0 L 58.0 120.0 L 57.333333333333336 120.33333333333333 L 57.0 121.0 L 57.333333333333336 122.0 L 58.0 122.66666666666667 L 59.0 123.33333333333333 L 60.0 123.66666666666667 L 61.0 124.0 L 62.0 124.0 L 63.0 124.0 L 64.0 124.0 L 65.0 124.0 L 66.0 124.0 L 67.0 124.0 L 68.0 123.66666666666667 L 69.0 123.33333333333333 L 70.0 122.66666666666667 L 71.0 122.0 L 72.0 121.0 L 73.0 120.0 L 74.0 119.0 L 75.0 118.0 L 76.0 117.0 L 77.0 116.0 L 78.0 115.0 L 79.0 114.0 L 80.0 113.0 L 81.0 112.0 L 82.0 111.0 L 83.0 110.0 L 84.0 109.0 L 85.0 108.0 L 86.0 107.0 L 87.0 106.0 L 88.0 105.0 L 89.0 104.0 L 90.0 103.0 L 91.0 102.0 L 92.0 101.0 L 93.0 100.0 L 94.0 99.0 L 95.0 98.0 L 96.0 97.0 L 97.0 96.0 L 98.0 95.0 L 99.0 94.0 L 100.0 93.0 L 101.0 92.0 L 102.0 91.0 L 103.0 90.0 L 104.0 89.0 L 105.0 88.0 L 106.0 87.0 L 106.5 86.5 Z" stroke="none" fill="rgb(242,166,0)" />
<path d="M 29.5 94.5 L 30.0 95.0 L 31.0 96.0 L 32.0 97.0 L 33.0 98.0 L 34.0 99.0 L 35.0 100.0 L 36.0 101.0 L 37.0 102.0 L 38.0 103.0 L 39.0 104.0 L 40.0 105.0 L 41.0 106.0 L 42.0 107.0 L 43.0 108.0 L 44.0 109.0 L 45.0 110.0 L 46.0 111.0 L 47.0 112.0 L 48.0 113.0 L 49.0 114.0 L 50.0 115.0 L 51.0 116.0 L 52.0 117.0 L 53.0 118.0 L 54.0 119.0 L 55.0 120.0 L 56.0 120.66666666666667 L 57.0 120.66666666666667 L 58.0 120.33333333333333 L 59.0 120.0 L 60.0 120.0 L 61.0 120.0 L 62.0 120.0 L 63.0 119.66666666666667 L 64.0 119.0 L 65.0 118.0 L 66.0 117.0 L 67.0 116.0 L 68.0 115.0 L 69.0 114.0 L 70.0 113.0 L 71.0 112.0 L 72.0 111.0 L 73.0 110.0 L 74.0 109.0 L 75.0 108.0 L 76.0 107.0 L 77.0 106.0 L 77.66666666666667 105.0 L 78.33333333333333 104.0 L 79.0 103.0 L 80.0 102.0 L 81.0 101.0 L 82.0 100.0 L 83.0 99.0 L 84.0 98.0 L 85.0 97.0 L 86.0 96.0 L 87.0 95.0 L 88.0 94.0 L 89.0 93.0 L 90.0 92.0 L 91.0 91.0 L 92.0 90.0 L 93.0 89.0 L 94.0 88.0 L 95.0 87.0 L 96.0 86.0 L 97.0 85.0 L 98.0 84.0 L 99.0 83.0 L 100.0 82.0 L 101.0 81.0 L 102.0 80.0 L 103.0 79.0 L 104.0 78.0 L 105.0 77.0 L 106.0 76.0 L 107.0 75.0 L 108.0 74.0 L 109.0 73.0 L 110.0 72.0 L 111.0 71.0 L 112.0 70.0 L 113.0 69.0 L 114.0 68.0 L 114.66666666666667 67.0 L 115.0 66.0 L 115.0 65.0 L 115.0 64.0 L 115.0 63.0 L 115.0 62.0 L 115.0 61.0 L 114.66666666666667 60.0 L 114.0 59.0 L 113.0 58.0 L 112.0 57.0 L 111.0 56.0 L 110.0 55.0 L 109.0 54.0 L 108.0 53.0 L 107.0 52.0 L 106.0 51.0 L 105.0 50.0 L 104.0 49.0 L 103.0 48.0 L 102.0 47.0 L 101.0 46.0 L 100.0 45.0 L 99.0 44.0 L 98.0 43.0 L 97.0 42.0 L 96.0 41.0 L 95.0 40.0 L 94.0 39.0 L 93.0 38.0 L 92.0 37.0 L 91.0 36.0 L 90.0 35.0 L 89.0 34.0 L 88.0 33.0 L 87.0 32.0 L 86.0 31.0 L 85.0 30.0 L 84.0 29.0 L 83.0 28.0 L 82.0 27.0 L 81.0 26.0 L 80.0 25.0 L 79.0 24.0 L 78.0 23.0 L 77.0 22.0 L 76.0 21.0 L 75.0 20.0 L 74.0 19.0 L 73.0 18.0 L 72.0 17.0 L 71.0 16.0 L 70.0 15.0 L 69.0 14.0 L 68.0 13.0 L 67.0 12.0 L 66.0 11.333333333333334 L 65.0 10.666666666666666 L 64.0 10.0 L 63.0 9.333333333333334 L 62.0 9.0 L 61.0 9.0 L 60.0 9.0 L 59.0 9.0 L 58.0 9.0 L 57.0 9.0 L 56.0 9.333333333333334 L 55.0 9.666666666666666 L 54.0 10.0 L 53.0 10.333333333333334 L 52.0 11.0 L 51.0 12.0 L 50.0 13.0 L 49.0 14.0 L 48.0 15.0 L 47.0 16.0 L 46.0 17.0 L 45.0 18.0 L 44.0 19.0 L 43.0 20.0 L 42.0 21.0 L 41.0 22.0 L 40.0 23.0 L 39.0 24.0 L 38.0 25.0 L 37.0 26.0 L 36.0 27.0 L 35.0 28.0 L 34.0 29.0 L 33.0 30.0 L 32.0 31.0 L 31.0 32.0 L 30.0 33.0 L 29.0 34.0 L 28.0 35.0 L 27.0 36.0 L 26.0 37.0 L 25.0 38.0 L 24.0 39.0 L 23.0 40.0 L 22.0 41.0 L 21.0 42.0 L 20.0 43.0 L 19.0 44.0 L 18.0 45.0 L 17.0 46.0 L 16.0 47.0 L 15.0 48.0 L 14.0 49.0 L 13.0 50.0 L 12.0 51.0 L 11.0 52.0 L 10.0 53.0 L 9.0 54.0 L 8.0 55.0 L 7.0 56.0 L 6.0 57.0 L 5.0 58.0 L 4.333333333333333 59.0 L 3.6666666666666665 60.0 L 3.3333333333333335 61.0 L 3.0 62.0 L 3.0 63.0 L 3.0 64.0 L 3.0 65.0 L 3.0 66.0 L 3.3333333333333335 67.0 L 3.6666666666666665 68.0 L 4.333333333333333 69.0 L 5.0 70.0 L 6.0 71.0 L 7.0 72.0 L 8.0 73.0 L 9.0 74.0 L 10.0 75.0 L 11.0 76.0 L 12.0 77.0 L 13.0 78.0 L 14.0 79.0 L 15.0 80.0 L 16.0 81.0 L 17.0 82.0 L 18.0 83.0 L 19.0 84.0 L 20.0 85.0 L 21.0 86.0 L 22.0 87.0 L 23.0 88.0 L 24.0 89.0 L 25.0 90.0 L 26.0 91.0 L 27.0 92.0 L 28.0 93.0 L 28.5 93.5 Z" stroke="none" fill="rgb(255,204,50)" />
<path d="M 23.5 56.0 L 24.0 55.666666666666664 L 25.0 55.0 L 26.0 54.0 L 27.0 53.333333333333336 L 28.0 52.666666666666664 L 29.0 52.0 L 30.0 51.0 L 31.0 50.0 L 32.0 49.0 L 33.0 48.0 L 34.0 47.0 L 35.0 46.0 L 36.0 45.0 L 37.0 44.666666666666664 L 38.0 44.666666666666664 L 38.666666666666664 44.666666666666664 L 39.0 44.0 L 39.333333333333336 43.0 L 40.0 42.0 L 41.0 41.0 L 42.0 40.333333333333336 L 43.0 39.666666666666664 L 43.666666666666664 39.0 L 43.666666666666664 38.0 L 43.666666666666664 37.0 L 44.0 36.0 L 45.0 35.0 L 46.0 34.0 L 47.0 33.0 L 48.0 32.0 L 49.0 31.0 L 50.0 30.0 L 51.0 29.0 L 52.0 28.0 L 53.0 27.0 L 54.0 26.0 L 55.0 25.0 L 55.666666666666664 24.0 L 56.0 23.0 L 56.0 22.0 L 56.0 21.0 L 56.0 20.0 L 56.0 19.0 L 55.666666666666664 18.0 L 55.0 17.333333333333332 L 54.0 17.333333333333332 L 53.0 17.666666666666668 L 52.0 18.333333333333332 L 51.0 19.0 L 50.0 20.0 L 49.0 21.0 L 48.0 22.0 L 47.0 23.0 L 46.0 24.0 L 45.0 25.0 L 44.0 26.0 L 43.0 27.0 L 42.0 28.0 L 41.0 29.0 L 40.0 30.0 L 39.0 31.0 L 38.0 32.0 L 37.0 33.0 L 36.0 34.0 L 35.0 35.0 L 34.0 36.0 L 33.0 37.0 L 32.0 38.0 L 31.0 39.0 L 30.0 40.0 L 29.0 41.0 L 28.0 42.0 L 27.0 43.0 L 26.0 44.0 L 25.0 45.0 L 24.0 46.0 L 23.0 47.0 L 22.0 48.0 L 21.0 49.0 L 20.0 50.0 L 19.333333333333332 51.0 L 19.0 52.0 L 19.0 53.0 L 19.0 54.0 L 19.333333333333332 55.0 L 20.0 55.666666666666664 L 21.0 56.0 L 22.0 56.0 L 22.5 56.0 Z" stroke="none" fill="rgb(255,241,112)" />
<path d="M 65.5 35.5 L 66.0 36.0 L 67.0 37.0 L 68.0 38.0 L 69.0 38.666666666666664 L 69.66666666666667 38.666666666666664 L 70.33333333333333 38.0 L 71.0 37.333333333333336 L 72.0 37.0 L 73.0 37.333333333333336 L 74.0 37.666666666666664 L 75.0 38.0 L 76.0 37.666666666666664 L 77.0 37.0 L 77.66666666666667 36.0 L 78.0 35.0 L 78.0 34.0 L 78.0 33.0 L 78.0 32.0 L 78.0 31.0 L 78.0 30.0 L 77.66666666666667 29.0 L 77.0 28.0 L 76.0 27.333333333333332 L 75.0 26.666666666666668 L 74.0 26.333333333333332 L 73.0 26.0 L 72.0 26.0 L 71.0 26.0 L 70.0 26.333333333333332 L 69.0 26.666666666666668 L 68.0 27.333333333333332 L 67.0 28.0 L 66.33333333333333 29.0 L 65.66666666666667 30.0 L 65.33333333333333 31.0 L 65.0 32.0 L 65.0 33.0 L 65.0 34.0 L 65.0 34.5 Z" stroke="none" fill="rgb(63,63,62)" />
<path d="M 65.5 45.0 L 66.0 45.0 L 67.0 45.0 L 68.0 45.0 L 69.0 45.0 L 70.0 45.0 L 71.0 45.0 L 72.0 45.0 L 73.0 45.0 L 74.0 45.0 L 75.0 45.0 L 76.0 45.0 L 77.0 45.0 L 78.0 45.0 L 79.0 45.0 L 79.66666666666667 44.666666666666664 L 80.0 44.0 L 79.66666666666667 43.0 L 79.0 42.0 L 78.0 41.0 L 77.0 40.0 L 76.0 39.0 L 75.0 38.0 L 74.0 37.333333333333336 L 73.0 37.0 L 72.0 37.0 L 71.0 37.0 L 70.33333333333333 37.333333333333336 L 69.66666666666667 38.0 L 69.0 39.0 L 68.0 40.0 L 67.0 41.0 L 66.0 42.0 L 65.33333333333333 43.0 L 65.0 44.0 L 65.0 44.5 Z" stroke="none" fill="rgb(58,58,58)" />
<path d="M 40.5 45.0 L 41.0 45.0 L 42.0 45.0 L 43.0 45.0 L 44.0 45.0 L 45.0 45.0 L 46.0 45.0 L 47.0 45.0 L 48.0 45.0 L 49.0 45.0 L 50.0 45.0 L 50.666666666666664 44.666666666666664 L 51.0 44.0 L 51.0 43.0 L 50.666666666666664 42.0 L 50.0 41.0 L 49.0 40.0 L 48.0 39.333333333333336 L 47.0 39.0 L 46.0 39.0 L 45.0 39.0 L 44.0 39.0 L 43.0 39.333333333333336 L 42.0 39.666666666666664 L 41.0 40.333333333333336 L 40.0 41.0 L 39.333333333333336 42.0 L 39.0 43.0 L 39.0 44.0 L 39.333333333333336 44.666666666666664 L 39.5 45.0 Z" stroke="none" fill="rgb(58,58,58)" />
<path d="M 49.0 51.5 L 49.333333333333336 51.0 L 50.0 50.0 L 50.666666666666664 49.0 L 51.0 48.0 L 51.0 47.0 L 51.0 46.0 L 50.666666666666664 45.333333333333336 L 50.0 45.0 L 49.0 45.0 L 48.0 45.0 L 47.0 45.0 L 46.0 45.0 L 45.0 45.0 L 44.0 45.0 L 43.0 45.0 L 42.0 45.0 L 41.0 45.0 L 40.0 45.0 L 39.333333333333336 45.333333333333336 L 39.0 46.0 L 39.0 47.0 L 39.333333333333336 48.0 L 40.0 49.0 L 41.0 50.0 L 42.0 51.0 L 43.0 51.666666666666664 L 44.0 52.0 L 45.0 52.0 L 46.0 52.0 L 47.0 52.0 L 48.0 52.0 L 48.5 52.0 Z" stroke="none" fill="rgb(55,55,54)" />
<path d="M 69.5 53.0 L 70.0 53.0 L 71.0 53.0 L 72.0 53.0 L 73.0 53.0 L 74.0 53.0 L 75.0 53.0 L 76.0 53.0 L 77.0 53.0 L 78.0 53.333333333333336 L 79.0 53.666666666666664 L 80.0 54.0 L 81.0 53.666666666666664 L 82.0 53.333333333333336 L 83.0 53.0 L 84.0 53.0 L 84.66666666666667 52.666666666666664 L 85.0 52.0 L 84.66666666666667 51.0 L 84.0 50.0 L 83.33333333333333 49.0 L 82.66666666666667 48.0 L 82.33333333333333 47.0 L 81.66666666666667 46.0 L 81.0 45.333333333333336 L 80.0 45.0 L 79.0 45.0 L 78.0 45.0 L 77.0 45.0 L 76.0 45.0 L 75.0 45.0 L 74.0 45.0 L 73.0 45.0 L 72.0 45.0 L 71.0 45.0 L 70.0 45.0 L 69.0 45.0 L 68.0 45.0 L 67.0 45.0 L 66.0 45.0 L 65.0 45.0 L 64.0 45.0 L 63.0 45.333333333333336 L 62.0 46.0 L 61.0 47.0 L 60.0 48.0 L 59.0 49.0 L 58.0 50.0 L 57.333333333333336 51.0 L 57.0 52.0 L 57.333333333333336 52.666666666666664 L 58.0 53.0 L 59.0 53.0 L 60.0 53.0 L 61.0 53.333333333333336 L 62.0 54.0 L 63.0 54.666666666666664 L 64.0 55.0 L 64.66666666666667 54.666666666666664 L 65.33333333333333 54.0 L 66.0 53.333333333333336 L 67.0 53.0 L 68.0 53.0 L 68.5 53.0 Z" stroke="none" fill="rgb(55,55,54)" />
<path d="M 55.5 62.0 L 56.0 62.0 L 57.0 62.0 L 58.0 62.0 L 59.0 62.0 L 60.0 62.0 L 61.0 62.0 L 62.0 62.0 L 63.0 62.0 L 64.0 62.0 L 65.0 62.0 L 66.0 62.0 L 67.0 62.0 L 68.0 62.0 L 69.0 62.0 L 70.0 62.0 L 71.0 62.0 L 72.0 62.0 L 73.0 62.0 L 74.0 62.0 L 75.0 62.0 L 76.0 62.0 L 77.0 62.0 L 78.0 62.0 L 79.0 62.0 L 79.66666666666667 61.666666666666664 L 80.0 61.0 L 80.0 60.0 L 80.0 59.0 L 80.33333333333333 58.0 L 81.0 57.333333333333336 L 82.0 57.333333333333336 L 83.0 58.0 L 84.0 59.0 L 85.0 60.0 L 86.0 60.666666666666664 L 87.0 61.333333333333336 L 88.0 62.0 L 89.0 62.666666666666664 L 90.0 63.0 L 91.0 63.0 L 92.0 63.0 L 93.0 63.0 L 93.66666666666667 62.666666666666664 L 94.0 62.0 L 94.0 61.0 L 93.66666666666667 60.0 L 93.0 59.0 L 92.0 58.0 L 91.0 57.0 L 90.0 56.0 L 89.0 55.333333333333336 L 88.0 54.666666666666664 L 87.0 54.0 L 86.0 53.333333333333336 L 85.0 53.0 L 84.0 53.0 L 83.0 53.0 L 82.0 53.0 L 81.0 53.333333333333336 L 80.0 53.333333333333336 L 79.0 53.333333333333336 L 78.0 53.0 L 77.0 53.0 L 76.0 53.0 L 75.0 53.0 L 74.0 53.0 L 73.0 53.0 L 72.0 53.0 L 71.0 53.0 L 70.0 53.0 L 69.0 53.0 L 68.0 53.0 L 67.0 53.0 L 66.0 53.0 L 65.33333333333333 53.333333333333336 L 64.66666666666667 54.0 L 64.0 54.333333333333336 L 63.0 54.0 L 62.0 53.333333333333336 L 61.0 53.0 L 60.0 53.0 L 59.0 53.0 L 58.333333333333336 53.333333333333336 L 58.0 54.0 L 58.0 55.0 L 58.0 56.0 L 58.0 57.0 L 58.0 58.0 L 57.666666666666664 59.0 L 57.0 59.333333333333336 L 56.0 59.0 L 55.0 58.0 L 54.0 57.0 L 53.0 56.0 L 52.0 55.0 L 51.0 54.0 L 50.0 53.0 L 49.0 52.333333333333336 L 48.0 52.0 L 47.0 52.0 L 46.0 52.0 L 45.0 52.0 L 44.0 52.0 L 43.0 52.333333333333336 L 42.0 53.0 L 41.0 53.666666666666664 L 40.0 54.333333333333336 L 39.0 55.0 L 38.0 55.666666666666664 L 37.0 56.333333333333336 L 36.0 57.0 L 35.0 58.0 L 34.0 58.666666666666664 L 33.0 59.333333333333336 L 32.333333333333336 60.0 L 32.0 61.0 L 32.333333333333336 61.666666666666664 L 33.0 62.0 L 34.0 62.0 L 35.0 62.333333333333336 L 36.0 62.666666666666664 L 37.0 63.0 L 38.0 63.0 L 39.0 63.0 L 40.0 62.666666666666664 L 41.0 62.333333333333336 L 42.0 62.0 L 43.0 62.0 L 44.0 62.0 L 45.0 62.0 L 46.0 62.0 L 47.0 62.0 L 48.0 62.0 L 49.0 62.0 L 50.0 62.0 L 51.0 62.0 L 52.0 62.0 L 53.0 62.0 L 54.0 62.0 L 54.5 62.0 Z" stroke="none" fill="rgb(50,50,50)" />
<path d="M 16.5 64.0 L 17.0 63.666666666666664 L 18.0 63.0 L 18.666666666666668 62.0 L 19.0 61.0 L 19.0 60.0 L 18.666666666666668 59.0 L 18.0 58.0 L 17.0 57.333333333333336 L 16.0 57.0 L 15.0 57.333333333333336 L 14.0 57.666666666666664 L 13.333333333333334 58.333333333333336 L 12.666666666666666 59.0 L 12.333333333333334 60.0 L 12.0 61.0 L 12.333333333333334 62.0 L 13.0 63.0 L 14.0 63.666666666666664 L 15.0 64.0 L 15.5 64.0 Z" stroke="none" fill="rgb(255,241,112)" />
<path d="M 33.5 69.0 L 34.0 68.66666666666667 L 34.666666666666664 68.0 L 35.333333333333336 67.0 L 35.666666666666664 66.0 L 36.0 65.0 L 36.0 64.0 L 36.0 63.0 L 35.666666666666664 62.333333333333336 L 35.0 62.0 L 34.0 62.0 L 33.0 62.0 L 32.0 62.333333333333336 L 31.0 63.0 L 30.333333333333332 64.0 L 29.666666666666668 65.0 L 29.333333333333332 66.0 L 29.0 67.0 L 29.333333333333332 67.66666666666667 L 30.0 68.0 L 31.0 68.0 L 32.0 68.33333333333333 L 32.5 68.5 Z" stroke="none" fill="rgb(47,47,47)" />
<path d="M 39.5 67.5 L 40.0 67.66666666666667 L 41.0 68.0 L 42.0 68.0 L 43.0 68.0 L 44.0 68.0 L 45.0 68.0 L 46.0 68.0 L 47.0 68.0 L 48.0 68.0 L 49.0 68.0 L 50.0 68.0 L 51.0 68.0 L 51.666666666666664 67.66666666666667 L 52.333333333333336 67.0 L 53.0 66.33333333333333 L 54.0 66.0 L 55.0 66.0 L 56.0 66.0 L 57.0 66.0 L 58.0 65.66666666666667 L 59.0 65.33333333333333 L 60.0 65.0 L 61.0 65.0 L 62.0 65.0 L 63.0 65.33333333333333 L 63.666666666666664 66.0 L 64.33333333333333 67.0 L 65.0 67.66666666666667 L 66.0 68.0 L 67.0 68.0 L 68.0 68.0 L 69.0 68.33333333333333 L 70.0 68.66666666666667 L 71.0 68.66666666666667 L 72.0 68.66666666666667 L 73.0 68.66666666666667 L 74.0 69.0 L 75.0 68.66666666666667 L 76.0 68.33333333333333 L 77.0 68.0 L 78.0 68.0 L 79.0 68.0 L 79.66666666666667 67.66666666666667 L 80.0 67.0 L 80.0 66.0 L 79.66666666666667 65.0 L 79.33333333333333 64.0 L 79.0 63.0 L 78.66666666666667 62.333333333333336 L 78.0 62.0 L 77.0 62.0 L 76.0 62.0 L 75.0 62.0 L 74.0 62.0 L 73.0 62.0 L 72.0 62.0 L 71.0 62.0 L 70.0 62.0 L 69.0 62.0 L 68.0 62.0 L 67.0 62.0 L 66.0 62.0 L 65.0 62.0 L 64.0 62.0 L 63.0 62.0 L 62.0 62.0 L 61.0 62.0 L 60.0 62.0 L 59.0 62.0 L 58.0 62.0 L 57.0 62.0 L 56.0 62.0 L 55.0 62.0 L 54.0 62.0 L 53.0 62.0 L 52.0 62.0 L 51.0 62.0 L 50.0 62.0 L 49.0 62.0 L 48.0 62.0 L 47.0 62.0 L 46.0 62.0 L 45.0 62.0 L 44.0 62.0 L 43.0 62.0 L 42.0 62.0 L 41.0 62.0 L 40.0 62.333333333333336 L 39.333333333333336 63.0 L 39.0 64.0 L 39.0 65.0 L 39.0 66.0 L 39.0 66.5 Z" stroke="none" fill="rgb(47,47,47)" />
<path d="M 59.0 85.5 L 59.333333333333336 85.0 L 60.0 84.0 L 60.666666666666664 83.0 L 61.0 82.0 L 61.333333333333336 81.0 L 61.666666666666664 80.0 L 62.333333333333336 79.0 L 62.666666666666664 78.0 L 63.333333333333336 77.0 L 63.666666666666664 76.0 L 64.33333333333333 75.0 L 64.66666666666667 74.0 L 65.0 73.0 L 65.0 72.0 L 65.0 71.0 L 65.0 70.0 L 65.0 69.0 L 65.0 68.0 L 64.66666666666667 67.0 L 64.33333333333333 66.0 L 63.666666666666664 65.33333333333333 L 63.0 65.0 L 62.0 65.0 L 61.0 65.0 L 60.0 65.0 L 59.0 65.0 L 58.0 65.33333333333333 L 57.0 65.66666666666667 L 56.0 66.0 L 55.0 66.0 L 54.0 66.0 L 53.0 66.0 L 52.333333333333336 66.33333333333333 L 51.666666666666664 67.0 L 51.333333333333336 68.0 L 51.0 69.0 L 51.0 70.0 L 51.0 71.0 L 51.333333333333336 72.0 L 51.666666666666664 73.0 L 52.0 74.0 L 52.333333333333336 75.0 L 52.666666666666664 76.0 L 53.0 77.0 L 53.333333333333336 78.0 L 53.666666666666664 79.0 L 54.333333333333336 80.0 L 54.666666666666664 81.0 L 55.0 82.0 L 55.333333333333336 83.0 L 55.666666666666664 84.0 L 56.333333333333336 85.0 L 57.0 85.66666666666667 L 58.0 86.0 L 58.5 86.0 Z" stroke="none" fill="rgb(255,204,50)" />
<path d="M 30.5 71.0 L 31.0 71.0 L 32.0 71.0 L 32.666666666666664 70.66666666666667 L 33.0 70.0 L 33.0 69.0 L 32.666666666666664 68.33333333333333 L 32.0 68.0 L 31.0 68.0 L 30.0 68.0 L 29.333333333333332 68.33333333333333 L 29.0 69.0 L 29.333333333333332 70.0 L 29.5 70.5 Z" stroke="none" fill="rgb(44,44,44)" />
<path d="M 48.5 74.5 L 49.0 74.33333333333333 L 50.0 74.0 L 51.0 74.0 L 51.666666666666664 73.66666666666667 L 52.0 73.0 L 51.666666666666664 72.0 L 51.333333333333336 71.0 L 51.0 70.0 L 51.0 69.0 L 50.666666666666664 68.33333333333333 L 50.0 68.0 L 49.0 68.0 L 48.0 68.0 L 47.0 68.0 L 46.0 68.0 L 45.0 68.0 L 44.0 68.0 L 43.0 68.0 L 42.0 68.0 L 41.0 68.0 L 40.333333333333336 68.33333333333333 L 40.0 69.0 L 40.0 70.0 L 40.0 71.0 L 40.0 72.0 L 40.0 73.0 L 40.333333333333336 73.66666666666667 L 41.0 74.0 L 42.0 74.0 L 43.0 74.0 L 44.0 74.0 L 45.0 74.33333333333333 L 46.0 74.66666666666667 L 47.0 75.0 L 47.5 75.0 Z" stroke="none" fill="rgb(44,44,44)" />
<path d="M 65.5 74.0 L 66.0 74.0 L 67.0 74.0 L 68.0 74.0 L 69.0 74.0 L 70.0 74.0 L 70.66666666666667 73.66666666666667 L 71.0 73.0 L 71.0 72.0 L 71.0 71.0 L 71.0 70.0 L 70.66666666666667 69.0 L 70.0 68.33333333333333 L 69.0 68.0 L 68.0 68.0 L 67.0 68.0 L 66.0 68.0 L 65.33333333333333 68.33333333333333 L 65.0 69.0 L 65.0 70.0 L 65.0 71.0 L 65.0 72.0 L 65.0 73.0 L 65.0 73.5 Z" stroke="none" fill="rgb(44,44,44)" />
<path d="M 75.5 73.5 L 76.0 73.66666666666667 L 77.0 74.0 L 78.0 74.0 L 79.0 74.0 L 80.0 74.0 L 81.0 74.0 L 81.66666666666667 73.66666666666667 L 82.0 73.0 L 82.0 72.0 L 81.66666666666667 71.0 L 81.33333333333333 70.0 L 80.66666666666667 69.0 L 80.0 68.33333333333333 L 79.0 68.0 L 78.0 68.0 L 77.0 68.0 L 76.0 68.0 L 75.0 68.33333333333333 L 74.33333333333333 69.0 L 74.0 70.0 L 74.33333333333333 71.0 L 74.66666666666667 72.0 L 75.0 72.5 Z" stroke="none" fill="rgb(44,44,44)" />
<path d="M 42.5 83.0 L 43.0 83.0 L 44.0 82.66666666666667 L 44.666666666666664 82.0 L 45.0 81.0 L 45.0 80.0 L 45.0 79.0 L 45.0 78.0 L 45.333333333333336 77.0 L 46.0 76.66666666666667 L 47.0 77.0 L 48.0 78.0 L 48.666666666666664 79.0 L 49.0 80.0 L 49.333333333333336 81.0 L 50.0 81.66666666666667 L 51.0 82.0 L 52.0 82.0 L 53.0 82.0 L 54.0 82.0 L 54.666666666666664 81.66666666666667 L 55.0 81.0 L 54.666666666666664 80.0 L 54.333333333333336 79.0 L 53.666666666666664 78.0 L 53.333333333333336 77.0 L 53.0 76.0 L 52.666666666666664 75.0 L 52.0 74.33333333333333 L 51.0 74.0 L 50.0 74.0 L 49.0 74.0 L 48.0 74.33333333333333 L 47.0 74.33333333333333 L 46.0 74.33333333333333 L 45.0 74.0 L 44.0 74.0 L 43.0 74.0 L 42.0 74.0 L 41.0 74.0 L 40.333333333333336 74.33333333333333 L 40.0 75.0 L 40.0 76.0 L 40.0 77.0 L 39.666666666666664 78.0 L 39.333333333333336 79.0 L 39.0 80.0 L 39.0 81.0 L 39.333333333333336 81.66666666666667 L 40.0 82.0 L 41.0 82.33333333333333 L 41.5 82.5 Z" stroke="none" fill="rgb(41,41,40)" />
<path d="M 65.5 82.0 L 66.0 82.0 L 67.0 82.0 L 68.0 81.66666666666667 L 68.66666666666667 81.0 L 69.33333333333333 80.0 L 69.66666666666667 79.0 L 70.0 78.0 L 70.0 77.0 L 70.0 76.0 L 70.0 75.0 L 69.66666666666667 74.33333333333333 L 69.0 74.0 L 68.0 74.0 L 67.0 74.0 L 66.0 74.0 L 65.0 74.0 L 64.33333333333333 74.33333333333333 L 63.666666666666664 75.0 L 63.333333333333336 76.0 L 62.666666666666664 77.0 L 62.333333333333336 78.0 L 61.666666666666664 79.0 L 61.333333333333336 80.0 L 61.0 81.0 L 61.333333333333336 81.66666666666667 L 62.0 82.0 L 63.0 82.0 L 64.0 82.0 L 64.5 82.0 Z" stroke="none" fill="rgb(41,41,40)" />
<path d="M 85.0 81.5 L 85.0 81.0 L 85.0 80.0 L 85.0 79.0 L 84.66666666666667 78.0 L 84.33333333333333 77.0 L 83.66666666666667 76.0 L 83.33333333333333 75.0 L 82.66666666666667 74.33333333333333 L 82.0 74.0 L 81.0 74.0 L 80.0 74.0 L 79.0 74.0 L 78.0 74.0 L 77.33333333333333 74.33333333333333 L 77.0 75.0 L 77.0 76.0 L 77.0 77.0 L 77.33333333333333 78.0 L 77.66666666666667 79.0 L 78.0 80.0 L 78.33333333333333 81.0 L 79.0 81.66666666666667 L 80.0 82.0 L 81.0 82.0 L 82.0 82.0 L 83.0 82.0 L 84.0 82.0 L 84.5 82.0 Z" stroke="none" fill="rgb(41,41,40)" />
<path d="M 43.0 83.5 L 42.666666666666664 83.0 L 42.0 82.33333333333333 L 41.0 82.0 L 40.0 82.0 L 39.0 82.0 L 38.0 82.33333333333333 L 37.0 83.0 L 36.0 84.0 L 35.0 85.0 L 34.333333333333336 86.0 L 33.666666666666664 87.0 L 33.333333333333336 88.0 L 33.0 89.0 L 33.333333333333336 90.0 L 34.0 91.0 L 35.0 91.66666666666667 L 36.0 92.0 L 37.0 91.66666666666667 L 38.0 91.0 L 38.666666666666664 90.0 L 39.333333333333336 89.0 L 40.0 88.0 L 41.0 87.0 L 41.666666666666664 86.0 L 42.333333333333336 85.0 L 42.5 84.5 Z" stroke="none" fill="rgb(37,37,37)" />
<path d="M 59.5 92.0 L 60.0 92.0 L 61.0 92.0 L 62.0 92.0 L 63.0 91.66666666666667 L 63.666666666666664 91.0 L 64.33333333333333 90.0 L 64.66666666666667 89.0 L 65.33333333333333 88.0 L 65.66666666666667 87.0 L 66.33333333333333 86.0 L 66.66666666666667 85.0 L 67.0 84.0 L 67.0 83.0 L 66.66666666666667 82.33333333333333 L 66.0 82.0 L 65.0 82.0 L 64.0 82.0 L 63.0 82.0 L 62.0 82.0 L 61.0 82.33333333333333 L 60.0 83.0 L 59.333333333333336 84.0 L 58.666666666666664 85.0 L 58.0 85.33333333333333 L 57.0 85.0 L 56.333333333333336 84.0 L 55.666666666666664 83.0 L 55.0 82.33333333333333 L 54.0 82.0 L 53.0 82.0 L 52.0 82.0 L 51.333333333333336 82.33333333333333 L 51.0 83.0 L 51.0 84.0 L 51.0 85.0 L 51.0 86.0 L 51.333333333333336 87.0 L 51.666666666666664 88.0 L 52.333333333333336 89.0 L 53.0 90.0 L 54.0 91.0 L 55.0 91.66666666666667 L 56.0 92.0 L 57.0 92.0 L 58.0 92.0 L 58.5 92.0 Z" stroke="none" fill="rgb(37,37,37)" />
<path d="M 88.0 90.5 L 88.0 90.0 L 88.0 89.0 L 88.0 88.0 L 88.0 87.0 L 87.66666666666667 86.0 L 87.33333333333333 85.0 L 86.66666666666667 84.0 L 86.33333333333333 83.0 L 85.66666666666667 82.33333333333333 L 85.0 82.0 L 84.0 82.0 L 83.0 82.0 L 82.0 82.0 L 81.0 82.0 L 80.33333333333333 82.33333333333333 L 80.0 83.0 L 80.0 84.0 L 80.0 85.0 L 80.33333333333333 86.0 L 80.66666666666667 87.0 L 81.0 88.0 L 81.33333333333333 89.0 L 82.0 90.0 L 83.0 91.0 L 84.0 91.66666666666667 L 85.0 92.0 L 86.0 92.0 L 87.0 91.66666666666667 L 87.5 91.5 Z" stroke="none" fill="rgb(37,37,37)" />
</svg>
