<?xml version="1.0" encoding="UTF-8" standalone="no"?>
<!DOCTYPE svg PUBLIC "-//W3C//DTD SVG 1.1//EN"
"http://www.w3.org/Graphics/SVG/1.1/DTD/svg11.dtd">
<svg width="128" height="128" xmlns="http://www.w3.org/2000/svg" version="1.1">
<path d="M 88.5 128.0 L 89.0 128.0 L 90.0 128.0 L 91.0 128.0 L 92.0 128.0 L 93.0 128.0 L 94.0 128.0 L 95.0 128.0 L 96.0 128.0 L 97.0 128.0 L 98.0 128.0 L 99.0 128.0 L 100.0 128.0 L 101.0 128.0 L 102.0 128.0 L 103.0 128.0 L 104.0 128.0 L 105.0 128.0 L 106.0 128.0 L 107.0 128.0 L 108.0 128.0 L 109.0 128.0 L 110.0 128.0 L 111.0 128.0 L 112.0 128.0 L 113.0 128.0 L 114.0 128.0 L 115.0 128.0 L 116.0 128.0 L 117.0 128.0 L 118.0 128.0 L 119.0 128.0 L 120.0 128.0 L 121.0 128.0 L 122.0 128.0 L 123.0 128.0 L 124.0 128.0 L 125.0 128.0 L 126.0 128.0 L 127.0 128.0 L 127.66666666666667 127.66666666666667 L 128.0 127.0 L 128.0 126.0 L 128.0 125.0 L 128.0 124.0 L 128.0 123.0 L 128.0 122.0 L 128.0 121.0 L 128.0 120.0 L 128.0 119.0 L 128.0 118.0 L 128.0 117.0 L 128.0 116.0 L 128.0 115.0 L 128.0 114.0 L 128.0 113.0 L 128.0 112.0 L 128.0 111.0 L 128.0 110.0 L 128.0 109.0 L 128.0 108.0 L 128.0 107.0 L 128.0 106.0 L 128.0 105.0 L 128.0 104.0 L 128.0 103.0 L 128.0 102.0 L 128.0 101.0 L 128.0 100.0 L 128.0 99.0 L 128.0 98.0 L 128.0 97.0 L 128.0 96.0 L 128.0 95.0 L 128.0 94.0 L 128.0 93.0 L 128.0 92.0 L 128.0 91.0 L 128.0 90.0 L 128.0 89.0 L 128.0 88.0 L 128.0 87.0 L 128.0 86.0 L 128.0 85.0 L 128.0 84.0 L 128.0 83.0 L 128.0 82.0 L 128.0 81.0 L 128.0 80.0 L 128.0 79.0 L 128.0 78.0 L 128.0 77.0 L 128.0 76.0 L 128.0 75.0 L 128.0 74.0 L 128.0 73.0 L 128.0 72.0 L 128.0 71.0 L 128.0 70.0 L 128.0 69.0 L 128.0 68.0 L 128.0 67.0 L 128.0 66.0 L 128.0 65.0 L 128.0 64.0 L 128.0 63.0 L 128.0 62.0 L 128.0 61.0 L 128.0 60.0 L 128.0 59.0 L 128.0 58.0 L 128.0 57.0 L 128.0 56.0 L 128.0 55.0 L 128.0 54.0 L 128.0 53.0 L 128.0 52.0 L 128.0 51.0 L 128.0 50.0 L 128.0 49.0 L 128.0 48.0 L 128.0 47.0 L 128.0 46.0 L 128.0 45.0 L 128.0 44.0 L 128.0 43.0 L 128.0 42.0 L 128.0 41.0 L 128.0 40.0 L 128.0 39.0 L 128.0 38.0 L 128.0 37.0 L 128.0 36.0 L 128.0 35.0 L 128.0 34.0 L 128.0 33.0 L 128.0 32.0 L 128.0 31.0 L 128.0 30.0 L 128.0 29.0 L 128.0 28.0 L 128.0 27.0 L 128.0 26.0 L 128.0 25.0 L 128.0 24.0 L 128.0 23.0 L 128.0 22.0 L 128.0 21.0 L 128.0 20.0 L 128.0 19.0 L 128.0 18.0 L 128.0 17.0 L 128.0 16.0 L 128.0 15.0 L 128.0 14.0 L 128.0 13.0 L 128.0 12.0 L 128.0 11.0 L 128.0 10.0 L 128.0 9.0 L 128.0 8.0 L 128.0 7.0 L 128.0 6.0 L 128.0 5.0 L 128.0 4.0 L 128.0 3.0 L 128.0 2.0 L 128.0 1.0 L 127.66666666666667 0.3333333333333333 L 127.0 0.0 L 126.0 0.0 L 125.0 0.0 L 124.0 0.0 L 123.0 0.0 L 122.0 0.0 L 121.0 0.0 L 120.0 0.0 L 119.0 0.0 L 118.0 0.0 L 117.0 0.0 L 116.0 0.0 L 115.0 0.0 L 114.0 0.0 L 113.0 0.0 L 112.0 0.0 L 111.0 0.0 L 110.0 0.0 L 109.0 0.0 L 108.0 0.0 L 107.0 0.0 L 106.0 0.0 L 105.0 0.0 L 104.0 0.0 L 103.0 0.0 L 102.0 0.0 L 101.0 0.0 L 100.0 0.0 L 99.0 0.0 L 98.0 0.0 L 97.0 0.0 L 96.0 0.0 L 95.0 0.0 L 94.0 0.0 L 93.0 0.0 L 92.0 0.0 L 91.0 0.0 L 90.0 0.0 L 89.0 0.0 L 88.0 0.0 L 87.0 0.0 L 86.0 0.0 L 85.0 0.0 L 84.0 0.0 L 83.0 0.0 L 82.0 0.0 L 81.0 0.0 L 80.0 0.0 L 79.0 0.0 L 78.0 0.0 L 77.0 0.0 L 76.0 0.0 L 75.0 0.0 L 74.0 0.0 L 73.0 0.0 L 72.0 0.0 L 71.0 0.0 L 70.0 0.0 L 69.0 0.0 L 68.0 0.0 L 67.0 0.0 L 66.0 0.0 L 65.0 0.0 L 64.0 0.0 L 63.0 0.0 L 62.0 0.0 L 61.0 0.0 L 60.0 0.0 L 59.0 0.0 L 58.0 0.0 L 57.0 0.0 L 56.0 0.0 L 55.0 0.0 L 54.0 0.0 L 53.0 0.0 L 52.0 0.0 L 51.0 0.0 L 50.0 0.0 L 49.0 0.0 L 48.0 0.0 L 47.0 0.0 L 46.0 0.0 L 45.0 0.0 L 44.0 0.0 L 43.0 0.0 L 42.0 0.0 L 41.0 0.0 L 40.0 0.0 L 39.0 0.0 L 38.0 0.0 L 37.0 0.0 L 36.0 0.0 L 35.0 0.0 L 34.0 0.0 L 33.0 0.0 L 32.0 0.0 L 31.0 0.0 L 30.0 0.0 L 29.0 0.0 L 28.0 0.0 L 27.0 0.0 L 26.0 0.0 L 25.0 0.0 L 24.0 0.0 L 23.0 0.0 L 22.0 0.0 L 21.0 0.0 L 20.0 0.0 L 19.0 0.0 L 18.0 0.0 L 17.0 0.0 L 16.0 0.0 L 15.0 0.0 L 14.0 0.0 L 13.0 0.0 L 12.0 0.0 L 11.0 0.0 L 10.0 0.0 L 9.0 0.0 L 8.0 0.0 L 7.0 0.0 L 6.0 0.0 L 5.0 0.0 L 4.0 0.0 L 3.0 0.0 L 2.0 0.0 L 1.0 0.0 L 0.3333333333333333 0.3333333333333333 L 0.0 1.0 L 0.0 2.0 L 0.0 3.0 L 0.0 4.0 L 0.0 5.0 L 0.0 6.0 L 0.0 7.0 L 0.0 8.0 L 0.0 9.0 L 0.0 10.0 L 0.0 11.0 L 0.0 12.0 L 0.0 13.0 L 0.0 14.0 L 0.0 15.0 L 0.0 16.0 L 0.0 17.0 L 0.0 18.0 L 0.0 19.0 L 0.0 20.0 L 0.0 21.0 L 0.0 22.0 L 0.0 23.0 L 0.0 24.0 L 0.0 25.0 L 0.0 26.0 L 0.0 27.0 L 0.0 28.0 L 0.0 29.0 L 0.0 30.0 L 0.0 31.0 L 0.0 32.0 L 0.0 33.0 L 0.0 34.0 L 0.0 35.0 L 0.0 36.0 L 0.0 37.0 L 0.0 38.0 L 0.0 39.0 L 0.0 40.0 L 0.0 41.0 L 0.0 42.0 L 0.0 43.0 L 0.0 44.0 L 0.0 45.0 L 0.0 46.0 L 0.0 47.0 L 0.0 48.0 L 0.0 49.0 L 0.0 50.0 L 0.0 51.0 L 0.0 52.0 L 0.0 53.0 L 0.0 54.0 L 0.0 55.0 L 0.0 56.0 L 0.0 57.0 L 0.0 58.0 L 0.0 59.0 L 0.0 60.0 L 0.0 61.0 L 0.0 62.0 L 0.0 63.0 L 0.0 64.0 L 0.0 65.0 L 0.0 66.0 L 0.0 67.0 L 0.0 68.0 L 0.0 69.0 L 0.0 70.0 L 0.0 71.0 L 0.0 72.0 L 0.0 73.0 L 0.0 74.0 L 0.0 75.0 L 0.0 76.0 L 0.0 77.0 L 0.0 78.0 L 0.0 79.0 L 0.0 80.0 L 0.0 81.0 L 0.0 82.0 L 0.0 83.0 L 0.0 84.0 L 0.0 85.0 L 0.0 86.0 L 0.0 87.0 L 0.0 88.0 L 0.0 89.0 L 0.0 90.0 L 0.0 91.0 L 0.0 92.0 L 0.0 93.0 L 0.0 94.0 L 0.0 95.0 L 0.0 96.0 L 0.0 97.0 L 0.0 98.0 L 0.0 99.0 L 0.0 100.0 L 0.0 101.0 L 0.0 102.0 L 0.0 103.0 L 0.0 104.0 L 0.0 105.0 L 0.0 106.0 L 0.0 107.0 L 0.0 108.0 L 0.0 109.0 L 0.0 110.0 L 0.0 111.0 L 0.0 112.0 L 0.0 113.0 L 0.0 114.0 L 0.0 115.0 L 0.0 116.0 L 0.0 117.0 L 0.0 118.0 L 0.0 119.0 L 0.0 120.0 L 0.0 121.0 L 0.0 122.0 L 0.0 123.0 L 0.0 124.0 L 0.0 125.0 L 0.0 126.0 L 0.0 127.0 L 0.3333333333333333 127.66666666666667 L 1.0 128.0 L 2.0 128.0 L 3.0 128.0 L 4.0 128.0 L 5.0 128.0 L 6.0 128.0 L 7.0 128.0 L 8.0 128.0 L 9.0 128.0 L 10.0 128.0 L 11.0 128.0 L 12.0 128.0 L 13.0 128.0 L 14.0 128.0 L 15.0 128.0 L 16.0 128.0 L 17.0 128.0 L 18.0 128.0 L 19.0 128.0 L 20.0 128.0 L 21.0 128.0 L 22.0 128.0 L 23.0 128.0 L 24.0 128.0 L 25.0 128.0 L 26.0 128.0 L 27.0 128.0 L 28.0 128.0 L 29.0 128.0 L 30.0 128.0 L 31.0 128.0 L 32.0 128.0 L 33.0 128.0 L 34.0 128.0 L 35.0 128.0 L 36.0 128.0 L 37.0 128.0 L 38.0 128.0 L 39.0 128.0 L 40.0 128.0 L 41.0 128.0 L 42.0 128.0 L 43.0 128.0 L 44.0 128.0 L 45.0 128.0 L 46.0 128.0 L 47.0 128.0 L 48.0 128.0 L 49.0 128.0 L 50.0 128.0 L 51.0 128.0 L 52.0 128.0 L 53.0 128.0 L 54.0 128.0 L 55.0 128.0 L 56.0 128.0 L 57.0 128.0 L 58.0 128.0 L 59.0 128.0 L 60.0 128.0 L 61.0 128.0 L 62.0 128.0 L 63.0 128.0 L 64.0 128.0 L 65.0 128.0 L 66.0 128.0 L 67.0 128.0 L 68.0 128.0 L 69.0 128.0 L 70.0 128.0 L 71.0 128.0 L 72.0 128.0 L 73.0 128.0 L 74.0 128.0 L 75.0 128.0 L 76.0 128.0 L 77.0 128.0 L 78.0 128.0 L 79.0 128.0 L 80.0 128.0 L 81.0 128.0 L 82.0 128.0 L 83.0 128.0 L 84.0 128.0 L 85.0 128.0 L 86.0 128.0 L 87.0 128.0 L 87.5 128.0 Z" stroke="none" fill="rgb(0,0,0)" />
<path d="M 23.5 40.0 L 24.0 40.0 L 25.0 40.0 L 26.0 40.0 L 27.0 40.0 L 28.0 40.0 L 29.0 40.0 L 30.0 40.0 L 31.0 40.0 L 32.0 40.0 L 33.0 40.0 L 34.0 40.0 L 35.0 40.0 L 36.0 40.0 L 37.0 39.666666666666664 L 37.666666666666664 39.0 L 38.0 38.0 L 38.0 37.0 L 38.333333333333336 36.0 L 38.666666666666664 35.0 L 39.0 34.0 L 39.0 33.0 L 39.333333333333336 32.0 L 39.666666666666664 31.0 L 40.333333333333336 30.0 L 40.666666666666664 29.0 L 41.333333333333336 28.0 L 42.0 27.0 L 43.0 26.0 L 44.0 25.0 L 45.0 24.0 L 46.0 23.333333333333332 L 47.0 22.666666666666668 L 48.0 22.0 L 49.0 21.333333333333332 L 50.0 20.666666666666668 L 51.0 20.333333333333332 L 52.0 20.0 L 53.0 19.666666666666668 L 54.0 19.333333333333332 L 55.0 19.0 L 56.0 18.666666666666668 L 57.0 18.333333333333332 L 58.0 18.0 L 59.0 18.0 L 60.0 18.0 L 61.0 18.0 L 62.0 18.0 L 63.0 18.0 L 64.0 18.0 L 65.0 18.0 L 66.0 18.0 L 67.0 18.0 L 68.0 18.0 L 69.0 18.0 L 70.0 18.0 L 71.0 18.0 L 72.0 18.0 L 73.0 18.333333333333332 L 74.0 18.666666666666668 L 75.0 19.0 L 76.0 19.333333333333332 L 77.0 19.666666666666668 L 78.0 20.333333333333332 L 79.0 21.0 L 80.0 21.666666666666668 L 81.0 22.333333333333332 L 82.0 23.0 L 83.0 24.0 L 84.0 25.0 L 85.0 26.0 L 86.0 27.0 L 87.0 28.0 L 87.66666666666667 29.0 L 88.0 30.0 L 88.33333333333333 31.0 L 88.66666666666667 32.0 L 89.33333333333333 33.0 L 89.66666666666667 34.0 L 90.0 35.0 L 90.0 36.0 L 90.33333333333333 37.0 L 90.66666666666667 38.0 L 91.0 39.0 L 91.33333333333333 39.666666666666664 L 92.0 40.0 L 93.0 40.0 L 94.0 40.0 L 95.0 40.0 L 96.0 40.0 L 97.0 40.0 L 98.0 40.0 L 99.0 40.0 L 100.0 40.0 L 101.0 40.0 L 102.0 40.0 L 103.0 40.0 L 104.0 40.0 L 105.0 40.0 L 106.0 40.0 L 107.0 40.0 L 107.66666666666667 39.666666666666664 L 108.0 39.0 L 108.0 38.0 L 108.0 37.0 L 108.0 36.0 L 108.0 35.0 L 108.0 34.0 L 108.0 33.0 L 108.0 32.0 L 107.66666666666667 31.333333333333332 L 107.0 31.0 L 106.0 31.0 L 105.0 31.0 L 104.0 31.0 L 103.0 31.0 L 102.0 31.0 L 101.0 31.0 L 100.0 31.0 L 99.0 31.0 L 98.0 31.0 L 97.0 31.0 L 96.0 30.666666666666668 L 95.0 30.0 L 94.33333333333333 29.0 L 94.0 28.0 L 93.66666666666667 27.0 L 93.33333333333333 26.0 L 92.66666666666667 25.0 L 92.0 24.0 L 91.0 23.0 L 90.33333333333333 22.0 L 89.66666666666667 21.0 L 89.0 20.0 L 88.0 19.0 L 87.0 18.333333333333332 L 86.0 17.666666666666668 L 85.0 17.0 L 84.0 16.333333333333332 L 83.0 15.666666666666666 L 82.0 15.333333333333334 L 81.0 14.666666666666666 L 80.0 14.333333333333334 L 79.0 13.666666666666666 L 78.0 13.333333333333334 L 77.0 13.0 L 76.0 13.0 L 75.0 12.666666666666666 L 74.0 12.333333333333334 L 73.0 12.0 L 72.0 12.0 L 71.0 12.0 L 70.0 12.0 L 69.0 12.0 L 68.0 12.0 L 67.0 11.666666666666666 L 66.0 11.333333333333334 L 65.0 11.0 L 64.0 11.0 L 63.0 11.333333333333334 L 62.0 11.666666666666666 L 61.0 12.0 L 60.0 12.0 L 59.0 12.0 L 58.0 12.0 L 57.0 12.0 L 56.0 12.0 L 55.0 12.0 L 54.0 12.333333333333334 L 53.0 12.666666666666666 L 52.0 13.0 L 51.0 13.333333333333334 L 50.0 13.666666666666666 L 49.0 14.0 L 48.0 14.333333333333334 L 47.0 14.666666666666666 L 46.0 15.333333333333334 L 45.0 15.666666666666666 L 44.0 16.333333333333332 L 43.0 17.0 L 42.0 18.0 L 41.0 18.666666666666668 L 40.0 19.333333333333332 L 39.333333333333336 20.0 L 38.666666666666664 21.0 L 38.0 22.0 L 37.0 23.0 L 36.333333333333336 24.0 L 35.666666666666664 25.0 L 35.333333333333336 26.0 L 34.666666666666664 27.0 L 34.333333333333336 28.0 L 34.0 29.0 L 33.666666666666664 30.0 L 33.0 30.666666666666668 L 32.0 31.0 L 31.0 31.0 L 30.0 31.0 L 29.0 31.0 L 28.0 31.0 L 27.0 31.0 L 26.0 31.0 L 25.0 31.0 L 24.0 31.0 L 23.0 31.0 L 22.0 31.0 L 21.0 31.0 L 20.333333333333332 31.333333333333332 L 20.0 32.0 L 20.0 33.0 L 20.0 34.0 L 20.0 35.0 L 20.0 36.0 L 20.0 37.0 L 20.0 38.0 L 20.0 39.0 L 20.333333333333332 39.666666666666664 L 21.0 40.0 L 22.0 40.0 L 22.5 40.0 Z" stroke="none" fill="rgb(250,219,188)" />
<path d="M 6.5 52.5 L 6.666666666666667 53.0 L 7.0 54.0 L 7.0 55.0 L 7.0 56.0 L 7.0 57.0 L 7.0 58.0 L 7.0 59.0 L 7.0 60.0 L 7.0 61.0 L 7.0 62.0 L 7.0 63.0 L 7.0 64.0 L 7.0 65.0 L 7.0 66.0 L 7.0 67.0 L 7.0 68.0 L 7.0 69.0 L 7.0 70.0 L 7.0 71.0 L 7.0 72.0 L 7.0 73.0 L 7.0 74.0 L 7.0 75.0 L 7.0 76.0 L 7.0 77.0 L 7.0 78.0 L 7.0 79.0 L 7.0 80.0 L 7.0 81.0 L 7.0 82.0 L 7.0 83.0 L 7.0 84.0 L 7.0 85.0 L 7.0 86.0 L 7.0 87.0 L 7.0 88.0 L 7.0 89.0 L 7.0 90.0 L 7.0 91.0 L 7.0 92.0 L 7.0 93.0 L 7.0 94.0 L 7.0 95.0 L 7.0 96.0 L 7.0 97.0 L 7.0 98.0 L 7.0 99.0 L 7.0 100.0 L 7.0 101.0 L 7.0 102.0 L 7.0 103.0 L 7.0 104.0 L 7.0 105.0 L 7.0 106.0 L 7.0 107.0 L 7.0 108.0 L 7.0 109.0 L 7.0 110.0 L 7.0 111.0 L 7.0 112.0 L 7.0 113.0 L 7.0 114.0 L 7.0 115.0 L 7.0 116.0 L 7.0 117.0 L 7.0 118.0 L 7.0 119.0 L 7.0 120.0 L 7.0 121.0 L 7.0 122.0 L 7.0 123.0 L 7.333333333333333 123.66666666666667 L 8.0 124.0 L 9.0 124.0 L 10.0 124.0 L 10.666666666666666 123.66666666666667 L 11.0 123.0 L 11.0 122.0 L 11.0 121.0 L 11.0 120.0 L 11.0 119.0 L 11.333333333333334 118.0 L 11.666666666666666 117.0 L 12.0 116.0 L 11.666666666666666 115.0 L 11.333333333333334 114.0 L 11.0 113.0 L 11.0 112.0 L 11.0 111.0 L 11.0 110.0 L 11.0 109.0 L 11.333333333333334 108.0 L 11.666666666666666 107.0 L 12.333333333333334 106.0 L 13.0 105.0 L 14.0 104.33333333333333 L 15.0 104.33333333333333 L 16.0 105.0 L 17.0 106.0 L 17.666666666666668 107.0 L 18.0 108.0 L 18.0 109.0 L 18.0 110.0 L 18.0 111.0 L 18.0 112.0 L 18.0 113.0 L 18.0 114.0 L 17.666666666666668 115.0 L 17.333333333333332 116.0 L 17.333333333333332 117.0 L 17.666666666666668 118.0 L 18.0 119.0 L 18.0 120.0 L 18.0 121.0 L 18.0 122.0 L 18.0 123.0 L 18.333333333333332 123.66666666666667 L 19.0 124.0 L 20.0 123.66666666666667 L 20.666666666666668 123.0 L 21.0 122.0 L 21.0 121.0 L 21.0 120.0 L 21.0 119.0 L 21.0 118.0 L 21.0 117.0 L 21.0 116.0 L 21.0 115.0 L 21.0 114.0 L 21.0 113.0 L 21.0 112.0 L 21.0 111.0 L 21.0 110.0 L 21.0 109.0 L 21.0 108.0 L 21.0 107.0 L 21.0 106.0 L 21.0 105.0 L 21.0 104.0 L 21.0 103.0 L 21.0 102.0 L 20.666666666666668 101.0 L 20.0 100.33333333333333 L 19.0 100.0 L 18.0 100.0 L 17.0 100.0 L 16.0 100.0 L 15.0 100.0 L 14.0 100.0 L 13.0 100.0 L 12.0 100.0 L 11.0 99.66666666666667 L 10.333333333333334 99.0 L 10.0 98.0 L 10.0 97.0 L 10.0 96.0 L 10.0 95.0 L 10.0 94.0 L 10.0 93.0 L 10.0 92.0 L 10.0 91.0 L 10.0 90.0 L 10.0 89.0 L 10.0 88.0 L 10.0 87.0 L 10.0 86.0 L 10.0 85.0 L 10.0 84.0 L 10.0 83.0 L 10.0 82.0 L 10.0 81.0 L 10.0 80.0 L 10.0 79.0 L 10.0 78.0 L 10.0 77.0 L 10.0 76.0 L 10.0 75.0 L 10.0 74.0 L 10.0 73.0 L 10.0 72.0 L 10.0 71.0 L 10.0 70.0 L 10.0 69.0 L 10.0 68.0 L 10.0 67.0 L 10.0 66.0 L 10.0 65.0 L 10.0 64.0 L 10.0 63.0 L 10.0 62.0 L 10.0 61.0 L 10.0 60.0 L 10.0 59.0 L 10.0 58.0 L 10.333333333333334 57.0 L 11.0 56.333333333333336 L 12.0 56.0 L 13.0 56.0 L 14.0 56.0 L 15.0 56.0 L 16.0 56.0 L 17.0 56.0 L 18.0 56.0 L 19.0 56.333333333333336 L 19.666666666666668 57.0 L 20.0 58.0 L 20.0 59.0 L 20.0 60.0 L 20.0 61.0 L 20.0 62.0 L 20.0 63.0 L 20.0 64.0 L 20.0 65.0 L 20.0 66.0 L 20.0 67.0 L 20.0 68.0 L 20.0 69.0 L 20.0 70.0 L 20.0 71.0 L 20.0 72.0 L 20.0 73.0 L 20.0 74.0 L 20.0 75.0 L 20.0 76.0 L 20.0 77.0 L 20.0 78.0 L 20.0 79.0 L 20.0 80.0 L 20.0 81.0 L 20.0 82.0 L 20.0 83.0 L 20.0 84.0 L 20.0 85.0 L 20.333333333333332 86.0 L 21.0 86.66666666666667 L 22.0 87.0 L 22.666666666666668 86.66666666666667 L 23.0 86.0 L 23.0 85.0 L 23.0 84.0 L 23.0 83.0 L 23.0 82.0 L 23.0 81.0 L 23.0 80.0 L 23.0 79.0 L 23.0 78.0 L 23.0 77.0 L 23.0 76.0 L 23.0 75.0 L 23.0 74.0 L 23.0 73.0 L 23.0 72.0 L 23.0 71.0 L 23.0 70.0 L 23.0 69.0 L 23.0 68.0 L 23.0 67.0 L 23.0 66.0 L 23.0 65.0 L 23.0 64.0 L 23.0 63.0 L 23.0 62.0 L 23.0 61.0 L 23.0 60.0 L 23.0 59.0 L 23.0 58.0 L 23.0 57.0 L 23.0 56.0 L 23.0 55.0 L 23.0 54.0 L 23.0 53.0 L 23.0 52.0 L 23.0 51.0 L 23.0 50.0 L 23.0 49.0 L 23.0 48.0 L 23.0 47.0 L 23.333333333333332 46.0 L 24.0 45.333333333333336 L 25.0 45.0 L 26.0 45.0 L 27.0 45.0 L 28.0 45.0 L 29.0 45.0 L 30.0 45.0 L 31.0 45.0 L 32.0 45.0 L 33.0 45.0 L 34.0 45.0 L 35.0 45.333333333333336 L 36.0 45.666666666666664 L 37.0 45.666666666666664 L 38.0 45.333333333333336 L 39.0 45.0 L 40.0 45.0 L 41.0 45.0 L 42.0 45.0 L 42.666666666666664 44.666666666666664 L 43.0 44.0 L 43.0 43.0 L 43.0 42.0 L 43.0 41.0 L 43.0 40.0 L 43.0 39.0 L 43.333333333333336 38.0 L 43.666666666666664 37.0 L 44.0 36.0 L 44.333333333333336 35.0 L 44.666666666666664 34.0 L 45.0 33.0 L 45.333333333333336 32.0 L 46.0 31.0 L 47.0 30.0 L 48.0 29.0 L 49.0 28.0 L 50.0 27.0 L 51.0 26.0 L 52.0 25.333333333333332 L 53.0 24.666666666666668 L 54.0 24.333333333333332 L 55.0 24.0 L 56.0 23.666666666666668 L 57.0 23.333333333333332 L 58.0 23.0 L 59.0 23.0 L 60.0 23.0 L 61.0 23.0 L 62.0 22.666666666666668 L 63.0 22.333333333333332 L 64.0 22.0 L 65.0 22.0 L 66.0 22.0 L 67.0 22.0 L 68.0 22.0 L 69.0 22.333333333333332 L 70.0 22.666666666666668 L 71.0 23.0 L 72.0 23.333333333333332 L 73.0 23.666666666666668 L 74.0 24.333333333333332 L 75.0 24.666666666666668 L 76.0 25.333333333333332 L 77.0 26.0 L 78.0 27.0 L 79.0 28.0 L 80.0 29.0 L 81.0 30.0 L 82.0 31.0 L 82.66666666666667 32.0 L 83.33333333333333 33.0 L 83.66666666666667 34.0 L 84.33333333333333 35.0 L 84.66666666666667 36.0 L 85.0 37.0 L 85.0 38.0 L 85.0 39.0 L 85.0 40.0 L 85.33333333333333 41.0 L 85.66666666666667 42.0 L 86.0 43.0 L 86.33333333333333 44.0 L 87.0 44.666666666666664 L 88.0 45.0 L 89.0 45.0 L 90.0 45.0 L 91.0 45.333333333333336 L 92.0 45.666666666666664 L 93.0 45.666666666666664 L 94.0 45.333333333333336 L 95.0 45.333333333333336 L 96.0 46.0 L 97.0 46.666666666666664 L 98.0 47.0 L 99.0 47.0 L 100.0 47.0 L 101.0 47.0 L 102.0 47.0 L 102.66666666666667 46.666666666666664 L 103.33333333333333 46.0 L 104.0 45.666666666666664 L 104.66666666666667 46.0 L 105.0 47.0 L 105.0 48.0 L 105.0 49.0 L 105.0 50.0 L 105.0 51.0 L 105.0 52.0 L 105.0 53.0 L 105.0 54.0 L 105.0 55.0 L 105.0 56.0 L 105.0 57.0 L 105.0 58.0 L 105.0 59.0 L 105.0 60.0 L 105.0 61.0 L 105.0 62.0 L 105.0 63.0 L 105.0 64.0 L 105.0 65.0 L 105.0 66.0 L 105.0 67.0 L 105.0 68.0 L 105.0 69.0 L 105.0 70.0 L 105.0 71.0 L 105.0 72.0 L 105.0 73.0 L 105.0 74.0 L 105.0 75.0 L 105.0 76.0 L 105.0 77.0 L 105.0 78.0 L 105.0 79.0 L 105.0 80.0 L 105.0 81.0 L 105.0 82.0 L 105.0 83.0 L 105.0 84.0 L 105.0 85.0 L 105.0 86.0 L 105.33333333333333 86.66666666666667 L 106.0 87.0 L 107.0 87.0 L 107.66666666666667 86.66666666666667 L 108.0 86.0 L 108.0 85.0 L 108.0 84.0 L 108.0 83.0 L 108.0 82.0 L 108.0 81.0 L 108.0 80.0 L 108.0 79.0 L 108.0 78.0 L 108.0 77.0 L 108.0 76.0 L 108.0 75.0 L 108.0 74.0 L 108.0 73.0 L 108.0 72.0 L 108.0 71.0 L 108.0 70.0 L 108.0 69.0 L 108.0 68.0 L 108.0 67.0 L 108.0 66.0 L 108.0 65.0 L 108.0 64.0 L 108.0 63.0 L 108.0 62.0 L 108.0 61.0 L 108.0 60.0 L 108.0 59.0 L 108.33333333333333 58.0 L 109.0 57.333333333333336 L 110.0 57.0 L 111.0 57.0 L 112.0 57.0 L 113.0 57.0 L 114.0 57.0 L 115.0 57.0 L 116.0 57.0 L 117.0 57.333333333333336 L 117.66666666666667 58.0 L 118.0 59.0 L 118.0 60.0 L 118.0 61.0 L 118.0 62.0 L 118.0 63.0 L 118.0 64.0 L 118.0 65.0 L 118.0 66.0 L 118.0 67.0 L 118.0 68.0 L 118.0 69.0 L 118.0 70.0 L 118.0 71.0 L 118.0 72.0 L 118.0 73.0 L 118.0 74.0 L 118.0 75.0 L 118.0 76.0 L 118.0 77.0 L 118.0 78.0 L 118.0 79.0 L 118.0 80.0 L 118.0 81.0 L 118.0 82.0 L 118.0 83.0 L 118.0 84.0 L 118.0 85.0 L 118.0 86.0 L 118.0 87.0 L 118.0 88.0 L 118.0 89.0 L 118.0 90.0 L 118.0 91.0 L 118.0 92.0 L 118.0 93.0 L 118.0 94.0 L 118.0 95.0 L 118.0 96.0 L 118.0 97.0 L 118.0 98.0 L 117.66666666666667 99.0 L 117.0 99.66666666666667 L 116.0 100.0 L 115.0 100.0 L 114.0 100.0 L 113.0 100.0 L 112.0 100.0 L 111.0 100.0 L 110.0 100.33333333333333 L 109.0 100.66666666666667 L 108.33333333333333 101.33333333333333 L 108.0 102.0 L 108.0 103.0 L 108.0 104.0 L 108.0 105.0 L 108.0 106.0 L 108.0 107.0 L 108.0 108.0 L 108.0 109.0 L 108.0 110.0 L 108.0 111.0 L 108.0 112.0 L 108.0 113.0 L 108.0 114.0 L 108.0 115.0 L 108.0 116.0 L 108.0 117.0 L 108.0 118.0 L 108.0 119.0 L 108.0 120.0 L 108.0 121.0 L 108.0 122.0 L 108.0 123.0 L 108.33333333333333 123.66666666666667 L 109.0 124.0 L 109.66666666666667 123.66666666666667 L 110.0 123.0 L 110.0 122.0 L 110.0 121.0 L 110.0 120.0 L 110.0 119.0 L 110.0 118.0 L 110.33333333333333 117.0 L 110.66666666666667 116.0 L 110.66666666666667 115.0 L 110.33333333333333 114.0 L 110.0 113.0 L 110.0 112.0 L 110.0 111.0 L 110.0 110.0 L 110.0 109.0 L 110.33333333333333 108.0 L 110.66666666666667 107.0 L 111.33333333333333 106.0 L 112.0 105.0 L 113.0 104.33333333333333 L 114.0 104.33333333333333 L 115.0 105.0 L 116.0 106.0 L 116.66666666666667 107.0 L 117.33333333333333 108.0 L 117.66666666666667 109.0 L 118.0 110.0 L 118.0 111.0 L 118.0 112.0 L 118.0 113.0 L 117.66666666666667 114.0 L 117.33333333333333 115.0 L 117.0 116.0 L 117.0 117.0 L 117.0 118.0 L 117.0 119.0 L 117.0 120.0 L 117.0 121.0 L 117.0 122.0 L 117.0 123.0 L 117.33333333333333 123.66666666666667 L 118.0 124.0 L 119.0 124.0 L 120.0 124.0 L 120.66666666666667 123.66666666666667 L 121.0 123.0 L 121.0 122.0 L 121.0 121.0 L 121.0 120.0 L 121.0 119.0 L 121.0 118.0 L 121.0 117.0 L 121.0 116.0 L 121.0 115.0 L 121.0 114.0 L 121.0 113.0 L 121.0 112.0 L 121.0 111.0 L 121.0 110.0 L 121.0 109.0 L 121.0 108.0 L 121.0 107.0 L 121.0 106.0 L 121.0 105.0 L 121.0 104.0 L 121.0 103.0 L 121.0 102.0 L 121.0 101.0 L 121.0 100.0 L 121.0 99.0 L 121.0 98.0 L 121.0 97.0 L 121.0 96.0 L 121.0 95.0 L 121.0 94.0 L 121.0 93.0 L 121.0 92.0 L 121.0 91.0 L 121.0 90.0 L 121.0 89.0 L 121.0 88.0 L 121.0 87.0 L 121.0 86.0 L 121.0 85.0 L 121.0 84.0 L 121.0 83.0 L 121.0 82.0 L 121.0 81.0 L 121.0 80.0 L 121.0 79.0 L 121.0 78.0 L 121.0 77.0 L 121.0 76.0 L 121.0 75.0 L 121.0 74.0 L 121.0 73.0 L 121.0 72.0 L 121.0 71.0 L 121.0 70.0 L 121.0 69.0 L 121.0 68.0 L 121.0 67.0 L 121.0 66.0 L 121.0 65.0 L 121.0 64.0 L 121.0 63.0 L 121.0 62.0 L 121.0 61.0 L 121.0 60.0 L 121.0 59.0 L 121.0 58.0 L 121.0 57.0 L 121.0 56.0 L 121.0 55.0 L 121.0 54.0 L 121.33333333333333 53.0 L 121.66666666666667 52.0 L 122.33333333333333 51.0 L 123.0 50.0 L 123.66666666666667 49.0 L 124.33333333333333 48.0 L 125.0 47.0 L 125.66666666666667 46.0 L 126.0 45.0 L 126.0 44.0 L 125.66666666666667 43.333333333333336 L 125.0 43.0 L 124.0 43.333333333333336 L 123.0 43.666666666666664 L 122.33333333333333 44.333333333333336 L 121.66666666666667 45.0 L 121.0 46.0 L 120.33333333333333 47.0 L 119.66666666666667 48.0 L 119.0 49.0 L 118.0 50.0 L 117.0 50.666666666666664 L 116.0 51.0 L 115.0 51.0 L 114.0 51.0 L 113.0 51.0 L 112.0 51.0 L 111.0 51.0 L 110.0 51.0 L 109.0 50.666666666666664 L 108.33333333333333 50.0 L 108.0 49.0 L 108.0 48.0 L 108.0 47.0 L 108.0 46.0 L 108.0 45.0 L 108.0 44.0 L 108.0 43.0 L 108.0 42.0 L 108.0 41.0 L 107.66666666666667 40.333333333333336 L 107.0 40.0 L 106.0 40.0 L 105.0 40.0 L 104.0 40.0 L 103.0 40.0 L 102.0 40.0 L 101.0 40.0 L 100.0 40.0 L 99.0 40.0 L 98.0 40.0 L 97.0 40.0 L 96.0 40.0 L 95.0 40.0 L 94.0 40.0 L 93.0 40.0 L 92.0 39.666666666666664 L 91.33333333333333 39.0 L 91.0 38.0 L 90.66666666666667 37.0 L 90.33333333333333 36.0 L 90.0 35.0 L 90.0 34.0 L 89.66666666666667 33.0 L 89.33333333333333 32.0 L 88.66666666666667 31.0 L 88.33333333333333 30.0 L 88.0 29.0 L 87.66666666666667 28.0 L 87.0 27.0 L 86.0 26.0 L 85.0 25.0 L 84.0 24.0 L 83.0 23.0 L 82.0 22.333333333333332 L 81.0 21.666666666666668 L 80.0 21.0 L 79.0 20.333333333333332 L 78.0 19.666666666666668 L 77.0 19.333333333333332 L 76.0 19.0 L 75.0 18.666666666666668 L 74.0 18.333333333333332 L 73.0 18.0 L 72.0 18.0 L 71.0 18.0 L 70.0 18.0 L 69.0 18.0 L 68.0 18.0 L 67.0 18.0 L 66.0 18.0 L 65.0 18.0 L 64.0 18.0 L 63.0 18.0 L 62.0 18.0 L 61.0 18.0 L 60.0 18.0 L 59.0 18.0 L 58.0 18.0 L 57.0 18.0 L 56.0 18.333333333333332 L 55.0 18.666666666666668 L 54.0 19.0 L 53.0 19.333333333333332 L 52.0 19.666666666666668 L 51.0 20.0 L 50.0 20.333333333333332 L 49.0 20.666666666666668 L 48.0 21.333333333333332 L 47.0 22.0 L 46.0 22.666666666666668 L 45.0 23.333333333333332 L 44.0 24.0 L 43.0 25.0 L 42.0 26.0 L 41.333333333333336 27.0 L 40.666666666666664 28.0 L 40.333333333333336 29.0 L 39.666666666666664 30.0 L 39.333333333333336 31.0 L 39.0 32.0 L 39.0 33.0 L 38.666666666666664 34.0 L 38.333333333333336 35.0 L 38.0 36.0 L 38.0 37.0 L 37.666666666666664 38.0 L 37.0 39.0 L 36.0 39.666666666666664 L 35.0 40.0 L 34.0 40.0 L 33.0 40.0 L 32.0 40.0 L 31.0 40.0 L 30.0 40.0 L 29.0 40.0 L 28.0 40.0 L 27.0 40.0 L 26.0 40.0 L 25.0 40.0 L 24.0 40.0 L 23.0 40.0 L 22.0 40.0 L 21.0 40.0 L 20.333333333333332 40.333333333333336 L 20.0 41.0 L 20.0 42.0 L 20.0 43.0 L 20.0 44.0 L 20.0 45.0 L 20.0 46.0 L 20.0 47.0 L 20.0 48.0 L 20.0 49.0 L 19.666666666666668 50.0 L 19.0 50.666666666666664 L 18.0 51.0 L 17.0 51.0 L 16.0 51.0 L 15.0 51.0 L 14.0 51.0 L 13.0 51.0 L 12.0 51.0 L 11.0 50.666666666666664 L 10.0 50.0 L 9.0 49.0 L 8.333333333333334 48.0 L 7.666666666666667 47.0 L 7.333333333333333 46.0 L 6.666666666666667 45.0 L 6.0 44.333333333333336 L 5.0 43.666666666666664 L 4.0 43.333333333333336 L 3.0 43.0 L 2.3333333333333335 43.333333333333336 L 2.0 44.0 L 2.3333333333333335 45.0 L 2.6666666666666665 46.0 L 3.3333333333333335 47.0 L 4.0 48.0 L 4.666666666666667 49.0 L 5.333333333333333 50.0 L 5.666666666666667 51.0 L 6.0 51.5 Z" stroke="none" fill="rgb(185,146,119)" />
<path d="M 59.5 87.0 L 60.0 87.0 L 61.0 87.0 L 62.0 87.0 L 63.0 87.0 L 64.0 87.0 L 65.0 87.0 L 66.0 87.0 L 67.0 87.0 L 68.0 87.0 L 69.0 87.0 L 70.0 87.0 L 71.0 87.0 L 72.0 87.0 L 73.0 87.0 L 74.0 87.0 L 75.0 87.0 L 76.0 87.0 L 77.0 87.0 L 78.0 87.0 L 79.0 87.0 L 80.0 87.0 L 81.0 87.0 L 82.0 87.0 L 83.0 87.0 L 84.0 87.0 L 85.0 87.0 L 85.66666666666667 86.66666666666667 L 86.0 86.0 L 86.0 85.0 L 86.0 84.0 L 86.0 83.0 L 86.0 82.0 L 86.0 81.0 L 86.0 80.0 L 86.0 79.0 L 86.0 78.0 L 86.0 77.0 L 86.0 76.0 L 86.0 75.0 L 86.0 74.0 L 86.0 73.0 L 86.0 72.0 L 86.0 71.0 L 86.0 70.0 L 86.0 69.0 L 86.0 68.0 L 86.0 67.0 L 86.0 66.0 L 86.0 65.0 L 86.0 64.0 L 86.0 63.0 L 86.0 62.0 L 86.0 61.0 L 86.0 60.0 L 86.0 59.0 L 86.0 58.0 L 86.0 57.0 L 86.0 56.0 L 86.0 55.0 L 86.0 54.0 L 86.0 53.0 L 86.0 52.0 L 86.0 51.0 L 86.0 50.0 L 86.0 49.0 L 86.0 48.0 L 86.0 47.0 L 86.33333333333333 46.0 L 86.66666666666667 45.0 L 86.66666666666667 44.0 L 86.33333333333333 43.0 L 86.0 42.0 L 85.66666666666667 41.0 L 85.33333333333333 40.0 L 85.0 39.0 L 85.0 38.0 L 85.0 37.0 L 85.0 36.0 L 84.66666666666667 35.0 L 84.33333333333333 34.0 L 83.66666666666667 33.0 L 83.33333333333333 32.0 L 82.66666666666667 31.0 L 82.0 30.0 L 81.0 29.0 L 80.0 28.0 L 79.0 27.0 L 78.0 26.0 L 77.0 25.333333333333332 L 76.0 24.666666666666668 L 75.0 24.333333333333332 L 74.0 23.666666666666668 L 73.0 23.333333333333332 L 72.0 23.0 L 71.0 22.666666666666668 L 70.0 22.333333333333332 L 69.0 22.0 L 68.0 22.0 L 67.0 22.0 L 66.0 22.0 L 65.0 22.0 L 64.0 22.0 L 63.0 22.0 L 62.0 22.333333333333332 L 61.0 22.666666666666668 L 60.0 23.0 L 59.0 23.0 L 58.0 23.0 L 57.0 23.0 L 56.0 23.333333333333332 L 55.0 23.666666666666668 L 54.0 24.0 L 53.0 24.333333333333332 L 52.0 24.666666666666668 L 51.0 25.333333333333332 L 50.0 26.0 L 49.0 27.0 L 48.0 28.0 L 47.0 29.0 L 46.0 30.0 L 45.333333333333336 31.0 L 45.0 32.0 L 44.666666666666664 33.0 L 44.333333333333336 34.0 L 44.0 35.0 L 43.666666666666664 36.0 L 43.333333333333336 37.0 L 43.0 38.0 L 43.0 39.0 L 43.0 40.0 L 43.0 41.0 L 43.0 42.0 L 43.0 43.0 L 42.666666666666664 44.0 L 42.333333333333336 45.0 L 42.0 46.0 L 42.0 47.0 L 42.0 48.0 L 42.0 49.0 L 42.0 50.0 L 42.0 51.0 L 42.0 52.0 L 42.0 53.0 L 42.0 54.0 L 42.0 55.0 L 42.0 56.0 L 42.0 57.0 L 42.0 58.0 L 42.0 59.0 L 42.0 60.0 L 42.0 61.0 L 42.0 62.0 L 42.0 63.0 L 42.0 64.0 L 42.0 65.0 L 42.0 66.0 L 42.0 67.0 L 42.0 68.0 L 42.0 69.0 L 42.0 70.0 L 42.0 71.0 L 42.0 72.0 L 42.0 73.0 L 42.0 74.0 L 42.0 75.0 L 42.0 76.0 L 42.0 77.0 L 42.0 78.0 L 42.0 79.0 L 42.0 80.0 L 42.0 81.0 L 42.0 82.0 L 42.0 83.0 L 42.0 84.0 L 42.0 85.0 L 42.333333333333336 86.0 L 43.0 86.66666666666667 L 44.0 87.0 L 45.0 87.0 L 46.0 87.0 L 47.0 87.0 L 48.0 87.0 L 49.0 87.0 L 50.0 87.0 L 51.0 87.0 L 52.0 87.0 L 53.0 87.0 L 54.0 87.0 L 55.0 87.0 L 56.0 87.0 L 57.0 87.0 L 58.0 87.0 L 58.5 87.0 Z" stroke="none" fill="rgb(226,192,144)" />
<path d="M 53.5 83.0 L 54.0 83.0 L 55.0 83.0 L 55.666666666666664 82.66666666666667 L 56.0 82.0 L 56.0 81.0 L 56.0 80.0 L 56.0 79.0 L 56.0 78.0 L 56.0 77.0 L 56.0 76.0 L 56.0 75.0 L 56.0 74.0 L 56.0 73.0 L 56.0 72.0 L 56.0 71.0 L 56.0 70.0 L 56.0 69.0 L 56.0 68.0 L 56.333333333333336 67.0 L 57.0 66.33333333333333 L 58.0 66.0 L 59.0 66.0 L 60.0 66.0 L 61.0 66.0 L 62.0 66.0 L 63.0 66.0 L 64.0 66.0 L 65.0 66.0 L 66.0 66.0 L 67.0 66.0 L 68.0 66.0 L 69.0 66.0 L 70.0 66.0 L 71.0 66.0 L 72.0 66.33333333333333 L 72.66666666666667 67.0 L 73.0 68.0 L 73.0 69.0 L 73.0 70.0 L 73.0 71.0 L 73.0 72.0 L 73.0 73.0 L 73.0 74.0 L 73.0 75.0 L 73.0 76.0 L 73.0 77.0 L 73.0 78.0 L 73.0 79.0 L 73.0 80.0 L 73.0 81.0 L 73.0 82.0 L 73.33333333333333 82.66666666666667 L 74.0 83.0 L 75.0 83.0 L 76.0 83.0 L 77.0 83.0 L 78.0 83.0 L 79.0 83.0 L 80.0 83.0 L 80.66666666666667 82.66666666666667 L 81.0 82.0 L 81.0 81.0 L 81.0 80.0 L 81.0 79.0 L 81.0 78.0 L 81.0 77.0 L 81.0 76.0 L 81.0 75.0 L 81.0 74.0 L 81.0 73.0 L 81.0 72.0 L 81.0 71.0 L 81.0 70.0 L 81.0 69.0 L 81.0 68.0 L 81.0 67.0 L 81.0 66.0 L 81.0 65.0 L 81.0 64.0 L 81.0 63.0 L 81.0 62.0 L 81.0 61.0 L 81.0 60.0 L 81.0 59.0 L 81.0 58.0 L 81.0 57.0 L 81.0 56.0 L 81.0 55.0 L 81.0 54.0 L 81.0 53.0 L 81.0 52.0 L 81.0 51.0 L 81.0 50.0 L 81.0 49.0 L 81.0 48.0 L 81.0 47.0 L 81.0 46.0 L 81.0 45.0 L 81.0 44.0 L 81.0 43.0 L 81.0 42.0 L 81.0 41.0 L 81.0 40.0 L 81.0 39.0 L 80.66666666666667 38.333333333333336 L 80.0 38.0 L 79.0 38.0 L 78.0 38.0 L 77.0 38.0 L 76.0 38.0 L 75.0 38.0 L 74.0 38.0 L 73.33333333333333 38.333333333333336 L 73.0 39.0 L 73.0 40.0 L 73.0 41.0 L 73.0 42.0 L 73.0 43.0 L 73.0 44.0 L 73.0 45.0 L 73.0 46.0 L 73.0 47.0 L 73.0 48.0 L 73.0 49.0 L 73.0 50.0 L 73.0 51.0 L 73.0 52.0 L 73.0 53.0 L 73.0 54.0 L 72.66666666666667 55.0 L 72.0 55.666666666666664 L 71.0 56.0 L 70.0 56.0 L 69.0 56.0 L 68.0 56.0 L 67.0 56.0 L 66.0 56.0 L 65.0 56.0 L 64.0 56.0 L 63.0 56.0 L 62.0 56.0 L 61.0 56.0 L 60.0 56.0 L 59.0 56.0 L 58.0 56.0 L 57.0 55.666666666666664 L 56.0 55.0 L 55.333333333333336 54.0 L 55.0 53.0 L 55.0 52.0 L 55.0 51.0 L 55.0 50.0 L 55.0 49.0 L 55.0 48.0 L 55.0 47.0 L 55.0 46.0 L 55.0 45.0 L 55.0 44.0 L 55.0 43.0 L 55.0 42.0 L 55.0 41.0 L 55.0 40.0 L 55.0 39.0 L 54.666666666666664 38.333333333333336 L 54.0 38.0 L 53.0 38.0 L 52.0 38.0 L 51.0 38.0 L 50.0 38.0 L 49.0 38.0 L 48.0 38.0 L 47.333333333333336 38.333333333333336 L 47.0 39.0 L 47.0 40.0 L 47.0 41.0 L 47.0 42.0 L 47.0 43.0 L 47.0 44.0 L 47.0 45.0 L 47.0 46.0 L 47.0 47.0 L 47.0 48.0 L 47.0 49.0 L 47.0 50.0 L 47.0 51.0 L 47.0 52.0 L 47.0 53.0 L 47.0 54.0 L 47.0 55.0 L 47.0 56.0 L 47.0 57.0 L 47.0 58.0 L 47.0 59.0 L 47.0 60.0 L 47.0 61.0 L 47.0 62.0 L 47.0 63.0 L 47.0 64.0 L 47.0 65.0 L 47.0 66.0 L 47.0 67.0 L 47.0 68.0 L 47.0 69.0 L 47.0 70.0 L 47.0 71.0 L 47.0 72.0 L 47.0 73.0 L 47.0 74.0 L 47.0 75.0 L 47.0 76.0 L 47.0 77.0 L 47.0 78.0 L 47.0 79.0 L 47.0 80.0 L 47.0 81.0 L 47.0 82.0 L 47.333333333333336 82.66666666666667 L 48.0 83.0 L 49.0 83.0 L 50.0 83.0 L 51.0 83.0 L 52.0 83.0 L 52.5 83.0 Z" stroke="none" fill="rgb(108,21,7)" />
<path d="M 10.5 51.0 L 11.0 51.0 L 12.0 51.0 L 13.0 51.0 L 14.0 51.0 L 15.0 51.0 L 16.0 51.0 L 17.0 51.0 L 18.0 51.0 L 19.0 51.0 L 19.666666666666668 50.666666666666664 L 20.0 50.0 L 20.0 49.0 L 20.0 48.0 L 20.0 47.0 L 20.0 46.0 L 20.0 45.0 L 20.0 44.0 L 19.666666666666668 43.333333333333336 L 19.0 43.0 L 18.0 43.0 L 17.0 43.0 L 16.0 43.0 L 15.0 43.0 L 14.0 43.0 L 13.0 43.0 L 12.0 43.0 L 11.0 43.0 L 10.0 43.0 L 9.0 43.0 L 8.0 43.0 L 7.0 43.0 L 6.333333333333333 43.333333333333336 L 6.0 44.0 L 6.333333333333333 45.0 L 6.666666666666667 46.0 L 7.333333333333333 47.0 L 7.666666666666667 48.0 L 8.333333333333334 49.0 L 9.0 50.0 L 9.5 50.5 Z" stroke="none" fill="rgb(250,219,188)" />
<path d="M 116.5 51.0 L 117.0 51.0 L 118.0 50.666666666666664 L 119.0 50.0 L 119.66666666666667 49.0 L 120.33333333333333 48.0 L 121.0 47.0 L 121.66666666666667 46.0 L 122.0 45.0 L 122.0 44.0 L 121.66666666666667 43.333333333333336 L 121.0 43.0 L 120.0 43.0 L 119.0 43.0 L 118.0 43.0 L 117.0 43.0 L 116.0 43.0 L 115.0 43.0 L 114.0 43.0 L 113.0 43.0 L 112.0 43.0 L 111.0 43.0 L 110.0 43.0 L 109.0 43.0 L 108.33333333333333 43.333333333333336 L 108.0 44.0 L 108.0 45.0 L 108.0 46.0 L 108.0 47.0 L 108.0 48.0 L 108.0 49.0 L 108.0 50.0 L 108.33333333333333 50.666666666666664 L 109.0 51.0 L 110.0 51.0 L 111.0 51.0 L 112.0 51.0 L 113.0 51.0 L 114.0 51.0 L 115.0 51.0 L 115.5 51.0 Z" stroke="none" fill="rgb(250,219,188)" />
<path d="M 23.5 87.0 L 24.0 87.0 L 25.0 87.0 L 26.0 87.0 L 27.0 87.0 L 28.0 87.0 L 29.0 87.0 L 30.0 87.0 L 31.0 87.0 L 32.0 87.0 L 33.0 87.0 L 34.0 87.0 L 35.0 87.0 L 36.0 87.0 L 36.666666666666664 86.66666666666667 L 37.0 86.0 L 37.0 85.0 L 37.0 84.0 L 37.0 83.0 L 37.0 82.0 L 37.0 81.0 L 37.0 80.0 L 37.0 79.0 L 37.0 78.0 L 37.0 77.0 L 37.0 76.0 L 37.0 75.0 L 37.0 74.0 L 37.0 73.0 L 37.0 72.0 L 37.0 71.0 L 37.0 70.0 L 37.0 69.0 L 37.0 68.0 L 37.0 67.0 L 37.0 66.0 L 37.0 65.0 L 37.0 64.0 L 37.0 63.0 L 37.0 62.0 L 37.0 61.0 L 37.0 60.0 L 37.0 59.0 L 37.0 58.0 L 37.0 57.0 L 37.0 56.0 L 37.0 55.0 L 37.0 54.0 L 37.0 53.0 L 37.0 52.0 L 37.0 51.0 L 37.0 50.0 L 37.0 49.0 L 37.0 48.0 L 37.0 47.0 L 36.666666666666664 46.0 L 36.0 45.333333333333336 L 35.0 45.0 L 34.0 45.0 L 33.0 45.0 L 32.0 45.0 L 31.0 45.0 L 30.0 45.0 L 29.0 45.0 L 28.0 45.0 L 27.0 45.0 L 26.0 45.0 L 25.0 45.0 L 24.0 45.0 L 23.333333333333332 45.333333333333336 L 23.0 46.0 L 23.0 47.0 L 23.0 48.0 L 23.0 49.0 L 23.0 50.0 L 23.0 51.0 L 23.0 52.0 L 23.0 53.0 L 23.0 54.0 L 23.0 55.0 L 23.0 56.0 L 23.0 57.0 L 23.0 58.0 L 23.0 59.0 L 23.0 60.0 L 23.0 61.0 L 23.0 62.0 L 23.0 63.0 L 23.0 64.0 L 23.0 65.0 L 23.0 66.0 L 23.0 67.0 L 23.0 68.0 L 23.0 69.0 L 23.0 70.0 L 23.0 71.0 L 23.0 72.0 L 23.0 73.0 L 23.0 74.0 L 23.0 75.0 L 23.0 76.0 L 23.0 77.0 L 23.0 78.0 L 23.0 79.0 L 23.0 80.0 L 23.0 81.0 L 23.0 82.0 L 23.0 83.0 L 23.0 84.0 L 23.0 85.0 L 23.0 86.0 L 23.0 86.5 Z" stroke="none" fill="rgb(226,192,144)" />
<path d="M 59.5 92.0 L 60.0 92.0 L 61.0 92.0 L 62.0 92.0 L 63.0 92.0 L 64.0 92.0 L 65.0 92.0 L 66.0 92.0 L 67.0 92.0 L 68.0 92.0 L 69.0 92.0 L 70.0 92.0 L 71.0 92.0 L 72.0 92.0 L 73.0 92.0 L 74.0 92.0 L 75.0 92.0 L 76.0 92.0 L 77.0 92.0 L 78.0 92.0 L 79.0 92.0 L 80.0 92.0 L 81.0 92.0 L 82.0 92.0 L 83.0 92.0 L 84.0 92.0 L 85.0 92.0 L 86.0 92.0 L 87.0 92.0 L 88.0 92.0 L 89.0 92.0 L 90.0 92.0 L 91.0 92.0 L 92.0 92.0 L 93.0 92.0 L 94.0 92.0 L 95.0 92.0 L 96.0 92.0 L 97.0 92.0 L 98.0 92.0 L 99.0 92.0 L 100.0 92.0 L 101.0 92.0 L 102.0 92.0 L 103.0 92.0 L 104.0 92.0 L 105.0 92.0 L 106.0 92.0 L 107.0 92.0 L 108.0 92.0 L 109.0 92.0 L 109.66666666666667 91.66666666666667 L 110.0 91.0 L 110.0 90.0 L 109.66666666666667 89.0 L 109.0 88.0 L 108.0 87.33333333333333 L 107.0 87.0 L 106.0 87.0 L 105.0 87.0 L 104.0 87.0 L 103.0 87.0 L 102.0 87.0 L 101.0 87.0 L 100.0 87.0 L 99.0 87.0 L 98.0 87.0 L 97.0 87.0 L 96.0 87.0 L 95.0 87.0 L 94.0 86.66666666666667 L 93.33333333333333 86.0 L 93.0 85.0 L 93.0 84.0 L 93.0 83.0 L 93.0 82.0 L 93.0 81.0 L 93.0 80.0 L 93.0 79.0 L 93.0 78.0 L 93.0 77.0 L 93.0 76.0 L 93.0 75.0 L 93.0 74.0 L 93.0 73.0 L 93.0 72.0 L 93.0 71.0 L 93.0 70.0 L 93.0 69.0 L 93.0 68.0 L 93.0 67.0 L 93.0 66.0 L 93.0 65.0 L 93.0 64.0 L 93.0 63.0 L 93.0 62.0 L 93.0 61.0 L 93.0 60.0 L 93.0 59.0 L 93.0 58.0 L 93.0 57.0 L 93.0 56.0 L 93.0 55.0 L 93.0 54.0 L 93.0 53.0 L 93.0 52.0 L 93.0 51.0 L 93.0 50.0 L 93.0 49.0 L 93.0 48.0 L 93.0 47.0 L 92.66666666666667 46.0 L 92.0 45.333333333333336 L 91.0 45.0 L 90.0 45.0 L 89.0 45.0 L 88.0 45.0 L 87.0 45.0 L 86.33333333333333 45.333333333333336 L 86.0 46.0 L 86.0 47.0 L 86.0 48.0 L 86.0 49.0 L 86.0 50.0 L 86.0 51.0 L 86.0 52.0 L 86.0 53.0 L 86.0 54.0 L 86.0 55.0 L 86.0 56.0 L 86.0 57.0 L 86.0 58.0 L 86.0 59.0 L 86.0 60.0 L 86.0 61.0 L 86.0 62.0 L 86.0 63.0 L 86.0 64.0 L 86.0 65.0 L 86.0 66.0 L 86.0 67.0 L 86.0 68.0 L 86.0 69.0 L 86.0 70.0 L 86.0 71.0 L 86.0 72.0 L 86.0 73.0 L 86.0 74.0 L 86.0 75.0 L 86.0 76.0 L 86.0 77.0 L 86.0 78.0 L 86.0 79.0 L 86.0 80.0 L 86.0 81.0 L 86.0 82.0 L 86.0 83.0 L 86.0 84.0 L 86.0 85.0 L 85.66666666666667 86.0 L 85.0 86.66666666666667 L 84.0 87.0 L 83.0 87.0 L 82.0 87.0 L 81.0 87.0 L 80.0 87.0 L 79.0 87.0 L 78.0 87.0 L 77.0 87.0 L 76.0 87.0 L 75.0 87.0 L 74.0 87.0 L 73.0 87.0 L 72.0 87.0 L 71.0 87.0 L 70.0 87.0 L 69.0 87.0 L 68.0 87.0 L 67.0 87.0 L 66.0 87.0 L 65.0 87.0 L 64.0 87.0 L 63.0 87.0 L 62.0 87.0 L 61.0 87.0 L 60.0 87.0 L 59.0 87.0 L 58.0 87.0 L 57.0 87.0 L 56.0 87.0 L 55.0 87.0 L 54.0 87.0 L 53.0 87.0 L 52.0 87.0 L 51.0 87.0 L 50.0 87.0 L 49.0 87.0 L 48.0 87.0 L 47.0 87.0 L 46.0 87.0 L 45.0 87.0 L 44.0 86.66666666666667 L 43.0 86.0 L 42.333333333333336 85.0 L 42.0 84.0 L 42.0 83.0 L 42.0 82.0 L 42.0 81.0 L 42.0 80.0 L 42.0 79.0 L 42.0 78.0 L 42.0 77.0 L 42.0 76.0 L 42.0 75.0 L 42.0 74.0 L 42.0 73.0 L 42.0 72.0 L 42.0 71.0 L 42.0 70.0 L 42.0 69.0 L 42.0 68.0 L 42.0 67.0 L 42.0 66.0 L 42.0 65.0 L 42.0 64.0 L 42.0 63.0 L 42.0 62.0 L 42.0 61.0 L 42.0 60.0 L 42.0 59.0 L 42.0 58.0 L 42.0 57.0 L 42.0 56.0 L 42.0 55.0 L 42.0 54.0 L 42.0 53.0 L 42.0 52.0 L 42.0 51.0 L 42.0 50.0 L 42.0 49.0 L 42.0 48.0 L 42.0 47.0 L 42.0 46.0 L 41.666666666666664 45.333333333333336 L 41.0 45.0 L 40.0 45.0 L 39.0 45.0 L 38.0 45.0 L 37.333333333333336 45.333333333333336 L 37.0 46.0 L 37.0 47.0 L 37.0 48.0 L 37.0 49.0 L 37.0 50.0 L 37.0 51.0 L 37.0 52.0 L 37.0 53.0 L 37.0 54.0 L 37.0 55.0 L 37.0 56.0 L 37.0 57.0 L 37.0 58.0 L 37.0 59.0 L 37.0 60.0 L 37.0 61.0 L 37.0 62.0 L 37.0 63.0 L 37.0 64.0 L 37.0 65.0 L 37.0 66.0 L 37.0 67.0 L 37.0 68.0 L 37.0 69.0 L 37.0 70.0 L 37.0 71.0 L 37.0 72.0 L 37.0 73.0 L 37.0 74.0 L 37.0 75.0 L 37.0 76.0 L 37.0 77.0 L 37.0 78.0 L 37.0 79.0 L 37.0 80.0 L 37.0 81.0 L 37.0 82.0 L 37.0 83.0 L 37.0 84.0 L 37.0 85.0 L 36.666666666666664 86.0 L 36.0 86.66666666666667 L 35.0 87.0 L 34.0 87.0 L 33.0 87.0 L 32.0 87.0 L 31.0 87.0 L 30.0 87.0 L 29.0 87.0 L 28.0 87.0 L 27.0 87.0 L 26.0 87.0 L 25.0 87.0 L 24.0 87.0 L 23.0 87.0 L 22.0 87.0 L 21.0 87.33333333333333 L 20.333333333333332 88.0 L 20.0 89.0 L 20.0 90.0 L 20.0 91.0 L 20.333333333333332 91.66666666666667 L 21.0 92.0 L 22.0 92.0 L 23.0 92.0 L 24.0 92.0 L 25.0 92.0 L 26.0 92.0 L 27.0 92.0 L 28.0 92.0 L 29.0 92.0 L 30.0 92.0 L 31.0 92.0 L 32.0 92.0 L 33.0 92.0 L 34.0 92.0 L 35.0 92.0 L 36.0 92.0 L 37.0 92.0 L 38.0 92.0 L 39.0 92.0 L 40.0 92.0 L 41.0 92.0 L 42.0 92.0 L 43.0 92.0 L 44.0 92.0 L 45.0 92.0 L 46.0 92.0 L 47.0 92.0 L 48.0 92.0 L 49.0 92.0 L 50.0 92.0 L 51.0 92.0 L 52.0 92.0 L 53.0 92.0 L 54.0 92.0 L 55.0 92.0 L 56.0 92.0 L 57.0 92.0 L 58.0 92.0 L 58.5 92.0 Z" stroke="none" fill="rgb(250,219,188)" />
<path d="M 105.0 86.5 L 105.0 86.0 L 105.0 85.0 L 105.0 84.0 L 105.0 83.0 L 105.0 82.0 L 105.0 81.0 L 105.0 80.0 L 105.0 79.0 L 105.0 78.0 L 105.0 77.0 L 105.0 76.0 L 105.0 75.0 L 105.0 74.0 L 105.0 73.0 L 105.0 72.0 L 105.0 71.0 L 105.0 70.0 L 105.0 69.0 L 105.0 68.0 L 105.0 67.0 L 105.0 66.0 L 105.0 65.0 L 105.0 64.0 L 105.0 63.0 L 105.0 62.0 L 105.0 61.0 L 105.0 60.0 L 105.0 59.0 L 105.0 58.0 L 105.0 57.0 L 105.0 56.0 L 105.0 55.0 L 105.0 54.0 L 105.0 53.0 L 105.0 52.0 L 105.0 51.0 L 105.0 50.0 L 105.0 49.0 L 105.0 48.0 L 105.0 47.0 L 105.0 46.0 L 104.66666666666667 45.333333333333336 L 104.0 45.0 L 103.33333333333333 45.333333333333336 L 102.66666666666667 46.0 L 102.33333333333333 47.0 L 102.0 48.0 L 102.0 49.0 L 102.0 50.0 L 102.0 51.0 L 102.0 52.0 L 102.0 53.0 L 102.0 54.0 L 101.66666666666667 55.0 L 101.0 55.666666666666664 L 100.0 56.0 L 99.0 56.0 L 98.0 56.0 L 97.0 55.666666666666664 L 96.33333333333333 55.0 L 96.0 54.0 L 96.0 53.0 L 96.0 52.0 L 96.0 51.0 L 96.0 50.0 L 96.0 49.0 L 96.0 48.0 L 96.0 47.0 L 96.0 46.0 L 95.66666666666667 45.333333333333336 L 95.0 45.0 L 94.0 45.0 L 93.33333333333333 45.333333333333336 L 93.0 46.0 L 93.0 47.0 L 93.0 48.0 L 93.0 49.0 L 93.0 50.0 L 93.0 51.0 L 93.0 52.0 L 93.0 53.0 L 93.0 54.0 L 93.0 55.0 L 93.0 56.0 L 93.0 57.0 L 93.0 58.0 L 93.0 59.0 L 93.0 60.0 L 93.0 61.0 L 93.0 62.0 L 93.0 63.0 L 93.0 64.0 L 93.0 65.0 L 93.0 66.0 L 93.0 67.0 L 93.0 68.0 L 93.0 69.0 L 93.0 70.0 L 93.0 71.0 L 93.0 72.0 L 93.0 73.0 L 93.0 74.0 L 93.0 75.0 L 93.0 76.0 L 93.0 77.0 L 93.0 78.0 L 93.0 79.0 L 93.0 80.0 L 93.0 81.0 L 93.0 82.0 L 93.0 83.0 L 93.0 84.0 L 93.0 85.0 L 93.0 86.0 L 93.33333333333333 86.66666666666667 L 94.0 87.0 L 95.0 87.0 L 96.0 87.0 L 97.0 87.0 L 98.0 87.0 L 99.0 87.0 L 100.0 87.0 L 101.0 87.0 L 102.0 87.0 L 103.0 87.0 L 104.0 87.0 L 104.5 87.0 Z" stroke="none" fill="rgb(226,192,144)" />
<path d="M 97.0 46.5 L 96.66666666666667 46.333333333333336 L 96.33333333333333 46.333333333333336 L 96.33333333333333 46.666666666666664 L 96.5 47.0 Z" stroke="none" fill="rgb(156,152,133)" />
<path d="M 32.5 57.0 L 32.666666666666664 56.666666666666664 L 33.0 56.0 L 33.0 55.0 L 33.0 54.0 L 33.0 53.0 L 33.0 52.0 L 33.0 51.0 L 33.0 50.0 L 33.0 49.0 L 33.0 48.0 L 32.666666666666664 47.333333333333336 L 32.0 47.0 L 31.0 47.0 L 30.0 47.0 L 29.0 47.0 L 28.0 47.0 L 27.333333333333332 47.333333333333336 L 27.0 48.0 L 27.0 49.0 L 27.0 50.0 L 27.0 51.0 L 27.0 52.0 L 27.0 53.0 L 27.0 54.0 L 27.0 55.0 L 27.0 56.0 L 27.333333333333332 56.666666666666664 L 28.0 57.0 L 29.0 57.0 L 30.0 57.0 L 31.0 57.0 L 31.5 57.0 Z" stroke="none" fill="rgb(83,111,121)" />
<path d="M 99.5 56.0 L 100.0 56.0 L 101.0 56.0 L 101.66666666666667 55.666666666666664 L 102.0 55.0 L 102.0 54.0 L 102.0 53.0 L 102.0 52.0 L 102.0 51.0 L 102.0 50.0 L 102.0 49.0 L 102.0 48.0 L 101.66666666666667 47.333333333333336 L 101.0 47.0 L 100.0 47.0 L 99.0 47.0 L 98.0 47.0 L 97.0 47.0 L 96.33333333333333 47.333333333333336 L 96.0 48.0 L 96.0 49.0 L 96.0 50.0 L 96.0 51.0 L 96.0 52.0 L 96.0 53.0 L 96.0 54.0 L 96.0 55.0 L 96.33333333333333 55.666666666666664 L 97.0 56.0 L 98.0 56.0 L 98.5 56.0 Z" stroke="none" fill="rgb(83,111,121)" />
<path d="M 20.0 99.5 L 20.0 99.0 L 20.0 98.0 L 20.0 97.0 L 20.0 96.0 L 20.0 95.0 L 20.0 94.0 L 20.0 93.0 L 20.0 92.0 L 20.0 91.0 L 20.0 90.0 L 20.333333333333332 89.0 L 20.666666666666668 88.0 L 21.0 87.0 L 20.666666666666668 86.0 L 20.333333333333332 85.0 L 20.0 84.0 L 20.0 83.0 L 20.0 82.0 L 20.0 81.0 L 20.0 80.0 L 20.0 79.0 L 20.0 78.0 L 20.0 77.0 L 20.0 76.0 L 20.0 75.0 L 20.0 74.0 L 20.0 73.0 L 20.0 72.0 L 20.0 71.0 L 20.0 70.0 L 20.0 69.0 L 20.0 68.0 L 20.0 67.0 L 20.0 66.0 L 20.0 65.0 L 20.0 64.0 L 20.0 63.0 L 20.0 62.0 L 20.0 61.0 L 20.0 60.0 L 20.0 59.0 L 20.0 58.0 L 20.0 57.0 L 19.666666666666668 56.333333333333336 L 19.0 56.0 L 18.0 56.0 L 17.0 56.0 L 16.0 56.0 L 15.0 56.0 L 14.0 56.0 L 13.0 56.0 L 12.0 56.0 L 11.0 56.0 L 10.333333333333334 56.333333333333336 L 10.0 57.0 L 10.0 58.0 L 10.0 59.0 L 10.0 60.0 L 10.0 61.0 L 10.0 62.0 L 10.0 63.0 L 10.0 64.0 L 10.0 65.0 L 10.0 66.0 L 10.0 67.0 L 10.0 68.0 L 10.0 69.0 L 10.0 70.0 L 10.0 71.0 L 10.0 72.0 L 10.0 73.0 L 10.0 74.0 L 10.0 75.0 L 10.0 76.0 L 10.0 77.0 L 10.0 78.0 L 10.0 79.0 L 10.0 80.0 L 10.0 81.0 L 10.0 82.0 L 10.0 83.0 L 10.0 84.0 L 10.0 85.0 L 10.0 86.0 L 10.0 87.0 L 10.0 88.0 L 10.0 89.0 L 10.0 90.0 L 10.0 91.0 L 10.0 92.0 L 10.0 93.0 L 10.0 94.0 L 10.0 95.0 L 10.0 96.0 L 10.0 97.0 L 10.0 98.0 L 10.0 99.0 L 10.333333333333334 99.66666666666667 L 11.0 100.0 L 12.0 100.0 L 13.0 100.0 L 14.0 100.0 L 15.0 100.0 L 16.0 100.0 L 17.0 100.0 L 18.0 100.0 L 19.0 100.0 L 19.5 100.0 Z" stroke="none" fill="rgb(226,192,144)" />
<path d="M 113.5 100.0 L 114.0 100.0 L 115.0 100.0 L 116.0 100.0 L 117.0 100.0 L 117.66666666666667 99.66666666666667 L 118.0 99.0 L 118.0 98.0 L 118.0 97.0 L 118.0 96.0 L 118.0 95.0 L 118.0 94.0 L 118.0 93.0 L 118.0 92.0 L 118.0 91.0 L 118.0 90.0 L 118.0 89.0 L 118.0 88.0 L 118.0 87.0 L 118.0 86.0 L 118.0 85.0 L 118.0 84.0 L 118.0 83.0 L 118.0 82.0 L 118.0 81.0 L 118.0 80.0 L 118.0 79.0 L 118.0 78.0 L 118.0 77.0 L 118.0 76.0 L 118.0 75.0 L 118.0 74.0 L 118.0 73.0 L 118.0 72.0 L 118.0 71.0 L 118.0 70.0 L 118.0 69.0 L 118.0 68.0 L 118.0 67.0 L 118.0 66.0 L 118.0 65.0 L 118.0 64.0 L 118.0 63.0 L 118.0 62.0 L 118.0 61.0 L 118.0 60.0 L 118.0 59.0 L 118.0 58.0 L 117.66666666666667 57.333333333333336 L 117.0 57.0 L 116.0 57.0 L 115.0 57.0 L 114.0 57.0 L 113.0 57.0 L 112.0 57.0 L 111.0 57.0 L 110.0 57.0 L 109.0 57.0 L 108.33333333333333 57.333333333333336 L 108.0 58.0 L 108.0 59.0 L 108.0 60.0 L 108.0 61.0 L 108.0 62.0 L 108.0 63.0 L 108.0 64.0 L 108.0 65.0 L 108.0 66.0 L 108.0 67.0 L 108.0 68.0 L 108.0 69.0 L 108.0 70.0 L 108.0 71.0 L 108.0 72.0 L 108.0 73.0 L 108.0 74.0 L 108.0 75.0 L 108.0 76.0 L 108.0 77.0 L 108.0 78.0 L 108.0 79.0 L 108.0 80.0 L 108.0 81.0 L 108.0 82.0 L 108.0 83.0 L 108.0 84.0 L 108.0 85.0 L 108.0 86.0 L 108.0 87.0 L 108.33333333333333 88.0 L 109.0 89.0 L 109.66666666666667 90.0 L 109.66666666666667 91.0 L 109.33333333333333 92.0 L 109.33333333333333 93.0 L 109.66666666666667 94.0 L 110.0 95.0 L 110.0 96.0 L 110.0 97.0 L 110.0 98.0 L 110.0 99.0 L 110.33333333333333 99.66666666666667 L 111.0 100.0 L 112.0 100.0 L 112.5 100.0 Z" stroke="none" fill="rgb(226,192,144)" />
<path d="M 17.5 71.0 L 17.666666666666668 70.66666666666667 L 18.0 70.0 L 18.0 69.0 L 18.0 68.0 L 18.0 67.0 L 18.0 66.0 L 18.0 65.0 L 18.0 64.0 L 18.0 63.0 L 18.0 62.0 L 17.666666666666668 61.333333333333336 L 17.0 61.0 L 16.0 61.0 L 15.0 61.0 L 14.0 61.0 L 13.0 61.0 L 12.333333333333334 61.333333333333336 L 12.0 62.0 L 12.0 63.0 L 12.0 64.0 L 12.0 65.0 L 12.0 66.0 L 12.0 67.0 L 12.0 68.0 L 12.0 69.0 L 12.0 70.0 L 12.333333333333334 70.66666666666667 L 13.0 71.0 L 14.0 71.0 L 15.0 71.0 L 16.0 71.0 L 16.5 71.0 Z" stroke="none" fill="rgb(83,111,121)" />
<path d="M 29.5 71.0 L 30.0 71.0 L 31.0 71.0 L 32.0 71.0 L 32.666666666666664 70.66666666666667 L 33.0 70.0 L 33.0 69.0 L 33.0 68.0 L 33.0 67.0 L 33.0 66.0 L 33.0 65.0 L 33.0 64.0 L 33.0 63.0 L 33.0 62.0 L 32.666666666666664 61.333333333333336 L 32.0 61.0 L 31.0 61.0 L 30.0 61.0 L 29.0 61.0 L 28.0 61.0 L 27.333333333333332 61.333333333333336 L 27.0 62.0 L 27.0 63.0 L 27.0 64.0 L 27.0 65.0 L 27.0 66.0 L 27.0 67.0 L 27.0 68.0 L 27.0 69.0 L 27.0 70.0 L 27.333333333333332 70.66666666666667 L 28.0 71.0 L 28.5 71.0 Z" stroke="none" fill="rgb(83,111,121)" />
<path d="M 98.5 70.0 L 99.0 70.0 L 100.0 70.0 L 101.0 70.0 L 101.66666666666667 69.66666666666667 L 102.0 69.0 L 102.0 68.0 L 102.0 67.0 L 102.0 66.0 L 102.0 65.0 L 102.0 64.0 L 102.0 63.0 L 102.0 62.0 L 101.66666666666667 61.333333333333336 L 101.0 61.0 L 100.0 61.0 L 99.0 61.0 L 98.0 61.0 L 97.0 61.0 L 96.33333333333333 61.333333333333336 L 96.0 62.0 L 96.0 63.0 L 96.0 64.0 L 96.0 65.0 L 96.0 66.0 L 96.0 67.0 L 96.0 68.0 L 96.0 69.0 L 96.33333333333333 69.66666666666667 L 97.0 70.0 L 97.5 70.0 Z" stroke="none" fill="rgb(83,111,121)" />
<path d="M 110.5 70.0 L 111.0 70.0 L 112.0 70.0 L 113.0 70.0 L 114.0 70.0 L 115.0 70.0 L 115.66666666666667 69.66666666666667 L 116.0 69.0 L 116.0 68.0 L 116.0 67.0 L 116.0 66.0 L 116.0 65.0 L 116.0 64.0 L 116.0 63.0 L 116.0 62.0 L 115.66666666666667 61.333333333333336 L 115.0 61.0 L 114.0 61.0 L 113.0 61.0 L 112.0 61.0 L 111.0 61.0 L 110.33333333333333 61.333333333333336 L 110.0 62.0 L 110.0 63.0 L 110.0 64.0 L 110.0 65.0 L 110.0 66.0 L 110.0 67.0 L 110.0 68.0 L 110.0 69.0 L 110.0 69.5 Z" stroke="none" fill="rgb(83,111,121)" />
<path d="M 97.5 85.0 L 98.0 85.0 L 99.0 85.0 L 100.0 85.0 L 101.0 85.0 L 101.66666666666667 84.66666666666667 L 102.0 84.0 L 102.0 83.0 L 102.0 82.0 L 102.0 81.0 L 102.0 80.0 L 102.0 79.0 L 102.0 78.0 L 102.0 77.0 L 102.0 76.0 L 101.66666666666667 75.33333333333333 L 101.0 75.0 L 100.0 75.0 L 99.0 75.0 L 98.0 75.0 L 97.0 75.0 L 96.33333333333333 75.33333333333333 L 96.0 76.0 L 96.0 77.0 L 96.0 78.0 L 96.0 79.0 L 96.0 80.0 L 96.0 81.0 L 96.0 82.0 L 96.0 83.0 L 96.0 84.0 L 96.33333333333333 84.66666666666667 L 96.5 85.0 Z" stroke="none" fill="rgb(83,111,121)" />
<path d="M 110.5 85.0 L 111.0 85.0 L 112.0 85.0 L 113.0 85.0 L 114.0 85.0 L 115.0 85.0 L 115.66666666666667 84.66666666666667 L 116.0 84.0 L 116.0 83.0 L 116.0 82.0 L 116.0 81.0 L 116.0 80.0 L 116.0 79.0 L 116.0 78.0 L 116.0 77.0 L 116.0 76.0 L 115.66666666666667 75.33333333333333 L 115.0 75.0 L 114.0 75.0 L 113.0 75.0 L 112.0 75.0 L 111.0 75.0 L 110.33333333333333 75.33333333333333 L 110.0 76.0 L 110.0 77.0 L 110.0 78.0 L 110.0 79.0 L 110.0 80.0 L 110.0 81.0 L 110.0 82.0 L 110.0 83.0 L 110.0 84.0 L 110.0 84.5 Z" stroke="none" fill="rgb(83,111,121)" />
<path d="M 17.5 85.0 L 17.666666666666668 84.66666666666667 L 18.0 84.0 L 18.0 83.0 L 18.0 82.0 L 18.0 81.0 L 18.0 80.0 L 18.0 79.0 L 18.0 78.0 L 18.0 77.0 L 17.666666666666668 76.33333333333333 L 17.0 76.0 L 16.0 76.0 L 15.0 76.0 L 14.0 76.0 L 13.0 76.0 L 12.333333333333334 76.33333333333333 L 12.0 77.0 L 12.0 78.0 L 12.0 79.0 L 12.0 80.0 L 12.0 81.0 L 12.0 82.0 L 12.0 83.0 L 12.0 84.0 L 12.333333333333334 84.66666666666667 L 13.0 85.0 L 14.0 85.0 L 15.0 85.0 L 16.0 85.0 L 16.5 85.0 Z" stroke="none" fill="rgb(83,111,121)" />
<path d="M 31.5 85.0 L 32.0 85.0 L 32.666666666666664 84.66666666666667 L 33.0 84.0 L 33.0 83.0 L 33.0 82.0 L 33.0 81.0 L 33.0 80.0 L 33.0 79.0 L 33.0 78.0 L 33.0 77.0 L 32.666666666666664 76.33333333333333 L 32.0 76.0 L 31.0 76.0 L 30.0 76.0 L 29.0 76.0 L 28.0 76.0 L 27.333333333333332 76.33333333333333 L 27.0 77.0 L 27.0 78.0 L 27.0 79.0 L 27.0 80.0 L 27.0 81.0 L 27.0 82.0 L 27.0 83.0 L 27.0 84.0 L 27.333333333333332 84.66666666666667 L 28.0 85.0 L 29.0 85.0 L 30.0 85.0 L 30.5 85.0 Z" stroke="none" fill="rgb(83,111,121)" />
<path d="M 95.5 101.0 L 96.0 101.0 L 97.0 101.0 L 98.0 101.33333333333333 L 99.0 101.66666666666667 L 100.0 101.66666666666667 L 101.0 101.33333333333333 L 102.0 101.0 L 103.0 101.0 L 104.0 101.0 L 105.0 101.0 L 106.0 101.33333333333333 L 107.0 101.66666666666667 L 108.0 101.66666666666667 L 109.0 101.33333333333333 L 109.66666666666667 100.66666666666667 L 110.0 100.0 L 110.0 99.0 L 110.0 98.0 L 110.0 97.0 L 110.0 96.0 L 110.0 95.0 L 110.0 94.0 L 109.66666666666667 93.0 L 109.0 92.33333333333333 L 108.0 92.0 L 107.0 92.0 L 106.0 92.0 L 105.0 92.0 L 104.0 92.0 L 103.0 92.0 L 102.0 92.0 L 101.0 92.0 L 100.0 92.0 L 99.0 92.0 L 98.0 92.0 L 97.0 92.0 L 96.0 92.0 L 95.0 92.0 L 94.0 92.0 L 93.0 92.0 L 92.0 92.0 L 91.0 92.0 L 90.0 92.0 L 89.0 92.0 L 88.0 92.0 L 87.0 92.0 L 86.0 92.0 L 85.0 92.0 L 84.0 92.0 L 83.0 92.0 L 82.0 92.0 L 81.0 92.0 L 80.0 92.0 L 79.0 92.0 L 78.0 92.0 L 77.0 92.0 L 76.0 92.0 L 75.0 92.0 L 74.0 92.0 L 73.0 92.0 L 72.0 92.0 L 71.0 92.0 L 70.0 92.0 L 69.0 92.0 L 68.0 92.0 L 67.0 92.0 L 66.0 92.0 L 65.0 92.0 L 64.0 92.0 L 63.0 92.0 L 62.0 92.0 L 61.0 92.0 L 60.0 92.0 L 59.0 92.0 L 58.0 92.0 L 57.0 92.0 L 56.0 92.0 L 55.0 92.0 L 54.0 92.0 L 53.0 92.0 L 52.0 92.0 L 51.0 92.0 L 50.0 92.0 L 49.0 92.0 L 48.0 92.0 L 47.0 92.0 L 46.0 92.0 L 45.0 92.0 L 44.0 92.0 L 43.0 92.0 L 42.0 92.0 L 41.0 92.0 L 40.0 92.0 L 39.0 92.0 L 38.0 92.0 L 37.0 92.0 L 36.0 92.0 L 35.0 92.0 L 34.0 92.0 L 33.0 92.0 L 32.0 92.0 L 31.0 92.0 L 30.0 92.0 L 29.0 92.0 L 28.0 92.0 L 27.0 92.0 L 26.0 92.0 L 25.0 92.0 L 24.0 92.0 L 23.0 92.0 L 22.0 92.0 L 21.0 92.0 L 20.333333333333332 92.33333333333333 L 20.0 93.0 L 20.0 94.0 L 20.0 95.0 L 20.0 96.0 L 20.0 97.0 L 20.0 98.0 L 20.0 99.0 L 20.0 100.0 L 20.333333333333332 100.66666666666667 L 21.0 101.0 L 22.0 101.0 L 23.0 101.0 L 24.0 101.0 L 25.0 101.0 L 26.0 101.0 L 27.0 101.33333333333333 L 28.0 101.66666666666667 L 29.0 101.66666666666667 L 30.0 101.33333333333333 L 31.0 101.0 L 32.0 101.0 L 33.0 101.0 L 34.0 101.0 L 35.0 101.33333333333333 L 36.0 101.66666666666667 L 37.0 101.66666666666667 L 38.0 101.33333333333333 L 39.0 101.0 L 40.0 101.0 L 41.0 101.33333333333333 L 42.0 101.66666666666667 L 43.0 101.66666666666667 L 44.0 101.33333333333333 L 45.0 101.0 L 46.0 101.0 L 47.0 101.0 L 48.0 101.0 L 49.0 101.0 L 50.0 101.0 L 51.0 101.0 L 52.0 101.0 L 53.0 101.33333333333333 L 54.0 101.66666666666667 L 55.0 102.0 L 56.0 102.0 L 57.0 102.0 L 58.0 102.0 L 59.0 102.0 L 60.0 102.33333333333333 L 61.0 102.66666666666667 L 62.0 103.0 L 62.666666666666664 102.66666666666667 L 63.333333333333336 102.0 L 64.0 101.33333333333333 L 65.0 101.0 L 66.0 101.33333333333333 L 67.0 101.66666666666667 L 68.0 102.0 L 69.0 102.0 L 70.0 102.0 L 71.0 102.0 L 72.0 102.0 L 73.0 102.0 L 74.0 102.0 L 75.0 101.66666666666667 L 76.0 101.33333333333333 L 77.0 101.33333333333333 L 78.0 101.66666666666667 L 79.0 101.66666666666667 L 80.0 101.33333333333333 L 81.0 101.0 L 82.0 101.0 L 83.0 101.0 L 84.0 101.33333333333333 L 85.0 101.66666666666667 L 86.0 101.66666666666667 L 87.0 101.33333333333333 L 88.0 101.0 L 89.0 101.0 L 90.0 101.0 L 91.0 101.33333333333333 L 92.0 101.66666666666667 L 93.0 101.66666666666667 L 94.0 101.33333333333333 L 94.5 101.0 Z" stroke="none" fill="rgb(175,12,26)" />
<path d="M 24.5 127.0 L 25.0 127.0 L 26.0 127.0 L 27.0 127.0 L 28.0 127.0 L 28.666666666666668 126.66666666666667 L 29.0 126.0 L 29.0 125.0 L 29.0 124.0 L 29.0 123.0 L 29.0 122.0 L 29.0 121.0 L 29.0 120.0 L 29.0 119.0 L 29.0 118.0 L 29.0 117.0 L 29.0 116.0 L 29.0 115.0 L 29.0 114.0 L 29.0 113.0 L 29.0 112.0 L 29.0 111.0 L 29.0 110.0 L 29.0 109.0 L 29.0 108.0 L 29.0 107.0 L 29.0 106.0 L 29.0 105.0 L 29.0 104.0 L 29.0 103.0 L 28.666666666666668 102.0 L 28.0 101.33333333333333 L 27.0 101.0 L 26.0 101.0 L 25.0 101.0 L 24.0 101.0 L 23.0 101.0 L 22.0 101.0 L 21.333333333333332 101.33333333333333 L 21.0 102.0 L 21.0 103.0 L 21.0 104.0 L 21.0 105.0 L 21.0 106.0 L 21.0 107.0 L 21.0 108.0 L 21.0 109.0 L 21.0 110.0 L 21.0 111.0 L 21.0 112.0 L 21.0 113.0 L 21.0 114.0 L 21.0 115.0 L 21.0 116.0 L 21.0 117.0 L 21.0 118.0 L 21.0 119.0 L 21.0 120.0 L 21.0 121.0 L 20.666666666666668 122.0 L 20.333333333333332 123.0 L 20.0 124.0 L 20.0 125.0 L 20.333333333333332 126.0 L 21.0 126.66666666666667 L 22.0 127.0 L 23.0 127.0 L 23.5 127.0 Z" stroke="none" fill="rgb(250,221,195)" />
<path d="M 36.5 124.0 L 36.666666666666664 123.66666666666667 L 37.0 123.0 L 37.0 122.0 L 37.0 121.0 L 37.0 120.0 L 37.0 119.0 L 37.0 118.0 L 37.0 117.0 L 37.0 116.0 L 37.0 115.0 L 37.0 114.0 L 37.0 113.0 L 37.0 112.0 L 37.0 111.0 L 37.0 110.0 L 37.0 109.0 L 37.0 108.0 L 37.0 107.0 L 37.0 106.0 L 37.0 105.0 L 37.0 104.0 L 37.0 103.0 L 36.666666666666664 102.0 L 36.0 101.33333333333333 L 35.0 101.0 L 34.0 101.0 L 33.0 101.0 L 32.0 101.0 L 31.0 101.0 L 30.0 101.0 L 29.333333333333332 101.33333333333333 L 29.0 102.0 L 29.0 103.0 L 29.0 104.0 L 29.0 105.0 L 29.0 106.0 L 29.0 107.0 L 29.0 108.0 L 29.0 109.0 L 29.0 110.0 L 29.0 111.0 L 29.0 112.0 L 29.0 113.0 L 29.0 114.0 L 29.0 115.0 L 29.0 116.0 L 29.0 117.0 L 29.0 118.0 L 29.0 119.0 L 29.0 120.0 L 29.0 121.0 L 29.0 122.0 L 29.0 123.0 L 29.333333333333332 123.66666666666667 L 30.0 124.0 L 31.0 124.0 L 32.0 124.0 L 33.0 124.0 L 34.0 124.0 L 35.0 124.0 L 35.5 124.0 Z" stroke="none" fill="rgb(185,146,119)" />
<path d="M 43.0 123.5 L 43.0 123.0 L 43.0 122.0 L 43.0 121.0 L 43.0 120.0 L 43.0 119.0 L 43.0 118.0 L 43.0 117.0 L 43.0 116.0 L 43.0 115.0 L 43.0 114.0 L 43.0 113.0 L 43.0 112.0 L 43.0 111.0 L 43.0 110.0 L 43.0 109.0 L 43.0 108.0 L 43.0 107.0 L 43.0 106.0 L 43.0 105.0 L 43.0 104.0 L 43.0 103.0 L 42.666666666666664 102.0 L 42.0 101.33333333333333 L 41.0 101.0 L 40.0 101.0 L 39.0 101.0 L 38.0 101.0 L 37.333333333333336 101.33333333333333 L 37.0 102.0 L 37.0 103.0 L 37.0 104.0 L 37.0 105.0 L 37.0 106.0 L 37.0 107.0 L 37.0 108.0 L 37.0 109.0 L 37.0 110.0 L 37.0 111.0 L 37.0 112.0 L 37.0 113.0 L 37.0 114.0 L 37.0 115.0 L 37.0 116.0 L 37.0 117.0 L 37.0 118.0 L 37.0 119.0 L 37.0 120.0 L 37.0 121.0 L 37.0 122.0 L 37.0 123.0 L 37.333333333333336 123.66666666666667 L 38.0 124.0 L 39.0 124.0 L 40.0 124.0 L 41.0 124.0 L 42.0 124.0 L 42.5 124.0 Z" stroke="none" fill="rgb(250,219,188)" />
<path d="M 43.5 124.0 L 44.0 124.0 L 45.0 124.0 L 46.0 124.0 L 47.0 124.0 L 48.0 124.0 L 49.0 124.0 L 49.666666666666664 123.66666666666667 L 50.0 123.0 L 50.0 122.0 L 50.0 121.0 L 50.0 120.0 L 50.0 119.0 L 50.0 118.0 L 50.0 117.0 L 50.0 116.0 L 50.0 115.0 L 50.0 114.0 L 50.0 113.0 L 50.0 112.0 L 50.0 111.0 L 50.0 110.0 L 50.0 109.0 L 50.0 108.0 L 50.0 107.0 L 50.0 106.0 L 50.0 105.0 L 50.0 104.0 L 50.0 103.0 L 50.0 102.0 L 49.666666666666664 101.33333333333333 L 49.0 101.0 L 48.0 101.0 L 47.0 101.0 L 46.0 101.0 L 45.0 101.0 L 44.0 101.0 L 43.333333333333336 101.33333333333333 L 43.0 102.0 L 43.0 103.0 L 43.0 104.0 L 43.0 105.0 L 43.0 106.0 L 43.0 107.0 L 43.0 108.0 L 43.0 109.0 L 43.0 110.0 L 43.0 111.0 L 43.0 112.0 L 43.0 113.0 L 43.0 114.0 L 43.0 115.0 L 43.0 116.0 L 43.0 117.0 L 43.0 118.0 L 43.0 119.0 L 43.0 120.0 L 43.0 121.0 L 43.0 122.0 L 43.0 123.0 L 43.0 123.5 Z" stroke="none" fill="rgb(185,146,119)" />
<path d="M 78.5 125.0 L 78.66666666666667 124.66666666666667 L 79.0 124.0 L 79.0 123.0 L 79.0 122.0 L 79.0 121.0 L 79.0 120.0 L 79.0 119.0 L 79.0 118.0 L 79.0 117.0 L 79.0 116.0 L 79.0 115.0 L 79.0 114.0 L 79.0 113.0 L 79.0 112.0 L 79.0 111.0 L 79.0 110.0 L 79.0 109.0 L 79.0 108.0 L 79.0 107.0 L 79.0 106.0 L 79.0 105.0 L 79.0 104.0 L 79.0 103.0 L 78.66666666666667 102.0 L 78.0 101.33333333333333 L 77.0 101.0 L 76.0 101.0 L 75.33333333333333 101.33333333333333 L 75.0 102.0 L 75.0 103.0 L 75.0 104.0 L 75.0 105.0 L 75.0 106.0 L 75.0 107.0 L 75.0 108.0 L 75.0 109.0 L 75.0 110.0 L 75.0 111.0 L 75.0 112.0 L 75.0 113.0 L 75.0 114.0 L 75.0 115.0 L 75.0 116.0 L 75.0 117.0 L 75.0 118.0 L 75.0 119.0 L 74.66666666666667 120.0 L 74.0 120.66666666666667 L 73.0 121.0 L 72.0 121.0 L 71.0 121.0 L 70.0 121.0 L 69.0 121.0 L 68.0 121.0 L 67.0 120.66666666666667 L 66.33333333333333 120.0 L 66.0 119.0 L 66.0 118.0 L 66.0 117.0 L 66.0 116.0 L 66.0 115.0 L 66.0 114.0 L 66.0 113.0 L 66.0 112.0 L 66.0 111.0 L 66.0 110.0 L 66.0 109.0 L 66.0 108.0 L 66.0 107.0 L 66.0 106.0 L 66.0 105.0 L 66.33333333333333 104.0 L 66.66666666666667 103.0 L 67.0 102.0 L 66.66666666666667 101.33333333333333 L 66.0 101.0 L 65.0 101.0 L 64.0 101.0 L 63.333333333333336 101.33333333333333 L 62.666666666666664 102.0 L 62.333333333333336 103.0 L 62.0 104.0 L 62.0 105.0 L 62.0 106.0 L 62.0 107.0 L 62.0 108.0 L 62.0 109.0 L 62.0 110.0 L 62.0 111.0 L 62.0 112.0 L 62.0 113.0 L 62.0 114.0 L 62.0 115.0 L 62.0 116.0 L 62.0 117.0 L 62.0 118.0 L 62.0 119.0 L 61.666666666666664 120.0 L 61.0 120.66666666666667 L 60.0 121.0 L 59.0 121.0 L 58.0 121.0 L 57.0 121.0 L 56.0 121.0 L 55.0 121.0 L 54.0 120.66666666666667 L 53.333333333333336 120.0 L 53.0 119.0 L 53.0 118.0 L 53.0 117.0 L 53.0 116.0 L 53.0 115.0 L 53.0 114.0 L 53.0 113.0 L 53.0 112.0 L 53.0 111.0 L 53.0 110.0 L 53.0 109.0 L 53.0 108.0 L 53.0 107.0 L 53.0 106.0 L 53.0 105.0 L 53.333333333333336 104.0 L 53.666666666666664 103.0 L 54.0 102.0 L 53.666666666666664 101.33333333333333 L 53.0 101.0 L 52.0 101.0 L 51.0 101.0 L 50.333333333333336 101.33333333333333 L 50.0 102.0 L 50.0 103.0 L 50.0 104.0 L 50.0 105.0 L 50.0 106.0 L 50.0 107.0 L 50.0 108.0 L 50.0 109.0 L 50.0 110.0 L 50.0 111.0 L 50.0 112.0 L 50.0 113.0 L 50.0 114.0 L 50.0 115.0 L 50.0 116.0 L 50.0 117.0 L 50.0 118.0 L 50.0 119.0 L 50.0 120.0 L 50.0 121.0 L 50.0 122.0 L 50.0 123.0 L 50.0 124.0 L 50.333333333333336 124.66666666666667 L 51.0 125.0 L 52.0 125.0 L 53.0 125.0 L 54.0 125.0 L 55.0 125.0 L 56.0 125.0 L 57.0 125.0 L 58.0 125.0 L 59.0 125.0 L 60.0 125.0 L 61.0 125.0 L 62.0 125.0 L 63.0 125.0 L 64.0 125.0 L 65.0 125.0 L 66.0 125.0 L 67.0 125.0 L 68.0 125.0 L 69.0 125.0 L 70.0 125.0 L 71.0 125.0 L 72.0 125.0 L 73.0 125.0 L 74.0 125.0 L 75.0 125.0 L 76.0 125.0 L 77.0 125.0 L 77.5 125.0 Z" stroke="none" fill="rgb(255,168,40)" />
<path d="M 84.5 124.0 L 85.0 124.0 L 85.66666666666667 123.66666666666667 L 86.0 123.0 L 86.0 122.0 L 86.0 121.0 L 86.0 120.0 L 86.0 119.0 L 86.0 118.0 L 86.0 117.0 L 86.0 116.0 L 86.0 115.0 L 86.0 114.0 L 86.0 113.0 L 86.0 112.0 L 86.0 111.0 L 86.0 110.0 L 86.0 109.0 L 86.0 108.0 L 86.0 107.0 L 86.0 106.0 L 86.0 105.0 L 86.0 104.0 L 86.0 103.0 L 85.66666666666667 102.0 L 85.0 101.33333333333333 L 84.0 101.0 L 83.0 101.0 L 82.0 101.0 L 81.0 101.0 L 80.0 101.0 L 79.33333333333333 101.33333333333333 L 79.0 102.0 L 79.0 103.0 L 79.0 104.0 L 79.0 105.0 L 79.0 106.0 L 79.0 107.0 L 79.0 108.0 L 79.0 109.0 L 79.0 110.0 L 79.0 111.0 L 79.0 112.0 L 79.0 113.0 L 79.0 114.0 L 79.0 115.0 L 79.0 116.0 L 79.0 117.0 L 79.0 118.0 L 79.0 119.0 L 79.0 120.0 L 79.0 121.0 L 79.0 122.0 L 79.0 123.0 L 79.33333333333333 123.66666666666667 L 80.0 124.0 L 81.0 124.0 L 82.0 124.0 L 83.0 124.0 L 83.5 124.0 Z" stroke="none" fill="rgb(185,146,119)" />
<path d="M 91.5 124.0 L 92.0 124.0 L 92.66666666666667 123.66666666666667 L 93.0 123.0 L 93.0 122.0 L 93.0 121.0 L 93.0 120.0 L 93.0 119.0 L 93.0 118.0 L 93.0 117.0 L 93.0 116.0 L 93.0 115.0 L 93.0 114.0 L 93.0 113.0 L 93.0 112.0 L 93.0 111.0 L 93.0 110.0 L 93.0 109.0 L 93.0 108.0 L 93.0 107.0 L 93.0 106.0 L 93.0 105.0 L 93.0 104.0 L 93.0 103.0 L 92.66666666666667 102.0 L 92.0 101.33333333333333 L 91.0 101.0 L 90.0 101.0 L 89.0 101.0 L 88.0 101.0 L 87.0 101.0 L 86.33333333333333 101.33333333333333 L 86.0 102.0 L 86.0 103.0 L 86.0 104.0 L 86.0 105.0 L 86.0 106.0 L 86.0 107.0 L 86.0 108.0 L 86.0 109.0 L 86.0 110.0 L 86.0 111.0 L 86.0 112.0 L 86.0 113.0 L 86.0 114.0 L 86.0 115.0 L 86.0 116.0 L 86.0 117.0 L 86.0 118.0 L 86.0 119.0 L 86.0 120.0 L 86.0 121.0 L 86.0 122.0 L 86.0 123.0 L 86.33333333333333 123.66666666666667 L 87.0 124.0 L 88.0 124.0 L 89.0 124.0 L 90.0 124.0 L 90.5 124.0 Z" stroke="none" fill="rgb(250,219,188)" />
<path d="M 95.5 124.0 L 96.0 124.0 L 97.0 124.0 L 98.0 124.0 L 99.0 123.66666666666667 L 99.66666666666667 123.0 L 100.0 122.0 L 100.0 121.0 L 100.0 120.0 L 100.0 119.0 L 100.0 118.0 L 100.0 117.0 L 100.0 116.0 L 100.0 115.0 L 100.0 114.0 L 100.0 113.0 L 100.0 112.0 L 100.0 111.0 L 100.0 110.0 L 100.0 109.0 L 100.0 108.0 L 100.0 107.0 L 100.0 106.0 L 100.0 105.0 L 100.0 104.0 L 100.0 103.0 L 99.66666666666667 102.0 L 99.0 101.33333333333333 L 98.0 101.0 L 97.0 101.0 L 96.0 101.0 L 95.0 101.0 L 94.0 101.0 L 93.33333333333333 101.33333333333333 L 93.0 102.0 L 93.0 103.0 L 93.0 104.0 L 93.0 105.0 L 93.0 106.0 L 93.0 107.0 L 93.0 108.0 L 93.0 109.0 L 93.0 110.0 L 93.0 111.0 L 93.0 112.0 L 93.0 113.0 L 93.0 114.0 L 93.0 115.0 L 93.0 116.0 L 93.0 117.0 L 93.0 118.0 L 93.0 119.0 L 93.0 120.0 L 93.0 121.0 L 93.0 122.0 L 93.0 123.0 L 93.33333333333333 123.66666666666667 L 94.0 124.0 L 94.5 124.0 Z" stroke="none" fill="rgb(185,146,119)" />
<path d="M 108.0 125.5 L 108.0 125.0 L 108.0 124.0 L 108.0 123.0 L 108.0 122.0 L 108.0 121.0 L 108.0 120.0 L 108.0 119.0 L 108.0 118.0 L 108.0 117.0 L 108.0 116.0 L 108.0 115.0 L 108.0 114.0 L 108.0 113.0 L 108.0 112.0 L 108.0 111.0 L 108.0 110.0 L 108.0 109.0 L 108.0 108.0 L 108.0 107.0 L 108.0 106.0 L 108.0 105.0 L 108.0 104.0 L 108.0 103.0 L 107.66666666666667 102.0 L 107.0 101.33333333333333 L 106.0 101.0 L 105.0 101.0 L 104.0 101.0 L 103.0 101.0 L 102.0 101.0 L 101.0 101.0 L 100.33333333333333 101.33333333333333 L 100.0 102.0 L 100.0 103.0 L 100.0 104.0 L 100.0 105.0 L 100.0 106.0 L 100.0 107.0 L 100.0 108.0 L 100.0 109.0 L 100.0 110.0 L 100.0 111.0 L 100.0 112.0 L 100.0 113.0 L 100.0 114.0 L 100.0 115.0 L 100.0 116.0 L 100.0 117.0 L 100.0 118.0 L 100.0 119.0 L 100.0 120.0 L 100.0 121.0 L 99.66666666666667 122.0 L 99.33333333333333 123.0 L 99.0 124.0 L 99.0 125.0 L 99.33333333333333 125.66666666666667 L 100.0 126.0 L 101.0 126.0 L 102.0 126.0 L 103.0 126.0 L 104.0 126.0 L 105.0 126.0 L 106.0 126.0 L 107.0 126.0 L 107.5 126.0 Z" stroke="none" fill="rgb(250,221,195)" />
<path d="M 61.5 121.0 L 61.666666666666664 120.66666666666667 L 62.0 120.0 L 62.0 119.0 L 62.0 118.0 L 62.0 117.0 L 62.0 116.0 L 62.0 115.0 L 62.0 114.0 L 62.0 113.0 L 62.0 112.0 L 62.0 111.0 L 62.0 110.0 L 62.0 109.0 L 62.0 108.0 L 62.0 107.0 L 62.0 106.0 L 62.0 105.0 L 62.0 104.0 L 61.666666666666664 103.0 L 61.0 102.33333333333333 L 60.0 102.0 L 59.0 102.0 L 58.0 102.0 L 57.0 102.0 L 56.0 102.0 L 55.0 102.0 L 54.0 102.33333333333333 L 53.333333333333336 103.0 L 53.0 104.0 L 53.0 105.0 L 53.0 106.0 L 53.0 107.0 L 53.0 108.0 L 53.0 109.0 L 53.0 110.0 L 53.0 111.0 L 53.0 112.0 L 53.0 113.0 L 53.0 114.0 L 53.0 115.0 L 53.0 116.0 L 53.0 117.0 L 53.0 118.0 L 53.0 119.0 L 53.0 120.0 L 53.333333333333336 120.66666666666667 L 54.0 121.0 L 55.0 121.0 L 56.0 121.0 L 57.0 121.0 L 58.0 121.0 L 59.0 121.0 L 60.0 121.0 L 60.5 121.0 Z" stroke="none" fill="rgb(83,111,121)" />
<path d="M 75.0 120.5 L 75.0 120.0 L 75.0 119.0 L 75.0 118.0 L 75.0 117.0 L 75.0 116.0 L 75.0 115.0 L 75.0 114.0 L 75.0 113.0 L 75.0 112.0 L 75.0 111.0 L 75.0 110.0 L 75.0 109.0 L 75.0 108.0 L 75.0 107.0 L 75.0 106.0 L 75.0 105.0 L 75.0 104.0 L 75.0 103.0 L 74.66666666666667 102.33333333333333 L 74.0 102.0 L 73.0 102.0 L 72.0 102.0 L 71.0 102.0 L 70.0 102.0 L 69.0 102.0 L 68.0 102.0 L 67.0 102.33333333333333 L 66.33333333333333 103.0 L 66.0 104.0 L 66.0 105.0 L 66.0 106.0 L 66.0 107.0 L 66.0 108.0 L 66.0 109.0 L 66.0 110.0 L 66.0 111.0 L 66.0 112.0 L 66.0 113.0 L 66.0 114.0 L 66.0 115.0 L 66.0 116.0 L 66.0 117.0 L 66.0 118.0 L 66.0 119.0 L 66.0 120.0 L 66.33333333333333 120.66666666666667 L 67.0 121.0 L 68.0 121.0 L 69.0 121.0 L 70.0 121.0 L 71.0 121.0 L 72.0 121.0 L 73.0 121.0 L 74.0 121.0 L 74.5 121.0 Z" stroke="none" fill="rgb(83,111,121)" />
<path d="M 11.5 115.5 L 12.0 115.66666666666667 L 13.0 116.0 L 14.0 116.0 L 15.0 116.0 L 16.0 116.0 L 17.0 116.0 L 17.666666666666668 115.66666666666667 L 18.0 115.0 L 18.0 114.0 L 18.0 113.0 L 18.0 112.0 L 18.0 111.0 L 18.0 110.0 L 18.0 109.0 L 18.0 108.0 L 18.0 107.0 L 17.666666666666668 106.0 L 17.0 105.0 L 16.0 104.33333333333333 L 15.0 104.0 L 14.0 104.0 L 13.0 104.33333333333333 L 12.333333333333334 105.0 L 11.666666666666666 106.0 L 11.333333333333334 107.0 L 11.0 108.0 L 11.0 109.0 L 11.0 110.0 L 11.0 111.0 L 11.0 112.0 L 11.0 113.0 L 11.0 114.0 L 11.0 114.5 Z" stroke="none" fill="rgb(47,124,49)" />
<path d="M 116.5 116.0 L 117.0 115.66666666666667 L 117.66666666666667 115.0 L 118.0 114.0 L 118.0 113.0 L 118.0 112.0 L 118.0 111.0 L 118.0 110.0 L 118.0 109.0 L 117.66666666666667 108.0 L 117.33333333333333 107.0 L 116.66666666666667 106.0 L 116.0 105.0 L 115.0 104.33333333333333 L 114.0 104.0 L 113.0 104.0 L 112.0 104.33333333333333 L 111.33333333333333 105.0 L 110.66666666666667 106.0 L 110.33333333333333 107.0 L 110.0 108.0 L 110.0 109.0 L 110.0 110.0 L 110.0 111.0 L 110.0 112.0 L 110.0 113.0 L 110.0 114.0 L 110.33333333333333 115.0 L 111.0 115.66666666666667 L 112.0 116.0 L 113.0 116.0 L 114.0 116.0 L 115.0 116.0 L 115.5 116.0 Z" stroke="none" fill="rgb(47,124,49)" />
<path d="M 14.5 124.0 L 15.0 124.0 L 16.0 124.0 L 17.0 124.0 L 17.666666666666668 123.66666666666667 L 18.0 123.0 L 18.0 122.0 L 18.0 121.0 L 18.0 120.0 L 18.0 119.0 L 18.0 118.0 L 17.666666666666668 117.0 L 17.0 116.33333333333333 L 16.0 116.0 L 15.0 116.0 L 14.0 116.0 L 13.0 116.0 L 12.0 116.33333333333333 L 11.333333333333334 117.0 L 11.0 118.0 L 11.0 119.0 L 11.0 120.0 L 11.0 121.0 L 11.0 122.0 L 11.0 123.0 L 11.333333333333334 123.66666666666667 L 12.0 124.0 L 13.0 124.0 L 13.5 124.0 Z" stroke="none" fill="rgb(226,192,144)" />
<path d="M 110.5 124.0 L 111.0 124.0 L 112.0 124.0 L 113.0 124.0 L 114.0 124.0 L 115.0 124.0 L 116.0 124.0 L 116.66666666666667 123.66666666666667 L 117.0 123.0 L 117.0 122.0 L 117.0 121.0 L 117.0 120.0 L 117.0 119.0 L 117.0 118.0 L 117.0 117.0 L 116.66666666666667 116.33333333333333 L 116.0 116.0 L 115.0 116.0 L 114.0 116.0 L 113.0 116.0 L 112.0 116.0 L 111.0 116.0 L 110.33333333333333 116.33333333333333 L 110.0 117.0 L 110.0 118.0 L 110.0 119.0 L 110.0 120.0 L 110.0 121.0 L 110.0 122.0 L 110.0 123.0 L 110.0 123.5 Z" stroke="none" fill="rgb(226,192,144)" />
</svg>
