<?xml version="1.0" encoding="UTF-8" standalone="no"?>
<!DOCTYPE svg PUBLIC "-//W3C//DTD SVG 1.1//EN"
"http://www.w3.org/Graphics/SVG/1.1/DTD/svg11.dtd">
<svg width="128" height="128" xmlns="http://www.w3.org/2000/svg" version="1.1">
<path d="M 26.5 128.0 L 27.0 128.0 L 28.0 128.0 L 29.0 128.0 L 30.0 128.0 L 31.0 128.0 L 32.0 128.0 L 33.0 128.0 L 34.0 128.0 L 35.0 128.0 L 36.0 128.0 L 37.0 128.0 L 38.0 128.0 L 39.0 128.0 L 40.0 128.0 L 41.0 128.0 L 42.0 128.0 L 43.0 128.0 L 44.0 128.0 L 45.0 128.0 L 46.0 128.0 L 47.0 128.0 L 48.0 128.0 L 49.0 128.0 L 50.0 128.0 L 51.0 128.0 L 52.0 128.0 L 53.0 128.0 L 54.0 128.0 L 55.0 128.0 L 56.0 128.0 L 57.0 128.0 L 58.0 128.0 L 59.0 128.0 L 60.0 128.0 L 61.0 128.0 L 62.0 128.0 L 63.0 128.0 L 64.0 128.0 L 65.0 128.0 L 66.0 128.0 L 67.0 128.0 L 68.0 128.0 L 69.0 128.0 L 70.0 128.0 L 71.0 128.0 L 72.0 128.0 L 73.0 128.0 L 74.0 128.0 L 75.0 128.0 L 76.0 128.0 L 77.0 128.0 L 78.0 128.0 L 79.0 128.0 L 80.0 128.0 L 81.0 128.0 L 82.0 128.0 L 83.0 128.0 L 84.0 128.0 L 85.0 128.0 L 86.0 128.0 L 87.0 128.0 L 88.0 128.0 L 89.0 128.0 L 90.0 128.0 L 91.0 128.0 L 92.0 128.0 L 93.0 128.0 L 94.0 128.0 L 95.0 128.0 L 96.0 128.0 L 97.0 128.0 L 98.0 128.0 L 99.0 128.0 L 100.0 128.0 L 101.0 128.0 L 102.0 128.0 L 103.0 128.0 L 104.0 128.0 L 105.0 128.0 L 106.0 128.0 L 107.0 128.0 L 108.0 128.0 L 109.0 128.0 L 110.0 128.0 L 111.0 128.0 L 112.0 128.0 L 113.0 128.0 L 114.0 128.0 L 115.0 128.0 L 116.0 128.0 L 117.0 128.0 L 118.0 128.0 L 119.0 128.0 L 120.0 128.0 L 121.0 128.0 L 122.0 128.0 L 123.0 128.0 L 124.0 128.0 L 125.0 128.0 L 126.0 128.0 L 127.0 128.0 L 127.66666666666667 127.66666666666667 L 128.0 127.0 L 128.0 126.0 L 128.0 125.0 L 128.0 124.0 L 128.0 123.0 L 128.0 122.0 L 128.0 121.0 L 128.0 120.0 L 128.0 119.0 L 128.0 118.0 L 128.0 117.0 L 128.0 116.0 L 128.0 115.0 L 128.0 114.0 L 128.0 113.0 L 128.0 112.0 L 128.0 111.0 L 128.0 110.0 L 128.0 109.0 L 128.0 108.0 L 128.0 107.0 L 128.0 106.0 L 128.0 105.0 L 128.0 104.0 L 128.0 103.0 L 128.0 102.0 L 128.0 101.0 L 128.0 100.0 L 128.0 99.0 L 128.0 98.0 L 128.0 97.0 L 128.0 96.0 L 128.0 95.0 L 128.0 94.0 L 128.0 93.0 L 128.0 92.0 L 128.0 91.0 L 128.0 90.0 L 128.0 89.0 L 128.0 88.0 L 128.0 87.0 L 128.0 86.0 L 128.0 85.0 L 128.0 84.0 L 128.0 83.0 L 128.0 82.0 L 128.0 81.0 L 128.0 80.0 L 128.0 79.0 L 128.0 78.0 L 128.0 77.0 L 128.0 76.0 L 128.0 75.0 L 128.0 74.0 L 128.0 73.0 L 128.0 72.0 L 128.0 71.0 L 128.0 70.0 L 128.0 69.0 L 128.0 68.0 L 128.0 67.0 L 128.0 66.0 L 128.0 65.0 L 128.0 64.0 L 128.0 63.0 L 128.0 62.0 L 128.0 61.0 L 128.0 60.0 L 128.0 59.0 L 128.0 58.0 L 128.0 57.0 L 128.0 56.0 L 128.0 55.0 L 128.0 54.0 L 128.0 53.0 L 128.0 52.0 L 128.0 51.0 L 128.0 50.0 L 128.0 49.0 L 128.0 48.0 L 128.0 47.0 L 128.0 46.0 L 128.0 45.0 L 128.0 44.0 L 128.0 43.0 L 128.0 42.0 L 128.0 41.0 L 128.0 40.0 L 128.0 39.0 L 128.0 38.0 L 128.0 37.0 L 128.0 36.0 L 128.0 35.0 L 128.0 34.0 L 128.0 33.0 L 128.0 32.0 L 128.0 31.0 L 128.0 30.0 L 128.0 29.0 L 128.0 28.0 L 128.0 27.0 L 128.0 26.0 L 128.0 25.0 L 128.0 24.0 L 128.0 23.0 L 128.0 22.0 L 128.0 21.0 L 128.0 20.0 L 128.0 19.0 L 128.0 18.0 L 128.0 17.0 L 128.0 16.0 L 128.0 15.0 L 128.0 14.0 L 128.0 13.0 L 128.0 12.0 L 128.0 11.0 L 128.0 10.0 L 128.0 9.0 L 128.0 8.0 L 128.0 7.0 L 128.0 6.0 L 128.0 5.0 L 128.0 4.0 L 128.0 3.0 L 128.0 2.0 L 128.0 1.0 L 127.66666666666667 0.3333333333333333 L 127.0 0.0 L 126.0 0.0 L 125.0 0.0 L 124.0 0.0 L 123.0 0.0 L 122.0 0.0 L 121.0 0.0 L 120.0 0.0 L 119.0 0.0 L 118.0 0.0 L 117.0 0.0 L 116.0 0.0 L 115.0 0.0 L 114.0 0.0 L 113.0 0.0 L 112.0 0.0 L 111.0 0.0 L 110.0 0.0 L 109.0 0.0 L 108.0 0.0 L 107.0 0.0 L 106.0 0.0 L 105.0 0.0 L 104.0 0.0 L 103.0 0.0 L 102.0 0.0 L 101.0 0.0 L 100.0 0.0 L 99.0 0.0 L 98.0 0.0 L 97.0 0.0 L 96.0 0.0 L 95.0 0.0 L 94.0 0.0 L 93.0 0.0 L 92.0 0.0 L 91.0 0.0 L 90.0 0.0 L 89.0 0.0 L 88.0 0.0 L 87.0 0.0 L 86.0 0.0 L 85.0 0.0 L 84.0 0.0 L 83.0 0.0 L 82.0 0.0 L 81.0 0.0 L 80.0 0.0 L 79.0 0.0 L 78.0 0.0 L 77.0 0.0 L 76.0 0.0 L 75.0 0.0 L 74.0 0.0 L 73.0 0.0 L 72.0 0.0 L 71.0 0.0 L 70.0 0.0 L 69.0 0.0 L 68.0 0.0 L 67.0 0.0 L 66.0 0.0 L 65.0 0.0 L 64.0 0.0 L 63.0 0.0 L 62.0 0.0 L 61.0 0.0 L 60.0 0.0 L 59.0 0.0 L 58.0 0.0 L 57.0 0.0 L 56.0 0.0 L 55.0 0.0 L 54.0 0.0 L 53.0 0.0 L 52.0 0.0 L 51.0 0.0 L 50.0 0.0 L 49.0 0.0 L 48.0 0.0 L 47.0 0.0 L 46.0 0.0 L 45.0 0.0 L 44.0 0.0 L 43.0 0.0 L 42.0 0.0 L 41.0 0.0 L 40.0 0.0 L 39.0 0.0 L 38.0 0.0 L 37.0 0.0 L 36.0 0.0 L 35.0 0.0 L 34.0 0.0 L 33.0 0.0 L 32.0 0.0 L 31.0 0.0 L 30.0 0.0 L 29.0 0.0 L 28.0 0.0 L 27.0 0.0 L 26.0 0.0 L 25.0 0.0 L 24.0 0.0 L 23.0 0.0 L 22.0 0.0 L 21.0 0.0 L 20.0 0.0 L 19.0 0.0 L 18.0 0.0 L 17.0 0.0 L 16.0 0.0 L 15.0 0.0 L 14.0 0.0 L 13.0 0.0 L 12.0 0.0 L 11.0 0.0 L 10.0 0.0 L 9.0 0.0 L 8.0 0.0 L 7.0 0.0 L 6.0 0.0 L 5.0 0.0 L 4.0 0.0 L 3.0 0.0 L 2.0 0.0 L 1.0 0.0 L 0.3333333333333333 0.3333333333333333 L 0.0 1.0 L 0.0 2.0 L 0.0 3.0 L 0.0 4.0 L 0.0 5.0 L 0.0 6.0 L 0.0 7.0 L 0.0 8.0 L 0.0 9.0 L 0.0 10.0 L 0.0 11.0 L 0.0 12.0 L 0.0 13.0 L 0.0 14.0 L 0.0 15.0 L 0.0 16.0 L 0.0 17.0 L 0.0 18.0 L 0.0 19.0 L 0.0 20.0 L 0.0 21.0 L 0.0 22.0 L 0.0 23.0 L 0.0 24.0 L 0.0 25.0 L 0.0 26.0 L 0.0 27.0 L 0.0 28.0 L 0.0 29.0 L 0.0 30.0 L 0.0 31.0 L 0.0 32.0 L 0.0 33.0 L 0.0 34.0 L 0.0 35.0 L 0.0 36.0 L 0.0 37.0 L 0.0 38.0 L 0.0 39.0 L 0.0 40.0 L 0.0 41.0 L 0.0 42.0 L 0.0 43.0 L 0.0 44.0 L 0.0 45.0 L 0.0 46.0 L 0.0 47.0 L 0.0 48.0 L 0.0 49.0 L 0.0 50.0 L 0.0 51.0 L 0.0 52.0 L 0.0 53.0 L 0.0 54.0 L 0.0 55.0 L 0.0 56.0 L 0.0 57.0 L 0.0 58.0 L 0.0 59.0 L 0.0 60.0 L 0.0 61.0 L 0.0 62.0 L 0.0 63.0 L 0.0 64.0 L 0.0 65.0 L 0.0 66.0 L 0.0 67.0 L 0.0 68.0 L 0.0 69.0 L 0.0 70.0 L 0.0 71.0 L 0.0 72.0 L 0.0 73.0 L 0.0 74.0 L 0.0 75.0 L 0.0 76.0 L 0.0 77.0 L 0.0 78.0 L 0.0 79.0 L 0.0 80.0 L 0.0 81.0 L 0.0 82.0 L 0.0 83.0 L 0.0 84.0 L 0.0 85.0 L 0.0 86.0 L 0.0 87.0 L 0.0 88.0 L 0.0 89.0 L 0.0 90.0 L 0.0 91.0 L 0.0 92.0 L 0.0 93.0 L 0.0 94.0 L 0.0 95.0 L 0.0 96.0 L 0.0 97.0 L 0.0 98.0 L 0.0 99.0 L 0.0 100.0 L 0.0 101.0 L 0.0 102.0 L 0.0 103.0 L 0.0 104.0 L 0.0 105.0 L 0.0 106.0 L 0.0 107.0 L 0.0 108.0 L 0.0 109.0 L 0.0 110.0 L 0.0 111.0 L 0.0 112.0 L 0.0 113.0 L 0.0 114.0 L 0.0 115.0 L 0.0 116.0 L 0.0 117.0 L 0.0 118.0 L 0.0 119.0 L 0.0 120.0 L 0.0 121.0 L 0.0 122.0 L 0.0 123.0 L 0.0 124.0 L 0.0 125.0 L 0.0 126.0 L 0.0 127.0 L 0.3333333333333333 127.66666666666667 L 1.0 128.0 L 2.0 128.0 L 3.0 128.0 L 4.0 128.0 L 5.0 128.0 L 6.0 128.0 L 7.0 128.0 L 8.0 128.0 L 9.0 128.0 L 10.0 128.0 L 11.0 128.0 L 12.0 128.0 L 13.0 128.0 L 14.0 128.0 L 15.0 128.0 L 16.0 128.0 L 17.0 128.0 L 18.0 128.0 L 19.0 128.0 L 20.0 128.0 L 21.0 128.0 L 22.0 128.0 L 23.0 128.0 L 24.0 128.0 L 25.0 128.0 L 25.5 128.0 Z" stroke="none" fill="rgb(255,255,255)" />
<path d="M 59.5 104.0 L 60.0 103.66666666666667 L 61.0 103.0 L 62.0 102.33333333333333 L 63.0 101.66666666666667 L 64.0 101.0 L 65.0 100.0 L 66.0 99.0 L 67.0 98.0 L 68.0 97.0 L 69.0 96.0 L 70.0 95.0 L 70.66666666666667 94.0 L 71.33333333333333 93.0 L 72.0 92.0 L 73.0 91.0 L 74.0 90.0 L 75.0 89.0 L 76.0 88.0 L 77.0 87.0 L 77.66666666666667 86.0 L 78.0 85.0 L 78.0 84.0 L 77.66666666666667 83.0 L 77.0 82.0 L 76.0 81.33333333333333 L 75.0 81.0 L 74.0 80.66666666666667 L 73.33333333333333 80.0 L 73.0 79.0 L 73.0 78.0 L 72.66666666666667 77.0 L 72.0 76.0 L 71.0 75.0 L 70.0 74.0 L 69.0 73.0 L 68.0 72.0 L 67.0 71.0 L 66.0 70.0 L 65.0 69.0 L 64.0 68.0 L 63.0 67.0 L 62.0 66.0 L 61.0 65.0 L 60.0 64.0 L 59.0 63.0 L 58.0 62.0 L 57.0 61.0 L 56.0 60.0 L 55.0 59.0 L 54.0 58.0 L 53.0 57.0 L 52.0 56.0 L 51.0 55.0 L 50.0 54.0 L 49.0 53.0 L 48.0 52.0 L 47.0 51.0 L 46.0 50.0 L 45.0 49.333333333333336 L 44.0 49.0 L 43.0 49.333333333333336 L 42.0 49.666666666666664 L 41.333333333333336 50.333333333333336 L 40.666666666666664 51.0 L 40.0 52.0 L 39.0 53.0 L 38.0 54.0 L 37.333333333333336 55.0 L 36.666666666666664 56.0 L 36.0 57.0 L 35.0 58.0 L 34.0 59.0 L 33.0 59.666666666666664 L 32.0 60.333333333333336 L 31.0 61.0 L 30.0 62.0 L 29.0 63.0 L 28.0 63.666666666666664 L 27.0 64.33333333333333 L 26.0 65.0 L 25.0 65.66666666666667 L 24.0 66.33333333333333 L 23.0 66.66666666666667 L 22.0 67.33333333333333 L 21.0 67.66666666666667 L 20.0 68.33333333333333 L 19.0 68.66666666666667 L 18.0 69.0 L 17.333333333333332 69.33333333333333 L 17.0 70.0 L 17.0 71.0 L 17.333333333333332 72.0 L 18.0 73.0 L 19.0 74.0 L 20.0 75.0 L 21.0 76.0 L 22.0 77.0 L 23.0 78.0 L 24.0 79.0 L 25.0 80.0 L 26.0 81.0 L 26.666666666666668 82.0 L 27.333333333333332 83.0 L 28.0 84.0 L 29.0 85.0 L 30.0 86.0 L 31.0 87.0 L 32.0 88.0 L 33.0 89.0 L 34.0 90.0 L 34.666666666666664 91.0 L 35.333333333333336 92.0 L 36.0 93.0 L 37.0 94.0 L 38.0 95.0 L 39.0 96.0 L 40.0 97.0 L 41.0 98.0 L 42.0 99.0 L 42.666666666666664 100.0 L 43.333333333333336 101.0 L 44.0 102.0 L 45.0 103.0 L 46.0 104.0 L 47.0 105.0 L 48.0 106.0 L 49.0 106.66666666666667 L 50.0 107.0 L 51.0 107.0 L 52.0 107.0 L 53.0 107.0 L 54.0 106.66666666666667 L 55.0 106.33333333333333 L 56.0 105.66666666666667 L 57.0 105.33333333333333 L 58.0 104.66666666666667 L 58.5 104.5 Z" stroke="none" fill="rgb(102,187,106)" />
<path d="M 88.5 67.0 L 89.0 67.0 L 90.0 66.66666666666667 L 90.66666666666667 66.0 L 91.33333333333333 65.0 L 92.0 64.0 L 93.0 63.0 L 94.0 62.0 L 95.0 61.0 L 96.0 60.0 L 97.0 59.0 L 98.0 58.0 L 99.0 57.0 L 100.0 56.0 L 101.0 55.0 L 102.0 54.0 L 103.0 53.333333333333336 L 104.0 52.666666666666664 L 105.0 52.0 L 106.0 51.0 L 107.0 50.333333333333336 L 108.0 49.666666666666664 L 109.0 49.0 L 110.0 48.333333333333336 L 111.0 47.666666666666664 L 112.0 47.333333333333336 L 113.0 46.666666666666664 L 114.0 46.333333333333336 L 115.0 45.666666666666664 L 116.0 45.333333333333336 L 117.0 45.0 L 118.0 44.666666666666664 L 119.0 44.333333333333336 L 120.0 43.666666666666664 L 120.66666666666667 43.0 L 121.0 42.0 L 120.66666666666667 41.333333333333336 L 120.0 40.666666666666664 L 119.0 40.0 L 118.0 39.0 L 117.0 38.0 L 116.0 37.0 L 115.0 36.0 L 114.0 35.0 L 113.0 34.0 L 112.0 33.0 L 111.0 32.0 L 110.0 31.0 L 109.0 30.0 L 108.0 29.0 L 107.0 28.0 L 106.0 27.0 L 105.0 26.0 L 104.0 25.0 L 103.0 24.0 L 102.0 23.0 L 101.0 22.0 L 100.0 21.0 L 99.0 20.0 L 98.0 19.0 L 97.0 18.0 L 96.0 17.0 L 95.0 16.333333333333332 L 94.0 15.666666666666666 L 93.0 15.0 L 92.0 14.0 L 91.0 13.0 L 90.0 12.0 L 89.0 11.0 L 88.0 10.0 L 87.0 9.0 L 86.0 8.0 L 85.0 7.333333333333333 L 84.0 7.0 L 83.0 7.333333333333333 L 82.0 7.666666666666667 L 81.0 8.0 L 80.0 8.333333333333334 L 79.0 8.666666666666666 L 78.0 9.333333333333334 L 77.0 9.666666666666666 L 76.0 10.333333333333334 L 75.0 10.666666666666666 L 74.0 11.333333333333334 L 73.0 11.666666666666666 L 72.0 12.333333333333334 L 71.0 13.0 L 70.0 13.666666666666666 L 69.0 14.333333333333334 L 68.0 15.0 L 67.0 16.0 L 66.0 17.0 L 65.0 18.0 L 64.0 19.0 L 63.0 20.0 L 62.0 21.0 L 61.0 22.0 L 60.0 23.0 L 59.333333333333336 24.0 L 58.666666666666664 25.0 L 58.0 26.0 L 57.0 27.0 L 56.333333333333336 28.0 L 55.666666666666664 29.0 L 55.333333333333336 30.0 L 55.0 31.0 L 55.0 32.0 L 55.0 33.0 L 55.0 34.0 L 55.333333333333336 35.0 L 56.0 36.0 L 57.0 37.0 L 58.0 38.0 L 59.0 39.0 L 60.0 40.0 L 61.0 40.666666666666664 L 62.0 41.0 L 62.666666666666664 40.666666666666664 L 63.0 40.0 L 63.333333333333336 39.0 L 64.0 38.0 L 65.0 37.0 L 66.0 36.0 L 67.0 35.0 L 68.0 34.0 L 69.0 33.333333333333336 L 70.0 32.666666666666664 L 71.0 32.333333333333336 L 72.0 32.0 L 73.0 32.0 L 74.0 31.666666666666668 L 75.0 31.333333333333332 L 76.0 31.0 L 77.0 31.0 L 78.0 31.0 L 79.0 31.333333333333332 L 80.0 31.666666666666668 L 81.0 32.333333333333336 L 82.0 32.666666666666664 L 83.0 33.333333333333336 L 84.0 34.0 L 85.0 35.0 L 86.0 36.0 L 87.0 37.0 L 88.0 38.0 L 88.66666666666667 39.0 L 89.0 40.0 L 89.33333333333333 41.0 L 89.66666666666667 42.0 L 90.0 43.0 L 90.0 44.0 L 90.0 45.0 L 90.0 46.0 L 90.0 47.0 L 90.0 48.0 L 90.0 49.0 L 89.66666666666667 50.0 L 89.33333333333333 51.0 L 88.66666666666667 52.0 L 88.0 53.0 L 87.0 54.0 L 86.0 55.0 L 85.0 56.0 L 84.0 57.0 L 83.0 58.0 L 82.33333333333333 59.0 L 82.0 60.0 L 82.33333333333333 61.0 L 83.0 62.0 L 84.0 63.0 L 85.0 64.0 L 86.0 65.0 L 87.0 66.0 L 87.5 66.5 Z" stroke="none" fill="rgb(102,187,106)" />
<path d="M 107.5 110.5 L 108.0 111.0 L 109.0 111.66666666666667 L 110.0 112.0 L 111.0 112.0 L 112.0 111.66666666666667 L 112.66666666666667 111.0 L 113.33333333333333 110.0 L 114.0 109.66666666666667 L 114.66666666666667 110.0 L 115.0 111.0 L 115.33333333333333 112.0 L 116.0 113.0 L 116.66666666666667 114.0 L 117.33333333333333 114.66666666666667 L 118.0 115.33333333333333 L 119.0 115.66666666666667 L 120.0 116.0 L 121.0 116.0 L 122.0 116.0 L 123.0 116.0 L 123.66666666666667 115.66666666666667 L 124.0 115.0 L 124.0 114.0 L 124.0 113.0 L 124.0 112.0 L 124.0 111.0 L 124.0 110.0 L 123.66666666666667 109.0 L 123.33333333333333 108.0 L 123.0 107.0 L 123.0 106.0 L 123.0 105.0 L 123.0 104.0 L 122.66666666666667 103.0 L 122.33333333333333 102.0 L 122.0 101.0 L 122.0 100.0 L 122.0 99.0 L 122.0 98.0 L 122.0 97.0 L 122.0 96.0 L 122.0 95.0 L 122.0 94.0 L 122.0 93.0 L 122.0 92.0 L 122.0 91.0 L 122.0 90.0 L 122.0 89.0 L 122.0 88.0 L 122.0 87.0 L 122.0 86.0 L 122.0 85.0 L 122.0 84.0 L 122.0 83.0 L 122.0 82.0 L 122.0 81.0 L 122.0 80.0 L 122.0 79.0 L 122.0 78.0 L 122.0 77.0 L 121.66666666666667 76.0 L 121.33333333333333 75.0 L 120.66666666666667 74.0 L 120.33333333333333 73.0 L 119.66666666666667 72.0 L 119.0 71.33333333333333 L 118.0 70.66666666666667 L 117.0 70.33333333333333 L 116.0 69.66666666666667 L 115.0 69.33333333333333 L 114.0 69.0 L 113.0 69.0 L 112.0 69.0 L 111.0 69.0 L 110.0 69.0 L 109.0 69.0 L 108.0 69.0 L 107.0 69.0 L 106.0 69.0 L 105.0 69.0 L 104.0 69.33333333333333 L 103.0 69.66666666666667 L 102.0 70.0 L 101.0 70.0 L 100.0 70.33333333333333 L 99.0 70.66666666666667 L 98.0 71.33333333333333 L 97.0 71.66666666666667 L 96.0 72.0 L 95.0 72.0 L 94.0 72.0 L 93.0 72.0 L 92.0 72.0 L 91.0 72.33333333333333 L 90.0 73.0 L 89.0 74.0 L 88.0 75.0 L 87.0 76.0 L 86.33333333333333 77.0 L 85.66666666666667 78.0 L 85.33333333333333 79.0 L 85.0 80.0 L 85.0 81.0 L 84.66666666666667 82.0 L 84.33333333333333 83.0 L 84.0 84.0 L 84.0 85.0 L 84.0 86.0 L 84.0 87.0 L 84.0 88.0 L 84.0 89.0 L 84.0 90.0 L 84.0 91.0 L 84.0 92.0 L 84.33333333333333 93.0 L 84.66666666666667 94.0 L 85.33333333333333 94.66666666666667 L 86.0 95.0 L 87.0 95.0 L 88.0 95.0 L 89.0 94.66666666666667 L 90.0 94.66666666666667 L 90.66666666666667 95.0 L 91.33333333333333 96.0 L 91.66666666666667 97.0 L 92.33333333333333 98.0 L 93.0 98.66666666666667 L 94.0 99.0 L 95.0 99.0 L 96.0 98.66666666666667 L 97.0 98.66666666666667 L 97.66666666666667 99.0 L 98.0 100.0 L 98.33333333333333 101.0 L 98.66666666666667 102.0 L 99.0 103.0 L 99.33333333333333 104.0 L 100.0 104.66666666666667 L 101.0 105.0 L 102.0 105.0 L 103.0 105.0 L 104.0 104.66666666666667 L 105.0 104.66666666666667 L 105.66666666666667 105.0 L 106.0 106.0 L 106.0 107.0 L 106.33333333333333 108.0 L 106.66666666666667 109.0 L 107.0 109.5 Z" stroke="none" fill="rgb(224,224,224)" />
<path d="M 21.5 38.5 L 21.666666666666668 39.0 L 22.0 40.0 L 22.0 41.0 L 22.333333333333332 42.0 L 23.0 42.666666666666664 L 24.0 43.0 L 25.0 43.0 L 26.0 43.0 L 27.0 43.0 L 28.0 42.666666666666664 L 29.0 42.333333333333336 L 30.0 42.333333333333336 L 30.666666666666668 43.0 L 31.0 44.0 L 31.333333333333332 45.0 L 32.0 45.666666666666664 L 33.0 46.0 L 34.0 46.0 L 35.0 46.0 L 36.0 46.0 L 37.0 46.333333333333336 L 37.666666666666664 47.0 L 38.0 48.0 L 38.0 49.0 L 38.333333333333336 49.666666666666664 L 39.0 50.0 L 40.0 50.0 L 41.0 50.0 L 42.0 50.0 L 43.0 49.666666666666664 L 43.666666666666664 49.0 L 44.333333333333336 48.0 L 44.666666666666664 47.0 L 45.333333333333336 46.0 L 45.666666666666664 45.0 L 46.0 44.0 L 46.0 43.0 L 46.0 42.0 L 46.0 41.0 L 46.0 40.0 L 46.0 39.0 L 45.666666666666664 38.333333333333336 L 45.0 38.0 L 44.0 37.666666666666664 L 43.333333333333336 37.0 L 43.0 36.0 L 43.333333333333336 35.0 L 44.0 34.666666666666664 L 45.0 34.666666666666664 L 46.0 35.0 L 47.0 35.0 L 48.0 35.0 L 49.0 35.0 L 50.0 34.666666666666664 L 51.0 34.333333333333336 L 52.0 34.0 L 53.0 34.0 L 54.0 34.0 L 54.666666666666664 33.666666666666664 L 55.0 33.0 L 55.0 32.0 L 55.0 31.0 L 54.666666666666664 30.0 L 54.0 29.0 L 53.333333333333336 28.0 L 52.666666666666664 27.0 L 52.333333333333336 26.0 L 51.666666666666664 25.0 L 51.333333333333336 24.0 L 51.0 23.0 L 50.666666666666664 22.0 L 50.333333333333336 21.0 L 50.0 20.0 L 50.0 19.0 L 49.666666666666664 18.0 L 49.333333333333336 17.0 L 49.0 16.0 L 48.666666666666664 15.0 L 48.0 14.0 L 47.0 13.0 L 46.0 12.0 L 45.0 11.333333333333334 L 44.0 10.666666666666666 L 43.0 10.333333333333334 L 42.0 10.0 L 41.0 10.0 L 40.0 10.0 L 39.0 10.0 L 38.0 10.0 L 37.0 10.0 L 36.0 10.333333333333334 L 35.0 10.666666666666666 L 34.0 11.0 L 33.0 11.333333333333334 L 32.0 11.666666666666666 L 31.0 12.0 L 30.0 12.333333333333334 L 29.0 12.666666666666666 L 28.0 13.333333333333334 L 27.0 13.666666666666666 L 26.0 14.333333333333334 L 25.0 15.0 L 24.0 15.666666666666666 L 23.0 16.333333333333332 L 22.0 17.0 L 21.0 17.666666666666668 L 20.0 18.333333333333332 L 19.0 19.0 L 18.0 19.666666666666668 L 17.0 20.333333333333332 L 16.0 20.666666666666668 L 15.0 21.333333333333332 L 14.0 22.0 L 13.0 22.666666666666668 L 12.0 23.333333333333332 L 11.0 23.666666666666668 L 10.0 24.0 L 9.0 24.333333333333332 L 8.0 24.666666666666668 L 7.0 25.333333333333332 L 6.0 25.666666666666668 L 5.0 26.0 L 4.0 26.333333333333332 L 3.0 27.0 L 2.3333333333333335 28.0 L 2.0 29.0 L 2.0 30.0 L 2.3333333333333335 31.0 L 3.0 32.0 L 4.0 32.666666666666664 L 5.0 33.0 L 6.0 33.0 L 7.0 33.0 L 8.0 33.0 L 9.0 33.0 L 10.0 33.0 L 11.0 33.333333333333336 L 11.333333333333334 34.0 L 11.333333333333334 35.0 L 11.0 36.0 L 11.0 37.0 L 11.333333333333334 38.0 L 12.0 38.666666666666664 L 13.0 39.0 L 14.0 39.0 L 15.0 39.0 L 16.0 39.0 L 17.0 39.0 L 18.0 39.0 L 19.0 39.0 L 20.0 38.666666666666664 L 20.5 38.5 Z" stroke="none" fill="rgb(224,224,224)" />
<path d="M 57.5 62.5 L 58.0 63.0 L 59.0 64.0 L 60.0 65.0 L 61.0 66.0 L 62.0 67.0 L 63.0 68.0 L 64.0 69.0 L 65.0 70.0 L 66.0 71.0 L 67.0 72.0 L 68.0 73.0 L 69.0 74.0 L 70.0 75.0 L 71.0 76.0 L 72.0 77.0 L 72.66666666666667 78.0 L 73.33333333333333 79.0 L 74.0 80.0 L 75.0 81.0 L 76.0 82.0 L 77.0 82.66666666666667 L 78.0 83.0 L 79.0 82.66666666666667 L 80.0 82.0 L 81.0 81.0 L 81.66666666666667 80.0 L 82.33333333333333 79.0 L 83.0 78.0 L 83.66666666666667 77.0 L 84.33333333333333 76.0 L 85.0 75.0 L 85.66666666666667 74.0 L 86.33333333333333 73.0 L 87.0 72.0 L 88.0 71.0 L 88.66666666666667 70.0 L 89.0 69.0 L 89.0 68.0 L 88.66666666666667 67.0 L 88.0 66.0 L 87.0 65.0 L 86.0 64.0 L 85.0 63.0 L 84.0 62.0 L 83.0 61.0 L 82.0 60.0 L 81.0 59.0 L 80.0 58.0 L 79.0 57.0 L 78.0 56.0 L 77.0 55.0 L 76.0 54.0 L 75.0 53.0 L 74.0 52.0 L 73.0 51.0 L 72.0 50.0 L 71.0 49.0 L 70.0 48.0 L 69.0 47.0 L 68.0 46.0 L 67.0 45.0 L 66.0 44.0 L 65.0 43.0 L 64.0 42.0 L 63.0 41.333333333333336 L 62.0 40.666666666666664 L 61.0 40.0 L 60.0 39.0 L 59.0 38.0 L 58.0 37.0 L 57.0 36.0 L 56.0 35.0 L 55.0 34.333333333333336 L 54.0 34.0 L 53.0 34.333333333333336 L 52.0 35.0 L 51.333333333333336 36.0 L 50.666666666666664 37.0 L 50.0 38.0 L 49.333333333333336 39.0 L 48.666666666666664 40.0 L 48.0 41.0 L 47.0 42.0 L 46.333333333333336 43.0 L 45.666666666666664 44.0 L 45.333333333333336 45.0 L 44.666666666666664 46.0 L 44.333333333333336 47.0 L 44.0 48.0 L 44.333333333333336 49.0 L 45.0 50.0 L 46.0 51.0 L 47.0 52.0 L 48.0 53.0 L 49.0 54.0 L 50.0 55.0 L 51.0 56.0 L 52.0 57.0 L 53.0 58.0 L 54.0 59.0 L 55.0 60.0 L 56.0 61.0 L 56.5 61.5 Z" stroke="none" fill="rgb(255,236,179)" />
<path d="M 24.5 93.5 L 24.666666666666668 94.0 L 25.333333333333332 95.0 L 26.0 96.0 L 27.0 97.0 L 28.0 98.0 L 29.0 99.0 L 30.0 100.0 L 30.666666666666668 101.0 L 31.333333333333332 102.0 L 32.0 103.0 L 33.0 104.0 L 34.0 105.0 L 35.0 106.0 L 35.666666666666664 107.0 L 36.333333333333336 108.0 L 37.0 109.0 L 38.0 110.0 L 39.0 111.0 L 40.0 112.0 L 41.0 113.0 L 41.666666666666664 114.0 L 42.333333333333336 115.0 L 43.0 116.0 L 44.0 117.0 L 45.0 118.0 L 46.0 119.0 L 47.0 119.66666666666667 L 48.0 119.66666666666667 L 48.666666666666664 119.0 L 49.333333333333336 118.0 L 49.666666666666664 117.0 L 50.0 116.0 L 50.0 115.0 L 50.0 114.0 L 50.0 113.0 L 50.0 112.0 L 50.0 111.0 L 50.0 110.0 L 50.0 109.0 L 50.0 108.0 L 49.666666666666664 107.0 L 49.0 106.0 L 48.0 105.0 L 47.0 104.0 L 46.0 103.0 L 45.0 102.0 L 44.0 101.0 L 43.333333333333336 100.0 L 42.666666666666664 99.0 L 42.0 98.0 L 41.0 97.0 L 40.0 96.0 L 39.0 95.0 L 38.0 94.0 L 37.0 93.0 L 36.0 92.0 L 35.333333333333336 91.0 L 34.666666666666664 90.0 L 34.0 89.0 L 33.0 88.0 L 32.0 87.0 L 31.0 86.0 L 30.0 85.0 L 29.0 84.0 L 28.0 83.0 L 27.333333333333332 82.0 L 26.666666666666668 81.0 L 26.0 80.0 L 25.0 79.0 L 24.0 78.0 L 23.0 77.0 L 22.0 76.0 L 21.0 75.0 L 20.0 74.0 L 19.0 73.0 L 18.0 72.33333333333333 L 17.0 72.0 L 16.333333333333332 72.33333333333333 L 16.0 73.0 L 16.0 74.0 L 16.0 75.0 L 16.0 76.0 L 15.666666666666666 77.0 L 15.333333333333334 78.0 L 15.0 79.0 L 15.0 80.0 L 15.0 81.0 L 15.0 82.0 L 15.333333333333334 83.0 L 16.0 84.0 L 17.0 85.0 L 18.0 86.0 L 18.666666666666668 87.0 L 19.333333333333332 88.0 L 20.0 89.0 L 21.0 90.0 L 22.0 91.0 L 23.0 92.0 L 23.5 92.5 Z" stroke="none" fill="rgb(32,96,34)" />
<path d="M 71.5 50.5 L 72.0 51.0 L 73.0 52.0 L 74.0 53.0 L 75.0 54.0 L 76.0 55.0 L 77.0 56.0 L 78.0 57.0 L 79.0 58.0 L 80.0 59.0 L 81.0 59.666666666666664 L 82.0 59.666666666666664 L 83.0 59.0 L 84.0 58.0 L 85.0 57.0 L 86.0 56.0 L 87.0 55.0 L 88.0 54.0 L 88.66666666666667 53.0 L 89.33333333333333 52.0 L 89.66666666666667 51.0 L 90.0 50.0 L 90.0 49.0 L 90.0 48.0 L 90.0 47.0 L 90.0 46.0 L 90.0 45.0 L 90.0 44.0 L 90.0 43.0 L 90.0 42.0 L 89.66666666666667 41.0 L 89.33333333333333 40.0 L 89.0 39.0 L 88.66666666666667 38.0 L 88.0 37.0 L 87.0 36.0 L 86.0 35.0 L 85.0 34.0 L 84.0 33.333333333333336 L 83.0 32.666666666666664 L 82.0 32.333333333333336 L 81.0 31.666666666666668 L 80.0 31.333333333333332 L 79.0 31.0 L 78.0 31.0 L 77.0 31.0 L 76.0 31.0 L 75.0 31.0 L 74.0 31.333333333333332 L 73.0 31.666666666666668 L 72.0 32.0 L 71.0 32.0 L 70.0 32.333333333333336 L 69.0 32.666666666666664 L 68.0 33.333333333333336 L 67.0 34.0 L 66.0 35.0 L 65.0 36.0 L 64.0 37.0 L 63.333333333333336 38.0 L 63.0 39.0 L 63.0 40.0 L 63.0 41.0 L 63.333333333333336 42.0 L 64.0 43.0 L 65.0 44.0 L 66.0 45.0 L 67.0 46.0 L 68.0 47.0 L 69.0 48.0 L 70.0 49.0 L 70.5 49.5 Z" stroke="none" fill="rgb(74,156,78)" />
<path d="M 72.5 107.5 L 73.0 107.0 L 74.0 106.0 L 75.0 105.0 L 76.0 104.0 L 77.0 103.0 L 78.0 102.0 L 78.66666666666667 101.0 L 79.33333333333333 100.0 L 80.0 99.0 L 80.66666666666667 98.0 L 81.33333333333333 97.0 L 82.0 96.0 L 82.66666666666667 95.0 L 82.66666666666667 94.0 L 82.33333333333333 93.0 L 82.0 92.0 L 82.0 91.0 L 82.0 90.0 L 81.66666666666667 89.0 L 81.0 88.0 L 80.0 87.0 L 79.33333333333333 86.0 L 78.66666666666667 85.33333333333333 L 78.0 85.33333333333333 L 77.0 86.0 L 76.0 87.0 L 75.0 88.0 L 74.0 89.0 L 73.0 90.0 L 72.0 91.0 L 71.33333333333333 92.0 L 70.66666666666667 93.0 L 70.0 94.0 L 69.0 95.0 L 68.0 96.0 L 67.0 97.0 L 66.0 98.0 L 65.0 99.0 L 64.0 100.0 L 63.0 101.0 L 62.0 101.66666666666667 L 61.0 102.33333333333333 L 60.0 103.0 L 59.0 103.66666666666667 L 58.0 104.33333333333333 L 57.0 104.66666666666667 L 56.0 105.33333333333333 L 55.0 105.66666666666667 L 54.0 106.33333333333333 L 53.0 106.66666666666667 L 52.0 107.0 L 51.0 107.0 L 50.0 107.33333333333333 L 49.333333333333336 108.0 L 49.333333333333336 109.0 L 49.666666666666664 110.0 L 50.0 111.0 L 50.0 112.0 L 50.0 113.0 L 50.0 114.0 L 50.0 115.0 L 49.666666666666664 116.0 L 49.333333333333336 117.0 L 48.666666666666664 118.0 L 48.333333333333336 119.0 L 48.333333333333336 119.66666666666667 L 49.0 120.0 L 50.0 120.0 L 51.0 120.0 L 52.0 119.66666666666667 L 53.0 119.33333333333333 L 54.0 118.66666666666667 L 55.0 118.33333333333333 L 56.0 117.66666666666667 L 57.0 117.33333333333333 L 58.0 117.0 L 59.0 116.66666666666667 L 60.0 116.0 L 61.0 115.33333333333333 L 62.0 114.66666666666667 L 63.0 114.33333333333333 L 64.0 113.66666666666667 L 65.0 113.33333333333333 L 66.0 112.66666666666667 L 67.0 112.0 L 68.0 111.33333333333333 L 69.0 110.66666666666667 L 70.0 110.0 L 71.0 109.0 L 71.5 108.5 Z" stroke="none" fill="rgb(46,125,50)" />
<path d="M 105.5 64.5 L 106.0 64.33333333333333 L 107.0 63.666666666666664 L 108.0 63.0 L 109.0 62.333333333333336 L 110.0 61.666666666666664 L 111.0 61.0 L 112.0 60.333333333333336 L 113.0 59.666666666666664 L 114.0 59.333333333333336 L 115.0 58.666666666666664 L 116.0 58.333333333333336 L 117.0 58.0 L 118.0 57.666666666666664 L 119.0 57.333333333333336 L 120.0 56.666666666666664 L 121.0 56.333333333333336 L 121.66666666666667 55.666666666666664 L 122.0 55.0 L 122.0 54.0 L 122.0 53.0 L 122.0 52.0 L 122.0 51.0 L 122.0 50.0 L 122.0 49.0 L 122.0 48.0 L 122.0 47.0 L 122.0 46.0 L 122.0 45.0 L 122.0 44.0 L 121.66666666666667 43.333333333333336 L 121.0 43.0 L 120.0 43.333333333333336 L 119.0 43.666666666666664 L 118.0 44.333333333333336 L 117.0 44.666666666666664 L 116.0 45.0 L 115.0 45.333333333333336 L 114.0 45.666666666666664 L 113.0 46.333333333333336 L 112.0 46.666666666666664 L 111.0 47.333333333333336 L 110.0 47.666666666666664 L 109.0 48.333333333333336 L 108.0 49.0 L 107.0 49.666666666666664 L 106.0 50.333333333333336 L 105.0 51.0 L 104.0 52.0 L 103.0 52.666666666666664 L 102.0 53.333333333333336 L 101.0 54.0 L 100.0 55.0 L 99.0 56.0 L 98.0 57.0 L 97.0 58.0 L 96.0 59.0 L 95.0 60.0 L 94.0 61.0 L 93.0 62.0 L 92.0 63.0 L 91.33333333333333 64.0 L 90.66666666666667 65.0 L 90.0 66.0 L 89.33333333333333 67.0 L 89.0 68.0 L 89.0 69.0 L 89.33333333333333 70.0 L 89.66666666666667 71.0 L 90.33333333333333 71.66666666666667 L 91.0 72.0 L 92.0 72.0 L 93.0 72.0 L 94.0 72.0 L 95.0 72.0 L 96.0 72.0 L 97.0 72.0 L 98.0 71.66666666666667 L 99.0 71.0 L 100.0 70.0 L 101.0 69.0 L 102.0 68.0 L 103.0 67.0 L 104.0 66.0 L 104.5 65.5 Z" stroke="none" fill="rgb(46,125,50)" />
<path d="M 42.5 77.5 L 43.0 78.0 L 44.0 78.66666666666667 L 45.0 79.0 L 46.0 79.0 L 47.0 79.0 L 48.0 79.0 L 49.0 79.0 L 50.0 79.33333333333333 L 51.0 80.0 L 52.0 81.0 L 53.0 82.0 L 53.333333333333336 83.0 L 53.0 83.66666666666667 L 52.0 84.0 L 51.0 84.33333333333333 L 50.333333333333336 85.0 L 50.333333333333336 86.0 L 51.0 86.66666666666667 L 52.0 87.0 L 53.0 87.0 L 54.0 87.0 L 55.0 87.0 L 56.0 87.0 L 57.0 87.0 L 58.0 87.0 L 59.0 87.0 L 60.0 87.0 L 61.0 87.0 L 61.666666666666664 86.66666666666667 L 62.0 86.0 L 61.666666666666664 85.0 L 61.666666666666664 84.0 L 61.666666666666664 83.0 L 62.0 82.0 L 62.0 81.0 L 62.0 80.0 L 62.0 79.0 L 61.666666666666664 78.0 L 61.0 77.0 L 60.0 76.0 L 59.0 75.0 L 58.0 74.33333333333333 L 57.0 74.0 L 56.0 74.0 L 55.0 74.0 L 54.0 74.0 L 53.0 74.0 L 52.0 73.66666666666667 L 51.0 73.0 L 50.666666666666664 72.0 L 51.0 71.0 L 51.666666666666664 70.0 L 52.0 69.0 L 51.666666666666664 68.0 L 51.0 67.0 L 50.0 66.33333333333333 L 49.0 66.0 L 48.0 66.0 L 47.0 66.33333333333333 L 46.0 66.66666666666667 L 45.0 67.33333333333333 L 44.0 67.66666666666667 L 43.0 68.0 L 42.333333333333336 68.33333333333333 L 41.666666666666664 69.0 L 41.333333333333336 70.0 L 41.0 71.0 L 41.0 72.0 L 41.0 73.0 L 41.0 74.0 L 41.0 75.0 L 41.333333333333336 76.0 L 41.5 76.5 Z" stroke="none" fill="rgb(255,255,255)" />
<path d="M 110.5 95.0 L 111.0 95.0 L 112.0 95.33333333333333 L 113.0 96.0 L 114.0 96.66666666666667 L 115.0 97.0 L 116.0 97.0 L 117.0 97.0 L 118.0 97.0 L 119.0 96.66666666666667 L 119.66666666666667 96.0 L 120.0 95.0 L 120.0 94.0 L 120.0 93.0 L 120.0 92.0 L 120.0 91.0 L 119.66666666666667 90.33333333333333 L 119.0 90.0 L 118.33333333333333 90.33333333333333 L 117.66666666666667 91.0 L 117.0 91.66666666666667 L 116.0 91.66666666666667 L 115.0 91.0 L 114.33333333333333 90.0 L 114.0 89.0 L 114.0 88.0 L 114.0 87.0 L 113.66666666666667 86.33333333333333 L 113.0 86.0 L 112.33333333333333 86.33333333333333 L 111.66666666666667 87.0 L 111.0 88.0 L 110.0 89.0 L 109.0 89.33333333333333 L 108.0 89.0 L 107.33333333333333 88.0 L 107.0 87.0 L 107.0 86.0 L 107.0 85.0 L 106.66666666666667 84.33333333333333 L 106.0 84.0 L 105.0 84.33333333333333 L 104.0 85.0 L 103.0 85.33333333333333 L 102.33333333333333 85.0 L 102.0 84.0 L 102.0 83.0 L 101.66666666666667 82.33333333333333 L 101.0 82.0 L 100.0 82.33333333333333 L 99.0 83.0 L 98.0 83.66666666666667 L 97.0 83.66666666666667 L 96.0 83.0 L 95.33333333333333 82.0 L 95.0 81.0 L 94.66666666666667 80.33333333333333 L 94.0 80.0 L 93.0 80.33333333333333 L 92.0 81.0 L 91.0 82.0 L 90.0 82.66666666666667 L 89.33333333333333 83.33333333333333 L 89.0 84.0 L 89.33333333333333 84.66666666666667 L 90.0 85.0 L 91.0 85.0 L 92.0 85.33333333333333 L 93.0 86.0 L 94.0 86.66666666666667 L 95.0 87.0 L 96.0 87.0 L 97.0 86.66666666666667 L 98.0 86.66666666666667 L 99.0 87.0 L 99.66666666666667 88.0 L 100.33333333333333 89.0 L 101.0 89.66666666666667 L 102.0 90.0 L 103.0 90.0 L 104.0 90.33333333333333 L 104.66666666666667 91.0 L 105.33333333333333 92.0 L 106.0 93.0 L 107.0 94.0 L 108.0 94.66666666666667 L 109.0 95.0 L 109.5 95.0 Z" stroke="none" fill="rgb(189,189,189)" />
<path d="M 23.5 27.0 L 24.0 27.0 L 25.0 27.0 L 26.0 27.333333333333332 L 26.666666666666668 28.0 L 27.0 29.0 L 27.333333333333332 30.0 L 28.0 30.666666666666668 L 29.0 31.0 L 30.0 31.0 L 31.0 31.0 L 32.0 31.0 L 33.0 31.0 L 34.0 31.333333333333332 L 35.0 32.0 L 36.0 32.666666666666664 L 37.0 33.0 L 38.0 33.0 L 39.0 33.0 L 40.0 33.0 L 40.666666666666664 32.666666666666664 L 41.0 32.0 L 40.666666666666664 31.333333333333332 L 40.0 30.666666666666668 L 39.333333333333336 30.0 L 39.0 29.0 L 39.0 28.0 L 39.0 27.0 L 38.666666666666664 26.333333333333332 L 38.0 26.0 L 37.0 26.333333333333332 L 36.0 27.0 L 35.0 27.666666666666668 L 34.0 28.0 L 33.0 27.666666666666668 L 32.333333333333336 27.0 L 32.333333333333336 26.0 L 32.666666666666664 25.0 L 33.333333333333336 24.0 L 33.666666666666664 23.0 L 34.0 22.0 L 33.666666666666664 21.333333333333332 L 33.0 21.0 L 32.0 21.333333333333332 L 31.0 22.0 L 30.0 22.666666666666668 L 29.0 23.333333333333332 L 28.0 23.666666666666668 L 27.0 23.666666666666668 L 26.333333333333332 23.0 L 26.333333333333332 22.0 L 27.0 21.0 L 28.0 20.0 L 28.666666666666668 19.0 L 29.0 18.0 L 28.666666666666668 17.333333333333332 L 28.0 17.333333333333332 L 27.0 17.666666666666668 L 26.0 18.333333333333332 L 25.0 19.0 L 24.0 20.0 L 23.0 21.0 L 22.333333333333332 22.0 L 21.666666666666668 23.0 L 21.333333333333332 24.0 L 21.333333333333332 25.0 L 22.0 26.0 L 22.5 26.5 Z" stroke="none" fill="rgb(189,189,189)" />
<path d="M 36.5 88.5 L 37.0 89.0 L 38.0 90.0 L 38.666666666666664 91.0 L 39.333333333333336 92.0 L 40.0 93.0 L 41.0 94.0 L 42.0 95.0 L 43.0 96.0 L 44.0 96.66666666666667 L 45.0 97.0 L 46.0 97.0 L 47.0 96.66666666666667 L 47.666666666666664 96.0 L 48.0 95.0 L 47.666666666666664 94.33333333333333 L 47.0 94.0 L 46.0 94.0 L 45.0 93.66666666666667 L 44.0 93.0 L 43.0 92.0 L 42.0 91.0 L 41.0 90.0 L 40.0 89.0 L 39.333333333333336 88.0 L 38.666666666666664 87.0 L 38.0 86.0 L 37.0 85.0 L 36.0 84.0 L 35.0 83.0 L 34.0 82.0 L 33.333333333333336 81.0 L 32.666666666666664 80.0 L 32.0 79.0 L 31.333333333333332 78.0 L 31.333333333333332 77.0 L 31.666666666666668 76.0 L 32.0 75.0 L 32.0 74.0 L 32.0 73.0 L 32.0 72.0 L 32.0 71.0 L 32.0 70.0 L 32.333333333333336 69.0 L 33.0 68.0 L 34.0 67.0 L 34.666666666666664 66.0 L 34.666666666666664 65.33333333333333 L 34.0 65.0 L 33.0 65.33333333333333 L 32.0 66.0 L 31.0 67.0 L 30.0 68.0 L 29.333333333333332 69.0 L 29.333333333333332 70.0 L 29.666666666666668 71.0 L 30.0 72.0 L 30.0 73.0 L 29.666666666666668 74.0 L 29.0 75.0 L 28.333333333333332 76.0 L 28.0 77.0 L 28.0 78.0 L 28.333333333333332 79.0 L 29.0 80.0 L 30.0 81.0 L 31.0 82.0 L 31.666666666666668 83.0 L 32.333333333333336 84.0 L 33.0 85.0 L 34.0 86.0 L 35.0 87.0 L 35.5 87.5 Z" stroke="none" fill="rgb(46,125,50)" />
<path d="M 85.0 82.5 L 85.0 82.0 L 85.0 81.0 L 85.33333333333333 80.0 L 85.66666666666667 79.0 L 86.33333333333333 78.0 L 87.0 77.0 L 88.0 76.0 L 89.0 75.0 L 90.0 74.0 L 90.66666666666667 73.0 L 90.66666666666667 72.0 L 90.33333333333333 71.0 L 89.66666666666667 70.33333333333333 L 89.0 70.0 L 88.0 70.33333333333333 L 87.0 71.0 L 86.33333333333333 72.0 L 85.66666666666667 73.0 L 85.0 74.0 L 84.33333333333333 75.0 L 83.66666666666667 76.0 L 83.0 77.0 L 82.33333333333333 78.0 L 81.66666666666667 79.0 L 81.0 80.0 L 80.0 81.0 L 79.0 82.0 L 78.33333333333333 83.0 L 78.0 84.0 L 78.33333333333333 85.0 L 78.66666666666667 86.0 L 79.33333333333333 87.0 L 80.0 88.0 L 81.0 89.0 L 82.0 89.66666666666667 L 83.0 90.0 L 83.66666666666667 89.66666666666667 L 84.0 89.0 L 84.0 88.0 L 84.0 87.0 L 84.0 86.0 L 84.0 85.0 L 84.33333333333333 84.0 L 84.5 83.5 Z" stroke="none" fill="rgb(254,193,109)" />
<path d="M 81.5 20.0 L 82.0 20.0 L 83.0 20.0 L 84.0 20.0 L 85.0 20.0 L 86.0 20.0 L 87.0 20.0 L 88.0 20.333333333333332 L 89.0 21.0 L 90.0 22.0 L 91.0 23.0 L 92.0 24.0 L 93.0 25.0 L 94.0 26.0 L 95.0 27.0 L 96.0 28.0 L 97.0 28.666666666666668 L 98.0 29.0 L 99.0 29.0 L 99.66666666666667 28.666666666666668 L 99.66666666666667 28.0 L 99.0 27.0 L 98.0 26.0 L 97.0 25.0 L 96.0 24.0 L 95.0 23.0 L 94.0 22.0 L 93.0 21.0 L 92.0 20.0 L 91.0 19.0 L 90.0 18.333333333333332 L 89.0 18.0 L 88.0 18.0 L 87.0 18.0 L 86.0 18.0 L 85.0 18.0 L 84.0 18.0 L 83.0 18.0 L 82.0 17.666666666666668 L 81.0 17.0 L 80.0 16.0 L 79.0 15.333333333333334 L 78.0 15.333333333333334 L 77.0 15.666666666666666 L 76.0 16.333333333333332 L 75.33333333333333 17.0 L 75.33333333333333 17.666666666666668 L 76.0 18.0 L 77.0 18.0 L 78.0 18.333333333333332 L 79.0 18.666666666666668 L 80.0 19.333333333333332 L 80.5 19.5 Z" stroke="none" fill="rgb(46,125,50)" />
<path d="M 49.0 40.5 L 49.333333333333336 40.0 L 50.0 39.0 L 50.666666666666664 38.0 L 51.333333333333336 37.0 L 52.0 36.0 L 52.666666666666664 35.0 L 52.666666666666664 34.0 L 52.0 33.333333333333336 L 51.0 33.333333333333336 L 50.0 34.0 L 49.0 34.666666666666664 L 48.0 35.0 L 47.0 35.0 L 46.0 34.666666666666664 L 45.0 34.333333333333336 L 44.0 34.0 L 43.333333333333336 34.333333333333336 L 43.0 35.0 L 43.0 36.0 L 43.0 37.0 L 43.333333333333336 37.666666666666664 L 44.0 38.0 L 45.0 38.333333333333336 L 45.666666666666664 39.0 L 46.0 40.0 L 46.0 41.0 L 46.0 42.0 L 46.333333333333336 42.666666666666664 L 47.0 42.666666666666664 L 48.0 42.0 L 48.5 41.5 Z" stroke="none" fill="rgb(189,189,189)" />
<path d="M 69.5 87.5 L 69.66666666666667 87.0 L 70.33333333333333 86.0 L 71.0 85.0 L 72.0 84.0 L 73.0 83.0 L 74.0 82.0 L 74.66666666666667 81.0 L 74.66666666666667 80.0 L 74.0 79.33333333333333 L 73.0 79.33333333333333 L 72.0 80.0 L 71.33333333333333 81.0 L 70.66666666666667 82.0 L 70.0 83.0 L 69.0 84.0 L 68.0 85.0 L 67.0 86.0 L 66.0 87.0 L 65.0 88.0 L 64.33333333333333 89.0 L 63.666666666666664 90.0 L 63.333333333333336 91.0 L 63.0 92.0 L 63.333333333333336 92.66666666666667 L 64.0 92.66666666666667 L 65.0 92.0 L 66.0 91.0 L 67.0 90.0 L 68.0 89.0 L 68.5 88.5 Z" stroke="none" fill="rgb(46,125,50)" />
<path d="M 91.5 58.5 L 92.0 58.0 L 93.0 57.0 L 94.0 56.0 L 94.66666666666667 55.0 L 94.66666666666667 54.333333333333336 L 94.0 54.0 L 93.0 54.333333333333336 L 92.0 55.0 L 91.0 56.0 L 90.0 57.0 L 89.0 58.0 L 88.0 59.0 L 87.0 60.0 L 86.33333333333333 61.0 L 86.33333333333333 61.666666666666664 L 87.0 62.0 L 88.0 61.666666666666664 L 89.0 61.0 L 90.0 60.0 L 90.5 59.5 Z" stroke="none" fill="rgb(46,125,50)" />
<path d="M 37.5 64.5 L 38.0 64.0 L 39.0 63.0 L 40.0 62.0 L 41.0 61.0 L 41.666666666666664 60.0 L 42.0 59.0 L 41.666666666666664 58.333333333333336 L 41.0 58.333333333333336 L 40.0 59.0 L 39.0 60.0 L 38.0 61.0 L 37.0 62.0 L 36.0 63.0 L 35.333333333333336 64.0 L 35.333333333333336 64.66666666666667 L 36.0 65.0 L 36.5 65.0 Z" stroke="none" fill="rgb(46,125,50)" />
<path d="M 65.5 28.5 L 65.66666666666667 28.0 L 66.0 27.0 L 65.66666666666667 26.333333333333332 L 65.0 26.333333333333332 L 64.0 27.0 L 63.0 28.0 L 62.0 29.0 L 61.333333333333336 30.0 L 61.0 31.0 L 61.333333333333336 31.666666666666668 L 62.0 31.666666666666668 L 63.0 31.0 L 64.0 30.0 L 64.5 29.5 Z" stroke="none" fill="rgb(46,125,50)" />
<path d="M 99.5 51.5 L 100.0 51.0 L 100.66666666666667 50.0 L 100.66666666666667 49.333333333333336 L 100.0 49.0 L 99.0 49.333333333333336 L 98.0 50.0 L 97.0 51.0 L 96.0 52.0 L 95.33333333333333 53.0 L 95.33333333333333 53.666666666666664 L 96.0 54.0 L 97.0 53.666666666666664 L 98.0 53.0 L 98.5 52.5 Z" stroke="none" fill="rgb(46,125,50)" />
<path d="M 75.0 18.5 L 74.66666666666667 18.333333333333332 L 74.0 18.0 L 73.0 18.333333333333332 L 72.0 19.0 L 71.0 20.0 L 70.33333333333333 21.0 L 70.33333333333333 21.666666666666668 L 71.0 22.0 L 72.0 21.666666666666668 L 73.0 21.0 L 74.0 20.0 L 74.5 19.5 Z" stroke="none" fill="rgb(46,125,50)" />
<path d="M 43.5 57.5 L 44.0 57.0 L 45.0 56.0 L 45.666666666666664 55.0 L 46.0 54.0 L 45.666666666666664 53.333333333333336 L 45.0 53.333333333333336 L 44.0 54.0 L 43.0 55.0 L 42.333333333333336 56.0 L 42.0 57.0 L 42.333333333333336 57.666666666666664 L 42.5 58.0 Z" stroke="none" fill="rgb(46,125,50)" />
<path d="M 81.5 93.5 L 82.0 93.66666666666667 L 83.0 94.0 L 83.66666666666667 93.66666666666667 L 84.0 93.0 L 84.0 92.0 L 84.0 91.0 L 83.66666666666667 90.33333333333333 L 83.0 90.0 L 82.33333333333333 90.33333333333333 L 81.66666666666667 91.0 L 81.33333333333333 92.0 L 81.0 92.5 Z" stroke="none" fill="rgb(227,161,72)" />
<path d="M 59.5 97.5 L 59.666666666666664 97.0 L 60.0 96.0 L 59.666666666666664 95.33333333333333 L 59.0 95.33333333333333 L 58.0 96.0 L 57.0 97.0 L 56.333333333333336 98.0 L 56.333333333333336 98.66666666666667 L 57.0 99.0 L 58.0 98.66666666666667 L 58.5 98.5 Z" stroke="none" fill="rgb(46,125,50)" />
<path d="M 104.5 47.5 L 104.66666666666667 47.0 L 104.66666666666667 46.333333333333336 L 104.0 46.0 L 103.0 46.333333333333336 L 102.0 47.0 L 101.33333333333333 48.0 L 101.33333333333333 48.666666666666664 L 102.0 49.0 L 103.0 48.666666666666664 L 103.5 48.5 Z" stroke="none" fill="rgb(46,125,50)" />
<path d="M 60.5 34.5 L 60.666666666666664 34.0 L 61.0 33.0 L 60.666666666666664 32.333333333333336 L 60.0 32.333333333333336 L 59.0 33.0 L 58.333333333333336 34.0 L 58.333333333333336 34.666666666666664 L 59.0 35.0 L 59.5 35.0 Z" stroke="none" fill="rgb(46,125,50)" />
<path d="M 120.0 86.5 L 120.0 86.0 L 120.0 85.0 L 119.66666666666667 84.33333333333333 L 119.0 84.0 L 118.33333333333333 84.33333333333333 L 118.0 85.0 L 118.0 86.0 L 118.33333333333333 86.66666666666667 L 119.0 87.0 L 119.5 87.0 Z" stroke="none" fill="rgb(204,205,204)" />
<path d="M 31.5 41.0 L 31.666666666666668 40.666666666666664 L 31.666666666666668 40.333333333333336 L 31.333333333333332 40.333333333333336 L 31.0 40.5 Z" stroke="none" fill="rgb(255,255,255)" />
<path d="M 122.0 42.5 L 121.66666666666667 42.333333333333336 L 121.33333333333333 42.333333333333336 L 121.33333333333333 42.666666666666664 L 121.5 43.0 Z" stroke="none" fill="rgb(0,0,0)" />
<path d="M 107.0 44.5 L 106.66666666666667 44.333333333333336 L 106.33333333333333 44.333333333333336 L 106.33333333333333 44.666666666666664 L 106.5 45.0 Z" stroke="none" fill="rgb(46,125,50)" />
<path d="M 105.5 46.0 L 105.66666666666667 45.666666666666664 L 105.66666666666667 45.333333333333336 L 105.33333333333333 45.333333333333336 L 105.0 45.5 Z" stroke="none" fill="rgb(46,125,50)" />
<path d="M 99.5 71.0 L 99.66666666666667 70.66666666666667 L 99.66666666666667 70.33333333333333 L 99.33333333333333 70.33333333333333 L 99.0 70.5 Z" stroke="none" fill="rgb(255,255,255)" />
<path d="M 17.0 71.5 L 16.666666666666668 71.33333333333333 L 16.333333333333332 71.33333333333333 L 16.333333333333332 71.66666666666667 L 16.5 72.0 Z" stroke="none" fill="rgb(0,0,0)" />
<path d="M 99.0 85.5 L 98.66666666666667 85.33333333333333 L 98.33333333333333 85.33333333333333 L 98.33333333333333 85.66666666666667 L 98.5 86.0 Z" stroke="none" fill="rgb(204,205,204)" />
<path d="M 98.5 96.0 L 98.66666666666667 95.66666666666667 L 98.66666666666667 95.33333333333333 L 98.33333333333333 95.33333333333333 L 98.0 95.5 Z" stroke="none" fill="rgb(255,255,255)" />
<path d="M 48.5 121.0 L 48.666666666666664 120.66666666666667 L 48.666666666666664 120.33333333333333 L 48.333333333333336 120.33333333333333 L 48.0 120.5 Z" stroke="none" fill="rgb(0,0,0)" />
</svg>
